[[{"note": 61, "velocity": 115, "duration": 69}, {"note": 63, "velocity": 109, "duration": 45}, {"note": 0, "velocity": 0, "duration": 75}, {"note": 66, "velocity": 118, "duration": 49}, {"note": 0, "velocity": 0, "duration": 71}, {"note": 68, "velocity": 112, "duration": 60}, {"note": 70, "velocity": 112, "duration": 79}, {"note": 0, "velocity": 0, "duration": 161}, {"note": 66, "velocity": 112, "duration": 148}, {"note": 0, "velocity": 0, "duration": 92}, {"note": 63, "velocity": 118, "duration": 173}, {"note": 0, "velocity": 0, "duration": 67}, {"note": 68, "velocity": 115, "duration": 711}, {"note": 0, "velocity": 0, "duration": 489}, {"note": 68, "velocity": 112, "duration": 164}, {"note": 0, "velocity": 0, "duration": 76}, {"note": 65, "velocity": 115, "duration": 138}, {"note": 0, "velocity": 0, "duration": 102}, {"note": 61, "velocity": 115, "duration": 134}, {"note": 0, "velocity": 0, "duration": 106}, {"note": 66, "velocity": 118, "duration": 554}, {"note": 0, "velocity": 0, "duration": 166}, {"note": 61, "velocity": 112, "duration": 71}, {"note": 63, "velocity": 112, "duration": 51}, {"note": 0, "velocity": 0, "duration": 69}, {"note": 66, "velocity": 115, "duration": 53}, {"note": 0, "velocity": 0, "duration": 67}, {"note": 68, "velocity": 112, "duration": 65}, {"note": 70, "velocity": 109, "duration": 74}, {"note": 0, "velocity": 0, "duration": 166}, {"note": 66, "velocity": 112, "duration": 151}, {"note": 0, "velocity": 0, "duration": 89}, {"note": 63, "velocity": 115, "duration": 115}, {"note": 0, "velocity": 0, "duration": 125}, {"note": 68, "velocity": 115, "duration": 350}, {"note": 0, "velocity": 0, "duration": 130}, {"note": 61, "velocity": 115, "duration": 94}, {"note": 0, "velocity": 0, "duration": 146}, {"note": 68, "velocity": 115, "duration": 94}, {"note": 0, "velocity": 0, "duration": 146}, {"note": 66, "velocity": 118, "duration": 879}, {"note": 0, "velocity": 0, "duration": 1281}, {"note": 66, "velocity": 115, "duration": 298}, {"note": 0, "velocity": 0, "duration": 182}, {"note": 66, "velocity": 115, "duration": 250}, {"note": 0, "velocity": 0, "duration": 230}, {"note": 65, "velocity": 115, "duration": 141}, {"note": 0, "velocity": 0, "duration": 99}, {"note": 66, "velocity": 115, "duration": 63}, {"note": 65, "velocity": 115, "duration": 163}, {"note": 0, "velocity": 0, "duration": 437}, {"note": 65, "velocity": 112, "duration": 102}, {"note": 0, "velocity": 0, "duration": 138}, {"note": 66, "velocity": 115, "duration": 67}, {"note": 65, "velocity": 115, "duration": 70}, {"note": 0, "velocity": 0, "duration": 170}, {"note": 61, "velocity": 115, "duration": 80}, {"note": 0, "velocity": 0, "duration": 160}, {"note": 63, "velocity": 115, "duration": 449}, {"note": 0, "velocity": 0, "duration": 391}, {"note": 63, "velocity": 115, "duration": 64}, {"note": 65, "velocity": 112, "duration": 57}, {"note": 0, "velocity": 0, "duration": 63}, {"note": 66, "velocity": 115, "duration": 351}, {"note": 0, "velocity": 0, "duration": 129}, {"note": 66, "velocity": 115, "duration": 284}, {"note": 0, "velocity": 0, "duration": 196}, {"note": 65, "velocity": 115, "duration": 128}, {"note": 0, "velocity": 0, "duration": 112}, {"note": 66, "velocity": 112, "duration": 62}, {"note": 65, "velocity": 115, "duration": 128}, {"note": 0, "velocity": 0, "duration": 112}, {"note": 63, "velocity": 112, "duration": 167}, {"note": 0, "velocity": 0, "duration": 73}, {"note": 61, "velocity": 115, "duration": 936}, {"note": 0, "velocity": 0, "duration": 1104}, {"note": 66, "velocity": 118, "duration": 266}, {"note": 0, "velocity": 0, "duration": 214}, {"note": 66, "velocity": 118, "duration": 324}, {"note": 0, "velocity": 0, "duration": 156}, {"note": 68, "velocity": 112, "duration": 125}, {"note": 0, "velocity": 0, "duration": 115}, {"note": 70, "velocity": 112, "duration": 56}, {"note": 0, "velocity": 0, "duration": 64}, {"note": 68, "velocity": 118, "duration": 130}, {"note": 0, "velocity": 0, "duration": 470}, {"note": 68, "velocity": 112, "duration": 122}, {"note": 0, "velocity": 0, "duration": 118}, {"note": 70, "velocity": 115, "duration": 59}, {"note": 0, "velocity": 0, "duration": 61}, {"note": 68, "velocity": 115, "duration": 103}, {"note": 0, "velocity": 0, "duration": 137}, {"note": 65, "velocity": 115, "duration": 88}, {"note": 0, "velocity": 0, "duration": 152}, {"note": 66, "velocity": 118, "duration": 625}, {"note": 0, "velocity": 0, "duration": 215}, {"note": 61, "velocity": 115, "duration": 64}, {"note": 63, "velocity": 115, "duration": 53}, {"note": 0, "velocity": 0, "duration": 67}, {"note": 66, "velocity": 118, "duration": 72}, {"note": 0, "velocity": 0, "duration": 168}, {"note": 70, "velocity": 115, "duration": 61}, {"note": 68, "velocity": 112, "duration": 84}, {"note": 0, "velocity": 0, "duration": 156}, {"note": 66, "velocity": 115, "duration": 72}, {"note": 0, "velocity": 0, "duration": 288}, {"note": 68, "velocity": 109, "duration": 107}, {"note": 0, "velocity": 0, "duration": 133}, {"note": 70, "velocity": 112, "duration": 56}, {"note": 0, "velocity": 0, "duration": 64}, {"note": 68, "velocity": 115, "duration": 95}, {"note": 0, "velocity": 0, "duration": 145}, {"note": 66, "velocity": 115, "duration": 118}, {"note": 0, "velocity": 0, "duration": 242}, {"note": 66, "velocity": 115, "duration": 772}, {"note": 0, "velocity": 0, "duration": 668}, {"note": 61, "velocity": 115, "duration": 69}, {"note": 63, "velocity": 109, "duration": 45}, {"note": 0, "velocity": 0, "duration": 75}, {"note": 66, "velocity": 118, "duration": 49}, {"note": 0, "velocity": 0, "duration": 71}, {"note": 68, "velocity": 112, "duration": 60}, {"note": 70, "velocity": 112, "duration": 79}, {"note": 0, "velocity": 0, "duration": 161}, {"note": 66, "velocity": 112, "duration": 148}, {"note": 0, "velocity": 0, "duration": 92}, {"note": 63, "velocity": 118, "duration": 173}, {"note": 0, "velocity": 0, "duration": 67}, {"note": 68, "velocity": 115, "duration": 711}, {"note": 0, "velocity": 0, "duration": 489}, {"note": 68, "velocity": 112, "duration": 164}, {"note": 0, "velocity": 0, "duration": 76}, {"note": 65, "velocity": 115, "duration": 138}, {"note": 0, "velocity": 0, "duration": 102}, {"note": 61, "velocity": 115, "duration": 134}, {"note": 0, "velocity": 0, "duration": 106}, {"note": 66, "velocity": 118, "duration": 554}, {"note": 0, "velocity": 0, "duration": 166}, {"note": 61, "velocity": 112, "duration": 71}, {"note": 63, "velocity": 112, "duration": 51}, {"note": 0, "velocity": 0, "duration": 69}, {"note": 66, "velocity": 115, "duration": 53}, {"note": 0, "velocity": 0, "duration": 67}, {"note": 68, "velocity": 112, "duration": 65}, {"note": 70, "velocity": 109, "duration": 74}, {"note": 0, "velocity": 0, "duration": 166}, {"note": 66, "velocity": 112, "duration": 151}, {"note": 0, "velocity": 0, "duration": 89}, {"note": 63, "velocity": 115, "duration": 115}, {"note": 0, "velocity": 0, "duration": 125}, {"note": 68, "velocity": 115, "duration": 350}, {"note": 0, "velocity": 0, "duration": 130}, {"note": 61, "velocity": 115, "duration": 94}, {"note": 0, "velocity": 0, "duration": 146}, {"note": 68, "velocity": 115, "duration": 94}, {"note": 0, "velocity": 0, "duration": 146}, {"note": 70, "velocity": 118, "duration": 879}, {"note": 0, "velocity": 0, "duration": 801}, {"note": 61, "velocity": 115, "duration": 69}, {"note": 63, "velocity": 109, "duration": 45}, {"note": 0, "velocity": 0, "duration": 75}, {"note": 66, "velocity": 118, "duration": 49}, {"note": 0, "velocity": 0, "duration": 71}, {"note": 68, "velocity": 112, "duration": 60}, {"note": 70, "velocity": 112, "duration": 79}, {"note": 0, "velocity": 0, "duration": 161}, {"note": 66, "velocity": 112, "duration": 148}, {"note": 0, "velocity": 0, "duration": 92}, {"note": 63, "velocity": 118, "duration": 173}, {"note": 0, "velocity": 0, "duration": 67}, {"note": 68, "velocity": 115, "duration": 711}, {"note": 0, "velocity": 0, "duration": 489}, {"note": 68, "velocity": 112, "duration": 164}, {"note": 0, "velocity": 0, "duration": 76}, {"note": 65, "velocity": 115, "duration": 138}, {"note": 0, "velocity": 0, "duration": 102}, {"note": 61, "velocity": 115, "duration": 134}, {"note": 0, "velocity": 0, "duration": 106}, {"note": 66, "velocity": 118, "duration": 554}, {"note": 0, "velocity": 0, "duration": 166}, {"note": 61, "velocity": 112, "duration": 71}, {"note": 63, "velocity": 112, "duration": 51}, {"note": 0, "velocity": 0, "duration": 69}, {"note": 66, "velocity": 115, "duration": 53}, {"note": 0, "velocity": 0, "duration": 67}, {"note": 68, "velocity": 112, "duration": 65}, {"note": 70, "velocity": 109, "duration": 74}, {"note": 0, "velocity": 0, "duration": 166}, {"note": 66, "velocity": 112, "duration": 151}, {"note": 0, "velocity": 0, "duration": 89}, {"note": 63, "velocity": 115, "duration": 115}, {"note": 0, "velocity": 0, "duration": 125}, {"note": 68, "velocity": 115, "duration": 350}, {"note": 0, "velocity": 0, "duration": 130}, {"note": 61, "velocity": 115, "duration": 94}, {"note": 0, "velocity": 0, "duration": 146}, {"note": 68, "velocity": 115, "duration": 94}, {"note": 0, "velocity": 0, "duration": 146}, {"note": 66, "velocity": 118, "duration": 879}, {"note": 0, "velocity": 0, "duration": 8961}, {"note": 66, "velocity": 115, "duration": 298}, {"note": 0, "velocity": 0, "duration": 182}, {"note": 66, "velocity": 115, "duration": 250}, {"note": 0, "velocity": 0, "duration": 230}, {"note": 65, "velocity": 115, "duration": 141}, {"note": 0, "velocity": 0, "duration": 99}, {"note": 66, "velocity": 115, "duration": 63}, {"note": 65, "velocity": 115, "duration": 163}, {"note": 0, "velocity": 0, "duration": 437}, {"note": 65, "velocity": 112, "duration": 102}, {"note": 0, "velocity": 0, "duration": 138}, {"note": 66, "velocity": 115, "duration": 67}, {"note": 65, "velocity": 115, "duration": 70}, {"note": 0, "velocity": 0, "duration": 170}, {"note": 61, "velocity": 115, "duration": 80}, {"note": 0, "velocity": 0, "duration": 160}, {"note": 63, "velocity": 115, "duration": 449}, {"note": 0, "velocity": 0, "duration": 391}, {"note": 63, "velocity": 115, "duration": 64}, {"note": 65, "velocity": 112, "duration": 57}, {"note": 0, "velocity": 0, "duration": 63}, {"note": 66, "velocity": 115, "duration": 351}, {"note": 0, "velocity": 0, "duration": 129}, {"note": 66, "velocity": 115, "duration": 284}, {"note": 0, "velocity": 0, "duration": 196}, {"note": 65, "velocity": 115, "duration": 128}, {"note": 0, "velocity": 0, "duration": 112}, {"note": 66, "velocity": 112, "duration": 62}, {"note": 65, "velocity": 115, "duration": 128}, {"note": 0, "velocity": 0, "duration": 112}, {"note": 63, "velocity": 112, "duration": 167}, {"note": 0, "velocity": 0, "duration": 73}, {"note": 61, "velocity": 115, "duration": 936}, {"note": 0, "velocity": 0, "duration": 1104}, {"note": 66, "velocity": 118, "duration": 266}, {"note": 0, "velocity": 0, "duration": 214}, {"note": 66, "velocity": 118, "duration": 324}, {"note": 0, "velocity": 0, "duration": 156}, {"note": 68, "velocity": 112, "duration": 125}, {"note": 0, "velocity": 0, "duration": 115}, {"note": 70, "velocity": 112, "duration": 56}, {"note": 0, "velocity": 0, "duration": 64}, {"note": 68, "velocity": 118, "duration": 130}, {"note": 0, "velocity": 0, "duration": 470}, {"note": 68, "velocity": 112, "duration": 122}, {"note": 0, "velocity": 0, "duration": 118}, {"note": 70, "velocity": 115, "duration": 59}, {"note": 0, "velocity": 0, "duration": 61}, {"note": 68, "velocity": 115, "duration": 103}, {"note": 0, "velocity": 0, "duration": 137}, {"note": 65, "velocity": 115, "duration": 88}, {"note": 0, "velocity": 0, "duration": 152}, {"note": 66, "velocity": 118, "duration": 625}, {"note": 0, "velocity": 0, "duration": 215}, {"note": 61, "velocity": 115, "duration": 64}, {"note": 63, "velocity": 115, "duration": 53}, {"note": 0, "velocity": 0, "duration": 67}, {"note": 66, "velocity": 118, "duration": 72}, {"note": 0, "velocity": 0, "duration": 168}, {"note": 70, "velocity": 115, "duration": 61}, {"note": 68, "velocity": 112, "duration": 84}, {"note": 0, "velocity": 0, "duration": 156}, {"note": 66, "velocity": 115, "duration": 72}, {"note": 0, "velocity": 0, "duration": 288}, {"note": 68, "velocity": 109, "duration": 107}, {"note": 0, "velocity": 0, "duration": 133}, {"note": 70, "velocity": 112, "duration": 56}, {"note": 0, "velocity": 0, "duration": 64}, {"note": 68, "velocity": 115, "duration": 95}, {"note": 0, "velocity": 0, "duration": 145}, {"note": 66, "velocity": 115, "duration": 118}, {"note": 0, "velocity": 0, "duration": 242}, {"note": 66, "velocity": 115, "duration": 772}, {"note": 0, "velocity": 0, "duration": 668}, {"note": 61, "velocity": 115, "duration": 69}, {"note": 63, "velocity": 109, "duration": 45}, {"note": 0, "velocity": 0, "duration": 75}, {"note": 66, "velocity": 118, "duration": 49}, {"note": 0, "velocity": 0, "duration": 71}, {"note": 68, "velocity": 112, "duration": 60}, {"note": 70, "velocity": 112, "duration": 79}, {"note": 0, "velocity": 0, "duration": 161}, {"note": 66, "velocity": 112, "duration": 148}, {"note": 0, "velocity": 0, "duration": 92}, {"note": 63, "velocity": 118, "duration": 173}, {"note": 0, "velocity": 0, "duration": 67}, {"note": 68, "velocity": 115, "duration": 711}, {"note": 0, "velocity": 0, "duration": 489}, {"note": 68, "velocity": 112, "duration": 164}, {"note": 0, "velocity": 0, "duration": 76}, {"note": 65, "velocity": 115, "duration": 138}, {"note": 0, "velocity": 0, "duration": 102}, {"note": 61, "velocity": 115, "duration": 134}, {"note": 0, "velocity": 0, "duration": 106}, {"note": 66, "velocity": 118, "duration": 554}, {"note": 0, "velocity": 0, "duration": 166}, {"note": 61, "velocity": 112, "duration": 71}, {"note": 63, "velocity": 112, "duration": 51}, {"note": 0, "velocity": 0, "duration": 69}, {"note": 66, "velocity": 115, "duration": 53}, {"note": 0, "velocity": 0, "duration": 67}, {"note": 68, "velocity": 112, "duration": 65}, {"note": 70, "velocity": 109, "duration": 74}, {"note": 0, "velocity": 0, "duration": 166}, {"note": 66, "velocity": 112, "duration": 151}, {"note": 0, "velocity": 0, "duration": 89}, {"note": 63, "velocity": 115, "duration": 115}, {"note": 0, "velocity": 0, "duration": 125}, {"note": 68, "velocity": 115, "duration": 350}, {"note": 0, "velocity": 0, "duration": 130}, {"note": 61, "velocity": 115, "duration": 94}, {"note": 0, "velocity": 0, "duration": 146}, {"note": 68, "velocity": 115, "duration": 94}, {"note": 0, "velocity": 0, "duration": 146}, {"note": 70, "velocity": 118, "duration": 879}, {"note": 0, "velocity": 0, "duration": 801}, {"note": 61, "velocity": 115, "duration": 69}, {"note": 63, "velocity": 109, "duration": 45}, {"note": 0, "velocity": 0, "duration": 75}, {"note": 66, "velocity": 118, "duration": 49}, {"note": 0, "velocity": 0, "duration": 71}, {"note": 68, "velocity": 112, "duration": 60}, {"note": 70, "velocity": 112, "duration": 79}, {"note": 0, "velocity": 0, "duration": 161}, {"note": 66, "velocity": 112, "duration": 148}, {"note": 0, "velocity": 0, "duration": 92}, {"note": 63, "velocity": 118, "duration": 173}, {"note": 0, "velocity": 0, "duration": 67}, {"note": 68, "velocity": 115, "duration": 711}, {"note": 0, "velocity": 0, "duration": 489}, {"note": 68, "velocity": 112, "duration": 164}, {"note": 0, "velocity": 0, "duration": 76}, {"note": 65, "velocity": 115, "duration": 138}, {"note": 0, "velocity": 0, "duration": 102}, {"note": 61, "velocity": 115, "duration": 134}, {"note": 0, "velocity": 0, "duration": 106}, {"note": 66, "velocity": 118, "duration": 554}, {"note": 0, "velocity": 0, "duration": 166}, {"note": 61, "velocity": 112, "duration": 71}, {"note": 63, "velocity": 112, "duration": 51}, {"note": 0, "velocity": 0, "duration": 69}, {"note": 66, "velocity": 115, "duration": 53}, {"note": 0, "velocity": 0, "duration": 67}, {"note": 68, "velocity": 112, "duration": 65}, {"note": 70, "velocity": 109, "duration": 74}, {"note": 0, "velocity": 0, "duration": 166}, {"note": 66, "velocity": 112, "duration": 151}, {"note": 0, "velocity": 0, "duration": 89}, {"note": 63, "velocity": 115, "duration": 115}, {"note": 0, "velocity": 0, "duration": 125}, {"note": 68, "velocity": 115, "duration": 350}, {"note": 0, "velocity": 0, "duration": 130}, {"note": 61, "velocity": 115, "duration": 94}, {"note": 0, "velocity": 0, "duration": 146}, {"note": 68, "velocity": 115, "duration": 94}, {"note": 0, "velocity": 0, "duration": 146}, {"note": 66, "velocity": 118, "duration": 879}, {"note": 0, "velocity": 0, "duration": 16161}, {"note": 61, "velocity": 115, "duration": 69}, {"note": 63, "velocity": 109, "duration": 45}, {"note": 0, "velocity": 0, "duration": 75}, {"note": 66, "velocity": 118, "duration": 49}, {"note": 0, "velocity": 0, "duration": 71}, {"note": 68, "velocity": 112, "duration": 60}, {"note": 70, "velocity": 112, "duration": 79}, {"note": 0, "velocity": 0, "duration": 161}, {"note": 66, "velocity": 112, "duration": 148}, {"note": 0, "velocity": 0, "duration": 92}, {"note": 63, "velocity": 118, "duration": 173}, {"note": 0, "velocity": 0, "duration": 67}, {"note": 68, "velocity": 115, "duration": 711}, {"note": 0, "velocity": 0, "duration": 489}, {"note": 68, "velocity": 112, "duration": 164}, {"note": 0, "velocity": 0, "duration": 76}, {"note": 65, "velocity": 115, "duration": 138}, {"note": 0, "velocity": 0, "duration": 102}, {"note": 61, "velocity": 115, "duration": 134}, {"note": 0, "velocity": 0, "duration": 106}, {"note": 66, "velocity": 118, "duration": 554}, {"note": 0, "velocity": 0, "duration": 166}, {"note": 61, "velocity": 112, "duration": 71}, {"note": 63, "velocity": 112, "duration": 51}, {"note": 0, "velocity": 0, "duration": 69}, {"note": 66, "velocity": 115, "duration": 53}, {"note": 0, "velocity": 0, "duration": 67}, {"note": 68, "velocity": 112, "duration": 65}, {"note": 70, "velocity": 109, "duration": 74}, {"note": 0, "velocity": 0, "duration": 166}, {"note": 66, "velocity": 112, "duration": 151}, {"note": 0, "velocity": 0, "duration": 89}, {"note": 63, "velocity": 115, "duration": 115}, {"note": 0, "velocity": 0, "duration": 125}, {"note": 68, "velocity": 115, "duration": 350}, {"note": 0, "velocity": 0, "duration": 130}, {"note": 61, "velocity": 115, "duration": 94}, {"note": 0, "velocity": 0, "duration": 146}, {"note": 68, "velocity": 115, "duration": 94}, {"note": 0, "velocity": 0, "duration": 146}, {"note": 70, "velocity": 118, "duration": 879}, {"note": 0, "velocity": 0, "duration": 801}, {"note": 61, "velocity": 115, "duration": 69}, {"note": 63, "velocity": 109, "duration": 45}, {"note": 0, "velocity": 0, "duration": 75}, {"note": 66, "velocity": 118, "duration": 49}, {"note": 0, "velocity": 0, "duration": 71}, {"note": 68, "velocity": 112, "duration": 60}, {"note": 70, "velocity": 112, "duration": 79}, {"note": 0, "velocity": 0, "duration": 161}, {"note": 66, "velocity": 112, "duration": 148}, {"note": 0, "velocity": 0, "duration": 92}, {"note": 63, "velocity": 118, "duration": 173}, {"note": 0, "velocity": 0, "duration": 67}, {"note": 68, "velocity": 115, "duration": 711}, {"note": 0, "velocity": 0, "duration": 489}, {"note": 68, "velocity": 112, "duration": 164}, {"note": 0, "velocity": 0, "duration": 76}, {"note": 65, "velocity": 115, "duration": 138}, {"note": 0, "velocity": 0, "duration": 102}, {"note": 61, "velocity": 115, "duration": 134}, {"note": 0, "velocity": 0, "duration": 106}, {"note": 66, "velocity": 118, "duration": 554}, {"note": 0, "velocity": 0, "duration": 166}, {"note": 61, "velocity": 112, "duration": 71}, {"note": 63, "velocity": 112, "duration": 51}, {"note": 0, "velocity": 0, "duration": 69}, {"note": 66, "velocity": 115, "duration": 53}, {"note": 0, "velocity": 0, "duration": 67}, {"note": 68, "velocity": 112, "duration": 65}, {"note": 70, "velocity": 109, "duration": 74}, {"note": 0, "velocity": 0, "duration": 166}, {"note": 66, "velocity": 112, "duration": 151}, {"note": 0, "velocity": 0, "duration": 89}, {"note": 63, "velocity": 115, "duration": 115}, {"note": 0, "velocity": 0, "duration": 125}, {"note": 68, "velocity": 115, "duration": 350}, {"note": 0, "velocity": 0, "duration": 130}, {"note": 61, "velocity": 115, "duration": 94}, {"note": 0, "velocity": 0, "duration": 146}, {"note": 68, "velocity": 115, "duration": 94}, {"note": 0, "velocity": 0, "duration": 146}, {"note": 66, "velocity": 118, "duration": 879}, {"note": 0, "velocity": 0, "duration": 8481}, {"note": 61, "velocity": 115, "duration": 69}, {"note": 63, "velocity": 109, "duration": 45}, {"note": 0, "velocity": 0, "duration": 75}, {"note": 66, "velocity": 118, "duration": 49}, {"note": 0, "velocity": 0, "duration": 71}, {"note": 68, "velocity": 112, "duration": 60}, {"note": 70, "velocity": 112, "duration": 79}, {"note": 0, "velocity": 0, "duration": 161}, {"note": 66, "velocity": 112, "duration": 148}, {"note": 0, "velocity": 0, "duration": 92}, {"note": 63, "velocity": 118, "duration": 173}, {"note": 0, "velocity": 0, "duration": 67}, {"note": 68, "velocity": 115, "duration": 711}, {"note": 0, "velocity": 0, "duration": 489}, {"note": 68, "velocity": 112, "duration": 164}, {"note": 0, "velocity": 0, "duration": 76}, {"note": 65, "velocity": 115, "duration": 138}, {"note": 0, "velocity": 0, "duration": 102}, {"note": 61, "velocity": 115, "duration": 134}, {"note": 0, "velocity": 0, "duration": 106}, {"note": 66, "velocity": 118, "duration": 554}, {"note": 0, "velocity": 0, "duration": 166}, {"note": 61, "velocity": 112, "duration": 71}, {"note": 63, "velocity": 112, "duration": 51}, {"note": 0, "velocity": 0, "duration": 69}, {"note": 66, "velocity": 115, "duration": 53}, {"note": 0, "velocity": 0, "duration": 67}, {"note": 68, "velocity": 112, "duration": 65}, {"note": 70, "velocity": 109, "duration": 74}, {"note": 0, "velocity": 0, "duration": 166}, {"note": 66, "velocity": 112, "duration": 151}, {"note": 0, "velocity": 0, "duration": 89}, {"note": 63, "velocity": 115, "duration": 115}, {"note": 0, "velocity": 0, "duration": 125}, {"note": 68, "velocity": 115, "duration": 350}, {"note": 0, "velocity": 0, "duration": 130}, {"note": 61, "velocity": 115, "duration": 94}, {"note": 0, "velocity": 0, "duration": 146}, {"note": 68, "velocity": 115, "duration": 94}, {"note": 0, "velocity": 0, "duration": 146}, {"note": 66, "velocity": 118, "duration": 879}]]