[[{"note": 75, "velocity": 105, "duration": 73}, {"note": 73, "velocity": 66, "duration": 61}, {"note": 75, "velocity": 105, "duration": 50}, {"note": 0, "velocity": 0, "duration": 70}, {"note": 73, "velocity": 92, "duration": 55}, {"note": 0, "velocity": 0, "duration": 65}, {"note": 75, "velocity": 111, "duration": 193}, {"note": 71, "velocity": 111, "duration": 158}, {"note": 0, "velocity": 0, "duration": 82}, {"note": 70, "velocity": 114, "duration": 175}, {"note": 0, "velocity": 0, "duration": 65}, {"note": 71, "velocity": 108, "duration": 61}, {"note": 73, "velocity": 105, "duration": 305}, {"note": 0, "velocity": 0, "duration": 295}, {"note": 71, "velocity": 89, "duration": 80}, {"note": 70, "velocity": 87, "duration": 57}, {"note": 0, "velocity": 0, "duration": 63}, {"note": 71, "velocity": 100, "duration": 61}, {"note": 70, "velocity": 102, "duration": 57}, {"note": 0, "velocity": 0, "duration": 63}, {"note": 71, "velocity": 114, "duration": 349}, {"note": 0, "velocity": 0, "duration": 131}, {"note": 71, "velocity": 108, "duration": 168}, {"note": 0, "velocity": 0, "duration": 72}, {"note": 70, "velocity": 108, "duration": 153}, {"note": 0, "velocity": 0, "duration": 87}, {"note": 68, "velocity": 102, "duration": 60}, {"note": 70, "velocity": 111, "duration": 300}, {"note": 75, "velocity": 108, "duration": 53}, {"note": 0, "velocity": 0, "duration": 67}, {"note": 73, "velocity": 89, "duration": 50}, {"note": 0, "velocity": 0, "duration": 70}, {"note": 75, "velocity": 102, "duration": 52}, {"note": 0, "velocity": 0, "duration": 68}, {"note": 73, "velocity": 105, "duration": 55}, {"note": 0, "velocity": 0, "duration": 65}, {"note": 75, "velocity": 111, "duration": 145}, {"note": 0, "velocity": 0, "duration": 95}, {"note": 80, "velocity": 102, "duration": 152}, {"note": 0, "velocity": 0, "duration": 88}, {"note": 78, "velocity": 108, "duration": 168}, {"note": 0, "velocity": 0, "duration": 72}, {"note": 73, "velocity": 94, "duration": 160}, {"note": 0, "velocity": 0, "duration": 80}, {"note": 73, "velocity": 105, "duration": 438}, {"note": 71, "velocity": 102, "duration": 171}, {"note": 0, "velocity": 0, "duration": 69}, {"note": 70, "velocity": 114, "duration": 56}, {"note": 0, "velocity": 0, "duration": 64}, {"note": 71, "velocity": 97, "duration": 389}, {"note": 0, "velocity": 0, "duration": 91}, {"note": 73, "velocity": 100, "duration": 60}, {"note": 75, "velocity": 105, "duration": 173}, {"note": 0, "velocity": 0, "duration": 67}, {"note": 73, "velocity": 108, "duration": 152}, {"note": 0, "velocity": 0, "duration": 88}, {"note": 71, "velocity": 105, "duration": 55}, {"note": 0, "velocity": 0, "duration": 65}, {"note": 73, "velocity": 108, "duration": 306}, {"note": 75, "velocity": 102, "duration": 55}, {"note": 0, "velocity": 0, "duration": 65}, {"note": 73, "velocity": 92, "duration": 49}, {"note": 0, "velocity": 0, "duration": 71}, {"note": 75, "velocity": 108, "duration": 61}, {"note": 73, "velocity": 94, "duration": 55}, {"note": 0, "velocity": 0, "duration": 65}, {"note": 75, "velocity": 114, "duration": 144}, {"note": 0, "velocity": 0, "duration": 96}, {"note": 71, "velocity": 114, "duration": 158}, {"note": 0, "velocity": 0, "duration": 82}, {"note": 70, "velocity": 114, "duration": 156}, {"note": 0, "velocity": 0, "duration": 84}, {"note": 71, "velocity": 105, "duration": 50}, {"note": 0, "velocity": 0, "duration": 70}, {"note": 73, "velocity": 111, "duration": 380}, {"note": 0, "velocity": 0, "duration": 220}, {"note": 71, "velocity": 105, "duration": 60}, {"note": 70, "velocity": 76, "duration": 44}, {"note": 0, "velocity": 0, "duration": 76}, {"note": 71, "velocity": 108, "duration": 50}, {"note": 0, "velocity": 0, "duration": 70}, {"note": 70, "velocity": 108, "duration": 47}, {"note": 0, "velocity": 0, "duration": 73}, {"note": 71, "velocity": 111, "duration": 354}, {"note": 0, "velocity": 0, "duration": 126}, {"note": 71, "velocity": 105, "duration": 168}, {"note": 0, "velocity": 0, "duration": 72}, {"note": 70, "velocity": 114, "duration": 152}, {"note": 0, "velocity": 0, "duration": 88}, {"note": 68, "velocity": 111, "duration": 50}, {"note": 0, "velocity": 0, "duration": 70}, {"note": 70, "velocity": 117, "duration": 268}, {"note": 0, "velocity": 0, "duration": 92}, {"note": 75, "velocity": 80, "duration": 66}, {"note": 73, "velocity": 102, "duration": 52}, {"note": 0, "velocity": 0, "duration": 68}, {"note": 75, "velocity": 102, "duration": 55}, {"note": 0, "velocity": 0, "duration": 65}, {"note": 73, "velocity": 102, "duration": 55}, {"note": 0, "velocity": 0, "duration": 65}, {"note": 75, "velocity": 114, "duration": 159}, {"note": 0, "velocity": 0, "duration": 81}, {"note": 80, "velocity": 111, "duration": 141}, {"note": 0, "velocity": 0, "duration": 99}, {"note": 82, "velocity": 111, "duration": 156}, {"note": 0, "velocity": 0, "duration": 84}, {"note": 80, "velocity": 111, "duration": 159}, {"note": 0, "velocity": 0, "duration": 81}, {"note": 78, "velocity": 114, "duration": 260}, {"note": 0, "velocity": 0, "duration": 220}, {"note": 76, "velocity": 108, "duration": 66}, {"note": 75, "velocity": 105, "duration": 44}, {"note": 0, "velocity": 0, "duration": 76}, {"note": 76, "velocity": 117, "duration": 47}, {"note": 0, "velocity": 0, "duration": 73}, {"note": 75, "velocity": 89, "duration": 50}, {"note": 0, "velocity": 0, "duration": 70}, {"note": 76, "velocity": 111, "duration": 142}, {"note": 0, "velocity": 0, "duration": 98}, {"note": 83, "velocity": 108, "duration": 162}, {"note": 0, "velocity": 0, "duration": 78}, {"note": 78, "velocity": 108, "duration": 556}, {"note": 0, "velocity": 0, "duration": 164}, {"note": 78, "velocity": 108, "duration": 69}, {"note": 76, "velocity": 108, "duration": 58}, {"note": 0, "velocity": 0, "duration": 62}, {"note": 75, "velocity": 114, "duration": 144}, {"note": 0, "velocity": 0, "duration": 96}, {"note": 75, "velocity": 108, "duration": 129}, {"note": 0, "velocity": 0, "duration": 111}, {"note": 75, "velocity": 114, "duration": 253}, {"note": 0, "velocity": 0, "duration": 227}, {"note": 73, "velocity": 111, "duration": 61}, {"note": 73, "velocity": 108, "duration": 164}, {"note": 0, "velocity": 0, "duration": 76}, {"note": 73, "velocity": 111, "duration": 267}, {"note": 0, "velocity": 0, "duration": 93}, {"note": 75, "velocity": 108, "duration": 61}, {"note": 73, "velocity": 105, "duration": 58}, {"note": 0, "velocity": 0, "duration": 62}, {"note": 71, "velocity": 114, "duration": 145}, {"note": 0, "velocity": 0, "duration": 95}, {"note": 73, "velocity": 105, "duration": 141}, {"note": 0, "velocity": 0, "duration": 99}, {"note": 75, "velocity": 108, "duration": 152}, {"note": 0, "velocity": 0, "duration": 88}, {"note": 83, "velocity": 120, "duration": 140}, {"note": 0, "velocity": 0, "duration": 100}, {"note": 82, "velocity": 105, "duration": 148}, {"note": 0, "velocity": 0, "duration": 92}, {"note": 80, "velocity": 105, "duration": 81}, {"note": 78, "velocity": 114, "duration": 257}, {"note": 0, "velocity": 0, "duration": 343}, {"note": 80, "velocity": 102, "duration": 170}, {"note": 0, "velocity": 0, "duration": 70}, {"note": 76, "velocity": 97, "duration": 58}, {"note": 0, "velocity": 0, "duration": 62}, {"note": 76, "velocity": 100, "duration": 53}, {"note": 0, "velocity": 0, "duration": 67}, {"note": 76, "velocity": 102, "duration": 164}, {"note": 0, "velocity": 0, "duration": 76}, {"note": 75, "velocity": 108, "duration": 148}, {"note": 0, "velocity": 0, "duration": 92}, {"note": 76, "velocity": 102, "duration": 424}, {"note": 0, "velocity": 0, "duration": 296}, {"note": 73, "velocity": 108, "duration": 60}, {"note": 75, "velocity": 105, "duration": 57}, {"note": 0, "velocity": 0, "duration": 63}, {"note": 76, "velocity": 108, "duration": 133}, {"note": 0, "velocity": 0, "duration": 107}, {"note": 83, "velocity": 105, "duration": 164}, {"note": 0, "velocity": 0, "duration": 76}, {"note": 82, "velocity": 111, "duration": 138}, {"note": 0, "velocity": 0, "duration": 102}, {"note": 78, "velocity": 114, "duration": 152}, {"note": 0, "velocity": 0, "duration": 88}, {"note": 80, "velocity": 105, "duration": 57}, {"note": 0, "velocity": 0, "duration": 63}, {"note": 78, "velocity": 117, "duration": 175}, {"note": 0, "velocity": 0, "duration": 65}, {"note": 78, "velocity": 117, "duration": 222}, {"note": 0, "velocity": 0, "duration": 138}, {"note": 78, "velocity": 108, "duration": 69}, {"note": 76, "velocity": 108, "duration": 58}, {"note": 0, "velocity": 0, "duration": 62}, {"note": 75, "velocity": 114, "duration": 144}, {"note": 0, "velocity": 0, "duration": 96}, {"note": 75, "velocity": 108, "duration": 129}, {"note": 0, "velocity": 0, "duration": 111}, {"note": 75, "velocity": 114, "duration": 253}, {"note": 0, "velocity": 0, "duration": 227}, {"note": 73, "velocity": 111, "duration": 61}, {"note": 78, "velocity": 108, "duration": 164}, {"note": 0, "velocity": 0, "duration": 76}, {"note": 82, "velocity": 111, "duration": 267}, {"note": 0, "velocity": 0, "duration": 93}, {"note": 80, "velocity": 108, "duration": 61}, {"note": 82, "velocity": 105, "duration": 58}, {"note": 0, "velocity": 0, "duration": 62}, {"note": 83, "velocity": 114, "duration": 145}, {"note": 0, "velocity": 0, "duration": 95}, {"note": 82, "velocity": 105, "duration": 141}, {"note": 0, "velocity": 0, "duration": 99}, {"note": 78, "velocity": 108, "duration": 152}, {"note": 0, "velocity": 0, "duration": 88}, {"note": 75, "velocity": 120, "duration": 140}, {"note": 0, "velocity": 0, "duration": 100}, {"note": 80, "velocity": 105, "duration": 118}, {"note": 82, "velocity": 105, "duration": 238}, {"note": 78, "velocity": 114, "duration": 257}, {"note": 0, "velocity": 0, "duration": 343}, {"note": 76, "velocity": 111, "duration": 362}, {"note": 0, "velocity": 0, "duration": 118}, {"note": 85, "velocity": 114, "duration": 161}, {"note": 0, "velocity": 0, "duration": 79}, {"note": 83, "velocity": 105, "duration": 61}, {"note": 78, "velocity": 92, "duration": 590}, {"note": 0, "velocity": 0, "duration": 250}, {"note": 73, "velocity": 105, "duration": 60}, {"note": 75, "velocity": 105, "duration": 60}, {"note": 76, "velocity": 108, "duration": 168}, {"note": 0, "velocity": 0, "duration": 72}, {"note": 76, "velocity": 105, "duration": 66}, {"note": 75, "velocity": 100, "duration": 50}, {"note": 0, "velocity": 0, "duration": 70}, {"note": 76, "velocity": 105, "duration": 155}, {"note": 0, "velocity": 0, "duration": 85}, {"note": 78, "velocity": 108, "duration": 158}, {"note": 0, "velocity": 0, "duration": 82}, {"note": 75, "velocity": 111, "duration": 343}, {"note": 0, "velocity": 0, "duration": 137}, {"note": 73, "velocity": 108, "duration": 380}, {"note": 0, "velocity": 0, "duration": 100}, {"note": 71, "velocity": 105, "duration": 1368}, {"note": 0, "velocity": 0, "duration": 8232}, {"note": 75, "velocity": 102, "duration": 55}, {"note": 0, "velocity": 0, "duration": 65}, {"note": 73, "velocity": 92, "duration": 49}, {"note": 0, "velocity": 0, "duration": 71}, {"note": 75, "velocity": 108, "duration": 61}, {"note": 73, "velocity": 94, "duration": 55}, {"note": 0, "velocity": 0, "duration": 65}, {"note": 75, "velocity": 114, "duration": 144}, {"note": 0, "velocity": 0, "duration": 96}, {"note": 71, "velocity": 114, "duration": 158}, {"note": 0, "velocity": 0, "duration": 82}, {"note": 70, "velocity": 114, "duration": 156}, {"note": 0, "velocity": 0, "duration": 84}, {"note": 71, "velocity": 105, "duration": 50}, {"note": 0, "velocity": 0, "duration": 70}, {"note": 73, "velocity": 111, "duration": 380}, {"note": 0, "velocity": 0, "duration": 220}, {"note": 71, "velocity": 105, "duration": 60}, {"note": 70, "velocity": 76, "duration": 44}, {"note": 0, "velocity": 0, "duration": 76}, {"note": 71, "velocity": 108, "duration": 50}, {"note": 0, "velocity": 0, "duration": 70}, {"note": 70, "velocity": 108, "duration": 47}, {"note": 0, "velocity": 0, "duration": 73}, {"note": 71, "velocity": 111, "duration": 354}, {"note": 0, "velocity": 0, "duration": 126}, {"note": 71, "velocity": 105, "duration": 168}, {"note": 0, "velocity": 0, "duration": 72}, {"note": 70, "velocity": 114, "duration": 152}, {"note": 0, "velocity": 0, "duration": 88}, {"note": 68, "velocity": 111, "duration": 50}, {"note": 0, "velocity": 0, "duration": 70}, {"note": 70, "velocity": 117, "duration": 268}, {"note": 0, "velocity": 0, "duration": 92}, {"note": 75, "velocity": 80, "duration": 66}, {"note": 73, "velocity": 102, "duration": 52}, {"note": 0, "velocity": 0, "duration": 68}, {"note": 75, "velocity": 102, "duration": 55}, {"note": 0, "velocity": 0, "duration": 65}, {"note": 73, "velocity": 102, "duration": 55}, {"note": 0, "velocity": 0, "duration": 65}, {"note": 75, "velocity": 114, "duration": 159}, {"note": 0, "velocity": 0, "duration": 81}, {"note": 80, "velocity": 111, "duration": 141}, {"note": 0, "velocity": 0, "duration": 99}, {"note": 82, "velocity": 111, "duration": 156}, {"note": 0, "velocity": 0, "duration": 84}, {"note": 80, "velocity": 111, "duration": 159}, {"note": 0, "velocity": 0, "duration": 81}, {"note": 78, "velocity": 114, "duration": 260}, {"note": 0, "velocity": 0, "duration": 220}, {"note": 76, "velocity": 108, "duration": 66}, {"note": 75, "velocity": 105, "duration": 44}, {"note": 0, "velocity": 0, "duration": 76}, {"note": 76, "velocity": 117, "duration": 47}, {"note": 0, "velocity": 0, "duration": 73}, {"note": 75, "velocity": 89, "duration": 50}, {"note": 0, "velocity": 0, "duration": 70}, {"note": 76, "velocity": 111, "duration": 142}, {"note": 0, "velocity": 0, "duration": 98}, {"note": 83, "velocity": 108, "duration": 162}, {"note": 0, "velocity": 0, "duration": 78}, {"note": 78, "velocity": 108, "duration": 556}, {"note": 0, "velocity": 0, "duration": 164}, {"note": 78, "velocity": 108, "duration": 69}, {"note": 76, "velocity": 108, "duration": 58}, {"note": 0, "velocity": 0, "duration": 62}, {"note": 75, "velocity": 114, "duration": 144}, {"note": 0, "velocity": 0, "duration": 96}, {"note": 75, "velocity": 108, "duration": 129}, {"note": 0, "velocity": 0, "duration": 111}, {"note": 75, "velocity": 114, "duration": 253}, {"note": 0, "velocity": 0, "duration": 227}, {"note": 73, "velocity": 111, "duration": 61}, {"note": 73, "velocity": 108, "duration": 164}, {"note": 0, "velocity": 0, "duration": 76}, {"note": 73, "velocity": 111, "duration": 267}, {"note": 0, "velocity": 0, "duration": 93}, {"note": 75, "velocity": 108, "duration": 61}, {"note": 73, "velocity": 105, "duration": 58}, {"note": 0, "velocity": 0, "duration": 62}, {"note": 71, "velocity": 114, "duration": 145}, {"note": 0, "velocity": 0, "duration": 95}, {"note": 73, "velocity": 105, "duration": 141}, {"note": 0, "velocity": 0, "duration": 99}, {"note": 75, "velocity": 108, "duration": 152}, {"note": 0, "velocity": 0, "duration": 88}, {"note": 83, "velocity": 120, "duration": 140}, {"note": 0, "velocity": 0, "duration": 100}, {"note": 82, "velocity": 105, "duration": 148}, {"note": 0, "velocity": 0, "duration": 92}, {"note": 80, "velocity": 105, "duration": 81}, {"note": 78, "velocity": 114, "duration": 257}, {"note": 0, "velocity": 0, "duration": 343}, {"note": 80, "velocity": 102, "duration": 170}, {"note": 0, "velocity": 0, "duration": 70}, {"note": 76, "velocity": 97, "duration": 58}, {"note": 0, "velocity": 0, "duration": 62}, {"note": 76, "velocity": 100, "duration": 53}, {"note": 0, "velocity": 0, "duration": 67}, {"note": 76, "velocity": 102, "duration": 164}, {"note": 0, "velocity": 0, "duration": 76}, {"note": 75, "velocity": 108, "duration": 148}, {"note": 0, "velocity": 0, "duration": 92}, {"note": 76, "velocity": 102, "duration": 424}, {"note": 0, "velocity": 0, "duration": 296}, {"note": 73, "velocity": 108, "duration": 60}, {"note": 75, "velocity": 105, "duration": 57}, {"note": 0, "velocity": 0, "duration": 63}, {"note": 76, "velocity": 108, "duration": 133}, {"note": 0, "velocity": 0, "duration": 107}, {"note": 83, "velocity": 105, "duration": 164}, {"note": 0, "velocity": 0, "duration": 76}, {"note": 82, "velocity": 111, "duration": 138}, {"note": 0, "velocity": 0, "duration": 102}, {"note": 78, "velocity": 114, "duration": 152}, {"note": 0, "velocity": 0, "duration": 88}, {"note": 80, "velocity": 105, "duration": 57}, {"note": 0, "velocity": 0, "duration": 63}, {"note": 78, "velocity": 117, "duration": 175}, {"note": 0, "velocity": 0, "duration": 65}, {"note": 78, "velocity": 117, "duration": 222}, {"note": 0, "velocity": 0, "duration": 138}, {"note": 78, "velocity": 108, "duration": 69}, {"note": 76, "velocity": 108, "duration": 58}, {"note": 0, "velocity": 0, "duration": 62}, {"note": 75, "velocity": 114, "duration": 144}, {"note": 0, "velocity": 0, "duration": 96}, {"note": 75, "velocity": 108, "duration": 129}, {"note": 0, "velocity": 0, "duration": 111}, {"note": 75, "velocity": 114, "duration": 253}, {"note": 0, "velocity": 0, "duration": 227}, {"note": 73, "velocity": 111, "duration": 61}, {"note": 78, "velocity": 108, "duration": 164}, {"note": 0, "velocity": 0, "duration": 76}, {"note": 82, "velocity": 111, "duration": 267}, {"note": 0, "velocity": 0, "duration": 93}, {"note": 80, "velocity": 108, "duration": 61}, {"note": 82, "velocity": 105, "duration": 58}, {"note": 0, "velocity": 0, "duration": 62}, {"note": 83, "velocity": 114, "duration": 145}, {"note": 0, "velocity": 0, "duration": 95}, {"note": 82, "velocity": 105, "duration": 141}, {"note": 0, "velocity": 0, "duration": 99}, {"note": 78, "velocity": 108, "duration": 152}, {"note": 0, "velocity": 0, "duration": 88}, {"note": 75, "velocity": 120, "duration": 140}, {"note": 0, "velocity": 0, "duration": 100}, {"note": 80, "velocity": 105, "duration": 118}, {"note": 82, "velocity": 105, "duration": 238}, {"note": 78, "velocity": 114, "duration": 257}, {"note": 0, "velocity": 0, "duration": 343}, {"note": 76, "velocity": 111, "duration": 362}, {"note": 0, "velocity": 0, "duration": 118}, {"note": 85, "velocity": 114, "duration": 161}, {"note": 0, "velocity": 0, "duration": 79}, {"note": 83, "velocity": 105, "duration": 61}, {"note": 78, "velocity": 92, "duration": 590}, {"note": 0, "velocity": 0, "duration": 250}, {"note": 73, "velocity": 105, "duration": 60}, {"note": 75, "velocity": 105, "duration": 60}, {"note": 76, "velocity": 108, "duration": 168}, {"note": 0, "velocity": 0, "duration": 72}, {"note": 76, "velocity": 105, "duration": 66}, {"note": 75, "velocity": 100, "duration": 50}, {"note": 0, "velocity": 0, "duration": 70}, {"note": 76, "velocity": 105, "duration": 155}, {"note": 0, "velocity": 0, "duration": 85}, {"note": 78, "velocity": 108, "duration": 158}, {"note": 0, "velocity": 0, "duration": 82}, {"note": 80, "velocity": 111, "duration": 343}, {"note": 0, "velocity": 0, "duration": 137}, {"note": 82, "velocity": 108, "duration": 380}, {"note": 0, "velocity": 0, "duration": 100}, {"note": 83, "velocity": 105, "duration": 1798}, {"note": 0, "velocity": 0, "duration": 7802}, {"note": 75, "velocity": 114, "duration": 144}, {"note": 0, "velocity": 0, "duration": 96}, {"note": 75, "velocity": 108, "duration": 129}, {"note": 0, "velocity": 0, "duration": 111}, {"note": 75, "velocity": 114, "duration": 253}, {"note": 0, "velocity": 0, "duration": 227}, {"note": 73, "velocity": 111, "duration": 61}, {"note": 73, "velocity": 108, "duration": 164}, {"note": 0, "velocity": 0, "duration": 76}, {"note": 73, "velocity": 111, "duration": 267}, {"note": 0, "velocity": 0, "duration": 93}, {"note": 75, "velocity": 108, "duration": 61}, {"note": 73, "velocity": 105, "duration": 58}, {"note": 0, "velocity": 0, "duration": 62}, {"note": 71, "velocity": 114, "duration": 145}, {"note": 0, "velocity": 0, "duration": 95}, {"note": 73, "velocity": 105, "duration": 141}, {"note": 0, "velocity": 0, "duration": 99}, {"note": 75, "velocity": 108, "duration": 152}, {"note": 0, "velocity": 0, "duration": 88}, {"note": 83, "velocity": 120, "duration": 140}, {"note": 0, "velocity": 0, "duration": 100}, {"note": 82, "velocity": 105, "duration": 148}, {"note": 0, "velocity": 0, "duration": 92}, {"note": 80, "velocity": 105, "duration": 81}, {"note": 78, "velocity": 114, "duration": 257}, {"note": 0, "velocity": 0, "duration": 343}, {"note": 80, "velocity": 102, "duration": 170}, {"note": 0, "velocity": 0, "duration": 70}, {"note": 76, "velocity": 97, "duration": 58}, {"note": 0, "velocity": 0, "duration": 62}, {"note": 76, "velocity": 100, "duration": 53}, {"note": 0, "velocity": 0, "duration": 67}, {"note": 76, "velocity": 102, "duration": 164}, {"note": 0, "velocity": 0, "duration": 76}, {"note": 75, "velocity": 108, "duration": 148}, {"note": 0, "velocity": 0, "duration": 92}, {"note": 76, "velocity": 102, "duration": 424}, {"note": 0, "velocity": 0, "duration": 296}, {"note": 73, "velocity": 108, "duration": 60}, {"note": 75, "velocity": 105, "duration": 57}, {"note": 0, "velocity": 0, "duration": 63}, {"note": 76, "velocity": 108, "duration": 133}, {"note": 0, "velocity": 0, "duration": 107}, {"note": 83, "velocity": 105, "duration": 164}, {"note": 0, "velocity": 0, "duration": 76}, {"note": 82, "velocity": 111, "duration": 138}, {"note": 0, "velocity": 0, "duration": 102}, {"note": 78, "velocity": 114, "duration": 152}, {"note": 0, "velocity": 0, "duration": 88}, {"note": 80, "velocity": 105, "duration": 57}, {"note": 0, "velocity": 0, "duration": 63}, {"note": 78, "velocity": 117, "duration": 175}, {"note": 0, "velocity": 0, "duration": 65}, {"note": 78, "velocity": 117, "duration": 222}, {"note": 0, "velocity": 0, "duration": 138}, {"note": 78, "velocity": 108, "duration": 69}, {"note": 76, "velocity": 108, "duration": 58}, {"note": 0, "velocity": 0, "duration": 62}, {"note": 75, "velocity": 114, "duration": 144}, {"note": 0, "velocity": 0, "duration": 96}, {"note": 75, "velocity": 108, "duration": 129}, {"note": 0, "velocity": 0, "duration": 111}, {"note": 75, "velocity": 114, "duration": 253}, {"note": 0, "velocity": 0, "duration": 227}, {"note": 73, "velocity": 111, "duration": 61}, {"note": 78, "velocity": 108, "duration": 164}, {"note": 0, "velocity": 0, "duration": 76}, {"note": 82, "velocity": 111, "duration": 267}, {"note": 0, "velocity": 0, "duration": 93}, {"note": 80, "velocity": 108, "duration": 61}, {"note": 82, "velocity": 105, "duration": 58}, {"note": 0, "velocity": 0, "duration": 62}, {"note": 83, "velocity": 114, "duration": 145}, {"note": 0, "velocity": 0, "duration": 95}, {"note": 82, "velocity": 105, "duration": 141}, {"note": 0, "velocity": 0, "duration": 99}, {"note": 78, "velocity": 108, "duration": 152}, {"note": 0, "velocity": 0, "duration": 88}, {"note": 75, "velocity": 120, "duration": 140}, {"note": 0, "velocity": 0, "duration": 100}, {"note": 80, "velocity": 105, "duration": 118}, {"note": 82, "velocity": 105, "duration": 238}, {"note": 78, "velocity": 114, "duration": 257}, {"note": 0, "velocity": 0, "duration": 343}, {"note": 76, "velocity": 111, "duration": 362}, {"note": 0, "velocity": 0, "duration": 118}, {"note": 85, "velocity": 114, "duration": 161}, {"note": 0, "velocity": 0, "duration": 79}, {"note": 83, "velocity": 105, "duration": 61}, {"note": 78, "velocity": 92, "duration": 590}, {"note": 0, "velocity": 0, "duration": 250}, {"note": 73, "velocity": 105, "duration": 60}, {"note": 75, "velocity": 105, "duration": 60}, {"note": 76, "velocity": 108, "duration": 168}, {"note": 0, "velocity": 0, "duration": 72}, {"note": 76, "velocity": 105, "duration": 66}, {"note": 75, "velocity": 100, "duration": 50}, {"note": 0, "velocity": 0, "duration": 70}, {"note": 76, "velocity": 105, "duration": 155}, {"note": 0, "velocity": 0, "duration": 85}, {"note": 78, "velocity": 108, "duration": 158}, {"note": 0, "velocity": 0, "duration": 82}, {"note": 80, "velocity": 111, "duration": 343}, {"note": 0, "velocity": 0, "duration": 137}, {"note": 82, "velocity": 108, "duration": 380}, {"note": 0, "velocity": 0, "duration": 100}, {"note": 83, "velocity": 105, "duration": 1558}, {"note": 0, "velocity": 0, "duration": 122}, {"note": 73, "velocity": 105, "duration": 62}, {"note": 75, "velocity": 100, "duration": 66}, {"note": 76, "velocity": 102, "duration": 162}, {"note": 0, "velocity": 0, "duration": 78}, {"note": 76, "velocity": 100, "duration": 69}, {"note": 75, "velocity": 102, "duration": 57}, {"note": 0, "velocity": 0, "duration": 63}, {"note": 76, "velocity": 108, "duration": 155}, {"note": 0, "velocity": 0, "duration": 85}, {"note": 78, "velocity": 108, "duration": 145}, {"note": 0, "velocity": 0, "duration": 95}, {"note": 75, "velocity": 111, "duration": 381}, {"note": 0, "velocity": 0, "duration": 99}, {"note": 73, "velocity": 105, "duration": 380}, {"note": 0, "velocity": 0, "duration": 100}, {"note": 71, "velocity": 102, "duration": 1524}, {"note": 0, "velocity": 0, "duration": 172}, {"note": 73, "velocity": 94, "duration": 70}, {"note": 75, "velocity": 108, "duration": 66}, {"note": 76, "velocity": 108, "duration": 157}, {"note": 0, "velocity": 0, "duration": 121}, {"note": 76, "velocity": 105, "duration": 96}, {"note": 75, "velocity": 108, "duration": 70}, {"note": 76, "velocity": 114, "duration": 190}, {"note": 0, "velocity": 0, "duration": 75}, {"note": 78, "velocity": 114, "duration": 377}, {"note": 80, "velocity": 108, "duration": 612}, {"note": 82, "velocity": 120, "duration": 494}, {"note": 83, "velocity": 114, "duration": 2139}]]