[[{"note": 74, "velocity": 102, "duration": 55}, {"note": 0, "velocity": 0, "duration": 65}, {"note": 74, "velocity": 102, "duration": 53}, {"note": 0, "velocity": 0, "duration": 67}, {"note": 74, "velocity": 105, "duration": 141}, {"note": 0, "velocity": 0, "duration": 99}, {"note": 74, "velocity": 100, "duration": 55}, {"note": 0, "velocity": 0, "duration": 65}, {"note": 74, "velocity": 89, "duration": 53}, {"note": 0, "velocity": 0, "duration": 67}, {"note": 74, "velocity": 97, "duration": 55}, {"note": 0, "velocity": 0, "duration": 65}, {"note": 74, "velocity": 87, "duration": 53}, {"note": 0, "velocity": 0, "duration": 67}, {"note": 74, "velocity": 89, "duration": 49}, {"note": 0, "velocity": 0, "duration": 71}, {"note": 74, "velocity": 89, "duration": 53}, {"note": 0, "velocity": 0, "duration": 67}, {"note": 74, "velocity": 94, "duration": 118}, {"note": 74, "velocity": 111, "duration": 169}, {"note": 0, "velocity": 0, "duration": 71}, {"note": 75, "velocity": 112, "duration": 192}, {"note": 0, "velocity": 0, "duration": 168}, {"note": 75, "velocity": 102, "duration": 53}, {"note": 0, "velocity": 0, "duration": 67}, {"note": 75, "velocity": 102, "duration": 58}, {"note": 0, "velocity": 0, "duration": 62}, {"note": 75, "velocity": 102, "duration": 57}, {"note": 0, "velocity": 0, "duration": 63}, {"note": 75, "velocity": 105, "duration": 151}, {"note": 0, "velocity": 0, "duration": 89}, {"note": 75, "velocity": 105, "duration": 53}, {"note": 0, "velocity": 0, "duration": 67}, {"note": 75, "velocity": 109, "duration": 58}, {"note": 0, "velocity": 0, "duration": 62}, {"note": 75, "velocity": 96, "duration": 59}, {"note": 0, "velocity": 0, "duration": 61}, {"note": 75, "velocity": 96, "duration": 53}, {"note": 0, "velocity": 0, "duration": 67}, {"note": 75, "velocity": 102, "duration": 51}, {"note": 0, "velocity": 0, "duration": 69}, {"note": 75, "velocity": 116, "duration": 162}, {"note": 0, "velocity": 0, "duration": 78}, {"note": 77, "velocity": 105, "duration": 71}, {"note": 74, "velocity": 105, "duration": 204}, {"note": 0, "velocity": 0, "duration": 156}, {"note": 74, "velocity": 100, "duration": 53}, {"note": 0, "velocity": 0, "duration": 67}, {"note": 74, "velocity": 97, "duration": 51}, {"note": 0, "velocity": 0, "duration": 69}, {"note": 74, "velocity": 94, "duration": 41}, {"note": 0, "velocity": 0, "duration": 79}, {"note": 74, "velocity": 114, "duration": 269}, {"note": 0, "velocity": 0, "duration": 91}, {"note": 75, "velocity": 109, "duration": 161}, {"note": 0, "velocity": 0, "duration": 79}, {"note": 74, "velocity": 117, "duration": 126}, {"note": 0, "velocity": 0, "duration": 114}, {"note": 72, "velocity": 108, "duration": 55}, {"note": 0, "velocity": 0, "duration": 65}, {"note": 70, "velocity": 105, "duration": 269}, {"note": 0, "velocity": 0, "duration": 91}, {"note": 72, "velocity": 108, "duration": 958}, {"note": 0, "velocity": 0, "duration": 1202}, {"note": 74, "velocity": 102, "duration": 55}, {"note": 0, "velocity": 0, "duration": 65}, {"note": 74, "velocity": 102, "duration": 53}, {"note": 0, "velocity": 0, "duration": 67}, {"note": 74, "velocity": 105, "duration": 141}, {"note": 0, "velocity": 0, "duration": 99}, {"note": 74, "velocity": 100, "duration": 55}, {"note": 0, "velocity": 0, "duration": 65}, {"note": 74, "velocity": 89, "duration": 53}, {"note": 0, "velocity": 0, "duration": 67}, {"note": 74, "velocity": 97, "duration": 55}, {"note": 0, "velocity": 0, "duration": 65}, {"note": 74, "velocity": 87, "duration": 53}, {"note": 0, "velocity": 0, "duration": 67}, {"note": 74, "velocity": 89, "duration": 49}, {"note": 0, "velocity": 0, "duration": 71}, {"note": 74, "velocity": 89, "duration": 53}, {"note": 0, "velocity": 0, "duration": 67}, {"note": 74, "velocity": 94, "duration": 118}, {"note": 74, "velocity": 111, "duration": 169}, {"note": 0, "velocity": 0, "duration": 71}, {"note": 75, "velocity": 112, "duration": 192}, {"note": 0, "velocity": 0, "duration": 168}, {"note": 75, "velocity": 102, "duration": 53}, {"note": 0, "velocity": 0, "duration": 67}, {"note": 75, "velocity": 102, "duration": 58}, {"note": 0, "velocity": 0, "duration": 62}, {"note": 75, "velocity": 102, "duration": 57}, {"note": 0, "velocity": 0, "duration": 63}, {"note": 75, "velocity": 105, "duration": 151}, {"note": 0, "velocity": 0, "duration": 89}, {"note": 75, "velocity": 105, "duration": 53}, {"note": 0, "velocity": 0, "duration": 67}, {"note": 75, "velocity": 109, "duration": 58}, {"note": 0, "velocity": 0, "duration": 62}, {"note": 75, "velocity": 96, "duration": 59}, {"note": 0, "velocity": 0, "duration": 61}, {"note": 75, "velocity": 96, "duration": 53}, {"note": 0, "velocity": 0, "duration": 67}, {"note": 75, "velocity": 102, "duration": 51}, {"note": 0, "velocity": 0, "duration": 69}, {"note": 75, "velocity": 116, "duration": 162}, {"note": 0, "velocity": 0, "duration": 78}, {"note": 77, "velocity": 105, "duration": 71}, {"note": 74, "velocity": 105, "duration": 204}, {"note": 0, "velocity": 0, "duration": 156}, {"note": 74, "velocity": 100, "duration": 53}, {"note": 0, "velocity": 0, "duration": 67}, {"note": 74, "velocity": 97, "duration": 51}, {"note": 0, "velocity": 0, "duration": 69}, {"note": 74, "velocity": 94, "duration": 41}, {"note": 0, "velocity": 0, "duration": 79}, {"note": 74, "velocity": 114, "duration": 269}, {"note": 0, "velocity": 0, "duration": 91}, {"note": 75, "velocity": 109, "duration": 161}, {"note": 0, "velocity": 0, "duration": 79}, {"note": 74, "velocity": 117, "duration": 126}, {"note": 0, "velocity": 0, "duration": 114}, {"note": 74, "velocity": 108, "duration": 55}, {"note": 0, "velocity": 0, "duration": 65}, {"note": 77, "velocity": 105, "duration": 269}, {"note": 0, "velocity": 0, "duration": 91}, {"note": 77, "velocity": 108, "duration": 958}, {"note": 0, "velocity": 0, "duration": 482}, {"note": 82, "velocity": 109, "duration": 65}, {"note": 81, "velocity": 105, "duration": 65}, {"note": 82, "velocity": 109, "duration": 63}, {"note": 81, "velocity": 100, "duration": 69}, {"note": 82, "velocity": 112, "duration": 181}, {"note": 79, "velocity": 114, "duration": 188}, {"note": 0, "velocity": 0, "duration": 292}, {"note": 82, "velocity": 109, "duration": 61}, {"note": 82, "velocity": 111, "duration": 63}, {"note": 82, "velocity": 116, "duration": 77}, {"note": 0, "velocity": 0, "duration": 283}, {"note": 82, "velocity": 105, "duration": 61}, {"note": 84, "velocity": 108, "duration": 124}, {"note": 0, "velocity": 0, "duration": 116}, {"note": 82, "velocity": 109, "duration": 134}, {"note": 0, "velocity": 0, "duration": 106}, {"note": 81, "velocity": 114, "duration": 96}, {"note": 0, "velocity": 0, "duration": 144}, {"note": 77, "velocity": 102, "duration": 161}, {"note": 0, "velocity": 0, "duration": 319}, {"note": 81, "velocity": 105, "duration": 54}, {"note": 0, "velocity": 0, "duration": 66}, {"note": 81, "velocity": 105, "duration": 55}, {"note": 0, "velocity": 0, "duration": 65}, {"note": 81, "velocity": 111, "duration": 120}, {"note": 0, "velocity": 0, "duration": 120}, {"note": 81, "velocity": 111, "duration": 45}, {"note": 0, "velocity": 0, "duration": 75}, {"note": 81, "velocity": 100, "duration": 49}, {"note": 0, "velocity": 0, "duration": 71}, {"note": 82, "velocity": 105, "duration": 135}, {"note": 0, "velocity": 0, "duration": 105}, {"note": 81, "velocity": 114, "duration": 77}, {"note": 0, "velocity": 0, "duration": 163}, {"note": 79, "velocity": 111, "duration": 147}, {"note": 0, "velocity": 0, "duration": 93}, {"note": 75, "velocity": 109, "duration": 238}, {"note": 0, "velocity": 0, "duration": 242}, {"note": 79, "velocity": 108, "duration": 57}, {"note": 0, "velocity": 0, "duration": 63}, {"note": 79, "velocity": 100, "duration": 63}, {"note": 81, "velocity": 97, "duration": 153}, {"note": 0, "velocity": 0, "duration": 87}, {"note": 79, "velocity": 111, "duration": 122}, {"note": 0, "velocity": 0, "duration": 118}, {"note": 77, "velocity": 100, "duration": 143}, {"note": 0, "velocity": 0, "duration": 97}, {"note": 75, "velocity": 105, "duration": 137}, {"note": 0, "velocity": 0, "duration": 103}, {"note": 74, "velocity": 105, "duration": 200}, {"note": 0, "velocity": 0, "duration": 280}, {"note": 74, "velocity": 105, "duration": 134}, {"note": 0, "velocity": 0, "duration": 106}, {"note": 75, "velocity": 105, "duration": 316}, {"note": 0, "velocity": 0, "duration": 164}, {"note": 77, "velocity": 108, "duration": 130}, {"note": 0, "velocity": 0, "duration": 110}, {"note": 81, "velocity": 114, "duration": 238}, {"note": 0, "velocity": 0, "duration": 122}, {"note": 81, "velocity": 89, "duration": 79}, {"note": 82, "velocity": 112, "duration": 187}, {"note": 79, "velocity": 111, "duration": 247}, {"note": 0, "velocity": 0, "duration": 233}, {"note": 82, "velocity": 109, "duration": 57}, {"note": 0, "velocity": 0, "duration": 63}, {"note": 82, "velocity": 90, "duration": 53}, {"note": 0, "velocity": 0, "duration": 67}, {"note": 82, "velocity": 109, "duration": 151}, {"note": 0, "velocity": 0, "duration": 89}, {"note": 82, "velocity": 102, "duration": 51}, {"note": 0, "velocity": 0, "duration": 69}, {"note": 84, "velocity": 114, "duration": 287}, {"note": 0, "velocity": 0, "duration": 73}, {"note": 82, "velocity": 105, "duration": 134}, {"note": 0, "velocity": 0, "duration": 106}, {"note": 81, "velocity": 114, "duration": 137}, {"note": 0, "velocity": 0, "duration": 103}, {"note": 77, "velocity": 109, "duration": 220}, {"note": 0, "velocity": 0, "duration": 260}, {"note": 81, "velocity": 108, "duration": 50}, {"note": 0, "velocity": 0, "duration": 70}, {"note": 81, "velocity": 105, "duration": 48}, {"note": 0, "velocity": 0, "duration": 72}, {"note": 81, "velocity": 108, "duration": 238}, {"note": 81, "velocity": 100, "duration": 118}, {"note": 81, "velocity": 102, "duration": 61}, {"note": 82, "velocity": 105, "duration": 153}, {"note": 0, "velocity": 0, "duration": 87}, {"note": 81, "velocity": 102, "duration": 143}, {"note": 0, "velocity": 0, "duration": 97}, {"note": 79, "velocity": 114, "duration": 116}, {"note": 0, "velocity": 0, "duration": 124}, {"note": 75, "velocity": 109, "duration": 243}, {"note": 0, "velocity": 0, "duration": 237}, {"note": 79, "velocity": 108, "duration": 49}, {"note": 0, "velocity": 0, "duration": 71}, {"note": 79, "velocity": 108, "duration": 53}, {"note": 0, "velocity": 0, "duration": 67}, {"note": 81, "velocity": 111, "duration": 147}, {"note": 0, "velocity": 0, "duration": 93}, {"note": 79, "velocity": 111, "duration": 124}, {"note": 0, "velocity": 0, "duration": 116}, {"note": 77, "velocity": 102, "duration": 149}, {"note": 0, "velocity": 0, "duration": 91}, {"note": 75, "velocity": 109, "duration": 171}, {"note": 0, "velocity": 0, "duration": 69}, {"note": 74, "velocity": 105, "duration": 296}, {"note": 0, "velocity": 0, "duration": 184}, {"note": 74, "velocity": 108, "duration": 165}, {"note": 0, "velocity": 0, "duration": 75}, {"note": 75, "velocity": 109, "duration": 365}, {"note": 0, "velocity": 0, "duration": 115}, {"note": 77, "velocity": 105, "duration": 238}, {"note": 82, "velocity": 109, "duration": 167}, {"note": 0, "velocity": 0, "duration": 73}, {"note": 81, "velocity": 114, "duration": 122}, {"note": 0, "velocity": 0, "duration": 118}, {"note": 82, "velocity": 112, "duration": 173}, {"note": 0, "velocity": 0, "duration": 187}, {"note": 81, "velocity": 108, "duration": 65}, {"note": 82, "velocity": 112, "duration": 283}, {"note": 0, "velocity": 0, "duration": 77}, {"note": 81, "velocity": 108, "duration": 65}, {"note": 82, "velocity": 112, "duration": 202}, {"note": 0, "velocity": 0, "duration": 158}, {"note": 82, "velocity": 102, "duration": 61}, {"note": 82, "velocity": 102, "duration": 162}, {"note": 0, "velocity": 0, "duration": 78}, {"note": 84, "velocity": 102, "duration": 114}, {"note": 0, "velocity": 0, "duration": 126}, {"note": 81, "velocity": 108, "duration": 257}, {"note": 0, "velocity": 0, "duration": 103}, {"note": 79, "velocity": 111, "duration": 53}, {"note": 0, "velocity": 0, "duration": 67}, {"note": 81, "velocity": 114, "duration": 285}, {"note": 0, "velocity": 0, "duration": 75}, {"note": 79, "velocity": 108, "duration": 51}, {"note": 0, "velocity": 0, "duration": 69}, {"note": 81, "velocity": 117, "duration": 194}, {"note": 0, "velocity": 0, "duration": 166}, {"note": 81, "velocity": 102, "duration": 51}, {"note": 0, "velocity": 0, "duration": 69}, {"note": 81, "velocity": 114, "duration": 134}, {"note": 0, "velocity": 0, "duration": 106}, {"note": 82, "velocity": 109, "duration": 149}, {"note": 0, "velocity": 0, "duration": 91}, {"note": 79, "velocity": 111, "duration": 289}, {"note": 0, "velocity": 0, "duration": 71}, {"note": 77, "velocity": 105, "duration": 49}, {"note": 0, "velocity": 0, "duration": 71}, {"note": 79, "velocity": 111, "duration": 285}, {"note": 0, "velocity": 0, "duration": 75}, {"note": 77, "velocity": 111, "duration": 55}, {"note": 0, "velocity": 0, "duration": 65}, {"note": 79, "velocity": 117, "duration": 183}, {"note": 0, "velocity": 0, "duration": 177}, {"note": 79, "velocity": 111, "duration": 51}, {"note": 0, "velocity": 0, "duration": 69}, {"note": 79, "velocity": 97, "duration": 124}, {"note": 0, "velocity": 0, "duration": 116}, {"note": 81, "velocity": 111, "duration": 143}, {"note": 0, "velocity": 0, "duration": 97}, {"note": 77, "velocity": 105, "duration": 300}, {"note": 75, "velocity": 105, "duration": 73}, {"note": 77, "velocity": 105, "duration": 281}, {"note": 0, "velocity": 0, "duration": 79}, {"note": 75, "velocity": 102, "duration": 61}, {"note": 77, "velocity": 102, "duration": 190}, {"note": 0, "velocity": 0, "duration": 170}, {"note": 82, "velocity": 105, "duration": 53}, {"note": 0, "velocity": 0, "duration": 67}, {"note": 82, "velocity": 105, "duration": 114}, {"note": 0, "velocity": 0, "duration": 126}, {"note": 81, "velocity": 117, "duration": 137}, {"note": 0, "velocity": 0, "duration": 103}, {"note": 82, "velocity": 109, "duration": 283}, {"note": 0, "velocity": 0, "duration": 77}, {"note": 81, "velocity": 111, "duration": 53}, {"note": 0, "velocity": 0, "duration": 67}, {"note": 82, "velocity": 105, "duration": 292}, {"note": 0, "velocity": 0, "duration": 68}, {"note": 81, "velocity": 105, "duration": 49}, {"note": 0, "velocity": 0, "duration": 71}, {"note": 82, "velocity": 105, "duration": 232}, {"note": 0, "velocity": 0, "duration": 128}, {"note": 82, "velocity": 105, "duration": 45}, {"note": 0, "velocity": 0, "duration": 75}, {"note": 82, "velocity": 96, "duration": 132}, {"note": 0, "velocity": 0, "duration": 108}, {"note": 84, "velocity": 102, "duration": 102}, {"note": 0, "velocity": 0, "duration": 138}, {"note": 81, "velocity": 108, "duration": 271}, {"note": 0, "velocity": 0, "duration": 89}, {"note": 79, "velocity": 105, "duration": 57}, {"note": 0, "velocity": 0, "duration": 63}, {"note": 81, "velocity": 111, "duration": 267}, {"note": 0, "velocity": 0, "duration": 93}, {"note": 79, "velocity": 105, "duration": 53}, {"note": 0, "velocity": 0, "duration": 67}, {"note": 81, "velocity": 111, "duration": 143}, {"note": 0, "velocity": 0, "duration": 217}, {"note": 79, "velocity": 97, "duration": 61}, {"note": 79, "velocity": 105, "duration": 141}, {"note": 0, "velocity": 0, "duration": 99}, {"note": 77, "velocity": 105, "duration": 181}, {"note": 79, "velocity": 111, "duration": 471}, {"note": 0, "velocity": 0, "duration": 489}, {"note": 77, "velocity": 111, "duration": 455}, {"note": 82, "velocity": 105, "duration": 387}, {"note": 0, "velocity": 0, "duration": 93}, {"note": 79, "velocity": 108, "duration": 1294}, {"note": 0, "velocity": 0, "duration": 16226}, {"note": 74, "velocity": 102, "duration": 55}, {"note": 0, "velocity": 0, "duration": 65}, {"note": 74, "velocity": 102, "duration": 53}, {"note": 0, "velocity": 0, "duration": 67}, {"note": 74, "velocity": 105, "duration": 141}, {"note": 0, "velocity": 0, "duration": 99}, {"note": 74, "velocity": 100, "duration": 55}, {"note": 0, "velocity": 0, "duration": 65}, {"note": 74, "velocity": 89, "duration": 53}, {"note": 0, "velocity": 0, "duration": 67}, {"note": 74, "velocity": 97, "duration": 55}, {"note": 0, "velocity": 0, "duration": 65}, {"note": 74, "velocity": 87, "duration": 53}, {"note": 0, "velocity": 0, "duration": 67}, {"note": 74, "velocity": 89, "duration": 49}, {"note": 0, "velocity": 0, "duration": 71}, {"note": 74, "velocity": 89, "duration": 53}, {"note": 0, "velocity": 0, "duration": 67}, {"note": 74, "velocity": 94, "duration": 118}, {"note": 74, "velocity": 111, "duration": 169}, {"note": 0, "velocity": 0, "duration": 71}, {"note": 75, "velocity": 112, "duration": 192}, {"note": 0, "velocity": 0, "duration": 168}, {"note": 75, "velocity": 102, "duration": 53}, {"note": 0, "velocity": 0, "duration": 67}, {"note": 75, "velocity": 102, "duration": 58}, {"note": 0, "velocity": 0, "duration": 62}, {"note": 75, "velocity": 102, "duration": 57}, {"note": 0, "velocity": 0, "duration": 63}, {"note": 75, "velocity": 105, "duration": 151}, {"note": 0, "velocity": 0, "duration": 89}, {"note": 75, "velocity": 105, "duration": 53}, {"note": 0, "velocity": 0, "duration": 67}, {"note": 75, "velocity": 109, "duration": 58}, {"note": 0, "velocity": 0, "duration": 62}, {"note": 75, "velocity": 96, "duration": 59}, {"note": 0, "velocity": 0, "duration": 61}, {"note": 75, "velocity": 96, "duration": 53}, {"note": 0, "velocity": 0, "duration": 67}, {"note": 75, "velocity": 102, "duration": 51}, {"note": 0, "velocity": 0, "duration": 69}, {"note": 75, "velocity": 116, "duration": 162}, {"note": 0, "velocity": 0, "duration": 78}, {"note": 77, "velocity": 105, "duration": 71}, {"note": 74, "velocity": 105, "duration": 204}, {"note": 0, "velocity": 0, "duration": 156}, {"note": 74, "velocity": 100, "duration": 53}, {"note": 0, "velocity": 0, "duration": 67}, {"note": 74, "velocity": 97, "duration": 51}, {"note": 0, "velocity": 0, "duration": 69}, {"note": 74, "velocity": 94, "duration": 41}, {"note": 0, "velocity": 0, "duration": 79}, {"note": 74, "velocity": 114, "duration": 269}, {"note": 0, "velocity": 0, "duration": 91}, {"note": 75, "velocity": 109, "duration": 161}, {"note": 0, "velocity": 0, "duration": 79}, {"note": 74, "velocity": 117, "duration": 126}, {"note": 0, "velocity": 0, "duration": 114}, {"note": 72, "velocity": 108, "duration": 55}, {"note": 0, "velocity": 0, "duration": 65}, {"note": 70, "velocity": 105, "duration": 269}, {"note": 0, "velocity": 0, "duration": 91}, {"note": 72, "velocity": 108, "duration": 958}, {"note": 0, "velocity": 0, "duration": 1202}, {"note": 74, "velocity": 102, "duration": 55}, {"note": 0, "velocity": 0, "duration": 65}, {"note": 74, "velocity": 102, "duration": 53}, {"note": 0, "velocity": 0, "duration": 67}, {"note": 74, "velocity": 105, "duration": 141}, {"note": 0, "velocity": 0, "duration": 99}, {"note": 74, "velocity": 100, "duration": 55}, {"note": 0, "velocity": 0, "duration": 65}, {"note": 74, "velocity": 89, "duration": 53}, {"note": 0, "velocity": 0, "duration": 67}, {"note": 74, "velocity": 97, "duration": 55}, {"note": 0, "velocity": 0, "duration": 65}, {"note": 74, "velocity": 87, "duration": 53}, {"note": 0, "velocity": 0, "duration": 67}, {"note": 74, "velocity": 89, "duration": 49}, {"note": 0, "velocity": 0, "duration": 71}, {"note": 74, "velocity": 89, "duration": 53}, {"note": 0, "velocity": 0, "duration": 67}, {"note": 74, "velocity": 94, "duration": 118}, {"note": 74, "velocity": 111, "duration": 169}, {"note": 0, "velocity": 0, "duration": 71}, {"note": 75, "velocity": 112, "duration": 192}, {"note": 0, "velocity": 0, "duration": 168}, {"note": 75, "velocity": 102, "duration": 53}, {"note": 0, "velocity": 0, "duration": 67}, {"note": 75, "velocity": 102, "duration": 58}, {"note": 0, "velocity": 0, "duration": 62}, {"note": 75, "velocity": 102, "duration": 57}, {"note": 0, "velocity": 0, "duration": 63}, {"note": 75, "velocity": 105, "duration": 151}, {"note": 0, "velocity": 0, "duration": 89}, {"note": 75, "velocity": 105, "duration": 53}, {"note": 0, "velocity": 0, "duration": 67}, {"note": 75, "velocity": 109, "duration": 58}, {"note": 0, "velocity": 0, "duration": 62}, {"note": 75, "velocity": 96, "duration": 59}, {"note": 0, "velocity": 0, "duration": 61}, {"note": 75, "velocity": 96, "duration": 53}, {"note": 0, "velocity": 0, "duration": 67}, {"note": 75, "velocity": 102, "duration": 51}, {"note": 0, "velocity": 0, "duration": 69}, {"note": 75, "velocity": 116, "duration": 162}, {"note": 0, "velocity": 0, "duration": 78}, {"note": 77, "velocity": 105, "duration": 71}, {"note": 74, "velocity": 105, "duration": 204}, {"note": 0, "velocity": 0, "duration": 156}, {"note": 74, "velocity": 100, "duration": 53}, {"note": 0, "velocity": 0, "duration": 67}, {"note": 74, "velocity": 97, "duration": 51}, {"note": 0, "velocity": 0, "duration": 69}, {"note": 74, "velocity": 94, "duration": 41}, {"note": 0, "velocity": 0, "duration": 79}, {"note": 74, "velocity": 114, "duration": 269}, {"note": 0, "velocity": 0, "duration": 91}, {"note": 75, "velocity": 109, "duration": 161}, {"note": 0, "velocity": 0, "duration": 79}, {"note": 74, "velocity": 117, "duration": 126}, {"note": 0, "velocity": 0, "duration": 114}, {"note": 74, "velocity": 108, "duration": 55}, {"note": 0, "velocity": 0, "duration": 65}, {"note": 77, "velocity": 105, "duration": 269}, {"note": 0, "velocity": 0, "duration": 91}, {"note": 77, "velocity": 108, "duration": 958}, {"note": 0, "velocity": 0, "duration": 482}, {"note": 82, "velocity": 109, "duration": 65}, {"note": 81, "velocity": 105, "duration": 65}, {"note": 82, "velocity": 109, "duration": 63}, {"note": 81, "velocity": 100, "duration": 69}, {"note": 82, "velocity": 112, "duration": 181}, {"note": 79, "velocity": 114, "duration": 188}, {"note": 0, "velocity": 0, "duration": 292}, {"note": 82, "velocity": 109, "duration": 61}, {"note": 82, "velocity": 111, "duration": 63}, {"note": 82, "velocity": 116, "duration": 77}, {"note": 0, "velocity": 0, "duration": 283}, {"note": 82, "velocity": 105, "duration": 61}, {"note": 84, "velocity": 108, "duration": 124}, {"note": 0, "velocity": 0, "duration": 116}, {"note": 82, "velocity": 109, "duration": 134}, {"note": 0, "velocity": 0, "duration": 106}, {"note": 81, "velocity": 114, "duration": 96}, {"note": 0, "velocity": 0, "duration": 144}, {"note": 77, "velocity": 102, "duration": 161}, {"note": 0, "velocity": 0, "duration": 319}, {"note": 81, "velocity": 105, "duration": 54}, {"note": 0, "velocity": 0, "duration": 66}, {"note": 81, "velocity": 105, "duration": 55}, {"note": 0, "velocity": 0, "duration": 65}, {"note": 81, "velocity": 111, "duration": 120}, {"note": 0, "velocity": 0, "duration": 120}, {"note": 81, "velocity": 111, "duration": 45}, {"note": 0, "velocity": 0, "duration": 75}, {"note": 81, "velocity": 100, "duration": 49}, {"note": 0, "velocity": 0, "duration": 71}, {"note": 82, "velocity": 105, "duration": 135}, {"note": 0, "velocity": 0, "duration": 105}, {"note": 81, "velocity": 114, "duration": 77}, {"note": 0, "velocity": 0, "duration": 163}, {"note": 79, "velocity": 111, "duration": 147}, {"note": 0, "velocity": 0, "duration": 93}, {"note": 75, "velocity": 109, "duration": 238}, {"note": 0, "velocity": 0, "duration": 242}, {"note": 79, "velocity": 108, "duration": 57}, {"note": 0, "velocity": 0, "duration": 63}, {"note": 79, "velocity": 100, "duration": 63}, {"note": 81, "velocity": 97, "duration": 153}, {"note": 0, "velocity": 0, "duration": 87}, {"note": 79, "velocity": 111, "duration": 122}, {"note": 0, "velocity": 0, "duration": 118}, {"note": 77, "velocity": 100, "duration": 143}, {"note": 0, "velocity": 0, "duration": 97}, {"note": 75, "velocity": 105, "duration": 137}, {"note": 0, "velocity": 0, "duration": 103}, {"note": 74, "velocity": 105, "duration": 200}, {"note": 0, "velocity": 0, "duration": 280}, {"note": 74, "velocity": 105, "duration": 134}, {"note": 0, "velocity": 0, "duration": 106}, {"note": 75, "velocity": 105, "duration": 316}, {"note": 0, "velocity": 0, "duration": 164}, {"note": 77, "velocity": 108, "duration": 130}, {"note": 0, "velocity": 0, "duration": 110}, {"note": 81, "velocity": 114, "duration": 238}, {"note": 0, "velocity": 0, "duration": 122}, {"note": 81, "velocity": 89, "duration": 79}, {"note": 82, "velocity": 112, "duration": 187}, {"note": 79, "velocity": 111, "duration": 247}, {"note": 0, "velocity": 0, "duration": 233}, {"note": 82, "velocity": 109, "duration": 57}, {"note": 0, "velocity": 0, "duration": 63}, {"note": 82, "velocity": 90, "duration": 53}, {"note": 0, "velocity": 0, "duration": 67}, {"note": 82, "velocity": 109, "duration": 151}, {"note": 0, "velocity": 0, "duration": 89}, {"note": 82, "velocity": 102, "duration": 51}, {"note": 0, "velocity": 0, "duration": 69}, {"note": 84, "velocity": 114, "duration": 287}, {"note": 0, "velocity": 0, "duration": 73}, {"note": 82, "velocity": 105, "duration": 134}, {"note": 0, "velocity": 0, "duration": 106}, {"note": 81, "velocity": 114, "duration": 137}, {"note": 0, "velocity": 0, "duration": 103}, {"note": 77, "velocity": 109, "duration": 220}, {"note": 0, "velocity": 0, "duration": 260}, {"note": 81, "velocity": 108, "duration": 50}, {"note": 0, "velocity": 0, "duration": 70}, {"note": 81, "velocity": 105, "duration": 48}, {"note": 0, "velocity": 0, "duration": 72}, {"note": 81, "velocity": 108, "duration": 238}, {"note": 81, "velocity": 100, "duration": 118}, {"note": 81, "velocity": 102, "duration": 61}, {"note": 82, "velocity": 105, "duration": 153}, {"note": 0, "velocity": 0, "duration": 87}, {"note": 81, "velocity": 102, "duration": 143}, {"note": 0, "velocity": 0, "duration": 97}, {"note": 79, "velocity": 114, "duration": 116}, {"note": 0, "velocity": 0, "duration": 124}, {"note": 75, "velocity": 109, "duration": 243}, {"note": 0, "velocity": 0, "duration": 237}, {"note": 79, "velocity": 108, "duration": 49}, {"note": 0, "velocity": 0, "duration": 71}, {"note": 79, "velocity": 108, "duration": 53}, {"note": 0, "velocity": 0, "duration": 67}, {"note": 81, "velocity": 111, "duration": 147}, {"note": 0, "velocity": 0, "duration": 93}, {"note": 79, "velocity": 111, "duration": 124}, {"note": 0, "velocity": 0, "duration": 116}, {"note": 77, "velocity": 102, "duration": 149}, {"note": 0, "velocity": 0, "duration": 91}, {"note": 75, "velocity": 109, "duration": 171}, {"note": 0, "velocity": 0, "duration": 69}, {"note": 74, "velocity": 105, "duration": 296}, {"note": 0, "velocity": 0, "duration": 184}, {"note": 74, "velocity": 108, "duration": 165}, {"note": 0, "velocity": 0, "duration": 75}, {"note": 75, "velocity": 109, "duration": 365}, {"note": 0, "velocity": 0, "duration": 115}, {"note": 77, "velocity": 105, "duration": 238}, {"note": 82, "velocity": 109, "duration": 167}, {"note": 0, "velocity": 0, "duration": 73}, {"note": 81, "velocity": 114, "duration": 122}, {"note": 0, "velocity": 0, "duration": 118}, {"note": 82, "velocity": 112, "duration": 173}, {"note": 0, "velocity": 0, "duration": 187}, {"note": 81, "velocity": 108, "duration": 65}, {"note": 82, "velocity": 112, "duration": 283}, {"note": 0, "velocity": 0, "duration": 77}, {"note": 81, "velocity": 108, "duration": 65}, {"note": 82, "velocity": 112, "duration": 202}, {"note": 0, "velocity": 0, "duration": 158}, {"note": 82, "velocity": 102, "duration": 61}, {"note": 82, "velocity": 102, "duration": 162}, {"note": 0, "velocity": 0, "duration": 78}, {"note": 84, "velocity": 102, "duration": 114}, {"note": 0, "velocity": 0, "duration": 126}, {"note": 81, "velocity": 108, "duration": 257}, {"note": 0, "velocity": 0, "duration": 103}, {"note": 79, "velocity": 111, "duration": 53}, {"note": 0, "velocity": 0, "duration": 67}, {"note": 81, "velocity": 114, "duration": 285}, {"note": 0, "velocity": 0, "duration": 75}, {"note": 79, "velocity": 108, "duration": 51}, {"note": 0, "velocity": 0, "duration": 69}, {"note": 81, "velocity": 117, "duration": 194}, {"note": 0, "velocity": 0, "duration": 166}, {"note": 81, "velocity": 102, "duration": 51}, {"note": 0, "velocity": 0, "duration": 69}, {"note": 81, "velocity": 114, "duration": 134}, {"note": 0, "velocity": 0, "duration": 106}, {"note": 82, "velocity": 109, "duration": 149}, {"note": 0, "velocity": 0, "duration": 91}, {"note": 79, "velocity": 111, "duration": 289}, {"note": 0, "velocity": 0, "duration": 71}, {"note": 77, "velocity": 105, "duration": 49}, {"note": 0, "velocity": 0, "duration": 71}, {"note": 79, "velocity": 111, "duration": 285}, {"note": 0, "velocity": 0, "duration": 75}, {"note": 77, "velocity": 111, "duration": 55}, {"note": 0, "velocity": 0, "duration": 65}, {"note": 79, "velocity": 117, "duration": 183}, {"note": 0, "velocity": 0, "duration": 177}, {"note": 79, "velocity": 111, "duration": 51}, {"note": 0, "velocity": 0, "duration": 69}, {"note": 79, "velocity": 97, "duration": 124}, {"note": 0, "velocity": 0, "duration": 116}, {"note": 81, "velocity": 111, "duration": 143}, {"note": 0, "velocity": 0, "duration": 97}, {"note": 77, "velocity": 105, "duration": 300}, {"note": 75, "velocity": 105, "duration": 73}, {"note": 77, "velocity": 105, "duration": 281}, {"note": 0, "velocity": 0, "duration": 79}, {"note": 75, "velocity": 102, "duration": 61}, {"note": 77, "velocity": 102, "duration": 190}, {"note": 0, "velocity": 0, "duration": 170}, {"note": 82, "velocity": 105, "duration": 53}, {"note": 0, "velocity": 0, "duration": 67}, {"note": 82, "velocity": 105, "duration": 114}, {"note": 0, "velocity": 0, "duration": 126}, {"note": 81, "velocity": 117, "duration": 137}, {"note": 0, "velocity": 0, "duration": 103}, {"note": 82, "velocity": 109, "duration": 283}, {"note": 0, "velocity": 0, "duration": 77}, {"note": 81, "velocity": 111, "duration": 53}, {"note": 0, "velocity": 0, "duration": 67}, {"note": 82, "velocity": 105, "duration": 292}, {"note": 0, "velocity": 0, "duration": 68}, {"note": 81, "velocity": 105, "duration": 49}, {"note": 0, "velocity": 0, "duration": 71}, {"note": 82, "velocity": 105, "duration": 232}, {"note": 0, "velocity": 0, "duration": 128}, {"note": 82, "velocity": 105, "duration": 45}, {"note": 0, "velocity": 0, "duration": 75}, {"note": 82, "velocity": 96, "duration": 132}, {"note": 0, "velocity": 0, "duration": 108}, {"note": 84, "velocity": 102, "duration": 102}, {"note": 0, "velocity": 0, "duration": 138}, {"note": 81, "velocity": 108, "duration": 271}, {"note": 0, "velocity": 0, "duration": 89}, {"note": 79, "velocity": 105, "duration": 57}, {"note": 0, "velocity": 0, "duration": 63}, {"note": 81, "velocity": 111, "duration": 267}, {"note": 0, "velocity": 0, "duration": 93}, {"note": 79, "velocity": 105, "duration": 53}, {"note": 0, "velocity": 0, "duration": 67}, {"note": 81, "velocity": 111, "duration": 143}, {"note": 0, "velocity": 0, "duration": 217}, {"note": 79, "velocity": 97, "duration": 61}, {"note": 79, "velocity": 105, "duration": 141}, {"note": 0, "velocity": 0, "duration": 99}, {"note": 77, "velocity": 105, "duration": 181}, {"note": 79, "velocity": 111, "duration": 471}, {"note": 0, "velocity": 0, "duration": 489}, {"note": 77, "velocity": 111, "duration": 455}, {"note": 82, "velocity": 105, "duration": 387}, {"note": 0, "velocity": 0, "duration": 93}, {"note": 79, "velocity": 108, "duration": 1294}, {"note": 0, "velocity": 0, "duration": 146}, {"note": 82, "velocity": 109, "duration": 167}, {"note": 0, "velocity": 0, "duration": 73}, {"note": 81, "velocity": 114, "duration": 122}, {"note": 0, "velocity": 0, "duration": 118}, {"note": 82, "velocity": 112, "duration": 173}, {"note": 0, "velocity": 0, "duration": 187}, {"note": 81, "velocity": 108, "duration": 65}, {"note": 82, "velocity": 112, "duration": 283}, {"note": 0, "velocity": 0, "duration": 77}, {"note": 81, "velocity": 108, "duration": 65}, {"note": 82, "velocity": 112, "duration": 202}, {"note": 0, "velocity": 0, "duration": 158}, {"note": 82, "velocity": 102, "duration": 61}, {"note": 82, "velocity": 102, "duration": 162}, {"note": 0, "velocity": 0, "duration": 78}, {"note": 84, "velocity": 102, "duration": 114}, {"note": 0, "velocity": 0, "duration": 126}, {"note": 81, "velocity": 108, "duration": 257}, {"note": 0, "velocity": 0, "duration": 103}, {"note": 79, "velocity": 111, "duration": 53}, {"note": 0, "velocity": 0, "duration": 67}, {"note": 81, "velocity": 114, "duration": 285}, {"note": 0, "velocity": 0, "duration": 75}, {"note": 79, "velocity": 108, "duration": 51}, {"note": 0, "velocity": 0, "duration": 69}, {"note": 81, "velocity": 117, "duration": 194}, {"note": 0, "velocity": 0, "duration": 166}, {"note": 81, "velocity": 102, "duration": 51}, {"note": 0, "velocity": 0, "duration": 69}, {"note": 81, "velocity": 114, "duration": 134}, {"note": 0, "velocity": 0, "duration": 106}, {"note": 82, "velocity": 109, "duration": 149}, {"note": 0, "velocity": 0, "duration": 91}, {"note": 79, "velocity": 111, "duration": 289}, {"note": 0, "velocity": 0, "duration": 71}, {"note": 77, "velocity": 105, "duration": 49}, {"note": 0, "velocity": 0, "duration": 71}, {"note": 79, "velocity": 111, "duration": 285}, {"note": 0, "velocity": 0, "duration": 75}, {"note": 77, "velocity": 111, "duration": 55}, {"note": 0, "velocity": 0, "duration": 65}, {"note": 79, "velocity": 117, "duration": 183}, {"note": 0, "velocity": 0, "duration": 177}, {"note": 79, "velocity": 111, "duration": 51}, {"note": 0, "velocity": 0, "duration": 69}, {"note": 79, "velocity": 97, "duration": 124}, {"note": 0, "velocity": 0, "duration": 116}, {"note": 81, "velocity": 111, "duration": 143}, {"note": 0, "velocity": 0, "duration": 97}, {"note": 77, "velocity": 105, "duration": 300}, {"note": 75, "velocity": 105, "duration": 73}, {"note": 77, "velocity": 105, "duration": 281}, {"note": 0, "velocity": 0, "duration": 79}, {"note": 75, "velocity": 102, "duration": 61}, {"note": 77, "velocity": 102, "duration": 190}, {"note": 0, "velocity": 0, "duration": 170}, {"note": 82, "velocity": 105, "duration": 53}, {"note": 0, "velocity": 0, "duration": 67}, {"note": 82, "velocity": 105, "duration": 114}, {"note": 0, "velocity": 0, "duration": 126}, {"note": 81, "velocity": 117, "duration": 137}, {"note": 0, "velocity": 0, "duration": 103}, {"note": 82, "velocity": 109, "duration": 283}, {"note": 0, "velocity": 0, "duration": 77}, {"note": 81, "velocity": 111, "duration": 53}, {"note": 0, "velocity": 0, "duration": 67}, {"note": 82, "velocity": 105, "duration": 292}, {"note": 0, "velocity": 0, "duration": 68}, {"note": 81, "velocity": 105, "duration": 49}, {"note": 0, "velocity": 0, "duration": 71}, {"note": 82, "velocity": 105, "duration": 232}, {"note": 0, "velocity": 0, "duration": 128}, {"note": 82, "velocity": 105, "duration": 45}, {"note": 0, "velocity": 0, "duration": 75}, {"note": 82, "velocity": 96, "duration": 132}, {"note": 0, "velocity": 0, "duration": 108}, {"note": 84, "velocity": 102, "duration": 102}, {"note": 0, "velocity": 0, "duration": 138}, {"note": 81, "velocity": 108, "duration": 271}, {"note": 0, "velocity": 0, "duration": 89}, {"note": 79, "velocity": 105, "duration": 57}, {"note": 0, "velocity": 0, "duration": 63}, {"note": 81, "velocity": 111, "duration": 267}, {"note": 0, "velocity": 0, "duration": 93}, {"note": 79, "velocity": 105, "duration": 53}, {"note": 0, "velocity": 0, "duration": 67}, {"note": 81, "velocity": 111, "duration": 143}, {"note": 0, "velocity": 0, "duration": 217}, {"note": 79, "velocity": 97, "duration": 61}, {"note": 79, "velocity": 105, "duration": 141}, {"note": 0, "velocity": 0, "duration": 99}, {"note": 77, "velocity": 105, "duration": 181}, {"note": 79, "velocity": 111, "duration": 471}, {"note": 0, "velocity": 0, "duration": 489}, {"note": 77, "velocity": 111, "duration": 455}, {"note": 82, "velocity": 105, "duration": 387}, {"note": 0, "velocity": 0, "duration": 93}, {"note": 79, "velocity": 108, "duration": 1294}]]