[[{"note": 73, "velocity": 100, "duration": 480}, {"note": 71, "velocity": 105, "duration": 480}, {"note": 70, "velocity": 117, "duration": 480}, {"note": 68, "velocity": 102, "duration": 720}, {"note": 70, "velocity": 92, "duration": 119}, {"note": 70, "velocity": 97, "duration": 839}, {"note": 70, "velocity": 111, "duration": 120}, {"note": 78, "velocity": 102, "duration": 840}, {"note": 70, "velocity": 102, "duration": 120}, {"note": 77, "velocity": 105, "duration": 840}, {"note": 70, "velocity": 108, "duration": 120}, {"note": 75, "velocity": 105, "duration": 1560}, {"note": 70, "velocity": 117, "duration": 240}, {"note": 73, "velocity": 105, "duration": 120}, {"note": 75, "velocity": 100, "duration": 959}, {"note": 75, "velocity": 92, "duration": 119}, {"note": 75, "velocity": 100, "duration": 240}, {"note": 77, "velocity": 105, "duration": 240}, {"note": 73, "velocity": 114, "duration": 240}, {"note": 71, "velocity": 96, "duration": 120}, {"note": 73, "velocity": 92, "duration": 959}, {"note": 73, "velocity": 82, "duration": 119}, {"note": 73, "velocity": 102, "duration": 240}, {"note": 75, "velocity": 105, "duration": 240}, {"note": 71, "velocity": 105, "duration": 240}, {"note": 70, "velocity": 97, "duration": 120}, {"note": 71, "velocity": 109, "duration": 840}, {"note": 68, "velocity": 108, "duration": 120}, {"note": 70, "velocity": 108, "duration": 120}, {"note": 73, "velocity": 111, "duration": 720}, {"note": 71, "velocity": 102, "duration": 120}, {"note": 70, "velocity": 102, "duration": 2520}, {"note": 73, "velocity": 100, "duration": 480}, {"note": 71, "velocity": 105, "duration": 480}, {"note": 70, "velocity": 117, "duration": 480}, {"note": 68, "velocity": 102, "duration": 720}, {"note": 70, "velocity": 92, "duration": 119}, {"note": 70, "velocity": 97, "duration": 839}, {"note": 70, "velocity": 111, "duration": 120}, {"note": 78, "velocity": 102, "duration": 840}, {"note": 70, "velocity": 102, "duration": 120}, {"note": 77, "velocity": 105, "duration": 840}, {"note": 70, "velocity": 108, "duration": 120}, {"note": 75, "velocity": 105, "duration": 1560}, {"note": 70, "velocity": 117, "duration": 240}, {"note": 73, "velocity": 105, "duration": 120}, {"note": 75, "velocity": 100, "duration": 959}, {"note": 75, "velocity": 92, "duration": 119}, {"note": 75, "velocity": 100, "duration": 240}, {"note": 77, "velocity": 105, "duration": 240}, {"note": 73, "velocity": 114, "duration": 240}, {"note": 71, "velocity": 96, "duration": 120}, {"note": 73, "velocity": 92, "duration": 959}, {"note": 73, "velocity": 82, "duration": 119}, {"note": 73, "velocity": 102, "duration": 240}, {"note": 75, "velocity": 105, "duration": 240}, {"note": 71, "velocity": 105, "duration": 240}, {"note": 70, "velocity": 97, "duration": 120}, {"note": 71, "velocity": 109, "duration": 840}, {"note": 68, "velocity": 108, "duration": 120}, {"note": 70, "velocity": 108, "duration": 120}, {"note": 73, "velocity": 111, "duration": 720}, {"note": 75, "velocity": 102, "duration": 120}, {"note": 77, "velocity": 102, "duration": 1080}, {"note": 78, "velocity": 111, "duration": 480}, {"note": 80, "velocity": 117, "duration": 480}, {"note": 82, "velocity": 108, "duration": 2160}, {"note": 83, "velocity": 109, "duration": 240}, {"note": 80, "velocity": 108, "duration": 240}, {"note": 78, "velocity": 102, "duration": 120}, {"note": 80, "velocity": 97, "duration": 840}, {"note": 78, "velocity": 102, "duration": 120}, {"note": 80, "velocity": 108, "duration": 2280}, {"note": 82, "velocity": 67, "duration": 240}, {"note": 78, "velocity": 94, "duration": 240}, {"note": 77, "velocity": 100, "duration": 120}, {"note": 78, "velocity": 108, "duration": 840}, {"note": 77, "velocity": 102, "duration": 120}, {"note": 78, "velocity": 108, "duration": 2280}, {"note": 80, "velocity": 111, "duration": 240}, {"note": 77, "velocity": 111, "duration": 240}, {"note": 75, "velocity": 92, "duration": 120}, {"note": 77, "velocity": 100, "duration": 960}, {"note": 75, "velocity": 92, "duration": 119}, {"note": 75, "velocity": 100, "duration": 1920}, {"note": 0, "velocity": 0, "duration": 10080}, {"note": 73, "velocity": 100, "duration": 480}, {"note": 71, "velocity": 105, "duration": 480}, {"note": 70, "velocity": 117, "duration": 480}, {"note": 68, "velocity": 102, "duration": 720}, {"note": 70, "velocity": 92, "duration": 119}, {"note": 70, "velocity": 97, "duration": 839}, {"note": 70, "velocity": 111, "duration": 120}, {"note": 78, "velocity": 102, "duration": 840}, {"note": 70, "velocity": 102, "duration": 120}, {"note": 77, "velocity": 105, "duration": 840}, {"note": 70, "velocity": 108, "duration": 120}, {"note": 75, "velocity": 105, "duration": 1560}, {"note": 70, "velocity": 117, "duration": 240}, {"note": 73, "velocity": 105, "duration": 120}, {"note": 75, "velocity": 100, "duration": 959}, {"note": 75, "velocity": 92, "duration": 119}, {"note": 75, "velocity": 100, "duration": 240}, {"note": 77, "velocity": 105, "duration": 240}, {"note": 73, "velocity": 114, "duration": 240}, {"note": 71, "velocity": 96, "duration": 120}, {"note": 73, "velocity": 92, "duration": 959}, {"note": 73, "velocity": 82, "duration": 119}, {"note": 73, "velocity": 102, "duration": 240}, {"note": 75, "velocity": 105, "duration": 240}, {"note": 71, "velocity": 105, "duration": 240}, {"note": 70, "velocity": 97, "duration": 120}, {"note": 71, "velocity": 109, "duration": 840}, {"note": 68, "velocity": 108, "duration": 120}, {"note": 70, "velocity": 108, "duration": 120}, {"note": 73, "velocity": 111, "duration": 720}, {"note": 75, "velocity": 102, "duration": 120}, {"note": 77, "velocity": 102, "duration": 1080}, {"note": 78, "velocity": 111, "duration": 480}, {"note": 80, "velocity": 117, "duration": 480}, {"note": 82, "velocity": 108, "duration": 2160}, {"note": 83, "velocity": 109, "duration": 240}, {"note": 80, "velocity": 108, "duration": 240}, {"note": 78, "velocity": 102, "duration": 120}, {"note": 80, "velocity": 97, "duration": 840}, {"note": 78, "velocity": 102, "duration": 120}, {"note": 80, "velocity": 108, "duration": 2280}, {"note": 82, "velocity": 67, "duration": 240}, {"note": 78, "velocity": 94, "duration": 240}, {"note": 77, "velocity": 100, "duration": 120}, {"note": 78, "velocity": 108, "duration": 840}, {"note": 77, "velocity": 102, "duration": 120}, {"note": 78, "velocity": 108, "duration": 2280}, {"note": 80, "velocity": 111, "duration": 240}, {"note": 77, "velocity": 111, "duration": 240}, {"note": 75, "velocity": 92, "duration": 120}, {"note": 77, "velocity": 100, "duration": 600}, {"note": 78, "velocity": 114, "duration": 240}, {"note": 80, "velocity": 111, "duration": 240}, {"note": 82, "velocity": 108, "duration": 2160}, {"note": 83, "velocity": 109, "duration": 240}, {"note": 80, "velocity": 108, "duration": 240}, {"note": 78, "velocity": 102, "duration": 120}, {"note": 80, "velocity": 97, "duration": 840}, {"note": 78, "velocity": 102, "duration": 120}, {"note": 80, "velocity": 108, "duration": 2280}, {"note": 82, "velocity": 67, "duration": 240}, {"note": 78, "velocity": 94, "duration": 240}, {"note": 77, "velocity": 100, "duration": 120}, {"note": 78, "velocity": 108, "duration": 840}, {"note": 77, "velocity": 102, "duration": 120}, {"note": 78, "velocity": 108, "duration": 2280}, {"note": 80, "velocity": 111, "duration": 240}, {"note": 77, "velocity": 111, "duration": 240}, {"note": 75, "velocity": 92, "duration": 120}, {"note": 77, "velocity": 100, "duration": 1080}, {"note": 82, "velocity": 108, "duration": 1920}]]