[[{"note": 74, "velocity": 111, "duration": 240}, {"note": 67, "velocity": 92, "duration": 120}, {"note": 69, "velocity": 111, "duration": 839}, {"note": 69, "velocity": 111, "duration": 120}, {"note": 71, "velocity": 108, "duration": 120}, {"note": 72, "velocity": 108, "duration": 240}, {"note": 71, "velocity": 97, "duration": 120}, {"note": 72, "velocity": 108, "duration": 240}, {"note": 74, "velocity": 102, "duration": 240}, {"note": 71, "velocity": 105, "duration": 1559}, {"note": 71, "velocity": 108, "duration": 240}, {"note": 64, "velocity": 100, "duration": 120}, {"note": 69, "velocity": 102, "duration": 840}, {"note": 64, "velocity": 105, "duration": 120}, {"note": 66, "velocity": 105, "duration": 120}, {"note": 67, "velocity": 102, "duration": 240}, {"note": 66, "velocity": 102, "duration": 120}, {"note": 67, "velocity": 102, "duration": 240}, {"note": 69, "velocity": 97, "duration": 239}, {"note": 69, "velocity": 105, "duration": 1560}, {"note": 74, "velocity": 102, "duration": 240}, {"note": 67, "velocity": 92, "duration": 120}, {"note": 69, "velocity": 108, "duration": 839}, {"note": 69, "velocity": 102, "duration": 120}, {"note": 71, "velocity": 108, "duration": 120}, {"note": 72, "velocity": 105, "duration": 240}, {"note": 71, "velocity": 102, "duration": 120}, {"note": 72, "velocity": 105, "duration": 240}, {"note": 74, "velocity": 111, "duration": 240}, {"note": 71, "velocity": 108, "duration": 1559}, {"note": 71, "velocity": 111, "duration": 240}, {"note": 76, "velocity": 105, "duration": 120}, {"note": 71, "velocity": 105, "duration": 240}, {"note": 69, "velocity": 105, "duration": 600}, {"note": 64, "velocity": 97, "duration": 120}, {"note": 66, "velocity": 96, "duration": 120}, {"note": 67, "velocity": 97, "duration": 240}, {"note": 66, "velocity": 105, "duration": 120}, {"note": 67, "velocity": 92, "duration": 240}, {"note": 69, "velocity": 105, "duration": 239}, {"note": 69, "velocity": 102, "duration": 1560}, {"note": 67, "velocity": 102, "duration": 240}, {"note": 69, "velocity": 114, "duration": 240}, {"note": 71, "velocity": 105, "duration": 240}, {"note": 74, "velocity": 94, "duration": 119}, {"note": 74, "velocity": 94, "duration": 479}, {"note": 74, "velocity": 105, "duration": 119}, {"note": 74, "velocity": 105, "duration": 240}, {"note": 76, "velocity": 105, "duration": 240}, {"note": 72, "velocity": 108, "duration": 120}, {"note": 74, "velocity": 105, "duration": 360}, {"note": 71, "velocity": 105, "duration": 720}, {"note": 76, "velocity": 105, "duration": 120}, {"note": 78, "velocity": 109, "duration": 120}, {"note": 79, "velocity": 105, "duration": 240}, {"note": 78, "velocity": 109, "duration": 120}, {"note": 79, "velocity": 105, "duration": 480}, {"note": 69, "velocity": 100, "duration": 119}, {"note": 69, "velocity": 111, "duration": 240}, {"note": 76, "velocity": 92, "duration": 119}, {"note": 76, "velocity": 111, "duration": 479}, {"note": 76, "velocity": 111, "duration": 119}, {"note": 76, "velocity": 117, "duration": 239}, {"note": 76, "velocity": 100, "duration": 119}, {"note": 76, "velocity": 114, "duration": 360}, {"note": 74, "velocity": 105, "duration": 239}, {"note": 74, "velocity": 108, "duration": 2160}, {"note": 62, "velocity": 114, "duration": 240}, {"note": 67, "velocity": 108, "duration": 240}, {"note": 74, "velocity": 100, "duration": 240}, {"note": 72, "velocity": 108, "duration": 240}, {"note": 71, "velocity": 94, "duration": 120}, {"note": 72, "velocity": 108, "duration": 240}, {"note": 76, "velocity": 102, "duration": 360}, {"note": 74, "velocity": 105, "duration": 480}, {"note": 67, "velocity": 117, "duration": 240}, {"note": 79, "velocity": 108, "duration": 240}, {"note": 78, "velocity": 105, "duration": 480}, {"note": 76, "velocity": 108, "duration": 480}, {"note": 74, "velocity": 108, "duration": 240}, {"note": 76, "velocity": 111, "duration": 240}, {"note": 72, "velocity": 105, "duration": 240}, {"note": 71, "velocity": 100, "duration": 120}, {"note": 72, "velocity": 100, "duration": 240}, {"note": 64, "velocity": 108, "duration": 360}, {"note": 66, "velocity": 109, "duration": 240}, {"note": 67, "velocity": 100, "duration": 240}, {"note": 72, "velocity": 102, "duration": 240}, {"note": 74, "velocity": 105, "duration": 240}, {"note": 76, "velocity": 105, "duration": 240}, {"note": 74, "velocity": 97, "duration": 120}, {"note": 71, "velocity": 108, "duration": 240}, {"note": 69, "velocity": 108, "duration": 1080}, {"note": 62, "velocity": 114, "duration": 240}, {"note": 67, "velocity": 108, "duration": 240}, {"note": 74, "velocity": 100, "duration": 240}, {"note": 72, "velocity": 108, "duration": 240}, {"note": 71, "velocity": 94, "duration": 120}, {"note": 72, "velocity": 108, "duration": 240}, {"note": 76, "velocity": 102, "duration": 360}, {"note": 74, "velocity": 105, "duration": 839}, {"note": 74, "velocity": 111, "duration": 120}, {"note": 75, "velocity": 105, "duration": 239}, {"note": 75, "velocity": 102, "duration": 120}, {"note": 76, "velocity": 105, "duration": 240}, {"note": 78, "velocity": 112, "duration": 359}, {"note": 78, "velocity": 109, "duration": 240}, {"note": 79, "velocity": 92, "duration": 119}, {"note": 79, "velocity": 102, "duration": 959}, {"note": 79, "velocity": 94, "duration": 120}, {"note": 78, "velocity": 102, "duration": 240}, {"note": 79, "velocity": 100, "duration": 120}, {"note": 78, "velocity": 109, "duration": 360}, {"note": 76, "velocity": 87, "duration": 119}, {"note": 76, "velocity": 102, "duration": 1559}, {"note": 76, "velocity": 105, "duration": 240}, {"note": 71, "velocity": 108, "duration": 240}, {"note": 69, "velocity": 111, "duration": 240}, {"note": 67, "velocity": 92, "duration": 120}, {"note": 74, "velocity": 92, "duration": 960}, {"note": 71, "velocity": 97, "duration": 120}, {"note": 72, "velocity": 105, "duration": 240}, {"note": 71, "velocity": 105, "duration": 240}, {"note": 64, "velocity": 105, "duration": 240}, {"note": 65, "velocity": 97, "duration": 240}, {"note": 66, "velocity": 96, "duration": 480}, {"note": 71, "velocity": 97, "duration": 480}, {"note": 67, "velocity": 97, "duration": 4320}, {"note": 74, "velocity": 111, "duration": 240}, {"note": 67, "velocity": 92, "duration": 120}, {"note": 69, "velocity": 111, "duration": 839}, {"note": 69, "velocity": 111, "duration": 120}, {"note": 71, "velocity": 108, "duration": 120}, {"note": 72, "velocity": 108, "duration": 240}, {"note": 71, "velocity": 97, "duration": 120}, {"note": 72, "velocity": 108, "duration": 240}, {"note": 74, "velocity": 102, "duration": 240}, {"note": 71, "velocity": 105, "duration": 1559}, {"note": 71, "velocity": 108, "duration": 240}, {"note": 64, "velocity": 100, "duration": 120}, {"note": 69, "velocity": 102, "duration": 840}, {"note": 64, "velocity": 105, "duration": 120}, {"note": 66, "velocity": 105, "duration": 120}, {"note": 67, "velocity": 102, "duration": 240}, {"note": 66, "velocity": 102, "duration": 120}, {"note": 67, "velocity": 102, "duration": 240}, {"note": 69, "velocity": 97, "duration": 239}, {"note": 69, "velocity": 105, "duration": 1560}, {"note": 74, "velocity": 102, "duration": 240}, {"note": 67, "velocity": 92, "duration": 120}, {"note": 69, "velocity": 108, "duration": 839}, {"note": 69, "velocity": 102, "duration": 120}, {"note": 71, "velocity": 108, "duration": 120}, {"note": 72, "velocity": 105, "duration": 240}, {"note": 71, "velocity": 102, "duration": 120}, {"note": 72, "velocity": 105, "duration": 240}, {"note": 74, "velocity": 111, "duration": 240}, {"note": 71, "velocity": 108, "duration": 1559}, {"note": 71, "velocity": 111, "duration": 240}, {"note": 76, "velocity": 105, "duration": 120}, {"note": 71, "velocity": 105, "duration": 240}, {"note": 69, "velocity": 105, "duration": 600}, {"note": 64, "velocity": 97, "duration": 120}, {"note": 66, "velocity": 96, "duration": 120}, {"note": 67, "velocity": 97, "duration": 240}, {"note": 66, "velocity": 105, "duration": 120}, {"note": 67, "velocity": 92, "duration": 240}, {"note": 69, "velocity": 105, "duration": 239}, {"note": 69, "velocity": 102, "duration": 1560}, {"note": 67, "velocity": 102, "duration": 240}, {"note": 69, "velocity": 114, "duration": 240}, {"note": 71, "velocity": 105, "duration": 240}, {"note": 74, "velocity": 94, "duration": 119}, {"note": 74, "velocity": 94, "duration": 479}, {"note": 74, "velocity": 105, "duration": 119}, {"note": 74, "velocity": 105, "duration": 240}, {"note": 76, "velocity": 105, "duration": 240}, {"note": 72, "velocity": 108, "duration": 120}, {"note": 74, "velocity": 105, "duration": 360}, {"note": 71, "velocity": 105, "duration": 720}, {"note": 76, "velocity": 105, "duration": 120}, {"note": 78, "velocity": 109, "duration": 120}, {"note": 79, "velocity": 105, "duration": 240}, {"note": 78, "velocity": 109, "duration": 120}, {"note": 79, "velocity": 105, "duration": 480}, {"note": 69, "velocity": 100, "duration": 119}, {"note": 69, "velocity": 111, "duration": 240}, {"note": 76, "velocity": 92, "duration": 119}, {"note": 76, "velocity": 111, "duration": 479}, {"note": 76, "velocity": 111, "duration": 119}, {"note": 76, "velocity": 117, "duration": 239}, {"note": 76, "velocity": 100, "duration": 119}, {"note": 76, "velocity": 114, "duration": 360}, {"note": 74, "velocity": 105, "duration": 239}, {"note": 74, "velocity": 108, "duration": 2160}, {"note": 62, "velocity": 114, "duration": 240}, {"note": 67, "velocity": 108, "duration": 240}, {"note": 74, "velocity": 100, "duration": 240}, {"note": 72, "velocity": 108, "duration": 240}, {"note": 71, "velocity": 94, "duration": 120}, {"note": 72, "velocity": 108, "duration": 240}, {"note": 76, "velocity": 102, "duration": 360}, {"note": 74, "velocity": 105, "duration": 480}, {"note": 67, "velocity": 117, "duration": 240}, {"note": 79, "velocity": 108, "duration": 240}, {"note": 78, "velocity": 105, "duration": 480}, {"note": 76, "velocity": 108, "duration": 480}, {"note": 74, "velocity": 108, "duration": 240}, {"note": 76, "velocity": 111, "duration": 240}, {"note": 72, "velocity": 105, "duration": 240}, {"note": 71, "velocity": 100, "duration": 120}, {"note": 72, "velocity": 100, "duration": 240}, {"note": 64, "velocity": 108, "duration": 360}, {"note": 66, "velocity": 109, "duration": 240}, {"note": 67, "velocity": 100, "duration": 240}, {"note": 72, "velocity": 102, "duration": 240}, {"note": 74, "velocity": 105, "duration": 240}, {"note": 76, "velocity": 105, "duration": 240}, {"note": 74, "velocity": 97, "duration": 120}, {"note": 71, "velocity": 108, "duration": 240}, {"note": 69, "velocity": 108, "duration": 1080}, {"note": 62, "velocity": 114, "duration": 240}, {"note": 67, "velocity": 108, "duration": 240}, {"note": 74, "velocity": 100, "duration": 240}, {"note": 72, "velocity": 108, "duration": 240}, {"note": 71, "velocity": 94, "duration": 120}, {"note": 72, "velocity": 108, "duration": 240}, {"note": 76, "velocity": 102, "duration": 360}, {"note": 74, "velocity": 105, "duration": 839}, {"note": 74, "velocity": 111, "duration": 120}, {"note": 75, "velocity": 105, "duration": 239}, {"note": 75, "velocity": 102, "duration": 120}, {"note": 76, "velocity": 105, "duration": 240}, {"note": 78, "velocity": 112, "duration": 359}, {"note": 78, "velocity": 109, "duration": 240}, {"note": 79, "velocity": 92, "duration": 119}, {"note": 79, "velocity": 102, "duration": 959}, {"note": 79, "velocity": 94, "duration": 120}, {"note": 78, "velocity": 102, "duration": 240}, {"note": 79, "velocity": 100, "duration": 120}, {"note": 78, "velocity": 109, "duration": 360}, {"note": 76, "velocity": 87, "duration": 119}, {"note": 76, "velocity": 102, "duration": 1559}, {"note": 76, "velocity": 105, "duration": 240}, {"note": 71, "velocity": 108, "duration": 240}, {"note": 69, "velocity": 111, "duration": 240}, {"note": 67, "velocity": 92, "duration": 120}, {"note": 74, "velocity": 92, "duration": 960}, {"note": 71, "velocity": 97, "duration": 120}, {"note": 72, "velocity": 105, "duration": 240}, {"note": 71, "velocity": 105, "duration": 240}, {"note": 64, "velocity": 105, "duration": 240}, {"note": 65, "velocity": 97, "duration": 240}, {"note": 66, "velocity": 96, "duration": 480}, {"note": 71, "velocity": 97, "duration": 480}, {"note": 67, "velocity": 97, "duration": 840}, {"note": 76, "velocity": 89, "duration": 119}, {"note": 76, "velocity": 108, "duration": 239}, {"note": 76, "velocity": 102, "duration": 120}, {"note": 78, "velocity": 105, "duration": 360}, {"note": 76, "velocity": 94, "duration": 120}, {"note": 75, "velocity": 102, "duration": 359}, {"note": 75, "velocity": 105, "duration": 120}, {"note": 76, "velocity": 102, "duration": 240}, {"note": 78, "velocity": 105, "duration": 240}, {"note": 75, "velocity": 109, "duration": 1320}, {"note": 71, "velocity": 114, "duration": 240}, {"note": 76, "velocity": 108, "duration": 240}, {"note": 79, "velocity": 108, "duration": 240}, {"note": 78, "velocity": 109, "duration": 240}, {"note": 74, "velocity": 105, "duration": 119}, {"note": 74, "velocity": 108, "duration": 360}, {"note": 71, "velocity": 114, "duration": 240}, {"note": 76, "velocity": 100, "duration": 839}, {"note": 76, "velocity": 102, "duration": 119}, {"note": 76, "velocity": 111, "duration": 240}, {"note": 77, "velocity": 100, "duration": 120}, {"note": 76, "velocity": 111, "duration": 360}, {"note": 74, "velocity": 108, "duration": 240}, {"note": 72, "velocity": 108, "duration": 480}, {"note": 76, "velocity": 105, "duration": 240}, {"note": 74, "velocity": 105, "duration": 1079}, {"note": 74, "velocity": 97, "duration": 120}, {"note": 75, "velocity": 109, "duration": 239}, {"note": 75, "velocity": 109, "duration": 120}, {"note": 76, "velocity": 105, "duration": 240}, {"note": 78, "velocity": 109, "duration": 239}, {"note": 78, "velocity": 105, "duration": 360}, {"note": 79, "velocity": 97, "duration": 119}, {"note": 79, "velocity": 108, "duration": 960}, {"note": 70, "velocity": 102, "duration": 120}, {"note": 79, "velocity": 108, "duration": 240}, {"note": 77, "velocity": 100, "duration": 119}, {"note": 77, "velocity": 105, "duration": 360}, {"note": 75, "velocity": 109, "duration": 240}, {"note": 74, "velocity": 111, "duration": 240}, {"note": 72, "velocity": 105, "duration": 240}, {"note": 74, "velocity": 108, "duration": 2160}, {"note": 62, "velocity": 114, "duration": 240}, {"note": 67, "velocity": 108, "duration": 240}, {"note": 74, "velocity": 100, "duration": 240}, {"note": 72, "velocity": 108, "duration": 240}, {"note": 71, "velocity": 94, "duration": 120}, {"note": 72, "velocity": 108, "duration": 240}, {"note": 76, "velocity": 102, "duration": 360}, {"note": 74, "velocity": 105, "duration": 480}, {"note": 67, "velocity": 117, "duration": 240}, {"note": 79, "velocity": 108, "duration": 240}, {"note": 78, "velocity": 105, "duration": 480}, {"note": 76, "velocity": 108, "duration": 480}, {"note": 74, "velocity": 108, "duration": 240}, {"note": 76, "velocity": 111, "duration": 240}, {"note": 72, "velocity": 105, "duration": 240}, {"note": 71, "velocity": 100, "duration": 120}, {"note": 72, "velocity": 100, "duration": 240}, {"note": 64, "velocity": 108, "duration": 360}, {"note": 66, "velocity": 109, "duration": 240}, {"note": 67, "velocity": 100, "duration": 240}, {"note": 72, "velocity": 102, "duration": 240}, {"note": 74, "velocity": 105, "duration": 240}, {"note": 76, "velocity": 105, "duration": 240}, {"note": 74, "velocity": 97, "duration": 120}, {"note": 71, "velocity": 108, "duration": 240}, {"note": 69, "velocity": 108, "duration": 1080}, {"note": 62, "velocity": 114, "duration": 240}, {"note": 67, "velocity": 108, "duration": 240}, {"note": 74, "velocity": 100, "duration": 240}, {"note": 72, "velocity": 108, "duration": 240}, {"note": 71, "velocity": 94, "duration": 120}, {"note": 72, "velocity": 108, "duration": 240}, {"note": 76, "velocity": 102, "duration": 360}, {"note": 74, "velocity": 105, "duration": 839}, {"note": 74, "velocity": 111, "duration": 120}, {"note": 75, "velocity": 105, "duration": 239}, {"note": 75, "velocity": 102, "duration": 120}, {"note": 76, "velocity": 105, "duration": 240}, {"note": 78, "velocity": 112, "duration": 359}, {"note": 78, "velocity": 109, "duration": 240}, {"note": 79, "velocity": 92, "duration": 119}, {"note": 79, "velocity": 102, "duration": 959}, {"note": 79, "velocity": 94, "duration": 120}, {"note": 78, "velocity": 102, "duration": 240}, {"note": 79, "velocity": 100, "duration": 120}, {"note": 78, "velocity": 109, "duration": 360}, {"note": 76, "velocity": 87, "duration": 119}, {"note": 76, "velocity": 102, "duration": 1559}, {"note": 76, "velocity": 105, "duration": 240}, {"note": 71, "velocity": 108, "duration": 240}, {"note": 69, "velocity": 111, "duration": 240}, {"note": 67, "velocity": 92, "duration": 120}, {"note": 74, "velocity": 92, "duration": 960}, {"note": 71, "velocity": 97, "duration": 120}, {"note": 72, "velocity": 105, "duration": 240}, {"note": 71, "velocity": 105, "duration": 240}, {"note": 64, "velocity": 105, "duration": 240}, {"note": 65, "velocity": 97, "duration": 240}, {"note": 66, "velocity": 96, "duration": 480}, {"note": 71, "velocity": 97, "duration": 480}, {"note": 67, "velocity": 97, "duration": 3720}, {"note": 71, "velocity": 89, "duration": 120}, {"note": 72, "velocity": 100, "duration": 240}, {"note": 71, "velocity": 105, "duration": 240}, {"note": 64, "velocity": 102, "duration": 240}, {"note": 65, "velocity": 97, "duration": 240}, {"note": 66, "velocity": 90, "duration": 1440}, {"note": 71, "velocity": 92, "duration": 480}, {"note": 67, "velocity": 94, "duration": 1630}]]