[[{"note": 63, "velocity": 102, "duration": 562}, {"note": 0, "velocity": 0, "duration": 398}, {"note": 62, "velocity": 108, "duration": 276}, {"note": 0, "velocity": 0, "duration": 84}, {"note": 63, "velocity": 109, "duration": 90}, {"note": 62, "velocity": 111, "duration": 109}, {"note": 0, "velocity": 0, "duration": 131}, {"note": 60, "velocity": 114, "duration": 2076}, {"note": 0, "velocity": 0, "duration": 15924}, {"note": 67, "velocity": 105, "duration": 239}, {"note": 67, "velocity": 108, "duration": 239}, {"note": 67, "velocity": 102, "duration": 479}, {"note": 67, "velocity": 92, "duration": 239}, {"note": 67, "velocity": 108, "duration": 239}, {"note": 67, "velocity": 100, "duration": 480}, {"note": 65, "velocity": 108, "duration": 240}, {"note": 63, "velocity": 109, "duration": 240}, {"note": 62, "velocity": 111, "duration": 480}, {"note": 60, "velocity": 111, "duration": 960}, {"note": 67, "velocity": 108, "duration": 239}, {"note": 67, "velocity": 105, "duration": 239}, {"note": 67, "velocity": 111, "duration": 479}, {"note": 67, "velocity": 108, "duration": 239}, {"note": 67, "velocity": 102, "duration": 240}, {"note": 70, "velocity": 112, "duration": 480}, {"note": 68, "velocity": 109, "duration": 240}, {"note": 67, "velocity": 111, "duration": 240}, {"note": 65, "velocity": 117, "duration": 480}, {"note": 63, "velocity": 112, "duration": 960}, {"note": 67, "velocity": 105, "duration": 239}, {"note": 67, "velocity": 102, "duration": 239}, {"note": 67, "velocity": 105, "duration": 479}, {"note": 67, "velocity": 108, "duration": 239}, {"note": 67, "velocity": 102, "duration": 239}, {"note": 67, "velocity": 105, "duration": 480}, {"note": 65, "velocity": 105, "duration": 240}, {"note": 63, "velocity": 99, "duration": 240}, {"note": 62, "velocity": 102, "duration": 480}, {"note": 60, "velocity": 114, "duration": 480}, {"note": 63, "velocity": 109, "duration": 479}, {"note": 63, "velocity": 112, "duration": 240}, {"note": 60, "velocity": 108, "duration": 240}, {"note": 63, "velocity": 112, "duration": 479}, {"note": 63, "velocity": 116, "duration": 479}, {"note": 63, "velocity": 109, "duration": 479}, {"note": 63, "velocity": 112, "duration": 240}, {"note": 67, "velocity": 105, "duration": 240}, {"note": 65, "velocity": 114, "duration": 960}, {"note": 67, "velocity": 100, "duration": 239}, {"note": 67, "velocity": 108, "duration": 239}, {"note": 67, "velocity": 108, "duration": 239}, {"note": 67, "velocity": 114, "duration": 239}, {"note": 67, "velocity": 111, "duration": 239}, {"note": 67, "velocity": 108, "duration": 239}, {"note": 67, "velocity": 117, "duration": 239}, {"note": 67, "velocity": 111, "duration": 239}, {"note": 67, "velocity": 111, "duration": 239}, {"note": 67, "velocity": 111, "duration": 239}, {"note": 67, "velocity": 111, "duration": 240}, {"note": 65, "velocity": 114, "duration": 239}, {"note": 65, "velocity": 111, "duration": 960}, {"note": 67, "velocity": 84, "duration": 239}, {"note": 67, "velocity": 105, "duration": 239}, {"note": 67, "velocity": 100, "duration": 239}, {"note": 67, "velocity": 102, "duration": 239}, {"note": 67, "velocity": 102, "duration": 239}, {"note": 67, "velocity": 100, "duration": 239}, {"note": 67, "velocity": 105, "duration": 239}, {"note": 67, "velocity": 102, "duration": 240}, {"note": 70, "velocity": 112, "duration": 239}, {"note": 70, "velocity": 102, "duration": 240}, {"note": 68, "velocity": 109, "duration": 240}, {"note": 67, "velocity": 111, "duration": 240}, {"note": 65, "velocity": 117, "duration": 960}, {"note": 67, "velocity": 73, "duration": 239}, {"note": 67, "velocity": 100, "duration": 239}, {"note": 67, "velocity": 100, "duration": 239}, {"note": 67, "velocity": 102, "duration": 239}, {"note": 67, "velocity": 102, "duration": 239}, {"note": 67, "velocity": 100, "duration": 239}, {"note": 67, "velocity": 102, "duration": 239}, {"note": 67, "velocity": 97, "duration": 239}, {"note": 67, "velocity": 102, "duration": 479}, {"note": 67, "velocity": 102, "duration": 240}, {"note": 65, "velocity": 108, "duration": 239}, {"note": 65, "velocity": 114, "duration": 960}, {"note": 63, "velocity": 112, "duration": 479}, {"note": 63, "velocity": 112, "duration": 479}, {"note": 63, "velocity": 112, "duration": 479}, {"note": 63, "velocity": 112, "duration": 479}, {"note": 63, "velocity": 109, "duration": 239}, {"note": 63, "velocity": 109, "duration": 239}, {"note": 63, "velocity": 109, "duration": 240}, {"note": 67, "velocity": 100, "duration": 240}, {"note": 65, "velocity": 108, "duration": 960}, {"note": 67, "velocity": 102, "duration": 239}, {"note": 67, "velocity": 100, "duration": 239}, {"note": 67, "velocity": 97, "duration": 239}, {"note": 67, "velocity": 97, "duration": 239}, {"note": 67, "velocity": 102, "duration": 239}, {"note": 67, "velocity": 102, "duration": 239}, {"note": 67, "velocity": 105, "duration": 239}, {"note": 67, "velocity": 102, "duration": 239}, {"note": 67, "velocity": 102, "duration": 239}, {"note": 67, "velocity": 102, "duration": 239}, {"note": 67, "velocity": 111, "duration": 240}, {"note": 65, "velocity": 111, "duration": 239}, {"note": 65, "velocity": 111, "duration": 960}, {"note": 67, "velocity": 97, "duration": 239}, {"note": 67, "velocity": 97, "duration": 239}, {"note": 67, "velocity": 105, "duration": 239}, {"note": 67, "velocity": 111, "duration": 239}, {"note": 67, "velocity": 105, "duration": 239}, {"note": 67, "velocity": 102, "duration": 239}, {"note": 67, "velocity": 102, "duration": 239}, {"note": 67, "velocity": 97, "duration": 240}, {"note": 70, "velocity": 109, "duration": 359}, {"note": 70, "velocity": 99, "duration": 120}, {"note": 68, "velocity": 105, "duration": 240}, {"note": 67, "velocity": 108, "duration": 240}, {"note": 65, "velocity": 114, "duration": 960}, {"note": 67, "velocity": 58, "duration": 239}, {"note": 67, "velocity": 105, "duration": 239}, {"note": 67, "velocity": 97, "duration": 239}, {"note": 67, "velocity": 105, "duration": 239}, {"note": 67, "velocity": 108, "duration": 239}, {"note": 67, "velocity": 105, "duration": 239}, {"note": 67, "velocity": 111, "duration": 239}, {"note": 67, "velocity": 102, "duration": 239}, {"note": 67, "velocity": 114, "duration": 239}, {"note": 67, "velocity": 105, "duration": 239}, {"note": 67, "velocity": 111, "duration": 240}, {"note": 65, "velocity": 108, "duration": 240}, {"note": 67, "velocity": 114, "duration": 240}, {"note": 65, "velocity": 78, "duration": 720}, {"note": 63, "velocity": 112, "duration": 240}, {"note": 60, "velocity": 108, "duration": 240}, {"note": 63, "velocity": 109, "duration": 240}, {"note": 60, "velocity": 108, "duration": 240}, {"note": 63, "velocity": 112, "duration": 239}, {"note": 63, "velocity": 97, "duration": 239}, {"note": 63, "velocity": 112, "duration": 239}, {"note": 63, "velocity": 105, "duration": 239}, {"note": 63, "velocity": 112, "duration": 239}, {"note": 63, "velocity": 105, "duration": 239}, {"note": 63, "velocity": 109, "duration": 240}, {"note": 67, "velocity": 102, "duration": 240}, {"note": 65, "velocity": 105, "duration": 3840}, {"note": 67, "velocity": 100, "duration": 240}, {"note": 65, "velocity": 102, "duration": 240}, {"note": 63, "velocity": 109, "duration": 240}, {"note": 62, "velocity": 94, "duration": 240}, {"note": 63, "velocity": 112, "duration": 480}, {"note": 60, "velocity": 82, "duration": 240}, {"note": 63, "velocity": 109, "duration": 239}, {"note": 63, "velocity": 112, "duration": 239}, {"note": 63, "velocity": 109, "duration": 240}, {"note": 65, "velocity": 97, "duration": 239}, {"note": 65, "velocity": 111, "duration": 480}, {"note": 58, "velocity": 112, "duration": 720}, {"note": 67, "velocity": 108, "duration": 240}, {"note": 65, "velocity": 105, "duration": 240}, {"note": 63, "velocity": 96, "duration": 240}, {"note": 62, "velocity": 102, "duration": 240}, {"note": 63, "velocity": 109, "duration": 480}, {"note": 60, "velocity": 111, "duration": 240}, {"note": 63, "velocity": 109, "duration": 239}, {"note": 63, "velocity": 102, "duration": 239}, {"note": 63, "velocity": 102, "duration": 240}, {"note": 65, "velocity": 108, "duration": 239}, {"note": 65, "velocity": 111, "duration": 1200}, {"note": 67, "velocity": 108, "duration": 240}, {"note": 65, "velocity": 105, "duration": 240}, {"note": 63, "velocity": 112, "duration": 240}, {"note": 62, "velocity": 100, "duration": 240}, {"note": 63, "velocity": 109, "duration": 480}, {"note": 60, "velocity": 108, "duration": 240}, {"note": 63, "velocity": 109, "duration": 239}, {"note": 63, "velocity": 109, "duration": 239}, {"note": 63, "velocity": 105, "duration": 240}, {"note": 65, "velocity": 105, "duration": 239}, {"note": 65, "velocity": 114, "duration": 480}, {"note": 58, "velocity": 109, "duration": 720}, {"note": 62, "velocity": 108, "duration": 239}, {"note": 62, "velocity": 108, "duration": 239}, {"note": 62, "velocity": 114, "duration": 480}, {"note": 63, "velocity": 109, "duration": 960}, {"note": 62, "velocity": 102, "duration": 240}, {"note": 63, "velocity": 105, "duration": 240}, {"note": 62, "velocity": 108, "duration": 240}, {"note": 60, "velocity": 117, "duration": 1200}, {"note": 67, "velocity": 100, "duration": 240}, {"note": 65, "velocity": 102, "duration": 240}, {"note": 63, "velocity": 109, "duration": 240}, {"note": 62, "velocity": 94, "duration": 240}, {"note": 63, "velocity": 112, "duration": 480}, {"note": 60, "velocity": 82, "duration": 240}, {"note": 63, "velocity": 109, "duration": 239}, {"note": 63, "velocity": 112, "duration": 239}, {"note": 63, "velocity": 109, "duration": 240}, {"note": 65, "velocity": 97, "duration": 239}, {"note": 65, "velocity": 111, "duration": 480}, {"note": 58, "velocity": 112, "duration": 720}, {"note": 67, "velocity": 108, "duration": 240}, {"note": 65, "velocity": 105, "duration": 240}, {"note": 63, "velocity": 96, "duration": 240}, {"note": 62, "velocity": 102, "duration": 240}, {"note": 63, "velocity": 109, "duration": 480}, {"note": 60, "velocity": 111, "duration": 240}, {"note": 63, "velocity": 109, "duration": 239}, {"note": 63, "velocity": 102, "duration": 239}, {"note": 63, "velocity": 102, "duration": 240}, {"note": 65, "velocity": 108, "duration": 239}, {"note": 65, "velocity": 111, "duration": 1200}, {"note": 67, "velocity": 108, "duration": 240}, {"note": 65, "velocity": 105, "duration": 240}, {"note": 63, "velocity": 112, "duration": 240}, {"note": 62, "velocity": 100, "duration": 240}, {"note": 63, "velocity": 109, "duration": 480}, {"note": 60, "velocity": 108, "duration": 240}, {"note": 63, "velocity": 109, "duration": 239}, {"note": 63, "velocity": 109, "duration": 239}, {"note": 63, "velocity": 105, "duration": 240}, {"note": 65, "velocity": 105, "duration": 239}, {"note": 65, "velocity": 114, "duration": 480}, {"note": 58, "velocity": 109, "duration": 720}, {"note": 62, "velocity": 108, "duration": 239}, {"note": 62, "velocity": 108, "duration": 239}, {"note": 62, "velocity": 114, "duration": 239}, {"note": 62, "velocity": 100, "duration": 240}, {"note": 63, "velocity": 109, "duration": 960}, {"note": 62, "velocity": 102, "duration": 240}, {"note": 63, "velocity": 105, "duration": 240}, {"note": 62, "velocity": 108, "duration": 240}, {"note": 60, "velocity": 117, "duration": 2160}, {"note": 67, "velocity": 102, "duration": 239}, {"note": 67, "velocity": 100, "duration": 239}, {"note": 67, "velocity": 97, "duration": 239}, {"note": 67, "velocity": 97, "duration": 239}, {"note": 67, "velocity": 102, "duration": 239}, {"note": 67, "velocity": 102, "duration": 239}, {"note": 67, "velocity": 105, "duration": 239}, {"note": 67, "velocity": 102, "duration": 239}, {"note": 67, "velocity": 102, "duration": 239}, {"note": 67, "velocity": 102, "duration": 239}, {"note": 67, "velocity": 111, "duration": 240}, {"note": 65, "velocity": 111, "duration": 239}, {"note": 65, "velocity": 111, "duration": 960}, {"note": 67, "velocity": 97, "duration": 239}, {"note": 67, "velocity": 97, "duration": 239}, {"note": 67, "velocity": 105, "duration": 239}, {"note": 67, "velocity": 111, "duration": 239}, {"note": 67, "velocity": 105, "duration": 239}, {"note": 67, "velocity": 102, "duration": 239}, {"note": 67, "velocity": 102, "duration": 239}, {"note": 67, "velocity": 97, "duration": 240}, {"note": 70, "velocity": 109, "duration": 359}, {"note": 70, "velocity": 99, "duration": 120}, {"note": 68, "velocity": 105, "duration": 240}, {"note": 67, "velocity": 108, "duration": 240}, {"note": 65, "velocity": 114, "duration": 960}, {"note": 67, "velocity": 58, "duration": 239}, {"note": 67, "velocity": 105, "duration": 239}, {"note": 67, "velocity": 97, "duration": 239}, {"note": 67, "velocity": 105, "duration": 239}, {"note": 67, "velocity": 108, "duration": 239}, {"note": 67, "velocity": 105, "duration": 239}, {"note": 67, "velocity": 111, "duration": 239}, {"note": 67, "velocity": 102, "duration": 239}, {"note": 67, "velocity": 114, "duration": 239}, {"note": 67, "velocity": 105, "duration": 239}, {"note": 67, "velocity": 111, "duration": 240}, {"note": 65, "velocity": 108, "duration": 240}, {"note": 67, "velocity": 114, "duration": 240}, {"note": 65, "velocity": 78, "duration": 480}, {"note": 60, "velocity": 100, "duration": 240}, {"note": 63, "velocity": 112, "duration": 240}, {"note": 60, "velocity": 108, "duration": 240}, {"note": 63, "velocity": 109, "duration": 240}, {"note": 60, "velocity": 108, "duration": 240}, {"note": 63, "velocity": 112, "duration": 479}, {"note": 63, "velocity": 112, "duration": 239}, {"note": 63, "velocity": 105, "duration": 239}, {"note": 63, "velocity": 112, "duration": 239}, {"note": 63, "velocity": 105, "duration": 239}, {"note": 63, "velocity": 109, "duration": 240}, {"note": 67, "velocity": 102, "duration": 240}, {"note": 65, "velocity": 105, "duration": 3840}, {"note": 67, "velocity": 100, "duration": 240}, {"note": 65, "velocity": 102, "duration": 240}, {"note": 63, "velocity": 109, "duration": 240}, {"note": 62, "velocity": 94, "duration": 240}, {"note": 63, "velocity": 112, "duration": 480}, {"note": 60, "velocity": 82, "duration": 240}, {"note": 63, "velocity": 109, "duration": 239}, {"note": 63, "velocity": 112, "duration": 239}, {"note": 63, "velocity": 109, "duration": 240}, {"note": 65, "velocity": 97, "duration": 239}, {"note": 65, "velocity": 111, "duration": 480}, {"note": 58, "velocity": 112, "duration": 720}, {"note": 67, "velocity": 108, "duration": 240}, {"note": 65, "velocity": 105, "duration": 240}, {"note": 63, "velocity": 96, "duration": 240}, {"note": 62, "velocity": 102, "duration": 240}, {"note": 63, "velocity": 109, "duration": 480}, {"note": 60, "velocity": 111, "duration": 240}, {"note": 63, "velocity": 109, "duration": 239}, {"note": 63, "velocity": 102, "duration": 239}, {"note": 63, "velocity": 102, "duration": 240}, {"note": 65, "velocity": 108, "duration": 239}, {"note": 65, "velocity": 111, "duration": 1200}, {"note": 67, "velocity": 108, "duration": 240}, {"note": 65, "velocity": 105, "duration": 240}, {"note": 63, "velocity": 112, "duration": 240}, {"note": 62, "velocity": 100, "duration": 240}, {"note": 63, "velocity": 109, "duration": 480}, {"note": 60, "velocity": 108, "duration": 240}, {"note": 63, "velocity": 109, "duration": 239}, {"note": 63, "velocity": 109, "duration": 239}, {"note": 63, "velocity": 105, "duration": 240}, {"note": 65, "velocity": 105, "duration": 239}, {"note": 65, "velocity": 114, "duration": 480}, {"note": 58, "velocity": 109, "duration": 720}, {"note": 62, "velocity": 108, "duration": 239}, {"note": 62, "velocity": 108, "duration": 239}, {"note": 62, "velocity": 114, "duration": 480}, {"note": 63, "velocity": 109, "duration": 960}, {"note": 62, "velocity": 102, "duration": 240}, {"note": 63, "velocity": 105, "duration": 240}, {"note": 62, "velocity": 108, "duration": 240}, {"note": 60, "velocity": 117, "duration": 1200}, {"note": 67, "velocity": 100, "duration": 240}, {"note": 65, "velocity": 102, "duration": 240}, {"note": 63, "velocity": 109, "duration": 240}, {"note": 62, "velocity": 94, "duration": 240}, {"note": 63, "velocity": 112, "duration": 480}, {"note": 60, "velocity": 82, "duration": 240}, {"note": 63, "velocity": 109, "duration": 239}, {"note": 63, "velocity": 112, "duration": 239}, {"note": 63, "velocity": 109, "duration": 240}, {"note": 65, "velocity": 97, "duration": 239}, {"note": 65, "velocity": 111, "duration": 480}, {"note": 58, "velocity": 112, "duration": 720}, {"note": 67, "velocity": 108, "duration": 240}, {"note": 65, "velocity": 105, "duration": 240}, {"note": 63, "velocity": 96, "duration": 240}, {"note": 62, "velocity": 102, "duration": 240}, {"note": 63, "velocity": 109, "duration": 480}, {"note": 60, "velocity": 111, "duration": 240}, {"note": 63, "velocity": 109, "duration": 239}, {"note": 63, "velocity": 102, "duration": 239}, {"note": 63, "velocity": 102, "duration": 240}, {"note": 65, "velocity": 108, "duration": 239}, {"note": 65, "velocity": 111, "duration": 1200}, {"note": 67, "velocity": 108, "duration": 240}, {"note": 65, "velocity": 105, "duration": 240}, {"note": 63, "velocity": 112, "duration": 240}, {"note": 62, "velocity": 100, "duration": 240}, {"note": 63, "velocity": 109, "duration": 480}, {"note": 60, "velocity": 108, "duration": 240}, {"note": 63, "velocity": 109, "duration": 239}, {"note": 63, "velocity": 109, "duration": 239}, {"note": 63, "velocity": 105, "duration": 240}, {"note": 65, "velocity": 105, "duration": 239}, {"note": 65, "velocity": 114, "duration": 480}, {"note": 58, "velocity": 109, "duration": 720}, {"note": 62, "velocity": 108, "duration": 239}, {"note": 62, "velocity": 108, "duration": 239}, {"note": 62, "velocity": 114, "duration": 239}, {"note": 62, "velocity": 100, "duration": 240}, {"note": 63, "velocity": 109, "duration": 960}, {"note": 62, "velocity": 102, "duration": 240}, {"note": 63, "velocity": 105, "duration": 240}, {"note": 62, "velocity": 108, "duration": 240}, {"note": 60, "velocity": 117, "duration": 1263}, {"note": 0, "velocity": 0, "duration": 19137}, {"note": 67, "velocity": 100, "duration": 240}, {"note": 65, "velocity": 102, "duration": 240}, {"note": 63, "velocity": 109, "duration": 240}, {"note": 62, "velocity": 94, "duration": 240}, {"note": 63, "velocity": 112, "duration": 480}, {"note": 60, "velocity": 82, "duration": 240}, {"note": 63, "velocity": 109, "duration": 239}, {"note": 63, "velocity": 112, "duration": 239}, {"note": 63, "velocity": 109, "duration": 240}, {"note": 65, "velocity": 97, "duration": 239}, {"note": 65, "velocity": 111, "duration": 480}, {"note": 58, "velocity": 112, "duration": 720}, {"note": 67, "velocity": 108, "duration": 240}, {"note": 65, "velocity": 105, "duration": 240}, {"note": 63, "velocity": 96, "duration": 240}, {"note": 62, "velocity": 102, "duration": 240}, {"note": 63, "velocity": 109, "duration": 480}, {"note": 60, "velocity": 111, "duration": 240}, {"note": 63, "velocity": 109, "duration": 239}, {"note": 63, "velocity": 102, "duration": 239}, {"note": 63, "velocity": 102, "duration": 240}, {"note": 65, "velocity": 108, "duration": 239}, {"note": 65, "velocity": 111, "duration": 1200}, {"note": 67, "velocity": 108, "duration": 240}, {"note": 65, "velocity": 105, "duration": 240}, {"note": 63, "velocity": 112, "duration": 240}, {"note": 62, "velocity": 100, "duration": 240}, {"note": 63, "velocity": 109, "duration": 480}, {"note": 60, "velocity": 108, "duration": 240}, {"note": 63, "velocity": 109, "duration": 239}, {"note": 63, "velocity": 109, "duration": 239}, {"note": 63, "velocity": 105, "duration": 240}, {"note": 65, "velocity": 105, "duration": 239}, {"note": 65, "velocity": 114, "duration": 480}, {"note": 58, "velocity": 109, "duration": 720}, {"note": 62, "velocity": 108, "duration": 239}, {"note": 62, "velocity": 108, "duration": 239}, {"note": 62, "velocity": 114, "duration": 480}, {"note": 63, "velocity": 109, "duration": 960}, {"note": 62, "velocity": 102, "duration": 240}, {"note": 63, "velocity": 105, "duration": 240}, {"note": 62, "velocity": 108, "duration": 240}, {"note": 60, "velocity": 117, "duration": 1200}, {"note": 67, "velocity": 100, "duration": 240}, {"note": 65, "velocity": 102, "duration": 240}, {"note": 63, "velocity": 109, "duration": 240}, {"note": 62, "velocity": 94, "duration": 240}, {"note": 63, "velocity": 112, "duration": 480}, {"note": 60, "velocity": 82, "duration": 240}, {"note": 63, "velocity": 109, "duration": 239}, {"note": 63, "velocity": 112, "duration": 239}, {"note": 63, "velocity": 109, "duration": 240}, {"note": 65, "velocity": 97, "duration": 239}, {"note": 65, "velocity": 111, "duration": 480}, {"note": 58, "velocity": 112, "duration": 720}, {"note": 67, "velocity": 108, "duration": 240}, {"note": 65, "velocity": 105, "duration": 240}, {"note": 63, "velocity": 96, "duration": 240}, {"note": 62, "velocity": 102, "duration": 240}, {"note": 63, "velocity": 109, "duration": 480}, {"note": 60, "velocity": 111, "duration": 240}, {"note": 63, "velocity": 109, "duration": 239}, {"note": 63, "velocity": 102, "duration": 239}, {"note": 63, "velocity": 102, "duration": 240}, {"note": 65, "velocity": 108, "duration": 239}, {"note": 65, "velocity": 111, "duration": 1200}, {"note": 67, "velocity": 108, "duration": 240}, {"note": 65, "velocity": 105, "duration": 240}, {"note": 63, "velocity": 112, "duration": 240}, {"note": 62, "velocity": 100, "duration": 240}, {"note": 63, "velocity": 109, "duration": 480}, {"note": 60, "velocity": 108, "duration": 240}, {"note": 63, "velocity": 109, "duration": 239}, {"note": 63, "velocity": 109, "duration": 239}, {"note": 63, "velocity": 105, "duration": 240}, {"note": 65, "velocity": 105, "duration": 239}, {"note": 65, "velocity": 114, "duration": 480}, {"note": 58, "velocity": 109, "duration": 720}, {"note": 62, "velocity": 108, "duration": 239}, {"note": 62, "velocity": 108, "duration": 239}, {"note": 62, "velocity": 114, "duration": 239}, {"note": 62, "velocity": 100, "duration": 240}, {"note": 63, "velocity": 109, "duration": 960}, {"note": 62, "velocity": 102, "duration": 240}, {"note": 63, "velocity": 105, "duration": 240}, {"note": 62, "velocity": 108, "duration": 240}, {"note": 60, "velocity": 117, "duration": 2160}, {"note": 63, "velocity": 109, "duration": 960}, {"note": 62, "velocity": 102, "duration": 240}, {"note": 63, "velocity": 105, "duration": 240}, {"note": 62, "velocity": 108, "duration": 240}, {"note": 60, "velocity": 117, "duration": 2160}, {"note": 63, "velocity": 109, "duration": 960}, {"note": 62, "velocity": 102, "duration": 240}, {"note": 63, "velocity": 105, "duration": 240}, {"note": 62, "velocity": 108, "duration": 240}, {"note": 60, "velocity": 117, "duration": 1263}]]