[[{"note": 66, "velocity": 106, "duration": 155}, {"note": 0, "velocity": 0, "duration": 85}, {"note": 69, "velocity": 112, "duration": 127}, {"note": 0, "velocity": 0, "duration": 113}, {"note": 71, "velocity": 109, "duration": 129}, {"note": 0, "velocity": 0, "duration": 111}, {"note": 74, "velocity": 101, "duration": 167}, {"note": 0, "velocity": 0, "duration": 73}, {"note": 73, "velocity": 112, "duration": 345}, {"note": 0, "velocity": 0, "duration": 135}, {"note": 71, "velocity": 106, "duration": 102}, {"note": 0, "velocity": 0, "duration": 138}, {"note": 69, "velocity": 106, "duration": 103}, {"note": 0, "velocity": 0, "duration": 137}, {"note": 71, "velocity": 109, "duration": 934}, {"note": 0, "velocity": 0, "duration": 986}, {"note": 71, "velocity": 115, "duration": 98}, {"note": 0, "velocity": 0, "duration": 142}, {"note": 71, "velocity": 109, "duration": 96}, {"note": 0, "velocity": 0, "duration": 144}, {"note": 71, "velocity": 112, "duration": 121}, {"note": 0, "velocity": 0, "duration": 119}, {"note": 74, "velocity": 109, "duration": 160}, {"note": 0, "velocity": 0, "duration": 80}, {"note": 71, "velocity": 115, "duration": 290}, {"note": 0, "velocity": 0, "duration": 190}, {"note": 69, "velocity": 112, "duration": 366}, {"note": 0, "velocity": 0, "duration": 114}, {"note": 66, "velocity": 112, "duration": 1143}, {"note": 0, "velocity": 0, "duration": 777}, {"note": 66, "velocity": 106, "duration": 148}, {"note": 0, "velocity": 0, "duration": 92}, {"note": 71, "velocity": 109, "duration": 101}, {"note": 0, "velocity": 0, "duration": 139}, {"note": 71, "velocity": 106, "duration": 130}, {"note": 0, "velocity": 0, "duration": 110}, {"note": 69, "velocity": 109, "duration": 115}, {"note": 0, "velocity": 0, "duration": 125}, {"note": 69, "velocity": 112, "duration": 236}, {"note": 0, "velocity": 0, "duration": 244}, {"note": 66, "velocity": 115, "duration": 305}, {"note": 0, "velocity": 0, "duration": 175}, {"note": 64, "velocity": 112, "duration": 607}, {"note": 0, "velocity": 0, "duration": 1313}, {"note": 64, "velocity": 115, "duration": 96}, {"note": 0, "velocity": 0, "duration": 144}, {"note": 64, "velocity": 109, "duration": 103}, {"note": 0, "velocity": 0, "duration": 137}, {"note": 64, "velocity": 115, "duration": 110}, {"note": 0, "velocity": 0, "duration": 130}, {"note": 62, "velocity": 109, "duration": 111}, {"note": 0, "velocity": 0, "duration": 129}, {"note": 64, "velocity": 115, "duration": 317}, {"note": 0, "velocity": 0, "duration": 163}, {"note": 67, "velocity": 115, "duration": 325}, {"note": 0, "velocity": 0, "duration": 155}, {"note": 66, "velocity": 106, "duration": 702}, {"note": 0, "velocity": 0, "duration": 1218}, {"note": 66, "velocity": 106, "duration": 155}, {"note": 0, "velocity": 0, "duration": 85}, {"note": 69, "velocity": 112, "duration": 127}, {"note": 0, "velocity": 0, "duration": 113}, {"note": 71, "velocity": 109, "duration": 129}, {"note": 0, "velocity": 0, "duration": 111}, {"note": 74, "velocity": 101, "duration": 167}, {"note": 0, "velocity": 0, "duration": 73}, {"note": 73, "velocity": 112, "duration": 345}, {"note": 0, "velocity": 0, "duration": 135}, {"note": 71, "velocity": 106, "duration": 102}, {"note": 0, "velocity": 0, "duration": 138}, {"note": 69, "velocity": 106, "duration": 103}, {"note": 0, "velocity": 0, "duration": 137}, {"note": 71, "velocity": 109, "duration": 934}, {"note": 0, "velocity": 0, "duration": 986}, {"note": 71, "velocity": 115, "duration": 98}, {"note": 0, "velocity": 0, "duration": 142}, {"note": 71, "velocity": 109, "duration": 96}, {"note": 0, "velocity": 0, "duration": 144}, {"note": 71, "velocity": 112, "duration": 121}, {"note": 0, "velocity": 0, "duration": 119}, {"note": 74, "velocity": 109, "duration": 160}, {"note": 0, "velocity": 0, "duration": 80}, {"note": 71, "velocity": 115, "duration": 290}, {"note": 0, "velocity": 0, "duration": 190}, {"note": 69, "velocity": 112, "duration": 366}, {"note": 0, "velocity": 0, "duration": 114}, {"note": 66, "velocity": 112, "duration": 1143}, {"note": 0, "velocity": 0, "duration": 777}, {"note": 66, "velocity": 106, "duration": 148}, {"note": 0, "velocity": 0, "duration": 92}, {"note": 71, "velocity": 109, "duration": 101}, {"note": 0, "velocity": 0, "duration": 139}, {"note": 71, "velocity": 106, "duration": 130}, {"note": 0, "velocity": 0, "duration": 110}, {"note": 69, "velocity": 109, "duration": 115}, {"note": 0, "velocity": 0, "duration": 125}, {"note": 69, "velocity": 112, "duration": 236}, {"note": 0, "velocity": 0, "duration": 244}, {"note": 66, "velocity": 115, "duration": 305}, {"note": 0, "velocity": 0, "duration": 175}, {"note": 64, "velocity": 112, "duration": 607}, {"note": 0, "velocity": 0, "duration": 1073}, {"note": 66, "velocity": 109, "duration": 140}, {"note": 0, "velocity": 0, "duration": 100}, {"note": 69, "velocity": 109, "duration": 116}, {"note": 0, "velocity": 0, "duration": 124}, {"note": 69, "velocity": 109, "duration": 115}, {"note": 0, "velocity": 0, "duration": 125}, {"note": 69, "velocity": 109, "duration": 133}, {"note": 0, "velocity": 0, "duration": 107}, {"note": 71, "velocity": 109, "duration": 112}, {"note": 0, "velocity": 0, "duration": 128}, {"note": 74, "velocity": 104, "duration": 299}, {"note": 0, "velocity": 0, "duration": 181}, {"note": 73, "velocity": 112, "duration": 301}, {"note": 0, "velocity": 0, "duration": 179}, {"note": 71, "velocity": 112, "duration": 1686}, {"note": 0, "velocity": 0, "duration": 2154}, {"note": 71, "velocity": 112, "duration": 145}, {"note": 0, "velocity": 0, "duration": 95}, {"note": 78, "velocity": 80, "duration": 289}, {"note": 0, "velocity": 0, "duration": 191}, {"note": 78, "velocity": 109, "duration": 127}, {"note": 0, "velocity": 0, "duration": 113}, {"note": 78, "velocity": 104, "duration": 308}, {"note": 0, "velocity": 0, "duration": 172}, {"note": 76, "velocity": 106, "duration": 306}, {"note": 0, "velocity": 0, "duration": 174}, {"note": 76, "velocity": 115, "duration": 1654}, {"note": 0, "velocity": 0, "duration": 266}, {"note": 76, "velocity": 115, "duration": 109}, {"note": 0, "velocity": 0, "duration": 131}, {"note": 76, "velocity": 112, "duration": 356}, {"note": 0, "velocity": 0, "duration": 124}, {"note": 78, "velocity": 106, "duration": 133}, {"note": 0, "velocity": 0, "duration": 107}, {"note": 76, "velocity": 115, "duration": 273}, {"note": 0, "velocity": 0, "duration": 207}, {"note": 74, "velocity": 112, "duration": 327}, {"note": 0, "velocity": 0, "duration": 153}, {"note": 71, "velocity": 115, "duration": 1521}, {"note": 0, "velocity": 0, "duration": 399}, {"note": 71, "velocity": 115, "duration": 325}, {"note": 0, "velocity": 0, "duration": 155}, {"note": 78, "velocity": 109, "duration": 371}, {"note": 0, "velocity": 0, "duration": 109}, {"note": 76, "velocity": 115, "duration": 315}, {"note": 0, "velocity": 0, "duration": 165}, {"note": 74, "velocity": 115, "duration": 238}, {"note": 74, "velocity": 115, "duration": 238}, {"note": 71, "velocity": 115, "duration": 127}, {"note": 0, "velocity": 0, "duration": 113}, {"note": 69, "velocity": 115, "duration": 143}, {"note": 0, "velocity": 0, "duration": 97}, {"note": 66, "velocity": 112, "duration": 892}, {"note": 0, "velocity": 0, "duration": 548}, {"note": 74, "velocity": 115, "duration": 101}, {"note": 0, "velocity": 0, "duration": 139}, {"note": 74, "velocity": 112, "duration": 100}, {"note": 0, "velocity": 0, "duration": 140}, {"note": 74, "velocity": 112, "duration": 103}, {"note": 0, "velocity": 0, "duration": 137}, {"note": 71, "velocity": 112, "duration": 113}, {"note": 0, "velocity": 0, "duration": 127}, {"note": 74, "velocity": 112, "duration": 315}, {"note": 0, "velocity": 0, "duration": 165}, {"note": 78, "velocity": 109, "duration": 303}, {"note": 0, "velocity": 0, "duration": 177}, {"note": 78, "velocity": 112, "duration": 1377}, {"note": 0, "velocity": 0, "duration": 543}, {"note": 78, "velocity": 109, "duration": 109}, {"note": 0, "velocity": 0, "duration": 131}, {"note": 78, "velocity": 109, "duration": 312}, {"note": 0, "velocity": 0, "duration": 168}, {"note": 78, "velocity": 109, "duration": 114}, {"note": 0, "velocity": 0, "duration": 126}, {"note": 78, "velocity": 112, "duration": 338}, {"note": 0, "velocity": 0, "duration": 142}, {"note": 74, "velocity": 101, "duration": 382}, {"note": 0, "velocity": 0, "duration": 98}, {"note": 76, "velocity": 112, "duration": 1280}, {"note": 0, "velocity": 0, "duration": 640}, {"note": 76, "velocity": 112, "duration": 109}, {"note": 0, "velocity": 0, "duration": 131}, {"note": 76, "velocity": 112, "duration": 362}, {"note": 0, "velocity": 0, "duration": 118}, {"note": 78, "velocity": 109, "duration": 135}, {"note": 0, "velocity": 0, "duration": 105}, {"note": 76, "velocity": 118, "duration": 295}, {"note": 0, "velocity": 0, "duration": 185}, {"note": 74, "velocity": 115, "duration": 337}, {"note": 0, "velocity": 0, "duration": 143}, {"note": 71, "velocity": 115, "duration": 1471}, {"note": 0, "velocity": 0, "duration": 449}, {"note": 71, "velocity": 115, "duration": 348}, {"note": 0, "velocity": 0, "duration": 132}, {"note": 78, "velocity": 109, "duration": 332}, {"note": 0, "velocity": 0, "duration": 148}, {"note": 76, "velocity": 112, "duration": 352}, {"note": 0, "velocity": 0, "duration": 128}, {"note": 74, "velocity": 109, "duration": 111}, {"note": 0, "velocity": 0, "duration": 129}, {"note": 74, "velocity": 109, "duration": 129}, {"note": 0, "velocity": 0, "duration": 111}, {"note": 71, "velocity": 115, "duration": 121}, {"note": 0, "velocity": 0, "duration": 119}, {"note": 69, "velocity": 109, "duration": 171}, {"note": 0, "velocity": 0, "duration": 69}, {"note": 66, "velocity": 112, "duration": 933}, {"note": 0, "velocity": 0, "duration": 507}, {"note": 76, "velocity": 112, "duration": 98}, {"note": 0, "velocity": 0, "duration": 142}, {"note": 76, "velocity": 109, "duration": 103}, {"note": 0, "velocity": 0, "duration": 137}, {"note": 76, "velocity": 106, "duration": 123}, {"note": 0, "velocity": 0, "duration": 117}, {"note": 74, "velocity": 109, "duration": 96}, {"note": 0, "velocity": 0, "duration": 144}, {"note": 73, "velocity": 112, "duration": 330}, {"note": 0, "velocity": 0, "duration": 150}, {"note": 74, "velocity": 106, "duration": 130}, {"note": 0, "velocity": 0, "duration": 110}, {"note": 73, "velocity": 112, "duration": 128}, {"note": 0, "velocity": 0, "duration": 112}, {"note": 71, "velocity": 115, "duration": 1815}, {"note": 0, "velocity": 0, "duration": 345}, {"note": 71, "velocity": 112, "duration": 96}, {"note": 0, "velocity": 0, "duration": 144}, {"note": 71, "velocity": 112, "duration": 213}, {"note": 0, "velocity": 0, "duration": 507}, {"note": 71, "velocity": 112, "duration": 101}, {"note": 0, "velocity": 0, "duration": 139}, {"note": 73, "velocity": 112, "duration": 113}, {"note": 0, "velocity": 0, "duration": 127}, {"note": 74, "velocity": 112, "duration": 156}, {"note": 0, "velocity": 0, "duration": 324}, {"note": 74, "velocity": 106, "duration": 92}, {"note": 0, "velocity": 0, "duration": 148}, {"note": 74, "velocity": 106, "duration": 111}, {"note": 0, "velocity": 0, "duration": 129}, {"note": 66, "velocity": 115, "duration": 99}, {"note": 0, "velocity": 0, "duration": 141}, {"note": 66, "velocity": 112, "duration": 112}, {"note": 0, "velocity": 0, "duration": 128}, {"note": 66, "velocity": 109, "duration": 88}, {"note": 0, "velocity": 0, "duration": 152}, {"note": 66, "velocity": 112, "duration": 202}, {"note": 0, "velocity": 0, "duration": 518}, {"note": 71, "velocity": 112, "duration": 95}, {"note": 0, "velocity": 0, "duration": 145}, {"note": 71, "velocity": 112, "duration": 109}, {"note": 0, "velocity": 0, "duration": 131}, {"note": 66, "velocity": 115, "duration": 99}, {"note": 0, "velocity": 0, "duration": 141}, {"note": 71, "velocity": 115, "duration": 88}, {"note": 0, "velocity": 0, "duration": 152}, {"note": 71, "velocity": 115, "duration": 92}, {"note": 0, "velocity": 0, "duration": 148}, {"note": 73, "velocity": 109, "duration": 107}, {"note": 0, "velocity": 0, "duration": 133}, {"note": 74, "velocity": 109, "duration": 109}, {"note": 0, "velocity": 0, "duration": 131}, {"note": 73, "velocity": 109, "duration": 104}, {"note": 0, "velocity": 0, "duration": 136}, {"note": 73, "velocity": 112, "duration": 308}, {"note": 0, "velocity": 0, "duration": 172}, {"note": 71, "velocity": 112, "duration": 107}, {"note": 0, "velocity": 0, "duration": 133}, {"note": 70, "velocity": 120, "duration": 96}, {"note": 0, "velocity": 0, "duration": 144}, {"note": 71, "velocity": 104, "duration": 96}, {"note": 0, "velocity": 0, "duration": 144}, {"note": 71, "velocity": 112, "duration": 339}, {"note": 0, "velocity": 0, "duration": 381}, {"note": 71, "velocity": 112, "duration": 92}, {"note": 0, "velocity": 0, "duration": 148}, {"note": 71, "velocity": 115, "duration": 105}, {"note": 0, "velocity": 0, "duration": 135}, {"note": 66, "velocity": 115, "duration": 93}, {"note": 0, "velocity": 0, "duration": 147}, {"note": 71, "velocity": 112, "duration": 83}, {"note": 0, "velocity": 0, "duration": 157}, {"note": 71, "velocity": 109, "duration": 89}, {"note": 0, "velocity": 0, "duration": 151}, {"note": 73, "velocity": 112, "duration": 97}, {"note": 0, "velocity": 0, "duration": 143}, {"note": 74, "velocity": 109, "duration": 104}, {"note": 0, "velocity": 0, "duration": 376}, {"note": 74, "velocity": 112, "duration": 97}, {"note": 0, "velocity": 0, "duration": 143}, {"note": 74, "velocity": 109, "duration": 112}, {"note": 0, "velocity": 0, "duration": 128}, {"note": 66, "velocity": 112, "duration": 99}, {"note": 0, "velocity": 0, "duration": 141}, {"note": 66, "velocity": 109, "duration": 100}, {"note": 0, "velocity": 0, "duration": 140}, {"note": 66, "velocity": 112, "duration": 114}, {"note": 0, "velocity": 0, "duration": 126}, {"note": 66, "velocity": 112, "duration": 312}, {"note": 0, "velocity": 0, "duration": 408}, {"note": 71, "velocity": 112, "duration": 89}, {"note": 0, "velocity": 0, "duration": 151}, {"note": 71, "velocity": 109, "duration": 93}, {"note": 0, "velocity": 0, "duration": 147}, {"note": 66, "velocity": 115, "duration": 112}, {"note": 0, "velocity": 0, "duration": 128}, {"note": 71, "velocity": 115, "duration": 89}, {"note": 0, "velocity": 0, "duration": 151}, {"note": 71, "velocity": 115, "duration": 109}, {"note": 0, "velocity": 0, "duration": 131}, {"note": 73, "velocity": 109, "duration": 110}, {"note": 0, "velocity": 0, "duration": 130}, {"note": 74, "velocity": 106, "duration": 136}, {"note": 0, "velocity": 0, "duration": 104}, {"note": 73, "velocity": 112, "duration": 106}, {"note": 0, "velocity": 0, "duration": 134}, {"note": 74, "velocity": 112, "duration": 91}, {"note": 0, "velocity": 0, "duration": 149}, {"note": 73, "velocity": 120, "duration": 88}, {"note": 0, "velocity": 0, "duration": 152}, {"note": 71, "velocity": 112, "duration": 97}, {"note": 0, "velocity": 0, "duration": 143}, {"note": 70, "velocity": 112, "duration": 110}, {"note": 0, "velocity": 0, "duration": 130}, {"note": 71, "velocity": 109, "duration": 97}, {"note": 0, "velocity": 0, "duration": 143}, {"note": 71, "velocity": 109, "duration": 306}, {"note": 0, "velocity": 0, "duration": 15534}, {"note": 66, "velocity": 106, "duration": 155}, {"note": 0, "velocity": 0, "duration": 85}, {"note": 69, "velocity": 112, "duration": 127}, {"note": 0, "velocity": 0, "duration": 113}, {"note": 71, "velocity": 109, "duration": 129}, {"note": 0, "velocity": 0, "duration": 111}, {"note": 74, "velocity": 101, "duration": 167}, {"note": 0, "velocity": 0, "duration": 73}, {"note": 73, "velocity": 112, "duration": 345}, {"note": 0, "velocity": 0, "duration": 135}, {"note": 71, "velocity": 106, "duration": 102}, {"note": 0, "velocity": 0, "duration": 138}, {"note": 69, "velocity": 106, "duration": 103}, {"note": 0, "velocity": 0, "duration": 137}, {"note": 71, "velocity": 109, "duration": 934}, {"note": 0, "velocity": 0, "duration": 986}, {"note": 71, "velocity": 115, "duration": 98}, {"note": 0, "velocity": 0, "duration": 142}, {"note": 71, "velocity": 109, "duration": 96}, {"note": 0, "velocity": 0, "duration": 144}, {"note": 71, "velocity": 112, "duration": 121}, {"note": 0, "velocity": 0, "duration": 119}, {"note": 74, "velocity": 109, "duration": 160}, {"note": 0, "velocity": 0, "duration": 80}, {"note": 71, "velocity": 115, "duration": 290}, {"note": 0, "velocity": 0, "duration": 190}, {"note": 69, "velocity": 112, "duration": 366}, {"note": 0, "velocity": 0, "duration": 114}, {"note": 66, "velocity": 112, "duration": 1143}, {"note": 0, "velocity": 0, "duration": 777}, {"note": 66, "velocity": 106, "duration": 148}, {"note": 0, "velocity": 0, "duration": 92}, {"note": 71, "velocity": 109, "duration": 101}, {"note": 0, "velocity": 0, "duration": 139}, {"note": 71, "velocity": 106, "duration": 130}, {"note": 0, "velocity": 0, "duration": 110}, {"note": 69, "velocity": 109, "duration": 115}, {"note": 0, "velocity": 0, "duration": 125}, {"note": 69, "velocity": 112, "duration": 236}, {"note": 0, "velocity": 0, "duration": 244}, {"note": 66, "velocity": 115, "duration": 305}, {"note": 0, "velocity": 0, "duration": 175}, {"note": 64, "velocity": 112, "duration": 607}, {"note": 0, "velocity": 0, "duration": 1313}, {"note": 64, "velocity": 115, "duration": 96}, {"note": 0, "velocity": 0, "duration": 144}, {"note": 64, "velocity": 109, "duration": 103}, {"note": 0, "velocity": 0, "duration": 137}, {"note": 64, "velocity": 115, "duration": 110}, {"note": 0, "velocity": 0, "duration": 130}, {"note": 62, "velocity": 109, "duration": 111}, {"note": 0, "velocity": 0, "duration": 129}, {"note": 64, "velocity": 115, "duration": 317}, {"note": 0, "velocity": 0, "duration": 163}, {"note": 67, "velocity": 115, "duration": 325}, {"note": 0, "velocity": 0, "duration": 155}, {"note": 66, "velocity": 106, "duration": 702}, {"note": 0, "velocity": 0, "duration": 1218}, {"note": 66, "velocity": 106, "duration": 155}, {"note": 0, "velocity": 0, "duration": 85}, {"note": 69, "velocity": 112, "duration": 127}, {"note": 0, "velocity": 0, "duration": 113}, {"note": 71, "velocity": 109, "duration": 129}, {"note": 0, "velocity": 0, "duration": 111}, {"note": 74, "velocity": 101, "duration": 167}, {"note": 0, "velocity": 0, "duration": 73}, {"note": 73, "velocity": 112, "duration": 345}, {"note": 0, "velocity": 0, "duration": 135}, {"note": 71, "velocity": 106, "duration": 102}, {"note": 0, "velocity": 0, "duration": 138}, {"note": 69, "velocity": 106, "duration": 103}, {"note": 0, "velocity": 0, "duration": 137}, {"note": 71, "velocity": 109, "duration": 934}, {"note": 0, "velocity": 0, "duration": 986}, {"note": 71, "velocity": 115, "duration": 98}, {"note": 0, "velocity": 0, "duration": 142}, {"note": 71, "velocity": 109, "duration": 96}, {"note": 0, "velocity": 0, "duration": 144}, {"note": 71, "velocity": 112, "duration": 121}, {"note": 0, "velocity": 0, "duration": 119}, {"note": 74, "velocity": 109, "duration": 160}, {"note": 0, "velocity": 0, "duration": 80}, {"note": 71, "velocity": 115, "duration": 290}, {"note": 0, "velocity": 0, "duration": 190}, {"note": 69, "velocity": 112, "duration": 366}, {"note": 0, "velocity": 0, "duration": 114}, {"note": 66, "velocity": 112, "duration": 1143}, {"note": 0, "velocity": 0, "duration": 777}, {"note": 66, "velocity": 106, "duration": 148}, {"note": 0, "velocity": 0, "duration": 92}, {"note": 71, "velocity": 109, "duration": 101}, {"note": 0, "velocity": 0, "duration": 139}, {"note": 71, "velocity": 106, "duration": 130}, {"note": 0, "velocity": 0, "duration": 110}, {"note": 69, "velocity": 109, "duration": 115}, {"note": 0, "velocity": 0, "duration": 125}, {"note": 69, "velocity": 112, "duration": 236}, {"note": 0, "velocity": 0, "duration": 244}, {"note": 66, "velocity": 115, "duration": 305}, {"note": 0, "velocity": 0, "duration": 175}, {"note": 64, "velocity": 112, "duration": 607}, {"note": 0, "velocity": 0, "duration": 1073}, {"note": 66, "velocity": 109, "duration": 140}, {"note": 0, "velocity": 0, "duration": 100}, {"note": 69, "velocity": 109, "duration": 116}, {"note": 0, "velocity": 0, "duration": 124}, {"note": 69, "velocity": 109, "duration": 115}, {"note": 0, "velocity": 0, "duration": 125}, {"note": 69, "velocity": 109, "duration": 133}, {"note": 0, "velocity": 0, "duration": 107}, {"note": 71, "velocity": 109, "duration": 112}, {"note": 0, "velocity": 0, "duration": 128}, {"note": 74, "velocity": 104, "duration": 299}, {"note": 0, "velocity": 0, "duration": 181}, {"note": 73, "velocity": 112, "duration": 301}, {"note": 0, "velocity": 0, "duration": 179}, {"note": 71, "velocity": 112, "duration": 1686}, {"note": 0, "velocity": 0, "duration": 234}, {"note": 71, "velocity": 112, "duration": 145}, {"note": 0, "velocity": 0, "duration": 95}, {"note": 78, "velocity": 80, "duration": 289}, {"note": 0, "velocity": 0, "duration": 191}, {"note": 78, "velocity": 109, "duration": 127}, {"note": 0, "velocity": 0, "duration": 113}, {"note": 78, "velocity": 104, "duration": 308}, {"note": 0, "velocity": 0, "duration": 172}, {"note": 76, "velocity": 106, "duration": 306}, {"note": 0, "velocity": 0, "duration": 174}, {"note": 76, "velocity": 115, "duration": 1654}, {"note": 0, "velocity": 0, "duration": 266}, {"note": 76, "velocity": 115, "duration": 109}, {"note": 0, "velocity": 0, "duration": 131}, {"note": 76, "velocity": 112, "duration": 356}, {"note": 0, "velocity": 0, "duration": 124}, {"note": 78, "velocity": 106, "duration": 133}, {"note": 0, "velocity": 0, "duration": 107}, {"note": 76, "velocity": 115, "duration": 273}, {"note": 0, "velocity": 0, "duration": 207}, {"note": 74, "velocity": 112, "duration": 327}, {"note": 0, "velocity": 0, "duration": 153}, {"note": 71, "velocity": 115, "duration": 1521}, {"note": 0, "velocity": 0, "duration": 399}, {"note": 71, "velocity": 115, "duration": 325}, {"note": 0, "velocity": 0, "duration": 155}, {"note": 78, "velocity": 109, "duration": 371}, {"note": 0, "velocity": 0, "duration": 109}, {"note": 76, "velocity": 115, "duration": 315}, {"note": 0, "velocity": 0, "duration": 165}, {"note": 74, "velocity": 115, "duration": 238}, {"note": 74, "velocity": 115, "duration": 238}, {"note": 71, "velocity": 115, "duration": 127}, {"note": 0, "velocity": 0, "duration": 113}, {"note": 69, "velocity": 115, "duration": 143}, {"note": 0, "velocity": 0, "duration": 97}, {"note": 66, "velocity": 112, "duration": 892}, {"note": 0, "velocity": 0, "duration": 548}, {"note": 74, "velocity": 115, "duration": 101}, {"note": 0, "velocity": 0, "duration": 139}, {"note": 74, "velocity": 112, "duration": 100}, {"note": 0, "velocity": 0, "duration": 140}, {"note": 74, "velocity": 112, "duration": 103}, {"note": 0, "velocity": 0, "duration": 137}, {"note": 71, "velocity": 112, "duration": 113}, {"note": 0, "velocity": 0, "duration": 127}, {"note": 74, "velocity": 112, "duration": 315}, {"note": 0, "velocity": 0, "duration": 165}, {"note": 78, "velocity": 109, "duration": 303}, {"note": 0, "velocity": 0, "duration": 177}, {"note": 78, "velocity": 112, "duration": 1377}, {"note": 0, "velocity": 0, "duration": 543}, {"note": 78, "velocity": 109, "duration": 109}, {"note": 0, "velocity": 0, "duration": 131}, {"note": 78, "velocity": 109, "duration": 312}, {"note": 0, "velocity": 0, "duration": 168}, {"note": 78, "velocity": 109, "duration": 114}, {"note": 0, "velocity": 0, "duration": 126}, {"note": 78, "velocity": 112, "duration": 338}, {"note": 0, "velocity": 0, "duration": 142}, {"note": 74, "velocity": 101, "duration": 382}, {"note": 0, "velocity": 0, "duration": 98}, {"note": 76, "velocity": 112, "duration": 1280}, {"note": 0, "velocity": 0, "duration": 640}, {"note": 76, "velocity": 112, "duration": 109}, {"note": 0, "velocity": 0, "duration": 131}, {"note": 76, "velocity": 112, "duration": 362}, {"note": 0, "velocity": 0, "duration": 118}, {"note": 78, "velocity": 109, "duration": 135}, {"note": 0, "velocity": 0, "duration": 105}, {"note": 76, "velocity": 118, "duration": 295}, {"note": 0, "velocity": 0, "duration": 185}, {"note": 74, "velocity": 115, "duration": 337}, {"note": 0, "velocity": 0, "duration": 143}, {"note": 71, "velocity": 115, "duration": 1471}, {"note": 0, "velocity": 0, "duration": 449}, {"note": 71, "velocity": 115, "duration": 348}, {"note": 0, "velocity": 0, "duration": 132}, {"note": 78, "velocity": 109, "duration": 332}, {"note": 0, "velocity": 0, "duration": 148}, {"note": 76, "velocity": 112, "duration": 352}, {"note": 0, "velocity": 0, "duration": 128}, {"note": 74, "velocity": 109, "duration": 111}, {"note": 0, "velocity": 0, "duration": 129}, {"note": 74, "velocity": 109, "duration": 129}, {"note": 0, "velocity": 0, "duration": 111}, {"note": 71, "velocity": 115, "duration": 121}, {"note": 0, "velocity": 0, "duration": 119}, {"note": 69, "velocity": 109, "duration": 171}, {"note": 0, "velocity": 0, "duration": 69}, {"note": 66, "velocity": 112, "duration": 933}, {"note": 0, "velocity": 0, "duration": 507}, {"note": 76, "velocity": 112, "duration": 98}, {"note": 0, "velocity": 0, "duration": 142}, {"note": 76, "velocity": 109, "duration": 103}, {"note": 0, "velocity": 0, "duration": 137}, {"note": 76, "velocity": 106, "duration": 123}, {"note": 0, "velocity": 0, "duration": 117}, {"note": 74, "velocity": 109, "duration": 96}, {"note": 0, "velocity": 0, "duration": 144}, {"note": 73, "velocity": 112, "duration": 330}, {"note": 0, "velocity": 0, "duration": 150}, {"note": 74, "velocity": 106, "duration": 130}, {"note": 0, "velocity": 0, "duration": 110}, {"note": 73, "velocity": 112, "duration": 128}, {"note": 0, "velocity": 0, "duration": 112}, {"note": 71, "velocity": 115, "duration": 1815}, {"note": 0, "velocity": 0, "duration": 15465}, {"note": 71, "velocity": 112, "duration": 145}, {"note": 0, "velocity": 0, "duration": 95}, {"note": 78, "velocity": 80, "duration": 289}, {"note": 0, "velocity": 0, "duration": 191}, {"note": 78, "velocity": 109, "duration": 127}, {"note": 0, "velocity": 0, "duration": 113}, {"note": 78, "velocity": 104, "duration": 308}, {"note": 0, "velocity": 0, "duration": 172}, {"note": 76, "velocity": 106, "duration": 306}, {"note": 0, "velocity": 0, "duration": 174}, {"note": 76, "velocity": 115, "duration": 1654}, {"note": 0, "velocity": 0, "duration": 266}, {"note": 76, "velocity": 115, "duration": 109}, {"note": 0, "velocity": 0, "duration": 131}, {"note": 76, "velocity": 112, "duration": 356}, {"note": 0, "velocity": 0, "duration": 124}, {"note": 78, "velocity": 106, "duration": 133}, {"note": 0, "velocity": 0, "duration": 107}, {"note": 76, "velocity": 115, "duration": 273}, {"note": 0, "velocity": 0, "duration": 207}, {"note": 74, "velocity": 112, "duration": 327}, {"note": 0, "velocity": 0, "duration": 153}, {"note": 71, "velocity": 115, "duration": 1521}, {"note": 0, "velocity": 0, "duration": 399}, {"note": 71, "velocity": 115, "duration": 325}, {"note": 0, "velocity": 0, "duration": 155}, {"note": 78, "velocity": 109, "duration": 371}, {"note": 0, "velocity": 0, "duration": 109}, {"note": 76, "velocity": 115, "duration": 315}, {"note": 0, "velocity": 0, "duration": 165}, {"note": 74, "velocity": 115, "duration": 238}, {"note": 74, "velocity": 115, "duration": 238}, {"note": 71, "velocity": 115, "duration": 127}, {"note": 0, "velocity": 0, "duration": 113}, {"note": 69, "velocity": 115, "duration": 143}, {"note": 0, "velocity": 0, "duration": 97}, {"note": 66, "velocity": 112, "duration": 892}, {"note": 0, "velocity": 0, "duration": 548}, {"note": 74, "velocity": 115, "duration": 101}, {"note": 0, "velocity": 0, "duration": 139}, {"note": 74, "velocity": 112, "duration": 100}, {"note": 0, "velocity": 0, "duration": 140}, {"note": 74, "velocity": 112, "duration": 103}, {"note": 0, "velocity": 0, "duration": 137}, {"note": 71, "velocity": 112, "duration": 113}, {"note": 0, "velocity": 0, "duration": 127}, {"note": 74, "velocity": 112, "duration": 315}, {"note": 0, "velocity": 0, "duration": 165}, {"note": 78, "velocity": 109, "duration": 303}, {"note": 0, "velocity": 0, "duration": 177}, {"note": 78, "velocity": 112, "duration": 1377}, {"note": 0, "velocity": 0, "duration": 543}, {"note": 78, "velocity": 109, "duration": 109}, {"note": 0, "velocity": 0, "duration": 131}, {"note": 78, "velocity": 109, "duration": 312}, {"note": 0, "velocity": 0, "duration": 168}, {"note": 78, "velocity": 109, "duration": 114}, {"note": 0, "velocity": 0, "duration": 126}, {"note": 78, "velocity": 112, "duration": 338}, {"note": 0, "velocity": 0, "duration": 142}, {"note": 74, "velocity": 101, "duration": 382}, {"note": 0, "velocity": 0, "duration": 98}, {"note": 76, "velocity": 112, "duration": 1280}, {"note": 0, "velocity": 0, "duration": 640}, {"note": 76, "velocity": 112, "duration": 109}, {"note": 0, "velocity": 0, "duration": 131}, {"note": 76, "velocity": 112, "duration": 362}, {"note": 0, "velocity": 0, "duration": 118}, {"note": 78, "velocity": 109, "duration": 135}, {"note": 0, "velocity": 0, "duration": 105}, {"note": 76, "velocity": 118, "duration": 295}, {"note": 0, "velocity": 0, "duration": 185}, {"note": 74, "velocity": 115, "duration": 337}, {"note": 0, "velocity": 0, "duration": 143}, {"note": 71, "velocity": 115, "duration": 1471}, {"note": 0, "velocity": 0, "duration": 449}, {"note": 71, "velocity": 115, "duration": 348}, {"note": 0, "velocity": 0, "duration": 132}, {"note": 78, "velocity": 109, "duration": 332}, {"note": 0, "velocity": 0, "duration": 148}, {"note": 76, "velocity": 112, "duration": 352}, {"note": 0, "velocity": 0, "duration": 128}, {"note": 74, "velocity": 109, "duration": 111}, {"note": 0, "velocity": 0, "duration": 129}, {"note": 74, "velocity": 109, "duration": 129}, {"note": 0, "velocity": 0, "duration": 111}, {"note": 71, "velocity": 115, "duration": 121}, {"note": 0, "velocity": 0, "duration": 119}, {"note": 69, "velocity": 109, "duration": 171}, {"note": 0, "velocity": 0, "duration": 69}, {"note": 66, "velocity": 112, "duration": 933}, {"note": 0, "velocity": 0, "duration": 507}, {"note": 76, "velocity": 112, "duration": 98}, {"note": 0, "velocity": 0, "duration": 142}, {"note": 76, "velocity": 109, "duration": 103}, {"note": 0, "velocity": 0, "duration": 137}, {"note": 76, "velocity": 106, "duration": 123}, {"note": 0, "velocity": 0, "duration": 117}, {"note": 74, "velocity": 109, "duration": 96}, {"note": 0, "velocity": 0, "duration": 144}, {"note": 73, "velocity": 112, "duration": 330}, {"note": 0, "velocity": 0, "duration": 150}, {"note": 74, "velocity": 106, "duration": 130}, {"note": 0, "velocity": 0, "duration": 110}, {"note": 73, "velocity": 112, "duration": 128}, {"note": 0, "velocity": 0, "duration": 112}, {"note": 71, "velocity": 115, "duration": 1815}, {"note": 0, "velocity": 0, "duration": 105}, {"note": 71, "velocity": 115, "duration": 348}, {"note": 0, "velocity": 0, "duration": 132}, {"note": 78, "velocity": 109, "duration": 332}, {"note": 0, "velocity": 0, "duration": 148}, {"note": 76, "velocity": 112, "duration": 352}, {"note": 0, "velocity": 0, "duration": 128}, {"note": 74, "velocity": 109, "duration": 111}, {"note": 0, "velocity": 0, "duration": 129}, {"note": 74, "velocity": 109, "duration": 129}, {"note": 0, "velocity": 0, "duration": 111}, {"note": 71, "velocity": 115, "duration": 121}, {"note": 0, "velocity": 0, "duration": 119}, {"note": 69, "velocity": 109, "duration": 171}, {"note": 0, "velocity": 0, "duration": 69}, {"note": 66, "velocity": 112, "duration": 933}, {"note": 0, "velocity": 0, "duration": 525}, {"note": 76, "velocity": 115, "duration": 176}, {"note": 0, "velocity": 0, "duration": 136}, {"note": 76, "velocity": 112, "duration": 232}, {"note": 0, "velocity": 0, "duration": 207}, {"note": 76, "velocity": 115, "duration": 278}, {"note": 0, "velocity": 0, "duration": 141}, {"note": 74, "velocity": 104, "duration": 224}, {"note": 0, "velocity": 0, "duration": 176}, {"note": 73, "velocity": 112, "duration": 320}, {"note": 0, "velocity": 0, "duration": 124}, {"note": 74, "velocity": 112, "duration": 378}, {"note": 0, "velocity": 0, "duration": 139}, {"note": 73, "velocity": 118, "duration": 1577}, {"note": 71, "velocity": 112, "duration": 3419}]]