[[{"note": 67, "velocity": 110, "duration": 111}, {"note": 70, "velocity": 106, "duration": 51}, {"note": 0, "velocity": 0, "duration": 69}, {"note": 70, "velocity": 104, "duration": 65}, {"note": 70, "velocity": 104, "duration": 54}, {"note": 0, "velocity": 0, "duration": 66}, {"note": 70, "velocity": 101, "duration": 58}, {"note": 0, "velocity": 0, "duration": 62}, {"note": 67, "velocity": 104, "duration": 64}, {"note": 72, "velocity": 106, "duration": 201}, {"note": 70, "velocity": 101, "duration": 60}, {"note": 70, "velocity": 109, "duration": 171}, {"note": 0, "velocity": 0, "duration": 69}, {"note": 67, "velocity": 113, "duration": 150}, {"note": 0, "velocity": 0, "duration": 90}, {"note": 67, "velocity": 120, "duration": 77}, {"note": 65, "velocity": 109, "duration": 76}, {"note": 63, "velocity": 106, "duration": 70}, {"note": 63, "velocity": 109, "duration": 148}, {"note": 0, "velocity": 0, "duration": 92}, {"note": 63, "velocity": 112, "duration": 67}, {"note": 60, "velocity": 106, "duration": 58}, {"note": 0, "velocity": 0, "duration": 62}, {"note": 63, "velocity": 109, "duration": 53}, {"note": 0, "velocity": 0, "duration": 67}, {"note": 65, "velocity": 109, "duration": 60}, {"note": 67, "velocity": 110, "duration": 576}, {"note": 0, "velocity": 0, "duration": 624}, {"note": 67, "velocity": 113, "duration": 68}, {"note": 70, "velocity": 106, "duration": 50}, {"note": 0, "velocity": 0, "duration": 70}, {"note": 70, "velocity": 109, "duration": 130}, {"note": 0, "velocity": 0, "duration": 110}, {"note": 70, "velocity": 109, "duration": 80}, {"note": 67, "velocity": 117, "duration": 54}, {"note": 0, "velocity": 0, "duration": 66}, {"note": 72, "velocity": 104, "duration": 89}, {"note": 70, "velocity": 106, "duration": 82}, {"note": 0, "velocity": 0, "duration": 158}, {"note": 70, "velocity": 106, "duration": 151}, {"note": 0, "velocity": 0, "duration": 89}, {"note": 67, "velocity": 117, "duration": 73}, {"note": 65, "velocity": 109, "duration": 55}, {"note": 0, "velocity": 0, "duration": 65}, {"note": 63, "velocity": 109, "duration": 68}, {"note": 63, "velocity": 112, "duration": 64}, {"note": 63, "velocity": 112, "duration": 91}, {"note": 0, "velocity": 0, "duration": 149}, {"note": 63, "velocity": 106, "duration": 61}, {"note": 63, "velocity": 112, "duration": 54}, {"note": 0, "velocity": 0, "duration": 66}, {"note": 63, "velocity": 109, "duration": 64}, {"note": 63, "velocity": 109, "duration": 81}, {"note": 60, "velocity": 106, "duration": 64}, {"note": 65, "velocity": 106, "duration": 960}, {"note": 0, "velocity": 0, "duration": 240}, {"note": 65, "velocity": 106, "duration": 54}, {"note": 0, "velocity": 0, "duration": 66}, {"note": 65, "velocity": 104, "duration": 53}, {"note": 0, "velocity": 0, "duration": 67}, {"note": 65, "velocity": 104, "duration": 68}, {"note": 67, "velocity": 117, "duration": 133}, {"note": 0, "velocity": 0, "duration": 107}, {"note": 65, "velocity": 104, "duration": 68}, {"note": 63, "velocity": 112, "duration": 164}, {"note": 0, "velocity": 0, "duration": 76}, {"note": 60, "velocity": 115, "duration": 480}, {"note": 0, "velocity": 0, "duration": 120}, {"note": 60, "velocity": 109, "duration": 61}, {"note": 72, "velocity": 109, "duration": 166}, {"note": 0, "velocity": 0, "duration": 74}, {"note": 72, "velocity": 109, "duration": 647}, {"note": 0, "velocity": 0, "duration": 553}, {"note": 72, "velocity": 115, "duration": 177}, {"note": 0, "velocity": 0, "duration": 63}, {"note": 75, "velocity": 112, "duration": 152}, {"note": 0, "velocity": 0, "duration": 88}, {"note": 70, "velocity": 112, "duration": 963}, {"note": 0, "velocity": 0, "duration": 1197}, {"note": 67, "velocity": 110, "duration": 111}, {"note": 70, "velocity": 106, "duration": 51}, {"note": 0, "velocity": 0, "duration": 69}, {"note": 70, "velocity": 104, "duration": 65}, {"note": 70, "velocity": 104, "duration": 54}, {"note": 0, "velocity": 0, "duration": 66}, {"note": 70, "velocity": 101, "duration": 58}, {"note": 0, "velocity": 0, "duration": 62}, {"note": 67, "velocity": 104, "duration": 64}, {"note": 72, "velocity": 106, "duration": 201}, {"note": 70, "velocity": 101, "duration": 60}, {"note": 70, "velocity": 109, "duration": 171}, {"note": 0, "velocity": 0, "duration": 69}, {"note": 67, "velocity": 113, "duration": 150}, {"note": 0, "velocity": 0, "duration": 90}, {"note": 67, "velocity": 120, "duration": 77}, {"note": 65, "velocity": 109, "duration": 76}, {"note": 63, "velocity": 106, "duration": 70}, {"note": 63, "velocity": 109, "duration": 148}, {"note": 0, "velocity": 0, "duration": 92}, {"note": 63, "velocity": 112, "duration": 67}, {"note": 60, "velocity": 106, "duration": 58}, {"note": 0, "velocity": 0, "duration": 62}, {"note": 63, "velocity": 109, "duration": 53}, {"note": 0, "velocity": 0, "duration": 67}, {"note": 65, "velocity": 109, "duration": 60}, {"note": 67, "velocity": 110, "duration": 576}, {"note": 0, "velocity": 0, "duration": 624}, {"note": 67, "velocity": 113, "duration": 68}, {"note": 70, "velocity": 106, "duration": 50}, {"note": 0, "velocity": 0, "duration": 70}, {"note": 70, "velocity": 109, "duration": 130}, {"note": 0, "velocity": 0, "duration": 110}, {"note": 70, "velocity": 109, "duration": 80}, {"note": 67, "velocity": 117, "duration": 54}, {"note": 0, "velocity": 0, "duration": 66}, {"note": 72, "velocity": 104, "duration": 89}, {"note": 70, "velocity": 106, "duration": 82}, {"note": 0, "velocity": 0, "duration": 158}, {"note": 70, "velocity": 106, "duration": 151}, {"note": 0, "velocity": 0, "duration": 89}, {"note": 67, "velocity": 117, "duration": 73}, {"note": 65, "velocity": 109, "duration": 55}, {"note": 0, "velocity": 0, "duration": 65}, {"note": 63, "velocity": 109, "duration": 68}, {"note": 63, "velocity": 112, "duration": 64}, {"note": 63, "velocity": 112, "duration": 91}, {"note": 0, "velocity": 0, "duration": 149}, {"note": 63, "velocity": 106, "duration": 61}, {"note": 63, "velocity": 112, "duration": 54}, {"note": 0, "velocity": 0, "duration": 66}, {"note": 63, "velocity": 109, "duration": 64}, {"note": 63, "velocity": 109, "duration": 81}, {"note": 60, "velocity": 106, "duration": 64}, {"note": 65, "velocity": 106, "duration": 960}, {"note": 0, "velocity": 0, "duration": 240}, {"note": 65, "velocity": 106, "duration": 54}, {"note": 0, "velocity": 0, "duration": 66}, {"note": 65, "velocity": 104, "duration": 53}, {"note": 0, "velocity": 0, "duration": 67}, {"note": 65, "velocity": 104, "duration": 68}, {"note": 67, "velocity": 117, "duration": 133}, {"note": 0, "velocity": 0, "duration": 107}, {"note": 65, "velocity": 104, "duration": 68}, {"note": 63, "velocity": 112, "duration": 164}, {"note": 0, "velocity": 0, "duration": 76}, {"note": 60, "velocity": 115, "duration": 480}, {"note": 0, "velocity": 0, "duration": 120}, {"note": 60, "velocity": 109, "duration": 61}, {"note": 72, "velocity": 109, "duration": 166}, {"note": 0, "velocity": 0, "duration": 74}, {"note": 72, "velocity": 109, "duration": 647}, {"note": 0, "velocity": 0, "duration": 73}, {"note": 72, "velocity": 112, "duration": 177}, {"note": 0, "velocity": 0, "duration": 63}, {"note": 72, "velocity": 109, "duration": 81}, {"note": 75, "velocity": 115, "duration": 271}, {"note": 0, "velocity": 0, "duration": 89}, {"note": 72, "velocity": 115, "duration": 175}, {"note": 0, "velocity": 0, "duration": 65}, {"note": 70, "velocity": 118, "duration": 1146}, {"note": 0, "velocity": 0, "duration": 2334}, {"note": 70, "velocity": 115, "duration": 77}, {"note": 72, "velocity": 115, "duration": 52}, {"note": 0, "velocity": 0, "duration": 68}, {"note": 75, "velocity": 118, "duration": 62}, {"note": 79, "velocity": 120, "duration": 58}, {"note": 0, "velocity": 0, "duration": 62}, {"note": 79, "velocity": 113, "duration": 55}, {"note": 0, "velocity": 0, "duration": 65}, {"note": 79, "velocity": 117, "duration": 62}, {"note": 79, "velocity": 117, "duration": 65}, {"note": 79, "velocity": 120, "duration": 272}, {"note": 0, "velocity": 0, "duration": 88}, {"note": 77, "velocity": 106, "duration": 53}, {"note": 0, "velocity": 0, "duration": 67}, {"note": 77, "velocity": 115, "duration": 197}, {"note": 75, "velocity": 118, "duration": 405}, {"note": 0, "velocity": 0, "duration": 75}, {"note": 72, "velocity": 112, "duration": 65}, {"note": 75, "velocity": 115, "duration": 50}, {"note": 0, "velocity": 0, "duration": 70}, {"note": 77, "velocity": 112, "duration": 397}, {"note": 0, "velocity": 0, "duration": 83}, {"note": 77, "velocity": 115, "duration": 183}, {"note": 79, "velocity": 120, "duration": 173}, {"note": 0, "velocity": 0, "duration": 67}, {"note": 70, "velocity": 118, "duration": 513}, {"note": 0, "velocity": 0, "duration": 87}, {"note": 70, "velocity": 115, "duration": 51}, {"note": 0, "velocity": 0, "duration": 69}, {"note": 70, "velocity": 112, "duration": 64}, {"note": 72, "velocity": 112, "duration": 61}, {"note": 75, "velocity": 115, "duration": 55}, {"note": 0, "velocity": 0, "duration": 65}, {"note": 75, "velocity": 106, "duration": 58}, {"note": 0, "velocity": 0, "duration": 62}, {"note": 75, "velocity": 106, "duration": 59}, {"note": 0, "velocity": 0, "duration": 61}, {"note": 75, "velocity": 106, "duration": 56}, {"note": 0, "velocity": 0, "duration": 64}, {"note": 75, "velocity": 112, "duration": 55}, {"note": 0, "velocity": 0, "duration": 65}, {"note": 72, "velocity": 115, "duration": 133}, {"note": 0, "velocity": 0, "duration": 227}, {"note": 77, "velocity": 115, "duration": 161}, {"note": 0, "velocity": 0, "duration": 79}, {"note": 79, "velocity": 120, "duration": 65}, {"note": 77, "velocity": 112, "duration": 138}, {"note": 0, "velocity": 0, "duration": 102}, {"note": 75, "velocity": 118, "duration": 57}, {"note": 0, "velocity": 0, "duration": 63}, {"note": 70, "velocity": 112, "duration": 66}, {"note": 72, "velocity": 115, "duration": 59}, {"note": 0, "velocity": 0, "duration": 61}, {"note": 75, "velocity": 106, "duration": 156}, {"note": 0, "velocity": 0, "duration": 84}, {"note": 75, "velocity": 112, "duration": 62}, {"note": 75, "velocity": 109, "duration": 54}, {"note": 0, "velocity": 0, "duration": 66}, {"note": 75, "velocity": 112, "duration": 77}, {"note": 72, "velocity": 112, "duration": 62}, {"note": 72, "velocity": 115, "duration": 64}, {"note": 75, "velocity": 112, "duration": 59}, {"note": 0, "velocity": 0, "duration": 61}, {"note": 77, "velocity": 112, "duration": 521}, {"note": 0, "velocity": 0, "duration": 79}, {"note": 70, "velocity": 115, "duration": 77}, {"note": 72, "velocity": 115, "duration": 52}, {"note": 0, "velocity": 0, "duration": 68}, {"note": 75, "velocity": 118, "duration": 62}, {"note": 79, "velocity": 120, "duration": 58}, {"note": 0, "velocity": 0, "duration": 62}, {"note": 79, "velocity": 113, "duration": 55}, {"note": 0, "velocity": 0, "duration": 65}, {"note": 79, "velocity": 117, "duration": 62}, {"note": 79, "velocity": 117, "duration": 65}, {"note": 79, "velocity": 120, "duration": 272}, {"note": 0, "velocity": 0, "duration": 88}, {"note": 77, "velocity": 106, "duration": 53}, {"note": 0, "velocity": 0, "duration": 67}, {"note": 77, "velocity": 115, "duration": 197}, {"note": 75, "velocity": 118, "duration": 405}, {"note": 0, "velocity": 0, "duration": 75}, {"note": 72, "velocity": 112, "duration": 65}, {"note": 75, "velocity": 115, "duration": 50}, {"note": 0, "velocity": 0, "duration": 70}, {"note": 77, "velocity": 112, "duration": 397}, {"note": 0, "velocity": 0, "duration": 83}, {"note": 77, "velocity": 115, "duration": 183}, {"note": 79, "velocity": 120, "duration": 173}, {"note": 0, "velocity": 0, "duration": 67}, {"note": 70, "velocity": 118, "duration": 513}, {"note": 0, "velocity": 0, "duration": 87}, {"note": 70, "velocity": 115, "duration": 51}, {"note": 0, "velocity": 0, "duration": 69}, {"note": 70, "velocity": 112, "duration": 64}, {"note": 72, "velocity": 112, "duration": 61}, {"note": 75, "velocity": 115, "duration": 55}, {"note": 0, "velocity": 0, "duration": 65}, {"note": 75, "velocity": 106, "duration": 58}, {"note": 0, "velocity": 0, "duration": 62}, {"note": 75, "velocity": 106, "duration": 59}, {"note": 0, "velocity": 0, "duration": 61}, {"note": 75, "velocity": 106, "duration": 56}, {"note": 0, "velocity": 0, "duration": 64}, {"note": 75, "velocity": 112, "duration": 55}, {"note": 0, "velocity": 0, "duration": 65}, {"note": 72, "velocity": 115, "duration": 133}, {"note": 0, "velocity": 0, "duration": 227}, {"note": 77, "velocity": 115, "duration": 161}, {"note": 0, "velocity": 0, "duration": 79}, {"note": 79, "velocity": 120, "duration": 65}, {"note": 77, "velocity": 112, "duration": 138}, {"note": 0, "velocity": 0, "duration": 102}, {"note": 75, "velocity": 118, "duration": 57}, {"note": 0, "velocity": 0, "duration": 63}, {"note": 70, "velocity": 112, "duration": 66}, {"note": 72, "velocity": 115, "duration": 59}, {"note": 0, "velocity": 0, "duration": 61}, {"note": 75, "velocity": 106, "duration": 156}, {"note": 0, "velocity": 0, "duration": 84}, {"note": 75, "velocity": 112, "duration": 62}, {"note": 75, "velocity": 109, "duration": 54}, {"note": 0, "velocity": 0, "duration": 66}, {"note": 75, "velocity": 112, "duration": 77}, {"note": 72, "velocity": 112, "duration": 62}, {"note": 72, "velocity": 115, "duration": 64}, {"note": 75, "velocity": 112, "duration": 59}, {"note": 0, "velocity": 0, "duration": 61}, {"note": 77, "velocity": 112, "duration": 521}, {"note": 0, "velocity": 0, "duration": 199}, {"note": 74, "velocity": 120, "duration": 162}, {"note": 0, "velocity": 0, "duration": 78}, {"note": 75, "velocity": 109, "duration": 1788}, {"note": 0, "velocity": 0, "duration": 132}, {"note": 74, "velocity": 113, "duration": 1334}, {"note": 0, "velocity": 0, "duration": 8506}, {"note": 67, "velocity": 110, "duration": 111}, {"note": 70, "velocity": 106, "duration": 51}, {"note": 0, "velocity": 0, "duration": 69}, {"note": 70, "velocity": 104, "duration": 65}, {"note": 70, "velocity": 104, "duration": 54}, {"note": 0, "velocity": 0, "duration": 66}, {"note": 70, "velocity": 101, "duration": 58}, {"note": 0, "velocity": 0, "duration": 62}, {"note": 67, "velocity": 104, "duration": 64}, {"note": 72, "velocity": 106, "duration": 201}, {"note": 70, "velocity": 101, "duration": 60}, {"note": 70, "velocity": 109, "duration": 171}, {"note": 0, "velocity": 0, "duration": 69}, {"note": 67, "velocity": 113, "duration": 150}, {"note": 0, "velocity": 0, "duration": 90}, {"note": 67, "velocity": 120, "duration": 77}, {"note": 65, "velocity": 109, "duration": 76}, {"note": 63, "velocity": 106, "duration": 70}, {"note": 63, "velocity": 109, "duration": 148}, {"note": 0, "velocity": 0, "duration": 92}, {"note": 63, "velocity": 112, "duration": 67}, {"note": 60, "velocity": 106, "duration": 58}, {"note": 0, "velocity": 0, "duration": 62}, {"note": 63, "velocity": 109, "duration": 53}, {"note": 0, "velocity": 0, "duration": 67}, {"note": 65, "velocity": 109, "duration": 60}, {"note": 67, "velocity": 110, "duration": 576}, {"note": 0, "velocity": 0, "duration": 624}, {"note": 67, "velocity": 113, "duration": 68}, {"note": 70, "velocity": 106, "duration": 50}, {"note": 0, "velocity": 0, "duration": 70}, {"note": 70, "velocity": 109, "duration": 130}, {"note": 0, "velocity": 0, "duration": 110}, {"note": 70, "velocity": 109, "duration": 80}, {"note": 67, "velocity": 117, "duration": 54}, {"note": 0, "velocity": 0, "duration": 66}, {"note": 72, "velocity": 104, "duration": 89}, {"note": 70, "velocity": 106, "duration": 82}, {"note": 0, "velocity": 0, "duration": 158}, {"note": 70, "velocity": 106, "duration": 151}, {"note": 0, "velocity": 0, "duration": 89}, {"note": 67, "velocity": 117, "duration": 73}, {"note": 65, "velocity": 109, "duration": 55}, {"note": 0, "velocity": 0, "duration": 65}, {"note": 63, "velocity": 109, "duration": 68}, {"note": 63, "velocity": 112, "duration": 64}, {"note": 63, "velocity": 112, "duration": 91}, {"note": 0, "velocity": 0, "duration": 149}, {"note": 63, "velocity": 106, "duration": 61}, {"note": 63, "velocity": 112, "duration": 54}, {"note": 0, "velocity": 0, "duration": 66}, {"note": 63, "velocity": 109, "duration": 64}, {"note": 63, "velocity": 109, "duration": 81}, {"note": 60, "velocity": 106, "duration": 64}, {"note": 65, "velocity": 106, "duration": 960}, {"note": 0, "velocity": 0, "duration": 240}, {"note": 65, "velocity": 106, "duration": 54}, {"note": 0, "velocity": 0, "duration": 66}, {"note": 65, "velocity": 104, "duration": 53}, {"note": 0, "velocity": 0, "duration": 67}, {"note": 65, "velocity": 104, "duration": 68}, {"note": 67, "velocity": 117, "duration": 133}, {"note": 0, "velocity": 0, "duration": 107}, {"note": 65, "velocity": 104, "duration": 68}, {"note": 63, "velocity": 112, "duration": 164}, {"note": 0, "velocity": 0, "duration": 76}, {"note": 60, "velocity": 115, "duration": 480}, {"note": 0, "velocity": 0, "duration": 120}, {"note": 60, "velocity": 109, "duration": 61}, {"note": 72, "velocity": 109, "duration": 166}, {"note": 0, "velocity": 0, "duration": 74}, {"note": 72, "velocity": 109, "duration": 647}, {"note": 0, "velocity": 0, "duration": 73}, {"note": 72, "velocity": 112, "duration": 177}, {"note": 0, "velocity": 0, "duration": 63}, {"note": 72, "velocity": 109, "duration": 81}, {"note": 75, "velocity": 115, "duration": 271}, {"note": 0, "velocity": 0, "duration": 89}, {"note": 72, "velocity": 115, "duration": 175}, {"note": 0, "velocity": 0, "duration": 65}, {"note": 70, "velocity": 118, "duration": 1146}, {"note": 0, "velocity": 0, "duration": 2334}, {"note": 70, "velocity": 115, "duration": 77}, {"note": 72, "velocity": 115, "duration": 52}, {"note": 0, "velocity": 0, "duration": 68}, {"note": 75, "velocity": 118, "duration": 62}, {"note": 79, "velocity": 120, "duration": 58}, {"note": 0, "velocity": 0, "duration": 62}, {"note": 79, "velocity": 113, "duration": 55}, {"note": 0, "velocity": 0, "duration": 65}, {"note": 79, "velocity": 117, "duration": 62}, {"note": 79, "velocity": 117, "duration": 65}, {"note": 79, "velocity": 120, "duration": 272}, {"note": 0, "velocity": 0, "duration": 88}, {"note": 77, "velocity": 106, "duration": 53}, {"note": 0, "velocity": 0, "duration": 67}, {"note": 77, "velocity": 115, "duration": 197}, {"note": 75, "velocity": 118, "duration": 405}, {"note": 0, "velocity": 0, "duration": 75}, {"note": 72, "velocity": 112, "duration": 65}, {"note": 75, "velocity": 115, "duration": 50}, {"note": 0, "velocity": 0, "duration": 70}, {"note": 77, "velocity": 112, "duration": 397}, {"note": 0, "velocity": 0, "duration": 83}, {"note": 77, "velocity": 115, "duration": 183}, {"note": 79, "velocity": 120, "duration": 173}, {"note": 0, "velocity": 0, "duration": 67}, {"note": 70, "velocity": 118, "duration": 513}, {"note": 0, "velocity": 0, "duration": 87}, {"note": 70, "velocity": 115, "duration": 51}, {"note": 0, "velocity": 0, "duration": 69}, {"note": 70, "velocity": 112, "duration": 64}, {"note": 72, "velocity": 112, "duration": 61}, {"note": 75, "velocity": 115, "duration": 55}, {"note": 0, "velocity": 0, "duration": 65}, {"note": 75, "velocity": 106, "duration": 58}, {"note": 0, "velocity": 0, "duration": 62}, {"note": 75, "velocity": 106, "duration": 59}, {"note": 0, "velocity": 0, "duration": 61}, {"note": 75, "velocity": 106, "duration": 56}, {"note": 0, "velocity": 0, "duration": 64}, {"note": 75, "velocity": 112, "duration": 55}, {"note": 0, "velocity": 0, "duration": 65}, {"note": 72, "velocity": 115, "duration": 133}, {"note": 0, "velocity": 0, "duration": 227}, {"note": 77, "velocity": 115, "duration": 161}, {"note": 0, "velocity": 0, "duration": 79}, {"note": 79, "velocity": 120, "duration": 65}, {"note": 77, "velocity": 112, "duration": 138}, {"note": 0, "velocity": 0, "duration": 102}, {"note": 75, "velocity": 118, "duration": 57}, {"note": 0, "velocity": 0, "duration": 63}, {"note": 70, "velocity": 112, "duration": 66}, {"note": 72, "velocity": 115, "duration": 59}, {"note": 0, "velocity": 0, "duration": 61}, {"note": 75, "velocity": 106, "duration": 156}, {"note": 0, "velocity": 0, "duration": 84}, {"note": 75, "velocity": 112, "duration": 62}, {"note": 75, "velocity": 109, "duration": 54}, {"note": 0, "velocity": 0, "duration": 66}, {"note": 75, "velocity": 112, "duration": 77}, {"note": 72, "velocity": 112, "duration": 62}, {"note": 72, "velocity": 115, "duration": 64}, {"note": 75, "velocity": 112, "duration": 59}, {"note": 0, "velocity": 0, "duration": 61}, {"note": 77, "velocity": 112, "duration": 521}, {"note": 0, "velocity": 0, "duration": 79}, {"note": 70, "velocity": 115, "duration": 77}, {"note": 72, "velocity": 115, "duration": 52}, {"note": 0, "velocity": 0, "duration": 68}, {"note": 75, "velocity": 118, "duration": 62}, {"note": 79, "velocity": 120, "duration": 58}, {"note": 0, "velocity": 0, "duration": 62}, {"note": 79, "velocity": 113, "duration": 55}, {"note": 0, "velocity": 0, "duration": 65}, {"note": 79, "velocity": 117, "duration": 62}, {"note": 79, "velocity": 117, "duration": 65}, {"note": 79, "velocity": 120, "duration": 272}, {"note": 0, "velocity": 0, "duration": 88}, {"note": 77, "velocity": 106, "duration": 53}, {"note": 0, "velocity": 0, "duration": 67}, {"note": 77, "velocity": 115, "duration": 197}, {"note": 75, "velocity": 118, "duration": 405}, {"note": 0, "velocity": 0, "duration": 75}, {"note": 72, "velocity": 112, "duration": 65}, {"note": 75, "velocity": 115, "duration": 50}, {"note": 0, "velocity": 0, "duration": 70}, {"note": 77, "velocity": 112, "duration": 397}, {"note": 0, "velocity": 0, "duration": 83}, {"note": 77, "velocity": 115, "duration": 183}, {"note": 79, "velocity": 120, "duration": 173}, {"note": 0, "velocity": 0, "duration": 67}, {"note": 70, "velocity": 118, "duration": 513}, {"note": 0, "velocity": 0, "duration": 87}, {"note": 70, "velocity": 115, "duration": 51}, {"note": 0, "velocity": 0, "duration": 69}, {"note": 70, "velocity": 112, "duration": 64}, {"note": 72, "velocity": 112, "duration": 61}, {"note": 75, "velocity": 115, "duration": 55}, {"note": 0, "velocity": 0, "duration": 65}, {"note": 75, "velocity": 106, "duration": 58}, {"note": 0, "velocity": 0, "duration": 62}, {"note": 75, "velocity": 106, "duration": 59}, {"note": 0, "velocity": 0, "duration": 61}, {"note": 75, "velocity": 106, "duration": 56}, {"note": 0, "velocity": 0, "duration": 64}, {"note": 75, "velocity": 112, "duration": 55}, {"note": 0, "velocity": 0, "duration": 65}, {"note": 72, "velocity": 115, "duration": 133}, {"note": 0, "velocity": 0, "duration": 227}, {"note": 77, "velocity": 115, "duration": 161}, {"note": 0, "velocity": 0, "duration": 79}, {"note": 79, "velocity": 120, "duration": 65}, {"note": 77, "velocity": 112, "duration": 138}, {"note": 0, "velocity": 0, "duration": 102}, {"note": 75, "velocity": 118, "duration": 57}, {"note": 0, "velocity": 0, "duration": 63}, {"note": 70, "velocity": 112, "duration": 66}, {"note": 72, "velocity": 115, "duration": 59}, {"note": 0, "velocity": 0, "duration": 61}, {"note": 75, "velocity": 106, "duration": 156}, {"note": 0, "velocity": 0, "duration": 84}, {"note": 75, "velocity": 112, "duration": 62}, {"note": 75, "velocity": 109, "duration": 54}, {"note": 0, "velocity": 0, "duration": 66}, {"note": 75, "velocity": 112, "duration": 77}, {"note": 72, "velocity": 112, "duration": 62}, {"note": 72, "velocity": 115, "duration": 64}, {"note": 75, "velocity": 112, "duration": 59}, {"note": 0, "velocity": 0, "duration": 61}, {"note": 77, "velocity": 112, "duration": 521}, {"note": 0, "velocity": 0, "duration": 199}, {"note": 74, "velocity": 120, "duration": 162}, {"note": 0, "velocity": 0, "duration": 78}, {"note": 75, "velocity": 109, "duration": 1788}, {"note": 0, "velocity": 0, "duration": 132}, {"note": 82, "velocity": 113, "duration": 1334}, {"note": 0, "velocity": 0, "duration": 7906}, {"note": 70, "velocity": 115, "duration": 77}, {"note": 72, "velocity": 115, "duration": 52}, {"note": 0, "velocity": 0, "duration": 68}, {"note": 75, "velocity": 118, "duration": 62}, {"note": 79, "velocity": 120, "duration": 58}, {"note": 0, "velocity": 0, "duration": 62}, {"note": 79, "velocity": 113, "duration": 55}, {"note": 0, "velocity": 0, "duration": 65}, {"note": 79, "velocity": 117, "duration": 62}, {"note": 79, "velocity": 117, "duration": 65}, {"note": 79, "velocity": 120, "duration": 272}, {"note": 0, "velocity": 0, "duration": 88}, {"note": 77, "velocity": 106, "duration": 53}, {"note": 0, "velocity": 0, "duration": 67}, {"note": 77, "velocity": 115, "duration": 197}, {"note": 75, "velocity": 118, "duration": 405}, {"note": 0, "velocity": 0, "duration": 75}, {"note": 72, "velocity": 112, "duration": 65}, {"note": 75, "velocity": 115, "duration": 50}, {"note": 0, "velocity": 0, "duration": 70}, {"note": 77, "velocity": 112, "duration": 397}, {"note": 0, "velocity": 0, "duration": 83}, {"note": 77, "velocity": 115, "duration": 183}, {"note": 79, "velocity": 120, "duration": 173}, {"note": 0, "velocity": 0, "duration": 67}, {"note": 70, "velocity": 118, "duration": 513}, {"note": 0, "velocity": 0, "duration": 87}, {"note": 70, "velocity": 115, "duration": 51}, {"note": 0, "velocity": 0, "duration": 69}, {"note": 70, "velocity": 112, "duration": 64}, {"note": 72, "velocity": 112, "duration": 61}, {"note": 75, "velocity": 115, "duration": 55}, {"note": 0, "velocity": 0, "duration": 65}, {"note": 75, "velocity": 106, "duration": 58}, {"note": 0, "velocity": 0, "duration": 62}, {"note": 75, "velocity": 106, "duration": 59}, {"note": 0, "velocity": 0, "duration": 61}, {"note": 75, "velocity": 106, "duration": 56}, {"note": 0, "velocity": 0, "duration": 64}, {"note": 75, "velocity": 112, "duration": 55}, {"note": 0, "velocity": 0, "duration": 65}, {"note": 72, "velocity": 115, "duration": 133}, {"note": 0, "velocity": 0, "duration": 227}, {"note": 77, "velocity": 115, "duration": 161}, {"note": 0, "velocity": 0, "duration": 79}, {"note": 79, "velocity": 120, "duration": 65}, {"note": 77, "velocity": 112, "duration": 138}, {"note": 0, "velocity": 0, "duration": 102}, {"note": 75, "velocity": 118, "duration": 57}, {"note": 0, "velocity": 0, "duration": 63}, {"note": 70, "velocity": 112, "duration": 66}, {"note": 72, "velocity": 115, "duration": 59}, {"note": 0, "velocity": 0, "duration": 61}, {"note": 75, "velocity": 106, "duration": 156}, {"note": 0, "velocity": 0, "duration": 84}, {"note": 75, "velocity": 112, "duration": 62}, {"note": 75, "velocity": 109, "duration": 54}, {"note": 0, "velocity": 0, "duration": 66}, {"note": 75, "velocity": 112, "duration": 77}, {"note": 72, "velocity": 112, "duration": 62}, {"note": 72, "velocity": 115, "duration": 64}, {"note": 75, "velocity": 112, "duration": 59}, {"note": 0, "velocity": 0, "duration": 61}, {"note": 77, "velocity": 112, "duration": 521}, {"note": 0, "velocity": 0, "duration": 79}, {"note": 70, "velocity": 115, "duration": 77}, {"note": 72, "velocity": 115, "duration": 52}, {"note": 0, "velocity": 0, "duration": 68}, {"note": 75, "velocity": 118, "duration": 62}, {"note": 79, "velocity": 120, "duration": 58}, {"note": 0, "velocity": 0, "duration": 62}, {"note": 79, "velocity": 113, "duration": 55}, {"note": 0, "velocity": 0, "duration": 65}, {"note": 79, "velocity": 117, "duration": 62}, {"note": 79, "velocity": 117, "duration": 65}, {"note": 79, "velocity": 120, "duration": 272}, {"note": 0, "velocity": 0, "duration": 88}, {"note": 77, "velocity": 106, "duration": 53}, {"note": 0, "velocity": 0, "duration": 67}, {"note": 77, "velocity": 115, "duration": 197}, {"note": 75, "velocity": 118, "duration": 405}, {"note": 0, "velocity": 0, "duration": 75}, {"note": 72, "velocity": 112, "duration": 65}, {"note": 75, "velocity": 115, "duration": 50}, {"note": 0, "velocity": 0, "duration": 70}, {"note": 77, "velocity": 112, "duration": 397}, {"note": 0, "velocity": 0, "duration": 83}, {"note": 77, "velocity": 115, "duration": 183}, {"note": 79, "velocity": 120, "duration": 173}, {"note": 0, "velocity": 0, "duration": 67}, {"note": 70, "velocity": 118, "duration": 513}, {"note": 0, "velocity": 0, "duration": 87}, {"note": 70, "velocity": 115, "duration": 51}, {"note": 0, "velocity": 0, "duration": 69}, {"note": 70, "velocity": 112, "duration": 64}, {"note": 72, "velocity": 112, "duration": 61}, {"note": 75, "velocity": 115, "duration": 55}, {"note": 0, "velocity": 0, "duration": 65}, {"note": 75, "velocity": 106, "duration": 58}, {"note": 0, "velocity": 0, "duration": 62}, {"note": 75, "velocity": 106, "duration": 59}, {"note": 0, "velocity": 0, "duration": 61}, {"note": 75, "velocity": 106, "duration": 56}, {"note": 0, "velocity": 0, "duration": 64}, {"note": 75, "velocity": 112, "duration": 55}, {"note": 0, "velocity": 0, "duration": 65}, {"note": 72, "velocity": 115, "duration": 133}, {"note": 0, "velocity": 0, "duration": 227}, {"note": 77, "velocity": 115, "duration": 161}, {"note": 0, "velocity": 0, "duration": 79}, {"note": 79, "velocity": 120, "duration": 65}, {"note": 77, "velocity": 112, "duration": 138}, {"note": 0, "velocity": 0, "duration": 102}, {"note": 75, "velocity": 118, "duration": 57}, {"note": 0, "velocity": 0, "duration": 63}, {"note": 70, "velocity": 112, "duration": 66}, {"note": 72, "velocity": 115, "duration": 59}, {"note": 0, "velocity": 0, "duration": 61}, {"note": 75, "velocity": 106, "duration": 156}, {"note": 0, "velocity": 0, "duration": 84}, {"note": 75, "velocity": 112, "duration": 62}, {"note": 75, "velocity": 109, "duration": 54}, {"note": 0, "velocity": 0, "duration": 66}, {"note": 75, "velocity": 112, "duration": 77}, {"note": 72, "velocity": 112, "duration": 62}, {"note": 72, "velocity": 115, "duration": 64}, {"note": 75, "velocity": 112, "duration": 59}, {"note": 0, "velocity": 0, "duration": 61}, {"note": 77, "velocity": 112, "duration": 1920}, {"note": 0, "velocity": 0, "duration": 720}, {"note": 75, "velocity": 112, "duration": 163}, {"note": 0, "velocity": 0, "duration": 77}, {"note": 75, "velocity": 112, "duration": 1509}, {"note": 0, "velocity": 0, "duration": 483}, {"note": 72, "velocity": 89, "duration": 536}, {"note": 74, "velocity": 45, "duration": 165}, {"note": 72, "velocity": 80, "duration": 101}, {"note": 70, "velocity": 89, "duration": 1061}, {"note": 0, "velocity": 0, "duration": 91}, {"note": 72, "velocity": 89, "duration": 120}, {"note": 75, "velocity": 89, "duration": 87}, {"note": 77, "velocity": 89, "duration": 1327}, {"note": 0, "velocity": 0, "duration": 112}, {"note": 72, "velocity": 84, "duration": 151}, {"note": 75, "velocity": 94, "duration": 136}, {"note": 72, "velocity": 78, "duration": 407}, {"note": 70, "velocity": 97, "duration": 1396}]]