[[{"note": 66, "velocity": 111, "duration": 201}, {"note": 63, "velocity": 92, "duration": 266}, {"note": 0, "velocity": 0, "duration": 214}, {"note": 66, "velocity": 102, "duration": 158}, {"note": 0, "velocity": 0, "duration": 82}, {"note": 63, "velocity": 114, "duration": 292}, {"note": 0, "velocity": 0, "duration": 188}, {"note": 70, "velocity": 105, "duration": 322}, {"note": 0, "velocity": 0, "duration": 158}, {"note": 68, "velocity": 105, "duration": 702}, {"note": 0, "velocity": 0, "duration": 1218}, {"note": 68, "velocity": 97, "duration": 170}, {"note": 0, "velocity": 0, "duration": 70}, {"note": 61, "velocity": 105, "duration": 203}, {"note": 0, "velocity": 0, "duration": 277}, {"note": 68, "velocity": 97, "duration": 123}, {"note": 0, "velocity": 0, "duration": 117}, {"note": 61, "velocity": 111, "duration": 216}, {"note": 0, "velocity": 0, "duration": 264}, {"note": 71, "velocity": 102, "duration": 295}, {"note": 0, "velocity": 0, "duration": 185}, {"note": 70, "velocity": 100, "duration": 725}, {"note": 0, "velocity": 0, "duration": 1195}, {"note": 66, "velocity": 111, "duration": 201}, {"note": 63, "velocity": 92, "duration": 266}, {"note": 0, "velocity": 0, "duration": 214}, {"note": 66, "velocity": 102, "duration": 158}, {"note": 0, "velocity": 0, "duration": 82}, {"note": 63, "velocity": 114, "duration": 292}, {"note": 0, "velocity": 0, "duration": 188}, {"note": 70, "velocity": 105, "duration": 322}, {"note": 0, "velocity": 0, "duration": 158}, {"note": 68, "velocity": 105, "duration": 702}, {"note": 0, "velocity": 0, "duration": 738}, {"note": 68, "velocity": 102, "duration": 120}, {"note": 0, "velocity": 0, "duration": 120}, {"note": 66, "velocity": 94, "duration": 109}, {"note": 0, "velocity": 0, "duration": 131}, {"note": 65, "velocity": 109, "duration": 107}, {"note": 0, "velocity": 0, "duration": 133}, {"note": 65, "velocity": 99, "duration": 355}, {"note": 0, "velocity": 0, "duration": 125}, {"note": 65, "velocity": 93, "duration": 147}, {"note": 0, "velocity": 0, "duration": 93}, {"note": 66, "velocity": 97, "duration": 305}, {"note": 0, "velocity": 0, "duration": 175}, {"note": 65, "velocity": 105, "duration": 312}, {"note": 0, "velocity": 0, "duration": 168}, {"note": 63, "velocity": 105, "duration": 580}, {"note": 0, "velocity": 0, "duration": 1340}, {"note": 66, "velocity": 102, "duration": 110}, {"note": 0, "velocity": 0, "duration": 130}, {"note": 66, "velocity": 105, "duration": 104}, {"note": 0, "velocity": 0, "duration": 136}, {"note": 66, "velocity": 100, "duration": 104}, {"note": 0, "velocity": 0, "duration": 136}, {"note": 66, "velocity": 102, "duration": 107}, {"note": 0, "velocity": 0, "duration": 133}, {"note": 66, "velocity": 105, "duration": 332}, {"note": 0, "velocity": 0, "duration": 148}, {"note": 63, "velocity": 102, "duration": 361}, {"note": 0, "velocity": 0, "duration": 119}, {"note": 66, "velocity": 105, "duration": 484}, {"note": 0, "velocity": 0, "duration": 1436}, {"note": 61, "velocity": 102, "duration": 114}, {"note": 0, "velocity": 0, "duration": 126}, {"note": 61, "velocity": 89, "duration": 104}, {"note": 0, "velocity": 0, "duration": 136}, {"note": 61, "velocity": 97, "duration": 100}, {"note": 0, "velocity": 0, "duration": 140}, {"note": 61, "velocity": 94, "duration": 107}, {"note": 0, "velocity": 0, "duration": 133}, {"note": 61, "velocity": 108, "duration": 275}, {"note": 0, "velocity": 0, "duration": 205}, {"note": 63, "velocity": 105, "duration": 296}, {"note": 0, "velocity": 0, "duration": 184}, {"note": 61, "velocity": 111, "duration": 669}, {"note": 0, "velocity": 0, "duration": 1251}, {"note": 56, "velocity": 105, "duration": 105}, {"note": 0, "velocity": 0, "duration": 135}, {"note": 56, "velocity": 102, "duration": 100}, {"note": 0, "velocity": 0, "duration": 140}, {"note": 56, "velocity": 111, "duration": 107}, {"note": 0, "velocity": 0, "duration": 133}, {"note": 56, "velocity": 100, "duration": 120}, {"note": 0, "velocity": 0, "duration": 120}, {"note": 56, "velocity": 111, "duration": 313}, {"note": 0, "velocity": 0, "duration": 167}, {"note": 58, "velocity": 97, "duration": 328}, {"note": 0, "velocity": 0, "duration": 152}, {"note": 56, "velocity": 108, "duration": 474}, {"note": 0, "velocity": 0, "duration": 1446}, {"note": 56, "velocity": 114, "duration": 100}, {"note": 0, "velocity": 0, "duration": 140}, {"note": 56, "velocity": 105, "duration": 267}, {"note": 0, "velocity": 0, "duration": 213}, {"note": 56, "velocity": 111, "duration": 137}, {"note": 0, "velocity": 0, "duration": 103}, {"note": 61, "velocity": 102, "duration": 318}, {"note": 0, "velocity": 0, "duration": 162}, {"note": 59, "velocity": 105, "duration": 328}, {"note": 0, "velocity": 0, "duration": 152}, {"note": 58, "velocity": 108, "duration": 903}, {"note": 0, "velocity": 0, "duration": 777}, {"note": 58, "velocity": 114, "duration": 238}, {"note": 66, "velocity": 102, "duration": 110}, {"note": 0, "velocity": 0, "duration": 130}, {"note": 66, "velocity": 105, "duration": 104}, {"note": 0, "velocity": 0, "duration": 136}, {"note": 66, "velocity": 100, "duration": 104}, {"note": 0, "velocity": 0, "duration": 136}, {"note": 66, "velocity": 102, "duration": 107}, {"note": 0, "velocity": 0, "duration": 133}, {"note": 66, "velocity": 105, "duration": 332}, {"note": 0, "velocity": 0, "duration": 148}, {"note": 63, "velocity": 102, "duration": 361}, {"note": 0, "velocity": 0, "duration": 119}, {"note": 66, "velocity": 105, "duration": 484}, {"note": 0, "velocity": 0, "duration": 1436}, {"note": 61, "velocity": 102, "duration": 114}, {"note": 0, "velocity": 0, "duration": 126}, {"note": 61, "velocity": 89, "duration": 104}, {"note": 0, "velocity": 0, "duration": 136}, {"note": 61, "velocity": 97, "duration": 100}, {"note": 0, "velocity": 0, "duration": 140}, {"note": 61, "velocity": 94, "duration": 107}, {"note": 0, "velocity": 0, "duration": 133}, {"note": 61, "velocity": 108, "duration": 275}, {"note": 0, "velocity": 0, "duration": 205}, {"note": 63, "velocity": 105, "duration": 296}, {"note": 0, "velocity": 0, "duration": 184}, {"note": 61, "velocity": 111, "duration": 669}, {"note": 0, "velocity": 0, "duration": 1251}, {"note": 56, "velocity": 105, "duration": 105}, {"note": 0, "velocity": 0, "duration": 135}, {"note": 56, "velocity": 102, "duration": 100}, {"note": 0, "velocity": 0, "duration": 140}, {"note": 56, "velocity": 111, "duration": 107}, {"note": 0, "velocity": 0, "duration": 133}, {"note": 56, "velocity": 100, "duration": 120}, {"note": 0, "velocity": 0, "duration": 120}, {"note": 56, "velocity": 111, "duration": 313}, {"note": 0, "velocity": 0, "duration": 167}, {"note": 58, "velocity": 97, "duration": 328}, {"note": 0, "velocity": 0, "duration": 152}, {"note": 56, "velocity": 108, "duration": 474}, {"note": 0, "velocity": 0, "duration": 1446}, {"note": 58, "velocity": 111, "duration": 94}, {"note": 0, "velocity": 0, "duration": 146}, {"note": 58, "velocity": 108, "duration": 94}, {"note": 0, "velocity": 0, "duration": 146}, {"note": 58, "velocity": 111, "duration": 107}, {"note": 0, "velocity": 0, "duration": 133}, {"note": 58, "velocity": 111, "duration": 130}, {"note": 0, "velocity": 0, "duration": 110}, {"note": 66, "velocity": 105, "duration": 282}, {"note": 0, "velocity": 0, "duration": 198}, {"note": 65, "velocity": 105, "duration": 322}, {"note": 0, "velocity": 0, "duration": 158}, {"note": 63, "velocity": 105, "duration": 1997}, {"note": 0, "velocity": 0, "duration": 1843}, {"note": 63, "velocity": 111, "duration": 94}, {"note": 0, "velocity": 0, "duration": 146}, {"note": 63, "velocity": 102, "duration": 203}, {"note": 0, "velocity": 0, "duration": 277}, {"note": 63, "velocity": 105, "duration": 107}, {"note": 0, "velocity": 0, "duration": 133}, {"note": 63, "velocity": 102, "duration": 318}, {"note": 0, "velocity": 0, "duration": 162}, {"note": 70, "velocity": 102, "duration": 312}, {"note": 0, "velocity": 0, "duration": 168}, {"note": 68, "velocity": 105, "duration": 560}, {"note": 0, "velocity": 0, "duration": 1360}, {"note": 68, "velocity": 102, "duration": 104}, {"note": 0, "velocity": 0, "duration": 136}, {"note": 68, "velocity": 92, "duration": 104}, {"note": 0, "velocity": 0, "duration": 136}, {"note": 68, "velocity": 97, "duration": 110}, {"note": 0, "velocity": 0, "duration": 130}, {"note": 68, "velocity": 100, "duration": 123}, {"note": 0, "velocity": 0, "duration": 117}, {"note": 73, "velocity": 111, "duration": 305}, {"note": 0, "velocity": 0, "duration": 175}, {"note": 71, "velocity": 102, "duration": 351}, {"note": 0, "velocity": 0, "duration": 129}, {"note": 70, "velocity": 105, "duration": 796}, {"note": 0, "velocity": 0, "duration": 1124}, {"note": 63, "velocity": 94, "duration": 110}, {"note": 0, "velocity": 0, "duration": 130}, {"note": 63, "velocity": 97, "duration": 107}, {"note": 0, "velocity": 0, "duration": 133}, {"note": 63, "velocity": 100, "duration": 111}, {"note": 0, "velocity": 0, "duration": 129}, {"note": 63, "velocity": 97, "duration": 120}, {"note": 0, "velocity": 0, "duration": 120}, {"note": 63, "velocity": 97, "duration": 302}, {"note": 0, "velocity": 0, "duration": 178}, {"note": 70, "velocity": 97, "duration": 345}, {"note": 0, "velocity": 0, "duration": 135}, {"note": 68, "velocity": 100, "duration": 695}, {"note": 0, "velocity": 0, "duration": 1225}, {"note": 68, "velocity": 102, "duration": 107}, {"note": 0, "velocity": 0, "duration": 133}, {"note": 68, "velocity": 89, "duration": 100}, {"note": 0, "velocity": 0, "duration": 140}, {"note": 68, "velocity": 100, "duration": 123}, {"note": 0, "velocity": 0, "duration": 117}, {"note": 66, "velocity": 100, "duration": 117}, {"note": 0, "velocity": 0, "duration": 123}, {"note": 68, "velocity": 111, "duration": 299}, {"note": 0, "velocity": 0, "duration": 181}, {"note": 71, "velocity": 111, "duration": 342}, {"note": 0, "velocity": 0, "duration": 138}, {"note": 70, "velocity": 108, "duration": 960}, {"note": 0, "velocity": 0, "duration": 960}, {"note": 70, "velocity": 100, "duration": 150}, {"note": 0, "velocity": 0, "duration": 90}, {"note": 70, "velocity": 97, "duration": 186}, {"note": 0, "velocity": 0, "duration": 294}, {"note": 70, "velocity": 105, "duration": 124}, {"note": 0, "velocity": 0, "duration": 116}, {"note": 70, "velocity": 108, "duration": 355}, {"note": 0, "velocity": 0, "duration": 125}, {"note": 73, "velocity": 102, "duration": 375}, {"note": 0, "velocity": 0, "duration": 105}, {"note": 68, "velocity": 105, "duration": 1458}, {"note": 0, "velocity": 0, "duration": 462}, {"note": 68, "velocity": 105, "duration": 100}, {"note": 0, "velocity": 0, "duration": 140}, {"note": 68, "velocity": 100, "duration": 107}, {"note": 0, "velocity": 0, "duration": 133}, {"note": 68, "velocity": 105, "duration": 110}, {"note": 0, "velocity": 0, "duration": 130}, {"note": 68, "velocity": 105, "duration": 135}, {"note": 0, "velocity": 0, "duration": 105}, {"note": 73, "velocity": 94, "duration": 305}, {"note": 0, "velocity": 0, "duration": 175}, {"note": 68, "velocity": 111, "duration": 309}, {"note": 0, "velocity": 0, "duration": 171}, {"note": 70, "velocity": 108, "duration": 560}, {"note": 0, "velocity": 0, "duration": 1360}, {"note": 63, "velocity": 108, "duration": 107}, {"note": 0, "velocity": 0, "duration": 133}, {"note": 63, "velocity": 102, "duration": 97}, {"note": 0, "velocity": 0, "duration": 143}, {"note": 63, "velocity": 108, "duration": 104}, {"note": 0, "velocity": 0, "duration": 136}, {"note": 63, "velocity": 108, "duration": 100}, {"note": 0, "velocity": 0, "duration": 140}, {"note": 63, "velocity": 111, "duration": 302}, {"note": 0, "velocity": 0, "duration": 178}, {"note": 70, "velocity": 102, "duration": 355}, {"note": 0, "velocity": 0, "duration": 125}, {"note": 68, "velocity": 111, "duration": 583}, {"note": 0, "velocity": 0, "duration": 857}, {"note": 68, "velocity": 105, "duration": 117}, {"note": 0, "velocity": 0, "duration": 123}, {"note": 66, "velocity": 100, "duration": 117}, {"note": 0, "velocity": 0, "duration": 123}, {"note": 65, "velocity": 105, "duration": 90}, {"note": 0, "velocity": 0, "duration": 150}, {"note": 65, "velocity": 109, "duration": 566}, {"note": 0, "velocity": 0, "duration": 154}, {"note": 66, "velocity": 100, "duration": 318}, {"note": 0, "velocity": 0, "duration": 162}, {"note": 65, "velocity": 112, "duration": 325}, {"note": 0, "velocity": 0, "duration": 155}, {"note": 63, "velocity": 108, "duration": 1918}, {"note": 0, "velocity": 0, "duration": 15362}, {"note": 66, "velocity": 111, "duration": 201}, {"note": 63, "velocity": 92, "duration": 266}, {"note": 0, "velocity": 0, "duration": 214}, {"note": 66, "velocity": 102, "duration": 158}, {"note": 0, "velocity": 0, "duration": 82}, {"note": 63, "velocity": 114, "duration": 292}, {"note": 0, "velocity": 0, "duration": 188}, {"note": 70, "velocity": 105, "duration": 322}, {"note": 0, "velocity": 0, "duration": 158}, {"note": 68, "velocity": 105, "duration": 702}, {"note": 0, "velocity": 0, "duration": 1218}, {"note": 68, "velocity": 97, "duration": 170}, {"note": 0, "velocity": 0, "duration": 70}, {"note": 61, "velocity": 105, "duration": 203}, {"note": 0, "velocity": 0, "duration": 277}, {"note": 68, "velocity": 97, "duration": 123}, {"note": 0, "velocity": 0, "duration": 117}, {"note": 61, "velocity": 111, "duration": 216}, {"note": 0, "velocity": 0, "duration": 264}, {"note": 71, "velocity": 102, "duration": 295}, {"note": 0, "velocity": 0, "duration": 185}, {"note": 70, "velocity": 100, "duration": 725}, {"note": 0, "velocity": 0, "duration": 1195}, {"note": 66, "velocity": 111, "duration": 201}, {"note": 63, "velocity": 92, "duration": 266}, {"note": 0, "velocity": 0, "duration": 214}, {"note": 66, "velocity": 102, "duration": 158}, {"note": 0, "velocity": 0, "duration": 82}, {"note": 63, "velocity": 114, "duration": 292}, {"note": 0, "velocity": 0, "duration": 188}, {"note": 70, "velocity": 105, "duration": 322}, {"note": 0, "velocity": 0, "duration": 158}, {"note": 68, "velocity": 105, "duration": 702}, {"note": 0, "velocity": 0, "duration": 738}, {"note": 68, "velocity": 102, "duration": 120}, {"note": 0, "velocity": 0, "duration": 120}, {"note": 66, "velocity": 94, "duration": 109}, {"note": 0, "velocity": 0, "duration": 131}, {"note": 65, "velocity": 109, "duration": 107}, {"note": 0, "velocity": 0, "duration": 133}, {"note": 65, "velocity": 99, "duration": 355}, {"note": 0, "velocity": 0, "duration": 125}, {"note": 65, "velocity": 93, "duration": 147}, {"note": 0, "velocity": 0, "duration": 93}, {"note": 66, "velocity": 97, "duration": 305}, {"note": 0, "velocity": 0, "duration": 175}, {"note": 65, "velocity": 105, "duration": 312}, {"note": 0, "velocity": 0, "duration": 168}, {"note": 63, "velocity": 105, "duration": 580}, {"note": 0, "velocity": 0, "duration": 1340}, {"note": 66, "velocity": 102, "duration": 110}, {"note": 0, "velocity": 0, "duration": 130}, {"note": 66, "velocity": 105, "duration": 104}, {"note": 0, "velocity": 0, "duration": 136}, {"note": 66, "velocity": 100, "duration": 104}, {"note": 0, "velocity": 0, "duration": 136}, {"note": 66, "velocity": 102, "duration": 107}, {"note": 0, "velocity": 0, "duration": 133}, {"note": 66, "velocity": 105, "duration": 332}, {"note": 0, "velocity": 0, "duration": 148}, {"note": 63, "velocity": 102, "duration": 361}, {"note": 0, "velocity": 0, "duration": 119}, {"note": 66, "velocity": 105, "duration": 484}, {"note": 0, "velocity": 0, "duration": 1436}, {"note": 61, "velocity": 102, "duration": 114}, {"note": 0, "velocity": 0, "duration": 126}, {"note": 61, "velocity": 89, "duration": 104}, {"note": 0, "velocity": 0, "duration": 136}, {"note": 61, "velocity": 97, "duration": 100}, {"note": 0, "velocity": 0, "duration": 140}, {"note": 61, "velocity": 94, "duration": 107}, {"note": 0, "velocity": 0, "duration": 133}, {"note": 61, "velocity": 108, "duration": 275}, {"note": 0, "velocity": 0, "duration": 205}, {"note": 63, "velocity": 105, "duration": 296}, {"note": 0, "velocity": 0, "duration": 184}, {"note": 61, "velocity": 111, "duration": 669}, {"note": 0, "velocity": 0, "duration": 1251}, {"note": 56, "velocity": 105, "duration": 105}, {"note": 0, "velocity": 0, "duration": 135}, {"note": 56, "velocity": 102, "duration": 100}, {"note": 0, "velocity": 0, "duration": 140}, {"note": 56, "velocity": 111, "duration": 107}, {"note": 0, "velocity": 0, "duration": 133}, {"note": 56, "velocity": 100, "duration": 120}, {"note": 0, "velocity": 0, "duration": 120}, {"note": 56, "velocity": 111, "duration": 313}, {"note": 0, "velocity": 0, "duration": 167}, {"note": 58, "velocity": 97, "duration": 328}, {"note": 0, "velocity": 0, "duration": 152}, {"note": 56, "velocity": 108, "duration": 474}, {"note": 0, "velocity": 0, "duration": 1446}, {"note": 56, "velocity": 114, "duration": 100}, {"note": 0, "velocity": 0, "duration": 140}, {"note": 56, "velocity": 105, "duration": 267}, {"note": 0, "velocity": 0, "duration": 213}, {"note": 56, "velocity": 111, "duration": 137}, {"note": 0, "velocity": 0, "duration": 103}, {"note": 61, "velocity": 102, "duration": 318}, {"note": 0, "velocity": 0, "duration": 162}, {"note": 59, "velocity": 105, "duration": 328}, {"note": 0, "velocity": 0, "duration": 152}, {"note": 58, "velocity": 108, "duration": 903}, {"note": 0, "velocity": 0, "duration": 777}, {"note": 58, "velocity": 114, "duration": 238}, {"note": 66, "velocity": 102, "duration": 110}, {"note": 0, "velocity": 0, "duration": 130}, {"note": 66, "velocity": 105, "duration": 104}, {"note": 0, "velocity": 0, "duration": 136}, {"note": 66, "velocity": 100, "duration": 104}, {"note": 0, "velocity": 0, "duration": 136}, {"note": 66, "velocity": 102, "duration": 107}, {"note": 0, "velocity": 0, "duration": 133}, {"note": 66, "velocity": 105, "duration": 332}, {"note": 0, "velocity": 0, "duration": 148}, {"note": 63, "velocity": 102, "duration": 361}, {"note": 0, "velocity": 0, "duration": 119}, {"note": 66, "velocity": 105, "duration": 484}, {"note": 0, "velocity": 0, "duration": 1436}, {"note": 61, "velocity": 102, "duration": 114}, {"note": 0, "velocity": 0, "duration": 126}, {"note": 61, "velocity": 89, "duration": 104}, {"note": 0, "velocity": 0, "duration": 136}, {"note": 61, "velocity": 97, "duration": 100}, {"note": 0, "velocity": 0, "duration": 140}, {"note": 61, "velocity": 94, "duration": 107}, {"note": 0, "velocity": 0, "duration": 133}, {"note": 61, "velocity": 108, "duration": 275}, {"note": 0, "velocity": 0, "duration": 205}, {"note": 63, "velocity": 105, "duration": 296}, {"note": 0, "velocity": 0, "duration": 184}, {"note": 61, "velocity": 111, "duration": 669}, {"note": 0, "velocity": 0, "duration": 1251}, {"note": 56, "velocity": 105, "duration": 105}, {"note": 0, "velocity": 0, "duration": 135}, {"note": 56, "velocity": 102, "duration": 100}, {"note": 0, "velocity": 0, "duration": 140}, {"note": 56, "velocity": 111, "duration": 107}, {"note": 0, "velocity": 0, "duration": 133}, {"note": 56, "velocity": 100, "duration": 120}, {"note": 0, "velocity": 0, "duration": 120}, {"note": 56, "velocity": 111, "duration": 313}, {"note": 0, "velocity": 0, "duration": 167}, {"note": 58, "velocity": 97, "duration": 328}, {"note": 0, "velocity": 0, "duration": 152}, {"note": 56, "velocity": 108, "duration": 474}, {"note": 0, "velocity": 0, "duration": 1446}, {"note": 58, "velocity": 111, "duration": 94}, {"note": 0, "velocity": 0, "duration": 146}, {"note": 58, "velocity": 108, "duration": 94}, {"note": 0, "velocity": 0, "duration": 146}, {"note": 58, "velocity": 111, "duration": 107}, {"note": 0, "velocity": 0, "duration": 133}, {"note": 58, "velocity": 111, "duration": 130}, {"note": 0, "velocity": 0, "duration": 110}, {"note": 66, "velocity": 105, "duration": 282}, {"note": 0, "velocity": 0, "duration": 198}, {"note": 65, "velocity": 105, "duration": 322}, {"note": 0, "velocity": 0, "duration": 158}, {"note": 63, "velocity": 105, "duration": 1997}, {"note": 0, "velocity": 0, "duration": 1843}, {"note": 63, "velocity": 111, "duration": 94}, {"note": 0, "velocity": 0, "duration": 146}, {"note": 63, "velocity": 102, "duration": 203}, {"note": 0, "velocity": 0, "duration": 277}, {"note": 63, "velocity": 105, "duration": 107}, {"note": 0, "velocity": 0, "duration": 133}, {"note": 63, "velocity": 102, "duration": 318}, {"note": 0, "velocity": 0, "duration": 162}, {"note": 70, "velocity": 102, "duration": 312}, {"note": 0, "velocity": 0, "duration": 168}, {"note": 68, "velocity": 105, "duration": 560}, {"note": 0, "velocity": 0, "duration": 1360}, {"note": 68, "velocity": 102, "duration": 104}, {"note": 0, "velocity": 0, "duration": 136}, {"note": 68, "velocity": 92, "duration": 104}, {"note": 0, "velocity": 0, "duration": 136}, {"note": 68, "velocity": 97, "duration": 110}, {"note": 0, "velocity": 0, "duration": 130}, {"note": 68, "velocity": 100, "duration": 123}, {"note": 0, "velocity": 0, "duration": 117}, {"note": 73, "velocity": 111, "duration": 305}, {"note": 0, "velocity": 0, "duration": 175}, {"note": 71, "velocity": 102, "duration": 351}, {"note": 0, "velocity": 0, "duration": 129}, {"note": 70, "velocity": 105, "duration": 796}, {"note": 0, "velocity": 0, "duration": 1124}, {"note": 63, "velocity": 94, "duration": 110}, {"note": 0, "velocity": 0, "duration": 130}, {"note": 63, "velocity": 97, "duration": 107}, {"note": 0, "velocity": 0, "duration": 133}, {"note": 63, "velocity": 100, "duration": 111}, {"note": 0, "velocity": 0, "duration": 129}, {"note": 63, "velocity": 97, "duration": 120}, {"note": 0, "velocity": 0, "duration": 120}, {"note": 63, "velocity": 97, "duration": 302}, {"note": 0, "velocity": 0, "duration": 178}, {"note": 70, "velocity": 97, "duration": 345}, {"note": 0, "velocity": 0, "duration": 135}, {"note": 68, "velocity": 100, "duration": 695}, {"note": 0, "velocity": 0, "duration": 1225}, {"note": 68, "velocity": 102, "duration": 107}, {"note": 0, "velocity": 0, "duration": 133}, {"note": 68, "velocity": 89, "duration": 100}, {"note": 0, "velocity": 0, "duration": 140}, {"note": 68, "velocity": 100, "duration": 123}, {"note": 0, "velocity": 0, "duration": 117}, {"note": 66, "velocity": 100, "duration": 117}, {"note": 0, "velocity": 0, "duration": 123}, {"note": 68, "velocity": 111, "duration": 299}, {"note": 0, "velocity": 0, "duration": 181}, {"note": 71, "velocity": 111, "duration": 342}, {"note": 0, "velocity": 0, "duration": 138}, {"note": 70, "velocity": 108, "duration": 960}, {"note": 0, "velocity": 0, "duration": 960}, {"note": 70, "velocity": 100, "duration": 150}, {"note": 0, "velocity": 0, "duration": 90}, {"note": 70, "velocity": 97, "duration": 186}, {"note": 0, "velocity": 0, "duration": 294}, {"note": 70, "velocity": 105, "duration": 124}, {"note": 0, "velocity": 0, "duration": 116}, {"note": 70, "velocity": 108, "duration": 355}, {"note": 0, "velocity": 0, "duration": 125}, {"note": 73, "velocity": 102, "duration": 375}, {"note": 0, "velocity": 0, "duration": 105}, {"note": 68, "velocity": 105, "duration": 1458}, {"note": 0, "velocity": 0, "duration": 462}, {"note": 68, "velocity": 105, "duration": 100}, {"note": 0, "velocity": 0, "duration": 140}, {"note": 68, "velocity": 100, "duration": 107}, {"note": 0, "velocity": 0, "duration": 133}, {"note": 68, "velocity": 105, "duration": 110}, {"note": 0, "velocity": 0, "duration": 130}, {"note": 68, "velocity": 105, "duration": 135}, {"note": 0, "velocity": 0, "duration": 105}, {"note": 73, "velocity": 94, "duration": 305}, {"note": 0, "velocity": 0, "duration": 175}, {"note": 68, "velocity": 111, "duration": 309}, {"note": 0, "velocity": 0, "duration": 171}, {"note": 70, "velocity": 108, "duration": 560}, {"note": 0, "velocity": 0, "duration": 1360}, {"note": 63, "velocity": 108, "duration": 107}, {"note": 0, "velocity": 0, "duration": 133}, {"note": 63, "velocity": 102, "duration": 97}, {"note": 0, "velocity": 0, "duration": 143}, {"note": 63, "velocity": 108, "duration": 104}, {"note": 0, "velocity": 0, "duration": 136}, {"note": 63, "velocity": 108, "duration": 100}, {"note": 0, "velocity": 0, "duration": 140}, {"note": 63, "velocity": 111, "duration": 302}, {"note": 0, "velocity": 0, "duration": 178}, {"note": 70, "velocity": 102, "duration": 355}, {"note": 0, "velocity": 0, "duration": 125}, {"note": 68, "velocity": 111, "duration": 583}, {"note": 0, "velocity": 0, "duration": 857}, {"note": 68, "velocity": 105, "duration": 117}, {"note": 0, "velocity": 0, "duration": 123}, {"note": 66, "velocity": 100, "duration": 117}, {"note": 0, "velocity": 0, "duration": 123}, {"note": 65, "velocity": 105, "duration": 90}, {"note": 0, "velocity": 0, "duration": 150}, {"note": 65, "velocity": 109, "duration": 566}, {"note": 0, "velocity": 0, "duration": 154}, {"note": 66, "velocity": 100, "duration": 318}, {"note": 0, "velocity": 0, "duration": 162}, {"note": 65, "velocity": 112, "duration": 325}, {"note": 0, "velocity": 0, "duration": 155}, {"note": 63, "velocity": 108, "duration": 1918}, {"note": 63, "velocity": 111, "duration": 94}, {"note": 0, "velocity": 0, "duration": 146}, {"note": 63, "velocity": 102, "duration": 203}, {"note": 0, "velocity": 0, "duration": 277}, {"note": 63, "velocity": 105, "duration": 107}, {"note": 0, "velocity": 0, "duration": 133}, {"note": 63, "velocity": 102, "duration": 318}, {"note": 0, "velocity": 0, "duration": 162}, {"note": 70, "velocity": 102, "duration": 312}, {"note": 0, "velocity": 0, "duration": 168}, {"note": 68, "velocity": 105, "duration": 560}, {"note": 0, "velocity": 0, "duration": 1360}, {"note": 68, "velocity": 102, "duration": 104}, {"note": 0, "velocity": 0, "duration": 136}, {"note": 68, "velocity": 92, "duration": 104}, {"note": 0, "velocity": 0, "duration": 136}, {"note": 68, "velocity": 97, "duration": 110}, {"note": 0, "velocity": 0, "duration": 130}, {"note": 68, "velocity": 100, "duration": 123}, {"note": 0, "velocity": 0, "duration": 117}, {"note": 73, "velocity": 111, "duration": 305}, {"note": 0, "velocity": 0, "duration": 175}, {"note": 71, "velocity": 102, "duration": 351}, {"note": 0, "velocity": 0, "duration": 129}, {"note": 70, "velocity": 105, "duration": 796}, {"note": 0, "velocity": 0, "duration": 1124}, {"note": 63, "velocity": 94, "duration": 110}, {"note": 0, "velocity": 0, "duration": 130}, {"note": 63, "velocity": 97, "duration": 107}, {"note": 0, "velocity": 0, "duration": 133}, {"note": 63, "velocity": 100, "duration": 111}, {"note": 0, "velocity": 0, "duration": 129}, {"note": 63, "velocity": 97, "duration": 120}, {"note": 0, "velocity": 0, "duration": 120}, {"note": 63, "velocity": 97, "duration": 302}, {"note": 0, "velocity": 0, "duration": 178}, {"note": 70, "velocity": 97, "duration": 345}, {"note": 0, "velocity": 0, "duration": 135}, {"note": 68, "velocity": 100, "duration": 695}, {"note": 0, "velocity": 0, "duration": 1225}, {"note": 68, "velocity": 102, "duration": 107}, {"note": 0, "velocity": 0, "duration": 133}, {"note": 68, "velocity": 89, "duration": 100}, {"note": 0, "velocity": 0, "duration": 140}, {"note": 68, "velocity": 100, "duration": 123}, {"note": 0, "velocity": 0, "duration": 117}, {"note": 66, "velocity": 100, "duration": 117}, {"note": 0, "velocity": 0, "duration": 123}, {"note": 68, "velocity": 111, "duration": 299}, {"note": 0, "velocity": 0, "duration": 181}, {"note": 71, "velocity": 111, "duration": 342}, {"note": 0, "velocity": 0, "duration": 138}, {"note": 70, "velocity": 108, "duration": 960}, {"note": 0, "velocity": 0, "duration": 960}, {"note": 70, "velocity": 100, "duration": 150}, {"note": 0, "velocity": 0, "duration": 90}, {"note": 70, "velocity": 97, "duration": 186}, {"note": 0, "velocity": 0, "duration": 294}, {"note": 70, "velocity": 105, "duration": 124}, {"note": 0, "velocity": 0, "duration": 116}, {"note": 70, "velocity": 108, "duration": 355}, {"note": 0, "velocity": 0, "duration": 125}, {"note": 73, "velocity": 102, "duration": 375}, {"note": 0, "velocity": 0, "duration": 105}, {"note": 68, "velocity": 105, "duration": 1458}, {"note": 0, "velocity": 0, "duration": 462}, {"note": 68, "velocity": 105, "duration": 100}, {"note": 0, "velocity": 0, "duration": 140}, {"note": 68, "velocity": 100, "duration": 107}, {"note": 0, "velocity": 0, "duration": 133}, {"note": 68, "velocity": 105, "duration": 110}, {"note": 0, "velocity": 0, "duration": 130}, {"note": 68, "velocity": 105, "duration": 135}, {"note": 0, "velocity": 0, "duration": 105}, {"note": 73, "velocity": 94, "duration": 305}, {"note": 0, "velocity": 0, "duration": 175}, {"note": 68, "velocity": 111, "duration": 309}, {"note": 0, "velocity": 0, "duration": 171}, {"note": 70, "velocity": 108, "duration": 560}, {"note": 0, "velocity": 0, "duration": 1360}, {"note": 63, "velocity": 108, "duration": 107}, {"note": 0, "velocity": 0, "duration": 133}, {"note": 63, "velocity": 102, "duration": 97}, {"note": 0, "velocity": 0, "duration": 143}, {"note": 63, "velocity": 108, "duration": 104}, {"note": 0, "velocity": 0, "duration": 136}, {"note": 63, "velocity": 108, "duration": 100}, {"note": 0, "velocity": 0, "duration": 140}, {"note": 63, "velocity": 111, "duration": 302}, {"note": 0, "velocity": 0, "duration": 178}, {"note": 70, "velocity": 102, "duration": 355}, {"note": 0, "velocity": 0, "duration": 125}, {"note": 68, "velocity": 111, "duration": 583}, {"note": 0, "velocity": 0, "duration": 857}, {"note": 68, "velocity": 105, "duration": 117}, {"note": 0, "velocity": 0, "duration": 123}, {"note": 66, "velocity": 100, "duration": 117}, {"note": 0, "velocity": 0, "duration": 123}, {"note": 65, "velocity": 105, "duration": 90}, {"note": 0, "velocity": 0, "duration": 150}, {"note": 65, "velocity": 109, "duration": 566}, {"note": 0, "velocity": 0, "duration": 154}, {"note": 66, "velocity": 100, "duration": 318}, {"note": 0, "velocity": 0, "duration": 162}, {"note": 65, "velocity": 112, "duration": 325}, {"note": 0, "velocity": 0, "duration": 155}, {"note": 63, "velocity": 108, "duration": 1918}, {"note": 63, "velocity": 111, "duration": 1198}, {"note": 0, "velocity": 0, "duration": 242}, {"note": 70, "velocity": 102, "duration": 312}, {"note": 0, "velocity": 0, "duration": 168}, {"note": 68, "velocity": 105, "duration": 560}, {"note": 0, "velocity": 0, "duration": 880}, {"note": 63, "velocity": 108, "duration": 160}, {"note": 0, "velocity": 0, "duration": 80}, {"note": 66, "velocity": 97, "duration": 133}, {"note": 0, "velocity": 0, "duration": 107}, {"note": 68, "velocity": 105, "duration": 335}, {"note": 0, "velocity": 0, "duration": 145}, {"note": 68, "velocity": 108, "duration": 272}, {"note": 0, "velocity": 0, "duration": 208}, {"note": 73, "velocity": 97, "duration": 295}, {"note": 0, "velocity": 0, "duration": 185}, {"note": 68, "velocity": 105, "duration": 324}, {"note": 0, "velocity": 0, "duration": 156}, {"note": 70, "velocity": 105, "duration": 940}, {"note": 0, "velocity": 0, "duration": 980}, {"note": 63, "velocity": 117, "duration": 1234}, {"note": 0, "velocity": 0, "duration": 206}, {"note": 70, "velocity": 102, "duration": 378}, {"note": 0, "velocity": 0, "duration": 102}, {"note": 68, "velocity": 105, "duration": 1215}, {"note": 0, "velocity": 0, "duration": 225}, {"note": 68, "velocity": 102, "duration": 133}, {"note": 0, "velocity": 0, "duration": 107}, {"note": 66, "velocity": 102, "duration": 123}, {"note": 0, "velocity": 0, "duration": 117}, {"note": 65, "velocity": 109, "duration": 123}, {"note": 0, "velocity": 0, "duration": 117}, {"note": 65, "velocity": 93, "duration": 1858}, {"note": 0, "velocity": 0, "duration": 857}, {"note": 66, "velocity": 92, "duration": 600}, {"note": 0, "velocity": 0, "duration": 187}, {"note": 65, "velocity": 99, "duration": 556}, {"note": 0, "velocity": 0, "duration": 230}, {"note": 63, "velocity": 100, "duration": 3048}]]