[[{"note": 59, "velocity": 106, "duration": 187}, {"note": 62, "velocity": 109, "duration": 202}, {"note": 59, "velocity": 115, "duration": 181}, {"note": 64, "velocity": 106, "duration": 559}, {"note": 0, "velocity": 0, "duration": 161}, {"note": 71, "velocity": 112, "duration": 168}, {"note": 0, "velocity": 0, "duration": 72}, {"note": 69, "velocity": 104, "duration": 186}, {"note": 67, "velocity": 106, "duration": 154}, {"note": 0, "velocity": 0, "duration": 86}, {"note": 66, "velocity": 113, "duration": 304}, {"note": 0, "velocity": 0, "duration": 176}, {"note": 62, "velocity": 109, "duration": 150}, {"note": 0, "velocity": 0, "duration": 90}, {"note": 59, "velocity": 104, "duration": 753}, {"note": 0, "velocity": 0, "duration": 207}, {"note": 59, "velocity": 112, "duration": 171}, {"note": 0, "velocity": 0, "duration": 69}, {"note": 62, "velocity": 112, "duration": 156}, {"note": 0, "velocity": 0, "duration": 84}, {"note": 59, "velocity": 106, "duration": 149}, {"note": 0, "velocity": 0, "duration": 91}, {"note": 60, "velocity": 109, "duration": 345}, {"note": 0, "velocity": 0, "duration": 135}, {"note": 64, "velocity": 106, "duration": 153}, {"note": 0, "velocity": 0, "duration": 87}, {"note": 67, "velocity": 112, "duration": 147}, {"note": 0, "velocity": 0, "duration": 93}, {"note": 66, "velocity": 117, "duration": 168}, {"note": 0, "velocity": 0, "duration": 72}, {"note": 64, "velocity": 109, "duration": 190}, {"note": 62, "velocity": 112, "duration": 478}, {"note": 57, "velocity": 109, "duration": 232}, {"note": 59, "velocity": 99, "duration": 819}, {"note": 0, "velocity": 0, "duration": 141}, {"note": 59, "velocity": 112, "duration": 167}, {"note": 0, "velocity": 0, "duration": 73}, {"note": 62, "velocity": 109, "duration": 172}, {"note": 0, "velocity": 0, "duration": 68}, {"note": 59, "velocity": 115, "duration": 178}, {"note": 0, "velocity": 0, "duration": 62}, {"note": 64, "velocity": 112, "duration": 593}, {"note": 0, "velocity": 0, "duration": 127}, {"note": 71, "velocity": 106, "duration": 158}, {"note": 0, "velocity": 0, "duration": 82}, {"note": 69, "velocity": 109, "duration": 143}, {"note": 0, "velocity": 0, "duration": 97}, {"note": 67, "velocity": 104, "duration": 141}, {"note": 0, "velocity": 0, "duration": 99}, {"note": 66, "velocity": 113, "duration": 145}, {"note": 0, "velocity": 0, "duration": 95}, {"note": 62, "velocity": 112, "duration": 175}, {"note": 0, "velocity": 0, "duration": 65}, {"note": 71, "velocity": 94, "duration": 497}, {"note": 69, "velocity": 112, "duration": 358}, {"note": 0, "velocity": 0, "duration": 122}, {"note": 67, "velocity": 109, "duration": 361}, {"note": 0, "velocity": 0, "duration": 119}, {"note": 62, "velocity": 109, "duration": 167}, {"note": 0, "velocity": 0, "duration": 73}, {"note": 59, "velocity": 106, "duration": 176}, {"note": 0, "velocity": 0, "duration": 64}, {"note": 60, "velocity": 109, "duration": 982}, {"note": 0, "velocity": 0, "duration": 218}, {"note": 62, "velocity": 109, "duration": 142}, {"note": 0, "velocity": 0, "duration": 98}, {"note": 62, "velocity": 109, "duration": 325}, {"note": 0, "velocity": 0, "duration": 155}, {"note": 59, "velocity": 106, "duration": 158}, {"note": 0, "velocity": 0, "duration": 82}, {"note": 60, "velocity": 104, "duration": 819}, {"note": 0, "velocity": 0, "duration": 141}, {"note": 59, "velocity": 106, "duration": 187}, {"note": 62, "velocity": 109, "duration": 202}, {"note": 59, "velocity": 115, "duration": 181}, {"note": 64, "velocity": 106, "duration": 559}, {"note": 0, "velocity": 0, "duration": 161}, {"note": 71, "velocity": 112, "duration": 168}, {"note": 0, "velocity": 0, "duration": 72}, {"note": 69, "velocity": 104, "duration": 186}, {"note": 67, "velocity": 106, "duration": 154}, {"note": 0, "velocity": 0, "duration": 86}, {"note": 66, "velocity": 113, "duration": 304}, {"note": 0, "velocity": 0, "duration": 176}, {"note": 62, "velocity": 109, "duration": 150}, {"note": 0, "velocity": 0, "duration": 90}, {"note": 59, "velocity": 104, "duration": 753}, {"note": 0, "velocity": 0, "duration": 207}, {"note": 59, "velocity": 112, "duration": 171}, {"note": 0, "velocity": 0, "duration": 69}, {"note": 62, "velocity": 112, "duration": 156}, {"note": 0, "velocity": 0, "duration": 84}, {"note": 59, "velocity": 106, "duration": 149}, {"note": 0, "velocity": 0, "duration": 91}, {"note": 60, "velocity": 109, "duration": 345}, {"note": 0, "velocity": 0, "duration": 135}, {"note": 64, "velocity": 106, "duration": 153}, {"note": 0, "velocity": 0, "duration": 87}, {"note": 67, "velocity": 112, "duration": 147}, {"note": 0, "velocity": 0, "duration": 93}, {"note": 66, "velocity": 117, "duration": 168}, {"note": 0, "velocity": 0, "duration": 72}, {"note": 64, "velocity": 109, "duration": 190}, {"note": 62, "velocity": 112, "duration": 478}, {"note": 57, "velocity": 109, "duration": 232}, {"note": 59, "velocity": 99, "duration": 819}, {"note": 0, "velocity": 0, "duration": 141}, {"note": 59, "velocity": 112, "duration": 167}, {"note": 0, "velocity": 0, "duration": 73}, {"note": 62, "velocity": 109, "duration": 172}, {"note": 0, "velocity": 0, "duration": 68}, {"note": 59, "velocity": 115, "duration": 178}, {"note": 0, "velocity": 0, "duration": 62}, {"note": 64, "velocity": 112, "duration": 593}, {"note": 0, "velocity": 0, "duration": 127}, {"note": 71, "velocity": 106, "duration": 158}, {"note": 0, "velocity": 0, "duration": 82}, {"note": 69, "velocity": 109, "duration": 143}, {"note": 0, "velocity": 0, "duration": 97}, {"note": 67, "velocity": 104, "duration": 141}, {"note": 0, "velocity": 0, "duration": 99}, {"note": 66, "velocity": 113, "duration": 145}, {"note": 0, "velocity": 0, "duration": 95}, {"note": 62, "velocity": 112, "duration": 175}, {"note": 0, "velocity": 0, "duration": 65}, {"note": 71, "velocity": 94, "duration": 497}, {"note": 69, "velocity": 112, "duration": 358}, {"note": 0, "velocity": 0, "duration": 122}, {"note": 67, "velocity": 109, "duration": 361}, {"note": 0, "velocity": 0, "duration": 119}, {"note": 62, "velocity": 109, "duration": 167}, {"note": 0, "velocity": 0, "duration": 73}, {"note": 59, "velocity": 106, "duration": 176}, {"note": 0, "velocity": 0, "duration": 64}, {"note": 60, "velocity": 109, "duration": 718}, {"note": 59, "velocity": 115, "duration": 159}, {"note": 0, "velocity": 0, "duration": 81}, {"note": 69, "velocity": 109, "duration": 147}, {"note": 0, "velocity": 0, "duration": 93}, {"note": 67, "velocity": 109, "duration": 124}, {"note": 0, "velocity": 0, "duration": 116}, {"note": 66, "velocity": 120, "duration": 378}, {"note": 0, "velocity": 0, "duration": 102}, {"note": 64, "velocity": 112, "duration": 202}, {"note": 66, "velocity": 120, "duration": 1266}, {"note": 0, "velocity": 0, "duration": 654}, {"note": 71, "velocity": 109, "duration": 171}, {"note": 0, "velocity": 0, "duration": 69}, {"note": 71, "velocity": 112, "duration": 171}, {"note": 0, "velocity": 0, "duration": 69}, {"note": 72, "velocity": 104, "duration": 171}, {"note": 0, "velocity": 0, "duration": 69}, {"note": 71, "velocity": 112, "duration": 172}, {"note": 0, "velocity": 0, "duration": 68}, {"note": 69, "velocity": 109, "duration": 138}, {"note": 0, "velocity": 0, "duration": 102}, {"note": 67, "velocity": 112, "duration": 161}, {"note": 0, "velocity": 0, "duration": 79}, {"note": 66, "velocity": 113, "duration": 172}, {"note": 0, "velocity": 0, "duration": 68}, {"note": 67, "velocity": 106, "duration": 1490}, {"note": 0, "velocity": 0, "duration": 670}, {"note": 67, "velocity": 115, "duration": 165}, {"note": 0, "velocity": 0, "duration": 75}, {"note": 67, "velocity": 106, "duration": 160}, {"note": 0, "velocity": 0, "duration": 80}, {"note": 69, "velocity": 109, "duration": 135}, {"note": 0, "velocity": 0, "duration": 105}, {"note": 66, "velocity": 120, "duration": 159}, {"note": 0, "velocity": 0, "duration": 81}, {"note": 64, "velocity": 112, "duration": 121}, {"note": 0, "velocity": 0, "duration": 119}, {"note": 62, "velocity": 115, "duration": 139}, {"note": 0, "velocity": 0, "duration": 101}, {"note": 57, "velocity": 112, "duration": 152}, {"note": 0, "velocity": 0, "duration": 88}, {"note": 59, "velocity": 109, "duration": 1881}, {"note": 0, "velocity": 0, "duration": 279}, {"note": 71, "velocity": 112, "duration": 170}, {"note": 0, "velocity": 0, "duration": 70}, {"note": 71, "velocity": 109, "duration": 158}, {"note": 0, "velocity": 0, "duration": 82}, {"note": 72, "velocity": 104, "duration": 163}, {"note": 0, "velocity": 0, "duration": 77}, {"note": 71, "velocity": 112, "duration": 194}, {"note": 69, "velocity": 99, "duration": 101}, {"note": 0, "velocity": 0, "duration": 139}, {"note": 69, "velocity": 112, "duration": 344}, {"note": 0, "velocity": 0, "duration": 376}, {"note": 67, "velocity": 112, "duration": 158}, {"note": 0, "velocity": 0, "duration": 82}, {"note": 69, "velocity": 115, "duration": 152}, {"note": 0, "velocity": 0, "duration": 88}, {"note": 71, "velocity": 115, "duration": 154}, {"note": 0, "velocity": 0, "duration": 86}, {"note": 67, "velocity": 109, "duration": 215}, {"note": 64, "velocity": 106, "duration": 161}, {"note": 0, "velocity": 0, "duration": 79}, {"note": 64, "velocity": 109, "duration": 483}, {"note": 0, "velocity": 0, "duration": 237}, {"note": 60, "velocity": 115, "duration": 152}, {"note": 0, "velocity": 0, "duration": 88}, {"note": 64, "velocity": 112, "duration": 255}, {"note": 0, "velocity": 0, "duration": 105}, {"note": 67, "velocity": 109, "duration": 91}, {"note": 71, "velocity": 112, "duration": 148}, {"note": 67, "velocity": 106, "duration": 115}, {"note": 64, "velocity": 109, "duration": 106}, {"note": 0, "velocity": 0, "duration": 92}, {"note": 71, "velocity": 104, "duration": 152}, {"note": 67, "velocity": 106, "duration": 79}, {"note": 64, "velocity": 106, "duration": 81}, {"note": 67, "velocity": 112, "duration": 164}, {"note": 0, "velocity": 0, "duration": 76}, {"note": 67, "velocity": 112, "duration": 180}, {"note": 67, "velocity": 109, "duration": 146}, {"note": 0, "velocity": 0, "duration": 94}, {"note": 69, "velocity": 112, "duration": 142}, {"note": 0, "velocity": 0, "duration": 98}, {"note": 69, "velocity": 118, "duration": 367}, {"note": 0, "velocity": 0, "duration": 113}, {"note": 64, "velocity": 115, "duration": 166}, {"note": 0, "velocity": 0, "duration": 74}, {"note": 62, "velocity": 115, "duration": 277}, {"note": 0, "velocity": 0, "duration": 203}, {"note": 71, "velocity": 109, "duration": 171}, {"note": 0, "velocity": 0, "duration": 69}, {"note": 71, "velocity": 112, "duration": 171}, {"note": 0, "velocity": 0, "duration": 69}, {"note": 72, "velocity": 104, "duration": 171}, {"note": 0, "velocity": 0, "duration": 69}, {"note": 71, "velocity": 112, "duration": 172}, {"note": 0, "velocity": 0, "duration": 68}, {"note": 69, "velocity": 109, "duration": 138}, {"note": 0, "velocity": 0, "duration": 102}, {"note": 67, "velocity": 112, "duration": 161}, {"note": 0, "velocity": 0, "duration": 79}, {"note": 66, "velocity": 113, "duration": 172}, {"note": 0, "velocity": 0, "duration": 68}, {"note": 67, "velocity": 106, "duration": 1490}, {"note": 0, "velocity": 0, "duration": 670}, {"note": 67, "velocity": 115, "duration": 165}, {"note": 0, "velocity": 0, "duration": 75}, {"note": 67, "velocity": 106, "duration": 160}, {"note": 0, "velocity": 0, "duration": 80}, {"note": 69, "velocity": 109, "duration": 135}, {"note": 0, "velocity": 0, "duration": 105}, {"note": 66, "velocity": 120, "duration": 159}, {"note": 0, "velocity": 0, "duration": 81}, {"note": 64, "velocity": 112, "duration": 121}, {"note": 0, "velocity": 0, "duration": 119}, {"note": 62, "velocity": 115, "duration": 139}, {"note": 0, "velocity": 0, "duration": 101}, {"note": 57, "velocity": 112, "duration": 152}, {"note": 0, "velocity": 0, "duration": 88}, {"note": 59, "velocity": 109, "duration": 1918}, {"note": 0, "velocity": 0, "duration": 242}, {"note": 71, "velocity": 112, "duration": 170}, {"note": 0, "velocity": 0, "duration": 70}, {"note": 71, "velocity": 109, "duration": 158}, {"note": 0, "velocity": 0, "duration": 82}, {"note": 72, "velocity": 104, "duration": 163}, {"note": 0, "velocity": 0, "duration": 77}, {"note": 71, "velocity": 112, "duration": 194}, {"note": 69, "velocity": 99, "duration": 101}, {"note": 0, "velocity": 0, "duration": 139}, {"note": 69, "velocity": 112, "duration": 344}, {"note": 0, "velocity": 0, "duration": 376}, {"note": 67, "velocity": 112, "duration": 158}, {"note": 0, "velocity": 0, "duration": 82}, {"note": 69, "velocity": 115, "duration": 152}, {"note": 0, "velocity": 0, "duration": 88}, {"note": 71, "velocity": 115, "duration": 154}, {"note": 0, "velocity": 0, "duration": 86}, {"note": 67, "velocity": 109, "duration": 215}, {"note": 64, "velocity": 106, "duration": 161}, {"note": 0, "velocity": 0, "duration": 79}, {"note": 64, "velocity": 109, "duration": 483}, {"note": 0, "velocity": 0, "duration": 237}, {"note": 60, "velocity": 115, "duration": 152}, {"note": 0, "velocity": 0, "duration": 88}, {"note": 64, "velocity": 112, "duration": 255}, {"note": 0, "velocity": 0, "duration": 105}, {"note": 67, "velocity": 109, "duration": 91}, {"note": 71, "velocity": 112, "duration": 148}, {"note": 67, "velocity": 106, "duration": 115}, {"note": 64, "velocity": 109, "duration": 106}, {"note": 0, "velocity": 0, "duration": 92}, {"note": 71, "velocity": 104, "duration": 152}, {"note": 67, "velocity": 106, "duration": 79}, {"note": 64, "velocity": 106, "duration": 81}, {"note": 67, "velocity": 112, "duration": 164}, {"note": 0, "velocity": 0, "duration": 76}, {"note": 67, "velocity": 112, "duration": 180}, {"note": 67, "velocity": 109, "duration": 238}, {"note": 0, "velocity": 0, "duration": 242}, {"note": 67, "velocity": 112, "duration": 167}, {"note": 0, "velocity": 0, "duration": 73}, {"note": 67, "velocity": 109, "duration": 193}, {"note": 67, "velocity": 112, "duration": 741}, {"note": 0, "velocity": 0, "duration": 459}, {"note": 71, "velocity": 106, "duration": 190}, {"note": 69, "velocity": 112, "duration": 238}, {"note": 67, "velocity": 109, "duration": 1544}, {"note": 0, "velocity": 0, "duration": 6616}, {"note": 59, "velocity": 106, "duration": 187}, {"note": 62, "velocity": 109, "duration": 202}, {"note": 59, "velocity": 115, "duration": 181}, {"note": 64, "velocity": 106, "duration": 559}, {"note": 0, "velocity": 0, "duration": 161}, {"note": 71, "velocity": 112, "duration": 168}, {"note": 0, "velocity": 0, "duration": 72}, {"note": 69, "velocity": 104, "duration": 186}, {"note": 67, "velocity": 106, "duration": 154}, {"note": 0, "velocity": 0, "duration": 86}, {"note": 66, "velocity": 113, "duration": 304}, {"note": 0, "velocity": 0, "duration": 176}, {"note": 62, "velocity": 109, "duration": 150}, {"note": 0, "velocity": 0, "duration": 90}, {"note": 59, "velocity": 104, "duration": 753}, {"note": 0, "velocity": 0, "duration": 207}, {"note": 59, "velocity": 112, "duration": 171}, {"note": 0, "velocity": 0, "duration": 69}, {"note": 62, "velocity": 112, "duration": 156}, {"note": 0, "velocity": 0, "duration": 84}, {"note": 59, "velocity": 106, "duration": 149}, {"note": 0, "velocity": 0, "duration": 91}, {"note": 60, "velocity": 109, "duration": 345}, {"note": 0, "velocity": 0, "duration": 135}, {"note": 64, "velocity": 106, "duration": 153}, {"note": 0, "velocity": 0, "duration": 87}, {"note": 67, "velocity": 112, "duration": 147}, {"note": 0, "velocity": 0, "duration": 93}, {"note": 66, "velocity": 117, "duration": 168}, {"note": 0, "velocity": 0, "duration": 72}, {"note": 64, "velocity": 109, "duration": 190}, {"note": 62, "velocity": 112, "duration": 478}, {"note": 57, "velocity": 109, "duration": 232}, {"note": 59, "velocity": 99, "duration": 819}, {"note": 0, "velocity": 0, "duration": 141}, {"note": 59, "velocity": 112, "duration": 167}, {"note": 0, "velocity": 0, "duration": 73}, {"note": 62, "velocity": 109, "duration": 172}, {"note": 0, "velocity": 0, "duration": 68}, {"note": 59, "velocity": 115, "duration": 178}, {"note": 0, "velocity": 0, "duration": 62}, {"note": 64, "velocity": 112, "duration": 593}, {"note": 0, "velocity": 0, "duration": 127}, {"note": 71, "velocity": 106, "duration": 158}, {"note": 0, "velocity": 0, "duration": 82}, {"note": 69, "velocity": 109, "duration": 143}, {"note": 0, "velocity": 0, "duration": 97}, {"note": 67, "velocity": 104, "duration": 141}, {"note": 0, "velocity": 0, "duration": 99}, {"note": 66, "velocity": 113, "duration": 145}, {"note": 0, "velocity": 0, "duration": 95}, {"note": 62, "velocity": 112, "duration": 175}, {"note": 0, "velocity": 0, "duration": 65}, {"note": 71, "velocity": 94, "duration": 497}, {"note": 69, "velocity": 112, "duration": 358}, {"note": 0, "velocity": 0, "duration": 122}, {"note": 67, "velocity": 109, "duration": 361}, {"note": 0, "velocity": 0, "duration": 119}, {"note": 62, "velocity": 109, "duration": 167}, {"note": 0, "velocity": 0, "duration": 73}, {"note": 59, "velocity": 106, "duration": 176}, {"note": 0, "velocity": 0, "duration": 64}, {"note": 60, "velocity": 109, "duration": 718}, {"note": 59, "velocity": 115, "duration": 159}, {"note": 0, "velocity": 0, "duration": 81}, {"note": 69, "velocity": 109, "duration": 147}, {"note": 0, "velocity": 0, "duration": 93}, {"note": 67, "velocity": 109, "duration": 124}, {"note": 0, "velocity": 0, "duration": 116}, {"note": 66, "velocity": 120, "duration": 378}, {"note": 0, "velocity": 0, "duration": 102}, {"note": 64, "velocity": 112, "duration": 202}, {"note": 66, "velocity": 120, "duration": 1265}, {"note": 0, "velocity": 0, "duration": 655}, {"note": 71, "velocity": 109, "duration": 171}, {"note": 0, "velocity": 0, "duration": 69}, {"note": 71, "velocity": 112, "duration": 171}, {"note": 0, "velocity": 0, "duration": 69}, {"note": 72, "velocity": 104, "duration": 171}, {"note": 0, "velocity": 0, "duration": 69}, {"note": 71, "velocity": 112, "duration": 172}, {"note": 0, "velocity": 0, "duration": 68}, {"note": 69, "velocity": 109, "duration": 138}, {"note": 0, "velocity": 0, "duration": 102}, {"note": 67, "velocity": 112, "duration": 161}, {"note": 0, "velocity": 0, "duration": 79}, {"note": 66, "velocity": 113, "duration": 172}, {"note": 0, "velocity": 0, "duration": 68}, {"note": 67, "velocity": 106, "duration": 1490}, {"note": 0, "velocity": 0, "duration": 670}, {"note": 67, "velocity": 115, "duration": 165}, {"note": 0, "velocity": 0, "duration": 75}, {"note": 67, "velocity": 106, "duration": 160}, {"note": 0, "velocity": 0, "duration": 80}, {"note": 69, "velocity": 109, "duration": 135}, {"note": 0, "velocity": 0, "duration": 105}, {"note": 66, "velocity": 120, "duration": 159}, {"note": 0, "velocity": 0, "duration": 81}, {"note": 64, "velocity": 112, "duration": 121}, {"note": 0, "velocity": 0, "duration": 119}, {"note": 62, "velocity": 115, "duration": 139}, {"note": 0, "velocity": 0, "duration": 101}, {"note": 57, "velocity": 112, "duration": 152}, {"note": 0, "velocity": 0, "duration": 88}, {"note": 59, "velocity": 109, "duration": 1881}, {"note": 0, "velocity": 0, "duration": 279}, {"note": 71, "velocity": 112, "duration": 170}, {"note": 0, "velocity": 0, "duration": 70}, {"note": 71, "velocity": 109, "duration": 158}, {"note": 0, "velocity": 0, "duration": 82}, {"note": 72, "velocity": 104, "duration": 163}, {"note": 0, "velocity": 0, "duration": 77}, {"note": 71, "velocity": 112, "duration": 194}, {"note": 69, "velocity": 99, "duration": 101}, {"note": 0, "velocity": 0, "duration": 139}, {"note": 69, "velocity": 112, "duration": 344}, {"note": 0, "velocity": 0, "duration": 376}, {"note": 67, "velocity": 112, "duration": 158}, {"note": 0, "velocity": 0, "duration": 82}, {"note": 69, "velocity": 115, "duration": 152}, {"note": 0, "velocity": 0, "duration": 88}, {"note": 71, "velocity": 115, "duration": 154}, {"note": 0, "velocity": 0, "duration": 86}, {"note": 67, "velocity": 109, "duration": 215}, {"note": 64, "velocity": 106, "duration": 161}, {"note": 0, "velocity": 0, "duration": 79}, {"note": 64, "velocity": 109, "duration": 483}, {"note": 0, "velocity": 0, "duration": 237}, {"note": 60, "velocity": 115, "duration": 152}, {"note": 0, "velocity": 0, "duration": 88}, {"note": 64, "velocity": 112, "duration": 255}, {"note": 0, "velocity": 0, "duration": 105}, {"note": 67, "velocity": 109, "duration": 91}, {"note": 71, "velocity": 112, "duration": 148}, {"note": 67, "velocity": 106, "duration": 115}, {"note": 64, "velocity": 109, "duration": 106}, {"note": 0, "velocity": 0, "duration": 92}, {"note": 71, "velocity": 104, "duration": 152}, {"note": 67, "velocity": 106, "duration": 79}, {"note": 64, "velocity": 106, "duration": 81}, {"note": 67, "velocity": 112, "duration": 164}, {"note": 0, "velocity": 0, "duration": 76}, {"note": 67, "velocity": 112, "duration": 180}, {"note": 67, "velocity": 109, "duration": 146}, {"note": 0, "velocity": 0, "duration": 94}, {"note": 69, "velocity": 112, "duration": 142}, {"note": 0, "velocity": 0, "duration": 98}, {"note": 69, "velocity": 118, "duration": 718}, {"note": 0, "velocity": 0, "duration": 242}, {"note": 69, "velocity": 115, "duration": 159}, {"note": 0, "velocity": 0, "duration": 81}, {"note": 69, "velocity": 112, "duration": 64}, {"note": 69, "velocity": 115, "duration": 289}, {"note": 0, "velocity": 0, "duration": 71}, {"note": 71, "velocity": 112, "duration": 158}, {"note": 0, "velocity": 0, "duration": 82}, {"note": 71, "velocity": 112, "duration": 991}, {"note": 0, "velocity": 0, "duration": 9809}, {"note": 71, "velocity": 109, "duration": 171}, {"note": 0, "velocity": 0, "duration": 69}, {"note": 71, "velocity": 112, "duration": 171}, {"note": 0, "velocity": 0, "duration": 69}, {"note": 72, "velocity": 104, "duration": 171}, {"note": 0, "velocity": 0, "duration": 69}, {"note": 71, "velocity": 112, "duration": 172}, {"note": 0, "velocity": 0, "duration": 68}, {"note": 69, "velocity": 109, "duration": 138}, {"note": 0, "velocity": 0, "duration": 102}, {"note": 67, "velocity": 112, "duration": 161}, {"note": 0, "velocity": 0, "duration": 79}, {"note": 66, "velocity": 113, "duration": 172}, {"note": 0, "velocity": 0, "duration": 68}, {"note": 67, "velocity": 106, "duration": 1490}, {"note": 0, "velocity": 0, "duration": 670}, {"note": 67, "velocity": 115, "duration": 165}, {"note": 0, "velocity": 0, "duration": 75}, {"note": 67, "velocity": 106, "duration": 160}, {"note": 0, "velocity": 0, "duration": 80}, {"note": 69, "velocity": 109, "duration": 135}, {"note": 0, "velocity": 0, "duration": 105}, {"note": 66, "velocity": 120, "duration": 159}, {"note": 0, "velocity": 0, "duration": 81}, {"note": 64, "velocity": 112, "duration": 121}, {"note": 0, "velocity": 0, "duration": 119}, {"note": 62, "velocity": 115, "duration": 139}, {"note": 0, "velocity": 0, "duration": 101}, {"note": 57, "velocity": 112, "duration": 152}, {"note": 0, "velocity": 0, "duration": 88}, {"note": 59, "velocity": 109, "duration": 1881}, {"note": 0, "velocity": 0, "duration": 279}, {"note": 71, "velocity": 112, "duration": 170}, {"note": 0, "velocity": 0, "duration": 70}, {"note": 71, "velocity": 109, "duration": 158}, {"note": 0, "velocity": 0, "duration": 82}, {"note": 72, "velocity": 104, "duration": 163}, {"note": 0, "velocity": 0, "duration": 77}, {"note": 71, "velocity": 112, "duration": 194}, {"note": 69, "velocity": 99, "duration": 101}, {"note": 0, "velocity": 0, "duration": 139}, {"note": 69, "velocity": 112, "duration": 344}, {"note": 0, "velocity": 0, "duration": 376}, {"note": 67, "velocity": 112, "duration": 158}, {"note": 0, "velocity": 0, "duration": 82}, {"note": 69, "velocity": 115, "duration": 152}, {"note": 0, "velocity": 0, "duration": 88}, {"note": 71, "velocity": 115, "duration": 154}, {"note": 0, "velocity": 0, "duration": 86}, {"note": 67, "velocity": 109, "duration": 215}, {"note": 64, "velocity": 106, "duration": 161}, {"note": 0, "velocity": 0, "duration": 79}, {"note": 64, "velocity": 109, "duration": 483}, {"note": 0, "velocity": 0, "duration": 237}, {"note": 60, "velocity": 115, "duration": 152}, {"note": 0, "velocity": 0, "duration": 88}, {"note": 64, "velocity": 112, "duration": 255}, {"note": 0, "velocity": 0, "duration": 105}, {"note": 67, "velocity": 109, "duration": 91}, {"note": 71, "velocity": 112, "duration": 148}, {"note": 67, "velocity": 106, "duration": 115}, {"note": 64, "velocity": 109, "duration": 106}, {"note": 0, "velocity": 0, "duration": 92}, {"note": 71, "velocity": 104, "duration": 152}, {"note": 67, "velocity": 106, "duration": 79}, {"note": 64, "velocity": 106, "duration": 81}, {"note": 67, "velocity": 112, "duration": 164}, {"note": 0, "velocity": 0, "duration": 76}, {"note": 67, "velocity": 112, "duration": 180}, {"note": 67, "velocity": 109, "duration": 146}, {"note": 0, "velocity": 0, "duration": 334}, {"note": 68, "velocity": 120, "duration": 396}, {"note": 0, "velocity": 0, "duration": 84}, {"note": 70, "velocity": 123, "duration": 487}, {"note": 0, "velocity": 0, "duration": 233}, {"note": 72, "velocity": 109, "duration": 171}, {"note": 0, "velocity": 0, "duration": 69}, {"note": 72, "velocity": 112, "duration": 171}, {"note": 0, "velocity": 0, "duration": 69}, {"note": 73, "velocity": 104, "duration": 171}, {"note": 0, "velocity": 0, "duration": 69}, {"note": 72, "velocity": 112, "duration": 172}, {"note": 0, "velocity": 0, "duration": 68}, {"note": 70, "velocity": 109, "duration": 138}, {"note": 0, "velocity": 0, "duration": 102}, {"note": 68, "velocity": 112, "duration": 161}, {"note": 0, "velocity": 0, "duration": 79}, {"note": 67, "velocity": 113, "duration": 172}, {"note": 0, "velocity": 0, "duration": 68}, {"note": 68, "velocity": 106, "duration": 1490}, {"note": 0, "velocity": 0, "duration": 670}, {"note": 68, "velocity": 115, "duration": 165}, {"note": 0, "velocity": 0, "duration": 75}, {"note": 68, "velocity": 106, "duration": 160}, {"note": 0, "velocity": 0, "duration": 80}, {"note": 70, "velocity": 109, "duration": 135}, {"note": 0, "velocity": 0, "duration": 105}, {"note": 67, "velocity": 120, "duration": 159}, {"note": 0, "velocity": 0, "duration": 81}, {"note": 65, "velocity": 112, "duration": 121}, {"note": 0, "velocity": 0, "duration": 119}, {"note": 63, "velocity": 115, "duration": 139}, {"note": 0, "velocity": 0, "duration": 101}, {"note": 58, "velocity": 112, "duration": 152}, {"note": 0, "velocity": 0, "duration": 88}, {"note": 60, "velocity": 109, "duration": 1881}, {"note": 0, "velocity": 0, "duration": 279}, {"note": 72, "velocity": 112, "duration": 170}, {"note": 0, "velocity": 0, "duration": 70}, {"note": 72, "velocity": 109, "duration": 158}, {"note": 0, "velocity": 0, "duration": 82}, {"note": 73, "velocity": 104, "duration": 163}, {"note": 0, "velocity": 0, "duration": 77}, {"note": 72, "velocity": 112, "duration": 194}, {"note": 70, "velocity": 99, "duration": 101}, {"note": 0, "velocity": 0, "duration": 139}, {"note": 70, "velocity": 112, "duration": 344}, {"note": 0, "velocity": 0, "duration": 376}, {"note": 68, "velocity": 112, "duration": 158}, {"note": 0, "velocity": 0, "duration": 82}, {"note": 70, "velocity": 115, "duration": 152}, {"note": 0, "velocity": 0, "duration": 88}, {"note": 72, "velocity": 115, "duration": 154}, {"note": 0, "velocity": 0, "duration": 86}, {"note": 68, "velocity": 109, "duration": 215}, {"note": 65, "velocity": 106, "duration": 161}, {"note": 0, "velocity": 0, "duration": 79}, {"note": 65, "velocity": 109, "duration": 483}, {"note": 0, "velocity": 0, "duration": 237}, {"note": 61, "velocity": 115, "duration": 152}, {"note": 0, "velocity": 0, "duration": 88}, {"note": 65, "velocity": 112, "duration": 255}, {"note": 0, "velocity": 0, "duration": 105}, {"note": 68, "velocity": 109, "duration": 91}, {"note": 72, "velocity": 112, "duration": 148}, {"note": 68, "velocity": 106, "duration": 115}, {"note": 65, "velocity": 109, "duration": 106}, {"note": 0, "velocity": 0, "duration": 92}, {"note": 72, "velocity": 104, "duration": 152}, {"note": 68, "velocity": 106, "duration": 79}, {"note": 65, "velocity": 106, "duration": 81}, {"note": 68, "velocity": 112, "duration": 164}, {"note": 0, "velocity": 0, "duration": 76}, {"note": 68, "velocity": 112, "duration": 180}, {"note": 68, "velocity": 109, "duration": 146}, {"note": 0, "velocity": 0, "duration": 334}, {"note": 68, "velocity": 120, "duration": 167}, {"note": 0, "velocity": 0, "duration": 73}, {"note": 68, "velocity": 117, "duration": 153}, {"note": 0, "velocity": 0, "duration": 87}, {"note": 68, "velocity": 117, "duration": 1261}, {"note": 0, "velocity": 0, "duration": 157}, {"note": 72, "velocity": 104, "duration": 355}, {"note": 70, "velocity": 110, "duration": 148}, {"note": 68, "velocity": 107, "duration": 1380}]]