[[{"note": 67, "velocity": 112, "duration": 190}, {"note": 65, "velocity": 102, "duration": 62}, {"note": 65, "velocity": 100, "duration": 153}, {"note": 0, "velocity": 0, "duration": 87}, {"note": 63, "velocity": 108, "duration": 259}, {"note": 0, "velocity": 0, "duration": 101}, {"note": 63, "velocity": 109, "duration": 164}, {"note": 0, "velocity": 0, "duration": 76}, {"note": 65, "velocity": 92, "duration": 62}, {"note": 65, "velocity": 108, "duration": 231}, {"note": 63, "velocity": 100, "duration": 223}, {"note": 0, "velocity": 0, "duration": 137}, {"note": 62, "velocity": 105, "duration": 179}, {"note": 0, "velocity": 0, "duration": 61}, {"note": 63, "velocity": 97, "duration": 60}, {"note": 65, "velocity": 100, "duration": 316}, {"note": 62, "velocity": 99, "duration": 70}, {"note": 63, "velocity": 100, "duration": 656}, {"note": 0, "velocity": 0, "duration": 424}, {"note": 68, "velocity": 108, "duration": 172}, {"note": 0, "velocity": 0, "duration": 68}, {"note": 68, "velocity": 94, "duration": 61}, {"note": 68, "velocity": 102, "duration": 160}, {"note": 0, "velocity": 0, "duration": 80}, {"note": 67, "velocity": 102, "duration": 256}, {"note": 0, "velocity": 0, "duration": 104}, {"note": 70, "velocity": 105, "duration": 144}, {"note": 0, "velocity": 0, "duration": 96}, {"note": 70, "velocity": 100, "duration": 54}, {"note": 0, "velocity": 0, "duration": 66}, {"note": 70, "velocity": 102, "duration": 70}, {"note": 67, "velocity": 99, "duration": 164}, {"note": 0, "velocity": 0, "duration": 76}, {"note": 65, "velocity": 102, "duration": 162}, {"note": 0, "velocity": 0, "duration": 78}, {"note": 63, "velocity": 105, "duration": 224}, {"note": 0, "velocity": 0, "duration": 136}, {"note": 63, "velocity": 97, "duration": 62}, {"note": 67, "velocity": 102, "duration": 168}, {"note": 0, "velocity": 0, "duration": 72}, {"note": 70, "velocity": 97, "duration": 59}, {"note": 0, "velocity": 0, "duration": 61}, {"note": 63, "velocity": 111, "duration": 155}, {"note": 0, "velocity": 0, "duration": 85}, {"note": 65, "velocity": 108, "duration": 650}, {"note": 0, "velocity": 0, "duration": 70}, {"note": 58, "velocity": 108, "duration": 62}, {"note": 60, "velocity": 100, "duration": 152}, {"note": 0, "velocity": 0, "duration": 88}, {"note": 63, "velocity": 100, "duration": 168}, {"note": 0, "velocity": 0, "duration": 72}, {"note": 63, "velocity": 97, "duration": 65}, {"note": 67, "velocity": 109, "duration": 273}, {"note": 0, "velocity": 0, "duration": 87}, {"note": 65, "velocity": 102, "duration": 406}, {"note": 0, "velocity": 0, "duration": 434}, {"note": 58, "velocity": 105, "duration": 66}, {"note": 67, "velocity": 109, "duration": 157}, {"note": 0, "velocity": 0, "duration": 83}, {"note": 68, "velocity": 94, "duration": 60}, {"note": 67, "velocity": 112, "duration": 149}, {"note": 0, "velocity": 0, "duration": 91}, {"note": 65, "velocity": 108, "duration": 167}, {"note": 0, "velocity": 0, "duration": 73}, {"note": 62, "velocity": 102, "duration": 70}, {"note": 63, "velocity": 94, "duration": 512}, {"note": 0, "velocity": 0, "duration": 328}, {"note": 58, "velocity": 92, "duration": 73}, {"note": 60, "velocity": 105, "duration": 177}, {"note": 0, "velocity": 0, "duration": 63}, {"note": 63, "velocity": 89, "duration": 63}, {"note": 65, "velocity": 100, "duration": 117}, {"note": 0, "velocity": 0, "duration": 123}, {"note": 67, "velocity": 102, "duration": 149}, {"note": 0, "velocity": 0, "duration": 91}, {"note": 58, "velocity": 108, "duration": 579}, {"note": 0, "velocity": 0, "duration": 381}, {"note": 58, "velocity": 105, "duration": 51}, {"note": 0, "velocity": 0, "duration": 69}, {"note": 60, "velocity": 108, "duration": 142}, {"note": 0, "velocity": 0, "duration": 98}, {"note": 63, "velocity": 105, "duration": 158}, {"note": 0, "velocity": 0, "duration": 82}, {"note": 63, "velocity": 105, "duration": 66}, {"note": 60, "velocity": 102, "duration": 313}, {"note": 58, "velocity": 102, "duration": 744}, {"note": 0, "velocity": 0, "duration": 1176}, {"note": 58, "velocity": 111, "duration": 180}, {"note": 63, "velocity": 94, "duration": 55}, {"note": 0, "velocity": 0, "duration": 65}, {"note": 63, "velocity": 105, "duration": 288}, {"note": 0, "velocity": 0, "duration": 72}, {"note": 67, "velocity": 102, "duration": 179}, {"note": 0, "velocity": 0, "duration": 61}, {"note": 68, "velocity": 105, "duration": 177}, {"note": 0, "velocity": 0, "duration": 63}, {"note": 67, "velocity": 109, "duration": 65}, {"note": 65, "velocity": 97, "duration": 179}, {"note": 0, "velocity": 0, "duration": 61}, {"note": 63, "velocity": 102, "duration": 172}, {"note": 0, "velocity": 0, "duration": 188}, {"note": 62, "velocity": 102, "duration": 169}, {"note": 0, "velocity": 0, "duration": 71}, {"note": 63, "velocity": 97, "duration": 60}, {"note": 65, "velocity": 100, "duration": 281}, {"note": 0, "velocity": 0, "duration": 79}, {"note": 62, "velocity": 96, "duration": 88}, {"note": 63, "velocity": 89, "duration": 600}, {"note": 0, "velocity": 0, "duration": 480}, {"note": 68, "velocity": 100, "duration": 150}, {"note": 0, "velocity": 0, "duration": 90}, {"note": 68, "velocity": 94, "duration": 60}, {"note": 68, "velocity": 102, "duration": 160}, {"note": 0, "velocity": 0, "duration": 80}, {"note": 67, "velocity": 109, "duration": 185}, {"note": 0, "velocity": 0, "duration": 175}, {"note": 70, "velocity": 100, "duration": 147}, {"note": 0, "velocity": 0, "duration": 93}, {"note": 70, "velocity": 102, "duration": 66}, {"note": 67, "velocity": 100, "duration": 174}, {"note": 0, "velocity": 0, "duration": 66}, {"note": 65, "velocity": 52, "duration": 46}, {"note": 0, "velocity": 0, "duration": 74}, {"note": 63, "velocity": 82, "duration": 160}, {"note": 0, "velocity": 0, "duration": 80}, {"note": 63, "velocity": 102, "duration": 239}, {"note": 0, "velocity": 0, "duration": 121}, {"note": 63, "velocity": 105, "duration": 59}, {"note": 0, "velocity": 0, "duration": 61}, {"note": 67, "velocity": 109, "duration": 145}, {"note": 0, "velocity": 0, "duration": 95}, {"note": 70, "velocity": 100, "duration": 51}, {"note": 0, "velocity": 0, "duration": 69}, {"note": 63, "velocity": 80, "duration": 142}, {"note": 0, "velocity": 0, "duration": 98}, {"note": 65, "velocity": 102, "duration": 409}, {"note": 0, "velocity": 0, "duration": 431}, {"note": 60, "velocity": 111, "duration": 155}, {"note": 0, "velocity": 0, "duration": 85}, {"note": 63, "velocity": 108, "duration": 142}, {"note": 0, "velocity": 0, "duration": 98}, {"note": 63, "velocity": 100, "duration": 71}, {"note": 67, "velocity": 109, "duration": 283}, {"note": 0, "velocity": 0, "duration": 77}, {"note": 65, "velocity": 108, "duration": 545}, {"note": 0, "velocity": 0, "duration": 295}, {"note": 58, "velocity": 105, "duration": 59}, {"note": 0, "velocity": 0, "duration": 61}, {"note": 67, "velocity": 109, "duration": 158}, {"note": 0, "velocity": 0, "duration": 82}, {"note": 68, "velocity": 97, "duration": 63}, {"note": 67, "velocity": 109, "duration": 144}, {"note": 0, "velocity": 0, "duration": 96}, {"note": 65, "velocity": 105, "duration": 147}, {"note": 0, "velocity": 0, "duration": 93}, {"note": 62, "velocity": 96, "duration": 60}, {"note": 62, "velocity": 102, "duration": 163}, {"note": 0, "velocity": 0, "duration": 77}, {"note": 65, "velocity": 94, "duration": 65}, {"note": 63, "velocity": 102, "duration": 311}, {"note": 0, "velocity": 0, "duration": 169}, {"note": 58, "velocity": 94, "duration": 70}, {"note": 60, "velocity": 92, "duration": 160}, {"note": 0, "velocity": 0, "duration": 80}, {"note": 63, "velocity": 94, "duration": 59}, {"note": 0, "velocity": 0, "duration": 61}, {"note": 65, "velocity": 102, "duration": 145}, {"note": 0, "velocity": 0, "duration": 95}, {"note": 67, "velocity": 102, "duration": 159}, {"note": 0, "velocity": 0, "duration": 81}, {"note": 58, "velocity": 111, "duration": 492}, {"note": 0, "velocity": 0, "duration": 468}, {"note": 58, "velocity": 102, "duration": 66}, {"note": 60, "velocity": 108, "duration": 153}, {"note": 0, "velocity": 0, "duration": 87}, {"note": 63, "velocity": 97, "duration": 52}, {"note": 0, "velocity": 0, "duration": 68}, {"note": 63, "velocity": 102, "duration": 141}, {"note": 0, "velocity": 0, "duration": 99}, {"note": 72, "velocity": 105, "duration": 285}, {"note": 0, "velocity": 0, "duration": 75}, {"note": 70, "velocity": 102, "duration": 1076}, {"note": 0, "velocity": 0, "duration": 124}, {"note": 63, "velocity": 102, "duration": 175}, {"note": 0, "velocity": 0, "duration": 65}, {"note": 67, "velocity": 109, "duration": 153}, {"note": 0, "velocity": 0, "duration": 87}, {"note": 75, "velocity": 114, "duration": 155}, {"note": 0, "velocity": 0, "duration": 85}, {"note": 74, "velocity": 108, "duration": 345}, {"note": 72, "velocity": 92, "duration": 478}, {"note": 0, "velocity": 0, "duration": 122}, {"note": 70, "velocity": 102, "duration": 166}, {"note": 0, "velocity": 0, "duration": 74}, {"note": 68, "velocity": 80, "duration": 55}, {"note": 0, "velocity": 0, "duration": 65}, {"note": 68, "velocity": 108, "duration": 420}, {"note": 0, "velocity": 0, "duration": 180}, {"note": 65, "velocity": 105, "duration": 163}, {"note": 0, "velocity": 0, "duration": 77}, {"note": 72, "velocity": 102, "duration": 161}, {"note": 0, "velocity": 0, "duration": 79}, {"note": 70, "velocity": 100, "duration": 66}, {"note": 65, "velocity": 100, "duration": 244}, {"note": 67, "velocity": 105, "duration": 471}, {"note": 0, "velocity": 0, "duration": 112}, {"note": 63, "velocity": 105, "duration": 169}, {"note": 65, "velocity": 100, "duration": 47}, {"note": 0, "velocity": 0, "duration": 94}, {"note": 67, "velocity": 105, "duration": 76}, {"note": 70, "velocity": 105, "duration": 288}, {"note": 0, "velocity": 0, "duration": 72}, {"note": 68, "velocity": 97, "duration": 555}, {"note": 67, "velocity": 109, "duration": 383}, {"note": 63, "velocity": 97, "duration": 286}, {"note": 0, "velocity": 0, "duration": 154}, {"note": 58, "velocity": 111, "duration": 65}, {"note": 60, "velocity": 111, "duration": 155}, {"note": 0, "velocity": 0, "duration": 85}, {"note": 67, "velocity": 105, "duration": 93}, {"note": 65, "velocity": 94, "duration": 62}, {"note": 65, "velocity": 105, "duration": 179}, {"note": 0, "velocity": 0, "duration": 61}, {"note": 63, "velocity": 94, "duration": 118}, {"note": 65, "velocity": 108, "duration": 358}, {"note": 63, "velocity": 111, "duration": 155}, {"note": 0, "velocity": 0, "duration": 85}, {"note": 67, "velocity": 109, "duration": 168}, {"note": 0, "velocity": 0, "duration": 72}, {"note": 75, "velocity": 111, "duration": 145}, {"note": 0, "velocity": 0, "duration": 95}, {"note": 74, "velocity": 105, "duration": 285}, {"note": 0, "velocity": 0, "duration": 75}, {"note": 75, "velocity": 105, "duration": 478}, {"note": 0, "velocity": 0, "duration": 122}, {"note": 77, "velocity": 111, "duration": 307}, {"note": 75, "velocity": 102, "duration": 354}, {"note": 0, "velocity": 0, "duration": 246}, {"note": 74, "velocity": 102, "duration": 172}, {"note": 0, "velocity": 0, "duration": 68}, {"note": 74, "velocity": 99, "duration": 65}, {"note": 74, "velocity": 102, "duration": 161}, {"note": 0, "velocity": 0, "duration": 79}, {"note": 74, "velocity": 99, "duration": 297}, {"note": 0, "velocity": 0, "duration": 63}, {"note": 75, "velocity": 76, "duration": 341}, {"note": 0, "velocity": 0, "duration": 139}, {"note": 63, "velocity": 111, "duration": 163}, {"note": 0, "velocity": 0, "duration": 77}, {"note": 65, "velocity": 105, "duration": 51}, {"note": 0, "velocity": 0, "duration": 69}, {"note": 67, "velocity": 99, "duration": 71}, {"note": 70, "velocity": 102, "duration": 283}, {"note": 0, "velocity": 0, "duration": 77}, {"note": 68, "velocity": 102, "duration": 326}, {"note": 67, "velocity": 105, "duration": 65}, {"note": 68, "velocity": 94, "duration": 66}, {"note": 72, "velocity": 111, "duration": 199}, {"note": 70, "velocity": 114, "duration": 147}, {"note": 0, "velocity": 0, "duration": 93}, {"note": 70, "velocity": 111, "duration": 67}, {"note": 67, "velocity": 112, "duration": 300}, {"note": 70, "velocity": 102, "duration": 958}, {"note": 0, "velocity": 0, "duration": 242}, {"note": 63, "velocity": 102, "duration": 175}, {"note": 0, "velocity": 0, "duration": 65}, {"note": 67, "velocity": 109, "duration": 153}, {"note": 0, "velocity": 0, "duration": 87}, {"note": 75, "velocity": 114, "duration": 155}, {"note": 0, "velocity": 0, "duration": 85}, {"note": 74, "velocity": 108, "duration": 345}, {"note": 72, "velocity": 92, "duration": 478}, {"note": 0, "velocity": 0, "duration": 122}, {"note": 70, "velocity": 102, "duration": 166}, {"note": 0, "velocity": 0, "duration": 74}, {"note": 68, "velocity": 80, "duration": 55}, {"note": 0, "velocity": 0, "duration": 65}, {"note": 68, "velocity": 108, "duration": 420}, {"note": 0, "velocity": 0, "duration": 180}, {"note": 65, "velocity": 105, "duration": 163}, {"note": 0, "velocity": 0, "duration": 77}, {"note": 72, "velocity": 102, "duration": 161}, {"note": 0, "velocity": 0, "duration": 79}, {"note": 70, "velocity": 100, "duration": 66}, {"note": 65, "velocity": 100, "duration": 291}, {"note": 0, "velocity": 0, "duration": 69}, {"note": 67, "velocity": 105, "duration": 368}, {"note": 0, "velocity": 0, "duration": 112}, {"note": 63, "velocity": 105, "duration": 169}, {"note": 0, "velocity": 0, "duration": 71}, {"note": 65, "velocity": 100, "duration": 57}, {"note": 0, "velocity": 0, "duration": 63}, {"note": 67, "velocity": 105, "duration": 76}, {"note": 70, "velocity": 105, "duration": 288}, {"note": 0, "velocity": 0, "duration": 72}, {"note": 68, "velocity": 97, "duration": 304}, {"note": 0, "velocity": 0, "duration": 296}, {"note": 67, "velocity": 109, "duration": 368}, {"note": 0, "velocity": 0, "duration": 112}, {"note": 63, "velocity": 97, "duration": 286}, {"note": 0, "velocity": 0, "duration": 74}, {"note": 58, "velocity": 111, "duration": 65}, {"note": 60, "velocity": 111, "duration": 155}, {"note": 0, "velocity": 0, "duration": 85}, {"note": 67, "velocity": 105, "duration": 93}, {"note": 65, "velocity": 94, "duration": 62}, {"note": 65, "velocity": 105, "duration": 179}, {"note": 0, "velocity": 0, "duration": 61}, {"note": 63, "velocity": 94, "duration": 118}, {"note": 65, "velocity": 108, "duration": 358}, {"note": 63, "velocity": 111, "duration": 155}, {"note": 0, "velocity": 0, "duration": 85}, {"note": 67, "velocity": 109, "duration": 168}, {"note": 0, "velocity": 0, "duration": 72}, {"note": 75, "velocity": 111, "duration": 145}, {"note": 0, "velocity": 0, "duration": 95}, {"note": 74, "velocity": 105, "duration": 285}, {"note": 0, "velocity": 0, "duration": 75}, {"note": 75, "velocity": 105, "duration": 478}, {"note": 0, "velocity": 0, "duration": 122}, {"note": 77, "velocity": 111, "duration": 307}, {"note": 75, "velocity": 102, "duration": 354}, {"note": 0, "velocity": 0, "duration": 126}, {"note": 75, "velocity": 100, "duration": 118}, {"note": 74, "velocity": 102, "duration": 172}, {"note": 0, "velocity": 0, "duration": 68}, {"note": 70, "velocity": 99, "duration": 65}, {"note": 70, "velocity": 102, "duration": 161}, {"note": 0, "velocity": 0, "duration": 79}, {"note": 77, "velocity": 111, "duration": 308}, {"note": 75, "velocity": 97, "duration": 312}, {"note": 0, "velocity": 0, "duration": 168}, {"note": 63, "velocity": 84, "duration": 147}, {"note": 0, "velocity": 0, "duration": 93}, {"note": 65, "velocity": 108, "duration": 65}, {"note": 67, "velocity": 96, "duration": 74}, {"note": 67, "velocity": 99, "duration": 262}, {"note": 0, "velocity": 0, "duration": 98}, {"note": 60, "velocity": 105, "duration": 294}, {"note": 0, "velocity": 0, "duration": 186}, {"note": 60, "velocity": 111, "duration": 56}, {"note": 0, "velocity": 0, "duration": 64}, {"note": 58, "velocity": 100, "duration": 160}, {"note": 0, "velocity": 0, "duration": 80}, {"note": 63, "velocity": 108, "duration": 188}, {"note": 62, "velocity": 109, "duration": 63}, {"note": 65, "velocity": 92, "duration": 285}, {"note": 0, "velocity": 0, "duration": 75}, {"note": 63, "velocity": 108, "duration": 1419}, {"note": 0, "velocity": 0, "duration": 15861}, {"note": 58, "velocity": 111, "duration": 180}, {"note": 63, "velocity": 94, "duration": 55}, {"note": 0, "velocity": 0, "duration": 65}, {"note": 63, "velocity": 105, "duration": 288}, {"note": 0, "velocity": 0, "duration": 72}, {"note": 67, "velocity": 102, "duration": 179}, {"note": 0, "velocity": 0, "duration": 61}, {"note": 68, "velocity": 105, "duration": 177}, {"note": 0, "velocity": 0, "duration": 63}, {"note": 67, "velocity": 109, "duration": 65}, {"note": 65, "velocity": 97, "duration": 179}, {"note": 0, "velocity": 0, "duration": 61}, {"note": 63, "velocity": 102, "duration": 172}, {"note": 0, "velocity": 0, "duration": 188}, {"note": 62, "velocity": 102, "duration": 169}, {"note": 0, "velocity": 0, "duration": 71}, {"note": 63, "velocity": 97, "duration": 60}, {"note": 65, "velocity": 100, "duration": 281}, {"note": 0, "velocity": 0, "duration": 79}, {"note": 62, "velocity": 96, "duration": 88}, {"note": 63, "velocity": 89, "duration": 600}, {"note": 0, "velocity": 0, "duration": 480}, {"note": 68, "velocity": 100, "duration": 150}, {"note": 0, "velocity": 0, "duration": 90}, {"note": 68, "velocity": 94, "duration": 60}, {"note": 68, "velocity": 102, "duration": 160}, {"note": 0, "velocity": 0, "duration": 80}, {"note": 67, "velocity": 109, "duration": 185}, {"note": 0, "velocity": 0, "duration": 175}, {"note": 70, "velocity": 100, "duration": 147}, {"note": 0, "velocity": 0, "duration": 93}, {"note": 70, "velocity": 102, "duration": 66}, {"note": 67, "velocity": 100, "duration": 174}, {"note": 0, "velocity": 0, "duration": 66}, {"note": 65, "velocity": 52, "duration": 46}, {"note": 0, "velocity": 0, "duration": 74}, {"note": 63, "velocity": 82, "duration": 160}, {"note": 0, "velocity": 0, "duration": 80}, {"note": 63, "velocity": 102, "duration": 239}, {"note": 0, "velocity": 0, "duration": 121}, {"note": 63, "velocity": 105, "duration": 59}, {"note": 0, "velocity": 0, "duration": 61}, {"note": 67, "velocity": 109, "duration": 145}, {"note": 0, "velocity": 0, "duration": 95}, {"note": 70, "velocity": 100, "duration": 51}, {"note": 0, "velocity": 0, "duration": 69}, {"note": 63, "velocity": 80, "duration": 142}, {"note": 0, "velocity": 0, "duration": 98}, {"note": 65, "velocity": 102, "duration": 409}, {"note": 0, "velocity": 0, "duration": 431}, {"note": 60, "velocity": 111, "duration": 155}, {"note": 0, "velocity": 0, "duration": 85}, {"note": 63, "velocity": 108, "duration": 142}, {"note": 0, "velocity": 0, "duration": 98}, {"note": 63, "velocity": 100, "duration": 71}, {"note": 67, "velocity": 109, "duration": 283}, {"note": 0, "velocity": 0, "duration": 77}, {"note": 65, "velocity": 108, "duration": 545}, {"note": 0, "velocity": 0, "duration": 295}, {"note": 58, "velocity": 105, "duration": 59}, {"note": 0, "velocity": 0, "duration": 61}, {"note": 67, "velocity": 109, "duration": 158}, {"note": 0, "velocity": 0, "duration": 82}, {"note": 68, "velocity": 97, "duration": 63}, {"note": 67, "velocity": 109, "duration": 144}, {"note": 0, "velocity": 0, "duration": 96}, {"note": 65, "velocity": 105, "duration": 147}, {"note": 0, "velocity": 0, "duration": 93}, {"note": 62, "velocity": 96, "duration": 60}, {"note": 62, "velocity": 102, "duration": 163}, {"note": 0, "velocity": 0, "duration": 77}, {"note": 65, "velocity": 94, "duration": 65}, {"note": 63, "velocity": 102, "duration": 311}, {"note": 0, "velocity": 0, "duration": 169}, {"note": 58, "velocity": 94, "duration": 70}, {"note": 60, "velocity": 92, "duration": 160}, {"note": 0, "velocity": 0, "duration": 80}, {"note": 63, "velocity": 94, "duration": 59}, {"note": 0, "velocity": 0, "duration": 61}, {"note": 65, "velocity": 102, "duration": 145}, {"note": 0, "velocity": 0, "duration": 95}, {"note": 67, "velocity": 102, "duration": 159}, {"note": 0, "velocity": 0, "duration": 81}, {"note": 58, "velocity": 111, "duration": 492}, {"note": 0, "velocity": 0, "duration": 468}, {"note": 58, "velocity": 102, "duration": 66}, {"note": 60, "velocity": 108, "duration": 153}, {"note": 0, "velocity": 0, "duration": 87}, {"note": 63, "velocity": 97, "duration": 52}, {"note": 0, "velocity": 0, "duration": 68}, {"note": 63, "velocity": 102, "duration": 141}, {"note": 0, "velocity": 0, "duration": 99}, {"note": 72, "velocity": 105, "duration": 285}, {"note": 0, "velocity": 0, "duration": 75}, {"note": 70, "velocity": 102, "duration": 1076}, {"note": 0, "velocity": 0, "duration": 124}, {"note": 63, "velocity": 102, "duration": 175}, {"note": 0, "velocity": 0, "duration": 65}, {"note": 67, "velocity": 109, "duration": 153}, {"note": 0, "velocity": 0, "duration": 87}, {"note": 75, "velocity": 114, "duration": 155}, {"note": 0, "velocity": 0, "duration": 85}, {"note": 74, "velocity": 108, "duration": 345}, {"note": 72, "velocity": 92, "duration": 478}, {"note": 0, "velocity": 0, "duration": 122}, {"note": 70, "velocity": 102, "duration": 166}, {"note": 0, "velocity": 0, "duration": 74}, {"note": 68, "velocity": 80, "duration": 55}, {"note": 0, "velocity": 0, "duration": 65}, {"note": 68, "velocity": 108, "duration": 420}, {"note": 0, "velocity": 0, "duration": 180}, {"note": 65, "velocity": 105, "duration": 163}, {"note": 0, "velocity": 0, "duration": 77}, {"note": 72, "velocity": 102, "duration": 161}, {"note": 0, "velocity": 0, "duration": 79}, {"note": 70, "velocity": 100, "duration": 66}, {"note": 65, "velocity": 100, "duration": 291}, {"note": 0, "velocity": 0, "duration": 69}, {"note": 67, "velocity": 105, "duration": 368}, {"note": 0, "velocity": 0, "duration": 112}, {"note": 63, "velocity": 105, "duration": 169}, {"note": 0, "velocity": 0, "duration": 71}, {"note": 65, "velocity": 100, "duration": 57}, {"note": 0, "velocity": 0, "duration": 63}, {"note": 67, "velocity": 105, "duration": 76}, {"note": 70, "velocity": 105, "duration": 288}, {"note": 0, "velocity": 0, "duration": 72}, {"note": 68, "velocity": 97, "duration": 304}, {"note": 0, "velocity": 0, "duration": 296}, {"note": 67, "velocity": 109, "duration": 368}, {"note": 0, "velocity": 0, "duration": 112}, {"note": 63, "velocity": 97, "duration": 286}, {"note": 0, "velocity": 0, "duration": 74}, {"note": 58, "velocity": 111, "duration": 65}, {"note": 60, "velocity": 111, "duration": 155}, {"note": 0, "velocity": 0, "duration": 85}, {"note": 67, "velocity": 105, "duration": 93}, {"note": 65, "velocity": 94, "duration": 62}, {"note": 65, "velocity": 105, "duration": 179}, {"note": 0, "velocity": 0, "duration": 61}, {"note": 63, "velocity": 94, "duration": 118}, {"note": 65, "velocity": 108, "duration": 358}, {"note": 63, "velocity": 111, "duration": 155}, {"note": 0, "velocity": 0, "duration": 85}, {"note": 67, "velocity": 109, "duration": 168}, {"note": 0, "velocity": 0, "duration": 72}, {"note": 75, "velocity": 111, "duration": 145}, {"note": 0, "velocity": 0, "duration": 95}, {"note": 74, "velocity": 105, "duration": 285}, {"note": 0, "velocity": 0, "duration": 75}, {"note": 75, "velocity": 105, "duration": 478}, {"note": 0, "velocity": 0, "duration": 122}, {"note": 77, "velocity": 111, "duration": 307}, {"note": 75, "velocity": 102, "duration": 354}, {"note": 0, "velocity": 0, "duration": 246}, {"note": 74, "velocity": 102, "duration": 172}, {"note": 0, "velocity": 0, "duration": 68}, {"note": 74, "velocity": 99, "duration": 65}, {"note": 74, "velocity": 102, "duration": 161}, {"note": 0, "velocity": 0, "duration": 79}, {"note": 74, "velocity": 99, "duration": 297}, {"note": 0, "velocity": 0, "duration": 63}, {"note": 75, "velocity": 76, "duration": 341}, {"note": 0, "velocity": 0, "duration": 139}, {"note": 63, "velocity": 111, "duration": 163}, {"note": 0, "velocity": 0, "duration": 77}, {"note": 65, "velocity": 105, "duration": 51}, {"note": 0, "velocity": 0, "duration": 69}, {"note": 67, "velocity": 99, "duration": 71}, {"note": 70, "velocity": 102, "duration": 283}, {"note": 0, "velocity": 0, "duration": 77}, {"note": 68, "velocity": 102, "duration": 326}, {"note": 67, "velocity": 105, "duration": 65}, {"note": 68, "velocity": 94, "duration": 66}, {"note": 72, "velocity": 111, "duration": 199}, {"note": 70, "velocity": 114, "duration": 147}, {"note": 0, "velocity": 0, "duration": 93}, {"note": 70, "velocity": 111, "duration": 67}, {"note": 67, "velocity": 112, "duration": 300}, {"note": 70, "velocity": 102, "duration": 958}, {"note": 0, "velocity": 0, "duration": 242}, {"note": 63, "velocity": 102, "duration": 175}, {"note": 0, "velocity": 0, "duration": 65}, {"note": 67, "velocity": 109, "duration": 153}, {"note": 0, "velocity": 0, "duration": 87}, {"note": 75, "velocity": 114, "duration": 155}, {"note": 0, "velocity": 0, "duration": 85}, {"note": 74, "velocity": 108, "duration": 345}, {"note": 72, "velocity": 92, "duration": 478}, {"note": 0, "velocity": 0, "duration": 122}, {"note": 70, "velocity": 102, "duration": 166}, {"note": 0, "velocity": 0, "duration": 74}, {"note": 68, "velocity": 80, "duration": 55}, {"note": 0, "velocity": 0, "duration": 65}, {"note": 68, "velocity": 108, "duration": 420}, {"note": 0, "velocity": 0, "duration": 180}, {"note": 65, "velocity": 105, "duration": 163}, {"note": 0, "velocity": 0, "duration": 77}, {"note": 72, "velocity": 102, "duration": 161}, {"note": 0, "velocity": 0, "duration": 79}, {"note": 70, "velocity": 100, "duration": 66}, {"note": 65, "velocity": 100, "duration": 291}, {"note": 0, "velocity": 0, "duration": 69}, {"note": 67, "velocity": 105, "duration": 368}, {"note": 0, "velocity": 0, "duration": 112}, {"note": 63, "velocity": 105, "duration": 169}, {"note": 0, "velocity": 0, "duration": 71}, {"note": 65, "velocity": 100, "duration": 57}, {"note": 0, "velocity": 0, "duration": 63}, {"note": 67, "velocity": 105, "duration": 76}, {"note": 70, "velocity": 105, "duration": 288}, {"note": 0, "velocity": 0, "duration": 72}, {"note": 68, "velocity": 97, "duration": 304}, {"note": 0, "velocity": 0, "duration": 296}, {"note": 67, "velocity": 109, "duration": 368}, {"note": 0, "velocity": 0, "duration": 112}, {"note": 63, "velocity": 97, "duration": 286}, {"note": 0, "velocity": 0, "duration": 74}, {"note": 58, "velocity": 111, "duration": 65}, {"note": 60, "velocity": 111, "duration": 155}, {"note": 0, "velocity": 0, "duration": 85}, {"note": 67, "velocity": 105, "duration": 93}, {"note": 65, "velocity": 94, "duration": 62}, {"note": 65, "velocity": 105, "duration": 179}, {"note": 0, "velocity": 0, "duration": 61}, {"note": 63, "velocity": 94, "duration": 118}, {"note": 65, "velocity": 108, "duration": 358}, {"note": 63, "velocity": 111, "duration": 155}, {"note": 0, "velocity": 0, "duration": 85}, {"note": 67, "velocity": 109, "duration": 168}, {"note": 0, "velocity": 0, "duration": 72}, {"note": 75, "velocity": 111, "duration": 145}, {"note": 0, "velocity": 0, "duration": 95}, {"note": 74, "velocity": 105, "duration": 285}, {"note": 0, "velocity": 0, "duration": 75}, {"note": 75, "velocity": 105, "duration": 478}, {"note": 0, "velocity": 0, "duration": 122}, {"note": 77, "velocity": 111, "duration": 307}, {"note": 75, "velocity": 102, "duration": 354}, {"note": 0, "velocity": 0, "duration": 126}, {"note": 75, "velocity": 100, "duration": 118}, {"note": 74, "velocity": 102, "duration": 172}, {"note": 0, "velocity": 0, "duration": 68}, {"note": 70, "velocity": 99, "duration": 65}, {"note": 70, "velocity": 102, "duration": 161}, {"note": 0, "velocity": 0, "duration": 79}, {"note": 77, "velocity": 111, "duration": 308}, {"note": 75, "velocity": 97, "duration": 312}, {"note": 0, "velocity": 0, "duration": 168}, {"note": 63, "velocity": 84, "duration": 147}, {"note": 0, "velocity": 0, "duration": 93}, {"note": 65, "velocity": 108, "duration": 65}, {"note": 67, "velocity": 96, "duration": 74}, {"note": 67, "velocity": 99, "duration": 262}, {"note": 0, "velocity": 0, "duration": 98}, {"note": 60, "velocity": 105, "duration": 294}, {"note": 0, "velocity": 0, "duration": 186}, {"note": 60, "velocity": 111, "duration": 56}, {"note": 0, "velocity": 0, "duration": 64}, {"note": 58, "velocity": 100, "duration": 160}, {"note": 0, "velocity": 0, "duration": 80}, {"note": 63, "velocity": 108, "duration": 188}, {"note": 62, "velocity": 109, "duration": 63}, {"note": 65, "velocity": 92, "duration": 285}, {"note": 0, "velocity": 0, "duration": 75}, {"note": 63, "velocity": 108, "duration": 958}, {"note": 0, "velocity": 0, "duration": 242}, {"note": 63, "velocity": 102, "duration": 175}, {"note": 0, "velocity": 0, "duration": 65}, {"note": 67, "velocity": 109, "duration": 153}, {"note": 0, "velocity": 0, "duration": 87}, {"note": 75, "velocity": 114, "duration": 155}, {"note": 0, "velocity": 0, "duration": 85}, {"note": 74, "velocity": 108, "duration": 345}, {"note": 72, "velocity": 92, "duration": 478}, {"note": 0, "velocity": 0, "duration": 122}, {"note": 70, "velocity": 102, "duration": 166}, {"note": 0, "velocity": 0, "duration": 74}, {"note": 68, "velocity": 80, "duration": 55}, {"note": 0, "velocity": 0, "duration": 65}, {"note": 68, "velocity": 108, "duration": 420}, {"note": 0, "velocity": 0, "duration": 180}, {"note": 65, "velocity": 105, "duration": 163}, {"note": 0, "velocity": 0, "duration": 77}, {"note": 72, "velocity": 102, "duration": 161}, {"note": 0, "velocity": 0, "duration": 79}, {"note": 70, "velocity": 100, "duration": 66}, {"note": 65, "velocity": 100, "duration": 291}, {"note": 0, "velocity": 0, "duration": 69}, {"note": 67, "velocity": 105, "duration": 368}, {"note": 0, "velocity": 0, "duration": 112}, {"note": 63, "velocity": 105, "duration": 169}, {"note": 0, "velocity": 0, "duration": 71}, {"note": 65, "velocity": 100, "duration": 57}, {"note": 0, "velocity": 0, "duration": 63}, {"note": 67, "velocity": 105, "duration": 76}, {"note": 70, "velocity": 105, "duration": 288}, {"note": 0, "velocity": 0, "duration": 72}, {"note": 68, "velocity": 97, "duration": 304}, {"note": 0, "velocity": 0, "duration": 296}, {"note": 67, "velocity": 109, "duration": 368}, {"note": 0, "velocity": 0, "duration": 112}, {"note": 63, "velocity": 97, "duration": 286}, {"note": 0, "velocity": 0, "duration": 74}, {"note": 58, "velocity": 111, "duration": 65}, {"note": 60, "velocity": 111, "duration": 155}, {"note": 0, "velocity": 0, "duration": 85}, {"note": 67, "velocity": 105, "duration": 93}, {"note": 65, "velocity": 94, "duration": 62}, {"note": 65, "velocity": 105, "duration": 179}, {"note": 0, "velocity": 0, "duration": 61}, {"note": 63, "velocity": 94, "duration": 118}, {"note": 65, "velocity": 108, "duration": 358}, {"note": 63, "velocity": 111, "duration": 155}, {"note": 0, "velocity": 0, "duration": 85}, {"note": 67, "velocity": 109, "duration": 168}, {"note": 0, "velocity": 0, "duration": 72}, {"note": 75, "velocity": 111, "duration": 145}, {"note": 0, "velocity": 0, "duration": 95}, {"note": 74, "velocity": 105, "duration": 285}, {"note": 0, "velocity": 0, "duration": 75}, {"note": 75, "velocity": 105, "duration": 478}, {"note": 0, "velocity": 0, "duration": 122}, {"note": 77, "velocity": 111, "duration": 307}, {"note": 75, "velocity": 102, "duration": 354}, {"note": 0, "velocity": 0, "duration": 126}, {"note": 75, "velocity": 100, "duration": 118}, {"note": 74, "velocity": 102, "duration": 172}, {"note": 0, "velocity": 0, "duration": 68}, {"note": 70, "velocity": 99, "duration": 65}, {"note": 70, "velocity": 102, "duration": 161}, {"note": 0, "velocity": 0, "duration": 79}, {"note": 77, "velocity": 111, "duration": 308}, {"note": 75, "velocity": 97, "duration": 312}, {"note": 0, "velocity": 0, "duration": 168}, {"note": 63, "velocity": 84, "duration": 147}, {"note": 0, "velocity": 0, "duration": 93}, {"note": 65, "velocity": 108, "duration": 65}, {"note": 67, "velocity": 96, "duration": 74}, {"note": 67, "velocity": 99, "duration": 262}, {"note": 0, "velocity": 0, "duration": 98}, {"note": 60, "velocity": 105, "duration": 294}, {"note": 0, "velocity": 0, "duration": 186}, {"note": 60, "velocity": 111, "duration": 56}, {"note": 0, "velocity": 0, "duration": 64}, {"note": 58, "velocity": 100, "duration": 160}, {"note": 0, "velocity": 0, "duration": 80}, {"note": 63, "velocity": 108, "duration": 188}, {"note": 62, "velocity": 109, "duration": 63}, {"note": 65, "velocity": 92, "duration": 285}, {"note": 0, "velocity": 0, "duration": 75}, {"note": 63, "velocity": 108, "duration": 1419}, {"note": 63, "velocity": 84, "duration": 147}, {"note": 0, "velocity": 0, "duration": 93}, {"note": 65, "velocity": 108, "duration": 65}, {"note": 67, "velocity": 96, "duration": 74}, {"note": 67, "velocity": 99, "duration": 262}, {"note": 0, "velocity": 0, "duration": 98}, {"note": 60, "velocity": 105, "duration": 294}, {"note": 0, "velocity": 0, "duration": 186}, {"note": 60, "velocity": 111, "duration": 56}, {"note": 0, "velocity": 0, "duration": 64}, {"note": 58, "velocity": 100, "duration": 160}, {"note": 0, "velocity": 0, "duration": 80}, {"note": 62, "velocity": 108, "duration": 188}, {"note": 62, "velocity": 109, "duration": 63}, {"note": 65, "velocity": 92, "duration": 285}, {"note": 0, "velocity": 0, "duration": 75}, {"note": 63, "velocity": 108, "duration": 1419}]]