[[{"note": 58, "velocity": 111, "duration": 52}, {"note": 0, "velocity": 0, "duration": 68}, {"note": 60, "velocity": 105, "duration": 56}, {"note": 0, "velocity": 0, "duration": 64}, {"note": 65, "velocity": 100, "duration": 57}, {"note": 0, "velocity": 0, "duration": 63}, {"note": 65, "velocity": 92, "duration": 52}, {"note": 0, "velocity": 0, "duration": 68}, {"note": 65, "velocity": 89, "duration": 65}, {"note": 63, "velocity": 76, "duration": 50}, {"note": 0, "velocity": 0, "duration": 70}, {"note": 65, "velocity": 89, "duration": 61}, {"note": 63, "velocity": 102, "duration": 223}, {"note": 0, "velocity": 0, "duration": 137}, {"note": 65, "velocity": 108, "duration": 61}, {"note": 65, "velocity": 102, "duration": 52}, {"note": 0, "velocity": 0, "duration": 68}, {"note": 65, "velocity": 108, "duration": 60}, {"note": 67, "velocity": 109, "duration": 79}, {"note": 65, "velocity": 117, "duration": 169}, {"note": 0, "velocity": 0, "duration": 71}, {"note": 63, "velocity": 111, "duration": 68}, {"note": 60, "velocity": 114, "duration": 193}, {"note": 63, "velocity": 97, "duration": 832}, {"note": 0, "velocity": 0, "duration": 728}, {"note": 58, "velocity": 111, "duration": 49}, {"note": 0, "velocity": 0, "duration": 71}, {"note": 60, "velocity": 108, "duration": 53}, {"note": 0, "velocity": 0, "duration": 67}, {"note": 65, "velocity": 105, "duration": 158}, {"note": 0, "velocity": 0, "duration": 82}, {"note": 65, "velocity": 100, "duration": 64}, {"note": 63, "velocity": 92, "duration": 55}, {"note": 0, "velocity": 0, "duration": 65}, {"note": 65, "velocity": 102, "duration": 160}, {"note": 0, "velocity": 0, "duration": 80}, {"note": 63, "velocity": 97, "duration": 170}, {"note": 0, "velocity": 0, "duration": 70}, {"note": 65, "velocity": 102, "duration": 45}, {"note": 0, "velocity": 0, "duration": 75}, {"note": 65, "velocity": 105, "duration": 55}, {"note": 0, "velocity": 0, "duration": 65}, {"note": 65, "velocity": 111, "duration": 72}, {"note": 67, "velocity": 109, "duration": 76}, {"note": 65, "velocity": 64, "duration": 171}, {"note": 0, "velocity": 0, "duration": 69}, {"note": 63, "velocity": 102, "duration": 80}, {"note": 60, "velocity": 108, "duration": 194}, {"note": 67, "velocity": 105, "duration": 843}, {"note": 0, "velocity": 0, "duration": 717}, {"note": 67, "velocity": 102, "duration": 67}, {"note": 70, "velocity": 105, "duration": 52}, {"note": 0, "velocity": 0, "duration": 68}, {"note": 72, "velocity": 84, "duration": 71}, {"note": 72, "velocity": 105, "duration": 48}, {"note": 0, "velocity": 0, "duration": 72}, {"note": 72, "velocity": 97, "duration": 52}, {"note": 0, "velocity": 0, "duration": 68}, {"note": 72, "velocity": 102, "duration": 50}, {"note": 0, "velocity": 0, "duration": 70}, {"note": 72, "velocity": 111, "duration": 169}, {"note": 0, "velocity": 0, "duration": 71}, {"note": 72, "velocity": 108, "duration": 85}, {"note": 0, "velocity": 0, "duration": 155}, {"note": 75, "velocity": 105, "duration": 156}, {"note": 0, "velocity": 0, "duration": 84}, {"note": 75, "velocity": 102, "duration": 80}, {"note": 72, "velocity": 108, "duration": 63}, {"note": 72, "velocity": 117, "duration": 181}, {"note": 70, "velocity": 111, "duration": 92}, {"note": 0, "velocity": 0, "duration": 148}, {"note": 72, "velocity": 105, "duration": 189}, {"note": 70, "velocity": 114, "duration": 244}, {"note": 0, "velocity": 0, "duration": 236}, {"note": 65, "velocity": 105, "duration": 197}, {"note": 67, "velocity": 99, "duration": 557}, {"note": 0, "velocity": 0, "duration": 163}, {"note": 58, "velocity": 92, "duration": 85}, {"note": 60, "velocity": 105, "duration": 68}, {"note": 65, "velocity": 51, "duration": 80}, {"note": 65, "velocity": 97, "duration": 60}, {"note": 65, "velocity": 105, "duration": 65}, {"note": 63, "velocity": 89, "duration": 73}, {"note": 65, "velocity": 102, "duration": 156}, {"note": 0, "velocity": 0, "duration": 84}, {"note": 63, "velocity": 100, "duration": 186}, {"note": 65, "velocity": 108, "duration": 60}, {"note": 65, "velocity": 102, "duration": 53}, {"note": 0, "velocity": 0, "duration": 67}, {"note": 65, "velocity": 102, "duration": 60}, {"note": 67, "velocity": 100, "duration": 58}, {"note": 0, "velocity": 0, "duration": 62}, {"note": 65, "velocity": 111, "duration": 162}, {"note": 0, "velocity": 0, "duration": 78}, {"note": 67, "velocity": 102, "duration": 174}, {"note": 0, "velocity": 0, "duration": 66}, {"note": 65, "velocity": 108, "duration": 213}, {"note": 63, "velocity": 111, "duration": 525}, {"note": 0, "velocity": 0, "duration": 555}, {"note": 65, "velocity": 108, "duration": 75}, {"note": 67, "velocity": 112, "duration": 160}, {"note": 0, "velocity": 0, "duration": 80}, {"note": 70, "velocity": 105, "duration": 173}, {"note": 72, "velocity": 108, "duration": 653}, {"note": 0, "velocity": 0, "duration": 252}, {"note": 67, "velocity": 109, "duration": 144}, {"note": 0, "velocity": 0, "duration": 89}, {"note": 70, "velocity": 102, "duration": 536}, {"note": 0, "velocity": 0, "duration": 194}, {"note": 70, "velocity": 111, "duration": 75}, {"note": 72, "velocity": 108, "duration": 138}, {"note": 0, "velocity": 0, "duration": 102}, {"note": 72, "velocity": 105, "duration": 60}, {"note": 72, "velocity": 108, "duration": 59}, {"note": 0, "velocity": 0, "duration": 61}, {"note": 70, "velocity": 111, "duration": 147}, {"note": 0, "velocity": 0, "duration": 93}, {"note": 67, "velocity": 99, "duration": 79}, {"note": 65, "velocity": 108, "duration": 180}, {"note": 67, "velocity": 105, "duration": 277}, {"note": 0, "velocity": 0, "duration": 83}, {"note": 67, "velocity": 112, "duration": 183}, {"note": 70, "velocity": 111, "duration": 165}, {"note": 0, "velocity": 0, "duration": 75}, {"note": 72, "velocity": 105, "duration": 646}, {"note": 0, "velocity": 0, "duration": 74}, {"note": 74, "velocity": 105, "duration": 189}, {"note": 72, "velocity": 111, "duration": 234}, {"note": 70, "velocity": 108, "duration": 340}, {"note": 0, "velocity": 0, "duration": 260}, {"note": 70, "velocity": 97, "duration": 75}, {"note": 72, "velocity": 114, "duration": 178}, {"note": 0, "velocity": 0, "duration": 62}, {"note": 72, "velocity": 102, "duration": 60}, {"note": 72, "velocity": 105, "duration": 56}, {"note": 0, "velocity": 0, "duration": 64}, {"note": 72, "velocity": 114, "duration": 160}, {"note": 0, "velocity": 0, "duration": 80}, {"note": 70, "velocity": 111, "duration": 59}, {"note": 0, "velocity": 0, "duration": 61}, {"note": 72, "velocity": 111, "duration": 203}, {"note": 70, "velocity": 117, "duration": 812}, {"note": 0, "velocity": 0, "duration": 748}, {"note": 70, "velocity": 111, "duration": 69}, {"note": 72, "velocity": 114, "duration": 47}, {"note": 0, "velocity": 0, "duration": 73}, {"note": 79, "velocity": 116, "duration": 158}, {"note": 0, "velocity": 0, "duration": 82}, {"note": 77, "velocity": 108, "duration": 62}, {"note": 75, "velocity": 100, "duration": 85}, {"note": 72, "velocity": 111, "duration": 152}, {"note": 0, "velocity": 0, "duration": 88}, {"note": 67, "velocity": 105, "duration": 199}, {"note": 70, "velocity": 102, "duration": 626}, {"note": 0, "velocity": 0, "duration": 94}, {"note": 70, "velocity": 117, "duration": 63}, {"note": 72, "velocity": 108, "duration": 53}, {"note": 0, "velocity": 0, "duration": 67}, {"note": 79, "velocity": 112, "duration": 161}, {"note": 0, "velocity": 0, "duration": 79}, {"note": 77, "velocity": 102, "duration": 61}, {"note": 75, "velocity": 102, "duration": 52}, {"note": 0, "velocity": 0, "duration": 68}, {"note": 72, "velocity": 114, "duration": 151}, {"note": 0, "velocity": 0, "duration": 89}, {"note": 67, "velocity": 109, "duration": 178}, {"note": 0, "velocity": 0, "duration": 62}, {"note": 70, "velocity": 105, "duration": 550}, {"note": 0, "velocity": 0, "duration": 170}, {"note": 70, "velocity": 111, "duration": 53}, {"note": 0, "velocity": 0, "duration": 67}, {"note": 72, "velocity": 111, "duration": 59}, {"note": 0, "velocity": 0, "duration": 61}, {"note": 79, "velocity": 109, "duration": 164}, {"note": 0, "velocity": 0, "duration": 76}, {"note": 77, "velocity": 100, "duration": 71}, {"note": 75, "velocity": 111, "duration": 59}, {"note": 0, "velocity": 0, "duration": 61}, {"note": 75, "velocity": 114, "duration": 175}, {"note": 0, "velocity": 0, "duration": 65}, {"note": 72, "velocity": 111, "duration": 69}, {"note": 70, "velocity": 108, "duration": 68}, {"note": 79, "velocity": 109, "duration": 162}, {"note": 0, "velocity": 0, "duration": 78}, {"note": 77, "velocity": 102, "duration": 76}, {"note": 75, "velocity": 92, "duration": 61}, {"note": 75, "velocity": 114, "duration": 178}, {"note": 0, "velocity": 0, "duration": 62}, {"note": 72, "velocity": 94, "duration": 69}, {"note": 70, "velocity": 114, "duration": 80}, {"note": 79, "velocity": 109, "duration": 171}, {"note": 0, "velocity": 0, "duration": 69}, {"note": 77, "velocity": 108, "duration": 57}, {"note": 0, "velocity": 0, "duration": 63}, {"note": 75, "velocity": 100, "duration": 61}, {"note": 75, "velocity": 108, "duration": 206}, {"note": 72, "velocity": 114, "duration": 118}, {"note": 77, "velocity": 105, "duration": 506}, {"note": 0, "velocity": 0, "duration": 334}, {"note": 70, "velocity": 111, "duration": 49}, {"note": 0, "velocity": 0, "duration": 71}, {"note": 72, "velocity": 111, "duration": 41}, {"note": 0, "velocity": 0, "duration": 79}, {"note": 79, "velocity": 116, "duration": 152}, {"note": 0, "velocity": 0, "duration": 88}, {"note": 77, "velocity": 100, "duration": 57}, {"note": 0, "velocity": 0, "duration": 63}, {"note": 75, "velocity": 100, "duration": 65}, {"note": 72, "velocity": 117, "duration": 165}, {"note": 0, "velocity": 0, "duration": 75}, {"note": 67, "velocity": 105, "duration": 170}, {"note": 0, "velocity": 0, "duration": 70}, {"note": 70, "velocity": 105, "duration": 634}, {"note": 0, "velocity": 0, "duration": 86}, {"note": 70, "velocity": 114, "duration": 49}, {"note": 0, "velocity": 0, "duration": 71}, {"note": 72, "velocity": 111, "duration": 49}, {"note": 0, "velocity": 0, "duration": 71}, {"note": 79, "velocity": 109, "duration": 170}, {"note": 0, "velocity": 0, "duration": 70}, {"note": 77, "velocity": 100, "duration": 61}, {"note": 75, "velocity": 87, "duration": 67}, {"note": 72, "velocity": 105, "duration": 198}, {"note": 67, "velocity": 109, "duration": 187}, {"note": 70, "velocity": 108, "duration": 641}, {"note": 0, "velocity": 0, "duration": 79}, {"note": 70, "velocity": 114, "duration": 52}, {"note": 0, "velocity": 0, "duration": 68}, {"note": 72, "velocity": 111, "duration": 47}, {"note": 0, "velocity": 0, "duration": 73}, {"note": 79, "velocity": 112, "duration": 177}, {"note": 0, "velocity": 0, "duration": 63}, {"note": 77, "velocity": 100, "duration": 60}, {"note": 75, "velocity": 108, "duration": 55}, {"note": 0, "velocity": 0, "duration": 65}, {"note": 75, "velocity": 111, "duration": 171}, {"note": 0, "velocity": 0, "duration": 69}, {"note": 72, "velocity": 114, "duration": 64}, {"note": 70, "velocity": 111, "duration": 48}, {"note": 0, "velocity": 0, "duration": 72}, {"note": 79, "velocity": 105, "duration": 159}, {"note": 0, "velocity": 0, "duration": 81}, {"note": 77, "velocity": 92, "duration": 73}, {"note": 75, "velocity": 92, "duration": 63}, {"note": 75, "velocity": 114, "duration": 181}, {"note": 72, "velocity": 108, "duration": 55}, {"note": 0, "velocity": 0, "duration": 65}, {"note": 70, "velocity": 111, "duration": 93}, {"note": 79, "velocity": 105, "duration": 191}, {"note": 77, "velocity": 102, "duration": 63}, {"note": 75, "velocity": 105, "duration": 59}, {"note": 0, "velocity": 0, "duration": 61}, {"note": 75, "velocity": 108, "duration": 189}, {"note": 77, "velocity": 108, "duration": 173}, {"note": 0, "velocity": 0, "duration": 67}, {"note": 75, "velocity": 111, "duration": 1288}, {"note": 0, "velocity": 0, "duration": 9992}, {"note": 58, "velocity": 111, "duration": 52}, {"note": 0, "velocity": 0, "duration": 68}, {"note": 60, "velocity": 105, "duration": 56}, {"note": 0, "velocity": 0, "duration": 64}, {"note": 65, "velocity": 100, "duration": 57}, {"note": 0, "velocity": 0, "duration": 63}, {"note": 65, "velocity": 92, "duration": 52}, {"note": 0, "velocity": 0, "duration": 68}, {"note": 65, "velocity": 89, "duration": 65}, {"note": 63, "velocity": 76, "duration": 50}, {"note": 0, "velocity": 0, "duration": 70}, {"note": 65, "velocity": 89, "duration": 61}, {"note": 63, "velocity": 102, "duration": 223}, {"note": 0, "velocity": 0, "duration": 137}, {"note": 65, "velocity": 108, "duration": 61}, {"note": 65, "velocity": 102, "duration": 52}, {"note": 0, "velocity": 0, "duration": 68}, {"note": 65, "velocity": 108, "duration": 60}, {"note": 67, "velocity": 109, "duration": 79}, {"note": 65, "velocity": 117, "duration": 169}, {"note": 0, "velocity": 0, "duration": 71}, {"note": 63, "velocity": 111, "duration": 68}, {"note": 60, "velocity": 114, "duration": 193}, {"note": 63, "velocity": 97, "duration": 832}, {"note": 0, "velocity": 0, "duration": 728}, {"note": 58, "velocity": 111, "duration": 49}, {"note": 0, "velocity": 0, "duration": 71}, {"note": 60, "velocity": 108, "duration": 53}, {"note": 0, "velocity": 0, "duration": 67}, {"note": 65, "velocity": 105, "duration": 158}, {"note": 0, "velocity": 0, "duration": 82}, {"note": 65, "velocity": 100, "duration": 64}, {"note": 63, "velocity": 92, "duration": 55}, {"note": 0, "velocity": 0, "duration": 65}, {"note": 65, "velocity": 102, "duration": 160}, {"note": 0, "velocity": 0, "duration": 80}, {"note": 63, "velocity": 97, "duration": 170}, {"note": 0, "velocity": 0, "duration": 70}, {"note": 65, "velocity": 102, "duration": 45}, {"note": 0, "velocity": 0, "duration": 75}, {"note": 65, "velocity": 105, "duration": 55}, {"note": 0, "velocity": 0, "duration": 65}, {"note": 65, "velocity": 111, "duration": 72}, {"note": 67, "velocity": 109, "duration": 76}, {"note": 65, "velocity": 64, "duration": 171}, {"note": 0, "velocity": 0, "duration": 69}, {"note": 63, "velocity": 102, "duration": 80}, {"note": 60, "velocity": 108, "duration": 194}, {"note": 67, "velocity": 105, "duration": 843}, {"note": 0, "velocity": 0, "duration": 717}, {"note": 67, "velocity": 102, "duration": 67}, {"note": 70, "velocity": 105, "duration": 52}, {"note": 0, "velocity": 0, "duration": 68}, {"note": 72, "velocity": 84, "duration": 71}, {"note": 72, "velocity": 105, "duration": 48}, {"note": 0, "velocity": 0, "duration": 72}, {"note": 72, "velocity": 97, "duration": 52}, {"note": 0, "velocity": 0, "duration": 68}, {"note": 72, "velocity": 102, "duration": 50}, {"note": 0, "velocity": 0, "duration": 70}, {"note": 72, "velocity": 111, "duration": 169}, {"note": 0, "velocity": 0, "duration": 71}, {"note": 72, "velocity": 108, "duration": 85}, {"note": 0, "velocity": 0, "duration": 155}, {"note": 75, "velocity": 105, "duration": 156}, {"note": 0, "velocity": 0, "duration": 84}, {"note": 75, "velocity": 102, "duration": 80}, {"note": 72, "velocity": 108, "duration": 63}, {"note": 72, "velocity": 117, "duration": 181}, {"note": 70, "velocity": 111, "duration": 92}, {"note": 0, "velocity": 0, "duration": 148}, {"note": 72, "velocity": 105, "duration": 189}, {"note": 70, "velocity": 114, "duration": 244}, {"note": 0, "velocity": 0, "duration": 236}, {"note": 65, "velocity": 105, "duration": 197}, {"note": 67, "velocity": 99, "duration": 557}, {"note": 0, "velocity": 0, "duration": 163}, {"note": 58, "velocity": 92, "duration": 85}, {"note": 60, "velocity": 105, "duration": 68}, {"note": 65, "velocity": 51, "duration": 80}, {"note": 65, "velocity": 97, "duration": 60}, {"note": 65, "velocity": 105, "duration": 65}, {"note": 63, "velocity": 89, "duration": 73}, {"note": 65, "velocity": 102, "duration": 156}, {"note": 0, "velocity": 0, "duration": 84}, {"note": 63, "velocity": 100, "duration": 186}, {"note": 65, "velocity": 108, "duration": 60}, {"note": 65, "velocity": 102, "duration": 53}, {"note": 0, "velocity": 0, "duration": 67}, {"note": 65, "velocity": 102, "duration": 60}, {"note": 67, "velocity": 100, "duration": 58}, {"note": 0, "velocity": 0, "duration": 62}, {"note": 65, "velocity": 111, "duration": 162}, {"note": 0, "velocity": 0, "duration": 78}, {"note": 67, "velocity": 102, "duration": 174}, {"note": 0, "velocity": 0, "duration": 66}, {"note": 65, "velocity": 108, "duration": 213}, {"note": 63, "velocity": 111, "duration": 525}, {"note": 0, "velocity": 0, "duration": 555}, {"note": 65, "velocity": 108, "duration": 75}, {"note": 67, "velocity": 112, "duration": 160}, {"note": 0, "velocity": 0, "duration": 80}, {"note": 70, "velocity": 105, "duration": 173}, {"note": 72, "velocity": 108, "duration": 653}, {"note": 0, "velocity": 0, "duration": 310}, {"note": 67, "velocity": 109, "duration": 183}, {"note": 70, "velocity": 102, "duration": 420}, {"note": 0, "velocity": 0, "duration": 304}, {"note": 70, "velocity": 111, "duration": 75}, {"note": 72, "velocity": 108, "duration": 138}, {"note": 0, "velocity": 0, "duration": 102}, {"note": 72, "velocity": 105, "duration": 60}, {"note": 72, "velocity": 108, "duration": 59}, {"note": 0, "velocity": 0, "duration": 61}, {"note": 70, "velocity": 111, "duration": 147}, {"note": 0, "velocity": 0, "duration": 93}, {"note": 67, "velocity": 99, "duration": 79}, {"note": 65, "velocity": 108, "duration": 180}, {"note": 67, "velocity": 105, "duration": 277}, {"note": 0, "velocity": 0, "duration": 83}, {"note": 67, "velocity": 112, "duration": 183}, {"note": 70, "velocity": 111, "duration": 165}, {"note": 0, "velocity": 0, "duration": 75}, {"note": 72, "velocity": 105, "duration": 646}, {"note": 0, "velocity": 0, "duration": 74}, {"note": 74, "velocity": 105, "duration": 189}, {"note": 72, "velocity": 111, "duration": 234}, {"note": 70, "velocity": 108, "duration": 340}, {"note": 0, "velocity": 0, "duration": 260}, {"note": 70, "velocity": 97, "duration": 75}, {"note": 72, "velocity": 114, "duration": 178}, {"note": 0, "velocity": 0, "duration": 62}, {"note": 72, "velocity": 102, "duration": 60}, {"note": 72, "velocity": 105, "duration": 56}, {"note": 0, "velocity": 0, "duration": 64}, {"note": 72, "velocity": 114, "duration": 160}, {"note": 0, "velocity": 0, "duration": 80}, {"note": 70, "velocity": 111, "duration": 59}, {"note": 0, "velocity": 0, "duration": 61}, {"note": 72, "velocity": 111, "duration": 203}, {"note": 70, "velocity": 117, "duration": 449}, {"note": 0, "velocity": 0, "duration": 151}, {"note": 70, "velocity": 111, "duration": 69}, {"note": 72, "velocity": 114, "duration": 47}, {"note": 0, "velocity": 0, "duration": 73}, {"note": 79, "velocity": 116, "duration": 158}, {"note": 0, "velocity": 0, "duration": 82}, {"note": 77, "velocity": 108, "duration": 62}, {"note": 75, "velocity": 100, "duration": 85}, {"note": 72, "velocity": 111, "duration": 152}, {"note": 0, "velocity": 0, "duration": 88}, {"note": 67, "velocity": 105, "duration": 199}, {"note": 70, "velocity": 102, "duration": 626}, {"note": 0, "velocity": 0, "duration": 94}, {"note": 70, "velocity": 117, "duration": 63}, {"note": 72, "velocity": 108, "duration": 53}, {"note": 0, "velocity": 0, "duration": 67}, {"note": 79, "velocity": 112, "duration": 161}, {"note": 0, "velocity": 0, "duration": 79}, {"note": 77, "velocity": 102, "duration": 61}, {"note": 75, "velocity": 102, "duration": 52}, {"note": 0, "velocity": 0, "duration": 68}, {"note": 72, "velocity": 114, "duration": 151}, {"note": 0, "velocity": 0, "duration": 89}, {"note": 67, "velocity": 109, "duration": 178}, {"note": 0, "velocity": 0, "duration": 62}, {"note": 70, "velocity": 105, "duration": 550}, {"note": 0, "velocity": 0, "duration": 170}, {"note": 70, "velocity": 111, "duration": 53}, {"note": 0, "velocity": 0, "duration": 67}, {"note": 72, "velocity": 111, "duration": 59}, {"note": 0, "velocity": 0, "duration": 61}, {"note": 79, "velocity": 109, "duration": 164}, {"note": 0, "velocity": 0, "duration": 76}, {"note": 77, "velocity": 100, "duration": 71}, {"note": 75, "velocity": 111, "duration": 59}, {"note": 0, "velocity": 0, "duration": 61}, {"note": 75, "velocity": 114, "duration": 175}, {"note": 0, "velocity": 0, "duration": 65}, {"note": 72, "velocity": 111, "duration": 69}, {"note": 70, "velocity": 108, "duration": 68}, {"note": 79, "velocity": 109, "duration": 162}, {"note": 0, "velocity": 0, "duration": 78}, {"note": 77, "velocity": 102, "duration": 76}, {"note": 75, "velocity": 92, "duration": 61}, {"note": 75, "velocity": 114, "duration": 178}, {"note": 0, "velocity": 0, "duration": 62}, {"note": 72, "velocity": 94, "duration": 69}, {"note": 70, "velocity": 114, "duration": 80}, {"note": 79, "velocity": 109, "duration": 171}, {"note": 0, "velocity": 0, "duration": 69}, {"note": 77, "velocity": 108, "duration": 57}, {"note": 0, "velocity": 0, "duration": 63}, {"note": 75, "velocity": 100, "duration": 61}, {"note": 75, "velocity": 108, "duration": 206}, {"note": 72, "velocity": 114, "duration": 118}, {"note": 77, "velocity": 105, "duration": 506}, {"note": 0, "velocity": 0, "duration": 334}, {"note": 70, "velocity": 111, "duration": 49}, {"note": 0, "velocity": 0, "duration": 71}, {"note": 72, "velocity": 111, "duration": 41}, {"note": 0, "velocity": 0, "duration": 79}, {"note": 79, "velocity": 116, "duration": 152}, {"note": 0, "velocity": 0, "duration": 88}, {"note": 77, "velocity": 100, "duration": 57}, {"note": 0, "velocity": 0, "duration": 63}, {"note": 75, "velocity": 100, "duration": 65}, {"note": 72, "velocity": 117, "duration": 165}, {"note": 0, "velocity": 0, "duration": 75}, {"note": 67, "velocity": 105, "duration": 170}, {"note": 0, "velocity": 0, "duration": 70}, {"note": 70, "velocity": 105, "duration": 634}, {"note": 0, "velocity": 0, "duration": 86}, {"note": 70, "velocity": 114, "duration": 49}, {"note": 0, "velocity": 0, "duration": 71}, {"note": 72, "velocity": 111, "duration": 49}, {"note": 0, "velocity": 0, "duration": 71}, {"note": 79, "velocity": 109, "duration": 170}, {"note": 0, "velocity": 0, "duration": 70}, {"note": 77, "velocity": 100, "duration": 61}, {"note": 75, "velocity": 87, "duration": 67}, {"note": 72, "velocity": 105, "duration": 198}, {"note": 67, "velocity": 109, "duration": 187}, {"note": 70, "velocity": 108, "duration": 641}, {"note": 0, "velocity": 0, "duration": 79}, {"note": 70, "velocity": 114, "duration": 52}, {"note": 0, "velocity": 0, "duration": 68}, {"note": 72, "velocity": 111, "duration": 47}, {"note": 0, "velocity": 0, "duration": 73}, {"note": 79, "velocity": 112, "duration": 177}, {"note": 0, "velocity": 0, "duration": 63}, {"note": 77, "velocity": 100, "duration": 60}, {"note": 75, "velocity": 108, "duration": 55}, {"note": 0, "velocity": 0, "duration": 65}, {"note": 75, "velocity": 111, "duration": 171}, {"note": 0, "velocity": 0, "duration": 69}, {"note": 72, "velocity": 114, "duration": 64}, {"note": 70, "velocity": 111, "duration": 48}, {"note": 0, "velocity": 0, "duration": 72}, {"note": 79, "velocity": 105, "duration": 159}, {"note": 0, "velocity": 0, "duration": 81}, {"note": 77, "velocity": 92, "duration": 73}, {"note": 75, "velocity": 92, "duration": 63}, {"note": 75, "velocity": 114, "duration": 181}, {"note": 72, "velocity": 108, "duration": 55}, {"note": 0, "velocity": 0, "duration": 65}, {"note": 70, "velocity": 111, "duration": 93}, {"note": 79, "velocity": 105, "duration": 191}, {"note": 77, "velocity": 102, "duration": 63}, {"note": 75, "velocity": 105, "duration": 59}, {"note": 0, "velocity": 0, "duration": 61}, {"note": 75, "velocity": 108, "duration": 189}, {"note": 77, "velocity": 108, "duration": 173}, {"note": 0, "velocity": 0, "duration": 67}, {"note": 75, "velocity": 111, "duration": 598}, {"note": 0, "velocity": 0, "duration": 122}, {"note": 71, "velocity": 111, "duration": 69}, {"note": 73, "velocity": 114, "duration": 47}, {"note": 0, "velocity": 0, "duration": 73}, {"note": 80, "velocity": 116, "duration": 158}, {"note": 0, "velocity": 0, "duration": 82}, {"note": 78, "velocity": 108, "duration": 62}, {"note": 76, "velocity": 100, "duration": 85}, {"note": 73, "velocity": 111, "duration": 152}, {"note": 0, "velocity": 0, "duration": 88}, {"note": 68, "velocity": 105, "duration": 199}, {"note": 71, "velocity": 102, "duration": 626}, {"note": 0, "velocity": 0, "duration": 94}, {"note": 71, "velocity": 117, "duration": 63}, {"note": 73, "velocity": 108, "duration": 53}, {"note": 0, "velocity": 0, "duration": 67}, {"note": 80, "velocity": 112, "duration": 161}, {"note": 0, "velocity": 0, "duration": 79}, {"note": 78, "velocity": 102, "duration": 61}, {"note": 76, "velocity": 102, "duration": 52}, {"note": 0, "velocity": 0, "duration": 68}, {"note": 73, "velocity": 114, "duration": 151}, {"note": 0, "velocity": 0, "duration": 89}, {"note": 68, "velocity": 109, "duration": 178}, {"note": 0, "velocity": 0, "duration": 62}, {"note": 71, "velocity": 105, "duration": 550}, {"note": 0, "velocity": 0, "duration": 170}, {"note": 71, "velocity": 111, "duration": 53}, {"note": 0, "velocity": 0, "duration": 67}, {"note": 73, "velocity": 111, "duration": 59}, {"note": 0, "velocity": 0, "duration": 61}, {"note": 80, "velocity": 109, "duration": 164}, {"note": 0, "velocity": 0, "duration": 76}, {"note": 78, "velocity": 100, "duration": 71}, {"note": 76, "velocity": 111, "duration": 59}, {"note": 0, "velocity": 0, "duration": 61}, {"note": 76, "velocity": 114, "duration": 175}, {"note": 0, "velocity": 0, "duration": 65}, {"note": 73, "velocity": 111, "duration": 69}, {"note": 71, "velocity": 108, "duration": 68}, {"note": 80, "velocity": 109, "duration": 162}, {"note": 0, "velocity": 0, "duration": 78}, {"note": 78, "velocity": 102, "duration": 76}, {"note": 76, "velocity": 92, "duration": 61}, {"note": 76, "velocity": 114, "duration": 178}, {"note": 0, "velocity": 0, "duration": 62}, {"note": 73, "velocity": 94, "duration": 69}, {"note": 71, "velocity": 114, "duration": 80}, {"note": 80, "velocity": 109, "duration": 171}, {"note": 0, "velocity": 0, "duration": 69}, {"note": 78, "velocity": 108, "duration": 57}, {"note": 0, "velocity": 0, "duration": 63}, {"note": 76, "velocity": 100, "duration": 61}, {"note": 76, "velocity": 108, "duration": 206}, {"note": 73, "velocity": 114, "duration": 118}, {"note": 78, "velocity": 105, "duration": 506}, {"note": 0, "velocity": 0, "duration": 334}, {"note": 71, "velocity": 111, "duration": 49}, {"note": 0, "velocity": 0, "duration": 71}, {"note": 73, "velocity": 111, "duration": 41}, {"note": 0, "velocity": 0, "duration": 79}, {"note": 80, "velocity": 116, "duration": 152}, {"note": 0, "velocity": 0, "duration": 88}, {"note": 78, "velocity": 100, "duration": 57}, {"note": 0, "velocity": 0, "duration": 63}, {"note": 76, "velocity": 100, "duration": 65}, {"note": 73, "velocity": 117, "duration": 165}, {"note": 0, "velocity": 0, "duration": 75}, {"note": 68, "velocity": 105, "duration": 170}, {"note": 0, "velocity": 0, "duration": 70}, {"note": 71, "velocity": 105, "duration": 634}, {"note": 0, "velocity": 0, "duration": 86}, {"note": 71, "velocity": 114, "duration": 49}, {"note": 0, "velocity": 0, "duration": 71}, {"note": 73, "velocity": 111, "duration": 49}, {"note": 0, "velocity": 0, "duration": 71}, {"note": 80, "velocity": 109, "duration": 170}, {"note": 0, "velocity": 0, "duration": 70}, {"note": 78, "velocity": 100, "duration": 61}, {"note": 76, "velocity": 87, "duration": 67}, {"note": 73, "velocity": 105, "duration": 198}, {"note": 68, "velocity": 109, "duration": 187}, {"note": 71, "velocity": 108, "duration": 641}, {"note": 0, "velocity": 0, "duration": 79}, {"note": 71, "velocity": 114, "duration": 52}, {"note": 0, "velocity": 0, "duration": 68}, {"note": 73, "velocity": 111, "duration": 47}, {"note": 0, "velocity": 0, "duration": 73}, {"note": 80, "velocity": 112, "duration": 177}, {"note": 0, "velocity": 0, "duration": 63}, {"note": 78, "velocity": 100, "duration": 60}, {"note": 76, "velocity": 108, "duration": 55}, {"note": 0, "velocity": 0, "duration": 65}, {"note": 76, "velocity": 111, "duration": 171}, {"note": 0, "velocity": 0, "duration": 69}, {"note": 73, "velocity": 114, "duration": 64}, {"note": 71, "velocity": 111, "duration": 48}, {"note": 0, "velocity": 0, "duration": 72}, {"note": 80, "velocity": 105, "duration": 159}, {"note": 0, "velocity": 0, "duration": 81}, {"note": 78, "velocity": 92, "duration": 73}, {"note": 76, "velocity": 92, "duration": 63}, {"note": 76, "velocity": 114, "duration": 181}, {"note": 73, "velocity": 108, "duration": 55}, {"note": 0, "velocity": 0, "duration": 65}, {"note": 71, "velocity": 111, "duration": 93}, {"note": 80, "velocity": 105, "duration": 191}, {"note": 78, "velocity": 102, "duration": 63}, {"note": 76, "velocity": 105, "duration": 59}, {"note": 0, "velocity": 0, "duration": 61}, {"note": 76, "velocity": 108, "duration": 189}, {"note": 78, "velocity": 108, "duration": 172}, {"note": 0, "velocity": 0, "duration": 68}, {"note": 76, "velocity": 111, "duration": 598}, {"note": 0, "velocity": 0, "duration": 127}, {"note": 71, "velocity": 102, "duration": 78}, {"note": 73, "velocity": 105, "duration": 53}, {"note": 0, "velocity": 0, "duration": 72}, {"note": 80, "velocity": 105, "duration": 160}, {"note": 0, "velocity": 0, "duration": 67}, {"note": 78, "velocity": 89, "duration": 93}, {"note": 76, "velocity": 78, "duration": 61}, {"note": 0, "velocity": 0, "duration": 72}, {"note": 76, "velocity": 108, "duration": 170}, {"note": 73, "velocity": 94, "duration": 59}, {"note": 0, "velocity": 0, "duration": 62}, {"note": 71, "velocity": 105, "duration": 70}, {"note": 0, "velocity": 0, "duration": 63}, {"note": 80, "velocity": 109, "duration": 159}, {"note": 0, "velocity": 0, "duration": 77}, {"note": 78, "velocity": 89, "duration": 72}, {"note": 76, "velocity": 102, "duration": 54}, {"note": 0, "velocity": 0, "duration": 77}, {"note": 76, "velocity": 114, "duration": 164}, {"note": 0, "velocity": 0, "duration": 89}, {"note": 73, "velocity": 84, "duration": 59}, {"note": 0, "velocity": 0, "duration": 61}, {"note": 71, "velocity": 105, "duration": 84}, {"note": 80, "velocity": 109, "duration": 167}, {"note": 78, "velocity": 92, "duration": 69}, {"note": 76, "velocity": 102, "duration": 58}, {"note": 0, "velocity": 0, "duration": 84}, {"note": 76, "velocity": 111, "duration": 166}, {"note": 0, "velocity": 0, "duration": 86}, {"note": 78, "velocity": 105, "duration": 162}, {"note": 0, "velocity": 0, "duration": 83}, {"note": 76, "velocity": 111, "duration": 546}, {"note": 0, "velocity": 0, "duration": 132}, {"note": 71, "velocity": 92, "duration": 59}, {"note": 73, "velocity": 105, "duration": 43}, {"note": 0, "velocity": 0, "duration": 81}, {"note": 80, "velocity": 112, "duration": 160}, {"note": 0, "velocity": 0, "duration": 77}, {"note": 78, "velocity": 89, "duration": 82}, {"note": 76, "velocity": 76, "duration": 52}, {"note": 0, "velocity": 0, "duration": 67}, {"note": 76, "velocity": 92, "duration": 202}, {"note": 73, "velocity": 92, "duration": 135}, {"note": 71, "velocity": 100, "duration": 123}, {"note": 80, "velocity": 102, "duration": 177}, {"note": 0, "velocity": 0, "duration": 69}, {"note": 78, "velocity": 84, "duration": 81}, {"note": 76, "velocity": 92, "duration": 79}, {"note": 0, "velocity": 0, "duration": 73}, {"note": 76, "velocity": 105, "duration": 154}, {"note": 0, "velocity": 0, "duration": 66}, {"note": 73, "velocity": 82, "duration": 57}, {"note": 71, "velocity": 84, "duration": 71}, {"note": 80, "velocity": 93, "duration": 134}, {"note": 78, "velocity": 92, "duration": 64}, {"note": 76, "velocity": 97, "duration": 61}, {"note": 0, "velocity": 0, "duration": 74}, {"note": 76, "velocity": 111, "duration": 393}, {"note": 0, "velocity": 0, "duration": 107}, {"note": 78, "velocity": 105, "duration": 879}, {"note": 0, "velocity": 0, "duration": 142}, {"note": 76, "velocity": 97, "duration": 1353}]]