[[{"note": 72, "velocity": 105, "duration": 202}, {"note": 64, "velocity": 111, "duration": 53}, {"note": 0, "velocity": 0, "duration": 67}, {"note": 64, "velocity": 102, "duration": 74}, {"note": 71, "velocity": 114, "duration": 154}, {"note": 0, "velocity": 0, "duration": 86}, {"note": 71, "velocity": 114, "duration": 191}, {"note": 69, "velocity": 111, "duration": 553}, {"note": 0, "velocity": 0, "duration": 167}, {"note": 67, "velocity": 117, "duration": 59}, {"note": 0, "velocity": 0, "duration": 61}, {"note": 69, "velocity": 108, "duration": 48}, {"note": 0, "velocity": 0, "duration": 72}, {"note": 71, "velocity": 114, "duration": 193}, {"note": 69, "velocity": 117, "duration": 165}, {"note": 0, "velocity": 0, "duration": 75}, {"note": 67, "velocity": 111, "duration": 70}, {"note": 69, "velocity": 108, "duration": 325}, {"note": 64, "velocity": 111, "duration": 777}, {"note": 0, "velocity": 0, "duration": 183}, {"note": 62, "velocity": 117, "duration": 170}, {"note": 0, "velocity": 0, "duration": 70}, {"note": 62, "velocity": 111, "duration": 168}, {"note": 0, "velocity": 0, "duration": 72}, {"note": 62, "velocity": 105, "duration": 65}, {"note": 62, "velocity": 105, "duration": 195}, {"note": 64, "velocity": 100, "duration": 76}, {"note": 64, "velocity": 105, "duration": 184}, {"note": 62, "velocity": 100, "duration": 69}, {"note": 60, "velocity": 100, "duration": 276}, {"note": 0, "velocity": 0, "duration": 324}, {"note": 69, "velocity": 111, "duration": 56}, {"note": 0, "velocity": 0, "duration": 64}, {"note": 69, "velocity": 108, "duration": 55}, {"note": 0, "velocity": 0, "duration": 65}, {"note": 69, "velocity": 111, "duration": 72}, {"note": 72, "velocity": 105, "duration": 84}, {"note": 71, "velocity": 120, "duration": 243}, {"note": 67, "velocity": 108, "duration": 125}, {"note": 69, "velocity": 114, "duration": 76}, {"note": 69, "velocity": 105, "duration": 753}, {"note": 0, "velocity": 0, "duration": 87}, {"note": 64, "velocity": 114, "duration": 79}, {"note": 72, "velocity": 108, "duration": 170}, {"note": 0, "velocity": 0, "duration": 70}, {"note": 71, "velocity": 105, "duration": 56}, {"note": 0, "velocity": 0, "duration": 64}, {"note": 71, "velocity": 105, "duration": 93}, {"note": 69, "velocity": 117, "duration": 195}, {"note": 71, "velocity": 114, "duration": 201}, {"note": 69, "velocity": 105, "duration": 606}, {"note": 0, "velocity": 0, "duration": 114}, {"note": 67, "velocity": 108, "duration": 61}, {"note": 69, "velocity": 114, "duration": 51}, {"note": 0, "velocity": 0, "duration": 69}, {"note": 71, "velocity": 114, "duration": 174}, {"note": 0, "velocity": 0, "duration": 66}, {"note": 69, "velocity": 114, "duration": 190}, {"note": 67, "velocity": 111, "duration": 179}, {"note": 0, "velocity": 0, "duration": 61}, {"note": 69, "velocity": 102, "duration": 218}, {"note": 64, "velocity": 111, "duration": 679}, {"note": 0, "velocity": 0, "duration": 281}, {"note": 62, "velocity": 117, "duration": 163}, {"note": 0, "velocity": 0, "duration": 77}, {"note": 62, "velocity": 117, "duration": 151}, {"note": 0, "velocity": 0, "duration": 89}, {"note": 62, "velocity": 108, "duration": 151}, {"note": 0, "velocity": 0, "duration": 89}, {"note": 62, "velocity": 111, "duration": 75}, {"note": 64, "velocity": 100, "duration": 56}, {"note": 0, "velocity": 0, "duration": 64}, {"note": 64, "velocity": 117, "duration": 182}, {"note": 62, "velocity": 108, "duration": 58}, {"note": 0, "velocity": 0, "duration": 62}, {"note": 60, "velocity": 117, "duration": 291}, {"note": 0, "velocity": 0, "duration": 309}, {"note": 69, "velocity": 114, "duration": 53}, {"note": 0, "velocity": 0, "duration": 67}, {"note": 69, "velocity": 108, "duration": 55}, {"note": 0, "velocity": 0, "duration": 65}, {"note": 69, "velocity": 102, "duration": 64}, {"note": 72, "velocity": 108, "duration": 70}, {"note": 71, "velocity": 120, "duration": 101}, {"note": 69, "velocity": 117, "duration": 58}, {"note": 0, "velocity": 0, "duration": 62}, {"note": 67, "velocity": 114, "duration": 206}, {"note": 69, "velocity": 108, "duration": 1005}, {"note": 0, "velocity": 0, "duration": 1875}, {"note": 69, "velocity": 117, "duration": 61}, {"note": 69, "velocity": 105, "duration": 64}, {"note": 69, "velocity": 111, "duration": 61}, {"note": 69, "velocity": 114, "duration": 65}, {"note": 76, "velocity": 102, "duration": 55}, {"note": 0, "velocity": 0, "duration": 65}, {"note": 76, "velocity": 114, "duration": 249}, {"note": 0, "velocity": 0, "duration": 111}, {"note": 67, "velocity": 114, "duration": 55}, {"note": 0, "velocity": 0, "duration": 65}, {"note": 69, "velocity": 111, "duration": 51}, {"note": 0, "velocity": 0, "duration": 69}, {"note": 67, "velocity": 114, "duration": 48}, {"note": 0, "velocity": 0, "duration": 72}, {"note": 69, "velocity": 102, "duration": 51}, {"note": 0, "velocity": 0, "duration": 69}, {"note": 67, "velocity": 108, "duration": 272}, {"note": 0, "velocity": 0, "duration": 208}, {"note": 67, "velocity": 111, "duration": 59}, {"note": 0, "velocity": 0, "duration": 61}, {"note": 67, "velocity": 105, "duration": 53}, {"note": 0, "velocity": 0, "duration": 67}, {"note": 67, "velocity": 111, "duration": 73}, {"note": 69, "velocity": 111, "duration": 53}, {"note": 0, "velocity": 0, "duration": 67}, {"note": 71, "velocity": 114, "duration": 53}, {"note": 0, "velocity": 0, "duration": 67}, {"note": 74, "velocity": 100, "duration": 246}, {"note": 0, "velocity": 0, "duration": 114}, {"note": 67, "velocity": 111, "duration": 182}, {"note": 69, "velocity": 102, "duration": 64}, {"note": 69, "velocity": 108, "duration": 435}, {"note": 0, "velocity": 0, "duration": 165}, {"note": 72, "velocity": 108, "duration": 55}, {"note": 0, "velocity": 0, "duration": 65}, {"note": 72, "velocity": 105, "duration": 58}, {"note": 0, "velocity": 0, "duration": 62}, {"note": 72, "velocity": 111, "duration": 109}, {"note": 71, "velocity": 105, "duration": 103}, {"note": 69, "velocity": 117, "duration": 302}, {"note": 69, "velocity": 114, "duration": 56}, {"note": 0, "velocity": 0, "duration": 64}, {"note": 74, "velocity": 102, "duration": 62}, {"note": 74, "velocity": 102, "duration": 69}, {"note": 74, "velocity": 111, "duration": 72}, {"note": 72, "velocity": 105, "duration": 64}, {"note": 69, "velocity": 111, "duration": 310}, {"note": 0, "velocity": 0, "duration": 170}, {"note": 74, "velocity": 108, "duration": 53}, {"note": 0, "velocity": 0, "duration": 67}, {"note": 74, "velocity": 105, "duration": 50}, {"note": 0, "velocity": 0, "duration": 70}, {"note": 74, "velocity": 105, "duration": 52}, {"note": 0, "velocity": 0, "duration": 68}, {"note": 74, "velocity": 102, "duration": 58}, {"note": 0, "velocity": 0, "duration": 62}, {"note": 74, "velocity": 105, "duration": 191}, {"note": 72, "velocity": 114, "duration": 55}, {"note": 0, "velocity": 0, "duration": 65}, {"note": 74, "velocity": 114, "duration": 59}, {"note": 0, "velocity": 0, "duration": 61}, {"note": 76, "velocity": 102, "duration": 61}, {"note": 79, "velocity": 105, "duration": 67}, {"note": 76, "velocity": 87, "duration": 56}, {"note": 0, "velocity": 0, "duration": 64}, {"note": 74, "velocity": 114, "duration": 50}, {"note": 0, "velocity": 0, "duration": 70}, {"note": 76, "velocity": 111, "duration": 388}, {"note": 0, "velocity": 0, "duration": 92}, {"note": 69, "velocity": 117, "duration": 61}, {"note": 69, "velocity": 105, "duration": 64}, {"note": 69, "velocity": 111, "duration": 61}, {"note": 69, "velocity": 114, "duration": 65}, {"note": 76, "velocity": 102, "duration": 55}, {"note": 0, "velocity": 0, "duration": 65}, {"note": 76, "velocity": 114, "duration": 249}, {"note": 0, "velocity": 0, "duration": 111}, {"note": 67, "velocity": 114, "duration": 55}, {"note": 0, "velocity": 0, "duration": 65}, {"note": 69, "velocity": 111, "duration": 51}, {"note": 0, "velocity": 0, "duration": 69}, {"note": 67, "velocity": 114, "duration": 48}, {"note": 0, "velocity": 0, "duration": 72}, {"note": 69, "velocity": 102, "duration": 51}, {"note": 0, "velocity": 0, "duration": 69}, {"note": 67, "velocity": 108, "duration": 272}, {"note": 0, "velocity": 0, "duration": 208}, {"note": 67, "velocity": 111, "duration": 59}, {"note": 0, "velocity": 0, "duration": 61}, {"note": 67, "velocity": 105, "duration": 53}, {"note": 0, "velocity": 0, "duration": 67}, {"note": 67, "velocity": 111, "duration": 73}, {"note": 69, "velocity": 111, "duration": 53}, {"note": 0, "velocity": 0, "duration": 67}, {"note": 71, "velocity": 114, "duration": 53}, {"note": 0, "velocity": 0, "duration": 67}, {"note": 74, "velocity": 100, "duration": 246}, {"note": 0, "velocity": 0, "duration": 114}, {"note": 67, "velocity": 111, "duration": 182}, {"note": 69, "velocity": 102, "duration": 64}, {"note": 69, "velocity": 108, "duration": 435}, {"note": 0, "velocity": 0, "duration": 165}, {"note": 72, "velocity": 108, "duration": 55}, {"note": 0, "velocity": 0, "duration": 65}, {"note": 72, "velocity": 105, "duration": 58}, {"note": 0, "velocity": 0, "duration": 62}, {"note": 72, "velocity": 111, "duration": 109}, {"note": 71, "velocity": 105, "duration": 103}, {"note": 69, "velocity": 117, "duration": 302}, {"note": 69, "velocity": 114, "duration": 56}, {"note": 0, "velocity": 0, "duration": 64}, {"note": 74, "velocity": 102, "duration": 62}, {"note": 74, "velocity": 102, "duration": 69}, {"note": 74, "velocity": 111, "duration": 72}, {"note": 72, "velocity": 105, "duration": 64}, {"note": 69, "velocity": 111, "duration": 310}, {"note": 0, "velocity": 0, "duration": 170}, {"note": 74, "velocity": 108, "duration": 53}, {"note": 0, "velocity": 0, "duration": 67}, {"note": 74, "velocity": 105, "duration": 50}, {"note": 0, "velocity": 0, "duration": 70}, {"note": 74, "velocity": 105, "duration": 52}, {"note": 0, "velocity": 0, "duration": 68}, {"note": 74, "velocity": 102, "duration": 58}, {"note": 0, "velocity": 0, "duration": 62}, {"note": 74, "velocity": 105, "duration": 118}, {"note": 72, "velocity": 114, "duration": 49}, {"note": 0, "velocity": 0, "duration": 71}, {"note": 72, "velocity": 117, "duration": 55}, {"note": 0, "velocity": 0, "duration": 65}, {"note": 74, "velocity": 111, "duration": 60}, {"note": 76, "velocity": 114, "duration": 162}, {"note": 0, "velocity": 0, "duration": 78}, {"note": 74, "velocity": 111, "duration": 210}, {"note": 71, "velocity": 114, "duration": 177}, {"note": 0, "velocity": 0, "duration": 63}, {"note": 72, "velocity": 105, "duration": 199}, {"note": 71, "velocity": 108, "duration": 76}, {"note": 69, "velocity": 111, "duration": 1485}, {"note": 0, "velocity": 0, "duration": 5955}, {"note": 64, "velocity": 100, "duration": 118}, {"note": 72, "velocity": 108, "duration": 170}, {"note": 0, "velocity": 0, "duration": 70}, {"note": 71, "velocity": 105, "duration": 56}, {"note": 0, "velocity": 0, "duration": 64}, {"note": 71, "velocity": 105, "duration": 93}, {"note": 69, "velocity": 117, "duration": 195}, {"note": 71, "velocity": 114, "duration": 201}, {"note": 69, "velocity": 105, "duration": 606}, {"note": 0, "velocity": 0, "duration": 114}, {"note": 67, "velocity": 108, "duration": 61}, {"note": 69, "velocity": 114, "duration": 51}, {"note": 0, "velocity": 0, "duration": 69}, {"note": 71, "velocity": 114, "duration": 174}, {"note": 0, "velocity": 0, "duration": 66}, {"note": 69, "velocity": 114, "duration": 190}, {"note": 67, "velocity": 111, "duration": 179}, {"note": 0, "velocity": 0, "duration": 61}, {"note": 69, "velocity": 102, "duration": 218}, {"note": 64, "velocity": 111, "duration": 679}, {"note": 0, "velocity": 0, "duration": 281}, {"note": 62, "velocity": 117, "duration": 163}, {"note": 0, "velocity": 0, "duration": 77}, {"note": 62, "velocity": 117, "duration": 151}, {"note": 0, "velocity": 0, "duration": 89}, {"note": 62, "velocity": 108, "duration": 151}, {"note": 0, "velocity": 0, "duration": 89}, {"note": 62, "velocity": 111, "duration": 75}, {"note": 64, "velocity": 100, "duration": 56}, {"note": 0, "velocity": 0, "duration": 64}, {"note": 64, "velocity": 117, "duration": 182}, {"note": 62, "velocity": 108, "duration": 58}, {"note": 0, "velocity": 0, "duration": 62}, {"note": 60, "velocity": 117, "duration": 291}, {"note": 0, "velocity": 0, "duration": 309}, {"note": 69, "velocity": 114, "duration": 53}, {"note": 0, "velocity": 0, "duration": 67}, {"note": 69, "velocity": 108, "duration": 55}, {"note": 0, "velocity": 0, "duration": 65}, {"note": 69, "velocity": 102, "duration": 64}, {"note": 72, "velocity": 108, "duration": 70}, {"note": 71, "velocity": 120, "duration": 101}, {"note": 69, "velocity": 117, "duration": 58}, {"note": 0, "velocity": 0, "duration": 62}, {"note": 67, "velocity": 114, "duration": 206}, {"note": 69, "velocity": 108, "duration": 1006}, {"note": 0, "velocity": 0, "duration": 1874}, {"note": 69, "velocity": 117, "duration": 61}, {"note": 69, "velocity": 105, "duration": 64}, {"note": 69, "velocity": 111, "duration": 61}, {"note": 69, "velocity": 114, "duration": 65}, {"note": 76, "velocity": 102, "duration": 55}, {"note": 0, "velocity": 0, "duration": 65}, {"note": 76, "velocity": 114, "duration": 249}, {"note": 0, "velocity": 0, "duration": 111}, {"note": 67, "velocity": 114, "duration": 55}, {"note": 0, "velocity": 0, "duration": 65}, {"note": 69, "velocity": 111, "duration": 51}, {"note": 0, "velocity": 0, "duration": 69}, {"note": 67, "velocity": 114, "duration": 48}, {"note": 0, "velocity": 0, "duration": 72}, {"note": 69, "velocity": 102, "duration": 51}, {"note": 0, "velocity": 0, "duration": 69}, {"note": 67, "velocity": 108, "duration": 272}, {"note": 0, "velocity": 0, "duration": 208}, {"note": 67, "velocity": 111, "duration": 59}, {"note": 0, "velocity": 0, "duration": 61}, {"note": 67, "velocity": 105, "duration": 53}, {"note": 0, "velocity": 0, "duration": 67}, {"note": 67, "velocity": 111, "duration": 73}, {"note": 69, "velocity": 111, "duration": 53}, {"note": 0, "velocity": 0, "duration": 67}, {"note": 71, "velocity": 114, "duration": 53}, {"note": 0, "velocity": 0, "duration": 67}, {"note": 74, "velocity": 100, "duration": 246}, {"note": 0, "velocity": 0, "duration": 114}, {"note": 67, "velocity": 111, "duration": 182}, {"note": 69, "velocity": 102, "duration": 64}, {"note": 69, "velocity": 108, "duration": 435}, {"note": 0, "velocity": 0, "duration": 165}, {"note": 72, "velocity": 108, "duration": 55}, {"note": 0, "velocity": 0, "duration": 65}, {"note": 72, "velocity": 105, "duration": 58}, {"note": 0, "velocity": 0, "duration": 62}, {"note": 72, "velocity": 111, "duration": 109}, {"note": 71, "velocity": 105, "duration": 103}, {"note": 69, "velocity": 117, "duration": 302}, {"note": 69, "velocity": 114, "duration": 56}, {"note": 0, "velocity": 0, "duration": 64}, {"note": 74, "velocity": 102, "duration": 62}, {"note": 74, "velocity": 102, "duration": 69}, {"note": 74, "velocity": 111, "duration": 72}, {"note": 72, "velocity": 105, "duration": 64}, {"note": 69, "velocity": 111, "duration": 310}, {"note": 0, "velocity": 0, "duration": 170}, {"note": 74, "velocity": 108, "duration": 53}, {"note": 0, "velocity": 0, "duration": 67}, {"note": 74, "velocity": 105, "duration": 50}, {"note": 0, "velocity": 0, "duration": 70}, {"note": 74, "velocity": 105, "duration": 52}, {"note": 0, "velocity": 0, "duration": 68}, {"note": 74, "velocity": 102, "duration": 58}, {"note": 0, "velocity": 0, "duration": 62}, {"note": 74, "velocity": 105, "duration": 191}, {"note": 72, "velocity": 114, "duration": 55}, {"note": 0, "velocity": 0, "duration": 65}, {"note": 74, "velocity": 114, "duration": 59}, {"note": 0, "velocity": 0, "duration": 61}, {"note": 76, "velocity": 102, "duration": 61}, {"note": 79, "velocity": 105, "duration": 67}, {"note": 76, "velocity": 87, "duration": 56}, {"note": 0, "velocity": 0, "duration": 64}, {"note": 74, "velocity": 114, "duration": 50}, {"note": 0, "velocity": 0, "duration": 70}, {"note": 76, "velocity": 111, "duration": 388}, {"note": 0, "velocity": 0, "duration": 92}, {"note": 69, "velocity": 117, "duration": 61}, {"note": 69, "velocity": 105, "duration": 64}, {"note": 69, "velocity": 111, "duration": 61}, {"note": 69, "velocity": 114, "duration": 65}, {"note": 76, "velocity": 102, "duration": 55}, {"note": 0, "velocity": 0, "duration": 65}, {"note": 76, "velocity": 114, "duration": 249}, {"note": 0, "velocity": 0, "duration": 111}, {"note": 67, "velocity": 114, "duration": 55}, {"note": 0, "velocity": 0, "duration": 65}, {"note": 69, "velocity": 111, "duration": 51}, {"note": 0, "velocity": 0, "duration": 69}, {"note": 67, "velocity": 114, "duration": 48}, {"note": 0, "velocity": 0, "duration": 72}, {"note": 69, "velocity": 102, "duration": 51}, {"note": 0, "velocity": 0, "duration": 69}, {"note": 67, "velocity": 108, "duration": 272}, {"note": 0, "velocity": 0, "duration": 208}, {"note": 67, "velocity": 111, "duration": 59}, {"note": 0, "velocity": 0, "duration": 61}, {"note": 67, "velocity": 105, "duration": 53}, {"note": 0, "velocity": 0, "duration": 67}, {"note": 67, "velocity": 111, "duration": 73}, {"note": 69, "velocity": 111, "duration": 53}, {"note": 0, "velocity": 0, "duration": 67}, {"note": 71, "velocity": 114, "duration": 53}, {"note": 0, "velocity": 0, "duration": 67}, {"note": 74, "velocity": 100, "duration": 246}, {"note": 0, "velocity": 0, "duration": 114}, {"note": 67, "velocity": 111, "duration": 182}, {"note": 69, "velocity": 102, "duration": 64}, {"note": 69, "velocity": 108, "duration": 435}, {"note": 0, "velocity": 0, "duration": 165}, {"note": 72, "velocity": 108, "duration": 55}, {"note": 0, "velocity": 0, "duration": 65}, {"note": 72, "velocity": 105, "duration": 58}, {"note": 0, "velocity": 0, "duration": 62}, {"note": 72, "velocity": 111, "duration": 109}, {"note": 71, "velocity": 105, "duration": 103}, {"note": 69, "velocity": 117, "duration": 302}, {"note": 69, "velocity": 114, "duration": 56}, {"note": 0, "velocity": 0, "duration": 64}, {"note": 74, "velocity": 102, "duration": 62}, {"note": 74, "velocity": 102, "duration": 69}, {"note": 74, "velocity": 111, "duration": 72}, {"note": 72, "velocity": 105, "duration": 64}, {"note": 69, "velocity": 111, "duration": 310}, {"note": 0, "velocity": 0, "duration": 170}, {"note": 74, "velocity": 108, "duration": 53}, {"note": 0, "velocity": 0, "duration": 67}, {"note": 74, "velocity": 105, "duration": 50}, {"note": 0, "velocity": 0, "duration": 70}, {"note": 74, "velocity": 105, "duration": 52}, {"note": 0, "velocity": 0, "duration": 68}, {"note": 74, "velocity": 102, "duration": 58}, {"note": 0, "velocity": 0, "duration": 62}, {"note": 74, "velocity": 105, "duration": 118}, {"note": 72, "velocity": 114, "duration": 49}, {"note": 0, "velocity": 0, "duration": 71}, {"note": 72, "velocity": 117, "duration": 55}, {"note": 0, "velocity": 0, "duration": 65}, {"note": 74, "velocity": 111, "duration": 60}, {"note": 76, "velocity": 114, "duration": 162}, {"note": 0, "velocity": 0, "duration": 78}, {"note": 74, "velocity": 111, "duration": 210}, {"note": 71, "velocity": 114, "duration": 177}, {"note": 0, "velocity": 0, "duration": 63}, {"note": 72, "velocity": 105, "duration": 199}, {"note": 71, "velocity": 108, "duration": 76}, {"note": 69, "velocity": 111, "duration": 1485}, {"note": 0, "velocity": 0, "duration": 315}, {"note": 69, "velocity": 117, "duration": 61}, {"note": 69, "velocity": 105, "duration": 64}, {"note": 69, "velocity": 111, "duration": 61}, {"note": 69, "velocity": 114, "duration": 65}, {"note": 76, "velocity": 102, "duration": 55}, {"note": 0, "velocity": 0, "duration": 65}, {"note": 76, "velocity": 114, "duration": 249}, {"note": 0, "velocity": 0, "duration": 111}, {"note": 67, "velocity": 114, "duration": 55}, {"note": 0, "velocity": 0, "duration": 65}, {"note": 69, "velocity": 111, "duration": 51}, {"note": 0, "velocity": 0, "duration": 69}, {"note": 67, "velocity": 114, "duration": 48}, {"note": 0, "velocity": 0, "duration": 72}, {"note": 69, "velocity": 102, "duration": 51}, {"note": 0, "velocity": 0, "duration": 69}, {"note": 67, "velocity": 108, "duration": 272}, {"note": 0, "velocity": 0, "duration": 208}, {"note": 67, "velocity": 111, "duration": 59}, {"note": 0, "velocity": 0, "duration": 61}, {"note": 67, "velocity": 105, "duration": 53}, {"note": 0, "velocity": 0, "duration": 67}, {"note": 67, "velocity": 111, "duration": 73}, {"note": 69, "velocity": 111, "duration": 53}, {"note": 0, "velocity": 0, "duration": 67}, {"note": 71, "velocity": 114, "duration": 53}, {"note": 0, "velocity": 0, "duration": 67}, {"note": 74, "velocity": 100, "duration": 246}, {"note": 0, "velocity": 0, "duration": 114}, {"note": 67, "velocity": 111, "duration": 182}, {"note": 69, "velocity": 102, "duration": 64}, {"note": 69, "velocity": 108, "duration": 435}, {"note": 0, "velocity": 0, "duration": 165}, {"note": 72, "velocity": 108, "duration": 55}, {"note": 0, "velocity": 0, "duration": 65}, {"note": 72, "velocity": 105, "duration": 58}, {"note": 0, "velocity": 0, "duration": 62}, {"note": 72, "velocity": 111, "duration": 109}, {"note": 71, "velocity": 105, "duration": 103}, {"note": 69, "velocity": 117, "duration": 302}, {"note": 69, "velocity": 114, "duration": 56}, {"note": 0, "velocity": 0, "duration": 64}, {"note": 74, "velocity": 102, "duration": 62}, {"note": 74, "velocity": 102, "duration": 69}, {"note": 74, "velocity": 111, "duration": 72}, {"note": 72, "velocity": 105, "duration": 64}, {"note": 69, "velocity": 111, "duration": 310}, {"note": 0, "velocity": 0, "duration": 170}, {"note": 74, "velocity": 108, "duration": 53}, {"note": 0, "velocity": 0, "duration": 67}, {"note": 74, "velocity": 105, "duration": 50}, {"note": 0, "velocity": 0, "duration": 70}, {"note": 74, "velocity": 105, "duration": 52}, {"note": 0, "velocity": 0, "duration": 68}, {"note": 74, "velocity": 102, "duration": 58}, {"note": 0, "velocity": 0, "duration": 62}, {"note": 74, "velocity": 105, "duration": 191}, {"note": 72, "velocity": 114, "duration": 55}, {"note": 0, "velocity": 0, "duration": 65}, {"note": 74, "velocity": 114, "duration": 59}, {"note": 0, "velocity": 0, "duration": 61}, {"note": 76, "velocity": 102, "duration": 61}, {"note": 79, "velocity": 105, "duration": 67}, {"note": 76, "velocity": 87, "duration": 56}, {"note": 0, "velocity": 0, "duration": 64}, {"note": 74, "velocity": 114, "duration": 50}, {"note": 0, "velocity": 0, "duration": 70}, {"note": 76, "velocity": 111, "duration": 388}, {"note": 0, "velocity": 0, "duration": 92}, {"note": 69, "velocity": 117, "duration": 61}, {"note": 69, "velocity": 105, "duration": 64}, {"note": 69, "velocity": 111, "duration": 61}, {"note": 69, "velocity": 114, "duration": 65}, {"note": 76, "velocity": 102, "duration": 55}, {"note": 0, "velocity": 0, "duration": 65}, {"note": 76, "velocity": 114, "duration": 249}, {"note": 0, "velocity": 0, "duration": 111}, {"note": 67, "velocity": 114, "duration": 55}, {"note": 0, "velocity": 0, "duration": 65}, {"note": 69, "velocity": 111, "duration": 51}, {"note": 0, "velocity": 0, "duration": 69}, {"note": 67, "velocity": 114, "duration": 48}, {"note": 0, "velocity": 0, "duration": 72}, {"note": 69, "velocity": 102, "duration": 51}, {"note": 0, "velocity": 0, "duration": 69}, {"note": 67, "velocity": 108, "duration": 272}, {"note": 0, "velocity": 0, "duration": 208}, {"note": 67, "velocity": 111, "duration": 59}, {"note": 0, "velocity": 0, "duration": 61}, {"note": 67, "velocity": 105, "duration": 53}, {"note": 0, "velocity": 0, "duration": 67}, {"note": 67, "velocity": 111, "duration": 73}, {"note": 69, "velocity": 111, "duration": 53}, {"note": 0, "velocity": 0, "duration": 67}, {"note": 71, "velocity": 114, "duration": 53}, {"note": 0, "velocity": 0, "duration": 67}, {"note": 74, "velocity": 100, "duration": 246}, {"note": 0, "velocity": 0, "duration": 114}, {"note": 67, "velocity": 111, "duration": 182}, {"note": 69, "velocity": 102, "duration": 64}, {"note": 69, "velocity": 108, "duration": 435}, {"note": 0, "velocity": 0, "duration": 165}, {"note": 72, "velocity": 108, "duration": 55}, {"note": 0, "velocity": 0, "duration": 65}, {"note": 72, "velocity": 105, "duration": 58}, {"note": 0, "velocity": 0, "duration": 62}, {"note": 72, "velocity": 111, "duration": 109}, {"note": 71, "velocity": 105, "duration": 103}, {"note": 69, "velocity": 117, "duration": 302}, {"note": 69, "velocity": 114, "duration": 56}, {"note": 0, "velocity": 0, "duration": 64}, {"note": 74, "velocity": 102, "duration": 62}, {"note": 74, "velocity": 102, "duration": 69}, {"note": 74, "velocity": 111, "duration": 72}, {"note": 72, "velocity": 105, "duration": 64}, {"note": 69, "velocity": 111, "duration": 310}, {"note": 0, "velocity": 0, "duration": 170}, {"note": 74, "velocity": 108, "duration": 53}, {"note": 0, "velocity": 0, "duration": 67}, {"note": 74, "velocity": 105, "duration": 50}, {"note": 0, "velocity": 0, "duration": 70}, {"note": 74, "velocity": 105, "duration": 52}, {"note": 0, "velocity": 0, "duration": 68}, {"note": 74, "velocity": 102, "duration": 58}, {"note": 0, "velocity": 0, "duration": 62}, {"note": 74, "velocity": 105, "duration": 118}, {"note": 72, "velocity": 114, "duration": 49}, {"note": 0, "velocity": 0, "duration": 71}, {"note": 72, "velocity": 117, "duration": 55}, {"note": 0, "velocity": 0, "duration": 65}, {"note": 74, "velocity": 111, "duration": 60}, {"note": 76, "velocity": 114, "duration": 162}, {"note": 0, "velocity": 0, "duration": 78}, {"note": 74, "velocity": 111, "duration": 210}, {"note": 71, "velocity": 114, "duration": 177}, {"note": 0, "velocity": 0, "duration": 63}, {"note": 72, "velocity": 105, "duration": 199}, {"note": 71, "velocity": 108, "duration": 76}, {"note": 69, "velocity": 111, "duration": 1485}]]