[[{"note": 75, "velocity": 110, "duration": 347}, {"note": 0, "velocity": 0, "duration": 133}, {"note": 74, "velocity": 106, "duration": 309}, {"note": 0, "velocity": 0, "duration": 171}, {"note": 75, "velocity": 113, "duration": 158}, {"note": 0, "velocity": 0, "duration": 82}, {"note": 74, "velocity": 106, "duration": 273}, {"note": 0, "velocity": 0, "duration": 447}, {"note": 75, "velocity": 113, "duration": 312}, {"note": 0, "velocity": 0, "duration": 168}, {"note": 74, "velocity": 112, "duration": 317}, {"note": 0, "velocity": 0, "duration": 163}, {"note": 75, "velocity": 110, "duration": 148}, {"note": 0, "velocity": 0, "duration": 92}, {"note": 74, "velocity": 112, "duration": 357}, {"note": 0, "velocity": 0, "duration": 363}, {"note": 75, "velocity": 107, "duration": 313}, {"note": 0, "velocity": 0, "duration": 167}, {"note": 74, "velocity": 112, "duration": 323}, {"note": 0, "velocity": 0, "duration": 157}, {"note": 75, "velocity": 117, "duration": 121}, {"note": 0, "velocity": 0, "duration": 119}, {"note": 77, "velocity": 115, "duration": 426}, {"note": 75, "velocity": 117, "duration": 293}, {"note": 0, "velocity": 0, "duration": 187}, {"note": 74, "velocity": 112, "duration": 278}, {"note": 0, "velocity": 0, "duration": 202}, {"note": 70, "velocity": 110, "duration": 123}, {"note": 0, "velocity": 0, "duration": 117}, {"note": 70, "velocity": 110, "duration": 369}, {"note": 0, "velocity": 0, "duration": 111}, {"note": 67, "velocity": 112, "duration": 267}, {"note": 0, "velocity": 0, "duration": 213}, {"note": 75, "velocity": 110, "duration": 347}, {"note": 0, "velocity": 0, "duration": 133}, {"note": 74, "velocity": 106, "duration": 309}, {"note": 0, "velocity": 0, "duration": 171}, {"note": 75, "velocity": 113, "duration": 158}, {"note": 0, "velocity": 0, "duration": 82}, {"note": 74, "velocity": 106, "duration": 273}, {"note": 0, "velocity": 0, "duration": 447}, {"note": 75, "velocity": 113, "duration": 312}, {"note": 0, "velocity": 0, "duration": 168}, {"note": 74, "velocity": 112, "duration": 317}, {"note": 0, "velocity": 0, "duration": 163}, {"note": 75, "velocity": 110, "duration": 148}, {"note": 0, "velocity": 0, "duration": 92}, {"note": 74, "velocity": 112, "duration": 357}, {"note": 0, "velocity": 0, "duration": 363}, {"note": 75, "velocity": 107, "duration": 313}, {"note": 0, "velocity": 0, "duration": 167}, {"note": 74, "velocity": 112, "duration": 323}, {"note": 0, "velocity": 0, "duration": 157}, {"note": 75, "velocity": 117, "duration": 121}, {"note": 0, "velocity": 0, "duration": 119}, {"note": 77, "velocity": 115, "duration": 426}, {"note": 75, "velocity": 117, "duration": 293}, {"note": 0, "velocity": 0, "duration": 187}, {"note": 77, "velocity": 112, "duration": 278}, {"note": 0, "velocity": 0, "duration": 202}, {"note": 79, "velocity": 110, "duration": 238}, {"note": 0, "velocity": 0, "duration": 242}, {"note": 79, "velocity": 110, "duration": 369}, {"note": 0, "velocity": 0, "duration": 1071}, {"note": 77, "velocity": 112, "duration": 150}, {"note": 0, "velocity": 0, "duration": 90}, {"note": 79, "velocity": 109, "duration": 141}, {"note": 0, "velocity": 0, "duration": 99}, {"note": 77, "velocity": 112, "duration": 111}, {"note": 0, "velocity": 0, "duration": 129}, {"note": 79, "velocity": 112, "duration": 505}, {"note": 0, "velocity": 0, "duration": 215}, {"note": 77, "velocity": 109, "duration": 127}, {"note": 0, "velocity": 0, "duration": 113}, {"note": 79, "velocity": 109, "duration": 138}, {"note": 0, "velocity": 0, "duration": 102}, {"note": 77, "velocity": 115, "duration": 359}, {"note": 0, "velocity": 0, "duration": 121}, {"note": 75, "velocity": 120, "duration": 756}, {"note": 0, "velocity": 0, "duration": 1164}, {"note": 75, "velocity": 117, "duration": 118}, {"note": 0, "velocity": 0, "duration": 122}, {"note": 74, "velocity": 115, "duration": 273}, {"note": 0, "velocity": 0, "duration": 207}, {"note": 75, "velocity": 117, "duration": 126}, {"note": 0, "velocity": 0, "duration": 114}, {"note": 74, "velocity": 109, "duration": 253}, {"note": 0, "velocity": 0, "duration": 227}, {"note": 70, "velocity": 120, "duration": 300}, {"note": 0, "velocity": 0, "duration": 180}, {"note": 67, "velocity": 115, "duration": 444}, {"note": 0, "velocity": 0, "duration": 996}, {"note": 77, "velocity": 109, "duration": 119}, {"note": 0, "velocity": 0, "duration": 121}, {"note": 79, "velocity": 112, "duration": 140}, {"note": 0, "velocity": 0, "duration": 100}, {"note": 77, "velocity": 109, "duration": 106}, {"note": 0, "velocity": 0, "duration": 134}, {"note": 79, "velocity": 112, "duration": 470}, {"note": 0, "velocity": 0, "duration": 250}, {"note": 77, "velocity": 112, "duration": 127}, {"note": 0, "velocity": 0, "duration": 113}, {"note": 79, "velocity": 109, "duration": 137}, {"note": 0, "velocity": 0, "duration": 103}, {"note": 77, "velocity": 115, "duration": 356}, {"note": 0, "velocity": 0, "duration": 124}, {"note": 75, "velocity": 117, "duration": 593}, {"note": 0, "velocity": 0, "duration": 1327}, {"note": 77, "velocity": 115, "duration": 510}, {"note": 0, "velocity": 0, "duration": 210}, {"note": 75, "velocity": 120, "duration": 341}, {"note": 0, "velocity": 0, "duration": 139}, {"note": 74, "velocity": 112, "duration": 168}, {"note": 0, "velocity": 0, "duration": 72}, {"note": 75, "velocity": 117, "duration": 121}, {"note": 0, "velocity": 0, "duration": 119}, {"note": 77, "velocity": 112, "duration": 246}, {"note": 0, "velocity": 0, "duration": 234}, {"note": 79, "velocity": 112, "duration": 128}, {"note": 0, "velocity": 0, "duration": 112}, {"note": 79, "velocity": 112, "duration": 118}, {"note": 0, "velocity": 0, "duration": 122}, {"note": 79, "velocity": 109, "duration": 121}, {"note": 0, "velocity": 0, "duration": 119}, {"note": 79, "velocity": 109, "duration": 115}, {"note": 0, "velocity": 0, "duration": 125}, {"note": 79, "velocity": 115, "duration": 347}, {"note": 0, "velocity": 0, "duration": 133}, {"note": 72, "velocity": 109, "duration": 121}, {"note": 0, "velocity": 0, "duration": 119}, {"note": 75, "velocity": 117, "duration": 313}, {"note": 0, "velocity": 0, "duration": 167}, {"note": 77, "velocity": 112, "duration": 111}, {"note": 0, "velocity": 0, "duration": 129}, {"note": 79, "velocity": 115, "duration": 345}, {"note": 0, "velocity": 0, "duration": 135}, {"note": 79, "velocity": 112, "duration": 354}, {"note": 0, "velocity": 0, "duration": 606}, {"note": 80, "velocity": 117, "duration": 104}, {"note": 0, "velocity": 0, "duration": 136}, {"note": 80, "velocity": 113, "duration": 99}, {"note": 0, "velocity": 0, "duration": 141}, {"note": 80, "velocity": 117, "duration": 106}, {"note": 0, "velocity": 0, "duration": 134}, {"note": 80, "velocity": 117, "duration": 117}, {"note": 0, "velocity": 0, "duration": 123}, {"note": 79, "velocity": 112, "duration": 321}, {"note": 0, "velocity": 0, "duration": 159}, {"note": 80, "velocity": 117, "duration": 123}, {"note": 0, "velocity": 0, "duration": 117}, {"note": 79, "velocity": 112, "duration": 365}, {"note": 0, "velocity": 0, "duration": 115}, {"note": 75, "velocity": 113, "duration": 134}, {"note": 0, "velocity": 0, "duration": 106}, {"note": 79, "velocity": 112, "duration": 335}, {"note": 0, "velocity": 0, "duration": 145}, {"note": 77, "velocity": 115, "duration": 573}, {"note": 0, "velocity": 0, "duration": 387}, {"note": 79, "velocity": 109, "duration": 119}, {"note": 0, "velocity": 0, "duration": 121}, {"note": 79, "velocity": 109, "duration": 122}, {"note": 0, "velocity": 0, "duration": 118}, {"note": 79, "velocity": 115, "duration": 285}, {"note": 0, "velocity": 0, "duration": 195}, {"note": 79, "velocity": 112, "duration": 294}, {"note": 0, "velocity": 0, "duration": 186}, {"note": 72, "velocity": 109, "duration": 130}, {"note": 0, "velocity": 0, "duration": 110}, {"note": 75, "velocity": 117, "duration": 313}, {"note": 0, "velocity": 0, "duration": 167}, {"note": 77, "velocity": 109, "duration": 140}, {"note": 0, "velocity": 0, "duration": 100}, {"note": 79, "velocity": 112, "duration": 334}, {"note": 0, "velocity": 0, "duration": 146}, {"note": 79, "velocity": 112, "duration": 547}, {"note": 75, "velocity": 117, "duration": 378}, {"note": 0, "velocity": 0, "duration": 102}, {"note": 74, "velocity": 112, "duration": 124}, {"note": 0, "velocity": 0, "duration": 116}, {"note": 72, "velocity": 109, "duration": 1039}, {"note": 0, "velocity": 0, "duration": 401}, {"note": 75, "velocity": 117, "duration": 155}, {"note": 0, "velocity": 0, "duration": 85}, {"note": 74, "velocity": 112, "duration": 281}, {"note": 0, "velocity": 0, "duration": 199}, {"note": 75, "velocity": 117, "duration": 139}, {"note": 0, "velocity": 0, "duration": 101}, {"note": 74, "velocity": 115, "duration": 252}, {"note": 0, "velocity": 0, "duration": 228}, {"note": 70, "velocity": 117, "duration": 118}, {"note": 0, "velocity": 0, "duration": 122}, {"note": 67, "velocity": 109, "duration": 133}, {"note": 0, "velocity": 0, "duration": 107}, {"note": 72, "velocity": 104, "duration": 1198}, {"note": 0, "velocity": 0, "duration": 7222}, {"note": 75, "velocity": 110, "duration": 347}, {"note": 0, "velocity": 0, "duration": 133}, {"note": 74, "velocity": 106, "duration": 309}, {"note": 0, "velocity": 0, "duration": 171}, {"note": 75, "velocity": 113, "duration": 158}, {"note": 0, "velocity": 0, "duration": 82}, {"note": 74, "velocity": 106, "duration": 273}, {"note": 0, "velocity": 0, "duration": 447}, {"note": 75, "velocity": 113, "duration": 312}, {"note": 0, "velocity": 0, "duration": 168}, {"note": 74, "velocity": 112, "duration": 317}, {"note": 0, "velocity": 0, "duration": 163}, {"note": 75, "velocity": 110, "duration": 148}, {"note": 0, "velocity": 0, "duration": 92}, {"note": 74, "velocity": 112, "duration": 357}, {"note": 0, "velocity": 0, "duration": 363}, {"note": 75, "velocity": 107, "duration": 313}, {"note": 0, "velocity": 0, "duration": 167}, {"note": 74, "velocity": 112, "duration": 323}, {"note": 0, "velocity": 0, "duration": 157}, {"note": 75, "velocity": 117, "duration": 121}, {"note": 0, "velocity": 0, "duration": 119}, {"note": 77, "velocity": 115, "duration": 426}, {"note": 75, "velocity": 117, "duration": 293}, {"note": 0, "velocity": 0, "duration": 187}, {"note": 74, "velocity": 112, "duration": 278}, {"note": 0, "velocity": 0, "duration": 202}, {"note": 70, "velocity": 110, "duration": 123}, {"note": 0, "velocity": 0, "duration": 117}, {"note": 70, "velocity": 110, "duration": 369}, {"note": 0, "velocity": 0, "duration": 111}, {"note": 67, "velocity": 112, "duration": 267}, {"note": 0, "velocity": 0, "duration": 213}, {"note": 75, "velocity": 110, "duration": 347}, {"note": 0, "velocity": 0, "duration": 133}, {"note": 74, "velocity": 106, "duration": 309}, {"note": 0, "velocity": 0, "duration": 171}, {"note": 75, "velocity": 113, "duration": 158}, {"note": 0, "velocity": 0, "duration": 82}, {"note": 74, "velocity": 106, "duration": 273}, {"note": 0, "velocity": 0, "duration": 447}, {"note": 75, "velocity": 113, "duration": 312}, {"note": 0, "velocity": 0, "duration": 168}, {"note": 74, "velocity": 112, "duration": 317}, {"note": 0, "velocity": 0, "duration": 163}, {"note": 75, "velocity": 110, "duration": 148}, {"note": 0, "velocity": 0, "duration": 92}, {"note": 74, "velocity": 112, "duration": 357}, {"note": 0, "velocity": 0, "duration": 363}, {"note": 75, "velocity": 107, "duration": 313}, {"note": 0, "velocity": 0, "duration": 167}, {"note": 74, "velocity": 112, "duration": 323}, {"note": 0, "velocity": 0, "duration": 157}, {"note": 75, "velocity": 117, "duration": 121}, {"note": 0, "velocity": 0, "duration": 119}, {"note": 77, "velocity": 115, "duration": 426}, {"note": 75, "velocity": 117, "duration": 293}, {"note": 0, "velocity": 0, "duration": 187}, {"note": 77, "velocity": 112, "duration": 278}, {"note": 0, "velocity": 0, "duration": 202}, {"note": 79, "velocity": 110, "duration": 238}, {"note": 0, "velocity": 0, "duration": 242}, {"note": 79, "velocity": 110, "duration": 369}, {"note": 0, "velocity": 0, "duration": 1071}, {"note": 77, "velocity": 112, "duration": 150}, {"note": 0, "velocity": 0, "duration": 90}, {"note": 79, "velocity": 109, "duration": 141}, {"note": 0, "velocity": 0, "duration": 99}, {"note": 77, "velocity": 112, "duration": 111}, {"note": 0, "velocity": 0, "duration": 129}, {"note": 79, "velocity": 112, "duration": 505}, {"note": 0, "velocity": 0, "duration": 215}, {"note": 77, "velocity": 109, "duration": 127}, {"note": 0, "velocity": 0, "duration": 113}, {"note": 79, "velocity": 109, "duration": 138}, {"note": 0, "velocity": 0, "duration": 102}, {"note": 77, "velocity": 115, "duration": 359}, {"note": 0, "velocity": 0, "duration": 121}, {"note": 75, "velocity": 120, "duration": 756}, {"note": 0, "velocity": 0, "duration": 1164}, {"note": 75, "velocity": 117, "duration": 118}, {"note": 0, "velocity": 0, "duration": 122}, {"note": 74, "velocity": 115, "duration": 273}, {"note": 0, "velocity": 0, "duration": 207}, {"note": 75, "velocity": 117, "duration": 126}, {"note": 0, "velocity": 0, "duration": 114}, {"note": 74, "velocity": 109, "duration": 253}, {"note": 0, "velocity": 0, "duration": 227}, {"note": 70, "velocity": 120, "duration": 300}, {"note": 0, "velocity": 0, "duration": 180}, {"note": 67, "velocity": 115, "duration": 444}, {"note": 0, "velocity": 0, "duration": 996}, {"note": 77, "velocity": 109, "duration": 119}, {"note": 0, "velocity": 0, "duration": 121}, {"note": 79, "velocity": 112, "duration": 140}, {"note": 0, "velocity": 0, "duration": 100}, {"note": 77, "velocity": 109, "duration": 106}, {"note": 0, "velocity": 0, "duration": 134}, {"note": 79, "velocity": 112, "duration": 470}, {"note": 0, "velocity": 0, "duration": 250}, {"note": 77, "velocity": 112, "duration": 127}, {"note": 0, "velocity": 0, "duration": 113}, {"note": 79, "velocity": 109, "duration": 137}, {"note": 0, "velocity": 0, "duration": 103}, {"note": 77, "velocity": 115, "duration": 356}, {"note": 0, "velocity": 0, "duration": 124}, {"note": 75, "velocity": 117, "duration": 593}, {"note": 0, "velocity": 0, "duration": 1327}, {"note": 77, "velocity": 115, "duration": 510}, {"note": 0, "velocity": 0, "duration": 210}, {"note": 75, "velocity": 120, "duration": 341}, {"note": 0, "velocity": 0, "duration": 156}, {"note": 74, "velocity": 112, "duration": 168}, {"note": 0, "velocity": 0, "duration": 83}, {"note": 75, "velocity": 117, "duration": 121}, {"note": 0, "velocity": 0, "duration": 111}, {"note": 77, "velocity": 112, "duration": 246}, {"note": 0, "velocity": 0, "duration": 253}, {"note": 79, "velocity": 112, "duration": 128}, {"note": 0, "velocity": 0, "duration": 112}, {"note": 79, "velocity": 112, "duration": 118}, {"note": 0, "velocity": 0, "duration": 122}, {"note": 79, "velocity": 109, "duration": 121}, {"note": 0, "velocity": 0, "duration": 119}, {"note": 79, "velocity": 109, "duration": 115}, {"note": 0, "velocity": 0, "duration": 125}, {"note": 79, "velocity": 115, "duration": 347}, {"note": 0, "velocity": 0, "duration": 133}, {"note": 72, "velocity": 109, "duration": 121}, {"note": 0, "velocity": 0, "duration": 119}, {"note": 75, "velocity": 117, "duration": 313}, {"note": 0, "velocity": 0, "duration": 167}, {"note": 77, "velocity": 112, "duration": 111}, {"note": 0, "velocity": 0, "duration": 129}, {"note": 79, "velocity": 115, "duration": 345}, {"note": 0, "velocity": 0, "duration": 135}, {"note": 79, "velocity": 112, "duration": 354}, {"note": 0, "velocity": 0, "duration": 606}, {"note": 80, "velocity": 117, "duration": 104}, {"note": 0, "velocity": 0, "duration": 136}, {"note": 80, "velocity": 113, "duration": 99}, {"note": 0, "velocity": 0, "duration": 141}, {"note": 80, "velocity": 117, "duration": 106}, {"note": 0, "velocity": 0, "duration": 134}, {"note": 80, "velocity": 117, "duration": 117}, {"note": 0, "velocity": 0, "duration": 123}, {"note": 79, "velocity": 112, "duration": 321}, {"note": 0, "velocity": 0, "duration": 159}, {"note": 80, "velocity": 117, "duration": 123}, {"note": 0, "velocity": 0, "duration": 117}, {"note": 79, "velocity": 112, "duration": 365}, {"note": 0, "velocity": 0, "duration": 115}, {"note": 75, "velocity": 113, "duration": 134}, {"note": 0, "velocity": 0, "duration": 106}, {"note": 79, "velocity": 112, "duration": 335}, {"note": 0, "velocity": 0, "duration": 145}, {"note": 77, "velocity": 115, "duration": 573}, {"note": 0, "velocity": 0, "duration": 387}, {"note": 79, "velocity": 109, "duration": 119}, {"note": 0, "velocity": 0, "duration": 121}, {"note": 79, "velocity": 109, "duration": 122}, {"note": 0, "velocity": 0, "duration": 118}, {"note": 79, "velocity": 115, "duration": 285}, {"note": 0, "velocity": 0, "duration": 195}, {"note": 79, "velocity": 112, "duration": 294}, {"note": 0, "velocity": 0, "duration": 186}, {"note": 72, "velocity": 109, "duration": 130}, {"note": 0, "velocity": 0, "duration": 110}, {"note": 75, "velocity": 117, "duration": 313}, {"note": 0, "velocity": 0, "duration": 167}, {"note": 77, "velocity": 109, "duration": 140}, {"note": 0, "velocity": 0, "duration": 100}, {"note": 79, "velocity": 112, "duration": 334}, {"note": 0, "velocity": 0, "duration": 146}, {"note": 79, "velocity": 112, "duration": 547}, {"note": 75, "velocity": 117, "duration": 378}, {"note": 0, "velocity": 0, "duration": 102}, {"note": 74, "velocity": 112, "duration": 124}, {"note": 0, "velocity": 0, "duration": 116}, {"note": 72, "velocity": 109, "duration": 1039}, {"note": 0, "velocity": 0, "duration": 401}, {"note": 75, "velocity": 117, "duration": 155}, {"note": 0, "velocity": 0, "duration": 85}, {"note": 74, "velocity": 112, "duration": 281}, {"note": 0, "velocity": 0, "duration": 199}, {"note": 75, "velocity": 117, "duration": 139}, {"note": 0, "velocity": 0, "duration": 101}, {"note": 74, "velocity": 115, "duration": 252}, {"note": 0, "velocity": 0, "duration": 228}, {"note": 70, "velocity": 117, "duration": 118}, {"note": 0, "velocity": 0, "duration": 122}, {"note": 67, "velocity": 109, "duration": 133}, {"note": 0, "velocity": 0, "duration": 107}, {"note": 72, "velocity": 104, "duration": 1198}, {"note": 0, "velocity": 0, "duration": 22101}, {"note": 79, "velocity": 112, "duration": 128}, {"note": 0, "velocity": 0, "duration": 112}, {"note": 79, "velocity": 112, "duration": 118}, {"note": 0, "velocity": 0, "duration": 122}, {"note": 79, "velocity": 109, "duration": 121}, {"note": 0, "velocity": 0, "duration": 119}, {"note": 79, "velocity": 109, "duration": 115}, {"note": 0, "velocity": 0, "duration": 125}, {"note": 79, "velocity": 115, "duration": 347}, {"note": 0, "velocity": 0, "duration": 133}, {"note": 72, "velocity": 109, "duration": 121}, {"note": 0, "velocity": 0, "duration": 119}, {"note": 75, "velocity": 117, "duration": 313}, {"note": 0, "velocity": 0, "duration": 167}, {"note": 77, "velocity": 112, "duration": 111}, {"note": 0, "velocity": 0, "duration": 129}, {"note": 79, "velocity": 115, "duration": 345}, {"note": 0, "velocity": 0, "duration": 135}, {"note": 79, "velocity": 112, "duration": 354}, {"note": 0, "velocity": 0, "duration": 606}, {"note": 80, "velocity": 117, "duration": 104}, {"note": 0, "velocity": 0, "duration": 136}, {"note": 80, "velocity": 113, "duration": 99}, {"note": 0, "velocity": 0, "duration": 141}, {"note": 80, "velocity": 117, "duration": 106}, {"note": 0, "velocity": 0, "duration": 134}, {"note": 80, "velocity": 117, "duration": 117}, {"note": 0, "velocity": 0, "duration": 123}, {"note": 79, "velocity": 112, "duration": 321}, {"note": 0, "velocity": 0, "duration": 159}, {"note": 80, "velocity": 117, "duration": 123}, {"note": 0, "velocity": 0, "duration": 117}, {"note": 79, "velocity": 112, "duration": 365}, {"note": 0, "velocity": 0, "duration": 115}, {"note": 75, "velocity": 113, "duration": 134}, {"note": 0, "velocity": 0, "duration": 106}, {"note": 79, "velocity": 112, "duration": 335}, {"note": 0, "velocity": 0, "duration": 145}, {"note": 77, "velocity": 115, "duration": 573}, {"note": 0, "velocity": 0, "duration": 387}, {"note": 79, "velocity": 109, "duration": 119}, {"note": 0, "velocity": 0, "duration": 121}, {"note": 79, "velocity": 109, "duration": 122}, {"note": 0, "velocity": 0, "duration": 118}, {"note": 79, "velocity": 115, "duration": 285}, {"note": 0, "velocity": 0, "duration": 195}, {"note": 79, "velocity": 112, "duration": 294}, {"note": 0, "velocity": 0, "duration": 186}, {"note": 72, "velocity": 109, "duration": 130}, {"note": 0, "velocity": 0, "duration": 110}, {"note": 75, "velocity": 117, "duration": 313}, {"note": 0, "velocity": 0, "duration": 167}, {"note": 77, "velocity": 109, "duration": 140}, {"note": 0, "velocity": 0, "duration": 100}, {"note": 79, "velocity": 112, "duration": 334}, {"note": 0, "velocity": 0, "duration": 146}, {"note": 79, "velocity": 112, "duration": 547}, {"note": 75, "velocity": 117, "duration": 378}, {"note": 0, "velocity": 0, "duration": 102}, {"note": 74, "velocity": 112, "duration": 124}, {"note": 0, "velocity": 0, "duration": 116}, {"note": 72, "velocity": 109, "duration": 1039}, {"note": 0, "velocity": 0, "duration": 401}, {"note": 75, "velocity": 117, "duration": 155}, {"note": 0, "velocity": 0, "duration": 85}, {"note": 74, "velocity": 112, "duration": 281}, {"note": 0, "velocity": 0, "duration": 199}, {"note": 75, "velocity": 117, "duration": 139}, {"note": 0, "velocity": 0, "duration": 101}, {"note": 74, "velocity": 115, "duration": 252}, {"note": 0, "velocity": 0, "duration": 228}, {"note": 70, "velocity": 117, "duration": 118}, {"note": 0, "velocity": 0, "duration": 122}, {"note": 67, "velocity": 109, "duration": 238}, {"note": 0, "velocity": 0, "duration": 242}, {"note": 79, "velocity": 112, "duration": 128}, {"note": 0, "velocity": 0, "duration": 112}, {"note": 79, "velocity": 112, "duration": 118}, {"note": 0, "velocity": 0, "duration": 122}, {"note": 79, "velocity": 109, "duration": 121}, {"note": 0, "velocity": 0, "duration": 119}, {"note": 79, "velocity": 109, "duration": 115}, {"note": 0, "velocity": 0, "duration": 125}, {"note": 79, "velocity": 115, "duration": 347}, {"note": 0, "velocity": 0, "duration": 133}, {"note": 72, "velocity": 109, "duration": 121}, {"note": 0, "velocity": 0, "duration": 119}, {"note": 75, "velocity": 117, "duration": 313}, {"note": 0, "velocity": 0, "duration": 167}, {"note": 77, "velocity": 112, "duration": 111}, {"note": 0, "velocity": 0, "duration": 129}, {"note": 79, "velocity": 115, "duration": 345}, {"note": 0, "velocity": 0, "duration": 135}, {"note": 79, "velocity": 112, "duration": 354}, {"note": 0, "velocity": 0, "duration": 606}, {"note": 80, "velocity": 117, "duration": 104}, {"note": 0, "velocity": 0, "duration": 136}, {"note": 80, "velocity": 113, "duration": 99}, {"note": 0, "velocity": 0, "duration": 141}, {"note": 80, "velocity": 117, "duration": 106}, {"note": 0, "velocity": 0, "duration": 134}, {"note": 80, "velocity": 117, "duration": 117}, {"note": 0, "velocity": 0, "duration": 123}, {"note": 79, "velocity": 112, "duration": 321}, {"note": 0, "velocity": 0, "duration": 159}, {"note": 80, "velocity": 117, "duration": 123}, {"note": 0, "velocity": 0, "duration": 117}, {"note": 79, "velocity": 112, "duration": 365}, {"note": 0, "velocity": 0, "duration": 115}, {"note": 75, "velocity": 113, "duration": 134}, {"note": 0, "velocity": 0, "duration": 106}, {"note": 79, "velocity": 112, "duration": 335}, {"note": 0, "velocity": 0, "duration": 145}, {"note": 77, "velocity": 115, "duration": 573}, {"note": 0, "velocity": 0, "duration": 387}, {"note": 79, "velocity": 109, "duration": 119}, {"note": 0, "velocity": 0, "duration": 121}, {"note": 79, "velocity": 109, "duration": 122}, {"note": 0, "velocity": 0, "duration": 118}, {"note": 79, "velocity": 115, "duration": 285}, {"note": 0, "velocity": 0, "duration": 195}, {"note": 79, "velocity": 112, "duration": 294}, {"note": 0, "velocity": 0, "duration": 186}, {"note": 72, "velocity": 109, "duration": 130}, {"note": 0, "velocity": 0, "duration": 110}, {"note": 75, "velocity": 117, "duration": 313}, {"note": 0, "velocity": 0, "duration": 167}, {"note": 77, "velocity": 109, "duration": 140}, {"note": 0, "velocity": 0, "duration": 100}, {"note": 79, "velocity": 112, "duration": 334}, {"note": 0, "velocity": 0, "duration": 146}, {"note": 79, "velocity": 112, "duration": 547}, {"note": 75, "velocity": 117, "duration": 378}, {"note": 0, "velocity": 0, "duration": 102}, {"note": 74, "velocity": 112, "duration": 124}, {"note": 0, "velocity": 0, "duration": 116}, {"note": 72, "velocity": 109, "duration": 1039}, {"note": 0, "velocity": 0, "duration": 401}, {"note": 75, "velocity": 117, "duration": 155}, {"note": 0, "velocity": 0, "duration": 85}, {"note": 74, "velocity": 112, "duration": 281}, {"note": 0, "velocity": 0, "duration": 199}, {"note": 75, "velocity": 117, "duration": 139}, {"note": 0, "velocity": 0, "duration": 101}, {"note": 74, "velocity": 115, "duration": 252}, {"note": 0, "velocity": 0, "duration": 228}, {"note": 70, "velocity": 117, "duration": 118}, {"note": 0, "velocity": 0, "duration": 122}, {"note": 67, "velocity": 109, "duration": 133}, {"note": 0, "velocity": 0, "duration": 107}, {"note": 72, "velocity": 104, "duration": 1198}]]