[[{"note": 72, "velocity": 108, "duration": 62}, {"note": 74, "velocity": 100, "duration": 58}, {"note": 0, "velocity": 0, "duration": 62}, {"note": 75, "velocity": 112, "duration": 79}, {"note": 74, "velocity": 100, "duration": 48}, {"note": 0, "velocity": 0, "duration": 72}, {"note": 72, "velocity": 108, "duration": 58}, {"note": 0, "velocity": 0, "duration": 62}, {"note": 75, "velocity": 109, "duration": 172}, {"note": 0, "velocity": 0, "duration": 68}, {"note": 74, "velocity": 105, "duration": 52}, {"note": 0, "velocity": 0, "duration": 68}, {"note": 72, "velocity": 105, "duration": 56}, {"note": 0, "velocity": 0, "duration": 64}, {"note": 75, "velocity": 109, "duration": 187}, {"note": 74, "velocity": 111, "duration": 409}, {"note": 0, "velocity": 0, "duration": 311}, {"note": 70, "velocity": 102, "duration": 70}, {"note": 70, "velocity": 105, "duration": 170}, {"note": 0, "velocity": 0, "duration": 70}, {"note": 72, "velocity": 97, "duration": 70}, {"note": 72, "velocity": 102, "duration": 603}, {"note": 0, "velocity": 0, "duration": 717}, {"note": 72, "velocity": 111, "duration": 58}, {"note": 0, "velocity": 0, "duration": 62}, {"note": 74, "velocity": 108, "duration": 52}, {"note": 0, "velocity": 0, "duration": 68}, {"note": 75, "velocity": 112, "duration": 55}, {"note": 0, "velocity": 0, "duration": 65}, {"note": 74, "velocity": 102, "duration": 48}, {"note": 0, "velocity": 0, "duration": 72}, {"note": 72, "velocity": 105, "duration": 56}, {"note": 0, "velocity": 0, "duration": 64}, {"note": 75, "velocity": 109, "duration": 179}, {"note": 0, "velocity": 0, "duration": 61}, {"note": 74, "velocity": 105, "duration": 49}, {"note": 0, "velocity": 0, "duration": 71}, {"note": 72, "velocity": 108, "duration": 59}, {"note": 0, "velocity": 0, "duration": 61}, {"note": 77, "velocity": 108, "duration": 156}, {"note": 0, "velocity": 0, "duration": 84}, {"note": 74, "velocity": 111, "duration": 401}, {"note": 0, "velocity": 0, "duration": 319}, {"note": 70, "velocity": 96, "duration": 67}, {"note": 72, "velocity": 108, "duration": 156}, {"note": 0, "velocity": 0, "duration": 84}, {"note": 79, "velocity": 111, "duration": 66}, {"note": 79, "velocity": 111, "duration": 215}, {"note": 75, "velocity": 99, "duration": 719}, {"note": 0, "velocity": 0, "duration": 361}, {"note": 72, "velocity": 108, "duration": 61}, {"note": 74, "velocity": 100, "duration": 65}, {"note": 75, "velocity": 105, "duration": 61}, {"note": 75, "velocity": 105, "duration": 54}, {"note": 0, "velocity": 0, "duration": 66}, {"note": 75, "velocity": 102, "duration": 51}, {"note": 0, "velocity": 0, "duration": 69}, {"note": 75, "velocity": 93, "duration": 63}, {"note": 75, "velocity": 112, "duration": 137}, {"note": 0, "velocity": 0, "duration": 103}, {"note": 72, "velocity": 100, "duration": 59}, {"note": 0, "velocity": 0, "duration": 61}, {"note": 75, "velocity": 112, "duration": 162}, {"note": 0, "velocity": 0, "duration": 78}, {"note": 77, "velocity": 102, "duration": 415}, {"note": 0, "velocity": 0, "duration": 425}, {"note": 74, "velocity": 108, "duration": 50}, {"note": 0, "velocity": 0, "duration": 70}, {"note": 74, "velocity": 100, "duration": 49}, {"note": 0, "velocity": 0, "duration": 71}, {"note": 74, "velocity": 102, "duration": 45}, {"note": 0, "velocity": 0, "duration": 75}, {"note": 74, "velocity": 97, "duration": 55}, {"note": 0, "velocity": 0, "duration": 65}, {"note": 74, "velocity": 100, "duration": 141}, {"note": 0, "velocity": 0, "duration": 99}, {"note": 70, "velocity": 109, "duration": 62}, {"note": 77, "velocity": 108, "duration": 183}, {"note": 75, "velocity": 102, "duration": 391}, {"note": 0, "velocity": 0, "duration": 329}, {"note": 70, "velocity": 105, "duration": 63}, {"note": 79, "velocity": 111, "duration": 165}, {"note": 0, "velocity": 0, "duration": 75}, {"note": 77, "velocity": 108, "duration": 65}, {"note": 75, "velocity": 112, "duration": 64}, {"note": 79, "velocity": 108, "duration": 175}, {"note": 0, "velocity": 0, "duration": 65}, {"note": 77, "velocity": 102, "duration": 63}, {"note": 75, "velocity": 109, "duration": 66}, {"note": 77, "velocity": 111, "duration": 303}, {"note": 70, "velocity": 109, "duration": 73}, {"note": 70, "velocity": 112, "duration": 137}, {"note": 0, "velocity": 0, "duration": 103}, {"note": 77, "velocity": 97, "duration": 58}, {"note": 0, "velocity": 0, "duration": 62}, {"note": 77, "velocity": 108, "duration": 315}, {"note": 75, "velocity": 102, "duration": 915}, {"note": 0, "velocity": 0, "duration": 165}, {"note": 79, "velocity": 105, "duration": 69}, {"note": 79, "velocity": 117, "duration": 65}, {"note": 77, "velocity": 111, "duration": 62}, {"note": 75, "velocity": 112, "duration": 65}, {"note": 74, "velocity": 97, "duration": 65}, {"note": 72, "velocity": 111, "duration": 174}, {"note": 0, "velocity": 0, "duration": 66}, {"note": 68, "velocity": 112, "duration": 62}, {"note": 72, "velocity": 111, "duration": 298}, {"note": 0, "velocity": 0, "duration": 62}, {"note": 79, "velocity": 108, "duration": 179}, {"note": 0, "velocity": 0, "duration": 61}, {"note": 77, "velocity": 111, "duration": 277}, {"note": 0, "velocity": 0, "duration": 83}, {"note": 77, "velocity": 108, "duration": 51}, {"note": 0, "velocity": 0, "duration": 69}, {"note": 77, "velocity": 111, "duration": 61}, {"note": 75, "velocity": 112, "duration": 55}, {"note": 0, "velocity": 0, "duration": 65}, {"note": 74, "velocity": 111, "duration": 47}, {"note": 0, "velocity": 0, "duration": 73}, {"note": 72, "velocity": 114, "duration": 65}, {"note": 70, "velocity": 112, "duration": 183}, {"note": 67, "velocity": 102, "duration": 56}, {"note": 0, "velocity": 0, "duration": 64}, {"note": 70, "velocity": 109, "duration": 295}, {"note": 0, "velocity": 0, "duration": 65}, {"note": 77, "velocity": 108, "duration": 184}, {"note": 75, "velocity": 105, "duration": 266}, {"note": 0, "velocity": 0, "duration": 94}, {"note": 75, "velocity": 109, "duration": 61}, {"note": 75, "velocity": 109, "duration": 70}, {"note": 74, "velocity": 108, "duration": 45}, {"note": 0, "velocity": 0, "duration": 75}, {"note": 72, "velocity": 105, "duration": 61}, {"note": 74, "velocity": 105, "duration": 52}, {"note": 0, "velocity": 0, "duration": 68}, {"note": 75, "velocity": 112, "duration": 155}, {"note": 0, "velocity": 0, "duration": 85}, {"note": 68, "velocity": 102, "duration": 64}, {"note": 68, "velocity": 112, "duration": 224}, {"note": 75, "velocity": 105, "duration": 162}, {"note": 0, "velocity": 0, "duration": 78}, {"note": 75, "velocity": 112, "duration": 74}, {"note": 74, "velocity": 111, "duration": 174}, {"note": 0, "velocity": 0, "duration": 66}, {"note": 75, "velocity": 112, "duration": 63}, {"note": 77, "velocity": 108, "duration": 167}, {"note": 0, "velocity": 0, "duration": 313}, {"note": 74, "velocity": 102, "duration": 84}, {"note": 70, "velocity": 102, "duration": 970}, {"note": 0, "velocity": 0, "duration": 350}, {"note": 79, "velocity": 100, "duration": 63}, {"note": 79, "velocity": 108, "duration": 65}, {"note": 77, "velocity": 105, "duration": 49}, {"note": 0, "velocity": 0, "duration": 71}, {"note": 75, "velocity": 112, "duration": 61}, {"note": 74, "velocity": 97, "duration": 59}, {"note": 0, "velocity": 0, "duration": 61}, {"note": 72, "velocity": 114, "duration": 138}, {"note": 0, "velocity": 0, "duration": 102}, {"note": 68, "velocity": 109, "duration": 69}, {"note": 72, "velocity": 105, "duration": 232}, {"note": 0, "velocity": 0, "duration": 128}, {"note": 79, "velocity": 108, "duration": 73}, {"note": 77, "velocity": 111, "duration": 419}, {"note": 0, "velocity": 0, "duration": 61}, {"note": 77, "velocity": 97, "duration": 56}, {"note": 0, "velocity": 0, "duration": 64}, {"note": 77, "velocity": 111, "duration": 61}, {"note": 75, "velocity": 116, "duration": 52}, {"note": 0, "velocity": 0, "duration": 68}, {"note": 74, "velocity": 102, "duration": 54}, {"note": 0, "velocity": 0, "duration": 66}, {"note": 72, "velocity": 108, "duration": 59}, {"note": 0, "velocity": 0, "duration": 61}, {"note": 70, "velocity": 109, "duration": 172}, {"note": 0, "velocity": 0, "duration": 68}, {"note": 82, "velocity": 109, "duration": 184}, {"note": 82, "velocity": 109, "duration": 174}, {"note": 0, "velocity": 0, "duration": 66}, {"note": 80, "velocity": 102, "duration": 62}, {"note": 80, "velocity": 105, "duration": 160}, {"note": 0, "velocity": 0, "duration": 80}, {"note": 79, "velocity": 82, "duration": 277}, {"note": 0, "velocity": 0, "duration": 83}, {"note": 77, "velocity": 111, "duration": 186}, {"note": 79, "velocity": 120, "duration": 172}, {"note": 0, "velocity": 0, "duration": 68}, {"note": 80, "velocity": 112, "duration": 174}, {"note": 0, "velocity": 0, "duration": 66}, {"note": 79, "velocity": 108, "duration": 63}, {"note": 75, "velocity": 109, "duration": 172}, {"note": 0, "velocity": 0, "duration": 68}, {"note": 72, "velocity": 108, "duration": 187}, {"note": 0, "velocity": 0, "duration": 173}, {"note": 70, "velocity": 105, "duration": 162}, {"note": 0, "velocity": 0, "duration": 78}, {"note": 79, "velocity": 105, "duration": 158}, {"note": 0, "velocity": 0, "duration": 82}, {"note": 77, "velocity": 108, "duration": 156}, {"note": 0, "velocity": 0, "duration": 84}, {"note": 75, "velocity": 105, "duration": 49}, {"note": 0, "velocity": 0, "duration": 71}, {"note": 77, "velocity": 102, "duration": 259}, {"note": 75, "velocity": 112, "duration": 1060}, {"note": 0, "velocity": 0, "duration": 15860}, {"note": 72, "velocity": 108, "duration": 62}, {"note": 74, "velocity": 100, "duration": 58}, {"note": 0, "velocity": 0, "duration": 62}, {"note": 75, "velocity": 112, "duration": 79}, {"note": 74, "velocity": 100, "duration": 48}, {"note": 0, "velocity": 0, "duration": 72}, {"note": 72, "velocity": 108, "duration": 58}, {"note": 0, "velocity": 0, "duration": 62}, {"note": 75, "velocity": 109, "duration": 172}, {"note": 0, "velocity": 0, "duration": 68}, {"note": 74, "velocity": 105, "duration": 52}, {"note": 0, "velocity": 0, "duration": 68}, {"note": 72, "velocity": 105, "duration": 56}, {"note": 0, "velocity": 0, "duration": 64}, {"note": 75, "velocity": 109, "duration": 187}, {"note": 74, "velocity": 111, "duration": 409}, {"note": 0, "velocity": 0, "duration": 311}, {"note": 70, "velocity": 102, "duration": 70}, {"note": 70, "velocity": 105, "duration": 170}, {"note": 0, "velocity": 0, "duration": 70}, {"note": 72, "velocity": 97, "duration": 70}, {"note": 72, "velocity": 102, "duration": 603}, {"note": 0, "velocity": 0, "duration": 717}, {"note": 72, "velocity": 111, "duration": 58}, {"note": 0, "velocity": 0, "duration": 62}, {"note": 74, "velocity": 108, "duration": 52}, {"note": 0, "velocity": 0, "duration": 68}, {"note": 75, "velocity": 112, "duration": 55}, {"note": 0, "velocity": 0, "duration": 65}, {"note": 74, "velocity": 102, "duration": 48}, {"note": 0, "velocity": 0, "duration": 72}, {"note": 72, "velocity": 105, "duration": 56}, {"note": 0, "velocity": 0, "duration": 64}, {"note": 75, "velocity": 109, "duration": 179}, {"note": 0, "velocity": 0, "duration": 61}, {"note": 74, "velocity": 105, "duration": 49}, {"note": 0, "velocity": 0, "duration": 71}, {"note": 72, "velocity": 108, "duration": 59}, {"note": 0, "velocity": 0, "duration": 61}, {"note": 77, "velocity": 108, "duration": 156}, {"note": 0, "velocity": 0, "duration": 84}, {"note": 74, "velocity": 111, "duration": 401}, {"note": 0, "velocity": 0, "duration": 319}, {"note": 70, "velocity": 96, "duration": 67}, {"note": 72, "velocity": 108, "duration": 156}, {"note": 0, "velocity": 0, "duration": 84}, {"note": 79, "velocity": 111, "duration": 66}, {"note": 79, "velocity": 111, "duration": 215}, {"note": 75, "velocity": 99, "duration": 719}, {"note": 0, "velocity": 0, "duration": 361}, {"note": 72, "velocity": 108, "duration": 61}, {"note": 74, "velocity": 100, "duration": 65}, {"note": 75, "velocity": 105, "duration": 61}, {"note": 75, "velocity": 105, "duration": 54}, {"note": 0, "velocity": 0, "duration": 66}, {"note": 75, "velocity": 102, "duration": 51}, {"note": 0, "velocity": 0, "duration": 69}, {"note": 75, "velocity": 93, "duration": 63}, {"note": 75, "velocity": 112, "duration": 137}, {"note": 0, "velocity": 0, "duration": 103}, {"note": 72, "velocity": 100, "duration": 59}, {"note": 0, "velocity": 0, "duration": 61}, {"note": 75, "velocity": 112, "duration": 162}, {"note": 0, "velocity": 0, "duration": 78}, {"note": 77, "velocity": 102, "duration": 415}, {"note": 0, "velocity": 0, "duration": 425}, {"note": 74, "velocity": 108, "duration": 50}, {"note": 0, "velocity": 0, "duration": 70}, {"note": 74, "velocity": 100, "duration": 49}, {"note": 0, "velocity": 0, "duration": 71}, {"note": 74, "velocity": 102, "duration": 45}, {"note": 0, "velocity": 0, "duration": 75}, {"note": 74, "velocity": 97, "duration": 55}, {"note": 0, "velocity": 0, "duration": 65}, {"note": 74, "velocity": 100, "duration": 141}, {"note": 0, "velocity": 0, "duration": 99}, {"note": 70, "velocity": 109, "duration": 62}, {"note": 77, "velocity": 108, "duration": 183}, {"note": 75, "velocity": 102, "duration": 391}, {"note": 0, "velocity": 0, "duration": 329}, {"note": 70, "velocity": 105, "duration": 63}, {"note": 79, "velocity": 111, "duration": 165}, {"note": 0, "velocity": 0, "duration": 75}, {"note": 77, "velocity": 108, "duration": 65}, {"note": 75, "velocity": 112, "duration": 64}, {"note": 79, "velocity": 108, "duration": 175}, {"note": 0, "velocity": 0, "duration": 65}, {"note": 77, "velocity": 102, "duration": 63}, {"note": 75, "velocity": 109, "duration": 66}, {"note": 77, "velocity": 111, "duration": 303}, {"note": 70, "velocity": 109, "duration": 73}, {"note": 70, "velocity": 112, "duration": 137}, {"note": 0, "velocity": 0, "duration": 103}, {"note": 77, "velocity": 97, "duration": 58}, {"note": 0, "velocity": 0, "duration": 62}, {"note": 77, "velocity": 108, "duration": 315}, {"note": 75, "velocity": 102, "duration": 915}, {"note": 0, "velocity": 0, "duration": 165}, {"note": 79, "velocity": 105, "duration": 69}, {"note": 79, "velocity": 117, "duration": 65}, {"note": 77, "velocity": 111, "duration": 62}, {"note": 75, "velocity": 112, "duration": 65}, {"note": 74, "velocity": 97, "duration": 65}, {"note": 72, "velocity": 111, "duration": 174}, {"note": 0, "velocity": 0, "duration": 66}, {"note": 68, "velocity": 112, "duration": 62}, {"note": 72, "velocity": 111, "duration": 298}, {"note": 0, "velocity": 0, "duration": 62}, {"note": 79, "velocity": 108, "duration": 179}, {"note": 0, "velocity": 0, "duration": 61}, {"note": 77, "velocity": 111, "duration": 277}, {"note": 0, "velocity": 0, "duration": 83}, {"note": 77, "velocity": 108, "duration": 51}, {"note": 0, "velocity": 0, "duration": 69}, {"note": 77, "velocity": 111, "duration": 61}, {"note": 75, "velocity": 112, "duration": 55}, {"note": 0, "velocity": 0, "duration": 65}, {"note": 74, "velocity": 111, "duration": 47}, {"note": 0, "velocity": 0, "duration": 73}, {"note": 72, "velocity": 114, "duration": 65}, {"note": 70, "velocity": 112, "duration": 183}, {"note": 67, "velocity": 102, "duration": 56}, {"note": 0, "velocity": 0, "duration": 64}, {"note": 70, "velocity": 109, "duration": 295}, {"note": 0, "velocity": 0, "duration": 65}, {"note": 77, "velocity": 108, "duration": 184}, {"note": 75, "velocity": 105, "duration": 266}, {"note": 0, "velocity": 0, "duration": 94}, {"note": 75, "velocity": 109, "duration": 61}, {"note": 75, "velocity": 109, "duration": 70}, {"note": 74, "velocity": 108, "duration": 45}, {"note": 0, "velocity": 0, "duration": 75}, {"note": 72, "velocity": 105, "duration": 61}, {"note": 74, "velocity": 105, "duration": 52}, {"note": 0, "velocity": 0, "duration": 68}, {"note": 75, "velocity": 112, "duration": 155}, {"note": 0, "velocity": 0, "duration": 85}, {"note": 68, "velocity": 102, "duration": 64}, {"note": 68, "velocity": 112, "duration": 224}, {"note": 75, "velocity": 105, "duration": 162}, {"note": 0, "velocity": 0, "duration": 78}, {"note": 75, "velocity": 112, "duration": 74}, {"note": 74, "velocity": 111, "duration": 174}, {"note": 0, "velocity": 0, "duration": 66}, {"note": 75, "velocity": 112, "duration": 63}, {"note": 77, "velocity": 108, "duration": 167}, {"note": 0, "velocity": 0, "duration": 313}, {"note": 74, "velocity": 102, "duration": 84}, {"note": 70, "velocity": 102, "duration": 970}, {"note": 0, "velocity": 0, "duration": 350}, {"note": 79, "velocity": 100, "duration": 63}, {"note": 79, "velocity": 108, "duration": 65}, {"note": 77, "velocity": 105, "duration": 49}, {"note": 0, "velocity": 0, "duration": 71}, {"note": 75, "velocity": 112, "duration": 61}, {"note": 74, "velocity": 97, "duration": 59}, {"note": 0, "velocity": 0, "duration": 61}, {"note": 72, "velocity": 114, "duration": 138}, {"note": 0, "velocity": 0, "duration": 102}, {"note": 68, "velocity": 109, "duration": 69}, {"note": 72, "velocity": 105, "duration": 232}, {"note": 0, "velocity": 0, "duration": 128}, {"note": 79, "velocity": 108, "duration": 73}, {"note": 77, "velocity": 111, "duration": 419}, {"note": 0, "velocity": 0, "duration": 61}, {"note": 77, "velocity": 97, "duration": 56}, {"note": 0, "velocity": 0, "duration": 64}, {"note": 77, "velocity": 111, "duration": 61}, {"note": 75, "velocity": 116, "duration": 52}, {"note": 0, "velocity": 0, "duration": 68}, {"note": 74, "velocity": 102, "duration": 54}, {"note": 0, "velocity": 0, "duration": 66}, {"note": 72, "velocity": 108, "duration": 59}, {"note": 0, "velocity": 0, "duration": 61}, {"note": 70, "velocity": 109, "duration": 172}, {"note": 0, "velocity": 0, "duration": 68}, {"note": 82, "velocity": 109, "duration": 184}, {"note": 82, "velocity": 109, "duration": 174}, {"note": 0, "velocity": 0, "duration": 66}, {"note": 80, "velocity": 102, "duration": 62}, {"note": 80, "velocity": 105, "duration": 160}, {"note": 0, "velocity": 0, "duration": 80}, {"note": 79, "velocity": 82, "duration": 277}, {"note": 0, "velocity": 0, "duration": 83}, {"note": 77, "velocity": 111, "duration": 186}, {"note": 79, "velocity": 120, "duration": 172}, {"note": 0, "velocity": 0, "duration": 68}, {"note": 80, "velocity": 112, "duration": 174}, {"note": 0, "velocity": 0, "duration": 66}, {"note": 79, "velocity": 108, "duration": 63}, {"note": 75, "velocity": 109, "duration": 172}, {"note": 0, "velocity": 0, "duration": 68}, {"note": 72, "velocity": 108, "duration": 187}, {"note": 0, "velocity": 0, "duration": 173}, {"note": 70, "velocity": 105, "duration": 162}, {"note": 0, "velocity": 0, "duration": 78}, {"note": 79, "velocity": 105, "duration": 158}, {"note": 0, "velocity": 0, "duration": 82}, {"note": 77, "velocity": 108, "duration": 156}, {"note": 0, "velocity": 0, "duration": 84}, {"note": 75, "velocity": 105, "duration": 49}, {"note": 0, "velocity": 0, "duration": 71}, {"note": 77, "velocity": 102, "duration": 259}, {"note": 75, "velocity": 112, "duration": 1060}, {"note": 0, "velocity": 0, "duration": 860}, {"note": 75, "velocity": 109, "duration": 47}, {"note": 0, "velocity": 0, "duration": 73}, {"note": 75, "velocity": 109, "duration": 58}, {"note": 0, "velocity": 0, "duration": 62}, {"note": 75, "velocity": 116, "duration": 51}, {"note": 0, "velocity": 0, "duration": 69}, {"note": 75, "velocity": 116, "duration": 156}, {"note": 0, "velocity": 0, "duration": 84}, {"note": 75, "velocity": 112, "duration": 54}, {"note": 0, "velocity": 0, "duration": 66}, {"note": 75, "velocity": 112, "duration": 238}, {"note": 77, "velocity": 82, "duration": 140}, {"note": 0, "velocity": 0, "duration": 100}, {"note": 77, "velocity": 120, "duration": 598}, {"note": 0, "velocity": 0, "duration": 122}, {"note": 82, "velocity": 105, "duration": 61}, {"note": 82, "velocity": 105, "duration": 61}, {"note": 82, "velocity": 102, "duration": 56}, {"note": 0, "velocity": 0, "duration": 64}, {"note": 82, "velocity": 112, "duration": 159}, {"note": 0, "velocity": 0, "duration": 81}, {"note": 74, "velocity": 105, "duration": 58}, {"note": 0, "velocity": 0, "duration": 62}, {"note": 74, "velocity": 114, "duration": 183}, {"note": 75, "velocity": 116, "duration": 173}, {"note": 0, "velocity": 0, "duration": 67}, {"note": 75, "velocity": 112, "duration": 358}, {"note": 77, "velocity": 108, "duration": 59}, {"note": 0, "velocity": 0, "duration": 61}, {"note": 79, "velocity": 111, "duration": 73}, {"note": 80, "velocity": 109, "duration": 620}, {"note": 0, "velocity": 0, "duration": 100}, {"note": 77, "velocity": 102, "duration": 56}, {"note": 0, "velocity": 0, "duration": 64}, {"note": 79, "velocity": 111, "duration": 67}, {"note": 80, "velocity": 109, "duration": 67}, {"note": 80, "velocity": 109, "duration": 56}, {"note": 0, "velocity": 0, "duration": 64}, {"note": 80, "velocity": 105, "duration": 56}, {"note": 0, "velocity": 0, "duration": 64}, {"note": 79, "velocity": 109, "duration": 58}, {"note": 0, "velocity": 0, "duration": 62}, {"note": 80, "velocity": 116, "duration": 166}, {"note": 0, "velocity": 0, "duration": 74}, {"note": 75, "velocity": 116, "duration": 56}, {"note": 0, "velocity": 0, "duration": 64}, {"note": 82, "velocity": 112, "duration": 1099}, {"note": 0, "velocity": 0, "duration": 1301}, {"note": 79, "velocity": 105, "duration": 69}, {"note": 79, "velocity": 117, "duration": 65}, {"note": 77, "velocity": 111, "duration": 62}, {"note": 75, "velocity": 112, "duration": 65}, {"note": 74, "velocity": 97, "duration": 65}, {"note": 72, "velocity": 111, "duration": 174}, {"note": 0, "velocity": 0, "duration": 66}, {"note": 68, "velocity": 112, "duration": 62}, {"note": 72, "velocity": 111, "duration": 298}, {"note": 0, "velocity": 0, "duration": 62}, {"note": 79, "velocity": 108, "duration": 179}, {"note": 0, "velocity": 0, "duration": 61}, {"note": 77, "velocity": 111, "duration": 277}, {"note": 0, "velocity": 0, "duration": 83}, {"note": 77, "velocity": 108, "duration": 51}, {"note": 0, "velocity": 0, "duration": 69}, {"note": 77, "velocity": 111, "duration": 61}, {"note": 75, "velocity": 112, "duration": 55}, {"note": 0, "velocity": 0, "duration": 65}, {"note": 74, "velocity": 111, "duration": 47}, {"note": 0, "velocity": 0, "duration": 73}, {"note": 72, "velocity": 114, "duration": 65}, {"note": 70, "velocity": 112, "duration": 183}, {"note": 67, "velocity": 102, "duration": 56}, {"note": 0, "velocity": 0, "duration": 64}, {"note": 70, "velocity": 109, "duration": 295}, {"note": 0, "velocity": 0, "duration": 65}, {"note": 77, "velocity": 108, "duration": 184}, {"note": 75, "velocity": 105, "duration": 266}, {"note": 0, "velocity": 0, "duration": 94}, {"note": 75, "velocity": 109, "duration": 61}, {"note": 75, "velocity": 109, "duration": 70}, {"note": 74, "velocity": 108, "duration": 45}, {"note": 0, "velocity": 0, "duration": 75}, {"note": 72, "velocity": 105, "duration": 61}, {"note": 74, "velocity": 105, "duration": 52}, {"note": 0, "velocity": 0, "duration": 68}, {"note": 75, "velocity": 112, "duration": 155}, {"note": 0, "velocity": 0, "duration": 85}, {"note": 68, "velocity": 102, "duration": 64}, {"note": 68, "velocity": 112, "duration": 224}, {"note": 75, "velocity": 105, "duration": 162}, {"note": 0, "velocity": 0, "duration": 78}, {"note": 75, "velocity": 112, "duration": 74}, {"note": 74, "velocity": 111, "duration": 174}, {"note": 0, "velocity": 0, "duration": 66}, {"note": 75, "velocity": 112, "duration": 63}, {"note": 77, "velocity": 108, "duration": 167}, {"note": 0, "velocity": 0, "duration": 194}, {"note": 80, "velocity": 127, "duration": 33}, {"note": 0, "velocity": 0, "duration": 87}, {"note": 80, "velocity": 127, "duration": 330}, {"note": 79, "velocity": 127, "duration": 463}, {"note": 80, "velocity": 127, "duration": 106}, {"note": 79, "velocity": 127, "duration": 190}, {"note": 0, "velocity": 0, "duration": 289}, {"note": 79, "velocity": 100, "duration": 63}, {"note": 79, "velocity": 108, "duration": 65}, {"note": 77, "velocity": 105, "duration": 49}, {"note": 0, "velocity": 0, "duration": 71}, {"note": 75, "velocity": 112, "duration": 61}, {"note": 74, "velocity": 97, "duration": 59}, {"note": 0, "velocity": 0, "duration": 61}, {"note": 72, "velocity": 114, "duration": 138}, {"note": 0, "velocity": 0, "duration": 102}, {"note": 68, "velocity": 109, "duration": 69}, {"note": 72, "velocity": 105, "duration": 232}, {"note": 0, "velocity": 0, "duration": 128}, {"note": 79, "velocity": 108, "duration": 73}, {"note": 77, "velocity": 111, "duration": 419}, {"note": 0, "velocity": 0, "duration": 61}, {"note": 77, "velocity": 97, "duration": 56}, {"note": 0, "velocity": 0, "duration": 64}, {"note": 77, "velocity": 111, "duration": 61}, {"note": 75, "velocity": 116, "duration": 52}, {"note": 0, "velocity": 0, "duration": 68}, {"note": 74, "velocity": 102, "duration": 54}, {"note": 0, "velocity": 0, "duration": 66}, {"note": 72, "velocity": 108, "duration": 59}, {"note": 0, "velocity": 0, "duration": 61}, {"note": 70, "velocity": 109, "duration": 172}, {"note": 0, "velocity": 0, "duration": 68}, {"note": 82, "velocity": 109, "duration": 184}, {"note": 82, "velocity": 109, "duration": 174}, {"note": 0, "velocity": 0, "duration": 66}, {"note": 80, "velocity": 102, "duration": 62}, {"note": 80, "velocity": 105, "duration": 160}, {"note": 0, "velocity": 0, "duration": 80}, {"note": 79, "velocity": 82, "duration": 277}, {"note": 0, "velocity": 0, "duration": 83}, {"note": 77, "velocity": 111, "duration": 186}, {"note": 79, "velocity": 120, "duration": 172}, {"note": 0, "velocity": 0, "duration": 68}, {"note": 80, "velocity": 112, "duration": 174}, {"note": 0, "velocity": 0, "duration": 66}, {"note": 79, "velocity": 108, "duration": 63}, {"note": 75, "velocity": 109, "duration": 172}, {"note": 0, "velocity": 0, "duration": 68}, {"note": 72, "velocity": 108, "duration": 187}, {"note": 0, "velocity": 0, "duration": 173}, {"note": 70, "velocity": 105, "duration": 162}, {"note": 0, "velocity": 0, "duration": 78}, {"note": 79, "velocity": 105, "duration": 158}, {"note": 0, "velocity": 0, "duration": 82}, {"note": 77, "velocity": 108, "duration": 156}, {"note": 0, "velocity": 0, "duration": 84}, {"note": 75, "velocity": 105, "duration": 49}, {"note": 0, "velocity": 0, "duration": 71}, {"note": 77, "velocity": 102, "duration": 259}, {"note": 75, "velocity": 112, "duration": 1060}]]