[[{"note": 66, "velocity": 115, "duration": 168}, {"note": 0, "velocity": 0, "duration": 72}, {"note": 73, "velocity": 112, "duration": 592}, {"note": 0, "velocity": 0, "duration": 128}, {"note": 71, "velocity": 112, "duration": 69}, {"note": 69, "velocity": 120, "duration": 63}, {"note": 68, "velocity": 109, "duration": 160}, {"note": 0, "velocity": 0, "duration": 80}, {"note": 69, "velocity": 120, "duration": 169}, {"note": 0, "velocity": 0, "duration": 71}, {"note": 68, "velocity": 115, "duration": 195}, {"note": 64, "velocity": 115, "duration": 182}, {"note": 66, "velocity": 112, "duration": 1489}, {"note": 0, "velocity": 0, "duration": 191}, {"note": 66, "velocity": 112, "duration": 163}, {"note": 0, "velocity": 0, "duration": 77}, {"note": 69, "velocity": 120, "duration": 543}, {"note": 0, "velocity": 0, "duration": 177}, {"note": 66, "velocity": 112, "duration": 71}, {"note": 69, "velocity": 117, "duration": 56}, {"note": 0, "velocity": 0, "duration": 64}, {"note": 71, "velocity": 109, "duration": 165}, {"note": 0, "velocity": 0, "duration": 75}, {"note": 71, "velocity": 109, "duration": 135}, {"note": 0, "velocity": 0, "duration": 105}, {"note": 73, "velocity": 112, "duration": 90}, {"note": 74, "velocity": 113, "duration": 91}, {"note": 73, "velocity": 109, "duration": 103}, {"note": 71, "velocity": 106, "duration": 53}, {"note": 0, "velocity": 0, "duration": 67}, {"note": 73, "velocity": 115, "duration": 1461}, {"note": 0, "velocity": 0, "duration": 219}, {"note": 73, "velocity": 109, "duration": 74}, {"note": 76, "velocity": 112, "duration": 63}, {"note": 78, "velocity": 112, "duration": 610}, {"note": 0, "velocity": 0, "duration": 110}, {"note": 76, "velocity": 118, "duration": 72}, {"note": 73, "velocity": 112, "duration": 70}, {"note": 71, "velocity": 101, "duration": 634}, {"note": 0, "velocity": 0, "duration": 86}, {"note": 69, "velocity": 117, "duration": 64}, {"note": 71, "velocity": 106, "duration": 50}, {"note": 0, "velocity": 0, "duration": 70}, {"note": 73, "velocity": 112, "duration": 569}, {"note": 0, "velocity": 0, "duration": 151}, {"note": 71, "velocity": 106, "duration": 53}, {"note": 0, "velocity": 0, "duration": 67}, {"note": 73, "velocity": 106, "duration": 62}, {"note": 66, "velocity": 109, "duration": 750}, {"note": 0, "velocity": 0, "duration": 210}, {"note": 68, "velocity": 109, "duration": 144}, {"note": 0, "velocity": 0, "duration": 96}, {"note": 66, "velocity": 109, "duration": 154}, {"note": 0, "velocity": 0, "duration": 86}, {"note": 64, "velocity": 115, "duration": 135}, {"note": 0, "velocity": 0, "duration": 105}, {"note": 68, "velocity": 112, "duration": 358}, {"note": 0, "velocity": 0, "duration": 122}, {"note": 64, "velocity": 112, "duration": 73}, {"note": 61, "velocity": 109, "duration": 63}, {"note": 69, "velocity": 117, "duration": 176}, {"note": 0, "velocity": 0, "duration": 64}, {"note": 68, "velocity": 106, "duration": 156}, {"note": 0, "velocity": 0, "duration": 84}, {"note": 66, "velocity": 112, "duration": 1485}, {"note": 0, "velocity": 0, "duration": 195}, {"note": 66, "velocity": 115, "duration": 168}, {"note": 0, "velocity": 0, "duration": 72}, {"note": 73, "velocity": 112, "duration": 592}, {"note": 0, "velocity": 0, "duration": 128}, {"note": 71, "velocity": 112, "duration": 69}, {"note": 69, "velocity": 120, "duration": 63}, {"note": 68, "velocity": 109, "duration": 160}, {"note": 0, "velocity": 0, "duration": 80}, {"note": 69, "velocity": 120, "duration": 169}, {"note": 0, "velocity": 0, "duration": 71}, {"note": 68, "velocity": 115, "duration": 195}, {"note": 64, "velocity": 115, "duration": 182}, {"note": 66, "velocity": 112, "duration": 1489}, {"note": 0, "velocity": 0, "duration": 191}, {"note": 66, "velocity": 112, "duration": 163}, {"note": 0, "velocity": 0, "duration": 77}, {"note": 69, "velocity": 120, "duration": 543}, {"note": 0, "velocity": 0, "duration": 177}, {"note": 66, "velocity": 112, "duration": 71}, {"note": 69, "velocity": 117, "duration": 56}, {"note": 0, "velocity": 0, "duration": 64}, {"note": 71, "velocity": 109, "duration": 165}, {"note": 0, "velocity": 0, "duration": 75}, {"note": 71, "velocity": 109, "duration": 135}, {"note": 0, "velocity": 0, "duration": 105}, {"note": 73, "velocity": 112, "duration": 90}, {"note": 74, "velocity": 113, "duration": 91}, {"note": 73, "velocity": 109, "duration": 103}, {"note": 71, "velocity": 106, "duration": 53}, {"note": 0, "velocity": 0, "duration": 67}, {"note": 73, "velocity": 115, "duration": 1461}, {"note": 0, "velocity": 0, "duration": 219}, {"note": 73, "velocity": 109, "duration": 74}, {"note": 76, "velocity": 112, "duration": 63}, {"note": 78, "velocity": 112, "duration": 610}, {"note": 0, "velocity": 0, "duration": 110}, {"note": 76, "velocity": 118, "duration": 72}, {"note": 73, "velocity": 112, "duration": 70}, {"note": 71, "velocity": 101, "duration": 634}, {"note": 0, "velocity": 0, "duration": 86}, {"note": 69, "velocity": 117, "duration": 64}, {"note": 71, "velocity": 106, "duration": 50}, {"note": 0, "velocity": 0, "duration": 70}, {"note": 73, "velocity": 112, "duration": 569}, {"note": 0, "velocity": 0, "duration": 151}, {"note": 71, "velocity": 106, "duration": 53}, {"note": 0, "velocity": 0, "duration": 67}, {"note": 73, "velocity": 106, "duration": 62}, {"note": 66, "velocity": 109, "duration": 750}, {"note": 0, "velocity": 0, "duration": 210}, {"note": 68, "velocity": 109, "duration": 144}, {"note": 0, "velocity": 0, "duration": 96}, {"note": 66, "velocity": 109, "duration": 154}, {"note": 0, "velocity": 0, "duration": 86}, {"note": 64, "velocity": 115, "duration": 135}, {"note": 0, "velocity": 0, "duration": 105}, {"note": 68, "velocity": 112, "duration": 358}, {"note": 0, "velocity": 0, "duration": 122}, {"note": 64, "velocity": 112, "duration": 73}, {"note": 61, "velocity": 109, "duration": 63}, {"note": 69, "velocity": 117, "duration": 176}, {"note": 0, "velocity": 0, "duration": 64}, {"note": 68, "velocity": 106, "duration": 156}, {"note": 0, "velocity": 0, "duration": 84}, {"note": 66, "velocity": 112, "duration": 1485}, {"note": 0, "velocity": 0, "duration": 435}, {"note": 66, "velocity": 115, "duration": 191}, {"note": 78, "velocity": 112, "duration": 388}, {"note": 0, "velocity": 0, "duration": 92}, {"note": 78, "velocity": 115, "duration": 147}, {"note": 0, "velocity": 0, "duration": 93}, {"note": 73, "velocity": 112, "duration": 74}, {"note": 76, "velocity": 112, "duration": 85}, {"note": 73, "velocity": 118, "duration": 62}, {"note": 76, "velocity": 115, "duration": 63}, {"note": 78, "velocity": 115, "duration": 336}, {"note": 0, "velocity": 0, "duration": 144}, {"note": 76, "velocity": 115, "duration": 170}, {"note": 0, "velocity": 0, "duration": 70}, {"note": 71, "velocity": 112, "duration": 183}, {"note": 71, "velocity": 112, "duration": 150}, {"note": 0, "velocity": 0, "duration": 90}, {"note": 76, "velocity": 118, "duration": 154}, {"note": 0, "velocity": 0, "duration": 86}, {"note": 73, "velocity": 115, "duration": 82}, {"note": 71, "velocity": 104, "duration": 60}, {"note": 73, "velocity": 109, "duration": 530}, {"note": 0, "velocity": 0, "duration": 190}, {"note": 69, "velocity": 123, "duration": 181}, {"note": 66, "velocity": 115, "duration": 601}, {"note": 0, "velocity": 0, "duration": 119}, {"note": 69, "velocity": 117, "duration": 212}, {"note": 66, "velocity": 112, "duration": 358}, {"note": 0, "velocity": 0, "duration": 122}, {"note": 78, "velocity": 115, "duration": 117}, {"note": 0, "velocity": 0, "duration": 123}, {"note": 73, "velocity": 115, "duration": 65}, {"note": 71, "velocity": 106, "duration": 58}, {"note": 0, "velocity": 0, "duration": 62}, {"note": 73, "velocity": 115, "duration": 1036}, {"note": 0, "velocity": 0, "duration": 644}, {"note": 66, "velocity": 115, "duration": 191}, {"note": 78, "velocity": 112, "duration": 388}, {"note": 0, "velocity": 0, "duration": 92}, {"note": 78, "velocity": 115, "duration": 147}, {"note": 0, "velocity": 0, "duration": 93}, {"note": 73, "velocity": 112, "duration": 74}, {"note": 76, "velocity": 112, "duration": 85}, {"note": 73, "velocity": 118, "duration": 62}, {"note": 76, "velocity": 115, "duration": 63}, {"note": 78, "velocity": 115, "duration": 336}, {"note": 0, "velocity": 0, "duration": 144}, {"note": 76, "velocity": 115, "duration": 170}, {"note": 0, "velocity": 0, "duration": 70}, {"note": 71, "velocity": 112, "duration": 183}, {"note": 71, "velocity": 112, "duration": 150}, {"note": 0, "velocity": 0, "duration": 90}, {"note": 76, "velocity": 118, "duration": 154}, {"note": 0, "velocity": 0, "duration": 86}, {"note": 73, "velocity": 115, "duration": 82}, {"note": 71, "velocity": 104, "duration": 60}, {"note": 73, "velocity": 109, "duration": 530}, {"note": 0, "velocity": 0, "duration": 190}, {"note": 69, "velocity": 123, "duration": 181}, {"note": 66, "velocity": 115, "duration": 601}, {"note": 0, "velocity": 0, "duration": 119}, {"note": 73, "velocity": 109, "duration": 94}, {"note": 71, "velocity": 96, "duration": 66}, {"note": 73, "velocity": 109, "duration": 355}, {"note": 0, "velocity": 0, "duration": 125}, {"note": 78, "velocity": 115, "duration": 117}, {"note": 0, "velocity": 0, "duration": 123}, {"note": 73, "velocity": 115, "duration": 65}, {"note": 71, "velocity": 106, "duration": 58}, {"note": 0, "velocity": 0, "duration": 62}, {"note": 73, "velocity": 115, "duration": 1036}, {"note": 0, "velocity": 0, "duration": 644}, {"note": 66, "velocity": 115, "duration": 191}, {"note": 78, "velocity": 112, "duration": 388}, {"note": 0, "velocity": 0, "duration": 92}, {"note": 78, "velocity": 115, "duration": 147}, {"note": 0, "velocity": 0, "duration": 93}, {"note": 73, "velocity": 112, "duration": 74}, {"note": 76, "velocity": 112, "duration": 85}, {"note": 73, "velocity": 118, "duration": 62}, {"note": 76, "velocity": 115, "duration": 63}, {"note": 78, "velocity": 115, "duration": 336}, {"note": 0, "velocity": 0, "duration": 144}, {"note": 76, "velocity": 115, "duration": 170}, {"note": 0, "velocity": 0, "duration": 70}, {"note": 71, "velocity": 112, "duration": 183}, {"note": 71, "velocity": 112, "duration": 150}, {"note": 0, "velocity": 0, "duration": 90}, {"note": 76, "velocity": 118, "duration": 154}, {"note": 0, "velocity": 0, "duration": 86}, {"note": 73, "velocity": 115, "duration": 82}, {"note": 71, "velocity": 104, "duration": 60}, {"note": 73, "velocity": 109, "duration": 530}, {"note": 0, "velocity": 0, "duration": 190}, {"note": 69, "velocity": 123, "duration": 181}, {"note": 66, "velocity": 115, "duration": 958}, {"note": 0, "velocity": 0, "duration": 722}, {"note": 73, "velocity": 115, "duration": 65}, {"note": 71, "velocity": 106, "duration": 58}, {"note": 0, "velocity": 0, "duration": 62}, {"note": 73, "velocity": 115, "duration": 1036}, {"note": 0, "velocity": 0, "duration": 1604}, {"note": 73, "velocity": 115, "duration": 241}, {"note": 76, "velocity": 115, "duration": 622}, {"note": 0, "velocity": 0, "duration": 98}, {"note": 64, "velocity": 112, "duration": 180}, {"note": 66, "velocity": 112, "duration": 1618}, {"note": 0, "velocity": 0, "duration": 15422}, {"note": 66, "velocity": 115, "duration": 191}, {"note": 78, "velocity": 112, "duration": 388}, {"note": 0, "velocity": 0, "duration": 92}, {"note": 78, "velocity": 115, "duration": 147}, {"note": 0, "velocity": 0, "duration": 93}, {"note": 73, "velocity": 112, "duration": 74}, {"note": 76, "velocity": 112, "duration": 85}, {"note": 73, "velocity": 118, "duration": 62}, {"note": 76, "velocity": 115, "duration": 63}, {"note": 78, "velocity": 115, "duration": 336}, {"note": 0, "velocity": 0, "duration": 144}, {"note": 76, "velocity": 115, "duration": 170}, {"note": 0, "velocity": 0, "duration": 70}, {"note": 71, "velocity": 112, "duration": 183}, {"note": 71, "velocity": 112, "duration": 150}, {"note": 0, "velocity": 0, "duration": 90}, {"note": 76, "velocity": 118, "duration": 154}, {"note": 0, "velocity": 0, "duration": 86}, {"note": 73, "velocity": 115, "duration": 82}, {"note": 71, "velocity": 104, "duration": 60}, {"note": 73, "velocity": 109, "duration": 530}, {"note": 0, "velocity": 0, "duration": 190}, {"note": 69, "velocity": 123, "duration": 181}, {"note": 66, "velocity": 115, "duration": 601}, {"note": 0, "velocity": 0, "duration": 119}, {"note": 69, "velocity": 117, "duration": 212}, {"note": 66, "velocity": 112, "duration": 358}, {"note": 0, "velocity": 0, "duration": 122}, {"note": 78, "velocity": 115, "duration": 117}, {"note": 0, "velocity": 0, "duration": 123}, {"note": 73, "velocity": 115, "duration": 65}, {"note": 71, "velocity": 106, "duration": 58}, {"note": 0, "velocity": 0, "duration": 62}, {"note": 73, "velocity": 115, "duration": 1036}, {"note": 0, "velocity": 0, "duration": 644}, {"note": 66, "velocity": 115, "duration": 191}, {"note": 78, "velocity": 112, "duration": 388}, {"note": 0, "velocity": 0, "duration": 92}, {"note": 78, "velocity": 115, "duration": 147}, {"note": 0, "velocity": 0, "duration": 93}, {"note": 73, "velocity": 112, "duration": 74}, {"note": 76, "velocity": 112, "duration": 85}, {"note": 73, "velocity": 118, "duration": 62}, {"note": 76, "velocity": 115, "duration": 63}, {"note": 78, "velocity": 115, "duration": 336}, {"note": 0, "velocity": 0, "duration": 144}, {"note": 76, "velocity": 115, "duration": 170}, {"note": 0, "velocity": 0, "duration": 70}, {"note": 71, "velocity": 112, "duration": 183}, {"note": 71, "velocity": 112, "duration": 150}, {"note": 0, "velocity": 0, "duration": 90}, {"note": 76, "velocity": 118, "duration": 154}, {"note": 0, "velocity": 0, "duration": 86}, {"note": 73, "velocity": 115, "duration": 82}, {"note": 71, "velocity": 104, "duration": 60}, {"note": 73, "velocity": 109, "duration": 530}, {"note": 0, "velocity": 0, "duration": 190}, {"note": 69, "velocity": 123, "duration": 181}, {"note": 66, "velocity": 115, "duration": 601}, {"note": 0, "velocity": 0, "duration": 119}, {"note": 73, "velocity": 109, "duration": 94}, {"note": 71, "velocity": 96, "duration": 66}, {"note": 73, "velocity": 109, "duration": 355}, {"note": 0, "velocity": 0, "duration": 125}, {"note": 78, "velocity": 115, "duration": 117}, {"note": 0, "velocity": 0, "duration": 123}, {"note": 73, "velocity": 115, "duration": 65}, {"note": 71, "velocity": 106, "duration": 58}, {"note": 0, "velocity": 0, "duration": 62}, {"note": 73, "velocity": 115, "duration": 1036}, {"note": 0, "velocity": 0, "duration": 644}, {"note": 66, "velocity": 115, "duration": 191}, {"note": 78, "velocity": 112, "duration": 388}, {"note": 0, "velocity": 0, "duration": 92}, {"note": 78, "velocity": 115, "duration": 147}, {"note": 0, "velocity": 0, "duration": 93}, {"note": 73, "velocity": 112, "duration": 74}, {"note": 76, "velocity": 112, "duration": 85}, {"note": 73, "velocity": 118, "duration": 62}, {"note": 76, "velocity": 115, "duration": 63}, {"note": 78, "velocity": 115, "duration": 336}, {"note": 0, "velocity": 0, "duration": 144}, {"note": 76, "velocity": 115, "duration": 170}, {"note": 0, "velocity": 0, "duration": 70}, {"note": 71, "velocity": 112, "duration": 183}, {"note": 71, "velocity": 112, "duration": 150}, {"note": 0, "velocity": 0, "duration": 90}, {"note": 76, "velocity": 118, "duration": 154}, {"note": 0, "velocity": 0, "duration": 86}, {"note": 73, "velocity": 115, "duration": 82}, {"note": 71, "velocity": 104, "duration": 60}, {"note": 73, "velocity": 109, "duration": 530}, {"note": 0, "velocity": 0, "duration": 190}, {"note": 69, "velocity": 123, "duration": 181}, {"note": 66, "velocity": 115, "duration": 958}, {"note": 0, "velocity": 0, "duration": 722}, {"note": 73, "velocity": 115, "duration": 65}, {"note": 71, "velocity": 106, "duration": 58}, {"note": 0, "velocity": 0, "duration": 62}, {"note": 73, "velocity": 115, "duration": 1036}, {"note": 0, "velocity": 0, "duration": 1604}, {"note": 73, "velocity": 115, "duration": 241}, {"note": 76, "velocity": 115, "duration": 622}, {"note": 0, "velocity": 0, "duration": 98}, {"note": 64, "velocity": 112, "duration": 180}, {"note": 66, "velocity": 112, "duration": 1618}]]