[[{"note": 74, "velocity": 102, "duration": 174}, {"note": 0, "velocity": 0, "duration": 66}, {"note": 62, "velocity": 105, "duration": 59}, {"note": 0, "velocity": 0, "duration": 61}, {"note": 64, "velocity": 92, "duration": 52}, {"note": 0, "velocity": 0, "duration": 68}, {"note": 66, "velocity": 105, "duration": 169}, {"note": 0, "velocity": 0, "duration": 71}, {"note": 71, "velocity": 102, "duration": 161}, {"note": 0, "velocity": 0, "duration": 79}, {"note": 69, "velocity": 66, "duration": 527}, {"note": 0, "velocity": 0, "duration": 433}, {"note": 67, "velocity": 105, "duration": 159}, {"note": 0, "velocity": 0, "duration": 81}, {"note": 66, "velocity": 99, "duration": 85}, {"note": 62, "velocity": 100, "duration": 285}, {"note": 0, "velocity": 0, "duration": 75}, {"note": 66, "velocity": 93, "duration": 184}, {"note": 64, "velocity": 111, "duration": 758}, {"note": 0, "velocity": 0, "duration": 202}, {"note": 74, "velocity": 102, "duration": 158}, {"note": 0, "velocity": 0, "duration": 82}, {"note": 62, "velocity": 100, "duration": 65}, {"note": 64, "velocity": 97, "duration": 57}, {"note": 0, "velocity": 0, "duration": 63}, {"note": 66, "velocity": 102, "duration": 172}, {"note": 0, "velocity": 0, "duration": 68}, {"note": 71, "velocity": 102, "duration": 155}, {"note": 0, "velocity": 0, "duration": 85}, {"note": 73, "velocity": 99, "duration": 283}, {"note": 0, "velocity": 0, "duration": 77}, {"note": 69, "velocity": 105, "duration": 358}, {"note": 66, "velocity": 105, "duration": 73}, {"note": 71, "velocity": 100, "duration": 567}, {"note": 0, "velocity": 0, "duration": 513}, {"note": 73, "velocity": 99, "duration": 71}, {"note": 73, "velocity": 68, "duration": 73}, {"note": 73, "velocity": 93, "duration": 70}, {"note": 74, "velocity": 97, "duration": 61}, {"note": 76, "velocity": 94, "duration": 64}, {"note": 74, "velocity": 87, "duration": 61}, {"note": 73, "velocity": 102, "duration": 162}, {"note": 0, "velocity": 0, "duration": 78}, {"note": 74, "velocity": 97, "duration": 238}, {"note": 73, "velocity": 102, "duration": 79}, {"note": 74, "velocity": 102, "duration": 120}, {"note": 0, "velocity": 0, "duration": 120}, {"note": 78, "velocity": 105, "duration": 239}, {"note": 0, "velocity": 0, "duration": 121}, {"note": 73, "velocity": 105, "duration": 175}, {"note": 0, "velocity": 0, "duration": 65}, {"note": 71, "velocity": 108, "duration": 70}, {"note": 73, "velocity": 96, "duration": 185}, {"note": 69, "velocity": 108, "duration": 220}, {"note": 0, "velocity": 0, "duration": 140}, {"note": 71, "velocity": 102, "duration": 60}, {"note": 71, "velocity": 105, "duration": 72}, {"note": 73, "velocity": 105, "duration": 61}, {"note": 74, "velocity": 76, "duration": 64}, {"note": 76, "velocity": 105, "duration": 59}, {"note": 0, "velocity": 0, "duration": 61}, {"note": 74, "velocity": 100, "duration": 55}, {"note": 0, "velocity": 0, "duration": 65}, {"note": 76, "velocity": 105, "duration": 64}, {"note": 79, "velocity": 102, "duration": 66}, {"note": 78, "velocity": 109, "duration": 178}, {"note": 0, "velocity": 0, "duration": 62}, {"note": 76, "velocity": 97, "duration": 51}, {"note": 0, "velocity": 0, "duration": 69}, {"note": 76, "velocity": 108, "duration": 188}, {"note": 74, "velocity": 105, "duration": 330}, {"note": 74, "velocity": 105, "duration": 190}, {"note": 73, "velocity": 105, "duration": 69}, {"note": 74, "velocity": 92, "duration": 162}, {"note": 0, "velocity": 0, "duration": 78}, {"note": 78, "velocity": 109, "duration": 193}, {"note": 0, "velocity": 0, "duration": 167}, {"note": 73, "velocity": 105, "duration": 166}, {"note": 0, "velocity": 0, "duration": 74}, {"note": 71, "velocity": 97, "duration": 76}, {"note": 73, "velocity": 102, "duration": 197}, {"note": 69, "velocity": 92, "duration": 244}, {"note": 0, "velocity": 0, "duration": 116}, {"note": 71, "velocity": 114, "duration": 681}, {"note": 0, "velocity": 0, "duration": 279}, {"note": 74, "velocity": 111, "duration": 50}, {"note": 0, "velocity": 0, "duration": 70}, {"note": 74, "velocity": 100, "duration": 58}, {"note": 0, "velocity": 0, "duration": 62}, {"note": 74, "velocity": 105, "duration": 61}, {"note": 76, "velocity": 108, "duration": 57}, {"note": 0, "velocity": 0, "duration": 63}, {"note": 78, "velocity": 109, "duration": 182}, {"note": 76, "velocity": 100, "duration": 57}, {"note": 0, "velocity": 0, "duration": 63}, {"note": 74, "velocity": 105, "duration": 193}, {"note": 76, "velocity": 102, "duration": 767}, {"note": 0, "velocity": 0, "duration": 313}, {"note": 73, "velocity": 105, "duration": 81}, {"note": 74, "velocity": 105, "duration": 152}, {"note": 0, "velocity": 0, "duration": 88}, {"note": 76, "velocity": 114, "duration": 239}, {"note": 0, "velocity": 0, "duration": 121}, {"note": 78, "velocity": 109, "duration": 174}, {"note": 0, "velocity": 0, "duration": 66}, {"note": 76, "velocity": 102, "duration": 64}, {"note": 74, "velocity": 109, "duration": 212}, {"note": 69, "velocity": 105, "duration": 168}, {"note": 0, "velocity": 0, "duration": 72}, {"note": 76, "velocity": 92, "duration": 593}, {"note": 0, "velocity": 0, "duration": 247}, {"note": 78, "velocity": 105, "duration": 76}, {"note": 76, "velocity": 92, "duration": 55}, {"note": 0, "velocity": 0, "duration": 65}, {"note": 74, "velocity": 111, "duration": 143}, {"note": 0, "velocity": 0, "duration": 97}, {"note": 73, "velocity": 93, "duration": 63}, {"note": 71, "velocity": 102, "duration": 147}, {"note": 0, "velocity": 0, "duration": 93}, {"note": 66, "velocity": 93, "duration": 158}, {"note": 0, "velocity": 0, "duration": 82}, {"note": 73, "velocity": 96, "duration": 478}, {"note": 0, "velocity": 0, "duration": 362}, {"note": 74, "velocity": 105, "duration": 70}, {"note": 73, "velocity": 109, "duration": 60}, {"note": 71, "velocity": 105, "duration": 152}, {"note": 0, "velocity": 0, "duration": 88}, {"note": 73, "velocity": 96, "duration": 63}, {"note": 74, "velocity": 100, "duration": 139}, {"note": 0, "velocity": 0, "duration": 101}, {"note": 76, "velocity": 105, "duration": 136}, {"note": 0, "velocity": 0, "duration": 104}, {"note": 69, "velocity": 102, "duration": 188}, {"note": 78, "velocity": 102, "duration": 219}, {"note": 78, "velocity": 105, "duration": 324}, {"note": 0, "velocity": 0, "duration": 156}, {"note": 78, "velocity": 112, "duration": 70}, {"note": 79, "velocity": 108, "duration": 151}, {"note": 0, "velocity": 0, "duration": 89}, {"note": 78, "velocity": 112, "duration": 75}, {"note": 74, "velocity": 108, "duration": 177}, {"note": 0, "velocity": 0, "duration": 63}, {"note": 76, "velocity": 102, "duration": 170}, {"note": 0, "velocity": 0, "duration": 70}, {"note": 76, "velocity": 111, "duration": 403}, {"note": 0, "velocity": 0, "duration": 77}, {"note": 73, "velocity": 112, "duration": 60}, {"note": 74, "velocity": 87, "duration": 61}, {"note": 76, "velocity": 111, "duration": 260}, {"note": 0, "velocity": 0, "duration": 100}, {"note": 78, "velocity": 109, "duration": 178}, {"note": 0, "velocity": 0, "duration": 62}, {"note": 76, "velocity": 105, "duration": 50}, {"note": 0, "velocity": 0, "duration": 70}, {"note": 74, "velocity": 108, "duration": 149}, {"note": 0, "velocity": 0, "duration": 91}, {"note": 69, "velocity": 105, "duration": 142}, {"note": 0, "velocity": 0, "duration": 98}, {"note": 76, "velocity": 94, "duration": 442}, {"note": 0, "velocity": 0, "duration": 278}, {"note": 76, "velocity": 102, "duration": 60}, {"note": 78, "velocity": 109, "duration": 67}, {"note": 76, "velocity": 105, "duration": 55}, {"note": 0, "velocity": 0, "duration": 65}, {"note": 74, "velocity": 111, "duration": 149}, {"note": 0, "velocity": 0, "duration": 91}, {"note": 73, "velocity": 109, "duration": 63}, {"note": 71, "velocity": 102, "duration": 158}, {"note": 0, "velocity": 0, "duration": 82}, {"note": 76, "velocity": 97, "duration": 144}, {"note": 0, "velocity": 0, "duration": 96}, {"note": 73, "velocity": 96, "duration": 494}, {"note": 0, "velocity": 0, "duration": 346}, {"note": 74, "velocity": 102, "duration": 64}, {"note": 73, "velocity": 102, "duration": 58}, {"note": 0, "velocity": 0, "duration": 62}, {"note": 71, "velocity": 108, "duration": 139}, {"note": 0, "velocity": 0, "duration": 101}, {"note": 69, "velocity": 102, "duration": 55}, {"note": 0, "velocity": 0, "duration": 65}, {"note": 71, "velocity": 108, "duration": 142}, {"note": 0, "velocity": 0, "duration": 98}, {"note": 74, "velocity": 108, "duration": 131}, {"note": 0, "velocity": 0, "duration": 109}, {"note": 69, "velocity": 105, "duration": 166}, {"note": 0, "velocity": 0, "duration": 74}, {"note": 76, "velocity": 97, "duration": 158}, {"note": 0, "velocity": 0, "duration": 82}, {"note": 74, "velocity": 105, "duration": 219}, {"note": 0, "velocity": 0, "duration": 141}, {"note": 78, "velocity": 112, "duration": 61}, {"note": 78, "velocity": 93, "duration": 67}, {"note": 79, "velocity": 100, "duration": 155}, {"note": 0, "velocity": 0, "duration": 85}, {"note": 78, "velocity": 105, "duration": 70}, {"note": 76, "velocity": 100, "duration": 291}, {"note": 0, "velocity": 0, "duration": 69}, {"note": 74, "velocity": 97, "duration": 64}, {"note": 76, "velocity": 94, "duration": 60}, {"note": 77, "velocity": 102, "duration": 163}, {"note": 0, "velocity": 0, "duration": 77}, {"note": 76, "velocity": 105, "duration": 85}, {"note": 74, "velocity": 92, "duration": 68}, {"note": 77, "velocity": 100, "duration": 188}, {"note": 74, "velocity": 108, "duration": 71}, {"note": 69, "velocity": 102, "duration": 238}, {"note": 0, "velocity": 0, "duration": 122}, {"note": 74, "velocity": 97, "duration": 1335}, {"note": 0, "velocity": 0, "duration": 8025}, {"note": 74, "velocity": 97, "duration": 238}, {"note": 73, "velocity": 102, "duration": 79}, {"note": 74, "velocity": 102, "duration": 120}, {"note": 0, "velocity": 0, "duration": 120}, {"note": 78, "velocity": 105, "duration": 239}, {"note": 0, "velocity": 0, "duration": 121}, {"note": 73, "velocity": 105, "duration": 175}, {"note": 0, "velocity": 0, "duration": 65}, {"note": 71, "velocity": 108, "duration": 70}, {"note": 73, "velocity": 96, "duration": 185}, {"note": 69, "velocity": 108, "duration": 220}, {"note": 0, "velocity": 0, "duration": 140}, {"note": 71, "velocity": 102, "duration": 60}, {"note": 71, "velocity": 105, "duration": 72}, {"note": 73, "velocity": 105, "duration": 61}, {"note": 74, "velocity": 76, "duration": 64}, {"note": 76, "velocity": 105, "duration": 59}, {"note": 0, "velocity": 0, "duration": 61}, {"note": 74, "velocity": 100, "duration": 55}, {"note": 0, "velocity": 0, "duration": 65}, {"note": 76, "velocity": 105, "duration": 64}, {"note": 79, "velocity": 102, "duration": 66}, {"note": 78, "velocity": 109, "duration": 178}, {"note": 0, "velocity": 0, "duration": 62}, {"note": 76, "velocity": 97, "duration": 51}, {"note": 0, "velocity": 0, "duration": 69}, {"note": 76, "velocity": 108, "duration": 188}, {"note": 74, "velocity": 105, "duration": 330}, {"note": 74, "velocity": 105, "duration": 190}, {"note": 73, "velocity": 105, "duration": 69}, {"note": 74, "velocity": 92, "duration": 162}, {"note": 0, "velocity": 0, "duration": 78}, {"note": 78, "velocity": 109, "duration": 193}, {"note": 0, "velocity": 0, "duration": 167}, {"note": 73, "velocity": 105, "duration": 166}, {"note": 0, "velocity": 0, "duration": 74}, {"note": 71, "velocity": 97, "duration": 76}, {"note": 73, "velocity": 102, "duration": 197}, {"note": 69, "velocity": 92, "duration": 244}, {"note": 0, "velocity": 0, "duration": 116}, {"note": 71, "velocity": 114, "duration": 681}, {"note": 74, "velocity": 111, "duration": 60}, {"note": 74, "velocity": 105, "duration": 58}, {"note": 0, "velocity": 0, "duration": 62}, {"note": 74, "velocity": 111, "duration": 172}, {"note": 0, "velocity": 0, "duration": 68}, {"note": 76, "velocity": 105, "duration": 55}, {"note": 0, "velocity": 0, "duration": 65}, {"note": 78, "velocity": 112, "duration": 69}, {"note": 79, "velocity": 102, "duration": 193}, {"note": 78, "velocity": 105, "duration": 73}, {"note": 74, "velocity": 108, "duration": 299}, {"note": 0, "velocity": 0, "duration": 61}, {"note": 76, "velocity": 111, "duration": 770}, {"note": 0, "velocity": 0, "duration": 190}, {"note": 73, "velocity": 105, "duration": 81}, {"note": 74, "velocity": 105, "duration": 152}, {"note": 0, "velocity": 0, "duration": 88}, {"note": 76, "velocity": 114, "duration": 239}, {"note": 0, "velocity": 0, "duration": 121}, {"note": 78, "velocity": 109, "duration": 174}, {"note": 0, "velocity": 0, "duration": 66}, {"note": 76, "velocity": 102, "duration": 64}, {"note": 74, "velocity": 109, "duration": 212}, {"note": 69, "velocity": 105, "duration": 168}, {"note": 0, "velocity": 0, "duration": 72}, {"note": 76, "velocity": 92, "duration": 593}, {"note": 0, "velocity": 0, "duration": 247}, {"note": 78, "velocity": 105, "duration": 76}, {"note": 76, "velocity": 92, "duration": 55}, {"note": 0, "velocity": 0, "duration": 65}, {"note": 74, "velocity": 111, "duration": 143}, {"note": 0, "velocity": 0, "duration": 97}, {"note": 73, "velocity": 93, "duration": 63}, {"note": 71, "velocity": 102, "duration": 147}, {"note": 0, "velocity": 0, "duration": 93}, {"note": 66, "velocity": 93, "duration": 158}, {"note": 0, "velocity": 0, "duration": 82}, {"note": 73, "velocity": 96, "duration": 478}, {"note": 0, "velocity": 0, "duration": 362}, {"note": 74, "velocity": 105, "duration": 70}, {"note": 73, "velocity": 109, "duration": 60}, {"note": 71, "velocity": 105, "duration": 152}, {"note": 0, "velocity": 0, "duration": 88}, {"note": 73, "velocity": 96, "duration": 63}, {"note": 74, "velocity": 100, "duration": 139}, {"note": 0, "velocity": 0, "duration": 101}, {"note": 76, "velocity": 105, "duration": 136}, {"note": 0, "velocity": 0, "duration": 104}, {"note": 69, "velocity": 102, "duration": 188}, {"note": 78, "velocity": 102, "duration": 219}, {"note": 78, "velocity": 105, "duration": 324}, {"note": 0, "velocity": 0, "duration": 156}, {"note": 78, "velocity": 112, "duration": 70}, {"note": 79, "velocity": 108, "duration": 151}, {"note": 0, "velocity": 0, "duration": 89}, {"note": 78, "velocity": 112, "duration": 75}, {"note": 74, "velocity": 108, "duration": 177}, {"note": 0, "velocity": 0, "duration": 63}, {"note": 76, "velocity": 102, "duration": 170}, {"note": 0, "velocity": 0, "duration": 70}, {"note": 76, "velocity": 111, "duration": 403}, {"note": 0, "velocity": 0, "duration": 77}, {"note": 73, "velocity": 112, "duration": 60}, {"note": 74, "velocity": 87, "duration": 61}, {"note": 76, "velocity": 111, "duration": 260}, {"note": 0, "velocity": 0, "duration": 100}, {"note": 78, "velocity": 109, "duration": 178}, {"note": 0, "velocity": 0, "duration": 62}, {"note": 76, "velocity": 105, "duration": 50}, {"note": 0, "velocity": 0, "duration": 70}, {"note": 74, "velocity": 108, "duration": 149}, {"note": 0, "velocity": 0, "duration": 91}, {"note": 69, "velocity": 105, "duration": 142}, {"note": 0, "velocity": 0, "duration": 98}, {"note": 76, "velocity": 94, "duration": 442}, {"note": 0, "velocity": 0, "duration": 278}, {"note": 76, "velocity": 102, "duration": 60}, {"note": 78, "velocity": 109, "duration": 67}, {"note": 76, "velocity": 105, "duration": 55}, {"note": 0, "velocity": 0, "duration": 65}, {"note": 74, "velocity": 111, "duration": 149}, {"note": 0, "velocity": 0, "duration": 91}, {"note": 73, "velocity": 109, "duration": 63}, {"note": 71, "velocity": 102, "duration": 158}, {"note": 0, "velocity": 0, "duration": 82}, {"note": 76, "velocity": 97, "duration": 144}, {"note": 0, "velocity": 0, "duration": 96}, {"note": 73, "velocity": 96, "duration": 494}, {"note": 0, "velocity": 0, "duration": 346}, {"note": 74, "velocity": 102, "duration": 64}, {"note": 73, "velocity": 102, "duration": 58}, {"note": 0, "velocity": 0, "duration": 62}, {"note": 71, "velocity": 108, "duration": 139}, {"note": 0, "velocity": 0, "duration": 101}, {"note": 69, "velocity": 102, "duration": 55}, {"note": 0, "velocity": 0, "duration": 65}, {"note": 71, "velocity": 108, "duration": 142}, {"note": 0, "velocity": 0, "duration": 98}, {"note": 74, "velocity": 108, "duration": 131}, {"note": 0, "velocity": 0, "duration": 109}, {"note": 69, "velocity": 105, "duration": 166}, {"note": 0, "velocity": 0, "duration": 74}, {"note": 76, "velocity": 97, "duration": 158}, {"note": 0, "velocity": 0, "duration": 82}, {"note": 74, "velocity": 105, "duration": 219}, {"note": 0, "velocity": 0, "duration": 141}, {"note": 78, "velocity": 112, "duration": 61}, {"note": 78, "velocity": 93, "duration": 67}, {"note": 79, "velocity": 100, "duration": 155}, {"note": 0, "velocity": 0, "duration": 85}, {"note": 78, "velocity": 105, "duration": 70}, {"note": 76, "velocity": 100, "duration": 291}, {"note": 0, "velocity": 0, "duration": 69}, {"note": 74, "velocity": 97, "duration": 64}, {"note": 76, "velocity": 94, "duration": 60}, {"note": 77, "velocity": 102, "duration": 163}, {"note": 0, "velocity": 0, "duration": 77}, {"note": 76, "velocity": 105, "duration": 85}, {"note": 74, "velocity": 92, "duration": 68}, {"note": 77, "velocity": 100, "duration": 188}, {"note": 74, "velocity": 108, "duration": 71}, {"note": 69, "velocity": 102, "duration": 238}, {"note": 0, "velocity": 0, "duration": 122}, {"note": 74, "velocity": 97, "duration": 1335}, {"note": 0, "velocity": 0, "duration": 2625}, {"note": 71, "velocity": 114, "duration": 71}, {"note": 83, "velocity": 114, "duration": 277}, {"note": 0, "velocity": 0, "duration": 83}, {"note": 80, "velocity": 105, "duration": 92}, {"note": 78, "velocity": 99, "duration": 515}, {"note": 0, "velocity": 0, "duration": 325}, {"note": 80, "velocity": 93, "duration": 90}, {"note": 78, "velocity": 105, "duration": 172}, {"note": 0, "velocity": 0, "duration": 68}, {"note": 76, "velocity": 105, "duration": 625}, {"note": 0, "velocity": 0, "duration": 95}, {"note": 75, "velocity": 109, "duration": 102}, {"note": 73, "velocity": 105, "duration": 99}, {"note": 71, "velocity": 105, "duration": 478}, {"note": 76, "velocity": 102, "duration": 76}, {"note": 75, "velocity": 112, "duration": 63}, {"note": 73, "velocity": 105, "duration": 156}, {"note": 0, "velocity": 0, "duration": 84}, {"note": 75, "velocity": 109, "duration": 52}, {"note": 0, "velocity": 0, "duration": 68}, {"note": 76, "velocity": 100, "duration": 136}, {"note": 0, "velocity": 0, "duration": 104}, {"note": 78, "velocity": 105, "duration": 138}, {"note": 0, "velocity": 0, "duration": 102}, {"note": 71, "velocity": 117, "duration": 172}, {"note": 0, "velocity": 0, "duration": 68}, {"note": 80, "velocity": 109, "duration": 158}, {"note": 0, "velocity": 0, "duration": 82}, {"note": 80, "velocity": 109, "duration": 260}, {"note": 0, "velocity": 0, "duration": 220}, {"note": 80, "velocity": 99, "duration": 67}, {"note": 81, "velocity": 105, "duration": 158}, {"note": 0, "velocity": 0, "duration": 82}, {"note": 80, "velocity": 112, "duration": 60}, {"note": 76, "velocity": 102, "duration": 166}, {"note": 0, "velocity": 0, "duration": 74}, {"note": 80, "velocity": 105, "duration": 159}, {"note": 0, "velocity": 0, "duration": 81}, {"note": 78, "velocity": 109, "duration": 418}, {"note": 0, "velocity": 0, "duration": 62}, {"note": 75, "velocity": 105, "duration": 69}, {"note": 76, "velocity": 94, "duration": 77}, {"note": 78, "velocity": 105, "duration": 277}, {"note": 0, "velocity": 0, "duration": 83}, {"note": 80, "velocity": 109, "duration": 168}, {"note": 0, "velocity": 0, "duration": 72}, {"note": 78, "velocity": 109, "duration": 86}, {"note": 76, "velocity": 108, "duration": 152}, {"note": 0, "velocity": 0, "duration": 88}, {"note": 83, "velocity": 105, "duration": 269}, {"note": 0, "velocity": 0, "duration": 91}, {"note": 78, "velocity": 96, "duration": 499}, {"note": 0, "velocity": 0, "duration": 101}, {"note": 78, "velocity": 105, "duration": 51}, {"note": 0, "velocity": 0, "duration": 69}, {"note": 80, "velocity": 105, "duration": 58}, {"note": 0, "velocity": 0, "duration": 62}, {"note": 78, "velocity": 105, "duration": 54}, {"note": 0, "velocity": 0, "duration": 66}, {"note": 76, "velocity": 100, "duration": 174}, {"note": 0, "velocity": 0, "duration": 66}, {"note": 75, "velocity": 99, "duration": 70}, {"note": 73, "velocity": 105, "duration": 169}, {"note": 0, "velocity": 0, "duration": 71}, {"note": 78, "velocity": 105, "duration": 155}, {"note": 0, "velocity": 0, "duration": 85}, {"note": 75, "velocity": 105, "duration": 603}, {"note": 0, "velocity": 0, "duration": 237}, {"note": 76, "velocity": 100, "duration": 64}, {"note": 75, "velocity": 105, "duration": 63}, {"note": 73, "velocity": 109, "duration": 155}, {"note": 0, "velocity": 0, "duration": 85}, {"note": 71, "velocity": 108, "duration": 67}, {"note": 73, "velocity": 102, "duration": 128}, {"note": 0, "velocity": 0, "duration": 112}, {"note": 76, "velocity": 102, "duration": 136}, {"note": 0, "velocity": 0, "duration": 104}, {"note": 71, "velocity": 108, "duration": 174}, {"note": 0, "velocity": 0, "duration": 66}, {"note": 78, "velocity": 109, "duration": 184}, {"note": 76, "velocity": 97, "duration": 223}, {"note": 0, "velocity": 0, "duration": 137}, {"note": 80, "velocity": 102, "duration": 67}, {"note": 80, "velocity": 102, "duration": 63}, {"note": 81, "velocity": 105, "duration": 174}, {"note": 0, "velocity": 0, "duration": 66}, {"note": 80, "velocity": 109, "duration": 60}, {"note": 78, "velocity": 102, "duration": 302}, {"note": 76, "velocity": 100, "duration": 64}, {"note": 78, "velocity": 99, "duration": 55}, {"note": 0, "velocity": 0, "duration": 65}, {"note": 79, "velocity": 105, "duration": 172}, {"note": 0, "velocity": 0, "duration": 68}, {"note": 78, "velocity": 109, "duration": 81}, {"note": 76, "velocity": 89, "duration": 67}, {"note": 79, "velocity": 105, "duration": 181}, {"note": 76, "velocity": 94, "duration": 73}, {"note": 71, "velocity": 111, "duration": 342}, {"note": 78, "velocity": 109, "duration": 216}, {"note": 76, "velocity": 100, "duration": 1104}, {"note": 0, "velocity": 0, "duration": 1296}, {"note": 79, "velocity": 108, "duration": 126}, {"note": 0, "velocity": 0, "duration": 114}, {"note": 78, "velocity": 102, "duration": 105}, {"note": 76, "velocity": 94, "duration": 71}, {"note": 79, "velocity": 105, "duration": 202}, {"note": 76, "velocity": 100, "duration": 806}, {"note": 0, "velocity": 0, "duration": 394}, {"note": 71, "velocity": 108, "duration": 540}, {"note": 78, "velocity": 105, "duration": 473}, {"note": 76, "velocity": 100, "duration": 1858}]]