[[{"note": 69, "velocity": 120, "duration": 370}, {"note": 0, "velocity": 0, "duration": 110}, {"note": 64, "velocity": 111, "duration": 137}, {"note": 0, "velocity": 0, "duration": 103}, {"note": 64, "velocity": 114, "duration": 733}, {"note": 0, "velocity": 0, "duration": 227}, {"note": 69, "velocity": 114, "duration": 118}, {"note": 0, "velocity": 0, "duration": 122}, {"note": 71, "velocity": 114, "duration": 366}, {"note": 0, "velocity": 0, "duration": 114}, {"note": 64, "velocity": 111, "duration": 134}, {"note": 0, "velocity": 0, "duration": 106}, {"note": 64, "velocity": 108, "duration": 844}, {"note": 0, "velocity": 0, "duration": 356}, {"note": 72, "velocity": 105, "duration": 372}, {"note": 0, "velocity": 0, "duration": 108}, {"note": 71, "velocity": 108, "duration": 118}, {"note": 0, "velocity": 0, "duration": 122}, {"note": 72, "velocity": 114, "duration": 496}, {"note": 0, "velocity": 0, "duration": 224}, {"note": 74, "velocity": 111, "duration": 377}, {"note": 0, "velocity": 0, "duration": 103}, {"note": 71, "velocity": 117, "duration": 351}, {"note": 0, "velocity": 0, "duration": 129}, {"note": 69, "velocity": 105, "duration": 141}, {"note": 0, "velocity": 0, "duration": 99}, {"note": 67, "velocity": 114, "duration": 937}, {"note": 0, "velocity": 0, "duration": 263}, {"note": 69, "velocity": 117, "duration": 328}, {"note": 0, "velocity": 0, "duration": 152}, {"note": 67, "velocity": 108, "duration": 123}, {"note": 0, "velocity": 0, "duration": 117}, {"note": 65, "velocity": 114, "duration": 528}, {"note": 0, "velocity": 0, "duration": 192}, {"note": 65, "velocity": 114, "duration": 109}, {"note": 0, "velocity": 0, "duration": 131}, {"note": 67, "velocity": 105, "duration": 104}, {"note": 0, "velocity": 0, "duration": 136}, {"note": 69, "velocity": 111, "duration": 343}, {"note": 0, "velocity": 0, "duration": 137}, {"note": 69, "velocity": 111, "duration": 328}, {"note": 0, "velocity": 0, "duration": 152}, {"note": 67, "velocity": 105, "duration": 114}, {"note": 0, "velocity": 0, "duration": 126}, {"note": 65, "velocity": 114, "duration": 382}, {"note": 0, "velocity": 0, "duration": 98}, {"note": 64, "velocity": 108, "duration": 2040}, {"note": 0, "velocity": 0, "duration": 2040}, {"note": 69, "velocity": 111, "duration": 343}, {"note": 0, "velocity": 0, "duration": 137}, {"note": 64, "velocity": 114, "duration": 111}, {"note": 0, "velocity": 0, "duration": 129}, {"note": 64, "velocity": 111, "duration": 530}, {"note": 0, "velocity": 0, "duration": 248}, {"note": 69, "velocity": 108, "duration": 242}, {"note": 0, "velocity": 0, "duration": 180}, {"note": 71, "velocity": 114, "duration": 318}, {"note": 0, "velocity": 0, "duration": 162}, {"note": 64, "velocity": 114, "duration": 111}, {"note": 0, "velocity": 0, "duration": 129}, {"note": 64, "velocity": 111, "duration": 673}, {"note": 0, "velocity": 0, "duration": 527}, {"note": 72, "velocity": 108, "duration": 321}, {"note": 0, "velocity": 0, "duration": 159}, {"note": 71, "velocity": 105, "duration": 128}, {"note": 0, "velocity": 0, "duration": 112}, {"note": 72, "velocity": 111, "duration": 479}, {"note": 74, "velocity": 117, "duration": 454}, {"note": 0, "velocity": 0, "duration": 237}, {"note": 71, "velocity": 108, "duration": 311}, {"note": 0, "velocity": 0, "duration": 169}, {"note": 69, "velocity": 111, "duration": 111}, {"note": 0, "velocity": 0, "duration": 129}, {"note": 67, "velocity": 108, "duration": 893}, {"note": 0, "velocity": 0, "duration": 307}, {"note": 69, "velocity": 114, "duration": 385}, {"note": 0, "velocity": 0, "duration": 95}, {"note": 71, "velocity": 102, "duration": 116}, {"note": 0, "velocity": 0, "duration": 124}, {"note": 72, "velocity": 105, "duration": 565}, {"note": 0, "velocity": 0, "duration": 155}, {"note": 74, "velocity": 114, "duration": 238}, {"note": 72, "velocity": 100, "duration": 238}, {"note": 71, "velocity": 102, "duration": 141}, {"note": 0, "velocity": 0, "duration": 99}, {"note": 71, "velocity": 100, "duration": 116}, {"note": 0, "velocity": 0, "duration": 124}, {"note": 71, "velocity": 114, "duration": 155}, {"note": 0, "velocity": 0, "duration": 85}, {"note": 71, "velocity": 105, "duration": 151}, {"note": 0, "velocity": 0, "duration": 89}, {"note": 67, "velocity": 108, "duration": 280}, {"note": 71, "velocity": 92, "duration": 151}, {"note": 0, "velocity": 0, "duration": 322}, {"note": 69, "velocity": 114, "duration": 1137}, {"note": 0, "velocity": 0, "duration": 2463}, {"note": 72, "velocity": 117, "duration": 116}, {"note": 0, "velocity": 0, "duration": 124}, {"note": 74, "velocity": 111, "duration": 109}, {"note": 0, "velocity": 0, "duration": 131}, {"note": 76, "velocity": 117, "duration": 343}, {"note": 0, "velocity": 0, "duration": 123}, {"note": 72, "velocity": 114, "duration": 353}, {"note": 0, "velocity": 0, "duration": 141}, {"note": 74, "velocity": 108, "duration": 338}, {"note": 0, "velocity": 0, "duration": 142}, {"note": 72, "velocity": 108, "duration": 116}, {"note": 0, "velocity": 0, "duration": 124}, {"note": 74, "velocity": 111, "duration": 133}, {"note": 0, "velocity": 0, "duration": 107}, {"note": 76, "velocity": 108, "duration": 118}, {"note": 0, "velocity": 0, "duration": 122}, {"note": 77, "velocity": 105, "duration": 116}, {"note": 0, "velocity": 0, "duration": 124}, {"note": 79, "velocity": 105, "duration": 114}, {"note": 0, "velocity": 0, "duration": 126}, {"note": 76, "velocity": 111, "duration": 123}, {"note": 0, "velocity": 0, "duration": 117}, {"note": 74, "velocity": 114, "duration": 311}, {"note": 0, "velocity": 0, "duration": 169}, {"note": 72, "velocity": 108, "duration": 116}, {"note": 0, "velocity": 0, "duration": 124}, {"note": 74, "velocity": 108, "duration": 109}, {"note": 0, "velocity": 0, "duration": 131}, {"note": 76, "velocity": 117, "duration": 262}, {"note": 0, "velocity": 0, "duration": 218}, {"note": 69, "velocity": 111, "duration": 353}, {"note": 0, "velocity": 0, "duration": 127}, {"note": 74, "velocity": 105, "duration": 291}, {"note": 0, "velocity": 0, "duration": 189}, {"note": 72, "velocity": 102, "duration": 136}, {"note": 0, "velocity": 0, "duration": 104}, {"note": 71, "velocity": 111, "duration": 118}, {"note": 0, "velocity": 0, "duration": 122}, {"note": 69, "velocity": 108, "duration": 131}, {"note": 0, "velocity": 0, "duration": 109}, {"note": 71, "velocity": 111, "duration": 104}, {"note": 0, "velocity": 0, "duration": 136}, {"note": 69, "velocity": 111, "duration": 109}, {"note": 0, "velocity": 0, "duration": 131}, {"note": 67, "velocity": 108, "duration": 133}, {"note": 0, "velocity": 0, "duration": 107}, {"note": 64, "velocity": 120, "duration": 294}, {"note": 0, "velocity": 0, "duration": 186}, {"note": 72, "velocity": 105, "duration": 141}, {"note": 0, "velocity": 0, "duration": 99}, {"note": 74, "velocity": 108, "duration": 121}, {"note": 0, "velocity": 0, "duration": 119}, {"note": 76, "velocity": 114, "duration": 343}, {"note": 0, "velocity": 0, "duration": 137}, {"note": 72, "velocity": 111, "duration": 365}, {"note": 0, "velocity": 0, "duration": 115}, {"note": 74, "velocity": 102, "duration": 363}, {"note": 0, "velocity": 0, "duration": 117}, {"note": 72, "velocity": 105, "duration": 111}, {"note": 0, "velocity": 0, "duration": 129}, {"note": 74, "velocity": 111, "duration": 109}, {"note": 0, "velocity": 0, "duration": 131}, {"note": 76, "velocity": 102, "duration": 109}, {"note": 0, "velocity": 0, "duration": 131}, {"note": 77, "velocity": 108, "duration": 116}, {"note": 0, "velocity": 0, "duration": 124}, {"note": 79, "velocity": 105, "duration": 110}, {"note": 0, "velocity": 0, "duration": 130}, {"note": 76, "velocity": 102, "duration": 118}, {"note": 0, "velocity": 0, "duration": 122}, {"note": 74, "velocity": 108, "duration": 296}, {"note": 0, "velocity": 0, "duration": 184}, {"note": 72, "velocity": 108, "duration": 131}, {"note": 0, "velocity": 0, "duration": 109}, {"note": 74, "velocity": 105, "duration": 111}, {"note": 0, "velocity": 0, "duration": 129}, {"note": 76, "velocity": 114, "duration": 266}, {"note": 0, "velocity": 0, "duration": 214}, {"note": 69, "velocity": 111, "duration": 336}, {"note": 0, "velocity": 0, "duration": 144}, {"note": 74, "velocity": 105, "duration": 303}, {"note": 0, "velocity": 0, "duration": 177}, {"note": 72, "velocity": 108, "duration": 121}, {"note": 0, "velocity": 0, "duration": 119}, {"note": 71, "velocity": 117, "duration": 363}, {"note": 0, "velocity": 0, "duration": 117}, {"note": 69, "velocity": 114, "duration": 777}, {"note": 0, "velocity": 0, "duration": 924}, {"note": 69, "velocity": 120, "duration": 349}, {"note": 0, "velocity": 0, "duration": 110}, {"note": 64, "velocity": 111, "duration": 137}, {"note": 0, "velocity": 0, "duration": 103}, {"note": 64, "velocity": 114, "duration": 733}, {"note": 0, "velocity": 0, "duration": 227}, {"note": 69, "velocity": 114, "duration": 118}, {"note": 0, "velocity": 0, "duration": 122}, {"note": 71, "velocity": 114, "duration": 366}, {"note": 0, "velocity": 0, "duration": 114}, {"note": 64, "velocity": 111, "duration": 134}, {"note": 0, "velocity": 0, "duration": 106}, {"note": 64, "velocity": 108, "duration": 844}, {"note": 0, "velocity": 0, "duration": 356}, {"note": 72, "velocity": 105, "duration": 372}, {"note": 0, "velocity": 0, "duration": 108}, {"note": 71, "velocity": 108, "duration": 118}, {"note": 0, "velocity": 0, "duration": 122}, {"note": 72, "velocity": 114, "duration": 496}, {"note": 0, "velocity": 0, "duration": 224}, {"note": 74, "velocity": 111, "duration": 377}, {"note": 0, "velocity": 0, "duration": 103}, {"note": 71, "velocity": 117, "duration": 351}, {"note": 0, "velocity": 0, "duration": 129}, {"note": 69, "velocity": 105, "duration": 141}, {"note": 0, "velocity": 0, "duration": 99}, {"note": 67, "velocity": 114, "duration": 937}, {"note": 0, "velocity": 0, "duration": 263}, {"note": 69, "velocity": 117, "duration": 328}, {"note": 0, "velocity": 0, "duration": 152}, {"note": 67, "velocity": 108, "duration": 123}, {"note": 0, "velocity": 0, "duration": 117}, {"note": 65, "velocity": 114, "duration": 528}, {"note": 0, "velocity": 0, "duration": 192}, {"note": 65, "velocity": 114, "duration": 109}, {"note": 0, "velocity": 0, "duration": 131}, {"note": 67, "velocity": 105, "duration": 104}, {"note": 0, "velocity": 0, "duration": 136}, {"note": 69, "velocity": 111, "duration": 343}, {"note": 0, "velocity": 0, "duration": 137}, {"note": 69, "velocity": 111, "duration": 328}, {"note": 0, "velocity": 0, "duration": 152}, {"note": 67, "velocity": 105, "duration": 114}, {"note": 0, "velocity": 0, "duration": 126}, {"note": 65, "velocity": 114, "duration": 382}, {"note": 0, "velocity": 0, "duration": 98}, {"note": 64, "velocity": 108, "duration": 2040}, {"note": 0, "velocity": 0, "duration": 2040}, {"note": 69, "velocity": 111, "duration": 343}, {"note": 0, "velocity": 0, "duration": 137}, {"note": 64, "velocity": 114, "duration": 111}, {"note": 0, "velocity": 0, "duration": 129}, {"note": 64, "velocity": 111, "duration": 530}, {"note": 0, "velocity": 0, "duration": 173}, {"note": 69, "velocity": 108, "duration": 178}, {"note": 0, "velocity": 0, "duration": 319}, {"note": 71, "velocity": 114, "duration": 318}, {"note": 0, "velocity": 0, "duration": 162}, {"note": 64, "velocity": 114, "duration": 111}, {"note": 0, "velocity": 0, "duration": 129}, {"note": 64, "velocity": 111, "duration": 673}, {"note": 0, "velocity": 0, "duration": 527}, {"note": 72, "velocity": 108, "duration": 321}, {"note": 0, "velocity": 0, "duration": 159}, {"note": 71, "velocity": 105, "duration": 128}, {"note": 0, "velocity": 0, "duration": 112}, {"note": 72, "velocity": 111, "duration": 414}, {"note": 74, "velocity": 117, "duration": 303}, {"note": 0, "velocity": 0, "duration": 490}, {"note": 71, "velocity": 108, "duration": 291}, {"note": 0, "velocity": 0, "duration": 169}, {"note": 69, "velocity": 111, "duration": 111}, {"note": 0, "velocity": 0, "duration": 129}, {"note": 67, "velocity": 108, "duration": 893}, {"note": 0, "velocity": 0, "duration": 307}, {"note": 69, "velocity": 114, "duration": 385}, {"note": 0, "velocity": 0, "duration": 95}, {"note": 71, "velocity": 102, "duration": 116}, {"note": 0, "velocity": 0, "duration": 124}, {"note": 72, "velocity": 105, "duration": 565}, {"note": 0, "velocity": 0, "duration": 155}, {"note": 74, "velocity": 114, "duration": 238}, {"note": 72, "velocity": 100, "duration": 238}, {"note": 71, "velocity": 102, "duration": 141}, {"note": 0, "velocity": 0, "duration": 99}, {"note": 71, "velocity": 100, "duration": 116}, {"note": 0, "velocity": 0, "duration": 124}, {"note": 71, "velocity": 114, "duration": 155}, {"note": 0, "velocity": 0, "duration": 85}, {"note": 71, "velocity": 105, "duration": 151}, {"note": 0, "velocity": 0, "duration": 89}, {"note": 67, "velocity": 108, "duration": 217}, {"note": 71, "velocity": 92, "duration": 151}, {"note": 0, "velocity": 0, "duration": 350}, {"note": 69, "velocity": 114, "duration": 1100}, {"note": 0, "velocity": 0, "duration": 2502}, {"note": 72, "velocity": 117, "duration": 116}, {"note": 0, "velocity": 0, "duration": 124}, {"note": 74, "velocity": 111, "duration": 109}, {"note": 0, "velocity": 0, "duration": 131}, {"note": 76, "velocity": 117, "duration": 343}, {"note": 0, "velocity": 0, "duration": 137}, {"note": 72, "velocity": 114, "duration": 353}, {"note": 0, "velocity": 0, "duration": 127}, {"note": 74, "velocity": 108, "duration": 338}, {"note": 0, "velocity": 0, "duration": 142}, {"note": 72, "velocity": 108, "duration": 116}, {"note": 0, "velocity": 0, "duration": 124}, {"note": 74, "velocity": 111, "duration": 133}, {"note": 0, "velocity": 0, "duration": 107}, {"note": 76, "velocity": 108, "duration": 118}, {"note": 0, "velocity": 0, "duration": 122}, {"note": 77, "velocity": 105, "duration": 116}, {"note": 0, "velocity": 0, "duration": 124}, {"note": 79, "velocity": 105, "duration": 114}, {"note": 0, "velocity": 0, "duration": 126}, {"note": 76, "velocity": 111, "duration": 123}, {"note": 0, "velocity": 0, "duration": 117}, {"note": 74, "velocity": 114, "duration": 311}, {"note": 0, "velocity": 0, "duration": 169}, {"note": 72, "velocity": 108, "duration": 116}, {"note": 0, "velocity": 0, "duration": 124}, {"note": 74, "velocity": 108, "duration": 109}, {"note": 0, "velocity": 0, "duration": 131}, {"note": 76, "velocity": 117, "duration": 262}, {"note": 0, "velocity": 0, "duration": 218}, {"note": 69, "velocity": 111, "duration": 353}, {"note": 0, "velocity": 0, "duration": 127}, {"note": 74, "velocity": 105, "duration": 291}, {"note": 0, "velocity": 0, "duration": 189}, {"note": 72, "velocity": 102, "duration": 136}, {"note": 0, "velocity": 0, "duration": 104}, {"note": 71, "velocity": 111, "duration": 118}, {"note": 0, "velocity": 0, "duration": 122}, {"note": 69, "velocity": 108, "duration": 131}, {"note": 0, "velocity": 0, "duration": 109}, {"note": 71, "velocity": 111, "duration": 104}, {"note": 0, "velocity": 0, "duration": 136}, {"note": 69, "velocity": 111, "duration": 109}, {"note": 0, "velocity": 0, "duration": 131}, {"note": 67, "velocity": 108, "duration": 133}, {"note": 0, "velocity": 0, "duration": 107}, {"note": 64, "velocity": 120, "duration": 294}, {"note": 0, "velocity": 0, "duration": 186}, {"note": 72, "velocity": 105, "duration": 141}, {"note": 0, "velocity": 0, "duration": 99}, {"note": 74, "velocity": 108, "duration": 121}, {"note": 0, "velocity": 0, "duration": 119}, {"note": 76, "velocity": 114, "duration": 343}, {"note": 0, "velocity": 0, "duration": 137}, {"note": 72, "velocity": 111, "duration": 365}, {"note": 0, "velocity": 0, "duration": 115}, {"note": 74, "velocity": 102, "duration": 363}, {"note": 0, "velocity": 0, "duration": 117}, {"note": 72, "velocity": 105, "duration": 111}, {"note": 0, "velocity": 0, "duration": 129}, {"note": 74, "velocity": 111, "duration": 109}, {"note": 0, "velocity": 0, "duration": 131}, {"note": 76, "velocity": 102, "duration": 109}, {"note": 0, "velocity": 0, "duration": 131}, {"note": 77, "velocity": 108, "duration": 116}, {"note": 0, "velocity": 0, "duration": 124}, {"note": 79, "velocity": 105, "duration": 110}, {"note": 0, "velocity": 0, "duration": 130}, {"note": 76, "velocity": 102, "duration": 118}, {"note": 0, "velocity": 0, "duration": 122}, {"note": 74, "velocity": 108, "duration": 296}, {"note": 0, "velocity": 0, "duration": 184}, {"note": 72, "velocity": 108, "duration": 131}, {"note": 0, "velocity": 0, "duration": 109}, {"note": 74, "velocity": 105, "duration": 111}, {"note": 0, "velocity": 0, "duration": 129}, {"note": 76, "velocity": 114, "duration": 266}, {"note": 0, "velocity": 0, "duration": 214}, {"note": 69, "velocity": 111, "duration": 336}, {"note": 0, "velocity": 0, "duration": 144}, {"note": 74, "velocity": 105, "duration": 303}, {"note": 0, "velocity": 0, "duration": 177}, {"note": 72, "velocity": 108, "duration": 121}, {"note": 0, "velocity": 0, "duration": 119}, {"note": 71, "velocity": 117, "duration": 363}, {"note": 0, "velocity": 0, "duration": 117}, {"note": 69, "velocity": 114, "duration": 777}, {"note": 0, "velocity": 0, "duration": 423}, {"note": 72, "velocity": 117, "duration": 116}, {"note": 0, "velocity": 0, "duration": 124}, {"note": 74, "velocity": 111, "duration": 109}, {"note": 0, "velocity": 0, "duration": 131}, {"note": 76, "velocity": 117, "duration": 343}, {"note": 0, "velocity": 0, "duration": 137}, {"note": 72, "velocity": 114, "duration": 353}, {"note": 0, "velocity": 0, "duration": 127}, {"note": 74, "velocity": 108, "duration": 338}, {"note": 0, "velocity": 0, "duration": 142}, {"note": 72, "velocity": 108, "duration": 116}, {"note": 0, "velocity": 0, "duration": 124}, {"note": 74, "velocity": 111, "duration": 133}, {"note": 0, "velocity": 0, "duration": 107}, {"note": 76, "velocity": 108, "duration": 118}, {"note": 0, "velocity": 0, "duration": 122}, {"note": 77, "velocity": 105, "duration": 116}, {"note": 0, "velocity": 0, "duration": 124}, {"note": 79, "velocity": 105, "duration": 114}, {"note": 0, "velocity": 0, "duration": 126}, {"note": 76, "velocity": 111, "duration": 123}, {"note": 0, "velocity": 0, "duration": 117}, {"note": 74, "velocity": 114, "duration": 311}, {"note": 0, "velocity": 0, "duration": 169}, {"note": 72, "velocity": 108, "duration": 116}, {"note": 0, "velocity": 0, "duration": 124}, {"note": 74, "velocity": 108, "duration": 109}, {"note": 0, "velocity": 0, "duration": 131}, {"note": 76, "velocity": 117, "duration": 262}, {"note": 0, "velocity": 0, "duration": 218}, {"note": 69, "velocity": 111, "duration": 353}, {"note": 0, "velocity": 0, "duration": 127}, {"note": 74, "velocity": 105, "duration": 291}, {"note": 0, "velocity": 0, "duration": 189}, {"note": 72, "velocity": 102, "duration": 136}, {"note": 0, "velocity": 0, "duration": 104}, {"note": 71, "velocity": 111, "duration": 118}, {"note": 0, "velocity": 0, "duration": 122}, {"note": 69, "velocity": 108, "duration": 131}, {"note": 0, "velocity": 0, "duration": 109}, {"note": 71, "velocity": 111, "duration": 104}, {"note": 0, "velocity": 0, "duration": 136}, {"note": 69, "velocity": 111, "duration": 109}, {"note": 0, "velocity": 0, "duration": 131}, {"note": 67, "velocity": 108, "duration": 133}, {"note": 0, "velocity": 0, "duration": 107}, {"note": 64, "velocity": 120, "duration": 294}, {"note": 0, "velocity": 0, "duration": 186}, {"note": 72, "velocity": 105, "duration": 141}, {"note": 0, "velocity": 0, "duration": 99}, {"note": 74, "velocity": 108, "duration": 121}, {"note": 0, "velocity": 0, "duration": 119}, {"note": 76, "velocity": 114, "duration": 343}, {"note": 0, "velocity": 0, "duration": 137}, {"note": 72, "velocity": 111, "duration": 365}, {"note": 0, "velocity": 0, "duration": 115}, {"note": 74, "velocity": 102, "duration": 363}, {"note": 0, "velocity": 0, "duration": 117}, {"note": 72, "velocity": 105, "duration": 111}, {"note": 0, "velocity": 0, "duration": 129}, {"note": 74, "velocity": 111, "duration": 109}, {"note": 0, "velocity": 0, "duration": 131}, {"note": 76, "velocity": 102, "duration": 109}, {"note": 0, "velocity": 0, "duration": 131}, {"note": 77, "velocity": 108, "duration": 116}, {"note": 0, "velocity": 0, "duration": 124}, {"note": 79, "velocity": 105, "duration": 110}, {"note": 0, "velocity": 0, "duration": 130}, {"note": 76, "velocity": 102, "duration": 118}, {"note": 0, "velocity": 0, "duration": 122}, {"note": 74, "velocity": 108, "duration": 296}, {"note": 0, "velocity": 0, "duration": 184}, {"note": 72, "velocity": 108, "duration": 131}, {"note": 0, "velocity": 0, "duration": 109}, {"note": 74, "velocity": 105, "duration": 111}, {"note": 0, "velocity": 0, "duration": 129}, {"note": 76, "velocity": 114, "duration": 266}, {"note": 0, "velocity": 0, "duration": 214}, {"note": 69, "velocity": 111, "duration": 336}, {"note": 0, "velocity": 0, "duration": 144}, {"note": 74, "velocity": 105, "duration": 303}, {"note": 0, "velocity": 0, "duration": 177}, {"note": 72, "velocity": 108, "duration": 121}, {"note": 0, "velocity": 0, "duration": 119}, {"note": 71, "velocity": 117, "duration": 363}, {"note": 0, "velocity": 0, "duration": 117}, {"note": 69, "velocity": 114, "duration": 777}, {"note": 0, "velocity": 0, "duration": 15783}, {"note": 72, "velocity": 117, "duration": 116}, {"note": 0, "velocity": 0, "duration": 124}, {"note": 74, "velocity": 111, "duration": 109}, {"note": 0, "velocity": 0, "duration": 131}, {"note": 76, "velocity": 117, "duration": 343}, {"note": 0, "velocity": 0, "duration": 137}, {"note": 72, "velocity": 114, "duration": 353}, {"note": 0, "velocity": 0, "duration": 127}, {"note": 74, "velocity": 108, "duration": 338}, {"note": 0, "velocity": 0, "duration": 142}, {"note": 72, "velocity": 108, "duration": 116}, {"note": 0, "velocity": 0, "duration": 124}, {"note": 74, "velocity": 111, "duration": 133}, {"note": 0, "velocity": 0, "duration": 107}, {"note": 76, "velocity": 108, "duration": 118}, {"note": 0, "velocity": 0, "duration": 122}, {"note": 77, "velocity": 105, "duration": 116}, {"note": 0, "velocity": 0, "duration": 124}, {"note": 79, "velocity": 105, "duration": 114}, {"note": 0, "velocity": 0, "duration": 126}, {"note": 76, "velocity": 111, "duration": 123}, {"note": 0, "velocity": 0, "duration": 117}, {"note": 74, "velocity": 114, "duration": 311}, {"note": 0, "velocity": 0, "duration": 169}, {"note": 72, "velocity": 108, "duration": 116}, {"note": 0, "velocity": 0, "duration": 124}, {"note": 74, "velocity": 108, "duration": 109}, {"note": 0, "velocity": 0, "duration": 131}, {"note": 76, "velocity": 117, "duration": 262}, {"note": 0, "velocity": 0, "duration": 218}, {"note": 69, "velocity": 111, "duration": 353}, {"note": 0, "velocity": 0, "duration": 127}, {"note": 74, "velocity": 105, "duration": 291}, {"note": 0, "velocity": 0, "duration": 189}, {"note": 72, "velocity": 102, "duration": 136}, {"note": 0, "velocity": 0, "duration": 104}, {"note": 71, "velocity": 111, "duration": 118}, {"note": 0, "velocity": 0, "duration": 122}, {"note": 69, "velocity": 108, "duration": 131}, {"note": 0, "velocity": 0, "duration": 109}, {"note": 71, "velocity": 111, "duration": 104}, {"note": 0, "velocity": 0, "duration": 136}, {"note": 69, "velocity": 111, "duration": 109}, {"note": 0, "velocity": 0, "duration": 131}, {"note": 67, "velocity": 108, "duration": 133}, {"note": 0, "velocity": 0, "duration": 107}, {"note": 64, "velocity": 120, "duration": 294}, {"note": 0, "velocity": 0, "duration": 186}, {"note": 72, "velocity": 105, "duration": 141}, {"note": 0, "velocity": 0, "duration": 99}, {"note": 74, "velocity": 108, "duration": 121}, {"note": 0, "velocity": 0, "duration": 119}, {"note": 76, "velocity": 114, "duration": 343}, {"note": 0, "velocity": 0, "duration": 137}, {"note": 72, "velocity": 111, "duration": 365}, {"note": 0, "velocity": 0, "duration": 115}, {"note": 74, "velocity": 102, "duration": 363}, {"note": 0, "velocity": 0, "duration": 117}, {"note": 72, "velocity": 105, "duration": 111}, {"note": 0, "velocity": 0, "duration": 129}, {"note": 74, "velocity": 111, "duration": 109}, {"note": 0, "velocity": 0, "duration": 131}, {"note": 76, "velocity": 102, "duration": 109}, {"note": 0, "velocity": 0, "duration": 131}, {"note": 77, "velocity": 108, "duration": 116}, {"note": 0, "velocity": 0, "duration": 124}, {"note": 79, "velocity": 105, "duration": 110}, {"note": 0, "velocity": 0, "duration": 130}, {"note": 76, "velocity": 102, "duration": 118}, {"note": 0, "velocity": 0, "duration": 122}, {"note": 74, "velocity": 108, "duration": 296}, {"note": 0, "velocity": 0, "duration": 184}, {"note": 72, "velocity": 108, "duration": 131}, {"note": 0, "velocity": 0, "duration": 109}, {"note": 74, "velocity": 105, "duration": 111}, {"note": 0, "velocity": 0, "duration": 129}, {"note": 76, "velocity": 114, "duration": 266}, {"note": 0, "velocity": 0, "duration": 214}, {"note": 69, "velocity": 111, "duration": 336}, {"note": 0, "velocity": 0, "duration": 144}, {"note": 74, "velocity": 105, "duration": 303}, {"note": 0, "velocity": 0, "duration": 177}, {"note": 72, "velocity": 108, "duration": 121}, {"note": 0, "velocity": 0, "duration": 119}, {"note": 71, "velocity": 117, "duration": 363}, {"note": 0, "velocity": 0, "duration": 117}, {"note": 69, "velocity": 114, "duration": 777}, {"note": 0, "velocity": 0, "duration": 423}, {"note": 72, "velocity": 117, "duration": 116}, {"note": 0, "velocity": 0, "duration": 124}, {"note": 74, "velocity": 111, "duration": 109}, {"note": 0, "velocity": 0, "duration": 131}, {"note": 76, "velocity": 117, "duration": 343}, {"note": 0, "velocity": 0, "duration": 137}, {"note": 72, "velocity": 114, "duration": 353}, {"note": 0, "velocity": 0, "duration": 127}, {"note": 74, "velocity": 108, "duration": 338}, {"note": 0, "velocity": 0, "duration": 142}, {"note": 72, "velocity": 108, "duration": 116}, {"note": 0, "velocity": 0, "duration": 124}, {"note": 74, "velocity": 111, "duration": 133}, {"note": 0, "velocity": 0, "duration": 107}, {"note": 76, "velocity": 108, "duration": 118}, {"note": 0, "velocity": 0, "duration": 122}, {"note": 77, "velocity": 105, "duration": 116}, {"note": 0, "velocity": 0, "duration": 124}, {"note": 79, "velocity": 105, "duration": 114}, {"note": 0, "velocity": 0, "duration": 126}, {"note": 76, "velocity": 111, "duration": 123}, {"note": 0, "velocity": 0, "duration": 117}, {"note": 74, "velocity": 114, "duration": 311}, {"note": 0, "velocity": 0, "duration": 169}, {"note": 72, "velocity": 108, "duration": 116}, {"note": 0, "velocity": 0, "duration": 124}, {"note": 74, "velocity": 108, "duration": 109}, {"note": 0, "velocity": 0, "duration": 131}, {"note": 76, "velocity": 117, "duration": 262}, {"note": 0, "velocity": 0, "duration": 218}, {"note": 69, "velocity": 111, "duration": 353}, {"note": 0, "velocity": 0, "duration": 127}, {"note": 74, "velocity": 105, "duration": 291}, {"note": 0, "velocity": 0, "duration": 189}, {"note": 72, "velocity": 102, "duration": 136}, {"note": 0, "velocity": 0, "duration": 104}, {"note": 71, "velocity": 111, "duration": 118}, {"note": 0, "velocity": 0, "duration": 122}, {"note": 69, "velocity": 108, "duration": 131}, {"note": 0, "velocity": 0, "duration": 109}, {"note": 71, "velocity": 111, "duration": 104}, {"note": 0, "velocity": 0, "duration": 136}, {"note": 69, "velocity": 111, "duration": 109}, {"note": 0, "velocity": 0, "duration": 131}, {"note": 67, "velocity": 108, "duration": 133}, {"note": 0, "velocity": 0, "duration": 107}, {"note": 64, "velocity": 120, "duration": 294}, {"note": 0, "velocity": 0, "duration": 186}, {"note": 72, "velocity": 105, "duration": 141}, {"note": 0, "velocity": 0, "duration": 99}, {"note": 74, "velocity": 108, "duration": 121}, {"note": 0, "velocity": 0, "duration": 119}, {"note": 76, "velocity": 114, "duration": 343}, {"note": 0, "velocity": 0, "duration": 137}, {"note": 72, "velocity": 111, "duration": 365}, {"note": 0, "velocity": 0, "duration": 115}, {"note": 74, "velocity": 102, "duration": 363}, {"note": 0, "velocity": 0, "duration": 117}, {"note": 72, "velocity": 105, "duration": 111}, {"note": 0, "velocity": 0, "duration": 129}, {"note": 74, "velocity": 111, "duration": 109}, {"note": 0, "velocity": 0, "duration": 131}, {"note": 76, "velocity": 102, "duration": 109}, {"note": 0, "velocity": 0, "duration": 131}, {"note": 77, "velocity": 108, "duration": 116}, {"note": 0, "velocity": 0, "duration": 124}, {"note": 79, "velocity": 105, "duration": 110}, {"note": 0, "velocity": 0, "duration": 130}, {"note": 76, "velocity": 102, "duration": 118}, {"note": 0, "velocity": 0, "duration": 122}, {"note": 74, "velocity": 108, "duration": 296}, {"note": 0, "velocity": 0, "duration": 184}, {"note": 72, "velocity": 108, "duration": 131}, {"note": 0, "velocity": 0, "duration": 109}, {"note": 74, "velocity": 105, "duration": 111}, {"note": 0, "velocity": 0, "duration": 129}, {"note": 76, "velocity": 114, "duration": 266}, {"note": 0, "velocity": 0, "duration": 214}, {"note": 69, "velocity": 111, "duration": 336}, {"note": 0, "velocity": 0, "duration": 144}, {"note": 74, "velocity": 105, "duration": 303}, {"note": 0, "velocity": 0, "duration": 177}, {"note": 72, "velocity": 108, "duration": 121}, {"note": 0, "velocity": 0, "duration": 119}, {"note": 71, "velocity": 117, "duration": 363}, {"note": 0, "velocity": 0, "duration": 117}, {"note": 69, "velocity": 114, "duration": 777}, {"note": 0, "velocity": 0, "duration": 903}, {"note": 69, "velocity": 111, "duration": 343}, {"note": 0, "velocity": 0, "duration": 137}, {"note": 64, "velocity": 114, "duration": 111}, {"note": 0, "velocity": 0, "duration": 129}, {"note": 64, "velocity": 111, "duration": 530}, {"note": 0, "velocity": 0, "duration": 430}, {"note": 69, "velocity": 108, "duration": 178}, {"note": 0, "velocity": 0, "duration": 62}, {"note": 71, "velocity": 114, "duration": 318}, {"note": 0, "velocity": 0, "duration": 162}, {"note": 64, "velocity": 114, "duration": 111}, {"note": 0, "velocity": 0, "duration": 129}, {"note": 64, "velocity": 111, "duration": 673}, {"note": 0, "velocity": 0, "duration": 527}, {"note": 72, "velocity": 108, "duration": 321}, {"note": 0, "velocity": 0, "duration": 159}, {"note": 71, "velocity": 105, "duration": 128}, {"note": 0, "velocity": 0, "duration": 112}, {"note": 72, "velocity": 111, "duration": 565}, {"note": 74, "velocity": 117, "duration": 303}, {"note": 0, "velocity": 0, "duration": 391}, {"note": 71, "velocity": 108, "duration": 311}, {"note": 0, "velocity": 0, "duration": 169}, {"note": 69, "velocity": 111, "duration": 111}, {"note": 0, "velocity": 0, "duration": 129}, {"note": 67, "velocity": 108, "duration": 893}, {"note": 0, "velocity": 0, "duration": 307}, {"note": 69, "velocity": 114, "duration": 385}, {"note": 0, "velocity": 0, "duration": 95}, {"note": 71, "velocity": 102, "duration": 116}, {"note": 0, "velocity": 0, "duration": 124}, {"note": 72, "velocity": 105, "duration": 565}, {"note": 0, "velocity": 0, "duration": 155}, {"note": 74, "velocity": 114, "duration": 238}, {"note": 72, "velocity": 100, "duration": 238}, {"note": 71, "velocity": 102, "duration": 141}, {"note": 0, "velocity": 0, "duration": 99}, {"note": 71, "velocity": 100, "duration": 116}, {"note": 0, "velocity": 0, "duration": 124}, {"note": 71, "velocity": 114, "duration": 155}, {"note": 0, "velocity": 0, "duration": 85}, {"note": 71, "velocity": 105, "duration": 151}, {"note": 0, "velocity": 0, "duration": 89}, {"note": 67, "velocity": 108, "duration": 236}, {"note": 71, "velocity": 92, "duration": 151}, {"note": 0, "velocity": 0, "duration": 346}, {"note": 69, "velocity": 114, "duration": 1184}]]