[[{"note": 63, "velocity": 109, "duration": 167}, {"note": 0, "velocity": 0, "duration": 73}, {"note": 65, "velocity": 104, "duration": 148}, {"note": 0, "velocity": 0, "duration": 92}, {"note": 67, "velocity": 110, "duration": 63}, {"note": 67, "velocity": 110, "duration": 45}, {"note": 0, "velocity": 0, "duration": 75}, {"note": 67, "velocity": 113, "duration": 56}, {"note": 0, "velocity": 0, "duration": 64}, {"note": 68, "velocity": 101, "duration": 68}, {"note": 67, "velocity": 117, "duration": 136}, {"note": 0, "velocity": 0, "duration": 104}, {"note": 63, "velocity": 106, "duration": 55}, {"note": 0, "velocity": 0, "duration": 65}, {"note": 65, "velocity": 120, "duration": 190}, {"note": 67, "velocity": 106, "duration": 428}, {"note": 0, "velocity": 0, "duration": 172}, {"note": 65, "velocity": 106, "duration": 65}, {"note": 63, "velocity": 106, "duration": 55}, {"note": 0, "velocity": 0, "duration": 65}, {"note": 65, "velocity": 109, "duration": 50}, {"note": 0, "velocity": 0, "duration": 70}, {"note": 65, "velocity": 109, "duration": 43}, {"note": 0, "velocity": 0, "duration": 77}, {"note": 65, "velocity": 106, "duration": 54}, {"note": 0, "velocity": 0, "duration": 66}, {"note": 67, "velocity": 123, "duration": 50}, {"note": 0, "velocity": 0, "duration": 70}, {"note": 65, "velocity": 109, "duration": 128}, {"note": 0, "velocity": 0, "duration": 112}, {"note": 62, "velocity": 107, "duration": 60}, {"note": 65, "velocity": 104, "duration": 191}, {"note": 63, "velocity": 112, "duration": 378}, {"note": 0, "velocity": 0, "duration": 222}, {"note": 60, "velocity": 106, "duration": 53}, {"note": 0, "velocity": 0, "duration": 67}, {"note": 62, "velocity": 113, "duration": 53}, {"note": 0, "velocity": 0, "duration": 67}, {"note": 63, "velocity": 109, "duration": 487}, {"note": 0, "velocity": 0, "duration": 233}, {"note": 62, "velocity": 117, "duration": 49}, {"note": 0, "velocity": 0, "duration": 71}, {"note": 63, "velocity": 106, "duration": 68}, {"note": 67, "velocity": 120, "duration": 94}, {"note": 65, "velocity": 104, "duration": 433}, {"note": 0, "velocity": 0, "duration": 167}, {"note": 63, "velocity": 101, "duration": 70}, {"note": 65, "velocity": 104, "duration": 73}, {"note": 67, "velocity": 113, "duration": 67}, {"note": 67, "velocity": 110, "duration": 55}, {"note": 0, "velocity": 0, "duration": 65}, {"note": 67, "velocity": 110, "duration": 53}, {"note": 0, "velocity": 0, "duration": 67}, {"note": 68, "velocity": 104, "duration": 67}, {"note": 67, "velocity": 120, "duration": 180}, {"note": 63, "velocity": 106, "duration": 71}, {"note": 65, "velocity": 109, "duration": 182}, {"note": 67, "velocity": 117, "duration": 450}, {"note": 0, "velocity": 0, "duration": 150}, {"note": 60, "velocity": 106, "duration": 63}, {"note": 60, "velocity": 106, "duration": 65}, {"note": 67, "velocity": 117, "duration": 54}, {"note": 0, "velocity": 0, "duration": 66}, {"note": 67, "velocity": 117, "duration": 51}, {"note": 0, "velocity": 0, "duration": 69}, {"note": 67, "velocity": 117, "duration": 58}, {"note": 0, "velocity": 0, "duration": 62}, {"note": 68, "velocity": 109, "duration": 67}, {"note": 70, "velocity": 106, "duration": 161}, {"note": 0, "velocity": 0, "duration": 79}, {"note": 67, "velocity": 113, "duration": 75}, {"note": 63, "velocity": 104, "duration": 52}, {"note": 0, "velocity": 0, "duration": 68}, {"note": 67, "velocity": 117, "duration": 188}, {"note": 65, "velocity": 112, "duration": 289}, {"note": 0, "velocity": 0, "duration": 71}, {"note": 70, "velocity": 112, "duration": 122}, {"note": 0, "velocity": 0, "duration": 118}, {"note": 67, "velocity": 117, "duration": 79}, {"note": 65, "velocity": 104, "duration": 49}, {"note": 0, "velocity": 0, "duration": 71}, {"note": 65, "velocity": 104, "duration": 48}, {"note": 0, "velocity": 0, "duration": 72}, {"note": 65, "velocity": 106, "duration": 56}, {"note": 0, "velocity": 0, "duration": 64}, {"note": 67, "velocity": 117, "duration": 65}, {"note": 65, "velocity": 112, "duration": 109}, {"note": 0, "velocity": 0, "duration": 131}, {"note": 58, "velocity": 106, "duration": 59}, {"note": 0, "velocity": 0, "duration": 61}, {"note": 65, "velocity": 106, "duration": 167}, {"note": 0, "velocity": 0, "duration": 73}, {"note": 63, "velocity": 106, "duration": 363}, {"note": 0, "velocity": 0, "duration": 237}, {"note": 60, "velocity": 109, "duration": 63}, {"note": 62, "velocity": 113, "duration": 62}, {"note": 63, "velocity": 112, "duration": 647}, {"note": 0, "velocity": 0, "duration": 193}, {"note": 62, "velocity": 107, "duration": 62}, {"note": 63, "velocity": 109, "duration": 145}, {"note": 0, "velocity": 0, "duration": 95}, {"note": 62, "velocity": 113, "duration": 60}, {"note": 62, "velocity": 117, "duration": 167}, {"note": 0, "velocity": 0, "duration": 73}, {"note": 65, "velocity": 106, "duration": 166}, {"note": 0, "velocity": 0, "duration": 74}, {"note": 65, "velocity": 106, "duration": 193}, {"note": 63, "velocity": 106, "duration": 1112}, {"note": 0, "velocity": 0, "duration": 208}, {"note": 67, "velocity": 120, "duration": 124}, {"note": 0, "velocity": 0, "duration": 116}, {"note": 68, "velocity": 112, "duration": 98}, {"note": 70, "velocity": 109, "duration": 89}, {"note": 72, "velocity": 109, "duration": 507}, {"note": 0, "velocity": 0, "duration": 213}, {"note": 67, "velocity": 104, "duration": 66}, {"note": 65, "velocity": 117, "duration": 436}, {"note": 0, "velocity": 0, "duration": 404}, {"note": 67, "velocity": 120, "duration": 65}, {"note": 68, "velocity": 109, "duration": 60}, {"note": 70, "velocity": 109, "duration": 182}, {"note": 72, "velocity": 101, "duration": 83}, {"note": 70, "velocity": 106, "duration": 276}, {"note": 0, "velocity": 0, "duration": 84}, {"note": 68, "velocity": 99, "duration": 71}, {"note": 67, "velocity": 113, "duration": 478}, {"note": 0, "velocity": 0, "duration": 362}, {"note": 67, "velocity": 117, "duration": 62}, {"note": 68, "velocity": 99, "duration": 53}, {"note": 0, "velocity": 0, "duration": 67}, {"note": 70, "velocity": 109, "duration": 153}, {"note": 0, "velocity": 0, "duration": 87}, {"note": 63, "velocity": 109, "duration": 61}, {"note": 63, "velocity": 109, "duration": 146}, {"note": 0, "velocity": 0, "duration": 214}, {"note": 67, "velocity": 117, "duration": 61}, {"note": 68, "velocity": 109, "duration": 54}, {"note": 0, "velocity": 0, "duration": 66}, {"note": 70, "velocity": 109, "duration": 155}, {"note": 0, "velocity": 0, "duration": 85}, {"note": 68, "velocity": 106, "duration": 67}, {"note": 67, "velocity": 113, "duration": 290}, {"note": 0, "velocity": 0, "duration": 70}, {"note": 65, "velocity": 109, "duration": 193}, {"note": 67, "velocity": 120, "duration": 649}, {"note": 0, "velocity": 0, "duration": 71}, {"note": 68, "velocity": 112, "duration": 75}, {"note": 70, "velocity": 112, "duration": 483}, {"note": 0, "velocity": 0, "duration": 92}, {"note": 67, "velocity": 120, "duration": 128}, {"note": 68, "velocity": 109, "duration": 97}, {"note": 0, "velocity": 0, "duration": 68}, {"note": 70, "velocity": 109, "duration": 91}, {"note": 72, "velocity": 109, "duration": 672}, {"note": 0, "velocity": 0, "duration": 67}, {"note": 75, "velocity": 112, "duration": 172}, {"note": 0, "velocity": 0, "duration": 68}, {"note": 71, "velocity": 117, "duration": 500}, {"note": 0, "velocity": 0, "duration": 220}, {"note": 75, "velocity": 112, "duration": 152}, {"note": 0, "velocity": 0, "duration": 88}, {"note": 70, "velocity": 112, "duration": 157}, {"note": 0, "velocity": 0, "duration": 83}, {"note": 72, "velocity": 112, "duration": 161}, {"note": 0, "velocity": 0, "duration": 79}, {"note": 70, "velocity": 109, "duration": 181}, {"note": 68, "velocity": 104, "duration": 77}, {"note": 67, "velocity": 110, "duration": 491}, {"note": 0, "velocity": 0, "duration": 349}, {"note": 67, "velocity": 113, "duration": 73}, {"note": 68, "velocity": 106, "duration": 57}, {"note": 0, "velocity": 0, "duration": 63}, {"note": 70, "velocity": 112, "duration": 120}, {"note": 0, "velocity": 0, "duration": 120}, {"note": 63, "velocity": 104, "duration": 57}, {"note": 0, "velocity": 0, "duration": 63}, {"note": 63, "velocity": 109, "duration": 378}, {"note": 0, "velocity": 0, "duration": 102}, {"note": 63, "velocity": 106, "duration": 75}, {"note": 65, "velocity": 106, "duration": 479}, {"note": 0, "velocity": 0, "duration": 241}, {"note": 63, "velocity": 109, "duration": 217}, {"note": 65, "velocity": 106, "duration": 229}, {"note": 63, "velocity": 106, "duration": 1557}, {"note": 0, "velocity": 0, "duration": 7323}, {"note": 63, "velocity": 109, "duration": 167}, {"note": 0, "velocity": 0, "duration": 73}, {"note": 65, "velocity": 104, "duration": 148}, {"note": 0, "velocity": 0, "duration": 92}, {"note": 67, "velocity": 110, "duration": 63}, {"note": 67, "velocity": 110, "duration": 45}, {"note": 0, "velocity": 0, "duration": 75}, {"note": 67, "velocity": 113, "duration": 56}, {"note": 0, "velocity": 0, "duration": 64}, {"note": 68, "velocity": 101, "duration": 68}, {"note": 67, "velocity": 117, "duration": 136}, {"note": 0, "velocity": 0, "duration": 104}, {"note": 63, "velocity": 106, "duration": 55}, {"note": 0, "velocity": 0, "duration": 65}, {"note": 65, "velocity": 120, "duration": 190}, {"note": 67, "velocity": 106, "duration": 428}, {"note": 0, "velocity": 0, "duration": 172}, {"note": 65, "velocity": 106, "duration": 65}, {"note": 63, "velocity": 106, "duration": 55}, {"note": 0, "velocity": 0, "duration": 65}, {"note": 65, "velocity": 109, "duration": 50}, {"note": 0, "velocity": 0, "duration": 70}, {"note": 65, "velocity": 109, "duration": 43}, {"note": 0, "velocity": 0, "duration": 77}, {"note": 65, "velocity": 106, "duration": 54}, {"note": 0, "velocity": 0, "duration": 66}, {"note": 67, "velocity": 123, "duration": 50}, {"note": 0, "velocity": 0, "duration": 70}, {"note": 65, "velocity": 109, "duration": 128}, {"note": 0, "velocity": 0, "duration": 112}, {"note": 62, "velocity": 107, "duration": 60}, {"note": 65, "velocity": 104, "duration": 191}, {"note": 63, "velocity": 112, "duration": 378}, {"note": 0, "velocity": 0, "duration": 222}, {"note": 60, "velocity": 106, "duration": 53}, {"note": 0, "velocity": 0, "duration": 67}, {"note": 62, "velocity": 113, "duration": 53}, {"note": 0, "velocity": 0, "duration": 67}, {"note": 63, "velocity": 109, "duration": 487}, {"note": 0, "velocity": 0, "duration": 233}, {"note": 62, "velocity": 117, "duration": 49}, {"note": 0, "velocity": 0, "duration": 71}, {"note": 63, "velocity": 106, "duration": 68}, {"note": 67, "velocity": 120, "duration": 94}, {"note": 65, "velocity": 104, "duration": 433}, {"note": 0, "velocity": 0, "duration": 167}, {"note": 63, "velocity": 101, "duration": 70}, {"note": 65, "velocity": 104, "duration": 73}, {"note": 67, "velocity": 113, "duration": 67}, {"note": 67, "velocity": 110, "duration": 55}, {"note": 0, "velocity": 0, "duration": 65}, {"note": 67, "velocity": 110, "duration": 53}, {"note": 0, "velocity": 0, "duration": 67}, {"note": 68, "velocity": 104, "duration": 67}, {"note": 67, "velocity": 120, "duration": 180}, {"note": 63, "velocity": 106, "duration": 71}, {"note": 65, "velocity": 109, "duration": 182}, {"note": 67, "velocity": 117, "duration": 450}, {"note": 0, "velocity": 0, "duration": 150}, {"note": 60, "velocity": 106, "duration": 63}, {"note": 60, "velocity": 106, "duration": 65}, {"note": 67, "velocity": 117, "duration": 54}, {"note": 0, "velocity": 0, "duration": 66}, {"note": 67, "velocity": 117, "duration": 51}, {"note": 0, "velocity": 0, "duration": 69}, {"note": 67, "velocity": 117, "duration": 58}, {"note": 0, "velocity": 0, "duration": 62}, {"note": 68, "velocity": 109, "duration": 67}, {"note": 70, "velocity": 106, "duration": 161}, {"note": 0, "velocity": 0, "duration": 79}, {"note": 67, "velocity": 113, "duration": 75}, {"note": 63, "velocity": 104, "duration": 52}, {"note": 0, "velocity": 0, "duration": 68}, {"note": 67, "velocity": 117, "duration": 188}, {"note": 65, "velocity": 112, "duration": 289}, {"note": 0, "velocity": 0, "duration": 71}, {"note": 70, "velocity": 112, "duration": 122}, {"note": 0, "velocity": 0, "duration": 118}, {"note": 67, "velocity": 117, "duration": 79}, {"note": 65, "velocity": 104, "duration": 49}, {"note": 0, "velocity": 0, "duration": 71}, {"note": 65, "velocity": 104, "duration": 48}, {"note": 0, "velocity": 0, "duration": 72}, {"note": 65, "velocity": 106, "duration": 56}, {"note": 0, "velocity": 0, "duration": 64}, {"note": 67, "velocity": 117, "duration": 65}, {"note": 65, "velocity": 112, "duration": 109}, {"note": 0, "velocity": 0, "duration": 131}, {"note": 58, "velocity": 106, "duration": 59}, {"note": 0, "velocity": 0, "duration": 61}, {"note": 65, "velocity": 106, "duration": 167}, {"note": 0, "velocity": 0, "duration": 73}, {"note": 63, "velocity": 106, "duration": 363}, {"note": 0, "velocity": 0, "duration": 237}, {"note": 60, "velocity": 109, "duration": 63}, {"note": 62, "velocity": 113, "duration": 62}, {"note": 63, "velocity": 112, "duration": 647}, {"note": 0, "velocity": 0, "duration": 193}, {"note": 62, "velocity": 107, "duration": 62}, {"note": 63, "velocity": 109, "duration": 145}, {"note": 0, "velocity": 0, "duration": 95}, {"note": 62, "velocity": 113, "duration": 60}, {"note": 62, "velocity": 117, "duration": 167}, {"note": 0, "velocity": 0, "duration": 73}, {"note": 65, "velocity": 106, "duration": 166}, {"note": 0, "velocity": 0, "duration": 74}, {"note": 65, "velocity": 106, "duration": 193}, {"note": 63, "velocity": 106, "duration": 1112}, {"note": 0, "velocity": 0, "duration": 208}, {"note": 67, "velocity": 120, "duration": 124}, {"note": 0, "velocity": 0, "duration": 116}, {"note": 68, "velocity": 112, "duration": 98}, {"note": 70, "velocity": 109, "duration": 89}, {"note": 72, "velocity": 109, "duration": 507}, {"note": 0, "velocity": 0, "duration": 213}, {"note": 67, "velocity": 104, "duration": 66}, {"note": 65, "velocity": 117, "duration": 436}, {"note": 0, "velocity": 0, "duration": 404}, {"note": 67, "velocity": 120, "duration": 65}, {"note": 68, "velocity": 109, "duration": 60}, {"note": 70, "velocity": 109, "duration": 182}, {"note": 72, "velocity": 101, "duration": 83}, {"note": 70, "velocity": 106, "duration": 276}, {"note": 0, "velocity": 0, "duration": 84}, {"note": 68, "velocity": 99, "duration": 71}, {"note": 67, "velocity": 113, "duration": 478}, {"note": 0, "velocity": 0, "duration": 362}, {"note": 67, "velocity": 117, "duration": 62}, {"note": 68, "velocity": 99, "duration": 53}, {"note": 0, "velocity": 0, "duration": 67}, {"note": 70, "velocity": 109, "duration": 153}, {"note": 0, "velocity": 0, "duration": 87}, {"note": 63, "velocity": 109, "duration": 61}, {"note": 63, "velocity": 109, "duration": 146}, {"note": 0, "velocity": 0, "duration": 214}, {"note": 67, "velocity": 117, "duration": 61}, {"note": 68, "velocity": 109, "duration": 54}, {"note": 0, "velocity": 0, "duration": 66}, {"note": 70, "velocity": 109, "duration": 155}, {"note": 0, "velocity": 0, "duration": 85}, {"note": 68, "velocity": 106, "duration": 67}, {"note": 67, "velocity": 113, "duration": 290}, {"note": 0, "velocity": 0, "duration": 70}, {"note": 65, "velocity": 109, "duration": 193}, {"note": 67, "velocity": 120, "duration": 649}, {"note": 0, "velocity": 0, "duration": 71}, {"note": 68, "velocity": 112, "duration": 75}, {"note": 70, "velocity": 112, "duration": 483}, {"note": 0, "velocity": 0, "duration": 92}, {"note": 67, "velocity": 120, "duration": 128}, {"note": 68, "velocity": 109, "duration": 97}, {"note": 0, "velocity": 0, "duration": 68}, {"note": 70, "velocity": 109, "duration": 91}, {"note": 72, "velocity": 109, "duration": 672}, {"note": 0, "velocity": 0, "duration": 67}, {"note": 75, "velocity": 112, "duration": 172}, {"note": 0, "velocity": 0, "duration": 68}, {"note": 71, "velocity": 117, "duration": 500}, {"note": 0, "velocity": 0, "duration": 220}, {"note": 75, "velocity": 112, "duration": 152}, {"note": 0, "velocity": 0, "duration": 88}, {"note": 70, "velocity": 112, "duration": 157}, {"note": 0, "velocity": 0, "duration": 83}, {"note": 72, "velocity": 112, "duration": 161}, {"note": 0, "velocity": 0, "duration": 79}, {"note": 70, "velocity": 109, "duration": 181}, {"note": 68, "velocity": 104, "duration": 77}, {"note": 67, "velocity": 110, "duration": 491}, {"note": 0, "velocity": 0, "duration": 349}, {"note": 67, "velocity": 113, "duration": 73}, {"note": 68, "velocity": 106, "duration": 57}, {"note": 0, "velocity": 0, "duration": 63}, {"note": 70, "velocity": 112, "duration": 120}, {"note": 0, "velocity": 0, "duration": 120}, {"note": 63, "velocity": 104, "duration": 57}, {"note": 0, "velocity": 0, "duration": 63}, {"note": 63, "velocity": 109, "duration": 378}, {"note": 0, "velocity": 0, "duration": 102}, {"note": 63, "velocity": 106, "duration": 75}, {"note": 65, "velocity": 106, "duration": 479}, {"note": 0, "velocity": 0, "duration": 241}, {"note": 63, "velocity": 109, "duration": 217}, {"note": 65, "velocity": 106, "duration": 229}, {"note": 63, "velocity": 106, "duration": 958}, {"note": 0, "velocity": 0, "duration": 242}, {"note": 67, "velocity": 120, "duration": 124}, {"note": 0, "velocity": 0, "duration": 116}, {"note": 68, "velocity": 112, "duration": 98}, {"note": 70, "velocity": 109, "duration": 89}, {"note": 72, "velocity": 109, "duration": 507}, {"note": 0, "velocity": 0, "duration": 213}, {"note": 67, "velocity": 104, "duration": 66}, {"note": 65, "velocity": 117, "duration": 436}, {"note": 0, "velocity": 0, "duration": 404}, {"note": 67, "velocity": 120, "duration": 65}, {"note": 68, "velocity": 109, "duration": 60}, {"note": 70, "velocity": 109, "duration": 182}, {"note": 72, "velocity": 101, "duration": 83}, {"note": 70, "velocity": 106, "duration": 276}, {"note": 0, "velocity": 0, "duration": 84}, {"note": 68, "velocity": 99, "duration": 71}, {"note": 67, "velocity": 113, "duration": 478}, {"note": 0, "velocity": 0, "duration": 362}, {"note": 67, "velocity": 117, "duration": 62}, {"note": 68, "velocity": 99, "duration": 53}, {"note": 0, "velocity": 0, "duration": 67}, {"note": 70, "velocity": 109, "duration": 153}, {"note": 0, "velocity": 0, "duration": 87}, {"note": 63, "velocity": 109, "duration": 61}, {"note": 63, "velocity": 109, "duration": 146}, {"note": 0, "velocity": 0, "duration": 214}, {"note": 67, "velocity": 117, "duration": 61}, {"note": 68, "velocity": 109, "duration": 54}, {"note": 0, "velocity": 0, "duration": 66}, {"note": 70, "velocity": 109, "duration": 155}, {"note": 0, "velocity": 0, "duration": 85}, {"note": 68, "velocity": 106, "duration": 67}, {"note": 67, "velocity": 113, "duration": 290}, {"note": 0, "velocity": 0, "duration": 70}, {"note": 65, "velocity": 109, "duration": 193}, {"note": 67, "velocity": 120, "duration": 649}, {"note": 0, "velocity": 0, "duration": 71}, {"note": 68, "velocity": 112, "duration": 75}, {"note": 70, "velocity": 112, "duration": 483}, {"note": 0, "velocity": 0, "duration": 92}, {"note": 67, "velocity": 120, "duration": 128}, {"note": 68, "velocity": 109, "duration": 97}, {"note": 0, "velocity": 0, "duration": 68}, {"note": 70, "velocity": 109, "duration": 91}, {"note": 72, "velocity": 109, "duration": 672}, {"note": 0, "velocity": 0, "duration": 67}, {"note": 75, "velocity": 112, "duration": 172}, {"note": 0, "velocity": 0, "duration": 68}, {"note": 71, "velocity": 117, "duration": 500}, {"note": 0, "velocity": 0, "duration": 220}, {"note": 75, "velocity": 112, "duration": 152}, {"note": 0, "velocity": 0, "duration": 88}, {"note": 70, "velocity": 112, "duration": 157}, {"note": 0, "velocity": 0, "duration": 83}, {"note": 72, "velocity": 112, "duration": 161}, {"note": 0, "velocity": 0, "duration": 79}, {"note": 70, "velocity": 109, "duration": 181}, {"note": 68, "velocity": 104, "duration": 77}, {"note": 67, "velocity": 110, "duration": 491}, {"note": 0, "velocity": 0, "duration": 349}, {"note": 67, "velocity": 113, "duration": 73}, {"note": 68, "velocity": 106, "duration": 57}, {"note": 0, "velocity": 0, "duration": 63}, {"note": 70, "velocity": 112, "duration": 120}, {"note": 0, "velocity": 0, "duration": 120}, {"note": 63, "velocity": 104, "duration": 57}, {"note": 0, "velocity": 0, "duration": 63}, {"note": 63, "velocity": 109, "duration": 378}, {"note": 0, "velocity": 0, "duration": 102}, {"note": 63, "velocity": 106, "duration": 75}, {"note": 65, "velocity": 106, "duration": 479}, {"note": 0, "velocity": 0, "duration": 241}, {"note": 63, "velocity": 109, "duration": 217}, {"note": 65, "velocity": 106, "duration": 229}, {"note": 63, "velocity": 106, "duration": 1557}, {"note": 67, "velocity": 113, "duration": 94}, {"note": 68, "velocity": 106, "duration": 86}, {"note": 0, "velocity": 0, "duration": 102}, {"note": 70, "velocity": 112, "duration": 203}, {"note": 0, "velocity": 0, "duration": 219}, {"note": 63, "velocity": 96, "duration": 74}, {"note": 0, "velocity": 0, "duration": 74}, {"note": 63, "velocity": 106, "duration": 238}, {"note": 0, "velocity": 0, "duration": 143}, {"note": 63, "velocity": 106, "duration": 66}, {"note": 65, "velocity": 109, "duration": 224}, {"note": 0, "velocity": 0, "duration": 951}, {"note": 63, "velocity": 109, "duration": 98}, {"note": 0, "velocity": 0, "duration": 105}, {"note": 63, "velocity": 96, "duration": 1039}]]