[[{"note": 74, "velocity": 112, "duration": 119}, {"note": 74, "velocity": 106, "duration": 119}, {"note": 74, "velocity": 112, "duration": 240}, {"note": 72, "velocity": 106, "duration": 120}, {"note": 70, "velocity": 120, "duration": 120}, {"note": 77, "velocity": 118, "duration": 120}, {"note": 74, "velocity": 106, "duration": 479}, {"note": 74, "velocity": 112, "duration": 120}, {"note": 72, "velocity": 112, "duration": 120}, {"note": 70, "velocity": 120, "duration": 120}, {"note": 72, "velocity": 112, "duration": 120}, {"note": 74, "velocity": 109, "duration": 119}, {"note": 74, "velocity": 112, "duration": 119}, {"note": 74, "velocity": 115, "duration": 359}, {"note": 74, "velocity": 115, "duration": 240}, {"note": 72, "velocity": 112, "duration": 240}, {"note": 70, "velocity": 117, "duration": 1080}, {"note": 67, "velocity": 115, "duration": 120}, {"note": 70, "velocity": 120, "duration": 240}, {"note": 67, "velocity": 115, "duration": 120}, {"note": 77, "velocity": 115, "duration": 360}, {"note": 75, "velocity": 120, "duration": 120}, {"note": 74, "velocity": 118, "duration": 240}, {"note": 72, "velocity": 109, "duration": 120}, {"note": 70, "velocity": 117, "duration": 240}, {"note": 74, "velocity": 115, "duration": 240}, {"note": 72, "velocity": 109, "duration": 239}, {"note": 72, "velocity": 106, "duration": 1680}, {"note": 74, "velocity": 112, "duration": 119}, {"note": 74, "velocity": 106, "duration": 119}, {"note": 74, "velocity": 112, "duration": 240}, {"note": 72, "velocity": 106, "duration": 120}, {"note": 70, "velocity": 120, "duration": 120}, {"note": 77, "velocity": 118, "duration": 120}, {"note": 74, "velocity": 106, "duration": 479}, {"note": 74, "velocity": 112, "duration": 120}, {"note": 72, "velocity": 112, "duration": 120}, {"note": 70, "velocity": 120, "duration": 120}, {"note": 72, "velocity": 112, "duration": 120}, {"note": 74, "velocity": 109, "duration": 119}, {"note": 74, "velocity": 112, "duration": 119}, {"note": 74, "velocity": 115, "duration": 359}, {"note": 74, "velocity": 115, "duration": 240}, {"note": 72, "velocity": 112, "duration": 240}, {"note": 70, "velocity": 117, "duration": 1080}, {"note": 67, "velocity": 115, "duration": 120}, {"note": 70, "velocity": 120, "duration": 240}, {"note": 67, "velocity": 115, "duration": 120}, {"note": 77, "velocity": 115, "duration": 360}, {"note": 75, "velocity": 120, "duration": 120}, {"note": 74, "velocity": 118, "duration": 240}, {"note": 72, "velocity": 109, "duration": 120}, {"note": 70, "velocity": 117, "duration": 240}, {"note": 74, "velocity": 115, "duration": 240}, {"note": 72, "velocity": 109, "duration": 239}, {"note": 72, "velocity": 106, "duration": 1080}, {"note": 70, "velocity": 117, "duration": 119}, {"note": 70, "velocity": 113, "duration": 120}, {"note": 72, "velocity": 112, "duration": 119}, {"note": 72, "velocity": 104, "duration": 120}, {"note": 74, "velocity": 118, "duration": 239}, {"note": 74, "velocity": 115, "duration": 120}, {"note": 72, "velocity": 109, "duration": 120}, {"note": 74, "velocity": 115, "duration": 240}, {"note": 72, "velocity": 99, "duration": 120}, {"note": 74, "velocity": 115, "duration": 600}, {"note": 72, "velocity": 106, "duration": 119}, {"note": 72, "velocity": 112, "duration": 120}, {"note": 70, "velocity": 117, "duration": 120}, {"note": 74, "velocity": 115, "duration": 120}, {"note": 77, "velocity": 115, "duration": 239}, {"note": 77, "velocity": 118, "duration": 120}, {"note": 79, "velocity": 112, "duration": 240}, {"note": 74, "velocity": 112, "duration": 119}, {"note": 74, "velocity": 112, "duration": 120}, {"note": 72, "velocity": 109, "duration": 120}, {"note": 74, "velocity": 112, "duration": 720}, {"note": 65, "velocity": 109, "duration": 120}, {"note": 70, "velocity": 117, "duration": 239}, {"note": 70, "velocity": 120, "duration": 239}, {"note": 70, "velocity": 117, "duration": 119}, {"note": 70, "velocity": 117, "duration": 239}, {"note": 70, "velocity": 117, "duration": 120}, {"note": 72, "velocity": 104, "duration": 239}, {"note": 72, "velocity": 109, "duration": 239}, {"note": 72, "velocity": 99, "duration": 240}, {"note": 70, "velocity": 106, "duration": 120}, {"note": 74, "velocity": 104, "duration": 1680}, {"note": 70, "velocity": 117, "duration": 119}, {"note": 70, "velocity": 113, "duration": 120}, {"note": 72, "velocity": 112, "duration": 119}, {"note": 72, "velocity": 104, "duration": 120}, {"note": 74, "velocity": 118, "duration": 239}, {"note": 74, "velocity": 115, "duration": 120}, {"note": 72, "velocity": 109, "duration": 120}, {"note": 74, "velocity": 115, "duration": 240}, {"note": 72, "velocity": 99, "duration": 120}, {"note": 74, "velocity": 115, "duration": 600}, {"note": 72, "velocity": 106, "duration": 119}, {"note": 72, "velocity": 112, "duration": 120}, {"note": 70, "velocity": 117, "duration": 120}, {"note": 74, "velocity": 115, "duration": 120}, {"note": 77, "velocity": 115, "duration": 239}, {"note": 77, "velocity": 118, "duration": 120}, {"note": 79, "velocity": 112, "duration": 240}, {"note": 74, "velocity": 112, "duration": 119}, {"note": 74, "velocity": 112, "duration": 120}, {"note": 72, "velocity": 109, "duration": 120}, {"note": 70, "velocity": 112, "duration": 720}, {"note": 65, "velocity": 115, "duration": 120}, {"note": 67, "velocity": 112, "duration": 120}, {"note": 70, "velocity": 120, "duration": 119}, {"note": 70, "velocity": 120, "duration": 119}, {"note": 70, "velocity": 113, "duration": 119}, {"note": 70, "velocity": 120, "duration": 120}, {"note": 72, "velocity": 112, "duration": 269}, {"note": 70, "velocity": 113, "duration": 331}, {"note": 74, "velocity": 109, "duration": 240}, {"note": 72, "velocity": 112, "duration": 137}, {"note": 70, "velocity": 107, "duration": 240}, {"note": 70, "velocity": 114, "duration": 120}, {"note": 70, "velocity": 117, "duration": 1080}, {"note": 77, "velocity": 115, "duration": 839}, {"note": 77, "velocity": 118, "duration": 240}, {"note": 70, "velocity": 120, "duration": 119}, {"note": 70, "velocity": 117, "duration": 119}, {"note": 70, "velocity": 120, "duration": 120}, {"note": 77, "velocity": 115, "duration": 360}, {"note": 74, "velocity": 115, "duration": 840}, {"note": 72, "velocity": 106, "duration": 120}, {"note": 70, "velocity": 120, "duration": 239}, {"note": 70, "velocity": 113, "duration": 119}, {"note": 70, "velocity": 113, "duration": 119}, {"note": 70, "velocity": 117, "duration": 240}, {"note": 72, "velocity": 115, "duration": 240}, {"note": 74, "velocity": 112, "duration": 960}, {"note": 67, "velocity": 112, "duration": 120}, {"note": 70, "velocity": 120, "duration": 359}, {"note": 70, "velocity": 123, "duration": 240}, {"note": 67, "velocity": 118, "duration": 240}, {"note": 79, "velocity": 115, "duration": 240}, {"note": 77, "velocity": 115, "duration": 120}, {"note": 77, "velocity": 115, "duration": 480}, {"note": 65, "velocity": 109, "duration": 120}, {"note": 70, "velocity": 120, "duration": 239}, {"note": 70, "velocity": 120, "duration": 239}, {"note": 70, "velocity": 120, "duration": 120}, {"note": 77, "velocity": 118, "duration": 360}, {"note": 74, "velocity": 112, "duration": 959}, {"note": 74, "velocity": 118, "duration": 239}, {"note": 74, "velocity": 115, "duration": 119}, {"note": 74, "velocity": 118, "duration": 119}, {"note": 74, "velocity": 118, "duration": 240}, {"note": 77, "velocity": 121, "duration": 120}, {"note": 79, "velocity": 115, "duration": 120}, {"note": 81, "velocity": 118, "duration": 240}, {"note": 79, "velocity": 109, "duration": 120}, {"note": 77, "velocity": 118, "duration": 600}, {"note": 70, "velocity": 120, "duration": 239}, {"note": 70, "velocity": 117, "duration": 119}, {"note": 70, "velocity": 113, "duration": 119}, {"note": 70, "velocity": 120, "duration": 120}, {"note": 77, "velocity": 115, "duration": 360}, {"note": 74, "velocity": 112, "duration": 960}, {"note": 67, "velocity": 112, "duration": 120}, {"note": 70, "velocity": 120, "duration": 359}, {"note": 70, "velocity": 123, "duration": 240}, {"note": 67, "velocity": 115, "duration": 240}, {"note": 79, "velocity": 115, "duration": 240}, {"note": 77, "velocity": 115, "duration": 120}, {"note": 77, "velocity": 115, "duration": 480}, {"note": 65, "velocity": 106, "duration": 120}, {"note": 70, "velocity": 120, "duration": 239}, {"note": 70, "velocity": 120, "duration": 1200}, {"note": 74, "velocity": 115, "duration": 120}, {"note": 72, "velocity": 112, "duration": 240}, {"note": 70, "velocity": 120, "duration": 119}, {"note": 70, "velocity": 123, "duration": 1947}, {"note": 0, "velocity": 0, "duration": 13053}, {"note": 70, "velocity": 117, "duration": 119}, {"note": 70, "velocity": 113, "duration": 120}, {"note": 72, "velocity": 112, "duration": 119}, {"note": 72, "velocity": 104, "duration": 120}, {"note": 74, "velocity": 118, "duration": 239}, {"note": 74, "velocity": 115, "duration": 120}, {"note": 72, "velocity": 109, "duration": 120}, {"note": 74, "velocity": 115, "duration": 240}, {"note": 72, "velocity": 99, "duration": 120}, {"note": 74, "velocity": 115, "duration": 600}, {"note": 72, "velocity": 106, "duration": 119}, {"note": 72, "velocity": 112, "duration": 120}, {"note": 70, "velocity": 117, "duration": 120}, {"note": 74, "velocity": 115, "duration": 120}, {"note": 77, "velocity": 115, "duration": 239}, {"note": 77, "velocity": 118, "duration": 120}, {"note": 79, "velocity": 112, "duration": 240}, {"note": 74, "velocity": 112, "duration": 119}, {"note": 74, "velocity": 112, "duration": 120}, {"note": 72, "velocity": 109, "duration": 120}, {"note": 74, "velocity": 112, "duration": 720}, {"note": 65, "velocity": 109, "duration": 120}, {"note": 70, "velocity": 117, "duration": 239}, {"note": 70, "velocity": 120, "duration": 239}, {"note": 70, "velocity": 117, "duration": 119}, {"note": 70, "velocity": 117, "duration": 239}, {"note": 70, "velocity": 117, "duration": 120}, {"note": 72, "velocity": 104, "duration": 239}, {"note": 72, "velocity": 109, "duration": 239}, {"note": 72, "velocity": 99, "duration": 240}, {"note": 70, "velocity": 106, "duration": 120}, {"note": 74, "velocity": 104, "duration": 1680}, {"note": 70, "velocity": 117, "duration": 119}, {"note": 70, "velocity": 113, "duration": 120}, {"note": 72, "velocity": 112, "duration": 119}, {"note": 72, "velocity": 104, "duration": 120}, {"note": 74, "velocity": 118, "duration": 239}, {"note": 74, "velocity": 115, "duration": 120}, {"note": 72, "velocity": 109, "duration": 120}, {"note": 74, "velocity": 115, "duration": 240}, {"note": 72, "velocity": 99, "duration": 120}, {"note": 74, "velocity": 115, "duration": 600}, {"note": 72, "velocity": 106, "duration": 119}, {"note": 72, "velocity": 112, "duration": 120}, {"note": 70, "velocity": 117, "duration": 120}, {"note": 74, "velocity": 115, "duration": 120}, {"note": 77, "velocity": 115, "duration": 239}, {"note": 77, "velocity": 118, "duration": 120}, {"note": 79, "velocity": 112, "duration": 240}, {"note": 74, "velocity": 112, "duration": 119}, {"note": 74, "velocity": 112, "duration": 120}, {"note": 72, "velocity": 109, "duration": 120}, {"note": 70, "velocity": 112, "duration": 720}, {"note": 65, "velocity": 115, "duration": 120}, {"note": 67, "velocity": 112, "duration": 120}, {"note": 70, "velocity": 120, "duration": 119}, {"note": 70, "velocity": 120, "duration": 119}, {"note": 70, "velocity": 113, "duration": 119}, {"note": 70, "velocity": 120, "duration": 120}, {"note": 72, "velocity": 112, "duration": 360}, {"note": 70, "velocity": 113, "duration": 240}, {"note": 74, "velocity": 109, "duration": 240}, {"note": 72, "velocity": 112, "duration": 137}, {"note": 70, "velocity": 107, "duration": 240}, {"note": 70, "velocity": 114, "duration": 120}, {"note": 70, "velocity": 117, "duration": 1080}, {"note": 77, "velocity": 115, "duration": 839}, {"note": 77, "velocity": 118, "duration": 240}, {"note": 70, "velocity": 120, "duration": 119}, {"note": 70, "velocity": 117, "duration": 119}, {"note": 70, "velocity": 120, "duration": 120}, {"note": 77, "velocity": 115, "duration": 360}, {"note": 74, "velocity": 115, "duration": 840}, {"note": 72, "velocity": 106, "duration": 120}, {"note": 70, "velocity": 120, "duration": 239}, {"note": 70, "velocity": 113, "duration": 119}, {"note": 70, "velocity": 113, "duration": 119}, {"note": 70, "velocity": 117, "duration": 240}, {"note": 72, "velocity": 115, "duration": 240}, {"note": 74, "velocity": 112, "duration": 960}, {"note": 67, "velocity": 112, "duration": 120}, {"note": 70, "velocity": 120, "duration": 359}, {"note": 70, "velocity": 123, "duration": 240}, {"note": 67, "velocity": 118, "duration": 240}, {"note": 79, "velocity": 115, "duration": 240}, {"note": 77, "velocity": 115, "duration": 120}, {"note": 77, "velocity": 115, "duration": 480}, {"note": 65, "velocity": 109, "duration": 120}, {"note": 70, "velocity": 120, "duration": 239}, {"note": 70, "velocity": 120, "duration": 239}, {"note": 70, "velocity": 120, "duration": 120}, {"note": 77, "velocity": 118, "duration": 360}, {"note": 74, "velocity": 112, "duration": 959}, {"note": 74, "velocity": 118, "duration": 239}, {"note": 74, "velocity": 115, "duration": 119}, {"note": 74, "velocity": 118, "duration": 119}, {"note": 74, "velocity": 118, "duration": 240}, {"note": 77, "velocity": 121, "duration": 120}, {"note": 79, "velocity": 115, "duration": 120}, {"note": 81, "velocity": 118, "duration": 240}, {"note": 79, "velocity": 109, "duration": 120}, {"note": 77, "velocity": 118, "duration": 600}, {"note": 70, "velocity": 120, "duration": 239}, {"note": 70, "velocity": 117, "duration": 119}, {"note": 70, "velocity": 113, "duration": 119}, {"note": 70, "velocity": 120, "duration": 120}, {"note": 77, "velocity": 115, "duration": 360}, {"note": 74, "velocity": 112, "duration": 960}, {"note": 67, "velocity": 112, "duration": 120}, {"note": 70, "velocity": 120, "duration": 359}, {"note": 70, "velocity": 123, "duration": 240}, {"note": 67, "velocity": 115, "duration": 240}, {"note": 79, "velocity": 115, "duration": 240}, {"note": 77, "velocity": 115, "duration": 120}, {"note": 77, "velocity": 115, "duration": 480}, {"note": 65, "velocity": 106, "duration": 120}, {"note": 70, "velocity": 120, "duration": 239}, {"note": 70, "velocity": 120, "duration": 1200}, {"note": 74, "velocity": 115, "duration": 120}, {"note": 72, "velocity": 112, "duration": 240}, {"note": 70, "velocity": 120, "duration": 119}, {"note": 70, "velocity": 123, "duration": 1920}, {"note": 77, "velocity": 118, "duration": 240}, {"note": 70, "velocity": 120, "duration": 119}, {"note": 70, "velocity": 117, "duration": 119}, {"note": 70, "velocity": 120, "duration": 120}, {"note": 77, "velocity": 115, "duration": 360}, {"note": 74, "velocity": 115, "duration": 840}, {"note": 72, "velocity": 106, "duration": 120}, {"note": 70, "velocity": 120, "duration": 239}, {"note": 70, "velocity": 113, "duration": 119}, {"note": 70, "velocity": 113, "duration": 119}, {"note": 70, "velocity": 117, "duration": 240}, {"note": 72, "velocity": 115, "duration": 240}, {"note": 74, "velocity": 112, "duration": 960}, {"note": 67, "velocity": 112, "duration": 120}, {"note": 70, "velocity": 120, "duration": 359}, {"note": 70, "velocity": 123, "duration": 240}, {"note": 67, "velocity": 118, "duration": 240}, {"note": 79, "velocity": 115, "duration": 240}, {"note": 77, "velocity": 115, "duration": 120}, {"note": 77, "velocity": 115, "duration": 480}, {"note": 65, "velocity": 109, "duration": 120}, {"note": 70, "velocity": 120, "duration": 239}, {"note": 70, "velocity": 120, "duration": 239}, {"note": 70, "velocity": 120, "duration": 120}, {"note": 77, "velocity": 118, "duration": 360}, {"note": 74, "velocity": 112, "duration": 959}, {"note": 74, "velocity": 118, "duration": 239}, {"note": 74, "velocity": 115, "duration": 119}, {"note": 74, "velocity": 118, "duration": 119}, {"note": 74, "velocity": 118, "duration": 240}, {"note": 77, "velocity": 121, "duration": 120}, {"note": 79, "velocity": 115, "duration": 120}, {"note": 81, "velocity": 118, "duration": 240}, {"note": 79, "velocity": 109, "duration": 120}, {"note": 77, "velocity": 118, "duration": 600}, {"note": 70, "velocity": 120, "duration": 239}, {"note": 70, "velocity": 117, "duration": 119}, {"note": 70, "velocity": 113, "duration": 119}, {"note": 70, "velocity": 120, "duration": 120}, {"note": 77, "velocity": 115, "duration": 360}, {"note": 74, "velocity": 112, "duration": 960}, {"note": 67, "velocity": 112, "duration": 120}, {"note": 70, "velocity": 120, "duration": 359}, {"note": 70, "velocity": 123, "duration": 240}, {"note": 67, "velocity": 115, "duration": 240}, {"note": 79, "velocity": 115, "duration": 240}, {"note": 77, "velocity": 115, "duration": 120}, {"note": 77, "velocity": 115, "duration": 480}, {"note": 65, "velocity": 106, "duration": 120}, {"note": 70, "velocity": 120, "duration": 239}, {"note": 70, "velocity": 120, "duration": 1200}, {"note": 74, "velocity": 115, "duration": 120}, {"note": 72, "velocity": 112, "duration": 240}, {"note": 70, "velocity": 120, "duration": 119}, {"note": 70, "velocity": 123, "duration": 1947}]]