[[{"note": 75, "velocity": 112, "duration": 168}, {"note": 0, "velocity": 0, "duration": 72}, {"note": 75, "velocity": 115, "duration": 374}, {"note": 0, "velocity": 0, "duration": 106}, {"note": 70, "velocity": 109, "duration": 168}, {"note": 0, "velocity": 0, "duration": 72}, {"note": 68, "velocity": 109, "duration": 234}, {"note": 66, "velocity": 96, "duration": 147}, {"note": 0, "velocity": 0, "duration": 93}, {"note": 63, "velocity": 109, "duration": 339}, {"note": 0, "velocity": 0, "duration": 141}, {"note": 73, "velocity": 104, "duration": 319}, {"note": 70, "velocity": 115, "duration": 66}, {"note": 73, "velocity": 112, "duration": 62}, {"note": 75, "velocity": 118, "duration": 60}, {"note": 77, "velocity": 112, "duration": 191}, {"note": 75, "velocity": 115, "duration": 822}, {"note": 0, "velocity": 0, "duration": 138}, {"note": 78, "velocity": 118, "duration": 160}, {"note": 0, "velocity": 0, "duration": 80}, {"note": 78, "velocity": 115, "duration": 416}, {"note": 0, "velocity": 0, "duration": 64}, {"note": 77, "velocity": 109, "duration": 187}, {"note": 75, "velocity": 115, "duration": 181}, {"note": 77, "velocity": 106, "duration": 62}, {"note": 75, "velocity": 109, "duration": 56}, {"note": 0, "velocity": 0, "duration": 64}, {"note": 73, "velocity": 104, "duration": 308}, {"note": 0, "velocity": 0, "duration": 172}, {"note": 70, "velocity": 112, "duration": 70}, {"note": 70, "velocity": 115, "duration": 146}, {"note": 0, "velocity": 0, "duration": 94}, {"note": 75, "velocity": 109, "duration": 68}, {"note": 75, "velocity": 112, "duration": 151}, {"note": 0, "velocity": 0, "duration": 89}, {"note": 68, "velocity": 112, "duration": 174}, {"note": 0, "velocity": 0, "duration": 66}, {"note": 70, "velocity": 112, "duration": 842}, {"note": 0, "velocity": 0, "duration": 118}, {"note": 70, "velocity": 115, "duration": 302}, {"note": 75, "velocity": 101, "duration": 61}, {"note": 75, "velocity": 112, "duration": 285}, {"note": 0, "velocity": 0, "duration": 75}, {"note": 75, "velocity": 106, "duration": 51}, {"note": 0, "velocity": 0, "duration": 69}, {"note": 75, "velocity": 112, "duration": 179}, {"note": 0, "velocity": 0, "duration": 61}, {"note": 70, "velocity": 104, "duration": 161}, {"note": 0, "velocity": 0, "duration": 79}, {"note": 68, "velocity": 115, "duration": 361}, {"note": 0, "velocity": 0, "duration": 119}, {"note": 70, "velocity": 115, "duration": 56}, {"note": 0, "velocity": 0, "duration": 64}, {"note": 70, "velocity": 115, "duration": 280}, {"note": 0, "velocity": 0, "duration": 80}, {"note": 75, "velocity": 112, "duration": 174}, {"note": 0, "velocity": 0, "duration": 66}, {"note": 75, "velocity": 115, "duration": 81}, {"note": 75, "velocity": 106, "duration": 56}, {"note": 0, "velocity": 0, "duration": 64}, {"note": 70, "velocity": 112, "duration": 137}, {"note": 71, "velocity": 101, "duration": 66}, {"note": 70, "velocity": 112, "duration": 144}, {"note": 0, "velocity": 0, "duration": 96}, {"note": 68, "velocity": 106, "duration": 337}, {"note": 0, "velocity": 0, "duration": 143}, {"note": 65, "velocity": 115, "duration": 343}, {"note": 68, "velocity": 106, "duration": 82}, {"note": 70, "velocity": 109, "duration": 152}, {"note": 0, "velocity": 0, "duration": 88}, {"note": 70, "velocity": 109, "duration": 156}, {"note": 0, "velocity": 0, "duration": 84}, {"note": 73, "velocity": 109, "duration": 149}, {"note": 0, "velocity": 0, "duration": 91}, {"note": 65, "velocity": 112, "duration": 155}, {"note": 0, "velocity": 0, "duration": 85}, {"note": 63, "velocity": 109, "duration": 390}, {"note": 0, "velocity": 0, "duration": 90}, {"note": 68, "velocity": 115, "duration": 56}, {"note": 0, "velocity": 0, "duration": 64}, {"note": 68, "velocity": 112, "duration": 165}, {"note": 0, "velocity": 0, "duration": 75}, {"note": 70, "velocity": 106, "duration": 71}, {"note": 66, "velocity": 112, "duration": 158}, {"note": 0, "velocity": 0, "duration": 82}, {"note": 65, "velocity": 112, "duration": 148}, {"note": 0, "velocity": 0, "duration": 92}, {"note": 63, "velocity": 115, "duration": 1334}, {"note": 0, "velocity": 0, "duration": 586}, {"note": 75, "velocity": 112, "duration": 168}, {"note": 0, "velocity": 0, "duration": 72}, {"note": 75, "velocity": 115, "duration": 374}, {"note": 0, "velocity": 0, "duration": 106}, {"note": 70, "velocity": 109, "duration": 168}, {"note": 0, "velocity": 0, "duration": 72}, {"note": 68, "velocity": 109, "duration": 234}, {"note": 66, "velocity": 96, "duration": 147}, {"note": 0, "velocity": 0, "duration": 93}, {"note": 63, "velocity": 109, "duration": 339}, {"note": 0, "velocity": 0, "duration": 141}, {"note": 73, "velocity": 104, "duration": 319}, {"note": 70, "velocity": 115, "duration": 66}, {"note": 73, "velocity": 112, "duration": 62}, {"note": 75, "velocity": 118, "duration": 60}, {"note": 77, "velocity": 112, "duration": 191}, {"note": 75, "velocity": 115, "duration": 822}, {"note": 0, "velocity": 0, "duration": 138}, {"note": 75, "velocity": 118, "duration": 160}, {"note": 0, "velocity": 0, "duration": 80}, {"note": 78, "velocity": 115, "duration": 416}, {"note": 0, "velocity": 0, "duration": 64}, {"note": 77, "velocity": 109, "duration": 187}, {"note": 75, "velocity": 115, "duration": 181}, {"note": 77, "velocity": 106, "duration": 62}, {"note": 75, "velocity": 109, "duration": 56}, {"note": 0, "velocity": 0, "duration": 64}, {"note": 73, "velocity": 104, "duration": 308}, {"note": 0, "velocity": 0, "duration": 172}, {"note": 70, "velocity": 112, "duration": 70}, {"note": 70, "velocity": 115, "duration": 146}, {"note": 0, "velocity": 0, "duration": 94}, {"note": 75, "velocity": 109, "duration": 68}, {"note": 75, "velocity": 112, "duration": 151}, {"note": 0, "velocity": 0, "duration": 89}, {"note": 68, "velocity": 112, "duration": 174}, {"note": 0, "velocity": 0, "duration": 66}, {"note": 70, "velocity": 112, "duration": 842}, {"note": 0, "velocity": 0, "duration": 118}, {"note": 70, "velocity": 115, "duration": 302}, {"note": 75, "velocity": 101, "duration": 61}, {"note": 75, "velocity": 112, "duration": 285}, {"note": 0, "velocity": 0, "duration": 75}, {"note": 75, "velocity": 106, "duration": 51}, {"note": 0, "velocity": 0, "duration": 69}, {"note": 75, "velocity": 112, "duration": 179}, {"note": 0, "velocity": 0, "duration": 61}, {"note": 70, "velocity": 104, "duration": 161}, {"note": 0, "velocity": 0, "duration": 79}, {"note": 68, "velocity": 115, "duration": 361}, {"note": 0, "velocity": 0, "duration": 119}, {"note": 70, "velocity": 115, "duration": 56}, {"note": 0, "velocity": 0, "duration": 64}, {"note": 70, "velocity": 115, "duration": 280}, {"note": 0, "velocity": 0, "duration": 80}, {"note": 75, "velocity": 112, "duration": 174}, {"note": 0, "velocity": 0, "duration": 66}, {"note": 75, "velocity": 115, "duration": 81}, {"note": 75, "velocity": 106, "duration": 56}, {"note": 0, "velocity": 0, "duration": 64}, {"note": 70, "velocity": 112, "duration": 137}, {"note": 71, "velocity": 101, "duration": 66}, {"note": 70, "velocity": 112, "duration": 144}, {"note": 0, "velocity": 0, "duration": 96}, {"note": 68, "velocity": 106, "duration": 337}, {"note": 0, "velocity": 0, "duration": 143}, {"note": 65, "velocity": 115, "duration": 343}, {"note": 68, "velocity": 106, "duration": 82}, {"note": 70, "velocity": 109, "duration": 152}, {"note": 0, "velocity": 0, "duration": 88}, {"note": 70, "velocity": 109, "duration": 156}, {"note": 0, "velocity": 0, "duration": 84}, {"note": 73, "velocity": 109, "duration": 149}, {"note": 0, "velocity": 0, "duration": 91}, {"note": 65, "velocity": 112, "duration": 155}, {"note": 0, "velocity": 0, "duration": 85}, {"note": 63, "velocity": 109, "duration": 390}, {"note": 0, "velocity": 0, "duration": 90}, {"note": 68, "velocity": 115, "duration": 56}, {"note": 0, "velocity": 0, "duration": 64}, {"note": 68, "velocity": 112, "duration": 165}, {"note": 0, "velocity": 0, "duration": 75}, {"note": 70, "velocity": 106, "duration": 71}, {"note": 66, "velocity": 112, "duration": 158}, {"note": 0, "velocity": 0, "duration": 82}, {"note": 65, "velocity": 112, "duration": 148}, {"note": 0, "velocity": 0, "duration": 92}, {"note": 63, "velocity": 115, "duration": 1558}, {"note": 0, "velocity": 0, "duration": 14762}, {"note": 75, "velocity": 106, "duration": 78}, {"note": 75, "velocity": 115, "duration": 56}, {"note": 0, "velocity": 0, "duration": 64}, {"note": 75, "velocity": 118, "duration": 62}, {"note": 75, "velocity": 118, "duration": 87}, {"note": 80, "velocity": 112, "duration": 164}, {"note": 0, "velocity": 0, "duration": 76}, {"note": 82, "velocity": 115, "duration": 78}, {"note": 80, "velocity": 112, "duration": 69}, {"note": 78, "velocity": 118, "duration": 156}, {"note": 0, "velocity": 0, "duration": 84}, {"note": 78, "velocity": 118, "duration": 326}, {"note": 0, "velocity": 0, "duration": 154}, {"note": 77, "velocity": 112, "duration": 72}, {"note": 75, "velocity": 112, "duration": 58}, {"note": 0, "velocity": 0, "duration": 62}, {"note": 73, "velocity": 112, "duration": 148}, {"note": 0, "velocity": 0, "duration": 92}, {"note": 70, "velocity": 115, "duration": 149}, {"note": 0, "velocity": 0, "duration": 91}, {"note": 73, "velocity": 112, "duration": 65}, {"note": 75, "velocity": 115, "duration": 60}, {"note": 77, "velocity": 112, "duration": 186}, {"note": 75, "velocity": 115, "duration": 733}, {"note": 0, "velocity": 0, "duration": 227}, {"note": 75, "velocity": 115, "duration": 98}, {"note": 80, "velocity": 115, "duration": 65}, {"note": 78, "velocity": 115, "duration": 408}, {"note": 0, "velocity": 0, "duration": 72}, {"note": 77, "velocity": 112, "duration": 167}, {"note": 0, "velocity": 0, "duration": 73}, {"note": 75, "velocity": 115, "duration": 174}, {"note": 0, "velocity": 0, "duration": 66}, {"note": 77, "velocity": 109, "duration": 66}, {"note": 75, "velocity": 112, "duration": 55}, {"note": 0, "velocity": 0, "duration": 65}, {"note": 73, "velocity": 115, "duration": 253}, {"note": 0, "velocity": 0, "duration": 227}, {"note": 70, "velocity": 115, "duration": 55}, {"note": 0, "velocity": 0, "duration": 65}, {"note": 70, "velocity": 115, "duration": 140}, {"note": 0, "velocity": 0, "duration": 100}, {"note": 75, "velocity": 115, "duration": 60}, {"note": 75, "velocity": 115, "duration": 146}, {"note": 0, "velocity": 0, "duration": 94}, {"note": 68, "velocity": 115, "duration": 137}, {"note": 0, "velocity": 0, "duration": 103}, {"note": 70, "velocity": 112, "duration": 909}, {"note": 70, "velocity": 115, "duration": 302}, {"note": 75, "velocity": 101, "duration": 61}, {"note": 75, "velocity": 112, "duration": 285}, {"note": 0, "velocity": 0, "duration": 75}, {"note": 75, "velocity": 106, "duration": 51}, {"note": 0, "velocity": 0, "duration": 69}, {"note": 75, "velocity": 112, "duration": 179}, {"note": 0, "velocity": 0, "duration": 61}, {"note": 70, "velocity": 104, "duration": 161}, {"note": 0, "velocity": 0, "duration": 79}, {"note": 68, "velocity": 115, "duration": 361}, {"note": 0, "velocity": 0, "duration": 119}, {"note": 70, "velocity": 115, "duration": 56}, {"note": 0, "velocity": 0, "duration": 64}, {"note": 70, "velocity": 115, "duration": 238}, {"note": 70, "velocity": 114, "duration": 118}, {"note": 75, "velocity": 112, "duration": 174}, {"note": 0, "velocity": 0, "duration": 66}, {"note": 75, "velocity": 115, "duration": 81}, {"note": 75, "velocity": 106, "duration": 56}, {"note": 0, "velocity": 0, "duration": 64}, {"note": 70, "velocity": 112, "duration": 137}, {"note": 71, "velocity": 101, "duration": 66}, {"note": 70, "velocity": 112, "duration": 144}, {"note": 0, "velocity": 0, "duration": 96}, {"note": 68, "velocity": 106, "duration": 337}, {"note": 0, "velocity": 0, "duration": 143}, {"note": 65, "velocity": 115, "duration": 343}, {"note": 68, "velocity": 106, "duration": 82}, {"note": 70, "velocity": 109, "duration": 152}, {"note": 0, "velocity": 0, "duration": 88}, {"note": 70, "velocity": 109, "duration": 156}, {"note": 0, "velocity": 0, "duration": 84}, {"note": 73, "velocity": 109, "duration": 149}, {"note": 0, "velocity": 0, "duration": 91}, {"note": 65, "velocity": 112, "duration": 155}, {"note": 0, "velocity": 0, "duration": 85}, {"note": 63, "velocity": 109, "duration": 390}, {"note": 0, "velocity": 0, "duration": 90}, {"note": 68, "velocity": 115, "duration": 56}, {"note": 0, "velocity": 0, "duration": 64}, {"note": 68, "velocity": 112, "duration": 165}, {"note": 0, "velocity": 0, "duration": 75}, {"note": 70, "velocity": 106, "duration": 71}, {"note": 66, "velocity": 112, "duration": 158}, {"note": 0, "velocity": 0, "duration": 82}, {"note": 65, "velocity": 112, "duration": 148}, {"note": 0, "velocity": 0, "duration": 92}, {"note": 63, "velocity": 115, "duration": 1558}, {"note": 0, "velocity": 0, "duration": 362}, {"note": 75, "velocity": 106, "duration": 78}, {"note": 75, "velocity": 115, "duration": 56}, {"note": 0, "velocity": 0, "duration": 64}, {"note": 75, "velocity": 118, "duration": 62}, {"note": 75, "velocity": 118, "duration": 87}, {"note": 80, "velocity": 112, "duration": 164}, {"note": 0, "velocity": 0, "duration": 76}, {"note": 82, "velocity": 115, "duration": 78}, {"note": 80, "velocity": 112, "duration": 69}, {"note": 78, "velocity": 118, "duration": 156}, {"note": 0, "velocity": 0, "duration": 84}, {"note": 78, "velocity": 118, "duration": 326}, {"note": 0, "velocity": 0, "duration": 154}, {"note": 77, "velocity": 112, "duration": 72}, {"note": 75, "velocity": 112, "duration": 58}, {"note": 0, "velocity": 0, "duration": 62}, {"note": 73, "velocity": 112, "duration": 148}, {"note": 0, "velocity": 0, "duration": 92}, {"note": 70, "velocity": 115, "duration": 149}, {"note": 0, "velocity": 0, "duration": 91}, {"note": 73, "velocity": 112, "duration": 65}, {"note": 75, "velocity": 115, "duration": 60}, {"note": 77, "velocity": 112, "duration": 186}, {"note": 75, "velocity": 115, "duration": 733}, {"note": 0, "velocity": 0, "duration": 227}, {"note": 75, "velocity": 115, "duration": 98}, {"note": 80, "velocity": 115, "duration": 65}, {"note": 78, "velocity": 115, "duration": 408}, {"note": 0, "velocity": 0, "duration": 72}, {"note": 77, "velocity": 112, "duration": 167}, {"note": 0, "velocity": 0, "duration": 73}, {"note": 75, "velocity": 115, "duration": 174}, {"note": 0, "velocity": 0, "duration": 66}, {"note": 77, "velocity": 109, "duration": 66}, {"note": 75, "velocity": 112, "duration": 55}, {"note": 0, "velocity": 0, "duration": 65}, {"note": 73, "velocity": 115, "duration": 253}, {"note": 0, "velocity": 0, "duration": 227}, {"note": 70, "velocity": 115, "duration": 55}, {"note": 0, "velocity": 0, "duration": 65}, {"note": 70, "velocity": 115, "duration": 140}, {"note": 0, "velocity": 0, "duration": 100}, {"note": 75, "velocity": 115, "duration": 60}, {"note": 75, "velocity": 115, "duration": 146}, {"note": 0, "velocity": 0, "duration": 94}, {"note": 68, "velocity": 115, "duration": 137}, {"note": 0, "velocity": 0, "duration": 103}, {"note": 70, "velocity": 112, "duration": 909}, {"note": 70, "velocity": 115, "duration": 302}, {"note": 75, "velocity": 101, "duration": 61}, {"note": 75, "velocity": 112, "duration": 285}, {"note": 0, "velocity": 0, "duration": 75}, {"note": 75, "velocity": 106, "duration": 51}, {"note": 0, "velocity": 0, "duration": 69}, {"note": 75, "velocity": 112, "duration": 179}, {"note": 0, "velocity": 0, "duration": 61}, {"note": 70, "velocity": 104, "duration": 161}, {"note": 0, "velocity": 0, "duration": 79}, {"note": 68, "velocity": 115, "duration": 361}, {"note": 0, "velocity": 0, "duration": 119}, {"note": 70, "velocity": 115, "duration": 56}, {"note": 0, "velocity": 0, "duration": 64}, {"note": 70, "velocity": 115, "duration": 238}, {"note": 70, "velocity": 114, "duration": 118}, {"note": 75, "velocity": 112, "duration": 174}, {"note": 0, "velocity": 0, "duration": 66}, {"note": 75, "velocity": 115, "duration": 81}, {"note": 75, "velocity": 106, "duration": 56}, {"note": 0, "velocity": 0, "duration": 64}, {"note": 70, "velocity": 112, "duration": 137}, {"note": 71, "velocity": 101, "duration": 66}, {"note": 70, "velocity": 112, "duration": 144}, {"note": 0, "velocity": 0, "duration": 96}, {"note": 68, "velocity": 106, "duration": 337}, {"note": 0, "velocity": 0, "duration": 143}, {"note": 65, "velocity": 115, "duration": 343}, {"note": 68, "velocity": 106, "duration": 82}, {"note": 70, "velocity": 109, "duration": 152}, {"note": 0, "velocity": 0, "duration": 88}, {"note": 70, "velocity": 109, "duration": 156}, {"note": 0, "velocity": 0, "duration": 84}, {"note": 73, "velocity": 109, "duration": 149}, {"note": 0, "velocity": 0, "duration": 91}, {"note": 65, "velocity": 112, "duration": 155}, {"note": 0, "velocity": 0, "duration": 85}, {"note": 63, "velocity": 109, "duration": 390}, {"note": 0, "velocity": 0, "duration": 90}, {"note": 68, "velocity": 115, "duration": 56}, {"note": 0, "velocity": 0, "duration": 64}, {"note": 68, "velocity": 112, "duration": 165}, {"note": 0, "velocity": 0, "duration": 75}, {"note": 70, "velocity": 106, "duration": 71}, {"note": 66, "velocity": 112, "duration": 158}, {"note": 0, "velocity": 0, "duration": 82}, {"note": 65, "velocity": 112, "duration": 148}, {"note": 0, "velocity": 0, "duration": 92}, {"note": 63, "velocity": 115, "duration": 1558}, {"note": 0, "velocity": 0, "duration": 362}, {"note": 75, "velocity": 106, "duration": 78}, {"note": 75, "velocity": 115, "duration": 56}, {"note": 0, "velocity": 0, "duration": 64}, {"note": 75, "velocity": 118, "duration": 62}, {"note": 75, "velocity": 118, "duration": 87}, {"note": 80, "velocity": 112, "duration": 164}, {"note": 0, "velocity": 0, "duration": 76}, {"note": 82, "velocity": 115, "duration": 78}, {"note": 80, "velocity": 112, "duration": 69}, {"note": 78, "velocity": 118, "duration": 156}, {"note": 0, "velocity": 0, "duration": 84}, {"note": 78, "velocity": 118, "duration": 326}, {"note": 0, "velocity": 0, "duration": 154}, {"note": 77, "velocity": 112, "duration": 72}, {"note": 75, "velocity": 112, "duration": 58}, {"note": 0, "velocity": 0, "duration": 62}, {"note": 73, "velocity": 112, "duration": 148}, {"note": 0, "velocity": 0, "duration": 92}, {"note": 70, "velocity": 115, "duration": 149}, {"note": 0, "velocity": 0, "duration": 91}, {"note": 73, "velocity": 112, "duration": 65}, {"note": 75, "velocity": 115, "duration": 60}, {"note": 77, "velocity": 112, "duration": 186}, {"note": 75, "velocity": 115, "duration": 733}, {"note": 0, "velocity": 0, "duration": 227}, {"note": 75, "velocity": 115, "duration": 98}, {"note": 80, "velocity": 115, "duration": 65}, {"note": 78, "velocity": 115, "duration": 408}, {"note": 0, "velocity": 0, "duration": 72}, {"note": 77, "velocity": 112, "duration": 167}, {"note": 0, "velocity": 0, "duration": 73}, {"note": 75, "velocity": 115, "duration": 174}, {"note": 0, "velocity": 0, "duration": 66}, {"note": 77, "velocity": 109, "duration": 66}, {"note": 75, "velocity": 112, "duration": 55}, {"note": 0, "velocity": 0, "duration": 65}, {"note": 73, "velocity": 115, "duration": 253}, {"note": 0, "velocity": 0, "duration": 227}, {"note": 70, "velocity": 115, "duration": 55}, {"note": 0, "velocity": 0, "duration": 65}, {"note": 70, "velocity": 115, "duration": 140}, {"note": 0, "velocity": 0, "duration": 100}, {"note": 75, "velocity": 115, "duration": 60}, {"note": 73, "velocity": 115, "duration": 146}, {"note": 0, "velocity": 0, "duration": 94}, {"note": 68, "velocity": 115, "duration": 137}, {"note": 0, "velocity": 0, "duration": 103}, {"note": 70, "velocity": 112, "duration": 909}, {"note": 75, "velocity": 112, "duration": 290}, {"note": 0, "velocity": 0, "duration": 70}, {"note": 75, "velocity": 115, "duration": 68}, {"note": 75, "velocity": 112, "duration": 185}, {"note": 78, "velocity": 115, "duration": 171}, {"note": 0, "velocity": 0, "duration": 69}, {"note": 77, "velocity": 112, "duration": 177}, {"note": 0, "velocity": 0, "duration": 63}, {"note": 75, "velocity": 118, "duration": 161}, {"note": 0, "velocity": 0, "duration": 79}, {"note": 73, "velocity": 112, "duration": 339}, {"note": 0, "velocity": 0, "duration": 141}, {"note": 70, "velocity": 112, "duration": 348}, {"note": 0, "velocity": 0, "duration": 132}, {"note": 70, "velocity": 112, "duration": 220}, {"note": 75, "velocity": 112, "duration": 129}, {"note": 0, "velocity": 0, "duration": 111}, {"note": 75, "velocity": 115, "duration": 170}, {"note": 0, "velocity": 0, "duration": 70}, {"note": 70, "velocity": 107, "duration": 118}, {"note": 68, "velocity": 106, "duration": 118}, {"note": 66, "velocity": 112, "duration": 409}, {"note": 0, "velocity": 0, "duration": 71}, {"note": 65, "velocity": 115, "duration": 301}, {"note": 65, "velocity": 112, "duration": 63}, {"note": 65, "velocity": 115, "duration": 164}, {"note": 0, "velocity": 0, "duration": 76}, {"note": 68, "velocity": 112, "duration": 148}, {"note": 0, "velocity": 0, "duration": 92}, {"note": 70, "velocity": 112, "duration": 478}, {"note": 73, "velocity": 109, "duration": 135}, {"note": 0, "velocity": 0, "duration": 105}, {"note": 75, "velocity": 115, "duration": 146}, {"note": 0, "velocity": 0, "duration": 94}, {"note": 78, "velocity": 115, "duration": 141}, {"note": 0, "velocity": 0, "duration": 99}, {"note": 78, "velocity": 115, "duration": 958}, {"note": 0, "velocity": 0, "duration": 64}, {"note": 75, "velocity": 115, "duration": 359}, {"note": 0, "velocity": 0, "duration": 147}, {"note": 80, "velocity": 118, "duration": 346}, {"note": 0, "velocity": 0, "duration": 72}, {"note": 80, "velocity": 118, "duration": 478}, {"note": 82, "velocity": 118, "duration": 435}, {"note": 78, "velocity": 118, "duration": 372}, {"note": 80, "velocity": 115, "duration": 350}, {"note": 78, "velocity": 121, "duration": 458}, {"note": 77, "velocity": 115, "duration": 740}, {"note": 0, "velocity": 0, "duration": 254}, {"note": 75, "velocity": 118, "duration": 1783}]]