[[{"note": 61, "velocity": 111, "duration": 56}, {"note": 0, "velocity": 0, "duration": 64}, {"note": 63, "velocity": 108, "duration": 55}, {"note": 0, "velocity": 0, "duration": 65}, {"note": 66, "velocity": 108, "duration": 182}, {"note": 66, "velocity": 94, "duration": 58}, {"note": 0, "velocity": 0, "duration": 62}, {"note": 66, "velocity": 105, "duration": 265}, {"note": 0, "velocity": 0, "duration": 95}, {"note": 68, "velocity": 102, "duration": 64}, {"note": 70, "velocity": 87, "duration": 64}, {"note": 68, "velocity": 111, "duration": 156}, {"note": 0, "velocity": 0, "duration": 84}, {"note": 66, "velocity": 94, "duration": 59}, {"note": 0, "velocity": 0, "duration": 61}, {"note": 66, "velocity": 105, "duration": 186}, {"note": 0, "velocity": 0, "duration": 174}, {"note": 66, "velocity": 105, "duration": 74}, {"note": 68, "velocity": 105, "duration": 59}, {"note": 0, "velocity": 0, "duration": 61}, {"note": 70, "velocity": 105, "duration": 159}, {"note": 0, "velocity": 0, "duration": 81}, {"note": 70, "velocity": 102, "duration": 69}, {"note": 68, "velocity": 97, "duration": 63}, {"note": 70, "velocity": 114, "duration": 189}, {"note": 73, "velocity": 105, "duration": 52}, {"note": 0, "velocity": 0, "duration": 68}, {"note": 73, "velocity": 114, "duration": 541}, {"note": 0, "velocity": 0, "duration": 299}, {"note": 70, "velocity": 111, "duration": 61}, {"note": 73, "velocity": 108, "duration": 48}, {"note": 0, "velocity": 0, "duration": 72}, {"note": 75, "velocity": 108, "duration": 170}, {"note": 0, "velocity": 0, "duration": 70}, {"note": 70, "velocity": 108, "duration": 55}, {"note": 0, "velocity": 0, "duration": 65}, {"note": 70, "velocity": 108, "duration": 232}, {"note": 0, "velocity": 0, "duration": 128}, {"note": 70, "velocity": 111, "duration": 58}, {"note": 0, "velocity": 0, "duration": 62}, {"note": 75, "velocity": 105, "duration": 53}, {"note": 0, "velocity": 0, "duration": 67}, {"note": 73, "velocity": 108, "duration": 151}, {"note": 0, "velocity": 0, "duration": 89}, {"note": 68, "velocity": 108, "duration": 56}, {"note": 0, "velocity": 0, "duration": 64}, {"note": 68, "velocity": 108, "duration": 290}, {"note": 0, "velocity": 0, "duration": 70}, {"note": 63, "velocity": 102, "duration": 55}, {"note": 0, "velocity": 0, "duration": 65}, {"note": 65, "velocity": 109, "duration": 42}, {"note": 0, "velocity": 0, "duration": 78}, {"note": 66, "velocity": 102, "duration": 154}, {"note": 0, "velocity": 0, "duration": 86}, {"note": 66, "velocity": 105, "duration": 72}, {"note": 63, "velocity": 102, "duration": 137}, {"note": 0, "velocity": 0, "duration": 103}, {"note": 70, "velocity": 102, "duration": 358}, {"note": 68, "velocity": 102, "duration": 718}, {"note": 61, "velocity": 111, "duration": 56}, {"note": 0, "velocity": 0, "duration": 64}, {"note": 63, "velocity": 108, "duration": 55}, {"note": 0, "velocity": 0, "duration": 65}, {"note": 66, "velocity": 108, "duration": 182}, {"note": 66, "velocity": 94, "duration": 58}, {"note": 0, "velocity": 0, "duration": 62}, {"note": 66, "velocity": 105, "duration": 265}, {"note": 0, "velocity": 0, "duration": 95}, {"note": 68, "velocity": 102, "duration": 64}, {"note": 70, "velocity": 87, "duration": 64}, {"note": 68, "velocity": 111, "duration": 156}, {"note": 0, "velocity": 0, "duration": 84}, {"note": 66, "velocity": 94, "duration": 59}, {"note": 0, "velocity": 0, "duration": 61}, {"note": 66, "velocity": 105, "duration": 186}, {"note": 0, "velocity": 0, "duration": 174}, {"note": 66, "velocity": 105, "duration": 74}, {"note": 68, "velocity": 105, "duration": 59}, {"note": 0, "velocity": 0, "duration": 61}, {"note": 70, "velocity": 105, "duration": 159}, {"note": 0, "velocity": 0, "duration": 81}, {"note": 70, "velocity": 102, "duration": 69}, {"note": 68, "velocity": 97, "duration": 63}, {"note": 70, "velocity": 114, "duration": 189}, {"note": 73, "velocity": 105, "duration": 52}, {"note": 0, "velocity": 0, "duration": 68}, {"note": 73, "velocity": 114, "duration": 541}, {"note": 0, "velocity": 0, "duration": 299}, {"note": 70, "velocity": 111, "duration": 61}, {"note": 73, "velocity": 108, "duration": 48}, {"note": 0, "velocity": 0, "duration": 72}, {"note": 75, "velocity": 108, "duration": 170}, {"note": 0, "velocity": 0, "duration": 70}, {"note": 70, "velocity": 108, "duration": 55}, {"note": 0, "velocity": 0, "duration": 65}, {"note": 70, "velocity": 108, "duration": 232}, {"note": 0, "velocity": 0, "duration": 128}, {"note": 70, "velocity": 111, "duration": 58}, {"note": 0, "velocity": 0, "duration": 62}, {"note": 75, "velocity": 105, "duration": 53}, {"note": 0, "velocity": 0, "duration": 67}, {"note": 73, "velocity": 108, "duration": 151}, {"note": 0, "velocity": 0, "duration": 89}, {"note": 68, "velocity": 108, "duration": 56}, {"note": 0, "velocity": 0, "duration": 64}, {"note": 68, "velocity": 108, "duration": 290}, {"note": 0, "velocity": 0, "duration": 70}, {"note": 63, "velocity": 102, "duration": 55}, {"note": 0, "velocity": 0, "duration": 65}, {"note": 65, "velocity": 109, "duration": 42}, {"note": 0, "velocity": 0, "duration": 78}, {"note": 66, "velocity": 102, "duration": 154}, {"note": 0, "velocity": 0, "duration": 86}, {"note": 66, "velocity": 105, "duration": 72}, {"note": 63, "velocity": 102, "duration": 137}, {"note": 0, "velocity": 0, "duration": 223}, {"note": 63, "velocity": 105, "duration": 157}, {"note": 0, "velocity": 0, "duration": 83}, {"note": 61, "velocity": 105, "duration": 562}, {"note": 0, "velocity": 0, "duration": 398}, {"note": 70, "velocity": 111, "duration": 56}, {"note": 0, "velocity": 0, "duration": 64}, {"note": 70, "velocity": 105, "duration": 172}, {"note": 0, "velocity": 0, "duration": 68}, {"note": 70, "velocity": 111, "duration": 58}, {"note": 0, "velocity": 0, "duration": 62}, {"note": 70, "velocity": 111, "duration": 156}, {"note": 0, "velocity": 0, "duration": 84}, {"note": 75, "velocity": 105, "duration": 67}, {"note": 75, "velocity": 108, "duration": 625}, {"note": 0, "velocity": 0, "duration": 455}, {"note": 77, "velocity": 109, "duration": 69}, {"note": 77, "velocity": 93, "duration": 183}, {"note": 77, "velocity": 112, "duration": 69}, {"note": 75, "velocity": 114, "duration": 164}, {"note": 0, "velocity": 0, "duration": 76}, {"note": 73, "velocity": 108, "duration": 56}, {"note": 0, "velocity": 0, "duration": 64}, {"note": 70, "velocity": 114, "duration": 620}, {"note": 0, "velocity": 0, "duration": 220}, {"note": 70, "velocity": 114, "duration": 72}, {"note": 68, "velocity": 114, "duration": 56}, {"note": 0, "velocity": 0, "duration": 64}, {"note": 66, "velocity": 108, "duration": 47}, {"note": 0, "velocity": 0, "duration": 73}, {"note": 66, "velocity": 100, "duration": 45}, {"note": 0, "velocity": 0, "duration": 75}, {"note": 66, "velocity": 100, "duration": 52}, {"note": 0, "velocity": 0, "duration": 68}, {"note": 66, "velocity": 87, "duration": 48}, {"note": 0, "velocity": 0, "duration": 72}, {"note": 66, "velocity": 105, "duration": 56}, {"note": 0, "velocity": 0, "duration": 64}, {"note": 63, "velocity": 108, "duration": 94}, {"note": 0, "velocity": 0, "duration": 146}, {"note": 75, "velocity": 105, "duration": 164}, {"note": 0, "velocity": 0, "duration": 76}, {"note": 73, "velocity": 100, "duration": 53}, {"note": 0, "velocity": 0, "duration": 67}, {"note": 75, "velocity": 108, "duration": 61}, {"note": 73, "velocity": 111, "duration": 48}, {"note": 0, "velocity": 0, "duration": 72}, {"note": 75, "velocity": 108, "duration": 164}, {"note": 0, "velocity": 0, "duration": 76}, {"note": 73, "velocity": 105, "duration": 45}, {"note": 0, "velocity": 0, "duration": 75}, {"note": 75, "velocity": 114, "duration": 165}, {"note": 0, "velocity": 0, "duration": 75}, {"note": 73, "velocity": 102, "duration": 44}, {"note": 0, "velocity": 0, "duration": 76}, {"note": 70, "velocity": 102, "duration": 1191}, {"note": 0, "velocity": 0, "duration": 489}, {"note": 70, "velocity": 111, "duration": 56}, {"note": 0, "velocity": 0, "duration": 64}, {"note": 70, "velocity": 105, "duration": 172}, {"note": 0, "velocity": 0, "duration": 68}, {"note": 70, "velocity": 111, "duration": 58}, {"note": 0, "velocity": 0, "duration": 62}, {"note": 70, "velocity": 111, "duration": 156}, {"note": 0, "velocity": 0, "duration": 84}, {"note": 75, "velocity": 105, "duration": 67}, {"note": 75, "velocity": 108, "duration": 625}, {"note": 0, "velocity": 0, "duration": 455}, {"note": 77, "velocity": 109, "duration": 69}, {"note": 77, "velocity": 93, "duration": 183}, {"note": 77, "velocity": 112, "duration": 69}, {"note": 75, "velocity": 114, "duration": 164}, {"note": 0, "velocity": 0, "duration": 76}, {"note": 73, "velocity": 108, "duration": 56}, {"note": 0, "velocity": 0, "duration": 64}, {"note": 70, "velocity": 114, "duration": 620}, {"note": 0, "velocity": 0, "duration": 220}, {"note": 70, "velocity": 114, "duration": 72}, {"note": 68, "velocity": 114, "duration": 56}, {"note": 0, "velocity": 0, "duration": 64}, {"note": 66, "velocity": 108, "duration": 47}, {"note": 0, "velocity": 0, "duration": 73}, {"note": 66, "velocity": 100, "duration": 45}, {"note": 0, "velocity": 0, "duration": 75}, {"note": 66, "velocity": 100, "duration": 52}, {"note": 0, "velocity": 0, "duration": 68}, {"note": 66, "velocity": 87, "duration": 48}, {"note": 0, "velocity": 0, "duration": 72}, {"note": 66, "velocity": 105, "duration": 56}, {"note": 0, "velocity": 0, "duration": 64}, {"note": 63, "velocity": 108, "duration": 94}, {"note": 0, "velocity": 0, "duration": 146}, {"note": 68, "velocity": 111, "duration": 156}, {"note": 0, "velocity": 0, "duration": 84}, {"note": 68, "velocity": 94, "duration": 59}, {"note": 0, "velocity": 0, "duration": 61}, {"note": 68, "velocity": 97, "duration": 56}, {"note": 0, "velocity": 0, "duration": 64}, {"note": 68, "velocity": 97, "duration": 58}, {"note": 0, "velocity": 0, "duration": 62}, {"note": 68, "velocity": 108, "duration": 52}, {"note": 0, "velocity": 0, "duration": 68}, {"note": 68, "velocity": 102, "duration": 56}, {"note": 0, "velocity": 0, "duration": 64}, {"note": 61, "velocity": 102, "duration": 63}, {"note": 63, "velocity": 108, "duration": 1583}, {"note": 0, "velocity": 0, "duration": 17497}, {"note": 61, "velocity": 111, "duration": 56}, {"note": 0, "velocity": 0, "duration": 64}, {"note": 63, "velocity": 108, "duration": 55}, {"note": 0, "velocity": 0, "duration": 65}, {"note": 66, "velocity": 108, "duration": 182}, {"note": 66, "velocity": 94, "duration": 58}, {"note": 0, "velocity": 0, "duration": 62}, {"note": 66, "velocity": 105, "duration": 265}, {"note": 0, "velocity": 0, "duration": 95}, {"note": 68, "velocity": 102, "duration": 64}, {"note": 70, "velocity": 87, "duration": 64}, {"note": 68, "velocity": 111, "duration": 156}, {"note": 0, "velocity": 0, "duration": 84}, {"note": 66, "velocity": 94, "duration": 59}, {"note": 0, "velocity": 0, "duration": 61}, {"note": 66, "velocity": 105, "duration": 186}, {"note": 0, "velocity": 0, "duration": 174}, {"note": 66, "velocity": 105, "duration": 74}, {"note": 68, "velocity": 105, "duration": 59}, {"note": 0, "velocity": 0, "duration": 61}, {"note": 70, "velocity": 105, "duration": 159}, {"note": 0, "velocity": 0, "duration": 81}, {"note": 70, "velocity": 102, "duration": 69}, {"note": 68, "velocity": 97, "duration": 63}, {"note": 70, "velocity": 114, "duration": 189}, {"note": 73, "velocity": 105, "duration": 52}, {"note": 0, "velocity": 0, "duration": 68}, {"note": 73, "velocity": 114, "duration": 541}, {"note": 0, "velocity": 0, "duration": 299}, {"note": 70, "velocity": 111, "duration": 61}, {"note": 73, "velocity": 108, "duration": 48}, {"note": 0, "velocity": 0, "duration": 72}, {"note": 75, "velocity": 108, "duration": 170}, {"note": 0, "velocity": 0, "duration": 70}, {"note": 70, "velocity": 108, "duration": 55}, {"note": 0, "velocity": 0, "duration": 65}, {"note": 70, "velocity": 108, "duration": 232}, {"note": 0, "velocity": 0, "duration": 128}, {"note": 70, "velocity": 111, "duration": 58}, {"note": 0, "velocity": 0, "duration": 62}, {"note": 75, "velocity": 105, "duration": 53}, {"note": 0, "velocity": 0, "duration": 67}, {"note": 73, "velocity": 108, "duration": 151}, {"note": 0, "velocity": 0, "duration": 89}, {"note": 68, "velocity": 108, "duration": 56}, {"note": 0, "velocity": 0, "duration": 64}, {"note": 68, "velocity": 108, "duration": 290}, {"note": 0, "velocity": 0, "duration": 70}, {"note": 63, "velocity": 102, "duration": 55}, {"note": 0, "velocity": 0, "duration": 65}, {"note": 65, "velocity": 109, "duration": 42}, {"note": 0, "velocity": 0, "duration": 78}, {"note": 66, "velocity": 102, "duration": 154}, {"note": 0, "velocity": 0, "duration": 86}, {"note": 66, "velocity": 105, "duration": 72}, {"note": 63, "velocity": 102, "duration": 137}, {"note": 0, "velocity": 0, "duration": 103}, {"note": 70, "velocity": 102, "duration": 358}, {"note": 68, "velocity": 102, "duration": 718}, {"note": 61, "velocity": 111, "duration": 56}, {"note": 0, "velocity": 0, "duration": 64}, {"note": 63, "velocity": 108, "duration": 55}, {"note": 0, "velocity": 0, "duration": 65}, {"note": 66, "velocity": 108, "duration": 182}, {"note": 66, "velocity": 94, "duration": 58}, {"note": 0, "velocity": 0, "duration": 62}, {"note": 66, "velocity": 105, "duration": 265}, {"note": 0, "velocity": 0, "duration": 95}, {"note": 68, "velocity": 102, "duration": 64}, {"note": 70, "velocity": 87, "duration": 64}, {"note": 68, "velocity": 111, "duration": 156}, {"note": 0, "velocity": 0, "duration": 84}, {"note": 66, "velocity": 94, "duration": 59}, {"note": 0, "velocity": 0, "duration": 61}, {"note": 66, "velocity": 105, "duration": 186}, {"note": 0, "velocity": 0, "duration": 174}, {"note": 66, "velocity": 105, "duration": 74}, {"note": 68, "velocity": 105, "duration": 59}, {"note": 0, "velocity": 0, "duration": 61}, {"note": 70, "velocity": 105, "duration": 159}, {"note": 0, "velocity": 0, "duration": 81}, {"note": 70, "velocity": 102, "duration": 69}, {"note": 68, "velocity": 97, "duration": 63}, {"note": 70, "velocity": 114, "duration": 189}, {"note": 73, "velocity": 105, "duration": 52}, {"note": 0, "velocity": 0, "duration": 68}, {"note": 73, "velocity": 114, "duration": 541}, {"note": 0, "velocity": 0, "duration": 299}, {"note": 70, "velocity": 111, "duration": 61}, {"note": 73, "velocity": 108, "duration": 48}, {"note": 0, "velocity": 0, "duration": 72}, {"note": 75, "velocity": 108, "duration": 170}, {"note": 0, "velocity": 0, "duration": 70}, {"note": 70, "velocity": 108, "duration": 55}, {"note": 0, "velocity": 0, "duration": 65}, {"note": 70, "velocity": 108, "duration": 232}, {"note": 0, "velocity": 0, "duration": 128}, {"note": 70, "velocity": 111, "duration": 58}, {"note": 0, "velocity": 0, "duration": 62}, {"note": 75, "velocity": 105, "duration": 53}, {"note": 0, "velocity": 0, "duration": 67}, {"note": 73, "velocity": 108, "duration": 151}, {"note": 0, "velocity": 0, "duration": 89}, {"note": 68, "velocity": 108, "duration": 56}, {"note": 0, "velocity": 0, "duration": 64}, {"note": 68, "velocity": 108, "duration": 290}, {"note": 0, "velocity": 0, "duration": 70}, {"note": 63, "velocity": 102, "duration": 55}, {"note": 0, "velocity": 0, "duration": 65}, {"note": 65, "velocity": 109, "duration": 42}, {"note": 0, "velocity": 0, "duration": 78}, {"note": 66, "velocity": 102, "duration": 154}, {"note": 0, "velocity": 0, "duration": 86}, {"note": 66, "velocity": 105, "duration": 72}, {"note": 63, "velocity": 102, "duration": 137}, {"note": 0, "velocity": 0, "duration": 223}, {"note": 63, "velocity": 105, "duration": 157}, {"note": 0, "velocity": 0, "duration": 83}, {"note": 61, "velocity": 105, "duration": 562}, {"note": 0, "velocity": 0, "duration": 398}, {"note": 70, "velocity": 111, "duration": 56}, {"note": 0, "velocity": 0, "duration": 64}, {"note": 70, "velocity": 105, "duration": 172}, {"note": 0, "velocity": 0, "duration": 68}, {"note": 70, "velocity": 111, "duration": 58}, {"note": 0, "velocity": 0, "duration": 62}, {"note": 70, "velocity": 111, "duration": 156}, {"note": 0, "velocity": 0, "duration": 84}, {"note": 75, "velocity": 105, "duration": 67}, {"note": 75, "velocity": 108, "duration": 625}, {"note": 0, "velocity": 0, "duration": 455}, {"note": 77, "velocity": 109, "duration": 69}, {"note": 77, "velocity": 93, "duration": 183}, {"note": 77, "velocity": 112, "duration": 69}, {"note": 75, "velocity": 114, "duration": 164}, {"note": 0, "velocity": 0, "duration": 76}, {"note": 73, "velocity": 108, "duration": 56}, {"note": 0, "velocity": 0, "duration": 64}, {"note": 70, "velocity": 114, "duration": 620}, {"note": 0, "velocity": 0, "duration": 220}, {"note": 70, "velocity": 114, "duration": 72}, {"note": 68, "velocity": 114, "duration": 56}, {"note": 0, "velocity": 0, "duration": 64}, {"note": 66, "velocity": 108, "duration": 47}, {"note": 0, "velocity": 0, "duration": 73}, {"note": 66, "velocity": 100, "duration": 45}, {"note": 0, "velocity": 0, "duration": 75}, {"note": 66, "velocity": 100, "duration": 52}, {"note": 0, "velocity": 0, "duration": 68}, {"note": 66, "velocity": 87, "duration": 48}, {"note": 0, "velocity": 0, "duration": 72}, {"note": 66, "velocity": 105, "duration": 56}, {"note": 0, "velocity": 0, "duration": 64}, {"note": 63, "velocity": 108, "duration": 94}, {"note": 0, "velocity": 0, "duration": 146}, {"note": 75, "velocity": 105, "duration": 164}, {"note": 0, "velocity": 0, "duration": 76}, {"note": 73, "velocity": 100, "duration": 53}, {"note": 0, "velocity": 0, "duration": 67}, {"note": 75, "velocity": 108, "duration": 61}, {"note": 73, "velocity": 111, "duration": 48}, {"note": 0, "velocity": 0, "duration": 72}, {"note": 75, "velocity": 108, "duration": 164}, {"note": 0, "velocity": 0, "duration": 76}, {"note": 73, "velocity": 105, "duration": 45}, {"note": 0, "velocity": 0, "duration": 75}, {"note": 75, "velocity": 114, "duration": 165}, {"note": 0, "velocity": 0, "duration": 75}, {"note": 73, "velocity": 102, "duration": 44}, {"note": 0, "velocity": 0, "duration": 76}, {"note": 70, "velocity": 102, "duration": 1191}, {"note": 0, "velocity": 0, "duration": 489}, {"note": 70, "velocity": 111, "duration": 56}, {"note": 0, "velocity": 0, "duration": 64}, {"note": 70, "velocity": 105, "duration": 172}, {"note": 0, "velocity": 0, "duration": 68}, {"note": 70, "velocity": 111, "duration": 58}, {"note": 0, "velocity": 0, "duration": 62}, {"note": 70, "velocity": 111, "duration": 156}, {"note": 0, "velocity": 0, "duration": 84}, {"note": 75, "velocity": 105, "duration": 67}, {"note": 75, "velocity": 108, "duration": 625}, {"note": 0, "velocity": 0, "duration": 455}, {"note": 77, "velocity": 109, "duration": 69}, {"note": 77, "velocity": 93, "duration": 183}, {"note": 77, "velocity": 112, "duration": 69}, {"note": 75, "velocity": 114, "duration": 164}, {"note": 0, "velocity": 0, "duration": 76}, {"note": 73, "velocity": 108, "duration": 56}, {"note": 0, "velocity": 0, "duration": 64}, {"note": 70, "velocity": 114, "duration": 620}, {"note": 0, "velocity": 0, "duration": 220}, {"note": 70, "velocity": 114, "duration": 72}, {"note": 68, "velocity": 114, "duration": 56}, {"note": 0, "velocity": 0, "duration": 64}, {"note": 66, "velocity": 108, "duration": 47}, {"note": 0, "velocity": 0, "duration": 73}, {"note": 66, "velocity": 100, "duration": 45}, {"note": 0, "velocity": 0, "duration": 75}, {"note": 66, "velocity": 100, "duration": 52}, {"note": 0, "velocity": 0, "duration": 68}, {"note": 66, "velocity": 87, "duration": 48}, {"note": 0, "velocity": 0, "duration": 72}, {"note": 66, "velocity": 105, "duration": 56}, {"note": 0, "velocity": 0, "duration": 64}, {"note": 63, "velocity": 108, "duration": 94}, {"note": 0, "velocity": 0, "duration": 146}, {"note": 68, "velocity": 111, "duration": 156}, {"note": 0, "velocity": 0, "duration": 84}, {"note": 68, "velocity": 94, "duration": 59}, {"note": 0, "velocity": 0, "duration": 61}, {"note": 68, "velocity": 97, "duration": 56}, {"note": 0, "velocity": 0, "duration": 64}, {"note": 68, "velocity": 97, "duration": 58}, {"note": 0, "velocity": 0, "duration": 62}, {"note": 68, "velocity": 108, "duration": 52}, {"note": 0, "velocity": 0, "duration": 68}, {"note": 68, "velocity": 102, "duration": 56}, {"note": 0, "velocity": 0, "duration": 64}, {"note": 61, "velocity": 102, "duration": 63}, {"note": 63, "velocity": 108, "duration": 1583}, {"note": 0, "velocity": 0, "duration": 457}, {"note": 70, "velocity": 111, "duration": 56}, {"note": 0, "velocity": 0, "duration": 64}, {"note": 70, "velocity": 105, "duration": 172}, {"note": 0, "velocity": 0, "duration": 68}, {"note": 70, "velocity": 111, "duration": 58}, {"note": 0, "velocity": 0, "duration": 62}, {"note": 70, "velocity": 111, "duration": 156}, {"note": 0, "velocity": 0, "duration": 84}, {"note": 75, "velocity": 105, "duration": 67}, {"note": 75, "velocity": 108, "duration": 625}, {"note": 0, "velocity": 0, "duration": 455}, {"note": 77, "velocity": 109, "duration": 69}, {"note": 77, "velocity": 93, "duration": 183}, {"note": 77, "velocity": 112, "duration": 69}, {"note": 75, "velocity": 114, "duration": 164}, {"note": 0, "velocity": 0, "duration": 76}, {"note": 73, "velocity": 108, "duration": 56}, {"note": 0, "velocity": 0, "duration": 64}, {"note": 70, "velocity": 114, "duration": 620}, {"note": 0, "velocity": 0, "duration": 220}, {"note": 70, "velocity": 114, "duration": 72}, {"note": 68, "velocity": 114, "duration": 56}, {"note": 0, "velocity": 0, "duration": 64}, {"note": 66, "velocity": 108, "duration": 47}, {"note": 0, "velocity": 0, "duration": 73}, {"note": 66, "velocity": 100, "duration": 45}, {"note": 0, "velocity": 0, "duration": 75}, {"note": 66, "velocity": 100, "duration": 52}, {"note": 0, "velocity": 0, "duration": 68}, {"note": 66, "velocity": 87, "duration": 48}, {"note": 0, "velocity": 0, "duration": 72}, {"note": 66, "velocity": 105, "duration": 56}, {"note": 0, "velocity": 0, "duration": 64}, {"note": 63, "velocity": 108, "duration": 94}, {"note": 0, "velocity": 0, "duration": 146}, {"note": 75, "velocity": 105, "duration": 164}, {"note": 0, "velocity": 0, "duration": 76}, {"note": 73, "velocity": 100, "duration": 53}, {"note": 0, "velocity": 0, "duration": 67}, {"note": 75, "velocity": 108, "duration": 61}, {"note": 73, "velocity": 111, "duration": 48}, {"note": 0, "velocity": 0, "duration": 72}, {"note": 75, "velocity": 108, "duration": 164}, {"note": 0, "velocity": 0, "duration": 76}, {"note": 73, "velocity": 105, "duration": 45}, {"note": 0, "velocity": 0, "duration": 75}, {"note": 75, "velocity": 114, "duration": 165}, {"note": 0, "velocity": 0, "duration": 75}, {"note": 73, "velocity": 102, "duration": 44}, {"note": 0, "velocity": 0, "duration": 76}, {"note": 70, "velocity": 102, "duration": 1191}, {"note": 0, "velocity": 0, "duration": 489}, {"note": 70, "velocity": 111, "duration": 56}, {"note": 0, "velocity": 0, "duration": 64}, {"note": 70, "velocity": 105, "duration": 172}, {"note": 0, "velocity": 0, "duration": 68}, {"note": 70, "velocity": 111, "duration": 58}, {"note": 0, "velocity": 0, "duration": 62}, {"note": 70, "velocity": 111, "duration": 156}, {"note": 0, "velocity": 0, "duration": 84}, {"note": 75, "velocity": 105, "duration": 67}, {"note": 75, "velocity": 108, "duration": 625}, {"note": 0, "velocity": 0, "duration": 455}, {"note": 77, "velocity": 109, "duration": 69}, {"note": 77, "velocity": 93, "duration": 183}, {"note": 77, "velocity": 112, "duration": 69}, {"note": 75, "velocity": 114, "duration": 164}, {"note": 0, "velocity": 0, "duration": 76}, {"note": 73, "velocity": 108, "duration": 56}, {"note": 0, "velocity": 0, "duration": 64}, {"note": 70, "velocity": 114, "duration": 620}, {"note": 0, "velocity": 0, "duration": 220}, {"note": 70, "velocity": 114, "duration": 72}, {"note": 68, "velocity": 114, "duration": 56}, {"note": 0, "velocity": 0, "duration": 64}, {"note": 66, "velocity": 108, "duration": 47}, {"note": 0, "velocity": 0, "duration": 73}, {"note": 66, "velocity": 100, "duration": 45}, {"note": 0, "velocity": 0, "duration": 75}, {"note": 66, "velocity": 100, "duration": 52}, {"note": 0, "velocity": 0, "duration": 68}, {"note": 66, "velocity": 87, "duration": 48}, {"note": 0, "velocity": 0, "duration": 72}, {"note": 66, "velocity": 105, "duration": 56}, {"note": 0, "velocity": 0, "duration": 64}, {"note": 63, "velocity": 108, "duration": 94}, {"note": 0, "velocity": 0, "duration": 146}, {"note": 68, "velocity": 111, "duration": 156}, {"note": 0, "velocity": 0, "duration": 84}, {"note": 68, "velocity": 94, "duration": 59}, {"note": 0, "velocity": 0, "duration": 61}, {"note": 68, "velocity": 97, "duration": 56}, {"note": 0, "velocity": 0, "duration": 64}, {"note": 68, "velocity": 97, "duration": 58}, {"note": 0, "velocity": 0, "duration": 62}, {"note": 68, "velocity": 108, "duration": 52}, {"note": 0, "velocity": 0, "duration": 68}, {"note": 68, "velocity": 102, "duration": 56}, {"note": 0, "velocity": 0, "duration": 64}, {"note": 61, "velocity": 102, "duration": 63}, {"note": 63, "velocity": 108, "duration": 1583}]]