[[{"note": 73, "velocity": 106, "duration": 178}, {"note": 0, "velocity": 0, "duration": 62}, {"note": 71, "velocity": 109, "duration": 173}, {"note": 0, "velocity": 0, "duration": 67}, {"note": 69, "velocity": 117, "duration": 177}, {"note": 0, "velocity": 0, "duration": 63}, {"note": 66, "velocity": 115, "duration": 174}, {"note": 0, "velocity": 0, "duration": 66}, {"note": 69, "velocity": 117, "duration": 184}, {"note": 71, "velocity": 109, "duration": 60}, {"note": 73, "velocity": 109, "duration": 505}, {"note": 0, "velocity": 0, "duration": 95}, {"note": 71, "velocity": 109, "duration": 301}, {"note": 73, "velocity": 106, "duration": 70}, {"note": 71, "velocity": 109, "duration": 141}, {"note": 0, "velocity": 0, "duration": 99}, {"note": 69, "velocity": 120, "duration": 173}, {"note": 0, "velocity": 0, "duration": 67}, {"note": 68, "velocity": 109, "duration": 774}, {"note": 0, "velocity": 0, "duration": 186}, {"note": 73, "velocity": 115, "duration": 151}, {"note": 0, "velocity": 0, "duration": 89}, {"note": 66, "velocity": 115, "duration": 163}, {"note": 0, "velocity": 0, "duration": 77}, {"note": 69, "velocity": 117, "duration": 163}, {"note": 0, "velocity": 0, "duration": 77}, {"note": 71, "velocity": 109, "duration": 163}, {"note": 0, "velocity": 0, "duration": 77}, {"note": 73, "velocity": 112, "duration": 166}, {"note": 0, "velocity": 0, "duration": 74}, {"note": 71, "velocity": 101, "duration": 58}, {"note": 0, "velocity": 0, "duration": 62}, {"note": 73, "velocity": 109, "duration": 259}, {"note": 0, "velocity": 0, "duration": 101}, {"note": 78, "velocity": 99, "duration": 178}, {"note": 0, "velocity": 0, "duration": 62}, {"note": 76, "velocity": 114, "duration": 598}, {"note": 73, "velocity": 115, "duration": 302}, {"note": 71, "velocity": 109, "duration": 515}, {"note": 0, "velocity": 0, "duration": 205}, {"note": 69, "velocity": 120, "duration": 65}, {"note": 71, "velocity": 104, "duration": 55}, {"note": 0, "velocity": 0, "duration": 65}, {"note": 73, "velocity": 115, "duration": 149}, {"note": 0, "velocity": 0, "duration": 91}, {"note": 78, "velocity": 106, "duration": 139}, {"note": 0, "velocity": 0, "duration": 101}, {"note": 73, "velocity": 115, "duration": 186}, {"note": 71, "velocity": 112, "duration": 163}, {"note": 0, "velocity": 0, "duration": 77}, {"note": 73, "velocity": 112, "duration": 571}, {"note": 0, "velocity": 0, "duration": 149}, {"note": 69, "velocity": 113, "duration": 67}, {"note": 71, "velocity": 106, "duration": 73}, {"note": 73, "velocity": 112, "duration": 190}, {"note": 76, "velocity": 118, "duration": 150}, {"note": 0, "velocity": 0, "duration": 90}, {"note": 80, "velocity": 118, "duration": 188}, {"note": 78, "velocity": 112, "duration": 175}, {"note": 0, "velocity": 0, "duration": 65}, {"note": 76, "velocity": 115, "duration": 683}, {"note": 0, "velocity": 0, "duration": 277}, {"note": 74, "velocity": 123, "duration": 381}, {"note": 0, "velocity": 0, "duration": 99}, {"note": 71, "velocity": 109, "duration": 150}, {"note": 0, "velocity": 0, "duration": 90}, {"note": 69, "velocity": 120, "duration": 160}, {"note": 0, "velocity": 0, "duration": 80}, {"note": 68, "velocity": 115, "duration": 295}, {"note": 0, "velocity": 0, "duration": 65}, {"note": 68, "velocity": 104, "duration": 69}, {"note": 69, "velocity": 117, "duration": 176}, {"note": 0, "velocity": 0, "duration": 64}, {"note": 71, "velocity": 112, "duration": 188}, {"note": 69, "velocity": 120, "duration": 1718}, {"note": 0, "velocity": 0, "duration": 202}, {"note": 78, "velocity": 115, "duration": 171}, {"note": 0, "velocity": 0, "duration": 69}, {"note": 78, "velocity": 106, "duration": 144}, {"note": 0, "velocity": 0, "duration": 96}, {"note": 78, "velocity": 118, "duration": 154}, {"note": 0, "velocity": 0, "duration": 86}, {"note": 74, "velocity": 120, "duration": 168}, {"note": 0, "velocity": 0, "duration": 72}, {"note": 76, "velocity": 115, "duration": 58}, {"note": 0, "velocity": 0, "duration": 62}, {"note": 76, "velocity": 115, "duration": 163}, {"note": 0, "velocity": 0, "duration": 77}, {"note": 78, "velocity": 112, "duration": 70}, {"note": 80, "velocity": 115, "duration": 164}, {"note": 0, "velocity": 0, "duration": 76}, {"note": 78, "velocity": 115, "duration": 149}, {"note": 0, "velocity": 0, "duration": 91}, {"note": 76, "velocity": 121, "duration": 343}, {"note": 0, "velocity": 0, "duration": 137}, {"note": 76, "velocity": 115, "duration": 200}, {"note": 73, "velocity": 115, "duration": 223}, {"note": 71, "velocity": 112, "duration": 124}, {"note": 73, "velocity": 104, "duration": 740}, {"note": 0, "velocity": 0, "duration": 100}, {"note": 74, "velocity": 120, "duration": 167}, {"note": 0, "velocity": 0, "duration": 73}, {"note": 74, "velocity": 123, "duration": 150}, {"note": 0, "velocity": 0, "duration": 90}, {"note": 74, "velocity": 120, "duration": 157}, {"note": 0, "velocity": 0, "duration": 83}, {"note": 66, "velocity": 115, "duration": 180}, {"note": 68, "velocity": 115, "duration": 65}, {"note": 68, "velocity": 112, "duration": 161}, {"note": 0, "velocity": 0, "duration": 79}, {"note": 69, "velocity": 120, "duration": 61}, {"note": 78, "velocity": 118, "duration": 156}, {"note": 0, "velocity": 0, "duration": 84}, {"note": 76, "velocity": 112, "duration": 167}, {"note": 0, "velocity": 0, "duration": 73}, {"note": 73, "velocity": 112, "duration": 367}, {"note": 0, "velocity": 0, "duration": 113}, {"note": 71, "velocity": 112, "duration": 182}, {"note": 69, "velocity": 120, "duration": 172}, {"note": 0, "velocity": 0, "duration": 68}, {"note": 71, "velocity": 109, "duration": 854}, {"note": 0, "velocity": 0, "duration": 106}, {"note": 78, "velocity": 115, "duration": 281}, {"note": 0, "velocity": 0, "duration": 79}, {"note": 78, "velocity": 112, "duration": 66}, {"note": 78, "velocity": 112, "duration": 64}, {"note": 80, "velocity": 109, "duration": 64}, {"note": 81, "velocity": 117, "duration": 186}, {"note": 80, "velocity": 118, "duration": 803}, {"note": 0, "velocity": 0, "duration": 157}, {"note": 80, "velocity": 115, "duration": 237}, {"note": 0, "velocity": 0, "duration": 123}, {"note": 81, "velocity": 117, "duration": 67}, {"note": 83, "velocity": 115, "duration": 183}, {"note": 80, "velocity": 112, "duration": 176}, {"note": 0, "velocity": 0, "duration": 64}, {"note": 78, "velocity": 106, "duration": 212}, {"note": 76, "velocity": 118, "duration": 582}, {"note": 0, "velocity": 0, "duration": 138}, {"note": 71, "velocity": 115, "duration": 251}, {"note": 0, "velocity": 0, "duration": 109}, {"note": 71, "velocity": 112, "duration": 60}, {"note": 71, "velocity": 112, "duration": 59}, {"note": 0, "velocity": 0, "duration": 61}, {"note": 78, "velocity": 115, "duration": 275}, {"note": 0, "velocity": 0, "duration": 85}, {"note": 76, "velocity": 115, "duration": 287}, {"note": 0, "velocity": 0, "duration": 73}, {"note": 76, "velocity": 112, "duration": 70}, {"note": 68, "velocity": 115, "duration": 165}, {"note": 0, "velocity": 0, "duration": 75}, {"note": 71, "velocity": 112, "duration": 161}, {"note": 0, "velocity": 0, "duration": 79}, {"note": 69, "velocity": 117, "duration": 1700}, {"note": 0, "velocity": 0, "duration": 220}, {"note": 73, "velocity": 106, "duration": 178}, {"note": 0, "velocity": 0, "duration": 62}, {"note": 71, "velocity": 109, "duration": 173}, {"note": 0, "velocity": 0, "duration": 67}, {"note": 69, "velocity": 117, "duration": 177}, {"note": 0, "velocity": 0, "duration": 63}, {"note": 66, "velocity": 115, "duration": 174}, {"note": 0, "velocity": 0, "duration": 66}, {"note": 69, "velocity": 117, "duration": 184}, {"note": 71, "velocity": 109, "duration": 60}, {"note": 73, "velocity": 109, "duration": 505}, {"note": 0, "velocity": 0, "duration": 95}, {"note": 71, "velocity": 109, "duration": 598}, {"note": 0, "velocity": 0, "duration": 122}, {"note": 69, "velocity": 120, "duration": 173}, {"note": 0, "velocity": 0, "duration": 67}, {"note": 68, "velocity": 109, "duration": 774}, {"note": 0, "velocity": 0, "duration": 186}, {"note": 73, "velocity": 115, "duration": 151}, {"note": 0, "velocity": 0, "duration": 89}, {"note": 66, "velocity": 115, "duration": 163}, {"note": 0, "velocity": 0, "duration": 77}, {"note": 69, "velocity": 117, "duration": 163}, {"note": 0, "velocity": 0, "duration": 77}, {"note": 71, "velocity": 109, "duration": 163}, {"note": 0, "velocity": 0, "duration": 77}, {"note": 73, "velocity": 112, "duration": 166}, {"note": 0, "velocity": 0, "duration": 74}, {"note": 71, "velocity": 101, "duration": 58}, {"note": 0, "velocity": 0, "duration": 62}, {"note": 73, "velocity": 109, "duration": 259}, {"note": 0, "velocity": 0, "duration": 101}, {"note": 78, "velocity": 99, "duration": 178}, {"note": 0, "velocity": 0, "duration": 62}, {"note": 76, "velocity": 114, "duration": 598}, {"note": 73, "velocity": 115, "duration": 302}, {"note": 71, "velocity": 109, "duration": 515}, {"note": 0, "velocity": 0, "duration": 205}, {"note": 69, "velocity": 120, "duration": 65}, {"note": 71, "velocity": 104, "duration": 55}, {"note": 0, "velocity": 0, "duration": 65}, {"note": 73, "velocity": 115, "duration": 149}, {"note": 0, "velocity": 0, "duration": 91}, {"note": 78, "velocity": 106, "duration": 139}, {"note": 0, "velocity": 0, "duration": 101}, {"note": 73, "velocity": 115, "duration": 186}, {"note": 71, "velocity": 112, "duration": 163}, {"note": 0, "velocity": 0, "duration": 77}, {"note": 73, "velocity": 112, "duration": 571}, {"note": 0, "velocity": 0, "duration": 149}, {"note": 69, "velocity": 113, "duration": 67}, {"note": 71, "velocity": 106, "duration": 73}, {"note": 73, "velocity": 112, "duration": 190}, {"note": 76, "velocity": 118, "duration": 150}, {"note": 0, "velocity": 0, "duration": 90}, {"note": 80, "velocity": 118, "duration": 188}, {"note": 78, "velocity": 112, "duration": 175}, {"note": 0, "velocity": 0, "duration": 65}, {"note": 76, "velocity": 115, "duration": 683}, {"note": 0, "velocity": 0, "duration": 277}, {"note": 74, "velocity": 123, "duration": 358}, {"note": 74, "velocity": 117, "duration": 57}, {"note": 0, "velocity": 0, "duration": 63}, {"note": 74, "velocity": 107, "duration": 173}, {"note": 0, "velocity": 0, "duration": 67}, {"note": 73, "velocity": 112, "duration": 161}, {"note": 0, "velocity": 0, "duration": 79}, {"note": 71, "velocity": 115, "duration": 195}, {"note": 68, "velocity": 115, "duration": 172}, {"note": 0, "velocity": 0, "duration": 68}, {"note": 69, "velocity": 113, "duration": 175}, {"note": 0, "velocity": 0, "duration": 65}, {"note": 71, "velocity": 106, "duration": 180}, {"note": 69, "velocity": 117, "duration": 1730}, {"note": 0, "velocity": 0, "duration": 190}, {"note": 78, "velocity": 115, "duration": 171}, {"note": 0, "velocity": 0, "duration": 69}, {"note": 78, "velocity": 106, "duration": 144}, {"note": 0, "velocity": 0, "duration": 96}, {"note": 78, "velocity": 118, "duration": 154}, {"note": 0, "velocity": 0, "duration": 86}, {"note": 74, "velocity": 120, "duration": 168}, {"note": 0, "velocity": 0, "duration": 72}, {"note": 76, "velocity": 115, "duration": 58}, {"note": 0, "velocity": 0, "duration": 62}, {"note": 76, "velocity": 115, "duration": 163}, {"note": 0, "velocity": 0, "duration": 77}, {"note": 78, "velocity": 112, "duration": 70}, {"note": 80, "velocity": 115, "duration": 164}, {"note": 0, "velocity": 0, "duration": 76}, {"note": 78, "velocity": 115, "duration": 149}, {"note": 0, "velocity": 0, "duration": 91}, {"note": 76, "velocity": 121, "duration": 343}, {"note": 0, "velocity": 0, "duration": 137}, {"note": 76, "velocity": 115, "duration": 200}, {"note": 73, "velocity": 115, "duration": 223}, {"note": 71, "velocity": 112, "duration": 124}, {"note": 73, "velocity": 104, "duration": 740}, {"note": 0, "velocity": 0, "duration": 100}, {"note": 74, "velocity": 120, "duration": 167}, {"note": 0, "velocity": 0, "duration": 73}, {"note": 74, "velocity": 123, "duration": 150}, {"note": 0, "velocity": 0, "duration": 90}, {"note": 74, "velocity": 120, "duration": 157}, {"note": 0, "velocity": 0, "duration": 83}, {"note": 66, "velocity": 115, "duration": 180}, {"note": 68, "velocity": 115, "duration": 65}, {"note": 68, "velocity": 112, "duration": 161}, {"note": 0, "velocity": 0, "duration": 79}, {"note": 69, "velocity": 120, "duration": 61}, {"note": 78, "velocity": 118, "duration": 156}, {"note": 0, "velocity": 0, "duration": 84}, {"note": 76, "velocity": 112, "duration": 167}, {"note": 0, "velocity": 0, "duration": 73}, {"note": 73, "velocity": 112, "duration": 367}, {"note": 0, "velocity": 0, "duration": 113}, {"note": 71, "velocity": 112, "duration": 182}, {"note": 69, "velocity": 120, "duration": 172}, {"note": 0, "velocity": 0, "duration": 68}, {"note": 71, "velocity": 109, "duration": 854}, {"note": 0, "velocity": 0, "duration": 106}, {"note": 78, "velocity": 115, "duration": 281}, {"note": 0, "velocity": 0, "duration": 79}, {"note": 78, "velocity": 112, "duration": 66}, {"note": 78, "velocity": 112, "duration": 64}, {"note": 80, "velocity": 109, "duration": 64}, {"note": 81, "velocity": 117, "duration": 186}, {"note": 80, "velocity": 118, "duration": 803}, {"note": 0, "velocity": 0, "duration": 157}, {"note": 80, "velocity": 115, "duration": 237}, {"note": 0, "velocity": 0, "duration": 123}, {"note": 81, "velocity": 117, "duration": 67}, {"note": 83, "velocity": 115, "duration": 183}, {"note": 80, "velocity": 112, "duration": 176}, {"note": 0, "velocity": 0, "duration": 64}, {"note": 78, "velocity": 106, "duration": 212}, {"note": 76, "velocity": 118, "duration": 582}, {"note": 0, "velocity": 0, "duration": 138}, {"note": 71, "velocity": 115, "duration": 251}, {"note": 0, "velocity": 0, "duration": 109}, {"note": 71, "velocity": 112, "duration": 60}, {"note": 71, "velocity": 112, "duration": 59}, {"note": 0, "velocity": 0, "duration": 61}, {"note": 78, "velocity": 115, "duration": 275}, {"note": 0, "velocity": 0, "duration": 85}, {"note": 76, "velocity": 115, "duration": 287}, {"note": 0, "velocity": 0, "duration": 73}, {"note": 76, "velocity": 112, "duration": 70}, {"note": 68, "velocity": 115, "duration": 165}, {"note": 0, "velocity": 0, "duration": 75}, {"note": 71, "velocity": 112, "duration": 161}, {"note": 0, "velocity": 0, "duration": 79}, {"note": 69, "velocity": 117, "duration": 1700}, {"note": 0, "velocity": 0, "duration": 15580}, {"note": 78, "velocity": 115, "duration": 171}, {"note": 0, "velocity": 0, "duration": 69}, {"note": 78, "velocity": 106, "duration": 144}, {"note": 0, "velocity": 0, "duration": 96}, {"note": 78, "velocity": 118, "duration": 154}, {"note": 0, "velocity": 0, "duration": 86}, {"note": 74, "velocity": 120, "duration": 168}, {"note": 0, "velocity": 0, "duration": 72}, {"note": 76, "velocity": 115, "duration": 58}, {"note": 0, "velocity": 0, "duration": 62}, {"note": 76, "velocity": 115, "duration": 163}, {"note": 0, "velocity": 0, "duration": 77}, {"note": 78, "velocity": 112, "duration": 70}, {"note": 80, "velocity": 115, "duration": 164}, {"note": 0, "velocity": 0, "duration": 76}, {"note": 78, "velocity": 115, "duration": 149}, {"note": 0, "velocity": 0, "duration": 91}, {"note": 76, "velocity": 121, "duration": 343}, {"note": 0, "velocity": 0, "duration": 137}, {"note": 76, "velocity": 115, "duration": 200}, {"note": 73, "velocity": 115, "duration": 223}, {"note": 71, "velocity": 112, "duration": 124}, {"note": 73, "velocity": 104, "duration": 740}, {"note": 0, "velocity": 0, "duration": 100}, {"note": 74, "velocity": 120, "duration": 167}, {"note": 0, "velocity": 0, "duration": 73}, {"note": 74, "velocity": 123, "duration": 150}, {"note": 0, "velocity": 0, "duration": 90}, {"note": 74, "velocity": 120, "duration": 157}, {"note": 0, "velocity": 0, "duration": 83}, {"note": 66, "velocity": 115, "duration": 180}, {"note": 68, "velocity": 115, "duration": 65}, {"note": 68, "velocity": 112, "duration": 161}, {"note": 0, "velocity": 0, "duration": 79}, {"note": 69, "velocity": 120, "duration": 61}, {"note": 78, "velocity": 118, "duration": 156}, {"note": 0, "velocity": 0, "duration": 84}, {"note": 76, "velocity": 112, "duration": 167}, {"note": 0, "velocity": 0, "duration": 73}, {"note": 73, "velocity": 112, "duration": 367}, {"note": 0, "velocity": 0, "duration": 113}, {"note": 71, "velocity": 112, "duration": 182}, {"note": 69, "velocity": 120, "duration": 172}, {"note": 0, "velocity": 0, "duration": 68}, {"note": 71, "velocity": 109, "duration": 854}, {"note": 0, "velocity": 0, "duration": 106}, {"note": 78, "velocity": 115, "duration": 281}, {"note": 0, "velocity": 0, "duration": 79}, {"note": 78, "velocity": 112, "duration": 66}, {"note": 78, "velocity": 112, "duration": 64}, {"note": 80, "velocity": 109, "duration": 64}, {"note": 81, "velocity": 117, "duration": 186}, {"note": 80, "velocity": 118, "duration": 803}, {"note": 0, "velocity": 0, "duration": 157}, {"note": 80, "velocity": 115, "duration": 237}, {"note": 0, "velocity": 0, "duration": 123}, {"note": 81, "velocity": 117, "duration": 67}, {"note": 83, "velocity": 115, "duration": 183}, {"note": 80, "velocity": 112, "duration": 176}, {"note": 0, "velocity": 0, "duration": 64}, {"note": 78, "velocity": 106, "duration": 212}, {"note": 76, "velocity": 118, "duration": 582}, {"note": 0, "velocity": 0, "duration": 138}, {"note": 71, "velocity": 115, "duration": 251}, {"note": 0, "velocity": 0, "duration": 109}, {"note": 71, "velocity": 112, "duration": 60}, {"note": 71, "velocity": 112, "duration": 59}, {"note": 0, "velocity": 0, "duration": 61}, {"note": 78, "velocity": 115, "duration": 275}, {"note": 0, "velocity": 0, "duration": 85}, {"note": 76, "velocity": 115, "duration": 287}, {"note": 0, "velocity": 0, "duration": 73}, {"note": 76, "velocity": 112, "duration": 70}, {"note": 68, "velocity": 115, "duration": 165}, {"note": 0, "velocity": 0, "duration": 75}, {"note": 71, "velocity": 112, "duration": 161}, {"note": 0, "velocity": 0, "duration": 79}, {"note": 69, "velocity": 117, "duration": 1700}, {"note": 0, "velocity": 0, "duration": 220}, {"note": 78, "velocity": 115, "duration": 171}, {"note": 0, "velocity": 0, "duration": 69}, {"note": 78, "velocity": 106, "duration": 144}, {"note": 0, "velocity": 0, "duration": 96}, {"note": 78, "velocity": 118, "duration": 154}, {"note": 0, "velocity": 0, "duration": 86}, {"note": 74, "velocity": 120, "duration": 168}, {"note": 0, "velocity": 0, "duration": 72}, {"note": 76, "velocity": 115, "duration": 58}, {"note": 0, "velocity": 0, "duration": 62}, {"note": 76, "velocity": 115, "duration": 163}, {"note": 0, "velocity": 0, "duration": 77}, {"note": 78, "velocity": 112, "duration": 70}, {"note": 80, "velocity": 115, "duration": 164}, {"note": 0, "velocity": 0, "duration": 76}, {"note": 78, "velocity": 115, "duration": 149}, {"note": 0, "velocity": 0, "duration": 91}, {"note": 76, "velocity": 121, "duration": 343}, {"note": 0, "velocity": 0, "duration": 137}, {"note": 76, "velocity": 115, "duration": 200}, {"note": 73, "velocity": 115, "duration": 223}, {"note": 71, "velocity": 112, "duration": 124}, {"note": 73, "velocity": 104, "duration": 740}, {"note": 0, "velocity": 0, "duration": 100}, {"note": 74, "velocity": 120, "duration": 167}, {"note": 0, "velocity": 0, "duration": 73}, {"note": 74, "velocity": 123, "duration": 150}, {"note": 0, "velocity": 0, "duration": 90}, {"note": 74, "velocity": 120, "duration": 157}, {"note": 0, "velocity": 0, "duration": 83}, {"note": 66, "velocity": 115, "duration": 180}, {"note": 68, "velocity": 115, "duration": 65}, {"note": 68, "velocity": 112, "duration": 161}, {"note": 0, "velocity": 0, "duration": 79}, {"note": 69, "velocity": 120, "duration": 61}, {"note": 78, "velocity": 118, "duration": 156}, {"note": 0, "velocity": 0, "duration": 84}, {"note": 76, "velocity": 112, "duration": 167}, {"note": 0, "velocity": 0, "duration": 73}, {"note": 73, "velocity": 112, "duration": 367}, {"note": 0, "velocity": 0, "duration": 113}, {"note": 71, "velocity": 112, "duration": 182}, {"note": 69, "velocity": 120, "duration": 172}, {"note": 0, "velocity": 0, "duration": 68}, {"note": 71, "velocity": 109, "duration": 854}, {"note": 0, "velocity": 0, "duration": 106}, {"note": 78, "velocity": 115, "duration": 281}, {"note": 0, "velocity": 0, "duration": 79}, {"note": 78, "velocity": 112, "duration": 66}, {"note": 78, "velocity": 112, "duration": 64}, {"note": 80, "velocity": 109, "duration": 64}, {"note": 81, "velocity": 117, "duration": 186}, {"note": 80, "velocity": 118, "duration": 803}, {"note": 0, "velocity": 0, "duration": 157}, {"note": 80, "velocity": 115, "duration": 237}, {"note": 0, "velocity": 0, "duration": 123}, {"note": 81, "velocity": 117, "duration": 67}, {"note": 83, "velocity": 115, "duration": 183}, {"note": 80, "velocity": 112, "duration": 176}, {"note": 0, "velocity": 0, "duration": 64}, {"note": 78, "velocity": 106, "duration": 212}, {"note": 76, "velocity": 118, "duration": 582}, {"note": 0, "velocity": 0, "duration": 138}, {"note": 71, "velocity": 115, "duration": 251}, {"note": 0, "velocity": 0, "duration": 109}, {"note": 71, "velocity": 112, "duration": 60}, {"note": 71, "velocity": 112, "duration": 59}, {"note": 0, "velocity": 0, "duration": 61}, {"note": 78, "velocity": 115, "duration": 275}, {"note": 0, "velocity": 0, "duration": 85}, {"note": 76, "velocity": 115, "duration": 958}, {"note": 78, "velocity": 118, "duration": 291}, {"note": 0, "velocity": 0, "duration": 69}, {"note": 78, "velocity": 112, "duration": 58}, {"note": 0, "velocity": 0, "duration": 62}, {"note": 78, "velocity": 115, "duration": 57}, {"note": 0, "velocity": 0, "duration": 63}, {"note": 81, "velocity": 120, "duration": 287}, {"note": 0, "velocity": 0, "duration": 73}, {"note": 80, "velocity": 118, "duration": 294}, {"note": 0, "velocity": 0, "duration": 66}, {"note": 80, "velocity": 115, "duration": 55}, {"note": 0, "velocity": 0, "duration": 65}, {"note": 80, "velocity": 115, "duration": 62}, {"note": 81, "velocity": 123, "duration": 47}, {"note": 0, "velocity": 0, "duration": 73}, {"note": 83, "velocity": 115, "duration": 176}, {"note": 81, "velocity": 120, "duration": 293}, {"note": 0, "velocity": 0, "duration": 10353}, {"note": 69, "velocity": 120, "duration": 199}, {"note": 71, "velocity": 115, "duration": 190}, {"note": 73, "velocity": 115, "duration": 180}, {"note": 81, "velocity": 115, "duration": 190}, {"note": 78, "velocity": 112, "duration": 566}, {"note": 0, "velocity": 0, "duration": 154}, {"note": 81, "velocity": 120, "duration": 178}, {"note": 0, "velocity": 0, "duration": 62}, {"note": 80, "velocity": 115, "duration": 307}, {"note": 81, "velocity": 117, "duration": 78}, {"note": 83, "velocity": 118, "duration": 166}, {"note": 0, "velocity": 0, "duration": 68}, {"note": 80, "velocity": 115, "duration": 181}, {"note": 81, "velocity": 118, "duration": 718}, {"note": 0, "velocity": 0, "duration": 3871}, {"note": 84, "velocity": 124, "duration": 42}, {"note": 84, "velocity": 116, "duration": 100}, {"note": 96, "velocity": 127, "duration": 120}, {"note": 0, "velocity": 0, "duration": 96}, {"note": 96, "velocity": 127, "duration": 94}, {"note": 95, "velocity": 124, "duration": 175}, {"note": 0, "velocity": 0, "duration": 74}, {"note": 95, "velocity": 127, "duration": 76}, {"note": 91, "velocity": 127, "duration": 160}, {"note": 0, "velocity": 0, "duration": 63}, {"note": 93, "velocity": 127, "duration": 359}, {"note": 0, "velocity": 0, "duration": 360}, {"note": 96, "velocity": 127, "duration": 220}, {"note": 95, "velocity": 127, "duration": 244}, {"note": 96, "velocity": 127, "duration": 137}, {"note": 98, "velocity": 127, "duration": 136}, {"note": 0, "velocity": 0, "duration": 107}, {"note": 98, "velocity": 127, "duration": 136}, {"note": 93, "velocity": 127, "duration": 135}, {"note": 0, "velocity": 0, "duration": 108}, {"note": 93, "velocity": 127, "duration": 389}, {"note": 91, "velocity": 127, "duration": 722}, {"note": 0, "velocity": 0, "duration": 3687}, {"note": 96, "velocity": 127, "duration": 138}, {"note": 0, "velocity": 0, "duration": 90}, {"note": 96, "velocity": 127, "duration": 205}, {"note": 95, "velocity": 127, "duration": 232}, {"note": 91, "velocity": 127, "duration": 243}, {"note": 93, "velocity": 127, "duration": 548}, {"note": 0, "velocity": 0, "duration": 442}, {"note": 95, "velocity": 127, "duration": 227}, {"note": 96, "velocity": 127, "duration": 128}, {"note": 98, "velocity": 127, "duration": 110}, {"note": 0, "velocity": 0, "duration": 74}, {"note": 96, "velocity": 127, "duration": 132}, {"note": 98, "velocity": 127, "duration": 319}, {"note": 96, "velocity": 127, "duration": 1805}, {"note": 0, "velocity": 0, "duration": 2902}, {"note": 84, "velocity": 127, "duration": 96}, {"note": 84, "velocity": 127, "duration": 96}, {"note": 86, "velocity": 127, "duration": 178}, {"note": 88, "velocity": 114, "duration": 47}, {"note": 0, "velocity": 0, "duration": 137}, {"note": 96, "velocity": 109, "duration": 158}, {"note": 0, "velocity": 0, "duration": 85}, {"note": 93, "velocity": 127, "duration": 508}, {"note": 0, "velocity": 0, "duration": 200}, {"note": 96, "velocity": 127, "duration": 260}, {"note": 95, "velocity": 127, "duration": 254}, {"note": 96, "velocity": 127, "duration": 132}, {"note": 98, "velocity": 127, "duration": 246}, {"note": 96, "velocity": 117, "duration": 126}, {"note": 93, "velocity": 127, "duration": 168}, {"note": 0, "velocity": 0, "duration": 74}, {"note": 91, "velocity": 127, "duration": 1037}]]