[[{"note": 67, "velocity": 83, "duration": 482}, {"note": 0, "velocity": 0, "duration": 238}, {"note": 69, "velocity": 83, "duration": 296}, {"note": 71, "velocity": 83, "duration": 250}, {"note": 74, "velocity": 83, "duration": 156}, {"note": 0, "velocity": 0, "duration": 84}, {"note": 83, "velocity": 83, "duration": 279}, {"note": 0, "velocity": 0, "duration": 81}, {"note": 81, "velocity": 83, "duration": 74}, {"note": 79, "velocity": 83, "duration": 1228}, {"note": 0, "velocity": 0, "duration": 521}, {"note": 81, "velocity": 83, "duration": 525}, {"note": 0, "velocity": 0, "duration": 195}, {"note": 83, "velocity": 83, "duration": 111}, {"note": 0, "velocity": 0, "duration": 129}, {"note": 78, "velocity": 83, "duration": 284}, {"note": 81, "velocity": 83, "duration": 255}, {"note": 76, "velocity": 83, "duration": 249}, {"note": 78, "velocity": 83, "duration": 242}, {"note": 74, "velocity": 83, "duration": 1234}, {"note": 0, "velocity": 0, "duration": 675}, {"note": 71, "velocity": 83, "duration": 582}, {"note": 0, "velocity": 0, "duration": 138}, {"note": 74, "velocity": 83, "duration": 235}, {"note": 76, "velocity": 83, "duration": 264}, {"note": 79, "velocity": 83, "duration": 193}, {"note": 81, "velocity": 83, "duration": 158}, {"note": 0, "velocity": 0, "duration": 82}, {"note": 83, "velocity": 82, "duration": 264}, {"note": 0, "velocity": 0, "duration": 216}, {"note": 81, "velocity": 81, "duration": 1171}, {"note": 0, "velocity": 0, "duration": 509}, {"note": 78, "velocity": 81, "duration": 511}, {"note": 0, "velocity": 0, "duration": 209}, {"note": 76, "velocity": 81, "duration": 105}, {"note": 0, "velocity": 0, "duration": 135}, {"note": 76, "velocity": 81, "duration": 219}, {"note": 74, "velocity": 81, "duration": 266}, {"note": 69, "velocity": 81, "duration": 272}, {"note": 67, "velocity": 81, "duration": 177}, {"note": 0, "velocity": 0, "duration": 63}, {"note": 71, "velocity": 81, "duration": 1589}, {"note": 0, "velocity": 0, "duration": 331}, {"note": 67, "velocity": 81, "duration": 482}, {"note": 0, "velocity": 0, "duration": 238}, {"note": 69, "velocity": 81, "duration": 296}, {"note": 71, "velocity": 81, "duration": 250}, {"note": 74, "velocity": 81, "duration": 156}, {"note": 0, "velocity": 0, "duration": 84}, {"note": 83, "velocity": 81, "duration": 480}, {"note": 81, "velocity": 81, "duration": 480}, {"note": 79, "velocity": 81, "duration": 1399}, {"note": 0, "velocity": 0, "duration": 521}, {"note": 81, "velocity": 82, "duration": 525}, {"note": 0, "velocity": 0, "duration": 195}, {"note": 83, "velocity": 82, "duration": 111}, {"note": 0, "velocity": 0, "duration": 129}, {"note": 78, "velocity": 82, "duration": 284}, {"note": 81, "velocity": 82, "duration": 255}, {"note": 76, "velocity": 82, "duration": 249}, {"note": 78, "velocity": 82, "duration": 253}, {"note": 74, "velocity": 82, "duration": 1695}, {"note": 0, "velocity": 0, "duration": 225}, {"note": 71, "velocity": 82, "duration": 582}, {"note": 0, "velocity": 0, "duration": 138}, {"note": 74, "velocity": 82, "duration": 235}, {"note": 76, "velocity": 82, "duration": 264}, {"note": 79, "velocity": 82, "duration": 193}, {"note": 81, "velocity": 82, "duration": 158}, {"note": 0, "velocity": 0, "duration": 82}, {"note": 83, "velocity": 82, "duration": 264}, {"note": 81, "velocity": 82, "duration": 1411}, {"note": 0, "velocity": 0, "duration": 509}, {"note": 78, "velocity": 83, "duration": 511}, {"note": 0, "velocity": 0, "duration": 209}, {"note": 76, "velocity": 83, "duration": 105}, {"note": 0, "velocity": 0, "duration": 135}, {"note": 81, "velocity": 83, "duration": 219}, {"note": 74, "velocity": 83, "duration": 244}, {"note": 78, "velocity": 83, "duration": 162}, {"note": 0, "velocity": 0, "duration": 78}, {"note": 81, "velocity": 83, "duration": 158}, {"note": 0, "velocity": 0, "duration": 82}, {"note": 79, "velocity": 83, "duration": 1155}, {"note": 0, "velocity": 0, "duration": 765}, {"note": 83, "velocity": 83, "duration": 332}, {"note": 0, "velocity": 0, "duration": 148}, {"note": 83, "velocity": 83, "duration": 342}, {"note": 0, "velocity": 0, "duration": 138}, {"note": 83, "velocity": 83, "duration": 313}, {"note": 78, "velocity": 83, "duration": 275}, {"note": 0, "velocity": 0, "duration": 205}, {"note": 74, "velocity": 83, "duration": 193}, {"note": 76, "velocity": 83, "duration": 1269}, {"note": 0, "velocity": 0, "duration": 651}, {"note": 81, "velocity": 83, "duration": 324}, {"note": 0, "velocity": 0, "duration": 156}, {"note": 81, "velocity": 83, "duration": 324}, {"note": 0, "velocity": 0, "duration": 156}, {"note": 81, "velocity": 83, "duration": 138}, {"note": 0, "velocity": 0, "duration": 102}, {"note": 83, "velocity": 83, "duration": 137}, {"note": 0, "velocity": 0, "duration": 103}, {"note": 78, "velocity": 83, "duration": 480}, {"note": 76, "velocity": 83, "duration": 480}, {"note": 74, "velocity": 83, "duration": 1522}, {"note": 0, "velocity": 0, "duration": 398}, {"note": 71, "velocity": 83, "duration": 541}, {"note": 0, "velocity": 0, "duration": 179}, {"note": 74, "velocity": 83, "duration": 254}, {"note": 76, "velocity": 83, "duration": 269}, {"note": 79, "velocity": 83, "duration": 182}, {"note": 81, "velocity": 83, "duration": 199}, {"note": 83, "velocity": 83, "duration": 229}, {"note": 0, "velocity": 0, "duration": 131}, {"note": 81, "velocity": 83, "duration": 1307}, {"note": 0, "velocity": 0, "duration": 493}, {"note": 78, "velocity": 83, "duration": 536}, {"note": 0, "velocity": 0, "duration": 184}, {"note": 76, "velocity": 83, "duration": 268}, {"note": 81, "velocity": 83, "duration": 249}, {"note": 74, "velocity": 83, "duration": 268}, {"note": 78, "velocity": 83, "duration": 269}, {"note": 81, "velocity": 83, "duration": 145}, {"note": 0, "velocity": 0, "duration": 95}, {"note": 79, "velocity": 83, "duration": 1440}, {"note": 0, "velocity": 0, "duration": 15840}, {"note": 83, "velocity": 79, "duration": 332}, {"note": 0, "velocity": 0, "duration": 148}, {"note": 83, "velocity": 79, "duration": 342}, {"note": 0, "velocity": 0, "duration": 138}, {"note": 83, "velocity": 79, "duration": 313}, {"note": 78, "velocity": 79, "duration": 275}, {"note": 0, "velocity": 0, "duration": 205}, {"note": 74, "velocity": 79, "duration": 193}, {"note": 76, "velocity": 79, "duration": 1269}, {"note": 0, "velocity": 0, "duration": 651}, {"note": 81, "velocity": 79, "duration": 324}, {"note": 0, "velocity": 0, "duration": 156}, {"note": 81, "velocity": 79, "duration": 324}, {"note": 0, "velocity": 0, "duration": 156}, {"note": 81, "velocity": 79, "duration": 138}, {"note": 0, "velocity": 0, "duration": 102}, {"note": 83, "velocity": 79, "duration": 137}, {"note": 0, "velocity": 0, "duration": 103}, {"note": 78, "velocity": 79, "duration": 240}, {"note": 76, "velocity": 79, "duration": 360}, {"note": 74, "velocity": 79, "duration": 1522}, {"note": 0, "velocity": 0, "duration": 398}, {"note": 71, "velocity": 78, "duration": 541}, {"note": 0, "velocity": 0, "duration": 179}, {"note": 74, "velocity": 78, "duration": 254}, {"note": 76, "velocity": 78, "duration": 269}, {"note": 79, "velocity": 78, "duration": 182}, {"note": 81, "velocity": 78, "duration": 199}, {"note": 83, "velocity": 78, "duration": 229}, {"note": 0, "velocity": 0, "duration": 131}, {"note": 81, "velocity": 78, "duration": 1307}, {"note": 0, "velocity": 0, "duration": 493}, {"note": 78, "velocity": 78, "duration": 536}, {"note": 0, "velocity": 0, "duration": 184}, {"note": 76, "velocity": 78, "duration": 268}, {"note": 81, "velocity": 78, "duration": 249}, {"note": 74, "velocity": 78, "duration": 268}, {"note": 78, "velocity": 78, "duration": 269}, {"note": 81, "velocity": 78, "duration": 145}, {"note": 0, "velocity": 0, "duration": 95}, {"note": 79, "velocity": 78, "duration": 1440}, {"note": 0, "velocity": 0, "duration": 480}, {"note": 67, "velocity": 78, "duration": 482}, {"note": 0, "velocity": 0, "duration": 238}, {"note": 69, "velocity": 78, "duration": 296}, {"note": 71, "velocity": 78, "duration": 250}, {"note": 74, "velocity": 78, "duration": 156}, {"note": 0, "velocity": 0, "duration": 84}, {"note": 83, "velocity": 78, "duration": 279}, {"note": 0, "velocity": 0, "duration": 81}, {"note": 81, "velocity": 78, "duration": 74}, {"note": 79, "velocity": 78, "duration": 1399}, {"note": 0, "velocity": 0, "duration": 521}, {"note": 81, "velocity": 78, "duration": 525}, {"note": 0, "velocity": 0, "duration": 195}, {"note": 83, "velocity": 78, "duration": 111}, {"note": 0, "velocity": 0, "duration": 129}, {"note": 78, "velocity": 78, "duration": 284}, {"note": 81, "velocity": 77, "duration": 255}, {"note": 76, "velocity": 77, "duration": 249}, {"note": 78, "velocity": 76, "duration": 253}, {"note": 74, "velocity": 76, "duration": 1245}, {"note": 0, "velocity": 0, "duration": 675}, {"note": 71, "velocity": 76, "duration": 582}, {"note": 0, "velocity": 0, "duration": 138}, {"note": 74, "velocity": 76, "duration": 235}, {"note": 76, "velocity": 76, "duration": 264}, {"note": 79, "velocity": 76, "duration": 193}, {"note": 81, "velocity": 76, "duration": 158}, {"note": 0, "velocity": 0, "duration": 82}, {"note": 83, "velocity": 76, "duration": 264}, {"note": 81, "velocity": 76, "duration": 1411}, {"note": 0, "velocity": 0, "duration": 509}, {"note": 78, "velocity": 75, "duration": 511}, {"note": 0, "velocity": 0, "duration": 209}, {"note": 76, "velocity": 75, "duration": 105}, {"note": 0, "velocity": 0, "duration": 135}, {"note": 81, "velocity": 75, "duration": 219}, {"note": 74, "velocity": 75, "duration": 266}, {"note": 78, "velocity": 75, "duration": 272}, {"note": 81, "velocity": 75, "duration": 272}, {"note": 79, "velocity": 75, "duration": 1589}, {"note": 0, "velocity": 0, "duration": 331}, {"note": 67, "velocity": 75, "duration": 482}, {"note": 0, "velocity": 0, "duration": 238}, {"note": 69, "velocity": 75, "duration": 296}, {"note": 71, "velocity": 75, "duration": 250}, {"note": 74, "velocity": 75, "duration": 156}, {"note": 0, "velocity": 0, "duration": 84}, {"note": 83, "velocity": 75, "duration": 480}, {"note": 81, "velocity": 75, "duration": 480}, {"note": 79, "velocity": 75, "duration": 1399}, {"note": 0, "velocity": 0, "duration": 521}, {"note": 81, "velocity": 75, "duration": 525}, {"note": 0, "velocity": 0, "duration": 195}, {"note": 83, "velocity": 75, "duration": 111}, {"note": 0, "velocity": 0, "duration": 129}, {"note": 78, "velocity": 75, "duration": 284}, {"note": 81, "velocity": 75, "duration": 255}, {"note": 76, "velocity": 75, "duration": 249}, {"note": 78, "velocity": 75, "duration": 253}, {"note": 74, "velocity": 75, "duration": 1695}, {"note": 0, "velocity": 0, "duration": 225}, {"note": 71, "velocity": 75, "duration": 582}, {"note": 0, "velocity": 0, "duration": 138}, {"note": 74, "velocity": 75, "duration": 235}, {"note": 76, "velocity": 75, "duration": 264}, {"note": 79, "velocity": 75, "duration": 193}, {"note": 81, "velocity": 75, "duration": 158}, {"note": 0, "velocity": 0, "duration": 82}, {"note": 83, "velocity": 75, "duration": 264}, {"note": 0, "velocity": 0, "duration": 216}, {"note": 81, "velocity": 75, "duration": 1171}, {"note": 0, "velocity": 0, "duration": 509}, {"note": 78, "velocity": 75, "duration": 511}, {"note": 0, "velocity": 0, "duration": 209}, {"note": 76, "velocity": 75, "duration": 105}, {"note": 0, "velocity": 0, "duration": 135}, {"note": 81, "velocity": 75, "duration": 219}, {"note": 74, "velocity": 75, "duration": 244}, {"note": 78, "velocity": 75, "duration": 162}, {"note": 0, "velocity": 0, "duration": 78}, {"note": 81, "velocity": 75, "duration": 158}, {"note": 0, "velocity": 0, "duration": 82}, {"note": 79, "velocity": 75, "duration": 1155}]]