[[{"note": 81, "velocity": 74, "duration": 106}, {"note": 84, "velocity": 69, "duration": 85}, {"note": 86, "velocity": 83, "duration": 236}, {"note": 84, "velocity": 71, "duration": 273}, {"note": 79, "velocity": 74, "duration": 169}, {"note": 84, "velocity": 65, "duration": 322}, {"note": 81, "velocity": 70, "duration": 498}, {"note": 0, "velocity": 0, "duration": 222}, {"note": 74, "velocity": 59, "duration": 149}, {"note": 77, "velocity": 71, "duration": 137}, {"note": 81, "velocity": 61, "duration": 253}, {"note": 79, "velocity": 70, "duration": 246}, {"note": 72, "velocity": 59, "duration": 167}, {"note": 76, "velocity": 73, "duration": 327}, {"note": 74, "velocity": 73, "duration": 471}, {"note": 0, "velocity": 0, "duration": 489}, {"note": 81, "velocity": 90, "duration": 270}, {"note": 0, "velocity": 0, "duration": 90}, {"note": 79, "velocity": 76, "duration": 59}, {"note": 0, "velocity": 0, "duration": 61}, {"note": 79, "velocity": 74, "duration": 165}, {"note": 0, "velocity": 0, "duration": 75}, {"note": 74, "velocity": 69, "duration": 248}, {"note": 79, "velocity": 95, "duration": 411}, {"note": 0, "velocity": 0, "duration": 549}, {"note": 86, "velocity": 76, "duration": 144}, {"note": 0, "velocity": 0, "duration": 96}, {"note": 86, "velocity": 71, "duration": 42}, {"note": 0, "velocity": 0, "duration": 78}, {"note": 86, "velocity": 71, "duration": 92}, {"note": 84, "velocity": 67, "duration": 178}, {"note": 0, "velocity": 0, "duration": 62}, {"note": 79, "velocity": 76, "duration": 210}, {"note": 81, "velocity": 74, "duration": 316}, {"note": 0, "velocity": 0, "duration": 644}, {"note": 86, "velocity": 72, "duration": 130}, {"note": 0, "velocity": 0, "duration": 110}, {"note": 86, "velocity": 73, "duration": 89}, {"note": 89, "velocity": 65, "duration": 125}, {"note": 86, "velocity": 72, "duration": 238}, {"note": 84, "velocity": 66, "duration": 153}, {"note": 0, "velocity": 0, "duration": 87}, {"note": 79, "velocity": 67, "duration": 332}, {"note": 0, "velocity": 0, "duration": 628}, {"note": 77, "velocity": 93, "duration": 135}, {"note": 0, "velocity": 0, "duration": 105}, {"note": 77, "velocity": 95, "duration": 71}, {"note": 79, "velocity": 67, "duration": 74}, {"note": 77, "velocity": 95, "duration": 225}, {"note": 72, "velocity": 59, "duration": 254}, {"note": 74, "velocity": 77, "duration": 374}, {"note": 0, "velocity": 0, "duration": 346}, {"note": 81, "velocity": 74, "duration": 106}, {"note": 84, "velocity": 69, "duration": 85}, {"note": 86, "velocity": 83, "duration": 236}, {"note": 84, "velocity": 71, "duration": 273}, {"note": 79, "velocity": 74, "duration": 169}, {"note": 84, "velocity": 65, "duration": 322}, {"note": 81, "velocity": 70, "duration": 498}, {"note": 0, "velocity": 0, "duration": 222}, {"note": 74, "velocity": 59, "duration": 149}, {"note": 77, "velocity": 71, "duration": 137}, {"note": 81, "velocity": 61, "duration": 253}, {"note": 79, "velocity": 70, "duration": 246}, {"note": 72, "velocity": 59, "duration": 167}, {"note": 76, "velocity": 73, "duration": 327}, {"note": 74, "velocity": 73, "duration": 471}, {"note": 0, "velocity": 0, "duration": 489}, {"note": 81, "velocity": 90, "duration": 270}, {"note": 0, "velocity": 0, "duration": 90}, {"note": 79, "velocity": 76, "duration": 59}, {"note": 0, "velocity": 0, "duration": 61}, {"note": 79, "velocity": 74, "duration": 165}, {"note": 0, "velocity": 0, "duration": 75}, {"note": 74, "velocity": 69, "duration": 248}, {"note": 79, "velocity": 95, "duration": 411}, {"note": 0, "velocity": 0, "duration": 549}, {"note": 86, "velocity": 76, "duration": 144}, {"note": 0, "velocity": 0, "duration": 96}, {"note": 86, "velocity": 71, "duration": 42}, {"note": 0, "velocity": 0, "duration": 78}, {"note": 86, "velocity": 71, "duration": 92}, {"note": 84, "velocity": 67, "duration": 178}, {"note": 0, "velocity": 0, "duration": 62}, {"note": 79, "velocity": 76, "duration": 210}, {"note": 81, "velocity": 74, "duration": 316}, {"note": 0, "velocity": 0, "duration": 644}, {"note": 86, "velocity": 72, "duration": 130}, {"note": 0, "velocity": 0, "duration": 110}, {"note": 86, "velocity": 73, "duration": 89}, {"note": 89, "velocity": 65, "duration": 125}, {"note": 86, "velocity": 72, "duration": 238}, {"note": 84, "velocity": 66, "duration": 153}, {"note": 0, "velocity": 0, "duration": 87}, {"note": 79, "velocity": 67, "duration": 332}, {"note": 0, "velocity": 0, "duration": 628}, {"note": 77, "velocity": 93, "duration": 135}, {"note": 0, "velocity": 0, "duration": 105}, {"note": 77, "velocity": 95, "duration": 71}, {"note": 79, "velocity": 67, "duration": 74}, {"note": 77, "velocity": 95, "duration": 225}, {"note": 72, "velocity": 59, "duration": 254}, {"note": 74, "velocity": 77, "duration": 374}, {"note": 0, "velocity": 0, "duration": 586}, {"note": 81, "velocity": 85, "duration": 261}, {"note": 86, "velocity": 71, "duration": 118}, {"note": 0, "velocity": 0, "duration": 122}, {"note": 86, "velocity": 104, "duration": 144}, {"note": 0, "velocity": 0, "duration": 96}, {"note": 84, "velocity": 68, "duration": 126}, {"note": 81, "velocity": 72, "duration": 109}, {"note": 84, "velocity": 74, "duration": 160}, {"note": 0, "velocity": 0, "duration": 80}, {"note": 88, "velocity": 87, "duration": 155}, {"note": 0, "velocity": 0, "duration": 85}, {"note": 86, "velocity": 77, "duration": 331}, {"note": 0, "velocity": 0, "duration": 149}, {"note": 89, "velocity": 90, "duration": 122}, {"note": 0, "velocity": 0, "duration": 118}, {"note": 89, "velocity": 87, "duration": 58}, {"note": 0, "velocity": 0, "duration": 62}, {"note": 91, "velocity": 74, "duration": 62}, {"note": 89, "velocity": 98, "duration": 140}, {"note": 0, "velocity": 0, "duration": 100}, {"note": 86, "velocity": 85, "duration": 124}, {"note": 0, "velocity": 0, "duration": 116}, {"note": 84, "velocity": 90, "duration": 337}, {"note": 86, "velocity": 87, "duration": 219}, {"note": 81, "velocity": 90, "duration": 245}, {"note": 0, "velocity": 0, "duration": 235}, {"note": 74, "velocity": 71, "duration": 189}, {"note": 79, "velocity": 74, "duration": 158}, {"note": 0, "velocity": 0, "duration": 82}, {"note": 79, "velocity": 104, "duration": 192}, {"note": 79, "velocity": 85, "duration": 125}, {"note": 0, "velocity": 0, "duration": 115}, {"note": 81, "velocity": 74, "duration": 186}, {"note": 84, "velocity": 93, "duration": 161}, {"note": 0, "velocity": 0, "duration": 79}, {"note": 86, "velocity": 104, "duration": 140}, {"note": 0, "velocity": 0, "duration": 100}, {"note": 86, "velocity": 100, "duration": 175}, {"note": 0, "velocity": 0, "duration": 65}, {"note": 89, "velocity": 81, "duration": 142}, {"note": 0, "velocity": 0, "duration": 98}, {"note": 89, "velocity": 71, "duration": 109}, {"note": 91, "velocity": 86, "duration": 70}, {"note": 93, "velocity": 79, "duration": 127}, {"note": 0, "velocity": 0, "duration": 113}, {"note": 93, "velocity": 87, "duration": 175}, {"note": 0, "velocity": 0, "duration": 65}, {"note": 84, "velocity": 98, "duration": 187}, {"note": 0, "velocity": 0, "duration": 173}, {"note": 84, "velocity": 95, "duration": 115}, {"note": 81, "velocity": 71, "duration": 130}, {"note": 0, "velocity": 0, "duration": 110}, {"note": 84, "velocity": 75, "duration": 143}, {"note": 0, "velocity": 0, "duration": 97}, {"note": 86, "velocity": 114, "duration": 960}, {"note": 0, "velocity": 0, "duration": 960}, {"note": 81, "velocity": 85, "duration": 261}, {"note": 86, "velocity": 71, "duration": 118}, {"note": 0, "velocity": 0, "duration": 122}, {"note": 86, "velocity": 104, "duration": 144}, {"note": 0, "velocity": 0, "duration": 96}, {"note": 84, "velocity": 68, "duration": 126}, {"note": 81, "velocity": 72, "duration": 109}, {"note": 84, "velocity": 74, "duration": 160}, {"note": 0, "velocity": 0, "duration": 80}, {"note": 88, "velocity": 87, "duration": 155}, {"note": 0, "velocity": 0, "duration": 85}, {"note": 86, "velocity": 77, "duration": 331}, {"note": 0, "velocity": 0, "duration": 149}, {"note": 89, "velocity": 90, "duration": 122}, {"note": 0, "velocity": 0, "duration": 118}, {"note": 89, "velocity": 87, "duration": 58}, {"note": 0, "velocity": 0, "duration": 62}, {"note": 91, "velocity": 74, "duration": 62}, {"note": 89, "velocity": 98, "duration": 140}, {"note": 0, "velocity": 0, "duration": 100}, {"note": 86, "velocity": 85, "duration": 124}, {"note": 0, "velocity": 0, "duration": 116}, {"note": 84, "velocity": 90, "duration": 337}, {"note": 86, "velocity": 87, "duration": 219}, {"note": 81, "velocity": 90, "duration": 245}, {"note": 0, "velocity": 0, "duration": 235}, {"note": 74, "velocity": 71, "duration": 189}, {"note": 79, "velocity": 74, "duration": 158}, {"note": 0, "velocity": 0, "duration": 82}, {"note": 79, "velocity": 104, "duration": 192}, {"note": 79, "velocity": 85, "duration": 125}, {"note": 0, "velocity": 0, "duration": 115}, {"note": 81, "velocity": 74, "duration": 186}, {"note": 84, "velocity": 93, "duration": 161}, {"note": 0, "velocity": 0, "duration": 79}, {"note": 86, "velocity": 104, "duration": 140}, {"note": 0, "velocity": 0, "duration": 100}, {"note": 86, "velocity": 100, "duration": 175}, {"note": 0, "velocity": 0, "duration": 65}, {"note": 89, "velocity": 81, "duration": 142}, {"note": 0, "velocity": 0, "duration": 98}, {"note": 89, "velocity": 71, "duration": 109}, {"note": 91, "velocity": 86, "duration": 70}, {"note": 93, "velocity": 79, "duration": 127}, {"note": 0, "velocity": 0, "duration": 113}, {"note": 93, "velocity": 87, "duration": 175}, {"note": 0, "velocity": 0, "duration": 65}, {"note": 84, "velocity": 98, "duration": 187}, {"note": 0, "velocity": 0, "duration": 173}, {"note": 84, "velocity": 95, "duration": 115}, {"note": 81, "velocity": 71, "duration": 130}, {"note": 0, "velocity": 0, "duration": 110}, {"note": 84, "velocity": 75, "duration": 143}, {"note": 0, "velocity": 0, "duration": 97}, {"note": 86, "velocity": 114, "duration": 960}, {"note": 0, "velocity": 0, "duration": 16080}, {"note": 81, "velocity": 74, "duration": 106}, {"note": 84, "velocity": 69, "duration": 85}, {"note": 86, "velocity": 83, "duration": 236}, {"note": 84, "velocity": 71, "duration": 273}, {"note": 79, "velocity": 74, "duration": 169}, {"note": 84, "velocity": 65, "duration": 322}, {"note": 81, "velocity": 70, "duration": 498}, {"note": 0, "velocity": 0, "duration": 222}, {"note": 74, "velocity": 59, "duration": 149}, {"note": 77, "velocity": 71, "duration": 137}, {"note": 81, "velocity": 61, "duration": 253}, {"note": 79, "velocity": 70, "duration": 246}, {"note": 72, "velocity": 59, "duration": 167}, {"note": 76, "velocity": 73, "duration": 327}, {"note": 74, "velocity": 73, "duration": 471}, {"note": 0, "velocity": 0, "duration": 489}, {"note": 81, "velocity": 90, "duration": 270}, {"note": 0, "velocity": 0, "duration": 90}, {"note": 79, "velocity": 76, "duration": 59}, {"note": 0, "velocity": 0, "duration": 61}, {"note": 79, "velocity": 74, "duration": 165}, {"note": 0, "velocity": 0, "duration": 75}, {"note": 74, "velocity": 69, "duration": 248}, {"note": 79, "velocity": 95, "duration": 411}, {"note": 0, "velocity": 0, "duration": 549}, {"note": 86, "velocity": 76, "duration": 144}, {"note": 0, "velocity": 0, "duration": 96}, {"note": 86, "velocity": 71, "duration": 42}, {"note": 0, "velocity": 0, "duration": 78}, {"note": 86, "velocity": 71, "duration": 92}, {"note": 84, "velocity": 67, "duration": 178}, {"note": 0, "velocity": 0, "duration": 62}, {"note": 79, "velocity": 76, "duration": 210}, {"note": 81, "velocity": 74, "duration": 316}, {"note": 0, "velocity": 0, "duration": 644}, {"note": 86, "velocity": 72, "duration": 130}, {"note": 0, "velocity": 0, "duration": 110}, {"note": 86, "velocity": 73, "duration": 89}, {"note": 89, "velocity": 65, "duration": 125}, {"note": 86, "velocity": 72, "duration": 238}, {"note": 84, "velocity": 66, "duration": 153}, {"note": 0, "velocity": 0, "duration": 87}, {"note": 79, "velocity": 67, "duration": 332}, {"note": 0, "velocity": 0, "duration": 628}, {"note": 77, "velocity": 93, "duration": 135}, {"note": 0, "velocity": 0, "duration": 105}, {"note": 77, "velocity": 95, "duration": 71}, {"note": 79, "velocity": 67, "duration": 74}, {"note": 77, "velocity": 95, "duration": 225}, {"note": 72, "velocity": 59, "duration": 254}, {"note": 74, "velocity": 77, "duration": 374}, {"note": 0, "velocity": 0, "duration": 586}, {"note": 81, "velocity": 85, "duration": 261}, {"note": 86, "velocity": 71, "duration": 118}, {"note": 0, "velocity": 0, "duration": 122}, {"note": 86, "velocity": 104, "duration": 144}, {"note": 0, "velocity": 0, "duration": 96}, {"note": 84, "velocity": 68, "duration": 126}, {"note": 81, "velocity": 72, "duration": 109}, {"note": 84, "velocity": 74, "duration": 160}, {"note": 0, "velocity": 0, "duration": 80}, {"note": 88, "velocity": 87, "duration": 155}, {"note": 0, "velocity": 0, "duration": 85}, {"note": 86, "velocity": 77, "duration": 331}, {"note": 0, "velocity": 0, "duration": 149}, {"note": 89, "velocity": 90, "duration": 122}, {"note": 0, "velocity": 0, "duration": 118}, {"note": 89, "velocity": 87, "duration": 58}, {"note": 0, "velocity": 0, "duration": 62}, {"note": 91, "velocity": 74, "duration": 62}, {"note": 89, "velocity": 98, "duration": 140}, {"note": 0, "velocity": 0, "duration": 100}, {"note": 86, "velocity": 85, "duration": 124}, {"note": 0, "velocity": 0, "duration": 116}, {"note": 84, "velocity": 90, "duration": 337}, {"note": 86, "velocity": 87, "duration": 219}, {"note": 81, "velocity": 90, "duration": 245}, {"note": 0, "velocity": 0, "duration": 235}, {"note": 74, "velocity": 71, "duration": 189}, {"note": 79, "velocity": 74, "duration": 158}, {"note": 0, "velocity": 0, "duration": 82}, {"note": 79, "velocity": 104, "duration": 192}, {"note": 79, "velocity": 85, "duration": 125}, {"note": 0, "velocity": 0, "duration": 115}, {"note": 81, "velocity": 74, "duration": 186}, {"note": 84, "velocity": 93, "duration": 161}, {"note": 0, "velocity": 0, "duration": 79}, {"note": 86, "velocity": 104, "duration": 140}, {"note": 0, "velocity": 0, "duration": 100}, {"note": 86, "velocity": 100, "duration": 175}, {"note": 0, "velocity": 0, "duration": 65}, {"note": 89, "velocity": 81, "duration": 142}, {"note": 0, "velocity": 0, "duration": 98}, {"note": 89, "velocity": 71, "duration": 109}, {"note": 91, "velocity": 86, "duration": 70}, {"note": 93, "velocity": 79, "duration": 127}, {"note": 0, "velocity": 0, "duration": 113}, {"note": 93, "velocity": 87, "duration": 175}, {"note": 0, "velocity": 0, "duration": 65}, {"note": 84, "velocity": 98, "duration": 187}, {"note": 0, "velocity": 0, "duration": 173}, {"note": 84, "velocity": 95, "duration": 115}, {"note": 81, "velocity": 71, "duration": 130}, {"note": 0, "velocity": 0, "duration": 110}, {"note": 84, "velocity": 75, "duration": 143}, {"note": 0, "velocity": 0, "duration": 97}, {"note": 86, "velocity": 114, "duration": 960}, {"note": 0, "velocity": 0, "duration": 960}, {"note": 81, "velocity": 85, "duration": 261}, {"note": 86, "velocity": 71, "duration": 118}, {"note": 0, "velocity": 0, "duration": 122}, {"note": 86, "velocity": 104, "duration": 144}, {"note": 0, "velocity": 0, "duration": 96}, {"note": 84, "velocity": 68, "duration": 126}, {"note": 81, "velocity": 72, "duration": 109}, {"note": 84, "velocity": 74, "duration": 160}, {"note": 0, "velocity": 0, "duration": 80}, {"note": 88, "velocity": 87, "duration": 155}, {"note": 0, "velocity": 0, "duration": 85}, {"note": 86, "velocity": 77, "duration": 331}, {"note": 0, "velocity": 0, "duration": 149}, {"note": 89, "velocity": 90, "duration": 122}, {"note": 0, "velocity": 0, "duration": 118}, {"note": 89, "velocity": 87, "duration": 58}, {"note": 0, "velocity": 0, "duration": 62}, {"note": 91, "velocity": 74, "duration": 62}, {"note": 89, "velocity": 98, "duration": 140}, {"note": 0, "velocity": 0, "duration": 100}, {"note": 86, "velocity": 85, "duration": 124}, {"note": 0, "velocity": 0, "duration": 116}, {"note": 84, "velocity": 90, "duration": 337}, {"note": 86, "velocity": 87, "duration": 219}, {"note": 81, "velocity": 90, "duration": 245}, {"note": 0, "velocity": 0, "duration": 235}, {"note": 74, "velocity": 71, "duration": 189}, {"note": 79, "velocity": 74, "duration": 158}, {"note": 0, "velocity": 0, "duration": 82}, {"note": 79, "velocity": 104, "duration": 192}, {"note": 79, "velocity": 85, "duration": 125}, {"note": 0, "velocity": 0, "duration": 115}, {"note": 81, "velocity": 74, "duration": 186}, {"note": 84, "velocity": 93, "duration": 161}, {"note": 0, "velocity": 0, "duration": 79}, {"note": 86, "velocity": 104, "duration": 140}, {"note": 0, "velocity": 0, "duration": 100}, {"note": 86, "velocity": 100, "duration": 175}, {"note": 0, "velocity": 0, "duration": 65}, {"note": 89, "velocity": 81, "duration": 142}, {"note": 0, "velocity": 0, "duration": 98}, {"note": 89, "velocity": 71, "duration": 109}, {"note": 91, "velocity": 86, "duration": 70}, {"note": 93, "velocity": 79, "duration": 127}, {"note": 0, "velocity": 0, "duration": 113}, {"note": 93, "velocity": 87, "duration": 175}, {"note": 0, "velocity": 0, "duration": 65}, {"note": 84, "velocity": 98, "duration": 187}, {"note": 0, "velocity": 0, "duration": 173}, {"note": 84, "velocity": 95, "duration": 115}, {"note": 81, "velocity": 71, "duration": 130}, {"note": 0, "velocity": 0, "duration": 110}, {"note": 84, "velocity": 75, "duration": 143}, {"note": 0, "velocity": 0, "duration": 97}, {"note": 86, "velocity": 114, "duration": 960}, {"note": 0, "velocity": 0, "duration": 960}, {"note": 81, "velocity": 85, "duration": 261}, {"note": 86, "velocity": 71, "duration": 118}, {"note": 0, "velocity": 0, "duration": 122}, {"note": 86, "velocity": 104, "duration": 144}, {"note": 0, "velocity": 0, "duration": 96}, {"note": 84, "velocity": 68, "duration": 126}, {"note": 81, "velocity": 72, "duration": 109}, {"note": 84, "velocity": 74, "duration": 160}, {"note": 0, "velocity": 0, "duration": 80}, {"note": 88, "velocity": 87, "duration": 155}, {"note": 0, "velocity": 0, "duration": 85}, {"note": 86, "velocity": 77, "duration": 331}, {"note": 0, "velocity": 0, "duration": 149}, {"note": 89, "velocity": 90, "duration": 122}, {"note": 0, "velocity": 0, "duration": 118}, {"note": 89, "velocity": 87, "duration": 58}, {"note": 0, "velocity": 0, "duration": 62}, {"note": 91, "velocity": 74, "duration": 62}, {"note": 89, "velocity": 98, "duration": 140}, {"note": 0, "velocity": 0, "duration": 100}, {"note": 86, "velocity": 85, "duration": 124}, {"note": 0, "velocity": 0, "duration": 116}, {"note": 84, "velocity": 90, "duration": 337}, {"note": 86, "velocity": 87, "duration": 219}, {"note": 81, "velocity": 90, "duration": 245}, {"note": 0, "velocity": 0, "duration": 235}, {"note": 74, "velocity": 71, "duration": 189}, {"note": 79, "velocity": 74, "duration": 158}, {"note": 0, "velocity": 0, "duration": 82}, {"note": 79, "velocity": 104, "duration": 192}, {"note": 79, "velocity": 85, "duration": 125}, {"note": 0, "velocity": 0, "duration": 115}, {"note": 81, "velocity": 74, "duration": 186}, {"note": 84, "velocity": 93, "duration": 161}, {"note": 0, "velocity": 0, "duration": 79}, {"note": 86, "velocity": 104, "duration": 140}, {"note": 0, "velocity": 0, "duration": 100}, {"note": 86, "velocity": 100, "duration": 175}, {"note": 0, "velocity": 0, "duration": 65}, {"note": 89, "velocity": 81, "duration": 142}, {"note": 0, "velocity": 0, "duration": 98}, {"note": 89, "velocity": 71, "duration": 109}, {"note": 91, "velocity": 86, "duration": 70}, {"note": 93, "velocity": 79, "duration": 127}, {"note": 0, "velocity": 0, "duration": 113}, {"note": 93, "velocity": 87, "duration": 175}, {"note": 0, "velocity": 0, "duration": 65}, {"note": 84, "velocity": 98, "duration": 187}, {"note": 0, "velocity": 0, "duration": 173}, {"note": 84, "velocity": 95, "duration": 115}, {"note": 81, "velocity": 71, "duration": 130}, {"note": 0, "velocity": 0, "duration": 110}, {"note": 84, "velocity": 75, "duration": 143}, {"note": 0, "velocity": 0, "duration": 97}, {"note": 86, "velocity": 114, "duration": 960}, {"note": 0, "velocity": 0, "duration": 960}, {"note": 81, "velocity": 85, "duration": 261}, {"note": 86, "velocity": 71, "duration": 118}, {"note": 0, "velocity": 0, "duration": 122}, {"note": 86, "velocity": 104, "duration": 144}, {"note": 0, "velocity": 0, "duration": 96}, {"note": 84, "velocity": 68, "duration": 126}, {"note": 81, "velocity": 72, "duration": 109}, {"note": 84, "velocity": 74, "duration": 160}, {"note": 0, "velocity": 0, "duration": 80}, {"note": 88, "velocity": 87, "duration": 155}, {"note": 0, "velocity": 0, "duration": 85}, {"note": 86, "velocity": 77, "duration": 331}, {"note": 0, "velocity": 0, "duration": 149}, {"note": 89, "velocity": 90, "duration": 122}, {"note": 0, "velocity": 0, "duration": 118}, {"note": 89, "velocity": 87, "duration": 58}, {"note": 0, "velocity": 0, "duration": 62}, {"note": 91, "velocity": 74, "duration": 62}, {"note": 89, "velocity": 98, "duration": 140}, {"note": 0, "velocity": 0, "duration": 100}, {"note": 86, "velocity": 85, "duration": 124}, {"note": 0, "velocity": 0, "duration": 116}, {"note": 84, "velocity": 90, "duration": 337}, {"note": 86, "velocity": 87, "duration": 219}, {"note": 81, "velocity": 90, "duration": 245}, {"note": 0, "velocity": 0, "duration": 235}, {"note": 74, "velocity": 71, "duration": 189}, {"note": 79, "velocity": 74, "duration": 158}, {"note": 0, "velocity": 0, "duration": 82}, {"note": 79, "velocity": 104, "duration": 192}, {"note": 79, "velocity": 85, "duration": 125}, {"note": 0, "velocity": 0, "duration": 115}, {"note": 81, "velocity": 74, "duration": 186}, {"note": 84, "velocity": 93, "duration": 161}, {"note": 0, "velocity": 0, "duration": 79}, {"note": 86, "velocity": 104, "duration": 140}, {"note": 0, "velocity": 0, "duration": 100}, {"note": 86, "velocity": 100, "duration": 175}, {"note": 0, "velocity": 0, "duration": 65}, {"note": 89, "velocity": 81, "duration": 142}, {"note": 0, "velocity": 0, "duration": 98}, {"note": 89, "velocity": 71, "duration": 109}, {"note": 91, "velocity": 86, "duration": 70}, {"note": 93, "velocity": 79, "duration": 127}, {"note": 0, "velocity": 0, "duration": 113}, {"note": 93, "velocity": 87, "duration": 175}, {"note": 0, "velocity": 0, "duration": 65}, {"note": 84, "velocity": 98, "duration": 187}, {"note": 0, "velocity": 0, "duration": 173}, {"note": 84, "velocity": 95, "duration": 115}, {"note": 81, "velocity": 71, "duration": 130}, {"note": 0, "velocity": 0, "duration": 110}, {"note": 84, "velocity": 75, "duration": 143}, {"note": 0, "velocity": 0, "duration": 97}, {"note": 86, "velocity": 114, "duration": 960}, {"note": 0, "velocity": 0, "duration": 960}, {"note": 74, "velocity": 79, "duration": 288}, {"note": 79, "velocity": 90, "duration": 178}, {"note": 0, "velocity": 0, "duration": 62}, {"note": 79, "velocity": 87, "duration": 171}, {"note": 0, "velocity": 0, "duration": 69}, {"note": 79, "velocity": 90, "duration": 159}, {"note": 0, "velocity": 0, "duration": 81}, {"note": 81, "velocity": 83, "duration": 257}, {"note": 84, "velocity": 71, "duration": 187}, {"note": 86, "velocity": 77, "duration": 175}, {"note": 0, "velocity": 0, "duration": 65}, {"note": 86, "velocity": 108, "duration": 134}, {"note": 0, "velocity": 0, "duration": 106}, {"note": 89, "velocity": 76, "duration": 239}, {"note": 0, "velocity": 0, "duration": 121}, {"note": 91, "velocity": 74, "duration": 68}, {"note": 93, "velocity": 85, "duration": 163}, {"note": 0, "velocity": 0, "duration": 77}, {"note": 93, "velocity": 85, "duration": 217}, {"note": 0, "velocity": 0, "duration": 143}, {"note": 84, "velocity": 87, "duration": 360}, {"note": 0, "velocity": 0, "duration": 120}, {"note": 84, "velocity": 67, "duration": 230}, {"note": 81, "velocity": 68, "duration": 388}, {"note": 84, "velocity": 72, "duration": 1374}, {"note": 0, "velocity": 0, "duration": 306}, {"note": 86, "velocity": 86, "duration": 1324}]]