[[{"note": 63, "velocity": 103, "duration": 75}, {"note": 66, "velocity": 103, "duration": 107}, {"note": 71, "velocity": 103, "duration": 75}, {"note": 70, "velocity": 103, "duration": 79}, {"note": 68, "velocity": 103, "duration": 166}, {"note": 0, "velocity": 0, "duration": 120}, {"note": 66, "velocity": 103, "duration": 89}, {"note": 68, "velocity": 103, "duration": 136}, {"note": 66, "velocity": 103, "duration": 125}, {"note": 63, "velocity": 104, "duration": 81}, {"note": 61, "velocity": 104, "duration": 59}, {"note": 0, "velocity": 0, "duration": 61}, {"note": 63, "velocity": 104, "duration": 235}, {"note": 0, "velocity": 0, "duration": 245}, {"note": 63, "velocity": 104, "duration": 127}, {"note": 66, "velocity": 104, "duration": 60}, {"note": 71, "velocity": 104, "duration": 74}, {"note": 70, "velocity": 104, "duration": 68}, {"note": 68, "velocity": 104, "duration": 257}, {"note": 0, "velocity": 0, "duration": 103}, {"note": 66, "velocity": 104, "duration": 82}, {"note": 68, "velocity": 104, "duration": 93}, {"note": 70, "velocity": 104, "duration": 57}, {"note": 0, "velocity": 0, "duration": 63}, {"note": 71, "velocity": 104, "duration": 44}, {"note": 0, "velocity": 0, "duration": 76}, {"note": 73, "velocity": 104, "duration": 50}, {"note": 0, "velocity": 0, "duration": 70}, {"note": 75, "velocity": 104, "duration": 283}, {"note": 0, "velocity": 0, "duration": 197}, {"note": 75, "velocity": 104, "duration": 75}, {"note": 73, "velocity": 104, "duration": 55}, {"note": 0, "velocity": 0, "duration": 65}, {"note": 73, "velocity": 104, "duration": 82}, {"note": 71, "velocity": 104, "duration": 55}, {"note": 0, "velocity": 0, "duration": 65}, {"note": 73, "velocity": 104, "duration": 249}, {"note": 0, "velocity": 0, "duration": 111}, {"note": 75, "velocity": 104, "duration": 16}, {"note": 73, "velocity": 104, "duration": 137}, {"note": 71, "velocity": 104, "duration": 64}, {"note": 68, "velocity": 104, "duration": 74}, {"note": 68, "velocity": 104, "duration": 54}, {"note": 0, "velocity": 0, "duration": 66}, {"note": 66, "velocity": 104, "duration": 278}, {"note": 0, "velocity": 0, "duration": 202}, {"note": 66, "velocity": 104, "duration": 111}, {"note": 63, "velocity": 104, "duration": 99}, {"note": 66, "velocity": 104, "duration": 65}, {"note": 68, "velocity": 104, "duration": 55}, {"note": 0, "velocity": 0, "duration": 65}, {"note": 70, "velocity": 104, "duration": 225}, {"note": 0, "velocity": 0, "duration": 135}, {"note": 71, "velocity": 103, "duration": 90}, {"note": 70, "velocity": 103, "duration": 103}, {"note": 66, "velocity": 103, "duration": 135}, {"note": 63, "velocity": 102, "duration": 132}, {"note": 66, "velocity": 102, "duration": 85}, {"note": 68, "velocity": 102, "duration": 240}, {"note": 0, "velocity": 0, "duration": 240}, {"note": 63, "velocity": 101, "duration": 75}, {"note": 66, "velocity": 101, "duration": 107}, {"note": 71, "velocity": 101, "duration": 75}, {"note": 70, "velocity": 101, "duration": 79}, {"note": 68, "velocity": 101, "duration": 166}, {"note": 0, "velocity": 0, "duration": 194}, {"note": 66, "velocity": 101, "duration": 89}, {"note": 68, "velocity": 101, "duration": 136}, {"note": 66, "velocity": 101, "duration": 125}, {"note": 63, "velocity": 101, "duration": 81}, {"note": 61, "velocity": 101, "duration": 59}, {"note": 0, "velocity": 0, "duration": 61}, {"note": 63, "velocity": 101, "duration": 235}, {"note": 63, "velocity": 100, "duration": 127}, {"note": 66, "velocity": 100, "duration": 60}, {"note": 71, "velocity": 100, "duration": 74}, {"note": 70, "velocity": 99, "duration": 68}, {"note": 68, "velocity": 99, "duration": 257}, {"note": 0, "velocity": 0, "duration": 103}, {"note": 66, "velocity": 99, "duration": 82}, {"note": 68, "velocity": 99, "duration": 93}, {"note": 70, "velocity": 99, "duration": 57}, {"note": 0, "velocity": 0, "duration": 63}, {"note": 71, "velocity": 99, "duration": 44}, {"note": 0, "velocity": 0, "duration": 76}, {"note": 73, "velocity": 99, "duration": 50}, {"note": 75, "velocity": 99, "duration": 283}, {"note": 0, "velocity": 0, "duration": 197}, {"note": 75, "velocity": 99, "duration": 75}, {"note": 73, "velocity": 99, "duration": 55}, {"note": 0, "velocity": 0, "duration": 65}, {"note": 73, "velocity": 99, "duration": 82}, {"note": 71, "velocity": 98, "duration": 55}, {"note": 0, "velocity": 0, "duration": 65}, {"note": 73, "velocity": 98, "duration": 249}, {"note": 0, "velocity": 0, "duration": 111}, {"note": 75, "velocity": 97, "duration": 136}, {"note": 73, "velocity": 97, "duration": 137}, {"note": 71, "velocity": 97, "duration": 64}, {"note": 68, "velocity": 97, "duration": 74}, {"note": 68, "velocity": 96, "duration": 54}, {"note": 0, "velocity": 0, "duration": 66}, {"note": 66, "velocity": 96, "duration": 278}, {"note": 66, "velocity": 96, "duration": 111}, {"note": 63, "velocity": 96, "duration": 99}, {"note": 66, "velocity": 96, "duration": 65}, {"note": 68, "velocity": 96, "duration": 55}, {"note": 0, "velocity": 0, "duration": 65}, {"note": 70, "velocity": 96, "duration": 225}, {"note": 0, "velocity": 0, "duration": 135}, {"note": 71, "velocity": 95, "duration": 90}, {"note": 70, "velocity": 95, "duration": 103}, {"note": 66, "velocity": 95, "duration": 135}, {"note": 63, "velocity": 95, "duration": 132}, {"note": 66, "velocity": 95, "duration": 85}, {"note": 68, "velocity": 95, "duration": 480}, {"note": 73, "velocity": 94, "duration": 132}, {"note": 71, "velocity": 94, "duration": 93}, {"note": 73, "velocity": 94, "duration": 134}, {"note": 71, "velocity": 94, "duration": 78}, {"note": 73, "velocity": 94, "duration": 139}, {"note": 0, "velocity": 0, "duration": 101}, {"note": 71, "velocity": 94, "duration": 80}, {"note": 73, "velocity": 94, "duration": 91}, {"note": 0, "velocity": 0, "duration": 149}, {"note": 71, "velocity": 94, "duration": 100}, {"note": 73, "velocity": 94, "duration": 116}, {"note": 71, "velocity": 94, "duration": 89}, {"note": 73, "velocity": 94, "duration": 137}, {"note": 0, "velocity": 0, "duration": 103}, {"note": 71, "velocity": 94, "duration": 91}, {"note": 73, "velocity": 94, "duration": 56}, {"note": 75, "velocity": 94, "duration": 164}, {"note": 0, "velocity": 0, "duration": 76}, {"note": 78, "velocity": 94, "duration": 61}, {"note": 80, "velocity": 94, "duration": 247}, {"note": 0, "velocity": 0, "duration": 113}, {"note": 78, "velocity": 94, "duration": 54}, {"note": 0, "velocity": 0, "duration": 66}, {"note": 75, "velocity": 94, "duration": 756}, {"note": 73, "velocity": 94, "duration": 127}, {"note": 71, "velocity": 94, "duration": 71}, {"note": 73, "velocity": 94, "duration": 142}, {"note": 71, "velocity": 94, "duration": 76}, {"note": 73, "velocity": 94, "duration": 150}, {"note": 0, "velocity": 0, "duration": 90}, {"note": 71, "velocity": 94, "duration": 63}, {"note": 73, "velocity": 94, "duration": 17}, {"note": 0, "velocity": 0, "duration": 103}, {"note": 71, "velocity": 94, "duration": 92}, {"note": 73, "velocity": 94, "duration": 84}, {"note": 71, "velocity": 94, "duration": 75}, {"note": 73, "velocity": 94, "duration": 126}, {"note": 0, "velocity": 0, "duration": 114}, {"note": 71, "velocity": 94, "duration": 67}, {"note": 73, "velocity": 94, "duration": 49}, {"note": 0, "velocity": 0, "duration": 71}, {"note": 75, "velocity": 94, "duration": 120}, {"note": 0, "velocity": 0, "duration": 120}, {"note": 78, "velocity": 94, "duration": 56}, {"note": 0, "velocity": 0, "duration": 64}, {"note": 73, "velocity": 94, "duration": 298}, {"note": 0, "velocity": 0, "duration": 62}, {"note": 78, "velocity": 94, "duration": 212}, {"note": 75, "velocity": 94, "duration": 495}, {"note": 76, "velocity": 94, "duration": 132}, {"note": 75, "velocity": 94, "duration": 91}, {"note": 76, "velocity": 94, "duration": 130}, {"note": 75, "velocity": 94, "duration": 66}, {"note": 76, "velocity": 94, "duration": 166}, {"note": 0, "velocity": 0, "duration": 74}, {"note": 78, "velocity": 94, "duration": 65}, {"note": 75, "velocity": 95, "duration": 195}, {"note": 73, "velocity": 96, "duration": 246}, {"note": 0, "velocity": 0, "duration": 234}, {"note": 71, "velocity": 96, "duration": 105}, {"note": 73, "velocity": 96, "duration": 91}, {"note": 75, "velocity": 96, "duration": 52}, {"note": 0, "velocity": 0, "duration": 68}, {"note": 80, "velocity": 101, "duration": 177}, {"note": 0, "velocity": 0, "duration": 63}, {"note": 78, "velocity": 101, "duration": 104}, {"note": 0, "velocity": 0, "duration": 136}, {"note": 75, "velocity": 101, "duration": 183}, {"note": 78, "velocity": 101, "duration": 61}, {"note": 73, "velocity": 101, "duration": 53}, {"note": 0, "velocity": 0, "duration": 67}, {"note": 71, "velocity": 101, "duration": 604}, {"note": 0, "velocity": 0, "duration": 240}, {"note": 71, "velocity": 101, "duration": 54}, {"note": 0, "velocity": 0, "duration": 66}, {"note": 71, "velocity": 101, "duration": 55}, {"note": 0, "velocity": 0, "duration": 65}, {"note": 71, "velocity": 101, "duration": 180}, {"note": 0, "velocity": 0, "duration": 180}, {"note": 71, "velocity": 101, "duration": 62}, {"note": 75, "velocity": 101, "duration": 200}, {"note": 70, "velocity": 100, "duration": 161}, {"note": 0, "velocity": 0, "duration": 79}, {"note": 70, "velocity": 100, "duration": 160}, {"note": 0, "velocity": 0, "duration": 80}, {"note": 73, "velocity": 100, "duration": 57}, {"note": 0, "velocity": 0, "duration": 63}, {"note": 73, "velocity": 100, "duration": 373}, {"note": 0, "velocity": 0, "duration": 107}, {"note": 71, "velocity": 99, "duration": 648}, {"note": 63, "velocity": 99, "duration": 75}, {"note": 66, "velocity": 99, "duration": 107}, {"note": 71, "velocity": 99, "duration": 75}, {"note": 70, "velocity": 99, "duration": 79}, {"note": 68, "velocity": 99, "duration": 166}, {"note": 0, "velocity": 0, "duration": 194}, {"note": 66, "velocity": 99, "duration": 89}, {"note": 68, "velocity": 99, "duration": 136}, {"note": 66, "velocity": 99, "duration": 125}, {"note": 63, "velocity": 99, "duration": 81}, {"note": 61, "velocity": 99, "duration": 59}, {"note": 0, "velocity": 0, "duration": 61}, {"note": 63, "velocity": 99, "duration": 235}, {"note": 0, "velocity": 0, "duration": 245}, {"note": 63, "velocity": 99, "duration": 127}, {"note": 66, "velocity": 99, "duration": 60}, {"note": 71, "velocity": 99, "duration": 74}, {"note": 70, "velocity": 98, "duration": 68}, {"note": 68, "velocity": 97, "duration": 257}, {"note": 0, "velocity": 0, "duration": 103}, {"note": 66, "velocity": 97, "duration": 82}, {"note": 68, "velocity": 97, "duration": 93}, {"note": 70, "velocity": 97, "duration": 57}, {"note": 0, "velocity": 0, "duration": 63}, {"note": 71, "velocity": 97, "duration": 44}, {"note": 0, "velocity": 0, "duration": 76}, {"note": 73, "velocity": 97, "duration": 50}, {"note": 75, "velocity": 97, "duration": 283}, {"note": 0, "velocity": 0, "duration": 197}, {"note": 75, "velocity": 97, "duration": 75}, {"note": 73, "velocity": 97, "duration": 55}, {"note": 0, "velocity": 0, "duration": 65}, {"note": 73, "velocity": 97, "duration": 82}, {"note": 71, "velocity": 97, "duration": 55}, {"note": 0, "velocity": 0, "duration": 65}, {"note": 73, "velocity": 97, "duration": 249}, {"note": 0, "velocity": 0, "duration": 111}, {"note": 75, "velocity": 97, "duration": 136}, {"note": 73, "velocity": 97, "duration": 137}, {"note": 71, "velocity": 97, "duration": 64}, {"note": 68, "velocity": 97, "duration": 74}, {"note": 68, "velocity": 97, "duration": 54}, {"note": 0, "velocity": 0, "duration": 66}, {"note": 66, "velocity": 97, "duration": 278}, {"note": 0, "velocity": 0, "duration": 202}, {"note": 66, "velocity": 96, "duration": 111}, {"note": 63, "velocity": 96, "duration": 59}, {"note": 66, "velocity": 96, "duration": 65}, {"note": 68, "velocity": 96, "duration": 55}, {"note": 0, "velocity": 0, "duration": 65}, {"note": 70, "velocity": 96, "duration": 225}, {"note": 0, "velocity": 0, "duration": 135}, {"note": 71, "velocity": 96, "duration": 90}, {"note": 70, "velocity": 96, "duration": 103}, {"note": 66, "velocity": 95, "duration": 135}, {"note": 63, "velocity": 95, "duration": 132}, {"note": 66, "velocity": 95, "duration": 85}, {"note": 68, "velocity": 95, "duration": 1040}, {"note": 0, "velocity": 0, "duration": 1440}, {"note": 63, "velocity": 96, "duration": 75}, {"note": 66, "velocity": 96, "duration": 107}, {"note": 71, "velocity": 96, "duration": 75}, {"note": 70, "velocity": 96, "duration": 79}, {"note": 68, "velocity": 96, "duration": 166}, {"note": 0, "velocity": 0, "duration": 194}, {"note": 66, "velocity": 96, "duration": 89}, {"note": 68, "velocity": 96, "duration": 136}, {"note": 66, "velocity": 96, "duration": 125}, {"note": 63, "velocity": 96, "duration": 81}, {"note": 61, "velocity": 96, "duration": 59}, {"note": 63, "velocity": 96, "duration": 235}, {"note": 0, "velocity": 0, "duration": 245}, {"note": 63, "velocity": 96, "duration": 127}, {"note": 66, "velocity": 96, "duration": 60}, {"note": 71, "velocity": 96, "duration": 74}, {"note": 70, "velocity": 96, "duration": 68}, {"note": 68, "velocity": 96, "duration": 257}, {"note": 0, "velocity": 0, "duration": 103}, {"note": 66, "velocity": 96, "duration": 82}, {"note": 68, "velocity": 96, "duration": 93}, {"note": 70, "velocity": 96, "duration": 57}, {"note": 0, "velocity": 0, "duration": 63}, {"note": 71, "velocity": 96, "duration": 44}, {"note": 0, "velocity": 0, "duration": 76}, {"note": 73, "velocity": 96, "duration": 50}, {"note": 75, "velocity": 96, "duration": 283}, {"note": 0, "velocity": 0, "duration": 197}, {"note": 75, "velocity": 96, "duration": 75}, {"note": 73, "velocity": 96, "duration": 55}, {"note": 0, "velocity": 0, "duration": 65}, {"note": 73, "velocity": 96, "duration": 82}, {"note": 71, "velocity": 96, "duration": 55}, {"note": 0, "velocity": 0, "duration": 65}, {"note": 73, "velocity": 96, "duration": 249}, {"note": 0, "velocity": 0, "duration": 111}, {"note": 75, "velocity": 96, "duration": 136}, {"note": 73, "velocity": 96, "duration": 137}, {"note": 71, "velocity": 96, "duration": 64}, {"note": 68, "velocity": 96, "duration": 74}, {"note": 68, "velocity": 96, "duration": 54}, {"note": 66, "velocity": 96, "duration": 278}, {"note": 0, "velocity": 0, "duration": 202}, {"note": 66, "velocity": 95, "duration": 111}, {"note": 63, "velocity": 95, "duration": 99}, {"note": 66, "velocity": 95, "duration": 65}, {"note": 68, "velocity": 95, "duration": 55}, {"note": 70, "velocity": 95, "duration": 225}, {"note": 0, "velocity": 0, "duration": 135}, {"note": 71, "velocity": 95, "duration": 90}, {"note": 70, "velocity": 94, "duration": 103}, {"note": 66, "velocity": 95, "duration": 135}, {"note": 63, "velocity": 95, "duration": 132}, {"note": 66, "velocity": 95, "duration": 85}, {"note": 68, "velocity": 94, "duration": 240}, {"note": 63, "velocity": 95, "duration": 75}, {"note": 66, "velocity": 94, "duration": 107}, {"note": 71, "velocity": 94, "duration": 75}, {"note": 70, "velocity": 94, "duration": 79}, {"note": 68, "velocity": 94, "duration": 166}, {"note": 0, "velocity": 0, "duration": 194}, {"note": 66, "velocity": 94, "duration": 89}, {"note": 68, "velocity": 94, "duration": 136}, {"note": 66, "velocity": 93, "duration": 125}, {"note": 63, "velocity": 93, "duration": 81}, {"note": 61, "velocity": 93, "duration": 59}, {"note": 0, "velocity": 0, "duration": 61}, {"note": 63, "velocity": 93, "duration": 235}, {"note": 0, "velocity": 0, "duration": 245}, {"note": 63, "velocity": 93, "duration": 127}, {"note": 66, "velocity": 93, "duration": 60}, {"note": 71, "velocity": 93, "duration": 74}, {"note": 70, "velocity": 93, "duration": 68}, {"note": 68, "velocity": 93, "duration": 257}, {"note": 0, "velocity": 0, "duration": 103}, {"note": 66, "velocity": 93, "duration": 82}, {"note": 68, "velocity": 92, "duration": 93}, {"note": 70, "velocity": 91, "duration": 57}, {"note": 0, "velocity": 0, "duration": 63}, {"note": 71, "velocity": 91, "duration": 44}, {"note": 0, "velocity": 0, "duration": 76}, {"note": 73, "velocity": 91, "duration": 50}, {"note": 0, "velocity": 0, "duration": 70}, {"note": 75, "velocity": 91, "duration": 283}, {"note": 0, "velocity": 0, "duration": 197}, {"note": 75, "velocity": 91, "duration": 75}, {"note": 73, "velocity": 91, "duration": 55}, {"note": 0, "velocity": 0, "duration": 65}, {"note": 73, "velocity": 91, "duration": 82}, {"note": 71, "velocity": 91, "duration": 55}, {"note": 0, "velocity": 0, "duration": 65}, {"note": 73, "velocity": 91, "duration": 249}, {"note": 0, "velocity": 0, "duration": 111}, {"note": 75, "velocity": 91, "duration": 136}, {"note": 73, "velocity": 91, "duration": 137}, {"note": 71, "velocity": 91, "duration": 64}, {"note": 68, "velocity": 91, "duration": 74}, {"note": 68, "velocity": 91, "duration": 54}, {"note": 0, "velocity": 0, "duration": 66}, {"note": 66, "velocity": 91, "duration": 278}, {"note": 0, "velocity": 0, "duration": 202}, {"note": 66, "velocity": 91, "duration": 111}, {"note": 63, "velocity": 91, "duration": 99}, {"note": 66, "velocity": 91, "duration": 65}, {"note": 68, "velocity": 91, "duration": 55}, {"note": 0, "velocity": 0, "duration": 65}, {"note": 70, "velocity": 91, "duration": 225}, {"note": 0, "velocity": 0, "duration": 135}, {"note": 71, "velocity": 91, "duration": 90}, {"note": 70, "velocity": 91, "duration": 103}, {"note": 66, "velocity": 91, "duration": 135}, {"note": 63, "velocity": 91, "duration": 132}, {"note": 66, "velocity": 92, "duration": 85}, {"note": 68, "velocity": 92, "duration": 960}, {"note": 0, "velocity": 0, "duration": 480}, {"note": 73, "velocity": 92, "duration": 132}, {"note": 71, "velocity": 92, "duration": 93}, {"note": 73, "velocity": 92, "duration": 134}, {"note": 71, "velocity": 92, "duration": 78}, {"note": 73, "velocity": 92, "duration": 139}, {"note": 0, "velocity": 0, "duration": 101}, {"note": 71, "velocity": 92, "duration": 80}, {"note": 73, "velocity": 92, "duration": 91}, {"note": 0, "velocity": 0, "duration": 149}, {"note": 71, "velocity": 92, "duration": 100}, {"note": 73, "velocity": 92, "duration": 116}, {"note": 71, "velocity": 92, "duration": 89}, {"note": 73, "velocity": 92, "duration": 137}, {"note": 0, "velocity": 0, "duration": 103}, {"note": 71, "velocity": 92, "duration": 91}, {"note": 73, "velocity": 92, "duration": 56}, {"note": 0, "velocity": 0, "duration": 64}, {"note": 75, "velocity": 92, "duration": 164}, {"note": 0, "velocity": 0, "duration": 76}, {"note": 78, "velocity": 92, "duration": 61}, {"note": 80, "velocity": 92, "duration": 247}, {"note": 0, "velocity": 0, "duration": 113}, {"note": 78, "velocity": 93, "duration": 54}, {"note": 0, "velocity": 0, "duration": 66}, {"note": 75, "velocity": 93, "duration": 156}, {"note": 0, "velocity": 0, "duration": 324}, {"note": 73, "velocity": 93, "duration": 127}, {"note": 71, "velocity": 93, "duration": 71}, {"note": 73, "velocity": 93, "duration": 142}, {"note": 71, "velocity": 93, "duration": 76}, {"note": 73, "velocity": 93, "duration": 150}, {"note": 0, "velocity": 0, "duration": 90}, {"note": 71, "velocity": 93, "duration": 63}, {"note": 73, "velocity": 93, "duration": 137}, {"note": 0, "velocity": 0, "duration": 103}, {"note": 71, "velocity": 93, "duration": 92}, {"note": 73, "velocity": 93, "duration": 84}, {"note": 71, "velocity": 93, "duration": 75}, {"note": 73, "velocity": 93, "duration": 126}, {"note": 0, "velocity": 0, "duration": 114}, {"note": 71, "velocity": 93, "duration": 67}, {"note": 73, "velocity": 93, "duration": 49}, {"note": 0, "velocity": 0, "duration": 71}, {"note": 75, "velocity": 93, "duration": 120}, {"note": 0, "velocity": 0, "duration": 120}, {"note": 78, "velocity": 93, "duration": 56}, {"note": 0, "velocity": 0, "duration": 64}, {"note": 73, "velocity": 93, "duration": 298}, {"note": 0, "velocity": 0, "duration": 62}, {"note": 78, "velocity": 93, "duration": 212}, {"note": 75, "velocity": 93, "duration": 495}, {"note": 0, "velocity": 0, "duration": 465}, {"note": 76, "velocity": 93, "duration": 132}, {"note": 75, "velocity": 93, "duration": 91}, {"note": 76, "velocity": 93, "duration": 130}, {"note": 75, "velocity": 93, "duration": 66}, {"note": 76, "velocity": 93, "duration": 166}, {"note": 0, "velocity": 0, "duration": 74}, {"note": 78, "velocity": 93, "duration": 65}, {"note": 75, "velocity": 93, "duration": 75}, {"note": 73, "velocity": 93, "duration": 246}, {"note": 0, "velocity": 0, "duration": 234}, {"note": 71, "velocity": 93, "duration": 105}, {"note": 73, "velocity": 92, "duration": 91}, {"note": 75, "velocity": 93, "duration": 52}, {"note": 0, "velocity": 0, "duration": 68}, {"note": 80, "velocity": 92, "duration": 177}, {"note": 0, "velocity": 0, "duration": 63}, {"note": 78, "velocity": 93, "duration": 104}, {"note": 0, "velocity": 0, "duration": 136}, {"note": 75, "velocity": 92, "duration": 183}, {"note": 78, "velocity": 92, "duration": 61}, {"note": 73, "velocity": 92, "duration": 53}, {"note": 0, "velocity": 0, "duration": 67}, {"note": 71, "velocity": 92, "duration": 604}, {"note": 0, "velocity": 0, "duration": 240}, {"note": 71, "velocity": 92, "duration": 54}, {"note": 0, "velocity": 0, "duration": 66}, {"note": 71, "velocity": 92, "duration": 55}, {"note": 0, "velocity": 0, "duration": 65}, {"note": 71, "velocity": 92, "duration": 180}, {"note": 0, "velocity": 0, "duration": 180}, {"note": 71, "velocity": 92, "duration": 62}, {"note": 75, "velocity": 92, "duration": 200}, {"note": 70, "velocity": 92, "duration": 161}, {"note": 70, "velocity": 92, "duration": 160}, {"note": 0, "velocity": 0, "duration": 80}, {"note": 73, "velocity": 92, "duration": 57}, {"note": 0, "velocity": 0, "duration": 63}, {"note": 73, "velocity": 92, "duration": 373}, {"note": 0, "velocity": 0, "duration": 107}, {"note": 71, "velocity": 92, "duration": 648}, {"note": 73, "velocity": 92, "duration": 128}, {"note": 71, "velocity": 92, "duration": 77}, {"note": 73, "velocity": 92, "duration": 114}, {"note": 71, "velocity": 92, "duration": 90}, {"note": 73, "velocity": 92, "duration": 206}, {"note": 71, "velocity": 92, "duration": 62}, {"note": 73, "velocity": 92, "duration": 5}, {"note": 0, "velocity": 0, "duration": 115}, {"note": 71, "velocity": 92, "duration": 64}, {"note": 73, "velocity": 92, "duration": 64}, {"note": 71, "velocity": 92, "duration": 69}, {"note": 73, "velocity": 92, "duration": 134}, {"note": 0, "velocity": 0, "duration": 106}, {"note": 71, "velocity": 92, "duration": 70}, {"note": 73, "velocity": 92, "duration": 54}, {"note": 0, "velocity": 0, "duration": 66}, {"note": 75, "velocity": 92, "duration": 162}, {"note": 0, "velocity": 0, "duration": 78}, {"note": 78, "velocity": 92, "duration": 116}, {"note": 0, "velocity": 0, "duration": 124}, {"note": 80, "velocity": 92, "duration": 165}, {"note": 0, "velocity": 0, "duration": 75}, {"note": 78, "velocity": 93, "duration": 122}, {"note": 0, "velocity": 0, "duration": 118}, {"note": 75, "velocity": 94, "duration": 164}, {"note": 0, "velocity": 0, "duration": 796}, {"note": 73, "velocity": 94, "duration": 132}, {"note": 71, "velocity": 94, "duration": 94}, {"note": 73, "velocity": 94, "duration": 135}, {"note": 71, "velocity": 94, "duration": 89}, {"note": 73, "velocity": 94, "duration": 154}, {"note": 0, "velocity": 0, "duration": 86}, {"note": 71, "velocity": 94, "duration": 74}, {"note": 73, "velocity": 94, "duration": 66}, {"note": 0, "velocity": 0, "duration": 174}, {"note": 71, "velocity": 94, "duration": 61}, {"note": 73, "velocity": 94, "duration": 62}, {"note": 71, "velocity": 94, "duration": 57}, {"note": 0, "velocity": 0, "duration": 63}, {"note": 73, "velocity": 94, "duration": 93}, {"note": 0, "velocity": 0, "duration": 147}, {"note": 71, "velocity": 94, "duration": 116}, {"note": 73, "velocity": 94, "duration": 84}, {"note": 75, "velocity": 94, "duration": 117}, {"note": 0, "velocity": 0, "duration": 123}, {"note": 78, "velocity": 94, "duration": 60}, {"note": 73, "velocity": 94, "duration": 283}, {"note": 78, "velocity": 94, "duration": 77}, {"note": 0, "velocity": 0, "duration": 163}, {"note": 75, "velocity": 95, "duration": 284}, {"note": 0, "velocity": 0, "duration": 676}, {"note": 76, "velocity": 95, "duration": 135}, {"note": 75, "velocity": 95, "duration": 104}, {"note": 76, "velocity": 95, "duration": 134}, {"note": 75, "velocity": 95, "duration": 88}, {"note": 76, "velocity": 95, "duration": 177}, {"note": 0, "velocity": 0, "duration": 63}, {"note": 78, "velocity": 95, "duration": 65}, {"note": 75, "velocity": 95, "duration": 236}, {"note": 73, "velocity": 95, "duration": 455}, {"note": 71, "velocity": 95, "duration": 108}, {"note": 73, "velocity": 95, "duration": 129}, {"note": 75, "velocity": 95, "duration": 54}, {"note": 0, "velocity": 0, "duration": 66}, {"note": 80, "velocity": 95, "duration": 186}, {"note": 78, "velocity": 96, "duration": 185}, {"note": 75, "velocity": 97, "duration": 189}, {"note": 78, "velocity": 97, "duration": 88}, {"note": 73, "velocity": 97, "duration": 128}, {"note": 0, "velocity": 0, "duration": 112}, {"note": 71, "velocity": 97, "duration": 328}, {"note": 0, "velocity": 0, "duration": 240}, {"note": 71, "velocity": 98, "duration": 47}, {"note": 0, "velocity": 0, "duration": 73}, {"note": 71, "velocity": 98, "duration": 49}, {"note": 0, "velocity": 0, "duration": 71}, {"note": 71, "velocity": 98, "duration": 228}, {"note": 0, "velocity": 0, "duration": 132}, {"note": 71, "velocity": 98, "duration": 57}, {"note": 0, "velocity": 0, "duration": 63}, {"note": 75, "velocity": 98, "duration": 138}, {"note": 0, "velocity": 0, "duration": 102}, {"note": 70, "velocity": 98, "duration": 153}, {"note": 0, "velocity": 0, "duration": 87}, {"note": 70, "velocity": 98, "duration": 178}, {"note": 0, "velocity": 0, "duration": 118}, {"note": 73, "velocity": 98, "duration": 14}, {"note": 73, "velocity": 98, "duration": 268}, {"note": 0, "velocity": 0, "duration": 92}, {"note": 71, "velocity": 98, "duration": 284}, {"note": 0, "velocity": 0, "duration": 196}, {"note": 63, "velocity": 98, "duration": 75}, {"note": 66, "velocity": 98, "duration": 107}, {"note": 71, "velocity": 98, "duration": 75}, {"note": 70, "velocity": 98, "duration": 79}, {"note": 68, "velocity": 98, "duration": 166}, {"note": 0, "velocity": 0, "duration": 194}, {"note": 66, "velocity": 98, "duration": 89}, {"note": 68, "velocity": 98, "duration": 136}, {"note": 66, "velocity": 98, "duration": 125}, {"note": 63, "velocity": 98, "duration": 81}, {"note": 61, "velocity": 98, "duration": 59}, {"note": 63, "velocity": 98, "duration": 235}, {"note": 63, "velocity": 98, "duration": 127}, {"note": 66, "velocity": 98, "duration": 60}, {"note": 71, "velocity": 98, "duration": 74}, {"note": 70, "velocity": 98, "duration": 68}, {"note": 68, "velocity": 98, "duration": 257}, {"note": 0, "velocity": 0, "duration": 103}, {"note": 66, "velocity": 98, "duration": 82}, {"note": 68, "velocity": 98, "duration": 93}, {"note": 70, "velocity": 98, "duration": 57}, {"note": 0, "velocity": 0, "duration": 63}, {"note": 71, "velocity": 98, "duration": 44}, {"note": 0, "velocity": 0, "duration": 76}, {"note": 73, "velocity": 98, "duration": 50}, {"note": 75, "velocity": 98, "duration": 283}, {"note": 0, "velocity": 0, "duration": 197}, {"note": 75, "velocity": 98, "duration": 75}, {"note": 73, "velocity": 98, "duration": 55}, {"note": 0, "velocity": 0, "duration": 65}, {"note": 73, "velocity": 98, "duration": 82}, {"note": 71, "velocity": 98, "duration": 55}, {"note": 73, "velocity": 98, "duration": 249}, {"note": 0, "velocity": 0, "duration": 111}, {"note": 75, "velocity": 98, "duration": 136}, {"note": 73, "velocity": 98, "duration": 137}, {"note": 71, "velocity": 98, "duration": 64}, {"note": 68, "velocity": 98, "duration": 74}, {"note": 68, "velocity": 98, "duration": 54}, {"note": 0, "velocity": 0, "duration": 66}, {"note": 66, "velocity": 98, "duration": 278}, {"note": 0, "velocity": 0, "duration": 202}, {"note": 66, "velocity": 98, "duration": 111}, {"note": 63, "velocity": 98, "duration": 99}, {"note": 66, "velocity": 98, "duration": 65}, {"note": 68, "velocity": 98, "duration": 55}, {"note": 0, "velocity": 0, "duration": 65}, {"note": 70, "velocity": 98, "duration": 225}, {"note": 0, "velocity": 0, "duration": 135}, {"note": 71, "velocity": 98, "duration": 90}, {"note": 70, "velocity": 97, "duration": 103}, {"note": 66, "velocity": 96, "duration": 135}, {"note": 63, "velocity": 96, "duration": 132}, {"note": 66, "velocity": 96, "duration": 85}, {"note": 68, "velocity": 96, "duration": 960}]]