[[{"note": 74, "velocity": 79, "duration": 308}, {"note": 0, "velocity": 0, "duration": 172}, {"note": 77, "velocity": 79, "duration": 100}, {"note": 0, "velocity": 0, "duration": 140}, {"note": 72, "velocity": 79, "duration": 490}, {"note": 0, "velocity": 0, "duration": 230}, {"note": 74, "velocity": 79, "duration": 134}, {"note": 0, "velocity": 0, "duration": 106}, {"note": 70, "velocity": 79, "duration": 1344}, {"note": 0, "velocity": 0, "duration": 336}, {"note": 70, "velocity": 79, "duration": 103}, {"note": 0, "velocity": 0, "duration": 137}, {"note": 69, "velocity": 79, "duration": 88}, {"note": 0, "velocity": 0, "duration": 152}, {"note": 70, "velocity": 79, "duration": 450}, {"note": 0, "velocity": 0, "duration": 270}, {"note": 65, "velocity": 79, "duration": 179}, {"note": 0, "velocity": 0, "duration": 781}, {"note": 75, "velocity": 78, "duration": 86}, {"note": 0, "velocity": 0, "duration": 154}, {"note": 74, "velocity": 78, "duration": 478}, {"note": 0, "velocity": 0, "duration": 242}, {"note": 72, "velocity": 78, "duration": 998}, {"note": 0, "velocity": 0, "duration": 202}, {"note": 74, "velocity": 76, "duration": 251}, {"note": 0, "velocity": 0, "duration": 229}, {"note": 77, "velocity": 76, "duration": 139}, {"note": 0, "velocity": 0, "duration": 101}, {"note": 72, "velocity": 76, "duration": 543}, {"note": 0, "velocity": 0, "duration": 177}, {"note": 74, "velocity": 75, "duration": 183}, {"note": 70, "velocity": 75, "duration": 1336}, {"note": 0, "velocity": 0, "duration": 104}, {"note": 65, "velocity": 75, "duration": 246}, {"note": 70, "velocity": 75, "duration": 181}, {"note": 72, "velocity": 75, "duration": 143}, {"note": 0, "velocity": 0, "duration": 97}, {"note": 70, "velocity": 75, "duration": 565}, {"note": 0, "velocity": 0, "duration": 155}, {"note": 70, "velocity": 75, "duration": 489}, {"note": 0, "velocity": 0, "duration": 231}, {"note": 69, "velocity": 75, "duration": 141}, {"note": 0, "velocity": 0, "duration": 99}, {"note": 70, "velocity": 75, "duration": 1607}, {"note": 0, "velocity": 0, "duration": 553}, {"note": 74, "velocity": 74, "duration": 308}, {"note": 0, "velocity": 0, "duration": 172}, {"note": 77, "velocity": 74, "duration": 286}, {"note": 72, "velocity": 74, "duration": 490}, {"note": 0, "velocity": 0, "duration": 230}, {"note": 77, "velocity": 74, "duration": 134}, {"note": 0, "velocity": 0, "duration": 106}, {"note": 70, "velocity": 74, "duration": 880}, {"note": 0, "velocity": 0, "duration": 800}, {"note": 70, "velocity": 74, "duration": 52}, {"note": 0, "velocity": 0, "duration": 188}, {"note": 70, "velocity": 74, "duration": 179}, {"note": 0, "velocity": 0, "duration": 61}, {"note": 79, "velocity": 74, "duration": 314}, {"note": 0, "velocity": 0, "duration": 166}, {"note": 79, "velocity": 74, "duration": 109}, {"note": 0, "velocity": 0, "duration": 131}, {"note": 79, "velocity": 74, "duration": 503}, {"note": 0, "velocity": 0, "duration": 217}, {"note": 77, "velocity": 74, "duration": 98}, {"note": 0, "velocity": 0, "duration": 142}, {"note": 74, "velocity": 74, "duration": 875}, {"note": 0, "velocity": 0, "duration": 1285}, {"note": 74, "velocity": 74, "duration": 309}, {"note": 0, "velocity": 0, "duration": 171}, {"note": 77, "velocity": 74, "duration": 107}, {"note": 0, "velocity": 0, "duration": 133}, {"note": 72, "velocity": 74, "duration": 528}, {"note": 0, "velocity": 0, "duration": 192}, {"note": 74, "velocity": 74, "duration": 158}, {"note": 0, "velocity": 0, "duration": 82}, {"note": 70, "velocity": 74, "duration": 720}, {"note": 0, "velocity": 0, "duration": 240}, {"note": 70, "velocity": 74, "duration": 105}, {"note": 72, "velocity": 74, "duration": 126}, {"note": 75, "velocity": 74, "duration": 191}, {"note": 74, "velocity": 74, "duration": 102}, {"note": 0, "velocity": 0, "duration": 138}, {"note": 72, "velocity": 74, "duration": 100}, {"note": 0, "velocity": 0, "duration": 140}, {"note": 65, "velocity": 74, "duration": 91}, {"note": 0, "velocity": 0, "duration": 149}, {"note": 67, "velocity": 74, "duration": 340}, {"note": 0, "velocity": 0, "duration": 140}, {"note": 70, "velocity": 74, "duration": 164}, {"note": 0, "velocity": 0, "duration": 76}, {"note": 69, "velocity": 74, "duration": 548}, {"note": 0, "velocity": 0, "duration": 172}, {"note": 70, "velocity": 74, "duration": 91}, {"note": 0, "velocity": 0, "duration": 149}, {"note": 70, "velocity": 74, "duration": 2460}, {"note": 0, "velocity": 0, "duration": 660}, {"note": 74, "velocity": 74, "duration": 238}, {"note": 77, "velocity": 74, "duration": 113}, {"note": 0, "velocity": 0, "duration": 127}, {"note": 82, "velocity": 74, "duration": 105}, {"note": 0, "velocity": 0, "duration": 135}, {"note": 81, "velocity": 74, "duration": 240}, {"note": 82, "velocity": 83, "duration": 343}, {"note": 0, "velocity": 0, "duration": 137}, {"note": 77, "velocity": 70, "duration": 177}, {"note": 0, "velocity": 0, "duration": 63}, {"note": 79, "velocity": 73, "duration": 542}, {"note": 0, "velocity": 0, "duration": 196}, {"note": 77, "velocity": 81, "duration": 183}, {"note": 74, "velocity": 84, "duration": 659}, {"note": 0, "velocity": 0, "duration": 301}, {"note": 74, "velocity": 84, "duration": 117}, {"note": 0, "velocity": 0, "duration": 123}, {"note": 75, "velocity": 83, "duration": 125}, {"note": 0, "velocity": 0, "duration": 115}, {"note": 74, "velocity": 83, "duration": 109}, {"note": 0, "velocity": 0, "duration": 131}, {"note": 72, "velocity": 83, "duration": 129}, {"note": 0, "velocity": 0, "duration": 111}, {"note": 70, "velocity": 83, "duration": 107}, {"note": 0, "velocity": 0, "duration": 133}, {"note": 70, "velocity": 86, "duration": 392}, {"note": 0, "velocity": 0, "duration": 88}, {"note": 77, "velocity": 90, "duration": 104}, {"note": 0, "velocity": 0, "duration": 136}, {"note": 77, "velocity": 89, "duration": 478}, {"note": 0, "velocity": 0, "duration": 242}, {"note": 72, "velocity": 79, "duration": 187}, {"note": 74, "velocity": 83, "duration": 664}, {"note": 0, "velocity": 0, "duration": 536}, {"note": 74, "velocity": 82, "duration": 141}, {"note": 0, "velocity": 0, "duration": 99}, {"note": 77, "velocity": 79, "duration": 107}, {"note": 0, "velocity": 0, "duration": 133}, {"note": 82, "velocity": 79, "duration": 131}, {"note": 0, "velocity": 0, "duration": 109}, {"note": 81, "velocity": 80, "duration": 102}, {"note": 0, "velocity": 0, "duration": 138}, {"note": 82, "velocity": 83, "duration": 424}, {"note": 77, "velocity": 84, "duration": 97}, {"note": 0, "velocity": 0, "duration": 143}, {"note": 79, "velocity": 84, "duration": 524}, {"note": 0, "velocity": 0, "duration": 196}, {"note": 77, "velocity": 80, "duration": 217}, {"note": 74, "velocity": 82, "duration": 855}, {"note": 0, "velocity": 0, "duration": 121}, {"note": 74, "velocity": 82, "duration": 102}, {"note": 0, "velocity": 0, "duration": 138}, {"note": 75, "velocity": 78, "duration": 124}, {"note": 0, "velocity": 0, "duration": 116}, {"note": 74, "velocity": 75, "duration": 125}, {"note": 0, "velocity": 0, "duration": 115}, {"note": 72, "velocity": 73, "duration": 110}, {"note": 0, "velocity": 0, "duration": 130}, {"note": 70, "velocity": 73, "duration": 87}, {"note": 0, "velocity": 0, "duration": 153}, {"note": 70, "velocity": 73, "duration": 480}, {"note": 0, "velocity": 0, "duration": 480}, {"note": 69, "velocity": 79, "duration": 306}, {"note": 0, "velocity": 0, "duration": 174}, {"note": 70, "velocity": 71, "duration": 92}, {"note": 0, "velocity": 0, "duration": 148}, {"note": 70, "velocity": 71, "duration": 2125}, {"note": 0, "velocity": 0, "duration": 17315}, {"note": 62, "velocity": 83, "duration": 308}, {"note": 0, "velocity": 0, "duration": 172}, {"note": 65, "velocity": 75, "duration": 286}, {"note": 60, "velocity": 79, "duration": 490}, {"note": 0, "velocity": 0, "duration": 230}, {"note": 62, "velocity": 87, "duration": 134}, {"note": 0, "velocity": 0, "duration": 106}, {"note": 58, "velocity": 84, "duration": 880}, {"note": 0, "velocity": 0, "duration": 560}, {"note": 58, "velocity": 64, "duration": 176}, {"note": 0, "velocity": 0, "duration": 64}, {"note": 60, "velocity": 70, "duration": 205}, {"note": 58, "velocity": 70, "duration": 278}, {"note": 67, "velocity": 84, "duration": 314}, {"note": 0, "velocity": 0, "duration": 166}, {"note": 67, "velocity": 89, "duration": 109}, {"note": 0, "velocity": 0, "duration": 131}, {"note": 67, "velocity": 84, "duration": 503}, {"note": 0, "velocity": 0, "duration": 217}, {"note": 65, "velocity": 84, "duration": 98}, {"note": 0, "velocity": 0, "duration": 142}, {"note": 62, "velocity": 81, "duration": 875}, {"note": 0, "velocity": 0, "duration": 1285}, {"note": 62, "velocity": 84, "duration": 309}, {"note": 0, "velocity": 0, "duration": 171}, {"note": 65, "velocity": 78, "duration": 107}, {"note": 0, "velocity": 0, "duration": 133}, {"note": 60, "velocity": 78, "duration": 528}, {"note": 0, "velocity": 0, "duration": 192}, {"note": 62, "velocity": 78, "duration": 158}, {"note": 0, "velocity": 0, "duration": 82}, {"note": 58, "velocity": 87, "duration": 720}, {"note": 0, "velocity": 0, "duration": 240}, {"note": 58, "velocity": 90, "duration": 105}, {"note": 60, "velocity": 90, "duration": 126}, {"note": 63, "velocity": 90, "duration": 191}, {"note": 62, "velocity": 90, "duration": 102}, {"note": 0, "velocity": 0, "duration": 138}, {"note": 60, "velocity": 89, "duration": 100}, {"note": 0, "velocity": 0, "duration": 140}, {"note": 58, "velocity": 78, "duration": 91}, {"note": 0, "velocity": 0, "duration": 149}, {"note": 55, "velocity": 72, "duration": 340}, {"note": 0, "velocity": 0, "duration": 140}, {"note": 58, "velocity": 84, "duration": 164}, {"note": 0, "velocity": 0, "duration": 76}, {"note": 57, "velocity": 84, "duration": 548}, {"note": 0, "velocity": 0, "duration": 172}, {"note": 58, "velocity": 87, "duration": 91}, {"note": 0, "velocity": 0, "duration": 149}, {"note": 58, "velocity": 84, "duration": 720}, {"note": 0, "velocity": 0, "duration": 480}, {"note": 62, "velocity": 91, "duration": 238}, {"note": 65, "velocity": 91, "duration": 113}, {"note": 0, "velocity": 0, "duration": 127}, {"note": 70, "velocity": 91, "duration": 105}, {"note": 0, "velocity": 0, "duration": 135}, {"note": 69, "velocity": 91, "duration": 519}, {"note": 0, "velocity": 0, "duration": 201}, {"note": 65, "velocity": 91, "duration": 177}, {"note": 0, "velocity": 0, "duration": 63}, {"note": 67, "velocity": 91, "duration": 542}, {"note": 0, "velocity": 0, "duration": 178}, {"note": 65, "velocity": 91, "duration": 183}, {"note": 62, "velocity": 91, "duration": 659}, {"note": 0, "velocity": 0, "duration": 301}, {"note": 62, "velocity": 94, "duration": 117}, {"note": 0, "velocity": 0, "duration": 123}, {"note": 63, "velocity": 94, "duration": 125}, {"note": 0, "velocity": 0, "duration": 115}, {"note": 62, "velocity": 94, "duration": 109}, {"note": 0, "velocity": 0, "duration": 131}, {"note": 60, "velocity": 94, "duration": 129}, {"note": 0, "velocity": 0, "duration": 111}, {"note": 58, "velocity": 94, "duration": 107}, {"note": 0, "velocity": 0, "duration": 133}, {"note": 58, "velocity": 94, "duration": 392}, {"note": 0, "velocity": 0, "duration": 88}, {"note": 65, "velocity": 94, "duration": 104}, {"note": 0, "velocity": 0, "duration": 136}, {"note": 65, "velocity": 94, "duration": 478}, {"note": 0, "velocity": 0, "duration": 242}, {"note": 60, "velocity": 94, "duration": 187}, {"note": 62, "velocity": 94, "duration": 664}, {"note": 0, "velocity": 0, "duration": 536}, {"note": 62, "velocity": 94, "duration": 141}, {"note": 0, "velocity": 0, "duration": 99}, {"note": 65, "velocity": 95, "duration": 107}, {"note": 0, "velocity": 0, "duration": 133}, {"note": 70, "velocity": 95, "duration": 131}, {"note": 0, "velocity": 0, "duration": 109}, {"note": 69, "velocity": 95, "duration": 102}, {"note": 0, "velocity": 0, "duration": 138}, {"note": 70, "velocity": 95, "duration": 424}, {"note": 65, "velocity": 95, "duration": 97}, {"note": 0, "velocity": 0, "duration": 143}, {"note": 67, "velocity": 95, "duration": 524}, {"note": 0, "velocity": 0, "duration": 196}, {"note": 65, "velocity": 95, "duration": 327}, {"note": 62, "velocity": 95, "duration": 834}, {"note": 0, "velocity": 0, "duration": 121}, {"note": 62, "velocity": 95, "duration": 102}, {"note": 0, "velocity": 0, "duration": 138}, {"note": 63, "velocity": 95, "duration": 124}, {"note": 0, "velocity": 0, "duration": 116}, {"note": 62, "velocity": 95, "duration": 125}, {"note": 0, "velocity": 0, "duration": 115}, {"note": 60, "velocity": 95, "duration": 110}, {"note": 0, "velocity": 0, "duration": 130}, {"note": 58, "velocity": 95, "duration": 87}, {"note": 0, "velocity": 0, "duration": 153}, {"note": 58, "velocity": 95, "duration": 480}, {"note": 0, "velocity": 0, "duration": 480}, {"note": 57, "velocity": 95, "duration": 306}, {"note": 0, "velocity": 0, "duration": 174}, {"note": 58, "velocity": 95, "duration": 92}, {"note": 0, "velocity": 0, "duration": 148}, {"note": 58, "velocity": 95, "duration": 930}, {"note": 0, "velocity": 0, "duration": 270}, {"note": 62, "velocity": 95, "duration": 238}, {"note": 65, "velocity": 96, "duration": 113}, {"note": 0, "velocity": 0, "duration": 127}, {"note": 70, "velocity": 96, "duration": 105}, {"note": 0, "velocity": 0, "duration": 135}, {"note": 69, "velocity": 96, "duration": 240}, {"note": 70, "velocity": 96, "duration": 255}, {"note": 0, "velocity": 0, "duration": 225}, {"note": 65, "velocity": 96, "duration": 177}, {"note": 0, "velocity": 0, "duration": 63}, {"note": 67, "velocity": 96, "duration": 542}, {"note": 0, "velocity": 0, "duration": 178}, {"note": 65, "velocity": 96, "duration": 183}, {"note": 62, "velocity": 96, "duration": 659}, {"note": 0, "velocity": 0, "duration": 301}, {"note": 62, "velocity": 96, "duration": 117}, {"note": 0, "velocity": 0, "duration": 123}, {"note": 63, "velocity": 96, "duration": 125}, {"note": 0, "velocity": 0, "duration": 115}, {"note": 62, "velocity": 96, "duration": 109}, {"note": 0, "velocity": 0, "duration": 131}, {"note": 60, "velocity": 96, "duration": 129}, {"note": 0, "velocity": 0, "duration": 111}, {"note": 58, "velocity": 96, "duration": 107}, {"note": 0, "velocity": 0, "duration": 133}, {"note": 58, "velocity": 96, "duration": 392}, {"note": 0, "velocity": 0, "duration": 88}, {"note": 65, "velocity": 96, "duration": 104}, {"note": 0, "velocity": 0, "duration": 136}, {"note": 65, "velocity": 96, "duration": 478}, {"note": 0, "velocity": 0, "duration": 242}, {"note": 67, "velocity": 96, "duration": 193}, {"note": 65, "velocity": 96, "duration": 856}, {"note": 0, "velocity": 0, "duration": 344}, {"note": 62, "velocity": 96, "duration": 141}, {"note": 0, "velocity": 0, "duration": 99}, {"note": 65, "velocity": 96, "duration": 107}, {"note": 0, "velocity": 0, "duration": 133}, {"note": 70, "velocity": 96, "duration": 131}, {"note": 0, "velocity": 0, "duration": 109}, {"note": 69, "velocity": 96, "duration": 102}, {"note": 0, "velocity": 0, "duration": 138}, {"note": 70, "velocity": 96, "duration": 424}, {"note": 72, "velocity": 96, "duration": 97}, {"note": 0, "velocity": 0, "duration": 143}, {"note": 72, "velocity": 96, "duration": 459}, {"note": 0, "velocity": 0, "duration": 261}, {"note": 74, "velocity": 96, "duration": 89}, {"note": 0, "velocity": 0, "duration": 151}, {"note": 74, "velocity": 96, "duration": 853}, {"note": 0, "velocity": 0, "duration": 97}, {"note": 74, "velocity": 96, "duration": 102}, {"note": 0, "velocity": 0, "duration": 148}, {"note": 75, "velocity": 96, "duration": 124}, {"note": 0, "velocity": 0, "duration": 116}, {"note": 74, "velocity": 96, "duration": 125}, {"note": 0, "velocity": 0, "duration": 115}, {"note": 72, "velocity": 96, "duration": 110}, {"note": 0, "velocity": 0, "duration": 130}, {"note": 70, "velocity": 96, "duration": 87}, {"note": 0, "velocity": 0, "duration": 153}, {"note": 70, "velocity": 96, "duration": 480}, {"note": 70, "velocity": 96, "duration": 175}, {"note": 0, "velocity": 0, "duration": 65}, {"note": 69, "velocity": 96, "duration": 289}, {"note": 0, "velocity": 0, "duration": 431}, {"note": 70, "velocity": 96, "duration": 92}, {"note": 0, "velocity": 0, "duration": 148}, {"note": 70, "velocity": 96, "duration": 2125}, {"note": 0, "velocity": 0, "duration": 22115}, {"note": 74, "velocity": 101, "duration": 238}, {"note": 77, "velocity": 101, "duration": 113}, {"note": 0, "velocity": 0, "duration": 127}, {"note": 82, "velocity": 103, "duration": 105}, {"note": 0, "velocity": 0, "duration": 135}, {"note": 81, "velocity": 103, "duration": 240}, {"note": 82, "velocity": 93, "duration": 447}, {"note": 77, "velocity": 102, "duration": 177}, {"note": 0, "velocity": 0, "duration": 63}, {"note": 79, "velocity": 102, "duration": 542}, {"note": 0, "velocity": 0, "duration": 178}, {"note": 77, "velocity": 101, "duration": 183}, {"note": 74, "velocity": 101, "duration": 659}, {"note": 0, "velocity": 0, "duration": 301}, {"note": 74, "velocity": 103, "duration": 117}, {"note": 0, "velocity": 0, "duration": 123}, {"note": 75, "velocity": 103, "duration": 125}, {"note": 0, "velocity": 0, "duration": 115}, {"note": 74, "velocity": 103, "duration": 109}, {"note": 0, "velocity": 0, "duration": 131}, {"note": 72, "velocity": 102, "duration": 129}, {"note": 0, "velocity": 0, "duration": 111}, {"note": 70, "velocity": 102, "duration": 107}, {"note": 0, "velocity": 0, "duration": 133}, {"note": 70, "velocity": 102, "duration": 392}, {"note": 0, "velocity": 0, "duration": 88}, {"note": 77, "velocity": 101, "duration": 104}, {"note": 0, "velocity": 0, "duration": 136}, {"note": 77, "velocity": 101, "duration": 478}, {"note": 0, "velocity": 0, "duration": 242}, {"note": 72, "velocity": 103, "duration": 187}, {"note": 74, "velocity": 103, "duration": 664}, {"note": 0, "velocity": 0, "duration": 536}, {"note": 74, "velocity": 102, "duration": 141}, {"note": 0, "velocity": 0, "duration": 99}, {"note": 77, "velocity": 102, "duration": 107}, {"note": 0, "velocity": 0, "duration": 133}, {"note": 82, "velocity": 102, "duration": 131}, {"note": 0, "velocity": 0, "duration": 109}, {"note": 81, "velocity": 101, "duration": 102}, {"note": 0, "velocity": 0, "duration": 138}, {"note": 82, "velocity": 101, "duration": 424}, {"note": 77, "velocity": 101, "duration": 97}, {"note": 0, "velocity": 0, "duration": 143}, {"note": 79, "velocity": 101, "duration": 524}, {"note": 0, "velocity": 0, "duration": 196}, {"note": 77, "velocity": 103, "duration": 327}, {"note": 74, "velocity": 102, "duration": 842}, {"note": 0, "velocity": 0, "duration": 121}, {"note": 74, "velocity": 102, "duration": 102}, {"note": 0, "velocity": 0, "duration": 138}, {"note": 75, "velocity": 102, "duration": 124}, {"note": 0, "velocity": 0, "duration": 116}, {"note": 74, "velocity": 101, "duration": 125}, {"note": 0, "velocity": 0, "duration": 115}, {"note": 72, "velocity": 101, "duration": 110}, {"note": 0, "velocity": 0, "duration": 130}, {"note": 70, "velocity": 101, "duration": 87}, {"note": 0, "velocity": 0, "duration": 153}, {"note": 70, "velocity": 101, "duration": 480}, {"note": 0, "velocity": 0, "duration": 480}, {"note": 69, "velocity": 103, "duration": 306}, {"note": 0, "velocity": 0, "duration": 174}, {"note": 70, "velocity": 102, "duration": 92}, {"note": 0, "velocity": 0, "duration": 148}, {"note": 70, "velocity": 102, "duration": 930}, {"note": 0, "velocity": 0, "duration": 270}, {"note": 74, "velocity": 101, "duration": 238}, {"note": 77, "velocity": 101, "duration": 113}, {"note": 0, "velocity": 0, "duration": 127}, {"note": 82, "velocity": 103, "duration": 105}, {"note": 0, "velocity": 0, "duration": 135}, {"note": 81, "velocity": 103, "duration": 240}, {"note": 82, "velocity": 103, "duration": 255}, {"note": 0, "velocity": 0, "duration": 225}, {"note": 77, "velocity": 102, "duration": 177}, {"note": 0, "velocity": 0, "duration": 63}, {"note": 79, "velocity": 102, "duration": 542}, {"note": 0, "velocity": 0, "duration": 178}, {"note": 77, "velocity": 101, "duration": 183}, {"note": 74, "velocity": 101, "duration": 659}, {"note": 0, "velocity": 0, "duration": 301}, {"note": 74, "velocity": 100, "duration": 117}, {"note": 0, "velocity": 0, "duration": 123}, {"note": 75, "velocity": 100, "duration": 125}, {"note": 0, "velocity": 0, "duration": 115}, {"note": 74, "velocity": 100, "duration": 109}, {"note": 0, "velocity": 0, "duration": 131}, {"note": 72, "velocity": 100, "duration": 129}, {"note": 0, "velocity": 0, "duration": 111}, {"note": 70, "velocity": 100, "duration": 107}, {"note": 0, "velocity": 0, "duration": 133}, {"note": 70, "velocity": 100, "duration": 392}, {"note": 0, "velocity": 0, "duration": 88}, {"note": 77, "velocity": 100, "duration": 104}, {"note": 0, "velocity": 0, "duration": 136}, {"note": 77, "velocity": 100, "duration": 478}, {"note": 0, "velocity": 0, "duration": 242}, {"note": 79, "velocity": 100, "duration": 193}, {"note": 77, "velocity": 100, "duration": 856}, {"note": 0, "velocity": 0, "duration": 344}, {"note": 74, "velocity": 100, "duration": 141}, {"note": 0, "velocity": 0, "duration": 99}, {"note": 77, "velocity": 100, "duration": 107}, {"note": 0, "velocity": 0, "duration": 133}, {"note": 82, "velocity": 100, "duration": 131}, {"note": 0, "velocity": 0, "duration": 109}, {"note": 81, "velocity": 100, "duration": 102}, {"note": 0, "velocity": 0, "duration": 138}, {"note": 82, "velocity": 100, "duration": 424}, {"note": 84, "velocity": 100, "duration": 97}, {"note": 0, "velocity": 0, "duration": 143}, {"note": 84, "velocity": 100, "duration": 459}, {"note": 0, "velocity": 0, "duration": 261}, {"note": 86, "velocity": 100, "duration": 89}, {"note": 0, "velocity": 0, "duration": 151}, {"note": 86, "velocity": 100, "duration": 853}, {"note": 0, "velocity": 0, "duration": 107}, {"note": 74, "velocity": 100, "duration": 102}, {"note": 0, "velocity": 0, "duration": 138}, {"note": 75, "velocity": 100, "duration": 124}, {"note": 0, "velocity": 0, "duration": 116}, {"note": 74, "velocity": 100, "duration": 125}, {"note": 0, "velocity": 0, "duration": 115}, {"note": 72, "velocity": 100, "duration": 110}, {"note": 0, "velocity": 0, "duration": 130}, {"note": 70, "velocity": 100, "duration": 87}, {"note": 0, "velocity": 0, "duration": 153}, {"note": 70, "velocity": 100, "duration": 480}, {"note": 70, "velocity": 100, "duration": 175}, {"note": 0, "velocity": 0, "duration": 65}, {"note": 69, "velocity": 100, "duration": 289}, {"note": 0, "velocity": 0, "duration": 431}, {"note": 70, "velocity": 100, "duration": 92}, {"note": 0, "velocity": 0, "duration": 148}, {"note": 70, "velocity": 100, "duration": 2125}]]