[[{"note": 79, "velocity": 80, "duration": 140}, {"note": 0, "velocity": 0, "duration": 100}, {"note": 79, "velocity": 80, "duration": 86}, {"note": 77, "velocity": 80, "duration": 64}, {"note": 79, "velocity": 80, "duration": 140}, {"note": 0, "velocity": 0, "duration": 100}, {"note": 79, "velocity": 80, "duration": 54}, {"note": 0, "velocity": 0, "duration": 66}, {"note": 77, "velocity": 80, "duration": 46}, {"note": 79, "velocity": 80, "duration": 511}, {"note": 0, "velocity": 0, "duration": 209}, {"note": 72, "velocity": 80, "duration": 125}, {"note": 79, "velocity": 80, "duration": 71}, {"note": 77, "velocity": 80, "duration": 56}, {"note": 0, "velocity": 0, "duration": 64}, {"note": 77, "velocity": 80, "duration": 54}, {"note": 0, "velocity": 0, "duration": 66}, {"note": 77, "velocity": 80, "duration": 42}, {"note": 0, "velocity": 0, "duration": 78}, {"note": 77, "velocity": 80, "duration": 43}, {"note": 0, "velocity": 0, "duration": 77}, {"note": 77, "velocity": 80, "duration": 121}, {"note": 0, "velocity": 0, "duration": 119}, {"note": 74, "velocity": 80, "duration": 68}, {"note": 75, "velocity": 80, "duration": 135}, {"note": 72, "velocity": 80, "duration": 680}, {"note": 84, "velocity": 80, "duration": 129}, {"note": 0, "velocity": 0, "duration": 111}, {"note": 84, "velocity": 80, "duration": 66}, {"note": 82, "velocity": 80, "duration": 55}, {"note": 0, "velocity": 0, "duration": 65}, {"note": 84, "velocity": 80, "duration": 125}, {"note": 0, "velocity": 0, "duration": 115}, {"note": 79, "velocity": 80, "duration": 136}, {"note": 82, "velocity": 80, "duration": 115}, {"note": 77, "velocity": 80, "duration": 436}, {"note": 0, "velocity": 0, "duration": 164}, {"note": 75, "velocity": 81, "duration": 104}, {"note": 77, "velocity": 81, "duration": 128}, {"note": 79, "velocity": 81, "duration": 146}, {"note": 0, "velocity": 0, "duration": 94}, {"note": 80, "velocity": 82, "duration": 158}, {"note": 0, "velocity": 0, "duration": 82}, {"note": 79, "velocity": 82, "duration": 155}, {"note": 0, "velocity": 0, "duration": 85}, {"note": 77, "velocity": 82, "duration": 190}, {"note": 79, "velocity": 82, "duration": 463}, {"note": 67, "velocity": 83, "duration": 139}, {"note": 79, "velocity": 83, "duration": 150}, {"note": 0, "velocity": 0, "duration": 90}, {"note": 82, "velocity": 74, "duration": 58}, {"note": 0, "velocity": 0, "duration": 62}, {"note": 79, "velocity": 73, "duration": 174}, {"note": 0, "velocity": 0, "duration": 66}, {"note": 77, "velocity": 73, "duration": 190}, {"note": 0, "velocity": 0, "duration": 170}, {"note": 79, "velocity": 73, "duration": 183}, {"note": 82, "velocity": 73, "duration": 68}, {"note": 79, "velocity": 73, "duration": 208}, {"note": 77, "velocity": 73, "duration": 504}, {"note": 0, "velocity": 0, "duration": 101}, {"note": 75, "velocity": 73, "duration": 151}, {"note": 74, "velocity": 73, "duration": 201}, {"note": 72, "velocity": 73, "duration": 603}, {"note": 0, "velocity": 0, "duration": 1120}, {"note": 79, "velocity": 74, "duration": 140}, {"note": 0, "velocity": 0, "duration": 100}, {"note": 79, "velocity": 74, "duration": 86}, {"note": 77, "velocity": 74, "duration": 64}, {"note": 79, "velocity": 74, "duration": 140}, {"note": 0, "velocity": 0, "duration": 100}, {"note": 79, "velocity": 74, "duration": 54}, {"note": 0, "velocity": 0, "duration": 66}, {"note": 77, "velocity": 74, "duration": 46}, {"note": 0, "velocity": 0, "duration": 74}, {"note": 79, "velocity": 74, "duration": 511}, {"note": 0, "velocity": 0, "duration": 209}, {"note": 72, "velocity": 74, "duration": 125}, {"note": 79, "velocity": 74, "duration": 71}, {"note": 77, "velocity": 74, "duration": 56}, {"note": 0, "velocity": 0, "duration": 64}, {"note": 77, "velocity": 74, "duration": 54}, {"note": 0, "velocity": 0, "duration": 66}, {"note": 77, "velocity": 74, "duration": 42}, {"note": 0, "velocity": 0, "duration": 78}, {"note": 77, "velocity": 74, "duration": 43}, {"note": 0, "velocity": 0, "duration": 77}, {"note": 77, "velocity": 74, "duration": 121}, {"note": 0, "velocity": 0, "duration": 119}, {"note": 74, "velocity": 74, "duration": 68}, {"note": 75, "velocity": 74, "duration": 135}, {"note": 72, "velocity": 74, "duration": 680}, {"note": 0, "velocity": 0, "duration": 160}, {"note": 84, "velocity": 75, "duration": 129}, {"note": 0, "velocity": 0, "duration": 111}, {"note": 84, "velocity": 75, "duration": 66}, {"note": 82, "velocity": 75, "duration": 55}, {"note": 0, "velocity": 0, "duration": 65}, {"note": 84, "velocity": 75, "duration": 125}, {"note": 0, "velocity": 0, "duration": 115}, {"note": 79, "velocity": 75, "duration": 136}, {"note": 82, "velocity": 75, "duration": 219}, {"note": 77, "velocity": 75, "duration": 436}, {"note": 0, "velocity": 0, "duration": 164}, {"note": 75, "velocity": 75, "duration": 104}, {"note": 77, "velocity": 74, "duration": 128}, {"note": 79, "velocity": 74, "duration": 146}, {"note": 0, "velocity": 0, "duration": 94}, {"note": 80, "velocity": 74, "duration": 158}, {"note": 0, "velocity": 0, "duration": 82}, {"note": 79, "velocity": 74, "duration": 155}, {"note": 0, "velocity": 0, "duration": 85}, {"note": 77, "velocity": 74, "duration": 190}, {"note": 79, "velocity": 74, "duration": 327}, {"note": 67, "velocity": 74, "duration": 139}, {"note": 79, "velocity": 74, "duration": 150}, {"note": 0, "velocity": 0, "duration": 90}, {"note": 82, "velocity": 75, "duration": 58}, {"note": 0, "velocity": 0, "duration": 62}, {"note": 79, "velocity": 74, "duration": 174}, {"note": 0, "velocity": 0, "duration": 66}, {"note": 77, "velocity": 75, "duration": 190}, {"note": 67, "velocity": 74, "duration": 82}, {"note": 79, "velocity": 74, "duration": 183}, {"note": 82, "velocity": 74, "duration": 68}, {"note": 79, "velocity": 74, "duration": 208}, {"note": 77, "velocity": 74, "duration": 504}, {"note": 0, "velocity": 0, "duration": 96}, {"note": 75, "velocity": 74, "duration": 143}, {"note": 74, "velocity": 74, "duration": 103}, {"note": 0, "velocity": 0, "duration": 160}, {"note": 75, "velocity": 74, "duration": 202}, {"note": 72, "velocity": 74, "duration": 707}, {"note": 0, "velocity": 0, "duration": 253}, {"note": 79, "velocity": 72, "duration": 162}, {"note": 0, "velocity": 0, "duration": 78}, {"note": 82, "velocity": 72, "duration": 122}, {"note": 0, "velocity": 0, "duration": 118}, {"note": 84, "velocity": 72, "duration": 153}, {"note": 0, "velocity": 0, "duration": 87}, {"note": 82, "velocity": 72, "duration": 57}, {"note": 0, "velocity": 0, "duration": 63}, {"note": 80, "velocity": 72, "duration": 240}, {"note": 0, "velocity": 0, "duration": 120}, {"note": 79, "velocity": 72, "duration": 76}, {"note": 79, "velocity": 72, "duration": 21}, {"note": 0, "velocity": 0, "duration": 99}, {"note": 77, "velocity": 72, "duration": 59}, {"note": 0, "velocity": 0, "duration": 181}, {"note": 79, "velocity": 72, "duration": 127}, {"note": 80, "velocity": 72, "duration": 73}, {"note": 82, "velocity": 72, "duration": 213}, {"note": 79, "velocity": 72, "duration": 153}, {"note": 77, "velocity": 72, "duration": 142}, {"note": 0, "velocity": 0, "duration": 131}, {"note": 79, "velocity": 72, "duration": 128}, {"note": 77, "velocity": 72, "duration": 87}, {"note": 76, "velocity": 72, "duration": 177}, {"note": 0, "velocity": 0, "duration": 63}, {"note": 77, "velocity": 72, "duration": 122}, {"note": 79, "velocity": 72, "duration": 74}, {"note": 80, "velocity": 72, "duration": 164}, {"note": 0, "velocity": 0, "duration": 76}, {"note": 79, "velocity": 72, "duration": 80}, {"note": 75, "velocity": 72, "duration": 22}, {"note": 0, "velocity": 0, "duration": 98}, {"note": 72, "velocity": 72, "duration": 192}, {"note": 0, "velocity": 0, "duration": 168}, {"note": 80, "velocity": 72, "duration": 152}, {"note": 0, "velocity": 0, "duration": 88}, {"note": 79, "velocity": 72, "duration": 53}, {"note": 0, "velocity": 0, "duration": 67}, {"note": 75, "velocity": 72, "duration": 90}, {"note": 77, "velocity": 72, "duration": 175}, {"note": 77, "velocity": 72, "duration": 185}, {"note": 79, "velocity": 72, "duration": 64}, {"note": 79, "velocity": 72, "duration": 421}, {"note": 0, "velocity": 0, "duration": 539}, {"note": 79, "velocity": 73, "duration": 172}, {"note": 0, "velocity": 0, "duration": 68}, {"note": 82, "velocity": 72, "duration": 137}, {"note": 0, "velocity": 0, "duration": 103}, {"note": 84, "velocity": 73, "duration": 164}, {"note": 0, "velocity": 0, "duration": 76}, {"note": 82, "velocity": 73, "duration": 68}, {"note": 80, "velocity": 73, "duration": 204}, {"note": 0, "velocity": 0, "duration": 156}, {"note": 79, "velocity": 73, "duration": 55}, {"note": 0, "velocity": 0, "duration": 65}, {"note": 79, "velocity": 73, "duration": 16}, {"note": 0, "velocity": 0, "duration": 104}, {"note": 77, "velocity": 73, "duration": 454}, {"note": 79, "velocity": 73, "duration": 50}, {"note": 0, "velocity": 0, "duration": 70}, {"note": 79, "velocity": 73, "duration": 60}, {"note": 80, "velocity": 73, "duration": 44}, {"note": 83, "velocity": 73, "duration": 209}, {"note": 79, "velocity": 73, "duration": 140}, {"note": 77, "velocity": 73, "duration": 245}, {"note": 0, "velocity": 0, "duration": 115}, {"note": 79, "velocity": 74, "duration": 148}, {"note": 77, "velocity": 74, "duration": 145}, {"note": 0, "velocity": 0, "duration": 95}, {"note": 75, "velocity": 74, "duration": 469}, {"note": 75, "velocity": 74, "duration": 128}, {"note": 77, "velocity": 74, "duration": 134}, {"note": 79, "velocity": 74, "duration": 56}, {"note": 0, "velocity": 0, "duration": 64}, {"note": 80, "velocity": 74, "duration": 152}, {"note": 0, "velocity": 0, "duration": 88}, {"note": 79, "velocity": 74, "duration": 136}, {"note": 75, "velocity": 74, "duration": 223}, {"note": 72, "velocity": 75, "duration": 265}, {"note": 0, "velocity": 0, "duration": 95}, {"note": 80, "velocity": 76, "duration": 129}, {"note": 0, "velocity": 0, "duration": 111}, {"note": 79, "velocity": 76, "duration": 48}, {"note": 0, "velocity": 0, "duration": 72}, {"note": 75, "velocity": 76, "duration": 16}, {"note": 0, "velocity": 0, "duration": 104}, {"note": 77, "velocity": 76, "duration": 218}, {"note": 77, "velocity": 76, "duration": 56}, {"note": 0, "velocity": 0, "duration": 64}, {"note": 77, "velocity": 76, "duration": 223}, {"note": 0, "velocity": 0, "duration": 137}, {"note": 75, "velocity": 77, "duration": 464}, {"note": 79, "velocity": 77, "duration": 140}, {"note": 0, "velocity": 0, "duration": 100}, {"note": 79, "velocity": 77, "duration": 86}, {"note": 77, "velocity": 76, "duration": 64}, {"note": 79, "velocity": 77, "duration": 140}, {"note": 0, "velocity": 0, "duration": 100}, {"note": 79, "velocity": 77, "duration": 54}, {"note": 0, "velocity": 0, "duration": 66}, {"note": 77, "velocity": 76, "duration": 46}, {"note": 0, "velocity": 0, "duration": 74}, {"note": 79, "velocity": 77, "duration": 511}, {"note": 0, "velocity": 0, "duration": 209}, {"note": 72, "velocity": 78, "duration": 125}, {"note": 79, "velocity": 78, "duration": 71}, {"note": 77, "velocity": 78, "duration": 56}, {"note": 0, "velocity": 0, "duration": 64}, {"note": 77, "velocity": 78, "duration": 54}, {"note": 0, "velocity": 0, "duration": 66}, {"note": 77, "velocity": 78, "duration": 42}, {"note": 0, "velocity": 0, "duration": 78}, {"note": 77, "velocity": 78, "duration": 43}, {"note": 0, "velocity": 0, "duration": 77}, {"note": 77, "velocity": 78, "duration": 121}, {"note": 0, "velocity": 0, "duration": 119}, {"note": 74, "velocity": 78, "duration": 68}, {"note": 75, "velocity": 78, "duration": 255}, {"note": 72, "velocity": 78, "duration": 680}, {"note": 0, "velocity": 0, "duration": 160}, {"note": 84, "velocity": 78, "duration": 129}, {"note": 0, "velocity": 0, "duration": 111}, {"note": 84, "velocity": 78, "duration": 66}, {"note": 82, "velocity": 78, "duration": 55}, {"note": 0, "velocity": 0, "duration": 65}, {"note": 84, "velocity": 78, "duration": 125}, {"note": 0, "velocity": 0, "duration": 115}, {"note": 79, "velocity": 78, "duration": 136}, {"note": 82, "velocity": 78, "duration": 219}, {"note": 77, "velocity": 78, "duration": 436}, {"note": 0, "velocity": 0, "duration": 164}, {"note": 75, "velocity": 78, "duration": 104}, {"note": 77, "velocity": 78, "duration": 128}, {"note": 79, "velocity": 78, "duration": 146}, {"note": 0, "velocity": 0, "duration": 94}, {"note": 80, "velocity": 78, "duration": 158}, {"note": 79, "velocity": 78, "duration": 155}, {"note": 0, "velocity": 0, "duration": 85}, {"note": 77, "velocity": 78, "duration": 190}, {"note": 79, "velocity": 78, "duration": 463}, {"note": 67, "velocity": 78, "duration": 139}, {"note": 79, "velocity": 78, "duration": 150}, {"note": 0, "velocity": 0, "duration": 90}, {"note": 82, "velocity": 78, "duration": 58}, {"note": 0, "velocity": 0, "duration": 62}, {"note": 79, "velocity": 78, "duration": 174}, {"note": 0, "velocity": 0, "duration": 66}, {"note": 77, "velocity": 78, "duration": 190}, {"note": 0, "velocity": 0, "duration": 170}, {"note": 79, "velocity": 78, "duration": 183}, {"note": 82, "velocity": 78, "duration": 68}, {"note": 79, "velocity": 78, "duration": 208}, {"note": 77, "velocity": 78, "duration": 504}, {"note": 0, "velocity": 0, "duration": 101}, {"note": 75, "velocity": 78, "duration": 151}, {"note": 74, "velocity": 78, "duration": 285}, {"note": 72, "velocity": 78, "duration": 603}, {"note": 0, "velocity": 0, "duration": 720}, {"note": 79, "velocity": 80, "duration": 140}, {"note": 0, "velocity": 0, "duration": 100}, {"note": 79, "velocity": 80, "duration": 86}, {"note": 77, "velocity": 80, "duration": 64}, {"note": 79, "velocity": 80, "duration": 140}, {"note": 0, "velocity": 0, "duration": 100}, {"note": 79, "velocity": 80, "duration": 54}, {"note": 0, "velocity": 0, "duration": 66}, {"note": 77, "velocity": 80, "duration": 46}, {"note": 0, "velocity": 0, "duration": 74}, {"note": 79, "velocity": 80, "duration": 511}, {"note": 0, "velocity": 0, "duration": 209}, {"note": 72, "velocity": 81, "duration": 125}, {"note": 79, "velocity": 80, "duration": 71}, {"note": 77, "velocity": 80, "duration": 56}, {"note": 0, "velocity": 0, "duration": 64}, {"note": 77, "velocity": 80, "duration": 54}, {"note": 0, "velocity": 0, "duration": 66}, {"note": 77, "velocity": 81, "duration": 42}, {"note": 0, "velocity": 0, "duration": 78}, {"note": 77, "velocity": 81, "duration": 43}, {"note": 0, "velocity": 0, "duration": 77}, {"note": 77, "velocity": 81, "duration": 121}, {"note": 0, "velocity": 0, "duration": 119}, {"note": 74, "velocity": 81, "duration": 68}, {"note": 75, "velocity": 81, "duration": 255}, {"note": 72, "velocity": 81, "duration": 680}, {"note": 84, "velocity": 81, "duration": 129}, {"note": 0, "velocity": 0, "duration": 111}, {"note": 84, "velocity": 81, "duration": 66}, {"note": 82, "velocity": 81, "duration": 55}, {"note": 0, "velocity": 0, "duration": 65}, {"note": 84, "velocity": 81, "duration": 125}, {"note": 0, "velocity": 0, "duration": 115}, {"note": 79, "velocity": 81, "duration": 136}, {"note": 82, "velocity": 81, "duration": 219}, {"note": 77, "velocity": 82, "duration": 436}, {"note": 0, "velocity": 0, "duration": 164}, {"note": 75, "velocity": 83, "duration": 104}, {"note": 77, "velocity": 83, "duration": 128}, {"note": 79, "velocity": 83, "duration": 146}, {"note": 0, "velocity": 0, "duration": 94}, {"note": 80, "velocity": 83, "duration": 158}, {"note": 0, "velocity": 0, "duration": 82}, {"note": 79, "velocity": 83, "duration": 155}, {"note": 0, "velocity": 0, "duration": 85}, {"note": 77, "velocity": 83, "duration": 190}, {"note": 79, "velocity": 83, "duration": 327}, {"note": 67, "velocity": 83, "duration": 139}, {"note": 79, "velocity": 83, "duration": 150}, {"note": 0, "velocity": 0, "duration": 90}, {"note": 82, "velocity": 83, "duration": 58}, {"note": 0, "velocity": 0, "duration": 62}, {"note": 79, "velocity": 83, "duration": 174}, {"note": 0, "velocity": 0, "duration": 66}, {"note": 77, "velocity": 83, "duration": 190}, {"note": 67, "velocity": 83, "duration": 82}, {"note": 79, "velocity": 83, "duration": 183}, {"note": 82, "velocity": 83, "duration": 68}, {"note": 79, "velocity": 83, "duration": 208}, {"note": 77, "velocity": 83, "duration": 144}, {"note": 0, "velocity": 0, "duration": 96}, {"note": 75, "velocity": 85, "duration": 143}, {"note": 74, "velocity": 83, "duration": 200}, {"note": 0, "velocity": 0, "duration": 160}, {"note": 75, "velocity": 85, "duration": 202}, {"note": 72, "velocity": 85, "duration": 227}, {"note": 0, "velocity": 0, "duration": 253}, {"note": 79, "velocity": 84, "duration": 162}, {"note": 0, "velocity": 0, "duration": 78}, {"note": 82, "velocity": 84, "duration": 122}, {"note": 84, "velocity": 84, "duration": 153}, {"note": 0, "velocity": 0, "duration": 87}, {"note": 82, "velocity": 84, "duration": 57}, {"note": 0, "velocity": 0, "duration": 63}, {"note": 80, "velocity": 84, "duration": 240}, {"note": 0, "velocity": 0, "duration": 120}, {"note": 79, "velocity": 84, "duration": 76}, {"note": 79, "velocity": 84, "duration": 141}, {"note": 0, "velocity": 0, "duration": 99}, {"note": 77, "velocity": 84, "duration": 419}, {"note": 0, "velocity": 0, "duration": 181}, {"note": 79, "velocity": 84, "duration": 127}, {"note": 80, "velocity": 84, "duration": 73}, {"note": 82, "velocity": 84, "duration": 213}, {"note": 79, "velocity": 84, "duration": 153}, {"note": 77, "velocity": 84, "duration": 229}, {"note": 0, "velocity": 0, "duration": 131}, {"note": 79, "velocity": 84, "duration": 128}, {"note": 77, "velocity": 84, "duration": 87}, {"note": 76, "velocity": 84, "duration": 537}, {"note": 0, "velocity": 0, "duration": 63}, {"note": 77, "velocity": 83, "duration": 122}, {"note": 79, "velocity": 84, "duration": 74}, {"note": 80, "velocity": 84, "duration": 164}, {"note": 0, "velocity": 0, "duration": 76}, {"note": 79, "velocity": 83, "duration": 80}, {"note": 75, "velocity": 83, "duration": 142}, {"note": 0, "velocity": 0, "duration": 98}, {"note": 72, "velocity": 83, "duration": 192}, {"note": 0, "velocity": 0, "duration": 168}, {"note": 80, "velocity": 83, "duration": 152}, {"note": 0, "velocity": 0, "duration": 88}, {"note": 79, "velocity": 83, "duration": 53}, {"note": 0, "velocity": 0, "duration": 67}, {"note": 75, "velocity": 83, "duration": 210}, {"note": 77, "velocity": 83, "duration": 175}, {"note": 0, "velocity": 0, "duration": 177}, {"note": 77, "velocity": 83, "duration": 185}, {"note": 79, "velocity": 83, "duration": 64}, {"note": 79, "velocity": 83, "duration": 541}, {"note": 0, "velocity": 0, "duration": 539}, {"note": 79, "velocity": 85, "duration": 172}, {"note": 0, "velocity": 0, "duration": 68}, {"note": 82, "velocity": 86, "duration": 137}, {"note": 84, "velocity": 85, "duration": 164}, {"note": 0, "velocity": 0, "duration": 76}, {"note": 82, "velocity": 86, "duration": 68}, {"note": 80, "velocity": 86, "duration": 204}, {"note": 0, "velocity": 0, "duration": 156}, {"note": 79, "velocity": 87, "duration": 55}, {"note": 0, "velocity": 0, "duration": 65}, {"note": 79, "velocity": 87, "duration": 136}, {"note": 0, "velocity": 0, "duration": 104}, {"note": 77, "velocity": 87, "duration": 454}, {"note": 79, "velocity": 87, "duration": 50}, {"note": 0, "velocity": 0, "duration": 70}, {"note": 79, "velocity": 87, "duration": 60}, {"note": 80, "velocity": 87, "duration": 44}, {"note": 83, "velocity": 87, "duration": 209}, {"note": 79, "velocity": 87, "duration": 140}, {"note": 77, "velocity": 87, "duration": 245}, {"note": 0, "velocity": 0, "duration": 115}, {"note": 79, "velocity": 87, "duration": 148}, {"note": 77, "velocity": 87, "duration": 145}, {"note": 0, "velocity": 0, "duration": 95}, {"note": 75, "velocity": 87, "duration": 109}, {"note": 75, "velocity": 87, "duration": 128}, {"note": 77, "velocity": 87, "duration": 134}, {"note": 79, "velocity": 87, "duration": 56}, {"note": 0, "velocity": 0, "duration": 64}, {"note": 80, "velocity": 87, "duration": 152}, {"note": 0, "velocity": 0, "duration": 88}, {"note": 79, "velocity": 87, "duration": 136}, {"note": 75, "velocity": 87, "duration": 223}, {"note": 72, "velocity": 87, "duration": 265}, {"note": 80, "velocity": 87, "duration": 129}, {"note": 0, "velocity": 0, "duration": 111}, {"note": 79, "velocity": 87, "duration": 48}, {"note": 0, "velocity": 0, "duration": 72}, {"note": 75, "velocity": 87, "duration": 136}, {"note": 0, "velocity": 0, "duration": 104}, {"note": 77, "velocity": 87, "duration": 218}, {"note": 77, "velocity": 87, "duration": 56}, {"note": 0, "velocity": 0, "duration": 64}, {"note": 77, "velocity": 87, "duration": 223}, {"note": 0, "velocity": 0, "duration": 137}, {"note": 75, "velocity": 87, "duration": 464}, {"note": 79, "velocity": 86, "duration": 162}, {"note": 0, "velocity": 0, "duration": 78}, {"note": 82, "velocity": 86, "duration": 122}, {"note": 0, "velocity": 0, "duration": 118}, {"note": 84, "velocity": 86, "duration": 153}, {"note": 0, "velocity": 0, "duration": 87}, {"note": 82, "velocity": 86, "duration": 57}, {"note": 0, "velocity": 0, "duration": 63}, {"note": 80, "velocity": 86, "duration": 240}, {"note": 0, "velocity": 0, "duration": 120}, {"note": 79, "velocity": 86, "duration": 76}, {"note": 79, "velocity": 86, "duration": 141}, {"note": 0, "velocity": 0, "duration": 99}, {"note": 77, "velocity": 86, "duration": 59}, {"note": 0, "velocity": 0, "duration": 181}, {"note": 79, "velocity": 86, "duration": 127}, {"note": 80, "velocity": 86, "duration": 73}, {"note": 82, "velocity": 86, "duration": 213}, {"note": 79, "velocity": 86, "duration": 153}, {"note": 77, "velocity": 86, "duration": 142}, {"note": 0, "velocity": 0, "duration": 131}, {"note": 79, "velocity": 86, "duration": 128}, {"note": 77, "velocity": 86, "duration": 87}, {"note": 76, "velocity": 86, "duration": 537}, {"note": 0, "velocity": 0, "duration": 63}, {"note": 77, "velocity": 86, "duration": 122}, {"note": 79, "velocity": 86, "duration": 74}, {"note": 80, "velocity": 86, "duration": 164}, {"note": 0, "velocity": 0, "duration": 76}, {"note": 79, "velocity": 86, "duration": 80}, {"note": 75, "velocity": 86, "duration": 142}, {"note": 0, "velocity": 0, "duration": 98}, {"note": 72, "velocity": 86, "duration": 192}, {"note": 80, "velocity": 86, "duration": 152}, {"note": 0, "velocity": 0, "duration": 88}, {"note": 79, "velocity": 86, "duration": 53}, {"note": 0, "velocity": 0, "duration": 67}, {"note": 75, "velocity": 86, "duration": 90}, {"note": 77, "velocity": 86, "duration": 175}, {"note": 0, "velocity": 0, "duration": 177}, {"note": 77, "velocity": 86, "duration": 185}, {"note": 79, "velocity": 86, "duration": 64}, {"note": 79, "velocity": 86, "duration": 541}, {"note": 0, "velocity": 0, "duration": 539}, {"note": 79, "velocity": 86, "duration": 172}, {"note": 0, "velocity": 0, "duration": 68}, {"note": 82, "velocity": 86, "duration": 137}, {"note": 0, "velocity": 0, "duration": 103}, {"note": 84, "velocity": 86, "duration": 164}, {"note": 0, "velocity": 0, "duration": 76}, {"note": 82, "velocity": 86, "duration": 68}, {"note": 80, "velocity": 86, "duration": 204}, {"note": 0, "velocity": 0, "duration": 156}, {"note": 79, "velocity": 86, "duration": 55}, {"note": 0, "velocity": 0, "duration": 65}, {"note": 79, "velocity": 86, "duration": 136}, {"note": 0, "velocity": 0, "duration": 104}, {"note": 77, "velocity": 86, "duration": 454}, {"note": 79, "velocity": 86, "duration": 50}, {"note": 0, "velocity": 0, "duration": 70}, {"note": 79, "velocity": 86, "duration": 60}, {"note": 80, "velocity": 86, "duration": 44}, {"note": 0, "velocity": 0, "duration": 76}, {"note": 83, "velocity": 86, "duration": 209}, {"note": 79, "velocity": 86, "duration": 140}, {"note": 77, "velocity": 86, "duration": 145}, {"note": 0, "velocity": 0, "duration": 115}, {"note": 79, "velocity": 86, "duration": 148}, {"note": 77, "velocity": 86, "duration": 145}, {"note": 0, "velocity": 0, "duration": 95}, {"note": 75, "velocity": 86, "duration": 469}, {"note": 75, "velocity": 86, "duration": 128}, {"note": 77, "velocity": 87, "duration": 134}, {"note": 79, "velocity": 86, "duration": 56}, {"note": 0, "velocity": 0, "duration": 64}, {"note": 80, "velocity": 87, "duration": 152}, {"note": 0, "velocity": 0, "duration": 88}, {"note": 79, "velocity": 87, "duration": 136}, {"note": 75, "velocity": 87, "duration": 223}, {"note": 72, "velocity": 88, "duration": 265}, {"note": 0, "velocity": 0, "duration": 95}, {"note": 80, "velocity": 88, "duration": 129}, {"note": 0, "velocity": 0, "duration": 111}, {"note": 79, "velocity": 88, "duration": 48}, {"note": 0, "velocity": 0, "duration": 72}, {"note": 75, "velocity": 88, "duration": 16}, {"note": 0, "velocity": 0, "duration": 104}, {"note": 77, "velocity": 88, "duration": 218}, {"note": 77, "velocity": 88, "duration": 56}, {"note": 0, "velocity": 0, "duration": 64}, {"note": 77, "velocity": 88, "duration": 223}, {"note": 0, "velocity": 0, "duration": 137}, {"note": 75, "velocity": 88, "duration": 464}, {"note": 0, "velocity": 0, "duration": 120}, {"note": 75, "velocity": 88, "duration": 117}, {"note": 77, "velocity": 88, "duration": 138}, {"note": 79, "velocity": 88, "duration": 139}, {"note": 80, "velocity": 88, "duration": 232}, {"note": 79, "velocity": 88, "duration": 68}, {"note": 75, "velocity": 88, "duration": 276}, {"note": 72, "velocity": 88, "duration": 188}, {"note": 0, "velocity": 0, "duration": 172}, {"note": 80, "velocity": 88, "duration": 243}, {"note": 79, "velocity": 88, "duration": 101}, {"note": 82, "velocity": 88, "duration": 1413}, {"note": 75, "velocity": 88, "duration": 115}, {"note": 0, "velocity": 0, "duration": 125}, {"note": 75, "velocity": 88, "duration": 997}]]