[[{"note": 68, "velocity": 107, "duration": 480}, {"note": 73, "velocity": 107, "duration": 480}, {"note": 75, "velocity": 122, "duration": 480}, {"note": 76, "velocity": 117, "duration": 480}, {"note": 75, "velocity": 122, "duration": 240}, {"note": 76, "velocity": 112, "duration": 1199}, {"note": 76, "velocity": 102, "duration": 480}, {"note": 75, "velocity": 117, "duration": 240}, {"note": 73, "velocity": 99, "duration": 959}, {"note": 73, "velocity": 102, "duration": 239}, {"note": 73, "velocity": 107, "duration": 480}, {"note": 71, "velocity": 99, "duration": 239}, {"note": 71, "velocity": 92, "duration": 480}, {"note": 73, "velocity": 99, "duration": 480}, {"note": 68, "velocity": 93, "duration": 1439}, {"note": 68, "velocity": 86, "duration": 240}, {"note": 73, "velocity": 35, "duration": 240}, {"note": 75, "velocity": 89, "duration": 240}, {"note": 76, "velocity": 95, "duration": 480}, {"note": 75, "velocity": 117, "duration": 240}, {"note": 76, "velocity": 107, "duration": 1199}, {"note": 76, "velocity": 117, "duration": 480}, {"note": 75, "velocity": 112, "duration": 240}, {"note": 73, "velocity": 107, "duration": 1199}, {"note": 73, "velocity": 127, "duration": 480}, {"note": 71, "velocity": 93, "duration": 239}, {"note": 71, "velocity": 86, "duration": 240}, {"note": 76, "velocity": 99, "duration": 360}, {"note": 75, "velocity": 102, "duration": 360}, {"note": 73, "velocity": 89, "duration": 239}, {"note": 73, "velocity": 112, "duration": 1920}, {"note": 76, "velocity": 100, "duration": 479}, {"note": 76, "velocity": 97, "duration": 239}, {"note": 76, "velocity": 107, "duration": 1200}, {"note": 75, "velocity": 102, "duration": 480}, {"note": 73, "velocity": 100, "duration": 240}, {"note": 71, "velocity": 95, "duration": 1200}, {"note": 73, "velocity": 102, "duration": 480}, {"note": 71, "velocity": 99, "duration": 239}, {"note": 71, "velocity": 90, "duration": 480}, {"note": 73, "velocity": 89, "duration": 480}, {"note": 68, "velocity": 97, "duration": 2160}, {"note": 76, "velocity": 89, "duration": 479}, {"note": 76, "velocity": 99, "duration": 239}, {"note": 76, "velocity": 112, "duration": 1200}, {"note": 80, "velocity": 117, "duration": 480}, {"note": 78, "velocity": 102, "duration": 239}, {"note": 78, "velocity": 122, "duration": 960}, {"note": 71, "velocity": 90, "duration": 240}, {"note": 76, "velocity": 97, "duration": 359}, {"note": 76, "velocity": 97, "duration": 359}, {"note": 76, "velocity": 92, "duration": 240}, {"note": 78, "velocity": 127, "duration": 240}, {"note": 76, "velocity": 102, "duration": 479}, {"note": 76, "velocity": 88, "duration": 240}, {"note": 75, "velocity": 112, "duration": 1827}, {"note": 0, "velocity": 0, "duration": 33933}, {"note": 68, "velocity": 95, "duration": 240}, {"note": 73, "velocity": 96, "duration": 250}, {"note": 75, "velocity": 100, "duration": 240}, {"note": 76, "velocity": 117, "duration": 480}, {"note": 75, "velocity": 122, "duration": 240}, {"note": 76, "velocity": 112, "duration": 1199}, {"note": 76, "velocity": 102, "duration": 480}, {"note": 54, "velocity": 1, "duration": 787}, {"note": 75, "velocity": 117, "duration": 240}, {"note": 73, "velocity": 99, "duration": 959}, {"note": 73, "velocity": 102, "duration": 239}, {"note": 73, "velocity": 107, "duration": 480}, {"note": 71, "velocity": 99, "duration": 239}, {"note": 71, "velocity": 92, "duration": 480}, {"note": 73, "velocity": 99, "duration": 480}, {"note": 68, "velocity": 93, "duration": 1439}, {"note": 68, "velocity": 86, "duration": 240}, {"note": 73, "velocity": 35, "duration": 240}, {"note": 75, "velocity": 89, "duration": 240}, {"note": 76, "velocity": 95, "duration": 480}, {"note": 75, "velocity": 117, "duration": 240}, {"note": 76, "velocity": 107, "duration": 1199}, {"note": 76, "velocity": 117, "duration": 480}, {"note": 75, "velocity": 112, "duration": 240}, {"note": 73, "velocity": 107, "duration": 1199}, {"note": 73, "velocity": 127, "duration": 480}, {"note": 71, "velocity": 93, "duration": 239}, {"note": 71, "velocity": 86, "duration": 240}, {"note": 76, "velocity": 99, "duration": 360}, {"note": 75, "velocity": 102, "duration": 360}, {"note": 73, "velocity": 89, "duration": 239}, {"note": 73, "velocity": 112, "duration": 1920}, {"note": 76, "velocity": 100, "duration": 479}, {"note": 76, "velocity": 97, "duration": 239}, {"note": 76, "velocity": 107, "duration": 1200}, {"note": 75, "velocity": 102, "duration": 480}, {"note": 73, "velocity": 100, "duration": 240}, {"note": 71, "velocity": 95, "duration": 1200}, {"note": 73, "velocity": 102, "duration": 480}, {"note": 71, "velocity": 99, "duration": 239}, {"note": 71, "velocity": 90, "duration": 480}, {"note": 73, "velocity": 89, "duration": 480}, {"note": 68, "velocity": 97, "duration": 2160}, {"note": 76, "velocity": 89, "duration": 479}, {"note": 76, "velocity": 99, "duration": 239}, {"note": 76, "velocity": 112, "duration": 1200}, {"note": 80, "velocity": 117, "duration": 480}, {"note": 78, "velocity": 102, "duration": 239}, {"note": 78, "velocity": 122, "duration": 960}, {"note": 71, "velocity": 90, "duration": 240}, {"note": 76, "velocity": 97, "duration": 359}, {"note": 76, "velocity": 97, "duration": 359}, {"note": 76, "velocity": 92, "duration": 240}, {"note": 78, "velocity": 127, "duration": 240}, {"note": 76, "velocity": 102, "duration": 479}, {"note": 76, "velocity": 88, "duration": 240}, {"note": 75, "velocity": 112, "duration": 3840}, {"note": 76, "velocity": 100, "duration": 479}, {"note": 76, "velocity": 97, "duration": 239}, {"note": 76, "velocity": 107, "duration": 1200}, {"note": 75, "velocity": 102, "duration": 480}, {"note": 73, "velocity": 100, "duration": 240}, {"note": 71, "velocity": 95, "duration": 1200}, {"note": 73, "velocity": 102, "duration": 480}, {"note": 71, "velocity": 99, "duration": 239}, {"note": 71, "velocity": 90, "duration": 480}, {"note": 73, "velocity": 89, "duration": 480}, {"note": 68, "velocity": 97, "duration": 2160}, {"note": 76, "velocity": 89, "duration": 479}, {"note": 76, "velocity": 99, "duration": 239}, {"note": 76, "velocity": 112, "duration": 1200}, {"note": 80, "velocity": 117, "duration": 480}, {"note": 78, "velocity": 102, "duration": 239}, {"note": 78, "velocity": 122, "duration": 960}, {"note": 71, "velocity": 90, "duration": 240}, {"note": 76, "velocity": 97, "duration": 359}, {"note": 76, "velocity": 97, "duration": 359}, {"note": 76, "velocity": 92, "duration": 240}, {"note": 78, "velocity": 127, "duration": 240}, {"note": 76, "velocity": 102, "duration": 479}, {"note": 76, "velocity": 88, "duration": 240}, {"note": 75, "velocity": 112, "duration": 1827}]]