[[{"note": 66, "velocity": 97, "duration": 306}, {"note": 69, "velocity": 64, "duration": 240}, {"note": 71, "velocity": 85, "duration": 240}, {"note": 78, "velocity": 66, "duration": 239}, {"note": 78, "velocity": 78, "duration": 396}, {"note": 76, "velocity": 70, "duration": 600}, {"note": 74, "velocity": 97, "duration": 240}, {"note": 73, "velocity": 97, "duration": 240}, {"note": 71, "velocity": 97, "duration": 240}, {"note": 69, "velocity": 99, "duration": 240}, {"note": 66, "velocity": 93, "duration": 120}, {"note": 69, "velocity": 78, "duration": 120}, {"note": 66, "velocity": 69, "duration": 720}, {"note": 74, "velocity": 97, "duration": 240}, {"note": 71, "velocity": 95, "duration": 240}, {"note": 76, "velocity": 82, "duration": 240}, {"note": 81, "velocity": 82, "duration": 240}, {"note": 76, "velocity": 99, "duration": 480}, {"note": 74, "velocity": 101, "duration": 479}, {"note": 74, "velocity": 97, "duration": 240}, {"note": 81, "velocity": 63, "duration": 240}, {"note": 78, "velocity": 91, "duration": 240}, {"note": 76, "velocity": 88, "duration": 240}, {"note": 78, "velocity": 88, "duration": 120}, {"note": 81, "velocity": 70, "duration": 120}, {"note": 78, "velocity": 64, "duration": 719}, {"note": 78, "velocity": 95, "duration": 240}, {"note": 81, "velocity": 82, "duration": 239}, {"note": 81, "velocity": 85, "duration": 296}, {"note": 74, "velocity": 88, "duration": 258}, {"note": 76, "velocity": 97, "duration": 360}, {"note": 78, "velocity": 78, "duration": 120}, {"note": 74, "velocity": 91, "duration": 240}, {"note": 76, "velocity": 100, "duration": 240}, {"note": 78, "velocity": 99, "duration": 240}, {"note": 81, "velocity": 76, "duration": 240}, {"note": 76, "velocity": 85, "duration": 240}, {"note": 74, "velocity": 80, "duration": 240}, {"note": 71, "velocity": 97, "duration": 120}, {"note": 74, "velocity": 97, "duration": 120}, {"note": 71, "velocity": 97, "duration": 720}, {"note": 66, "velocity": 93, "duration": 272}, {"note": 69, "velocity": 78, "duration": 240}, {"note": 71, "velocity": 72, "duration": 279}, {"note": 78, "velocity": 85, "duration": 239}, {"note": 78, "velocity": 75, "duration": 501}, {"note": 76, "velocity": 78, "duration": 480}, {"note": 74, "velocity": 95, "duration": 269}, {"note": 73, "velocity": 97, "duration": 240}, {"note": 71, "velocity": 95, "duration": 240}, {"note": 69, "velocity": 80, "duration": 275}, {"note": 71, "velocity": 85, "duration": 1440}, {"note": 76, "velocity": 61, "duration": 120}, {"note": 78, "velocity": 54, "duration": 120}, {"note": 76, "velocity": 70, "duration": 120}, {"note": 71, "velocity": 72, "duration": 164}, {"note": 76, "velocity": 57, "duration": 1439}, {"note": 76, "velocity": 85, "duration": 120}, {"note": 78, "velocity": 62, "duration": 120}, {"note": 76, "velocity": 91, "duration": 120}, {"note": 71, "velocity": 80, "duration": 146}, {"note": 74, "velocity": 85, "duration": 720}, {"note": 73, "velocity": 64, "duration": 131}, {"note": 74, "velocity": 73, "duration": 136}, {"note": 73, "velocity": 73, "duration": 156}, {"note": 71, "velocity": 73, "duration": 378}, {"note": 76, "velocity": 80, "duration": 120}, {"note": 78, "velocity": 55, "duration": 120}, {"note": 76, "velocity": 61, "duration": 120}, {"note": 71, "velocity": 61, "duration": 155}, {"note": 76, "velocity": 73, "duration": 284}, {"note": 78, "velocity": 51, "duration": 176}, {"note": 76, "velocity": 66, "duration": 1093}, {"note": 76, "velocity": 93, "duration": 120}, {"note": 78, "velocity": 76, "duration": 120}, {"note": 81, "velocity": 99, "duration": 120}, {"note": 78, "velocity": 66, "duration": 119}, {"note": 78, "velocity": 78, "duration": 120}, {"note": 81, "velocity": 66, "duration": 120}, {"note": 78, "velocity": 78, "duration": 1680}, {"note": 83, "velocity": 63, "duration": 125}, {"note": 81, "velocity": 88, "duration": 120}, {"note": 78, "velocity": 73, "duration": 120}, {"note": 76, "velocity": 60, "duration": 187}, {"note": 78, "velocity": 82, "duration": 245}, {"note": 81, "velocity": 69, "duration": 240}, {"note": 78, "velocity": 91, "duration": 960}, {"note": 83, "velocity": 55, "duration": 120}, {"note": 81, "velocity": 76, "duration": 120}, {"note": 78, "velocity": 54, "duration": 120}, {"note": 76, "velocity": 64, "duration": 161}, {"note": 78, "velocity": 91, "duration": 240}, {"note": 81, "velocity": 73, "duration": 250}, {"note": 71, "velocity": 91, "duration": 959}, {"note": 71, "velocity": 91, "duration": 155}, {"note": 73, "velocity": 72, "duration": 120}, {"note": 74, "velocity": 78, "duration": 120}, {"note": 78, "velocity": 66, "duration": 132}, {"note": 76, "velocity": 82, "duration": 240}, {"note": 81, "velocity": 72, "duration": 255}, {"note": 76, "velocity": 73, "duration": 360}, {"note": 74, "velocity": 88, "duration": 159}, {"note": 76, "velocity": 76, "duration": 240}, {"note": 81, "velocity": 73, "duration": 254}, {"note": 78, "velocity": 76, "duration": 983}, {"note": 76, "velocity": 88, "duration": 241}, {"note": 78, "velocity": 73, "duration": 23}, {"note": 0, "velocity": 0, "duration": 937}, {"note": 83, "velocity": 97, "duration": 120}, {"note": 81, "velocity": 82, "duration": 120}, {"note": 78, "velocity": 76, "duration": 137}, {"note": 76, "velocity": 82, "duration": 158}, {"note": 78, "velocity": 82, "duration": 240}, {"note": 81, "velocity": 70, "duration": 244}, {"note": 78, "velocity": 85, "duration": 960}, {"note": 83, "velocity": 97, "duration": 120}, {"note": 81, "velocity": 73, "duration": 120}, {"note": 78, "velocity": 85, "duration": 141}, {"note": 76, "velocity": 88, "duration": 206}, {"note": 78, "velocity": 66, "duration": 240}, {"note": 81, "velocity": 75, "duration": 339}, {"note": 71, "velocity": 78, "duration": 959}, {"note": 71, "velocity": 91, "duration": 143}, {"note": 73, "velocity": 73, "duration": 153}, {"note": 74, "velocity": 82, "duration": 120}, {"note": 78, "velocity": 76, "duration": 120}, {"note": 76, "velocity": 95, "duration": 240}, {"note": 81, "velocity": 85, "duration": 240}, {"note": 76, "velocity": 88, "duration": 360}, {"note": 74, "velocity": 91, "duration": 148}, {"note": 76, "velocity": 85, "duration": 240}, {"note": 81, "velocity": 76, "duration": 240}, {"note": 78, "velocity": 93, "duration": 69}, {"note": 81, "velocity": 64, "duration": 60}, {"note": 78, "velocity": 60, "duration": 1320}, {"note": 76, "velocity": 95, "duration": 146}, {"note": 78, "velocity": 72, "duration": 480}, {"note": 74, "velocity": 78, "duration": 244}, {"note": 71, "velocity": 85, "duration": 2542}, {"note": 0, "velocity": 0, "duration": 16320}, {"note": 66, "velocity": 97, "duration": 240}, {"note": 69, "velocity": 64, "duration": 240}, {"note": 71, "velocity": 85, "duration": 240}, {"note": 78, "velocity": 66, "duration": 239}, {"note": 78, "velocity": 78, "duration": 360}, {"note": 76, "velocity": 70, "duration": 600}, {"note": 74, "velocity": 97, "duration": 240}, {"note": 73, "velocity": 97, "duration": 240}, {"note": 71, "velocity": 97, "duration": 240}, {"note": 69, "velocity": 99, "duration": 240}, {"note": 66, "velocity": 93, "duration": 239}, {"note": 66, "velocity": 69, "duration": 720}, {"note": 69, "velocity": 78, "duration": 720}, {"note": 74, "velocity": 97, "duration": 240}, {"note": 71, "velocity": 95, "duration": 240}, {"note": 76, "velocity": 82, "duration": 240}, {"note": 81, "velocity": 82, "duration": 240}, {"note": 76, "velocity": 99, "duration": 480}, {"note": 74, "velocity": 101, "duration": 479}, {"note": 74, "velocity": 97, "duration": 240}, {"note": 81, "velocity": 63, "duration": 240}, {"note": 78, "velocity": 91, "duration": 240}, {"note": 76, "velocity": 88, "duration": 240}, {"note": 78, "velocity": 88, "duration": 239}, {"note": 78, "velocity": 64, "duration": 719}, {"note": 81, "velocity": 70, "duration": 720}, {"note": 78, "velocity": 95, "duration": 240}, {"note": 81, "velocity": 82, "duration": 239}, {"note": 81, "velocity": 85, "duration": 240}, {"note": 74, "velocity": 88, "duration": 240}, {"note": 76, "velocity": 97, "duration": 360}, {"note": 78, "velocity": 78, "duration": 120}, {"note": 74, "velocity": 91, "duration": 480}, {"note": 78, "velocity": 99, "duration": 240}, {"note": 81, "velocity": 76, "duration": 240}, {"note": 76, "velocity": 85, "duration": 240}, {"note": 74, "velocity": 80, "duration": 240}, {"note": 71, "velocity": 97, "duration": 120}, {"note": 74, "velocity": 97, "duration": 120}, {"note": 71, "velocity": 97, "duration": 720}, {"note": 66, "velocity": 93, "duration": 240}, {"note": 69, "velocity": 78, "duration": 240}, {"note": 71, "velocity": 72, "duration": 240}, {"note": 78, "velocity": 85, "duration": 239}, {"note": 78, "velocity": 75, "duration": 480}, {"note": 76, "velocity": 78, "duration": 480}, {"note": 74, "velocity": 95, "duration": 240}, {"note": 73, "velocity": 97, "duration": 240}, {"note": 71, "velocity": 95, "duration": 240}, {"note": 69, "velocity": 80, "duration": 240}, {"note": 74, "velocity": 85, "duration": 140}, {"note": 71, "velocity": 85, "duration": 840}, {"note": 83, "velocity": 63, "duration": 120}, {"note": 81, "velocity": 88, "duration": 120}, {"note": 78, "velocity": 73, "duration": 120}, {"note": 76, "velocity": 60, "duration": 120}, {"note": 78, "velocity": 82, "duration": 240}, {"note": 81, "velocity": 69, "duration": 240}, {"note": 78, "velocity": 91, "duration": 960}, {"note": 83, "velocity": 55, "duration": 120}, {"note": 81, "velocity": 76, "duration": 120}, {"note": 78, "velocity": 54, "duration": 120}, {"note": 76, "velocity": 64, "duration": 120}, {"note": 78, "velocity": 91, "duration": 240}, {"note": 81, "velocity": 73, "duration": 240}, {"note": 71, "velocity": 91, "duration": 959}, {"note": 71, "velocity": 91, "duration": 120}, {"note": 73, "velocity": 72, "duration": 120}, {"note": 74, "velocity": 78, "duration": 120}, {"note": 78, "velocity": 66, "duration": 120}, {"note": 76, "velocity": 82, "duration": 240}, {"note": 81, "velocity": 72, "duration": 240}, {"note": 76, "velocity": 73, "duration": 360}, {"note": 74, "velocity": 88, "duration": 120}, {"note": 76, "velocity": 76, "duration": 240}, {"note": 81, "velocity": 73, "duration": 240}, {"note": 78, "velocity": 76, "duration": 720}, {"note": 76, "velocity": 88, "duration": 240}, {"note": 78, "velocity": 73, "duration": 960}, {"note": 83, "velocity": 97, "duration": 120}, {"note": 81, "velocity": 82, "duration": 120}, {"note": 78, "velocity": 76, "duration": 120}, {"note": 76, "velocity": 82, "duration": 120}, {"note": 78, "velocity": 82, "duration": 240}, {"note": 81, "velocity": 70, "duration": 240}, {"note": 78, "velocity": 85, "duration": 960}, {"note": 83, "velocity": 97, "duration": 120}, {"note": 81, "velocity": 73, "duration": 120}, {"note": 78, "velocity": 85, "duration": 120}, {"note": 76, "velocity": 88, "duration": 120}, {"note": 78, "velocity": 66, "duration": 240}, {"note": 81, "velocity": 75, "duration": 240}, {"note": 71, "velocity": 78, "duration": 959}, {"note": 71, "velocity": 91, "duration": 120}, {"note": 73, "velocity": 73, "duration": 120}, {"note": 74, "velocity": 82, "duration": 120}, {"note": 78, "velocity": 76, "duration": 120}, {"note": 76, "velocity": 95, "duration": 240}, {"note": 81, "velocity": 85, "duration": 240}, {"note": 76, "velocity": 88, "duration": 360}, {"note": 74, "velocity": 91, "duration": 120}, {"note": 76, "velocity": 85, "duration": 240}, {"note": 81, "velocity": 76, "duration": 240}, {"note": 78, "velocity": 93, "duration": 60}, {"note": 81, "velocity": 64, "duration": 60}, {"note": 78, "velocity": 60, "duration": 1320}, {"note": 76, "velocity": 95, "duration": 120}, {"note": 78, "velocity": 72, "duration": 480}, {"note": 74, "velocity": 78, "duration": 218}, {"note": 71, "velocity": 85, "duration": 1102}, {"note": 76, "velocity": 61, "duration": 120}, {"note": 78, "velocity": 54, "duration": 120}, {"note": 76, "velocity": 70, "duration": 120}, {"note": 71, "velocity": 72, "duration": 164}, {"note": 76, "velocity": 57, "duration": 1439}, {"note": 76, "velocity": 85, "duration": 120}, {"note": 78, "velocity": 62, "duration": 120}, {"note": 76, "velocity": 91, "duration": 120}, {"note": 71, "velocity": 80, "duration": 146}, {"note": 74, "velocity": 85, "duration": 720}, {"note": 73, "velocity": 64, "duration": 131}, {"note": 74, "velocity": 73, "duration": 221}, {"note": 71, "velocity": 73, "duration": 480}, {"note": 76, "velocity": 80, "duration": 120}, {"note": 78, "velocity": 55, "duration": 120}, {"note": 76, "velocity": 61, "duration": 120}, {"note": 71, "velocity": 61, "duration": 155}, {"note": 76, "velocity": 73, "duration": 284}, {"note": 78, "velocity": 51, "duration": 136}, {"note": 76, "velocity": 66, "duration": 1130}, {"note": 76, "velocity": 101, "duration": 471}, {"note": 78, "velocity": 95, "duration": 1864}, {"note": 71, "velocity": 88, "duration": 1028}]]