[[{"note": 64, "velocity": 79, "duration": 113}, {"note": 71, "velocity": 79, "duration": 67}, {"note": 69, "velocity": 79, "duration": 164}, {"note": 0, "velocity": 0, "duration": 76}, {"note": 67, "velocity": 79, "duration": 102}, {"note": 0, "velocity": 0, "duration": 138}, {"note": 66, "velocity": 79, "duration": 195}, {"note": 64, "velocity": 79, "duration": 316}, {"note": 0, "velocity": 0, "duration": 164}, {"note": 62, "velocity": 80, "duration": 143}, {"note": 64, "velocity": 80, "duration": 324}, {"note": 0, "velocity": 0, "duration": 1836}, {"note": 64, "velocity": 80, "duration": 101}, {"note": 64, "velocity": 80, "duration": 149}, {"note": 67, "velocity": 80, "duration": 237}, {"note": 64, "velocity": 80, "duration": 257}, {"note": 67, "velocity": 80, "duration": 214}, {"note": 64, "velocity": 80, "duration": 275}, {"note": 0, "velocity": 0, "duration": 205}, {"note": 74, "velocity": 81, "duration": 204}, {"note": 71, "velocity": 81, "duration": 379}, {"note": 0, "velocity": 0, "duration": 720}, {"note": 71, "velocity": 82, "duration": 132}, {"note": 74, "velocity": 82, "duration": 81}, {"note": 76, "velocity": 82, "duration": 246}, {"note": 0, "velocity": 0, "duration": 114}, {"note": 76, "velocity": 83, "duration": 51}, {"note": 0, "velocity": 0, "duration": 69}, {"note": 76, "velocity": 83, "duration": 222}, {"note": 74, "velocity": 83, "duration": 148}, {"note": 0, "velocity": 0, "duration": 92}, {"note": 71, "velocity": 83, "duration": 160}, {"note": 0, "velocity": 0, "duration": 80}, {"note": 64, "velocity": 83, "duration": 188}, {"note": 69, "velocity": 83, "duration": 538}, {"note": 0, "velocity": 0, "duration": 662}, {"note": 67, "velocity": 83, "duration": 110}, {"note": 69, "velocity": 83, "duration": 78}, {"note": 71, "velocity": 83, "duration": 163}, {"note": 0, "velocity": 0, "duration": 77}, {"note": 74, "velocity": 83, "duration": 206}, {"note": 0, "velocity": 0, "duration": 274}, {"note": 74, "velocity": 83, "duration": 137}, {"note": 71, "velocity": 83, "duration": 23}, {"note": 69, "velocity": 83, "duration": 106}, {"note": 0, "velocity": 0, "duration": 134}, {"note": 67, "velocity": 83, "duration": 324}, {"note": 0, "velocity": 0, "duration": 156}, {"note": 69, "velocity": 83, "duration": 238}, {"note": 64, "velocity": 83, "duration": 1361}, {"note": 0, "velocity": 0, "duration": 720}, {"note": 64, "velocity": 84, "duration": 113}, {"note": 71, "velocity": 84, "duration": 67}, {"note": 69, "velocity": 84, "duration": 164}, {"note": 0, "velocity": 0, "duration": 76}, {"note": 67, "velocity": 84, "duration": 102}, {"note": 0, "velocity": 0, "duration": 138}, {"note": 66, "velocity": 84, "duration": 195}, {"note": 64, "velocity": 84, "duration": 316}, {"note": 0, "velocity": 0, "duration": 164}, {"note": 62, "velocity": 86, "duration": 143}, {"note": 0, "velocity": 0, "duration": 97}, {"note": 64, "velocity": 86, "duration": 324}, {"note": 0, "velocity": 0, "duration": 720}, {"note": 64, "velocity": 87, "duration": 101}, {"note": 64, "velocity": 87, "duration": 149}, {"note": 67, "velocity": 87, "duration": 237}, {"note": 64, "velocity": 87, "duration": 17}, {"note": 67, "velocity": 87, "duration": 214}, {"note": 64, "velocity": 87, "duration": 35}, {"note": 0, "velocity": 0, "duration": 205}, {"note": 74, "velocity": 87, "duration": 204}, {"note": 71, "velocity": 87, "duration": 379}, {"note": 0, "velocity": 0, "duration": 821}, {"note": 71, "velocity": 87, "duration": 132}, {"note": 74, "velocity": 87, "duration": 81}, {"note": 76, "velocity": 87, "duration": 246}, {"note": 0, "velocity": 0, "duration": 114}, {"note": 76, "velocity": 86, "duration": 51}, {"note": 0, "velocity": 0, "duration": 69}, {"note": 76, "velocity": 86, "duration": 222}, {"note": 74, "velocity": 86, "duration": 148}, {"note": 0, "velocity": 0, "duration": 92}, {"note": 71, "velocity": 86, "duration": 640}, {"note": 0, "velocity": 0, "duration": 80}, {"note": 64, "velocity": 85, "duration": 188}, {"note": 69, "velocity": 85, "duration": 1018}, {"note": 0, "velocity": 0, "duration": 120}, {"note": 67, "velocity": 85, "duration": 48}, {"note": 0, "velocity": 0, "duration": 72}, {"note": 67, "velocity": 85, "duration": 110}, {"note": 69, "velocity": 85, "duration": 78}, {"note": 71, "velocity": 85, "duration": 163}, {"note": 0, "velocity": 0, "duration": 77}, {"note": 74, "velocity": 85, "duration": 206}, {"note": 0, "velocity": 0, "duration": 274}, {"note": 74, "velocity": 85, "duration": 137}, {"note": 71, "velocity": 85, "duration": 126}, {"note": 69, "velocity": 85, "duration": 106}, {"note": 0, "velocity": 0, "duration": 134}, {"note": 67, "velocity": 85, "duration": 324}, {"note": 0, "velocity": 0, "duration": 156}, {"note": 69, "velocity": 85, "duration": 238}, {"note": 64, "velocity": 85, "duration": 1361}, {"note": 0, "velocity": 0, "duration": 360}, {"note": 71, "velocity": 84, "duration": 77}, {"note": 76, "velocity": 84, "duration": 130}, {"note": 0, "velocity": 0, "duration": 110}, {"note": 76, "velocity": 83, "duration": 55}, {"note": 0, "velocity": 0, "duration": 65}, {"note": 76, "velocity": 82, "duration": 61}, {"note": 74, "velocity": 82, "duration": 143}, {"note": 0, "velocity": 0, "duration": 97}, {"note": 76, "velocity": 82, "duration": 67}, {"note": 74, "velocity": 81, "duration": 62}, {"note": 71, "velocity": 81, "duration": 367}, {"note": 0, "velocity": 0, "duration": 113}, {"note": 79, "velocity": 81, "duration": 124}, {"note": 0, "velocity": 0, "duration": 116}, {"note": 76, "velocity": 81, "duration": 131}, {"note": 0, "velocity": 0, "duration": 109}, {"note": 74, "velocity": 81, "duration": 154}, {"note": 0, "velocity": 0, "duration": 86}, {"note": 69, "velocity": 81, "duration": 611}, {"note": 74, "velocity": 80, "duration": 172}, {"note": 0, "velocity": 0, "duration": 68}, {"note": 71, "velocity": 80, "duration": 995}, {"note": 64, "velocity": 79, "duration": 84}, {"note": 69, "velocity": 79, "duration": 51}, {"note": 0, "velocity": 0, "duration": 69}, {"note": 69, "velocity": 79, "duration": 54}, {"note": 0, "velocity": 0, "duration": 66}, {"note": 69, "velocity": 79, "duration": 49}, {"note": 69, "velocity": 79, "duration": 151}, {"note": 0, "velocity": 0, "duration": 89}, {"note": 67, "velocity": 79, "duration": 154}, {"note": 0, "velocity": 0, "duration": 86}, {"note": 69, "velocity": 79, "duration": 60}, {"note": 69, "velocity": 79, "duration": 146}, {"note": 0, "velocity": 0, "duration": 94}, {"note": 71, "velocity": 79, "duration": 68}, {"note": 69, "velocity": 79, "duration": 183}, {"note": 67, "velocity": 79, "duration": 113}, {"note": 69, "velocity": 79, "duration": 71}, {"note": 74, "velocity": 79, "duration": 162}, {"note": 0, "velocity": 0, "duration": 78}, {"note": 76, "velocity": 79, "duration": 337}, {"note": 0, "velocity": 0, "duration": 143}, {"note": 74, "velocity": 79, "duration": 144}, {"note": 0, "velocity": 0, "duration": 96}, {"note": 71, "velocity": 79, "duration": 846}, {"note": 71, "velocity": 78, "duration": 202}, {"note": 76, "velocity": 78, "duration": 140}, {"note": 0, "velocity": 0, "duration": 100}, {"note": 76, "velocity": 78, "duration": 205}, {"note": 0, "velocity": 0, "duration": 155}, {"note": 74, "velocity": 78, "duration": 72}, {"note": 76, "velocity": 78, "duration": 139}, {"note": 0, "velocity": 0, "duration": 101}, {"note": 76, "velocity": 78, "duration": 52}, {"note": 0, "velocity": 0, "duration": 68}, {"note": 76, "velocity": 78, "duration": 219}, {"note": 0, "velocity": 0, "duration": 141}, {"note": 79, "velocity": 78, "duration": 163}, {"note": 67, "velocity": 78, "duration": 364}, {"note": 64, "velocity": 78, "duration": 302}, {"note": 71, "velocity": 78, "duration": 179}, {"note": 69, "velocity": 78, "duration": 674}, {"note": 67, "velocity": 79, "duration": 135}, {"note": 69, "velocity": 79, "duration": 133}, {"note": 71, "velocity": 79, "duration": 55}, {"note": 0, "velocity": 0, "duration": 65}, {"note": 74, "velocity": 79, "duration": 52}, {"note": 0, "velocity": 0, "duration": 68}, {"note": 74, "velocity": 79, "duration": 53}, {"note": 0, "velocity": 0, "duration": 67}, {"note": 74, "velocity": 79, "duration": 48}, {"note": 0, "velocity": 0, "duration": 72}, {"note": 74, "velocity": 79, "duration": 150}, {"note": 0, "velocity": 0, "duration": 90}, {"note": 71, "velocity": 79, "duration": 173}, {"note": 0, "velocity": 0, "duration": 67}, {"note": 79, "velocity": 79, "duration": 146}, {"note": 0, "velocity": 0, "duration": 94}, {"note": 81, "velocity": 79, "duration": 326}, {"note": 0, "velocity": 0, "duration": 154}, {"note": 79, "velocity": 79, "duration": 130}, {"note": 76, "velocity": 79, "duration": 892}, {"note": 0, "velocity": 0, "duration": 720}, {"note": 64, "velocity": 82, "duration": 113}, {"note": 71, "velocity": 82, "duration": 67}, {"note": 69, "velocity": 82, "duration": 164}, {"note": 0, "velocity": 0, "duration": 76}, {"note": 67, "velocity": 82, "duration": 102}, {"note": 0, "velocity": 0, "duration": 138}, {"note": 66, "velocity": 82, "duration": 195}, {"note": 64, "velocity": 82, "duration": 316}, {"note": 0, "velocity": 0, "duration": 164}, {"note": 62, "velocity": 82, "duration": 143}, {"note": 64, "velocity": 82, "duration": 324}, {"note": 0, "velocity": 0, "duration": 1836}, {"note": 64, "velocity": 82, "duration": 101}, {"note": 64, "velocity": 82, "duration": 149}, {"note": 67, "velocity": 82, "duration": 237}, {"note": 64, "velocity": 82, "duration": 257}, {"note": 67, "velocity": 82, "duration": 214}, {"note": 64, "velocity": 82, "duration": 275}, {"note": 0, "velocity": 0, "duration": 205}, {"note": 74, "velocity": 82, "duration": 204}, {"note": 71, "velocity": 82, "duration": 859}, {"note": 0, "velocity": 0, "duration": 821}, {"note": 71, "velocity": 82, "duration": 132}, {"note": 74, "velocity": 82, "duration": 81}, {"note": 76, "velocity": 82, "duration": 246}, {"note": 0, "velocity": 0, "duration": 114}, {"note": 76, "velocity": 82, "duration": 51}, {"note": 0, "velocity": 0, "duration": 69}, {"note": 76, "velocity": 82, "duration": 222}, {"note": 74, "velocity": 82, "duration": 148}, {"note": 0, "velocity": 0, "duration": 92}, {"note": 71, "velocity": 82, "duration": 640}, {"note": 0, "velocity": 0, "duration": 80}, {"note": 64, "velocity": 81, "duration": 188}, {"note": 69, "velocity": 81, "duration": 58}, {"note": 0, "velocity": 0, "duration": 542}, {"note": 67, "velocity": 81, "duration": 48}, {"note": 0, "velocity": 0, "duration": 72}, {"note": 67, "velocity": 81, "duration": 110}, {"note": 69, "velocity": 81, "duration": 78}, {"note": 71, "velocity": 81, "duration": 163}, {"note": 0, "velocity": 0, "duration": 77}, {"note": 74, "velocity": 81, "duration": 206}, {"note": 0, "velocity": 0, "duration": 240}, {"note": 74, "velocity": 81, "duration": 137}, {"note": 71, "velocity": 81, "duration": 126}, {"note": 69, "velocity": 81, "duration": 106}, {"note": 0, "velocity": 0, "duration": 134}, {"note": 67, "velocity": 81, "duration": 324}, {"note": 0, "velocity": 0, "duration": 156}, {"note": 69, "velocity": 81, "duration": 238}, {"note": 64, "velocity": 81, "duration": 1361}, {"note": 0, "velocity": 0, "duration": 439}, {"note": 71, "velocity": 81, "duration": 77}, {"note": 76, "velocity": 81, "duration": 130}, {"note": 0, "velocity": 0, "duration": 110}, {"note": 76, "velocity": 81, "duration": 55}, {"note": 0, "velocity": 0, "duration": 65}, {"note": 76, "velocity": 81, "duration": 61}, {"note": 74, "velocity": 81, "duration": 143}, {"note": 0, "velocity": 0, "duration": 97}, {"note": 76, "velocity": 81, "duration": 67}, {"note": 74, "velocity": 81, "duration": 62}, {"note": 71, "velocity": 81, "duration": 367}, {"note": 0, "velocity": 0, "duration": 113}, {"note": 79, "velocity": 81, "duration": 124}, {"note": 0, "velocity": 0, "duration": 116}, {"note": 76, "velocity": 81, "duration": 131}, {"note": 74, "velocity": 81, "duration": 154}, {"note": 0, "velocity": 0, "duration": 86}, {"note": 69, "velocity": 81, "duration": 611}, {"note": 74, "velocity": 81, "duration": 172}, {"note": 0, "velocity": 0, "duration": 68}, {"note": 71, "velocity": 81, "duration": 35}, {"note": 64, "velocity": 81, "duration": 84}, {"note": 69, "velocity": 81, "duration": 51}, {"note": 0, "velocity": 0, "duration": 69}, {"note": 69, "velocity": 81, "duration": 54}, {"note": 0, "velocity": 0, "duration": 66}, {"note": 69, "velocity": 81, "duration": 49}, {"note": 0, "velocity": 0, "duration": 71}, {"note": 69, "velocity": 81, "duration": 151}, {"note": 0, "velocity": 0, "duration": 89}, {"note": 67, "velocity": 81, "duration": 154}, {"note": 69, "velocity": 81, "duration": 60}, {"note": 69, "velocity": 81, "duration": 146}, {"note": 0, "velocity": 0, "duration": 94}, {"note": 71, "velocity": 81, "duration": 68}, {"note": 69, "velocity": 81, "duration": 183}, {"note": 67, "velocity": 81, "duration": 113}, {"note": 69, "velocity": 81, "duration": 71}, {"note": 74, "velocity": 81, "duration": 162}, {"note": 0, "velocity": 0, "duration": 78}, {"note": 76, "velocity": 81, "duration": 337}, {"note": 0, "velocity": 0, "duration": 143}, {"note": 74, "velocity": 81, "duration": 144}, {"note": 0, "velocity": 0, "duration": 96}, {"note": 71, "velocity": 81, "duration": 846}, {"note": 0, "velocity": 0, "duration": 114}, {"note": 71, "velocity": 81, "duration": 202}, {"note": 76, "velocity": 81, "duration": 140}, {"note": 0, "velocity": 0, "duration": 100}, {"note": 76, "velocity": 81, "duration": 205}, {"note": 0, "velocity": 0, "duration": 155}, {"note": 74, "velocity": 81, "duration": 72}, {"note": 76, "velocity": 81, "duration": 139}, {"note": 0, "velocity": 0, "duration": 101}, {"note": 76, "velocity": 81, "duration": 52}, {"note": 0, "velocity": 0, "duration": 68}, {"note": 76, "velocity": 81, "duration": 219}, {"note": 0, "velocity": 0, "duration": 141}, {"note": 79, "velocity": 81, "duration": 163}, {"note": 0, "velocity": 0, "duration": 77}, {"note": 67, "velocity": 81, "duration": 364}, {"note": 64, "velocity": 82, "duration": 186}, {"note": 71, "velocity": 82, "duration": 179}, {"note": 0, "velocity": 0, "duration": 61}, {"note": 69, "velocity": 83, "duration": 194}, {"note": 67, "velocity": 83, "duration": 135}, {"note": 69, "velocity": 83, "duration": 28}, {"note": 71, "velocity": 83, "duration": 55}, {"note": 0, "velocity": 0, "duration": 65}, {"note": 74, "velocity": 83, "duration": 52}, {"note": 0, "velocity": 0, "duration": 68}, {"note": 74, "velocity": 83, "duration": 53}, {"note": 0, "velocity": 0, "duration": 67}, {"note": 74, "velocity": 83, "duration": 48}, {"note": 0, "velocity": 0, "duration": 72}, {"note": 74, "velocity": 83, "duration": 150}, {"note": 0, "velocity": 0, "duration": 90}, {"note": 71, "velocity": 83, "duration": 173}, {"note": 0, "velocity": 0, "duration": 67}, {"note": 79, "velocity": 83, "duration": 146}, {"note": 0, "velocity": 0, "duration": 94}, {"note": 81, "velocity": 83, "duration": 86}, {"note": 0, "velocity": 0, "duration": 154}, {"note": 79, "velocity": 84, "duration": 130}, {"note": 0, "velocity": 0, "duration": 110}, {"note": 76, "velocity": 84, "duration": 412}, {"note": 0, "velocity": 0, "duration": 428}, {"note": 71, "velocity": 84, "duration": 77}, {"note": 76, "velocity": 84, "duration": 130}, {"note": 0, "velocity": 0, "duration": 110}, {"note": 76, "velocity": 84, "duration": 55}, {"note": 0, "velocity": 0, "duration": 65}, {"note": 76, "velocity": 84, "duration": 61}, {"note": 74, "velocity": 84, "duration": 143}, {"note": 0, "velocity": 0, "duration": 97}, {"note": 76, "velocity": 84, "duration": 67}, {"note": 74, "velocity": 84, "duration": 62}, {"note": 71, "velocity": 84, "duration": 367}, {"note": 0, "velocity": 0, "duration": 113}, {"note": 79, "velocity": 85, "duration": 124}, {"note": 0, "velocity": 0, "duration": 116}, {"note": 76, "velocity": 85, "duration": 131}, {"note": 0, "velocity": 0, "duration": 109}, {"note": 74, "velocity": 85, "duration": 154}, {"note": 69, "velocity": 85, "duration": 611}, {"note": 74, "velocity": 85, "duration": 172}, {"note": 0, "velocity": 0, "duration": 68}, {"note": 71, "velocity": 85, "duration": 995}, {"note": 64, "velocity": 85, "duration": 84}, {"note": 69, "velocity": 85, "duration": 51}, {"note": 0, "velocity": 0, "duration": 69}, {"note": 69, "velocity": 85, "duration": 54}, {"note": 0, "velocity": 0, "duration": 66}, {"note": 69, "velocity": 85, "duration": 49}, {"note": 69, "velocity": 85, "duration": 151}, {"note": 0, "velocity": 0, "duration": 89}, {"note": 67, "velocity": 85, "duration": 154}, {"note": 69, "velocity": 85, "duration": 60}, {"note": 69, "velocity": 85, "duration": 146}, {"note": 0, "velocity": 0, "duration": 94}, {"note": 71, "velocity": 85, "duration": 68}, {"note": 69, "velocity": 85, "duration": 183}, {"note": 67, "velocity": 85, "duration": 113}, {"note": 69, "velocity": 86, "duration": 71}, {"note": 74, "velocity": 86, "duration": 162}, {"note": 0, "velocity": 0, "duration": 78}, {"note": 76, "velocity": 86, "duration": 97}, {"note": 0, "velocity": 0, "duration": 143}, {"note": 74, "velocity": 87, "duration": 144}, {"note": 0, "velocity": 0, "duration": 96}, {"note": 71, "velocity": 87, "duration": 846}, {"note": 0, "velocity": 0, "duration": 114}, {"note": 71, "velocity": 87, "duration": 202}, {"note": 76, "velocity": 87, "duration": 140}, {"note": 0, "velocity": 0, "duration": 100}, {"note": 76, "velocity": 87, "duration": 205}, {"note": 0, "velocity": 0, "duration": 155}, {"note": 74, "velocity": 86, "duration": 72}, {"note": 76, "velocity": 86, "duration": 139}, {"note": 0, "velocity": 0, "duration": 101}, {"note": 76, "velocity": 86, "duration": 52}, {"note": 0, "velocity": 0, "duration": 68}, {"note": 76, "velocity": 86, "duration": 219}, {"note": 0, "velocity": 0, "duration": 141}, {"note": 79, "velocity": 85, "duration": 163}, {"note": 67, "velocity": 85, "duration": 364}, {"note": 64, "velocity": 85, "duration": 186}, {"note": 71, "velocity": 85, "duration": 179}, {"note": 0, "velocity": 0, "duration": 61}, {"note": 69, "velocity": 85, "duration": 194}, {"note": 67, "velocity": 85, "duration": 135}, {"note": 69, "velocity": 85, "duration": 133}, {"note": 71, "velocity": 85, "duration": 55}, {"note": 0, "velocity": 0, "duration": 65}, {"note": 74, "velocity": 85, "duration": 52}, {"note": 0, "velocity": 0, "duration": 68}, {"note": 74, "velocity": 85, "duration": 53}, {"note": 0, "velocity": 0, "duration": 67}, {"note": 74, "velocity": 85, "duration": 48}, {"note": 0, "velocity": 0, "duration": 72}, {"note": 74, "velocity": 85, "duration": 150}, {"note": 0, "velocity": 0, "duration": 90}, {"note": 71, "velocity": 85, "duration": 173}, {"note": 0, "velocity": 0, "duration": 67}, {"note": 79, "velocity": 85, "duration": 146}, {"note": 0, "velocity": 0, "duration": 94}, {"note": 81, "velocity": 85, "duration": 326}, {"note": 0, "velocity": 0, "duration": 154}, {"note": 79, "velocity": 85, "duration": 130}, {"note": 0, "velocity": 0, "duration": 110}, {"note": 76, "velocity": 85, "duration": 412}, {"note": 0, "velocity": 0, "duration": 548}, {"note": 71, "velocity": 85, "duration": 229}, {"note": 76, "velocity": 85, "duration": 174}, {"note": 0, "velocity": 0, "duration": 66}, {"note": 76, "velocity": 85, "duration": 226}, {"note": 0, "velocity": 0, "duration": 134}, {"note": 74, "velocity": 86, "duration": 29}, {"note": 76, "velocity": 86, "duration": 167}, {"note": 0, "velocity": 0, "duration": 73}, {"note": 76, "velocity": 86, "duration": 64}, {"note": 76, "velocity": 87, "duration": 211}, {"note": 0, "velocity": 0, "duration": 149}, {"note": 79, "velocity": 87, "duration": 143}, {"note": 67, "velocity": 87, "duration": 358}, {"note": 64, "velocity": 87, "duration": 333}, {"note": 71, "velocity": 87, "duration": 194}, {"note": 69, "velocity": 87, "duration": 230}, {"note": 0, "velocity": 0, "duration": 490}, {"note": 67, "velocity": 88, "duration": 148}, {"note": 69, "velocity": 88, "duration": 63}, {"note": 71, "velocity": 88, "duration": 58}, {"note": 0, "velocity": 0, "duration": 62}, {"note": 74, "velocity": 88, "duration": 44}, {"note": 0, "velocity": 0, "duration": 76}, {"note": 74, "velocity": 88, "duration": 59}, {"note": 0, "velocity": 0, "duration": 61}, {"note": 74, "velocity": 88, "duration": 50}, {"note": 0, "velocity": 0, "duration": 70}, {"note": 74, "velocity": 88, "duration": 151}, {"note": 0, "velocity": 0, "duration": 89}, {"note": 71, "velocity": 88, "duration": 105}, {"note": 79, "velocity": 88, "duration": 195}, {"note": 81, "velocity": 88, "duration": 1549}, {"note": 0, "velocity": 0, "duration": 611}, {"note": 79, "velocity": 88, "duration": 240}, {"note": 76, "velocity": 88, "duration": 2436}]]