[[{"note": 76, "velocity": 66, "duration": 243}, {"note": 83, "velocity": 85, "duration": 219}, {"note": 81, "velocity": 69, "duration": 97}, {"note": 0, "velocity": 0, "duration": 143}, {"note": 83, "velocity": 98, "duration": 204}, {"note": 81, "velocity": 64, "duration": 89}, {"note": 0, "velocity": 0, "duration": 151}, {"note": 81, "velocity": 71, "duration": 220}, {"note": 83, "velocity": 74, "duration": 194}, {"note": 83, "velocity": 98, "duration": 604}, {"note": 0, "velocity": 0, "duration": 356}, {"note": 79, "velocity": 74, "duration": 264}, {"note": 81, "velocity": 74, "duration": 274}, {"note": 83, "velocity": 63, "duration": 197}, {"note": 76, "velocity": 63, "duration": 197}, {"note": 79, "velocity": 66, "duration": 237}, {"note": 76, "velocity": 56, "duration": 270}, {"note": 79, "velocity": 64, "duration": 250}, {"note": 76, "velocity": 63, "duration": 114}, {"note": 0, "velocity": 0, "duration": 126}, {"note": 76, "velocity": 73, "duration": 954}, {"note": 0, "velocity": 0, "duration": 486}, {"note": 76, "velocity": 90, "duration": 160}, {"note": 0, "velocity": 0, "duration": 80}, {"note": 79, "velocity": 95, "duration": 92}, {"note": 0, "velocity": 0, "duration": 148}, {"note": 79, "velocity": 75, "duration": 252}, {"note": 76, "velocity": 72, "duration": 218}, {"note": 78, "velocity": 62, "duration": 141}, {"note": 0, "velocity": 0, "duration": 99}, {"note": 79, "velocity": 83, "duration": 115}, {"note": 0, "velocity": 0, "duration": 125}, {"note": 81, "velocity": 108, "duration": 330}, {"note": 0, "velocity": 0, "duration": 1110}, {"note": 84, "velocity": 87, "duration": 92}, {"note": 0, "velocity": 0, "duration": 148}, {"note": 84, "velocity": 74, "duration": 80}, {"note": 0, "velocity": 0, "duration": 160}, {"note": 84, "velocity": 83, "duration": 93}, {"note": 0, "velocity": 0, "duration": 147}, {"note": 79, "velocity": 79, "duration": 97}, {"note": 0, "velocity": 0, "duration": 143}, {"note": 79, "velocity": 77, "duration": 112}, {"note": 0, "velocity": 0, "duration": 128}, {"note": 81, "velocity": 86, "duration": 89}, {"note": 0, "velocity": 0, "duration": 151}, {"note": 83, "velocity": 120, "duration": 956}, {"note": 0, "velocity": 0, "duration": 244}, {"note": 76, "velocity": 66, "duration": 243}, {"note": 83, "velocity": 85, "duration": 219}, {"note": 81, "velocity": 69, "duration": 97}, {"note": 0, "velocity": 0, "duration": 143}, {"note": 83, "velocity": 98, "duration": 204}, {"note": 81, "velocity": 64, "duration": 89}, {"note": 0, "velocity": 0, "duration": 151}, {"note": 81, "velocity": 71, "duration": 220}, {"note": 83, "velocity": 74, "duration": 194}, {"note": 83, "velocity": 98, "duration": 604}, {"note": 0, "velocity": 0, "duration": 596}, {"note": 71, "velocity": 61, "duration": 201}, {"note": 83, "velocity": 75, "duration": 135}, {"note": 0, "velocity": 0, "duration": 105}, {"note": 81, "velocity": 68, "duration": 83}, {"note": 0, "velocity": 0, "duration": 157}, {"note": 83, "velocity": 77, "duration": 146}, {"note": 0, "velocity": 0, "duration": 94}, {"note": 81, "velocity": 69, "duration": 91}, {"note": 0, "velocity": 0, "duration": 149}, {"note": 79, "velocity": 81, "duration": 94}, {"note": 0, "velocity": 0, "duration": 146}, {"note": 76, "velocity": 63, "duration": 114}, {"note": 0, "velocity": 0, "duration": 126}, {"note": 76, "velocity": 73, "duration": 954}, {"note": 0, "velocity": 0, "duration": 486}, {"note": 76, "velocity": 90, "duration": 160}, {"note": 0, "velocity": 0, "duration": 80}, {"note": 79, "velocity": 95, "duration": 92}, {"note": 0, "velocity": 0, "duration": 148}, {"note": 79, "velocity": 75, "duration": 252}, {"note": 76, "velocity": 72, "duration": 218}, {"note": 79, "velocity": 62, "duration": 141}, {"note": 0, "velocity": 0, "duration": 87}, {"note": 81, "velocity": 83, "duration": 116}, {"note": 0, "velocity": 0, "duration": 136}, {"note": 81, "velocity": 108, "duration": 330}, {"note": 0, "velocity": 0, "duration": 870}, {"note": 83, "velocity": 98, "duration": 176}, {"note": 0, "velocity": 0, "duration": 64}, {"note": 84, "velocity": 87, "duration": 92}, {"note": 0, "velocity": 0, "duration": 148}, {"note": 84, "velocity": 74, "duration": 80}, {"note": 0, "velocity": 0, "duration": 160}, {"note": 84, "velocity": 83, "duration": 93}, {"note": 0, "velocity": 0, "duration": 147}, {"note": 79, "velocity": 79, "duration": 97}, {"note": 0, "velocity": 0, "duration": 143}, {"note": 81, "velocity": 77, "duration": 112}, {"note": 0, "velocity": 0, "duration": 128}, {"note": 83, "velocity": 86, "duration": 89}, {"note": 0, "velocity": 0, "duration": 151}, {"note": 83, "velocity": 120, "duration": 956}, {"note": 0, "velocity": 0, "duration": 484}, {"note": 81, "velocity": 90, "duration": 206}, {"note": 79, "velocity": 74, "duration": 77}, {"note": 0, "velocity": 0, "duration": 163}, {"note": 81, "velocity": 98, "duration": 220}, {"note": 79, "velocity": 67, "duration": 133}, {"note": 0, "velocity": 0, "duration": 107}, {"note": 81, "velocity": 93, "duration": 158}, {"note": 0, "velocity": 0, "duration": 82}, {"note": 83, "velocity": 87, "duration": 108}, {"note": 0, "velocity": 0, "duration": 132}, {"note": 81, "velocity": 111, "duration": 492}, {"note": 0, "velocity": 0, "duration": 948}, {"note": 79, "velocity": 79, "duration": 220}, {"note": 83, "velocity": 61, "duration": 93}, {"note": 0, "velocity": 0, "duration": 147}, {"note": 83, "velocity": 100, "duration": 128}, {"note": 0, "velocity": 0, "duration": 112}, {"note": 81, "velocity": 75, "duration": 94}, {"note": 0, "velocity": 0, "duration": 146}, {"note": 81, "velocity": 74, "duration": 128}, {"note": 0, "velocity": 0, "duration": 112}, {"note": 79, "velocity": 71, "duration": 113}, {"note": 0, "velocity": 0, "duration": 127}, {"note": 79, "velocity": 87, "duration": 115}, {"note": 0, "velocity": 0, "duration": 125}, {"note": 76, "velocity": 83, "duration": 91}, {"note": 0, "velocity": 0, "duration": 149}, {"note": 76, "velocity": 86, "duration": 290}, {"note": 0, "velocity": 0, "duration": 430}, {"note": 76, "velocity": 62, "duration": 118}, {"note": 0, "velocity": 0, "duration": 122}, {"note": 79, "velocity": 104, "duration": 86}, {"note": 0, "velocity": 0, "duration": 154}, {"note": 79, "velocity": 93, "duration": 81}, {"note": 0, "velocity": 0, "duration": 159}, {"note": 79, "velocity": 93, "duration": 76}, {"note": 0, "velocity": 0, "duration": 164}, {"note": 79, "velocity": 85, "duration": 86}, {"note": 0, "velocity": 0, "duration": 154}, {"note": 79, "velocity": 95, "duration": 122}, {"note": 0, "velocity": 0, "duration": 118}, {"note": 76, "velocity": 76, "duration": 100}, {"note": 0, "velocity": 0, "duration": 140}, {"note": 79, "velocity": 95, "duration": 157}, {"note": 0, "velocity": 0, "duration": 1283}, {"note": 78, "velocity": 83, "duration": 107}, {"note": 0, "velocity": 0, "duration": 133}, {"note": 78, "velocity": 77, "duration": 92}, {"note": 0, "velocity": 0, "duration": 148}, {"note": 78, "velocity": 86, "duration": 79}, {"note": 0, "velocity": 0, "duration": 161}, {"note": 78, "velocity": 87, "duration": 85}, {"note": 0, "velocity": 0, "duration": 155}, {"note": 78, "velocity": 87, "duration": 108}, {"note": 0, "velocity": 0, "duration": 132}, {"note": 76, "velocity": 74, "duration": 89}, {"note": 0, "velocity": 0, "duration": 151}, {"note": 78, "velocity": 100, "duration": 1013}, {"note": 0, "velocity": 0, "duration": 427}, {"note": 83, "velocity": 95, "duration": 211}, {"note": 0, "velocity": 0, "duration": 269}, {"note": 88, "velocity": 104, "duration": 258}, {"note": 0, "velocity": 0, "duration": 222}, {"note": 83, "velocity": 98, "duration": 223}, {"note": 0, "velocity": 0, "duration": 257}, {"note": 86, "velocity": 98, "duration": 104}, {"note": 0, "velocity": 0, "duration": 136}, {"note": 88, "velocity": 108, "duration": 84}, {"note": 0, "velocity": 0, "duration": 156}, {"note": 88, "velocity": 117, "duration": 521}, {"note": 0, "velocity": 0, "duration": 439}, {"note": 88, "velocity": 76, "duration": 141}, {"note": 0, "velocity": 0, "duration": 99}, {"note": 91, "velocity": 83, "duration": 96}, {"note": 0, "velocity": 0, "duration": 144}, {"note": 88, "velocity": 79, "duration": 155}, {"note": 0, "velocity": 0, "duration": 85}, {"note": 86, "velocity": 77, "duration": 149}, {"note": 0, "velocity": 0, "duration": 91}, {"note": 88, "velocity": 79, "duration": 172}, {"note": 0, "velocity": 0, "duration": 68}, {"note": 86, "velocity": 79, "duration": 97}, {"note": 0, "velocity": 0, "duration": 143}, {"note": 83, "velocity": 93, "duration": 95}, {"note": 0, "velocity": 0, "duration": 145}, {"note": 81, "velocity": 86, "duration": 91}, {"note": 0, "velocity": 0, "duration": 149}, {"note": 83, "velocity": 121, "duration": 316}, {"note": 0, "velocity": 0, "duration": 644}, {"note": 76, "velocity": 81, "duration": 393}, {"note": 0, "velocity": 0, "duration": 87}, {"note": 83, "velocity": 79, "duration": 259}, {"note": 0, "velocity": 0, "duration": 221}, {"note": 81, "velocity": 104, "duration": 290}, {"note": 0, "velocity": 0, "duration": 190}, {"note": 83, "velocity": 98, "duration": 131}, {"note": 0, "velocity": 0, "duration": 109}, {"note": 88, "velocity": 85, "duration": 93}, {"note": 0, "velocity": 0, "duration": 147}, {"note": 88, "velocity": 111, "duration": 432}, {"note": 79, "velocity": 90, "duration": 317}, {"note": 0, "velocity": 0, "duration": 163}, {"note": 83, "velocity": 83, "duration": 245}, {"note": 88, "velocity": 90, "duration": 90}, {"note": 0, "velocity": 0, "duration": 150}, {"note": 88, "velocity": 93, "duration": 195}, {"note": 83, "velocity": 87, "duration": 184}, {"note": 88, "velocity": 93, "duration": 100}, {"note": 0, "velocity": 0, "duration": 140}, {"note": 90, "velocity": 98, "duration": 90}, {"note": 0, "velocity": 0, "duration": 150}, {"note": 90, "velocity": 117, "duration": 1020}, {"note": 0, "velocity": 0, "duration": 420}, {"note": 83, "velocity": 95, "duration": 211}, {"note": 0, "velocity": 0, "duration": 269}, {"note": 88, "velocity": 104, "duration": 258}, {"note": 0, "velocity": 0, "duration": 222}, {"note": 83, "velocity": 98, "duration": 223}, {"note": 0, "velocity": 0, "duration": 257}, {"note": 86, "velocity": 98, "duration": 104}, {"note": 0, "velocity": 0, "duration": 136}, {"note": 88, "velocity": 108, "duration": 84}, {"note": 0, "velocity": 0, "duration": 156}, {"note": 88, "velocity": 117, "duration": 521}, {"note": 0, "velocity": 0, "duration": 439}, {"note": 88, "velocity": 76, "duration": 141}, {"note": 0, "velocity": 0, "duration": 99}, {"note": 91, "velocity": 83, "duration": 96}, {"note": 0, "velocity": 0, "duration": 144}, {"note": 88, "velocity": 79, "duration": 155}, {"note": 0, "velocity": 0, "duration": 85}, {"note": 86, "velocity": 77, "duration": 149}, {"note": 0, "velocity": 0, "duration": 91}, {"note": 88, "velocity": 79, "duration": 172}, {"note": 0, "velocity": 0, "duration": 68}, {"note": 86, "velocity": 79, "duration": 97}, {"note": 0, "velocity": 0, "duration": 143}, {"note": 83, "velocity": 93, "duration": 95}, {"note": 0, "velocity": 0, "duration": 145}, {"note": 81, "velocity": 86, "duration": 91}, {"note": 0, "velocity": 0, "duration": 149}, {"note": 83, "velocity": 121, "duration": 834}, {"note": 0, "velocity": 0, "duration": 126}, {"note": 76, "velocity": 81, "duration": 393}, {"note": 0, "velocity": 0, "duration": 87}, {"note": 83, "velocity": 79, "duration": 259}, {"note": 0, "velocity": 0, "duration": 221}, {"note": 81, "velocity": 104, "duration": 290}, {"note": 0, "velocity": 0, "duration": 190}, {"note": 81, "velocity": 76, "duration": 161}, {"note": 0, "velocity": 0, "duration": 79}, {"note": 83, "velocity": 95, "duration": 91}, {"note": 0, "velocity": 0, "duration": 149}, {"note": 83, "velocity": 111, "duration": 270}, {"note": 0, "velocity": 0, "duration": 210}, {"note": 76, "velocity": 86, "duration": 369}, {"note": 0, "velocity": 0, "duration": 111}, {"note": 78, "velocity": 98, "duration": 81}, {"note": 0, "velocity": 0, "duration": 159}, {"note": 78, "velocity": 83, "duration": 80}, {"note": 0, "velocity": 0, "duration": 160}, {"note": 78, "velocity": 90, "duration": 88}, {"note": 0, "velocity": 0, "duration": 152}, {"note": 81, "velocity": 74, "duration": 114}, {"note": 0, "velocity": 0, "duration": 126}, {"note": 79, "velocity": 90, "duration": 76}, {"note": 0, "velocity": 0, "duration": 164}, {"note": 78, "velocity": 87, "duration": 104}, {"note": 0, "velocity": 0, "duration": 136}, {"note": 76, "velocity": 87, "duration": 1381}, {"note": 0, "velocity": 0, "duration": 25739}, {"note": 76, "velocity": 66, "duration": 243}, {"note": 83, "velocity": 85, "duration": 219}, {"note": 81, "velocity": 69, "duration": 97}, {"note": 0, "velocity": 0, "duration": 143}, {"note": 83, "velocity": 98, "duration": 204}, {"note": 81, "velocity": 64, "duration": 89}, {"note": 0, "velocity": 0, "duration": 151}, {"note": 81, "velocity": 71, "duration": 220}, {"note": 83, "velocity": 74, "duration": 194}, {"note": 83, "velocity": 98, "duration": 604}, {"note": 0, "velocity": 0, "duration": 356}, {"note": 79, "velocity": 74, "duration": 264}, {"note": 81, "velocity": 74, "duration": 274}, {"note": 83, "velocity": 63, "duration": 197}, {"note": 76, "velocity": 63, "duration": 197}, {"note": 79, "velocity": 66, "duration": 237}, {"note": 76, "velocity": 56, "duration": 270}, {"note": 79, "velocity": 64, "duration": 250}, {"note": 76, "velocity": 63, "duration": 114}, {"note": 0, "velocity": 0, "duration": 126}, {"note": 76, "velocity": 73, "duration": 954}, {"note": 0, "velocity": 0, "duration": 486}, {"note": 76, "velocity": 90, "duration": 160}, {"note": 0, "velocity": 0, "duration": 80}, {"note": 79, "velocity": 95, "duration": 92}, {"note": 0, "velocity": 0, "duration": 148}, {"note": 79, "velocity": 75, "duration": 252}, {"note": 76, "velocity": 72, "duration": 218}, {"note": 78, "velocity": 62, "duration": 141}, {"note": 0, "velocity": 0, "duration": 99}, {"note": 79, "velocity": 83, "duration": 115}, {"note": 0, "velocity": 0, "duration": 125}, {"note": 81, "velocity": 108, "duration": 330}, {"note": 0, "velocity": 0, "duration": 1110}, {"note": 84, "velocity": 87, "duration": 92}, {"note": 0, "velocity": 0, "duration": 148}, {"note": 84, "velocity": 74, "duration": 80}, {"note": 0, "velocity": 0, "duration": 160}, {"note": 84, "velocity": 83, "duration": 93}, {"note": 0, "velocity": 0, "duration": 147}, {"note": 79, "velocity": 79, "duration": 97}, {"note": 0, "velocity": 0, "duration": 143}, {"note": 79, "velocity": 77, "duration": 112}, {"note": 0, "velocity": 0, "duration": 128}, {"note": 81, "velocity": 86, "duration": 89}, {"note": 0, "velocity": 0, "duration": 151}, {"note": 83, "velocity": 120, "duration": 956}, {"note": 0, "velocity": 0, "duration": 244}, {"note": 76, "velocity": 66, "duration": 243}, {"note": 83, "velocity": 85, "duration": 219}, {"note": 81, "velocity": 69, "duration": 97}, {"note": 0, "velocity": 0, "duration": 143}, {"note": 83, "velocity": 98, "duration": 204}, {"note": 81, "velocity": 64, "duration": 89}, {"note": 0, "velocity": 0, "duration": 151}, {"note": 81, "velocity": 71, "duration": 220}, {"note": 83, "velocity": 74, "duration": 194}, {"note": 83, "velocity": 98, "duration": 604}, {"note": 0, "velocity": 0, "duration": 596}, {"note": 71, "velocity": 61, "duration": 201}, {"note": 83, "velocity": 75, "duration": 135}, {"note": 0, "velocity": 0, "duration": 105}, {"note": 81, "velocity": 68, "duration": 83}, {"note": 0, "velocity": 0, "duration": 157}, {"note": 83, "velocity": 77, "duration": 146}, {"note": 0, "velocity": 0, "duration": 94}, {"note": 81, "velocity": 69, "duration": 91}, {"note": 0, "velocity": 0, "duration": 149}, {"note": 79, "velocity": 81, "duration": 94}, {"note": 0, "velocity": 0, "duration": 146}, {"note": 76, "velocity": 63, "duration": 114}, {"note": 0, "velocity": 0, "duration": 126}, {"note": 76, "velocity": 73, "duration": 954}, {"note": 0, "velocity": 0, "duration": 486}, {"note": 76, "velocity": 90, "duration": 160}, {"note": 0, "velocity": 0, "duration": 80}, {"note": 79, "velocity": 95, "duration": 92}, {"note": 0, "velocity": 0, "duration": 148}, {"note": 79, "velocity": 75, "duration": 252}, {"note": 76, "velocity": 72, "duration": 218}, {"note": 79, "velocity": 62, "duration": 141}, {"note": 0, "velocity": 0, "duration": 87}, {"note": 81, "velocity": 83, "duration": 116}, {"note": 0, "velocity": 0, "duration": 136}, {"note": 81, "velocity": 108, "duration": 330}, {"note": 0, "velocity": 0, "duration": 870}, {"note": 83, "velocity": 98, "duration": 176}, {"note": 0, "velocity": 0, "duration": 64}, {"note": 84, "velocity": 87, "duration": 92}, {"note": 0, "velocity": 0, "duration": 148}, {"note": 84, "velocity": 74, "duration": 80}, {"note": 0, "velocity": 0, "duration": 160}, {"note": 84, "velocity": 83, "duration": 93}, {"note": 0, "velocity": 0, "duration": 147}, {"note": 79, "velocity": 79, "duration": 97}, {"note": 0, "velocity": 0, "duration": 143}, {"note": 81, "velocity": 77, "duration": 112}, {"note": 0, "velocity": 0, "duration": 128}, {"note": 83, "velocity": 86, "duration": 89}, {"note": 0, "velocity": 0, "duration": 151}, {"note": 83, "velocity": 120, "duration": 956}, {"note": 0, "velocity": 0, "duration": 484}, {"note": 81, "velocity": 90, "duration": 206}, {"note": 79, "velocity": 74, "duration": 77}, {"note": 0, "velocity": 0, "duration": 163}, {"note": 81, "velocity": 98, "duration": 220}, {"note": 79, "velocity": 67, "duration": 133}, {"note": 0, "velocity": 0, "duration": 107}, {"note": 81, "velocity": 93, "duration": 158}, {"note": 0, "velocity": 0, "duration": 82}, {"note": 83, "velocity": 87, "duration": 108}, {"note": 0, "velocity": 0, "duration": 132}, {"note": 81, "velocity": 111, "duration": 492}, {"note": 0, "velocity": 0, "duration": 948}, {"note": 79, "velocity": 79, "duration": 220}, {"note": 83, "velocity": 61, "duration": 93}, {"note": 0, "velocity": 0, "duration": 147}, {"note": 83, "velocity": 100, "duration": 128}, {"note": 0, "velocity": 0, "duration": 112}, {"note": 81, "velocity": 75, "duration": 94}, {"note": 0, "velocity": 0, "duration": 146}, {"note": 81, "velocity": 74, "duration": 128}, {"note": 0, "velocity": 0, "duration": 112}, {"note": 79, "velocity": 71, "duration": 113}, {"note": 0, "velocity": 0, "duration": 127}, {"note": 79, "velocity": 87, "duration": 115}, {"note": 0, "velocity": 0, "duration": 125}, {"note": 76, "velocity": 83, "duration": 91}, {"note": 0, "velocity": 0, "duration": 149}, {"note": 76, "velocity": 86, "duration": 290}, {"note": 0, "velocity": 0, "duration": 430}, {"note": 76, "velocity": 62, "duration": 118}, {"note": 0, "velocity": 0, "duration": 122}, {"note": 79, "velocity": 104, "duration": 86}, {"note": 0, "velocity": 0, "duration": 154}, {"note": 79, "velocity": 93, "duration": 81}, {"note": 0, "velocity": 0, "duration": 159}, {"note": 79, "velocity": 93, "duration": 76}, {"note": 0, "velocity": 0, "duration": 164}, {"note": 79, "velocity": 85, "duration": 86}, {"note": 0, "velocity": 0, "duration": 154}, {"note": 79, "velocity": 95, "duration": 122}, {"note": 0, "velocity": 0, "duration": 118}, {"note": 76, "velocity": 76, "duration": 100}, {"note": 0, "velocity": 0, "duration": 140}, {"note": 79, "velocity": 95, "duration": 157}, {"note": 0, "velocity": 0, "duration": 1283}, {"note": 78, "velocity": 83, "duration": 107}, {"note": 0, "velocity": 0, "duration": 133}, {"note": 78, "velocity": 77, "duration": 92}, {"note": 0, "velocity": 0, "duration": 148}, {"note": 78, "velocity": 86, "duration": 79}, {"note": 0, "velocity": 0, "duration": 161}, {"note": 78, "velocity": 87, "duration": 85}, {"note": 0, "velocity": 0, "duration": 155}, {"note": 78, "velocity": 87, "duration": 108}, {"note": 0, "velocity": 0, "duration": 132}, {"note": 76, "velocity": 74, "duration": 89}, {"note": 0, "velocity": 0, "duration": 151}, {"note": 78, "velocity": 100, "duration": 1013}, {"note": 0, "velocity": 0, "duration": 427}, {"note": 83, "velocity": 95, "duration": 211}, {"note": 0, "velocity": 0, "duration": 269}, {"note": 88, "velocity": 104, "duration": 258}, {"note": 0, "velocity": 0, "duration": 222}, {"note": 83, "velocity": 98, "duration": 223}, {"note": 0, "velocity": 0, "duration": 257}, {"note": 86, "velocity": 98, "duration": 104}, {"note": 0, "velocity": 0, "duration": 136}, {"note": 88, "velocity": 108, "duration": 84}, {"note": 0, "velocity": 0, "duration": 156}, {"note": 88, "velocity": 117, "duration": 521}, {"note": 0, "velocity": 0, "duration": 439}, {"note": 88, "velocity": 76, "duration": 141}, {"note": 0, "velocity": 0, "duration": 99}, {"note": 91, "velocity": 83, "duration": 96}, {"note": 0, "velocity": 0, "duration": 144}, {"note": 88, "velocity": 79, "duration": 155}, {"note": 0, "velocity": 0, "duration": 85}, {"note": 86, "velocity": 77, "duration": 149}, {"note": 0, "velocity": 0, "duration": 91}, {"note": 88, "velocity": 79, "duration": 172}, {"note": 0, "velocity": 0, "duration": 68}, {"note": 86, "velocity": 79, "duration": 97}, {"note": 0, "velocity": 0, "duration": 143}, {"note": 83, "velocity": 93, "duration": 95}, {"note": 0, "velocity": 0, "duration": 145}, {"note": 81, "velocity": 86, "duration": 91}, {"note": 0, "velocity": 0, "duration": 149}, {"note": 83, "velocity": 121, "duration": 316}, {"note": 0, "velocity": 0, "duration": 644}, {"note": 76, "velocity": 81, "duration": 393}, {"note": 0, "velocity": 0, "duration": 87}, {"note": 83, "velocity": 79, "duration": 259}, {"note": 0, "velocity": 0, "duration": 221}, {"note": 81, "velocity": 104, "duration": 290}, {"note": 0, "velocity": 0, "duration": 190}, {"note": 83, "velocity": 98, "duration": 131}, {"note": 0, "velocity": 0, "duration": 109}, {"note": 88, "velocity": 85, "duration": 93}, {"note": 0, "velocity": 0, "duration": 147}, {"note": 88, "velocity": 111, "duration": 432}, {"note": 79, "velocity": 90, "duration": 317}, {"note": 0, "velocity": 0, "duration": 163}, {"note": 83, "velocity": 83, "duration": 245}, {"note": 88, "velocity": 90, "duration": 90}, {"note": 0, "velocity": 0, "duration": 150}, {"note": 88, "velocity": 93, "duration": 195}, {"note": 83, "velocity": 87, "duration": 184}, {"note": 88, "velocity": 93, "duration": 100}, {"note": 0, "velocity": 0, "duration": 140}, {"note": 90, "velocity": 98, "duration": 90}, {"note": 0, "velocity": 0, "duration": 150}, {"note": 90, "velocity": 117, "duration": 1020}, {"note": 0, "velocity": 0, "duration": 420}, {"note": 83, "velocity": 95, "duration": 211}, {"note": 0, "velocity": 0, "duration": 269}, {"note": 88, "velocity": 104, "duration": 258}, {"note": 0, "velocity": 0, "duration": 222}, {"note": 83, "velocity": 98, "duration": 223}, {"note": 0, "velocity": 0, "duration": 257}, {"note": 86, "velocity": 98, "duration": 104}, {"note": 0, "velocity": 0, "duration": 136}, {"note": 88, "velocity": 108, "duration": 84}, {"note": 0, "velocity": 0, "duration": 156}, {"note": 88, "velocity": 117, "duration": 521}, {"note": 0, "velocity": 0, "duration": 439}, {"note": 88, "velocity": 76, "duration": 141}, {"note": 0, "velocity": 0, "duration": 99}, {"note": 91, "velocity": 83, "duration": 96}, {"note": 0, "velocity": 0, "duration": 144}, {"note": 88, "velocity": 79, "duration": 155}, {"note": 0, "velocity": 0, "duration": 85}, {"note": 86, "velocity": 77, "duration": 149}, {"note": 0, "velocity": 0, "duration": 91}, {"note": 88, "velocity": 79, "duration": 172}, {"note": 0, "velocity": 0, "duration": 68}, {"note": 86, "velocity": 79, "duration": 97}, {"note": 0, "velocity": 0, "duration": 143}, {"note": 83, "velocity": 93, "duration": 95}, {"note": 0, "velocity": 0, "duration": 145}, {"note": 81, "velocity": 86, "duration": 91}, {"note": 0, "velocity": 0, "duration": 149}, {"note": 83, "velocity": 121, "duration": 834}, {"note": 0, "velocity": 0, "duration": 126}, {"note": 76, "velocity": 81, "duration": 393}, {"note": 0, "velocity": 0, "duration": 87}, {"note": 83, "velocity": 79, "duration": 259}, {"note": 0, "velocity": 0, "duration": 221}, {"note": 81, "velocity": 104, "duration": 290}, {"note": 0, "velocity": 0, "duration": 190}, {"note": 81, "velocity": 76, "duration": 161}, {"note": 0, "velocity": 0, "duration": 79}, {"note": 83, "velocity": 95, "duration": 91}, {"note": 0, "velocity": 0, "duration": 149}, {"note": 83, "velocity": 111, "duration": 270}, {"note": 0, "velocity": 0, "duration": 210}, {"note": 76, "velocity": 86, "duration": 369}, {"note": 0, "velocity": 0, "duration": 111}, {"note": 78, "velocity": 98, "duration": 81}, {"note": 0, "velocity": 0, "duration": 159}, {"note": 78, "velocity": 83, "duration": 80}, {"note": 0, "velocity": 0, "duration": 160}, {"note": 78, "velocity": 90, "duration": 88}, {"note": 0, "velocity": 0, "duration": 152}, {"note": 81, "velocity": 74, "duration": 114}, {"note": 0, "velocity": 0, "duration": 126}, {"note": 79, "velocity": 90, "duration": 76}, {"note": 0, "velocity": 0, "duration": 164}, {"note": 78, "velocity": 87, "duration": 104}, {"note": 0, "velocity": 0, "duration": 136}, {"note": 76, "velocity": 87, "duration": 1381}, {"note": 83, "velocity": 95, "duration": 211}, {"note": 0, "velocity": 0, "duration": 269}, {"note": 88, "velocity": 104, "duration": 258}, {"note": 0, "velocity": 0, "duration": 222}, {"note": 83, "velocity": 98, "duration": 223}, {"note": 0, "velocity": 0, "duration": 257}, {"note": 86, "velocity": 98, "duration": 104}, {"note": 0, "velocity": 0, "duration": 136}, {"note": 88, "velocity": 108, "duration": 84}, {"note": 0, "velocity": 0, "duration": 156}, {"note": 88, "velocity": 117, "duration": 521}, {"note": 0, "velocity": 0, "duration": 439}, {"note": 88, "velocity": 76, "duration": 141}, {"note": 0, "velocity": 0, "duration": 99}, {"note": 91, "velocity": 83, "duration": 96}, {"note": 0, "velocity": 0, "duration": 144}, {"note": 88, "velocity": 79, "duration": 155}, {"note": 0, "velocity": 0, "duration": 85}, {"note": 86, "velocity": 77, "duration": 149}, {"note": 0, "velocity": 0, "duration": 91}, {"note": 88, "velocity": 79, "duration": 172}, {"note": 0, "velocity": 0, "duration": 68}, {"note": 86, "velocity": 79, "duration": 97}, {"note": 0, "velocity": 0, "duration": 143}, {"note": 83, "velocity": 93, "duration": 95}, {"note": 0, "velocity": 0, "duration": 145}, {"note": 81, "velocity": 86, "duration": 91}, {"note": 0, "velocity": 0, "duration": 149}, {"note": 83, "velocity": 121, "duration": 316}, {"note": 0, "velocity": 0, "duration": 644}, {"note": 76, "velocity": 81, "duration": 393}, {"note": 0, "velocity": 0, "duration": 87}, {"note": 83, "velocity": 79, "duration": 259}, {"note": 0, "velocity": 0, "duration": 221}, {"note": 81, "velocity": 104, "duration": 290}, {"note": 0, "velocity": 0, "duration": 190}, {"note": 83, "velocity": 98, "duration": 131}, {"note": 0, "velocity": 0, "duration": 109}, {"note": 88, "velocity": 85, "duration": 93}, {"note": 0, "velocity": 0, "duration": 147}, {"note": 88, "velocity": 111, "duration": 432}, {"note": 79, "velocity": 90, "duration": 317}, {"note": 0, "velocity": 0, "duration": 163}, {"note": 83, "velocity": 83, "duration": 245}, {"note": 88, "velocity": 90, "duration": 90}, {"note": 0, "velocity": 0, "duration": 150}, {"note": 88, "velocity": 93, "duration": 195}, {"note": 83, "velocity": 87, "duration": 184}, {"note": 88, "velocity": 93, "duration": 100}, {"note": 0, "velocity": 0, "duration": 140}, {"note": 90, "velocity": 98, "duration": 90}, {"note": 0, "velocity": 0, "duration": 150}, {"note": 90, "velocity": 117, "duration": 1020}, {"note": 0, "velocity": 0, "duration": 420}, {"note": 83, "velocity": 95, "duration": 211}, {"note": 0, "velocity": 0, "duration": 269}, {"note": 88, "velocity": 104, "duration": 258}, {"note": 0, "velocity": 0, "duration": 222}, {"note": 83, "velocity": 98, "duration": 223}, {"note": 0, "velocity": 0, "duration": 257}, {"note": 86, "velocity": 98, "duration": 104}, {"note": 0, "velocity": 0, "duration": 136}, {"note": 88, "velocity": 108, "duration": 84}, {"note": 0, "velocity": 0, "duration": 156}, {"note": 88, "velocity": 117, "duration": 521}, {"note": 0, "velocity": 0, "duration": 439}, {"note": 88, "velocity": 76, "duration": 141}, {"note": 0, "velocity": 0, "duration": 99}, {"note": 91, "velocity": 83, "duration": 96}, {"note": 0, "velocity": 0, "duration": 144}, {"note": 88, "velocity": 79, "duration": 155}, {"note": 0, "velocity": 0, "duration": 85}, {"note": 86, "velocity": 77, "duration": 149}, {"note": 0, "velocity": 0, "duration": 91}, {"note": 88, "velocity": 79, "duration": 172}, {"note": 0, "velocity": 0, "duration": 68}, {"note": 86, "velocity": 79, "duration": 97}, {"note": 0, "velocity": 0, "duration": 143}, {"note": 83, "velocity": 93, "duration": 95}, {"note": 0, "velocity": 0, "duration": 145}, {"note": 81, "velocity": 86, "duration": 91}, {"note": 0, "velocity": 0, "duration": 149}, {"note": 83, "velocity": 121, "duration": 834}, {"note": 0, "velocity": 0, "duration": 126}, {"note": 76, "velocity": 81, "duration": 393}, {"note": 0, "velocity": 0, "duration": 87}, {"note": 83, "velocity": 79, "duration": 259}, {"note": 0, "velocity": 0, "duration": 221}, {"note": 81, "velocity": 104, "duration": 290}, {"note": 0, "velocity": 0, "duration": 190}, {"note": 81, "velocity": 76, "duration": 161}, {"note": 0, "velocity": 0, "duration": 79}, {"note": 83, "velocity": 95, "duration": 91}, {"note": 0, "velocity": 0, "duration": 149}, {"note": 83, "velocity": 111, "duration": 270}, {"note": 0, "velocity": 0, "duration": 210}, {"note": 76, "velocity": 86, "duration": 369}, {"note": 0, "velocity": 0, "duration": 111}, {"note": 78, "velocity": 98, "duration": 81}, {"note": 0, "velocity": 0, "duration": 159}, {"note": 78, "velocity": 83, "duration": 80}, {"note": 0, "velocity": 0, "duration": 160}, {"note": 78, "velocity": 90, "duration": 88}, {"note": 0, "velocity": 0, "duration": 152}, {"note": 81, "velocity": 74, "duration": 114}, {"note": 0, "velocity": 0, "duration": 126}, {"note": 79, "velocity": 90, "duration": 76}, {"note": 0, "velocity": 0, "duration": 164}, {"note": 78, "velocity": 87, "duration": 104}, {"note": 0, "velocity": 0, "duration": 136}, {"note": 76, "velocity": 87, "duration": 1381}, {"note": 0, "velocity": 0, "duration": 1259}, {"note": 76, "velocity": 66, "duration": 243}, {"note": 83, "velocity": 85, "duration": 219}, {"note": 81, "velocity": 69, "duration": 97}, {"note": 0, "velocity": 0, "duration": 143}, {"note": 83, "velocity": 98, "duration": 204}, {"note": 81, "velocity": 64, "duration": 89}, {"note": 0, "velocity": 0, "duration": 151}, {"note": 81, "velocity": 71, "duration": 220}, {"note": 83, "velocity": 74, "duration": 194}, {"note": 83, "velocity": 98, "duration": 604}, {"note": 0, "velocity": 0, "duration": 596}, {"note": 71, "velocity": 61, "duration": 201}, {"note": 83, "velocity": 75, "duration": 135}, {"note": 0, "velocity": 0, "duration": 105}, {"note": 81, "velocity": 68, "duration": 83}, {"note": 0, "velocity": 0, "duration": 157}, {"note": 83, "velocity": 77, "duration": 146}, {"note": 0, "velocity": 0, "duration": 94}, {"note": 81, "velocity": 69, "duration": 91}, {"note": 0, "velocity": 0, "duration": 149}, {"note": 79, "velocity": 81, "duration": 94}, {"note": 0, "velocity": 0, "duration": 146}, {"note": 76, "velocity": 63, "duration": 114}, {"note": 0, "velocity": 0, "duration": 126}, {"note": 76, "velocity": 73, "duration": 954}, {"note": 0, "velocity": 0, "duration": 486}, {"note": 76, "velocity": 90, "duration": 160}, {"note": 0, "velocity": 0, "duration": 80}, {"note": 79, "velocity": 95, "duration": 92}, {"note": 0, "velocity": 0, "duration": 148}, {"note": 79, "velocity": 75, "duration": 252}, {"note": 76, "velocity": 72, "duration": 218}, {"note": 79, "velocity": 62, "duration": 141}, {"note": 0, "velocity": 0, "duration": 87}, {"note": 81, "velocity": 83, "duration": 116}, {"note": 0, "velocity": 0, "duration": 136}, {"note": 81, "velocity": 108, "duration": 330}, {"note": 0, "velocity": 0, "duration": 1110}, {"note": 78, "velocity": 65, "duration": 92}, {"note": 0, "velocity": 0, "duration": 148}, {"note": 78, "velocity": 64, "duration": 80}, {"note": 0, "velocity": 0, "duration": 160}, {"note": 78, "velocity": 69, "duration": 85}, {"note": 0, "velocity": 0, "duration": 155}, {"note": 81, "velocity": 74, "duration": 127}, {"note": 0, "velocity": 0, "duration": 113}, {"note": 79, "velocity": 108, "duration": 93}, {"note": 0, "velocity": 0, "duration": 150}, {"note": 78, "velocity": 74, "duration": 232}, {"note": 76, "velocity": 76, "duration": 1521}]]