[[{"note": 83, "velocity": 88, "duration": 133}, {"note": 0, "velocity": 0, "duration": 107}, {"note": 88, "velocity": 89, "duration": 343}, {"note": 87, "velocity": 89, "duration": 181}, {"note": 88, "velocity": 89, "duration": 65}, {"note": 88, "velocity": 89, "duration": 455}, {"note": 0, "velocity": 0, "duration": 385}, {"note": 88, "velocity": 89, "duration": 153}, {"note": 0, "velocity": 0, "duration": 87}, {"note": 88, "velocity": 90, "duration": 167}, {"note": 0, "velocity": 0, "duration": 73}, {"note": 87, "velocity": 90, "duration": 250}, {"note": 85, "velocity": 90, "duration": 206}, {"note": 87, "velocity": 90, "duration": 169}, {"note": 85, "velocity": 90, "duration": 160}, {"note": 0, "velocity": 0, "duration": 80}, {"note": 83, "velocity": 90, "duration": 505}, {"note": 0, "velocity": 0, "duration": 95}, {"note": 83, "velocity": 90, "duration": 272}, {"note": 83, "velocity": 90, "duration": 32}, {"note": 0, "velocity": 0, "duration": 448}, {"note": 81, "velocity": 90, "duration": 193}, {"note": 80, "velocity": 90, "duration": 90}, {"note": 83, "velocity": 90, "duration": 402}, {"note": 0, "velocity": 0, "duration": 438}, {"note": 83, "velocity": 90, "duration": 90}, {"note": 0, "velocity": 0, "duration": 150}, {"note": 83, "velocity": 90, "duration": 167}, {"note": 0, "velocity": 0, "duration": 73}, {"note": 85, "velocity": 90, "duration": 250}, {"note": 78, "velocity": 90, "duration": 189}, {"note": 81, "velocity": 90, "duration": 73}, {"note": 81, "velocity": 90, "duration": 203}, {"note": 80, "velocity": 90, "duration": 295}, {"note": 0, "velocity": 0, "duration": 305}, {"note": 83, "velocity": 89, "duration": 194}, {"note": 88, "velocity": 89, "duration": 341}, {"note": 0, "velocity": 0, "duration": 139}, {"note": 87, "velocity": 89, "duration": 247}, {"note": 88, "velocity": 89, "duration": 81}, {"note": 88, "velocity": 89, "duration": 498}, {"note": 0, "velocity": 0, "duration": 342}, {"note": 88, "velocity": 89, "duration": 140}, {"note": 0, "velocity": 0, "duration": 100}, {"note": 88, "velocity": 89, "duration": 142}, {"note": 0, "velocity": 0, "duration": 98}, {"note": 87, "velocity": 88, "duration": 165}, {"note": 0, "velocity": 0, "duration": 75}, {"note": 88, "velocity": 88, "duration": 162}, {"note": 0, "velocity": 0, "duration": 78}, {"note": 90, "velocity": 88, "duration": 69}, {"note": 90, "velocity": 88, "duration": 149}, {"note": 0, "velocity": 0, "duration": 91}, {"note": 88, "velocity": 88, "duration": 314}, {"note": 88, "velocity": 88, "duration": 234}, {"note": 87, "velocity": 88, "duration": 163}, {"note": 0, "velocity": 0, "duration": 77}, {"note": 88, "velocity": 88, "duration": 169}, {"note": 0, "velocity": 0, "duration": 71}, {"note": 88, "velocity": 88, "duration": 64}, {"note": 88, "velocity": 88, "duration": 232}, {"note": 0, "velocity": 0, "duration": 128}, {"note": 87, "velocity": 88, "duration": 69}, {"note": 87, "velocity": 88, "duration": 171}, {"note": 0, "velocity": 0, "duration": 69}, {"note": 85, "velocity": 88, "duration": 414}, {"note": 85, "velocity": 88, "duration": 54}, {"note": 0, "velocity": 0, "duration": 186}, {"note": 87, "velocity": 88, "duration": 88}, {"note": 85, "velocity": 88, "duration": 196}, {"note": 83, "velocity": 88, "duration": 1082}, {"note": 0, "velocity": 0, "duration": 238}, {"note": 83, "velocity": 86, "duration": 286}, {"note": 88, "velocity": 86, "duration": 161}, {"note": 0, "velocity": 0, "duration": 79}, {"note": 88, "velocity": 86, "duration": 332}, {"note": 0, "velocity": 0, "duration": 148}, {"note": 80, "velocity": 86, "duration": 189}, {"note": 85, "velocity": 86, "duration": 162}, {"note": 0, "velocity": 0, "duration": 78}, {"note": 85, "velocity": 86, "duration": 317}, {"note": 0, "velocity": 0, "duration": 163}, {"note": 83, "velocity": 86, "duration": 291}, {"note": 90, "velocity": 86, "duration": 183}, {"note": 90, "velocity": 86, "duration": 324}, {"note": 0, "velocity": 0, "duration": 156}, {"note": 78, "velocity": 86, "duration": 259}, {"note": 81, "velocity": 86, "duration": 72}, {"note": 81, "velocity": 86, "duration": 139}, {"note": 0, "velocity": 0, "duration": 101}, {"note": 80, "velocity": 86, "duration": 393}, {"note": 0, "velocity": 0, "duration": 207}, {"note": 83, "velocity": 86, "duration": 164}, {"note": 0, "velocity": 0, "duration": 76}, {"note": 83, "velocity": 86, "duration": 147}, {"note": 0, "velocity": 0, "duration": 93}, {"note": 81, "velocity": 86, "duration": 157}, {"note": 0, "velocity": 0, "duration": 83}, {"note": 81, "velocity": 86, "duration": 170}, {"note": 0, "velocity": 0, "duration": 70}, {"note": 80, "velocity": 86, "duration": 74}, {"note": 80, "velocity": 86, "duration": 183}, {"note": 78, "velocity": 86, "duration": 170}, {"note": 0, "velocity": 0, "duration": 190}, {"note": 78, "velocity": 86, "duration": 173}, {"note": 0, "velocity": 0, "duration": 67}, {"note": 76, "velocity": 86, "duration": 158}, {"note": 0, "velocity": 0, "duration": 82}, {"note": 80, "velocity": 86, "duration": 143}, {"note": 0, "velocity": 0, "duration": 97}, {"note": 78, "velocity": 85, "duration": 484}, {"note": 81, "velocity": 84, "duration": 135}, {"note": 0, "velocity": 0, "duration": 105}, {"note": 80, "velocity": 84, "duration": 341}, {"note": 0, "velocity": 0, "duration": 139}, {"note": 83, "velocity": 84, "duration": 254}, {"note": 88, "velocity": 84, "duration": 170}, {"note": 0, "velocity": 0, "duration": 70}, {"note": 88, "velocity": 84, "duration": 342}, {"note": 0, "velocity": 0, "duration": 138}, {"note": 80, "velocity": 83, "duration": 265}, {"note": 85, "velocity": 83, "duration": 154}, {"note": 0, "velocity": 0, "duration": 86}, {"note": 85, "velocity": 83, "duration": 158}, {"note": 0, "velocity": 0, "duration": 82}, {"note": 83, "velocity": 83, "duration": 167}, {"note": 0, "velocity": 0, "duration": 73}, {"note": 83, "velocity": 83, "duration": 186}, {"note": 90, "velocity": 83, "duration": 151}, {"note": 0, "velocity": 0, "duration": 89}, {"note": 90, "velocity": 83, "duration": 295}, {"note": 78, "velocity": 83, "duration": 135}, {"note": 0, "velocity": 0, "duration": 105}, {"note": 78, "velocity": 83, "duration": 143}, {"note": 0, "velocity": 0, "duration": 97}, {"note": 81, "velocity": 83, "duration": 168}, {"note": 0, "velocity": 0, "duration": 72}, {"note": 80, "velocity": 83, "duration": 251}, {"note": 83, "velocity": 83, "duration": 154}, {"note": 0, "velocity": 0, "duration": 86}, {"note": 83, "velocity": 83, "duration": 168}, {"note": 0, "velocity": 0, "duration": 72}, {"note": 92, "velocity": 83, "duration": 150}, {"note": 0, "velocity": 0, "duration": 90}, {"note": 92, "velocity": 83, "duration": 266}, {"note": 90, "velocity": 83, "duration": 146}, {"note": 0, "velocity": 0, "duration": 94}, {"note": 90, "velocity": 83, "duration": 165}, {"note": 0, "velocity": 0, "duration": 75}, {"note": 88, "velocity": 83, "duration": 136}, {"note": 0, "velocity": 0, "duration": 104}, {"note": 88, "velocity": 83, "duration": 161}, {"note": 0, "velocity": 0, "duration": 79}, {"note": 90, "velocity": 83, "duration": 226}, {"note": 88, "velocity": 83, "duration": 167}, {"note": 0, "velocity": 0, "duration": 73}, {"note": 92, "velocity": 83, "duration": 169}, {"note": 0, "velocity": 0, "duration": 71}, {"note": 92, "velocity": 83, "duration": 265}, {"note": 0, "velocity": 0, "duration": 95}, {"note": 90, "velocity": 83, "duration": 600}, {"note": 0, "velocity": 0, "duration": 240}, {"note": 83, "velocity": 83, "duration": 212}, {"note": 88, "velocity": 83, "duration": 189}, {"note": 88, "velocity": 83, "duration": 82}, {"note": 88, "velocity": 83, "duration": 634}, {"note": 0, "velocity": 0, "duration": 206}, {"note": 88, "velocity": 83, "duration": 166}, {"note": 0, "velocity": 0, "duration": 74}, {"note": 88, "velocity": 83, "duration": 167}, {"note": 0, "velocity": 0, "duration": 73}, {"note": 87, "velocity": 83, "duration": 241}, {"note": 85, "velocity": 83, "duration": 98}, {"note": 0, "velocity": 0, "duration": 142}, {"note": 83, "velocity": 83, "duration": 181}, {"note": 87, "velocity": 83, "duration": 183}, {"note": 88, "velocity": 83, "duration": 189}, {"note": 90, "velocity": 83, "duration": 227}, {"note": 0, "velocity": 0, "duration": 133}, {"note": 88, "velocity": 83, "duration": 418}, {"note": 83, "velocity": 83, "duration": 204}, {"note": 88, "velocity": 83, "duration": 148}, {"note": 0, "velocity": 0, "duration": 92}, {"note": 88, "velocity": 83, "duration": 61}, {"note": 88, "velocity": 83, "duration": 270}, {"note": 0, "velocity": 0, "duration": 570}, {"note": 88, "velocity": 83, "duration": 146}, {"note": 0, "velocity": 0, "duration": 94}, {"note": 88, "velocity": 83, "duration": 171}, {"note": 0, "velocity": 0, "duration": 69}, {"note": 87, "velocity": 83, "duration": 210}, {"note": 85, "velocity": 83, "duration": 114}, {"note": 0, "velocity": 0, "duration": 126}, {"note": 83, "velocity": 83, "duration": 211}, {"note": 90, "velocity": 83, "duration": 347}, {"note": 92, "velocity": 83, "duration": 201}, {"note": 93, "velocity": 83, "duration": 271}, {"note": 0, "velocity": 0, "duration": 89}, {"note": 92, "velocity": 83, "duration": 306}, {"note": 83, "velocity": 83, "duration": 312}, {"note": 88, "velocity": 83, "duration": 174}, {"note": 0, "velocity": 0, "duration": 66}, {"note": 88, "velocity": 83, "duration": 64}, {"note": 88, "velocity": 83, "duration": 237}, {"note": 0, "velocity": 0, "duration": 603}, {"note": 88, "velocity": 83, "duration": 189}, {"note": 88, "velocity": 83, "duration": 169}, {"note": 0, "velocity": 0, "duration": 71}, {"note": 87, "velocity": 83, "duration": 213}, {"note": 85, "velocity": 83, "duration": 119}, {"note": 0, "velocity": 0, "duration": 121}, {"note": 83, "velocity": 83, "duration": 188}, {"note": 90, "velocity": 83, "duration": 192}, {"note": 88, "velocity": 83, "duration": 164}, {"note": 0, "velocity": 0, "duration": 76}, {"note": 87, "velocity": 83, "duration": 172}, {"note": 0, "velocity": 0, "duration": 68}, {"note": 88, "velocity": 83, "duration": 69}, {"note": 88, "velocity": 83, "duration": 682}, {"note": 0, "velocity": 0, "duration": 158}, {"note": 88, "velocity": 83, "duration": 106}, {"note": 0, "velocity": 0, "duration": 134}, {"note": 88, "velocity": 83, "duration": 168}, {"note": 0, "velocity": 0, "duration": 72}, {"note": 92, "velocity": 83, "duration": 166}, {"note": 0, "velocity": 0, "duration": 74}, {"note": 90, "velocity": 83, "duration": 195}, {"note": 88, "velocity": 83, "duration": 179}, {"note": 0, "velocity": 0, "duration": 61}, {"note": 88, "velocity": 83, "duration": 209}, {"note": 87, "velocity": 83, "duration": 120}, {"note": 0, "velocity": 0, "duration": 120}, {"note": 90, "velocity": 83, "duration": 282}, {"note": 0, "velocity": 0, "duration": 78}, {"note": 88, "velocity": 83, "duration": 1078}, {"note": 0, "velocity": 0, "duration": 242}, {"note": 83, "velocity": 83, "duration": 212}, {"note": 88, "velocity": 83, "duration": 189}, {"note": 88, "velocity": 83, "duration": 82}, {"note": 88, "velocity": 83, "duration": 634}, {"note": 0, "velocity": 0, "duration": 206}, {"note": 88, "velocity": 83, "duration": 166}, {"note": 0, "velocity": 0, "duration": 74}, {"note": 88, "velocity": 83, "duration": 167}, {"note": 0, "velocity": 0, "duration": 73}, {"note": 87, "velocity": 83, "duration": 241}, {"note": 85, "velocity": 83, "duration": 98}, {"note": 0, "velocity": 0, "duration": 142}, {"note": 83, "velocity": 83, "duration": 181}, {"note": 87, "velocity": 83, "duration": 183}, {"note": 88, "velocity": 83, "duration": 189}, {"note": 90, "velocity": 83, "duration": 227}, {"note": 0, "velocity": 0, "duration": 133}, {"note": 88, "velocity": 83, "duration": 418}, {"note": 83, "velocity": 83, "duration": 204}, {"note": 88, "velocity": 83, "duration": 148}, {"note": 0, "velocity": 0, "duration": 92}, {"note": 88, "velocity": 83, "duration": 61}, {"note": 88, "velocity": 83, "duration": 270}, {"note": 0, "velocity": 0, "duration": 570}, {"note": 88, "velocity": 83, "duration": 146}, {"note": 0, "velocity": 0, "duration": 94}, {"note": 88, "velocity": 83, "duration": 171}, {"note": 0, "velocity": 0, "duration": 69}, {"note": 87, "velocity": 83, "duration": 210}, {"note": 85, "velocity": 83, "duration": 114}, {"note": 0, "velocity": 0, "duration": 126}, {"note": 83, "velocity": 83, "duration": 211}, {"note": 90, "velocity": 83, "duration": 216}, {"note": 92, "velocity": 83, "duration": 201}, {"note": 93, "velocity": 83, "duration": 169}, {"note": 0, "velocity": 0, "duration": 71}, {"note": 92, "velocity": 83, "duration": 60}, {"note": 92, "velocity": 83, "duration": 307}, {"note": 83, "velocity": 83, "duration": 312}, {"note": 88, "velocity": 83, "duration": 174}, {"note": 0, "velocity": 0, "duration": 66}, {"note": 88, "velocity": 83, "duration": 64}, {"note": 88, "velocity": 83, "duration": 237}, {"note": 0, "velocity": 0, "duration": 603}, {"note": 88, "velocity": 83, "duration": 189}, {"note": 88, "velocity": 83, "duration": 169}, {"note": 0, "velocity": 0, "duration": 71}, {"note": 87, "velocity": 83, "duration": 213}, {"note": 85, "velocity": 83, "duration": 119}, {"note": 0, "velocity": 0, "duration": 121}, {"note": 83, "velocity": 83, "duration": 188}, {"note": 90, "velocity": 83, "duration": 183}, {"note": 88, "velocity": 83, "duration": 158}, {"note": 0, "velocity": 0, "duration": 82}, {"note": 90, "velocity": 83, "duration": 128}, {"note": 0, "velocity": 0, "duration": 112}, {"note": 93, "velocity": 83, "duration": 57}, {"note": 0, "velocity": 0, "duration": 63}, {"note": 92, "velocity": 83, "duration": 207}, {"note": 88, "velocity": 83, "duration": 503}, {"note": 0, "velocity": 0, "duration": 97}, {"note": 88, "velocity": 83, "duration": 106}, {"note": 0, "velocity": 0, "duration": 134}, {"note": 88, "velocity": 83, "duration": 168}, {"note": 0, "velocity": 0, "duration": 72}, {"note": 92, "velocity": 83, "duration": 166}, {"note": 0, "velocity": 0, "duration": 74}, {"note": 90, "velocity": 83, "duration": 195}, {"note": 88, "velocity": 83, "duration": 179}, {"note": 0, "velocity": 0, "duration": 61}, {"note": 88, "velocity": 83, "duration": 209}, {"note": 87, "velocity": 83, "duration": 120}, {"note": 0, "velocity": 0, "duration": 120}, {"note": 90, "velocity": 83, "duration": 282}, {"note": 88, "velocity": 83, "duration": 60}, {"note": 88, "velocity": 83, "duration": 570}, {"note": 0, "velocity": 0, "duration": 16350}, {"note": 88, "velocity": 83, "duration": 189}, {"note": 88, "velocity": 83, "duration": 82}, {"note": 88, "velocity": 83, "duration": 634}, {"note": 0, "velocity": 0, "duration": 206}, {"note": 88, "velocity": 83, "duration": 166}, {"note": 0, "velocity": 0, "duration": 74}, {"note": 88, "velocity": 83, "duration": 167}, {"note": 0, "velocity": 0, "duration": 73}, {"note": 87, "velocity": 83, "duration": 241}, {"note": 85, "velocity": 83, "duration": 98}, {"note": 0, "velocity": 0, "duration": 142}, {"note": 83, "velocity": 83, "duration": 181}, {"note": 87, "velocity": 83, "duration": 183}, {"note": 88, "velocity": 83, "duration": 189}, {"note": 90, "velocity": 83, "duration": 227}, {"note": 0, "velocity": 0, "duration": 133}, {"note": 88, "velocity": 83, "duration": 418}, {"note": 83, "velocity": 83, "duration": 204}, {"note": 88, "velocity": 84, "duration": 148}, {"note": 0, "velocity": 0, "duration": 92}, {"note": 88, "velocity": 84, "duration": 61}, {"note": 88, "velocity": 84, "duration": 270}, {"note": 0, "velocity": 0, "duration": 570}, {"note": 88, "velocity": 85, "duration": 146}, {"note": 0, "velocity": 0, "duration": 94}, {"note": 88, "velocity": 85, "duration": 171}, {"note": 0, "velocity": 0, "duration": 69}, {"note": 87, "velocity": 85, "duration": 210}, {"note": 85, "velocity": 85, "duration": 114}, {"note": 0, "velocity": 0, "duration": 126}, {"note": 83, "velocity": 85, "duration": 211}, {"note": 90, "velocity": 85, "duration": 347}, {"note": 92, "velocity": 85, "duration": 201}, {"note": 93, "velocity": 85, "duration": 271}, {"note": 0, "velocity": 0, "duration": 89}, {"note": 92, "velocity": 85, "duration": 306}, {"note": 83, "velocity": 85, "duration": 312}, {"note": 88, "velocity": 85, "duration": 174}, {"note": 0, "velocity": 0, "duration": 66}, {"note": 88, "velocity": 85, "duration": 64}, {"note": 88, "velocity": 85, "duration": 237}, {"note": 0, "velocity": 0, "duration": 603}, {"note": 88, "velocity": 85, "duration": 189}, {"note": 88, "velocity": 86, "duration": 169}, {"note": 0, "velocity": 0, "duration": 71}, {"note": 87, "velocity": 87, "duration": 213}, {"note": 85, "velocity": 87, "duration": 119}, {"note": 0, "velocity": 0, "duration": 121}, {"note": 83, "velocity": 87, "duration": 188}, {"note": 90, "velocity": 88, "duration": 192}, {"note": 88, "velocity": 87, "duration": 164}, {"note": 0, "velocity": 0, "duration": 76}, {"note": 87, "velocity": 86, "duration": 172}, {"note": 0, "velocity": 0, "duration": 68}, {"note": 88, "velocity": 87, "duration": 69}, {"note": 88, "velocity": 86, "duration": 682}, {"note": 0, "velocity": 0, "duration": 158}, {"note": 88, "velocity": 86, "duration": 106}, {"note": 0, "velocity": 0, "duration": 134}, {"note": 88, "velocity": 85, "duration": 168}, {"note": 0, "velocity": 0, "duration": 72}, {"note": 92, "velocity": 85, "duration": 166}, {"note": 0, "velocity": 0, "duration": 74}, {"note": 90, "velocity": 85, "duration": 195}, {"note": 88, "velocity": 85, "duration": 179}, {"note": 0, "velocity": 0, "duration": 61}, {"note": 88, "velocity": 85, "duration": 209}, {"note": 87, "velocity": 85, "duration": 120}, {"note": 0, "velocity": 0, "duration": 120}, {"note": 90, "velocity": 85, "duration": 282}, {"note": 0, "velocity": 0, "duration": 78}, {"note": 88, "velocity": 85, "duration": 1078}, {"note": 0, "velocity": 0, "duration": 482}, {"note": 83, "velocity": 84, "duration": 286}, {"note": 88, "velocity": 84, "duration": 161}, {"note": 0, "velocity": 0, "duration": 79}, {"note": 88, "velocity": 84, "duration": 332}, {"note": 0, "velocity": 0, "duration": 148}, {"note": 80, "velocity": 84, "duration": 189}, {"note": 85, "velocity": 84, "duration": 162}, {"note": 0, "velocity": 0, "duration": 78}, {"note": 85, "velocity": 84, "duration": 317}, {"note": 0, "velocity": 0, "duration": 163}, {"note": 83, "velocity": 84, "duration": 291}, {"note": 90, "velocity": 84, "duration": 183}, {"note": 90, "velocity": 84, "duration": 324}, {"note": 0, "velocity": 0, "duration": 156}, {"note": 78, "velocity": 84, "duration": 259}, {"note": 81, "velocity": 84, "duration": 72}, {"note": 81, "velocity": 84, "duration": 139}, {"note": 0, "velocity": 0, "duration": 101}, {"note": 80, "velocity": 84, "duration": 393}, {"note": 0, "velocity": 0, "duration": 207}, {"note": 83, "velocity": 84, "duration": 164}, {"note": 0, "velocity": 0, "duration": 76}, {"note": 83, "velocity": 85, "duration": 147}, {"note": 0, "velocity": 0, "duration": 93}, {"note": 81, "velocity": 84, "duration": 157}, {"note": 0, "velocity": 0, "duration": 83}, {"note": 81, "velocity": 84, "duration": 170}, {"note": 0, "velocity": 0, "duration": 70}, {"note": 80, "velocity": 84, "duration": 74}, {"note": 80, "velocity": 84, "duration": 183}, {"note": 78, "velocity": 84, "duration": 170}, {"note": 0, "velocity": 0, "duration": 190}, {"note": 78, "velocity": 85, "duration": 173}, {"note": 0, "velocity": 0, "duration": 67}, {"note": 76, "velocity": 85, "duration": 158}, {"note": 0, "velocity": 0, "duration": 82}, {"note": 80, "velocity": 85, "duration": 143}, {"note": 0, "velocity": 0, "duration": 97}, {"note": 78, "velocity": 85, "duration": 484}, {"note": 81, "velocity": 85, "duration": 135}, {"note": 0, "velocity": 0, "duration": 105}, {"note": 80, "velocity": 85, "duration": 341}, {"note": 0, "velocity": 0, "duration": 139}, {"note": 83, "velocity": 85, "duration": 254}, {"note": 88, "velocity": 85, "duration": 170}, {"note": 0, "velocity": 0, "duration": 70}, {"note": 88, "velocity": 85, "duration": 342}, {"note": 0, "velocity": 0, "duration": 138}, {"note": 80, "velocity": 85, "duration": 265}, {"note": 85, "velocity": 85, "duration": 154}, {"note": 0, "velocity": 0, "duration": 86}, {"note": 85, "velocity": 85, "duration": 158}, {"note": 0, "velocity": 0, "duration": 82}, {"note": 83, "velocity": 85, "duration": 167}, {"note": 0, "velocity": 0, "duration": 73}, {"note": 83, "velocity": 85, "duration": 186}, {"note": 90, "velocity": 85, "duration": 151}, {"note": 0, "velocity": 0, "duration": 89}, {"note": 90, "velocity": 85, "duration": 295}, {"note": 78, "velocity": 85, "duration": 135}, {"note": 0, "velocity": 0, "duration": 105}, {"note": 78, "velocity": 85, "duration": 143}, {"note": 0, "velocity": 0, "duration": 97}, {"note": 81, "velocity": 85, "duration": 168}, {"note": 0, "velocity": 0, "duration": 72}, {"note": 80, "velocity": 85, "duration": 251}, {"note": 83, "velocity": 85, "duration": 154}, {"note": 0, "velocity": 0, "duration": 86}, {"note": 83, "velocity": 85, "duration": 168}, {"note": 0, "velocity": 0, "duration": 72}, {"note": 92, "velocity": 85, "duration": 150}, {"note": 0, "velocity": 0, "duration": 90}, {"note": 92, "velocity": 85, "duration": 266}, {"note": 90, "velocity": 85, "duration": 146}, {"note": 0, "velocity": 0, "duration": 94}, {"note": 90, "velocity": 85, "duration": 165}, {"note": 0, "velocity": 0, "duration": 75}, {"note": 88, "velocity": 85, "duration": 136}, {"note": 0, "velocity": 0, "duration": 104}, {"note": 88, "velocity": 85, "duration": 161}, {"note": 0, "velocity": 0, "duration": 79}, {"note": 90, "velocity": 85, "duration": 226}, {"note": 88, "velocity": 85, "duration": 167}, {"note": 0, "velocity": 0, "duration": 73}, {"note": 92, "velocity": 85, "duration": 169}, {"note": 0, "velocity": 0, "duration": 71}, {"note": 92, "velocity": 85, "duration": 265}, {"note": 0, "velocity": 0, "duration": 95}, {"note": 90, "velocity": 85, "duration": 600}, {"note": 0, "velocity": 0, "duration": 240}, {"note": 83, "velocity": 85, "duration": 212}, {"note": 88, "velocity": 85, "duration": 189}, {"note": 88, "velocity": 85, "duration": 82}, {"note": 88, "velocity": 85, "duration": 634}, {"note": 0, "velocity": 0, "duration": 206}, {"note": 88, "velocity": 85, "duration": 166}, {"note": 0, "velocity": 0, "duration": 74}, {"note": 88, "velocity": 84, "duration": 167}, {"note": 0, "velocity": 0, "duration": 73}, {"note": 87, "velocity": 85, "duration": 241}, {"note": 85, "velocity": 85, "duration": 98}, {"note": 0, "velocity": 0, "duration": 142}, {"note": 83, "velocity": 84, "duration": 181}, {"note": 87, "velocity": 84, "duration": 183}, {"note": 88, "velocity": 85, "duration": 189}, {"note": 90, "velocity": 84, "duration": 227}, {"note": 0, "velocity": 0, "duration": 133}, {"note": 88, "velocity": 84, "duration": 418}, {"note": 83, "velocity": 85, "duration": 204}, {"note": 88, "velocity": 84, "duration": 148}, {"note": 0, "velocity": 0, "duration": 92}, {"note": 88, "velocity": 85, "duration": 61}, {"note": 88, "velocity": 84, "duration": 270}, {"note": 0, "velocity": 0, "duration": 570}, {"note": 88, "velocity": 84, "duration": 146}, {"note": 0, "velocity": 0, "duration": 94}, {"note": 88, "velocity": 84, "duration": 171}, {"note": 0, "velocity": 0, "duration": 69}, {"note": 87, "velocity": 84, "duration": 210}, {"note": 85, "velocity": 84, "duration": 114}, {"note": 0, "velocity": 0, "duration": 126}, {"note": 83, "velocity": 84, "duration": 211}, {"note": 90, "velocity": 84, "duration": 347}, {"note": 92, "velocity": 84, "duration": 201}, {"note": 93, "velocity": 84, "duration": 271}, {"note": 0, "velocity": 0, "duration": 89}, {"note": 92, "velocity": 84, "duration": 306}, {"note": 83, "velocity": 84, "duration": 312}, {"note": 88, "velocity": 84, "duration": 174}, {"note": 0, "velocity": 0, "duration": 66}, {"note": 88, "velocity": 84, "duration": 64}, {"note": 88, "velocity": 84, "duration": 237}, {"note": 0, "velocity": 0, "duration": 603}, {"note": 88, "velocity": 84, "duration": 189}, {"note": 88, "velocity": 84, "duration": 169}, {"note": 0, "velocity": 0, "duration": 71}, {"note": 87, "velocity": 84, "duration": 213}, {"note": 85, "velocity": 84, "duration": 119}, {"note": 0, "velocity": 0, "duration": 121}, {"note": 83, "velocity": 84, "duration": 188}, {"note": 90, "velocity": 84, "duration": 192}, {"note": 88, "velocity": 84, "duration": 164}, {"note": 0, "velocity": 0, "duration": 76}, {"note": 87, "velocity": 84, "duration": 172}, {"note": 0, "velocity": 0, "duration": 68}, {"note": 88, "velocity": 84, "duration": 69}, {"note": 88, "velocity": 84, "duration": 682}, {"note": 0, "velocity": 0, "duration": 158}, {"note": 88, "velocity": 84, "duration": 106}, {"note": 0, "velocity": 0, "duration": 134}, {"note": 88, "velocity": 84, "duration": 168}, {"note": 0, "velocity": 0, "duration": 72}, {"note": 92, "velocity": 84, "duration": 166}, {"note": 0, "velocity": 0, "duration": 74}, {"note": 90, "velocity": 84, "duration": 195}, {"note": 88, "velocity": 84, "duration": 179}, {"note": 0, "velocity": 0, "duration": 61}, {"note": 88, "velocity": 84, "duration": 209}, {"note": 87, "velocity": 84, "duration": 120}, {"note": 0, "velocity": 0, "duration": 120}, {"note": 90, "velocity": 84, "duration": 282}, {"note": 0, "velocity": 0, "duration": 78}, {"note": 88, "velocity": 84, "duration": 1078}, {"note": 0, "velocity": 0, "duration": 242}, {"note": 83, "velocity": 84, "duration": 212}, {"note": 88, "velocity": 84, "duration": 189}, {"note": 88, "velocity": 84, "duration": 82}, {"note": 88, "velocity": 84, "duration": 634}, {"note": 0, "velocity": 0, "duration": 206}, {"note": 88, "velocity": 84, "duration": 166}, {"note": 0, "velocity": 0, "duration": 74}, {"note": 88, "velocity": 84, "duration": 167}, {"note": 0, "velocity": 0, "duration": 73}, {"note": 87, "velocity": 84, "duration": 241}, {"note": 85, "velocity": 84, "duration": 98}, {"note": 0, "velocity": 0, "duration": 142}, {"note": 83, "velocity": 84, "duration": 181}, {"note": 87, "velocity": 84, "duration": 183}, {"note": 88, "velocity": 84, "duration": 189}, {"note": 90, "velocity": 84, "duration": 227}, {"note": 0, "velocity": 0, "duration": 133}, {"note": 88, "velocity": 84, "duration": 418}, {"note": 83, "velocity": 84, "duration": 204}, {"note": 88, "velocity": 84, "duration": 148}, {"note": 0, "velocity": 0, "duration": 92}, {"note": 88, "velocity": 84, "duration": 61}, {"note": 88, "velocity": 84, "duration": 270}, {"note": 0, "velocity": 0, "duration": 570}, {"note": 88, "velocity": 84, "duration": 146}, {"note": 0, "velocity": 0, "duration": 94}, {"note": 88, "velocity": 84, "duration": 171}, {"note": 0, "velocity": 0, "duration": 69}, {"note": 87, "velocity": 84, "duration": 210}, {"note": 85, "velocity": 84, "duration": 114}, {"note": 0, "velocity": 0, "duration": 126}, {"note": 83, "velocity": 84, "duration": 211}, {"note": 90, "velocity": 84, "duration": 216}, {"note": 92, "velocity": 84, "duration": 201}, {"note": 93, "velocity": 84, "duration": 169}, {"note": 0, "velocity": 0, "duration": 71}, {"note": 92, "velocity": 84, "duration": 60}, {"note": 92, "velocity": 84, "duration": 307}, {"note": 83, "velocity": 84, "duration": 312}, {"note": 88, "velocity": 84, "duration": 174}, {"note": 0, "velocity": 0, "duration": 66}, {"note": 88, "velocity": 84, "duration": 64}, {"note": 88, "velocity": 84, "duration": 237}, {"note": 0, "velocity": 0, "duration": 603}, {"note": 88, "velocity": 84, "duration": 189}, {"note": 88, "velocity": 84, "duration": 169}, {"note": 0, "velocity": 0, "duration": 71}, {"note": 87, "velocity": 84, "duration": 213}, {"note": 85, "velocity": 84, "duration": 119}, {"note": 0, "velocity": 0, "duration": 121}, {"note": 83, "velocity": 84, "duration": 188}, {"note": 90, "velocity": 84, "duration": 183}, {"note": 88, "velocity": 84, "duration": 158}, {"note": 0, "velocity": 0, "duration": 82}, {"note": 90, "velocity": 84, "duration": 128}, {"note": 0, "velocity": 0, "duration": 112}, {"note": 93, "velocity": 84, "duration": 57}, {"note": 0, "velocity": 0, "duration": 63}, {"note": 92, "velocity": 84, "duration": 207}, {"note": 88, "velocity": 85, "duration": 503}, {"note": 0, "velocity": 0, "duration": 97}, {"note": 88, "velocity": 86, "duration": 106}, {"note": 0, "velocity": 0, "duration": 134}, {"note": 88, "velocity": 88, "duration": 168}, {"note": 0, "velocity": 0, "duration": 72}, {"note": 92, "velocity": 86, "duration": 166}, {"note": 0, "velocity": 0, "duration": 74}, {"note": 90, "velocity": 88, "duration": 195}, {"note": 88, "velocity": 86, "duration": 179}, {"note": 0, "velocity": 0, "duration": 61}, {"note": 88, "velocity": 88, "duration": 209}, {"note": 87, "velocity": 86, "duration": 120}, {"note": 0, "velocity": 0, "duration": 120}, {"note": 90, "velocity": 88, "duration": 282}, {"note": 88, "velocity": 87, "duration": 60}, {"note": 88, "velocity": 88, "duration": 570}]]