[[{"note": 79, "velocity": 98, "duration": 129}, {"note": 0, "velocity": 0, "duration": 111}, {"note": 79, "velocity": 79, "duration": 259}, {"note": 0, "velocity": 0, "duration": 221}, {"note": 79, "velocity": 93, "duration": 112}, {"note": 0, "velocity": 0, "duration": 128}, {"note": 86, "velocity": 93, "duration": 98}, {"note": 0, "velocity": 0, "duration": 142}, {"note": 84, "velocity": 90, "duration": 95}, {"note": 0, "velocity": 0, "duration": 145}, {"note": 82, "velocity": 87, "duration": 107}, {"note": 0, "velocity": 0, "duration": 133}, {"note": 84, "velocity": 95, "duration": 84}, {"note": 0, "velocity": 0, "duration": 156}, {"note": 86, "velocity": 112, "duration": 783}, {"note": 0, "velocity": 0, "duration": 1137}, {"note": 89, "velocity": 120, "duration": 127}, {"note": 0, "velocity": 0, "duration": 113}, {"note": 86, "velocity": 79, "duration": 84}, {"note": 0, "velocity": 0, "duration": 156}, {"note": 86, "velocity": 104, "duration": 123}, {"note": 0, "velocity": 0, "duration": 117}, {"note": 84, "velocity": 87, "duration": 112}, {"note": 0, "velocity": 0, "duration": 128}, {"note": 82, "velocity": 87, "duration": 286}, {"note": 0, "velocity": 0, "duration": 194}, {"note": 86, "velocity": 111, "duration": 304}, {"note": 0, "velocity": 0, "duration": 176}, {"note": 84, "velocity": 114, "duration": 516}, {"note": 0, "velocity": 0, "duration": 1404}, {"note": 79, "velocity": 104, "duration": 511}, {"note": 0, "velocity": 0, "duration": 209}, {"note": 82, "velocity": 108, "duration": 132}, {"note": 0, "velocity": 0, "duration": 108}, {"note": 79, "velocity": 104, "duration": 308}, {"note": 0, "velocity": 0, "duration": 172}, {"note": 84, "velocity": 104, "duration": 326}, {"note": 0, "velocity": 0, "duration": 154}, {"note": 79, "velocity": 114, "duration": 396}, {"note": 0, "velocity": 0, "duration": 84}, {"note": 84, "velocity": 104, "duration": 322}, {"note": 0, "velocity": 0, "duration": 158}, {"note": 79, "velocity": 114, "duration": 565}, {"note": 0, "velocity": 0, "duration": 395}, {"note": 81, "velocity": 108, "duration": 101}, {"note": 0, "velocity": 0, "duration": 139}, {"note": 81, "velocity": 95, "duration": 87}, {"note": 0, "velocity": 0, "duration": 153}, {"note": 81, "velocity": 108, "duration": 101}, {"note": 0, "velocity": 0, "duration": 139}, {"note": 79, "velocity": 104, "duration": 97}, {"note": 0, "velocity": 0, "duration": 143}, {"note": 77, "velocity": 108, "duration": 308}, {"note": 0, "velocity": 0, "duration": 172}, {"note": 74, "velocity": 111, "duration": 325}, {"note": 0, "velocity": 0, "duration": 155}, {"note": 79, "velocity": 117, "duration": 732}, {"note": 0, "velocity": 0, "duration": 1188}, {"note": 79, "velocity": 98, "duration": 129}, {"note": 0, "velocity": 0, "duration": 111}, {"note": 79, "velocity": 79, "duration": 259}, {"note": 0, "velocity": 0, "duration": 221}, {"note": 79, "velocity": 93, "duration": 112}, {"note": 0, "velocity": 0, "duration": 128}, {"note": 86, "velocity": 93, "duration": 98}, {"note": 0, "velocity": 0, "duration": 142}, {"note": 84, "velocity": 90, "duration": 95}, {"note": 0, "velocity": 0, "duration": 145}, {"note": 82, "velocity": 87, "duration": 107}, {"note": 0, "velocity": 0, "duration": 133}, {"note": 84, "velocity": 95, "duration": 84}, {"note": 0, "velocity": 0, "duration": 156}, {"note": 86, "velocity": 112, "duration": 1279}, {"note": 0, "velocity": 0, "duration": 641}, {"note": 89, "velocity": 120, "duration": 127}, {"note": 0, "velocity": 0, "duration": 113}, {"note": 86, "velocity": 79, "duration": 84}, {"note": 0, "velocity": 0, "duration": 156}, {"note": 86, "velocity": 104, "duration": 123}, {"note": 0, "velocity": 0, "duration": 117}, {"note": 84, "velocity": 87, "duration": 112}, {"note": 0, "velocity": 0, "duration": 128}, {"note": 82, "velocity": 87, "duration": 286}, {"note": 0, "velocity": 0, "duration": 194}, {"note": 86, "velocity": 111, "duration": 304}, {"note": 0, "velocity": 0, "duration": 176}, {"note": 84, "velocity": 114, "duration": 516}, {"note": 0, "velocity": 0, "duration": 1404}, {"note": 79, "velocity": 104, "duration": 511}, {"note": 0, "velocity": 0, "duration": 209}, {"note": 82, "velocity": 108, "duration": 132}, {"note": 0, "velocity": 0, "duration": 108}, {"note": 79, "velocity": 104, "duration": 308}, {"note": 0, "velocity": 0, "duration": 172}, {"note": 84, "velocity": 104, "duration": 326}, {"note": 0, "velocity": 0, "duration": 154}, {"note": 79, "velocity": 114, "duration": 396}, {"note": 0, "velocity": 0, "duration": 84}, {"note": 84, "velocity": 104, "duration": 322}, {"note": 0, "velocity": 0, "duration": 158}, {"note": 79, "velocity": 114, "duration": 565}, {"note": 0, "velocity": 0, "duration": 395}, {"note": 81, "velocity": 108, "duration": 101}, {"note": 0, "velocity": 0, "duration": 139}, {"note": 81, "velocity": 95, "duration": 87}, {"note": 0, "velocity": 0, "duration": 153}, {"note": 81, "velocity": 108, "duration": 101}, {"note": 0, "velocity": 0, "duration": 139}, {"note": 79, "velocity": 104, "duration": 97}, {"note": 0, "velocity": 0, "duration": 143}, {"note": 77, "velocity": 108, "duration": 308}, {"note": 0, "velocity": 0, "duration": 172}, {"note": 74, "velocity": 111, "duration": 325}, {"note": 0, "velocity": 0, "duration": 155}, {"note": 79, "velocity": 117, "duration": 732}, {"note": 0, "velocity": 0, "duration": 8868}, {"note": 79, "velocity": 98, "duration": 129}, {"note": 79, "velocity": 98, "duration": 129}, {"note": 0, "velocity": 0, "duration": 111}, {"note": 79, "velocity": 79, "duration": 259}, {"note": 79, "velocity": 79, "duration": 259}, {"note": 0, "velocity": 0, "duration": 221}, {"note": 79, "velocity": 93, "duration": 112}, {"note": 79, "velocity": 93, "duration": 112}, {"note": 0, "velocity": 0, "duration": 128}, {"note": 86, "velocity": 93, "duration": 98}, {"note": 86, "velocity": 93, "duration": 98}, {"note": 0, "velocity": 0, "duration": 142}, {"note": 84, "velocity": 90, "duration": 95}, {"note": 84, "velocity": 90, "duration": 95}, {"note": 0, "velocity": 0, "duration": 145}, {"note": 82, "velocity": 87, "duration": 107}, {"note": 82, "velocity": 87, "duration": 107}, {"note": 0, "velocity": 0, "duration": 133}, {"note": 84, "velocity": 95, "duration": 84}, {"note": 84, "velocity": 95, "duration": 84}, {"note": 0, "velocity": 0, "duration": 156}, {"note": 86, "velocity": 112, "duration": 783}, {"note": 86, "velocity": 112, "duration": 783}, {"note": 0, "velocity": 0, "duration": 1137}, {"note": 89, "velocity": 120, "duration": 127}, {"note": 89, "velocity": 120, "duration": 127}, {"note": 0, "velocity": 0, "duration": 113}, {"note": 86, "velocity": 79, "duration": 84}, {"note": 86, "velocity": 79, "duration": 84}, {"note": 0, "velocity": 0, "duration": 156}, {"note": 86, "velocity": 104, "duration": 123}, {"note": 86, "velocity": 104, "duration": 123}, {"note": 0, "velocity": 0, "duration": 117}, {"note": 84, "velocity": 87, "duration": 112}, {"note": 84, "velocity": 87, "duration": 112}, {"note": 0, "velocity": 0, "duration": 128}, {"note": 82, "velocity": 87, "duration": 286}, {"note": 82, "velocity": 87, "duration": 286}, {"note": 0, "velocity": 0, "duration": 194}, {"note": 86, "velocity": 111, "duration": 304}, {"note": 86, "velocity": 111, "duration": 304}, {"note": 0, "velocity": 0, "duration": 176}, {"note": 84, "velocity": 114, "duration": 516}, {"note": 84, "velocity": 114, "duration": 516}, {"note": 0, "velocity": 0, "duration": 1404}, {"note": 79, "velocity": 104, "duration": 511}, {"note": 79, "velocity": 104, "duration": 511}, {"note": 0, "velocity": 0, "duration": 209}, {"note": 82, "velocity": 108, "duration": 132}, {"note": 82, "velocity": 108, "duration": 132}, {"note": 0, "velocity": 0, "duration": 108}, {"note": 79, "velocity": 104, "duration": 308}, {"note": 79, "velocity": 104, "duration": 308}, {"note": 0, "velocity": 0, "duration": 172}, {"note": 84, "velocity": 104, "duration": 326}, {"note": 84, "velocity": 104, "duration": 326}, {"note": 0, "velocity": 0, "duration": 154}, {"note": 79, "velocity": 114, "duration": 396}, {"note": 79, "velocity": 114, "duration": 396}, {"note": 0, "velocity": 0, "duration": 84}, {"note": 84, "velocity": 104, "duration": 322}, {"note": 84, "velocity": 104, "duration": 322}, {"note": 0, "velocity": 0, "duration": 158}, {"note": 79, "velocity": 114, "duration": 565}, {"note": 79, "velocity": 114, "duration": 565}, {"note": 0, "velocity": 0, "duration": 395}, {"note": 81, "velocity": 108, "duration": 101}, {"note": 81, "velocity": 108, "duration": 101}, {"note": 0, "velocity": 0, "duration": 139}, {"note": 81, "velocity": 95, "duration": 87}, {"note": 81, "velocity": 95, "duration": 87}, {"note": 0, "velocity": 0, "duration": 153}, {"note": 81, "velocity": 108, "duration": 101}, {"note": 81, "velocity": 108, "duration": 101}, {"note": 0, "velocity": 0, "duration": 139}, {"note": 79, "velocity": 104, "duration": 97}, {"note": 79, "velocity": 104, "duration": 97}, {"note": 0, "velocity": 0, "duration": 143}, {"note": 77, "velocity": 108, "duration": 308}, {"note": 77, "velocity": 108, "duration": 308}, {"note": 0, "velocity": 0, "duration": 172}, {"note": 74, "velocity": 111, "duration": 325}, {"note": 74, "velocity": 111, "duration": 325}, {"note": 0, "velocity": 0, "duration": 155}, {"note": 79, "velocity": 117, "duration": 732}, {"note": 79, "velocity": 117, "duration": 732}, {"note": 0, "velocity": 0, "duration": 1188}, {"note": 79, "velocity": 98, "duration": 129}, {"note": 79, "velocity": 98, "duration": 129}, {"note": 0, "velocity": 0, "duration": 111}, {"note": 79, "velocity": 79, "duration": 164}, {"note": 79, "velocity": 93, "duration": 164}, {"note": 0, "velocity": 0, "duration": 316}, {"note": 79, "velocity": 93, "duration": 112}, {"note": 79, "velocity": 93, "duration": 112}, {"note": 0, "velocity": 0, "duration": 128}, {"note": 86, "velocity": 93, "duration": 98}, {"note": 86, "velocity": 93, "duration": 98}, {"note": 0, "velocity": 0, "duration": 142}, {"note": 84, "velocity": 90, "duration": 95}, {"note": 84, "velocity": 90, "duration": 95}, {"note": 0, "velocity": 0, "duration": 145}, {"note": 82, "velocity": 87, "duration": 107}, {"note": 82, "velocity": 87, "duration": 107}, {"note": 0, "velocity": 0, "duration": 133}, {"note": 84, "velocity": 95, "duration": 84}, {"note": 84, "velocity": 95, "duration": 84}, {"note": 0, "velocity": 0, "duration": 156}, {"note": 86, "velocity": 112, "duration": 783}, {"note": 86, "velocity": 112, "duration": 783}, {"note": 0, "velocity": 0, "duration": 1137}, {"note": 89, "velocity": 120, "duration": 127}, {"note": 89, "velocity": 120, "duration": 127}, {"note": 0, "velocity": 0, "duration": 113}, {"note": 86, "velocity": 79, "duration": 84}, {"note": 86, "velocity": 79, "duration": 84}, {"note": 0, "velocity": 0, "duration": 156}, {"note": 86, "velocity": 104, "duration": 123}, {"note": 86, "velocity": 104, "duration": 123}, {"note": 0, "velocity": 0, "duration": 117}, {"note": 84, "velocity": 87, "duration": 112}, {"note": 84, "velocity": 87, "duration": 112}, {"note": 0, "velocity": 0, "duration": 128}, {"note": 82, "velocity": 87, "duration": 286}, {"note": 82, "velocity": 87, "duration": 286}, {"note": 0, "velocity": 0, "duration": 194}, {"note": 86, "velocity": 111, "duration": 304}, {"note": 86, "velocity": 111, "duration": 304}, {"note": 0, "velocity": 0, "duration": 176}, {"note": 84, "velocity": 114, "duration": 516}, {"note": 84, "velocity": 114, "duration": 516}, {"note": 0, "velocity": 0, "duration": 1404}, {"note": 79, "velocity": 104, "duration": 511}, {"note": 79, "velocity": 104, "duration": 511}, {"note": 0, "velocity": 0, "duration": 209}, {"note": 82, "velocity": 108, "duration": 132}, {"note": 82, "velocity": 108, "duration": 132}, {"note": 0, "velocity": 0, "duration": 108}, {"note": 79, "velocity": 104, "duration": 308}, {"note": 79, "velocity": 104, "duration": 308}, {"note": 0, "velocity": 0, "duration": 172}, {"note": 84, "velocity": 104, "duration": 326}, {"note": 84, "velocity": 104, "duration": 326}, {"note": 0, "velocity": 0, "duration": 154}, {"note": 79, "velocity": 90, "duration": 211}, {"note": 79, "velocity": 114, "duration": 211}, {"note": 82, "velocity": 95, "duration": 99}, {"note": 0, "velocity": 0, "duration": 141}, {"note": 84, "velocity": 104, "duration": 322}, {"note": 84, "velocity": 104, "duration": 322}, {"note": 0, "velocity": 0, "duration": 158}, {"note": 79, "velocity": 114, "duration": 565}, {"note": 79, "velocity": 114, "duration": 565}, {"note": 0, "velocity": 0, "duration": 395}, {"note": 81, "velocity": 108, "duration": 101}, {"note": 81, "velocity": 108, "duration": 101}, {"note": 0, "velocity": 0, "duration": 139}, {"note": 81, "velocity": 95, "duration": 87}, {"note": 81, "velocity": 95, "duration": 87}, {"note": 0, "velocity": 0, "duration": 153}, {"note": 81, "velocity": 108, "duration": 101}, {"note": 81, "velocity": 108, "duration": 101}, {"note": 0, "velocity": 0, "duration": 139}, {"note": 82, "velocity": 79, "duration": 115}, {"note": 0, "velocity": 0, "duration": 125}, {"note": 84, "velocity": 120, "duration": 323}, {"note": 0, "velocity": 0, "duration": 157}, {"note": 74, "velocity": 111, "duration": 325}, {"note": 74, "velocity": 111, "duration": 325}, {"note": 0, "velocity": 0, "duration": 155}, {"note": 79, "velocity": 117, "duration": 732}, {"note": 79, "velocity": 117, "duration": 732}, {"note": 0, "velocity": 0, "duration": 16548}, {"note": 79, "velocity": 98, "duration": 129}, {"note": 79, "velocity": 98, "duration": 129}, {"note": 0, "velocity": 0, "duration": 111}, {"note": 79, "velocity": 79, "duration": 259}, {"note": 79, "velocity": 79, "duration": 259}, {"note": 0, "velocity": 0, "duration": 221}, {"note": 79, "velocity": 93, "duration": 112}, {"note": 79, "velocity": 93, "duration": 112}, {"note": 0, "velocity": 0, "duration": 128}, {"note": 86, "velocity": 93, "duration": 98}, {"note": 86, "velocity": 93, "duration": 98}, {"note": 0, "velocity": 0, "duration": 142}, {"note": 84, "velocity": 90, "duration": 95}, {"note": 84, "velocity": 90, "duration": 95}, {"note": 0, "velocity": 0, "duration": 145}, {"note": 82, "velocity": 87, "duration": 107}, {"note": 82, "velocity": 87, "duration": 107}, {"note": 0, "velocity": 0, "duration": 133}, {"note": 84, "velocity": 95, "duration": 84}, {"note": 84, "velocity": 95, "duration": 84}, {"note": 0, "velocity": 0, "duration": 156}, {"note": 86, "velocity": 112, "duration": 783}, {"note": 86, "velocity": 112, "duration": 783}, {"note": 0, "velocity": 0, "duration": 1137}, {"note": 89, "velocity": 120, "duration": 127}, {"note": 89, "velocity": 120, "duration": 127}, {"note": 0, "velocity": 0, "duration": 113}, {"note": 86, "velocity": 79, "duration": 84}, {"note": 86, "velocity": 79, "duration": 84}, {"note": 0, "velocity": 0, "duration": 156}, {"note": 86, "velocity": 104, "duration": 123}, {"note": 86, "velocity": 104, "duration": 123}, {"note": 0, "velocity": 0, "duration": 117}, {"note": 84, "velocity": 87, "duration": 112}, {"note": 84, "velocity": 87, "duration": 112}, {"note": 0, "velocity": 0, "duration": 128}, {"note": 82, "velocity": 87, "duration": 286}, {"note": 82, "velocity": 87, "duration": 286}, {"note": 0, "velocity": 0, "duration": 194}, {"note": 86, "velocity": 111, "duration": 304}, {"note": 86, "velocity": 111, "duration": 304}, {"note": 0, "velocity": 0, "duration": 176}, {"note": 84, "velocity": 114, "duration": 516}, {"note": 84, "velocity": 114, "duration": 516}, {"note": 0, "velocity": 0, "duration": 1404}, {"note": 79, "velocity": 104, "duration": 511}, {"note": 79, "velocity": 104, "duration": 511}, {"note": 0, "velocity": 0, "duration": 209}, {"note": 82, "velocity": 108, "duration": 132}, {"note": 82, "velocity": 108, "duration": 132}, {"note": 0, "velocity": 0, "duration": 108}, {"note": 79, "velocity": 104, "duration": 308}, {"note": 79, "velocity": 104, "duration": 308}, {"note": 0, "velocity": 0, "duration": 172}, {"note": 84, "velocity": 104, "duration": 326}, {"note": 84, "velocity": 104, "duration": 326}, {"note": 0, "velocity": 0, "duration": 154}, {"note": 79, "velocity": 114, "duration": 396}, {"note": 79, "velocity": 114, "duration": 396}, {"note": 0, "velocity": 0, "duration": 84}, {"note": 84, "velocity": 104, "duration": 322}, {"note": 84, "velocity": 104, "duration": 322}, {"note": 0, "velocity": 0, "duration": 158}, {"note": 79, "velocity": 114, "duration": 565}, {"note": 79, "velocity": 114, "duration": 565}, {"note": 0, "velocity": 0, "duration": 395}, {"note": 81, "velocity": 108, "duration": 101}, {"note": 81, "velocity": 108, "duration": 101}, {"note": 0, "velocity": 0, "duration": 139}, {"note": 81, "velocity": 95, "duration": 87}, {"note": 81, "velocity": 95, "duration": 87}, {"note": 0, "velocity": 0, "duration": 153}, {"note": 81, "velocity": 108, "duration": 101}, {"note": 81, "velocity": 108, "duration": 101}, {"note": 0, "velocity": 0, "duration": 139}, {"note": 79, "velocity": 104, "duration": 97}, {"note": 79, "velocity": 104, "duration": 97}, {"note": 0, "velocity": 0, "duration": 143}, {"note": 77, "velocity": 108, "duration": 308}, {"note": 77, "velocity": 108, "duration": 308}, {"note": 0, "velocity": 0, "duration": 172}, {"note": 74, "velocity": 111, "duration": 325}, {"note": 74, "velocity": 111, "duration": 325}, {"note": 0, "velocity": 0, "duration": 155}, {"note": 79, "velocity": 117, "duration": 732}, {"note": 79, "velocity": 117, "duration": 732}, {"note": 0, "velocity": 0, "duration": 1188}, {"note": 79, "velocity": 98, "duration": 129}, {"note": 79, "velocity": 98, "duration": 129}, {"note": 0, "velocity": 0, "duration": 111}, {"note": 79, "velocity": 79, "duration": 164}, {"note": 79, "velocity": 93, "duration": 164}, {"note": 0, "velocity": 0, "duration": 316}, {"note": 79, "velocity": 93, "duration": 112}, {"note": 79, "velocity": 93, "duration": 112}, {"note": 0, "velocity": 0, "duration": 128}, {"note": 86, "velocity": 93, "duration": 98}, {"note": 86, "velocity": 93, "duration": 98}, {"note": 0, "velocity": 0, "duration": 142}, {"note": 84, "velocity": 90, "duration": 95}, {"note": 84, "velocity": 90, "duration": 95}, {"note": 0, "velocity": 0, "duration": 145}, {"note": 82, "velocity": 87, "duration": 107}, {"note": 82, "velocity": 87, "duration": 107}, {"note": 0, "velocity": 0, "duration": 133}, {"note": 84, "velocity": 95, "duration": 84}, {"note": 84, "velocity": 95, "duration": 84}, {"note": 0, "velocity": 0, "duration": 156}, {"note": 86, "velocity": 112, "duration": 783}, {"note": 86, "velocity": 112, "duration": 783}, {"note": 0, "velocity": 0, "duration": 1137}, {"note": 89, "velocity": 120, "duration": 127}, {"note": 89, "velocity": 120, "duration": 127}, {"note": 0, "velocity": 0, "duration": 113}, {"note": 86, "velocity": 79, "duration": 84}, {"note": 86, "velocity": 79, "duration": 84}, {"note": 0, "velocity": 0, "duration": 156}, {"note": 86, "velocity": 104, "duration": 123}, {"note": 86, "velocity": 104, "duration": 123}, {"note": 0, "velocity": 0, "duration": 117}, {"note": 84, "velocity": 87, "duration": 112}, {"note": 84, "velocity": 87, "duration": 112}, {"note": 0, "velocity": 0, "duration": 128}, {"note": 82, "velocity": 87, "duration": 286}, {"note": 82, "velocity": 87, "duration": 286}, {"note": 0, "velocity": 0, "duration": 194}, {"note": 86, "velocity": 111, "duration": 304}, {"note": 86, "velocity": 111, "duration": 304}, {"note": 0, "velocity": 0, "duration": 176}, {"note": 84, "velocity": 114, "duration": 516}, {"note": 84, "velocity": 114, "duration": 516}, {"note": 0, "velocity": 0, "duration": 1404}, {"note": 79, "velocity": 104, "duration": 511}, {"note": 79, "velocity": 104, "duration": 511}, {"note": 0, "velocity": 0, "duration": 209}, {"note": 82, "velocity": 108, "duration": 132}, {"note": 82, "velocity": 108, "duration": 132}, {"note": 0, "velocity": 0, "duration": 108}, {"note": 79, "velocity": 104, "duration": 308}, {"note": 79, "velocity": 104, "duration": 308}, {"note": 0, "velocity": 0, "duration": 172}, {"note": 84, "velocity": 104, "duration": 326}, {"note": 84, "velocity": 104, "duration": 326}, {"note": 0, "velocity": 0, "duration": 154}, {"note": 79, "velocity": 90, "duration": 211}, {"note": 79, "velocity": 114, "duration": 211}, {"note": 82, "velocity": 95, "duration": 99}, {"note": 0, "velocity": 0, "duration": 141}, {"note": 84, "velocity": 104, "duration": 322}, {"note": 84, "velocity": 104, "duration": 322}, {"note": 0, "velocity": 0, "duration": 158}, {"note": 79, "velocity": 114, "duration": 565}, {"note": 79, "velocity": 114, "duration": 565}, {"note": 0, "velocity": 0, "duration": 395}, {"note": 81, "velocity": 108, "duration": 101}, {"note": 81, "velocity": 108, "duration": 101}, {"note": 0, "velocity": 0, "duration": 139}, {"note": 81, "velocity": 95, "duration": 87}, {"note": 81, "velocity": 95, "duration": 87}, {"note": 0, "velocity": 0, "duration": 153}, {"note": 81, "velocity": 108, "duration": 101}, {"note": 81, "velocity": 108, "duration": 101}, {"note": 0, "velocity": 0, "duration": 139}, {"note": 82, "velocity": 79, "duration": 115}, {"note": 0, "velocity": 0, "duration": 125}, {"note": 84, "velocity": 120, "duration": 323}, {"note": 0, "velocity": 0, "duration": 157}, {"note": 74, "velocity": 111, "duration": 325}, {"note": 74, "velocity": 111, "duration": 325}, {"note": 0, "velocity": 0, "duration": 155}, {"note": 79, "velocity": 117, "duration": 732}, {"note": 79, "velocity": 117, "duration": 732}, {"note": 0, "velocity": 0, "duration": 8868}, {"note": 79, "velocity": 98, "duration": 129}, {"note": 79, "velocity": 98, "duration": 129}, {"note": 0, "velocity": 0, "duration": 111}, {"note": 79, "velocity": 79, "duration": 259}, {"note": 79, "velocity": 79, "duration": 259}, {"note": 0, "velocity": 0, "duration": 221}, {"note": 79, "velocity": 93, "duration": 112}, {"note": 79, "velocity": 93, "duration": 112}, {"note": 0, "velocity": 0, "duration": 128}, {"note": 86, "velocity": 93, "duration": 98}, {"note": 86, "velocity": 93, "duration": 98}, {"note": 0, "velocity": 0, "duration": 142}, {"note": 84, "velocity": 90, "duration": 95}, {"note": 84, "velocity": 90, "duration": 95}, {"note": 0, "velocity": 0, "duration": 145}, {"note": 82, "velocity": 87, "duration": 107}, {"note": 82, "velocity": 87, "duration": 107}, {"note": 0, "velocity": 0, "duration": 133}, {"note": 84, "velocity": 95, "duration": 84}, {"note": 84, "velocity": 95, "duration": 84}, {"note": 0, "velocity": 0, "duration": 156}, {"note": 86, "velocity": 112, "duration": 783}, {"note": 86, "velocity": 112, "duration": 783}, {"note": 0, "velocity": 0, "duration": 1137}, {"note": 89, "velocity": 120, "duration": 127}, {"note": 89, "velocity": 120, "duration": 127}, {"note": 0, "velocity": 0, "duration": 113}, {"note": 86, "velocity": 79, "duration": 84}, {"note": 86, "velocity": 79, "duration": 84}, {"note": 0, "velocity": 0, "duration": 156}, {"note": 86, "velocity": 104, "duration": 123}, {"note": 86, "velocity": 104, "duration": 123}, {"note": 0, "velocity": 0, "duration": 117}, {"note": 84, "velocity": 87, "duration": 112}, {"note": 84, "velocity": 87, "duration": 112}, {"note": 0, "velocity": 0, "duration": 128}, {"note": 82, "velocity": 87, "duration": 286}, {"note": 82, "velocity": 87, "duration": 286}, {"note": 0, "velocity": 0, "duration": 194}, {"note": 86, "velocity": 111, "duration": 304}, {"note": 86, "velocity": 111, "duration": 304}, {"note": 0, "velocity": 0, "duration": 176}, {"note": 84, "velocity": 114, "duration": 516}, {"note": 84, "velocity": 114, "duration": 516}, {"note": 0, "velocity": 0, "duration": 1404}, {"note": 79, "velocity": 104, "duration": 511}, {"note": 79, "velocity": 104, "duration": 511}, {"note": 0, "velocity": 0, "duration": 209}, {"note": 82, "velocity": 108, "duration": 132}, {"note": 82, "velocity": 108, "duration": 132}, {"note": 0, "velocity": 0, "duration": 108}, {"note": 79, "velocity": 104, "duration": 308}, {"note": 79, "velocity": 104, "duration": 308}, {"note": 0, "velocity": 0, "duration": 172}, {"note": 84, "velocity": 104, "duration": 326}, {"note": 84, "velocity": 104, "duration": 326}, {"note": 0, "velocity": 0, "duration": 154}, {"note": 79, "velocity": 114, "duration": 396}, {"note": 79, "velocity": 114, "duration": 396}, {"note": 0, "velocity": 0, "duration": 84}, {"note": 84, "velocity": 104, "duration": 322}, {"note": 84, "velocity": 104, "duration": 322}, {"note": 0, "velocity": 0, "duration": 158}, {"note": 79, "velocity": 114, "duration": 565}, {"note": 79, "velocity": 114, "duration": 565}, {"note": 0, "velocity": 0, "duration": 395}, {"note": 81, "velocity": 108, "duration": 101}, {"note": 81, "velocity": 108, "duration": 101}, {"note": 0, "velocity": 0, "duration": 139}, {"note": 81, "velocity": 95, "duration": 87}, {"note": 81, "velocity": 95, "duration": 87}, {"note": 0, "velocity": 0, "duration": 153}, {"note": 81, "velocity": 108, "duration": 101}, {"note": 81, "velocity": 108, "duration": 101}, {"note": 0, "velocity": 0, "duration": 139}, {"note": 79, "velocity": 104, "duration": 97}, {"note": 79, "velocity": 104, "duration": 97}, {"note": 0, "velocity": 0, "duration": 143}, {"note": 77, "velocity": 108, "duration": 308}, {"note": 77, "velocity": 108, "duration": 308}, {"note": 0, "velocity": 0, "duration": 172}, {"note": 74, "velocity": 111, "duration": 325}, {"note": 74, "velocity": 111, "duration": 325}, {"note": 0, "velocity": 0, "duration": 155}, {"note": 79, "velocity": 117, "duration": 732}, {"note": 79, "velocity": 117, "duration": 732}, {"note": 0, "velocity": 0, "duration": 1188}, {"note": 79, "velocity": 98, "duration": 129}, {"note": 79, "velocity": 98, "duration": 129}, {"note": 0, "velocity": 0, "duration": 111}, {"note": 79, "velocity": 79, "duration": 164}, {"note": 79, "velocity": 93, "duration": 164}, {"note": 0, "velocity": 0, "duration": 316}, {"note": 79, "velocity": 93, "duration": 112}, {"note": 79, "velocity": 93, "duration": 112}, {"note": 0, "velocity": 0, "duration": 128}, {"note": 86, "velocity": 93, "duration": 98}, {"note": 86, "velocity": 93, "duration": 98}, {"note": 0, "velocity": 0, "duration": 142}, {"note": 84, "velocity": 90, "duration": 95}, {"note": 84, "velocity": 90, "duration": 95}, {"note": 0, "velocity": 0, "duration": 145}, {"note": 82, "velocity": 87, "duration": 107}, {"note": 82, "velocity": 87, "duration": 107}, {"note": 0, "velocity": 0, "duration": 133}, {"note": 84, "velocity": 95, "duration": 84}, {"note": 84, "velocity": 95, "duration": 84}, {"note": 0, "velocity": 0, "duration": 156}, {"note": 86, "velocity": 112, "duration": 783}, {"note": 86, "velocity": 112, "duration": 783}, {"note": 0, "velocity": 0, "duration": 1137}, {"note": 89, "velocity": 120, "duration": 127}, {"note": 89, "velocity": 120, "duration": 127}, {"note": 0, "velocity": 0, "duration": 113}, {"note": 86, "velocity": 79, "duration": 84}, {"note": 86, "velocity": 79, "duration": 84}, {"note": 0, "velocity": 0, "duration": 156}, {"note": 86, "velocity": 104, "duration": 123}, {"note": 86, "velocity": 104, "duration": 123}, {"note": 0, "velocity": 0, "duration": 117}, {"note": 84, "velocity": 87, "duration": 112}, {"note": 84, "velocity": 87, "duration": 112}, {"note": 0, "velocity": 0, "duration": 128}, {"note": 82, "velocity": 87, "duration": 286}, {"note": 82, "velocity": 87, "duration": 286}, {"note": 0, "velocity": 0, "duration": 194}, {"note": 86, "velocity": 111, "duration": 304}, {"note": 86, "velocity": 111, "duration": 304}, {"note": 0, "velocity": 0, "duration": 176}, {"note": 84, "velocity": 114, "duration": 516}, {"note": 84, "velocity": 114, "duration": 516}, {"note": 0, "velocity": 0, "duration": 1404}, {"note": 79, "velocity": 104, "duration": 511}, {"note": 79, "velocity": 104, "duration": 511}, {"note": 0, "velocity": 0, "duration": 209}, {"note": 82, "velocity": 108, "duration": 132}, {"note": 82, "velocity": 108, "duration": 132}, {"note": 0, "velocity": 0, "duration": 108}, {"note": 79, "velocity": 104, "duration": 308}, {"note": 79, "velocity": 104, "duration": 308}, {"note": 0, "velocity": 0, "duration": 172}, {"note": 84, "velocity": 104, "duration": 326}, {"note": 84, "velocity": 104, "duration": 326}, {"note": 0, "velocity": 0, "duration": 154}, {"note": 79, "velocity": 90, "duration": 211}, {"note": 79, "velocity": 114, "duration": 211}, {"note": 82, "velocity": 95, "duration": 99}, {"note": 0, "velocity": 0, "duration": 141}, {"note": 84, "velocity": 104, "duration": 322}, {"note": 84, "velocity": 104, "duration": 322}, {"note": 0, "velocity": 0, "duration": 158}, {"note": 79, "velocity": 114, "duration": 565}, {"note": 79, "velocity": 114, "duration": 565}, {"note": 0, "velocity": 0, "duration": 395}, {"note": 81, "velocity": 108, "duration": 101}, {"note": 81, "velocity": 108, "duration": 101}, {"note": 0, "velocity": 0, "duration": 139}, {"note": 81, "velocity": 95, "duration": 87}, {"note": 81, "velocity": 95, "duration": 87}, {"note": 0, "velocity": 0, "duration": 153}, {"note": 81, "velocity": 108, "duration": 101}, {"note": 81, "velocity": 108, "duration": 101}, {"note": 0, "velocity": 0, "duration": 139}, {"note": 82, "velocity": 79, "duration": 115}, {"note": 0, "velocity": 0, "duration": 125}, {"note": 84, "velocity": 120, "duration": 323}, {"note": 0, "velocity": 0, "duration": 157}, {"note": 74, "velocity": 111, "duration": 325}, {"note": 74, "velocity": 111, "duration": 325}, {"note": 0, "velocity": 0, "duration": 155}, {"note": 79, "velocity": 117, "duration": 732}, {"note": 79, "velocity": 117, "duration": 732}, {"note": 0, "velocity": 0, "duration": 1188}, {"note": 79, "velocity": 104, "duration": 511}, {"note": 79, "velocity": 104, "duration": 511}, {"note": 0, "velocity": 0, "duration": 209}, {"note": 82, "velocity": 108, "duration": 132}, {"note": 82, "velocity": 108, "duration": 132}, {"note": 0, "velocity": 0, "duration": 108}, {"note": 79, "velocity": 104, "duration": 308}, {"note": 79, "velocity": 104, "duration": 308}, {"note": 0, "velocity": 0, "duration": 172}, {"note": 84, "velocity": 104, "duration": 326}, {"note": 84, "velocity": 104, "duration": 326}, {"note": 0, "velocity": 0, "duration": 154}, {"note": 79, "velocity": 90, "duration": 211}, {"note": 79, "velocity": 114, "duration": 211}, {"note": 82, "velocity": 95, "duration": 99}, {"note": 0, "velocity": 0, "duration": 141}, {"note": 84, "velocity": 104, "duration": 322}, {"note": 84, "velocity": 104, "duration": 322}, {"note": 0, "velocity": 0, "duration": 158}, {"note": 79, "velocity": 114, "duration": 565}, {"note": 79, "velocity": 114, "duration": 565}, {"note": 0, "velocity": 0, "duration": 395}, {"note": 81, "velocity": 108, "duration": 101}, {"note": 81, "velocity": 108, "duration": 101}, {"note": 0, "velocity": 0, "duration": 139}, {"note": 81, "velocity": 95, "duration": 87}, {"note": 81, "velocity": 95, "duration": 87}, {"note": 0, "velocity": 0, "duration": 153}, {"note": 81, "velocity": 108, "duration": 101}, {"note": 81, "velocity": 108, "duration": 101}, {"note": 0, "velocity": 0, "duration": 139}, {"note": 82, "velocity": 79, "duration": 115}, {"note": 0, "velocity": 0, "duration": 125}, {"note": 84, "velocity": 120, "duration": 323}, {"note": 0, "velocity": 0, "duration": 157}, {"note": 89, "velocity": 111, "duration": 325}, {"note": 0, "velocity": 0, "duration": 155}, {"note": 91, "velocity": 117, "duration": 732}]]