[[{"note": 71, "velocity": 77, "duration": 236}, {"note": 73, "velocity": 69, "duration": 236}, {"note": 74, "velocity": 74, "duration": 267}, {"note": 73, "velocity": 75, "duration": 229}, {"note": 74, "velocity": 74, "duration": 295}, {"note": 76, "velocity": 66, "duration": 186}, {"note": 73, "velocity": 72, "duration": 552}, {"note": 69, "velocity": 83, "duration": 243}, {"note": 71, "velocity": 74, "duration": 653}, {"note": 0, "velocity": 0, "duration": 787}, {"note": 71, "velocity": 93, "duration": 392}, {"note": 0, "velocity": 0, "duration": 88}, {"note": 73, "velocity": 87, "duration": 183}, {"note": 74, "velocity": 86, "duration": 450}, {"note": 73, "velocity": 85, "duration": 358}, {"note": 0, "velocity": 0, "duration": 122}, {"note": 74, "velocity": 75, "duration": 194}, {"note": 73, "velocity": 100, "duration": 263}, {"note": 71, "velocity": 83, "duration": 1609}, {"note": 71, "velocity": 77, "duration": 257}, {"note": 73, "velocity": 63, "duration": 122}, {"note": 74, "velocity": 81, "duration": 267}, {"note": 73, "velocity": 46, "duration": 210}, {"note": 74, "velocity": 90, "duration": 282}, {"note": 76, "velocity": 64, "duration": 217}, {"note": 78, "velocity": 95, "duration": 232}, {"note": 76, "velocity": 69, "duration": 123}, {"note": 0, "velocity": 0, "duration": 117}, {"note": 76, "velocity": 74, "duration": 266}, {"note": 69, "velocity": 79, "duration": 194}, {"note": 71, "velocity": 100, "duration": 673}, {"note": 0, "velocity": 0, "duration": 527}, {"note": 71, "velocity": 73, "duration": 246}, {"note": 78, "velocity": 62, "duration": 271}, {"note": 76, "velocity": 69, "duration": 115}, {"note": 0, "velocity": 0, "duration": 125}, {"note": 73, "velocity": 98, "duration": 578}, {"note": 0, "velocity": 0, "duration": 142}, {"note": 69, "velocity": 59, "duration": 248}, {"note": 71, "velocity": 65, "duration": 755}, {"note": 0, "velocity": 0, "duration": 1405}, {"note": 78, "velocity": 87, "duration": 249}, {"note": 76, "velocity": 74, "duration": 285}, {"note": 74, "velocity": 65, "duration": 197}, {"note": 73, "velocity": 98, "duration": 213}, {"note": 74, "velocity": 72, "duration": 207}, {"note": 73, "velocity": 74, "duration": 196}, {"note": 74, "velocity": 74, "duration": 195}, {"note": 73, "velocity": 74, "duration": 350}, {"note": 0, "velocity": 0, "duration": 130}, {"note": 71, "velocity": 67, "duration": 139}, {"note": 0, "velocity": 0, "duration": 101}, {"note": 71, "velocity": 64, "duration": 746}, {"note": 0, "velocity": 0, "duration": 694}, {"note": 78, "velocity": 77, "duration": 243}, {"note": 76, "velocity": 63, "duration": 273}, {"note": 74, "velocity": 59, "duration": 245}, {"note": 73, "velocity": 104, "duration": 273}, {"note": 74, "velocity": 61, "duration": 243}, {"note": 69, "velocity": 69, "duration": 135}, {"note": 0, "velocity": 0, "duration": 105}, {"note": 69, "velocity": 68, "duration": 233}, {"note": 76, "velocity": 97, "duration": 244}, {"note": 0, "velocity": 0, "duration": 236}, {"note": 78, "velocity": 67, "duration": 150}, {"note": 0, "velocity": 0, "duration": 90}, {"note": 78, "velocity": 74, "duration": 913}, {"note": 0, "velocity": 0, "duration": 527}, {"note": 83, "velocity": 77, "duration": 260}, {"note": 81, "velocity": 85, "duration": 256}, {"note": 76, "velocity": 86, "duration": 398}, {"note": 0, "velocity": 0, "duration": 82}, {"note": 76, "velocity": 98, "duration": 263}, {"note": 74, "velocity": 93, "duration": 183}, {"note": 73, "velocity": 108, "duration": 153}, {"note": 0, "velocity": 0, "duration": 87}, {"note": 73, "velocity": 111, "duration": 349}, {"note": 74, "velocity": 76, "duration": 145}, {"note": 0, "velocity": 0, "duration": 215}, {"note": 73, "velocity": 74, "duration": 220}, {"note": 71, "velocity": 74, "duration": 779}, {"note": 0, "velocity": 0, "duration": 421}, {"note": 71, "velocity": 73, "duration": 260}, {"note": 78, "velocity": 83, "duration": 242}, {"note": 76, "velocity": 70, "duration": 350}, {"note": 0, "velocity": 0, "duration": 130}, {"note": 73, "velocity": 83, "duration": 299}, {"note": 0, "velocity": 0, "duration": 181}, {"note": 74, "velocity": 79, "duration": 198}, {"note": 73, "velocity": 85, "duration": 296}, {"note": 0, "velocity": 0, "duration": 64}, {"note": 71, "velocity": 70, "duration": 1073}, {"note": 78, "velocity": 85, "duration": 246}, {"note": 81, "velocity": 86, "duration": 193}, {"note": 83, "velocity": 75, "duration": 513}, {"note": 0, "velocity": 0, "duration": 207}, {"note": 83, "velocity": 86, "duration": 286}, {"note": 81, "velocity": 90, "duration": 233}, {"note": 76, "velocity": 74, "duration": 237}, {"note": 74, "velocity": 72, "duration": 275}, {"note": 76, "velocity": 83, "duration": 217}, {"note": 78, "velocity": 81, "duration": 300}, {"note": 81, "velocity": 77, "duration": 252}, {"note": 76, "velocity": 69, "duration": 271}, {"note": 78, "velocity": 81, "duration": 212}, {"note": 74, "velocity": 73, "duration": 309}, {"note": 0, "velocity": 0, "duration": 171}, {"note": 78, "velocity": 87, "duration": 226}, {"note": 81, "velocity": 74, "duration": 204}, {"note": 83, "velocity": 93, "duration": 530}, {"note": 0, "velocity": 0, "duration": 190}, {"note": 83, "velocity": 86, "duration": 255}, {"note": 81, "velocity": 100, "duration": 121}, {"note": 0, "velocity": 0, "duration": 119}, {"note": 76, "velocity": 66, "duration": 209}, {"note": 74, "velocity": 65, "duration": 270}, {"note": 76, "velocity": 74, "duration": 187}, {"note": 0, "velocity": 0, "duration": 293}, {"note": 78, "velocity": 77, "duration": 967}, {"note": 0, "velocity": 0, "duration": 233}, {"note": 78, "velocity": 104, "duration": 216}, {"note": 81, "velocity": 86, "duration": 203}, {"note": 83, "velocity": 95, "duration": 482}, {"note": 0, "velocity": 0, "duration": 238}, {"note": 83, "velocity": 86, "duration": 266}, {"note": 81, "velocity": 81, "duration": 138}, {"note": 0, "velocity": 0, "duration": 102}, {"note": 76, "velocity": 70, "duration": 242}, {"note": 74, "velocity": 83, "duration": 216}, {"note": 76, "velocity": 70, "duration": 194}, {"note": 78, "velocity": 62, "duration": 164}, {"note": 0, "velocity": 0, "duration": 76}, {"note": 81, "velocity": 90, "duration": 111}, {"note": 0, "velocity": 0, "duration": 129}, {"note": 81, "velocity": 104, "duration": 124}, {"note": 0, "velocity": 0, "duration": 116}, {"note": 76, "velocity": 93, "duration": 178}, {"note": 0, "velocity": 0, "duration": 62}, {"note": 74, "velocity": 90, "duration": 329}, {"note": 0, "velocity": 0, "duration": 151}, {"note": 78, "velocity": 90, "duration": 244}, {"note": 76, "velocity": 76, "duration": 241}, {"note": 71, "velocity": 85, "duration": 391}, {"note": 78, "velocity": 11, "duration": 601}, {"note": 0, "velocity": 0, "duration": 119}, {"note": 76, "velocity": 71, "duration": 233}, {"note": 0, "velocity": 0, "duration": 127}, {"note": 74, "velocity": 79, "duration": 255}, {"note": 0, "velocity": 0, "duration": 105}, {"note": 73, "velocity": 83, "duration": 283}, {"note": 0, "velocity": 0, "duration": 197}, {"note": 71, "velocity": 68, "duration": 718}, {"note": 0, "velocity": 0, "duration": 18722}, {"note": 71, "velocity": 77, "duration": 236}, {"note": 73, "velocity": 69, "duration": 236}, {"note": 74, "velocity": 74, "duration": 267}, {"note": 73, "velocity": 75, "duration": 229}, {"note": 74, "velocity": 74, "duration": 295}, {"note": 76, "velocity": 66, "duration": 186}, {"note": 73, "velocity": 72, "duration": 552}, {"note": 69, "velocity": 83, "duration": 243}, {"note": 71, "velocity": 74, "duration": 653}, {"note": 0, "velocity": 0, "duration": 787}, {"note": 71, "velocity": 93, "duration": 392}, {"note": 0, "velocity": 0, "duration": 88}, {"note": 73, "velocity": 87, "duration": 183}, {"note": 74, "velocity": 86, "duration": 450}, {"note": 73, "velocity": 85, "duration": 358}, {"note": 0, "velocity": 0, "duration": 122}, {"note": 74, "velocity": 75, "duration": 194}, {"note": 73, "velocity": 100, "duration": 263}, {"note": 71, "velocity": 83, "duration": 1609}, {"note": 0, "velocity": 0, "duration": 551}, {"note": 71, "velocity": 77, "duration": 257}, {"note": 73, "velocity": 63, "duration": 122}, {"note": 74, "velocity": 81, "duration": 385}, {"note": 73, "velocity": 46, "duration": 210}, {"note": 74, "velocity": 90, "duration": 282}, {"note": 76, "velocity": 64, "duration": 217}, {"note": 78, "velocity": 95, "duration": 232}, {"note": 76, "velocity": 69, "duration": 123}, {"note": 0, "velocity": 0, "duration": 117}, {"note": 76, "velocity": 74, "duration": 266}, {"note": 69, "velocity": 79, "duration": 194}, {"note": 71, "velocity": 100, "duration": 673}, {"note": 0, "velocity": 0, "duration": 527}, {"note": 71, "velocity": 73, "duration": 246}, {"note": 78, "velocity": 62, "duration": 271}, {"note": 76, "velocity": 69, "duration": 115}, {"note": 0, "velocity": 0, "duration": 125}, {"note": 73, "velocity": 98, "duration": 578}, {"note": 0, "velocity": 0, "duration": 142}, {"note": 69, "velocity": 59, "duration": 248}, {"note": 71, "velocity": 65, "duration": 755}, {"note": 0, "velocity": 0, "duration": 1405}, {"note": 78, "velocity": 87, "duration": 249}, {"note": 76, "velocity": 74, "duration": 285}, {"note": 74, "velocity": 65, "duration": 197}, {"note": 73, "velocity": 98, "duration": 213}, {"note": 74, "velocity": 72, "duration": 207}, {"note": 73, "velocity": 74, "duration": 196}, {"note": 74, "velocity": 74, "duration": 195}, {"note": 73, "velocity": 74, "duration": 350}, {"note": 0, "velocity": 0, "duration": 130}, {"note": 71, "velocity": 67, "duration": 139}, {"note": 0, "velocity": 0, "duration": 101}, {"note": 71, "velocity": 64, "duration": 746}, {"note": 0, "velocity": 0, "duration": 694}, {"note": 78, "velocity": 77, "duration": 243}, {"note": 76, "velocity": 63, "duration": 273}, {"note": 74, "velocity": 59, "duration": 245}, {"note": 73, "velocity": 104, "duration": 273}, {"note": 74, "velocity": 61, "duration": 243}, {"note": 69, "velocity": 69, "duration": 135}, {"note": 0, "velocity": 0, "duration": 105}, {"note": 69, "velocity": 68, "duration": 233}, {"note": 76, "velocity": 97, "duration": 244}, {"note": 0, "velocity": 0, "duration": 236}, {"note": 78, "velocity": 67, "duration": 150}, {"note": 0, "velocity": 0, "duration": 90}, {"note": 78, "velocity": 74, "duration": 913}, {"note": 0, "velocity": 0, "duration": 527}, {"note": 83, "velocity": 77, "duration": 260}, {"note": 81, "velocity": 85, "duration": 256}, {"note": 76, "velocity": 86, "duration": 398}, {"note": 0, "velocity": 0, "duration": 82}, {"note": 76, "velocity": 98, "duration": 263}, {"note": 74, "velocity": 93, "duration": 183}, {"note": 73, "velocity": 108, "duration": 153}, {"note": 0, "velocity": 0, "duration": 87}, {"note": 73, "velocity": 111, "duration": 349}, {"note": 74, "velocity": 76, "duration": 145}, {"note": 0, "velocity": 0, "duration": 215}, {"note": 73, "velocity": 74, "duration": 220}, {"note": 71, "velocity": 74, "duration": 779}, {"note": 0, "velocity": 0, "duration": 421}, {"note": 71, "velocity": 73, "duration": 260}, {"note": 78, "velocity": 83, "duration": 242}, {"note": 76, "velocity": 70, "duration": 350}, {"note": 0, "velocity": 0, "duration": 130}, {"note": 73, "velocity": 83, "duration": 299}, {"note": 0, "velocity": 0, "duration": 181}, {"note": 74, "velocity": 79, "duration": 198}, {"note": 73, "velocity": 85, "duration": 296}, {"note": 0, "velocity": 0, "duration": 64}, {"note": 71, "velocity": 70, "duration": 1073}, {"note": 0, "velocity": 0, "duration": 3847}, {"note": 78, "velocity": 85, "duration": 246}, {"note": 81, "velocity": 86, "duration": 193}, {"note": 83, "velocity": 75, "duration": 513}, {"note": 0, "velocity": 0, "duration": 207}, {"note": 83, "velocity": 86, "duration": 286}, {"note": 81, "velocity": 90, "duration": 233}, {"note": 76, "velocity": 74, "duration": 237}, {"note": 74, "velocity": 72, "duration": 275}, {"note": 76, "velocity": 83, "duration": 217}, {"note": 78, "velocity": 81, "duration": 300}, {"note": 81, "velocity": 77, "duration": 252}, {"note": 76, "velocity": 69, "duration": 271}, {"note": 78, "velocity": 81, "duration": 212}, {"note": 74, "velocity": 73, "duration": 309}, {"note": 0, "velocity": 0, "duration": 171}, {"note": 78, "velocity": 87, "duration": 226}, {"note": 81, "velocity": 74, "duration": 204}, {"note": 83, "velocity": 93, "duration": 530}, {"note": 0, "velocity": 0, "duration": 190}, {"note": 83, "velocity": 86, "duration": 255}, {"note": 81, "velocity": 100, "duration": 121}, {"note": 0, "velocity": 0, "duration": 119}, {"note": 76, "velocity": 66, "duration": 209}, {"note": 74, "velocity": 65, "duration": 270}, {"note": 76, "velocity": 74, "duration": 187}, {"note": 0, "velocity": 0, "duration": 293}, {"note": 78, "velocity": 77, "duration": 967}, {"note": 0, "velocity": 0, "duration": 233}, {"note": 78, "velocity": 104, "duration": 216}, {"note": 81, "velocity": 86, "duration": 203}, {"note": 83, "velocity": 95, "duration": 482}, {"note": 0, "velocity": 0, "duration": 238}, {"note": 83, "velocity": 86, "duration": 266}, {"note": 81, "velocity": 81, "duration": 138}, {"note": 0, "velocity": 0, "duration": 102}, {"note": 76, "velocity": 70, "duration": 242}, {"note": 74, "velocity": 83, "duration": 216}, {"note": 76, "velocity": 70, "duration": 194}, {"note": 78, "velocity": 62, "duration": 164}, {"note": 0, "velocity": 0, "duration": 76}, {"note": 81, "velocity": 90, "duration": 111}, {"note": 0, "velocity": 0, "duration": 129}, {"note": 81, "velocity": 104, "duration": 124}, {"note": 0, "velocity": 0, "duration": 116}, {"note": 76, "velocity": 93, "duration": 178}, {"note": 0, "velocity": 0, "duration": 62}, {"note": 74, "velocity": 90, "duration": 329}, {"note": 0, "velocity": 0, "duration": 151}, {"note": 78, "velocity": 90, "duration": 244}, {"note": 76, "velocity": 76, "duration": 241}, {"note": 71, "velocity": 85, "duration": 391}, {"note": 0, "velocity": 0, "duration": 89}, {"note": 78, "velocity": 83, "duration": 361}, {"note": 0, "velocity": 0, "duration": 118}, {"note": 76, "velocity": 111, "duration": 261}, {"note": 0, "velocity": 0, "duration": 107}, {"note": 74, "velocity": 98, "duration": 212}, {"note": 0, "velocity": 0, "duration": 112}, {"note": 76, "velocity": 93, "duration": 166}, {"note": 0, "velocity": 0, "duration": 96}, {"note": 78, "velocity": 100, "duration": 1199}, {"note": 0, "velocity": 0, "duration": 2168}, {"note": 79, "velocity": 85, "duration": 246}, {"note": 82, "velocity": 86, "duration": 193}, {"note": 84, "velocity": 75, "duration": 513}, {"note": 0, "velocity": 0, "duration": 207}, {"note": 84, "velocity": 86, "duration": 286}, {"note": 82, "velocity": 90, "duration": 233}, {"note": 77, "velocity": 74, "duration": 237}, {"note": 75, "velocity": 72, "duration": 275}, {"note": 77, "velocity": 83, "duration": 217}, {"note": 79, "velocity": 81, "duration": 300}, {"note": 82, "velocity": 77, "duration": 252}, {"note": 77, "velocity": 69, "duration": 271}, {"note": 79, "velocity": 81, "duration": 212}, {"note": 75, "velocity": 73, "duration": 309}, {"note": 0, "velocity": 0, "duration": 171}, {"note": 79, "velocity": 87, "duration": 226}, {"note": 82, "velocity": 74, "duration": 204}, {"note": 84, "velocity": 93, "duration": 530}, {"note": 0, "velocity": 0, "duration": 190}, {"note": 87, "velocity": 100, "duration": 225}, {"note": 86, "velocity": 85, "duration": 216}, {"note": 84, "velocity": 68, "duration": 278}, {"note": 82, "velocity": 90, "duration": 218}, {"note": 77, "velocity": 81, "duration": 315}, {"note": 0, "velocity": 0, "duration": 165}, {"note": 79, "velocity": 77, "duration": 967}, {"note": 0, "velocity": 0, "duration": 233}, {"note": 79, "velocity": 104, "duration": 216}, {"note": 82, "velocity": 86, "duration": 203}, {"note": 84, "velocity": 95, "duration": 482}, {"note": 0, "velocity": 0, "duration": 238}, {"note": 84, "velocity": 86, "duration": 266}, {"note": 82, "velocity": 81, "duration": 138}, {"note": 0, "velocity": 0, "duration": 102}, {"note": 77, "velocity": 70, "duration": 242}, {"note": 75, "velocity": 83, "duration": 216}, {"note": 77, "velocity": 70, "duration": 194}, {"note": 79, "velocity": 62, "duration": 164}, {"note": 0, "velocity": 0, "duration": 76}, {"note": 82, "velocity": 90, "duration": 111}, {"note": 0, "velocity": 0, "duration": 129}, {"note": 82, "velocity": 104, "duration": 124}, {"note": 0, "velocity": 0, "duration": 116}, {"note": 77, "velocity": 93, "duration": 178}, {"note": 0, "velocity": 0, "duration": 62}, {"note": 75, "velocity": 90, "duration": 329}, {"note": 0, "velocity": 0, "duration": 151}, {"note": 79, "velocity": 90, "duration": 244}, {"note": 77, "velocity": 76, "duration": 241}, {"note": 72, "velocity": 85, "duration": 187}, {"note": 79, "velocity": 74, "duration": 601}, {"note": 0, "velocity": 0, "duration": 119}, {"note": 77, "velocity": 71, "duration": 233}, {"note": 0, "velocity": 0, "duration": 127}, {"note": 75, "velocity": 79, "duration": 255}, {"note": 0, "velocity": 0, "duration": 105}, {"note": 74, "velocity": 83, "duration": 283}, {"note": 0, "velocity": 0, "duration": 197}, {"note": 72, "velocity": 68, "duration": 718}, {"note": 0, "velocity": 0, "duration": 482}, {"note": 79, "velocity": 95, "duration": 233}, {"note": 77, "velocity": 65, "duration": 238}, {"note": 72, "velocity": 71, "duration": 338}, {"note": 79, "velocity": 71, "duration": 611}, {"note": 0, "velocity": 0, "duration": 109}, {"note": 77, "velocity": 100, "duration": 311}, {"note": 75, "velocity": 63, "duration": 330}, {"note": 74, "velocity": 69, "duration": 251}, {"note": 75, "velocity": 64, "duration": 941}, {"note": 0, "velocity": 0, "duration": 139}, {"note": 74, "velocity": 66, "duration": 606}, {"note": 72, "velocity": 74, "duration": 1625}]]