[[{"note": 76, "velocity": 104, "duration": 333}, {"note": 0, "velocity": 0, "duration": 147}, {"note": 76, "velocity": 98, "duration": 311}, {"note": 0, "velocity": 0, "duration": 169}, {"note": 74, "velocity": 87, "duration": 331}, {"note": 0, "velocity": 0, "duration": 149}, {"note": 72, "velocity": 90, "duration": 293}, {"note": 0, "velocity": 0, "duration": 187}, {"note": 74, "velocity": 100, "duration": 543}, {"note": 0, "velocity": 0, "duration": 177}, {"note": 69, "velocity": 85, "duration": 111}, {"note": 0, "velocity": 0, "duration": 129}, {"note": 72, "velocity": 93, "duration": 722}, {"note": 0, "velocity": 0, "duration": 238}, {"note": 76, "velocity": 108, "duration": 285}, {"note": 0, "velocity": 0, "duration": 195}, {"note": 76, "velocity": 77, "duration": 338}, {"note": 0, "velocity": 0, "duration": 142}, {"note": 74, "velocity": 90, "duration": 328}, {"note": 0, "velocity": 0, "duration": 152}, {"note": 72, "velocity": 77, "duration": 298}, {"note": 0, "velocity": 0, "duration": 182}, {"note": 74, "velocity": 87, "duration": 84}, {"note": 0, "velocity": 0, "duration": 156}, {"note": 72, "velocity": 81, "duration": 251}, {"note": 69, "velocity": 71, "duration": 146}, {"note": 0, "velocity": 0, "duration": 94}, {"note": 76, "velocity": 81, "duration": 144}, {"note": 0, "velocity": 0, "duration": 96}, {"note": 74, "velocity": 93, "duration": 769}, {"note": 0, "velocity": 0, "duration": 191}, {"note": 69, "velocity": 93, "duration": 110}, {"note": 0, "velocity": 0, "duration": 130}, {"note": 72, "velocity": 70, "duration": 1020}, {"note": 0, "velocity": 0, "duration": 180}, {"note": 72, "velocity": 98, "duration": 240}, {"note": 71, "velocity": 64, "duration": 139}, {"note": 69, "velocity": 65, "duration": 145}, {"note": 67, "velocity": 90, "duration": 331}, {"note": 67, "velocity": 63, "duration": 91}, {"note": 0, "velocity": 0, "duration": 149}, {"note": 67, "velocity": 64, "duration": 130}, {"note": 0, "velocity": 0, "duration": 110}, {"note": 77, "velocity": 67, "duration": 140}, {"note": 0, "velocity": 0, "duration": 100}, {"note": 76, "velocity": 90, "duration": 702}, {"note": 0, "velocity": 0, "duration": 258}, {"note": 74, "velocity": 77, "duration": 194}, {"note": 72, "velocity": 60, "duration": 73}, {"note": 0, "velocity": 0, "duration": 167}, {"note": 72, "velocity": 95, "duration": 116}, {"note": 0, "velocity": 0, "duration": 124}, {"note": 69, "velocity": 72, "duration": 263}, {"note": 67, "velocity": 64, "duration": 171}, {"note": 0, "velocity": 0, "duration": 69}, {"note": 69, "velocity": 81, "duration": 126}, {"note": 0, "velocity": 0, "duration": 114}, {"note": 72, "velocity": 86, "duration": 201}, {"note": 76, "velocity": 72, "duration": 250}, {"note": 74, "velocity": 85, "duration": 250}, {"note": 0, "velocity": 0, "duration": 230}, {"note": 72, "velocity": 86, "duration": 264}, {"note": 0, "velocity": 0, "duration": 216}, {"note": 74, "velocity": 108, "duration": 674}, {"note": 72, "velocity": 65, "duration": 232}, {"note": 81, "velocity": 85, "duration": 1082}, {"note": 0, "velocity": 0, "duration": 358}, {"note": 72, "velocity": 72, "duration": 261}, {"note": 81, "velocity": 72, "duration": 174}, {"note": 0, "velocity": 0, "duration": 66}, {"note": 79, "velocity": 83, "duration": 117}, {"note": 0, "velocity": 0, "duration": 123}, {"note": 79, "velocity": 98, "duration": 140}, {"note": 0, "velocity": 0, "duration": 100}, {"note": 76, "velocity": 79, "duration": 177}, {"note": 0, "velocity": 0, "duration": 63}, {"note": 79, "velocity": 86, "duration": 229}, {"note": 72, "velocity": 81, "duration": 548}, {"note": 0, "velocity": 0, "duration": 172}, {"note": 67, "velocity": 83, "duration": 148}, {"note": 0, "velocity": 0, "duration": 92}, {"note": 76, "velocity": 77, "duration": 170}, {"note": 0, "velocity": 0, "duration": 70}, {"note": 74, "velocity": 77, "duration": 450}, {"note": 72, "velocity": 72, "duration": 229}, {"note": 67, "velocity": 72, "duration": 552}, {"note": 74, "velocity": 79, "duration": 239}, {"note": 67, "velocity": 69, "duration": 105}, {"note": 74, "velocity": 79, "duration": 184}, {"note": 0, "velocity": 0, "duration": 176}, {"note": 72, "velocity": 83, "duration": 1054}, {"note": 0, "velocity": 0, "duration": 2546}, {"note": 76, "velocity": 74, "duration": 236}, {"note": 79, "velocity": 87, "duration": 58}, {"note": 0, "velocity": 0, "duration": 62}, {"note": 79, "velocity": 111, "duration": 217}, {"note": 0, "velocity": 0, "duration": 143}, {"note": 76, "velocity": 74, "duration": 133}, {"note": 0, "velocity": 0, "duration": 107}, {"note": 76, "velocity": 86, "duration": 174}, {"note": 0, "velocity": 0, "duration": 66}, {"note": 79, "velocity": 90, "duration": 48}, {"note": 0, "velocity": 0, "duration": 72}, {"note": 79, "velocity": 100, "duration": 224}, {"note": 0, "velocity": 0, "duration": 136}, {"note": 76, "velocity": 69, "duration": 181}, {"note": 76, "velocity": 75, "duration": 235}, {"note": 84, "velocity": 73, "duration": 208}, {"note": 76, "velocity": 72, "duration": 202}, {"note": 81, "velocity": 79, "duration": 269}, {"note": 0, "velocity": 0, "duration": 211}, {"note": 79, "velocity": 98, "duration": 557}, {"note": 0, "velocity": 0, "duration": 163}, {"note": 69, "velocity": 79, "duration": 255}, {"note": 72, "velocity": 74, "duration": 57}, {"note": 0, "velocity": 0, "duration": 63}, {"note": 72, "velocity": 86, "duration": 275}, {"note": 0, "velocity": 0, "duration": 85}, {"note": 69, "velocity": 69, "duration": 148}, {"note": 0, "velocity": 0, "duration": 92}, {"note": 67, "velocity": 74, "duration": 196}, {"note": 79, "velocity": 81, "duration": 51}, {"note": 0, "velocity": 0, "duration": 69}, {"note": 79, "velocity": 93, "duration": 241}, {"note": 0, "velocity": 0, "duration": 119}, {"note": 76, "velocity": 71, "duration": 204}, {"note": 81, "velocity": 108, "duration": 263}, {"note": 79, "velocity": 86, "duration": 243}, {"note": 72, "velocity": 70, "duration": 189}, {"note": 76, "velocity": 85, "duration": 158}, {"note": 0, "velocity": 0, "duration": 82}, {"note": 74, "velocity": 87, "duration": 824}, {"note": 0, "velocity": 0, "duration": 136}, {"note": 72, "velocity": 77, "duration": 345}, {"note": 0, "velocity": 0, "duration": 135}, {"note": 84, "velocity": 79, "duration": 350}, {"note": 0, "velocity": 0, "duration": 130}, {"note": 83, "velocity": 108, "duration": 327}, {"note": 0, "velocity": 0, "duration": 153}, {"note": 79, "velocity": 112, "duration": 272}, {"note": 0, "velocity": 0, "duration": 208}, {"note": 81, "velocity": 87, "duration": 211}, {"note": 79, "velocity": 74, "duration": 75}, {"note": 0, "velocity": 0, "duration": 165}, {"note": 79, "velocity": 93, "duration": 266}, {"note": 72, "velocity": 65, "duration": 179}, {"note": 0, "velocity": 0, "duration": 61}, {"note": 77, "velocity": 117, "duration": 347}, {"note": 0, "velocity": 0, "duration": 133}, {"note": 76, "velocity": 112, "duration": 331}, {"note": 0, "velocity": 0, "duration": 149}, {"note": 74, "velocity": 111, "duration": 231}, {"note": 72, "velocity": 61, "duration": 54}, {"note": 0, "velocity": 0, "duration": 66}, {"note": 72, "velocity": 76, "duration": 226}, {"note": 0, "velocity": 0, "duration": 134}, {"note": 69, "velocity": 81, "duration": 104}, {"note": 0, "velocity": 0, "duration": 136}, {"note": 67, "velocity": 85, "duration": 101}, {"note": 0, "velocity": 0, "duration": 139}, {"note": 79, "velocity": 76, "duration": 60}, {"note": 79, "velocity": 108, "duration": 270}, {"note": 0, "velocity": 0, "duration": 90}, {"note": 76, "velocity": 73, "duration": 153}, {"note": 0, "velocity": 0, "duration": 87}, {"note": 81, "velocity": 93, "duration": 151}, {"note": 0, "velocity": 0, "duration": 89}, {"note": 79, "velocity": 104, "duration": 87}, {"note": 0, "velocity": 0, "duration": 153}, {"note": 79, "velocity": 114, "duration": 164}, {"note": 0, "velocity": 0, "duration": 76}, {"note": 72, "velocity": 72, "duration": 111}, {"note": 0, "velocity": 0, "duration": 129}, {"note": 74, "velocity": 95, "duration": 789}, {"note": 0, "velocity": 0, "duration": 171}, {"note": 76, "velocity": 74, "duration": 236}, {"note": 79, "velocity": 87, "duration": 58}, {"note": 0, "velocity": 0, "duration": 62}, {"note": 79, "velocity": 111, "duration": 217}, {"note": 0, "velocity": 0, "duration": 143}, {"note": 76, "velocity": 74, "duration": 133}, {"note": 0, "velocity": 0, "duration": 107}, {"note": 76, "velocity": 86, "duration": 174}, {"note": 0, "velocity": 0, "duration": 66}, {"note": 79, "velocity": 90, "duration": 48}, {"note": 0, "velocity": 0, "duration": 72}, {"note": 79, "velocity": 100, "duration": 224}, {"note": 0, "velocity": 0, "duration": 136}, {"note": 76, "velocity": 69, "duration": 181}, {"note": 76, "velocity": 75, "duration": 235}, {"note": 84, "velocity": 73, "duration": 208}, {"note": 0, "velocity": 0, "duration": 272}, {"note": 76, "velocity": 74, "duration": 170}, {"note": 0, "velocity": 0, "duration": 70}, {"note": 81, "velocity": 111, "duration": 323}, {"note": 0, "velocity": 0, "duration": 157}, {"note": 79, "velocity": 104, "duration": 313}, {"note": 0, "velocity": 0, "duration": 167}, {"note": 69, "velocity": 79, "duration": 255}, {"note": 72, "velocity": 74, "duration": 57}, {"note": 0, "velocity": 0, "duration": 63}, {"note": 72, "velocity": 86, "duration": 275}, {"note": 0, "velocity": 0, "duration": 85}, {"note": 69, "velocity": 69, "duration": 148}, {"note": 0, "velocity": 0, "duration": 92}, {"note": 67, "velocity": 74, "duration": 196}, {"note": 79, "velocity": 81, "duration": 51}, {"note": 0, "velocity": 0, "duration": 69}, {"note": 79, "velocity": 93, "duration": 241}, {"note": 0, "velocity": 0, "duration": 119}, {"note": 76, "velocity": 71, "duration": 204}, {"note": 81, "velocity": 108, "duration": 263}, {"note": 79, "velocity": 86, "duration": 243}, {"note": 72, "velocity": 70, "duration": 189}, {"note": 76, "velocity": 85, "duration": 158}, {"note": 0, "velocity": 0, "duration": 82}, {"note": 74, "velocity": 87, "duration": 824}, {"note": 0, "velocity": 0, "duration": 136}, {"note": 72, "velocity": 77, "duration": 345}, {"note": 0, "velocity": 0, "duration": 135}, {"note": 84, "velocity": 79, "duration": 350}, {"note": 0, "velocity": 0, "duration": 130}, {"note": 83, "velocity": 108, "duration": 327}, {"note": 0, "velocity": 0, "duration": 153}, {"note": 79, "velocity": 112, "duration": 272}, {"note": 0, "velocity": 0, "duration": 208}, {"note": 81, "velocity": 87, "duration": 211}, {"note": 79, "velocity": 74, "duration": 75}, {"note": 0, "velocity": 0, "duration": 165}, {"note": 79, "velocity": 93, "duration": 266}, {"note": 72, "velocity": 65, "duration": 179}, {"note": 0, "velocity": 0, "duration": 61}, {"note": 77, "velocity": 117, "duration": 960}, {"note": 76, "velocity": 112, "duration": 714}, {"note": 0, "velocity": 0, "duration": 257}, {"note": 74, "velocity": 111, "duration": 231}, {"note": 72, "velocity": 61, "duration": 54}, {"note": 0, "velocity": 0, "duration": 66}, {"note": 72, "velocity": 76, "duration": 226}, {"note": 0, "velocity": 0, "duration": 134}, {"note": 69, "velocity": 81, "duration": 104}, {"note": 0, "velocity": 0, "duration": 136}, {"note": 67, "velocity": 85, "duration": 101}, {"note": 0, "velocity": 0, "duration": 139}, {"note": 79, "velocity": 76, "duration": 60}, {"note": 79, "velocity": 108, "duration": 270}, {"note": 0, "velocity": 0, "duration": 90}, {"note": 76, "velocity": 73, "duration": 153}, {"note": 0, "velocity": 0, "duration": 76}, {"note": 74, "velocity": 90, "duration": 1021}, {"note": 0, "velocity": 0, "duration": 179}, {"note": 69, "velocity": 81, "duration": 201}, {"note": 74, "velocity": 100, "duration": 245}, {"note": 69, "velocity": 79, "duration": 210}, {"note": 72, "velocity": 104, "duration": 526}, {"note": 0, "velocity": 0, "duration": 3074}, {"note": 67, "velocity": 59, "duration": 187}, {"note": 76, "velocity": 76, "duration": 384}, {"note": 0, "velocity": 0, "duration": 96}, {"note": 76, "velocity": 93, "duration": 120}, {"note": 0, "velocity": 0, "duration": 120}, {"note": 76, "velocity": 93, "duration": 153}, {"note": 0, "velocity": 0, "duration": 87}, {"note": 74, "velocity": 90, "duration": 717}, {"note": 67, "velocity": 76, "duration": 169}, {"note": 0, "velocity": 0, "duration": 71}, {"note": 72, "velocity": 77, "duration": 362}, {"note": 0, "velocity": 0, "duration": 118}, {"note": 74, "velocity": 95, "duration": 313}, {"note": 0, "velocity": 0, "duration": 167}, {"note": 76, "velocity": 72, "duration": 143}, {"note": 0, "velocity": 0, "duration": 97}, {"note": 67, "velocity": 79, "duration": 151}, {"note": 0, "velocity": 0, "duration": 89}, {"note": 69, "velocity": 73, "duration": 166}, {"note": 0, "velocity": 0, "duration": 74}, {"note": 67, "velocity": 86, "duration": 104}, {"note": 0, "velocity": 0, "duration": 136}, {"note": 69, "velocity": 95, "duration": 618}, {"note": 76, "velocity": 73, "duration": 87}, {"note": 0, "velocity": 0, "duration": 102}, {"note": 74, "velocity": 98, "duration": 1232}, {"note": 0, "velocity": 0, "duration": 688}, {"note": 69, "velocity": 66, "duration": 95}, {"note": 0, "velocity": 0, "duration": 145}, {"note": 69, "velocity": 69, "duration": 138}, {"note": 0, "velocity": 0, "duration": 102}, {"note": 74, "velocity": 73, "duration": 85}, {"note": 0, "velocity": 0, "duration": 155}, {"note": 74, "velocity": 75, "duration": 142}, {"note": 0, "velocity": 0, "duration": 98}, {"note": 69, "velocity": 64, "duration": 140}, {"note": 0, "velocity": 0, "duration": 100}, {"note": 72, "velocity": 98, "duration": 1859}, {"note": 0, "velocity": 0, "duration": 9661}, {"note": 81, "velocity": 85, "duration": 1082}, {"note": 0, "velocity": 0, "duration": 358}, {"note": 72, "velocity": 72, "duration": 261}, {"note": 81, "velocity": 72, "duration": 174}, {"note": 0, "velocity": 0, "duration": 66}, {"note": 79, "velocity": 83, "duration": 117}, {"note": 0, "velocity": 0, "duration": 123}, {"note": 79, "velocity": 98, "duration": 140}, {"note": 0, "velocity": 0, "duration": 100}, {"note": 76, "velocity": 79, "duration": 177}, {"note": 0, "velocity": 0, "duration": 63}, {"note": 79, "velocity": 86, "duration": 229}, {"note": 72, "velocity": 81, "duration": 548}, {"note": 0, "velocity": 0, "duration": 172}, {"note": 67, "velocity": 83, "duration": 148}, {"note": 0, "velocity": 0, "duration": 92}, {"note": 76, "velocity": 77, "duration": 170}, {"note": 0, "velocity": 0, "duration": 70}, {"note": 74, "velocity": 77, "duration": 450}, {"note": 72, "velocity": 72, "duration": 229}, {"note": 67, "velocity": 72, "duration": 552}, {"note": 74, "velocity": 79, "duration": 239}, {"note": 67, "velocity": 69, "duration": 105}, {"note": 74, "velocity": 79, "duration": 184}, {"note": 0, "velocity": 0, "duration": 176}, {"note": 72, "velocity": 83, "duration": 1054}, {"note": 0, "velocity": 0, "duration": 2546}, {"note": 76, "velocity": 74, "duration": 236}, {"note": 79, "velocity": 87, "duration": 58}, {"note": 0, "velocity": 0, "duration": 62}, {"note": 79, "velocity": 111, "duration": 217}, {"note": 0, "velocity": 0, "duration": 143}, {"note": 76, "velocity": 74, "duration": 133}, {"note": 0, "velocity": 0, "duration": 107}, {"note": 76, "velocity": 86, "duration": 174}, {"note": 0, "velocity": 0, "duration": 66}, {"note": 79, "velocity": 90, "duration": 48}, {"note": 0, "velocity": 0, "duration": 72}, {"note": 79, "velocity": 100, "duration": 224}, {"note": 0, "velocity": 0, "duration": 136}, {"note": 76, "velocity": 69, "duration": 181}, {"note": 76, "velocity": 75, "duration": 235}, {"note": 84, "velocity": 73, "duration": 208}, {"note": 76, "velocity": 72, "duration": 202}, {"note": 81, "velocity": 79, "duration": 269}, {"note": 0, "velocity": 0, "duration": 211}, {"note": 79, "velocity": 98, "duration": 557}, {"note": 0, "velocity": 0, "duration": 163}, {"note": 69, "velocity": 79, "duration": 255}, {"note": 72, "velocity": 74, "duration": 57}, {"note": 0, "velocity": 0, "duration": 63}, {"note": 72, "velocity": 86, "duration": 275}, {"note": 0, "velocity": 0, "duration": 85}, {"note": 69, "velocity": 69, "duration": 148}, {"note": 0, "velocity": 0, "duration": 92}, {"note": 67, "velocity": 74, "duration": 196}, {"note": 79, "velocity": 81, "duration": 51}, {"note": 0, "velocity": 0, "duration": 69}, {"note": 79, "velocity": 93, "duration": 241}, {"note": 0, "velocity": 0, "duration": 119}, {"note": 76, "velocity": 71, "duration": 204}, {"note": 81, "velocity": 108, "duration": 263}, {"note": 79, "velocity": 86, "duration": 243}, {"note": 72, "velocity": 70, "duration": 189}, {"note": 76, "velocity": 85, "duration": 158}, {"note": 0, "velocity": 0, "duration": 82}, {"note": 74, "velocity": 87, "duration": 824}, {"note": 0, "velocity": 0, "duration": 136}, {"note": 72, "velocity": 77, "duration": 345}, {"note": 0, "velocity": 0, "duration": 135}, {"note": 84, "velocity": 79, "duration": 350}, {"note": 0, "velocity": 0, "duration": 130}, {"note": 83, "velocity": 108, "duration": 327}, {"note": 0, "velocity": 0, "duration": 153}, {"note": 79, "velocity": 112, "duration": 272}, {"note": 0, "velocity": 0, "duration": 208}, {"note": 81, "velocity": 87, "duration": 211}, {"note": 79, "velocity": 74, "duration": 75}, {"note": 0, "velocity": 0, "duration": 165}, {"note": 79, "velocity": 93, "duration": 266}, {"note": 72, "velocity": 65, "duration": 179}, {"note": 0, "velocity": 0, "duration": 61}, {"note": 77, "velocity": 117, "duration": 347}, {"note": 0, "velocity": 0, "duration": 133}, {"note": 76, "velocity": 112, "duration": 331}, {"note": 0, "velocity": 0, "duration": 149}, {"note": 74, "velocity": 111, "duration": 231}, {"note": 72, "velocity": 61, "duration": 54}, {"note": 0, "velocity": 0, "duration": 66}, {"note": 72, "velocity": 76, "duration": 226}, {"note": 0, "velocity": 0, "duration": 134}, {"note": 69, "velocity": 81, "duration": 104}, {"note": 0, "velocity": 0, "duration": 136}, {"note": 67, "velocity": 85, "duration": 101}, {"note": 0, "velocity": 0, "duration": 139}, {"note": 79, "velocity": 76, "duration": 60}, {"note": 79, "velocity": 108, "duration": 270}, {"note": 0, "velocity": 0, "duration": 90}, {"note": 76, "velocity": 73, "duration": 153}, {"note": 0, "velocity": 0, "duration": 87}, {"note": 81, "velocity": 93, "duration": 151}, {"note": 0, "velocity": 0, "duration": 89}, {"note": 79, "velocity": 104, "duration": 87}, {"note": 0, "velocity": 0, "duration": 153}, {"note": 79, "velocity": 114, "duration": 164}, {"note": 0, "velocity": 0, "duration": 76}, {"note": 72, "velocity": 72, "duration": 111}, {"note": 0, "velocity": 0, "duration": 129}, {"note": 74, "velocity": 95, "duration": 789}, {"note": 0, "velocity": 0, "duration": 171}, {"note": 76, "velocity": 74, "duration": 236}, {"note": 79, "velocity": 87, "duration": 58}, {"note": 0, "velocity": 0, "duration": 62}, {"note": 79, "velocity": 111, "duration": 217}, {"note": 0, "velocity": 0, "duration": 143}, {"note": 76, "velocity": 74, "duration": 133}, {"note": 0, "velocity": 0, "duration": 107}, {"note": 76, "velocity": 86, "duration": 174}, {"note": 0, "velocity": 0, "duration": 66}, {"note": 79, "velocity": 90, "duration": 48}, {"note": 0, "velocity": 0, "duration": 72}, {"note": 79, "velocity": 100, "duration": 224}, {"note": 0, "velocity": 0, "duration": 136}, {"note": 76, "velocity": 69, "duration": 181}, {"note": 76, "velocity": 75, "duration": 235}, {"note": 84, "velocity": 73, "duration": 208}, {"note": 0, "velocity": 0, "duration": 272}, {"note": 76, "velocity": 74, "duration": 170}, {"note": 0, "velocity": 0, "duration": 70}, {"note": 81, "velocity": 111, "duration": 323}, {"note": 0, "velocity": 0, "duration": 157}, {"note": 79, "velocity": 104, "duration": 313}, {"note": 0, "velocity": 0, "duration": 167}, {"note": 69, "velocity": 79, "duration": 255}, {"note": 72, "velocity": 74, "duration": 57}, {"note": 0, "velocity": 0, "duration": 63}, {"note": 72, "velocity": 86, "duration": 275}, {"note": 0, "velocity": 0, "duration": 85}, {"note": 69, "velocity": 69, "duration": 148}, {"note": 0, "velocity": 0, "duration": 92}, {"note": 67, "velocity": 74, "duration": 196}, {"note": 79, "velocity": 81, "duration": 51}, {"note": 0, "velocity": 0, "duration": 69}, {"note": 79, "velocity": 93, "duration": 241}, {"note": 0, "velocity": 0, "duration": 119}, {"note": 76, "velocity": 71, "duration": 204}, {"note": 81, "velocity": 108, "duration": 263}, {"note": 79, "velocity": 86, "duration": 243}, {"note": 72, "velocity": 70, "duration": 189}, {"note": 76, "velocity": 85, "duration": 158}, {"note": 0, "velocity": 0, "duration": 82}, {"note": 74, "velocity": 87, "duration": 824}, {"note": 0, "velocity": 0, "duration": 136}, {"note": 72, "velocity": 77, "duration": 345}, {"note": 0, "velocity": 0, "duration": 135}, {"note": 84, "velocity": 79, "duration": 350}, {"note": 0, "velocity": 0, "duration": 130}, {"note": 83, "velocity": 108, "duration": 327}, {"note": 0, "velocity": 0, "duration": 153}, {"note": 79, "velocity": 112, "duration": 272}, {"note": 0, "velocity": 0, "duration": 208}, {"note": 81, "velocity": 87, "duration": 211}, {"note": 79, "velocity": 74, "duration": 75}, {"note": 0, "velocity": 0, "duration": 165}, {"note": 79, "velocity": 93, "duration": 266}, {"note": 72, "velocity": 65, "duration": 179}, {"note": 0, "velocity": 0, "duration": 61}, {"note": 77, "velocity": 117, "duration": 960}, {"note": 76, "velocity": 112, "duration": 714}, {"note": 0, "velocity": 0, "duration": 257}, {"note": 74, "velocity": 111, "duration": 231}, {"note": 72, "velocity": 61, "duration": 54}, {"note": 0, "velocity": 0, "duration": 66}, {"note": 72, "velocity": 76, "duration": 226}, {"note": 0, "velocity": 0, "duration": 134}, {"note": 69, "velocity": 81, "duration": 104}, {"note": 0, "velocity": 0, "duration": 136}, {"note": 67, "velocity": 85, "duration": 101}, {"note": 0, "velocity": 0, "duration": 139}, {"note": 79, "velocity": 76, "duration": 60}, {"note": 79, "velocity": 108, "duration": 270}, {"note": 0, "velocity": 0, "duration": 90}, {"note": 76, "velocity": 73, "duration": 153}, {"note": 0, "velocity": 0, "duration": 76}, {"note": 74, "velocity": 90, "duration": 1021}, {"note": 0, "velocity": 0, "duration": 179}, {"note": 69, "velocity": 81, "duration": 201}, {"note": 74, "velocity": 100, "duration": 245}, {"note": 69, "velocity": 79, "duration": 210}, {"note": 72, "velocity": 104, "duration": 526}, {"note": 0, "velocity": 0, "duration": 4274}, {"note": 76, "velocity": 104, "duration": 333}, {"note": 0, "velocity": 0, "duration": 147}, {"note": 76, "velocity": 98, "duration": 311}, {"note": 0, "velocity": 0, "duration": 169}, {"note": 74, "velocity": 87, "duration": 331}, {"note": 0, "velocity": 0, "duration": 149}, {"note": 72, "velocity": 90, "duration": 293}, {"note": 0, "velocity": 0, "duration": 187}, {"note": 74, "velocity": 100, "duration": 543}, {"note": 0, "velocity": 0, "duration": 177}, {"note": 69, "velocity": 85, "duration": 111}, {"note": 0, "velocity": 0, "duration": 129}, {"note": 72, "velocity": 93, "duration": 722}, {"note": 0, "velocity": 0, "duration": 238}, {"note": 76, "velocity": 108, "duration": 285}, {"note": 0, "velocity": 0, "duration": 195}, {"note": 76, "velocity": 77, "duration": 338}, {"note": 0, "velocity": 0, "duration": 142}, {"note": 74, "velocity": 90, "duration": 328}, {"note": 0, "velocity": 0, "duration": 152}, {"note": 72, "velocity": 77, "duration": 298}, {"note": 0, "velocity": 0, "duration": 182}, {"note": 74, "velocity": 87, "duration": 84}, {"note": 0, "velocity": 0, "duration": 156}, {"note": 72, "velocity": 81, "duration": 251}, {"note": 69, "velocity": 71, "duration": 146}, {"note": 0, "velocity": 0, "duration": 94}, {"note": 76, "velocity": 81, "duration": 144}, {"note": 0, "velocity": 0, "duration": 96}, {"note": 74, "velocity": 93, "duration": 769}, {"note": 0, "velocity": 0, "duration": 191}, {"note": 69, "velocity": 93, "duration": 110}, {"note": 0, "velocity": 0, "duration": 130}, {"note": 72, "velocity": 70, "duration": 1020}, {"note": 0, "velocity": 0, "duration": 180}, {"note": 72, "velocity": 98, "duration": 240}, {"note": 71, "velocity": 64, "duration": 139}, {"note": 69, "velocity": 65, "duration": 145}, {"note": 67, "velocity": 90, "duration": 331}, {"note": 67, "velocity": 63, "duration": 91}, {"note": 0, "velocity": 0, "duration": 149}, {"note": 67, "velocity": 64, "duration": 130}, {"note": 0, "velocity": 0, "duration": 110}, {"note": 77, "velocity": 67, "duration": 140}, {"note": 0, "velocity": 0, "duration": 100}, {"note": 76, "velocity": 90, "duration": 702}, {"note": 0, "velocity": 0, "duration": 258}, {"note": 74, "velocity": 77, "duration": 194}, {"note": 72, "velocity": 60, "duration": 73}, {"note": 0, "velocity": 0, "duration": 167}, {"note": 72, "velocity": 95, "duration": 116}, {"note": 0, "velocity": 0, "duration": 124}, {"note": 69, "velocity": 72, "duration": 263}, {"note": 67, "velocity": 64, "duration": 171}, {"note": 0, "velocity": 0, "duration": 69}, {"note": 69, "velocity": 81, "duration": 126}, {"note": 0, "velocity": 0, "duration": 114}, {"note": 72, "velocity": 86, "duration": 201}, {"note": 76, "velocity": 72, "duration": 250}, {"note": 74, "velocity": 85, "duration": 250}, {"note": 0, "velocity": 0, "duration": 230}, {"note": 72, "velocity": 86, "duration": 264}, {"note": 0, "velocity": 0, "duration": 216}, {"note": 74, "velocity": 108, "duration": 674}, {"note": 72, "velocity": 65, "duration": 232}, {"note": 81, "velocity": 85, "duration": 1082}, {"note": 0, "velocity": 0, "duration": 358}, {"note": 72, "velocity": 72, "duration": 261}, {"note": 81, "velocity": 72, "duration": 174}, {"note": 0, "velocity": 0, "duration": 66}, {"note": 79, "velocity": 83, "duration": 117}, {"note": 0, "velocity": 0, "duration": 123}, {"note": 79, "velocity": 98, "duration": 140}, {"note": 0, "velocity": 0, "duration": 100}, {"note": 76, "velocity": 79, "duration": 177}, {"note": 0, "velocity": 0, "duration": 63}, {"note": 79, "velocity": 86, "duration": 229}, {"note": 0, "velocity": 0, "duration": 251}, {"note": 72, "velocity": 74, "duration": 465}, {"note": 67, "velocity": 77, "duration": 207}, {"note": 74, "velocity": 86, "duration": 733}, {"note": 74, "velocity": 85, "duration": 253}, {"note": 69, "velocity": 87, "duration": 852}, {"note": 0, "velocity": 0, "duration": 1068}, {"note": 69, "velocity": 63, "duration": 122}, {"note": 0, "velocity": 0, "duration": 118}, {"note": 69, "velocity": 66, "duration": 123}, {"note": 0, "velocity": 0, "duration": 117}, {"note": 74, "velocity": 72, "duration": 61}, {"note": 0, "velocity": 0, "duration": 179}, {"note": 74, "velocity": 70, "duration": 270}, {"note": 69, "velocity": 67, "duration": 230}, {"note": 72, "velocity": 68, "duration": 2159}]]