[[{"note": 74, "velocity": 83, "duration": 103}, {"note": 0, "velocity": 0, "duration": 99}, {"note": 74, "velocity": 83, "duration": 98}, {"note": 0, "velocity": 0, "duration": 127}, {"note": 74, "velocity": 83, "duration": 80}, {"note": 0, "velocity": 0, "duration": 143}, {"note": 74, "velocity": 83, "duration": 97}, {"note": 0, "velocity": 0, "duration": 156}, {"note": 74, "velocity": 83, "duration": 82}, {"note": 0, "velocity": 0, "duration": 160}, {"note": 79, "velocity": 83, "duration": 221}, {"note": 77, "velocity": 82, "duration": 177}, {"note": 0, "velocity": 0, "duration": 81}, {"note": 79, "velocity": 82, "duration": 178}, {"note": 0, "velocity": 0, "duration": 75}, {"note": 77, "velocity": 82, "duration": 223}, {"note": 74, "velocity": 82, "duration": 742}, {"note": 0, "velocity": 0, "duration": 419}, {"note": 74, "velocity": 81, "duration": 319}, {"note": 77, "velocity": 81, "duration": 239}, {"note": 82, "velocity": 81, "duration": 230}, {"note": 81, "velocity": 81, "duration": 154}, {"note": 0, "velocity": 0, "duration": 120}, {"note": 81, "velocity": 80, "duration": 199}, {"note": 79, "velocity": 80, "duration": 130}, {"note": 0, "velocity": 0, "duration": 79}, {"note": 77, "velocity": 80, "duration": 226}, {"note": 72, "velocity": 80, "duration": 286}, {"note": 74, "velocity": 79, "duration": 248}, {"note": 75, "velocity": 79, "duration": 214}, {"note": 75, "velocity": 79, "duration": 17}, {"note": 0, "velocity": 0, "duration": 327}, {"note": 74, "velocity": 79, "duration": 812}, {"note": 0, "velocity": 0, "duration": 946}, {"note": 79, "velocity": 79, "duration": 167}, {"note": 0, "velocity": 0, "duration": 85}, {"note": 79, "velocity": 79, "duration": 117}, {"note": 0, "velocity": 0, "duration": 118}, {"note": 79, "velocity": 78, "duration": 141}, {"note": 0, "velocity": 0, "duration": 103}, {"note": 77, "velocity": 78, "duration": 199}, {"note": 75, "velocity": 78, "duration": 252}, {"note": 74, "velocity": 78, "duration": 223}, {"note": 77, "velocity": 78, "duration": 332}, {"note": 0, "velocity": 0, "duration": 159}, {"note": 77, "velocity": 77, "duration": 210}, {"note": 77, "velocity": 76, "duration": 222}, {"note": 74, "velocity": 76, "duration": 271}, {"note": 72, "velocity": 76, "duration": 259}, {"note": 70, "velocity": 76, "duration": 717}, {"note": 0, "velocity": 0, "duration": 177}, {"note": 75, "velocity": 75, "duration": 99}, {"note": 0, "velocity": 0, "duration": 141}, {"note": 75, "velocity": 75, "duration": 178}, {"note": 74, "velocity": 74, "duration": 130}, {"note": 0, "velocity": 0, "duration": 107}, {"note": 75, "velocity": 74, "duration": 136}, {"note": 0, "velocity": 0, "duration": 103}, {"note": 74, "velocity": 74, "duration": 93}, {"note": 0, "velocity": 0, "duration": 137}, {"note": 75, "velocity": 74, "duration": 86}, {"note": 0, "velocity": 0, "duration": 164}, {"note": 77, "velocity": 74, "duration": 293}, {"note": 0, "velocity": 0, "duration": 206}, {"note": 79, "velocity": 73, "duration": 98}, {"note": 0, "velocity": 0, "duration": 145}, {"note": 79, "velocity": 73, "duration": 87}, {"note": 0, "velocity": 0, "duration": 129}, {"note": 79, "velocity": 73, "duration": 84}, {"note": 0, "velocity": 0, "duration": 145}, {"note": 79, "velocity": 73, "duration": 85}, {"note": 0, "velocity": 0, "duration": 155}, {"note": 76, "velocity": 73, "duration": 79}, {"note": 0, "velocity": 0, "duration": 149}, {"note": 78, "velocity": 73, "duration": 91}, {"note": 0, "velocity": 0, "duration": 152}, {"note": 79, "velocity": 73, "duration": 114}, {"note": 0, "velocity": 0, "duration": 150}, {"note": 78, "velocity": 73, "duration": 438}, {"note": 0, "velocity": 0, "duration": 120}, {"note": 79, "velocity": 73, "duration": 319}, {"note": 0, "velocity": 0, "duration": 202}, {"note": 81, "velocity": 73, "duration": 2406}, {"note": 0, "velocity": 0, "duration": 722}, {"note": 71, "velocity": 73, "duration": 170}, {"note": 0, "velocity": 0, "duration": 70}, {"note": 76, "velocity": 73, "duration": 92}, {"note": 0, "velocity": 0, "duration": 148}, {"note": 83, "velocity": 73, "duration": 109}, {"note": 0, "velocity": 0, "duration": 131}, {"note": 83, "velocity": 73, "duration": 937}, {"note": 0, "velocity": 0, "duration": 263}, {"note": 71, "velocity": 73, "duration": 162}, {"note": 0, "velocity": 0, "duration": 104}, {"note": 76, "velocity": 73, "duration": 94}, {"note": 0, "velocity": 0, "duration": 120}, {"note": 83, "velocity": 73, "duration": 80}, {"note": 0, "velocity": 0, "duration": 160}, {"note": 83, "velocity": 73, "duration": 368}, {"note": 0, "velocity": 0, "duration": 112}, {"note": 81, "velocity": 73, "duration": 62}, {"note": 0, "velocity": 0, "duration": 178}, {"note": 81, "velocity": 73, "duration": 319}, {"note": 0, "velocity": 0, "duration": 161}, {"note": 79, "velocity": 73, "duration": 187}, {"note": 78, "velocity": 73, "duration": 145}, {"note": 0, "velocity": 0, "duration": 95}, {"note": 79, "velocity": 73, "duration": 117}, {"note": 0, "velocity": 0, "duration": 123}, {"note": 81, "velocity": 73, "duration": 1036}, {"note": 0, "velocity": 0, "duration": 164}, {"note": 83, "velocity": 73, "duration": 182}, {"note": 81, "velocity": 73, "duration": 136}, {"note": 0, "velocity": 0, "duration": 104}, {"note": 83, "velocity": 73, "duration": 121}, {"note": 0, "velocity": 0, "duration": 119}, {"note": 81, "velocity": 73, "duration": 243}, {"note": 0, "velocity": 0, "duration": 117}, {"note": 79, "velocity": 73, "duration": 470}, {"note": 0, "velocity": 0, "duration": 130}, {"note": 79, "velocity": 73, "duration": 240}, {"note": 76, "velocity": 73, "duration": 98}, {"note": 0, "velocity": 0, "duration": 142}, {"note": 76, "velocity": 73, "duration": 97}, {"note": 0, "velocity": 0, "duration": 143}, {"note": 78, "velocity": 73, "duration": 102}, {"note": 0, "velocity": 0, "duration": 138}, {"note": 79, "velocity": 73, "duration": 1072}, {"note": 0, "velocity": 0, "duration": 128}, {"note": 76, "velocity": 73, "duration": 175}, {"note": 0, "velocity": 0, "duration": 65}, {"note": 83, "velocity": 73, "duration": 228}, {"note": 0, "velocity": 0, "duration": 132}, {"note": 81, "velocity": 73, "duration": 620}, {"note": 0, "velocity": 0, "duration": 220}, {"note": 79, "velocity": 73, "duration": 264}, {"note": 78, "velocity": 74, "duration": 140}, {"note": 0, "velocity": 0, "duration": 100}, {"note": 79, "velocity": 74, "duration": 122}, {"note": 0, "velocity": 0, "duration": 118}, {"note": 81, "velocity": 74, "duration": 90}, {"note": 0, "velocity": 0, "duration": 150}, {"note": 84, "velocity": 74, "duration": 110}, {"note": 0, "velocity": 0, "duration": 130}, {"note": 84, "velocity": 74, "duration": 301}, {"note": 0, "velocity": 0, "duration": 179}, {"note": 83, "velocity": 74, "duration": 259}, {"note": 0, "velocity": 0, "duration": 461}, {"note": 83, "velocity": 74, "duration": 200}, {"note": 81, "velocity": 74, "duration": 97}, {"note": 0, "velocity": 0, "duration": 143}, {"note": 84, "velocity": 74, "duration": 266}, {"note": 0, "velocity": 0, "duration": 214}, {"note": 83, "velocity": 74, "duration": 483}, {"note": 71, "velocity": 74, "duration": 170}, {"note": 0, "velocity": 0, "duration": 70}, {"note": 76, "velocity": 74, "duration": 282}, {"note": 0, "velocity": 0, "duration": 198}, {"note": 83, "velocity": 74, "duration": 345}, {"note": 0, "velocity": 0, "duration": 135}, {"note": 83, "velocity": 75, "duration": 967}, {"note": 0, "velocity": 0, "duration": 233}, {"note": 71, "velocity": 75, "duration": 199}, {"note": 76, "velocity": 75, "duration": 100}, {"note": 0, "velocity": 0, "duration": 140}, {"note": 83, "velocity": 75, "duration": 70}, {"note": 0, "velocity": 0, "duration": 170}, {"note": 83, "velocity": 75, "duration": 321}, {"note": 0, "velocity": 0, "duration": 159}, {"note": 84, "velocity": 75, "duration": 110}, {"note": 0, "velocity": 0, "duration": 130}, {"note": 81, "velocity": 75, "duration": 219}, {"note": 0, "velocity": 0, "duration": 261}, {"note": 79, "velocity": 75, "duration": 237}, {"note": 78, "velocity": 75, "duration": 136}, {"note": 0, "velocity": 0, "duration": 104}, {"note": 79, "velocity": 75, "duration": 126}, {"note": 0, "velocity": 0, "duration": 114}, {"note": 81, "velocity": 75, "duration": 957}, {"note": 0, "velocity": 0, "duration": 243}, {"note": 74, "velocity": 75, "duration": 191}, {"note": 78, "velocity": 75, "duration": 109}, {"note": 0, "velocity": 0, "duration": 131}, {"note": 81, "velocity": 75, "duration": 110}, {"note": 0, "velocity": 0, "duration": 130}, {"note": 84, "velocity": 75, "duration": 321}, {"note": 83, "velocity": 75, "duration": 69}, {"note": 0, "velocity": 0, "duration": 159}, {"note": 83, "velocity": 75, "duration": 106}, {"note": 0, "velocity": 0, "duration": 134}, {"note": 81, "velocity": 75, "duration": 84}, {"note": 0, "velocity": 0, "duration": 156}, {"note": 81, "velocity": 75, "duration": 104}, {"note": 0, "velocity": 0, "duration": 136}, {"note": 79, "velocity": 75, "duration": 95}, {"note": 0, "velocity": 0, "duration": 145}, {"note": 78, "velocity": 75, "duration": 104}, {"note": 0, "velocity": 0, "duration": 136}, {"note": 76, "velocity": 75, "duration": 145}, {"note": 0, "velocity": 0, "duration": 95}, {"note": 79, "velocity": 75, "duration": 633}, {"note": 0, "velocity": 0, "duration": 567}, {"note": 76, "velocity": 75, "duration": 102}, {"note": 0, "velocity": 0, "duration": 138}, {"note": 81, "velocity": 75, "duration": 121}, {"note": 0, "velocity": 0, "duration": 119}, {"note": 79, "velocity": 75, "duration": 88}, {"note": 0, "velocity": 0, "duration": 152}, {"note": 78, "velocity": 75, "duration": 811}, {"note": 0, "velocity": 0, "duration": 149}, {"note": 79, "velocity": 75, "duration": 348}, {"note": 0, "velocity": 0, "duration": 132}, {"note": 78, "velocity": 75, "duration": 338}, {"note": 0, "velocity": 0, "duration": 262}, {"note": 79, "velocity": 75, "duration": 1881}, {"note": 0, "velocity": 0, "duration": 11439}, {"note": 74, "velocity": 79, "duration": 102}, {"note": 0, "velocity": 0, "duration": 138}, {"note": 74, "velocity": 79, "duration": 89}, {"note": 0, "velocity": 0, "duration": 151}, {"note": 74, "velocity": 79, "duration": 90}, {"note": 0, "velocity": 0, "duration": 150}, {"note": 74, "velocity": 79, "duration": 81}, {"note": 0, "velocity": 0, "duration": 159}, {"note": 74, "velocity": 79, "duration": 114}, {"note": 0, "velocity": 0, "duration": 126}, {"note": 79, "velocity": 79, "duration": 122}, {"note": 0, "velocity": 0, "duration": 118}, {"note": 77, "velocity": 79, "duration": 101}, {"note": 0, "velocity": 0, "duration": 139}, {"note": 79, "velocity": 79, "duration": 96}, {"note": 0, "velocity": 0, "duration": 144}, {"note": 77, "velocity": 79, "duration": 97}, {"note": 0, "velocity": 0, "duration": 143}, {"note": 74, "velocity": 79, "duration": 249}, {"note": 0, "velocity": 0, "duration": 951}, {"note": 74, "velocity": 79, "duration": 274}, {"note": 77, "velocity": 79, "duration": 109}, {"note": 0, "velocity": 0, "duration": 131}, {"note": 82, "velocity": 79, "duration": 101}, {"note": 0, "velocity": 0, "duration": 139}, {"note": 81, "velocity": 79, "duration": 89}, {"note": 0, "velocity": 0, "duration": 151}, {"note": 81, "velocity": 79, "duration": 96}, {"note": 0, "velocity": 0, "duration": 144}, {"note": 79, "velocity": 79, "duration": 101}, {"note": 0, "velocity": 0, "duration": 139}, {"note": 77, "velocity": 79, "duration": 96}, {"note": 0, "velocity": 0, "duration": 144}, {"note": 72, "velocity": 79, "duration": 161}, {"note": 0, "velocity": 0, "duration": 79}, {"note": 74, "velocity": 79, "duration": 106}, {"note": 0, "velocity": 0, "duration": 134}, {"note": 75, "velocity": 79, "duration": 78}, {"note": 0, "velocity": 0, "duration": 162}, {"note": 75, "velocity": 79, "duration": 262}, {"note": 0, "velocity": 0, "duration": 98}, {"note": 74, "velocity": 79, "duration": 589}, {"note": 0, "velocity": 0, "duration": 1211}, {"note": 79, "velocity": 79, "duration": 96}, {"note": 0, "velocity": 0, "duration": 144}, {"note": 79, "velocity": 79, "duration": 82}, {"note": 0, "velocity": 0, "duration": 158}, {"note": 79, "velocity": 79, "duration": 100}, {"note": 0, "velocity": 0, "duration": 140}, {"note": 77, "velocity": 79, "duration": 226}, {"note": 72, "velocity": 79, "duration": 291}, {"note": 0, "velocity": 0, "duration": 189}, {"note": 77, "velocity": 79, "duration": 317}, {"note": 77, "velocity": 78, "duration": 111}, {"note": 0, "velocity": 0, "duration": 249}, {"note": 77, "velocity": 78, "duration": 102}, {"note": 0, "velocity": 0, "duration": 138}, {"note": 74, "velocity": 78, "duration": 104}, {"note": 0, "velocity": 0, "duration": 136}, {"note": 72, "velocity": 78, "duration": 121}, {"note": 0, "velocity": 0, "duration": 119}, {"note": 70, "velocity": 78, "duration": 701}, {"note": 0, "velocity": 0, "duration": 259}, {"note": 75, "velocity": 78, "duration": 96}, {"note": 0, "velocity": 0, "duration": 144}, {"note": 75, "velocity": 78, "duration": 114}, {"note": 0, "velocity": 0, "duration": 126}, {"note": 74, "velocity": 78, "duration": 104}, {"note": 0, "velocity": 0, "duration": 136}, {"note": 75, "velocity": 78, "duration": 100}, {"note": 0, "velocity": 0, "duration": 140}, {"note": 74, "velocity": 78, "duration": 86}, {"note": 0, "velocity": 0, "duration": 154}, {"note": 75, "velocity": 78, "duration": 75}, {"note": 0, "velocity": 0, "duration": 165}, {"note": 77, "velocity": 78, "duration": 388}, {"note": 0, "velocity": 0, "duration": 92}, {"note": 79, "velocity": 78, "duration": 118}, {"note": 0, "velocity": 0, "duration": 122}, {"note": 79, "velocity": 78, "duration": 92}, {"note": 0, "velocity": 0, "duration": 148}, {"note": 79, "velocity": 78, "duration": 94}, {"note": 0, "velocity": 0, "duration": 146}, {"note": 79, "velocity": 78, "duration": 103}, {"note": 0, "velocity": 0, "duration": 137}, {"note": 76, "velocity": 78, "duration": 107}, {"note": 0, "velocity": 0, "duration": 133}, {"note": 78, "velocity": 78, "duration": 107}, {"note": 0, "velocity": 0, "duration": 133}, {"note": 79, "velocity": 78, "duration": 107}, {"note": 0, "velocity": 0, "duration": 133}, {"note": 78, "velocity": 78, "duration": 301}, {"note": 0, "velocity": 0, "duration": 179}, {"note": 79, "velocity": 78, "duration": 336}, {"note": 0, "velocity": 0, "duration": 144}, {"note": 81, "velocity": 78, "duration": 2311}, {"note": 0, "velocity": 0, "duration": 809}, {"note": 71, "velocity": 78, "duration": 170}, {"note": 0, "velocity": 0, "duration": 70}, {"note": 76, "velocity": 78, "duration": 92}, {"note": 0, "velocity": 0, "duration": 148}, {"note": 83, "velocity": 78, "duration": 109}, {"note": 0, "velocity": 0, "duration": 131}, {"note": 83, "velocity": 78, "duration": 937}, {"note": 0, "velocity": 0, "duration": 263}, {"note": 71, "velocity": 78, "duration": 162}, {"note": 76, "velocity": 78, "duration": 95}, {"note": 0, "velocity": 0, "duration": 265}, {"note": 83, "velocity": 78, "duration": 80}, {"note": 0, "velocity": 0, "duration": 160}, {"note": 83, "velocity": 78, "duration": 368}, {"note": 0, "velocity": 0, "duration": 112}, {"note": 81, "velocity": 78, "duration": 62}, {"note": 0, "velocity": 0, "duration": 178}, {"note": 81, "velocity": 78, "duration": 319}, {"note": 0, "velocity": 0, "duration": 161}, {"note": 79, "velocity": 78, "duration": 187}, {"note": 78, "velocity": 78, "duration": 145}, {"note": 0, "velocity": 0, "duration": 95}, {"note": 79, "velocity": 78, "duration": 117}, {"note": 0, "velocity": 0, "duration": 123}, {"note": 81, "velocity": 79, "duration": 1036}, {"note": 0, "velocity": 0, "duration": 164}, {"note": 83, "velocity": 79, "duration": 182}, {"note": 81, "velocity": 79, "duration": 136}, {"note": 0, "velocity": 0, "duration": 104}, {"note": 83, "velocity": 79, "duration": 121}, {"note": 0, "velocity": 0, "duration": 119}, {"note": 81, "velocity": 80, "duration": 243}, {"note": 0, "velocity": 0, "duration": 117}, {"note": 79, "velocity": 80, "duration": 470}, {"note": 0, "velocity": 0, "duration": 130}, {"note": 79, "velocity": 80, "duration": 240}, {"note": 76, "velocity": 80, "duration": 98}, {"note": 0, "velocity": 0, "duration": 142}, {"note": 76, "velocity": 80, "duration": 97}, {"note": 0, "velocity": 0, "duration": 143}, {"note": 78, "velocity": 80, "duration": 102}, {"note": 0, "velocity": 0, "duration": 138}, {"note": 79, "velocity": 80, "duration": 1072}, {"note": 0, "velocity": 0, "duration": 128}, {"note": 76, "velocity": 80, "duration": 175}, {"note": 0, "velocity": 0, "duration": 65}, {"note": 83, "velocity": 80, "duration": 228}, {"note": 0, "velocity": 0, "duration": 132}, {"note": 81, "velocity": 80, "duration": 620}, {"note": 0, "velocity": 0, "duration": 220}, {"note": 79, "velocity": 80, "duration": 264}, {"note": 78, "velocity": 80, "duration": 140}, {"note": 0, "velocity": 0, "duration": 100}, {"note": 79, "velocity": 80, "duration": 122}, {"note": 0, "velocity": 0, "duration": 118}, {"note": 81, "velocity": 80, "duration": 90}, {"note": 0, "velocity": 0, "duration": 150}, {"note": 84, "velocity": 80, "duration": 110}, {"note": 0, "velocity": 0, "duration": 130}, {"note": 84, "velocity": 81, "duration": 301}, {"note": 0, "velocity": 0, "duration": 179}, {"note": 83, "velocity": 81, "duration": 259}, {"note": 0, "velocity": 0, "duration": 461}, {"note": 83, "velocity": 82, "duration": 200}, {"note": 81, "velocity": 83, "duration": 97}, {"note": 0, "velocity": 0, "duration": 143}, {"note": 84, "velocity": 83, "duration": 266}, {"note": 0, "velocity": 0, "duration": 214}, {"note": 83, "velocity": 83, "duration": 483}, {"note": 71, "velocity": 83, "duration": 170}, {"note": 0, "velocity": 0, "duration": 70}, {"note": 76, "velocity": 83, "duration": 282}, {"note": 0, "velocity": 0, "duration": 198}, {"note": 83, "velocity": 83, "duration": 345}, {"note": 0, "velocity": 0, "duration": 135}, {"note": 83, "velocity": 83, "duration": 967}, {"note": 0, "velocity": 0, "duration": 233}, {"note": 71, "velocity": 83, "duration": 199}, {"note": 76, "velocity": 83, "duration": 100}, {"note": 0, "velocity": 0, "duration": 140}, {"note": 83, "velocity": 83, "duration": 70}, {"note": 0, "velocity": 0, "duration": 170}, {"note": 83, "velocity": 83, "duration": 321}, {"note": 0, "velocity": 0, "duration": 159}, {"note": 84, "velocity": 84, "duration": 110}, {"note": 0, "velocity": 0, "duration": 130}, {"note": 81, "velocity": 84, "duration": 219}, {"note": 0, "velocity": 0, "duration": 261}, {"note": 79, "velocity": 84, "duration": 237}, {"note": 78, "velocity": 84, "duration": 136}, {"note": 0, "velocity": 0, "duration": 104}, {"note": 79, "velocity": 84, "duration": 126}, {"note": 0, "velocity": 0, "duration": 114}, {"note": 81, "velocity": 84, "duration": 957}, {"note": 0, "velocity": 0, "duration": 243}, {"note": 74, "velocity": 84, "duration": 191}, {"note": 78, "velocity": 84, "duration": 109}, {"note": 0, "velocity": 0, "duration": 131}, {"note": 81, "velocity": 84, "duration": 110}, {"note": 0, "velocity": 0, "duration": 130}, {"note": 84, "velocity": 84, "duration": 321}, {"note": 83, "velocity": 84, "duration": 69}, {"note": 0, "velocity": 0, "duration": 159}, {"note": 83, "velocity": 84, "duration": 106}, {"note": 0, "velocity": 0, "duration": 134}, {"note": 81, "velocity": 84, "duration": 84}, {"note": 0, "velocity": 0, "duration": 156}, {"note": 81, "velocity": 84, "duration": 104}, {"note": 0, "velocity": 0, "duration": 136}, {"note": 79, "velocity": 84, "duration": 95}, {"note": 0, "velocity": 0, "duration": 145}, {"note": 78, "velocity": 84, "duration": 104}, {"note": 0, "velocity": 0, "duration": 136}, {"note": 76, "velocity": 84, "duration": 145}, {"note": 0, "velocity": 0, "duration": 95}, {"note": 79, "velocity": 84, "duration": 633}, {"note": 0, "velocity": 0, "duration": 567}, {"note": 76, "velocity": 84, "duration": 102}, {"note": 0, "velocity": 0, "duration": 138}, {"note": 81, "velocity": 85, "duration": 121}, {"note": 0, "velocity": 0, "duration": 119}, {"note": 79, "velocity": 85, "duration": 88}, {"note": 0, "velocity": 0, "duration": 152}, {"note": 78, "velocity": 85, "duration": 811}, {"note": 0, "velocity": 0, "duration": 149}, {"note": 79, "velocity": 85, "duration": 348}, {"note": 0, "velocity": 0, "duration": 132}, {"note": 78, "velocity": 85, "duration": 338}, {"note": 0, "velocity": 0, "duration": 142}, {"note": 79, "velocity": 86, "duration": 2001}, {"note": 0, "velocity": 0, "duration": 10239}, {"note": 71, "velocity": 88, "duration": 170}, {"note": 0, "velocity": 0, "duration": 70}, {"note": 76, "velocity": 88, "duration": 282}, {"note": 0, "velocity": 0, "duration": 198}, {"note": 83, "velocity": 88, "duration": 345}, {"note": 0, "velocity": 0, "duration": 135}, {"note": 83, "velocity": 88, "duration": 967}, {"note": 0, "velocity": 0, "duration": 233}, {"note": 71, "velocity": 89, "duration": 199}, {"note": 76, "velocity": 89, "duration": 100}, {"note": 0, "velocity": 0, "duration": 140}, {"note": 83, "velocity": 89, "duration": 70}, {"note": 0, "velocity": 0, "duration": 170}, {"note": 83, "velocity": 89, "duration": 321}, {"note": 0, "velocity": 0, "duration": 159}, {"note": 84, "velocity": 89, "duration": 110}, {"note": 0, "velocity": 0, "duration": 130}, {"note": 81, "velocity": 89, "duration": 219}, {"note": 0, "velocity": 0, "duration": 261}, {"note": 79, "velocity": 89, "duration": 237}, {"note": 78, "velocity": 90, "duration": 136}, {"note": 0, "velocity": 0, "duration": 104}, {"note": 79, "velocity": 89, "duration": 126}, {"note": 0, "velocity": 0, "duration": 114}, {"note": 81, "velocity": 90, "duration": 957}, {"note": 0, "velocity": 0, "duration": 243}, {"note": 74, "velocity": 90, "duration": 191}, {"note": 78, "velocity": 91, "duration": 109}, {"note": 0, "velocity": 0, "duration": 131}, {"note": 81, "velocity": 90, "duration": 110}, {"note": 0, "velocity": 0, "duration": 130}, {"note": 84, "velocity": 90, "duration": 321}, {"note": 83, "velocity": 90, "duration": 69}, {"note": 0, "velocity": 0, "duration": 159}, {"note": 83, "velocity": 91, "duration": 106}, {"note": 0, "velocity": 0, "duration": 134}, {"note": 81, "velocity": 91, "duration": 84}, {"note": 0, "velocity": 0, "duration": 156}, {"note": 81, "velocity": 91, "duration": 104}, {"note": 0, "velocity": 0, "duration": 136}, {"note": 79, "velocity": 91, "duration": 95}, {"note": 0, "velocity": 0, "duration": 145}, {"note": 78, "velocity": 91, "duration": 104}, {"note": 0, "velocity": 0, "duration": 136}, {"note": 76, "velocity": 91, "duration": 145}, {"note": 0, "velocity": 0, "duration": 95}, {"note": 79, "velocity": 91, "duration": 633}, {"note": 0, "velocity": 0, "duration": 567}, {"note": 76, "velocity": 92, "duration": 102}, {"note": 0, "velocity": 0, "duration": 138}, {"note": 81, "velocity": 92, "duration": 121}, {"note": 0, "velocity": 0, "duration": 119}, {"note": 79, "velocity": 92, "duration": 88}, {"note": 0, "velocity": 0, "duration": 152}, {"note": 78, "velocity": 92, "duration": 811}, {"note": 0, "velocity": 0, "duration": 149}, {"note": 79, "velocity": 92, "duration": 423}, {"note": 81, "velocity": 92, "duration": 265}, {"note": 0, "velocity": 0, "duration": 215}, {"note": 83, "velocity": 92, "duration": 1995}, {"note": 0, "velocity": 0, "duration": 885}, {"note": 79, "velocity": 92, "duration": 559}, {"note": 0, "velocity": 0, "duration": 161}, {"note": 78, "velocity": 91, "duration": 290}, {"note": 0, "velocity": 0, "duration": 190}, {"note": 76, "velocity": 91, "duration": 3542}]]