[[{"note": 74, "velocity": 88, "duration": 215}, {"note": 81, "velocity": 88, "duration": 47}, {"note": 0, "velocity": 0, "duration": 73}, {"note": 81, "velocity": 88, "duration": 46}, {"note": 0, "velocity": 0, "duration": 74}, {"note": 81, "velocity": 88, "duration": 322}, {"note": 0, "velocity": 0, "duration": 158}, {"note": 79, "velocity": 88, "duration": 165}, {"note": 0, "velocity": 0, "duration": 75}, {"note": 77, "velocity": 88, "duration": 224}, {"note": 0, "velocity": 0, "duration": 496}, {"note": 79, "velocity": 88, "duration": 374}, {"note": 0, "velocity": 0, "duration": 106}, {"note": 72, "velocity": 88, "duration": 126}, {"note": 0, "velocity": 0, "duration": 114}, {"note": 76, "velocity": 88, "duration": 128}, {"note": 0, "velocity": 0, "duration": 112}, {"note": 74, "velocity": 88, "duration": 270}, {"note": 0, "velocity": 0, "duration": 690}, {"note": 77, "velocity": 88, "duration": 232}, {"note": 0, "velocity": 0, "duration": 128}, {"note": 77, "velocity": 88, "duration": 54}, {"note": 0, "velocity": 0, "duration": 66}, {"note": 77, "velocity": 89, "duration": 164}, {"note": 0, "velocity": 0, "duration": 76}, {"note": 74, "velocity": 89, "duration": 139}, {"note": 0, "velocity": 0, "duration": 101}, {"note": 77, "velocity": 90, "duration": 235}, {"note": 74, "velocity": 91, "duration": 613}, {"note": 0, "velocity": 0, "duration": 107}, {"note": 77, "velocity": 92, "duration": 269}, {"note": 74, "velocity": 94, "duration": 111}, {"note": 0, "velocity": 0, "duration": 129}, {"note": 74, "velocity": 94, "duration": 240}, {"note": 84, "velocity": 94, "duration": 187}, {"note": 81, "velocity": 94, "duration": 378}, {"note": 0, "velocity": 0, "duration": 582}, {"note": 81, "velocity": 94, "duration": 194}, {"note": 86, "velocity": 94, "duration": 143}, {"note": 0, "velocity": 0, "duration": 97}, {"note": 86, "velocity": 94, "duration": 133}, {"note": 0, "velocity": 0, "duration": 107}, {"note": 84, "velocity": 95, "duration": 175}, {"note": 0, "velocity": 0, "duration": 65}, {"note": 86, "velocity": 97, "duration": 224}, {"note": 81, "velocity": 99, "duration": 283}, {"note": 0, "velocity": 0, "duration": 437}, {"note": 84, "velocity": 100, "duration": 162}, {"note": 81, "velocity": 100, "duration": 156}, {"note": 0, "velocity": 0, "duration": 84}, {"note": 84, "velocity": 100, "duration": 141}, {"note": 81, "velocity": 100, "duration": 227}, {"note": 79, "velocity": 99, "duration": 203}, {"note": 77, "velocity": 99, "duration": 323}, {"note": 0, "velocity": 0, "duration": 637}, {"note": 79, "velocity": 76, "duration": 282}, {"note": 0, "velocity": 0, "duration": 78}, {"note": 79, "velocity": 74, "duration": 55}, {"note": 0, "velocity": 0, "duration": 65}, {"note": 79, "velocity": 87, "duration": 219}, {"note": 77, "velocity": 65, "duration": 141}, {"note": 74, "velocity": 62, "duration": 144}, {"note": 81, "velocity": 79, "duration": 175}, {"note": 0, "velocity": 0, "duration": 65}, {"note": 79, "velocity": 95, "duration": 408}, {"note": 0, "velocity": 0, "duration": 312}, {"note": 72, "velocity": 71, "duration": 346}, {"note": 74, "velocity": 64, "duration": 90}, {"note": 77, "velocity": 75, "duration": 219}, {"note": 76, "velocity": 65, "duration": 232}, {"note": 74, "velocity": 69, "duration": 843}, {"note": 0, "velocity": 0, "duration": 117}, {"note": 74, "velocity": 68, "duration": 229}, {"note": 81, "velocity": 63, "duration": 135}, {"note": 0, "velocity": 0, "duration": 105}, {"note": 81, "velocity": 68, "duration": 186}, {"note": 79, "velocity": 70, "duration": 169}, {"note": 0, "velocity": 0, "duration": 71}, {"note": 81, "velocity": 67, "duration": 207}, {"note": 77, "velocity": 63, "duration": 352}, {"note": 0, "velocity": 0, "duration": 368}, {"note": 79, "velocity": 87, "duration": 164}, {"note": 0, "velocity": 0, "duration": 76}, {"note": 76, "velocity": 71, "duration": 128}, {"note": 74, "velocity": 66, "duration": 74}, {"note": 72, "velocity": 74, "duration": 121}, {"note": 0, "velocity": 0, "duration": 119}, {"note": 76, "velocity": 79, "duration": 157}, {"note": 0, "velocity": 0, "duration": 83}, {"note": 74, "velocity": 90, "duration": 284}, {"note": 0, "velocity": 0, "duration": 676}, {"note": 77, "velocity": 75, "duration": 247}, {"note": 0, "velocity": 0, "duration": 113}, {"note": 77, "velocity": 77, "duration": 47}, {"note": 0, "velocity": 0, "duration": 73}, {"note": 77, "velocity": 83, "duration": 184}, {"note": 74, "velocity": 60, "duration": 94}, {"note": 0, "velocity": 0, "duration": 146}, {"note": 74, "velocity": 77, "duration": 108}, {"note": 77, "velocity": 74, "duration": 106}, {"note": 74, "velocity": 74, "duration": 361}, {"note": 0, "velocity": 0, "duration": 359}, {"note": 77, "velocity": 75, "duration": 230}, {"note": 74, "velocity": 61, "duration": 97}, {"note": 0, "velocity": 0, "duration": 143}, {"note": 74, "velocity": 68, "duration": 138}, {"note": 0, "velocity": 0, "duration": 102}, {"note": 84, "velocity": 71, "duration": 124}, {"note": 0, "velocity": 0, "duration": 116}, {"note": 81, "velocity": 98, "duration": 796}, {"note": 0, "velocity": 0, "duration": 164}, {"note": 81, "velocity": 75, "duration": 144}, {"note": 0, "velocity": 0, "duration": 96}, {"note": 86, "velocity": 77, "duration": 52}, {"note": 0, "velocity": 0, "duration": 68}, {"note": 86, "velocity": 76, "duration": 45}, {"note": 0, "velocity": 0, "duration": 75}, {"note": 86, "velocity": 81, "duration": 95}, {"note": 0, "velocity": 0, "duration": 145}, {"note": 84, "velocity": 77, "duration": 115}, {"note": 0, "velocity": 0, "duration": 125}, {"note": 86, "velocity": 87, "duration": 60}, {"note": 84, "velocity": 68, "duration": 51}, {"note": 0, "velocity": 0, "duration": 69}, {"note": 81, "velocity": 86, "duration": 423}, {"note": 0, "velocity": 0, "duration": 297}, {"note": 84, "velocity": 87, "duration": 139}, {"note": 81, "velocity": 70, "duration": 150}, {"note": 0, "velocity": 0, "duration": 90}, {"note": 84, "velocity": 74, "duration": 122}, {"note": 81, "velocity": 74, "duration": 238}, {"note": 79, "velocity": 73, "duration": 222}, {"note": 77, "velocity": 95, "duration": 816}, {"note": 0, "velocity": 0, "duration": 144}, {"note": 79, "velocity": 76, "duration": 242}, {"note": 0, "velocity": 0, "duration": 118}, {"note": 79, "velocity": 76, "duration": 52}, {"note": 0, "velocity": 0, "duration": 68}, {"note": 79, "velocity": 85, "duration": 123}, {"note": 0, "velocity": 0, "duration": 117}, {"note": 77, "velocity": 69, "duration": 138}, {"note": 74, "velocity": 61, "duration": 110}, {"note": 81, "velocity": 70, "duration": 154}, {"note": 0, "velocity": 0, "duration": 86}, {"note": 79, "velocity": 87, "duration": 335}, {"note": 0, "velocity": 0, "duration": 385}, {"note": 72, "velocity": 68, "duration": 405}, {"note": 74, "velocity": 65, "duration": 81}, {"note": 77, "velocity": 76, "duration": 185}, {"note": 76, "velocity": 63, "duration": 191}, {"note": 74, "velocity": 71, "duration": 945}, {"note": 86, "velocity": 100, "duration": 320}, {"note": 0, "velocity": 0, "duration": 160}, {"note": 86, "velocity": 104, "duration": 239}, {"note": 81, "velocity": 75, "duration": 199}, {"note": 86, "velocity": 93, "duration": 176}, {"note": 0, "velocity": 0, "duration": 64}, {"note": 89, "velocity": 81, "duration": 572}, {"note": 0, "velocity": 0, "duration": 148}, {"note": 88, "velocity": 74, "duration": 128}, {"note": 0, "velocity": 0, "duration": 112}, {"note": 86, "velocity": 66, "duration": 50}, {"note": 0, "velocity": 0, "duration": 70}, {"note": 88, "velocity": 64, "duration": 54}, {"note": 0, "velocity": 0, "duration": 66}, {"note": 84, "velocity": 61, "duration": 154}, {"note": 0, "velocity": 0, "duration": 86}, {"note": 81, "velocity": 73, "duration": 186}, {"note": 86, "velocity": 85, "duration": 760}, {"note": 0, "velocity": 0, "duration": 200}, {"note": 86, "velocity": 79, "duration": 299}, {"note": 0, "velocity": 0, "duration": 61}, {"note": 89, "velocity": 75, "duration": 51}, {"note": 0, "velocity": 0, "duration": 69}, {"note": 89, "velocity": 85, "duration": 132}, {"note": 0, "velocity": 0, "duration": 108}, {"note": 84, "velocity": 76, "duration": 148}, {"note": 0, "velocity": 0, "duration": 92}, {"note": 86, "velocity": 95, "duration": 137}, {"note": 0, "velocity": 0, "duration": 103}, {"note": 86, "velocity": 111, "duration": 458}, {"note": 84, "velocity": 74, "duration": 182}, {"note": 86, "velocity": 81, "duration": 139}, {"note": 0, "velocity": 0, "duration": 101}, {"note": 86, "velocity": 81, "duration": 155}, {"note": 0, "velocity": 0, "duration": 85}, {"note": 79, "velocity": 83, "duration": 181}, {"note": 82, "velocity": 87, "duration": 174}, {"note": 0, "velocity": 0, "duration": 66}, {"note": 81, "velocity": 86, "duration": 904}, {"note": 81, "velocity": 61, "duration": 258}, {"note": 86, "velocity": 73, "duration": 346}, {"note": 0, "velocity": 0, "duration": 134}, {"note": 84, "velocity": 81, "duration": 156}, {"note": 0, "velocity": 0, "duration": 84}, {"note": 86, "velocity": 87, "duration": 66}, {"note": 84, "velocity": 65, "duration": 100}, {"note": 81, "velocity": 79, "duration": 626}, {"note": 0, "velocity": 0, "duration": 94}, {"note": 84, "velocity": 76, "duration": 113}, {"note": 81, "velocity": 64, "duration": 172}, {"note": 0, "velocity": 0, "duration": 68}, {"note": 84, "velocity": 73, "duration": 98}, {"note": 81, "velocity": 68, "duration": 229}, {"note": 79, "velocity": 85, "duration": 225}, {"note": 77, "velocity": 87, "duration": 848}, {"note": 0, "velocity": 0, "duration": 112}, {"note": 79, "velocity": 95, "duration": 240}, {"note": 0, "velocity": 0, "duration": 120}, {"note": 79, "velocity": 86, "duration": 52}, {"note": 0, "velocity": 0, "duration": 68}, {"note": 79, "velocity": 95, "duration": 255}, {"note": 77, "velocity": 61, "duration": 142}, {"note": 74, "velocity": 64, "duration": 93}, {"note": 81, "velocity": 79, "duration": 183}, {"note": 79, "velocity": 104, "duration": 532}, {"note": 0, "velocity": 0, "duration": 188}, {"note": 72, "velocity": 79, "duration": 371}, {"note": 74, "velocity": 65, "duration": 72}, {"note": 77, "velocity": 95, "duration": 195}, {"note": 76, "velocity": 81, "duration": 140}, {"note": 0, "velocity": 0, "duration": 100}, {"note": 74, "velocity": 83, "duration": 936}, {"note": 86, "velocity": 100, "duration": 320}, {"note": 0, "velocity": 0, "duration": 160}, {"note": 86, "velocity": 104, "duration": 239}, {"note": 81, "velocity": 75, "duration": 199}, {"note": 86, "velocity": 93, "duration": 176}, {"note": 0, "velocity": 0, "duration": 64}, {"note": 89, "velocity": 81, "duration": 572}, {"note": 0, "velocity": 0, "duration": 148}, {"note": 88, "velocity": 74, "duration": 128}, {"note": 0, "velocity": 0, "duration": 112}, {"note": 86, "velocity": 66, "duration": 50}, {"note": 0, "velocity": 0, "duration": 70}, {"note": 88, "velocity": 64, "duration": 54}, {"note": 0, "velocity": 0, "duration": 66}, {"note": 84, "velocity": 61, "duration": 154}, {"note": 0, "velocity": 0, "duration": 86}, {"note": 81, "velocity": 73, "duration": 186}, {"note": 86, "velocity": 85, "duration": 760}, {"note": 0, "velocity": 0, "duration": 200}, {"note": 86, "velocity": 79, "duration": 299}, {"note": 0, "velocity": 0, "duration": 61}, {"note": 89, "velocity": 75, "duration": 51}, {"note": 0, "velocity": 0, "duration": 69}, {"note": 89, "velocity": 85, "duration": 132}, {"note": 0, "velocity": 0, "duration": 108}, {"note": 84, "velocity": 76, "duration": 148}, {"note": 0, "velocity": 0, "duration": 92}, {"note": 86, "velocity": 95, "duration": 137}, {"note": 0, "velocity": 0, "duration": 103}, {"note": 86, "velocity": 111, "duration": 458}, {"note": 0, "velocity": 0, "duration": 262}, {"note": 86, "velocity": 81, "duration": 139}, {"note": 0, "velocity": 0, "duration": 101}, {"note": 86, "velocity": 81, "duration": 155}, {"note": 0, "velocity": 0, "duration": 85}, {"note": 79, "velocity": 83, "duration": 181}, {"note": 82, "velocity": 87, "duration": 174}, {"note": 0, "velocity": 0, "duration": 66}, {"note": 81, "velocity": 86, "duration": 904}, {"note": 81, "velocity": 61, "duration": 258}, {"note": 86, "velocity": 73, "duration": 346}, {"note": 0, "velocity": 0, "duration": 134}, {"note": 84, "velocity": 81, "duration": 156}, {"note": 0, "velocity": 0, "duration": 84}, {"note": 86, "velocity": 87, "duration": 66}, {"note": 84, "velocity": 65, "duration": 100}, {"note": 81, "velocity": 79, "duration": 626}, {"note": 0, "velocity": 0, "duration": 94}, {"note": 84, "velocity": 76, "duration": 113}, {"note": 81, "velocity": 64, "duration": 172}, {"note": 0, "velocity": 0, "duration": 68}, {"note": 84, "velocity": 73, "duration": 98}, {"note": 81, "velocity": 68, "duration": 229}, {"note": 79, "velocity": 85, "duration": 225}, {"note": 77, "velocity": 87, "duration": 848}, {"note": 0, "velocity": 0, "duration": 112}, {"note": 79, "velocity": 95, "duration": 240}, {"note": 0, "velocity": 0, "duration": 120}, {"note": 79, "velocity": 86, "duration": 52}, {"note": 0, "velocity": 0, "duration": 68}, {"note": 79, "velocity": 95, "duration": 255}, {"note": 77, "velocity": 61, "duration": 142}, {"note": 74, "velocity": 64, "duration": 93}, {"note": 81, "velocity": 79, "duration": 183}, {"note": 79, "velocity": 104, "duration": 532}, {"note": 81, "velocity": 74, "duration": 222}, {"note": 84, "velocity": 79, "duration": 371}, {"note": 86, "velocity": 65, "duration": 72}, {"note": 89, "velocity": 95, "duration": 195}, {"note": 88, "velocity": 81, "duration": 140}, {"note": 0, "velocity": 0, "duration": 100}, {"note": 86, "velocity": 83, "duration": 936}, {"note": 0, "velocity": 0, "duration": 15364}, {"note": 74, "velocity": 68, "duration": 229}, {"note": 81, "velocity": 63, "duration": 135}, {"note": 0, "velocity": 0, "duration": 105}, {"note": 81, "velocity": 68, "duration": 186}, {"note": 79, "velocity": 70, "duration": 169}, {"note": 0, "velocity": 0, "duration": 71}, {"note": 81, "velocity": 67, "duration": 207}, {"note": 77, "velocity": 63, "duration": 352}, {"note": 0, "velocity": 0, "duration": 368}, {"note": 79, "velocity": 87, "duration": 164}, {"note": 0, "velocity": 0, "duration": 76}, {"note": 76, "velocity": 71, "duration": 128}, {"note": 74, "velocity": 66, "duration": 74}, {"note": 72, "velocity": 74, "duration": 121}, {"note": 0, "velocity": 0, "duration": 119}, {"note": 76, "velocity": 79, "duration": 157}, {"note": 0, "velocity": 0, "duration": 83}, {"note": 74, "velocity": 90, "duration": 284}, {"note": 0, "velocity": 0, "duration": 676}, {"note": 77, "velocity": 75, "duration": 247}, {"note": 0, "velocity": 0, "duration": 113}, {"note": 77, "velocity": 77, "duration": 47}, {"note": 0, "velocity": 0, "duration": 73}, {"note": 77, "velocity": 83, "duration": 184}, {"note": 74, "velocity": 60, "duration": 94}, {"note": 0, "velocity": 0, "duration": 146}, {"note": 74, "velocity": 77, "duration": 108}, {"note": 77, "velocity": 74, "duration": 106}, {"note": 74, "velocity": 74, "duration": 361}, {"note": 0, "velocity": 0, "duration": 359}, {"note": 77, "velocity": 75, "duration": 230}, {"note": 74, "velocity": 61, "duration": 97}, {"note": 0, "velocity": 0, "duration": 143}, {"note": 74, "velocity": 68, "duration": 138}, {"note": 0, "velocity": 0, "duration": 102}, {"note": 84, "velocity": 71, "duration": 124}, {"note": 0, "velocity": 0, "duration": 116}, {"note": 81, "velocity": 98, "duration": 796}, {"note": 0, "velocity": 0, "duration": 164}, {"note": 81, "velocity": 75, "duration": 144}, {"note": 0, "velocity": 0, "duration": 96}, {"note": 86, "velocity": 77, "duration": 52}, {"note": 0, "velocity": 0, "duration": 68}, {"note": 86, "velocity": 76, "duration": 45}, {"note": 0, "velocity": 0, "duration": 75}, {"note": 86, "velocity": 81, "duration": 95}, {"note": 0, "velocity": 0, "duration": 145}, {"note": 84, "velocity": 77, "duration": 115}, {"note": 0, "velocity": 0, "duration": 125}, {"note": 86, "velocity": 87, "duration": 60}, {"note": 84, "velocity": 68, "duration": 51}, {"note": 0, "velocity": 0, "duration": 69}, {"note": 81, "velocity": 86, "duration": 423}, {"note": 0, "velocity": 0, "duration": 297}, {"note": 84, "velocity": 87, "duration": 139}, {"note": 81, "velocity": 70, "duration": 150}, {"note": 0, "velocity": 0, "duration": 90}, {"note": 84, "velocity": 74, "duration": 122}, {"note": 81, "velocity": 74, "duration": 238}, {"note": 79, "velocity": 73, "duration": 222}, {"note": 77, "velocity": 95, "duration": 816}, {"note": 0, "velocity": 0, "duration": 144}, {"note": 79, "velocity": 76, "duration": 242}, {"note": 0, "velocity": 0, "duration": 118}, {"note": 79, "velocity": 76, "duration": 52}, {"note": 0, "velocity": 0, "duration": 68}, {"note": 79, "velocity": 85, "duration": 123}, {"note": 0, "velocity": 0, "duration": 117}, {"note": 77, "velocity": 69, "duration": 138}, {"note": 74, "velocity": 61, "duration": 110}, {"note": 81, "velocity": 70, "duration": 154}, {"note": 0, "velocity": 0, "duration": 86}, {"note": 79, "velocity": 87, "duration": 335}, {"note": 0, "velocity": 0, "duration": 385}, {"note": 72, "velocity": 68, "duration": 405}, {"note": 74, "velocity": 65, "duration": 81}, {"note": 77, "velocity": 76, "duration": 185}, {"note": 76, "velocity": 63, "duration": 191}, {"note": 74, "velocity": 71, "duration": 945}, {"note": 86, "velocity": 100, "duration": 320}, {"note": 0, "velocity": 0, "duration": 160}, {"note": 86, "velocity": 104, "duration": 239}, {"note": 81, "velocity": 75, "duration": 199}, {"note": 86, "velocity": 93, "duration": 176}, {"note": 0, "velocity": 0, "duration": 64}, {"note": 89, "velocity": 81, "duration": 572}, {"note": 0, "velocity": 0, "duration": 148}, {"note": 88, "velocity": 74, "duration": 128}, {"note": 0, "velocity": 0, "duration": 112}, {"note": 86, "velocity": 66, "duration": 50}, {"note": 0, "velocity": 0, "duration": 70}, {"note": 88, "velocity": 64, "duration": 54}, {"note": 0, "velocity": 0, "duration": 66}, {"note": 84, "velocity": 61, "duration": 154}, {"note": 0, "velocity": 0, "duration": 86}, {"note": 81, "velocity": 73, "duration": 186}, {"note": 86, "velocity": 85, "duration": 760}, {"note": 0, "velocity": 0, "duration": 200}, {"note": 86, "velocity": 79, "duration": 299}, {"note": 0, "velocity": 0, "duration": 61}, {"note": 89, "velocity": 75, "duration": 51}, {"note": 0, "velocity": 0, "duration": 69}, {"note": 89, "velocity": 85, "duration": 132}, {"note": 0, "velocity": 0, "duration": 108}, {"note": 84, "velocity": 76, "duration": 148}, {"note": 0, "velocity": 0, "duration": 92}, {"note": 86, "velocity": 95, "duration": 137}, {"note": 0, "velocity": 0, "duration": 103}, {"note": 86, "velocity": 111, "duration": 458}, {"note": 84, "velocity": 74, "duration": 182}, {"note": 86, "velocity": 81, "duration": 139}, {"note": 0, "velocity": 0, "duration": 101}, {"note": 86, "velocity": 81, "duration": 155}, {"note": 0, "velocity": 0, "duration": 85}, {"note": 79, "velocity": 83, "duration": 181}, {"note": 82, "velocity": 87, "duration": 174}, {"note": 0, "velocity": 0, "duration": 66}, {"note": 81, "velocity": 86, "duration": 904}, {"note": 81, "velocity": 61, "duration": 258}, {"note": 86, "velocity": 73, "duration": 346}, {"note": 0, "velocity": 0, "duration": 134}, {"note": 84, "velocity": 81, "duration": 156}, {"note": 0, "velocity": 0, "duration": 84}, {"note": 86, "velocity": 87, "duration": 66}, {"note": 84, "velocity": 65, "duration": 100}, {"note": 81, "velocity": 79, "duration": 626}, {"note": 0, "velocity": 0, "duration": 94}, {"note": 84, "velocity": 76, "duration": 113}, {"note": 81, "velocity": 64, "duration": 172}, {"note": 0, "velocity": 0, "duration": 68}, {"note": 84, "velocity": 73, "duration": 98}, {"note": 81, "velocity": 68, "duration": 229}, {"note": 79, "velocity": 85, "duration": 225}, {"note": 77, "velocity": 87, "duration": 848}, {"note": 0, "velocity": 0, "duration": 112}, {"note": 79, "velocity": 95, "duration": 240}, {"note": 0, "velocity": 0, "duration": 120}, {"note": 79, "velocity": 86, "duration": 52}, {"note": 0, "velocity": 0, "duration": 68}, {"note": 79, "velocity": 95, "duration": 255}, {"note": 77, "velocity": 61, "duration": 142}, {"note": 74, "velocity": 64, "duration": 93}, {"note": 81, "velocity": 79, "duration": 183}, {"note": 79, "velocity": 104, "duration": 532}, {"note": 0, "velocity": 0, "duration": 188}, {"note": 72, "velocity": 79, "duration": 371}, {"note": 74, "velocity": 65, "duration": 72}, {"note": 77, "velocity": 95, "duration": 195}, {"note": 76, "velocity": 81, "duration": 140}, {"note": 0, "velocity": 0, "duration": 100}, {"note": 74, "velocity": 83, "duration": 936}, {"note": 86, "velocity": 100, "duration": 320}, {"note": 0, "velocity": 0, "duration": 160}, {"note": 86, "velocity": 104, "duration": 239}, {"note": 81, "velocity": 75, "duration": 199}, {"note": 86, "velocity": 93, "duration": 176}, {"note": 0, "velocity": 0, "duration": 64}, {"note": 89, "velocity": 81, "duration": 572}, {"note": 0, "velocity": 0, "duration": 148}, {"note": 88, "velocity": 74, "duration": 128}, {"note": 0, "velocity": 0, "duration": 112}, {"note": 86, "velocity": 66, "duration": 50}, {"note": 0, "velocity": 0, "duration": 70}, {"note": 88, "velocity": 64, "duration": 54}, {"note": 0, "velocity": 0, "duration": 66}, {"note": 84, "velocity": 61, "duration": 154}, {"note": 0, "velocity": 0, "duration": 86}, {"note": 81, "velocity": 73, "duration": 186}, {"note": 86, "velocity": 85, "duration": 760}, {"note": 0, "velocity": 0, "duration": 200}, {"note": 86, "velocity": 79, "duration": 299}, {"note": 0, "velocity": 0, "duration": 61}, {"note": 89, "velocity": 75, "duration": 51}, {"note": 0, "velocity": 0, "duration": 69}, {"note": 89, "velocity": 85, "duration": 132}, {"note": 0, "velocity": 0, "duration": 108}, {"note": 84, "velocity": 76, "duration": 148}, {"note": 0, "velocity": 0, "duration": 92}, {"note": 86, "velocity": 95, "duration": 137}, {"note": 0, "velocity": 0, "duration": 103}, {"note": 86, "velocity": 111, "duration": 458}, {"note": 0, "velocity": 0, "duration": 262}, {"note": 86, "velocity": 81, "duration": 139}, {"note": 0, "velocity": 0, "duration": 101}, {"note": 86, "velocity": 81, "duration": 155}, {"note": 0, "velocity": 0, "duration": 85}, {"note": 79, "velocity": 83, "duration": 181}, {"note": 82, "velocity": 87, "duration": 174}, {"note": 0, "velocity": 0, "duration": 66}, {"note": 81, "velocity": 86, "duration": 904}, {"note": 81, "velocity": 61, "duration": 258}, {"note": 86, "velocity": 73, "duration": 346}, {"note": 0, "velocity": 0, "duration": 134}, {"note": 84, "velocity": 81, "duration": 156}, {"note": 0, "velocity": 0, "duration": 84}, {"note": 86, "velocity": 87, "duration": 66}, {"note": 84, "velocity": 65, "duration": 100}, {"note": 81, "velocity": 79, "duration": 626}, {"note": 0, "velocity": 0, "duration": 94}, {"note": 84, "velocity": 76, "duration": 113}, {"note": 81, "velocity": 64, "duration": 172}, {"note": 0, "velocity": 0, "duration": 68}, {"note": 84, "velocity": 73, "duration": 98}, {"note": 81, "velocity": 68, "duration": 229}, {"note": 79, "velocity": 85, "duration": 225}, {"note": 77, "velocity": 87, "duration": 848}, {"note": 0, "velocity": 0, "duration": 112}, {"note": 79, "velocity": 95, "duration": 240}, {"note": 0, "velocity": 0, "duration": 120}, {"note": 79, "velocity": 86, "duration": 52}, {"note": 0, "velocity": 0, "duration": 68}, {"note": 79, "velocity": 95, "duration": 255}, {"note": 77, "velocity": 61, "duration": 142}, {"note": 74, "velocity": 64, "duration": 93}, {"note": 81, "velocity": 79, "duration": 183}, {"note": 79, "velocity": 104, "duration": 532}, {"note": 81, "velocity": 74, "duration": 222}, {"note": 84, "velocity": 79, "duration": 371}, {"note": 86, "velocity": 65, "duration": 72}, {"note": 89, "velocity": 95, "duration": 195}, {"note": 88, "velocity": 81, "duration": 140}, {"note": 0, "velocity": 0, "duration": 100}, {"note": 86, "velocity": 83, "duration": 936}, {"note": 79, "velocity": 95, "duration": 240}, {"note": 0, "velocity": 0, "duration": 120}, {"note": 79, "velocity": 86, "duration": 52}, {"note": 0, "velocity": 0, "duration": 68}, {"note": 79, "velocity": 95, "duration": 255}, {"note": 77, "velocity": 61, "duration": 142}, {"note": 74, "velocity": 64, "duration": 93}, {"note": 81, "velocity": 79, "duration": 183}, {"note": 79, "velocity": 104, "duration": 532}, {"note": 81, "velocity": 74, "duration": 222}, {"note": 72, "velocity": 79, "duration": 371}, {"note": 74, "velocity": 65, "duration": 72}, {"note": 77, "velocity": 95, "duration": 195}, {"note": 76, "velocity": 81, "duration": 140}, {"note": 0, "velocity": 0, "duration": 100}, {"note": 74, "velocity": 83, "duration": 936}]]