[[{"note": 70, "velocity": 93, "duration": 144}, {"note": 0, "velocity": 0, "duration": 96}, {"note": 70, "velocity": 78, "duration": 153}, {"note": 0, "velocity": 0, "duration": 87}, {"note": 70, "velocity": 66, "duration": 240}, {"note": 72, "velocity": 67, "duration": 260}, {"note": 74, "velocity": 67, "duration": 385}, {"note": 72, "velocity": 80, "duration": 248}, {"note": 70, "velocity": 88, "duration": 254}, {"note": 72, "velocity": 67, "duration": 238}, {"note": 67, "velocity": 95, "duration": 1166}, {"note": 0, "velocity": 0, "duration": 754}, {"note": 70, "velocity": 85, "duration": 149}, {"note": 0, "velocity": 0, "duration": 91}, {"note": 70, "velocity": 70, "duration": 156}, {"note": 0, "velocity": 0, "duration": 84}, {"note": 70, "velocity": 66, "duration": 245}, {"note": 72, "velocity": 61, "duration": 232}, {"note": 74, "velocity": 75, "duration": 307}, {"note": 77, "velocity": 61, "duration": 108}, {"note": 0, "velocity": 0, "duration": 132}, {"note": 74, "velocity": 75, "duration": 205}, {"note": 70, "velocity": 95, "duration": 254}, {"note": 72, "velocity": 76, "duration": 473}, {"note": 0, "velocity": 0, "duration": 1447}, {"note": 74, "velocity": 88, "duration": 112}, {"note": 0, "velocity": 0, "duration": 128}, {"note": 74, "velocity": 78, "duration": 237}, {"note": 72, "velocity": 72, "duration": 274}, {"note": 74, "velocity": 76, "duration": 230}, {"note": 77, "velocity": 76, "duration": 737}, {"note": 0, "velocity": 0, "duration": 223}, {"note": 74, "velocity": 61, "duration": 184}, {"note": 72, "velocity": 70, "duration": 100}, {"note": 0, "velocity": 0, "duration": 140}, {"note": 72, "velocity": 78, "duration": 207}, {"note": 65, "velocity": 80, "duration": 280}, {"note": 67, "velocity": 75, "duration": 778}, {"note": 0, "velocity": 0, "duration": 182}, {"note": 72, "velocity": 75, "duration": 239}, {"note": 72, "velocity": 93, "duration": 239}, {"note": 72, "velocity": 85, "duration": 40}, {"note": 0, "velocity": 0, "duration": 440}, {"note": 74, "velocity": 76, "duration": 275}, {"note": 72, "velocity": 85, "duration": 959}, {"note": 72, "velocity": 85, "duration": 239}, {"note": 72, "velocity": 67, "duration": 240}, {"note": 70, "velocity": 76, "duration": 240}, {"note": 67, "velocity": 67, "duration": 289}, {"note": 70, "velocity": 73, "duration": 1920}, {"note": 65, "velocity": 59, "duration": 239}, {"note": 65, "velocity": 82, "duration": 510}, {"note": 67, "velocity": 61, "duration": 263}, {"note": 74, "velocity": 69, "duration": 483}, {"note": 72, "velocity": 73, "duration": 260}, {"note": 70, "velocity": 54, "duration": 249}, {"note": 72, "velocity": 93, "duration": 240}, {"note": 70, "velocity": 72, "duration": 239}, {"note": 70, "velocity": 58, "duration": 240}, {"note": 65, "velocity": 60, "duration": 240}, {"note": 70, "velocity": 73, "duration": 480}, {"note": 65, "velocity": 82, "duration": 164}, {"note": 67, "velocity": 60, "duration": 151}, {"note": 70, "velocity": 63, "duration": 157}, {"note": 72, "velocity": 66, "duration": 158}, {"note": 74, "velocity": 73, "duration": 239}, {"note": 74, "velocity": 75, "duration": 239}, {"note": 74, "velocity": 70, "duration": 202}, {"note": 0, "velocity": 0, "duration": 278}, {"note": 77, "velocity": 76, "duration": 245}, {"note": 79, "velocity": 85, "duration": 408}, {"note": 77, "velocity": 69, "duration": 120}, {"note": 74, "velocity": 85, "duration": 239}, {"note": 74, "velocity": 70, "duration": 240}, {"note": 72, "velocity": 85, "duration": 1920}, {"note": 74, "velocity": 73, "duration": 239}, {"note": 74, "velocity": 85, "duration": 240}, {"note": 72, "velocity": 91, "duration": 240}, {"note": 74, "velocity": 93, "duration": 240}, {"note": 77, "velocity": 70, "duration": 960}, {"note": 74, "velocity": 85, "duration": 240}, {"note": 72, "velocity": 58, "duration": 480}, {"note": 65, "velocity": 76, "duration": 316}, {"note": 67, "velocity": 69, "duration": 1200}, {"note": 72, "velocity": 70, "duration": 239}, {"note": 72, "velocity": 82, "duration": 240}, {"note": 74, "velocity": 62, "duration": 240}, {"note": 72, "velocity": 76, "duration": 251}, {"note": 70, "velocity": 80, "duration": 242}, {"note": 67, "velocity": 85, "duration": 240}, {"note": 70, "velocity": 91, "duration": 479}, {"note": 70, "velocity": 82, "duration": 1680}, {"note": 65, "velocity": 95, "duration": 239}, {"note": 65, "velocity": 95, "duration": 239}, {"note": 65, "velocity": 97, "duration": 263}, {"note": 67, "velocity": 93, "duration": 247}, {"note": 70, "velocity": 97, "duration": 346}, {"note": 70, "velocity": 95, "duration": 106}, {"note": 0, "velocity": 0, "duration": 614}, {"note": 67, "velocity": 99, "duration": 240}, {"note": 65, "velocity": 80, "duration": 240}, {"note": 62, "velocity": 88, "duration": 239}, {"note": 62, "velocity": 85, "duration": 292}, {"note": 65, "velocity": 95, "duration": 960}, {"note": 67, "velocity": 97, "duration": 239}, {"note": 67, "velocity": 88, "duration": 239}, {"note": 67, "velocity": 95, "duration": 240}, {"note": 70, "velocity": 63, "duration": 240}, {"note": 67, "velocity": 91, "duration": 254}, {"note": 65, "velocity": 97, "duration": 720}, {"note": 67, "velocity": 78, "duration": 260}, {"note": 65, "velocity": 91, "duration": 239}, {"note": 65, "velocity": 88, "duration": 240}, {"note": 58, "velocity": 97, "duration": 257}, {"note": 60, "velocity": 99, "duration": 960}, {"note": 74, "velocity": 88, "duration": 240}, {"note": 72, "velocity": 80, "duration": 239}, {"note": 72, "velocity": 82, "duration": 240}, {"note": 74, "velocity": 88, "duration": 240}, {"note": 77, "velocity": 69, "duration": 480}, {"note": 79, "velocity": 99, "duration": 480}, {"note": 74, "velocity": 97, "duration": 240}, {"note": 72, "velocity": 82, "duration": 239}, {"note": 72, "velocity": 91, "duration": 240}, {"note": 65, "velocity": 91, "duration": 276}, {"note": 67, "velocity": 85, "duration": 960}, {"note": 72, "velocity": 93, "duration": 239}, {"note": 72, "velocity": 93, "duration": 239}, {"note": 72, "velocity": 91, "duration": 240}, {"note": 74, "velocity": 93, "duration": 240}, {"note": 72, "velocity": 97, "duration": 240}, {"note": 70, "velocity": 91, "duration": 273}, {"note": 72, "velocity": 80, "duration": 260}, {"note": 74, "velocity": 88, "duration": 240}, {"note": 77, "velocity": 85, "duration": 1920}, {"note": 65, "velocity": 95, "duration": 239}, {"note": 65, "velocity": 95, "duration": 239}, {"note": 65, "velocity": 97, "duration": 263}, {"note": 67, "velocity": 93, "duration": 247}, {"note": 70, "velocity": 97, "duration": 346}, {"note": 70, "velocity": 95, "duration": 106}, {"note": 0, "velocity": 0, "duration": 614}, {"note": 67, "velocity": 99, "duration": 240}, {"note": 65, "velocity": 80, "duration": 240}, {"note": 62, "velocity": 88, "duration": 239}, {"note": 62, "velocity": 85, "duration": 292}, {"note": 65, "velocity": 95, "duration": 960}, {"note": 67, "velocity": 97, "duration": 239}, {"note": 67, "velocity": 88, "duration": 239}, {"note": 67, "velocity": 95, "duration": 240}, {"note": 70, "velocity": 63, "duration": 240}, {"note": 67, "velocity": 91, "duration": 254}, {"note": 65, "velocity": 97, "duration": 720}, {"note": 67, "velocity": 78, "duration": 260}, {"note": 65, "velocity": 91, "duration": 239}, {"note": 65, "velocity": 88, "duration": 240}, {"note": 58, "velocity": 97, "duration": 257}, {"note": 60, "velocity": 99, "duration": 960}, {"note": 74, "velocity": 88, "duration": 240}, {"note": 72, "velocity": 80, "duration": 239}, {"note": 72, "velocity": 82, "duration": 240}, {"note": 74, "velocity": 88, "duration": 240}, {"note": 77, "velocity": 69, "duration": 480}, {"note": 79, "velocity": 99, "duration": 480}, {"note": 74, "velocity": 97, "duration": 240}, {"note": 72, "velocity": 82, "duration": 239}, {"note": 72, "velocity": 91, "duration": 240}, {"note": 65, "velocity": 91, "duration": 276}, {"note": 67, "velocity": 85, "duration": 960}, {"note": 72, "velocity": 93, "duration": 239}, {"note": 72, "velocity": 93, "duration": 239}, {"note": 72, "velocity": 91, "duration": 240}, {"note": 74, "velocity": 93, "duration": 240}, {"note": 72, "velocity": 97, "duration": 240}, {"note": 70, "velocity": 85, "duration": 720}, {"note": 72, "velocity": 97, "duration": 240}, {"note": 70, "velocity": 85, "duration": 240}, {"note": 67, "velocity": 91, "duration": 291}, {"note": 70, "velocity": 85, "duration": 251}, {"note": 72, "velocity": 91, "duration": 274}, {"note": 70, "velocity": 82, "duration": 1680}, {"note": 0, "velocity": 0, "duration": 15360}, {"note": 70, "velocity": 93, "duration": 239}, {"note": 70, "velocity": 78, "duration": 239}, {"note": 70, "velocity": 66, "duration": 240}, {"note": 72, "velocity": 67, "duration": 260}, {"note": 74, "velocity": 67, "duration": 385}, {"note": 72, "velocity": 80, "duration": 248}, {"note": 70, "velocity": 88, "duration": 254}, {"note": 72, "velocity": 67, "duration": 240}, {"note": 67, "velocity": 95, "duration": 1920}, {"note": 70, "velocity": 85, "duration": 239}, {"note": 70, "velocity": 70, "duration": 239}, {"note": 70, "velocity": 66, "duration": 245}, {"note": 72, "velocity": 61, "duration": 240}, {"note": 74, "velocity": 75, "duration": 307}, {"note": 77, "velocity": 61, "duration": 240}, {"note": 74, "velocity": 75, "duration": 240}, {"note": 70, "velocity": 95, "duration": 254}, {"note": 72, "velocity": 76, "duration": 2674}, {"note": 74, "velocity": 88, "duration": 239}, {"note": 74, "velocity": 78, "duration": 240}, {"note": 72, "velocity": 72, "duration": 274}, {"note": 74, "velocity": 76, "duration": 240}, {"note": 77, "velocity": 76, "duration": 960}, {"note": 74, "velocity": 61, "duration": 240}, {"note": 72, "velocity": 70, "duration": 239}, {"note": 72, "velocity": 78, "duration": 240}, {"note": 65, "velocity": 80, "duration": 280}, {"note": 67, "velocity": 75, "duration": 960}, {"note": 72, "velocity": 75, "duration": 239}, {"note": 72, "velocity": 93, "duration": 239}, {"note": 72, "velocity": 85, "duration": 40}, {"note": 0, "velocity": 0, "duration": 440}, {"note": 74, "velocity": 76, "duration": 275}, {"note": 72, "velocity": 85, "duration": 959}, {"note": 72, "velocity": 85, "duration": 239}, {"note": 72, "velocity": 67, "duration": 240}, {"note": 70, "velocity": 76, "duration": 240}, {"note": 67, "velocity": 67, "duration": 289}, {"note": 70, "velocity": 73, "duration": 1920}, {"note": 65, "velocity": 59, "duration": 239}, {"note": 65, "velocity": 82, "duration": 510}, {"note": 67, "velocity": 61, "duration": 263}, {"note": 74, "velocity": 69, "duration": 483}, {"note": 72, "velocity": 73, "duration": 260}, {"note": 70, "velocity": 54, "duration": 249}, {"note": 72, "velocity": 93, "duration": 240}, {"note": 70, "velocity": 72, "duration": 239}, {"note": 70, "velocity": 58, "duration": 240}, {"note": 65, "velocity": 60, "duration": 240}, {"note": 70, "velocity": 73, "duration": 480}, {"note": 65, "velocity": 82, "duration": 164}, {"note": 67, "velocity": 60, "duration": 151}, {"note": 70, "velocity": 63, "duration": 157}, {"note": 72, "velocity": 66, "duration": 158}, {"note": 74, "velocity": 73, "duration": 239}, {"note": 74, "velocity": 75, "duration": 239}, {"note": 74, "velocity": 70, "duration": 202}, {"note": 0, "velocity": 0, "duration": 278}, {"note": 77, "velocity": 76, "duration": 245}, {"note": 79, "velocity": 85, "duration": 408}, {"note": 77, "velocity": 69, "duration": 120}, {"note": 74, "velocity": 85, "duration": 239}, {"note": 74, "velocity": 70, "duration": 240}, {"note": 72, "velocity": 85, "duration": 1920}, {"note": 74, "velocity": 73, "duration": 239}, {"note": 74, "velocity": 85, "duration": 240}, {"note": 72, "velocity": 91, "duration": 240}, {"note": 74, "velocity": 93, "duration": 240}, {"note": 77, "velocity": 70, "duration": 960}, {"note": 74, "velocity": 85, "duration": 240}, {"note": 72, "velocity": 58, "duration": 480}, {"note": 65, "velocity": 76, "duration": 316}, {"note": 67, "velocity": 69, "duration": 1200}, {"note": 72, "velocity": 70, "duration": 239}, {"note": 72, "velocity": 82, "duration": 240}, {"note": 74, "velocity": 62, "duration": 240}, {"note": 72, "velocity": 76, "duration": 251}, {"note": 70, "velocity": 80, "duration": 242}, {"note": 67, "velocity": 85, "duration": 240}, {"note": 70, "velocity": 91, "duration": 479}, {"note": 70, "velocity": 82, "duration": 1680}, {"note": 65, "velocity": 95, "duration": 239}, {"note": 65, "velocity": 95, "duration": 239}, {"note": 65, "velocity": 97, "duration": 263}, {"note": 67, "velocity": 93, "duration": 247}, {"note": 70, "velocity": 97, "duration": 346}, {"note": 70, "velocity": 95, "duration": 106}, {"note": 0, "velocity": 0, "duration": 614}, {"note": 67, "velocity": 99, "duration": 240}, {"note": 65, "velocity": 80, "duration": 240}, {"note": 62, "velocity": 88, "duration": 239}, {"note": 62, "velocity": 85, "duration": 292}, {"note": 65, "velocity": 95, "duration": 960}, {"note": 67, "velocity": 97, "duration": 239}, {"note": 67, "velocity": 88, "duration": 239}, {"note": 67, "velocity": 95, "duration": 240}, {"note": 70, "velocity": 63, "duration": 240}, {"note": 67, "velocity": 91, "duration": 254}, {"note": 65, "velocity": 97, "duration": 720}, {"note": 67, "velocity": 78, "duration": 260}, {"note": 65, "velocity": 91, "duration": 239}, {"note": 65, "velocity": 88, "duration": 240}, {"note": 58, "velocity": 97, "duration": 257}, {"note": 60, "velocity": 99, "duration": 960}, {"note": 74, "velocity": 88, "duration": 240}, {"note": 72, "velocity": 80, "duration": 239}, {"note": 72, "velocity": 82, "duration": 240}, {"note": 74, "velocity": 88, "duration": 240}, {"note": 77, "velocity": 69, "duration": 480}, {"note": 79, "velocity": 99, "duration": 480}, {"note": 74, "velocity": 97, "duration": 240}, {"note": 72, "velocity": 82, "duration": 239}, {"note": 72, "velocity": 91, "duration": 240}, {"note": 65, "velocity": 91, "duration": 276}, {"note": 67, "velocity": 85, "duration": 960}, {"note": 72, "velocity": 93, "duration": 239}, {"note": 72, "velocity": 93, "duration": 239}, {"note": 72, "velocity": 91, "duration": 240}, {"note": 74, "velocity": 93, "duration": 240}, {"note": 72, "velocity": 97, "duration": 240}, {"note": 70, "velocity": 91, "duration": 273}, {"note": 72, "velocity": 80, "duration": 260}, {"note": 74, "velocity": 88, "duration": 240}, {"note": 77, "velocity": 85, "duration": 1920}, {"note": 65, "velocity": 95, "duration": 239}, {"note": 65, "velocity": 95, "duration": 239}, {"note": 65, "velocity": 97, "duration": 263}, {"note": 67, "velocity": 93, "duration": 247}, {"note": 70, "velocity": 97, "duration": 346}, {"note": 70, "velocity": 95, "duration": 106}, {"note": 0, "velocity": 0, "duration": 614}, {"note": 67, "velocity": 99, "duration": 240}, {"note": 65, "velocity": 80, "duration": 240}, {"note": 62, "velocity": 88, "duration": 239}, {"note": 62, "velocity": 85, "duration": 292}, {"note": 65, "velocity": 95, "duration": 960}, {"note": 67, "velocity": 97, "duration": 239}, {"note": 67, "velocity": 88, "duration": 239}, {"note": 67, "velocity": 95, "duration": 240}, {"note": 70, "velocity": 63, "duration": 240}, {"note": 67, "velocity": 91, "duration": 254}, {"note": 65, "velocity": 97, "duration": 720}, {"note": 67, "velocity": 78, "duration": 260}, {"note": 65, "velocity": 91, "duration": 239}, {"note": 65, "velocity": 88, "duration": 240}, {"note": 58, "velocity": 97, "duration": 257}, {"note": 60, "velocity": 99, "duration": 960}, {"note": 74, "velocity": 88, "duration": 240}, {"note": 72, "velocity": 80, "duration": 239}, {"note": 72, "velocity": 82, "duration": 240}, {"note": 74, "velocity": 88, "duration": 240}, {"note": 77, "velocity": 69, "duration": 480}, {"note": 79, "velocity": 99, "duration": 480}, {"note": 74, "velocity": 97, "duration": 240}, {"note": 72, "velocity": 82, "duration": 239}, {"note": 72, "velocity": 91, "duration": 240}, {"note": 65, "velocity": 91, "duration": 276}, {"note": 67, "velocity": 85, "duration": 960}, {"note": 72, "velocity": 93, "duration": 239}, {"note": 72, "velocity": 93, "duration": 239}, {"note": 72, "velocity": 91, "duration": 240}, {"note": 74, "velocity": 93, "duration": 240}, {"note": 72, "velocity": 97, "duration": 240}, {"note": 70, "velocity": 85, "duration": 720}, {"note": 72, "velocity": 97, "duration": 240}, {"note": 70, "velocity": 85, "duration": 240}, {"note": 67, "velocity": 91, "duration": 291}, {"note": 70, "velocity": 85, "duration": 251}, {"note": 72, "velocity": 91, "duration": 274}, {"note": 70, "velocity": 82, "duration": 1680}, {"note": 65, "velocity": 95, "duration": 239}, {"note": 65, "velocity": 95, "duration": 239}, {"note": 65, "velocity": 97, "duration": 263}, {"note": 67, "velocity": 93, "duration": 247}, {"note": 70, "velocity": 97, "duration": 346}, {"note": 70, "velocity": 95, "duration": 106}, {"note": 0, "velocity": 0, "duration": 614}, {"note": 67, "velocity": 99, "duration": 240}, {"note": 65, "velocity": 80, "duration": 240}, {"note": 62, "velocity": 88, "duration": 239}, {"note": 62, "velocity": 85, "duration": 292}, {"note": 65, "velocity": 95, "duration": 960}, {"note": 67, "velocity": 97, "duration": 239}, {"note": 67, "velocity": 88, "duration": 239}, {"note": 67, "velocity": 95, "duration": 240}, {"note": 70, "velocity": 63, "duration": 240}, {"note": 67, "velocity": 91, "duration": 254}, {"note": 65, "velocity": 97, "duration": 720}, {"note": 67, "velocity": 78, "duration": 260}, {"note": 65, "velocity": 91, "duration": 239}, {"note": 65, "velocity": 88, "duration": 240}, {"note": 58, "velocity": 97, "duration": 257}, {"note": 60, "velocity": 99, "duration": 960}, {"note": 74, "velocity": 88, "duration": 240}, {"note": 72, "velocity": 80, "duration": 239}, {"note": 72, "velocity": 82, "duration": 240}, {"note": 74, "velocity": 88, "duration": 240}, {"note": 77, "velocity": 69, "duration": 480}, {"note": 79, "velocity": 99, "duration": 480}, {"note": 74, "velocity": 97, "duration": 240}, {"note": 72, "velocity": 82, "duration": 239}, {"note": 72, "velocity": 91, "duration": 240}, {"note": 65, "velocity": 91, "duration": 276}, {"note": 67, "velocity": 85, "duration": 960}, {"note": 72, "velocity": 93, "duration": 239}, {"note": 72, "velocity": 93, "duration": 239}, {"note": 72, "velocity": 91, "duration": 240}, {"note": 74, "velocity": 93, "duration": 240}, {"note": 72, "velocity": 97, "duration": 240}, {"note": 70, "velocity": 85, "duration": 720}, {"note": 72, "velocity": 97, "duration": 240}, {"note": 70, "velocity": 85, "duration": 240}, {"note": 67, "velocity": 91, "duration": 291}, {"note": 70, "velocity": 85, "duration": 251}, {"note": 72, "velocity": 91, "duration": 274}, {"note": 70, "velocity": 82, "duration": 1680}, {"note": 72, "velocity": 97, "duration": 239}, {"note": 72, "velocity": 91, "duration": 239}, {"note": 72, "velocity": 85, "duration": 257}, {"note": 74, "velocity": 80, "duration": 310}, {"note": 72, "velocity": 82, "duration": 290}, {"note": 70, "velocity": 82, "duration": 840}, {"note": 72, "velocity": 93, "duration": 360}, {"note": 70, "velocity": 73, "duration": 360}, {"note": 65, "velocity": 72, "duration": 314}, {"note": 70, "velocity": 80, "duration": 296}, {"note": 72, "velocity": 78, "duration": 720}, {"note": 70, "velocity": 82, "duration": 2760}]]