[[{"note": 65, "velocity": 61, "duration": 129}, {"note": 68, "velocity": 56, "duration": 155}, {"note": 70, "velocity": 64, "duration": 239}, {"note": 70, "velocity": 65, "duration": 239}, {"note": 70, "velocity": 64, "duration": 120}, {"note": 68, "velocity": 62, "duration": 360}, {"note": 70, "velocity": 72, "duration": 719}, {"note": 70, "velocity": 64, "duration": 123}, {"note": 73, "velocity": 66, "duration": 119}, {"note": 73, "velocity": 75, "duration": 240}, {"note": 70, "velocity": 82, "duration": 240}, {"note": 65, "velocity": 81, "duration": 240}, {"note": 63, "velocity": 66, "duration": 243}, {"note": 65, "velocity": 74, "duration": 719}, {"note": 65, "velocity": 89, "duration": 120}, {"note": 68, "velocity": 90, "duration": 133}, {"note": 63, "velocity": 86, "duration": 239}, {"note": 63, "velocity": 91, "duration": 239}, {"note": 63, "velocity": 87, "duration": 136}, {"note": 61, "velocity": 67, "duration": 360}, {"note": 65, "velocity": 91, "duration": 719}, {"note": 65, "velocity": 67, "duration": 141}, {"note": 68, "velocity": 83, "duration": 135}, {"note": 70, "velocity": 87, "duration": 240}, {"note": 73, "velocity": 90, "duration": 240}, {"note": 70, "velocity": 91, "duration": 240}, {"note": 68, "velocity": 87, "duration": 266}, {"note": 70, "velocity": 99, "duration": 960}, {"note": 75, "velocity": 98, "duration": 239}, {"note": 75, "velocity": 93, "duration": 239}, {"note": 75, "velocity": 90, "duration": 126}, {"note": 73, "velocity": 77, "duration": 363}, {"note": 77, "velocity": 105, "duration": 719}, {"note": 77, "velocity": 97, "duration": 150}, {"note": 75, "velocity": 91, "duration": 120}, {"note": 73, "velocity": 93, "duration": 239}, {"note": 73, "velocity": 95, "duration": 239}, {"note": 73, "velocity": 90, "duration": 144}, {"note": 75, "velocity": 93, "duration": 360}, {"note": 73, "velocity": 100, "duration": 173}, {"note": 70, "velocity": 74, "duration": 600}, {"note": 77, "velocity": 96, "duration": 239}, {"note": 77, "velocity": 95, "duration": 129}, {"note": 75, "velocity": 90, "duration": 600}, {"note": 73, "velocity": 98, "duration": 240}, {"note": 70, "velocity": 90, "duration": 480}, {"note": 68, "velocity": 91, "duration": 240}, {"note": 73, "velocity": 93, "duration": 480}, {"note": 70, "velocity": 94, "duration": 1440}, {"note": 73, "velocity": 93, "duration": 129}, {"note": 75, "velocity": 84, "duration": 120}, {"note": 77, "velocity": 96, "duration": 239}, {"note": 77, "velocity": 93, "duration": 239}, {"note": 77, "velocity": 95, "duration": 119}, {"note": 77, "velocity": 95, "duration": 373}, {"note": 75, "velocity": 99, "duration": 719}, {"note": 75, "velocity": 68, "duration": 120}, {"note": 77, "velocity": 48, "duration": 165}, {"note": 73, "velocity": 64, "duration": 240}, {"note": 70, "velocity": 66, "duration": 119}, {"note": 70, "velocity": 57, "duration": 119}, {"note": 70, "velocity": 56, "duration": 119}, {"note": 70, "velocity": 56, "duration": 120}, {"note": 68, "velocity": 58, "duration": 120}, {"note": 70, "velocity": 63, "duration": 840}, {"note": 73, "velocity": 92, "duration": 130}, {"note": 75, "velocity": 86, "duration": 120}, {"note": 77, "velocity": 91, "duration": 239}, {"note": 77, "velocity": 90, "duration": 119}, {"note": 77, "velocity": 91, "duration": 119}, {"note": 77, "velocity": 86, "duration": 119}, {"note": 77, "velocity": 92, "duration": 240}, {"note": 75, "velocity": 84, "duration": 839}, {"note": 75, "velocity": 93, "duration": 120}, {"note": 77, "velocity": 81, "duration": 120}, {"note": 73, "velocity": 91, "duration": 240}, {"note": 70, "velocity": 87, "duration": 240}, {"note": 73, "velocity": 95, "duration": 120}, {"note": 75, "velocity": 96, "duration": 360}, {"note": 77, "velocity": 96, "duration": 720}, {"note": 73, "velocity": 99, "duration": 120}, {"note": 75, "velocity": 90, "duration": 120}, {"note": 77, "velocity": 97, "duration": 360}, {"note": 80, "velocity": 91, "duration": 360}, {"note": 77, "velocity": 101, "duration": 360}, {"note": 75, "velocity": 101, "duration": 599}, {"note": 75, "velocity": 103, "duration": 120}, {"note": 77, "velocity": 90, "duration": 154}, {"note": 73, "velocity": 97, "duration": 240}, {"note": 70, "velocity": 93, "duration": 239}, {"note": 70, "velocity": 97, "duration": 239}, {"note": 70, "velocity": 84, "duration": 120}, {"note": 68, "velocity": 95, "duration": 240}, {"note": 70, "velocity": 95, "duration": 120}, {"note": 68, "velocity": 100, "duration": 120}, {"note": 65, "velocity": 81, "duration": 600}, {"note": 63, "velocity": 91, "duration": 239}, {"note": 63, "velocity": 90, "duration": 239}, {"note": 63, "velocity": 93, "duration": 240}, {"note": 61, "velocity": 68, "duration": 120}, {"note": 63, "velocity": 82, "duration": 273}, {"note": 65, "velocity": 90, "duration": 599}, {"note": 65, "velocity": 90, "duration": 120}, {"note": 68, "velocity": 86, "duration": 120}, {"note": 70, "velocity": 91, "duration": 360}, {"note": 73, "velocity": 90, "duration": 960}, {"note": 72, "velocity": 85, "duration": 600}, {"note": 68, "velocity": 94, "duration": 449}, {"note": 70, "velocity": 71, "duration": 1560}, {"note": 0, "velocity": 0, "duration": 17040}, {"note": 65, "velocity": 61, "duration": 129}, {"note": 68, "velocity": 56, "duration": 155}, {"note": 70, "velocity": 64, "duration": 239}, {"note": 70, "velocity": 65, "duration": 239}, {"note": 70, "velocity": 64, "duration": 120}, {"note": 68, "velocity": 62, "duration": 360}, {"note": 70, "velocity": 72, "duration": 719}, {"note": 70, "velocity": 64, "duration": 123}, {"note": 73, "velocity": 66, "duration": 119}, {"note": 73, "velocity": 75, "duration": 240}, {"note": 70, "velocity": 82, "duration": 240}, {"note": 65, "velocity": 81, "duration": 240}, {"note": 63, "velocity": 66, "duration": 243}, {"note": 65, "velocity": 74, "duration": 719}, {"note": 65, "velocity": 89, "duration": 120}, {"note": 68, "velocity": 90, "duration": 133}, {"note": 63, "velocity": 86, "duration": 239}, {"note": 63, "velocity": 91, "duration": 239}, {"note": 63, "velocity": 87, "duration": 136}, {"note": 61, "velocity": 67, "duration": 360}, {"note": 65, "velocity": 91, "duration": 719}, {"note": 65, "velocity": 67, "duration": 141}, {"note": 68, "velocity": 83, "duration": 135}, {"note": 70, "velocity": 87, "duration": 240}, {"note": 73, "velocity": 90, "duration": 240}, {"note": 70, "velocity": 91, "duration": 240}, {"note": 68, "velocity": 87, "duration": 266}, {"note": 70, "velocity": 99, "duration": 960}, {"note": 75, "velocity": 98, "duration": 239}, {"note": 75, "velocity": 93, "duration": 239}, {"note": 75, "velocity": 90, "duration": 126}, {"note": 73, "velocity": 77, "duration": 363}, {"note": 77, "velocity": 105, "duration": 719}, {"note": 77, "velocity": 97, "duration": 150}, {"note": 75, "velocity": 91, "duration": 120}, {"note": 73, "velocity": 93, "duration": 239}, {"note": 73, "velocity": 95, "duration": 239}, {"note": 73, "velocity": 90, "duration": 144}, {"note": 75, "velocity": 93, "duration": 360}, {"note": 73, "velocity": 100, "duration": 173}, {"note": 70, "velocity": 74, "duration": 600}, {"note": 77, "velocity": 96, "duration": 239}, {"note": 77, "velocity": 95, "duration": 129}, {"note": 75, "velocity": 90, "duration": 600}, {"note": 73, "velocity": 98, "duration": 240}, {"note": 70, "velocity": 90, "duration": 480}, {"note": 68, "velocity": 91, "duration": 240}, {"note": 73, "velocity": 93, "duration": 480}, {"note": 70, "velocity": 94, "duration": 1440}, {"note": 73, "velocity": 93, "duration": 129}, {"note": 75, "velocity": 84, "duration": 120}, {"note": 77, "velocity": 96, "duration": 239}, {"note": 77, "velocity": 93, "duration": 239}, {"note": 77, "velocity": 95, "duration": 119}, {"note": 77, "velocity": 95, "duration": 373}, {"note": 75, "velocity": 99, "duration": 719}, {"note": 75, "velocity": 68, "duration": 120}, {"note": 77, "velocity": 48, "duration": 165}, {"note": 73, "velocity": 64, "duration": 240}, {"note": 70, "velocity": 66, "duration": 119}, {"note": 70, "velocity": 57, "duration": 119}, {"note": 70, "velocity": 56, "duration": 119}, {"note": 70, "velocity": 56, "duration": 120}, {"note": 68, "velocity": 58, "duration": 120}, {"note": 70, "velocity": 63, "duration": 840}, {"note": 73, "velocity": 92, "duration": 130}, {"note": 75, "velocity": 86, "duration": 120}, {"note": 77, "velocity": 91, "duration": 239}, {"note": 77, "velocity": 90, "duration": 119}, {"note": 77, "velocity": 91, "duration": 119}, {"note": 77, "velocity": 86, "duration": 119}, {"note": 77, "velocity": 92, "duration": 240}, {"note": 75, "velocity": 84, "duration": 839}, {"note": 75, "velocity": 93, "duration": 120}, {"note": 77, "velocity": 81, "duration": 120}, {"note": 73, "velocity": 91, "duration": 240}, {"note": 70, "velocity": 87, "duration": 240}, {"note": 73, "velocity": 95, "duration": 120}, {"note": 75, "velocity": 96, "duration": 360}, {"note": 77, "velocity": 96, "duration": 720}, {"note": 73, "velocity": 99, "duration": 120}, {"note": 75, "velocity": 90, "duration": 120}, {"note": 77, "velocity": 97, "duration": 360}, {"note": 80, "velocity": 91, "duration": 360}, {"note": 77, "velocity": 101, "duration": 360}, {"note": 75, "velocity": 101, "duration": 599}, {"note": 75, "velocity": 103, "duration": 120}, {"note": 77, "velocity": 90, "duration": 154}, {"note": 73, "velocity": 97, "duration": 240}, {"note": 70, "velocity": 93, "duration": 239}, {"note": 70, "velocity": 97, "duration": 239}, {"note": 70, "velocity": 84, "duration": 120}, {"note": 68, "velocity": 95, "duration": 240}, {"note": 70, "velocity": 95, "duration": 120}, {"note": 68, "velocity": 100, "duration": 120}, {"note": 65, "velocity": 81, "duration": 600}, {"note": 63, "velocity": 91, "duration": 239}, {"note": 63, "velocity": 90, "duration": 239}, {"note": 63, "velocity": 93, "duration": 240}, {"note": 61, "velocity": 68, "duration": 120}, {"note": 63, "velocity": 82, "duration": 273}, {"note": 65, "velocity": 90, "duration": 599}, {"note": 65, "velocity": 90, "duration": 120}, {"note": 68, "velocity": 86, "duration": 120}, {"note": 70, "velocity": 91, "duration": 360}, {"note": 73, "velocity": 90, "duration": 1080}, {"note": 72, "velocity": 85, "duration": 480}, {"note": 68, "velocity": 94, "duration": 360}, {"note": 70, "velocity": 71, "duration": 3240}, {"note": 73, "velocity": 93, "duration": 129}, {"note": 75, "velocity": 84, "duration": 120}, {"note": 77, "velocity": 96, "duration": 239}, {"note": 77, "velocity": 93, "duration": 239}, {"note": 77, "velocity": 95, "duration": 119}, {"note": 77, "velocity": 95, "duration": 373}, {"note": 75, "velocity": 99, "duration": 719}, {"note": 75, "velocity": 68, "duration": 120}, {"note": 77, "velocity": 48, "duration": 165}, {"note": 73, "velocity": 64, "duration": 240}, {"note": 70, "velocity": 66, "duration": 119}, {"note": 70, "velocity": 57, "duration": 119}, {"note": 70, "velocity": 56, "duration": 119}, {"note": 70, "velocity": 56, "duration": 120}, {"note": 68, "velocity": 58, "duration": 120}, {"note": 70, "velocity": 63, "duration": 840}, {"note": 73, "velocity": 92, "duration": 130}, {"note": 75, "velocity": 86, "duration": 120}, {"note": 77, "velocity": 91, "duration": 239}, {"note": 77, "velocity": 90, "duration": 119}, {"note": 77, "velocity": 91, "duration": 119}, {"note": 77, "velocity": 86, "duration": 119}, {"note": 77, "velocity": 92, "duration": 240}, {"note": 75, "velocity": 84, "duration": 839}, {"note": 75, "velocity": 93, "duration": 120}, {"note": 77, "velocity": 81, "duration": 120}, {"note": 73, "velocity": 91, "duration": 240}, {"note": 70, "velocity": 87, "duration": 240}, {"note": 73, "velocity": 95, "duration": 120}, {"note": 75, "velocity": 96, "duration": 360}, {"note": 77, "velocity": 96, "duration": 720}, {"note": 73, "velocity": 99, "duration": 120}, {"note": 75, "velocity": 90, "duration": 120}, {"note": 77, "velocity": 97, "duration": 360}, {"note": 80, "velocity": 91, "duration": 360}, {"note": 77, "velocity": 101, "duration": 360}, {"note": 75, "velocity": 101, "duration": 599}, {"note": 75, "velocity": 103, "duration": 120}, {"note": 77, "velocity": 90, "duration": 154}, {"note": 73, "velocity": 97, "duration": 240}, {"note": 70, "velocity": 93, "duration": 239}, {"note": 70, "velocity": 97, "duration": 239}, {"note": 70, "velocity": 84, "duration": 120}, {"note": 68, "velocity": 95, "duration": 240}, {"note": 70, "velocity": 95, "duration": 120}, {"note": 68, "velocity": 100, "duration": 120}, {"note": 65, "velocity": 81, "duration": 600}, {"note": 63, "velocity": 91, "duration": 239}, {"note": 63, "velocity": 90, "duration": 239}, {"note": 63, "velocity": 93, "duration": 240}, {"note": 61, "velocity": 68, "duration": 120}, {"note": 63, "velocity": 82, "duration": 273}, {"note": 65, "velocity": 90, "duration": 599}, {"note": 65, "velocity": 90, "duration": 120}, {"note": 68, "velocity": 86, "duration": 120}, {"note": 70, "velocity": 91, "duration": 360}, {"note": 73, "velocity": 90, "duration": 1080}, {"note": 72, "velocity": 85, "duration": 480}, {"note": 65, "velocity": 94, "duration": 360}, {"note": 70, "velocity": 71, "duration": 1560}]]