[[{"note": 70, "velocity": 88, "duration": 260}, {"note": 69, "velocity": 88, "duration": 239}, {"note": 69, "velocity": 88, "duration": 239}, {"note": 69, "velocity": 88, "duration": 239}, {"note": 69, "velocity": 88, "duration": 239}, {"note": 69, "velocity": 88, "duration": 240}, {"note": 67, "velocity": 88, "duration": 269}, {"note": 69, "velocity": 88, "duration": 480}, {"note": 70, "velocity": 88, "duration": 240}, {"note": 69, "velocity": 88, "duration": 480}, {"note": 67, "velocity": 88, "duration": 479}, {"note": 67, "velocity": 88, "duration": 480}, {"note": 65, "velocity": 88, "duration": 239}, {"note": 65, "velocity": 88, "duration": 239}, {"note": 65, "velocity": 88, "duration": 239}, {"note": 65, "velocity": 91, "duration": 239}, {"note": 65, "velocity": 91, "duration": 239}, {"note": 65, "velocity": 92, "duration": 240}, {"note": 63, "velocity": 92, "duration": 240}, {"note": 65, "velocity": 92, "duration": 480}, {"note": 67, "velocity": 92, "duration": 240}, {"note": 65, "velocity": 92, "duration": 480}, {"note": 63, "velocity": 92, "duration": 479}, {"note": 63, "velocity": 92, "duration": 498}, {"note": 62, "velocity": 92, "duration": 239}, {"note": 62, "velocity": 92, "duration": 240}, {"note": 60, "velocity": 92, "duration": 239}, {"note": 60, "velocity": 92, "duration": 720}, {"note": 70, "velocity": 92, "duration": 480}, {"note": 69, "velocity": 92, "duration": 480}, {"note": 70, "velocity": 92, "duration": 480}, {"note": 69, "velocity": 92, "duration": 487}, {"note": 67, "velocity": 92, "duration": 4320}, {"note": 69, "velocity": 92, "duration": 239}, {"note": 69, "velocity": 92, "duration": 239}, {"note": 69, "velocity": 92, "duration": 239}, {"note": 69, "velocity": 92, "duration": 239}, {"note": 69, "velocity": 92, "duration": 239}, {"note": 69, "velocity": 92, "duration": 264}, {"note": 67, "velocity": 92, "duration": 271}, {"note": 69, "velocity": 92, "duration": 505}, {"note": 70, "velocity": 92, "duration": 240}, {"note": 69, "velocity": 93, "duration": 480}, {"note": 67, "velocity": 93, "duration": 479}, {"note": 67, "velocity": 93, "duration": 480}, {"note": 65, "velocity": 93, "duration": 239}, {"note": 65, "velocity": 94, "duration": 239}, {"note": 65, "velocity": 94, "duration": 239}, {"note": 65, "velocity": 94, "duration": 239}, {"note": 65, "velocity": 94, "duration": 239}, {"note": 65, "velocity": 94, "duration": 240}, {"note": 63, "velocity": 94, "duration": 240}, {"note": 65, "velocity": 94, "duration": 497}, {"note": 67, "velocity": 94, "duration": 240}, {"note": 65, "velocity": 95, "duration": 511}, {"note": 63, "velocity": 95, "duration": 479}, {"note": 63, "velocity": 95, "duration": 480}, {"note": 62, "velocity": 95, "duration": 239}, {"note": 62, "velocity": 95, "duration": 240}, {"note": 60, "velocity": 95, "duration": 239}, {"note": 60, "velocity": 95, "duration": 720}, {"note": 70, "velocity": 96, "duration": 480}, {"note": 69, "velocity": 95, "duration": 480}, {"note": 70, "velocity": 98, "duration": 501}, {"note": 69, "velocity": 90, "duration": 483}, {"note": 67, "velocity": 93, "duration": 3599}, {"note": 67, "velocity": 65, "duration": 240}, {"note": 70, "velocity": 74, "duration": 240}, {"note": 74, "velocity": 85, "duration": 960}, {"note": 72, "velocity": 87, "duration": 960}, {"note": 67, "velocity": 80, "duration": 720}, {"note": 70, "velocity": 105, "duration": 239}, {"note": 70, "velocity": 95, "duration": 960}, {"note": 74, "velocity": 105, "duration": 960}, {"note": 72, "velocity": 101, "duration": 960}, {"note": 67, "velocity": 90, "duration": 759}, {"note": 74, "velocity": 97, "duration": 239}, {"note": 74, "velocity": 100, "duration": 719}, {"note": 74, "velocity": 93, "duration": 239}, {"note": 74, "velocity": 89, "duration": 240}, {"note": 72, "velocity": 72, "duration": 239}, {"note": 72, "velocity": 68, "duration": 267}, {"note": 70, "velocity": 56, "duration": 239}, {"note": 70, "velocity": 63, "duration": 720}, {"note": 72, "velocity": 90, "duration": 239}, {"note": 72, "velocity": 84, "duration": 240}, {"note": 70, "velocity": 73, "duration": 239}, {"note": 70, "velocity": 66, "duration": 245}, {"note": 69, "velocity": 62, "duration": 239}, {"note": 69, "velocity": 66, "duration": 480}, {"note": 67, "velocity": 71, "duration": 240}, {"note": 69, "velocity": 90, "duration": 3120}, {"note": 67, "velocity": 90, "duration": 360}, {"note": 70, "velocity": 84, "duration": 360}, {"note": 74, "velocity": 85, "duration": 240}, {"note": 79, "velocity": 87, "duration": 1440}, {"note": 81, "velocity": 93, "duration": 239}, {"note": 81, "velocity": 94, "duration": 1200}, {"note": 77, "velocity": 103, "duration": 360}, {"note": 72, "velocity": 91, "duration": 360}, {"note": 69, "velocity": 84, "duration": 240}, {"note": 72, "velocity": 98, "duration": 1200}, {"note": 77, "velocity": 97, "duration": 480}, {"note": 74, "velocity": 100, "duration": 1200}, {"note": 67, "velocity": 79, "duration": 373}, {"note": 70, "velocity": 87, "duration": 360}, {"note": 74, "velocity": 79, "duration": 260}, {"note": 79, "velocity": 73, "duration": 1200}, {"note": 74, "velocity": 87, "duration": 480}, {"note": 70, "velocity": 63, "duration": 292}, {"note": 72, "velocity": 85, "duration": 959}, {"note": 72, "velocity": 101, "duration": 367}, {"note": 77, "velocity": 89, "duration": 480}, {"note": 72, "velocity": 85, "duration": 239}, {"note": 72, "velocity": 93, "duration": 480}, {"note": 74, "velocity": 99, "duration": 239}, {"note": 74, "velocity": 97, "duration": 2160}, {"note": 67, "velocity": 91, "duration": 395}, {"note": 70, "velocity": 95, "duration": 360}, {"note": 74, "velocity": 96, "duration": 240}, {"note": 79, "velocity": 90, "duration": 1200}, {"note": 81, "velocity": 103, "duration": 479}, {"note": 81, "velocity": 96, "duration": 200}, {"note": 82, "velocity": 90, "duration": 122}, {"note": 81, "velocity": 66, "duration": 960}, {"note": 77, "velocity": 93, "duration": 360}, {"note": 72, "velocity": 84, "duration": 240}, {"note": 69, "velocity": 66, "duration": 360}, {"note": 72, "velocity": 90, "duration": 1200}, {"note": 77, "velocity": 87, "duration": 480}, {"note": 74, "velocity": 91, "duration": 360}, {"note": 72, "velocity": 80, "duration": 120}, {"note": 70, "velocity": 66, "duration": 720}, {"note": 67, "velocity": 74, "duration": 360}, {"note": 70, "velocity": 91, "duration": 240}, {"note": 74, "velocity": 93, "duration": 360}, {"note": 79, "velocity": 94, "duration": 1200}, {"note": 74, "velocity": 103, "duration": 720}, {"note": 72, "velocity": 98, "duration": 959}, {"note": 72, "velocity": 108, "duration": 360}, {"note": 77, "velocity": 94, "duration": 368}, {"note": 72, "velocity": 97, "duration": 239}, {"note": 72, "velocity": 105, "duration": 480}, {"note": 74, "velocity": 97, "duration": 239}, {"note": 74, "velocity": 99, "duration": 284}, {"note": 74, "velocity": 91, "duration": 240}, {"note": 72, "velocity": 90, "duration": 240}, {"note": 70, "velocity": 95, "duration": 973}, {"note": 74, "velocity": 96, "duration": 240}, {"note": 72, "velocity": 84, "duration": 240}, {"note": 70, "velocity": 85, "duration": 720}, {"note": 74, "velocity": 87, "duration": 240}, {"note": 69, "velocity": 93, "duration": 719}, {"note": 69, "velocity": 98, "duration": 240}, {"note": 67, "velocity": 93, "duration": 3360}, {"note": 74, "velocity": 91, "duration": 247}, {"note": 72, "velocity": 84, "duration": 284}, {"note": 70, "velocity": 94, "duration": 1440}, {"note": 74, "velocity": 99, "duration": 240}, {"note": 72, "velocity": 94, "duration": 240}, {"note": 70, "velocity": 92, "duration": 720}, {"note": 74, "velocity": 97, "duration": 245}, {"note": 69, "velocity": 96, "duration": 719}, {"note": 69, "velocity": 95, "duration": 720}, {"note": 67, "velocity": 94, "duration": 3120}, {"note": 0, "velocity": 0, "duration": 23280}, {"note": 70, "velocity": 86, "duration": 260}, {"note": 69, "velocity": 86, "duration": 239}, {"note": 69, "velocity": 87, "duration": 239}, {"note": 69, "velocity": 89, "duration": 239}, {"note": 69, "velocity": 90, "duration": 480}, {"note": 67, "velocity": 92, "duration": 480}, {"note": 70, "velocity": 93, "duration": 240}, {"note": 69, "velocity": 94, "duration": 359}, {"note": 69, "velocity": 96, "duration": 360}, {"note": 67, "velocity": 96, "duration": 479}, {"note": 67, "velocity": 97, "duration": 480}, {"note": 65, "velocity": 99, "duration": 239}, {"note": 65, "velocity": 99, "duration": 239}, {"note": 65, "velocity": 100, "duration": 239}, {"note": 65, "velocity": 100, "duration": 239}, {"note": 65, "velocity": 100, "duration": 239}, {"note": 65, "velocity": 100, "duration": 240}, {"note": 63, "velocity": 100, "duration": 240}, {"note": 65, "velocity": 100, "duration": 480}, {"note": 67, "velocity": 100, "duration": 240}, {"note": 65, "velocity": 100, "duration": 480}, {"note": 63, "velocity": 101, "duration": 599}, {"note": 63, "velocity": 102, "duration": 360}, {"note": 62, "velocity": 103, "duration": 239}, {"note": 62, "velocity": 104, "duration": 240}, {"note": 60, "velocity": 104, "duration": 239}, {"note": 60, "velocity": 102, "duration": 720}, {"note": 70, "velocity": 102, "duration": 480}, {"note": 69, "velocity": 100, "duration": 480}, {"note": 70, "velocity": 97, "duration": 480}, {"note": 69, "velocity": 99, "duration": 488}, {"note": 67, "velocity": 77, "duration": 4320}, {"note": 69, "velocity": 99, "duration": 239}, {"note": 69, "velocity": 99, "duration": 239}, {"note": 69, "velocity": 100, "duration": 239}, {"note": 69, "velocity": 101, "duration": 239}, {"note": 69, "velocity": 101, "duration": 239}, {"note": 69, "velocity": 102, "duration": 265}, {"note": 67, "velocity": 102, "duration": 272}, {"note": 69, "velocity": 102, "duration": 506}, {"note": 74, "velocity": 103, "duration": 240}, {"note": 69, "velocity": 104, "duration": 480}, {"note": 67, "velocity": 104, "duration": 479}, {"note": 67, "velocity": 104, "duration": 480}, {"note": 65, "velocity": 104, "duration": 239}, {"note": 65, "velocity": 105, "duration": 239}, {"note": 65, "velocity": 105, "duration": 239}, {"note": 65, "velocity": 105, "duration": 239}, {"note": 65, "velocity": 105, "duration": 239}, {"note": 65, "velocity": 106, "duration": 240}, {"note": 63, "velocity": 95, "duration": 240}, {"note": 65, "velocity": 95, "duration": 498}, {"note": 67, "velocity": 95, "duration": 240}, {"note": 65, "velocity": 95, "duration": 512}, {"note": 63, "velocity": 95, "duration": 479}, {"note": 63, "velocity": 95, "duration": 480}, {"note": 62, "velocity": 96, "duration": 239}, {"note": 62, "velocity": 96, "duration": 359}, {"note": 60, "velocity": 96, "duration": 239}, {"note": 60, "velocity": 96, "duration": 720}, {"note": 70, "velocity": 96, "duration": 480}, {"note": 69, "velocity": 96, "duration": 480}, {"note": 70, "velocity": 96, "duration": 502}, {"note": 69, "velocity": 96, "duration": 484}, {"note": 67, "velocity": 98, "duration": 3359}, {"note": 67, "velocity": 99, "duration": 240}, {"note": 70, "velocity": 99, "duration": 480}, {"note": 74, "velocity": 99, "duration": 960}, {"note": 72, "velocity": 99, "duration": 960}, {"note": 67, "velocity": 98, "duration": 720}, {"note": 70, "velocity": 99, "duration": 239}, {"note": 70, "velocity": 102, "duration": 960}, {"note": 74, "velocity": 109, "duration": 960}, {"note": 72, "velocity": 111, "duration": 960}, {"note": 67, "velocity": 111, "duration": 720}, {"note": 74, "velocity": 111, "duration": 239}, {"note": 74, "velocity": 111, "duration": 719}, {"note": 74, "velocity": 111, "duration": 239}, {"note": 74, "velocity": 111, "duration": 240}, {"note": 72, "velocity": 111, "duration": 239}, {"note": 72, "velocity": 111, "duration": 240}, {"note": 70, "velocity": 111, "duration": 239}, {"note": 70, "velocity": 111, "duration": 720}, {"note": 72, "velocity": 90, "duration": 239}, {"note": 72, "velocity": 84, "duration": 240}, {"note": 70, "velocity": 73, "duration": 239}, {"note": 70, "velocity": 66, "duration": 246}, {"note": 69, "velocity": 62, "duration": 239}, {"note": 69, "velocity": 66, "duration": 240}, {"note": 67, "velocity": 71, "duration": 240}, {"note": 70, "velocity": 90, "duration": 240}, {"note": 69, "velocity": 90, "duration": 360}, {"note": 70, "velocity": 90, "duration": 120}, {"note": 69, "velocity": 90, "duration": 2640}, {"note": 67, "velocity": 90, "duration": 359}, {"note": 70, "velocity": 84, "duration": 480}, {"note": 74, "velocity": 85, "duration": 240}, {"note": 79, "velocity": 87, "duration": 1440}, {"note": 81, "velocity": 93, "duration": 239}, {"note": 81, "velocity": 94, "duration": 1200}, {"note": 77, "velocity": 103, "duration": 240}, {"note": 72, "velocity": 91, "duration": 360}, {"note": 69, "velocity": 84, "duration": 360}, {"note": 72, "velocity": 98, "duration": 1200}, {"note": 77, "velocity": 97, "duration": 480}, {"note": 74, "velocity": 100, "duration": 1200}, {"note": 67, "velocity": 79, "duration": 360}, {"note": 70, "velocity": 87, "duration": 360}, {"note": 74, "velocity": 79, "duration": 240}, {"note": 79, "velocity": 73, "duration": 1200}, {"note": 74, "velocity": 87, "duration": 360}, {"note": 70, "velocity": 63, "duration": 360}, {"note": 72, "velocity": 85, "duration": 959}, {"note": 72, "velocity": 101, "duration": 360}, {"note": 77, "velocity": 89, "duration": 360}, {"note": 72, "velocity": 85, "duration": 239}, {"note": 72, "velocity": 93, "duration": 480}, {"note": 74, "velocity": 99, "duration": 239}, {"note": 74, "velocity": 97, "duration": 2160}, {"note": 67, "velocity": 91, "duration": 396}, {"note": 70, "velocity": 95, "duration": 360}, {"note": 74, "velocity": 96, "duration": 240}, {"note": 79, "velocity": 90, "duration": 1320}, {"note": 81, "velocity": 103, "duration": 479}, {"note": 81, "velocity": 96, "duration": 120}, {"note": 82, "velocity": 90, "duration": 123}, {"note": 81, "velocity": 66, "duration": 840}, {"note": 77, "velocity": 93, "duration": 360}, {"note": 72, "velocity": 84, "duration": 240}, {"note": 69, "velocity": 66, "duration": 360}, {"note": 72, "velocity": 90, "duration": 1319}, {"note": 77, "velocity": 87, "duration": 480}, {"note": 74, "velocity": 91, "duration": 360}, {"note": 72, "velocity": 80, "duration": 120}, {"note": 70, "velocity": 66, "duration": 720}, {"note": 67, "velocity": 74, "duration": 360}, {"note": 70, "velocity": 91, "duration": 360}, {"note": 74, "velocity": 93, "duration": 240}, {"note": 79, "velocity": 94, "duration": 1200}, {"note": 74, "velocity": 103, "duration": 720}, {"note": 72, "velocity": 98, "duration": 959}, {"note": 72, "velocity": 108, "duration": 360}, {"note": 77, "velocity": 94, "duration": 360}, {"note": 72, "velocity": 97, "duration": 239}, {"note": 72, "velocity": 105, "duration": 360}, {"note": 74, "velocity": 97, "duration": 359}, {"note": 74, "velocity": 99, "duration": 214}, {"note": 74, "velocity": 91, "duration": 240}, {"note": 72, "velocity": 90, "duration": 240}, {"note": 70, "velocity": 95, "duration": 902}, {"note": 74, "velocity": 96, "duration": 240}, {"note": 72, "velocity": 84, "duration": 240}, {"note": 70, "velocity": 85, "duration": 719}, {"note": 74, "velocity": 87, "duration": 360}, {"note": 69, "velocity": 93, "duration": 719}, {"note": 69, "velocity": 98, "duration": 720}, {"note": 67, "velocity": 93, "duration": 2159}, {"note": 67, "velocity": 90, "duration": 360}, {"note": 70, "velocity": 84, "duration": 360}, {"note": 74, "velocity": 85, "duration": 240}, {"note": 79, "velocity": 87, "duration": 1440}, {"note": 81, "velocity": 93, "duration": 239}, {"note": 81, "velocity": 94, "duration": 1200}, {"note": 77, "velocity": 103, "duration": 240}, {"note": 72, "velocity": 91, "duration": 360}, {"note": 69, "velocity": 84, "duration": 360}, {"note": 72, "velocity": 98, "duration": 1200}, {"note": 77, "velocity": 97, "duration": 480}, {"note": 74, "velocity": 100, "duration": 1200}, {"note": 67, "velocity": 79, "duration": 360}, {"note": 70, "velocity": 87, "duration": 360}, {"note": 74, "velocity": 79, "duration": 240}, {"note": 79, "velocity": 73, "duration": 1200}, {"note": 74, "velocity": 87, "duration": 360}, {"note": 70, "velocity": 63, "duration": 360}, {"note": 72, "velocity": 85, "duration": 959}, {"note": 72, "velocity": 101, "duration": 360}, {"note": 77, "velocity": 89, "duration": 360}, {"note": 72, "velocity": 85, "duration": 239}, {"note": 72, "velocity": 93, "duration": 480}, {"note": 74, "velocity": 99, "duration": 239}, {"note": 74, "velocity": 97, "duration": 2160}, {"note": 67, "velocity": 91, "duration": 396}, {"note": 70, "velocity": 95, "duration": 360}, {"note": 74, "velocity": 96, "duration": 240}, {"note": 79, "velocity": 90, "duration": 1319}, {"note": 81, "velocity": 103, "duration": 479}, {"note": 81, "velocity": 96, "duration": 120}, {"note": 82, "velocity": 90, "duration": 123}, {"note": 81, "velocity": 88, "duration": 960}, {"note": 77, "velocity": 93, "duration": 360}, {"note": 72, "velocity": 84, "duration": 240}, {"note": 69, "velocity": 66, "duration": 360}, {"note": 72, "velocity": 90, "duration": 1319}, {"note": 77, "velocity": 87, "duration": 480}, {"note": 74, "velocity": 91, "duration": 360}, {"note": 72, "velocity": 80, "duration": 120}, {"note": 70, "velocity": 66, "duration": 720}, {"note": 67, "velocity": 74, "duration": 360}, {"note": 70, "velocity": 91, "duration": 360}, {"note": 74, "velocity": 93, "duration": 240}, {"note": 79, "velocity": 94, "duration": 1200}, {"note": 74, "velocity": 103, "duration": 720}, {"note": 72, "velocity": 98, "duration": 959}, {"note": 72, "velocity": 108, "duration": 360}, {"note": 77, "velocity": 94, "duration": 360}, {"note": 72, "velocity": 97, "duration": 239}, {"note": 72, "velocity": 105, "duration": 360}, {"note": 74, "velocity": 97, "duration": 359}, {"note": 74, "velocity": 99, "duration": 2879}, {"note": 74, "velocity": 91, "duration": 240}, {"note": 72, "velocity": 90, "duration": 240}, {"note": 70, "velocity": 95, "duration": 1440}, {"note": 74, "velocity": 96, "duration": 240}, {"note": 72, "velocity": 84, "duration": 240}, {"note": 70, "velocity": 85, "duration": 719}, {"note": 74, "velocity": 87, "duration": 240}, {"note": 69, "velocity": 93, "duration": 719}, {"note": 69, "velocity": 98, "duration": 720}, {"note": 67, "velocity": 93, "duration": 2160}, {"note": 67, "velocity": 93, "duration": 720}, {"note": 74, "velocity": 90, "duration": 240}, {"note": 72, "velocity": 89, "duration": 245}, {"note": 70, "velocity": 79, "duration": 1440}, {"note": 74, "velocity": 105, "duration": 240}, {"note": 72, "velocity": 90, "duration": 286}, {"note": 74, "velocity": 97, "duration": 719}, {"note": 74, "velocity": 103, "duration": 480}, {"note": 70, "velocity": 99, "duration": 480}, {"note": 69, "velocity": 99, "duration": 1680}, {"note": 70, "velocity": 52, "duration": 120}, {"note": 69, "velocity": 52, "duration": 360}, {"note": 67, "velocity": 77, "duration": 1680}]]