[[{"note": 65, "velocity": 112, "duration": 186}, {"note": 67, "velocity": 86, "duration": 163}, {"note": 0, "velocity": 0, "duration": 77}, {"note": 74, "velocity": 98, "duration": 354}, {"note": 0, "velocity": 0, "duration": 126}, {"note": 74, "velocity": 90, "duration": 136}, {"note": 0, "velocity": 0, "duration": 104}, {"note": 72, "velocity": 98, "duration": 72}, {"note": 70, "velocity": 86, "duration": 316}, {"note": 0, "velocity": 0, "duration": 524}, {"note": 74, "velocity": 98, "duration": 92}, {"note": 77, "velocity": 90, "duration": 58}, {"note": 0, "velocity": 0, "duration": 62}, {"note": 79, "velocity": 112, "duration": 118}, {"note": 0, "velocity": 0, "duration": 122}, {"note": 79, "velocity": 111, "duration": 126}, {"note": 0, "velocity": 0, "duration": 114}, {"note": 79, "velocity": 111, "duration": 105}, {"note": 0, "velocity": 0, "duration": 135}, {"note": 77, "velocity": 98, "duration": 85}, {"note": 74, "velocity": 79, "duration": 249}, {"note": 0, "velocity": 0, "duration": 831}, {"note": 82, "velocity": 114, "duration": 109}, {"note": 0, "velocity": 0, "duration": 131}, {"note": 79, "velocity": 104, "duration": 50}, {"note": 0, "velocity": 0, "duration": 70}, {"note": 79, "velocity": 104, "duration": 269}, {"note": 0, "velocity": 0, "duration": 211}, {"note": 77, "velocity": 98, "duration": 52}, {"note": 0, "velocity": 0, "duration": 68}, {"note": 79, "velocity": 100, "duration": 110}, {"note": 0, "velocity": 0, "duration": 130}, {"note": 77, "velocity": 98, "duration": 47}, {"note": 0, "velocity": 0, "duration": 73}, {"note": 77, "velocity": 95, "duration": 181}, {"note": 0, "velocity": 0, "duration": 179}, {"note": 74, "velocity": 98, "duration": 43}, {"note": 0, "velocity": 0, "duration": 77}, {"note": 74, "velocity": 85, "duration": 46}, {"note": 0, "velocity": 0, "duration": 74}, {"note": 72, "velocity": 98, "duration": 355}, {"note": 0, "velocity": 0, "duration": 125}, {"note": 72, "velocity": 104, "duration": 155}, {"note": 0, "velocity": 0, "duration": 85}, {"note": 70, "velocity": 54, "duration": 118}, {"note": 0, "velocity": 0, "duration": 122}, {"note": 72, "velocity": 87, "duration": 186}, {"note": 0, "velocity": 0, "duration": 774}, {"note": 77, "velocity": 93, "duration": 132}, {"note": 0, "velocity": 0, "duration": 108}, {"note": 77, "velocity": 76, "duration": 117}, {"note": 0, "velocity": 0, "duration": 123}, {"note": 77, "velocity": 83, "duration": 106}, {"note": 0, "velocity": 0, "duration": 269}, {"note": 65, "velocity": 87, "duration": 72}, {"note": 67, "velocity": 70, "duration": 318}, {"note": 0, "velocity": 0, "duration": 642}, {"note": 72, "velocity": 79, "duration": 103}, {"note": 0, "velocity": 0, "duration": 137}, {"note": 72, "velocity": 77, "duration": 44}, {"note": 0, "velocity": 0, "duration": 76}, {"note": 72, "velocity": 81, "duration": 243}, {"note": 0, "velocity": 0, "duration": 117}, {"note": 70, "velocity": 69, "duration": 129}, {"note": 0, "velocity": 0, "duration": 111}, {"note": 67, "velocity": 90, "duration": 339}, {"note": 0, "velocity": 0, "duration": 621}, {"note": 72, "velocity": 87, "duration": 96}, {"note": 0, "velocity": 0, "duration": 144}, {"note": 72, "velocity": 79, "duration": 42}, {"note": 0, "velocity": 0, "duration": 78}, {"note": 72, "velocity": 67, "duration": 37}, {"note": 0, "velocity": 0, "duration": 83}, {"note": 72, "velocity": 75, "duration": 36}, {"note": 0, "velocity": 0, "duration": 84}, {"note": 72, "velocity": 69, "duration": 42}, {"note": 0, "velocity": 0, "duration": 78}, {"note": 70, "velocity": 73, "duration": 53}, {"note": 0, "velocity": 0, "duration": 67}, {"note": 72, "velocity": 79, "duration": 57}, {"note": 0, "velocity": 0, "duration": 63}, {"note": 70, "velocity": 76, "duration": 64}, {"note": 70, "velocity": 74, "duration": 129}, {"note": 0, "velocity": 0, "duration": 111}, {"note": 70, "velocity": 85, "duration": 56}, {"note": 0, "velocity": 0, "duration": 64}, {"note": 70, "velocity": 81, "duration": 131}, {"note": 0, "velocity": 0, "duration": 109}, {"note": 67, "velocity": 83, "duration": 133}, {"note": 0, "velocity": 0, "duration": 107}, {"note": 65, "velocity": 90, "duration": 942}, {"note": 0, "velocity": 0, "duration": 738}, {"note": 74, "velocity": 100, "duration": 95}, {"note": 72, "velocity": 62, "duration": 53}, {"note": 0, "velocity": 0, "duration": 67}, {"note": 74, "velocity": 111, "duration": 1204}, {"note": 0, "velocity": 0, "duration": 116}, {"note": 74, "velocity": 87, "duration": 52}, {"note": 0, "velocity": 0, "duration": 68}, {"note": 74, "velocity": 85, "duration": 67}, {"note": 77, "velocity": 98, "duration": 50}, {"note": 0, "velocity": 0, "duration": 70}, {"note": 77, "velocity": 104, "duration": 69}, {"note": 82, "velocity": 76, "duration": 54}, {"note": 0, "velocity": 0, "duration": 66}, {"note": 79, "velocity": 108, "duration": 161}, {"note": 0, "velocity": 0, "duration": 79}, {"note": 79, "velocity": 98, "duration": 137}, {"note": 0, "velocity": 0, "duration": 103}, {"note": 79, "velocity": 108, "duration": 96}, {"note": 0, "velocity": 0, "duration": 144}, {"note": 77, "velocity": 104, "duration": 67}, {"note": 74, "velocity": 72, "duration": 644}, {"note": 0, "velocity": 0, "duration": 436}, {"note": 82, "velocity": 87, "duration": 116}, {"note": 0, "velocity": 0, "duration": 124}, {"note": 79, "velocity": 90, "duration": 46}, {"note": 0, "velocity": 0, "duration": 74}, {"note": 79, "velocity": 93, "duration": 48}, {"note": 0, "velocity": 0, "duration": 72}, {"note": 79, "velocity": 90, "duration": 84}, {"note": 0, "velocity": 0, "duration": 156}, {"note": 77, "velocity": 98, "duration": 51}, {"note": 0, "velocity": 0, "duration": 69}, {"note": 77, "velocity": 93, "duration": 62}, {"note": 79, "velocity": 100, "duration": 102}, {"note": 0, "velocity": 0, "duration": 138}, {"note": 77, "velocity": 95, "duration": 43}, {"note": 77, "velocity": 104, "duration": 43}, {"note": 0, "velocity": 0, "duration": 77}, {"note": 77, "velocity": 111, "duration": 35}, {"note": 0, "velocity": 0, "duration": 85}, {"note": 77, "velocity": 114, "duration": 53}, {"note": 0, "velocity": 0, "duration": 187}, {"note": 77, "velocity": 81, "duration": 140}, {"note": 74, "velocity": 70, "duration": 164}, {"note": 0, "velocity": 0, "duration": 76}, {"note": 72, "velocity": 74, "duration": 303}, {"note": 0, "velocity": 0, "duration": 1497}, {"note": 77, "velocity": 83, "duration": 151}, {"note": 0, "velocity": 0, "duration": 89}, {"note": 77, "velocity": 68, "duration": 47}, {"note": 0, "velocity": 0, "duration": 73}, {"note": 77, "velocity": 83, "duration": 166}, {"note": 0, "velocity": 0, "duration": 314}, {"note": 65, "velocity": 85, "duration": 68}, {"note": 67, "velocity": 87, "duration": 390}, {"note": 0, "velocity": 0, "duration": 570}, {"note": 72, "velocity": 86, "duration": 168}, {"note": 0, "velocity": 0, "duration": 72}, {"note": 74, "velocity": 93, "duration": 132}, {"note": 0, "velocity": 0, "duration": 108}, {"note": 72, "velocity": 93, "duration": 106}, {"note": 70, "velocity": 93, "duration": 149}, {"note": 0, "velocity": 0, "duration": 211}, {"note": 67, "velocity": 86, "duration": 678}, {"note": 67, "velocity": 81, "duration": 45}, {"note": 0, "velocity": 0, "duration": 75}, {"note": 67, "velocity": 77, "duration": 59}, {"note": 0, "velocity": 0, "duration": 61}, {"note": 65, "velocity": 104, "duration": 138}, {"note": 0, "velocity": 0, "duration": 102}, {"note": 77, "velocity": 108, "duration": 48}, {"note": 0, "velocity": 0, "duration": 72}, {"note": 77, "velocity": 108, "duration": 44}, {"note": 0, "velocity": 0, "duration": 76}, {"note": 77, "velocity": 112, "duration": 102}, {"note": 0, "velocity": 0, "duration": 138}, {"note": 74, "velocity": 114, "duration": 154}, {"note": 0, "velocity": 0, "duration": 86}, {"note": 72, "velocity": 114, "duration": 230}, {"note": 67, "velocity": 83, "duration": 374}, {"note": 67, "velocity": 74, "duration": 14}, {"note": 0, "velocity": 0, "duration": 106}, {"note": 72, "velocity": 98, "duration": 150}, {"note": 0, "velocity": 0, "duration": 90}, {"note": 70, "velocity": 93, "duration": 1389}, {"note": 0, "velocity": 0, "duration": 171}, {"note": 77, "velocity": 79, "duration": 38}, {"note": 0, "velocity": 0, "duration": 82}, {"note": 79, "velocity": 76, "duration": 66}, {"note": 77, "velocity": 90, "duration": 39}, {"note": 0, "velocity": 0, "duration": 81}, {"note": 79, "velocity": 81, "duration": 133}, {"note": 77, "velocity": 104, "duration": 42}, {"note": 0, "velocity": 0, "duration": 78}, {"note": 77, "velocity": 93, "duration": 41}, {"note": 77, "velocity": 95, "duration": 41}, {"note": 0, "velocity": 0, "duration": 79}, {"note": 77, "velocity": 104, "duration": 39}, {"note": 0, "velocity": 0, "duration": 81}, {"note": 79, "velocity": 95, "duration": 181}, {"note": 77, "velocity": 114, "duration": 124}, {"note": 0, "velocity": 0, "duration": 116}, {"note": 79, "velocity": 86, "duration": 72}, {"note": 77, "velocity": 98, "duration": 47}, {"note": 0, "velocity": 0, "duration": 73}, {"note": 74, "velocity": 79, "duration": 59}, {"note": 0, "velocity": 0, "duration": 61}, {"note": 77, "velocity": 114, "duration": 82}, {"note": 0, "velocity": 0, "duration": 158}, {"note": 77, "velocity": 87, "duration": 52}, {"note": 0, "velocity": 0, "duration": 68}, {"note": 77, "velocity": 90, "duration": 64}, {"note": 79, "velocity": 98, "duration": 51}, {"note": 0, "velocity": 0, "duration": 69}, {"note": 82, "velocity": 90, "duration": 81}, {"note": 79, "velocity": 83, "duration": 45}, {"note": 0, "velocity": 0, "duration": 75}, {"note": 79, "velocity": 90, "duration": 45}, {"note": 0, "velocity": 0, "duration": 75}, {"note": 79, "velocity": 93, "duration": 45}, {"note": 0, "velocity": 0, "duration": 75}, {"note": 77, "velocity": 100, "duration": 116}, {"note": 0, "velocity": 0, "duration": 244}, {"note": 72, "velocity": 72, "duration": 66}, {"note": 74, "velocity": 95, "duration": 923}, {"note": 82, "velocity": 71, "duration": 139}, {"note": 0, "velocity": 0, "duration": 101}, {"note": 79, "velocity": 86, "duration": 47}, {"note": 0, "velocity": 0, "duration": 73}, {"note": 79, "velocity": 87, "duration": 46}, {"note": 0, "velocity": 0, "duration": 74}, {"note": 79, "velocity": 93, "duration": 105}, {"note": 0, "velocity": 0, "duration": 135}, {"note": 79, "velocity": 90, "duration": 51}, {"note": 0, "velocity": 0, "duration": 69}, {"note": 79, "velocity": 93, "duration": 57}, {"note": 0, "velocity": 0, "duration": 63}, {"note": 77, "velocity": 111, "duration": 125}, {"note": 74, "velocity": 73, "duration": 43}, {"note": 0, "velocity": 0, "duration": 77}, {"note": 74, "velocity": 86, "duration": 44}, {"note": 0, "velocity": 0, "duration": 76}, {"note": 74, "velocity": 90, "duration": 84}, {"note": 0, "velocity": 0, "duration": 156}, {"note": 67, "velocity": 62, "duration": 62}, {"note": 67, "velocity": 67, "duration": 81}, {"note": 70, "velocity": 70, "duration": 74}, {"note": 72, "velocity": 90, "duration": 124}, {"note": 0, "velocity": 0, "duration": 116}, {"note": 74, "velocity": 86, "duration": 192}, {"note": 72, "velocity": 93, "duration": 94}, {"note": 72, "velocity": 100, "duration": 123}, {"note": 0, "velocity": 0, "duration": 117}, {"note": 67, "velocity": 83, "duration": 75}, {"note": 72, "velocity": 108, "duration": 560}, {"note": 77, "velocity": 111, "duration": 55}, {"note": 0, "velocity": 0, "duration": 65}, {"note": 79, "velocity": 111, "duration": 70}, {"note": 77, "velocity": 98, "duration": 50}, {"note": 0, "velocity": 0, "duration": 70}, {"note": 79, "velocity": 111, "duration": 58}, {"note": 0, "velocity": 0, "duration": 62}, {"note": 77, "velocity": 95, "duration": 42}, {"note": 0, "velocity": 0, "duration": 78}, {"note": 77, "velocity": 86, "duration": 43}, {"note": 0, "velocity": 0, "duration": 77}, {"note": 77, "velocity": 111, "duration": 52}, {"note": 0, "velocity": 0, "duration": 68}, {"note": 79, "velocity": 108, "duration": 131}, {"note": 0, "velocity": 0, "duration": 109}, {"note": 77, "velocity": 93, "duration": 67}, {"note": 0, "velocity": 0, "duration": 173}, {"note": 79, "velocity": 114, "duration": 101}, {"note": 77, "velocity": 70, "duration": 119}, {"note": 74, "velocity": 74, "duration": 82}, {"note": 77, "velocity": 111, "duration": 132}, {"note": 0, "velocity": 0, "duration": 108}, {"note": 77, "velocity": 75, "duration": 63}, {"note": 77, "velocity": 70, "duration": 67}, {"note": 79, "velocity": 83, "duration": 55}, {"note": 0, "velocity": 0, "duration": 65}, {"note": 82, "velocity": 111, "duration": 134}, {"note": 79, "velocity": 100, "duration": 44}, {"note": 0, "velocity": 0, "duration": 76}, {"note": 79, "velocity": 111, "duration": 40}, {"note": 0, "velocity": 0, "duration": 80}, {"note": 79, "velocity": 114, "duration": 54}, {"note": 0, "velocity": 0, "duration": 66}, {"note": 77, "velocity": 111, "duration": 169}, {"note": 0, "velocity": 0, "duration": 191}, {"note": 72, "velocity": 81, "duration": 63}, {"note": 74, "velocity": 86, "duration": 710}, {"note": 0, "velocity": 0, "duration": 250}, {"note": 82, "velocity": 98, "duration": 52}, {"note": 0, "velocity": 0, "duration": 68}, {"note": 79, "velocity": 98, "duration": 40}, {"note": 0, "velocity": 0, "duration": 80}, {"note": 79, "velocity": 93, "duration": 40}, {"note": 0, "velocity": 0, "duration": 80}, {"note": 79, "velocity": 104, "duration": 45}, {"note": 0, "velocity": 0, "duration": 75}, {"note": 79, "velocity": 104, "duration": 90}, {"note": 0, "velocity": 0, "duration": 150}, {"note": 79, "velocity": 112, "duration": 118}, {"note": 0, "velocity": 0, "duration": 122}, {"note": 77, "velocity": 122, "duration": 56}, {"note": 0, "velocity": 0, "duration": 64}, {"note": 74, "velocity": 81, "duration": 45}, {"note": 0, "velocity": 0, "duration": 75}, {"note": 74, "velocity": 93, "duration": 43}, {"note": 0, "velocity": 0, "duration": 77}, {"note": 74, "velocity": 111, "duration": 55}, {"note": 0, "velocity": 0, "duration": 185}, {"note": 67, "velocity": 68, "duration": 53}, {"note": 0, "velocity": 0, "duration": 67}, {"note": 67, "velocity": 77, "duration": 70}, {"note": 70, "velocity": 74, "duration": 60}, {"note": 74, "velocity": 77, "duration": 173}, {"note": 0, "velocity": 0, "duration": 67}, {"note": 72, "velocity": 104, "duration": 146}, {"note": 0, "velocity": 0, "duration": 94}, {"note": 72, "velocity": 108, "duration": 828}, {"note": 0, "velocity": 0, "duration": 132}, {"note": 72, "velocity": 81, "duration": 78}, {"note": 74, "velocity": 90, "duration": 303}, {"note": 0, "velocity": 0, "duration": 777}, {"note": 67, "velocity": 77, "duration": 168}, {"note": 0, "velocity": 0, "duration": 72}, {"note": 70, "velocity": 93, "duration": 1041}, {"note": 0, "velocity": 0, "duration": 8319}, {"note": 74, "velocity": 100, "duration": 95}, {"note": 72, "velocity": 62, "duration": 53}, {"note": 0, "velocity": 0, "duration": 67}, {"note": 74, "velocity": 111, "duration": 1204}, {"note": 0, "velocity": 0, "duration": 116}, {"note": 74, "velocity": 87, "duration": 52}, {"note": 0, "velocity": 0, "duration": 68}, {"note": 74, "velocity": 85, "duration": 67}, {"note": 77, "velocity": 98, "duration": 50}, {"note": 0, "velocity": 0, "duration": 70}, {"note": 77, "velocity": 104, "duration": 69}, {"note": 82, "velocity": 76, "duration": 54}, {"note": 0, "velocity": 0, "duration": 66}, {"note": 79, "velocity": 108, "duration": 161}, {"note": 0, "velocity": 0, "duration": 79}, {"note": 79, "velocity": 98, "duration": 137}, {"note": 0, "velocity": 0, "duration": 103}, {"note": 79, "velocity": 108, "duration": 96}, {"note": 0, "velocity": 0, "duration": 144}, {"note": 77, "velocity": 104, "duration": 67}, {"note": 74, "velocity": 72, "duration": 644}, {"note": 0, "velocity": 0, "duration": 436}, {"note": 82, "velocity": 87, "duration": 116}, {"note": 0, "velocity": 0, "duration": 124}, {"note": 79, "velocity": 90, "duration": 46}, {"note": 0, "velocity": 0, "duration": 74}, {"note": 79, "velocity": 93, "duration": 48}, {"note": 0, "velocity": 0, "duration": 72}, {"note": 79, "velocity": 90, "duration": 84}, {"note": 0, "velocity": 0, "duration": 156}, {"note": 77, "velocity": 98, "duration": 51}, {"note": 0, "velocity": 0, "duration": 69}, {"note": 77, "velocity": 93, "duration": 62}, {"note": 79, "velocity": 100, "duration": 102}, {"note": 0, "velocity": 0, "duration": 138}, {"note": 77, "velocity": 95, "duration": 43}, {"note": 77, "velocity": 104, "duration": 43}, {"note": 0, "velocity": 0, "duration": 77}, {"note": 77, "velocity": 111, "duration": 35}, {"note": 0, "velocity": 0, "duration": 85}, {"note": 77, "velocity": 114, "duration": 53}, {"note": 0, "velocity": 0, "duration": 187}, {"note": 77, "velocity": 81, "duration": 140}, {"note": 74, "velocity": 70, "duration": 164}, {"note": 0, "velocity": 0, "duration": 76}, {"note": 72, "velocity": 74, "duration": 303}, {"note": 0, "velocity": 0, "duration": 1497}, {"note": 77, "velocity": 83, "duration": 151}, {"note": 0, "velocity": 0, "duration": 89}, {"note": 77, "velocity": 68, "duration": 47}, {"note": 0, "velocity": 0, "duration": 73}, {"note": 77, "velocity": 83, "duration": 166}, {"note": 0, "velocity": 0, "duration": 314}, {"note": 65, "velocity": 85, "duration": 68}, {"note": 67, "velocity": 87, "duration": 390}, {"note": 0, "velocity": 0, "duration": 570}, {"note": 72, "velocity": 86, "duration": 168}, {"note": 0, "velocity": 0, "duration": 72}, {"note": 74, "velocity": 93, "duration": 132}, {"note": 0, "velocity": 0, "duration": 108}, {"note": 72, "velocity": 93, "duration": 106}, {"note": 70, "velocity": 93, "duration": 149}, {"note": 0, "velocity": 0, "duration": 211}, {"note": 67, "velocity": 86, "duration": 678}, {"note": 67, "velocity": 81, "duration": 45}, {"note": 0, "velocity": 0, "duration": 75}, {"note": 67, "velocity": 77, "duration": 59}, {"note": 0, "velocity": 0, "duration": 61}, {"note": 65, "velocity": 104, "duration": 138}, {"note": 0, "velocity": 0, "duration": 102}, {"note": 77, "velocity": 108, "duration": 48}, {"note": 0, "velocity": 0, "duration": 72}, {"note": 77, "velocity": 108, "duration": 44}, {"note": 0, "velocity": 0, "duration": 76}, {"note": 77, "velocity": 112, "duration": 102}, {"note": 0, "velocity": 0, "duration": 138}, {"note": 74, "velocity": 114, "duration": 154}, {"note": 0, "velocity": 0, "duration": 86}, {"note": 72, "velocity": 114, "duration": 230}, {"note": 67, "velocity": 83, "duration": 374}, {"note": 67, "velocity": 74, "duration": 14}, {"note": 0, "velocity": 0, "duration": 106}, {"note": 72, "velocity": 98, "duration": 150}, {"note": 0, "velocity": 0, "duration": 90}, {"note": 70, "velocity": 93, "duration": 1389}, {"note": 0, "velocity": 0, "duration": 171}, {"note": 77, "velocity": 79, "duration": 38}, {"note": 0, "velocity": 0, "duration": 82}, {"note": 79, "velocity": 76, "duration": 66}, {"note": 77, "velocity": 90, "duration": 39}, {"note": 0, "velocity": 0, "duration": 81}, {"note": 79, "velocity": 81, "duration": 133}, {"note": 77, "velocity": 104, "duration": 42}, {"note": 0, "velocity": 0, "duration": 78}, {"note": 77, "velocity": 93, "duration": 41}, {"note": 77, "velocity": 95, "duration": 41}, {"note": 0, "velocity": 0, "duration": 79}, {"note": 77, "velocity": 104, "duration": 39}, {"note": 0, "velocity": 0, "duration": 81}, {"note": 79, "velocity": 95, "duration": 181}, {"note": 77, "velocity": 114, "duration": 124}, {"note": 0, "velocity": 0, "duration": 116}, {"note": 79, "velocity": 86, "duration": 72}, {"note": 77, "velocity": 98, "duration": 47}, {"note": 0, "velocity": 0, "duration": 73}, {"note": 74, "velocity": 79, "duration": 59}, {"note": 0, "velocity": 0, "duration": 61}, {"note": 77, "velocity": 114, "duration": 82}, {"note": 0, "velocity": 0, "duration": 158}, {"note": 77, "velocity": 87, "duration": 52}, {"note": 0, "velocity": 0, "duration": 68}, {"note": 77, "velocity": 90, "duration": 64}, {"note": 79, "velocity": 98, "duration": 51}, {"note": 0, "velocity": 0, "duration": 69}, {"note": 82, "velocity": 90, "duration": 81}, {"note": 79, "velocity": 83, "duration": 45}, {"note": 0, "velocity": 0, "duration": 75}, {"note": 79, "velocity": 90, "duration": 45}, {"note": 0, "velocity": 0, "duration": 75}, {"note": 79, "velocity": 93, "duration": 45}, {"note": 0, "velocity": 0, "duration": 75}, {"note": 77, "velocity": 100, "duration": 116}, {"note": 0, "velocity": 0, "duration": 244}, {"note": 72, "velocity": 72, "duration": 66}, {"note": 74, "velocity": 95, "duration": 923}, {"note": 82, "velocity": 71, "duration": 139}, {"note": 0, "velocity": 0, "duration": 101}, {"note": 79, "velocity": 86, "duration": 47}, {"note": 0, "velocity": 0, "duration": 73}, {"note": 79, "velocity": 87, "duration": 46}, {"note": 0, "velocity": 0, "duration": 74}, {"note": 79, "velocity": 93, "duration": 105}, {"note": 0, "velocity": 0, "duration": 135}, {"note": 79, "velocity": 90, "duration": 51}, {"note": 0, "velocity": 0, "duration": 69}, {"note": 79, "velocity": 93, "duration": 57}, {"note": 0, "velocity": 0, "duration": 63}, {"note": 77, "velocity": 111, "duration": 125}, {"note": 74, "velocity": 73, "duration": 43}, {"note": 0, "velocity": 0, "duration": 77}, {"note": 74, "velocity": 86, "duration": 44}, {"note": 0, "velocity": 0, "duration": 76}, {"note": 74, "velocity": 90, "duration": 84}, {"note": 0, "velocity": 0, "duration": 156}, {"note": 67, "velocity": 62, "duration": 62}, {"note": 67, "velocity": 67, "duration": 81}, {"note": 70, "velocity": 70, "duration": 74}, {"note": 72, "velocity": 90, "duration": 124}, {"note": 0, "velocity": 0, "duration": 116}, {"note": 74, "velocity": 86, "duration": 192}, {"note": 72, "velocity": 93, "duration": 94}, {"note": 72, "velocity": 100, "duration": 123}, {"note": 0, "velocity": 0, "duration": 117}, {"note": 67, "velocity": 83, "duration": 75}, {"note": 72, "velocity": 108, "duration": 560}, {"note": 77, "velocity": 111, "duration": 55}, {"note": 0, "velocity": 0, "duration": 65}, {"note": 79, "velocity": 111, "duration": 70}, {"note": 77, "velocity": 98, "duration": 50}, {"note": 0, "velocity": 0, "duration": 70}, {"note": 79, "velocity": 111, "duration": 58}, {"note": 0, "velocity": 0, "duration": 62}, {"note": 77, "velocity": 95, "duration": 42}, {"note": 0, "velocity": 0, "duration": 78}, {"note": 77, "velocity": 86, "duration": 43}, {"note": 0, "velocity": 0, "duration": 77}, {"note": 77, "velocity": 111, "duration": 52}, {"note": 0, "velocity": 0, "duration": 68}, {"note": 79, "velocity": 108, "duration": 131}, {"note": 0, "velocity": 0, "duration": 109}, {"note": 77, "velocity": 93, "duration": 67}, {"note": 0, "velocity": 0, "duration": 173}, {"note": 79, "velocity": 114, "duration": 101}, {"note": 77, "velocity": 70, "duration": 119}, {"note": 74, "velocity": 74, "duration": 82}, {"note": 77, "velocity": 111, "duration": 132}, {"note": 0, "velocity": 0, "duration": 108}, {"note": 77, "velocity": 75, "duration": 63}, {"note": 77, "velocity": 70, "duration": 67}, {"note": 79, "velocity": 83, "duration": 55}, {"note": 0, "velocity": 0, "duration": 65}, {"note": 82, "velocity": 111, "duration": 134}, {"note": 79, "velocity": 100, "duration": 44}, {"note": 0, "velocity": 0, "duration": 76}, {"note": 79, "velocity": 111, "duration": 40}, {"note": 0, "velocity": 0, "duration": 80}, {"note": 79, "velocity": 114, "duration": 54}, {"note": 0, "velocity": 0, "duration": 66}, {"note": 77, "velocity": 111, "duration": 169}, {"note": 0, "velocity": 0, "duration": 191}, {"note": 72, "velocity": 81, "duration": 63}, {"note": 74, "velocity": 86, "duration": 710}, {"note": 0, "velocity": 0, "duration": 250}, {"note": 82, "velocity": 98, "duration": 52}, {"note": 0, "velocity": 0, "duration": 68}, {"note": 79, "velocity": 98, "duration": 40}, {"note": 0, "velocity": 0, "duration": 80}, {"note": 79, "velocity": 93, "duration": 40}, {"note": 0, "velocity": 0, "duration": 80}, {"note": 79, "velocity": 104, "duration": 45}, {"note": 0, "velocity": 0, "duration": 75}, {"note": 79, "velocity": 104, "duration": 90}, {"note": 0, "velocity": 0, "duration": 150}, {"note": 79, "velocity": 112, "duration": 118}, {"note": 0, "velocity": 0, "duration": 122}, {"note": 77, "velocity": 122, "duration": 56}, {"note": 0, "velocity": 0, "duration": 64}, {"note": 74, "velocity": 81, "duration": 45}, {"note": 0, "velocity": 0, "duration": 75}, {"note": 74, "velocity": 93, "duration": 43}, {"note": 0, "velocity": 0, "duration": 77}, {"note": 74, "velocity": 111, "duration": 55}, {"note": 0, "velocity": 0, "duration": 185}, {"note": 67, "velocity": 68, "duration": 53}, {"note": 0, "velocity": 0, "duration": 67}, {"note": 67, "velocity": 77, "duration": 70}, {"note": 70, "velocity": 74, "duration": 60}, {"note": 74, "velocity": 77, "duration": 173}, {"note": 0, "velocity": 0, "duration": 67}, {"note": 72, "velocity": 104, "duration": 146}, {"note": 0, "velocity": 0, "duration": 94}, {"note": 72, "velocity": 108, "duration": 828}, {"note": 0, "velocity": 0, "duration": 132}, {"note": 72, "velocity": 81, "duration": 78}, {"note": 74, "velocity": 90, "duration": 303}, {"note": 0, "velocity": 0, "duration": 777}, {"note": 67, "velocity": 77, "duration": 168}, {"note": 0, "velocity": 0, "duration": 72}, {"note": 70, "velocity": 93, "duration": 480}, {"note": 0, "velocity": 0, "duration": 120}, {"note": 77, "velocity": 79, "duration": 38}, {"note": 0, "velocity": 0, "duration": 82}, {"note": 79, "velocity": 76, "duration": 66}, {"note": 77, "velocity": 90, "duration": 39}, {"note": 0, "velocity": 0, "duration": 81}, {"note": 79, "velocity": 81, "duration": 133}, {"note": 77, "velocity": 104, "duration": 42}, {"note": 0, "velocity": 0, "duration": 78}, {"note": 77, "velocity": 93, "duration": 41}, {"note": 77, "velocity": 95, "duration": 41}, {"note": 0, "velocity": 0, "duration": 79}, {"note": 77, "velocity": 104, "duration": 39}, {"note": 0, "velocity": 0, "duration": 81}, {"note": 79, "velocity": 95, "duration": 181}, {"note": 77, "velocity": 114, "duration": 124}, {"note": 0, "velocity": 0, "duration": 116}, {"note": 79, "velocity": 86, "duration": 72}, {"note": 77, "velocity": 98, "duration": 47}, {"note": 0, "velocity": 0, "duration": 73}, {"note": 74, "velocity": 79, "duration": 59}, {"note": 0, "velocity": 0, "duration": 61}, {"note": 77, "velocity": 114, "duration": 82}, {"note": 0, "velocity": 0, "duration": 158}, {"note": 77, "velocity": 87, "duration": 52}, {"note": 0, "velocity": 0, "duration": 68}, {"note": 77, "velocity": 90, "duration": 64}, {"note": 79, "velocity": 98, "duration": 51}, {"note": 0, "velocity": 0, "duration": 69}, {"note": 82, "velocity": 90, "duration": 81}, {"note": 79, "velocity": 83, "duration": 45}, {"note": 0, "velocity": 0, "duration": 75}, {"note": 79, "velocity": 90, "duration": 45}, {"note": 0, "velocity": 0, "duration": 75}, {"note": 79, "velocity": 93, "duration": 45}, {"note": 0, "velocity": 0, "duration": 75}, {"note": 77, "velocity": 100, "duration": 116}, {"note": 0, "velocity": 0, "duration": 244}, {"note": 72, "velocity": 72, "duration": 66}, {"note": 74, "velocity": 95, "duration": 923}, {"note": 82, "velocity": 71, "duration": 139}, {"note": 0, "velocity": 0, "duration": 101}, {"note": 79, "velocity": 86, "duration": 47}, {"note": 0, "velocity": 0, "duration": 73}, {"note": 79, "velocity": 87, "duration": 46}, {"note": 0, "velocity": 0, "duration": 74}, {"note": 79, "velocity": 93, "duration": 105}, {"note": 0, "velocity": 0, "duration": 135}, {"note": 79, "velocity": 90, "duration": 51}, {"note": 0, "velocity": 0, "duration": 69}, {"note": 79, "velocity": 93, "duration": 57}, {"note": 0, "velocity": 0, "duration": 63}, {"note": 77, "velocity": 111, "duration": 125}, {"note": 74, "velocity": 73, "duration": 43}, {"note": 0, "velocity": 0, "duration": 77}, {"note": 74, "velocity": 86, "duration": 44}, {"note": 0, "velocity": 0, "duration": 76}, {"note": 74, "velocity": 90, "duration": 84}, {"note": 0, "velocity": 0, "duration": 156}, {"note": 67, "velocity": 62, "duration": 62}, {"note": 67, "velocity": 67, "duration": 81}, {"note": 70, "velocity": 70, "duration": 74}, {"note": 72, "velocity": 90, "duration": 124}, {"note": 0, "velocity": 0, "duration": 116}, {"note": 74, "velocity": 86, "duration": 192}, {"note": 72, "velocity": 93, "duration": 94}, {"note": 72, "velocity": 100, "duration": 123}, {"note": 0, "velocity": 0, "duration": 117}, {"note": 67, "velocity": 83, "duration": 75}, {"note": 72, "velocity": 108, "duration": 560}, {"note": 77, "velocity": 111, "duration": 55}, {"note": 0, "velocity": 0, "duration": 65}, {"note": 79, "velocity": 111, "duration": 70}, {"note": 77, "velocity": 98, "duration": 50}, {"note": 0, "velocity": 0, "duration": 70}, {"note": 79, "velocity": 111, "duration": 58}, {"note": 0, "velocity": 0, "duration": 62}, {"note": 77, "velocity": 95, "duration": 42}, {"note": 0, "velocity": 0, "duration": 78}, {"note": 77, "velocity": 86, "duration": 43}, {"note": 0, "velocity": 0, "duration": 77}, {"note": 77, "velocity": 111, "duration": 52}, {"note": 0, "velocity": 0, "duration": 68}, {"note": 79, "velocity": 108, "duration": 131}, {"note": 0, "velocity": 0, "duration": 109}, {"note": 77, "velocity": 93, "duration": 67}, {"note": 0, "velocity": 0, "duration": 173}, {"note": 79, "velocity": 114, "duration": 101}, {"note": 77, "velocity": 70, "duration": 119}, {"note": 74, "velocity": 74, "duration": 82}, {"note": 77, "velocity": 111, "duration": 132}, {"note": 0, "velocity": 0, "duration": 108}, {"note": 77, "velocity": 75, "duration": 63}, {"note": 77, "velocity": 70, "duration": 67}, {"note": 79, "velocity": 83, "duration": 55}, {"note": 0, "velocity": 0, "duration": 65}, {"note": 82, "velocity": 111, "duration": 134}, {"note": 79, "velocity": 100, "duration": 44}, {"note": 0, "velocity": 0, "duration": 76}, {"note": 79, "velocity": 111, "duration": 40}, {"note": 0, "velocity": 0, "duration": 80}, {"note": 79, "velocity": 114, "duration": 54}, {"note": 0, "velocity": 0, "duration": 66}, {"note": 77, "velocity": 111, "duration": 169}, {"note": 0, "velocity": 0, "duration": 191}, {"note": 72, "velocity": 81, "duration": 63}, {"note": 74, "velocity": 86, "duration": 710}, {"note": 0, "velocity": 0, "duration": 250}, {"note": 82, "velocity": 98, "duration": 52}, {"note": 0, "velocity": 0, "duration": 68}, {"note": 79, "velocity": 98, "duration": 40}, {"note": 0, "velocity": 0, "duration": 80}, {"note": 79, "velocity": 93, "duration": 40}, {"note": 0, "velocity": 0, "duration": 80}, {"note": 79, "velocity": 104, "duration": 45}, {"note": 0, "velocity": 0, "duration": 75}, {"note": 79, "velocity": 104, "duration": 90}, {"note": 0, "velocity": 0, "duration": 150}, {"note": 79, "velocity": 112, "duration": 118}, {"note": 0, "velocity": 0, "duration": 122}, {"note": 77, "velocity": 122, "duration": 56}, {"note": 0, "velocity": 0, "duration": 64}, {"note": 74, "velocity": 81, "duration": 45}, {"note": 0, "velocity": 0, "duration": 75}, {"note": 74, "velocity": 93, "duration": 43}, {"note": 0, "velocity": 0, "duration": 77}, {"note": 74, "velocity": 111, "duration": 55}, {"note": 0, "velocity": 0, "duration": 185}, {"note": 67, "velocity": 68, "duration": 53}, {"note": 0, "velocity": 0, "duration": 67}, {"note": 67, "velocity": 77, "duration": 70}, {"note": 70, "velocity": 74, "duration": 60}, {"note": 74, "velocity": 77, "duration": 173}, {"note": 0, "velocity": 0, "duration": 67}, {"note": 72, "velocity": 104, "duration": 146}, {"note": 0, "velocity": 0, "duration": 94}, {"note": 72, "velocity": 108, "duration": 828}, {"note": 0, "velocity": 0, "duration": 132}, {"note": 72, "velocity": 81, "duration": 78}, {"note": 0, "velocity": 0, "duration": 162}, {"note": 74, "velocity": 90, "duration": 564}, {"note": 0, "velocity": 0, "duration": 396}, {"note": 67, "velocity": 77, "duration": 466}, {"note": 0, "velocity": 0, "duration": 134}, {"note": 70, "velocity": 93, "duration": 892}]]