[[{"note": 76, "velocity": 75, "duration": 49}, {"note": 0, "velocity": 0, "duration": 71}, {"note": 76, "velocity": 75, "duration": 44}, {"note": 0, "velocity": 0, "duration": 76}, {"note": 76, "velocity": 75, "duration": 46}, {"note": 0, "velocity": 0, "duration": 74}, {"note": 76, "velocity": 75, "duration": 48}, {"note": 0, "velocity": 0, "duration": 72}, {"note": 76, "velocity": 75, "duration": 42}, {"note": 0, "velocity": 0, "duration": 78}, {"note": 76, "velocity": 75, "duration": 110}, {"note": 71, "velocity": 75, "duration": 90}, {"note": 80, "velocity": 75, "duration": 172}, {"note": 78, "velocity": 75, "duration": 44}, {"note": 0, "velocity": 0, "duration": 68}, {"note": 78, "velocity": 75, "duration": 40}, {"note": 78, "velocity": 75, "duration": 40}, {"note": 0, "velocity": 0, "duration": 80}, {"note": 76, "velocity": 75, "duration": 131}, {"note": 80, "velocity": 75, "duration": 293}, {"note": 0, "velocity": 0, "duration": 120}, {"note": 76, "velocity": 75, "duration": 44}, {"note": 0, "velocity": 0, "duration": 76}, {"note": 76, "velocity": 75, "duration": 43}, {"note": 0, "velocity": 0, "duration": 77}, {"note": 76, "velocity": 75, "duration": 40}, {"note": 0, "velocity": 0, "duration": 80}, {"note": 76, "velocity": 75, "duration": 64}, {"note": 71, "velocity": 75, "duration": 59}, {"note": 0, "velocity": 0, "duration": 61}, {"note": 71, "velocity": 75, "duration": 181}, {"note": 80, "velocity": 75, "duration": 178}, {"note": 78, "velocity": 75, "duration": 125}, {"note": 73, "velocity": 75, "duration": 143}, {"note": 76, "velocity": 75, "duration": 400}, {"note": 78, "velocity": 75, "duration": 132}, {"note": 76, "velocity": 75, "duration": 70}, {"note": 78, "velocity": 75, "duration": 106}, {"note": 76, "velocity": 75, "duration": 208}, {"note": 76, "velocity": 75, "duration": 90}, {"note": 80, "velocity": 75, "duration": 120}, {"note": 78, "velocity": 75, "duration": 139}, {"note": 76, "velocity": 75, "duration": 110}, {"note": 73, "velocity": 75, "duration": 41}, {"note": 0, "velocity": 0, "duration": 439}, {"note": 73, "velocity": 75, "duration": 128}, {"note": 71, "velocity": 75, "duration": 125}, {"note": 73, "velocity": 75, "duration": 124}, {"note": 71, "velocity": 75, "duration": 72}, {"note": 80, "velocity": 76, "duration": 124}, {"note": 78, "velocity": 77, "duration": 61}, {"note": 78, "velocity": 77, "duration": 106}, {"note": 76, "velocity": 77, "duration": 67}, {"note": 80, "velocity": 77, "duration": 126}, {"note": 78, "velocity": 77, "duration": 118}, {"note": 76, "velocity": 77, "duration": 104}, {"note": 78, "velocity": 77, "duration": 453}, {"note": 0, "velocity": 0, "duration": 747}, {"note": 76, "velocity": 77, "duration": 49}, {"note": 0, "velocity": 0, "duration": 71}, {"note": 76, "velocity": 77, "duration": 44}, {"note": 0, "velocity": 0, "duration": 76}, {"note": 76, "velocity": 77, "duration": 46}, {"note": 0, "velocity": 0, "duration": 74}, {"note": 76, "velocity": 77, "duration": 48}, {"note": 0, "velocity": 0, "duration": 72}, {"note": 76, "velocity": 77, "duration": 42}, {"note": 0, "velocity": 0, "duration": 78}, {"note": 76, "velocity": 78, "duration": 110}, {"note": 71, "velocity": 78, "duration": 90}, {"note": 80, "velocity": 78, "duration": 172}, {"note": 78, "velocity": 78, "duration": 44}, {"note": 0, "velocity": 0, "duration": 68}, {"note": 78, "velocity": 78, "duration": 40}, {"note": 78, "velocity": 78, "duration": 40}, {"note": 0, "velocity": 0, "duration": 80}, {"note": 76, "velocity": 79, "duration": 131}, {"note": 80, "velocity": 79, "duration": 293}, {"note": 0, "velocity": 0, "duration": 307}, {"note": 76, "velocity": 79, "duration": 44}, {"note": 0, "velocity": 0, "duration": 76}, {"note": 76, "velocity": 79, "duration": 43}, {"note": 0, "velocity": 0, "duration": 77}, {"note": 76, "velocity": 79, "duration": 40}, {"note": 0, "velocity": 0, "duration": 80}, {"note": 76, "velocity": 79, "duration": 64}, {"note": 71, "velocity": 79, "duration": 59}, {"note": 0, "velocity": 0, "duration": 61}, {"note": 71, "velocity": 79, "duration": 181}, {"note": 80, "velocity": 79, "duration": 178}, {"note": 78, "velocity": 79, "duration": 125}, {"note": 73, "velocity": 79, "duration": 143}, {"note": 76, "velocity": 79, "duration": 400}, {"note": 78, "velocity": 79, "duration": 132}, {"note": 76, "velocity": 79, "duration": 70}, {"note": 78, "velocity": 79, "duration": 106}, {"note": 76, "velocity": 79, "duration": 208}, {"note": 76, "velocity": 78, "duration": 90}, {"note": 80, "velocity": 78, "duration": 120}, {"note": 78, "velocity": 78, "duration": 139}, {"note": 76, "velocity": 78, "duration": 110}, {"note": 73, "velocity": 78, "duration": 161}, {"note": 0, "velocity": 0, "duration": 439}, {"note": 73, "velocity": 76, "duration": 128}, {"note": 71, "velocity": 76, "duration": 125}, {"note": 73, "velocity": 76, "duration": 124}, {"note": 71, "velocity": 76, "duration": 72}, {"note": 80, "velocity": 76, "duration": 124}, {"note": 78, "velocity": 75, "duration": 61}, {"note": 78, "velocity": 75, "duration": 106}, {"note": 76, "velocity": 75, "duration": 67}, {"note": 76, "velocity": 75, "duration": 140}, {"note": 73, "velocity": 75, "duration": 135}, {"note": 80, "velocity": 75, "duration": 93}, {"note": 78, "velocity": 75, "duration": 629}, {"note": 0, "velocity": 0, "duration": 451}, {"note": 80, "velocity": 74, "duration": 265}, {"note": 78, "velocity": 74, "duration": 59}, {"note": 0, "velocity": 0, "duration": 61}, {"note": 78, "velocity": 74, "duration": 51}, {"note": 0, "velocity": 0, "duration": 69}, {"note": 76, "velocity": 74, "duration": 120}, {"note": 0, "velocity": 0, "duration": 120}, {"note": 73, "velocity": 74, "duration": 81}, {"note": 76, "velocity": 74, "duration": 1118}, {"note": 0, "velocity": 0, "duration": 682}, {"note": 80, "velocity": 74, "duration": 145}, {"note": 83, "velocity": 74, "duration": 83}, {"note": 85, "velocity": 74, "duration": 173}, {"note": 0, "velocity": 0, "duration": 67}, {"note": 83, "velocity": 74, "duration": 50}, {"note": 0, "velocity": 0, "duration": 70}, {"note": 83, "velocity": 74, "duration": 54}, {"note": 0, "velocity": 0, "duration": 66}, {"note": 83, "velocity": 74, "duration": 118}, {"note": 80, "velocity": 74, "duration": 87}, {"note": 83, "velocity": 74, "duration": 137}, {"note": 80, "velocity": 74, "duration": 98}, {"note": 78, "velocity": 74, "duration": 150}, {"note": 83, "velocity": 74, "duration": 151}, {"note": 0, "velocity": 0, "duration": 89}, {"note": 80, "velocity": 74, "duration": 241}, {"note": 0, "velocity": 0, "duration": 119}, {"note": 80, "velocity": 74, "duration": 124}, {"note": 83, "velocity": 74, "duration": 72}, {"note": 85, "velocity": 74, "duration": 164}, {"note": 0, "velocity": 0, "duration": 76}, {"note": 83, "velocity": 74, "duration": 51}, {"note": 0, "velocity": 0, "duration": 69}, {"note": 83, "velocity": 74, "duration": 82}, {"note": 80, "velocity": 74, "duration": 162}, {"note": 0, "velocity": 0, "duration": 78}, {"note": 83, "velocity": 74, "duration": 110}, {"note": 80, "velocity": 74, "duration": 669}, {"note": 0, "velocity": 0, "duration": 171}, {"note": 80, "velocity": 74, "duration": 113}, {"note": 78, "velocity": 74, "duration": 62}, {"note": 80, "velocity": 74, "duration": 153}, {"note": 0, "velocity": 0, "duration": 87}, {"note": 78, "velocity": 74, "duration": 137}, {"note": 0, "velocity": 0, "duration": 103}, {"note": 78, "velocity": 74, "duration": 132}, {"note": 76, "velocity": 74, "duration": 158}, {"note": 0, "velocity": 0, "duration": 82}, {"note": 73, "velocity": 74, "duration": 159}, {"note": 76, "velocity": 74, "duration": 263}, {"note": 0, "velocity": 0, "duration": 88}, {"note": 73, "velocity": 74, "duration": 305}, {"note": 0, "velocity": 0, "duration": 64}, {"note": 73, "velocity": 74, "duration": 156}, {"note": 71, "velocity": 74, "duration": 118}, {"note": 80, "velocity": 74, "duration": 247}, {"note": 0, "velocity": 0, "duration": 113}, {"note": 78, "velocity": 74, "duration": 137}, {"note": 76, "velocity": 74, "duration": 122}, {"note": 73, "velocity": 74, "duration": 72}, {"note": 80, "velocity": 74, "duration": 83}, {"note": 78, "velocity": 74, "duration": 176}, {"note": 0, "velocity": 0, "duration": 664}, {"note": 80, "velocity": 74, "duration": 145}, {"note": 83, "velocity": 74, "duration": 83}, {"note": 85, "velocity": 74, "duration": 173}, {"note": 0, "velocity": 0, "duration": 67}, {"note": 83, "velocity": 74, "duration": 50}, {"note": 0, "velocity": 0, "duration": 70}, {"note": 83, "velocity": 74, "duration": 54}, {"note": 0, "velocity": 0, "duration": 66}, {"note": 83, "velocity": 74, "duration": 118}, {"note": 80, "velocity": 74, "duration": 87}, {"note": 83, "velocity": 74, "duration": 137}, {"note": 80, "velocity": 74, "duration": 98}, {"note": 78, "velocity": 74, "duration": 150}, {"note": 83, "velocity": 74, "duration": 151}, {"note": 0, "velocity": 0, "duration": 89}, {"note": 80, "velocity": 74, "duration": 241}, {"note": 0, "velocity": 0, "duration": 119}, {"note": 80, "velocity": 74, "duration": 124}, {"note": 83, "velocity": 74, "duration": 72}, {"note": 85, "velocity": 74, "duration": 164}, {"note": 0, "velocity": 0, "duration": 76}, {"note": 83, "velocity": 74, "duration": 51}, {"note": 0, "velocity": 0, "duration": 69}, {"note": 83, "velocity": 74, "duration": 82}, {"note": 80, "velocity": 74, "duration": 162}, {"note": 0, "velocity": 0, "duration": 78}, {"note": 83, "velocity": 74, "duration": 110}, {"note": 80, "velocity": 74, "duration": 669}, {"note": 0, "velocity": 0, "duration": 171}, {"note": 80, "velocity": 74, "duration": 113}, {"note": 78, "velocity": 74, "duration": 62}, {"note": 80, "velocity": 74, "duration": 153}, {"note": 0, "velocity": 0, "duration": 87}, {"note": 78, "velocity": 74, "duration": 137}, {"note": 0, "velocity": 0, "duration": 103}, {"note": 78, "velocity": 74, "duration": 132}, {"note": 76, "velocity": 74, "duration": 158}, {"note": 73, "velocity": 74, "duration": 159}, {"note": 76, "velocity": 74, "duration": 263}, {"note": 0, "velocity": 0, "duration": 88}, {"note": 73, "velocity": 74, "duration": 305}, {"note": 0, "velocity": 0, "duration": 64}, {"note": 73, "velocity": 74, "duration": 156}, {"note": 71, "velocity": 74, "duration": 118}, {"note": 80, "velocity": 74, "duration": 247}, {"note": 0, "velocity": 0, "duration": 113}, {"note": 78, "velocity": 74, "duration": 137}, {"note": 76, "velocity": 74, "duration": 122}, {"note": 73, "velocity": 74, "duration": 72}, {"note": 0, "velocity": 0, "duration": 288}, {"note": 80, "velocity": 75, "duration": 390}, {"note": 78, "velocity": 76, "duration": 88}, {"note": 76, "velocity": 76, "duration": 250}, {"note": 73, "velocity": 76, "duration": 172}, {"note": 0, "velocity": 0, "duration": 68}, {"note": 76, "velocity": 76, "duration": 1011}, {"note": 0, "velocity": 0, "duration": 1029}, {"note": 76, "velocity": 78, "duration": 49}, {"note": 0, "velocity": 0, "duration": 71}, {"note": 76, "velocity": 78, "duration": 44}, {"note": 0, "velocity": 0, "duration": 76}, {"note": 76, "velocity": 78, "duration": 46}, {"note": 0, "velocity": 0, "duration": 74}, {"note": 76, "velocity": 78, "duration": 48}, {"note": 0, "velocity": 0, "duration": 72}, {"note": 76, "velocity": 78, "duration": 42}, {"note": 0, "velocity": 0, "duration": 78}, {"note": 76, "velocity": 79, "duration": 110}, {"note": 71, "velocity": 79, "duration": 90}, {"note": 80, "velocity": 79, "duration": 172}, {"note": 78, "velocity": 79, "duration": 44}, {"note": 0, "velocity": 0, "duration": 68}, {"note": 78, "velocity": 79, "duration": 40}, {"note": 78, "velocity": 79, "duration": 40}, {"note": 0, "velocity": 0, "duration": 80}, {"note": 76, "velocity": 79, "duration": 131}, {"note": 80, "velocity": 79, "duration": 293}, {"note": 0, "velocity": 0, "duration": 307}, {"note": 76, "velocity": 81, "duration": 44}, {"note": 0, "velocity": 0, "duration": 76}, {"note": 76, "velocity": 82, "duration": 43}, {"note": 0, "velocity": 0, "duration": 77}, {"note": 76, "velocity": 82, "duration": 40}, {"note": 0, "velocity": 0, "duration": 80}, {"note": 76, "velocity": 82, "duration": 64}, {"note": 71, "velocity": 83, "duration": 59}, {"note": 0, "velocity": 0, "duration": 61}, {"note": 71, "velocity": 83, "duration": 181}, {"note": 80, "velocity": 83, "duration": 178}, {"note": 78, "velocity": 83, "duration": 125}, {"note": 73, "velocity": 83, "duration": 143}, {"note": 76, "velocity": 83, "duration": 400}, {"note": 78, "velocity": 83, "duration": 132}, {"note": 76, "velocity": 83, "duration": 70}, {"note": 78, "velocity": 83, "duration": 106}, {"note": 76, "velocity": 83, "duration": 208}, {"note": 76, "velocity": 84, "duration": 90}, {"note": 80, "velocity": 84, "duration": 120}, {"note": 78, "velocity": 84, "duration": 139}, {"note": 76, "velocity": 84, "duration": 110}, {"note": 73, "velocity": 84, "duration": 161}, {"note": 0, "velocity": 0, "duration": 439}, {"note": 73, "velocity": 85, "duration": 128}, {"note": 71, "velocity": 85, "duration": 125}, {"note": 73, "velocity": 85, "duration": 124}, {"note": 71, "velocity": 85, "duration": 72}, {"note": 80, "velocity": 85, "duration": 124}, {"note": 78, "velocity": 85, "duration": 61}, {"note": 78, "velocity": 85, "duration": 106}, {"note": 76, "velocity": 85, "duration": 67}, {"note": 76, "velocity": 85, "duration": 140}, {"note": 73, "velocity": 85, "duration": 135}, {"note": 80, "velocity": 85, "duration": 93}, {"note": 78, "velocity": 85, "duration": 629}, {"note": 0, "velocity": 0, "duration": 451}, {"note": 80, "velocity": 85, "duration": 265}, {"note": 78, "velocity": 85, "duration": 59}, {"note": 0, "velocity": 0, "duration": 61}, {"note": 78, "velocity": 85, "duration": 51}, {"note": 0, "velocity": 0, "duration": 69}, {"note": 76, "velocity": 85, "duration": 120}, {"note": 0, "velocity": 0, "duration": 120}, {"note": 73, "velocity": 85, "duration": 81}, {"note": 76, "velocity": 85, "duration": 1118}, {"note": 0, "velocity": 0, "duration": 682}, {"note": 80, "velocity": 84, "duration": 145}, {"note": 83, "velocity": 84, "duration": 83}, {"note": 85, "velocity": 84, "duration": 173}, {"note": 0, "velocity": 0, "duration": 67}, {"note": 83, "velocity": 84, "duration": 50}, {"note": 0, "velocity": 0, "duration": 70}, {"note": 83, "velocity": 84, "duration": 54}, {"note": 0, "velocity": 0, "duration": 66}, {"note": 83, "velocity": 84, "duration": 118}, {"note": 80, "velocity": 84, "duration": 87}, {"note": 83, "velocity": 84, "duration": 137}, {"note": 80, "velocity": 84, "duration": 98}, {"note": 78, "velocity": 84, "duration": 150}, {"note": 83, "velocity": 84, "duration": 151}, {"note": 0, "velocity": 0, "duration": 89}, {"note": 80, "velocity": 83, "duration": 241}, {"note": 0, "velocity": 0, "duration": 119}, {"note": 80, "velocity": 82, "duration": 124}, {"note": 83, "velocity": 81, "duration": 72}, {"note": 85, "velocity": 81, "duration": 164}, {"note": 0, "velocity": 0, "duration": 76}, {"note": 83, "velocity": 81, "duration": 51}, {"note": 0, "velocity": 0, "duration": 69}, {"note": 83, "velocity": 80, "duration": 82}, {"note": 80, "velocity": 80, "duration": 162}, {"note": 0, "velocity": 0, "duration": 78}, {"note": 83, "velocity": 80, "duration": 110}, {"note": 80, "velocity": 80, "duration": 669}, {"note": 0, "velocity": 0, "duration": 171}, {"note": 80, "velocity": 79, "duration": 113}, {"note": 78, "velocity": 79, "duration": 62}, {"note": 80, "velocity": 79, "duration": 153}, {"note": 0, "velocity": 0, "duration": 87}, {"note": 78, "velocity": 79, "duration": 137}, {"note": 0, "velocity": 0, "duration": 103}, {"note": 78, "velocity": 79, "duration": 132}, {"note": 76, "velocity": 79, "duration": 158}, {"note": 0, "velocity": 0, "duration": 82}, {"note": 73, "velocity": 79, "duration": 159}, {"note": 76, "velocity": 79, "duration": 263}, {"note": 0, "velocity": 0, "duration": 88}, {"note": 73, "velocity": 79, "duration": 305}, {"note": 0, "velocity": 0, "duration": 64}, {"note": 73, "velocity": 79, "duration": 156}, {"note": 71, "velocity": 79, "duration": 118}, {"note": 80, "velocity": 79, "duration": 247}, {"note": 0, "velocity": 0, "duration": 113}, {"note": 78, "velocity": 80, "duration": 137}, {"note": 76, "velocity": 80, "duration": 122}, {"note": 73, "velocity": 80, "duration": 72}, {"note": 80, "velocity": 81, "duration": 83}, {"note": 78, "velocity": 82, "duration": 176}, {"note": 0, "velocity": 0, "duration": 664}, {"note": 80, "velocity": 83, "duration": 145}, {"note": 83, "velocity": 83, "duration": 83}, {"note": 85, "velocity": 83, "duration": 173}, {"note": 0, "velocity": 0, "duration": 67}, {"note": 83, "velocity": 83, "duration": 50}, {"note": 0, "velocity": 0, "duration": 70}, {"note": 83, "velocity": 83, "duration": 54}, {"note": 0, "velocity": 0, "duration": 66}, {"note": 83, "velocity": 83, "duration": 118}, {"note": 80, "velocity": 83, "duration": 87}, {"note": 83, "velocity": 83, "duration": 137}, {"note": 80, "velocity": 84, "duration": 98}, {"note": 78, "velocity": 84, "duration": 150}, {"note": 83, "velocity": 84, "duration": 151}, {"note": 0, "velocity": 0, "duration": 89}, {"note": 80, "velocity": 84, "duration": 241}, {"note": 0, "velocity": 0, "duration": 119}, {"note": 80, "velocity": 84, "duration": 124}, {"note": 83, "velocity": 84, "duration": 72}, {"note": 85, "velocity": 84, "duration": 164}, {"note": 0, "velocity": 0, "duration": 76}, {"note": 83, "velocity": 84, "duration": 51}, {"note": 0, "velocity": 0, "duration": 69}, {"note": 83, "velocity": 84, "duration": 82}, {"note": 80, "velocity": 84, "duration": 162}, {"note": 0, "velocity": 0, "duration": 78}, {"note": 83, "velocity": 84, "duration": 110}, {"note": 80, "velocity": 84, "duration": 669}, {"note": 0, "velocity": 0, "duration": 171}, {"note": 80, "velocity": 84, "duration": 113}, {"note": 78, "velocity": 84, "duration": 62}, {"note": 80, "velocity": 84, "duration": 153}, {"note": 0, "velocity": 0, "duration": 87}, {"note": 78, "velocity": 83, "duration": 137}, {"note": 0, "velocity": 0, "duration": 103}, {"note": 78, "velocity": 82, "duration": 132}, {"note": 76, "velocity": 82, "duration": 158}, {"note": 73, "velocity": 81, "duration": 159}, {"note": 76, "velocity": 81, "duration": 263}, {"note": 0, "velocity": 0, "duration": 88}, {"note": 73, "velocity": 80, "duration": 305}, {"note": 0, "velocity": 0, "duration": 64}, {"note": 73, "velocity": 79, "duration": 156}, {"note": 71, "velocity": 79, "duration": 118}, {"note": 80, "velocity": 79, "duration": 247}, {"note": 0, "velocity": 0, "duration": 113}, {"note": 78, "velocity": 78, "duration": 137}, {"note": 76, "velocity": 78, "duration": 122}, {"note": 73, "velocity": 78, "duration": 72}, {"note": 0, "velocity": 0, "duration": 288}, {"note": 80, "velocity": 77, "duration": 390}, {"note": 78, "velocity": 76, "duration": 88}, {"note": 76, "velocity": 76, "duration": 250}, {"note": 73, "velocity": 76, "duration": 172}, {"note": 0, "velocity": 0, "duration": 68}, {"note": 76, "velocity": 75, "duration": 1011}, {"note": 0, "velocity": 0, "duration": 909}, {"note": 81, "velocity": 76, "duration": 242}, {"note": 80, "velocity": 76, "duration": 269}, {"note": 78, "velocity": 76, "duration": 287}, {"note": 76, "velocity": 79, "duration": 74}, {"note": 81, "velocity": 80, "duration": 194}, {"note": 0, "velocity": 0, "duration": 166}, {"note": 80, "velocity": 80, "duration": 39}, {"note": 0, "velocity": 0, "duration": 81}, {"note": 80, "velocity": 80, "duration": 68}, {"note": 78, "velocity": 80, "duration": 99}, {"note": 80, "velocity": 80, "duration": 298}, {"note": 0, "velocity": 0, "duration": 62}, {"note": 76, "velocity": 80, "duration": 867}, {"note": 0, "velocity": 0, "duration": 693}, {"note": 78, "velocity": 80, "duration": 86}, {"note": 80, "velocity": 80, "duration": 136}, {"note": 76, "velocity": 80, "duration": 122}, {"note": 81, "velocity": 80, "duration": 215}, {"note": 80, "velocity": 81, "duration": 260}, {"note": 78, "velocity": 82, "duration": 221}, {"note": 76, "velocity": 82, "duration": 69}, {"note": 81, "velocity": 83, "duration": 269}, {"note": 0, "velocity": 0, "duration": 91}, {"note": 80, "velocity": 83, "duration": 175}, {"note": 0, "velocity": 0, "duration": 65}, {"note": 78, "velocity": 83, "duration": 205}, {"note": 80, "velocity": 83, "duration": 203}, {"note": 0, "velocity": 0, "duration": 157}, {"note": 81, "velocity": 83, "duration": 960}, {"note": 83, "velocity": 83, "duration": 1439}, {"note": 0, "velocity": 0, "duration": 241}, {"note": 80, "velocity": 85, "duration": 145}, {"note": 83, "velocity": 85, "duration": 83}, {"note": 85, "velocity": 86, "duration": 173}, {"note": 0, "velocity": 0, "duration": 67}, {"note": 83, "velocity": 86, "duration": 50}, {"note": 0, "velocity": 0, "duration": 70}, {"note": 83, "velocity": 87, "duration": 54}, {"note": 0, "velocity": 0, "duration": 66}, {"note": 83, "velocity": 88, "duration": 118}, {"note": 80, "velocity": 87, "duration": 87}, {"note": 83, "velocity": 88, "duration": 137}, {"note": 80, "velocity": 88, "duration": 98}, {"note": 78, "velocity": 89, "duration": 150}, {"note": 83, "velocity": 89, "duration": 151}, {"note": 0, "velocity": 0, "duration": 89}, {"note": 80, "velocity": 89, "duration": 241}, {"note": 0, "velocity": 0, "duration": 119}, {"note": 80, "velocity": 90, "duration": 124}, {"note": 83, "velocity": 90, "duration": 72}, {"note": 85, "velocity": 90, "duration": 164}, {"note": 0, "velocity": 0, "duration": 76}, {"note": 83, "velocity": 90, "duration": 51}, {"note": 0, "velocity": 0, "duration": 69}, {"note": 83, "velocity": 91, "duration": 82}, {"note": 80, "velocity": 91, "duration": 162}, {"note": 0, "velocity": 0, "duration": 78}, {"note": 83, "velocity": 91, "duration": 110}, {"note": 80, "velocity": 92, "duration": 669}, {"note": 0, "velocity": 0, "duration": 171}, {"note": 80, "velocity": 92, "duration": 113}, {"note": 78, "velocity": 92, "duration": 62}, {"note": 80, "velocity": 92, "duration": 153}, {"note": 0, "velocity": 0, "duration": 87}, {"note": 78, "velocity": 92, "duration": 137}, {"note": 0, "velocity": 0, "duration": 103}, {"note": 78, "velocity": 92, "duration": 132}, {"note": 76, "velocity": 92, "duration": 158}, {"note": 0, "velocity": 0, "duration": 82}, {"note": 73, "velocity": 92, "duration": 159}, {"note": 76, "velocity": 92, "duration": 263}, {"note": 0, "velocity": 0, "duration": 88}, {"note": 73, "velocity": 91, "duration": 305}, {"note": 0, "velocity": 0, "duration": 64}, {"note": 73, "velocity": 91, "duration": 156}, {"note": 71, "velocity": 91, "duration": 118}, {"note": 80, "velocity": 91, "duration": 247}, {"note": 0, "velocity": 0, "duration": 113}, {"note": 78, "velocity": 91, "duration": 137}, {"note": 76, "velocity": 91, "duration": 122}, {"note": 73, "velocity": 91, "duration": 72}, {"note": 80, "velocity": 91, "duration": 83}, {"note": 78, "velocity": 91, "duration": 176}, {"note": 0, "velocity": 0, "duration": 664}, {"note": 80, "velocity": 89, "duration": 145}, {"note": 83, "velocity": 89, "duration": 83}, {"note": 85, "velocity": 89, "duration": 173}, {"note": 0, "velocity": 0, "duration": 67}, {"note": 83, "velocity": 88, "duration": 50}, {"note": 0, "velocity": 0, "duration": 70}, {"note": 83, "velocity": 88, "duration": 54}, {"note": 0, "velocity": 0, "duration": 66}, {"note": 83, "velocity": 88, "duration": 118}, {"note": 80, "velocity": 88, "duration": 87}, {"note": 83, "velocity": 88, "duration": 137}, {"note": 80, "velocity": 88, "duration": 98}, {"note": 78, "velocity": 88, "duration": 150}, {"note": 83, "velocity": 88, "duration": 151}, {"note": 0, "velocity": 0, "duration": 89}, {"note": 80, "velocity": 88, "duration": 241}, {"note": 0, "velocity": 0, "duration": 119}, {"note": 80, "velocity": 88, "duration": 124}, {"note": 83, "velocity": 88, "duration": 72}, {"note": 85, "velocity": 88, "duration": 164}, {"note": 0, "velocity": 0, "duration": 76}, {"note": 83, "velocity": 88, "duration": 51}, {"note": 0, "velocity": 0, "duration": 69}, {"note": 83, "velocity": 88, "duration": 82}, {"note": 80, "velocity": 88, "duration": 162}, {"note": 0, "velocity": 0, "duration": 78}, {"note": 83, "velocity": 88, "duration": 110}, {"note": 80, "velocity": 88, "duration": 669}, {"note": 0, "velocity": 0, "duration": 171}, {"note": 80, "velocity": 88, "duration": 113}, {"note": 78, "velocity": 88, "duration": 62}, {"note": 80, "velocity": 88, "duration": 153}, {"note": 0, "velocity": 0, "duration": 87}, {"note": 78, "velocity": 88, "duration": 137}, {"note": 0, "velocity": 0, "duration": 103}, {"note": 78, "velocity": 88, "duration": 132}, {"note": 76, "velocity": 88, "duration": 158}, {"note": 73, "velocity": 88, "duration": 159}, {"note": 76, "velocity": 88, "duration": 263}, {"note": 0, "velocity": 0, "duration": 88}, {"note": 73, "velocity": 88, "duration": 305}, {"note": 0, "velocity": 0, "duration": 64}, {"note": 73, "velocity": 88, "duration": 156}, {"note": 71, "velocity": 88, "duration": 118}, {"note": 80, "velocity": 88, "duration": 247}, {"note": 0, "velocity": 0, "duration": 113}, {"note": 78, "velocity": 87, "duration": 137}, {"note": 76, "velocity": 87, "duration": 122}, {"note": 73, "velocity": 86, "duration": 72}, {"note": 0, "velocity": 0, "duration": 288}, {"note": 80, "velocity": 85, "duration": 390}, {"note": 78, "velocity": 85, "duration": 88}, {"note": 76, "velocity": 85, "duration": 250}, {"note": 73, "velocity": 85, "duration": 172}, {"note": 0, "velocity": 0, "duration": 68}, {"note": 76, "velocity": 85, "duration": 1011}]]