[[{"note": 70, "velocity": 107, "duration": 360}, {"note": 69, "velocity": 86, "duration": 415}, {"note": 62, "velocity": 86, "duration": 1440}, {"note": 70, "velocity": 85, "duration": 279}, {"note": 69, "velocity": 88, "duration": 246}, {"note": 70, "velocity": 92, "duration": 240}, {"note": 72, "velocity": 96, "duration": 240}, {"note": 70, "velocity": 85, "duration": 248}, {"note": 69, "velocity": 66, "duration": 295}, {"note": 70, "velocity": 107, "duration": 250}, {"note": 69, "velocity": 100, "duration": 394}, {"note": 65, "velocity": 89, "duration": 480}, {"note": 62, "velocity": 81, "duration": 3000}, {"note": 70, "velocity": 117, "duration": 382}, {"note": 69, "velocity": 78, "duration": 382}, {"note": 62, "velocity": 72, "duration": 1440}, {"note": 70, "velocity": 99, "duration": 263}, {"note": 69, "velocity": 88, "duration": 244}, {"note": 70, "velocity": 102, "duration": 240}, {"note": 72, "velocity": 95, "duration": 257}, {"note": 70, "velocity": 99, "duration": 282}, {"note": 69, "velocity": 88, "duration": 248}, {"note": 70, "velocity": 93, "duration": 263}, {"note": 69, "velocity": 100, "duration": 498}, {"note": 67, "velocity": 96, "duration": 250}, {"note": 62, "velocity": 97, "duration": 3120}, {"note": 70, "velocity": 107, "duration": 720}, {"note": 67, "velocity": 96, "duration": 480}, {"note": 74, "velocity": 99, "duration": 720}, {"note": 72, "velocity": 102, "duration": 1440}, {"note": 69, "velocity": 112, "duration": 239}, {"note": 69, "velocity": 95, "duration": 239}, {"note": 69, "velocity": 102, "duration": 480}, {"note": 65, "velocity": 93, "duration": 239}, {"note": 65, "velocity": 97, "duration": 480}, {"note": 72, "velocity": 93, "duration": 480}, {"note": 70, "velocity": 100, "duration": 1920}, {"note": 69, "velocity": 102, "duration": 240}, {"note": 70, "velocity": 112, "duration": 480}, {"note": 70, "velocity": 127, "duration": 240}, {"note": 67, "velocity": 102, "duration": 480}, {"note": 74, "velocity": 100, "duration": 480}, {"note": 72, "velocity": 96, "duration": 960}, {"note": 70, "velocity": 95, "duration": 239}, {"note": 70, "velocity": 112, "duration": 360}, {"note": 67, "velocity": 100, "duration": 360}, {"note": 74, "velocity": 102, "duration": 480}, {"note": 72, "velocity": 112, "duration": 2400}, {"note": 74, "velocity": 97, "duration": 240}, {"note": 73, "velocity": 117, "duration": 360}, {"note": 74, "velocity": 112, "duration": 360}, {"note": 79, "velocity": 122, "duration": 1319}, {"note": 79, "velocity": 117, "duration": 360}, {"note": 77, "velocity": 102, "duration": 242}, {"note": 74, "velocity": 102, "duration": 480}, {"note": 72, "velocity": 102, "duration": 596}, {"note": 72, "velocity": 97, "duration": 116}, {"note": 0, "velocity": 0, "duration": 124}, {"note": 72, "velocity": 97, "duration": 240}, {"note": 70, "velocity": 99, "duration": 240}, {"note": 72, "velocity": 122, "duration": 240}, {"note": 77, "velocity": 122, "duration": 1440}, {"note": 74, "velocity": 102, "duration": 239}, {"note": 74, "velocity": 102, "duration": 240}, {"note": 72, "velocity": 82, "duration": 240}, {"note": 70, "velocity": 92, "duration": 257}, {"note": 74, "velocity": 99, "duration": 2159}, {"note": 74, "velocity": 107, "duration": 240}, {"note": 67, "velocity": 92, "duration": 240}, {"note": 69, "velocity": 117, "duration": 240}, {"note": 70, "velocity": 117, "duration": 480}, {"note": 72, "velocity": 112, "duration": 605}, {"note": 65, "velocity": 96, "duration": 239}, {"note": 65, "velocity": 112, "duration": 239}, {"note": 65, "velocity": 102, "duration": 240}, {"note": 72, "velocity": 122, "duration": 255}, {"note": 75, "velocity": 127, "duration": 480}, {"note": 74, "velocity": 127, "duration": 2879}, {"note": 74, "velocity": 93, "duration": 240}, {"note": 73, "velocity": 127, "duration": 418}, {"note": 74, "velocity": 107, "duration": 360}, {"note": 79, "velocity": 117, "duration": 1082}, {"note": 79, "velocity": 102, "duration": 122}, {"note": 0, "velocity": 0, "duration": 118}, {"note": 79, "velocity": 127, "duration": 480}, {"note": 77, "velocity": 127, "duration": 240}, {"note": 74, "velocity": 127, "duration": 480}, {"note": 72, "velocity": 127, "duration": 479}, {"note": 72, "velocity": 122, "duration": 239}, {"note": 72, "velocity": 112, "duration": 240}, {"note": 70, "velocity": 99, "duration": 240}, {"note": 72, "velocity": 112, "duration": 240}, {"note": 77, "velocity": 122, "duration": 1440}, {"note": 74, "velocity": 122, "duration": 239}, {"note": 74, "velocity": 97, "duration": 240}, {"note": 72, "velocity": 99, "duration": 240}, {"note": 70, "velocity": 92, "duration": 240}, {"note": 74, "velocity": 117, "duration": 2160}, {"note": 75, "velocity": 112, "duration": 240}, {"note": 67, "velocity": 93, "duration": 248}, {"note": 69, "velocity": 97, "duration": 280}, {"note": 70, "velocity": 107, "duration": 480}, {"note": 72, "velocity": 127, "duration": 771}, {"note": 65, "velocity": 99, "duration": 239}, {"note": 65, "velocity": 100, "duration": 240}, {"note": 74, "velocity": 122, "duration": 600}, {"note": 72, "velocity": 102, "duration": 360}, {"note": 70, "velocity": 112, "duration": 2640}, {"note": 74, "velocity": 97, "duration": 240}, {"note": 73, "velocity": 117, "duration": 360}, {"note": 74, "velocity": 112, "duration": 360}, {"note": 79, "velocity": 122, "duration": 1439}, {"note": 79, "velocity": 117, "duration": 240}, {"note": 77, "velocity": 102, "duration": 242}, {"note": 74, "velocity": 102, "duration": 480}, {"note": 72, "velocity": 102, "duration": 479}, {"note": 72, "velocity": 97, "duration": 239}, {"note": 72, "velocity": 97, "duration": 240}, {"note": 70, "velocity": 99, "duration": 240}, {"note": 72, "velocity": 122, "duration": 240}, {"note": 77, "velocity": 122, "duration": 1440}, {"note": 74, "velocity": 102, "duration": 239}, {"note": 74, "velocity": 102, "duration": 240}, {"note": 72, "velocity": 82, "duration": 240}, {"note": 70, "velocity": 92, "duration": 257}, {"note": 74, "velocity": 99, "duration": 2159}, {"note": 74, "velocity": 107, "duration": 240}, {"note": 67, "velocity": 92, "duration": 240}, {"note": 69, "velocity": 117, "duration": 240}, {"note": 70, "velocity": 117, "duration": 480}, {"note": 72, "velocity": 112, "duration": 605}, {"note": 65, "velocity": 96, "duration": 239}, {"note": 65, "velocity": 112, "duration": 239}, {"note": 65, "velocity": 102, "duration": 240}, {"note": 72, "velocity": 122, "duration": 480}, {"note": 74, "velocity": 127, "duration": 240}, {"note": 75, "velocity": 127, "duration": 480}, {"note": 74, "velocity": 127, "duration": 2399}, {"note": 74, "velocity": 93, "duration": 240}, {"note": 73, "velocity": 127, "duration": 418}, {"note": 74, "velocity": 107, "duration": 360}, {"note": 79, "velocity": 117, "duration": 1082}, {"note": 79, "velocity": 102, "duration": 122}, {"note": 0, "velocity": 0, "duration": 118}, {"note": 79, "velocity": 127, "duration": 480}, {"note": 77, "velocity": 127, "duration": 240}, {"note": 74, "velocity": 127, "duration": 480}, {"note": 72, "velocity": 127, "duration": 479}, {"note": 72, "velocity": 122, "duration": 239}, {"note": 72, "velocity": 112, "duration": 240}, {"note": 70, "velocity": 117, "duration": 240}, {"note": 72, "velocity": 112, "duration": 240}, {"note": 77, "velocity": 122, "duration": 1440}, {"note": 74, "velocity": 122, "duration": 239}, {"note": 74, "velocity": 97, "duration": 240}, {"note": 72, "velocity": 99, "duration": 240}, {"note": 70, "velocity": 92, "duration": 240}, {"note": 74, "velocity": 117, "duration": 2160}, {"note": 75, "velocity": 112, "duration": 240}, {"note": 67, "velocity": 93, "duration": 248}, {"note": 69, "velocity": 97, "duration": 280}, {"note": 70, "velocity": 107, "duration": 480}, {"note": 72, "velocity": 127, "duration": 771}, {"note": 65, "velocity": 99, "duration": 239}, {"note": 65, "velocity": 100, "duration": 240}, {"note": 74, "velocity": 122, "duration": 600}, {"note": 72, "velocity": 102, "duration": 360}, {"note": 70, "velocity": 112, "duration": 2438}, {"note": 0, "velocity": 0, "duration": 14842}, {"note": 70, "velocity": 107, "duration": 360}, {"note": 69, "velocity": 86, "duration": 415}, {"note": 62, "velocity": 86, "duration": 1440}, {"note": 70, "velocity": 85, "duration": 279}, {"note": 69, "velocity": 88, "duration": 246}, {"note": 70, "velocity": 92, "duration": 240}, {"note": 72, "velocity": 96, "duration": 240}, {"note": 70, "velocity": 85, "duration": 248}, {"note": 69, "velocity": 66, "duration": 295}, {"note": 70, "velocity": 107, "duration": 250}, {"note": 69, "velocity": 100, "duration": 394}, {"note": 65, "velocity": 89, "duration": 480}, {"note": 62, "velocity": 81, "duration": 3000}, {"note": 70, "velocity": 117, "duration": 382}, {"note": 69, "velocity": 78, "duration": 382}, {"note": 62, "velocity": 72, "duration": 1440}, {"note": 70, "velocity": 99, "duration": 263}, {"note": 69, "velocity": 88, "duration": 244}, {"note": 70, "velocity": 102, "duration": 240}, {"note": 72, "velocity": 95, "duration": 257}, {"note": 70, "velocity": 99, "duration": 282}, {"note": 69, "velocity": 88, "duration": 248}, {"note": 70, "velocity": 93, "duration": 263}, {"note": 69, "velocity": 100, "duration": 498}, {"note": 67, "velocity": 96, "duration": 250}, {"note": 62, "velocity": 97, "duration": 3120}, {"note": 70, "velocity": 107, "duration": 720}, {"note": 67, "velocity": 96, "duration": 480}, {"note": 74, "velocity": 99, "duration": 720}, {"note": 72, "velocity": 102, "duration": 1440}, {"note": 69, "velocity": 112, "duration": 239}, {"note": 69, "velocity": 95, "duration": 239}, {"note": 69, "velocity": 102, "duration": 480}, {"note": 65, "velocity": 93, "duration": 239}, {"note": 65, "velocity": 97, "duration": 480}, {"note": 72, "velocity": 93, "duration": 480}, {"note": 70, "velocity": 100, "duration": 1920}, {"note": 69, "velocity": 102, "duration": 240}, {"note": 70, "velocity": 112, "duration": 480}, {"note": 70, "velocity": 127, "duration": 240}, {"note": 67, "velocity": 102, "duration": 480}, {"note": 74, "velocity": 100, "duration": 480}, {"note": 72, "velocity": 96, "duration": 960}, {"note": 70, "velocity": 95, "duration": 239}, {"note": 70, "velocity": 112, "duration": 360}, {"note": 67, "velocity": 100, "duration": 360}, {"note": 74, "velocity": 102, "duration": 480}, {"note": 72, "velocity": 112, "duration": 2400}, {"note": 74, "velocity": 97, "duration": 240}, {"note": 73, "velocity": 117, "duration": 360}, {"note": 74, "velocity": 112, "duration": 360}, {"note": 79, "velocity": 122, "duration": 1319}, {"note": 79, "velocity": 117, "duration": 360}, {"note": 77, "velocity": 102, "duration": 242}, {"note": 74, "velocity": 102, "duration": 480}, {"note": 72, "velocity": 102, "duration": 596}, {"note": 72, "velocity": 97, "duration": 116}, {"note": 0, "velocity": 0, "duration": 124}, {"note": 72, "velocity": 97, "duration": 240}, {"note": 70, "velocity": 99, "duration": 240}, {"note": 72, "velocity": 122, "duration": 240}, {"note": 77, "velocity": 122, "duration": 1440}, {"note": 74, "velocity": 102, "duration": 239}, {"note": 74, "velocity": 102, "duration": 240}, {"note": 72, "velocity": 82, "duration": 240}, {"note": 70, "velocity": 92, "duration": 257}, {"note": 74, "velocity": 99, "duration": 2159}, {"note": 74, "velocity": 107, "duration": 240}, {"note": 67, "velocity": 92, "duration": 240}, {"note": 69, "velocity": 117, "duration": 240}, {"note": 70, "velocity": 117, "duration": 480}, {"note": 72, "velocity": 112, "duration": 605}, {"note": 65, "velocity": 96, "duration": 239}, {"note": 65, "velocity": 112, "duration": 239}, {"note": 65, "velocity": 102, "duration": 240}, {"note": 72, "velocity": 122, "duration": 255}, {"note": 75, "velocity": 127, "duration": 480}, {"note": 74, "velocity": 127, "duration": 2879}, {"note": 74, "velocity": 93, "duration": 240}, {"note": 73, "velocity": 127, "duration": 418}, {"note": 74, "velocity": 107, "duration": 360}, {"note": 79, "velocity": 117, "duration": 1082}, {"note": 79, "velocity": 102, "duration": 122}, {"note": 0, "velocity": 0, "duration": 118}, {"note": 79, "velocity": 127, "duration": 480}, {"note": 77, "velocity": 127, "duration": 240}, {"note": 74, "velocity": 127, "duration": 480}, {"note": 72, "velocity": 127, "duration": 479}, {"note": 72, "velocity": 122, "duration": 239}, {"note": 72, "velocity": 112, "duration": 240}, {"note": 70, "velocity": 99, "duration": 240}, {"note": 72, "velocity": 112, "duration": 240}, {"note": 77, "velocity": 122, "duration": 1440}, {"note": 74, "velocity": 122, "duration": 239}, {"note": 74, "velocity": 97, "duration": 240}, {"note": 72, "velocity": 99, "duration": 240}, {"note": 70, "velocity": 92, "duration": 240}, {"note": 74, "velocity": 117, "duration": 2160}, {"note": 75, "velocity": 112, "duration": 240}, {"note": 67, "velocity": 93, "duration": 248}, {"note": 69, "velocity": 97, "duration": 280}, {"note": 70, "velocity": 107, "duration": 480}, {"note": 72, "velocity": 127, "duration": 771}, {"note": 65, "velocity": 99, "duration": 239}, {"note": 65, "velocity": 100, "duration": 240}, {"note": 74, "velocity": 122, "duration": 600}, {"note": 72, "velocity": 102, "duration": 360}, {"note": 70, "velocity": 112, "duration": 2640}, {"note": 74, "velocity": 97, "duration": 240}, {"note": 73, "velocity": 117, "duration": 360}, {"note": 74, "velocity": 112, "duration": 360}, {"note": 79, "velocity": 122, "duration": 1439}, {"note": 79, "velocity": 117, "duration": 240}, {"note": 77, "velocity": 102, "duration": 242}, {"note": 74, "velocity": 102, "duration": 480}, {"note": 72, "velocity": 102, "duration": 479}, {"note": 72, "velocity": 97, "duration": 239}, {"note": 72, "velocity": 97, "duration": 240}, {"note": 70, "velocity": 99, "duration": 240}, {"note": 72, "velocity": 122, "duration": 240}, {"note": 77, "velocity": 122, "duration": 1440}, {"note": 74, "velocity": 102, "duration": 239}, {"note": 74, "velocity": 102, "duration": 240}, {"note": 72, "velocity": 82, "duration": 240}, {"note": 70, "velocity": 92, "duration": 257}, {"note": 74, "velocity": 99, "duration": 2159}, {"note": 74, "velocity": 107, "duration": 240}, {"note": 67, "velocity": 92, "duration": 240}, {"note": 69, "velocity": 117, "duration": 240}, {"note": 70, "velocity": 117, "duration": 480}, {"note": 72, "velocity": 112, "duration": 605}, {"note": 65, "velocity": 96, "duration": 239}, {"note": 65, "velocity": 112, "duration": 239}, {"note": 65, "velocity": 102, "duration": 240}, {"note": 72, "velocity": 122, "duration": 480}, {"note": 74, "velocity": 127, "duration": 240}, {"note": 75, "velocity": 127, "duration": 480}, {"note": 74, "velocity": 127, "duration": 2399}, {"note": 74, "velocity": 93, "duration": 240}, {"note": 73, "velocity": 127, "duration": 418}, {"note": 74, "velocity": 107, "duration": 360}, {"note": 79, "velocity": 117, "duration": 1082}, {"note": 79, "velocity": 102, "duration": 122}, {"note": 0, "velocity": 0, "duration": 118}, {"note": 79, "velocity": 127, "duration": 480}, {"note": 77, "velocity": 127, "duration": 240}, {"note": 74, "velocity": 127, "duration": 480}, {"note": 72, "velocity": 127, "duration": 479}, {"note": 72, "velocity": 122, "duration": 239}, {"note": 72, "velocity": 112, "duration": 240}, {"note": 70, "velocity": 117, "duration": 240}, {"note": 72, "velocity": 112, "duration": 240}, {"note": 77, "velocity": 122, "duration": 1440}, {"note": 74, "velocity": 122, "duration": 239}, {"note": 74, "velocity": 97, "duration": 240}, {"note": 72, "velocity": 99, "duration": 240}, {"note": 70, "velocity": 92, "duration": 240}, {"note": 74, "velocity": 117, "duration": 1920}, {"note": 75, "velocity": 100, "duration": 239}, {"note": 75, "velocity": 112, "duration": 240}, {"note": 67, "velocity": 93, "duration": 248}, {"note": 69, "velocity": 97, "duration": 280}, {"note": 70, "velocity": 107, "duration": 480}, {"note": 72, "velocity": 127, "duration": 1200}, {"note": 74, "velocity": 96, "duration": 720}, {"note": 65, "velocity": 86, "duration": 259}, {"note": 72, "velocity": 95, "duration": 335}, {"note": 70, "velocity": 90, "duration": 2198}]]