[[{"note": 68, "velocity": 84, "duration": 188}, {"note": 69, "velocity": 84, "duration": 188}, {"note": 71, "velocity": 84, "duration": 182}, {"note": 71, "velocity": 84, "duration": 51}, {"note": 0, "velocity": 0, "duration": 69}, {"note": 71, "velocity": 84, "duration": 91}, {"note": 0, "velocity": 0, "duration": 269}, {"note": 71, "velocity": 84, "duration": 51}, {"note": 0, "velocity": 0, "duration": 69}, {"note": 71, "velocity": 84, "duration": 33}, {"note": 0, "velocity": 0, "duration": 207}, {"note": 71, "velocity": 84, "duration": 202}, {"note": 75, "velocity": 84, "duration": 234}, {"note": 0, "velocity": 0, "duration": 126}, {"note": 76, "velocity": 84, "duration": 185}, {"note": 0, "velocity": 0, "duration": 175}, {"note": 76, "velocity": 84, "duration": 680}, {"note": 0, "velocity": 0, "duration": 720}, {"note": 80, "velocity": 85, "duration": 40}, {"note": 0, "velocity": 0, "duration": 80}, {"note": 80, "velocity": 85, "duration": 37}, {"note": 0, "velocity": 0, "duration": 83}, {"note": 80, "velocity": 85, "duration": 263}, {"note": 81, "velocity": 85, "duration": 105}, {"note": 76, "velocity": 85, "duration": 303}, {"note": 0, "velocity": 0, "duration": 177}, {"note": 73, "velocity": 85, "duration": 82}, {"note": 72, "velocity": 85, "duration": 156}, {"note": 0, "velocity": 0, "duration": 84}, {"note": 72, "velocity": 85, "duration": 165}, {"note": 0, "velocity": 0, "duration": 75}, {"note": 78, "velocity": 85, "duration": 176}, {"note": 0, "velocity": 0, "duration": 64}, {"note": 80, "velocity": 85, "duration": 51}, {"note": 0, "velocity": 0, "duration": 69}, {"note": 80, "velocity": 85, "duration": 471}, {"note": 0, "velocity": 0, "duration": 609}, {"note": 71, "velocity": 85, "duration": 110}, {"note": 80, "velocity": 85, "duration": 59}, {"note": 0, "velocity": 0, "duration": 61}, {"note": 80, "velocity": 85, "duration": 51}, {"note": 0, "velocity": 0, "duration": 69}, {"note": 80, "velocity": 85, "duration": 190}, {"note": 81, "velocity": 85, "duration": 59}, {"note": 0, "velocity": 0, "duration": 61}, {"note": 83, "velocity": 85, "duration": 215}, {"note": 0, "velocity": 0, "duration": 145}, {"note": 76, "velocity": 85, "duration": 78}, {"note": 78, "velocity": 85, "duration": 814}, {"note": 0, "velocity": 0, "duration": 266}, {"note": 80, "velocity": 85, "duration": 126}, {"note": 0, "velocity": 0, "duration": 114}, {"note": 81, "velocity": 85, "duration": 57}, {"note": 0, "velocity": 0, "duration": 63}, {"note": 83, "velocity": 85, "duration": 270}, {"note": 0, "velocity": 0, "duration": 90}, {"note": 71, "velocity": 85, "duration": 55}, {"note": 0, "velocity": 0, "duration": 65}, {"note": 77, "velocity": 85, "duration": 453}, {"note": 0, "velocity": 0, "duration": 147}, {"note": 80, "velocity": 85, "duration": 68}, {"note": 81, "velocity": 85, "duration": 55}, {"note": 0, "velocity": 0, "duration": 65}, {"note": 83, "velocity": 85, "duration": 59}, {"note": 0, "velocity": 0, "duration": 61}, {"note": 78, "velocity": 85, "duration": 252}, {"note": 76, "velocity": 85, "duration": 104}, {"note": 0, "velocity": 0, "duration": 256}, {"note": 80, "velocity": 85, "duration": 73}, {"note": 81, "velocity": 85, "duration": 62}, {"note": 83, "velocity": 85, "duration": 43}, {"note": 0, "velocity": 0, "duration": 77}, {"note": 78, "velocity": 85, "duration": 258}, {"note": 76, "velocity": 85, "duration": 94}, {"note": 0, "velocity": 0, "duration": 266}, {"note": 80, "velocity": 85, "duration": 60}, {"note": 81, "velocity": 85, "duration": 56}, {"note": 0, "velocity": 0, "duration": 64}, {"note": 83, "velocity": 85, "duration": 71}, {"note": 78, "velocity": 85, "duration": 283}, {"note": 0, "velocity": 0, "duration": 77}, {"note": 76, "velocity": 85, "duration": 1453}, {"note": 0, "velocity": 0, "duration": 227}, {"note": 71, "velocity": 86, "duration": 166}, {"note": 0, "velocity": 0, "duration": 74}, {"note": 71, "velocity": 86, "duration": 57}, {"note": 0, "velocity": 0, "duration": 63}, {"note": 71, "velocity": 86, "duration": 206}, {"note": 0, "velocity": 0, "duration": 154}, {"note": 71, "velocity": 86, "duration": 58}, {"note": 0, "velocity": 0, "duration": 62}, {"note": 71, "velocity": 86, "duration": 220}, {"note": 0, "velocity": 0, "duration": 140}, {"note": 71, "velocity": 86, "duration": 141}, {"note": 78, "velocity": 86, "duration": 252}, {"note": 0, "velocity": 0, "duration": 108}, {"note": 75, "velocity": 86, "duration": 134}, {"note": 0, "velocity": 0, "duration": 106}, {"note": 76, "velocity": 86, "duration": 999}, {"note": 0, "velocity": 0, "duration": 681}, {"note": 80, "velocity": 86, "duration": 42}, {"note": 0, "velocity": 0, "duration": 78}, {"note": 80, "velocity": 86, "duration": 47}, {"note": 0, "velocity": 0, "duration": 73}, {"note": 80, "velocity": 86, "duration": 144}, {"note": 0, "velocity": 0, "duration": 96}, {"note": 81, "velocity": 86, "duration": 89}, {"note": 76, "velocity": 86, "duration": 255}, {"note": 0, "velocity": 0, "duration": 225}, {"note": 73, "velocity": 86, "duration": 39}, {"note": 0, "velocity": 0, "duration": 81}, {"note": 72, "velocity": 86, "duration": 143}, {"note": 0, "velocity": 0, "duration": 97}, {"note": 72, "velocity": 86, "duration": 123}, {"note": 0, "velocity": 0, "duration": 117}, {"note": 78, "velocity": 86, "duration": 179}, {"note": 0, "velocity": 0, "duration": 61}, {"note": 80, "velocity": 86, "duration": 46}, {"note": 0, "velocity": 0, "duration": 74}, {"note": 80, "velocity": 86, "duration": 1067}, {"note": 0, "velocity": 0, "duration": 613}, {"note": 71, "velocity": 86, "duration": 59}, {"note": 0, "velocity": 0, "duration": 61}, {"note": 80, "velocity": 86, "duration": 48}, {"note": 0, "velocity": 0, "duration": 72}, {"note": 80, "velocity": 86, "duration": 47}, {"note": 0, "velocity": 0, "duration": 73}, {"note": 80, "velocity": 87, "duration": 160}, {"note": 0, "velocity": 0, "duration": 80}, {"note": 81, "velocity": 87, "duration": 57}, {"note": 0, "velocity": 0, "duration": 63}, {"note": 83, "velocity": 87, "duration": 227}, {"note": 0, "velocity": 0, "duration": 133}, {"note": 76, "velocity": 88, "duration": 172}, {"note": 0, "velocity": 0, "duration": 68}, {"note": 78, "velocity": 88, "duration": 597}, {"note": 80, "velocity": 88, "duration": 151}, {"note": 0, "velocity": 0, "duration": 89}, {"note": 81, "velocity": 88, "duration": 51}, {"note": 0, "velocity": 0, "duration": 69}, {"note": 83, "velocity": 88, "duration": 226}, {"note": 0, "velocity": 0, "duration": 134}, {"note": 71, "velocity": 88, "duration": 198}, {"note": 77, "velocity": 88, "duration": 590}, {"note": 80, "velocity": 88, "duration": 68}, {"note": 81, "velocity": 88, "duration": 60}, {"note": 83, "velocity": 88, "duration": 67}, {"note": 78, "velocity": 88, "duration": 140}, {"note": 76, "velocity": 88, "duration": 96}, {"note": 0, "velocity": 0, "duration": 264}, {"note": 80, "velocity": 89, "duration": 70}, {"note": 81, "velocity": 89, "duration": 66}, {"note": 83, "velocity": 89, "duration": 74}, {"note": 78, "velocity": 89, "duration": 263}, {"note": 76, "velocity": 89, "duration": 104}, {"note": 0, "velocity": 0, "duration": 256}, {"note": 80, "velocity": 89, "duration": 63}, {"note": 81, "velocity": 89, "duration": 54}, {"note": 0, "velocity": 0, "duration": 66}, {"note": 83, "velocity": 89, "duration": 63}, {"note": 78, "velocity": 89, "duration": 135}, {"note": 0, "velocity": 0, "duration": 105}, {"note": 76, "velocity": 89, "duration": 836}, {"note": 0, "velocity": 0, "duration": 124}, {"note": 71, "velocity": 89, "duration": 173}, {"note": 0, "velocity": 0, "duration": 67}, {"note": 83, "velocity": 89, "duration": 181}, {"note": 81, "velocity": 89, "duration": 57}, {"note": 0, "velocity": 0, "duration": 63}, {"note": 80, "velocity": 89, "duration": 112}, {"note": 0, "velocity": 0, "duration": 128}, {"note": 71, "velocity": 89, "duration": 134}, {"note": 0, "velocity": 0, "duration": 106}, {"note": 83, "velocity": 89, "duration": 141}, {"note": 0, "velocity": 0, "duration": 99}, {"note": 81, "velocity": 89, "duration": 67}, {"note": 80, "velocity": 89, "duration": 220}, {"note": 0, "velocity": 0, "duration": 140}, {"note": 71, "velocity": 89, "duration": 128}, {"note": 83, "velocity": 89, "duration": 148}, {"note": 0, "velocity": 0, "duration": 92}, {"note": 81, "velocity": 89, "duration": 54}, {"note": 0, "velocity": 0, "duration": 66}, {"note": 78, "velocity": 89, "duration": 45}, {"note": 0, "velocity": 0, "duration": 75}, {"note": 76, "velocity": 90, "duration": 60}, {"note": 78, "velocity": 90, "duration": 65}, {"note": 76, "velocity": 90, "duration": 61}, {"note": 78, "velocity": 90, "duration": 138}, {"note": 0, "velocity": 0, "duration": 102}, {"note": 80, "velocity": 90, "duration": 62}, {"note": 80, "velocity": 90, "duration": 181}, {"note": 71, "velocity": 90, "duration": 133}, {"note": 83, "velocity": 90, "duration": 176}, {"note": 0, "velocity": 0, "duration": 64}, {"note": 81, "velocity": 90, "duration": 53}, {"note": 0, "velocity": 0, "duration": 67}, {"note": 80, "velocity": 90, "duration": 195}, {"note": 0, "velocity": 0, "duration": 165}, {"note": 71, "velocity": 90, "duration": 117}, {"note": 83, "velocity": 90, "duration": 135}, {"note": 0, "velocity": 0, "duration": 105}, {"note": 85, "velocity": 90, "duration": 55}, {"note": 0, "velocity": 0, "duration": 65}, {"note": 80, "velocity": 90, "duration": 88}, {"note": 0, "velocity": 0, "duration": 152}, {"note": 78, "velocity": 91, "duration": 65}, {"note": 78, "velocity": 91, "duration": 66}, {"note": 0, "velocity": 0, "duration": 81}, {"note": 76, "velocity": 91, "duration": 79}, {"note": 78, "velocity": 91, "duration": 204}, {"note": 0, "velocity": 0, "duration": 156}, {"note": 81, "velocity": 91, "duration": 198}, {"note": 80, "velocity": 91, "duration": 72}, {"note": 76, "velocity": 91, "duration": 63}, {"note": 78, "velocity": 91, "duration": 159}, {"note": 0, "velocity": 0, "duration": 81}, {"note": 80, "velocity": 91, "duration": 260}, {"note": 83, "velocity": 91, "duration": 71}, {"note": 85, "velocity": 91, "duration": 140}, {"note": 0, "velocity": 0, "duration": 100}, {"note": 85, "velocity": 91, "duration": 166}, {"note": 0, "velocity": 0, "duration": 74}, {"note": 83, "velocity": 91, "duration": 81}, {"note": 85, "velocity": 91, "duration": 64}, {"note": 83, "velocity": 91, "duration": 69}, {"note": 85, "velocity": 92, "duration": 115}, {"note": 85, "velocity": 92, "duration": 114}, {"note": 83, "velocity": 92, "duration": 56}, {"note": 0, "velocity": 0, "duration": 64}, {"note": 88, "velocity": 92, "duration": 20}, {"note": 0, "velocity": 0, "duration": 100}, {"note": 83, "velocity": 92, "duration": 209}, {"note": 88, "velocity": 92, "duration": 21}, {"note": 0, "velocity": 0, "duration": 99}, {"note": 85, "velocity": 92, "duration": 285}, {"note": 83, "velocity": 92, "duration": 197}, {"note": 83, "velocity": 92, "duration": 51}, {"note": 0, "velocity": 0, "duration": 69}, {"note": 83, "velocity": 92, "duration": 107}, {"note": 80, "velocity": 92, "duration": 71}, {"note": 83, "velocity": 92, "duration": 51}, {"note": 0, "velocity": 0, "duration": 69}, {"note": 83, "velocity": 92, "duration": 59}, {"note": 0, "velocity": 0, "duration": 61}, {"note": 85, "velocity": 92, "duration": 37}, {"note": 0, "velocity": 0, "duration": 83}, {"note": 80, "velocity": 92, "duration": 457}, {"note": 83, "velocity": 92, "duration": 133}, {"note": 81, "velocity": 92, "duration": 98}, {"note": 0, "velocity": 0, "duration": 142}, {"note": 80, "velocity": 92, "duration": 55}, {"note": 0, "velocity": 0, "duration": 65}, {"note": 80, "velocity": 92, "duration": 143}, {"note": 0, "velocity": 0, "duration": 97}, {"note": 81, "velocity": 92, "duration": 103}, {"note": 73, "velocity": 92, "duration": 152}, {"note": 0, "velocity": 0, "duration": 88}, {"note": 76, "velocity": 92, "duration": 96}, {"note": 80, "velocity": 92, "duration": 129}, {"note": 0, "velocity": 0, "duration": 111}, {"note": 78, "velocity": 92, "duration": 96}, {"note": 75, "velocity": 92, "duration": 190}, {"note": 76, "velocity": 92, "duration": 195}, {"note": 0, "velocity": 0, "duration": 165}, {"note": 78, "velocity": 92, "duration": 555}, {"note": 77, "velocity": 90, "duration": 62}, {"note": 78, "velocity": 90, "duration": 58}, {"note": 80, "velocity": 89, "duration": 329}, {"note": 0, "velocity": 0, "duration": 151}, {"note": 83, "velocity": 89, "duration": 122}, {"note": 0, "velocity": 0, "duration": 118}, {"note": 81, "velocity": 90, "duration": 71}, {"note": 80, "velocity": 89, "duration": 60}, {"note": 80, "velocity": 90, "duration": 156}, {"note": 0, "velocity": 0, "duration": 84}, {"note": 81, "velocity": 89, "duration": 62}, {"note": 73, "velocity": 89, "duration": 214}, {"note": 75, "velocity": 89, "duration": 136}, {"note": 0, "velocity": 0, "duration": 104}, {"note": 75, "velocity": 89, "duration": 1186}, {"note": 0, "velocity": 0, "duration": 3120}, {"note": 71, "velocity": 86, "duration": 57}, {"note": 0, "velocity": 0, "duration": 63}, {"note": 71, "velocity": 86, "duration": 206}, {"note": 0, "velocity": 0, "duration": 154}, {"note": 71, "velocity": 86, "duration": 58}, {"note": 0, "velocity": 0, "duration": 62}, {"note": 71, "velocity": 86, "duration": 220}, {"note": 0, "velocity": 0, "duration": 140}, {"note": 71, "velocity": 86, "duration": 141}, {"note": 78, "velocity": 86, "duration": 252}, {"note": 0, "velocity": 0, "duration": 108}, {"note": 75, "velocity": 86, "duration": 134}, {"note": 0, "velocity": 0, "duration": 106}, {"note": 76, "velocity": 86, "duration": 999}, {"note": 0, "velocity": 0, "duration": 681}, {"note": 80, "velocity": 86, "duration": 42}, {"note": 0, "velocity": 0, "duration": 78}, {"note": 80, "velocity": 86, "duration": 47}, {"note": 0, "velocity": 0, "duration": 73}, {"note": 80, "velocity": 86, "duration": 144}, {"note": 0, "velocity": 0, "duration": 96}, {"note": 81, "velocity": 86, "duration": 89}, {"note": 76, "velocity": 86, "duration": 255}, {"note": 0, "velocity": 0, "duration": 225}, {"note": 73, "velocity": 86, "duration": 39}, {"note": 0, "velocity": 0, "duration": 81}, {"note": 72, "velocity": 86, "duration": 143}, {"note": 0, "velocity": 0, "duration": 97}, {"note": 72, "velocity": 86, "duration": 123}, {"note": 0, "velocity": 0, "duration": 117}, {"note": 78, "velocity": 86, "duration": 179}, {"note": 0, "velocity": 0, "duration": 61}, {"note": 80, "velocity": 86, "duration": 46}, {"note": 0, "velocity": 0, "duration": 74}, {"note": 80, "velocity": 86, "duration": 947}, {"note": 0, "velocity": 0, "duration": 613}, {"note": 71, "velocity": 88, "duration": 59}, {"note": 0, "velocity": 0, "duration": 61}, {"note": 80, "velocity": 88, "duration": 48}, {"note": 0, "velocity": 0, "duration": 72}, {"note": 80, "velocity": 88, "duration": 47}, {"note": 0, "velocity": 0, "duration": 73}, {"note": 80, "velocity": 88, "duration": 160}, {"note": 0, "velocity": 0, "duration": 80}, {"note": 81, "velocity": 88, "duration": 57}, {"note": 0, "velocity": 0, "duration": 63}, {"note": 83, "velocity": 88, "duration": 227}, {"note": 0, "velocity": 0, "duration": 133}, {"note": 76, "velocity": 88, "duration": 172}, {"note": 0, "velocity": 0, "duration": 68}, {"note": 78, "velocity": 89, "duration": 597}, {"note": 0, "velocity": 0, "duration": 363}, {"note": 80, "velocity": 89, "duration": 151}, {"note": 0, "velocity": 0, "duration": 89}, {"note": 81, "velocity": 89, "duration": 51}, {"note": 0, "velocity": 0, "duration": 69}, {"note": 83, "velocity": 89, "duration": 226}, {"note": 85, "velocity": 89, "duration": 198}, {"note": 0, "velocity": 0, "duration": 162}, {"note": 77, "velocity": 89, "duration": 326}, {"note": 0, "velocity": 0, "duration": 154}, {"note": 80, "velocity": 89, "duration": 68}, {"note": 81, "velocity": 89, "duration": 60}, {"note": 83, "velocity": 89, "duration": 67}, {"note": 78, "velocity": 89, "duration": 260}, {"note": 76, "velocity": 89, "duration": 96}, {"note": 0, "velocity": 0, "duration": 264}, {"note": 80, "velocity": 90, "duration": 70}, {"note": 81, "velocity": 90, "duration": 66}, {"note": 83, "velocity": 90, "duration": 74}, {"note": 78, "velocity": 90, "duration": 263}, {"note": 76, "velocity": 90, "duration": 104}, {"note": 0, "velocity": 0, "duration": 256}, {"note": 80, "velocity": 90, "duration": 63}, {"note": 81, "velocity": 90, "duration": 54}, {"note": 0, "velocity": 0, "duration": 66}, {"note": 83, "velocity": 90, "duration": 63}, {"note": 78, "velocity": 90, "duration": 255}, {"note": 0, "velocity": 0, "duration": 105}, {"note": 76, "velocity": 90, "duration": 116}, {"note": 0, "velocity": 0, "duration": 124}, {"note": 71, "velocity": 91, "duration": 173}, {"note": 0, "velocity": 0, "duration": 67}, {"note": 83, "velocity": 92, "duration": 181}, {"note": 81, "velocity": 92, "duration": 57}, {"note": 0, "velocity": 0, "duration": 63}, {"note": 80, "velocity": 92, "duration": 232}, {"note": 0, "velocity": 0, "duration": 128}, {"note": 71, "velocity": 93, "duration": 134}, {"note": 0, "velocity": 0, "duration": 106}, {"note": 83, "velocity": 94, "duration": 141}, {"note": 0, "velocity": 0, "duration": 99}, {"note": 81, "velocity": 94, "duration": 67}, {"note": 80, "velocity": 94, "duration": 100}, {"note": 0, "velocity": 0, "duration": 140}, {"note": 71, "velocity": 95, "duration": 128}, {"note": 0, "velocity": 0, "duration": 112}, {"note": 83, "velocity": 95, "duration": 148}, {"note": 0, "velocity": 0, "duration": 92}, {"note": 81, "velocity": 95, "duration": 54}, {"note": 0, "velocity": 0, "duration": 66}, {"note": 78, "velocity": 95, "duration": 165}, {"note": 0, "velocity": 0, "duration": 75}, {"note": 76, "velocity": 95, "duration": 60}, {"note": 78, "velocity": 95, "duration": 65}, {"note": 76, "velocity": 95, "duration": 61}, {"note": 78, "velocity": 95, "duration": 138}, {"note": 0, "velocity": 0, "duration": 102}, {"note": 80, "velocity": 95, "duration": 62}, {"note": 80, "velocity": 95, "duration": 181}, {"note": 71, "velocity": 95, "duration": 133}, {"note": 0, "velocity": 0, "duration": 107}, {"note": 83, "velocity": 95, "duration": 176}, {"note": 0, "velocity": 0, "duration": 64}, {"note": 81, "velocity": 95, "duration": 53}, {"note": 0, "velocity": 0, "duration": 67}, {"note": 80, "velocity": 95, "duration": 195}, {"note": 0, "velocity": 0, "duration": 165}, {"note": 71, "velocity": 95, "duration": 117}, {"note": 0, "velocity": 0, "duration": 123}, {"note": 83, "velocity": 95, "duration": 135}, {"note": 0, "velocity": 0, "duration": 105}, {"note": 85, "velocity": 95, "duration": 55}, {"note": 0, "velocity": 0, "duration": 65}, {"note": 80, "velocity": 95, "duration": 98}, {"note": 78, "velocity": 95, "duration": 138}, {"note": 0, "velocity": 0, "duration": 102}, {"note": 78, "velocity": 95, "duration": 86}, {"note": 76, "velocity": 95, "duration": 86}, {"note": 76, "velocity": 95, "duration": 79}, {"note": 78, "velocity": 95, "duration": 204}, {"note": 0, "velocity": 0, "duration": 156}, {"note": 81, "velocity": 95, "duration": 198}, {"note": 80, "velocity": 95, "duration": 72}, {"note": 76, "velocity": 95, "duration": 183}, {"note": 78, "velocity": 95, "duration": 159}, {"note": 0, "velocity": 0, "duration": 81}, {"note": 80, "velocity": 95, "duration": 380}, {"note": 0, "velocity": 0, "duration": 220}, {"note": 83, "velocity": 95, "duration": 71}, {"note": 85, "velocity": 95, "duration": 140}, {"note": 0, "velocity": 0, "duration": 100}, {"note": 85, "velocity": 95, "duration": 166}, {"note": 0, "velocity": 0, "duration": 74}, {"note": 83, "velocity": 95, "duration": 81}, {"note": 85, "velocity": 95, "duration": 64}, {"note": 83, "velocity": 95, "duration": 69}, {"note": 85, "velocity": 95, "duration": 115}, {"note": 85, "velocity": 95, "duration": 114}, {"note": 83, "velocity": 95, "duration": 56}, {"note": 0, "velocity": 0, "duration": 64}, {"note": 88, "velocity": 95, "duration": 140}, {"note": 0, "velocity": 0, "duration": 100}, {"note": 83, "velocity": 95, "duration": 209}, {"note": 88, "velocity": 95, "duration": 141}, {"note": 0, "velocity": 0, "duration": 99}, {"note": 85, "velocity": 95, "duration": 285}, {"note": 83, "velocity": 95, "duration": 197}, {"note": 83, "velocity": 95, "duration": 51}, {"note": 0, "velocity": 0, "duration": 69}, {"note": 83, "velocity": 95, "duration": 107}, {"note": 80, "velocity": 95, "duration": 71}, {"note": 83, "velocity": 95, "duration": 51}, {"note": 0, "velocity": 0, "duration": 69}, {"note": 83, "velocity": 95, "duration": 59}, {"note": 0, "velocity": 0, "duration": 61}, {"note": 85, "velocity": 95, "duration": 37}, {"note": 0, "velocity": 0, "duration": 83}, {"note": 80, "velocity": 95, "duration": 457}, {"note": 0, "velocity": 0, "duration": 143}, {"note": 83, "velocity": 95, "duration": 133}, {"note": 81, "velocity": 95, "duration": 98}, {"note": 0, "velocity": 0, "duration": 142}, {"note": 80, "velocity": 95, "duration": 55}, {"note": 0, "velocity": 0, "duration": 65}, {"note": 80, "velocity": 95, "duration": 143}, {"note": 0, "velocity": 0, "duration": 97}, {"note": 81, "velocity": 95, "duration": 103}, {"note": 73, "velocity": 95, "duration": 272}, {"note": 0, "velocity": 0, "duration": 88}, {"note": 76, "velocity": 95, "duration": 96}, {"note": 80, "velocity": 95, "duration": 249}, {"note": 0, "velocity": 0, "duration": 111}, {"note": 78, "velocity": 95, "duration": 96}, {"note": 75, "velocity": 95, "duration": 190}, {"note": 76, "velocity": 95, "duration": 195}, {"note": 0, "velocity": 0, "duration": 160}, {"note": 78, "velocity": 95, "duration": 555}, {"note": 77, "velocity": 95, "duration": 62}, {"note": 78, "velocity": 95, "duration": 58}, {"note": 0, "velocity": 0, "duration": 182}, {"note": 80, "velocity": 95, "duration": 329}, {"note": 0, "velocity": 0, "duration": 151}, {"note": 83, "velocity": 95, "duration": 122}, {"note": 0, "velocity": 0, "duration": 118}, {"note": 81, "velocity": 95, "duration": 71}, {"note": 80, "velocity": 95, "duration": 60}, {"note": 80, "velocity": 95, "duration": 156}, {"note": 0, "velocity": 0, "duration": 84}, {"note": 81, "velocity": 95, "duration": 62}, {"note": 73, "velocity": 95, "duration": 214}, {"note": 75, "velocity": 95, "duration": 136}, {"note": 0, "velocity": 0, "duration": 104}, {"note": 75, "velocity": 95, "duration": 1026}, {"note": 71, "velocity": 63, "duration": 154}, {"note": 0, "velocity": 0, "duration": 86}, {"note": 83, "velocity": 100, "duration": 149}, {"note": 0, "velocity": 0, "duration": 91}, {"note": 81, "velocity": 95, "duration": 52}, {"note": 0, "velocity": 0, "duration": 68}, {"note": 80, "velocity": 85, "duration": 173}, {"note": 0, "velocity": 0, "duration": 187}, {"note": 71, "velocity": 77, "duration": 120}, {"note": 0, "velocity": 0, "duration": 120}, {"note": 83, "velocity": 104, "duration": 145}, {"note": 0, "velocity": 0, "duration": 95}, {"note": 81, "velocity": 98, "duration": 65}, {"note": 80, "velocity": 86, "duration": 183}, {"note": 0, "velocity": 0, "duration": 297}, {"note": 71, "velocity": 67, "duration": 54}, {"note": 83, "velocity": 111, "duration": 147}, {"note": 0, "velocity": 0, "duration": 93}, {"note": 85, "velocity": 117, "duration": 44}, {"note": 0, "velocity": 0, "duration": 76}, {"note": 78, "velocity": 114, "duration": 0}, {"note": 0, "velocity": 0, "duration": 120}, {"note": 76, "velocity": 70, "duration": 70}, {"note": 78, "velocity": 93, "duration": 97}, {"note": 76, "velocity": 81, "duration": 68}, {"note": 78, "velocity": 93, "duration": 54}, {"note": 0, "velocity": 0, "duration": 66}, {"note": 83, "velocity": 90, "duration": 106}, {"note": 0, "velocity": 0, "duration": 134}, {"note": 80, "velocity": 112, "duration": 482}, {"note": 71, "velocity": 73, "duration": 159}, {"note": 83, "velocity": 93, "duration": 132}, {"note": 0, "velocity": 0, "duration": 108}, {"note": 81, "velocity": 98, "duration": 54}, {"note": 0, "velocity": 0, "duration": 66}, {"note": 80, "velocity": 95, "duration": 197}, {"note": 0, "velocity": 0, "duration": 163}, {"note": 71, "velocity": 79, "duration": 137}, {"note": 83, "velocity": 98, "duration": 134}, {"note": 0, "velocity": 0, "duration": 106}, {"note": 85, "velocity": 108, "duration": 62}, {"note": 78, "velocity": 104, "duration": 61}, {"note": 0, "velocity": 0, "duration": 179}, {"note": 78, "velocity": 112, "duration": 148}, {"note": 76, "velocity": 83, "duration": 61}, {"note": 78, "velocity": 100, "duration": 133}, {"note": 81, "velocity": 95, "duration": 176}, {"note": 0, "velocity": 0, "duration": 64}, {"note": 80, "velocity": 98, "duration": 79}, {"note": 0, "velocity": 0, "duration": 161}, {"note": 83, "velocity": 86, "duration": 129}, {"note": 0, "velocity": 0, "duration": 111}, {"note": 78, "velocity": 87, "duration": 134}, {"note": 78, "velocity": 93, "duration": 14}, {"note": 0, "velocity": 0, "duration": 120}, {"note": 80, "velocity": 95, "duration": 266}, {"note": 0, "velocity": 0, "duration": 94}, {"note": 83, "velocity": 87, "duration": 77}, {"note": 85, "velocity": 93, "duration": 81}, {"note": 80, "velocity": 93, "duration": 54}, {"note": 0, "velocity": 0, "duration": 66}, {"note": 83, "velocity": 86, "duration": 171}, {"note": 0, "velocity": 0, "duration": 69}, {"note": 83, "velocity": 67, "duration": 83}, {"note": 85, "velocity": 100, "duration": 103}, {"note": 83, "velocity": 75, "duration": 92}, {"note": 85, "velocity": 117, "duration": 102}, {"note": 85, "velocity": 114, "duration": 124}, {"note": 83, "velocity": 70, "duration": 84}, {"note": 88, "velocity": 112, "duration": 124}, {"note": 0, "velocity": 0, "duration": 116}, {"note": 85, "velocity": 104, "duration": 172}, {"note": 0, "velocity": 0, "duration": 68}, {"note": 88, "velocity": 85, "duration": 134}, {"note": 0, "velocity": 0, "duration": 106}, {"note": 85, "velocity": 98, "duration": 200}, {"note": 83, "velocity": 86, "duration": 75}, {"note": 83, "velocity": 83, "duration": 51}, {"note": 0, "velocity": 0, "duration": 69}, {"note": 83, "velocity": 85, "duration": 119}, {"note": 80, "velocity": 71, "duration": 84}, {"note": 83, "velocity": 68, "duration": 37}, {"note": 0, "velocity": 0, "duration": 83}, {"note": 83, "velocity": 70, "duration": 53}, {"note": 0, "velocity": 0, "duration": 67}, {"note": 85, "velocity": 93, "duration": 71}, {"note": 80, "velocity": 65, "duration": 391}, {"note": 0, "velocity": 0, "duration": 209}, {"note": 83, "velocity": 108, "duration": 133}, {"note": 0, "velocity": 0, "duration": 107}, {"note": 81, "velocity": 104, "duration": 78}, {"note": 80, "velocity": 104, "duration": 47}, {"note": 0, "velocity": 0, "duration": 73}, {"note": 80, "velocity": 112, "duration": 139}, {"note": 0, "velocity": 0, "duration": 101}, {"note": 81, "velocity": 72, "duration": 122}, {"note": 73, "velocity": 98, "duration": 211}, {"note": 76, "velocity": 74, "duration": 97}, {"note": 80, "velocity": 93, "duration": 107}, {"note": 0, "velocity": 0, "duration": 133}, {"note": 78, "velocity": 95, "duration": 99}, {"note": 75, "velocity": 68, "duration": 45}, {"note": 0, "velocity": 0, "duration": 75}, {"note": 76, "velocity": 85, "duration": 247}, {"note": 0, "velocity": 0, "duration": 113}, {"note": 78, "velocity": 111, "duration": 55}, {"note": 0, "velocity": 0, "duration": 65}, {"note": 77, "velocity": 79, "duration": 62}, {"note": 78, "velocity": 93, "duration": 50}, {"note": 0, "velocity": 0, "duration": 70}, {"note": 80, "velocity": 100, "duration": 396}, {"note": 0, "velocity": 0, "duration": 204}, {"note": 83, "velocity": 98, "duration": 142}, {"note": 0, "velocity": 0, "duration": 98}, {"note": 81, "velocity": 90, "duration": 87}, {"note": 80, "velocity": 90, "duration": 53}, {"note": 80, "velocity": 114, "duration": 77}, {"note": 0, "velocity": 0, "duration": 163}, {"note": 81, "velocity": 73, "duration": 78}, {"note": 73, "velocity": 95, "duration": 302}, {"note": 76, "velocity": 95, "duration": 282}, {"note": 0, "velocity": 0, "duration": 78}, {"note": 75, "velocity": 86, "duration": 989}]]