[[{"note": 68, "velocity": 91, "duration": 474}, {"note": 68, "velocity": 91, "duration": 211}, {"note": 75, "velocity": 91, "duration": 104}, {"note": 0, "velocity": 0, "duration": 136}, {"note": 75, "velocity": 91, "duration": 125}, {"note": 0, "velocity": 0, "duration": 115}, {"note": 73, "velocity": 91, "duration": 131}, {"note": 0, "velocity": 0, "duration": 109}, {"note": 71, "velocity": 91, "duration": 287}, {"note": 0, "velocity": 0, "duration": 193}, {"note": 71, "velocity": 91, "duration": 783}, {"note": 0, "velocity": 0, "duration": 1137}, {"note": 75, "velocity": 91, "duration": 402}, {"note": 0, "velocity": 0, "duration": 78}, {"note": 78, "velocity": 91, "duration": 635}, {"note": 0, "velocity": 0, "duration": 325}, {"note": 70, "velocity": 91, "duration": 296}, {"note": 0, "velocity": 0, "duration": 184}, {"note": 68, "velocity": 91, "duration": 588}, {"note": 0, "velocity": 0, "duration": 1332}, {"note": 80, "velocity": 91, "duration": 326}, {"note": 0, "velocity": 0, "duration": 154}, {"note": 83, "velocity": 91, "duration": 271}, {"note": 0, "velocity": 0, "duration": 209}, {"note": 80, "velocity": 91, "duration": 268}, {"note": 0, "velocity": 0, "duration": 212}, {"note": 78, "velocity": 91, "duration": 131}, {"note": 0, "velocity": 0, "duration": 109}, {"note": 80, "velocity": 91, "duration": 100}, {"note": 0, "velocity": 0, "duration": 140}, {"note": 75, "velocity": 91, "duration": 746}, {"note": 0, "velocity": 0, "duration": 214}, {"note": 73, "velocity": 92, "duration": 363}, {"note": 0, "velocity": 0, "duration": 117}, {"note": 71, "velocity": 93, "duration": 101}, {"note": 0, "velocity": 0, "duration": 139}, {"note": 73, "velocity": 93, "duration": 83}, {"note": 0, "velocity": 0, "duration": 157}, {"note": 75, "velocity": 93, "duration": 1992}, {"note": 0, "velocity": 0, "duration": 1848}, {"note": 80, "velocity": 95, "duration": 240}, {"note": 0, "velocity": 0, "duration": 240}, {"note": 80, "velocity": 95, "duration": 681}, {"note": 0, "velocity": 0, "duration": 279}, {"note": 78, "velocity": 95, "duration": 324}, {"note": 0, "velocity": 0, "duration": 156}, {"note": 80, "velocity": 95, "duration": 500}, {"note": 83, "velocity": 95, "duration": 219}, {"note": 0, "velocity": 0, "duration": 261}, {"note": 80, "velocity": 95, "duration": 549}, {"note": 0, "velocity": 0, "duration": 411}, {"note": 68, "velocity": 95, "duration": 806}, {"note": 80, "velocity": 95, "duration": 675}, {"note": 0, "velocity": 0, "duration": 285}, {"note": 73, "velocity": 95, "duration": 241}, {"note": 0, "velocity": 0, "duration": 239}, {"note": 71, "velocity": 95, "duration": 1474}, {"note": 0, "velocity": 0, "duration": 446}, {"note": 75, "velocity": 94, "duration": 509}, {"note": 0, "velocity": 0, "duration": 211}, {"note": 78, "velocity": 94, "duration": 121}, {"note": 0, "velocity": 0, "duration": 119}, {"note": 75, "velocity": 94, "duration": 287}, {"note": 0, "velocity": 0, "duration": 193}, {"note": 73, "velocity": 94, "duration": 251}, {"note": 0, "velocity": 0, "duration": 229}, {"note": 71, "velocity": 94, "duration": 197}, {"note": 0, "velocity": 0, "duration": 283}, {"note": 71, "velocity": 94, "duration": 116}, {"note": 0, "velocity": 0, "duration": 124}, {"note": 73, "velocity": 94, "duration": 106}, {"note": 0, "velocity": 0, "duration": 134}, {"note": 75, "velocity": 94, "duration": 268}, {"note": 0, "velocity": 0, "duration": 212}, {"note": 71, "velocity": 94, "duration": 205}, {"note": 0, "velocity": 0, "duration": 275}, {"note": 68, "velocity": 94, "duration": 1007}, {"note": 0, "velocity": 0, "duration": 2353}, {"note": 80, "velocity": 93, "duration": 252}, {"note": 0, "velocity": 0, "duration": 228}, {"note": 80, "velocity": 93, "duration": 792}, {"note": 0, "velocity": 0, "duration": 168}, {"note": 85, "velocity": 93, "duration": 284}, {"note": 0, "velocity": 0, "duration": 196}, {"note": 83, "velocity": 92, "duration": 713}, {"note": 0, "velocity": 0, "duration": 247}, {"note": 82, "velocity": 92, "duration": 820}, {"note": 0, "velocity": 0, "duration": 140}, {"note": 78, "velocity": 92, "duration": 272}, {"note": 0, "velocity": 0, "duration": 208}, {"note": 78, "velocity": 91, "duration": 141}, {"note": 0, "velocity": 0, "duration": 99}, {"note": 80, "velocity": 91, "duration": 125}, {"note": 0, "velocity": 0, "duration": 115}, {"note": 82, "velocity": 91, "duration": 328}, {"note": 0, "velocity": 0, "duration": 152}, {"note": 75, "velocity": 91, "duration": 447}, {"note": 80, "velocity": 91, "duration": 1217}, {"note": 0, "velocity": 0, "duration": 703}, {"note": 80, "velocity": 90, "duration": 266}, {"note": 0, "velocity": 0, "duration": 214}, {"note": 80, "velocity": 90, "duration": 125}, {"note": 0, "velocity": 0, "duration": 355}, {"note": 83, "velocity": 90, "duration": 339}, {"note": 0, "velocity": 0, "duration": 141}, {"note": 83, "velocity": 90, "duration": 185}, {"note": 85, "velocity": 90, "duration": 115}, {"note": 0, "velocity": 0, "duration": 125}, {"note": 80, "velocity": 90, "duration": 882}, {"note": 0, "velocity": 0, "duration": 1038}, {"note": 75, "velocity": 90, "duration": 3331}, {"note": 0, "velocity": 0, "duration": 509}, {"note": 73, "velocity": 91, "duration": 235}, {"note": 0, "velocity": 0, "duration": 245}, {"note": 73, "velocity": 91, "duration": 683}, {"note": 0, "velocity": 0, "duration": 277}, {"note": 75, "velocity": 92, "duration": 274}, {"note": 0, "velocity": 0, "duration": 206}, {"note": 80, "velocity": 92, "duration": 480}, {"note": 0, "velocity": 0, "duration": 240}, {"note": 83, "velocity": 93, "duration": 104}, {"note": 0, "velocity": 0, "duration": 136}, {"note": 80, "velocity": 93, "duration": 792}, {"note": 0, "velocity": 0, "duration": 168}, {"note": 75, "velocity": 93, "duration": 238}, {"note": 0, "velocity": 0, "duration": 242}, {"note": 75, "velocity": 93, "duration": 117}, {"note": 0, "velocity": 0, "duration": 123}, {"note": 80, "velocity": 94, "duration": 85}, {"note": 0, "velocity": 0, "duration": 155}, {"note": 80, "velocity": 94, "duration": 345}, {"note": 0, "velocity": 0, "duration": 135}, {"note": 75, "velocity": 94, "duration": 262}, {"note": 0, "velocity": 0, "duration": 218}, {"note": 71, "velocity": 94, "duration": 447}, {"note": 75, "velocity": 95, "duration": 244}, {"note": 0, "velocity": 0, "duration": 236}, {"note": 75, "velocity": 96, "duration": 120}, {"note": 0, "velocity": 0, "duration": 120}, {"note": 78, "velocity": 96, "duration": 115}, {"note": 0, "velocity": 0, "duration": 125}, {"note": 75, "velocity": 96, "duration": 266}, {"note": 0, "velocity": 0, "duration": 214}, {"note": 73, "velocity": 96, "duration": 114}, {"note": 0, "velocity": 0, "duration": 126}, {"note": 75, "velocity": 96, "duration": 105}, {"note": 0, "velocity": 0, "duration": 135}, {"note": 68, "velocity": 96, "duration": 480}, {"note": 0, "velocity": 0, "duration": 240}, {"note": 73, "velocity": 96, "duration": 105}, {"note": 0, "velocity": 0, "duration": 135}, {"note": 75, "velocity": 96, "duration": 355}, {"note": 0, "velocity": 0, "duration": 125}, {"note": 71, "velocity": 96, "duration": 236}, {"note": 0, "velocity": 0, "duration": 244}, {"note": 68, "velocity": 96, "duration": 1951}, {"note": 68, "velocity": 96, "duration": 474}, {"note": 68, "velocity": 96, "duration": 211}, {"note": 75, "velocity": 96, "duration": 104}, {"note": 0, "velocity": 0, "duration": 136}, {"note": 75, "velocity": 96, "duration": 125}, {"note": 0, "velocity": 0, "duration": 115}, {"note": 73, "velocity": 96, "duration": 131}, {"note": 0, "velocity": 0, "duration": 109}, {"note": 71, "velocity": 96, "duration": 287}, {"note": 0, "velocity": 0, "duration": 193}, {"note": 71, "velocity": 96, "duration": 783}, {"note": 0, "velocity": 0, "duration": 1137}, {"note": 75, "velocity": 97, "duration": 402}, {"note": 78, "velocity": 97, "duration": 635}, {"note": 0, "velocity": 0, "duration": 325}, {"note": 70, "velocity": 97, "duration": 296}, {"note": 0, "velocity": 0, "duration": 184}, {"note": 68, "velocity": 97, "duration": 588}, {"note": 0, "velocity": 0, "duration": 1332}, {"note": 80, "velocity": 98, "duration": 326}, {"note": 0, "velocity": 0, "duration": 154}, {"note": 83, "velocity": 98, "duration": 271}, {"note": 0, "velocity": 0, "duration": 209}, {"note": 80, "velocity": 98, "duration": 268}, {"note": 0, "velocity": 0, "duration": 212}, {"note": 78, "velocity": 98, "duration": 131}, {"note": 0, "velocity": 0, "duration": 109}, {"note": 80, "velocity": 98, "duration": 100}, {"note": 0, "velocity": 0, "duration": 140}, {"note": 75, "velocity": 98, "duration": 746}, {"note": 73, "velocity": 99, "duration": 363}, {"note": 0, "velocity": 0, "duration": 117}, {"note": 71, "velocity": 99, "duration": 101}, {"note": 0, "velocity": 0, "duration": 139}, {"note": 73, "velocity": 99, "duration": 83}, {"note": 0, "velocity": 0, "duration": 157}, {"note": 75, "velocity": 99, "duration": 1992}, {"note": 0, "velocity": 0, "duration": 1848}, {"note": 80, "velocity": 100, "duration": 240}, {"note": 0, "velocity": 0, "duration": 240}, {"note": 80, "velocity": 100, "duration": 681}, {"note": 78, "velocity": 101, "duration": 324}, {"note": 0, "velocity": 0, "duration": 156}, {"note": 80, "velocity": 101, "duration": 500}, {"note": 83, "velocity": 101, "duration": 219}, {"note": 0, "velocity": 0, "duration": 261}, {"note": 80, "velocity": 101, "duration": 549}, {"note": 0, "velocity": 0, "duration": 411}, {"note": 68, "velocity": 101, "duration": 806}, {"note": 80, "velocity": 101, "duration": 675}, {"note": 0, "velocity": 0, "duration": 285}, {"note": 73, "velocity": 102, "duration": 241}, {"note": 0, "velocity": 0, "duration": 239}, {"note": 71, "velocity": 102, "duration": 1474}, {"note": 0, "velocity": 0, "duration": 446}, {"note": 75, "velocity": 102, "duration": 509}, {"note": 0, "velocity": 0, "duration": 211}, {"note": 78, "velocity": 102, "duration": 121}, {"note": 0, "velocity": 0, "duration": 119}, {"note": 75, "velocity": 102, "duration": 287}, {"note": 0, "velocity": 0, "duration": 193}, {"note": 73, "velocity": 102, "duration": 251}, {"note": 0, "velocity": 0, "duration": 229}, {"note": 71, "velocity": 102, "duration": 197}, {"note": 0, "velocity": 0, "duration": 283}, {"note": 71, "velocity": 102, "duration": 116}, {"note": 0, "velocity": 0, "duration": 124}, {"note": 73, "velocity": 102, "duration": 106}, {"note": 0, "velocity": 0, "duration": 134}, {"note": 75, "velocity": 102, "duration": 268}, {"note": 0, "velocity": 0, "duration": 212}, {"note": 71, "velocity": 102, "duration": 205}, {"note": 0, "velocity": 0, "duration": 275}, {"note": 68, "velocity": 102, "duration": 1487}, {"note": 0, "velocity": 0, "duration": 2353}, {"note": 80, "velocity": 102, "duration": 252}, {"note": 0, "velocity": 0, "duration": 228}, {"note": 80, "velocity": 102, "duration": 792}, {"note": 0, "velocity": 0, "duration": 168}, {"note": 85, "velocity": 102, "duration": 284}, {"note": 0, "velocity": 0, "duration": 196}, {"note": 83, "velocity": 102, "duration": 713}, {"note": 0, "velocity": 0, "duration": 247}, {"note": 82, "velocity": 102, "duration": 820}, {"note": 0, "velocity": 0, "duration": 140}, {"note": 78, "velocity": 102, "duration": 272}, {"note": 0, "velocity": 0, "duration": 208}, {"note": 78, "velocity": 102, "duration": 141}, {"note": 0, "velocity": 0, "duration": 99}, {"note": 80, "velocity": 102, "duration": 125}, {"note": 0, "velocity": 0, "duration": 115}, {"note": 82, "velocity": 102, "duration": 328}, {"note": 0, "velocity": 0, "duration": 152}, {"note": 75, "velocity": 102, "duration": 447}, {"note": 80, "velocity": 102, "duration": 1217}, {"note": 0, "velocity": 0, "duration": 703}, {"note": 80, "velocity": 102, "duration": 266}, {"note": 0, "velocity": 0, "duration": 214}, {"note": 80, "velocity": 102, "duration": 125}, {"note": 0, "velocity": 0, "duration": 355}, {"note": 83, "velocity": 101, "duration": 339}, {"note": 0, "velocity": 0, "duration": 141}, {"note": 83, "velocity": 101, "duration": 185}, {"note": 85, "velocity": 101, "duration": 115}, {"note": 0, "velocity": 0, "duration": 125}, {"note": 80, "velocity": 101, "duration": 882}, {"note": 0, "velocity": 0, "duration": 1038}, {"note": 75, "velocity": 101, "duration": 3331}, {"note": 0, "velocity": 0, "duration": 509}, {"note": 73, "velocity": 100, "duration": 235}, {"note": 0, "velocity": 0, "duration": 245}, {"note": 73, "velocity": 100, "duration": 683}, {"note": 0, "velocity": 0, "duration": 277}, {"note": 75, "velocity": 100, "duration": 274}, {"note": 0, "velocity": 0, "duration": 206}, {"note": 80, "velocity": 100, "duration": 480}, {"note": 0, "velocity": 0, "duration": 240}, {"note": 83, "velocity": 100, "duration": 104}, {"note": 0, "velocity": 0, "duration": 136}, {"note": 80, "velocity": 100, "duration": 792}, {"note": 0, "velocity": 0, "duration": 168}, {"note": 75, "velocity": 99, "duration": 238}, {"note": 0, "velocity": 0, "duration": 242}, {"note": 75, "velocity": 99, "duration": 117}, {"note": 0, "velocity": 0, "duration": 123}, {"note": 80, "velocity": 99, "duration": 85}, {"note": 0, "velocity": 0, "duration": 155}, {"note": 80, "velocity": 99, "duration": 345}, {"note": 0, "velocity": 0, "duration": 135}, {"note": 75, "velocity": 99, "duration": 262}, {"note": 0, "velocity": 0, "duration": 218}, {"note": 71, "velocity": 99, "duration": 1887}, {"note": 75, "velocity": 98, "duration": 244}, {"note": 75, "velocity": 98, "duration": 120}, {"note": 0, "velocity": 0, "duration": 120}, {"note": 78, "velocity": 98, "duration": 115}, {"note": 0, "velocity": 0, "duration": 125}, {"note": 75, "velocity": 97, "duration": 266}, {"note": 0, "velocity": 0, "duration": 214}, {"note": 73, "velocity": 97, "duration": 114}, {"note": 0, "velocity": 0, "duration": 126}, {"note": 75, "velocity": 97, "duration": 105}, {"note": 0, "velocity": 0, "duration": 135}, {"note": 68, "velocity": 97, "duration": 480}, {"note": 0, "velocity": 0, "duration": 240}, {"note": 73, "velocity": 97, "duration": 105}, {"note": 0, "velocity": 0, "duration": 135}, {"note": 75, "velocity": 97, "duration": 355}, {"note": 0, "velocity": 0, "duration": 125}, {"note": 71, "velocity": 97, "duration": 236}, {"note": 0, "velocity": 0, "duration": 244}, {"note": 68, "velocity": 97, "duration": 1920}, {"note": 0, "velocity": 0, "duration": 1920}, {"note": 73, "velocity": 96, "duration": 226}, {"note": 0, "velocity": 0, "duration": 254}, {"note": 73, "velocity": 96, "duration": 717}, {"note": 0, "velocity": 0, "duration": 243}, {"note": 75, "velocity": 96, "duration": 301}, {"note": 0, "velocity": 0, "duration": 179}, {"note": 80, "velocity": 96, "duration": 409}, {"note": 0, "velocity": 0, "duration": 311}, {"note": 83, "velocity": 96, "duration": 96}, {"note": 0, "velocity": 0, "duration": 144}, {"note": 80, "velocity": 96, "duration": 480}, {"note": 0, "velocity": 0, "duration": 480}, {"note": 75, "velocity": 96, "duration": 262}, {"note": 0, "velocity": 0, "duration": 218}, {"note": 75, "velocity": 96, "duration": 134}, {"note": 0, "velocity": 0, "duration": 106}, {"note": 80, "velocity": 96, "duration": 92}, {"note": 0, "velocity": 0, "duration": 148}, {"note": 80, "velocity": 96, "duration": 196}, {"note": 75, "velocity": 96, "duration": 277}, {"note": 73, "velocity": 96, "duration": 426}, {"note": 71, "velocity": 96, "duration": 1496}, {"note": 75, "velocity": 96, "duration": 510}, {"note": 78, "velocity": 96, "duration": 468}, {"note": 75, "velocity": 96, "duration": 276}, {"note": 0, "velocity": 0, "duration": 204}, {"note": 73, "velocity": 96, "duration": 164}, {"note": 0, "velocity": 0, "duration": 76}, {"note": 75, "velocity": 96, "duration": 223}, {"note": 71, "velocity": 96, "duration": 839}, {"note": 73, "velocity": 96, "duration": 140}, {"note": 0, "velocity": 0, "duration": 100}, {"note": 75, "velocity": 96, "duration": 131}, {"note": 0, "velocity": 0, "duration": 109}, {"note": 73, "velocity": 96, "duration": 124}, {"note": 0, "velocity": 0, "duration": 116}, {"note": 71, "velocity": 96, "duration": 213}, {"note": 0, "velocity": 0, "duration": 267}, {"note": 68, "velocity": 96, "duration": 3821}, {"note": 68, "velocity": 127, "duration": 3953}]]