[[{"note": 68, "velocity": 97, "duration": 178}, {"note": 0, "velocity": 0, "duration": 62}, {"note": 80, "velocity": 99, "duration": 290}, {"note": 78, "velocity": 99, "duration": 240}, {"note": 76, "velocity": 72, "duration": 134}, {"note": 0, "velocity": 0, "duration": 106}, {"note": 75, "velocity": 107, "duration": 257}, {"note": 76, "velocity": 100, "duration": 471}, {"note": 76, "velocity": 127, "duration": 70}, {"note": 0, "velocity": 0, "duration": 170}, {"note": 76, "velocity": 96, "duration": 73}, {"note": 0, "velocity": 0, "duration": 167}, {"note": 76, "velocity": 112, "duration": 64}, {"note": 0, "velocity": 0, "duration": 176}, {"note": 80, "velocity": 122, "duration": 198}, {"note": 83, "velocity": 107, "duration": 169}, {"note": 0, "velocity": 0, "duration": 71}, {"note": 85, "velocity": 122, "duration": 315}, {"note": 0, "velocity": 0, "duration": 645}, {"note": 68, "velocity": 88, "duration": 237}, {"note": 78, "velocity": 100, "duration": 264}, {"note": 76, "velocity": 93, "duration": 272}, {"note": 75, "velocity": 107, "duration": 227}, {"note": 73, "velocity": 97, "duration": 258}, {"note": 75, "velocity": 107, "duration": 351}, {"note": 0, "velocity": 0, "duration": 129}, {"note": 71, "velocity": 96, "duration": 80}, {"note": 0, "velocity": 0, "duration": 160}, {"note": 71, "velocity": 90, "duration": 73}, {"note": 0, "velocity": 0, "duration": 167}, {"note": 71, "velocity": 97, "duration": 164}, {"note": 0, "velocity": 0, "duration": 76}, {"note": 76, "velocity": 99, "duration": 77}, {"note": 0, "velocity": 0, "duration": 163}, {"note": 80, "velocity": 122, "duration": 137}, {"note": 0, "velocity": 0, "duration": 103}, {"note": 83, "velocity": 112, "duration": 444}, {"note": 0, "velocity": 0, "duration": 756}, {"note": 76, "velocity": 102, "duration": 201}, {"note": 75, "velocity": 88, "duration": 227}, {"note": 73, "velocity": 96, "duration": 242}, {"note": 71, "velocity": 74, "duration": 260}, {"note": 73, "velocity": 99, "duration": 561}, {"note": 0, "velocity": 0, "duration": 159}, {"note": 73, "velocity": 112, "duration": 41}, {"note": 0, "velocity": 0, "duration": 79}, {"note": 73, "velocity": 92, "duration": 74}, {"note": 80, "velocity": 127, "duration": 332}, {"note": 0, "velocity": 0, "duration": 148}, {"note": 81, "velocity": 117, "duration": 350}, {"note": 0, "velocity": 0, "duration": 130}, {"note": 81, "velocity": 117, "duration": 239}, {"note": 80, "velocity": 100, "duration": 424}, {"note": 78, "velocity": 107, "duration": 440}, {"note": 0, "velocity": 0, "duration": 520}, {"note": 80, "velocity": 112, "duration": 530}, {"note": 0, "velocity": 0, "duration": 430}, {"note": 75, "velocity": 122, "duration": 577}, {"note": 0, "velocity": 0, "duration": 383}, {"note": 73, "velocity": 102, "duration": 1158}, {"note": 0, "velocity": 0, "duration": 1440}, {"note": 73, "velocity": 107, "duration": 194}, {"note": 75, "velocity": 102, "duration": 136}, {"note": 0, "velocity": 0, "duration": 104}, {"note": 76, "velocity": 112, "duration": 294}, {"note": 0, "velocity": 0, "duration": 186}, {"note": 75, "velocity": 127, "duration": 162}, {"note": 0, "velocity": 0, "duration": 78}, {"note": 76, "velocity": 102, "duration": 213}, {"note": 0, "velocity": 0, "duration": 507}, {"note": 68, "velocity": 107, "duration": 213}, {"note": 69, "velocity": 99, "duration": 358}, {"note": 0, "velocity": 0, "duration": 122}, {"note": 76, "velocity": 117, "duration": 623}, {"note": 0, "velocity": 0, "duration": 337}, {"note": 71, "velocity": 112, "duration": 120}, {"note": 0, "velocity": 0, "duration": 120}, {"note": 71, "velocity": 89, "duration": 136}, {"note": 0, "velocity": 0, "duration": 104}, {"note": 73, "velocity": 107, "duration": 128}, {"note": 0, "velocity": 0, "duration": 112}, {"note": 75, "velocity": 127, "duration": 209}, {"note": 0, "velocity": 0, "duration": 271}, {"note": 73, "velocity": 122, "duration": 208}, {"note": 75, "velocity": 127, "duration": 164}, {"note": 0, "velocity": 0, "duration": 556}, {"note": 66, "velocity": 107, "duration": 249}, {"note": 68, "velocity": 117, "duration": 363}, {"note": 0, "velocity": 0, "duration": 117}, {"note": 75, "velocity": 127, "duration": 308}, {"note": 0, "velocity": 0, "duration": 892}, {"note": 69, "velocity": 100, "duration": 179}, {"note": 0, "velocity": 0, "duration": 61}, {"note": 68, "velocity": 112, "duration": 113}, {"note": 0, "velocity": 0, "duration": 127}, {"note": 69, "velocity": 127, "duration": 243}, {"note": 0, "velocity": 0, "duration": 237}, {"note": 68, "velocity": 122, "duration": 141}, {"note": 0, "velocity": 0, "duration": 99}, {"note": 69, "velocity": 127, "duration": 307}, {"note": 0, "velocity": 0, "duration": 173}, {"note": 80, "velocity": 127, "duration": 251}, {"note": 0, "velocity": 0, "duration": 229}, {"note": 80, "velocity": 127, "duration": 248}, {"note": 0, "velocity": 0, "duration": 232}, {"note": 81, "velocity": 117, "duration": 201}, {"note": 80, "velocity": 117, "duration": 171}, {"note": 0, "velocity": 0, "duration": 69}, {"note": 78, "velocity": 127, "duration": 368}, {"note": 0, "velocity": 0, "duration": 112}, {"note": 76, "velocity": 102, "duration": 123}, {"note": 0, "velocity": 0, "duration": 117}, {"note": 78, "velocity": 127, "duration": 129}, {"note": 0, "velocity": 0, "duration": 111}, {"note": 80, "velocity": 127, "duration": 444}, {"note": 0, "velocity": 0, "duration": 276}, {"note": 78, "velocity": 127, "duration": 137}, {"note": 0, "velocity": 0, "duration": 103}, {"note": 80, "velocity": 127, "duration": 81}, {"note": 0, "velocity": 0, "duration": 399}, {"note": 78, "velocity": 127, "duration": 105}, {"note": 0, "velocity": 0, "duration": 135}, {"note": 80, "velocity": 127, "duration": 1739}, {"note": 0, "velocity": 0, "duration": 240}, {"note": 68, "velocity": 97, "duration": 178}, {"note": 0, "velocity": 0, "duration": 62}, {"note": 80, "velocity": 99, "duration": 290}, {"note": 78, "velocity": 99, "duration": 240}, {"note": 76, "velocity": 72, "duration": 134}, {"note": 0, "velocity": 0, "duration": 106}, {"note": 75, "velocity": 107, "duration": 257}, {"note": 76, "velocity": 100, "duration": 471}, {"note": 76, "velocity": 127, "duration": 70}, {"note": 0, "velocity": 0, "duration": 170}, {"note": 76, "velocity": 96, "duration": 73}, {"note": 0, "velocity": 0, "duration": 167}, {"note": 76, "velocity": 112, "duration": 64}, {"note": 0, "velocity": 0, "duration": 176}, {"note": 80, "velocity": 122, "duration": 198}, {"note": 83, "velocity": 107, "duration": 169}, {"note": 0, "velocity": 0, "duration": 71}, {"note": 85, "velocity": 122, "duration": 315}, {"note": 0, "velocity": 0, "duration": 645}, {"note": 68, "velocity": 88, "duration": 237}, {"note": 78, "velocity": 100, "duration": 264}, {"note": 76, "velocity": 93, "duration": 272}, {"note": 75, "velocity": 107, "duration": 227}, {"note": 73, "velocity": 97, "duration": 258}, {"note": 75, "velocity": 107, "duration": 351}, {"note": 0, "velocity": 0, "duration": 129}, {"note": 71, "velocity": 96, "duration": 80}, {"note": 0, "velocity": 0, "duration": 160}, {"note": 71, "velocity": 90, "duration": 73}, {"note": 71, "velocity": 97, "duration": 164}, {"note": 0, "velocity": 0, "duration": 76}, {"note": 76, "velocity": 99, "duration": 77}, {"note": 0, "velocity": 0, "duration": 163}, {"note": 80, "velocity": 122, "duration": 137}, {"note": 0, "velocity": 0, "duration": 103}, {"note": 83, "velocity": 112, "duration": 444}, {"note": 0, "velocity": 0, "duration": 756}, {"note": 76, "velocity": 102, "duration": 201}, {"note": 75, "velocity": 88, "duration": 227}, {"note": 73, "velocity": 96, "duration": 242}, {"note": 71, "velocity": 74, "duration": 260}, {"note": 73, "velocity": 99, "duration": 561}, {"note": 0, "velocity": 0, "duration": 159}, {"note": 73, "velocity": 112, "duration": 41}, {"note": 0, "velocity": 0, "duration": 79}, {"note": 73, "velocity": 92, "duration": 74}, {"note": 80, "velocity": 127, "duration": 332}, {"note": 0, "velocity": 0, "duration": 148}, {"note": 81, "velocity": 117, "duration": 350}, {"note": 0, "velocity": 0, "duration": 130}, {"note": 81, "velocity": 117, "duration": 239}, {"note": 80, "velocity": 100, "duration": 424}, {"note": 78, "velocity": 107, "duration": 440}, {"note": 0, "velocity": 0, "duration": 520}, {"note": 80, "velocity": 112, "duration": 530}, {"note": 0, "velocity": 0, "duration": 910}, {"note": 68, "velocity": 117, "duration": 74}, {"note": 0, "velocity": 0, "duration": 166}, {"note": 81, "velocity": 102, "duration": 231}, {"note": 80, "velocity": 112, "duration": 720}, {"note": 0, "velocity": 0, "duration": 240}, {"note": 56, "velocity": 97, "duration": 178}, {"note": 0, "velocity": 0, "duration": 62}, {"note": 68, "velocity": 99, "duration": 290}, {"note": 66, "velocity": 99, "duration": 240}, {"note": 64, "velocity": 72, "duration": 134}, {"note": 0, "velocity": 0, "duration": 106}, {"note": 63, "velocity": 107, "duration": 257}, {"note": 64, "velocity": 100, "duration": 471}, {"note": 64, "velocity": 127, "duration": 70}, {"note": 0, "velocity": 0, "duration": 170}, {"note": 64, "velocity": 96, "duration": 73}, {"note": 0, "velocity": 0, "duration": 167}, {"note": 64, "velocity": 112, "duration": 64}, {"note": 0, "velocity": 0, "duration": 176}, {"note": 68, "velocity": 122, "duration": 198}, {"note": 71, "velocity": 107, "duration": 169}, {"note": 0, "velocity": 0, "duration": 71}, {"note": 73, "velocity": 122, "duration": 315}, {"note": 0, "velocity": 0, "duration": 645}, {"note": 56, "velocity": 88, "duration": 237}, {"note": 66, "velocity": 100, "duration": 264}, {"note": 64, "velocity": 93, "duration": 272}, {"note": 63, "velocity": 107, "duration": 227}, {"note": 61, "velocity": 97, "duration": 258}, {"note": 63, "velocity": 107, "duration": 351}, {"note": 0, "velocity": 0, "duration": 129}, {"note": 59, "velocity": 96, "duration": 80}, {"note": 0, "velocity": 0, "duration": 160}, {"note": 59, "velocity": 90, "duration": 73}, {"note": 0, "velocity": 0, "duration": 167}, {"note": 59, "velocity": 97, "duration": 164}, {"note": 0, "velocity": 0, "duration": 76}, {"note": 64, "velocity": 99, "duration": 77}, {"note": 0, "velocity": 0, "duration": 163}, {"note": 68, "velocity": 122, "duration": 137}, {"note": 0, "velocity": 0, "duration": 103}, {"note": 71, "velocity": 112, "duration": 444}, {"note": 0, "velocity": 0, "duration": 756}, {"note": 64, "velocity": 102, "duration": 201}, {"note": 63, "velocity": 88, "duration": 227}, {"note": 61, "velocity": 96, "duration": 242}, {"note": 59, "velocity": 74, "duration": 260}, {"note": 61, "velocity": 99, "duration": 561}, {"note": 0, "velocity": 0, "duration": 159}, {"note": 61, "velocity": 112, "duration": 41}, {"note": 0, "velocity": 0, "duration": 79}, {"note": 61, "velocity": 92, "duration": 74}, {"note": 68, "velocity": 127, "duration": 332}, {"note": 0, "velocity": 0, "duration": 148}, {"note": 69, "velocity": 117, "duration": 350}, {"note": 0, "velocity": 0, "duration": 130}, {"note": 69, "velocity": 117, "duration": 239}, {"note": 68, "velocity": 100, "duration": 424}, {"note": 66, "velocity": 107, "duration": 440}, {"note": 66, "velocity": 117, "duration": 158}, {"note": 0, "velocity": 0, "duration": 82}, {"note": 68, "velocity": 97, "duration": 147}, {"note": 0, "velocity": 0, "duration": 93}, {"note": 69, "velocity": 99, "duration": 182}, {"note": 68, "velocity": 122, "duration": 234}, {"note": 0, "velocity": 0, "duration": 246}, {"note": 66, "velocity": 127, "duration": 71}, {"note": 0, "velocity": 0, "duration": 169}, {"note": 63, "velocity": 117, "duration": 330}, {"note": 0, "velocity": 0, "duration": 150}, {"note": 64, "velocity": 102, "duration": 344}, {"note": 0, "velocity": 0, "duration": 136}, {"note": 61, "velocity": 127, "duration": 1285}, {"note": 0, "velocity": 0, "duration": 11040}, {"note": 73, "velocity": 107, "duration": 194}, {"note": 75, "velocity": 102, "duration": 136}, {"note": 0, "velocity": 0, "duration": 104}, {"note": 76, "velocity": 112, "duration": 294}, {"note": 0, "velocity": 0, "duration": 186}, {"note": 75, "velocity": 127, "duration": 162}, {"note": 0, "velocity": 0, "duration": 78}, {"note": 76, "velocity": 102, "duration": 213}, {"note": 0, "velocity": 0, "duration": 507}, {"note": 68, "velocity": 107, "duration": 213}, {"note": 69, "velocity": 99, "duration": 358}, {"note": 0, "velocity": 0, "duration": 122}, {"note": 76, "velocity": 117, "duration": 623}, {"note": 0, "velocity": 0, "duration": 577}, {"note": 71, "velocity": 89, "duration": 136}, {"note": 0, "velocity": 0, "duration": 104}, {"note": 73, "velocity": 107, "duration": 128}, {"note": 0, "velocity": 0, "duration": 112}, {"note": 75, "velocity": 127, "duration": 209}, {"note": 0, "velocity": 0, "duration": 271}, {"note": 73, "velocity": 122, "duration": 208}, {"note": 75, "velocity": 127, "duration": 164}, {"note": 0, "velocity": 0, "duration": 556}, {"note": 66, "velocity": 107, "duration": 249}, {"note": 68, "velocity": 117, "duration": 363}, {"note": 0, "velocity": 0, "duration": 117}, {"note": 75, "velocity": 127, "duration": 308}, {"note": 0, "velocity": 0, "duration": 892}, {"note": 69, "velocity": 100, "duration": 179}, {"note": 0, "velocity": 0, "duration": 61}, {"note": 68, "velocity": 112, "duration": 113}, {"note": 0, "velocity": 0, "duration": 127}, {"note": 69, "velocity": 127, "duration": 243}, {"note": 0, "velocity": 0, "duration": 237}, {"note": 68, "velocity": 122, "duration": 141}, {"note": 0, "velocity": 0, "duration": 99}, {"note": 69, "velocity": 127, "duration": 307}, {"note": 0, "velocity": 0, "duration": 173}, {"note": 80, "velocity": 127, "duration": 251}, {"note": 0, "velocity": 0, "duration": 229}, {"note": 80, "velocity": 127, "duration": 248}, {"note": 0, "velocity": 0, "duration": 232}, {"note": 81, "velocity": 117, "duration": 201}, {"note": 80, "velocity": 117, "duration": 171}, {"note": 0, "velocity": 0, "duration": 69}, {"note": 78, "velocity": 127, "duration": 368}, {"note": 0, "velocity": 0, "duration": 112}, {"note": 76, "velocity": 102, "duration": 123}, {"note": 0, "velocity": 0, "duration": 117}, {"note": 78, "velocity": 127, "duration": 129}, {"note": 0, "velocity": 0, "duration": 111}, {"note": 80, "velocity": 127, "duration": 444}, {"note": 0, "velocity": 0, "duration": 276}, {"note": 78, "velocity": 127, "duration": 137}, {"note": 0, "velocity": 0, "duration": 103}, {"note": 80, "velocity": 127, "duration": 321}, {"note": 0, "velocity": 0, "duration": 399}, {"note": 78, "velocity": 127, "duration": 105}, {"note": 0, "velocity": 0, "duration": 135}, {"note": 80, "velocity": 127, "duration": 1739}, {"note": 0, "velocity": 0, "duration": 1141}, {"note": 68, "velocity": 97, "duration": 178}, {"note": 0, "velocity": 0, "duration": 62}, {"note": 80, "velocity": 99, "duration": 290}, {"note": 78, "velocity": 99, "duration": 240}, {"note": 76, "velocity": 72, "duration": 134}, {"note": 0, "velocity": 0, "duration": 106}, {"note": 75, "velocity": 107, "duration": 257}, {"note": 76, "velocity": 100, "duration": 471}, {"note": 76, "velocity": 127, "duration": 70}, {"note": 0, "velocity": 0, "duration": 170}, {"note": 76, "velocity": 96, "duration": 73}, {"note": 0, "velocity": 0, "duration": 167}, {"note": 76, "velocity": 112, "duration": 64}, {"note": 0, "velocity": 0, "duration": 176}, {"note": 80, "velocity": 122, "duration": 198}, {"note": 83, "velocity": 107, "duration": 169}, {"note": 0, "velocity": 0, "duration": 71}, {"note": 85, "velocity": 122, "duration": 315}, {"note": 0, "velocity": 0, "duration": 645}, {"note": 68, "velocity": 88, "duration": 237}, {"note": 78, "velocity": 100, "duration": 264}, {"note": 76, "velocity": 93, "duration": 272}, {"note": 75, "velocity": 107, "duration": 227}, {"note": 73, "velocity": 97, "duration": 258}, {"note": 75, "velocity": 107, "duration": 351}, {"note": 0, "velocity": 0, "duration": 129}, {"note": 71, "velocity": 96, "duration": 80}, {"note": 0, "velocity": 0, "duration": 160}, {"note": 71, "velocity": 90, "duration": 73}, {"note": 0, "velocity": 0, "duration": 167}, {"note": 71, "velocity": 97, "duration": 164}, {"note": 0, "velocity": 0, "duration": 76}, {"note": 76, "velocity": 99, "duration": 77}, {"note": 80, "velocity": 122, "duration": 137}, {"note": 0, "velocity": 0, "duration": 103}, {"note": 83, "velocity": 112, "duration": 444}, {"note": 0, "velocity": 0, "duration": 756}, {"note": 76, "velocity": 102, "duration": 201}, {"note": 75, "velocity": 88, "duration": 227}, {"note": 73, "velocity": 96, "duration": 242}, {"note": 71, "velocity": 74, "duration": 260}, {"note": 73, "velocity": 99, "duration": 561}, {"note": 0, "velocity": 0, "duration": 159}, {"note": 73, "velocity": 112, "duration": 41}, {"note": 0, "velocity": 0, "duration": 79}, {"note": 73, "velocity": 92, "duration": 74}, {"note": 80, "velocity": 127, "duration": 332}, {"note": 0, "velocity": 0, "duration": 148}, {"note": 81, "velocity": 117, "duration": 350}, {"note": 0, "velocity": 0, "duration": 130}, {"note": 81, "velocity": 117, "duration": 239}, {"note": 80, "velocity": 100, "duration": 424}, {"note": 78, "velocity": 107, "duration": 440}, {"note": 0, "velocity": 0, "duration": 520}, {"note": 80, "velocity": 112, "duration": 530}, {"note": 0, "velocity": 0, "duration": 910}, {"note": 68, "velocity": 117, "duration": 74}, {"note": 0, "velocity": 0, "duration": 166}, {"note": 81, "velocity": 102, "duration": 231}, {"note": 80, "velocity": 112, "duration": 720}, {"note": 0, "velocity": 0, "duration": 240}, {"note": 68, "velocity": 97, "duration": 178}, {"note": 0, "velocity": 0, "duration": 62}, {"note": 80, "velocity": 99, "duration": 290}, {"note": 78, "velocity": 99, "duration": 240}, {"note": 76, "velocity": 72, "duration": 134}, {"note": 0, "velocity": 0, "duration": 106}, {"note": 75, "velocity": 107, "duration": 257}, {"note": 76, "velocity": 100, "duration": 471}, {"note": 76, "velocity": 127, "duration": 70}, {"note": 0, "velocity": 0, "duration": 170}, {"note": 76, "velocity": 96, "duration": 73}, {"note": 0, "velocity": 0, "duration": 167}, {"note": 76, "velocity": 112, "duration": 64}, {"note": 0, "velocity": 0, "duration": 176}, {"note": 80, "velocity": 122, "duration": 198}, {"note": 83, "velocity": 107, "duration": 169}, {"note": 0, "velocity": 0, "duration": 71}, {"note": 85, "velocity": 122, "duration": 315}, {"note": 0, "velocity": 0, "duration": 645}, {"note": 68, "velocity": 88, "duration": 237}, {"note": 78, "velocity": 100, "duration": 264}, {"note": 76, "velocity": 93, "duration": 272}, {"note": 75, "velocity": 107, "duration": 227}, {"note": 73, "velocity": 97, "duration": 258}, {"note": 75, "velocity": 107, "duration": 351}, {"note": 0, "velocity": 0, "duration": 129}, {"note": 71, "velocity": 96, "duration": 80}, {"note": 0, "velocity": 0, "duration": 160}, {"note": 71, "velocity": 90, "duration": 73}, {"note": 0, "velocity": 0, "duration": 167}, {"note": 71, "velocity": 97, "duration": 164}, {"note": 0, "velocity": 0, "duration": 76}, {"note": 76, "velocity": 99, "duration": 77}, {"note": 0, "velocity": 0, "duration": 163}, {"note": 80, "velocity": 122, "duration": 137}, {"note": 0, "velocity": 0, "duration": 103}, {"note": 83, "velocity": 112, "duration": 444}, {"note": 0, "velocity": 0, "duration": 756}, {"note": 76, "velocity": 102, "duration": 201}, {"note": 75, "velocity": 88, "duration": 227}, {"note": 73, "velocity": 96, "duration": 242}, {"note": 71, "velocity": 74, "duration": 260}, {"note": 73, "velocity": 99, "duration": 561}, {"note": 0, "velocity": 0, "duration": 159}, {"note": 73, "velocity": 112, "duration": 41}, {"note": 0, "velocity": 0, "duration": 79}, {"note": 73, "velocity": 92, "duration": 74}, {"note": 80, "velocity": 127, "duration": 332}, {"note": 0, "velocity": 0, "duration": 148}, {"note": 81, "velocity": 117, "duration": 350}, {"note": 0, "velocity": 0, "duration": 130}, {"note": 81, "velocity": 117, "duration": 239}, {"note": 80, "velocity": 100, "duration": 424}, {"note": 78, "velocity": 107, "duration": 440}, {"note": 78, "velocity": 117, "duration": 158}, {"note": 0, "velocity": 0, "duration": 82}, {"note": 80, "velocity": 97, "duration": 147}, {"note": 0, "velocity": 0, "duration": 93}, {"note": 81, "velocity": 99, "duration": 182}, {"note": 80, "velocity": 122, "duration": 234}, {"note": 0, "velocity": 0, "duration": 246}, {"note": 78, "velocity": 127, "duration": 163}, {"note": 0, "velocity": 0, "duration": 77}, {"note": 75, "velocity": 117, "duration": 330}, {"note": 0, "velocity": 0, "duration": 150}, {"note": 76, "velocity": 102, "duration": 344}, {"note": 0, "velocity": 0, "duration": 136}, {"note": 73, "velocity": 127, "duration": 720}, {"note": 0, "velocity": 0, "duration": 240}, {"note": 68, "velocity": 97, "duration": 178}, {"note": 0, "velocity": 0, "duration": 62}, {"note": 80, "velocity": 99, "duration": 290}, {"note": 78, "velocity": 99, "duration": 240}, {"note": 76, "velocity": 72, "duration": 134}, {"note": 0, "velocity": 0, "duration": 106}, {"note": 75, "velocity": 107, "duration": 257}, {"note": 76, "velocity": 100, "duration": 471}, {"note": 76, "velocity": 127, "duration": 70}, {"note": 0, "velocity": 0, "duration": 170}, {"note": 76, "velocity": 96, "duration": 73}, {"note": 0, "velocity": 0, "duration": 167}, {"note": 76, "velocity": 112, "duration": 64}, {"note": 0, "velocity": 0, "duration": 176}, {"note": 80, "velocity": 122, "duration": 198}, {"note": 83, "velocity": 107, "duration": 169}, {"note": 0, "velocity": 0, "duration": 71}, {"note": 85, "velocity": 122, "duration": 315}, {"note": 0, "velocity": 0, "duration": 645}, {"note": 68, "velocity": 88, "duration": 237}, {"note": 78, "velocity": 100, "duration": 264}, {"note": 76, "velocity": 93, "duration": 272}, {"note": 75, "velocity": 107, "duration": 227}, {"note": 73, "velocity": 97, "duration": 258}, {"note": 75, "velocity": 107, "duration": 351}, {"note": 71, "velocity": 96, "duration": 80}, {"note": 0, "velocity": 0, "duration": 160}, {"note": 71, "velocity": 90, "duration": 73}, {"note": 0, "velocity": 0, "duration": 167}, {"note": 71, "velocity": 97, "duration": 164}, {"note": 0, "velocity": 0, "duration": 76}, {"note": 76, "velocity": 99, "duration": 77}, {"note": 0, "velocity": 0, "duration": 163}, {"note": 80, "velocity": 122, "duration": 137}, {"note": 0, "velocity": 0, "duration": 103}, {"note": 83, "velocity": 112, "duration": 444}, {"note": 0, "velocity": 0, "duration": 756}, {"note": 76, "velocity": 102, "duration": 201}, {"note": 75, "velocity": 88, "duration": 227}, {"note": 73, "velocity": 96, "duration": 242}, {"note": 71, "velocity": 74, "duration": 260}, {"note": 73, "velocity": 99, "duration": 561}, {"note": 0, "velocity": 0, "duration": 159}, {"note": 73, "velocity": 112, "duration": 41}, {"note": 0, "velocity": 0, "duration": 79}, {"note": 73, "velocity": 92, "duration": 74}, {"note": 80, "velocity": 127, "duration": 332}, {"note": 0, "velocity": 0, "duration": 148}, {"note": 81, "velocity": 117, "duration": 350}, {"note": 0, "velocity": 0, "duration": 130}, {"note": 81, "velocity": 117, "duration": 239}, {"note": 80, "velocity": 100, "duration": 424}, {"note": 78, "velocity": 107, "duration": 440}, {"note": 0, "velocity": 0, "duration": 520}, {"note": 80, "velocity": 112, "duration": 530}, {"note": 0, "velocity": 0, "duration": 910}, {"note": 56, "velocity": 117, "duration": 74}, {"note": 0, "velocity": 0, "duration": 166}, {"note": 69, "velocity": 102, "duration": 231}, {"note": 68, "velocity": 112, "duration": 720}, {"note": 0, "velocity": 0, "duration": 240}, {"note": 56, "velocity": 97, "duration": 178}, {"note": 0, "velocity": 0, "duration": 62}, {"note": 68, "velocity": 99, "duration": 290}, {"note": 66, "velocity": 99, "duration": 240}, {"note": 64, "velocity": 72, "duration": 134}, {"note": 0, "velocity": 0, "duration": 106}, {"note": 63, "velocity": 107, "duration": 257}, {"note": 64, "velocity": 100, "duration": 471}, {"note": 64, "velocity": 127, "duration": 70}, {"note": 0, "velocity": 0, "duration": 170}, {"note": 64, "velocity": 96, "duration": 73}, {"note": 0, "velocity": 0, "duration": 167}, {"note": 64, "velocity": 112, "duration": 64}, {"note": 0, "velocity": 0, "duration": 176}, {"note": 68, "velocity": 122, "duration": 198}, {"note": 71, "velocity": 107, "duration": 169}, {"note": 0, "velocity": 0, "duration": 71}, {"note": 73, "velocity": 122, "duration": 315}, {"note": 0, "velocity": 0, "duration": 645}, {"note": 56, "velocity": 88, "duration": 237}, {"note": 66, "velocity": 100, "duration": 264}, {"note": 64, "velocity": 93, "duration": 272}, {"note": 63, "velocity": 107, "duration": 227}, {"note": 61, "velocity": 97, "duration": 258}, {"note": 63, "velocity": 107, "duration": 351}, {"note": 0, "velocity": 0, "duration": 129}, {"note": 59, "velocity": 96, "duration": 80}, {"note": 0, "velocity": 0, "duration": 160}, {"note": 59, "velocity": 90, "duration": 73}, {"note": 0, "velocity": 0, "duration": 167}, {"note": 59, "velocity": 97, "duration": 164}, {"note": 0, "velocity": 0, "duration": 76}, {"note": 64, "velocity": 99, "duration": 77}, {"note": 0, "velocity": 0, "duration": 163}, {"note": 68, "velocity": 122, "duration": 137}, {"note": 0, "velocity": 0, "duration": 103}, {"note": 71, "velocity": 112, "duration": 444}, {"note": 0, "velocity": 0, "duration": 756}, {"note": 64, "velocity": 102, "duration": 201}, {"note": 63, "velocity": 88, "duration": 227}, {"note": 61, "velocity": 96, "duration": 242}, {"note": 59, "velocity": 74, "duration": 260}, {"note": 61, "velocity": 99, "duration": 561}, {"note": 0, "velocity": 0, "duration": 159}, {"note": 61, "velocity": 112, "duration": 41}, {"note": 0, "velocity": 0, "duration": 79}, {"note": 61, "velocity": 92, "duration": 74}, {"note": 68, "velocity": 127, "duration": 332}, {"note": 0, "velocity": 0, "duration": 148}, {"note": 69, "velocity": 117, "duration": 350}, {"note": 0, "velocity": 0, "duration": 130}, {"note": 69, "velocity": 117, "duration": 239}, {"note": 68, "velocity": 100, "duration": 424}, {"note": 66, "velocity": 107, "duration": 440}, {"note": 66, "velocity": 117, "duration": 158}, {"note": 0, "velocity": 0, "duration": 82}, {"note": 68, "velocity": 97, "duration": 147}, {"note": 0, "velocity": 0, "duration": 93}, {"note": 69, "velocity": 99, "duration": 182}, {"note": 68, "velocity": 122, "duration": 234}, {"note": 0, "velocity": 0, "duration": 246}, {"note": 66, "velocity": 127, "duration": 163}, {"note": 0, "velocity": 0, "duration": 77}, {"note": 63, "velocity": 117, "duration": 330}, {"note": 0, "velocity": 0, "duration": 150}, {"note": 64, "velocity": 102, "duration": 104}, {"note": 0, "velocity": 0, "duration": 136}, {"note": 61, "velocity": 127, "duration": 1285}]]