[[{"note": 67, "velocity": 73, "duration": 57}, {"note": 0, "velocity": 0, "duration": 63}, {"note": 67, "velocity": 73, "duration": 113}, {"note": 62, "velocity": 55, "duration": 68}, {"note": 62, "velocity": 67, "duration": 79}, {"note": 69, "velocity": 71, "duration": 51}, {"note": 0, "velocity": 0, "duration": 69}, {"note": 69, "velocity": 85, "duration": 60}, {"note": 67, "velocity": 70, "duration": 61}, {"note": 69, "velocity": 111, "duration": 177}, {"note": 0, "velocity": 0, "duration": 63}, {"note": 69, "velocity": 74, "duration": 66}, {"note": 69, "velocity": 75, "duration": 137}, {"note": 0, "velocity": 0, "duration": 103}, {"note": 67, "velocity": 86, "duration": 70}, {"note": 66, "velocity": 61, "duration": 66}, {"note": 67, "velocity": 75, "duration": 197}, {"note": 67, "velocity": 64, "duration": 51}, {"note": 0, "velocity": 0, "duration": 69}, {"note": 67, "velocity": 73, "duration": 73}, {"note": 62, "velocity": 60, "duration": 63}, {"note": 62, "velocity": 63, "duration": 69}, {"note": 69, "velocity": 69, "duration": 50}, {"note": 0, "velocity": 0, "duration": 70}, {"note": 69, "velocity": 85, "duration": 73}, {"note": 67, "velocity": 66, "duration": 63}, {"note": 69, "velocity": 104, "duration": 167}, {"note": 0, "velocity": 0, "duration": 73}, {"note": 69, "velocity": 70, "duration": 55}, {"note": 0, "velocity": 0, "duration": 65}, {"note": 69, "velocity": 74, "duration": 155}, {"note": 0, "velocity": 0, "duration": 85}, {"note": 67, "velocity": 98, "duration": 76}, {"note": 66, "velocity": 63, "duration": 79}, {"note": 67, "velocity": 83, "duration": 120}, {"note": 0, "velocity": 0, "duration": 120}, {"note": 67, "velocity": 75, "duration": 41}, {"note": 0, "velocity": 0, "duration": 79}, {"note": 67, "velocity": 76, "duration": 117}, {"note": 62, "velocity": 74, "duration": 84}, {"note": 67, "velocity": 95, "duration": 193}, {"note": 69, "velocity": 70, "duration": 47}, {"note": 69, "velocity": 81, "duration": 135}, {"note": 67, "velocity": 70, "duration": 89}, {"note": 74, "velocity": 73, "duration": 204}, {"note": 74, "velocity": 72, "duration": 134}, {"note": 69, "velocity": 67, "duration": 147}, {"note": 0, "velocity": 0, "duration": 93}, {"note": 71, "velocity": 72, "duration": 144}, {"note": 69, "velocity": 73, "duration": 130}, {"note": 67, "velocity": 83, "duration": 285}, {"note": 67, "velocity": 81, "duration": 45}, {"note": 0, "velocity": 0, "duration": 75}, {"note": 67, "velocity": 77, "duration": 85}, {"note": 62, "velocity": 72, "duration": 94}, {"note": 67, "velocity": 83, "duration": 71}, {"note": 69, "velocity": 70, "duration": 61}, {"note": 69, "velocity": 75, "duration": 71}, {"note": 67, "velocity": 72, "duration": 65}, {"note": 69, "velocity": 83, "duration": 368}, {"note": 69, "velocity": 86, "duration": 8}, {"note": 0, "velocity": 0, "duration": 112}, {"note": 69, "velocity": 93, "duration": 84}, {"note": 71, "velocity": 79, "duration": 210}, {"note": 0, "velocity": 0, "duration": 150}, {"note": 69, "velocity": 87, "duration": 201}, {"note": 0, "velocity": 0, "duration": 159}, {"note": 67, "velocity": 81, "duration": 1089}, {"note": 67, "velocity": 95, "duration": 9}, {"note": 0, "velocity": 0, "duration": 111}, {"note": 69, "velocity": 69, "duration": 151}, {"note": 71, "velocity": 85, "duration": 61}, {"note": 72, "velocity": 76, "duration": 54}, {"note": 0, "velocity": 0, "duration": 66}, {"note": 74, "velocity": 90, "duration": 395}, {"note": 0, "velocity": 0, "duration": 85}, {"note": 67, "velocity": 104, "duration": 323}, {"note": 69, "velocity": 87, "duration": 131}, {"note": 0, "velocity": 0, "duration": 109}, {"note": 69, "velocity": 98, "duration": 367}, {"note": 0, "velocity": 0, "duration": 113}, {"note": 66, "velocity": 73, "duration": 127}, {"note": 67, "velocity": 86, "duration": 140}, {"note": 69, "velocity": 74, "duration": 102}, {"note": 62, "velocity": 59, "duration": 126}, {"note": 74, "velocity": 87, "duration": 189}, {"note": 0, "velocity": 0, "duration": 291}, {"note": 69, "velocity": 85, "duration": 191}, {"note": 71, "velocity": 98, "duration": 219}, {"note": 67, "velocity": 95, "duration": 436}, {"note": 67, "velocity": 77, "duration": 150}, {"note": 69, "velocity": 65, "duration": 125}, {"note": 71, "velocity": 74, "duration": 118}, {"note": 67, "velocity": 72, "duration": 97}, {"note": 74, "velocity": 95, "duration": 416}, {"note": 0, "velocity": 0, "duration": 64}, {"note": 67, "velocity": 90, "duration": 186}, {"note": 69, "velocity": 76, "duration": 143}, {"note": 0, "velocity": 0, "duration": 97}, {"note": 69, "velocity": 93, "duration": 322}, {"note": 66, "velocity": 63, "duration": 51}, {"note": 0, "velocity": 0, "duration": 69}, {"note": 66, "velocity": 69, "duration": 67}, {"note": 67, "velocity": 74, "duration": 63}, {"note": 69, "velocity": 81, "duration": 182}, {"note": 72, "velocity": 93, "duration": 181}, {"note": 71, "velocity": 66, "duration": 56}, {"note": 0, "velocity": 0, "duration": 64}, {"note": 69, "velocity": 72, "duration": 49}, {"note": 0, "velocity": 0, "duration": 71}, {"note": 69, "velocity": 76, "duration": 87}, {"note": 67, "velocity": 66, "duration": 68}, {"note": 71, "velocity": 93, "duration": 134}, {"note": 0, "velocity": 0, "duration": 106}, {"note": 69, "velocity": 79, "duration": 209}, {"note": 0, "velocity": 0, "duration": 151}, {"note": 62, "velocity": 62, "duration": 70}, {"note": 74, "velocity": 72, "duration": 80}, {"note": 72, "velocity": 63, "duration": 56}, {"note": 0, "velocity": 0, "duration": 64}, {"note": 71, "velocity": 75, "duration": 89}, {"note": 69, "velocity": 61, "duration": 57}, {"note": 0, "velocity": 0, "duration": 63}, {"note": 69, "velocity": 85, "duration": 103}, {"note": 71, "velocity": 66, "duration": 138}, {"note": 0, "velocity": 0, "duration": 102}, {"note": 71, "velocity": 76, "duration": 78}, {"note": 74, "velocity": 75, "duration": 54}, {"note": 0, "velocity": 0, "duration": 66}, {"note": 76, "velocity": 73, "duration": 63}, {"note": 74, "velocity": 73, "duration": 46}, {"note": 0, "velocity": 0, "duration": 74}, {"note": 76, "velocity": 72, "duration": 51}, {"note": 0, "velocity": 0, "duration": 69}, {"note": 74, "velocity": 87, "duration": 172}, {"note": 69, "velocity": 79, "duration": 137}, {"note": 0, "velocity": 0, "duration": 103}, {"note": 69, "velocity": 63, "duration": 81}, {"note": 79, "velocity": 95, "duration": 92}, {"note": 78, "velocity": 86, "duration": 53}, {"note": 0, "velocity": 0, "duration": 67}, {"note": 79, "velocity": 85, "duration": 47}, {"note": 0, "velocity": 0, "duration": 73}, {"note": 78, "velocity": 77, "duration": 42}, {"note": 0, "velocity": 0, "duration": 78}, {"note": 76, "velocity": 75, "duration": 72}, {"note": 0, "velocity": 0, "duration": 168}, {"note": 79, "velocity": 93, "duration": 250}, {"note": 78, "velocity": 79, "duration": 93}, {"note": 74, "velocity": 79, "duration": 166}, {"note": 0, "velocity": 0, "duration": 194}, {"note": 71, "velocity": 93, "duration": 249}, {"note": 0, "velocity": 0, "duration": 111}, {"note": 71, "velocity": 77, "duration": 76}, {"note": 79, "velocity": 87, "duration": 80}, {"note": 78, "velocity": 69, "duration": 62}, {"note": 79, "velocity": 85, "duration": 108}, {"note": 78, "velocity": 67, "duration": 53}, {"note": 0, "velocity": 0, "duration": 67}, {"note": 76, "velocity": 76, "duration": 286}, {"note": 79, "velocity": 108, "duration": 248}, {"note": 78, "velocity": 76, "duration": 94}, {"note": 0, "velocity": 0, "duration": 146}, {"note": 74, "velocity": 77, "duration": 90}, {"note": 71, "velocity": 93, "duration": 271}, {"note": 0, "velocity": 0, "duration": 209}, {"note": 71, "velocity": 90, "duration": 48}, {"note": 0, "velocity": 0, "duration": 72}, {"note": 71, "velocity": 95, "duration": 59}, {"note": 0, "velocity": 0, "duration": 61}, {"note": 69, "velocity": 72, "duration": 53}, {"note": 0, "velocity": 0, "duration": 67}, {"note": 69, "velocity": 79, "duration": 61}, {"note": 71, "velocity": 93, "duration": 45}, {"note": 0, "velocity": 0, "duration": 75}, {"note": 71, "velocity": 95, "duration": 198}, {"note": 69, "velocity": 73, "duration": 51}, {"note": 0, "velocity": 0, "duration": 69}, {"note": 69, "velocity": 74, "duration": 156}, {"note": 0, "velocity": 0, "duration": 84}, {"note": 67, "velocity": 64, "duration": 67}, {"note": 71, "velocity": 93, "duration": 144}, {"note": 0, "velocity": 0, "duration": 96}, {"note": 69, "velocity": 98, "duration": 326}, {"note": 62, "velocity": 62, "duration": 70}, {"note": 74, "velocity": 72, "duration": 80}, {"note": 72, "velocity": 63, "duration": 56}, {"note": 0, "velocity": 0, "duration": 64}, {"note": 71, "velocity": 75, "duration": 89}, {"note": 69, "velocity": 61, "duration": 57}, {"note": 0, "velocity": 0, "duration": 63}, {"note": 69, "velocity": 85, "duration": 103}, {"note": 71, "velocity": 66, "duration": 138}, {"note": 0, "velocity": 0, "duration": 102}, {"note": 71, "velocity": 76, "duration": 78}, {"note": 74, "velocity": 75, "duration": 54}, {"note": 0, "velocity": 0, "duration": 66}, {"note": 76, "velocity": 73, "duration": 63}, {"note": 74, "velocity": 73, "duration": 46}, {"note": 0, "velocity": 0, "duration": 74}, {"note": 76, "velocity": 72, "duration": 51}, {"note": 0, "velocity": 0, "duration": 69}, {"note": 74, "velocity": 87, "duration": 172}, {"note": 69, "velocity": 79, "duration": 137}, {"note": 0, "velocity": 0, "duration": 103}, {"note": 69, "velocity": 63, "duration": 81}, {"note": 79, "velocity": 95, "duration": 92}, {"note": 78, "velocity": 86, "duration": 53}, {"note": 0, "velocity": 0, "duration": 67}, {"note": 79, "velocity": 85, "duration": 47}, {"note": 0, "velocity": 0, "duration": 73}, {"note": 78, "velocity": 77, "duration": 42}, {"note": 0, "velocity": 0, "duration": 78}, {"note": 76, "velocity": 75, "duration": 72}, {"note": 0, "velocity": 0, "duration": 168}, {"note": 79, "velocity": 93, "duration": 250}, {"note": 78, "velocity": 79, "duration": 93}, {"note": 74, "velocity": 79, "duration": 166}, {"note": 0, "velocity": 0, "duration": 194}, {"note": 71, "velocity": 93, "duration": 249}, {"note": 0, "velocity": 0, "duration": 111}, {"note": 71, "velocity": 77, "duration": 76}, {"note": 79, "velocity": 87, "duration": 80}, {"note": 78, "velocity": 69, "duration": 62}, {"note": 79, "velocity": 85, "duration": 108}, {"note": 78, "velocity": 67, "duration": 53}, {"note": 0, "velocity": 0, "duration": 67}, {"note": 76, "velocity": 76, "duration": 286}, {"note": 79, "velocity": 108, "duration": 248}, {"note": 78, "velocity": 76, "duration": 94}, {"note": 0, "velocity": 0, "duration": 146}, {"note": 74, "velocity": 77, "duration": 90}, {"note": 71, "velocity": 93, "duration": 271}, {"note": 0, "velocity": 0, "duration": 209}, {"note": 71, "velocity": 90, "duration": 48}, {"note": 0, "velocity": 0, "duration": 72}, {"note": 71, "velocity": 95, "duration": 59}, {"note": 0, "velocity": 0, "duration": 61}, {"note": 69, "velocity": 72, "duration": 53}, {"note": 0, "velocity": 0, "duration": 67}, {"note": 69, "velocity": 79, "duration": 61}, {"note": 71, "velocity": 93, "duration": 45}, {"note": 0, "velocity": 0, "duration": 75}, {"note": 71, "velocity": 95, "duration": 198}, {"note": 69, "velocity": 85, "duration": 95}, {"note": 0, "velocity": 0, "duration": 145}, {"note": 69, "velocity": 83, "duration": 56}, {"note": 0, "velocity": 0, "duration": 64}, {"note": 69, "velocity": 95, "duration": 59}, {"note": 0, "velocity": 0, "duration": 61}, {"note": 69, "velocity": 85, "duration": 89}, {"note": 0, "velocity": 0, "duration": 151}, {"note": 69, "velocity": 79, "duration": 52}, {"note": 0, "velocity": 0, "duration": 68}, {"note": 71, "velocity": 95, "duration": 206}, {"note": 0, "velocity": 0, "duration": 154}, {"note": 69, "velocity": 90, "duration": 193}, {"note": 0, "velocity": 0, "duration": 167}, {"note": 69, "velocity": 93, "duration": 170}, {"note": 0, "velocity": 0, "duration": 70}, {"note": 67, "velocity": 90, "duration": 993}, {"note": 0, "velocity": 0, "duration": 6807}, {"note": 67, "velocity": 73, "duration": 57}, {"note": 0, "velocity": 0, "duration": 63}, {"note": 67, "velocity": 73, "duration": 113}, {"note": 62, "velocity": 55, "duration": 68}, {"note": 62, "velocity": 67, "duration": 79}, {"note": 69, "velocity": 71, "duration": 51}, {"note": 0, "velocity": 0, "duration": 69}, {"note": 69, "velocity": 85, "duration": 60}, {"note": 67, "velocity": 70, "duration": 61}, {"note": 69, "velocity": 111, "duration": 177}, {"note": 0, "velocity": 0, "duration": 63}, {"note": 69, "velocity": 74, "duration": 66}, {"note": 69, "velocity": 75, "duration": 137}, {"note": 0, "velocity": 0, "duration": 103}, {"note": 67, "velocity": 86, "duration": 70}, {"note": 66, "velocity": 61, "duration": 66}, {"note": 67, "velocity": 75, "duration": 197}, {"note": 67, "velocity": 64, "duration": 51}, {"note": 0, "velocity": 0, "duration": 69}, {"note": 67, "velocity": 73, "duration": 73}, {"note": 62, "velocity": 60, "duration": 63}, {"note": 62, "velocity": 63, "duration": 69}, {"note": 69, "velocity": 69, "duration": 50}, {"note": 0, "velocity": 0, "duration": 70}, {"note": 69, "velocity": 85, "duration": 73}, {"note": 67, "velocity": 66, "duration": 63}, {"note": 69, "velocity": 104, "duration": 167}, {"note": 0, "velocity": 0, "duration": 73}, {"note": 69, "velocity": 70, "duration": 55}, {"note": 0, "velocity": 0, "duration": 65}, {"note": 69, "velocity": 74, "duration": 155}, {"note": 0, "velocity": 0, "duration": 85}, {"note": 67, "velocity": 98, "duration": 76}, {"note": 66, "velocity": 63, "duration": 79}, {"note": 67, "velocity": 83, "duration": 120}, {"note": 0, "velocity": 0, "duration": 120}, {"note": 67, "velocity": 75, "duration": 41}, {"note": 0, "velocity": 0, "duration": 79}, {"note": 67, "velocity": 76, "duration": 117}, {"note": 62, "velocity": 74, "duration": 84}, {"note": 67, "velocity": 95, "duration": 193}, {"note": 69, "velocity": 70, "duration": 47}, {"note": 69, "velocity": 81, "duration": 135}, {"note": 67, "velocity": 70, "duration": 89}, {"note": 74, "velocity": 73, "duration": 204}, {"note": 74, "velocity": 72, "duration": 134}, {"note": 69, "velocity": 67, "duration": 147}, {"note": 0, "velocity": 0, "duration": 93}, {"note": 71, "velocity": 72, "duration": 144}, {"note": 69, "velocity": 73, "duration": 130}, {"note": 67, "velocity": 83, "duration": 285}, {"note": 67, "velocity": 81, "duration": 45}, {"note": 0, "velocity": 0, "duration": 75}, {"note": 67, "velocity": 77, "duration": 85}, {"note": 62, "velocity": 72, "duration": 94}, {"note": 67, "velocity": 83, "duration": 71}, {"note": 69, "velocity": 70, "duration": 61}, {"note": 69, "velocity": 75, "duration": 71}, {"note": 67, "velocity": 72, "duration": 65}, {"note": 69, "velocity": 83, "duration": 368}, {"note": 69, "velocity": 86, "duration": 8}, {"note": 0, "velocity": 0, "duration": 112}, {"note": 69, "velocity": 93, "duration": 84}, {"note": 71, "velocity": 79, "duration": 210}, {"note": 0, "velocity": 0, "duration": 150}, {"note": 69, "velocity": 87, "duration": 201}, {"note": 0, "velocity": 0, "duration": 159}, {"note": 67, "velocity": 81, "duration": 1089}, {"note": 67, "velocity": 95, "duration": 9}, {"note": 0, "velocity": 0, "duration": 111}, {"note": 69, "velocity": 69, "duration": 151}, {"note": 71, "velocity": 85, "duration": 61}, {"note": 72, "velocity": 76, "duration": 54}, {"note": 0, "velocity": 0, "duration": 66}, {"note": 74, "velocity": 90, "duration": 395}, {"note": 0, "velocity": 0, "duration": 85}, {"note": 67, "velocity": 104, "duration": 323}, {"note": 69, "velocity": 87, "duration": 131}, {"note": 0, "velocity": 0, "duration": 109}, {"note": 69, "velocity": 98, "duration": 367}, {"note": 0, "velocity": 0, "duration": 113}, {"note": 66, "velocity": 73, "duration": 127}, {"note": 67, "velocity": 86, "duration": 140}, {"note": 69, "velocity": 74, "duration": 102}, {"note": 62, "velocity": 59, "duration": 126}, {"note": 74, "velocity": 87, "duration": 189}, {"note": 0, "velocity": 0, "duration": 291}, {"note": 69, "velocity": 85, "duration": 191}, {"note": 71, "velocity": 98, "duration": 219}, {"note": 67, "velocity": 95, "duration": 436}, {"note": 67, "velocity": 77, "duration": 150}, {"note": 69, "velocity": 65, "duration": 125}, {"note": 71, "velocity": 74, "duration": 118}, {"note": 67, "velocity": 72, "duration": 97}, {"note": 74, "velocity": 95, "duration": 416}, {"note": 0, "velocity": 0, "duration": 64}, {"note": 67, "velocity": 90, "duration": 186}, {"note": 69, "velocity": 76, "duration": 143}, {"note": 0, "velocity": 0, "duration": 97}, {"note": 69, "velocity": 93, "duration": 322}, {"note": 66, "velocity": 63, "duration": 51}, {"note": 0, "velocity": 0, "duration": 69}, {"note": 66, "velocity": 69, "duration": 67}, {"note": 67, "velocity": 74, "duration": 63}, {"note": 69, "velocity": 81, "duration": 182}, {"note": 72, "velocity": 93, "duration": 181}, {"note": 71, "velocity": 66, "duration": 56}, {"note": 0, "velocity": 0, "duration": 64}, {"note": 69, "velocity": 72, "duration": 49}, {"note": 0, "velocity": 0, "duration": 71}, {"note": 69, "velocity": 76, "duration": 87}, {"note": 67, "velocity": 66, "duration": 68}, {"note": 71, "velocity": 93, "duration": 134}, {"note": 0, "velocity": 0, "duration": 106}, {"note": 69, "velocity": 79, "duration": 209}, {"note": 0, "velocity": 0, "duration": 151}, {"note": 62, "velocity": 62, "duration": 70}, {"note": 74, "velocity": 72, "duration": 80}, {"note": 72, "velocity": 63, "duration": 56}, {"note": 0, "velocity": 0, "duration": 64}, {"note": 71, "velocity": 75, "duration": 89}, {"note": 69, "velocity": 61, "duration": 57}, {"note": 0, "velocity": 0, "duration": 63}, {"note": 69, "velocity": 85, "duration": 103}, {"note": 71, "velocity": 66, "duration": 138}, {"note": 0, "velocity": 0, "duration": 102}, {"note": 71, "velocity": 76, "duration": 78}, {"note": 74, "velocity": 75, "duration": 54}, {"note": 0, "velocity": 0, "duration": 66}, {"note": 76, "velocity": 73, "duration": 63}, {"note": 74, "velocity": 73, "duration": 46}, {"note": 0, "velocity": 0, "duration": 74}, {"note": 76, "velocity": 72, "duration": 51}, {"note": 0, "velocity": 0, "duration": 69}, {"note": 74, "velocity": 87, "duration": 172}, {"note": 69, "velocity": 79, "duration": 137}, {"note": 0, "velocity": 0, "duration": 103}, {"note": 69, "velocity": 63, "duration": 81}, {"note": 79, "velocity": 95, "duration": 92}, {"note": 78, "velocity": 86, "duration": 53}, {"note": 0, "velocity": 0, "duration": 67}, {"note": 79, "velocity": 85, "duration": 47}, {"note": 0, "velocity": 0, "duration": 73}, {"note": 78, "velocity": 77, "duration": 42}, {"note": 0, "velocity": 0, "duration": 78}, {"note": 76, "velocity": 75, "duration": 72}, {"note": 0, "velocity": 0, "duration": 168}, {"note": 79, "velocity": 93, "duration": 250}, {"note": 78, "velocity": 79, "duration": 93}, {"note": 74, "velocity": 79, "duration": 166}, {"note": 0, "velocity": 0, "duration": 194}, {"note": 71, "velocity": 93, "duration": 249}, {"note": 0, "velocity": 0, "duration": 111}, {"note": 71, "velocity": 77, "duration": 76}, {"note": 79, "velocity": 87, "duration": 80}, {"note": 78, "velocity": 69, "duration": 62}, {"note": 79, "velocity": 85, "duration": 108}, {"note": 78, "velocity": 67, "duration": 53}, {"note": 0, "velocity": 0, "duration": 67}, {"note": 76, "velocity": 76, "duration": 286}, {"note": 79, "velocity": 108, "duration": 248}, {"note": 78, "velocity": 76, "duration": 94}, {"note": 0, "velocity": 0, "duration": 146}, {"note": 74, "velocity": 77, "duration": 90}, {"note": 71, "velocity": 93, "duration": 271}, {"note": 0, "velocity": 0, "duration": 209}, {"note": 71, "velocity": 90, "duration": 48}, {"note": 0, "velocity": 0, "duration": 72}, {"note": 71, "velocity": 95, "duration": 59}, {"note": 0, "velocity": 0, "duration": 61}, {"note": 69, "velocity": 72, "duration": 53}, {"note": 0, "velocity": 0, "duration": 67}, {"note": 69, "velocity": 79, "duration": 61}, {"note": 71, "velocity": 93, "duration": 45}, {"note": 0, "velocity": 0, "duration": 75}, {"note": 71, "velocity": 95, "duration": 198}, {"note": 69, "velocity": 73, "duration": 51}, {"note": 0, "velocity": 0, "duration": 69}, {"note": 69, "velocity": 74, "duration": 156}, {"note": 0, "velocity": 0, "duration": 84}, {"note": 67, "velocity": 64, "duration": 67}, {"note": 71, "velocity": 93, "duration": 144}, {"note": 0, "velocity": 0, "duration": 96}, {"note": 69, "velocity": 98, "duration": 326}, {"note": 62, "velocity": 62, "duration": 70}, {"note": 74, "velocity": 72, "duration": 80}, {"note": 72, "velocity": 63, "duration": 56}, {"note": 0, "velocity": 0, "duration": 64}, {"note": 71, "velocity": 75, "duration": 89}, {"note": 69, "velocity": 61, "duration": 57}, {"note": 0, "velocity": 0, "duration": 63}, {"note": 69, "velocity": 85, "duration": 103}, {"note": 71, "velocity": 66, "duration": 138}, {"note": 0, "velocity": 0, "duration": 102}, {"note": 71, "velocity": 76, "duration": 78}, {"note": 74, "velocity": 75, "duration": 54}, {"note": 0, "velocity": 0, "duration": 66}, {"note": 76, "velocity": 73, "duration": 63}, {"note": 74, "velocity": 73, "duration": 46}, {"note": 0, "velocity": 0, "duration": 74}, {"note": 76, "velocity": 72, "duration": 51}, {"note": 0, "velocity": 0, "duration": 69}, {"note": 74, "velocity": 87, "duration": 172}, {"note": 69, "velocity": 79, "duration": 137}, {"note": 0, "velocity": 0, "duration": 103}, {"note": 69, "velocity": 63, "duration": 81}, {"note": 79, "velocity": 95, "duration": 92}, {"note": 78, "velocity": 86, "duration": 53}, {"note": 0, "velocity": 0, "duration": 67}, {"note": 79, "velocity": 85, "duration": 47}, {"note": 0, "velocity": 0, "duration": 73}, {"note": 78, "velocity": 77, "duration": 42}, {"note": 0, "velocity": 0, "duration": 78}, {"note": 76, "velocity": 75, "duration": 72}, {"note": 0, "velocity": 0, "duration": 168}, {"note": 79, "velocity": 93, "duration": 250}, {"note": 78, "velocity": 79, "duration": 93}, {"note": 74, "velocity": 79, "duration": 166}, {"note": 0, "velocity": 0, "duration": 194}, {"note": 71, "velocity": 93, "duration": 249}, {"note": 0, "velocity": 0, "duration": 111}, {"note": 71, "velocity": 77, "duration": 76}, {"note": 79, "velocity": 87, "duration": 80}, {"note": 78, "velocity": 69, "duration": 62}, {"note": 79, "velocity": 85, "duration": 108}, {"note": 78, "velocity": 67, "duration": 53}, {"note": 0, "velocity": 0, "duration": 67}, {"note": 76, "velocity": 76, "duration": 286}, {"note": 79, "velocity": 108, "duration": 248}, {"note": 78, "velocity": 76, "duration": 94}, {"note": 0, "velocity": 0, "duration": 146}, {"note": 74, "velocity": 77, "duration": 90}, {"note": 71, "velocity": 93, "duration": 271}, {"note": 0, "velocity": 0, "duration": 209}, {"note": 71, "velocity": 90, "duration": 48}, {"note": 0, "velocity": 0, "duration": 72}, {"note": 71, "velocity": 95, "duration": 59}, {"note": 0, "velocity": 0, "duration": 61}, {"note": 69, "velocity": 72, "duration": 53}, {"note": 0, "velocity": 0, "duration": 67}, {"note": 69, "velocity": 79, "duration": 61}, {"note": 71, "velocity": 93, "duration": 45}, {"note": 0, "velocity": 0, "duration": 75}, {"note": 71, "velocity": 95, "duration": 198}, {"note": 69, "velocity": 85, "duration": 95}, {"note": 0, "velocity": 0, "duration": 145}, {"note": 69, "velocity": 83, "duration": 56}, {"note": 0, "velocity": 0, "duration": 64}, {"note": 69, "velocity": 95, "duration": 59}, {"note": 0, "velocity": 0, "duration": 61}, {"note": 69, "velocity": 85, "duration": 89}, {"note": 0, "velocity": 0, "duration": 151}, {"note": 69, "velocity": 79, "duration": 52}, {"note": 0, "velocity": 0, "duration": 68}, {"note": 71, "velocity": 95, "duration": 206}, {"note": 0, "velocity": 0, "duration": 154}, {"note": 62, "velocity": 62, "duration": 70}, {"note": 69, "velocity": 90, "duration": 193}, {"note": 74, "velocity": 72, "duration": 80}, {"note": 72, "velocity": 63, "duration": 56}, {"note": 0, "velocity": 0, "duration": 64}, {"note": 71, "velocity": 75, "duration": 89}, {"note": 69, "velocity": 61, "duration": 57}, {"note": 0, "velocity": 0, "duration": 63}, {"note": 69, "velocity": 85, "duration": 103}, {"note": 71, "velocity": 66, "duration": 138}, {"note": 0, "velocity": 0, "duration": 102}, {"note": 71, "velocity": 76, "duration": 78}, {"note": 74, "velocity": 75, "duration": 54}, {"note": 0, "velocity": 0, "duration": 66}, {"note": 76, "velocity": 73, "duration": 63}, {"note": 74, "velocity": 73, "duration": 46}, {"note": 0, "velocity": 0, "duration": 74}, {"note": 76, "velocity": 72, "duration": 51}, {"note": 0, "velocity": 0, "duration": 69}, {"note": 74, "velocity": 87, "duration": 172}, {"note": 69, "velocity": 79, "duration": 137}, {"note": 0, "velocity": 0, "duration": 103}, {"note": 69, "velocity": 63, "duration": 81}, {"note": 79, "velocity": 95, "duration": 92}, {"note": 78, "velocity": 86, "duration": 53}, {"note": 0, "velocity": 0, "duration": 67}, {"note": 79, "velocity": 85, "duration": 47}, {"note": 0, "velocity": 0, "duration": 73}, {"note": 78, "velocity": 77, "duration": 42}, {"note": 0, "velocity": 0, "duration": 78}, {"note": 76, "velocity": 75, "duration": 72}, {"note": 0, "velocity": 0, "duration": 168}, {"note": 79, "velocity": 93, "duration": 250}, {"note": 78, "velocity": 79, "duration": 93}, {"note": 74, "velocity": 79, "duration": 166}, {"note": 0, "velocity": 0, "duration": 194}, {"note": 71, "velocity": 93, "duration": 249}, {"note": 0, "velocity": 0, "duration": 111}, {"note": 71, "velocity": 77, "duration": 76}, {"note": 79, "velocity": 87, "duration": 80}, {"note": 78, "velocity": 69, "duration": 62}, {"note": 79, "velocity": 85, "duration": 108}, {"note": 78, "velocity": 67, "duration": 53}, {"note": 0, "velocity": 0, "duration": 67}, {"note": 76, "velocity": 76, "duration": 286}, {"note": 79, "velocity": 108, "duration": 248}, {"note": 78, "velocity": 76, "duration": 94}, {"note": 0, "velocity": 0, "duration": 146}, {"note": 74, "velocity": 77, "duration": 90}, {"note": 71, "velocity": 93, "duration": 271}, {"note": 0, "velocity": 0, "duration": 209}, {"note": 71, "velocity": 90, "duration": 48}, {"note": 0, "velocity": 0, "duration": 72}, {"note": 71, "velocity": 95, "duration": 59}, {"note": 0, "velocity": 0, "duration": 61}, {"note": 69, "velocity": 72, "duration": 53}, {"note": 0, "velocity": 0, "duration": 67}, {"note": 69, "velocity": 79, "duration": 61}, {"note": 71, "velocity": 93, "duration": 45}, {"note": 0, "velocity": 0, "duration": 75}, {"note": 71, "velocity": 95, "duration": 198}, {"note": 69, "velocity": 73, "duration": 51}, {"note": 0, "velocity": 0, "duration": 69}, {"note": 69, "velocity": 74, "duration": 156}, {"note": 0, "velocity": 0, "duration": 84}, {"note": 67, "velocity": 64, "duration": 67}, {"note": 71, "velocity": 93, "duration": 144}, {"note": 0, "velocity": 0, "duration": 96}, {"note": 69, "velocity": 98, "duration": 326}, {"note": 62, "velocity": 62, "duration": 70}, {"note": 74, "velocity": 72, "duration": 80}, {"note": 72, "velocity": 63, "duration": 56}, {"note": 0, "velocity": 0, "duration": 64}, {"note": 71, "velocity": 75, "duration": 89}, {"note": 69, "velocity": 61, "duration": 57}, {"note": 0, "velocity": 0, "duration": 63}, {"note": 69, "velocity": 85, "duration": 103}, {"note": 71, "velocity": 66, "duration": 138}, {"note": 0, "velocity": 0, "duration": 102}, {"note": 71, "velocity": 76, "duration": 78}, {"note": 74, "velocity": 75, "duration": 54}, {"note": 0, "velocity": 0, "duration": 66}, {"note": 76, "velocity": 73, "duration": 63}, {"note": 74, "velocity": 73, "duration": 46}, {"note": 0, "velocity": 0, "duration": 74}, {"note": 76, "velocity": 72, "duration": 51}, {"note": 0, "velocity": 0, "duration": 69}, {"note": 74, "velocity": 87, "duration": 172}, {"note": 69, "velocity": 79, "duration": 137}, {"note": 0, "velocity": 0, "duration": 103}, {"note": 69, "velocity": 63, "duration": 81}, {"note": 79, "velocity": 95, "duration": 92}, {"note": 78, "velocity": 86, "duration": 53}, {"note": 0, "velocity": 0, "duration": 67}, {"note": 79, "velocity": 85, "duration": 47}, {"note": 0, "velocity": 0, "duration": 73}, {"note": 78, "velocity": 77, "duration": 42}, {"note": 0, "velocity": 0, "duration": 78}, {"note": 76, "velocity": 75, "duration": 72}, {"note": 0, "velocity": 0, "duration": 168}, {"note": 79, "velocity": 93, "duration": 250}, {"note": 78, "velocity": 79, "duration": 93}, {"note": 74, "velocity": 79, "duration": 166}, {"note": 0, "velocity": 0, "duration": 194}, {"note": 71, "velocity": 93, "duration": 249}, {"note": 0, "velocity": 0, "duration": 111}, {"note": 71, "velocity": 77, "duration": 76}, {"note": 79, "velocity": 87, "duration": 80}, {"note": 78, "velocity": 69, "duration": 62}, {"note": 79, "velocity": 85, "duration": 108}, {"note": 78, "velocity": 67, "duration": 53}, {"note": 0, "velocity": 0, "duration": 67}, {"note": 76, "velocity": 76, "duration": 286}, {"note": 79, "velocity": 108, "duration": 248}, {"note": 78, "velocity": 76, "duration": 94}, {"note": 0, "velocity": 0, "duration": 146}, {"note": 74, "velocity": 77, "duration": 90}, {"note": 71, "velocity": 93, "duration": 271}, {"note": 0, "velocity": 0, "duration": 209}, {"note": 71, "velocity": 90, "duration": 48}, {"note": 0, "velocity": 0, "duration": 72}, {"note": 71, "velocity": 95, "duration": 59}, {"note": 0, "velocity": 0, "duration": 61}, {"note": 69, "velocity": 72, "duration": 53}, {"note": 0, "velocity": 0, "duration": 67}, {"note": 69, "velocity": 79, "duration": 61}, {"note": 71, "velocity": 93, "duration": 45}, {"note": 0, "velocity": 0, "duration": 75}, {"note": 71, "velocity": 95, "duration": 198}, {"note": 69, "velocity": 85, "duration": 95}, {"note": 0, "velocity": 0, "duration": 145}, {"note": 69, "velocity": 83, "duration": 56}, {"note": 0, "velocity": 0, "duration": 64}, {"note": 69, "velocity": 95, "duration": 59}, {"note": 0, "velocity": 0, "duration": 61}, {"note": 69, "velocity": 85, "duration": 89}, {"note": 0, "velocity": 0, "duration": 151}, {"note": 69, "velocity": 79, "duration": 52}, {"note": 0, "velocity": 0, "duration": 68}, {"note": 71, "velocity": 95, "duration": 206}, {"note": 0, "velocity": 0, "duration": 154}, {"note": 69, "velocity": 90, "duration": 193}, {"note": 0, "velocity": 0, "duration": 167}, {"note": 69, "velocity": 93, "duration": 170}, {"note": 0, "velocity": 0, "duration": 70}, {"note": 67, "velocity": 90, "duration": 960}]]