[[{"note": 63, "velocity": 89, "duration": 234}, {"note": 61, "velocity": 89, "duration": 105}, {"note": 63, "velocity": 89, "duration": 180}, {"note": 66, "velocity": 89, "duration": 80}, {"note": 0, "velocity": 0, "duration": 160}, {"note": 66, "velocity": 89, "duration": 379}, {"note": 0, "velocity": 0, "duration": 101}, {"note": 61, "velocity": 89, "duration": 313}, {"note": 0, "velocity": 0, "duration": 167}, {"note": 59, "velocity": 89, "duration": 246}, {"note": 58, "velocity": 89, "duration": 256}, {"note": 59, "velocity": 89, "duration": 149}, {"note": 0, "velocity": 0, "duration": 91}, {"note": 63, "velocity": 89, "duration": 119}, {"note": 0, "velocity": 0, "duration": 121}, {"note": 63, "velocity": 89, "duration": 366}, {"note": 0, "velocity": 0, "duration": 594}, {"note": 56, "velocity": 89, "duration": 256}, {"note": 54, "velocity": 89, "duration": 281}, {"note": 56, "velocity": 89, "duration": 225}, {"note": 68, "velocity": 89, "duration": 162}, {"note": 0, "velocity": 0, "duration": 78}, {"note": 66, "velocity": 89, "duration": 320}, {"note": 0, "velocity": 0, "duration": 176}, {"note": 59, "velocity": 89, "duration": 235}, {"note": 0, "velocity": 0, "duration": 229}, {"note": 56, "velocity": 89, "duration": 301}, {"note": 58, "velocity": 89, "duration": 298}, {"note": 59, "velocity": 89, "duration": 114}, {"note": 0, "velocity": 0, "duration": 126}, {"note": 63, "velocity": 89, "duration": 128}, {"note": 0, "velocity": 0, "duration": 112}, {"note": 61, "velocity": 89, "duration": 471}, {"note": 0, "velocity": 0, "duration": 489}, {"note": 63, "velocity": 89, "duration": 243}, {"note": 59, "velocity": 89, "duration": 257}, {"note": 63, "velocity": 89, "duration": 144}, {"note": 0, "velocity": 0, "duration": 96}, {"note": 66, "velocity": 89, "duration": 163}, {"note": 0, "velocity": 0, "duration": 77}, {"note": 66, "velocity": 89, "duration": 383}, {"note": 0, "velocity": 0, "duration": 97}, {"note": 61, "velocity": 89, "duration": 227}, {"note": 0, "velocity": 0, "duration": 253}, {"note": 71, "velocity": 90, "duration": 253}, {"note": 70, "velocity": 90, "duration": 274}, {"note": 68, "velocity": 90, "duration": 250}, {"note": 63, "velocity": 90, "duration": 233}, {"note": 66, "velocity": 90, "duration": 713}, {"note": 0, "velocity": 0, "duration": 247}, {"note": 71, "velocity": 90, "duration": 279}, {"note": 70, "velocity": 90, "duration": 282}, {"note": 68, "velocity": 90, "duration": 243}, {"note": 63, "velocity": 90, "duration": 197}, {"note": 66, "velocity": 90, "duration": 316}, {"note": 0, "velocity": 0, "duration": 164}, {"note": 59, "velocity": 90, "duration": 296}, {"note": 0, "velocity": 0, "duration": 184}, {"note": 64, "velocity": 90, "duration": 171}, {"note": 0, "velocity": 0, "duration": 69}, {"note": 63, "velocity": 90, "duration": 162}, {"note": 0, "velocity": 0, "duration": 78}, {"note": 61, "velocity": 90, "duration": 127}, {"note": 0, "velocity": 0, "duration": 113}, {"note": 59, "velocity": 90, "duration": 127}, {"note": 0, "velocity": 0, "duration": 113}, {"note": 59, "velocity": 90, "duration": 946}, {"note": 0, "velocity": 0, "duration": 974}, {"note": 71, "velocity": 90, "duration": 146}, {"note": 0, "velocity": 0, "duration": 94}, {"note": 71, "velocity": 90, "duration": 106}, {"note": 0, "velocity": 0, "duration": 134}, {"note": 71, "velocity": 90, "duration": 131}, {"note": 0, "velocity": 0, "duration": 109}, {"note": 63, "velocity": 90, "duration": 119}, {"note": 0, "velocity": 0, "duration": 121}, {"note": 70, "velocity": 90, "duration": 716}, {"note": 0, "velocity": 0, "duration": 244}, {"note": 68, "velocity": 90, "duration": 103}, {"note": 0, "velocity": 0, "duration": 137}, {"note": 68, "velocity": 90, "duration": 93}, {"note": 0, "velocity": 0, "duration": 147}, {"note": 68, "velocity": 90, "duration": 101}, {"note": 0, "velocity": 0, "duration": 139}, {"note": 59, "velocity": 90, "duration": 143}, {"note": 0, "velocity": 0, "duration": 97}, {"note": 66, "velocity": 90, "duration": 710}, {"note": 68, "velocity": 90, "duration": 133}, {"note": 70, "velocity": 90, "duration": 82}, {"note": 71, "velocity": 90, "duration": 141}, {"note": 0, "velocity": 0, "duration": 99}, {"note": 71, "velocity": 90, "duration": 151}, {"note": 0, "velocity": 0, "duration": 89}, {"note": 71, "velocity": 90, "duration": 121}, {"note": 0, "velocity": 0, "duration": 119}, {"note": 71, "velocity": 91, "duration": 144}, {"note": 0, "velocity": 0, "duration": 96}, {"note": 71, "velocity": 91, "duration": 272}, {"note": 0, "velocity": 0, "duration": 208}, {"note": 68, "velocity": 91, "duration": 90}, {"note": 0, "velocity": 0, "duration": 150}, {"note": 66, "velocity": 91, "duration": 1201}, {"note": 0, "velocity": 0, "duration": 719}, {"note": 71, "velocity": 91, "duration": 133}, {"note": 73, "velocity": 91, "duration": 71}, {"note": 75, "velocity": 91, "duration": 121}, {"note": 0, "velocity": 0, "duration": 119}, {"note": 75, "velocity": 91, "duration": 78}, {"note": 0, "velocity": 0, "duration": 162}, {"note": 75, "velocity": 91, "duration": 232}, {"note": 66, "velocity": 91, "duration": 153}, {"note": 0, "velocity": 0, "duration": 87}, {"note": 73, "velocity": 91, "duration": 91}, {"note": 0, "velocity": 0, "duration": 149}, {"note": 73, "velocity": 91, "duration": 103}, {"note": 0, "velocity": 0, "duration": 137}, {"note": 73, "velocity": 91, "duration": 100}, {"note": 0, "velocity": 0, "duration": 140}, {"note": 66, "velocity": 91, "duration": 104}, {"note": 0, "velocity": 0, "duration": 136}, {"note": 71, "velocity": 91, "duration": 176}, {"note": 0, "velocity": 0, "duration": 64}, {"note": 70, "velocity": 91, "duration": 183}, {"note": 68, "velocity": 91, "duration": 224}, {"note": 63, "velocity": 91, "duration": 160}, {"note": 0, "velocity": 0, "duration": 80}, {"note": 66, "velocity": 91, "duration": 718}, {"note": 73, "velocity": 91, "duration": 83}, {"note": 75, "velocity": 91, "duration": 61}, {"note": 76, "velocity": 91, "duration": 149}, {"note": 0, "velocity": 0, "duration": 91}, {"note": 76, "velocity": 91, "duration": 150}, {"note": 0, "velocity": 0, "duration": 90}, {"note": 76, "velocity": 91, "duration": 185}, {"note": 68, "velocity": 91, "duration": 206}, {"note": 75, "velocity": 91, "duration": 251}, {"note": 73, "velocity": 91, "duration": 141}, {"note": 0, "velocity": 0, "duration": 99}, {"note": 71, "velocity": 91, "duration": 350}, {"note": 66, "velocity": 91, "duration": 69}, {"note": 65, "velocity": 91, "duration": 139}, {"note": 0, "velocity": 0, "duration": 101}, {"note": 68, "velocity": 91, "duration": 137}, {"note": 0, "velocity": 0, "duration": 103}, {"note": 71, "velocity": 91, "duration": 170}, {"note": 0, "velocity": 0, "duration": 70}, {"note": 75, "velocity": 91, "duration": 146}, {"note": 0, "velocity": 0, "duration": 94}, {"note": 73, "velocity": 90, "duration": 618}, {"note": 0, "velocity": 0, "duration": 102}, {"note": 71, "velocity": 90, "duration": 86}, {"note": 73, "velocity": 90, "duration": 76}, {"note": 75, "velocity": 90, "duration": 155}, {"note": 0, "velocity": 0, "duration": 85}, {"note": 75, "velocity": 90, "duration": 90}, {"note": 0, "velocity": 0, "duration": 150}, {"note": 75, "velocity": 90, "duration": 226}, {"note": 66, "velocity": 90, "duration": 186}, {"note": 67, "velocity": 90, "duration": 225}, {"note": 70, "velocity": 90, "duration": 173}, {"note": 0, "velocity": 0, "duration": 67}, {"note": 76, "velocity": 90, "duration": 155}, {"note": 0, "velocity": 0, "duration": 85}, {"note": 75, "velocity": 90, "duration": 145}, {"note": 0, "velocity": 0, "duration": 95}, {"note": 73, "velocity": 90, "duration": 174}, {"note": 0, "velocity": 0, "duration": 66}, {"note": 71, "velocity": 90, "duration": 279}, {"note": 0, "velocity": 0, "duration": 81}, {"note": 71, "velocity": 90, "duration": 204}, {"note": 66, "velocity": 90, "duration": 76}, {"note": 67, "velocity": 90, "duration": 855}, {"note": 73, "velocity": 89, "duration": 124}, {"note": 75, "velocity": 89, "duration": 82}, {"note": 78, "velocity": 89, "duration": 168}, {"note": 0, "velocity": 0, "duration": 72}, {"note": 76, "velocity": 89, "duration": 138}, {"note": 76, "velocity": 89, "duration": 138}, {"note": 0, "velocity": 0, "duration": 102}, {"note": 76, "velocity": 89, "duration": 170}, {"note": 0, "velocity": 0, "duration": 70}, {"note": 68, "velocity": 89, "duration": 156}, {"note": 0, "velocity": 0, "duration": 84}, {"note": 75, "velocity": 89, "duration": 150}, {"note": 0, "velocity": 0, "duration": 90}, {"note": 73, "velocity": 89, "duration": 131}, {"note": 0, "velocity": 0, "duration": 109}, {"note": 71, "velocity": 89, "duration": 258}, {"note": 0, "velocity": 0, "duration": 102}, {"note": 66, "velocity": 89, "duration": 73}, {"note": 65, "velocity": 89, "duration": 163}, {"note": 0, "velocity": 0, "duration": 77}, {"note": 68, "velocity": 89, "duration": 197}, {"note": 71, "velocity": 88, "duration": 168}, {"note": 0, "velocity": 0, "duration": 72}, {"note": 75, "velocity": 88, "duration": 169}, {"note": 0, "velocity": 0, "duration": 71}, {"note": 73, "velocity": 88, "duration": 592}, {"note": 0, "velocity": 0, "duration": 128}, {"note": 71, "velocity": 88, "duration": 162}, {"note": 0, "velocity": 0, "duration": 78}, {"note": 71, "velocity": 88, "duration": 815}, {"note": 0, "velocity": 0, "duration": 6865}, {"note": 63, "velocity": 87, "duration": 234}, {"note": 61, "velocity": 87, "duration": 263}, {"note": 63, "velocity": 87, "duration": 180}, {"note": 66, "velocity": 87, "duration": 80}, {"note": 0, "velocity": 0, "duration": 160}, {"note": 66, "velocity": 87, "duration": 379}, {"note": 0, "velocity": 0, "duration": 101}, {"note": 61, "velocity": 87, "duration": 313}, {"note": 0, "velocity": 0, "duration": 167}, {"note": 59, "velocity": 87, "duration": 246}, {"note": 58, "velocity": 87, "duration": 256}, {"note": 59, "velocity": 87, "duration": 149}, {"note": 0, "velocity": 0, "duration": 91}, {"note": 63, "velocity": 87, "duration": 119}, {"note": 0, "velocity": 0, "duration": 121}, {"note": 63, "velocity": 87, "duration": 366}, {"note": 0, "velocity": 0, "duration": 594}, {"note": 56, "velocity": 87, "duration": 256}, {"note": 54, "velocity": 87, "duration": 281}, {"note": 56, "velocity": 87, "duration": 225}, {"note": 68, "velocity": 87, "duration": 162}, {"note": 0, "velocity": 0, "duration": 78}, {"note": 66, "velocity": 87, "duration": 320}, {"note": 0, "velocity": 0, "duration": 176}, {"note": 59, "velocity": 87, "duration": 235}, {"note": 0, "velocity": 0, "duration": 229}, {"note": 56, "velocity": 87, "duration": 301}, {"note": 58, "velocity": 87, "duration": 298}, {"note": 59, "velocity": 87, "duration": 114}, {"note": 0, "velocity": 0, "duration": 126}, {"note": 63, "velocity": 87, "duration": 128}, {"note": 0, "velocity": 0, "duration": 112}, {"note": 61, "velocity": 87, "duration": 471}, {"note": 0, "velocity": 0, "duration": 489}, {"note": 63, "velocity": 87, "duration": 243}, {"note": 59, "velocity": 87, "duration": 257}, {"note": 63, "velocity": 87, "duration": 144}, {"note": 0, "velocity": 0, "duration": 96}, {"note": 66, "velocity": 87, "duration": 163}, {"note": 0, "velocity": 0, "duration": 77}, {"note": 66, "velocity": 87, "duration": 383}, {"note": 0, "velocity": 0, "duration": 97}, {"note": 61, "velocity": 87, "duration": 227}, {"note": 0, "velocity": 0, "duration": 253}, {"note": 71, "velocity": 87, "duration": 253}, {"note": 70, "velocity": 87, "duration": 274}, {"note": 68, "velocity": 87, "duration": 250}, {"note": 63, "velocity": 87, "duration": 233}, {"note": 66, "velocity": 87, "duration": 713}, {"note": 0, "velocity": 0, "duration": 247}, {"note": 71, "velocity": 87, "duration": 279}, {"note": 70, "velocity": 87, "duration": 282}, {"note": 68, "velocity": 87, "duration": 243}, {"note": 63, "velocity": 87, "duration": 197}, {"note": 66, "velocity": 87, "duration": 316}, {"note": 0, "velocity": 0, "duration": 164}, {"note": 59, "velocity": 87, "duration": 296}, {"note": 0, "velocity": 0, "duration": 184}, {"note": 64, "velocity": 87, "duration": 171}, {"note": 0, "velocity": 0, "duration": 69}, {"note": 63, "velocity": 88, "duration": 162}, {"note": 0, "velocity": 0, "duration": 78}, {"note": 61, "velocity": 88, "duration": 127}, {"note": 0, "velocity": 0, "duration": 113}, {"note": 59, "velocity": 88, "duration": 127}, {"note": 0, "velocity": 0, "duration": 113}, {"note": 59, "velocity": 88, "duration": 946}, {"note": 0, "velocity": 0, "duration": 974}, {"note": 71, "velocity": 88, "duration": 146}, {"note": 0, "velocity": 0, "duration": 94}, {"note": 71, "velocity": 88, "duration": 106}, {"note": 0, "velocity": 0, "duration": 134}, {"note": 71, "velocity": 88, "duration": 131}, {"note": 0, "velocity": 0, "duration": 109}, {"note": 63, "velocity": 88, "duration": 119}, {"note": 0, "velocity": 0, "duration": 121}, {"note": 70, "velocity": 88, "duration": 716}, {"note": 0, "velocity": 0, "duration": 244}, {"note": 68, "velocity": 89, "duration": 103}, {"note": 0, "velocity": 0, "duration": 137}, {"note": 68, "velocity": 89, "duration": 93}, {"note": 0, "velocity": 0, "duration": 147}, {"note": 68, "velocity": 89, "duration": 101}, {"note": 0, "velocity": 0, "duration": 139}, {"note": 59, "velocity": 89, "duration": 143}, {"note": 0, "velocity": 0, "duration": 97}, {"note": 66, "velocity": 89, "duration": 710}, {"note": 68, "velocity": 89, "duration": 133}, {"note": 70, "velocity": 89, "duration": 82}, {"note": 71, "velocity": 89, "duration": 141}, {"note": 0, "velocity": 0, "duration": 99}, {"note": 71, "velocity": 89, "duration": 151}, {"note": 0, "velocity": 0, "duration": 89}, {"note": 71, "velocity": 89, "duration": 121}, {"note": 0, "velocity": 0, "duration": 119}, {"note": 71, "velocity": 89, "duration": 144}, {"note": 0, "velocity": 0, "duration": 96}, {"note": 71, "velocity": 89, "duration": 272}, {"note": 0, "velocity": 0, "duration": 208}, {"note": 68, "velocity": 89, "duration": 90}, {"note": 0, "velocity": 0, "duration": 150}, {"note": 66, "velocity": 89, "duration": 1201}, {"note": 0, "velocity": 0, "duration": 719}, {"note": 71, "velocity": 89, "duration": 133}, {"note": 73, "velocity": 89, "duration": 71}, {"note": 75, "velocity": 89, "duration": 121}, {"note": 0, "velocity": 0, "duration": 119}, {"note": 75, "velocity": 89, "duration": 78}, {"note": 0, "velocity": 0, "duration": 162}, {"note": 75, "velocity": 89, "duration": 232}, {"note": 66, "velocity": 89, "duration": 153}, {"note": 0, "velocity": 0, "duration": 87}, {"note": 73, "velocity": 89, "duration": 91}, {"note": 0, "velocity": 0, "duration": 149}, {"note": 73, "velocity": 89, "duration": 103}, {"note": 0, "velocity": 0, "duration": 137}, {"note": 73, "velocity": 89, "duration": 100}, {"note": 0, "velocity": 0, "duration": 140}, {"note": 66, "velocity": 89, "duration": 104}, {"note": 0, "velocity": 0, "duration": 136}, {"note": 71, "velocity": 89, "duration": 176}, {"note": 0, "velocity": 0, "duration": 64}, {"note": 70, "velocity": 89, "duration": 183}, {"note": 68, "velocity": 89, "duration": 224}, {"note": 63, "velocity": 89, "duration": 160}, {"note": 0, "velocity": 0, "duration": 80}, {"note": 66, "velocity": 89, "duration": 718}, {"note": 73, "velocity": 89, "duration": 83}, {"note": 75, "velocity": 89, "duration": 61}, {"note": 76, "velocity": 89, "duration": 149}, {"note": 0, "velocity": 0, "duration": 91}, {"note": 76, "velocity": 89, "duration": 150}, {"note": 0, "velocity": 0, "duration": 90}, {"note": 76, "velocity": 89, "duration": 185}, {"note": 68, "velocity": 89, "duration": 206}, {"note": 75, "velocity": 89, "duration": 251}, {"note": 73, "velocity": 89, "duration": 141}, {"note": 0, "velocity": 0, "duration": 99}, {"note": 71, "velocity": 89, "duration": 350}, {"note": 66, "velocity": 89, "duration": 69}, {"note": 65, "velocity": 89, "duration": 139}, {"note": 0, "velocity": 0, "duration": 101}, {"note": 68, "velocity": 89, "duration": 137}, {"note": 0, "velocity": 0, "duration": 103}, {"note": 71, "velocity": 89, "duration": 170}, {"note": 0, "velocity": 0, "duration": 70}, {"note": 75, "velocity": 89, "duration": 146}, {"note": 0, "velocity": 0, "duration": 94}, {"note": 73, "velocity": 89, "duration": 618}, {"note": 0, "velocity": 0, "duration": 102}, {"note": 71, "velocity": 89, "duration": 86}, {"note": 73, "velocity": 89, "duration": 76}, {"note": 75, "velocity": 89, "duration": 155}, {"note": 0, "velocity": 0, "duration": 85}, {"note": 75, "velocity": 89, "duration": 90}, {"note": 0, "velocity": 0, "duration": 150}, {"note": 75, "velocity": 89, "duration": 226}, {"note": 66, "velocity": 89, "duration": 186}, {"note": 67, "velocity": 89, "duration": 225}, {"note": 70, "velocity": 89, "duration": 173}, {"note": 0, "velocity": 0, "duration": 67}, {"note": 76, "velocity": 89, "duration": 155}, {"note": 0, "velocity": 0, "duration": 85}, {"note": 75, "velocity": 89, "duration": 145}, {"note": 0, "velocity": 0, "duration": 95}, {"note": 73, "velocity": 89, "duration": 174}, {"note": 0, "velocity": 0, "duration": 66}, {"note": 71, "velocity": 89, "duration": 279}, {"note": 0, "velocity": 0, "duration": 81}, {"note": 71, "velocity": 89, "duration": 204}, {"note": 66, "velocity": 89, "duration": 76}, {"note": 67, "velocity": 89, "duration": 855}, {"note": 73, "velocity": 89, "duration": 124}, {"note": 75, "velocity": 89, "duration": 82}, {"note": 78, "velocity": 90, "duration": 168}, {"note": 0, "velocity": 0, "duration": 72}, {"note": 76, "velocity": 90, "duration": 138}, {"note": 76, "velocity": 90, "duration": 138}, {"note": 0, "velocity": 0, "duration": 102}, {"note": 76, "velocity": 90, "duration": 170}, {"note": 0, "velocity": 0, "duration": 70}, {"note": 68, "velocity": 90, "duration": 156}, {"note": 0, "velocity": 0, "duration": 84}, {"note": 75, "velocity": 90, "duration": 150}, {"note": 0, "velocity": 0, "duration": 90}, {"note": 73, "velocity": 90, "duration": 131}, {"note": 0, "velocity": 0, "duration": 109}, {"note": 71, "velocity": 90, "duration": 258}, {"note": 0, "velocity": 0, "duration": 102}, {"note": 66, "velocity": 90, "duration": 73}, {"note": 65, "velocity": 90, "duration": 163}, {"note": 0, "velocity": 0, "duration": 77}, {"note": 68, "velocity": 90, "duration": 197}, {"note": 71, "velocity": 90, "duration": 168}, {"note": 0, "velocity": 0, "duration": 72}, {"note": 75, "velocity": 90, "duration": 169}, {"note": 0, "velocity": 0, "duration": 71}, {"note": 73, "velocity": 90, "duration": 592}, {"note": 0, "velocity": 0, "duration": 128}, {"note": 71, "velocity": 90, "duration": 162}, {"note": 0, "velocity": 0, "duration": 78}, {"note": 71, "velocity": 91, "duration": 815}, {"note": 0, "velocity": 0, "duration": 6625}, {"note": 71, "velocity": 92, "duration": 133}, {"note": 73, "velocity": 92, "duration": 71}, {"note": 75, "velocity": 92, "duration": 121}, {"note": 0, "velocity": 0, "duration": 119}, {"note": 75, "velocity": 92, "duration": 78}, {"note": 0, "velocity": 0, "duration": 162}, {"note": 75, "velocity": 92, "duration": 232}, {"note": 66, "velocity": 92, "duration": 153}, {"note": 0, "velocity": 0, "duration": 87}, {"note": 73, "velocity": 92, "duration": 91}, {"note": 0, "velocity": 0, "duration": 149}, {"note": 73, "velocity": 92, "duration": 103}, {"note": 0, "velocity": 0, "duration": 137}, {"note": 73, "velocity": 92, "duration": 100}, {"note": 0, "velocity": 0, "duration": 140}, {"note": 66, "velocity": 92, "duration": 104}, {"note": 0, "velocity": 0, "duration": 136}, {"note": 71, "velocity": 92, "duration": 176}, {"note": 0, "velocity": 0, "duration": 64}, {"note": 70, "velocity": 92, "duration": 183}, {"note": 68, "velocity": 92, "duration": 224}, {"note": 63, "velocity": 92, "duration": 160}, {"note": 0, "velocity": 0, "duration": 80}, {"note": 66, "velocity": 92, "duration": 718}, {"note": 73, "velocity": 92, "duration": 83}, {"note": 75, "velocity": 92, "duration": 61}, {"note": 76, "velocity": 92, "duration": 149}, {"note": 0, "velocity": 0, "duration": 91}, {"note": 76, "velocity": 92, "duration": 150}, {"note": 0, "velocity": 0, "duration": 90}, {"note": 76, "velocity": 92, "duration": 185}, {"note": 68, "velocity": 92, "duration": 206}, {"note": 75, "velocity": 92, "duration": 251}, {"note": 73, "velocity": 92, "duration": 141}, {"note": 0, "velocity": 0, "duration": 99}, {"note": 71, "velocity": 92, "duration": 350}, {"note": 66, "velocity": 92, "duration": 69}, {"note": 65, "velocity": 92, "duration": 139}, {"note": 0, "velocity": 0, "duration": 101}, {"note": 68, "velocity": 92, "duration": 137}, {"note": 0, "velocity": 0, "duration": 103}, {"note": 71, "velocity": 92, "duration": 170}, {"note": 0, "velocity": 0, "duration": 70}, {"note": 75, "velocity": 92, "duration": 146}, {"note": 0, "velocity": 0, "duration": 94}, {"note": 73, "velocity": 92, "duration": 618}, {"note": 0, "velocity": 0, "duration": 102}, {"note": 71, "velocity": 92, "duration": 86}, {"note": 73, "velocity": 92, "duration": 76}, {"note": 75, "velocity": 92, "duration": 155}, {"note": 0, "velocity": 0, "duration": 85}, {"note": 75, "velocity": 92, "duration": 90}, {"note": 0, "velocity": 0, "duration": 150}, {"note": 75, "velocity": 92, "duration": 226}, {"note": 66, "velocity": 92, "duration": 186}, {"note": 67, "velocity": 92, "duration": 225}, {"note": 70, "velocity": 92, "duration": 173}, {"note": 0, "velocity": 0, "duration": 67}, {"note": 76, "velocity": 92, "duration": 155}, {"note": 0, "velocity": 0, "duration": 85}, {"note": 75, "velocity": 92, "duration": 145}, {"note": 0, "velocity": 0, "duration": 95}, {"note": 73, "velocity": 92, "duration": 174}, {"note": 0, "velocity": 0, "duration": 66}, {"note": 71, "velocity": 92, "duration": 279}, {"note": 0, "velocity": 0, "duration": 81}, {"note": 71, "velocity": 92, "duration": 204}, {"note": 66, "velocity": 92, "duration": 76}, {"note": 67, "velocity": 92, "duration": 855}, {"note": 73, "velocity": 92, "duration": 124}, {"note": 75, "velocity": 92, "duration": 82}, {"note": 78, "velocity": 92, "duration": 168}, {"note": 0, "velocity": 0, "duration": 72}, {"note": 76, "velocity": 92, "duration": 138}, {"note": 76, "velocity": 92, "duration": 138}, {"note": 0, "velocity": 0, "duration": 102}, {"note": 76, "velocity": 92, "duration": 170}, {"note": 0, "velocity": 0, "duration": 70}, {"note": 68, "velocity": 92, "duration": 156}, {"note": 0, "velocity": 0, "duration": 84}, {"note": 75, "velocity": 92, "duration": 150}, {"note": 0, "velocity": 0, "duration": 90}, {"note": 73, "velocity": 92, "duration": 131}, {"note": 0, "velocity": 0, "duration": 109}, {"note": 71, "velocity": 92, "duration": 258}, {"note": 0, "velocity": 0, "duration": 102}, {"note": 66, "velocity": 92, "duration": 73}, {"note": 65, "velocity": 92, "duration": 163}, {"note": 0, "velocity": 0, "duration": 77}, {"note": 68, "velocity": 92, "duration": 197}, {"note": 71, "velocity": 92, "duration": 168}, {"note": 0, "velocity": 0, "duration": 72}, {"note": 75, "velocity": 92, "duration": 169}, {"note": 0, "velocity": 0, "duration": 71}, {"note": 73, "velocity": 92, "duration": 592}, {"note": 0, "velocity": 0, "duration": 128}, {"note": 71, "velocity": 92, "duration": 162}, {"note": 0, "velocity": 0, "duration": 78}, {"note": 71, "velocity": 92, "duration": 815}]]