[[{"note": 62, "velocity": 61, "duration": 106}, {"note": 64, "velocity": 69, "duration": 70}, {"note": 66, "velocity": 87, "duration": 160}, {"note": 0, "velocity": 0, "duration": 80}, {"note": 66, "velocity": 76, "duration": 47}, {"note": 0, "velocity": 0, "duration": 73}, {"note": 66, "velocity": 93, "duration": 91}, {"note": 0, "velocity": 0, "duration": 120}, {"note": 71, "velocity": 112, "duration": 302}, {"note": 69, "velocity": 90, "duration": 213}, {"note": 66, "velocity": 70, "duration": 85}, {"note": 69, "velocity": 98, "duration": 85}, {"note": 0, "velocity": 0, "duration": 155}, {"note": 66, "velocity": 85, "duration": 251}, {"note": 64, "velocity": 77, "duration": 188}, {"note": 62, "velocity": 66, "duration": 79}, {"note": 62, "velocity": 73, "duration": 178}, {"note": 0, "velocity": 0, "duration": 62}, {"note": 64, "velocity": 77, "duration": 206}, {"note": 66, "velocity": 104, "duration": 610}, {"note": 0, "velocity": 0, "duration": 230}, {"note": 62, "velocity": 77, "duration": 123}, {"note": 64, "velocity": 71, "duration": 86}, {"note": 66, "velocity": 93, "duration": 177}, {"note": 0, "velocity": 0, "duration": 63}, {"note": 66, "velocity": 79, "duration": 48}, {"note": 0, "velocity": 0, "duration": 72}, {"note": 66, "velocity": 85, "duration": 64}, {"note": 0, "velocity": 0, "duration": 176}, {"note": 71, "velocity": 108, "duration": 318}, {"note": 69, "velocity": 108, "duration": 197}, {"note": 66, "velocity": 72, "duration": 57}, {"note": 0, "velocity": 0, "duration": 63}, {"note": 69, "velocity": 117, "duration": 213}, {"note": 66, "velocity": 100, "duration": 285}, {"note": 0, "velocity": 0, "duration": 75}, {"note": 64, "velocity": 90, "duration": 211}, {"note": 62, "velocity": 73, "duration": 72}, {"note": 62, "velocity": 72, "duration": 110}, {"note": 0, "velocity": 0, "duration": 130}, {"note": 69, "velocity": 112, "duration": 200}, {"note": 66, "velocity": 93, "duration": 323}, {"note": 0, "velocity": 0, "duration": 517}, {"note": 62, "velocity": 81, "duration": 111}, {"note": 64, "velocity": 67, "duration": 89}, {"note": 66, "velocity": 93, "duration": 169}, {"note": 0, "velocity": 0, "duration": 71}, {"note": 66, "velocity": 86, "duration": 47}, {"note": 0, "velocity": 0, "duration": 73}, {"note": 66, "velocity": 90, "duration": 84}, {"note": 0, "velocity": 0, "duration": 156}, {"note": 71, "velocity": 108, "duration": 302}, {"note": 69, "velocity": 104, "duration": 225}, {"note": 66, "velocity": 61, "duration": 141}, {"note": 69, "velocity": 87, "duration": 229}, {"note": 66, "velocity": 87, "duration": 298}, {"note": 0, "velocity": 0, "duration": 62}, {"note": 64, "velocity": 83, "duration": 231}, {"note": 62, "velocity": 70, "duration": 67}, {"note": 62, "velocity": 72, "duration": 154}, {"note": 0, "velocity": 0, "duration": 86}, {"note": 64, "velocity": 74, "duration": 186}, {"note": 66, "velocity": 85, "duration": 581}, {"note": 0, "velocity": 0, "duration": 259}, {"note": 62, "velocity": 87, "duration": 111}, {"note": 64, "velocity": 70, "duration": 155}, {"note": 66, "velocity": 90, "duration": 178}, {"note": 0, "velocity": 0, "duration": 62}, {"note": 66, "velocity": 75, "duration": 51}, {"note": 0, "velocity": 0, "duration": 69}, {"note": 66, "velocity": 81, "duration": 136}, {"note": 0, "velocity": 0, "duration": 104}, {"note": 71, "velocity": 112, "duration": 276}, {"note": 0, "velocity": 0, "duration": 84}, {"note": 73, "velocity": 104, "duration": 176}, {"note": 0, "velocity": 0, "duration": 64}, {"note": 71, "velocity": 77, "duration": 91}, {"note": 69, "velocity": 111, "duration": 222}, {"note": 69, "velocity": 98, "duration": 201}, {"note": 0, "velocity": 0, "duration": 159}, {"note": 71, "velocity": 87, "duration": 183}, {"note": 74, "velocity": 74, "duration": 75}, {"note": 76, "velocity": 86, "duration": 169}, {"note": 0, "velocity": 0, "duration": 71}, {"note": 74, "velocity": 86, "duration": 161}, {"note": 0, "velocity": 0, "duration": 79}, {"note": 74, "velocity": 93, "duration": 496}, {"note": 0, "velocity": 0, "duration": 104}, {"note": 71, "velocity": 90, "duration": 111}, {"note": 73, "velocity": 83, "duration": 141}, {"note": 74, "velocity": 93, "duration": 69}, {"note": 76, "velocity": 114, "duration": 52}, {"note": 0, "velocity": 0, "duration": 68}, {"note": 78, "velocity": 108, "duration": 251}, {"note": 71, "velocity": 81, "duration": 62}, {"note": 71, "velocity": 76, "duration": 78}, {"note": 0, "velocity": 0, "duration": 162}, {"note": 78, "velocity": 95, "duration": 135}, {"note": 0, "velocity": 0, "duration": 105}, {"note": 76, "velocity": 114, "duration": 289}, {"note": 0, "velocity": 0, "duration": 311}, {"note": 76, "velocity": 111, "duration": 123}, {"note": 74, "velocity": 72, "duration": 135}, {"note": 73, "velocity": 74, "duration": 132}, {"note": 74, "velocity": 83, "duration": 77}, {"note": 76, "velocity": 108, "duration": 133}, {"note": 0, "velocity": 0, "duration": 107}, {"note": 69, "velocity": 93, "duration": 62}, {"note": 69, "velocity": 95, "duration": 104}, {"note": 0, "velocity": 0, "duration": 136}, {"note": 76, "velocity": 95, "duration": 109}, {"note": 0, "velocity": 0, "duration": 131}, {"note": 74, "velocity": 90, "duration": 296}, {"note": 0, "velocity": 0, "duration": 424}, {"note": 71, "velocity": 79, "duration": 55}, {"note": 0, "velocity": 0, "duration": 65}, {"note": 71, "velocity": 79, "duration": 70}, {"note": 73, "velocity": 76, "duration": 56}, {"note": 0, "velocity": 0, "duration": 64}, {"note": 74, "velocity": 100, "duration": 216}, {"note": 67, "velocity": 65, "duration": 61}, {"note": 67, "velocity": 83, "duration": 140}, {"note": 0, "velocity": 0, "duration": 100}, {"note": 74, "velocity": 90, "duration": 224}, {"note": 74, "velocity": 79, "duration": 71}, {"note": 73, "velocity": 108, "duration": 183}, {"note": 71, "velocity": 83, "duration": 72}, {"note": 71, "velocity": 85, "duration": 180}, {"note": 74, "velocity": 100, "duration": 173}, {"note": 0, "velocity": 0, "duration": 67}, {"note": 73, "velocity": 112, "duration": 1122}, {"note": 0, "velocity": 0, "duration": 438}, {"note": 71, "velocity": 90, "duration": 246}, {"note": 73, "velocity": 74, "duration": 181}, {"note": 74, "velocity": 86, "duration": 111}, {"note": 0, "velocity": 0, "duration": 129}, {"note": 76, "velocity": 83, "duration": 56}, {"note": 0, "velocity": 0, "duration": 64}, {"note": 78, "velocity": 104, "duration": 171}, {"note": 0, "velocity": 0, "duration": 69}, {"note": 74, "velocity": 87, "duration": 266}, {"note": 0, "velocity": 0, "duration": 94}, {"note": 73, "velocity": 114, "duration": 162}, {"note": 0, "velocity": 0, "duration": 78}, {"note": 71, "velocity": 87, "duration": 62}, {"note": 71, "velocity": 95, "duration": 150}, {"note": 0, "velocity": 0, "duration": 90}, {"note": 69, "velocity": 95, "duration": 211}, {"note": 0, "velocity": 0, "duration": 149}, {"note": 71, "velocity": 108, "duration": 206}, {"note": 69, "velocity": 86, "duration": 63}, {"note": 69, "velocity": 100, "duration": 155}, {"note": 0, "velocity": 0, "duration": 85}, {"note": 67, "velocity": 93, "duration": 128}, {"note": 0, "velocity": 0, "duration": 112}, {"note": 66, "velocity": 85, "duration": 279}, {"note": 0, "velocity": 0, "duration": 321}, {"note": 71, "velocity": 98, "duration": 220}, {"note": 73, "velocity": 83, "duration": 207}, {"note": 74, "velocity": 87, "duration": 148}, {"note": 0, "velocity": 0, "duration": 92}, {"note": 76, "velocity": 83, "duration": 53}, {"note": 0, "velocity": 0, "duration": 67}, {"note": 78, "velocity": 98, "duration": 171}, {"note": 0, "velocity": 0, "duration": 69}, {"note": 74, "velocity": 85, "duration": 244}, {"note": 0, "velocity": 0, "duration": 116}, {"note": 73, "velocity": 100, "duration": 158}, {"note": 0, "velocity": 0, "duration": 82}, {"note": 71, "velocity": 100, "duration": 58}, {"note": 0, "velocity": 0, "duration": 62}, {"note": 71, "velocity": 98, "duration": 114}, {"note": 0, "velocity": 0, "duration": 126}, {"note": 69, "velocity": 104, "duration": 227}, {"note": 0, "velocity": 0, "duration": 133}, {"note": 71, "velocity": 90, "duration": 206}, {"note": 74, "velocity": 69, "duration": 86}, {"note": 76, "velocity": 86, "duration": 153}, {"note": 0, "velocity": 0, "duration": 87}, {"note": 74, "velocity": 75, "duration": 128}, {"note": 0, "velocity": 0, "duration": 112}, {"note": 74, "velocity": 86, "duration": 416}, {"note": 0, "velocity": 0, "duration": 184}, {"note": 71, "velocity": 108, "duration": 223}, {"note": 73, "velocity": 95, "duration": 194}, {"note": 74, "velocity": 108, "duration": 99}, {"note": 0, "velocity": 0, "duration": 141}, {"note": 76, "velocity": 81, "duration": 59}, {"note": 0, "velocity": 0, "duration": 61}, {"note": 78, "velocity": 98, "duration": 134}, {"note": 0, "velocity": 0, "duration": 106}, {"note": 74, "velocity": 95, "duration": 239}, {"note": 0, "velocity": 0, "duration": 121}, {"note": 73, "velocity": 112, "duration": 118}, {"note": 0, "velocity": 0, "duration": 122}, {"note": 71, "velocity": 90, "duration": 68}, {"note": 71, "velocity": 95, "duration": 129}, {"note": 0, "velocity": 0, "duration": 111}, {"note": 69, "velocity": 95, "duration": 268}, {"note": 0, "velocity": 0, "duration": 92}, {"note": 71, "velocity": 112, "duration": 187}, {"note": 69, "velocity": 81, "duration": 64}, {"note": 69, "velocity": 95, "duration": 111}, {"note": 0, "velocity": 0, "duration": 129}, {"note": 67, "velocity": 87, "duration": 109}, {"note": 0, "velocity": 0, "duration": 131}, {"note": 66, "velocity": 77, "duration": 311}, {"note": 0, "velocity": 0, "duration": 289}, {"note": 71, "velocity": 108, "duration": 165}, {"note": 0, "velocity": 0, "duration": 75}, {"note": 73, "velocity": 93, "duration": 162}, {"note": 0, "velocity": 0, "duration": 78}, {"note": 74, "velocity": 95, "duration": 104}, {"note": 0, "velocity": 0, "duration": 136}, {"note": 76, "velocity": 79, "duration": 50}, {"note": 0, "velocity": 0, "duration": 70}, {"note": 78, "velocity": 98, "duration": 130}, {"note": 0, "velocity": 0, "duration": 110}, {"note": 74, "velocity": 77, "duration": 227}, {"note": 0, "velocity": 0, "duration": 133}, {"note": 73, "velocity": 98, "duration": 160}, {"note": 0, "velocity": 0, "duration": 80}, {"note": 81, "velocity": 98, "duration": 75}, {"note": 81, "velocity": 81, "duration": 106}, {"note": 0, "velocity": 0, "duration": 134}, {"note": 69, "velocity": 59, "duration": 322}, {"note": 71, "velocity": 90, "duration": 1041}, {"note": 73, "velocity": 87, "duration": 278}, {"note": 66, "velocity": 66, "duration": 102}, {"note": 74, "velocity": 74, "duration": 102}, {"note": 0, "velocity": 0, "duration": 138}, {"note": 73, "velocity": 93, "duration": 149}, {"note": 0, "velocity": 0, "duration": 211}, {"note": 71, "velocity": 112, "duration": 1939}, {"note": 0, "velocity": 0, "duration": 13181}, {"note": 62, "velocity": 61, "duration": 106}, {"note": 64, "velocity": 69, "duration": 70}, {"note": 66, "velocity": 87, "duration": 160}, {"note": 0, "velocity": 0, "duration": 80}, {"note": 66, "velocity": 76, "duration": 47}, {"note": 0, "velocity": 0, "duration": 73}, {"note": 66, "velocity": 93, "duration": 91}, {"note": 0, "velocity": 0, "duration": 149}, {"note": 71, "velocity": 112, "duration": 302}, {"note": 69, "velocity": 90, "duration": 213}, {"note": 66, "velocity": 70, "duration": 85}, {"note": 69, "velocity": 98, "duration": 205}, {"note": 0, "velocity": 0, "duration": 155}, {"note": 66, "velocity": 85, "duration": 251}, {"note": 64, "velocity": 77, "duration": 188}, {"note": 62, "velocity": 66, "duration": 79}, {"note": 62, "velocity": 73, "duration": 178}, {"note": 0, "velocity": 0, "duration": 62}, {"note": 64, "velocity": 77, "duration": 206}, {"note": 66, "velocity": 104, "duration": 610}, {"note": 0, "velocity": 0, "duration": 230}, {"note": 62, "velocity": 77, "duration": 123}, {"note": 64, "velocity": 71, "duration": 86}, {"note": 66, "velocity": 93, "duration": 177}, {"note": 0, "velocity": 0, "duration": 63}, {"note": 66, "velocity": 79, "duration": 48}, {"note": 0, "velocity": 0, "duration": 72}, {"note": 66, "velocity": 85, "duration": 64}, {"note": 0, "velocity": 0, "duration": 176}, {"note": 71, "velocity": 108, "duration": 318}, {"note": 69, "velocity": 108, "duration": 197}, {"note": 66, "velocity": 72, "duration": 57}, {"note": 0, "velocity": 0, "duration": 63}, {"note": 69, "velocity": 117, "duration": 213}, {"note": 66, "velocity": 100, "duration": 285}, {"note": 0, "velocity": 0, "duration": 75}, {"note": 64, "velocity": 90, "duration": 211}, {"note": 62, "velocity": 73, "duration": 72}, {"note": 62, "velocity": 72, "duration": 110}, {"note": 0, "velocity": 0, "duration": 130}, {"note": 69, "velocity": 112, "duration": 200}, {"note": 66, "velocity": 93, "duration": 323}, {"note": 0, "velocity": 0, "duration": 517}, {"note": 62, "velocity": 81, "duration": 111}, {"note": 64, "velocity": 67, "duration": 89}, {"note": 66, "velocity": 93, "duration": 169}, {"note": 0, "velocity": 0, "duration": 71}, {"note": 66, "velocity": 86, "duration": 47}, {"note": 0, "velocity": 0, "duration": 73}, {"note": 66, "velocity": 90, "duration": 84}, {"note": 0, "velocity": 0, "duration": 156}, {"note": 71, "velocity": 108, "duration": 302}, {"note": 69, "velocity": 104, "duration": 225}, {"note": 66, "velocity": 61, "duration": 141}, {"note": 69, "velocity": 87, "duration": 229}, {"note": 66, "velocity": 87, "duration": 298}, {"note": 0, "velocity": 0, "duration": 62}, {"note": 64, "velocity": 83, "duration": 231}, {"note": 62, "velocity": 70, "duration": 67}, {"note": 62, "velocity": 72, "duration": 154}, {"note": 0, "velocity": 0, "duration": 86}, {"note": 64, "velocity": 74, "duration": 186}, {"note": 66, "velocity": 85, "duration": 581}, {"note": 0, "velocity": 0, "duration": 259}, {"note": 62, "velocity": 87, "duration": 111}, {"note": 64, "velocity": 70, "duration": 155}, {"note": 66, "velocity": 90, "duration": 178}, {"note": 0, "velocity": 0, "duration": 62}, {"note": 66, "velocity": 75, "duration": 51}, {"note": 0, "velocity": 0, "duration": 69}, {"note": 66, "velocity": 81, "duration": 136}, {"note": 0, "velocity": 0, "duration": 104}, {"note": 71, "velocity": 112, "duration": 276}, {"note": 0, "velocity": 0, "duration": 84}, {"note": 73, "velocity": 104, "duration": 176}, {"note": 0, "velocity": 0, "duration": 64}, {"note": 71, "velocity": 77, "duration": 91}, {"note": 69, "velocity": 111, "duration": 222}, {"note": 69, "velocity": 98, "duration": 201}, {"note": 0, "velocity": 0, "duration": 159}, {"note": 71, "velocity": 87, "duration": 183}, {"note": 74, "velocity": 74, "duration": 75}, {"note": 76, "velocity": 86, "duration": 169}, {"note": 0, "velocity": 0, "duration": 71}, {"note": 74, "velocity": 86, "duration": 161}, {"note": 0, "velocity": 0, "duration": 79}, {"note": 74, "velocity": 93, "duration": 496}, {"note": 0, "velocity": 0, "duration": 104}, {"note": 71, "velocity": 90, "duration": 111}, {"note": 73, "velocity": 83, "duration": 141}, {"note": 74, "velocity": 93, "duration": 69}, {"note": 76, "velocity": 114, "duration": 52}, {"note": 0, "velocity": 0, "duration": 68}, {"note": 78, "velocity": 108, "duration": 251}, {"note": 71, "velocity": 81, "duration": 62}, {"note": 71, "velocity": 76, "duration": 78}, {"note": 0, "velocity": 0, "duration": 162}, {"note": 78, "velocity": 95, "duration": 135}, {"note": 0, "velocity": 0, "duration": 105}, {"note": 76, "velocity": 114, "duration": 289}, {"note": 0, "velocity": 0, "duration": 311}, {"note": 76, "velocity": 111, "duration": 123}, {"note": 74, "velocity": 72, "duration": 135}, {"note": 73, "velocity": 74, "duration": 132}, {"note": 74, "velocity": 83, "duration": 77}, {"note": 76, "velocity": 108, "duration": 133}, {"note": 0, "velocity": 0, "duration": 107}, {"note": 69, "velocity": 93, "duration": 62}, {"note": 69, "velocity": 95, "duration": 104}, {"note": 0, "velocity": 0, "duration": 136}, {"note": 76, "velocity": 95, "duration": 109}, {"note": 0, "velocity": 0, "duration": 131}, {"note": 74, "velocity": 90, "duration": 296}, {"note": 0, "velocity": 0, "duration": 424}, {"note": 71, "velocity": 79, "duration": 55}, {"note": 0, "velocity": 0, "duration": 65}, {"note": 71, "velocity": 79, "duration": 70}, {"note": 73, "velocity": 76, "duration": 56}, {"note": 0, "velocity": 0, "duration": 64}, {"note": 74, "velocity": 100, "duration": 216}, {"note": 67, "velocity": 65, "duration": 61}, {"note": 67, "velocity": 83, "duration": 140}, {"note": 0, "velocity": 0, "duration": 100}, {"note": 74, "velocity": 90, "duration": 224}, {"note": 74, "velocity": 79, "duration": 71}, {"note": 73, "velocity": 108, "duration": 183}, {"note": 71, "velocity": 83, "duration": 72}, {"note": 71, "velocity": 85, "duration": 180}, {"note": 74, "velocity": 100, "duration": 173}, {"note": 0, "velocity": 0, "duration": 67}, {"note": 73, "velocity": 112, "duration": 1122}, {"note": 0, "velocity": 0, "duration": 438}, {"note": 71, "velocity": 90, "duration": 246}, {"note": 73, "velocity": 74, "duration": 181}, {"note": 74, "velocity": 86, "duration": 111}, {"note": 0, "velocity": 0, "duration": 129}, {"note": 76, "velocity": 83, "duration": 56}, {"note": 0, "velocity": 0, "duration": 64}, {"note": 78, "velocity": 104, "duration": 171}, {"note": 0, "velocity": 0, "duration": 69}, {"note": 74, "velocity": 87, "duration": 266}, {"note": 0, "velocity": 0, "duration": 94}, {"note": 73, "velocity": 114, "duration": 162}, {"note": 0, "velocity": 0, "duration": 78}, {"note": 71, "velocity": 87, "duration": 62}, {"note": 71, "velocity": 95, "duration": 150}, {"note": 0, "velocity": 0, "duration": 90}, {"note": 69, "velocity": 95, "duration": 211}, {"note": 0, "velocity": 0, "duration": 149}, {"note": 71, "velocity": 108, "duration": 206}, {"note": 69, "velocity": 86, "duration": 63}, {"note": 69, "velocity": 100, "duration": 155}, {"note": 0, "velocity": 0, "duration": 85}, {"note": 67, "velocity": 93, "duration": 128}, {"note": 0, "velocity": 0, "duration": 112}, {"note": 66, "velocity": 85, "duration": 279}, {"note": 0, "velocity": 0, "duration": 321}, {"note": 71, "velocity": 98, "duration": 220}, {"note": 73, "velocity": 83, "duration": 207}, {"note": 74, "velocity": 87, "duration": 148}, {"note": 0, "velocity": 0, "duration": 92}, {"note": 76, "velocity": 83, "duration": 53}, {"note": 0, "velocity": 0, "duration": 67}, {"note": 78, "velocity": 98, "duration": 171}, {"note": 0, "velocity": 0, "duration": 69}, {"note": 74, "velocity": 85, "duration": 244}, {"note": 0, "velocity": 0, "duration": 116}, {"note": 73, "velocity": 100, "duration": 158}, {"note": 0, "velocity": 0, "duration": 82}, {"note": 71, "velocity": 100, "duration": 58}, {"note": 0, "velocity": 0, "duration": 62}, {"note": 71, "velocity": 98, "duration": 114}, {"note": 0, "velocity": 0, "duration": 126}, {"note": 69, "velocity": 104, "duration": 227}, {"note": 0, "velocity": 0, "duration": 133}, {"note": 71, "velocity": 90, "duration": 206}, {"note": 74, "velocity": 69, "duration": 86}, {"note": 76, "velocity": 86, "duration": 153}, {"note": 0, "velocity": 0, "duration": 87}, {"note": 74, "velocity": 75, "duration": 128}, {"note": 0, "velocity": 0, "duration": 112}, {"note": 74, "velocity": 86, "duration": 416}, {"note": 0, "velocity": 0, "duration": 184}, {"note": 71, "velocity": 108, "duration": 223}, {"note": 73, "velocity": 95, "duration": 194}, {"note": 74, "velocity": 108, "duration": 99}, {"note": 0, "velocity": 0, "duration": 141}, {"note": 76, "velocity": 81, "duration": 59}, {"note": 0, "velocity": 0, "duration": 61}, {"note": 78, "velocity": 98, "duration": 134}, {"note": 0, "velocity": 0, "duration": 106}, {"note": 74, "velocity": 95, "duration": 239}, {"note": 0, "velocity": 0, "duration": 121}, {"note": 73, "velocity": 112, "duration": 118}, {"note": 0, "velocity": 0, "duration": 122}, {"note": 71, "velocity": 90, "duration": 68}, {"note": 71, "velocity": 95, "duration": 129}, {"note": 0, "velocity": 0, "duration": 111}, {"note": 69, "velocity": 95, "duration": 268}, {"note": 0, "velocity": 0, "duration": 92}, {"note": 71, "velocity": 112, "duration": 187}, {"note": 69, "velocity": 81, "duration": 64}, {"note": 69, "velocity": 95, "duration": 111}, {"note": 0, "velocity": 0, "duration": 129}, {"note": 67, "velocity": 87, "duration": 109}, {"note": 0, "velocity": 0, "duration": 131}, {"note": 66, "velocity": 77, "duration": 311}, {"note": 0, "velocity": 0, "duration": 289}, {"note": 71, "velocity": 108, "duration": 165}, {"note": 0, "velocity": 0, "duration": 75}, {"note": 73, "velocity": 93, "duration": 162}, {"note": 0, "velocity": 0, "duration": 78}, {"note": 74, "velocity": 95, "duration": 104}, {"note": 0, "velocity": 0, "duration": 136}, {"note": 76, "velocity": 79, "duration": 50}, {"note": 0, "velocity": 0, "duration": 70}, {"note": 78, "velocity": 98, "duration": 130}, {"note": 0, "velocity": 0, "duration": 110}, {"note": 74, "velocity": 77, "duration": 227}, {"note": 0, "velocity": 0, "duration": 133}, {"note": 73, "velocity": 98, "duration": 160}, {"note": 0, "velocity": 0, "duration": 80}, {"note": 81, "velocity": 98, "duration": 75}, {"note": 81, "velocity": 81, "duration": 106}, {"note": 0, "velocity": 0, "duration": 134}, {"note": 69, "velocity": 59, "duration": 322}, {"note": 71, "velocity": 90, "duration": 1041}, {"note": 73, "velocity": 87, "duration": 278}, {"note": 66, "velocity": 66, "duration": 102}, {"note": 74, "velocity": 74, "duration": 102}, {"note": 71, "velocity": 90, "duration": 246}, {"note": 73, "velocity": 93, "duration": 120}, {"note": 0, "velocity": 0, "duration": 116}, {"note": 73, "velocity": 74, "duration": 59}, {"note": 74, "velocity": 86, "duration": 111}, {"note": 0, "velocity": 0, "duration": 129}, {"note": 76, "velocity": 83, "duration": 56}, {"note": 0, "velocity": 0, "duration": 64}, {"note": 78, "velocity": 104, "duration": 171}, {"note": 0, "velocity": 0, "duration": 69}, {"note": 74, "velocity": 87, "duration": 266}, {"note": 0, "velocity": 0, "duration": 94}, {"note": 73, "velocity": 114, "duration": 162}, {"note": 0, "velocity": 0, "duration": 78}, {"note": 71, "velocity": 87, "duration": 62}, {"note": 71, "velocity": 95, "duration": 150}, {"note": 0, "velocity": 0, "duration": 90}, {"note": 69, "velocity": 95, "duration": 211}, {"note": 0, "velocity": 0, "duration": 149}, {"note": 71, "velocity": 108, "duration": 206}, {"note": 69, "velocity": 86, "duration": 63}, {"note": 69, "velocity": 100, "duration": 155}, {"note": 0, "velocity": 0, "duration": 85}, {"note": 67, "velocity": 93, "duration": 128}, {"note": 0, "velocity": 0, "duration": 112}, {"note": 66, "velocity": 85, "duration": 279}, {"note": 0, "velocity": 0, "duration": 321}, {"note": 71, "velocity": 98, "duration": 220}, {"note": 73, "velocity": 83, "duration": 207}, {"note": 74, "velocity": 87, "duration": 148}, {"note": 0, "velocity": 0, "duration": 92}, {"note": 76, "velocity": 83, "duration": 53}, {"note": 0, "velocity": 0, "duration": 67}, {"note": 78, "velocity": 98, "duration": 171}, {"note": 0, "velocity": 0, "duration": 69}, {"note": 74, "velocity": 85, "duration": 244}, {"note": 0, "velocity": 0, "duration": 116}, {"note": 73, "velocity": 100, "duration": 158}, {"note": 0, "velocity": 0, "duration": 82}, {"note": 71, "velocity": 100, "duration": 58}, {"note": 0, "velocity": 0, "duration": 62}, {"note": 71, "velocity": 98, "duration": 114}, {"note": 0, "velocity": 0, "duration": 126}, {"note": 69, "velocity": 104, "duration": 227}, {"note": 0, "velocity": 0, "duration": 133}, {"note": 71, "velocity": 90, "duration": 206}, {"note": 74, "velocity": 69, "duration": 86}, {"note": 76, "velocity": 86, "duration": 153}, {"note": 0, "velocity": 0, "duration": 87}, {"note": 74, "velocity": 75, "duration": 128}, {"note": 0, "velocity": 0, "duration": 112}, {"note": 74, "velocity": 86, "duration": 416}, {"note": 0, "velocity": 0, "duration": 184}, {"note": 71, "velocity": 108, "duration": 223}, {"note": 73, "velocity": 95, "duration": 194}, {"note": 74, "velocity": 108, "duration": 99}, {"note": 0, "velocity": 0, "duration": 141}, {"note": 76, "velocity": 81, "duration": 59}, {"note": 0, "velocity": 0, "duration": 61}, {"note": 78, "velocity": 98, "duration": 134}, {"note": 0, "velocity": 0, "duration": 106}, {"note": 74, "velocity": 95, "duration": 239}, {"note": 0, "velocity": 0, "duration": 121}, {"note": 73, "velocity": 112, "duration": 118}, {"note": 0, "velocity": 0, "duration": 122}, {"note": 71, "velocity": 90, "duration": 68}, {"note": 71, "velocity": 95, "duration": 129}, {"note": 0, "velocity": 0, "duration": 111}, {"note": 69, "velocity": 95, "duration": 268}, {"note": 0, "velocity": 0, "duration": 92}, {"note": 71, "velocity": 112, "duration": 187}, {"note": 69, "velocity": 81, "duration": 64}, {"note": 69, "velocity": 95, "duration": 111}, {"note": 0, "velocity": 0, "duration": 129}, {"note": 67, "velocity": 87, "duration": 109}, {"note": 0, "velocity": 0, "duration": 131}, {"note": 66, "velocity": 77, "duration": 311}, {"note": 0, "velocity": 0, "duration": 289}, {"note": 71, "velocity": 108, "duration": 165}, {"note": 0, "velocity": 0, "duration": 75}, {"note": 73, "velocity": 93, "duration": 162}, {"note": 0, "velocity": 0, "duration": 78}, {"note": 74, "velocity": 95, "duration": 104}, {"note": 0, "velocity": 0, "duration": 136}, {"note": 76, "velocity": 79, "duration": 50}, {"note": 0, "velocity": 0, "duration": 70}, {"note": 78, "velocity": 98, "duration": 130}, {"note": 0, "velocity": 0, "duration": 110}, {"note": 74, "velocity": 77, "duration": 227}, {"note": 0, "velocity": 0, "duration": 133}, {"note": 73, "velocity": 98, "duration": 160}, {"note": 0, "velocity": 0, "duration": 80}, {"note": 81, "velocity": 98, "duration": 75}, {"note": 81, "velocity": 81, "duration": 106}, {"note": 0, "velocity": 0, "duration": 134}, {"note": 69, "velocity": 59, "duration": 322}, {"note": 71, "velocity": 90, "duration": 1041}, {"note": 73, "velocity": 87, "duration": 278}, {"note": 66, "velocity": 66, "duration": 102}, {"note": 74, "velocity": 74, "duration": 1560}, {"note": 73, "velocity": 85, "duration": 530}, {"note": 71, "velocity": 66, "duration": 1322}]]