[[{"note": 77, "velocity": 107, "duration": 61}, {"note": 77, "velocity": 79, "duration": 58}, {"note": 0, "velocity": 0, "duration": 62}, {"note": 77, "velocity": 93, "duration": 91}, {"note": 80, "velocity": 127, "duration": 54}, {"note": 0, "velocity": 0, "duration": 66}, {"note": 80, "velocity": 122, "duration": 158}, {"note": 0, "velocity": 0, "duration": 82}, {"note": 75, "velocity": 117, "duration": 223}, {"note": 77, "velocity": 107, "duration": 250}, {"note": 0, "velocity": 0, "duration": 470}, {"note": 80, "velocity": 127, "duration": 138}, {"note": 82, "velocity": 100, "duration": 100}, {"note": 84, "velocity": 112, "duration": 195}, {"note": 84, "velocity": 127, "duration": 76}, {"note": 0, "velocity": 0, "duration": 164}, {"note": 82, "velocity": 122, "duration": 66}, {"note": 87, "velocity": 127, "duration": 331}, {"note": 84, "velocity": 117, "duration": 345}, {"note": 0, "velocity": 0, "duration": 480}, {"note": 82, "velocity": 127, "duration": 127}, {"note": 0, "velocity": 0, "duration": 113}, {"note": 82, "velocity": 122, "duration": 109}, {"note": 84, "velocity": 95, "duration": 60}, {"note": 84, "velocity": 99, "duration": 158}, {"note": 0, "velocity": 0, "duration": 82}, {"note": 80, "velocity": 122, "duration": 197}, {"note": 82, "velocity": 127, "duration": 344}, {"note": 0, "velocity": 0, "duration": 376}, {"note": 82, "velocity": 127, "duration": 91}, {"note": 84, "velocity": 95, "duration": 87}, {"note": 77, "velocity": 102, "duration": 191}, {"note": 77, "velocity": 107, "duration": 149}, {"note": 0, "velocity": 0, "duration": 91}, {"note": 75, "velocity": 127, "duration": 88}, {"note": 0, "velocity": 0, "duration": 152}, {"note": 75, "velocity": 117, "duration": 238}, {"note": 72, "velocity": 96, "duration": 435}, {"note": 0, "velocity": 0, "duration": 525}, {"note": 77, "velocity": 122, "duration": 158}, {"note": 0, "velocity": 0, "duration": 82}, {"note": 77, "velocity": 100, "duration": 80}, {"note": 80, "velocity": 102, "duration": 66}, {"note": 80, "velocity": 107, "duration": 220}, {"note": 75, "velocity": 107, "duration": 211}, {"note": 77, "velocity": 107, "duration": 419}, {"note": 0, "velocity": 0, "duration": 301}, {"note": 80, "velocity": 127, "duration": 150}, {"note": 82, "velocity": 100, "duration": 114}, {"note": 84, "velocity": 107, "duration": 132}, {"note": 0, "velocity": 0, "duration": 108}, {"note": 87, "velocity": 127, "duration": 183}, {"note": 89, "velocity": 127, "duration": 146}, {"note": 0, "velocity": 0, "duration": 214}, {"note": 82, "velocity": 117, "duration": 386}, {"note": 84, "velocity": 122, "duration": 450}, {"note": 82, "velocity": 122, "duration": 94}, {"note": 80, "velocity": 97, "duration": 133}, {"note": 82, "velocity": 127, "duration": 202}, {"note": 84, "velocity": 117, "duration": 164}, {"note": 0, "velocity": 0, "duration": 76}, {"note": 84, "velocity": 112, "duration": 137}, {"note": 0, "velocity": 0, "duration": 103}, {"note": 80, "velocity": 112, "duration": 54}, {"note": 0, "velocity": 0, "duration": 66}, {"note": 82, "velocity": 127, "duration": 408}, {"note": 0, "velocity": 0, "duration": 72}, {"note": 75, "velocity": 107, "duration": 106}, {"note": 72, "velocity": 97, "duration": 144}, {"note": 0, "velocity": 0, "duration": 96}, {"note": 82, "velocity": 127, "duration": 464}, {"note": 77, "velocity": 107, "duration": 681}, {"note": 0, "velocity": 0, "duration": 519}, {"note": 80, "velocity": 127, "duration": 162}, {"note": 0, "velocity": 0, "duration": 78}, {"note": 82, "velocity": 127, "duration": 153}, {"note": 0, "velocity": 0, "duration": 87}, {"note": 84, "velocity": 127, "duration": 85}, {"note": 84, "velocity": 117, "duration": 102}, {"note": 0, "velocity": 0, "duration": 138}, {"note": 84, "velocity": 127, "duration": 60}, {"note": 84, "velocity": 127, "duration": 105}, {"note": 0, "velocity": 0, "duration": 135}, {"note": 82, "velocity": 127, "duration": 160}, {"note": 0, "velocity": 0, "duration": 80}, {"note": 84, "velocity": 127, "duration": 315}, {"note": 0, "velocity": 0, "duration": 405}, {"note": 84, "velocity": 107, "duration": 107}, {"note": 87, "velocity": 100, "duration": 118}, {"note": 89, "velocity": 112, "duration": 138}, {"note": 0, "velocity": 0, "duration": 102}, {"note": 89, "velocity": 127, "duration": 52}, {"note": 0, "velocity": 0, "duration": 68}, {"note": 89, "velocity": 95, "duration": 57}, {"note": 0, "velocity": 0, "duration": 63}, {"note": 92, "velocity": 127, "duration": 263}, {"note": 0, "velocity": 0, "duration": 97}, {"note": 87, "velocity": 122, "duration": 90}, {"note": 89, "velocity": 102, "duration": 350}, {"note": 0, "velocity": 0, "duration": 370}, {"note": 87, "velocity": 127, "duration": 99}, {"note": 89, "velocity": 97, "duration": 87}, {"note": 92, "velocity": 127, "duration": 264}, {"note": 0, "velocity": 0, "duration": 96}, {"note": 92, "velocity": 112, "duration": 42}, {"note": 0, "velocity": 0, "duration": 78}, {"note": 92, "velocity": 127, "duration": 122}, {"note": 0, "velocity": 0, "duration": 118}, {"note": 89, "velocity": 112, "duration": 221}, {"note": 87, "velocity": 122, "duration": 314}, {"note": 87, "velocity": 100, "duration": 92}, {"note": 89, "velocity": 112, "duration": 142}, {"note": 0, "velocity": 0, "duration": 218}, {"note": 82, "velocity": 122, "duration": 236}, {"note": 0, "velocity": 0, "duration": 124}, {"note": 84, "velocity": 122, "duration": 963}, {"note": 0, "velocity": 0, "duration": 237}, {"note": 87, "velocity": 127, "duration": 171}, {"note": 0, "velocity": 0, "duration": 69}, {"note": 84, "velocity": 122, "duration": 156}, {"note": 0, "velocity": 0, "duration": 84}, {"note": 82, "velocity": 127, "duration": 42}, {"note": 0, "velocity": 0, "duration": 78}, {"note": 82, "velocity": 127, "duration": 41}, {"note": 0, "velocity": 0, "duration": 79}, {"note": 82, "velocity": 112, "duration": 49}, {"note": 0, "velocity": 0, "duration": 71}, {"note": 82, "velocity": 127, "duration": 66}, {"note": 84, "velocity": 127, "duration": 132}, {"note": 0, "velocity": 0, "duration": 108}, {"note": 80, "velocity": 122, "duration": 207}, {"note": 82, "velocity": 127, "duration": 234}, {"note": 0, "velocity": 0, "duration": 486}, {"note": 84, "velocity": 112, "duration": 201}, {"note": 77, "velocity": 102, "duration": 265}, {"note": 0, "velocity": 0, "duration": 95}, {"note": 77, "velocity": 122, "duration": 133}, {"note": 75, "velocity": 107, "duration": 171}, {"note": 0, "velocity": 0, "duration": 69}, {"note": 75, "velocity": 127, "duration": 209}, {"note": 72, "velocity": 96, "duration": 243}, {"note": 0, "velocity": 0, "duration": 477}, {"note": 79, "velocity": 127, "duration": 150}, {"note": 0, "velocity": 0, "duration": 90}, {"note": 79, "velocity": 127, "duration": 180}, {"note": 0, "velocity": 0, "duration": 540}, {"note": 77, "velocity": 117, "duration": 174}, {"note": 0, "velocity": 0, "duration": 66}, {"note": 75, "velocity": 99, "duration": 251}, {"note": 0, "velocity": 0, "duration": 109}, {"note": 72, "velocity": 99, "duration": 77}, {"note": 82, "velocity": 112, "duration": 213}, {"note": 80, "velocity": 117, "duration": 229}, {"note": 77, "velocity": 102, "duration": 1421}, {"note": 82, "velocity": 127, "duration": 88}, {"note": 80, "velocity": 112, "duration": 101}, {"note": 77, "velocity": 86, "duration": 95}, {"note": 82, "velocity": 127, "duration": 928}, {"note": 0, "velocity": 0, "duration": 512}, {"note": 82, "velocity": 99, "duration": 37}, {"note": 0, "velocity": 0, "duration": 83}, {"note": 82, "velocity": 97, "duration": 30}, {"note": 0, "velocity": 0, "duration": 90}, {"note": 82, "velocity": 117, "duration": 87}, {"note": 80, "velocity": 112, "duration": 224}, {"note": 77, "velocity": 100, "duration": 925}, {"note": 0, "velocity": 0, "duration": 755}, {"note": 80, "velocity": 127, "duration": 177}, {"note": 0, "velocity": 0, "duration": 63}, {"note": 79, "velocity": 122, "duration": 461}, {"note": 0, "velocity": 0, "duration": 259}, {"note": 77, "velocity": 100, "duration": 169}, {"note": 0, "velocity": 0, "duration": 71}, {"note": 75, "velocity": 102, "duration": 171}, {"note": 0, "velocity": 0, "duration": 189}, {"note": 72, "velocity": 97, "duration": 82}, {"note": 82, "velocity": 117, "duration": 202}, {"note": 80, "velocity": 122, "duration": 218}, {"note": 77, "velocity": 100, "duration": 1279}, {"note": 0, "velocity": 0, "duration": 13440}, {"note": 77, "velocity": 107, "duration": 61}, {"note": 77, "velocity": 79, "duration": 58}, {"note": 0, "velocity": 0, "duration": 62}, {"note": 77, "velocity": 93, "duration": 91}, {"note": 80, "velocity": 127, "duration": 54}, {"note": 0, "velocity": 0, "duration": 66}, {"note": 80, "velocity": 122, "duration": 158}, {"note": 0, "velocity": 0, "duration": 82}, {"note": 75, "velocity": 117, "duration": 223}, {"note": 77, "velocity": 107, "duration": 250}, {"note": 0, "velocity": 0, "duration": 470}, {"note": 80, "velocity": 127, "duration": 138}, {"note": 82, "velocity": 100, "duration": 100}, {"note": 84, "velocity": 112, "duration": 195}, {"note": 84, "velocity": 127, "duration": 76}, {"note": 0, "velocity": 0, "duration": 164}, {"note": 82, "velocity": 122, "duration": 66}, {"note": 87, "velocity": 127, "duration": 331}, {"note": 84, "velocity": 117, "duration": 345}, {"note": 0, "velocity": 0, "duration": 615}, {"note": 82, "velocity": 127, "duration": 127}, {"note": 0, "velocity": 0, "duration": 113}, {"note": 82, "velocity": 122, "duration": 109}, {"note": 84, "velocity": 95, "duration": 60}, {"note": 84, "velocity": 99, "duration": 158}, {"note": 0, "velocity": 0, "duration": 82}, {"note": 80, "velocity": 122, "duration": 197}, {"note": 82, "velocity": 127, "duration": 344}, {"note": 0, "velocity": 0, "duration": 376}, {"note": 82, "velocity": 127, "duration": 91}, {"note": 84, "velocity": 95, "duration": 87}, {"note": 77, "velocity": 102, "duration": 191}, {"note": 77, "velocity": 107, "duration": 149}, {"note": 0, "velocity": 0, "duration": 91}, {"note": 75, "velocity": 127, "duration": 88}, {"note": 0, "velocity": 0, "duration": 152}, {"note": 75, "velocity": 117, "duration": 238}, {"note": 72, "velocity": 96, "duration": 435}, {"note": 0, "velocity": 0, "duration": 525}, {"note": 77, "velocity": 122, "duration": 158}, {"note": 0, "velocity": 0, "duration": 82}, {"note": 77, "velocity": 100, "duration": 80}, {"note": 80, "velocity": 102, "duration": 66}, {"note": 80, "velocity": 107, "duration": 220}, {"note": 75, "velocity": 107, "duration": 211}, {"note": 77, "velocity": 107, "duration": 419}, {"note": 0, "velocity": 0, "duration": 301}, {"note": 80, "velocity": 127, "duration": 150}, {"note": 82, "velocity": 100, "duration": 114}, {"note": 84, "velocity": 107, "duration": 132}, {"note": 0, "velocity": 0, "duration": 108}, {"note": 87, "velocity": 127, "duration": 183}, {"note": 89, "velocity": 127, "duration": 146}, {"note": 0, "velocity": 0, "duration": 214}, {"note": 82, "velocity": 117, "duration": 386}, {"note": 84, "velocity": 122, "duration": 450}, {"note": 82, "velocity": 122, "duration": 94}, {"note": 80, "velocity": 97, "duration": 133}, {"note": 82, "velocity": 127, "duration": 202}, {"note": 84, "velocity": 117, "duration": 164}, {"note": 0, "velocity": 0, "duration": 76}, {"note": 84, "velocity": 112, "duration": 137}, {"note": 0, "velocity": 0, "duration": 103}, {"note": 80, "velocity": 112, "duration": 54}, {"note": 0, "velocity": 0, "duration": 66}, {"note": 82, "velocity": 127, "duration": 288}, {"note": 0, "velocity": 0, "duration": 72}, {"note": 75, "velocity": 107, "duration": 106}, {"note": 72, "velocity": 97, "duration": 144}, {"note": 0, "velocity": 0, "duration": 96}, {"note": 82, "velocity": 127, "duration": 464}, {"note": 77, "velocity": 107, "duration": 681}, {"note": 0, "velocity": 0, "duration": 519}, {"note": 80, "velocity": 127, "duration": 162}, {"note": 0, "velocity": 0, "duration": 78}, {"note": 82, "velocity": 127, "duration": 153}, {"note": 0, "velocity": 0, "duration": 87}, {"note": 84, "velocity": 127, "duration": 85}, {"note": 84, "velocity": 117, "duration": 102}, {"note": 0, "velocity": 0, "duration": 138}, {"note": 84, "velocity": 127, "duration": 60}, {"note": 84, "velocity": 127, "duration": 105}, {"note": 0, "velocity": 0, "duration": 135}, {"note": 82, "velocity": 127, "duration": 160}, {"note": 0, "velocity": 0, "duration": 80}, {"note": 84, "velocity": 127, "duration": 315}, {"note": 0, "velocity": 0, "duration": 405}, {"note": 84, "velocity": 107, "duration": 107}, {"note": 87, "velocity": 100, "duration": 118}, {"note": 89, "velocity": 112, "duration": 138}, {"note": 0, "velocity": 0, "duration": 102}, {"note": 89, "velocity": 127, "duration": 52}, {"note": 0, "velocity": 0, "duration": 68}, {"note": 89, "velocity": 95, "duration": 57}, {"note": 0, "velocity": 0, "duration": 63}, {"note": 92, "velocity": 127, "duration": 263}, {"note": 0, "velocity": 0, "duration": 97}, {"note": 87, "velocity": 122, "duration": 90}, {"note": 89, "velocity": 102, "duration": 350}, {"note": 0, "velocity": 0, "duration": 370}, {"note": 87, "velocity": 127, "duration": 99}, {"note": 89, "velocity": 97, "duration": 87}, {"note": 92, "velocity": 127, "duration": 264}, {"note": 0, "velocity": 0, "duration": 96}, {"note": 92, "velocity": 112, "duration": 42}, {"note": 0, "velocity": 0, "duration": 78}, {"note": 92, "velocity": 127, "duration": 122}, {"note": 0, "velocity": 0, "duration": 118}, {"note": 89, "velocity": 112, "duration": 221}, {"note": 87, "velocity": 122, "duration": 314}, {"note": 87, "velocity": 100, "duration": 92}, {"note": 89, "velocity": 112, "duration": 142}, {"note": 0, "velocity": 0, "duration": 218}, {"note": 82, "velocity": 122, "duration": 236}, {"note": 0, "velocity": 0, "duration": 124}, {"note": 84, "velocity": 122, "duration": 963}, {"note": 0, "velocity": 0, "duration": 237}, {"note": 87, "velocity": 127, "duration": 171}, {"note": 0, "velocity": 0, "duration": 69}, {"note": 84, "velocity": 122, "duration": 156}, {"note": 0, "velocity": 0, "duration": 84}, {"note": 82, "velocity": 127, "duration": 42}, {"note": 0, "velocity": 0, "duration": 78}, {"note": 82, "velocity": 127, "duration": 41}, {"note": 0, "velocity": 0, "duration": 79}, {"note": 82, "velocity": 112, "duration": 49}, {"note": 0, "velocity": 0, "duration": 71}, {"note": 82, "velocity": 127, "duration": 66}, {"note": 84, "velocity": 127, "duration": 132}, {"note": 0, "velocity": 0, "duration": 108}, {"note": 80, "velocity": 122, "duration": 207}, {"note": 82, "velocity": 127, "duration": 234}, {"note": 0, "velocity": 0, "duration": 486}, {"note": 84, "velocity": 112, "duration": 201}, {"note": 77, "velocity": 102, "duration": 265}, {"note": 0, "velocity": 0, "duration": 95}, {"note": 77, "velocity": 122, "duration": 133}, {"note": 75, "velocity": 107, "duration": 171}, {"note": 0, "velocity": 0, "duration": 69}, {"note": 75, "velocity": 127, "duration": 209}, {"note": 72, "velocity": 96, "duration": 243}, {"note": 0, "velocity": 0, "duration": 477}, {"note": 79, "velocity": 127, "duration": 150}, {"note": 0, "velocity": 0, "duration": 90}, {"note": 79, "velocity": 127, "duration": 180}, {"note": 0, "velocity": 0, "duration": 540}, {"note": 77, "velocity": 117, "duration": 174}, {"note": 0, "velocity": 0, "duration": 66}, {"note": 75, "velocity": 99, "duration": 251}, {"note": 0, "velocity": 0, "duration": 109}, {"note": 72, "velocity": 99, "duration": 77}, {"note": 82, "velocity": 112, "duration": 213}, {"note": 80, "velocity": 117, "duration": 229}, {"note": 77, "velocity": 102, "duration": 1421}, {"note": 82, "velocity": 127, "duration": 88}, {"note": 80, "velocity": 112, "duration": 101}, {"note": 77, "velocity": 86, "duration": 95}, {"note": 82, "velocity": 127, "duration": 928}, {"note": 0, "velocity": 0, "duration": 512}, {"note": 82, "velocity": 99, "duration": 37}, {"note": 0, "velocity": 0, "duration": 83}, {"note": 82, "velocity": 97, "duration": 30}, {"note": 0, "velocity": 0, "duration": 90}, {"note": 82, "velocity": 117, "duration": 87}, {"note": 80, "velocity": 112, "duration": 224}, {"note": 77, "velocity": 100, "duration": 925}, {"note": 0, "velocity": 0, "duration": 755}, {"note": 80, "velocity": 127, "duration": 177}, {"note": 0, "velocity": 0, "duration": 63}, {"note": 79, "velocity": 122, "duration": 461}, {"note": 0, "velocity": 0, "duration": 259}, {"note": 77, "velocity": 100, "duration": 169}, {"note": 0, "velocity": 0, "duration": 71}, {"note": 75, "velocity": 102, "duration": 171}, {"note": 0, "velocity": 0, "duration": 189}, {"note": 72, "velocity": 97, "duration": 82}, {"note": 82, "velocity": 117, "duration": 202}, {"note": 80, "velocity": 122, "duration": 218}, {"note": 77, "velocity": 100, "duration": 1279}, {"note": 0, "velocity": 0, "duration": 641}, {"note": 84, "velocity": 127, "duration": 85}, {"note": 84, "velocity": 117, "duration": 102}, {"note": 0, "velocity": 0, "duration": 138}, {"note": 84, "velocity": 127, "duration": 60}, {"note": 84, "velocity": 127, "duration": 105}, {"note": 0, "velocity": 0, "duration": 135}, {"note": 82, "velocity": 127, "duration": 160}, {"note": 0, "velocity": 0, "duration": 80}, {"note": 84, "velocity": 127, "duration": 315}, {"note": 0, "velocity": 0, "duration": 405}, {"note": 84, "velocity": 107, "duration": 107}, {"note": 87, "velocity": 100, "duration": 118}, {"note": 89, "velocity": 112, "duration": 138}, {"note": 0, "velocity": 0, "duration": 102}, {"note": 89, "velocity": 127, "duration": 52}, {"note": 0, "velocity": 0, "duration": 68}, {"note": 89, "velocity": 95, "duration": 57}, {"note": 0, "velocity": 0, "duration": 63}, {"note": 92, "velocity": 127, "duration": 263}, {"note": 0, "velocity": 0, "duration": 97}, {"note": 87, "velocity": 122, "duration": 90}, {"note": 89, "velocity": 102, "duration": 350}, {"note": 0, "velocity": 0, "duration": 370}, {"note": 87, "velocity": 127, "duration": 99}, {"note": 89, "velocity": 97, "duration": 87}, {"note": 92, "velocity": 127, "duration": 264}, {"note": 0, "velocity": 0, "duration": 96}, {"note": 92, "velocity": 112, "duration": 42}, {"note": 0, "velocity": 0, "duration": 78}, {"note": 92, "velocity": 127, "duration": 122}, {"note": 0, "velocity": 0, "duration": 118}, {"note": 89, "velocity": 112, "duration": 221}, {"note": 87, "velocity": 122, "duration": 314}, {"note": 87, "velocity": 100, "duration": 92}, {"note": 89, "velocity": 112, "duration": 142}, {"note": 0, "velocity": 0, "duration": 218}, {"note": 82, "velocity": 122, "duration": 236}, {"note": 0, "velocity": 0, "duration": 124}, {"note": 84, "velocity": 122, "duration": 963}, {"note": 0, "velocity": 0, "duration": 237}, {"note": 87, "velocity": 127, "duration": 171}, {"note": 0, "velocity": 0, "duration": 69}, {"note": 84, "velocity": 122, "duration": 156}, {"note": 0, "velocity": 0, "duration": 84}, {"note": 82, "velocity": 127, "duration": 42}, {"note": 0, "velocity": 0, "duration": 78}, {"note": 82, "velocity": 127, "duration": 41}, {"note": 0, "velocity": 0, "duration": 79}, {"note": 82, "velocity": 112, "duration": 49}, {"note": 0, "velocity": 0, "duration": 71}, {"note": 82, "velocity": 127, "duration": 66}, {"note": 84, "velocity": 127, "duration": 132}, {"note": 0, "velocity": 0, "duration": 108}, {"note": 80, "velocity": 122, "duration": 207}, {"note": 82, "velocity": 127, "duration": 234}, {"note": 0, "velocity": 0, "duration": 486}, {"note": 84, "velocity": 112, "duration": 201}, {"note": 77, "velocity": 102, "duration": 265}, {"note": 0, "velocity": 0, "duration": 95}, {"note": 77, "velocity": 122, "duration": 133}, {"note": 75, "velocity": 107, "duration": 171}, {"note": 0, "velocity": 0, "duration": 69}, {"note": 75, "velocity": 127, "duration": 209}, {"note": 72, "velocity": 96, "duration": 243}, {"note": 0, "velocity": 0, "duration": 477}, {"note": 79, "velocity": 127, "duration": 150}, {"note": 0, "velocity": 0, "duration": 90}, {"note": 79, "velocity": 127, "duration": 180}, {"note": 0, "velocity": 0, "duration": 540}, {"note": 77, "velocity": 117, "duration": 174}, {"note": 0, "velocity": 0, "duration": 66}, {"note": 75, "velocity": 99, "duration": 251}, {"note": 0, "velocity": 0, "duration": 109}, {"note": 72, "velocity": 99, "duration": 77}, {"note": 82, "velocity": 112, "duration": 213}, {"note": 80, "velocity": 117, "duration": 229}, {"note": 77, "velocity": 102, "duration": 1421}, {"note": 82, "velocity": 127, "duration": 88}, {"note": 80, "velocity": 112, "duration": 101}, {"note": 77, "velocity": 86, "duration": 95}, {"note": 82, "velocity": 127, "duration": 928}, {"note": 0, "velocity": 0, "duration": 512}, {"note": 82, "velocity": 99, "duration": 37}, {"note": 0, "velocity": 0, "duration": 83}, {"note": 82, "velocity": 97, "duration": 30}, {"note": 0, "velocity": 0, "duration": 90}, {"note": 82, "velocity": 117, "duration": 87}, {"note": 80, "velocity": 112, "duration": 224}, {"note": 77, "velocity": 100, "duration": 925}, {"note": 0, "velocity": 0, "duration": 755}, {"note": 80, "velocity": 127, "duration": 177}, {"note": 0, "velocity": 0, "duration": 63}, {"note": 79, "velocity": 122, "duration": 461}, {"note": 0, "velocity": 0, "duration": 259}, {"note": 77, "velocity": 100, "duration": 169}, {"note": 0, "velocity": 0, "duration": 71}, {"note": 75, "velocity": 102, "duration": 171}, {"note": 0, "velocity": 0, "duration": 189}, {"note": 72, "velocity": 97, "duration": 82}, {"note": 82, "velocity": 117, "duration": 202}, {"note": 80, "velocity": 122, "duration": 218}, {"note": 77, "velocity": 100, "duration": 1206}]]