[[{"note": 71, "velocity": 122, "duration": 529}, {"note": 68, "velocity": 97, "duration": 133}, {"note": 69, "velocity": 82, "duration": 65}, {"note": 71, "velocity": 95, "duration": 77}, {"note": 78, "velocity": 122, "duration": 155}, {"note": 0, "velocity": 0, "duration": 85}, {"note": 78, "velocity": 122, "duration": 166}, {"note": 0, "velocity": 0, "duration": 74}, {"note": 75, "velocity": 112, "duration": 112}, {"note": 76, "velocity": 97, "duration": 696}, {"note": 0, "velocity": 0, "duration": 144}, {"note": 76, "velocity": 117, "duration": 54}, {"note": 0, "velocity": 0, "duration": 66}, {"note": 76, "velocity": 89, "duration": 93}, {"note": 75, "velocity": 122, "duration": 203}, {"note": 71, "velocity": 88, "duration": 170}, {"note": 0, "velocity": 0, "duration": 70}, {"note": 71, "velocity": 92, "duration": 133}, {"note": 75, "velocity": 107, "duration": 361}, {"note": 73, "velocity": 102, "duration": 555}, {"note": 0, "velocity": 0, "duration": 165}, {"note": 73, "velocity": 122, "duration": 68}, {"note": 71, "velocity": 77, "duration": 77}, {"note": 73, "velocity": 107, "duration": 178}, {"note": 0, "velocity": 0, "duration": 62}, {"note": 71, "velocity": 95, "duration": 180}, {"note": 73, "velocity": 107, "duration": 213}, {"note": 71, "velocity": 102, "duration": 229}, {"note": 68, "velocity": 92, "duration": 932}, {"note": 0, "velocity": 0, "duration": 748}, {"note": 68, "velocity": 127, "duration": 82}, {"note": 69, "velocity": 90, "duration": 81}, {"note": 71, "velocity": 117, "duration": 554}, {"note": 0, "velocity": 0, "duration": 166}, {"note": 71, "velocity": 97, "duration": 48}, {"note": 0, "velocity": 0, "duration": 72}, {"note": 71, "velocity": 97, "duration": 41}, {"note": 0, "velocity": 0, "duration": 79}, {"note": 71, "velocity": 99, "duration": 158}, {"note": 0, "velocity": 0, "duration": 82}, {"note": 78, "velocity": 127, "duration": 149}, {"note": 0, "velocity": 0, "duration": 91}, {"note": 78, "velocity": 127, "duration": 152}, {"note": 0, "velocity": 0, "duration": 88}, {"note": 80, "velocity": 127, "duration": 78}, {"note": 76, "velocity": 122, "duration": 795}, {"note": 0, "velocity": 0, "duration": 165}, {"note": 76, "velocity": 107, "duration": 118}, {"note": 75, "velocity": 122, "duration": 219}, {"note": 71, "velocity": 95, "duration": 154}, {"note": 0, "velocity": 0, "duration": 86}, {"note": 71, "velocity": 102, "duration": 134}, {"note": 75, "velocity": 122, "duration": 328}, {"note": 73, "velocity": 112, "duration": 824}, {"note": 0, "velocity": 0, "duration": 136}, {"note": 78, "velocity": 127, "duration": 160}, {"note": 0, "velocity": 0, "duration": 80}, {"note": 78, "velocity": 117, "duration": 136}, {"note": 0, "velocity": 0, "duration": 104}, {"note": 78, "velocity": 117, "duration": 203}, {"note": 75, "velocity": 112, "duration": 178}, {"note": 0, "velocity": 0, "duration": 62}, {"note": 76, "velocity": 107, "duration": 1001}, {"note": 0, "velocity": 0, "duration": 919}, {"note": 80, "velocity": 127, "duration": 158}, {"note": 0, "velocity": 0, "duration": 82}, {"note": 80, "velocity": 127, "duration": 147}, {"note": 0, "velocity": 0, "duration": 93}, {"note": 80, "velocity": 127, "duration": 125}, {"note": 80, "velocity": 102, "duration": 5}, {"note": 0, "velocity": 0, "duration": 235}, {"note": 80, "velocity": 122, "duration": 48}, {"note": 0, "velocity": 0, "duration": 72}, {"note": 80, "velocity": 127, "duration": 124}, {"note": 0, "velocity": 0, "duration": 116}, {"note": 78, "velocity": 127, "duration": 47}, {"note": 0, "velocity": 0, "duration": 73}, {"note": 78, "velocity": 122, "duration": 121}, {"note": 0, "velocity": 0, "duration": 239}, {"note": 75, "velocity": 122, "duration": 108}, {"note": 73, "velocity": 95, "duration": 103}, {"note": 71, "velocity": 99, "duration": 161}, {"note": 0, "velocity": 0, "duration": 79}, {"note": 78, "velocity": 127, "duration": 145}, {"note": 0, "velocity": 0, "duration": 95}, {"note": 78, "velocity": 127, "duration": 192}, {"note": 80, "velocity": 107, "duration": 177}, {"note": 0, "velocity": 0, "duration": 63}, {"note": 78, "velocity": 127, "duration": 239}, {"note": 76, "velocity": 93, "duration": 52}, {"note": 0, "velocity": 0, "duration": 68}, {"note": 76, "velocity": 102, "duration": 198}, {"note": 0, "velocity": 0, "duration": 162}, {"note": 73, "velocity": 117, "duration": 80}, {"note": 75, "velocity": 112, "duration": 64}, {"note": 76, "velocity": 107, "duration": 161}, {"note": 0, "velocity": 0, "duration": 79}, {"note": 76, "velocity": 117, "duration": 334}, {"note": 0, "velocity": 0, "duration": 386}, {"note": 76, "velocity": 122, "duration": 200}, {"note": 75, "velocity": 107, "duration": 195}, {"note": 73, "velocity": 102, "duration": 238}, {"note": 71, "velocity": 93, "duration": 266}, {"note": 68, "velocity": 107, "duration": 867}, {"note": 0, "velocity": 0, "duration": 1053}, {"note": 80, "velocity": 127, "duration": 149}, {"note": 0, "velocity": 0, "duration": 91}, {"note": 80, "velocity": 122, "duration": 122}, {"note": 0, "velocity": 0, "duration": 118}, {"note": 80, "velocity": 127, "duration": 121}, {"note": 0, "velocity": 0, "duration": 119}, {"note": 80, "velocity": 122, "duration": 48}, {"note": 0, "velocity": 0, "duration": 72}, {"note": 80, "velocity": 117, "duration": 46}, {"note": 0, "velocity": 0, "duration": 74}, {"note": 80, "velocity": 127, "duration": 131}, {"note": 0, "velocity": 0, "duration": 109}, {"note": 81, "velocity": 112, "duration": 92}, {"note": 78, "velocity": 127, "duration": 167}, {"note": 0, "velocity": 0, "duration": 193}, {"note": 75, "velocity": 102, "duration": 74}, {"note": 76, "velocity": 90, "duration": 105}, {"note": 78, "velocity": 122, "duration": 161}, {"note": 0, "velocity": 0, "duration": 79}, {"note": 83, "velocity": 112, "duration": 175}, {"note": 0, "velocity": 0, "duration": 65}, {"note": 83, "velocity": 102, "duration": 123}, {"note": 0, "velocity": 0, "duration": 117}, {"note": 75, "velocity": 117, "duration": 153}, {"note": 0, "velocity": 0, "duration": 87}, {"note": 78, "velocity": 127, "duration": 175}, {"note": 0, "velocity": 0, "duration": 65}, {"note": 76, "velocity": 112, "duration": 51}, {"note": 0, "velocity": 0, "duration": 69}, {"note": 76, "velocity": 122, "duration": 213}, {"note": 0, "velocity": 0, "duration": 147}, {"note": 73, "velocity": 127, "duration": 96}, {"note": 75, "velocity": 100, "duration": 90}, {"note": 76, "velocity": 117, "duration": 286}, {"note": 0, "velocity": 0, "duration": 74}, {"note": 76, "velocity": 127, "duration": 333}, {"note": 0, "velocity": 0, "duration": 267}, {"note": 76, "velocity": 112, "duration": 247}, {"note": 75, "velocity": 102, "duration": 169}, {"note": 0, "velocity": 0, "duration": 71}, {"note": 76, "velocity": 107, "duration": 118}, {"note": 78, "velocity": 122, "duration": 275}, {"note": 0, "velocity": 0, "duration": 85}, {"note": 78, "velocity": 127, "duration": 803}, {"note": 0, "velocity": 0, "duration": 877}, {"note": 76, "velocity": 117, "duration": 186}, {"note": 83, "velocity": 127, "duration": 206}, {"note": 0, "velocity": 0, "duration": 274}, {"note": 83, "velocity": 122, "duration": 151}, {"note": 0, "velocity": 0, "duration": 89}, {"note": 76, "velocity": 102, "duration": 86}, {"note": 80, "velocity": 127, "duration": 119}, {"note": 0, "velocity": 0, "duration": 121}, {"note": 78, "velocity": 127, "duration": 441}, {"note": 0, "velocity": 0, "duration": 279}, {"note": 75, "velocity": 122, "duration": 58}, {"note": 0, "velocity": 0, "duration": 62}, {"note": 75, "velocity": 127, "duration": 145}, {"note": 0, "velocity": 0, "duration": 95}, {"note": 83, "velocity": 127, "duration": 166}, {"note": 0, "velocity": 0, "duration": 74}, {"note": 83, "velocity": 127, "duration": 111}, {"note": 0, "velocity": 0, "duration": 129}, {"note": 85, "velocity": 127, "duration": 171}, {"note": 78, "velocity": 117, "duration": 259}, {"note": 76, "velocity": 102, "duration": 720}, {"note": 78, "velocity": 127, "duration": 62}, {"note": 80, "velocity": 92, "duration": 51}, {"note": 0, "velocity": 0, "duration": 69}, {"note": 81, "velocity": 122, "duration": 160}, {"note": 0, "velocity": 0, "duration": 80}, {"note": 80, "velocity": 122, "duration": 58}, {"note": 0, "velocity": 0, "duration": 62}, {"note": 81, "velocity": 122, "duration": 211}, {"note": 0, "velocity": 0, "duration": 149}, {"note": 81, "velocity": 102, "duration": 114}, {"note": 80, "velocity": 112, "duration": 83}, {"note": 81, "velocity": 97, "duration": 159}, {"note": 0, "velocity": 0, "duration": 81}, {"note": 80, "velocity": 127, "duration": 136}, {"note": 0, "velocity": 0, "duration": 104}, {"note": 78, "velocity": 127, "duration": 135}, {"note": 0, "velocity": 0, "duration": 105}, {"note": 76, "velocity": 127, "duration": 144}, {"note": 0, "velocity": 0, "duration": 96}, {"note": 80, "velocity": 127, "duration": 941}, {"note": 0, "velocity": 0, "duration": 739}, {"note": 76, "velocity": 117, "duration": 178}, {"note": 0, "velocity": 0, "duration": 62}, {"note": 83, "velocity": 127, "duration": 200}, {"note": 0, "velocity": 0, "duration": 280}, {"note": 83, "velocity": 127, "duration": 165}, {"note": 0, "velocity": 0, "duration": 75}, {"note": 76, "velocity": 107, "duration": 83}, {"note": 80, "velocity": 122, "duration": 124}, {"note": 0, "velocity": 0, "duration": 116}, {"note": 78, "velocity": 127, "duration": 383}, {"note": 0, "velocity": 0, "duration": 217}, {"note": 75, "velocity": 127, "duration": 42}, {"note": 0, "velocity": 0, "duration": 78}, {"note": 75, "velocity": 117, "duration": 48}, {"note": 0, "velocity": 0, "duration": 72}, {"note": 75, "velocity": 127, "duration": 132}, {"note": 0, "velocity": 0, "duration": 108}, {"note": 83, "velocity": 122, "duration": 156}, {"note": 0, "velocity": 0, "duration": 84}, {"note": 83, "velocity": 127, "duration": 100}, {"note": 0, "velocity": 0, "duration": 140}, {"note": 85, "velocity": 122, "duration": 82}, {"note": 78, "velocity": 117, "duration": 355}, {"note": 76, "velocity": 107, "duration": 253}, {"note": 0, "velocity": 0, "duration": 227}, {"note": 78, "velocity": 127, "duration": 76}, {"note": 80, "velocity": 112, "duration": 67}, {"note": 81, "velocity": 117, "duration": 147}, {"note": 0, "velocity": 0, "duration": 93}, {"note": 80, "velocity": 122, "duration": 56}, {"note": 0, "velocity": 0, "duration": 64}, {"note": 81, "velocity": 127, "duration": 253}, {"note": 0, "velocity": 0, "duration": 227}, {"note": 80, "velocity": 112, "duration": 68}, {"note": 81, "velocity": 99, "duration": 159}, {"note": 0, "velocity": 0, "duration": 81}, {"note": 80, "velocity": 127, "duration": 116}, {"note": 0, "velocity": 0, "duration": 124}, {"note": 78, "velocity": 127, "duration": 163}, {"note": 0, "velocity": 0, "duration": 77}, {"note": 76, "velocity": 112, "duration": 150}, {"note": 0, "velocity": 0, "duration": 90}, {"note": 76, "velocity": 127, "duration": 1049}, {"note": 0, "velocity": 0, "duration": 16231}, {"note": 71, "velocity": 122, "duration": 529}, {"note": 68, "velocity": 97, "duration": 133}, {"note": 69, "velocity": 82, "duration": 65}, {"note": 71, "velocity": 95, "duration": 77}, {"note": 78, "velocity": 122, "duration": 155}, {"note": 0, "velocity": 0, "duration": 85}, {"note": 78, "velocity": 122, "duration": 166}, {"note": 0, "velocity": 0, "duration": 74}, {"note": 75, "velocity": 112, "duration": 112}, {"note": 76, "velocity": 97, "duration": 696}, {"note": 0, "velocity": 0, "duration": 144}, {"note": 76, "velocity": 117, "duration": 54}, {"note": 0, "velocity": 0, "duration": 66}, {"note": 76, "velocity": 89, "duration": 93}, {"note": 75, "velocity": 122, "duration": 203}, {"note": 71, "velocity": 88, "duration": 170}, {"note": 0, "velocity": 0, "duration": 70}, {"note": 71, "velocity": 92, "duration": 133}, {"note": 75, "velocity": 107, "duration": 361}, {"note": 73, "velocity": 102, "duration": 555}, {"note": 0, "velocity": 0, "duration": 165}, {"note": 73, "velocity": 122, "duration": 68}, {"note": 71, "velocity": 77, "duration": 77}, {"note": 73, "velocity": 107, "duration": 178}, {"note": 0, "velocity": 0, "duration": 62}, {"note": 71, "velocity": 95, "duration": 180}, {"note": 73, "velocity": 107, "duration": 213}, {"note": 71, "velocity": 102, "duration": 229}, {"note": 68, "velocity": 92, "duration": 932}, {"note": 0, "velocity": 0, "duration": 748}, {"note": 68, "velocity": 127, "duration": 82}, {"note": 69, "velocity": 90, "duration": 81}, {"note": 71, "velocity": 117, "duration": 554}, {"note": 0, "velocity": 0, "duration": 166}, {"note": 71, "velocity": 97, "duration": 48}, {"note": 0, "velocity": 0, "duration": 72}, {"note": 71, "velocity": 97, "duration": 41}, {"note": 0, "velocity": 0, "duration": 79}, {"note": 71, "velocity": 99, "duration": 158}, {"note": 0, "velocity": 0, "duration": 82}, {"note": 78, "velocity": 127, "duration": 149}, {"note": 0, "velocity": 0, "duration": 91}, {"note": 78, "velocity": 127, "duration": 152}, {"note": 0, "velocity": 0, "duration": 88}, {"note": 80, "velocity": 127, "duration": 78}, {"note": 76, "velocity": 122, "duration": 795}, {"note": 0, "velocity": 0, "duration": 165}, {"note": 76, "velocity": 107, "duration": 118}, {"note": 75, "velocity": 122, "duration": 219}, {"note": 71, "velocity": 95, "duration": 154}, {"note": 0, "velocity": 0, "duration": 86}, {"note": 71, "velocity": 102, "duration": 134}, {"note": 75, "velocity": 122, "duration": 328}, {"note": 73, "velocity": 112, "duration": 824}, {"note": 0, "velocity": 0, "duration": 136}, {"note": 78, "velocity": 127, "duration": 160}, {"note": 0, "velocity": 0, "duration": 80}, {"note": 78, "velocity": 117, "duration": 136}, {"note": 0, "velocity": 0, "duration": 104}, {"note": 78, "velocity": 117, "duration": 203}, {"note": 75, "velocity": 112, "duration": 178}, {"note": 0, "velocity": 0, "duration": 62}, {"note": 76, "velocity": 107, "duration": 1001}, {"note": 0, "velocity": 0, "duration": 919}, {"note": 80, "velocity": 127, "duration": 158}, {"note": 0, "velocity": 0, "duration": 82}, {"note": 80, "velocity": 127, "duration": 147}, {"note": 0, "velocity": 0, "duration": 93}, {"note": 80, "velocity": 127, "duration": 125}, {"note": 80, "velocity": 102, "duration": 5}, {"note": 0, "velocity": 0, "duration": 235}, {"note": 80, "velocity": 122, "duration": 48}, {"note": 0, "velocity": 0, "duration": 72}, {"note": 80, "velocity": 127, "duration": 124}, {"note": 0, "velocity": 0, "duration": 116}, {"note": 78, "velocity": 127, "duration": 47}, {"note": 0, "velocity": 0, "duration": 73}, {"note": 78, "velocity": 122, "duration": 121}, {"note": 0, "velocity": 0, "duration": 239}, {"note": 75, "velocity": 122, "duration": 108}, {"note": 73, "velocity": 95, "duration": 103}, {"note": 71, "velocity": 99, "duration": 161}, {"note": 0, "velocity": 0, "duration": 79}, {"note": 78, "velocity": 127, "duration": 145}, {"note": 0, "velocity": 0, "duration": 95}, {"note": 78, "velocity": 127, "duration": 192}, {"note": 80, "velocity": 107, "duration": 177}, {"note": 0, "velocity": 0, "duration": 63}, {"note": 78, "velocity": 127, "duration": 239}, {"note": 76, "velocity": 93, "duration": 52}, {"note": 0, "velocity": 0, "duration": 68}, {"note": 76, "velocity": 102, "duration": 198}, {"note": 0, "velocity": 0, "duration": 162}, {"note": 73, "velocity": 117, "duration": 80}, {"note": 75, "velocity": 112, "duration": 64}, {"note": 76, "velocity": 107, "duration": 161}, {"note": 0, "velocity": 0, "duration": 79}, {"note": 76, "velocity": 117, "duration": 334}, {"note": 0, "velocity": 0, "duration": 386}, {"note": 76, "velocity": 122, "duration": 200}, {"note": 75, "velocity": 107, "duration": 195}, {"note": 73, "velocity": 102, "duration": 238}, {"note": 71, "velocity": 93, "duration": 266}, {"note": 68, "velocity": 107, "duration": 867}, {"note": 0, "velocity": 0, "duration": 1053}, {"note": 80, "velocity": 127, "duration": 149}, {"note": 0, "velocity": 0, "duration": 91}, {"note": 80, "velocity": 122, "duration": 122}, {"note": 0, "velocity": 0, "duration": 118}, {"note": 80, "velocity": 127, "duration": 121}, {"note": 0, "velocity": 0, "duration": 119}, {"note": 80, "velocity": 122, "duration": 48}, {"note": 0, "velocity": 0, "duration": 72}, {"note": 80, "velocity": 117, "duration": 46}, {"note": 0, "velocity": 0, "duration": 74}, {"note": 80, "velocity": 127, "duration": 131}, {"note": 0, "velocity": 0, "duration": 109}, {"note": 81, "velocity": 112, "duration": 92}, {"note": 78, "velocity": 127, "duration": 167}, {"note": 0, "velocity": 0, "duration": 193}, {"note": 75, "velocity": 102, "duration": 74}, {"note": 76, "velocity": 90, "duration": 105}, {"note": 78, "velocity": 122, "duration": 161}, {"note": 0, "velocity": 0, "duration": 79}, {"note": 83, "velocity": 112, "duration": 175}, {"note": 0, "velocity": 0, "duration": 65}, {"note": 83, "velocity": 102, "duration": 123}, {"note": 0, "velocity": 0, "duration": 117}, {"note": 75, "velocity": 117, "duration": 153}, {"note": 0, "velocity": 0, "duration": 87}, {"note": 78, "velocity": 127, "duration": 175}, {"note": 0, "velocity": 0, "duration": 65}, {"note": 76, "velocity": 112, "duration": 51}, {"note": 0, "velocity": 0, "duration": 69}, {"note": 76, "velocity": 122, "duration": 213}, {"note": 0, "velocity": 0, "duration": 147}, {"note": 73, "velocity": 127, "duration": 96}, {"note": 75, "velocity": 100, "duration": 90}, {"note": 76, "velocity": 117, "duration": 286}, {"note": 0, "velocity": 0, "duration": 74}, {"note": 76, "velocity": 127, "duration": 333}, {"note": 0, "velocity": 0, "duration": 267}, {"note": 76, "velocity": 112, "duration": 247}, {"note": 75, "velocity": 102, "duration": 169}, {"note": 0, "velocity": 0, "duration": 71}, {"note": 76, "velocity": 107, "duration": 118}, {"note": 78, "velocity": 122, "duration": 275}, {"note": 0, "velocity": 0, "duration": 85}, {"note": 78, "velocity": 127, "duration": 803}, {"note": 0, "velocity": 0, "duration": 877}, {"note": 76, "velocity": 117, "duration": 186}, {"note": 83, "velocity": 127, "duration": 206}, {"note": 0, "velocity": 0, "duration": 274}, {"note": 83, "velocity": 122, "duration": 151}, {"note": 0, "velocity": 0, "duration": 89}, {"note": 76, "velocity": 102, "duration": 86}, {"note": 80, "velocity": 127, "duration": 119}, {"note": 0, "velocity": 0, "duration": 121}, {"note": 78, "velocity": 127, "duration": 441}, {"note": 0, "velocity": 0, "duration": 279}, {"note": 75, "velocity": 122, "duration": 58}, {"note": 0, "velocity": 0, "duration": 62}, {"note": 75, "velocity": 127, "duration": 145}, {"note": 0, "velocity": 0, "duration": 95}, {"note": 83, "velocity": 127, "duration": 166}, {"note": 0, "velocity": 0, "duration": 74}, {"note": 83, "velocity": 127, "duration": 111}, {"note": 0, "velocity": 0, "duration": 129}, {"note": 85, "velocity": 127, "duration": 171}, {"note": 78, "velocity": 117, "duration": 259}, {"note": 76, "velocity": 102, "duration": 720}, {"note": 78, "velocity": 127, "duration": 62}, {"note": 80, "velocity": 92, "duration": 51}, {"note": 0, "velocity": 0, "duration": 69}, {"note": 81, "velocity": 122, "duration": 160}, {"note": 0, "velocity": 0, "duration": 80}, {"note": 80, "velocity": 122, "duration": 58}, {"note": 0, "velocity": 0, "duration": 62}, {"note": 81, "velocity": 122, "duration": 211}, {"note": 0, "velocity": 0, "duration": 149}, {"note": 81, "velocity": 102, "duration": 114}, {"note": 80, "velocity": 112, "duration": 83}, {"note": 81, "velocity": 97, "duration": 159}, {"note": 0, "velocity": 0, "duration": 81}, {"note": 80, "velocity": 127, "duration": 136}, {"note": 0, "velocity": 0, "duration": 104}, {"note": 78, "velocity": 127, "duration": 135}, {"note": 0, "velocity": 0, "duration": 105}, {"note": 76, "velocity": 127, "duration": 144}, {"note": 0, "velocity": 0, "duration": 96}, {"note": 80, "velocity": 127, "duration": 941}, {"note": 0, "velocity": 0, "duration": 739}, {"note": 76, "velocity": 117, "duration": 178}, {"note": 0, "velocity": 0, "duration": 62}, {"note": 83, "velocity": 127, "duration": 200}, {"note": 0, "velocity": 0, "duration": 280}, {"note": 83, "velocity": 127, "duration": 165}, {"note": 0, "velocity": 0, "duration": 75}, {"note": 76, "velocity": 107, "duration": 83}, {"note": 80, "velocity": 122, "duration": 124}, {"note": 0, "velocity": 0, "duration": 116}, {"note": 78, "velocity": 127, "duration": 383}, {"note": 0, "velocity": 0, "duration": 217}, {"note": 75, "velocity": 127, "duration": 42}, {"note": 0, "velocity": 0, "duration": 78}, {"note": 75, "velocity": 117, "duration": 48}, {"note": 0, "velocity": 0, "duration": 72}, {"note": 75, "velocity": 127, "duration": 132}, {"note": 0, "velocity": 0, "duration": 108}, {"note": 83, "velocity": 122, "duration": 156}, {"note": 0, "velocity": 0, "duration": 84}, {"note": 83, "velocity": 127, "duration": 100}, {"note": 0, "velocity": 0, "duration": 140}, {"note": 85, "velocity": 122, "duration": 82}, {"note": 78, "velocity": 117, "duration": 355}, {"note": 76, "velocity": 107, "duration": 253}, {"note": 0, "velocity": 0, "duration": 227}, {"note": 78, "velocity": 127, "duration": 76}, {"note": 80, "velocity": 112, "duration": 67}, {"note": 81, "velocity": 117, "duration": 147}, {"note": 0, "velocity": 0, "duration": 93}, {"note": 80, "velocity": 122, "duration": 56}, {"note": 0, "velocity": 0, "duration": 64}, {"note": 81, "velocity": 127, "duration": 253}, {"note": 0, "velocity": 0, "duration": 227}, {"note": 80, "velocity": 112, "duration": 68}, {"note": 81, "velocity": 99, "duration": 159}, {"note": 0, "velocity": 0, "duration": 81}, {"note": 80, "velocity": 127, "duration": 116}, {"note": 0, "velocity": 0, "duration": 124}, {"note": 78, "velocity": 127, "duration": 163}, {"note": 0, "velocity": 0, "duration": 77}, {"note": 76, "velocity": 112, "duration": 150}, {"note": 0, "velocity": 0, "duration": 90}, {"note": 76, "velocity": 127, "duration": 1049}, {"note": 0, "velocity": 0, "duration": 631}, {"note": 76, "velocity": 117, "duration": 186}, {"note": 83, "velocity": 127, "duration": 206}, {"note": 0, "velocity": 0, "duration": 274}, {"note": 83, "velocity": 122, "duration": 151}, {"note": 0, "velocity": 0, "duration": 89}, {"note": 76, "velocity": 102, "duration": 86}, {"note": 80, "velocity": 127, "duration": 119}, {"note": 0, "velocity": 0, "duration": 121}, {"note": 78, "velocity": 127, "duration": 441}, {"note": 0, "velocity": 0, "duration": 279}, {"note": 75, "velocity": 122, "duration": 58}, {"note": 0, "velocity": 0, "duration": 62}, {"note": 75, "velocity": 127, "duration": 145}, {"note": 0, "velocity": 0, "duration": 95}, {"note": 83, "velocity": 127, "duration": 166}, {"note": 0, "velocity": 0, "duration": 74}, {"note": 83, "velocity": 127, "duration": 111}, {"note": 0, "velocity": 0, "duration": 129}, {"note": 85, "velocity": 127, "duration": 171}, {"note": 78, "velocity": 117, "duration": 259}, {"note": 76, "velocity": 102, "duration": 720}, {"note": 78, "velocity": 127, "duration": 62}, {"note": 80, "velocity": 92, "duration": 51}, {"note": 0, "velocity": 0, "duration": 69}, {"note": 81, "velocity": 122, "duration": 160}, {"note": 0, "velocity": 0, "duration": 80}, {"note": 80, "velocity": 122, "duration": 58}, {"note": 0, "velocity": 0, "duration": 62}, {"note": 81, "velocity": 122, "duration": 211}, {"note": 0, "velocity": 0, "duration": 149}, {"note": 81, "velocity": 102, "duration": 114}, {"note": 80, "velocity": 112, "duration": 83}, {"note": 81, "velocity": 97, "duration": 159}, {"note": 0, "velocity": 0, "duration": 81}, {"note": 80, "velocity": 127, "duration": 136}, {"note": 0, "velocity": 0, "duration": 104}, {"note": 78, "velocity": 127, "duration": 135}, {"note": 0, "velocity": 0, "duration": 105}, {"note": 76, "velocity": 127, "duration": 144}, {"note": 0, "velocity": 0, "duration": 96}, {"note": 80, "velocity": 127, "duration": 941}, {"note": 0, "velocity": 0, "duration": 739}, {"note": 76, "velocity": 117, "duration": 178}, {"note": 0, "velocity": 0, "duration": 62}, {"note": 83, "velocity": 127, "duration": 200}, {"note": 0, "velocity": 0, "duration": 280}, {"note": 83, "velocity": 127, "duration": 165}, {"note": 0, "velocity": 0, "duration": 75}, {"note": 76, "velocity": 107, "duration": 83}, {"note": 80, "velocity": 122, "duration": 124}, {"note": 0, "velocity": 0, "duration": 116}, {"note": 78, "velocity": 127, "duration": 383}, {"note": 0, "velocity": 0, "duration": 217}, {"note": 75, "velocity": 127, "duration": 42}, {"note": 0, "velocity": 0, "duration": 78}, {"note": 75, "velocity": 117, "duration": 48}, {"note": 0, "velocity": 0, "duration": 72}, {"note": 75, "velocity": 127, "duration": 132}, {"note": 0, "velocity": 0, "duration": 108}, {"note": 83, "velocity": 122, "duration": 156}, {"note": 0, "velocity": 0, "duration": 84}, {"note": 83, "velocity": 127, "duration": 100}, {"note": 0, "velocity": 0, "duration": 140}, {"note": 85, "velocity": 122, "duration": 82}, {"note": 78, "velocity": 117, "duration": 355}, {"note": 76, "velocity": 107, "duration": 253}, {"note": 0, "velocity": 0, "duration": 227}, {"note": 78, "velocity": 127, "duration": 76}, {"note": 80, "velocity": 112, "duration": 67}, {"note": 81, "velocity": 117, "duration": 147}, {"note": 0, "velocity": 0, "duration": 93}, {"note": 80, "velocity": 122, "duration": 56}, {"note": 0, "velocity": 0, "duration": 64}, {"note": 81, "velocity": 127, "duration": 253}, {"note": 0, "velocity": 0, "duration": 227}, {"note": 80, "velocity": 112, "duration": 68}, {"note": 81, "velocity": 99, "duration": 159}, {"note": 0, "velocity": 0, "duration": 81}, {"note": 80, "velocity": 127, "duration": 116}, {"note": 0, "velocity": 0, "duration": 124}, {"note": 78, "velocity": 127, "duration": 163}, {"note": 0, "velocity": 0, "duration": 77}, {"note": 76, "velocity": 112, "duration": 150}, {"note": 0, "velocity": 0, "duration": 90}, {"note": 76, "velocity": 127, "duration": 1049}, {"note": 0, "velocity": 0, "duration": 631}, {"note": 78, "velocity": 127, "duration": 74}, {"note": 80, "velocity": 112, "duration": 75}, {"note": 81, "velocity": 127, "duration": 270}, {"note": 80, "velocity": 127, "duration": 94}, {"note": 81, "velocity": 112, "duration": 368}, {"note": 0, "velocity": 0, "duration": 112}, {"note": 80, "velocity": 117, "duration": 76}, {"note": 81, "velocity": 100, "duration": 135}, {"note": 0, "velocity": 0, "duration": 105}, {"note": 80, "velocity": 122, "duration": 116}, {"note": 0, "velocity": 0, "duration": 124}, {"note": 78, "velocity": 127, "duration": 237}, {"note": 0, "velocity": 0, "duration": 123}, {"note": 76, "velocity": 95, "duration": 68}, {"note": 76, "velocity": 100, "duration": 1729}]]