[[{"note": 64, "velocity": 67, "duration": 380}, {"note": 0, "velocity": 0, "duration": 100}, {"note": 67, "velocity": 83, "duration": 26}, {"note": 69, "velocity": 77, "duration": 370}, {"note": 0, "velocity": 0, "duration": 110}, {"note": 64, "velocity": 76, "duration": 372}, {"note": 62, "velocity": 74, "duration": 248}, {"note": 60, "velocity": 64, "duration": 245}, {"note": 62, "velocity": 77, "duration": 172}, {"note": 0, "velocity": 0, "duration": 68}, {"note": 62, "velocity": 68, "duration": 48}, {"note": 0, "velocity": 0, "duration": 72}, {"note": 62, "velocity": 74, "duration": 244}, {"note": 55, "velocity": 74, "duration": 280}, {"note": 64, "velocity": 81, "duration": 617}, {"note": 0, "velocity": 0, "duration": 223}, {"note": 60, "velocity": 62, "duration": 171}, {"note": 62, "velocity": 70, "duration": 131}, {"note": 64, "velocity": 67, "duration": 294}, {"note": 0, "velocity": 0, "duration": 186}, {"note": 67, "velocity": 72, "duration": 254}, {"note": 69, "velocity": 95, "duration": 343}, {"note": 0, "velocity": 0, "duration": 137}, {"note": 64, "velocity": 73, "duration": 228}, {"note": 62, "velocity": 68, "duration": 285}, {"note": 60, "velocity": 60, "duration": 121}, {"note": 0, "velocity": 0, "duration": 119}, {"note": 62, "velocity": 86, "duration": 142}, {"note": 0, "velocity": 0, "duration": 98}, {"note": 60, "velocity": 74, "duration": 53}, {"note": 0, "velocity": 0, "duration": 67}, {"note": 62, "velocity": 77, "duration": 118}, {"note": 0, "velocity": 0, "duration": 122}, {"note": 67, "velocity": 74, "duration": 190}, {"note": 0, "velocity": 0, "duration": 170}, {"note": 64, "velocity": 73, "duration": 500}, {"note": 0, "velocity": 0, "duration": 220}, {"note": 64, "velocity": 87, "duration": 136}, {"note": 62, "velocity": 73, "duration": 136}, {"note": 60, "velocity": 87, "duration": 160}, {"note": 0, "velocity": 0, "duration": 80}, {"note": 59, "velocity": 75, "duration": 167}, {"note": 60, "velocity": 72, "duration": 219}, {"note": 72, "velocity": 100, "duration": 241}, {"note": 0, "velocity": 0, "duration": 119}, {"note": 71, "velocity": 90, "duration": 237}, {"note": 69, "velocity": 68, "duration": 143}, {"note": 67, "velocity": 81, "duration": 431}, {"note": 64, "velocity": 59, "duration": 90}, {"note": 69, "velocity": 93, "duration": 152}, {"note": 0, "velocity": 0, "duration": 88}, {"note": 67, "velocity": 81, "duration": 56}, {"note": 0, "velocity": 0, "duration": 64}, {"note": 67, "velocity": 90, "duration": 161}, {"note": 0, "velocity": 0, "duration": 79}, {"note": 67, "velocity": 71, "duration": 226}, {"note": 0, "velocity": 0, "duration": 134}, {"note": 64, "velocity": 95, "duration": 265}, {"note": 0, "velocity": 0, "duration": 455}, {"note": 64, "velocity": 74, "duration": 111}, {"note": 62, "velocity": 60, "duration": 177}, {"note": 60, "velocity": 62, "duration": 243}, {"note": 59, "velocity": 60, "duration": 173}, {"note": 60, "velocity": 71, "duration": 144}, {"note": 0, "velocity": 0, "duration": 96}, {"note": 72, "velocity": 65, "duration": 280}, {"note": 0, "velocity": 0, "duration": 80}, {"note": 71, "velocity": 85, "duration": 255}, {"note": 69, "velocity": 70, "duration": 142}, {"note": 67, "velocity": 90, "duration": 292}, {"note": 0, "velocity": 0, "duration": 68}, {"note": 60, "velocity": 74, "duration": 223}, {"note": 69, "velocity": 86, "duration": 612}, {"note": 0, "velocity": 0, "duration": 108}, {"note": 60, "velocity": 64, "duration": 141}, {"note": 67, "velocity": 85, "duration": 625}, {"note": 0, "velocity": 0, "duration": 455}, {"note": 64, "velocity": 90, "duration": 330}, {"note": 0, "velocity": 0, "duration": 150}, {"note": 67, "velocity": 93, "duration": 95}, {"note": 0, "velocity": 0, "duration": 145}, {"note": 69, "velocity": 104, "duration": 325}, {"note": 0, "velocity": 0, "duration": 155}, {"note": 64, "velocity": 79, "duration": 187}, {"note": 62, "velocity": 79, "duration": 241}, {"note": 60, "velocity": 67, "duration": 217}, {"note": 62, "velocity": 86, "duration": 291}, {"note": 62, "velocity": 74, "duration": 51}, {"note": 0, "velocity": 0, "duration": 69}, {"note": 62, "velocity": 77, "duration": 147}, {"note": 0, "velocity": 0, "duration": 93}, {"note": 55, "velocity": 72, "duration": 193}, {"note": 0, "velocity": 0, "duration": 167}, {"note": 64, "velocity": 64, "duration": 382}, {"note": 0, "velocity": 0, "duration": 338}, {"note": 60, "velocity": 81, "duration": 148}, {"note": 0, "velocity": 0, "duration": 92}, {"note": 64, "velocity": 90, "duration": 504}, {"note": 67, "velocity": 76, "duration": 150}, {"note": 0, "velocity": 0, "duration": 90}, {"note": 69, "velocity": 76, "duration": 361}, {"note": 0, "velocity": 0, "duration": 119}, {"note": 64, "velocity": 87, "duration": 182}, {"note": 62, "velocity": 86, "duration": 233}, {"note": 60, "velocity": 63, "duration": 204}, {"note": 62, "velocity": 81, "duration": 242}, {"note": 60, "velocity": 64, "duration": 164}, {"note": 62, "velocity": 90, "duration": 172}, {"note": 0, "velocity": 0, "duration": 68}, {"note": 67, "velocity": 98, "duration": 260}, {"note": 0, "velocity": 0, "duration": 100}, {"note": 64, "velocity": 87, "duration": 519}, {"note": 0, "velocity": 0, "duration": 201}, {"note": 64, "velocity": 74, "duration": 139}, {"note": 62, "velocity": 65, "duration": 149}, {"note": 60, "velocity": 93, "duration": 309}, {"note": 59, "velocity": 77, "duration": 171}, {"note": 60, "velocity": 77, "duration": 129}, {"note": 0, "velocity": 0, "duration": 111}, {"note": 72, "velocity": 104, "duration": 268}, {"note": 0, "velocity": 0, "duration": 92}, {"note": 71, "velocity": 104, "duration": 184}, {"note": 69, "velocity": 77, "duration": 117}, {"note": 67, "velocity": 104, "duration": 269}, {"note": 0, "velocity": 0, "duration": 211}, {"note": 64, "velocity": 61, "duration": 84}, {"note": 69, "velocity": 100, "duration": 180}, {"note": 67, "velocity": 77, "duration": 55}, {"note": 0, "velocity": 0, "duration": 65}, {"note": 67, "velocity": 93, "duration": 146}, {"note": 0, "velocity": 0, "duration": 94}, {"note": 65, "velocity": 77, "duration": 261}, {"note": 0, "velocity": 0, "duration": 99}, {"note": 64, "velocity": 71, "duration": 417}, {"note": 0, "velocity": 0, "duration": 303}, {"note": 64, "velocity": 90, "duration": 143}, {"note": 62, "velocity": 62, "duration": 116}, {"note": 60, "velocity": 90, "duration": 212}, {"note": 59, "velocity": 85, "duration": 179}, {"note": 60, "velocity": 77, "duration": 116}, {"note": 0, "velocity": 0, "duration": 124}, {"note": 72, "velocity": 104, "duration": 259}, {"note": 0, "velocity": 0, "duration": 101}, {"note": 71, "velocity": 87, "duration": 208}, {"note": 69, "velocity": 74, "duration": 107}, {"note": 67, "velocity": 111, "duration": 250}, {"note": 0, "velocity": 0, "duration": 110}, {"note": 60, "velocity": 76, "duration": 141}, {"note": 69, "velocity": 68, "duration": 590}, {"note": 0, "velocity": 0, "duration": 250}, {"note": 60, "velocity": 76, "duration": 201}, {"note": 71, "velocity": 86, "duration": 2059}, {"note": 0, "velocity": 0, "duration": 821}, {"note": 64, "velocity": 87, "duration": 326}, {"note": 67, "velocity": 74, "duration": 156}, {"note": 0, "velocity": 0, "duration": 84}, {"note": 74, "velocity": 85, "duration": 153}, {"note": 0, "velocity": 0, "duration": 87}, {"note": 72, "velocity": 83, "duration": 266}, {"note": 0, "velocity": 0, "duration": 214}, {"note": 74, "velocity": 104, "duration": 110}, {"note": 0, "velocity": 0, "duration": 130}, {"note": 76, "velocity": 95, "duration": 173}, {"note": 0, "velocity": 0, "duration": 67}, {"note": 69, "velocity": 100, "duration": 1153}, {"note": 0, "velocity": 0, "duration": 1007}, {"note": 65, "velocity": 111, "duration": 288}, {"note": 69, "velocity": 90, "duration": 276}, {"note": 77, "velocity": 95, "duration": 157}, {"note": 0, "velocity": 0, "duration": 83}, {"note": 76, "velocity": 111, "duration": 350}, {"note": 0, "velocity": 0, "duration": 130}, {"note": 74, "velocity": 95, "duration": 172}, {"note": 0, "velocity": 0, "duration": 68}, {"note": 72, "velocity": 95, "duration": 143}, {"note": 0, "velocity": 0, "duration": 122}, {"note": 71, "velocity": 100, "duration": 824}, {"note": 0, "velocity": 0, "duration": 1311}, {"note": 67, "velocity": 95, "duration": 333}, {"note": 71, "velocity": 74, "duration": 223}, {"note": 74, "velocity": 86, "duration": 151}, {"note": 0, "velocity": 0, "duration": 89}, {"note": 79, "velocity": 120, "duration": 335}, {"note": 0, "velocity": 0, "duration": 385}, {"note": 71, "velocity": 100, "duration": 204}, {"note": 72, "velocity": 112, "duration": 1171}, {"note": 72, "velocity": 90, "duration": 185}, {"note": 74, "velocity": 93, "duration": 137}, {"note": 0, "velocity": 0, "duration": 103}, {"note": 76, "velocity": 81, "duration": 101}, {"note": 0, "velocity": 0, "duration": 139}, {"note": 76, "velocity": 104, "duration": 643}, {"note": 0, "velocity": 0, "duration": 77}, {"note": 74, "velocity": 108, "duration": 155}, {"note": 0, "velocity": 0, "duration": 85}, {"note": 72, "velocity": 90, "duration": 594}, {"note": 69, "velocity": 87, "duration": 323}, {"note": 0, "velocity": 0, "duration": 157}, {"note": 69, "velocity": 98, "duration": 186}, {"note": 0, "velocity": 0, "duration": 268}, {"note": 67, "velocity": 59, "duration": 625}, {"note": 0, "velocity": 0, "duration": 1081}, {"note": 64, "velocity": 87, "duration": 326}, {"note": 67, "velocity": 74, "duration": 156}, {"note": 0, "velocity": 0, "duration": 84}, {"note": 74, "velocity": 85, "duration": 153}, {"note": 0, "velocity": 0, "duration": 87}, {"note": 72, "velocity": 83, "duration": 266}, {"note": 0, "velocity": 0, "duration": 214}, {"note": 74, "velocity": 104, "duration": 110}, {"note": 0, "velocity": 0, "duration": 130}, {"note": 76, "velocity": 95, "duration": 173}, {"note": 0, "velocity": 0, "duration": 67}, {"note": 69, "velocity": 100, "duration": 1409}, {"note": 0, "velocity": 0, "duration": 751}, {"note": 65, "velocity": 111, "duration": 288}, {"note": 69, "velocity": 90, "duration": 276}, {"note": 77, "velocity": 95, "duration": 157}, {"note": 0, "velocity": 0, "duration": 83}, {"note": 76, "velocity": 111, "duration": 350}, {"note": 0, "velocity": 0, "duration": 130}, {"note": 74, "velocity": 95, "duration": 172}, {"note": 0, "velocity": 0, "duration": 68}, {"note": 72, "velocity": 95, "duration": 143}, {"note": 0, "velocity": 0, "duration": 122}, {"note": 71, "velocity": 100, "duration": 1877}, {"note": 0, "velocity": 0, "duration": 258}, {"note": 71, "velocity": 112, "duration": 414}, {"note": 72, "velocity": 76, "duration": 282}, {"note": 74, "velocity": 81, "duration": 80}, {"note": 0, "velocity": 0, "duration": 160}, {"note": 80, "velocity": 117, "duration": 463}, {"note": 76, "velocity": 67, "duration": 79}, {"note": 0, "velocity": 0, "duration": 161}, {"note": 76, "velocity": 76, "duration": 116}, {"note": 0, "velocity": 0, "duration": 124}, {"note": 81, "velocity": 95, "duration": 663}, {"note": 72, "velocity": 72, "duration": 88}, {"note": 72, "velocity": 86, "duration": 100}, {"note": 0, "velocity": 0, "duration": 140}, {"note": 72, "velocity": 98, "duration": 599}, {"note": 0, "velocity": 0, "duration": 121}, {"note": 76, "velocity": 85, "duration": 238}, {"note": 69, "velocity": 100, "duration": 606}, {"note": 0, "velocity": 0, "duration": 114}, {"note": 74, "velocity": 90, "duration": 225}, {"note": 72, "velocity": 104, "duration": 334}, {"note": 0, "velocity": 0, "duration": 146}, {"note": 71, "velocity": 98, "duration": 261}, {"note": 0, "velocity": 0, "duration": 219}, {"note": 72, "velocity": 104, "duration": 1699}, {"note": 0, "velocity": 0, "duration": 2381}, {"note": 64, "velocity": 90, "duration": 330}, {"note": 0, "velocity": 0, "duration": 150}, {"note": 67, "velocity": 93, "duration": 95}, {"note": 0, "velocity": 0, "duration": 145}, {"note": 69, "velocity": 104, "duration": 325}, {"note": 0, "velocity": 0, "duration": 155}, {"note": 64, "velocity": 79, "duration": 187}, {"note": 62, "velocity": 79, "duration": 241}, {"note": 60, "velocity": 67, "duration": 217}, {"note": 62, "velocity": 86, "duration": 291}, {"note": 62, "velocity": 74, "duration": 51}, {"note": 0, "velocity": 0, "duration": 69}, {"note": 62, "velocity": 77, "duration": 147}, {"note": 0, "velocity": 0, "duration": 93}, {"note": 55, "velocity": 72, "duration": 193}, {"note": 0, "velocity": 0, "duration": 167}, {"note": 64, "velocity": 64, "duration": 382}, {"note": 0, "velocity": 0, "duration": 338}, {"note": 60, "velocity": 81, "duration": 148}, {"note": 0, "velocity": 0, "duration": 92}, {"note": 64, "velocity": 90, "duration": 504}, {"note": 67, "velocity": 76, "duration": 150}, {"note": 0, "velocity": 0, "duration": 90}, {"note": 69, "velocity": 76, "duration": 361}, {"note": 0, "velocity": 0, "duration": 119}, {"note": 64, "velocity": 87, "duration": 182}, {"note": 62, "velocity": 86, "duration": 233}, {"note": 60, "velocity": 63, "duration": 204}, {"note": 62, "velocity": 81, "duration": 242}, {"note": 60, "velocity": 64, "duration": 164}, {"note": 62, "velocity": 90, "duration": 172}, {"note": 0, "velocity": 0, "duration": 68}, {"note": 67, "velocity": 98, "duration": 260}, {"note": 0, "velocity": 0, "duration": 100}, {"note": 64, "velocity": 87, "duration": 519}, {"note": 0, "velocity": 0, "duration": 201}, {"note": 64, "velocity": 74, "duration": 139}, {"note": 62, "velocity": 65, "duration": 149}, {"note": 60, "velocity": 93, "duration": 309}, {"note": 59, "velocity": 77, "duration": 171}, {"note": 60, "velocity": 77, "duration": 129}, {"note": 0, "velocity": 0, "duration": 111}, {"note": 72, "velocity": 104, "duration": 268}, {"note": 0, "velocity": 0, "duration": 92}, {"note": 71, "velocity": 104, "duration": 184}, {"note": 69, "velocity": 77, "duration": 117}, {"note": 67, "velocity": 104, "duration": 269}, {"note": 0, "velocity": 0, "duration": 211}, {"note": 64, "velocity": 61, "duration": 84}, {"note": 69, "velocity": 100, "duration": 180}, {"note": 67, "velocity": 77, "duration": 55}, {"note": 0, "velocity": 0, "duration": 65}, {"note": 67, "velocity": 93, "duration": 146}, {"note": 0, "velocity": 0, "duration": 94}, {"note": 65, "velocity": 77, "duration": 261}, {"note": 0, "velocity": 0, "duration": 99}, {"note": 64, "velocity": 71, "duration": 417}, {"note": 0, "velocity": 0, "duration": 303}, {"note": 64, "velocity": 90, "duration": 143}, {"note": 62, "velocity": 62, "duration": 116}, {"note": 60, "velocity": 90, "duration": 212}, {"note": 59, "velocity": 85, "duration": 179}, {"note": 60, "velocity": 77, "duration": 116}, {"note": 0, "velocity": 0, "duration": 124}, {"note": 72, "velocity": 104, "duration": 259}, {"note": 0, "velocity": 0, "duration": 101}, {"note": 71, "velocity": 87, "duration": 208}, {"note": 69, "velocity": 74, "duration": 107}, {"note": 67, "velocity": 111, "duration": 250}, {"note": 0, "velocity": 0, "duration": 110}, {"note": 60, "velocity": 76, "duration": 141}, {"note": 69, "velocity": 68, "duration": 590}, {"note": 0, "velocity": 0, "duration": 250}, {"note": 60, "velocity": 76, "duration": 201}, {"note": 71, "velocity": 86, "duration": 2059}, {"note": 64, "velocity": 87, "duration": 326}, {"note": 67, "velocity": 74, "duration": 156}, {"note": 0, "velocity": 0, "duration": 84}, {"note": 74, "velocity": 85, "duration": 153}, {"note": 0, "velocity": 0, "duration": 87}, {"note": 72, "velocity": 83, "duration": 266}, {"note": 0, "velocity": 0, "duration": 214}, {"note": 74, "velocity": 104, "duration": 110}, {"note": 0, "velocity": 0, "duration": 130}, {"note": 76, "velocity": 95, "duration": 173}, {"note": 0, "velocity": 0, "duration": 67}, {"note": 69, "velocity": 100, "duration": 1153}, {"note": 0, "velocity": 0, "duration": 1007}, {"note": 65, "velocity": 111, "duration": 288}, {"note": 69, "velocity": 90, "duration": 276}, {"note": 77, "velocity": 95, "duration": 157}, {"note": 0, "velocity": 0, "duration": 83}, {"note": 76, "velocity": 111, "duration": 350}, {"note": 0, "velocity": 0, "duration": 130}, {"note": 74, "velocity": 95, "duration": 172}, {"note": 0, "velocity": 0, "duration": 68}, {"note": 72, "velocity": 95, "duration": 143}, {"note": 0, "velocity": 0, "duration": 122}, {"note": 71, "velocity": 100, "duration": 824}, {"note": 0, "velocity": 0, "duration": 1311}, {"note": 67, "velocity": 95, "duration": 333}, {"note": 71, "velocity": 74, "duration": 223}, {"note": 74, "velocity": 86, "duration": 151}, {"note": 0, "velocity": 0, "duration": 89}, {"note": 79, "velocity": 120, "duration": 335}, {"note": 0, "velocity": 0, "duration": 385}, {"note": 71, "velocity": 100, "duration": 204}, {"note": 72, "velocity": 112, "duration": 1171}, {"note": 72, "velocity": 90, "duration": 185}, {"note": 74, "velocity": 93, "duration": 137}, {"note": 0, "velocity": 0, "duration": 103}, {"note": 76, "velocity": 81, "duration": 101}, {"note": 0, "velocity": 0, "duration": 139}, {"note": 76, "velocity": 104, "duration": 643}, {"note": 0, "velocity": 0, "duration": 77}, {"note": 74, "velocity": 108, "duration": 155}, {"note": 0, "velocity": 0, "duration": 85}, {"note": 72, "velocity": 90, "duration": 594}, {"note": 69, "velocity": 87, "duration": 323}, {"note": 0, "velocity": 0, "duration": 157}, {"note": 69, "velocity": 98, "duration": 186}, {"note": 0, "velocity": 0, "duration": 268}, {"note": 67, "velocity": 59, "duration": 625}, {"note": 0, "velocity": 0, "duration": 1081}, {"note": 64, "velocity": 87, "duration": 326}, {"note": 67, "velocity": 74, "duration": 156}, {"note": 0, "velocity": 0, "duration": 84}, {"note": 74, "velocity": 85, "duration": 153}, {"note": 0, "velocity": 0, "duration": 87}, {"note": 72, "velocity": 83, "duration": 266}, {"note": 0, "velocity": 0, "duration": 214}, {"note": 74, "velocity": 104, "duration": 110}, {"note": 0, "velocity": 0, "duration": 130}, {"note": 76, "velocity": 95, "duration": 173}, {"note": 0, "velocity": 0, "duration": 67}, {"note": 69, "velocity": 100, "duration": 1409}, {"note": 0, "velocity": 0, "duration": 751}, {"note": 65, "velocity": 111, "duration": 288}, {"note": 69, "velocity": 90, "duration": 276}, {"note": 77, "velocity": 95, "duration": 157}, {"note": 0, "velocity": 0, "duration": 83}, {"note": 76, "velocity": 111, "duration": 350}, {"note": 0, "velocity": 0, "duration": 130}, {"note": 74, "velocity": 95, "duration": 172}, {"note": 0, "velocity": 0, "duration": 68}, {"note": 72, "velocity": 95, "duration": 143}, {"note": 0, "velocity": 0, "duration": 122}, {"note": 71, "velocity": 100, "duration": 1877}, {"note": 0, "velocity": 0, "duration": 258}, {"note": 71, "velocity": 112, "duration": 414}, {"note": 72, "velocity": 76, "duration": 282}, {"note": 74, "velocity": 81, "duration": 80}, {"note": 0, "velocity": 0, "duration": 160}, {"note": 80, "velocity": 117, "duration": 463}, {"note": 76, "velocity": 67, "duration": 79}, {"note": 0, "velocity": 0, "duration": 161}, {"note": 76, "velocity": 76, "duration": 116}, {"note": 0, "velocity": 0, "duration": 124}, {"note": 81, "velocity": 95, "duration": 663}, {"note": 72, "velocity": 72, "duration": 88}, {"note": 72, "velocity": 86, "duration": 100}, {"note": 0, "velocity": 0, "duration": 140}, {"note": 72, "velocity": 98, "duration": 599}, {"note": 0, "velocity": 0, "duration": 121}, {"note": 76, "velocity": 85, "duration": 238}, {"note": 69, "velocity": 100, "duration": 606}, {"note": 0, "velocity": 0, "duration": 114}, {"note": 74, "velocity": 90, "duration": 225}, {"note": 72, "velocity": 104, "duration": 334}, {"note": 0, "velocity": 0, "duration": 146}, {"note": 71, "velocity": 98, "duration": 261}, {"note": 0, "velocity": 0, "duration": 219}, {"note": 72, "velocity": 104, "duration": 1680}, {"note": 0, "velocity": 0, "duration": 12000}, {"note": 72, "velocity": 109, "duration": 135}, {"note": 0, "velocity": 0, "duration": 105}, {"note": 72, "velocity": 103, "duration": 135}, {"note": 0, "velocity": 0, "duration": 105}, {"note": 72, "velocity": 96, "duration": 135}, {"note": 0, "velocity": 0, "duration": 105}, {"note": 72, "velocity": 96, "duration": 167}, {"note": 0, "velocity": 0, "duration": 73}, {"note": 75, "velocity": 99, "duration": 539}, {"note": 0, "velocity": 0, "duration": 301}, {"note": 72, "velocity": 107, "duration": 148}, {"note": 74, "velocity": 108, "duration": 130}, {"note": 0, "velocity": 0, "duration": 110}, {"note": 74, "velocity": 109, "duration": 99}, {"note": 0, "velocity": 0, "duration": 141}, {"note": 74, "velocity": 118, "duration": 130}, {"note": 0, "velocity": 0, "duration": 110}, {"note": 74, "velocity": 117, "duration": 136}, {"note": 0, "velocity": 0, "duration": 104}, {"note": 74, "velocity": 112, "duration": 1838}, {"note": 0, "velocity": 0, "duration": 1282}, {"note": 67, "velocity": 74, "duration": 156}, {"note": 0, "velocity": 0, "duration": 84}, {"note": 74, "velocity": 85, "duration": 153}, {"note": 0, "velocity": 0, "duration": 87}, {"note": 72, "velocity": 83, "duration": 266}, {"note": 0, "velocity": 0, "duration": 214}, {"note": 74, "velocity": 104, "duration": 110}, {"note": 0, "velocity": 0, "duration": 130}, {"note": 76, "velocity": 95, "duration": 173}, {"note": 0, "velocity": 0, "duration": 67}, {"note": 69, "velocity": 100, "duration": 1153}, {"note": 0, "velocity": 0, "duration": 1007}, {"note": 65, "velocity": 111, "duration": 288}, {"note": 69, "velocity": 90, "duration": 276}, {"note": 77, "velocity": 95, "duration": 157}, {"note": 0, "velocity": 0, "duration": 83}, {"note": 76, "velocity": 111, "duration": 350}, {"note": 0, "velocity": 0, "duration": 130}, {"note": 74, "velocity": 95, "duration": 172}, {"note": 0, "velocity": 0, "duration": 68}, {"note": 72, "velocity": 95, "duration": 143}, {"note": 0, "velocity": 0, "duration": 97}, {"note": 71, "velocity": 100, "duration": 824}, {"note": 0, "velocity": 0, "duration": 1336}, {"note": 67, "velocity": 95, "duration": 333}, {"note": 71, "velocity": 74, "duration": 223}, {"note": 74, "velocity": 86, "duration": 151}, {"note": 0, "velocity": 0, "duration": 89}, {"note": 79, "velocity": 120, "duration": 335}, {"note": 0, "velocity": 0, "duration": 385}, {"note": 71, "velocity": 100, "duration": 204}, {"note": 72, "velocity": 112, "duration": 1171}, {"note": 72, "velocity": 90, "duration": 185}, {"note": 74, "velocity": 93, "duration": 137}, {"note": 0, "velocity": 0, "duration": 103}, {"note": 76, "velocity": 81, "duration": 101}, {"note": 0, "velocity": 0, "duration": 139}, {"note": 76, "velocity": 104, "duration": 643}, {"note": 0, "velocity": 0, "duration": 77}, {"note": 74, "velocity": 108, "duration": 155}, {"note": 0, "velocity": 0, "duration": 85}, {"note": 72, "velocity": 90, "duration": 594}, {"note": 69, "velocity": 87, "duration": 323}, {"note": 0, "velocity": 0, "duration": 157}, {"note": 69, "velocity": 98, "duration": 186}, {"note": 0, "velocity": 0, "duration": 294}, {"note": 67, "velocity": 59, "duration": 625}, {"note": 0, "velocity": 0, "duration": 1055}, {"note": 64, "velocity": 87, "duration": 326}, {"note": 67, "velocity": 74, "duration": 156}, {"note": 0, "velocity": 0, "duration": 84}, {"note": 74, "velocity": 85, "duration": 153}, {"note": 0, "velocity": 0, "duration": 87}, {"note": 72, "velocity": 83, "duration": 266}, {"note": 0, "velocity": 0, "duration": 214}, {"note": 74, "velocity": 104, "duration": 110}, {"note": 0, "velocity": 0, "duration": 130}, {"note": 76, "velocity": 95, "duration": 173}, {"note": 0, "velocity": 0, "duration": 67}, {"note": 69, "velocity": 100, "duration": 1409}, {"note": 0, "velocity": 0, "duration": 751}, {"note": 65, "velocity": 111, "duration": 288}, {"note": 69, "velocity": 90, "duration": 276}, {"note": 77, "velocity": 95, "duration": 157}, {"note": 0, "velocity": 0, "duration": 83}, {"note": 76, "velocity": 111, "duration": 350}, {"note": 0, "velocity": 0, "duration": 130}, {"note": 74, "velocity": 95, "duration": 172}, {"note": 0, "velocity": 0, "duration": 68}, {"note": 72, "velocity": 95, "duration": 143}, {"note": 0, "velocity": 0, "duration": 97}, {"note": 71, "velocity": 100, "duration": 1877}, {"note": 0, "velocity": 0, "duration": 283}, {"note": 71, "velocity": 112, "duration": 414}, {"note": 72, "velocity": 81, "duration": 282}, {"note": 74, "velocity": 105, "duration": 129}, {"note": 0, "velocity": 0, "duration": 111}, {"note": 80, "velocity": 117, "duration": 463}, {"note": 76, "velocity": 74, "duration": 79}, {"note": 0, "velocity": 0, "duration": 161}, {"note": 76, "velocity": 97, "duration": 116}, {"note": 0, "velocity": 0, "duration": 124}, {"note": 84, "velocity": 95, "duration": 663}, {"note": 72, "velocity": 72, "duration": 88}, {"note": 72, "velocity": 86, "duration": 100}, {"note": 0, "velocity": 0, "duration": 140}, {"note": 72, "velocity": 98, "duration": 599}, {"note": 0, "velocity": 0, "duration": 121}, {"note": 76, "velocity": 85, "duration": 238}, {"note": 69, "velocity": 100, "duration": 606}, {"note": 0, "velocity": 0, "duration": 114}, {"note": 74, "velocity": 90, "duration": 225}, {"note": 72, "velocity": 104, "duration": 334}, {"note": 0, "velocity": 0, "duration": 146}, {"note": 71, "velocity": 98, "duration": 261}, {"note": 0, "velocity": 0, "duration": 219}, {"note": 72, "velocity": 104, "duration": 1680}, {"note": 76, "velocity": 85, "duration": 239}, {"note": 69, "velocity": 100, "duration": 607}, {"note": 0, "velocity": 0, "duration": 113}, {"note": 74, "velocity": 90, "duration": 226}, {"note": 72, "velocity": 104, "duration": 335}, {"note": 0, "velocity": 0, "duration": 145}, {"note": 71, "velocity": 98, "duration": 247}, {"note": 0, "velocity": 0, "duration": 353}, {"note": 72, "velocity": 104, "duration": 1575}]]