[[{"note": 62, "velocity": 83, "duration": 123}, {"note": 0, "velocity": 0, "duration": 117}, {"note": 62, "velocity": 76, "duration": 102}, {"note": 0, "velocity": 0, "duration": 138}, {"note": 62, "velocity": 77, "duration": 276}, {"note": 64, "velocity": 75, "duration": 221}, {"note": 71, "velocity": 85, "duration": 159}, {"note": 0, "velocity": 0, "duration": 81}, {"note": 71, "velocity": 75, "duration": 202}, {"note": 69, "velocity": 95, "duration": 100}, {"note": 0, "velocity": 0, "duration": 140}, {"note": 69, "velocity": 93, "duration": 1}, {"note": 0, "velocity": 0, "duration": 84}, {"note": 67, "velocity": 98, "duration": 1549}, {"note": 0, "velocity": 0, "duration": 371}, {"note": 69, "velocity": 111, "duration": 354}, {"note": 69, "velocity": 64, "duration": 50}, {"note": 71, "velocity": 77, "duration": 151}, {"note": 0, "velocity": 0, "duration": 89}, {"note": 71, "velocity": 87, "duration": 34}, {"note": 69, "velocity": 87, "duration": 162}, {"note": 0, "velocity": 0, "duration": 78}, {"note": 67, "velocity": 87, "duration": 246}, {"note": 64, "velocity": 71, "duration": 203}, {"note": 67, "velocity": 93, "duration": 75}, {"note": 62, "velocity": 87, "duration": 301}, {"note": 0, "velocity": 0, "duration": 1045}, {"note": 71, "velocity": 83, "duration": 193}, {"note": 74, "velocity": 74, "duration": 99}, {"note": 0, "velocity": 0, "duration": 141}, {"note": 74, "velocity": 100, "duration": 120}, {"note": 0, "velocity": 0, "duration": 120}, {"note": 71, "velocity": 90, "duration": 95}, {"note": 0, "velocity": 0, "duration": 145}, {"note": 74, "velocity": 104, "duration": 390}, {"note": 0, "velocity": 0, "duration": 570}, {"note": 76, "velocity": 108, "duration": 220}, {"note": 0, "velocity": 0, "duration": 140}, {"note": 74, "velocity": 86, "duration": 119}, {"note": 71, "velocity": 87, "duration": 185}, {"note": 69, "velocity": 87, "duration": 79}, {"note": 0, "velocity": 0, "duration": 161}, {"note": 67, "velocity": 104, "duration": 776}, {"note": 0, "velocity": 0, "duration": 184}, {"note": 69, "velocity": 90, "duration": 268}, {"note": 0, "velocity": 0, "duration": 92}, {"note": 69, "velocity": 86, "duration": 63}, {"note": 69, "velocity": 100, "duration": 156}, {"note": 0, "velocity": 0, "duration": 84}, {"note": 67, "velocity": 83, "duration": 227}, {"note": 69, "velocity": 87, "duration": 248}, {"note": 71, "velocity": 72, "duration": 251}, {"note": 67, "velocity": 83, "duration": 227}, {"note": 64, "velocity": 87, "duration": 279}, {"note": 62, "velocity": 83, "duration": 1319}, {"note": 0, "velocity": 0, "duration": 601}, {"note": 62, "velocity": 83, "duration": 123}, {"note": 0, "velocity": 0, "duration": 117}, {"note": 62, "velocity": 76, "duration": 102}, {"note": 0, "velocity": 0, "duration": 138}, {"note": 62, "velocity": 77, "duration": 276}, {"note": 64, "velocity": 75, "duration": 221}, {"note": 71, "velocity": 85, "duration": 159}, {"note": 0, "velocity": 0, "duration": 81}, {"note": 71, "velocity": 75, "duration": 202}, {"note": 71, "velocity": 95, "duration": 100}, {"note": 0, "velocity": 0, "duration": 140}, {"note": 69, "velocity": 93, "duration": 156}, {"note": 0, "velocity": 0, "duration": 84}, {"note": 67, "velocity": 98, "duration": 1549}, {"note": 0, "velocity": 0, "duration": 371}, {"note": 69, "velocity": 111, "duration": 354}, {"note": 69, "velocity": 64, "duration": 85}, {"note": 71, "velocity": 77, "duration": 151}, {"note": 0, "velocity": 0, "duration": 89}, {"note": 71, "velocity": 87, "duration": 189}, {"note": 69, "velocity": 87, "duration": 162}, {"note": 0, "velocity": 0, "duration": 78}, {"note": 67, "velocity": 87, "duration": 246}, {"note": 64, "velocity": 71, "duration": 203}, {"note": 67, "velocity": 93, "duration": 230}, {"note": 62, "velocity": 87, "duration": 696}, {"note": 0, "velocity": 0, "duration": 1224}, {"note": 71, "velocity": 83, "duration": 193}, {"note": 74, "velocity": 74, "duration": 99}, {"note": 0, "velocity": 0, "duration": 141}, {"note": 74, "velocity": 100, "duration": 120}, {"note": 0, "velocity": 0, "duration": 120}, {"note": 71, "velocity": 90, "duration": 95}, {"note": 0, "velocity": 0, "duration": 145}, {"note": 74, "velocity": 104, "duration": 390}, {"note": 0, "velocity": 0, "duration": 570}, {"note": 76, "velocity": 108, "duration": 220}, {"note": 0, "velocity": 0, "duration": 140}, {"note": 74, "velocity": 86, "duration": 119}, {"note": 71, "velocity": 87, "duration": 185}, {"note": 69, "velocity": 87, "duration": 79}, {"note": 0, "velocity": 0, "duration": 161}, {"note": 67, "velocity": 104, "duration": 776}, {"note": 0, "velocity": 0, "duration": 184}, {"note": 69, "velocity": 90, "duration": 268}, {"note": 0, "velocity": 0, "duration": 92}, {"note": 69, "velocity": 86, "duration": 63}, {"note": 69, "velocity": 100, "duration": 156}, {"note": 0, "velocity": 0, "duration": 84}, {"note": 67, "velocity": 83, "duration": 227}, {"note": 69, "velocity": 87, "duration": 248}, {"note": 71, "velocity": 72, "duration": 251}, {"note": 76, "velocity": 79, "duration": 221}, {"note": 71, "velocity": 75, "duration": 200}, {"note": 74, "velocity": 112, "duration": 1532}, {"note": 0, "velocity": 0, "duration": 388}, {"note": 74, "velocity": 83, "duration": 211}, {"note": 0, "velocity": 0, "duration": 149}, {"note": 74, "velocity": 93, "duration": 52}, {"note": 0, "velocity": 0, "duration": 68}, {"note": 74, "velocity": 95, "duration": 153}, {"note": 0, "velocity": 0, "duration": 87}, {"note": 71, "velocity": 86, "duration": 145}, {"note": 0, "velocity": 0, "duration": 95}, {"note": 74, "velocity": 86, "duration": 157}, {"note": 0, "velocity": 0, "duration": 83}, {"note": 76, "velocity": 79, "duration": 141}, {"note": 0, "velocity": 0, "duration": 99}, {"note": 79, "velocity": 87, "duration": 165}, {"note": 0, "velocity": 0, "duration": 75}, {"note": 78, "velocity": 67, "duration": 131}, {"note": 0, "velocity": 0, "duration": 109}, {"note": 76, "velocity": 77, "duration": 614}, {"note": 0, "velocity": 0, "duration": 1306}, {"note": 76, "velocity": 108, "duration": 174}, {"note": 0, "velocity": 0, "duration": 66}, {"note": 79, "velocity": 117, "duration": 180}, {"note": 76, "velocity": 95, "duration": 189}, {"note": 74, "velocity": 100, "duration": 150}, {"note": 0, "velocity": 0, "duration": 90}, {"note": 76, "velocity": 112, "duration": 260}, {"note": 74, "velocity": 85, "duration": 92}, {"note": 0, "velocity": 0, "duration": 148}, {"note": 74, "velocity": 93, "duration": 172}, {"note": 0, "velocity": 0, "duration": 68}, {"note": 67, "velocity": 87, "duration": 170}, {"note": 0, "velocity": 0, "duration": 70}, {"note": 69, "velocity": 85, "duration": 1525}, {"note": 0, "velocity": 0, "duration": 155}, {"note": 67, "velocity": 111, "duration": 178}, {"note": 0, "velocity": 0, "duration": 62}, {"note": 69, "velocity": 93, "duration": 160}, {"note": 0, "velocity": 0, "duration": 80}, {"note": 69, "velocity": 69, "duration": 85}, {"note": 0, "velocity": 0, "duration": 155}, {"note": 69, "velocity": 100, "duration": 114}, {"note": 0, "velocity": 0, "duration": 126}, {"note": 67, "velocity": 87, "duration": 117}, {"note": 0, "velocity": 0, "duration": 123}, {"note": 69, "velocity": 108, "duration": 326}, {"note": 0, "velocity": 0, "duration": 634}, {"note": 76, "velocity": 111, "duration": 224}, {"note": 0, "velocity": 0, "duration": 136}, {"note": 74, "velocity": 87, "duration": 122}, {"note": 71, "velocity": 104, "duration": 135}, {"note": 0, "velocity": 0, "duration": 105}, {"note": 69, "velocity": 93, "duration": 109}, {"note": 0, "velocity": 0, "duration": 131}, {"note": 67, "velocity": 111, "duration": 720}, {"note": 0, "velocity": 0, "duration": 240}, {"note": 69, "velocity": 100, "duration": 211}, {"note": 0, "velocity": 0, "duration": 149}, {"note": 69, "velocity": 100, "duration": 55}, {"note": 0, "velocity": 0, "duration": 65}, {"note": 69, "velocity": 112, "duration": 90}, {"note": 0, "velocity": 0, "duration": 150}, {"note": 67, "velocity": 90, "duration": 145}, {"note": 0, "velocity": 0, "duration": 95}, {"note": 69, "velocity": 87, "duration": 84}, {"note": 0, "velocity": 0, "duration": 156}, {"note": 71, "velocity": 90, "duration": 64}, {"note": 0, "velocity": 0, "duration": 176}, {"note": 79, "velocity": 117, "duration": 178}, {"note": 0, "velocity": 0, "duration": 62}, {"note": 71, "velocity": 95, "duration": 133}, {"note": 0, "velocity": 0, "duration": 107}, {"note": 74, "velocity": 104, "duration": 1635}, {"note": 0, "velocity": 0, "duration": 285}, {"note": 74, "velocity": 83, "duration": 211}, {"note": 0, "velocity": 0, "duration": 149}, {"note": 74, "velocity": 93, "duration": 52}, {"note": 0, "velocity": 0, "duration": 68}, {"note": 74, "velocity": 95, "duration": 153}, {"note": 0, "velocity": 0, "duration": 87}, {"note": 71, "velocity": 86, "duration": 145}, {"note": 0, "velocity": 0, "duration": 95}, {"note": 74, "velocity": 86, "duration": 157}, {"note": 0, "velocity": 0, "duration": 83}, {"note": 76, "velocity": 79, "duration": 141}, {"note": 0, "velocity": 0, "duration": 99}, {"note": 79, "velocity": 87, "duration": 165}, {"note": 0, "velocity": 0, "duration": 75}, {"note": 78, "velocity": 67, "duration": 131}, {"note": 0, "velocity": 0, "duration": 109}, {"note": 76, "velocity": 77, "duration": 960}, {"note": 0, "velocity": 0, "duration": 960}, {"note": 76, "velocity": 108, "duration": 174}, {"note": 0, "velocity": 0, "duration": 66}, {"note": 79, "velocity": 117, "duration": 180}, {"note": 76, "velocity": 95, "duration": 189}, {"note": 74, "velocity": 100, "duration": 150}, {"note": 0, "velocity": 0, "duration": 90}, {"note": 74, "velocity": 98, "duration": 235}, {"note": 64, "velocity": 90, "duration": 218}, {"note": 74, "velocity": 90, "duration": 320}, {"note": 0, "velocity": 0, "duration": 160}, {"note": 69, "velocity": 87, "duration": 1491}, {"note": 0, "velocity": 0, "duration": 189}, {"note": 67, "velocity": 111, "duration": 178}, {"note": 0, "velocity": 0, "duration": 62}, {"note": 69, "velocity": 93, "duration": 160}, {"note": 0, "velocity": 0, "duration": 80}, {"note": 69, "velocity": 69, "duration": 85}, {"note": 0, "velocity": 0, "duration": 155}, {"note": 69, "velocity": 100, "duration": 114}, {"note": 0, "velocity": 0, "duration": 126}, {"note": 67, "velocity": 87, "duration": 117}, {"note": 0, "velocity": 0, "duration": 123}, {"note": 69, "velocity": 108, "duration": 326}, {"note": 0, "velocity": 0, "duration": 154}, {"note": 69, "velocity": 98, "duration": 264}, {"note": 71, "velocity": 81, "duration": 248}, {"note": 74, "velocity": 108, "duration": 256}, {"note": 71, "velocity": 74, "duration": 129}, {"note": 0, "velocity": 0, "duration": 111}, {"note": 74, "velocity": 117, "duration": 326}, {"note": 0, "velocity": 0, "duration": 154}, {"note": 71, "velocity": 112, "duration": 723}, {"note": 0, "velocity": 0, "duration": 237}, {"note": 69, "velocity": 104, "duration": 223}, {"note": 0, "velocity": 0, "duration": 137}, {"note": 69, "velocity": 93, "duration": 53}, {"note": 0, "velocity": 0, "duration": 67}, {"note": 69, "velocity": 111, "duration": 92}, {"note": 0, "velocity": 0, "duration": 148}, {"note": 67, "velocity": 104, "duration": 118}, {"note": 0, "velocity": 0, "duration": 122}, {"note": 69, "velocity": 81, "duration": 130}, {"note": 0, "velocity": 0, "duration": 110}, {"note": 71, "velocity": 81, "duration": 101}, {"note": 0, "velocity": 0, "duration": 139}, {"note": 79, "velocity": 104, "duration": 220}, {"note": 71, "velocity": 77, "duration": 286}, {"note": 74, "velocity": 74, "duration": 1437}, {"note": 0, "velocity": 0, "duration": 243}, {"note": 62, "velocity": 79, "duration": 173}, {"note": 0, "velocity": 0, "duration": 67}, {"note": 71, "velocity": 98, "duration": 251}, {"note": 0, "velocity": 0, "duration": 109}, {"note": 69, "velocity": 104, "duration": 195}, {"note": 0, "velocity": 0, "duration": 165}, {"note": 64, "velocity": 100, "duration": 122}, {"note": 0, "velocity": 0, "duration": 118}, {"note": 67, "velocity": 112, "duration": 1856}, {"note": 0, "velocity": 0, "duration": 15424}, {"note": 62, "velocity": 83, "duration": 123}, {"note": 0, "velocity": 0, "duration": 117}, {"note": 62, "velocity": 76, "duration": 102}, {"note": 0, "velocity": 0, "duration": 138}, {"note": 62, "velocity": 77, "duration": 276}, {"note": 64, "velocity": 75, "duration": 221}, {"note": 71, "velocity": 85, "duration": 159}, {"note": 0, "velocity": 0, "duration": 81}, {"note": 71, "velocity": 75, "duration": 202}, {"note": 71, "velocity": 95, "duration": 100}, {"note": 0, "velocity": 0, "duration": 140}, {"note": 69, "velocity": 93, "duration": 156}, {"note": 0, "velocity": 0, "duration": 84}, {"note": 67, "velocity": 98, "duration": 1549}, {"note": 0, "velocity": 0, "duration": 371}, {"note": 69, "velocity": 111, "duration": 354}, {"note": 69, "velocity": 64, "duration": 85}, {"note": 71, "velocity": 77, "duration": 151}, {"note": 0, "velocity": 0, "duration": 89}, {"note": 71, "velocity": 87, "duration": 189}, {"note": 69, "velocity": 87, "duration": 162}, {"note": 0, "velocity": 0, "duration": 78}, {"note": 67, "velocity": 87, "duration": 246}, {"note": 64, "velocity": 71, "duration": 203}, {"note": 67, "velocity": 93, "duration": 230}, {"note": 62, "velocity": 87, "duration": 696}, {"note": 0, "velocity": 0, "duration": 1224}, {"note": 71, "velocity": 83, "duration": 193}, {"note": 74, "velocity": 74, "duration": 99}, {"note": 0, "velocity": 0, "duration": 141}, {"note": 74, "velocity": 100, "duration": 120}, {"note": 0, "velocity": 0, "duration": 120}, {"note": 71, "velocity": 90, "duration": 95}, {"note": 0, "velocity": 0, "duration": 145}, {"note": 74, "velocity": 104, "duration": 390}, {"note": 0, "velocity": 0, "duration": 570}, {"note": 76, "velocity": 108, "duration": 220}, {"note": 0, "velocity": 0, "duration": 140}, {"note": 74, "velocity": 86, "duration": 119}, {"note": 71, "velocity": 87, "duration": 185}, {"note": 69, "velocity": 87, "duration": 79}, {"note": 0, "velocity": 0, "duration": 161}, {"note": 67, "velocity": 104, "duration": 776}, {"note": 0, "velocity": 0, "duration": 184}, {"note": 69, "velocity": 90, "duration": 268}, {"note": 0, "velocity": 0, "duration": 92}, {"note": 69, "velocity": 86, "duration": 63}, {"note": 69, "velocity": 100, "duration": 156}, {"note": 0, "velocity": 0, "duration": 84}, {"note": 67, "velocity": 83, "duration": 227}, {"note": 69, "velocity": 87, "duration": 248}, {"note": 71, "velocity": 72, "duration": 251}, {"note": 76, "velocity": 79, "duration": 221}, {"note": 71, "velocity": 75, "duration": 200}, {"note": 74, "velocity": 112, "duration": 1532}, {"note": 0, "velocity": 0, "duration": 388}, {"note": 74, "velocity": 83, "duration": 211}, {"note": 0, "velocity": 0, "duration": 149}, {"note": 74, "velocity": 93, "duration": 52}, {"note": 0, "velocity": 0, "duration": 68}, {"note": 74, "velocity": 95, "duration": 153}, {"note": 0, "velocity": 0, "duration": 87}, {"note": 71, "velocity": 86, "duration": 145}, {"note": 0, "velocity": 0, "duration": 95}, {"note": 74, "velocity": 86, "duration": 157}, {"note": 0, "velocity": 0, "duration": 83}, {"note": 76, "velocity": 79, "duration": 141}, {"note": 0, "velocity": 0, "duration": 99}, {"note": 79, "velocity": 87, "duration": 165}, {"note": 0, "velocity": 0, "duration": 75}, {"note": 78, "velocity": 67, "duration": 131}, {"note": 0, "velocity": 0, "duration": 109}, {"note": 76, "velocity": 77, "duration": 614}, {"note": 0, "velocity": 0, "duration": 1306}, {"note": 76, "velocity": 108, "duration": 174}, {"note": 0, "velocity": 0, "duration": 66}, {"note": 79, "velocity": 117, "duration": 180}, {"note": 76, "velocity": 95, "duration": 189}, {"note": 74, "velocity": 100, "duration": 150}, {"note": 0, "velocity": 0, "duration": 90}, {"note": 76, "velocity": 112, "duration": 260}, {"note": 74, "velocity": 85, "duration": 92}, {"note": 0, "velocity": 0, "duration": 148}, {"note": 74, "velocity": 93, "duration": 172}, {"note": 0, "velocity": 0, "duration": 68}, {"note": 67, "velocity": 87, "duration": 170}, {"note": 0, "velocity": 0, "duration": 70}, {"note": 69, "velocity": 85, "duration": 1525}, {"note": 0, "velocity": 0, "duration": 155}, {"note": 67, "velocity": 111, "duration": 178}, {"note": 0, "velocity": 0, "duration": 62}, {"note": 69, "velocity": 93, "duration": 160}, {"note": 0, "velocity": 0, "duration": 80}, {"note": 69, "velocity": 69, "duration": 85}, {"note": 0, "velocity": 0, "duration": 155}, {"note": 69, "velocity": 100, "duration": 114}, {"note": 0, "velocity": 0, "duration": 126}, {"note": 67, "velocity": 87, "duration": 117}, {"note": 0, "velocity": 0, "duration": 123}, {"note": 69, "velocity": 108, "duration": 326}, {"note": 0, "velocity": 0, "duration": 634}, {"note": 76, "velocity": 111, "duration": 224}, {"note": 0, "velocity": 0, "duration": 136}, {"note": 74, "velocity": 87, "duration": 122}, {"note": 71, "velocity": 104, "duration": 135}, {"note": 0, "velocity": 0, "duration": 105}, {"note": 69, "velocity": 93, "duration": 109}, {"note": 0, "velocity": 0, "duration": 131}, {"note": 67, "velocity": 111, "duration": 720}, {"note": 0, "velocity": 0, "duration": 240}, {"note": 69, "velocity": 100, "duration": 211}, {"note": 0, "velocity": 0, "duration": 149}, {"note": 69, "velocity": 100, "duration": 55}, {"note": 0, "velocity": 0, "duration": 65}, {"note": 69, "velocity": 112, "duration": 90}, {"note": 0, "velocity": 0, "duration": 150}, {"note": 67, "velocity": 90, "duration": 145}, {"note": 0, "velocity": 0, "duration": 95}, {"note": 69, "velocity": 87, "duration": 84}, {"note": 0, "velocity": 0, "duration": 156}, {"note": 71, "velocity": 90, "duration": 64}, {"note": 0, "velocity": 0, "duration": 176}, {"note": 79, "velocity": 117, "duration": 178}, {"note": 0, "velocity": 0, "duration": 62}, {"note": 71, "velocity": 95, "duration": 133}, {"note": 0, "velocity": 0, "duration": 107}, {"note": 74, "velocity": 104, "duration": 1635}, {"note": 0, "velocity": 0, "duration": 285}, {"note": 74, "velocity": 83, "duration": 211}, {"note": 0, "velocity": 0, "duration": 149}, {"note": 74, "velocity": 93, "duration": 52}, {"note": 0, "velocity": 0, "duration": 68}, {"note": 74, "velocity": 95, "duration": 153}, {"note": 0, "velocity": 0, "duration": 87}, {"note": 71, "velocity": 86, "duration": 145}, {"note": 0, "velocity": 0, "duration": 95}, {"note": 74, "velocity": 86, "duration": 157}, {"note": 0, "velocity": 0, "duration": 83}, {"note": 76, "velocity": 79, "duration": 141}, {"note": 0, "velocity": 0, "duration": 99}, {"note": 79, "velocity": 87, "duration": 165}, {"note": 0, "velocity": 0, "duration": 75}, {"note": 78, "velocity": 67, "duration": 131}, {"note": 0, "velocity": 0, "duration": 109}, {"note": 76, "velocity": 77, "duration": 960}, {"note": 0, "velocity": 0, "duration": 960}, {"note": 76, "velocity": 108, "duration": 174}, {"note": 0, "velocity": 0, "duration": 66}, {"note": 79, "velocity": 117, "duration": 180}, {"note": 76, "velocity": 95, "duration": 189}, {"note": 74, "velocity": 100, "duration": 150}, {"note": 0, "velocity": 0, "duration": 90}, {"note": 74, "velocity": 98, "duration": 235}, {"note": 64, "velocity": 90, "duration": 218}, {"note": 74, "velocity": 90, "duration": 320}, {"note": 0, "velocity": 0, "duration": 160}, {"note": 69, "velocity": 87, "duration": 1491}, {"note": 0, "velocity": 0, "duration": 189}, {"note": 67, "velocity": 111, "duration": 178}, {"note": 0, "velocity": 0, "duration": 62}, {"note": 69, "velocity": 93, "duration": 160}, {"note": 0, "velocity": 0, "duration": 80}, {"note": 69, "velocity": 69, "duration": 85}, {"note": 0, "velocity": 0, "duration": 155}, {"note": 69, "velocity": 100, "duration": 114}, {"note": 0, "velocity": 0, "duration": 126}, {"note": 67, "velocity": 87, "duration": 117}, {"note": 0, "velocity": 0, "duration": 123}, {"note": 69, "velocity": 108, "duration": 326}, {"note": 0, "velocity": 0, "duration": 154}, {"note": 69, "velocity": 98, "duration": 264}, {"note": 71, "velocity": 81, "duration": 248}, {"note": 74, "velocity": 108, "duration": 256}, {"note": 71, "velocity": 74, "duration": 129}, {"note": 0, "velocity": 0, "duration": 111}, {"note": 74, "velocity": 117, "duration": 326}, {"note": 0, "velocity": 0, "duration": 154}, {"note": 71, "velocity": 112, "duration": 723}, {"note": 0, "velocity": 0, "duration": 237}, {"note": 69, "velocity": 104, "duration": 223}, {"note": 0, "velocity": 0, "duration": 137}, {"note": 69, "velocity": 93, "duration": 53}, {"note": 0, "velocity": 0, "duration": 67}, {"note": 69, "velocity": 111, "duration": 92}, {"note": 0, "velocity": 0, "duration": 148}, {"note": 67, "velocity": 104, "duration": 118}, {"note": 0, "velocity": 0, "duration": 122}, {"note": 69, "velocity": 81, "duration": 130}, {"note": 0, "velocity": 0, "duration": 110}, {"note": 71, "velocity": 81, "duration": 101}, {"note": 0, "velocity": 0, "duration": 139}, {"note": 79, "velocity": 104, "duration": 220}, {"note": 71, "velocity": 77, "duration": 286}, {"note": 74, "velocity": 74, "duration": 1437}, {"note": 0, "velocity": 0, "duration": 243}, {"note": 62, "velocity": 79, "duration": 173}, {"note": 0, "velocity": 0, "duration": 67}, {"note": 71, "velocity": 98, "duration": 251}, {"note": 0, "velocity": 0, "duration": 109}, {"note": 69, "velocity": 104, "duration": 195}, {"note": 0, "velocity": 0, "duration": 165}, {"note": 64, "velocity": 100, "duration": 122}, {"note": 0, "velocity": 0, "duration": 118}, {"note": 67, "velocity": 112, "duration": 960}, {"note": 74, "velocity": 83, "duration": 211}, {"note": 0, "velocity": 0, "duration": 149}, {"note": 74, "velocity": 93, "duration": 52}, {"note": 0, "velocity": 0, "duration": 68}, {"note": 74, "velocity": 95, "duration": 153}, {"note": 0, "velocity": 0, "duration": 87}, {"note": 71, "velocity": 86, "duration": 145}, {"note": 0, "velocity": 0, "duration": 95}, {"note": 74, "velocity": 86, "duration": 157}, {"note": 0, "velocity": 0, "duration": 83}, {"note": 76, "velocity": 79, "duration": 141}, {"note": 0, "velocity": 0, "duration": 99}, {"note": 79, "velocity": 87, "duration": 165}, {"note": 0, "velocity": 0, "duration": 75}, {"note": 78, "velocity": 67, "duration": 131}, {"note": 0, "velocity": 0, "duration": 109}, {"note": 76, "velocity": 77, "duration": 614}, {"note": 0, "velocity": 0, "duration": 1306}, {"note": 76, "velocity": 108, "duration": 174}, {"note": 0, "velocity": 0, "duration": 66}, {"note": 79, "velocity": 117, "duration": 180}, {"note": 76, "velocity": 95, "duration": 189}, {"note": 74, "velocity": 100, "duration": 150}, {"note": 0, "velocity": 0, "duration": 90}, {"note": 76, "velocity": 112, "duration": 260}, {"note": 74, "velocity": 85, "duration": 92}, {"note": 0, "velocity": 0, "duration": 148}, {"note": 74, "velocity": 93, "duration": 172}, {"note": 0, "velocity": 0, "duration": 68}, {"note": 67, "velocity": 87, "duration": 170}, {"note": 0, "velocity": 0, "duration": 70}, {"note": 69, "velocity": 85, "duration": 1525}, {"note": 0, "velocity": 0, "duration": 155}, {"note": 67, "velocity": 111, "duration": 178}, {"note": 0, "velocity": 0, "duration": 62}, {"note": 69, "velocity": 93, "duration": 160}, {"note": 0, "velocity": 0, "duration": 80}, {"note": 69, "velocity": 69, "duration": 85}, {"note": 0, "velocity": 0, "duration": 155}, {"note": 69, "velocity": 100, "duration": 114}, {"note": 0, "velocity": 0, "duration": 126}, {"note": 67, "velocity": 87, "duration": 117}, {"note": 0, "velocity": 0, "duration": 123}, {"note": 69, "velocity": 108, "duration": 326}, {"note": 0, "velocity": 0, "duration": 634}, {"note": 76, "velocity": 111, "duration": 224}, {"note": 0, "velocity": 0, "duration": 136}, {"note": 74, "velocity": 87, "duration": 122}, {"note": 71, "velocity": 104, "duration": 135}, {"note": 0, "velocity": 0, "duration": 105}, {"note": 69, "velocity": 93, "duration": 109}, {"note": 0, "velocity": 0, "duration": 131}, {"note": 67, "velocity": 111, "duration": 720}, {"note": 0, "velocity": 0, "duration": 240}, {"note": 69, "velocity": 100, "duration": 211}, {"note": 0, "velocity": 0, "duration": 149}, {"note": 69, "velocity": 100, "duration": 55}, {"note": 0, "velocity": 0, "duration": 65}, {"note": 69, "velocity": 112, "duration": 90}, {"note": 0, "velocity": 0, "duration": 150}, {"note": 67, "velocity": 90, "duration": 145}, {"note": 0, "velocity": 0, "duration": 95}, {"note": 69, "velocity": 87, "duration": 84}, {"note": 0, "velocity": 0, "duration": 156}, {"note": 71, "velocity": 90, "duration": 64}, {"note": 0, "velocity": 0, "duration": 176}, {"note": 79, "velocity": 117, "duration": 178}, {"note": 0, "velocity": 0, "duration": 62}, {"note": 71, "velocity": 95, "duration": 133}, {"note": 0, "velocity": 0, "duration": 107}, {"note": 74, "velocity": 104, "duration": 1635}, {"note": 0, "velocity": 0, "duration": 285}, {"note": 74, "velocity": 83, "duration": 211}, {"note": 0, "velocity": 0, "duration": 149}, {"note": 74, "velocity": 93, "duration": 52}, {"note": 0, "velocity": 0, "duration": 68}, {"note": 74, "velocity": 95, "duration": 153}, {"note": 0, "velocity": 0, "duration": 87}, {"note": 71, "velocity": 86, "duration": 145}, {"note": 0, "velocity": 0, "duration": 95}, {"note": 74, "velocity": 86, "duration": 157}, {"note": 0, "velocity": 0, "duration": 83}, {"note": 76, "velocity": 79, "duration": 141}, {"note": 0, "velocity": 0, "duration": 99}, {"note": 79, "velocity": 87, "duration": 165}, {"note": 0, "velocity": 0, "duration": 75}, {"note": 78, "velocity": 67, "duration": 131}, {"note": 0, "velocity": 0, "duration": 109}, {"note": 76, "velocity": 77, "duration": 960}, {"note": 0, "velocity": 0, "duration": 960}, {"note": 76, "velocity": 108, "duration": 174}, {"note": 0, "velocity": 0, "duration": 66}, {"note": 79, "velocity": 117, "duration": 180}, {"note": 76, "velocity": 95, "duration": 189}, {"note": 74, "velocity": 100, "duration": 150}, {"note": 0, "velocity": 0, "duration": 90}, {"note": 74, "velocity": 98, "duration": 235}, {"note": 64, "velocity": 90, "duration": 218}, {"note": 74, "velocity": 90, "duration": 320}, {"note": 0, "velocity": 0, "duration": 160}, {"note": 69, "velocity": 87, "duration": 1491}, {"note": 0, "velocity": 0, "duration": 189}, {"note": 67, "velocity": 111, "duration": 178}, {"note": 0, "velocity": 0, "duration": 62}, {"note": 69, "velocity": 93, "duration": 160}, {"note": 0, "velocity": 0, "duration": 80}, {"note": 69, "velocity": 69, "duration": 85}, {"note": 0, "velocity": 0, "duration": 155}, {"note": 69, "velocity": 100, "duration": 114}, {"note": 0, "velocity": 0, "duration": 126}, {"note": 67, "velocity": 87, "duration": 117}, {"note": 0, "velocity": 0, "duration": 123}, {"note": 69, "velocity": 108, "duration": 326}, {"note": 0, "velocity": 0, "duration": 154}, {"note": 69, "velocity": 98, "duration": 264}, {"note": 71, "velocity": 81, "duration": 248}, {"note": 74, "velocity": 108, "duration": 256}, {"note": 71, "velocity": 74, "duration": 129}, {"note": 0, "velocity": 0, "duration": 111}, {"note": 74, "velocity": 117, "duration": 326}, {"note": 0, "velocity": 0, "duration": 154}, {"note": 71, "velocity": 112, "duration": 723}, {"note": 0, "velocity": 0, "duration": 237}, {"note": 69, "velocity": 104, "duration": 223}, {"note": 0, "velocity": 0, "duration": 137}, {"note": 69, "velocity": 93, "duration": 53}, {"note": 0, "velocity": 0, "duration": 67}, {"note": 69, "velocity": 111, "duration": 92}, {"note": 0, "velocity": 0, "duration": 148}, {"note": 67, "velocity": 104, "duration": 118}, {"note": 0, "velocity": 0, "duration": 122}, {"note": 69, "velocity": 81, "duration": 130}, {"note": 0, "velocity": 0, "duration": 110}, {"note": 71, "velocity": 81, "duration": 101}, {"note": 0, "velocity": 0, "duration": 139}, {"note": 79, "velocity": 104, "duration": 220}, {"note": 71, "velocity": 77, "duration": 286}, {"note": 74, "velocity": 74, "duration": 1437}, {"note": 0, "velocity": 0, "duration": 243}, {"note": 62, "velocity": 79, "duration": 173}, {"note": 0, "velocity": 0, "duration": 67}, {"note": 71, "velocity": 98, "duration": 251}, {"note": 0, "velocity": 0, "duration": 109}, {"note": 69, "velocity": 104, "duration": 195}, {"note": 0, "velocity": 0, "duration": 165}, {"note": 64, "velocity": 100, "duration": 122}, {"note": 0, "velocity": 0, "duration": 118}, {"note": 67, "velocity": 112, "duration": 960}]]