[[{"note": 72, "velocity": 98, "duration": 250}, {"note": 0, "velocity": 0, "duration": 110}, {"note": 69, "velocity": 74, "duration": 139}, {"note": 72, "velocity": 81, "duration": 230}, {"note": 69, "velocity": 65, "duration": 264}, {"note": 72, "velocity": 79, "duration": 322}, {"note": 0, "velocity": 0, "duration": 158}, {"note": 72, "velocity": 75, "duration": 189}, {"note": 79, "velocity": 95, "duration": 190}, {"note": 77, "velocity": 67, "duration": 322}, {"note": 69, "velocity": 59, "duration": 66}, {"note": 69, "velocity": 63, "duration": 226}, {"note": 74, "velocity": 66, "duration": 185}, {"note": 72, "velocity": 61, "duration": 711}, {"note": 0, "velocity": 0, "duration": 249}, {"note": 74, "velocity": 81, "duration": 267}, {"note": 0, "velocity": 0, "duration": 93}, {"note": 72, "velocity": 66, "duration": 63}, {"note": 74, "velocity": 93, "duration": 126}, {"note": 0, "velocity": 0, "duration": 114}, {"note": 74, "velocity": 83, "duration": 115}, {"note": 0, "velocity": 0, "duration": 125}, {"note": 72, "velocity": 77, "duration": 182}, {"note": 0, "velocity": 0, "duration": 298}, {"note": 65, "velocity": 85, "duration": 276}, {"note": 69, "velocity": 70, "duration": 210}, {"note": 67, "velocity": 73, "duration": 254}, {"note": 0, "velocity": 0, "duration": 106}, {"note": 65, "velocity": 71, "duration": 176}, {"note": 62, "velocity": 61, "duration": 249}, {"note": 69, "velocity": 69, "duration": 247}, {"note": 67, "velocity": 63, "duration": 787}, {"note": 0, "velocity": 0, "duration": 173}, {"note": 72, "velocity": 81, "duration": 203}, {"note": 0, "velocity": 0, "duration": 157}, {"note": 69, "velocity": 65, "duration": 81}, {"note": 72, "velocity": 59, "duration": 273}, {"note": 69, "velocity": 61, "duration": 232}, {"note": 72, "velocity": 79, "duration": 271}, {"note": 0, "velocity": 0, "duration": 209}, {"note": 72, "velocity": 72, "duration": 189}, {"note": 79, "velocity": 67, "duration": 184}, {"note": 0, "velocity": 0, "duration": 72}, {"note": 77, "velocity": 86, "duration": 238}, {"note": 0, "velocity": 0, "duration": 122}, {"note": 79, "velocity": 81, "duration": 85}, {"note": 81, "velocity": 67, "duration": 245}, {"note": 69, "velocity": 60, "duration": 271}, {"note": 72, "velocity": 63, "duration": 437}, {"note": 72, "velocity": 74, "duration": 292}, {"note": 74, "velocity": 68, "duration": 198}, {"note": 77, "velocity": 79, "duration": 317}, {"note": 74, "velocity": 73, "duration": 135}, {"note": 72, "velocity": 73, "duration": 183}, {"note": 74, "velocity": 63, "duration": 128}, {"note": 0, "velocity": 0, "duration": 112}, {"note": 77, "velocity": 87, "duration": 525}, {"note": 72, "velocity": 87, "duration": 299}, {"note": 74, "velocity": 69, "duration": 187}, {"note": 81, "velocity": 83, "duration": 273}, {"note": 0, "velocity": 0, "duration": 87}, {"note": 79, "velocity": 85, "duration": 71}, {"note": 77, "velocity": 68, "duration": 214}, {"note": 74, "velocity": 68, "duration": 123}, {"note": 0, "velocity": 0, "duration": 117}, {"note": 77, "velocity": 71, "duration": 796}, {"note": 0, "velocity": 0, "duration": 164}, {"note": 72, "velocity": 98, "duration": 250}, {"note": 0, "velocity": 0, "duration": 110}, {"note": 69, "velocity": 74, "duration": 139}, {"note": 72, "velocity": 81, "duration": 230}, {"note": 69, "velocity": 65, "duration": 264}, {"note": 72, "velocity": 79, "duration": 322}, {"note": 0, "velocity": 0, "duration": 158}, {"note": 72, "velocity": 75, "duration": 189}, {"note": 79, "velocity": 95, "duration": 190}, {"note": 77, "velocity": 67, "duration": 322}, {"note": 69, "velocity": 59, "duration": 66}, {"note": 69, "velocity": 63, "duration": 226}, {"note": 74, "velocity": 66, "duration": 185}, {"note": 72, "velocity": 61, "duration": 711}, {"note": 0, "velocity": 0, "duration": 249}, {"note": 74, "velocity": 81, "duration": 267}, {"note": 0, "velocity": 0, "duration": 93}, {"note": 72, "velocity": 66, "duration": 63}, {"note": 74, "velocity": 93, "duration": 126}, {"note": 0, "velocity": 0, "duration": 114}, {"note": 74, "velocity": 83, "duration": 115}, {"note": 0, "velocity": 0, "duration": 125}, {"note": 72, "velocity": 77, "duration": 182}, {"note": 0, "velocity": 0, "duration": 298}, {"note": 65, "velocity": 85, "duration": 276}, {"note": 69, "velocity": 70, "duration": 210}, {"note": 67, "velocity": 73, "duration": 254}, {"note": 0, "velocity": 0, "duration": 106}, {"note": 65, "velocity": 71, "duration": 176}, {"note": 62, "velocity": 61, "duration": 249}, {"note": 69, "velocity": 69, "duration": 247}, {"note": 67, "velocity": 63, "duration": 787}, {"note": 0, "velocity": 0, "duration": 173}, {"note": 72, "velocity": 81, "duration": 203}, {"note": 0, "velocity": 0, "duration": 157}, {"note": 69, "velocity": 65, "duration": 81}, {"note": 72, "velocity": 59, "duration": 273}, {"note": 69, "velocity": 61, "duration": 232}, {"note": 72, "velocity": 79, "duration": 271}, {"note": 0, "velocity": 0, "duration": 209}, {"note": 72, "velocity": 72, "duration": 189}, {"note": 79, "velocity": 67, "duration": 184}, {"note": 0, "velocity": 0, "duration": 72}, {"note": 77, "velocity": 86, "duration": 238}, {"note": 0, "velocity": 0, "duration": 122}, {"note": 79, "velocity": 81, "duration": 85}, {"note": 81, "velocity": 67, "duration": 245}, {"note": 77, "velocity": 90, "duration": 154}, {"note": 0, "velocity": 0, "duration": 86}, {"note": 76, "velocity": 81, "duration": 369}, {"note": 0, "velocity": 0, "duration": 111}, {"note": 77, "velocity": 77, "duration": 220}, {"note": 0, "velocity": 0, "duration": 140}, {"note": 76, "velocity": 70, "duration": 98}, {"note": 74, "velocity": 81, "duration": 243}, {"note": 0, "velocity": 0, "duration": 117}, {"note": 72, "velocity": 62, "duration": 154}, {"note": 77, "velocity": 74, "duration": 217}, {"note": 74, "velocity": 68, "duration": 237}, {"note": 72, "velocity": 74, "duration": 280}, {"note": 0, "velocity": 0, "duration": 200}, {"note": 77, "velocity": 74, "duration": 228}, {"note": 76, "velocity": 79, "duration": 189}, {"note": 74, "velocity": 74, "duration": 187}, {"note": 0, "velocity": 0, "duration": 173}, {"note": 72, "velocity": 70, "duration": 161}, {"note": 74, "velocity": 79, "duration": 171}, {"note": 0, "velocity": 0, "duration": 69}, {"note": 77, "velocity": 86, "duration": 159}, {"note": 0, "velocity": 0, "duration": 81}, {"note": 79, "velocity": 117, "duration": 371}, {"note": 0, "velocity": 0, "duration": 109}, {"note": 81, "velocity": 98, "duration": 142}, {"note": 79, "velocity": 81, "duration": 172}, {"note": 77, "velocity": 76, "duration": 145}, {"note": 79, "velocity": 95, "duration": 67}, {"note": 81, "velocity": 85, "duration": 243}, {"note": 0, "velocity": 0, "duration": 117}, {"note": 79, "velocity": 85, "duration": 96}, {"note": 77, "velocity": 69, "duration": 131}, {"note": 0, "velocity": 0, "duration": 109}, {"note": 84, "velocity": 108, "duration": 122}, {"note": 0, "velocity": 0, "duration": 118}, {"note": 79, "velocity": 98, "duration": 302}, {"note": 0, "velocity": 0, "duration": 178}, {"note": 81, "velocity": 95, "duration": 126}, {"note": 79, "velocity": 79, "duration": 154}, {"note": 77, "velocity": 61, "duration": 76}, {"note": 79, "velocity": 77, "duration": 110}, {"note": 77, "velocity": 77, "duration": 270}, {"note": 0, "velocity": 0, "duration": 90}, {"note": 76, "velocity": 76, "duration": 129}, {"note": 74, "velocity": 85, "duration": 161}, {"note": 0, "velocity": 0, "duration": 79}, {"note": 81, "velocity": 100, "duration": 134}, {"note": 0, "velocity": 0, "duration": 106}, {"note": 76, "velocity": 93, "duration": 327}, {"note": 0, "velocity": 0, "duration": 153}, {"note": 77, "velocity": 87, "duration": 225}, {"note": 0, "velocity": 0, "duration": 135}, {"note": 76, "velocity": 93, "duration": 139}, {"note": 74, "velocity": 87, "duration": 265}, {"note": 0, "velocity": 0, "duration": 95}, {"note": 72, "velocity": 85, "duration": 91}, {"note": 86, "velocity": 76, "duration": 64}, {"note": 0, "velocity": 0, "duration": 176}, {"note": 86, "velocity": 93, "duration": 101}, {"note": 0, "velocity": 0, "duration": 139}, {"note": 84, "velocity": 95, "duration": 411}, {"note": 0, "velocity": 0, "duration": 69}, {"note": 81, "velocity": 79, "duration": 254}, {"note": 84, "velocity": 74, "duration": 260}, {"note": 82, "velocity": 95, "duration": 240}, {"note": 0, "velocity": 0, "duration": 120}, {"note": 79, "velocity": 81, "duration": 111}, {"note": 77, "velocity": 90, "duration": 106}, {"note": 0, "velocity": 0, "duration": 134}, {"note": 74, "velocity": 66, "duration": 156}, {"note": 0, "velocity": 0, "duration": 84}, {"note": 79, "velocity": 95, "duration": 238}, {"note": 0, "velocity": 0, "duration": 242}, {"note": 81, "velocity": 98, "duration": 142}, {"note": 79, "velocity": 81, "duration": 172}, {"note": 77, "velocity": 76, "duration": 145}, {"note": 79, "velocity": 95, "duration": 67}, {"note": 81, "velocity": 85, "duration": 243}, {"note": 0, "velocity": 0, "duration": 117}, {"note": 79, "velocity": 85, "duration": 96}, {"note": 77, "velocity": 69, "duration": 131}, {"note": 0, "velocity": 0, "duration": 109}, {"note": 84, "velocity": 108, "duration": 122}, {"note": 0, "velocity": 0, "duration": 118}, {"note": 79, "velocity": 98, "duration": 302}, {"note": 0, "velocity": 0, "duration": 178}, {"note": 81, "velocity": 95, "duration": 126}, {"note": 79, "velocity": 79, "duration": 154}, {"note": 77, "velocity": 61, "duration": 76}, {"note": 79, "velocity": 77, "duration": 110}, {"note": 77, "velocity": 77, "duration": 270}, {"note": 0, "velocity": 0, "duration": 90}, {"note": 76, "velocity": 76, "duration": 129}, {"note": 74, "velocity": 85, "duration": 161}, {"note": 0, "velocity": 0, "duration": 79}, {"note": 77, "velocity": 93, "duration": 223}, {"note": 84, "velocity": 79, "duration": 180}, {"note": 81, "velocity": 93, "duration": 226}, {"note": 81, "velocity": 98, "duration": 264}, {"note": 0, "velocity": 0, "duration": 96}, {"note": 79, "velocity": 87, "duration": 72}, {"note": 77, "velocity": 95, "duration": 98}, {"note": 0, "velocity": 0, "duration": 142}, {"note": 74, "velocity": 83, "duration": 183}, {"note": 81, "velocity": 86, "duration": 271}, {"note": 0, "velocity": 0, "duration": 89}, {"note": 79, "velocity": 79, "duration": 74}, {"note": 77, "velocity": 90, "duration": 154}, {"note": 0, "velocity": 0, "duration": 86}, {"note": 72, "velocity": 86, "duration": 300}, {"note": 0, "velocity": 0, "duration": 180}, {"note": 74, "velocity": 72, "duration": 152}, {"note": 76, "velocity": 71, "duration": 69}, {"note": 77, "velocity": 108, "duration": 137}, {"note": 0, "velocity": 0, "duration": 103}, {"note": 74, "velocity": 76, "duration": 266}, {"note": 77, "velocity": 79, "duration": 191}, {"note": 81, "velocity": 93, "duration": 124}, {"note": 0, "velocity": 0, "duration": 116}, {"note": 84, "velocity": 100, "duration": 243}, {"note": 0, "velocity": 0, "duration": 117}, {"note": 81, "velocity": 67, "duration": 100}, {"note": 77, "velocity": 77, "duration": 188}, {"note": 74, "velocity": 66, "duration": 170}, {"note": 0, "velocity": 0, "duration": 70}, {"note": 77, "velocity": 95, "duration": 1876}, {"note": 0, "velocity": 0, "duration": 5804}, {"note": 72, "velocity": 98, "duration": 250}, {"note": 0, "velocity": 0, "duration": 110}, {"note": 69, "velocity": 74, "duration": 139}, {"note": 72, "velocity": 81, "duration": 230}, {"note": 69, "velocity": 65, "duration": 264}, {"note": 72, "velocity": 79, "duration": 322}, {"note": 0, "velocity": 0, "duration": 158}, {"note": 72, "velocity": 75, "duration": 189}, {"note": 79, "velocity": 95, "duration": 190}, {"note": 77, "velocity": 67, "duration": 322}, {"note": 69, "velocity": 59, "duration": 66}, {"note": 69, "velocity": 63, "duration": 226}, {"note": 74, "velocity": 66, "duration": 185}, {"note": 72, "velocity": 61, "duration": 711}, {"note": 0, "velocity": 0, "duration": 249}, {"note": 74, "velocity": 81, "duration": 267}, {"note": 0, "velocity": 0, "duration": 93}, {"note": 72, "velocity": 66, "duration": 63}, {"note": 74, "velocity": 93, "duration": 126}, {"note": 0, "velocity": 0, "duration": 114}, {"note": 74, "velocity": 83, "duration": 115}, {"note": 0, "velocity": 0, "duration": 125}, {"note": 72, "velocity": 77, "duration": 182}, {"note": 0, "velocity": 0, "duration": 298}, {"note": 65, "velocity": 85, "duration": 276}, {"note": 69, "velocity": 70, "duration": 210}, {"note": 67, "velocity": 73, "duration": 254}, {"note": 0, "velocity": 0, "duration": 106}, {"note": 65, "velocity": 71, "duration": 176}, {"note": 62, "velocity": 61, "duration": 249}, {"note": 69, "velocity": 69, "duration": 247}, {"note": 67, "velocity": 63, "duration": 787}, {"note": 0, "velocity": 0, "duration": 173}, {"note": 72, "velocity": 81, "duration": 203}, {"note": 0, "velocity": 0, "duration": 157}, {"note": 69, "velocity": 65, "duration": 81}, {"note": 72, "velocity": 59, "duration": 273}, {"note": 69, "velocity": 61, "duration": 232}, {"note": 72, "velocity": 79, "duration": 271}, {"note": 0, "velocity": 0, "duration": 209}, {"note": 72, "velocity": 72, "duration": 189}, {"note": 79, "velocity": 67, "duration": 184}, {"note": 0, "velocity": 0, "duration": 72}, {"note": 77, "velocity": 86, "duration": 238}, {"note": 0, "velocity": 0, "duration": 122}, {"note": 79, "velocity": 81, "duration": 85}, {"note": 81, "velocity": 67, "duration": 245}, {"note": 77, "velocity": 90, "duration": 154}, {"note": 0, "velocity": 0, "duration": 86}, {"note": 76, "velocity": 81, "duration": 369}, {"note": 0, "velocity": 0, "duration": 111}, {"note": 77, "velocity": 77, "duration": 220}, {"note": 0, "velocity": 0, "duration": 140}, {"note": 76, "velocity": 70, "duration": 98}, {"note": 74, "velocity": 81, "duration": 243}, {"note": 0, "velocity": 0, "duration": 117}, {"note": 72, "velocity": 62, "duration": 154}, {"note": 77, "velocity": 74, "duration": 217}, {"note": 74, "velocity": 68, "duration": 237}, {"note": 72, "velocity": 74, "duration": 280}, {"note": 0, "velocity": 0, "duration": 200}, {"note": 77, "velocity": 74, "duration": 228}, {"note": 76, "velocity": 79, "duration": 189}, {"note": 74, "velocity": 74, "duration": 187}, {"note": 0, "velocity": 0, "duration": 173}, {"note": 72, "velocity": 70, "duration": 161}, {"note": 74, "velocity": 79, "duration": 171}, {"note": 0, "velocity": 0, "duration": 69}, {"note": 77, "velocity": 86, "duration": 159}, {"note": 0, "velocity": 0, "duration": 81}, {"note": 79, "velocity": 117, "duration": 371}, {"note": 0, "velocity": 0, "duration": 109}, {"note": 81, "velocity": 98, "duration": 142}, {"note": 79, "velocity": 81, "duration": 172}, {"note": 77, "velocity": 76, "duration": 145}, {"note": 79, "velocity": 95, "duration": 67}, {"note": 81, "velocity": 85, "duration": 243}, {"note": 0, "velocity": 0, "duration": 117}, {"note": 79, "velocity": 85, "duration": 96}, {"note": 77, "velocity": 69, "duration": 131}, {"note": 0, "velocity": 0, "duration": 109}, {"note": 84, "velocity": 108, "duration": 122}, {"note": 0, "velocity": 0, "duration": 118}, {"note": 79, "velocity": 98, "duration": 302}, {"note": 0, "velocity": 0, "duration": 178}, {"note": 81, "velocity": 95, "duration": 126}, {"note": 79, "velocity": 79, "duration": 154}, {"note": 77, "velocity": 61, "duration": 76}, {"note": 79, "velocity": 77, "duration": 110}, {"note": 77, "velocity": 77, "duration": 270}, {"note": 0, "velocity": 0, "duration": 90}, {"note": 76, "velocity": 76, "duration": 129}, {"note": 74, "velocity": 85, "duration": 161}, {"note": 0, "velocity": 0, "duration": 79}, {"note": 81, "velocity": 100, "duration": 134}, {"note": 0, "velocity": 0, "duration": 106}, {"note": 76, "velocity": 93, "duration": 327}, {"note": 0, "velocity": 0, "duration": 153}, {"note": 77, "velocity": 87, "duration": 225}, {"note": 0, "velocity": 0, "duration": 135}, {"note": 76, "velocity": 93, "duration": 139}, {"note": 74, "velocity": 87, "duration": 265}, {"note": 0, "velocity": 0, "duration": 95}, {"note": 72, "velocity": 85, "duration": 91}, {"note": 86, "velocity": 76, "duration": 64}, {"note": 0, "velocity": 0, "duration": 176}, {"note": 86, "velocity": 93, "duration": 101}, {"note": 0, "velocity": 0, "duration": 139}, {"note": 84, "velocity": 95, "duration": 411}, {"note": 0, "velocity": 0, "duration": 69}, {"note": 81, "velocity": 79, "duration": 254}, {"note": 84, "velocity": 74, "duration": 260}, {"note": 82, "velocity": 95, "duration": 240}, {"note": 0, "velocity": 0, "duration": 120}, {"note": 79, "velocity": 81, "duration": 111}, {"note": 77, "velocity": 90, "duration": 106}, {"note": 0, "velocity": 0, "duration": 134}, {"note": 74, "velocity": 66, "duration": 156}, {"note": 0, "velocity": 0, "duration": 84}, {"note": 79, "velocity": 95, "duration": 238}, {"note": 0, "velocity": 0, "duration": 242}, {"note": 81, "velocity": 98, "duration": 142}, {"note": 79, "velocity": 81, "duration": 172}, {"note": 77, "velocity": 76, "duration": 145}, {"note": 79, "velocity": 95, "duration": 67}, {"note": 81, "velocity": 85, "duration": 243}, {"note": 0, "velocity": 0, "duration": 117}, {"note": 79, "velocity": 85, "duration": 96}, {"note": 77, "velocity": 69, "duration": 131}, {"note": 0, "velocity": 0, "duration": 109}, {"note": 84, "velocity": 108, "duration": 122}, {"note": 0, "velocity": 0, "duration": 118}, {"note": 79, "velocity": 98, "duration": 302}, {"note": 0, "velocity": 0, "duration": 178}, {"note": 81, "velocity": 95, "duration": 126}, {"note": 79, "velocity": 79, "duration": 154}, {"note": 77, "velocity": 61, "duration": 76}, {"note": 79, "velocity": 77, "duration": 110}, {"note": 77, "velocity": 77, "duration": 270}, {"note": 0, "velocity": 0, "duration": 90}, {"note": 76, "velocity": 76, "duration": 129}, {"note": 74, "velocity": 85, "duration": 161}, {"note": 0, "velocity": 0, "duration": 79}, {"note": 77, "velocity": 93, "duration": 223}, {"note": 84, "velocity": 79, "duration": 180}, {"note": 81, "velocity": 93, "duration": 226}, {"note": 81, "velocity": 98, "duration": 264}, {"note": 0, "velocity": 0, "duration": 96}, {"note": 79, "velocity": 87, "duration": 72}, {"note": 77, "velocity": 95, "duration": 98}, {"note": 0, "velocity": 0, "duration": 142}, {"note": 74, "velocity": 83, "duration": 183}, {"note": 81, "velocity": 86, "duration": 271}, {"note": 0, "velocity": 0, "duration": 89}, {"note": 79, "velocity": 79, "duration": 74}, {"note": 77, "velocity": 90, "duration": 154}, {"note": 0, "velocity": 0, "duration": 86}, {"note": 72, "velocity": 86, "duration": 300}, {"note": 0, "velocity": 0, "duration": 180}, {"note": 74, "velocity": 72, "duration": 152}, {"note": 76, "velocity": 71, "duration": 69}, {"note": 77, "velocity": 108, "duration": 137}, {"note": 0, "velocity": 0, "duration": 103}, {"note": 74, "velocity": 76, "duration": 266}, {"note": 77, "velocity": 79, "duration": 191}, {"note": 81, "velocity": 93, "duration": 124}, {"note": 0, "velocity": 0, "duration": 116}, {"note": 84, "velocity": 100, "duration": 243}, {"note": 0, "velocity": 0, "duration": 117}, {"note": 81, "velocity": 67, "duration": 100}, {"note": 77, "velocity": 77, "duration": 188}, {"note": 74, "velocity": 66, "duration": 170}, {"note": 0, "velocity": 0, "duration": 70}, {"note": 77, "velocity": 95, "duration": 1876}, {"note": 0, "velocity": 0, "duration": 5324}, {"note": 81, "velocity": 98, "duration": 142}, {"note": 79, "velocity": 81, "duration": 172}, {"note": 77, "velocity": 76, "duration": 145}, {"note": 79, "velocity": 95, "duration": 67}, {"note": 81, "velocity": 85, "duration": 243}, {"note": 0, "velocity": 0, "duration": 117}, {"note": 79, "velocity": 85, "duration": 96}, {"note": 77, "velocity": 69, "duration": 131}, {"note": 0, "velocity": 0, "duration": 109}, {"note": 84, "velocity": 108, "duration": 122}, {"note": 0, "velocity": 0, "duration": 118}, {"note": 79, "velocity": 98, "duration": 302}, {"note": 0, "velocity": 0, "duration": 178}, {"note": 81, "velocity": 95, "duration": 126}, {"note": 79, "velocity": 79, "duration": 154}, {"note": 77, "velocity": 61, "duration": 76}, {"note": 79, "velocity": 77, "duration": 110}, {"note": 77, "velocity": 77, "duration": 270}, {"note": 0, "velocity": 0, "duration": 90}, {"note": 76, "velocity": 76, "duration": 129}, {"note": 74, "velocity": 85, "duration": 161}, {"note": 0, "velocity": 0, "duration": 79}, {"note": 81, "velocity": 100, "duration": 134}, {"note": 0, "velocity": 0, "duration": 106}, {"note": 76, "velocity": 93, "duration": 327}, {"note": 0, "velocity": 0, "duration": 153}, {"note": 77, "velocity": 87, "duration": 225}, {"note": 0, "velocity": 0, "duration": 135}, {"note": 76, "velocity": 93, "duration": 139}, {"note": 74, "velocity": 87, "duration": 265}, {"note": 0, "velocity": 0, "duration": 95}, {"note": 72, "velocity": 85, "duration": 91}, {"note": 86, "velocity": 76, "duration": 64}, {"note": 0, "velocity": 0, "duration": 176}, {"note": 86, "velocity": 93, "duration": 101}, {"note": 0, "velocity": 0, "duration": 139}, {"note": 84, "velocity": 95, "duration": 411}, {"note": 0, "velocity": 0, "duration": 69}, {"note": 81, "velocity": 79, "duration": 254}, {"note": 84, "velocity": 74, "duration": 260}, {"note": 82, "velocity": 95, "duration": 240}, {"note": 0, "velocity": 0, "duration": 120}, {"note": 79, "velocity": 81, "duration": 111}, {"note": 77, "velocity": 90, "duration": 106}, {"note": 0, "velocity": 0, "duration": 134}, {"note": 74, "velocity": 66, "duration": 156}, {"note": 0, "velocity": 0, "duration": 84}, {"note": 79, "velocity": 95, "duration": 238}, {"note": 0, "velocity": 0, "duration": 242}, {"note": 81, "velocity": 98, "duration": 142}, {"note": 79, "velocity": 81, "duration": 172}, {"note": 77, "velocity": 76, "duration": 145}, {"note": 79, "velocity": 95, "duration": 67}, {"note": 81, "velocity": 85, "duration": 243}, {"note": 0, "velocity": 0, "duration": 117}, {"note": 79, "velocity": 85, "duration": 96}, {"note": 77, "velocity": 69, "duration": 131}, {"note": 0, "velocity": 0, "duration": 109}, {"note": 84, "velocity": 108, "duration": 122}, {"note": 0, "velocity": 0, "duration": 118}, {"note": 79, "velocity": 98, "duration": 302}, {"note": 0, "velocity": 0, "duration": 178}, {"note": 81, "velocity": 95, "duration": 126}, {"note": 79, "velocity": 79, "duration": 154}, {"note": 77, "velocity": 61, "duration": 76}, {"note": 79, "velocity": 77, "duration": 110}, {"note": 77, "velocity": 77, "duration": 270}, {"note": 0, "velocity": 0, "duration": 90}, {"note": 76, "velocity": 76, "duration": 129}, {"note": 74, "velocity": 85, "duration": 161}, {"note": 0, "velocity": 0, "duration": 79}, {"note": 77, "velocity": 93, "duration": 223}, {"note": 84, "velocity": 79, "duration": 180}, {"note": 81, "velocity": 93, "duration": 226}, {"note": 81, "velocity": 98, "duration": 264}, {"note": 0, "velocity": 0, "duration": 96}, {"note": 79, "velocity": 87, "duration": 72}, {"note": 77, "velocity": 95, "duration": 98}, {"note": 0, "velocity": 0, "duration": 142}, {"note": 74, "velocity": 83, "duration": 183}, {"note": 81, "velocity": 86, "duration": 271}, {"note": 0, "velocity": 0, "duration": 89}, {"note": 79, "velocity": 79, "duration": 74}, {"note": 77, "velocity": 90, "duration": 154}, {"note": 0, "velocity": 0, "duration": 86}, {"note": 72, "velocity": 86, "duration": 300}, {"note": 0, "velocity": 0, "duration": 180}, {"note": 74, "velocity": 72, "duration": 152}, {"note": 76, "velocity": 71, "duration": 69}, {"note": 77, "velocity": 108, "duration": 137}, {"note": 0, "velocity": 0, "duration": 103}, {"note": 74, "velocity": 76, "duration": 266}, {"note": 77, "velocity": 79, "duration": 191}, {"note": 81, "velocity": 93, "duration": 124}, {"note": 0, "velocity": 0, "duration": 116}, {"note": 84, "velocity": 100, "duration": 243}, {"note": 0, "velocity": 0, "duration": 117}, {"note": 81, "velocity": 67, "duration": 100}, {"note": 77, "velocity": 77, "duration": 188}, {"note": 74, "velocity": 66, "duration": 170}, {"note": 0, "velocity": 0, "duration": 70}, {"note": 77, "velocity": 95, "duration": 1876}, {"note": 82, "velocity": 98, "duration": 142}, {"note": 80, "velocity": 81, "duration": 172}, {"note": 78, "velocity": 76, "duration": 145}, {"note": 80, "velocity": 95, "duration": 67}, {"note": 82, "velocity": 85, "duration": 243}, {"note": 0, "velocity": 0, "duration": 117}, {"note": 80, "velocity": 85, "duration": 96}, {"note": 78, "velocity": 69, "duration": 131}, {"note": 0, "velocity": 0, "duration": 109}, {"note": 85, "velocity": 108, "duration": 122}, {"note": 0, "velocity": 0, "duration": 118}, {"note": 80, "velocity": 98, "duration": 302}, {"note": 0, "velocity": 0, "duration": 178}, {"note": 82, "velocity": 95, "duration": 126}, {"note": 80, "velocity": 79, "duration": 154}, {"note": 78, "velocity": 61, "duration": 76}, {"note": 80, "velocity": 77, "duration": 110}, {"note": 78, "velocity": 77, "duration": 270}, {"note": 0, "velocity": 0, "duration": 90}, {"note": 77, "velocity": 76, "duration": 129}, {"note": 75, "velocity": 85, "duration": 161}, {"note": 0, "velocity": 0, "duration": 79}, {"note": 82, "velocity": 100, "duration": 134}, {"note": 0, "velocity": 0, "duration": 106}, {"note": 77, "velocity": 93, "duration": 327}, {"note": 0, "velocity": 0, "duration": 153}, {"note": 78, "velocity": 87, "duration": 225}, {"note": 0, "velocity": 0, "duration": 135}, {"note": 77, "velocity": 93, "duration": 139}, {"note": 75, "velocity": 87, "duration": 265}, {"note": 0, "velocity": 0, "duration": 95}, {"note": 73, "velocity": 85, "duration": 91}, {"note": 87, "velocity": 76, "duration": 64}, {"note": 0, "velocity": 0, "duration": 176}, {"note": 87, "velocity": 93, "duration": 101}, {"note": 0, "velocity": 0, "duration": 139}, {"note": 85, "velocity": 95, "duration": 411}, {"note": 0, "velocity": 0, "duration": 69}, {"note": 82, "velocity": 79, "duration": 254}, {"note": 85, "velocity": 74, "duration": 260}, {"note": 83, "velocity": 95, "duration": 240}, {"note": 0, "velocity": 0, "duration": 120}, {"note": 80, "velocity": 81, "duration": 111}, {"note": 78, "velocity": 90, "duration": 106}, {"note": 0, "velocity": 0, "duration": 134}, {"note": 75, "velocity": 66, "duration": 156}, {"note": 0, "velocity": 0, "duration": 84}, {"note": 80, "velocity": 95, "duration": 238}, {"note": 0, "velocity": 0, "duration": 242}, {"note": 82, "velocity": 98, "duration": 142}, {"note": 80, "velocity": 81, "duration": 172}, {"note": 78, "velocity": 76, "duration": 145}, {"note": 80, "velocity": 95, "duration": 67}, {"note": 82, "velocity": 85, "duration": 243}, {"note": 0, "velocity": 0, "duration": 117}, {"note": 80, "velocity": 85, "duration": 96}, {"note": 78, "velocity": 69, "duration": 131}, {"note": 0, "velocity": 0, "duration": 109}, {"note": 85, "velocity": 108, "duration": 122}, {"note": 0, "velocity": 0, "duration": 118}, {"note": 80, "velocity": 98, "duration": 302}, {"note": 0, "velocity": 0, "duration": 178}, {"note": 82, "velocity": 95, "duration": 126}, {"note": 80, "velocity": 79, "duration": 154}, {"note": 78, "velocity": 61, "duration": 76}, {"note": 80, "velocity": 77, "duration": 110}, {"note": 78, "velocity": 77, "duration": 270}, {"note": 0, "velocity": 0, "duration": 90}, {"note": 77, "velocity": 76, "duration": 129}, {"note": 75, "velocity": 85, "duration": 161}, {"note": 0, "velocity": 0, "duration": 79}, {"note": 78, "velocity": 93, "duration": 223}, {"note": 85, "velocity": 79, "duration": 180}, {"note": 82, "velocity": 93, "duration": 226}, {"note": 82, "velocity": 98, "duration": 264}, {"note": 0, "velocity": 0, "duration": 96}, {"note": 80, "velocity": 87, "duration": 72}, {"note": 78, "velocity": 95, "duration": 98}, {"note": 0, "velocity": 0, "duration": 142}, {"note": 75, "velocity": 83, "duration": 183}, {"note": 82, "velocity": 86, "duration": 271}, {"note": 0, "velocity": 0, "duration": 89}, {"note": 80, "velocity": 79, "duration": 74}, {"note": 78, "velocity": 90, "duration": 154}, {"note": 0, "velocity": 0, "duration": 86}, {"note": 73, "velocity": 86, "duration": 300}, {"note": 0, "velocity": 0, "duration": 180}, {"note": 75, "velocity": 72, "duration": 152}, {"note": 77, "velocity": 71, "duration": 69}, {"note": 78, "velocity": 108, "duration": 137}, {"note": 0, "velocity": 0, "duration": 103}, {"note": 75, "velocity": 76, "duration": 266}, {"note": 78, "velocity": 79, "duration": 191}, {"note": 82, "velocity": 93, "duration": 124}, {"note": 0, "velocity": 0, "duration": 116}, {"note": 85, "velocity": 100, "duration": 243}, {"note": 0, "velocity": 0, "duration": 117}, {"note": 82, "velocity": 67, "duration": 100}, {"note": 78, "velocity": 77, "duration": 188}, {"note": 75, "velocity": 66, "duration": 170}, {"note": 0, "velocity": 0, "duration": 70}, {"note": 78, "velocity": 95, "duration": 1876}, {"note": 75, "velocity": 67, "duration": 166}, {"note": 77, "velocity": 76, "duration": 138}, {"note": 78, "velocity": 93, "duration": 243}, {"note": 75, "velocity": 58, "duration": 300}, {"note": 78, "velocity": 76, "duration": 146}, {"note": 0, "velocity": 0, "duration": 94}, {"note": 82, "velocity": 112, "duration": 159}, {"note": 0, "velocity": 0, "duration": 201}, {"note": 85, "velocity": 114, "duration": 303}, {"note": 82, "velocity": 93, "duration": 1271}, {"note": 0, "velocity": 0, "duration": 385}, {"note": 78, "velocity": 60, "duration": 371}, {"note": 0, "velocity": 0, "duration": 133}, {"note": 75, "velocity": 62, "duration": 256}, {"note": 0, "velocity": 0, "duration": 184}, {"note": 78, "velocity": 81, "duration": 1242}]]