[[{"note": 73, "velocity": 77, "duration": 119}, {"note": 73, "velocity": 79, "duration": 239}, {"note": 73, "velocity": 81, "duration": 119}, {"note": 73, "velocity": 90, "duration": 240}, {"note": 71, "velocity": 81, "duration": 240}, {"note": 69, "velocity": 93, "duration": 714}, {"note": 76, "velocity": 86, "duration": 466}, {"note": 73, "velocity": 87, "duration": 1700}, {"note": 69, "velocity": 98, "duration": 119}, {"note": 69, "velocity": 95, "duration": 359}, {"note": 69, "velocity": 83, "duration": 239}, {"note": 69, "velocity": 75, "duration": 120}, {"note": 71, "velocity": 87, "duration": 240}, {"note": 69, "velocity": 86, "duration": 720}, {"note": 61, "velocity": 65, "duration": 120}, {"note": 64, "velocity": 85, "duration": 1920}, {"note": 66, "velocity": 74, "duration": 152}, {"note": 69, "velocity": 71, "duration": 359}, {"note": 69, "velocity": 77, "duration": 239}, {"note": 69, "velocity": 58, "duration": 239}, {"note": 69, "velocity": 71, "duration": 719}, {"note": 69, "velocity": 65, "duration": 120}, {"note": 71, "velocity": 67, "duration": 120}, {"note": 73, "velocity": 95, "duration": 720}, {"note": 71, "velocity": 87, "duration": 240}, {"note": 69, "velocity": 95, "duration": 720}, {"note": 66, "velocity": 83, "duration": 120}, {"note": 69, "velocity": 68, "duration": 120}, {"note": 71, "velocity": 100, "duration": 719}, {"note": 71, "velocity": 70, "duration": 119}, {"note": 71, "velocity": 81, "duration": 120}, {"note": 73, "velocity": 98, "duration": 240}, {"note": 71, "velocity": 98, "duration": 600}, {"note": 69, "velocity": 75, "duration": 120}, {"note": 71, "velocity": 100, "duration": 1920}, {"note": 73, "velocity": 77, "duration": 119}, {"note": 73, "velocity": 79, "duration": 239}, {"note": 73, "velocity": 81, "duration": 119}, {"note": 73, "velocity": 90, "duration": 240}, {"note": 71, "velocity": 81, "duration": 240}, {"note": 69, "velocity": 93, "duration": 714}, {"note": 76, "velocity": 86, "duration": 466}, {"note": 73, "velocity": 87, "duration": 1700}, {"note": 69, "velocity": 83, "duration": 239}, {"note": 69, "velocity": 85, "duration": 239}, {"note": 69, "velocity": 83, "duration": 239}, {"note": 69, "velocity": 75, "duration": 120}, {"note": 71, "velocity": 87, "duration": 240}, {"note": 69, "velocity": 86, "duration": 720}, {"note": 61, "velocity": 65, "duration": 120}, {"note": 64, "velocity": 85, "duration": 1920}, {"note": 66, "velocity": 74, "duration": 152}, {"note": 69, "velocity": 71, "duration": 359}, {"note": 69, "velocity": 77, "duration": 239}, {"note": 69, "velocity": 58, "duration": 239}, {"note": 69, "velocity": 71, "duration": 719}, {"note": 69, "velocity": 65, "duration": 120}, {"note": 71, "velocity": 67, "duration": 120}, {"note": 73, "velocity": 95, "duration": 720}, {"note": 71, "velocity": 87, "duration": 240}, {"note": 69, "velocity": 95, "duration": 720}, {"note": 66, "velocity": 83, "duration": 120}, {"note": 69, "velocity": 68, "duration": 120}, {"note": 71, "velocity": 100, "duration": 239}, {"note": 71, "velocity": 87, "duration": 479}, {"note": 71, "velocity": 70, "duration": 119}, {"note": 71, "velocity": 81, "duration": 120}, {"note": 73, "velocity": 98, "duration": 240}, {"note": 71, "velocity": 98, "duration": 479}, {"note": 71, "velocity": 75, "duration": 240}, {"note": 69, "velocity": 100, "duration": 1920}, {"note": 78, "velocity": 114, "duration": 119}, {"note": 78, "velocity": 117, "duration": 239}, {"note": 78, "velocity": 112, "duration": 119}, {"note": 78, "velocity": 120, "duration": 240}, {"note": 73, "velocity": 77, "duration": 120}, {"note": 76, "velocity": 95, "duration": 840}, {"note": 73, "velocity": 95, "duration": 122}, {"note": 71, "velocity": 66, "duration": 124}, {"note": 69, "velocity": 85, "duration": 239}, {"note": 69, "velocity": 86, "duration": 239}, {"note": 69, "velocity": 90, "duration": 119}, {"note": 69, "velocity": 93, "duration": 240}, {"note": 71, "velocity": 85, "duration": 120}, {"note": 73, "velocity": 108, "duration": 960}, {"note": 78, "velocity": 108, "duration": 119}, {"note": 78, "velocity": 104, "duration": 239}, {"note": 78, "velocity": 100, "duration": 119}, {"note": 78, "velocity": 111, "duration": 240}, {"note": 80, "velocity": 117, "duration": 120}, {"note": 78, "velocity": 117, "duration": 128}, {"note": 76, "velocity": 120, "duration": 720}, {"note": 73, "velocity": 98, "duration": 120}, {"note": 76, "velocity": 104, "duration": 120}, {"note": 78, "velocity": 121, "duration": 239}, {"note": 78, "velocity": 117, "duration": 719}, {"note": 78, "velocity": 104, "duration": 239}, {"note": 78, "velocity": 120, "duration": 480}, {"note": 73, "velocity": 112, "duration": 240}, {"note": 71, "velocity": 114, "duration": 1920}, {"note": 78, "velocity": 114, "duration": 182}, {"note": 78, "velocity": 117, "duration": 176}, {"note": 78, "velocity": 112, "duration": 119}, {"note": 78, "velocity": 120, "duration": 240}, {"note": 73, "velocity": 77, "duration": 120}, {"note": 76, "velocity": 95, "duration": 840}, {"note": 73, "velocity": 95, "duration": 122}, {"note": 71, "velocity": 66, "duration": 124}, {"note": 69, "velocity": 85, "duration": 239}, {"note": 69, "velocity": 86, "duration": 239}, {"note": 69, "velocity": 90, "duration": 183}, {"note": 69, "velocity": 93, "duration": 176}, {"note": 71, "velocity": 85, "duration": 120}, {"note": 73, "velocity": 108, "duration": 960}, {"note": 78, "velocity": 108, "duration": 186}, {"note": 78, "velocity": 104, "duration": 172}, {"note": 78, "velocity": 100, "duration": 119}, {"note": 78, "velocity": 111, "duration": 240}, {"note": 80, "velocity": 117, "duration": 120}, {"note": 78, "velocity": 117, "duration": 128}, {"note": 76, "velocity": 120, "duration": 720}, {"note": 73, "velocity": 98, "duration": 120}, {"note": 76, "velocity": 104, "duration": 120}, {"note": 78, "velocity": 121, "duration": 239}, {"note": 78, "velocity": 117, "duration": 719}, {"note": 78, "velocity": 104, "duration": 239}, {"note": 78, "velocity": 120, "duration": 463}, {"note": 78, "velocity": 112, "duration": 256}, {"note": 76, "velocity": 114, "duration": 1920}, {"note": 73, "velocity": 77, "duration": 119}, {"note": 73, "velocity": 79, "duration": 239}, {"note": 73, "velocity": 81, "duration": 119}, {"note": 73, "velocity": 90, "duration": 240}, {"note": 71, "velocity": 81, "duration": 240}, {"note": 69, "velocity": 93, "duration": 714}, {"note": 76, "velocity": 86, "duration": 466}, {"note": 73, "velocity": 87, "duration": 1700}, {"note": 69, "velocity": 83, "duration": 143}, {"note": 69, "velocity": 85, "duration": 335}, {"note": 69, "velocity": 83, "duration": 239}, {"note": 69, "velocity": 75, "duration": 120}, {"note": 71, "velocity": 87, "duration": 240}, {"note": 69, "velocity": 86, "duration": 720}, {"note": 61, "velocity": 65, "duration": 120}, {"note": 64, "velocity": 85, "duration": 1920}, {"note": 66, "velocity": 74, "duration": 152}, {"note": 69, "velocity": 71, "duration": 359}, {"note": 69, "velocity": 77, "duration": 239}, {"note": 69, "velocity": 58, "duration": 239}, {"note": 69, "velocity": 71, "duration": 719}, {"note": 69, "velocity": 65, "duration": 120}, {"note": 71, "velocity": 67, "duration": 120}, {"note": 73, "velocity": 95, "duration": 720}, {"note": 71, "velocity": 87, "duration": 240}, {"note": 69, "velocity": 95, "duration": 720}, {"note": 66, "velocity": 83, "duration": 120}, {"note": 69, "velocity": 68, "duration": 120}, {"note": 71, "velocity": 100, "duration": 719}, {"note": 71, "velocity": 70, "duration": 119}, {"note": 71, "velocity": 81, "duration": 120}, {"note": 73, "velocity": 98, "duration": 240}, {"note": 71, "velocity": 98, "duration": 479}, {"note": 71, "velocity": 75, "duration": 240}, {"note": 69, "velocity": 100, "duration": 1920}, {"note": 0, "velocity": 0, "duration": 15360}, {"note": 78, "velocity": 114, "duration": 119}, {"note": 78, "velocity": 117, "duration": 239}, {"note": 78, "velocity": 112, "duration": 119}, {"note": 78, "velocity": 120, "duration": 240}, {"note": 73, "velocity": 77, "duration": 120}, {"note": 76, "velocity": 95, "duration": 840}, {"note": 73, "velocity": 95, "duration": 122}, {"note": 71, "velocity": 66, "duration": 124}, {"note": 69, "velocity": 85, "duration": 239}, {"note": 69, "velocity": 86, "duration": 239}, {"note": 69, "velocity": 90, "duration": 119}, {"note": 69, "velocity": 93, "duration": 240}, {"note": 71, "velocity": 85, "duration": 120}, {"note": 73, "velocity": 108, "duration": 960}, {"note": 78, "velocity": 108, "duration": 119}, {"note": 78, "velocity": 104, "duration": 239}, {"note": 78, "velocity": 100, "duration": 119}, {"note": 78, "velocity": 111, "duration": 240}, {"note": 80, "velocity": 117, "duration": 120}, {"note": 78, "velocity": 117, "duration": 128}, {"note": 76, "velocity": 120, "duration": 720}, {"note": 73, "velocity": 98, "duration": 120}, {"note": 76, "velocity": 104, "duration": 120}, {"note": 78, "velocity": 121, "duration": 239}, {"note": 78, "velocity": 117, "duration": 719}, {"note": 78, "velocity": 104, "duration": 239}, {"note": 78, "velocity": 120, "duration": 480}, {"note": 73, "velocity": 112, "duration": 240}, {"note": 71, "velocity": 114, "duration": 1920}, {"note": 78, "velocity": 114, "duration": 182}, {"note": 78, "velocity": 117, "duration": 176}, {"note": 78, "velocity": 112, "duration": 119}, {"note": 78, "velocity": 120, "duration": 240}, {"note": 73, "velocity": 77, "duration": 120}, {"note": 76, "velocity": 95, "duration": 840}, {"note": 73, "velocity": 95, "duration": 122}, {"note": 71, "velocity": 66, "duration": 124}, {"note": 69, "velocity": 85, "duration": 239}, {"note": 69, "velocity": 86, "duration": 239}, {"note": 69, "velocity": 90, "duration": 183}, {"note": 69, "velocity": 93, "duration": 176}, {"note": 71, "velocity": 85, "duration": 120}, {"note": 73, "velocity": 108, "duration": 960}, {"note": 78, "velocity": 108, "duration": 186}, {"note": 78, "velocity": 104, "duration": 172}, {"note": 78, "velocity": 100, "duration": 119}, {"note": 78, "velocity": 111, "duration": 240}, {"note": 80, "velocity": 117, "duration": 120}, {"note": 78, "velocity": 117, "duration": 128}, {"note": 76, "velocity": 120, "duration": 720}, {"note": 73, "velocity": 98, "duration": 120}, {"note": 76, "velocity": 104, "duration": 120}, {"note": 78, "velocity": 121, "duration": 239}, {"note": 78, "velocity": 117, "duration": 719}, {"note": 78, "velocity": 104, "duration": 239}, {"note": 78, "velocity": 120, "duration": 463}, {"note": 78, "velocity": 112, "duration": 256}, {"note": 76, "velocity": 114, "duration": 1920}, {"note": 73, "velocity": 77, "duration": 119}, {"note": 73, "velocity": 79, "duration": 239}, {"note": 73, "velocity": 81, "duration": 119}, {"note": 73, "velocity": 90, "duration": 240}, {"note": 71, "velocity": 81, "duration": 240}, {"note": 69, "velocity": 93, "duration": 714}, {"note": 76, "velocity": 86, "duration": 466}, {"note": 73, "velocity": 87, "duration": 1700}, {"note": 69, "velocity": 83, "duration": 143}, {"note": 69, "velocity": 85, "duration": 335}, {"note": 69, "velocity": 83, "duration": 239}, {"note": 69, "velocity": 75, "duration": 120}, {"note": 71, "velocity": 87, "duration": 240}, {"note": 69, "velocity": 86, "duration": 720}, {"note": 61, "velocity": 65, "duration": 120}, {"note": 64, "velocity": 85, "duration": 1920}, {"note": 66, "velocity": 74, "duration": 152}, {"note": 69, "velocity": 71, "duration": 359}, {"note": 69, "velocity": 77, "duration": 239}, {"note": 69, "velocity": 58, "duration": 239}, {"note": 69, "velocity": 71, "duration": 960}, {"note": 73, "velocity": 95, "duration": 720}, {"note": 71, "velocity": 87, "duration": 240}, {"note": 69, "velocity": 95, "duration": 720}, {"note": 66, "velocity": 83, "duration": 120}, {"note": 69, "velocity": 68, "duration": 120}, {"note": 71, "velocity": 100, "duration": 719}, {"note": 71, "velocity": 70, "duration": 119}, {"note": 71, "velocity": 81, "duration": 120}, {"note": 73, "velocity": 98, "duration": 240}, {"note": 71, "velocity": 98, "duration": 479}, {"note": 71, "velocity": 75, "duration": 240}, {"note": 69, "velocity": 100, "duration": 1920}]]