[[{"note": 71, "velocity": 114, "duration": 112}, {"note": 73, "velocity": 114, "duration": 90}, {"note": 74, "velocity": 114, "duration": 231}, {"note": 73, "velocity": 114, "duration": 123}, {"note": 74, "velocity": 114, "duration": 123}, {"note": 73, "velocity": 114, "duration": 181}, {"note": 0, "velocity": 0, "duration": 66}, {"note": 74, "velocity": 114, "duration": 57}, {"note": 0, "velocity": 0, "duration": 63}, {"note": 73, "velocity": 114, "duration": 117}, {"note": 0, "velocity": 0, "duration": 123}, {"note": 74, "velocity": 114, "duration": 54}, {"note": 0, "velocity": 0, "duration": 66}, {"note": 74, "velocity": 114, "duration": 143}, {"note": 0, "velocity": 0, "duration": 217}, {"note": 69, "velocity": 114, "duration": 210}, {"note": 71, "velocity": 114, "duration": 412}, {"note": 0, "velocity": 0, "duration": 720}, {"note": 71, "velocity": 112, "duration": 102}, {"note": 73, "velocity": 112, "duration": 76}, {"note": 74, "velocity": 112, "duration": 152}, {"note": 0, "velocity": 0, "duration": 88}, {"note": 73, "velocity": 112, "duration": 89}, {"note": 74, "velocity": 112, "duration": 100}, {"note": 0, "velocity": 0, "duration": 120}, {"note": 73, "velocity": 112, "duration": 92}, {"note": 0, "velocity": 0, "duration": 148}, {"note": 74, "velocity": 111, "duration": 10}, {"note": 0, "velocity": 0, "duration": 110}, {"note": 73, "velocity": 111, "duration": 91}, {"note": 0, "velocity": 0, "duration": 149}, {"note": 73, "velocity": 111, "duration": 47}, {"note": 0, "velocity": 0, "duration": 73}, {"note": 74, "velocity": 111, "duration": 178}, {"note": 0, "velocity": 0, "duration": 62}, {"note": 76, "velocity": 111, "duration": 259}, {"note": 0, "velocity": 0, "duration": 101}, {"note": 71, "velocity": 111, "duration": 225}, {"note": 74, "velocity": 111, "duration": 137}, {"note": 76, "velocity": 111, "duration": 32}, {"note": 78, "velocity": 111, "duration": 227}, {"note": 0, "velocity": 0, "duration": 133}, {"note": 78, "velocity": 111, "duration": 51}, {"note": 0, "velocity": 0, "duration": 69}, {"note": 78, "velocity": 111, "duration": 153}, {"note": 0, "velocity": 0, "duration": 87}, {"note": 81, "velocity": 111, "duration": 84}, {"note": 0, "velocity": 0, "duration": 156}, {"note": 78, "velocity": 111, "duration": 156}, {"note": 76, "velocity": 111, "duration": 398}, {"note": 0, "velocity": 0, "duration": 202}, {"note": 76, "velocity": 110, "duration": 161}, {"note": 74, "velocity": 110, "duration": 144}, {"note": 76, "velocity": 110, "duration": 244}, {"note": 0, "velocity": 0, "duration": 116}, {"note": 76, "velocity": 110, "duration": 56}, {"note": 76, "velocity": 110, "duration": 220}, {"note": 78, "velocity": 109, "duration": 103}, {"note": 0, "velocity": 0, "duration": 137}, {"note": 71, "velocity": 109, "duration": 124}, {"note": 74, "velocity": 109, "duration": 602}, {"note": 71, "velocity": 109, "duration": 118}, {"note": 73, "velocity": 109, "duration": 76}, {"note": 74, "velocity": 109, "duration": 188}, {"note": 0, "velocity": 0, "duration": 172}, {"note": 73, "velocity": 108, "duration": 126}, {"note": 74, "velocity": 108, "duration": 177}, {"note": 74, "velocity": 108, "duration": 57}, {"note": 0, "velocity": 0, "duration": 183}, {"note": 74, "velocity": 107, "duration": 47}, {"note": 0, "velocity": 0, "duration": 73}, {"note": 74, "velocity": 107, "duration": 155}, {"note": 73, "velocity": 107, "duration": 118}, {"note": 73, "velocity": 107, "duration": 60}, {"note": 73, "velocity": 107, "duration": 105}, {"note": 0, "velocity": 0, "duration": 255}, {"note": 76, "velocity": 107, "duration": 149}, {"note": 71, "velocity": 107, "duration": 682}, {"note": 0, "velocity": 0, "duration": 240}, {"note": 71, "velocity": 107, "duration": 120}, {"note": 73, "velocity": 107, "duration": 122}, {"note": 74, "velocity": 107, "duration": 179}, {"note": 0, "velocity": 0, "duration": 61}, {"note": 73, "velocity": 107, "duration": 110}, {"note": 74, "velocity": 107, "duration": 250}, {"note": 73, "velocity": 107, "duration": 70}, {"note": 0, "velocity": 0, "duration": 110}, {"note": 74, "velocity": 107, "duration": 124}, {"note": 0, "velocity": 0, "duration": 116}, {"note": 73, "velocity": 107, "duration": 85}, {"note": 0, "velocity": 0, "duration": 155}, {"note": 74, "velocity": 107, "duration": 64}, {"note": 0, "velocity": 0, "duration": 176}, {"note": 73, "velocity": 107, "duration": 85}, {"note": 69, "velocity": 106, "duration": 346}, {"note": 71, "velocity": 106, "duration": 1003}, {"note": 0, "velocity": 0, "duration": 197}, {"note": 71, "velocity": 106, "duration": 86}, {"note": 73, "velocity": 106, "duration": 47}, {"note": 0, "velocity": 0, "duration": 73}, {"note": 74, "velocity": 106, "duration": 109}, {"note": 0, "velocity": 0, "duration": 131}, {"note": 73, "velocity": 106, "duration": 70}, {"note": 74, "velocity": 106, "duration": 69}, {"note": 0, "velocity": 0, "duration": 171}, {"note": 73, "velocity": 106, "duration": 65}, {"note": 0, "velocity": 0, "duration": 295}, {"note": 74, "velocity": 106, "duration": 197}, {"note": 73, "velocity": 106, "duration": 98}, {"note": 0, "velocity": 0, "duration": 142}, {"note": 73, "velocity": 106, "duration": 127}, {"note": 74, "velocity": 106, "duration": 124}, {"note": 0, "velocity": 0, "duration": 116}, {"note": 78, "velocity": 106, "duration": 292}, {"note": 0, "velocity": 0, "duration": 68}, {"note": 76, "velocity": 106, "duration": 345}, {"note": 0, "velocity": 0, "duration": 720}, {"note": 74, "velocity": 106, "duration": 100}, {"note": 76, "velocity": 106, "duration": 147}, {"note": 78, "velocity": 106, "duration": 213}, {"note": 0, "velocity": 0, "duration": 147}, {"note": 78, "velocity": 106, "duration": 66}, {"note": 78, "velocity": 106, "duration": 120}, {"note": 81, "velocity": 106, "duration": 63}, {"note": 0, "velocity": 0, "duration": 177}, {"note": 78, "velocity": 106, "duration": 120}, {"note": 0, "velocity": 0, "duration": 120}, {"note": 76, "velocity": 106, "duration": 427}, {"note": 0, "velocity": 0, "duration": 173}, {"note": 76, "velocity": 106, "duration": 75}, {"note": 74, "velocity": 106, "duration": 110}, {"note": 76, "velocity": 106, "duration": 249}, {"note": 0, "velocity": 0, "duration": 111}, {"note": 76, "velocity": 106, "duration": 57}, {"note": 0, "velocity": 0, "duration": 63}, {"note": 76, "velocity": 106, "duration": 80}, {"note": 81, "velocity": 106, "duration": 64}, {"note": 0, "velocity": 0, "duration": 176}, {"note": 78, "velocity": 106, "duration": 157}, {"note": 0, "velocity": 0, "duration": 83}, {"note": 74, "velocity": 106, "duration": 24}, {"note": 0, "velocity": 0, "duration": 216}, {"note": 71, "velocity": 106, "duration": 81}, {"note": 73, "velocity": 106, "duration": 57}, {"note": 74, "velocity": 106, "duration": 75}, {"note": 0, "velocity": 0, "duration": 165}, {"note": 73, "velocity": 106, "duration": 93}, {"note": 74, "velocity": 106, "duration": 74}, {"note": 0, "velocity": 0, "duration": 120}, {"note": 73, "velocity": 106, "duration": 74}, {"note": 0, "velocity": 0, "duration": 166}, {"note": 74, "velocity": 106, "duration": 110}, {"note": 0, "velocity": 0, "duration": 130}, {"note": 73, "velocity": 106, "duration": 288}, {"note": 73, "velocity": 106, "duration": 48}, {"note": 0, "velocity": 0, "duration": 120}, {"note": 74, "velocity": 106, "duration": 105}, {"note": 0, "velocity": 0, "duration": 135}, {"note": 76, "velocity": 106, "duration": 219}, {"note": 71, "velocity": 106, "duration": 45}, {"note": 0, "velocity": 0, "duration": 75}, {"note": 71, "velocity": 106, "duration": 715}, {"note": 0, "velocity": 0, "duration": 1205}, {"note": 81, "velocity": 109, "duration": 253}, {"note": 83, "velocity": 109, "duration": 96}, {"note": 78, "velocity": 109, "duration": 187}, {"note": 76, "velocity": 109, "duration": 485}, {"note": 83, "velocity": 110, "duration": 173}, {"note": 0, "velocity": 0, "duration": 67}, {"note": 81, "velocity": 110, "duration": 56}, {"note": 0, "velocity": 0, "duration": 64}, {"note": 78, "velocity": 110, "duration": 515}, {"note": 0, "velocity": 0, "duration": 325}, {"note": 78, "velocity": 111, "duration": 74}, {"note": 76, "velocity": 111, "duration": 61}, {"note": 74, "velocity": 112, "duration": 145}, {"note": 0, "velocity": 0, "duration": 95}, {"note": 71, "velocity": 112, "duration": 92}, {"note": 74, "velocity": 112, "duration": 127}, {"note": 0, "velocity": 0, "duration": 113}, {"note": 71, "velocity": 112, "duration": 199}, {"note": 74, "velocity": 112, "duration": 146}, {"note": 0, "velocity": 0, "duration": 94}, {"note": 71, "velocity": 112, "duration": 84}, {"note": 0, "velocity": 0, "duration": 156}, {"note": 74, "velocity": 112, "duration": 94}, {"note": 0, "velocity": 0, "duration": 146}, {"note": 76, "velocity": 112, "duration": 76}, {"note": 0, "velocity": 0, "duration": 164}, {"note": 78, "velocity": 112, "duration": 177}, {"note": 81, "velocity": 114, "duration": 276}, {"note": 83, "velocity": 114, "duration": 86}, {"note": 78, "velocity": 114, "duration": 43}, {"note": 0, "velocity": 0, "duration": 77}, {"note": 76, "velocity": 114, "duration": 325}, {"note": 0, "velocity": 0, "duration": 995}, {"note": 83, "velocity": 114, "duration": 173}, {"note": 0, "velocity": 0, "duration": 67}, {"note": 81, "velocity": 114, "duration": 54}, {"note": 0, "velocity": 0, "duration": 66}, {"note": 78, "velocity": 114, "duration": 353}, {"note": 0, "velocity": 0, "duration": 240}, {"note": 78, "velocity": 114, "duration": 117}, {"note": 76, "velocity": 114, "duration": 60}, {"note": 74, "velocity": 114, "duration": 135}, {"note": 0, "velocity": 0, "duration": 105}, {"note": 71, "velocity": 114, "duration": 101}, {"note": 74, "velocity": 114, "duration": 123}, {"note": 0, "velocity": 0, "duration": 117}, {"note": 71, "velocity": 114, "duration": 173}, {"note": 0, "velocity": 0, "duration": 67}, {"note": 74, "velocity": 114, "duration": 118}, {"note": 0, "velocity": 0, "duration": 122}, {"note": 76, "velocity": 114, "duration": 136}, {"note": 0, "velocity": 0, "duration": 104}, {"note": 78, "velocity": 114, "duration": 147}, {"note": 0, "velocity": 0, "duration": 93}, {"note": 81, "velocity": 114, "duration": 150}, {"note": 0, "velocity": 0, "duration": 210}, {"note": 78, "velocity": 114, "duration": 329}, {"note": 71, "velocity": 114, "duration": 611}, {"note": 0, "velocity": 0, "duration": 720}, {"note": 71, "velocity": 107, "duration": 112}, {"note": 73, "velocity": 107, "duration": 90}, {"note": 74, "velocity": 107, "duration": 231}, {"note": 73, "velocity": 107, "duration": 123}, {"note": 74, "velocity": 107, "duration": 247}, {"note": 73, "velocity": 106, "duration": 152}, {"note": 0, "velocity": 0, "duration": 80}, {"note": 74, "velocity": 106, "duration": 57}, {"note": 0, "velocity": 0, "duration": 63}, {"note": 73, "velocity": 106, "duration": 117}, {"note": 0, "velocity": 0, "duration": 243}, {"note": 74, "velocity": 105, "duration": 54}, {"note": 0, "velocity": 0, "duration": 66}, {"note": 74, "velocity": 105, "duration": 143}, {"note": 0, "velocity": 0, "duration": 97}, {"note": 69, "velocity": 105, "duration": 210}, {"note": 71, "velocity": 105, "duration": 412}, {"note": 0, "velocity": 0, "duration": 788}, {"note": 71, "velocity": 104, "duration": 102}, {"note": 73, "velocity": 104, "duration": 76}, {"note": 74, "velocity": 104, "duration": 152}, {"note": 0, "velocity": 0, "duration": 88}, {"note": 73, "velocity": 104, "duration": 89}, {"note": 74, "velocity": 104, "duration": 100}, {"note": 0, "velocity": 0, "duration": 140}, {"note": 73, "velocity": 104, "duration": 92}, {"note": 0, "velocity": 0, "duration": 148}, {"note": 74, "velocity": 104, "duration": 130}, {"note": 0, "velocity": 0, "duration": 110}, {"note": 73, "velocity": 104, "duration": 91}, {"note": 0, "velocity": 0, "duration": 149}, {"note": 73, "velocity": 104, "duration": 167}, {"note": 0, "velocity": 0, "duration": 73}, {"note": 74, "velocity": 104, "duration": 178}, {"note": 0, "velocity": 0, "duration": 62}, {"note": 76, "velocity": 104, "duration": 259}, {"note": 0, "velocity": 0, "duration": 101}, {"note": 71, "velocity": 104, "duration": 1305}, {"note": 74, "velocity": 102, "duration": 137}, {"note": 76, "velocity": 102, "duration": 120}, {"note": 78, "velocity": 102, "duration": 213}, {"note": 0, "velocity": 0, "duration": 147}, {"note": 78, "velocity": 102, "duration": 66}, {"note": 78, "velocity": 102, "duration": 120}, {"note": 81, "velocity": 102, "duration": 63}, {"note": 0, "velocity": 0, "duration": 177}, {"note": 78, "velocity": 102, "duration": 120}, {"note": 0, "velocity": 0, "duration": 120}, {"note": 76, "velocity": 102, "duration": 67}, {"note": 0, "velocity": 0, "duration": 173}, {"note": 76, "velocity": 102, "duration": 75}, {"note": 74, "velocity": 102, "duration": 110}, {"note": 76, "velocity": 102, "duration": 249}, {"note": 0, "velocity": 0, "duration": 111}, {"note": 76, "velocity": 102, "duration": 57}, {"note": 0, "velocity": 0, "duration": 63}, {"note": 76, "velocity": 102, "duration": 80}, {"note": 81, "velocity": 102, "duration": 64}, {"note": 0, "velocity": 0, "duration": 176}, {"note": 78, "velocity": 102, "duration": 37}, {"note": 0, "velocity": 0, "duration": 83}, {"note": 74, "velocity": 102, "duration": 384}, {"note": 0, "velocity": 0, "duration": 216}, {"note": 71, "velocity": 102, "duration": 81}, {"note": 73, "velocity": 102, "duration": 57}, {"note": 0, "velocity": 0, "duration": 63}, {"note": 74, "velocity": 102, "duration": 75}, {"note": 0, "velocity": 0, "duration": 165}, {"note": 73, "velocity": 102, "duration": 93}, {"note": 74, "velocity": 102, "duration": 74}, {"note": 0, "velocity": 0, "duration": 166}, {"note": 73, "velocity": 102, "duration": 74}, {"note": 0, "velocity": 0, "duration": 166}, {"note": 74, "velocity": 102, "duration": 110}, {"note": 0, "velocity": 0, "duration": 120}, {"note": 73, "velocity": 102, "duration": 288}, {"note": 73, "velocity": 102, "duration": 48}, {"note": 0, "velocity": 0, "duration": 192}, {"note": 74, "velocity": 102, "duration": 105}, {"note": 0, "velocity": 0, "duration": 135}, {"note": 76, "velocity": 102, "duration": 99}, {"note": 0, "velocity": 0, "duration": 141}, {"note": 71, "velocity": 102, "duration": 955}, {"note": 0, "velocity": 0, "duration": 1205}, {"note": 81, "velocity": 103, "duration": 253}, {"note": 83, "velocity": 103, "duration": 96}, {"note": 78, "velocity": 103, "duration": 67}, {"note": 76, "velocity": 103, "duration": 485}, {"note": 0, "velocity": 0, "duration": 480}, {"note": 83, "velocity": 103, "duration": 173}, {"note": 0, "velocity": 0, "duration": 67}, {"note": 81, "velocity": 103, "duration": 56}, {"note": 0, "velocity": 0, "duration": 64}, {"note": 78, "velocity": 103, "duration": 395}, {"note": 0, "velocity": 0, "duration": 325}, {"note": 78, "velocity": 103, "duration": 74}, {"note": 76, "velocity": 104, "duration": 61}, {"note": 74, "velocity": 104, "duration": 145}, {"note": 0, "velocity": 0, "duration": 95}, {"note": 71, "velocity": 104, "duration": 92}, {"note": 74, "velocity": 104, "duration": 7}, {"note": 0, "velocity": 0, "duration": 113}, {"note": 71, "velocity": 104, "duration": 199}, {"note": 74, "velocity": 105, "duration": 146}, {"note": 0, "velocity": 0, "duration": 94}, {"note": 71, "velocity": 105, "duration": 84}, {"note": 0, "velocity": 0, "duration": 156}, {"note": 74, "velocity": 105, "duration": 94}, {"note": 0, "velocity": 0, "duration": 146}, {"note": 76, "velocity": 105, "duration": 76}, {"note": 0, "velocity": 0, "duration": 164}, {"note": 78, "velocity": 105, "duration": 777}, {"note": 0, "velocity": 0, "duration": 1440}, {"note": 81, "velocity": 105, "duration": 149}, {"note": 0, "velocity": 0, "duration": 91}, {"note": 83, "velocity": 105, "duration": 86}, {"note": 78, "velocity": 105, "duration": 163}, {"note": 0, "velocity": 0, "duration": 77}, {"note": 76, "velocity": 105, "duration": 325}, {"note": 83, "velocity": 105, "duration": 173}, {"note": 0, "velocity": 0, "duration": 67}, {"note": 81, "velocity": 105, "duration": 54}, {"note": 0, "velocity": 0, "duration": 66}, {"note": 78, "velocity": 105, "duration": 353}, {"note": 0, "velocity": 0, "duration": 487}, {"note": 78, "velocity": 105, "duration": 117}, {"note": 76, "velocity": 105, "duration": 60}, {"note": 74, "velocity": 105, "duration": 135}, {"note": 0, "velocity": 0, "duration": 105}, {"note": 71, "velocity": 105, "duration": 101}, {"note": 74, "velocity": 105, "duration": 3}, {"note": 0, "velocity": 0, "duration": 117}, {"note": 71, "velocity": 105, "duration": 173}, {"note": 0, "velocity": 0, "duration": 67}, {"note": 74, "velocity": 105, "duration": 118}, {"note": 0, "velocity": 0, "duration": 122}, {"note": 76, "velocity": 105, "duration": 136}, {"note": 0, "velocity": 0, "duration": 104}, {"note": 78, "velocity": 105, "duration": 147}, {"note": 0, "velocity": 0, "duration": 93}, {"note": 81, "velocity": 105, "duration": 150}, {"note": 0, "velocity": 0, "duration": 210}, {"note": 78, "velocity": 105, "duration": 329}, {"note": 71, "velocity": 105, "duration": 731}, {"note": 0, "velocity": 0, "duration": 720}, {"note": 83, "velocity": 105, "duration": 50}, {"note": 0, "velocity": 0, "duration": 70}, {"note": 83, "velocity": 105, "duration": 41}, {"note": 0, "velocity": 0, "duration": 79}, {"note": 83, "velocity": 105, "duration": 109}, {"note": 0, "velocity": 0, "duration": 131}, {"note": 81, "velocity": 105, "duration": 42}, {"note": 0, "velocity": 0, "duration": 78}, {"note": 81, "velocity": 105, "duration": 37}, {"note": 0, "velocity": 0, "duration": 83}, {"note": 81, "velocity": 105, "duration": 49}, {"note": 0, "velocity": 0, "duration": 311}, {"note": 81, "velocity": 105, "duration": 45}, {"note": 81, "velocity": 105, "duration": 136}, {"note": 0, "velocity": 0, "duration": 104}, {"note": 83, "velocity": 105, "duration": 116}, {"note": 0, "velocity": 0, "duration": 124}, {"note": 81, "velocity": 105, "duration": 110}, {"note": 0, "velocity": 0, "duration": 130}, {"note": 76, "velocity": 105, "duration": 108}, {"note": 78, "velocity": 105, "duration": 602}, {"note": 0, "velocity": 0, "duration": 240}, {"note": 83, "velocity": 105, "duration": 47}, {"note": 0, "velocity": 0, "duration": 73}, {"note": 83, "velocity": 105, "duration": 45}, {"note": 0, "velocity": 0, "duration": 75}, {"note": 83, "velocity": 105, "duration": 38}, {"note": 0, "velocity": 0, "duration": 82}, {"note": 85, "velocity": 105, "duration": 155}, {"note": 0, "velocity": 0, "duration": 85}, {"note": 83, "velocity": 105, "duration": 51}, {"note": 0, "velocity": 0, "duration": 69}, {"note": 81, "velocity": 105, "duration": 67}, {"note": 81, "velocity": 105, "duration": 43}, {"note": 0, "velocity": 0, "duration": 77}, {"note": 81, "velocity": 105, "duration": 44}, {"note": 0, "velocity": 0, "duration": 196}, {"note": 81, "velocity": 105, "duration": 58}, {"note": 0, "velocity": 0, "duration": 62}, {"note": 81, "velocity": 105, "duration": 53}, {"note": 0, "velocity": 0, "duration": 187}, {"note": 78, "velocity": 105, "duration": 110}, {"note": 0, "velocity": 0, "duration": 130}, {"note": 83, "velocity": 105, "duration": 535}, {"note": 0, "velocity": 0, "duration": 665}, {"note": 86, "velocity": 105, "duration": 60}, {"note": 86, "velocity": 105, "duration": 77}, {"note": 85, "velocity": 105, "duration": 81}, {"note": 83, "velocity": 105, "duration": 300}, {"note": 0, "velocity": 0, "duration": 420}, {"note": 81, "velocity": 105, "duration": 253}, {"note": 83, "velocity": 105, "duration": 96}, {"note": 78, "velocity": 105, "duration": 187}, {"note": 76, "velocity": 106, "duration": 485}, {"note": 0, "velocity": 0, "duration": 835}, {"note": 83, "velocity": 108, "duration": 173}, {"note": 0, "velocity": 0, "duration": 67}, {"note": 81, "velocity": 108, "duration": 56}, {"note": 0, "velocity": 0, "duration": 64}, {"note": 78, "velocity": 108, "duration": 515}, {"note": 0, "velocity": 0, "duration": 325}, {"note": 78, "velocity": 108, "duration": 74}, {"note": 76, "velocity": 108, "duration": 61}, {"note": 74, "velocity": 108, "duration": 145}, {"note": 0, "velocity": 0, "duration": 95}, {"note": 71, "velocity": 108, "duration": 92}, {"note": 74, "velocity": 108, "duration": 127}, {"note": 0, "velocity": 0, "duration": 113}, {"note": 71, "velocity": 108, "duration": 199}, {"note": 74, "velocity": 108, "duration": 146}, {"note": 0, "velocity": 0, "duration": 94}, {"note": 71, "velocity": 109, "duration": 84}, {"note": 0, "velocity": 0, "duration": 156}, {"note": 74, "velocity": 109, "duration": 94}, {"note": 0, "velocity": 0, "duration": 146}, {"note": 76, "velocity": 109, "duration": 76}, {"note": 0, "velocity": 0, "duration": 164}, {"note": 78, "velocity": 109, "duration": 777}, {"note": 0, "velocity": 0, "duration": 1743}, {"note": 81, "velocity": 110, "duration": 149}, {"note": 0, "velocity": 0, "duration": 91}, {"note": 83, "velocity": 110, "duration": 86}, {"note": 78, "velocity": 110, "duration": 163}, {"note": 0, "velocity": 0, "duration": 77}, {"note": 76, "velocity": 110, "duration": 325}, {"note": 86, "velocity": 112, "duration": 155}, {"note": 0, "velocity": 0, "duration": 85}, {"note": 85, "velocity": 112, "duration": 60}, {"note": 83, "velocity": 112, "duration": 408}, {"note": 0, "velocity": 0, "duration": 432}, {"note": 83, "velocity": 112, "duration": 81}, {"note": 85, "velocity": 112, "duration": 57}, {"note": 0, "velocity": 0, "duration": 63}, {"note": 86, "velocity": 112, "duration": 114}, {"note": 0, "velocity": 0, "duration": 126}, {"note": 85, "velocity": 112, "duration": 84}, {"note": 86, "velocity": 112, "duration": 131}, {"note": 0, "velocity": 0, "duration": 109}, {"note": 85, "velocity": 112, "duration": 128}, {"note": 0, "velocity": 0, "duration": 112}, {"note": 83, "velocity": 112, "duration": 117}, {"note": 0, "velocity": 0, "duration": 123}, {"note": 81, "velocity": 112, "duration": 294}, {"note": 81, "velocity": 112, "duration": 60}, {"note": 0, "velocity": 0, "duration": 180}, {"note": 81, "velocity": 112, "duration": 370}, {"note": 0, "velocity": 0, "duration": 110}, {"note": 78, "velocity": 112, "duration": 192}, {"note": 83, "velocity": 113, "duration": 2328}]]