[[{"note": 83, "velocity": 99, "duration": 235}, {"note": 80, "velocity": 112, "duration": 244}, {"note": 76, "velocity": 117, "duration": 12}, {"note": 73, "velocity": 89, "duration": 235}, {"note": 76, "velocity": 127, "duration": 241}, {"note": 71, "velocity": 85, "duration": 406}, {"note": 0, "velocity": 0, "duration": 314}, {"note": 73, "velocity": 117, "duration": 234}, {"note": 76, "velocity": 99, "duration": 192}, {"note": 76, "velocity": 96, "duration": 162}, {"note": 0, "velocity": 0, "duration": 78}, {"note": 68, "velocity": 127, "duration": 198}, {"note": 71, "velocity": 107, "duration": 695}, {"note": 0, "velocity": 0, "duration": 265}, {"note": 83, "velocity": 99, "duration": 235}, {"note": 80, "velocity": 112, "duration": 244}, {"note": 76, "velocity": 117, "duration": 12}, {"note": 73, "velocity": 89, "duration": 235}, {"note": 76, "velocity": 127, "duration": 241}, {"note": 71, "velocity": 85, "duration": 406}, {"note": 0, "velocity": 0, "duration": 314}, {"note": 73, "velocity": 122, "duration": 202}, {"note": 76, "velocity": 100, "duration": 178}, {"note": 0, "velocity": 0, "duration": 62}, {"note": 71, "velocity": 112, "duration": 190}, {"note": 83, "velocity": 107, "duration": 198}, {"note": 83, "velocity": 117, "duration": 231}, {"note": 78, "velocity": 122, "duration": 463}, {"note": 0, "velocity": 0, "duration": 257}, {"note": 80, "velocity": 127, "duration": 378}, {"note": 0, "velocity": 0, "duration": 102}, {"note": 80, "velocity": 127, "duration": 229}, {"note": 0, "velocity": 0, "duration": 251}, {"note": 83, "velocity": 117, "duration": 170}, {"note": 0, "velocity": 0, "duration": 70}, {"note": 73, "velocity": 102, "duration": 193}, {"note": 76, "velocity": 117, "duration": 382}, {"note": 0, "velocity": 0, "duration": 98}, {"note": 80, "velocity": 127, "duration": 51}, {"note": 0, "velocity": 0, "duration": 69}, {"note": 80, "velocity": 122, "duration": 59}, {"note": 0, "velocity": 0, "duration": 61}, {"note": 80, "velocity": 122, "duration": 50}, {"note": 0, "velocity": 0, "duration": 70}, {"note": 80, "velocity": 117, "duration": 54}, {"note": 0, "velocity": 0, "duration": 66}, {"note": 80, "velocity": 127, "duration": 102}, {"note": 0, "velocity": 0, "duration": 138}, {"note": 80, "velocity": 127, "duration": 161}, {"note": 0, "velocity": 0, "duration": 79}, {"note": 83, "velocity": 107, "duration": 133}, {"note": 0, "velocity": 0, "duration": 107}, {"note": 73, "velocity": 112, "duration": 217}, {"note": 76, "velocity": 122, "duration": 346}, {"note": 0, "velocity": 0, "duration": 134}, {"note": 78, "velocity": 122, "duration": 190}, {"note": 78, "velocity": 112, "duration": 165}, {"note": 0, "velocity": 0, "duration": 75}, {"note": 78, "velocity": 117, "duration": 171}, {"note": 0, "velocity": 0, "duration": 69}, {"note": 83, "velocity": 117, "duration": 155}, {"note": 0, "velocity": 0, "duration": 85}, {"note": 83, "velocity": 127, "duration": 766}, {"note": 0, "velocity": 0, "duration": 194}, {"note": 85, "velocity": 127, "duration": 247}, {"note": 0, "velocity": 0, "duration": 113}, {"note": 85, "velocity": 122, "duration": 52}, {"note": 0, "velocity": 0, "duration": 68}, {"note": 85, "velocity": 127, "duration": 150}, {"note": 0, "velocity": 0, "duration": 90}, {"note": 83, "velocity": 102, "duration": 142}, {"note": 0, "velocity": 0, "duration": 98}, {"note": 85, "velocity": 127, "duration": 158}, {"note": 0, "velocity": 0, "duration": 82}, {"note": 80, "velocity": 127, "duration": 123}, {"note": 83, "velocity": 102, "duration": 125}, {"note": 80, "velocity": 127, "duration": 214}, {"note": 78, "velocity": 127, "duration": 155}, {"note": 0, "velocity": 0, "duration": 85}, {"note": 78, "velocity": 122, "duration": 163}, {"note": 0, "velocity": 0, "duration": 77}, {"note": 78, "velocity": 112, "duration": 140}, {"note": 76, "velocity": 85, "duration": 93}, {"note": 73, "velocity": 112, "duration": 380}, {"note": 0, "velocity": 0, "duration": 100}, {"note": 71, "velocity": 102, "duration": 251}, {"note": 0, "velocity": 0, "duration": 229}, {"note": 71, "velocity": 112, "duration": 70}, {"note": 71, "velocity": 95, "duration": 114}, {"note": 73, "velocity": 117, "duration": 129}, {"note": 75, "velocity": 112, "duration": 120}, {"note": 71, "velocity": 112, "duration": 734}, {"note": 0, "velocity": 0, "duration": 1186}, {"note": 80, "velocity": 127, "duration": 276}, {"note": 0, "velocity": 0, "duration": 84}, {"note": 80, "velocity": 117, "duration": 60}, {"note": 80, "velocity": 117, "duration": 150}, {"note": 0, "velocity": 0, "duration": 90}, {"note": 80, "velocity": 122, "duration": 51}, {"note": 0, "velocity": 0, "duration": 69}, {"note": 80, "velocity": 112, "duration": 79}, {"note": 83, "velocity": 112, "duration": 153}, {"note": 0, "velocity": 0, "duration": 87}, {"note": 73, "velocity": 127, "duration": 187}, {"note": 76, "velocity": 127, "duration": 196}, {"note": 76, "velocity": 127, "duration": 56}, {"note": 0, "velocity": 0, "duration": 184}, {"note": 80, "velocity": 127, "duration": 207}, {"note": 0, "velocity": 0, "duration": 153}, {"note": 80, "velocity": 127, "duration": 48}, {"note": 0, "velocity": 0, "duration": 72}, {"note": 80, "velocity": 127, "duration": 131}, {"note": 0, "velocity": 0, "duration": 109}, {"note": 80, "velocity": 127, "duration": 43}, {"note": 0, "velocity": 0, "duration": 77}, {"note": 80, "velocity": 117, "duration": 41}, {"note": 0, "velocity": 0, "duration": 79}, {"note": 83, "velocity": 107, "duration": 149}, {"note": 0, "velocity": 0, "duration": 91}, {"note": 73, "velocity": 107, "duration": 230}, {"note": 71, "velocity": 112, "duration": 237}, {"note": 0, "velocity": 0, "duration": 243}, {"note": 83, "velocity": 127, "duration": 235}, {"note": 0, "velocity": 0, "duration": 125}, {"note": 83, "velocity": 102, "duration": 60}, {"note": 83, "velocity": 112, "duration": 150}, {"note": 0, "velocity": 0, "duration": 90}, {"note": 83, "velocity": 117, "duration": 54}, {"note": 0, "velocity": 0, "duration": 66}, {"note": 83, "velocity": 102, "duration": 55}, {"note": 0, "velocity": 0, "duration": 65}, {"note": 85, "velocity": 122, "duration": 93}, {"note": 0, "velocity": 0, "duration": 147}, {"note": 80, "velocity": 127, "duration": 202}, {"note": 78, "velocity": 127, "duration": 217}, {"note": 0, "velocity": 0, "duration": 263}, {"note": 83, "velocity": 122, "duration": 260}, {"note": 0, "velocity": 0, "duration": 100}, {"note": 83, "velocity": 127, "duration": 69}, {"note": 83, "velocity": 102, "duration": 147}, {"note": 0, "velocity": 0, "duration": 93}, {"note": 83, "velocity": 107, "duration": 55}, {"note": 0, "velocity": 0, "duration": 65}, {"note": 83, "velocity": 97, "duration": 72}, {"note": 85, "velocity": 122, "duration": 144}, {"note": 0, "velocity": 0, "duration": 96}, {"note": 80, "velocity": 127, "duration": 158}, {"note": 0, "velocity": 0, "duration": 82}, {"note": 78, "velocity": 127, "duration": 210}, {"note": 0, "velocity": 0, "duration": 510}, {"note": 78, "velocity": 117, "duration": 168}, {"note": 0, "velocity": 0, "duration": 72}, {"note": 78, "velocity": 127, "duration": 147}, {"note": 0, "velocity": 0, "duration": 93}, {"note": 76, "velocity": 102, "duration": 182}, {"note": 78, "velocity": 127, "duration": 163}, {"note": 0, "velocity": 0, "duration": 317}, {"note": 83, "velocity": 122, "duration": 237}, {"note": 80, "velocity": 117, "duration": 246}, {"note": 83, "velocity": 122, "duration": 1835}, {"note": 0, "velocity": 0, "duration": 325}, {"note": 85, "velocity": 127, "duration": 201}, {"note": 83, "velocity": 127, "duration": 164}, {"note": 0, "velocity": 0, "duration": 76}, {"note": 85, "velocity": 122, "duration": 145}, {"note": 0, "velocity": 0, "duration": 95}, {"note": 80, "velocity": 127, "duration": 184}, {"note": 0, "velocity": 0, "duration": 176}, {"note": 83, "velocity": 102, "duration": 99}, {"note": 80, "velocity": 122, "duration": 234}, {"note": 78, "velocity": 122, "duration": 139}, {"note": 0, "velocity": 0, "duration": 101}, {"note": 78, "velocity": 127, "duration": 185}, {"note": 76, "velocity": 117, "duration": 122}, {"note": 75, "velocity": 95, "duration": 97}, {"note": 73, "velocity": 122, "duration": 196}, {"note": 73, "velocity": 127, "duration": 179}, {"note": 0, "velocity": 0, "duration": 61}, {"note": 71, "velocity": 127, "duration": 509}, {"note": 83, "velocity": 127, "duration": 216}, {"note": 85, "velocity": 127, "duration": 296}, {"note": 83, "velocity": 127, "duration": 1411}, {"note": 0, "velocity": 0, "duration": 367}, {"note": 83, "velocity": 99, "duration": 235}, {"note": 80, "velocity": 112, "duration": 244}, {"note": 76, "velocity": 117, "duration": 12}, {"note": 73, "velocity": 89, "duration": 235}, {"note": 76, "velocity": 127, "duration": 241}, {"note": 71, "velocity": 85, "duration": 406}, {"note": 0, "velocity": 0, "duration": 314}, {"note": 73, "velocity": 117, "duration": 234}, {"note": 76, "velocity": 99, "duration": 192}, {"note": 76, "velocity": 96, "duration": 162}, {"note": 0, "velocity": 0, "duration": 78}, {"note": 68, "velocity": 127, "duration": 198}, {"note": 71, "velocity": 107, "duration": 695}, {"note": 0, "velocity": 0, "duration": 265}, {"note": 83, "velocity": 99, "duration": 235}, {"note": 80, "velocity": 112, "duration": 244}, {"note": 76, "velocity": 117, "duration": 12}, {"note": 73, "velocity": 89, "duration": 235}, {"note": 76, "velocity": 127, "duration": 241}, {"note": 71, "velocity": 85, "duration": 406}, {"note": 0, "velocity": 0, "duration": 314}, {"note": 73, "velocity": 122, "duration": 202}, {"note": 76, "velocity": 100, "duration": 178}, {"note": 0, "velocity": 0, "duration": 62}, {"note": 71, "velocity": 112, "duration": 190}, {"note": 83, "velocity": 107, "duration": 198}, {"note": 83, "velocity": 117, "duration": 231}, {"note": 78, "velocity": 122, "duration": 463}, {"note": 0, "velocity": 0, "duration": 257}, {"note": 80, "velocity": 127, "duration": 378}, {"note": 0, "velocity": 0, "duration": 102}, {"note": 80, "velocity": 127, "duration": 229}, {"note": 0, "velocity": 0, "duration": 251}, {"note": 83, "velocity": 117, "duration": 170}, {"note": 0, "velocity": 0, "duration": 70}, {"note": 73, "velocity": 102, "duration": 193}, {"note": 76, "velocity": 117, "duration": 382}, {"note": 0, "velocity": 0, "duration": 98}, {"note": 80, "velocity": 127, "duration": 51}, {"note": 0, "velocity": 0, "duration": 69}, {"note": 80, "velocity": 122, "duration": 59}, {"note": 0, "velocity": 0, "duration": 61}, {"note": 80, "velocity": 122, "duration": 50}, {"note": 0, "velocity": 0, "duration": 70}, {"note": 80, "velocity": 117, "duration": 54}, {"note": 0, "velocity": 0, "duration": 66}, {"note": 80, "velocity": 127, "duration": 102}, {"note": 0, "velocity": 0, "duration": 138}, {"note": 80, "velocity": 127, "duration": 161}, {"note": 0, "velocity": 0, "duration": 79}, {"note": 83, "velocity": 107, "duration": 133}, {"note": 0, "velocity": 0, "duration": 107}, {"note": 73, "velocity": 112, "duration": 217}, {"note": 76, "velocity": 122, "duration": 346}, {"note": 0, "velocity": 0, "duration": 134}, {"note": 78, "velocity": 122, "duration": 190}, {"note": 78, "velocity": 112, "duration": 165}, {"note": 0, "velocity": 0, "duration": 75}, {"note": 78, "velocity": 117, "duration": 171}, {"note": 0, "velocity": 0, "duration": 69}, {"note": 83, "velocity": 117, "duration": 155}, {"note": 0, "velocity": 0, "duration": 85}, {"note": 83, "velocity": 127, "duration": 766}, {"note": 0, "velocity": 0, "duration": 194}, {"note": 85, "velocity": 127, "duration": 247}, {"note": 0, "velocity": 0, "duration": 113}, {"note": 85, "velocity": 122, "duration": 52}, {"note": 0, "velocity": 0, "duration": 68}, {"note": 85, "velocity": 127, "duration": 150}, {"note": 0, "velocity": 0, "duration": 90}, {"note": 83, "velocity": 102, "duration": 142}, {"note": 0, "velocity": 0, "duration": 98}, {"note": 85, "velocity": 127, "duration": 158}, {"note": 0, "velocity": 0, "duration": 82}, {"note": 80, "velocity": 127, "duration": 123}, {"note": 83, "velocity": 102, "duration": 125}, {"note": 80, "velocity": 127, "duration": 214}, {"note": 78, "velocity": 127, "duration": 155}, {"note": 0, "velocity": 0, "duration": 85}, {"note": 78, "velocity": 122, "duration": 163}, {"note": 0, "velocity": 0, "duration": 77}, {"note": 78, "velocity": 112, "duration": 140}, {"note": 76, "velocity": 85, "duration": 93}, {"note": 73, "velocity": 112, "duration": 380}, {"note": 0, "velocity": 0, "duration": 100}, {"note": 71, "velocity": 102, "duration": 251}, {"note": 0, "velocity": 0, "duration": 229}, {"note": 71, "velocity": 112, "duration": 70}, {"note": 71, "velocity": 95, "duration": 114}, {"note": 73, "velocity": 117, "duration": 129}, {"note": 75, "velocity": 112, "duration": 120}, {"note": 71, "velocity": 112, "duration": 734}, {"note": 0, "velocity": 0, "duration": 1186}, {"note": 80, "velocity": 127, "duration": 276}, {"note": 0, "velocity": 0, "duration": 84}, {"note": 80, "velocity": 117, "duration": 60}, {"note": 80, "velocity": 117, "duration": 150}, {"note": 0, "velocity": 0, "duration": 90}, {"note": 80, "velocity": 122, "duration": 51}, {"note": 0, "velocity": 0, "duration": 69}, {"note": 80, "velocity": 112, "duration": 79}, {"note": 83, "velocity": 112, "duration": 153}, {"note": 0, "velocity": 0, "duration": 87}, {"note": 73, "velocity": 127, "duration": 187}, {"note": 76, "velocity": 127, "duration": 196}, {"note": 76, "velocity": 127, "duration": 56}, {"note": 0, "velocity": 0, "duration": 184}, {"note": 80, "velocity": 127, "duration": 207}, {"note": 0, "velocity": 0, "duration": 153}, {"note": 80, "velocity": 127, "duration": 48}, {"note": 0, "velocity": 0, "duration": 72}, {"note": 80, "velocity": 127, "duration": 131}, {"note": 0, "velocity": 0, "duration": 109}, {"note": 80, "velocity": 127, "duration": 43}, {"note": 0, "velocity": 0, "duration": 77}, {"note": 80, "velocity": 117, "duration": 41}, {"note": 0, "velocity": 0, "duration": 79}, {"note": 83, "velocity": 107, "duration": 149}, {"note": 0, "velocity": 0, "duration": 91}, {"note": 73, "velocity": 107, "duration": 230}, {"note": 71, "velocity": 112, "duration": 237}, {"note": 0, "velocity": 0, "duration": 243}, {"note": 83, "velocity": 127, "duration": 235}, {"note": 0, "velocity": 0, "duration": 125}, {"note": 83, "velocity": 102, "duration": 60}, {"note": 83, "velocity": 112, "duration": 150}, {"note": 0, "velocity": 0, "duration": 90}, {"note": 83, "velocity": 117, "duration": 54}, {"note": 0, "velocity": 0, "duration": 66}, {"note": 83, "velocity": 102, "duration": 55}, {"note": 0, "velocity": 0, "duration": 65}, {"note": 85, "velocity": 122, "duration": 93}, {"note": 0, "velocity": 0, "duration": 147}, {"note": 80, "velocity": 127, "duration": 202}, {"note": 78, "velocity": 127, "duration": 217}, {"note": 0, "velocity": 0, "duration": 263}, {"note": 83, "velocity": 122, "duration": 260}, {"note": 0, "velocity": 0, "duration": 100}, {"note": 83, "velocity": 127, "duration": 69}, {"note": 83, "velocity": 102, "duration": 147}, {"note": 0, "velocity": 0, "duration": 93}, {"note": 83, "velocity": 107, "duration": 55}, {"note": 0, "velocity": 0, "duration": 65}, {"note": 83, "velocity": 97, "duration": 72}, {"note": 85, "velocity": 122, "duration": 144}, {"note": 0, "velocity": 0, "duration": 96}, {"note": 80, "velocity": 127, "duration": 158}, {"note": 0, "velocity": 0, "duration": 82}, {"note": 78, "velocity": 127, "duration": 210}, {"note": 0, "velocity": 0, "duration": 510}, {"note": 78, "velocity": 117, "duration": 168}, {"note": 0, "velocity": 0, "duration": 72}, {"note": 78, "velocity": 127, "duration": 147}, {"note": 0, "velocity": 0, "duration": 93}, {"note": 76, "velocity": 102, "duration": 182}, {"note": 78, "velocity": 127, "duration": 163}, {"note": 0, "velocity": 0, "duration": 317}, {"note": 83, "velocity": 122, "duration": 237}, {"note": 80, "velocity": 117, "duration": 246}, {"note": 83, "velocity": 122, "duration": 1835}, {"note": 0, "velocity": 0, "duration": 325}, {"note": 85, "velocity": 127, "duration": 201}, {"note": 83, "velocity": 127, "duration": 164}, {"note": 0, "velocity": 0, "duration": 76}, {"note": 85, "velocity": 122, "duration": 145}, {"note": 0, "velocity": 0, "duration": 95}, {"note": 80, "velocity": 127, "duration": 184}, {"note": 0, "velocity": 0, "duration": 176}, {"note": 83, "velocity": 102, "duration": 99}, {"note": 80, "velocity": 122, "duration": 234}, {"note": 78, "velocity": 122, "duration": 139}, {"note": 0, "velocity": 0, "duration": 101}, {"note": 78, "velocity": 127, "duration": 185}, {"note": 76, "velocity": 117, "duration": 122}, {"note": 75, "velocity": 95, "duration": 97}, {"note": 73, "velocity": 122, "duration": 196}, {"note": 73, "velocity": 127, "duration": 179}, {"note": 0, "velocity": 0, "duration": 61}, {"note": 71, "velocity": 127, "duration": 509}, {"note": 83, "velocity": 127, "duration": 477}, {"note": 85, "velocity": 127, "duration": 1563}, {"note": 0, "velocity": 0, "duration": 357}, {"note": 83, "velocity": 127, "duration": 1962}]]