[[{"note": 75, "velocity": 127, "duration": 158}, {"note": 0, "velocity": 0, "duration": 82}, {"note": 75, "velocity": 112, "duration": 188}, {"note": 75, "velocity": 117, "duration": 425}, {"note": 75, "velocity": 100, "duration": 185}, {"note": 75, "velocity": 97, "duration": 168}, {"note": 0, "velocity": 0, "duration": 72}, {"note": 75, "velocity": 97, "duration": 208}, {"note": 73, "velocity": 100, "duration": 466}, {"note": 0, "velocity": 0, "duration": 254}, {"note": 71, "velocity": 102, "duration": 482}, {"note": 0, "velocity": 0, "duration": 1198}, {"note": 73, "velocity": 102, "duration": 111}, {"note": 0, "velocity": 0, "duration": 129}, {"note": 73, "velocity": 90, "duration": 101}, {"note": 0, "velocity": 0, "duration": 139}, {"note": 73, "velocity": 88, "duration": 110}, {"note": 0, "velocity": 0, "duration": 130}, {"note": 73, "velocity": 107, "duration": 130}, {"note": 0, "velocity": 0, "duration": 350}, {"note": 78, "velocity": 107, "duration": 131}, {"note": 78, "velocity": 107, "duration": 209}, {"note": 0, "velocity": 0, "duration": 271}, {"note": 76, "velocity": 99, "duration": 152}, {"note": 0, "velocity": 0, "duration": 328}, {"note": 75, "velocity": 117, "duration": 186}, {"note": 73, "velocity": 127, "duration": 204}, {"note": 0, "velocity": 0, "duration": 996}, {"note": 76, "velocity": 112, "duration": 115}, {"note": 0, "velocity": 0, "duration": 125}, {"note": 75, "velocity": 100, "duration": 103}, {"note": 0, "velocity": 0, "duration": 137}, {"note": 76, "velocity": 117, "duration": 102}, {"note": 0, "velocity": 0, "duration": 618}, {"note": 80, "velocity": 127, "duration": 138}, {"note": 0, "velocity": 0, "duration": 102}, {"note": 80, "velocity": 122, "duration": 160}, {"note": 0, "velocity": 0, "duration": 200}, {"note": 78, "velocity": 122, "duration": 85}, {"note": 0, "velocity": 0, "duration": 240}, {"note": 76, "velocity": 102, "duration": 167}, {"note": 0, "velocity": 0, "duration": 480}, {"note": 73, "velocity": 102, "duration": 323}, {"note": 75, "velocity": 117, "duration": 10}, {"note": 0, "velocity": 0, "duration": 1910}, {"note": 76, "velocity": 93, "duration": 128}, {"note": 0, "velocity": 0, "duration": 112}, {"note": 76, "velocity": 102, "duration": 99}, {"note": 76, "velocity": 112, "duration": 119}, {"note": 0, "velocity": 0, "duration": 121}, {"note": 76, "velocity": 100, "duration": 117}, {"note": 0, "velocity": 0, "duration": 123}, {"note": 76, "velocity": 102, "duration": 149}, {"note": 0, "velocity": 0, "duration": 91}, {"note": 78, "velocity": 107, "duration": 114}, {"note": 0, "velocity": 0, "duration": 126}, {"note": 80, "velocity": 127, "duration": 291}, {"note": 0, "velocity": 0, "duration": 189}, {"note": 80, "velocity": 127, "duration": 100}, {"note": 0, "velocity": 0, "duration": 140}, {"note": 80, "velocity": 122, "duration": 150}, {"note": 0, "velocity": 0, "duration": 330}, {"note": 82, "velocity": 127, "duration": 177}, {"note": 83, "velocity": 127, "duration": 303}, {"note": 0, "velocity": 0, "duration": 177}, {"note": 82, "velocity": 127, "duration": 158}, {"note": 0, "velocity": 0, "duration": 82}, {"note": 80, "velocity": 127, "duration": 25}, {"note": 0, "velocity": 0, "duration": 215}, {"note": 82, "velocity": 127, "duration": 348}, {"note": 0, "velocity": 0, "duration": 132}, {"note": 75, "velocity": 127, "duration": 727}, {"note": 0, "velocity": 0, "duration": 1913}, {"note": 76, "velocity": 102, "duration": 142}, {"note": 0, "velocity": 0, "duration": 98}, {"note": 76, "velocity": 112, "duration": 101}, {"note": 0, "velocity": 0, "duration": 139}, {"note": 76, "velocity": 112, "duration": 109}, {"note": 0, "velocity": 0, "duration": 131}, {"note": 76, "velocity": 122, "duration": 128}, {"note": 0, "velocity": 0, "duration": 112}, {"note": 76, "velocity": 122, "duration": 139}, {"note": 0, "velocity": 0, "duration": 101}, {"note": 78, "velocity": 127, "duration": 215}, {"note": 80, "velocity": 122, "duration": 198}, {"note": 0, "velocity": 0, "duration": 282}, {"note": 80, "velocity": 127, "duration": 194}, {"note": 83, "velocity": 97, "duration": 370}, {"note": 0, "velocity": 0, "duration": 110}, {"note": 80, "velocity": 127, "duration": 291}, {"note": 0, "velocity": 0, "duration": 909}, {"note": 82, "velocity": 127, "duration": 124}, {"note": 0, "velocity": 0, "duration": 116}, {"note": 82, "velocity": 112, "duration": 98}, {"note": 0, "velocity": 0, "duration": 142}, {"note": 82, "velocity": 122, "duration": 329}, {"note": 0, "velocity": 0, "duration": 151}, {"note": 80, "velocity": 122, "duration": 214}, {"note": 82, "velocity": 122, "duration": 624}, {"note": 0, "velocity": 0, "duration": 1536}, {"note": 80, "velocity": 122, "duration": 142}, {"note": 0, "velocity": 0, "duration": 98}, {"note": 80, "velocity": 117, "duration": 173}, {"note": 0, "velocity": 0, "duration": 67}, {"note": 82, "velocity": 117, "duration": 173}, {"note": 0, "velocity": 0, "duration": 67}, {"note": 87, "velocity": 127, "duration": 177}, {"note": 0, "velocity": 0, "duration": 63}, {"note": 82, "velocity": 127, "duration": 177}, {"note": 0, "velocity": 0, "duration": 63}, {"note": 80, "velocity": 112, "duration": 192}, {"note": 82, "velocity": 127, "duration": 140}, {"note": 0, "velocity": 0, "duration": 100}, {"note": 87, "velocity": 127, "duration": 265}, {"note": 0, "velocity": 0, "duration": 215}, {"note": 82, "velocity": 127, "duration": 436}, {"note": 0, "velocity": 0, "duration": 764}, {"note": 80, "velocity": 127, "duration": 160}, {"note": 0, "velocity": 0, "duration": 80}, {"note": 78, "velocity": 122, "duration": 242}, {"note": 80, "velocity": 127, "duration": 147}, {"note": 0, "velocity": 0, "duration": 93}, {"note": 80, "velocity": 127, "duration": 167}, {"note": 0, "velocity": 0, "duration": 73}, {"note": 80, "velocity": 127, "duration": 123}, {"note": 0, "velocity": 0, "duration": 117}, {"note": 78, "velocity": 127, "duration": 123}, {"note": 0, "velocity": 0, "duration": 117}, {"note": 80, "velocity": 127, "duration": 159}, {"note": 0, "velocity": 0, "duration": 81}, {"note": 78, "velocity": 117, "duration": 160}, {"note": 0, "velocity": 0, "duration": 80}, {"note": 71, "velocity": 112, "duration": 195}, {"note": 73, "velocity": 122, "duration": 506}, {"note": 75, "velocity": 127, "duration": 800}, {"note": 0, "velocity": 0, "duration": 640}, {"note": 75, "velocity": 127, "duration": 144}, {"note": 0, "velocity": 0, "duration": 96}, {"note": 76, "velocity": 107, "duration": 144}, {"note": 0, "velocity": 0, "duration": 96}, {"note": 75, "velocity": 117, "duration": 118}, {"note": 0, "velocity": 0, "duration": 122}, {"note": 76, "velocity": 117, "duration": 127}, {"note": 0, "velocity": 0, "duration": 113}, {"note": 75, "velocity": 127, "duration": 111}, {"note": 76, "velocity": 112, "duration": 109}, {"note": 0, "velocity": 0, "duration": 131}, {"note": 75, "velocity": 117, "duration": 167}, {"note": 0, "velocity": 0, "duration": 73}, {"note": 76, "velocity": 112, "duration": 128}, {"note": 0, "velocity": 0, "duration": 112}, {"note": 87, "velocity": 127, "duration": 378}, {"note": 0, "velocity": 0, "duration": 102}, {"note": 82, "velocity": 127, "duration": 798}, {"note": 0, "velocity": 0, "duration": 642}, {"note": 82, "velocity": 102, "duration": 135}, {"note": 0, "velocity": 0, "duration": 105}, {"note": 83, "velocity": 102, "duration": 123}, {"note": 0, "velocity": 0, "duration": 117}, {"note": 83, "velocity": 100, "duration": 95}, {"note": 0, "velocity": 0, "duration": 145}, {"note": 83, "velocity": 107, "duration": 87}, {"note": 0, "velocity": 0, "duration": 153}, {"note": 83, "velocity": 97, "duration": 76}, {"note": 0, "velocity": 0, "duration": 164}, {"note": 83, "velocity": 117, "duration": 125}, {"note": 0, "velocity": 0, "duration": 235}, {"note": 82, "velocity": 127, "duration": 216}, {"note": 0, "velocity": 0, "duration": 144}, {"note": 80, "velocity": 127, "duration": 157}, {"note": 0, "velocity": 0, "duration": 83}, {"note": 83, "velocity": 112, "duration": 355}, {"note": 82, "velocity": 112, "duration": 1076}, {"note": 0, "velocity": 0, "duration": 484}, {"note": 80, "velocity": 122, "duration": 142}, {"note": 0, "velocity": 0, "duration": 98}, {"note": 80, "velocity": 117, "duration": 173}, {"note": 0, "velocity": 0, "duration": 67}, {"note": 82, "velocity": 117, "duration": 173}, {"note": 0, "velocity": 0, "duration": 67}, {"note": 87, "velocity": 127, "duration": 177}, {"note": 0, "velocity": 0, "duration": 63}, {"note": 82, "velocity": 127, "duration": 177}, {"note": 0, "velocity": 0, "duration": 63}, {"note": 80, "velocity": 112, "duration": 192}, {"note": 82, "velocity": 127, "duration": 140}, {"note": 0, "velocity": 0, "duration": 100}, {"note": 87, "velocity": 127, "duration": 265}, {"note": 0, "velocity": 0, "duration": 215}, {"note": 82, "velocity": 127, "duration": 436}, {"note": 0, "velocity": 0, "duration": 764}, {"note": 80, "velocity": 127, "duration": 160}, {"note": 0, "velocity": 0, "duration": 80}, {"note": 78, "velocity": 122, "duration": 242}, {"note": 80, "velocity": 127, "duration": 147}, {"note": 0, "velocity": 0, "duration": 93}, {"note": 80, "velocity": 127, "duration": 167}, {"note": 0, "velocity": 0, "duration": 73}, {"note": 80, "velocity": 127, "duration": 123}, {"note": 0, "velocity": 0, "duration": 117}, {"note": 78, "velocity": 127, "duration": 123}, {"note": 0, "velocity": 0, "duration": 117}, {"note": 80, "velocity": 127, "duration": 159}, {"note": 0, "velocity": 0, "duration": 81}, {"note": 78, "velocity": 117, "duration": 160}, {"note": 0, "velocity": 0, "duration": 80}, {"note": 71, "velocity": 112, "duration": 195}, {"note": 73, "velocity": 122, "duration": 323}, {"note": 75, "velocity": 127, "duration": 800}, {"note": 0, "velocity": 0, "duration": 880}, {"note": 75, "velocity": 127, "duration": 144}, {"note": 0, "velocity": 0, "duration": 96}, {"note": 76, "velocity": 107, "duration": 144}, {"note": 0, "velocity": 0, "duration": 96}, {"note": 75, "velocity": 117, "duration": 118}, {"note": 0, "velocity": 0, "duration": 122}, {"note": 76, "velocity": 117, "duration": 127}, {"note": 0, "velocity": 0, "duration": 113}, {"note": 75, "velocity": 127, "duration": 111}, {"note": 76, "velocity": 112, "duration": 109}, {"note": 0, "velocity": 0, "duration": 131}, {"note": 75, "velocity": 117, "duration": 167}, {"note": 0, "velocity": 0, "duration": 73}, {"note": 76, "velocity": 112, "duration": 128}, {"note": 0, "velocity": 0, "duration": 112}, {"note": 87, "velocity": 127, "duration": 378}, {"note": 0, "velocity": 0, "duration": 102}, {"note": 82, "velocity": 127, "duration": 798}, {"note": 82, "velocity": 127, "duration": 183}, {"note": 83, "velocity": 102, "duration": 210}, {"note": 85, "velocity": 127, "duration": 145}, {"note": 0, "velocity": 0, "duration": 95}, {"note": 88, "velocity": 127, "duration": 194}, {"note": 87, "velocity": 127, "duration": 228}, {"note": 85, "velocity": 127, "duration": 225}, {"note": 83, "velocity": 127, "duration": 332}, {"note": 82, "velocity": 117, "duration": 156}, {"note": 0, "velocity": 0, "duration": 84}, {"note": 83, "velocity": 100, "duration": 300}, {"note": 0, "velocity": 0, "duration": 180}, {"note": 80, "velocity": 117, "duration": 428}, {"note": 75, "velocity": 127, "duration": 158}, {"note": 0, "velocity": 0, "duration": 82}, {"note": 75, "velocity": 112, "duration": 188}, {"note": 75, "velocity": 117, "duration": 425}, {"note": 75, "velocity": 100, "duration": 185}, {"note": 75, "velocity": 97, "duration": 168}, {"note": 0, "velocity": 0, "duration": 72}, {"note": 75, "velocity": 97, "duration": 208}, {"note": 73, "velocity": 100, "duration": 466}, {"note": 0, "velocity": 0, "duration": 254}, {"note": 71, "velocity": 102, "duration": 242}, {"note": 0, "velocity": 0, "duration": 1198}, {"note": 73, "velocity": 102, "duration": 111}, {"note": 0, "velocity": 0, "duration": 129}, {"note": 73, "velocity": 90, "duration": 101}, {"note": 0, "velocity": 0, "duration": 139}, {"note": 73, "velocity": 88, "duration": 110}, {"note": 0, "velocity": 0, "duration": 130}, {"note": 73, "velocity": 107, "duration": 130}, {"note": 0, "velocity": 0, "duration": 350}, {"note": 78, "velocity": 107, "duration": 131}, {"note": 0, "velocity": 0, "duration": 109}, {"note": 78, "velocity": 107, "duration": 209}, {"note": 0, "velocity": 0, "duration": 271}, {"note": 76, "velocity": 99, "duration": 152}, {"note": 75, "velocity": 117, "duration": 186}, {"note": 73, "velocity": 127, "duration": 204}, {"note": 0, "velocity": 0, "duration": 480}, {"note": 76, "velocity": 112, "duration": 115}, {"note": 0, "velocity": 0, "duration": 125}, {"note": 75, "velocity": 100, "duration": 103}, {"note": 76, "velocity": 117, "duration": 102}, {"note": 0, "velocity": 0, "duration": 618}, {"note": 80, "velocity": 127, "duration": 138}, {"note": 0, "velocity": 0, "duration": 102}, {"note": 80, "velocity": 122, "duration": 160}, {"note": 0, "velocity": 0, "duration": 200}, {"note": 78, "velocity": 122, "duration": 85}, {"note": 0, "velocity": 0, "duration": 240}, {"note": 76, "velocity": 102, "duration": 167}, {"note": 0, "velocity": 0, "duration": 1033}, {"note": 73, "velocity": 102, "duration": 323}, {"note": 75, "velocity": 117, "duration": 10}, {"note": 0, "velocity": 0, "duration": 1910}, {"note": 76, "velocity": 93, "duration": 128}, {"note": 0, "velocity": 0, "duration": 112}, {"note": 76, "velocity": 102, "duration": 99}, {"note": 0, "velocity": 0, "duration": 141}, {"note": 76, "velocity": 112, "duration": 119}, {"note": 0, "velocity": 0, "duration": 121}, {"note": 76, "velocity": 100, "duration": 117}, {"note": 0, "velocity": 0, "duration": 123}, {"note": 76, "velocity": 102, "duration": 149}, {"note": 0, "velocity": 0, "duration": 91}, {"note": 78, "velocity": 107, "duration": 114}, {"note": 0, "velocity": 0, "duration": 126}, {"note": 80, "velocity": 127, "duration": 291}, {"note": 0, "velocity": 0, "duration": 189}, {"note": 80, "velocity": 127, "duration": 100}, {"note": 0, "velocity": 0, "duration": 140}, {"note": 80, "velocity": 122, "duration": 150}, {"note": 0, "velocity": 0, "duration": 330}, {"note": 82, "velocity": 127, "duration": 177}, {"note": 0, "velocity": 0, "duration": 543}, {"note": 83, "velocity": 127, "duration": 303}, {"note": 0, "velocity": 0, "duration": 177}, {"note": 82, "velocity": 127, "duration": 158}, {"note": 0, "velocity": 0, "duration": 82}, {"note": 80, "velocity": 127, "duration": 265}, {"note": 0, "velocity": 0, "duration": 215}, {"note": 82, "velocity": 127, "duration": 348}, {"note": 0, "velocity": 0, "duration": 132}, {"note": 75, "velocity": 127, "duration": 727}, {"note": 0, "velocity": 0, "duration": 1913}, {"note": 76, "velocity": 102, "duration": 142}, {"note": 0, "velocity": 0, "duration": 98}, {"note": 76, "velocity": 112, "duration": 101}, {"note": 0, "velocity": 0, "duration": 139}, {"note": 76, "velocity": 112, "duration": 109}, {"note": 0, "velocity": 0, "duration": 131}, {"note": 76, "velocity": 122, "duration": 128}, {"note": 0, "velocity": 0, "duration": 112}, {"note": 76, "velocity": 122, "duration": 139}, {"note": 0, "velocity": 0, "duration": 101}, {"note": 78, "velocity": 127, "duration": 215}, {"note": 80, "velocity": 122, "duration": 198}, {"note": 0, "velocity": 0, "duration": 282}, {"note": 80, "velocity": 127, "duration": 194}, {"note": 83, "velocity": 97, "duration": 370}, {"note": 0, "velocity": 0, "duration": 110}, {"note": 80, "velocity": 127, "duration": 291}, {"note": 0, "velocity": 0, "duration": 909}, {"note": 82, "velocity": 127, "duration": 124}, {"note": 0, "velocity": 0, "duration": 116}, {"note": 82, "velocity": 112, "duration": 98}, {"note": 82, "velocity": 122, "duration": 329}, {"note": 0, "velocity": 0, "duration": 151}, {"note": 80, "velocity": 122, "duration": 214}, {"note": 82, "velocity": 122, "duration": 624}, {"note": 0, "velocity": 0, "duration": 1536}, {"note": 80, "velocity": 122, "duration": 142}, {"note": 0, "velocity": 0, "duration": 98}, {"note": 80, "velocity": 117, "duration": 173}, {"note": 0, "velocity": 0, "duration": 67}, {"note": 82, "velocity": 117, "duration": 173}, {"note": 0, "velocity": 0, "duration": 67}, {"note": 87, "velocity": 127, "duration": 177}, {"note": 0, "velocity": 0, "duration": 63}, {"note": 82, "velocity": 127, "duration": 177}, {"note": 0, "velocity": 0, "duration": 63}, {"note": 80, "velocity": 112, "duration": 192}, {"note": 82, "velocity": 127, "duration": 140}, {"note": 0, "velocity": 0, "duration": 100}, {"note": 87, "velocity": 127, "duration": 265}, {"note": 0, "velocity": 0, "duration": 215}, {"note": 82, "velocity": 127, "duration": 196}, {"note": 0, "velocity": 0, "duration": 764}, {"note": 80, "velocity": 127, "duration": 160}, {"note": 0, "velocity": 0, "duration": 80}, {"note": 78, "velocity": 122, "duration": 242}, {"note": 80, "velocity": 127, "duration": 147}, {"note": 0, "velocity": 0, "duration": 93}, {"note": 80, "velocity": 127, "duration": 167}, {"note": 0, "velocity": 0, "duration": 73}, {"note": 80, "velocity": 127, "duration": 123}, {"note": 0, "velocity": 0, "duration": 117}, {"note": 78, "velocity": 127, "duration": 123}, {"note": 0, "velocity": 0, "duration": 117}, {"note": 80, "velocity": 127, "duration": 159}, {"note": 0, "velocity": 0, "duration": 81}, {"note": 78, "velocity": 117, "duration": 160}, {"note": 71, "velocity": 112, "duration": 195}, {"note": 73, "velocity": 122, "duration": 506}, {"note": 75, "velocity": 127, "duration": 800}, {"note": 0, "velocity": 0, "duration": 640}, {"note": 75, "velocity": 127, "duration": 144}, {"note": 0, "velocity": 0, "duration": 96}, {"note": 76, "velocity": 107, "duration": 144}, {"note": 0, "velocity": 0, "duration": 96}, {"note": 75, "velocity": 117, "duration": 118}, {"note": 0, "velocity": 0, "duration": 122}, {"note": 76, "velocity": 117, "duration": 127}, {"note": 0, "velocity": 0, "duration": 113}, {"note": 75, "velocity": 127, "duration": 111}, {"note": 0, "velocity": 0, "duration": 129}, {"note": 76, "velocity": 112, "duration": 109}, {"note": 0, "velocity": 0, "duration": 131}, {"note": 75, "velocity": 117, "duration": 167}, {"note": 0, "velocity": 0, "duration": 73}, {"note": 76, "velocity": 112, "duration": 128}, {"note": 0, "velocity": 0, "duration": 112}, {"note": 87, "velocity": 127, "duration": 378}, {"note": 0, "velocity": 0, "duration": 102}, {"note": 82, "velocity": 127, "duration": 558}, {"note": 0, "velocity": 0, "duration": 642}, {"note": 82, "velocity": 102, "duration": 135}, {"note": 83, "velocity": 102, "duration": 123}, {"note": 0, "velocity": 0, "duration": 117}, {"note": 83, "velocity": 100, "duration": 95}, {"note": 0, "velocity": 0, "duration": 145}, {"note": 83, "velocity": 107, "duration": 87}, {"note": 0, "velocity": 0, "duration": 153}, {"note": 83, "velocity": 97, "duration": 76}, {"note": 0, "velocity": 0, "duration": 164}, {"note": 83, "velocity": 117, "duration": 125}, {"note": 0, "velocity": 0, "duration": 235}, {"note": 82, "velocity": 127, "duration": 96}, {"note": 0, "velocity": 0, "duration": 144}, {"note": 80, "velocity": 127, "duration": 157}, {"note": 0, "velocity": 0, "duration": 83}, {"note": 83, "velocity": 112, "duration": 355}, {"note": 82, "velocity": 112, "duration": 1076}, {"note": 0, "velocity": 0, "duration": 484}, {"note": 80, "velocity": 122, "duration": 142}, {"note": 0, "velocity": 0, "duration": 98}, {"note": 80, "velocity": 117, "duration": 173}, {"note": 0, "velocity": 0, "duration": 67}, {"note": 82, "velocity": 117, "duration": 173}, {"note": 0, "velocity": 0, "duration": 67}, {"note": 87, "velocity": 127, "duration": 177}, {"note": 0, "velocity": 0, "duration": 63}, {"note": 82, "velocity": 127, "duration": 177}, {"note": 0, "velocity": 0, "duration": 63}, {"note": 80, "velocity": 112, "duration": 192}, {"note": 82, "velocity": 127, "duration": 140}, {"note": 0, "velocity": 0, "duration": 100}, {"note": 87, "velocity": 127, "duration": 265}, {"note": 0, "velocity": 0, "duration": 215}, {"note": 82, "velocity": 127, "duration": 196}, {"note": 0, "velocity": 0, "duration": 764}, {"note": 80, "velocity": 127, "duration": 160}, {"note": 0, "velocity": 0, "duration": 80}, {"note": 78, "velocity": 122, "duration": 242}, {"note": 80, "velocity": 127, "duration": 147}, {"note": 0, "velocity": 0, "duration": 93}, {"note": 80, "velocity": 127, "duration": 167}, {"note": 0, "velocity": 0, "duration": 73}, {"note": 80, "velocity": 127, "duration": 123}, {"note": 0, "velocity": 0, "duration": 117}, {"note": 78, "velocity": 127, "duration": 123}, {"note": 0, "velocity": 0, "duration": 117}, {"note": 80, "velocity": 127, "duration": 159}, {"note": 0, "velocity": 0, "duration": 81}, {"note": 78, "velocity": 117, "duration": 160}, {"note": 0, "velocity": 0, "duration": 80}, {"note": 71, "velocity": 112, "duration": 195}, {"note": 73, "velocity": 122, "duration": 323}, {"note": 75, "velocity": 127, "duration": 800}, {"note": 0, "velocity": 0, "duration": 880}, {"note": 75, "velocity": 127, "duration": 144}, {"note": 0, "velocity": 0, "duration": 96}, {"note": 76, "velocity": 107, "duration": 144}, {"note": 0, "velocity": 0, "duration": 96}, {"note": 75, "velocity": 117, "duration": 118}, {"note": 0, "velocity": 0, "duration": 122}, {"note": 76, "velocity": 117, "duration": 127}, {"note": 0, "velocity": 0, "duration": 113}, {"note": 75, "velocity": 127, "duration": 111}, {"note": 0, "velocity": 0, "duration": 129}, {"note": 76, "velocity": 112, "duration": 109}, {"note": 0, "velocity": 0, "duration": 131}, {"note": 75, "velocity": 117, "duration": 167}, {"note": 0, "velocity": 0, "duration": 73}, {"note": 76, "velocity": 112, "duration": 128}, {"note": 0, "velocity": 0, "duration": 112}, {"note": 87, "velocity": 127, "duration": 378}, {"note": 0, "velocity": 0, "duration": 102}, {"note": 82, "velocity": 127, "duration": 798}, {"note": 0, "velocity": 0, "duration": 402}, {"note": 82, "velocity": 127, "duration": 183}, {"note": 83, "velocity": 102, "duration": 210}, {"note": 85, "velocity": 127, "duration": 145}, {"note": 0, "velocity": 0, "duration": 95}, {"note": 88, "velocity": 127, "duration": 194}, {"note": 87, "velocity": 127, "duration": 228}, {"note": 85, "velocity": 127, "duration": 225}, {"note": 83, "velocity": 127, "duration": 332}, {"note": 0, "velocity": 0, "duration": 148}, {"note": 82, "velocity": 117, "duration": 156}, {"note": 0, "velocity": 0, "duration": 84}, {"note": 83, "velocity": 100, "duration": 300}, {"note": 0, "velocity": 0, "duration": 180}, {"note": 80, "velocity": 117, "duration": 1388}, {"note": 80, "velocity": 122, "duration": 142}, {"note": 0, "velocity": 0, "duration": 98}, {"note": 80, "velocity": 117, "duration": 173}, {"note": 0, "velocity": 0, "duration": 67}, {"note": 82, "velocity": 117, "duration": 173}, {"note": 0, "velocity": 0, "duration": 67}, {"note": 87, "velocity": 127, "duration": 177}, {"note": 0, "velocity": 0, "duration": 63}, {"note": 82, "velocity": 127, "duration": 177}, {"note": 0, "velocity": 0, "duration": 63}, {"note": 80, "velocity": 112, "duration": 192}, {"note": 82, "velocity": 127, "duration": 140}, {"note": 0, "velocity": 0, "duration": 100}, {"note": 87, "velocity": 127, "duration": 265}, {"note": 0, "velocity": 0, "duration": 215}, {"note": 82, "velocity": 127, "duration": 436}, {"note": 0, "velocity": 0, "duration": 480}, {"note": 80, "velocity": 127, "duration": 160}, {"note": 0, "velocity": 0, "duration": 80}, {"note": 78, "velocity": 122, "duration": 242}, {"note": 80, "velocity": 127, "duration": 147}, {"note": 0, "velocity": 0, "duration": 93}, {"note": 80, "velocity": 127, "duration": 167}, {"note": 0, "velocity": 0, "duration": 73}, {"note": 80, "velocity": 127, "duration": 123}, {"note": 0, "velocity": 0, "duration": 117}, {"note": 78, "velocity": 127, "duration": 123}, {"note": 0, "velocity": 0, "duration": 117}, {"note": 80, "velocity": 127, "duration": 159}, {"note": 0, "velocity": 0, "duration": 81}, {"note": 78, "velocity": 117, "duration": 160}, {"note": 0, "velocity": 0, "duration": 80}, {"note": 71, "velocity": 112, "duration": 195}, {"note": 73, "velocity": 122, "duration": 323}, {"note": 75, "velocity": 127, "duration": 403}, {"note": 0, "velocity": 0, "duration": 880}, {"note": 75, "velocity": 127, "duration": 144}, {"note": 0, "velocity": 0, "duration": 96}, {"note": 76, "velocity": 107, "duration": 144}, {"note": 0, "velocity": 0, "duration": 96}, {"note": 75, "velocity": 117, "duration": 118}, {"note": 0, "velocity": 0, "duration": 122}, {"note": 76, "velocity": 117, "duration": 127}, {"note": 0, "velocity": 0, "duration": 113}, {"note": 75, "velocity": 127, "duration": 111}, {"note": 0, "velocity": 0, "duration": 129}, {"note": 76, "velocity": 112, "duration": 109}, {"note": 0, "velocity": 0, "duration": 131}, {"note": 75, "velocity": 117, "duration": 167}, {"note": 0, "velocity": 0, "duration": 73}, {"note": 76, "velocity": 112, "duration": 128}, {"note": 0, "velocity": 0, "duration": 112}, {"note": 87, "velocity": 127, "duration": 378}, {"note": 0, "velocity": 0, "duration": 102}, {"note": 82, "velocity": 127, "duration": 798}, {"note": 82, "velocity": 127, "duration": 183}, {"note": 83, "velocity": 102, "duration": 210}, {"note": 85, "velocity": 127, "duration": 145}, {"note": 0, "velocity": 0, "duration": 95}, {"note": 88, "velocity": 127, "duration": 194}, {"note": 87, "velocity": 127, "duration": 228}, {"note": 85, "velocity": 127, "duration": 225}, {"note": 83, "velocity": 127, "duration": 332}, {"note": 0, "velocity": 0, "duration": 148}, {"note": 82, "velocity": 117, "duration": 156}, {"note": 0, "velocity": 0, "duration": 84}, {"note": 83, "velocity": 100, "duration": 300}, {"note": 0, "velocity": 0, "duration": 180}, {"note": 80, "velocity": 117, "duration": 1628}]]