[[{"note": 72, "velocity": 83, "duration": 960}, {"note": 79, "velocity": 83, "duration": 479}, {"note": 79, "velocity": 83, "duration": 960}, {"note": 75, "velocity": 83, "duration": 480}, {"note": 77, "velocity": 83, "duration": 960}, {"note": 82, "velocity": 82, "duration": 480}, {"note": 79, "velocity": 82, "duration": 960}, {"note": 72, "velocity": 81, "duration": 240}, {"note": 74, "velocity": 81, "duration": 0}, {"note": 75, "velocity": 81, "duration": 480}, {"note": 72, "velocity": 81, "duration": 480}, {"note": 75, "velocity": 81, "duration": 480}, {"note": 77, "velocity": 81, "duration": 960}, {"note": 70, "velocity": 81, "duration": 480}, {"note": 77, "velocity": 81, "duration": 960}, {"note": 79, "velocity": 81, "duration": 479}, {"note": 79, "velocity": 81, "duration": 1440}, {"note": 72, "velocity": 81, "duration": 960}, {"note": 79, "velocity": 80, "duration": 479}, {"note": 79, "velocity": 80, "duration": 960}, {"note": 84, "velocity": 80, "duration": 480}, {"note": 82, "velocity": 80, "duration": 960}, {"note": 84, "velocity": 80, "duration": 480}, {"note": 77, "velocity": 80, "duration": 960}, {"note": 72, "velocity": 80, "duration": 240}, {"note": 74, "velocity": 80, "duration": 240}, {"note": 75, "velocity": 80, "duration": 480}, {"note": 74, "velocity": 80, "duration": 480}, {"note": 75, "velocity": 80, "duration": 480}, {"note": 77, "velocity": 80, "duration": 960}, {"note": 70, "velocity": 80, "duration": 480}, {"note": 72, "velocity": 80, "duration": 2879}, {"note": 72, "velocity": 80, "duration": 960}, {"note": 79, "velocity": 80, "duration": 479}, {"note": 79, "velocity": 80, "duration": 960}, {"note": 75, "velocity": 80, "duration": 480}, {"note": 77, "velocity": 80, "duration": 960}, {"note": 82, "velocity": 80, "duration": 480}, {"note": 79, "velocity": 80, "duration": 960}, {"note": 72, "velocity": 80, "duration": 240}, {"note": 74, "velocity": 80, "duration": 240}, {"note": 75, "velocity": 80, "duration": 585}, {"note": 72, "velocity": 80, "duration": 480}, {"note": 75, "velocity": 80, "duration": 480}, {"note": 77, "velocity": 80, "duration": 960}, {"note": 70, "velocity": 80, "duration": 480}, {"note": 77, "velocity": 80, "duration": 960}, {"note": 79, "velocity": 80, "duration": 479}, {"note": 79, "velocity": 80, "duration": 1440}, {"note": 72, "velocity": 80, "duration": 960}, {"note": 79, "velocity": 80, "duration": 479}, {"note": 79, "velocity": 80, "duration": 960}, {"note": 84, "velocity": 80, "duration": 480}, {"note": 82, "velocity": 80, "duration": 960}, {"note": 84, "velocity": 80, "duration": 480}, {"note": 77, "velocity": 80, "duration": 960}, {"note": 72, "velocity": 80, "duration": 240}, {"note": 74, "velocity": 80, "duration": 240}, {"note": 75, "velocity": 80, "duration": 516}, {"note": 74, "velocity": 80, "duration": 480}, {"note": 75, "velocity": 80, "duration": 480}, {"note": 79, "velocity": 80, "duration": 480}, {"note": 77, "velocity": 80, "duration": 480}, {"note": 70, "velocity": 80, "duration": 480}, {"note": 72, "velocity": 80, "duration": 2880}, {"note": 75, "velocity": 80, "duration": 531}, {"note": 72, "velocity": 80, "duration": 534}, {"note": 75, "velocity": 80, "duration": 480}, {"note": 77, "velocity": 80, "duration": 480}, {"note": 70, "velocity": 79, "duration": 480}, {"note": 77, "velocity": 79, "duration": 480}, {"note": 82, "velocity": 79, "duration": 480}, {"note": 79, "velocity": 79, "duration": 480}, {"note": 77, "velocity": 79, "duration": 480}, {"note": 79, "velocity": 79, "duration": 1440}, {"note": 75, "velocity": 79, "duration": 480}, {"note": 72, "velocity": 79, "duration": 480}, {"note": 75, "velocity": 79, "duration": 480}, {"note": 77, "velocity": 79, "duration": 480}, {"note": 70, "velocity": 79, "duration": 480}, {"note": 82, "velocity": 79, "duration": 480}, {"note": 79, "velocity": 79, "duration": 2880}, {"note": 75, "velocity": 79, "duration": 480}, {"note": 72, "velocity": 79, "duration": 555}, {"note": 75, "velocity": 79, "duration": 482}, {"note": 77, "velocity": 79, "duration": 519}, {"note": 70, "velocity": 79, "duration": 529}, {"note": 75, "velocity": 79, "duration": 480}, {"note": 82, "velocity": 79, "duration": 480}, {"note": 79, "velocity": 79, "duration": 480}, {"note": 77, "velocity": 80, "duration": 480}, {"note": 84, "velocity": 80, "duration": 480}, {"note": 82, "velocity": 80, "duration": 480}, {"note": 77, "velocity": 80, "duration": 480}, {"note": 79, "velocity": 81, "duration": 960}, {"note": 75, "velocity": 81, "duration": 240}, {"note": 77, "velocity": 81, "duration": 240}, {"note": 79, "velocity": 81, "duration": 720}, {"note": 75, "velocity": 81, "duration": 240}, {"note": 77, "velocity": 81, "duration": 240}, {"note": 82, "velocity": 81, "duration": 240}, {"note": 79, "velocity": 81, "duration": 1920}, {"note": 75, "velocity": 82, "duration": 480}, {"note": 77, "velocity": 82, "duration": 480}, {"note": 79, "velocity": 82, "duration": 504}, {"note": 77, "velocity": 82, "duration": 517}, {"note": 82, "velocity": 82, "duration": 480}, {"note": 79, "velocity": 82, "duration": 960}, {"note": 77, "velocity": 82, "duration": 480}, {"note": 79, "velocity": 82, "duration": 480}, {"note": 77, "velocity": 82, "duration": 480}, {"note": 84, "velocity": 82, "duration": 480}, {"note": 79, "velocity": 82, "duration": 960}, {"note": 77, "velocity": 82, "duration": 480}, {"note": 79, "velocity": 82, "duration": 480}, {"note": 77, "velocity": 82, "duration": 480}, {"note": 87, "velocity": 82, "duration": 480}, {"note": 86, "velocity": 83, "duration": 720}, {"note": 82, "velocity": 83, "duration": 480}, {"note": 77, "velocity": 83, "duration": 240}, {"note": 79, "velocity": 83, "duration": 1920}, {"note": 75, "velocity": 83, "duration": 480}, {"note": 77, "velocity": 83, "duration": 480}, {"note": 79, "velocity": 83, "duration": 480}, {"note": 77, "velocity": 83, "duration": 496}, {"note": 82, "velocity": 83, "duration": 464}, {"note": 79, "velocity": 83, "duration": 964}, {"note": 77, "velocity": 83, "duration": 480}, {"note": 79, "velocity": 83, "duration": 480}, {"note": 77, "velocity": 83, "duration": 480}, {"note": 84, "velocity": 83, "duration": 480}, {"note": 79, "velocity": 83, "duration": 1439}, {"note": 79, "velocity": 83, "duration": 480}, {"note": 77, "velocity": 83, "duration": 480}, {"note": 87, "velocity": 83, "duration": 480}, {"note": 86, "velocity": 83, "duration": 720}, {"note": 87, "velocity": 83, "duration": 240}, {"note": 86, "velocity": 83, "duration": 240}, {"note": 82, "velocity": 83, "duration": 240}, {"note": 84, "velocity": 83, "duration": 2776}, {"note": 0, "velocity": 0, "duration": 23144}, {"note": 72, "velocity": 84, "duration": 960}, {"note": 79, "velocity": 84, "duration": 479}, {"note": 79, "velocity": 84, "duration": 960}, {"note": 75, "velocity": 84, "duration": 480}, {"note": 77, "velocity": 84, "duration": 960}, {"note": 82, "velocity": 85, "duration": 480}, {"note": 79, "velocity": 85, "duration": 960}, {"note": 72, "velocity": 85, "duration": 240}, {"note": 74, "velocity": 86, "duration": 240}, {"note": 75, "velocity": 86, "duration": 480}, {"note": 72, "velocity": 86, "duration": 480}, {"note": 75, "velocity": 87, "duration": 480}, {"note": 77, "velocity": 87, "duration": 960}, {"note": 70, "velocity": 87, "duration": 480}, {"note": 77, "velocity": 87, "duration": 960}, {"note": 79, "velocity": 87, "duration": 479}, {"note": 79, "velocity": 87, "duration": 1440}, {"note": 72, "velocity": 87, "duration": 960}, {"note": 79, "velocity": 87, "duration": 479}, {"note": 79, "velocity": 87, "duration": 960}, {"note": 84, "velocity": 87, "duration": 480}, {"note": 82, "velocity": 87, "duration": 960}, {"note": 84, "velocity": 87, "duration": 480}, {"note": 77, "velocity": 87, "duration": 960}, {"note": 72, "velocity": 87, "duration": 240}, {"note": 74, "velocity": 87, "duration": 240}, {"note": 75, "velocity": 87, "duration": 480}, {"note": 74, "velocity": 87, "duration": 480}, {"note": 75, "velocity": 87, "duration": 480}, {"note": 77, "velocity": 87, "duration": 960}, {"note": 70, "velocity": 87, "duration": 480}, {"note": 72, "velocity": 87, "duration": 2879}, {"note": 72, "velocity": 86, "duration": 960}, {"note": 79, "velocity": 86, "duration": 479}, {"note": 79, "velocity": 86, "duration": 960}, {"note": 75, "velocity": 86, "duration": 480}, {"note": 77, "velocity": 86, "duration": 960}, {"note": 82, "velocity": 86, "duration": 480}, {"note": 79, "velocity": 86, "duration": 960}, {"note": 72, "velocity": 86, "duration": 240}, {"note": 74, "velocity": 86, "duration": 240}, {"note": 75, "velocity": 86, "duration": 585}, {"note": 72, "velocity": 86, "duration": 480}, {"note": 75, "velocity": 86, "duration": 480}, {"note": 77, "velocity": 86, "duration": 960}, {"note": 70, "velocity": 86, "duration": 480}, {"note": 77, "velocity": 86, "duration": 960}, {"note": 79, "velocity": 86, "duration": 479}, {"note": 79, "velocity": 86, "duration": 1440}, {"note": 72, "velocity": 86, "duration": 960}, {"note": 79, "velocity": 86, "duration": 479}, {"note": 79, "velocity": 86, "duration": 960}, {"note": 84, "velocity": 86, "duration": 480}, {"note": 82, "velocity": 86, "duration": 960}, {"note": 84, "velocity": 86, "duration": 480}, {"note": 77, "velocity": 86, "duration": 960}, {"note": 72, "velocity": 86, "duration": 240}, {"note": 74, "velocity": 86, "duration": 240}, {"note": 75, "velocity": 86, "duration": 516}, {"note": 74, "velocity": 86, "duration": 480}, {"note": 75, "velocity": 86, "duration": 480}, {"note": 79, "velocity": 86, "duration": 480}, {"note": 77, "velocity": 86, "duration": 480}, {"note": 70, "velocity": 86, "duration": 480}, {"note": 72, "velocity": 86, "duration": 2880}, {"note": 75, "velocity": 85, "duration": 531}, {"note": 72, "velocity": 85, "duration": 534}, {"note": 75, "velocity": 85, "duration": 480}, {"note": 77, "velocity": 85, "duration": 480}, {"note": 70, "velocity": 85, "duration": 480}, {"note": 77, "velocity": 85, "duration": 480}, {"note": 82, "velocity": 85, "duration": 480}, {"note": 79, "velocity": 85, "duration": 480}, {"note": 77, "velocity": 85, "duration": 480}, {"note": 79, "velocity": 85, "duration": 1440}, {"note": 75, "velocity": 85, "duration": 480}, {"note": 72, "velocity": 85, "duration": 480}, {"note": 75, "velocity": 85, "duration": 480}, {"note": 77, "velocity": 85, "duration": 480}, {"note": 70, "velocity": 85, "duration": 480}, {"note": 82, "velocity": 85, "duration": 480}, {"note": 79, "velocity": 85, "duration": 2880}, {"note": 75, "velocity": 85, "duration": 480}, {"note": 72, "velocity": 85, "duration": 555}, {"note": 75, "velocity": 85, "duration": 482}, {"note": 77, "velocity": 85, "duration": 519}, {"note": 70, "velocity": 85, "duration": 529}, {"note": 75, "velocity": 85, "duration": 480}, {"note": 82, "velocity": 85, "duration": 480}, {"note": 79, "velocity": 85, "duration": 480}, {"note": 77, "velocity": 85, "duration": 480}, {"note": 84, "velocity": 85, "duration": 480}, {"note": 82, "velocity": 85, "duration": 480}, {"note": 77, "velocity": 85, "duration": 480}, {"note": 79, "velocity": 85, "duration": 960}, {"note": 75, "velocity": 85, "duration": 240}, {"note": 77, "velocity": 85, "duration": 240}, {"note": 79, "velocity": 85, "duration": 720}, {"note": 75, "velocity": 85, "duration": 240}, {"note": 77, "velocity": 85, "duration": 240}, {"note": 82, "velocity": 85, "duration": 240}, {"note": 79, "velocity": 85, "duration": 1920}, {"note": 75, "velocity": 85, "duration": 480}, {"note": 77, "velocity": 85, "duration": 480}, {"note": 79, "velocity": 85, "duration": 504}, {"note": 77, "velocity": 85, "duration": 517}, {"note": 82, "velocity": 86, "duration": 480}, {"note": 79, "velocity": 86, "duration": 960}, {"note": 77, "velocity": 86, "duration": 480}, {"note": 79, "velocity": 86, "duration": 480}, {"note": 77, "velocity": 86, "duration": 480}, {"note": 84, "velocity": 86, "duration": 480}, {"note": 79, "velocity": 86, "duration": 960}, {"note": 77, "velocity": 86, "duration": 480}, {"note": 79, "velocity": 87, "duration": 480}, {"note": 77, "velocity": 87, "duration": 480}, {"note": 87, "velocity": 87, "duration": 480}, {"note": 86, "velocity": 87, "duration": 720}, {"note": 82, "velocity": 87, "duration": 480}, {"note": 77, "velocity": 87, "duration": 240}, {"note": 79, "velocity": 87, "duration": 1920}, {"note": 75, "velocity": 87, "duration": 480}, {"note": 77, "velocity": 87, "duration": 480}, {"note": 79, "velocity": 87, "duration": 480}, {"note": 77, "velocity": 87, "duration": 496}, {"note": 82, "velocity": 87, "duration": 464}, {"note": 79, "velocity": 87, "duration": 964}, {"note": 77, "velocity": 87, "duration": 480}, {"note": 79, "velocity": 87, "duration": 480}, {"note": 77, "velocity": 87, "duration": 480}, {"note": 84, "velocity": 87, "duration": 480}, {"note": 79, "velocity": 87, "duration": 1439}, {"note": 79, "velocity": 88, "duration": 480}, {"note": 77, "velocity": 88, "duration": 480}, {"note": 87, "velocity": 88, "duration": 480}, {"note": 86, "velocity": 88, "duration": 720}, {"note": 87, "velocity": 89, "duration": 240}, {"note": 86, "velocity": 89, "duration": 240}, {"note": 82, "velocity": 89, "duration": 240}, {"note": 84, "velocity": 89, "duration": 1936}, {"note": 0, "velocity": 0, "duration": 23024}, {"note": 75, "velocity": 89, "duration": 480}, {"note": 77, "velocity": 89, "duration": 480}, {"note": 79, "velocity": 89, "duration": 504}, {"note": 77, "velocity": 89, "duration": 517}, {"note": 82, "velocity": 89, "duration": 480}, {"note": 79, "velocity": 89, "duration": 960}, {"note": 77, "velocity": 89, "duration": 480}, {"note": 79, "velocity": 89, "duration": 480}, {"note": 77, "velocity": 89, "duration": 480}, {"note": 84, "velocity": 89, "duration": 480}, {"note": 79, "velocity": 89, "duration": 960}, {"note": 77, "velocity": 89, "duration": 480}, {"note": 79, "velocity": 89, "duration": 480}, {"note": 77, "velocity": 89, "duration": 480}, {"note": 87, "velocity": 89, "duration": 480}, {"note": 86, "velocity": 89, "duration": 720}, {"note": 82, "velocity": 89, "duration": 480}, {"note": 77, "velocity": 89, "duration": 240}, {"note": 79, "velocity": 89, "duration": 1920}, {"note": 75, "velocity": 89, "duration": 480}, {"note": 77, "velocity": 89, "duration": 480}, {"note": 79, "velocity": 89, "duration": 480}, {"note": 77, "velocity": 89, "duration": 496}, {"note": 82, "velocity": 89, "duration": 464}, {"note": 79, "velocity": 89, "duration": 964}, {"note": 77, "velocity": 89, "duration": 480}, {"note": 79, "velocity": 89, "duration": 480}, {"note": 77, "velocity": 89, "duration": 480}, {"note": 84, "velocity": 89, "duration": 480}, {"note": 79, "velocity": 89, "duration": 1439}, {"note": 79, "velocity": 89, "duration": 480}, {"note": 77, "velocity": 89, "duration": 480}, {"note": 87, "velocity": 89, "duration": 480}, {"note": 86, "velocity": 89, "duration": 720}, {"note": 87, "velocity": 89, "duration": 240}, {"note": 86, "velocity": 89, "duration": 240}, {"note": 82, "velocity": 89, "duration": 240}, {"note": 84, "velocity": 89, "duration": 2776}]]