[[{"note": 62, "velocity": 88, "duration": 124}, {"note": 72, "velocity": 102, "duration": 160}, {"note": 0, "velocity": 0, "duration": 80}, {"note": 72, "velocity": 100, "duration": 154}, {"note": 0, "velocity": 0, "duration": 86}, {"note": 72, "velocity": 112, "duration": 100}, {"note": 0, "velocity": 0, "duration": 140}, {"note": 72, "velocity": 93, "duration": 105}, {"note": 0, "velocity": 0, "duration": 135}, {"note": 72, "velocity": 112, "duration": 163}, {"note": 71, "velocity": 93, "duration": 62}, {"note": 71, "velocity": 95, "duration": 150}, {"note": 0, "velocity": 0, "duration": 450}, {"note": 72, "velocity": 107, "duration": 163}, {"note": 0, "velocity": 0, "duration": 77}, {"note": 72, "velocity": 100, "duration": 174}, {"note": 0, "velocity": 0, "duration": 66}, {"note": 72, "velocity": 97, "duration": 178}, {"note": 0, "velocity": 0, "duration": 62}, {"note": 74, "velocity": 117, "duration": 170}, {"note": 0, "velocity": 0, "duration": 70}, {"note": 71, "velocity": 82, "duration": 182}, {"note": 69, "velocity": 102, "duration": 212}, {"note": 67, "velocity": 95, "duration": 207}, {"note": 66, "velocity": 92, "duration": 115}, {"note": 0, "velocity": 0, "duration": 125}, {"note": 66, "velocity": 102, "duration": 127}, {"note": 67, "velocity": 93, "duration": 638}, {"note": 0, "velocity": 0, "duration": 360}, {"note": 64, "velocity": 90, "duration": 123}, {"note": 74, "velocity": 95, "duration": 181}, {"note": 74, "velocity": 96, "duration": 172}, {"note": 0, "velocity": 0, "duration": 68}, {"note": 74, "velocity": 107, "duration": 155}, {"note": 0, "velocity": 0, "duration": 85}, {"note": 74, "velocity": 95, "duration": 116}, {"note": 0, "velocity": 0, "duration": 124}, {"note": 74, "velocity": 99, "duration": 167}, {"note": 0, "velocity": 0, "duration": 73}, {"note": 72, "velocity": 89, "duration": 54}, {"note": 0, "velocity": 0, "duration": 66}, {"note": 72, "velocity": 96, "duration": 427}, {"note": 74, "velocity": 100, "duration": 161}, {"note": 0, "velocity": 0, "duration": 79}, {"note": 74, "velocity": 99, "duration": 150}, {"note": 0, "velocity": 0, "duration": 90}, {"note": 74, "velocity": 99, "duration": 135}, {"note": 0, "velocity": 0, "duration": 105}, {"note": 74, "velocity": 102, "duration": 117}, {"note": 0, "velocity": 0, "duration": 123}, {"note": 74, "velocity": 112, "duration": 145}, {"note": 0, "velocity": 0, "duration": 95}, {"note": 72, "velocity": 82, "duration": 53}, {"note": 0, "velocity": 0, "duration": 67}, {"note": 72, "velocity": 97, "duration": 303}, {"note": 71, "velocity": 102, "duration": 60}, {"note": 71, "velocity": 96, "duration": 194}, {"note": 69, "velocity": 82, "duration": 66}, {"note": 69, "velocity": 100, "duration": 785}, {"note": 0, "velocity": 0, "duration": 2695}, {"note": 62, "velocity": 78, "duration": 123}, {"note": 72, "velocity": 93, "duration": 186}, {"note": 72, "velocity": 95, "duration": 158}, {"note": 0, "velocity": 0, "duration": 82}, {"note": 72, "velocity": 107, "duration": 157}, {"note": 0, "velocity": 0, "duration": 83}, {"note": 72, "velocity": 90, "duration": 111}, {"note": 0, "velocity": 0, "duration": 129}, {"note": 72, "velocity": 112, "duration": 213}, {"note": 71, "velocity": 76, "duration": 54}, {"note": 0, "velocity": 0, "duration": 66}, {"note": 71, "velocity": 99, "duration": 374}, {"note": 0, "velocity": 0, "duration": 226}, {"note": 72, "velocity": 112, "duration": 154}, {"note": 0, "velocity": 0, "duration": 86}, {"note": 72, "velocity": 100, "duration": 158}, {"note": 0, "velocity": 0, "duration": 82}, {"note": 72, "velocity": 107, "duration": 166}, {"note": 0, "velocity": 0, "duration": 74}, {"note": 74, "velocity": 97, "duration": 142}, {"note": 0, "velocity": 0, "duration": 98}, {"note": 71, "velocity": 107, "duration": 167}, {"note": 0, "velocity": 0, "duration": 73}, {"note": 69, "velocity": 86, "duration": 67}, {"note": 0, "velocity": 0, "duration": 173}, {"note": 67, "velocity": 92, "duration": 178}, {"note": 0, "velocity": 0, "duration": 62}, {"note": 66, "velocity": 90, "duration": 52}, {"note": 0, "velocity": 0, "duration": 68}, {"note": 66, "velocity": 81, "duration": 247}, {"note": 67, "velocity": 82, "duration": 1100}, {"note": 0, "velocity": 0, "duration": 1900}, {"note": 64, "velocity": 95, "duration": 250}, {"note": 67, "velocity": 97, "duration": 211}, {"note": 74, "velocity": 99, "duration": 386}, {"note": 0, "velocity": 0, "duration": 94}, {"note": 76, "velocity": 102, "duration": 325}, {"note": 0, "velocity": 0, "duration": 155}, {"note": 67, "velocity": 95, "duration": 645}, {"note": 0, "velocity": 0, "duration": 555}, {"note": 74, "velocity": 107, "duration": 165}, {"note": 0, "velocity": 0, "duration": 75}, {"note": 74, "velocity": 112, "duration": 147}, {"note": 0, "velocity": 0, "duration": 93}, {"note": 74, "velocity": 127, "duration": 124}, {"note": 0, "velocity": 0, "duration": 116}, {"note": 74, "velocity": 107, "duration": 49}, {"note": 0, "velocity": 0, "duration": 71}, {"note": 74, "velocity": 122, "duration": 193}, {"note": 0, "velocity": 0, "duration": 167}, {"note": 72, "velocity": 112, "duration": 150}, {"note": 0, "velocity": 0, "duration": 90}, {"note": 72, "velocity": 112, "duration": 175}, {"note": 0, "velocity": 0, "duration": 65}, {"note": 71, "velocity": 93, "duration": 62}, {"note": 71, "velocity": 107, "duration": 295}, {"note": 69, "velocity": 73, "duration": 1580}, {"note": 0, "velocity": 0, "duration": 720}, {"note": 67, "velocity": 99, "duration": 163}, {"note": 0, "velocity": 0, "duration": 77}, {"note": 79, "velocity": 107, "duration": 167}, {"note": 0, "velocity": 0, "duration": 73}, {"note": 78, "velocity": 122, "duration": 208}, {"note": 79, "velocity": 96, "duration": 161}, {"note": 0, "velocity": 0, "duration": 79}, {"note": 79, "velocity": 117, "duration": 359}, {"note": 0, "velocity": 0, "duration": 121}, {"note": 74, "velocity": 107, "duration": 307}, {"note": 74, "velocity": 117, "duration": 67}, {"note": 0, "velocity": 0, "duration": 173}, {"note": 74, "velocity": 122, "duration": 147}, {"note": 0, "velocity": 0, "duration": 93}, {"note": 74, "velocity": 122, "duration": 143}, {"note": 0, "velocity": 0, "duration": 97}, {"note": 72, "velocity": 89, "duration": 123}, {"note": 0, "velocity": 0, "duration": 117}, {"note": 72, "velocity": 112, "duration": 143}, {"note": 0, "velocity": 0, "duration": 97}, {"note": 72, "velocity": 107, "duration": 160}, {"note": 0, "velocity": 0, "duration": 320}, {"note": 71, "velocity": 112, "duration": 277}, {"note": 0, "velocity": 0, "duration": 203}, {"note": 67, "velocity": 97, "duration": 176}, {"note": 0, "velocity": 0, "duration": 64}, {"note": 79, "velocity": 117, "duration": 130}, {"note": 0, "velocity": 0, "duration": 110}, {"note": 78, "velocity": 122, "duration": 227}, {"note": 79, "velocity": 96, "duration": 134}, {"note": 0, "velocity": 0, "duration": 106}, {"note": 79, "velocity": 100, "duration": 242}, {"note": 0, "velocity": 0, "duration": 238}, {"note": 74, "velocity": 102, "duration": 134}, {"note": 0, "velocity": 0, "duration": 106}, {"note": 74, "velocity": 112, "duration": 136}, {"note": 0, "velocity": 0, "duration": 104}, {"note": 74, "velocity": 127, "duration": 135}, {"note": 0, "velocity": 0, "duration": 105}, {"note": 74, "velocity": 107, "duration": 115}, {"note": 0, "velocity": 0, "duration": 125}, {"note": 72, "velocity": 93, "duration": 91}, {"note": 72, "velocity": 93, "duration": 124}, {"note": 0, "velocity": 0, "duration": 116}, {"note": 72, "velocity": 107, "duration": 278}, {"note": 0, "velocity": 0, "duration": 202}, {"note": 71, "velocity": 117, "duration": 197}, {"note": 0, "velocity": 0, "duration": 283}, {"note": 67, "velocity": 92, "duration": 229}, {"note": 79, "velocity": 99, "duration": 225}, {"note": 78, "velocity": 107, "duration": 189}, {"note": 79, "velocity": 127, "duration": 90}, {"note": 0, "velocity": 0, "duration": 150}, {"note": 78, "velocity": 122, "duration": 422}, {"note": 76, "velocity": 107, "duration": 223}, {"note": 0, "velocity": 0, "duration": 240}, {"note": 67, "velocity": 99, "duration": 163}, {"note": 0, "velocity": 0, "duration": 77}, {"note": 78, "velocity": 117, "duration": 192}, {"note": 76, "velocity": 86, "duration": 194}, {"note": 78, "velocity": 127, "duration": 118}, {"note": 0, "velocity": 0, "duration": 122}, {"note": 76, "velocity": 127, "duration": 438}, {"note": 74, "velocity": 122, "duration": 120}, {"note": 0, "velocity": 0, "duration": 120}, {"note": 67, "velocity": 99, "duration": 184}, {"note": 76, "velocity": 102, "duration": 174}, {"note": 0, "velocity": 0, "duration": 66}, {"note": 74, "velocity": 117, "duration": 194}, {"note": 76, "velocity": 107, "duration": 196}, {"note": 74, "velocity": 112, "duration": 465}, {"note": 72, "velocity": 112, "duration": 231}, {"note": 72, "velocity": 112, "duration": 153}, {"note": 0, "velocity": 0, "duration": 87}, {"note": 71, "velocity": 117, "duration": 178}, {"note": 0, "velocity": 0, "duration": 62}, {"note": 72, "velocity": 122, "duration": 142}, {"note": 0, "velocity": 0, "duration": 98}, {"note": 74, "velocity": 122, "duration": 202}, {"note": 76, "velocity": 117, "duration": 138}, {"note": 0, "velocity": 0, "duration": 102}, {"note": 76, "velocity": 112, "duration": 474}, {"note": 74, "velocity": 102, "duration": 408}, {"note": 0, "velocity": 0, "duration": 72}, {"note": 67, "velocity": 96, "duration": 137}, {"note": 0, "velocity": 0, "duration": 103}, {"note": 79, "velocity": 102, "duration": 186}, {"note": 78, "velocity": 112, "duration": 212}, {"note": 79, "velocity": 107, "duration": 178}, {"note": 0, "velocity": 0, "duration": 62}, {"note": 79, "velocity": 127, "duration": 238}, {"note": 0, "velocity": 0, "duration": 242}, {"note": 74, "velocity": 107, "duration": 125}, {"note": 0, "velocity": 0, "duration": 115}, {"note": 74, "velocity": 127, "duration": 177}, {"note": 0, "velocity": 0, "duration": 63}, {"note": 74, "velocity": 122, "duration": 184}, {"note": 74, "velocity": 127, "duration": 217}, {"note": 72, "velocity": 102, "duration": 152}, {"note": 0, "velocity": 0, "duration": 88}, {"note": 72, "velocity": 117, "duration": 163}, {"note": 0, "velocity": 0, "duration": 77}, {"note": 72, "velocity": 117, "duration": 162}, {"note": 0, "velocity": 0, "duration": 240}, {"note": 71, "velocity": 99, "duration": 241}, {"note": 0, "velocity": 0, "duration": 239}, {"note": 67, "velocity": 100, "duration": 147}, {"note": 0, "velocity": 0, "duration": 93}, {"note": 79, "velocity": 112, "duration": 185}, {"note": 78, "velocity": 107, "duration": 228}, {"note": 79, "velocity": 96, "duration": 161}, {"note": 0, "velocity": 0, "duration": 79}, {"note": 79, "velocity": 117, "duration": 237}, {"note": 74, "velocity": 127, "duration": 157}, {"note": 0, "velocity": 0, "duration": 91}, {"note": 74, "velocity": 117, "duration": 151}, {"note": 0, "velocity": 0, "duration": 89}, {"note": 74, "velocity": 122, "duration": 163}, {"note": 0, "velocity": 0, "duration": 77}, {"note": 74, "velocity": 122, "duration": 162}, {"note": 0, "velocity": 0, "duration": 78}, {"note": 74, "velocity": 112, "duration": 214}, {"note": 0, "velocity": 0, "duration": 266}, {"note": 81, "velocity": 99, "duration": 136}, {"note": 0, "velocity": 0, "duration": 104}, {"note": 81, "velocity": 127, "duration": 332}, {"note": 0, "velocity": 0, "duration": 148}, {"note": 79, "velocity": 127, "duration": 138}, {"note": 0, "velocity": 0, "duration": 342}, {"note": 67, "velocity": 100, "duration": 163}, {"note": 0, "velocity": 0, "duration": 77}, {"note": 79, "velocity": 102, "duration": 187}, {"note": 78, "velocity": 107, "duration": 263}, {"note": 79, "velocity": 96, "duration": 166}, {"note": 0, "velocity": 0, "duration": 74}, {"note": 79, "velocity": 100, "duration": 312}, {"note": 0, "velocity": 0, "duration": 168}, {"note": 76, "velocity": 90, "duration": 314}, {"note": 0, "velocity": 0, "duration": 166}, {"note": 67, "velocity": 99, "duration": 162}, {"note": 0, "velocity": 0, "duration": 78}, {"note": 78, "velocity": 112, "duration": 206}, {"note": 76, "velocity": 102, "duration": 225}, {"note": 78, "velocity": 122, "duration": 234}, {"note": 76, "velocity": 127, "duration": 216}, {"note": 0, "velocity": 0, "duration": 264}, {"note": 74, "velocity": 102, "duration": 210}, {"note": 0, "velocity": 0, "duration": 240}, {"note": 67, "velocity": 95, "duration": 149}, {"note": 0, "velocity": 0, "duration": 91}, {"note": 76, "velocity": 112, "duration": 201}, {"note": 74, "velocity": 100, "duration": 216}, {"note": 76, "velocity": 107, "duration": 152}, {"note": 0, "velocity": 0, "duration": 88}, {"note": 74, "velocity": 127, "duration": 256}, {"note": 0, "velocity": 0, "duration": 224}, {"note": 72, "velocity": 127, "duration": 153}, {"note": 0, "velocity": 0, "duration": 87}, {"note": 72, "velocity": 102, "duration": 250}, {"note": 71, "velocity": 93, "duration": 216}, {"note": 72, "velocity": 107, "duration": 178}, {"note": 0, "velocity": 0, "duration": 62}, {"note": 74, "velocity": 112, "duration": 232}, {"note": 76, "velocity": 112, "duration": 135}, {"note": 0, "velocity": 0, "duration": 127}, {"note": 76, "velocity": 117, "duration": 210}, {"note": 74, "velocity": 117, "duration": 136}, {"note": 0, "velocity": 0, "duration": 104}, {"note": 71, "velocity": 112, "duration": 153}, {"note": 0, "velocity": 0, "duration": 87}, {"note": 71, "velocity": 112, "duration": 281}, {"note": 62, "velocity": 109, "duration": 222}, {"note": 69, "velocity": 112, "duration": 498}, {"note": 67, "velocity": 99, "duration": 1511}, {"note": 0, "velocity": 0, "duration": 4200}, {"note": 62, "velocity": 88, "duration": 124}, {"note": 72, "velocity": 102, "duration": 160}, {"note": 0, "velocity": 0, "duration": 80}, {"note": 72, "velocity": 100, "duration": 154}, {"note": 72, "velocity": 112, "duration": 100}, {"note": 0, "velocity": 0, "duration": 140}, {"note": 72, "velocity": 93, "duration": 105}, {"note": 0, "velocity": 0, "duration": 135}, {"note": 72, "velocity": 112, "duration": 163}, {"note": 0, "velocity": 0, "duration": 77}, {"note": 71, "velocity": 93, "duration": 62}, {"note": 71, "velocity": 95, "duration": 150}, {"note": 0, "velocity": 0, "duration": 450}, {"note": 72, "velocity": 107, "duration": 163}, {"note": 0, "velocity": 0, "duration": 77}, {"note": 72, "velocity": 100, "duration": 174}, {"note": 0, "velocity": 0, "duration": 66}, {"note": 72, "velocity": 97, "duration": 178}, {"note": 0, "velocity": 0, "duration": 62}, {"note": 74, "velocity": 117, "duration": 170}, {"note": 0, "velocity": 0, "duration": 70}, {"note": 71, "velocity": 82, "duration": 182}, {"note": 69, "velocity": 102, "duration": 212}, {"note": 67, "velocity": 95, "duration": 207}, {"note": 66, "velocity": 92, "duration": 115}, {"note": 0, "velocity": 0, "duration": 125}, {"note": 66, "velocity": 102, "duration": 127}, {"note": 67, "velocity": 93, "duration": 638}, {"note": 0, "velocity": 0, "duration": 1320}, {"note": 64, "velocity": 90, "duration": 123}, {"note": 74, "velocity": 95, "duration": 181}, {"note": 74, "velocity": 96, "duration": 172}, {"note": 74, "velocity": 107, "duration": 155}, {"note": 0, "velocity": 0, "duration": 85}, {"note": 74, "velocity": 95, "duration": 116}, {"note": 0, "velocity": 0, "duration": 124}, {"note": 74, "velocity": 99, "duration": 167}, {"note": 0, "velocity": 0, "duration": 73}, {"note": 72, "velocity": 89, "duration": 54}, {"note": 0, "velocity": 0, "duration": 66}, {"note": 72, "velocity": 96, "duration": 427}, {"note": 0, "velocity": 0, "duration": 173}, {"note": 74, "velocity": 100, "duration": 161}, {"note": 0, "velocity": 0, "duration": 79}, {"note": 74, "velocity": 99, "duration": 150}, {"note": 0, "velocity": 0, "duration": 90}, {"note": 74, "velocity": 99, "duration": 135}, {"note": 0, "velocity": 0, "duration": 105}, {"note": 74, "velocity": 102, "duration": 117}, {"note": 0, "velocity": 0, "duration": 123}, {"note": 74, "velocity": 112, "duration": 145}, {"note": 0, "velocity": 0, "duration": 95}, {"note": 72, "velocity": 82, "duration": 53}, {"note": 0, "velocity": 0, "duration": 67}, {"note": 72, "velocity": 97, "duration": 303}, {"note": 71, "velocity": 102, "duration": 60}, {"note": 71, "velocity": 96, "duration": 74}, {"note": 69, "velocity": 82, "duration": 66}, {"note": 69, "velocity": 100, "duration": 65}, {"note": 0, "velocity": 0, "duration": 2695}, {"note": 62, "velocity": 78, "duration": 123}, {"note": 72, "velocity": 93, "duration": 186}, {"note": 72, "velocity": 95, "duration": 158}, {"note": 72, "velocity": 107, "duration": 157}, {"note": 0, "velocity": 0, "duration": 83}, {"note": 72, "velocity": 90, "duration": 111}, {"note": 0, "velocity": 0, "duration": 129}, {"note": 72, "velocity": 112, "duration": 213}, {"note": 71, "velocity": 76, "duration": 54}, {"note": 0, "velocity": 0, "duration": 66}, {"note": 71, "velocity": 99, "duration": 374}, {"note": 0, "velocity": 0, "duration": 226}, {"note": 72, "velocity": 112, "duration": 154}, {"note": 0, "velocity": 0, "duration": 86}, {"note": 72, "velocity": 100, "duration": 158}, {"note": 0, "velocity": 0, "duration": 82}, {"note": 72, "velocity": 107, "duration": 166}, {"note": 0, "velocity": 0, "duration": 74}, {"note": 74, "velocity": 97, "duration": 142}, {"note": 0, "velocity": 0, "duration": 98}, {"note": 71, "velocity": 107, "duration": 167}, {"note": 0, "velocity": 0, "duration": 73}, {"note": 69, "velocity": 86, "duration": 67}, {"note": 0, "velocity": 0, "duration": 173}, {"note": 67, "velocity": 92, "duration": 178}, {"note": 0, "velocity": 0, "duration": 62}, {"note": 66, "velocity": 90, "duration": 52}, {"note": 0, "velocity": 0, "duration": 68}, {"note": 66, "velocity": 81, "duration": 127}, {"note": 67, "velocity": 82, "duration": 267}, {"note": 0, "velocity": 0, "duration": 460}, {"note": 79, "velocity": 127, "duration": 915}, {"note": 0, "velocity": 0, "duration": 480}, {"note": 64, "velocity": 95, "duration": 250}, {"note": 67, "velocity": 97, "duration": 211}, {"note": 74, "velocity": 99, "duration": 386}, {"note": 0, "velocity": 0, "duration": 94}, {"note": 76, "velocity": 102, "duration": 85}, {"note": 0, "velocity": 0, "duration": 155}, {"note": 67, "velocity": 95, "duration": 645}, {"note": 0, "velocity": 0, "duration": 555}, {"note": 74, "velocity": 107, "duration": 165}, {"note": 0, "velocity": 0, "duration": 75}, {"note": 74, "velocity": 112, "duration": 147}, {"note": 0, "velocity": 0, "duration": 93}, {"note": 74, "velocity": 127, "duration": 124}, {"note": 0, "velocity": 0, "duration": 116}, {"note": 74, "velocity": 107, "duration": 49}, {"note": 0, "velocity": 0, "duration": 71}, {"note": 74, "velocity": 122, "duration": 193}, {"note": 0, "velocity": 0, "duration": 167}, {"note": 72, "velocity": 112, "duration": 150}, {"note": 0, "velocity": 0, "duration": 90}, {"note": 72, "velocity": 112, "duration": 175}, {"note": 0, "velocity": 0, "duration": 65}, {"note": 71, "velocity": 93, "duration": 62}, {"note": 71, "velocity": 107, "duration": 295}, {"note": 69, "velocity": 73, "duration": 1580}, {"note": 67, "velocity": 99, "duration": 163}, {"note": 0, "velocity": 0, "duration": 77}, {"note": 79, "velocity": 107, "duration": 167}, {"note": 0, "velocity": 0, "duration": 73}, {"note": 78, "velocity": 122, "duration": 208}, {"note": 79, "velocity": 96, "duration": 161}, {"note": 0, "velocity": 0, "duration": 79}, {"note": 79, "velocity": 117, "duration": 359}, {"note": 0, "velocity": 0, "duration": 121}, {"note": 74, "velocity": 107, "duration": 307}, {"note": 74, "velocity": 117, "duration": 67}, {"note": 0, "velocity": 0, "duration": 173}, {"note": 74, "velocity": 122, "duration": 147}, {"note": 0, "velocity": 0, "duration": 93}, {"note": 74, "velocity": 122, "duration": 143}, {"note": 0, "velocity": 0, "duration": 97}, {"note": 72, "velocity": 89, "duration": 123}, {"note": 0, "velocity": 0, "duration": 117}, {"note": 72, "velocity": 112, "duration": 143}, {"note": 0, "velocity": 0, "duration": 97}, {"note": 72, "velocity": 107, "duration": 160}, {"note": 0, "velocity": 0, "duration": 320}, {"note": 71, "velocity": 112, "duration": 277}, {"note": 0, "velocity": 0, "duration": 203}, {"note": 67, "velocity": 97, "duration": 176}, {"note": 0, "velocity": 0, "duration": 64}, {"note": 79, "velocity": 117, "duration": 130}, {"note": 0, "velocity": 0, "duration": 110}, {"note": 78, "velocity": 122, "duration": 227}, {"note": 79, "velocity": 96, "duration": 134}, {"note": 0, "velocity": 0, "duration": 106}, {"note": 79, "velocity": 100, "duration": 242}, {"note": 0, "velocity": 0, "duration": 238}, {"note": 74, "velocity": 102, "duration": 134}, {"note": 0, "velocity": 0, "duration": 106}, {"note": 74, "velocity": 112, "duration": 136}, {"note": 0, "velocity": 0, "duration": 104}, {"note": 74, "velocity": 127, "duration": 135}, {"note": 74, "velocity": 107, "duration": 115}, {"note": 0, "velocity": 0, "duration": 125}, {"note": 72, "velocity": 93, "duration": 91}, {"note": 0, "velocity": 0, "duration": 149}, {"note": 72, "velocity": 93, "duration": 124}, {"note": 0, "velocity": 0, "duration": 116}, {"note": 72, "velocity": 107, "duration": 278}, {"note": 0, "velocity": 0, "duration": 202}, {"note": 71, "velocity": 117, "duration": 197}, {"note": 0, "velocity": 0, "duration": 283}, {"note": 67, "velocity": 92, "duration": 229}, {"note": 79, "velocity": 99, "duration": 225}, {"note": 78, "velocity": 107, "duration": 189}, {"note": 79, "velocity": 127, "duration": 90}, {"note": 0, "velocity": 0, "duration": 150}, {"note": 78, "velocity": 122, "duration": 422}, {"note": 76, "velocity": 107, "duration": 223}, {"note": 0, "velocity": 0, "duration": 257}, {"note": 67, "velocity": 99, "duration": 163}, {"note": 0, "velocity": 0, "duration": 77}, {"note": 78, "velocity": 117, "duration": 192}, {"note": 76, "velocity": 86, "duration": 194}, {"note": 78, "velocity": 127, "duration": 118}, {"note": 0, "velocity": 0, "duration": 122}, {"note": 76, "velocity": 127, "duration": 438}, {"note": 74, "velocity": 122, "duration": 120}, {"note": 0, "velocity": 0, "duration": 120}, {"note": 67, "velocity": 99, "duration": 184}, {"note": 76, "velocity": 102, "duration": 174}, {"note": 0, "velocity": 0, "duration": 66}, {"note": 74, "velocity": 117, "duration": 194}, {"note": 76, "velocity": 107, "duration": 196}, {"note": 74, "velocity": 112, "duration": 465}, {"note": 72, "velocity": 112, "duration": 231}, {"note": 72, "velocity": 112, "duration": 153}, {"note": 0, "velocity": 0, "duration": 87}, {"note": 71, "velocity": 117, "duration": 178}, {"note": 0, "velocity": 0, "duration": 62}, {"note": 72, "velocity": 122, "duration": 142}, {"note": 0, "velocity": 0, "duration": 98}, {"note": 74, "velocity": 122, "duration": 202}, {"note": 76, "velocity": 117, "duration": 138}, {"note": 0, "velocity": 0, "duration": 102}, {"note": 76, "velocity": 112, "duration": 474}, {"note": 74, "velocity": 102, "duration": 408}, {"note": 0, "velocity": 0, "duration": 72}, {"note": 67, "velocity": 96, "duration": 137}, {"note": 0, "velocity": 0, "duration": 103}, {"note": 79, "velocity": 102, "duration": 186}, {"note": 78, "velocity": 112, "duration": 212}, {"note": 79, "velocity": 107, "duration": 178}, {"note": 0, "velocity": 0, "duration": 62}, {"note": 79, "velocity": 127, "duration": 238}, {"note": 0, "velocity": 0, "duration": 242}, {"note": 74, "velocity": 107, "duration": 125}, {"note": 0, "velocity": 0, "duration": 115}, {"note": 74, "velocity": 127, "duration": 177}, {"note": 0, "velocity": 0, "duration": 63}, {"note": 74, "velocity": 122, "duration": 184}, {"note": 74, "velocity": 127, "duration": 217}, {"note": 72, "velocity": 102, "duration": 152}, {"note": 0, "velocity": 0, "duration": 88}, {"note": 72, "velocity": 117, "duration": 163}, {"note": 0, "velocity": 0, "duration": 77}, {"note": 72, "velocity": 117, "duration": 162}, {"note": 0, "velocity": 0, "duration": 318}, {"note": 71, "velocity": 99, "duration": 241}, {"note": 0, "velocity": 0, "duration": 239}, {"note": 67, "velocity": 100, "duration": 147}, {"note": 0, "velocity": 0, "duration": 93}, {"note": 79, "velocity": 112, "duration": 185}, {"note": 78, "velocity": 107, "duration": 228}, {"note": 79, "velocity": 96, "duration": 161}, {"note": 0, "velocity": 0, "duration": 79}, {"note": 79, "velocity": 117, "duration": 237}, {"note": 0, "velocity": 0, "duration": 243}, {"note": 74, "velocity": 117, "duration": 151}, {"note": 0, "velocity": 0, "duration": 89}, {"note": 74, "velocity": 122, "duration": 163}, {"note": 0, "velocity": 0, "duration": 77}, {"note": 74, "velocity": 122, "duration": 162}, {"note": 0, "velocity": 0, "duration": 78}, {"note": 74, "velocity": 112, "duration": 214}, {"note": 0, "velocity": 0, "duration": 266}, {"note": 81, "velocity": 99, "duration": 136}, {"note": 0, "velocity": 0, "duration": 104}, {"note": 81, "velocity": 127, "duration": 332}, {"note": 0, "velocity": 0, "duration": 148}, {"note": 79, "velocity": 127, "duration": 138}, {"note": 0, "velocity": 0, "duration": 342}, {"note": 67, "velocity": 100, "duration": 163}, {"note": 0, "velocity": 0, "duration": 77}, {"note": 79, "velocity": 102, "duration": 187}, {"note": 78, "velocity": 107, "duration": 263}, {"note": 79, "velocity": 96, "duration": 166}, {"note": 0, "velocity": 0, "duration": 74}, {"note": 79, "velocity": 100, "duration": 72}, {"note": 0, "velocity": 0, "duration": 168}, {"note": 76, "velocity": 90, "duration": 314}, {"note": 0, "velocity": 0, "duration": 166}, {"note": 67, "velocity": 99, "duration": 162}, {"note": 0, "velocity": 0, "duration": 78}, {"note": 78, "velocity": 112, "duration": 206}, {"note": 76, "velocity": 102, "duration": 225}, {"note": 78, "velocity": 122, "duration": 234}, {"note": 76, "velocity": 127, "duration": 216}, {"note": 0, "velocity": 0, "duration": 264}, {"note": 74, "velocity": 102, "duration": 210}, {"note": 0, "velocity": 0, "duration": 270}, {"note": 67, "velocity": 95, "duration": 149}, {"note": 0, "velocity": 0, "duration": 91}, {"note": 76, "velocity": 112, "duration": 201}, {"note": 74, "velocity": 100, "duration": 216}, {"note": 76, "velocity": 107, "duration": 152}, {"note": 0, "velocity": 0, "duration": 88}, {"note": 74, "velocity": 127, "duration": 256}, {"note": 0, "velocity": 0, "duration": 224}, {"note": 72, "velocity": 127, "duration": 153}, {"note": 0, "velocity": 0, "duration": 87}, {"note": 72, "velocity": 102, "duration": 250}, {"note": 71, "velocity": 93, "duration": 216}, {"note": 72, "velocity": 107, "duration": 178}, {"note": 0, "velocity": 0, "duration": 62}, {"note": 74, "velocity": 112, "duration": 232}, {"note": 76, "velocity": 112, "duration": 135}, {"note": 0, "velocity": 0, "duration": 105}, {"note": 74, "velocity": 117, "duration": 0}, {"note": 0, "velocity": 0, "duration": 240}, {"note": 84, "velocity": 127, "duration": 165}, {"note": 0, "velocity": 0, "duration": 75}, {"note": 84, "velocity": 122, "duration": 304}, {"note": 0, "velocity": 0, "duration": 176}, {"note": 74, "velocity": 100, "duration": 217}, {"note": 81, "velocity": 127, "duration": 413}, {"note": 0, "velocity": 0, "duration": 67}, {"note": 79, "velocity": 127, "duration": 1623}]]