[[{"note": 77, "velocity": 127, "duration": 411}, {"note": 77, "velocity": 112, "duration": 272}, {"note": 0, "velocity": 0, "duration": 88}, {"note": 75, "velocity": 117, "duration": 105}, {"note": 70, "velocity": 112, "duration": 199}, {"note": 75, "velocity": 127, "duration": 380}, {"note": 75, "velocity": 127, "duration": 241}, {"note": 72, "velocity": 102, "duration": 232}, {"note": 77, "velocity": 112, "duration": 615}, {"note": 0, "velocity": 0, "duration": 345}, {"note": 77, "velocity": 122, "duration": 286}, {"note": 0, "velocity": 0, "duration": 194}, {"note": 77, "velocity": 127, "duration": 239}, {"note": 75, "velocity": 112, "duration": 176}, {"note": 70, "velocity": 122, "duration": 802}, {"note": 0, "velocity": 0, "duration": 158}, {"note": 68, "velocity": 127, "duration": 259}, {"note": 75, "velocity": 112, "duration": 222}, {"note": 72, "velocity": 117, "duration": 246}, {"note": 68, "velocity": 93, "duration": 219}, {"note": 65, "velocity": 100, "duration": 371}, {"note": 65, "velocity": 107, "duration": 371}, {"note": 70, "velocity": 127, "duration": 302}, {"note": 70, "velocity": 122, "duration": 193}, {"note": 72, "velocity": 112, "duration": 250}, {"note": 75, "velocity": 100, "duration": 127}, {"note": 72, "velocity": 102, "duration": 277}, {"note": 77, "velocity": 127, "duration": 262}, {"note": 0, "velocity": 0, "duration": 98}, {"note": 75, "velocity": 122, "duration": 115}, {"note": 72, "velocity": 107, "duration": 242}, {"note": 77, "velocity": 117, "duration": 183}, {"note": 75, "velocity": 127, "duration": 398}, {"note": 0, "velocity": 0, "duration": 458}, {"note": 72, "velocity": 122, "duration": 269}, {"note": 0, "velocity": 0, "duration": 86}, {"note": 72, "velocity": 102, "duration": 49}, {"note": 0, "velocity": 0, "duration": 72}, {"note": 72, "velocity": 112, "duration": 151}, {"note": 0, "velocity": 0, "duration": 93}, {"note": 72, "velocity": 107, "duration": 96}, {"note": 75, "velocity": 122, "duration": 143}, {"note": 77, "velocity": 95, "duration": 145}, {"note": 0, "velocity": 0, "duration": 88}, {"note": 70, "velocity": 117, "duration": 209}, {"note": 68, "velocity": 127, "duration": 312}, {"note": 0, "velocity": 0, "duration": 185}, {"note": 70, "velocity": 127, "duration": 225}, {"note": 68, "velocity": 112, "duration": 115}, {"note": 70, "velocity": 112, "duration": 158}, {"note": 68, "velocity": 95, "duration": 147}, {"note": 0, "velocity": 0, "duration": 93}, {"note": 63, "velocity": 117, "duration": 201}, {"note": 65, "velocity": 102, "duration": 47}, {"note": 0, "velocity": 0, "duration": 193}, {"note": 79, "velocity": 127, "duration": 121}, {"note": 77, "velocity": 112, "duration": 71}, {"note": 77, "velocity": 127, "duration": 78}, {"note": 77, "velocity": 127, "duration": 305}, {"note": 77, "velocity": 122, "duration": 186}, {"note": 75, "velocity": 127, "duration": 203}, {"note": 70, "velocity": 127, "duration": 696}, {"note": 75, "velocity": 127, "duration": 298}, {"note": 0, "velocity": 0, "duration": 62}, {"note": 75, "velocity": 127, "duration": 320}, {"note": 72, "velocity": 117, "duration": 117}, {"note": 75, "velocity": 112, "duration": 107}, {"note": 77, "velocity": 117, "duration": 303}, {"note": 0, "velocity": 0, "duration": 480}, {"note": 77, "velocity": 127, "duration": 278}, {"note": 0, "velocity": 0, "duration": 82}, {"note": 77, "velocity": 102, "duration": 359}, {"note": 75, "velocity": 127, "duration": 213}, {"note": 70, "velocity": 127, "duration": 209}, {"note": 68, "velocity": 127, "duration": 223}, {"note": 75, "velocity": 112, "duration": 200}, {"note": 72, "velocity": 117, "duration": 216}, {"note": 68, "velocity": 107, "duration": 212}, {"note": 65, "velocity": 102, "duration": 689}, {"note": 65, "velocity": 117, "duration": 365}, {"note": 70, "velocity": 127, "duration": 198}, {"note": 68, "velocity": 127, "duration": 156}, {"note": 70, "velocity": 107, "duration": 118}, {"note": 70, "velocity": 61, "duration": 17}, {"note": 72, "velocity": 107, "duration": 137}, {"note": 0, "velocity": 0, "duration": 103}, {"note": 75, "velocity": 127, "duration": 194}, {"note": 72, "velocity": 117, "duration": 328}, {"note": 0, "velocity": 0, "duration": 152}, {"note": 77, "velocity": 127, "duration": 250}, {"note": 0, "velocity": 0, "duration": 110}, {"note": 77, "velocity": 102, "duration": 104}, {"note": 72, "velocity": 122, "duration": 244}, {"note": 77, "velocity": 107, "duration": 205}, {"note": 75, "velocity": 127, "duration": 115}, {"note": 0, "velocity": 0, "duration": 365}, {"note": 72, "velocity": 117, "duration": 261}, {"note": 0, "velocity": 0, "duration": 99}, {"note": 72, "velocity": 100, "duration": 53}, {"note": 0, "velocity": 0, "duration": 67}, {"note": 72, "velocity": 107, "duration": 217}, {"note": 75, "velocity": 127, "duration": 191}, {"note": 77, "velocity": 127, "duration": 214}, {"note": 70, "velocity": 127, "duration": 224}, {"note": 68, "velocity": 127, "duration": 352}, {"note": 0, "velocity": 0, "duration": 128}, {"note": 70, "velocity": 127, "duration": 216}, {"note": 68, "velocity": 127, "duration": 121}, {"note": 70, "velocity": 117, "duration": 140}, {"note": 68, "velocity": 127, "duration": 163}, {"note": 0, "velocity": 0, "duration": 77}, {"note": 63, "velocity": 127, "duration": 176}, {"note": 0, "velocity": 0, "duration": 64}, {"note": 65, "velocity": 127, "duration": 636}, {"note": 0, "velocity": 0, "duration": 324}, {"note": 74, "velocity": 127, "duration": 53}, {"note": 0, "velocity": 0, "duration": 67}, {"note": 74, "velocity": 93, "duration": 51}, {"note": 0, "velocity": 0, "duration": 69}, {"note": 74, "velocity": 72, "duration": 49}, {"note": 0, "velocity": 0, "duration": 71}, {"note": 74, "velocity": 89, "duration": 35}, {"note": 74, "velocity": 122, "duration": 161}, {"note": 0, "velocity": 0, "duration": 79}, {"note": 70, "velocity": 117, "duration": 230}, {"note": 72, "velocity": 117, "duration": 603}, {"note": 0, "velocity": 0, "duration": 357}, {"note": 77, "velocity": 127, "duration": 53}, {"note": 0, "velocity": 0, "duration": 67}, {"note": 77, "velocity": 93, "duration": 52}, {"note": 0, "velocity": 0, "duration": 68}, {"note": 77, "velocity": 117, "duration": 49}, {"note": 0, "velocity": 0, "duration": 71}, {"note": 77, "velocity": 102, "duration": 50}, {"note": 0, "velocity": 0, "duration": 70}, {"note": 77, "velocity": 122, "duration": 118}, {"note": 0, "velocity": 0, "duration": 122}, {"note": 74, "velocity": 127, "duration": 152}, {"note": 0, "velocity": 0, "duration": 88}, {"note": 75, "velocity": 127, "duration": 108}, {"note": 74, "velocity": 95, "duration": 114}, {"note": 72, "velocity": 102, "duration": 323}, {"note": 0, "velocity": 0, "duration": 397}, {"note": 75, "velocity": 127, "duration": 276}, {"note": 0, "velocity": 0, "duration": 84}, {"note": 75, "velocity": 117, "duration": 53}, {"note": 0, "velocity": 0, "duration": 67}, {"note": 75, "velocity": 127, "duration": 176}, {"note": 0, "velocity": 0, "duration": 64}, {"note": 74, "velocity": 127, "duration": 215}, {"note": 72, "velocity": 127, "duration": 216}, {"note": 74, "velocity": 99, "duration": 6}, {"note": 70, "velocity": 112, "duration": 307}, {"note": 67, "velocity": 127, "duration": 96}, {"note": 70, "velocity": 100, "duration": 125}, {"note": 67, "velocity": 99, "duration": 125}, {"note": 70, "velocity": 100, "duration": 118}, {"note": 67, "velocity": 107, "duration": 152}, {"note": 0, "velocity": 0, "duration": 88}, {"note": 63, "velocity": 122, "duration": 200}, {"note": 65, "velocity": 117, "duration": 672}, {"note": 0, "velocity": 0, "duration": 288}, {"note": 79, "velocity": 127, "duration": 48}, {"note": 0, "velocity": 0, "duration": 72}, {"note": 79, "velocity": 102, "duration": 44}, {"note": 0, "velocity": 0, "duration": 76}, {"note": 79, "velocity": 107, "duration": 46}, {"note": 0, "velocity": 0, "duration": 74}, {"note": 79, "velocity": 92, "duration": 35}, {"note": 0, "velocity": 0, "duration": 85}, {"note": 79, "velocity": 112, "duration": 169}, {"note": 0, "velocity": 0, "duration": 71}, {"note": 75, "velocity": 112, "duration": 101}, {"note": 77, "velocity": 127, "duration": 534}, {"note": 0, "velocity": 0, "duration": 546}, {"note": 77, "velocity": 117, "duration": 58}, {"note": 0, "velocity": 0, "duration": 62}, {"note": 77, "velocity": 93, "duration": 53}, {"note": 0, "velocity": 0, "duration": 67}, {"note": 77, "velocity": 107, "duration": 49}, {"note": 0, "velocity": 0, "duration": 71}, {"note": 77, "velocity": 96, "duration": 46}, {"note": 77, "velocity": 99, "duration": 154}, {"note": 0, "velocity": 0, "duration": 86}, {"note": 72, "velocity": 100, "duration": 96}, {"note": 70, "velocity": 122, "duration": 41}, {"note": 0, "velocity": 0, "duration": 439}, {"note": 80, "velocity": 127, "duration": 310}, {"note": 80, "velocity": 97, "duration": 46}, {"note": 0, "velocity": 0, "duration": 74}, {"note": 80, "velocity": 127, "duration": 223}, {"note": 79, "velocity": 127, "duration": 180}, {"note": 77, "velocity": 127, "duration": 155}, {"note": 0, "velocity": 0, "duration": 85}, {"note": 75, "velocity": 127, "duration": 234}, {"note": 72, "velocity": 107, "duration": 319}, {"note": 70, "velocity": 127, "duration": 120}, {"note": 0, "velocity": 0, "duration": 120}, {"note": 67, "velocity": 107, "duration": 189}, {"note": 75, "velocity": 127, "duration": 40}, {"note": 0, "velocity": 0, "duration": 80}, {"note": 75, "velocity": 117, "duration": 97}, {"note": 72, "velocity": 127, "duration": 148}, {"note": 0, "velocity": 0, "duration": 92}, {"note": 70, "velocity": 127, "duration": 167}, {"note": 67, "velocity": 107, "duration": 133}, {"note": 70, "velocity": 95, "duration": 107}, {"note": 65, "velocity": 100, "duration": 411}, {"note": 0, "velocity": 0, "duration": 309}, {"note": 79, "velocity": 122, "duration": 53}, {"note": 0, "velocity": 0, "duration": 67}, {"note": 79, "velocity": 95, "duration": 49}, {"note": 0, "velocity": 0, "duration": 71}, {"note": 79, "velocity": 96, "duration": 50}, {"note": 0, "velocity": 0, "duration": 70}, {"note": 79, "velocity": 92, "duration": 36}, {"note": 0, "velocity": 0, "duration": 84}, {"note": 79, "velocity": 122, "duration": 139}, {"note": 0, "velocity": 0, "duration": 101}, {"note": 75, "velocity": 122, "duration": 113}, {"note": 77, "velocity": 112, "duration": 106}, {"note": 0, "velocity": 0, "duration": 480}, {"note": 77, "velocity": 122, "duration": 49}, {"note": 0, "velocity": 0, "duration": 71}, {"note": 77, "velocity": 96, "duration": 42}, {"note": 0, "velocity": 0, "duration": 78}, {"note": 77, "velocity": 99, "duration": 46}, {"note": 0, "velocity": 0, "duration": 74}, {"note": 77, "velocity": 102, "duration": 39}, {"note": 0, "velocity": 0, "duration": 81}, {"note": 77, "velocity": 117, "duration": 93}, {"note": 0, "velocity": 0, "duration": 147}, {"note": 72, "velocity": 122, "duration": 111}, {"note": 70, "velocity": 122, "duration": 152}, {"note": 80, "velocity": 127, "duration": 259}, {"note": 0, "velocity": 0, "duration": 101}, {"note": 80, "velocity": 117, "duration": 45}, {"note": 80, "velocity": 127, "duration": 93}, {"note": 0, "velocity": 0, "duration": 147}, {"note": 79, "velocity": 127, "duration": 215}, {"note": 77, "velocity": 112, "duration": 227}, {"note": 77, "velocity": 95, "duration": 106}, {"note": 75, "velocity": 102, "duration": 105}, {"note": 72, "velocity": 107, "duration": 248}, {"note": 70, "velocity": 122, "duration": 85}, {"note": 67, "velocity": 96, "duration": 212}, {"note": 75, "velocity": 127, "duration": 246}, {"note": 72, "velocity": 117, "duration": 256}, {"note": 70, "velocity": 93, "duration": 215}, {"note": 65, "velocity": 102, "duration": 720}, {"note": 75, "velocity": 127, "duration": 226}, {"note": 77, "velocity": 127, "duration": 928}, {"note": 0, "velocity": 0, "duration": 2880}, {"note": 79, "velocity": 127, "duration": 48}, {"note": 0, "velocity": 0, "duration": 72}, {"note": 79, "velocity": 102, "duration": 44}, {"note": 0, "velocity": 0, "duration": 76}, {"note": 79, "velocity": 107, "duration": 46}, {"note": 0, "velocity": 0, "duration": 74}, {"note": 79, "velocity": 92, "duration": 35}, {"note": 79, "velocity": 112, "duration": 169}, {"note": 0, "velocity": 0, "duration": 71}, {"note": 75, "velocity": 112, "duration": 101}, {"note": 77, "velocity": 127, "duration": 534}, {"note": 0, "velocity": 0, "duration": 546}, {"note": 77, "velocity": 117, "duration": 58}, {"note": 0, "velocity": 0, "duration": 62}, {"note": 77, "velocity": 93, "duration": 53}, {"note": 0, "velocity": 0, "duration": 67}, {"note": 77, "velocity": 107, "duration": 49}, {"note": 0, "velocity": 0, "duration": 71}, {"note": 77, "velocity": 96, "duration": 46}, {"note": 77, "velocity": 99, "duration": 154}, {"note": 0, "velocity": 0, "duration": 86}, {"note": 72, "velocity": 100, "duration": 96}, {"note": 70, "velocity": 122, "duration": 521}, {"note": 0, "velocity": 0, "duration": 439}, {"note": 80, "velocity": 127, "duration": 310}, {"note": 80, "velocity": 97, "duration": 46}, {"note": 0, "velocity": 0, "duration": 74}, {"note": 80, "velocity": 127, "duration": 223}, {"note": 79, "velocity": 127, "duration": 180}, {"note": 77, "velocity": 127, "duration": 155}, {"note": 0, "velocity": 0, "duration": 85}, {"note": 75, "velocity": 127, "duration": 234}, {"note": 72, "velocity": 107, "duration": 319}, {"note": 70, "velocity": 127, "duration": 120}, {"note": 67, "velocity": 107, "duration": 189}, {"note": 75, "velocity": 127, "duration": 40}, {"note": 0, "velocity": 0, "duration": 80}, {"note": 75, "velocity": 117, "duration": 97}, {"note": 72, "velocity": 127, "duration": 148}, {"note": 0, "velocity": 0, "duration": 92}, {"note": 70, "velocity": 127, "duration": 167}, {"note": 67, "velocity": 107, "duration": 133}, {"note": 70, "velocity": 95, "duration": 107}, {"note": 65, "velocity": 100, "duration": 171}, {"note": 79, "velocity": 122, "duration": 53}, {"note": 0, "velocity": 0, "duration": 67}, {"note": 79, "velocity": 95, "duration": 49}, {"note": 0, "velocity": 0, "duration": 71}, {"note": 79, "velocity": 96, "duration": 50}, {"note": 0, "velocity": 0, "duration": 70}, {"note": 79, "velocity": 92, "duration": 36}, {"note": 0, "velocity": 0, "duration": 84}, {"note": 79, "velocity": 122, "duration": 139}, {"note": 0, "velocity": 0, "duration": 101}, {"note": 75, "velocity": 122, "duration": 113}, {"note": 77, "velocity": 112, "duration": 106}, {"note": 0, "velocity": 0, "duration": 854}, {"note": 77, "velocity": 122, "duration": 49}, {"note": 0, "velocity": 0, "duration": 71}, {"note": 77, "velocity": 96, "duration": 42}, {"note": 0, "velocity": 0, "duration": 78}, {"note": 77, "velocity": 99, "duration": 46}, {"note": 0, "velocity": 0, "duration": 74}, {"note": 77, "velocity": 102, "duration": 39}, {"note": 77, "velocity": 117, "duration": 93}, {"note": 0, "velocity": 0, "duration": 147}, {"note": 72, "velocity": 122, "duration": 111}, {"note": 70, "velocity": 122, "duration": 272}, {"note": 0, "velocity": 0, "duration": 808}, {"note": 80, "velocity": 127, "duration": 259}, {"note": 0, "velocity": 0, "duration": 101}, {"note": 80, "velocity": 117, "duration": 45}, {"note": 0, "velocity": 0, "duration": 75}, {"note": 80, "velocity": 127, "duration": 93}, {"note": 0, "velocity": 0, "duration": 147}, {"note": 79, "velocity": 127, "duration": 215}, {"note": 77, "velocity": 112, "duration": 227}, {"note": 77, "velocity": 95, "duration": 106}, {"note": 75, "velocity": 102, "duration": 105}, {"note": 72, "velocity": 107, "duration": 248}, {"note": 70, "velocity": 122, "duration": 85}, {"note": 67, "velocity": 96, "duration": 212}, {"note": 75, "velocity": 127, "duration": 246}, {"note": 72, "velocity": 117, "duration": 256}, {"note": 70, "velocity": 93, "duration": 215}, {"note": 65, "velocity": 102, "duration": 240}, {"note": 75, "velocity": 127, "duration": 226}, {"note": 77, "velocity": 127, "duration": 1440}]]