[[{"note": 64, "velocity": 85, "duration": 240}, {"note": 69, "velocity": 87, "duration": 240}, {"note": 67, "velocity": 100, "duration": 2160}, {"note": 64, "velocity": 83, "duration": 239}, {"note": 64, "velocity": 81, "duration": 240}, {"note": 67, "velocity": 74, "duration": 240}, {"note": 72, "velocity": 76, "duration": 240}, {"note": 71, "velocity": 75, "duration": 240}, {"note": 69, "velocity": 65, "duration": 240}, {"note": 67, "velocity": 74, "duration": 240}, {"note": 69, "velocity": 81, "duration": 480}, {"note": 67, "velocity": 90, "duration": 240}, {"note": 69, "velocity": 98, "duration": 720}, {"note": 67, "velocity": 93, "duration": 240}, {"note": 64, "velocity": 77, "duration": 1679}, {"note": 64, "velocity": 90, "duration": 240}, {"note": 69, "velocity": 98, "duration": 240}, {"note": 67, "velocity": 98, "duration": 2160}, {"note": 64, "velocity": 83, "duration": 239}, {"note": 64, "velocity": 95, "duration": 240}, {"note": 67, "velocity": 90, "duration": 240}, {"note": 72, "velocity": 85, "duration": 240}, {"note": 71, "velocity": 86, "duration": 240}, {"note": 69, "velocity": 87, "duration": 240}, {"note": 67, "velocity": 90, "duration": 240}, {"note": 69, "velocity": 98, "duration": 480}, {"note": 67, "velocity": 100, "duration": 240}, {"note": 69, "velocity": 108, "duration": 720}, {"note": 67, "velocity": 111, "duration": 240}, {"note": 72, "velocity": 71, "duration": 239}, {"note": 72, "velocity": 108, "duration": 240}, {"note": 69, "velocity": 83, "duration": 1200}, {"note": 74, "velocity": 114, "duration": 240}, {"note": 72, "velocity": 81, "duration": 240}, {"note": 74, "velocity": 111, "duration": 239}, {"note": 74, "velocity": 112, "duration": 1199}, {"note": 74, "velocity": 104, "duration": 240}, {"note": 72, "velocity": 85, "duration": 240}, {"note": 74, "velocity": 112, "duration": 239}, {"note": 74, "velocity": 112, "duration": 1200}, {"note": 69, "velocity": 85, "duration": 240}, {"note": 71, "velocity": 76, "duration": 240}, {"note": 72, "velocity": 81, "duration": 239}, {"note": 72, "velocity": 87, "duration": 479}, {"note": 72, "velocity": 86, "duration": 240}, {"note": 74, "velocity": 95, "duration": 261}, {"note": 72, "velocity": 81, "duration": 480}, {"note": 69, "velocity": 75, "duration": 240}, {"note": 71, "velocity": 100, "duration": 1440}, {"note": 74, "velocity": 108, "duration": 240}, {"note": 72, "velocity": 83, "duration": 240}, {"note": 74, "velocity": 111, "duration": 239}, {"note": 74, "velocity": 108, "duration": 960}, {"note": 69, "velocity": 77, "duration": 240}, {"note": 72, "velocity": 74, "duration": 240}, {"note": 74, "velocity": 85, "duration": 240}, {"note": 76, "velocity": 83, "duration": 240}, {"note": 74, "velocity": 108, "duration": 1200}, {"note": 72, "velocity": 86, "duration": 240}, {"note": 74, "velocity": 77, "duration": 240}, {"note": 76, "velocity": 95, "duration": 239}, {"note": 76, "velocity": 81, "duration": 239}, {"note": 76, "velocity": 95, "duration": 239}, {"note": 76, "velocity": 85, "duration": 240}, {"note": 79, "velocity": 104, "duration": 480}, {"note": 74, "velocity": 95, "duration": 240}, {"note": 76, "velocity": 114, "duration": 720}, {"note": 64, "velocity": 95, "duration": 240}, {"note": 67, "velocity": 76, "duration": 240}, {"note": 72, "velocity": 104, "duration": 240}, {"note": 71, "velocity": 83, "duration": 240}, {"note": 69, "velocity": 77, "duration": 240}, {"note": 67, "velocity": 86, "duration": 240}, {"note": 69, "velocity": 104, "duration": 2400}, {"note": 64, "velocity": 95, "duration": 240}, {"note": 67, "velocity": 93, "duration": 240}, {"note": 72, "velocity": 93, "duration": 240}, {"note": 71, "velocity": 98, "duration": 240}, {"note": 69, "velocity": 93, "duration": 240}, {"note": 67, "velocity": 83, "duration": 240}, {"note": 64, "velocity": 95, "duration": 2399}, {"note": 64, "velocity": 86, "duration": 240}, {"note": 67, "velocity": 81, "duration": 240}, {"note": 72, "velocity": 95, "duration": 240}, {"note": 71, "velocity": 85, "duration": 240}, {"note": 69, "velocity": 81, "duration": 240}, {"note": 67, "velocity": 79, "duration": 240}, {"note": 69, "velocity": 104, "duration": 2400}, {"note": 64, "velocity": 79, "duration": 240}, {"note": 67, "velocity": 74, "duration": 240}, {"note": 72, "velocity": 98, "duration": 268}, {"note": 71, "velocity": 79, "duration": 257}, {"note": 69, "velocity": 79, "duration": 254}, {"note": 71, "velocity": 79, "duration": 264}, {"note": 69, "velocity": 77, "duration": 2879}, {"note": 69, "velocity": 95, "duration": 480}, {"note": 72, "velocity": 81, "duration": 480}, {"note": 74, "velocity": 111, "duration": 2880}, {"note": 76, "velocity": 104, "duration": 479}, {"note": 76, "velocity": 112, "duration": 480}, {"note": 69, "velocity": 98, "duration": 2879}, {"note": 69, "velocity": 104, "duration": 480}, {"note": 72, "velocity": 104, "duration": 480}, {"note": 74, "velocity": 111, "duration": 2880}, {"note": 76, "velocity": 104, "duration": 479}, {"note": 76, "velocity": 112, "duration": 480}, {"note": 69, "velocity": 111, "duration": 2550}, {"note": 71, "velocity": 100, "duration": 2550}, {"note": 0, "velocity": 0, "duration": 16170}, {"note": 74, "velocity": 114, "duration": 240}, {"note": 72, "velocity": 81, "duration": 240}, {"note": 74, "velocity": 111, "duration": 239}, {"note": 74, "velocity": 112, "duration": 1199}, {"note": 74, "velocity": 104, "duration": 240}, {"note": 72, "velocity": 85, "duration": 240}, {"note": 74, "velocity": 112, "duration": 239}, {"note": 74, "velocity": 112, "duration": 1200}, {"note": 69, "velocity": 85, "duration": 240}, {"note": 71, "velocity": 76, "duration": 240}, {"note": 72, "velocity": 81, "duration": 239}, {"note": 72, "velocity": 87, "duration": 479}, {"note": 72, "velocity": 86, "duration": 240}, {"note": 74, "velocity": 95, "duration": 261}, {"note": 72, "velocity": 81, "duration": 480}, {"note": 69, "velocity": 75, "duration": 240}, {"note": 71, "velocity": 100, "duration": 1440}, {"note": 74, "velocity": 108, "duration": 240}, {"note": 72, "velocity": 83, "duration": 240}, {"note": 74, "velocity": 111, "duration": 239}, {"note": 74, "velocity": 108, "duration": 960}, {"note": 69, "velocity": 77, "duration": 240}, {"note": 72, "velocity": 74, "duration": 240}, {"note": 74, "velocity": 85, "duration": 240}, {"note": 76, "velocity": 83, "duration": 240}, {"note": 74, "velocity": 108, "duration": 1200}, {"note": 72, "velocity": 86, "duration": 240}, {"note": 74, "velocity": 77, "duration": 240}, {"note": 76, "velocity": 95, "duration": 239}, {"note": 76, "velocity": 81, "duration": 239}, {"note": 76, "velocity": 95, "duration": 239}, {"note": 76, "velocity": 85, "duration": 240}, {"note": 79, "velocity": 104, "duration": 480}, {"note": 74, "velocity": 95, "duration": 240}, {"note": 76, "velocity": 114, "duration": 720}, {"note": 64, "velocity": 95, "duration": 240}, {"note": 67, "velocity": 76, "duration": 240}, {"note": 72, "velocity": 104, "duration": 240}, {"note": 71, "velocity": 83, "duration": 240}, {"note": 69, "velocity": 77, "duration": 240}, {"note": 67, "velocity": 86, "duration": 240}, {"note": 69, "velocity": 104, "duration": 2400}, {"note": 64, "velocity": 95, "duration": 240}, {"note": 67, "velocity": 93, "duration": 240}, {"note": 72, "velocity": 93, "duration": 240}, {"note": 71, "velocity": 98, "duration": 240}, {"note": 69, "velocity": 93, "duration": 240}, {"note": 67, "velocity": 83, "duration": 240}, {"note": 64, "velocity": 95, "duration": 2399}, {"note": 64, "velocity": 86, "duration": 240}, {"note": 67, "velocity": 81, "duration": 240}, {"note": 72, "velocity": 95, "duration": 240}, {"note": 71, "velocity": 85, "duration": 240}, {"note": 69, "velocity": 81, "duration": 240}, {"note": 67, "velocity": 79, "duration": 240}, {"note": 69, "velocity": 104, "duration": 2400}, {"note": 64, "velocity": 79, "duration": 240}, {"note": 67, "velocity": 74, "duration": 240}, {"note": 72, "velocity": 98, "duration": 268}, {"note": 71, "velocity": 79, "duration": 257}, {"note": 69, "velocity": 79, "duration": 254}, {"note": 71, "velocity": 79, "duration": 264}, {"note": 69, "velocity": 77, "duration": 2879}, {"note": 69, "velocity": 95, "duration": 480}, {"note": 72, "velocity": 81, "duration": 480}, {"note": 74, "velocity": 111, "duration": 2880}, {"note": 76, "velocity": 104, "duration": 479}, {"note": 76, "velocity": 112, "duration": 480}, {"note": 69, "velocity": 98, "duration": 2879}, {"note": 69, "velocity": 104, "duration": 480}, {"note": 72, "velocity": 104, "duration": 480}, {"note": 74, "velocity": 111, "duration": 2880}, {"note": 76, "velocity": 104, "duration": 479}, {"note": 76, "velocity": 112, "duration": 630}, {"note": 0, "velocity": 0, "duration": 33930}, {"note": 74, "velocity": 114, "duration": 240}, {"note": 72, "velocity": 81, "duration": 240}, {"note": 74, "velocity": 111, "duration": 239}, {"note": 74, "velocity": 112, "duration": 1679}, {"note": 74, "velocity": 108, "duration": 304}, {"note": 72, "velocity": 74, "duration": 240}, {"note": 74, "velocity": 95, "duration": 244}, {"note": 69, "velocity": 100, "duration": 1200}, {"note": 72, "velocity": 90, "duration": 480}, {"note": 69, "velocity": 93, "duration": 480}, {"note": 72, "velocity": 100, "duration": 239}, {"note": 72, "velocity": 104, "duration": 240}, {"note": 69, "velocity": 87, "duration": 359}, {"note": 69, "velocity": 100, "duration": 1320}, {"note": 74, "velocity": 95, "duration": 239}, {"note": 74, "velocity": 112, "duration": 240}, {"note": 72, "velocity": 86, "duration": 240}, {"note": 74, "velocity": 112, "duration": 239}, {"note": 74, "velocity": 112, "duration": 240}, {"note": 72, "velocity": 95, "duration": 240}, {"note": 74, "velocity": 112, "duration": 1199}, {"note": 74, "velocity": 108, "duration": 239}, {"note": 74, "velocity": 98, "duration": 240}, {"note": 72, "velocity": 87, "duration": 240}, {"note": 74, "velocity": 112, "duration": 720}, {"note": 72, "velocity": 86, "duration": 240}, {"note": 74, "velocity": 77, "duration": 240}, {"note": 76, "velocity": 95, "duration": 239}, {"note": 76, "velocity": 81, "duration": 239}, {"note": 76, "velocity": 95, "duration": 239}, {"note": 76, "velocity": 85, "duration": 240}, {"note": 79, "velocity": 104, "duration": 480}, {"note": 74, "velocity": 95, "duration": 240}, {"note": 76, "velocity": 114, "duration": 2640}, {"note": 64, "velocity": 95, "duration": 240}, {"note": 67, "velocity": 76, "duration": 240}, {"note": 72, "velocity": 104, "duration": 240}, {"note": 71, "velocity": 83, "duration": 240}, {"note": 69, "velocity": 77, "duration": 240}, {"note": 67, "velocity": 86, "duration": 240}, {"note": 69, "velocity": 104, "duration": 2400}, {"note": 64, "velocity": 95, "duration": 240}, {"note": 67, "velocity": 93, "duration": 240}, {"note": 72, "velocity": 93, "duration": 240}, {"note": 71, "velocity": 98, "duration": 240}, {"note": 69, "velocity": 93, "duration": 240}, {"note": 67, "velocity": 83, "duration": 240}, {"note": 64, "velocity": 95, "duration": 2399}, {"note": 64, "velocity": 86, "duration": 240}, {"note": 67, "velocity": 81, "duration": 240}, {"note": 72, "velocity": 95, "duration": 240}, {"note": 71, "velocity": 85, "duration": 240}, {"note": 69, "velocity": 81, "duration": 240}, {"note": 67, "velocity": 79, "duration": 240}, {"note": 69, "velocity": 104, "duration": 2400}, {"note": 64, "velocity": 79, "duration": 240}, {"note": 67, "velocity": 74, "duration": 240}, {"note": 72, "velocity": 98, "duration": 268}, {"note": 71, "velocity": 79, "duration": 257}, {"note": 69, "velocity": 79, "duration": 254}, {"note": 71, "velocity": 79, "duration": 264}, {"note": 69, "velocity": 77, "duration": 2400}, {"note": 64, "velocity": 95, "duration": 240}, {"note": 67, "velocity": 76, "duration": 240}, {"note": 72, "velocity": 104, "duration": 240}, {"note": 71, "velocity": 83, "duration": 240}, {"note": 69, "velocity": 77, "duration": 240}, {"note": 67, "velocity": 86, "duration": 240}, {"note": 69, "velocity": 104, "duration": 2400}, {"note": 64, "velocity": 95, "duration": 240}, {"note": 67, "velocity": 93, "duration": 240}, {"note": 72, "velocity": 93, "duration": 240}, {"note": 71, "velocity": 98, "duration": 240}, {"note": 69, "velocity": 93, "duration": 240}, {"note": 67, "velocity": 83, "duration": 240}, {"note": 64, "velocity": 95, "duration": 2399}, {"note": 64, "velocity": 86, "duration": 240}, {"note": 67, "velocity": 81, "duration": 240}, {"note": 72, "velocity": 95, "duration": 240}, {"note": 71, "velocity": 85, "duration": 240}, {"note": 69, "velocity": 81, "duration": 240}, {"note": 67, "velocity": 79, "duration": 240}, {"note": 69, "velocity": 104, "duration": 2400}, {"note": 64, "velocity": 79, "duration": 240}, {"note": 67, "velocity": 74, "duration": 240}, {"note": 72, "velocity": 98, "duration": 268}, {"note": 71, "velocity": 79, "duration": 257}, {"note": 69, "velocity": 79, "duration": 254}, {"note": 71, "velocity": 79, "duration": 264}, {"note": 69, "velocity": 77, "duration": 2400}, {"note": 64, "velocity": 79, "duration": 243}, {"note": 67, "velocity": 68, "duration": 240}, {"note": 72, "velocity": 73, "duration": 271}, {"note": 71, "velocity": 79, "duration": 282}, {"note": 69, "velocity": 64, "duration": 262}, {"note": 67, "velocity": 74, "duration": 276}, {"note": 69, "velocity": 83, "duration": 2400}, {"note": 64, "velocity": 70, "duration": 370}, {"note": 67, "velocity": 67, "duration": 373}, {"note": 72, "velocity": 87, "duration": 440}, {"note": 71, "velocity": 75, "duration": 480}, {"note": 69, "velocity": 98, "duration": 506}, {"note": 67, "velocity": 76, "duration": 580}, {"note": 69, "velocity": 75, "duration": 5310}]]