[[{"note": 61, "velocity": 81, "duration": 149}, {"note": 0, "velocity": 0, "duration": 211}, {"note": 61, "velocity": 85, "duration": 302}, {"note": 63, "velocity": 85, "duration": 174}, {"note": 0, "velocity": 0, "duration": 66}, {"note": 65, "velocity": 85, "duration": 274}, {"note": 0, "velocity": 0, "duration": 206}, {"note": 68, "velocity": 85, "duration": 389}, {"note": 0, "velocity": 0, "duration": 91}, {"note": 70, "velocity": 85, "duration": 244}, {"note": 0, "velocity": 0, "duration": 116}, {"note": 68, "velocity": 84, "duration": 369}, {"note": 65, "velocity": 84, "duration": 214}, {"note": 68, "velocity": 84, "duration": 547}, {"note": 65, "velocity": 84, "duration": 188}, {"note": 63, "velocity": 84, "duration": 272}, {"note": 61, "velocity": 84, "duration": 310}, {"note": 0, "velocity": 0, "duration": 170}, {"note": 61, "velocity": 84, "duration": 195}, {"note": 63, "velocity": 84, "duration": 181}, {"note": 65, "velocity": 84, "duration": 287}, {"note": 0, "velocity": 0, "duration": 193}, {"note": 70, "velocity": 84, "duration": 208}, {"note": 65, "velocity": 83, "duration": 201}, {"note": 68, "velocity": 83, "duration": 1013}, {"note": 0, "velocity": 0, "duration": 667}, {"note": 65, "velocity": 82, "duration": 148}, {"note": 68, "velocity": 82, "duration": 127}, {"note": 70, "velocity": 82, "duration": 257}, {"note": 0, "velocity": 0, "duration": 103}, {"note": 70, "velocity": 82, "duration": 143}, {"note": 0, "velocity": 0, "duration": 217}, {"note": 70, "velocity": 82, "duration": 137}, {"note": 0, "velocity": 0, "duration": 103}, {"note": 65, "velocity": 82, "duration": 323}, {"note": 70, "velocity": 82, "duration": 391}, {"note": 0, "velocity": 0, "duration": 89}, {"note": 65, "velocity": 82, "duration": 230}, {"note": 68, "velocity": 82, "duration": 272}, {"note": 0, "velocity": 0, "duration": 88}, {"note": 68, "velocity": 82, "duration": 203}, {"note": 0, "velocity": 0, "duration": 157}, {"note": 63, "velocity": 82, "duration": 155}, {"note": 0, "velocity": 0, "duration": 85}, {"note": 61, "velocity": 82, "duration": 528}, {"note": 58, "velocity": 82, "duration": 179}, {"note": 65, "velocity": 82, "duration": 136}, {"note": 0, "velocity": 0, "duration": 104}, {"note": 65, "velocity": 82, "duration": 116}, {"note": 0, "velocity": 0, "duration": 124}, {"note": 63, "velocity": 82, "duration": 96}, {"note": 0, "velocity": 0, "duration": 144}, {"note": 63, "velocity": 82, "duration": 214}, {"note": 58, "velocity": 82, "duration": 254}, {"note": 65, "velocity": 82, "duration": 142}, {"note": 0, "velocity": 0, "duration": 98}, {"note": 63, "velocity": 82, "duration": 309}, {"note": 65, "velocity": 82, "duration": 66}, {"note": 0, "velocity": 0, "duration": 171}, {"note": 65, "velocity": 82, "duration": 118}, {"note": 0, "velocity": 0, "duration": 362}, {"note": 63, "velocity": 82, "duration": 801}, {"note": 0, "velocity": 0, "duration": 879}, {"note": 61, "velocity": 82, "duration": 232}, {"note": 0, "velocity": 0, "duration": 128}, {"note": 61, "velocity": 82, "duration": 393}, {"note": 63, "velocity": 82, "duration": 320}, {"note": 65, "velocity": 82, "duration": 464}, {"note": 68, "velocity": 82, "duration": 337}, {"note": 0, "velocity": 0, "duration": 143}, {"note": 70, "velocity": 82, "duration": 258}, {"note": 0, "velocity": 0, "duration": 102}, {"note": 68, "velocity": 82, "duration": 293}, {"note": 0, "velocity": 0, "duration": 67}, {"note": 65, "velocity": 82, "duration": 174}, {"note": 0, "velocity": 0, "duration": 66}, {"note": 68, "velocity": 82, "duration": 488}, {"note": 65, "velocity": 82, "duration": 290}, {"note": 63, "velocity": 82, "duration": 277}, {"note": 61, "velocity": 82, "duration": 241}, {"note": 0, "velocity": 0, "duration": 119}, {"note": 61, "velocity": 82, "duration": 364}, {"note": 63, "velocity": 82, "duration": 278}, {"note": 65, "velocity": 82, "duration": 237}, {"note": 70, "velocity": 82, "duration": 330}, {"note": 0, "velocity": 0, "duration": 150}, {"note": 65, "velocity": 82, "duration": 173}, {"note": 0, "velocity": 0, "duration": 67}, {"note": 68, "velocity": 82, "duration": 1069}, {"note": 0, "velocity": 0, "duration": 611}, {"note": 65, "velocity": 82, "duration": 259}, {"note": 73, "velocity": 83, "duration": 286}, {"note": 0, "velocity": 0, "duration": 74}, {"note": 73, "velocity": 83, "duration": 234}, {"note": 0, "velocity": 0, "duration": 126}, {"note": 70, "velocity": 83, "duration": 258}, {"note": 73, "velocity": 83, "duration": 104}, {"note": 0, "velocity": 0, "duration": 136}, {"note": 75, "velocity": 83, "duration": 205}, {"note": 65, "velocity": 83, "duration": 150}, {"note": 0, "velocity": 0, "duration": 90}, {"note": 70, "velocity": 83, "duration": 135}, {"note": 0, "velocity": 0, "duration": 105}, {"note": 68, "velocity": 83, "duration": 234}, {"note": 0, "velocity": 0, "duration": 126}, {"note": 68, "velocity": 83, "duration": 219}, {"note": 0, "velocity": 0, "duration": 141}, {"note": 65, "velocity": 83, "duration": 188}, {"note": 73, "velocity": 83, "duration": 502}, {"note": 0, "velocity": 0, "duration": 218}, {"note": 73, "velocity": 83, "duration": 104}, {"note": 0, "velocity": 0, "duration": 136}, {"note": 73, "velocity": 84, "duration": 127}, {"note": 0, "velocity": 0, "duration": 113}, {"note": 70, "velocity": 84, "duration": 105}, {"note": 0, "velocity": 0, "duration": 135}, {"note": 70, "velocity": 84, "duration": 132}, {"note": 0, "velocity": 0, "duration": 108}, {"note": 68, "velocity": 84, "duration": 113}, {"note": 0, "velocity": 0, "duration": 127}, {"note": 73, "velocity": 84, "duration": 105}, {"note": 0, "velocity": 0, "duration": 135}, {"note": 70, "velocity": 84, "duration": 93}, {"note": 0, "velocity": 0, "duration": 147}, {"note": 70, "velocity": 84, "duration": 113}, {"note": 0, "velocity": 0, "duration": 127}, {"note": 73, "velocity": 84, "duration": 93}, {"note": 0, "velocity": 0, "duration": 147}, {"note": 75, "velocity": 84, "duration": 960}, {"note": 68, "velocity": 84, "duration": 238}, {"note": 70, "velocity": 84, "duration": 106}, {"note": 0, "velocity": 0, "duration": 134}, {"note": 73, "velocity": 84, "duration": 82}, {"note": 0, "velocity": 0, "duration": 158}, {"note": 75, "velocity": 84, "duration": 103}, {"note": 0, "velocity": 0, "duration": 137}, {"note": 77, "velocity": 85, "duration": 252}, {"note": 0, "velocity": 0, "duration": 108}, {"note": 77, "velocity": 85, "duration": 198}, {"note": 0, "velocity": 0, "duration": 162}, {"note": 77, "velocity": 85, "duration": 111}, {"note": 0, "velocity": 0, "duration": 129}, {"note": 75, "velocity": 85, "duration": 302}, {"note": 0, "velocity": 0, "duration": 178}, {"note": 73, "velocity": 86, "duration": 285}, {"note": 0, "velocity": 0, "duration": 195}, {"note": 75, "velocity": 86, "duration": 256}, {"note": 77, "velocity": 86, "duration": 270}, {"note": 0, "velocity": 0, "duration": 210}, {"note": 68, "velocity": 86, "duration": 530}, {"note": 68, "velocity": 86, "duration": 50}, {"note": 0, "velocity": 0, "duration": 190}, {"note": 68, "velocity": 86, "duration": 196}, {"note": 70, "velocity": 86, "duration": 155}, {"note": 0, "velocity": 0, "duration": 85}, {"note": 73, "velocity": 86, "duration": 165}, {"note": 0, "velocity": 0, "duration": 75}, {"note": 73, "velocity": 86, "duration": 191}, {"note": 0, "velocity": 0, "duration": 289}, {"note": 73, "velocity": 86, "duration": 104}, {"note": 0, "velocity": 0, "duration": 136}, {"note": 73, "velocity": 86, "duration": 304}, {"note": 0, "velocity": 0, "duration": 176}, {"note": 68, "velocity": 86, "duration": 108}, {"note": 0, "velocity": 0, "duration": 132}, {"note": 65, "velocity": 86, "duration": 121}, {"note": 0, "velocity": 0, "duration": 119}, {"note": 68, "velocity": 86, "duration": 1123}, {"note": 0, "velocity": 0, "duration": 557}, {"note": 68, "velocity": 86, "duration": 194}, {"note": 70, "velocity": 86, "duration": 208}, {"note": 0, "velocity": 0, "duration": 152}, {"note": 70, "velocity": 86, "duration": 140}, {"note": 0, "velocity": 0, "duration": 220}, {"note": 70, "velocity": 87, "duration": 132}, {"note": 0, "velocity": 0, "duration": 108}, {"note": 73, "velocity": 87, "duration": 379}, {"note": 0, "velocity": 0, "duration": 101}, {"note": 70, "velocity": 87, "duration": 171}, {"note": 0, "velocity": 0, "duration": 69}, {"note": 73, "velocity": 87, "duration": 99}, {"note": 0, "velocity": 0, "duration": 141}, {"note": 75, "velocity": 87, "duration": 111}, {"note": 0, "velocity": 0, "duration": 129}, {"note": 73, "velocity": 87, "duration": 101}, {"note": 0, "velocity": 0, "duration": 139}, {"note": 73, "velocity": 87, "duration": 174}, {"note": 0, "velocity": 0, "duration": 66}, {"note": 68, "velocity": 87, "duration": 149}, {"note": 0, "velocity": 0, "duration": 91}, {"note": 77, "velocity": 87, "duration": 803}, {"note": 0, "velocity": 0, "duration": 157}, {"note": 78, "velocity": 87, "duration": 182}, {"note": 77, "velocity": 87, "duration": 113}, {"note": 0, "velocity": 0, "duration": 127}, {"note": 78, "velocity": 87, "duration": 142}, {"note": 0, "velocity": 0, "duration": 98}, {"note": 77, "velocity": 87, "duration": 198}, {"note": 73, "velocity": 87, "duration": 177}, {"note": 0, "velocity": 0, "duration": 63}, {"note": 70, "velocity": 87, "duration": 244}, {"note": 0, "velocity": 0, "duration": 236}, {"note": 77, "velocity": 87, "duration": 121}, {"note": 0, "velocity": 0, "duration": 119}, {"note": 75, "velocity": 87, "duration": 335}, {"note": 0, "velocity": 0, "duration": 625}, {"note": 68, "velocity": 87, "duration": 270}, {"note": 70, "velocity": 87, "duration": 153}, {"note": 0, "velocity": 0, "duration": 87}, {"note": 73, "velocity": 87, "duration": 87}, {"note": 0, "velocity": 0, "duration": 153}, {"note": 75, "velocity": 87, "duration": 105}, {"note": 0, "velocity": 0, "duration": 135}, {"note": 77, "velocity": 87, "duration": 238}, {"note": 0, "velocity": 0, "duration": 122}, {"note": 77, "velocity": 87, "duration": 225}, {"note": 0, "velocity": 0, "duration": 135}, {"note": 77, "velocity": 87, "duration": 116}, {"note": 0, "velocity": 0, "duration": 124}, {"note": 75, "velocity": 87, "duration": 326}, {"note": 0, "velocity": 0, "duration": 154}, {"note": 73, "velocity": 87, "duration": 299}, {"note": 0, "velocity": 0, "duration": 181}, {"note": 75, "velocity": 87, "duration": 139}, {"note": 0, "velocity": 0, "duration": 101}, {"note": 77, "velocity": 87, "duration": 243}, {"note": 0, "velocity": 0, "duration": 237}, {"note": 68, "velocity": 87, "duration": 307}, {"note": 0, "velocity": 0, "duration": 173}, {"note": 68, "velocity": 87, "duration": 105}, {"note": 0, "velocity": 0, "duration": 135}, {"note": 68, "velocity": 87, "duration": 273}, {"note": 70, "velocity": 87, "duration": 132}, {"note": 0, "velocity": 0, "duration": 108}, {"note": 73, "velocity": 87, "duration": 157}, {"note": 0, "velocity": 0, "duration": 203}, {"note": 73, "velocity": 87, "duration": 237}, {"note": 0, "velocity": 0, "duration": 123}, {"note": 73, "velocity": 87, "duration": 189}, {"note": 75, "velocity": 87, "duration": 357}, {"note": 73, "velocity": 87, "duration": 353}, {"note": 75, "velocity": 87, "duration": 143}, {"note": 0, "velocity": 0, "duration": 97}, {"note": 80, "velocity": 87, "duration": 779}, {"note": 73, "velocity": 87, "duration": 147}, {"note": 0, "velocity": 0, "duration": 93}, {"note": 82, "velocity": 87, "duration": 151}, {"note": 0, "velocity": 0, "duration": 89}, {"note": 80, "velocity": 87, "duration": 224}, {"note": 77, "velocity": 87, "duration": 235}, {"note": 80, "velocity": 87, "duration": 253}, {"note": 73, "velocity": 87, "duration": 480}, {"note": 0, "velocity": 0, "duration": 240}, {"note": 73, "velocity": 87, "duration": 128}, {"note": 0, "velocity": 0, "duration": 112}, {"note": 75, "velocity": 87, "duration": 113}, {"note": 0, "velocity": 0, "duration": 127}, {"note": 73, "velocity": 87, "duration": 94}, {"note": 0, "velocity": 0, "duration": 146}, {"note": 73, "velocity": 87, "duration": 156}, {"note": 0, "velocity": 0, "duration": 84}, {"note": 70, "velocity": 87, "duration": 134}, {"note": 0, "velocity": 0, "duration": 106}, {"note": 77, "velocity": 87, "duration": 444}, {"note": 0, "velocity": 0, "duration": 276}, {"note": 73, "velocity": 87, "duration": 123}, {"note": 0, "velocity": 0, "duration": 117}, {"note": 80, "velocity": 87, "duration": 388}, {"note": 0, "velocity": 0, "duration": 332}, {"note": 77, "velocity": 87, "duration": 107}, {"note": 0, "velocity": 0, "duration": 133}, {"note": 75, "velocity": 87, "duration": 528}, {"note": 0, "velocity": 0, "duration": 192}, {"note": 70, "velocity": 87, "duration": 161}, {"note": 0, "velocity": 0, "duration": 79}, {"note": 73, "velocity": 87, "duration": 308}, {"note": 0, "velocity": 0, "duration": 172}, {"note": 77, "velocity": 87, "duration": 346}, {"note": 0, "velocity": 0, "duration": 134}, {"note": 75, "velocity": 87, "duration": 960}, {"note": 73, "velocity": 87, "duration": 239}, {"note": 0, "velocity": 0, "duration": 121}, {"note": 70, "velocity": 87, "duration": 257}, {"note": 0, "velocity": 0, "duration": 103}, {"note": 68, "velocity": 87, "duration": 129}, {"note": 0, "velocity": 0, "duration": 111}, {"note": 73, "velocity": 87, "duration": 2890}, {"note": 0, "velocity": 0, "duration": 12470}, {"note": 61, "velocity": 87, "duration": 232}, {"note": 0, "velocity": 0, "duration": 128}, {"note": 61, "velocity": 87, "duration": 393}, {"note": 63, "velocity": 87, "duration": 320}, {"note": 65, "velocity": 87, "duration": 464}, {"note": 68, "velocity": 87, "duration": 337}, {"note": 0, "velocity": 0, "duration": 143}, {"note": 70, "velocity": 87, "duration": 258}, {"note": 0, "velocity": 0, "duration": 102}, {"note": 68, "velocity": 87, "duration": 293}, {"note": 0, "velocity": 0, "duration": 67}, {"note": 65, "velocity": 81, "duration": 174}, {"note": 0, "velocity": 0, "duration": 66}, {"note": 68, "velocity": 81, "duration": 488}, {"note": 65, "velocity": 82, "duration": 290}, {"note": 63, "velocity": 83, "duration": 277}, {"note": 61, "velocity": 83, "duration": 241}, {"note": 0, "velocity": 0, "duration": 119}, {"note": 61, "velocity": 83, "duration": 364}, {"note": 63, "velocity": 83, "duration": 278}, {"note": 65, "velocity": 83, "duration": 237}, {"note": 70, "velocity": 83, "duration": 330}, {"note": 0, "velocity": 0, "duration": 150}, {"note": 65, "velocity": 83, "duration": 173}, {"note": 0, "velocity": 0, "duration": 67}, {"note": 68, "velocity": 83, "duration": 1069}, {"note": 0, "velocity": 0, "duration": 611}, {"note": 65, "velocity": 83, "duration": 259}, {"note": 73, "velocity": 84, "duration": 286}, {"note": 0, "velocity": 0, "duration": 74}, {"note": 73, "velocity": 84, "duration": 234}, {"note": 0, "velocity": 0, "duration": 126}, {"note": 70, "velocity": 84, "duration": 258}, {"note": 73, "velocity": 84, "duration": 104}, {"note": 0, "velocity": 0, "duration": 136}, {"note": 75, "velocity": 84, "duration": 205}, {"note": 65, "velocity": 84, "duration": 150}, {"note": 0, "velocity": 0, "duration": 90}, {"note": 70, "velocity": 85, "duration": 135}, {"note": 0, "velocity": 0, "duration": 105}, {"note": 68, "velocity": 85, "duration": 234}, {"note": 0, "velocity": 0, "duration": 126}, {"note": 68, "velocity": 86, "duration": 219}, {"note": 0, "velocity": 0, "duration": 141}, {"note": 65, "velocity": 86, "duration": 188}, {"note": 73, "velocity": 86, "duration": 502}, {"note": 0, "velocity": 0, "duration": 218}, {"note": 73, "velocity": 86, "duration": 104}, {"note": 0, "velocity": 0, "duration": 136}, {"note": 73, "velocity": 86, "duration": 127}, {"note": 0, "velocity": 0, "duration": 113}, {"note": 70, "velocity": 86, "duration": 105}, {"note": 0, "velocity": 0, "duration": 135}, {"note": 70, "velocity": 86, "duration": 132}, {"note": 0, "velocity": 0, "duration": 108}, {"note": 68, "velocity": 86, "duration": 113}, {"note": 0, "velocity": 0, "duration": 127}, {"note": 73, "velocity": 86, "duration": 105}, {"note": 0, "velocity": 0, "duration": 135}, {"note": 70, "velocity": 86, "duration": 93}, {"note": 0, "velocity": 0, "duration": 147}, {"note": 70, "velocity": 86, "duration": 113}, {"note": 0, "velocity": 0, "duration": 127}, {"note": 73, "velocity": 86, "duration": 93}, {"note": 0, "velocity": 0, "duration": 147}, {"note": 75, "velocity": 86, "duration": 960}, {"note": 68, "velocity": 87, "duration": 238}, {"note": 70, "velocity": 87, "duration": 106}, {"note": 0, "velocity": 0, "duration": 134}, {"note": 73, "velocity": 87, "duration": 82}, {"note": 0, "velocity": 0, "duration": 158}, {"note": 75, "velocity": 87, "duration": 103}, {"note": 0, "velocity": 0, "duration": 137}, {"note": 77, "velocity": 87, "duration": 252}, {"note": 0, "velocity": 0, "duration": 108}, {"note": 77, "velocity": 87, "duration": 198}, {"note": 0, "velocity": 0, "duration": 162}, {"note": 77, "velocity": 88, "duration": 111}, {"note": 0, "velocity": 0, "duration": 129}, {"note": 75, "velocity": 88, "duration": 302}, {"note": 0, "velocity": 0, "duration": 178}, {"note": 73, "velocity": 88, "duration": 285}, {"note": 0, "velocity": 0, "duration": 195}, {"note": 75, "velocity": 88, "duration": 256}, {"note": 77, "velocity": 88, "duration": 270}, {"note": 0, "velocity": 0, "duration": 210}, {"note": 68, "velocity": 88, "duration": 530}, {"note": 68, "velocity": 88, "duration": 50}, {"note": 0, "velocity": 0, "duration": 190}, {"note": 68, "velocity": 88, "duration": 196}, {"note": 70, "velocity": 88, "duration": 155}, {"note": 0, "velocity": 0, "duration": 85}, {"note": 73, "velocity": 88, "duration": 165}, {"note": 0, "velocity": 0, "duration": 75}, {"note": 73, "velocity": 88, "duration": 191}, {"note": 0, "velocity": 0, "duration": 289}, {"note": 73, "velocity": 88, "duration": 104}, {"note": 0, "velocity": 0, "duration": 136}, {"note": 73, "velocity": 88, "duration": 304}, {"note": 0, "velocity": 0, "duration": 176}, {"note": 68, "velocity": 88, "duration": 108}, {"note": 0, "velocity": 0, "duration": 132}, {"note": 65, "velocity": 88, "duration": 121}, {"note": 0, "velocity": 0, "duration": 119}, {"note": 68, "velocity": 88, "duration": 1123}, {"note": 0, "velocity": 0, "duration": 557}, {"note": 68, "velocity": 88, "duration": 194}, {"note": 70, "velocity": 88, "duration": 208}, {"note": 0, "velocity": 0, "duration": 152}, {"note": 70, "velocity": 88, "duration": 140}, {"note": 0, "velocity": 0, "duration": 220}, {"note": 70, "velocity": 88, "duration": 132}, {"note": 0, "velocity": 0, "duration": 108}, {"note": 73, "velocity": 88, "duration": 379}, {"note": 0, "velocity": 0, "duration": 101}, {"note": 70, "velocity": 88, "duration": 171}, {"note": 0, "velocity": 0, "duration": 69}, {"note": 73, "velocity": 88, "duration": 99}, {"note": 0, "velocity": 0, "duration": 141}, {"note": 75, "velocity": 88, "duration": 111}, {"note": 0, "velocity": 0, "duration": 129}, {"note": 73, "velocity": 88, "duration": 101}, {"note": 0, "velocity": 0, "duration": 139}, {"note": 73, "velocity": 88, "duration": 174}, {"note": 0, "velocity": 0, "duration": 66}, {"note": 68, "velocity": 88, "duration": 149}, {"note": 0, "velocity": 0, "duration": 91}, {"note": 77, "velocity": 88, "duration": 803}, {"note": 0, "velocity": 0, "duration": 157}, {"note": 78, "velocity": 88, "duration": 182}, {"note": 77, "velocity": 88, "duration": 113}, {"note": 0, "velocity": 0, "duration": 127}, {"note": 78, "velocity": 88, "duration": 142}, {"note": 0, "velocity": 0, "duration": 98}, {"note": 77, "velocity": 87, "duration": 198}, {"note": 73, "velocity": 87, "duration": 177}, {"note": 0, "velocity": 0, "duration": 63}, {"note": 70, "velocity": 87, "duration": 244}, {"note": 0, "velocity": 0, "duration": 236}, {"note": 77, "velocity": 87, "duration": 121}, {"note": 0, "velocity": 0, "duration": 119}, {"note": 75, "velocity": 87, "duration": 335}, {"note": 0, "velocity": 0, "duration": 625}, {"note": 68, "velocity": 87, "duration": 270}, {"note": 70, "velocity": 87, "duration": 153}, {"note": 0, "velocity": 0, "duration": 87}, {"note": 73, "velocity": 87, "duration": 87}, {"note": 0, "velocity": 0, "duration": 153}, {"note": 75, "velocity": 87, "duration": 105}, {"note": 0, "velocity": 0, "duration": 135}, {"note": 77, "velocity": 87, "duration": 238}, {"note": 0, "velocity": 0, "duration": 122}, {"note": 77, "velocity": 87, "duration": 225}, {"note": 0, "velocity": 0, "duration": 135}, {"note": 77, "velocity": 87, "duration": 116}, {"note": 0, "velocity": 0, "duration": 124}, {"note": 75, "velocity": 87, "duration": 326}, {"note": 0, "velocity": 0, "duration": 154}, {"note": 73, "velocity": 87, "duration": 299}, {"note": 0, "velocity": 0, "duration": 181}, {"note": 75, "velocity": 87, "duration": 139}, {"note": 0, "velocity": 0, "duration": 101}, {"note": 77, "velocity": 87, "duration": 243}, {"note": 0, "velocity": 0, "duration": 237}, {"note": 68, "velocity": 87, "duration": 307}, {"note": 0, "velocity": 0, "duration": 173}, {"note": 68, "velocity": 87, "duration": 105}, {"note": 0, "velocity": 0, "duration": 135}, {"note": 68, "velocity": 87, "duration": 273}, {"note": 70, "velocity": 87, "duration": 132}, {"note": 0, "velocity": 0, "duration": 108}, {"note": 73, "velocity": 87, "duration": 157}, {"note": 0, "velocity": 0, "duration": 203}, {"note": 73, "velocity": 87, "duration": 237}, {"note": 0, "velocity": 0, "duration": 123}, {"note": 73, "velocity": 87, "duration": 189}, {"note": 75, "velocity": 87, "duration": 357}, {"note": 73, "velocity": 87, "duration": 353}, {"note": 75, "velocity": 87, "duration": 143}, {"note": 0, "velocity": 0, "duration": 97}, {"note": 80, "velocity": 87, "duration": 779}, {"note": 73, "velocity": 87, "duration": 147}, {"note": 0, "velocity": 0, "duration": 93}, {"note": 82, "velocity": 87, "duration": 151}, {"note": 0, "velocity": 0, "duration": 89}, {"note": 80, "velocity": 87, "duration": 224}, {"note": 77, "velocity": 87, "duration": 235}, {"note": 80, "velocity": 87, "duration": 253}, {"note": 73, "velocity": 87, "duration": 480}, {"note": 0, "velocity": 0, "duration": 240}, {"note": 73, "velocity": 87, "duration": 128}, {"note": 0, "velocity": 0, "duration": 112}, {"note": 75, "velocity": 87, "duration": 113}, {"note": 0, "velocity": 0, "duration": 127}, {"note": 73, "velocity": 87, "duration": 94}, {"note": 0, "velocity": 0, "duration": 146}, {"note": 73, "velocity": 87, "duration": 156}, {"note": 0, "velocity": 0, "duration": 84}, {"note": 70, "velocity": 87, "duration": 134}, {"note": 0, "velocity": 0, "duration": 106}, {"note": 77, "velocity": 87, "duration": 444}, {"note": 0, "velocity": 0, "duration": 276}, {"note": 73, "velocity": 87, "duration": 123}, {"note": 0, "velocity": 0, "duration": 117}, {"note": 80, "velocity": 87, "duration": 388}, {"note": 0, "velocity": 0, "duration": 332}, {"note": 77, "velocity": 87, "duration": 107}, {"note": 0, "velocity": 0, "duration": 133}, {"note": 75, "velocity": 87, "duration": 528}, {"note": 0, "velocity": 0, "duration": 192}, {"note": 70, "velocity": 87, "duration": 161}, {"note": 0, "velocity": 0, "duration": 79}, {"note": 73, "velocity": 87, "duration": 308}, {"note": 0, "velocity": 0, "duration": 172}, {"note": 77, "velocity": 87, "duration": 346}, {"note": 0, "velocity": 0, "duration": 134}, {"note": 75, "velocity": 87, "duration": 960}, {"note": 73, "velocity": 87, "duration": 239}, {"note": 0, "velocity": 0, "duration": 121}, {"note": 70, "velocity": 87, "duration": 257}, {"note": 0, "velocity": 0, "duration": 103}, {"note": 68, "velocity": 87, "duration": 129}, {"note": 0, "velocity": 0, "duration": 111}, {"note": 73, "velocity": 87, "duration": 1440}, {"note": 0, "velocity": 0, "duration": 14880}, {"note": 68, "velocity": 89, "duration": 238}, {"note": 70, "velocity": 89, "duration": 106}, {"note": 0, "velocity": 0, "duration": 134}, {"note": 73, "velocity": 89, "duration": 82}, {"note": 0, "velocity": 0, "duration": 158}, {"note": 75, "velocity": 89, "duration": 103}, {"note": 0, "velocity": 0, "duration": 137}, {"note": 77, "velocity": 89, "duration": 252}, {"note": 0, "velocity": 0, "duration": 108}, {"note": 77, "velocity": 89, "duration": 198}, {"note": 0, "velocity": 0, "duration": 162}, {"note": 77, "velocity": 89, "duration": 111}, {"note": 0, "velocity": 0, "duration": 129}, {"note": 75, "velocity": 89, "duration": 302}, {"note": 0, "velocity": 0, "duration": 178}, {"note": 73, "velocity": 90, "duration": 285}, {"note": 0, "velocity": 0, "duration": 195}, {"note": 75, "velocity": 90, "duration": 256}, {"note": 77, "velocity": 90, "duration": 270}, {"note": 0, "velocity": 0, "duration": 210}, {"note": 68, "velocity": 90, "duration": 530}, {"note": 68, "velocity": 90, "duration": 50}, {"note": 0, "velocity": 0, "duration": 190}, {"note": 68, "velocity": 90, "duration": 196}, {"note": 70, "velocity": 90, "duration": 155}, {"note": 0, "velocity": 0, "duration": 85}, {"note": 73, "velocity": 90, "duration": 165}, {"note": 0, "velocity": 0, "duration": 75}, {"note": 73, "velocity": 90, "duration": 191}, {"note": 0, "velocity": 0, "duration": 289}, {"note": 73, "velocity": 90, "duration": 104}, {"note": 0, "velocity": 0, "duration": 136}, {"note": 73, "velocity": 90, "duration": 304}, {"note": 0, "velocity": 0, "duration": 176}, {"note": 68, "velocity": 90, "duration": 108}, {"note": 0, "velocity": 0, "duration": 132}, {"note": 65, "velocity": 91, "duration": 121}, {"note": 0, "velocity": 0, "duration": 119}, {"note": 68, "velocity": 91, "duration": 1123}, {"note": 0, "velocity": 0, "duration": 557}, {"note": 68, "velocity": 91, "duration": 194}, {"note": 70, "velocity": 91, "duration": 208}, {"note": 0, "velocity": 0, "duration": 152}, {"note": 70, "velocity": 91, "duration": 140}, {"note": 0, "velocity": 0, "duration": 220}, {"note": 70, "velocity": 91, "duration": 132}, {"note": 0, "velocity": 0, "duration": 108}, {"note": 73, "velocity": 91, "duration": 379}, {"note": 0, "velocity": 0, "duration": 101}, {"note": 70, "velocity": 91, "duration": 171}, {"note": 0, "velocity": 0, "duration": 69}, {"note": 73, "velocity": 91, "duration": 99}, {"note": 0, "velocity": 0, "duration": 141}, {"note": 75, "velocity": 92, "duration": 111}, {"note": 0, "velocity": 0, "duration": 129}, {"note": 73, "velocity": 92, "duration": 101}, {"note": 0, "velocity": 0, "duration": 139}, {"note": 73, "velocity": 92, "duration": 174}, {"note": 0, "velocity": 0, "duration": 66}, {"note": 68, "velocity": 92, "duration": 149}, {"note": 0, "velocity": 0, "duration": 91}, {"note": 77, "velocity": 92, "duration": 803}, {"note": 0, "velocity": 0, "duration": 157}, {"note": 78, "velocity": 92, "duration": 182}, {"note": 77, "velocity": 92, "duration": 113}, {"note": 0, "velocity": 0, "duration": 127}, {"note": 78, "velocity": 92, "duration": 142}, {"note": 0, "velocity": 0, "duration": 98}, {"note": 77, "velocity": 92, "duration": 198}, {"note": 73, "velocity": 92, "duration": 177}, {"note": 0, "velocity": 0, "duration": 63}, {"note": 70, "velocity": 92, "duration": 244}, {"note": 0, "velocity": 0, "duration": 236}, {"note": 77, "velocity": 92, "duration": 121}, {"note": 0, "velocity": 0, "duration": 119}, {"note": 75, "velocity": 92, "duration": 335}, {"note": 0, "velocity": 0, "duration": 625}, {"note": 68, "velocity": 92, "duration": 270}, {"note": 70, "velocity": 92, "duration": 153}, {"note": 0, "velocity": 0, "duration": 87}, {"note": 73, "velocity": 92, "duration": 87}, {"note": 0, "velocity": 0, "duration": 153}, {"note": 75, "velocity": 92, "duration": 105}, {"note": 0, "velocity": 0, "duration": 135}, {"note": 77, "velocity": 92, "duration": 238}, {"note": 0, "velocity": 0, "duration": 122}, {"note": 77, "velocity": 92, "duration": 225}, {"note": 0, "velocity": 0, "duration": 135}, {"note": 77, "velocity": 92, "duration": 116}, {"note": 0, "velocity": 0, "duration": 124}, {"note": 75, "velocity": 92, "duration": 326}, {"note": 0, "velocity": 0, "duration": 154}, {"note": 73, "velocity": 92, "duration": 299}, {"note": 0, "velocity": 0, "duration": 181}, {"note": 75, "velocity": 93, "duration": 139}, {"note": 0, "velocity": 0, "duration": 101}, {"note": 77, "velocity": 93, "duration": 243}, {"note": 0, "velocity": 0, "duration": 237}, {"note": 68, "velocity": 93, "duration": 307}, {"note": 0, "velocity": 0, "duration": 173}, {"note": 68, "velocity": 93, "duration": 105}, {"note": 0, "velocity": 0, "duration": 135}, {"note": 68, "velocity": 93, "duration": 273}, {"note": 70, "velocity": 93, "duration": 132}, {"note": 0, "velocity": 0, "duration": 108}, {"note": 73, "velocity": 93, "duration": 157}, {"note": 0, "velocity": 0, "duration": 203}, {"note": 73, "velocity": 93, "duration": 237}, {"note": 0, "velocity": 0, "duration": 123}, {"note": 73, "velocity": 93, "duration": 189}, {"note": 75, "velocity": 93, "duration": 357}, {"note": 73, "velocity": 93, "duration": 353}, {"note": 75, "velocity": 93, "duration": 143}, {"note": 0, "velocity": 0, "duration": 97}, {"note": 80, "velocity": 93, "duration": 779}, {"note": 73, "velocity": 93, "duration": 147}, {"note": 0, "velocity": 0, "duration": 93}, {"note": 82, "velocity": 93, "duration": 151}, {"note": 0, "velocity": 0, "duration": 89}, {"note": 80, "velocity": 93, "duration": 224}, {"note": 77, "velocity": 93, "duration": 235}, {"note": 80, "velocity": 93, "duration": 253}, {"note": 73, "velocity": 93, "duration": 480}, {"note": 0, "velocity": 0, "duration": 240}, {"note": 73, "velocity": 93, "duration": 128}, {"note": 0, "velocity": 0, "duration": 112}, {"note": 75, "velocity": 93, "duration": 113}, {"note": 0, "velocity": 0, "duration": 127}, {"note": 73, "velocity": 93, "duration": 94}, {"note": 0, "velocity": 0, "duration": 146}, {"note": 73, "velocity": 93, "duration": 156}, {"note": 0, "velocity": 0, "duration": 84}, {"note": 70, "velocity": 93, "duration": 134}, {"note": 0, "velocity": 0, "duration": 106}, {"note": 77, "velocity": 94, "duration": 444}, {"note": 0, "velocity": 0, "duration": 276}, {"note": 73, "velocity": 94, "duration": 123}, {"note": 0, "velocity": 0, "duration": 117}, {"note": 80, "velocity": 94, "duration": 388}, {"note": 0, "velocity": 0, "duration": 332}, {"note": 77, "velocity": 94, "duration": 107}, {"note": 0, "velocity": 0, "duration": 133}, {"note": 75, "velocity": 94, "duration": 528}, {"note": 0, "velocity": 0, "duration": 192}, {"note": 70, "velocity": 94, "duration": 161}, {"note": 0, "velocity": 0, "duration": 79}, {"note": 73, "velocity": 95, "duration": 308}, {"note": 0, "velocity": 0, "duration": 172}, {"note": 77, "velocity": 95, "duration": 346}, {"note": 0, "velocity": 0, "duration": 134}, {"note": 75, "velocity": 96, "duration": 960}, {"note": 73, "velocity": 96, "duration": 239}, {"note": 0, "velocity": 0, "duration": 121}, {"note": 70, "velocity": 96, "duration": 257}, {"note": 0, "velocity": 0, "duration": 103}, {"note": 68, "velocity": 96, "duration": 129}, {"note": 0, "velocity": 0, "duration": 111}, {"note": 73, "velocity": 96, "duration": 1440}]]