[[{"note": 63, "velocity": 79, "duration": 239}, {"note": 63, "velocity": 77, "duration": 239}, {"note": 63, "velocity": 74, "duration": 239}, {"note": 63, "velocity": 75, "duration": 249}, {"note": 66, "velocity": 67, "duration": 239}, {"note": 66, "velocity": 77, "duration": 240}, {"note": 59, "velocity": 74, "duration": 240}, {"note": 63, "velocity": 77, "duration": 120}, {"note": 61, "velocity": 69, "duration": 359}, {"note": 61, "velocity": 85, "duration": 175}, {"note": 59, "velocity": 68, "duration": 240}, {"note": 61, "velocity": 74, "duration": 1320}, {"note": 63, "velocity": 90, "duration": 239}, {"note": 63, "velocity": 83, "duration": 239}, {"note": 63, "velocity": 81, "duration": 239}, {"note": 63, "velocity": 100, "duration": 240}, {"note": 66, "velocity": 67, "duration": 239}, {"note": 66, "velocity": 81, "duration": 240}, {"note": 59, "velocity": 70, "duration": 240}, {"note": 63, "velocity": 74, "duration": 143}, {"note": 61, "velocity": 65, "duration": 359}, {"note": 61, "velocity": 67, "duration": 156}, {"note": 59, "velocity": 65, "duration": 360}, {"note": 61, "velocity": 66, "duration": 606}, {"note": 59, "velocity": 73, "duration": 279}, {"note": 61, "velocity": 65, "duration": 261}, {"note": 63, "velocity": 100, "duration": 240}, {"note": 68, "velocity": 73, "duration": 239}, {"note": 68, "velocity": 73, "duration": 240}, {"note": 71, "velocity": 93, "duration": 240}, {"note": 70, "velocity": 93, "duration": 600}, {"note": 68, "velocity": 76, "duration": 243}, {"note": 66, "velocity": 68, "duration": 120}, {"note": 68, "velocity": 86, "duration": 207}, {"note": 66, "velocity": 64, "duration": 359}, {"note": 66, "velocity": 85, "duration": 148}, {"note": 64, "velocity": 73, "duration": 240}, {"note": 66, "velocity": 76, "duration": 606}, {"note": 63, "velocity": 87, "duration": 186}, {"note": 61, "velocity": 64, "duration": 165}, {"note": 59, "velocity": 67, "duration": 149}, {"note": 61, "velocity": 75, "duration": 1445}, {"note": 63, "velocity": 74, "duration": 120}, {"note": 66, "velocity": 83, "duration": 360}, {"note": 61, "velocity": 81, "duration": 2160}, {"note": 63, "velocity": 79, "duration": 239}, {"note": 63, "velocity": 77, "duration": 239}, {"note": 63, "velocity": 74, "duration": 239}, {"note": 63, "velocity": 75, "duration": 249}, {"note": 66, "velocity": 67, "duration": 239}, {"note": 66, "velocity": 77, "duration": 240}, {"note": 59, "velocity": 74, "duration": 240}, {"note": 63, "velocity": 77, "duration": 120}, {"note": 61, "velocity": 69, "duration": 359}, {"note": 61, "velocity": 85, "duration": 175}, {"note": 59, "velocity": 68, "duration": 240}, {"note": 61, "velocity": 74, "duration": 1320}, {"note": 63, "velocity": 90, "duration": 239}, {"note": 63, "velocity": 83, "duration": 239}, {"note": 63, "velocity": 81, "duration": 239}, {"note": 63, "velocity": 100, "duration": 240}, {"note": 66, "velocity": 67, "duration": 239}, {"note": 66, "velocity": 81, "duration": 240}, {"note": 59, "velocity": 70, "duration": 240}, {"note": 63, "velocity": 74, "duration": 143}, {"note": 61, "velocity": 65, "duration": 359}, {"note": 61, "velocity": 67, "duration": 156}, {"note": 59, "velocity": 65, "duration": 360}, {"note": 61, "velocity": 66, "duration": 606}, {"note": 59, "velocity": 73, "duration": 279}, {"note": 61, "velocity": 65, "duration": 261}, {"note": 63, "velocity": 100, "duration": 240}, {"note": 68, "velocity": 73, "duration": 239}, {"note": 68, "velocity": 73, "duration": 240}, {"note": 71, "velocity": 93, "duration": 240}, {"note": 70, "velocity": 93, "duration": 600}, {"note": 68, "velocity": 76, "duration": 243}, {"note": 66, "velocity": 68, "duration": 120}, {"note": 68, "velocity": 86, "duration": 207}, {"note": 66, "velocity": 64, "duration": 359}, {"note": 66, "velocity": 85, "duration": 148}, {"note": 64, "velocity": 73, "duration": 240}, {"note": 66, "velocity": 76, "duration": 606}, {"note": 63, "velocity": 87, "duration": 186}, {"note": 61, "velocity": 64, "duration": 165}, {"note": 59, "velocity": 67, "duration": 149}, {"note": 61, "velocity": 75, "duration": 1292}, {"note": 59, "velocity": 64, "duration": 279}, {"note": 63, "velocity": 68, "duration": 240}, {"note": 66, "velocity": 79, "duration": 239}, {"note": 66, "velocity": 112, "duration": 487}, {"note": 68, "velocity": 75, "duration": 480}, {"note": 70, "velocity": 95, "duration": 568}, {"note": 71, "velocity": 100, "duration": 120}, {"note": 75, "velocity": 100, "duration": 359}, {"note": 75, "velocity": 90, "duration": 124}, {"note": 76, "velocity": 100, "duration": 359}, {"note": 76, "velocity": 111, "duration": 240}, {"note": 75, "velocity": 71, "duration": 120}, {"note": 76, "velocity": 108, "duration": 359}, {"note": 76, "velocity": 98, "duration": 240}, {"note": 75, "velocity": 87, "duration": 240}, {"note": 73, "velocity": 83, "duration": 239}, {"note": 73, "velocity": 85, "duration": 120}, {"note": 75, "velocity": 83, "duration": 359}, {"note": 75, "velocity": 86, "duration": 240}, {"note": 73, "velocity": 76, "duration": 120}, {"note": 75, "velocity": 86, "duration": 277}, {"note": 75, "velocity": 60, "duration": 37}, {"note": 0, "velocity": 0, "duration": 203}, {"note": 73, "velocity": 95, "duration": 240}, {"note": 71, "velocity": 74, "duration": 719}, {"note": 71, "velocity": 77, "duration": 119}, {"note": 71, "velocity": 83, "duration": 136}, {"note": 68, "velocity": 71, "duration": 239}, {"note": 68, "velocity": 74, "duration": 360}, {"note": 71, "velocity": 87, "duration": 239}, {"note": 71, "velocity": 98, "duration": 240}, {"note": 70, "velocity": 95, "duration": 480}, {"note": 66, "velocity": 86, "duration": 1200}, {"note": 71, "velocity": 85, "duration": 147}, {"note": 75, "velocity": 86, "duration": 359}, {"note": 75, "velocity": 85, "duration": 120}, {"note": 76, "velocity": 81, "duration": 359}, {"note": 76, "velocity": 111, "duration": 240}, {"note": 75, "velocity": 79, "duration": 120}, {"note": 76, "velocity": 95, "duration": 359}, {"note": 76, "velocity": 98, "duration": 240}, {"note": 75, "velocity": 81, "duration": 240}, {"note": 73, "velocity": 86, "duration": 239}, {"note": 73, "velocity": 90, "duration": 120}, {"note": 75, "velocity": 98, "duration": 359}, {"note": 75, "velocity": 98, "duration": 240}, {"note": 73, "velocity": 83, "duration": 120}, {"note": 75, "velocity": 98, "duration": 239}, {"note": 75, "velocity": 108, "duration": 240}, {"note": 73, "velocity": 79, "duration": 240}, {"note": 71, "velocity": 93, "duration": 720}, {"note": 75, "velocity": 76, "duration": 240}, {"note": 73, "velocity": 90, "duration": 239}, {"note": 73, "velocity": 93, "duration": 360}, {"note": 71, "velocity": 76, "duration": 240}, {"note": 73, "velocity": 100, "duration": 129}, {"note": 71, "velocity": 93, "duration": 360}, {"note": 68, "velocity": 93, "duration": 1193}, {"note": 0, "velocity": 0, "duration": 4807}, {"note": 63, "velocity": 79, "duration": 239}, {"note": 63, "velocity": 77, "duration": 239}, {"note": 63, "velocity": 74, "duration": 239}, {"note": 63, "velocity": 75, "duration": 249}, {"note": 66, "velocity": 67, "duration": 239}, {"note": 66, "velocity": 77, "duration": 240}, {"note": 59, "velocity": 74, "duration": 240}, {"note": 63, "velocity": 77, "duration": 120}, {"note": 61, "velocity": 69, "duration": 359}, {"note": 61, "velocity": 85, "duration": 175}, {"note": 59, "velocity": 68, "duration": 240}, {"note": 61, "velocity": 74, "duration": 1320}, {"note": 63, "velocity": 90, "duration": 239}, {"note": 63, "velocity": 83, "duration": 239}, {"note": 63, "velocity": 81, "duration": 239}, {"note": 63, "velocity": 100, "duration": 240}, {"note": 66, "velocity": 67, "duration": 239}, {"note": 66, "velocity": 81, "duration": 240}, {"note": 59, "velocity": 70, "duration": 240}, {"note": 63, "velocity": 74, "duration": 143}, {"note": 61, "velocity": 65, "duration": 359}, {"note": 61, "velocity": 67, "duration": 156}, {"note": 59, "velocity": 65, "duration": 360}, {"note": 61, "velocity": 66, "duration": 606}, {"note": 59, "velocity": 73, "duration": 279}, {"note": 61, "velocity": 65, "duration": 261}, {"note": 63, "velocity": 100, "duration": 240}, {"note": 68, "velocity": 73, "duration": 239}, {"note": 68, "velocity": 73, "duration": 240}, {"note": 71, "velocity": 93, "duration": 240}, {"note": 70, "velocity": 93, "duration": 600}, {"note": 68, "velocity": 76, "duration": 243}, {"note": 66, "velocity": 68, "duration": 120}, {"note": 68, "velocity": 86, "duration": 207}, {"note": 66, "velocity": 64, "duration": 359}, {"note": 66, "velocity": 85, "duration": 148}, {"note": 64, "velocity": 73, "duration": 240}, {"note": 66, "velocity": 76, "duration": 606}, {"note": 63, "velocity": 87, "duration": 186}, {"note": 61, "velocity": 64, "duration": 165}, {"note": 59, "velocity": 67, "duration": 149}, {"note": 61, "velocity": 75, "duration": 1292}, {"note": 59, "velocity": 64, "duration": 279}, {"note": 63, "velocity": 68, "duration": 240}, {"note": 66, "velocity": 79, "duration": 239}, {"note": 66, "velocity": 112, "duration": 487}, {"note": 68, "velocity": 75, "duration": 480}, {"note": 70, "velocity": 95, "duration": 568}, {"note": 71, "velocity": 100, "duration": 120}, {"note": 75, "velocity": 100, "duration": 359}, {"note": 75, "velocity": 90, "duration": 124}, {"note": 76, "velocity": 100, "duration": 359}, {"note": 76, "velocity": 111, "duration": 240}, {"note": 75, "velocity": 71, "duration": 120}, {"note": 76, "velocity": 108, "duration": 359}, {"note": 76, "velocity": 98, "duration": 240}, {"note": 75, "velocity": 87, "duration": 240}, {"note": 73, "velocity": 83, "duration": 239}, {"note": 73, "velocity": 85, "duration": 120}, {"note": 75, "velocity": 83, "duration": 359}, {"note": 75, "velocity": 86, "duration": 240}, {"note": 73, "velocity": 76, "duration": 120}, {"note": 75, "velocity": 86, "duration": 277}, {"note": 75, "velocity": 60, "duration": 37}, {"note": 0, "velocity": 0, "duration": 203}, {"note": 73, "velocity": 95, "duration": 240}, {"note": 71, "velocity": 74, "duration": 719}, {"note": 71, "velocity": 77, "duration": 119}, {"note": 71, "velocity": 83, "duration": 136}, {"note": 68, "velocity": 71, "duration": 239}, {"note": 68, "velocity": 74, "duration": 360}, {"note": 71, "velocity": 87, "duration": 239}, {"note": 71, "velocity": 98, "duration": 240}, {"note": 70, "velocity": 95, "duration": 480}, {"note": 66, "velocity": 86, "duration": 1200}, {"note": 71, "velocity": 85, "duration": 147}, {"note": 75, "velocity": 86, "duration": 359}, {"note": 75, "velocity": 85, "duration": 120}, {"note": 76, "velocity": 81, "duration": 359}, {"note": 76, "velocity": 111, "duration": 240}, {"note": 75, "velocity": 79, "duration": 120}, {"note": 76, "velocity": 95, "duration": 359}, {"note": 76, "velocity": 98, "duration": 240}, {"note": 75, "velocity": 81, "duration": 240}, {"note": 73, "velocity": 86, "duration": 239}, {"note": 73, "velocity": 90, "duration": 120}, {"note": 75, "velocity": 98, "duration": 359}, {"note": 75, "velocity": 98, "duration": 240}, {"note": 73, "velocity": 83, "duration": 120}, {"note": 75, "velocity": 98, "duration": 239}, {"note": 75, "velocity": 108, "duration": 240}, {"note": 73, "velocity": 79, "duration": 240}, {"note": 71, "velocity": 93, "duration": 720}, {"note": 75, "velocity": 76, "duration": 240}, {"note": 73, "velocity": 90, "duration": 239}, {"note": 73, "velocity": 93, "duration": 360}, {"note": 71, "velocity": 76, "duration": 240}, {"note": 73, "velocity": 100, "duration": 129}, {"note": 71, "velocity": 93, "duration": 360}, {"note": 68, "velocity": 93, "duration": 2720}, {"note": 0, "velocity": 0, "duration": 14080}, {"note": 71, "velocity": 98, "duration": 142}, {"note": 75, "velocity": 83, "duration": 359}, {"note": 75, "velocity": 86, "duration": 135}, {"note": 76, "velocity": 108, "duration": 359}, {"note": 76, "velocity": 98, "duration": 240}, {"note": 75, "velocity": 63, "duration": 120}, {"note": 76, "velocity": 79, "duration": 276}, {"note": 76, "velocity": 81, "duration": 36}, {"note": 0, "velocity": 0, "duration": 324}, {"note": 75, "velocity": 81, "duration": 240}, {"note": 73, "velocity": 93, "duration": 239}, {"note": 73, "velocity": 86, "duration": 123}, {"note": 75, "velocity": 76, "duration": 244}, {"note": 75, "velocity": 72, "duration": 4}, {"note": 0, "velocity": 0, "duration": 356}, {"note": 73, "velocity": 85, "duration": 120}, {"note": 75, "velocity": 86, "duration": 239}, {"note": 75, "velocity": 90, "duration": 240}, {"note": 73, "velocity": 95, "duration": 240}, {"note": 71, "velocity": 86, "duration": 719}, {"note": 71, "velocity": 77, "duration": 119}, {"note": 71, "velocity": 73, "duration": 155}, {"note": 68, "velocity": 70, "duration": 239}, {"note": 68, "velocity": 74, "duration": 233}, {"note": 71, "velocity": 81, "duration": 246}, {"note": 71, "velocity": 75, "duration": 240}, {"note": 70, "velocity": 93, "duration": 360}, {"note": 66, "velocity": 76, "duration": 1440}, {"note": 71, "velocity": 98, "duration": 142}, {"note": 75, "velocity": 83, "duration": 359}, {"note": 75, "velocity": 86, "duration": 135}, {"note": 76, "velocity": 108, "duration": 359}, {"note": 76, "velocity": 98, "duration": 240}, {"note": 75, "velocity": 63, "duration": 120}, {"note": 76, "velocity": 79, "duration": 276}, {"note": 78, "velocity": 81, "duration": 344}, {"note": 75, "velocity": 81, "duration": 240}, {"note": 73, "velocity": 93, "duration": 239}, {"note": 73, "velocity": 86, "duration": 123}, {"note": 75, "velocity": 76, "duration": 244}, {"note": 75, "velocity": 72, "duration": 4}, {"note": 0, "velocity": 0, "duration": 356}, {"note": 73, "velocity": 85, "duration": 120}, {"note": 75, "velocity": 86, "duration": 239}, {"note": 75, "velocity": 90, "duration": 240}, {"note": 73, "velocity": 95, "duration": 240}, {"note": 71, "velocity": 86, "duration": 600}, {"note": 75, "velocity": 98, "duration": 239}, {"note": 75, "velocity": 98, "duration": 142}, {"note": 73, "velocity": 71, "duration": 239}, {"note": 73, "velocity": 93, "duration": 360}, {"note": 71, "velocity": 79, "duration": 240}, {"note": 73, "velocity": 83, "duration": 120}, {"note": 71, "velocity": 87, "duration": 360}, {"note": 68, "velocity": 98, "duration": 1440}, {"note": 71, "velocity": 98, "duration": 142}, {"note": 75, "velocity": 83, "duration": 359}, {"note": 75, "velocity": 86, "duration": 135}, {"note": 76, "velocity": 108, "duration": 359}, {"note": 76, "velocity": 98, "duration": 240}, {"note": 75, "velocity": 63, "duration": 120}, {"note": 76, "velocity": 79, "duration": 239}, {"note": 76, "velocity": 81, "duration": 360}, {"note": 75, "velocity": 81, "duration": 240}, {"note": 73, "velocity": 93, "duration": 239}, {"note": 73, "velocity": 86, "duration": 123}, {"note": 75, "velocity": 76, "duration": 239}, {"note": 75, "velocity": 72, "duration": 360}, {"note": 73, "velocity": 85, "duration": 120}, {"note": 75, "velocity": 86, "duration": 239}, {"note": 75, "velocity": 90, "duration": 240}, {"note": 73, "velocity": 95, "duration": 240}, {"note": 71, "velocity": 86, "duration": 719}, {"note": 71, "velocity": 77, "duration": 119}, {"note": 71, "velocity": 73, "duration": 155}, {"note": 68, "velocity": 70, "duration": 239}, {"note": 68, "velocity": 74, "duration": 240}, {"note": 70, "velocity": 81, "duration": 240}, {"note": 71, "velocity": 75, "duration": 240}, {"note": 70, "velocity": 93, "duration": 360}, {"note": 66, "velocity": 76, "duration": 1440}, {"note": 71, "velocity": 98, "duration": 142}, {"note": 75, "velocity": 83, "duration": 359}, {"note": 75, "velocity": 86, "duration": 135}, {"note": 76, "velocity": 108, "duration": 359}, {"note": 76, "velocity": 98, "duration": 240}, {"note": 75, "velocity": 63, "duration": 120}, {"note": 76, "velocity": 79, "duration": 276}, {"note": 78, "velocity": 81, "duration": 344}, {"note": 75, "velocity": 81, "duration": 240}, {"note": 73, "velocity": 93, "duration": 239}, {"note": 73, "velocity": 86, "duration": 123}, {"note": 75, "velocity": 76, "duration": 244}, {"note": 75, "velocity": 72, "duration": 4}, {"note": 0, "velocity": 0, "duration": 356}, {"note": 73, "velocity": 85, "duration": 120}, {"note": 75, "velocity": 86, "duration": 239}, {"note": 75, "velocity": 90, "duration": 240}, {"note": 73, "velocity": 95, "duration": 240}, {"note": 71, "velocity": 86, "duration": 600}, {"note": 75, "velocity": 98, "duration": 239}, {"note": 75, "velocity": 98, "duration": 142}, {"note": 73, "velocity": 71, "duration": 239}, {"note": 73, "velocity": 93, "duration": 262}, {"note": 71, "velocity": 79, "duration": 239}, {"note": 71, "velocity": 73, "duration": 120}, {"note": 73, "velocity": 104, "duration": 120}, {"note": 71, "velocity": 98, "duration": 240}, {"note": 68, "velocity": 104, "duration": 2580}]]