[[{"note": 67, "velocity": 83, "duration": 150}, {"note": 64, "velocity": 60, "duration": 138}, {"note": 72, "velocity": 70, "duration": 120}, {"note": 71, "velocity": 81, "duration": 720}, {"note": 67, "velocity": 77, "duration": 147}, {"note": 64, "velocity": 83, "duration": 2520}, {"note": 67, "velocity": 72, "duration": 146}, {"note": 64, "velocity": 58, "duration": 150}, {"note": 72, "velocity": 69, "duration": 120}, {"note": 71, "velocity": 64, "duration": 360}, {"note": 72, "velocity": 62, "duration": 130}, {"note": 74, "velocity": 67, "duration": 360}, {"note": 67, "velocity": 58, "duration": 248}, {"note": 69, "velocity": 60, "duration": 2399}, {"note": 69, "velocity": 65, "duration": 178}, {"note": 72, "velocity": 63, "duration": 120}, {"note": 69, "velocity": 66, "duration": 155}, {"note": 74, "velocity": 73, "duration": 1440}, {"note": 76, "velocity": 63, "duration": 120}, {"note": 74, "velocity": 70, "duration": 241}, {"note": 71, "velocity": 71, "duration": 240}, {"note": 74, "velocity": 69, "duration": 240}, {"note": 72, "velocity": 62, "duration": 1200}, {"note": 69, "velocity": 72, "duration": 119}, {"note": 69, "velocity": 66, "duration": 119}, {"note": 69, "velocity": 73, "duration": 136}, {"note": 67, "velocity": 63, "duration": 359}, {"note": 67, "velocity": 69, "duration": 120}, {"note": 72, "velocity": 75, "duration": 600}, {"note": 72, "velocity": 59, "duration": 360}, {"note": 69, "velocity": 69, "duration": 360}, {"note": 64, "velocity": 65, "duration": 240}, {"note": 67, "velocity": 73, "duration": 1439}, {"note": 67, "velocity": 83, "duration": 150}, {"note": 64, "velocity": 60, "duration": 138}, {"note": 72, "velocity": 70, "duration": 120}, {"note": 71, "velocity": 81, "duration": 840}, {"note": 67, "velocity": 77, "duration": 147}, {"note": 64, "velocity": 83, "duration": 2520}, {"note": 67, "velocity": 72, "duration": 146}, {"note": 64, "velocity": 58, "duration": 150}, {"note": 72, "velocity": 69, "duration": 120}, {"note": 71, "velocity": 64, "duration": 360}, {"note": 72, "velocity": 62, "duration": 130}, {"note": 74, "velocity": 67, "duration": 360}, {"note": 67, "velocity": 58, "duration": 8}, {"note": 69, "velocity": 60, "duration": 2399}, {"note": 69, "velocity": 65, "duration": 178}, {"note": 72, "velocity": 63, "duration": 120}, {"note": 69, "velocity": 66, "duration": 155}, {"note": 74, "velocity": 73, "duration": 1440}, {"note": 76, "velocity": 63, "duration": 120}, {"note": 74, "velocity": 70, "duration": 241}, {"note": 71, "velocity": 71, "duration": 240}, {"note": 74, "velocity": 69, "duration": 240}, {"note": 72, "velocity": 62, "duration": 1200}, {"note": 69, "velocity": 72, "duration": 119}, {"note": 69, "velocity": 66, "duration": 119}, {"note": 69, "velocity": 73, "duration": 136}, {"note": 67, "velocity": 63, "duration": 359}, {"note": 67, "velocity": 69, "duration": 120}, {"note": 72, "velocity": 75, "duration": 425}, {"note": 67, "velocity": 75, "duration": 250}, {"note": 74, "velocity": 71, "duration": 240}, {"note": 76, "velocity": 67, "duration": 120}, {"note": 74, "velocity": 74, "duration": 1800}, {"note": 72, "velocity": 64, "duration": 170}, {"note": 74, "velocity": 63, "duration": 153}, {"note": 76, "velocity": 65, "duration": 120}, {"note": 79, "velocity": 69, "duration": 119}, {"note": 79, "velocity": 74, "duration": 120}, {"note": 76, "velocity": 63, "duration": 120}, {"note": 79, "velocity": 87, "duration": 241}, {"note": 72, "velocity": 63, "duration": 120}, {"note": 76, "velocity": 69, "duration": 360}, {"note": 74, "velocity": 67, "duration": 434}, {"note": 69, "velocity": 64, "duration": 119}, {"note": 69, "velocity": 58, "duration": 120}, {"note": 71, "velocity": 68, "duration": 120}, {"note": 72, "velocity": 67, "duration": 140}, {"note": 71, "velocity": 63, "duration": 120}, {"note": 69, "velocity": 63, "duration": 120}, {"note": 72, "velocity": 61, "duration": 159}, {"note": 76, "velocity": 65, "duration": 128}, {"note": 79, "velocity": 75, "duration": 1080}, {"note": 69, "velocity": 64, "duration": 155}, {"note": 71, "velocity": 81, "duration": 173}, {"note": 72, "velocity": 62, "duration": 190}, {"note": 74, "velocity": 76, "duration": 290}, {"note": 72, "velocity": 85, "duration": 240}, {"note": 67, "velocity": 63, "duration": 120}, {"note": 76, "velocity": 74, "duration": 360}, {"note": 69, "velocity": 63, "duration": 146}, {"note": 72, "velocity": 65, "duration": 120}, {"note": 74, "velocity": 85, "duration": 240}, {"note": 72, "velocity": 71, "duration": 120}, {"note": 69, "velocity": 68, "duration": 142}, {"note": 72, "velocity": 63, "duration": 161}, {"note": 74, "velocity": 62, "duration": 120}, {"note": 76, "velocity": 67, "duration": 240}, {"note": 74, "velocity": 73, "duration": 1200}, {"note": 72, "velocity": 67, "duration": 141}, {"note": 74, "velocity": 62, "duration": 152}, {"note": 76, "velocity": 65, "duration": 120}, {"note": 79, "velocity": 74, "duration": 119}, {"note": 79, "velocity": 77, "duration": 120}, {"note": 76, "velocity": 61, "duration": 120}, {"note": 79, "velocity": 93, "duration": 259}, {"note": 72, "velocity": 64, "duration": 120}, {"note": 76, "velocity": 74, "duration": 240}, {"note": 74, "velocity": 77, "duration": 480}, {"note": 69, "velocity": 65, "duration": 119}, {"note": 69, "velocity": 63, "duration": 120}, {"note": 71, "velocity": 73, "duration": 120}, {"note": 72, "velocity": 72, "duration": 133}, {"note": 71, "velocity": 60, "duration": 137}, {"note": 69, "velocity": 66, "duration": 120}, {"note": 72, "velocity": 68, "duration": 149}, {"note": 76, "velocity": 67, "duration": 120}, {"note": 79, "velocity": 67, "duration": 1080}, {"note": 69, "velocity": 64, "duration": 134}, {"note": 71, "velocity": 66, "duration": 120}, {"note": 72, "velocity": 71, "duration": 240}, {"note": 74, "velocity": 86, "duration": 162}, {"note": 72, "velocity": 63, "duration": 240}, {"note": 67, "velocity": 64, "duration": 252}, {"note": 76, "velocity": 93, "duration": 360}, {"note": 69, "velocity": 74, "duration": 192}, {"note": 72, "velocity": 74, "duration": 120}, {"note": 74, "velocity": 68, "duration": 240}, {"note": 72, "velocity": 70, "duration": 148}, {"note": 69, "velocity": 59, "duration": 145}, {"note": 76, "velocity": 76, "duration": 240}, {"note": 69, "velocity": 58, "duration": 240}, {"note": 74, "velocity": 74, "duration": 240}, {"note": 72, "velocity": 72, "duration": 1714}, {"note": 0, "velocity": 0, "duration": 11006}, {"note": 67, "velocity": 83, "duration": 150}, {"note": 64, "velocity": 60, "duration": 138}, {"note": 72, "velocity": 70, "duration": 120}, {"note": 71, "velocity": 81, "duration": 840}, {"note": 67, "velocity": 77, "duration": 147}, {"note": 64, "velocity": 83, "duration": 2520}, {"note": 67, "velocity": 72, "duration": 146}, {"note": 64, "velocity": 58, "duration": 150}, {"note": 72, "velocity": 69, "duration": 120}, {"note": 71, "velocity": 64, "duration": 360}, {"note": 72, "velocity": 62, "duration": 130}, {"note": 74, "velocity": 67, "duration": 360}, {"note": 67, "velocity": 58, "duration": 248}, {"note": 69, "velocity": 60, "duration": 2399}, {"note": 69, "velocity": 65, "duration": 178}, {"note": 72, "velocity": 63, "duration": 120}, {"note": 69, "velocity": 66, "duration": 155}, {"note": 74, "velocity": 73, "duration": 1440}, {"note": 76, "velocity": 63, "duration": 120}, {"note": 74, "velocity": 70, "duration": 241}, {"note": 71, "velocity": 71, "duration": 240}, {"note": 74, "velocity": 69, "duration": 240}, {"note": 72, "velocity": 62, "duration": 1200}, {"note": 69, "velocity": 72, "duration": 119}, {"note": 69, "velocity": 66, "duration": 119}, {"note": 69, "velocity": 73, "duration": 136}, {"note": 67, "velocity": 63, "duration": 359}, {"note": 67, "velocity": 69, "duration": 120}, {"note": 72, "velocity": 75, "duration": 425}, {"note": 67, "velocity": 75, "duration": 250}, {"note": 74, "velocity": 71, "duration": 240}, {"note": 76, "velocity": 67, "duration": 120}, {"note": 74, "velocity": 74, "duration": 1800}, {"note": 72, "velocity": 64, "duration": 170}, {"note": 74, "velocity": 63, "duration": 153}, {"note": 76, "velocity": 65, "duration": 120}, {"note": 79, "velocity": 69, "duration": 119}, {"note": 79, "velocity": 74, "duration": 120}, {"note": 76, "velocity": 63, "duration": 120}, {"note": 79, "velocity": 87, "duration": 241}, {"note": 72, "velocity": 63, "duration": 120}, {"note": 76, "velocity": 69, "duration": 360}, {"note": 74, "velocity": 67, "duration": 434}, {"note": 69, "velocity": 64, "duration": 119}, {"note": 69, "velocity": 58, "duration": 120}, {"note": 71, "velocity": 68, "duration": 120}, {"note": 72, "velocity": 67, "duration": 140}, {"note": 71, "velocity": 63, "duration": 120}, {"note": 69, "velocity": 63, "duration": 120}, {"note": 72, "velocity": 61, "duration": 159}, {"note": 76, "velocity": 65, "duration": 128}, {"note": 79, "velocity": 75, "duration": 1080}, {"note": 69, "velocity": 64, "duration": 155}, {"note": 71, "velocity": 81, "duration": 173}, {"note": 72, "velocity": 62, "duration": 190}, {"note": 74, "velocity": 76, "duration": 290}, {"note": 72, "velocity": 85, "duration": 240}, {"note": 67, "velocity": 63, "duration": 120}, {"note": 76, "velocity": 74, "duration": 360}, {"note": 69, "velocity": 63, "duration": 146}, {"note": 72, "velocity": 65, "duration": 120}, {"note": 74, "velocity": 85, "duration": 240}, {"note": 72, "velocity": 71, "duration": 120}, {"note": 69, "velocity": 68, "duration": 142}, {"note": 72, "velocity": 63, "duration": 161}, {"note": 74, "velocity": 62, "duration": 120}, {"note": 76, "velocity": 67, "duration": 240}, {"note": 74, "velocity": 73, "duration": 1200}, {"note": 72, "velocity": 67, "duration": 141}, {"note": 74, "velocity": 62, "duration": 152}, {"note": 76, "velocity": 65, "duration": 120}, {"note": 79, "velocity": 74, "duration": 119}, {"note": 79, "velocity": 77, "duration": 120}, {"note": 76, "velocity": 61, "duration": 120}, {"note": 79, "velocity": 93, "duration": 259}, {"note": 74, "velocity": 64, "duration": 120}, {"note": 76, "velocity": 74, "duration": 240}, {"note": 74, "velocity": 77, "duration": 480}, {"note": 69, "velocity": 65, "duration": 119}, {"note": 69, "velocity": 63, "duration": 120}, {"note": 71, "velocity": 73, "duration": 120}, {"note": 72, "velocity": 72, "duration": 133}, {"note": 71, "velocity": 60, "duration": 137}, {"note": 69, "velocity": 66, "duration": 120}, {"note": 72, "velocity": 68, "duration": 149}, {"note": 76, "velocity": 67, "duration": 120}, {"note": 79, "velocity": 67, "duration": 1080}, {"note": 69, "velocity": 64, "duration": 134}, {"note": 71, "velocity": 66, "duration": 120}, {"note": 72, "velocity": 71, "duration": 240}, {"note": 74, "velocity": 86, "duration": 162}, {"note": 72, "velocity": 63, "duration": 240}, {"note": 67, "velocity": 64, "duration": 252}, {"note": 76, "velocity": 93, "duration": 360}, {"note": 69, "velocity": 74, "duration": 192}, {"note": 72, "velocity": 74, "duration": 120}, {"note": 74, "velocity": 68, "duration": 240}, {"note": 72, "velocity": 70, "duration": 148}, {"note": 69, "velocity": 59, "duration": 145}, {"note": 76, "velocity": 76, "duration": 240}, {"note": 69, "velocity": 58, "duration": 240}, {"note": 74, "velocity": 74, "duration": 240}, {"note": 72, "velocity": 72, "duration": 1919}, {"note": 72, "velocity": 79, "duration": 156}, {"note": 74, "velocity": 65, "duration": 147}, {"note": 76, "velocity": 87, "duration": 120}, {"note": 79, "velocity": 86, "duration": 119}, {"note": 79, "velocity": 108, "duration": 120}, {"note": 76, "velocity": 65, "duration": 120}, {"note": 79, "velocity": 83, "duration": 240}, {"note": 72, "velocity": 83, "duration": 120}, {"note": 76, "velocity": 83, "duration": 240}, {"note": 74, "velocity": 79, "duration": 480}, {"note": 69, "velocity": 67, "duration": 119}, {"note": 69, "velocity": 68, "duration": 120}, {"note": 71, "velocity": 74, "duration": 120}, {"note": 72, "velocity": 77, "duration": 135}, {"note": 71, "velocity": 60, "duration": 132}, {"note": 69, "velocity": 63, "duration": 120}, {"note": 72, "velocity": 68, "duration": 162}, {"note": 76, "velocity": 65, "duration": 120}, {"note": 79, "velocity": 83, "duration": 1080}, {"note": 69, "velocity": 74, "duration": 147}, {"note": 71, "velocity": 74, "duration": 120}, {"note": 72, "velocity": 81, "duration": 240}, {"note": 74, "velocity": 73, "duration": 240}, {"note": 72, "velocity": 77, "duration": 256}, {"note": 67, "velocity": 62, "duration": 121}, {"note": 76, "velocity": 62, "duration": 360}, {"note": 69, "velocity": 74, "duration": 153}, {"note": 72, "velocity": 61, "duration": 120}, {"note": 74, "velocity": 83, "duration": 240}, {"note": 72, "velocity": 65, "duration": 120}, {"note": 69, "velocity": 62, "duration": 160}, {"note": 72, "velocity": 63, "duration": 143}, {"note": 74, "velocity": 68, "duration": 142}, {"note": 76, "velocity": 83, "duration": 240}, {"note": 74, "velocity": 81, "duration": 1200}, {"note": 72, "velocity": 93, "duration": 156}, {"note": 74, "velocity": 66, "duration": 145}, {"note": 76, "velocity": 85, "duration": 120}, {"note": 79, "velocity": 90, "duration": 119}, {"note": 79, "velocity": 108, "duration": 120}, {"note": 76, "velocity": 65, "duration": 120}, {"note": 79, "velocity": 121, "duration": 239}, {"note": 79, "velocity": 83, "duration": 120}, {"note": 81, "velocity": 111, "duration": 240}, {"note": 79, "velocity": 104, "duration": 496}, {"note": 69, "velocity": 65, "duration": 119}, {"note": 69, "velocity": 61, "duration": 120}, {"note": 71, "velocity": 73, "duration": 120}, {"note": 72, "velocity": 81, "duration": 120}, {"note": 71, "velocity": 69, "duration": 139}, {"note": 69, "velocity": 72, "duration": 147}, {"note": 72, "velocity": 83, "duration": 120}, {"note": 76, "velocity": 90, "duration": 230}, {"note": 79, "velocity": 104, "duration": 970}, {"note": 69, "velocity": 77, "duration": 141}, {"note": 71, "velocity": 71, "duration": 143}, {"note": 72, "velocity": 83, "duration": 258}, {"note": 74, "velocity": 98, "duration": 240}, {"note": 72, "velocity": 75, "duration": 273}, {"note": 67, "velocity": 76, "duration": 139}, {"note": 76, "velocity": 104, "duration": 442}, {"note": 69, "velocity": 76, "duration": 159}, {"note": 72, "velocity": 60, "duration": 121}, {"note": 74, "velocity": 87, "duration": 257}, {"note": 72, "velocity": 67, "duration": 255}, {"note": 69, "velocity": 63, "duration": 139}, {"note": 76, "velocity": 95, "duration": 1320}, {"note": 69, "velocity": 71, "duration": 257}, {"note": 74, "velocity": 93, "duration": 240}, {"note": 72, "velocity": 76, "duration": 2434}]]