[[{"note": 68, "velocity": 90, "duration": 239}, {"note": 68, "velocity": 86, "duration": 239}, {"note": 68, "velocity": 81, "duration": 239}, {"note": 68, "velocity": 83, "duration": 0}, {"note": 75, "velocity": 95, "duration": 479}, {"note": 75, "velocity": 104, "duration": 240}, {"note": 73, "velocity": 90, "duration": 479}, {"note": 73, "velocity": 86, "duration": 239}, {"note": 73, "velocity": 87, "duration": 239}, {"note": 73, "velocity": 87, "duration": 240}, {"note": 78, "velocity": 114, "duration": 239}, {"note": 78, "velocity": 112, "duration": 239}, {"note": 78, "velocity": 120, "duration": 480}, {"note": 73, "velocity": 93, "duration": 239}, {"note": 73, "velocity": 79, "duration": 239}, {"note": 73, "velocity": 111, "duration": 239}, {"note": 73, "velocity": 95, "duration": 240}, {"note": 75, "velocity": 114, "duration": 479}, {"note": 75, "velocity": 71, "duration": 240}, {"note": 72, "velocity": 93, "duration": 479}, {"note": 72, "velocity": 67, "duration": 239}, {"note": 72, "velocity": 87, "duration": 240}, {"note": 73, "velocity": 95, "duration": 240}, {"note": 75, "velocity": 87, "duration": 960}, {"note": 68, "velocity": 86, "duration": 239}, {"note": 68, "velocity": 68, "duration": 239}, {"note": 68, "velocity": 77, "duration": 239}, {"note": 68, "velocity": 64, "duration": 240}, {"note": 75, "velocity": 95, "duration": 479}, {"note": 75, "velocity": 87, "duration": 240}, {"note": 73, "velocity": 95, "duration": 479}, {"note": 73, "velocity": 85, "duration": 239}, {"note": 73, "velocity": 90, "duration": 240}, {"note": 78, "velocity": 120, "duration": 479}, {"note": 78, "velocity": 117, "duration": 239}, {"note": 78, "velocity": 120, "duration": 239}, {"note": 78, "velocity": 100, "duration": 240}, {"note": 73, "velocity": 95, "duration": 479}, {"note": 73, "velocity": 90, "duration": 239}, {"note": 73, "velocity": 104, "duration": 240}, {"note": 75, "velocity": 72, "duration": 479}, {"note": 75, "velocity": 69, "duration": 240}, {"note": 72, "velocity": 70, "duration": 479}, {"note": 72, "velocity": 76, "duration": 239}, {"note": 72, "velocity": 87, "duration": 240}, {"note": 68, "velocity": 90, "duration": 239}, {"note": 68, "velocity": 95, "duration": 2479}, {"note": 0, "velocity": 0, "duration": 6161}, {"note": 68, "velocity": 90, "duration": 239}, {"note": 68, "velocity": 86, "duration": 239}, {"note": 68, "velocity": 81, "duration": 239}, {"note": 68, "velocity": 83, "duration": 240}, {"note": 75, "velocity": 95, "duration": 479}, {"note": 75, "velocity": 104, "duration": 240}, {"note": 73, "velocity": 90, "duration": 479}, {"note": 73, "velocity": 86, "duration": 239}, {"note": 73, "velocity": 87, "duration": 239}, {"note": 73, "velocity": 87, "duration": 240}, {"note": 78, "velocity": 114, "duration": 239}, {"note": 78, "velocity": 112, "duration": 239}, {"note": 78, "velocity": 120, "duration": 480}, {"note": 73, "velocity": 93, "duration": 239}, {"note": 73, "velocity": 79, "duration": 239}, {"note": 73, "velocity": 111, "duration": 239}, {"note": 73, "velocity": 95, "duration": 240}, {"note": 75, "velocity": 114, "duration": 479}, {"note": 75, "velocity": 71, "duration": 240}, {"note": 72, "velocity": 93, "duration": 479}, {"note": 72, "velocity": 67, "duration": 239}, {"note": 72, "velocity": 87, "duration": 240}, {"note": 73, "velocity": 95, "duration": 240}, {"note": 75, "velocity": 87, "duration": 960}, {"note": 68, "velocity": 86, "duration": 239}, {"note": 68, "velocity": 68, "duration": 239}, {"note": 68, "velocity": 77, "duration": 239}, {"note": 68, "velocity": 64, "duration": 240}, {"note": 75, "velocity": 95, "duration": 479}, {"note": 75, "velocity": 87, "duration": 240}, {"note": 73, "velocity": 95, "duration": 479}, {"note": 73, "velocity": 85, "duration": 239}, {"note": 73, "velocity": 90, "duration": 240}, {"note": 78, "velocity": 120, "duration": 479}, {"note": 78, "velocity": 117, "duration": 239}, {"note": 78, "velocity": 120, "duration": 239}, {"note": 78, "velocity": 100, "duration": 240}, {"note": 73, "velocity": 95, "duration": 479}, {"note": 73, "velocity": 90, "duration": 239}, {"note": 73, "velocity": 104, "duration": 240}, {"note": 75, "velocity": 72, "duration": 479}, {"note": 75, "velocity": 69, "duration": 240}, {"note": 72, "velocity": 70, "duration": 479}, {"note": 72, "velocity": 76, "duration": 239}, {"note": 72, "velocity": 87, "duration": 240}, {"note": 68, "velocity": 90, "duration": 239}, {"note": 68, "velocity": 95, "duration": 1440}, {"note": 71, "velocity": 90, "duration": 261}, {"note": 68, "velocity": 66, "duration": 240}, {"note": 71, "velocity": 93, "duration": 270}, {"note": 68, "velocity": 75, "duration": 480}, {"note": 73, "velocity": 93, "duration": 480}, {"note": 71, "velocity": 98, "duration": 480}, {"note": 68, "velocity": 95, "duration": 1680}, {"note": 71, "velocity": 100, "duration": 288}, {"note": 68, "velocity": 77, "duration": 240}, {"note": 71, "velocity": 100, "duration": 240}, {"note": 68, "velocity": 87, "duration": 480}, {"note": 73, "velocity": 104, "duration": 480}, {"note": 71, "velocity": 108, "duration": 480}, {"note": 68, "velocity": 86, "duration": 1200}, {"note": 80, "velocity": 85, "duration": 1679}, {"note": 80, "velocity": 111, "duration": 240}, {"note": 78, "velocity": 122, "duration": 1535}, {"note": 75, "velocity": 104, "duration": 480}, {"note": 73, "velocity": 98, "duration": 1440}, {"note": 71, "velocity": 83, "duration": 240}, {"note": 68, "velocity": 76, "duration": 1453}, {"note": 80, "velocity": 85, "duration": 239}, {"note": 80, "velocity": 93, "duration": 240}, {"note": 78, "velocity": 108, "duration": 240}, {"note": 80, "velocity": 100, "duration": 480}, {"note": 83, "velocity": 122, "duration": 719}, {"note": 83, "velocity": 114, "duration": 239}, {"note": 83, "velocity": 95, "duration": 239}, {"note": 83, "velocity": 104, "duration": 240}, {"note": 82, "velocity": 112, "duration": 240}, {"note": 78, "velocity": 95, "duration": 239}, {"note": 78, "velocity": 114, "duration": 719}, {"note": 78, "velocity": 79, "duration": 239}, {"note": 78, "velocity": 81, "duration": 239}, {"note": 78, "velocity": 85, "duration": 240}, {"note": 82, "velocity": 120, "duration": 479}, {"note": 82, "velocity": 121, "duration": 719}, {"note": 82, "velocity": 98, "duration": 239}, {"note": 82, "velocity": 98, "duration": 240}, {"note": 83, "velocity": 104, "duration": 240}, {"note": 82, "velocity": 117, "duration": 480}, {"note": 80, "velocity": 104, "duration": 719}, {"note": 80, "velocity": 85, "duration": 239}, {"note": 80, "velocity": 93, "duration": 240}, {"note": 78, "velocity": 87, "duration": 240}, {"note": 80, "velocity": 112, "duration": 480}, {"note": 83, "velocity": 112, "duration": 719}, {"note": 83, "velocity": 108, "duration": 239}, {"note": 83, "velocity": 104, "duration": 239}, {"note": 83, "velocity": 100, "duration": 240}, {"note": 82, "velocity": 111, "duration": 480}, {"note": 85, "velocity": 114, "duration": 719}, {"note": 85, "velocity": 93, "duration": 239}, {"note": 85, "velocity": 95, "duration": 239}, {"note": 85, "velocity": 100, "duration": 239}, {"note": 85, "velocity": 111, "duration": 480}, {"note": 80, "velocity": 93, "duration": 625}, {"note": 80, "velocity": 79, "duration": 145}, {"note": 0, "velocity": 0, "duration": 335}, {"note": 78, "velocity": 104, "duration": 239}, {"note": 78, "velocity": 111, "duration": 480}, {"note": 75, "velocity": 66, "duration": 240}, {"note": 78, "velocity": 98, "duration": 239}, {"note": 78, "velocity": 111, "duration": 240}, {"note": 80, "velocity": 108, "duration": 2226}, {"note": 0, "velocity": 0, "duration": 6414}, {"note": 68, "velocity": 90, "duration": 239}, {"note": 68, "velocity": 86, "duration": 239}, {"note": 68, "velocity": 81, "duration": 239}, {"note": 68, "velocity": 83, "duration": 240}, {"note": 75, "velocity": 95, "duration": 479}, {"note": 75, "velocity": 104, "duration": 240}, {"note": 73, "velocity": 90, "duration": 479}, {"note": 73, "velocity": 86, "duration": 239}, {"note": 73, "velocity": 87, "duration": 239}, {"note": 73, "velocity": 87, "duration": 240}, {"note": 78, "velocity": 114, "duration": 239}, {"note": 78, "velocity": 112, "duration": 239}, {"note": 78, "velocity": 120, "duration": 480}, {"note": 73, "velocity": 93, "duration": 239}, {"note": 73, "velocity": 79, "duration": 239}, {"note": 73, "velocity": 111, "duration": 239}, {"note": 73, "velocity": 95, "duration": 240}, {"note": 75, "velocity": 114, "duration": 479}, {"note": 75, "velocity": 71, "duration": 240}, {"note": 72, "velocity": 93, "duration": 479}, {"note": 72, "velocity": 67, "duration": 239}, {"note": 72, "velocity": 87, "duration": 240}, {"note": 73, "velocity": 95, "duration": 240}, {"note": 75, "velocity": 87, "duration": 960}, {"note": 68, "velocity": 86, "duration": 239}, {"note": 68, "velocity": 68, "duration": 239}, {"note": 68, "velocity": 77, "duration": 239}, {"note": 68, "velocity": 64, "duration": 240}, {"note": 75, "velocity": 95, "duration": 479}, {"note": 75, "velocity": 87, "duration": 240}, {"note": 73, "velocity": 95, "duration": 479}, {"note": 73, "velocity": 85, "duration": 239}, {"note": 73, "velocity": 90, "duration": 240}, {"note": 78, "velocity": 120, "duration": 479}, {"note": 78, "velocity": 117, "duration": 239}, {"note": 78, "velocity": 120, "duration": 239}, {"note": 78, "velocity": 100, "duration": 240}, {"note": 73, "velocity": 95, "duration": 479}, {"note": 73, "velocity": 90, "duration": 239}, {"note": 73, "velocity": 104, "duration": 240}, {"note": 75, "velocity": 72, "duration": 479}, {"note": 75, "velocity": 69, "duration": 240}, {"note": 72, "velocity": 70, "duration": 479}, {"note": 72, "velocity": 76, "duration": 239}, {"note": 72, "velocity": 87, "duration": 240}, {"note": 68, "velocity": 90, "duration": 239}, {"note": 68, "velocity": 95, "duration": 3093}, {"note": 0, "velocity": 0, "duration": 5547}, {"note": 80, "velocity": 85, "duration": 1679}, {"note": 80, "velocity": 111, "duration": 240}, {"note": 78, "velocity": 122, "duration": 1535}, {"note": 75, "velocity": 104, "duration": 480}, {"note": 73, "velocity": 98, "duration": 1440}, {"note": 71, "velocity": 83, "duration": 240}, {"note": 68, "velocity": 76, "duration": 1453}, {"note": 80, "velocity": 85, "duration": 239}, {"note": 80, "velocity": 93, "duration": 240}, {"note": 78, "velocity": 108, "duration": 240}, {"note": 80, "velocity": 100, "duration": 480}, {"note": 83, "velocity": 122, "duration": 719}, {"note": 83, "velocity": 114, "duration": 239}, {"note": 83, "velocity": 95, "duration": 239}, {"note": 83, "velocity": 104, "duration": 240}, {"note": 82, "velocity": 112, "duration": 240}, {"note": 78, "velocity": 95, "duration": 239}, {"note": 78, "velocity": 114, "duration": 719}, {"note": 78, "velocity": 79, "duration": 239}, {"note": 78, "velocity": 81, "duration": 239}, {"note": 78, "velocity": 85, "duration": 240}, {"note": 82, "velocity": 120, "duration": 479}, {"note": 82, "velocity": 121, "duration": 719}, {"note": 82, "velocity": 98, "duration": 239}, {"note": 82, "velocity": 98, "duration": 240}, {"note": 83, "velocity": 104, "duration": 240}, {"note": 82, "velocity": 117, "duration": 480}, {"note": 80, "velocity": 104, "duration": 719}, {"note": 80, "velocity": 85, "duration": 239}, {"note": 80, "velocity": 93, "duration": 240}, {"note": 78, "velocity": 87, "duration": 240}, {"note": 80, "velocity": 112, "duration": 480}, {"note": 83, "velocity": 112, "duration": 719}, {"note": 83, "velocity": 108, "duration": 239}, {"note": 83, "velocity": 104, "duration": 239}, {"note": 83, "velocity": 100, "duration": 240}, {"note": 82, "velocity": 111, "duration": 480}, {"note": 85, "velocity": 114, "duration": 719}, {"note": 85, "velocity": 93, "duration": 239}, {"note": 85, "velocity": 95, "duration": 239}, {"note": 85, "velocity": 100, "duration": 239}, {"note": 85, "velocity": 111, "duration": 480}, {"note": 80, "velocity": 93, "duration": 625}, {"note": 80, "velocity": 79, "duration": 145}, {"note": 0, "velocity": 0, "duration": 335}, {"note": 78, "velocity": 104, "duration": 239}, {"note": 78, "velocity": 111, "duration": 480}, {"note": 75, "velocity": 66, "duration": 240}, {"note": 78, "velocity": 98, "duration": 239}, {"note": 78, "velocity": 111, "duration": 240}, {"note": 80, "velocity": 108, "duration": 333}, {"note": 80, "velocity": 85, "duration": 93}, {"note": 0, "velocity": 0, "duration": 147}, {"note": 80, "velocity": 93, "duration": 240}, {"note": 78, "velocity": 108, "duration": 240}, {"note": 80, "velocity": 100, "duration": 480}, {"note": 83, "velocity": 122, "duration": 719}, {"note": 83, "velocity": 114, "duration": 239}, {"note": 83, "velocity": 95, "duration": 239}, {"note": 83, "velocity": 104, "duration": 240}, {"note": 82, "velocity": 112, "duration": 240}, {"note": 78, "velocity": 95, "duration": 239}, {"note": 78, "velocity": 114, "duration": 719}, {"note": 78, "velocity": 79, "duration": 239}, {"note": 78, "velocity": 81, "duration": 239}, {"note": 78, "velocity": 85, "duration": 240}, {"note": 82, "velocity": 120, "duration": 479}, {"note": 82, "velocity": 121, "duration": 719}, {"note": 82, "velocity": 98, "duration": 239}, {"note": 82, "velocity": 98, "duration": 240}, {"note": 83, "velocity": 104, "duration": 240}, {"note": 82, "velocity": 117, "duration": 480}, {"note": 80, "velocity": 104, "duration": 719}, {"note": 80, "velocity": 85, "duration": 239}, {"note": 80, "velocity": 93, "duration": 240}, {"note": 78, "velocity": 87, "duration": 240}, {"note": 80, "velocity": 112, "duration": 480}, {"note": 83, "velocity": 112, "duration": 719}, {"note": 83, "velocity": 108, "duration": 239}, {"note": 83, "velocity": 104, "duration": 239}, {"note": 83, "velocity": 100, "duration": 240}, {"note": 82, "velocity": 111, "duration": 480}, {"note": 85, "velocity": 114, "duration": 719}, {"note": 85, "velocity": 93, "duration": 239}, {"note": 85, "velocity": 95, "duration": 239}, {"note": 85, "velocity": 100, "duration": 239}, {"note": 85, "velocity": 111, "duration": 480}, {"note": 80, "velocity": 93, "duration": 625}, {"note": 80, "velocity": 79, "duration": 145}, {"note": 0, "velocity": 0, "duration": 335}, {"note": 78, "velocity": 104, "duration": 239}, {"note": 78, "velocity": 111, "duration": 480}, {"note": 75, "velocity": 66, "duration": 240}, {"note": 78, "velocity": 98, "duration": 239}, {"note": 78, "velocity": 111, "duration": 240}, {"note": 80, "velocity": 108, "duration": 1439}, {"note": 80, "velocity": 90, "duration": 239}, {"note": 80, "velocity": 108, "duration": 239}, {"note": 80, "velocity": 108, "duration": 480}, {"note": 75, "velocity": 68, "duration": 240}, {"note": 78, "velocity": 95, "duration": 918}, {"note": 75, "velocity": 64, "duration": 480}, {"note": 73, "velocity": 73, "duration": 246}, {"note": 71, "velocity": 66, "duration": 480}, {"note": 73, "velocity": 95, "duration": 2160}, {"note": 68, "velocity": 70, "duration": 2400}, {"note": 80, "velocity": 87, "duration": 239}, {"note": 80, "velocity": 87, "duration": 239}, {"note": 80, "velocity": 95, "duration": 240}, {"note": 75, "velocity": 87, "duration": 480}, {"note": 78, "velocity": 112, "duration": 726}, {"note": 75, "velocity": 100, "duration": 492}, {"note": 73, "velocity": 72, "duration": 285}, {"note": 71, "velocity": 75, "duration": 509}, {"note": 73, "velocity": 86, "duration": 3310}, {"note": 80, "velocity": 85, "duration": 239}, {"note": 80, "velocity": 93, "duration": 240}, {"note": 78, "velocity": 108, "duration": 240}, {"note": 80, "velocity": 100, "duration": 480}, {"note": 83, "velocity": 122, "duration": 719}, {"note": 83, "velocity": 114, "duration": 239}, {"note": 83, "velocity": 95, "duration": 239}, {"note": 83, "velocity": 104, "duration": 240}, {"note": 82, "velocity": 112, "duration": 240}, {"note": 78, "velocity": 95, "duration": 239}, {"note": 78, "velocity": 114, "duration": 719}, {"note": 78, "velocity": 79, "duration": 239}, {"note": 78, "velocity": 81, "duration": 239}, {"note": 78, "velocity": 85, "duration": 240}, {"note": 82, "velocity": 120, "duration": 479}, {"note": 82, "velocity": 121, "duration": 719}, {"note": 82, "velocity": 98, "duration": 239}, {"note": 82, "velocity": 98, "duration": 240}, {"note": 83, "velocity": 104, "duration": 240}, {"note": 82, "velocity": 117, "duration": 480}, {"note": 80, "velocity": 104, "duration": 719}, {"note": 80, "velocity": 85, "duration": 239}, {"note": 80, "velocity": 93, "duration": 240}, {"note": 78, "velocity": 87, "duration": 240}, {"note": 80, "velocity": 112, "duration": 480}, {"note": 83, "velocity": 112, "duration": 719}, {"note": 83, "velocity": 108, "duration": 239}, {"note": 83, "velocity": 104, "duration": 239}, {"note": 83, "velocity": 100, "duration": 240}, {"note": 82, "velocity": 111, "duration": 480}, {"note": 85, "velocity": 114, "duration": 719}, {"note": 85, "velocity": 93, "duration": 239}, {"note": 85, "velocity": 95, "duration": 239}, {"note": 85, "velocity": 100, "duration": 239}, {"note": 85, "velocity": 111, "duration": 480}, {"note": 80, "velocity": 93, "duration": 625}, {"note": 80, "velocity": 79, "duration": 145}, {"note": 0, "velocity": 0, "duration": 335}, {"note": 78, "velocity": 104, "duration": 239}, {"note": 78, "velocity": 111, "duration": 480}, {"note": 75, "velocity": 66, "duration": 240}, {"note": 80, "velocity": 98, "duration": 239}, {"note": 80, "velocity": 111, "duration": 470}, {"note": 80, "velocity": 85, "duration": 248}, {"note": 80, "velocity": 93, "duration": 240}, {"note": 78, "velocity": 108, "duration": 240}, {"note": 80, "velocity": 100, "duration": 480}, {"note": 83, "velocity": 122, "duration": 717}, {"note": 83, "velocity": 85, "duration": 241}, {"note": 83, "velocity": 95, "duration": 239}, {"note": 83, "velocity": 104, "duration": 240}, {"note": 82, "velocity": 112, "duration": 240}, {"note": 78, "velocity": 95, "duration": 239}, {"note": 78, "velocity": 114, "duration": 719}, {"note": 78, "velocity": 79, "duration": 239}, {"note": 78, "velocity": 81, "duration": 239}, {"note": 78, "velocity": 85, "duration": 240}, {"note": 82, "velocity": 120, "duration": 479}, {"note": 82, "velocity": 121, "duration": 719}, {"note": 82, "velocity": 98, "duration": 239}, {"note": 82, "velocity": 98, "duration": 240}, {"note": 83, "velocity": 104, "duration": 240}, {"note": 82, "velocity": 117, "duration": 480}, {"note": 80, "velocity": 104, "duration": 719}, {"note": 80, "velocity": 85, "duration": 239}, {"note": 80, "velocity": 93, "duration": 240}, {"note": 78, "velocity": 87, "duration": 240}, {"note": 80, "velocity": 112, "duration": 480}, {"note": 83, "velocity": 112, "duration": 719}, {"note": 83, "velocity": 108, "duration": 239}, {"note": 83, "velocity": 104, "duration": 239}, {"note": 83, "velocity": 100, "duration": 240}, {"note": 82, "velocity": 111, "duration": 480}, {"note": 85, "velocity": 114, "duration": 719}, {"note": 85, "velocity": 93, "duration": 239}, {"note": 85, "velocity": 95, "duration": 239}, {"note": 85, "velocity": 100, "duration": 239}, {"note": 85, "velocity": 111, "duration": 480}, {"note": 80, "velocity": 93, "duration": 479}, {"note": 80, "velocity": 79, "duration": 480}, {"note": 78, "velocity": 104, "duration": 239}, {"note": 78, "velocity": 111, "duration": 480}, {"note": 75, "velocity": 66, "duration": 240}, {"note": 78, "velocity": 98, "duration": 240}, {"note": 80, "velocity": 111, "duration": 239}, {"note": 80, "velocity": 108, "duration": 586}]]