[[{"note": 68, "velocity": 84, "duration": 120}, {"note": 70, "velocity": 73, "duration": 119}, {"note": 70, "velocity": 73, "duration": 120}, {"note": 68, "velocity": 65, "duration": 120}, {"note": 70, "velocity": 74, "duration": 119}, {"note": 70, "velocity": 84, "duration": 240}, {"note": 61, "velocity": 60, "duration": 139}, {"note": 63, "velocity": 60, "duration": 134}, {"note": 65, "velocity": 64, "duration": 119}, {"note": 65, "velocity": 61, "duration": 119}, {"note": 65, "velocity": 69, "duration": 480}, {"note": 68, "velocity": 94, "duration": 240}, {"note": 70, "velocity": 78, "duration": 119}, {"note": 70, "velocity": 70, "duration": 120}, {"note": 68, "velocity": 73, "duration": 120}, {"note": 73, "velocity": 89, "duration": 120}, {"note": 70, "velocity": 84, "duration": 240}, {"note": 61, "velocity": 63, "duration": 145}, {"note": 63, "velocity": 66, "duration": 136}, {"note": 65, "velocity": 68, "duration": 139}, {"note": 68, "velocity": 73, "duration": 120}, {"note": 65, "velocity": 75, "duration": 480}, {"note": 68, "velocity": 70, "duration": 119}, {"note": 68, "velocity": 84, "duration": 120}, {"note": 70, "velocity": 84, "duration": 119}, {"note": 70, "velocity": 84, "duration": 120}, {"note": 68, "velocity": 84, "duration": 120}, {"note": 70, "velocity": 84, "duration": 119}, {"note": 70, "velocity": 84, "duration": 240}, {"note": 61, "velocity": 84, "duration": 125}, {"note": 63, "velocity": 84, "duration": 120}, {"note": 65, "velocity": 84, "duration": 119}, {"note": 65, "velocity": 84, "duration": 119}, {"note": 65, "velocity": 84, "duration": 360}, {"note": 68, "velocity": 84, "duration": 480}, {"note": 61, "velocity": 84, "duration": 240}, {"note": 63, "velocity": 84, "duration": 1440}, {"note": 68, "velocity": 84, "duration": 120}, {"note": 70, "velocity": 84, "duration": 119}, {"note": 70, "velocity": 84, "duration": 120}, {"note": 68, "velocity": 84, "duration": 120}, {"note": 70, "velocity": 84, "duration": 119}, {"note": 70, "velocity": 84, "duration": 240}, {"note": 61, "velocity": 84, "duration": 139}, {"note": 63, "velocity": 85, "duration": 134}, {"note": 65, "velocity": 85, "duration": 119}, {"note": 65, "velocity": 85, "duration": 119}, {"note": 65, "velocity": 85, "duration": 480}, {"note": 68, "velocity": 85, "duration": 240}, {"note": 70, "velocity": 85, "duration": 119}, {"note": 70, "velocity": 85, "duration": 120}, {"note": 68, "velocity": 85, "duration": 120}, {"note": 73, "velocity": 85, "duration": 120}, {"note": 70, "velocity": 85, "duration": 240}, {"note": 61, "velocity": 85, "duration": 145}, {"note": 63, "velocity": 85, "duration": 136}, {"note": 65, "velocity": 85, "duration": 139}, {"note": 68, "velocity": 85, "duration": 120}, {"note": 65, "velocity": 85, "duration": 480}, {"note": 68, "velocity": 88, "duration": 119}, {"note": 68, "velocity": 89, "duration": 120}, {"note": 70, "velocity": 89, "duration": 119}, {"note": 70, "velocity": 90, "duration": 120}, {"note": 68, "velocity": 90, "duration": 120}, {"note": 70, "velocity": 92, "duration": 119}, {"note": 70, "velocity": 90, "duration": 240}, {"note": 61, "velocity": 92, "duration": 125}, {"note": 63, "velocity": 93, "duration": 120}, {"note": 65, "velocity": 93, "duration": 119}, {"note": 65, "velocity": 95, "duration": 119}, {"note": 65, "velocity": 92, "duration": 305}, {"note": 68, "velocity": 95, "duration": 307}, {"note": 68, "velocity": 95, "duration": 120}, {"note": 66, "velocity": 96, "duration": 119}, {"note": 66, "velocity": 97, "duration": 120}, {"note": 65, "velocity": 95, "duration": 120}, {"note": 66, "velocity": 96, "duration": 120}, {"note": 65, "velocity": 97, "duration": 120}, {"note": 66, "velocity": 99, "duration": 360}, {"note": 68, "velocity": 97, "duration": 143}, {"note": 66, "velocity": 98, "duration": 126}, {"note": 65, "velocity": 98, "duration": 157}, {"note": 66, "velocity": 99, "duration": 132}, {"note": 65, "velocity": 99, "duration": 142}, {"note": 63, "velocity": 100, "duration": 135}, {"note": 61, "velocity": 99, "duration": 128}, {"note": 65, "velocity": 99, "duration": 239}, {"note": 65, "velocity": 100, "duration": 239}, {"note": 65, "velocity": 101, "duration": 239}, {"note": 65, "velocity": 101, "duration": 239}, {"note": 65, "velocity": 101, "duration": 720}, {"note": 73, "velocity": 102, "duration": 133}, {"note": 75, "velocity": 102, "duration": 120}, {"note": 77, "velocity": 101, "duration": 120}, {"note": 75, "velocity": 101, "duration": 120}, {"note": 77, "velocity": 100, "duration": 133}, {"note": 75, "velocity": 102, "duration": 120}, {"note": 77, "velocity": 101, "duration": 120}, {"note": 80, "velocity": 100, "duration": 120}, {"note": 77, "velocity": 100, "duration": 360}, {"note": 75, "velocity": 102, "duration": 120}, {"note": 80, "velocity": 101, "duration": 120}, {"note": 77, "velocity": 101, "duration": 374}, {"note": 73, "velocity": 100, "duration": 120}, {"note": 75, "velocity": 100, "duration": 119}, {"note": 75, "velocity": 100, "duration": 239}, {"note": 75, "velocity": 102, "duration": 239}, {"note": 75, "velocity": 102, "duration": 240}, {"note": 73, "velocity": 101, "duration": 120}, {"note": 75, "velocity": 101, "duration": 720}, {"note": 70, "velocity": 100, "duration": 119}, {"note": 70, "velocity": 100, "duration": 120}, {"note": 72, "velocity": 100, "duration": 120}, {"note": 73, "velocity": 100, "duration": 128}, {"note": 72, "velocity": 102, "duration": 120}, {"note": 73, "velocity": 102, "duration": 121}, {"note": 72, "velocity": 101, "duration": 135}, {"note": 73, "velocity": 101, "duration": 120}, {"note": 80, "velocity": 101, "duration": 120}, {"note": 75, "velocity": 100, "duration": 480}, {"note": 73, "velocity": 100, "duration": 120}, {"note": 72, "velocity": 100, "duration": 240}, {"note": 70, "velocity": 100, "duration": 359}, {"note": 70, "velocity": 100, "duration": 120}, {"note": 68, "velocity": 100, "duration": 120}, {"note": 70, "velocity": 100, "duration": 133}, {"note": 68, "velocity": 100, "duration": 120}, {"note": 70, "velocity": 100, "duration": 120}, {"note": 73, "velocity": 100, "duration": 240}, {"note": 77, "velocity": 100, "duration": 612}, {"note": 73, "velocity": 100, "duration": 133}, {"note": 0, "velocity": 0, "duration": 107}, {"note": 75, "velocity": 100, "duration": 120}, {"note": 0, "velocity": 0, "duration": 120}, {"note": 77, "velocity": 100, "duration": 120}, {"note": 75, "velocity": 100, "duration": 120}, {"note": 77, "velocity": 100, "duration": 133}, {"note": 75, "velocity": 100, "duration": 120}, {"note": 77, "velocity": 100, "duration": 120}, {"note": 80, "velocity": 100, "duration": 120}, {"note": 77, "velocity": 100, "duration": 360}, {"note": 75, "velocity": 100, "duration": 120}, {"note": 80, "velocity": 100, "duration": 120}, {"note": 77, "velocity": 100, "duration": 374}, {"note": 73, "velocity": 100, "duration": 120}, {"note": 75, "velocity": 100, "duration": 119}, {"note": 75, "velocity": 100, "duration": 239}, {"note": 75, "velocity": 100, "duration": 239}, {"note": 75, "velocity": 100, "duration": 240}, {"note": 73, "velocity": 100, "duration": 120}, {"note": 75, "velocity": 100, "duration": 720}, {"note": 70, "velocity": 100, "duration": 119}, {"note": 70, "velocity": 100, "duration": 120}, {"note": 72, "velocity": 100, "duration": 120}, {"note": 73, "velocity": 99, "duration": 128}, {"note": 72, "velocity": 99, "duration": 120}, {"note": 73, "velocity": 99, "duration": 121}, {"note": 72, "velocity": 99, "duration": 135}, {"note": 73, "velocity": 99, "duration": 120}, {"note": 80, "velocity": 99, "duration": 120}, {"note": 75, "velocity": 99, "duration": 720}, {"note": 73, "velocity": 89, "duration": 480}, {"note": 72, "velocity": 89, "duration": 240}, {"note": 70, "velocity": 73, "duration": 1121}, {"note": 0, "velocity": 0, "duration": 6319}, {"note": 68, "velocity": 84, "duration": 120}, {"note": 70, "velocity": 73, "duration": 119}, {"note": 70, "velocity": 73, "duration": 120}, {"note": 68, "velocity": 65, "duration": 120}, {"note": 70, "velocity": 74, "duration": 119}, {"note": 70, "velocity": 84, "duration": 240}, {"note": 61, "velocity": 60, "duration": 139}, {"note": 63, "velocity": 60, "duration": 134}, {"note": 65, "velocity": 64, "duration": 119}, {"note": 65, "velocity": 61, "duration": 119}, {"note": 65, "velocity": 69, "duration": 480}, {"note": 68, "velocity": 94, "duration": 240}, {"note": 70, "velocity": 78, "duration": 119}, {"note": 70, "velocity": 70, "duration": 120}, {"note": 68, "velocity": 73, "duration": 120}, {"note": 73, "velocity": 89, "duration": 120}, {"note": 70, "velocity": 84, "duration": 240}, {"note": 61, "velocity": 63, "duration": 145}, {"note": 63, "velocity": 66, "duration": 136}, {"note": 65, "velocity": 68, "duration": 139}, {"note": 68, "velocity": 73, "duration": 120}, {"note": 65, "velocity": 75, "duration": 480}, {"note": 68, "velocity": 70, "duration": 119}, {"note": 68, "velocity": 75, "duration": 120}, {"note": 70, "velocity": 63, "duration": 119}, {"note": 70, "velocity": 75, "duration": 120}, {"note": 68, "velocity": 72, "duration": 120}, {"note": 70, "velocity": 92, "duration": 119}, {"note": 70, "velocity": 92, "duration": 240}, {"note": 61, "velocity": 69, "duration": 125}, {"note": 63, "velocity": 67, "duration": 120}, {"note": 65, "velocity": 67, "duration": 119}, {"note": 65, "velocity": 74, "duration": 119}, {"note": 65, "velocity": 76, "duration": 360}, {"note": 68, "velocity": 71, "duration": 480}, {"note": 61, "velocity": 64, "duration": 240}, {"note": 63, "velocity": 75, "duration": 1440}, {"note": 68, "velocity": 84, "duration": 120}, {"note": 70, "velocity": 73, "duration": 119}, {"note": 70, "velocity": 73, "duration": 120}, {"note": 68, "velocity": 65, "duration": 120}, {"note": 70, "velocity": 74, "duration": 119}, {"note": 70, "velocity": 84, "duration": 240}, {"note": 61, "velocity": 60, "duration": 139}, {"note": 63, "velocity": 60, "duration": 134}, {"note": 65, "velocity": 64, "duration": 119}, {"note": 65, "velocity": 61, "duration": 119}, {"note": 65, "velocity": 69, "duration": 480}, {"note": 68, "velocity": 94, "duration": 240}, {"note": 70, "velocity": 78, "duration": 119}, {"note": 70, "velocity": 70, "duration": 120}, {"note": 68, "velocity": 73, "duration": 120}, {"note": 73, "velocity": 89, "duration": 120}, {"note": 70, "velocity": 84, "duration": 240}, {"note": 61, "velocity": 63, "duration": 145}, {"note": 63, "velocity": 66, "duration": 136}, {"note": 65, "velocity": 68, "duration": 139}, {"note": 68, "velocity": 73, "duration": 120}, {"note": 65, "velocity": 75, "duration": 480}, {"note": 68, "velocity": 70, "duration": 119}, {"note": 68, "velocity": 75, "duration": 120}, {"note": 70, "velocity": 63, "duration": 119}, {"note": 70, "velocity": 75, "duration": 120}, {"note": 68, "velocity": 72, "duration": 120}, {"note": 70, "velocity": 92, "duration": 119}, {"note": 70, "velocity": 92, "duration": 240}, {"note": 61, "velocity": 69, "duration": 125}, {"note": 63, "velocity": 67, "duration": 120}, {"note": 65, "velocity": 67, "duration": 119}, {"note": 65, "velocity": 74, "duration": 119}, {"note": 65, "velocity": 76, "duration": 305}, {"note": 68, "velocity": 71, "duration": 307}, {"note": 68, "velocity": 94, "duration": 120}, {"note": 66, "velocity": 68, "duration": 119}, {"note": 66, "velocity": 75, "duration": 120}, {"note": 65, "velocity": 60, "duration": 120}, {"note": 66, "velocity": 90, "duration": 120}, {"note": 65, "velocity": 90, "duration": 120}, {"note": 66, "velocity": 90, "duration": 360}, {"note": 68, "velocity": 90, "duration": 143}, {"note": 66, "velocity": 90, "duration": 126}, {"note": 65, "velocity": 90, "duration": 157}, {"note": 66, "velocity": 91, "duration": 132}, {"note": 65, "velocity": 91, "duration": 142}, {"note": 63, "velocity": 92, "duration": 135}, {"note": 61, "velocity": 92, "duration": 128}, {"note": 65, "velocity": 92, "duration": 239}, {"note": 65, "velocity": 92, "duration": 239}, {"note": 65, "velocity": 94, "duration": 239}, {"note": 65, "velocity": 94, "duration": 239}, {"note": 65, "velocity": 94, "duration": 720}, {"note": 73, "velocity": 95, "duration": 133}, {"note": 75, "velocity": 94, "duration": 120}, {"note": 77, "velocity": 94, "duration": 120}, {"note": 75, "velocity": 95, "duration": 120}, {"note": 77, "velocity": 95, "duration": 133}, {"note": 75, "velocity": 95, "duration": 120}, {"note": 77, "velocity": 96, "duration": 120}, {"note": 80, "velocity": 95, "duration": 120}, {"note": 77, "velocity": 95, "duration": 360}, {"note": 75, "velocity": 96, "duration": 120}, {"note": 80, "velocity": 97, "duration": 120}, {"note": 77, "velocity": 97, "duration": 374}, {"note": 73, "velocity": 97, "duration": 120}, {"note": 75, "velocity": 97, "duration": 119}, {"note": 75, "velocity": 98, "duration": 239}, {"note": 75, "velocity": 98, "duration": 239}, {"note": 75, "velocity": 99, "duration": 240}, {"note": 73, "velocity": 100, "duration": 120}, {"note": 75, "velocity": 100, "duration": 720}, {"note": 70, "velocity": 101, "duration": 119}, {"note": 70, "velocity": 101, "duration": 120}, {"note": 72, "velocity": 101, "duration": 120}, {"note": 73, "velocity": 101, "duration": 128}, {"note": 72, "velocity": 101, "duration": 120}, {"note": 73, "velocity": 101, "duration": 121}, {"note": 72, "velocity": 101, "duration": 135}, {"note": 73, "velocity": 101, "duration": 120}, {"note": 80, "velocity": 101, "duration": 120}, {"note": 75, "velocity": 101, "duration": 480}, {"note": 73, "velocity": 102, "duration": 120}, {"note": 72, "velocity": 102, "duration": 240}, {"note": 70, "velocity": 103, "duration": 359}, {"note": 70, "velocity": 105, "duration": 120}, {"note": 68, "velocity": 105, "duration": 120}, {"note": 70, "velocity": 105, "duration": 133}, {"note": 68, "velocity": 105, "duration": 120}, {"note": 70, "velocity": 106, "duration": 120}, {"note": 73, "velocity": 106, "duration": 240}, {"note": 77, "velocity": 106, "duration": 612}, {"note": 73, "velocity": 107, "duration": 241}, {"note": 75, "velocity": 107, "duration": 192}, {"note": 77, "velocity": 107, "duration": 120}, {"note": 75, "velocity": 107, "duration": 120}, {"note": 77, "velocity": 107, "duration": 133}, {"note": 75, "velocity": 107, "duration": 120}, {"note": 77, "velocity": 107, "duration": 120}, {"note": 80, "velocity": 107, "duration": 120}, {"note": 77, "velocity": 107, "duration": 360}, {"note": 75, "velocity": 107, "duration": 120}, {"note": 80, "velocity": 107, "duration": 120}, {"note": 77, "velocity": 107, "duration": 374}, {"note": 73, "velocity": 107, "duration": 120}, {"note": 75, "velocity": 107, "duration": 119}, {"note": 75, "velocity": 107, "duration": 239}, {"note": 75, "velocity": 107, "duration": 239}, {"note": 75, "velocity": 107, "duration": 240}, {"note": 73, "velocity": 103, "duration": 120}, {"note": 75, "velocity": 106, "duration": 720}, {"note": 70, "velocity": 103, "duration": 119}, {"note": 70, "velocity": 103, "duration": 120}, {"note": 72, "velocity": 106, "duration": 120}, {"note": 73, "velocity": 106, "duration": 128}, {"note": 72, "velocity": 105, "duration": 120}, {"note": 73, "velocity": 105, "duration": 121}, {"note": 72, "velocity": 104, "duration": 135}, {"note": 73, "velocity": 104, "duration": 120}, {"note": 80, "velocity": 103, "duration": 120}, {"note": 75, "velocity": 103, "duration": 720}, {"note": 70, "velocity": 103, "duration": 175}, {"note": 73, "velocity": 103, "duration": 360}, {"note": 77, "velocity": 103, "duration": 1038}, {"note": 0, "velocity": 0, "duration": 10002}, {"note": 73, "velocity": 101, "duration": 228}, {"note": 75, "velocity": 101, "duration": 252}, {"note": 77, "velocity": 102, "duration": 120}, {"note": 75, "velocity": 102, "duration": 120}, {"note": 77, "velocity": 102, "duration": 133}, {"note": 75, "velocity": 102, "duration": 120}, {"note": 77, "velocity": 102, "duration": 120}, {"note": 80, "velocity": 102, "duration": 120}, {"note": 77, "velocity": 102, "duration": 360}, {"note": 75, "velocity": 102, "duration": 120}, {"note": 80, "velocity": 102, "duration": 120}, {"note": 77, "velocity": 102, "duration": 374}, {"note": 73, "velocity": 102, "duration": 120}, {"note": 75, "velocity": 102, "duration": 119}, {"note": 75, "velocity": 102, "duration": 239}, {"note": 75, "velocity": 102, "duration": 239}, {"note": 75, "velocity": 102, "duration": 240}, {"note": 73, "velocity": 102, "duration": 120}, {"note": 75, "velocity": 102, "duration": 720}, {"note": 70, "velocity": 102, "duration": 119}, {"note": 70, "velocity": 102, "duration": 120}, {"note": 72, "velocity": 102, "duration": 120}, {"note": 73, "velocity": 102, "duration": 128}, {"note": 72, "velocity": 102, "duration": 120}, {"note": 73, "velocity": 102, "duration": 121}, {"note": 72, "velocity": 102, "duration": 135}, {"note": 73, "velocity": 102, "duration": 120}, {"note": 80, "velocity": 102, "duration": 120}, {"note": 75, "velocity": 102, "duration": 480}, {"note": 73, "velocity": 101, "duration": 120}, {"note": 72, "velocity": 100, "duration": 240}, {"note": 70, "velocity": 100, "duration": 359}, {"note": 70, "velocity": 100, "duration": 120}, {"note": 68, "velocity": 100, "duration": 120}, {"note": 70, "velocity": 100, "duration": 133}, {"note": 68, "velocity": 100, "duration": 120}, {"note": 70, "velocity": 100, "duration": 120}, {"note": 73, "velocity": 100, "duration": 240}, {"note": 77, "velocity": 100, "duration": 600}, {"note": 73, "velocity": 100, "duration": 235}, {"note": 75, "velocity": 100, "duration": 245}, {"note": 77, "velocity": 100, "duration": 120}, {"note": 75, "velocity": 100, "duration": 120}, {"note": 77, "velocity": 100, "duration": 133}, {"note": 75, "velocity": 100, "duration": 120}, {"note": 77, "velocity": 100, "duration": 120}, {"note": 80, "velocity": 100, "duration": 120}, {"note": 77, "velocity": 100, "duration": 360}, {"note": 75, "velocity": 100, "duration": 120}, {"note": 80, "velocity": 100, "duration": 120}, {"note": 77, "velocity": 100, "duration": 374}, {"note": 73, "velocity": 100, "duration": 120}, {"note": 75, "velocity": 100, "duration": 119}, {"note": 75, "velocity": 100, "duration": 239}, {"note": 75, "velocity": 100, "duration": 239}, {"note": 75, "velocity": 100, "duration": 240}, {"note": 73, "velocity": 99, "duration": 120}, {"note": 75, "velocity": 99, "duration": 720}, {"note": 70, "velocity": 99, "duration": 119}, {"note": 70, "velocity": 99, "duration": 120}, {"note": 72, "velocity": 99, "duration": 120}, {"note": 73, "velocity": 99, "duration": 128}, {"note": 72, "velocity": 99, "duration": 120}, {"note": 73, "velocity": 99, "duration": 121}, {"note": 72, "velocity": 99, "duration": 135}, {"note": 73, "velocity": 99, "duration": 120}, {"note": 80, "velocity": 99, "duration": 120}, {"note": 75, "velocity": 99, "duration": 720}, {"note": 73, "velocity": 99, "duration": 480}, {"note": 72, "velocity": 99, "duration": 480}, {"note": 70, "velocity": 99, "duration": 1452}]]