[[{"note": 62, "velocity": 90, "duration": 223}, {"note": 71, "velocity": 90, "duration": 623}, {"note": 0, "velocity": 0, "duration": 97}, {"note": 71, "velocity": 90, "duration": 216}, {"note": 72, "velocity": 90, "duration": 223}, {"note": 71, "velocity": 90, "duration": 243}, {"note": 69, "velocity": 90, "duration": 229}, {"note": 67, "velocity": 90, "duration": 143}, {"note": 69, "velocity": 90, "duration": 540}, {"note": 69, "velocity": 90, "duration": 114}, {"note": 67, "velocity": 90, "duration": 127}, {"note": 71, "velocity": 90, "duration": 618}, {"note": 0, "velocity": 0, "duration": 102}, {"note": 69, "velocity": 90, "duration": 207}, {"note": 71, "velocity": 90, "duration": 82}, {"note": 72, "velocity": 90, "duration": 612}, {"note": 0, "velocity": 0, "duration": 468}, {"note": 72, "velocity": 90, "duration": 176}, {"note": 0, "velocity": 0, "duration": 64}, {"note": 71, "velocity": 90, "duration": 109}, {"note": 69, "velocity": 90, "duration": 366}, {"note": 67, "velocity": 90, "duration": 88}, {"note": 67, "velocity": 90, "duration": 529}, {"note": 0, "velocity": 0, "duration": 71}, {"note": 69, "velocity": 90, "duration": 162}, {"note": 0, "velocity": 0, "duration": 78}, {"note": 69, "velocity": 90, "duration": 643}, {"note": 0, "velocity": 0, "duration": 77}, {"note": 71, "velocity": 90, "duration": 176}, {"note": 0, "velocity": 0, "duration": 64}, {"note": 72, "velocity": 90, "duration": 50}, {"note": 0, "velocity": 0, "duration": 70}, {"note": 74, "velocity": 90, "duration": 773}, {"note": 0, "velocity": 0, "duration": 67}, {"note": 74, "velocity": 90, "duration": 97}, {"note": 0, "velocity": 0, "duration": 143}, {"note": 74, "velocity": 90, "duration": 244}, {"note": 72, "velocity": 90, "duration": 201}, {"note": 71, "velocity": 90, "duration": 251}, {"note": 69, "velocity": 90, "duration": 113}, {"note": 67, "velocity": 90, "duration": 120}, {"note": 69, "velocity": 90, "duration": 304}, {"note": 71, "velocity": 90, "duration": 172}, {"note": 0, "velocity": 0, "duration": 68}, {"note": 72, "velocity": 90, "duration": 212}, {"note": 71, "velocity": 90, "duration": 504}, {"note": 0, "velocity": 0, "duration": 216}, {"note": 69, "velocity": 90, "duration": 224}, {"note": 71, "velocity": 90, "duration": 116}, {"note": 74, "velocity": 90, "duration": 260}, {"note": 0, "velocity": 0, "duration": 100}, {"note": 72, "velocity": 90, "duration": 559}, {"note": 0, "velocity": 0, "duration": 161}, {"note": 72, "velocity": 90, "duration": 209}, {"note": 71, "velocity": 90, "duration": 223}, {"note": 69, "velocity": 90, "duration": 217}, {"note": 67, "velocity": 90, "duration": 121}, {"note": 64, "velocity": 90, "duration": 108}, {"note": 67, "velocity": 90, "duration": 227}, {"note": 69, "velocity": 90, "duration": 99}, {"note": 67, "velocity": 90, "duration": 79}, {"note": 67, "velocity": 90, "duration": 238}, {"note": 69, "velocity": 90, "duration": 739}, {"note": 0, "velocity": 0, "duration": 221}, {"note": 62, "velocity": 90, "duration": 223}, {"note": 71, "velocity": 90, "duration": 623}, {"note": 0, "velocity": 0, "duration": 97}, {"note": 71, "velocity": 90, "duration": 216}, {"note": 72, "velocity": 90, "duration": 223}, {"note": 71, "velocity": 90, "duration": 243}, {"note": 69, "velocity": 90, "duration": 229}, {"note": 67, "velocity": 90, "duration": 240}, {"note": 69, "velocity": 90, "duration": 368}, {"note": 0, "velocity": 0, "duration": 112}, {"note": 69, "velocity": 90, "duration": 114}, {"note": 67, "velocity": 90, "duration": 127}, {"note": 71, "velocity": 90, "duration": 618}, {"note": 0, "velocity": 0, "duration": 102}, {"note": 69, "velocity": 90, "duration": 207}, {"note": 71, "velocity": 90, "duration": 82}, {"note": 72, "velocity": 90, "duration": 612}, {"note": 0, "velocity": 0, "duration": 468}, {"note": 72, "velocity": 90, "duration": 176}, {"note": 0, "velocity": 0, "duration": 64}, {"note": 71, "velocity": 90, "duration": 240}, {"note": 69, "velocity": 90, "duration": 175}, {"note": 0, "velocity": 0, "duration": 65}, {"note": 67, "velocity": 90, "duration": 88}, {"note": 67, "velocity": 90, "duration": 529}, {"note": 0, "velocity": 0, "duration": 71}, {"note": 69, "velocity": 90, "duration": 162}, {"note": 0, "velocity": 0, "duration": 78}, {"note": 69, "velocity": 90, "duration": 643}, {"note": 0, "velocity": 0, "duration": 77}, {"note": 71, "velocity": 90, "duration": 176}, {"note": 0, "velocity": 0, "duration": 64}, {"note": 72, "velocity": 90, "duration": 240}, {"note": 74, "velocity": 90, "duration": 631}, {"note": 0, "velocity": 0, "duration": 89}, {"note": 74, "velocity": 90, "duration": 97}, {"note": 0, "velocity": 0, "duration": 143}, {"note": 74, "velocity": 90, "duration": 244}, {"note": 72, "velocity": 90, "duration": 201}, {"note": 71, "velocity": 90, "duration": 251}, {"note": 69, "velocity": 90, "duration": 113}, {"note": 68, "velocity": 90, "duration": 120}, {"note": 69, "velocity": 90, "duration": 304}, {"note": 71, "velocity": 90, "duration": 172}, {"note": 0, "velocity": 0, "duration": 68}, {"note": 72, "velocity": 90, "duration": 143}, {"note": 69, "velocity": 90, "duration": 156}, {"note": 71, "velocity": 90, "duration": 470}, {"note": 0, "velocity": 0, "duration": 250}, {"note": 69, "velocity": 90, "duration": 224}, {"note": 71, "velocity": 90, "duration": 116}, {"note": 0, "velocity": 0, "duration": 124}, {"note": 72, "velocity": 90, "duration": 227}, {"note": 71, "velocity": 90, "duration": 235}, {"note": 67, "velocity": 90, "duration": 234}, {"note": 67, "velocity": 90, "duration": 111}, {"note": 64, "velocity": 90, "duration": 118}, {"note": 67, "velocity": 90, "duration": 209}, {"note": 69, "velocity": 90, "duration": 195}, {"note": 71, "velocity": 90, "duration": 200}, {"note": 67, "velocity": 90, "duration": 1277}, {"note": 0, "velocity": 0, "duration": 2323}, {"note": 71, "velocity": 90, "duration": 185}, {"note": 72, "velocity": 90, "duration": 207}, {"note": 74, "velocity": 90, "duration": 501}, {"note": 72, "velocity": 90, "duration": 233}, {"note": 71, "velocity": 90, "duration": 166}, {"note": 0, "velocity": 0, "duration": 74}, {"note": 71, "velocity": 90, "duration": 316}, {"note": 0, "velocity": 0, "duration": 164}, {"note": 71, "velocity": 90, "duration": 193}, {"note": 69, "velocity": 90, "duration": 192}, {"note": 67, "velocity": 90, "duration": 195}, {"note": 69, "velocity": 90, "duration": 167}, {"note": 0, "velocity": 0, "duration": 73}, {"note": 71, "velocity": 90, "duration": 212}, {"note": 78, "velocity": 90, "duration": 224}, {"note": 74, "velocity": 90, "duration": 527}, {"note": 0, "velocity": 0, "duration": 433}, {"note": 76, "velocity": 90, "duration": 360}, {"note": 0, "velocity": 0, "duration": 120}, {"note": 74, "velocity": 90, "duration": 206}, {"note": 72, "velocity": 90, "duration": 233}, {"note": 74, "velocity": 90, "duration": 373}, {"note": 0, "velocity": 0, "duration": 107}, {"note": 72, "velocity": 90, "duration": 183}, {"note": 71, "velocity": 90, "duration": 181}, {"note": 72, "velocity": 90, "duration": 199}, {"note": 71, "velocity": 90, "duration": 188}, {"note": 67, "velocity": 90, "duration": 199}, {"note": 71, "velocity": 90, "duration": 149}, {"note": 71, "velocity": 90, "duration": 29}, {"note": 0, "velocity": 0, "duration": 211}, {"note": 69, "velocity": 90, "duration": 339}, {"note": 0, "velocity": 0, "duration": 501}, {"note": 67, "velocity": 90, "duration": 358}, {"note": 0, "velocity": 0, "duration": 122}, {"note": 69, "velocity": 90, "duration": 221}, {"note": 71, "velocity": 90, "duration": 199}, {"note": 78, "velocity": 90, "duration": 495}, {"note": 79, "velocity": 90, "duration": 174}, {"note": 0, "velocity": 0, "duration": 66}, {"note": 78, "velocity": 90, "duration": 232}, {"note": 76, "velocity": 90, "duration": 168}, {"note": 0, "velocity": 0, "duration": 72}, {"note": 74, "velocity": 90, "duration": 226}, {"note": 71, "velocity": 90, "duration": 231}, {"note": 67, "velocity": 90, "duration": 605}, {"note": 0, "velocity": 0, "duration": 1075}, {"note": 72, "velocity": 90, "duration": 174}, {"note": 0, "velocity": 0, "duration": 66}, {"note": 72, "velocity": 90, "duration": 182}, {"note": 71, "velocity": 90, "duration": 181}, {"note": 67, "velocity": 90, "duration": 198}, {"note": 71, "velocity": 90, "duration": 193}, {"note": 69, "velocity": 90, "duration": 1423}, {"note": 0, "velocity": 0, "duration": 257}, {"note": 71, "velocity": 90, "duration": 185}, {"note": 72, "velocity": 90, "duration": 207}, {"note": 74, "velocity": 90, "duration": 501}, {"note": 72, "velocity": 90, "duration": 233}, {"note": 71, "velocity": 90, "duration": 166}, {"note": 0, "velocity": 0, "duration": 74}, {"note": 71, "velocity": 90, "duration": 316}, {"note": 0, "velocity": 0, "duration": 164}, {"note": 71, "velocity": 90, "duration": 193}, {"note": 69, "velocity": 90, "duration": 192}, {"note": 67, "velocity": 90, "duration": 195}, {"note": 69, "velocity": 90, "duration": 167}, {"note": 0, "velocity": 0, "duration": 73}, {"note": 71, "velocity": 90, "duration": 212}, {"note": 74, "velocity": 90, "duration": 224}, {"note": 74, "velocity": 90, "duration": 527}, {"note": 0, "velocity": 0, "duration": 313}, {"note": 67, "velocity": 90, "duration": 112}, {"note": 76, "velocity": 90, "duration": 360}, {"note": 0, "velocity": 0, "duration": 120}, {"note": 74, "velocity": 90, "duration": 206}, {"note": 72, "velocity": 90, "duration": 233}, {"note": 74, "velocity": 90, "duration": 373}, {"note": 0, "velocity": 0, "duration": 107}, {"note": 72, "velocity": 90, "duration": 183}, {"note": 71, "velocity": 90, "duration": 181}, {"note": 72, "velocity": 90, "duration": 199}, {"note": 71, "velocity": 90, "duration": 188}, {"note": 67, "velocity": 90, "duration": 199}, {"note": 71, "velocity": 90, "duration": 147}, {"note": 0, "velocity": 0, "duration": 93}, {"note": 71, "velocity": 90, "duration": 277}, {"note": 69, "velocity": 90, "duration": 729}, {"note": 0, "velocity": 0, "duration": 111}, {"note": 67, "velocity": 90, "duration": 358}, {"note": 0, "velocity": 0, "duration": 122}, {"note": 69, "velocity": 90, "duration": 221}, {"note": 71, "velocity": 90, "duration": 199}, {"note": 78, "velocity": 90, "duration": 495}, {"note": 79, "velocity": 90, "duration": 174}, {"note": 0, "velocity": 0, "duration": 66}, {"note": 78, "velocity": 90, "duration": 232}, {"note": 76, "velocity": 90, "duration": 168}, {"note": 0, "velocity": 0, "duration": 72}, {"note": 74, "velocity": 90, "duration": 226}, {"note": 71, "velocity": 90, "duration": 231}, {"note": 67, "velocity": 90, "duration": 1476}, {"note": 0, "velocity": 0, "duration": 204}, {"note": 72, "velocity": 90, "duration": 152}, {"note": 0, "velocity": 0, "duration": 88}, {"note": 72, "velocity": 90, "duration": 164}, {"note": 0, "velocity": 0, "duration": 76}, {"note": 71, "velocity": 90, "duration": 142}, {"note": 0, "velocity": 0, "duration": 98}, {"note": 72, "velocity": 90, "duration": 126}, {"note": 0, "velocity": 0, "duration": 114}, {"note": 71, "velocity": 90, "duration": 140}, {"note": 0, "velocity": 0, "duration": 100}, {"note": 74, "velocity": 90, "duration": 1803}, {"note": 0, "velocity": 0, "duration": 7797}, {"note": 62, "velocity": 90, "duration": 223}, {"note": 71, "velocity": 90, "duration": 623}, {"note": 0, "velocity": 0, "duration": 97}, {"note": 71, "velocity": 90, "duration": 216}, {"note": 72, "velocity": 90, "duration": 223}, {"note": 71, "velocity": 90, "duration": 243}, {"note": 69, "velocity": 90, "duration": 229}, {"note": 67, "velocity": 90, "duration": 240}, {"note": 69, "velocity": 90, "duration": 368}, {"note": 0, "velocity": 0, "duration": 112}, {"note": 69, "velocity": 90, "duration": 114}, {"note": 67, "velocity": 90, "duration": 127}, {"note": 71, "velocity": 90, "duration": 618}, {"note": 0, "velocity": 0, "duration": 102}, {"note": 69, "velocity": 90, "duration": 207}, {"note": 71, "velocity": 90, "duration": 82}, {"note": 72, "velocity": 90, "duration": 612}, {"note": 0, "velocity": 0, "duration": 468}, {"note": 72, "velocity": 90, "duration": 176}, {"note": 0, "velocity": 0, "duration": 64}, {"note": 71, "velocity": 90, "duration": 240}, {"note": 69, "velocity": 90, "duration": 175}, {"note": 0, "velocity": 0, "duration": 65}, {"note": 67, "velocity": 90, "duration": 88}, {"note": 67, "velocity": 90, "duration": 529}, {"note": 0, "velocity": 0, "duration": 71}, {"note": 69, "velocity": 90, "duration": 162}, {"note": 0, "velocity": 0, "duration": 78}, {"note": 69, "velocity": 90, "duration": 643}, {"note": 0, "velocity": 0, "duration": 77}, {"note": 71, "velocity": 90, "duration": 176}, {"note": 0, "velocity": 0, "duration": 64}, {"note": 72, "velocity": 90, "duration": 240}, {"note": 74, "velocity": 90, "duration": 631}, {"note": 0, "velocity": 0, "duration": 89}, {"note": 74, "velocity": 90, "duration": 97}, {"note": 0, "velocity": 0, "duration": 143}, {"note": 74, "velocity": 90, "duration": 244}, {"note": 72, "velocity": 90, "duration": 201}, {"note": 71, "velocity": 90, "duration": 251}, {"note": 69, "velocity": 90, "duration": 113}, {"note": 67, "velocity": 90, "duration": 120}, {"note": 69, "velocity": 90, "duration": 304}, {"note": 71, "velocity": 90, "duration": 172}, {"note": 0, "velocity": 0, "duration": 68}, {"note": 72, "velocity": 90, "duration": 140}, {"note": 71, "velocity": 90, "duration": 83}, {"note": 71, "velocity": 90, "duration": 470}, {"note": 0, "velocity": 0, "duration": 250}, {"note": 69, "velocity": 90, "duration": 224}, {"note": 71, "velocity": 90, "duration": 116}, {"note": 0, "velocity": 0, "duration": 124}, {"note": 72, "velocity": 90, "duration": 227}, {"note": 71, "velocity": 90, "duration": 235}, {"note": 67, "velocity": 90, "duration": 234}, {"note": 67, "velocity": 90, "duration": 111}, {"note": 64, "velocity": 90, "duration": 118}, {"note": 67, "velocity": 90, "duration": 209}, {"note": 69, "velocity": 90, "duration": 195}, {"note": 71, "velocity": 90, "duration": 200}, {"note": 67, "velocity": 90, "duration": 1277}, {"note": 0, "velocity": 0, "duration": 2323}, {"note": 71, "velocity": 90, "duration": 185}, {"note": 72, "velocity": 90, "duration": 207}, {"note": 74, "velocity": 90, "duration": 501}, {"note": 72, "velocity": 90, "duration": 233}, {"note": 71, "velocity": 90, "duration": 166}, {"note": 0, "velocity": 0, "duration": 74}, {"note": 71, "velocity": 90, "duration": 316}, {"note": 0, "velocity": 0, "duration": 164}, {"note": 71, "velocity": 90, "duration": 193}, {"note": 69, "velocity": 90, "duration": 192}, {"note": 67, "velocity": 90, "duration": 195}, {"note": 69, "velocity": 90, "duration": 167}, {"note": 0, "velocity": 0, "duration": 73}, {"note": 71, "velocity": 90, "duration": 212}, {"note": 78, "velocity": 90, "duration": 224}, {"note": 74, "velocity": 90, "duration": 527}, {"note": 0, "velocity": 0, "duration": 433}, {"note": 76, "velocity": 90, "duration": 360}, {"note": 0, "velocity": 0, "duration": 120}, {"note": 74, "velocity": 90, "duration": 206}, {"note": 72, "velocity": 90, "duration": 233}, {"note": 74, "velocity": 90, "duration": 373}, {"note": 0, "velocity": 0, "duration": 107}, {"note": 72, "velocity": 90, "duration": 183}, {"note": 71, "velocity": 90, "duration": 181}, {"note": 72, "velocity": 90, "duration": 199}, {"note": 71, "velocity": 90, "duration": 188}, {"note": 67, "velocity": 90, "duration": 199}, {"note": 71, "velocity": 90, "duration": 149}, {"note": 71, "velocity": 90, "duration": 29}, {"note": 0, "velocity": 0, "duration": 211}, {"note": 69, "velocity": 90, "duration": 339}, {"note": 0, "velocity": 0, "duration": 501}, {"note": 67, "velocity": 90, "duration": 358}, {"note": 0, "velocity": 0, "duration": 122}, {"note": 69, "velocity": 90, "duration": 221}, {"note": 71, "velocity": 90, "duration": 199}, {"note": 78, "velocity": 90, "duration": 495}, {"note": 79, "velocity": 90, "duration": 174}, {"note": 0, "velocity": 0, "duration": 66}, {"note": 78, "velocity": 90, "duration": 232}, {"note": 76, "velocity": 90, "duration": 168}, {"note": 0, "velocity": 0, "duration": 72}, {"note": 74, "velocity": 90, "duration": 226}, {"note": 71, "velocity": 90, "duration": 231}, {"note": 67, "velocity": 90, "duration": 605}, {"note": 0, "velocity": 0, "duration": 1075}, {"note": 72, "velocity": 90, "duration": 174}, {"note": 0, "velocity": 0, "duration": 66}, {"note": 72, "velocity": 90, "duration": 182}, {"note": 71, "velocity": 90, "duration": 181}, {"note": 67, "velocity": 90, "duration": 198}, {"note": 71, "velocity": 90, "duration": 193}, {"note": 69, "velocity": 90, "duration": 1423}, {"note": 0, "velocity": 0, "duration": 257}, {"note": 71, "velocity": 90, "duration": 185}, {"note": 72, "velocity": 90, "duration": 207}, {"note": 74, "velocity": 90, "duration": 501}, {"note": 72, "velocity": 90, "duration": 233}, {"note": 71, "velocity": 90, "duration": 166}, {"note": 0, "velocity": 0, "duration": 74}, {"note": 71, "velocity": 90, "duration": 316}, {"note": 0, "velocity": 0, "duration": 164}, {"note": 71, "velocity": 90, "duration": 193}, {"note": 69, "velocity": 90, "duration": 192}, {"note": 67, "velocity": 90, "duration": 195}, {"note": 69, "velocity": 90, "duration": 167}, {"note": 0, "velocity": 0, "duration": 73}, {"note": 71, "velocity": 90, "duration": 212}, {"note": 78, "velocity": 90, "duration": 224}, {"note": 74, "velocity": 90, "duration": 527}, {"note": 0, "velocity": 0, "duration": 313}, {"note": 67, "velocity": 90, "duration": 112}, {"note": 76, "velocity": 90, "duration": 360}, {"note": 0, "velocity": 0, "duration": 120}, {"note": 74, "velocity": 90, "duration": 206}, {"note": 72, "velocity": 90, "duration": 233}, {"note": 74, "velocity": 90, "duration": 373}, {"note": 0, "velocity": 0, "duration": 107}, {"note": 72, "velocity": 90, "duration": 183}, {"note": 71, "velocity": 90, "duration": 181}, {"note": 72, "velocity": 90, "duration": 199}, {"note": 71, "velocity": 90, "duration": 188}, {"note": 83, "velocity": 90, "duration": 199}, {"note": 0, "velocity": 0, "duration": 113}, {"note": 84, "velocity": 90, "duration": 147}, {"note": 83, "velocity": 90, "duration": 277}, {"note": 81, "velocity": 90, "duration": 728}, {"note": 0, "velocity": 0, "duration": 118}, {"note": 67, "velocity": 90, "duration": 358}, {"note": 0, "velocity": 0, "duration": 122}, {"note": 69, "velocity": 90, "duration": 221}, {"note": 71, "velocity": 90, "duration": 199}, {"note": 78, "velocity": 90, "duration": 495}, {"note": 79, "velocity": 90, "duration": 174}, {"note": 0, "velocity": 0, "duration": 66}, {"note": 78, "velocity": 90, "duration": 232}, {"note": 76, "velocity": 90, "duration": 168}, {"note": 0, "velocity": 0, "duration": 72}, {"note": 74, "velocity": 90, "duration": 226}, {"note": 71, "velocity": 90, "duration": 231}, {"note": 67, "velocity": 90, "duration": 1476}, {"note": 0, "velocity": 0, "duration": 1644}, {"note": 72, "velocity": 90, "duration": 173}, {"note": 0, "velocity": 0, "duration": 67}, {"note": 72, "velocity": 90, "duration": 185}, {"note": 71, "velocity": 90, "duration": 194}, {"note": 72, "velocity": 90, "duration": 206}, {"note": 71, "velocity": 90, "duration": 209}, {"note": 74, "velocity": 90, "duration": 299}, {"note": 76, "velocity": 90, "duration": 167}, {"note": 79, "velocity": 90, "duration": 702}, {"note": 0, "velocity": 0, "duration": 89}, {"note": 71, "velocity": 90, "duration": 177}, {"note": 0, "velocity": 0, "duration": 63}, {"note": 71, "velocity": 90, "duration": 209}, {"note": 64, "velocity": 90, "duration": 233}, {"note": 67, "velocity": 90, "duration": 2653}]]