[[{"note": 57, "velocity": 68, "duration": 296}, {"note": 59, "velocity": 64, "duration": 231}, {"note": 62, "velocity": 64, "duration": 306}, {"note": 0, "velocity": 0, "duration": 174}, {"note": 62, "velocity": 74, "duration": 633}, {"note": 0, "velocity": 0, "duration": 327}, {"note": 66, "velocity": 86, "duration": 141}, {"note": 64, "velocity": 79, "duration": 95}, {"note": 0, "velocity": 0, "duration": 65}, {"note": 62, "velocity": 81, "duration": 399}, {"note": 57, "velocity": 86, "duration": 951}, {"note": 0, "velocity": 0, "duration": 249}, {"note": 62, "velocity": 69, "duration": 273}, {"note": 64, "velocity": 67, "duration": 185}, {"note": 66, "velocity": 76, "duration": 317}, {"note": 0, "velocity": 0, "duration": 163}, {"note": 66, "velocity": 90, "duration": 803}, {"note": 69, "velocity": 70, "duration": 140}, {"note": 0, "velocity": 0, "duration": 100}, {"note": 66, "velocity": 59, "duration": 276}, {"note": 62, "velocity": 60, "duration": 257}, {"note": 64, "velocity": 72, "duration": 1058}, {"note": 0, "velocity": 0, "duration": 142}, {"note": 69, "velocity": 71, "duration": 95}, {"note": 0, "velocity": 0, "duration": 145}, {"note": 69, "velocity": 79, "duration": 106}, {"note": 0, "velocity": 0, "duration": 254}, {"note": 69, "velocity": 76, "duration": 67}, {"note": 69, "velocity": 79, "duration": 996}, {"note": 0, "velocity": 0, "duration": 204}, {"note": 57, "velocity": 60, "duration": 227}, {"note": 62, "velocity": 65, "duration": 276}, {"note": 61, "velocity": 77, "duration": 270}, {"note": 59, "velocity": 62, "duration": 897}, {"note": 0, "velocity": 0, "duration": 783}, {"note": 57, "velocity": 68, "duration": 128}, {"note": 62, "velocity": 60, "duration": 101}, {"note": 66, "velocity": 67, "duration": 99}, {"note": 0, "velocity": 0, "duration": 141}, {"note": 62, "velocity": 60, "duration": 221}, {"note": 69, "velocity": 75, "duration": 149}, {"note": 66, "velocity": 81, "duration": 84}, {"note": 0, "velocity": 0, "duration": 156}, {"note": 71, "velocity": 95, "duration": 279}, {"note": 0, "velocity": 0, "duration": 81}, {"note": 69, "velocity": 70, "duration": 271}, {"note": 62, "velocity": 69, "duration": 145}, {"note": 0, "velocity": 0, "duration": 95}, {"note": 66, "velocity": 74, "duration": 111}, {"note": 0, "velocity": 0, "duration": 129}, {"note": 64, "velocity": 75, "duration": 1421}, {"note": 57, "velocity": 68, "duration": 295}, {"note": 59, "velocity": 64, "duration": 230}, {"note": 62, "velocity": 64, "duration": 306}, {"note": 0, "velocity": 0, "duration": 174}, {"note": 62, "velocity": 74, "duration": 633}, {"note": 0, "velocity": 0, "duration": 286}, {"note": 66, "velocity": 76, "duration": 244}, {"note": 64, "velocity": 67, "duration": 253}, {"note": 62, "velocity": 77, "duration": 312}, {"note": 57, "velocity": 72, "duration": 518}, {"note": 62, "velocity": 69, "duration": 273}, {"note": 64, "velocity": 67, "duration": 184}, {"note": 66, "velocity": 76, "duration": 316}, {"note": 66, "velocity": 90, "duration": 802}, {"note": 69, "velocity": 70, "duration": 139}, {"note": 0, "velocity": 0, "duration": 101}, {"note": 66, "velocity": 59, "duration": 275}, {"note": 62, "velocity": 60, "duration": 78}, {"note": 64, "velocity": 72, "duration": 141}, {"note": 0, "velocity": 0, "duration": 142}, {"note": 69, "velocity": 71, "duration": 94}, {"note": 0, "velocity": 0, "duration": 146}, {"note": 69, "velocity": 79, "duration": 106}, {"note": 0, "velocity": 0, "duration": 254}, {"note": 69, "velocity": 76, "duration": 66}, {"note": 69, "velocity": 79, "duration": 541}, {"note": 0, "velocity": 0, "duration": 205}, {"note": 57, "velocity": 60, "duration": 226}, {"note": 62, "velocity": 65, "duration": 275}, {"note": 61, "velocity": 77, "duration": 269}, {"note": 59, "velocity": 62, "duration": 897}, {"note": 0, "velocity": 0, "duration": 783}, {"note": 57, "velocity": 68, "duration": 128}, {"note": 62, "velocity": 60, "duration": 101}, {"note": 66, "velocity": 67, "duration": 98}, {"note": 0, "velocity": 0, "duration": 142}, {"note": 62, "velocity": 60, "duration": 221}, {"note": 69, "velocity": 75, "duration": 148}, {"note": 66, "velocity": 81, "duration": 84}, {"note": 0, "velocity": 0, "duration": 156}, {"note": 71, "velocity": 95, "duration": 278}, {"note": 0, "velocity": 0, "duration": 82}, {"note": 69, "velocity": 70, "duration": 271}, {"note": 64, "velocity": 84, "duration": 276}, {"note": 66, "velocity": 84, "duration": 198}, {"note": 62, "velocity": 84, "duration": 1440}, {"note": 0, "velocity": 0, "duration": 240}, {"note": 62, "velocity": 84, "duration": 133}, {"note": 0, "velocity": 0, "duration": 107}, {"note": 67, "velocity": 84, "duration": 647}, {"note": 0, "velocity": 0, "duration": 73}, {"note": 71, "velocity": 84, "duration": 153}, {"note": 0, "velocity": 0, "duration": 87}, {"note": 74, "velocity": 84, "duration": 316}, {"note": 0, "velocity": 0, "duration": 164}, {"note": 73, "velocity": 84, "duration": 129}, {"note": 71, "velocity": 84, "duration": 223}, {"note": 0, "velocity": 0, "duration": 137}, {"note": 69, "velocity": 84, "duration": 708}, {"note": 74, "velocity": 84, "duration": 116}, {"note": 0, "velocity": 0, "duration": 124}, {"note": 66, "velocity": 84, "duration": 509}, {"note": 62, "velocity": 84, "duration": 148}, {"note": 66, "velocity": 84, "duration": 76}, {"note": 0, "velocity": 0, "duration": 105}, {"note": 71, "velocity": 84, "duration": 74}, {"note": 0, "velocity": 0, "duration": 93}, {"note": 69, "velocity": 84, "duration": 204}, {"note": 69, "velocity": 84, "duration": 207}, {"note": 61, "velocity": 84, "duration": 129}, {"note": 64, "velocity": 84, "duration": 111}, {"note": 0, "velocity": 0, "duration": 80}, {"note": 71, "velocity": 84, "duration": 86}, {"note": 0, "velocity": 0, "duration": 64}, {"note": 69, "velocity": 84, "duration": 192}, {"note": 69, "velocity": 84, "duration": 169}, {"note": 0, "velocity": 0, "duration": 79}, {"note": 67, "velocity": 84, "duration": 197}, {"note": 64, "velocity": 84, "duration": 199}, {"note": 71, "velocity": 86, "duration": 97}, {"note": 0, "velocity": 0, "duration": 63}, {"note": 69, "velocity": 86, "duration": 873}, {"note": 0, "velocity": 0, "duration": 785}, {"note": 62, "velocity": 89, "duration": 133}, {"note": 0, "velocity": 0, "duration": 107}, {"note": 67, "velocity": 90, "duration": 647}, {"note": 0, "velocity": 0, "duration": 73}, {"note": 71, "velocity": 94, "duration": 153}, {"note": 0, "velocity": 0, "duration": 87}, {"note": 74, "velocity": 94, "duration": 316}, {"note": 0, "velocity": 0, "duration": 164}, {"note": 73, "velocity": 94, "duration": 129}, {"note": 71, "velocity": 94, "duration": 223}, {"note": 0, "velocity": 0, "duration": 137}, {"note": 69, "velocity": 94, "duration": 708}, {"note": 74, "velocity": 93, "duration": 116}, {"note": 0, "velocity": 0, "duration": 124}, {"note": 66, "velocity": 93, "duration": 509}, {"note": 62, "velocity": 91, "duration": 148}, {"note": 66, "velocity": 89, "duration": 76}, {"note": 0, "velocity": 0, "duration": 105}, {"note": 71, "velocity": 90, "duration": 74}, {"note": 0, "velocity": 0, "duration": 93}, {"note": 69, "velocity": 87, "duration": 204}, {"note": 69, "velocity": 89, "duration": 207}, {"note": 61, "velocity": 87, "duration": 129}, {"note": 64, "velocity": 85, "duration": 111}, {"note": 0, "velocity": 0, "duration": 80}, {"note": 71, "velocity": 85, "duration": 86}, {"note": 0, "velocity": 0, "duration": 64}, {"note": 69, "velocity": 87, "duration": 192}, {"note": 69, "velocity": 83, "duration": 169}, {"note": 0, "velocity": 0, "duration": 75}, {"note": 64, "velocity": 83, "duration": 147}, {"note": 66, "velocity": 81, "duration": 163}, {"note": 64, "velocity": 82, "duration": 173}, {"note": 62, "velocity": 80, "duration": 924}, {"note": 0, "velocity": 0, "duration": 542}, {"note": 57, "velocity": 68, "duration": 295}, {"note": 59, "velocity": 64, "duration": 230}, {"note": 62, "velocity": 64, "duration": 306}, {"note": 0, "velocity": 0, "duration": 174}, {"note": 62, "velocity": 74, "duration": 633}, {"note": 0, "velocity": 0, "duration": 239}, {"note": 66, "velocity": 70, "duration": 240}, {"note": 64, "velocity": 63, "duration": 188}, {"note": 62, "velocity": 55, "duration": 390}, {"note": 57, "velocity": 65, "duration": 759}, {"note": 0, "velocity": 0, "duration": 502}, {"note": 62, "velocity": 69, "duration": 273}, {"note": 64, "velocity": 67, "duration": 184}, {"note": 66, "velocity": 76, "duration": 316}, {"note": 0, "velocity": 0, "duration": 164}, {"note": 66, "velocity": 90, "duration": 750}, {"note": 69, "velocity": 70, "duration": 139}, {"note": 66, "velocity": 84, "duration": 178}, {"note": 64, "velocity": 74, "duration": 173}, {"note": 62, "velocity": 67, "duration": 249}, {"note": 64, "velocity": 90, "duration": 247}, {"note": 64, "velocity": 94, "duration": 571}, {"note": 0, "velocity": 0, "duration": 374}, {"note": 69, "velocity": 71, "duration": 94}, {"note": 0, "velocity": 0, "duration": 146}, {"note": 69, "velocity": 79, "duration": 106}, {"note": 0, "velocity": 0, "duration": 254}, {"note": 69, "velocity": 76, "duration": 66}, {"note": 69, "velocity": 79, "duration": 995}, {"note": 0, "velocity": 0, "duration": 205}, {"note": 57, "velocity": 60, "duration": 226}, {"note": 62, "velocity": 75, "duration": 275}, {"note": 61, "velocity": 75, "duration": 269}, {"note": 59, "velocity": 75, "duration": 897}, {"note": 0, "velocity": 0, "duration": 783}, {"note": 57, "velocity": 75, "duration": 128}, {"note": 62, "velocity": 75, "duration": 101}, {"note": 66, "velocity": 75, "duration": 98}, {"note": 0, "velocity": 0, "duration": 142}, {"note": 62, "velocity": 75, "duration": 221}, {"note": 69, "velocity": 75, "duration": 148}, {"note": 66, "velocity": 75, "duration": 84}, {"note": 0, "velocity": 0, "duration": 156}, {"note": 71, "velocity": 75, "duration": 278}, {"note": 0, "velocity": 0, "duration": 82}, {"note": 69, "velocity": 75, "duration": 271}, {"note": 64, "velocity": 75, "duration": 276}, {"note": 66, "velocity": 75, "duration": 198}, {"note": 62, "velocity": 76, "duration": 1440}, {"note": 0, "velocity": 0, "duration": 240}, {"note": 62, "velocity": 80, "duration": 133}, {"note": 0, "velocity": 0, "duration": 107}, {"note": 67, "velocity": 80, "duration": 647}, {"note": 0, "velocity": 0, "duration": 73}, {"note": 71, "velocity": 80, "duration": 153}, {"note": 0, "velocity": 0, "duration": 87}, {"note": 74, "velocity": 80, "duration": 316}, {"note": 0, "velocity": 0, "duration": 164}, {"note": 73, "velocity": 80, "duration": 129}, {"note": 71, "velocity": 80, "duration": 223}, {"note": 0, "velocity": 0, "duration": 137}, {"note": 69, "velocity": 80, "duration": 708}, {"note": 74, "velocity": 79, "duration": 116}, {"note": 0, "velocity": 0, "duration": 124}, {"note": 66, "velocity": 79, "duration": 509}, {"note": 62, "velocity": 79, "duration": 148}, {"note": 66, "velocity": 79, "duration": 76}, {"note": 0, "velocity": 0, "duration": 105}, {"note": 71, "velocity": 78, "duration": 74}, {"note": 0, "velocity": 0, "duration": 93}, {"note": 69, "velocity": 78, "duration": 204}, {"note": 69, "velocity": 78, "duration": 207}, {"note": 61, "velocity": 78, "duration": 129}, {"note": 64, "velocity": 78, "duration": 111}, {"note": 0, "velocity": 0, "duration": 70}, {"note": 71, "velocity": 78, "duration": 86}, {"note": 0, "velocity": 0, "duration": 64}, {"note": 69, "velocity": 78, "duration": 192}, {"note": 69, "velocity": 78, "duration": 169}, {"note": 0, "velocity": 0, "duration": 79}, {"note": 67, "velocity": 78, "duration": 197}, {"note": 64, "velocity": 78, "duration": 199}, {"note": 71, "velocity": 78, "duration": 97}, {"note": 0, "velocity": 0, "duration": 63}, {"note": 69, "velocity": 78, "duration": 873}, {"note": 0, "velocity": 0, "duration": 785}, {"note": 62, "velocity": 81, "duration": 133}, {"note": 0, "velocity": 0, "duration": 107}, {"note": 67, "velocity": 81, "duration": 647}, {"note": 0, "velocity": 0, "duration": 73}, {"note": 71, "velocity": 84, "duration": 153}, {"note": 0, "velocity": 0, "duration": 87}, {"note": 74, "velocity": 84, "duration": 316}, {"note": 0, "velocity": 0, "duration": 164}, {"note": 73, "velocity": 86, "duration": 129}, {"note": 71, "velocity": 86, "duration": 223}, {"note": 0, "velocity": 0, "duration": 137}, {"note": 69, "velocity": 86, "duration": 708}, {"note": 74, "velocity": 86, "duration": 116}, {"note": 0, "velocity": 0, "duration": 124}, {"note": 66, "velocity": 86, "duration": 509}, {"note": 62, "velocity": 86, "duration": 148}, {"note": 66, "velocity": 86, "duration": 76}, {"note": 0, "velocity": 0, "duration": 105}, {"note": 71, "velocity": 86, "duration": 74}, {"note": 0, "velocity": 0, "duration": 93}, {"note": 69, "velocity": 86, "duration": 204}, {"note": 69, "velocity": 86, "duration": 207}, {"note": 61, "velocity": 86, "duration": 129}, {"note": 64, "velocity": 86, "duration": 111}, {"note": 0, "velocity": 0, "duration": 80}, {"note": 71, "velocity": 86, "duration": 86}, {"note": 0, "velocity": 0, "duration": 64}, {"note": 69, "velocity": 86, "duration": 467}, {"note": 64, "velocity": 86, "duration": 147}, {"note": 66, "velocity": 86, "duration": 163}, {"note": 64, "velocity": 86, "duration": 173}, {"note": 62, "velocity": 86, "duration": 924}, {"note": 0, "velocity": 0, "duration": 516}, {"note": 57, "velocity": 68, "duration": 296}, {"note": 59, "velocity": 64, "duration": 231}, {"note": 62, "velocity": 64, "duration": 306}, {"note": 0, "velocity": 0, "duration": 174}, {"note": 62, "velocity": 74, "duration": 633}, {"note": 0, "velocity": 0, "duration": 326}, {"note": 66, "velocity": 84, "duration": 252}, {"note": 64, "velocity": 80, "duration": 172}, {"note": 62, "velocity": 76, "duration": 305}, {"note": 57, "velocity": 53, "duration": 835}, {"note": 0, "velocity": 0, "duration": 440}, {"note": 62, "velocity": 69, "duration": 273}, {"note": 64, "velocity": 67, "duration": 185}, {"note": 66, "velocity": 76, "duration": 317}, {"note": 0, "velocity": 0, "duration": 163}, {"note": 66, "velocity": 90, "duration": 741}, {"note": 69, "velocity": 83, "duration": 278}, {"note": 66, "velocity": 80, "duration": 155}, {"note": 64, "velocity": 67, "duration": 163}, {"note": 62, "velocity": 59, "duration": 263}, {"note": 64, "velocity": 74, "duration": 234}, {"note": 64, "velocity": 97, "duration": 694}, {"note": 0, "velocity": 0, "duration": 225}, {"note": 69, "velocity": 71, "duration": 95}, {"note": 0, "velocity": 0, "duration": 145}, {"note": 69, "velocity": 79, "duration": 106}, {"note": 0, "velocity": 0, "duration": 254}, {"note": 69, "velocity": 76, "duration": 67}, {"note": 69, "velocity": 79, "duration": 996}, {"note": 0, "velocity": 0, "duration": 204}, {"note": 57, "velocity": 60, "duration": 227}, {"note": 62, "velocity": 65, "duration": 276}, {"note": 61, "velocity": 77, "duration": 270}, {"note": 59, "velocity": 62, "duration": 897}, {"note": 0, "velocity": 0, "duration": 783}, {"note": 57, "velocity": 68, "duration": 128}, {"note": 62, "velocity": 60, "duration": 101}, {"note": 66, "velocity": 67, "duration": 99}, {"note": 0, "velocity": 0, "duration": 141}, {"note": 62, "velocity": 60, "duration": 221}, {"note": 69, "velocity": 75, "duration": 149}, {"note": 66, "velocity": 81, "duration": 84}, {"note": 0, "velocity": 0, "duration": 156}, {"note": 71, "velocity": 95, "duration": 279}, {"note": 0, "velocity": 0, "duration": 81}, {"note": 69, "velocity": 70, "duration": 271}, {"note": 64, "velocity": 69, "duration": 145}, {"note": 0, "velocity": 0, "duration": 95}, {"note": 66, "velocity": 74, "duration": 360}, {"note": 0, "velocity": 0, "duration": 120}, {"note": 62, "velocity": 75, "duration": 1181}, {"note": 0, "velocity": 0, "duration": 9859}, {"note": 62, "velocity": 92, "duration": 133}, {"note": 0, "velocity": 0, "duration": 107}, {"note": 67, "velocity": 92, "duration": 647}, {"note": 0, "velocity": 0, "duration": 73}, {"note": 71, "velocity": 92, "duration": 153}, {"note": 0, "velocity": 0, "duration": 87}, {"note": 74, "velocity": 92, "duration": 316}, {"note": 0, "velocity": 0, "duration": 164}, {"note": 73, "velocity": 92, "duration": 129}, {"note": 71, "velocity": 92, "duration": 223}, {"note": 0, "velocity": 0, "duration": 137}, {"note": 69, "velocity": 92, "duration": 708}, {"note": 74, "velocity": 93, "duration": 116}, {"note": 0, "velocity": 0, "duration": 124}, {"note": 66, "velocity": 93, "duration": 509}, {"note": 62, "velocity": 93, "duration": 148}, {"note": 66, "velocity": 93, "duration": 76}, {"note": 0, "velocity": 0, "duration": 105}, {"note": 71, "velocity": 93, "duration": 74}, {"note": 0, "velocity": 0, "duration": 93}, {"note": 69, "velocity": 94, "duration": 204}, {"note": 69, "velocity": 95, "duration": 207}, {"note": 61, "velocity": 95, "duration": 129}, {"note": 64, "velocity": 95, "duration": 111}, {"note": 0, "velocity": 0, "duration": 80}, {"note": 71, "velocity": 96, "duration": 86}, {"note": 0, "velocity": 0, "duration": 64}, {"note": 69, "velocity": 97, "duration": 192}, {"note": 69, "velocity": 98, "duration": 169}, {"note": 0, "velocity": 0, "duration": 79}, {"note": 67, "velocity": 98, "duration": 197}, {"note": 64, "velocity": 98, "duration": 199}, {"note": 71, "velocity": 98, "duration": 97}, {"note": 0, "velocity": 0, "duration": 63}, {"note": 69, "velocity": 99, "duration": 873}, {"note": 0, "velocity": 0, "duration": 785}, {"note": 62, "velocity": 100, "duration": 133}, {"note": 0, "velocity": 0, "duration": 107}, {"note": 67, "velocity": 100, "duration": 647}, {"note": 0, "velocity": 0, "duration": 73}, {"note": 71, "velocity": 99, "duration": 153}, {"note": 0, "velocity": 0, "duration": 87}, {"note": 74, "velocity": 99, "duration": 316}, {"note": 0, "velocity": 0, "duration": 164}, {"note": 73, "velocity": 97, "duration": 129}, {"note": 71, "velocity": 97, "duration": 223}, {"note": 0, "velocity": 0, "duration": 137}, {"note": 69, "velocity": 96, "duration": 708}, {"note": 74, "velocity": 94, "duration": 116}, {"note": 0, "velocity": 0, "duration": 124}, {"note": 66, "velocity": 92, "duration": 509}, {"note": 62, "velocity": 91, "duration": 148}, {"note": 66, "velocity": 91, "duration": 76}, {"note": 0, "velocity": 0, "duration": 105}, {"note": 71, "velocity": 91, "duration": 74}, {"note": 0, "velocity": 0, "duration": 93}, {"note": 69, "velocity": 91, "duration": 204}, {"note": 69, "velocity": 91, "duration": 207}, {"note": 61, "velocity": 91, "duration": 129}, {"note": 64, "velocity": 91, "duration": 111}, {"note": 0, "velocity": 0, "duration": 80}, {"note": 71, "velocity": 91, "duration": 86}, {"note": 0, "velocity": 0, "duration": 64}, {"note": 69, "velocity": 91, "duration": 467}, {"note": 64, "velocity": 91, "duration": 147}, {"note": 66, "velocity": 91, "duration": 163}, {"note": 64, "velocity": 91, "duration": 173}, {"note": 62, "velocity": 91, "duration": 924}, {"note": 0, "velocity": 0, "duration": 756}, {"note": 62, "velocity": 91, "duration": 133}, {"note": 0, "velocity": 0, "duration": 107}, {"note": 67, "velocity": 91, "duration": 647}, {"note": 0, "velocity": 0, "duration": 73}, {"note": 71, "velocity": 76, "duration": 153}, {"note": 0, "velocity": 0, "duration": 87}, {"note": 74, "velocity": 81, "duration": 316}, {"note": 0, "velocity": 0, "duration": 164}, {"note": 73, "velocity": 100, "duration": 129}, {"note": 71, "velocity": 67, "duration": 223}, {"note": 0, "velocity": 0, "duration": 137}, {"note": 69, "velocity": 83, "duration": 708}, {"note": 74, "velocity": 77, "duration": 116}, {"note": 0, "velocity": 0, "duration": 124}, {"note": 66, "velocity": 95, "duration": 509}, {"note": 62, "velocity": 98, "duration": 148}, {"note": 66, "velocity": 67, "duration": 76}, {"note": 0, "velocity": 0, "duration": 105}, {"note": 71, "velocity": 86, "duration": 74}, {"note": 0, "velocity": 0, "duration": 93}, {"note": 69, "velocity": 100, "duration": 204}, {"note": 69, "velocity": 71, "duration": 207}, {"note": 61, "velocity": 76, "duration": 129}, {"note": 64, "velocity": 62, "duration": 111}, {"note": 0, "velocity": 0, "duration": 90}, {"note": 71, "velocity": 85, "duration": 86}, {"note": 0, "velocity": 0, "duration": 64}, {"note": 69, "velocity": 90, "duration": 192}, {"note": 69, "velocity": 85, "duration": 169}, {"note": 0, "velocity": 0, "duration": 79}, {"note": 67, "velocity": 95, "duration": 197}, {"note": 64, "velocity": 71, "duration": 199}, {"note": 71, "velocity": 72, "duration": 97}, {"note": 0, "velocity": 0, "duration": 63}, {"note": 69, "velocity": 108, "duration": 873}, {"note": 0, "velocity": 0, "duration": 785}, {"note": 62, "velocity": 88, "duration": 133}, {"note": 0, "velocity": 0, "duration": 107}, {"note": 67, "velocity": 88, "duration": 647}, {"note": 0, "velocity": 0, "duration": 73}, {"note": 71, "velocity": 76, "duration": 153}, {"note": 0, "velocity": 0, "duration": 87}, {"note": 74, "velocity": 81, "duration": 316}, {"note": 0, "velocity": 0, "duration": 164}, {"note": 73, "velocity": 100, "duration": 129}, {"note": 71, "velocity": 67, "duration": 223}, {"note": 0, "velocity": 0, "duration": 137}, {"note": 69, "velocity": 83, "duration": 708}, {"note": 74, "velocity": 77, "duration": 116}, {"note": 0, "velocity": 0, "duration": 124}, {"note": 66, "velocity": 95, "duration": 509}, {"note": 62, "velocity": 98, "duration": 148}, {"note": 66, "velocity": 67, "duration": 76}, {"note": 0, "velocity": 0, "duration": 105}, {"note": 71, "velocity": 86, "duration": 74}, {"note": 0, "velocity": 0, "duration": 93}, {"note": 69, "velocity": 100, "duration": 204}, {"note": 69, "velocity": 71, "duration": 207}, {"note": 61, "velocity": 76, "duration": 129}, {"note": 64, "velocity": 62, "duration": 111}, {"note": 0, "velocity": 0, "duration": 80}, {"note": 71, "velocity": 85, "duration": 86}, {"note": 0, "velocity": 0, "duration": 64}, {"note": 69, "velocity": 90, "duration": 467}, {"note": 64, "velocity": 66, "duration": 147}, {"note": 66, "velocity": 63, "duration": 163}, {"note": 64, "velocity": 64, "duration": 173}, {"note": 62, "velocity": 60, "duration": 924}, {"note": 0, "velocity": 0, "duration": 524}, {"note": 62, "velocity": 74, "duration": 170}, {"note": 66, "velocity": 63, "duration": 113}, {"note": 71, "velocity": 81, "duration": 110}, {"note": 69, "velocity": 86, "duration": 160}, {"note": 0, "velocity": 0, "duration": 95}, {"note": 69, "velocity": 72, "duration": 131}, {"note": 0, "velocity": 0, "duration": 69}, {"note": 61, "velocity": 90, "duration": 212}, {"note": 64, "velocity": 71, "duration": 126}, {"note": 71, "velocity": 87, "duration": 115}, {"note": 69, "velocity": 93, "duration": 1111}, {"note": 0, "velocity": 0, "duration": 242}, {"note": 64, "velocity": 65, "duration": 309}, {"note": 66, "velocity": 92, "duration": 526}, {"note": 64, "velocity": 92, "duration": 482}, {"note": 0, "velocity": 0, "duration": 94}, {"note": 62, "velocity": 77, "duration": 1504}]]