[[{"note": 62, "velocity": 78, "duration": 357}, {"note": 62, "velocity": 92, "duration": 358}, {"note": 60, "velocity": 100, "duration": 238}, {"note": 57, "velocity": 87, "duration": 358}, {"note": 60, "velocity": 92, "duration": 358}, {"note": 62, "velocity": 84, "duration": 238}, {"note": 64, "velocity": 92, "duration": 238}, {"note": 65, "velocity": 87, "duration": 118}, {"note": 64, "velocity": 84, "duration": 238}, {"note": 60, "velocity": 73, "duration": 238}, {"note": 57, "velocity": 84, "duration": 1078}, {"note": 62, "velocity": 89, "duration": 357}, {"note": 62, "velocity": 97, "duration": 358}, {"note": 60, "velocity": 97, "duration": 238}, {"note": 57, "velocity": 89, "duration": 358}, {"note": 60, "velocity": 97, "duration": 358}, {"note": 62, "velocity": 94, "duration": 238}, {"note": 64, "velocity": 92, "duration": 238}, {"note": 65, "velocity": 94, "duration": 118}, {"note": 64, "velocity": 94, "duration": 238}, {"note": 60, "velocity": 73, "duration": 238}, {"note": 62, "velocity": 84, "duration": 1077}, {"note": 62, "velocity": 82, "duration": 357}, {"note": 62, "velocity": 87, "duration": 358}, {"note": 60, "velocity": 84, "duration": 238}, {"note": 64, "velocity": 94, "duration": 357}, {"note": 64, "velocity": 94, "duration": 358}, {"note": 65, "velocity": 92, "duration": 238}, {"note": 64, "velocity": 89, "duration": 238}, {"note": 65, "velocity": 92, "duration": 238}, {"note": 67, "velocity": 105, "duration": 238}, {"note": 65, "velocity": 100, "duration": 118}, {"note": 69, "velocity": 102, "duration": 598}, {"note": 67, "velocity": 100, "duration": 238}, {"note": 69, "velocity": 100, "duration": 238}, {"note": 67, "velocity": 94, "duration": 358}, {"note": 62, "velocity": 94, "duration": 598}, {"note": 64, "velocity": 87, "duration": 358}, {"note": 60, "velocity": 100, "duration": 358}, {"note": 64, "velocity": 80, "duration": 238}, {"note": 62, "velocity": 97, "duration": 1918}, {"note": 0, "velocity": 0, "duration": 15362}, {"note": 62, "velocity": 78, "duration": 357}, {"note": 62, "velocity": 92, "duration": 358}, {"note": 60, "velocity": 100, "duration": 238}, {"note": 57, "velocity": 87, "duration": 358}, {"note": 60, "velocity": 92, "duration": 358}, {"note": 62, "velocity": 84, "duration": 238}, {"note": 64, "velocity": 92, "duration": 238}, {"note": 65, "velocity": 87, "duration": 118}, {"note": 64, "velocity": 84, "duration": 238}, {"note": 60, "velocity": 73, "duration": 238}, {"note": 57, "velocity": 84, "duration": 1078}, {"note": 62, "velocity": 89, "duration": 357}, {"note": 62, "velocity": 97, "duration": 358}, {"note": 60, "velocity": 97, "duration": 238}, {"note": 57, "velocity": 89, "duration": 358}, {"note": 60, "velocity": 97, "duration": 358}, {"note": 62, "velocity": 94, "duration": 238}, {"note": 64, "velocity": 92, "duration": 238}, {"note": 65, "velocity": 94, "duration": 118}, {"note": 64, "velocity": 94, "duration": 238}, {"note": 60, "velocity": 73, "duration": 238}, {"note": 62, "velocity": 84, "duration": 1077}, {"note": 62, "velocity": 82, "duration": 357}, {"note": 62, "velocity": 87, "duration": 358}, {"note": 60, "velocity": 84, "duration": 238}, {"note": 64, "velocity": 94, "duration": 357}, {"note": 64, "velocity": 94, "duration": 358}, {"note": 65, "velocity": 92, "duration": 238}, {"note": 64, "velocity": 89, "duration": 238}, {"note": 65, "velocity": 92, "duration": 238}, {"note": 67, "velocity": 105, "duration": 238}, {"note": 65, "velocity": 100, "duration": 118}, {"note": 69, "velocity": 102, "duration": 598}, {"note": 67, "velocity": 100, "duration": 238}, {"note": 65, "velocity": 100, "duration": 238}, {"note": 62, "velocity": 94, "duration": 478}, {"note": 69, "velocity": 94, "duration": 478}, {"note": 64, "velocity": 87, "duration": 478}, {"note": 0, "velocity": 0, "duration": 242}, {"note": 60, "velocity": 100, "duration": 238}, {"note": 62, "velocity": 97, "duration": 1918}, {"note": 67, "velocity": 105, "duration": 156}, {"note": 0, "velocity": 0, "duration": 84}, {"note": 65, "velocity": 100, "duration": 63}, {"note": 62, "velocity": 92, "duration": 173}, {"note": 0, "velocity": 0, "duration": 67}, {"note": 65, "velocity": 97, "duration": 238}, {"note": 67, "velocity": 100, "duration": 283}, {"note": 0, "velocity": 0, "duration": 77}, {"note": 65, "velocity": 100, "duration": 67}, {"note": 62, "velocity": 82, "duration": 201}, {"note": 65, "velocity": 94, "duration": 196}, {"note": 0, "velocity": 0, "duration": 164}, {"note": 67, "velocity": 100, "duration": 160}, {"note": 0, "velocity": 0, "duration": 80}, {"note": 69, "velocity": 100, "duration": 68}, {"note": 67, "velocity": 111, "duration": 184}, {"note": 0, "velocity": 0, "duration": 176}, {"note": 65, "velocity": 108, "duration": 251}, {"note": 62, "velocity": 105, "duration": 246}, {"note": 0, "velocity": 0, "duration": 714}, {"note": 67, "velocity": 105, "duration": 159}, {"note": 0, "velocity": 0, "duration": 81}, {"note": 65, "velocity": 105, "duration": 70}, {"note": 62, "velocity": 97, "duration": 186}, {"note": 65, "velocity": 92, "duration": 243}, {"note": 0, "velocity": 0, "duration": 117}, {"note": 64, "velocity": 100, "duration": 201}, {"note": 60, "velocity": 97, "duration": 66}, {"note": 60, "velocity": 92, "duration": 180}, {"note": 62, "velocity": 84, "duration": 248}, {"note": 0, "velocity": 0, "duration": 112}, {"note": 57, "velocity": 97, "duration": 535}, {"note": 0, "velocity": 0, "duration": 665}, {"note": 55, "velocity": 87, "duration": 189}, {"note": 57, "velocity": 108, "duration": 176}, {"note": 0, "velocity": 0, "duration": 64}, {"note": 60, "velocity": 102, "duration": 136}, {"note": 0, "velocity": 0, "duration": 104}, {"note": 67, "velocity": 111, "duration": 160}, {"note": 0, "velocity": 0, "duration": 80}, {"note": 65, "velocity": 100, "duration": 83}, {"note": 62, "velocity": 80, "duration": 211}, {"note": 65, "velocity": 102, "duration": 188}, {"note": 67, "velocity": 105, "duration": 211}, {"note": 65, "velocity": 108, "duration": 80}, {"note": 0, "velocity": 0, "duration": 160}, {"note": 62, "velocity": 102, "duration": 169}, {"note": 0, "velocity": 0, "duration": 71}, {"note": 65, "velocity": 105, "duration": 220}, {"note": 0, "velocity": 0, "duration": 140}, {"note": 67, "velocity": 102, "duration": 132}, {"note": 0, "velocity": 0, "duration": 108}, {"note": 65, "velocity": 92, "duration": 65}, {"note": 67, "velocity": 102, "duration": 151}, {"note": 0, "velocity": 0, "duration": 89}, {"note": 72, "velocity": 97, "duration": 173}, {"note": 0, "velocity": 0, "duration": 67}, {"note": 69, "velocity": 105, "duration": 426}, {"note": 0, "velocity": 0, "duration": 174}, {"note": 67, "velocity": 84, "duration": 182}, {"note": 65, "velocity": 97, "duration": 158}, {"note": 0, "velocity": 0, "duration": 82}, {"note": 62, "velocity": 105, "duration": 360}, {"note": 0, "velocity": 0, "duration": 120}, {"note": 69, "velocity": 105, "duration": 363}, {"note": 0, "velocity": 0, "duration": 117}, {"note": 64, "velocity": 102, "duration": 617}, {"note": 0, "velocity": 0, "duration": 103}, {"note": 65, "velocity": 108, "duration": 180}, {"note": 67, "velocity": 84, "duration": 598}, {"note": 65, "velocity": 100, "duration": 64}, {"note": 67, "velocity": 102, "duration": 74}, {"note": 69, "velocity": 102, "duration": 143}, {"note": 0, "velocity": 0, "duration": 217}, {"note": 57, "velocity": 102, "duration": 194}, {"note": 72, "velocity": 97, "duration": 110}, {"note": 0, "velocity": 0, "duration": 130}, {"note": 69, "velocity": 100, "duration": 94}, {"note": 0, "velocity": 0, "duration": 146}, {"note": 67, "velocity": 108, "duration": 218}, {"note": 65, "velocity": 100, "duration": 60}, {"note": 67, "velocity": 100, "duration": 218}, {"note": 0, "velocity": 0, "duration": 262}, {"note": 65, "velocity": 94, "duration": 51}, {"note": 0, "velocity": 0, "duration": 69}, {"note": 67, "velocity": 105, "duration": 156}, {"note": 0, "velocity": 0, "duration": 84}, {"note": 65, "velocity": 97, "duration": 61}, {"note": 62, "velocity": 100, "duration": 180}, {"note": 65, "velocity": 105, "duration": 267}, {"note": 0, "velocity": 0, "duration": 93}, {"note": 67, "velocity": 108, "duration": 515}, {"note": 0, "velocity": 0, "duration": 85}, {"note": 65, "velocity": 102, "duration": 65}, {"note": 67, "velocity": 100, "duration": 64}, {"note": 69, "velocity": 100, "duration": 177}, {"note": 0, "velocity": 0, "duration": 183}, {"note": 57, "velocity": 105, "duration": 142}, {"note": 0, "velocity": 0, "duration": 98}, {"note": 72, "velocity": 102, "duration": 161}, {"note": 0, "velocity": 0, "duration": 79}, {"note": 69, "velocity": 102, "duration": 130}, {"note": 0, "velocity": 0, "duration": 110}, {"note": 67, "velocity": 105, "duration": 171}, {"note": 0, "velocity": 0, "duration": 69}, {"note": 65, "velocity": 92, "duration": 67}, {"note": 67, "velocity": 102, "duration": 218}, {"note": 0, "velocity": 0, "duration": 382}, {"note": 67, "velocity": 111, "duration": 155}, {"note": 0, "velocity": 0, "duration": 85}, {"note": 65, "velocity": 102, "duration": 74}, {"note": 72, "velocity": 108, "duration": 180}, {"note": 74, "velocity": 108, "duration": 300}, {"note": 69, "velocity": 105, "duration": 954}, {"note": 0, "velocity": 0, "duration": 246}, {"note": 57, "velocity": 105, "duration": 169}, {"note": 0, "velocity": 0, "duration": 71}, {"note": 72, "velocity": 111, "duration": 120}, {"note": 0, "velocity": 0, "duration": 120}, {"note": 69, "velocity": 102, "duration": 126}, {"note": 0, "velocity": 0, "duration": 114}, {"note": 67, "velocity": 105, "duration": 142}, {"note": 0, "velocity": 0, "duration": 98}, {"note": 65, "velocity": 76, "duration": 57}, {"note": 0, "velocity": 0, "duration": 63}, {"note": 67, "velocity": 102, "duration": 476}, {"note": 0, "velocity": 0, "duration": 124}, {"note": 67, "velocity": 105, "duration": 164}, {"note": 0, "velocity": 0, "duration": 76}, {"note": 65, "velocity": 94, "duration": 88}, {"note": 62, "velocity": 108, "duration": 175}, {"note": 0, "velocity": 0, "duration": 65}, {"note": 65, "velocity": 102, "duration": 221}, {"note": 0, "velocity": 0, "duration": 139}, {"note": 72, "velocity": 102, "duration": 117}, {"note": 0, "velocity": 0, "duration": 123}, {"note": 69, "velocity": 100, "duration": 117}, {"note": 0, "velocity": 0, "duration": 123}, {"note": 67, "velocity": 105, "duration": 162}, {"note": 0, "velocity": 0, "duration": 78}, {"note": 69, "velocity": 92, "duration": 64}, {"note": 67, "velocity": 94, "duration": 201}, {"note": 0, "velocity": 0, "duration": 159}, {"note": 65, "velocity": 108, "duration": 238}, {"note": 62, "velocity": 102, "duration": 146}, {"note": 0, "velocity": 0, "duration": 94}, {"note": 60, "velocity": 97, "duration": 148}, {"note": 0, "velocity": 0, "duration": 92}, {"note": 62, "velocity": 94, "duration": 399}, {"note": 0, "velocity": 0, "duration": 81}, {"note": 62, "velocity": 89, "duration": 171}, {"note": 0, "velocity": 0, "duration": 69}, {"note": 65, "velocity": 97, "duration": 158}, {"note": 0, "velocity": 0, "duration": 82}, {"note": 67, "velocity": 97, "duration": 181}, {"note": 65, "velocity": 97, "duration": 176}, {"note": 0, "velocity": 0, "duration": 64}, {"note": 62, "velocity": 105, "duration": 166}, {"note": 0, "velocity": 0, "duration": 74}, {"note": 60, "velocity": 84, "duration": 118}, {"note": 62, "velocity": 100, "duration": 957}, {"note": 0, "velocity": 0, "duration": 16443}, {"note": 62, "velocity": 78, "duration": 357}, {"note": 62, "velocity": 92, "duration": 358}, {"note": 60, "velocity": 100, "duration": 238}, {"note": 57, "velocity": 87, "duration": 358}, {"note": 60, "velocity": 92, "duration": 358}, {"note": 62, "velocity": 84, "duration": 238}, {"note": 64, "velocity": 92, "duration": 238}, {"note": 65, "velocity": 87, "duration": 118}, {"note": 64, "velocity": 84, "duration": 238}, {"note": 60, "velocity": 73, "duration": 238}, {"note": 57, "velocity": 84, "duration": 1078}, {"note": 62, "velocity": 89, "duration": 357}, {"note": 62, "velocity": 97, "duration": 358}, {"note": 60, "velocity": 97, "duration": 238}, {"note": 57, "velocity": 89, "duration": 358}, {"note": 60, "velocity": 97, "duration": 358}, {"note": 62, "velocity": 94, "duration": 238}, {"note": 64, "velocity": 92, "duration": 238}, {"note": 65, "velocity": 94, "duration": 118}, {"note": 64, "velocity": 94, "duration": 238}, {"note": 60, "velocity": 73, "duration": 238}, {"note": 62, "velocity": 84, "duration": 1077}, {"note": 62, "velocity": 82, "duration": 357}, {"note": 62, "velocity": 87, "duration": 358}, {"note": 60, "velocity": 84, "duration": 238}, {"note": 64, "velocity": 94, "duration": 357}, {"note": 64, "velocity": 94, "duration": 358}, {"note": 65, "velocity": 92, "duration": 238}, {"note": 64, "velocity": 89, "duration": 238}, {"note": 65, "velocity": 92, "duration": 238}, {"note": 67, "velocity": 105, "duration": 238}, {"note": 65, "velocity": 100, "duration": 118}, {"note": 69, "velocity": 102, "duration": 598}, {"note": 67, "velocity": 100, "duration": 238}, {"note": 65, "velocity": 100, "duration": 238}, {"note": 62, "velocity": 94, "duration": 478}, {"note": 69, "velocity": 94, "duration": 478}, {"note": 64, "velocity": 87, "duration": 478}, {"note": 0, "velocity": 0, "duration": 242}, {"note": 60, "velocity": 100, "duration": 238}, {"note": 62, "velocity": 97, "duration": 1918}, {"note": 67, "velocity": 105, "duration": 156}, {"note": 0, "velocity": 0, "duration": 84}, {"note": 65, "velocity": 100, "duration": 63}, {"note": 62, "velocity": 92, "duration": 173}, {"note": 0, "velocity": 0, "duration": 67}, {"note": 65, "velocity": 97, "duration": 238}, {"note": 67, "velocity": 100, "duration": 283}, {"note": 0, "velocity": 0, "duration": 77}, {"note": 65, "velocity": 100, "duration": 67}, {"note": 62, "velocity": 82, "duration": 201}, {"note": 65, "velocity": 94, "duration": 196}, {"note": 0, "velocity": 0, "duration": 164}, {"note": 67, "velocity": 100, "duration": 160}, {"note": 0, "velocity": 0, "duration": 80}, {"note": 69, "velocity": 100, "duration": 68}, {"note": 67, "velocity": 111, "duration": 184}, {"note": 0, "velocity": 0, "duration": 176}, {"note": 65, "velocity": 108, "duration": 251}, {"note": 62, "velocity": 105, "duration": 246}, {"note": 0, "velocity": 0, "duration": 714}, {"note": 67, "velocity": 105, "duration": 159}, {"note": 0, "velocity": 0, "duration": 81}, {"note": 65, "velocity": 105, "duration": 70}, {"note": 62, "velocity": 97, "duration": 186}, {"note": 65, "velocity": 92, "duration": 243}, {"note": 0, "velocity": 0, "duration": 117}, {"note": 64, "velocity": 100, "duration": 201}, {"note": 60, "velocity": 97, "duration": 66}, {"note": 60, "velocity": 92, "duration": 180}, {"note": 62, "velocity": 84, "duration": 248}, {"note": 0, "velocity": 0, "duration": 112}, {"note": 57, "velocity": 97, "duration": 535}, {"note": 0, "velocity": 0, "duration": 665}, {"note": 55, "velocity": 87, "duration": 189}, {"note": 57, "velocity": 108, "duration": 176}, {"note": 0, "velocity": 0, "duration": 64}, {"note": 60, "velocity": 102, "duration": 136}, {"note": 0, "velocity": 0, "duration": 104}, {"note": 67, "velocity": 111, "duration": 160}, {"note": 0, "velocity": 0, "duration": 80}, {"note": 65, "velocity": 100, "duration": 83}, {"note": 62, "velocity": 80, "duration": 211}, {"note": 65, "velocity": 102, "duration": 188}, {"note": 67, "velocity": 105, "duration": 211}, {"note": 65, "velocity": 108, "duration": 80}, {"note": 0, "velocity": 0, "duration": 160}, {"note": 62, "velocity": 102, "duration": 169}, {"note": 0, "velocity": 0, "duration": 71}, {"note": 65, "velocity": 105, "duration": 220}, {"note": 0, "velocity": 0, "duration": 140}, {"note": 67, "velocity": 102, "duration": 132}, {"note": 0, "velocity": 0, "duration": 108}, {"note": 65, "velocity": 92, "duration": 65}, {"note": 67, "velocity": 102, "duration": 151}, {"note": 0, "velocity": 0, "duration": 89}, {"note": 72, "velocity": 97, "duration": 173}, {"note": 0, "velocity": 0, "duration": 67}, {"note": 69, "velocity": 105, "duration": 426}, {"note": 0, "velocity": 0, "duration": 174}, {"note": 67, "velocity": 84, "duration": 182}, {"note": 65, "velocity": 97, "duration": 158}, {"note": 0, "velocity": 0, "duration": 82}, {"note": 62, "velocity": 105, "duration": 360}, {"note": 0, "velocity": 0, "duration": 120}, {"note": 69, "velocity": 105, "duration": 363}, {"note": 0, "velocity": 0, "duration": 117}, {"note": 64, "velocity": 102, "duration": 617}, {"note": 0, "velocity": 0, "duration": 103}, {"note": 65, "velocity": 108, "duration": 180}, {"note": 67, "velocity": 84, "duration": 598}, {"note": 65, "velocity": 100, "duration": 64}, {"note": 67, "velocity": 102, "duration": 74}, {"note": 69, "velocity": 102, "duration": 143}, {"note": 0, "velocity": 0, "duration": 217}, {"note": 57, "velocity": 102, "duration": 194}, {"note": 72, "velocity": 97, "duration": 110}, {"note": 0, "velocity": 0, "duration": 130}, {"note": 69, "velocity": 100, "duration": 94}, {"note": 0, "velocity": 0, "duration": 146}, {"note": 67, "velocity": 108, "duration": 218}, {"note": 65, "velocity": 100, "duration": 60}, {"note": 67, "velocity": 100, "duration": 218}, {"note": 0, "velocity": 0, "duration": 262}, {"note": 65, "velocity": 94, "duration": 51}, {"note": 0, "velocity": 0, "duration": 69}, {"note": 67, "velocity": 105, "duration": 156}, {"note": 0, "velocity": 0, "duration": 84}, {"note": 65, "velocity": 97, "duration": 61}, {"note": 62, "velocity": 100, "duration": 180}, {"note": 65, "velocity": 105, "duration": 267}, {"note": 0, "velocity": 0, "duration": 93}, {"note": 67, "velocity": 108, "duration": 515}, {"note": 0, "velocity": 0, "duration": 85}, {"note": 65, "velocity": 102, "duration": 65}, {"note": 67, "velocity": 100, "duration": 64}, {"note": 69, "velocity": 100, "duration": 177}, {"note": 0, "velocity": 0, "duration": 183}, {"note": 57, "velocity": 105, "duration": 142}, {"note": 0, "velocity": 0, "duration": 98}, {"note": 72, "velocity": 102, "duration": 161}, {"note": 0, "velocity": 0, "duration": 79}, {"note": 69, "velocity": 102, "duration": 130}, {"note": 0, "velocity": 0, "duration": 110}, {"note": 67, "velocity": 105, "duration": 171}, {"note": 0, "velocity": 0, "duration": 69}, {"note": 65, "velocity": 92, "duration": 67}, {"note": 67, "velocity": 102, "duration": 218}, {"note": 0, "velocity": 0, "duration": 382}, {"note": 67, "velocity": 111, "duration": 155}, {"note": 0, "velocity": 0, "duration": 85}, {"note": 65, "velocity": 102, "duration": 74}, {"note": 72, "velocity": 108, "duration": 180}, {"note": 74, "velocity": 108, "duration": 300}, {"note": 69, "velocity": 105, "duration": 954}, {"note": 0, "velocity": 0, "duration": 246}, {"note": 57, "velocity": 105, "duration": 169}, {"note": 0, "velocity": 0, "duration": 71}, {"note": 72, "velocity": 111, "duration": 120}, {"note": 0, "velocity": 0, "duration": 120}, {"note": 69, "velocity": 102, "duration": 126}, {"note": 0, "velocity": 0, "duration": 114}, {"note": 67, "velocity": 105, "duration": 142}, {"note": 0, "velocity": 0, "duration": 98}, {"note": 65, "velocity": 76, "duration": 57}, {"note": 0, "velocity": 0, "duration": 63}, {"note": 67, "velocity": 102, "duration": 476}, {"note": 0, "velocity": 0, "duration": 124}, {"note": 67, "velocity": 105, "duration": 164}, {"note": 0, "velocity": 0, "duration": 76}, {"note": 65, "velocity": 94, "duration": 88}, {"note": 62, "velocity": 108, "duration": 175}, {"note": 0, "velocity": 0, "duration": 65}, {"note": 65, "velocity": 102, "duration": 221}, {"note": 0, "velocity": 0, "duration": 139}, {"note": 72, "velocity": 102, "duration": 117}, {"note": 0, "velocity": 0, "duration": 123}, {"note": 69, "velocity": 100, "duration": 117}, {"note": 0, "velocity": 0, "duration": 123}, {"note": 67, "velocity": 105, "duration": 162}, {"note": 0, "velocity": 0, "duration": 78}, {"note": 69, "velocity": 92, "duration": 64}, {"note": 67, "velocity": 94, "duration": 201}, {"note": 0, "velocity": 0, "duration": 159}, {"note": 65, "velocity": 108, "duration": 238}, {"note": 62, "velocity": 102, "duration": 146}, {"note": 0, "velocity": 0, "duration": 94}, {"note": 60, "velocity": 97, "duration": 148}, {"note": 0, "velocity": 0, "duration": 92}, {"note": 62, "velocity": 94, "duration": 399}, {"note": 0, "velocity": 0, "duration": 81}, {"note": 62, "velocity": 89, "duration": 171}, {"note": 0, "velocity": 0, "duration": 69}, {"note": 65, "velocity": 97, "duration": 158}, {"note": 0, "velocity": 0, "duration": 82}, {"note": 67, "velocity": 97, "duration": 181}, {"note": 65, "velocity": 97, "duration": 176}, {"note": 0, "velocity": 0, "duration": 64}, {"note": 62, "velocity": 105, "duration": 166}, {"note": 0, "velocity": 0, "duration": 74}, {"note": 60, "velocity": 84, "duration": 118}, {"note": 62, "velocity": 100, "duration": 957}, {"note": 0, "velocity": 0, "duration": 363}, {"note": 57, "velocity": 102, "duration": 194}, {"note": 72, "velocity": 97, "duration": 110}, {"note": 0, "velocity": 0, "duration": 130}, {"note": 69, "velocity": 100, "duration": 94}, {"note": 0, "velocity": 0, "duration": 146}, {"note": 67, "velocity": 108, "duration": 218}, {"note": 65, "velocity": 100, "duration": 60}, {"note": 67, "velocity": 100, "duration": 218}, {"note": 0, "velocity": 0, "duration": 262}, {"note": 65, "velocity": 94, "duration": 51}, {"note": 0, "velocity": 0, "duration": 69}, {"note": 67, "velocity": 105, "duration": 156}, {"note": 0, "velocity": 0, "duration": 84}, {"note": 65, "velocity": 97, "duration": 61}, {"note": 62, "velocity": 100, "duration": 180}, {"note": 65, "velocity": 105, "duration": 267}, {"note": 0, "velocity": 0, "duration": 93}, {"note": 67, "velocity": 108, "duration": 515}, {"note": 0, "velocity": 0, "duration": 85}, {"note": 65, "velocity": 102, "duration": 65}, {"note": 67, "velocity": 100, "duration": 64}, {"note": 69, "velocity": 100, "duration": 177}, {"note": 0, "velocity": 0, "duration": 183}, {"note": 57, "velocity": 105, "duration": 142}, {"note": 0, "velocity": 0, "duration": 98}, {"note": 72, "velocity": 102, "duration": 161}, {"note": 0, "velocity": 0, "duration": 79}, {"note": 69, "velocity": 102, "duration": 130}, {"note": 0, "velocity": 0, "duration": 110}, {"note": 67, "velocity": 105, "duration": 171}, {"note": 0, "velocity": 0, "duration": 69}, {"note": 65, "velocity": 92, "duration": 67}, {"note": 67, "velocity": 102, "duration": 218}, {"note": 0, "velocity": 0, "duration": 382}, {"note": 67, "velocity": 111, "duration": 155}, {"note": 0, "velocity": 0, "duration": 85}, {"note": 65, "velocity": 102, "duration": 74}, {"note": 72, "velocity": 108, "duration": 180}, {"note": 74, "velocity": 108, "duration": 300}, {"note": 69, "velocity": 105, "duration": 954}, {"note": 0, "velocity": 0, "duration": 246}, {"note": 57, "velocity": 105, "duration": 169}, {"note": 0, "velocity": 0, "duration": 71}, {"note": 72, "velocity": 111, "duration": 120}, {"note": 0, "velocity": 0, "duration": 120}, {"note": 69, "velocity": 102, "duration": 126}, {"note": 0, "velocity": 0, "duration": 114}, {"note": 67, "velocity": 105, "duration": 142}, {"note": 0, "velocity": 0, "duration": 98}, {"note": 65, "velocity": 76, "duration": 57}, {"note": 0, "velocity": 0, "duration": 63}, {"note": 67, "velocity": 102, "duration": 476}, {"note": 0, "velocity": 0, "duration": 124}, {"note": 67, "velocity": 105, "duration": 164}, {"note": 0, "velocity": 0, "duration": 76}, {"note": 65, "velocity": 94, "duration": 88}, {"note": 62, "velocity": 108, "duration": 175}, {"note": 0, "velocity": 0, "duration": 425}, {"note": 72, "velocity": 102, "duration": 117}, {"note": 0, "velocity": 0, "duration": 123}, {"note": 69, "velocity": 100, "duration": 117}, {"note": 0, "velocity": 0, "duration": 123}, {"note": 67, "velocity": 105, "duration": 162}, {"note": 0, "velocity": 0, "duration": 78}, {"note": 69, "velocity": 92, "duration": 64}, {"note": 67, "velocity": 94, "duration": 201}, {"note": 0, "velocity": 0, "duration": 159}, {"note": 65, "velocity": 108, "duration": 238}, {"note": 62, "velocity": 102, "duration": 146}, {"note": 0, "velocity": 0, "duration": 94}, {"note": 60, "velocity": 97, "duration": 148}, {"note": 0, "velocity": 0, "duration": 92}, {"note": 62, "velocity": 94, "duration": 399}, {"note": 0, "velocity": 0, "duration": 81}, {"note": 62, "velocity": 89, "duration": 171}, {"note": 0, "velocity": 0, "duration": 69}, {"note": 65, "velocity": 97, "duration": 158}, {"note": 0, "velocity": 0, "duration": 82}, {"note": 67, "velocity": 97, "duration": 181}, {"note": 65, "velocity": 97, "duration": 176}, {"note": 0, "velocity": 0, "duration": 64}, {"note": 62, "velocity": 105, "duration": 166}, {"note": 0, "velocity": 0, "duration": 74}, {"note": 60, "velocity": 84, "duration": 118}, {"note": 62, "velocity": 100, "duration": 957}, {"note": 0, "velocity": 0, "duration": 603}, {"note": 72, "velocity": 90, "duration": 166}, {"note": 0, "velocity": 0, "duration": 74}, {"note": 69, "velocity": 95, "duration": 143}, {"note": 0, "velocity": 0, "duration": 97}, {"note": 67, "velocity": 93, "duration": 181}, {"note": 65, "velocity": 93, "duration": 63}, {"note": 67, "velocity": 93, "duration": 239}, {"note": 0, "velocity": 0, "duration": 361}, {"note": 67, "velocity": 90, "duration": 170}, {"note": 0, "velocity": 0, "duration": 70}, {"note": 65, "velocity": 80, "duration": 83}, {"note": 62, "velocity": 93, "duration": 184}, {"note": 65, "velocity": 93, "duration": 213}, {"note": 0, "velocity": 0, "duration": 147}, {"note": 72, "velocity": 90, "duration": 130}, {"note": 0, "velocity": 0, "duration": 110}, {"note": 69, "velocity": 87, "duration": 238}, {"note": 67, "velocity": 80, "duration": 238}, {"note": 69, "velocity": 83, "duration": 118}, {"note": 67, "velocity": 83, "duration": 180}, {"note": 0, "velocity": 0, "duration": 180}, {"note": 65, "velocity": 83, "duration": 201}, {"note": 62, "velocity": 87, "duration": 170}, {"note": 0, "velocity": 0, "duration": 70}, {"note": 60, "velocity": 87, "duration": 175}, {"note": 0, "velocity": 0, "duration": 65}, {"note": 62, "velocity": 85, "duration": 349}, {"note": 0, "velocity": 0, "duration": 131}, {"note": 62, "velocity": 83, "duration": 153}, {"note": 0, "velocity": 0, "duration": 87}, {"note": 65, "velocity": 90, "duration": 152}, {"note": 0, "velocity": 0, "duration": 88}, {"note": 67, "velocity": 87, "duration": 172}, {"note": 0, "velocity": 0, "duration": 68}, {"note": 65, "velocity": 87, "duration": 148}, {"note": 0, "velocity": 0, "duration": 92}, {"note": 62, "velocity": 93, "duration": 149}, {"note": 0, "velocity": 0, "duration": 91}, {"note": 60, "velocity": 80, "duration": 77}, {"note": 62, "velocity": 87, "duration": 1186}]]