[[{"note": 69, "velocity": 112, "duration": 5}, {"note": 67, "velocity": 75, "duration": 262}, {"note": 69, "velocity": 90, "duration": 188}, {"note": 71, "velocity": 86, "duration": 333}, {"note": 0, "velocity": 0, "duration": 147}, {"note": 69, "velocity": 98, "duration": 246}, {"note": 67, "velocity": 65, "duration": 212}, {"note": 69, "velocity": 77, "duration": 183}, {"note": 67, "velocity": 70, "duration": 121}, {"note": 0, "velocity": 0, "duration": 119}, {"note": 67, "velocity": 74, "duration": 210}, {"note": 64, "velocity": 76, "duration": 207}, {"note": 69, "velocity": 87, "duration": 738}, {"note": 0, "velocity": 0, "duration": 462}, {"note": 69, "velocity": 72, "duration": 165}, {"note": 0, "velocity": 0, "duration": 75}, {"note": 67, "velocity": 87, "duration": 129}, {"note": 0, "velocity": 0, "duration": 111}, {"note": 69, "velocity": 98, "duration": 126}, {"note": 0, "velocity": 0, "duration": 114}, {"note": 71, "velocity": 85, "duration": 351}, {"note": 0, "velocity": 0, "duration": 129}, {"note": 69, "velocity": 95, "duration": 154}, {"note": 0, "velocity": 0, "duration": 86}, {"note": 67, "velocity": 79, "duration": 164}, {"note": 0, "velocity": 0, "duration": 76}, {"note": 69, "velocity": 77, "duration": 171}, {"note": 0, "velocity": 0, "duration": 69}, {"note": 67, "velocity": 73, "duration": 102}, {"note": 0, "velocity": 0, "duration": 138}, {"note": 67, "velocity": 87, "duration": 207}, {"note": 64, "velocity": 81, "duration": 234}, {"note": 62, "velocity": 83, "duration": 176}, {"note": 0, "velocity": 0, "duration": 1024}, {"note": 74, "velocity": 86, "duration": 138}, {"note": 0, "velocity": 0, "duration": 102}, {"note": 74, "velocity": 112, "duration": 106}, {"note": 0, "velocity": 0, "duration": 134}, {"note": 74, "velocity": 114, "duration": 145}, {"note": 0, "velocity": 0, "duration": 95}, {"note": 71, "velocity": 87, "duration": 135}, {"note": 0, "velocity": 0, "duration": 105}, {"note": 71, "velocity": 83, "duration": 134}, {"note": 0, "velocity": 0, "duration": 106}, {"note": 71, "velocity": 86, "duration": 109}, {"note": 0, "velocity": 0, "duration": 131}, {"note": 72, "velocity": 83, "duration": 118}, {"note": 0, "velocity": 0, "duration": 122}, {"note": 74, "velocity": 112, "duration": 340}, {"note": 0, "velocity": 0, "duration": 140}, {"note": 72, "velocity": 100, "duration": 92}, {"note": 0, "velocity": 0, "duration": 148}, {"note": 72, "velocity": 100, "duration": 1246}, {"note": 0, "velocity": 0, "duration": 194}, {"note": 69, "velocity": 87, "duration": 107}, {"note": 0, "velocity": 0, "duration": 133}, {"note": 69, "velocity": 76, "duration": 120}, {"note": 0, "velocity": 0, "duration": 120}, {"note": 71, "velocity": 86, "duration": 143}, {"note": 0, "velocity": 0, "duration": 97}, {"note": 69, "velocity": 85, "duration": 195}, {"note": 67, "velocity": 74, "duration": 94}, {"note": 0, "velocity": 0, "duration": 146}, {"note": 64, "velocity": 66, "duration": 116}, {"note": 0, "velocity": 0, "duration": 124}, {"note": 67, "velocity": 81, "duration": 115}, {"note": 0, "velocity": 0, "duration": 125}, {"note": 76, "velocity": 117, "duration": 164}, {"note": 0, "velocity": 0, "duration": 76}, {"note": 76, "velocity": 112, "duration": 161}, {"note": 0, "velocity": 0, "duration": 79}, {"note": 76, "velocity": 120, "duration": 165}, {"note": 0, "velocity": 0, "duration": 75}, {"note": 74, "velocity": 93, "duration": 95}, {"note": 0, "velocity": 0, "duration": 145}, {"note": 74, "velocity": 112, "duration": 935}, {"note": 0, "velocity": 0, "duration": 265}, {"note": 69, "velocity": 112, "duration": 245}, {"note": 67, "velocity": 75, "duration": 262}, {"note": 69, "velocity": 90, "duration": 188}, {"note": 71, "velocity": 86, "duration": 333}, {"note": 0, "velocity": 0, "duration": 147}, {"note": 69, "velocity": 98, "duration": 246}, {"note": 67, "velocity": 65, "duration": 212}, {"note": 69, "velocity": 77, "duration": 183}, {"note": 67, "velocity": 70, "duration": 121}, {"note": 0, "velocity": 0, "duration": 119}, {"note": 67, "velocity": 74, "duration": 210}, {"note": 64, "velocity": 76, "duration": 207}, {"note": 69, "velocity": 87, "duration": 738}, {"note": 0, "velocity": 0, "duration": 462}, {"note": 69, "velocity": 72, "duration": 165}, {"note": 0, "velocity": 0, "duration": 75}, {"note": 67, "velocity": 87, "duration": 129}, {"note": 0, "velocity": 0, "duration": 111}, {"note": 69, "velocity": 98, "duration": 126}, {"note": 0, "velocity": 0, "duration": 114}, {"note": 71, "velocity": 85, "duration": 351}, {"note": 0, "velocity": 0, "duration": 129}, {"note": 69, "velocity": 95, "duration": 154}, {"note": 0, "velocity": 0, "duration": 86}, {"note": 67, "velocity": 79, "duration": 164}, {"note": 0, "velocity": 0, "duration": 76}, {"note": 71, "velocity": 77, "duration": 171}, {"note": 0, "velocity": 0, "duration": 69}, {"note": 72, "velocity": 83, "duration": 109}, {"note": 0, "velocity": 0, "duration": 131}, {"note": 74, "velocity": 104, "duration": 152}, {"note": 0, "velocity": 0, "duration": 88}, {"note": 71, "velocity": 83, "duration": 144}, {"note": 0, "velocity": 0, "duration": 96}, {"note": 74, "velocity": 117, "duration": 313}, {"note": 0, "velocity": 0, "duration": 887}, {"note": 74, "velocity": 86, "duration": 138}, {"note": 0, "velocity": 0, "duration": 102}, {"note": 74, "velocity": 112, "duration": 106}, {"note": 0, "velocity": 0, "duration": 134}, {"note": 74, "velocity": 114, "duration": 145}, {"note": 0, "velocity": 0, "duration": 95}, {"note": 76, "velocity": 112, "duration": 372}, {"note": 0, "velocity": 0, "duration": 108}, {"note": 71, "velocity": 86, "duration": 239}, {"note": 72, "velocity": 90, "duration": 229}, {"note": 74, "velocity": 111, "duration": 208}, {"note": 0, "velocity": 0, "duration": 272}, {"note": 72, "velocity": 95, "duration": 77}, {"note": 0, "velocity": 0, "duration": 163}, {"note": 72, "velocity": 104, "duration": 1262}, {"note": 0, "velocity": 0, "duration": 178}, {"note": 69, "velocity": 86, "duration": 89}, {"note": 0, "velocity": 0, "duration": 151}, {"note": 69, "velocity": 86, "duration": 105}, {"note": 0, "velocity": 0, "duration": 135}, {"note": 67, "velocity": 75, "duration": 141}, {"note": 0, "velocity": 0, "duration": 99}, {"note": 71, "velocity": 104, "duration": 290}, {"note": 69, "velocity": 76, "duration": 170}, {"note": 0, "velocity": 0, "duration": 70}, {"note": 67, "velocity": 72, "duration": 243}, {"note": 64, "velocity": 65, "duration": 278}, {"note": 69, "velocity": 77, "duration": 107}, {"note": 0, "velocity": 0, "duration": 133}, {"note": 67, "velocity": 75, "duration": 73}, {"note": 0, "velocity": 0, "duration": 167}, {"note": 69, "velocity": 76, "duration": 92}, {"note": 0, "velocity": 0, "duration": 148}, {"note": 67, "velocity": 66, "duration": 2676}, {"note": 0, "velocity": 0, "duration": 684}, {"note": 74, "velocity": 112, "duration": 115}, {"note": 0, "velocity": 0, "duration": 125}, {"note": 74, "velocity": 108, "duration": 99}, {"note": 0, "velocity": 0, "duration": 141}, {"note": 74, "velocity": 95, "duration": 93}, {"note": 0, "velocity": 0, "duration": 147}, {"note": 76, "velocity": 111, "duration": 206}, {"note": 0, "velocity": 0, "duration": 154}, {"note": 78, "velocity": 90, "duration": 67}, {"note": 76, "velocity": 100, "duration": 114}, {"note": 0, "velocity": 0, "duration": 126}, {"note": 74, "velocity": 104, "duration": 139}, {"note": 0, "velocity": 0, "duration": 101}, {"note": 71, "velocity": 93, "duration": 183}, {"note": 71, "velocity": 85, "duration": 103}, {"note": 0, "velocity": 0, "duration": 137}, {"note": 71, "velocity": 90, "duration": 111}, {"note": 0, "velocity": 0, "duration": 129}, {"note": 69, "velocity": 79, "duration": 118}, {"note": 0, "velocity": 0, "duration": 122}, {"note": 69, "velocity": 87, "duration": 928}, {"note": 0, "velocity": 0, "duration": 272}, {"note": 74, "velocity": 120, "duration": 102}, {"note": 0, "velocity": 0, "duration": 138}, {"note": 74, "velocity": 114, "duration": 113}, {"note": 0, "velocity": 0, "duration": 127}, {"note": 74, "velocity": 112, "duration": 100}, {"note": 0, "velocity": 0, "duration": 140}, {"note": 71, "velocity": 100, "duration": 214}, {"note": 69, "velocity": 83, "duration": 87}, {"note": 0, "velocity": 0, "duration": 153}, {"note": 69, "velocity": 95, "duration": 126}, {"note": 0, "velocity": 0, "duration": 114}, {"note": 67, "velocity": 86, "duration": 151}, {"note": 0, "velocity": 0, "duration": 89}, {"note": 69, "velocity": 100, "duration": 193}, {"note": 67, "velocity": 69, "duration": 110}, {"note": 0, "velocity": 0, "duration": 130}, {"note": 69, "velocity": 79, "duration": 123}, {"note": 0, "velocity": 0, "duration": 117}, {"note": 71, "velocity": 81, "duration": 130}, {"note": 0, "velocity": 0, "duration": 110}, {"note": 71, "velocity": 95, "duration": 955}, {"note": 0, "velocity": 0, "duration": 245}, {"note": 66, "velocity": 95, "duration": 180}, {"note": 67, "velocity": 85, "duration": 114}, {"note": 0, "velocity": 0, "duration": 126}, {"note": 69, "velocity": 90, "duration": 98}, {"note": 0, "velocity": 0, "duration": 142}, {"note": 71, "velocity": 93, "duration": 261}, {"note": 69, "velocity": 81, "duration": 130}, {"note": 0, "velocity": 0, "duration": 110}, {"note": 71, "velocity": 83, "duration": 139}, {"note": 0, "velocity": 0, "duration": 101}, {"note": 74, "velocity": 75, "duration": 187}, {"note": 71, "velocity": 77, "duration": 245}, {"note": 69, "velocity": 76, "duration": 115}, {"note": 0, "velocity": 0, "duration": 125}, {"note": 67, "velocity": 71, "duration": 181}, {"note": 69, "velocity": 76, "duration": 215}, {"note": 64, "velocity": 64, "duration": 307}, {"note": 0, "velocity": 0, "duration": 893}, {"note": 67, "velocity": 100, "duration": 101}, {"note": 0, "velocity": 0, "duration": 139}, {"note": 67, "velocity": 90, "duration": 128}, {"note": 0, "velocity": 0, "duration": 112}, {"note": 69, "velocity": 87, "duration": 159}, {"note": 0, "velocity": 0, "duration": 81}, {"note": 71, "velocity": 111, "duration": 187}, {"note": 69, "velocity": 77, "duration": 109}, {"note": 0, "velocity": 0, "duration": 131}, {"note": 71, "velocity": 98, "duration": 128}, {"note": 0, "velocity": 0, "duration": 112}, {"note": 74, "velocity": 111, "duration": 167}, {"note": 0, "velocity": 0, "duration": 73}, {"note": 76, "velocity": 86, "duration": 181}, {"note": 74, "velocity": 86, "duration": 141}, {"note": 0, "velocity": 0, "duration": 99}, {"note": 74, "velocity": 104, "duration": 215}, {"note": 71, "velocity": 83, "duration": 132}, {"note": 0, "velocity": 0, "duration": 108}, {"note": 71, "velocity": 104, "duration": 114}, {"note": 0, "velocity": 0, "duration": 126}, {"note": 71, "velocity": 100, "duration": 125}, {"note": 0, "velocity": 0, "duration": 115}, {"note": 71, "velocity": 111, "duration": 89}, {"note": 0, "velocity": 0, "duration": 151}, {"note": 69, "velocity": 95, "duration": 300}, {"note": 0, "velocity": 0, "duration": 180}, {"note": 74, "velocity": 112, "duration": 115}, {"note": 0, "velocity": 0, "duration": 125}, {"note": 74, "velocity": 108, "duration": 99}, {"note": 0, "velocity": 0, "duration": 141}, {"note": 74, "velocity": 95, "duration": 93}, {"note": 0, "velocity": 0, "duration": 147}, {"note": 76, "velocity": 111, "duration": 206}, {"note": 0, "velocity": 0, "duration": 154}, {"note": 78, "velocity": 90, "duration": 67}, {"note": 76, "velocity": 100, "duration": 114}, {"note": 0, "velocity": 0, "duration": 126}, {"note": 74, "velocity": 104, "duration": 139}, {"note": 0, "velocity": 0, "duration": 101}, {"note": 71, "velocity": 93, "duration": 183}, {"note": 71, "velocity": 85, "duration": 103}, {"note": 0, "velocity": 0, "duration": 137}, {"note": 71, "velocity": 90, "duration": 111}, {"note": 0, "velocity": 0, "duration": 129}, {"note": 69, "velocity": 79, "duration": 118}, {"note": 0, "velocity": 0, "duration": 122}, {"note": 69, "velocity": 87, "duration": 928}, {"note": 0, "velocity": 0, "duration": 272}, {"note": 74, "velocity": 120, "duration": 102}, {"note": 0, "velocity": 0, "duration": 138}, {"note": 74, "velocity": 114, "duration": 113}, {"note": 0, "velocity": 0, "duration": 127}, {"note": 74, "velocity": 112, "duration": 100}, {"note": 0, "velocity": 0, "duration": 140}, {"note": 71, "velocity": 100, "duration": 214}, {"note": 69, "velocity": 83, "duration": 87}, {"note": 0, "velocity": 0, "duration": 153}, {"note": 69, "velocity": 95, "duration": 126}, {"note": 0, "velocity": 0, "duration": 114}, {"note": 67, "velocity": 86, "duration": 151}, {"note": 0, "velocity": 0, "duration": 89}, {"note": 69, "velocity": 100, "duration": 193}, {"note": 67, "velocity": 69, "duration": 110}, {"note": 0, "velocity": 0, "duration": 130}, {"note": 69, "velocity": 79, "duration": 123}, {"note": 0, "velocity": 0, "duration": 117}, {"note": 71, "velocity": 81, "duration": 130}, {"note": 0, "velocity": 0, "duration": 110}, {"note": 71, "velocity": 95, "duration": 955}, {"note": 0, "velocity": 0, "duration": 245}, {"note": 66, "velocity": 95, "duration": 180}, {"note": 67, "velocity": 85, "duration": 114}, {"note": 0, "velocity": 0, "duration": 126}, {"note": 69, "velocity": 90, "duration": 98}, {"note": 0, "velocity": 0, "duration": 142}, {"note": 71, "velocity": 93, "duration": 261}, {"note": 69, "velocity": 81, "duration": 130}, {"note": 0, "velocity": 0, "duration": 110}, {"note": 71, "velocity": 83, "duration": 139}, {"note": 0, "velocity": 0, "duration": 101}, {"note": 74, "velocity": 75, "duration": 187}, {"note": 76, "velocity": 98, "duration": 173}, {"note": 0, "velocity": 0, "duration": 67}, {"note": 74, "velocity": 83, "duration": 135}, {"note": 0, "velocity": 0, "duration": 105}, {"note": 74, "velocity": 111, "duration": 128}, {"note": 0, "velocity": 0, "duration": 112}, {"note": 71, "velocity": 77, "duration": 122}, {"note": 0, "velocity": 0, "duration": 118}, {"note": 74, "velocity": 104, "duration": 972}, {"note": 0, "velocity": 0, "duration": 228}, {"note": 76, "velocity": 87, "duration": 140}, {"note": 0, "velocity": 0, "duration": 100}, {"note": 76, "velocity": 90, "duration": 135}, {"note": 0, "velocity": 0, "duration": 105}, {"note": 74, "velocity": 111, "duration": 139}, {"note": 0, "velocity": 0, "duration": 101}, {"note": 71, "velocity": 85, "duration": 214}, {"note": 0, "velocity": 0, "duration": 146}, {"note": 74, "velocity": 108, "duration": 88}, {"note": 71, "velocity": 86, "duration": 118}, {"note": 0, "velocity": 0, "duration": 122}, {"note": 69, "velocity": 93, "duration": 280}, {"note": 0, "velocity": 0, "duration": 200}, {"note": 69, "velocity": 104, "duration": 114}, {"note": 0, "velocity": 0, "duration": 126}, {"note": 69, "velocity": 104, "duration": 145}, {"note": 0, "velocity": 0, "duration": 95}, {"note": 67, "velocity": 81, "duration": 91}, {"note": 0, "velocity": 0, "duration": 149}, {"note": 71, "velocity": 93, "duration": 133}, {"note": 0, "velocity": 0, "duration": 107}, {"note": 69, "velocity": 104, "duration": 123}, {"note": 0, "velocity": 0, "duration": 117}, {"note": 67, "velocity": 86, "duration": 129}, {"note": 0, "velocity": 0, "duration": 111}, {"note": 64, "velocity": 79, "duration": 118}, {"note": 0, "velocity": 0, "duration": 122}, {"note": 67, "velocity": 93, "duration": 2132}, {"note": 0, "velocity": 0, "duration": 13468}, {"note": 71, "velocity": 95, "duration": 95}, {"note": 0, "velocity": 0, "duration": 145}, {"note": 71, "velocity": 95, "duration": 93}, {"note": 0, "velocity": 0, "duration": 147}, {"note": 71, "velocity": 93, "duration": 80}, {"note": 0, "velocity": 0, "duration": 160}, {"note": 71, "velocity": 86, "duration": 333}, {"note": 0, "velocity": 0, "duration": 147}, {"note": 69, "velocity": 98, "duration": 246}, {"note": 67, "velocity": 65, "duration": 212}, {"note": 69, "velocity": 77, "duration": 183}, {"note": 71, "velocity": 100, "duration": 236}, {"note": 69, "velocity": 74, "duration": 210}, {"note": 67, "velocity": 76, "duration": 207}, {"note": 69, "velocity": 87, "duration": 738}, {"note": 0, "velocity": 0, "duration": 462}, {"note": 69, "velocity": 72, "duration": 165}, {"note": 0, "velocity": 0, "duration": 75}, {"note": 67, "velocity": 87, "duration": 129}, {"note": 0, "velocity": 0, "duration": 111}, {"note": 69, "velocity": 98, "duration": 126}, {"note": 0, "velocity": 0, "duration": 114}, {"note": 71, "velocity": 85, "duration": 351}, {"note": 0, "velocity": 0, "duration": 129}, {"note": 67, "velocity": 79, "duration": 164}, {"note": 0, "velocity": 0, "duration": 76}, {"note": 69, "velocity": 95, "duration": 154}, {"note": 0, "velocity": 0, "duration": 86}, {"note": 71, "velocity": 77, "duration": 171}, {"note": 0, "velocity": 0, "duration": 69}, {"note": 72, "velocity": 83, "duration": 109}, {"note": 0, "velocity": 0, "duration": 131}, {"note": 74, "velocity": 104, "duration": 152}, {"note": 0, "velocity": 0, "duration": 88}, {"note": 71, "velocity": 83, "duration": 144}, {"note": 0, "velocity": 0, "duration": 96}, {"note": 74, "velocity": 117, "duration": 313}, {"note": 0, "velocity": 0, "duration": 887}, {"note": 74, "velocity": 86, "duration": 138}, {"note": 0, "velocity": 0, "duration": 102}, {"note": 74, "velocity": 112, "duration": 106}, {"note": 0, "velocity": 0, "duration": 134}, {"note": 74, "velocity": 114, "duration": 145}, {"note": 0, "velocity": 0, "duration": 95}, {"note": 76, "velocity": 112, "duration": 372}, {"note": 0, "velocity": 0, "duration": 108}, {"note": 71, "velocity": 86, "duration": 239}, {"note": 72, "velocity": 90, "duration": 229}, {"note": 74, "velocity": 111, "duration": 208}, {"note": 0, "velocity": 0, "duration": 272}, {"note": 76, "velocity": 95, "duration": 77}, {"note": 0, "velocity": 0, "duration": 163}, {"note": 72, "velocity": 104, "duration": 1262}, {"note": 0, "velocity": 0, "duration": 178}, {"note": 69, "velocity": 86, "duration": 89}, {"note": 0, "velocity": 0, "duration": 151}, {"note": 69, "velocity": 86, "duration": 105}, {"note": 0, "velocity": 0, "duration": 135}, {"note": 67, "velocity": 75, "duration": 141}, {"note": 0, "velocity": 0, "duration": 99}, {"note": 71, "velocity": 104, "duration": 290}, {"note": 69, "velocity": 76, "duration": 170}, {"note": 0, "velocity": 0, "duration": 70}, {"note": 67, "velocity": 72, "duration": 243}, {"note": 64, "velocity": 65, "duration": 278}, {"note": 69, "velocity": 77, "duration": 107}, {"note": 0, "velocity": 0, "duration": 133}, {"note": 67, "velocity": 75, "duration": 73}, {"note": 0, "velocity": 0, "duration": 167}, {"note": 69, "velocity": 76, "duration": 92}, {"note": 0, "velocity": 0, "duration": 148}, {"note": 67, "velocity": 66, "duration": 2676}, {"note": 0, "velocity": 0, "duration": 684}, {"note": 74, "velocity": 112, "duration": 115}, {"note": 0, "velocity": 0, "duration": 125}, {"note": 74, "velocity": 108, "duration": 99}, {"note": 0, "velocity": 0, "duration": 141}, {"note": 74, "velocity": 95, "duration": 93}, {"note": 0, "velocity": 0, "duration": 147}, {"note": 76, "velocity": 111, "duration": 206}, {"note": 0, "velocity": 0, "duration": 154}, {"note": 78, "velocity": 90, "duration": 67}, {"note": 76, "velocity": 100, "duration": 114}, {"note": 0, "velocity": 0, "duration": 126}, {"note": 74, "velocity": 104, "duration": 139}, {"note": 0, "velocity": 0, "duration": 101}, {"note": 71, "velocity": 93, "duration": 183}, {"note": 71, "velocity": 85, "duration": 103}, {"note": 0, "velocity": 0, "duration": 137}, {"note": 71, "velocity": 90, "duration": 111}, {"note": 0, "velocity": 0, "duration": 129}, {"note": 69, "velocity": 79, "duration": 118}, {"note": 0, "velocity": 0, "duration": 122}, {"note": 69, "velocity": 87, "duration": 928}, {"note": 0, "velocity": 0, "duration": 272}, {"note": 74, "velocity": 120, "duration": 102}, {"note": 0, "velocity": 0, "duration": 138}, {"note": 74, "velocity": 114, "duration": 113}, {"note": 0, "velocity": 0, "duration": 127}, {"note": 74, "velocity": 112, "duration": 100}, {"note": 0, "velocity": 0, "duration": 140}, {"note": 71, "velocity": 100, "duration": 214}, {"note": 69, "velocity": 83, "duration": 87}, {"note": 0, "velocity": 0, "duration": 153}, {"note": 69, "velocity": 95, "duration": 126}, {"note": 0, "velocity": 0, "duration": 114}, {"note": 67, "velocity": 86, "duration": 151}, {"note": 0, "velocity": 0, "duration": 89}, {"note": 69, "velocity": 100, "duration": 193}, {"note": 67, "velocity": 69, "duration": 110}, {"note": 0, "velocity": 0, "duration": 130}, {"note": 69, "velocity": 79, "duration": 123}, {"note": 0, "velocity": 0, "duration": 117}, {"note": 71, "velocity": 81, "duration": 130}, {"note": 0, "velocity": 0, "duration": 110}, {"note": 71, "velocity": 95, "duration": 955}, {"note": 0, "velocity": 0, "duration": 245}, {"note": 66, "velocity": 95, "duration": 180}, {"note": 67, "velocity": 85, "duration": 114}, {"note": 0, "velocity": 0, "duration": 126}, {"note": 69, "velocity": 90, "duration": 98}, {"note": 0, "velocity": 0, "duration": 142}, {"note": 71, "velocity": 93, "duration": 261}, {"note": 69, "velocity": 81, "duration": 130}, {"note": 0, "velocity": 0, "duration": 110}, {"note": 71, "velocity": 83, "duration": 139}, {"note": 0, "velocity": 0, "duration": 101}, {"note": 74, "velocity": 75, "duration": 187}, {"note": 71, "velocity": 77, "duration": 245}, {"note": 69, "velocity": 76, "duration": 115}, {"note": 0, "velocity": 0, "duration": 125}, {"note": 67, "velocity": 71, "duration": 181}, {"note": 69, "velocity": 76, "duration": 215}, {"note": 64, "velocity": 64, "duration": 307}, {"note": 0, "velocity": 0, "duration": 893}, {"note": 67, "velocity": 100, "duration": 101}, {"note": 0, "velocity": 0, "duration": 139}, {"note": 67, "velocity": 90, "duration": 128}, {"note": 0, "velocity": 0, "duration": 112}, {"note": 69, "velocity": 87, "duration": 159}, {"note": 0, "velocity": 0, "duration": 81}, {"note": 71, "velocity": 111, "duration": 187}, {"note": 69, "velocity": 77, "duration": 109}, {"note": 0, "velocity": 0, "duration": 131}, {"note": 71, "velocity": 98, "duration": 128}, {"note": 0, "velocity": 0, "duration": 112}, {"note": 74, "velocity": 111, "duration": 167}, {"note": 0, "velocity": 0, "duration": 73}, {"note": 76, "velocity": 86, "duration": 181}, {"note": 74, "velocity": 86, "duration": 141}, {"note": 0, "velocity": 0, "duration": 99}, {"note": 74, "velocity": 104, "duration": 215}, {"note": 71, "velocity": 83, "duration": 132}, {"note": 0, "velocity": 0, "duration": 108}, {"note": 71, "velocity": 104, "duration": 114}, {"note": 0, "velocity": 0, "duration": 126}, {"note": 71, "velocity": 100, "duration": 125}, {"note": 0, "velocity": 0, "duration": 115}, {"note": 71, "velocity": 111, "duration": 89}, {"note": 0, "velocity": 0, "duration": 151}, {"note": 69, "velocity": 95, "duration": 300}, {"note": 0, "velocity": 0, "duration": 180}, {"note": 74, "velocity": 112, "duration": 115}, {"note": 0, "velocity": 0, "duration": 125}, {"note": 74, "velocity": 108, "duration": 99}, {"note": 0, "velocity": 0, "duration": 141}, {"note": 74, "velocity": 95, "duration": 93}, {"note": 0, "velocity": 0, "duration": 147}, {"note": 76, "velocity": 111, "duration": 206}, {"note": 0, "velocity": 0, "duration": 154}, {"note": 78, "velocity": 90, "duration": 67}, {"note": 76, "velocity": 100, "duration": 114}, {"note": 0, "velocity": 0, "duration": 126}, {"note": 74, "velocity": 104, "duration": 139}, {"note": 0, "velocity": 0, "duration": 101}, {"note": 71, "velocity": 93, "duration": 183}, {"note": 71, "velocity": 85, "duration": 103}, {"note": 0, "velocity": 0, "duration": 137}, {"note": 71, "velocity": 90, "duration": 111}, {"note": 0, "velocity": 0, "duration": 129}, {"note": 69, "velocity": 79, "duration": 118}, {"note": 0, "velocity": 0, "duration": 122}, {"note": 69, "velocity": 87, "duration": 928}, {"note": 0, "velocity": 0, "duration": 272}, {"note": 74, "velocity": 120, "duration": 102}, {"note": 0, "velocity": 0, "duration": 138}, {"note": 74, "velocity": 114, "duration": 113}, {"note": 0, "velocity": 0, "duration": 127}, {"note": 74, "velocity": 112, "duration": 100}, {"note": 0, "velocity": 0, "duration": 140}, {"note": 71, "velocity": 100, "duration": 214}, {"note": 69, "velocity": 83, "duration": 87}, {"note": 0, "velocity": 0, "duration": 153}, {"note": 69, "velocity": 95, "duration": 126}, {"note": 0, "velocity": 0, "duration": 114}, {"note": 67, "velocity": 86, "duration": 151}, {"note": 0, "velocity": 0, "duration": 89}, {"note": 69, "velocity": 100, "duration": 193}, {"note": 67, "velocity": 69, "duration": 110}, {"note": 0, "velocity": 0, "duration": 130}, {"note": 69, "velocity": 79, "duration": 123}, {"note": 0, "velocity": 0, "duration": 117}, {"note": 71, "velocity": 81, "duration": 130}, {"note": 0, "velocity": 0, "duration": 110}, {"note": 71, "velocity": 95, "duration": 955}, {"note": 0, "velocity": 0, "duration": 245}, {"note": 66, "velocity": 95, "duration": 180}, {"note": 67, "velocity": 85, "duration": 114}, {"note": 0, "velocity": 0, "duration": 126}, {"note": 69, "velocity": 90, "duration": 98}, {"note": 0, "velocity": 0, "duration": 142}, {"note": 71, "velocity": 93, "duration": 261}, {"note": 69, "velocity": 81, "duration": 130}, {"note": 0, "velocity": 0, "duration": 110}, {"note": 71, "velocity": 83, "duration": 139}, {"note": 0, "velocity": 0, "duration": 101}, {"note": 74, "velocity": 75, "duration": 187}, {"note": 76, "velocity": 98, "duration": 173}, {"note": 0, "velocity": 0, "duration": 67}, {"note": 74, "velocity": 83, "duration": 135}, {"note": 0, "velocity": 0, "duration": 105}, {"note": 74, "velocity": 111, "duration": 128}, {"note": 0, "velocity": 0, "duration": 112}, {"note": 71, "velocity": 77, "duration": 122}, {"note": 0, "velocity": 0, "duration": 118}, {"note": 74, "velocity": 104, "duration": 972}, {"note": 0, "velocity": 0, "duration": 228}, {"note": 76, "velocity": 87, "duration": 140}, {"note": 0, "velocity": 0, "duration": 100}, {"note": 76, "velocity": 90, "duration": 135}, {"note": 0, "velocity": 0, "duration": 105}, {"note": 74, "velocity": 111, "duration": 139}, {"note": 0, "velocity": 0, "duration": 101}, {"note": 71, "velocity": 85, "duration": 214}, {"note": 0, "velocity": 0, "duration": 146}, {"note": 74, "velocity": 108, "duration": 88}, {"note": 71, "velocity": 86, "duration": 118}, {"note": 0, "velocity": 0, "duration": 122}, {"note": 69, "velocity": 93, "duration": 280}, {"note": 0, "velocity": 0, "duration": 200}, {"note": 69, "velocity": 104, "duration": 114}, {"note": 0, "velocity": 0, "duration": 126}, {"note": 69, "velocity": 104, "duration": 145}, {"note": 0, "velocity": 0, "duration": 95}, {"note": 67, "velocity": 81, "duration": 91}, {"note": 0, "velocity": 0, "duration": 149}, {"note": 71, "velocity": 93, "duration": 133}, {"note": 0, "velocity": 0, "duration": 107}, {"note": 69, "velocity": 104, "duration": 123}, {"note": 0, "velocity": 0, "duration": 117}, {"note": 67, "velocity": 86, "duration": 129}, {"note": 0, "velocity": 0, "duration": 111}, {"note": 64, "velocity": 79, "duration": 118}, {"note": 0, "velocity": 0, "duration": 362}, {"note": 75, "velocity": 112, "duration": 115}, {"note": 0, "velocity": 0, "duration": 125}, {"note": 75, "velocity": 108, "duration": 99}, {"note": 0, "velocity": 0, "duration": 141}, {"note": 75, "velocity": 95, "duration": 93}, {"note": 0, "velocity": 0, "duration": 147}, {"note": 77, "velocity": 111, "duration": 206}, {"note": 0, "velocity": 0, "duration": 154}, {"note": 79, "velocity": 90, "duration": 67}, {"note": 77, "velocity": 100, "duration": 114}, {"note": 0, "velocity": 0, "duration": 126}, {"note": 75, "velocity": 104, "duration": 139}, {"note": 0, "velocity": 0, "duration": 101}, {"note": 72, "velocity": 93, "duration": 183}, {"note": 72, "velocity": 85, "duration": 103}, {"note": 0, "velocity": 0, "duration": 137}, {"note": 72, "velocity": 90, "duration": 111}, {"note": 0, "velocity": 0, "duration": 129}, {"note": 70, "velocity": 79, "duration": 118}, {"note": 0, "velocity": 0, "duration": 122}, {"note": 70, "velocity": 87, "duration": 928}, {"note": 0, "velocity": 0, "duration": 272}, {"note": 75, "velocity": 120, "duration": 102}, {"note": 0, "velocity": 0, "duration": 138}, {"note": 75, "velocity": 114, "duration": 113}, {"note": 0, "velocity": 0, "duration": 127}, {"note": 75, "velocity": 112, "duration": 100}, {"note": 0, "velocity": 0, "duration": 140}, {"note": 72, "velocity": 100, "duration": 214}, {"note": 70, "velocity": 83, "duration": 87}, {"note": 0, "velocity": 0, "duration": 153}, {"note": 70, "velocity": 95, "duration": 126}, {"note": 0, "velocity": 0, "duration": 114}, {"note": 68, "velocity": 86, "duration": 151}, {"note": 0, "velocity": 0, "duration": 89}, {"note": 70, "velocity": 100, "duration": 193}, {"note": 68, "velocity": 69, "duration": 110}, {"note": 0, "velocity": 0, "duration": 130}, {"note": 70, "velocity": 79, "duration": 123}, {"note": 0, "velocity": 0, "duration": 117}, {"note": 72, "velocity": 81, "duration": 130}, {"note": 0, "velocity": 0, "duration": 110}, {"note": 72, "velocity": 95, "duration": 955}, {"note": 0, "velocity": 0, "duration": 245}, {"note": 67, "velocity": 95, "duration": 180}, {"note": 68, "velocity": 85, "duration": 114}, {"note": 0, "velocity": 0, "duration": 126}, {"note": 70, "velocity": 90, "duration": 98}, {"note": 0, "velocity": 0, "duration": 142}, {"note": 72, "velocity": 93, "duration": 261}, {"note": 70, "velocity": 81, "duration": 130}, {"note": 0, "velocity": 0, "duration": 110}, {"note": 72, "velocity": 83, "duration": 139}, {"note": 0, "velocity": 0, "duration": 101}, {"note": 75, "velocity": 75, "duration": 187}, {"note": 72, "velocity": 77, "duration": 245}, {"note": 70, "velocity": 76, "duration": 115}, {"note": 0, "velocity": 0, "duration": 125}, {"note": 68, "velocity": 71, "duration": 181}, {"note": 70, "velocity": 76, "duration": 215}, {"note": 65, "velocity": 64, "duration": 307}, {"note": 0, "velocity": 0, "duration": 893}, {"note": 68, "velocity": 100, "duration": 101}, {"note": 0, "velocity": 0, "duration": 139}, {"note": 68, "velocity": 90, "duration": 128}, {"note": 0, "velocity": 0, "duration": 112}, {"note": 70, "velocity": 87, "duration": 159}, {"note": 0, "velocity": 0, "duration": 81}, {"note": 72, "velocity": 111, "duration": 187}, {"note": 70, "velocity": 77, "duration": 109}, {"note": 0, "velocity": 0, "duration": 131}, {"note": 72, "velocity": 98, "duration": 128}, {"note": 0, "velocity": 0, "duration": 112}, {"note": 75, "velocity": 111, "duration": 167}, {"note": 0, "velocity": 0, "duration": 73}, {"note": 77, "velocity": 86, "duration": 181}, {"note": 75, "velocity": 86, "duration": 141}, {"note": 0, "velocity": 0, "duration": 99}, {"note": 75, "velocity": 104, "duration": 215}, {"note": 72, "velocity": 83, "duration": 132}, {"note": 0, "velocity": 0, "duration": 108}, {"note": 72, "velocity": 104, "duration": 114}, {"note": 0, "velocity": 0, "duration": 126}, {"note": 72, "velocity": 100, "duration": 125}, {"note": 0, "velocity": 0, "duration": 115}, {"note": 72, "velocity": 111, "duration": 89}, {"note": 0, "velocity": 0, "duration": 151}, {"note": 70, "velocity": 95, "duration": 300}, {"note": 0, "velocity": 0, "duration": 180}, {"note": 75, "velocity": 112, "duration": 115}, {"note": 0, "velocity": 0, "duration": 125}, {"note": 75, "velocity": 108, "duration": 99}, {"note": 0, "velocity": 0, "duration": 141}, {"note": 75, "velocity": 95, "duration": 93}, {"note": 0, "velocity": 0, "duration": 147}, {"note": 77, "velocity": 111, "duration": 206}, {"note": 0, "velocity": 0, "duration": 154}, {"note": 79, "velocity": 90, "duration": 67}, {"note": 77, "velocity": 100, "duration": 114}, {"note": 0, "velocity": 0, "duration": 126}, {"note": 75, "velocity": 104, "duration": 139}, {"note": 0, "velocity": 0, "duration": 101}, {"note": 72, "velocity": 93, "duration": 183}, {"note": 72, "velocity": 85, "duration": 103}, {"note": 0, "velocity": 0, "duration": 137}, {"note": 72, "velocity": 90, "duration": 111}, {"note": 0, "velocity": 0, "duration": 129}, {"note": 70, "velocity": 79, "duration": 118}, {"note": 0, "velocity": 0, "duration": 122}, {"note": 70, "velocity": 87, "duration": 928}, {"note": 0, "velocity": 0, "duration": 272}, {"note": 75, "velocity": 120, "duration": 102}, {"note": 0, "velocity": 0, "duration": 138}, {"note": 75, "velocity": 114, "duration": 113}, {"note": 0, "velocity": 0, "duration": 127}, {"note": 75, "velocity": 112, "duration": 100}, {"note": 0, "velocity": 0, "duration": 140}, {"note": 72, "velocity": 100, "duration": 214}, {"note": 70, "velocity": 83, "duration": 87}, {"note": 0, "velocity": 0, "duration": 153}, {"note": 70, "velocity": 95, "duration": 126}, {"note": 0, "velocity": 0, "duration": 114}, {"note": 68, "velocity": 86, "duration": 151}, {"note": 0, "velocity": 0, "duration": 89}, {"note": 70, "velocity": 100, "duration": 193}, {"note": 68, "velocity": 69, "duration": 110}, {"note": 0, "velocity": 0, "duration": 130}, {"note": 70, "velocity": 79, "duration": 123}, {"note": 0, "velocity": 0, "duration": 117}, {"note": 72, "velocity": 81, "duration": 130}, {"note": 0, "velocity": 0, "duration": 110}, {"note": 72, "velocity": 95, "duration": 955}, {"note": 0, "velocity": 0, "duration": 245}, {"note": 67, "velocity": 95, "duration": 180}, {"note": 68, "velocity": 85, "duration": 114}, {"note": 0, "velocity": 0, "duration": 126}, {"note": 70, "velocity": 90, "duration": 98}, {"note": 0, "velocity": 0, "duration": 142}, {"note": 72, "velocity": 93, "duration": 261}, {"note": 70, "velocity": 81, "duration": 130}, {"note": 0, "velocity": 0, "duration": 110}, {"note": 72, "velocity": 83, "duration": 139}, {"note": 0, "velocity": 0, "duration": 101}, {"note": 75, "velocity": 75, "duration": 187}, {"note": 77, "velocity": 98, "duration": 173}, {"note": 0, "velocity": 0, "duration": 67}, {"note": 75, "velocity": 83, "duration": 135}, {"note": 0, "velocity": 0, "duration": 105}, {"note": 75, "velocity": 111, "duration": 128}, {"note": 0, "velocity": 0, "duration": 112}, {"note": 72, "velocity": 77, "duration": 122}, {"note": 0, "velocity": 0, "duration": 118}, {"note": 75, "velocity": 104, "duration": 972}, {"note": 0, "velocity": 0, "duration": 228}, {"note": 77, "velocity": 87, "duration": 140}, {"note": 0, "velocity": 0, "duration": 100}, {"note": 77, "velocity": 90, "duration": 135}, {"note": 0, "velocity": 0, "duration": 105}, {"note": 75, "velocity": 111, "duration": 139}, {"note": 0, "velocity": 0, "duration": 101}, {"note": 72, "velocity": 85, "duration": 214}, {"note": 0, "velocity": 0, "duration": 146}, {"note": 75, "velocity": 108, "duration": 88}, {"note": 72, "velocity": 86, "duration": 118}, {"note": 0, "velocity": 0, "duration": 122}, {"note": 70, "velocity": 93, "duration": 280}, {"note": 0, "velocity": 0, "duration": 200}, {"note": 70, "velocity": 104, "duration": 114}, {"note": 0, "velocity": 0, "duration": 126}, {"note": 70, "velocity": 104, "duration": 145}, {"note": 0, "velocity": 0, "duration": 95}, {"note": 68, "velocity": 81, "duration": 91}, {"note": 0, "velocity": 0, "duration": 149}, {"note": 72, "velocity": 93, "duration": 133}, {"note": 0, "velocity": 0, "duration": 107}, {"note": 70, "velocity": 104, "duration": 123}, {"note": 0, "velocity": 0, "duration": 117}, {"note": 68, "velocity": 86, "duration": 129}, {"note": 0, "velocity": 0, "duration": 111}, {"note": 65, "velocity": 79, "duration": 118}, {"note": 0, "velocity": 0, "duration": 122}, {"note": 68, "velocity": 93, "duration": 2132}]]