[[{"note": 65, "velocity": 92, "duration": 123}, {"note": 70, "velocity": 92, "duration": 58}, {"note": 0, "velocity": 0, "duration": 62}, {"note": 70, "velocity": 92, "duration": 45}, {"note": 0, "velocity": 0, "duration": 75}, {"note": 70, "velocity": 92, "duration": 50}, {"note": 70, "velocity": 92, "duration": 70}, {"note": 70, "velocity": 92, "duration": 116}, {"note": 0, "velocity": 0, "duration": 124}, {"note": 65, "velocity": 92, "duration": 84}, {"note": 74, "velocity": 92, "duration": 111}, {"note": 0, "velocity": 0, "duration": 81}, {"note": 72, "velocity": 92, "duration": 224}, {"note": 0, "velocity": 0, "duration": 720}, {"note": 74, "velocity": 92, "duration": 67}, {"note": 72, "velocity": 92, "duration": 54}, {"note": 0, "velocity": 0, "duration": 66}, {"note": 70, "velocity": 92, "duration": 78}, {"note": 0, "velocity": 0, "duration": 87}, {"note": 70, "velocity": 92, "duration": 59}, {"note": 0, "velocity": 0, "duration": 142}, {"note": 62, "velocity": 92, "duration": 89}, {"note": 65, "velocity": 92, "duration": 243}, {"note": 0, "velocity": 0, "duration": 477}, {"note": 74, "velocity": 93, "duration": 50}, {"note": 0, "velocity": 0, "duration": 70}, {"note": 74, "velocity": 93, "duration": 47}, {"note": 0, "velocity": 0, "duration": 73}, {"note": 74, "velocity": 94, "duration": 65}, {"note": 67, "velocity": 94, "duration": 472}, {"note": 74, "velocity": 94, "duration": 220}, {"note": 0, "velocity": 0, "duration": 140}, {"note": 72, "velocity": 95, "duration": 82}, {"note": 70, "velocity": 95, "duration": 316}, {"note": 0, "velocity": 0, "duration": 164}, {"note": 67, "velocity": 95, "duration": 121}, {"note": 70, "velocity": 95, "duration": 117}, {"note": 67, "velocity": 95, "duration": 92}, {"note": 74, "velocity": 95, "duration": 147}, {"note": 67, "velocity": 95, "duration": 305}, {"note": 70, "velocity": 95, "duration": 80}, {"note": 74, "velocity": 95, "duration": 214}, {"note": 0, "velocity": 0, "duration": 146}, {"note": 72, "velocity": 95, "duration": 661}, {"note": 0, "velocity": 0, "duration": 179}, {"note": 65, "velocity": 96, "duration": 46}, {"note": 0, "velocity": 0, "duration": 74}, {"note": 65, "velocity": 96, "duration": 68}, {"note": 70, "velocity": 96, "duration": 47}, {"note": 0, "velocity": 0, "duration": 73}, {"note": 70, "velocity": 96, "duration": 44}, {"note": 0, "velocity": 0, "duration": 76}, {"note": 70, "velocity": 96, "duration": 46}, {"note": 0, "velocity": 0, "duration": 74}, {"note": 70, "velocity": 96, "duration": 66}, {"note": 70, "velocity": 96, "duration": 129}, {"note": 0, "velocity": 0, "duration": 117}, {"note": 67, "velocity": 96, "duration": 89}, {"note": 74, "velocity": 96, "duration": 102}, {"note": 72, "velocity": 96, "duration": 411}, {"note": 0, "velocity": 0, "duration": 669}, {"note": 79, "velocity": 97, "duration": 70}, {"note": 77, "velocity": 97, "duration": 48}, {"note": 0, "velocity": 0, "duration": 72}, {"note": 77, "velocity": 97, "duration": 81}, {"note": 70, "velocity": 97, "duration": 175}, {"note": 0, "velocity": 0, "duration": 65}, {"note": 77, "velocity": 97, "duration": 99}, {"note": 0, "velocity": 0, "duration": 141}, {"note": 74, "velocity": 97, "duration": 438}, {"note": 0, "velocity": 0, "duration": 282}, {"note": 74, "velocity": 97, "duration": 68}, {"note": 79, "velocity": 97, "duration": 54}, {"note": 0, "velocity": 0, "duration": 66}, {"note": 79, "velocity": 97, "duration": 55}, {"note": 0, "velocity": 0, "duration": 65}, {"note": 77, "velocity": 97, "duration": 52}, {"note": 0, "velocity": 0, "duration": 68}, {"note": 79, "velocity": 97, "duration": 217}, {"note": 0, "velocity": 0, "duration": 143}, {"note": 79, "velocity": 98, "duration": 82}, {"note": 77, "velocity": 98, "duration": 46}, {"note": 0, "velocity": 0, "duration": 74}, {"note": 77, "velocity": 99, "duration": 58}, {"note": 0, "velocity": 0, "duration": 62}, {"note": 70, "velocity": 99, "duration": 137}, {"note": 0, "velocity": 0, "duration": 103}, {"note": 74, "velocity": 99, "duration": 302}, {"note": 74, "velocity": 99, "duration": 74}, {"note": 77, "velocity": 99, "duration": 57}, {"note": 0, "velocity": 0, "duration": 80}, {"note": 79, "velocity": 99, "duration": 77}, {"note": 0, "velocity": 0, "duration": 102}, {"note": 79, "velocity": 99, "duration": 63}, {"note": 0, "velocity": 0, "duration": 104}, {"note": 79, "velocity": 99, "duration": 49}, {"note": 0, "velocity": 0, "duration": 88}, {"note": 79, "velocity": 99, "duration": 62}, {"note": 0, "velocity": 0, "duration": 104}, {"note": 79, "velocity": 99, "duration": 106}, {"note": 0, "velocity": 0, "duration": 85}, {"note": 79, "velocity": 99, "duration": 186}, {"note": 0, "velocity": 0, "duration": 76}, {"note": 77, "velocity": 100, "duration": 862}, {"note": 0, "velocity": 0, "duration": 436}, {"note": 74, "velocity": 101, "duration": 160}, {"note": 0, "velocity": 0, "duration": 80}, {"note": 79, "velocity": 101, "duration": 142}, {"note": 0, "velocity": 0, "duration": 98}, {"note": 79, "velocity": 101, "duration": 80}, {"note": 77, "velocity": 101, "duration": 103}, {"note": 0, "velocity": 0, "duration": 137}, {"note": 74, "velocity": 101, "duration": 62}, {"note": 77, "velocity": 101, "duration": 247}, {"note": 0, "velocity": 0, "duration": 113}, {"note": 74, "velocity": 101, "duration": 76}, {"note": 79, "velocity": 101, "duration": 85}, {"note": 77, "velocity": 101, "duration": 104}, {"note": 0, "velocity": 0, "duration": 136}, {"note": 74, "velocity": 101, "duration": 67}, {"note": 77, "velocity": 101, "duration": 158}, {"note": 0, "velocity": 0, "duration": 82}, {"note": 77, "velocity": 101, "duration": 79}, {"note": 82, "velocity": 101, "duration": 45}, {"note": 0, "velocity": 0, "duration": 75}, {"note": 82, "velocity": 101, "duration": 55}, {"note": 0, "velocity": 0, "duration": 65}, {"note": 79, "velocity": 101, "duration": 145}, {"note": 0, "velocity": 0, "duration": 215}, {"note": 79, "velocity": 101, "duration": 142}, {"note": 0, "velocity": 0, "duration": 98}, {"note": 77, "velocity": 101, "duration": 103}, {"note": 70, "velocity": 101, "duration": 125}, {"note": 74, "velocity": 101, "duration": 622}, {"note": 0, "velocity": 0, "duration": 84}, {"note": 77, "velocity": 100, "duration": 68}, {"note": 82, "velocity": 100, "duration": 43}, {"note": 0, "velocity": 0, "duration": 95}, {"note": 82, "velocity": 100, "duration": 87}, {"note": 0, "velocity": 0, "duration": 88}, {"note": 79, "velocity": 100, "duration": 80}, {"note": 0, "velocity": 0, "duration": 107}, {"note": 79, "velocity": 100, "duration": 45}, {"note": 0, "velocity": 0, "duration": 77}, {"note": 79, "velocity": 100, "duration": 67}, {"note": 0, "velocity": 0, "duration": 107}, {"note": 79, "velocity": 100, "duration": 77}, {"note": 0, "velocity": 0, "duration": 89}, {"note": 79, "velocity": 100, "duration": 57}, {"note": 0, "velocity": 0, "duration": 79}, {"note": 79, "velocity": 100, "duration": 97}, {"note": 0, "velocity": 0, "duration": 91}, {"note": 77, "velocity": 100, "duration": 64}, {"note": 0, "velocity": 0, "duration": 104}, {"note": 74, "velocity": 100, "duration": 66}, {"note": 0, "velocity": 0, "duration": 61}, {"note": 77, "velocity": 100, "duration": 100}, {"note": 70, "velocity": 100, "duration": 52}, {"note": 0, "velocity": 0, "duration": 68}, {"note": 70, "velocity": 100, "duration": 71}, {"note": 74, "velocity": 100, "duration": 52}, {"note": 0, "velocity": 0, "duration": 68}, {"note": 74, "velocity": 100, "duration": 98}, {"note": 72, "velocity": 100, "duration": 78}, {"note": 0, "velocity": 0, "duration": 162}, {"note": 72, "velocity": 100, "duration": 51}, {"note": 0, "velocity": 0, "duration": 69}, {"note": 72, "velocity": 100, "duration": 136}, {"note": 70, "velocity": 100, "duration": 129}, {"note": 0, "velocity": 0, "duration": 111}, {"note": 67, "velocity": 100, "duration": 64}, {"note": 72, "velocity": 100, "duration": 274}, {"note": 0, "velocity": 0, "duration": 446}, {"note": 74, "velocity": 99, "duration": 66}, {"note": 79, "velocity": 99, "duration": 51}, {"note": 0, "velocity": 0, "duration": 69}, {"note": 79, "velocity": 99, "duration": 117}, {"note": 0, "velocity": 0, "duration": 123}, {"note": 77, "velocity": 98, "duration": 93}, {"note": 74, "velocity": 98, "duration": 61}, {"note": 77, "velocity": 98, "duration": 200}, {"note": 0, "velocity": 0, "duration": 160}, {"note": 74, "velocity": 99, "duration": 60}, {"note": 79, "velocity": 99, "duration": 105}, {"note": 77, "velocity": 98, "duration": 83}, {"note": 0, "velocity": 0, "duration": 157}, {"note": 74, "velocity": 98, "duration": 69}, {"note": 77, "velocity": 98, "duration": 123}, {"note": 0, "velocity": 0, "duration": 117}, {"note": 77, "velocity": 98, "duration": 51}, {"note": 0, "velocity": 0, "duration": 69}, {"note": 82, "velocity": 98, "duration": 46}, {"note": 0, "velocity": 0, "duration": 74}, {"note": 82, "velocity": 98, "duration": 71}, {"note": 79, "velocity": 98, "duration": 104}, {"note": 0, "velocity": 0, "duration": 136}, {"note": 77, "velocity": 98, "duration": 55}, {"note": 0, "velocity": 0, "duration": 65}, {"note": 77, "velocity": 98, "duration": 74}, {"note": 0, "velocity": 0, "duration": 166}, {"note": 70, "velocity": 98, "duration": 157}, {"note": 0, "velocity": 0, "duration": 83}, {"note": 77, "velocity": 97, "duration": 158}, {"note": 0, "velocity": 0, "duration": 82}, {"note": 74, "velocity": 97, "duration": 304}, {"note": 0, "velocity": 0, "duration": 155}, {"note": 77, "velocity": 97, "duration": 68}, {"note": 82, "velocity": 96, "duration": 44}, {"note": 0, "velocity": 0, "duration": 83}, {"note": 82, "velocity": 96, "duration": 80}, {"note": 0, "velocity": 0, "duration": 103}, {"note": 79, "velocity": 98, "duration": 72}, {"note": 0, "velocity": 0, "duration": 99}, {"note": 79, "velocity": 97, "duration": 54}, {"note": 0, "velocity": 0, "duration": 80}, {"note": 79, "velocity": 97, "duration": 64}, {"note": 0, "velocity": 0, "duration": 120}, {"note": 79, "velocity": 96, "duration": 91}, {"note": 0, "velocity": 0, "duration": 77}, {"note": 79, "velocity": 96, "duration": 52}, {"note": 0, "velocity": 0, "duration": 80}, {"note": 79, "velocity": 98, "duration": 84}, {"note": 0, "velocity": 0, "duration": 81}, {"note": 77, "velocity": 98, "duration": 85}, {"note": 0, "velocity": 0, "duration": 99}, {"note": 74, "velocity": 97, "duration": 60}, {"note": 0, "velocity": 0, "duration": 64}, {"note": 77, "velocity": 97, "duration": 107}, {"note": 70, "velocity": 97, "duration": 57}, {"note": 0, "velocity": 0, "duration": 63}, {"note": 70, "velocity": 96, "duration": 64}, {"note": 74, "velocity": 96, "duration": 58}, {"note": 0, "velocity": 0, "duration": 62}, {"note": 74, "velocity": 96, "duration": 124}, {"note": 72, "velocity": 96, "duration": 157}, {"note": 0, "velocity": 0, "duration": 83}, {"note": 70, "velocity": 96, "duration": 114}, {"note": 0, "velocity": 0, "duration": 126}, {"note": 67, "velocity": 96, "duration": 262}, {"note": 0, "velocity": 0, "duration": 98}, {"note": 74, "velocity": 96, "duration": 115}, {"note": 0, "velocity": 0, "duration": 125}, {"note": 72, "velocity": 96, "duration": 165}, {"note": 0, "velocity": 0, "duration": 75}, {"note": 74, "velocity": 96, "duration": 80}, {"note": 72, "velocity": 96, "duration": 121}, {"note": 0, "velocity": 0, "duration": 119}, {"note": 67, "velocity": 96, "duration": 73}, {"note": 0, "velocity": 0, "duration": 167}, {"note": 70, "velocity": 96, "duration": 1777}, {"note": 0, "velocity": 0, "duration": 15383}, {"note": 65, "velocity": 92, "duration": 123}, {"note": 70, "velocity": 92, "duration": 58}, {"note": 0, "velocity": 0, "duration": 62}, {"note": 70, "velocity": 92, "duration": 45}, {"note": 0, "velocity": 0, "duration": 75}, {"note": 70, "velocity": 92, "duration": 50}, {"note": 0, "velocity": 0, "duration": 70}, {"note": 70, "velocity": 92, "duration": 70}, {"note": 70, "velocity": 92, "duration": 116}, {"note": 0, "velocity": 0, "duration": 124}, {"note": 65, "velocity": 92, "duration": 84}, {"note": 74, "velocity": 92, "duration": 111}, {"note": 0, "velocity": 0, "duration": 81}, {"note": 72, "velocity": 92, "duration": 224}, {"note": 0, "velocity": 0, "duration": 784}, {"note": 74, "velocity": 92, "duration": 67}, {"note": 72, "velocity": 92, "duration": 54}, {"note": 0, "velocity": 0, "duration": 66}, {"note": 70, "velocity": 92, "duration": 78}, {"note": 0, "velocity": 0, "duration": 87}, {"note": 70, "velocity": 92, "duration": 59}, {"note": 0, "velocity": 0, "duration": 142}, {"note": 62, "velocity": 92, "duration": 89}, {"note": 65, "velocity": 92, "duration": 243}, {"note": 0, "velocity": 0, "duration": 477}, {"note": 74, "velocity": 92, "duration": 50}, {"note": 0, "velocity": 0, "duration": 70}, {"note": 74, "velocity": 92, "duration": 47}, {"note": 0, "velocity": 0, "duration": 73}, {"note": 74, "velocity": 92, "duration": 65}, {"note": 67, "velocity": 91, "duration": 472}, {"note": 74, "velocity": 91, "duration": 220}, {"note": 0, "velocity": 0, "duration": 140}, {"note": 72, "velocity": 91, "duration": 82}, {"note": 70, "velocity": 91, "duration": 316}, {"note": 0, "velocity": 0, "duration": 164}, {"note": 67, "velocity": 91, "duration": 121}, {"note": 70, "velocity": 91, "duration": 117}, {"note": 67, "velocity": 91, "duration": 92}, {"note": 74, "velocity": 91, "duration": 147}, {"note": 67, "velocity": 90, "duration": 305}, {"note": 70, "velocity": 90, "duration": 80}, {"note": 74, "velocity": 90, "duration": 214}, {"note": 0, "velocity": 0, "duration": 146}, {"note": 72, "velocity": 90, "duration": 661}, {"note": 0, "velocity": 0, "duration": 179}, {"note": 65, "velocity": 90, "duration": 46}, {"note": 0, "velocity": 0, "duration": 74}, {"note": 65, "velocity": 88, "duration": 68}, {"note": 70, "velocity": 88, "duration": 47}, {"note": 0, "velocity": 0, "duration": 73}, {"note": 70, "velocity": 88, "duration": 44}, {"note": 0, "velocity": 0, "duration": 76}, {"note": 70, "velocity": 88, "duration": 46}, {"note": 0, "velocity": 0, "duration": 74}, {"note": 70, "velocity": 88, "duration": 66}, {"note": 70, "velocity": 88, "duration": 129}, {"note": 0, "velocity": 0, "duration": 117}, {"note": 67, "velocity": 88, "duration": 89}, {"note": 74, "velocity": 88, "duration": 102}, {"note": 72, "velocity": 88, "duration": 411}, {"note": 0, "velocity": 0, "duration": 669}, {"note": 79, "velocity": 89, "duration": 70}, {"note": 77, "velocity": 89, "duration": 48}, {"note": 0, "velocity": 0, "duration": 72}, {"note": 77, "velocity": 89, "duration": 81}, {"note": 70, "velocity": 89, "duration": 175}, {"note": 0, "velocity": 0, "duration": 65}, {"note": 77, "velocity": 89, "duration": 99}, {"note": 0, "velocity": 0, "duration": 141}, {"note": 74, "velocity": 89, "duration": 438}, {"note": 0, "velocity": 0, "duration": 282}, {"note": 74, "velocity": 89, "duration": 68}, {"note": 79, "velocity": 90, "duration": 54}, {"note": 0, "velocity": 0, "duration": 66}, {"note": 79, "velocity": 90, "duration": 55}, {"note": 0, "velocity": 0, "duration": 65}, {"note": 77, "velocity": 90, "duration": 52}, {"note": 0, "velocity": 0, "duration": 68}, {"note": 79, "velocity": 90, "duration": 217}, {"note": 0, "velocity": 0, "duration": 143}, {"note": 79, "velocity": 90, "duration": 82}, {"note": 77, "velocity": 90, "duration": 46}, {"note": 0, "velocity": 0, "duration": 74}, {"note": 77, "velocity": 90, "duration": 58}, {"note": 0, "velocity": 0, "duration": 62}, {"note": 70, "velocity": 90, "duration": 137}, {"note": 0, "velocity": 0, "duration": 103}, {"note": 74, "velocity": 90, "duration": 302}, {"note": 74, "velocity": 90, "duration": 74}, {"note": 77, "velocity": 90, "duration": 57}, {"note": 0, "velocity": 0, "duration": 80}, {"note": 79, "velocity": 91, "duration": 77}, {"note": 0, "velocity": 0, "duration": 102}, {"note": 79, "velocity": 91, "duration": 63}, {"note": 0, "velocity": 0, "duration": 104}, {"note": 79, "velocity": 91, "duration": 49}, {"note": 0, "velocity": 0, "duration": 88}, {"note": 79, "velocity": 91, "duration": 62}, {"note": 0, "velocity": 0, "duration": 104}, {"note": 79, "velocity": 91, "duration": 106}, {"note": 0, "velocity": 0, "duration": 85}, {"note": 79, "velocity": 91, "duration": 171}, {"note": 0, "velocity": 0, "duration": 94}, {"note": 77, "velocity": 91, "duration": 1006}, {"note": 0, "velocity": 0, "duration": 289}, {"note": 74, "velocity": 91, "duration": 160}, {"note": 0, "velocity": 0, "duration": 80}, {"note": 79, "velocity": 91, "duration": 142}, {"note": 0, "velocity": 0, "duration": 98}, {"note": 79, "velocity": 91, "duration": 80}, {"note": 77, "velocity": 91, "duration": 103}, {"note": 0, "velocity": 0, "duration": 137}, {"note": 74, "velocity": 91, "duration": 62}, {"note": 77, "velocity": 91, "duration": 247}, {"note": 0, "velocity": 0, "duration": 113}, {"note": 74, "velocity": 91, "duration": 76}, {"note": 79, "velocity": 91, "duration": 85}, {"note": 77, "velocity": 91, "duration": 104}, {"note": 0, "velocity": 0, "duration": 136}, {"note": 74, "velocity": 91, "duration": 67}, {"note": 77, "velocity": 91, "duration": 158}, {"note": 0, "velocity": 0, "duration": 82}, {"note": 77, "velocity": 91, "duration": 79}, {"note": 82, "velocity": 91, "duration": 45}, {"note": 0, "velocity": 0, "duration": 75}, {"note": 82, "velocity": 92, "duration": 55}, {"note": 0, "velocity": 0, "duration": 65}, {"note": 79, "velocity": 92, "duration": 145}, {"note": 0, "velocity": 0, "duration": 215}, {"note": 79, "velocity": 92, "duration": 142}, {"note": 0, "velocity": 0, "duration": 98}, {"note": 77, "velocity": 92, "duration": 103}, {"note": 70, "velocity": 92, "duration": 125}, {"note": 74, "velocity": 93, "duration": 622}, {"note": 0, "velocity": 0, "duration": 84}, {"note": 77, "velocity": 92, "duration": 68}, {"note": 82, "velocity": 93, "duration": 43}, {"note": 0, "velocity": 0, "duration": 95}, {"note": 82, "velocity": 93, "duration": 87}, {"note": 0, "velocity": 0, "duration": 88}, {"note": 79, "velocity": 93, "duration": 80}, {"note": 0, "velocity": 0, "duration": 107}, {"note": 79, "velocity": 93, "duration": 45}, {"note": 0, "velocity": 0, "duration": 77}, {"note": 79, "velocity": 94, "duration": 67}, {"note": 0, "velocity": 0, "duration": 107}, {"note": 79, "velocity": 94, "duration": 77}, {"note": 0, "velocity": 0, "duration": 89}, {"note": 79, "velocity": 94, "duration": 57}, {"note": 0, "velocity": 0, "duration": 79}, {"note": 79, "velocity": 94, "duration": 97}, {"note": 0, "velocity": 0, "duration": 91}, {"note": 77, "velocity": 94, "duration": 64}, {"note": 0, "velocity": 0, "duration": 104}, {"note": 74, "velocity": 94, "duration": 66}, {"note": 0, "velocity": 0, "duration": 61}, {"note": 77, "velocity": 94, "duration": 100}, {"note": 70, "velocity": 94, "duration": 52}, {"note": 0, "velocity": 0, "duration": 68}, {"note": 70, "velocity": 94, "duration": 71}, {"note": 74, "velocity": 94, "duration": 52}, {"note": 0, "velocity": 0, "duration": 68}, {"note": 74, "velocity": 94, "duration": 98}, {"note": 72, "velocity": 94, "duration": 78}, {"note": 0, "velocity": 0, "duration": 162}, {"note": 72, "velocity": 94, "duration": 51}, {"note": 0, "velocity": 0, "duration": 69}, {"note": 72, "velocity": 94, "duration": 136}, {"note": 70, "velocity": 94, "duration": 129}, {"note": 0, "velocity": 0, "duration": 111}, {"note": 67, "velocity": 94, "duration": 64}, {"note": 72, "velocity": 94, "duration": 274}, {"note": 0, "velocity": 0, "duration": 446}, {"note": 74, "velocity": 94, "duration": 66}, {"note": 79, "velocity": 94, "duration": 51}, {"note": 0, "velocity": 0, "duration": 69}, {"note": 79, "velocity": 94, "duration": 117}, {"note": 0, "velocity": 0, "duration": 123}, {"note": 77, "velocity": 94, "duration": 93}, {"note": 74, "velocity": 94, "duration": 61}, {"note": 77, "velocity": 94, "duration": 200}, {"note": 0, "velocity": 0, "duration": 160}, {"note": 74, "velocity": 94, "duration": 60}, {"note": 79, "velocity": 94, "duration": 105}, {"note": 77, "velocity": 94, "duration": 83}, {"note": 0, "velocity": 0, "duration": 157}, {"note": 74, "velocity": 94, "duration": 69}, {"note": 77, "velocity": 94, "duration": 123}, {"note": 0, "velocity": 0, "duration": 117}, {"note": 77, "velocity": 94, "duration": 51}, {"note": 0, "velocity": 0, "duration": 69}, {"note": 82, "velocity": 94, "duration": 46}, {"note": 0, "velocity": 0, "duration": 74}, {"note": 82, "velocity": 94, "duration": 71}, {"note": 79, "velocity": 94, "duration": 104}, {"note": 0, "velocity": 0, "duration": 136}, {"note": 77, "velocity": 94, "duration": 55}, {"note": 0, "velocity": 0, "duration": 65}, {"note": 77, "velocity": 94, "duration": 74}, {"note": 0, "velocity": 0, "duration": 166}, {"note": 70, "velocity": 94, "duration": 157}, {"note": 0, "velocity": 0, "duration": 83}, {"note": 77, "velocity": 94, "duration": 158}, {"note": 0, "velocity": 0, "duration": 82}, {"note": 74, "velocity": 94, "duration": 304}, {"note": 0, "velocity": 0, "duration": 155}, {"note": 77, "velocity": 94, "duration": 68}, {"note": 82, "velocity": 94, "duration": 44}, {"note": 0, "velocity": 0, "duration": 83}, {"note": 82, "velocity": 94, "duration": 80}, {"note": 0, "velocity": 0, "duration": 103}, {"note": 79, "velocity": 95, "duration": 72}, {"note": 0, "velocity": 0, "duration": 99}, {"note": 79, "velocity": 95, "duration": 54}, {"note": 0, "velocity": 0, "duration": 80}, {"note": 79, "velocity": 95, "duration": 64}, {"note": 0, "velocity": 0, "duration": 120}, {"note": 79, "velocity": 95, "duration": 91}, {"note": 0, "velocity": 0, "duration": 77}, {"note": 79, "velocity": 95, "duration": 52}, {"note": 0, "velocity": 0, "duration": 80}, {"note": 79, "velocity": 95, "duration": 84}, {"note": 0, "velocity": 0, "duration": 81}, {"note": 77, "velocity": 95, "duration": 85}, {"note": 0, "velocity": 0, "duration": 99}, {"note": 74, "velocity": 95, "duration": 60}, {"note": 0, "velocity": 0, "duration": 64}, {"note": 77, "velocity": 95, "duration": 107}, {"note": 70, "velocity": 95, "duration": 57}, {"note": 0, "velocity": 0, "duration": 63}, {"note": 70, "velocity": 95, "duration": 64}, {"note": 74, "velocity": 95, "duration": 58}, {"note": 0, "velocity": 0, "duration": 62}, {"note": 74, "velocity": 96, "duration": 124}, {"note": 72, "velocity": 96, "duration": 157}, {"note": 0, "velocity": 0, "duration": 83}, {"note": 70, "velocity": 96, "duration": 114}, {"note": 0, "velocity": 0, "duration": 126}, {"note": 67, "velocity": 96, "duration": 262}, {"note": 0, "velocity": 0, "duration": 98}, {"note": 74, "velocity": 96, "duration": 115}, {"note": 0, "velocity": 0, "duration": 125}, {"note": 72, "velocity": 96, "duration": 165}, {"note": 0, "velocity": 0, "duration": 75}, {"note": 74, "velocity": 96, "duration": 80}, {"note": 72, "velocity": 96, "duration": 121}, {"note": 0, "velocity": 0, "duration": 119}, {"note": 67, "velocity": 96, "duration": 73}, {"note": 0, "velocity": 0, "duration": 167}, {"note": 70, "velocity": 96, "duration": 1320}, {"note": 74, "velocity": 97, "duration": 160}, {"note": 0, "velocity": 0, "duration": 80}, {"note": 79, "velocity": 97, "duration": 142}, {"note": 0, "velocity": 0, "duration": 98}, {"note": 79, "velocity": 97, "duration": 80}, {"note": 77, "velocity": 97, "duration": 103}, {"note": 0, "velocity": 0, "duration": 137}, {"note": 74, "velocity": 97, "duration": 62}, {"note": 77, "velocity": 98, "duration": 247}, {"note": 0, "velocity": 0, "duration": 113}, {"note": 74, "velocity": 97, "duration": 76}, {"note": 79, "velocity": 98, "duration": 85}, {"note": 77, "velocity": 98, "duration": 104}, {"note": 0, "velocity": 0, "duration": 136}, {"note": 74, "velocity": 98, "duration": 67}, {"note": 77, "velocity": 99, "duration": 158}, {"note": 0, "velocity": 0, "duration": 82}, {"note": 77, "velocity": 99, "duration": 79}, {"note": 82, "velocity": 99, "duration": 45}, {"note": 0, "velocity": 0, "duration": 75}, {"note": 82, "velocity": 99, "duration": 55}, {"note": 0, "velocity": 0, "duration": 65}, {"note": 79, "velocity": 99, "duration": 145}, {"note": 0, "velocity": 0, "duration": 215}, {"note": 79, "velocity": 99, "duration": 142}, {"note": 0, "velocity": 0, "duration": 98}, {"note": 77, "velocity": 99, "duration": 103}, {"note": 70, "velocity": 99, "duration": 125}, {"note": 74, "velocity": 99, "duration": 622}, {"note": 0, "velocity": 0, "duration": 84}, {"note": 77, "velocity": 97, "duration": 68}, {"note": 82, "velocity": 96, "duration": 43}, {"note": 0, "velocity": 0, "duration": 95}, {"note": 82, "velocity": 96, "duration": 87}, {"note": 0, "velocity": 0, "duration": 88}, {"note": 79, "velocity": 98, "duration": 80}, {"note": 0, "velocity": 0, "duration": 107}, {"note": 79, "velocity": 97, "duration": 45}, {"note": 0, "velocity": 0, "duration": 77}, {"note": 79, "velocity": 97, "duration": 67}, {"note": 0, "velocity": 0, "duration": 107}, {"note": 79, "velocity": 96, "duration": 77}, {"note": 0, "velocity": 0, "duration": 89}, {"note": 79, "velocity": 96, "duration": 57}, {"note": 0, "velocity": 0, "duration": 79}, {"note": 79, "velocity": 96, "duration": 97}, {"note": 0, "velocity": 0, "duration": 91}, {"note": 77, "velocity": 98, "duration": 64}, {"note": 0, "velocity": 0, "duration": 104}, {"note": 74, "velocity": 97, "duration": 66}, {"note": 0, "velocity": 0, "duration": 61}, {"note": 77, "velocity": 97, "duration": 100}, {"note": 70, "velocity": 97, "duration": 52}, {"note": 0, "velocity": 0, "duration": 68}, {"note": 70, "velocity": 96, "duration": 71}, {"note": 74, "velocity": 96, "duration": 52}, {"note": 0, "velocity": 0, "duration": 68}, {"note": 74, "velocity": 96, "duration": 98}, {"note": 72, "velocity": 96, "duration": 78}, {"note": 0, "velocity": 0, "duration": 162}, {"note": 72, "velocity": 96, "duration": 51}, {"note": 0, "velocity": 0, "duration": 69}, {"note": 72, "velocity": 96, "duration": 136}, {"note": 70, "velocity": 96, "duration": 129}, {"note": 0, "velocity": 0, "duration": 111}, {"note": 67, "velocity": 96, "duration": 64}, {"note": 72, "velocity": 96, "duration": 274}, {"note": 0, "velocity": 0, "duration": 446}, {"note": 74, "velocity": 95, "duration": 66}, {"note": 79, "velocity": 95, "duration": 51}, {"note": 0, "velocity": 0, "duration": 69}, {"note": 79, "velocity": 95, "duration": 117}, {"note": 0, "velocity": 0, "duration": 123}, {"note": 77, "velocity": 95, "duration": 93}, {"note": 74, "velocity": 95, "duration": 61}, {"note": 77, "velocity": 95, "duration": 200}, {"note": 0, "velocity": 0, "duration": 160}, {"note": 74, "velocity": 95, "duration": 60}, {"note": 79, "velocity": 95, "duration": 105}, {"note": 77, "velocity": 95, "duration": 83}, {"note": 0, "velocity": 0, "duration": 157}, {"note": 74, "velocity": 95, "duration": 69}, {"note": 77, "velocity": 95, "duration": 123}, {"note": 0, "velocity": 0, "duration": 117}, {"note": 77, "velocity": 95, "duration": 51}, {"note": 0, "velocity": 0, "duration": 69}, {"note": 82, "velocity": 95, "duration": 46}, {"note": 0, "velocity": 0, "duration": 74}, {"note": 82, "velocity": 95, "duration": 71}, {"note": 79, "velocity": 95, "duration": 104}, {"note": 0, "velocity": 0, "duration": 136}, {"note": 77, "velocity": 95, "duration": 55}, {"note": 0, "velocity": 0, "duration": 65}, {"note": 77, "velocity": 95, "duration": 74}, {"note": 0, "velocity": 0, "duration": 166}, {"note": 70, "velocity": 95, "duration": 157}, {"note": 0, "velocity": 0, "duration": 83}, {"note": 77, "velocity": 95, "duration": 158}, {"note": 0, "velocity": 0, "duration": 82}, {"note": 74, "velocity": 95, "duration": 304}, {"note": 0, "velocity": 0, "duration": 155}, {"note": 77, "velocity": 95, "duration": 68}, {"note": 82, "velocity": 95, "duration": 44}, {"note": 0, "velocity": 0, "duration": 83}, {"note": 82, "velocity": 95, "duration": 80}, {"note": 0, "velocity": 0, "duration": 103}, {"note": 79, "velocity": 95, "duration": 72}, {"note": 0, "velocity": 0, "duration": 99}, {"note": 79, "velocity": 95, "duration": 54}, {"note": 0, "velocity": 0, "duration": 80}, {"note": 79, "velocity": 95, "duration": 64}, {"note": 0, "velocity": 0, "duration": 120}, {"note": 79, "velocity": 95, "duration": 91}, {"note": 0, "velocity": 0, "duration": 77}, {"note": 79, "velocity": 95, "duration": 52}, {"note": 0, "velocity": 0, "duration": 80}, {"note": 79, "velocity": 95, "duration": 84}, {"note": 0, "velocity": 0, "duration": 81}, {"note": 77, "velocity": 95, "duration": 85}, {"note": 0, "velocity": 0, "duration": 99}, {"note": 74, "velocity": 95, "duration": 60}, {"note": 0, "velocity": 0, "duration": 64}, {"note": 77, "velocity": 95, "duration": 107}, {"note": 70, "velocity": 95, "duration": 57}, {"note": 0, "velocity": 0, "duration": 63}, {"note": 70, "velocity": 95, "duration": 64}, {"note": 74, "velocity": 95, "duration": 58}, {"note": 0, "velocity": 0, "duration": 62}, {"note": 74, "velocity": 95, "duration": 124}, {"note": 72, "velocity": 95, "duration": 157}, {"note": 0, "velocity": 0, "duration": 83}, {"note": 70, "velocity": 95, "duration": 114}, {"note": 0, "velocity": 0, "duration": 126}, {"note": 67, "velocity": 95, "duration": 262}, {"note": 0, "velocity": 0, "duration": 98}, {"note": 74, "velocity": 95, "duration": 115}, {"note": 0, "velocity": 0, "duration": 125}, {"note": 72, "velocity": 95, "duration": 165}, {"note": 0, "velocity": 0, "duration": 75}, {"note": 74, "velocity": 95, "duration": 80}, {"note": 72, "velocity": 95, "duration": 121}, {"note": 0, "velocity": 0, "duration": 119}, {"note": 67, "velocity": 95, "duration": 73}, {"note": 0, "velocity": 0, "duration": 167}, {"note": 70, "velocity": 95, "duration": 1320}, {"note": 65, "velocity": 95, "duration": 217}, {"note": 70, "velocity": 95, "duration": 168}, {"note": 0, "velocity": 0, "duration": 90}, {"note": 70, "velocity": 95, "duration": 109}, {"note": 0, "velocity": 0, "duration": 65}, {"note": 67, "velocity": 95, "duration": 110}, {"note": 0, "velocity": 0, "duration": 62}, {"note": 67, "velocity": 95, "duration": 62}, {"note": 0, "velocity": 0, "duration": 72}, {"note": 67, "velocity": 95, "duration": 131}, {"note": 67, "velocity": 95, "duration": 107}, {"note": 0, "velocity": 0, "duration": 70}, {"note": 67, "velocity": 95, "duration": 59}, {"note": 0, "velocity": 0, "duration": 80}, {"note": 67, "velocity": 95, "duration": 127}, {"note": 65, "velocity": 95, "duration": 121}, {"note": 0, "velocity": 0, "duration": 78}, {"note": 62, "velocity": 95, "duration": 58}, {"note": 0, "velocity": 0, "duration": 81}, {"note": 65, "velocity": 95, "duration": 114}, {"note": 58, "velocity": 95, "duration": 59}, {"note": 0, "velocity": 0, "duration": 61}, {"note": 58, "velocity": 95, "duration": 72}, {"note": 62, "velocity": 95, "duration": 60}, {"note": 62, "velocity": 95, "duration": 135}, {"note": 0, "velocity": 0, "duration": 105}, {"note": 60, "velocity": 95, "duration": 112}, {"note": 58, "velocity": 95, "duration": 111}, {"note": 0, "velocity": 0, "duration": 129}, {"note": 55, "velocity": 95, "duration": 315}, {"note": 62, "velocity": 95, "duration": 125}, {"note": 0, "velocity": 0, "duration": 115}, {"note": 60, "velocity": 95, "duration": 240}, {"note": 62, "velocity": 95, "duration": 150}, {"note": 0, "velocity": 0, "duration": 90}, {"note": 60, "velocity": 95, "duration": 574}, {"note": 0, "velocity": 0, "duration": 146}, {"note": 55, "velocity": 95, "duration": 343}, {"note": 0, "velocity": 0, "duration": 137}, {"note": 58, "velocity": 95, "duration": 1107}]]