[[{"note": 71, "velocity": 108, "duration": 175}, {"note": 0, "velocity": 0, "duration": 61}, {"note": 69, "velocity": 63, "duration": 114}, {"note": 0, "velocity": 0, "duration": 126}, {"note": 71, "velocity": 95, "duration": 1055}, {"note": 0, "velocity": 0, "duration": 145}, {"note": 69, "velocity": 70, "duration": 120}, {"note": 0, "velocity": 0, "duration": 120}, {"note": 71, "velocity": 93, "duration": 110}, {"note": 0, "velocity": 0, "duration": 130}, {"note": 69, "velocity": 67, "duration": 109}, {"note": 0, "velocity": 0, "duration": 131}, {"note": 67, "velocity": 86, "duration": 1127}, {"note": 0, "velocity": 0, "duration": 313}, {"note": 64, "velocity": 85, "duration": 223}, {"note": 67, "velocity": 71, "duration": 275}, {"note": 69, "velocity": 74, "duration": 496}, {"note": 71, "velocity": 111, "duration": 326}, {"note": 0, "velocity": 0, "duration": 154}, {"note": 69, "velocity": 86, "duration": 207}, {"note": 67, "velocity": 83, "duration": 119}, {"note": 0, "velocity": 0, "duration": 121}, {"note": 64, "velocity": 73, "duration": 173}, {"note": 0, "velocity": 0, "duration": 67}, {"note": 67, "velocity": 76, "duration": 138}, {"note": 0, "velocity": 0, "duration": 102}, {"note": 62, "velocity": 76, "duration": 452}, {"note": 0, "velocity": 0, "duration": 988}, {"note": 71, "velocity": 100, "duration": 220}, {"note": 69, "velocity": 73, "duration": 155}, {"note": 0, "velocity": 0, "duration": 85}, {"note": 71, "velocity": 98, "duration": 1035}, {"note": 0, "velocity": 0, "duration": 165}, {"note": 69, "velocity": 79, "duration": 120}, {"note": 0, "velocity": 0, "duration": 120}, {"note": 71, "velocity": 93, "duration": 111}, {"note": 0, "velocity": 0, "duration": 129}, {"note": 69, "velocity": 75, "duration": 108}, {"note": 0, "velocity": 0, "duration": 132}, {"note": 67, "velocity": 81, "duration": 1212}, {"note": 0, "velocity": 0, "duration": 228}, {"note": 64, "velocity": 86, "duration": 213}, {"note": 67, "velocity": 69, "duration": 297}, {"note": 69, "velocity": 67, "duration": 467}, {"note": 71, "velocity": 98, "duration": 374}, {"note": 0, "velocity": 0, "duration": 106}, {"note": 69, "velocity": 76, "duration": 234}, {"note": 67, "velocity": 90, "duration": 137}, {"note": 0, "velocity": 0, "duration": 103}, {"note": 64, "velocity": 69, "duration": 147}, {"note": 0, "velocity": 0, "duration": 93}, {"note": 67, "velocity": 68, "duration": 181}, {"note": 69, "velocity": 74, "duration": 841}, {"note": 0, "velocity": 0, "duration": 599}, {"note": 71, "velocity": 108, "duration": 179}, {"note": 0, "velocity": 0, "duration": 61}, {"note": 69, "velocity": 63, "duration": 114}, {"note": 0, "velocity": 0, "duration": 126}, {"note": 71, "velocity": 95, "duration": 1055}, {"note": 0, "velocity": 0, "duration": 145}, {"note": 69, "velocity": 70, "duration": 120}, {"note": 0, "velocity": 0, "duration": 120}, {"note": 71, "velocity": 93, "duration": 110}, {"note": 0, "velocity": 0, "duration": 130}, {"note": 69, "velocity": 67, "duration": 109}, {"note": 0, "velocity": 0, "duration": 131}, {"note": 67, "velocity": 86, "duration": 1127}, {"note": 0, "velocity": 0, "duration": 313}, {"note": 64, "velocity": 85, "duration": 223}, {"note": 67, "velocity": 71, "duration": 236}, {"note": 69, "velocity": 74, "duration": 496}, {"note": 71, "velocity": 111, "duration": 326}, {"note": 0, "velocity": 0, "duration": 154}, {"note": 69, "velocity": 86, "duration": 207}, {"note": 67, "velocity": 83, "duration": 119}, {"note": 0, "velocity": 0, "duration": 121}, {"note": 64, "velocity": 73, "duration": 173}, {"note": 0, "velocity": 0, "duration": 67}, {"note": 67, "velocity": 76, "duration": 138}, {"note": 0, "velocity": 0, "duration": 102}, {"note": 62, "velocity": 76, "duration": 452}, {"note": 0, "velocity": 0, "duration": 988}, {"note": 71, "velocity": 100, "duration": 220}, {"note": 74, "velocity": 73, "duration": 155}, {"note": 0, "velocity": 0, "duration": 85}, {"note": 74, "velocity": 98, "duration": 1035}, {"note": 0, "velocity": 0, "duration": 165}, {"note": 74, "velocity": 127, "duration": 66}, {"note": 0, "velocity": 0, "duration": 174}, {"note": 76, "velocity": 127, "duration": 84}, {"note": 0, "velocity": 0, "duration": 156}, {"note": 74, "velocity": 122, "duration": 61}, {"note": 0, "velocity": 0, "duration": 179}, {"note": 71, "velocity": 122, "duration": 78}, {"note": 69, "velocity": 90, "duration": 84}, {"note": 71, "velocity": 102, "duration": 814}, {"note": 0, "velocity": 0, "duration": 386}, {"note": 69, "velocity": 79, "duration": 115}, {"note": 0, "velocity": 0, "duration": 125}, {"note": 69, "velocity": 79, "duration": 93}, {"note": 0, "velocity": 0, "duration": 147}, {"note": 69, "velocity": 100, "duration": 358}, {"note": 0, "velocity": 0, "duration": 122}, {"note": 71, "velocity": 100, "duration": 291}, {"note": 0, "velocity": 0, "duration": 189}, {"note": 69, "velocity": 104, "duration": 244}, {"note": 67, "velocity": 79, "duration": 251}, {"note": 64, "velocity": 74, "duration": 287}, {"note": 67, "velocity": 85, "duration": 146}, {"note": 0, "velocity": 0, "duration": 333}, {"note": 67, "velocity": 98, "duration": 1877}, {"note": 0, "velocity": 0, "duration": 1004}, {"note": 74, "velocity": 76, "duration": 101}, {"note": 0, "velocity": 0, "duration": 139}, {"note": 74, "velocity": 83, "duration": 105}, {"note": 0, "velocity": 0, "duration": 135}, {"note": 76, "velocity": 83, "duration": 100}, {"note": 0, "velocity": 0, "duration": 140}, {"note": 79, "velocity": 112, "duration": 135}, {"note": 0, "velocity": 0, "duration": 105}, {"note": 78, "velocity": 111, "duration": 81}, {"note": 0, "velocity": 0, "duration": 159}, {"note": 78, "velocity": 98, "duration": 121}, {"note": 0, "velocity": 0, "duration": 119}, {"note": 76, "velocity": 86, "duration": 104}, {"note": 0, "velocity": 0, "duration": 136}, {"note": 71, "velocity": 74, "duration": 235}, {"note": 0, "velocity": 0, "duration": 245}, {"note": 69, "velocity": 80, "duration": 104}, {"note": 0, "velocity": 0, "duration": 254}, {"note": 71, "velocity": 86, "duration": 243}, {"note": 0, "velocity": 0, "duration": 121}, {"note": 71, "velocity": 86, "duration": 476}, {"note": 0, "velocity": 0, "duration": 482}, {"note": 71, "velocity": 87, "duration": 93}, {"note": 0, "velocity": 0, "duration": 147}, {"note": 71, "velocity": 81, "duration": 112}, {"note": 0, "velocity": 0, "duration": 128}, {"note": 74, "velocity": 76, "duration": 103}, {"note": 0, "velocity": 0, "duration": 137}, {"note": 76, "velocity": 108, "duration": 436}, {"note": 76, "velocity": 87, "duration": 483}, {"note": 0, "velocity": 0, "duration": 237}, {"note": 64, "velocity": 67, "duration": 167}, {"note": 0, "velocity": 0, "duration": 73}, {"note": 71, "velocity": 90, "duration": 237}, {"note": 69, "velocity": 75, "duration": 1487}, {"note": 0, "velocity": 0, "duration": 193}, {"note": 71, "velocity": 87, "duration": 135}, {"note": 0, "velocity": 0, "duration": 105}, {"note": 74, "velocity": 85, "duration": 90}, {"note": 0, "velocity": 0, "duration": 150}, {"note": 74, "velocity": 98, "duration": 105}, {"note": 0, "velocity": 0, "duration": 135}, {"note": 71, "velocity": 98, "duration": 90}, {"note": 0, "velocity": 0, "duration": 150}, {"note": 74, "velocity": 108, "duration": 650}, {"note": 0, "velocity": 0, "duration": 70}, {"note": 79, "velocity": 108, "duration": 374}, {"note": 0, "velocity": 0, "duration": 106}, {"note": 78, "velocity": 95, "duration": 174}, {"note": 0, "velocity": 0, "duration": 66}, {"note": 76, "velocity": 79, "duration": 112}, {"note": 0, "velocity": 0, "duration": 128}, {"note": 78, "velocity": 81, "duration": 219}, {"note": 71, "velocity": 93, "duration": 703}, {"note": 76, "velocity": 77, "duration": 82}, {"note": 0, "velocity": 0, "duration": 158}, {"note": 76, "velocity": 77, "duration": 86}, {"note": 0, "velocity": 0, "duration": 154}, {"note": 78, "velocity": 95, "duration": 100}, {"note": 0, "velocity": 0, "duration": 140}, {"note": 76, "velocity": 79, "duration": 305}, {"note": 74, "velocity": 74, "duration": 225}, {"note": 71, "velocity": 73, "duration": 198}, {"note": 69, "velocity": 86, "duration": 381}, {"note": 0, "velocity": 0, "duration": 99}, {"note": 69, "velocity": 77, "duration": 279}, {"note": 0, "velocity": 0, "duration": 201}, {"note": 71, "velocity": 79, "duration": 104}, {"note": 0, "velocity": 0, "duration": 136}, {"note": 74, "velocity": 93, "duration": 960}, {"note": 0, "velocity": 0, "duration": 240}, {"note": 74, "velocity": 76, "duration": 101}, {"note": 0, "velocity": 0, "duration": 139}, {"note": 74, "velocity": 83, "duration": 105}, {"note": 0, "velocity": 0, "duration": 135}, {"note": 76, "velocity": 83, "duration": 100}, {"note": 0, "velocity": 0, "duration": 140}, {"note": 79, "velocity": 112, "duration": 135}, {"note": 0, "velocity": 0, "duration": 105}, {"note": 78, "velocity": 111, "duration": 81}, {"note": 0, "velocity": 0, "duration": 159}, {"note": 78, "velocity": 98, "duration": 121}, {"note": 0, "velocity": 0, "duration": 119}, {"note": 76, "velocity": 86, "duration": 104}, {"note": 0, "velocity": 0, "duration": 136}, {"note": 71, "velocity": 74, "duration": 235}, {"note": 0, "velocity": 0, "duration": 485}, {"note": 71, "velocity": 93, "duration": 1318}, {"note": 0, "velocity": 0, "duration": 122}, {"note": 71, "velocity": 87, "duration": 93}, {"note": 0, "velocity": 0, "duration": 147}, {"note": 71, "velocity": 81, "duration": 112}, {"note": 0, "velocity": 0, "duration": 128}, {"note": 74, "velocity": 76, "duration": 103}, {"note": 0, "velocity": 0, "duration": 137}, {"note": 76, "velocity": 108, "duration": 436}, {"note": 76, "velocity": 87, "duration": 483}, {"note": 0, "velocity": 0, "duration": 237}, {"note": 64, "velocity": 67, "duration": 167}, {"note": 0, "velocity": 0, "duration": 73}, {"note": 71, "velocity": 90, "duration": 348}, {"note": 0, "velocity": 0, "duration": 132}, {"note": 69, "velocity": 75, "duration": 1247}, {"note": 0, "velocity": 0, "duration": 193}, {"note": 71, "velocity": 87, "duration": 135}, {"note": 0, "velocity": 0, "duration": 105}, {"note": 74, "velocity": 85, "duration": 90}, {"note": 0, "velocity": 0, "duration": 150}, {"note": 74, "velocity": 98, "duration": 105}, {"note": 0, "velocity": 0, "duration": 135}, {"note": 71, "velocity": 98, "duration": 90}, {"note": 0, "velocity": 0, "duration": 150}, {"note": 74, "velocity": 108, "duration": 650}, {"note": 0, "velocity": 0, "duration": 70}, {"note": 79, "velocity": 108, "duration": 374}, {"note": 0, "velocity": 0, "duration": 106}, {"note": 78, "velocity": 95, "duration": 174}, {"note": 0, "velocity": 0, "duration": 66}, {"note": 76, "velocity": 79, "duration": 112}, {"note": 0, "velocity": 0, "duration": 128}, {"note": 78, "velocity": 81, "duration": 219}, {"note": 71, "velocity": 93, "duration": 703}, {"note": 76, "velocity": 77, "duration": 82}, {"note": 0, "velocity": 0, "duration": 158}, {"note": 76, "velocity": 77, "duration": 86}, {"note": 0, "velocity": 0, "duration": 154}, {"note": 78, "velocity": 95, "duration": 100}, {"note": 0, "velocity": 0, "duration": 140}, {"note": 76, "velocity": 79, "duration": 305}, {"note": 74, "velocity": 74, "duration": 225}, {"note": 71, "velocity": 73, "duration": 198}, {"note": 69, "velocity": 86, "duration": 381}, {"note": 0, "velocity": 0, "duration": 99}, {"note": 62, "velocity": 75, "duration": 248}, {"note": 0, "velocity": 0, "duration": 232}, {"note": 64, "velocity": 74, "duration": 89}, {"note": 0, "velocity": 0, "duration": 151}, {"note": 67, "velocity": 87, "duration": 1993}, {"note": 0, "velocity": 0, "duration": 16727}, {"note": 71, "velocity": 108, "duration": 179}, {"note": 0, "velocity": 0, "duration": 61}, {"note": 69, "velocity": 63, "duration": 114}, {"note": 0, "velocity": 0, "duration": 126}, {"note": 71, "velocity": 95, "duration": 1055}, {"note": 0, "velocity": 0, "duration": 145}, {"note": 69, "velocity": 70, "duration": 120}, {"note": 0, "velocity": 0, "duration": 120}, {"note": 71, "velocity": 93, "duration": 110}, {"note": 0, "velocity": 0, "duration": 130}, {"note": 69, "velocity": 67, "duration": 109}, {"note": 0, "velocity": 0, "duration": 131}, {"note": 67, "velocity": 86, "duration": 1127}, {"note": 0, "velocity": 0, "duration": 313}, {"note": 64, "velocity": 85, "duration": 223}, {"note": 67, "velocity": 71, "duration": 275}, {"note": 69, "velocity": 74, "duration": 496}, {"note": 71, "velocity": 111, "duration": 326}, {"note": 0, "velocity": 0, "duration": 154}, {"note": 69, "velocity": 86, "duration": 207}, {"note": 67, "velocity": 83, "duration": 119}, {"note": 0, "velocity": 0, "duration": 121}, {"note": 64, "velocity": 73, "duration": 173}, {"note": 0, "velocity": 0, "duration": 67}, {"note": 67, "velocity": 76, "duration": 138}, {"note": 0, "velocity": 0, "duration": 102}, {"note": 62, "velocity": 76, "duration": 452}, {"note": 0, "velocity": 0, "duration": 988}, {"note": 71, "velocity": 100, "duration": 220}, {"note": 69, "velocity": 73, "duration": 155}, {"note": 0, "velocity": 0, "duration": 85}, {"note": 71, "velocity": 98, "duration": 1035}, {"note": 0, "velocity": 0, "duration": 165}, {"note": 69, "velocity": 79, "duration": 120}, {"note": 0, "velocity": 0, "duration": 120}, {"note": 71, "velocity": 93, "duration": 111}, {"note": 0, "velocity": 0, "duration": 129}, {"note": 69, "velocity": 75, "duration": 108}, {"note": 0, "velocity": 0, "duration": 132}, {"note": 67, "velocity": 81, "duration": 1212}, {"note": 0, "velocity": 0, "duration": 228}, {"note": 64, "velocity": 86, "duration": 213}, {"note": 67, "velocity": 69, "duration": 297}, {"note": 69, "velocity": 67, "duration": 467}, {"note": 71, "velocity": 98, "duration": 374}, {"note": 0, "velocity": 0, "duration": 106}, {"note": 69, "velocity": 76, "duration": 234}, {"note": 67, "velocity": 90, "duration": 137}, {"note": 0, "velocity": 0, "duration": 103}, {"note": 64, "velocity": 69, "duration": 147}, {"note": 0, "velocity": 0, "duration": 93}, {"note": 67, "velocity": 68, "duration": 181}, {"note": 69, "velocity": 74, "duration": 841}, {"note": 0, "velocity": 0, "duration": 599}, {"note": 71, "velocity": 108, "duration": 179}, {"note": 0, "velocity": 0, "duration": 61}, {"note": 69, "velocity": 63, "duration": 114}, {"note": 0, "velocity": 0, "duration": 126}, {"note": 71, "velocity": 95, "duration": 1055}, {"note": 0, "velocity": 0, "duration": 145}, {"note": 69, "velocity": 70, "duration": 120}, {"note": 0, "velocity": 0, "duration": 120}, {"note": 71, "velocity": 93, "duration": 110}, {"note": 0, "velocity": 0, "duration": 130}, {"note": 69, "velocity": 67, "duration": 109}, {"note": 0, "velocity": 0, "duration": 131}, {"note": 67, "velocity": 86, "duration": 1127}, {"note": 0, "velocity": 0, "duration": 313}, {"note": 64, "velocity": 85, "duration": 223}, {"note": 67, "velocity": 71, "duration": 275}, {"note": 69, "velocity": 74, "duration": 496}, {"note": 71, "velocity": 111, "duration": 326}, {"note": 0, "velocity": 0, "duration": 154}, {"note": 69, "velocity": 86, "duration": 207}, {"note": 67, "velocity": 83, "duration": 119}, {"note": 0, "velocity": 0, "duration": 121}, {"note": 64, "velocity": 73, "duration": 173}, {"note": 0, "velocity": 0, "duration": 67}, {"note": 67, "velocity": 76, "duration": 138}, {"note": 0, "velocity": 0, "duration": 102}, {"note": 62, "velocity": 76, "duration": 452}, {"note": 0, "velocity": 0, "duration": 988}, {"note": 71, "velocity": 127, "duration": 87}, {"note": 0, "velocity": 0, "duration": 153}, {"note": 74, "velocity": 100, "duration": 61}, {"note": 0, "velocity": 0, "duration": 179}, {"note": 74, "velocity": 127, "duration": 125}, {"note": 0, "velocity": 0, "duration": 1075}, {"note": 74, "velocity": 117, "duration": 70}, {"note": 0, "velocity": 0, "duration": 170}, {"note": 76, "velocity": 117, "duration": 122}, {"note": 0, "velocity": 0, "duration": 118}, {"note": 74, "velocity": 102, "duration": 62}, {"note": 0, "velocity": 0, "duration": 178}, {"note": 71, "velocity": 117, "duration": 71}, {"note": 69, "velocity": 89, "duration": 110}, {"note": 71, "velocity": 100, "duration": 681}, {"note": 0, "velocity": 0, "duration": 519}, {"note": 69, "velocity": 79, "duration": 115}, {"note": 0, "velocity": 0, "duration": 125}, {"note": 69, "velocity": 79, "duration": 93}, {"note": 0, "velocity": 0, "duration": 147}, {"note": 69, "velocity": 100, "duration": 358}, {"note": 0, "velocity": 0, "duration": 122}, {"note": 71, "velocity": 100, "duration": 291}, {"note": 0, "velocity": 0, "duration": 189}, {"note": 69, "velocity": 104, "duration": 244}, {"note": 67, "velocity": 79, "duration": 251}, {"note": 64, "velocity": 74, "duration": 287}, {"note": 67, "velocity": 85, "duration": 146}, {"note": 0, "velocity": 0, "duration": 94}, {"note": 67, "velocity": 98, "duration": 2116}, {"note": 0, "velocity": 0, "duration": 1004}, {"note": 74, "velocity": 76, "duration": 101}, {"note": 0, "velocity": 0, "duration": 139}, {"note": 74, "velocity": 83, "duration": 105}, {"note": 0, "velocity": 0, "duration": 135}, {"note": 76, "velocity": 83, "duration": 100}, {"note": 0, "velocity": 0, "duration": 140}, {"note": 79, "velocity": 112, "duration": 135}, {"note": 0, "velocity": 0, "duration": 105}, {"note": 78, "velocity": 111, "duration": 81}, {"note": 0, "velocity": 0, "duration": 159}, {"note": 78, "velocity": 98, "duration": 121}, {"note": 0, "velocity": 0, "duration": 119}, {"note": 76, "velocity": 86, "duration": 104}, {"note": 0, "velocity": 0, "duration": 136}, {"note": 71, "velocity": 74, "duration": 235}, {"note": 0, "velocity": 0, "duration": 245}, {"note": 69, "velocity": 66, "duration": 104}, {"note": 0, "velocity": 0, "duration": 136}, {"note": 71, "velocity": 93, "duration": 1318}, {"note": 0, "velocity": 0, "duration": 122}, {"note": 71, "velocity": 87, "duration": 93}, {"note": 0, "velocity": 0, "duration": 147}, {"note": 71, "velocity": 81, "duration": 112}, {"note": 0, "velocity": 0, "duration": 128}, {"note": 74, "velocity": 76, "duration": 103}, {"note": 0, "velocity": 0, "duration": 137}, {"note": 76, "velocity": 108, "duration": 436}, {"note": 76, "velocity": 87, "duration": 483}, {"note": 0, "velocity": 0, "duration": 237}, {"note": 64, "velocity": 67, "duration": 167}, {"note": 0, "velocity": 0, "duration": 73}, {"note": 71, "velocity": 90, "duration": 237}, {"note": 69, "velocity": 75, "duration": 1487}, {"note": 0, "velocity": 0, "duration": 193}, {"note": 71, "velocity": 87, "duration": 135}, {"note": 0, "velocity": 0, "duration": 105}, {"note": 74, "velocity": 85, "duration": 90}, {"note": 0, "velocity": 0, "duration": 150}, {"note": 74, "velocity": 98, "duration": 105}, {"note": 0, "velocity": 0, "duration": 135}, {"note": 71, "velocity": 98, "duration": 90}, {"note": 0, "velocity": 0, "duration": 150}, {"note": 74, "velocity": 108, "duration": 650}, {"note": 0, "velocity": 0, "duration": 70}, {"note": 79, "velocity": 108, "duration": 374}, {"note": 0, "velocity": 0, "duration": 106}, {"note": 78, "velocity": 95, "duration": 174}, {"note": 0, "velocity": 0, "duration": 66}, {"note": 76, "velocity": 79, "duration": 112}, {"note": 0, "velocity": 0, "duration": 128}, {"note": 78, "velocity": 81, "duration": 219}, {"note": 71, "velocity": 93, "duration": 703}, {"note": 76, "velocity": 77, "duration": 82}, {"note": 0, "velocity": 0, "duration": 158}, {"note": 76, "velocity": 77, "duration": 86}, {"note": 0, "velocity": 0, "duration": 154}, {"note": 78, "velocity": 95, "duration": 100}, {"note": 0, "velocity": 0, "duration": 140}, {"note": 76, "velocity": 79, "duration": 305}, {"note": 74, "velocity": 74, "duration": 225}, {"note": 71, "velocity": 73, "duration": 198}, {"note": 69, "velocity": 86, "duration": 381}, {"note": 0, "velocity": 0, "duration": 99}, {"note": 69, "velocity": 77, "duration": 279}, {"note": 0, "velocity": 0, "duration": 201}, {"note": 71, "velocity": 79, "duration": 104}, {"note": 0, "velocity": 0, "duration": 136}, {"note": 74, "velocity": 93, "duration": 960}, {"note": 0, "velocity": 0, "duration": 240}, {"note": 74, "velocity": 76, "duration": 101}, {"note": 0, "velocity": 0, "duration": 139}, {"note": 74, "velocity": 83, "duration": 105}, {"note": 0, "velocity": 0, "duration": 135}, {"note": 76, "velocity": 83, "duration": 100}, {"note": 0, "velocity": 0, "duration": 140}, {"note": 79, "velocity": 112, "duration": 135}, {"note": 0, "velocity": 0, "duration": 105}, {"note": 78, "velocity": 111, "duration": 81}, {"note": 0, "velocity": 0, "duration": 159}, {"note": 78, "velocity": 98, "duration": 121}, {"note": 0, "velocity": 0, "duration": 119}, {"note": 76, "velocity": 86, "duration": 104}, {"note": 0, "velocity": 0, "duration": 136}, {"note": 71, "velocity": 74, "duration": 235}, {"note": 0, "velocity": 0, "duration": 245}, {"note": 69, "velocity": 66, "duration": 104}, {"note": 0, "velocity": 0, "duration": 136}, {"note": 71, "velocity": 93, "duration": 1318}, {"note": 0, "velocity": 0, "duration": 122}, {"note": 71, "velocity": 87, "duration": 93}, {"note": 0, "velocity": 0, "duration": 147}, {"note": 71, "velocity": 81, "duration": 112}, {"note": 0, "velocity": 0, "duration": 128}, {"note": 74, "velocity": 76, "duration": 103}, {"note": 0, "velocity": 0, "duration": 137}, {"note": 76, "velocity": 108, "duration": 436}, {"note": 76, "velocity": 87, "duration": 483}, {"note": 0, "velocity": 0, "duration": 237}, {"note": 64, "velocity": 67, "duration": 167}, {"note": 0, "velocity": 0, "duration": 73}, {"note": 71, "velocity": 90, "duration": 348}, {"note": 0, "velocity": 0, "duration": 132}, {"note": 69, "velocity": 75, "duration": 1247}, {"note": 0, "velocity": 0, "duration": 193}, {"note": 71, "velocity": 87, "duration": 135}, {"note": 0, "velocity": 0, "duration": 105}, {"note": 74, "velocity": 85, "duration": 90}, {"note": 0, "velocity": 0, "duration": 150}, {"note": 74, "velocity": 98, "duration": 105}, {"note": 0, "velocity": 0, "duration": 135}, {"note": 71, "velocity": 98, "duration": 90}, {"note": 0, "velocity": 0, "duration": 150}, {"note": 74, "velocity": 108, "duration": 650}, {"note": 0, "velocity": 0, "duration": 70}, {"note": 79, "velocity": 108, "duration": 374}, {"note": 0, "velocity": 0, "duration": 106}, {"note": 78, "velocity": 95, "duration": 174}, {"note": 0, "velocity": 0, "duration": 66}, {"note": 76, "velocity": 79, "duration": 112}, {"note": 0, "velocity": 0, "duration": 128}, {"note": 78, "velocity": 81, "duration": 219}, {"note": 71, "velocity": 93, "duration": 703}, {"note": 76, "velocity": 77, "duration": 82}, {"note": 0, "velocity": 0, "duration": 158}, {"note": 76, "velocity": 77, "duration": 86}, {"note": 0, "velocity": 0, "duration": 154}, {"note": 78, "velocity": 95, "duration": 100}, {"note": 0, "velocity": 0, "duration": 140}, {"note": 76, "velocity": 79, "duration": 305}, {"note": 74, "velocity": 74, "duration": 225}, {"note": 71, "velocity": 73, "duration": 198}, {"note": 69, "velocity": 86, "duration": 381}, {"note": 0, "velocity": 0, "duration": 99}, {"note": 62, "velocity": 75, "duration": 248}, {"note": 0, "velocity": 0, "duration": 232}, {"note": 64, "velocity": 74, "duration": 89}, {"note": 0, "velocity": 0, "duration": 151}, {"note": 67, "velocity": 87, "duration": 1920}, {"note": 74, "velocity": 76, "duration": 101}, {"note": 74, "velocity": 83, "duration": 105}, {"note": 76, "velocity": 83, "duration": 100}, {"note": 79, "velocity": 112, "duration": 135}, {"note": 0, "velocity": 0, "duration": 105}, {"note": 78, "velocity": 111, "duration": 81}, {"note": 0, "velocity": 0, "duration": 159}, {"note": 78, "velocity": 98, "duration": 121}, {"note": 0, "velocity": 0, "duration": 119}, {"note": 76, "velocity": 86, "duration": 104}, {"note": 0, "velocity": 0, "duration": 136}, {"note": 71, "velocity": 74, "duration": 235}, {"note": 0, "velocity": 0, "duration": 245}, {"note": 69, "velocity": 66, "duration": 104}, {"note": 0, "velocity": 0, "duration": 136}, {"note": 71, "velocity": 93, "duration": 1318}, {"note": 0, "velocity": 0, "duration": 122}, {"note": 71, "velocity": 87, "duration": 93}, {"note": 0, "velocity": 0, "duration": 147}, {"note": 71, "velocity": 81, "duration": 112}, {"note": 0, "velocity": 0, "duration": 128}, {"note": 74, "velocity": 76, "duration": 103}, {"note": 0, "velocity": 0, "duration": 137}, {"note": 76, "velocity": 108, "duration": 436}, {"note": 76, "velocity": 87, "duration": 483}, {"note": 0, "velocity": 0, "duration": 237}, {"note": 64, "velocity": 67, "duration": 167}, {"note": 0, "velocity": 0, "duration": 73}, {"note": 71, "velocity": 90, "duration": 348}, {"note": 0, "velocity": 0, "duration": 132}, {"note": 69, "velocity": 75, "duration": 1247}, {"note": 0, "velocity": 0, "duration": 193}, {"note": 71, "velocity": 87, "duration": 135}, {"note": 0, "velocity": 0, "duration": 105}, {"note": 74, "velocity": 85, "duration": 90}, {"note": 0, "velocity": 0, "duration": 150}, {"note": 74, "velocity": 98, "duration": 105}, {"note": 0, "velocity": 0, "duration": 135}, {"note": 71, "velocity": 98, "duration": 90}, {"note": 0, "velocity": 0, "duration": 150}, {"note": 74, "velocity": 108, "duration": 650}, {"note": 0, "velocity": 0, "duration": 70}, {"note": 79, "velocity": 108, "duration": 374}, {"note": 0, "velocity": 0, "duration": 106}, {"note": 78, "velocity": 95, "duration": 174}, {"note": 0, "velocity": 0, "duration": 66}, {"note": 76, "velocity": 79, "duration": 112}, {"note": 0, "velocity": 0, "duration": 128}, {"note": 78, "velocity": 81, "duration": 219}, {"note": 71, "velocity": 93, "duration": 703}, {"note": 76, "velocity": 77, "duration": 82}, {"note": 0, "velocity": 0, "duration": 158}, {"note": 76, "velocity": 77, "duration": 86}, {"note": 0, "velocity": 0, "duration": 154}, {"note": 78, "velocity": 95, "duration": 100}, {"note": 0, "velocity": 0, "duration": 140}, {"note": 76, "velocity": 79, "duration": 305}, {"note": 74, "velocity": 74, "duration": 225}, {"note": 71, "velocity": 73, "duration": 198}, {"note": 69, "velocity": 86, "duration": 381}, {"note": 0, "velocity": 0, "duration": 99}, {"note": 62, "velocity": 75, "duration": 248}, {"note": 0, "velocity": 0, "duration": 232}, {"note": 64, "velocity": 74, "duration": 89}, {"note": 0, "velocity": 0, "duration": 151}, {"note": 67, "velocity": 87, "duration": 1920}, {"note": 71, "velocity": 95, "duration": 146}, {"note": 74, "velocity": 83, "duration": 91}, {"note": 74, "velocity": 87, "duration": 142}, {"note": 0, "velocity": 0, "duration": 98}, {"note": 71, "velocity": 100, "duration": 123}, {"note": 0, "velocity": 0, "duration": 117}, {"note": 74, "velocity": 86, "duration": 543}, {"note": 0, "velocity": 0, "duration": 177}, {"note": 79, "velocity": 86, "duration": 410}, {"note": 0, "velocity": 0, "duration": 70}, {"note": 78, "velocity": 69, "duration": 235}, {"note": 76, "velocity": 60, "duration": 203}, {"note": 78, "velocity": 74, "duration": 236}, {"note": 71, "velocity": 83, "duration": 552}, {"note": 0, "velocity": 0, "duration": 168}, {"note": 76, "velocity": 76, "duration": 91}, {"note": 0, "velocity": 0, "duration": 149}, {"note": 76, "velocity": 75, "duration": 98}, {"note": 0, "velocity": 0, "duration": 142}, {"note": 78, "velocity": 87, "duration": 127}, {"note": 0, "velocity": 0, "duration": 113}, {"note": 76, "velocity": 72, "duration": 250}, {"note": 74, "velocity": 77, "duration": 166}, {"note": 0, "velocity": 0, "duration": 74}, {"note": 71, "velocity": 98, "duration": 255}, {"note": 69, "velocity": 63, "duration": 1265}, {"note": 0, "velocity": 0, "duration": 295}, {"note": 62, "velocity": 73, "duration": 844}, {"note": 0, "velocity": 0, "duration": 236}, {"note": 64, "velocity": 72, "duration": 268}, {"note": 0, "velocity": 0, "duration": 212}, {"note": 67, "velocity": 62, "duration": 1189}]]