[[{"note": 70, "velocity": 127, "duration": 189}, {"note": 0, "velocity": 0, "duration": 531}, {"note": 70, "velocity": 127, "duration": 121}, {"note": 0, "velocity": 0, "duration": 119}, {"note": 70, "velocity": 127, "duration": 202}, {"note": 0, "velocity": 0, "duration": 278}, {"note": 68, "velocity": 127, "duration": 177}, {"note": 0, "velocity": 0, "duration": 303}, {"note": 70, "velocity": 127, "duration": 154}, {"note": 0, "velocity": 0, "duration": 326}, {"note": 70, "velocity": 127, "duration": 175}, {"note": 0, "velocity": 0, "duration": 305}, {"note": 70, "velocity": 127, "duration": 166}, {"note": 0, "velocity": 0, "duration": 794}, {"note": 70, "velocity": 127, "duration": 124}, {"note": 0, "velocity": 0, "duration": 356}, {"note": 66, "velocity": 127, "duration": 70}, {"note": 0, "velocity": 0, "duration": 170}, {"note": 63, "velocity": 127, "duration": 76}, {"note": 0, "velocity": 0, "duration": 164}, {"note": 66, "velocity": 127, "duration": 80}, {"note": 0, "velocity": 0, "duration": 400}, {"note": 70, "velocity": 127, "duration": 121}, {"note": 0, "velocity": 0, "duration": 359}, {"note": 70, "velocity": 127, "duration": 121}, {"note": 0, "velocity": 0, "duration": 359}, {"note": 63, "velocity": 127, "duration": 166}, {"note": 0, "velocity": 0, "duration": 314}, {"note": 70, "velocity": 127, "duration": 119}, {"note": 0, "velocity": 0, "duration": 841}, {"note": 70, "velocity": 127, "duration": 132}, {"note": 0, "velocity": 0, "duration": 348}, {"note": 66, "velocity": 127, "duration": 76}, {"note": 0, "velocity": 0, "duration": 164}, {"note": 63, "velocity": 112, "duration": 81}, {"note": 0, "velocity": 0, "duration": 159}, {"note": 66, "velocity": 127, "duration": 83}, {"note": 0, "velocity": 0, "duration": 397}, {"note": 70, "velocity": 127, "duration": 77}, {"note": 0, "velocity": 0, "duration": 163}, {"note": 68, "velocity": 127, "duration": 62}, {"note": 0, "velocity": 0, "duration": 178}, {"note": 61, "velocity": 127, "duration": 138}, {"note": 0, "velocity": 0, "duration": 342}, {"note": 70, "velocity": 112, "duration": 127}, {"note": 0, "velocity": 0, "duration": 353}, {"note": 61, "velocity": 127, "duration": 187}, {"note": 0, "velocity": 0, "duration": 773}, {"note": 70, "velocity": 127, "duration": 73}, {"note": 0, "velocity": 0, "duration": 167}, {"note": 68, "velocity": 117, "duration": 70}, {"note": 0, "velocity": 0, "duration": 170}, {"note": 70, "velocity": 127, "duration": 75}, {"note": 0, "velocity": 0, "duration": 165}, {"note": 68, "velocity": 127, "duration": 61}, {"note": 0, "velocity": 0, "duration": 179}, {"note": 70, "velocity": 127, "duration": 93}, {"note": 0, "velocity": 0, "duration": 387}, {"note": 68, "velocity": 127, "duration": 115}, {"note": 0, "velocity": 0, "duration": 365}, {"note": 70, "velocity": 127, "duration": 109}, {"note": 0, "velocity": 0, "duration": 371}, {"note": 61, "velocity": 127, "duration": 118}, {"note": 0, "velocity": 0, "duration": 362}, {"note": 70, "velocity": 127, "duration": 147}, {"note": 0, "velocity": 0, "duration": 813}, {"note": 73, "velocity": 127, "duration": 308}, {"note": 0, "velocity": 0, "duration": 172}, {"note": 73, "velocity": 122, "duration": 240}, {"note": 70, "velocity": 122, "duration": 242}, {"note": 73, "velocity": 122, "duration": 560}, {"note": 73, "velocity": 127, "duration": 80}, {"note": 0, "velocity": 0, "duration": 160}, {"note": 75, "velocity": 117, "duration": 240}, {"note": 78, "velocity": 117, "duration": 239}, {"note": 78, "velocity": 117, "duration": 239}, {"note": 78, "velocity": 117, "duration": 240}, {"note": 75, "velocity": 127, "duration": 240}, {"note": 73, "velocity": 127, "duration": 959}, {"note": 73, "velocity": 127, "duration": 240}, {"note": 78, "velocity": 122, "duration": 480}, {"note": 75, "velocity": 127, "duration": 240}, {"note": 73, "velocity": 127, "duration": 480}, {"note": 70, "velocity": 127, "duration": 240}, {"note": 68, "velocity": 97, "duration": 240}, {"note": 70, "velocity": 127, "duration": 242}, {"note": 68, "velocity": 99, "duration": 250}, {"note": 73, "velocity": 117, "duration": 268}, {"note": 70, "velocity": 127, "duration": 244}, {"note": 68, "velocity": 127, "duration": 960}, {"note": 73, "velocity": 127, "duration": 479}, {"note": 73, "velocity": 127, "duration": 240}, {"note": 70, "velocity": 117, "duration": 240}, {"note": 73, "velocity": 117, "duration": 479}, {"note": 73, "velocity": 127, "duration": 239}, {"note": 73, "velocity": 122, "duration": 286}, {"note": 68, "velocity": 117, "duration": 252}, {"note": 70, "velocity": 127, "duration": 239}, {"note": 70, "velocity": 112, "duration": 240}, {"note": 68, "velocity": 99, "duration": 240}, {"note": 66, "velocity": 97, "duration": 960}, {"note": 68, "velocity": 127, "duration": 239}, {"note": 68, "velocity": 122, "duration": 239}, {"note": 68, "velocity": 127, "duration": 240}, {"note": 70, "velocity": 127, "duration": 240}, {"note": 73, "velocity": 127, "duration": 479}, {"note": 73, "velocity": 127, "duration": 240}, {"note": 70, "velocity": 127, "duration": 245}, {"note": 68, "velocity": 127, "duration": 240}, {"note": 66, "velocity": 117, "duration": 240}, {"note": 63, "velocity": 117, "duration": 257}, {"note": 66, "velocity": 127, "duration": 240}, {"note": 61, "velocity": 117, "duration": 960}, {"note": 73, "velocity": 127, "duration": 479}, {"note": 73, "velocity": 127, "duration": 240}, {"note": 70, "velocity": 122, "duration": 242}, {"note": 73, "velocity": 122, "duration": 479}, {"note": 73, "velocity": 127, "duration": 240}, {"note": 75, "velocity": 117, "duration": 240}, {"note": 78, "velocity": 117, "duration": 479}, {"note": 78, "velocity": 117, "duration": 240}, {"note": 75, "velocity": 127, "duration": 240}, {"note": 73, "velocity": 127, "duration": 959}, {"note": 73, "velocity": 127, "duration": 240}, {"note": 78, "velocity": 122, "duration": 480}, {"note": 75, "velocity": 127, "duration": 240}, {"note": 73, "velocity": 127, "duration": 480}, {"note": 70, "velocity": 127, "duration": 240}, {"note": 68, "velocity": 97, "duration": 240}, {"note": 70, "velocity": 127, "duration": 242}, {"note": 68, "velocity": 99, "duration": 250}, {"note": 73, "velocity": 117, "duration": 268}, {"note": 70, "velocity": 127, "duration": 244}, {"note": 68, "velocity": 127, "duration": 960}, {"note": 73, "velocity": 127, "duration": 479}, {"note": 73, "velocity": 127, "duration": 240}, {"note": 70, "velocity": 117, "duration": 240}, {"note": 73, "velocity": 117, "duration": 479}, {"note": 73, "velocity": 127, "duration": 240}, {"note": 70, "velocity": 122, "duration": 228}, {"note": 68, "velocity": 117, "duration": 252}, {"note": 70, "velocity": 127, "duration": 239}, {"note": 70, "velocity": 112, "duration": 240}, {"note": 68, "velocity": 99, "duration": 240}, {"note": 66, "velocity": 97, "duration": 960}, {"note": 68, "velocity": 127, "duration": 239}, {"note": 68, "velocity": 122, "duration": 239}, {"note": 68, "velocity": 127, "duration": 240}, {"note": 70, "velocity": 127, "duration": 240}, {"note": 73, "velocity": 127, "duration": 479}, {"note": 73, "velocity": 127, "duration": 240}, {"note": 70, "velocity": 127, "duration": 245}, {"note": 68, "velocity": 127, "duration": 240}, {"note": 66, "velocity": 117, "duration": 240}, {"note": 63, "velocity": 117, "duration": 257}, {"note": 66, "velocity": 127, "duration": 240}, {"note": 61, "velocity": 117, "duration": 960}, {"note": 78, "velocity": 127, "duration": 479}, {"note": 78, "velocity": 127, "duration": 240}, {"note": 75, "velocity": 127, "duration": 240}, {"note": 78, "velocity": 127, "duration": 479}, {"note": 78, "velocity": 127, "duration": 161}, {"note": 75, "velocity": 122, "duration": 360}, {"note": 73, "velocity": 127, "duration": 480}, {"note": 75, "velocity": 122, "duration": 486}, {"note": 73, "velocity": 127, "duration": 959}, {"note": 73, "velocity": 127, "duration": 240}, {"note": 78, "velocity": 127, "duration": 480}, {"note": 75, "velocity": 122, "duration": 240}, {"note": 73, "velocity": 112, "duration": 239}, {"note": 73, "velocity": 127, "duration": 240}, {"note": 70, "velocity": 127, "duration": 240}, {"note": 68, "velocity": 112, "duration": 240}, {"note": 70, "velocity": 127, "duration": 240}, {"note": 68, "velocity": 97, "duration": 240}, {"note": 73, "velocity": 127, "duration": 240}, {"note": 70, "velocity": 102, "duration": 240}, {"note": 68, "velocity": 117, "duration": 960}, {"note": 73, "velocity": 127, "duration": 479}, {"note": 73, "velocity": 127, "duration": 240}, {"note": 70, "velocity": 127, "duration": 240}, {"note": 73, "velocity": 127, "duration": 479}, {"note": 73, "velocity": 127, "duration": 239}, {"note": 73, "velocity": 127, "duration": 240}, {"note": 68, "velocity": 127, "duration": 240}, {"note": 70, "velocity": 102, "duration": 239}, {"note": 70, "velocity": 127, "duration": 240}, {"note": 68, "velocity": 112, "duration": 240}, {"note": 66, "velocity": 117, "duration": 720}, {"note": 63, "velocity": 100, "duration": 240}, {"note": 68, "velocity": 127, "duration": 239}, {"note": 68, "velocity": 117, "duration": 239}, {"note": 68, "velocity": 127, "duration": 240}, {"note": 70, "velocity": 112, "duration": 240}, {"note": 68, "velocity": 117, "duration": 240}, {"note": 66, "velocity": 117, "duration": 240}, {"note": 63, "velocity": 112, "duration": 240}, {"note": 66, "velocity": 112, "duration": 239}, {"note": 66, "velocity": 127, "duration": 1920}, {"note": 0, "velocity": 0, "duration": 15360}, {"note": 73, "velocity": 127, "duration": 479}, {"note": 73, "velocity": 127, "duration": 240}, {"note": 70, "velocity": 122, "duration": 242}, {"note": 73, "velocity": 122, "duration": 479}, {"note": 73, "velocity": 127, "duration": 240}, {"note": 75, "velocity": 117, "duration": 240}, {"note": 78, "velocity": 117, "duration": 479}, {"note": 78, "velocity": 117, "duration": 240}, {"note": 75, "velocity": 127, "duration": 240}, {"note": 73, "velocity": 127, "duration": 959}, {"note": 73, "velocity": 127, "duration": 239}, {"note": 73, "velocity": 122, "duration": 480}, {"note": 75, "velocity": 127, "duration": 240}, {"note": 73, "velocity": 127, "duration": 480}, {"note": 70, "velocity": 127, "duration": 240}, {"note": 68, "velocity": 97, "duration": 240}, {"note": 70, "velocity": 127, "duration": 242}, {"note": 68, "velocity": 99, "duration": 250}, {"note": 73, "velocity": 117, "duration": 268}, {"note": 70, "velocity": 127, "duration": 244}, {"note": 68, "velocity": 127, "duration": 960}, {"note": 70, "velocity": 127, "duration": 479}, {"note": 70, "velocity": 127, "duration": 240}, {"note": 68, "velocity": 96, "duration": 240}, {"note": 73, "velocity": 122, "duration": 479}, {"note": 73, "velocity": 127, "duration": 239}, {"note": 73, "velocity": 127, "duration": 228}, {"note": 68, "velocity": 117, "duration": 252}, {"note": 70, "velocity": 127, "duration": 239}, {"note": 70, "velocity": 112, "duration": 240}, {"note": 68, "velocity": 99, "duration": 240}, {"note": 66, "velocity": 97, "duration": 960}, {"note": 68, "velocity": 127, "duration": 239}, {"note": 68, "velocity": 122, "duration": 239}, {"note": 68, "velocity": 127, "duration": 240}, {"note": 70, "velocity": 127, "duration": 240}, {"note": 73, "velocity": 127, "duration": 479}, {"note": 73, "velocity": 127, "duration": 240}, {"note": 70, "velocity": 127, "duration": 245}, {"note": 68, "velocity": 127, "duration": 240}, {"note": 66, "velocity": 117, "duration": 240}, {"note": 63, "velocity": 117, "duration": 257}, {"note": 66, "velocity": 127, "duration": 240}, {"note": 61, "velocity": 117, "duration": 960}, {"note": 78, "velocity": 127, "duration": 479}, {"note": 78, "velocity": 127, "duration": 240}, {"note": 75, "velocity": 127, "duration": 240}, {"note": 78, "velocity": 127, "duration": 479}, {"note": 78, "velocity": 127, "duration": 161}, {"note": 75, "velocity": 122, "duration": 360}, {"note": 73, "velocity": 127, "duration": 480}, {"note": 75, "velocity": 122, "duration": 486}, {"note": 73, "velocity": 127, "duration": 959}, {"note": 73, "velocity": 127, "duration": 240}, {"note": 78, "velocity": 127, "duration": 480}, {"note": 75, "velocity": 122, "duration": 240}, {"note": 80, "velocity": 127, "duration": 480}, {"note": 78, "velocity": 127, "duration": 240}, {"note": 75, "velocity": 122, "duration": 240}, {"note": 73, "velocity": 127, "duration": 240}, {"note": 75, "velocity": 122, "duration": 240}, {"note": 73, "velocity": 112, "duration": 240}, {"note": 70, "velocity": 122, "duration": 240}, {"note": 68, "velocity": 99, "duration": 960}, {"note": 66, "velocity": 127, "duration": 479}, {"note": 66, "velocity": 127, "duration": 171}, {"note": 63, "velocity": 100, "duration": 360}, {"note": 66, "velocity": 127, "duration": 479}, {"note": 66, "velocity": 127, "duration": 240}, {"note": 63, "velocity": 99, "duration": 240}, {"note": 66, "velocity": 127, "duration": 480}, {"note": 68, "velocity": 127, "duration": 480}, {"note": 73, "velocity": 127, "duration": 960}, {"note": 68, "velocity": 127, "duration": 239}, {"note": 68, "velocity": 117, "duration": 240}, {"note": 68, "velocity": 112, "duration": 240}, {"note": 66, "velocity": 117, "duration": 240}, {"note": 68, "velocity": 127, "duration": 480}, {"note": 78, "velocity": 127, "duration": 240}, {"note": 75, "velocity": 122, "duration": 240}, {"note": 73, "velocity": 127, "duration": 3839}, {"note": 73, "velocity": 127, "duration": 479}, {"note": 73, "velocity": 122, "duration": 240}, {"note": 70, "velocity": 122, "duration": 242}, {"note": 73, "velocity": 122, "duration": 560}, {"note": 73, "velocity": 127, "duration": 80}, {"note": 0, "velocity": 0, "duration": 160}, {"note": 75, "velocity": 117, "duration": 240}, {"note": 78, "velocity": 117, "duration": 239}, {"note": 78, "velocity": 117, "duration": 239}, {"note": 78, "velocity": 117, "duration": 240}, {"note": 75, "velocity": 127, "duration": 240}, {"note": 73, "velocity": 127, "duration": 959}, {"note": 73, "velocity": 127, "duration": 240}, {"note": 78, "velocity": 122, "duration": 480}, {"note": 75, "velocity": 127, "duration": 240}, {"note": 73, "velocity": 127, "duration": 480}, {"note": 70, "velocity": 127, "duration": 240}, {"note": 68, "velocity": 97, "duration": 240}, {"note": 70, "velocity": 127, "duration": 242}, {"note": 68, "velocity": 99, "duration": 250}, {"note": 73, "velocity": 117, "duration": 268}, {"note": 70, "velocity": 127, "duration": 244}, {"note": 68, "velocity": 127, "duration": 960}, {"note": 73, "velocity": 127, "duration": 479}, {"note": 73, "velocity": 127, "duration": 240}, {"note": 70, "velocity": 117, "duration": 240}, {"note": 73, "velocity": 117, "duration": 479}, {"note": 73, "velocity": 127, "duration": 239}, {"note": 73, "velocity": 122, "duration": 286}, {"note": 68, "velocity": 117, "duration": 252}, {"note": 70, "velocity": 127, "duration": 239}, {"note": 70, "velocity": 112, "duration": 240}, {"note": 68, "velocity": 99, "duration": 240}, {"note": 66, "velocity": 97, "duration": 960}, {"note": 68, "velocity": 127, "duration": 239}, {"note": 68, "velocity": 122, "duration": 239}, {"note": 68, "velocity": 127, "duration": 240}, {"note": 70, "velocity": 127, "duration": 240}, {"note": 73, "velocity": 127, "duration": 479}, {"note": 73, "velocity": 127, "duration": 240}, {"note": 70, "velocity": 127, "duration": 245}, {"note": 68, "velocity": 127, "duration": 240}, {"note": 66, "velocity": 117, "duration": 240}, {"note": 63, "velocity": 117, "duration": 257}, {"note": 66, "velocity": 127, "duration": 240}, {"note": 61, "velocity": 117, "duration": 960}, {"note": 73, "velocity": 127, "duration": 479}, {"note": 73, "velocity": 127, "duration": 240}, {"note": 70, "velocity": 122, "duration": 242}, {"note": 73, "velocity": 122, "duration": 479}, {"note": 73, "velocity": 127, "duration": 240}, {"note": 75, "velocity": 117, "duration": 240}, {"note": 78, "velocity": 117, "duration": 479}, {"note": 78, "velocity": 117, "duration": 240}, {"note": 75, "velocity": 127, "duration": 240}, {"note": 73, "velocity": 127, "duration": 959}, {"note": 73, "velocity": 127, "duration": 240}, {"note": 78, "velocity": 122, "duration": 480}, {"note": 75, "velocity": 127, "duration": 240}, {"note": 73, "velocity": 127, "duration": 480}, {"note": 70, "velocity": 127, "duration": 240}, {"note": 68, "velocity": 97, "duration": 240}, {"note": 70, "velocity": 127, "duration": 242}, {"note": 68, "velocity": 99, "duration": 250}, {"note": 73, "velocity": 117, "duration": 268}, {"note": 70, "velocity": 127, "duration": 244}, {"note": 68, "velocity": 127, "duration": 960}, {"note": 73, "velocity": 127, "duration": 479}, {"note": 73, "velocity": 127, "duration": 240}, {"note": 70, "velocity": 117, "duration": 240}, {"note": 73, "velocity": 117, "duration": 479}, {"note": 73, "velocity": 127, "duration": 240}, {"note": 70, "velocity": 122, "duration": 228}, {"note": 68, "velocity": 117, "duration": 252}, {"note": 70, "velocity": 127, "duration": 239}, {"note": 70, "velocity": 112, "duration": 240}, {"note": 68, "velocity": 99, "duration": 240}, {"note": 66, "velocity": 97, "duration": 960}, {"note": 68, "velocity": 127, "duration": 239}, {"note": 68, "velocity": 122, "duration": 239}, {"note": 68, "velocity": 127, "duration": 240}, {"note": 70, "velocity": 127, "duration": 240}, {"note": 73, "velocity": 127, "duration": 479}, {"note": 73, "velocity": 127, "duration": 240}, {"note": 70, "velocity": 127, "duration": 245}, {"note": 68, "velocity": 127, "duration": 240}, {"note": 66, "velocity": 117, "duration": 240}, {"note": 63, "velocity": 117, "duration": 257}, {"note": 66, "velocity": 127, "duration": 240}, {"note": 61, "velocity": 117, "duration": 960}, {"note": 78, "velocity": 127, "duration": 479}, {"note": 78, "velocity": 127, "duration": 240}, {"note": 75, "velocity": 127, "duration": 240}, {"note": 78, "velocity": 127, "duration": 479}, {"note": 78, "velocity": 127, "duration": 161}, {"note": 75, "velocity": 122, "duration": 360}, {"note": 73, "velocity": 127, "duration": 480}, {"note": 75, "velocity": 122, "duration": 486}, {"note": 73, "velocity": 127, "duration": 959}, {"note": 73, "velocity": 127, "duration": 240}, {"note": 78, "velocity": 127, "duration": 480}, {"note": 75, "velocity": 122, "duration": 240}, {"note": 73, "velocity": 112, "duration": 239}, {"note": 73, "velocity": 127, "duration": 240}, {"note": 70, "velocity": 127, "duration": 240}, {"note": 68, "velocity": 112, "duration": 240}, {"note": 70, "velocity": 127, "duration": 240}, {"note": 68, "velocity": 97, "duration": 240}, {"note": 73, "velocity": 127, "duration": 240}, {"note": 70, "velocity": 102, "duration": 240}, {"note": 68, "velocity": 117, "duration": 960}, {"note": 73, "velocity": 127, "duration": 479}, {"note": 73, "velocity": 127, "duration": 240}, {"note": 70, "velocity": 127, "duration": 240}, {"note": 73, "velocity": 127, "duration": 479}, {"note": 73, "velocity": 127, "duration": 239}, {"note": 73, "velocity": 127, "duration": 240}, {"note": 68, "velocity": 127, "duration": 240}, {"note": 70, "velocity": 102, "duration": 239}, {"note": 70, "velocity": 127, "duration": 240}, {"note": 68, "velocity": 112, "duration": 240}, {"note": 66, "velocity": 117, "duration": 720}, {"note": 63, "velocity": 100, "duration": 240}, {"note": 68, "velocity": 127, "duration": 239}, {"note": 68, "velocity": 117, "duration": 239}, {"note": 68, "velocity": 127, "duration": 240}, {"note": 70, "velocity": 112, "duration": 240}, {"note": 68, "velocity": 117, "duration": 240}, {"note": 66, "velocity": 117, "duration": 240}, {"note": 63, "velocity": 112, "duration": 240}, {"note": 66, "velocity": 112, "duration": 239}, {"note": 66, "velocity": 127, "duration": 1680}, {"note": 63, "velocity": 100, "duration": 240}, {"note": 68, "velocity": 127, "duration": 239}, {"note": 68, "velocity": 117, "duration": 239}, {"note": 68, "velocity": 127, "duration": 240}, {"note": 70, "velocity": 112, "duration": 240}, {"note": 68, "velocity": 117, "duration": 240}, {"note": 66, "velocity": 117, "duration": 240}, {"note": 63, "velocity": 112, "duration": 240}, {"note": 66, "velocity": 112, "duration": 239}, {"note": 66, "velocity": 127, "duration": 1920}, {"note": 70, "velocity": 127, "duration": 720}, {"note": 61, "velocity": 122, "duration": 240}, {"note": 70, "velocity": 127, "duration": 480}, {"note": 68, "velocity": 127, "duration": 480}, {"note": 70, "velocity": 127, "duration": 480}, {"note": 68, "velocity": 127, "duration": 480}, {"note": 70, "velocity": 127, "duration": 960}, {"note": 68, "velocity": 127, "duration": 240}, {"note": 70, "velocity": 117, "duration": 240}, {"note": 63, "velocity": 127, "duration": 240}, {"note": 61, "velocity": 97, "duration": 240}, {"note": 68, "velocity": 127, "duration": 479}, {"note": 68, "velocity": 127, "duration": 480}, {"note": 70, "velocity": 127, "duration": 480}, {"note": 68, "velocity": 127, "duration": 480}, {"note": 61, "velocity": 127, "duration": 960}, {"note": 70, "velocity": 127, "duration": 720}, {"note": 68, "velocity": 127, "duration": 240}, {"note": 61, "velocity": 122, "duration": 480}, {"note": 70, "velocity": 127, "duration": 480}, {"note": 68, "velocity": 127, "duration": 480}, {"note": 70, "velocity": 127, "duration": 480}, {"note": 68, "velocity": 127, "duration": 960}, {"note": 61, "velocity": 127, "duration": 480}, {"note": 68, "velocity": 127, "duration": 480}, {"note": 61, "velocity": 127, "duration": 720}, {"note": 68, "velocity": 127, "duration": 240}, {"note": 61, "velocity": 117, "duration": 240}, {"note": 63, "velocity": 127, "duration": 240}, {"note": 68, "velocity": 127, "duration": 240}, {"note": 63, "velocity": 112, "duration": 240}, {"note": 68, "velocity": 127, "duration": 960}, {"note": 70, "velocity": 127, "duration": 600}, {"note": 61, "velocity": 107, "duration": 360}, {"note": 70, "velocity": 127, "duration": 480}, {"note": 68, "velocity": 127, "duration": 480}, {"note": 70, "velocity": 127, "duration": 480}, {"note": 68, "velocity": 127, "duration": 480}, {"note": 61, "velocity": 127, "duration": 960}, {"note": 68, "velocity": 127, "duration": 240}, {"note": 70, "velocity": 127, "duration": 240}, {"note": 61, "velocity": 122, "duration": 239}, {"note": 61, "velocity": 122, "duration": 240}, {"note": 68, "velocity": 127, "duration": 479}, {"note": 68, "velocity": 127, "duration": 479}, {"note": 68, "velocity": 127, "duration": 480}, {"note": 70, "velocity": 127, "duration": 480}, {"note": 61, "velocity": 127, "duration": 960}, {"note": 68, "velocity": 127, "duration": 46}, {"note": 70, "velocity": 127, "duration": 46}, {"note": 61, "velocity": 122, "duration": 46}, {"note": 70, "velocity": 127, "duration": 46}, {"note": 68, "velocity": 127, "duration": 46}, {"note": 70, "velocity": 127, "duration": 46}, {"note": 61, "velocity": 127, "duration": 45}, {"note": 61, "velocity": 127, "duration": 46}, {"note": 68, "velocity": 112, "duration": 45}]]