[[{"note": 76, "velocity": 127, "duration": 398}, {"note": 0, "velocity": 0, "duration": 82}, {"note": 78, "velocity": 122, "duration": 252}, {"note": 76, "velocity": 100, "duration": 219}, {"note": 74, "velocity": 112, "duration": 447}, {"note": 71, "velocity": 112, "duration": 387}, {"note": 74, "velocity": 102, "duration": 261}, {"note": 76, "velocity": 107, "duration": 650}, {"note": 78, "velocity": 122, "duration": 233}, {"note": 76, "velocity": 96, "duration": 227}, {"note": 74, "velocity": 100, "duration": 329}, {"note": 71, "velocity": 102, "duration": 542}, {"note": 0, "velocity": 0, "duration": 178}, {"note": 83, "velocity": 122, "duration": 245}, {"note": 86, "velocity": 122, "duration": 392}, {"note": 0, "velocity": 0, "duration": 88}, {"note": 83, "velocity": 107, "duration": 173}, {"note": 0, "velocity": 0, "duration": 67}, {"note": 88, "velocity": 127, "duration": 194}, {"note": 86, "velocity": 107, "duration": 217}, {"note": 83, "velocity": 102, "duration": 231}, {"note": 81, "velocity": 117, "duration": 222}, {"note": 83, "velocity": 127, "duration": 542}, {"note": 0, "velocity": 0, "duration": 1378}, {"note": 83, "velocity": 122, "duration": 267}, {"note": 86, "velocity": 100, "duration": 99}, {"note": 0, "velocity": 0, "duration": 141}, {"note": 86, "velocity": 127, "duration": 206}, {"note": 83, "velocity": 102, "duration": 223}, {"note": 88, "velocity": 127, "duration": 642}, {"note": 0, "velocity": 0, "duration": 318}, {"note": 81, "velocity": 127, "duration": 175}, {"note": 0, "velocity": 0, "duration": 65}, {"note": 81, "velocity": 99, "duration": 217}, {"note": 83, "velocity": 122, "duration": 215}, {"note": 81, "velocity": 100, "duration": 201}, {"note": 79, "velocity": 107, "duration": 191}, {"note": 0, "velocity": 0, "duration": 769}, {"note": 71, "velocity": 112, "duration": 182}, {"note": 74, "velocity": 100, "duration": 177}, {"note": 0, "velocity": 0, "duration": 63}, {"note": 76, "velocity": 99, "duration": 175}, {"note": 0, "velocity": 0, "duration": 65}, {"note": 83, "velocity": 107, "duration": 211}, {"note": 81, "velocity": 127, "duration": 311}, {"note": 81, "velocity": 122, "duration": 71}, {"note": 78, "velocity": 107, "duration": 242}, {"note": 0, "velocity": 0, "duration": 118}, {"note": 76, "velocity": 92, "duration": 245}, {"note": 74, "velocity": 93, "duration": 1484}, {"note": 0, "velocity": 0, "duration": 436}, {"note": 76, "velocity": 97, "duration": 184}, {"note": 76, "velocity": 88, "duration": 231}, {"note": 78, "velocity": 102, "duration": 224}, {"note": 76, "velocity": 92, "duration": 251}, {"note": 74, "velocity": 95, "duration": 407}, {"note": 0, "velocity": 0, "duration": 73}, {"note": 71, "velocity": 100, "duration": 191}, {"note": 74, "velocity": 100, "duration": 223}, {"note": 76, "velocity": 100, "duration": 172}, {"note": 0, "velocity": 0, "duration": 68}, {"note": 76, "velocity": 97, "duration": 202}, {"note": 78, "velocity": 127, "duration": 198}, {"note": 76, "velocity": 112, "duration": 211}, {"note": 74, "velocity": 107, "duration": 344}, {"note": 71, "velocity": 90, "duration": 559}, {"note": 0, "velocity": 0, "duration": 161}, {"note": 83, "velocity": 102, "duration": 208}, {"note": 86, "velocity": 107, "duration": 446}, {"note": 83, "velocity": 100, "duration": 240}, {"note": 88, "velocity": 117, "duration": 178}, {"note": 0, "velocity": 0, "duration": 62}, {"note": 86, "velocity": 117, "duration": 214}, {"note": 83, "velocity": 97, "duration": 199}, {"note": 81, "velocity": 100, "duration": 189}, {"note": 81, "velocity": 97, "duration": 257}, {"note": 83, "velocity": 100, "duration": 1450}, {"note": 0, "velocity": 0, "duration": 230}, {"note": 86, "velocity": 122, "duration": 151}, {"note": 0, "velocity": 0, "duration": 89}, {"note": 86, "velocity": 122, "duration": 196}, {"note": 83, "velocity": 99, "duration": 202}, {"note": 86, "velocity": 127, "duration": 218}, {"note": 88, "velocity": 122, "duration": 568}, {"note": 88, "velocity": 122, "duration": 88}, {"note": 0, "velocity": 0, "duration": 152}, {"note": 83, "velocity": 107, "duration": 228}, {"note": 81, "velocity": 97, "duration": 237}, {"note": 81, "velocity": 117, "duration": 254}, {"note": 83, "velocity": 112, "duration": 244}, {"note": 81, "velocity": 96, "duration": 312}, {"note": 79, "velocity": 107, "duration": 517}, {"note": 0, "velocity": 0, "duration": 443}, {"note": 71, "velocity": 102, "duration": 204}, {"note": 74, "velocity": 92, "duration": 196}, {"note": 76, "velocity": 100, "duration": 160}, {"note": 0, "velocity": 0, "duration": 80}, {"note": 83, "velocity": 117, "duration": 212}, {"note": 81, "velocity": 127, "duration": 433}, {"note": 81, "velocity": 127, "duration": 203}, {"note": 78, "velocity": 122, "duration": 236}, {"note": 76, "velocity": 112, "duration": 219}, {"note": 78, "velocity": 117, "duration": 246}, {"note": 74, "velocity": 96, "duration": 242}, {"note": 71, "velocity": 96, "duration": 676}, {"note": 81, "velocity": 122, "duration": 217}, {"note": 78, "velocity": 102, "duration": 245}, {"note": 76, "velocity": 117, "duration": 1405}, {"note": 83, "velocity": 112, "duration": 196}, {"note": 86, "velocity": 122, "duration": 197}, {"note": 88, "velocity": 127, "duration": 1200}, {"note": 0, "velocity": 0, "duration": 240}, {"note": 83, "velocity": 117, "duration": 192}, {"note": 86, "velocity": 102, "duration": 218}, {"note": 88, "velocity": 122, "duration": 1284}, {"note": 0, "velocity": 0, "duration": 156}, {"note": 83, "velocity": 117, "duration": 205}, {"note": 86, "velocity": 107, "duration": 237}, {"note": 88, "velocity": 112, "duration": 572}, {"note": 88, "velocity": 112, "duration": 92}, {"note": 0, "velocity": 0, "duration": 148}, {"note": 91, "velocity": 99, "duration": 230}, {"note": 88, "velocity": 112, "duration": 247}, {"note": 0, "velocity": 0, "duration": 233}, {"note": 88, "velocity": 127, "duration": 239}, {"note": 86, "velocity": 99, "duration": 225}, {"note": 83, "velocity": 102, "duration": 1203}, {"note": 0, "velocity": 0, "duration": 237}, {"note": 83, "velocity": 107, "duration": 200}, {"note": 86, "velocity": 117, "duration": 222}, {"note": 88, "velocity": 112, "duration": 1031}, {"note": 0, "velocity": 0, "duration": 409}, {"note": 83, "velocity": 107, "duration": 190}, {"note": 86, "velocity": 107, "duration": 230}, {"note": 88, "velocity": 117, "duration": 1026}, {"note": 0, "velocity": 0, "duration": 414}, {"note": 83, "velocity": 99, "duration": 216}, {"note": 86, "velocity": 100, "duration": 175}, {"note": 0, "velocity": 0, "duration": 65}, {"note": 88, "velocity": 127, "duration": 241}, {"note": 0, "velocity": 0, "duration": 119}, {"note": 88, "velocity": 127, "duration": 57}, {"note": 0, "velocity": 0, "duration": 63}, {"note": 88, "velocity": 122, "duration": 158}, {"note": 0, "velocity": 0, "duration": 82}, {"note": 86, "velocity": 122, "duration": 202}, {"note": 83, "velocity": 102, "duration": 323}, {"note": 0, "velocity": 0, "duration": 157}, {"note": 76, "velocity": 112, "duration": 226}, {"note": 79, "velocity": 107, "duration": 235}, {"note": 81, "velocity": 127, "duration": 1257}, {"note": 0, "velocity": 0, "duration": 183}, {"note": 76, "velocity": 127, "duration": 218}, {"note": 79, "velocity": 102, "duration": 238}, {"note": 81, "velocity": 112, "duration": 543}, {"note": 0, "velocity": 0, "duration": 897}, {"note": 81, "velocity": 127, "duration": 158}, {"note": 0, "velocity": 0, "duration": 82}, {"note": 81, "velocity": 122, "duration": 219}, {"note": 83, "velocity": 107, "duration": 226}, {"note": 78, "velocity": 100, "duration": 990}, {"note": 0, "velocity": 0, "duration": 210}, {"note": 71, "velocity": 107, "duration": 249}, {"note": 74, "velocity": 97, "duration": 228}, {"note": 76, "velocity": 117, "duration": 179}, {"note": 0, "velocity": 0, "duration": 61}, {"note": 76, "velocity": 107, "duration": 434}, {"note": 74, "velocity": 112, "duration": 232}, {"note": 76, "velocity": 122, "duration": 512}, {"note": 76, "velocity": 117, "duration": 32}, {"note": 0, "velocity": 0, "duration": 208}, {"note": 79, "velocity": 107, "duration": 228}, {"note": 81, "velocity": 117, "duration": 717}, {"note": 83, "velocity": 122, "duration": 178}, {"note": 0, "velocity": 0, "duration": 62}, {"note": 86, "velocity": 117, "duration": 203}, {"note": 0, "velocity": 0, "duration": 277}, {"note": 83, "velocity": 112, "duration": 199}, {"note": 86, "velocity": 107, "duration": 227}, {"note": 88, "velocity": 122, "duration": 610}, {"note": 0, "velocity": 0, "duration": 110}, {"note": 83, "velocity": 122, "duration": 213}, {"note": 81, "velocity": 127, "duration": 288}, {"note": 0, "velocity": 0, "duration": 192}, {"note": 81, "velocity": 112, "duration": 218}, {"note": 78, "velocity": 97, "duration": 235}, {"note": 76, "velocity": 112, "duration": 1889}, {"note": 0, "velocity": 0, "duration": 15391}, {"note": 76, "velocity": 127, "duration": 398}, {"note": 0, "velocity": 0, "duration": 82}, {"note": 78, "velocity": 122, "duration": 252}, {"note": 76, "velocity": 100, "duration": 219}, {"note": 74, "velocity": 112, "duration": 447}, {"note": 71, "velocity": 112, "duration": 387}, {"note": 74, "velocity": 102, "duration": 261}, {"note": 76, "velocity": 107, "duration": 650}, {"note": 78, "velocity": 122, "duration": 233}, {"note": 76, "velocity": 96, "duration": 227}, {"note": 74, "velocity": 100, "duration": 329}, {"note": 71, "velocity": 102, "duration": 542}, {"note": 0, "velocity": 0, "duration": 178}, {"note": 83, "velocity": 122, "duration": 245}, {"note": 86, "velocity": 122, "duration": 392}, {"note": 0, "velocity": 0, "duration": 88}, {"note": 83, "velocity": 107, "duration": 173}, {"note": 0, "velocity": 0, "duration": 67}, {"note": 88, "velocity": 127, "duration": 194}, {"note": 86, "velocity": 107, "duration": 217}, {"note": 83, "velocity": 102, "duration": 231}, {"note": 81, "velocity": 117, "duration": 222}, {"note": 83, "velocity": 127, "duration": 542}, {"note": 0, "velocity": 0, "duration": 1378}, {"note": 83, "velocity": 122, "duration": 267}, {"note": 86, "velocity": 100, "duration": 99}, {"note": 0, "velocity": 0, "duration": 141}, {"note": 86, "velocity": 127, "duration": 206}, {"note": 83, "velocity": 102, "duration": 223}, {"note": 88, "velocity": 127, "duration": 642}, {"note": 0, "velocity": 0, "duration": 318}, {"note": 81, "velocity": 127, "duration": 175}, {"note": 0, "velocity": 0, "duration": 65}, {"note": 81, "velocity": 99, "duration": 217}, {"note": 83, "velocity": 122, "duration": 215}, {"note": 81, "velocity": 100, "duration": 201}, {"note": 79, "velocity": 107, "duration": 191}, {"note": 0, "velocity": 0, "duration": 769}, {"note": 71, "velocity": 112, "duration": 182}, {"note": 74, "velocity": 100, "duration": 177}, {"note": 0, "velocity": 0, "duration": 63}, {"note": 76, "velocity": 99, "duration": 175}, {"note": 0, "velocity": 0, "duration": 65}, {"note": 83, "velocity": 107, "duration": 211}, {"note": 81, "velocity": 127, "duration": 311}, {"note": 81, "velocity": 122, "duration": 71}, {"note": 78, "velocity": 107, "duration": 242}, {"note": 0, "velocity": 0, "duration": 118}, {"note": 76, "velocity": 92, "duration": 245}, {"note": 74, "velocity": 93, "duration": 1484}, {"note": 0, "velocity": 0, "duration": 436}, {"note": 76, "velocity": 97, "duration": 184}, {"note": 76, "velocity": 88, "duration": 231}, {"note": 78, "velocity": 102, "duration": 224}, {"note": 76, "velocity": 92, "duration": 251}, {"note": 74, "velocity": 95, "duration": 407}, {"note": 0, "velocity": 0, "duration": 73}, {"note": 71, "velocity": 100, "duration": 191}, {"note": 74, "velocity": 100, "duration": 223}, {"note": 76, "velocity": 100, "duration": 172}, {"note": 0, "velocity": 0, "duration": 68}, {"note": 76, "velocity": 97, "duration": 202}, {"note": 78, "velocity": 127, "duration": 198}, {"note": 76, "velocity": 112, "duration": 211}, {"note": 74, "velocity": 107, "duration": 344}, {"note": 71, "velocity": 90, "duration": 559}, {"note": 0, "velocity": 0, "duration": 161}, {"note": 83, "velocity": 102, "duration": 208}, {"note": 86, "velocity": 107, "duration": 446}, {"note": 83, "velocity": 100, "duration": 240}, {"note": 88, "velocity": 117, "duration": 178}, {"note": 0, "velocity": 0, "duration": 62}, {"note": 86, "velocity": 117, "duration": 214}, {"note": 83, "velocity": 97, "duration": 199}, {"note": 81, "velocity": 100, "duration": 189}, {"note": 81, "velocity": 97, "duration": 257}, {"note": 83, "velocity": 100, "duration": 1450}, {"note": 0, "velocity": 0, "duration": 230}, {"note": 86, "velocity": 122, "duration": 151}, {"note": 0, "velocity": 0, "duration": 89}, {"note": 86, "velocity": 122, "duration": 196}, {"note": 83, "velocity": 99, "duration": 202}, {"note": 86, "velocity": 127, "duration": 218}, {"note": 88, "velocity": 122, "duration": 568}, {"note": 88, "velocity": 122, "duration": 88}, {"note": 0, "velocity": 0, "duration": 152}, {"note": 83, "velocity": 107, "duration": 228}, {"note": 81, "velocity": 97, "duration": 237}, {"note": 81, "velocity": 117, "duration": 254}, {"note": 83, "velocity": 112, "duration": 244}, {"note": 81, "velocity": 96, "duration": 312}, {"note": 79, "velocity": 107, "duration": 517}, {"note": 0, "velocity": 0, "duration": 443}, {"note": 71, "velocity": 102, "duration": 204}, {"note": 74, "velocity": 92, "duration": 196}, {"note": 76, "velocity": 100, "duration": 160}, {"note": 0, "velocity": 0, "duration": 80}, {"note": 83, "velocity": 117, "duration": 212}, {"note": 81, "velocity": 127, "duration": 433}, {"note": 81, "velocity": 127, "duration": 203}, {"note": 78, "velocity": 122, "duration": 236}, {"note": 76, "velocity": 112, "duration": 219}, {"note": 78, "velocity": 117, "duration": 246}, {"note": 74, "velocity": 96, "duration": 242}, {"note": 71, "velocity": 96, "duration": 676}, {"note": 81, "velocity": 122, "duration": 217}, {"note": 78, "velocity": 102, "duration": 245}, {"note": 76, "velocity": 117, "duration": 1405}, {"note": 83, "velocity": 112, "duration": 196}, {"note": 86, "velocity": 122, "duration": 197}, {"note": 88, "velocity": 127, "duration": 1200}, {"note": 0, "velocity": 0, "duration": 240}, {"note": 83, "velocity": 117, "duration": 192}, {"note": 86, "velocity": 102, "duration": 218}, {"note": 88, "velocity": 122, "duration": 1284}, {"note": 0, "velocity": 0, "duration": 156}, {"note": 83, "velocity": 117, "duration": 205}, {"note": 86, "velocity": 107, "duration": 237}, {"note": 88, "velocity": 112, "duration": 572}, {"note": 88, "velocity": 112, "duration": 92}, {"note": 0, "velocity": 0, "duration": 148}, {"note": 91, "velocity": 99, "duration": 230}, {"note": 88, "velocity": 112, "duration": 247}, {"note": 0, "velocity": 0, "duration": 233}, {"note": 88, "velocity": 127, "duration": 239}, {"note": 86, "velocity": 99, "duration": 225}, {"note": 83, "velocity": 102, "duration": 1203}, {"note": 0, "velocity": 0, "duration": 237}, {"note": 83, "velocity": 107, "duration": 200}, {"note": 86, "velocity": 117, "duration": 222}, {"note": 88, "velocity": 112, "duration": 1031}, {"note": 0, "velocity": 0, "duration": 409}, {"note": 83, "velocity": 107, "duration": 190}, {"note": 86, "velocity": 107, "duration": 230}, {"note": 88, "velocity": 117, "duration": 1026}, {"note": 0, "velocity": 0, "duration": 414}, {"note": 83, "velocity": 99, "duration": 216}, {"note": 86, "velocity": 100, "duration": 175}, {"note": 0, "velocity": 0, "duration": 65}, {"note": 88, "velocity": 127, "duration": 241}, {"note": 0, "velocity": 0, "duration": 119}, {"note": 88, "velocity": 127, "duration": 57}, {"note": 0, "velocity": 0, "duration": 63}, {"note": 88, "velocity": 122, "duration": 158}, {"note": 0, "velocity": 0, "duration": 82}, {"note": 86, "velocity": 122, "duration": 202}, {"note": 83, "velocity": 102, "duration": 323}, {"note": 0, "velocity": 0, "duration": 157}, {"note": 76, "velocity": 112, "duration": 226}, {"note": 79, "velocity": 107, "duration": 235}, {"note": 81, "velocity": 127, "duration": 1257}, {"note": 0, "velocity": 0, "duration": 183}, {"note": 76, "velocity": 127, "duration": 218}, {"note": 79, "velocity": 102, "duration": 238}, {"note": 81, "velocity": 112, "duration": 543}, {"note": 0, "velocity": 0, "duration": 897}, {"note": 81, "velocity": 127, "duration": 158}, {"note": 0, "velocity": 0, "duration": 82}, {"note": 81, "velocity": 122, "duration": 219}, {"note": 83, "velocity": 107, "duration": 226}, {"note": 78, "velocity": 100, "duration": 990}, {"note": 0, "velocity": 0, "duration": 210}, {"note": 71, "velocity": 107, "duration": 249}, {"note": 74, "velocity": 97, "duration": 228}, {"note": 76, "velocity": 117, "duration": 179}, {"note": 0, "velocity": 0, "duration": 61}, {"note": 76, "velocity": 107, "duration": 434}, {"note": 74, "velocity": 112, "duration": 232}, {"note": 76, "velocity": 122, "duration": 512}, {"note": 76, "velocity": 117, "duration": 32}, {"note": 0, "velocity": 0, "duration": 208}, {"note": 79, "velocity": 107, "duration": 228}, {"note": 81, "velocity": 117, "duration": 717}, {"note": 83, "velocity": 122, "duration": 178}, {"note": 0, "velocity": 0, "duration": 62}, {"note": 86, "velocity": 117, "duration": 203}, {"note": 0, "velocity": 0, "duration": 277}, {"note": 83, "velocity": 112, "duration": 199}, {"note": 86, "velocity": 107, "duration": 227}, {"note": 88, "velocity": 122, "duration": 610}, {"note": 0, "velocity": 0, "duration": 110}, {"note": 83, "velocity": 122, "duration": 213}, {"note": 81, "velocity": 127, "duration": 288}, {"note": 0, "velocity": 0, "duration": 192}, {"note": 81, "velocity": 112, "duration": 218}, {"note": 78, "velocity": 97, "duration": 235}, {"note": 76, "velocity": 112, "duration": 960}, {"note": 0, "velocity": 0, "duration": 480}, {"note": 83, "velocity": 112, "duration": 196}, {"note": 86, "velocity": 122, "duration": 197}, {"note": 88, "velocity": 127, "duration": 1200}, {"note": 0, "velocity": 0, "duration": 240}, {"note": 83, "velocity": 117, "duration": 192}, {"note": 86, "velocity": 102, "duration": 218}, {"note": 88, "velocity": 122, "duration": 1284}, {"note": 0, "velocity": 0, "duration": 156}, {"note": 83, "velocity": 117, "duration": 205}, {"note": 86, "velocity": 107, "duration": 237}, {"note": 88, "velocity": 112, "duration": 572}, {"note": 88, "velocity": 112, "duration": 92}, {"note": 0, "velocity": 0, "duration": 148}, {"note": 91, "velocity": 99, "duration": 230}, {"note": 88, "velocity": 112, "duration": 247}, {"note": 0, "velocity": 0, "duration": 233}, {"note": 88, "velocity": 127, "duration": 239}, {"note": 86, "velocity": 99, "duration": 225}, {"note": 83, "velocity": 102, "duration": 1203}, {"note": 0, "velocity": 0, "duration": 237}, {"note": 83, "velocity": 107, "duration": 200}, {"note": 86, "velocity": 117, "duration": 222}, {"note": 88, "velocity": 112, "duration": 1031}, {"note": 0, "velocity": 0, "duration": 409}, {"note": 83, "velocity": 107, "duration": 190}, {"note": 86, "velocity": 107, "duration": 230}, {"note": 88, "velocity": 117, "duration": 1026}, {"note": 0, "velocity": 0, "duration": 414}, {"note": 83, "velocity": 99, "duration": 216}, {"note": 86, "velocity": 100, "duration": 175}, {"note": 0, "velocity": 0, "duration": 65}, {"note": 88, "velocity": 127, "duration": 241}, {"note": 0, "velocity": 0, "duration": 119}, {"note": 88, "velocity": 127, "duration": 57}, {"note": 0, "velocity": 0, "duration": 63}, {"note": 88, "velocity": 122, "duration": 158}, {"note": 0, "velocity": 0, "duration": 82}, {"note": 86, "velocity": 122, "duration": 202}, {"note": 83, "velocity": 102, "duration": 323}, {"note": 0, "velocity": 0, "duration": 157}, {"note": 76, "velocity": 112, "duration": 226}, {"note": 79, "velocity": 107, "duration": 235}, {"note": 81, "velocity": 127, "duration": 1257}, {"note": 0, "velocity": 0, "duration": 183}, {"note": 76, "velocity": 127, "duration": 218}, {"note": 79, "velocity": 102, "duration": 238}, {"note": 81, "velocity": 112, "duration": 543}, {"note": 0, "velocity": 0, "duration": 897}, {"note": 81, "velocity": 127, "duration": 158}, {"note": 0, "velocity": 0, "duration": 82}, {"note": 81, "velocity": 122, "duration": 219}, {"note": 83, "velocity": 107, "duration": 226}, {"note": 78, "velocity": 100, "duration": 990}, {"note": 0, "velocity": 0, "duration": 210}, {"note": 71, "velocity": 107, "duration": 249}, {"note": 74, "velocity": 97, "duration": 228}, {"note": 76, "velocity": 117, "duration": 179}, {"note": 0, "velocity": 0, "duration": 61}, {"note": 76, "velocity": 107, "duration": 434}, {"note": 74, "velocity": 112, "duration": 232}, {"note": 76, "velocity": 122, "duration": 512}, {"note": 76, "velocity": 117, "duration": 32}, {"note": 0, "velocity": 0, "duration": 208}, {"note": 79, "velocity": 107, "duration": 228}, {"note": 81, "velocity": 117, "duration": 717}, {"note": 83, "velocity": 122, "duration": 178}, {"note": 0, "velocity": 0, "duration": 62}, {"note": 86, "velocity": 117, "duration": 203}, {"note": 0, "velocity": 0, "duration": 277}, {"note": 83, "velocity": 112, "duration": 199}, {"note": 86, "velocity": 107, "duration": 227}, {"note": 88, "velocity": 122, "duration": 610}, {"note": 0, "velocity": 0, "duration": 110}, {"note": 83, "velocity": 122, "duration": 213}, {"note": 81, "velocity": 127, "duration": 288}, {"note": 0, "velocity": 0, "duration": 192}, {"note": 81, "velocity": 112, "duration": 218}, {"note": 78, "velocity": 97, "duration": 235}, {"note": 76, "velocity": 112, "duration": 1440}, {"note": 86, "velocity": 127, "duration": 388}, {"note": 0, "velocity": 0, "duration": 92}, {"note": 88, "velocity": 127, "duration": 2933}]]