[[{"note": 72, "velocity": 100, "duration": 120}, {"note": 74, "velocity": 97, "duration": 120}, {"note": 76, "velocity": 117, "duration": 120}, {"note": 79, "velocity": 100, "duration": 120}, {"note": 79, "velocity": 97, "duration": 120}, {"note": 79, "velocity": 93, "duration": 120}, {"note": 79, "velocity": 100, "duration": 120}, {"note": 79, "velocity": 93, "duration": 120}, {"note": 79, "velocity": 97, "duration": 120}, {"note": 76, "velocity": 67, "duration": 120}, {"note": 81, "velocity": 102, "duration": 240}, {"note": 79, "velocity": 117, "duration": 480}, {"note": 84, "velocity": 127, "duration": 120}, {"note": 83, "velocity": 82, "duration": 120}, {"note": 84, "velocity": 122, "duration": 240}, {"note": 83, "velocity": 99, "duration": 120}, {"note": 84, "velocity": 127, "duration": 360}, {"note": 76, "velocity": 93, "duration": 120}, {"note": 79, "velocity": 92, "duration": 840}, {"note": 76, "velocity": 112, "duration": 120}, {"note": 79, "velocity": 102, "duration": 120}, {"note": 81, "velocity": 100, "duration": 120}, {"note": 81, "velocity": 95, "duration": 120}, {"note": 81, "velocity": 107, "duration": 120}, {"note": 81, "velocity": 117, "duration": 120}, {"note": 81, "velocity": 127, "duration": 239}, {"note": 81, "velocity": 117, "duration": 120}, {"note": 84, "velocity": 86, "duration": 120}, {"note": 81, "velocity": 127, "duration": 240}, {"note": 79, "velocity": 97, "duration": 120}, {"note": 76, "velocity": 79, "duration": 600}, {"note": 74, "velocity": 117, "duration": 120}, {"note": 74, "velocity": 93, "duration": 120}, {"note": 74, "velocity": 93, "duration": 120}, {"note": 74, "velocity": 96, "duration": 120}, {"note": 74, "velocity": 97, "duration": 120}, {"note": 72, "velocity": 107, "duration": 240}, {"note": 69, "velocity": 96, "duration": 120}, {"note": 79, "velocity": 102, "duration": 240}, {"note": 76, "velocity": 99, "duration": 120}, {"note": 74, "velocity": 96, "duration": 359}, {"note": 74, "velocity": 96, "duration": 120}, {"note": 76, "velocity": 96, "duration": 120}, {"note": 79, "velocity": 96, "duration": 120}, {"note": 79, "velocity": 89, "duration": 120}, {"note": 79, "velocity": 97, "duration": 120}, {"note": 79, "velocity": 96, "duration": 120}, {"note": 79, "velocity": 117, "duration": 120}, {"note": 79, "velocity": 100, "duration": 120}, {"note": 79, "velocity": 107, "duration": 120}, {"note": 76, "velocity": 92, "duration": 120}, {"note": 81, "velocity": 112, "duration": 240}, {"note": 79, "velocity": 102, "duration": 480}, {"note": 81, "velocity": 102, "duration": 120}, {"note": 83, "velocity": 100, "duration": 120}, {"note": 84, "velocity": 112, "duration": 120}, {"note": 84, "velocity": 100, "duration": 120}, {"note": 84, "velocity": 107, "duration": 120}, {"note": 84, "velocity": 112, "duration": 120}, {"note": 84, "velocity": 122, "duration": 240}, {"note": 76, "velocity": 74, "duration": 120}, {"note": 74, "velocity": 69, "duration": 240}, {"note": 76, "velocity": 102, "duration": 599}, {"note": 76, "velocity": 100, "duration": 120}, {"note": 79, "velocity": 93, "duration": 120}, {"note": 81, "velocity": 100, "duration": 120}, {"note": 81, "velocity": 96, "duration": 120}, {"note": 81, "velocity": 97, "duration": 120}, {"note": 81, "velocity": 97, "duration": 120}, {"note": 81, "velocity": 112, "duration": 239}, {"note": 81, "velocity": 107, "duration": 120}, {"note": 84, "velocity": 127, "duration": 120}, {"note": 81, "velocity": 99, "duration": 240}, {"note": 79, "velocity": 89, "duration": 240}, {"note": 76, "velocity": 95, "duration": 480}, {"note": 74, "velocity": 112, "duration": 120}, {"note": 74, "velocity": 90, "duration": 120}, {"note": 74, "velocity": 107, "duration": 120}, {"note": 72, "velocity": 100, "duration": 120}, {"note": 69, "velocity": 112, "duration": 360}, {"note": 72, "velocity": 112, "duration": 120}, {"note": 72, "velocity": 107, "duration": 720}, {"note": 84, "velocity": 127, "duration": 120}, {"note": 83, "velocity": 102, "duration": 120}, {"note": 81, "velocity": 127, "duration": 240}, {"note": 83, "velocity": 112, "duration": 120}, {"note": 84, "velocity": 127, "duration": 360}, {"note": 86, "velocity": 127, "duration": 240}, {"note": 83, "velocity": 117, "duration": 240}, {"note": 81, "velocity": 96, "duration": 120}, {"note": 79, "velocity": 97, "duration": 360}, {"note": 76, "velocity": 100, "duration": 120}, {"note": 79, "velocity": 100, "duration": 120}, {"note": 81, "velocity": 122, "duration": 120}, {"note": 81, "velocity": 107, "duration": 120}, {"note": 81, "velocity": 112, "duration": 120}, {"note": 81, "velocity": 100, "duration": 120}, {"note": 81, "velocity": 127, "duration": 240}, {"note": 74, "velocity": 112, "duration": 120}, {"note": 76, "velocity": 107, "duration": 840}, {"note": 84, "velocity": 127, "duration": 120}, {"note": 83, "velocity": 97, "duration": 120}, {"note": 81, "velocity": 107, "duration": 240}, {"note": 83, "velocity": 102, "duration": 120}, {"note": 84, "velocity": 127, "duration": 360}, {"note": 88, "velocity": 107, "duration": 240}, {"note": 76, "velocity": 122, "duration": 120}, {"note": 79, "velocity": 112, "duration": 240}, {"note": 83, "velocity": 107, "duration": 240}, {"note": 79, "velocity": 92, "duration": 120}, {"note": 81, "velocity": 99, "duration": 120}, {"note": 83, "velocity": 102, "duration": 120}, {"note": 84, "velocity": 122, "duration": 120}, {"note": 84, "velocity": 122, "duration": 120}, {"note": 84, "velocity": 127, "duration": 120}, {"note": 84, "velocity": 122, "duration": 120}, {"note": 84, "velocity": 127, "duration": 239}, {"note": 84, "velocity": 117, "duration": 120}, {"note": 81, "velocity": 93, "duration": 120}, {"note": 88, "velocity": 127, "duration": 240}, {"note": 86, "velocity": 107, "duration": 120}, {"note": 86, "velocity": 127, "duration": 1200}, {"note": 79, "velocity": 90, "duration": 120}, {"note": 84, "velocity": 100, "duration": 120}, {"note": 86, "velocity": 100, "duration": 120}, {"note": 88, "velocity": 127, "duration": 120}, {"note": 88, "velocity": 99, "duration": 120}, {"note": 88, "velocity": 122, "duration": 120}, {"note": 88, "velocity": 127, "duration": 120}, {"note": 88, "velocity": 127, "duration": 240}, {"note": 86, "velocity": 122, "duration": 120}, {"note": 84, "velocity": 107, "duration": 120}, {"note": 86, "velocity": 127, "duration": 240}, {"note": 88, "velocity": 127, "duration": 120}, {"note": 86, "velocity": 127, "duration": 360}, {"note": 88, "velocity": 127, "duration": 120}, {"note": 86, "velocity": 107, "duration": 120}, {"note": 84, "velocity": 107, "duration": 240}, {"note": 83, "velocity": 96, "duration": 120}, {"note": 84, "velocity": 122, "duration": 360}, {"note": 76, "velocity": 107, "duration": 120}, {"note": 79, "velocity": 117, "duration": 959}, {"note": 79, "velocity": 102, "duration": 120}, {"note": 81, "velocity": 117, "duration": 120}, {"note": 84, "velocity": 100, "duration": 120}, {"note": 84, "velocity": 112, "duration": 120}, {"note": 81, "velocity": 97, "duration": 120}, {"note": 86, "velocity": 117, "duration": 120}, {"note": 84, "velocity": 127, "duration": 240}, {"note": 88, "velocity": 127, "duration": 239}, {"note": 88, "velocity": 127, "duration": 120}, {"note": 86, "velocity": 117, "duration": 120}, {"note": 88, "velocity": 107, "duration": 120}, {"note": 86, "velocity": 117, "duration": 120}, {"note": 84, "velocity": 127, "duration": 360}, {"note": 86, "velocity": 127, "duration": 120}, {"note": 86, "velocity": 112, "duration": 120}, {"note": 86, "velocity": 122, "duration": 120}, {"note": 84, "velocity": 127, "duration": 120}, {"note": 81, "velocity": 117, "duration": 120}, {"note": 88, "velocity": 122, "duration": 360}, {"note": 86, "velocity": 127, "duration": 600}, {"note": 79, "velocity": 107, "duration": 120}, {"note": 84, "velocity": 112, "duration": 120}, {"note": 86, "velocity": 127, "duration": 120}, {"note": 88, "velocity": 127, "duration": 120}, {"note": 88, "velocity": 127, "duration": 120}, {"note": 88, "velocity": 122, "duration": 120}, {"note": 88, "velocity": 127, "duration": 120}, {"note": 88, "velocity": 122, "duration": 120}, {"note": 86, "velocity": 112, "duration": 240}, {"note": 84, "velocity": 107, "duration": 120}, {"note": 86, "velocity": 127, "duration": 240}, {"note": 88, "velocity": 127, "duration": 120}, {"note": 86, "velocity": 127, "duration": 360}, {"note": 88, "velocity": 127, "duration": 120}, {"note": 86, "velocity": 122, "duration": 120}, {"note": 84, "velocity": 127, "duration": 240}, {"note": 83, "velocity": 122, "duration": 120}, {"note": 84, "velocity": 122, "duration": 360}, {"note": 88, "velocity": 122, "duration": 120}, {"note": 91, "velocity": 122, "duration": 960}, {"note": 84, "velocity": 97, "duration": 120}, {"note": 93, "velocity": 122, "duration": 120}, {"note": 93, "velocity": 122, "duration": 120}, {"note": 93, "velocity": 122, "duration": 120}, {"note": 93, "velocity": 112, "duration": 120}, {"note": 93, "velocity": 127, "duration": 239}, {"note": 93, "velocity": 127, "duration": 120}, {"note": 91, "velocity": 97, "duration": 120}, {"note": 91, "velocity": 117, "duration": 239}, {"note": 91, "velocity": 127, "duration": 120}, {"note": 88, "velocity": 112, "duration": 480}, {"note": 84, "velocity": 127, "duration": 120}, {"note": 86, "velocity": 127, "duration": 120}, {"note": 86, "velocity": 122, "duration": 120}, {"note": 86, "velocity": 117, "duration": 120}, {"note": 86, "velocity": 112, "duration": 120}, {"note": 86, "velocity": 127, "duration": 240}, {"note": 84, "velocity": 122, "duration": 120}, {"note": 86, "velocity": 127, "duration": 600}, {"note": 81, "velocity": 102, "duration": 240}, {"note": 83, "velocity": 107, "duration": 120}, {"note": 84, "velocity": 122, "duration": 1377}, {"note": 0, "velocity": 0, "duration": 8103}, {"note": 72, "velocity": 112, "duration": 120}, {"note": 74, "velocity": 97, "duration": 120}, {"note": 76, "velocity": 117, "duration": 120}, {"note": 79, "velocity": 89, "duration": 120}, {"note": 79, "velocity": 97, "duration": 120}, {"note": 79, "velocity": 96, "duration": 120}, {"note": 79, "velocity": 117, "duration": 120}, {"note": 79, "velocity": 100, "duration": 120}, {"note": 79, "velocity": 107, "duration": 120}, {"note": 76, "velocity": 92, "duration": 120}, {"note": 81, "velocity": 112, "duration": 240}, {"note": 79, "velocity": 102, "duration": 480}, {"note": 81, "velocity": 102, "duration": 120}, {"note": 83, "velocity": 100, "duration": 120}, {"note": 84, "velocity": 112, "duration": 120}, {"note": 84, "velocity": 100, "duration": 120}, {"note": 84, "velocity": 107, "duration": 120}, {"note": 84, "velocity": 112, "duration": 120}, {"note": 84, "velocity": 122, "duration": 240}, {"note": 76, "velocity": 74, "duration": 120}, {"note": 74, "velocity": 69, "duration": 240}, {"note": 76, "velocity": 102, "duration": 599}, {"note": 76, "velocity": 100, "duration": 120}, {"note": 79, "velocity": 93, "duration": 120}, {"note": 81, "velocity": 100, "duration": 120}, {"note": 81, "velocity": 96, "duration": 120}, {"note": 81, "velocity": 97, "duration": 120}, {"note": 81, "velocity": 97, "duration": 120}, {"note": 81, "velocity": 112, "duration": 239}, {"note": 81, "velocity": 107, "duration": 120}, {"note": 84, "velocity": 127, "duration": 120}, {"note": 81, "velocity": 99, "duration": 240}, {"note": 79, "velocity": 89, "duration": 240}, {"note": 76, "velocity": 95, "duration": 480}, {"note": 74, "velocity": 112, "duration": 120}, {"note": 74, "velocity": 90, "duration": 120}, {"note": 74, "velocity": 107, "duration": 120}, {"note": 72, "velocity": 100, "duration": 120}, {"note": 69, "velocity": 112, "duration": 360}, {"note": 72, "velocity": 112, "duration": 120}, {"note": 72, "velocity": 107, "duration": 720}, {"note": 84, "velocity": 127, "duration": 120}, {"note": 83, "velocity": 102, "duration": 120}, {"note": 81, "velocity": 127, "duration": 240}, {"note": 83, "velocity": 112, "duration": 120}, {"note": 84, "velocity": 127, "duration": 360}, {"note": 86, "velocity": 127, "duration": 240}, {"note": 83, "velocity": 117, "duration": 240}, {"note": 81, "velocity": 96, "duration": 120}, {"note": 79, "velocity": 97, "duration": 360}, {"note": 76, "velocity": 100, "duration": 120}, {"note": 79, "velocity": 100, "duration": 120}, {"note": 81, "velocity": 122, "duration": 120}, {"note": 81, "velocity": 107, "duration": 120}, {"note": 81, "velocity": 112, "duration": 120}, {"note": 81, "velocity": 100, "duration": 120}, {"note": 81, "velocity": 127, "duration": 240}, {"note": 74, "velocity": 112, "duration": 120}, {"note": 76, "velocity": 107, "duration": 840}, {"note": 84, "velocity": 127, "duration": 120}, {"note": 83, "velocity": 97, "duration": 120}, {"note": 81, "velocity": 107, "duration": 240}, {"note": 83, "velocity": 102, "duration": 120}, {"note": 84, "velocity": 127, "duration": 360}, {"note": 88, "velocity": 107, "duration": 240}, {"note": 76, "velocity": 122, "duration": 120}, {"note": 79, "velocity": 112, "duration": 240}, {"note": 83, "velocity": 107, "duration": 240}, {"note": 79, "velocity": 92, "duration": 120}, {"note": 81, "velocity": 99, "duration": 120}, {"note": 83, "velocity": 102, "duration": 120}, {"note": 84, "velocity": 122, "duration": 120}, {"note": 84, "velocity": 122, "duration": 120}, {"note": 84, "velocity": 127, "duration": 120}, {"note": 84, "velocity": 122, "duration": 120}, {"note": 84, "velocity": 127, "duration": 239}, {"note": 84, "velocity": 117, "duration": 120}, {"note": 81, "velocity": 93, "duration": 120}, {"note": 88, "velocity": 127, "duration": 240}, {"note": 86, "velocity": 107, "duration": 120}, {"note": 86, "velocity": 127, "duration": 1200}, {"note": 79, "velocity": 90, "duration": 120}, {"note": 84, "velocity": 100, "duration": 120}, {"note": 86, "velocity": 100, "duration": 120}, {"note": 88, "velocity": 127, "duration": 120}, {"note": 88, "velocity": 99, "duration": 120}, {"note": 88, "velocity": 122, "duration": 120}, {"note": 88, "velocity": 127, "duration": 120}, {"note": 88, "velocity": 127, "duration": 240}, {"note": 86, "velocity": 122, "duration": 120}, {"note": 84, "velocity": 107, "duration": 120}, {"note": 86, "velocity": 127, "duration": 240}, {"note": 88, "velocity": 127, "duration": 120}, {"note": 86, "velocity": 127, "duration": 360}, {"note": 88, "velocity": 127, "duration": 120}, {"note": 86, "velocity": 107, "duration": 120}, {"note": 84, "velocity": 107, "duration": 240}, {"note": 83, "velocity": 96, "duration": 120}, {"note": 84, "velocity": 122, "duration": 360}, {"note": 76, "velocity": 107, "duration": 120}, {"note": 79, "velocity": 117, "duration": 959}, {"note": 79, "velocity": 102, "duration": 120}, {"note": 81, "velocity": 117, "duration": 120}, {"note": 84, "velocity": 100, "duration": 120}, {"note": 84, "velocity": 112, "duration": 120}, {"note": 81, "velocity": 97, "duration": 120}, {"note": 86, "velocity": 117, "duration": 120}, {"note": 84, "velocity": 127, "duration": 240}, {"note": 88, "velocity": 127, "duration": 239}, {"note": 88, "velocity": 127, "duration": 120}, {"note": 86, "velocity": 117, "duration": 120}, {"note": 88, "velocity": 107, "duration": 120}, {"note": 86, "velocity": 117, "duration": 120}, {"note": 84, "velocity": 127, "duration": 360}, {"note": 86, "velocity": 127, "duration": 120}, {"note": 86, "velocity": 112, "duration": 120}, {"note": 86, "velocity": 122, "duration": 120}, {"note": 84, "velocity": 127, "duration": 120}, {"note": 81, "velocity": 117, "duration": 120}, {"note": 88, "velocity": 122, "duration": 360}, {"note": 86, "velocity": 127, "duration": 600}, {"note": 79, "velocity": 107, "duration": 120}, {"note": 84, "velocity": 112, "duration": 120}, {"note": 86, "velocity": 127, "duration": 120}, {"note": 88, "velocity": 127, "duration": 120}, {"note": 88, "velocity": 127, "duration": 120}, {"note": 88, "velocity": 122, "duration": 120}, {"note": 88, "velocity": 127, "duration": 120}, {"note": 88, "velocity": 122, "duration": 120}, {"note": 86, "velocity": 112, "duration": 240}, {"note": 84, "velocity": 107, "duration": 120}, {"note": 86, "velocity": 127, "duration": 240}, {"note": 88, "velocity": 127, "duration": 120}, {"note": 86, "velocity": 127, "duration": 360}, {"note": 88, "velocity": 127, "duration": 120}, {"note": 86, "velocity": 122, "duration": 120}, {"note": 84, "velocity": 127, "duration": 240}, {"note": 83, "velocity": 122, "duration": 120}, {"note": 84, "velocity": 122, "duration": 360}, {"note": 88, "velocity": 122, "duration": 120}, {"note": 91, "velocity": 122, "duration": 960}, {"note": 84, "velocity": 97, "duration": 120}, {"note": 93, "velocity": 122, "duration": 120}, {"note": 93, "velocity": 122, "duration": 120}, {"note": 93, "velocity": 122, "duration": 120}, {"note": 93, "velocity": 112, "duration": 120}, {"note": 93, "velocity": 127, "duration": 239}, {"note": 93, "velocity": 127, "duration": 120}, {"note": 91, "velocity": 97, "duration": 120}, {"note": 91, "velocity": 117, "duration": 239}, {"note": 91, "velocity": 127, "duration": 120}, {"note": 88, "velocity": 112, "duration": 480}, {"note": 84, "velocity": 127, "duration": 120}, {"note": 86, "velocity": 127, "duration": 120}, {"note": 86, "velocity": 122, "duration": 120}, {"note": 86, "velocity": 117, "duration": 120}, {"note": 86, "velocity": 112, "duration": 120}, {"note": 86, "velocity": 127, "duration": 240}, {"note": 84, "velocity": 122, "duration": 120}, {"note": 86, "velocity": 127, "duration": 600}, {"note": 81, "velocity": 102, "duration": 240}, {"note": 83, "velocity": 107, "duration": 120}, {"note": 86, "velocity": 122, "duration": 360}, {"note": 84, "velocity": 122, "duration": 1320}, {"note": 79, "velocity": 90, "duration": 120}, {"note": 84, "velocity": 100, "duration": 120}, {"note": 86, "velocity": 100, "duration": 120}, {"note": 88, "velocity": 127, "duration": 120}, {"note": 88, "velocity": 99, "duration": 120}, {"note": 88, "velocity": 122, "duration": 120}, {"note": 88, "velocity": 127, "duration": 120}, {"note": 88, "velocity": 127, "duration": 240}, {"note": 86, "velocity": 122, "duration": 120}, {"note": 84, "velocity": 107, "duration": 120}, {"note": 86, "velocity": 127, "duration": 240}, {"note": 88, "velocity": 127, "duration": 120}, {"note": 86, "velocity": 127, "duration": 360}, {"note": 88, "velocity": 127, "duration": 120}, {"note": 86, "velocity": 107, "duration": 120}, {"note": 84, "velocity": 107, "duration": 240}, {"note": 83, "velocity": 96, "duration": 120}, {"note": 84, "velocity": 122, "duration": 360}, {"note": 76, "velocity": 107, "duration": 120}, {"note": 79, "velocity": 117, "duration": 959}, {"note": 79, "velocity": 102, "duration": 120}, {"note": 81, "velocity": 117, "duration": 120}, {"note": 84, "velocity": 100, "duration": 120}, {"note": 84, "velocity": 112, "duration": 120}, {"note": 81, "velocity": 97, "duration": 120}, {"note": 86, "velocity": 117, "duration": 120}, {"note": 84, "velocity": 127, "duration": 240}, {"note": 88, "velocity": 127, "duration": 239}, {"note": 88, "velocity": 127, "duration": 120}, {"note": 86, "velocity": 117, "duration": 120}, {"note": 88, "velocity": 107, "duration": 120}, {"note": 86, "velocity": 117, "duration": 120}, {"note": 84, "velocity": 127, "duration": 360}, {"note": 86, "velocity": 127, "duration": 120}, {"note": 86, "velocity": 112, "duration": 120}, {"note": 86, "velocity": 122, "duration": 120}, {"note": 84, "velocity": 127, "duration": 120}, {"note": 81, "velocity": 117, "duration": 120}, {"note": 88, "velocity": 122, "duration": 360}, {"note": 86, "velocity": 127, "duration": 600}, {"note": 79, "velocity": 107, "duration": 120}, {"note": 84, "velocity": 112, "duration": 120}, {"note": 86, "velocity": 127, "duration": 120}, {"note": 88, "velocity": 127, "duration": 120}, {"note": 88, "velocity": 127, "duration": 120}, {"note": 88, "velocity": 122, "duration": 120}, {"note": 88, "velocity": 127, "duration": 120}, {"note": 88, "velocity": 122, "duration": 120}, {"note": 86, "velocity": 112, "duration": 240}, {"note": 84, "velocity": 107, "duration": 120}, {"note": 86, "velocity": 127, "duration": 240}, {"note": 88, "velocity": 127, "duration": 120}, {"note": 86, "velocity": 127, "duration": 360}, {"note": 88, "velocity": 127, "duration": 120}, {"note": 86, "velocity": 122, "duration": 120}, {"note": 84, "velocity": 127, "duration": 240}, {"note": 83, "velocity": 122, "duration": 120}, {"note": 84, "velocity": 122, "duration": 360}, {"note": 88, "velocity": 122, "duration": 120}, {"note": 91, "velocity": 122, "duration": 960}, {"note": 84, "velocity": 97, "duration": 120}, {"note": 93, "velocity": 122, "duration": 120}, {"note": 93, "velocity": 122, "duration": 120}, {"note": 93, "velocity": 122, "duration": 120}, {"note": 93, "velocity": 112, "duration": 120}, {"note": 93, "velocity": 127, "duration": 239}, {"note": 93, "velocity": 127, "duration": 120}, {"note": 91, "velocity": 97, "duration": 120}, {"note": 91, "velocity": 117, "duration": 239}, {"note": 91, "velocity": 127, "duration": 120}, {"note": 88, "velocity": 112, "duration": 480}, {"note": 84, "velocity": 127, "duration": 120}, {"note": 86, "velocity": 127, "duration": 120}, {"note": 86, "velocity": 122, "duration": 120}, {"note": 86, "velocity": 117, "duration": 120}, {"note": 86, "velocity": 112, "duration": 120}, {"note": 86, "velocity": 127, "duration": 240}, {"note": 84, "velocity": 122, "duration": 120}, {"note": 86, "velocity": 127, "duration": 1727}, {"note": 81, "velocity": 102, "duration": 431}, {"note": 83, "velocity": 122, "duration": 465}, {"note": 86, "velocity": 117, "duration": 289}, {"note": 84, "velocity": 117, "duration": 1425}]]