[[{"note": 71, "velocity": 101, "duration": 99}, {"note": 0, "velocity": 0, "duration": 141}, {"note": 71, "velocity": 115, "duration": 136}, {"note": 0, "velocity": 0, "duration": 224}, {"note": 62, "velocity": 115, "duration": 58}, {"note": 0, "velocity": 0, "duration": 62}, {"note": 71, "velocity": 115, "duration": 62}, {"note": 69, "velocity": 106, "duration": 43}, {"note": 0, "velocity": 0, "duration": 77}, {"note": 69, "velocity": 112, "duration": 92}, {"note": 0, "velocity": 0, "duration": 148}, {"note": 74, "velocity": 104, "duration": 104}, {"note": 0, "velocity": 0, "duration": 256}, {"note": 74, "velocity": 106, "duration": 62}, {"note": 74, "velocity": 115, "duration": 131}, {"note": 0, "velocity": 0, "duration": 109}, {"note": 72, "velocity": 109, "duration": 59}, {"note": 0, "velocity": 0, "duration": 61}, {"note": 72, "velocity": 112, "duration": 292}, {"note": 0, "velocity": 0, "duration": 68}, {"note": 71, "velocity": 109, "duration": 58}, {"note": 0, "velocity": 0, "duration": 62}, {"note": 71, "velocity": 109, "duration": 303}, {"note": 69, "velocity": 109, "duration": 56}, {"note": 0, "velocity": 0, "duration": 64}, {"note": 67, "velocity": 112, "duration": 236}, {"note": 0, "velocity": 0, "duration": 124}, {"note": 64, "velocity": 104, "duration": 234}, {"note": 62, "velocity": 106, "duration": 223}, {"note": 71, "velocity": 109, "duration": 150}, {"note": 0, "velocity": 0, "duration": 90}, {"note": 71, "velocity": 115, "duration": 129}, {"note": 0, "velocity": 0, "duration": 231}, {"note": 71, "velocity": 101, "duration": 58}, {"note": 0, "velocity": 0, "duration": 62}, {"note": 71, "velocity": 112, "duration": 82}, {"note": 69, "velocity": 101, "duration": 53}, {"note": 0, "velocity": 0, "duration": 67}, {"note": 69, "velocity": 106, "duration": 96}, {"note": 0, "velocity": 0, "duration": 144}, {"note": 69, "velocity": 104, "duration": 67}, {"note": 0, "velocity": 0, "duration": 293}, {"note": 74, "velocity": 109, "duration": 49}, {"note": 0, "velocity": 0, "duration": 71}, {"note": 74, "velocity": 115, "duration": 147}, {"note": 0, "velocity": 0, "duration": 93}, {"note": 72, "velocity": 106, "duration": 52}, {"note": 0, "velocity": 0, "duration": 68}, {"note": 72, "velocity": 109, "duration": 308}, {"note": 0, "velocity": 0, "duration": 172}, {"note": 71, "velocity": 109, "duration": 58}, {"note": 0, "velocity": 0, "duration": 62}, {"note": 71, "velocity": 112, "duration": 182}, {"note": 69, "velocity": 112, "duration": 138}, {"note": 0, "velocity": 0, "duration": 102}, {"note": 67, "velocity": 112, "duration": 178}, {"note": 0, "velocity": 0, "duration": 62}, {"note": 69, "velocity": 112, "duration": 218}, {"note": 0, "velocity": 0, "duration": 262}, {"note": 71, "velocity": 115, "duration": 172}, {"note": 0, "velocity": 0, "duration": 68}, {"note": 71, "velocity": 112, "duration": 276}, {"note": 0, "velocity": 0, "duration": 84}, {"note": 71, "velocity": 112, "duration": 68}, {"note": 71, "velocity": 115, "duration": 191}, {"note": 76, "velocity": 109, "duration": 149}, {"note": 0, "velocity": 0, "duration": 91}, {"note": 78, "velocity": 115, "duration": 149}, {"note": 0, "velocity": 0, "duration": 91}, {"note": 78, "velocity": 112, "duration": 216}, {"note": 74, "velocity": 115, "duration": 154}, {"note": 0, "velocity": 0, "duration": 86}, {"note": 74, "velocity": 112, "duration": 188}, {"note": 78, "velocity": 120, "duration": 168}, {"note": 0, "velocity": 0, "duration": 192}, {"note": 79, "velocity": 115, "duration": 480}, {"note": 0, "velocity": 0, "duration": 120}, {"note": 79, "velocity": 118, "duration": 162}, {"note": 0, "velocity": 0, "duration": 78}, {"note": 79, "velocity": 109, "duration": 137}, {"note": 0, "velocity": 0, "duration": 103}, {"note": 74, "velocity": 115, "duration": 166}, {"note": 0, "velocity": 0, "duration": 74}, {"note": 74, "velocity": 106, "duration": 163}, {"note": 0, "velocity": 0, "duration": 77}, {"note": 74, "velocity": 109, "duration": 167}, {"note": 0, "velocity": 0, "duration": 73}, {"note": 74, "velocity": 109, "duration": 120}, {"note": 74, "velocity": 115, "duration": 360}, {"note": 71, "velocity": 106, "duration": 120}, {"note": 0, "velocity": 0, "duration": 120}, {"note": 67, "velocity": 115, "duration": 154}, {"note": 0, "velocity": 0, "duration": 86}, {"note": 74, "velocity": 109, "duration": 915}, {"note": 0, "velocity": 0, "duration": 525}, {"note": 74, "velocity": 112, "duration": 127}, {"note": 0, "velocity": 0, "duration": 113}, {"note": 74, "velocity": 115, "duration": 117}, {"note": 0, "velocity": 0, "duration": 123}, {"note": 67, "velocity": 112, "duration": 125}, {"note": 0, "velocity": 0, "duration": 115}, {"note": 76, "velocity": 112, "duration": 282}, {"note": 0, "velocity": 0, "duration": 78}, {"note": 76, "velocity": 112, "duration": 58}, {"note": 0, "velocity": 0, "duration": 62}, {"note": 74, "velocity": 115, "duration": 141}, {"note": 0, "velocity": 0, "duration": 99}, {"note": 71, "velocity": 109, "duration": 168}, {"note": 0, "velocity": 0, "duration": 72}, {"note": 69, "velocity": 112, "duration": 193}, {"note": 0, "velocity": 0, "duration": 167}, {"note": 69, "velocity": 112, "duration": 66}, {"note": 71, "velocity": 115, "duration": 165}, {"note": 0, "velocity": 0, "duration": 75}, {"note": 72, "velocity": 112, "duration": 148}, {"note": 0, "velocity": 0, "duration": 92}, {"note": 74, "velocity": 118, "duration": 240}, {"note": 74, "velocity": 112, "duration": 66}, {"note": 71, "velocity": 118, "duration": 273}, {"note": 0, "velocity": 0, "duration": 87}, {"note": 69, "velocity": 112, "duration": 165}, {"note": 0, "velocity": 0, "duration": 75}, {"note": 68, "velocity": 120, "duration": 277}, {"note": 0, "velocity": 0, "duration": 83}, {"note": 68, "velocity": 117, "duration": 73}, {"note": 69, "velocity": 112, "duration": 155}, {"note": 0, "velocity": 0, "duration": 85}, {"note": 71, "velocity": 112, "duration": 172}, {"note": 0, "velocity": 0, "duration": 68}, {"note": 72, "velocity": 112, "duration": 252}, {"note": 71, "velocity": 109, "duration": 90}, {"note": 0, "velocity": 0, "duration": 150}, {"note": 67, "velocity": 112, "duration": 148}, {"note": 0, "velocity": 0, "duration": 92}, {"note": 64, "velocity": 101, "duration": 57}, {"note": 0, "velocity": 0, "duration": 63}, {"note": 67, "velocity": 112, "duration": 342}, {"note": 0, "velocity": 0, "duration": 618}, {"note": 71, "velocity": 112, "duration": 59}, {"note": 0, "velocity": 0, "duration": 61}, {"note": 72, "velocity": 115, "duration": 169}, {"note": 0, "velocity": 0, "duration": 71}, {"note": 71, "velocity": 112, "duration": 60}, {"note": 67, "velocity": 115, "duration": 292}, {"note": 0, "velocity": 0, "duration": 68}, {"note": 76, "velocity": 115, "duration": 162}, {"note": 0, "velocity": 0, "duration": 78}, {"note": 74, "velocity": 115, "duration": 170}, {"note": 0, "velocity": 0, "duration": 70}, {"note": 74, "velocity": 112, "duration": 127}, {"note": 0, "velocity": 0, "duration": 113}, {"note": 74, "velocity": 115, "duration": 117}, {"note": 0, "velocity": 0, "duration": 123}, {"note": 67, "velocity": 112, "duration": 125}, {"note": 0, "velocity": 0, "duration": 115}, {"note": 76, "velocity": 112, "duration": 282}, {"note": 0, "velocity": 0, "duration": 78}, {"note": 76, "velocity": 112, "duration": 58}, {"note": 0, "velocity": 0, "duration": 62}, {"note": 74, "velocity": 115, "duration": 141}, {"note": 0, "velocity": 0, "duration": 99}, {"note": 71, "velocity": 109, "duration": 168}, {"note": 0, "velocity": 0, "duration": 72}, {"note": 69, "velocity": 112, "duration": 193}, {"note": 0, "velocity": 0, "duration": 167}, {"note": 69, "velocity": 112, "duration": 66}, {"note": 71, "velocity": 115, "duration": 165}, {"note": 0, "velocity": 0, "duration": 75}, {"note": 72, "velocity": 112, "duration": 148}, {"note": 0, "velocity": 0, "duration": 92}, {"note": 74, "velocity": 118, "duration": 240}, {"note": 74, "velocity": 112, "duration": 66}, {"note": 74, "velocity": 118, "duration": 273}, {"note": 0, "velocity": 0, "duration": 87}, {"note": 78, "velocity": 112, "duration": 165}, {"note": 0, "velocity": 0, "duration": 75}, {"note": 76, "velocity": 120, "duration": 277}, {"note": 0, "velocity": 0, "duration": 186}, {"note": 76, "velocity": 109, "duration": 120}, {"note": 74, "velocity": 109, "duration": 93}, {"note": 0, "velocity": 0, "duration": 61}, {"note": 71, "velocity": 112, "duration": 86}, {"note": 0, "velocity": 0, "duration": 72}, {"note": 72, "velocity": 115, "duration": 324}, {"note": 0, "velocity": 0, "duration": 149}, {"note": 72, "velocity": 115, "duration": 119}, {"note": 71, "velocity": 112, "duration": 95}, {"note": 71, "velocity": 109, "duration": 90}, {"note": 0, "velocity": 0, "duration": 74}, {"note": 67, "velocity": 112, "duration": 234}, {"note": 62, "velocity": 115, "duration": 194}, {"note": 69, "velocity": 112, "duration": 480}, {"note": 71, "velocity": 109, "duration": 1200}, {"note": 0, "velocity": 0, "duration": 222}, {"note": 76, "velocity": 109, "duration": 125}, {"note": 74, "velocity": 112, "duration": 94}, {"note": 0, "velocity": 0, "duration": 72}, {"note": 71, "velocity": 109, "duration": 89}, {"note": 0, "velocity": 0, "duration": 61}, {"note": 72, "velocity": 109, "duration": 364}, {"note": 0, "velocity": 0, "duration": 110}, {"note": 72, "velocity": 112, "duration": 110}, {"note": 0, "velocity": 0, "duration": 61}, {"note": 71, "velocity": 115, "duration": 116}, {"note": 69, "velocity": 106, "duration": 88}, {"note": 0, "velocity": 0, "duration": 68}, {"note": 67, "velocity": 112, "duration": 207}, {"note": 62, "velocity": 115, "duration": 60}, {"note": 62, "velocity": 112, "duration": 78}, {"note": 69, "velocity": 118, "duration": 429}, {"note": 67, "velocity": 115, "duration": 1864}, {"note": 0, "velocity": 0, "duration": 6056}, {"note": 71, "velocity": 101, "duration": 99}, {"note": 0, "velocity": 0, "duration": 141}, {"note": 71, "velocity": 115, "duration": 136}, {"note": 0, "velocity": 0, "duration": 224}, {"note": 62, "velocity": 115, "duration": 58}, {"note": 0, "velocity": 0, "duration": 62}, {"note": 71, "velocity": 115, "duration": 62}, {"note": 69, "velocity": 106, "duration": 43}, {"note": 0, "velocity": 0, "duration": 77}, {"note": 69, "velocity": 112, "duration": 92}, {"note": 0, "velocity": 0, "duration": 148}, {"note": 74, "velocity": 104, "duration": 104}, {"note": 0, "velocity": 0, "duration": 256}, {"note": 74, "velocity": 106, "duration": 62}, {"note": 74, "velocity": 115, "duration": 131}, {"note": 0, "velocity": 0, "duration": 109}, {"note": 72, "velocity": 109, "duration": 59}, {"note": 0, "velocity": 0, "duration": 61}, {"note": 72, "velocity": 112, "duration": 292}, {"note": 0, "velocity": 0, "duration": 68}, {"note": 71, "velocity": 109, "duration": 58}, {"note": 0, "velocity": 0, "duration": 62}, {"note": 71, "velocity": 109, "duration": 303}, {"note": 69, "velocity": 109, "duration": 56}, {"note": 0, "velocity": 0, "duration": 64}, {"note": 67, "velocity": 112, "duration": 236}, {"note": 0, "velocity": 0, "duration": 124}, {"note": 64, "velocity": 104, "duration": 234}, {"note": 62, "velocity": 106, "duration": 223}, {"note": 71, "velocity": 109, "duration": 150}, {"note": 0, "velocity": 0, "duration": 90}, {"note": 71, "velocity": 115, "duration": 129}, {"note": 0, "velocity": 0, "duration": 231}, {"note": 71, "velocity": 101, "duration": 58}, {"note": 0, "velocity": 0, "duration": 62}, {"note": 71, "velocity": 112, "duration": 82}, {"note": 69, "velocity": 101, "duration": 53}, {"note": 0, "velocity": 0, "duration": 67}, {"note": 69, "velocity": 106, "duration": 96}, {"note": 0, "velocity": 0, "duration": 144}, {"note": 69, "velocity": 104, "duration": 67}, {"note": 0, "velocity": 0, "duration": 293}, {"note": 74, "velocity": 109, "duration": 49}, {"note": 0, "velocity": 0, "duration": 71}, {"note": 74, "velocity": 115, "duration": 147}, {"note": 0, "velocity": 0, "duration": 93}, {"note": 72, "velocity": 106, "duration": 52}, {"note": 0, "velocity": 0, "duration": 68}, {"note": 72, "velocity": 109, "duration": 308}, {"note": 0, "velocity": 0, "duration": 172}, {"note": 71, "velocity": 109, "duration": 58}, {"note": 0, "velocity": 0, "duration": 62}, {"note": 71, "velocity": 112, "duration": 182}, {"note": 69, "velocity": 112, "duration": 138}, {"note": 0, "velocity": 0, "duration": 102}, {"note": 67, "velocity": 112, "duration": 178}, {"note": 0, "velocity": 0, "duration": 62}, {"note": 69, "velocity": 112, "duration": 218}, {"note": 0, "velocity": 0, "duration": 262}, {"note": 71, "velocity": 115, "duration": 172}, {"note": 0, "velocity": 0, "duration": 68}, {"note": 71, "velocity": 112, "duration": 276}, {"note": 0, "velocity": 0, "duration": 84}, {"note": 71, "velocity": 112, "duration": 68}, {"note": 71, "velocity": 115, "duration": 191}, {"note": 76, "velocity": 109, "duration": 149}, {"note": 0, "velocity": 0, "duration": 91}, {"note": 78, "velocity": 115, "duration": 149}, {"note": 0, "velocity": 0, "duration": 91}, {"note": 78, "velocity": 112, "duration": 216}, {"note": 74, "velocity": 115, "duration": 154}, {"note": 0, "velocity": 0, "duration": 86}, {"note": 74, "velocity": 112, "duration": 188}, {"note": 78, "velocity": 120, "duration": 168}, {"note": 0, "velocity": 0, "duration": 192}, {"note": 79, "velocity": 115, "duration": 480}, {"note": 0, "velocity": 0, "duration": 120}, {"note": 79, "velocity": 118, "duration": 162}, {"note": 0, "velocity": 0, "duration": 78}, {"note": 79, "velocity": 109, "duration": 137}, {"note": 0, "velocity": 0, "duration": 103}, {"note": 74, "velocity": 115, "duration": 166}, {"note": 0, "velocity": 0, "duration": 74}, {"note": 74, "velocity": 106, "duration": 163}, {"note": 0, "velocity": 0, "duration": 77}, {"note": 74, "velocity": 109, "duration": 167}, {"note": 0, "velocity": 0, "duration": 73}, {"note": 74, "velocity": 109, "duration": 120}, {"note": 74, "velocity": 115, "duration": 360}, {"note": 71, "velocity": 106, "duration": 120}, {"note": 0, "velocity": 0, "duration": 120}, {"note": 67, "velocity": 115, "duration": 154}, {"note": 0, "velocity": 0, "duration": 86}, {"note": 74, "velocity": 109, "duration": 915}, {"note": 0, "velocity": 0, "duration": 525}, {"note": 74, "velocity": 112, "duration": 127}, {"note": 0, "velocity": 0, "duration": 113}, {"note": 74, "velocity": 115, "duration": 117}, {"note": 0, "velocity": 0, "duration": 123}, {"note": 67, "velocity": 112, "duration": 125}, {"note": 0, "velocity": 0, "duration": 115}, {"note": 76, "velocity": 112, "duration": 282}, {"note": 0, "velocity": 0, "duration": 78}, {"note": 76, "velocity": 112, "duration": 58}, {"note": 0, "velocity": 0, "duration": 62}, {"note": 74, "velocity": 115, "duration": 141}, {"note": 0, "velocity": 0, "duration": 99}, {"note": 71, "velocity": 109, "duration": 168}, {"note": 0, "velocity": 0, "duration": 72}, {"note": 69, "velocity": 112, "duration": 193}, {"note": 0, "velocity": 0, "duration": 167}, {"note": 69, "velocity": 112, "duration": 66}, {"note": 71, "velocity": 115, "duration": 165}, {"note": 0, "velocity": 0, "duration": 75}, {"note": 72, "velocity": 112, "duration": 148}, {"note": 0, "velocity": 0, "duration": 92}, {"note": 74, "velocity": 118, "duration": 240}, {"note": 74, "velocity": 112, "duration": 66}, {"note": 71, "velocity": 118, "duration": 273}, {"note": 0, "velocity": 0, "duration": 87}, {"note": 69, "velocity": 112, "duration": 165}, {"note": 0, "velocity": 0, "duration": 75}, {"note": 68, "velocity": 120, "duration": 277}, {"note": 0, "velocity": 0, "duration": 83}, {"note": 68, "velocity": 117, "duration": 73}, {"note": 69, "velocity": 112, "duration": 155}, {"note": 0, "velocity": 0, "duration": 85}, {"note": 71, "velocity": 112, "duration": 172}, {"note": 0, "velocity": 0, "duration": 68}, {"note": 72, "velocity": 112, "duration": 252}, {"note": 71, "velocity": 109, "duration": 90}, {"note": 0, "velocity": 0, "duration": 150}, {"note": 67, "velocity": 112, "duration": 148}, {"note": 0, "velocity": 0, "duration": 92}, {"note": 64, "velocity": 101, "duration": 57}, {"note": 0, "velocity": 0, "duration": 63}, {"note": 67, "velocity": 112, "duration": 342}, {"note": 0, "velocity": 0, "duration": 618}, {"note": 71, "velocity": 112, "duration": 59}, {"note": 0, "velocity": 0, "duration": 61}, {"note": 72, "velocity": 115, "duration": 169}, {"note": 0, "velocity": 0, "duration": 71}, {"note": 71, "velocity": 112, "duration": 60}, {"note": 67, "velocity": 115, "duration": 292}, {"note": 0, "velocity": 0, "duration": 68}, {"note": 76, "velocity": 115, "duration": 162}, {"note": 0, "velocity": 0, "duration": 78}, {"note": 74, "velocity": 115, "duration": 170}, {"note": 0, "velocity": 0, "duration": 70}, {"note": 74, "velocity": 112, "duration": 127}, {"note": 0, "velocity": 0, "duration": 113}, {"note": 74, "velocity": 115, "duration": 117}, {"note": 0, "velocity": 0, "duration": 123}, {"note": 67, "velocity": 112, "duration": 125}, {"note": 0, "velocity": 0, "duration": 115}, {"note": 76, "velocity": 112, "duration": 282}, {"note": 0, "velocity": 0, "duration": 78}, {"note": 76, "velocity": 112, "duration": 58}, {"note": 0, "velocity": 0, "duration": 62}, {"note": 74, "velocity": 115, "duration": 141}, {"note": 0, "velocity": 0, "duration": 99}, {"note": 71, "velocity": 109, "duration": 168}, {"note": 0, "velocity": 0, "duration": 72}, {"note": 69, "velocity": 112, "duration": 193}, {"note": 0, "velocity": 0, "duration": 167}, {"note": 69, "velocity": 112, "duration": 66}, {"note": 71, "velocity": 115, "duration": 165}, {"note": 0, "velocity": 0, "duration": 75}, {"note": 72, "velocity": 112, "duration": 148}, {"note": 0, "velocity": 0, "duration": 92}, {"note": 74, "velocity": 118, "duration": 240}, {"note": 74, "velocity": 112, "duration": 66}, {"note": 74, "velocity": 118, "duration": 273}, {"note": 0, "velocity": 0, "duration": 87}, {"note": 78, "velocity": 112, "duration": 165}, {"note": 0, "velocity": 0, "duration": 75}, {"note": 76, "velocity": 120, "duration": 277}, {"note": 0, "velocity": 0, "duration": 186}, {"note": 76, "velocity": 109, "duration": 120}, {"note": 74, "velocity": 109, "duration": 93}, {"note": 0, "velocity": 0, "duration": 61}, {"note": 71, "velocity": 112, "duration": 86}, {"note": 0, "velocity": 0, "duration": 72}, {"note": 72, "velocity": 115, "duration": 324}, {"note": 0, "velocity": 0, "duration": 149}, {"note": 72, "velocity": 115, "duration": 119}, {"note": 71, "velocity": 112, "duration": 95}, {"note": 71, "velocity": 109, "duration": 90}, {"note": 0, "velocity": 0, "duration": 74}, {"note": 67, "velocity": 112, "duration": 234}, {"note": 62, "velocity": 115, "duration": 194}, {"note": 69, "velocity": 112, "duration": 480}, {"note": 71, "velocity": 109, "duration": 1200}, {"note": 0, "velocity": 0, "duration": 222}, {"note": 76, "velocity": 109, "duration": 125}, {"note": 74, "velocity": 112, "duration": 94}, {"note": 0, "velocity": 0, "duration": 72}, {"note": 71, "velocity": 109, "duration": 89}, {"note": 0, "velocity": 0, "duration": 61}, {"note": 72, "velocity": 109, "duration": 364}, {"note": 0, "velocity": 0, "duration": 110}, {"note": 72, "velocity": 112, "duration": 110}, {"note": 0, "velocity": 0, "duration": 61}, {"note": 71, "velocity": 115, "duration": 116}, {"note": 69, "velocity": 106, "duration": 88}, {"note": 0, "velocity": 0, "duration": 68}, {"note": 67, "velocity": 112, "duration": 207}, {"note": 62, "velocity": 115, "duration": 60}, {"note": 62, "velocity": 112, "duration": 78}, {"note": 69, "velocity": 118, "duration": 429}, {"note": 67, "velocity": 115, "duration": 1864}, {"note": 0, "velocity": 0, "duration": 15176}, {"note": 76, "velocity": 112, "duration": 127}, {"note": 0, "velocity": 0, "duration": 113}, {"note": 76, "velocity": 115, "duration": 117}, {"note": 0, "velocity": 0, "duration": 123}, {"note": 69, "velocity": 112, "duration": 125}, {"note": 0, "velocity": 0, "duration": 115}, {"note": 78, "velocity": 112, "duration": 282}, {"note": 0, "velocity": 0, "duration": 78}, {"note": 78, "velocity": 112, "duration": 58}, {"note": 0, "velocity": 0, "duration": 62}, {"note": 76, "velocity": 115, "duration": 141}, {"note": 0, "velocity": 0, "duration": 99}, {"note": 73, "velocity": 109, "duration": 168}, {"note": 0, "velocity": 0, "duration": 72}, {"note": 71, "velocity": 112, "duration": 193}, {"note": 0, "velocity": 0, "duration": 167}, {"note": 71, "velocity": 112, "duration": 66}, {"note": 73, "velocity": 115, "duration": 165}, {"note": 0, "velocity": 0, "duration": 75}, {"note": 74, "velocity": 112, "duration": 148}, {"note": 0, "velocity": 0, "duration": 92}, {"note": 76, "velocity": 118, "duration": 240}, {"note": 76, "velocity": 112, "duration": 66}, {"note": 73, "velocity": 118, "duration": 273}, {"note": 0, "velocity": 0, "duration": 87}, {"note": 71, "velocity": 112, "duration": 165}, {"note": 0, "velocity": 0, "duration": 75}, {"note": 70, "velocity": 120, "duration": 277}, {"note": 0, "velocity": 0, "duration": 83}, {"note": 70, "velocity": 117, "duration": 73}, {"note": 71, "velocity": 112, "duration": 155}, {"note": 0, "velocity": 0, "duration": 85}, {"note": 73, "velocity": 112, "duration": 172}, {"note": 0, "velocity": 0, "duration": 68}, {"note": 74, "velocity": 112, "duration": 252}, {"note": 73, "velocity": 109, "duration": 90}, {"note": 0, "velocity": 0, "duration": 150}, {"note": 69, "velocity": 112, "duration": 148}, {"note": 0, "velocity": 0, "duration": 92}, {"note": 66, "velocity": 101, "duration": 57}, {"note": 0, "velocity": 0, "duration": 63}, {"note": 69, "velocity": 112, "duration": 342}, {"note": 0, "velocity": 0, "duration": 618}, {"note": 73, "velocity": 112, "duration": 59}, {"note": 0, "velocity": 0, "duration": 61}, {"note": 74, "velocity": 115, "duration": 169}, {"note": 0, "velocity": 0, "duration": 71}, {"note": 73, "velocity": 112, "duration": 60}, {"note": 69, "velocity": 115, "duration": 292}, {"note": 0, "velocity": 0, "duration": 68}, {"note": 78, "velocity": 115, "duration": 162}, {"note": 0, "velocity": 0, "duration": 78}, {"note": 76, "velocity": 115, "duration": 170}, {"note": 0, "velocity": 0, "duration": 70}, {"note": 76, "velocity": 112, "duration": 127}, {"note": 0, "velocity": 0, "duration": 113}, {"note": 76, "velocity": 115, "duration": 117}, {"note": 0, "velocity": 0, "duration": 123}, {"note": 69, "velocity": 112, "duration": 125}, {"note": 0, "velocity": 0, "duration": 115}, {"note": 78, "velocity": 112, "duration": 282}, {"note": 0, "velocity": 0, "duration": 78}, {"note": 78, "velocity": 112, "duration": 58}, {"note": 0, "velocity": 0, "duration": 62}, {"note": 76, "velocity": 115, "duration": 141}, {"note": 0, "velocity": 0, "duration": 99}, {"note": 73, "velocity": 109, "duration": 168}, {"note": 0, "velocity": 0, "duration": 72}, {"note": 71, "velocity": 112, "duration": 193}, {"note": 0, "velocity": 0, "duration": 167}, {"note": 71, "velocity": 112, "duration": 66}, {"note": 73, "velocity": 115, "duration": 165}, {"note": 0, "velocity": 0, "duration": 75}, {"note": 74, "velocity": 112, "duration": 148}, {"note": 0, "velocity": 0, "duration": 92}, {"note": 76, "velocity": 118, "duration": 240}, {"note": 76, "velocity": 112, "duration": 66}, {"note": 76, "velocity": 118, "duration": 273}, {"note": 0, "velocity": 0, "duration": 87}, {"note": 80, "velocity": 112, "duration": 165}, {"note": 0, "velocity": 0, "duration": 75}, {"note": 78, "velocity": 120, "duration": 277}, {"note": 0, "velocity": 0, "duration": 186}, {"note": 78, "velocity": 109, "duration": 120}, {"note": 76, "velocity": 109, "duration": 93}, {"note": 0, "velocity": 0, "duration": 61}, {"note": 73, "velocity": 112, "duration": 86}, {"note": 0, "velocity": 0, "duration": 72}, {"note": 74, "velocity": 115, "duration": 324}, {"note": 0, "velocity": 0, "duration": 149}, {"note": 74, "velocity": 115, "duration": 119}, {"note": 73, "velocity": 112, "duration": 95}, {"note": 73, "velocity": 109, "duration": 90}, {"note": 0, "velocity": 0, "duration": 74}, {"note": 69, "velocity": 112, "duration": 234}, {"note": 64, "velocity": 115, "duration": 194}, {"note": 71, "velocity": 112, "duration": 480}, {"note": 73, "velocity": 109, "duration": 1200}, {"note": 0, "velocity": 0, "duration": 222}, {"note": 78, "velocity": 109, "duration": 125}, {"note": 76, "velocity": 112, "duration": 94}, {"note": 0, "velocity": 0, "duration": 72}, {"note": 73, "velocity": 109, "duration": 89}, {"note": 0, "velocity": 0, "duration": 61}, {"note": 74, "velocity": 109, "duration": 364}, {"note": 0, "velocity": 0, "duration": 110}, {"note": 74, "velocity": 112, "duration": 110}, {"note": 0, "velocity": 0, "duration": 61}, {"note": 73, "velocity": 115, "duration": 116}, {"note": 71, "velocity": 106, "duration": 88}, {"note": 0, "velocity": 0, "duration": 68}, {"note": 69, "velocity": 112, "duration": 207}, {"note": 64, "velocity": 115, "duration": 60}, {"note": 64, "velocity": 112, "duration": 78}, {"note": 71, "velocity": 118, "duration": 429}, {"note": 69, "velocity": 115, "duration": 240}, {"note": 76, "velocity": 109, "duration": 125}, {"note": 0, "velocity": 0, "duration": 115}, {"note": 76, "velocity": 109, "duration": 171}, {"note": 0, "velocity": 0, "duration": 69}, {"note": 76, "velocity": 106, "duration": 54}, {"note": 0, "velocity": 0, "duration": 66}, {"note": 76, "velocity": 112, "duration": 275}, {"note": 0, "velocity": 0, "duration": 85}, {"note": 74, "velocity": 115, "duration": 163}, {"note": 0, "velocity": 0, "duration": 77}, {"note": 73, "velocity": 112, "duration": 166}, {"note": 0, "velocity": 0, "duration": 69}, {"note": 74, "velocity": 109, "duration": 150}, {"note": 0, "velocity": 0, "duration": 95}, {"note": 74, "velocity": 112, "duration": 159}, {"note": 0, "velocity": 0, "duration": 81}, {"note": 73, "velocity": 120, "duration": 183}, {"note": 73, "velocity": 112, "duration": 147}, {"note": 0, "velocity": 0, "duration": 93}, {"note": 73, "velocity": 109, "duration": 133}, {"note": 0, "velocity": 0, "duration": 107}, {"note": 73, "velocity": 112, "duration": 240}, {"note": 71, "velocity": 106, "duration": 175}, {"note": 0, "velocity": 0, "duration": 65}, {"note": 69, "velocity": 109, "duration": 68}, {"note": 71, "velocity": 112, "duration": 67}, {"note": 69, "velocity": 115, "duration": 362}, {"note": 0, "velocity": 0, "duration": 118}, {"note": 76, "velocity": 109, "duration": 125}, {"note": 0, "velocity": 0, "duration": 115}, {"note": 76, "velocity": 109, "duration": 171}, {"note": 0, "velocity": 0, "duration": 69}, {"note": 76, "velocity": 106, "duration": 54}, {"note": 0, "velocity": 0, "duration": 66}, {"note": 76, "velocity": 112, "duration": 275}, {"note": 0, "velocity": 0, "duration": 85}, {"note": 74, "velocity": 115, "duration": 163}, {"note": 0, "velocity": 0, "duration": 77}, {"note": 73, "velocity": 112, "duration": 166}, {"note": 0, "velocity": 0, "duration": 69}, {"note": 74, "velocity": 109, "duration": 150}, {"note": 0, "velocity": 0, "duration": 95}, {"note": 74, "velocity": 112, "duration": 159}, {"note": 0, "velocity": 0, "duration": 81}, {"note": 73, "velocity": 120, "duration": 183}, {"note": 73, "velocity": 112, "duration": 147}, {"note": 0, "velocity": 0, "duration": 93}, {"note": 73, "velocity": 109, "duration": 133}, {"note": 0, "velocity": 0, "duration": 107}, {"note": 73, "velocity": 112, "duration": 240}, {"note": 76, "velocity": 106, "duration": 175}, {"note": 0, "velocity": 0, "duration": 65}, {"note": 71, "velocity": 109, "duration": 68}, {"note": 69, "velocity": 112, "duration": 67}, {"note": 69, "velocity": 115, "duration": 362}, {"note": 0, "velocity": 0, "duration": 118}, {"note": 76, "velocity": 109, "duration": 125}, {"note": 0, "velocity": 0, "duration": 115}, {"note": 76, "velocity": 109, "duration": 171}, {"note": 0, "velocity": 0, "duration": 69}, {"note": 76, "velocity": 106, "duration": 54}, {"note": 0, "velocity": 0, "duration": 66}, {"note": 76, "velocity": 112, "duration": 275}, {"note": 0, "velocity": 0, "duration": 85}, {"note": 74, "velocity": 115, "duration": 163}, {"note": 0, "velocity": 0, "duration": 77}, {"note": 73, "velocity": 112, "duration": 166}, {"note": 0, "velocity": 0, "duration": 69}, {"note": 74, "velocity": 109, "duration": 150}, {"note": 0, "velocity": 0, "duration": 95}, {"note": 74, "velocity": 112, "duration": 159}, {"note": 0, "velocity": 0, "duration": 81}, {"note": 73, "velocity": 120, "duration": 183}, {"note": 73, "velocity": 112, "duration": 147}, {"note": 0, "velocity": 0, "duration": 93}, {"note": 73, "velocity": 109, "duration": 133}, {"note": 0, "velocity": 0, "duration": 107}, {"note": 73, "velocity": 112, "duration": 240}, {"note": 71, "velocity": 106, "duration": 175}, {"note": 0, "velocity": 0, "duration": 65}, {"note": 69, "velocity": 109, "duration": 68}, {"note": 71, "velocity": 112, "duration": 67}, {"note": 69, "velocity": 115, "duration": 362}, {"note": 0, "velocity": 0, "duration": 118}, {"note": 76, "velocity": 109, "duration": 125}, {"note": 0, "velocity": 0, "duration": 115}, {"note": 76, "velocity": 109, "duration": 171}, {"note": 0, "velocity": 0, "duration": 69}, {"note": 76, "velocity": 106, "duration": 54}, {"note": 0, "velocity": 0, "duration": 66}, {"note": 76, "velocity": 112, "duration": 275}, {"note": 0, "velocity": 0, "duration": 85}, {"note": 74, "velocity": 115, "duration": 163}, {"note": 0, "velocity": 0, "duration": 77}, {"note": 73, "velocity": 112, "duration": 166}, {"note": 0, "velocity": 0, "duration": 69}, {"note": 74, "velocity": 109, "duration": 150}, {"note": 0, "velocity": 0, "duration": 95}, {"note": 74, "velocity": 112, "duration": 159}, {"note": 0, "velocity": 0, "duration": 81}, {"note": 73, "velocity": 120, "duration": 183}, {"note": 73, "velocity": 112, "duration": 147}, {"note": 0, "velocity": 0, "duration": 93}, {"note": 73, "velocity": 109, "duration": 133}, {"note": 0, "velocity": 0, "duration": 107}, {"note": 73, "velocity": 112, "duration": 240}, {"note": 76, "velocity": 106, "duration": 175}, {"note": 0, "velocity": 0, "duration": 65}, {"note": 71, "velocity": 109, "duration": 68}, {"note": 69, "velocity": 112, "duration": 67}, {"note": 69, "velocity": 115, "duration": 362}]]