[[{"note": 76, "velocity": 94, "duration": 120}, {"note": 78, "velocity": 110, "duration": 120}, {"note": 76, "velocity": 104, "duration": 120}, {"note": 74, "velocity": 109, "duration": 120}, {"note": 71, "velocity": 106, "duration": 240}, {"note": 74, "velocity": 94, "duration": 119}, {"note": 74, "velocity": 101, "duration": 1080}, {"note": 71, "velocity": 101, "duration": 120}, {"note": 74, "velocity": 101, "duration": 119}, {"note": 74, "velocity": 106, "duration": 120}, {"note": 76, "velocity": 104, "duration": 120}, {"note": 74, "velocity": 112, "duration": 240}, {"note": 71, "velocity": 109, "duration": 120}, {"note": 69, "velocity": 99, "duration": 1079}, {"note": 69, "velocity": 112, "duration": 120}, {"note": 71, "velocity": 106, "duration": 120}, {"note": 69, "velocity": 109, "duration": 120}, {"note": 67, "velocity": 109, "duration": 120}, {"note": 69, "velocity": 104, "duration": 125}, {"note": 64, "velocity": 104, "duration": 124}, {"note": 67, "velocity": 109, "duration": 599}, {"note": 67, "velocity": 109, "duration": 120}, {"note": 69, "velocity": 109, "duration": 129}, {"note": 64, "velocity": 109, "duration": 111}, {"note": 67, "velocity": 94, "duration": 479}, {"note": 67, "velocity": 104, "duration": 119}, {"note": 67, "velocity": 104, "duration": 119}, {"note": 67, "velocity": 109, "duration": 119}, {"note": 67, "velocity": 109, "duration": 119}, {"note": 67, "velocity": 104, "duration": 119}, {"note": 67, "velocity": 106, "duration": 120}, {"note": 74, "velocity": 112, "duration": 240}, {"note": 76, "velocity": 106, "duration": 168}, {"note": 69, "velocity": 94, "duration": 188}, {"note": 71, "velocity": 80, "duration": 127}, {"note": 69, "velocity": 84, "duration": 269}, {"note": 76, "velocity": 94, "duration": 119}, {"note": 76, "velocity": 110, "duration": 119}, {"note": 76, "velocity": 104, "duration": 126}, {"note": 71, "velocity": 109, "duration": 108}, {"note": 76, "velocity": 106, "duration": 246}, {"note": 71, "velocity": 94, "duration": 120}, {"note": 74, "velocity": 101, "duration": 1080}, {"note": 71, "velocity": 101, "duration": 125}, {"note": 71, "velocity": 101, "duration": 114}, {"note": 74, "velocity": 106, "duration": 120}, {"note": 71, "velocity": 104, "duration": 121}, {"note": 74, "velocity": 107, "duration": 112}, {"note": 74, "velocity": 99, "duration": 132}, {"note": 76, "velocity": 93, "duration": 131}, {"note": 69, "velocity": 99, "duration": 1080}, {"note": 74, "velocity": 109, "duration": 119}, {"note": 74, "velocity": 109, "duration": 120}, {"note": 76, "velocity": 106, "duration": 120}, {"note": 74, "velocity": 115, "duration": 120}, {"note": 79, "velocity": 115, "duration": 240}, {"note": 76, "velocity": 112, "duration": 240}, {"note": 74, "velocity": 112, "duration": 119}, {"note": 74, "velocity": 109, "duration": 120}, {"note": 76, "velocity": 109, "duration": 120}, {"note": 74, "velocity": 115, "duration": 120}, {"note": 79, "velocity": 112, "duration": 240}, {"note": 76, "velocity": 112, "duration": 360}, {"note": 74, "velocity": 112, "duration": 120}, {"note": 76, "velocity": 101, "duration": 120}, {"note": 74, "velocity": 115, "duration": 120}, {"note": 79, "velocity": 115, "duration": 120}, {"note": 76, "velocity": 106, "duration": 120}, {"note": 79, "velocity": 112, "duration": 120}, {"note": 76, "velocity": 104, "duration": 120}, {"note": 79, "velocity": 115, "duration": 239}, {"note": 79, "velocity": 112, "duration": 120}, {"note": 81, "velocity": 115, "duration": 240}, {"note": 83, "velocity": 115, "duration": 120}, {"note": 81, "velocity": 112, "duration": 120}, {"note": 74, "velocity": 115, "duration": 359}, {"note": 74, "velocity": 115, "duration": 120}, {"note": 76, "velocity": 109, "duration": 120}, {"note": 83, "velocity": 115, "duration": 120}, {"note": 81, "velocity": 112, "duration": 120}, {"note": 83, "velocity": 115, "duration": 120}, {"note": 81, "velocity": 115, "duration": 120}, {"note": 83, "velocity": 118, "duration": 240}, {"note": 86, "velocity": 109, "duration": 120}, {"note": 81, "velocity": 112, "duration": 239}, {"note": 81, "velocity": 109, "duration": 119}, {"note": 81, "velocity": 112, "duration": 119}, {"note": 81, "velocity": 115, "duration": 120}, {"note": 83, "velocity": 115, "duration": 480}, {"note": 86, "velocity": 109, "duration": 240}, {"note": 79, "velocity": 109, "duration": 1439}, {"note": 79, "velocity": 109, "duration": 120}, {"note": 81, "velocity": 112, "duration": 120}, {"note": 83, "velocity": 115, "duration": 120}, {"note": 81, "velocity": 115, "duration": 120}, {"note": 83, "velocity": 112, "duration": 120}, {"note": 81, "velocity": 115, "duration": 120}, {"note": 83, "velocity": 115, "duration": 239}, {"note": 83, "velocity": 112, "duration": 119}, {"note": 83, "velocity": 112, "duration": 120}, {"note": 81, "velocity": 118, "duration": 119}, {"note": 81, "velocity": 109, "duration": 119}, {"note": 81, "velocity": 112, "duration": 119}, {"note": 81, "velocity": 115, "duration": 120}, {"note": 88, "velocity": 115, "duration": 240}, {"note": 86, "velocity": 115, "duration": 240}, {"note": 81, "velocity": 106, "duration": 240}, {"note": 79, "velocity": 112, "duration": 599}, {"note": 79, "velocity": 109, "duration": 120}, {"note": 78, "velocity": 113, "duration": 240}, {"note": 79, "velocity": 109, "duration": 120}, {"note": 78, "velocity": 117, "duration": 240}, {"note": 79, "velocity": 117, "duration": 360}, {"note": 76, "velocity": 106, "duration": 1440}, {"note": 83, "velocity": 109, "duration": 120}, {"note": 81, "velocity": 118, "duration": 120}, {"note": 79, "velocity": 115, "duration": 120}, {"note": 81, "velocity": 115, "duration": 120}, {"note": 83, "velocity": 112, "duration": 120}, {"note": 81, "velocity": 115, "duration": 120}, {"note": 83, "velocity": 112, "duration": 120}, {"note": 81, "velocity": 115, "duration": 120}, {"note": 83, "velocity": 115, "duration": 240}, {"note": 86, "velocity": 109, "duration": 120}, {"note": 81, "velocity": 112, "duration": 239}, {"note": 81, "velocity": 112, "duration": 119}, {"note": 81, "velocity": 115, "duration": 119}, {"note": 81, "velocity": 112, "duration": 120}, {"note": 83, "velocity": 118, "duration": 480}, {"note": 86, "velocity": 115, "duration": 240}, {"note": 79, "velocity": 109, "duration": 1439}, {"note": 79, "velocity": 112, "duration": 120}, {"note": 81, "velocity": 112, "duration": 120}, {"note": 83, "velocity": 112, "duration": 120}, {"note": 81, "velocity": 112, "duration": 120}, {"note": 83, "velocity": 115, "duration": 120}, {"note": 81, "velocity": 112, "duration": 120}, {"note": 83, "velocity": 115, "duration": 120}, {"note": 86, "velocity": 112, "duration": 240}, {"note": 79, "velocity": 109, "duration": 120}, {"note": 81, "velocity": 112, "duration": 119}, {"note": 81, "velocity": 112, "duration": 119}, {"note": 81, "velocity": 115, "duration": 119}, {"note": 81, "velocity": 106, "duration": 120}, {"note": 88, "velocity": 112, "duration": 240}, {"note": 86, "velocity": 112, "duration": 240}, {"note": 78, "velocity": 117, "duration": 240}, {"note": 79, "velocity": 106, "duration": 599}, {"note": 79, "velocity": 112, "duration": 120}, {"note": 78, "velocity": 117, "duration": 239}, {"note": 78, "velocity": 113, "duration": 120}, {"note": 79, "velocity": 112, "duration": 360}, {"note": 78, "velocity": 120, "duration": 240}, {"note": 74, "velocity": 109, "duration": 240}, {"note": 76, "velocity": 106, "duration": 480}, {"note": 83, "velocity": 96, "duration": 268}, {"note": 81, "velocity": 106, "duration": 3600}, {"note": 0, "velocity": 0, "duration": 11280}, {"note": 76, "velocity": 94, "duration": 120}, {"note": 78, "velocity": 110, "duration": 120}, {"note": 76, "velocity": 104, "duration": 120}, {"note": 74, "velocity": 109, "duration": 120}, {"note": 71, "velocity": 106, "duration": 240}, {"note": 74, "velocity": 94, "duration": 119}, {"note": 74, "velocity": 101, "duration": 1080}, {"note": 71, "velocity": 101, "duration": 120}, {"note": 74, "velocity": 101, "duration": 119}, {"note": 74, "velocity": 106, "duration": 120}, {"note": 76, "velocity": 104, "duration": 120}, {"note": 74, "velocity": 112, "duration": 240}, {"note": 71, "velocity": 109, "duration": 120}, {"note": 69, "velocity": 99, "duration": 1079}, {"note": 69, "velocity": 112, "duration": 120}, {"note": 71, "velocity": 106, "duration": 120}, {"note": 69, "velocity": 109, "duration": 120}, {"note": 67, "velocity": 109, "duration": 120}, {"note": 69, "velocity": 104, "duration": 125}, {"note": 64, "velocity": 104, "duration": 124}, {"note": 67, "velocity": 109, "duration": 599}, {"note": 67, "velocity": 109, "duration": 120}, {"note": 69, "velocity": 109, "duration": 126}, {"note": 64, "velocity": 109, "duration": 114}, {"note": 67, "velocity": 94, "duration": 479}, {"note": 67, "velocity": 104, "duration": 119}, {"note": 67, "velocity": 104, "duration": 119}, {"note": 67, "velocity": 109, "duration": 119}, {"note": 67, "velocity": 109, "duration": 119}, {"note": 67, "velocity": 104, "duration": 119}, {"note": 67, "velocity": 106, "duration": 120}, {"note": 74, "velocity": 112, "duration": 240}, {"note": 76, "velocity": 106, "duration": 241}, {"note": 69, "velocity": 94, "duration": 112}, {"note": 71, "velocity": 78, "duration": 109}, {"note": 69, "velocity": 84, "duration": 258}, {"note": 76, "velocity": 94, "duration": 120}, {"note": 78, "velocity": 110, "duration": 120}, {"note": 76, "velocity": 104, "duration": 126}, {"note": 71, "velocity": 109, "duration": 108}, {"note": 76, "velocity": 106, "duration": 246}, {"note": 71, "velocity": 94, "duration": 120}, {"note": 74, "velocity": 101, "duration": 1080}, {"note": 71, "velocity": 101, "duration": 125}, {"note": 71, "velocity": 101, "duration": 114}, {"note": 74, "velocity": 106, "duration": 120}, {"note": 71, "velocity": 104, "duration": 120}, {"note": 76, "velocity": 112, "duration": 240}, {"note": 71, "velocity": 109, "duration": 120}, {"note": 69, "velocity": 99, "duration": 1080}, {"note": 74, "velocity": 109, "duration": 119}, {"note": 74, "velocity": 109, "duration": 120}, {"note": 76, "velocity": 106, "duration": 120}, {"note": 74, "velocity": 115, "duration": 120}, {"note": 79, "velocity": 115, "duration": 240}, {"note": 76, "velocity": 112, "duration": 240}, {"note": 74, "velocity": 112, "duration": 119}, {"note": 74, "velocity": 109, "duration": 120}, {"note": 76, "velocity": 109, "duration": 120}, {"note": 74, "velocity": 115, "duration": 120}, {"note": 79, "velocity": 112, "duration": 240}, {"note": 76, "velocity": 112, "duration": 360}, {"note": 74, "velocity": 112, "duration": 120}, {"note": 76, "velocity": 101, "duration": 120}, {"note": 74, "velocity": 115, "duration": 120}, {"note": 79, "velocity": 115, "duration": 120}, {"note": 76, "velocity": 106, "duration": 120}, {"note": 79, "velocity": 112, "duration": 120}, {"note": 76, "velocity": 104, "duration": 120}, {"note": 79, "velocity": 115, "duration": 239}, {"note": 79, "velocity": 112, "duration": 120}, {"note": 81, "velocity": 115, "duration": 240}, {"note": 83, "velocity": 115, "duration": 120}, {"note": 81, "velocity": 112, "duration": 120}, {"note": 74, "velocity": 115, "duration": 359}, {"note": 74, "velocity": 115, "duration": 120}, {"note": 76, "velocity": 109, "duration": 120}, {"note": 83, "velocity": 115, "duration": 120}, {"note": 81, "velocity": 112, "duration": 120}, {"note": 83, "velocity": 115, "duration": 120}, {"note": 81, "velocity": 115, "duration": 120}, {"note": 83, "velocity": 118, "duration": 240}, {"note": 86, "velocity": 109, "duration": 120}, {"note": 81, "velocity": 112, "duration": 239}, {"note": 81, "velocity": 109, "duration": 119}, {"note": 81, "velocity": 112, "duration": 119}, {"note": 81, "velocity": 115, "duration": 120}, {"note": 83, "velocity": 115, "duration": 480}, {"note": 86, "velocity": 109, "duration": 240}, {"note": 79, "velocity": 109, "duration": 1439}, {"note": 79, "velocity": 109, "duration": 120}, {"note": 81, "velocity": 112, "duration": 120}, {"note": 83, "velocity": 115, "duration": 120}, {"note": 81, "velocity": 115, "duration": 120}, {"note": 83, "velocity": 112, "duration": 120}, {"note": 81, "velocity": 115, "duration": 120}, {"note": 83, "velocity": 115, "duration": 239}, {"note": 83, "velocity": 112, "duration": 119}, {"note": 83, "velocity": 112, "duration": 120}, {"note": 81, "velocity": 118, "duration": 119}, {"note": 81, "velocity": 109, "duration": 119}, {"note": 81, "velocity": 112, "duration": 119}, {"note": 81, "velocity": 115, "duration": 120}, {"note": 88, "velocity": 115, "duration": 240}, {"note": 86, "velocity": 115, "duration": 240}, {"note": 81, "velocity": 106, "duration": 240}, {"note": 79, "velocity": 112, "duration": 599}, {"note": 79, "velocity": 109, "duration": 120}, {"note": 78, "velocity": 113, "duration": 240}, {"note": 79, "velocity": 109, "duration": 120}, {"note": 78, "velocity": 117, "duration": 240}, {"note": 79, "velocity": 117, "duration": 360}, {"note": 76, "velocity": 106, "duration": 1440}, {"note": 83, "velocity": 109, "duration": 120}, {"note": 81, "velocity": 118, "duration": 120}, {"note": 79, "velocity": 115, "duration": 120}, {"note": 81, "velocity": 115, "duration": 120}, {"note": 83, "velocity": 112, "duration": 120}, {"note": 81, "velocity": 115, "duration": 120}, {"note": 83, "velocity": 112, "duration": 120}, {"note": 81, "velocity": 115, "duration": 120}, {"note": 83, "velocity": 115, "duration": 240}, {"note": 86, "velocity": 109, "duration": 120}, {"note": 81, "velocity": 112, "duration": 239}, {"note": 81, "velocity": 112, "duration": 119}, {"note": 81, "velocity": 115, "duration": 119}, {"note": 81, "velocity": 112, "duration": 120}, {"note": 83, "velocity": 118, "duration": 480}, {"note": 86, "velocity": 115, "duration": 240}, {"note": 79, "velocity": 109, "duration": 1439}, {"note": 79, "velocity": 112, "duration": 120}, {"note": 81, "velocity": 112, "duration": 120}, {"note": 83, "velocity": 112, "duration": 120}, {"note": 81, "velocity": 112, "duration": 120}, {"note": 83, "velocity": 115, "duration": 120}, {"note": 81, "velocity": 112, "duration": 120}, {"note": 83, "velocity": 115, "duration": 120}, {"note": 86, "velocity": 112, "duration": 240}, {"note": 79, "velocity": 109, "duration": 120}, {"note": 81, "velocity": 112, "duration": 119}, {"note": 81, "velocity": 112, "duration": 119}, {"note": 81, "velocity": 115, "duration": 119}, {"note": 81, "velocity": 106, "duration": 120}, {"note": 88, "velocity": 112, "duration": 240}, {"note": 86, "velocity": 112, "duration": 240}, {"note": 78, "velocity": 117, "duration": 240}, {"note": 79, "velocity": 106, "duration": 599}, {"note": 79, "velocity": 112, "duration": 120}, {"note": 78, "velocity": 117, "duration": 239}, {"note": 78, "velocity": 113, "duration": 120}, {"note": 79, "velocity": 112, "duration": 360}, {"note": 78, "velocity": 120, "duration": 240}, {"note": 74, "velocity": 109, "duration": 240}, {"note": 76, "velocity": 106, "duration": 480}, {"note": 83, "velocity": 96, "duration": 268}, {"note": 81, "velocity": 106, "duration": 4320}, {"note": 76, "velocity": 94, "duration": 120}, {"note": 78, "velocity": 110, "duration": 120}, {"note": 76, "velocity": 104, "duration": 120}, {"note": 74, "velocity": 109, "duration": 120}, {"note": 71, "velocity": 106, "duration": 240}, {"note": 74, "velocity": 94, "duration": 119}, {"note": 74, "velocity": 101, "duration": 1080}, {"note": 71, "velocity": 101, "duration": 120}, {"note": 74, "velocity": 101, "duration": 119}, {"note": 74, "velocity": 106, "duration": 120}, {"note": 76, "velocity": 104, "duration": 120}, {"note": 74, "velocity": 112, "duration": 240}, {"note": 71, "velocity": 109, "duration": 120}, {"note": 69, "velocity": 99, "duration": 1079}, {"note": 69, "velocity": 112, "duration": 120}, {"note": 71, "velocity": 106, "duration": 120}, {"note": 69, "velocity": 109, "duration": 120}, {"note": 67, "velocity": 109, "duration": 120}, {"note": 69, "velocity": 104, "duration": 125}, {"note": 64, "velocity": 104, "duration": 124}, {"note": 67, "velocity": 109, "duration": 599}, {"note": 67, "velocity": 109, "duration": 135}, {"note": 69, "velocity": 109, "duration": 138}, {"note": 64, "velocity": 109, "duration": 120}, {"note": 67, "velocity": 94, "duration": 446}, {"note": 67, "velocity": 104, "duration": 119}, {"note": 67, "velocity": 104, "duration": 119}, {"note": 67, "velocity": 109, "duration": 119}, {"note": 67, "velocity": 109, "duration": 119}, {"note": 67, "velocity": 104, "duration": 119}, {"note": 67, "velocity": 106, "duration": 120}, {"note": 74, "velocity": 112, "duration": 240}, {"note": 76, "velocity": 106, "duration": 113}, {"note": 71, "velocity": 104, "duration": 160}, {"note": 69, "velocity": 103, "duration": 491}, {"note": 69, "velocity": 106, "duration": 285}, {"note": 71, "velocity": 101, "duration": 129}, {"note": 69, "velocity": 109, "duration": 326}, {"note": 67, "velocity": 96, "duration": 279}, {"note": 76, "velocity": 109, "duration": 393}, {"note": 74, "velocity": 106, "duration": 127}, {"note": 71, "velocity": 96, "duration": 267}, {"note": 69, "velocity": 87, "duration": 165}, {"note": 67, "velocity": 104, "duration": 933}, {"note": 67, "velocity": 101, "duration": 154}, {"note": 67, "velocity": 99, "duration": 152}, {"note": 69, "velocity": 112, "duration": 817}, {"note": 71, "velocity": 101, "duration": 460}, {"note": 69, "velocity": 96, "duration": 153}, {"note": 67, "velocity": 80, "duration": 1407}]]