[[{"note": 55, "velocity": 115, "duration": 282}, {"note": 0, "velocity": 0, "duration": 78}, {"note": 55, "velocity": 112, "duration": 306}, {"note": 58, "velocity": 120, "duration": 67}, {"note": 60, "velocity": 104, "duration": 59}, {"note": 0, "velocity": 0, "duration": 61}, {"note": 62, "velocity": 109, "duration": 581}, {"note": 0, "velocity": 0, "duration": 143}, {"note": 58, "velocity": 113, "duration": 80}, {"note": 60, "velocity": 106, "duration": 62}, {"note": 62, "velocity": 109, "duration": 165}, {"note": 0, "velocity": 0, "duration": 75}, {"note": 60, "velocity": 101, "duration": 66}, {"note": 60, "velocity": 109, "duration": 283}, {"note": 0, "velocity": 0, "duration": 77}, {"note": 58, "velocity": 117, "duration": 71}, {"note": 60, "velocity": 101, "duration": 75}, {"note": 58, "velocity": 113, "duration": 123}, {"note": 55, "velocity": 104, "duration": 631}, {"note": 0, "velocity": 0, "duration": 209}, {"note": 55, "velocity": 112, "duration": 188}, {"note": 58, "velocity": 117, "duration": 64}, {"note": 60, "velocity": 94, "duration": 67}, {"note": 58, "velocity": 120, "duration": 158}, {"note": 0, "velocity": 0, "duration": 82}, {"note": 55, "velocity": 115, "duration": 134}, {"note": 0, "velocity": 0, "duration": 106}, {"note": 65, "velocity": 109, "duration": 172}, {"note": 0, "velocity": 0, "duration": 68}, {"note": 67, "velocity": 109, "duration": 96}, {"note": 69, "velocity": 112, "duration": 62}, {"note": 67, "velocity": 109, "duration": 102}, {"note": 65, "velocity": 109, "duration": 106}, {"note": 62, "velocity": 104, "duration": 77}, {"note": 60, "velocity": 104, "duration": 65}, {"note": 62, "velocity": 112, "duration": 1212}, {"note": 0, "velocity": 0, "duration": 708}, {"note": 62, "velocity": 118, "duration": 283}, {"note": 0, "velocity": 0, "duration": 77}, {"note": 62, "velocity": 115, "duration": 290}, {"note": 0, "velocity": 0, "duration": 70}, {"note": 65, "velocity": 112, "duration": 187}, {"note": 67, "velocity": 112, "duration": 612}, {"note": 0, "velocity": 0, "duration": 108}, {"note": 65, "velocity": 115, "duration": 57}, {"note": 0, "velocity": 0, "duration": 63}, {"note": 67, "velocity": 112, "duration": 86}, {"note": 67, "velocity": 109, "duration": 259}, {"note": 0, "velocity": 0, "duration": 101}, {"note": 55, "velocity": 109, "duration": 80}, {"note": 58, "velocity": 117, "duration": 78}, {"note": 60, "velocity": 101, "duration": 70}, {"note": 62, "velocity": 106, "duration": 183}, {"note": 60, "velocity": 99, "duration": 779}, {"note": 0, "velocity": 0, "duration": 181}, {"note": 62, "velocity": 115, "duration": 157}, {"note": 0, "velocity": 0, "duration": 83}, {"note": 65, "velocity": 115, "duration": 57}, {"note": 0, "velocity": 0, "duration": 63}, {"note": 67, "velocity": 109, "duration": 65}, {"note": 65, "velocity": 118, "duration": 149}, {"note": 0, "velocity": 0, "duration": 91}, {"note": 62, "velocity": 115, "duration": 152}, {"note": 0, "velocity": 0, "duration": 88}, {"note": 60, "velocity": 109, "duration": 169}, {"note": 0, "velocity": 0, "duration": 71}, {"note": 62, "velocity": 112, "duration": 59}, {"note": 0, "velocity": 0, "duration": 61}, {"note": 65, "velocity": 112, "duration": 59}, {"note": 0, "velocity": 0, "duration": 61}, {"note": 62, "velocity": 109, "duration": 183}, {"note": 53, "velocity": 106, "duration": 75}, {"note": 58, "velocity": 117, "duration": 85}, {"note": 55, "velocity": 96, "duration": 1440}, {"note": 0, "velocity": 0, "duration": 480}, {"note": 55, "velocity": 115, "duration": 282}, {"note": 0, "velocity": 0, "duration": 78}, {"note": 55, "velocity": 112, "duration": 306}, {"note": 58, "velocity": 120, "duration": 67}, {"note": 60, "velocity": 104, "duration": 59}, {"note": 0, "velocity": 0, "duration": 61}, {"note": 62, "velocity": 109, "duration": 581}, {"note": 0, "velocity": 0, "duration": 143}, {"note": 58, "velocity": 113, "duration": 80}, {"note": 60, "velocity": 106, "duration": 62}, {"note": 62, "velocity": 109, "duration": 165}, {"note": 0, "velocity": 0, "duration": 75}, {"note": 60, "velocity": 101, "duration": 66}, {"note": 60, "velocity": 109, "duration": 283}, {"note": 0, "velocity": 0, "duration": 77}, {"note": 58, "velocity": 117, "duration": 71}, {"note": 60, "velocity": 101, "duration": 75}, {"note": 58, "velocity": 113, "duration": 123}, {"note": 55, "velocity": 104, "duration": 631}, {"note": 0, "velocity": 0, "duration": 209}, {"note": 55, "velocity": 112, "duration": 188}, {"note": 58, "velocity": 117, "duration": 64}, {"note": 60, "velocity": 94, "duration": 67}, {"note": 58, "velocity": 120, "duration": 158}, {"note": 0, "velocity": 0, "duration": 82}, {"note": 55, "velocity": 115, "duration": 134}, {"note": 0, "velocity": 0, "duration": 106}, {"note": 65, "velocity": 109, "duration": 172}, {"note": 0, "velocity": 0, "duration": 68}, {"note": 67, "velocity": 109, "duration": 96}, {"note": 69, "velocity": 112, "duration": 62}, {"note": 67, "velocity": 109, "duration": 102}, {"note": 65, "velocity": 109, "duration": 106}, {"note": 62, "velocity": 104, "duration": 77}, {"note": 60, "velocity": 104, "duration": 65}, {"note": 62, "velocity": 112, "duration": 1212}, {"note": 0, "velocity": 0, "duration": 708}, {"note": 62, "velocity": 118, "duration": 283}, {"note": 0, "velocity": 0, "duration": 77}, {"note": 62, "velocity": 115, "duration": 290}, {"note": 0, "velocity": 0, "duration": 70}, {"note": 65, "velocity": 112, "duration": 187}, {"note": 67, "velocity": 112, "duration": 612}, {"note": 0, "velocity": 0, "duration": 108}, {"note": 65, "velocity": 115, "duration": 57}, {"note": 0, "velocity": 0, "duration": 63}, {"note": 67, "velocity": 112, "duration": 86}, {"note": 67, "velocity": 109, "duration": 259}, {"note": 0, "velocity": 0, "duration": 101}, {"note": 55, "velocity": 109, "duration": 80}, {"note": 58, "velocity": 117, "duration": 78}, {"note": 60, "velocity": 101, "duration": 70}, {"note": 62, "velocity": 106, "duration": 183}, {"note": 60, "velocity": 99, "duration": 779}, {"note": 0, "velocity": 0, "duration": 181}, {"note": 62, "velocity": 115, "duration": 157}, {"note": 0, "velocity": 0, "duration": 83}, {"note": 65, "velocity": 115, "duration": 57}, {"note": 0, "velocity": 0, "duration": 63}, {"note": 67, "velocity": 109, "duration": 65}, {"note": 65, "velocity": 118, "duration": 149}, {"note": 0, "velocity": 0, "duration": 91}, {"note": 62, "velocity": 115, "duration": 152}, {"note": 0, "velocity": 0, "duration": 88}, {"note": 60, "velocity": 109, "duration": 169}, {"note": 0, "velocity": 0, "duration": 71}, {"note": 62, "velocity": 112, "duration": 59}, {"note": 0, "velocity": 0, "duration": 61}, {"note": 65, "velocity": 112, "duration": 59}, {"note": 0, "velocity": 0, "duration": 61}, {"note": 62, "velocity": 109, "duration": 183}, {"note": 53, "velocity": 106, "duration": 75}, {"note": 58, "velocity": 117, "duration": 85}, {"note": 55, "velocity": 96, "duration": 1440}, {"note": 0, "velocity": 0, "duration": 480}, {"note": 62, "velocity": 118, "duration": 645}, {"note": 0, "velocity": 0, "duration": 75}, {"note": 70, "velocity": 123, "duration": 188}, {"note": 67, "velocity": 112, "duration": 610}, {"note": 0, "velocity": 0, "duration": 110}, {"note": 70, "velocity": 120, "duration": 76}, {"note": 72, "velocity": 115, "duration": 60}, {"note": 74, "velocity": 112, "duration": 156}, {"note": 0, "velocity": 0, "duration": 84}, {"note": 72, "velocity": 112, "duration": 63}, {"note": 74, "velocity": 112, "duration": 66}, {"note": 72, "velocity": 115, "duration": 183}, {"note": 70, "velocity": 120, "duration": 197}, {"note": 67, "velocity": 112, "duration": 805}, {"note": 0, "velocity": 0, "duration": 155}, {"note": 69, "velocity": 115, "duration": 188}, {"note": 67, "velocity": 109, "duration": 59}, {"note": 0, "velocity": 0, "duration": 61}, {"note": 69, "velocity": 112, "duration": 64}, {"note": 67, "velocity": 115, "duration": 152}, {"note": 0, "velocity": 0, "duration": 88}, {"note": 65, "velocity": 115, "duration": 152}, {"note": 0, "velocity": 0, "duration": 88}, {"note": 67, "velocity": 115, "duration": 180}, {"note": 65, "velocity": 115, "duration": 57}, {"note": 0, "velocity": 0, "duration": 63}, {"note": 67, "velocity": 109, "duration": 58}, {"note": 0, "velocity": 0, "duration": 62}, {"note": 58, "velocity": 117, "duration": 64}, {"note": 60, "velocity": 87, "duration": 82}, {"note": 62, "velocity": 115, "duration": 79}, {"note": 65, "velocity": 112, "duration": 66}, {"note": 62, "velocity": 115, "duration": 1628}, {"note": 0, "velocity": 0, "duration": 292}, {"note": 67, "velocity": 115, "duration": 587}, {"note": 0, "velocity": 0, "duration": 133}, {"note": 62, "velocity": 109, "duration": 95}, {"note": 65, "velocity": 104, "duration": 100}, {"note": 60, "velocity": 115, "duration": 629}, {"note": 0, "velocity": 0, "duration": 91}, {"note": 60, "velocity": 109, "duration": 68}, {"note": 62, "velocity": 109, "duration": 64}, {"note": 65, "velocity": 115, "duration": 172}, {"note": 0, "velocity": 0, "duration": 68}, {"note": 65, "velocity": 115, "duration": 68}, {"note": 62, "velocity": 115, "duration": 286}, {"note": 0, "velocity": 0, "duration": 74}, {"note": 74, "velocity": 109, "duration": 177}, {"note": 0, "velocity": 0, "duration": 63}, {"note": 72, "velocity": 109, "duration": 554}, {"note": 0, "velocity": 0, "duration": 406}, {"note": 65, "velocity": 112, "duration": 271}, {"note": 0, "velocity": 0, "duration": 89}, {"note": 65, "velocity": 115, "duration": 73}, {"note": 65, "velocity": 115, "duration": 158}, {"note": 0, "velocity": 0, "duration": 82}, {"note": 62, "velocity": 115, "duration": 167}, {"note": 0, "velocity": 0, "duration": 73}, {"note": 72, "velocity": 109, "duration": 450}, {"note": 0, "velocity": 0, "duration": 270}, {"note": 67, "velocity": 109, "duration": 78}, {"note": 65, "velocity": 109, "duration": 64}, {"note": 67, "velocity": 112, "duration": 1846}, {"note": 0, "velocity": 0, "duration": 7754}, {"note": 55, "velocity": 115, "duration": 282}, {"note": 0, "velocity": 0, "duration": 78}, {"note": 55, "velocity": 112, "duration": 306}, {"note": 58, "velocity": 120, "duration": 67}, {"note": 60, "velocity": 104, "duration": 59}, {"note": 0, "velocity": 0, "duration": 61}, {"note": 62, "velocity": 109, "duration": 581}, {"note": 0, "velocity": 0, "duration": 143}, {"note": 58, "velocity": 113, "duration": 80}, {"note": 60, "velocity": 106, "duration": 62}, {"note": 62, "velocity": 109, "duration": 165}, {"note": 0, "velocity": 0, "duration": 75}, {"note": 60, "velocity": 101, "duration": 66}, {"note": 60, "velocity": 109, "duration": 283}, {"note": 0, "velocity": 0, "duration": 77}, {"note": 58, "velocity": 117, "duration": 71}, {"note": 60, "velocity": 101, "duration": 75}, {"note": 58, "velocity": 113, "duration": 123}, {"note": 55, "velocity": 104, "duration": 631}, {"note": 0, "velocity": 0, "duration": 209}, {"note": 55, "velocity": 112, "duration": 188}, {"note": 58, "velocity": 117, "duration": 64}, {"note": 60, "velocity": 94, "duration": 67}, {"note": 58, "velocity": 120, "duration": 158}, {"note": 0, "velocity": 0, "duration": 82}, {"note": 55, "velocity": 115, "duration": 134}, {"note": 0, "velocity": 0, "duration": 106}, {"note": 65, "velocity": 109, "duration": 172}, {"note": 0, "velocity": 0, "duration": 68}, {"note": 67, "velocity": 109, "duration": 96}, {"note": 69, "velocity": 112, "duration": 62}, {"note": 67, "velocity": 109, "duration": 102}, {"note": 65, "velocity": 109, "duration": 106}, {"note": 62, "velocity": 104, "duration": 77}, {"note": 60, "velocity": 104, "duration": 65}, {"note": 62, "velocity": 112, "duration": 1212}, {"note": 0, "velocity": 0, "duration": 708}, {"note": 62, "velocity": 118, "duration": 283}, {"note": 0, "velocity": 0, "duration": 77}, {"note": 62, "velocity": 115, "duration": 290}, {"note": 0, "velocity": 0, "duration": 70}, {"note": 65, "velocity": 112, "duration": 187}, {"note": 67, "velocity": 112, "duration": 612}, {"note": 0, "velocity": 0, "duration": 108}, {"note": 65, "velocity": 115, "duration": 57}, {"note": 0, "velocity": 0, "duration": 63}, {"note": 67, "velocity": 112, "duration": 86}, {"note": 67, "velocity": 109, "duration": 259}, {"note": 0, "velocity": 0, "duration": 101}, {"note": 55, "velocity": 109, "duration": 80}, {"note": 58, "velocity": 117, "duration": 78}, {"note": 60, "velocity": 101, "duration": 70}, {"note": 62, "velocity": 106, "duration": 183}, {"note": 60, "velocity": 99, "duration": 779}, {"note": 0, "velocity": 0, "duration": 181}, {"note": 62, "velocity": 115, "duration": 157}, {"note": 0, "velocity": 0, "duration": 83}, {"note": 65, "velocity": 115, "duration": 57}, {"note": 0, "velocity": 0, "duration": 63}, {"note": 67, "velocity": 109, "duration": 65}, {"note": 65, "velocity": 118, "duration": 149}, {"note": 0, "velocity": 0, "duration": 91}, {"note": 62, "velocity": 115, "duration": 152}, {"note": 0, "velocity": 0, "duration": 88}, {"note": 60, "velocity": 109, "duration": 169}, {"note": 0, "velocity": 0, "duration": 71}, {"note": 62, "velocity": 112, "duration": 59}, {"note": 0, "velocity": 0, "duration": 61}, {"note": 65, "velocity": 112, "duration": 59}, {"note": 0, "velocity": 0, "duration": 61}, {"note": 62, "velocity": 109, "duration": 183}, {"note": 53, "velocity": 106, "duration": 75}, {"note": 58, "velocity": 117, "duration": 85}, {"note": 55, "velocity": 96, "duration": 1440}, {"note": 0, "velocity": 0, "duration": 480}, {"note": 55, "velocity": 115, "duration": 282}, {"note": 0, "velocity": 0, "duration": 78}, {"note": 55, "velocity": 112, "duration": 306}, {"note": 58, "velocity": 120, "duration": 67}, {"note": 60, "velocity": 104, "duration": 59}, {"note": 0, "velocity": 0, "duration": 61}, {"note": 62, "velocity": 109, "duration": 581}, {"note": 0, "velocity": 0, "duration": 143}, {"note": 58, "velocity": 113, "duration": 80}, {"note": 60, "velocity": 106, "duration": 62}, {"note": 62, "velocity": 109, "duration": 165}, {"note": 0, "velocity": 0, "duration": 75}, {"note": 60, "velocity": 101, "duration": 66}, {"note": 60, "velocity": 109, "duration": 283}, {"note": 0, "velocity": 0, "duration": 77}, {"note": 58, "velocity": 117, "duration": 71}, {"note": 60, "velocity": 101, "duration": 75}, {"note": 58, "velocity": 113, "duration": 123}, {"note": 55, "velocity": 104, "duration": 631}, {"note": 0, "velocity": 0, "duration": 209}, {"note": 55, "velocity": 112, "duration": 188}, {"note": 58, "velocity": 117, "duration": 64}, {"note": 60, "velocity": 94, "duration": 67}, {"note": 58, "velocity": 120, "duration": 158}, {"note": 0, "velocity": 0, "duration": 82}, {"note": 55, "velocity": 115, "duration": 134}, {"note": 0, "velocity": 0, "duration": 106}, {"note": 65, "velocity": 109, "duration": 172}, {"note": 0, "velocity": 0, "duration": 68}, {"note": 67, "velocity": 109, "duration": 96}, {"note": 69, "velocity": 112, "duration": 62}, {"note": 67, "velocity": 109, "duration": 102}, {"note": 65, "velocity": 109, "duration": 106}, {"note": 62, "velocity": 104, "duration": 77}, {"note": 60, "velocity": 104, "duration": 65}, {"note": 62, "velocity": 112, "duration": 1212}, {"note": 0, "velocity": 0, "duration": 708}, {"note": 62, "velocity": 118, "duration": 283}, {"note": 0, "velocity": 0, "duration": 77}, {"note": 62, "velocity": 115, "duration": 290}, {"note": 0, "velocity": 0, "duration": 70}, {"note": 65, "velocity": 112, "duration": 187}, {"note": 67, "velocity": 112, "duration": 612}, {"note": 0, "velocity": 0, "duration": 108}, {"note": 65, "velocity": 115, "duration": 57}, {"note": 0, "velocity": 0, "duration": 63}, {"note": 67, "velocity": 112, "duration": 86}, {"note": 67, "velocity": 109, "duration": 259}, {"note": 0, "velocity": 0, "duration": 101}, {"note": 55, "velocity": 109, "duration": 80}, {"note": 58, "velocity": 117, "duration": 78}, {"note": 60, "velocity": 101, "duration": 70}, {"note": 62, "velocity": 106, "duration": 183}, {"note": 60, "velocity": 99, "duration": 779}, {"note": 0, "velocity": 0, "duration": 181}, {"note": 62, "velocity": 115, "duration": 157}, {"note": 0, "velocity": 0, "duration": 83}, {"note": 65, "velocity": 115, "duration": 57}, {"note": 0, "velocity": 0, "duration": 63}, {"note": 67, "velocity": 109, "duration": 65}, {"note": 65, "velocity": 118, "duration": 149}, {"note": 0, "velocity": 0, "duration": 91}, {"note": 62, "velocity": 115, "duration": 152}, {"note": 0, "velocity": 0, "duration": 88}, {"note": 60, "velocity": 109, "duration": 169}, {"note": 0, "velocity": 0, "duration": 71}, {"note": 62, "velocity": 112, "duration": 59}, {"note": 0, "velocity": 0, "duration": 61}, {"note": 65, "velocity": 112, "duration": 59}, {"note": 0, "velocity": 0, "duration": 61}, {"note": 62, "velocity": 109, "duration": 183}, {"note": 53, "velocity": 106, "duration": 75}, {"note": 58, "velocity": 117, "duration": 85}, {"note": 55, "velocity": 96, "duration": 1440}, {"note": 0, "velocity": 0, "duration": 480}, {"note": 62, "velocity": 118, "duration": 645}, {"note": 0, "velocity": 0, "duration": 75}, {"note": 70, "velocity": 123, "duration": 188}, {"note": 67, "velocity": 112, "duration": 610}, {"note": 0, "velocity": 0, "duration": 110}, {"note": 70, "velocity": 120, "duration": 76}, {"note": 72, "velocity": 115, "duration": 60}, {"note": 74, "velocity": 112, "duration": 156}, {"note": 0, "velocity": 0, "duration": 84}, {"note": 72, "velocity": 112, "duration": 63}, {"note": 74, "velocity": 112, "duration": 66}, {"note": 72, "velocity": 115, "duration": 183}, {"note": 70, "velocity": 120, "duration": 197}, {"note": 67, "velocity": 112, "duration": 805}, {"note": 0, "velocity": 0, "duration": 155}, {"note": 69, "velocity": 115, "duration": 188}, {"note": 67, "velocity": 109, "duration": 59}, {"note": 0, "velocity": 0, "duration": 61}, {"note": 69, "velocity": 112, "duration": 64}, {"note": 67, "velocity": 115, "duration": 152}, {"note": 0, "velocity": 0, "duration": 88}, {"note": 65, "velocity": 115, "duration": 152}, {"note": 0, "velocity": 0, "duration": 88}, {"note": 67, "velocity": 115, "duration": 180}, {"note": 65, "velocity": 115, "duration": 57}, {"note": 0, "velocity": 0, "duration": 63}, {"note": 67, "velocity": 109, "duration": 58}, {"note": 0, "velocity": 0, "duration": 62}, {"note": 58, "velocity": 117, "duration": 64}, {"note": 60, "velocity": 87, "duration": 82}, {"note": 62, "velocity": 115, "duration": 79}, {"note": 65, "velocity": 112, "duration": 66}, {"note": 62, "velocity": 115, "duration": 1628}, {"note": 0, "velocity": 0, "duration": 292}, {"note": 67, "velocity": 115, "duration": 587}, {"note": 0, "velocity": 0, "duration": 133}, {"note": 62, "velocity": 109, "duration": 95}, {"note": 65, "velocity": 104, "duration": 100}, {"note": 60, "velocity": 115, "duration": 629}, {"note": 0, "velocity": 0, "duration": 91}, {"note": 60, "velocity": 109, "duration": 68}, {"note": 62, "velocity": 109, "duration": 64}, {"note": 65, "velocity": 115, "duration": 172}, {"note": 0, "velocity": 0, "duration": 68}, {"note": 65, "velocity": 115, "duration": 68}, {"note": 62, "velocity": 115, "duration": 286}, {"note": 0, "velocity": 0, "duration": 74}, {"note": 74, "velocity": 109, "duration": 177}, {"note": 0, "velocity": 0, "duration": 63}, {"note": 72, "velocity": 109, "duration": 554}, {"note": 0, "velocity": 0, "duration": 406}, {"note": 65, "velocity": 112, "duration": 271}, {"note": 0, "velocity": 0, "duration": 89}, {"note": 65, "velocity": 115, "duration": 73}, {"note": 65, "velocity": 115, "duration": 158}, {"note": 0, "velocity": 0, "duration": 82}, {"note": 62, "velocity": 115, "duration": 167}, {"note": 0, "velocity": 0, "duration": 73}, {"note": 72, "velocity": 109, "duration": 450}, {"note": 0, "velocity": 0, "duration": 270}, {"note": 67, "velocity": 109, "duration": 78}, {"note": 65, "velocity": 109, "duration": 64}, {"note": 67, "velocity": 112, "duration": 1846}, {"note": 0, "velocity": 0, "duration": 74}, {"note": 65, "velocity": 112, "duration": 271}, {"note": 0, "velocity": 0, "duration": 89}, {"note": 65, "velocity": 115, "duration": 73}, {"note": 65, "velocity": 115, "duration": 158}, {"note": 0, "velocity": 0, "duration": 82}, {"note": 62, "velocity": 115, "duration": 167}, {"note": 0, "velocity": 0, "duration": 73}, {"note": 72, "velocity": 109, "duration": 450}, {"note": 69, "velocity": 109, "duration": 720}, {"note": 0, "velocity": 0, "duration": 480}, {"note": 67, "velocity": 106, "duration": 83}, {"note": 65, "velocity": 104, "duration": 73}, {"note": 67, "velocity": 109, "duration": 1930}]]