[[{"note": 75, "velocity": 104, "duration": 75}, {"note": 77, "velocity": 96, "duration": 69}, {"note": 77, "velocity": 109, "duration": 330}, {"note": 0, "velocity": 0, "duration": 150}, {"note": 77, "velocity": 106, "duration": 118}, {"note": 0, "velocity": 0, "duration": 62}, {"note": 77, "velocity": 101, "duration": 101}, {"note": 0, "velocity": 0, "duration": 79}, {"note": 75, "velocity": 106, "duration": 89}, {"note": 72, "velocity": 99, "duration": 118}, {"note": 75, "velocity": 114, "duration": 118}, {"note": 0, "velocity": 0, "duration": 242}, {"note": 70, "velocity": 112, "duration": 170}, {"note": 0, "velocity": 0, "duration": 70}, {"note": 70, "velocity": 109, "duration": 172}, {"note": 0, "velocity": 0, "duration": 68}, {"note": 70, "velocity": 109, "duration": 161}, {"note": 0, "velocity": 0, "duration": 79}, {"note": 68, "velocity": 104, "duration": 69}, {"note": 70, "velocity": 109, "duration": 637}, {"note": 0, "velocity": 0, "duration": 683}, {"note": 75, "velocity": 101, "duration": 68}, {"note": 75, "velocity": 106, "duration": 60}, {"note": 75, "velocity": 109, "duration": 177}, {"note": 0, "velocity": 0, "duration": 183}, {"note": 75, "velocity": 109, "duration": 180}, {"note": 75, "velocity": 99, "duration": 57}, {"note": 0, "velocity": 0, "duration": 63}, {"note": 75, "velocity": 106, "duration": 59}, {"note": 0, "velocity": 0, "duration": 61}, {"note": 72, "velocity": 109, "duration": 60}, {"note": 70, "velocity": 109, "duration": 56}, {"note": 0, "velocity": 0, "duration": 64}, {"note": 72, "velocity": 109, "duration": 88}, {"note": 0, "velocity": 0, "duration": 152}, {"note": 75, "velocity": 115, "duration": 50}, {"note": 0, "velocity": 0, "duration": 70}, {"note": 77, "velocity": 101, "duration": 371}, {"note": 0, "velocity": 0, "duration": 109}, {"note": 77, "velocity": 109, "duration": 179}, {"note": 0, "velocity": 0, "duration": 61}, {"note": 75, "velocity": 109, "duration": 72}, {"note": 72, "velocity": 106, "duration": 906}, {"note": 0, "velocity": 0, "duration": 414}, {"note": 77, "velocity": 106, "duration": 80}, {"note": 75, "velocity": 101, "duration": 62}, {"note": 77, "velocity": 106, "duration": 270}, {"note": 0, "velocity": 0, "duration": 90}, {"note": 77, "velocity": 112, "duration": 176}, {"note": 0, "velocity": 0, "duration": 64}, {"note": 77, "velocity": 109, "duration": 57}, {"note": 0, "velocity": 0, "duration": 63}, {"note": 77, "velocity": 104, "duration": 76}, {"note": 75, "velocity": 106, "duration": 69}, {"note": 77, "velocity": 106, "duration": 67}, {"note": 80, "velocity": 104, "duration": 203}, {"note": 0, "velocity": 0, "duration": 157}, {"note": 82, "velocity": 109, "duration": 161}, {"note": 0, "velocity": 0, "duration": 79}, {"note": 82, "velocity": 112, "duration": 169}, {"note": 0, "velocity": 0, "duration": 71}, {"note": 82, "velocity": 109, "duration": 79}, {"note": 80, "velocity": 106, "duration": 147}, {"note": 0, "velocity": 0, "duration": 93}, {"note": 82, "velocity": 109, "duration": 653}, {"note": 0, "velocity": 0, "duration": 667}, {"note": 82, "velocity": 104, "duration": 67}, {"note": 80, "velocity": 106, "duration": 56}, {"note": 0, "velocity": 0, "duration": 64}, {"note": 82, "velocity": 106, "duration": 244}, {"note": 0, "velocity": 0, "duration": 116}, {"note": 82, "velocity": 96, "duration": 56}, {"note": 0, "velocity": 0, "duration": 64}, {"note": 82, "velocity": 109, "duration": 209}, {"note": 82, "velocity": 109, "duration": 62}, {"note": 80, "velocity": 112, "duration": 64}, {"note": 77, "velocity": 96, "duration": 85}, {"note": 80, "velocity": 101, "duration": 211}, {"note": 77, "velocity": 106, "duration": 68}, {"note": 80, "velocity": 109, "duration": 174}, {"note": 0, "velocity": 0, "duration": 66}, {"note": 80, "velocity": 112, "duration": 190}, {"note": 79, "velocity": 120, "duration": 74}, {"note": 77, "velocity": 94, "duration": 59}, {"note": 0, "velocity": 0, "duration": 61}, {"note": 79, "velocity": 113, "duration": 68}, {"note": 79, "velocity": 110, "duration": 994}, {"note": 0, "velocity": 0, "duration": 326}, {"note": 75, "velocity": 104, "duration": 75}, {"note": 77, "velocity": 96, "duration": 69}, {"note": 77, "velocity": 109, "duration": 330}, {"note": 0, "velocity": 0, "duration": 150}, {"note": 77, "velocity": 106, "duration": 118}, {"note": 0, "velocity": 0, "duration": 62}, {"note": 77, "velocity": 101, "duration": 101}, {"note": 0, "velocity": 0, "duration": 79}, {"note": 75, "velocity": 106, "duration": 89}, {"note": 72, "velocity": 99, "duration": 118}, {"note": 75, "velocity": 114, "duration": 118}, {"note": 0, "velocity": 0, "duration": 242}, {"note": 70, "velocity": 112, "duration": 170}, {"note": 0, "velocity": 0, "duration": 70}, {"note": 70, "velocity": 109, "duration": 172}, {"note": 0, "velocity": 0, "duration": 68}, {"note": 70, "velocity": 109, "duration": 161}, {"note": 0, "velocity": 0, "duration": 79}, {"note": 68, "velocity": 104, "duration": 69}, {"note": 70, "velocity": 109, "duration": 637}, {"note": 0, "velocity": 0, "duration": 683}, {"note": 75, "velocity": 101, "duration": 68}, {"note": 75, "velocity": 106, "duration": 60}, {"note": 75, "velocity": 109, "duration": 177}, {"note": 0, "velocity": 0, "duration": 183}, {"note": 75, "velocity": 109, "duration": 180}, {"note": 75, "velocity": 99, "duration": 57}, {"note": 0, "velocity": 0, "duration": 63}, {"note": 75, "velocity": 106, "duration": 59}, {"note": 0, "velocity": 0, "duration": 61}, {"note": 72, "velocity": 109, "duration": 60}, {"note": 70, "velocity": 109, "duration": 56}, {"note": 0, "velocity": 0, "duration": 64}, {"note": 72, "velocity": 109, "duration": 88}, {"note": 0, "velocity": 0, "duration": 152}, {"note": 75, "velocity": 115, "duration": 50}, {"note": 0, "velocity": 0, "duration": 70}, {"note": 77, "velocity": 101, "duration": 371}, {"note": 0, "velocity": 0, "duration": 109}, {"note": 77, "velocity": 109, "duration": 179}, {"note": 0, "velocity": 0, "duration": 61}, {"note": 75, "velocity": 109, "duration": 72}, {"note": 72, "velocity": 106, "duration": 906}, {"note": 0, "velocity": 0, "duration": 414}, {"note": 77, "velocity": 106, "duration": 80}, {"note": 75, "velocity": 101, "duration": 62}, {"note": 77, "velocity": 106, "duration": 270}, {"note": 0, "velocity": 0, "duration": 90}, {"note": 77, "velocity": 112, "duration": 176}, {"note": 0, "velocity": 0, "duration": 64}, {"note": 77, "velocity": 109, "duration": 57}, {"note": 0, "velocity": 0, "duration": 63}, {"note": 77, "velocity": 104, "duration": 76}, {"note": 75, "velocity": 106, "duration": 69}, {"note": 77, "velocity": 106, "duration": 67}, {"note": 80, "velocity": 104, "duration": 203}, {"note": 0, "velocity": 0, "duration": 157}, {"note": 82, "velocity": 109, "duration": 161}, {"note": 0, "velocity": 0, "duration": 79}, {"note": 82, "velocity": 112, "duration": 169}, {"note": 0, "velocity": 0, "duration": 71}, {"note": 82, "velocity": 109, "duration": 79}, {"note": 80, "velocity": 106, "duration": 147}, {"note": 0, "velocity": 0, "duration": 93}, {"note": 82, "velocity": 109, "duration": 653}, {"note": 0, "velocity": 0, "duration": 667}, {"note": 82, "velocity": 104, "duration": 67}, {"note": 80, "velocity": 106, "duration": 56}, {"note": 0, "velocity": 0, "duration": 64}, {"note": 82, "velocity": 106, "duration": 358}, {"note": 0, "velocity": 0, "duration": 122}, {"note": 82, "velocity": 109, "duration": 209}, {"note": 82, "velocity": 109, "duration": 62}, {"note": 80, "velocity": 112, "duration": 64}, {"note": 77, "velocity": 96, "duration": 85}, {"note": 80, "velocity": 101, "duration": 211}, {"note": 72, "velocity": 106, "duration": 68}, {"note": 84, "velocity": 109, "duration": 150}, {"note": 0, "velocity": 0, "duration": 90}, {"note": 84, "velocity": 109, "duration": 155}, {"note": 0, "velocity": 0, "duration": 85}, {"note": 84, "velocity": 106, "duration": 74}, {"note": 82, "velocity": 106, "duration": 142}, {"note": 0, "velocity": 0, "duration": 98}, {"note": 84, "velocity": 115, "duration": 697}, {"note": 0, "velocity": 0, "duration": 623}, {"note": 84, "velocity": 106, "duration": 55}, {"note": 0, "velocity": 0, "duration": 65}, {"note": 84, "velocity": 104, "duration": 49}, {"note": 0, "velocity": 0, "duration": 71}, {"note": 84, "velocity": 109, "duration": 152}, {"note": 0, "velocity": 0, "duration": 88}, {"note": 84, "velocity": 109, "duration": 62}, {"note": 84, "velocity": 109, "duration": 58}, {"note": 0, "velocity": 0, "duration": 62}, {"note": 84, "velocity": 109, "duration": 62}, {"note": 77, "velocity": 115, "duration": 134}, {"note": 0, "velocity": 0, "duration": 226}, {"note": 77, "velocity": 112, "duration": 62}, {"note": 79, "velocity": 117, "duration": 52}, {"note": 0, "velocity": 0, "duration": 68}, {"note": 80, "velocity": 109, "duration": 109}, {"note": 0, "velocity": 0, "duration": 131}, {"note": 84, "velocity": 106, "duration": 172}, {"note": 0, "velocity": 0, "duration": 68}, {"note": 82, "velocity": 112, "duration": 117}, {"note": 0, "velocity": 0, "duration": 123}, {"note": 82, "velocity": 106, "duration": 66}, {"note": 80, "velocity": 109, "duration": 151}, {"note": 0, "velocity": 0, "duration": 89}, {"note": 82, "velocity": 112, "duration": 950}, {"note": 0, "velocity": 0, "duration": 370}, {"note": 82, "velocity": 109, "duration": 59}, {"note": 0, "velocity": 0, "duration": 61}, {"note": 80, "velocity": 109, "duration": 55}, {"note": 0, "velocity": 0, "duration": 65}, {"note": 82, "velocity": 112, "duration": 47}, {"note": 0, "velocity": 0, "duration": 73}, {"note": 82, "velocity": 112, "duration": 93}, {"note": 0, "velocity": 0, "duration": 147}, {"note": 84, "velocity": 115, "duration": 166}, {"note": 0, "velocity": 0, "duration": 74}, {"note": 82, "velocity": 106, "duration": 53}, {"note": 0, "velocity": 0, "duration": 67}, {"note": 80, "velocity": 112, "duration": 55}, {"note": 0, "velocity": 0, "duration": 65}, {"note": 77, "velocity": 112, "duration": 58}, {"note": 0, "velocity": 0, "duration": 62}, {"note": 80, "velocity": 112, "duration": 56}, {"note": 0, "velocity": 0, "duration": 64}, {"note": 77, "velocity": 109, "duration": 45}, {"note": 0, "velocity": 0, "duration": 75}, {"note": 77, "velocity": 109, "duration": 50}, {"note": 0, "velocity": 0, "duration": 70}, {"note": 77, "velocity": 112, "duration": 51}, {"note": 0, "velocity": 0, "duration": 69}, {"note": 80, "velocity": 112, "duration": 149}, {"note": 0, "velocity": 0, "duration": 91}, {"note": 80, "velocity": 112, "duration": 125}, {"note": 0, "velocity": 0, "duration": 115}, {"note": 80, "velocity": 106, "duration": 64}, {"note": 82, "velocity": 109, "duration": 52}, {"note": 0, "velocity": 0, "duration": 68}, {"note": 80, "velocity": 112, "duration": 58}, {"note": 0, "velocity": 0, "duration": 62}, {"note": 79, "velocity": 113, "duration": 819}, {"note": 0, "velocity": 0, "duration": 501}, {"note": 84, "velocity": 106, "duration": 55}, {"note": 0, "velocity": 0, "duration": 65}, {"note": 84, "velocity": 104, "duration": 49}, {"note": 0, "velocity": 0, "duration": 71}, {"note": 84, "velocity": 109, "duration": 152}, {"note": 0, "velocity": 0, "duration": 88}, {"note": 84, "velocity": 109, "duration": 62}, {"note": 84, "velocity": 109, "duration": 58}, {"note": 0, "velocity": 0, "duration": 62}, {"note": 84, "velocity": 109, "duration": 62}, {"note": 77, "velocity": 115, "duration": 134}, {"note": 0, "velocity": 0, "duration": 226}, {"note": 77, "velocity": 112, "duration": 62}, {"note": 79, "velocity": 117, "duration": 52}, {"note": 0, "velocity": 0, "duration": 68}, {"note": 80, "velocity": 109, "duration": 109}, {"note": 0, "velocity": 0, "duration": 131}, {"note": 84, "velocity": 106, "duration": 172}, {"note": 0, "velocity": 0, "duration": 68}, {"note": 82, "velocity": 112, "duration": 117}, {"note": 0, "velocity": 0, "duration": 123}, {"note": 82, "velocity": 106, "duration": 66}, {"note": 80, "velocity": 109, "duration": 151}, {"note": 0, "velocity": 0, "duration": 89}, {"note": 82, "velocity": 112, "duration": 950}, {"note": 0, "velocity": 0, "duration": 370}, {"note": 82, "velocity": 109, "duration": 59}, {"note": 0, "velocity": 0, "duration": 61}, {"note": 80, "velocity": 109, "duration": 55}, {"note": 0, "velocity": 0, "duration": 65}, {"note": 82, "velocity": 112, "duration": 47}, {"note": 0, "velocity": 0, "duration": 73}, {"note": 82, "velocity": 112, "duration": 93}, {"note": 0, "velocity": 0, "duration": 147}, {"note": 84, "velocity": 115, "duration": 166}, {"note": 0, "velocity": 0, "duration": 74}, {"note": 82, "velocity": 106, "duration": 53}, {"note": 0, "velocity": 0, "duration": 67}, {"note": 80, "velocity": 112, "duration": 55}, {"note": 0, "velocity": 0, "duration": 65}, {"note": 77, "velocity": 112, "duration": 58}, {"note": 0, "velocity": 0, "duration": 62}, {"note": 80, "velocity": 112, "duration": 118}, {"note": 77, "velocity": 96, "duration": 187}, {"note": 77, "velocity": 101, "duration": 65}, {"note": 79, "velocity": 117, "duration": 162}, {"note": 0, "velocity": 0, "duration": 78}, {"note": 79, "velocity": 109, "duration": 150}, {"note": 0, "velocity": 0, "duration": 90}, {"note": 75, "velocity": 104, "duration": 68}, {"note": 77, "velocity": 109, "duration": 60}, {"note": 79, "velocity": 117, "duration": 118}, {"note": 77, "velocity": 106, "duration": 846}, {"note": 0, "velocity": 0, "duration": 8154}, {"note": 75, "velocity": 104, "duration": 75}, {"note": 77, "velocity": 96, "duration": 69}, {"note": 77, "velocity": 109, "duration": 330}, {"note": 0, "velocity": 0, "duration": 150}, {"note": 77, "velocity": 106, "duration": 118}, {"note": 0, "velocity": 0, "duration": 62}, {"note": 77, "velocity": 101, "duration": 101}, {"note": 0, "velocity": 0, "duration": 79}, {"note": 75, "velocity": 106, "duration": 89}, {"note": 72, "velocity": 99, "duration": 118}, {"note": 75, "velocity": 114, "duration": 118}, {"note": 0, "velocity": 0, "duration": 242}, {"note": 70, "velocity": 112, "duration": 170}, {"note": 0, "velocity": 0, "duration": 70}, {"note": 70, "velocity": 109, "duration": 172}, {"note": 0, "velocity": 0, "duration": 68}, {"note": 70, "velocity": 109, "duration": 161}, {"note": 0, "velocity": 0, "duration": 79}, {"note": 68, "velocity": 104, "duration": 69}, {"note": 70, "velocity": 109, "duration": 637}, {"note": 0, "velocity": 0, "duration": 683}, {"note": 75, "velocity": 101, "duration": 68}, {"note": 75, "velocity": 106, "duration": 60}, {"note": 75, "velocity": 109, "duration": 177}, {"note": 0, "velocity": 0, "duration": 183}, {"note": 75, "velocity": 109, "duration": 180}, {"note": 75, "velocity": 99, "duration": 57}, {"note": 0, "velocity": 0, "duration": 63}, {"note": 75, "velocity": 106, "duration": 59}, {"note": 0, "velocity": 0, "duration": 61}, {"note": 72, "velocity": 109, "duration": 60}, {"note": 70, "velocity": 109, "duration": 56}, {"note": 0, "velocity": 0, "duration": 64}, {"note": 72, "velocity": 109, "duration": 88}, {"note": 0, "velocity": 0, "duration": 152}, {"note": 75, "velocity": 115, "duration": 50}, {"note": 0, "velocity": 0, "duration": 70}, {"note": 77, "velocity": 101, "duration": 371}, {"note": 0, "velocity": 0, "duration": 109}, {"note": 77, "velocity": 109, "duration": 179}, {"note": 0, "velocity": 0, "duration": 61}, {"note": 75, "velocity": 109, "duration": 72}, {"note": 72, "velocity": 106, "duration": 906}, {"note": 0, "velocity": 0, "duration": 414}, {"note": 77, "velocity": 106, "duration": 80}, {"note": 75, "velocity": 101, "duration": 62}, {"note": 77, "velocity": 106, "duration": 270}, {"note": 0, "velocity": 0, "duration": 90}, {"note": 77, "velocity": 112, "duration": 176}, {"note": 0, "velocity": 0, "duration": 64}, {"note": 77, "velocity": 109, "duration": 57}, {"note": 0, "velocity": 0, "duration": 63}, {"note": 77, "velocity": 104, "duration": 76}, {"note": 75, "velocity": 106, "duration": 69}, {"note": 77, "velocity": 106, "duration": 67}, {"note": 80, "velocity": 104, "duration": 203}, {"note": 0, "velocity": 0, "duration": 157}, {"note": 82, "velocity": 109, "duration": 161}, {"note": 0, "velocity": 0, "duration": 79}, {"note": 82, "velocity": 112, "duration": 169}, {"note": 0, "velocity": 0, "duration": 71}, {"note": 82, "velocity": 109, "duration": 79}, {"note": 80, "velocity": 106, "duration": 147}, {"note": 0, "velocity": 0, "duration": 93}, {"note": 82, "velocity": 109, "duration": 653}, {"note": 0, "velocity": 0, "duration": 667}, {"note": 82, "velocity": 104, "duration": 67}, {"note": 80, "velocity": 106, "duration": 56}, {"note": 0, "velocity": 0, "duration": 64}, {"note": 82, "velocity": 106, "duration": 358}, {"note": 0, "velocity": 0, "duration": 122}, {"note": 82, "velocity": 109, "duration": 209}, {"note": 82, "velocity": 109, "duration": 62}, {"note": 80, "velocity": 112, "duration": 64}, {"note": 77, "velocity": 96, "duration": 85}, {"note": 80, "velocity": 101, "duration": 211}, {"note": 72, "velocity": 106, "duration": 68}, {"note": 84, "velocity": 109, "duration": 150}, {"note": 0, "velocity": 0, "duration": 90}, {"note": 84, "velocity": 109, "duration": 155}, {"note": 0, "velocity": 0, "duration": 85}, {"note": 84, "velocity": 106, "duration": 74}, {"note": 82, "velocity": 106, "duration": 142}, {"note": 0, "velocity": 0, "duration": 98}, {"note": 84, "velocity": 115, "duration": 697}, {"note": 0, "velocity": 0, "duration": 623}, {"note": 84, "velocity": 106, "duration": 55}, {"note": 0, "velocity": 0, "duration": 65}, {"note": 84, "velocity": 104, "duration": 49}, {"note": 0, "velocity": 0, "duration": 71}, {"note": 84, "velocity": 109, "duration": 152}, {"note": 0, "velocity": 0, "duration": 88}, {"note": 84, "velocity": 109, "duration": 62}, {"note": 84, "velocity": 109, "duration": 58}, {"note": 0, "velocity": 0, "duration": 62}, {"note": 84, "velocity": 109, "duration": 62}, {"note": 77, "velocity": 115, "duration": 134}, {"note": 0, "velocity": 0, "duration": 226}, {"note": 77, "velocity": 112, "duration": 62}, {"note": 79, "velocity": 117, "duration": 52}, {"note": 0, "velocity": 0, "duration": 68}, {"note": 80, "velocity": 109, "duration": 109}, {"note": 0, "velocity": 0, "duration": 131}, {"note": 84, "velocity": 106, "duration": 172}, {"note": 0, "velocity": 0, "duration": 68}, {"note": 82, "velocity": 112, "duration": 117}, {"note": 0, "velocity": 0, "duration": 123}, {"note": 82, "velocity": 106, "duration": 66}, {"note": 80, "velocity": 109, "duration": 151}, {"note": 0, "velocity": 0, "duration": 89}, {"note": 82, "velocity": 112, "duration": 950}, {"note": 0, "velocity": 0, "duration": 370}, {"note": 82, "velocity": 109, "duration": 59}, {"note": 0, "velocity": 0, "duration": 61}, {"note": 80, "velocity": 109, "duration": 55}, {"note": 0, "velocity": 0, "duration": 65}, {"note": 82, "velocity": 112, "duration": 47}, {"note": 0, "velocity": 0, "duration": 73}, {"note": 82, "velocity": 112, "duration": 93}, {"note": 0, "velocity": 0, "duration": 147}, {"note": 84, "velocity": 115, "duration": 166}, {"note": 0, "velocity": 0, "duration": 74}, {"note": 82, "velocity": 106, "duration": 53}, {"note": 0, "velocity": 0, "duration": 67}, {"note": 80, "velocity": 112, "duration": 55}, {"note": 0, "velocity": 0, "duration": 65}, {"note": 77, "velocity": 112, "duration": 58}, {"note": 0, "velocity": 0, "duration": 62}, {"note": 80, "velocity": 112, "duration": 56}, {"note": 0, "velocity": 0, "duration": 64}, {"note": 77, "velocity": 109, "duration": 45}, {"note": 0, "velocity": 0, "duration": 75}, {"note": 77, "velocity": 109, "duration": 50}, {"note": 0, "velocity": 0, "duration": 70}, {"note": 77, "velocity": 112, "duration": 51}, {"note": 0, "velocity": 0, "duration": 69}, {"note": 80, "velocity": 112, "duration": 149}, {"note": 0, "velocity": 0, "duration": 91}, {"note": 80, "velocity": 112, "duration": 125}, {"note": 0, "velocity": 0, "duration": 115}, {"note": 80, "velocity": 106, "duration": 64}, {"note": 82, "velocity": 109, "duration": 52}, {"note": 0, "velocity": 0, "duration": 68}, {"note": 80, "velocity": 112, "duration": 58}, {"note": 0, "velocity": 0, "duration": 62}, {"note": 79, "velocity": 113, "duration": 819}, {"note": 0, "velocity": 0, "duration": 501}, {"note": 84, "velocity": 106, "duration": 55}, {"note": 0, "velocity": 0, "duration": 65}, {"note": 84, "velocity": 104, "duration": 49}, {"note": 0, "velocity": 0, "duration": 71}, {"note": 84, "velocity": 109, "duration": 152}, {"note": 0, "velocity": 0, "duration": 88}, {"note": 84, "velocity": 109, "duration": 62}, {"note": 84, "velocity": 109, "duration": 58}, {"note": 0, "velocity": 0, "duration": 62}, {"note": 84, "velocity": 109, "duration": 62}, {"note": 77, "velocity": 115, "duration": 134}, {"note": 0, "velocity": 0, "duration": 226}, {"note": 77, "velocity": 112, "duration": 62}, {"note": 79, "velocity": 117, "duration": 52}, {"note": 0, "velocity": 0, "duration": 68}, {"note": 80, "velocity": 109, "duration": 109}, {"note": 0, "velocity": 0, "duration": 131}, {"note": 84, "velocity": 106, "duration": 172}, {"note": 0, "velocity": 0, "duration": 68}, {"note": 82, "velocity": 112, "duration": 117}, {"note": 0, "velocity": 0, "duration": 123}, {"note": 82, "velocity": 106, "duration": 66}, {"note": 80, "velocity": 109, "duration": 151}, {"note": 0, "velocity": 0, "duration": 89}, {"note": 82, "velocity": 112, "duration": 950}, {"note": 0, "velocity": 0, "duration": 370}, {"note": 82, "velocity": 109, "duration": 59}, {"note": 0, "velocity": 0, "duration": 61}, {"note": 80, "velocity": 109, "duration": 55}, {"note": 0, "velocity": 0, "duration": 65}, {"note": 82, "velocity": 112, "duration": 47}, {"note": 0, "velocity": 0, "duration": 73}, {"note": 82, "velocity": 112, "duration": 93}, {"note": 0, "velocity": 0, "duration": 147}, {"note": 84, "velocity": 115, "duration": 166}, {"note": 0, "velocity": 0, "duration": 74}, {"note": 82, "velocity": 106, "duration": 53}, {"note": 0, "velocity": 0, "duration": 67}, {"note": 80, "velocity": 112, "duration": 55}, {"note": 0, "velocity": 0, "duration": 65}, {"note": 77, "velocity": 112, "duration": 58}, {"note": 0, "velocity": 0, "duration": 62}, {"note": 80, "velocity": 112, "duration": 118}, {"note": 77, "velocity": 96, "duration": 187}, {"note": 77, "velocity": 101, "duration": 65}, {"note": 79, "velocity": 117, "duration": 162}, {"note": 0, "velocity": 0, "duration": 78}, {"note": 79, "velocity": 109, "duration": 150}, {"note": 0, "velocity": 0, "duration": 90}, {"note": 75, "velocity": 104, "duration": 68}, {"note": 77, "velocity": 109, "duration": 60}, {"note": 79, "velocity": 117, "duration": 118}, {"note": 77, "velocity": 106, "duration": 846}, {"note": 0, "velocity": 0, "duration": 474}, {"note": 84, "velocity": 106, "duration": 55}, {"note": 0, "velocity": 0, "duration": 65}, {"note": 84, "velocity": 104, "duration": 49}, {"note": 0, "velocity": 0, "duration": 71}, {"note": 84, "velocity": 109, "duration": 152}, {"note": 0, "velocity": 0, "duration": 88}, {"note": 84, "velocity": 109, "duration": 62}, {"note": 84, "velocity": 109, "duration": 58}, {"note": 0, "velocity": 0, "duration": 62}, {"note": 84, "velocity": 109, "duration": 62}, {"note": 77, "velocity": 115, "duration": 134}, {"note": 0, "velocity": 0, "duration": 226}, {"note": 77, "velocity": 112, "duration": 62}, {"note": 79, "velocity": 117, "duration": 52}, {"note": 0, "velocity": 0, "duration": 68}, {"note": 80, "velocity": 109, "duration": 109}, {"note": 0, "velocity": 0, "duration": 131}, {"note": 84, "velocity": 106, "duration": 172}, {"note": 0, "velocity": 0, "duration": 68}, {"note": 82, "velocity": 112, "duration": 117}, {"note": 0, "velocity": 0, "duration": 123}, {"note": 82, "velocity": 106, "duration": 66}, {"note": 80, "velocity": 109, "duration": 151}, {"note": 0, "velocity": 0, "duration": 89}, {"note": 82, "velocity": 112, "duration": 950}, {"note": 0, "velocity": 0, "duration": 370}, {"note": 82, "velocity": 109, "duration": 59}, {"note": 0, "velocity": 0, "duration": 61}, {"note": 80, "velocity": 109, "duration": 55}, {"note": 0, "velocity": 0, "duration": 65}, {"note": 82, "velocity": 112, "duration": 47}, {"note": 0, "velocity": 0, "duration": 73}, {"note": 82, "velocity": 112, "duration": 93}, {"note": 0, "velocity": 0, "duration": 147}, {"note": 84, "velocity": 115, "duration": 166}, {"note": 0, "velocity": 0, "duration": 74}, {"note": 82, "velocity": 106, "duration": 53}, {"note": 0, "velocity": 0, "duration": 67}, {"note": 80, "velocity": 112, "duration": 55}, {"note": 0, "velocity": 0, "duration": 65}, {"note": 77, "velocity": 112, "duration": 58}, {"note": 0, "velocity": 0, "duration": 62}, {"note": 80, "velocity": 112, "duration": 56}, {"note": 0, "velocity": 0, "duration": 64}, {"note": 77, "velocity": 109, "duration": 45}, {"note": 0, "velocity": 0, "duration": 75}, {"note": 77, "velocity": 109, "duration": 50}, {"note": 0, "velocity": 0, "duration": 70}, {"note": 77, "velocity": 112, "duration": 51}, {"note": 0, "velocity": 0, "duration": 69}, {"note": 80, "velocity": 112, "duration": 149}, {"note": 0, "velocity": 0, "duration": 91}, {"note": 80, "velocity": 112, "duration": 125}, {"note": 0, "velocity": 0, "duration": 115}, {"note": 80, "velocity": 106, "duration": 64}, {"note": 82, "velocity": 109, "duration": 52}, {"note": 0, "velocity": 0, "duration": 68}, {"note": 80, "velocity": 112, "duration": 58}, {"note": 0, "velocity": 0, "duration": 62}, {"note": 79, "velocity": 113, "duration": 819}, {"note": 0, "velocity": 0, "duration": 501}, {"note": 84, "velocity": 106, "duration": 55}, {"note": 0, "velocity": 0, "duration": 65}, {"note": 84, "velocity": 104, "duration": 49}, {"note": 0, "velocity": 0, "duration": 71}, {"note": 84, "velocity": 109, "duration": 152}, {"note": 0, "velocity": 0, "duration": 88}, {"note": 84, "velocity": 109, "duration": 62}, {"note": 84, "velocity": 109, "duration": 58}, {"note": 0, "velocity": 0, "duration": 62}, {"note": 84, "velocity": 109, "duration": 62}, {"note": 77, "velocity": 115, "duration": 134}, {"note": 0, "velocity": 0, "duration": 226}, {"note": 77, "velocity": 112, "duration": 62}, {"note": 79, "velocity": 117, "duration": 52}, {"note": 0, "velocity": 0, "duration": 68}, {"note": 80, "velocity": 109, "duration": 109}, {"note": 0, "velocity": 0, "duration": 131}, {"note": 84, "velocity": 106, "duration": 172}, {"note": 0, "velocity": 0, "duration": 68}, {"note": 82, "velocity": 112, "duration": 117}, {"note": 0, "velocity": 0, "duration": 123}, {"note": 82, "velocity": 106, "duration": 66}, {"note": 80, "velocity": 109, "duration": 151}, {"note": 0, "velocity": 0, "duration": 89}, {"note": 82, "velocity": 112, "duration": 950}, {"note": 0, "velocity": 0, "duration": 370}, {"note": 82, "velocity": 109, "duration": 59}, {"note": 0, "velocity": 0, "duration": 61}, {"note": 80, "velocity": 109, "duration": 55}, {"note": 0, "velocity": 0, "duration": 65}, {"note": 82, "velocity": 112, "duration": 47}, {"note": 0, "velocity": 0, "duration": 73}, {"note": 82, "velocity": 112, "duration": 93}, {"note": 0, "velocity": 0, "duration": 147}, {"note": 84, "velocity": 115, "duration": 166}, {"note": 0, "velocity": 0, "duration": 74}, {"note": 82, "velocity": 106, "duration": 53}, {"note": 0, "velocity": 0, "duration": 67}, {"note": 80, "velocity": 112, "duration": 55}, {"note": 0, "velocity": 0, "duration": 65}, {"note": 77, "velocity": 112, "duration": 58}, {"note": 0, "velocity": 0, "duration": 62}, {"note": 80, "velocity": 112, "duration": 118}, {"note": 77, "velocity": 96, "duration": 187}, {"note": 77, "velocity": 101, "duration": 65}, {"note": 79, "velocity": 117, "duration": 162}, {"note": 0, "velocity": 0, "duration": 78}, {"note": 79, "velocity": 109, "duration": 150}, {"note": 0, "velocity": 0, "duration": 90}, {"note": 75, "velocity": 104, "duration": 68}, {"note": 77, "velocity": 109, "duration": 60}, {"note": 79, "velocity": 117, "duration": 118}, {"note": 77, "velocity": 106, "duration": 846}, {"note": 0, "velocity": 0, "duration": 477}, {"note": 82, "velocity": 94, "duration": 81}, {"note": 80, "velocity": 99, "duration": 61}, {"note": 0, "velocity": 0, "duration": 75}, {"note": 82, "velocity": 104, "duration": 117}, {"note": 0, "velocity": 0, "duration": 93}, {"note": 82, "velocity": 104, "duration": 146}, {"note": 0, "velocity": 0, "duration": 78}, {"note": 84, "velocity": 106, "duration": 187}, {"note": 82, "velocity": 104, "duration": 63}, {"note": 0, "velocity": 0, "duration": 79}, {"note": 80, "velocity": 106, "duration": 64}, {"note": 77, "velocity": 99, "duration": 52}, {"note": 0, "velocity": 0, "duration": 68}, {"note": 80, "velocity": 101, "duration": 80}, {"note": 77, "velocity": 104, "duration": 718}, {"note": 0, "velocity": 0, "duration": 228}, {"note": 77, "velocity": 99, "duration": 133}, {"note": 79, "velocity": 110, "duration": 184}, {"note": 0, "velocity": 0, "duration": 91}, {"note": 79, "velocity": 113, "duration": 228}, {"note": 0, "velocity": 0, "duration": 85}, {"note": 75, "velocity": 104, "duration": 126}, {"note": 0, "velocity": 0, "duration": 65}, {"note": 77, "velocity": 104, "duration": 193}, {"note": 0, "velocity": 0, "duration": 87}, {"note": 79, "velocity": 110, "duration": 602}, {"note": 0, "velocity": 0, "duration": 243}, {"note": 77, "velocity": 101, "duration": 1335}]]