[[{"note": 67, "velocity": 115, "duration": 187}, {"note": 74, "velocity": 106, "duration": 57}, {"note": 0, "velocity": 0, "duration": 63}, {"note": 74, "velocity": 106, "duration": 57}, {"note": 0, "velocity": 0, "duration": 63}, {"note": 74, "velocity": 109, "duration": 141}, {"note": 0, "velocity": 0, "duration": 99}, {"note": 72, "velocity": 109, "duration": 57}, {"note": 0, "velocity": 0, "duration": 63}, {"note": 70, "velocity": 120, "duration": 55}, {"note": 0, "velocity": 0, "duration": 65}, {"note": 74, "velocity": 109, "duration": 280}, {"note": 0, "velocity": 0, "duration": 440}, {"note": 74, "velocity": 115, "duration": 75}, {"note": 79, "velocity": 112, "duration": 54}, {"note": 0, "velocity": 0, "duration": 66}, {"note": 77, "velocity": 115, "duration": 114}, {"note": 0, "velocity": 0, "duration": 126}, {"note": 77, "velocity": 106, "duration": 54}, {"note": 0, "velocity": 0, "duration": 66}, {"note": 77, "velocity": 109, "duration": 49}, {"note": 0, "velocity": 0, "duration": 71}, {"note": 77, "velocity": 112, "duration": 114}, {"note": 0, "velocity": 0, "duration": 126}, {"note": 74, "velocity": 115, "duration": 64}, {"note": 72, "velocity": 101, "duration": 47}, {"note": 0, "velocity": 0, "duration": 73}, {"note": 74, "velocity": 106, "duration": 548}, {"note": 0, "velocity": 0, "duration": 412}, {"note": 74, "velocity": 115, "duration": 75}, {"note": 79, "velocity": 112, "duration": 49}, {"note": 0, "velocity": 0, "duration": 71}, {"note": 79, "velocity": 104, "duration": 55}, {"note": 0, "velocity": 0, "duration": 65}, {"note": 79, "velocity": 109, "duration": 53}, {"note": 0, "velocity": 0, "duration": 67}, {"note": 79, "velocity": 112, "duration": 167}, {"note": 0, "velocity": 0, "duration": 73}, {"note": 79, "velocity": 112, "duration": 67}, {"note": 77, "velocity": 109, "duration": 56}, {"note": 0, "velocity": 0, "duration": 64}, {"note": 74, "velocity": 115, "duration": 162}, {"note": 0, "velocity": 0, "duration": 78}, {"note": 72, "velocity": 106, "duration": 377}, {"note": 0, "velocity": 0, "duration": 103}, {"note": 67, "velocity": 115, "duration": 79}, {"note": 70, "velocity": 117, "duration": 53}, {"note": 0, "velocity": 0, "duration": 67}, {"note": 72, "velocity": 104, "duration": 54}, {"note": 0, "velocity": 0, "duration": 66}, {"note": 72, "velocity": 101, "duration": 51}, {"note": 0, "velocity": 0, "duration": 69}, {"note": 72, "velocity": 104, "duration": 48}, {"note": 0, "velocity": 0, "duration": 72}, {"note": 72, "velocity": 104, "duration": 55}, {"note": 0, "velocity": 0, "duration": 65}, {"note": 72, "velocity": 109, "duration": 155}, {"note": 0, "velocity": 0, "duration": 85}, {"note": 70, "velocity": 117, "duration": 66}, {"note": 72, "velocity": 109, "duration": 135}, {"note": 0, "velocity": 0, "duration": 105}, {"note": 74, "velocity": 109, "duration": 697}, {"note": 0, "velocity": 0, "duration": 143}, {"note": 74, "velocity": 115, "duration": 164}, {"note": 0, "velocity": 0, "duration": 76}, {"note": 79, "velocity": 115, "duration": 55}, {"note": 0, "velocity": 0, "duration": 65}, {"note": 79, "velocity": 106, "duration": 58}, {"note": 0, "velocity": 0, "duration": 62}, {"note": 79, "velocity": 115, "duration": 181}, {"note": 77, "velocity": 112, "duration": 155}, {"note": 0, "velocity": 0, "duration": 85}, {"note": 82, "velocity": 120, "duration": 156}, {"note": 0, "velocity": 0, "duration": 84}, {"note": 79, "velocity": 112, "duration": 322}, {"note": 0, "velocity": 0, "duration": 158}, {"note": 79, "velocity": 112, "duration": 55}, {"note": 0, "velocity": 0, "duration": 65}, {"note": 79, "velocity": 106, "duration": 53}, {"note": 0, "velocity": 0, "duration": 67}, {"note": 77, "velocity": 118, "duration": 52}, {"note": 0, "velocity": 0, "duration": 68}, {"note": 77, "velocity": 112, "duration": 269}, {"note": 0, "velocity": 0, "duration": 91}, {"note": 77, "velocity": 112, "duration": 148}, {"note": 0, "velocity": 0, "duration": 92}, {"note": 74, "velocity": 109, "duration": 67}, {"note": 72, "velocity": 104, "duration": 155}, {"note": 0, "velocity": 0, "duration": 85}, {"note": 74, "velocity": 109, "duration": 459}, {"note": 0, "velocity": 0, "duration": 381}, {"note": 74, "velocity": 118, "duration": 182}, {"note": 79, "velocity": 112, "duration": 64}, {"note": 79, "velocity": 106, "duration": 60}, {"note": 79, "velocity": 112, "duration": 290}, {"note": 0, "velocity": 0, "duration": 70}, {"note": 77, "velocity": 109, "duration": 60}, {"note": 74, "velocity": 115, "duration": 157}, {"note": 0, "velocity": 0, "duration": 83}, {"note": 72, "velocity": 109, "duration": 275}, {"note": 0, "velocity": 0, "duration": 205}, {"note": 67, "velocity": 104, "duration": 75}, {"note": 70, "velocity": 117, "duration": 53}, {"note": 0, "velocity": 0, "duration": 67}, {"note": 72, "velocity": 109, "duration": 146}, {"note": 0, "velocity": 0, "duration": 94}, {"note": 72, "velocity": 106, "duration": 60}, {"note": 74, "velocity": 109, "duration": 50}, {"note": 0, "velocity": 0, "duration": 70}, {"note": 77, "velocity": 115, "duration": 139}, {"note": 0, "velocity": 0, "duration": 101}, {"note": 74, "velocity": 109, "duration": 124}, {"note": 0, "velocity": 0, "duration": 116}, {"note": 65, "velocity": 115, "duration": 159}, {"note": 0, "velocity": 0, "duration": 81}, {"note": 67, "velocity": 104, "duration": 618}, {"note": 0, "velocity": 0, "duration": 102}, {"note": 70, "velocity": 120, "duration": 52}, {"note": 0, "velocity": 0, "duration": 68}, {"note": 70, "velocity": 110, "duration": 150}, {"note": 0, "velocity": 0, "duration": 90}, {"note": 70, "velocity": 117, "duration": 63}, {"note": 70, "velocity": 117, "duration": 167}, {"note": 0, "velocity": 0, "duration": 73}, {"note": 74, "velocity": 106, "duration": 151}, {"note": 0, "velocity": 0, "duration": 89}, {"note": 74, "velocity": 115, "duration": 601}, {"note": 0, "velocity": 0, "duration": 119}, {"note": 74, "velocity": 118, "duration": 58}, {"note": 0, "velocity": 0, "duration": 62}, {"note": 77, "velocity": 112, "duration": 51}, {"note": 0, "velocity": 0, "duration": 69}, {"note": 79, "velocity": 115, "duration": 106}, {"note": 0, "velocity": 0, "duration": 134}, {"note": 79, "velocity": 115, "duration": 106}, {"note": 0, "velocity": 0, "duration": 134}, {"note": 81, "velocity": 115, "duration": 253}, {"note": 0, "velocity": 0, "duration": 107}, {"note": 79, "velocity": 109, "duration": 59}, {"note": 0, "velocity": 0, "duration": 61}, {"note": 77, "velocity": 112, "duration": 157}, {"note": 0, "velocity": 0, "duration": 83}, {"note": 74, "velocity": 115, "duration": 343}, {"note": 0, "velocity": 0, "duration": 137}, {"note": 74, "velocity": 115, "duration": 60}, {"note": 77, "velocity": 112, "duration": 45}, {"note": 0, "velocity": 0, "duration": 75}, {"note": 79, "velocity": 115, "duration": 126}, {"note": 0, "velocity": 0, "duration": 114}, {"note": 79, "velocity": 112, "duration": 90}, {"note": 0, "velocity": 0, "duration": 150}, {"note": 79, "velocity": 112, "duration": 328}, {"note": 0, "velocity": 0, "duration": 152}, {"note": 81, "velocity": 115, "duration": 85}, {"note": 0, "velocity": 0, "duration": 155}, {"note": 81, "velocity": 115, "duration": 131}, {"note": 0, "velocity": 0, "duration": 109}, {"note": 79, "velocity": 109, "duration": 65}, {"note": 82, "velocity": 115, "duration": 229}, {"note": 0, "velocity": 0, "duration": 131}, {"note": 81, "velocity": 118, "duration": 1244}, {"note": 0, "velocity": 0, "duration": 676}, {"note": 74, "velocity": 115, "duration": 68}, {"note": 79, "velocity": 115, "duration": 51}, {"note": 0, "velocity": 0, "duration": 69}, {"note": 79, "velocity": 109, "duration": 53}, {"note": 0, "velocity": 0, "duration": 67}, {"note": 79, "velocity": 112, "duration": 371}, {"note": 0, "velocity": 0, "duration": 229}, {"note": 74, "velocity": 115, "duration": 60}, {"note": 81, "velocity": 115, "duration": 58}, {"note": 0, "velocity": 0, "duration": 62}, {"note": 81, "velocity": 106, "duration": 59}, {"note": 0, "velocity": 0, "duration": 61}, {"note": 81, "velocity": 115, "duration": 244}, {"note": 0, "velocity": 0, "duration": 116}, {"note": 79, "velocity": 115, "duration": 63}, {"note": 81, "velocity": 109, "duration": 51}, {"note": 0, "velocity": 0, "duration": 69}, {"note": 82, "velocity": 120, "duration": 144}, {"note": 0, "velocity": 0, "duration": 96}, {"note": 82, "velocity": 113, "duration": 47}, {"note": 0, "velocity": 0, "duration": 73}, {"note": 82, "velocity": 110, "duration": 41}, {"note": 0, "velocity": 0, "duration": 79}, {"note": 82, "velocity": 120, "duration": 170}, {"note": 0, "velocity": 0, "duration": 70}, {"note": 79, "velocity": 104, "duration": 45}, {"note": 0, "velocity": 0, "duration": 75}, {"note": 79, "velocity": 112, "duration": 149}, {"note": 0, "velocity": 0, "duration": 91}, {"note": 77, "velocity": 115, "duration": 412}, {"note": 0, "velocity": 0, "duration": 188}, {"note": 74, "velocity": 112, "duration": 58}, {"note": 0, "velocity": 0, "duration": 62}, {"note": 77, "velocity": 112, "duration": 58}, {"note": 0, "velocity": 0, "duration": 62}, {"note": 72, "velocity": 115, "duration": 116}, {"note": 0, "velocity": 0, "duration": 124}, {"note": 72, "velocity": 112, "duration": 111}, {"note": 0, "velocity": 0, "duration": 129}, {"note": 72, "velocity": 106, "duration": 51}, {"note": 0, "velocity": 0, "duration": 69}, {"note": 72, "velocity": 112, "duration": 171}, {"note": 0, "velocity": 0, "duration": 69}, {"note": 70, "velocity": 120, "duration": 50}, {"note": 0, "velocity": 0, "duration": 70}, {"note": 72, "velocity": 109, "duration": 103}, {"note": 0, "velocity": 0, "duration": 137}, {"note": 74, "velocity": 112, "duration": 283}, {"note": 0, "velocity": 0, "duration": 197}, {"note": 74, "velocity": 112, "duration": 60}, {"note": 77, "velocity": 112, "duration": 54}, {"note": 0, "velocity": 0, "duration": 66}, {"note": 79, "velocity": 112, "duration": 145}, {"note": 0, "velocity": 0, "duration": 95}, {"note": 79, "velocity": 109, "duration": 55}, {"note": 0, "velocity": 0, "duration": 65}, {"note": 79, "velocity": 106, "duration": 45}, {"note": 0, "velocity": 0, "duration": 75}, {"note": 79, "velocity": 112, "duration": 165}, {"note": 0, "velocity": 0, "duration": 75}, {"note": 82, "velocity": 120, "duration": 161}, {"note": 0, "velocity": 0, "duration": 79}, {"note": 79, "velocity": 109, "duration": 89}, {"note": 0, "velocity": 0, "duration": 151}, {"note": 81, "velocity": 112, "duration": 611}, {"note": 0, "velocity": 0, "duration": 109}, {"note": 74, "velocity": 115, "duration": 68}, {"note": 79, "velocity": 115, "duration": 51}, {"note": 0, "velocity": 0, "duration": 69}, {"note": 79, "velocity": 109, "duration": 53}, {"note": 0, "velocity": 0, "duration": 67}, {"note": 79, "velocity": 112, "duration": 371}, {"note": 0, "velocity": 0, "duration": 229}, {"note": 74, "velocity": 115, "duration": 60}, {"note": 81, "velocity": 115, "duration": 58}, {"note": 0, "velocity": 0, "duration": 62}, {"note": 81, "velocity": 106, "duration": 59}, {"note": 0, "velocity": 0, "duration": 61}, {"note": 81, "velocity": 115, "duration": 244}, {"note": 0, "velocity": 0, "duration": 116}, {"note": 79, "velocity": 115, "duration": 63}, {"note": 81, "velocity": 109, "duration": 51}, {"note": 0, "velocity": 0, "duration": 69}, {"note": 82, "velocity": 120, "duration": 144}, {"note": 0, "velocity": 0, "duration": 96}, {"note": 82, "velocity": 113, "duration": 47}, {"note": 0, "velocity": 0, "duration": 73}, {"note": 82, "velocity": 110, "duration": 41}, {"note": 0, "velocity": 0, "duration": 79}, {"note": 82, "velocity": 120, "duration": 170}, {"note": 0, "velocity": 0, "duration": 70}, {"note": 84, "velocity": 118, "duration": 76}, {"note": 82, "velocity": 120, "duration": 57}, {"note": 0, "velocity": 0, "duration": 63}, {"note": 86, "velocity": 115, "duration": 480}, {"note": 0, "velocity": 0, "duration": 240}, {"note": 86, "velocity": 112, "duration": 58}, {"note": 0, "velocity": 0, "duration": 62}, {"note": 86, "velocity": 112, "duration": 58}, {"note": 0, "velocity": 0, "duration": 62}, {"note": 84, "velocity": 115, "duration": 116}, {"note": 0, "velocity": 0, "duration": 124}, {"note": 84, "velocity": 112, "duration": 111}, {"note": 0, "velocity": 0, "duration": 129}, {"note": 84, "velocity": 106, "duration": 51}, {"note": 0, "velocity": 0, "duration": 69}, {"note": 84, "velocity": 112, "duration": 171}, {"note": 0, "velocity": 0, "duration": 69}, {"note": 82, "velocity": 120, "duration": 50}, {"note": 0, "velocity": 0, "duration": 70}, {"note": 84, "velocity": 109, "duration": 103}, {"note": 0, "velocity": 0, "duration": 137}, {"note": 82, "velocity": 117, "duration": 86}, {"note": 79, "velocity": 115, "duration": 252}, {"note": 0, "velocity": 0, "duration": 108}, {"note": 79, "velocity": 112, "duration": 60}, {"note": 81, "velocity": 112, "duration": 57}, {"note": 0, "velocity": 0, "duration": 63}, {"note": 82, "velocity": 120, "duration": 129}, {"note": 0, "velocity": 0, "duration": 111}, {"note": 82, "velocity": 120, "duration": 52}, {"note": 0, "velocity": 0, "duration": 68}, {"note": 82, "velocity": 117, "duration": 52}, {"note": 0, "velocity": 0, "duration": 68}, {"note": 82, "velocity": 120, "duration": 173}, {"note": 0, "velocity": 0, "duration": 67}, {"note": 84, "velocity": 115, "duration": 66}, {"note": 82, "velocity": 117, "duration": 51}, {"note": 0, "velocity": 0, "duration": 69}, {"note": 81, "velocity": 109, "duration": 320}, {"note": 74, "velocity": 106, "duration": 68}, {"note": 77, "velocity": 112, "duration": 160}, {"note": 0, "velocity": 0, "duration": 80}, {"note": 74, "velocity": 115, "duration": 325}, {"note": 0, "velocity": 0, "duration": 155}, {"note": 79, "velocity": 112, "duration": 1361}, {"note": 0, "velocity": 0, "duration": 9919}, {"note": 67, "velocity": 115, "duration": 164}, {"note": 0, "velocity": 0, "duration": 76}, {"note": 74, "velocity": 115, "duration": 55}, {"note": 0, "velocity": 0, "duration": 65}, {"note": 74, "velocity": 106, "duration": 58}, {"note": 0, "velocity": 0, "duration": 62}, {"note": 74, "velocity": 115, "duration": 181}, {"note": 72, "velocity": 112, "duration": 116}, {"note": 70, "velocity": 114, "duration": 236}, {"note": 0, "velocity": 0, "duration": 124}, {"note": 74, "velocity": 112, "duration": 322}, {"note": 0, "velocity": 0, "duration": 158}, {"note": 79, "velocity": 112, "duration": 55}, {"note": 0, "velocity": 0, "duration": 65}, {"note": 79, "velocity": 106, "duration": 53}, {"note": 0, "velocity": 0, "duration": 67}, {"note": 77, "velocity": 118, "duration": 52}, {"note": 0, "velocity": 0, "duration": 68}, {"note": 77, "velocity": 112, "duration": 269}, {"note": 0, "velocity": 0, "duration": 91}, {"note": 77, "velocity": 112, "duration": 148}, {"note": 0, "velocity": 0, "duration": 92}, {"note": 74, "velocity": 109, "duration": 67}, {"note": 72, "velocity": 104, "duration": 155}, {"note": 0, "velocity": 0, "duration": 85}, {"note": 74, "velocity": 109, "duration": 459}, {"note": 0, "velocity": 0, "duration": 381}, {"note": 74, "velocity": 118, "duration": 182}, {"note": 79, "velocity": 112, "duration": 64}, {"note": 79, "velocity": 106, "duration": 60}, {"note": 79, "velocity": 112, "duration": 290}, {"note": 0, "velocity": 0, "duration": 70}, {"note": 77, "velocity": 109, "duration": 60}, {"note": 74, "velocity": 115, "duration": 157}, {"note": 0, "velocity": 0, "duration": 83}, {"note": 72, "velocity": 109, "duration": 275}, {"note": 0, "velocity": 0, "duration": 205}, {"note": 67, "velocity": 104, "duration": 75}, {"note": 70, "velocity": 117, "duration": 53}, {"note": 0, "velocity": 0, "duration": 67}, {"note": 72, "velocity": 109, "duration": 146}, {"note": 0, "velocity": 0, "duration": 94}, {"note": 72, "velocity": 106, "duration": 60}, {"note": 74, "velocity": 109, "duration": 50}, {"note": 0, "velocity": 0, "duration": 70}, {"note": 77, "velocity": 115, "duration": 139}, {"note": 0, "velocity": 0, "duration": 101}, {"note": 74, "velocity": 109, "duration": 124}, {"note": 0, "velocity": 0, "duration": 116}, {"note": 65, "velocity": 115, "duration": 159}, {"note": 0, "velocity": 0, "duration": 81}, {"note": 67, "velocity": 104, "duration": 618}, {"note": 0, "velocity": 0, "duration": 102}, {"note": 70, "velocity": 120, "duration": 52}, {"note": 0, "velocity": 0, "duration": 68}, {"note": 70, "velocity": 110, "duration": 150}, {"note": 0, "velocity": 0, "duration": 90}, {"note": 70, "velocity": 117, "duration": 63}, {"note": 70, "velocity": 117, "duration": 167}, {"note": 0, "velocity": 0, "duration": 73}, {"note": 74, "velocity": 106, "duration": 151}, {"note": 0, "velocity": 0, "duration": 89}, {"note": 74, "velocity": 115, "duration": 601}, {"note": 0, "velocity": 0, "duration": 119}, {"note": 74, "velocity": 118, "duration": 58}, {"note": 0, "velocity": 0, "duration": 62}, {"note": 77, "velocity": 112, "duration": 51}, {"note": 0, "velocity": 0, "duration": 69}, {"note": 79, "velocity": 115, "duration": 106}, {"note": 0, "velocity": 0, "duration": 134}, {"note": 79, "velocity": 115, "duration": 106}, {"note": 0, "velocity": 0, "duration": 134}, {"note": 81, "velocity": 115, "duration": 253}, {"note": 0, "velocity": 0, "duration": 107}, {"note": 79, "velocity": 109, "duration": 59}, {"note": 0, "velocity": 0, "duration": 61}, {"note": 77, "velocity": 112, "duration": 157}, {"note": 0, "velocity": 0, "duration": 83}, {"note": 74, "velocity": 115, "duration": 343}, {"note": 0, "velocity": 0, "duration": 137}, {"note": 74, "velocity": 115, "duration": 60}, {"note": 77, "velocity": 112, "duration": 45}, {"note": 0, "velocity": 0, "duration": 75}, {"note": 79, "velocity": 115, "duration": 126}, {"note": 0, "velocity": 0, "duration": 114}, {"note": 79, "velocity": 112, "duration": 90}, {"note": 0, "velocity": 0, "duration": 150}, {"note": 79, "velocity": 112, "duration": 328}, {"note": 0, "velocity": 0, "duration": 152}, {"note": 81, "velocity": 115, "duration": 85}, {"note": 0, "velocity": 0, "duration": 155}, {"note": 81, "velocity": 115, "duration": 131}, {"note": 0, "velocity": 0, "duration": 109}, {"note": 79, "velocity": 109, "duration": 65}, {"note": 82, "velocity": 115, "duration": 229}, {"note": 0, "velocity": 0, "duration": 131}, {"note": 84, "velocity": 118, "duration": 1244}, {"note": 0, "velocity": 0, "duration": 676}, {"note": 74, "velocity": 115, "duration": 68}, {"note": 79, "velocity": 115, "duration": 51}, {"note": 0, "velocity": 0, "duration": 69}, {"note": 79, "velocity": 109, "duration": 53}, {"note": 0, "velocity": 0, "duration": 67}, {"note": 79, "velocity": 112, "duration": 371}, {"note": 0, "velocity": 0, "duration": 229}, {"note": 74, "velocity": 115, "duration": 60}, {"note": 81, "velocity": 115, "duration": 58}, {"note": 0, "velocity": 0, "duration": 62}, {"note": 81, "velocity": 106, "duration": 59}, {"note": 0, "velocity": 0, "duration": 61}, {"note": 81, "velocity": 115, "duration": 244}, {"note": 0, "velocity": 0, "duration": 116}, {"note": 79, "velocity": 115, "duration": 63}, {"note": 81, "velocity": 109, "duration": 51}, {"note": 0, "velocity": 0, "duration": 69}, {"note": 82, "velocity": 120, "duration": 144}, {"note": 0, "velocity": 0, "duration": 96}, {"note": 82, "velocity": 113, "duration": 47}, {"note": 0, "velocity": 0, "duration": 73}, {"note": 82, "velocity": 110, "duration": 41}, {"note": 0, "velocity": 0, "duration": 79}, {"note": 82, "velocity": 120, "duration": 170}, {"note": 0, "velocity": 0, "duration": 70}, {"note": 79, "velocity": 104, "duration": 45}, {"note": 0, "velocity": 0, "duration": 75}, {"note": 79, "velocity": 112, "duration": 149}, {"note": 0, "velocity": 0, "duration": 91}, {"note": 77, "velocity": 115, "duration": 412}, {"note": 0, "velocity": 0, "duration": 188}, {"note": 74, "velocity": 112, "duration": 58}, {"note": 0, "velocity": 0, "duration": 62}, {"note": 77, "velocity": 112, "duration": 58}, {"note": 0, "velocity": 0, "duration": 62}, {"note": 72, "velocity": 115, "duration": 116}, {"note": 0, "velocity": 0, "duration": 124}, {"note": 72, "velocity": 112, "duration": 111}, {"note": 0, "velocity": 0, "duration": 129}, {"note": 72, "velocity": 106, "duration": 51}, {"note": 0, "velocity": 0, "duration": 69}, {"note": 72, "velocity": 112, "duration": 171}, {"note": 0, "velocity": 0, "duration": 69}, {"note": 70, "velocity": 120, "duration": 50}, {"note": 0, "velocity": 0, "duration": 70}, {"note": 72, "velocity": 109, "duration": 103}, {"note": 0, "velocity": 0, "duration": 137}, {"note": 74, "velocity": 112, "duration": 283}, {"note": 0, "velocity": 0, "duration": 197}, {"note": 74, "velocity": 112, "duration": 60}, {"note": 77, "velocity": 112, "duration": 54}, {"note": 0, "velocity": 0, "duration": 66}, {"note": 79, "velocity": 112, "duration": 145}, {"note": 0, "velocity": 0, "duration": 95}, {"note": 79, "velocity": 109, "duration": 55}, {"note": 0, "velocity": 0, "duration": 65}, {"note": 79, "velocity": 106, "duration": 45}, {"note": 0, "velocity": 0, "duration": 75}, {"note": 79, "velocity": 112, "duration": 165}, {"note": 0, "velocity": 0, "duration": 75}, {"note": 82, "velocity": 120, "duration": 161}, {"note": 0, "velocity": 0, "duration": 79}, {"note": 79, "velocity": 109, "duration": 89}, {"note": 0, "velocity": 0, "duration": 151}, {"note": 81, "velocity": 112, "duration": 611}, {"note": 0, "velocity": 0, "duration": 109}, {"note": 74, "velocity": 115, "duration": 68}, {"note": 79, "velocity": 115, "duration": 51}, {"note": 0, "velocity": 0, "duration": 69}, {"note": 79, "velocity": 109, "duration": 53}, {"note": 0, "velocity": 0, "duration": 67}, {"note": 79, "velocity": 112, "duration": 371}, {"note": 0, "velocity": 0, "duration": 229}, {"note": 74, "velocity": 115, "duration": 60}, {"note": 81, "velocity": 115, "duration": 58}, {"note": 0, "velocity": 0, "duration": 62}, {"note": 81, "velocity": 106, "duration": 59}, {"note": 0, "velocity": 0, "duration": 61}, {"note": 81, "velocity": 115, "duration": 244}, {"note": 0, "velocity": 0, "duration": 116}, {"note": 79, "velocity": 115, "duration": 63}, {"note": 81, "velocity": 109, "duration": 51}, {"note": 0, "velocity": 0, "duration": 69}, {"note": 82, "velocity": 120, "duration": 144}, {"note": 0, "velocity": 0, "duration": 96}, {"note": 82, "velocity": 113, "duration": 47}, {"note": 0, "velocity": 0, "duration": 73}, {"note": 82, "velocity": 110, "duration": 41}, {"note": 0, "velocity": 0, "duration": 79}, {"note": 82, "velocity": 120, "duration": 170}, {"note": 0, "velocity": 0, "duration": 70}, {"note": 84, "velocity": 118, "duration": 76}, {"note": 82, "velocity": 120, "duration": 57}, {"note": 0, "velocity": 0, "duration": 63}, {"note": 86, "velocity": 115, "duration": 480}, {"note": 0, "velocity": 0, "duration": 240}, {"note": 86, "velocity": 112, "duration": 58}, {"note": 0, "velocity": 0, "duration": 62}, {"note": 86, "velocity": 112, "duration": 58}, {"note": 0, "velocity": 0, "duration": 62}, {"note": 84, "velocity": 115, "duration": 116}, {"note": 0, "velocity": 0, "duration": 124}, {"note": 84, "velocity": 112, "duration": 111}, {"note": 0, "velocity": 0, "duration": 129}, {"note": 84, "velocity": 106, "duration": 51}, {"note": 0, "velocity": 0, "duration": 69}, {"note": 84, "velocity": 112, "duration": 171}, {"note": 0, "velocity": 0, "duration": 69}, {"note": 82, "velocity": 120, "duration": 50}, {"note": 0, "velocity": 0, "duration": 70}, {"note": 84, "velocity": 109, "duration": 103}, {"note": 0, "velocity": 0, "duration": 137}, {"note": 82, "velocity": 117, "duration": 86}, {"note": 79, "velocity": 115, "duration": 252}, {"note": 0, "velocity": 0, "duration": 108}, {"note": 79, "velocity": 112, "duration": 60}, {"note": 81, "velocity": 112, "duration": 57}, {"note": 0, "velocity": 0, "duration": 63}, {"note": 82, "velocity": 120, "duration": 129}, {"note": 0, "velocity": 0, "duration": 111}, {"note": 82, "velocity": 120, "duration": 52}, {"note": 0, "velocity": 0, "duration": 68}, {"note": 82, "velocity": 117, "duration": 52}, {"note": 0, "velocity": 0, "duration": 68}, {"note": 82, "velocity": 120, "duration": 173}, {"note": 0, "velocity": 0, "duration": 67}, {"note": 84, "velocity": 115, "duration": 66}, {"note": 82, "velocity": 117, "duration": 51}, {"note": 0, "velocity": 0, "duration": 69}, {"note": 81, "velocity": 109, "duration": 320}, {"note": 74, "velocity": 106, "duration": 68}, {"note": 77, "velocity": 112, "duration": 160}, {"note": 0, "velocity": 0, "duration": 80}, {"note": 74, "velocity": 115, "duration": 325}, {"note": 0, "velocity": 0, "duration": 155}, {"note": 79, "velocity": 112, "duration": 1361}, {"note": 0, "velocity": 0, "duration": 319}, {"note": 74, "velocity": 115, "duration": 68}, {"note": 79, "velocity": 115, "duration": 51}, {"note": 0, "velocity": 0, "duration": 69}, {"note": 79, "velocity": 109, "duration": 53}, {"note": 0, "velocity": 0, "duration": 67}, {"note": 79, "velocity": 112, "duration": 371}, {"note": 0, "velocity": 0, "duration": 229}, {"note": 74, "velocity": 115, "duration": 60}, {"note": 81, "velocity": 115, "duration": 58}, {"note": 0, "velocity": 0, "duration": 62}, {"note": 81, "velocity": 106, "duration": 59}, {"note": 0, "velocity": 0, "duration": 61}, {"note": 81, "velocity": 115, "duration": 244}, {"note": 0, "velocity": 0, "duration": 116}, {"note": 79, "velocity": 115, "duration": 63}, {"note": 81, "velocity": 109, "duration": 51}, {"note": 0, "velocity": 0, "duration": 69}, {"note": 82, "velocity": 120, "duration": 144}, {"note": 0, "velocity": 0, "duration": 96}, {"note": 82, "velocity": 113, "duration": 47}, {"note": 0, "velocity": 0, "duration": 73}, {"note": 82, "velocity": 110, "duration": 41}, {"note": 0, "velocity": 0, "duration": 79}, {"note": 82, "velocity": 120, "duration": 170}, {"note": 0, "velocity": 0, "duration": 70}, {"note": 79, "velocity": 104, "duration": 45}, {"note": 0, "velocity": 0, "duration": 75}, {"note": 79, "velocity": 112, "duration": 149}, {"note": 0, "velocity": 0, "duration": 91}, {"note": 77, "velocity": 115, "duration": 412}, {"note": 0, "velocity": 0, "duration": 188}, {"note": 74, "velocity": 112, "duration": 58}, {"note": 0, "velocity": 0, "duration": 62}, {"note": 77, "velocity": 112, "duration": 58}, {"note": 0, "velocity": 0, "duration": 62}, {"note": 72, "velocity": 115, "duration": 116}, {"note": 0, "velocity": 0, "duration": 124}, {"note": 72, "velocity": 112, "duration": 111}, {"note": 0, "velocity": 0, "duration": 129}, {"note": 72, "velocity": 106, "duration": 51}, {"note": 0, "velocity": 0, "duration": 69}, {"note": 72, "velocity": 112, "duration": 171}, {"note": 0, "velocity": 0, "duration": 69}, {"note": 70, "velocity": 120, "duration": 50}, {"note": 0, "velocity": 0, "duration": 70}, {"note": 72, "velocity": 109, "duration": 103}, {"note": 0, "velocity": 0, "duration": 137}, {"note": 74, "velocity": 112, "duration": 283}, {"note": 0, "velocity": 0, "duration": 197}, {"note": 74, "velocity": 112, "duration": 60}, {"note": 77, "velocity": 112, "duration": 54}, {"note": 0, "velocity": 0, "duration": 66}, {"note": 79, "velocity": 112, "duration": 145}, {"note": 0, "velocity": 0, "duration": 95}, {"note": 79, "velocity": 109, "duration": 55}, {"note": 0, "velocity": 0, "duration": 65}, {"note": 79, "velocity": 106, "duration": 45}, {"note": 0, "velocity": 0, "duration": 75}, {"note": 79, "velocity": 112, "duration": 165}, {"note": 0, "velocity": 0, "duration": 75}, {"note": 82, "velocity": 120, "duration": 161}, {"note": 0, "velocity": 0, "duration": 79}, {"note": 79, "velocity": 109, "duration": 89}, {"note": 0, "velocity": 0, "duration": 151}, {"note": 81, "velocity": 112, "duration": 611}, {"note": 0, "velocity": 0, "duration": 109}, {"note": 74, "velocity": 115, "duration": 68}, {"note": 79, "velocity": 115, "duration": 51}, {"note": 0, "velocity": 0, "duration": 69}, {"note": 79, "velocity": 109, "duration": 53}, {"note": 0, "velocity": 0, "duration": 67}, {"note": 79, "velocity": 112, "duration": 371}, {"note": 0, "velocity": 0, "duration": 229}, {"note": 74, "velocity": 115, "duration": 60}, {"note": 81, "velocity": 115, "duration": 58}, {"note": 0, "velocity": 0, "duration": 62}, {"note": 81, "velocity": 106, "duration": 59}, {"note": 0, "velocity": 0, "duration": 61}, {"note": 81, "velocity": 115, "duration": 244}, {"note": 0, "velocity": 0, "duration": 116}, {"note": 79, "velocity": 115, "duration": 63}, {"note": 81, "velocity": 109, "duration": 51}, {"note": 0, "velocity": 0, "duration": 69}, {"note": 82, "velocity": 120, "duration": 144}, {"note": 0, "velocity": 0, "duration": 96}, {"note": 82, "velocity": 113, "duration": 47}, {"note": 0, "velocity": 0, "duration": 73}, {"note": 82, "velocity": 110, "duration": 41}, {"note": 0, "velocity": 0, "duration": 79}, {"note": 82, "velocity": 120, "duration": 170}, {"note": 0, "velocity": 0, "duration": 70}, {"note": 84, "velocity": 118, "duration": 76}, {"note": 82, "velocity": 120, "duration": 57}, {"note": 0, "velocity": 0, "duration": 63}, {"note": 86, "velocity": 115, "duration": 480}, {"note": 0, "velocity": 0, "duration": 240}, {"note": 86, "velocity": 112, "duration": 58}, {"note": 0, "velocity": 0, "duration": 62}, {"note": 86, "velocity": 112, "duration": 58}, {"note": 0, "velocity": 0, "duration": 62}, {"note": 84, "velocity": 115, "duration": 116}, {"note": 0, "velocity": 0, "duration": 124}, {"note": 84, "velocity": 112, "duration": 111}, {"note": 0, "velocity": 0, "duration": 129}, {"note": 84, "velocity": 106, "duration": 51}, {"note": 0, "velocity": 0, "duration": 69}, {"note": 84, "velocity": 112, "duration": 171}, {"note": 0, "velocity": 0, "duration": 69}, {"note": 82, "velocity": 120, "duration": 50}, {"note": 0, "velocity": 0, "duration": 70}, {"note": 84, "velocity": 109, "duration": 103}, {"note": 0, "velocity": 0, "duration": 137}, {"note": 82, "velocity": 117, "duration": 86}, {"note": 79, "velocity": 115, "duration": 252}, {"note": 0, "velocity": 0, "duration": 108}, {"note": 79, "velocity": 112, "duration": 60}, {"note": 81, "velocity": 112, "duration": 57}, {"note": 0, "velocity": 0, "duration": 63}, {"note": 82, "velocity": 120, "duration": 129}, {"note": 0, "velocity": 0, "duration": 111}, {"note": 82, "velocity": 120, "duration": 52}, {"note": 0, "velocity": 0, "duration": 68}, {"note": 82, "velocity": 117, "duration": 52}, {"note": 0, "velocity": 0, "duration": 68}, {"note": 82, "velocity": 120, "duration": 173}, {"note": 0, "velocity": 0, "duration": 67}, {"note": 84, "velocity": 115, "duration": 66}, {"note": 82, "velocity": 117, "duration": 51}, {"note": 0, "velocity": 0, "duration": 69}, {"note": 81, "velocity": 109, "duration": 320}, {"note": 74, "velocity": 106, "duration": 68}, {"note": 77, "velocity": 112, "duration": 160}, {"note": 0, "velocity": 0, "duration": 80}, {"note": 74, "velocity": 115, "duration": 325}, {"note": 0, "velocity": 0, "duration": 155}, {"note": 79, "velocity": 112, "duration": 1361}, {"note": 79, "velocity": 109, "duration": 91}, {"note": 81, "velocity": 104, "duration": 67}, {"note": 0, "velocity": 0, "duration": 71}, {"note": 82, "velocity": 117, "duration": 179}, {"note": 0, "velocity": 0, "duration": 70}, {"note": 82, "velocity": 110, "duration": 64}, {"note": 0, "velocity": 0, "duration": 68}, {"note": 82, "velocity": 113, "duration": 61}, {"note": 0, "velocity": 0, "duration": 87}, {"note": 82, "velocity": 117, "duration": 204}, {"note": 0, "velocity": 0, "duration": 68}, {"note": 84, "velocity": 104, "duration": 105}, {"note": 82, "velocity": 113, "duration": 101}, {"note": 0, "velocity": 0, "duration": 78}, {"note": 81, "velocity": 106, "duration": 1000}, {"note": 0, "velocity": 0, "duration": 68}, {"note": 74, "velocity": 101, "duration": 72}, {"note": 74, "velocity": 101, "duration": 57}, {"note": 0, "velocity": 0, "duration": 70}, {"note": 74, "velocity": 109, "duration": 182}, {"note": 82, "velocity": 112, "duration": 236}, {"note": 79, "velocity": 104, "duration": 1418}]]