[[{"note": 68, "velocity": 118, "duration": 577}, {"note": 0, "velocity": 0, "duration": 143}, {"note": 63, "velocity": 118, "duration": 130}, {"note": 0, "velocity": 0, "duration": 110}, {"note": 68, "velocity": 112, "duration": 159}, {"note": 0, "velocity": 0, "duration": 81}, {"note": 70, "velocity": 115, "duration": 126}, {"note": 0, "velocity": 0, "duration": 114}, {"note": 72, "velocity": 112, "duration": 145}, {"note": 0, "velocity": 0, "duration": 95}, {"note": 73, "velocity": 106, "duration": 157}, {"note": 0, "velocity": 0, "duration": 83}, {"note": 75, "velocity": 112, "duration": 1016}, {"note": 0, "velocity": 0, "duration": 424}, {"note": 75, "velocity": 115, "duration": 169}, {"note": 0, "velocity": 0, "duration": 71}, {"note": 77, "velocity": 112, "duration": 147}, {"note": 0, "velocity": 0, "duration": 93}, {"note": 80, "velocity": 115, "duration": 534}, {"note": 0, "velocity": 0, "duration": 186}, {"note": 82, "velocity": 115, "duration": 128}, {"note": 0, "velocity": 0, "duration": 112}, {"note": 80, "velocity": 115, "duration": 251}, {"note": 0, "velocity": 0, "duration": 109}, {"note": 77, "velocity": 112, "duration": 271}, {"note": 0, "velocity": 0, "duration": 89}, {"note": 72, "velocity": 112, "duration": 161}, {"note": 0, "velocity": 0, "duration": 79}, {"note": 75, "velocity": 112, "duration": 873}, {"note": 0, "velocity": 0, "duration": 1287}, {"note": 72, "velocity": 106, "duration": 143}, {"note": 0, "velocity": 0, "duration": 97}, {"note": 72, "velocity": 109, "duration": 168}, {"note": 0, "velocity": 0, "duration": 72}, {"note": 73, "velocity": 106, "duration": 140}, {"note": 0, "velocity": 0, "duration": 100}, {"note": 72, "velocity": 115, "duration": 305}, {"note": 0, "velocity": 0, "duration": 175}, {"note": 65, "velocity": 112, "duration": 161}, {"note": 0, "velocity": 0, "duration": 79}, {"note": 68, "velocity": 115, "duration": 360}, {"note": 0, "velocity": 0, "duration": 120}, {"note": 70, "velocity": 115, "duration": 1019}, {"note": 0, "velocity": 0, "duration": 901}, {"note": 70, "velocity": 106, "duration": 111}, {"note": 0, "velocity": 0, "duration": 129}, {"note": 70, "velocity": 109, "duration": 139}, {"note": 0, "velocity": 0, "duration": 101}, {"note": 68, "velocity": 106, "duration": 132}, {"note": 0, "velocity": 0, "duration": 108}, {"note": 70, "velocity": 112, "duration": 346}, {"note": 0, "velocity": 0, "duration": 134}, {"note": 72, "velocity": 112, "duration": 150}, {"note": 0, "velocity": 0, "duration": 90}, {"note": 70, "velocity": 115, "duration": 366}, {"note": 0, "velocity": 0, "duration": 114}, {"note": 63, "velocity": 112, "duration": 723}, {"note": 0, "velocity": 0, "duration": 957}, {"note": 68, "velocity": 118, "duration": 577}, {"note": 0, "velocity": 0, "duration": 143}, {"note": 63, "velocity": 118, "duration": 130}, {"note": 0, "velocity": 0, "duration": 110}, {"note": 68, "velocity": 112, "duration": 159}, {"note": 0, "velocity": 0, "duration": 81}, {"note": 70, "velocity": 115, "duration": 126}, {"note": 0, "velocity": 0, "duration": 114}, {"note": 68, "velocity": 112, "duration": 145}, {"note": 0, "velocity": 0, "duration": 95}, {"note": 75, "velocity": 106, "duration": 1200}, {"note": 0, "velocity": 0, "duration": 480}, {"note": 75, "velocity": 115, "duration": 169}, {"note": 0, "velocity": 0, "duration": 71}, {"note": 77, "velocity": 112, "duration": 147}, {"note": 0, "velocity": 0, "duration": 93}, {"note": 80, "velocity": 115, "duration": 534}, {"note": 0, "velocity": 0, "duration": 186}, {"note": 82, "velocity": 115, "duration": 128}, {"note": 0, "velocity": 0, "duration": 112}, {"note": 80, "velocity": 115, "duration": 251}, {"note": 0, "velocity": 0, "duration": 109}, {"note": 77, "velocity": 112, "duration": 271}, {"note": 0, "velocity": 0, "duration": 89}, {"note": 72, "velocity": 112, "duration": 161}, {"note": 0, "velocity": 0, "duration": 79}, {"note": 75, "velocity": 112, "duration": 873}, {"note": 0, "velocity": 0, "duration": 1287}, {"note": 77, "velocity": 104, "duration": 110}, {"note": 0, "velocity": 0, "duration": 130}, {"note": 77, "velocity": 115, "duration": 142}, {"note": 0, "velocity": 0, "duration": 98}, {"note": 80, "velocity": 115, "duration": 143}, {"note": 0, "velocity": 0, "duration": 97}, {"note": 77, "velocity": 115, "duration": 327}, {"note": 0, "velocity": 0, "duration": 153}, {"note": 72, "velocity": 109, "duration": 165}, {"note": 0, "velocity": 0, "duration": 75}, {"note": 75, "velocity": 109, "duration": 358}, {"note": 0, "velocity": 0, "duration": 122}, {"note": 70, "velocity": 112, "duration": 782}, {"note": 0, "velocity": 0, "duration": 418}, {"note": 63, "velocity": 115, "duration": 162}, {"note": 0, "velocity": 0, "duration": 78}, {"note": 65, "velocity": 112, "duration": 152}, {"note": 0, "velocity": 0, "duration": 88}, {"note": 72, "velocity": 109, "duration": 562}, {"note": 0, "velocity": 0, "duration": 158}, {"note": 70, "velocity": 112, "duration": 130}, {"note": 0, "velocity": 0, "duration": 110}, {"note": 68, "velocity": 112, "duration": 350}, {"note": 0, "velocity": 0, "duration": 130}, {"note": 67, "velocity": 113, "duration": 240}, {"note": 68, "velocity": 109, "duration": 1033}, {"note": 0, "velocity": 0, "duration": 1367}, {"note": 70, "velocity": 112, "duration": 142}, {"note": 0, "velocity": 0, "duration": 98}, {"note": 70, "velocity": 118, "duration": 131}, {"note": 0, "velocity": 0, "duration": 109}, {"note": 68, "velocity": 115, "duration": 156}, {"note": 0, "velocity": 0, "duration": 84}, {"note": 70, "velocity": 115, "duration": 355}, {"note": 0, "velocity": 0, "duration": 125}, {"note": 70, "velocity": 118, "duration": 128}, {"note": 0, "velocity": 0, "duration": 112}, {"note": 68, "velocity": 115, "duration": 163}, {"note": 0, "velocity": 0, "duration": 77}, {"note": 72, "velocity": 115, "duration": 166}, {"note": 0, "velocity": 0, "duration": 74}, {"note": 75, "velocity": 112, "duration": 1281}, {"note": 0, "velocity": 0, "duration": 639}, {"note": 80, "velocity": 112, "duration": 100}, {"note": 0, "velocity": 0, "duration": 140}, {"note": 80, "velocity": 112, "duration": 129}, {"note": 0, "velocity": 0, "duration": 111}, {"note": 82, "velocity": 115, "duration": 134}, {"note": 0, "velocity": 0, "duration": 106}, {"note": 80, "velocity": 118, "duration": 340}, {"note": 0, "velocity": 0, "duration": 140}, {"note": 77, "velocity": 115, "duration": 159}, {"note": 0, "velocity": 0, "duration": 81}, {"note": 80, "velocity": 115, "duration": 480}, {"note": 75, "velocity": 115, "duration": 1200}, {"note": 0, "velocity": 0, "duration": 720}, {"note": 72, "velocity": 106, "duration": 135}, {"note": 0, "velocity": 0, "duration": 105}, {"note": 72, "velocity": 112, "duration": 152}, {"note": 0, "velocity": 0, "duration": 88}, {"note": 75, "velocity": 115, "duration": 147}, {"note": 0, "velocity": 0, "duration": 93}, {"note": 75, "velocity": 115, "duration": 330}, {"note": 0, "velocity": 0, "duration": 150}, {"note": 72, "velocity": 115, "duration": 169}, {"note": 0, "velocity": 0, "duration": 71}, {"note": 75, "velocity": 112, "duration": 131}, {"note": 0, "velocity": 0, "duration": 109}, {"note": 80, "velocity": 112, "duration": 544}, {"note": 0, "velocity": 0, "duration": 176}, {"note": 79, "velocity": 120, "duration": 382}, {"note": 0, "velocity": 0, "duration": 98}, {"note": 77, "velocity": 106, "duration": 674}, {"note": 0, "velocity": 0, "duration": 286}, {"note": 77, "velocity": 109, "duration": 120}, {"note": 0, "velocity": 0, "duration": 120}, {"note": 77, "velocity": 115, "duration": 128}, {"note": 0, "velocity": 0, "duration": 112}, {"note": 75, "velocity": 112, "duration": 171}, {"note": 0, "velocity": 0, "duration": 69}, {"note": 77, "velocity": 112, "duration": 394}, {"note": 0, "velocity": 0, "duration": 86}, {"note": 80, "velocity": 115, "duration": 134}, {"note": 0, "velocity": 0, "duration": 106}, {"note": 82, "velocity": 115, "duration": 445}, {"note": 75, "velocity": 112, "duration": 1610}, {"note": 0, "velocity": 0, "duration": 1510}, {"note": 75, "velocity": 115, "duration": 148}, {"note": 0, "velocity": 0, "duration": 92}, {"note": 77, "velocity": 112, "duration": 134}, {"note": 0, "velocity": 0, "duration": 106}, {"note": 82, "velocity": 118, "duration": 122}, {"note": 0, "velocity": 0, "duration": 118}, {"note": 82, "velocity": 118, "duration": 360}, {"note": 0, "velocity": 0, "duration": 120}, {"note": 80, "velocity": 115, "duration": 142}, {"note": 0, "velocity": 0, "duration": 98}, {"note": 77, "velocity": 112, "duration": 346}, {"note": 0, "velocity": 0, "duration": 134}, {"note": 84, "velocity": 115, "duration": 408}, {"note": 0, "velocity": 0, "duration": 72}, {"note": 82, "velocity": 115, "duration": 1014}, {"note": 0, "velocity": 0, "duration": 426}, {"note": 80, "velocity": 109, "duration": 184}, {"note": 82, "velocity": 121, "duration": 115}, {"note": 0, "velocity": 0, "duration": 125}, {"note": 84, "velocity": 115, "duration": 136}, {"note": 0, "velocity": 0, "duration": 104}, {"note": 87, "velocity": 106, "duration": 138}, {"note": 0, "velocity": 0, "duration": 102}, {"note": 87, "velocity": 106, "duration": 124}, {"note": 0, "velocity": 0, "duration": 116}, {"note": 87, "velocity": 109, "duration": 113}, {"note": 0, "velocity": 0, "duration": 367}, {"note": 87, "velocity": 112, "duration": 240}, {"note": 75, "velocity": 115, "duration": 480}, {"note": 77, "velocity": 106, "duration": 1440}, {"note": 75, "velocity": 115, "duration": 136}, {"note": 0, "velocity": 0, "duration": 104}, {"note": 77, "velocity": 109, "duration": 123}, {"note": 0, "velocity": 0, "duration": 117}, {"note": 82, "velocity": 115, "duration": 120}, {"note": 0, "velocity": 0, "duration": 120}, {"note": 82, "velocity": 118, "duration": 372}, {"note": 0, "velocity": 0, "duration": 108}, {"note": 80, "velocity": 112, "duration": 129}, {"note": 0, "velocity": 0, "duration": 111}, {"note": 77, "velocity": 112, "duration": 338}, {"note": 0, "velocity": 0, "duration": 142}, {"note": 84, "velocity": 115, "duration": 399}, {"note": 0, "velocity": 0, "duration": 81}, {"note": 82, "velocity": 115, "duration": 1012}, {"note": 0, "velocity": 0, "duration": 428}, {"note": 82, "velocity": 115, "duration": 151}, {"note": 0, "velocity": 0, "duration": 89}, {"note": 80, "velocity": 115, "duration": 133}, {"note": 0, "velocity": 0, "duration": 107}, {"note": 85, "velocity": 115, "duration": 310}, {"note": 84, "velocity": 115, "duration": 254}, {"note": 0, "velocity": 0, "duration": 106}, {"note": 80, "velocity": 115, "duration": 159}, {"note": 0, "velocity": 0, "duration": 81}, {"note": 82, "velocity": 115, "duration": 379}, {"note": 0, "velocity": 0, "duration": 101}, {"note": 84, "velocity": 115, "duration": 406}, {"note": 0, "velocity": 0, "duration": 74}, {"note": 75, "velocity": 115, "duration": 1060}, {"note": 0, "velocity": 0, "duration": 380}, {"note": 75, "velocity": 115, "duration": 148}, {"note": 0, "velocity": 0, "duration": 92}, {"note": 77, "velocity": 112, "duration": 134}, {"note": 0, "velocity": 0, "duration": 106}, {"note": 82, "velocity": 118, "duration": 122}, {"note": 0, "velocity": 0, "duration": 118}, {"note": 82, "velocity": 118, "duration": 360}, {"note": 0, "velocity": 0, "duration": 120}, {"note": 80, "velocity": 115, "duration": 142}, {"note": 0, "velocity": 0, "duration": 98}, {"note": 77, "velocity": 112, "duration": 346}, {"note": 0, "velocity": 0, "duration": 134}, {"note": 84, "velocity": 115, "duration": 408}, {"note": 0, "velocity": 0, "duration": 72}, {"note": 82, "velocity": 115, "duration": 1014}, {"note": 0, "velocity": 0, "duration": 426}, {"note": 80, "velocity": 109, "duration": 184}, {"note": 82, "velocity": 121, "duration": 115}, {"note": 0, "velocity": 0, "duration": 125}, {"note": 84, "velocity": 115, "duration": 136}, {"note": 0, "velocity": 0, "duration": 104}, {"note": 87, "velocity": 106, "duration": 138}, {"note": 0, "velocity": 0, "duration": 102}, {"note": 87, "velocity": 106, "duration": 124}, {"note": 0, "velocity": 0, "duration": 116}, {"note": 87, "velocity": 109, "duration": 240}, {"note": 0, "velocity": 0, "duration": 240}, {"note": 87, "velocity": 112, "duration": 240}, {"note": 75, "velocity": 115, "duration": 480}, {"note": 77, "velocity": 106, "duration": 1440}, {"note": 75, "velocity": 115, "duration": 136}, {"note": 0, "velocity": 0, "duration": 104}, {"note": 77, "velocity": 109, "duration": 123}, {"note": 0, "velocity": 0, "duration": 117}, {"note": 82, "velocity": 115, "duration": 120}, {"note": 0, "velocity": 0, "duration": 120}, {"note": 82, "velocity": 118, "duration": 372}, {"note": 0, "velocity": 0, "duration": 108}, {"note": 80, "velocity": 112, "duration": 129}, {"note": 0, "velocity": 0, "duration": 111}, {"note": 77, "velocity": 112, "duration": 338}, {"note": 0, "velocity": 0, "duration": 142}, {"note": 84, "velocity": 115, "duration": 399}, {"note": 0, "velocity": 0, "duration": 81}, {"note": 82, "velocity": 115, "duration": 1012}, {"note": 0, "velocity": 0, "duration": 428}, {"note": 82, "velocity": 115, "duration": 151}, {"note": 0, "velocity": 0, "duration": 89}, {"note": 80, "velocity": 115, "duration": 133}, {"note": 0, "velocity": 0, "duration": 107}, {"note": 85, "velocity": 115, "duration": 720}, {"note": 84, "velocity": 115, "duration": 159}, {"note": 0, "velocity": 0, "duration": 81}, {"note": 80, "velocity": 115, "duration": 379}, {"note": 0, "velocity": 0, "duration": 101}, {"note": 82, "velocity": 115, "duration": 406}, {"note": 0, "velocity": 0, "duration": 74}, {"note": 80, "velocity": 115, "duration": 1060}, {"note": 0, "velocity": 0, "duration": 16220}, {"note": 68, "velocity": 118, "duration": 577}, {"note": 0, "velocity": 0, "duration": 143}, {"note": 63, "velocity": 118, "duration": 130}, {"note": 0, "velocity": 0, "duration": 110}, {"note": 68, "velocity": 112, "duration": 159}, {"note": 0, "velocity": 0, "duration": 81}, {"note": 70, "velocity": 115, "duration": 126}, {"note": 0, "velocity": 0, "duration": 114}, {"note": 68, "velocity": 112, "duration": 145}, {"note": 0, "velocity": 0, "duration": 95}, {"note": 75, "velocity": 106, "duration": 1200}, {"note": 0, "velocity": 0, "duration": 480}, {"note": 75, "velocity": 115, "duration": 169}, {"note": 0, "velocity": 0, "duration": 71}, {"note": 77, "velocity": 112, "duration": 147}, {"note": 0, "velocity": 0, "duration": 93}, {"note": 80, "velocity": 115, "duration": 534}, {"note": 0, "velocity": 0, "duration": 186}, {"note": 82, "velocity": 115, "duration": 128}, {"note": 0, "velocity": 0, "duration": 112}, {"note": 80, "velocity": 115, "duration": 251}, {"note": 0, "velocity": 0, "duration": 109}, {"note": 77, "velocity": 112, "duration": 271}, {"note": 0, "velocity": 0, "duration": 89}, {"note": 72, "velocity": 112, "duration": 161}, {"note": 0, "velocity": 0, "duration": 79}, {"note": 75, "velocity": 112, "duration": 873}, {"note": 0, "velocity": 0, "duration": 1287}, {"note": 77, "velocity": 104, "duration": 110}, {"note": 0, "velocity": 0, "duration": 130}, {"note": 77, "velocity": 115, "duration": 142}, {"note": 0, "velocity": 0, "duration": 98}, {"note": 80, "velocity": 115, "duration": 143}, {"note": 0, "velocity": 0, "duration": 97}, {"note": 77, "velocity": 115, "duration": 327}, {"note": 0, "velocity": 0, "duration": 153}, {"note": 72, "velocity": 109, "duration": 165}, {"note": 0, "velocity": 0, "duration": 75}, {"note": 75, "velocity": 109, "duration": 358}, {"note": 0, "velocity": 0, "duration": 122}, {"note": 70, "velocity": 112, "duration": 782}, {"note": 0, "velocity": 0, "duration": 418}, {"note": 63, "velocity": 115, "duration": 162}, {"note": 0, "velocity": 0, "duration": 78}, {"note": 65, "velocity": 112, "duration": 152}, {"note": 0, "velocity": 0, "duration": 88}, {"note": 72, "velocity": 109, "duration": 562}, {"note": 0, "velocity": 0, "duration": 158}, {"note": 70, "velocity": 112, "duration": 130}, {"note": 0, "velocity": 0, "duration": 110}, {"note": 68, "velocity": 112, "duration": 350}, {"note": 0, "velocity": 0, "duration": 130}, {"note": 67, "velocity": 113, "duration": 240}, {"note": 68, "velocity": 109, "duration": 1033}, {"note": 0, "velocity": 0, "duration": 1367}, {"note": 70, "velocity": 112, "duration": 142}, {"note": 0, "velocity": 0, "duration": 98}, {"note": 70, "velocity": 118, "duration": 131}, {"note": 0, "velocity": 0, "duration": 109}, {"note": 68, "velocity": 115, "duration": 156}, {"note": 0, "velocity": 0, "duration": 84}, {"note": 70, "velocity": 115, "duration": 355}, {"note": 0, "velocity": 0, "duration": 125}, {"note": 70, "velocity": 118, "duration": 128}, {"note": 0, "velocity": 0, "duration": 112}, {"note": 68, "velocity": 115, "duration": 163}, {"note": 0, "velocity": 0, "duration": 77}, {"note": 72, "velocity": 115, "duration": 166}, {"note": 0, "velocity": 0, "duration": 74}, {"note": 75, "velocity": 112, "duration": 1281}, {"note": 0, "velocity": 0, "duration": 639}, {"note": 80, "velocity": 112, "duration": 100}, {"note": 0, "velocity": 0, "duration": 140}, {"note": 80, "velocity": 112, "duration": 129}, {"note": 0, "velocity": 0, "duration": 111}, {"note": 82, "velocity": 115, "duration": 134}, {"note": 0, "velocity": 0, "duration": 106}, {"note": 80, "velocity": 118, "duration": 340}, {"note": 0, "velocity": 0, "duration": 140}, {"note": 77, "velocity": 115, "duration": 159}, {"note": 0, "velocity": 0, "duration": 81}, {"note": 80, "velocity": 115, "duration": 480}, {"note": 75, "velocity": 115, "duration": 1200}, {"note": 0, "velocity": 0, "duration": 720}, {"note": 72, "velocity": 106, "duration": 135}, {"note": 0, "velocity": 0, "duration": 105}, {"note": 72, "velocity": 112, "duration": 152}, {"note": 0, "velocity": 0, "duration": 88}, {"note": 75, "velocity": 115, "duration": 147}, {"note": 0, "velocity": 0, "duration": 93}, {"note": 75, "velocity": 115, "duration": 330}, {"note": 0, "velocity": 0, "duration": 150}, {"note": 72, "velocity": 115, "duration": 169}, {"note": 0, "velocity": 0, "duration": 71}, {"note": 75, "velocity": 112, "duration": 131}, {"note": 0, "velocity": 0, "duration": 109}, {"note": 80, "velocity": 112, "duration": 544}, {"note": 0, "velocity": 0, "duration": 176}, {"note": 79, "velocity": 120, "duration": 382}, {"note": 0, "velocity": 0, "duration": 98}, {"note": 77, "velocity": 106, "duration": 674}, {"note": 0, "velocity": 0, "duration": 286}, {"note": 77, "velocity": 109, "duration": 120}, {"note": 0, "velocity": 0, "duration": 120}, {"note": 77, "velocity": 115, "duration": 128}, {"note": 0, "velocity": 0, "duration": 112}, {"note": 75, "velocity": 112, "duration": 171}, {"note": 0, "velocity": 0, "duration": 69}, {"note": 77, "velocity": 112, "duration": 394}, {"note": 0, "velocity": 0, "duration": 86}, {"note": 80, "velocity": 115, "duration": 134}, {"note": 0, "velocity": 0, "duration": 106}, {"note": 79, "velocity": 115, "duration": 445}, {"note": 75, "velocity": 112, "duration": 1610}, {"note": 0, "velocity": 0, "duration": 1510}, {"note": 75, "velocity": 115, "duration": 148}, {"note": 0, "velocity": 0, "duration": 92}, {"note": 77, "velocity": 112, "duration": 134}, {"note": 0, "velocity": 0, "duration": 106}, {"note": 82, "velocity": 118, "duration": 122}, {"note": 0, "velocity": 0, "duration": 118}, {"note": 82, "velocity": 118, "duration": 360}, {"note": 0, "velocity": 0, "duration": 120}, {"note": 80, "velocity": 115, "duration": 142}, {"note": 0, "velocity": 0, "duration": 98}, {"note": 77, "velocity": 112, "duration": 346}, {"note": 0, "velocity": 0, "duration": 134}, {"note": 84, "velocity": 115, "duration": 408}, {"note": 0, "velocity": 0, "duration": 72}, {"note": 82, "velocity": 115, "duration": 1014}, {"note": 0, "velocity": 0, "duration": 426}, {"note": 80, "velocity": 109, "duration": 184}, {"note": 82, "velocity": 121, "duration": 115}, {"note": 0, "velocity": 0, "duration": 125}, {"note": 84, "velocity": 115, "duration": 136}, {"note": 0, "velocity": 0, "duration": 104}, {"note": 87, "velocity": 106, "duration": 138}, {"note": 0, "velocity": 0, "duration": 102}, {"note": 87, "velocity": 106, "duration": 124}, {"note": 0, "velocity": 0, "duration": 116}, {"note": 87, "velocity": 109, "duration": 113}, {"note": 0, "velocity": 0, "duration": 367}, {"note": 87, "velocity": 112, "duration": 240}, {"note": 75, "velocity": 115, "duration": 480}, {"note": 77, "velocity": 106, "duration": 1440}, {"note": 75, "velocity": 115, "duration": 136}, {"note": 0, "velocity": 0, "duration": 104}, {"note": 77, "velocity": 109, "duration": 123}, {"note": 0, "velocity": 0, "duration": 117}, {"note": 82, "velocity": 115, "duration": 120}, {"note": 0, "velocity": 0, "duration": 120}, {"note": 82, "velocity": 118, "duration": 372}, {"note": 0, "velocity": 0, "duration": 108}, {"note": 80, "velocity": 112, "duration": 129}, {"note": 0, "velocity": 0, "duration": 111}, {"note": 77, "velocity": 112, "duration": 338}, {"note": 0, "velocity": 0, "duration": 142}, {"note": 84, "velocity": 115, "duration": 399}, {"note": 0, "velocity": 0, "duration": 81}, {"note": 82, "velocity": 115, "duration": 1012}, {"note": 0, "velocity": 0, "duration": 428}, {"note": 82, "velocity": 115, "duration": 151}, {"note": 0, "velocity": 0, "duration": 89}, {"note": 80, "velocity": 115, "duration": 133}, {"note": 0, "velocity": 0, "duration": 107}, {"note": 85, "velocity": 115, "duration": 310}, {"note": 84, "velocity": 115, "duration": 254}, {"note": 0, "velocity": 0, "duration": 106}, {"note": 80, "velocity": 115, "duration": 159}, {"note": 0, "velocity": 0, "duration": 81}, {"note": 82, "velocity": 115, "duration": 379}, {"note": 0, "velocity": 0, "duration": 101}, {"note": 84, "velocity": 115, "duration": 406}, {"note": 0, "velocity": 0, "duration": 74}, {"note": 75, "velocity": 115, "duration": 1060}, {"note": 0, "velocity": 0, "duration": 380}, {"note": 75, "velocity": 115, "duration": 148}, {"note": 0, "velocity": 0, "duration": 92}, {"note": 77, "velocity": 112, "duration": 134}, {"note": 0, "velocity": 0, "duration": 106}, {"note": 82, "velocity": 118, "duration": 122}, {"note": 0, "velocity": 0, "duration": 118}, {"note": 82, "velocity": 118, "duration": 360}, {"note": 0, "velocity": 0, "duration": 120}, {"note": 80, "velocity": 115, "duration": 142}, {"note": 0, "velocity": 0, "duration": 98}, {"note": 77, "velocity": 112, "duration": 346}, {"note": 0, "velocity": 0, "duration": 134}, {"note": 84, "velocity": 115, "duration": 408}, {"note": 0, "velocity": 0, "duration": 72}, {"note": 82, "velocity": 115, "duration": 1014}, {"note": 0, "velocity": 0, "duration": 426}, {"note": 80, "velocity": 109, "duration": 184}, {"note": 82, "velocity": 121, "duration": 115}, {"note": 0, "velocity": 0, "duration": 125}, {"note": 84, "velocity": 115, "duration": 136}, {"note": 0, "velocity": 0, "duration": 104}, {"note": 87, "velocity": 106, "duration": 138}, {"note": 0, "velocity": 0, "duration": 102}, {"note": 87, "velocity": 106, "duration": 124}, {"note": 0, "velocity": 0, "duration": 116}, {"note": 87, "velocity": 109, "duration": 240}, {"note": 0, "velocity": 0, "duration": 240}, {"note": 87, "velocity": 112, "duration": 240}, {"note": 75, "velocity": 115, "duration": 480}, {"note": 77, "velocity": 106, "duration": 1440}, {"note": 75, "velocity": 115, "duration": 136}, {"note": 0, "velocity": 0, "duration": 104}, {"note": 77, "velocity": 109, "duration": 123}, {"note": 0, "velocity": 0, "duration": 117}, {"note": 82, "velocity": 115, "duration": 120}, {"note": 0, "velocity": 0, "duration": 120}, {"note": 82, "velocity": 118, "duration": 372}, {"note": 0, "velocity": 0, "duration": 108}, {"note": 80, "velocity": 112, "duration": 129}, {"note": 0, "velocity": 0, "duration": 111}, {"note": 77, "velocity": 112, "duration": 338}, {"note": 0, "velocity": 0, "duration": 142}, {"note": 84, "velocity": 115, "duration": 399}, {"note": 0, "velocity": 0, "duration": 81}, {"note": 82, "velocity": 115, "duration": 1012}, {"note": 0, "velocity": 0, "duration": 428}, {"note": 82, "velocity": 115, "duration": 151}, {"note": 0, "velocity": 0, "duration": 89}, {"note": 80, "velocity": 115, "duration": 133}, {"note": 0, "velocity": 0, "duration": 107}, {"note": 85, "velocity": 115, "duration": 720}, {"note": 84, "velocity": 115, "duration": 159}, {"note": 0, "velocity": 0, "duration": 81}, {"note": 80, "velocity": 115, "duration": 379}, {"note": 0, "velocity": 0, "duration": 101}, {"note": 82, "velocity": 115, "duration": 406}, {"note": 0, "velocity": 0, "duration": 74}, {"note": 80, "velocity": 115, "duration": 1060}, {"note": 0, "velocity": 0, "duration": 380}, {"note": 75, "velocity": 115, "duration": 148}, {"note": 0, "velocity": 0, "duration": 92}, {"note": 77, "velocity": 112, "duration": 134}, {"note": 0, "velocity": 0, "duration": 106}, {"note": 82, "velocity": 118, "duration": 122}, {"note": 0, "velocity": 0, "duration": 118}, {"note": 82, "velocity": 118, "duration": 360}, {"note": 0, "velocity": 0, "duration": 120}, {"note": 80, "velocity": 115, "duration": 142}, {"note": 0, "velocity": 0, "duration": 98}, {"note": 77, "velocity": 112, "duration": 346}, {"note": 0, "velocity": 0, "duration": 134}, {"note": 84, "velocity": 115, "duration": 408}, {"note": 0, "velocity": 0, "duration": 72}, {"note": 82, "velocity": 115, "duration": 1014}, {"note": 0, "velocity": 0, "duration": 426}, {"note": 80, "velocity": 109, "duration": 184}, {"note": 82, "velocity": 121, "duration": 115}, {"note": 0, "velocity": 0, "duration": 125}, {"note": 84, "velocity": 115, "duration": 136}, {"note": 0, "velocity": 0, "duration": 104}, {"note": 87, "velocity": 106, "duration": 138}, {"note": 0, "velocity": 0, "duration": 102}, {"note": 87, "velocity": 106, "duration": 124}, {"note": 0, "velocity": 0, "duration": 116}, {"note": 87, "velocity": 109, "duration": 240}, {"note": 0, "velocity": 0, "duration": 240}, {"note": 87, "velocity": 112, "duration": 240}, {"note": 75, "velocity": 115, "duration": 480}, {"note": 77, "velocity": 106, "duration": 1440}, {"note": 75, "velocity": 115, "duration": 136}, {"note": 0, "velocity": 0, "duration": 104}, {"note": 77, "velocity": 109, "duration": 123}, {"note": 0, "velocity": 0, "duration": 117}, {"note": 82, "velocity": 115, "duration": 120}, {"note": 0, "velocity": 0, "duration": 120}, {"note": 82, "velocity": 118, "duration": 372}, {"note": 0, "velocity": 0, "duration": 108}, {"note": 80, "velocity": 112, "duration": 129}, {"note": 0, "velocity": 0, "duration": 111}, {"note": 77, "velocity": 112, "duration": 338}, {"note": 0, "velocity": 0, "duration": 142}, {"note": 84, "velocity": 115, "duration": 399}, {"note": 0, "velocity": 0, "duration": 81}, {"note": 82, "velocity": 115, "duration": 1012}, {"note": 0, "velocity": 0, "duration": 428}, {"note": 82, "velocity": 115, "duration": 151}, {"note": 0, "velocity": 0, "duration": 89}, {"note": 80, "velocity": 115, "duration": 133}, {"note": 0, "velocity": 0, "duration": 107}, {"note": 85, "velocity": 115, "duration": 720}, {"note": 84, "velocity": 115, "duration": 159}, {"note": 0, "velocity": 0, "duration": 81}, {"note": 80, "velocity": 115, "duration": 379}, {"note": 0, "velocity": 0, "duration": 101}, {"note": 82, "velocity": 115, "duration": 406}, {"note": 0, "velocity": 0, "duration": 74}, {"note": 80, "velocity": 115, "duration": 1060}]]