[[{"note": 78, "velocity": 112, "duration": 133}, {"note": 81, "velocity": 97, "duration": 309}, {"note": 81, "velocity": 112, "duration": 171}, {"note": 0, "velocity": 0, "duration": 69}, {"note": 81, "velocity": 112, "duration": 171}, {"note": 0, "velocity": 0, "duration": 69}, {"note": 81, "velocity": 107, "duration": 236}, {"note": 78, "velocity": 112, "duration": 190}, {"note": 76, "velocity": 102, "duration": 325}, {"note": 0, "velocity": 0, "duration": 155}, {"note": 76, "velocity": 112, "duration": 227}, {"note": 81, "velocity": 99, "duration": 214}, {"note": 78, "velocity": 107, "duration": 244}, {"note": 76, "velocity": 102, "duration": 185}, {"note": 76, "velocity": 102, "duration": 278}, {"note": 0, "velocity": 0, "duration": 82}, {"note": 73, "velocity": 107, "duration": 116}, {"note": 71, "velocity": 102, "duration": 279}, {"note": 0, "velocity": 0, "duration": 201}, {"note": 71, "velocity": 102, "duration": 242}, {"note": 73, "velocity": 117, "duration": 241}, {"note": 76, "velocity": 78, "duration": 229}, {"note": 76, "velocity": 100, "duration": 215}, {"note": 71, "velocity": 95, "duration": 116}, {"note": 73, "velocity": 107, "duration": 121}, {"note": 71, "velocity": 107, "duration": 135}, {"note": 69, "velocity": 95, "duration": 89}, {"note": 66, "velocity": 112, "duration": 265}, {"note": 0, "velocity": 0, "duration": 95}, {"note": 66, "velocity": 117, "duration": 114}, {"note": 71, "velocity": 97, "duration": 169}, {"note": 0, "velocity": 0, "duration": 71}, {"note": 71, "velocity": 112, "duration": 101}, {"note": 69, "velocity": 92, "duration": 110}, {"note": 66, "velocity": 97, "duration": 182}, {"note": 66, "velocity": 96, "duration": 62}, {"note": 69, "velocity": 86, "duration": 122}, {"note": 66, "velocity": 107, "duration": 114}, {"note": 64, "velocity": 97, "duration": 519}, {"note": 0, "velocity": 0, "duration": 441}, {"note": 76, "velocity": 95, "duration": 377}, {"note": 0, "velocity": 0, "duration": 103}, {"note": 76, "velocity": 127, "duration": 192}, {"note": 76, "velocity": 112, "duration": 184}, {"note": 73, "velocity": 117, "duration": 266}, {"note": 71, "velocity": 90, "duration": 194}, {"note": 66, "velocity": 99, "duration": 289}, {"note": 64, "velocity": 99, "duration": 78}, {"note": 0, "velocity": 0, "duration": 162}, {"note": 76, "velocity": 112, "duration": 148}, {"note": 0, "velocity": 0, "duration": 92}, {"note": 76, "velocity": 117, "duration": 51}, {"note": 0, "velocity": 0, "duration": 69}, {"note": 76, "velocity": 97, "duration": 62}, {"note": 78, "velocity": 117, "duration": 134}, {"note": 0, "velocity": 0, "duration": 106}, {"note": 76, "velocity": 102, "duration": 116}, {"note": 73, "velocity": 95, "duration": 132}, {"note": 76, "velocity": 99, "duration": 301}, {"note": 78, "velocity": 107, "duration": 113}, {"note": 76, "velocity": 100, "duration": 291}, {"note": 0, "velocity": 0, "duration": 69}, {"note": 66, "velocity": 92, "duration": 115}, {"note": 76, "velocity": 96, "duration": 217}, {"note": 78, "velocity": 96, "duration": 204}, {"note": 81, "velocity": 96, "duration": 187}, {"note": 81, "velocity": 112, "duration": 118}, {"note": 0, "velocity": 0, "duration": 122}, {"note": 78, "velocity": 117, "duration": 112}, {"note": 81, "velocity": 79, "duration": 116}, {"note": 78, "velocity": 107, "duration": 125}, {"note": 76, "velocity": 97, "duration": 122}, {"note": 73, "velocity": 122, "duration": 111}, {"note": 71, "velocity": 85, "duration": 115}, {"note": 69, "velocity": 96, "duration": 86}, {"note": 69, "velocity": 90, "duration": 91}, {"note": 71, "velocity": 102, "duration": 129}, {"note": 0, "velocity": 0, "duration": 111}, {"note": 71, "velocity": 95, "duration": 108}, {"note": 73, "velocity": 99, "duration": 120}, {"note": 71, "velocity": 95, "duration": 115}, {"note": 69, "velocity": 100, "duration": 61}, {"note": 69, "velocity": 102, "duration": 130}, {"note": 0, "velocity": 0, "duration": 110}, {"note": 66, "velocity": 99, "duration": 798}, {"note": 0, "velocity": 0, "duration": 162}, {"note": 69, "velocity": 100, "duration": 370}, {"note": 0, "velocity": 0, "duration": 110}, {"note": 69, "velocity": 99, "duration": 151}, {"note": 0, "velocity": 0, "duration": 89}, {"note": 69, "velocity": 102, "duration": 144}, {"note": 0, "velocity": 0, "duration": 96}, {"note": 69, "velocity": 102, "duration": 147}, {"note": 0, "velocity": 0, "duration": 93}, {"note": 69, "velocity": 100, "duration": 94}, {"note": 66, "velocity": 122, "duration": 111}, {"note": 64, "velocity": 99, "duration": 293}, {"note": 0, "velocity": 0, "duration": 187}, {"note": 76, "velocity": 112, "duration": 182}, {"note": 78, "velocity": 127, "duration": 105}, {"note": 81, "velocity": 96, "duration": 95}, {"note": 78, "velocity": 127, "duration": 162}, {"note": 76, "velocity": 96, "duration": 55}, {"note": 0, "velocity": 0, "duration": 65}, {"note": 76, "velocity": 96, "duration": 119}, {"note": 73, "velocity": 97, "duration": 118}, {"note": 76, "velocity": 97, "duration": 404}, {"note": 73, "velocity": 107, "duration": 131}, {"note": 71, "velocity": 107, "duration": 292}, {"note": 0, "velocity": 0, "duration": 188}, {"note": 71, "velocity": 102, "duration": 244}, {"note": 73, "velocity": 122, "duration": 238}, {"note": 76, "velocity": 100, "duration": 196}, {"note": 76, "velocity": 100, "duration": 137}, {"note": 0, "velocity": 0, "duration": 103}, {"note": 71, "velocity": 122, "duration": 120}, {"note": 73, "velocity": 95, "duration": 137}, {"note": 71, "velocity": 97, "duration": 113}, {"note": 69, "velocity": 97, "duration": 122}, {"note": 66, "velocity": 117, "duration": 288}, {"note": 0, "velocity": 0, "duration": 192}, {"note": 71, "velocity": 117, "duration": 151}, {"note": 0, "velocity": 0, "duration": 89}, {"note": 71, "velocity": 117, "duration": 114}, {"note": 69, "velocity": 95, "duration": 120}, {"note": 66, "velocity": 97, "duration": 177}, {"note": 0, "velocity": 0, "duration": 63}, {"note": 69, "velocity": 100, "duration": 116}, {"note": 66, "velocity": 107, "duration": 109}, {"note": 64, "velocity": 102, "duration": 766}, {"note": 0, "velocity": 0, "duration": 194}, {"note": 76, "velocity": 112, "duration": 358}, {"note": 0, "velocity": 0, "duration": 122}, {"note": 76, "velocity": 117, "duration": 139}, {"note": 0, "velocity": 0, "duration": 101}, {"note": 76, "velocity": 112, "duration": 48}, {"note": 0, "velocity": 0, "duration": 72}, {"note": 76, "velocity": 97, "duration": 73}, {"note": 73, "velocity": 117, "duration": 178}, {"note": 0, "velocity": 0, "duration": 62}, {"note": 73, "velocity": 127, "duration": 107}, {"note": 71, "velocity": 97, "duration": 115}, {"note": 69, "velocity": 96, "duration": 104}, {"note": 66, "velocity": 95, "duration": 117}, {"note": 64, "velocity": 99, "duration": 142}, {"note": 0, "velocity": 0, "duration": 98}, {"note": 76, "velocity": 117, "duration": 158}, {"note": 0, "velocity": 0, "duration": 82}, {"note": 76, "velocity": 122, "duration": 57}, {"note": 0, "velocity": 0, "duration": 63}, {"note": 76, "velocity": 99, "duration": 74}, {"note": 78, "velocity": 117, "duration": 103}, {"note": 76, "velocity": 100, "duration": 47}, {"note": 0, "velocity": 0, "duration": 73}, {"note": 76, "velocity": 93, "duration": 80}, {"note": 73, "velocity": 122, "duration": 145}, {"note": 76, "velocity": 93, "duration": 288}, {"note": 0, "velocity": 0, "duration": 72}, {"note": 78, "velocity": 122, "duration": 109}, {"note": 76, "velocity": 102, "duration": 298}, {"note": 0, "velocity": 0, "duration": 182}, {"note": 76, "velocity": 107, "duration": 235}, {"note": 78, "velocity": 127, "duration": 232}, {"note": 81, "velocity": 100, "duration": 165}, {"note": 0, "velocity": 0, "duration": 75}, {"note": 81, "velocity": 112, "duration": 152}, {"note": 0, "velocity": 0, "duration": 88}, {"note": 78, "velocity": 127, "duration": 111}, {"note": 81, "velocity": 96, "duration": 101}, {"note": 78, "velocity": 117, "duration": 107}, {"note": 78, "velocity": 127, "duration": 107}, {"note": 0, "velocity": 0, "duration": 133}, {"note": 73, "velocity": 100, "duration": 121}, {"note": 71, "velocity": 72, "duration": 96}, {"note": 69, "velocity": 95, "duration": 147}, {"note": 0, "velocity": 0, "duration": 93}, {"note": 71, "velocity": 102, "duration": 203}, {"note": 73, "velocity": 112, "duration": 161}, {"note": 0, "velocity": 0, "duration": 79}, {"note": 71, "velocity": 117, "duration": 126}, {"note": 69, "velocity": 97, "duration": 65}, {"note": 69, "velocity": 102, "duration": 124}, {"note": 66, "velocity": 99, "duration": 140}, {"note": 69, "velocity": 96, "duration": 811}, {"note": 0, "velocity": 0, "duration": 149}, {"note": 81, "velocity": 122, "duration": 370}, {"note": 0, "velocity": 0, "duration": 110}, {"note": 81, "velocity": 117, "duration": 375}, {"note": 0, "velocity": 0, "duration": 105}, {"note": 76, "velocity": 127, "duration": 202}, {"note": 73, "velocity": 127, "duration": 185}, {"note": 76, "velocity": 117, "duration": 304}, {"note": 0, "velocity": 0, "duration": 176}, {"note": 81, "velocity": 127, "duration": 135}, {"note": 0, "velocity": 0, "duration": 105}, {"note": 81, "velocity": 117, "duration": 45}, {"note": 0, "velocity": 0, "duration": 75}, {"note": 81, "velocity": 96, "duration": 63}, {"note": 78, "velocity": 122, "duration": 155}, {"note": 0, "velocity": 0, "duration": 85}, {"note": 76, "velocity": 100, "duration": 128}, {"note": 73, "velocity": 96, "duration": 87}, {"note": 76, "velocity": 100, "duration": 307}, {"note": 78, "velocity": 117, "duration": 114}, {"note": 76, "velocity": 112, "duration": 461}, {"note": 71, "velocity": 107, "duration": 339}, {"note": 73, "velocity": 127, "duration": 143}, {"note": 76, "velocity": 107, "duration": 212}, {"note": 0, "velocity": 0, "duration": 268}, {"note": 66, "velocity": 117, "duration": 236}, {"note": 64, "velocity": 92, "duration": 121}, {"note": 66, "velocity": 102, "duration": 135}, {"note": 69, "velocity": 97, "duration": 285}, {"note": 0, "velocity": 0, "duration": 195}, {"note": 69, "velocity": 100, "duration": 146}, {"note": 0, "velocity": 0, "duration": 94}, {"note": 69, "velocity": 102, "duration": 65}, {"note": 73, "velocity": 127, "duration": 103}, {"note": 71, "velocity": 122, "duration": 88}, {"note": 69, "velocity": 93, "duration": 51}, {"note": 0, "velocity": 0, "duration": 69}, {"note": 69, "velocity": 92, "duration": 88}, {"note": 66, "velocity": 96, "duration": 117}, {"note": 64, "velocity": 102, "duration": 288}, {"note": 0, "velocity": 0, "duration": 72}, {"note": 66, "velocity": 107, "duration": 100}, {"note": 64, "velocity": 99, "duration": 284}, {"note": 0, "velocity": 0, "duration": 196}, {"note": 81, "velocity": 122, "duration": 370}, {"note": 0, "velocity": 0, "duration": 110}, {"note": 81, "velocity": 117, "duration": 375}, {"note": 0, "velocity": 0, "duration": 105}, {"note": 76, "velocity": 127, "duration": 202}, {"note": 73, "velocity": 127, "duration": 185}, {"note": 76, "velocity": 117, "duration": 304}, {"note": 0, "velocity": 0, "duration": 176}, {"note": 81, "velocity": 127, "duration": 135}, {"note": 0, "velocity": 0, "duration": 105}, {"note": 81, "velocity": 117, "duration": 45}, {"note": 0, "velocity": 0, "duration": 75}, {"note": 81, "velocity": 96, "duration": 63}, {"note": 78, "velocity": 127, "duration": 75}, {"note": 76, "velocity": 100, "duration": 76}, {"note": 81, "velocity": 99, "duration": 87}, {"note": 78, "velocity": 117, "duration": 114}, {"note": 76, "velocity": 99, "duration": 373}, {"note": 78, "velocity": 112, "duration": 138}, {"note": 76, "velocity": 112, "duration": 461}, {"note": 71, "velocity": 107, "duration": 339}, {"note": 73, "velocity": 127, "duration": 143}, {"note": 76, "velocity": 100, "duration": 212}, {"note": 76, "velocity": 107, "duration": 212}, {"note": 0, "velocity": 0, "duration": 268}, {"note": 66, "velocity": 117, "duration": 236}, {"note": 64, "velocity": 92, "duration": 121}, {"note": 66, "velocity": 102, "duration": 135}, {"note": 69, "velocity": 97, "duration": 285}, {"note": 0, "velocity": 0, "duration": 195}, {"note": 71, "velocity": 100, "duration": 43}, {"note": 0, "velocity": 0, "duration": 77}, {"note": 71, "velocity": 95, "duration": 34}, {"note": 0, "velocity": 0, "duration": 86}, {"note": 71, "velocity": 112, "duration": 83}, {"note": 69, "velocity": 99, "duration": 100}, {"note": 66, "velocity": 117, "duration": 84}, {"note": 66, "velocity": 107, "duration": 91}, {"note": 69, "velocity": 92, "duration": 110}, {"note": 66, "velocity": 102, "duration": 116}, {"note": 64, "velocity": 99, "duration": 479}, {"note": 0, "velocity": 0, "duration": 10081}, {"note": 78, "velocity": 112, "duration": 133}, {"note": 81, "velocity": 97, "duration": 309}, {"note": 81, "velocity": 112, "duration": 171}, {"note": 0, "velocity": 0, "duration": 69}, {"note": 81, "velocity": 112, "duration": 171}, {"note": 0, "velocity": 0, "duration": 69}, {"note": 81, "velocity": 107, "duration": 236}, {"note": 78, "velocity": 112, "duration": 190}, {"note": 76, "velocity": 102, "duration": 325}, {"note": 0, "velocity": 0, "duration": 155}, {"note": 76, "velocity": 112, "duration": 227}, {"note": 78, "velocity": 112, "duration": 118}, {"note": 81, "velocity": 97, "duration": 83}, {"note": 76, "velocity": 112, "duration": 104}, {"note": 76, "velocity": 95, "duration": 54}, {"note": 0, "velocity": 0, "duration": 66}, {"note": 76, "velocity": 93, "duration": 79}, {"note": 73, "velocity": 112, "duration": 117}, {"note": 76, "velocity": 102, "duration": 296}, {"note": 0, "velocity": 0, "duration": 64}, {"note": 73, "velocity": 107, "duration": 116}, {"note": 71, "velocity": 102, "duration": 279}, {"note": 0, "velocity": 0, "duration": 201}, {"note": 71, "velocity": 102, "duration": 242}, {"note": 73, "velocity": 117, "duration": 241}, {"note": 76, "velocity": 78, "duration": 229}, {"note": 76, "velocity": 100, "duration": 215}, {"note": 71, "velocity": 95, "duration": 116}, {"note": 73, "velocity": 107, "duration": 121}, {"note": 71, "velocity": 107, "duration": 135}, {"note": 69, "velocity": 95, "duration": 89}, {"note": 66, "velocity": 112, "duration": 363}, {"note": 0, "velocity": 0, "duration": 117}, {"note": 71, "velocity": 97, "duration": 169}, {"note": 0, "velocity": 0, "duration": 71}, {"note": 71, "velocity": 112, "duration": 101}, {"note": 69, "velocity": 92, "duration": 110}, {"note": 66, "velocity": 97, "duration": 182}, {"note": 69, "velocity": 86, "duration": 122}, {"note": 66, "velocity": 107, "duration": 114}, {"note": 64, "velocity": 97, "duration": 867}, {"note": 0, "velocity": 0, "duration": 93}, {"note": 76, "velocity": 95, "duration": 377}, {"note": 0, "velocity": 0, "duration": 103}, {"note": 76, "velocity": 127, "duration": 192}, {"note": 76, "velocity": 112, "duration": 184}, {"note": 73, "velocity": 117, "duration": 266}, {"note": 71, "velocity": 90, "duration": 194}, {"note": 66, "velocity": 99, "duration": 289}, {"note": 64, "velocity": 99, "duration": 78}, {"note": 0, "velocity": 0, "duration": 162}, {"note": 76, "velocity": 112, "duration": 148}, {"note": 0, "velocity": 0, "duration": 92}, {"note": 76, "velocity": 117, "duration": 51}, {"note": 0, "velocity": 0, "duration": 69}, {"note": 76, "velocity": 97, "duration": 62}, {"note": 78, "velocity": 117, "duration": 134}, {"note": 0, "velocity": 0, "duration": 106}, {"note": 76, "velocity": 102, "duration": 116}, {"note": 73, "velocity": 95, "duration": 132}, {"note": 76, "velocity": 99, "duration": 323}, {"note": 78, "velocity": 107, "duration": 113}, {"note": 76, "velocity": 100, "duration": 291}, {"note": 0, "velocity": 0, "duration": 69}, {"note": 66, "velocity": 92, "duration": 115}, {"note": 76, "velocity": 96, "duration": 217}, {"note": 78, "velocity": 96, "duration": 204}, {"note": 81, "velocity": 96, "duration": 187}, {"note": 81, "velocity": 112, "duration": 118}, {"note": 0, "velocity": 0, "duration": 122}, {"note": 78, "velocity": 117, "duration": 112}, {"note": 81, "velocity": 79, "duration": 116}, {"note": 78, "velocity": 107, "duration": 125}, {"note": 76, "velocity": 97, "duration": 122}, {"note": 73, "velocity": 122, "duration": 111}, {"note": 71, "velocity": 85, "duration": 115}, {"note": 69, "velocity": 96, "duration": 86}, {"note": 0, "velocity": 0, "duration": 154}, {"note": 71, "velocity": 102, "duration": 129}, {"note": 0, "velocity": 0, "duration": 111}, {"note": 71, "velocity": 95, "duration": 108}, {"note": 73, "velocity": 99, "duration": 120}, {"note": 71, "velocity": 95, "duration": 115}, {"note": 69, "velocity": 97, "duration": 59}, {"note": 0, "velocity": 0, "duration": 61}, {"note": 69, "velocity": 96, "duration": 75}, {"note": 66, "velocity": 102, "duration": 98}, {"note": 69, "velocity": 99, "duration": 960}, {"note": 81, "velocity": 122, "duration": 370}, {"note": 0, "velocity": 0, "duration": 110}, {"note": 81, "velocity": 117, "duration": 574}, {"note": 76, "velocity": 127, "duration": 202}, {"note": 73, "velocity": 127, "duration": 185}, {"note": 76, "velocity": 117, "duration": 304}, {"note": 0, "velocity": 0, "duration": 176}, {"note": 81, "velocity": 127, "duration": 135}, {"note": 0, "velocity": 0, "duration": 105}, {"note": 81, "velocity": 117, "duration": 45}, {"note": 0, "velocity": 0, "duration": 75}, {"note": 81, "velocity": 96, "duration": 63}, {"note": 78, "velocity": 122, "duration": 155}, {"note": 0, "velocity": 0, "duration": 85}, {"note": 76, "velocity": 100, "duration": 128}, {"note": 73, "velocity": 96, "duration": 87}, {"note": 76, "velocity": 100, "duration": 354}, {"note": 78, "velocity": 117, "duration": 114}, {"note": 76, "velocity": 112, "duration": 461}, {"note": 71, "velocity": 107, "duration": 339}, {"note": 73, "velocity": 127, "duration": 143}, {"note": 76, "velocity": 107, "duration": 212}, {"note": 0, "velocity": 0, "duration": 268}, {"note": 66, "velocity": 117, "duration": 236}, {"note": 64, "velocity": 92, "duration": 121}, {"note": 66, "velocity": 102, "duration": 135}, {"note": 69, "velocity": 97, "duration": 480}, {"note": 69, "velocity": 100, "duration": 146}, {"note": 0, "velocity": 0, "duration": 94}, {"note": 69, "velocity": 102, "duration": 65}, {"note": 73, "velocity": 127, "duration": 103}, {"note": 71, "velocity": 122, "duration": 88}, {"note": 69, "velocity": 93, "duration": 51}, {"note": 0, "velocity": 0, "duration": 69}, {"note": 69, "velocity": 92, "duration": 88}, {"note": 66, "velocity": 96, "duration": 117}, {"note": 64, "velocity": 102, "duration": 304}, {"note": 66, "velocity": 107, "duration": 100}, {"note": 64, "velocity": 99, "duration": 480}, {"note": 81, "velocity": 122, "duration": 370}, {"note": 0, "velocity": 0, "duration": 110}, {"note": 81, "velocity": 117, "duration": 375}, {"note": 0, "velocity": 0, "duration": 105}, {"note": 76, "velocity": 127, "duration": 202}, {"note": 73, "velocity": 127, "duration": 185}, {"note": 76, "velocity": 117, "duration": 304}, {"note": 0, "velocity": 0, "duration": 176}, {"note": 81, "velocity": 127, "duration": 135}, {"note": 0, "velocity": 0, "duration": 105}, {"note": 81, "velocity": 117, "duration": 45}, {"note": 0, "velocity": 0, "duration": 75}, {"note": 81, "velocity": 96, "duration": 63}, {"note": 78, "velocity": 127, "duration": 75}, {"note": 76, "velocity": 100, "duration": 76}, {"note": 81, "velocity": 99, "duration": 87}, {"note": 78, "velocity": 117, "duration": 114}, {"note": 76, "velocity": 99, "duration": 373}, {"note": 78, "velocity": 112, "duration": 138}, {"note": 76, "velocity": 112, "duration": 461}, {"note": 71, "velocity": 107, "duration": 339}, {"note": 73, "velocity": 127, "duration": 143}, {"note": 76, "velocity": 100, "duration": 212}, {"note": 76, "velocity": 107, "duration": 212}, {"note": 0, "velocity": 0, "duration": 268}, {"note": 66, "velocity": 117, "duration": 190}, {"note": 64, "velocity": 92, "duration": 121}, {"note": 66, "velocity": 102, "duration": 135}, {"note": 69, "velocity": 105, "duration": 480}, {"note": 71, "velocity": 100, "duration": 43}, {"note": 0, "velocity": 0, "duration": 77}, {"note": 71, "velocity": 95, "duration": 34}, {"note": 0, "velocity": 0, "duration": 86}, {"note": 71, "velocity": 112, "duration": 83}, {"note": 69, "velocity": 99, "duration": 100}, {"note": 66, "velocity": 117, "duration": 84}, {"note": 64, "velocity": 107, "duration": 91}, {"note": 69, "velocity": 92, "duration": 110}, {"note": 66, "velocity": 102, "duration": 116}, {"note": 64, "velocity": 99, "duration": 479}, {"note": 0, "velocity": 0, "duration": 481}, {"note": 81, "velocity": 122, "duration": 370}, {"note": 0, "velocity": 0, "duration": 110}, {"note": 81, "velocity": 117, "duration": 574}, {"note": 76, "velocity": 127, "duration": 202}, {"note": 73, "velocity": 127, "duration": 185}, {"note": 76, "velocity": 117, "duration": 304}, {"note": 0, "velocity": 0, "duration": 176}, {"note": 81, "velocity": 127, "duration": 135}, {"note": 0, "velocity": 0, "duration": 105}, {"note": 81, "velocity": 117, "duration": 45}, {"note": 0, "velocity": 0, "duration": 75}, {"note": 81, "velocity": 96, "duration": 63}, {"note": 78, "velocity": 122, "duration": 155}, {"note": 0, "velocity": 0, "duration": 85}, {"note": 76, "velocity": 100, "duration": 128}, {"note": 73, "velocity": 96, "duration": 87}, {"note": 76, "velocity": 100, "duration": 354}, {"note": 78, "velocity": 117, "duration": 114}, {"note": 76, "velocity": 112, "duration": 461}, {"note": 71, "velocity": 107, "duration": 339}, {"note": 73, "velocity": 127, "duration": 143}, {"note": 76, "velocity": 107, "duration": 212}, {"note": 0, "velocity": 0, "duration": 268}, {"note": 66, "velocity": 117, "duration": 236}, {"note": 64, "velocity": 92, "duration": 121}, {"note": 66, "velocity": 102, "duration": 135}, {"note": 69, "velocity": 97, "duration": 480}, {"note": 69, "velocity": 100, "duration": 146}, {"note": 0, "velocity": 0, "duration": 94}, {"note": 69, "velocity": 102, "duration": 65}, {"note": 73, "velocity": 127, "duration": 103}, {"note": 71, "velocity": 122, "duration": 88}, {"note": 69, "velocity": 93, "duration": 51}, {"note": 0, "velocity": 0, "duration": 69}, {"note": 69, "velocity": 92, "duration": 88}, {"note": 66, "velocity": 96, "duration": 117}, {"note": 64, "velocity": 102, "duration": 304}, {"note": 66, "velocity": 107, "duration": 100}, {"note": 64, "velocity": 99, "duration": 480}, {"note": 81, "velocity": 122, "duration": 370}, {"note": 0, "velocity": 0, "duration": 110}, {"note": 81, "velocity": 117, "duration": 375}, {"note": 0, "velocity": 0, "duration": 105}, {"note": 76, "velocity": 127, "duration": 202}, {"note": 73, "velocity": 127, "duration": 185}, {"note": 76, "velocity": 117, "duration": 304}, {"note": 0, "velocity": 0, "duration": 176}, {"note": 81, "velocity": 127, "duration": 135}, {"note": 0, "velocity": 0, "duration": 105}, {"note": 81, "velocity": 117, "duration": 45}, {"note": 0, "velocity": 0, "duration": 75}, {"note": 81, "velocity": 96, "duration": 63}, {"note": 78, "velocity": 127, "duration": 75}, {"note": 76, "velocity": 100, "duration": 76}, {"note": 81, "velocity": 99, "duration": 87}, {"note": 78, "velocity": 117, "duration": 114}, {"note": 76, "velocity": 99, "duration": 373}, {"note": 78, "velocity": 112, "duration": 138}, {"note": 76, "velocity": 112, "duration": 461}, {"note": 71, "velocity": 107, "duration": 339}, {"note": 73, "velocity": 127, "duration": 143}, {"note": 76, "velocity": 100, "duration": 212}, {"note": 76, "velocity": 107, "duration": 212}, {"note": 0, "velocity": 0, "duration": 268}, {"note": 66, "velocity": 117, "duration": 190}, {"note": 64, "velocity": 92, "duration": 121}, {"note": 66, "velocity": 102, "duration": 135}, {"note": 69, "velocity": 105, "duration": 480}, {"note": 71, "velocity": 100, "duration": 43}, {"note": 0, "velocity": 0, "duration": 77}, {"note": 71, "velocity": 95, "duration": 34}, {"note": 0, "velocity": 0, "duration": 86}, {"note": 71, "velocity": 112, "duration": 83}, {"note": 69, "velocity": 99, "duration": 100}, {"note": 66, "velocity": 117, "duration": 84}, {"note": 64, "velocity": 107, "duration": 91}, {"note": 69, "velocity": 92, "duration": 110}, {"note": 66, "velocity": 102, "duration": 116}, {"note": 64, "velocity": 99, "duration": 479}, {"note": 0, "velocity": 0, "duration": 481}, {"note": 71, "velocity": 107, "duration": 339}, {"note": 73, "velocity": 127, "duration": 143}, {"note": 76, "velocity": 100, "duration": 212}, {"note": 76, "velocity": 107, "duration": 212}, {"note": 0, "velocity": 0, "duration": 268}, {"note": 66, "velocity": 117, "duration": 190}, {"note": 64, "velocity": 92, "duration": 121}, {"note": 66, "velocity": 102, "duration": 135}, {"note": 69, "velocity": 105, "duration": 480}, {"note": 0, "velocity": 0, "duration": 240}, {"note": 83, "velocity": 102, "duration": 137}, {"note": 0, "velocity": 0, "duration": 103}, {"note": 83, "velocity": 117, "duration": 262}, {"note": 81, "velocity": 122, "duration": 315}, {"note": 78, "velocity": 127, "duration": 264}, {"note": 76, "velocity": 112, "duration": 262}, {"note": 81, "velocity": 100, "duration": 382}, {"note": 78, "velocity": 112, "duration": 545}, {"note": 78, "velocity": 127, "duration": 65}, {"note": 76, "velocity": 85, "duration": 1966}]]