[[{"note": 71, "velocity": 107, "duration": 138}, {"note": 69, "velocity": 107, "duration": 79}, {"note": 71, "velocity": 107, "duration": 143}, {"note": 69, "velocity": 107, "duration": 53}, {"note": 71, "velocity": 107, "duration": 217}, {"note": 69, "velocity": 107, "duration": 149}, {"note": 71, "velocity": 107, "duration": 77}, {"note": 0, "velocity": 0, "duration": 72}, {"note": 74, "velocity": 107, "duration": 228}, {"note": 73, "velocity": 107, "duration": 200}, {"note": 71, "velocity": 107, "duration": 147}, {"note": 69, "velocity": 107, "duration": 47}, {"note": 0, "velocity": 0, "duration": 480}, {"note": 71, "velocity": 107, "duration": 140}, {"note": 69, "velocity": 107, "duration": 74}, {"note": 71, "velocity": 107, "duration": 86}, {"note": 69, "velocity": 107, "duration": 96}, {"note": 71, "velocity": 107, "duration": 251}, {"note": 69, "velocity": 107, "duration": 157}, {"note": 71, "velocity": 107, "duration": 287}, {"note": 0, "velocity": 0, "duration": 73}, {"note": 74, "velocity": 107, "duration": 262}, {"note": 76, "velocity": 107, "duration": 230}, {"note": 78, "velocity": 107, "duration": 239}, {"note": 73, "velocity": 107, "duration": 412}, {"note": 0, "velocity": 0, "duration": 1028}, {"note": 71, "velocity": 107, "duration": 206}, {"note": 73, "velocity": 107, "duration": 144}, {"note": 0, "velocity": 0, "duration": 96}, {"note": 74, "velocity": 107, "duration": 605}, {"note": 83, "velocity": 107, "duration": 249}, {"note": 81, "velocity": 107, "duration": 151}, {"note": 78, "velocity": 107, "duration": 264}, {"note": 0, "velocity": 0, "duration": 112}, {"note": 76, "velocity": 107, "duration": 738}, {"note": 76, "velocity": 107, "duration": 34}, {"note": 0, "velocity": 0, "duration": 446}, {"note": 81, "velocity": 107, "duration": 240}, {"note": 78, "velocity": 107, "duration": 59}, {"note": 0, "velocity": 0, "duration": 61}, {"note": 76, "velocity": 107, "duration": 212}, {"note": 74, "velocity": 107, "duration": 468}, {"note": 0, "velocity": 0, "duration": 372}, {"note": 71, "velocity": 107, "duration": 364}, {"note": 0, "velocity": 0, "duration": 116}, {"note": 78, "velocity": 107, "duration": 273}, {"note": 73, "velocity": 107, "duration": 526}, {"note": 0, "velocity": 0, "duration": 194}, {"note": 69, "velocity": 107, "duration": 216}, {"note": 71, "velocity": 107, "duration": 63}, {"note": 71, "velocity": 107, "duration": 360}, {"note": 0, "velocity": 0, "duration": 1680}, {"note": 71, "velocity": 107, "duration": 125}, {"note": 69, "velocity": 107, "duration": 108}, {"note": 71, "velocity": 107, "duration": 139}, {"note": 69, "velocity": 107, "duration": 124}, {"note": 71, "velocity": 107, "duration": 269}, {"note": 69, "velocity": 107, "duration": 170}, {"note": 71, "velocity": 107, "duration": 202}, {"note": 74, "velocity": 107, "duration": 345}, {"note": 73, "velocity": 107, "duration": 219}, {"note": 71, "velocity": 107, "duration": 155}, {"note": 69, "velocity": 107, "duration": 1504}, {"note": 0, "velocity": 0, "duration": 536}, {"note": 71, "velocity": 107, "duration": 136}, {"note": 69, "velocity": 107, "duration": 115}, {"note": 71, "velocity": 107, "duration": 140}, {"note": 69, "velocity": 108, "duration": 153}, {"note": 71, "velocity": 108, "duration": 234}, {"note": 69, "velocity": 108, "duration": 171}, {"note": 71, "velocity": 108, "duration": 223}, {"note": 74, "velocity": 112, "duration": 312}, {"note": 76, "velocity": 112, "duration": 215}, {"note": 78, "velocity": 112, "duration": 131}, {"note": 0, "velocity": 0, "duration": 125}, {"note": 73, "velocity": 112, "duration": 803}, {"note": 0, "velocity": 0, "duration": 621}, {"note": 71, "velocity": 110, "duration": 184}, {"note": 73, "velocity": 110, "duration": 148}, {"note": 0, "velocity": 0, "duration": 92}, {"note": 74, "velocity": 110, "duration": 259}, {"note": 0, "velocity": 0, "duration": 221}, {"note": 83, "velocity": 110, "duration": 285}, {"note": 81, "velocity": 110, "duration": 76}, {"note": 78, "velocity": 109, "duration": 220}, {"note": 76, "velocity": 109, "duration": 649}, {"note": 0, "velocity": 0, "duration": 191}, {"note": 76, "velocity": 109, "duration": 365}, {"note": 0, "velocity": 0, "duration": 115}, {"note": 81, "velocity": 109, "duration": 225}, {"note": 78, "velocity": 109, "duration": 78}, {"note": 76, "velocity": 109, "duration": 231}, {"note": 74, "velocity": 109, "duration": 695}, {"note": 0, "velocity": 0, "duration": 145}, {"note": 71, "velocity": 109, "duration": 369}, {"note": 0, "velocity": 0, "duration": 111}, {"note": 78, "velocity": 109, "duration": 170}, {"note": 0, "velocity": 0, "duration": 190}, {"note": 73, "velocity": 110, "duration": 348}, {"note": 0, "velocity": 0, "duration": 252}, {"note": 69, "velocity": 110, "duration": 173}, {"note": 71, "velocity": 110, "duration": 178}, {"note": 0, "velocity": 0, "duration": 62}, {"note": 71, "velocity": 110, "duration": 894}, {"note": 0, "velocity": 0, "duration": 666}, {"note": 74, "velocity": 111, "duration": 182}, {"note": 73, "velocity": 111, "duration": 189}, {"note": 71, "velocity": 111, "duration": 379}, {"note": 0, "velocity": 0, "duration": 101}, {"note": 83, "velocity": 111, "duration": 264}, {"note": 0, "velocity": 0, "duration": 207}, {"note": 81, "velocity": 108, "duration": 233}, {"note": 76, "velocity": 112, "duration": 97}, {"note": 78, "velocity": 112, "duration": 140}, {"note": 0, "velocity": 0, "duration": 100}, {"note": 79, "velocity": 112, "duration": 216}, {"note": 0, "velocity": 0, "duration": 144}, {"note": 78, "velocity": 112, "duration": 133}, {"note": 0, "velocity": 0, "duration": 107}, {"note": 79, "velocity": 112, "duration": 159}, {"note": 0, "velocity": 0, "duration": 81}, {"note": 78, "velocity": 112, "duration": 201}, {"note": 76, "velocity": 112, "duration": 252}, {"note": 0, "velocity": 0, "duration": 108}, {"note": 74, "velocity": 112, "duration": 416}, {"note": 0, "velocity": 0, "duration": 64}, {"note": 74, "velocity": 112, "duration": 187}, {"note": 73, "velocity": 112, "duration": 185}, {"note": 71, "velocity": 112, "duration": 400}, {"note": 0, "velocity": 0, "duration": 80}, {"note": 83, "velocity": 112, "duration": 385}, {"note": 0, "velocity": 0, "duration": 95}, {"note": 81, "velocity": 112, "duration": 193}, {"note": 76, "velocity": 112, "duration": 84}, {"note": 78, "velocity": 112, "duration": 69}, {"note": 0, "velocity": 0, "duration": 171}, {"note": 79, "velocity": 112, "duration": 223}, {"note": 0, "velocity": 0, "duration": 137}, {"note": 78, "velocity": 112, "duration": 690}, {"note": 0, "velocity": 0, "duration": 750}, {"note": 74, "velocity": 112, "duration": 182}, {"note": 73, "velocity": 112, "duration": 207}, {"note": 71, "velocity": 112, "duration": 337}, {"note": 0, "velocity": 0, "duration": 143}, {"note": 81, "velocity": 112, "duration": 365}, {"note": 0, "velocity": 0, "duration": 115}, {"note": 79, "velocity": 112, "duration": 182}, {"note": 76, "velocity": 112, "duration": 61}, {"note": 78, "velocity": 112, "duration": 149}, {"note": 0, "velocity": 0, "duration": 91}, {"note": 79, "velocity": 112, "duration": 223}, {"note": 0, "velocity": 0, "duration": 137}, {"note": 81, "velocity": 112, "duration": 260}, {"note": 78, "velocity": 112, "duration": 85}, {"note": 81, "velocity": 112, "duration": 158}, {"note": 0, "velocity": 0, "duration": 82}, {"note": 85, "velocity": 112, "duration": 201}, {"note": 0, "velocity": 0, "duration": 159}, {"note": 86, "velocity": 112, "duration": 449}, {"note": 83, "velocity": 112, "duration": 274}, {"note": 81, "velocity": 112, "duration": 162}, {"note": 76, "velocity": 112, "duration": 461}, {"note": 0, "velocity": 0, "duration": 139}, {"note": 83, "velocity": 112, "duration": 252}, {"note": 81, "velocity": 112, "duration": 151}, {"note": 76, "velocity": 112, "duration": 494}, {"note": 0, "velocity": 0, "duration": 106}, {"note": 73, "velocity": 112, "duration": 225}, {"note": 74, "velocity": 112, "duration": 152}, {"note": 73, "velocity": 112, "duration": 417}, {"note": 71, "velocity": 112, "duration": 1115}, {"note": 0, "velocity": 0, "duration": 15925}, {"note": 71, "velocity": 108, "duration": 125}, {"note": 69, "velocity": 108, "duration": 108}, {"note": 71, "velocity": 108, "duration": 139}, {"note": 69, "velocity": 108, "duration": 124}, {"note": 71, "velocity": 108, "duration": 269}, {"note": 69, "velocity": 108, "duration": 170}, {"note": 71, "velocity": 108, "duration": 202}, {"note": 74, "velocity": 108, "duration": 345}, {"note": 73, "velocity": 109, "duration": 219}, {"note": 71, "velocity": 109, "duration": 155}, {"note": 69, "velocity": 109, "duration": 1504}, {"note": 0, "velocity": 0, "duration": 536}, {"note": 71, "velocity": 109, "duration": 136}, {"note": 69, "velocity": 109, "duration": 115}, {"note": 71, "velocity": 109, "duration": 140}, {"note": 69, "velocity": 109, "duration": 153}, {"note": 71, "velocity": 109, "duration": 234}, {"note": 69, "velocity": 109, "duration": 171}, {"note": 71, "velocity": 109, "duration": 223}, {"note": 74, "velocity": 109, "duration": 312}, {"note": 76, "velocity": 109, "duration": 215}, {"note": 78, "velocity": 109, "duration": 131}, {"note": 0, "velocity": 0, "duration": 125}, {"note": 73, "velocity": 109, "duration": 803}, {"note": 0, "velocity": 0, "duration": 621}, {"note": 71, "velocity": 109, "duration": 184}, {"note": 73, "velocity": 108, "duration": 148}, {"note": 0, "velocity": 0, "duration": 92}, {"note": 74, "velocity": 108, "duration": 259}, {"note": 0, "velocity": 0, "duration": 221}, {"note": 83, "velocity": 106, "duration": 285}, {"note": 81, "velocity": 105, "duration": 76}, {"note": 78, "velocity": 105, "duration": 220}, {"note": 76, "velocity": 104, "duration": 649}, {"note": 0, "velocity": 0, "duration": 191}, {"note": 76, "velocity": 101, "duration": 365}, {"note": 0, "velocity": 0, "duration": 115}, {"note": 81, "velocity": 98, "duration": 225}, {"note": 78, "velocity": 97, "duration": 78}, {"note": 76, "velocity": 96, "duration": 231}, {"note": 74, "velocity": 96, "duration": 695}, {"note": 0, "velocity": 0, "duration": 145}, {"note": 71, "velocity": 99, "duration": 369}, {"note": 0, "velocity": 0, "duration": 111}, {"note": 78, "velocity": 99, "duration": 170}, {"note": 0, "velocity": 0, "duration": 190}, {"note": 73, "velocity": 99, "duration": 348}, {"note": 0, "velocity": 0, "duration": 252}, {"note": 69, "velocity": 99, "duration": 173}, {"note": 71, "velocity": 99, "duration": 178}, {"note": 0, "velocity": 0, "duration": 62}, {"note": 71, "velocity": 98, "duration": 894}, {"note": 0, "velocity": 0, "duration": 666}, {"note": 74, "velocity": 96, "duration": 182}, {"note": 73, "velocity": 95, "duration": 189}, {"note": 71, "velocity": 95, "duration": 379}, {"note": 0, "velocity": 0, "duration": 101}, {"note": 83, "velocity": 94, "duration": 264}, {"note": 0, "velocity": 0, "duration": 211}, {"note": 81, "velocity": 100, "duration": 159}, {"note": 0, "velocity": 0, "duration": 86}, {"note": 76, "velocity": 92, "duration": 97}, {"note": 78, "velocity": 92, "duration": 140}, {"note": 0, "velocity": 0, "duration": 100}, {"note": 79, "velocity": 91, "duration": 216}, {"note": 0, "velocity": 0, "duration": 144}, {"note": 78, "velocity": 91, "duration": 133}, {"note": 0, "velocity": 0, "duration": 107}, {"note": 79, "velocity": 91, "duration": 159}, {"note": 0, "velocity": 0, "duration": 81}, {"note": 78, "velocity": 91, "duration": 201}, {"note": 76, "velocity": 91, "duration": 252}, {"note": 0, "velocity": 0, "duration": 108}, {"note": 74, "velocity": 91, "duration": 416}, {"note": 0, "velocity": 0, "duration": 64}, {"note": 74, "velocity": 91, "duration": 187}, {"note": 73, "velocity": 91, "duration": 185}, {"note": 71, "velocity": 90, "duration": 400}, {"note": 0, "velocity": 0, "duration": 80}, {"note": 83, "velocity": 90, "duration": 385}, {"note": 0, "velocity": 0, "duration": 95}, {"note": 81, "velocity": 90, "duration": 193}, {"note": 76, "velocity": 89, "duration": 84}, {"note": 78, "velocity": 89, "duration": 69}, {"note": 0, "velocity": 0, "duration": 171}, {"note": 79, "velocity": 89, "duration": 223}, {"note": 0, "velocity": 0, "duration": 137}, {"note": 78, "velocity": 89, "duration": 690}, {"note": 0, "velocity": 0, "duration": 750}, {"note": 74, "velocity": 91, "duration": 182}, {"note": 73, "velocity": 91, "duration": 207}, {"note": 71, "velocity": 92, "duration": 337}, {"note": 0, "velocity": 0, "duration": 143}, {"note": 81, "velocity": 93, "duration": 365}, {"note": 0, "velocity": 0, "duration": 115}, {"note": 79, "velocity": 94, "duration": 182}, {"note": 76, "velocity": 94, "duration": 61}, {"note": 78, "velocity": 94, "duration": 149}, {"note": 0, "velocity": 0, "duration": 91}, {"note": 79, "velocity": 94, "duration": 223}, {"note": 0, "velocity": 0, "duration": 137}, {"note": 81, "velocity": 94, "duration": 260}, {"note": 78, "velocity": 94, "duration": 85}, {"note": 81, "velocity": 94, "duration": 158}, {"note": 0, "velocity": 0, "duration": 82}, {"note": 85, "velocity": 94, "duration": 201}, {"note": 0, "velocity": 0, "duration": 159}, {"note": 86, "velocity": 94, "duration": 449}, {"note": 83, "velocity": 94, "duration": 274}, {"note": 81, "velocity": 94, "duration": 162}, {"note": 76, "velocity": 94, "duration": 461}, {"note": 0, "velocity": 0, "duration": 139}, {"note": 83, "velocity": 94, "duration": 252}, {"note": 81, "velocity": 94, "duration": 151}, {"note": 76, "velocity": 94, "duration": 494}, {"note": 0, "velocity": 0, "duration": 106}, {"note": 73, "velocity": 94, "duration": 225}, {"note": 74, "velocity": 94, "duration": 152}, {"note": 73, "velocity": 94, "duration": 417}, {"note": 71, "velocity": 94, "duration": 1115}, {"note": 0, "velocity": 0, "duration": 85}, {"note": 74, "velocity": 95, "duration": 219}, {"note": 73, "velocity": 95, "duration": 249}, {"note": 71, "velocity": 96, "duration": 370}, {"note": 0, "velocity": 0, "duration": 110}, {"note": 83, "velocity": 96, "duration": 454}, {"note": 81, "velocity": 96, "duration": 266}, {"note": 76, "velocity": 96, "duration": 89}, {"note": 78, "velocity": 96, "duration": 193}, {"note": 79, "velocity": 96, "duration": 259}, {"note": 0, "velocity": 0, "duration": 101}, {"note": 78, "velocity": 96, "duration": 169}, {"note": 0, "velocity": 0, "duration": 71}, {"note": 79, "velocity": 96, "duration": 240}, {"note": 78, "velocity": 97, "duration": 192}, {"note": 76, "velocity": 98, "duration": 323}, {"note": 74, "velocity": 98, "duration": 376}, {"note": 0, "velocity": 0, "duration": 104}, {"note": 74, "velocity": 99, "duration": 232}, {"note": 73, "velocity": 99, "duration": 243}, {"note": 71, "velocity": 99, "duration": 443}, {"note": 83, "velocity": 99, "duration": 359}, {"note": 0, "velocity": 0, "duration": 121}, {"note": 81, "velocity": 99, "duration": 198}, {"note": 76, "velocity": 99, "duration": 75}, {"note": 78, "velocity": 99, "duration": 155}, {"note": 0, "velocity": 0, "duration": 85}, {"note": 79, "velocity": 99, "duration": 263}, {"note": 0, "velocity": 0, "duration": 97}, {"note": 78, "velocity": 99, "duration": 1020}, {"note": 0, "velocity": 0, "duration": 420}, {"note": 74, "velocity": 99, "duration": 305}, {"note": 73, "velocity": 99, "duration": 222}, {"note": 71, "velocity": 99, "duration": 297}, {"note": 0, "velocity": 0, "duration": 183}, {"note": 83, "velocity": 99, "duration": 328}, {"note": 0, "velocity": 0, "duration": 152}, {"note": 81, "velocity": 99, "duration": 123}, {"note": 0, "velocity": 0, "duration": 117}, {"note": 76, "velocity": 99, "duration": 99}, {"note": 78, "velocity": 99, "duration": 156}, {"note": 0, "velocity": 0, "duration": 84}, {"note": 79, "velocity": 99, "duration": 212}, {"note": 0, "velocity": 0, "duration": 148}, {"note": 81, "velocity": 99, "duration": 256}, {"note": 78, "velocity": 99, "duration": 76}, {"note": 81, "velocity": 99, "duration": 75}, {"note": 0, "velocity": 0, "duration": 165}, {"note": 85, "velocity": 99, "duration": 182}, {"note": 86, "velocity": 99, "duration": 591}, {"note": 83, "velocity": 99, "duration": 259}, {"note": 81, "velocity": 99, "duration": 141}, {"note": 76, "velocity": 99, "duration": 431}, {"note": 0, "velocity": 0, "duration": 169}, {"note": 83, "velocity": 100, "duration": 245}, {"note": 81, "velocity": 100, "duration": 146}, {"note": 76, "velocity": 101, "duration": 468}, {"note": 73, "velocity": 101, "duration": 257}, {"note": 74, "velocity": 101, "duration": 168}, {"note": 0, "velocity": 0, "duration": 72}, {"note": 73, "velocity": 101, "duration": 329}, {"note": 71, "velocity": 101, "duration": 869}, {"note": 0, "velocity": 0, "duration": 451}, {"note": 83, "velocity": 106, "duration": 280}, {"note": 81, "velocity": 86, "duration": 150}, {"note": 76, "velocity": 86, "duration": 294}, {"note": 0, "velocity": 0, "duration": 306}, {"note": 83, "velocity": 71, "duration": 252}, {"note": 81, "velocity": 69, "duration": 138}, {"note": 76, "velocity": 69, "duration": 507}, {"note": 0, "velocity": 0, "duration": 93}, {"note": 85, "velocity": 67, "duration": 175}, {"note": 0, "velocity": 0, "duration": 65}, {"note": 86, "velocity": 65, "duration": 71}, {"note": 85, "velocity": 64, "duration": 408}, {"note": 0, "velocity": 0, "duration": 72}, {"note": 83, "velocity": 64, "duration": 1589}]]