[[{"note": 75, "velocity": 90, "duration": 480}, {"note": 74, "velocity": 85, "duration": 480}, {"note": 70, "velocity": 83, "duration": 480}, {"note": 72, "velocity": 89, "duration": 1920}, {"note": 67, "velocity": 72, "duration": 266}, {"note": 65, "velocity": 76, "duration": 240}, {"note": 63, "velocity": 65, "duration": 480}, {"note": 65, "velocity": 66, "duration": 480}, {"note": 70, "velocity": 79, "duration": 480}, {"note": 67, "velocity": 94, "duration": 2399}, {"note": 67, "velocity": 106, "duration": 960}, {"note": 70, "velocity": 105, "duration": 480}, {"note": 67, "velocity": 95, "duration": 480}, {"note": 65, "velocity": 92, "duration": 1440}, {"note": 72, "velocity": 90, "duration": 239}, {"note": 72, "velocity": 90, "duration": 240}, {"note": 70, "velocity": 90, "duration": 507}, {"note": 72, "velocity": 91, "duration": 480}, {"note": 74, "velocity": 93, "duration": 480}, {"note": 70, "velocity": 64, "duration": 240}, {"note": 67, "velocity": 52, "duration": 2160}, {"note": 75, "velocity": 101, "duration": 509}, {"note": 74, "velocity": 94, "duration": 480}, {"note": 70, "velocity": 87, "duration": 498}, {"note": 72, "velocity": 91, "duration": 1920}, {"note": 67, "velocity": 93, "duration": 286}, {"note": 65, "velocity": 84, "duration": 240}, {"note": 63, "velocity": 81, "duration": 483}, {"note": 65, "velocity": 73, "duration": 483}, {"note": 70, "velocity": 87, "duration": 480}, {"note": 67, "velocity": 95, "duration": 1920}, {"note": 63, "velocity": 87, "duration": 240}, {"note": 65, "velocity": 86, "duration": 271}, {"note": 67, "velocity": 89, "duration": 973}, {"note": 70, "velocity": 90, "duration": 480}, {"note": 67, "velocity": 90, "duration": 498}, {"note": 65, "velocity": 87, "duration": 960}, {"note": 63, "velocity": 90, "duration": 480}, {"note": 62, "velocity": 68, "duration": 479}, {"note": 62, "velocity": 66, "duration": 360}, {"note": 60, "velocity": 63, "duration": 3480}, {"note": 75, "velocity": 96, "duration": 480}, {"note": 74, "velocity": 93, "duration": 480}, {"note": 70, "velocity": 90, "duration": 506}, {"note": 72, "velocity": 96, "duration": 1920}, {"note": 67, "velocity": 94, "duration": 253}, {"note": 65, "velocity": 84, "duration": 240}, {"note": 63, "velocity": 66, "duration": 480}, {"note": 65, "velocity": 84, "duration": 480}, {"note": 70, "velocity": 93, "duration": 506}, {"note": 67, "velocity": 100, "duration": 2399}, {"note": 67, "velocity": 99, "duration": 960}, {"note": 70, "velocity": 97, "duration": 480}, {"note": 67, "velocity": 72, "duration": 239}, {"note": 67, "velocity": 92, "duration": 240}, {"note": 65, "velocity": 69, "duration": 1440}, {"note": 72, "velocity": 63, "duration": 239}, {"note": 72, "velocity": 90, "duration": 240}, {"note": 70, "velocity": 98, "duration": 480}, {"note": 72, "velocity": 97, "duration": 480}, {"note": 74, "velocity": 99, "duration": 480}, {"note": 70, "velocity": 72, "duration": 239}, {"note": 70, "velocity": 84, "duration": 480}, {"note": 67, "velocity": 58, "duration": 1680}, {"note": 75, "velocity": 109, "duration": 480}, {"note": 74, "velocity": 103, "duration": 480}, {"note": 70, "velocity": 98, "duration": 499}, {"note": 72, "velocity": 101, "duration": 1920}, {"note": 67, "velocity": 99, "duration": 240}, {"note": 65, "velocity": 89, "duration": 240}, {"note": 63, "velocity": 87, "duration": 480}, {"note": 65, "velocity": 91, "duration": 480}, {"note": 70, "velocity": 95, "duration": 480}, {"note": 67, "velocity": 103, "duration": 1920}, {"note": 63, "velocity": 90, "duration": 277}, {"note": 65, "velocity": 81, "duration": 275}, {"note": 67, "velocity": 89, "duration": 479}, {"note": 67, "velocity": 93, "duration": 240}, {"note": 70, "velocity": 85, "duration": 722}, {"note": 67, "velocity": 74, "duration": 480}, {"note": 65, "velocity": 84, "duration": 727}, {"note": 67, "velocity": 87, "duration": 720}, {"note": 70, "velocity": 80, "duration": 509}, {"note": 72, "velocity": 101, "duration": 4319}, {"note": 72, "velocity": 103, "duration": 471}, {"note": 72, "velocity": 90, "duration": 480}, {"note": 75, "velocity": 93, "duration": 480}, {"note": 77, "velocity": 97, "duration": 480}, {"note": 79, "velocity": 94, "duration": 479}, {"note": 79, "velocity": 97, "duration": 480}, {"note": 75, "velocity": 96, "duration": 960}, {"note": 72, "velocity": 105, "duration": 479}, {"note": 72, "velocity": 93, "duration": 480}, {"note": 74, "velocity": 94, "duration": 480}, {"note": 72, "velocity": 96, "duration": 480}, {"note": 74, "velocity": 90, "duration": 240}, {"note": 72, "velocity": 87, "duration": 240}, {"note": 70, "velocity": 90, "duration": 480}, {"note": 67, "velocity": 91, "duration": 960}, {"note": 72, "velocity": 98, "duration": 479}, {"note": 72, "velocity": 92, "duration": 480}, {"note": 75, "velocity": 97, "duration": 480}, {"note": 77, "velocity": 80, "duration": 480}, {"note": 79, "velocity": 62, "duration": 479}, {"note": 79, "velocity": 90, "duration": 480}, {"note": 75, "velocity": 97, "duration": 960}, {"note": 72, "velocity": 97, "duration": 479}, {"note": 72, "velocity": 95, "duration": 480}, {"note": 74, "velocity": 93, "duration": 484}, {"note": 72, "velocity": 87, "duration": 480}, {"note": 74, "velocity": 90, "duration": 242}, {"note": 72, "velocity": 84, "duration": 240}, {"note": 70, "velocity": 87, "duration": 480}, {"note": 67, "velocity": 67, "duration": 960}, {"note": 77, "velocity": 87, "duration": 239}, {"note": 77, "velocity": 86, "duration": 239}, {"note": 77, "velocity": 90, "duration": 479}, {"note": 77, "velocity": 84, "duration": 480}, {"note": 74, "velocity": 77, "duration": 547}, {"note": 72, "velocity": 77, "duration": 480}, {"note": 70, "velocity": 89, "duration": 480}, {"note": 67, "velocity": 66, "duration": 960}, {"note": 77, "velocity": 95, "duration": 239}, {"note": 77, "velocity": 93, "duration": 239}, {"note": 77, "velocity": 87, "duration": 479}, {"note": 77, "velocity": 90, "duration": 480}, {"note": 74, "velocity": 95, "duration": 495}, {"note": 72, "velocity": 98, "duration": 480}, {"note": 70, "velocity": 90, "duration": 480}, {"note": 67, "velocity": 86, "duration": 480}, {"note": 72, "velocity": 66, "duration": 479}, {"note": 72, "velocity": 66, "duration": 3360}, {"note": 0, "velocity": 0, "duration": 26880}, {"note": 75, "velocity": 90, "duration": 480}, {"note": 74, "velocity": 85, "duration": 480}, {"note": 70, "velocity": 83, "duration": 480}, {"note": 72, "velocity": 89, "duration": 1920}, {"note": 67, "velocity": 72, "duration": 266}, {"note": 65, "velocity": 76, "duration": 240}, {"note": 63, "velocity": 65, "duration": 480}, {"note": 65, "velocity": 66, "duration": 480}, {"note": 70, "velocity": 79, "duration": 480}, {"note": 67, "velocity": 94, "duration": 2399}, {"note": 67, "velocity": 106, "duration": 960}, {"note": 70, "velocity": 105, "duration": 480}, {"note": 67, "velocity": 95, "duration": 240}, {"note": 65, "velocity": 92, "duration": 1680}, {"note": 72, "velocity": 90, "duration": 239}, {"note": 72, "velocity": 90, "duration": 240}, {"note": 70, "velocity": 90, "duration": 507}, {"note": 72, "velocity": 91, "duration": 480}, {"note": 74, "velocity": 93, "duration": 480}, {"note": 70, "velocity": 64, "duration": 240}, {"note": 67, "velocity": 52, "duration": 2160}, {"note": 75, "velocity": 101, "duration": 509}, {"note": 74, "velocity": 94, "duration": 480}, {"note": 70, "velocity": 87, "duration": 498}, {"note": 72, "velocity": 91, "duration": 1920}, {"note": 67, "velocity": 93, "duration": 286}, {"note": 65, "velocity": 84, "duration": 240}, {"note": 63, "velocity": 81, "duration": 483}, {"note": 65, "velocity": 73, "duration": 483}, {"note": 70, "velocity": 87, "duration": 480}, {"note": 67, "velocity": 95, "duration": 1920}, {"note": 63, "velocity": 87, "duration": 240}, {"note": 65, "velocity": 86, "duration": 240}, {"note": 67, "velocity": 89, "duration": 479}, {"note": 67, "velocity": 89, "duration": 240}, {"note": 70, "velocity": 90, "duration": 720}, {"note": 67, "velocity": 90, "duration": 498}, {"note": 65, "velocity": 87, "duration": 600}, {"note": 67, "velocity": 87, "duration": 840}, {"note": 70, "velocity": 90, "duration": 480}, {"note": 72, "velocity": 68, "duration": 4319}, {"note": 72, "velocity": 103, "duration": 479}, {"note": 72, "velocity": 90, "duration": 480}, {"note": 75, "velocity": 93, "duration": 480}, {"note": 77, "velocity": 97, "duration": 480}, {"note": 79, "velocity": 94, "duration": 479}, {"note": 79, "velocity": 97, "duration": 480}, {"note": 75, "velocity": 96, "duration": 960}, {"note": 72, "velocity": 105, "duration": 479}, {"note": 72, "velocity": 93, "duration": 480}, {"note": 74, "velocity": 94, "duration": 480}, {"note": 72, "velocity": 96, "duration": 480}, {"note": 74, "velocity": 90, "duration": 240}, {"note": 72, "velocity": 87, "duration": 240}, {"note": 70, "velocity": 90, "duration": 480}, {"note": 67, "velocity": 91, "duration": 960}, {"note": 72, "velocity": 98, "duration": 479}, {"note": 72, "velocity": 92, "duration": 480}, {"note": 75, "velocity": 97, "duration": 480}, {"note": 77, "velocity": 80, "duration": 480}, {"note": 79, "velocity": 62, "duration": 479}, {"note": 79, "velocity": 90, "duration": 480}, {"note": 75, "velocity": 97, "duration": 960}, {"note": 72, "velocity": 97, "duration": 479}, {"note": 72, "velocity": 95, "duration": 480}, {"note": 74, "velocity": 93, "duration": 484}, {"note": 72, "velocity": 87, "duration": 480}, {"note": 74, "velocity": 90, "duration": 242}, {"note": 72, "velocity": 84, "duration": 240}, {"note": 70, "velocity": 87, "duration": 480}, {"note": 67, "velocity": 67, "duration": 960}, {"note": 77, "velocity": 87, "duration": 239}, {"note": 77, "velocity": 86, "duration": 239}, {"note": 77, "velocity": 90, "duration": 479}, {"note": 77, "velocity": 84, "duration": 480}, {"note": 74, "velocity": 77, "duration": 547}, {"note": 72, "velocity": 77, "duration": 480}, {"note": 70, "velocity": 89, "duration": 480}, {"note": 67, "velocity": 66, "duration": 960}, {"note": 77, "velocity": 95, "duration": 239}, {"note": 77, "velocity": 93, "duration": 239}, {"note": 77, "velocity": 87, "duration": 479}, {"note": 77, "velocity": 90, "duration": 480}, {"note": 74, "velocity": 95, "duration": 495}, {"note": 72, "velocity": 98, "duration": 480}, {"note": 70, "velocity": 90, "duration": 480}, {"note": 67, "velocity": 86, "duration": 480}, {"note": 72, "velocity": 66, "duration": 479}, {"note": 72, "velocity": 66, "duration": 3853}, {"note": 72, "velocity": 103, "duration": 479}, {"note": 72, "velocity": 90, "duration": 480}, {"note": 75, "velocity": 93, "duration": 480}, {"note": 77, "velocity": 97, "duration": 480}, {"note": 79, "velocity": 94, "duration": 479}, {"note": 79, "velocity": 97, "duration": 480}, {"note": 75, "velocity": 96, "duration": 17}, {"note": 72, "velocity": 105, "duration": 479}, {"note": 72, "velocity": 93, "duration": 480}, {"note": 74, "velocity": 94, "duration": 480}, {"note": 72, "velocity": 96, "duration": 480}, {"note": 74, "velocity": 90, "duration": 240}, {"note": 72, "velocity": 87, "duration": 240}, {"note": 70, "velocity": 90, "duration": 480}, {"note": 67, "velocity": 91, "duration": 960}, {"note": 72, "velocity": 98, "duration": 479}, {"note": 72, "velocity": 92, "duration": 480}, {"note": 75, "velocity": 97, "duration": 480}, {"note": 77, "velocity": 80, "duration": 480}, {"note": 79, "velocity": 62, "duration": 479}, {"note": 79, "velocity": 90, "duration": 480}, {"note": 75, "velocity": 97, "duration": 960}, {"note": 72, "velocity": 97, "duration": 479}, {"note": 72, "velocity": 95, "duration": 480}, {"note": 74, "velocity": 93, "duration": 484}, {"note": 72, "velocity": 87, "duration": 480}, {"note": 74, "velocity": 90, "duration": 242}, {"note": 72, "velocity": 84, "duration": 240}, {"note": 70, "velocity": 87, "duration": 480}, {"note": 67, "velocity": 67, "duration": 960}, {"note": 77, "velocity": 87, "duration": 239}, {"note": 77, "velocity": 86, "duration": 239}, {"note": 77, "velocity": 90, "duration": 479}, {"note": 77, "velocity": 84, "duration": 480}, {"note": 74, "velocity": 77, "duration": 547}, {"note": 72, "velocity": 77, "duration": 480}, {"note": 70, "velocity": 89, "duration": 480}, {"note": 67, "velocity": 66, "duration": 960}, {"note": 77, "velocity": 95, "duration": 239}, {"note": 77, "velocity": 93, "duration": 239}, {"note": 77, "velocity": 87, "duration": 479}, {"note": 77, "velocity": 90, "duration": 480}, {"note": 74, "velocity": 95, "duration": 495}, {"note": 72, "velocity": 98, "duration": 480}, {"note": 70, "velocity": 90, "duration": 480}, {"note": 67, "velocity": 86, "duration": 480}, {"note": 72, "velocity": 66, "duration": 479}, {"note": 72, "velocity": 66, "duration": 7186}, {"note": 75, "velocity": 90, "duration": 480}, {"note": 74, "velocity": 85, "duration": 480}, {"note": 70, "velocity": 83, "duration": 480}, {"note": 72, "velocity": 89, "duration": 1920}, {"note": 67, "velocity": 72, "duration": 266}, {"note": 65, "velocity": 76, "duration": 240}, {"note": 63, "velocity": 65, "duration": 480}, {"note": 65, "velocity": 66, "duration": 480}, {"note": 70, "velocity": 79, "duration": 480}, {"note": 67, "velocity": 94, "duration": 2399}, {"note": 67, "velocity": 106, "duration": 960}, {"note": 70, "velocity": 105, "duration": 480}, {"note": 67, "velocity": 95, "duration": 480}, {"note": 65, "velocity": 92, "duration": 1440}, {"note": 72, "velocity": 90, "duration": 239}, {"note": 72, "velocity": 90, "duration": 240}, {"note": 70, "velocity": 90, "duration": 507}, {"note": 72, "velocity": 91, "duration": 480}, {"note": 74, "velocity": 93, "duration": 480}, {"note": 70, "velocity": 64, "duration": 240}, {"note": 67, "velocity": 52, "duration": 2160}, {"note": 75, "velocity": 101, "duration": 509}, {"note": 74, "velocity": 94, "duration": 480}, {"note": 70, "velocity": 87, "duration": 498}, {"note": 72, "velocity": 91, "duration": 1920}, {"note": 67, "velocity": 93, "duration": 286}, {"note": 65, "velocity": 84, "duration": 240}, {"note": 63, "velocity": 81, "duration": 483}, {"note": 65, "velocity": 73, "duration": 483}, {"note": 70, "velocity": 87, "duration": 480}, {"note": 67, "velocity": 95, "duration": 1920}, {"note": 63, "velocity": 87, "duration": 240}, {"note": 65, "velocity": 86, "duration": 240}, {"note": 67, "velocity": 89, "duration": 720}, {"note": 70, "velocity": 90, "duration": 720}, {"note": 67, "velocity": 90, "duration": 498}, {"note": 65, "velocity": 87, "duration": 960}, {"note": 63, "velocity": 87, "duration": 480}, {"note": 62, "velocity": 90, "duration": 479}, {"note": 62, "velocity": 68, "duration": 240}, {"note": 60, "velocity": 68, "duration": 1680}]]