[[{"note": 69, "velocity": 97, "duration": 130}, {"note": 0, "velocity": 0, "duration": 110}, {"note": 69, "velocity": 100, "duration": 105}, {"note": 0, "velocity": 0, "duration": 135}, {"note": 69, "velocity": 100, "duration": 245}, {"note": 69, "velocity": 96, "duration": 5}, {"note": 0, "velocity": 0, "duration": 235}, {"note": 71, "velocity": 127, "duration": 457}, {"note": 73, "velocity": 127, "duration": 96}, {"note": 0, "velocity": 0, "duration": 144}, {"note": 73, "velocity": 127, "duration": 1062}, {"note": 0, "velocity": 0, "duration": 618}, {"note": 73, "velocity": 117, "duration": 135}, {"note": 0, "velocity": 0, "duration": 105}, {"note": 76, "velocity": 93, "duration": 120}, {"note": 0, "velocity": 0, "duration": 120}, {"note": 78, "velocity": 117, "duration": 124}, {"note": 0, "velocity": 0, "duration": 116}, {"note": 78, "velocity": 107, "duration": 129}, {"note": 0, "velocity": 0, "duration": 111}, {"note": 78, "velocity": 117, "duration": 121}, {"note": 0, "velocity": 0, "duration": 119}, {"note": 80, "velocity": 100, "duration": 156}, {"note": 0, "velocity": 0, "duration": 84}, {"note": 78, "velocity": 127, "duration": 265}, {"note": 0, "velocity": 0, "duration": 215}, {"note": 76, "velocity": 99, "duration": 106}, {"note": 0, "velocity": 0, "duration": 134}, {"note": 73, "velocity": 112, "duration": 1246}, {"note": 0, "velocity": 0, "duration": 674}, {"note": 69, "velocity": 97, "duration": 76}, {"note": 0, "velocity": 0, "duration": 164}, {"note": 69, "velocity": 99, "duration": 74}, {"note": 0, "velocity": 0, "duration": 166}, {"note": 69, "velocity": 97, "duration": 74}, {"note": 0, "velocity": 0, "duration": 166}, {"note": 69, "velocity": 99, "duration": 73}, {"note": 0, "velocity": 0, "duration": 167}, {"note": 69, "velocity": 100, "duration": 81}, {"note": 0, "velocity": 0, "duration": 159}, {"note": 71, "velocity": 102, "duration": 483}, {"note": 73, "velocity": 122, "duration": 157}, {"note": 0, "velocity": 0, "duration": 83}, {"note": 73, "velocity": 122, "duration": 1654}, {"note": 73, "velocity": 127, "duration": 239}, {"note": 71, "velocity": 107, "duration": 219}, {"note": 69, "velocity": 107, "duration": 320}, {"note": 69, "velocity": 102, "duration": 80}, {"note": 0, "velocity": 0, "duration": 160}, {"note": 69, "velocity": 112, "duration": 128}, {"note": 0, "velocity": 0, "duration": 112}, {"note": 69, "velocity": 96, "duration": 208}, {"note": 68, "velocity": 112, "duration": 457}, {"note": 69, "velocity": 102, "duration": 205}, {"note": 66, "velocity": 107, "duration": 1102}, {"note": 0, "velocity": 0, "duration": 578}, {"note": 73, "velocity": 127, "duration": 147}, {"note": 0, "velocity": 0, "duration": 93}, {"note": 76, "velocity": 100, "duration": 231}, {"note": 78, "velocity": 107, "duration": 92}, {"note": 0, "velocity": 0, "duration": 148}, {"note": 78, "velocity": 107, "duration": 111}, {"note": 0, "velocity": 0, "duration": 129}, {"note": 78, "velocity": 117, "duration": 101}, {"note": 0, "velocity": 0, "duration": 139}, {"note": 78, "velocity": 112, "duration": 102}, {"note": 0, "velocity": 0, "duration": 138}, {"note": 80, "velocity": 127, "duration": 270}, {"note": 0, "velocity": 0, "duration": 210}, {"note": 76, "velocity": 102, "duration": 205}, {"note": 73, "velocity": 107, "duration": 1349}, {"note": 0, "velocity": 0, "duration": 331}, {"note": 73, "velocity": 117, "duration": 152}, {"note": 0, "velocity": 0, "duration": 88}, {"note": 71, "velocity": 102, "duration": 200}, {"note": 69, "velocity": 95, "duration": 115}, {"note": 0, "velocity": 0, "duration": 125}, {"note": 69, "velocity": 97, "duration": 100}, {"note": 0, "velocity": 0, "duration": 140}, {"note": 69, "velocity": 99, "duration": 123}, {"note": 0, "velocity": 0, "duration": 117}, {"note": 69, "velocity": 99, "duration": 138}, {"note": 0, "velocity": 0, "duration": 102}, {"note": 71, "velocity": 102, "duration": 387}, {"note": 0, "velocity": 0, "duration": 93}, {"note": 73, "velocity": 122, "duration": 170}, {"note": 0, "velocity": 0, "duration": 70}, {"note": 73, "velocity": 127, "duration": 1387}, {"note": 0, "velocity": 0, "duration": 293}, {"note": 73, "velocity": 117, "duration": 144}, {"note": 0, "velocity": 0, "duration": 96}, {"note": 76, "velocity": 102, "duration": 112}, {"note": 0, "velocity": 0, "duration": 128}, {"note": 78, "velocity": 127, "duration": 386}, {"note": 0, "velocity": 0, "duration": 94}, {"note": 78, "velocity": 127, "duration": 212}, {"note": 78, "velocity": 127, "duration": 155}, {"note": 0, "velocity": 0, "duration": 85}, {"note": 80, "velocity": 127, "duration": 354}, {"note": 0, "velocity": 0, "duration": 126}, {"note": 76, "velocity": 112, "duration": 289}, {"note": 0, "velocity": 0, "duration": 191}, {"note": 73, "velocity": 122, "duration": 330}, {"note": 0, "velocity": 0, "duration": 150}, {"note": 76, "velocity": 100, "duration": 143}, {"note": 0, "velocity": 0, "duration": 97}, {"note": 78, "velocity": 127, "duration": 738}, {"note": 73, "velocity": 127, "duration": 136}, {"note": 0, "velocity": 0, "duration": 104}, {"note": 71, "velocity": 112, "duration": 181}, {"note": 69, "velocity": 99, "duration": 117}, {"note": 0, "velocity": 0, "duration": 123}, {"note": 69, "velocity": 99, "duration": 105}, {"note": 0, "velocity": 0, "duration": 135}, {"note": 69, "velocity": 100, "duration": 112}, {"note": 0, "velocity": 0, "duration": 128}, {"note": 69, "velocity": 107, "duration": 122}, {"note": 0, "velocity": 0, "duration": 118}, {"note": 68, "velocity": 127, "duration": 182}, {"note": 68, "velocity": 100, "duration": 140}, {"note": 0, "velocity": 0, "duration": 100}, {"note": 69, "velocity": 112, "duration": 178}, {"note": 0, "velocity": 0, "duration": 62}, {"note": 68, "velocity": 112, "duration": 179}, {"note": 0, "velocity": 0, "duration": 61}, {"note": 66, "velocity": 112, "duration": 1352}, {"note": 0, "velocity": 0, "duration": 15928}, {"note": 69, "velocity": 97, "duration": 130}, {"note": 0, "velocity": 0, "duration": 110}, {"note": 69, "velocity": 100, "duration": 105}, {"note": 0, "velocity": 0, "duration": 135}, {"note": 69, "velocity": 100, "duration": 245}, {"note": 69, "velocity": 96, "duration": 5}, {"note": 0, "velocity": 0, "duration": 235}, {"note": 71, "velocity": 127, "duration": 457}, {"note": 73, "velocity": 127, "duration": 96}, {"note": 0, "velocity": 0, "duration": 144}, {"note": 73, "velocity": 127, "duration": 1062}, {"note": 0, "velocity": 0, "duration": 858}, {"note": 69, "velocity": 93, "duration": 120}, {"note": 0, "velocity": 0, "duration": 120}, {"note": 78, "velocity": 117, "duration": 124}, {"note": 0, "velocity": 0, "duration": 116}, {"note": 78, "velocity": 107, "duration": 129}, {"note": 0, "velocity": 0, "duration": 111}, {"note": 78, "velocity": 117, "duration": 121}, {"note": 0, "velocity": 0, "duration": 119}, {"note": 80, "velocity": 100, "duration": 156}, {"note": 0, "velocity": 0, "duration": 84}, {"note": 78, "velocity": 127, "duration": 265}, {"note": 0, "velocity": 0, "duration": 215}, {"note": 76, "velocity": 99, "duration": 106}, {"note": 0, "velocity": 0, "duration": 134}, {"note": 73, "velocity": 112, "duration": 1246}, {"note": 0, "velocity": 0, "duration": 674}, {"note": 69, "velocity": 97, "duration": 76}, {"note": 0, "velocity": 0, "duration": 164}, {"note": 69, "velocity": 99, "duration": 74}, {"note": 0, "velocity": 0, "duration": 166}, {"note": 69, "velocity": 97, "duration": 74}, {"note": 0, "velocity": 0, "duration": 166}, {"note": 69, "velocity": 99, "duration": 73}, {"note": 0, "velocity": 0, "duration": 167}, {"note": 69, "velocity": 100, "duration": 81}, {"note": 0, "velocity": 0, "duration": 159}, {"note": 71, "velocity": 102, "duration": 483}, {"note": 73, "velocity": 122, "duration": 157}, {"note": 0, "velocity": 0, "duration": 83}, {"note": 73, "velocity": 122, "duration": 1654}, {"note": 73, "velocity": 127, "duration": 239}, {"note": 71, "velocity": 107, "duration": 219}, {"note": 69, "velocity": 107, "duration": 320}, {"note": 69, "velocity": 102, "duration": 80}, {"note": 0, "velocity": 0, "duration": 160}, {"note": 69, "velocity": 112, "duration": 128}, {"note": 0, "velocity": 0, "duration": 112}, {"note": 69, "velocity": 96, "duration": 208}, {"note": 68, "velocity": 112, "duration": 457}, {"note": 69, "velocity": 102, "duration": 205}, {"note": 66, "velocity": 107, "duration": 1102}, {"note": 0, "velocity": 0, "duration": 578}, {"note": 73, "velocity": 127, "duration": 147}, {"note": 0, "velocity": 0, "duration": 93}, {"note": 76, "velocity": 100, "duration": 231}, {"note": 78, "velocity": 107, "duration": 92}, {"note": 0, "velocity": 0, "duration": 148}, {"note": 78, "velocity": 107, "duration": 111}, {"note": 0, "velocity": 0, "duration": 129}, {"note": 78, "velocity": 117, "duration": 101}, {"note": 0, "velocity": 0, "duration": 139}, {"note": 78, "velocity": 112, "duration": 102}, {"note": 0, "velocity": 0, "duration": 138}, {"note": 80, "velocity": 127, "duration": 270}, {"note": 0, "velocity": 0, "duration": 210}, {"note": 76, "velocity": 102, "duration": 205}, {"note": 73, "velocity": 107, "duration": 1349}, {"note": 0, "velocity": 0, "duration": 331}, {"note": 73, "velocity": 117, "duration": 152}, {"note": 0, "velocity": 0, "duration": 88}, {"note": 71, "velocity": 102, "duration": 200}, {"note": 69, "velocity": 95, "duration": 115}, {"note": 0, "velocity": 0, "duration": 125}, {"note": 69, "velocity": 97, "duration": 100}, {"note": 0, "velocity": 0, "duration": 140}, {"note": 69, "velocity": 99, "duration": 123}, {"note": 0, "velocity": 0, "duration": 117}, {"note": 69, "velocity": 99, "duration": 138}, {"note": 0, "velocity": 0, "duration": 102}, {"note": 71, "velocity": 102, "duration": 387}, {"note": 0, "velocity": 0, "duration": 93}, {"note": 73, "velocity": 122, "duration": 170}, {"note": 0, "velocity": 0, "duration": 70}, {"note": 73, "velocity": 127, "duration": 1387}, {"note": 0, "velocity": 0, "duration": 293}, {"note": 73, "velocity": 117, "duration": 144}, {"note": 0, "velocity": 0, "duration": 96}, {"note": 76, "velocity": 102, "duration": 112}, {"note": 0, "velocity": 0, "duration": 128}, {"note": 78, "velocity": 127, "duration": 386}, {"note": 0, "velocity": 0, "duration": 94}, {"note": 78, "velocity": 127, "duration": 212}, {"note": 78, "velocity": 127, "duration": 155}, {"note": 0, "velocity": 0, "duration": 85}, {"note": 80, "velocity": 127, "duration": 354}, {"note": 0, "velocity": 0, "duration": 126}, {"note": 76, "velocity": 112, "duration": 289}, {"note": 0, "velocity": 0, "duration": 191}, {"note": 73, "velocity": 122, "duration": 330}, {"note": 0, "velocity": 0, "duration": 150}, {"note": 76, "velocity": 100, "duration": 143}, {"note": 0, "velocity": 0, "duration": 97}, {"note": 78, "velocity": 127, "duration": 738}, {"note": 73, "velocity": 127, "duration": 136}, {"note": 0, "velocity": 0, "duration": 104}, {"note": 71, "velocity": 112, "duration": 181}, {"note": 69, "velocity": 99, "duration": 117}, {"note": 0, "velocity": 0, "duration": 123}, {"note": 69, "velocity": 99, "duration": 105}, {"note": 0, "velocity": 0, "duration": 135}, {"note": 69, "velocity": 100, "duration": 112}, {"note": 0, "velocity": 0, "duration": 128}, {"note": 69, "velocity": 107, "duration": 122}, {"note": 0, "velocity": 0, "duration": 118}, {"note": 68, "velocity": 127, "duration": 182}, {"note": 68, "velocity": 100, "duration": 140}, {"note": 0, "velocity": 0, "duration": 100}, {"note": 69, "velocity": 112, "duration": 178}, {"note": 0, "velocity": 0, "duration": 62}, {"note": 68, "velocity": 112, "duration": 179}, {"note": 0, "velocity": 0, "duration": 61}, {"note": 66, "velocity": 112, "duration": 1352}, {"note": 0, "velocity": 0, "duration": 88}, {"note": 73, "velocity": 127, "duration": 147}, {"note": 0, "velocity": 0, "duration": 93}, {"note": 76, "velocity": 100, "duration": 231}, {"note": 78, "velocity": 107, "duration": 92}, {"note": 0, "velocity": 0, "duration": 148}, {"note": 78, "velocity": 107, "duration": 111}, {"note": 0, "velocity": 0, "duration": 129}, {"note": 78, "velocity": 117, "duration": 101}, {"note": 0, "velocity": 0, "duration": 139}, {"note": 78, "velocity": 112, "duration": 102}, {"note": 0, "velocity": 0, "duration": 138}, {"note": 80, "velocity": 127, "duration": 270}, {"note": 0, "velocity": 0, "duration": 210}, {"note": 76, "velocity": 102, "duration": 205}, {"note": 73, "velocity": 107, "duration": 1349}, {"note": 0, "velocity": 0, "duration": 331}, {"note": 73, "velocity": 117, "duration": 152}, {"note": 0, "velocity": 0, "duration": 88}, {"note": 71, "velocity": 102, "duration": 200}, {"note": 69, "velocity": 95, "duration": 115}, {"note": 0, "velocity": 0, "duration": 125}, {"note": 69, "velocity": 97, "duration": 100}, {"note": 0, "velocity": 0, "duration": 140}, {"note": 69, "velocity": 99, "duration": 123}, {"note": 0, "velocity": 0, "duration": 117}, {"note": 69, "velocity": 99, "duration": 138}, {"note": 0, "velocity": 0, "duration": 102}, {"note": 71, "velocity": 102, "duration": 387}, {"note": 0, "velocity": 0, "duration": 93}, {"note": 73, "velocity": 122, "duration": 170}, {"note": 0, "velocity": 0, "duration": 70}, {"note": 73, "velocity": 127, "duration": 1387}, {"note": 0, "velocity": 0, "duration": 293}, {"note": 73, "velocity": 117, "duration": 144}, {"note": 0, "velocity": 0, "duration": 96}, {"note": 76, "velocity": 102, "duration": 112}, {"note": 0, "velocity": 0, "duration": 128}, {"note": 78, "velocity": 127, "duration": 386}, {"note": 0, "velocity": 0, "duration": 94}, {"note": 78, "velocity": 127, "duration": 212}, {"note": 78, "velocity": 127, "duration": 155}, {"note": 0, "velocity": 0, "duration": 85}, {"note": 80, "velocity": 127, "duration": 354}, {"note": 0, "velocity": 0, "duration": 126}, {"note": 76, "velocity": 112, "duration": 289}, {"note": 0, "velocity": 0, "duration": 191}, {"note": 73, "velocity": 122, "duration": 330}, {"note": 0, "velocity": 0, "duration": 150}, {"note": 76, "velocity": 100, "duration": 143}, {"note": 0, "velocity": 0, "duration": 97}, {"note": 78, "velocity": 127, "duration": 738}, {"note": 73, "velocity": 127, "duration": 136}, {"note": 0, "velocity": 0, "duration": 104}, {"note": 71, "velocity": 112, "duration": 181}, {"note": 69, "velocity": 99, "duration": 117}, {"note": 0, "velocity": 0, "duration": 123}, {"note": 69, "velocity": 99, "duration": 105}, {"note": 0, "velocity": 0, "duration": 135}, {"note": 69, "velocity": 100, "duration": 112}, {"note": 0, "velocity": 0, "duration": 128}, {"note": 69, "velocity": 107, "duration": 122}, {"note": 0, "velocity": 0, "duration": 118}, {"note": 68, "velocity": 127, "duration": 182}, {"note": 68, "velocity": 100, "duration": 140}, {"note": 0, "velocity": 0, "duration": 100}, {"note": 69, "velocity": 112, "duration": 178}, {"note": 0, "velocity": 0, "duration": 62}, {"note": 68, "velocity": 112, "duration": 179}, {"note": 0, "velocity": 0, "duration": 61}, {"note": 66, "velocity": 112, "duration": 1352}, {"note": 0, "velocity": 0, "duration": 15928}, {"note": 73, "velocity": 122, "duration": 814}, {"note": 0, "velocity": 0, "duration": 146}, {"note": 71, "velocity": 112, "duration": 371}, {"note": 0, "velocity": 0, "duration": 109}, {"note": 71, "velocity": 102, "duration": 217}, {"note": 73, "velocity": 117, "duration": 1720}, {"note": 69, "velocity": 100, "duration": 221}, {"note": 71, "velocity": 96, "duration": 235}, {"note": 73, "velocity": 117, "duration": 821}, {"note": 0, "velocity": 0, "duration": 139}, {"note": 71, "velocity": 127, "duration": 618}, {"note": 71, "velocity": 100, "duration": 138}, {"note": 0, "velocity": 0, "duration": 102}, {"note": 69, "velocity": 100, "duration": 1887}, {"note": 0, "velocity": 0, "duration": 273}, {"note": 73, "velocity": 127, "duration": 525}, {"note": 0, "velocity": 0, "duration": 75}, {"note": 73, "velocity": 27, "duration": 86}, {"note": 0, "velocity": 0, "duration": 274}, {"note": 71, "velocity": 122, "duration": 412}, {"note": 0, "velocity": 0, "duration": 68}, {"note": 76, "velocity": 112, "duration": 508}, {"note": 73, "velocity": 122, "duration": 1141}, {"note": 0, "velocity": 0, "duration": 299}, {"note": 69, "velocity": 102, "duration": 194}, {"note": 71, "velocity": 95, "duration": 173}, {"note": 0, "velocity": 0, "duration": 67}, {"note": 73, "velocity": 122, "duration": 531}, {"note": 0, "velocity": 0, "duration": 429}, {"note": 71, "velocity": 117, "duration": 395}, {"note": 0, "velocity": 0, "duration": 85}, {"note": 73, "velocity": 127, "duration": 467}, {"note": 66, "velocity": 117, "duration": 1223}, {"note": 0, "velocity": 0, "duration": 728}, {"note": 69, "velocity": 122, "duration": 150}, {"note": 0, "velocity": 0, "duration": 90}, {"note": 69, "velocity": 97, "duration": 99}, {"note": 0, "velocity": 0, "duration": 127}, {"note": 69, "velocity": 97, "duration": 88}, {"note": 0, "velocity": 0, "duration": 111}, {"note": 69, "velocity": 99, "duration": 156}, {"note": 0, "velocity": 0, "duration": 83}, {"note": 71, "velocity": 122, "duration": 469}, {"note": 73, "velocity": 122, "duration": 182}, {"note": 0, "velocity": 0, "duration": 72}, {"note": 73, "velocity": 122, "duration": 1235}, {"note": 0, "velocity": 0, "duration": 439}, {"note": 73, "velocity": 122, "duration": 219}, {"note": 71, "velocity": 107, "duration": 215}, {"note": 0, "velocity": 0, "duration": 89}, {"note": 69, "velocity": 96, "duration": 192}, {"note": 0, "velocity": 0, "duration": 69}, {"note": 69, "velocity": 95, "duration": 204}, {"note": 0, "velocity": 0, "duration": 81}, {"note": 69, "velocity": 99, "duration": 192}, {"note": 0, "velocity": 0, "duration": 82}, {"note": 69, "velocity": 97, "duration": 249}, {"note": 68, "velocity": 122, "duration": 466}, {"note": 0, "velocity": 0, "duration": 156}, {"note": 69, "velocity": 122, "duration": 626}, {"note": 66, "velocity": 127, "duration": 3317}]]