[[{"note": 67, "velocity": 107, "duration": 220}, {"note": 74, "velocity": 96, "duration": 162}, {"note": 0, "velocity": 0, "duration": 78}, {"note": 74, "velocity": 117, "duration": 1041}, {"note": 0, "velocity": 0, "duration": 399}, {"note": 74, "velocity": 112, "duration": 166}, {"note": 0, "velocity": 0, "duration": 74}, {"note": 72, "velocity": 102, "duration": 171}, {"note": 0, "velocity": 0, "duration": 69}, {"note": 72, "velocity": 93, "duration": 887}, {"note": 0, "velocity": 0, "duration": 553}, {"note": 67, "velocity": 99, "duration": 214}, {"note": 72, "velocity": 99, "duration": 170}, {"note": 0, "velocity": 0, "duration": 70}, {"note": 72, "velocity": 102, "duration": 1073}, {"note": 0, "velocity": 0, "duration": 847}, {"note": 77, "velocity": 102, "duration": 233}, {"note": 74, "velocity": 99, "duration": 1068}, {"note": 0, "velocity": 0, "duration": 132}, {"note": 74, "velocity": 112, "duration": 355}, {"note": 0, "velocity": 0, "duration": 125}, {"note": 79, "velocity": 122, "duration": 987}, {"note": 0, "velocity": 0, "duration": 453}, {"note": 79, "velocity": 107, "duration": 197}, {"note": 70, "velocity": 112, "duration": 101}, {"note": 72, "velocity": 86, "duration": 57}, {"note": 0, "velocity": 0, "duration": 63}, {"note": 72, "velocity": 100, "duration": 1138}, {"note": 0, "velocity": 0, "duration": 302}, {"note": 72, "velocity": 99, "duration": 231}, {"note": 74, "velocity": 102, "duration": 223}, {"note": 77, "velocity": 112, "duration": 678}, {"note": 0, "velocity": 0, "duration": 762}, {"note": 70, "velocity": 122, "duration": 117}, {"note": 0, "velocity": 0, "duration": 123}, {"note": 70, "velocity": 127, "duration": 140}, {"note": 72, "velocity": 77, "duration": 105}, {"note": 70, "velocity": 102, "duration": 214}, {"note": 67, "velocity": 95, "duration": 720}, {"note": 0, "velocity": 0, "duration": 480}, {"note": 67, "velocity": 100, "duration": 211}, {"note": 74, "velocity": 102, "duration": 177}, {"note": 0, "velocity": 0, "duration": 63}, {"note": 74, "velocity": 122, "duration": 670}, {"note": 0, "velocity": 0, "duration": 770}, {"note": 74, "velocity": 122, "duration": 232}, {"note": 72, "velocity": 112, "duration": 174}, {"note": 0, "velocity": 0, "duration": 66}, {"note": 72, "velocity": 102, "duration": 1193}, {"note": 0, "velocity": 0, "duration": 247}, {"note": 67, "velocity": 107, "duration": 221}, {"note": 72, "velocity": 99, "duration": 178}, {"note": 0, "velocity": 0, "duration": 62}, {"note": 72, "velocity": 112, "duration": 1057}, {"note": 0, "velocity": 0, "duration": 383}, {"note": 77, "velocity": 112, "duration": 249}, {"note": 79, "velocity": 90, "duration": 244}, {"note": 77, "velocity": 97, "duration": 248}, {"note": 74, "velocity": 96, "duration": 1048}, {"note": 0, "velocity": 0, "duration": 152}, {"note": 74, "velocity": 117, "duration": 436}, {"note": 79, "velocity": 127, "duration": 1136}, {"note": 0, "velocity": 0, "duration": 304}, {"note": 79, "velocity": 92, "duration": 202}, {"note": 70, "velocity": 99, "duration": 123}, {"note": 72, "velocity": 96, "duration": 73}, {"note": 72, "velocity": 95, "duration": 1178}, {"note": 0, "velocity": 0, "duration": 262}, {"note": 72, "velocity": 99, "duration": 205}, {"note": 74, "velocity": 117, "duration": 226}, {"note": 77, "velocity": 112, "duration": 881}, {"note": 0, "velocity": 0, "duration": 559}, {"note": 72, "velocity": 117, "duration": 159}, {"note": 0, "velocity": 0, "duration": 81}, {"note": 72, "velocity": 122, "duration": 105}, {"note": 74, "velocity": 90, "duration": 84}, {"note": 70, "velocity": 117, "duration": 234}, {"note": 67, "velocity": 96, "duration": 1356}, {"note": 0, "velocity": 0, "duration": 324}, {"note": 74, "velocity": 117, "duration": 173}, {"note": 0, "velocity": 0, "duration": 67}, {"note": 74, "velocity": 102, "duration": 142}, {"note": 0, "velocity": 0, "duration": 98}, {"note": 74, "velocity": 107, "duration": 218}, {"note": 82, "velocity": 127, "duration": 184}, {"note": 79, "velocity": 117, "duration": 480}, {"note": 0, "velocity": 0, "duration": 240}, {"note": 77, "velocity": 112, "duration": 105}, {"note": 79, "velocity": 93, "duration": 57}, {"note": 0, "velocity": 0, "duration": 63}, {"note": 79, "velocity": 127, "duration": 220}, {"note": 77, "velocity": 97, "duration": 196}, {"note": 72, "velocity": 95, "duration": 196}, {"note": 79, "velocity": 112, "duration": 181}, {"note": 77, "velocity": 112, "duration": 467}, {"note": 0, "velocity": 0, "duration": 493}, {"note": 72, "velocity": 100, "duration": 127}, {"note": 0, "velocity": 0, "duration": 113}, {"note": 72, "velocity": 102, "duration": 150}, {"note": 0, "velocity": 0, "duration": 90}, {"note": 72, "velocity": 102, "duration": 133}, {"note": 0, "velocity": 0, "duration": 107}, {"note": 74, "velocity": 112, "duration": 130}, {"note": 0, "velocity": 0, "duration": 110}, {"note": 72, "velocity": 122, "duration": 200}, {"note": 70, "velocity": 112, "duration": 202}, {"note": 67, "velocity": 102, "duration": 316}, {"note": 0, "velocity": 0, "duration": 164}, {"note": 70, "velocity": 127, "duration": 139}, {"note": 0, "velocity": 0, "duration": 101}, {"note": 67, "velocity": 102, "duration": 50}, {"note": 0, "velocity": 0, "duration": 70}, {"note": 67, "velocity": 97, "duration": 66}, {"note": 79, "velocity": 112, "duration": 176}, {"note": 0, "velocity": 0, "duration": 64}, {"note": 77, "velocity": 127, "duration": 173}, {"note": 0, "velocity": 0, "duration": 67}, {"note": 74, "velocity": 127, "duration": 749}, {"note": 0, "velocity": 0, "duration": 211}, {"note": 74, "velocity": 107, "duration": 143}, {"note": 0, "velocity": 0, "duration": 97}, {"note": 74, "velocity": 97, "duration": 137}, {"note": 0, "velocity": 0, "duration": 103}, {"note": 74, "velocity": 100, "duration": 151}, {"note": 0, "velocity": 0, "duration": 89}, {"note": 82, "velocity": 122, "duration": 170}, {"note": 0, "velocity": 0, "duration": 70}, {"note": 79, "velocity": 127, "duration": 761}, {"note": 77, "velocity": 97, "duration": 97}, {"note": 79, "velocity": 100, "duration": 79}, {"note": 82, "velocity": 127, "duration": 235}, {"note": 0, "velocity": 0, "duration": 125}, {"note": 79, "velocity": 117, "duration": 103}, {"note": 77, "velocity": 107, "duration": 132}, {"note": 0, "velocity": 0, "duration": 108}, {"note": 72, "velocity": 97, "duration": 92}, {"note": 77, "velocity": 97, "duration": 98}, {"note": 74, "velocity": 127, "duration": 437}, {"note": 0, "velocity": 0, "duration": 523}, {"note": 72, "velocity": 107, "duration": 143}, {"note": 0, "velocity": 0, "duration": 97}, {"note": 72, "velocity": 100, "duration": 134}, {"note": 0, "velocity": 0, "duration": 106}, {"note": 72, "velocity": 112, "duration": 164}, {"note": 0, "velocity": 0, "duration": 76}, {"note": 74, "velocity": 127, "duration": 172}, {"note": 0, "velocity": 0, "duration": 68}, {"note": 79, "velocity": 127, "duration": 168}, {"note": 0, "velocity": 0, "duration": 72}, {"note": 77, "velocity": 107, "duration": 94}, {"note": 74, "velocity": 99, "duration": 528}, {"note": 0, "velocity": 0, "duration": 72}, {"note": 77, "velocity": 112, "duration": 149}, {"note": 0, "velocity": 0, "duration": 91}, {"note": 77, "velocity": 112, "duration": 82}, {"note": 79, "velocity": 97, "duration": 67}, {"note": 81, "velocity": 122, "duration": 212}, {"note": 77, "velocity": 107, "duration": 224}, {"note": 79, "velocity": 127, "duration": 841}, {"note": 0, "velocity": 0, "duration": 17879}, {"note": 67, "velocity": 100, "duration": 211}, {"note": 74, "velocity": 102, "duration": 177}, {"note": 0, "velocity": 0, "duration": 63}, {"note": 74, "velocity": 122, "duration": 670}, {"note": 0, "velocity": 0, "duration": 770}, {"note": 74, "velocity": 122, "duration": 232}, {"note": 72, "velocity": 112, "duration": 174}, {"note": 0, "velocity": 0, "duration": 66}, {"note": 72, "velocity": 102, "duration": 1193}, {"note": 0, "velocity": 0, "duration": 247}, {"note": 67, "velocity": 107, "duration": 221}, {"note": 72, "velocity": 99, "duration": 178}, {"note": 0, "velocity": 0, "duration": 62}, {"note": 72, "velocity": 112, "duration": 1057}, {"note": 0, "velocity": 0, "duration": 383}, {"note": 77, "velocity": 112, "duration": 249}, {"note": 79, "velocity": 90, "duration": 244}, {"note": 77, "velocity": 97, "duration": 248}, {"note": 74, "velocity": 96, "duration": 1048}, {"note": 0, "velocity": 0, "duration": 152}, {"note": 74, "velocity": 117, "duration": 436}, {"note": 79, "velocity": 127, "duration": 1136}, {"note": 0, "velocity": 0, "duration": 304}, {"note": 79, "velocity": 92, "duration": 202}, {"note": 70, "velocity": 99, "duration": 123}, {"note": 72, "velocity": 96, "duration": 73}, {"note": 72, "velocity": 95, "duration": 1178}, {"note": 0, "velocity": 0, "duration": 262}, {"note": 72, "velocity": 99, "duration": 205}, {"note": 74, "velocity": 117, "duration": 226}, {"note": 77, "velocity": 112, "duration": 881}, {"note": 0, "velocity": 0, "duration": 559}, {"note": 72, "velocity": 117, "duration": 159}, {"note": 0, "velocity": 0, "duration": 81}, {"note": 72, "velocity": 122, "duration": 105}, {"note": 74, "velocity": 90, "duration": 84}, {"note": 70, "velocity": 117, "duration": 234}, {"note": 67, "velocity": 96, "duration": 1356}, {"note": 0, "velocity": 0, "duration": 324}, {"note": 74, "velocity": 117, "duration": 173}, {"note": 0, "velocity": 0, "duration": 67}, {"note": 74, "velocity": 102, "duration": 142}, {"note": 0, "velocity": 0, "duration": 98}, {"note": 74, "velocity": 107, "duration": 218}, {"note": 82, "velocity": 127, "duration": 184}, {"note": 79, "velocity": 117, "duration": 480}, {"note": 0, "velocity": 0, "duration": 240}, {"note": 77, "velocity": 112, "duration": 105}, {"note": 79, "velocity": 93, "duration": 57}, {"note": 0, "velocity": 0, "duration": 63}, {"note": 79, "velocity": 127, "duration": 220}, {"note": 77, "velocity": 97, "duration": 196}, {"note": 72, "velocity": 95, "duration": 196}, {"note": 79, "velocity": 112, "duration": 181}, {"note": 77, "velocity": 112, "duration": 467}, {"note": 0, "velocity": 0, "duration": 493}, {"note": 72, "velocity": 100, "duration": 127}, {"note": 0, "velocity": 0, "duration": 113}, {"note": 72, "velocity": 102, "duration": 150}, {"note": 0, "velocity": 0, "duration": 90}, {"note": 72, "velocity": 102, "duration": 133}, {"note": 0, "velocity": 0, "duration": 107}, {"note": 74, "velocity": 112, "duration": 130}, {"note": 0, "velocity": 0, "duration": 110}, {"note": 72, "velocity": 122, "duration": 200}, {"note": 70, "velocity": 112, "duration": 202}, {"note": 67, "velocity": 102, "duration": 316}, {"note": 0, "velocity": 0, "duration": 164}, {"note": 70, "velocity": 127, "duration": 139}, {"note": 0, "velocity": 0, "duration": 101}, {"note": 67, "velocity": 102, "duration": 50}, {"note": 0, "velocity": 0, "duration": 70}, {"note": 67, "velocity": 97, "duration": 66}, {"note": 79, "velocity": 112, "duration": 176}, {"note": 0, "velocity": 0, "duration": 64}, {"note": 77, "velocity": 127, "duration": 173}, {"note": 0, "velocity": 0, "duration": 67}, {"note": 74, "velocity": 127, "duration": 749}, {"note": 0, "velocity": 0, "duration": 211}, {"note": 74, "velocity": 107, "duration": 143}, {"note": 0, "velocity": 0, "duration": 97}, {"note": 74, "velocity": 97, "duration": 137}, {"note": 0, "velocity": 0, "duration": 103}, {"note": 74, "velocity": 100, "duration": 151}, {"note": 0, "velocity": 0, "duration": 89}, {"note": 82, "velocity": 122, "duration": 170}, {"note": 0, "velocity": 0, "duration": 70}, {"note": 79, "velocity": 127, "duration": 761}, {"note": 77, "velocity": 97, "duration": 97}, {"note": 79, "velocity": 100, "duration": 79}, {"note": 82, "velocity": 127, "duration": 235}, {"note": 0, "velocity": 0, "duration": 125}, {"note": 79, "velocity": 117, "duration": 103}, {"note": 77, "velocity": 107, "duration": 132}, {"note": 0, "velocity": 0, "duration": 108}, {"note": 72, "velocity": 97, "duration": 92}, {"note": 77, "velocity": 97, "duration": 98}, {"note": 74, "velocity": 127, "duration": 437}, {"note": 0, "velocity": 0, "duration": 523}, {"note": 72, "velocity": 107, "duration": 143}, {"note": 0, "velocity": 0, "duration": 97}, {"note": 72, "velocity": 100, "duration": 134}, {"note": 0, "velocity": 0, "duration": 106}, {"note": 72, "velocity": 112, "duration": 164}, {"note": 0, "velocity": 0, "duration": 76}, {"note": 74, "velocity": 127, "duration": 172}, {"note": 0, "velocity": 0, "duration": 68}, {"note": 79, "velocity": 127, "duration": 423}, {"note": 74, "velocity": 127, "duration": 287}, {"note": 0, "velocity": 0, "duration": 193}, {"note": 77, "velocity": 112, "duration": 149}, {"note": 0, "velocity": 0, "duration": 91}, {"note": 77, "velocity": 112, "duration": 82}, {"note": 79, "velocity": 97, "duration": 67}, {"note": 81, "velocity": 122, "duration": 212}, {"note": 77, "velocity": 107, "duration": 224}, {"note": 79, "velocity": 127, "duration": 480}, {"note": 0, "velocity": 0, "duration": 1440}, {"note": 74, "velocity": 117, "duration": 173}, {"note": 0, "velocity": 0, "duration": 67}, {"note": 74, "velocity": 102, "duration": 142}, {"note": 0, "velocity": 0, "duration": 98}, {"note": 74, "velocity": 107, "duration": 218}, {"note": 82, "velocity": 127, "duration": 184}, {"note": 79, "velocity": 117, "duration": 480}, {"note": 0, "velocity": 0, "duration": 240}, {"note": 77, "velocity": 112, "duration": 105}, {"note": 79, "velocity": 93, "duration": 57}, {"note": 0, "velocity": 0, "duration": 63}, {"note": 79, "velocity": 127, "duration": 220}, {"note": 77, "velocity": 97, "duration": 196}, {"note": 72, "velocity": 95, "duration": 196}, {"note": 79, "velocity": 112, "duration": 181}, {"note": 77, "velocity": 112, "duration": 467}, {"note": 0, "velocity": 0, "duration": 493}, {"note": 72, "velocity": 100, "duration": 127}, {"note": 0, "velocity": 0, "duration": 113}, {"note": 72, "velocity": 102, "duration": 150}, {"note": 0, "velocity": 0, "duration": 90}, {"note": 72, "velocity": 102, "duration": 133}, {"note": 0, "velocity": 0, "duration": 107}, {"note": 74, "velocity": 112, "duration": 130}, {"note": 0, "velocity": 0, "duration": 110}, {"note": 72, "velocity": 122, "duration": 200}, {"note": 70, "velocity": 112, "duration": 202}, {"note": 67, "velocity": 102, "duration": 316}, {"note": 0, "velocity": 0, "duration": 164}, {"note": 70, "velocity": 127, "duration": 139}, {"note": 0, "velocity": 0, "duration": 101}, {"note": 67, "velocity": 102, "duration": 50}, {"note": 0, "velocity": 0, "duration": 70}, {"note": 67, "velocity": 97, "duration": 66}, {"note": 79, "velocity": 112, "duration": 176}, {"note": 0, "velocity": 0, "duration": 64}, {"note": 77, "velocity": 127, "duration": 173}, {"note": 0, "velocity": 0, "duration": 67}, {"note": 74, "velocity": 127, "duration": 749}, {"note": 0, "velocity": 0, "duration": 211}, {"note": 74, "velocity": 107, "duration": 143}, {"note": 0, "velocity": 0, "duration": 97}, {"note": 74, "velocity": 97, "duration": 137}, {"note": 0, "velocity": 0, "duration": 103}, {"note": 74, "velocity": 100, "duration": 151}, {"note": 0, "velocity": 0, "duration": 89}, {"note": 82, "velocity": 122, "duration": 170}, {"note": 0, "velocity": 0, "duration": 70}, {"note": 79, "velocity": 127, "duration": 761}, {"note": 77, "velocity": 97, "duration": 97}, {"note": 79, "velocity": 100, "duration": 79}, {"note": 82, "velocity": 127, "duration": 235}, {"note": 0, "velocity": 0, "duration": 125}, {"note": 79, "velocity": 117, "duration": 103}, {"note": 77, "velocity": 107, "duration": 132}, {"note": 0, "velocity": 0, "duration": 108}, {"note": 72, "velocity": 97, "duration": 92}, {"note": 77, "velocity": 97, "duration": 98}, {"note": 74, "velocity": 127, "duration": 437}, {"note": 0, "velocity": 0, "duration": 523}, {"note": 72, "velocity": 107, "duration": 143}, {"note": 0, "velocity": 0, "duration": 97}, {"note": 72, "velocity": 100, "duration": 134}, {"note": 0, "velocity": 0, "duration": 106}, {"note": 72, "velocity": 112, "duration": 164}, {"note": 0, "velocity": 0, "duration": 76}, {"note": 74, "velocity": 127, "duration": 172}, {"note": 0, "velocity": 0, "duration": 68}, {"note": 79, "velocity": 127, "duration": 197}, {"note": 77, "velocity": 102, "duration": 103}, {"note": 74, "velocity": 102, "duration": 536}, {"note": 0, "velocity": 0, "duration": 64}, {"note": 77, "velocity": 112, "duration": 149}, {"note": 0, "velocity": 0, "duration": 91}, {"note": 77, "velocity": 112, "duration": 82}, {"note": 79, "velocity": 97, "duration": 67}, {"note": 81, "velocity": 122, "duration": 212}, {"note": 77, "velocity": 107, "duration": 224}, {"note": 79, "velocity": 127, "duration": 851}, {"note": 0, "velocity": 0, "duration": 109}, {"note": 72, "velocity": 102, "duration": 158}, {"note": 0, "velocity": 0, "duration": 82}, {"note": 72, "velocity": 102, "duration": 148}, {"note": 0, "velocity": 0, "duration": 92}, {"note": 72, "velocity": 102, "duration": 149}, {"note": 0, "velocity": 0, "duration": 91}, {"note": 74, "velocity": 127, "duration": 236}, {"note": 79, "velocity": 127, "duration": 210}, {"note": 77, "velocity": 127, "duration": 254}, {"note": 74, "velocity": 117, "duration": 349}, {"note": 0, "velocity": 0, "duration": 131}, {"note": 77, "velocity": 117, "duration": 183}, {"note": 77, "velocity": 112, "duration": 146}, {"note": 79, "velocity": 102, "duration": 157}, {"note": 81, "velocity": 127, "duration": 232}, {"note": 77, "velocity": 107, "duration": 1107}, {"note": 79, "velocity": 127, "duration": 3036}]]