[[{"note": 72, "velocity": 99, "duration": 133}, {"note": 75, "velocity": 107, "duration": 308}, {"note": 75, "velocity": 92, "duration": 68}, {"note": 77, "velocity": 92, "duration": 114}, {"note": 80, "velocity": 100, "duration": 126}, {"note": 77, "velocity": 76, "duration": 132}, {"note": 75, "velocity": 112, "duration": 604}, {"note": 0, "velocity": 0, "duration": 476}, {"note": 72, "velocity": 99, "duration": 125}, {"note": 75, "velocity": 83, "duration": 247}, {"note": 0, "velocity": 0, "duration": 113}, {"note": 77, "velocity": 99, "duration": 108}, {"note": 80, "velocity": 97, "duration": 96}, {"note": 82, "velocity": 96, "duration": 67}, {"note": 84, "velocity": 112, "duration": 730}, {"note": 0, "velocity": 0, "duration": 350}, {"note": 84, "velocity": 127, "duration": 64}, {"note": 84, "velocity": 93, "duration": 56}, {"note": 0, "velocity": 0, "duration": 64}, {"note": 84, "velocity": 107, "duration": 48}, {"note": 0, "velocity": 0, "duration": 72}, {"note": 84, "velocity": 100, "duration": 45}, {"note": 0, "velocity": 0, "duration": 75}, {"note": 84, "velocity": 127, "duration": 209}, {"note": 84, "velocity": 97, "duration": 89}, {"note": 0, "velocity": 0, "duration": 151}, {"note": 72, "velocity": 99, "duration": 133}, {"note": 77, "velocity": 107, "duration": 236}, {"note": 75, "velocity": 107, "duration": 548}, {"note": 0, "velocity": 0, "duration": 172}, {"note": 84, "velocity": 107, "duration": 45}, {"note": 0, "velocity": 0, "duration": 75}, {"note": 84, "velocity": 81, "duration": 45}, {"note": 0, "velocity": 0, "duration": 75}, {"note": 84, "velocity": 96, "duration": 44}, {"note": 0, "velocity": 0, "duration": 76}, {"note": 84, "velocity": 82, "duration": 45}, {"note": 0, "velocity": 0, "duration": 75}, {"note": 84, "velocity": 100, "duration": 47}, {"note": 0, "velocity": 0, "duration": 73}, {"note": 84, "velocity": 97, "duration": 150}, {"note": 0, "velocity": 0, "duration": 90}, {"note": 80, "velocity": 89, "duration": 56}, {"note": 0, "velocity": 0, "duration": 64}, {"note": 80, "velocity": 102, "duration": 227}, {"note": 82, "velocity": 117, "duration": 568}, {"note": 0, "velocity": 0, "duration": 152}, {"note": 72, "velocity": 93, "duration": 106}, {"note": 75, "velocity": 97, "duration": 172}, {"note": 0, "velocity": 0, "duration": 68}, {"note": 75, "velocity": 97, "duration": 128}, {"note": 77, "velocity": 86, "duration": 121}, {"note": 80, "velocity": 97, "duration": 146}, {"note": 77, "velocity": 86, "duration": 116}, {"note": 75, "velocity": 96, "duration": 856}, {"note": 0, "velocity": 0, "duration": 224}, {"note": 72, "velocity": 97, "duration": 118}, {"note": 75, "velocity": 100, "duration": 227}, {"note": 0, "velocity": 0, "duration": 133}, {"note": 77, "velocity": 93, "duration": 91}, {"note": 80, "velocity": 99, "duration": 82}, {"note": 82, "velocity": 96, "duration": 75}, {"note": 84, "velocity": 102, "duration": 856}, {"note": 0, "velocity": 0, "duration": 224}, {"note": 84, "velocity": 100, "duration": 51}, {"note": 0, "velocity": 0, "duration": 69}, {"note": 84, "velocity": 90, "duration": 48}, {"note": 0, "velocity": 0, "duration": 72}, {"note": 84, "velocity": 97, "duration": 44}, {"note": 0, "velocity": 0, "duration": 76}, {"note": 84, "velocity": 92, "duration": 42}, {"note": 0, "velocity": 0, "duration": 78}, {"note": 84, "velocity": 112, "duration": 45}, {"note": 0, "velocity": 0, "duration": 75}, {"note": 84, "velocity": 107, "duration": 77}, {"note": 0, "velocity": 0, "duration": 163}, {"note": 72, "velocity": 83, "duration": 124}, {"note": 77, "velocity": 97, "duration": 238}, {"note": 75, "velocity": 92, "duration": 619}, {"note": 0, "velocity": 0, "duration": 101}, {"note": 84, "velocity": 102, "duration": 46}, {"note": 0, "velocity": 0, "duration": 74}, {"note": 84, "velocity": 90, "duration": 45}, {"note": 0, "velocity": 0, "duration": 75}, {"note": 84, "velocity": 96, "duration": 46}, {"note": 0, "velocity": 0, "duration": 74}, {"note": 84, "velocity": 88, "duration": 51}, {"note": 0, "velocity": 0, "duration": 69}, {"note": 84, "velocity": 97, "duration": 45}, {"note": 0, "velocity": 0, "duration": 75}, {"note": 84, "velocity": 117, "duration": 118}, {"note": 0, "velocity": 0, "duration": 122}, {"note": 80, "velocity": 102, "duration": 46}, {"note": 0, "velocity": 0, "duration": 74}, {"note": 80, "velocity": 117, "duration": 148}, {"note": 0, "velocity": 0, "duration": 92}, {"note": 82, "velocity": 127, "duration": 711}, {"note": 82, "velocity": 112, "duration": 36}, {"note": 0, "velocity": 0, "duration": 84}, {"note": 82, "velocity": 96, "duration": 47}, {"note": 0, "velocity": 0, "duration": 73}, {"note": 82, "velocity": 107, "duration": 49}, {"note": 0, "velocity": 0, "duration": 71}, {"note": 82, "velocity": 99, "duration": 49}, {"note": 0, "velocity": 0, "duration": 71}, {"note": 82, "velocity": 107, "duration": 53}, {"note": 0, "velocity": 0, "duration": 67}, {"note": 84, "velocity": 107, "duration": 130}, {"note": 0, "velocity": 0, "duration": 110}, {"note": 82, "velocity": 127, "duration": 60}, {"note": 80, "velocity": 100, "duration": 182}, {"note": 77, "velocity": 96, "duration": 425}, {"note": 0, "velocity": 0, "duration": 295}, {"note": 84, "velocity": 122, "duration": 107}, {"note": 82, "velocity": 96, "duration": 135}, {"note": 80, "velocity": 90, "duration": 119}, {"note": 77, "velocity": 88, "duration": 114}, {"note": 82, "velocity": 112, "duration": 131}, {"note": 80, "velocity": 122, "duration": 187}, {"note": 72, "velocity": 92, "duration": 128}, {"note": 77, "velocity": 100, "duration": 244}, {"note": 75, "velocity": 112, "duration": 492}, {"note": 0, "velocity": 0, "duration": 228}, {"note": 82, "velocity": 117, "duration": 41}, {"note": 0, "velocity": 0, "duration": 79}, {"note": 82, "velocity": 107, "duration": 42}, {"note": 0, "velocity": 0, "duration": 78}, {"note": 82, "velocity": 107, "duration": 43}, {"note": 0, "velocity": 0, "duration": 77}, {"note": 82, "velocity": 99, "duration": 39}, {"note": 0, "velocity": 0, "duration": 81}, {"note": 82, "velocity": 117, "duration": 40}, {"note": 0, "velocity": 0, "duration": 80}, {"note": 84, "velocity": 112, "duration": 177}, {"note": 0, "velocity": 0, "duration": 63}, {"note": 82, "velocity": 122, "duration": 110}, {"note": 80, "velocity": 117, "duration": 221}, {"note": 77, "velocity": 96, "duration": 525}, {"note": 0, "velocity": 0, "duration": 195}, {"note": 84, "velocity": 112, "duration": 67}, {"note": 82, "velocity": 100, "duration": 46}, {"note": 0, "velocity": 0, "duration": 74}, {"note": 84, "velocity": 97, "duration": 68}, {"note": 82, "velocity": 112, "duration": 68}, {"note": 84, "velocity": 100, "duration": 64}, {"note": 89, "velocity": 97, "duration": 156}, {"note": 0, "velocity": 0, "duration": 84}, {"note": 84, "velocity": 90, "duration": 62}, {"note": 84, "velocity": 102, "duration": 174}, {"note": 0, "velocity": 0, "duration": 66}, {"note": 87, "velocity": 127, "duration": 481}, {"note": 80, "velocity": 122, "duration": 88}, {"note": 82, "velocity": 86, "duration": 83}, {"note": 84, "velocity": 112, "duration": 146}, {"note": 0, "velocity": 0, "duration": 94}, {"note": 87, "velocity": 122, "duration": 48}, {"note": 0, "velocity": 0, "duration": 72}, {"note": 87, "velocity": 122, "duration": 166}, {"note": 0, "velocity": 0, "duration": 194}, {"note": 89, "velocity": 127, "duration": 285}, {"note": 84, "velocity": 107, "duration": 186}, {"note": 87, "velocity": 107, "duration": 48}, {"note": 0, "velocity": 0, "duration": 72}, {"note": 87, "velocity": 117, "duration": 342}, {"note": 0, "velocity": 0, "duration": 258}, {"note": 89, "velocity": 127, "duration": 43}, {"note": 0, "velocity": 0, "duration": 77}, {"note": 89, "velocity": 95, "duration": 43}, {"note": 0, "velocity": 0, "duration": 77}, {"note": 89, "velocity": 83, "duration": 45}, {"note": 0, "velocity": 0, "duration": 75}, {"note": 89, "velocity": 99, "duration": 46}, {"note": 0, "velocity": 0, "duration": 74}, {"note": 89, "velocity": 117, "duration": 47}, {"note": 0, "velocity": 0, "duration": 73}, {"note": 89, "velocity": 127, "duration": 106}, {"note": 0, "velocity": 0, "duration": 134}, {"note": 84, "velocity": 96, "duration": 61}, {"note": 84, "velocity": 112, "duration": 146}, {"note": 0, "velocity": 0, "duration": 94}, {"note": 87, "velocity": 127, "duration": 464}, {"note": 80, "velocity": 122, "duration": 62}, {"note": 82, "velocity": 107, "duration": 62}, {"note": 84, "velocity": 127, "duration": 286}, {"note": 87, "velocity": 127, "duration": 45}, {"note": 0, "velocity": 0, "duration": 74}, {"note": 87, "velocity": 107, "duration": 240}, {"note": 0, "velocity": 0, "duration": 120}, {"note": 89, "velocity": 127, "duration": 136}, {"note": 0, "velocity": 0, "duration": 104}, {"note": 84, "velocity": 122, "duration": 223}, {"note": 87, "velocity": 112, "duration": 108}, {"note": 87, "velocity": 127, "duration": 204}, {"note": 0, "velocity": 0, "duration": 396}, {"note": 89, "velocity": 107, "duration": 97}, {"note": 87, "velocity": 97, "duration": 114}, {"note": 84, "velocity": 112, "duration": 124}, {"note": 82, "velocity": 102, "duration": 100}, {"note": 84, "velocity": 99, "duration": 89}, {"note": 82, "velocity": 117, "duration": 97}, {"note": 80, "velocity": 107, "duration": 90}, {"note": 77, "velocity": 95, "duration": 113}, {"note": 82, "velocity": 117, "duration": 105}, {"note": 80, "velocity": 122, "duration": 94}, {"note": 77, "velocity": 95, "duration": 94}, {"note": 75, "velocity": 117, "duration": 80}, {"note": 75, "velocity": 100, "duration": 100}, {"note": 77, "velocity": 95, "duration": 121}, {"note": 80, "velocity": 99, "duration": 96}, {"note": 82, "velocity": 99, "duration": 86}, {"note": 84, "velocity": 102, "duration": 230}, {"note": 87, "velocity": 117, "duration": 126}, {"note": 0, "velocity": 0, "duration": 114}, {"note": 87, "velocity": 107, "duration": 57}, {"note": 0, "velocity": 0, "duration": 63}, {"note": 87, "velocity": 92, "duration": 86}, {"note": 77, "velocity": 99, "duration": 161}, {"note": 0, "velocity": 0, "duration": 79}, {"note": 80, "velocity": 122, "duration": 1472}, {"note": 0, "velocity": 0, "duration": 8128}, {"note": 74, "velocity": 93, "duration": 106}, {"note": 77, "velocity": 97, "duration": 172}, {"note": 0, "velocity": 0, "duration": 68}, {"note": 77, "velocity": 97, "duration": 128}, {"note": 79, "velocity": 86, "duration": 121}, {"note": 82, "velocity": 97, "duration": 146}, {"note": 79, "velocity": 86, "duration": 116}, {"note": 77, "velocity": 96, "duration": 856}, {"note": 0, "velocity": 0, "duration": 224}, {"note": 74, "velocity": 97, "duration": 118}, {"note": 77, "velocity": 100, "duration": 227}, {"note": 0, "velocity": 0, "duration": 133}, {"note": 79, "velocity": 93, "duration": 91}, {"note": 82, "velocity": 99, "duration": 82}, {"note": 84, "velocity": 96, "duration": 75}, {"note": 86, "velocity": 102, "duration": 856}, {"note": 0, "velocity": 0, "duration": 224}, {"note": 86, "velocity": 100, "duration": 51}, {"note": 0, "velocity": 0, "duration": 69}, {"note": 86, "velocity": 90, "duration": 48}, {"note": 0, "velocity": 0, "duration": 72}, {"note": 86, "velocity": 97, "duration": 44}, {"note": 0, "velocity": 0, "duration": 76}, {"note": 86, "velocity": 92, "duration": 42}, {"note": 0, "velocity": 0, "duration": 78}, {"note": 86, "velocity": 112, "duration": 45}, {"note": 0, "velocity": 0, "duration": 75}, {"note": 86, "velocity": 107, "duration": 77}, {"note": 0, "velocity": 0, "duration": 163}, {"note": 74, "velocity": 83, "duration": 124}, {"note": 79, "velocity": 97, "duration": 238}, {"note": 77, "velocity": 92, "duration": 619}, {"note": 0, "velocity": 0, "duration": 101}, {"note": 86, "velocity": 102, "duration": 46}, {"note": 0, "velocity": 0, "duration": 74}, {"note": 86, "velocity": 90, "duration": 45}, {"note": 0, "velocity": 0, "duration": 75}, {"note": 86, "velocity": 96, "duration": 46}, {"note": 0, "velocity": 0, "duration": 74}, {"note": 86, "velocity": 88, "duration": 51}, {"note": 0, "velocity": 0, "duration": 69}, {"note": 86, "velocity": 97, "duration": 45}, {"note": 0, "velocity": 0, "duration": 75}, {"note": 86, "velocity": 117, "duration": 118}, {"note": 0, "velocity": 0, "duration": 122}, {"note": 82, "velocity": 102, "duration": 46}, {"note": 0, "velocity": 0, "duration": 74}, {"note": 82, "velocity": 117, "duration": 148}, {"note": 0, "velocity": 0, "duration": 92}, {"note": 84, "velocity": 127, "duration": 711}, {"note": 0, "velocity": 0, "duration": 7689}, {"note": 84, "velocity": 112, "duration": 36}, {"note": 0, "velocity": 0, "duration": 84}, {"note": 84, "velocity": 96, "duration": 47}, {"note": 0, "velocity": 0, "duration": 73}, {"note": 84, "velocity": 107, "duration": 49}, {"note": 0, "velocity": 0, "duration": 71}, {"note": 84, "velocity": 99, "duration": 49}, {"note": 0, "velocity": 0, "duration": 71}, {"note": 84, "velocity": 107, "duration": 53}, {"note": 0, "velocity": 0, "duration": 67}, {"note": 86, "velocity": 107, "duration": 130}, {"note": 0, "velocity": 0, "duration": 110}, {"note": 84, "velocity": 127, "duration": 60}, {"note": 82, "velocity": 100, "duration": 182}, {"note": 79, "velocity": 96, "duration": 425}, {"note": 0, "velocity": 0, "duration": 295}, {"note": 86, "velocity": 122, "duration": 107}, {"note": 84, "velocity": 96, "duration": 135}, {"note": 82, "velocity": 90, "duration": 119}, {"note": 79, "velocity": 88, "duration": 114}, {"note": 84, "velocity": 112, "duration": 131}, {"note": 82, "velocity": 122, "duration": 187}, {"note": 74, "velocity": 92, "duration": 128}, {"note": 79, "velocity": 100, "duration": 244}, {"note": 77, "velocity": 112, "duration": 492}, {"note": 0, "velocity": 0, "duration": 228}, {"note": 84, "velocity": 117, "duration": 41}, {"note": 0, "velocity": 0, "duration": 79}, {"note": 84, "velocity": 107, "duration": 42}, {"note": 0, "velocity": 0, "duration": 78}, {"note": 84, "velocity": 107, "duration": 43}, {"note": 0, "velocity": 0, "duration": 77}, {"note": 84, "velocity": 99, "duration": 39}, {"note": 0, "velocity": 0, "duration": 81}, {"note": 84, "velocity": 117, "duration": 40}, {"note": 0, "velocity": 0, "duration": 80}, {"note": 86, "velocity": 112, "duration": 177}, {"note": 0, "velocity": 0, "duration": 63}, {"note": 84, "velocity": 122, "duration": 110}, {"note": 82, "velocity": 117, "duration": 221}, {"note": 79, "velocity": 96, "duration": 525}, {"note": 0, "velocity": 0, "duration": 195}, {"note": 86, "velocity": 112, "duration": 67}, {"note": 84, "velocity": 100, "duration": 46}, {"note": 0, "velocity": 0, "duration": 74}, {"note": 86, "velocity": 97, "duration": 68}, {"note": 84, "velocity": 112, "duration": 68}, {"note": 86, "velocity": 100, "duration": 64}, {"note": 91, "velocity": 97, "duration": 156}, {"note": 0, "velocity": 0, "duration": 84}, {"note": 86, "velocity": 90, "duration": 62}, {"note": 86, "velocity": 102, "duration": 174}, {"note": 0, "velocity": 0, "duration": 66}, {"note": 89, "velocity": 127, "duration": 481}, {"note": 82, "velocity": 122, "duration": 88}, {"note": 84, "velocity": 86, "duration": 83}, {"note": 86, "velocity": 112, "duration": 146}, {"note": 0, "velocity": 0, "duration": 94}, {"note": 89, "velocity": 122, "duration": 48}, {"note": 0, "velocity": 0, "duration": 72}, {"note": 89, "velocity": 122, "duration": 166}, {"note": 0, "velocity": 0, "duration": 194}, {"note": 91, "velocity": 127, "duration": 285}, {"note": 86, "velocity": 107, "duration": 186}, {"note": 89, "velocity": 107, "duration": 48}, {"note": 0, "velocity": 0, "duration": 72}, {"note": 89, "velocity": 117, "duration": 342}, {"note": 0, "velocity": 0, "duration": 258}, {"note": 91, "velocity": 127, "duration": 43}, {"note": 0, "velocity": 0, "duration": 77}, {"note": 91, "velocity": 95, "duration": 43}, {"note": 0, "velocity": 0, "duration": 77}, {"note": 91, "velocity": 83, "duration": 45}, {"note": 0, "velocity": 0, "duration": 75}, {"note": 91, "velocity": 99, "duration": 46}, {"note": 0, "velocity": 0, "duration": 74}, {"note": 91, "velocity": 117, "duration": 47}, {"note": 0, "velocity": 0, "duration": 73}, {"note": 91, "velocity": 127, "duration": 106}, {"note": 0, "velocity": 0, "duration": 134}, {"note": 86, "velocity": 96, "duration": 61}, {"note": 86, "velocity": 112, "duration": 146}, {"note": 0, "velocity": 0, "duration": 94}, {"note": 89, "velocity": 127, "duration": 464}, {"note": 82, "velocity": 122, "duration": 62}, {"note": 84, "velocity": 107, "duration": 62}, {"note": 86, "velocity": 127, "duration": 286}, {"note": 89, "velocity": 127, "duration": 45}, {"note": 0, "velocity": 0, "duration": 74}, {"note": 89, "velocity": 107, "duration": 240}, {"note": 0, "velocity": 0, "duration": 120}, {"note": 91, "velocity": 127, "duration": 136}, {"note": 0, "velocity": 0, "duration": 104}, {"note": 86, "velocity": 122, "duration": 223}, {"note": 89, "velocity": 112, "duration": 108}, {"note": 89, "velocity": 127, "duration": 204}, {"note": 0, "velocity": 0, "duration": 396}, {"note": 91, "velocity": 107, "duration": 97}, {"note": 89, "velocity": 97, "duration": 114}, {"note": 86, "velocity": 112, "duration": 124}, {"note": 84, "velocity": 102, "duration": 100}, {"note": 86, "velocity": 99, "duration": 89}, {"note": 84, "velocity": 117, "duration": 97}, {"note": 82, "velocity": 107, "duration": 90}, {"note": 79, "velocity": 95, "duration": 113}, {"note": 84, "velocity": 117, "duration": 105}, {"note": 82, "velocity": 122, "duration": 94}, {"note": 79, "velocity": 95, "duration": 94}, {"note": 77, "velocity": 117, "duration": 80}, {"note": 77, "velocity": 100, "duration": 100}, {"note": 79, "velocity": 95, "duration": 121}, {"note": 82, "velocity": 99, "duration": 96}, {"note": 84, "velocity": 99, "duration": 86}, {"note": 86, "velocity": 102, "duration": 230}, {"note": 89, "velocity": 117, "duration": 126}, {"note": 0, "velocity": 0, "duration": 114}, {"note": 89, "velocity": 107, "duration": 57}, {"note": 0, "velocity": 0, "duration": 63}, {"note": 89, "velocity": 92, "duration": 86}, {"note": 79, "velocity": 99, "duration": 161}, {"note": 0, "velocity": 0, "duration": 79}, {"note": 82, "velocity": 122, "duration": 480}, {"note": 0, "velocity": 0, "duration": 240}, {"note": 82, "velocity": 122, "duration": 88}, {"note": 84, "velocity": 86, "duration": 83}, {"note": 86, "velocity": 112, "duration": 146}, {"note": 0, "velocity": 0, "duration": 94}, {"note": 89, "velocity": 122, "duration": 48}, {"note": 0, "velocity": 0, "duration": 72}, {"note": 89, "velocity": 122, "duration": 166}, {"note": 0, "velocity": 0, "duration": 194}, {"note": 91, "velocity": 127, "duration": 285}, {"note": 86, "velocity": 107, "duration": 186}, {"note": 89, "velocity": 107, "duration": 48}, {"note": 0, "velocity": 0, "duration": 72}, {"note": 89, "velocity": 117, "duration": 342}, {"note": 0, "velocity": 0, "duration": 258}, {"note": 91, "velocity": 127, "duration": 43}, {"note": 0, "velocity": 0, "duration": 77}, {"note": 91, "velocity": 95, "duration": 43}, {"note": 0, "velocity": 0, "duration": 77}, {"note": 91, "velocity": 83, "duration": 45}, {"note": 0, "velocity": 0, "duration": 75}, {"note": 91, "velocity": 99, "duration": 46}, {"note": 0, "velocity": 0, "duration": 74}, {"note": 91, "velocity": 117, "duration": 47}, {"note": 0, "velocity": 0, "duration": 73}, {"note": 91, "velocity": 127, "duration": 106}, {"note": 0, "velocity": 0, "duration": 134}, {"note": 86, "velocity": 96, "duration": 61}, {"note": 86, "velocity": 112, "duration": 146}, {"note": 0, "velocity": 0, "duration": 94}, {"note": 89, "velocity": 127, "duration": 464}, {"note": 82, "velocity": 122, "duration": 62}, {"note": 84, "velocity": 107, "duration": 62}, {"note": 86, "velocity": 127, "duration": 286}, {"note": 89, "velocity": 127, "duration": 45}, {"note": 0, "velocity": 0, "duration": 74}, {"note": 89, "velocity": 107, "duration": 240}, {"note": 0, "velocity": 0, "duration": 120}, {"note": 91, "velocity": 127, "duration": 136}, {"note": 0, "velocity": 0, "duration": 104}, {"note": 86, "velocity": 122, "duration": 223}, {"note": 89, "velocity": 112, "duration": 108}, {"note": 89, "velocity": 127, "duration": 204}, {"note": 0, "velocity": 0, "duration": 396}, {"note": 91, "velocity": 107, "duration": 97}, {"note": 89, "velocity": 97, "duration": 114}, {"note": 86, "velocity": 112, "duration": 124}, {"note": 84, "velocity": 102, "duration": 100}, {"note": 86, "velocity": 99, "duration": 89}, {"note": 84, "velocity": 117, "duration": 97}, {"note": 82, "velocity": 107, "duration": 90}, {"note": 79, "velocity": 95, "duration": 113}, {"note": 84, "velocity": 117, "duration": 105}, {"note": 82, "velocity": 122, "duration": 94}, {"note": 79, "velocity": 95, "duration": 94}, {"note": 77, "velocity": 117, "duration": 80}, {"note": 77, "velocity": 100, "duration": 100}, {"note": 79, "velocity": 95, "duration": 121}, {"note": 82, "velocity": 99, "duration": 96}, {"note": 84, "velocity": 99, "duration": 86}, {"note": 86, "velocity": 102, "duration": 230}, {"note": 89, "velocity": 117, "duration": 126}, {"note": 0, "velocity": 0, "duration": 114}, {"note": 89, "velocity": 107, "duration": 57}, {"note": 0, "velocity": 0, "duration": 63}, {"note": 89, "velocity": 92, "duration": 86}, {"note": 79, "velocity": 99, "duration": 161}, {"note": 0, "velocity": 0, "duration": 79}, {"note": 82, "velocity": 122, "duration": 810}]]