[[{"note": 66, "velocity": 117, "duration": 228}, {"note": 68, "velocity": 100, "duration": 176}, {"note": 70, "velocity": 102, "duration": 101}, {"note": 73, "velocity": 127, "duration": 256}, {"note": 0, "velocity": 0, "duration": 64}, {"note": 73, "velocity": 122, "duration": 63}, {"note": 0, "velocity": 0, "duration": 97}, {"note": 73, "velocity": 127, "duration": 640}, {"note": 0, "velocity": 0, "duration": 320}, {"note": 66, "velocity": 107, "duration": 187}, {"note": 68, "velocity": 96, "duration": 152}, {"note": 70, "velocity": 95, "duration": 159}, {"note": 75, "velocity": 112, "duration": 227}, {"note": 0, "velocity": 0, "duration": 93}, {"note": 75, "velocity": 122, "duration": 102}, {"note": 73, "velocity": 127, "duration": 738}, {"note": 0, "velocity": 0, "duration": 222}, {"note": 63, "velocity": 117, "duration": 138}, {"note": 65, "velocity": 81, "duration": 162}, {"note": 66, "velocity": 107, "duration": 165}, {"note": 68, "velocity": 102, "duration": 235}, {"note": 0, "velocity": 0, "duration": 85}, {"note": 70, "velocity": 112, "duration": 149}, {"note": 75, "velocity": 117, "duration": 293}, {"note": 73, "velocity": 112, "duration": 395}, {"note": 0, "velocity": 0, "duration": 85}, {"note": 70, "velocity": 117, "duration": 55}, {"note": 0, "velocity": 0, "duration": 105}, {"note": 68, "velocity": 107, "duration": 247}, {"note": 70, "velocity": 99, "duration": 595}, {"note": 0, "velocity": 0, "duration": 1165}, {"note": 66, "velocity": 117, "duration": 228}, {"note": 68, "velocity": 100, "duration": 176}, {"note": 70, "velocity": 102, "duration": 101}, {"note": 73, "velocity": 127, "duration": 256}, {"note": 0, "velocity": 0, "duration": 64}, {"note": 73, "velocity": 122, "duration": 63}, {"note": 0, "velocity": 0, "duration": 97}, {"note": 73, "velocity": 127, "duration": 640}, {"note": 0, "velocity": 0, "duration": 320}, {"note": 66, "velocity": 107, "duration": 187}, {"note": 68, "velocity": 96, "duration": 152}, {"note": 70, "velocity": 95, "duration": 159}, {"note": 75, "velocity": 112, "duration": 227}, {"note": 0, "velocity": 0, "duration": 93}, {"note": 75, "velocity": 122, "duration": 102}, {"note": 73, "velocity": 127, "duration": 163}, {"note": 75, "velocity": 127, "duration": 461}, {"note": 0, "velocity": 0, "duration": 339}, {"note": 63, "velocity": 117, "duration": 138}, {"note": 65, "velocity": 81, "duration": 162}, {"note": 66, "velocity": 107, "duration": 165}, {"note": 68, "velocity": 102, "duration": 235}, {"note": 0, "velocity": 0, "duration": 85}, {"note": 70, "velocity": 112, "duration": 149}, {"note": 75, "velocity": 117, "duration": 293}, {"note": 73, "velocity": 112, "duration": 395}, {"note": 0, "velocity": 0, "duration": 85}, {"note": 66, "velocity": 107, "duration": 104}, {"note": 63, "velocity": 107, "duration": 246}, {"note": 66, "velocity": 99, "duration": 1119}, {"note": 0, "velocity": 0, "duration": 488}, {"note": 78, "velocity": 122, "duration": 113}, {"note": 77, "velocity": 107, "duration": 321}, {"note": 0, "velocity": 0, "duration": 121}, {"note": 77, "velocity": 127, "duration": 246}, {"note": 0, "velocity": 0, "duration": 126}, {"note": 74, "velocity": 112, "duration": 116}, {"note": 70, "velocity": 107, "duration": 520}, {"note": 0, "velocity": 0, "duration": 254}, {"note": 70, "velocity": 117, "duration": 157}, {"note": 75, "velocity": 102, "duration": 260}, {"note": 75, "velocity": 127, "duration": 283}, {"note": 0, "velocity": 0, "duration": 197}, {"note": 77, "velocity": 127, "duration": 177}, {"note": 75, "velocity": 127, "duration": 420}, {"note": 0, "velocity": 0, "duration": 380}, {"note": 78, "velocity": 127, "duration": 93}, {"note": 0, "velocity": 0, "duration": 67}, {"note": 77, "velocity": 107, "duration": 194}, {"note": 0, "velocity": 0, "duration": 126}, {"note": 77, "velocity": 107, "duration": 63}, {"note": 0, "velocity": 0, "duration": 97}, {"note": 77, "velocity": 97, "duration": 57}, {"note": 0, "velocity": 0, "duration": 103}, {"note": 77, "velocity": 112, "duration": 81}, {"note": 0, "velocity": 0, "duration": 79}, {"note": 74, "velocity": 127, "duration": 144}, {"note": 70, "velocity": 111, "duration": 601}, {"note": 70, "velocity": 117, "duration": 75}, {"note": 0, "velocity": 0, "duration": 85}, {"note": 70, "velocity": 112, "duration": 86}, {"note": 0, "velocity": 0, "duration": 74}, {"note": 82, "velocity": 127, "duration": 271}, {"note": 80, "velocity": 127, "duration": 411}, {"note": 78, "velocity": 122, "duration": 175}, {"note": 77, "velocity": 90, "duration": 160}, {"note": 78, "velocity": 112, "duration": 703}, {"note": 0, "velocity": 0, "duration": 97}, {"note": 73, "velocity": 117, "duration": 117}, {"note": 75, "velocity": 107, "duration": 217}, {"note": 0, "velocity": 0, "duration": 103}, {"note": 75, "velocity": 112, "duration": 80}, {"note": 0, "velocity": 0, "duration": 80}, {"note": 75, "velocity": 127, "duration": 202}, {"note": 0, "velocity": 0, "duration": 118}, {"note": 75, "velocity": 117, "duration": 79}, {"note": 0, "velocity": 0, "duration": 81}, {"note": 75, "velocity": 127, "duration": 232}, {"note": 0, "velocity": 0, "duration": 88}, {"note": 75, "velocity": 117, "duration": 230}, {"note": 0, "velocity": 0, "duration": 90}, {"note": 73, "velocity": 112, "duration": 143}, {"note": 71, "velocity": 99, "duration": 152}, {"note": 73, "velocity": 107, "duration": 854}, {"note": 0, "velocity": 0, "duration": 106}, {"note": 70, "velocity": 127, "duration": 654}, {"note": 0, "velocity": 0, "duration": 146}, {"note": 73, "velocity": 117, "duration": 96}, {"note": 0, "velocity": 0, "duration": 64}, {"note": 75, "velocity": 112, "duration": 202}, {"note": 0, "velocity": 0, "duration": 118}, {"note": 75, "velocity": 122, "duration": 63}, {"note": 0, "velocity": 0, "duration": 97}, {"note": 75, "velocity": 122, "duration": 241}, {"note": 0, "velocity": 0, "duration": 79}, {"note": 75, "velocity": 100, "duration": 90}, {"note": 0, "velocity": 0, "duration": 70}, {"note": 75, "velocity": 117, "duration": 236}, {"note": 0, "velocity": 0, "duration": 84}, {"note": 78, "velocity": 127, "duration": 395}, {"note": 0, "velocity": 0, "duration": 85}, {"note": 75, "velocity": 107, "duration": 450}, {"note": 73, "velocity": 117, "duration": 1142}, {"note": 0, "velocity": 0, "duration": 138}, {"note": 73, "velocity": 122, "duration": 120}, {"note": 70, "velocity": 100, "duration": 152}, {"note": 68, "velocity": 89, "duration": 152}, {"note": 70, "velocity": 102, "duration": 1330}, {"note": 0, "velocity": 0, "duration": 110}, {"note": 73, "velocity": 127, "duration": 106}, {"note": 70, "velocity": 107, "duration": 157}, {"note": 68, "velocity": 93, "duration": 172}, {"note": 70, "velocity": 100, "duration": 371}, {"note": 0, "velocity": 0, "duration": 109}, {"note": 63, "velocity": 100, "duration": 1069}, {"note": 63, "velocity": 122, "duration": 109}, {"note": 65, "velocity": 97, "duration": 155}, {"note": 66, "velocity": 122, "duration": 149}, {"note": 68, "velocity": 117, "duration": 334}, {"note": 70, "velocity": 100, "duration": 117}, {"note": 68, "velocity": 100, "duration": 233}, {"note": 0, "velocity": 0, "duration": 87}, {"note": 70, "velocity": 112, "duration": 112}, {"note": 75, "velocity": 112, "duration": 265}, {"note": 0, "velocity": 0, "duration": 215}, {"note": 73, "velocity": 122, "duration": 264}, {"note": 70, "velocity": 127, "duration": 102}, {"note": 68, "velocity": 117, "duration": 243}, {"note": 0, "velocity": 0, "duration": 77}, {"note": 70, "velocity": 117, "duration": 1228}, {"note": 73, "velocity": 122, "duration": 95}, {"note": 70, "velocity": 99, "duration": 88}, {"note": 0, "velocity": 0, "duration": 72}, {"note": 68, "velocity": 100, "duration": 75}, {"note": 0, "velocity": 0, "duration": 85}, {"note": 70, "velocity": 127, "duration": 1267}, {"note": 0, "velocity": 0, "duration": 173}, {"note": 73, "velocity": 112, "duration": 100}, {"note": 70, "velocity": 100, "duration": 105}, {"note": 68, "velocity": 99, "duration": 72}, {"note": 0, "velocity": 0, "duration": 88}, {"note": 70, "velocity": 107, "duration": 256}, {"note": 0, "velocity": 0, "duration": 64}, {"note": 63, "velocity": 117, "duration": 607}, {"note": 0, "velocity": 0, "duration": 530}, {"note": 63, "velocity": 112, "duration": 100}, {"note": 65, "velocity": 90, "duration": 125}, {"note": 66, "velocity": 122, "duration": 92}, {"note": 0, "velocity": 0, "duration": 81}, {"note": 68, "velocity": 122, "duration": 208}, {"note": 0, "velocity": 0, "duration": 114}, {"note": 70, "velocity": 117, "duration": 77}, {"note": 0, "velocity": 0, "duration": 90}, {"note": 68, "velocity": 127, "duration": 223}, {"note": 0, "velocity": 0, "duration": 89}, {"note": 70, "velocity": 112, "duration": 71}, {"note": 0, "velocity": 0, "duration": 100}, {"note": 75, "velocity": 117, "duration": 264}, {"note": 73, "velocity": 122, "duration": 496}, {"note": 66, "velocity": 100, "duration": 58}, {"note": 0, "velocity": 0, "duration": 120}, {"note": 63, "velocity": 122, "duration": 305}, {"note": 66, "velocity": 117, "duration": 1568}, {"note": 0, "velocity": 0, "duration": 15259}, {"note": 78, "velocity": 122, "duration": 113}, {"note": 77, "velocity": 107, "duration": 321}, {"note": 0, "velocity": 0, "duration": 121}, {"note": 77, "velocity": 127, "duration": 246}, {"note": 0, "velocity": 0, "duration": 126}, {"note": 74, "velocity": 112, "duration": 116}, {"note": 70, "velocity": 107, "duration": 520}, {"note": 0, "velocity": 0, "duration": 254}, {"note": 70, "velocity": 117, "duration": 157}, {"note": 75, "velocity": 102, "duration": 260}, {"note": 75, "velocity": 127, "duration": 283}, {"note": 0, "velocity": 0, "duration": 197}, {"note": 77, "velocity": 127, "duration": 177}, {"note": 75, "velocity": 127, "duration": 420}, {"note": 0, "velocity": 0, "duration": 380}, {"note": 78, "velocity": 127, "duration": 93}, {"note": 0, "velocity": 0, "duration": 67}, {"note": 77, "velocity": 107, "duration": 194}, {"note": 0, "velocity": 0, "duration": 126}, {"note": 77, "velocity": 107, "duration": 63}, {"note": 0, "velocity": 0, "duration": 97}, {"note": 77, "velocity": 97, "duration": 57}, {"note": 0, "velocity": 0, "duration": 103}, {"note": 77, "velocity": 112, "duration": 81}, {"note": 0, "velocity": 0, "duration": 79}, {"note": 74, "velocity": 127, "duration": 144}, {"note": 70, "velocity": 111, "duration": 601}, {"note": 70, "velocity": 117, "duration": 75}, {"note": 0, "velocity": 0, "duration": 85}, {"note": 70, "velocity": 112, "duration": 86}, {"note": 0, "velocity": 0, "duration": 74}, {"note": 82, "velocity": 127, "duration": 271}, {"note": 80, "velocity": 127, "duration": 411}, {"note": 78, "velocity": 122, "duration": 175}, {"note": 77, "velocity": 90, "duration": 160}, {"note": 78, "velocity": 112, "duration": 703}, {"note": 0, "velocity": 0, "duration": 97}, {"note": 73, "velocity": 117, "duration": 117}, {"note": 75, "velocity": 107, "duration": 217}, {"note": 0, "velocity": 0, "duration": 103}, {"note": 75, "velocity": 112, "duration": 80}, {"note": 0, "velocity": 0, "duration": 80}, {"note": 75, "velocity": 127, "duration": 202}, {"note": 0, "velocity": 0, "duration": 118}, {"note": 75, "velocity": 117, "duration": 79}, {"note": 0, "velocity": 0, "duration": 81}, {"note": 75, "velocity": 127, "duration": 232}, {"note": 0, "velocity": 0, "duration": 88}, {"note": 75, "velocity": 117, "duration": 230}, {"note": 0, "velocity": 0, "duration": 90}, {"note": 73, "velocity": 112, "duration": 143}, {"note": 71, "velocity": 99, "duration": 152}, {"note": 73, "velocity": 107, "duration": 854}, {"note": 0, "velocity": 0, "duration": 106}, {"note": 70, "velocity": 127, "duration": 654}, {"note": 0, "velocity": 0, "duration": 146}, {"note": 73, "velocity": 117, "duration": 96}, {"note": 0, "velocity": 0, "duration": 64}, {"note": 75, "velocity": 112, "duration": 202}, {"note": 0, "velocity": 0, "duration": 118}, {"note": 75, "velocity": 122, "duration": 63}, {"note": 0, "velocity": 0, "duration": 97}, {"note": 75, "velocity": 122, "duration": 241}, {"note": 0, "velocity": 0, "duration": 79}, {"note": 75, "velocity": 100, "duration": 90}, {"note": 0, "velocity": 0, "duration": 70}, {"note": 75, "velocity": 117, "duration": 236}, {"note": 0, "velocity": 0, "duration": 84}, {"note": 78, "velocity": 127, "duration": 395}, {"note": 0, "velocity": 0, "duration": 85}, {"note": 75, "velocity": 107, "duration": 450}, {"note": 73, "velocity": 117, "duration": 1142}, {"note": 0, "velocity": 0, "duration": 138}, {"note": 73, "velocity": 122, "duration": 120}, {"note": 70, "velocity": 100, "duration": 152}, {"note": 68, "velocity": 89, "duration": 152}, {"note": 70, "velocity": 102, "duration": 1330}, {"note": 0, "velocity": 0, "duration": 110}, {"note": 73, "velocity": 127, "duration": 106}, {"note": 70, "velocity": 107, "duration": 157}, {"note": 68, "velocity": 93, "duration": 172}, {"note": 70, "velocity": 100, "duration": 371}, {"note": 0, "velocity": 0, "duration": 109}, {"note": 63, "velocity": 100, "duration": 1069}, {"note": 63, "velocity": 122, "duration": 109}, {"note": 65, "velocity": 97, "duration": 155}, {"note": 66, "velocity": 122, "duration": 149}, {"note": 68, "velocity": 117, "duration": 334}, {"note": 70, "velocity": 100, "duration": 117}, {"note": 68, "velocity": 100, "duration": 233}, {"note": 0, "velocity": 0, "duration": 87}, {"note": 70, "velocity": 112, "duration": 112}, {"note": 75, "velocity": 112, "duration": 265}, {"note": 0, "velocity": 0, "duration": 215}, {"note": 73, "velocity": 122, "duration": 264}, {"note": 70, "velocity": 127, "duration": 102}, {"note": 68, "velocity": 117, "duration": 243}, {"note": 0, "velocity": 0, "duration": 77}, {"note": 70, "velocity": 117, "duration": 1228}, {"note": 73, "velocity": 122, "duration": 95}, {"note": 70, "velocity": 99, "duration": 88}, {"note": 0, "velocity": 0, "duration": 72}, {"note": 68, "velocity": 100, "duration": 75}, {"note": 0, "velocity": 0, "duration": 85}, {"note": 70, "velocity": 127, "duration": 1267}, {"note": 0, "velocity": 0, "duration": 173}, {"note": 73, "velocity": 112, "duration": 100}, {"note": 70, "velocity": 100, "duration": 105}, {"note": 68, "velocity": 99, "duration": 72}, {"note": 0, "velocity": 0, "duration": 88}, {"note": 70, "velocity": 107, "duration": 256}, {"note": 0, "velocity": 0, "duration": 64}, {"note": 63, "velocity": 117, "duration": 607}, {"note": 0, "velocity": 0, "duration": 530}, {"note": 63, "velocity": 112, "duration": 100}, {"note": 65, "velocity": 90, "duration": 125}, {"note": 66, "velocity": 122, "duration": 92}, {"note": 0, "velocity": 0, "duration": 81}, {"note": 68, "velocity": 122, "duration": 208}, {"note": 0, "velocity": 0, "duration": 114}, {"note": 70, "velocity": 117, "duration": 77}, {"note": 0, "velocity": 0, "duration": 90}, {"note": 68, "velocity": 127, "duration": 223}, {"note": 0, "velocity": 0, "duration": 89}, {"note": 70, "velocity": 112, "duration": 71}, {"note": 0, "velocity": 0, "duration": 100}, {"note": 75, "velocity": 117, "duration": 264}, {"note": 73, "velocity": 122, "duration": 496}, {"note": 66, "velocity": 100, "duration": 58}, {"note": 0, "velocity": 0, "duration": 120}, {"note": 63, "velocity": 122, "duration": 305}, {"note": 66, "velocity": 117, "duration": 1140}, {"note": 63, "velocity": 99, "duration": 152}, {"note": 65, "velocity": 92, "duration": 170}, {"note": 66, "velocity": 112, "duration": 178}, {"note": 68, "velocity": 112, "duration": 275}, {"note": 70, "velocity": 102, "duration": 177}, {"note": 68, "velocity": 95, "duration": 258}, {"note": 0, "velocity": 0, "duration": 62}, {"note": 70, "velocity": 100, "duration": 87}, {"note": 0, "velocity": 0, "duration": 73}, {"note": 75, "velocity": 102, "duration": 459}, {"note": 73, "velocity": 107, "duration": 1275}, {"note": 0, "velocity": 0, "duration": 211}, {"note": 66, "velocity": 112, "duration": 972}, {"note": 63, "velocity": 100, "duration": 1705}, {"note": 66, "velocity": 102, "duration": 2704}]]