[[{"note": 73, "velocity": 107, "duration": 133}, {"note": 0, "velocity": 0, "duration": 107}, {"note": 73, "velocity": 122, "duration": 203}, {"note": 71, "velocity": 64, "duration": 141}, {"note": 0, "velocity": 0, "duration": 99}, {"note": 71, "velocity": 85, "duration": 187}, {"note": 66, "velocity": 100, "duration": 738}, {"note": 73, "velocity": 112, "duration": 175}, {"note": 0, "velocity": 0, "duration": 65}, {"note": 75, "velocity": 112, "duration": 231}, {"note": 0, "velocity": 0, "duration": 249}, {"note": 75, "velocity": 117, "duration": 1071}, {"note": 0, "velocity": 0, "duration": 369}, {"note": 73, "velocity": 122, "duration": 80}, {"note": 0, "velocity": 0, "duration": 160}, {"note": 73, "velocity": 112, "duration": 180}, {"note": 71, "velocity": 83, "duration": 138}, {"note": 0, "velocity": 0, "duration": 102}, {"note": 68, "velocity": 96, "duration": 146}, {"note": 0, "velocity": 0, "duration": 94}, {"note": 75, "velocity": 107, "duration": 636}, {"note": 0, "velocity": 0, "duration": 84}, {"note": 73, "velocity": 112, "duration": 186}, {"note": 71, "velocity": 92, "duration": 274}, {"note": 0, "velocity": 0, "duration": 206}, {"note": 68, "velocity": 102, "duration": 1042}, {"note": 0, "velocity": 0, "duration": 398}, {"note": 73, "velocity": 122, "duration": 98}, {"note": 0, "velocity": 0, "duration": 142}, {"note": 73, "velocity": 117, "duration": 218}, {"note": 71, "velocity": 90, "duration": 93}, {"note": 0, "velocity": 0, "duration": 147}, {"note": 71, "velocity": 93, "duration": 92}, {"note": 0, "velocity": 0, "duration": 148}, {"note": 68, "velocity": 102, "duration": 667}, {"note": 73, "velocity": 117, "duration": 72}, {"note": 0, "velocity": 0, "duration": 168}, {"note": 75, "velocity": 112, "duration": 179}, {"note": 0, "velocity": 0, "duration": 301}, {"note": 73, "velocity": 112, "duration": 1083}, {"note": 0, "velocity": 0, "duration": 357}, {"note": 73, "velocity": 117, "duration": 139}, {"note": 0, "velocity": 0, "duration": 101}, {"note": 73, "velocity": 117, "duration": 171}, {"note": 0, "velocity": 0, "duration": 69}, {"note": 71, "velocity": 89, "duration": 169}, {"note": 0, "velocity": 0, "duration": 71}, {"note": 75, "velocity": 102, "duration": 163}, {"note": 0, "velocity": 0, "duration": 77}, {"note": 73, "velocity": 122, "duration": 389}, {"note": 0, "velocity": 0, "duration": 91}, {"note": 73, "velocity": 95, "duration": 146}, {"note": 0, "velocity": 0, "duration": 94}, {"note": 78, "velocity": 112, "duration": 220}, {"note": 75, "velocity": 102, "duration": 243}, {"note": 0, "velocity": 0, "duration": 237}, {"note": 73, "velocity": 100, "duration": 928}, {"note": 0, "velocity": 0, "duration": 512}, {"note": 73, "velocity": 100, "duration": 141}, {"note": 0, "velocity": 0, "duration": 99}, {"note": 73, "velocity": 102, "duration": 158}, {"note": 0, "velocity": 0, "duration": 82}, {"note": 73, "velocity": 100, "duration": 120}, {"note": 0, "velocity": 0, "duration": 120}, {"note": 73, "velocity": 107, "duration": 163}, {"note": 0, "velocity": 0, "duration": 77}, {"note": 66, "velocity": 107, "duration": 623}, {"note": 0, "velocity": 0, "duration": 97}, {"note": 73, "velocity": 122, "duration": 169}, {"note": 0, "velocity": 0, "duration": 71}, {"note": 75, "velocity": 122, "duration": 106}, {"note": 0, "velocity": 0, "duration": 374}, {"note": 75, "velocity": 112, "duration": 964}, {"note": 0, "velocity": 0, "duration": 476}, {"note": 73, "velocity": 122, "duration": 146}, {"note": 0, "velocity": 0, "duration": 94}, {"note": 73, "velocity": 127, "duration": 103}, {"note": 0, "velocity": 0, "duration": 137}, {"note": 73, "velocity": 117, "duration": 83}, {"note": 0, "velocity": 0, "duration": 157}, {"note": 73, "velocity": 122, "duration": 82}, {"note": 0, "velocity": 0, "duration": 158}, {"note": 71, "velocity": 102, "duration": 578}, {"note": 0, "velocity": 0, "duration": 142}, {"note": 73, "velocity": 117, "duration": 144}, {"note": 0, "velocity": 0, "duration": 96}, {"note": 75, "velocity": 122, "duration": 272}, {"note": 0, "velocity": 0, "duration": 208}, {"note": 71, "velocity": 112, "duration": 1098}, {"note": 0, "velocity": 0, "duration": 342}, {"note": 73, "velocity": 112, "duration": 129}, {"note": 0, "velocity": 0, "duration": 111}, {"note": 73, "velocity": 107, "duration": 126}, {"note": 0, "velocity": 0, "duration": 114}, {"note": 71, "velocity": 90, "duration": 89}, {"note": 0, "velocity": 0, "duration": 151}, {"note": 71, "velocity": 95, "duration": 111}, {"note": 0, "velocity": 0, "duration": 129}, {"note": 68, "velocity": 102, "duration": 559}, {"note": 0, "velocity": 0, "duration": 161}, {"note": 73, "velocity": 117, "duration": 96}, {"note": 0, "velocity": 0, "duration": 144}, {"note": 75, "velocity": 117, "duration": 293}, {"note": 0, "velocity": 0, "duration": 187}, {"note": 73, "velocity": 112, "duration": 898}, {"note": 0, "velocity": 0, "duration": 542}, {"note": 73, "velocity": 122, "duration": 98}, {"note": 0, "velocity": 0, "duration": 142}, {"note": 73, "velocity": 117, "duration": 111}, {"note": 0, "velocity": 0, "duration": 129}, {"note": 71, "velocity": 93, "duration": 83}, {"note": 0, "velocity": 0, "duration": 157}, {"note": 75, "velocity": 112, "duration": 87}, {"note": 0, "velocity": 0, "duration": 153}, {"note": 73, "velocity": 122, "duration": 331}, {"note": 0, "velocity": 0, "duration": 149}, {"note": 73, "velocity": 97, "duration": 122}, {"note": 0, "velocity": 0, "duration": 118}, {"note": 78, "velocity": 127, "duration": 176}, {"note": 0, "velocity": 0, "duration": 64}, {"note": 80, "velocity": 102, "duration": 330}, {"note": 0, "velocity": 0, "duration": 150}, {"note": 78, "velocity": 127, "duration": 727}, {"note": 0, "velocity": 0, "duration": 233}, {"note": 66, "velocity": 112, "duration": 141}, {"note": 0, "velocity": 0, "duration": 99}, {"note": 75, "velocity": 107, "duration": 245}, {"note": 78, "velocity": 127, "duration": 328}, {"note": 0, "velocity": 0, "duration": 152}, {"note": 78, "velocity": 127, "duration": 413}, {"note": 0, "velocity": 0, "duration": 67}, {"note": 78, "velocity": 112, "duration": 137}, {"note": 0, "velocity": 0, "duration": 103}, {"note": 78, "velocity": 127, "duration": 127}, {"note": 0, "velocity": 0, "duration": 113}, {"note": 75, "velocity": 112, "duration": 112}, {"note": 0, "velocity": 0, "duration": 128}, {"note": 75, "velocity": 112, "duration": 147}, {"note": 0, "velocity": 0, "duration": 93}, {"note": 82, "velocity": 112, "duration": 175}, {"note": 0, "velocity": 0, "duration": 65}, {"note": 82, "velocity": 127, "duration": 139}, {"note": 0, "velocity": 0, "duration": 101}, {"note": 83, "velocity": 122, "duration": 339}, {"note": 0, "velocity": 0, "duration": 141}, {"note": 82, "velocity": 122, "duration": 441}, {"note": 80, "velocity": 117, "duration": 69}, {"note": 82, "velocity": 100, "duration": 77}, {"note": 83, "velocity": 117, "duration": 260}, {"note": 82, "velocity": 127, "duration": 134}, {"note": 0, "velocity": 0, "duration": 106}, {"note": 80, "velocity": 112, "duration": 72}, {"note": 0, "velocity": 0, "duration": 168}, {"note": 80, "velocity": 127, "duration": 452}, {"note": 78, "velocity": 122, "duration": 289}, {"note": 0, "velocity": 0, "duration": 191}, {"note": 75, "velocity": 117, "duration": 251}, {"note": 0, "velocity": 0, "duration": 229}, {"note": 73, "velocity": 117, "duration": 263}, {"note": 0, "velocity": 0, "duration": 217}, {"note": 71, "velocity": 100, "duration": 678}, {"note": 0, "velocity": 0, "duration": 282}, {"note": 71, "velocity": 89, "duration": 77}, {"note": 73, "velocity": 100, "duration": 59}, {"note": 0, "velocity": 0, "duration": 61}, {"note": 75, "velocity": 122, "duration": 209}, {"note": 73, "velocity": 102, "duration": 278}, {"note": 0, "velocity": 0, "duration": 202}, {"note": 71, "velocity": 102, "duration": 476}, {"note": 0, "velocity": 0, "duration": 244}, {"note": 71, "velocity": 100, "duration": 99}, {"note": 0, "velocity": 0, "duration": 141}, {"note": 80, "velocity": 107, "duration": 78}, {"note": 0, "velocity": 0, "duration": 162}, {"note": 80, "velocity": 127, "duration": 146}, {"note": 0, "velocity": 0, "duration": 94}, {"note": 78, "velocity": 117, "duration": 188}, {"note": 0, "velocity": 0, "duration": 292}, {"note": 75, "velocity": 117, "duration": 432}, {"note": 75, "velocity": 122, "duration": 129}, {"note": 0, "velocity": 0, "duration": 111}, {"note": 73, "velocity": 127, "duration": 87}, {"note": 0, "velocity": 0, "duration": 153}, {"note": 71, "velocity": 95, "duration": 155}, {"note": 0, "velocity": 0, "duration": 85}, {"note": 73, "velocity": 112, "duration": 179}, {"note": 0, "velocity": 0, "duration": 61}, {"note": 73, "velocity": 127, "duration": 70}, {"note": 0, "velocity": 0, "duration": 170}, {"note": 73, "velocity": 127, "duration": 131}, {"note": 0, "velocity": 0, "duration": 109}, {"note": 73, "velocity": 127, "duration": 73}, {"note": 71, "velocity": 92, "duration": 65}, {"note": 71, "velocity": 102, "duration": 161}, {"note": 0, "velocity": 0, "duration": 79}, {"note": 68, "velocity": 112, "duration": 195}, {"note": 0, "velocity": 0, "duration": 285}, {"note": 80, "velocity": 127, "duration": 318}, {"note": 0, "velocity": 0, "duration": 162}, {"note": 78, "velocity": 122, "duration": 137}, {"note": 0, "velocity": 0, "duration": 103}, {"note": 78, "velocity": 112, "duration": 136}, {"note": 0, "velocity": 0, "duration": 104}, {"note": 73, "velocity": 117, "duration": 551}, {"note": 0, "velocity": 0, "duration": 409}, {"note": 71, "velocity": 97, "duration": 76}, {"note": 73, "velocity": 107, "duration": 67}, {"note": 75, "velocity": 122, "duration": 184}, {"note": 78, "velocity": 127, "duration": 274}, {"note": 0, "velocity": 0, "duration": 206}, {"note": 78, "velocity": 127, "duration": 292}, {"note": 0, "velocity": 0, "duration": 188}, {"note": 78, "velocity": 122, "duration": 127}, {"note": 0, "velocity": 0, "duration": 113}, {"note": 78, "velocity": 127, "duration": 134}, {"note": 0, "velocity": 0, "duration": 106}, {"note": 75, "velocity": 127, "duration": 117}, {"note": 0, "velocity": 0, "duration": 123}, {"note": 75, "velocity": 122, "duration": 112}, {"note": 0, "velocity": 0, "duration": 128}, {"note": 82, "velocity": 127, "duration": 135}, {"note": 0, "velocity": 0, "duration": 105}, {"note": 82, "velocity": 127, "duration": 128}, {"note": 0, "velocity": 0, "duration": 112}, {"note": 83, "velocity": 127, "duration": 361}, {"note": 0, "velocity": 0, "duration": 119}, {"note": 82, "velocity": 127, "duration": 269}, {"note": 0, "velocity": 0, "duration": 451}, {"note": 83, "velocity": 122, "duration": 201}, {"note": 82, "velocity": 127, "duration": 163}, {"note": 0, "velocity": 0, "duration": 77}, {"note": 82, "velocity": 122, "duration": 150}, {"note": 0, "velocity": 0, "duration": 90}, {"note": 80, "velocity": 112, "duration": 106}, {"note": 0, "velocity": 0, "duration": 134}, {"note": 80, "velocity": 117, "duration": 126}, {"note": 0, "velocity": 0, "duration": 114}, {"note": 82, "velocity": 127, "duration": 243}, {"note": 0, "velocity": 0, "duration": 237}, {"note": 83, "velocity": 127, "duration": 370}, {"note": 0, "velocity": 0, "duration": 110}, {"note": 82, "velocity": 127, "duration": 151}, {"note": 0, "velocity": 0, "duration": 89}, {"note": 82, "velocity": 122, "duration": 131}, {"note": 0, "velocity": 0, "duration": 109}, {"note": 80, "velocity": 122, "duration": 628}, {"note": 0, "velocity": 0, "duration": 332}, {"note": 80, "velocity": 122, "duration": 62}, {"note": 82, "velocity": 112, "duration": 65}, {"note": 83, "velocity": 112, "duration": 187}, {"note": 82, "velocity": 127, "duration": 343}, {"note": 0, "velocity": 0, "duration": 137}, {"note": 80, "velocity": 122, "duration": 536}, {"note": 0, "velocity": 0, "duration": 184}, {"note": 80, "velocity": 127, "duration": 185}, {"note": 78, "velocity": 100, "duration": 117}, {"note": 0, "velocity": 0, "duration": 123}, {"note": 78, "velocity": 117, "duration": 149}, {"note": 0, "velocity": 0, "duration": 91}, {"note": 80, "velocity": 117, "duration": 189}, {"note": 0, "velocity": 0, "duration": 291}, {"note": 75, "velocity": 122, "duration": 475}, {"note": 75, "velocity": 122, "duration": 199}, {"note": 73, "velocity": 112, "duration": 159}, {"note": 0, "velocity": 0, "duration": 81}, {"note": 71, "velocity": 102, "duration": 215}, {"note": 73, "velocity": 122, "duration": 141}, {"note": 0, "velocity": 0, "duration": 99}, {"note": 73, "velocity": 117, "duration": 112}, {"note": 0, "velocity": 0, "duration": 128}, {"note": 73, "velocity": 122, "duration": 172}, {"note": 0, "velocity": 0, "duration": 68}, {"note": 80, "velocity": 127, "duration": 322}, {"note": 0, "velocity": 0, "duration": 158}, {"note": 78, "velocity": 127, "duration": 475}, {"note": 80, "velocity": 122, "duration": 279}, {"note": 0, "velocity": 0, "duration": 201}, {"note": 73, "velocity": 127, "duration": 1061}, {"note": 0, "velocity": 0, "duration": 379}, {"note": 73, "velocity": 127, "duration": 118}, {"note": 75, "velocity": 100, "duration": 114}, {"note": 73, "velocity": 127, "duration": 138}, {"note": 0, "velocity": 0, "duration": 102}, {"note": 71, "velocity": 122, "duration": 201}, {"note": 0, "velocity": 0, "duration": 279}, {"note": 71, "velocity": 107, "duration": 1504}, {"note": 0, "velocity": 0, "duration": 416}, {"note": 75, "velocity": 117, "duration": 302}, {"note": 0, "velocity": 0, "duration": 178}, {"note": 78, "velocity": 127, "duration": 354}, {"note": 0, "velocity": 0, "duration": 126}, {"note": 80, "velocity": 127, "duration": 1568}, {"note": 0, "velocity": 0, "duration": 1312}, {"note": 78, "velocity": 122, "duration": 252}, {"note": 0, "velocity": 0, "duration": 228}, {"note": 75, "velocity": 127, "duration": 295}, {"note": 0, "velocity": 0, "duration": 185}, {"note": 73, "velocity": 127, "duration": 331}, {"note": 0, "velocity": 0, "duration": 149}, {"note": 71, "velocity": 117, "duration": 1969}, {"note": 0, "velocity": 0, "duration": 13391}, {"note": 73, "velocity": 100, "duration": 141}, {"note": 0, "velocity": 0, "duration": 99}, {"note": 73, "velocity": 102, "duration": 158}, {"note": 0, "velocity": 0, "duration": 82}, {"note": 73, "velocity": 100, "duration": 120}, {"note": 0, "velocity": 0, "duration": 120}, {"note": 73, "velocity": 107, "duration": 163}, {"note": 0, "velocity": 0, "duration": 77}, {"note": 66, "velocity": 107, "duration": 623}, {"note": 0, "velocity": 0, "duration": 97}, {"note": 73, "velocity": 122, "duration": 169}, {"note": 0, "velocity": 0, "duration": 71}, {"note": 75, "velocity": 122, "duration": 106}, {"note": 0, "velocity": 0, "duration": 374}, {"note": 75, "velocity": 112, "duration": 964}, {"note": 0, "velocity": 0, "duration": 476}, {"note": 73, "velocity": 122, "duration": 146}, {"note": 0, "velocity": 0, "duration": 94}, {"note": 73, "velocity": 127, "duration": 103}, {"note": 0, "velocity": 0, "duration": 137}, {"note": 73, "velocity": 117, "duration": 83}, {"note": 0, "velocity": 0, "duration": 157}, {"note": 73, "velocity": 122, "duration": 82}, {"note": 0, "velocity": 0, "duration": 158}, {"note": 71, "velocity": 102, "duration": 578}, {"note": 0, "velocity": 0, "duration": 142}, {"note": 73, "velocity": 117, "duration": 144}, {"note": 0, "velocity": 0, "duration": 96}, {"note": 75, "velocity": 122, "duration": 272}, {"note": 0, "velocity": 0, "duration": 208}, {"note": 71, "velocity": 112, "duration": 1098}, {"note": 0, "velocity": 0, "duration": 342}, {"note": 73, "velocity": 112, "duration": 129}, {"note": 0, "velocity": 0, "duration": 111}, {"note": 73, "velocity": 107, "duration": 126}, {"note": 0, "velocity": 0, "duration": 114}, {"note": 71, "velocity": 90, "duration": 89}, {"note": 0, "velocity": 0, "duration": 151}, {"note": 71, "velocity": 95, "duration": 111}, {"note": 0, "velocity": 0, "duration": 129}, {"note": 68, "velocity": 102, "duration": 559}, {"note": 0, "velocity": 0, "duration": 161}, {"note": 73, "velocity": 117, "duration": 96}, {"note": 0, "velocity": 0, "duration": 144}, {"note": 75, "velocity": 117, "duration": 293}, {"note": 0, "velocity": 0, "duration": 187}, {"note": 73, "velocity": 112, "duration": 898}, {"note": 0, "velocity": 0, "duration": 542}, {"note": 73, "velocity": 122, "duration": 98}, {"note": 0, "velocity": 0, "duration": 142}, {"note": 73, "velocity": 117, "duration": 111}, {"note": 0, "velocity": 0, "duration": 129}, {"note": 71, "velocity": 93, "duration": 83}, {"note": 0, "velocity": 0, "duration": 157}, {"note": 75, "velocity": 112, "duration": 87}, {"note": 0, "velocity": 0, "duration": 153}, {"note": 73, "velocity": 122, "duration": 331}, {"note": 0, "velocity": 0, "duration": 149}, {"note": 73, "velocity": 97, "duration": 122}, {"note": 0, "velocity": 0, "duration": 118}, {"note": 78, "velocity": 127, "duration": 176}, {"note": 0, "velocity": 0, "duration": 64}, {"note": 80, "velocity": 102, "duration": 330}, {"note": 0, "velocity": 0, "duration": 150}, {"note": 78, "velocity": 127, "duration": 727}, {"note": 0, "velocity": 0, "duration": 233}, {"note": 66, "velocity": 112, "duration": 141}, {"note": 0, "velocity": 0, "duration": 99}, {"note": 75, "velocity": 107, "duration": 245}, {"note": 78, "velocity": 127, "duration": 328}, {"note": 0, "velocity": 0, "duration": 152}, {"note": 78, "velocity": 127, "duration": 413}, {"note": 0, "velocity": 0, "duration": 67}, {"note": 78, "velocity": 112, "duration": 137}, {"note": 0, "velocity": 0, "duration": 103}, {"note": 78, "velocity": 127, "duration": 127}, {"note": 0, "velocity": 0, "duration": 113}, {"note": 75, "velocity": 112, "duration": 112}, {"note": 0, "velocity": 0, "duration": 128}, {"note": 75, "velocity": 112, "duration": 147}, {"note": 0, "velocity": 0, "duration": 93}, {"note": 82, "velocity": 112, "duration": 175}, {"note": 0, "velocity": 0, "duration": 65}, {"note": 82, "velocity": 127, "duration": 139}, {"note": 0, "velocity": 0, "duration": 101}, {"note": 83, "velocity": 122, "duration": 339}, {"note": 0, "velocity": 0, "duration": 141}, {"note": 82, "velocity": 122, "duration": 441}, {"note": 80, "velocity": 117, "duration": 69}, {"note": 82, "velocity": 100, "duration": 77}, {"note": 83, "velocity": 117, "duration": 260}, {"note": 82, "velocity": 127, "duration": 134}, {"note": 0, "velocity": 0, "duration": 106}, {"note": 80, "velocity": 112, "duration": 72}, {"note": 0, "velocity": 0, "duration": 168}, {"note": 80, "velocity": 127, "duration": 452}, {"note": 78, "velocity": 122, "duration": 289}, {"note": 0, "velocity": 0, "duration": 191}, {"note": 75, "velocity": 117, "duration": 251}, {"note": 0, "velocity": 0, "duration": 229}, {"note": 73, "velocity": 117, "duration": 263}, {"note": 0, "velocity": 0, "duration": 217}, {"note": 71, "velocity": 100, "duration": 678}, {"note": 0, "velocity": 0, "duration": 282}, {"note": 71, "velocity": 89, "duration": 77}, {"note": 73, "velocity": 100, "duration": 59}, {"note": 0, "velocity": 0, "duration": 61}, {"note": 75, "velocity": 122, "duration": 209}, {"note": 73, "velocity": 102, "duration": 278}, {"note": 0, "velocity": 0, "duration": 202}, {"note": 71, "velocity": 102, "duration": 476}, {"note": 0, "velocity": 0, "duration": 244}, {"note": 71, "velocity": 100, "duration": 99}, {"note": 0, "velocity": 0, "duration": 141}, {"note": 80, "velocity": 107, "duration": 78}, {"note": 0, "velocity": 0, "duration": 162}, {"note": 80, "velocity": 127, "duration": 146}, {"note": 0, "velocity": 0, "duration": 94}, {"note": 78, "velocity": 117, "duration": 188}, {"note": 0, "velocity": 0, "duration": 292}, {"note": 75, "velocity": 117, "duration": 432}, {"note": 75, "velocity": 122, "duration": 129}, {"note": 0, "velocity": 0, "duration": 111}, {"note": 73, "velocity": 127, "duration": 87}, {"note": 0, "velocity": 0, "duration": 153}, {"note": 71, "velocity": 95, "duration": 155}, {"note": 0, "velocity": 0, "duration": 85}, {"note": 73, "velocity": 112, "duration": 179}, {"note": 0, "velocity": 0, "duration": 61}, {"note": 73, "velocity": 127, "duration": 70}, {"note": 0, "velocity": 0, "duration": 170}, {"note": 73, "velocity": 127, "duration": 131}, {"note": 0, "velocity": 0, "duration": 109}, {"note": 73, "velocity": 127, "duration": 73}, {"note": 71, "velocity": 92, "duration": 65}, {"note": 71, "velocity": 102, "duration": 161}, {"note": 0, "velocity": 0, "duration": 79}, {"note": 68, "velocity": 112, "duration": 195}, {"note": 0, "velocity": 0, "duration": 285}, {"note": 80, "velocity": 127, "duration": 318}, {"note": 0, "velocity": 0, "duration": 162}, {"note": 78, "velocity": 122, "duration": 137}, {"note": 0, "velocity": 0, "duration": 103}, {"note": 78, "velocity": 112, "duration": 136}, {"note": 0, "velocity": 0, "duration": 104}, {"note": 73, "velocity": 117, "duration": 551}, {"note": 0, "velocity": 0, "duration": 409}, {"note": 71, "velocity": 97, "duration": 76}, {"note": 73, "velocity": 107, "duration": 67}, {"note": 75, "velocity": 122, "duration": 184}, {"note": 78, "velocity": 127, "duration": 274}, {"note": 0, "velocity": 0, "duration": 206}, {"note": 78, "velocity": 127, "duration": 292}, {"note": 0, "velocity": 0, "duration": 188}, {"note": 78, "velocity": 122, "duration": 127}, {"note": 0, "velocity": 0, "duration": 113}, {"note": 78, "velocity": 127, "duration": 134}, {"note": 0, "velocity": 0, "duration": 106}, {"note": 75, "velocity": 127, "duration": 117}, {"note": 0, "velocity": 0, "duration": 123}, {"note": 75, "velocity": 122, "duration": 112}, {"note": 0, "velocity": 0, "duration": 128}, {"note": 82, "velocity": 127, "duration": 135}, {"note": 0, "velocity": 0, "duration": 105}, {"note": 82, "velocity": 127, "duration": 128}, {"note": 0, "velocity": 0, "duration": 112}, {"note": 83, "velocity": 127, "duration": 361}, {"note": 0, "velocity": 0, "duration": 119}, {"note": 82, "velocity": 127, "duration": 269}, {"note": 0, "velocity": 0, "duration": 451}, {"note": 83, "velocity": 122, "duration": 201}, {"note": 82, "velocity": 127, "duration": 163}, {"note": 0, "velocity": 0, "duration": 77}, {"note": 82, "velocity": 122, "duration": 150}, {"note": 0, "velocity": 0, "duration": 90}, {"note": 80, "velocity": 112, "duration": 106}, {"note": 0, "velocity": 0, "duration": 134}, {"note": 80, "velocity": 117, "duration": 126}, {"note": 0, "velocity": 0, "duration": 114}, {"note": 82, "velocity": 127, "duration": 243}, {"note": 0, "velocity": 0, "duration": 237}, {"note": 83, "velocity": 127, "duration": 370}, {"note": 0, "velocity": 0, "duration": 110}, {"note": 82, "velocity": 127, "duration": 151}, {"note": 0, "velocity": 0, "duration": 89}, {"note": 82, "velocity": 122, "duration": 131}, {"note": 0, "velocity": 0, "duration": 109}, {"note": 80, "velocity": 122, "duration": 628}, {"note": 0, "velocity": 0, "duration": 332}, {"note": 80, "velocity": 122, "duration": 62}, {"note": 82, "velocity": 112, "duration": 65}, {"note": 83, "velocity": 112, "duration": 187}, {"note": 82, "velocity": 127, "duration": 343}, {"note": 0, "velocity": 0, "duration": 137}, {"note": 80, "velocity": 122, "duration": 536}, {"note": 0, "velocity": 0, "duration": 184}, {"note": 80, "velocity": 127, "duration": 185}, {"note": 78, "velocity": 100, "duration": 117}, {"note": 0, "velocity": 0, "duration": 123}, {"note": 78, "velocity": 117, "duration": 149}, {"note": 0, "velocity": 0, "duration": 91}, {"note": 80, "velocity": 117, "duration": 189}, {"note": 0, "velocity": 0, "duration": 291}, {"note": 75, "velocity": 122, "duration": 475}, {"note": 75, "velocity": 122, "duration": 199}, {"note": 73, "velocity": 112, "duration": 159}, {"note": 0, "velocity": 0, "duration": 81}, {"note": 71, "velocity": 102, "duration": 215}, {"note": 73, "velocity": 122, "duration": 141}, {"note": 0, "velocity": 0, "duration": 99}, {"note": 73, "velocity": 117, "duration": 112}, {"note": 0, "velocity": 0, "duration": 128}, {"note": 73, "velocity": 122, "duration": 172}, {"note": 0, "velocity": 0, "duration": 68}, {"note": 80, "velocity": 127, "duration": 322}, {"note": 0, "velocity": 0, "duration": 158}, {"note": 78, "velocity": 127, "duration": 475}, {"note": 80, "velocity": 122, "duration": 279}, {"note": 0, "velocity": 0, "duration": 201}, {"note": 73, "velocity": 127, "duration": 1061}, {"note": 0, "velocity": 0, "duration": 379}, {"note": 73, "velocity": 127, "duration": 118}, {"note": 75, "velocity": 100, "duration": 114}, {"note": 73, "velocity": 127, "duration": 138}, {"note": 0, "velocity": 0, "duration": 102}, {"note": 71, "velocity": 122, "duration": 201}, {"note": 0, "velocity": 0, "duration": 279}, {"note": 71, "velocity": 107, "duration": 1504}, {"note": 0, "velocity": 0, "duration": 416}, {"note": 75, "velocity": 117, "duration": 302}, {"note": 0, "velocity": 0, "duration": 178}, {"note": 78, "velocity": 127, "duration": 354}, {"note": 0, "velocity": 0, "duration": 126}, {"note": 80, "velocity": 127, "duration": 1568}, {"note": 0, "velocity": 0, "duration": 1312}, {"note": 78, "velocity": 122, "duration": 252}, {"note": 0, "velocity": 0, "duration": 228}, {"note": 75, "velocity": 127, "duration": 295}, {"note": 0, "velocity": 0, "duration": 185}, {"note": 73, "velocity": 127, "duration": 331}, {"note": 0, "velocity": 0, "duration": 149}, {"note": 71, "velocity": 117, "duration": 1969}]]