[[{"note": 72, "velocity": 112, "duration": 353}, {"note": 72, "velocity": 88, "duration": 48}, {"note": 0, "velocity": 0, "duration": 72}, {"note": 72, "velocity": 92, "duration": 94}, {"note": 70, "velocity": 100, "duration": 337}, {"note": 68, "velocity": 95, "duration": 526}, {"note": 0, "velocity": 0, "duration": 434}, {"note": 72, "velocity": 102, "duration": 244}, {"note": 0, "velocity": 0, "duration": 116}, {"note": 72, "velocity": 85, "duration": 49}, {"note": 0, "velocity": 0, "duration": 71}, {"note": 72, "velocity": 93, "duration": 95}, {"note": 70, "velocity": 96, "duration": 114}, {"note": 68, "velocity": 107, "duration": 69}, {"note": 75, "velocity": 88, "duration": 202}, {"note": 0, "velocity": 0, "duration": 638}, {"note": 72, "velocity": 95, "duration": 136}, {"note": 75, "velocity": 107, "duration": 124}, {"note": 80, "velocity": 102, "duration": 171}, {"note": 80, "velocity": 122, "duration": 51}, {"note": 0, "velocity": 0, "duration": 189}, {"note": 80, "velocity": 102, "duration": 54}, {"note": 0, "velocity": 0, "duration": 66}, {"note": 80, "velocity": 102, "duration": 147}, {"note": 0, "velocity": 0, "duration": 93}, {"note": 80, "velocity": 102, "duration": 90}, {"note": 79, "velocity": 97, "duration": 143}, {"note": 0, "velocity": 0, "duration": 97}, {"note": 77, "velocity": 96, "duration": 319}, {"note": 0, "velocity": 0, "duration": 161}, {"note": 77, "velocity": 93, "duration": 85}, {"note": 75, "velocity": 96, "duration": 77}, {"note": 77, "velocity": 100, "duration": 58}, {"note": 0, "velocity": 0, "duration": 62}, {"note": 79, "velocity": 117, "duration": 54}, {"note": 0, "velocity": 0, "duration": 66}, {"note": 79, "velocity": 95, "duration": 54}, {"note": 0, "velocity": 0, "duration": 66}, {"note": 79, "velocity": 95, "duration": 53}, {"note": 0, "velocity": 0, "duration": 67}, {"note": 79, "velocity": 112, "duration": 143}, {"note": 0, "velocity": 0, "duration": 217}, {"note": 70, "velocity": 107, "duration": 88}, {"note": 72, "velocity": 93, "duration": 523}, {"note": 0, "velocity": 0, "duration": 557}, {"note": 72, "velocity": 97, "duration": 250}, {"note": 0, "velocity": 0, "duration": 110}, {"note": 72, "velocity": 90, "duration": 52}, {"note": 0, "velocity": 0, "duration": 68}, {"note": 72, "velocity": 92, "duration": 83}, {"note": 70, "velocity": 96, "duration": 201}, {"note": 68, "velocity": 112, "duration": 600}, {"note": 0, "velocity": 0, "duration": 480}, {"note": 72, "velocity": 102, "duration": 244}, {"note": 0, "velocity": 0, "duration": 116}, {"note": 72, "velocity": 85, "duration": 49}, {"note": 0, "velocity": 0, "duration": 71}, {"note": 72, "velocity": 93, "duration": 95}, {"note": 70, "velocity": 96, "duration": 114}, {"note": 68, "velocity": 107, "duration": 69}, {"note": 75, "velocity": 88, "duration": 202}, {"note": 0, "velocity": 0, "duration": 638}, {"note": 72, "velocity": 95, "duration": 136}, {"note": 75, "velocity": 107, "duration": 124}, {"note": 80, "velocity": 102, "duration": 171}, {"note": 80, "velocity": 122, "duration": 51}, {"note": 0, "velocity": 0, "duration": 189}, {"note": 80, "velocity": 102, "duration": 54}, {"note": 0, "velocity": 0, "duration": 66}, {"note": 80, "velocity": 102, "duration": 147}, {"note": 0, "velocity": 0, "duration": 93}, {"note": 80, "velocity": 102, "duration": 90}, {"note": 79, "velocity": 97, "duration": 143}, {"note": 0, "velocity": 0, "duration": 97}, {"note": 77, "velocity": 96, "duration": 319}, {"note": 0, "velocity": 0, "duration": 401}, {"note": 77, "velocity": 93, "duration": 72}, {"note": 75, "velocity": 96, "duration": 45}, {"note": 0, "velocity": 0, "duration": 75}, {"note": 75, "velocity": 100, "duration": 47}, {"note": 0, "velocity": 0, "duration": 73}, {"note": 75, "velocity": 112, "duration": 52}, {"note": 0, "velocity": 0, "duration": 68}, {"note": 77, "velocity": 99, "duration": 45}, {"note": 0, "velocity": 0, "duration": 75}, {"note": 79, "velocity": 117, "duration": 146}, {"note": 0, "velocity": 0, "duration": 94}, {"note": 70, "velocity": 107, "duration": 49}, {"note": 0, "velocity": 0, "duration": 71}, {"note": 72, "velocity": 96, "duration": 615}, {"note": 0, "velocity": 0, "duration": 465}, {"note": 72, "velocity": 112, "duration": 353}, {"note": 72, "velocity": 88, "duration": 48}, {"note": 0, "velocity": 0, "duration": 72}, {"note": 72, "velocity": 92, "duration": 94}, {"note": 70, "velocity": 100, "duration": 337}, {"note": 68, "velocity": 95, "duration": 526}, {"note": 0, "velocity": 0, "duration": 434}, {"note": 72, "velocity": 102, "duration": 244}, {"note": 0, "velocity": 0, "duration": 116}, {"note": 72, "velocity": 85, "duration": 49}, {"note": 0, "velocity": 0, "duration": 71}, {"note": 72, "velocity": 93, "duration": 95}, {"note": 70, "velocity": 96, "duration": 114}, {"note": 68, "velocity": 107, "duration": 69}, {"note": 75, "velocity": 88, "duration": 509}, {"note": 0, "velocity": 0, "duration": 331}, {"note": 72, "velocity": 95, "duration": 136}, {"note": 75, "velocity": 107, "duration": 124}, {"note": 80, "velocity": 102, "duration": 171}, {"note": 80, "velocity": 122, "duration": 51}, {"note": 0, "velocity": 0, "duration": 189}, {"note": 80, "velocity": 102, "duration": 54}, {"note": 0, "velocity": 0, "duration": 66}, {"note": 80, "velocity": 102, "duration": 147}, {"note": 0, "velocity": 0, "duration": 93}, {"note": 80, "velocity": 102, "duration": 90}, {"note": 79, "velocity": 97, "duration": 143}, {"note": 0, "velocity": 0, "duration": 97}, {"note": 77, "velocity": 96, "duration": 319}, {"note": 0, "velocity": 0, "duration": 161}, {"note": 77, "velocity": 93, "duration": 85}, {"note": 75, "velocity": 96, "duration": 77}, {"note": 77, "velocity": 100, "duration": 58}, {"note": 0, "velocity": 0, "duration": 62}, {"note": 79, "velocity": 117, "duration": 156}, {"note": 0, "velocity": 0, "duration": 84}, {"note": 79, "velocity": 95, "duration": 240}, {"note": 0, "velocity": 0, "duration": 360}, {"note": 79, "velocity": 95, "duration": 50}, {"note": 0, "velocity": 0, "duration": 70}, {"note": 79, "velocity": 117, "duration": 136}, {"note": 0, "velocity": 0, "duration": 104}, {"note": 79, "velocity": 112, "duration": 117}, {"note": 0, "velocity": 0, "duration": 123}, {"note": 80, "velocity": 107, "duration": 84}, {"note": 79, "velocity": 97, "duration": 340}, {"note": 77, "velocity": 112, "duration": 705}, {"note": 0, "velocity": 0, "duration": 1095}, {"note": 84, "velocity": 122, "duration": 75}, {"note": 85, "velocity": 127, "duration": 165}, {"note": 0, "velocity": 0, "duration": 75}, {"note": 85, "velocity": 127, "duration": 141}, {"note": 0, "velocity": 0, "duration": 99}, {"note": 85, "velocity": 127, "duration": 65}, {"note": 84, "velocity": 127, "duration": 280}, {"note": 0, "velocity": 0, "duration": 80}, {"note": 82, "velocity": 127, "duration": 484}, {"note": 0, "velocity": 0, "duration": 116}, {"note": 75, "velocity": 117, "duration": 48}, {"note": 0, "velocity": 0, "duration": 72}, {"note": 75, "velocity": 102, "duration": 50}, {"note": 0, "velocity": 0, "duration": 70}, {"note": 75, "velocity": 122, "duration": 53}, {"note": 0, "velocity": 0, "duration": 67}, {"note": 84, "velocity": 107, "duration": 51}, {"note": 0, "velocity": 0, "duration": 69}, {"note": 84, "velocity": 102, "duration": 50}, {"note": 0, "velocity": 0, "duration": 70}, {"note": 84, "velocity": 112, "duration": 41}, {"note": 0, "velocity": 0, "duration": 79}, {"note": 84, "velocity": 112, "duration": 42}, {"note": 0, "velocity": 0, "duration": 78}, {"note": 84, "velocity": 100, "duration": 53}, {"note": 0, "velocity": 0, "duration": 187}, {"note": 82, "velocity": 127, "duration": 149}, {"note": 0, "velocity": 0, "duration": 91}, {"note": 80, "velocity": 117, "duration": 684}, {"note": 0, "velocity": 0, "duration": 276}, {"note": 82, "velocity": 127, "duration": 39}, {"note": 0, "velocity": 0, "duration": 81}, {"note": 82, "velocity": 102, "duration": 38}, {"note": 0, "velocity": 0, "duration": 82}, {"note": 82, "velocity": 112, "duration": 34}, {"note": 0, "velocity": 0, "duration": 86}, {"note": 82, "velocity": 112, "duration": 35}, {"note": 0, "velocity": 0, "duration": 85}, {"note": 82, "velocity": 127, "duration": 38}, {"note": 0, "velocity": 0, "duration": 82}, {"note": 82, "velocity": 122, "duration": 123}, {"note": 0, "velocity": 0, "duration": 117}, {"note": 80, "velocity": 127, "duration": 51}, {"note": 0, "velocity": 0, "duration": 69}, {"note": 79, "velocity": 127, "duration": 240}, {"note": 79, "velocity": 127, "duration": 221}, {"note": 0, "velocity": 0, "duration": 379}, {"note": 79, "velocity": 92, "duration": 47}, {"note": 0, "velocity": 0, "duration": 73}, {"note": 80, "velocity": 122, "duration": 41}, {"note": 0, "velocity": 0, "duration": 79}, {"note": 79, "velocity": 90, "duration": 52}, {"note": 0, "velocity": 0, "duration": 68}, {"note": 80, "velocity": 127, "duration": 46}, {"note": 0, "velocity": 0, "duration": 74}, {"note": 79, "velocity": 89, "duration": 47}, {"note": 0, "velocity": 0, "duration": 73}, {"note": 80, "velocity": 127, "duration": 64}, {"note": 82, "velocity": 112, "duration": 141}, {"note": 0, "velocity": 0, "duration": 99}, {"note": 84, "velocity": 112, "duration": 594}, {"note": 0, "velocity": 0, "duration": 486}, {"note": 85, "velocity": 127, "duration": 165}, {"note": 0, "velocity": 0, "duration": 75}, {"note": 85, "velocity": 127, "duration": 141}, {"note": 0, "velocity": 0, "duration": 99}, {"note": 85, "velocity": 127, "duration": 65}, {"note": 84, "velocity": 127, "duration": 280}, {"note": 0, "velocity": 0, "duration": 80}, {"note": 82, "velocity": 127, "duration": 484}, {"note": 0, "velocity": 0, "duration": 236}, {"note": 75, "velocity": 102, "duration": 50}, {"note": 0, "velocity": 0, "duration": 70}, {"note": 75, "velocity": 122, "duration": 53}, {"note": 0, "velocity": 0, "duration": 67}, {"note": 84, "velocity": 107, "duration": 51}, {"note": 0, "velocity": 0, "duration": 189}, {"note": 84, "velocity": 112, "duration": 41}, {"note": 0, "velocity": 0, "duration": 199}, {"note": 84, "velocity": 100, "duration": 53}, {"note": 0, "velocity": 0, "duration": 67}, {"note": 84, "velocity": 122, "duration": 47}, {"note": 0, "velocity": 0, "duration": 73}, {"note": 82, "velocity": 127, "duration": 149}, {"note": 0, "velocity": 0, "duration": 91}, {"note": 80, "velocity": 117, "duration": 684}, {"note": 0, "velocity": 0, "duration": 156}, {"note": 80, "velocity": 127, "duration": 84}, {"note": 82, "velocity": 127, "duration": 39}, {"note": 0, "velocity": 0, "duration": 201}, {"note": 82, "velocity": 112, "duration": 34}, {"note": 0, "velocity": 0, "duration": 86}, {"note": 82, "velocity": 112, "duration": 35}, {"note": 0, "velocity": 0, "duration": 85}, {"note": 82, "velocity": 127, "duration": 255}, {"note": 80, "velocity": 127, "duration": 131}, {"note": 0, "velocity": 0, "duration": 289}, {"note": 79, "velocity": 127, "duration": 284}, {"note": 0, "velocity": 0, "duration": 616}, {"note": 79, "velocity": 97, "duration": 44}, {"note": 0, "velocity": 0, "duration": 76}, {"note": 79, "velocity": 88, "duration": 48}, {"note": 0, "velocity": 0, "duration": 72}, {"note": 79, "velocity": 92, "duration": 56}, {"note": 0, "velocity": 0, "duration": 64}, {"note": 80, "velocity": 112, "duration": 99}, {"note": 79, "velocity": 100, "duration": 252}, {"note": 0, "velocity": 0, "duration": 108}, {"note": 77, "velocity": 96, "duration": 117}, {"note": 0, "velocity": 0, "duration": 123}, {"note": 77, "velocity": 112, "duration": 1357}, {"note": 0, "velocity": 0, "duration": 18563}, {"note": 72, "velocity": 97, "duration": 250}, {"note": 0, "velocity": 0, "duration": 110}, {"note": 72, "velocity": 90, "duration": 52}, {"note": 0, "velocity": 0, "duration": 68}, {"note": 72, "velocity": 92, "duration": 83}, {"note": 70, "velocity": 96, "duration": 201}, {"note": 68, "velocity": 112, "duration": 600}, {"note": 0, "velocity": 0, "duration": 480}, {"note": 72, "velocity": 102, "duration": 244}, {"note": 0, "velocity": 0, "duration": 116}, {"note": 72, "velocity": 85, "duration": 49}, {"note": 0, "velocity": 0, "duration": 71}, {"note": 72, "velocity": 93, "duration": 95}, {"note": 70, "velocity": 96, "duration": 114}, {"note": 68, "velocity": 107, "duration": 69}, {"note": 75, "velocity": 88, "duration": 202}, {"note": 0, "velocity": 0, "duration": 638}, {"note": 72, "velocity": 95, "duration": 136}, {"note": 75, "velocity": 107, "duration": 124}, {"note": 80, "velocity": 102, "duration": 171}, {"note": 80, "velocity": 122, "duration": 51}, {"note": 0, "velocity": 0, "duration": 189}, {"note": 80, "velocity": 102, "duration": 54}, {"note": 0, "velocity": 0, "duration": 66}, {"note": 80, "velocity": 102, "duration": 147}, {"note": 0, "velocity": 0, "duration": 93}, {"note": 80, "velocity": 102, "duration": 90}, {"note": 79, "velocity": 97, "duration": 143}, {"note": 0, "velocity": 0, "duration": 97}, {"note": 77, "velocity": 96, "duration": 319}, {"note": 0, "velocity": 0, "duration": 401}, {"note": 77, "velocity": 93, "duration": 72}, {"note": 75, "velocity": 96, "duration": 45}, {"note": 0, "velocity": 0, "duration": 75}, {"note": 75, "velocity": 100, "duration": 47}, {"note": 0, "velocity": 0, "duration": 73}, {"note": 75, "velocity": 112, "duration": 52}, {"note": 0, "velocity": 0, "duration": 68}, {"note": 77, "velocity": 99, "duration": 45}, {"note": 0, "velocity": 0, "duration": 75}, {"note": 79, "velocity": 117, "duration": 146}, {"note": 0, "velocity": 0, "duration": 94}, {"note": 70, "velocity": 107, "duration": 49}, {"note": 0, "velocity": 0, "duration": 71}, {"note": 72, "velocity": 96, "duration": 615}, {"note": 0, "velocity": 0, "duration": 465}, {"note": 72, "velocity": 112, "duration": 353}, {"note": 72, "velocity": 88, "duration": 48}, {"note": 0, "velocity": 0, "duration": 72}, {"note": 72, "velocity": 92, "duration": 94}, {"note": 70, "velocity": 100, "duration": 337}, {"note": 68, "velocity": 95, "duration": 526}, {"note": 0, "velocity": 0, "duration": 434}, {"note": 72, "velocity": 102, "duration": 244}, {"note": 0, "velocity": 0, "duration": 116}, {"note": 72, "velocity": 85, "duration": 49}, {"note": 0, "velocity": 0, "duration": 71}, {"note": 72, "velocity": 93, "duration": 95}, {"note": 70, "velocity": 96, "duration": 114}, {"note": 68, "velocity": 107, "duration": 69}, {"note": 75, "velocity": 88, "duration": 509}, {"note": 0, "velocity": 0, "duration": 331}, {"note": 72, "velocity": 95, "duration": 136}, {"note": 75, "velocity": 107, "duration": 124}, {"note": 80, "velocity": 102, "duration": 171}, {"note": 80, "velocity": 122, "duration": 51}, {"note": 0, "velocity": 0, "duration": 189}, {"note": 80, "velocity": 102, "duration": 54}, {"note": 0, "velocity": 0, "duration": 66}, {"note": 80, "velocity": 102, "duration": 147}, {"note": 0, "velocity": 0, "duration": 93}, {"note": 80, "velocity": 102, "duration": 90}, {"note": 79, "velocity": 97, "duration": 143}, {"note": 0, "velocity": 0, "duration": 97}, {"note": 77, "velocity": 96, "duration": 319}, {"note": 0, "velocity": 0, "duration": 161}, {"note": 77, "velocity": 93, "duration": 85}, {"note": 75, "velocity": 96, "duration": 77}, {"note": 77, "velocity": 100, "duration": 58}, {"note": 0, "velocity": 0, "duration": 62}, {"note": 79, "velocity": 117, "duration": 156}, {"note": 0, "velocity": 0, "duration": 84}, {"note": 79, "velocity": 95, "duration": 240}, {"note": 0, "velocity": 0, "duration": 360}, {"note": 79, "velocity": 95, "duration": 50}, {"note": 0, "velocity": 0, "duration": 70}, {"note": 79, "velocity": 117, "duration": 136}, {"note": 0, "velocity": 0, "duration": 104}, {"note": 79, "velocity": 112, "duration": 117}, {"note": 0, "velocity": 0, "duration": 123}, {"note": 80, "velocity": 107, "duration": 84}, {"note": 79, "velocity": 97, "duration": 340}, {"note": 77, "velocity": 112, "duration": 1544}, {"note": 0, "velocity": 0, "duration": 256}, {"note": 84, "velocity": 122, "duration": 75}, {"note": 85, "velocity": 127, "duration": 165}, {"note": 0, "velocity": 0, "duration": 75}, {"note": 85, "velocity": 127, "duration": 141}, {"note": 0, "velocity": 0, "duration": 99}, {"note": 85, "velocity": 127, "duration": 65}, {"note": 84, "velocity": 127, "duration": 280}, {"note": 0, "velocity": 0, "duration": 80}, {"note": 82, "velocity": 127, "duration": 484}, {"note": 0, "velocity": 0, "duration": 116}, {"note": 75, "velocity": 117, "duration": 48}, {"note": 0, "velocity": 0, "duration": 72}, {"note": 75, "velocity": 102, "duration": 50}, {"note": 0, "velocity": 0, "duration": 70}, {"note": 75, "velocity": 122, "duration": 53}, {"note": 0, "velocity": 0, "duration": 67}, {"note": 84, "velocity": 107, "duration": 51}, {"note": 0, "velocity": 0, "duration": 69}, {"note": 84, "velocity": 102, "duration": 50}, {"note": 0, "velocity": 0, "duration": 70}, {"note": 84, "velocity": 112, "duration": 41}, {"note": 0, "velocity": 0, "duration": 79}, {"note": 84, "velocity": 112, "duration": 42}, {"note": 0, "velocity": 0, "duration": 78}, {"note": 84, "velocity": 100, "duration": 53}, {"note": 0, "velocity": 0, "duration": 187}, {"note": 82, "velocity": 127, "duration": 149}, {"note": 0, "velocity": 0, "duration": 91}, {"note": 80, "velocity": 117, "duration": 684}, {"note": 0, "velocity": 0, "duration": 276}, {"note": 82, "velocity": 127, "duration": 39}, {"note": 0, "velocity": 0, "duration": 81}, {"note": 82, "velocity": 102, "duration": 38}, {"note": 0, "velocity": 0, "duration": 82}, {"note": 82, "velocity": 112, "duration": 34}, {"note": 0, "velocity": 0, "duration": 86}, {"note": 82, "velocity": 112, "duration": 35}, {"note": 0, "velocity": 0, "duration": 85}, {"note": 82, "velocity": 127, "duration": 38}, {"note": 0, "velocity": 0, "duration": 82}, {"note": 82, "velocity": 122, "duration": 123}, {"note": 0, "velocity": 0, "duration": 117}, {"note": 80, "velocity": 127, "duration": 51}, {"note": 0, "velocity": 0, "duration": 69}, {"note": 79, "velocity": 127, "duration": 240}, {"note": 79, "velocity": 127, "duration": 221}, {"note": 0, "velocity": 0, "duration": 379}, {"note": 79, "velocity": 92, "duration": 47}, {"note": 0, "velocity": 0, "duration": 73}, {"note": 80, "velocity": 122, "duration": 41}, {"note": 0, "velocity": 0, "duration": 79}, {"note": 79, "velocity": 90, "duration": 52}, {"note": 0, "velocity": 0, "duration": 68}, {"note": 80, "velocity": 127, "duration": 46}, {"note": 0, "velocity": 0, "duration": 74}, {"note": 79, "velocity": 89, "duration": 47}, {"note": 0, "velocity": 0, "duration": 73}, {"note": 80, "velocity": 127, "duration": 64}, {"note": 82, "velocity": 112, "duration": 141}, {"note": 0, "velocity": 0, "duration": 99}, {"note": 84, "velocity": 112, "duration": 594}, {"note": 0, "velocity": 0, "duration": 486}, {"note": 85, "velocity": 127, "duration": 165}, {"note": 0, "velocity": 0, "duration": 75}, {"note": 85, "velocity": 127, "duration": 141}, {"note": 0, "velocity": 0, "duration": 99}, {"note": 85, "velocity": 127, "duration": 65}, {"note": 84, "velocity": 127, "duration": 280}, {"note": 0, "velocity": 0, "duration": 80}, {"note": 82, "velocity": 127, "duration": 484}, {"note": 0, "velocity": 0, "duration": 236}, {"note": 75, "velocity": 102, "duration": 50}, {"note": 0, "velocity": 0, "duration": 70}, {"note": 75, "velocity": 122, "duration": 53}, {"note": 0, "velocity": 0, "duration": 67}, {"note": 84, "velocity": 107, "duration": 51}, {"note": 0, "velocity": 0, "duration": 189}, {"note": 84, "velocity": 112, "duration": 41}, {"note": 0, "velocity": 0, "duration": 199}, {"note": 84, "velocity": 100, "duration": 53}, {"note": 0, "velocity": 0, "duration": 67}, {"note": 84, "velocity": 122, "duration": 47}, {"note": 0, "velocity": 0, "duration": 73}, {"note": 82, "velocity": 127, "duration": 149}, {"note": 0, "velocity": 0, "duration": 91}, {"note": 80, "velocity": 117, "duration": 684}, {"note": 0, "velocity": 0, "duration": 156}, {"note": 80, "velocity": 127, "duration": 84}, {"note": 82, "velocity": 127, "duration": 39}, {"note": 0, "velocity": 0, "duration": 201}, {"note": 82, "velocity": 112, "duration": 34}, {"note": 0, "velocity": 0, "duration": 86}, {"note": 82, "velocity": 112, "duration": 35}, {"note": 0, "velocity": 0, "duration": 85}, {"note": 82, "velocity": 127, "duration": 255}, {"note": 80, "velocity": 127, "duration": 131}, {"note": 0, "velocity": 0, "duration": 217}, {"note": 79, "velocity": 127, "duration": 356}, {"note": 0, "velocity": 0, "duration": 616}, {"note": 79, "velocity": 97, "duration": 44}, {"note": 0, "velocity": 0, "duration": 76}, {"note": 79, "velocity": 88, "duration": 48}, {"note": 0, "velocity": 0, "duration": 72}, {"note": 79, "velocity": 92, "duration": 56}, {"note": 0, "velocity": 0, "duration": 64}, {"note": 80, "velocity": 112, "duration": 99}, {"note": 79, "velocity": 100, "duration": 252}, {"note": 0, "velocity": 0, "duration": 108}, {"note": 77, "velocity": 96, "duration": 117}, {"note": 0, "velocity": 0, "duration": 123}, {"note": 77, "velocity": 112, "duration": 559}, {"note": 0, "velocity": 0, "duration": 161}, {"note": 79, "velocity": 122, "duration": 849}, {"note": 0, "velocity": 0, "duration": 111}, {"note": 80, "velocity": 122, "duration": 541}, {"note": 80, "velocity": 127, "duration": 132}, {"note": 0, "velocity": 0, "duration": 108}, {"note": 80, "velocity": 122, "duration": 80}, {"note": 79, "velocity": 127, "duration": 427}, {"note": 0, "velocity": 0, "duration": 533}, {"note": 77, "velocity": 107, "duration": 980}, {"note": 79, "velocity": 117, "duration": 837}, {"note": 0, "velocity": 0, "duration": 123}, {"note": 80, "velocity": 127, "duration": 593}, {"note": 80, "velocity": 127, "duration": 140}, {"note": 0, "velocity": 0, "duration": 100}, {"note": 80, "velocity": 112, "duration": 77}, {"note": 79, "velocity": 127, "duration": 594}, {"note": 79, "velocity": 102, "duration": 130}, {"note": 0, "velocity": 0, "duration": 110}, {"note": 79, "velocity": 102, "duration": 85}, {"note": 77, "velocity": 127, "duration": 1487}]]