[[{"note": 65, "velocity": 83, "duration": 59}, {"note": 0, "velocity": 0, "duration": 61}, {"note": 70, "velocity": 100, "duration": 158}, {"note": 0, "velocity": 0, "duration": 82}, {"note": 69, "velocity": 100, "duration": 132}, {"note": 0, "velocity": 0, "duration": 108}, {"note": 70, "velocity": 117, "duration": 149}, {"note": 0, "velocity": 0, "duration": 91}, {"note": 72, "velocity": 97, "duration": 52}, {"note": 0, "velocity": 0, "duration": 68}, {"note": 72, "velocity": 107, "duration": 583}, {"note": 0, "velocity": 0, "duration": 377}, {"note": 69, "velocity": 90, "duration": 45}, {"note": 0, "velocity": 0, "duration": 75}, {"note": 70, "velocity": 112, "duration": 194}, {"note": 69, "velocity": 99, "duration": 103}, {"note": 0, "velocity": 0, "duration": 137}, {"note": 67, "velocity": 112, "duration": 153}, {"note": 0, "velocity": 0, "duration": 87}, {"note": 65, "velocity": 92, "duration": 44}, {"note": 0, "velocity": 0, "duration": 76}, {"note": 65, "velocity": 99, "duration": 631}, {"note": 0, "velocity": 0, "duration": 449}, {"note": 67, "velocity": 99, "duration": 171}, {"note": 0, "velocity": 0, "duration": 69}, {"note": 69, "velocity": 93, "duration": 69}, {"note": 70, "velocity": 99, "duration": 258}, {"note": 0, "velocity": 0, "duration": 102}, {"note": 72, "velocity": 97, "duration": 125}, {"note": 65, "velocity": 97, "duration": 258}, {"note": 0, "velocity": 0, "duration": 102}, {"note": 70, "velocity": 112, "duration": 68}, {"note": 70, "velocity": 117, "duration": 297}, {"note": 0, "velocity": 0, "duration": 183}, {"note": 65, "velocity": 93, "duration": 80}, {"note": 75, "velocity": 96, "duration": 196}, {"note": 74, "velocity": 99, "duration": 127}, {"note": 0, "velocity": 0, "duration": 113}, {"note": 72, "velocity": 96, "duration": 126}, {"note": 0, "velocity": 0, "duration": 114}, {"note": 70, "velocity": 102, "duration": 53}, {"note": 0, "velocity": 0, "duration": 67}, {"note": 72, "velocity": 100, "duration": 814}, {"note": 0, "velocity": 0, "duration": 146}, {"note": 65, "velocity": 86, "duration": 64}, {"note": 70, "velocity": 117, "duration": 181}, {"note": 69, "velocity": 93, "duration": 117}, {"note": 0, "velocity": 0, "duration": 123}, {"note": 70, "velocity": 112, "duration": 163}, {"note": 0, "velocity": 0, "duration": 77}, {"note": 72, "velocity": 93, "duration": 42}, {"note": 0, "velocity": 0, "duration": 78}, {"note": 72, "velocity": 100, "duration": 687}, {"note": 0, "velocity": 0, "duration": 273}, {"note": 69, "velocity": 90, "duration": 58}, {"note": 0, "velocity": 0, "duration": 62}, {"note": 70, "velocity": 112, "duration": 181}, {"note": 69, "velocity": 79, "duration": 186}, {"note": 70, "velocity": 102, "duration": 158}, {"note": 0, "velocity": 0, "duration": 82}, {"note": 79, "velocity": 100, "duration": 173}, {"note": 0, "velocity": 0, "duration": 67}, {"note": 79, "velocity": 122, "duration": 160}, {"note": 0, "velocity": 0, "duration": 80}, {"note": 77, "velocity": 100, "duration": 47}, {"note": 0, "velocity": 0, "duration": 73}, {"note": 77, "velocity": 102, "duration": 278}, {"note": 0, "velocity": 0, "duration": 202}, {"note": 74, "velocity": 100, "duration": 163}, {"note": 0, "velocity": 0, "duration": 77}, {"note": 75, "velocity": 112, "duration": 682}, {"note": 67, "velocity": 97, "duration": 111}, {"note": 75, "velocity": 97, "duration": 208}, {"note": 74, "velocity": 107, "duration": 153}, {"note": 0, "velocity": 0, "duration": 87}, {"note": 67, "velocity": 99, "duration": 180}, {"note": 69, "velocity": 95, "duration": 69}, {"note": 70, "velocity": 102, "duration": 1109}, {"note": 0, "velocity": 0, "duration": 571}, {"note": 70, "velocity": 97, "duration": 111}, {"note": 75, "velocity": 100, "duration": 129}, {"note": 77, "velocity": 95, "duration": 124}, {"note": 79, "velocity": 102, "duration": 250}, {"note": 0, "velocity": 0, "duration": 230}, {"note": 79, "velocity": 122, "duration": 151}, {"note": 0, "velocity": 0, "duration": 89}, {"note": 79, "velocity": 99, "duration": 45}, {"note": 0, "velocity": 0, "duration": 75}, {"note": 79, "velocity": 117, "duration": 137}, {"note": 0, "velocity": 0, "duration": 223}, {"note": 77, "velocity": 112, "duration": 42}, {"note": 0, "velocity": 0, "duration": 78}, {"note": 72, "velocity": 100, "duration": 259}, {"note": 0, "velocity": 0, "duration": 101}, {"note": 72, "velocity": 100, "duration": 192}, {"note": 74, "velocity": 127, "duration": 207}, {"note": 77, "velocity": 99, "duration": 140}, {"note": 0, "velocity": 0, "duration": 100}, {"note": 72, "velocity": 96, "duration": 198}, {"note": 77, "velocity": 99, "duration": 151}, {"note": 0, "velocity": 0, "duration": 89}, {"note": 70, "velocity": 107, "duration": 587}, {"note": 70, "velocity": 107, "duration": 44}, {"note": 0, "velocity": 0, "duration": 76}, {"note": 75, "velocity": 127, "duration": 42}, {"note": 0, "velocity": 0, "duration": 78}, {"note": 77, "velocity": 93, "duration": 53}, {"note": 0, "velocity": 0, "duration": 67}, {"note": 79, "velocity": 107, "duration": 367}, {"note": 0, "velocity": 0, "duration": 113}, {"note": 79, "velocity": 122, "duration": 140}, {"note": 0, "velocity": 0, "duration": 100}, {"note": 79, "velocity": 107, "duration": 44}, {"note": 0, "velocity": 0, "duration": 76}, {"note": 79, "velocity": 127, "duration": 140}, {"note": 0, "velocity": 0, "duration": 220}, {"note": 77, "velocity": 112, "duration": 128}, {"note": 0, "velocity": 0, "duration": 112}, {"note": 72, "velocity": 102, "duration": 124}, {"note": 0, "velocity": 0, "duration": 116}, {"note": 77, "velocity": 117, "duration": 79}, {"note": 0, "velocity": 0, "duration": 161}, {"note": 74, "velocity": 122, "duration": 687}, {"note": 0, "velocity": 0, "duration": 873}, {"note": 70, "velocity": 92, "duration": 122}, {"note": 75, "velocity": 117, "duration": 95}, {"note": 77, "velocity": 86, "duration": 161}, {"note": 79, "velocity": 102, "duration": 412}, {"note": 0, "velocity": 0, "duration": 68}, {"note": 78, "velocity": 127, "duration": 141}, {"note": 0, "velocity": 0, "duration": 99}, {"note": 79, "velocity": 99, "duration": 59}, {"note": 0, "velocity": 0, "duration": 61}, {"note": 81, "velocity": 122, "duration": 263}, {"note": 0, "velocity": 0, "duration": 97}, {"note": 74, "velocity": 100, "duration": 150}, {"note": 0, "velocity": 0, "duration": 90}, {"note": 74, "velocity": 107, "duration": 123}, {"note": 0, "velocity": 0, "duration": 117}, {"note": 81, "velocity": 112, "duration": 135}, {"note": 0, "velocity": 0, "duration": 105}, {"note": 82, "velocity": 127, "duration": 420}, {"note": 81, "velocity": 127, "duration": 367}, {"note": 0, "velocity": 0, "duration": 113}, {"note": 79, "velocity": 112, "duration": 545}, {"note": 0, "velocity": 0, "duration": 295}, {"note": 79, "velocity": 112, "duration": 110}, {"note": 77, "velocity": 102, "duration": 140}, {"note": 0, "velocity": 0, "duration": 100}, {"note": 70, "velocity": 107, "duration": 54}, {"note": 0, "velocity": 0, "duration": 66}, {"note": 70, "velocity": 102, "duration": 221}, {"note": 0, "velocity": 0, "duration": 259}, {"note": 79, "velocity": 122, "duration": 117}, {"note": 77, "velocity": 95, "duration": 235}, {"note": 74, "velocity": 97, "duration": 233}, {"note": 72, "velocity": 97, "duration": 167}, {"note": 0, "velocity": 0, "duration": 73}, {"note": 70, "velocity": 112, "duration": 157}, {"note": 0, "velocity": 0, "duration": 83}, {"note": 72, "velocity": 117, "duration": 1241}, {"note": 0, "velocity": 0, "duration": 199}, {"note": 70, "velocity": 122, "duration": 107}, {"note": 0, "velocity": 0, "duration": 133}, {"note": 72, "velocity": 97, "duration": 97}, {"note": 0, "velocity": 0, "duration": 143}, {"note": 74, "velocity": 117, "duration": 230}, {"note": 0, "velocity": 0, "duration": 130}, {"note": 74, "velocity": 100, "duration": 44}, {"note": 0, "velocity": 0, "duration": 76}, {"note": 74, "velocity": 92, "duration": 47}, {"note": 0, "velocity": 0, "duration": 73}, {"note": 75, "velocity": 117, "duration": 63}, {"note": 74, "velocity": 99, "duration": 42}, {"note": 0, "velocity": 0, "duration": 78}, {"note": 72, "velocity": 107, "duration": 315}, {"note": 77, "velocity": 100, "duration": 49}, {"note": 0, "velocity": 0, "duration": 71}, {"note": 77, "velocity": 117, "duration": 367}, {"note": 0, "velocity": 0, "duration": 233}, {"note": 82, "velocity": 127, "duration": 210}, {"note": 0, "velocity": 0, "duration": 150}, {"note": 82, "velocity": 117, "duration": 42}, {"note": 0, "velocity": 0, "duration": 78}, {"note": 82, "velocity": 112, "duration": 48}, {"note": 0, "velocity": 0, "duration": 72}, {"note": 84, "velocity": 96, "duration": 76}, {"note": 82, "velocity": 112, "duration": 56}, {"note": 0, "velocity": 0, "duration": 64}, {"note": 81, "velocity": 127, "duration": 129}, {"note": 0, "velocity": 0, "duration": 231}, {"note": 77, "velocity": 102, "duration": 48}, {"note": 0, "velocity": 0, "duration": 72}, {"note": 77, "velocity": 117, "duration": 158}, {"note": 0, "velocity": 0, "duration": 442}, {"note": 79, "velocity": 122, "duration": 223}, {"note": 0, "velocity": 0, "duration": 137}, {"note": 79, "velocity": 112, "duration": 43}, {"note": 0, "velocity": 0, "duration": 77}, {"note": 79, "velocity": 122, "duration": 54}, {"note": 0, "velocity": 0, "duration": 66}, {"note": 81, "velocity": 112, "duration": 77}, {"note": 79, "velocity": 99, "duration": 66}, {"note": 77, "velocity": 107, "duration": 163}, {"note": 0, "velocity": 0, "duration": 197}, {"note": 70, "velocity": 112, "duration": 46}, {"note": 0, "velocity": 0, "duration": 74}, {"note": 70, "velocity": 127, "duration": 148}, {"note": 0, "velocity": 0, "duration": 332}, {"note": 67, "velocity": 86, "duration": 111}, {"note": 75, "velocity": 107, "duration": 174}, {"note": 0, "velocity": 0, "duration": 186}, {"note": 75, "velocity": 122, "duration": 45}, {"note": 0, "velocity": 0, "duration": 75}, {"note": 75, "velocity": 112, "duration": 55}, {"note": 0, "velocity": 0, "duration": 65}, {"note": 77, "velocity": 93, "duration": 68}, {"note": 74, "velocity": 117, "duration": 181}, {"note": 72, "velocity": 122, "duration": 245}, {"note": 0, "velocity": 0, "duration": 235}, {"note": 70, "velocity": 127, "duration": 170}, {"note": 0, "velocity": 0, "duration": 70}, {"note": 72, "velocity": 100, "duration": 145}, {"note": 0, "velocity": 0, "duration": 95}, {"note": 74, "velocity": 127, "duration": 270}, {"note": 0, "velocity": 0, "duration": 90}, {"note": 74, "velocity": 102, "duration": 43}, {"note": 0, "velocity": 0, "duration": 77}, {"note": 74, "velocity": 97, "duration": 53}, {"note": 0, "velocity": 0, "duration": 67}, {"note": 75, "velocity": 102, "duration": 66}, {"note": 74, "velocity": 107, "duration": 41}, {"note": 0, "velocity": 0, "duration": 79}, {"note": 72, "velocity": 100, "duration": 320}, {"note": 77, "velocity": 99, "duration": 45}, {"note": 0, "velocity": 0, "duration": 75}, {"note": 77, "velocity": 127, "duration": 344}, {"note": 0, "velocity": 0, "duration": 256}, {"note": 82, "velocity": 127, "duration": 319}, {"note": 82, "velocity": 117, "duration": 48}, {"note": 0, "velocity": 0, "duration": 72}, {"note": 84, "velocity": 107, "duration": 122}, {"note": 0, "velocity": 0, "duration": 118}, {"note": 82, "velocity": 127, "duration": 59}, {"note": 0, "velocity": 0, "duration": 61}, {"note": 81, "velocity": 127, "duration": 274}, {"note": 0, "velocity": 0, "duration": 86}, {"note": 77, "velocity": 99, "duration": 46}, {"note": 0, "velocity": 0, "duration": 74}, {"note": 77, "velocity": 122, "duration": 298}, {"note": 0, "velocity": 0, "duration": 182}, {"note": 70, "velocity": 107, "duration": 138}, {"note": 0, "velocity": 0, "duration": 102}, {"note": 79, "velocity": 100, "duration": 412}, {"note": 0, "velocity": 0, "duration": 308}, {"note": 70, "velocity": 117, "duration": 67}, {"note": 77, "velocity": 122, "duration": 661}, {"note": 0, "velocity": 0, "duration": 179}, {"note": 74, "velocity": 96, "duration": 39}, {"note": 0, "velocity": 0, "duration": 81}, {"note": 75, "velocity": 127, "duration": 127}, {"note": 0, "velocity": 0, "duration": 113}, {"note": 74, "velocity": 112, "duration": 173}, {"note": 0, "velocity": 0, "duration": 67}, {"note": 72, "velocity": 102, "duration": 131}, {"note": 0, "velocity": 0, "duration": 109}, {"note": 70, "velocity": 117, "duration": 141}, {"note": 0, "velocity": 0, "duration": 99}, {"note": 67, "velocity": 100, "duration": 163}, {"note": 0, "velocity": 0, "duration": 317}, {"note": 70, "velocity": 127, "duration": 260}, {"note": 0, "velocity": 0, "duration": 100}, {"note": 70, "velocity": 112, "duration": 50}, {"note": 0, "velocity": 0, "duration": 70}, {"note": 70, "velocity": 127, "duration": 1127}, {"note": 0, "velocity": 0, "duration": 6433}, {"note": 65, "velocity": 83, "duration": 59}, {"note": 0, "velocity": 0, "duration": 61}, {"note": 70, "velocity": 100, "duration": 158}, {"note": 0, "velocity": 0, "duration": 82}, {"note": 69, "velocity": 100, "duration": 132}, {"note": 0, "velocity": 0, "duration": 108}, {"note": 70, "velocity": 117, "duration": 149}, {"note": 0, "velocity": 0, "duration": 91}, {"note": 72, "velocity": 97, "duration": 52}, {"note": 0, "velocity": 0, "duration": 68}, {"note": 72, "velocity": 107, "duration": 583}, {"note": 0, "velocity": 0, "duration": 377}, {"note": 69, "velocity": 90, "duration": 45}, {"note": 0, "velocity": 0, "duration": 75}, {"note": 70, "velocity": 112, "duration": 194}, {"note": 69, "velocity": 99, "duration": 103}, {"note": 0, "velocity": 0, "duration": 137}, {"note": 67, "velocity": 112, "duration": 153}, {"note": 0, "velocity": 0, "duration": 87}, {"note": 65, "velocity": 92, "duration": 44}, {"note": 0, "velocity": 0, "duration": 76}, {"note": 65, "velocity": 99, "duration": 631}, {"note": 0, "velocity": 0, "duration": 449}, {"note": 67, "velocity": 99, "duration": 171}, {"note": 0, "velocity": 0, "duration": 69}, {"note": 69, "velocity": 93, "duration": 69}, {"note": 70, "velocity": 99, "duration": 258}, {"note": 0, "velocity": 0, "duration": 102}, {"note": 72, "velocity": 97, "duration": 125}, {"note": 65, "velocity": 97, "duration": 258}, {"note": 0, "velocity": 0, "duration": 102}, {"note": 70, "velocity": 112, "duration": 68}, {"note": 70, "velocity": 117, "duration": 297}, {"note": 0, "velocity": 0, "duration": 183}, {"note": 65, "velocity": 93, "duration": 80}, {"note": 75, "velocity": 96, "duration": 196}, {"note": 74, "velocity": 99, "duration": 127}, {"note": 0, "velocity": 0, "duration": 113}, {"note": 72, "velocity": 96, "duration": 126}, {"note": 0, "velocity": 0, "duration": 114}, {"note": 70, "velocity": 102, "duration": 53}, {"note": 0, "velocity": 0, "duration": 67}, {"note": 72, "velocity": 100, "duration": 814}, {"note": 0, "velocity": 0, "duration": 146}, {"note": 65, "velocity": 86, "duration": 64}, {"note": 70, "velocity": 117, "duration": 181}, {"note": 69, "velocity": 93, "duration": 117}, {"note": 0, "velocity": 0, "duration": 123}, {"note": 70, "velocity": 112, "duration": 163}, {"note": 0, "velocity": 0, "duration": 77}, {"note": 72, "velocity": 93, "duration": 42}, {"note": 0, "velocity": 0, "duration": 78}, {"note": 72, "velocity": 100, "duration": 687}, {"note": 0, "velocity": 0, "duration": 273}, {"note": 69, "velocity": 90, "duration": 58}, {"note": 0, "velocity": 0, "duration": 62}, {"note": 70, "velocity": 112, "duration": 181}, {"note": 69, "velocity": 79, "duration": 186}, {"note": 70, "velocity": 102, "duration": 158}, {"note": 0, "velocity": 0, "duration": 82}, {"note": 79, "velocity": 100, "duration": 173}, {"note": 0, "velocity": 0, "duration": 67}, {"note": 79, "velocity": 122, "duration": 160}, {"note": 0, "velocity": 0, "duration": 80}, {"note": 77, "velocity": 100, "duration": 47}, {"note": 0, "velocity": 0, "duration": 73}, {"note": 77, "velocity": 102, "duration": 278}, {"note": 0, "velocity": 0, "duration": 202}, {"note": 74, "velocity": 100, "duration": 163}, {"note": 0, "velocity": 0, "duration": 77}, {"note": 75, "velocity": 112, "duration": 682}, {"note": 67, "velocity": 97, "duration": 111}, {"note": 75, "velocity": 97, "duration": 208}, {"note": 74, "velocity": 107, "duration": 153}, {"note": 0, "velocity": 0, "duration": 87}, {"note": 67, "velocity": 99, "duration": 180}, {"note": 69, "velocity": 95, "duration": 69}, {"note": 70, "velocity": 102, "duration": 1109}, {"note": 0, "velocity": 0, "duration": 571}, {"note": 70, "velocity": 97, "duration": 111}, {"note": 75, "velocity": 100, "duration": 129}, {"note": 77, "velocity": 95, "duration": 124}, {"note": 79, "velocity": 102, "duration": 250}, {"note": 0, "velocity": 0, "duration": 230}, {"note": 79, "velocity": 122, "duration": 151}, {"note": 0, "velocity": 0, "duration": 89}, {"note": 79, "velocity": 99, "duration": 45}, {"note": 0, "velocity": 0, "duration": 75}, {"note": 79, "velocity": 117, "duration": 137}, {"note": 0, "velocity": 0, "duration": 223}, {"note": 77, "velocity": 112, "duration": 42}, {"note": 0, "velocity": 0, "duration": 78}, {"note": 72, "velocity": 100, "duration": 259}, {"note": 0, "velocity": 0, "duration": 101}, {"note": 72, "velocity": 100, "duration": 192}, {"note": 74, "velocity": 127, "duration": 207}, {"note": 77, "velocity": 99, "duration": 140}, {"note": 0, "velocity": 0, "duration": 100}, {"note": 72, "velocity": 96, "duration": 198}, {"note": 77, "velocity": 99, "duration": 151}, {"note": 0, "velocity": 0, "duration": 89}, {"note": 70, "velocity": 107, "duration": 587}, {"note": 70, "velocity": 107, "duration": 44}, {"note": 0, "velocity": 0, "duration": 76}, {"note": 75, "velocity": 127, "duration": 42}, {"note": 0, "velocity": 0, "duration": 78}, {"note": 77, "velocity": 93, "duration": 53}, {"note": 0, "velocity": 0, "duration": 67}, {"note": 79, "velocity": 107, "duration": 367}, {"note": 0, "velocity": 0, "duration": 113}, {"note": 79, "velocity": 122, "duration": 140}, {"note": 0, "velocity": 0, "duration": 100}, {"note": 79, "velocity": 107, "duration": 44}, {"note": 0, "velocity": 0, "duration": 76}, {"note": 79, "velocity": 127, "duration": 140}, {"note": 0, "velocity": 0, "duration": 220}, {"note": 77, "velocity": 112, "duration": 128}, {"note": 0, "velocity": 0, "duration": 112}, {"note": 72, "velocity": 102, "duration": 124}, {"note": 0, "velocity": 0, "duration": 116}, {"note": 77, "velocity": 117, "duration": 79}, {"note": 0, "velocity": 0, "duration": 161}, {"note": 74, "velocity": 122, "duration": 687}, {"note": 0, "velocity": 0, "duration": 873}, {"note": 70, "velocity": 92, "duration": 122}, {"note": 75, "velocity": 117, "duration": 95}, {"note": 77, "velocity": 86, "duration": 161}, {"note": 79, "velocity": 102, "duration": 412}, {"note": 0, "velocity": 0, "duration": 68}, {"note": 78, "velocity": 127, "duration": 141}, {"note": 0, "velocity": 0, "duration": 99}, {"note": 79, "velocity": 99, "duration": 59}, {"note": 0, "velocity": 0, "duration": 61}, {"note": 81, "velocity": 122, "duration": 263}, {"note": 0, "velocity": 0, "duration": 97}, {"note": 74, "velocity": 100, "duration": 150}, {"note": 0, "velocity": 0, "duration": 90}, {"note": 74, "velocity": 107, "duration": 123}, {"note": 0, "velocity": 0, "duration": 117}, {"note": 81, "velocity": 112, "duration": 135}, {"note": 0, "velocity": 0, "duration": 105}, {"note": 82, "velocity": 127, "duration": 420}, {"note": 81, "velocity": 127, "duration": 367}, {"note": 0, "velocity": 0, "duration": 113}, {"note": 79, "velocity": 112, "duration": 545}, {"note": 0, "velocity": 0, "duration": 295}, {"note": 79, "velocity": 112, "duration": 110}, {"note": 77, "velocity": 102, "duration": 140}, {"note": 0, "velocity": 0, "duration": 100}, {"note": 70, "velocity": 107, "duration": 54}, {"note": 0, "velocity": 0, "duration": 66}, {"note": 70, "velocity": 102, "duration": 221}, {"note": 0, "velocity": 0, "duration": 259}, {"note": 79, "velocity": 122, "duration": 117}, {"note": 77, "velocity": 95, "duration": 235}, {"note": 74, "velocity": 97, "duration": 233}, {"note": 72, "velocity": 97, "duration": 167}, {"note": 0, "velocity": 0, "duration": 73}, {"note": 70, "velocity": 112, "duration": 157}, {"note": 0, "velocity": 0, "duration": 83}, {"note": 72, "velocity": 117, "duration": 1241}, {"note": 0, "velocity": 0, "duration": 199}, {"note": 70, "velocity": 122, "duration": 107}, {"note": 0, "velocity": 0, "duration": 133}, {"note": 72, "velocity": 97, "duration": 97}, {"note": 0, "velocity": 0, "duration": 143}, {"note": 74, "velocity": 117, "duration": 230}, {"note": 0, "velocity": 0, "duration": 130}, {"note": 74, "velocity": 100, "duration": 44}, {"note": 0, "velocity": 0, "duration": 76}, {"note": 74, "velocity": 92, "duration": 47}, {"note": 0, "velocity": 0, "duration": 73}, {"note": 75, "velocity": 117, "duration": 63}, {"note": 74, "velocity": 99, "duration": 42}, {"note": 0, "velocity": 0, "duration": 78}, {"note": 72, "velocity": 107, "duration": 315}, {"note": 77, "velocity": 100, "duration": 49}, {"note": 0, "velocity": 0, "duration": 71}, {"note": 77, "velocity": 117, "duration": 367}, {"note": 0, "velocity": 0, "duration": 233}, {"note": 82, "velocity": 127, "duration": 210}, {"note": 0, "velocity": 0, "duration": 150}, {"note": 82, "velocity": 117, "duration": 42}, {"note": 0, "velocity": 0, "duration": 78}, {"note": 82, "velocity": 112, "duration": 48}, {"note": 0, "velocity": 0, "duration": 72}, {"note": 84, "velocity": 96, "duration": 76}, {"note": 82, "velocity": 112, "duration": 56}, {"note": 0, "velocity": 0, "duration": 64}, {"note": 81, "velocity": 127, "duration": 129}, {"note": 0, "velocity": 0, "duration": 231}, {"note": 77, "velocity": 102, "duration": 48}, {"note": 0, "velocity": 0, "duration": 72}, {"note": 77, "velocity": 117, "duration": 158}, {"note": 0, "velocity": 0, "duration": 442}, {"note": 79, "velocity": 122, "duration": 223}, {"note": 0, "velocity": 0, "duration": 137}, {"note": 79, "velocity": 112, "duration": 43}, {"note": 0, "velocity": 0, "duration": 77}, {"note": 79, "velocity": 122, "duration": 54}, {"note": 0, "velocity": 0, "duration": 66}, {"note": 81, "velocity": 112, "duration": 77}, {"note": 79, "velocity": 99, "duration": 66}, {"note": 77, "velocity": 107, "duration": 163}, {"note": 0, "velocity": 0, "duration": 197}, {"note": 70, "velocity": 112, "duration": 46}, {"note": 0, "velocity": 0, "duration": 74}, {"note": 70, "velocity": 127, "duration": 148}, {"note": 0, "velocity": 0, "duration": 332}, {"note": 67, "velocity": 86, "duration": 111}, {"note": 75, "velocity": 107, "duration": 174}, {"note": 0, "velocity": 0, "duration": 186}, {"note": 75, "velocity": 122, "duration": 45}, {"note": 0, "velocity": 0, "duration": 75}, {"note": 75, "velocity": 112, "duration": 55}, {"note": 0, "velocity": 0, "duration": 65}, {"note": 77, "velocity": 93, "duration": 68}, {"note": 74, "velocity": 117, "duration": 181}, {"note": 72, "velocity": 122, "duration": 245}, {"note": 0, "velocity": 0, "duration": 235}, {"note": 70, "velocity": 127, "duration": 170}, {"note": 0, "velocity": 0, "duration": 70}, {"note": 72, "velocity": 100, "duration": 145}, {"note": 0, "velocity": 0, "duration": 95}, {"note": 74, "velocity": 127, "duration": 270}, {"note": 0, "velocity": 0, "duration": 90}, {"note": 74, "velocity": 102, "duration": 43}, {"note": 0, "velocity": 0, "duration": 77}, {"note": 74, "velocity": 97, "duration": 53}, {"note": 0, "velocity": 0, "duration": 67}, {"note": 75, "velocity": 102, "duration": 66}, {"note": 74, "velocity": 107, "duration": 41}, {"note": 0, "velocity": 0, "duration": 79}, {"note": 72, "velocity": 100, "duration": 320}, {"note": 77, "velocity": 99, "duration": 45}, {"note": 0, "velocity": 0, "duration": 75}, {"note": 77, "velocity": 127, "duration": 344}, {"note": 0, "velocity": 0, "duration": 256}, {"note": 82, "velocity": 127, "duration": 319}, {"note": 82, "velocity": 117, "duration": 48}, {"note": 0, "velocity": 0, "duration": 72}, {"note": 84, "velocity": 107, "duration": 122}, {"note": 0, "velocity": 0, "duration": 118}, {"note": 82, "velocity": 127, "duration": 59}, {"note": 0, "velocity": 0, "duration": 61}, {"note": 81, "velocity": 127, "duration": 274}, {"note": 0, "velocity": 0, "duration": 86}, {"note": 77, "velocity": 99, "duration": 46}, {"note": 0, "velocity": 0, "duration": 74}, {"note": 77, "velocity": 122, "duration": 298}, {"note": 0, "velocity": 0, "duration": 182}, {"note": 70, "velocity": 107, "duration": 138}, {"note": 0, "velocity": 0, "duration": 102}, {"note": 79, "velocity": 100, "duration": 412}, {"note": 0, "velocity": 0, "duration": 308}, {"note": 70, "velocity": 117, "duration": 67}, {"note": 77, "velocity": 122, "duration": 661}, {"note": 0, "velocity": 0, "duration": 179}, {"note": 74, "velocity": 96, "duration": 39}, {"note": 0, "velocity": 0, "duration": 81}, {"note": 75, "velocity": 127, "duration": 127}, {"note": 0, "velocity": 0, "duration": 113}, {"note": 74, "velocity": 112, "duration": 173}, {"note": 0, "velocity": 0, "duration": 67}, {"note": 72, "velocity": 102, "duration": 131}, {"note": 0, "velocity": 0, "duration": 109}, {"note": 70, "velocity": 117, "duration": 141}, {"note": 0, "velocity": 0, "duration": 99}, {"note": 67, "velocity": 100, "duration": 163}, {"note": 0, "velocity": 0, "duration": 317}, {"note": 70, "velocity": 127, "duration": 260}, {"note": 0, "velocity": 0, "duration": 100}, {"note": 70, "velocity": 112, "duration": 50}, {"note": 0, "velocity": 0, "duration": 14950}, {"note": 70, "velocity": 122, "duration": 107}, {"note": 0, "velocity": 0, "duration": 133}, {"note": 72, "velocity": 97, "duration": 97}, {"note": 0, "velocity": 0, "duration": 143}, {"note": 74, "velocity": 117, "duration": 230}, {"note": 0, "velocity": 0, "duration": 130}, {"note": 74, "velocity": 100, "duration": 44}, {"note": 0, "velocity": 0, "duration": 76}, {"note": 74, "velocity": 92, "duration": 47}, {"note": 0, "velocity": 0, "duration": 73}, {"note": 75, "velocity": 117, "duration": 63}, {"note": 74, "velocity": 99, "duration": 42}, {"note": 0, "velocity": 0, "duration": 78}, {"note": 72, "velocity": 107, "duration": 315}, {"note": 77, "velocity": 100, "duration": 49}, {"note": 0, "velocity": 0, "duration": 71}, {"note": 77, "velocity": 117, "duration": 367}, {"note": 0, "velocity": 0, "duration": 233}, {"note": 82, "velocity": 127, "duration": 210}, {"note": 0, "velocity": 0, "duration": 150}, {"note": 82, "velocity": 117, "duration": 42}, {"note": 0, "velocity": 0, "duration": 78}, {"note": 82, "velocity": 112, "duration": 48}, {"note": 0, "velocity": 0, "duration": 72}, {"note": 84, "velocity": 96, "duration": 76}, {"note": 82, "velocity": 112, "duration": 56}, {"note": 0, "velocity": 0, "duration": 64}, {"note": 81, "velocity": 127, "duration": 129}, {"note": 0, "velocity": 0, "duration": 231}, {"note": 77, "velocity": 102, "duration": 48}, {"note": 0, "velocity": 0, "duration": 72}, {"note": 77, "velocity": 117, "duration": 158}, {"note": 0, "velocity": 0, "duration": 442}, {"note": 79, "velocity": 122, "duration": 223}, {"note": 0, "velocity": 0, "duration": 137}, {"note": 79, "velocity": 112, "duration": 43}, {"note": 0, "velocity": 0, "duration": 77}, {"note": 79, "velocity": 122, "duration": 54}, {"note": 0, "velocity": 0, "duration": 66}, {"note": 81, "velocity": 112, "duration": 77}, {"note": 79, "velocity": 99, "duration": 66}, {"note": 77, "velocity": 107, "duration": 163}, {"note": 0, "velocity": 0, "duration": 197}, {"note": 70, "velocity": 112, "duration": 46}, {"note": 0, "velocity": 0, "duration": 74}, {"note": 70, "velocity": 127, "duration": 148}, {"note": 0, "velocity": 0, "duration": 332}, {"note": 67, "velocity": 86, "duration": 111}, {"note": 75, "velocity": 107, "duration": 174}, {"note": 0, "velocity": 0, "duration": 186}, {"note": 75, "velocity": 122, "duration": 45}, {"note": 0, "velocity": 0, "duration": 75}, {"note": 75, "velocity": 112, "duration": 55}, {"note": 0, "velocity": 0, "duration": 65}, {"note": 77, "velocity": 93, "duration": 68}, {"note": 74, "velocity": 117, "duration": 181}, {"note": 72, "velocity": 122, "duration": 245}, {"note": 0, "velocity": 0, "duration": 239}, {"note": 71, "velocity": 127, "duration": 170}, {"note": 0, "velocity": 0, "duration": 66}, {"note": 73, "velocity": 100, "duration": 145}, {"note": 0, "velocity": 0, "duration": 95}, {"note": 75, "velocity": 127, "duration": 270}, {"note": 0, "velocity": 0, "duration": 90}, {"note": 75, "velocity": 102, "duration": 43}, {"note": 0, "velocity": 0, "duration": 77}, {"note": 75, "velocity": 97, "duration": 53}, {"note": 0, "velocity": 0, "duration": 67}, {"note": 76, "velocity": 102, "duration": 66}, {"note": 75, "velocity": 107, "duration": 41}, {"note": 0, "velocity": 0, "duration": 79}, {"note": 73, "velocity": 100, "duration": 320}, {"note": 78, "velocity": 99, "duration": 45}, {"note": 0, "velocity": 0, "duration": 75}, {"note": 78, "velocity": 127, "duration": 344}, {"note": 0, "velocity": 0, "duration": 256}, {"note": 83, "velocity": 127, "duration": 319}, {"note": 83, "velocity": 117, "duration": 48}, {"note": 0, "velocity": 0, "duration": 72}, {"note": 85, "velocity": 107, "duration": 122}, {"note": 0, "velocity": 0, "duration": 118}, {"note": 83, "velocity": 127, "duration": 59}, {"note": 0, "velocity": 0, "duration": 61}, {"note": 82, "velocity": 127, "duration": 274}, {"note": 0, "velocity": 0, "duration": 86}, {"note": 78, "velocity": 99, "duration": 46}, {"note": 0, "velocity": 0, "duration": 74}, {"note": 78, "velocity": 122, "duration": 298}, {"note": 0, "velocity": 0, "duration": 182}, {"note": 71, "velocity": 107, "duration": 138}, {"note": 0, "velocity": 0, "duration": 102}, {"note": 80, "velocity": 100, "duration": 412}, {"note": 0, "velocity": 0, "duration": 308}, {"note": 71, "velocity": 117, "duration": 67}, {"note": 78, "velocity": 122, "duration": 661}, {"note": 0, "velocity": 0, "duration": 179}, {"note": 75, "velocity": 96, "duration": 39}, {"note": 0, "velocity": 0, "duration": 81}, {"note": 76, "velocity": 127, "duration": 127}, {"note": 0, "velocity": 0, "duration": 113}, {"note": 75, "velocity": 112, "duration": 173}, {"note": 0, "velocity": 0, "duration": 67}, {"note": 73, "velocity": 102, "duration": 131}, {"note": 0, "velocity": 0, "duration": 109}, {"note": 71, "velocity": 117, "duration": 141}, {"note": 0, "velocity": 0, "duration": 99}, {"note": 68, "velocity": 100, "duration": 163}, {"note": 0, "velocity": 0, "duration": 317}, {"note": 70, "velocity": 122, "duration": 107}, {"note": 0, "velocity": 0, "duration": 133}, {"note": 72, "velocity": 97, "duration": 97}, {"note": 0, "velocity": 0, "duration": 143}, {"note": 75, "velocity": 117, "duration": 230}, {"note": 0, "velocity": 0, "duration": 130}, {"note": 75, "velocity": 100, "duration": 44}, {"note": 0, "velocity": 0, "duration": 76}, {"note": 75, "velocity": 92, "duration": 47}, {"note": 0, "velocity": 0, "duration": 73}, {"note": 76, "velocity": 117, "duration": 63}, {"note": 75, "velocity": 99, "duration": 42}, {"note": 0, "velocity": 0, "duration": 78}, {"note": 73, "velocity": 107, "duration": 315}, {"note": 78, "velocity": 100, "duration": 49}, {"note": 0, "velocity": 0, "duration": 71}, {"note": 78, "velocity": 117, "duration": 367}, {"note": 0, "velocity": 0, "duration": 233}, {"note": 83, "velocity": 127, "duration": 210}, {"note": 0, "velocity": 0, "duration": 150}, {"note": 83, "velocity": 117, "duration": 42}, {"note": 0, "velocity": 0, "duration": 78}, {"note": 83, "velocity": 112, "duration": 48}, {"note": 0, "velocity": 0, "duration": 72}, {"note": 85, "velocity": 96, "duration": 76}, {"note": 83, "velocity": 112, "duration": 56}, {"note": 0, "velocity": 0, "duration": 64}, {"note": 82, "velocity": 127, "duration": 129}, {"note": 0, "velocity": 0, "duration": 231}, {"note": 78, "velocity": 102, "duration": 48}, {"note": 0, "velocity": 0, "duration": 72}, {"note": 78, "velocity": 117, "duration": 158}, {"note": 0, "velocity": 0, "duration": 442}, {"note": 80, "velocity": 122, "duration": 223}, {"note": 0, "velocity": 0, "duration": 137}, {"note": 80, "velocity": 112, "duration": 43}, {"note": 0, "velocity": 0, "duration": 77}, {"note": 80, "velocity": 122, "duration": 54}, {"note": 0, "velocity": 0, "duration": 66}, {"note": 82, "velocity": 112, "duration": 77}, {"note": 80, "velocity": 99, "duration": 66}, {"note": 78, "velocity": 107, "duration": 163}, {"note": 0, "velocity": 0, "duration": 197}, {"note": 71, "velocity": 112, "duration": 46}, {"note": 0, "velocity": 0, "duration": 74}, {"note": 71, "velocity": 127, "duration": 148}, {"note": 0, "velocity": 0, "duration": 332}, {"note": 68, "velocity": 86, "duration": 111}, {"note": 76, "velocity": 107, "duration": 174}, {"note": 0, "velocity": 0, "duration": 186}, {"note": 76, "velocity": 122, "duration": 45}, {"note": 0, "velocity": 0, "duration": 75}, {"note": 76, "velocity": 112, "duration": 55}, {"note": 0, "velocity": 0, "duration": 65}, {"note": 78, "velocity": 93, "duration": 68}, {"note": 75, "velocity": 117, "duration": 181}, {"note": 73, "velocity": 122, "duration": 245}, {"note": 0, "velocity": 0, "duration": 235}, {"note": 71, "velocity": 127, "duration": 170}, {"note": 0, "velocity": 0, "duration": 70}, {"note": 73, "velocity": 100, "duration": 145}, {"note": 0, "velocity": 0, "duration": 95}, {"note": 75, "velocity": 127, "duration": 270}, {"note": 0, "velocity": 0, "duration": 90}, {"note": 75, "velocity": 102, "duration": 43}, {"note": 0, "velocity": 0, "duration": 77}, {"note": 75, "velocity": 97, "duration": 53}, {"note": 0, "velocity": 0, "duration": 67}, {"note": 76, "velocity": 102, "duration": 66}, {"note": 75, "velocity": 107, "duration": 41}, {"note": 0, "velocity": 0, "duration": 79}, {"note": 73, "velocity": 100, "duration": 320}, {"note": 78, "velocity": 99, "duration": 45}, {"note": 0, "velocity": 0, "duration": 75}, {"note": 78, "velocity": 127, "duration": 344}, {"note": 0, "velocity": 0, "duration": 256}, {"note": 83, "velocity": 127, "duration": 319}, {"note": 83, "velocity": 117, "duration": 48}, {"note": 0, "velocity": 0, "duration": 72}, {"note": 85, "velocity": 107, "duration": 122}, {"note": 0, "velocity": 0, "duration": 118}, {"note": 83, "velocity": 127, "duration": 59}, {"note": 0, "velocity": 0, "duration": 61}, {"note": 82, "velocity": 127, "duration": 274}, {"note": 0, "velocity": 0, "duration": 86}, {"note": 78, "velocity": 99, "duration": 46}, {"note": 0, "velocity": 0, "duration": 74}, {"note": 78, "velocity": 122, "duration": 298}, {"note": 0, "velocity": 0, "duration": 182}, {"note": 71, "velocity": 107, "duration": 138}, {"note": 0, "velocity": 0, "duration": 102}, {"note": 80, "velocity": 100, "duration": 412}, {"note": 0, "velocity": 0, "duration": 308}, {"note": 71, "velocity": 117, "duration": 67}, {"note": 78, "velocity": 122, "duration": 661}, {"note": 0, "velocity": 0, "duration": 179}, {"note": 75, "velocity": 96, "duration": 39}, {"note": 0, "velocity": 0, "duration": 81}, {"note": 76, "velocity": 127, "duration": 127}, {"note": 0, "velocity": 0, "duration": 113}, {"note": 75, "velocity": 112, "duration": 173}, {"note": 0, "velocity": 0, "duration": 67}, {"note": 73, "velocity": 102, "duration": 131}, {"note": 0, "velocity": 0, "duration": 109}, {"note": 71, "velocity": 117, "duration": 141}, {"note": 0, "velocity": 0, "duration": 99}, {"note": 68, "velocity": 100, "duration": 163}, {"note": 0, "velocity": 0, "duration": 317}, {"note": 71, "velocity": 127, "duration": 201}, {"note": 0, "velocity": 0, "duration": 280}, {"note": 71, "velocity": 112, "duration": 189}, {"note": 71, "velocity": 117, "duration": 1995}, {"note": 0, "velocity": 0, "duration": 1471}, {"note": 75, "velocity": 122, "duration": 83}, {"note": 76, "velocity": 100, "duration": 224}, {"note": 75, "velocity": 100, "duration": 273}, {"note": 73, "velocity": 122, "duration": 291}, {"note": 71, "velocity": 100, "duration": 202}, {"note": 68, "velocity": 122, "duration": 1238}, {"note": 0, "velocity": 0, "duration": 516}, {"note": 71, "velocity": 102, "duration": 378}, {"note": 0, "velocity": 0, "duration": 102}, {"note": 71, "velocity": 112, "duration": 160}, {"note": 0, "velocity": 0, "duration": 102}, {"note": 71, "velocity": 127, "duration": 2969}]]