[[{"note": 65, "velocity": 99, "duration": 222}, {"note": 68, "velocity": 102, "duration": 257}, {"note": 0, "velocity": 0, "duration": 223}, {"note": 65, "velocity": 92, "duration": 125}, {"note": 0, "velocity": 0, "duration": 115}, {"note": 70, "velocity": 127, "duration": 672}, {"note": 0, "velocity": 0, "duration": 288}, {"note": 73, "velocity": 127, "duration": 198}, {"note": 72, "velocity": 83, "duration": 303}, {"note": 0, "velocity": 0, "duration": 177}, {"note": 68, "velocity": 93, "duration": 239}, {"note": 70, "velocity": 93, "duration": 650}, {"note": 0, "velocity": 0, "duration": 310}, {"note": 77, "velocity": 107, "duration": 104}, {"note": 0, "velocity": 0, "duration": 136}, {"note": 77, "velocity": 107, "duration": 89}, {"note": 0, "velocity": 0, "duration": 151}, {"note": 77, "velocity": 107, "duration": 169}, {"note": 0, "velocity": 0, "duration": 71}, {"note": 75, "velocity": 102, "duration": 175}, {"note": 0, "velocity": 0, "duration": 65}, {"note": 73, "velocity": 100, "duration": 297}, {"note": 0, "velocity": 0, "duration": 183}, {"note": 70, "velocity": 100, "duration": 457}, {"note": 75, "velocity": 102, "duration": 1274}, {"note": 0, "velocity": 0, "duration": 646}, {"note": 78, "velocity": 127, "duration": 92}, {"note": 0, "velocity": 0, "duration": 148}, {"note": 78, "velocity": 117, "duration": 261}, {"note": 0, "velocity": 0, "duration": 219}, {"note": 77, "velocity": 100, "duration": 110}, {"note": 0, "velocity": 0, "duration": 130}, {"note": 78, "velocity": 127, "duration": 336}, {"note": 0, "velocity": 0, "duration": 144}, {"note": 70, "velocity": 99, "duration": 117}, {"note": 0, "velocity": 0, "duration": 123}, {"note": 70, "velocity": 107, "duration": 106}, {"note": 0, "velocity": 0, "duration": 134}, {"note": 75, "velocity": 117, "duration": 575}, {"note": 0, "velocity": 0, "duration": 145}, {"note": 73, "velocity": 112, "duration": 141}, {"note": 0, "velocity": 0, "duration": 99}, {"note": 77, "velocity": 102, "duration": 746}, {"note": 0, "velocity": 0, "duration": 214}, {"note": 72, "velocity": 117, "duration": 98}, {"note": 0, "velocity": 0, "duration": 142}, {"note": 72, "velocity": 95, "duration": 96}, {"note": 0, "velocity": 0, "duration": 144}, {"note": 72, "velocity": 97, "duration": 116}, {"note": 0, "velocity": 0, "duration": 124}, {"note": 73, "velocity": 122, "duration": 131}, {"note": 0, "velocity": 0, "duration": 109}, {"note": 72, "velocity": 117, "duration": 332}, {"note": 0, "velocity": 0, "duration": 148}, {"note": 70, "velocity": 117, "duration": 350}, {"note": 0, "velocity": 0, "duration": 130}, {"note": 77, "velocity": 112, "duration": 1473}, {"note": 0, "velocity": 0, "duration": 447}, {"note": 65, "velocity": 102, "duration": 137}, {"note": 0, "velocity": 0, "duration": 103}, {"note": 68, "velocity": 117, "duration": 255}, {"note": 0, "velocity": 0, "duration": 225}, {"note": 65, "velocity": 96, "duration": 147}, {"note": 0, "velocity": 0, "duration": 93}, {"note": 70, "velocity": 127, "duration": 762}, {"note": 0, "velocity": 0, "duration": 198}, {"note": 73, "velocity": 127, "duration": 163}, {"note": 0, "velocity": 0, "duration": 77}, {"note": 72, "velocity": 112, "duration": 251}, {"note": 0, "velocity": 0, "duration": 229}, {"note": 68, "velocity": 122, "duration": 146}, {"note": 0, "velocity": 0, "duration": 94}, {"note": 70, "velocity": 127, "duration": 795}, {"note": 0, "velocity": 0, "duration": 165}, {"note": 77, "velocity": 117, "duration": 109}, {"note": 0, "velocity": 0, "duration": 131}, {"note": 77, "velocity": 97, "duration": 90}, {"note": 0, "velocity": 0, "duration": 150}, {"note": 77, "velocity": 95, "duration": 105}, {"note": 0, "velocity": 0, "duration": 135}, {"note": 75, "velocity": 117, "duration": 86}, {"note": 0, "velocity": 0, "duration": 154}, {"note": 73, "velocity": 127, "duration": 305}, {"note": 0, "velocity": 0, "duration": 175}, {"note": 70, "velocity": 122, "duration": 343}, {"note": 0, "velocity": 0, "duration": 137}, {"note": 75, "velocity": 127, "duration": 1435}, {"note": 0, "velocity": 0, "duration": 485}, {"note": 78, "velocity": 127, "duration": 92}, {"note": 0, "velocity": 0, "duration": 148}, {"note": 78, "velocity": 117, "duration": 261}, {"note": 0, "velocity": 0, "duration": 219}, {"note": 77, "velocity": 100, "duration": 110}, {"note": 0, "velocity": 0, "duration": 130}, {"note": 78, "velocity": 127, "duration": 336}, {"note": 0, "velocity": 0, "duration": 144}, {"note": 70, "velocity": 99, "duration": 117}, {"note": 0, "velocity": 0, "duration": 123}, {"note": 70, "velocity": 107, "duration": 106}, {"note": 0, "velocity": 0, "duration": 134}, {"note": 75, "velocity": 117, "duration": 221}, {"note": 75, "velocity": 127, "duration": 355}, {"note": 0, "velocity": 0, "duration": 125}, {"note": 73, "velocity": 112, "duration": 141}, {"note": 0, "velocity": 0, "duration": 99}, {"note": 77, "velocity": 102, "duration": 746}, {"note": 0, "velocity": 0, "duration": 214}, {"note": 72, "velocity": 117, "duration": 98}, {"note": 0, "velocity": 0, "duration": 142}, {"note": 72, "velocity": 95, "duration": 96}, {"note": 0, "velocity": 0, "duration": 144}, {"note": 72, "velocity": 97, "duration": 116}, {"note": 0, "velocity": 0, "duration": 124}, {"note": 70, "velocity": 127, "duration": 141}, {"note": 0, "velocity": 0, "duration": 99}, {"note": 68, "velocity": 112, "duration": 385}, {"note": 0, "velocity": 0, "duration": 95}, {"note": 72, "velocity": 99, "duration": 443}, {"note": 70, "velocity": 112, "duration": 1321}, {"note": 0, "velocity": 0, "duration": 599}, {"note": 82, "velocity": 127, "duration": 480}, {"note": 0, "velocity": 0, "duration": 240}, {"note": 77, "velocity": 102, "duration": 222}, {"note": 82, "velocity": 122, "duration": 550}, {"note": 0, "velocity": 0, "duration": 170}, {"note": 84, "velocity": 107, "duration": 160}, {"note": 0, "velocity": 0, "duration": 80}, {"note": 85, "velocity": 122, "duration": 356}, {"note": 0, "velocity": 0, "duration": 124}, {"note": 84, "velocity": 107, "duration": 393}, {"note": 0, "velocity": 0, "duration": 87}, {"note": 82, "velocity": 122, "duration": 525}, {"note": 0, "velocity": 0, "duration": 435}, {"note": 82, "velocity": 127, "duration": 104}, {"note": 0, "velocity": 0, "duration": 136}, {"note": 82, "velocity": 127, "duration": 107}, {"note": 0, "velocity": 0, "duration": 133}, {"note": 80, "velocity": 127, "duration": 107}, {"note": 0, "velocity": 0, "duration": 133}, {"note": 82, "velocity": 122, "duration": 112}, {"note": 0, "velocity": 0, "duration": 128}, {"note": 78, "velocity": 127, "duration": 378}, {"note": 0, "velocity": 0, "duration": 102}, {"note": 78, "velocity": 122, "duration": 232}, {"note": 80, "velocity": 112, "duration": 253}, {"note": 75, "velocity": 117, "duration": 1499}, {"note": 0, "velocity": 0, "duration": 421}, {"note": 75, "velocity": 127, "duration": 94}, {"note": 0, "velocity": 0, "duration": 146}, {"note": 75, "velocity": 112, "duration": 86}, {"note": 0, "velocity": 0, "duration": 154}, {"note": 75, "velocity": 122, "duration": 95}, {"note": 0, "velocity": 0, "duration": 145}, {"note": 77, "velocity": 112, "duration": 133}, {"note": 0, "velocity": 0, "duration": 107}, {"note": 75, "velocity": 127, "duration": 244}, {"note": 0, "velocity": 0, "duration": 236}, {"note": 70, "velocity": 122, "duration": 353}, {"note": 0, "velocity": 0, "duration": 127}, {"note": 73, "velocity": 127, "duration": 563}, {"note": 0, "velocity": 0, "duration": 157}, {"note": 75, "velocity": 122, "duration": 134}, {"note": 0, "velocity": 0, "duration": 106}, {"note": 77, "velocity": 127, "duration": 748}, {"note": 0, "velocity": 0, "duration": 212}, {"note": 80, "velocity": 127, "duration": 89}, {"note": 0, "velocity": 0, "duration": 151}, {"note": 80, "velocity": 112, "duration": 74}, {"note": 0, "velocity": 0, "duration": 166}, {"note": 80, "velocity": 127, "duration": 133}, {"note": 0, "velocity": 0, "duration": 107}, {"note": 77, "velocity": 112, "duration": 140}, {"note": 0, "velocity": 0, "duration": 100}, {"note": 75, "velocity": 122, "duration": 367}, {"note": 0, "velocity": 0, "duration": 113}, {"note": 80, "velocity": 127, "duration": 357}, {"note": 0, "velocity": 0, "duration": 123}, {"note": 77, "velocity": 127, "duration": 482}, {"note": 0, "velocity": 0, "duration": 1438}, {"note": 78, "velocity": 127, "duration": 83}, {"note": 0, "velocity": 0, "duration": 157}, {"note": 78, "velocity": 102, "duration": 79}, {"note": 0, "velocity": 0, "duration": 161}, {"note": 78, "velocity": 127, "duration": 101}, {"note": 0, "velocity": 0, "duration": 139}, {"note": 77, "velocity": 93, "duration": 124}, {"note": 0, "velocity": 0, "duration": 116}, {"note": 78, "velocity": 122, "duration": 290}, {"note": 0, "velocity": 0, "duration": 190}, {"note": 82, "velocity": 127, "duration": 368}, {"note": 0, "velocity": 0, "duration": 112}, {"note": 75, "velocity": 127, "duration": 99}, {"note": 0, "velocity": 0, "duration": 141}, {"note": 75, "velocity": 122, "duration": 271}, {"note": 0, "velocity": 0, "duration": 209}, {"note": 73, "velocity": 127, "duration": 144}, {"note": 0, "velocity": 0, "duration": 96}, {"note": 77, "velocity": 117, "duration": 612}, {"note": 0, "velocity": 0, "duration": 348}, {"note": 68, "velocity": 127, "duration": 99}, {"note": 0, "velocity": 0, "duration": 141}, {"note": 68, "velocity": 107, "duration": 85}, {"note": 0, "velocity": 0, "duration": 155}, {"note": 68, "velocity": 117, "duration": 101}, {"note": 0, "velocity": 0, "duration": 139}, {"note": 65, "velocity": 89, "duration": 118}, {"note": 0, "velocity": 0, "duration": 122}, {"note": 68, "velocity": 127, "duration": 419}, {"note": 0, "velocity": 0, "duration": 61}, {"note": 72, "velocity": 122, "duration": 371}, {"note": 0, "velocity": 0, "duration": 109}, {"note": 70, "velocity": 122, "duration": 1164}, {"note": 0, "velocity": 0, "duration": 756}, {"note": 78, "velocity": 127, "duration": 83}, {"note": 0, "velocity": 0, "duration": 157}, {"note": 78, "velocity": 102, "duration": 240}, {"note": 0, "velocity": 0, "duration": 240}, {"note": 77, "velocity": 93, "duration": 124}, {"note": 0, "velocity": 0, "duration": 116}, {"note": 78, "velocity": 122, "duration": 290}, {"note": 0, "velocity": 0, "duration": 190}, {"note": 82, "velocity": 127, "duration": 368}, {"note": 0, "velocity": 0, "duration": 112}, {"note": 75, "velocity": 127, "duration": 99}, {"note": 0, "velocity": 0, "duration": 141}, {"note": 75, "velocity": 122, "duration": 271}, {"note": 0, "velocity": 0, "duration": 209}, {"note": 73, "velocity": 127, "duration": 144}, {"note": 0, "velocity": 0, "duration": 96}, {"note": 77, "velocity": 117, "duration": 612}, {"note": 0, "velocity": 0, "duration": 348}, {"note": 68, "velocity": 127, "duration": 99}, {"note": 0, "velocity": 0, "duration": 141}, {"note": 68, "velocity": 107, "duration": 85}, {"note": 0, "velocity": 0, "duration": 155}, {"note": 68, "velocity": 117, "duration": 101}, {"note": 0, "velocity": 0, "duration": 139}, {"note": 65, "velocity": 89, "duration": 118}, {"note": 0, "velocity": 0, "duration": 122}, {"note": 68, "velocity": 127, "duration": 419}, {"note": 0, "velocity": 0, "duration": 61}, {"note": 72, "velocity": 122, "duration": 371}, {"note": 0, "velocity": 0, "duration": 109}, {"note": 70, "velocity": 122, "duration": 1164}, {"note": 0, "velocity": 0, "duration": 756}, {"note": 80, "velocity": 127, "duration": 98}, {"note": 0, "velocity": 0, "duration": 142}, {"note": 80, "velocity": 112, "duration": 80}, {"note": 0, "velocity": 0, "duration": 160}, {"note": 80, "velocity": 122, "duration": 98}, {"note": 0, "velocity": 0, "duration": 142}, {"note": 77, "velocity": 93, "duration": 109}, {"note": 0, "velocity": 0, "duration": 131}, {"note": 80, "velocity": 127, "duration": 232}, {"note": 0, "velocity": 0, "duration": 248}, {"note": 84, "velocity": 127, "duration": 369}, {"note": 0, "velocity": 0, "duration": 111}, {"note": 82, "velocity": 127, "duration": 1267}, {"note": 0, "velocity": 0, "duration": 21773}, {"note": 65, "velocity": 99, "duration": 222}, {"note": 68, "velocity": 102, "duration": 257}, {"note": 0, "velocity": 0, "duration": 223}, {"note": 65, "velocity": 92, "duration": 125}, {"note": 0, "velocity": 0, "duration": 115}, {"note": 70, "velocity": 127, "duration": 672}, {"note": 0, "velocity": 0, "duration": 288}, {"note": 73, "velocity": 127, "duration": 198}, {"note": 72, "velocity": 83, "duration": 303}, {"note": 0, "velocity": 0, "duration": 177}, {"note": 68, "velocity": 93, "duration": 239}, {"note": 70, "velocity": 93, "duration": 650}, {"note": 0, "velocity": 0, "duration": 310}, {"note": 77, "velocity": 107, "duration": 104}, {"note": 0, "velocity": 0, "duration": 136}, {"note": 77, "velocity": 107, "duration": 89}, {"note": 0, "velocity": 0, "duration": 151}, {"note": 77, "velocity": 107, "duration": 169}, {"note": 0, "velocity": 0, "duration": 71}, {"note": 75, "velocity": 102, "duration": 175}, {"note": 0, "velocity": 0, "duration": 65}, {"note": 73, "velocity": 100, "duration": 297}, {"note": 0, "velocity": 0, "duration": 183}, {"note": 70, "velocity": 100, "duration": 457}, {"note": 75, "velocity": 102, "duration": 1274}, {"note": 0, "velocity": 0, "duration": 646}, {"note": 78, "velocity": 127, "duration": 92}, {"note": 0, "velocity": 0, "duration": 148}, {"note": 78, "velocity": 117, "duration": 261}, {"note": 0, "velocity": 0, "duration": 219}, {"note": 77, "velocity": 100, "duration": 110}, {"note": 0, "velocity": 0, "duration": 130}, {"note": 78, "velocity": 127, "duration": 336}, {"note": 0, "velocity": 0, "duration": 144}, {"note": 70, "velocity": 99, "duration": 117}, {"note": 0, "velocity": 0, "duration": 123}, {"note": 70, "velocity": 107, "duration": 106}, {"note": 0, "velocity": 0, "duration": 134}, {"note": 75, "velocity": 117, "duration": 575}, {"note": 0, "velocity": 0, "duration": 145}, {"note": 73, "velocity": 112, "duration": 141}, {"note": 0, "velocity": 0, "duration": 99}, {"note": 77, "velocity": 102, "duration": 746}, {"note": 0, "velocity": 0, "duration": 214}, {"note": 72, "velocity": 117, "duration": 98}, {"note": 0, "velocity": 0, "duration": 142}, {"note": 72, "velocity": 95, "duration": 96}, {"note": 0, "velocity": 0, "duration": 144}, {"note": 72, "velocity": 97, "duration": 116}, {"note": 0, "velocity": 0, "duration": 124}, {"note": 73, "velocity": 122, "duration": 131}, {"note": 0, "velocity": 0, "duration": 109}, {"note": 72, "velocity": 117, "duration": 332}, {"note": 0, "velocity": 0, "duration": 148}, {"note": 70, "velocity": 117, "duration": 350}, {"note": 0, "velocity": 0, "duration": 130}, {"note": 77, "velocity": 112, "duration": 1473}, {"note": 0, "velocity": 0, "duration": 447}, {"note": 65, "velocity": 102, "duration": 137}, {"note": 0, "velocity": 0, "duration": 103}, {"note": 68, "velocity": 117, "duration": 255}, {"note": 0, "velocity": 0, "duration": 225}, {"note": 65, "velocity": 96, "duration": 147}, {"note": 0, "velocity": 0, "duration": 93}, {"note": 70, "velocity": 127, "duration": 762}, {"note": 0, "velocity": 0, "duration": 198}, {"note": 73, "velocity": 127, "duration": 163}, {"note": 0, "velocity": 0, "duration": 77}, {"note": 72, "velocity": 112, "duration": 251}, {"note": 0, "velocity": 0, "duration": 229}, {"note": 68, "velocity": 122, "duration": 146}, {"note": 0, "velocity": 0, "duration": 94}, {"note": 70, "velocity": 127, "duration": 795}, {"note": 0, "velocity": 0, "duration": 165}, {"note": 77, "velocity": 117, "duration": 109}, {"note": 0, "velocity": 0, "duration": 131}, {"note": 77, "velocity": 97, "duration": 90}, {"note": 0, "velocity": 0, "duration": 150}, {"note": 77, "velocity": 95, "duration": 105}, {"note": 0, "velocity": 0, "duration": 135}, {"note": 75, "velocity": 117, "duration": 86}, {"note": 0, "velocity": 0, "duration": 154}, {"note": 73, "velocity": 127, "duration": 305}, {"note": 0, "velocity": 0, "duration": 175}, {"note": 70, "velocity": 122, "duration": 343}, {"note": 0, "velocity": 0, "duration": 137}, {"note": 75, "velocity": 127, "duration": 1435}, {"note": 0, "velocity": 0, "duration": 485}, {"note": 78, "velocity": 127, "duration": 92}, {"note": 0, "velocity": 0, "duration": 148}, {"note": 78, "velocity": 117, "duration": 261}, {"note": 0, "velocity": 0, "duration": 219}, {"note": 77, "velocity": 100, "duration": 110}, {"note": 0, "velocity": 0, "duration": 130}, {"note": 78, "velocity": 127, "duration": 336}, {"note": 0, "velocity": 0, "duration": 144}, {"note": 70, "velocity": 99, "duration": 117}, {"note": 0, "velocity": 0, "duration": 123}, {"note": 70, "velocity": 107, "duration": 106}, {"note": 0, "velocity": 0, "duration": 134}, {"note": 75, "velocity": 117, "duration": 221}, {"note": 75, "velocity": 127, "duration": 355}, {"note": 0, "velocity": 0, "duration": 125}, {"note": 73, "velocity": 112, "duration": 141}, {"note": 0, "velocity": 0, "duration": 99}, {"note": 77, "velocity": 102, "duration": 746}, {"note": 0, "velocity": 0, "duration": 214}, {"note": 72, "velocity": 117, "duration": 98}, {"note": 0, "velocity": 0, "duration": 142}, {"note": 72, "velocity": 95, "duration": 96}, {"note": 0, "velocity": 0, "duration": 144}, {"note": 72, "velocity": 97, "duration": 116}, {"note": 0, "velocity": 0, "duration": 124}, {"note": 70, "velocity": 127, "duration": 141}, {"note": 0, "velocity": 0, "duration": 99}, {"note": 68, "velocity": 112, "duration": 385}, {"note": 0, "velocity": 0, "duration": 95}, {"note": 72, "velocity": 99, "duration": 443}, {"note": 70, "velocity": 112, "duration": 1321}, {"note": 0, "velocity": 0, "duration": 599}, {"note": 82, "velocity": 127, "duration": 480}, {"note": 0, "velocity": 0, "duration": 240}, {"note": 77, "velocity": 102, "duration": 222}, {"note": 82, "velocity": 122, "duration": 550}, {"note": 0, "velocity": 0, "duration": 170}, {"note": 84, "velocity": 107, "duration": 160}, {"note": 0, "velocity": 0, "duration": 80}, {"note": 85, "velocity": 122, "duration": 356}, {"note": 0, "velocity": 0, "duration": 124}, {"note": 84, "velocity": 107, "duration": 393}, {"note": 0, "velocity": 0, "duration": 87}, {"note": 82, "velocity": 122, "duration": 525}, {"note": 0, "velocity": 0, "duration": 435}, {"note": 82, "velocity": 127, "duration": 104}, {"note": 0, "velocity": 0, "duration": 136}, {"note": 82, "velocity": 127, "duration": 107}, {"note": 0, "velocity": 0, "duration": 133}, {"note": 80, "velocity": 127, "duration": 107}, {"note": 0, "velocity": 0, "duration": 133}, {"note": 82, "velocity": 122, "duration": 112}, {"note": 0, "velocity": 0, "duration": 128}, {"note": 78, "velocity": 127, "duration": 378}, {"note": 0, "velocity": 0, "duration": 102}, {"note": 78, "velocity": 122, "duration": 232}, {"note": 80, "velocity": 112, "duration": 253}, {"note": 75, "velocity": 117, "duration": 1499}, {"note": 0, "velocity": 0, "duration": 421}, {"note": 75, "velocity": 127, "duration": 94}, {"note": 0, "velocity": 0, "duration": 146}, {"note": 75, "velocity": 112, "duration": 86}, {"note": 0, "velocity": 0, "duration": 154}, {"note": 75, "velocity": 122, "duration": 95}, {"note": 0, "velocity": 0, "duration": 145}, {"note": 77, "velocity": 112, "duration": 133}, {"note": 0, "velocity": 0, "duration": 107}, {"note": 75, "velocity": 127, "duration": 244}, {"note": 0, "velocity": 0, "duration": 236}, {"note": 70, "velocity": 122, "duration": 353}, {"note": 0, "velocity": 0, "duration": 127}, {"note": 73, "velocity": 127, "duration": 563}, {"note": 0, "velocity": 0, "duration": 157}, {"note": 75, "velocity": 122, "duration": 134}, {"note": 0, "velocity": 0, "duration": 106}, {"note": 77, "velocity": 127, "duration": 748}, {"note": 0, "velocity": 0, "duration": 212}, {"note": 80, "velocity": 127, "duration": 89}, {"note": 0, "velocity": 0, "duration": 151}, {"note": 80, "velocity": 112, "duration": 74}, {"note": 0, "velocity": 0, "duration": 166}, {"note": 80, "velocity": 127, "duration": 133}, {"note": 0, "velocity": 0, "duration": 107}, {"note": 77, "velocity": 112, "duration": 140}, {"note": 0, "velocity": 0, "duration": 100}, {"note": 75, "velocity": 122, "duration": 367}, {"note": 0, "velocity": 0, "duration": 113}, {"note": 80, "velocity": 127, "duration": 357}, {"note": 0, "velocity": 0, "duration": 123}, {"note": 77, "velocity": 127, "duration": 482}, {"note": 0, "velocity": 0, "duration": 1438}, {"note": 78, "velocity": 127, "duration": 83}, {"note": 0, "velocity": 0, "duration": 157}, {"note": 78, "velocity": 102, "duration": 79}, {"note": 0, "velocity": 0, "duration": 161}, {"note": 78, "velocity": 127, "duration": 101}, {"note": 0, "velocity": 0, "duration": 139}, {"note": 77, "velocity": 93, "duration": 124}, {"note": 0, "velocity": 0, "duration": 116}, {"note": 78, "velocity": 122, "duration": 290}, {"note": 0, "velocity": 0, "duration": 190}, {"note": 82, "velocity": 127, "duration": 368}, {"note": 0, "velocity": 0, "duration": 112}, {"note": 75, "velocity": 127, "duration": 99}, {"note": 0, "velocity": 0, "duration": 141}, {"note": 75, "velocity": 122, "duration": 271}, {"note": 0, "velocity": 0, "duration": 209}, {"note": 73, "velocity": 127, "duration": 144}, {"note": 0, "velocity": 0, "duration": 96}, {"note": 77, "velocity": 117, "duration": 612}, {"note": 0, "velocity": 0, "duration": 348}, {"note": 68, "velocity": 127, "duration": 99}, {"note": 0, "velocity": 0, "duration": 141}, {"note": 68, "velocity": 107, "duration": 85}, {"note": 0, "velocity": 0, "duration": 155}, {"note": 68, "velocity": 117, "duration": 101}, {"note": 0, "velocity": 0, "duration": 139}, {"note": 65, "velocity": 89, "duration": 118}, {"note": 0, "velocity": 0, "duration": 122}, {"note": 68, "velocity": 127, "duration": 419}, {"note": 0, "velocity": 0, "duration": 61}, {"note": 72, "velocity": 122, "duration": 371}, {"note": 0, "velocity": 0, "duration": 109}, {"note": 70, "velocity": 122, "duration": 1164}, {"note": 0, "velocity": 0, "duration": 756}, {"note": 78, "velocity": 127, "duration": 83}, {"note": 0, "velocity": 0, "duration": 157}, {"note": 78, "velocity": 102, "duration": 240}, {"note": 0, "velocity": 0, "duration": 240}, {"note": 77, "velocity": 93, "duration": 124}, {"note": 0, "velocity": 0, "duration": 116}, {"note": 78, "velocity": 122, "duration": 290}, {"note": 0, "velocity": 0, "duration": 190}, {"note": 82, "velocity": 127, "duration": 368}, {"note": 0, "velocity": 0, "duration": 112}, {"note": 75, "velocity": 127, "duration": 99}, {"note": 0, "velocity": 0, "duration": 141}, {"note": 75, "velocity": 122, "duration": 271}, {"note": 0, "velocity": 0, "duration": 209}, {"note": 73, "velocity": 127, "duration": 144}, {"note": 0, "velocity": 0, "duration": 96}, {"note": 77, "velocity": 117, "duration": 612}, {"note": 0, "velocity": 0, "duration": 348}, {"note": 68, "velocity": 127, "duration": 99}, {"note": 0, "velocity": 0, "duration": 141}, {"note": 68, "velocity": 107, "duration": 85}, {"note": 0, "velocity": 0, "duration": 155}, {"note": 68, "velocity": 117, "duration": 101}, {"note": 0, "velocity": 0, "duration": 139}, {"note": 65, "velocity": 89, "duration": 118}, {"note": 0, "velocity": 0, "duration": 122}, {"note": 68, "velocity": 127, "duration": 419}, {"note": 0, "velocity": 0, "duration": 61}, {"note": 72, "velocity": 122, "duration": 371}, {"note": 0, "velocity": 0, "duration": 109}, {"note": 70, "velocity": 122, "duration": 1164}, {"note": 0, "velocity": 0, "duration": 756}, {"note": 80, "velocity": 127, "duration": 98}, {"note": 0, "velocity": 0, "duration": 142}, {"note": 80, "velocity": 112, "duration": 80}, {"note": 0, "velocity": 0, "duration": 160}, {"note": 80, "velocity": 122, "duration": 98}, {"note": 0, "velocity": 0, "duration": 142}, {"note": 77, "velocity": 93, "duration": 109}, {"note": 0, "velocity": 0, "duration": 131}, {"note": 80, "velocity": 127, "duration": 232}, {"note": 0, "velocity": 0, "duration": 728}, {"note": 82, "velocity": 127, "duration": 471}, {"note": 84, "velocity": 100, "duration": 455}, {"note": 82, "velocity": 127, "duration": 2940}]]