[[{"note": 66, "velocity": 99, "duration": 186}, {"note": 71, "velocity": 99, "duration": 146}, {"note": 0, "velocity": 0, "duration": 94}, {"note": 71, "velocity": 88, "duration": 146}, {"note": 0, "velocity": 0, "duration": 94}, {"note": 71, "velocity": 102, "duration": 200}, {"note": 71, "velocity": 96, "duration": 112}, {"note": 74, "velocity": 95, "duration": 82}, {"note": 73, "velocity": 117, "duration": 234}, {"note": 71, "velocity": 99, "duration": 418}, {"note": 0, "velocity": 0, "duration": 62}, {"note": 69, "velocity": 100, "duration": 188}, {"note": 71, "velocity": 107, "duration": 1284}, {"note": 0, "velocity": 0, "duration": 396}, {"note": 66, "velocity": 112, "duration": 97}, {"note": 0, "velocity": 0, "duration": 143}, {"note": 71, "velocity": 97, "duration": 87}, {"note": 0, "velocity": 0, "duration": 153}, {"note": 71, "velocity": 90, "duration": 40}, {"note": 0, "velocity": 0, "duration": 80}, {"note": 71, "velocity": 85, "duration": 54}, {"note": 0, "velocity": 0, "duration": 66}, {"note": 71, "velocity": 99, "duration": 121}, {"note": 0, "velocity": 0, "duration": 119}, {"note": 71, "velocity": 100, "duration": 62}, {"note": 74, "velocity": 89, "duration": 76}, {"note": 73, "velocity": 112, "duration": 235}, {"note": 71, "velocity": 107, "duration": 370}, {"note": 0, "velocity": 0, "duration": 110}, {"note": 69, "velocity": 96, "duration": 142}, {"note": 71, "velocity": 69, "duration": 98}, {"note": 66, "velocity": 93, "duration": 999}, {"note": 0, "velocity": 0, "duration": 921}, {"note": 64, "velocity": 99, "duration": 126}, {"note": 0, "velocity": 0, "duration": 114}, {"note": 64, "velocity": 92, "duration": 52}, {"note": 0, "velocity": 0, "duration": 68}, {"note": 64, "velocity": 83, "duration": 61}, {"note": 64, "velocity": 89, "duration": 198}, {"note": 66, "velocity": 117, "duration": 180}, {"note": 69, "velocity": 102, "duration": 208}, {"note": 69, "velocity": 97, "duration": 422}, {"note": 66, "velocity": 99, "duration": 108}, {"note": 69, "velocity": 81, "duration": 88}, {"note": 71, "velocity": 107, "duration": 352}, {"note": 0, "velocity": 0, "duration": 128}, {"note": 66, "velocity": 117, "duration": 181}, {"note": 64, "velocity": 93, "duration": 152}, {"note": 0, "velocity": 0, "duration": 88}, {"note": 62, "velocity": 99, "duration": 670}, {"note": 71, "velocity": 86, "duration": 96}, {"note": 74, "velocity": 96, "duration": 66}, {"note": 76, "velocity": 97, "duration": 248}, {"note": 0, "velocity": 0, "duration": 112}, {"note": 76, "velocity": 96, "duration": 56}, {"note": 0, "velocity": 0, "duration": 64}, {"note": 76, "velocity": 86, "duration": 125}, {"note": 0, "velocity": 0, "duration": 115}, {"note": 78, "velocity": 117, "duration": 157}, {"note": 0, "velocity": 0, "duration": 83}, {"note": 69, "velocity": 95, "duration": 196}, {"note": 69, "velocity": 107, "duration": 110}, {"note": 71, "velocity": 88, "duration": 102}, {"note": 66, "velocity": 93, "duration": 304}, {"note": 69, "velocity": 102, "duration": 281}, {"note": 71, "velocity": 127, "duration": 1205}, {"note": 0, "velocity": 0, "duration": 475}, {"note": 66, "velocity": 99, "duration": 186}, {"note": 71, "velocity": 99, "duration": 146}, {"note": 0, "velocity": 0, "duration": 94}, {"note": 71, "velocity": 88, "duration": 146}, {"note": 0, "velocity": 0, "duration": 94}, {"note": 71, "velocity": 102, "duration": 200}, {"note": 71, "velocity": 96, "duration": 112}, {"note": 74, "velocity": 95, "duration": 82}, {"note": 73, "velocity": 117, "duration": 234}, {"note": 71, "velocity": 99, "duration": 240}, {"note": 71, "velocity": 99, "duration": 165}, {"note": 0, "velocity": 0, "duration": 75}, {"note": 69, "velocity": 100, "duration": 188}, {"note": 71, "velocity": 107, "duration": 1284}, {"note": 0, "velocity": 0, "duration": 396}, {"note": 66, "velocity": 112, "duration": 97}, {"note": 66, "velocity": 100, "duration": 88}, {"note": 71, "velocity": 97, "duration": 87}, {"note": 0, "velocity": 0, "duration": 153}, {"note": 71, "velocity": 90, "duration": 163}, {"note": 0, "velocity": 0, "duration": 77}, {"note": 71, "velocity": 99, "duration": 121}, {"note": 0, "velocity": 0, "duration": 119}, {"note": 71, "velocity": 100, "duration": 62}, {"note": 74, "velocity": 89, "duration": 76}, {"note": 73, "velocity": 112, "duration": 235}, {"note": 71, "velocity": 107, "duration": 370}, {"note": 0, "velocity": 0, "duration": 110}, {"note": 69, "velocity": 96, "duration": 142}, {"note": 71, "velocity": 69, "duration": 98}, {"note": 66, "velocity": 93, "duration": 999}, {"note": 0, "velocity": 0, "duration": 921}, {"note": 64, "velocity": 99, "duration": 126}, {"note": 0, "velocity": 0, "duration": 114}, {"note": 64, "velocity": 92, "duration": 52}, {"note": 0, "velocity": 0, "duration": 68}, {"note": 64, "velocity": 83, "duration": 61}, {"note": 64, "velocity": 89, "duration": 198}, {"note": 66, "velocity": 117, "duration": 180}, {"note": 69, "velocity": 102, "duration": 395}, {"note": 0, "velocity": 0, "duration": 325}, {"note": 66, "velocity": 99, "duration": 108}, {"note": 69, "velocity": 81, "duration": 88}, {"note": 71, "velocity": 107, "duration": 229}, {"note": 66, "velocity": 97, "duration": 173}, {"note": 0, "velocity": 0, "duration": 67}, {"note": 66, "velocity": 117, "duration": 181}, {"note": 64, "velocity": 93, "duration": 152}, {"note": 0, "velocity": 0, "duration": 88}, {"note": 62, "velocity": 99, "duration": 670}, {"note": 71, "velocity": 86, "duration": 96}, {"note": 74, "velocity": 96, "duration": 66}, {"note": 76, "velocity": 97, "duration": 248}, {"note": 0, "velocity": 0, "duration": 112}, {"note": 76, "velocity": 96, "duration": 56}, {"note": 0, "velocity": 0, "duration": 64}, {"note": 76, "velocity": 86, "duration": 125}, {"note": 0, "velocity": 0, "duration": 115}, {"note": 78, "velocity": 117, "duration": 157}, {"note": 0, "velocity": 0, "duration": 83}, {"note": 69, "velocity": 95, "duration": 196}, {"note": 69, "velocity": 107, "duration": 110}, {"note": 71, "velocity": 88, "duration": 102}, {"note": 66, "velocity": 93, "duration": 304}, {"note": 69, "velocity": 102, "duration": 281}, {"note": 71, "velocity": 127, "duration": 1205}, {"note": 0, "velocity": 0, "duration": 475}, {"note": 71, "velocity": 99, "duration": 163}, {"note": 0, "velocity": 0, "duration": 77}, {"note": 78, "velocity": 117, "duration": 155}, {"note": 0, "velocity": 0, "duration": 85}, {"note": 78, "velocity": 127, "duration": 334}, {"note": 0, "velocity": 0, "duration": 146}, {"note": 76, "velocity": 122, "duration": 156}, {"note": 0, "velocity": 0, "duration": 84}, {"note": 74, "velocity": 112, "duration": 504}, {"note": 0, "velocity": 0, "duration": 216}, {"note": 71, "velocity": 93, "duration": 82}, {"note": 74, "velocity": 96, "duration": 97}, {"note": 76, "velocity": 95, "duration": 164}, {"note": 0, "velocity": 0, "duration": 76}, {"note": 76, "velocity": 102, "duration": 170}, {"note": 0, "velocity": 0, "duration": 70}, {"note": 76, "velocity": 96, "duration": 190}, {"note": 74, "velocity": 117, "duration": 125}, {"note": 76, "velocity": 76, "duration": 106}, {"note": 71, "velocity": 86, "duration": 578}, {"note": 0, "velocity": 0, "duration": 142}, {"note": 71, "velocity": 93, "duration": 211}, {"note": 73, "velocity": 117, "duration": 284}, {"note": 0, "velocity": 0, "duration": 76}, {"note": 73, "velocity": 122, "duration": 63}, {"note": 73, "velocity": 102, "duration": 162}, {"note": 0, "velocity": 0, "duration": 78}, {"note": 71, "velocity": 97, "duration": 167}, {"note": 0, "velocity": 0, "duration": 73}, {"note": 69, "velocity": 96, "duration": 223}, {"note": 69, "velocity": 102, "duration": 98}, {"note": 71, "velocity": 93, "duration": 65}, {"note": 71, "velocity": 96, "duration": 192}, {"note": 69, "velocity": 95, "duration": 168}, {"note": 0, "velocity": 0, "duration": 72}, {"note": 66, "velocity": 112, "duration": 934}, {"note": 0, "velocity": 0, "duration": 986}, {"note": 64, "velocity": 95, "duration": 127}, {"note": 0, "velocity": 0, "duration": 113}, {"note": 64, "velocity": 99, "duration": 371}, {"note": 0, "velocity": 0, "duration": 109}, {"note": 62, "velocity": 99, "duration": 181}, {"note": 64, "velocity": 107, "duration": 421}, {"note": 0, "velocity": 0, "duration": 539}, {"note": 69, "velocity": 99, "duration": 119}, {"note": 0, "velocity": 0, "duration": 121}, {"note": 66, "velocity": 102, "duration": 376}, {"note": 0, "velocity": 0, "duration": 104}, {"note": 69, "velocity": 102, "duration": 190}, {"note": 71, "velocity": 107, "duration": 679}, {"note": 71, "velocity": 99, "duration": 175}, {"note": 0, "velocity": 0, "duration": 65}, {"note": 76, "velocity": 117, "duration": 161}, {"note": 0, "velocity": 0, "duration": 79}, {"note": 76, "velocity": 99, "duration": 60}, {"note": 76, "velocity": 100, "duration": 49}, {"note": 0, "velocity": 0, "duration": 71}, {"note": 76, "velocity": 102, "duration": 123}, {"note": 0, "velocity": 0, "duration": 117}, {"note": 78, "velocity": 112, "duration": 141}, {"note": 0, "velocity": 0, "duration": 99}, {"note": 69, "velocity": 100, "duration": 198}, {"note": 69, "velocity": 127, "duration": 75}, {"note": 71, "velocity": 97, "duration": 62}, {"note": 66, "velocity": 107, "duration": 177}, {"note": 0, "velocity": 0, "duration": 63}, {"note": 69, "velocity": 100, "duration": 148}, {"note": 0, "velocity": 0, "duration": 92}, {"note": 71, "velocity": 107, "duration": 1121}, {"note": 0, "velocity": 0, "duration": 559}, {"note": 71, "velocity": 99, "duration": 163}, {"note": 0, "velocity": 0, "duration": 77}, {"note": 78, "velocity": 117, "duration": 155}, {"note": 0, "velocity": 0, "duration": 85}, {"note": 78, "velocity": 127, "duration": 334}, {"note": 0, "velocity": 0, "duration": 146}, {"note": 76, "velocity": 122, "duration": 156}, {"note": 0, "velocity": 0, "duration": 84}, {"note": 74, "velocity": 112, "duration": 504}, {"note": 0, "velocity": 0, "duration": 216}, {"note": 71, "velocity": 93, "duration": 82}, {"note": 74, "velocity": 96, "duration": 97}, {"note": 76, "velocity": 95, "duration": 164}, {"note": 0, "velocity": 0, "duration": 76}, {"note": 76, "velocity": 102, "duration": 170}, {"note": 0, "velocity": 0, "duration": 70}, {"note": 76, "velocity": 96, "duration": 190}, {"note": 74, "velocity": 117, "duration": 125}, {"note": 76, "velocity": 76, "duration": 106}, {"note": 71, "velocity": 86, "duration": 578}, {"note": 0, "velocity": 0, "duration": 142}, {"note": 71, "velocity": 93, "duration": 211}, {"note": 73, "velocity": 117, "duration": 160}, {"note": 0, "velocity": 0, "duration": 80}, {"note": 73, "velocity": 122, "duration": 160}, {"note": 0, "velocity": 0, "duration": 80}, {"note": 73, "velocity": 102, "duration": 162}, {"note": 0, "velocity": 0, "duration": 78}, {"note": 71, "velocity": 97, "duration": 167}, {"note": 0, "velocity": 0, "duration": 73}, {"note": 69, "velocity": 96, "duration": 223}, {"note": 69, "velocity": 102, "duration": 98}, {"note": 71, "velocity": 93, "duration": 65}, {"note": 71, "velocity": 96, "duration": 192}, {"note": 69, "velocity": 95, "duration": 168}, {"note": 0, "velocity": 0, "duration": 72}, {"note": 66, "velocity": 112, "duration": 934}, {"note": 0, "velocity": 0, "duration": 986}, {"note": 64, "velocity": 95, "duration": 127}, {"note": 0, "velocity": 0, "duration": 113}, {"note": 64, "velocity": 99, "duration": 371}, {"note": 0, "velocity": 0, "duration": 109}, {"note": 62, "velocity": 99, "duration": 181}, {"note": 64, "velocity": 107, "duration": 421}, {"note": 0, "velocity": 0, "duration": 539}, {"note": 69, "velocity": 99, "duration": 119}, {"note": 0, "velocity": 0, "duration": 121}, {"note": 66, "velocity": 102, "duration": 376}, {"note": 0, "velocity": 0, "duration": 104}, {"note": 69, "velocity": 102, "duration": 190}, {"note": 71, "velocity": 107, "duration": 868}, {"note": 0, "velocity": 0, "duration": 92}, {"note": 76, "velocity": 117, "duration": 318}, {"note": 76, "velocity": 100, "duration": 49}, {"note": 0, "velocity": 0, "duration": 71}, {"note": 76, "velocity": 102, "duration": 123}, {"note": 0, "velocity": 0, "duration": 117}, {"note": 78, "velocity": 112, "duration": 141}, {"note": 0, "velocity": 0, "duration": 99}, {"note": 69, "velocity": 100, "duration": 198}, {"note": 69, "velocity": 127, "duration": 75}, {"note": 71, "velocity": 97, "duration": 62}, {"note": 66, "velocity": 107, "duration": 177}, {"note": 0, "velocity": 0, "duration": 63}, {"note": 69, "velocity": 100, "duration": 148}, {"note": 0, "velocity": 0, "duration": 92}, {"note": 71, "velocity": 107, "duration": 1121}, {"note": 0, "velocity": 0, "duration": 15919}, {"note": 66, "velocity": 99, "duration": 186}, {"note": 71, "velocity": 99, "duration": 146}, {"note": 0, "velocity": 0, "duration": 94}, {"note": 71, "velocity": 88, "duration": 146}, {"note": 0, "velocity": 0, "duration": 94}, {"note": 71, "velocity": 102, "duration": 200}, {"note": 71, "velocity": 96, "duration": 112}, {"note": 74, "velocity": 95, "duration": 82}, {"note": 73, "velocity": 117, "duration": 234}, {"note": 71, "velocity": 99, "duration": 240}, {"note": 71, "velocity": 99, "duration": 165}, {"note": 0, "velocity": 0, "duration": 75}, {"note": 69, "velocity": 100, "duration": 188}, {"note": 71, "velocity": 107, "duration": 1284}, {"note": 0, "velocity": 0, "duration": 396}, {"note": 66, "velocity": 112, "duration": 97}, {"note": 66, "velocity": 100, "duration": 88}, {"note": 71, "velocity": 97, "duration": 87}, {"note": 0, "velocity": 0, "duration": 153}, {"note": 71, "velocity": 90, "duration": 163}, {"note": 0, "velocity": 0, "duration": 77}, {"note": 71, "velocity": 99, "duration": 121}, {"note": 0, "velocity": 0, "duration": 119}, {"note": 71, "velocity": 100, "duration": 62}, {"note": 74, "velocity": 89, "duration": 76}, {"note": 73, "velocity": 112, "duration": 235}, {"note": 71, "velocity": 107, "duration": 370}, {"note": 0, "velocity": 0, "duration": 110}, {"note": 69, "velocity": 96, "duration": 142}, {"note": 71, "velocity": 69, "duration": 98}, {"note": 66, "velocity": 93, "duration": 999}, {"note": 0, "velocity": 0, "duration": 921}, {"note": 64, "velocity": 99, "duration": 126}, {"note": 0, "velocity": 0, "duration": 114}, {"note": 64, "velocity": 92, "duration": 52}, {"note": 0, "velocity": 0, "duration": 68}, {"note": 64, "velocity": 83, "duration": 61}, {"note": 64, "velocity": 89, "duration": 198}, {"note": 66, "velocity": 117, "duration": 180}, {"note": 69, "velocity": 102, "duration": 395}, {"note": 0, "velocity": 0, "duration": 325}, {"note": 66, "velocity": 99, "duration": 108}, {"note": 69, "velocity": 81, "duration": 88}, {"note": 71, "velocity": 107, "duration": 229}, {"note": 66, "velocity": 97, "duration": 173}, {"note": 0, "velocity": 0, "duration": 67}, {"note": 66, "velocity": 117, "duration": 181}, {"note": 64, "velocity": 93, "duration": 152}, {"note": 0, "velocity": 0, "duration": 88}, {"note": 62, "velocity": 99, "duration": 670}, {"note": 71, "velocity": 86, "duration": 96}, {"note": 74, "velocity": 96, "duration": 66}, {"note": 76, "velocity": 97, "duration": 248}, {"note": 0, "velocity": 0, "duration": 112}, {"note": 76, "velocity": 96, "duration": 56}, {"note": 0, "velocity": 0, "duration": 64}, {"note": 76, "velocity": 86, "duration": 125}, {"note": 0, "velocity": 0, "duration": 115}, {"note": 78, "velocity": 117, "duration": 157}, {"note": 0, "velocity": 0, "duration": 83}, {"note": 69, "velocity": 95, "duration": 196}, {"note": 69, "velocity": 107, "duration": 110}, {"note": 71, "velocity": 88, "duration": 102}, {"note": 66, "velocity": 93, "duration": 304}, {"note": 69, "velocity": 102, "duration": 281}, {"note": 71, "velocity": 127, "duration": 1205}, {"note": 0, "velocity": 0, "duration": 475}, {"note": 71, "velocity": 99, "duration": 163}, {"note": 0, "velocity": 0, "duration": 77}, {"note": 78, "velocity": 117, "duration": 155}, {"note": 0, "velocity": 0, "duration": 85}, {"note": 78, "velocity": 127, "duration": 334}, {"note": 0, "velocity": 0, "duration": 146}, {"note": 76, "velocity": 122, "duration": 156}, {"note": 0, "velocity": 0, "duration": 84}, {"note": 74, "velocity": 112, "duration": 504}, {"note": 0, "velocity": 0, "duration": 216}, {"note": 71, "velocity": 93, "duration": 82}, {"note": 74, "velocity": 96, "duration": 97}, {"note": 76, "velocity": 95, "duration": 164}, {"note": 0, "velocity": 0, "duration": 76}, {"note": 76, "velocity": 102, "duration": 170}, {"note": 0, "velocity": 0, "duration": 70}, {"note": 76, "velocity": 96, "duration": 190}, {"note": 74, "velocity": 117, "duration": 125}, {"note": 76, "velocity": 76, "duration": 106}, {"note": 71, "velocity": 86, "duration": 578}, {"note": 0, "velocity": 0, "duration": 142}, {"note": 71, "velocity": 93, "duration": 211}, {"note": 73, "velocity": 117, "duration": 284}, {"note": 0, "velocity": 0, "duration": 76}, {"note": 73, "velocity": 122, "duration": 63}, {"note": 73, "velocity": 102, "duration": 162}, {"note": 0, "velocity": 0, "duration": 78}, {"note": 71, "velocity": 97, "duration": 167}, {"note": 0, "velocity": 0, "duration": 73}, {"note": 69, "velocity": 96, "duration": 223}, {"note": 69, "velocity": 102, "duration": 98}, {"note": 71, "velocity": 93, "duration": 65}, {"note": 71, "velocity": 96, "duration": 192}, {"note": 69, "velocity": 95, "duration": 168}, {"note": 0, "velocity": 0, "duration": 72}, {"note": 66, "velocity": 112, "duration": 934}, {"note": 0, "velocity": 0, "duration": 986}, {"note": 64, "velocity": 95, "duration": 127}, {"note": 0, "velocity": 0, "duration": 113}, {"note": 64, "velocity": 99, "duration": 371}, {"note": 0, "velocity": 0, "duration": 109}, {"note": 62, "velocity": 99, "duration": 181}, {"note": 64, "velocity": 107, "duration": 421}, {"note": 0, "velocity": 0, "duration": 539}, {"note": 69, "velocity": 99, "duration": 119}, {"note": 0, "velocity": 0, "duration": 121}, {"note": 66, "velocity": 102, "duration": 376}, {"note": 0, "velocity": 0, "duration": 104}, {"note": 69, "velocity": 102, "duration": 190}, {"note": 71, "velocity": 107, "duration": 679}, {"note": 71, "velocity": 99, "duration": 175}, {"note": 0, "velocity": 0, "duration": 65}, {"note": 76, "velocity": 117, "duration": 161}, {"note": 0, "velocity": 0, "duration": 79}, {"note": 76, "velocity": 99, "duration": 60}, {"note": 76, "velocity": 100, "duration": 49}, {"note": 0, "velocity": 0, "duration": 71}, {"note": 76, "velocity": 102, "duration": 123}, {"note": 0, "velocity": 0, "duration": 117}, {"note": 78, "velocity": 112, "duration": 141}, {"note": 0, "velocity": 0, "duration": 99}, {"note": 69, "velocity": 100, "duration": 198}, {"note": 69, "velocity": 127, "duration": 75}, {"note": 71, "velocity": 97, "duration": 62}, {"note": 66, "velocity": 107, "duration": 177}, {"note": 0, "velocity": 0, "duration": 63}, {"note": 69, "velocity": 100, "duration": 148}, {"note": 0, "velocity": 0, "duration": 92}, {"note": 71, "velocity": 107, "duration": 1121}, {"note": 0, "velocity": 0, "duration": 559}, {"note": 71, "velocity": 99, "duration": 163}, {"note": 0, "velocity": 0, "duration": 77}, {"note": 78, "velocity": 117, "duration": 155}, {"note": 0, "velocity": 0, "duration": 85}, {"note": 78, "velocity": 127, "duration": 334}, {"note": 0, "velocity": 0, "duration": 146}, {"note": 76, "velocity": 122, "duration": 156}, {"note": 0, "velocity": 0, "duration": 84}, {"note": 74, "velocity": 112, "duration": 504}, {"note": 0, "velocity": 0, "duration": 216}, {"note": 71, "velocity": 93, "duration": 82}, {"note": 74, "velocity": 96, "duration": 97}, {"note": 76, "velocity": 95, "duration": 164}, {"note": 0, "velocity": 0, "duration": 76}, {"note": 76, "velocity": 102, "duration": 170}, {"note": 0, "velocity": 0, "duration": 70}, {"note": 76, "velocity": 96, "duration": 190}, {"note": 74, "velocity": 117, "duration": 125}, {"note": 76, "velocity": 76, "duration": 106}, {"note": 71, "velocity": 86, "duration": 578}, {"note": 0, "velocity": 0, "duration": 142}, {"note": 71, "velocity": 93, "duration": 211}, {"note": 73, "velocity": 117, "duration": 160}, {"note": 0, "velocity": 0, "duration": 80}, {"note": 73, "velocity": 122, "duration": 160}, {"note": 0, "velocity": 0, "duration": 80}, {"note": 73, "velocity": 102, "duration": 162}, {"note": 0, "velocity": 0, "duration": 78}, {"note": 71, "velocity": 97, "duration": 167}, {"note": 0, "velocity": 0, "duration": 73}, {"note": 69, "velocity": 96, "duration": 223}, {"note": 69, "velocity": 102, "duration": 98}, {"note": 71, "velocity": 93, "duration": 65}, {"note": 71, "velocity": 96, "duration": 192}, {"note": 69, "velocity": 95, "duration": 168}, {"note": 0, "velocity": 0, "duration": 72}, {"note": 66, "velocity": 112, "duration": 934}, {"note": 0, "velocity": 0, "duration": 986}, {"note": 64, "velocity": 95, "duration": 127}, {"note": 0, "velocity": 0, "duration": 113}, {"note": 64, "velocity": 99, "duration": 371}, {"note": 0, "velocity": 0, "duration": 109}, {"note": 62, "velocity": 99, "duration": 181}, {"note": 64, "velocity": 107, "duration": 421}, {"note": 0, "velocity": 0, "duration": 539}, {"note": 69, "velocity": 99, "duration": 119}, {"note": 0, "velocity": 0, "duration": 121}, {"note": 66, "velocity": 102, "duration": 376}, {"note": 0, "velocity": 0, "duration": 104}, {"note": 69, "velocity": 102, "duration": 190}, {"note": 71, "velocity": 107, "duration": 868}, {"note": 0, "velocity": 0, "duration": 92}, {"note": 76, "velocity": 117, "duration": 318}, {"note": 76, "velocity": 100, "duration": 49}, {"note": 0, "velocity": 0, "duration": 71}, {"note": 76, "velocity": 102, "duration": 123}, {"note": 0, "velocity": 0, "duration": 117}, {"note": 78, "velocity": 112, "duration": 141}, {"note": 0, "velocity": 0, "duration": 99}, {"note": 69, "velocity": 100, "duration": 198}, {"note": 69, "velocity": 127, "duration": 75}, {"note": 71, "velocity": 97, "duration": 62}, {"note": 66, "velocity": 107, "duration": 177}, {"note": 0, "velocity": 0, "duration": 63}, {"note": 69, "velocity": 100, "duration": 148}, {"note": 0, "velocity": 0, "duration": 92}, {"note": 71, "velocity": 107, "duration": 1121}, {"note": 0, "velocity": 0, "duration": 559}, {"note": 71, "velocity": 112, "duration": 169}, {"note": 0, "velocity": 0, "duration": 71}, {"note": 76, "velocity": 122, "duration": 159}, {"note": 0, "velocity": 0, "duration": 81}, {"note": 76, "velocity": 97, "duration": 62}, {"note": 76, "velocity": 93, "duration": 50}, {"note": 0, "velocity": 0, "duration": 70}, {"note": 76, "velocity": 102, "duration": 155}, {"note": 0, "velocity": 0, "duration": 85}, {"note": 78, "velocity": 117, "duration": 210}, {"note": 73, "velocity": 127, "duration": 251}, {"note": 71, "velocity": 99, "duration": 259}, {"note": 66, "velocity": 102, "duration": 246}, {"note": 0, "velocity": 0, "duration": 114}, {"note": 69, "velocity": 97, "duration": 182}, {"note": 71, "velocity": 112, "duration": 2504}]]