[[{"note": 72, "velocity": 117, "duration": 115}, {"note": 75, "velocity": 96, "duration": 63}, {"note": 75, "velocity": 97, "duration": 208}, {"note": 68, "velocity": 107, "duration": 229}, {"note": 0, "velocity": 0, "duration": 251}, {"note": 72, "velocity": 97, "duration": 91}, {"note": 75, "velocity": 99, "duration": 68}, {"note": 75, "velocity": 117, "duration": 211}, {"note": 68, "velocity": 112, "duration": 183}, {"note": 72, "velocity": 107, "duration": 184}, {"note": 70, "velocity": 112, "duration": 65}, {"note": 0, "velocity": 0, "duration": 175}, {"note": 70, "velocity": 112, "duration": 131}, {"note": 0, "velocity": 0, "duration": 109}, {"note": 70, "velocity": 99, "duration": 1054}, {"note": 0, "velocity": 0, "duration": 386}, {"note": 72, "velocity": 96, "duration": 91}, {"note": 75, "velocity": 99, "duration": 46}, {"note": 0, "velocity": 0, "duration": 74}, {"note": 75, "velocity": 102, "duration": 198}, {"note": 68, "velocity": 100, "duration": 165}, {"note": 0, "velocity": 0, "duration": 315}, {"note": 72, "velocity": 102, "duration": 102}, {"note": 75, "velocity": 93, "duration": 49}, {"note": 0, "velocity": 0, "duration": 71}, {"note": 75, "velocity": 117, "duration": 226}, {"note": 68, "velocity": 117, "duration": 163}, {"note": 0, "velocity": 0, "duration": 77}, {"note": 72, "velocity": 107, "duration": 202}, {"note": 70, "velocity": 112, "duration": 68}, {"note": 0, "velocity": 0, "duration": 172}, {"note": 70, "velocity": 97, "duration": 72}, {"note": 0, "velocity": 0, "duration": 168}, {"note": 70, "velocity": 107, "duration": 509}, {"note": 0, "velocity": 0, "duration": 451}, {"note": 68, "velocity": 122, "duration": 207}, {"note": 77, "velocity": 100, "duration": 247}, {"note": 79, "velocity": 92, "duration": 228}, {"note": 80, "velocity": 112, "duration": 304}, {"note": 75, "velocity": 107, "duration": 548}, {"note": 73, "velocity": 117, "duration": 219}, {"note": 72, "velocity": 95, "duration": 246}, {"note": 70, "velocity": 112, "duration": 463}, {"note": 70, "velocity": 117, "duration": 181}, {"note": 68, "velocity": 112, "duration": 167}, {"note": 0, "velocity": 0, "duration": 73}, {"note": 72, "velocity": 112, "duration": 799}, {"note": 0, "velocity": 0, "duration": 161}, {"note": 72, "velocity": 102, "duration": 167}, {"note": 0, "velocity": 0, "duration": 73}, {"note": 73, "velocity": 112, "duration": 159}, {"note": 0, "velocity": 0, "duration": 81}, {"note": 73, "velocity": 112, "duration": 156}, {"note": 0, "velocity": 0, "duration": 84}, {"note": 73, "velocity": 107, "duration": 179}, {"note": 0, "velocity": 0, "duration": 61}, {"note": 75, "velocity": 112, "duration": 163}, {"note": 0, "velocity": 0, "duration": 77}, {"note": 75, "velocity": 117, "duration": 310}, {"note": 68, "velocity": 117, "duration": 214}, {"note": 70, "velocity": 112, "duration": 453}, {"note": 68, "velocity": 107, "duration": 1977}, {"note": 0, "velocity": 0, "duration": 183}, {"note": 72, "velocity": 96, "duration": 92}, {"note": 75, "velocity": 96, "duration": 51}, {"note": 0, "velocity": 0, "duration": 69}, {"note": 75, "velocity": 99, "duration": 210}, {"note": 68, "velocity": 102, "duration": 336}]]