[[{"note": 79, "velocity": 98, "duration": 117}, {"note": 76, "velocity": 92, "duration": 51}, {"note": 0, "velocity": 0, "duration": 69}, {"note": 76, "velocity": 97, "duration": 78}, {"note": 74, "velocity": 92, "duration": 55}, {"note": 0, "velocity": 0, "duration": 65}, {"note": 74, "velocity": 93, "duration": 80}, {"note": 72, "velocity": 85, "duration": 56}, {"note": 0, "velocity": 0, "duration": 64}, {"note": 72, "velocity": 107, "duration": 87}, {"note": 67, "velocity": 92, "duration": 107}, {"note": 67, "velocity": 89, "duration": 51}, {"note": 0, "velocity": 0, "duration": 69}, {"note": 69, "velocity": 93, "duration": 50}, {"note": 0, "velocity": 0, "duration": 70}, {"note": 72, "velocity": 92, "duration": 57}, {"note": 0, "velocity": 0, "duration": 63}, {"note": 74, "velocity": 90, "duration": 48}, {"note": 0, "velocity": 0, "duration": 72}, {"note": 76, "velocity": 100, "duration": 329}, {"note": 0, "velocity": 0, "duration": 151}, {"note": 81, "velocity": 117, "duration": 49}, {"note": 0, "velocity": 0, "duration": 71}, {"note": 79, "velocity": 93, "duration": 44}, {"note": 0, "velocity": 0, "duration": 76}, {"note": 79, "velocity": 95, "duration": 51}, {"note": 0, "velocity": 0, "duration": 69}, {"note": 76, "velocity": 102, "duration": 45}, {"note": 0, "velocity": 0, "duration": 75}, {"note": 76, "velocity": 93, "duration": 48}, {"note": 0, "velocity": 0, "duration": 72}, {"note": 74, "velocity": 96, "duration": 47}, {"note": 0, "velocity": 0, "duration": 73}, {"note": 72, "velocity": 83, "duration": 51}, {"note": 0, "velocity": 0, "duration": 69}, {"note": 74, "velocity": 85, "duration": 44}, {"note": 0, "velocity": 0, "duration": 76}, {"note": 69, "velocity": 97, "duration": 222}, {"note": 0, "velocity": 0, "duration": 498}, {"note": 67, "velocity": 90, "duration": 70}, {"note": 69, "velocity": 88, "duration": 59}, {"note": 0, "velocity": 0, "duration": 61}, {"note": 72, "velocity": 96, "duration": 332}, {"note": 0, "velocity": 0, "duration": 388}, {"note": 74, "velocity": 112, "duration": 85}, {"note": 72, "velocity": 90, "duration": 131}, {"note": 76, "velocity": 107, "duration": 201}, {"note": 79, "velocity": 112, "duration": 289}, {"note": 0, "velocity": 0, "duration": 311}, {"note": 76, "velocity": 93, "duration": 45}, {"note": 0, "velocity": 0, "duration": 75}, {"note": 74, "velocity": 100, "duration": 218}, {"note": 72, "velocity": 86, "duration": 85}, {"note": 0, "velocity": 0, "duration": 155}, {"note": 72, "velocity": 100, "duration": 163}, {"note": 76, "velocity": 95, "duration": 328}, {"note": 74, "velocity": 99, "duration": 580}, {"note": 0, "velocity": 0, "duration": 380}, {"note": 79, "velocity": 127, "duration": 117}, {"note": 76, "velocity": 92, "duration": 51}, {"note": 0, "velocity": 0, "duration": 69}, {"note": 76, "velocity": 97, "duration": 78}, {"note": 74, "velocity": 92, "duration": 55}, {"note": 0, "velocity": 0, "duration": 65}, {"note": 74, "velocity": 93, "duration": 80}, {"note": 72, "velocity": 85, "duration": 56}, {"note": 0, "velocity": 0, "duration": 64}, {"note": 72, "velocity": 107, "duration": 87}, {"note": 67, "velocity": 92, "duration": 107}, {"note": 67, "velocity": 89, "duration": 51}, {"note": 0, "velocity": 0, "duration": 69}, {"note": 69, "velocity": 93, "duration": 50}, {"note": 0, "velocity": 0, "duration": 70}, {"note": 72, "velocity": 92, "duration": 57}, {"note": 0, "velocity": 0, "duration": 63}, {"note": 74, "velocity": 90, "duration": 48}, {"note": 0, "velocity": 0, "duration": 72}, {"note": 76, "velocity": 100, "duration": 329}, {"note": 0, "velocity": 0, "duration": 151}, {"note": 81, "velocity": 117, "duration": 49}, {"note": 0, "velocity": 0, "duration": 71}, {"note": 79, "velocity": 93, "duration": 44}, {"note": 0, "velocity": 0, "duration": 76}, {"note": 79, "velocity": 95, "duration": 51}, {"note": 0, "velocity": 0, "duration": 69}, {"note": 76, "velocity": 102, "duration": 45}, {"note": 0, "velocity": 0, "duration": 75}, {"note": 76, "velocity": 93, "duration": 48}, {"note": 0, "velocity": 0, "duration": 72}, {"note": 74, "velocity": 96, "duration": 47}, {"note": 0, "velocity": 0, "duration": 73}, {"note": 72, "velocity": 83, "duration": 51}, {"note": 0, "velocity": 0, "duration": 69}, {"note": 74, "velocity": 85, "duration": 44}, {"note": 0, "velocity": 0, "duration": 76}, {"note": 69, "velocity": 97, "duration": 222}, {"note": 0, "velocity": 0, "duration": 498}, {"note": 67, "velocity": 90, "duration": 70}, {"note": 69, "velocity": 88, "duration": 59}, {"note": 0, "velocity": 0, "duration": 61}, {"note": 72, "velocity": 96, "duration": 480}, {"note": 0, "velocity": 0, "duration": 120}, {"note": 74, "velocity": 112, "duration": 85}, {"note": 0, "velocity": 0, "duration": 155}, {"note": 72, "velocity": 90, "duration": 131}, {"note": 76, "velocity": 107, "duration": 201}, {"note": 79, "velocity": 112, "duration": 289}, {"note": 0, "velocity": 0, "duration": 311}, {"note": 76, "velocity": 93, "duration": 45}, {"note": 0, "velocity": 0, "duration": 75}, {"note": 74, "velocity": 100, "duration": 218}, {"note": 72, "velocity": 86, "duration": 85}, {"note": 0, "velocity": 0, "duration": 155}, {"note": 69, "velocity": 100, "duration": 219}, {"note": 72, "velocity": 99, "duration": 156}, {"note": 0, "velocity": 0, "duration": 84}, {"note": 72, "velocity": 122, "duration": 1436}, {"note": 0, "velocity": 0, "duration": 484}, {"note": 76, "velocity": 97, "duration": 76}, {"note": 79, "velocity": 102, "duration": 145}, {"note": 0, "velocity": 0, "duration": 95}, {"note": 76, "velocity": 85, "duration": 72}, {"note": 79, "velocity": 99, "duration": 186}, {"note": 76, "velocity": 96, "duration": 234}, {"note": 81, "velocity": 112, "duration": 751}, {"note": 0, "velocity": 0, "duration": 209}, {"note": 76, "velocity": 97, "duration": 86}, {"note": 79, "velocity": 100, "duration": 104}, {"note": 0, "velocity": 0, "duration": 136}, {"note": 76, "velocity": 96, "duration": 78}, {"note": 79, "velocity": 96, "duration": 201}, {"note": 76, "velocity": 112, "duration": 165}, {"note": 0, "velocity": 0, "duration": 75}, {"note": 69, "velocity": 100, "duration": 739}, {"note": 0, "velocity": 0, "duration": 221}, {"note": 74, "velocity": 122, "duration": 53}, {"note": 0, "velocity": 0, "duration": 67}, {"note": 76, "velocity": 102, "duration": 126}, {"note": 0, "velocity": 0, "duration": 114}, {"note": 72, "velocity": 92, "duration": 80}, {"note": 74, "velocity": 97, "duration": 182}, {"note": 76, "velocity": 96, "duration": 176}, {"note": 0, "velocity": 0, "duration": 64}, {"note": 76, "velocity": 96, "duration": 176}, {"note": 79, "velocity": 117, "duration": 185}, {"note": 76, "velocity": 90, "duration": 88}, {"note": 79, "velocity": 99, "duration": 448}, {"note": 84, "velocity": 127, "duration": 288}, {"note": 83, "velocity": 102, "duration": 298}, {"note": 81, "velocity": 117, "duration": 248}, {"note": 79, "velocity": 96, "duration": 47}, {"note": 0, "velocity": 0, "duration": 73}, {"note": 79, "velocity": 96, "duration": 148}, {"note": 81, "velocity": 117, "duration": 721}, {"note": 0, "velocity": 0, "duration": 241}, {"note": 74, "velocity": 112, "duration": 62}, {"note": 76, "velocity": 96, "duration": 99}, {"note": 0, "velocity": 0, "duration": 141}, {"note": 72, "velocity": 102, "duration": 92}, {"note": 74, "velocity": 96, "duration": 185}, {"note": 76, "velocity": 99, "duration": 187}, {"note": 76, "velocity": 102, "duration": 150}, {"note": 79, "velocity": 102, "duration": 309}, {"note": 76, "velocity": 97, "duration": 68}, {"note": 79, "velocity": 107, "duration": 308}, {"note": 0, "velocity": 0, "duration": 172}, {"note": 84, "velocity": 127, "duration": 244}, {"note": 83, "velocity": 112, "duration": 230}, {"note": 81, "velocity": 112, "duration": 208}, {"note": 79, "velocity": 95, "duration": 88}, {"note": 79, "velocity": 95, "duration": 88}, {"note": 81, "velocity": 112, "duration": 930}, {"note": 0, "velocity": 0, "duration": 1052}, {"note": 78, "velocity": 127, "duration": 187}, {"note": 0, "velocity": 0, "duration": 293}, {"note": 76, "velocity": 112, "duration": 153}, {"note": 0, "velocity": 0, "duration": 87}, {"note": 74, "velocity": 95, "duration": 288}, {"note": 76, "velocity": 117, "duration": 720}, {"note": 76, "velocity": 95, "duration": 69}, {"note": 78, "velocity": 107, "duration": 56}, {"note": 0, "velocity": 0, "duration": 64}, {"note": 79, "velocity": 95, "duration": 141}, {"note": 0, "velocity": 0, "duration": 99}, {"note": 78, "velocity": 112, "duration": 136}, {"note": 0, "velocity": 0, "duration": 104}, {"note": 78, "velocity": 117, "duration": 136}, {"note": 0, "velocity": 0, "duration": 104}, {"note": 76, "velocity": 102, "duration": 162}, {"note": 0, "velocity": 0, "duration": 78}, {"note": 78, "velocity": 122, "duration": 701}, {"note": 74, "velocity": 107, "duration": 39}, {"note": 0, "velocity": 0, "duration": 81}, {"note": 74, "velocity": 97, "duration": 64}, {"note": 79, "velocity": 117, "duration": 279}, {"note": 0, "velocity": 0, "duration": 81}, {"note": 81, "velocity": 127, "duration": 326}, {"note": 83, "velocity": 122, "duration": 213}, {"note": 81, "velocity": 112, "duration": 408}, {"note": 74, "velocity": 107, "duration": 279}, {"note": 0, "velocity": 0, "duration": 81}, {"note": 81, "velocity": 112, "duration": 187}, {"note": 79, "velocity": 112, "duration": 193}, {"note": 78, "velocity": 127, "duration": 128}, {"note": 0, "velocity": 0, "duration": 112}, {"note": 76, "velocity": 127, "duration": 125}, {"note": 0, "velocity": 0, "duration": 115}, {"note": 74, "velocity": 99, "duration": 38}, {"note": 0, "velocity": 0, "duration": 82}, {"note": 76, "velocity": 122, "duration": 916}, {"note": 0, "velocity": 0, "duration": 164}, {"note": 78, "velocity": 127, "duration": 186}, {"note": 0, "velocity": 0, "duration": 294}, {"note": 76, "velocity": 127, "duration": 219}, {"note": 0, "velocity": 0, "duration": 141}, {"note": 74, "velocity": 100, "duration": 68}, {"note": 76, "velocity": 117, "duration": 451}, {"note": 0, "velocity": 0, "duration": 269}, {"note": 76, "velocity": 99, "duration": 58}, {"note": 0, "velocity": 0, "duration": 62}, {"note": 78, "velocity": 112, "duration": 58}, {"note": 0, "velocity": 0, "duration": 62}, {"note": 79, "velocity": 102, "duration": 196}, {"note": 78, "velocity": 117, "duration": 184}, {"note": 83, "velocity": 112, "duration": 182}, {"note": 85, "velocity": 127, "duration": 208}, {"note": 76, "velocity": 122, "duration": 284}, {"note": 74, "velocity": 99, "duration": 54}, {"note": 0, "velocity": 0, "duration": 66}, {"note": 74, "velocity": 102, "duration": 243}, {"note": 0, "velocity": 0, "duration": 117}, {"note": 74, "velocity": 95, "duration": 42}, {"note": 0, "velocity": 0, "duration": 78}, {"note": 74, "velocity": 97, "duration": 54}, {"note": 0, "velocity": 0, "duration": 66}, {"note": 79, "velocity": 122, "duration": 273}, {"note": 0, "velocity": 0, "duration": 87}, {"note": 81, "velocity": 117, "duration": 274}, {"note": 0, "velocity": 0, "duration": 86}, {"note": 83, "velocity": 107, "duration": 164}, {"note": 0, "velocity": 0, "duration": 76}, {"note": 81, "velocity": 122, "duration": 324}, {"note": 74, "velocity": 107, "duration": 223}, {"note": 0, "velocity": 0, "duration": 137}, {"note": 81, "velocity": 122, "duration": 156}, {"note": 0, "velocity": 0, "duration": 84}, {"note": 79, "velocity": 122, "duration": 230}, {"note": 78, "velocity": 112, "duration": 204}, {"note": 76, "velocity": 127, "duration": 144}, {"note": 0, "velocity": 0, "duration": 96}, {"note": 74, "velocity": 92, "duration": 43}, {"note": 0, "velocity": 0, "duration": 77}, {"note": 74, "velocity": 117, "duration": 1437}, {"note": 0, "velocity": 0, "duration": 15963}, {"note": 79, "velocity": 99, "duration": 117}, {"note": 76, "velocity": 92, "duration": 51}, {"note": 0, "velocity": 0, "duration": 69}, {"note": 76, "velocity": 97, "duration": 78}, {"note": 74, "velocity": 92, "duration": 55}, {"note": 0, "velocity": 0, "duration": 65}, {"note": 74, "velocity": 93, "duration": 80}, {"note": 72, "velocity": 85, "duration": 56}, {"note": 0, "velocity": 0, "duration": 64}, {"note": 72, "velocity": 107, "duration": 87}, {"note": 67, "velocity": 92, "duration": 107}, {"note": 67, "velocity": 89, "duration": 51}, {"note": 0, "velocity": 0, "duration": 69}, {"note": 69, "velocity": 93, "duration": 50}, {"note": 0, "velocity": 0, "duration": 70}, {"note": 72, "velocity": 92, "duration": 57}, {"note": 0, "velocity": 0, "duration": 63}, {"note": 74, "velocity": 90, "duration": 48}, {"note": 0, "velocity": 0, "duration": 72}, {"note": 76, "velocity": 100, "duration": 329}, {"note": 0, "velocity": 0, "duration": 151}, {"note": 81, "velocity": 117, "duration": 49}, {"note": 0, "velocity": 0, "duration": 71}, {"note": 79, "velocity": 93, "duration": 44}, {"note": 0, "velocity": 0, "duration": 76}, {"note": 79, "velocity": 95, "duration": 51}, {"note": 0, "velocity": 0, "duration": 69}, {"note": 76, "velocity": 102, "duration": 45}, {"note": 0, "velocity": 0, "duration": 75}, {"note": 76, "velocity": 93, "duration": 48}, {"note": 0, "velocity": 0, "duration": 72}, {"note": 74, "velocity": 96, "duration": 47}, {"note": 0, "velocity": 0, "duration": 73}, {"note": 72, "velocity": 83, "duration": 51}, {"note": 0, "velocity": 0, "duration": 69}, {"note": 74, "velocity": 85, "duration": 44}, {"note": 0, "velocity": 0, "duration": 76}, {"note": 69, "velocity": 97, "duration": 222}, {"note": 0, "velocity": 0, "duration": 498}, {"note": 67, "velocity": 90, "duration": 70}, {"note": 69, "velocity": 88, "duration": 59}, {"note": 0, "velocity": 0, "duration": 61}, {"note": 72, "velocity": 96, "duration": 332}, {"note": 0, "velocity": 0, "duration": 388}, {"note": 74, "velocity": 112, "duration": 85}, {"note": 72, "velocity": 90, "duration": 131}, {"note": 76, "velocity": 107, "duration": 201}, {"note": 79, "velocity": 112, "duration": 289}, {"note": 0, "velocity": 0, "duration": 311}, {"note": 76, "velocity": 93, "duration": 45}, {"note": 0, "velocity": 0, "duration": 75}, {"note": 74, "velocity": 100, "duration": 218}, {"note": 72, "velocity": 86, "duration": 85}, {"note": 0, "velocity": 0, "duration": 155}, {"note": 72, "velocity": 100, "duration": 163}, {"note": 76, "velocity": 95, "duration": 328}, {"note": 74, "velocity": 99, "duration": 580}, {"note": 0, "velocity": 0, "duration": 380}, {"note": 79, "velocity": 127, "duration": 117}, {"note": 76, "velocity": 92, "duration": 51}, {"note": 0, "velocity": 0, "duration": 69}, {"note": 76, "velocity": 97, "duration": 78}, {"note": 74, "velocity": 92, "duration": 55}, {"note": 0, "velocity": 0, "duration": 65}, {"note": 74, "velocity": 93, "duration": 80}, {"note": 72, "velocity": 85, "duration": 56}, {"note": 0, "velocity": 0, "duration": 64}, {"note": 72, "velocity": 107, "duration": 87}, {"note": 67, "velocity": 92, "duration": 107}, {"note": 67, "velocity": 89, "duration": 51}, {"note": 0, "velocity": 0, "duration": 69}, {"note": 69, "velocity": 93, "duration": 50}, {"note": 0, "velocity": 0, "duration": 70}, {"note": 72, "velocity": 92, "duration": 57}, {"note": 0, "velocity": 0, "duration": 63}, {"note": 74, "velocity": 90, "duration": 48}, {"note": 0, "velocity": 0, "duration": 72}, {"note": 76, "velocity": 100, "duration": 329}, {"note": 0, "velocity": 0, "duration": 151}, {"note": 81, "velocity": 117, "duration": 49}, {"note": 0, "velocity": 0, "duration": 71}, {"note": 79, "velocity": 93, "duration": 44}, {"note": 0, "velocity": 0, "duration": 76}, {"note": 79, "velocity": 95, "duration": 51}, {"note": 0, "velocity": 0, "duration": 69}, {"note": 76, "velocity": 102, "duration": 45}, {"note": 0, "velocity": 0, "duration": 75}, {"note": 76, "velocity": 93, "duration": 48}, {"note": 0, "velocity": 0, "duration": 72}, {"note": 74, "velocity": 96, "duration": 47}, {"note": 0, "velocity": 0, "duration": 73}, {"note": 72, "velocity": 83, "duration": 51}, {"note": 0, "velocity": 0, "duration": 69}, {"note": 74, "velocity": 85, "duration": 120}, {"note": 0, "velocity": 0, "duration": 120}, {"note": 69, "velocity": 97, "duration": 120}, {"note": 0, "velocity": 0, "duration": 480}, {"note": 67, "velocity": 90, "duration": 70}, {"note": 69, "velocity": 88, "duration": 59}, {"note": 0, "velocity": 0, "duration": 61}, {"note": 72, "velocity": 96, "duration": 480}, {"note": 0, "velocity": 0, "duration": 120}, {"note": 74, "velocity": 112, "duration": 85}, {"note": 0, "velocity": 0, "duration": 155}, {"note": 72, "velocity": 90, "duration": 131}, {"note": 76, "velocity": 107, "duration": 201}, {"note": 79, "velocity": 112, "duration": 289}, {"note": 0, "velocity": 0, "duration": 311}, {"note": 76, "velocity": 93, "duration": 45}, {"note": 0, "velocity": 0, "duration": 75}, {"note": 74, "velocity": 100, "duration": 218}, {"note": 72, "velocity": 86, "duration": 85}, {"note": 0, "velocity": 0, "duration": 155}, {"note": 69, "velocity": 100, "duration": 219}, {"note": 72, "velocity": 99, "duration": 156}, {"note": 0, "velocity": 0, "duration": 86}, {"note": 72, "velocity": 99, "duration": 166}, {"note": 0, "velocity": 0, "duration": 792}, {"note": 76, "velocity": 97, "duration": 76}, {"note": 79, "velocity": 102, "duration": 145}, {"note": 0, "velocity": 0, "duration": 95}, {"note": 76, "velocity": 85, "duration": 72}, {"note": 79, "velocity": 99, "duration": 186}, {"note": 76, "velocity": 96, "duration": 234}, {"note": 81, "velocity": 112, "duration": 751}, {"note": 0, "velocity": 0, "duration": 209}, {"note": 76, "velocity": 97, "duration": 86}, {"note": 79, "velocity": 100, "duration": 104}, {"note": 0, "velocity": 0, "duration": 136}, {"note": 76, "velocity": 96, "duration": 78}, {"note": 79, "velocity": 96, "duration": 201}, {"note": 76, "velocity": 112, "duration": 165}, {"note": 0, "velocity": 0, "duration": 75}, {"note": 69, "velocity": 100, "duration": 739}, {"note": 0, "velocity": 0, "duration": 221}, {"note": 74, "velocity": 122, "duration": 53}, {"note": 0, "velocity": 0, "duration": 67}, {"note": 76, "velocity": 102, "duration": 126}, {"note": 0, "velocity": 0, "duration": 114}, {"note": 72, "velocity": 92, "duration": 80}, {"note": 74, "velocity": 97, "duration": 182}, {"note": 76, "velocity": 96, "duration": 176}, {"note": 0, "velocity": 0, "duration": 62}, {"note": 76, "velocity": 117, "duration": 185}, {"note": 79, "velocity": 117, "duration": 185}, {"note": 76, "velocity": 90, "duration": 88}, {"note": 79, "velocity": 99, "duration": 296}, {"note": 0, "velocity": 0, "duration": 184}, {"note": 84, "velocity": 127, "duration": 211}, {"note": 83, "velocity": 102, "duration": 150}, {"note": 0, "velocity": 0, "duration": 90}, {"note": 81, "velocity": 117, "duration": 125}, {"note": 0, "velocity": 0, "duration": 115}, {"note": 79, "velocity": 96, "duration": 88}, {"note": 79, "velocity": 96, "duration": 208}, {"note": 81, "velocity": 117, "duration": 691}, {"note": 0, "velocity": 0, "duration": 241}, {"note": 74, "velocity": 112, "duration": 62}, {"note": 76, "velocity": 96, "duration": 99}, {"note": 0, "velocity": 0, "duration": 141}, {"note": 72, "velocity": 77, "duration": 92}, {"note": 74, "velocity": 96, "duration": 185}, {"note": 76, "velocity": 99, "duration": 187}, {"note": 76, "velocity": 102, "duration": 210}, {"note": 79, "velocity": 102, "duration": 250}, {"note": 76, "velocity": 97, "duration": 68}, {"note": 79, "velocity": 107, "duration": 308}, {"note": 0, "velocity": 0, "duration": 172}, {"note": 84, "velocity": 127, "duration": 146}, {"note": 0, "velocity": 0, "duration": 94}, {"note": 83, "velocity": 112, "duration": 132}, {"note": 0, "velocity": 0, "duration": 108}, {"note": 81, "velocity": 112, "duration": 110}, {"note": 0, "velocity": 0, "duration": 130}, {"note": 79, "velocity": 95, "duration": 47}, {"note": 0, "velocity": 0, "duration": 73}, {"note": 79, "velocity": 95, "duration": 148}, {"note": 81, "velocity": 112, "duration": 381}, {"note": 0, "velocity": 0, "duration": 1531}, {"note": 78, "velocity": 127, "duration": 187}, {"note": 0, "velocity": 0, "duration": 293}, {"note": 76, "velocity": 112, "duration": 153}, {"note": 0, "velocity": 0, "duration": 87}, {"note": 74, "velocity": 95, "duration": 248}, {"note": 76, "velocity": 117, "duration": 720}, {"note": 76, "velocity": 95, "duration": 69}, {"note": 78, "velocity": 107, "duration": 56}, {"note": 0, "velocity": 0, "duration": 64}, {"note": 79, "velocity": 95, "duration": 141}, {"note": 0, "velocity": 0, "duration": 99}, {"note": 78, "velocity": 112, "duration": 136}, {"note": 0, "velocity": 0, "duration": 104}, {"note": 78, "velocity": 117, "duration": 136}, {"note": 0, "velocity": 0, "duration": 104}, {"note": 76, "velocity": 102, "duration": 162}, {"note": 0, "velocity": 0, "duration": 78}, {"note": 78, "velocity": 122, "duration": 701}, {"note": 74, "velocity": 107, "duration": 39}, {"note": 0, "velocity": 0, "duration": 81}, {"note": 74, "velocity": 97, "duration": 64}, {"note": 79, "velocity": 117, "duration": 279}, {"note": 0, "velocity": 0, "duration": 81}, {"note": 81, "velocity": 127, "duration": 326}, {"note": 83, "velocity": 122, "duration": 213}, {"note": 81, "velocity": 112, "duration": 328}, {"note": 74, "velocity": 107, "duration": 279}, {"note": 0, "velocity": 0, "duration": 81}, {"note": 81, "velocity": 112, "duration": 187}, {"note": 79, "velocity": 112, "duration": 193}, {"note": 78, "velocity": 127, "duration": 128}, {"note": 0, "velocity": 0, "duration": 112}, {"note": 76, "velocity": 127, "duration": 125}, {"note": 0, "velocity": 0, "duration": 115}, {"note": 74, "velocity": 99, "duration": 38}, {"note": 0, "velocity": 0, "duration": 82}, {"note": 76, "velocity": 122, "duration": 916}, {"note": 0, "velocity": 0, "duration": 164}, {"note": 78, "velocity": 127, "duration": 186}, {"note": 0, "velocity": 0, "duration": 294}, {"note": 76, "velocity": 127, "duration": 219}, {"note": 0, "velocity": 0, "duration": 141}, {"note": 74, "velocity": 100, "duration": 68}, {"note": 76, "velocity": 117, "duration": 451}, {"note": 0, "velocity": 0, "duration": 269}, {"note": 76, "velocity": 99, "duration": 58}, {"note": 0, "velocity": 0, "duration": 62}, {"note": 78, "velocity": 112, "duration": 58}, {"note": 0, "velocity": 0, "duration": 62}, {"note": 79, "velocity": 102, "duration": 196}, {"note": 78, "velocity": 117, "duration": 184}, {"note": 83, "velocity": 112, "duration": 182}, {"note": 85, "velocity": 127, "duration": 208}, {"note": 76, "velocity": 122, "duration": 284}, {"note": 74, "velocity": 99, "duration": 54}, {"note": 0, "velocity": 0, "duration": 66}, {"note": 74, "velocity": 102, "duration": 243}, {"note": 0, "velocity": 0, "duration": 117}, {"note": 74, "velocity": 95, "duration": 42}, {"note": 0, "velocity": 0, "duration": 78}, {"note": 74, "velocity": 97, "duration": 54}, {"note": 0, "velocity": 0, "duration": 66}, {"note": 79, "velocity": 122, "duration": 273}, {"note": 0, "velocity": 0, "duration": 87}, {"note": 81, "velocity": 117, "duration": 274}, {"note": 0, "velocity": 0, "duration": 86}, {"note": 83, "velocity": 107, "duration": 164}, {"note": 0, "velocity": 0, "duration": 76}, {"note": 81, "velocity": 122, "duration": 324}, {"note": 74, "velocity": 107, "duration": 223}, {"note": 0, "velocity": 0, "duration": 137}, {"note": 81, "velocity": 122, "duration": 156}, {"note": 0, "velocity": 0, "duration": 84}, {"note": 79, "velocity": 122, "duration": 230}, {"note": 78, "velocity": 112, "duration": 204}, {"note": 76, "velocity": 127, "duration": 144}, {"note": 0, "velocity": 0, "duration": 96}, {"note": 74, "velocity": 92, "duration": 43}, {"note": 0, "velocity": 0, "duration": 77}, {"note": 74, "velocity": 117, "duration": 1080}, {"note": 79, "velocity": 127, "duration": 568}, {"note": 77, "velocity": 112, "duration": 248}, {"note": 75, "velocity": 95, "duration": 298}, {"note": 77, "velocity": 117, "duration": 720}, {"note": 77, "velocity": 95, "duration": 69}, {"note": 79, "velocity": 107, "duration": 56}, {"note": 0, "velocity": 0, "duration": 64}, {"note": 80, "velocity": 95, "duration": 141}, {"note": 0, "velocity": 0, "duration": 99}, {"note": 79, "velocity": 112, "duration": 136}, {"note": 0, "velocity": 0, "duration": 104}, {"note": 79, "velocity": 117, "duration": 136}, {"note": 0, "velocity": 0, "duration": 104}, {"note": 77, "velocity": 102, "duration": 162}, {"note": 0, "velocity": 0, "duration": 78}, {"note": 79, "velocity": 122, "duration": 701}, {"note": 75, "velocity": 107, "duration": 39}, {"note": 0, "velocity": 0, "duration": 81}, {"note": 75, "velocity": 97, "duration": 64}, {"note": 80, "velocity": 117, "duration": 279}, {"note": 0, "velocity": 0, "duration": 81}, {"note": 82, "velocity": 127, "duration": 326}, {"note": 84, "velocity": 122, "duration": 213}, {"note": 82, "velocity": 112, "duration": 388}, {"note": 75, "velocity": 107, "duration": 279}, {"note": 0, "velocity": 0, "duration": 81}, {"note": 82, "velocity": 112, "duration": 187}, {"note": 80, "velocity": 112, "duration": 193}, {"note": 79, "velocity": 127, "duration": 128}, {"note": 0, "velocity": 0, "duration": 112}, {"note": 77, "velocity": 127, "duration": 125}, {"note": 0, "velocity": 0, "duration": 115}, {"note": 75, "velocity": 99, "duration": 38}, {"note": 0, "velocity": 0, "duration": 82}, {"note": 77, "velocity": 122, "duration": 916}, {"note": 0, "velocity": 0, "duration": 164}, {"note": 79, "velocity": 127, "duration": 186}, {"note": 0, "velocity": 0, "duration": 294}, {"note": 77, "velocity": 127, "duration": 219}, {"note": 0, "velocity": 0, "duration": 141}, {"note": 75, "velocity": 100, "duration": 68}, {"note": 77, "velocity": 117, "duration": 451}, {"note": 0, "velocity": 0, "duration": 269}, {"note": 77, "velocity": 99, "duration": 58}, {"note": 0, "velocity": 0, "duration": 62}, {"note": 79, "velocity": 112, "duration": 58}, {"note": 0, "velocity": 0, "duration": 62}, {"note": 80, "velocity": 102, "duration": 196}, {"note": 79, "velocity": 117, "duration": 184}, {"note": 84, "velocity": 112, "duration": 182}, {"note": 86, "velocity": 127, "duration": 208}, {"note": 77, "velocity": 122, "duration": 284}, {"note": 75, "velocity": 99, "duration": 54}, {"note": 0, "velocity": 0, "duration": 66}, {"note": 75, "velocity": 102, "duration": 243}, {"note": 0, "velocity": 0, "duration": 117}, {"note": 75, "velocity": 95, "duration": 42}, {"note": 0, "velocity": 0, "duration": 78}, {"note": 75, "velocity": 97, "duration": 54}, {"note": 0, "velocity": 0, "duration": 66}, {"note": 80, "velocity": 122, "duration": 273}, {"note": 0, "velocity": 0, "duration": 87}, {"note": 82, "velocity": 117, "duration": 274}, {"note": 0, "velocity": 0, "duration": 86}, {"note": 84, "velocity": 107, "duration": 164}, {"note": 0, "velocity": 0, "duration": 76}, {"note": 82, "velocity": 122, "duration": 324}, {"note": 75, "velocity": 107, "duration": 223}, {"note": 0, "velocity": 0, "duration": 137}, {"note": 82, "velocity": 122, "duration": 156}, {"note": 0, "velocity": 0, "duration": 84}, {"note": 80, "velocity": 122, "duration": 230}, {"note": 79, "velocity": 112, "duration": 204}, {"note": 77, "velocity": 127, "duration": 144}, {"note": 0, "velocity": 0, "duration": 96}, {"note": 75, "velocity": 92, "duration": 43}, {"note": 0, "velocity": 0, "duration": 77}, {"note": 75, "velocity": 117, "duration": 1437}, {"note": 0, "velocity": 0, "duration": 605}, {"note": 80, "velocity": 118, "duration": 358}, {"note": 82, "velocity": 107, "duration": 401}, {"note": 84, "velocity": 107, "duration": 266}, {"note": 82, "velocity": 109, "duration": 442}, {"note": 75, "velocity": 102, "duration": 635}, {"note": 0, "velocity": 0, "duration": 1043}, {"note": 80, "velocity": 106, "duration": 292}, {"note": 79, "velocity": 116, "duration": 275}, {"note": 77, "velocity": 92, "duration": 397}, {"note": 75, "velocity": 100, "duration": 73}, {"note": 0, "velocity": 0, "duration": 102}, {"note": 75, "velocity": 112, "duration": 1606}]]