[[{"note": 78, "velocity": 127, "duration": 166}, {"note": 0, "velocity": 0, "duration": 74}, {"note": 78, "velocity": 117, "duration": 134}, {"note": 0, "velocity": 0, "duration": 106}, {"note": 78, "velocity": 112, "duration": 138}, {"note": 0, "velocity": 0, "duration": 102}, {"note": 78, "velocity": 112, "duration": 172}, {"note": 0, "velocity": 0, "duration": 68}, {"note": 74, "velocity": 100, "duration": 207}, {"note": 71, "velocity": 92, "duration": 156}, {"note": 74, "velocity": 102, "duration": 284}, {"note": 0, "velocity": 0, "duration": 76}, {"note": 69, "velocity": 95, "duration": 109}, {"note": 71, "velocity": 86, "duration": 114}, {"note": 73, "velocity": 93, "duration": 262}, {"note": 76, "velocity": 95, "duration": 169}, {"note": 0, "velocity": 0, "duration": 71}, {"note": 76, "velocity": 95, "duration": 160}, {"note": 0, "velocity": 0, "duration": 80}, {"note": 69, "velocity": 89, "duration": 243}, {"note": 71, "velocity": 82, "duration": 772}, {"note": 0, "velocity": 0, "duration": 188}, {"note": 71, "velocity": 95, "duration": 208}, {"note": 78, "velocity": 107, "duration": 176}, {"note": 0, "velocity": 0, "duration": 64}, {"note": 78, "velocity": 117, "duration": 185}, {"note": 78, "velocity": 112, "duration": 182}, {"note": 74, "velocity": 100, "duration": 195}, {"note": 71, "velocity": 86, "duration": 103}, {"note": 76, "velocity": 93, "duration": 368}, {"note": 76, "velocity": 95, "duration": 8}, {"note": 0, "velocity": 0, "duration": 112}, {"note": 71, "velocity": 79, "duration": 121}, {"note": 74, "velocity": 95, "duration": 180}, {"note": 74, "velocity": 100, "duration": 217}, {"note": 76, "velocity": 99, "duration": 190}, {"note": 78, "velocity": 102, "duration": 192}, {"note": 78, "velocity": 122, "duration": 803}, {"note": 0, "velocity": 0, "duration": 157}, {"note": 78, "velocity": 122, "duration": 160}, {"note": 0, "velocity": 0, "duration": 80}, {"note": 76, "velocity": 99, "duration": 166}, {"note": 0, "velocity": 0, "duration": 74}, {"note": 78, "velocity": 127, "duration": 197}, {"note": 83, "velocity": 100, "duration": 173}, {"note": 0, "velocity": 0, "duration": 67}, {"note": 83, "velocity": 102, "duration": 176}, {"note": 0, "velocity": 0, "duration": 64}, {"note": 78, "velocity": 112, "duration": 200}, {"note": 76, "velocity": 107, "duration": 163}, {"note": 0, "velocity": 0, "duration": 77}, {"note": 74, "velocity": 95, "duration": 91}, {"note": 76, "velocity": 93, "duration": 70}, {"note": 78, "velocity": 112, "duration": 207}, {"note": 81, "velocity": 117, "duration": 240}, {"note": 81, "velocity": 107, "duration": 185}, {"note": 76, "velocity": 95, "duration": 252}, {"note": 78, "velocity": 112, "duration": 214}, {"note": 74, "velocity": 96, "duration": 478}, {"note": 0, "velocity": 0, "duration": 242}, {"note": 71, "velocity": 107, "duration": 227}, {"note": 78, "velocity": 102, "duration": 161}, {"note": 0, "velocity": 0, "duration": 79}, {"note": 78, "velocity": 122, "duration": 234}, {"note": 78, "velocity": 112, "duration": 186}, {"note": 74, "velocity": 112, "duration": 190}, {"note": 78, "velocity": 107, "duration": 207}, {"note": 73, "velocity": 102, "duration": 154}, {"note": 0, "velocity": 0, "duration": 86}, {"note": 69, "velocity": 96, "duration": 116}, {"note": 71, "velocity": 96, "duration": 89}, {"note": 73, "velocity": 99, "duration": 189}, {"note": 76, "velocity": 102, "duration": 174}, {"note": 0, "velocity": 0, "duration": 66}, {"note": 69, "velocity": 95, "duration": 204}, {"note": 71, "velocity": 99, "duration": 176}, {"note": 0, "velocity": 0, "duration": 64}, {"note": 71, "velocity": 97, "duration": 916}, {"note": 83, "velocity": 122, "duration": 302}, {"note": 0, "velocity": 0, "duration": 178}, {"note": 83, "velocity": 102, "duration": 215}, {"note": 78, "velocity": 112, "duration": 217}, {"note": 83, "velocity": 112, "duration": 163}, {"note": 86, "velocity": 117, "duration": 113}, {"note": 83, "velocity": 97, "duration": 450}, {"note": 0, "velocity": 0, "duration": 270}, {"note": 81, "velocity": 107, "duration": 242}, {"note": 83, "velocity": 112, "duration": 254}, {"note": 85, "velocity": 127, "duration": 172}, {"note": 0, "velocity": 0, "duration": 68}, {"note": 85, "velocity": 122, "duration": 238}, {"note": 83, "velocity": 107, "duration": 741}, {"note": 0, "velocity": 0, "duration": 219}, {"note": 78, "velocity": 122, "duration": 202}, {"note": 83, "velocity": 107, "duration": 170}, {"note": 0, "velocity": 0, "duration": 70}, {"note": 83, "velocity": 117, "duration": 160}, {"note": 0, "velocity": 0, "duration": 80}, {"note": 83, "velocity": 122, "duration": 185}, {"note": 83, "velocity": 112, "duration": 135}, {"note": 0, "velocity": 0, "duration": 105}, {"note": 78, "velocity": 112, "duration": 168}, {"note": 0, "velocity": 0, "duration": 72}, {"note": 76, "velocity": 102, "duration": 204}, {"note": 78, "velocity": 127, "duration": 147}, {"note": 0, "velocity": 0, "duration": 93}, {"note": 76, "velocity": 112, "duration": 203}, {"note": 71, "velocity": 100, "duration": 200}, {"note": 81, "velocity": 112, "duration": 206}, {"note": 83, "velocity": 112, "duration": 167}, {"note": 0, "velocity": 0, "duration": 73}, {"note": 83, "velocity": 127, "duration": 120}, {"note": 81, "velocity": 112, "duration": 113}, {"note": 78, "velocity": 107, "duration": 591}, {"note": 0, "velocity": 0, "duration": 129}, {"note": 83, "velocity": 107, "duration": 267}, {"note": 0, "velocity": 0, "duration": 213}, {"note": 83, "velocity": 107, "duration": 206}, {"note": 78, "velocity": 107, "duration": 87}, {"note": 0, "velocity": 0, "duration": 153}, {"note": 83, "velocity": 122, "duration": 238}, {"note": 86, "velocity": 112, "duration": 227}, {"note": 83, "velocity": 107, "duration": 464}, {"note": 81, "velocity": 102, "duration": 221}, {"note": 83, "velocity": 112, "duration": 245}, {"note": 85, "velocity": 112, "duration": 177}, {"note": 0, "velocity": 0, "duration": 63}, {"note": 85, "velocity": 127, "duration": 248}, {"note": 83, "velocity": 117, "duration": 819}, {"note": 0, "velocity": 0, "duration": 141}, {"note": 76, "velocity": 102, "duration": 215}, {"note": 81, "velocity": 112, "duration": 181}, {"note": 81, "velocity": 112, "duration": 184}, {"note": 78, "velocity": 127, "duration": 193}, {"note": 76, "velocity": 95, "duration": 211}, {"note": 78, "velocity": 117, "duration": 213}, {"note": 74, "velocity": 102, "duration": 173}, {"note": 0, "velocity": 0, "duration": 67}, {"note": 76, "velocity": 112, "duration": 79}, {"note": 74, "velocity": 86, "duration": 79}, {"note": 76, "velocity": 117, "duration": 781}, {"note": 0, "velocity": 0, "duration": 179}, {"note": 73, "velocity": 122, "duration": 165}, {"note": 0, "velocity": 0, "duration": 75}, {"note": 76, "velocity": 107, "duration": 170}, {"note": 0, "velocity": 0, "duration": 70}, {"note": 69, "velocity": 102, "duration": 156}, {"note": 0, "velocity": 0, "duration": 84}, {"note": 71, "velocity": 117, "duration": 110}, {"note": 69, "velocity": 85, "duration": 378}, {"note": 71, "velocity": 102, "duration": 682}, {"note": 0, "velocity": 0, "duration": 7200}, {"note": 78, "velocity": 127, "duration": 166}, {"note": 0, "velocity": 0, "duration": 74}, {"note": 78, "velocity": 117, "duration": 134}, {"note": 0, "velocity": 0, "duration": 106}, {"note": 78, "velocity": 112, "duration": 138}, {"note": 0, "velocity": 0, "duration": 102}, {"note": 78, "velocity": 112, "duration": 172}, {"note": 0, "velocity": 0, "duration": 68}, {"note": 74, "velocity": 100, "duration": 207}, {"note": 71, "velocity": 92, "duration": 156}, {"note": 74, "velocity": 102, "duration": 284}, {"note": 0, "velocity": 0, "duration": 76}, {"note": 69, "velocity": 95, "duration": 109}, {"note": 71, "velocity": 86, "duration": 114}, {"note": 73, "velocity": 93, "duration": 262}, {"note": 76, "velocity": 95, "duration": 169}, {"note": 0, "velocity": 0, "duration": 71}, {"note": 76, "velocity": 95, "duration": 160}, {"note": 0, "velocity": 0, "duration": 80}, {"note": 69, "velocity": 89, "duration": 243}, {"note": 71, "velocity": 82, "duration": 772}, {"note": 0, "velocity": 0, "duration": 188}, {"note": 71, "velocity": 95, "duration": 208}, {"note": 78, "velocity": 107, "duration": 176}, {"note": 0, "velocity": 0, "duration": 64}, {"note": 78, "velocity": 117, "duration": 185}, {"note": 78, "velocity": 112, "duration": 182}, {"note": 74, "velocity": 100, "duration": 195}, {"note": 71, "velocity": 86, "duration": 103}, {"note": 76, "velocity": 93, "duration": 368}, {"note": 76, "velocity": 95, "duration": 8}, {"note": 0, "velocity": 0, "duration": 112}, {"note": 71, "velocity": 79, "duration": 121}, {"note": 74, "velocity": 95, "duration": 180}, {"note": 74, "velocity": 100, "duration": 217}, {"note": 76, "velocity": 99, "duration": 190}, {"note": 78, "velocity": 102, "duration": 192}, {"note": 78, "velocity": 122, "duration": 803}, {"note": 0, "velocity": 0, "duration": 157}, {"note": 78, "velocity": 122, "duration": 160}, {"note": 0, "velocity": 0, "duration": 80}, {"note": 76, "velocity": 99, "duration": 166}, {"note": 0, "velocity": 0, "duration": 74}, {"note": 78, "velocity": 127, "duration": 197}, {"note": 83, "velocity": 100, "duration": 173}, {"note": 0, "velocity": 0, "duration": 67}, {"note": 83, "velocity": 102, "duration": 176}, {"note": 0, "velocity": 0, "duration": 64}, {"note": 78, "velocity": 112, "duration": 200}, {"note": 76, "velocity": 107, "duration": 163}, {"note": 0, "velocity": 0, "duration": 77}, {"note": 74, "velocity": 95, "duration": 91}, {"note": 76, "velocity": 93, "duration": 70}, {"note": 78, "velocity": 112, "duration": 207}, {"note": 81, "velocity": 117, "duration": 240}, {"note": 81, "velocity": 107, "duration": 185}, {"note": 76, "velocity": 95, "duration": 252}, {"note": 78, "velocity": 112, "duration": 214}, {"note": 74, "velocity": 96, "duration": 478}, {"note": 0, "velocity": 0, "duration": 242}, {"note": 71, "velocity": 107, "duration": 227}, {"note": 78, "velocity": 102, "duration": 161}, {"note": 0, "velocity": 0, "duration": 79}, {"note": 78, "velocity": 122, "duration": 234}, {"note": 78, "velocity": 112, "duration": 186}, {"note": 74, "velocity": 112, "duration": 190}, {"note": 78, "velocity": 107, "duration": 207}, {"note": 73, "velocity": 102, "duration": 154}, {"note": 0, "velocity": 0, "duration": 86}, {"note": 69, "velocity": 96, "duration": 116}, {"note": 71, "velocity": 96, "duration": 89}, {"note": 73, "velocity": 99, "duration": 189}, {"note": 76, "velocity": 102, "duration": 174}, {"note": 0, "velocity": 0, "duration": 66}, {"note": 69, "velocity": 95, "duration": 204}, {"note": 71, "velocity": 99, "duration": 176}, {"note": 0, "velocity": 0, "duration": 64}, {"note": 71, "velocity": 97, "duration": 916}, {"note": 83, "velocity": 122, "duration": 302}, {"note": 0, "velocity": 0, "duration": 178}, {"note": 83, "velocity": 102, "duration": 215}, {"note": 78, "velocity": 112, "duration": 217}, {"note": 83, "velocity": 112, "duration": 163}, {"note": 86, "velocity": 117, "duration": 113}, {"note": 83, "velocity": 97, "duration": 450}, {"note": 0, "velocity": 0, "duration": 270}, {"note": 81, "velocity": 107, "duration": 242}, {"note": 83, "velocity": 112, "duration": 254}, {"note": 85, "velocity": 127, "duration": 172}, {"note": 0, "velocity": 0, "duration": 68}, {"note": 85, "velocity": 122, "duration": 238}, {"note": 83, "velocity": 107, "duration": 741}, {"note": 0, "velocity": 0, "duration": 219}, {"note": 78, "velocity": 122, "duration": 202}, {"note": 83, "velocity": 107, "duration": 170}, {"note": 0, "velocity": 0, "duration": 70}, {"note": 83, "velocity": 117, "duration": 160}, {"note": 0, "velocity": 0, "duration": 80}, {"note": 83, "velocity": 122, "duration": 185}, {"note": 83, "velocity": 112, "duration": 135}, {"note": 0, "velocity": 0, "duration": 105}, {"note": 78, "velocity": 112, "duration": 168}, {"note": 0, "velocity": 0, "duration": 72}, {"note": 76, "velocity": 102, "duration": 204}, {"note": 78, "velocity": 127, "duration": 147}, {"note": 0, "velocity": 0, "duration": 93}, {"note": 76, "velocity": 112, "duration": 203}, {"note": 71, "velocity": 100, "duration": 200}, {"note": 81, "velocity": 112, "duration": 206}, {"note": 83, "velocity": 112, "duration": 167}, {"note": 0, "velocity": 0, "duration": 73}, {"note": 83, "velocity": 127, "duration": 120}, {"note": 81, "velocity": 112, "duration": 113}, {"note": 78, "velocity": 107, "duration": 591}, {"note": 0, "velocity": 0, "duration": 129}, {"note": 83, "velocity": 107, "duration": 267}, {"note": 0, "velocity": 0, "duration": 213}, {"note": 83, "velocity": 107, "duration": 206}, {"note": 78, "velocity": 107, "duration": 87}, {"note": 0, "velocity": 0, "duration": 153}, {"note": 83, "velocity": 122, "duration": 238}, {"note": 86, "velocity": 112, "duration": 227}, {"note": 83, "velocity": 107, "duration": 464}, {"note": 81, "velocity": 102, "duration": 221}, {"note": 83, "velocity": 112, "duration": 245}, {"note": 85, "velocity": 112, "duration": 177}, {"note": 0, "velocity": 0, "duration": 63}, {"note": 85, "velocity": 127, "duration": 248}, {"note": 83, "velocity": 117, "duration": 244}, {"note": 0, "velocity": 0, "duration": 720}, {"note": 78, "velocity": 102, "duration": 215}, {"note": 81, "velocity": 112, "duration": 181}, {"note": 81, "velocity": 112, "duration": 184}, {"note": 78, "velocity": 127, "duration": 193}, {"note": 76, "velocity": 95, "duration": 211}, {"note": 78, "velocity": 117, "duration": 213}, {"note": 74, "velocity": 102, "duration": 173}, {"note": 0, "velocity": 0, "duration": 67}, {"note": 76, "velocity": 112, "duration": 79}, {"note": 74, "velocity": 86, "duration": 79}, {"note": 76, "velocity": 117, "duration": 781}, {"note": 0, "velocity": 0, "duration": 179}, {"note": 73, "velocity": 122, "duration": 165}, {"note": 0, "velocity": 0, "duration": 75}, {"note": 76, "velocity": 107, "duration": 170}, {"note": 0, "velocity": 0, "duration": 70}, {"note": 69, "velocity": 102, "duration": 156}, {"note": 0, "velocity": 0, "duration": 84}, {"note": 71, "velocity": 117, "duration": 110}, {"note": 69, "velocity": 85, "duration": 378}, {"note": 71, "velocity": 102, "duration": 682}, {"note": 83, "velocity": 122, "duration": 302}, {"note": 0, "velocity": 0, "duration": 178}, {"note": 83, "velocity": 102, "duration": 215}, {"note": 78, "velocity": 112, "duration": 217}, {"note": 83, "velocity": 112, "duration": 163}, {"note": 86, "velocity": 117, "duration": 113}, {"note": 83, "velocity": 97, "duration": 450}, {"note": 0, "velocity": 0, "duration": 270}, {"note": 81, "velocity": 107, "duration": 242}, {"note": 83, "velocity": 112, "duration": 254}, {"note": 85, "velocity": 127, "duration": 172}, {"note": 0, "velocity": 0, "duration": 68}, {"note": 85, "velocity": 122, "duration": 238}, {"note": 83, "velocity": 107, "duration": 741}, {"note": 0, "velocity": 0, "duration": 219}, {"note": 78, "velocity": 122, "duration": 202}, {"note": 83, "velocity": 107, "duration": 170}, {"note": 0, "velocity": 0, "duration": 70}, {"note": 83, "velocity": 117, "duration": 160}, {"note": 0, "velocity": 0, "duration": 80}, {"note": 83, "velocity": 122, "duration": 185}, {"note": 83, "velocity": 112, "duration": 135}, {"note": 0, "velocity": 0, "duration": 105}, {"note": 78, "velocity": 112, "duration": 168}, {"note": 0, "velocity": 0, "duration": 72}, {"note": 76, "velocity": 102, "duration": 204}, {"note": 78, "velocity": 127, "duration": 147}, {"note": 0, "velocity": 0, "duration": 93}, {"note": 76, "velocity": 112, "duration": 203}, {"note": 71, "velocity": 100, "duration": 200}, {"note": 81, "velocity": 112, "duration": 206}, {"note": 83, "velocity": 112, "duration": 167}, {"note": 0, "velocity": 0, "duration": 73}, {"note": 83, "velocity": 127, "duration": 120}, {"note": 81, "velocity": 112, "duration": 113}, {"note": 78, "velocity": 107, "duration": 591}, {"note": 0, "velocity": 0, "duration": 129}, {"note": 83, "velocity": 107, "duration": 267}, {"note": 0, "velocity": 0, "duration": 213}, {"note": 83, "velocity": 107, "duration": 206}, {"note": 78, "velocity": 107, "duration": 87}, {"note": 0, "velocity": 0, "duration": 153}, {"note": 83, "velocity": 122, "duration": 238}, {"note": 86, "velocity": 112, "duration": 227}, {"note": 83, "velocity": 107, "duration": 464}, {"note": 81, "velocity": 102, "duration": 221}, {"note": 83, "velocity": 112, "duration": 245}, {"note": 85, "velocity": 112, "duration": 177}, {"note": 0, "velocity": 0, "duration": 63}, {"note": 85, "velocity": 127, "duration": 248}, {"note": 83, "velocity": 117, "duration": 819}, {"note": 0, "velocity": 0, "duration": 141}, {"note": 76, "velocity": 102, "duration": 215}, {"note": 81, "velocity": 112, "duration": 181}, {"note": 81, "velocity": 112, "duration": 184}, {"note": 78, "velocity": 127, "duration": 193}, {"note": 76, "velocity": 95, "duration": 211}, {"note": 78, "velocity": 117, "duration": 213}, {"note": 74, "velocity": 102, "duration": 173}, {"note": 0, "velocity": 0, "duration": 67}, {"note": 76, "velocity": 112, "duration": 79}, {"note": 74, "velocity": 86, "duration": 79}, {"note": 76, "velocity": 117, "duration": 781}, {"note": 73, "velocity": 122, "duration": 165}, {"note": 0, "velocity": 0, "duration": 75}, {"note": 76, "velocity": 107, "duration": 170}, {"note": 0, "velocity": 0, "duration": 70}, {"note": 69, "velocity": 102, "duration": 156}, {"note": 0, "velocity": 0, "duration": 84}, {"note": 71, "velocity": 117, "duration": 110}, {"note": 69, "velocity": 85, "duration": 378}, {"note": 71, "velocity": 102, "duration": 682}, {"note": 0, "velocity": 0, "duration": 1330}, {"note": 81, "velocity": 117, "duration": 438}, {"note": 0, "velocity": 0, "duration": 141}, {"note": 81, "velocity": 127, "duration": 600}, {"note": 78, "velocity": 95, "duration": 702}, {"note": 81, "velocity": 112, "duration": 226}, {"note": 78, "velocity": 112, "duration": 1254}, {"note": 0, "velocity": 0, "duration": 306}, {"note": 83, "velocity": 107, "duration": 1803}]]