[[{"note": 67, "velocity": 95, "duration": 187}, {"note": 74, "velocity": 100, "duration": 50}, {"note": 0, "velocity": 0, "duration": 70}, {"note": 74, "velocity": 97, "duration": 47}, {"note": 0, "velocity": 0, "duration": 73}, {"note": 74, "velocity": 117, "duration": 201}, {"note": 72, "velocity": 127, "duration": 199}, {"note": 74, "velocity": 100, "duration": 115}, {"note": 72, "velocity": 74, "duration": 99}, {"note": 70, "velocity": 88, "duration": 540}, {"note": 0, "velocity": 0, "duration": 180}, {"note": 72, "velocity": 107, "duration": 183}, {"note": 72, "velocity": 99, "duration": 414}, {"note": 0, "velocity": 0, "duration": 66}, {"note": 69, "velocity": 90, "duration": 213}, {"note": 67, "velocity": 93, "duration": 431}, {"note": 0, "velocity": 0, "duration": 529}, {"note": 67, "velocity": 97, "duration": 186}, {"note": 79, "velocity": 95, "duration": 46}, {"note": 0, "velocity": 0, "duration": 74}, {"note": 79, "velocity": 83, "duration": 46}, {"note": 0, "velocity": 0, "duration": 74}, {"note": 79, "velocity": 107, "duration": 173}, {"note": 0, "velocity": 0, "duration": 67}, {"note": 77, "velocity": 107, "duration": 128}, {"note": 0, "velocity": 0, "duration": 112}, {"note": 74, "velocity": 100, "duration": 289}, {"note": 74, "velocity": 112, "duration": 49}, {"note": 0, "velocity": 0, "duration": 71}, {"note": 72, "velocity": 85, "duration": 99}, {"note": 70, "velocity": 100, "duration": 197}, {"note": 67, "velocity": 89, "duration": 224}, {"note": 74, "velocity": 96, "duration": 599}, {"note": 0, "velocity": 0, "duration": 1321}, {"note": 74, "velocity": 107, "duration": 203}, {"note": 79, "velocity": 112, "duration": 62}, {"note": 79, "velocity": 76, "duration": 54}, {"note": 0, "velocity": 0, "duration": 66}, {"note": 79, "velocity": 100, "duration": 166}, {"note": 0, "velocity": 0, "duration": 74}, {"note": 77, "velocity": 112, "duration": 188}, {"note": 79, "velocity": 117, "duration": 149}, {"note": 0, "velocity": 0, "duration": 91}, {"note": 74, "velocity": 100, "duration": 269}, {"note": 0, "velocity": 0, "duration": 451}, {"note": 77, "velocity": 112, "duration": 233}, {"note": 74, "velocity": 78, "duration": 389}, {"note": 0, "velocity": 0, "duration": 91}, {"note": 74, "velocity": 107, "duration": 200}, {"note": 72, "velocity": 107, "duration": 724}, {"note": 0, "velocity": 0, "duration": 236}, {"note": 72, "velocity": 122, "duration": 140}, {"note": 0, "velocity": 0, "duration": 100}, {"note": 72, "velocity": 100, "duration": 46}, {"note": 0, "velocity": 0, "duration": 74}, {"note": 72, "velocity": 89, "duration": 45}, {"note": 0, "velocity": 0, "duration": 75}, {"note": 72, "velocity": 96, "duration": 158}, {"note": 0, "velocity": 0, "duration": 82}, {"note": 72, "velocity": 93, "duration": 98}, {"note": 74, "velocity": 89, "duration": 80}, {"note": 77, "velocity": 112, "duration": 184}, {"note": 77, "velocity": 107, "duration": 125}, {"note": 0, "velocity": 0, "duration": 115}, {"note": 70, "velocity": 117, "duration": 211}, {"note": 72, "velocity": 89, "duration": 105}, {"note": 70, "velocity": 102, "duration": 119}, {"note": 67, "velocity": 97, "duration": 1173}, {"note": 0, "velocity": 0, "duration": 747}, {"note": 67, "velocity": 95, "duration": 187}, {"note": 74, "velocity": 100, "duration": 50}, {"note": 0, "velocity": 0, "duration": 70}, {"note": 74, "velocity": 97, "duration": 47}, {"note": 0, "velocity": 0, "duration": 73}, {"note": 74, "velocity": 117, "duration": 201}, {"note": 72, "velocity": 127, "duration": 199}, {"note": 74, "velocity": 100, "duration": 115}, {"note": 72, "velocity": 74, "duration": 99}, {"note": 70, "velocity": 88, "duration": 540}, {"note": 0, "velocity": 0, "duration": 180}, {"note": 72, "velocity": 107, "duration": 183}, {"note": 72, "velocity": 99, "duration": 414}, {"note": 0, "velocity": 0, "duration": 66}, {"note": 69, "velocity": 90, "duration": 213}, {"note": 67, "velocity": 93, "duration": 431}, {"note": 0, "velocity": 0, "duration": 529}, {"note": 67, "velocity": 97, "duration": 186}, {"note": 79, "velocity": 95, "duration": 46}, {"note": 0, "velocity": 0, "duration": 74}, {"note": 79, "velocity": 83, "duration": 46}, {"note": 0, "velocity": 0, "duration": 74}, {"note": 79, "velocity": 107, "duration": 173}, {"note": 0, "velocity": 0, "duration": 67}, {"note": 77, "velocity": 107, "duration": 128}, {"note": 0, "velocity": 0, "duration": 112}, {"note": 74, "velocity": 100, "duration": 155}, {"note": 0, "velocity": 0, "duration": 85}, {"note": 74, "velocity": 112, "duration": 103}, {"note": 72, "velocity": 85, "duration": 99}, {"note": 70, "velocity": 100, "duration": 197}, {"note": 67, "velocity": 89, "duration": 224}, {"note": 74, "velocity": 96, "duration": 599}, {"note": 0, "velocity": 0, "duration": 1321}, {"note": 74, "velocity": 107, "duration": 203}, {"note": 79, "velocity": 112, "duration": 62}, {"note": 79, "velocity": 76, "duration": 54}, {"note": 0, "velocity": 0, "duration": 66}, {"note": 79, "velocity": 100, "duration": 166}, {"note": 0, "velocity": 0, "duration": 74}, {"note": 77, "velocity": 112, "duration": 188}, {"note": 79, "velocity": 117, "duration": 149}, {"note": 0, "velocity": 0, "duration": 91}, {"note": 74, "velocity": 100, "duration": 269}, {"note": 0, "velocity": 0, "duration": 451}, {"note": 77, "velocity": 112, "duration": 233}, {"note": 74, "velocity": 78, "duration": 389}, {"note": 0, "velocity": 0, "duration": 91}, {"note": 74, "velocity": 107, "duration": 200}, {"note": 72, "velocity": 107, "duration": 724}, {"note": 0, "velocity": 0, "duration": 236}, {"note": 72, "velocity": 122, "duration": 140}, {"note": 0, "velocity": 0, "duration": 100}, {"note": 72, "velocity": 127, "duration": 148}, {"note": 0, "velocity": 0, "duration": 92}, {"note": 72, "velocity": 96, "duration": 158}, {"note": 0, "velocity": 0, "duration": 82}, {"note": 72, "velocity": 93, "duration": 98}, {"note": 74, "velocity": 89, "duration": 80}, {"note": 77, "velocity": 112, "duration": 184}, {"note": 77, "velocity": 107, "duration": 125}, {"note": 0, "velocity": 0, "duration": 115}, {"note": 70, "velocity": 117, "duration": 211}, {"note": 72, "velocity": 89, "duration": 105}, {"note": 70, "velocity": 102, "duration": 119}, {"note": 67, "velocity": 97, "duration": 1173}, {"note": 0, "velocity": 0, "duration": 747}, {"note": 74, "velocity": 112, "duration": 171}, {"note": 0, "velocity": 0, "duration": 69}, {"note": 79, "velocity": 112, "duration": 52}, {"note": 0, "velocity": 0, "duration": 68}, {"note": 79, "velocity": 99, "duration": 41}, {"note": 0, "velocity": 0, "duration": 79}, {"note": 79, "velocity": 127, "duration": 172}, {"note": 0, "velocity": 0, "duration": 68}, {"note": 77, "velocity": 117, "duration": 165}, {"note": 0, "velocity": 0, "duration": 75}, {"note": 79, "velocity": 127, "duration": 382}, {"note": 0, "velocity": 0, "duration": 338}, {"note": 74, "velocity": 97, "duration": 48}, {"note": 0, "velocity": 0, "duration": 72}, {"note": 74, "velocity": 93, "duration": 57}, {"note": 0, "velocity": 0, "duration": 63}, {"note": 82, "velocity": 127, "duration": 99}, {"note": 0, "velocity": 0, "duration": 141}, {"note": 79, "velocity": 127, "duration": 66}, {"note": 81, "velocity": 86, "duration": 68}, {"note": 77, "velocity": 107, "duration": 173}, {"note": 0, "velocity": 0, "duration": 67}, {"note": 74, "velocity": 99, "duration": 188}, {"note": 79, "velocity": 127, "duration": 982}, {"note": 74, "velocity": 99, "duration": 130}, {"note": 0, "velocity": 0, "duration": 110}, {"note": 79, "velocity": 107, "duration": 43}, {"note": 0, "velocity": 0, "duration": 77}, {"note": 79, "velocity": 86, "duration": 46}, {"note": 0, "velocity": 0, "duration": 74}, {"note": 79, "velocity": 107, "duration": 59}, {"note": 0, "velocity": 0, "duration": 181}, {"note": 77, "velocity": 96, "duration": 35}, {"note": 0, "velocity": 0, "duration": 85}, {"note": 77, "velocity": 93, "duration": 38}, {"note": 0, "velocity": 0, "duration": 82}, {"note": 79, "velocity": 127, "duration": 93}, {"note": 0, "velocity": 0, "duration": 147}, {"note": 79, "velocity": 117, "duration": 309}, {"note": 0, "velocity": 0, "duration": 411}, {"note": 79, "velocity": 112, "duration": 130}, {"note": 0, "velocity": 0, "duration": 110}, {"note": 79, "velocity": 102, "duration": 197}, {"note": 0, "velocity": 0, "duration": 283}, {"note": 72, "velocity": 107, "duration": 222}, {"note": 74, "velocity": 100, "duration": 782}, {"note": 0, "velocity": 0, "duration": 178}, {"note": 74, "velocity": 102, "duration": 138}, {"note": 0, "velocity": 0, "duration": 102}, {"note": 79, "velocity": 107, "duration": 42}, {"note": 0, "velocity": 0, "duration": 78}, {"note": 79, "velocity": 95, "duration": 43}, {"note": 0, "velocity": 0, "duration": 77}, {"note": 79, "velocity": 102, "duration": 136}, {"note": 0, "velocity": 0, "duration": 104}, {"note": 77, "velocity": 117, "duration": 147}, {"note": 0, "velocity": 0, "duration": 93}, {"note": 79, "velocity": 122, "duration": 137}, {"note": 0, "velocity": 0, "duration": 103}, {"note": 74, "velocity": 100, "duration": 398}, {"note": 0, "velocity": 0, "duration": 82}, {"note": 74, "velocity": 107, "duration": 143}, {"note": 0, "velocity": 0, "duration": 97}, {"note": 77, "velocity": 117, "duration": 139}, {"note": 0, "velocity": 0, "duration": 101}, {"note": 74, "velocity": 107, "duration": 330}, {"note": 0, "velocity": 0, "duration": 150}, {"note": 72, "velocity": 112, "duration": 172}, {"note": 0, "velocity": 0, "duration": 68}, {"note": 70, "velocity": 107, "duration": 605}, {"note": 0, "velocity": 0, "duration": 115}, {"note": 72, "velocity": 117, "duration": 43}, {"note": 0, "velocity": 0, "duration": 77}, {"note": 72, "velocity": 99, "duration": 45}, {"note": 0, "velocity": 0, "duration": 75}, {"note": 72, "velocity": 112, "duration": 141}, {"note": 0, "velocity": 0, "duration": 99}, {"note": 72, "velocity": 107, "duration": 48}, {"note": 0, "velocity": 0, "duration": 72}, {"note": 74, "velocity": 96, "duration": 51}, {"note": 0, "velocity": 0, "duration": 69}, {"note": 72, "velocity": 122, "duration": 157}, {"note": 0, "velocity": 0, "duration": 83}, {"note": 74, "velocity": 117, "duration": 158}, {"note": 0, "velocity": 0, "duration": 82}, {"note": 77, "velocity": 117, "duration": 207}, {"note": 74, "velocity": 117, "duration": 267}, {"note": 0, "velocity": 0, "duration": 213}, {"note": 74, "velocity": 112, "duration": 150}, {"note": 0, "velocity": 0, "duration": 90}, {"note": 77, "velocity": 112, "duration": 117}, {"note": 0, "velocity": 0, "duration": 123}, {"note": 77, "velocity": 100, "duration": 45}, {"note": 0, "velocity": 0, "duration": 75}, {"note": 77, "velocity": 93, "duration": 44}, {"note": 0, "velocity": 0, "duration": 76}, {"note": 77, "velocity": 107, "duration": 152}, {"note": 0, "velocity": 0, "duration": 88}, {"note": 74, "velocity": 96, "duration": 171}, {"note": 0, "velocity": 0, "duration": 69}, {"note": 79, "velocity": 112, "duration": 897}, {"note": 0, "velocity": 0, "duration": 63}, {"note": 74, "velocity": 112, "duration": 171}, {"note": 0, "velocity": 0, "duration": 69}, {"note": 79, "velocity": 112, "duration": 52}, {"note": 0, "velocity": 0, "duration": 68}, {"note": 79, "velocity": 99, "duration": 41}, {"note": 0, "velocity": 0, "duration": 79}, {"note": 79, "velocity": 127, "duration": 172}, {"note": 0, "velocity": 0, "duration": 68}, {"note": 77, "velocity": 117, "duration": 165}, {"note": 0, "velocity": 0, "duration": 75}, {"note": 79, "velocity": 127, "duration": 382}, {"note": 0, "velocity": 0, "duration": 338}, {"note": 74, "velocity": 97, "duration": 48}, {"note": 0, "velocity": 0, "duration": 72}, {"note": 74, "velocity": 93, "duration": 57}, {"note": 0, "velocity": 0, "duration": 63}, {"note": 82, "velocity": 127, "duration": 99}, {"note": 0, "velocity": 0, "duration": 141}, {"note": 79, "velocity": 127, "duration": 66}, {"note": 81, "velocity": 86, "duration": 68}, {"note": 77, "velocity": 107, "duration": 173}, {"note": 0, "velocity": 0, "duration": 67}, {"note": 74, "velocity": 99, "duration": 188}, {"note": 79, "velocity": 127, "duration": 982}, {"note": 74, "velocity": 99, "duration": 130}, {"note": 0, "velocity": 0, "duration": 110}, {"note": 79, "velocity": 107, "duration": 43}, {"note": 0, "velocity": 0, "duration": 77}, {"note": 79, "velocity": 86, "duration": 46}, {"note": 0, "velocity": 0, "duration": 74}, {"note": 79, "velocity": 107, "duration": 59}, {"note": 0, "velocity": 0, "duration": 181}, {"note": 77, "velocity": 96, "duration": 35}, {"note": 0, "velocity": 0, "duration": 85}, {"note": 77, "velocity": 93, "duration": 38}, {"note": 0, "velocity": 0, "duration": 82}, {"note": 79, "velocity": 127, "duration": 93}, {"note": 0, "velocity": 0, "duration": 147}, {"note": 79, "velocity": 117, "duration": 309}, {"note": 0, "velocity": 0, "duration": 411}, {"note": 79, "velocity": 112, "duration": 130}, {"note": 0, "velocity": 0, "duration": 110}, {"note": 79, "velocity": 102, "duration": 197}, {"note": 0, "velocity": 0, "duration": 283}, {"note": 72, "velocity": 107, "duration": 222}, {"note": 74, "velocity": 100, "duration": 782}, {"note": 0, "velocity": 0, "duration": 178}, {"note": 74, "velocity": 102, "duration": 138}, {"note": 0, "velocity": 0, "duration": 102}, {"note": 79, "velocity": 107, "duration": 42}, {"note": 0, "velocity": 0, "duration": 78}, {"note": 79, "velocity": 95, "duration": 43}, {"note": 0, "velocity": 0, "duration": 77}, {"note": 79, "velocity": 102, "duration": 136}, {"note": 0, "velocity": 0, "duration": 104}, {"note": 77, "velocity": 117, "duration": 147}, {"note": 0, "velocity": 0, "duration": 93}, {"note": 79, "velocity": 122, "duration": 137}, {"note": 0, "velocity": 0, "duration": 103}, {"note": 74, "velocity": 100, "duration": 398}, {"note": 0, "velocity": 0, "duration": 322}, {"note": 77, "velocity": 117, "duration": 139}, {"note": 0, "velocity": 0, "duration": 101}, {"note": 74, "velocity": 107, "duration": 330}, {"note": 0, "velocity": 0, "duration": 150}, {"note": 72, "velocity": 112, "duration": 172}, {"note": 0, "velocity": 0, "duration": 68}, {"note": 70, "velocity": 107, "duration": 605}, {"note": 0, "velocity": 0, "duration": 115}, {"note": 72, "velocity": 117, "duration": 43}, {"note": 0, "velocity": 0, "duration": 77}, {"note": 72, "velocity": 99, "duration": 45}, {"note": 0, "velocity": 0, "duration": 75}, {"note": 72, "velocity": 112, "duration": 141}, {"note": 0, "velocity": 0, "duration": 99}, {"note": 72, "velocity": 107, "duration": 48}, {"note": 0, "velocity": 0, "duration": 72}, {"note": 74, "velocity": 96, "duration": 51}, {"note": 0, "velocity": 0, "duration": 69}, {"note": 72, "velocity": 122, "duration": 157}, {"note": 0, "velocity": 0, "duration": 83}, {"note": 74, "velocity": 117, "duration": 158}, {"note": 0, "velocity": 0, "duration": 82}, {"note": 77, "velocity": 117, "duration": 207}, {"note": 74, "velocity": 117, "duration": 267}, {"note": 0, "velocity": 0, "duration": 213}, {"note": 74, "velocity": 112, "duration": 104}, {"note": 74, "velocity": 97, "duration": 102}, {"note": 77, "velocity": 112, "duration": 117}, {"note": 0, "velocity": 0, "duration": 123}, {"note": 74, "velocity": 102, "duration": 345}, {"note": 0, "velocity": 0, "duration": 135}, {"note": 79, "velocity": 102, "duration": 154}, {"note": 0, "velocity": 0, "duration": 86}, {"note": 79, "velocity": 117, "duration": 926}, {"note": 72, "velocity": 117, "duration": 146}, {"note": 0, "velocity": 0, "duration": 94}, {"note": 72, "velocity": 93, "duration": 50}, {"note": 0, "velocity": 0, "duration": 70}, {"note": 72, "velocity": 88, "duration": 47}, {"note": 0, "velocity": 0, "duration": 73}, {"note": 72, "velocity": 97, "duration": 134}, {"note": 0, "velocity": 0, "duration": 106}, {"note": 74, "velocity": 99, "duration": 153}, {"note": 0, "velocity": 0, "duration": 87}, {"note": 77, "velocity": 122, "duration": 183}, {"note": 77, "velocity": 107, "duration": 289}, {"note": 0, "velocity": 0, "duration": 191}, {"note": 70, "velocity": 107, "duration": 120}, {"note": 72, "velocity": 81, "duration": 112}, {"note": 67, "velocity": 95, "duration": 1164}, {"note": 0, "velocity": 0, "duration": 16116}, {"note": 67, "velocity": 95, "duration": 187}, {"note": 74, "velocity": 100, "duration": 50}, {"note": 0, "velocity": 0, "duration": 70}, {"note": 74, "velocity": 97, "duration": 47}, {"note": 0, "velocity": 0, "duration": 73}, {"note": 74, "velocity": 117, "duration": 201}, {"note": 72, "velocity": 127, "duration": 199}, {"note": 74, "velocity": 100, "duration": 115}, {"note": 72, "velocity": 74, "duration": 99}, {"note": 70, "velocity": 88, "duration": 540}, {"note": 0, "velocity": 0, "duration": 180}, {"note": 72, "velocity": 107, "duration": 183}, {"note": 72, "velocity": 99, "duration": 414}, {"note": 0, "velocity": 0, "duration": 66}, {"note": 69, "velocity": 90, "duration": 213}, {"note": 67, "velocity": 93, "duration": 431}, {"note": 0, "velocity": 0, "duration": 529}, {"note": 67, "velocity": 97, "duration": 186}, {"note": 79, "velocity": 95, "duration": 46}, {"note": 0, "velocity": 0, "duration": 74}, {"note": 79, "velocity": 83, "duration": 46}, {"note": 0, "velocity": 0, "duration": 74}, {"note": 79, "velocity": 107, "duration": 173}, {"note": 0, "velocity": 0, "duration": 67}, {"note": 77, "velocity": 107, "duration": 128}, {"note": 0, "velocity": 0, "duration": 112}, {"note": 74, "velocity": 100, "duration": 155}, {"note": 0, "velocity": 0, "duration": 85}, {"note": 74, "velocity": 112, "duration": 103}, {"note": 72, "velocity": 85, "duration": 99}, {"note": 70, "velocity": 100, "duration": 197}, {"note": 67, "velocity": 89, "duration": 224}, {"note": 74, "velocity": 96, "duration": 599}, {"note": 0, "velocity": 0, "duration": 1321}, {"note": 74, "velocity": 107, "duration": 203}, {"note": 79, "velocity": 112, "duration": 62}, {"note": 79, "velocity": 76, "duration": 54}, {"note": 0, "velocity": 0, "duration": 66}, {"note": 79, "velocity": 100, "duration": 166}, {"note": 0, "velocity": 0, "duration": 74}, {"note": 77, "velocity": 112, "duration": 188}, {"note": 79, "velocity": 117, "duration": 149}, {"note": 0, "velocity": 0, "duration": 91}, {"note": 74, "velocity": 100, "duration": 269}, {"note": 0, "velocity": 0, "duration": 451}, {"note": 77, "velocity": 112, "duration": 233}, {"note": 74, "velocity": 78, "duration": 389}, {"note": 0, "velocity": 0, "duration": 91}, {"note": 74, "velocity": 107, "duration": 200}, {"note": 72, "velocity": 107, "duration": 724}, {"note": 0, "velocity": 0, "duration": 236}, {"note": 72, "velocity": 122, "duration": 140}, {"note": 0, "velocity": 0, "duration": 100}, {"note": 72, "velocity": 127, "duration": 148}, {"note": 0, "velocity": 0, "duration": 92}, {"note": 72, "velocity": 96, "duration": 158}, {"note": 0, "velocity": 0, "duration": 82}, {"note": 72, "velocity": 93, "duration": 98}, {"note": 74, "velocity": 89, "duration": 80}, {"note": 77, "velocity": 112, "duration": 184}, {"note": 77, "velocity": 107, "duration": 125}, {"note": 0, "velocity": 0, "duration": 115}, {"note": 70, "velocity": 117, "duration": 211}, {"note": 72, "velocity": 89, "duration": 105}, {"note": 70, "velocity": 102, "duration": 119}, {"note": 67, "velocity": 97, "duration": 1173}, {"note": 0, "velocity": 0, "duration": 747}, {"note": 74, "velocity": 112, "duration": 171}, {"note": 0, "velocity": 0, "duration": 69}, {"note": 79, "velocity": 112, "duration": 52}, {"note": 0, "velocity": 0, "duration": 68}, {"note": 79, "velocity": 99, "duration": 41}, {"note": 0, "velocity": 0, "duration": 79}, {"note": 79, "velocity": 127, "duration": 172}, {"note": 0, "velocity": 0, "duration": 68}, {"note": 77, "velocity": 117, "duration": 165}, {"note": 0, "velocity": 0, "duration": 75}, {"note": 79, "velocity": 127, "duration": 382}, {"note": 0, "velocity": 0, "duration": 338}, {"note": 74, "velocity": 97, "duration": 48}, {"note": 0, "velocity": 0, "duration": 72}, {"note": 74, "velocity": 93, "duration": 57}, {"note": 0, "velocity": 0, "duration": 63}, {"note": 82, "velocity": 127, "duration": 99}, {"note": 0, "velocity": 0, "duration": 141}, {"note": 79, "velocity": 127, "duration": 66}, {"note": 81, "velocity": 86, "duration": 68}, {"note": 77, "velocity": 107, "duration": 173}, {"note": 0, "velocity": 0, "duration": 67}, {"note": 74, "velocity": 99, "duration": 188}, {"note": 79, "velocity": 127, "duration": 982}, {"note": 74, "velocity": 99, "duration": 130}, {"note": 0, "velocity": 0, "duration": 110}, {"note": 79, "velocity": 107, "duration": 43}, {"note": 0, "velocity": 0, "duration": 77}, {"note": 79, "velocity": 86, "duration": 46}, {"note": 0, "velocity": 0, "duration": 74}, {"note": 79, "velocity": 107, "duration": 59}, {"note": 0, "velocity": 0, "duration": 181}, {"note": 77, "velocity": 96, "duration": 35}, {"note": 0, "velocity": 0, "duration": 85}, {"note": 77, "velocity": 93, "duration": 38}, {"note": 0, "velocity": 0, "duration": 82}, {"note": 79, "velocity": 127, "duration": 93}, {"note": 0, "velocity": 0, "duration": 147}, {"note": 79, "velocity": 117, "duration": 309}, {"note": 0, "velocity": 0, "duration": 411}, {"note": 79, "velocity": 112, "duration": 130}, {"note": 0, "velocity": 0, "duration": 110}, {"note": 79, "velocity": 102, "duration": 197}, {"note": 0, "velocity": 0, "duration": 283}, {"note": 72, "velocity": 107, "duration": 222}, {"note": 74, "velocity": 100, "duration": 782}, {"note": 0, "velocity": 0, "duration": 178}, {"note": 74, "velocity": 102, "duration": 138}, {"note": 0, "velocity": 0, "duration": 102}, {"note": 79, "velocity": 107, "duration": 42}, {"note": 0, "velocity": 0, "duration": 78}, {"note": 79, "velocity": 95, "duration": 43}, {"note": 0, "velocity": 0, "duration": 77}, {"note": 79, "velocity": 102, "duration": 136}, {"note": 0, "velocity": 0, "duration": 104}, {"note": 77, "velocity": 117, "duration": 147}, {"note": 0, "velocity": 0, "duration": 93}, {"note": 79, "velocity": 122, "duration": 137}, {"note": 0, "velocity": 0, "duration": 103}, {"note": 74, "velocity": 100, "duration": 398}, {"note": 0, "velocity": 0, "duration": 82}, {"note": 74, "velocity": 107, "duration": 143}, {"note": 0, "velocity": 0, "duration": 97}, {"note": 77, "velocity": 117, "duration": 139}, {"note": 0, "velocity": 0, "duration": 101}, {"note": 74, "velocity": 107, "duration": 330}, {"note": 0, "velocity": 0, "duration": 150}, {"note": 72, "velocity": 112, "duration": 172}, {"note": 0, "velocity": 0, "duration": 68}, {"note": 70, "velocity": 107, "duration": 605}, {"note": 0, "velocity": 0, "duration": 115}, {"note": 72, "velocity": 117, "duration": 43}, {"note": 0, "velocity": 0, "duration": 77}, {"note": 72, "velocity": 99, "duration": 45}, {"note": 0, "velocity": 0, "duration": 75}, {"note": 72, "velocity": 112, "duration": 141}, {"note": 0, "velocity": 0, "duration": 99}, {"note": 72, "velocity": 107, "duration": 48}, {"note": 0, "velocity": 0, "duration": 72}, {"note": 74, "velocity": 96, "duration": 51}, {"note": 0, "velocity": 0, "duration": 69}, {"note": 72, "velocity": 122, "duration": 157}, {"note": 0, "velocity": 0, "duration": 83}, {"note": 74, "velocity": 117, "duration": 158}, {"note": 0, "velocity": 0, "duration": 82}, {"note": 77, "velocity": 117, "duration": 207}, {"note": 74, "velocity": 117, "duration": 267}, {"note": 0, "velocity": 0, "duration": 213}, {"note": 74, "velocity": 112, "duration": 150}, {"note": 0, "velocity": 0, "duration": 90}, {"note": 77, "velocity": 112, "duration": 117}, {"note": 0, "velocity": 0, "duration": 123}, {"note": 77, "velocity": 100, "duration": 45}, {"note": 0, "velocity": 0, "duration": 75}, {"note": 77, "velocity": 93, "duration": 44}, {"note": 0, "velocity": 0, "duration": 76}, {"note": 77, "velocity": 107, "duration": 152}, {"note": 0, "velocity": 0, "duration": 88}, {"note": 74, "velocity": 96, "duration": 171}, {"note": 0, "velocity": 0, "duration": 69}, {"note": 79, "velocity": 112, "duration": 897}, {"note": 0, "velocity": 0, "duration": 63}, {"note": 74, "velocity": 112, "duration": 171}, {"note": 0, "velocity": 0, "duration": 69}, {"note": 79, "velocity": 112, "duration": 52}, {"note": 0, "velocity": 0, "duration": 68}, {"note": 79, "velocity": 99, "duration": 41}, {"note": 0, "velocity": 0, "duration": 79}, {"note": 79, "velocity": 127, "duration": 172}, {"note": 0, "velocity": 0, "duration": 68}, {"note": 77, "velocity": 117, "duration": 165}, {"note": 0, "velocity": 0, "duration": 75}, {"note": 79, "velocity": 127, "duration": 382}, {"note": 0, "velocity": 0, "duration": 338}, {"note": 74, "velocity": 97, "duration": 48}, {"note": 0, "velocity": 0, "duration": 72}, {"note": 74, "velocity": 93, "duration": 57}, {"note": 0, "velocity": 0, "duration": 63}, {"note": 82, "velocity": 127, "duration": 99}, {"note": 0, "velocity": 0, "duration": 141}, {"note": 79, "velocity": 127, "duration": 66}, {"note": 81, "velocity": 86, "duration": 68}, {"note": 77, "velocity": 107, "duration": 173}, {"note": 0, "velocity": 0, "duration": 67}, {"note": 74, "velocity": 99, "duration": 188}, {"note": 79, "velocity": 127, "duration": 982}, {"note": 74, "velocity": 99, "duration": 130}, {"note": 0, "velocity": 0, "duration": 110}, {"note": 79, "velocity": 107, "duration": 43}, {"note": 0, "velocity": 0, "duration": 77}, {"note": 79, "velocity": 86, "duration": 46}, {"note": 0, "velocity": 0, "duration": 74}, {"note": 79, "velocity": 107, "duration": 59}, {"note": 0, "velocity": 0, "duration": 181}, {"note": 77, "velocity": 96, "duration": 35}, {"note": 0, "velocity": 0, "duration": 85}, {"note": 77, "velocity": 93, "duration": 38}, {"note": 0, "velocity": 0, "duration": 82}, {"note": 79, "velocity": 127, "duration": 93}, {"note": 0, "velocity": 0, "duration": 147}, {"note": 79, "velocity": 117, "duration": 309}, {"note": 0, "velocity": 0, "duration": 411}, {"note": 79, "velocity": 112, "duration": 130}, {"note": 0, "velocity": 0, "duration": 110}, {"note": 79, "velocity": 102, "duration": 197}, {"note": 0, "velocity": 0, "duration": 283}, {"note": 72, "velocity": 107, "duration": 222}, {"note": 74, "velocity": 100, "duration": 782}, {"note": 0, "velocity": 0, "duration": 178}, {"note": 74, "velocity": 102, "duration": 138}, {"note": 0, "velocity": 0, "duration": 102}, {"note": 79, "velocity": 107, "duration": 42}, {"note": 0, "velocity": 0, "duration": 78}, {"note": 79, "velocity": 95, "duration": 43}, {"note": 0, "velocity": 0, "duration": 77}, {"note": 79, "velocity": 102, "duration": 136}, {"note": 0, "velocity": 0, "duration": 104}, {"note": 77, "velocity": 117, "duration": 147}, {"note": 0, "velocity": 0, "duration": 93}, {"note": 79, "velocity": 122, "duration": 137}, {"note": 0, "velocity": 0, "duration": 103}, {"note": 74, "velocity": 100, "duration": 398}, {"note": 0, "velocity": 0, "duration": 322}, {"note": 77, "velocity": 117, "duration": 139}, {"note": 0, "velocity": 0, "duration": 101}, {"note": 74, "velocity": 107, "duration": 330}, {"note": 0, "velocity": 0, "duration": 150}, {"note": 72, "velocity": 112, "duration": 172}, {"note": 0, "velocity": 0, "duration": 68}, {"note": 70, "velocity": 107, "duration": 605}, {"note": 0, "velocity": 0, "duration": 115}, {"note": 72, "velocity": 117, "duration": 43}, {"note": 0, "velocity": 0, "duration": 77}, {"note": 72, "velocity": 99, "duration": 45}, {"note": 0, "velocity": 0, "duration": 75}, {"note": 72, "velocity": 112, "duration": 141}, {"note": 0, "velocity": 0, "duration": 99}, {"note": 72, "velocity": 107, "duration": 48}, {"note": 0, "velocity": 0, "duration": 72}, {"note": 74, "velocity": 96, "duration": 51}, {"note": 0, "velocity": 0, "duration": 69}, {"note": 72, "velocity": 122, "duration": 157}, {"note": 0, "velocity": 0, "duration": 83}, {"note": 74, "velocity": 117, "duration": 158}, {"note": 0, "velocity": 0, "duration": 82}, {"note": 77, "velocity": 117, "duration": 207}, {"note": 74, "velocity": 117, "duration": 267}, {"note": 0, "velocity": 0, "duration": 213}, {"note": 74, "velocity": 112, "duration": 104}, {"note": 74, "velocity": 97, "duration": 102}, {"note": 77, "velocity": 112, "duration": 117}, {"note": 0, "velocity": 0, "duration": 123}, {"note": 74, "velocity": 102, "duration": 345}, {"note": 0, "velocity": 0, "duration": 135}, {"note": 79, "velocity": 102, "duration": 154}, {"note": 0, "velocity": 0, "duration": 86}, {"note": 79, "velocity": 117, "duration": 926}, {"note": 72, "velocity": 117, "duration": 146}, {"note": 0, "velocity": 0, "duration": 94}, {"note": 72, "velocity": 93, "duration": 50}, {"note": 0, "velocity": 0, "duration": 70}, {"note": 72, "velocity": 88, "duration": 47}, {"note": 0, "velocity": 0, "duration": 73}, {"note": 72, "velocity": 97, "duration": 134}, {"note": 0, "velocity": 0, "duration": 106}, {"note": 74, "velocity": 99, "duration": 153}, {"note": 0, "velocity": 0, "duration": 87}, {"note": 77, "velocity": 122, "duration": 183}, {"note": 77, "velocity": 107, "duration": 289}, {"note": 0, "velocity": 0, "duration": 191}, {"note": 70, "velocity": 107, "duration": 120}, {"note": 72, "velocity": 81, "duration": 112}, {"note": 67, "velocity": 95, "duration": 1164}, {"note": 0, "velocity": 0, "duration": 756}, {"note": 72, "velocity": 100, "duration": 149}, {"note": 0, "velocity": 0, "duration": 91}, {"note": 72, "velocity": 82, "duration": 62}, {"note": 72, "velocity": 86, "duration": 60}, {"note": 72, "velocity": 96, "duration": 222}, {"note": 74, "velocity": 82, "duration": 267}, {"note": 77, "velocity": 117, "duration": 229}, {"note": 0, "velocity": 0, "duration": 66}, {"note": 77, "velocity": 107, "duration": 525}, {"note": 0, "velocity": 0, "duration": 128}, {"note": 70, "velocity": 100, "duration": 410}, {"note": 67, "velocity": 85, "duration": 2105}]]