[[{"note": 73, "velocity": 127, "duration": 403}, {"note": 0, "velocity": 0, "duration": 77}, {"note": 76, "velocity": 99, "duration": 404}, {"note": 0, "velocity": 0, "duration": 76}, {"note": 78, "velocity": 122, "duration": 352}, {"note": 0, "velocity": 0, "duration": 128}, {"note": 69, "velocity": 96, "duration": 416}, {"note": 0, "velocity": 0, "duration": 64}, {"note": 68, "velocity": 102, "duration": 398}, {"note": 0, "velocity": 0, "duration": 82}, {"note": 66, "velocity": 99, "duration": 433}, {"note": 64, "velocity": 100, "duration": 948}, {"note": 0, "velocity": 0, "duration": 1932}, {"note": 66, "velocity": 102, "duration": 360}, {"note": 0, "velocity": 0, "duration": 120}, {"note": 69, "velocity": 88, "duration": 618}, {"note": 78, "velocity": 112, "duration": 442}, {"note": 76, "velocity": 99, "duration": 674}, {"note": 0, "velocity": 0, "duration": 286}, {"note": 69, "velocity": 99, "duration": 500}, {"note": 76, "velocity": 99, "duration": 1938}, {"note": 0, "velocity": 0, "duration": 942}, {"note": 76, "velocity": 107, "duration": 381}, {"note": 0, "velocity": 0, "duration": 99}, {"note": 78, "velocity": 107, "duration": 355}, {"note": 0, "velocity": 0, "duration": 125}, {"note": 81, "velocity": 100, "duration": 327}, {"note": 0, "velocity": 0, "duration": 153}, {"note": 80, "velocity": 127, "duration": 652}, {"note": 0, "velocity": 0, "duration": 308}, {"note": 78, "velocity": 122, "duration": 270}, {"note": 0, "velocity": 0, "duration": 210}, {"note": 76, "velocity": 112, "duration": 800}, {"note": 0, "velocity": 0, "duration": 160}, {"note": 69, "velocity": 102, "duration": 474}, {"note": 73, "velocity": 127, "duration": 1211}, {"note": 0, "velocity": 0, "duration": 229}, {"note": 71, "velocity": 107, "duration": 645}, {"note": 0, "velocity": 0, "duration": 315}, {"note": 71, "velocity": 99, "duration": 400}, {"note": 0, "velocity": 0, "duration": 80}, {"note": 73, "velocity": 112, "duration": 430}, {"note": 69, "velocity": 95, "duration": 325}, {"note": 0, "velocity": 0, "duration": 155}, {"note": 66, "velocity": 112, "duration": 398}, {"note": 0, "velocity": 0, "duration": 82}, {"note": 71, "velocity": 97, "duration": 1501}, {"note": 0, "velocity": 0, "duration": 1379}, {"note": 73, "velocity": 127, "duration": 365}, {"note": 0, "velocity": 0, "duration": 115}, {"note": 76, "velocity": 102, "duration": 308}, {"note": 0, "velocity": 0, "duration": 172}, {"note": 78, "velocity": 117, "duration": 378}, {"note": 0, "velocity": 0, "duration": 102}, {"note": 69, "velocity": 112, "duration": 655}, {"note": 0, "velocity": 0, "duration": 65}, {"note": 69, "velocity": 93, "duration": 255}, {"note": 66, "velocity": 96, "duration": 385}, {"note": 0, "velocity": 0, "duration": 95}, {"note": 64, "velocity": 100, "duration": 1464}, {"note": 0, "velocity": 0, "duration": 1408}, {"note": 66, "velocity": 99, "duration": 382}, {"note": 0, "velocity": 0, "duration": 80}, {"note": 69, "velocity": 100, "duration": 286}, {"note": 0, "velocity": 0, "duration": 203}, {"note": 78, "velocity": 117, "duration": 355}, {"note": 0, "velocity": 0, "duration": 80}, {"note": 76, "velocity": 112, "duration": 427}, {"note": 0, "velocity": 0, "duration": 355}, {"note": 76, "velocity": 107, "duration": 229}, {"note": 69, "velocity": 99, "duration": 410}, {"note": 0, "velocity": 0, "duration": 70}, {"note": 76, "velocity": 99, "duration": 1827}, {"note": 0, "velocity": 0, "duration": 1053}, {"note": 76, "velocity": 100, "duration": 391}, {"note": 0, "velocity": 0, "duration": 89}, {"note": 78, "velocity": 107, "duration": 344}, {"note": 0, "velocity": 0, "duration": 136}, {"note": 81, "velocity": 97, "duration": 343}, {"note": 0, "velocity": 0, "duration": 137}, {"note": 80, "velocity": 122, "duration": 700}, {"note": 0, "velocity": 0, "duration": 260}, {"note": 78, "velocity": 127, "duration": 428}, {"note": 76, "velocity": 117, "duration": 404}, {"note": 0, "velocity": 0, "duration": 76}, {"note": 78, "velocity": 102, "duration": 413}, {"note": 0, "velocity": 0, "duration": 67}, {"note": 69, "velocity": 102, "duration": 474}, {"note": 73, "velocity": 112, "duration": 1129}, {"note": 0, "velocity": 0, "duration": 311}, {"note": 71, "velocity": 99, "duration": 656}, {"note": 0, "velocity": 0, "duration": 304}, {"note": 71, "velocity": 97, "duration": 369}, {"note": 0, "velocity": 0, "duration": 111}, {"note": 73, "velocity": 122, "duration": 719}, {"note": 0, "velocity": 0, "duration": 241}, {"note": 66, "velocity": 127, "duration": 451}, {"note": 69, "velocity": 100, "duration": 1520}, {"note": 0, "velocity": 0, "duration": 1360}, {"note": 81, "velocity": 102, "duration": 635}, {"note": 0, "velocity": 0, "duration": 325}, {"note": 83, "velocity": 112, "duration": 283}, {"note": 0, "velocity": 0, "duration": 197}, {"note": 85, "velocity": 127, "duration": 709}, {"note": 0, "velocity": 0, "duration": 731}, {"note": 85, "velocity": 127, "duration": 324}, {"note": 0, "velocity": 0, "duration": 156}, {"note": 83, "velocity": 100, "duration": 234}, {"note": 0, "velocity": 0, "duration": 246}, {"note": 81, "velocity": 107, "duration": 281}, {"note": 0, "velocity": 0, "duration": 199}, {"note": 83, "velocity": 122, "duration": 863}, {"note": 0, "velocity": 0, "duration": 697}, {"note": 81, "velocity": 127, "duration": 658}, {"note": 0, "velocity": 0, "duration": 182}, {"note": 83, "velocity": 117, "duration": 256}, {"note": 0, "velocity": 0, "duration": 224}, {"note": 80, "velocity": 122, "duration": 256}, {"note": 0, "velocity": 0, "duration": 224}, {"note": 78, "velocity": 117, "duration": 229}, {"note": 0, "velocity": 0, "duration": 251}, {"note": 76, "velocity": 112, "duration": 318}, {"note": 0, "velocity": 0, "duration": 162}, {"note": 78, "velocity": 127, "duration": 1914}, {"note": 0, "velocity": 0, "duration": 966}, {"note": 81, "velocity": 112, "duration": 721}, {"note": 0, "velocity": 0, "duration": 239}, {"note": 83, "velocity": 107, "duration": 299}, {"note": 0, "velocity": 0, "duration": 181}, {"note": 85, "velocity": 127, "duration": 1099}, {"note": 0, "velocity": 0, "duration": 341}, {"note": 85, "velocity": 127, "duration": 320}, {"note": 0, "velocity": 0, "duration": 160}, {"note": 83, "velocity": 107, "duration": 317}, {"note": 0, "velocity": 0, "duration": 163}, {"note": 81, "velocity": 102, "duration": 285}, {"note": 0, "velocity": 0, "duration": 195}, {"note": 78, "velocity": 122, "duration": 998}, {"note": 0, "velocity": 0, "duration": 442}, {"note": 81, "velocity": 127, "duration": 719}, {"note": 0, "velocity": 0, "duration": 241}, {"note": 83, "velocity": 102, "duration": 270}, {"note": 0, "velocity": 0, "duration": 210}, {"note": 80, "velocity": 117, "duration": 461}, {"note": 73, "velocity": 112, "duration": 365}, {"note": 0, "velocity": 0, "duration": 115}, {"note": 78, "velocity": 127, "duration": 433}, {"note": 76, "velocity": 99, "duration": 1841}, {"note": 0, "velocity": 0, "duration": 1039}, {"note": 76, "velocity": 117, "duration": 741}, {"note": 0, "velocity": 0, "duration": 219}, {"note": 78, "velocity": 127, "duration": 355}, {"note": 0, "velocity": 0, "duration": 125}, {"note": 81, "velocity": 102, "duration": 932}, {"note": 0, "velocity": 0, "duration": 508}, {"note": 80, "velocity": 127, "duration": 343}, {"note": 0, "velocity": 0, "duration": 137}, {"note": 78, "velocity": 100, "duration": 308}, {"note": 0, "velocity": 0, "duration": 172}, {"note": 76, "velocity": 107, "duration": 339}, {"note": 0, "velocity": 0, "duration": 141}, {"note": 78, "velocity": 127, "duration": 1223}, {"note": 0, "velocity": 0, "duration": 217}, {"note": 76, "velocity": 117, "duration": 670}, {"note": 0, "velocity": 0, "duration": 290}, {"note": 78, "velocity": 127, "duration": 343}, {"note": 0, "velocity": 0, "duration": 137}, {"note": 78, "velocity": 112, "duration": 318}, {"note": 0, "velocity": 0, "duration": 162}, {"note": 69, "velocity": 100, "duration": 360}, {"note": 0, "velocity": 0, "duration": 120}, {"note": 71, "velocity": 99, "duration": 316}, {"note": 0, "velocity": 0, "duration": 164}, {"note": 73, "velocity": 112, "duration": 2033}, {"note": 0, "velocity": 0, "duration": 847}, {"note": 71, "velocity": 100, "duration": 694}, {"note": 0, "velocity": 0, "duration": 266}, {"note": 73, "velocity": 102, "duration": 362}, {"note": 0, "velocity": 0, "duration": 118}, {"note": 76, "velocity": 100, "duration": 1085}, {"note": 0, "velocity": 0, "duration": 355}, {"note": 78, "velocity": 117, "duration": 317}, {"note": 0, "velocity": 0, "duration": 163}, {"note": 76, "velocity": 96, "duration": 299}, {"note": 0, "velocity": 0, "duration": 181}, {"note": 73, "velocity": 117, "duration": 272}, {"note": 0, "velocity": 0, "duration": 208}, {"note": 71, "velocity": 112, "duration": 1050}, {"note": 0, "velocity": 0, "duration": 390}, {"note": 76, "velocity": 122, "duration": 641}, {"note": 0, "velocity": 0, "duration": 319}, {"note": 78, "velocity": 127, "duration": 331}, {"note": 0, "velocity": 0, "duration": 149}, {"note": 66, "velocity": 127, "duration": 318}, {"note": 0, "velocity": 0, "duration": 162}, {"note": 64, "velocity": 96, "duration": 299}, {"note": 0, "velocity": 0, "duration": 181}, {"note": 66, "velocity": 117, "duration": 251}, {"note": 0, "velocity": 0, "duration": 229}, {"note": 69, "velocity": 127, "duration": 1932}, {"note": 0, "velocity": 0, "duration": 25428}, {"note": 73, "velocity": 127, "duration": 403}, {"note": 0, "velocity": 0, "duration": 77}, {"note": 76, "velocity": 99, "duration": 404}, {"note": 0, "velocity": 0, "duration": 76}, {"note": 78, "velocity": 122, "duration": 352}, {"note": 0, "velocity": 0, "duration": 128}, {"note": 69, "velocity": 96, "duration": 416}, {"note": 0, "velocity": 0, "duration": 64}, {"note": 68, "velocity": 102, "duration": 398}, {"note": 0, "velocity": 0, "duration": 82}, {"note": 66, "velocity": 99, "duration": 433}, {"note": 64, "velocity": 100, "duration": 948}, {"note": 0, "velocity": 0, "duration": 1932}, {"note": 66, "velocity": 102, "duration": 360}, {"note": 0, "velocity": 0, "duration": 120}, {"note": 69, "velocity": 88, "duration": 618}, {"note": 78, "velocity": 112, "duration": 442}, {"note": 76, "velocity": 99, "duration": 674}, {"note": 0, "velocity": 0, "duration": 286}, {"note": 69, "velocity": 99, "duration": 500}, {"note": 76, "velocity": 99, "duration": 1938}, {"note": 0, "velocity": 0, "duration": 942}, {"note": 76, "velocity": 107, "duration": 381}, {"note": 0, "velocity": 0, "duration": 99}, {"note": 78, "velocity": 107, "duration": 355}, {"note": 0, "velocity": 0, "duration": 125}, {"note": 81, "velocity": 100, "duration": 327}, {"note": 0, "velocity": 0, "duration": 153}, {"note": 80, "velocity": 127, "duration": 652}, {"note": 0, "velocity": 0, "duration": 308}, {"note": 78, "velocity": 122, "duration": 270}, {"note": 0, "velocity": 0, "duration": 210}, {"note": 76, "velocity": 112, "duration": 800}, {"note": 0, "velocity": 0, "duration": 160}, {"note": 69, "velocity": 102, "duration": 474}, {"note": 73, "velocity": 127, "duration": 1211}, {"note": 0, "velocity": 0, "duration": 229}, {"note": 71, "velocity": 107, "duration": 645}, {"note": 0, "velocity": 0, "duration": 315}, {"note": 71, "velocity": 99, "duration": 400}, {"note": 0, "velocity": 0, "duration": 80}, {"note": 73, "velocity": 112, "duration": 430}, {"note": 69, "velocity": 95, "duration": 325}, {"note": 0, "velocity": 0, "duration": 155}, {"note": 66, "velocity": 112, "duration": 398}, {"note": 0, "velocity": 0, "duration": 82}, {"note": 71, "velocity": 97, "duration": 1501}, {"note": 0, "velocity": 0, "duration": 1379}, {"note": 73, "velocity": 127, "duration": 365}, {"note": 0, "velocity": 0, "duration": 115}, {"note": 76, "velocity": 102, "duration": 308}, {"note": 0, "velocity": 0, "duration": 172}, {"note": 78, "velocity": 117, "duration": 378}, {"note": 0, "velocity": 0, "duration": 102}, {"note": 69, "velocity": 112, "duration": 655}, {"note": 0, "velocity": 0, "duration": 65}, {"note": 69, "velocity": 93, "duration": 255}, {"note": 66, "velocity": 96, "duration": 385}, {"note": 0, "velocity": 0, "duration": 95}, {"note": 64, "velocity": 100, "duration": 1464}, {"note": 0, "velocity": 0, "duration": 1408}, {"note": 66, "velocity": 99, "duration": 382}, {"note": 0, "velocity": 0, "duration": 80}, {"note": 69, "velocity": 100, "duration": 286}, {"note": 0, "velocity": 0, "duration": 203}, {"note": 78, "velocity": 117, "duration": 355}, {"note": 0, "velocity": 0, "duration": 80}, {"note": 76, "velocity": 112, "duration": 427}, {"note": 0, "velocity": 0, "duration": 355}, {"note": 76, "velocity": 107, "duration": 229}, {"note": 69, "velocity": 99, "duration": 410}, {"note": 0, "velocity": 0, "duration": 70}, {"note": 76, "velocity": 99, "duration": 1827}, {"note": 0, "velocity": 0, "duration": 1053}, {"note": 76, "velocity": 100, "duration": 391}, {"note": 0, "velocity": 0, "duration": 89}, {"note": 78, "velocity": 107, "duration": 344}, {"note": 0, "velocity": 0, "duration": 136}, {"note": 81, "velocity": 97, "duration": 343}, {"note": 0, "velocity": 0, "duration": 137}, {"note": 80, "velocity": 122, "duration": 700}, {"note": 0, "velocity": 0, "duration": 260}, {"note": 78, "velocity": 127, "duration": 428}, {"note": 76, "velocity": 117, "duration": 404}, {"note": 0, "velocity": 0, "duration": 76}, {"note": 78, "velocity": 102, "duration": 413}, {"note": 0, "velocity": 0, "duration": 67}, {"note": 69, "velocity": 102, "duration": 474}, {"note": 73, "velocity": 112, "duration": 1129}, {"note": 0, "velocity": 0, "duration": 311}, {"note": 71, "velocity": 99, "duration": 656}, {"note": 0, "velocity": 0, "duration": 304}, {"note": 71, "velocity": 97, "duration": 369}, {"note": 0, "velocity": 0, "duration": 111}, {"note": 73, "velocity": 122, "duration": 719}, {"note": 0, "velocity": 0, "duration": 241}, {"note": 66, "velocity": 127, "duration": 451}, {"note": 69, "velocity": 100, "duration": 1520}, {"note": 0, "velocity": 0, "duration": 1360}, {"note": 81, "velocity": 102, "duration": 635}, {"note": 0, "velocity": 0, "duration": 325}, {"note": 83, "velocity": 112, "duration": 283}, {"note": 0, "velocity": 0, "duration": 197}, {"note": 85, "velocity": 127, "duration": 709}, {"note": 0, "velocity": 0, "duration": 731}, {"note": 85, "velocity": 127, "duration": 324}, {"note": 0, "velocity": 0, "duration": 156}, {"note": 83, "velocity": 100, "duration": 234}, {"note": 0, "velocity": 0, "duration": 246}, {"note": 81, "velocity": 107, "duration": 281}, {"note": 0, "velocity": 0, "duration": 199}, {"note": 83, "velocity": 122, "duration": 863}, {"note": 0, "velocity": 0, "duration": 697}, {"note": 81, "velocity": 127, "duration": 658}, {"note": 0, "velocity": 0, "duration": 182}, {"note": 83, "velocity": 117, "duration": 256}, {"note": 0, "velocity": 0, "duration": 224}, {"note": 80, "velocity": 122, "duration": 256}, {"note": 0, "velocity": 0, "duration": 224}, {"note": 78, "velocity": 117, "duration": 229}, {"note": 0, "velocity": 0, "duration": 251}, {"note": 76, "velocity": 112, "duration": 318}, {"note": 0, "velocity": 0, "duration": 162}, {"note": 78, "velocity": 127, "duration": 1914}, {"note": 0, "velocity": 0, "duration": 966}, {"note": 81, "velocity": 112, "duration": 721}, {"note": 0, "velocity": 0, "duration": 239}, {"note": 83, "velocity": 107, "duration": 299}, {"note": 0, "velocity": 0, "duration": 181}, {"note": 85, "velocity": 127, "duration": 1099}, {"note": 0, "velocity": 0, "duration": 341}, {"note": 85, "velocity": 127, "duration": 320}, {"note": 0, "velocity": 0, "duration": 160}, {"note": 83, "velocity": 107, "duration": 317}, {"note": 0, "velocity": 0, "duration": 163}, {"note": 81, "velocity": 102, "duration": 285}, {"note": 0, "velocity": 0, "duration": 195}, {"note": 78, "velocity": 122, "duration": 998}, {"note": 0, "velocity": 0, "duration": 442}, {"note": 81, "velocity": 127, "duration": 719}, {"note": 0, "velocity": 0, "duration": 241}, {"note": 83, "velocity": 102, "duration": 270}, {"note": 0, "velocity": 0, "duration": 210}, {"note": 80, "velocity": 117, "duration": 461}, {"note": 73, "velocity": 112, "duration": 365}, {"note": 0, "velocity": 0, "duration": 115}, {"note": 78, "velocity": 127, "duration": 433}, {"note": 76, "velocity": 99, "duration": 1841}, {"note": 0, "velocity": 0, "duration": 1039}, {"note": 76, "velocity": 117, "duration": 741}, {"note": 0, "velocity": 0, "duration": 219}, {"note": 78, "velocity": 127, "duration": 355}, {"note": 0, "velocity": 0, "duration": 125}, {"note": 81, "velocity": 102, "duration": 932}, {"note": 0, "velocity": 0, "duration": 508}, {"note": 80, "velocity": 127, "duration": 343}, {"note": 0, "velocity": 0, "duration": 137}, {"note": 78, "velocity": 100, "duration": 308}, {"note": 0, "velocity": 0, "duration": 172}, {"note": 76, "velocity": 107, "duration": 339}, {"note": 0, "velocity": 0, "duration": 141}, {"note": 78, "velocity": 127, "duration": 1223}, {"note": 0, "velocity": 0, "duration": 217}, {"note": 76, "velocity": 117, "duration": 670}, {"note": 0, "velocity": 0, "duration": 290}, {"note": 78, "velocity": 127, "duration": 343}, {"note": 0, "velocity": 0, "duration": 137}, {"note": 78, "velocity": 112, "duration": 318}, {"note": 0, "velocity": 0, "duration": 162}, {"note": 69, "velocity": 100, "duration": 360}, {"note": 0, "velocity": 0, "duration": 120}, {"note": 71, "velocity": 99, "duration": 316}, {"note": 0, "velocity": 0, "duration": 164}, {"note": 73, "velocity": 112, "duration": 2033}, {"note": 0, "velocity": 0, "duration": 847}, {"note": 71, "velocity": 100, "duration": 694}, {"note": 0, "velocity": 0, "duration": 266}, {"note": 73, "velocity": 102, "duration": 362}, {"note": 0, "velocity": 0, "duration": 118}, {"note": 76, "velocity": 100, "duration": 1085}, {"note": 0, "velocity": 0, "duration": 355}, {"note": 78, "velocity": 117, "duration": 317}, {"note": 0, "velocity": 0, "duration": 163}, {"note": 76, "velocity": 96, "duration": 299}, {"note": 0, "velocity": 0, "duration": 181}, {"note": 73, "velocity": 117, "duration": 272}, {"note": 0, "velocity": 0, "duration": 208}, {"note": 71, "velocity": 112, "duration": 1050}, {"note": 0, "velocity": 0, "duration": 390}, {"note": 76, "velocity": 122, "duration": 641}, {"note": 0, "velocity": 0, "duration": 319}, {"note": 78, "velocity": 127, "duration": 331}, {"note": 0, "velocity": 0, "duration": 149}, {"note": 66, "velocity": 127, "duration": 318}, {"note": 0, "velocity": 0, "duration": 162}, {"note": 64, "velocity": 96, "duration": 299}, {"note": 0, "velocity": 0, "duration": 181}, {"note": 66, "velocity": 117, "duration": 251}, {"note": 0, "velocity": 0, "duration": 229}, {"note": 69, "velocity": 127, "duration": 1932}, {"note": 0, "velocity": 0, "duration": 948}, {"note": 73, "velocity": 127, "duration": 403}, {"note": 0, "velocity": 0, "duration": 77}, {"note": 76, "velocity": 99, "duration": 404}, {"note": 0, "velocity": 0, "duration": 76}, {"note": 78, "velocity": 122, "duration": 352}, {"note": 0, "velocity": 0, "duration": 128}, {"note": 69, "velocity": 96, "duration": 416}, {"note": 0, "velocity": 0, "duration": 64}, {"note": 68, "velocity": 102, "duration": 398}, {"note": 0, "velocity": 0, "duration": 82}, {"note": 66, "velocity": 99, "duration": 433}, {"note": 64, "velocity": 100, "duration": 948}, {"note": 0, "velocity": 0, "duration": 3372}, {"note": 66, "velocity": 112, "duration": 472}, {"note": 69, "velocity": 97, "duration": 214}, {"note": 0, "velocity": 0, "duration": 266}, {"note": 78, "velocity": 112, "duration": 385}, {"note": 0, "velocity": 0, "duration": 95}, {"note": 76, "velocity": 117, "duration": 664}, {"note": 0, "velocity": 0, "duration": 296}, {"note": 69, "velocity": 107, "duration": 425}, {"note": 76, "velocity": 100, "duration": 2635}, {"note": 0, "velocity": 0, "duration": 1685}, {"note": 76, "velocity": 102, "duration": 394}, {"note": 0, "velocity": 0, "duration": 86}, {"note": 78, "velocity": 117, "duration": 304}, {"note": 0, "velocity": 0, "duration": 176}, {"note": 81, "velocity": 99, "duration": 317}, {"note": 0, "velocity": 0, "duration": 163}, {"note": 80, "velocity": 127, "duration": 899}, {"note": 0, "velocity": 0, "duration": 61}, {"note": 78, "velocity": 127, "duration": 328}, {"note": 0, "velocity": 0, "duration": 152}, {"note": 76, "velocity": 99, "duration": 302}, {"note": 0, "velocity": 0, "duration": 178}, {"note": 78, "velocity": 122, "duration": 331}, {"note": 0, "velocity": 0, "duration": 149}, {"note": 69, "velocity": 99, "duration": 407}, {"note": 0, "velocity": 0, "duration": 73}, {"note": 73, "velocity": 122, "duration": 1210}, {"note": 0, "velocity": 0, "duration": 230}, {"note": 76, "velocity": 112, "duration": 339}, {"note": 0, "velocity": 0, "duration": 141}, {"note": 78, "velocity": 122, "duration": 362}, {"note": 0, "velocity": 0, "duration": 118}, {"note": 81, "velocity": 117, "duration": 264}, {"note": 0, "velocity": 0, "duration": 216}, {"note": 83, "velocity": 127, "duration": 5196}, {"note": 0, "velocity": 0, "duration": 564}, {"note": 81, "velocity": 112, "duration": 375}, {"note": 0, "velocity": 0, "duration": 105}, {"note": 83, "velocity": 97, "duration": 405}, {"note": 0, "velocity": 0, "duration": 75}, {"note": 85, "velocity": 122, "duration": 316}, {"note": 0, "velocity": 0, "duration": 164}, {"note": 78, "velocity": 127, "duration": 354}, {"note": 0, "velocity": 0, "duration": 126}, {"note": 76, "velocity": 100, "duration": 362}, {"note": 0, "velocity": 0, "duration": 118}, {"note": 78, "velocity": 122, "duration": 318}, {"note": 0, "velocity": 0, "duration": 162}, {"note": 81, "velocity": 122, "duration": 2943}]]