[[{"note": 74, "velocity": 102, "duration": 160}, {"note": 0, "velocity": 0, "duration": 80}, {"note": 81, "velocity": 112, "duration": 48}, {"note": 0, "velocity": 0, "duration": 72}, {"note": 81, "velocity": 95, "duration": 44}, {"note": 0, "velocity": 0, "duration": 76}, {"note": 81, "velocity": 107, "duration": 164}, {"note": 0, "velocity": 0, "duration": 76}, {"note": 79, "velocity": 117, "duration": 185}, {"note": 81, "velocity": 127, "duration": 107}, {"note": 79, "velocity": 90, "duration": 107}, {"note": 77, "velocity": 97, "duration": 439}, {"note": 0, "velocity": 0, "duration": 281}, {"note": 79, "velocity": 100, "duration": 166}, {"note": 0, "velocity": 0, "duration": 74}, {"note": 79, "velocity": 112, "duration": 218}, {"note": 76, "velocity": 97, "duration": 156}, {"note": 0, "velocity": 0, "duration": 84}, {"note": 74, "velocity": 97, "duration": 602}, {"note": 0, "velocity": 0, "duration": 358}, {"note": 74, "velocity": 107, "duration": 162}, {"note": 0, "velocity": 0, "duration": 78}, {"note": 86, "velocity": 112, "duration": 46}, {"note": 0, "velocity": 0, "duration": 74}, {"note": 86, "velocity": 100, "duration": 51}, {"note": 0, "velocity": 0, "duration": 69}, {"note": 86, "velocity": 117, "duration": 115}, {"note": 0, "velocity": 0, "duration": 125}, {"note": 84, "velocity": 102, "duration": 52}, {"note": 0, "velocity": 0, "duration": 68}, {"note": 84, "velocity": 100, "duration": 54}, {"note": 0, "velocity": 0, "duration": 66}, {"note": 81, "velocity": 100, "duration": 287}, {"note": 81, "velocity": 112, "duration": 47}, {"note": 0, "velocity": 0, "duration": 73}, {"note": 79, "velocity": 99, "duration": 104}, {"note": 77, "velocity": 96, "duration": 187}, {"note": 74, "velocity": 102, "duration": 180}, {"note": 79, "velocity": 99, "duration": 240}, {"note": 81, "velocity": 90, "duration": 667}, {"note": 0, "velocity": 0, "duration": 1013}, {"note": 81, "velocity": 107, "duration": 138}, {"note": 0, "velocity": 0, "duration": 102}, {"note": 86, "velocity": 122, "duration": 45}, {"note": 0, "velocity": 0, "duration": 75}, {"note": 86, "velocity": 99, "duration": 47}, {"note": 86, "velocity": 127, "duration": 175}, {"note": 0, "velocity": 0, "duration": 65}, {"note": 84, "velocity": 117, "duration": 161}, {"note": 0, "velocity": 0, "duration": 79}, {"note": 86, "velocity": 127, "duration": 77}, {"note": 84, "velocity": 122, "duration": 87}, {"note": 81, "velocity": 112, "duration": 205}, {"note": 0, "velocity": 0, "duration": 515}, {"note": 84, "velocity": 127, "duration": 149}, {"note": 0, "velocity": 0, "duration": 91}, {"note": 81, "velocity": 127, "duration": 196}, {"note": 0, "velocity": 0, "duration": 284}, {"note": 81, "velocity": 127, "duration": 75}, {"note": 79, "velocity": 93, "duration": 66}, {"note": 81, "velocity": 122, "duration": 391}, {"note": 79, "velocity": 117, "duration": 515}, {"note": 0, "velocity": 0, "duration": 205}, {"note": 79, "velocity": 107, "duration": 148}, {"note": 0, "velocity": 0, "duration": 92}, {"note": 79, "velocity": 99, "duration": 47}, {"note": 0, "velocity": 0, "duration": 73}, {"note": 79, "velocity": 86, "duration": 57}, {"note": 0, "velocity": 0, "duration": 63}, {"note": 79, "velocity": 97, "duration": 155}, {"note": 0, "velocity": 0, "duration": 85}, {"note": 79, "velocity": 107, "duration": 102}, {"note": 81, "velocity": 100, "duration": 121}, {"note": 84, "velocity": 127, "duration": 237}, {"note": 84, "velocity": 117, "duration": 196}, {"note": 77, "velocity": 102, "duration": 194}, {"note": 79, "velocity": 112, "duration": 117}, {"note": 77, "velocity": 99, "duration": 112}, {"note": 74, "velocity": 117, "duration": 910}, {"note": 0, "velocity": 0, "duration": 960}, {"note": 74, "velocity": 102, "duration": 160}, {"note": 0, "velocity": 0, "duration": 80}, {"note": 81, "velocity": 112, "duration": 48}, {"note": 0, "velocity": 0, "duration": 72}, {"note": 81, "velocity": 95, "duration": 44}, {"note": 0, "velocity": 0, "duration": 76}, {"note": 81, "velocity": 107, "duration": 164}, {"note": 0, "velocity": 0, "duration": 76}, {"note": 79, "velocity": 117, "duration": 185}, {"note": 81, "velocity": 127, "duration": 107}, {"note": 79, "velocity": 90, "duration": 107}, {"note": 77, "velocity": 97, "duration": 439}, {"note": 79, "velocity": 100, "duration": 166}, {"note": 0, "velocity": 0, "duration": 74}, {"note": 79, "velocity": 112, "duration": 458}, {"note": 76, "velocity": 97, "duration": 156}, {"note": 0, "velocity": 0, "duration": 84}, {"note": 74, "velocity": 97, "duration": 602}, {"note": 0, "velocity": 0, "duration": 358}, {"note": 74, "velocity": 107, "duration": 162}, {"note": 0, "velocity": 0, "duration": 78}, {"note": 86, "velocity": 112, "duration": 46}, {"note": 0, "velocity": 0, "duration": 74}, {"note": 86, "velocity": 100, "duration": 51}, {"note": 0, "velocity": 0, "duration": 69}, {"note": 86, "velocity": 117, "duration": 115}, {"note": 0, "velocity": 0, "duration": 125}, {"note": 84, "velocity": 102, "duration": 52}, {"note": 0, "velocity": 0, "duration": 68}, {"note": 84, "velocity": 100, "duration": 54}, {"note": 0, "velocity": 0, "duration": 66}, {"note": 81, "velocity": 100, "duration": 287}, {"note": 81, "velocity": 112, "duration": 47}, {"note": 0, "velocity": 0, "duration": 73}, {"note": 79, "velocity": 99, "duration": 104}, {"note": 77, "velocity": 96, "duration": 187}, {"note": 74, "velocity": 102, "duration": 180}, {"note": 79, "velocity": 99, "duration": 240}, {"note": 81, "velocity": 90, "duration": 1127}, {"note": 0, "velocity": 0, "duration": 553}, {"note": 81, "velocity": 107, "duration": 138}, {"note": 0, "velocity": 0, "duration": 102}, {"note": 86, "velocity": 122, "duration": 45}, {"note": 0, "velocity": 0, "duration": 75}, {"note": 86, "velocity": 99, "duration": 47}, {"note": 0, "velocity": 0, "duration": 73}, {"note": 86, "velocity": 127, "duration": 175}, {"note": 0, "velocity": 0, "duration": 65}, {"note": 84, "velocity": 117, "duration": 161}, {"note": 86, "velocity": 127, "duration": 77}, {"note": 84, "velocity": 122, "duration": 87}, {"note": 81, "velocity": 112, "duration": 205}, {"note": 0, "velocity": 0, "duration": 515}, {"note": 84, "velocity": 127, "duration": 149}, {"note": 0, "velocity": 0, "duration": 91}, {"note": 81, "velocity": 127, "duration": 196}, {"note": 0, "velocity": 0, "duration": 284}, {"note": 81, "velocity": 127, "duration": 75}, {"note": 79, "velocity": 93, "duration": 66}, {"note": 81, "velocity": 122, "duration": 391}, {"note": 79, "velocity": 117, "duration": 426}, {"note": 0, "velocity": 0, "duration": 205}, {"note": 79, "velocity": 107, "duration": 148}, {"note": 0, "velocity": 0, "duration": 92}, {"note": 79, "velocity": 99, "duration": 47}, {"note": 0, "velocity": 0, "duration": 73}, {"note": 79, "velocity": 86, "duration": 57}, {"note": 0, "velocity": 0, "duration": 63}, {"note": 79, "velocity": 97, "duration": 155}, {"note": 0, "velocity": 0, "duration": 85}, {"note": 79, "velocity": 107, "duration": 102}, {"note": 81, "velocity": 100, "duration": 121}, {"note": 84, "velocity": 127, "duration": 237}, {"note": 84, "velocity": 117, "duration": 196}, {"note": 77, "velocity": 102, "duration": 194}, {"note": 79, "velocity": 112, "duration": 117}, {"note": 77, "velocity": 99, "duration": 112}, {"note": 74, "velocity": 117, "duration": 910}, {"note": 0, "velocity": 0, "duration": 1010}, {"note": 81, "velocity": 100, "duration": 177}, {"note": 0, "velocity": 0, "duration": 63}, {"note": 86, "velocity": 127, "duration": 53}, {"note": 0, "velocity": 0, "duration": 67}, {"note": 86, "velocity": 97, "duration": 51}, {"note": 0, "velocity": 0, "duration": 69}, {"note": 86, "velocity": 127, "duration": 174}, {"note": 0, "velocity": 0, "duration": 66}, {"note": 84, "velocity": 127, "duration": 165}, {"note": 0, "velocity": 0, "duration": 75}, {"note": 86, "velocity": 127, "duration": 364}, {"note": 0, "velocity": 0, "duration": 356}, {"note": 81, "velocity": 97, "duration": 166}, {"note": 0, "velocity": 0, "duration": 74}, {"note": 89, "velocity": 112, "duration": 156}, {"note": 0, "velocity": 0, "duration": 84}, {"note": 89, "velocity": 117, "duration": 47}, {"note": 0, "velocity": 0, "duration": 73}, {"note": 89, "velocity": 89, "duration": 21}, {"note": 0, "velocity": 0, "duration": 99}, {"note": 86, "velocity": 117, "duration": 173}, {"note": 84, "velocity": 107, "duration": 109}, {"note": 81, "velocity": 96, "duration": 115}, {"note": 84, "velocity": 117, "duration": 103}, {"note": 86, "velocity": 122, "duration": 491}, {"note": 0, "velocity": 0, "duration": 469}, {"note": 81, "velocity": 112, "duration": 124}, {"note": 0, "velocity": 0, "duration": 116}, {"note": 86, "velocity": 117, "duration": 44}, {"note": 0, "velocity": 0, "duration": 76}, {"note": 86, "velocity": 97, "duration": 41}, {"note": 0, "velocity": 0, "duration": 79}, {"note": 86, "velocity": 127, "duration": 129}, {"note": 0, "velocity": 0, "duration": 111}, {"note": 84, "velocity": 117, "duration": 44}, {"note": 0, "velocity": 0, "duration": 76}, {"note": 84, "velocity": 112, "duration": 56}, {"note": 86, "velocity": 127, "duration": 101}, {"note": 0, "velocity": 0, "duration": 139}, {"note": 86, "velocity": 127, "duration": 584}, {"note": 0, "velocity": 0, "duration": 136}, {"note": 86, "velocity": 127, "duration": 184}, {"note": 86, "velocity": 117, "duration": 316}, {"note": 0, "velocity": 0, "duration": 164}, {"note": 79, "velocity": 107, "duration": 164}, {"note": 0, "velocity": 0, "duration": 76}, {"note": 81, "velocity": 122, "duration": 662}, {"note": 0, "velocity": 0, "duration": 298}, {"note": 81, "velocity": 102, "duration": 146}, {"note": 0, "velocity": 0, "duration": 94}, {"note": 86, "velocity": 127, "duration": 46}, {"note": 0, "velocity": 0, "duration": 74}, {"note": 86, "velocity": 99, "duration": 51}, {"note": 0, "velocity": 0, "duration": 69}, {"note": 86, "velocity": 127, "duration": 160}, {"note": 0, "velocity": 0, "duration": 80}, {"note": 84, "velocity": 127, "duration": 155}, {"note": 0, "velocity": 0, "duration": 85}, {"note": 86, "velocity": 127, "duration": 100}, {"note": 84, "velocity": 102, "duration": 85}, {"note": 81, "velocity": 99, "duration": 419}, {"note": 0, "velocity": 0, "duration": 61}, {"note": 81, "velocity": 107, "duration": 165}, {"note": 0, "velocity": 0, "duration": 75}, {"note": 84, "velocity": 117, "duration": 212}, {"note": 81, "velocity": 107, "duration": 371}, {"note": 0, "velocity": 0, "duration": 109}, {"note": 81, "velocity": 102, "duration": 108}, {"note": 79, "velocity": 97, "duration": 118}, {"note": 77, "velocity": 107, "duration": 619}, {"note": 0, "velocity": 0, "duration": 101}, {"note": 74, "velocity": 107, "duration": 55}, {"note": 0, "velocity": 0, "duration": 65}, {"note": 74, "velocity": 92, "duration": 85}, {"note": 79, "velocity": 127, "duration": 237}, {"note": 0, "velocity": 0, "duration": 123}, {"note": 81, "velocity": 112, "duration": 100}, {"note": 79, "velocity": 127, "duration": 239}, {"note": 81, "velocity": 117, "duration": 187}, {"note": 84, "velocity": 122, "duration": 193}, {"note": 81, "velocity": 112, "duration": 196}, {"note": 0, "velocity": 0, "duration": 284}, {"note": 81, "velocity": 112, "duration": 197}, {"note": 84, "velocity": 117, "duration": 156}, {"note": 0, "velocity": 0, "duration": 84}, {"note": 84, "velocity": 112, "duration": 46}, {"note": 0, "velocity": 0, "duration": 74}, {"note": 84, "velocity": 122, "duration": 104}, {"note": 0, "velocity": 0, "duration": 136}, {"note": 81, "velocity": 100, "duration": 72}, {"note": 84, "velocity": 112, "duration": 106}, {"note": 86, "velocity": 122, "duration": 916}, {"note": 81, "velocity": 100, "duration": 177}, {"note": 0, "velocity": 0, "duration": 63}, {"note": 86, "velocity": 127, "duration": 53}, {"note": 0, "velocity": 0, "duration": 67}, {"note": 86, "velocity": 97, "duration": 51}, {"note": 0, "velocity": 0, "duration": 69}, {"note": 86, "velocity": 127, "duration": 174}, {"note": 0, "velocity": 0, "duration": 66}, {"note": 84, "velocity": 127, "duration": 165}, {"note": 0, "velocity": 0, "duration": 75}, {"note": 86, "velocity": 127, "duration": 364}, {"note": 0, "velocity": 0, "duration": 356}, {"note": 81, "velocity": 97, "duration": 166}, {"note": 0, "velocity": 0, "duration": 74}, {"note": 89, "velocity": 112, "duration": 156}, {"note": 0, "velocity": 0, "duration": 84}, {"note": 89, "velocity": 117, "duration": 47}, {"note": 0, "velocity": 0, "duration": 73}, {"note": 89, "velocity": 89, "duration": 21}, {"note": 0, "velocity": 0, "duration": 99}, {"note": 86, "velocity": 117, "duration": 173}, {"note": 84, "velocity": 107, "duration": 109}, {"note": 81, "velocity": 96, "duration": 115}, {"note": 84, "velocity": 117, "duration": 103}, {"note": 86, "velocity": 122, "duration": 840}, {"note": 0, "velocity": 0, "duration": 120}, {"note": 81, "velocity": 112, "duration": 124}, {"note": 0, "velocity": 0, "duration": 116}, {"note": 86, "velocity": 117, "duration": 44}, {"note": 0, "velocity": 0, "duration": 76}, {"note": 86, "velocity": 97, "duration": 41}, {"note": 0, "velocity": 0, "duration": 79}, {"note": 86, "velocity": 127, "duration": 129}, {"note": 0, "velocity": 0, "duration": 111}, {"note": 84, "velocity": 117, "duration": 44}, {"note": 0, "velocity": 0, "duration": 76}, {"note": 84, "velocity": 112, "duration": 56}, {"note": 0, "velocity": 0, "duration": 64}, {"note": 86, "velocity": 127, "duration": 101}, {"note": 0, "velocity": 0, "duration": 139}, {"note": 86, "velocity": 127, "duration": 584}, {"note": 0, "velocity": 0, "duration": 136}, {"note": 86, "velocity": 127, "duration": 184}, {"note": 86, "velocity": 117, "duration": 141}, {"note": 0, "velocity": 0, "duration": 99}, {"note": 86, "velocity": 127, "duration": 170}, {"note": 0, "velocity": 0, "duration": 70}, {"note": 79, "velocity": 107, "duration": 164}, {"note": 0, "velocity": 0, "duration": 76}, {"note": 81, "velocity": 122, "duration": 662}, {"note": 0, "velocity": 0, "duration": 298}, {"note": 81, "velocity": 102, "duration": 146}, {"note": 0, "velocity": 0, "duration": 94}, {"note": 86, "velocity": 127, "duration": 46}, {"note": 0, "velocity": 0, "duration": 74}, {"note": 86, "velocity": 99, "duration": 51}, {"note": 86, "velocity": 127, "duration": 160}, {"note": 0, "velocity": 0, "duration": 80}, {"note": 84, "velocity": 127, "duration": 155}, {"note": 0, "velocity": 0, "duration": 85}, {"note": 86, "velocity": 127, "duration": 100}, {"note": 84, "velocity": 102, "duration": 85}, {"note": 81, "velocity": 99, "duration": 419}, {"note": 0, "velocity": 0, "duration": 61}, {"note": 81, "velocity": 107, "duration": 165}, {"note": 0, "velocity": 0, "duration": 75}, {"note": 84, "velocity": 117, "duration": 212}, {"note": 81, "velocity": 107, "duration": 371}, {"note": 0, "velocity": 0, "duration": 109}, {"note": 81, "velocity": 102, "duration": 108}, {"note": 79, "velocity": 97, "duration": 118}, {"note": 77, "velocity": 107, "duration": 619}, {"note": 0, "velocity": 0, "duration": 101}, {"note": 74, "velocity": 107, "duration": 55}, {"note": 0, "velocity": 0, "duration": 65}, {"note": 74, "velocity": 92, "duration": 85}, {"note": 79, "velocity": 127, "duration": 237}, {"note": 0, "velocity": 0, "duration": 123}, {"note": 81, "velocity": 112, "duration": 100}, {"note": 79, "velocity": 127, "duration": 239}, {"note": 81, "velocity": 117, "duration": 187}, {"note": 84, "velocity": 122, "duration": 193}, {"note": 81, "velocity": 112, "duration": 196}, {"note": 0, "velocity": 0, "duration": 284}, {"note": 81, "velocity": 112, "duration": 197}, {"note": 84, "velocity": 122, "duration": 378}, {"note": 0, "velocity": 0, "duration": 102}, {"note": 81, "velocity": 122, "duration": 219}, {"note": 84, "velocity": 127, "duration": 183}, {"note": 86, "velocity": 127, "duration": 830}, {"note": 0, "velocity": 0, "duration": 130}, {"note": 79, "velocity": 112, "duration": 162}, {"note": 0, "velocity": 0, "duration": 78}, {"note": 79, "velocity": 95, "duration": 49}, {"note": 0, "velocity": 0, "duration": 71}, {"note": 79, "velocity": 95, "duration": 51}, {"note": 0, "velocity": 0, "duration": 69}, {"note": 79, "velocity": 102, "duration": 209}, {"note": 81, "velocity": 122, "duration": 199}, {"note": 84, "velocity": 127, "duration": 173}, {"note": 0, "velocity": 0, "duration": 67}, {"note": 84, "velocity": 127, "duration": 458}, {"note": 77, "velocity": 122, "duration": 126}, {"note": 79, "velocity": 88, "duration": 104}, {"note": 74, "velocity": 102, "duration": 1171}, {"note": 0, "velocity": 0, "duration": 960}, {"note": 74, "velocity": 102, "duration": 160}, {"note": 0, "velocity": 0, "duration": 80}, {"note": 81, "velocity": 112, "duration": 48}, {"note": 0, "velocity": 0, "duration": 72}, {"note": 81, "velocity": 95, "duration": 44}, {"note": 0, "velocity": 0, "duration": 76}, {"note": 81, "velocity": 107, "duration": 164}, {"note": 0, "velocity": 0, "duration": 76}, {"note": 79, "velocity": 117, "duration": 185}, {"note": 81, "velocity": 127, "duration": 107}, {"note": 79, "velocity": 90, "duration": 107}, {"note": 77, "velocity": 97, "duration": 439}, {"note": 0, "velocity": 0, "duration": 281}, {"note": 79, "velocity": 100, "duration": 166}, {"note": 0, "velocity": 0, "duration": 74}, {"note": 79, "velocity": 112, "duration": 458}, {"note": 76, "velocity": 97, "duration": 156}, {"note": 0, "velocity": 0, "duration": 84}, {"note": 74, "velocity": 97, "duration": 602}, {"note": 0, "velocity": 0, "duration": 358}, {"note": 74, "velocity": 107, "duration": 162}, {"note": 0, "velocity": 0, "duration": 78}, {"note": 86, "velocity": 112, "duration": 46}, {"note": 0, "velocity": 0, "duration": 74}, {"note": 86, "velocity": 100, "duration": 51}, {"note": 0, "velocity": 0, "duration": 69}, {"note": 86, "velocity": 117, "duration": 115}, {"note": 0, "velocity": 0, "duration": 125}, {"note": 84, "velocity": 102, "duration": 52}, {"note": 0, "velocity": 0, "duration": 68}, {"note": 84, "velocity": 100, "duration": 54}, {"note": 0, "velocity": 0, "duration": 66}, {"note": 81, "velocity": 100, "duration": 287}, {"note": 81, "velocity": 112, "duration": 47}, {"note": 0, "velocity": 0, "duration": 73}, {"note": 79, "velocity": 99, "duration": 104}, {"note": 77, "velocity": 96, "duration": 187}, {"note": 74, "velocity": 102, "duration": 180}, {"note": 79, "velocity": 99, "duration": 240}, {"note": 81, "velocity": 90, "duration": 1127}, {"note": 0, "velocity": 0, "duration": 553}, {"note": 81, "velocity": 107, "duration": 138}, {"note": 0, "velocity": 0, "duration": 102}, {"note": 86, "velocity": 122, "duration": 45}, {"note": 0, "velocity": 0, "duration": 75}, {"note": 86, "velocity": 99, "duration": 47}, {"note": 0, "velocity": 0, "duration": 73}, {"note": 86, "velocity": 127, "duration": 175}, {"note": 0, "velocity": 0, "duration": 65}, {"note": 84, "velocity": 117, "duration": 161}, {"note": 86, "velocity": 127, "duration": 77}, {"note": 84, "velocity": 122, "duration": 87}, {"note": 81, "velocity": 112, "duration": 205}, {"note": 0, "velocity": 0, "duration": 515}, {"note": 84, "velocity": 127, "duration": 149}, {"note": 0, "velocity": 0, "duration": 91}, {"note": 81, "velocity": 127, "duration": 196}, {"note": 0, "velocity": 0, "duration": 284}, {"note": 81, "velocity": 127, "duration": 75}, {"note": 79, "velocity": 93, "duration": 66}, {"note": 81, "velocity": 122, "duration": 391}, {"note": 79, "velocity": 117, "duration": 515}, {"note": 0, "velocity": 0, "duration": 205}, {"note": 79, "velocity": 107, "duration": 148}, {"note": 0, "velocity": 0, "duration": 92}, {"note": 79, "velocity": 99, "duration": 47}, {"note": 0, "velocity": 0, "duration": 73}, {"note": 79, "velocity": 86, "duration": 57}, {"note": 0, "velocity": 0, "duration": 63}, {"note": 79, "velocity": 97, "duration": 155}, {"note": 0, "velocity": 0, "duration": 85}, {"note": 79, "velocity": 107, "duration": 102}, {"note": 81, "velocity": 100, "duration": 121}, {"note": 84, "velocity": 127, "duration": 237}, {"note": 84, "velocity": 117, "duration": 196}, {"note": 77, "velocity": 102, "duration": 194}, {"note": 79, "velocity": 112, "duration": 117}, {"note": 77, "velocity": 99, "duration": 112}, {"note": 74, "velocity": 117, "duration": 910}, {"note": 0, "velocity": 0, "duration": 1010}, {"note": 81, "velocity": 100, "duration": 177}, {"note": 0, "velocity": 0, "duration": 63}, {"note": 86, "velocity": 127, "duration": 53}, {"note": 0, "velocity": 0, "duration": 67}, {"note": 86, "velocity": 97, "duration": 51}, {"note": 0, "velocity": 0, "duration": 69}, {"note": 86, "velocity": 127, "duration": 174}, {"note": 0, "velocity": 0, "duration": 66}, {"note": 84, "velocity": 127, "duration": 165}, {"note": 86, "velocity": 127, "duration": 364}, {"note": 0, "velocity": 0, "duration": 356}, {"note": 81, "velocity": 97, "duration": 166}, {"note": 0, "velocity": 0, "duration": 74}, {"note": 89, "velocity": 112, "duration": 156}, {"note": 0, "velocity": 0, "duration": 84}, {"note": 89, "velocity": 117, "duration": 47}, {"note": 0, "velocity": 0, "duration": 73}, {"note": 89, "velocity": 89, "duration": 21}, {"note": 0, "velocity": 0, "duration": 99}, {"note": 86, "velocity": 117, "duration": 173}, {"note": 84, "velocity": 107, "duration": 109}, {"note": 81, "velocity": 96, "duration": 115}, {"note": 84, "velocity": 117, "duration": 103}, {"note": 86, "velocity": 122, "duration": 491}, {"note": 0, "velocity": 0, "duration": 469}, {"note": 81, "velocity": 112, "duration": 124}, {"note": 0, "velocity": 0, "duration": 116}, {"note": 86, "velocity": 117, "duration": 44}, {"note": 0, "velocity": 0, "duration": 76}, {"note": 86, "velocity": 97, "duration": 41}, {"note": 0, "velocity": 0, "duration": 79}, {"note": 86, "velocity": 127, "duration": 129}, {"note": 0, "velocity": 0, "duration": 111}, {"note": 84, "velocity": 117, "duration": 44}, {"note": 0, "velocity": 0, "duration": 76}, {"note": 84, "velocity": 112, "duration": 56}, {"note": 0, "velocity": 0, "duration": 64}, {"note": 86, "velocity": 127, "duration": 101}, {"note": 0, "velocity": 0, "duration": 139}, {"note": 86, "velocity": 127, "duration": 584}, {"note": 0, "velocity": 0, "duration": 136}, {"note": 86, "velocity": 127, "duration": 184}, {"note": 86, "velocity": 117, "duration": 316}, {"note": 0, "velocity": 0, "duration": 164}, {"note": 79, "velocity": 107, "duration": 164}, {"note": 0, "velocity": 0, "duration": 76}, {"note": 81, "velocity": 122, "duration": 662}, {"note": 0, "velocity": 0, "duration": 298}, {"note": 81, "velocity": 102, "duration": 146}, {"note": 0, "velocity": 0, "duration": 94}, {"note": 86, "velocity": 127, "duration": 46}, {"note": 0, "velocity": 0, "duration": 74}, {"note": 86, "velocity": 99, "duration": 51}, {"note": 0, "velocity": 0, "duration": 69}, {"note": 86, "velocity": 127, "duration": 160}, {"note": 0, "velocity": 0, "duration": 80}, {"note": 84, "velocity": 127, "duration": 155}, {"note": 0, "velocity": 0, "duration": 85}, {"note": 86, "velocity": 127, "duration": 100}, {"note": 84, "velocity": 102, "duration": 85}, {"note": 81, "velocity": 99, "duration": 179}, {"note": 0, "velocity": 0, "duration": 61}, {"note": 81, "velocity": 107, "duration": 165}, {"note": 0, "velocity": 0, "duration": 75}, {"note": 84, "velocity": 117, "duration": 212}, {"note": 81, "velocity": 107, "duration": 371}, {"note": 0, "velocity": 0, "duration": 109}, {"note": 81, "velocity": 102, "duration": 108}, {"note": 79, "velocity": 97, "duration": 118}, {"note": 77, "velocity": 107, "duration": 619}, {"note": 0, "velocity": 0, "duration": 101}, {"note": 74, "velocity": 107, "duration": 55}, {"note": 0, "velocity": 0, "duration": 65}, {"note": 74, "velocity": 92, "duration": 85}, {"note": 79, "velocity": 127, "duration": 237}, {"note": 0, "velocity": 0, "duration": 123}, {"note": 81, "velocity": 112, "duration": 100}, {"note": 79, "velocity": 127, "duration": 239}, {"note": 81, "velocity": 117, "duration": 187}, {"note": 84, "velocity": 122, "duration": 193}, {"note": 81, "velocity": 112, "duration": 196}, {"note": 0, "velocity": 0, "duration": 240}, {"note": 81, "velocity": 112, "duration": 197}, {"note": 84, "velocity": 117, "duration": 156}, {"note": 0, "velocity": 0, "duration": 84}, {"note": 84, "velocity": 112, "duration": 46}, {"note": 0, "velocity": 0, "duration": 74}, {"note": 84, "velocity": 122, "duration": 224}, {"note": 0, "velocity": 0, "duration": 136}, {"note": 81, "velocity": 100, "duration": 72}, {"note": 84, "velocity": 112, "duration": 106}, {"note": 86, "velocity": 122, "duration": 916}, {"note": 81, "velocity": 100, "duration": 177}, {"note": 0, "velocity": 0, "duration": 63}, {"note": 86, "velocity": 127, "duration": 53}, {"note": 0, "velocity": 0, "duration": 67}, {"note": 86, "velocity": 97, "duration": 51}, {"note": 0, "velocity": 0, "duration": 69}, {"note": 86, "velocity": 127, "duration": 174}, {"note": 0, "velocity": 0, "duration": 66}, {"note": 84, "velocity": 127, "duration": 165}, {"note": 0, "velocity": 0, "duration": 75}, {"note": 86, "velocity": 127, "duration": 364}, {"note": 0, "velocity": 0, "duration": 356}, {"note": 81, "velocity": 97, "duration": 166}, {"note": 0, "velocity": 0, "duration": 74}, {"note": 89, "velocity": 112, "duration": 156}, {"note": 0, "velocity": 0, "duration": 84}, {"note": 89, "velocity": 117, "duration": 47}, {"note": 0, "velocity": 0, "duration": 73}, {"note": 89, "velocity": 89, "duration": 21}, {"note": 0, "velocity": 0, "duration": 99}, {"note": 86, "velocity": 117, "duration": 173}, {"note": 84, "velocity": 107, "duration": 109}, {"note": 81, "velocity": 96, "duration": 115}, {"note": 84, "velocity": 117, "duration": 103}, {"note": 86, "velocity": 122, "duration": 360}, {"note": 0, "velocity": 0, "duration": 120}, {"note": 81, "velocity": 112, "duration": 124}, {"note": 0, "velocity": 0, "duration": 116}, {"note": 86, "velocity": 117, "duration": 44}, {"note": 0, "velocity": 0, "duration": 76}, {"note": 86, "velocity": 97, "duration": 41}, {"note": 0, "velocity": 0, "duration": 79}, {"note": 86, "velocity": 127, "duration": 129}, {"note": 0, "velocity": 0, "duration": 111}, {"note": 84, "velocity": 117, "duration": 44}, {"note": 0, "velocity": 0, "duration": 76}, {"note": 84, "velocity": 112, "duration": 56}, {"note": 0, "velocity": 0, "duration": 64}, {"note": 86, "velocity": 127, "duration": 101}, {"note": 0, "velocity": 0, "duration": 139}, {"note": 86, "velocity": 127, "duration": 584}, {"note": 0, "velocity": 0, "duration": 136}, {"note": 86, "velocity": 127, "duration": 184}, {"note": 86, "velocity": 117, "duration": 141}, {"note": 0, "velocity": 0, "duration": 99}, {"note": 86, "velocity": 127, "duration": 170}, {"note": 0, "velocity": 0, "duration": 70}, {"note": 79, "velocity": 107, "duration": 164}, {"note": 0, "velocity": 0, "duration": 76}, {"note": 81, "velocity": 122, "duration": 662}, {"note": 0, "velocity": 0, "duration": 298}, {"note": 81, "velocity": 102, "duration": 146}, {"note": 0, "velocity": 0, "duration": 94}, {"note": 86, "velocity": 127, "duration": 46}, {"note": 0, "velocity": 0, "duration": 74}, {"note": 86, "velocity": 99, "duration": 51}, {"note": 0, "velocity": 0, "duration": 69}, {"note": 86, "velocity": 127, "duration": 160}, {"note": 0, "velocity": 0, "duration": 80}, {"note": 84, "velocity": 127, "duration": 155}, {"note": 0, "velocity": 0, "duration": 85}, {"note": 86, "velocity": 127, "duration": 100}, {"note": 84, "velocity": 102, "duration": 85}, {"note": 81, "velocity": 99, "duration": 419}, {"note": 0, "velocity": 0, "duration": 61}, {"note": 81, "velocity": 107, "duration": 165}, {"note": 0, "velocity": 0, "duration": 75}, {"note": 84, "velocity": 117, "duration": 212}, {"note": 81, "velocity": 107, "duration": 371}, {"note": 0, "velocity": 0, "duration": 109}, {"note": 81, "velocity": 102, "duration": 108}, {"note": 79, "velocity": 97, "duration": 118}, {"note": 77, "velocity": 107, "duration": 619}, {"note": 0, "velocity": 0, "duration": 101}, {"note": 74, "velocity": 107, "duration": 55}, {"note": 0, "velocity": 0, "duration": 65}, {"note": 74, "velocity": 92, "duration": 85}, {"note": 79, "velocity": 127, "duration": 237}, {"note": 0, "velocity": 0, "duration": 123}, {"note": 81, "velocity": 112, "duration": 100}, {"note": 79, "velocity": 127, "duration": 239}, {"note": 81, "velocity": 117, "duration": 187}, {"note": 84, "velocity": 122, "duration": 193}, {"note": 81, "velocity": 112, "duration": 196}, {"note": 0, "velocity": 0, "duration": 284}, {"note": 81, "velocity": 112, "duration": 197}, {"note": 84, "velocity": 122, "duration": 378}, {"note": 0, "velocity": 0, "duration": 102}, {"note": 81, "velocity": 122, "duration": 219}, {"note": 84, "velocity": 127, "duration": 183}, {"note": 86, "velocity": 127, "duration": 830}, {"note": 0, "velocity": 0, "duration": 130}, {"note": 79, "velocity": 112, "duration": 162}, {"note": 0, "velocity": 0, "duration": 78}, {"note": 79, "velocity": 95, "duration": 49}, {"note": 0, "velocity": 0, "duration": 71}, {"note": 79, "velocity": 95, "duration": 51}, {"note": 0, "velocity": 0, "duration": 69}, {"note": 79, "velocity": 102, "duration": 209}, {"note": 81, "velocity": 122, "duration": 199}, {"note": 84, "velocity": 127, "duration": 173}, {"note": 0, "velocity": 0, "duration": 67}, {"note": 84, "velocity": 127, "duration": 458}, {"note": 77, "velocity": 122, "duration": 126}, {"note": 79, "velocity": 88, "duration": 104}, {"note": 74, "velocity": 102, "duration": 1171}, {"note": 0, "velocity": 0, "duration": 749}, {"note": 79, "velocity": 107, "duration": 141}, {"note": 0, "velocity": 0, "duration": 99}, {"note": 79, "velocity": 97, "duration": 53}, {"note": 0, "velocity": 0, "duration": 67}, {"note": 79, "velocity": 85, "duration": 40}, {"note": 0, "velocity": 0, "duration": 80}, {"note": 79, "velocity": 96, "duration": 154}, {"note": 0, "velocity": 0, "duration": 86}, {"note": 81, "velocity": 117, "duration": 173}, {"note": 0, "velocity": 0, "duration": 67}, {"note": 84, "velocity": 127, "duration": 192}, {"note": 84, "velocity": 127, "duration": 435}, {"note": 0, "velocity": 0, "duration": 70}, {"note": 77, "velocity": 96, "duration": 368}, {"note": 79, "velocity": 96, "duration": 342}, {"note": 77, "velocity": 96, "duration": 455}, {"note": 74, "velocity": 95, "duration": 1849}]]