[[{"note": 77, "velocity": 107, "duration": 51}, {"note": 0, "velocity": 0, "duration": 69}, {"note": 77, "velocity": 99, "duration": 101}, {"note": 75, "velocity": 97, "duration": 103}, {"note": 73, "velocity": 97, "duration": 68}, {"note": 73, "velocity": 117, "duration": 263}, {"note": 73, "velocity": 127, "duration": 23}, {"note": 0, "velocity": 0, "duration": 97}, {"note": 73, "velocity": 117, "duration": 40}, {"note": 0, "velocity": 0, "duration": 80}, {"note": 73, "velocity": 127, "duration": 136}, {"note": 0, "velocity": 0, "duration": 104}, {"note": 75, "velocity": 127, "duration": 72}, {"note": 77, "velocity": 102, "duration": 53}, {"note": 0, "velocity": 0, "duration": 67}, {"note": 82, "velocity": 127, "duration": 96}, {"note": 80, "velocity": 112, "duration": 66}, {"note": 77, "velocity": 90, "duration": 115}, {"note": 80, "velocity": 112, "duration": 170}, {"note": 0, "velocity": 0, "duration": 190}, {"note": 77, "velocity": 96, "duration": 99}, {"note": 85, "velocity": 122, "duration": 164}, {"note": 0, "velocity": 0, "duration": 76}, {"note": 84, "velocity": 102, "duration": 106}, {"note": 82, "velocity": 107, "duration": 107}, {"note": 84, "velocity": 112, "duration": 137}, {"note": 0, "velocity": 0, "duration": 103}, {"note": 82, "velocity": 127, "duration": 90}, {"note": 80, "velocity": 93, "duration": 56}, {"note": 82, "velocity": 122, "duration": 109}, {"note": 80, "velocity": 97, "duration": 83}, {"note": 77, "velocity": 93, "duration": 52}, {"note": 0, "velocity": 0, "duration": 68}, {"note": 77, "velocity": 102, "duration": 236}, {"note": 0, "velocity": 0, "duration": 364}, {"note": 75, "velocity": 127, "duration": 99}, {"note": 77, "velocity": 82, "duration": 85}, {"note": 75, "velocity": 112, "duration": 123}, {"note": 73, "velocity": 102, "duration": 112}, {"note": 73, "velocity": 117, "duration": 372}, {"note": 75, "velocity": 127, "duration": 82}, {"note": 77, "velocity": 88, "duration": 117}, {"note": 75, "velocity": 112, "duration": 116}, {"note": 73, "velocity": 95, "duration": 133}, {"note": 75, "velocity": 112, "duration": 299}, {"note": 0, "velocity": 0, "duration": 181}, {"note": 75, "velocity": 127, "duration": 123}, {"note": 0, "velocity": 0, "duration": 117}, {"note": 75, "velocity": 127, "duration": 72}, {"note": 73, "velocity": 100, "duration": 81}, {"note": 70, "velocity": 102, "duration": 132}, {"note": 80, "velocity": 127, "duration": 276}, {"note": 0, "velocity": 0, "duration": 84}, {"note": 75, "velocity": 127, "duration": 431}, {"note": 75, "velocity": 122, "duration": 110}, {"note": 77, "velocity": 90, "duration": 133}, {"note": 75, "velocity": 107, "duration": 114}, {"note": 73, "velocity": 96, "duration": 55}, {"note": 0, "velocity": 0, "duration": 65}, {"note": 73, "velocity": 100, "duration": 214}, {"note": 73, "velocity": 112, "duration": 47}, {"note": 0, "velocity": 0, "duration": 73}, {"note": 73, "velocity": 95, "duration": 51}, {"note": 73, "velocity": 112, "duration": 110}, {"note": 0, "velocity": 0, "duration": 130}, {"note": 75, "velocity": 112, "duration": 107}, {"note": 77, "velocity": 96, "duration": 67}, {"note": 82, "velocity": 127, "duration": 105}, {"note": 80, "velocity": 112, "duration": 99}, {"note": 77, "velocity": 82, "duration": 68}, {"note": 80, "velocity": 122, "duration": 66}, {"note": 0, "velocity": 0, "duration": 294}, {"note": 77, "velocity": 95, "duration": 95}, {"note": 85, "velocity": 112, "duration": 174}, {"note": 0, "velocity": 0, "duration": 66}, {"note": 84, "velocity": 117, "duration": 102}, {"note": 82, "velocity": 117, "duration": 94}, {"note": 84, "velocity": 117, "duration": 122}, {"note": 0, "velocity": 0, "duration": 118}, {"note": 82, "velocity": 127, "duration": 98}, {"note": 80, "velocity": 95, "duration": 49}, {"note": 0, "velocity": 0, "duration": 71}, {"note": 82, "velocity": 122, "duration": 118}, {"note": 80, "velocity": 112, "duration": 99}, {"note": 77, "velocity": 89, "duration": 49}, {"note": 0, "velocity": 0, "duration": 71}, {"note": 77, "velocity": 99, "duration": 80}, {"note": 0, "velocity": 0, "duration": 400}, {"note": 75, "velocity": 122, "duration": 72}, {"note": 77, "velocity": 78, "duration": 150}, {"note": 75, "velocity": 112, "duration": 141}, {"note": 73, "velocity": 97, "duration": 98}, {"note": 73, "velocity": 122, "duration": 297}, {"note": 0, "velocity": 0, "duration": 183}, {"note": 75, "velocity": 122, "duration": 98}, {"note": 77, "velocity": 78, "duration": 57}, {"note": 0, "velocity": 0, "duration": 63}, {"note": 75, "velocity": 122, "duration": 70}, {"note": 73, "velocity": 92, "duration": 43}, {"note": 0, "velocity": 0, "duration": 77}, {"note": 75, "velocity": 122, "duration": 314}, {"note": 0, "velocity": 0, "duration": 166}, {"note": 75, "velocity": 122, "duration": 134}, {"note": 0, "velocity": 0, "duration": 106}, {"note": 75, "velocity": 127, "duration": 65}, {"note": 77, "velocity": 97, "duration": 68}, {"note": 75, "velocity": 127, "duration": 47}, {"note": 0, "velocity": 0, "duration": 73}, {"note": 77, "velocity": 99, "duration": 52}, {"note": 0, "velocity": 0, "duration": 68}, {"note": 75, "velocity": 127, "duration": 83}, {"note": 73, "velocity": 100, "duration": 114}, {"note": 75, "velocity": 112, "duration": 370}, {"note": 0, "velocity": 0, "duration": 110}, {"note": 75, "velocity": 127, "duration": 78}, {"note": 73, "velocity": 112, "duration": 67}, {"note": 70, "velocity": 96, "duration": 134}, {"note": 75, "velocity": 122, "duration": 351}, {"note": 73, "velocity": 122, "duration": 978}, {"note": 0, "velocity": 0, "duration": 582}, {"note": 77, "velocity": 96, "duration": 117}, {"note": 82, "velocity": 127, "duration": 146}, {"note": 0, "velocity": 0, "duration": 94}, {"note": 82, "velocity": 122, "duration": 89}, {"note": 80, "velocity": 96, "duration": 55}, {"note": 0, "velocity": 0, "duration": 65}, {"note": 82, "velocity": 122, "duration": 150}, {"note": 0, "velocity": 0, "duration": 330}, {"note": 77, "velocity": 127, "duration": 162}, {"note": 0, "velocity": 0, "duration": 78}, {"note": 77, "velocity": 112, "duration": 75}, {"note": 75, "velocity": 127, "duration": 47}, {"note": 0, "velocity": 0, "duration": 73}, {"note": 77, "velocity": 117, "duration": 260}, {"note": 0, "velocity": 0, "duration": 220}, {"note": 75, "velocity": 117, "duration": 131}, {"note": 0, "velocity": 0, "duration": 109}, {"note": 75, "velocity": 127, "duration": 100}, {"note": 73, "velocity": 122, "duration": 98}, {"note": 70, "velocity": 112, "duration": 177}, {"note": 0, "velocity": 0, "duration": 63}, {"note": 77, "velocity": 122, "duration": 171}, {"note": 0, "velocity": 0, "duration": 69}, {"note": 75, "velocity": 127, "duration": 49}, {"note": 0, "velocity": 0, "duration": 71}, {"note": 75, "velocity": 127, "duration": 121}, {"note": 0, "velocity": 0, "duration": 119}, {"note": 73, "velocity": 122, "duration": 71}, {"note": 75, "velocity": 117, "duration": 165}, {"note": 0, "velocity": 0, "duration": 75}, {"note": 77, "velocity": 107, "duration": 75}, {"note": 80, "velocity": 112, "duration": 75}, {"note": 82, "velocity": 127, "duration": 209}, {"note": 82, "velocity": 127, "duration": 81}, {"note": 80, "velocity": 102, "duration": 68}, {"note": 82, "velocity": 127, "duration": 124}, {"note": 0, "velocity": 0, "duration": 236}, {"note": 85, "velocity": 117, "duration": 93}, {"note": 84, "velocity": 122, "duration": 164}, {"note": 0, "velocity": 0, "duration": 76}, {"note": 80, "velocity": 127, "duration": 105}, {"note": 77, "velocity": 95, "duration": 105}, {"note": 80, "velocity": 127, "duration": 272}, {"note": 82, "velocity": 127, "duration": 104}, {"note": 85, "velocity": 117, "duration": 74}, {"note": 87, "velocity": 122, "duration": 147}, {"note": 0, "velocity": 0, "duration": 93}, {"note": 87, "velocity": 127, "duration": 88}, {"note": 85, "velocity": 127, "duration": 97}, {"note": 82, "velocity": 127, "duration": 120}, {"note": 0, "velocity": 0, "duration": 240}, {"note": 89, "velocity": 122, "duration": 105}, {"note": 87, "velocity": 117, "duration": 42}, {"note": 0, "velocity": 0, "duration": 78}, {"note": 87, "velocity": 127, "duration": 45}, {"note": 0, "velocity": 0, "duration": 75}, {"note": 87, "velocity": 127, "duration": 103}, {"note": 85, "velocity": 100, "duration": 90}, {"note": 82, "velocity": 127, "duration": 190}, {"note": 85, "velocity": 127, "duration": 168}, {"note": 0, "velocity": 0, "duration": 72}, {"note": 87, "velocity": 127, "duration": 726}, {"note": 0, "velocity": 0, "duration": 480}, {"note": 80, "velocity": 127, "duration": 104}, {"note": 82, "velocity": 107, "duration": 121}, {"note": 80, "velocity": 99, "duration": 90}, {"note": 82, "velocity": 112, "duration": 89}, {"note": 85, "velocity": 117, "duration": 242}, {"note": 85, "velocity": 127, "duration": 2}, {"note": 0, "velocity": 0, "duration": 118}, {"note": 82, "velocity": 100, "duration": 81}, {"note": 85, "velocity": 112, "duration": 101}, {"note": 0, "velocity": 0, "duration": 139}, {"note": 89, "velocity": 127, "duration": 54}, {"note": 0, "velocity": 0, "duration": 66}, {"note": 89, "velocity": 127, "duration": 372}, {"note": 0, "velocity": 0, "duration": 228}, {"note": 80, "velocity": 112, "duration": 95}, {"note": 82, "velocity": 117, "duration": 65}, {"note": 85, "velocity": 122, "duration": 75}, {"note": 82, "velocity": 107, "duration": 77}, {"note": 87, "velocity": 112, "duration": 211}, {"note": 87, "velocity": 127, "duration": 101}, {"note": 85, "velocity": 117, "duration": 79}, {"note": 82, "velocity": 127, "duration": 131}, {"note": 89, "velocity": 112, "duration": 339}, {"note": 87, "velocity": 117, "duration": 261}, {"note": 0, "velocity": 0, "duration": 459}, {"note": 85, "velocity": 127, "duration": 69}, {"note": 87, "velocity": 107, "duration": 55}, {"note": 0, "velocity": 0, "duration": 65}, {"note": 89, "velocity": 112, "duration": 121}, {"note": 0, "velocity": 0, "duration": 119}, {"note": 89, "velocity": 112, "duration": 85}, {"note": 87, "velocity": 127, "duration": 165}, {"note": 0, "velocity": 0, "duration": 75}, {"note": 85, "velocity": 122, "duration": 75}, {"note": 82, "velocity": 127, "duration": 68}, {"note": 80, "velocity": 107, "duration": 72}, {"note": 82, "velocity": 127, "duration": 151}, {"note": 0, "velocity": 0, "duration": 89}, {"note": 89, "velocity": 112, "duration": 178}, {"note": 0, "velocity": 0, "duration": 62}, {"note": 87, "velocity": 127, "duration": 211}, {"note": 85, "velocity": 122, "duration": 193}, {"note": 80, "velocity": 122, "duration": 237}, {"note": 0, "velocity": 0, "duration": 363}, {"note": 77, "velocity": 85, "duration": 109}, {"note": 82, "velocity": 127, "duration": 116}, {"note": 80, "velocity": 107, "duration": 251}, {"note": 0, "velocity": 0, "duration": 349}, {"note": 80, "velocity": 127, "duration": 104}, {"note": 82, "velocity": 107, "duration": 121}, {"note": 80, "velocity": 99, "duration": 90}, {"note": 82, "velocity": 112, "duration": 89}, {"note": 85, "velocity": 117, "duration": 242}, {"note": 85, "velocity": 127, "duration": 2}, {"note": 0, "velocity": 0, "duration": 118}, {"note": 82, "velocity": 100, "duration": 81}, {"note": 85, "velocity": 112, "duration": 101}, {"note": 0, "velocity": 0, "duration": 139}, {"note": 89, "velocity": 127, "duration": 54}, {"note": 0, "velocity": 0, "duration": 66}, {"note": 89, "velocity": 127, "duration": 372}, {"note": 0, "velocity": 0, "duration": 228}, {"note": 80, "velocity": 112, "duration": 95}, {"note": 82, "velocity": 117, "duration": 65}, {"note": 85, "velocity": 122, "duration": 75}, {"note": 82, "velocity": 107, "duration": 77}, {"note": 87, "velocity": 112, "duration": 211}, {"note": 87, "velocity": 127, "duration": 101}, {"note": 85, "velocity": 117, "duration": 79}, {"note": 82, "velocity": 127, "duration": 131}, {"note": 89, "velocity": 112, "duration": 339}, {"note": 87, "velocity": 117, "duration": 261}, {"note": 0, "velocity": 0, "duration": 459}, {"note": 85, "velocity": 127, "duration": 69}, {"note": 87, "velocity": 107, "duration": 55}, {"note": 0, "velocity": 0, "duration": 65}, {"note": 89, "velocity": 112, "duration": 121}, {"note": 0, "velocity": 0, "duration": 119}, {"note": 89, "velocity": 112, "duration": 85}, {"note": 87, "velocity": 127, "duration": 165}, {"note": 0, "velocity": 0, "duration": 75}, {"note": 85, "velocity": 122, "duration": 75}, {"note": 82, "velocity": 127, "duration": 68}, {"note": 80, "velocity": 107, "duration": 72}, {"note": 82, "velocity": 127, "duration": 151}, {"note": 0, "velocity": 0, "duration": 89}, {"note": 89, "velocity": 112, "duration": 178}, {"note": 0, "velocity": 0, "duration": 62}, {"note": 87, "velocity": 127, "duration": 211}, {"note": 85, "velocity": 122, "duration": 193}, {"note": 87, "velocity": 127, "duration": 904}, {"note": 0, "velocity": 0, "duration": 536}, {"note": 87, "velocity": 122, "duration": 94}, {"note": 85, "velocity": 107, "duration": 110}, {"note": 82, "velocity": 96, "duration": 68}, {"note": 87, "velocity": 122, "duration": 355}, {"note": 85, "velocity": 127, "duration": 58}, {"note": 0, "velocity": 0, "duration": 360}, {"note": 77, "velocity": 96, "duration": 117}, {"note": 82, "velocity": 127, "duration": 146}, {"note": 0, "velocity": 0, "duration": 94}, {"note": 82, "velocity": 122, "duration": 89}, {"note": 80, "velocity": 96, "duration": 55}, {"note": 0, "velocity": 0, "duration": 65}, {"note": 82, "velocity": 122, "duration": 150}, {"note": 77, "velocity": 127, "duration": 162}, {"note": 0, "velocity": 0, "duration": 78}, {"note": 77, "velocity": 112, "duration": 75}, {"note": 75, "velocity": 127, "duration": 47}, {"note": 0, "velocity": 0, "duration": 73}, {"note": 77, "velocity": 117, "duration": 260}, {"note": 0, "velocity": 0, "duration": 220}, {"note": 75, "velocity": 117, "duration": 131}, {"note": 0, "velocity": 0, "duration": 109}, {"note": 75, "velocity": 127, "duration": 100}, {"note": 73, "velocity": 122, "duration": 98}, {"note": 70, "velocity": 112, "duration": 177}, {"note": 0, "velocity": 0, "duration": 63}, {"note": 77, "velocity": 122, "duration": 171}, {"note": 0, "velocity": 0, "duration": 69}, {"note": 75, "velocity": 127, "duration": 49}, {"note": 0, "velocity": 0, "duration": 71}, {"note": 75, "velocity": 127, "duration": 121}, {"note": 0, "velocity": 0, "duration": 119}, {"note": 73, "velocity": 122, "duration": 71}, {"note": 75, "velocity": 117, "duration": 165}, {"note": 0, "velocity": 0, "duration": 75}, {"note": 77, "velocity": 107, "duration": 75}, {"note": 80, "velocity": 112, "duration": 75}, {"note": 82, "velocity": 127, "duration": 209}, {"note": 82, "velocity": 127, "duration": 81}, {"note": 80, "velocity": 102, "duration": 68}, {"note": 82, "velocity": 127, "duration": 124}, {"note": 0, "velocity": 0, "duration": 236}, {"note": 85, "velocity": 117, "duration": 93}, {"note": 84, "velocity": 122, "duration": 164}, {"note": 0, "velocity": 0, "duration": 76}, {"note": 80, "velocity": 127, "duration": 105}, {"note": 77, "velocity": 95, "duration": 105}, {"note": 80, "velocity": 127, "duration": 272}, {"note": 82, "velocity": 127, "duration": 104}, {"note": 85, "velocity": 117, "duration": 74}, {"note": 87, "velocity": 122, "duration": 147}, {"note": 0, "velocity": 0, "duration": 93}, {"note": 87, "velocity": 127, "duration": 88}, {"note": 85, "velocity": 127, "duration": 97}, {"note": 82, "velocity": 127, "duration": 120}, {"note": 0, "velocity": 0, "duration": 240}, {"note": 89, "velocity": 122, "duration": 105}, {"note": 87, "velocity": 117, "duration": 42}, {"note": 0, "velocity": 0, "duration": 78}, {"note": 87, "velocity": 127, "duration": 45}, {"note": 0, "velocity": 0, "duration": 75}, {"note": 87, "velocity": 127, "duration": 103}, {"note": 85, "velocity": 100, "duration": 90}, {"note": 82, "velocity": 127, "duration": 190}, {"note": 85, "velocity": 127, "duration": 168}, {"note": 0, "velocity": 0, "duration": 72}, {"note": 87, "velocity": 127, "duration": 726}, {"note": 0, "velocity": 0, "duration": 480}, {"note": 80, "velocity": 127, "duration": 104}, {"note": 82, "velocity": 107, "duration": 121}, {"note": 80, "velocity": 99, "duration": 90}, {"note": 82, "velocity": 112, "duration": 89}, {"note": 85, "velocity": 117, "duration": 242}, {"note": 85, "velocity": 127, "duration": 2}, {"note": 0, "velocity": 0, "duration": 118}, {"note": 82, "velocity": 100, "duration": 81}, {"note": 85, "velocity": 112, "duration": 101}, {"note": 0, "velocity": 0, "duration": 139}, {"note": 89, "velocity": 127, "duration": 54}, {"note": 0, "velocity": 0, "duration": 66}, {"note": 89, "velocity": 127, "duration": 372}, {"note": 0, "velocity": 0, "duration": 228}, {"note": 80, "velocity": 112, "duration": 95}, {"note": 82, "velocity": 117, "duration": 65}, {"note": 85, "velocity": 122, "duration": 75}, {"note": 82, "velocity": 107, "duration": 77}, {"note": 87, "velocity": 112, "duration": 211}, {"note": 87, "velocity": 127, "duration": 101}, {"note": 85, "velocity": 117, "duration": 79}, {"note": 82, "velocity": 127, "duration": 131}, {"note": 89, "velocity": 112, "duration": 339}, {"note": 87, "velocity": 117, "duration": 261}, {"note": 0, "velocity": 0, "duration": 459}, {"note": 85, "velocity": 127, "duration": 69}, {"note": 87, "velocity": 107, "duration": 55}, {"note": 89, "velocity": 112, "duration": 121}, {"note": 0, "velocity": 0, "duration": 119}, {"note": 89, "velocity": 112, "duration": 85}, {"note": 87, "velocity": 127, "duration": 165}, {"note": 0, "velocity": 0, "duration": 75}, {"note": 85, "velocity": 122, "duration": 75}, {"note": 82, "velocity": 127, "duration": 68}, {"note": 80, "velocity": 107, "duration": 72}, {"note": 82, "velocity": 127, "duration": 151}, {"note": 0, "velocity": 0, "duration": 89}, {"note": 89, "velocity": 112, "duration": 178}, {"note": 0, "velocity": 0, "duration": 62}, {"note": 87, "velocity": 127, "duration": 211}, {"note": 85, "velocity": 122, "duration": 193}, {"note": 80, "velocity": 122, "duration": 237}, {"note": 0, "velocity": 0, "duration": 363}, {"note": 77, "velocity": 85, "duration": 109}, {"note": 82, "velocity": 127, "duration": 116}, {"note": 80, "velocity": 107, "duration": 131}, {"note": 0, "velocity": 0, "duration": 349}, {"note": 80, "velocity": 127, "duration": 104}, {"note": 82, "velocity": 107, "duration": 121}, {"note": 80, "velocity": 99, "duration": 90}, {"note": 82, "velocity": 112, "duration": 89}, {"note": 85, "velocity": 117, "duration": 242}, {"note": 85, "velocity": 127, "duration": 2}, {"note": 0, "velocity": 0, "duration": 118}, {"note": 82, "velocity": 100, "duration": 81}, {"note": 85, "velocity": 112, "duration": 101}, {"note": 0, "velocity": 0, "duration": 139}, {"note": 89, "velocity": 127, "duration": 54}, {"note": 0, "velocity": 0, "duration": 66}, {"note": 89, "velocity": 127, "duration": 372}, {"note": 0, "velocity": 0, "duration": 228}, {"note": 80, "velocity": 112, "duration": 95}, {"note": 82, "velocity": 117, "duration": 65}, {"note": 85, "velocity": 122, "duration": 75}, {"note": 82, "velocity": 107, "duration": 77}, {"note": 87, "velocity": 112, "duration": 211}, {"note": 87, "velocity": 127, "duration": 101}, {"note": 85, "velocity": 117, "duration": 79}, {"note": 82, "velocity": 127, "duration": 131}, {"note": 89, "velocity": 112, "duration": 339}, {"note": 87, "velocity": 117, "duration": 261}, {"note": 0, "velocity": 0, "duration": 240}, {"note": 85, "velocity": 127, "duration": 69}, {"note": 87, "velocity": 107, "duration": 55}, {"note": 0, "velocity": 0, "duration": 65}, {"note": 89, "velocity": 112, "duration": 121}, {"note": 0, "velocity": 0, "duration": 119}, {"note": 89, "velocity": 112, "duration": 85}, {"note": 87, "velocity": 127, "duration": 165}, {"note": 0, "velocity": 0, "duration": 75}, {"note": 85, "velocity": 122, "duration": 75}, {"note": 82, "velocity": 127, "duration": 68}, {"note": 80, "velocity": 107, "duration": 72}, {"note": 82, "velocity": 127, "duration": 151}, {"note": 0, "velocity": 0, "duration": 89}, {"note": 89, "velocity": 112, "duration": 178}, {"note": 0, "velocity": 0, "duration": 62}, {"note": 87, "velocity": 127, "duration": 211}, {"note": 85, "velocity": 122, "duration": 193}, {"note": 87, "velocity": 127, "duration": 904}, {"note": 87, "velocity": 122, "duration": 94}, {"note": 85, "velocity": 107, "duration": 110}, {"note": 82, "velocity": 96, "duration": 68}, {"note": 87, "velocity": 122, "duration": 355}, {"note": 85, "velocity": 127, "duration": 720}, {"note": 0, "velocity": 0, "duration": 480}, {"note": 80, "velocity": 127, "duration": 104}, {"note": 82, "velocity": 107, "duration": 121}, {"note": 80, "velocity": 99, "duration": 90}, {"note": 82, "velocity": 112, "duration": 89}, {"note": 85, "velocity": 117, "duration": 242}, {"note": 85, "velocity": 127, "duration": 2}, {"note": 0, "velocity": 0, "duration": 118}, {"note": 82, "velocity": 100, "duration": 81}, {"note": 85, "velocity": 112, "duration": 101}, {"note": 0, "velocity": 0, "duration": 139}, {"note": 89, "velocity": 127, "duration": 54}, {"note": 0, "velocity": 0, "duration": 66}, {"note": 89, "velocity": 127, "duration": 372}, {"note": 80, "velocity": 112, "duration": 95}, {"note": 82, "velocity": 117, "duration": 65}, {"note": 85, "velocity": 122, "duration": 75}, {"note": 82, "velocity": 107, "duration": 77}, {"note": 87, "velocity": 112, "duration": 211}, {"note": 87, "velocity": 127, "duration": 101}, {"note": 85, "velocity": 117, "duration": 79}, {"note": 82, "velocity": 127, "duration": 131}, {"note": 89, "velocity": 112, "duration": 339}, {"note": 87, "velocity": 117, "duration": 261}, {"note": 0, "velocity": 0, "duration": 459}, {"note": 85, "velocity": 127, "duration": 69}, {"note": 87, "velocity": 107, "duration": 55}, {"note": 0, "velocity": 0, "duration": 65}, {"note": 89, "velocity": 112, "duration": 121}, {"note": 0, "velocity": 0, "duration": 119}, {"note": 89, "velocity": 112, "duration": 85}, {"note": 87, "velocity": 127, "duration": 165}, {"note": 0, "velocity": 0, "duration": 75}, {"note": 85, "velocity": 122, "duration": 75}, {"note": 82, "velocity": 127, "duration": 68}, {"note": 80, "velocity": 107, "duration": 72}, {"note": 82, "velocity": 127, "duration": 151}, {"note": 0, "velocity": 0, "duration": 89}, {"note": 89, "velocity": 112, "duration": 178}, {"note": 0, "velocity": 0, "duration": 62}, {"note": 87, "velocity": 127, "duration": 211}, {"note": 85, "velocity": 122, "duration": 193}, {"note": 80, "velocity": 122, "duration": 237}, {"note": 0, "velocity": 0, "duration": 363}, {"note": 77, "velocity": 85, "duration": 109}, {"note": 82, "velocity": 127, "duration": 116}, {"note": 80, "velocity": 107, "duration": 251}, {"note": 0, "velocity": 0, "duration": 349}, {"note": 80, "velocity": 127, "duration": 104}, {"note": 82, "velocity": 107, "duration": 121}, {"note": 80, "velocity": 99, "duration": 90}, {"note": 82, "velocity": 112, "duration": 89}, {"note": 85, "velocity": 117, "duration": 242}, {"note": 85, "velocity": 127, "duration": 2}, {"note": 0, "velocity": 0, "duration": 118}, {"note": 82, "velocity": 100, "duration": 81}, {"note": 85, "velocity": 112, "duration": 101}, {"note": 0, "velocity": 0, "duration": 139}, {"note": 89, "velocity": 127, "duration": 54}, {"note": 0, "velocity": 0, "duration": 66}, {"note": 89, "velocity": 127, "duration": 372}, {"note": 0, "velocity": 0, "duration": 228}, {"note": 80, "velocity": 112, "duration": 95}, {"note": 82, "velocity": 117, "duration": 65}, {"note": 85, "velocity": 122, "duration": 75}, {"note": 82, "velocity": 107, "duration": 77}, {"note": 87, "velocity": 112, "duration": 211}, {"note": 87, "velocity": 127, "duration": 101}, {"note": 85, "velocity": 117, "duration": 79}, {"note": 82, "velocity": 127, "duration": 131}, {"note": 89, "velocity": 112, "duration": 339}, {"note": 87, "velocity": 117, "duration": 261}, {"note": 0, "velocity": 0, "duration": 459}, {"note": 85, "velocity": 127, "duration": 69}, {"note": 87, "velocity": 107, "duration": 55}, {"note": 0, "velocity": 0, "duration": 65}, {"note": 89, "velocity": 112, "duration": 121}, {"note": 0, "velocity": 0, "duration": 119}, {"note": 89, "velocity": 112, "duration": 85}, {"note": 87, "velocity": 127, "duration": 165}, {"note": 0, "velocity": 0, "duration": 75}, {"note": 85, "velocity": 122, "duration": 75}, {"note": 82, "velocity": 127, "duration": 68}, {"note": 80, "velocity": 107, "duration": 72}, {"note": 82, "velocity": 127, "duration": 151}, {"note": 0, "velocity": 0, "duration": 89}, {"note": 89, "velocity": 112, "duration": 178}, {"note": 0, "velocity": 0, "duration": 62}, {"note": 87, "velocity": 127, "duration": 211}, {"note": 85, "velocity": 122, "duration": 193}, {"note": 87, "velocity": 127, "duration": 904}, {"note": 0, "velocity": 0, "duration": 480}, {"note": 87, "velocity": 122, "duration": 94}, {"note": 85, "velocity": 107, "duration": 110}, {"note": 82, "velocity": 96, "duration": 68}, {"note": 87, "velocity": 122, "duration": 355}, {"note": 85, "velocity": 127, "duration": 720}]]