[[{"note": 73, "velocity": 117, "duration": 153}, {"note": 0, "velocity": 0, "duration": 87}, {"note": 73, "velocity": 102, "duration": 138}, {"note": 0, "velocity": 0, "duration": 102}, {"note": 73, "velocity": 117, "duration": 179}, {"note": 0, "velocity": 0, "duration": 61}, {"note": 75, "velocity": 112, "duration": 191}, {"note": 77, "velocity": 89, "duration": 411}, {"note": 75, "velocity": 117, "duration": 206}, {"note": 73, "velocity": 100, "duration": 256}, {"note": 75, "velocity": 99, "duration": 206}, {"note": 70, "velocity": 96, "duration": 405}, {"note": 0, "velocity": 0, "duration": 1515}, {"note": 73, "velocity": 112, "duration": 121}, {"note": 0, "velocity": 0, "duration": 119}, {"note": 73, "velocity": 112, "duration": 98}, {"note": 0, "velocity": 0, "duration": 142}, {"note": 73, "velocity": 82, "duration": 256}, {"note": 75, "velocity": 100, "duration": 217}, {"note": 77, "velocity": 89, "duration": 114}, {"note": 0, "velocity": 0, "duration": 126}, {"note": 80, "velocity": 122, "duration": 210}, {"note": 82, "velocity": 112, "duration": 222}, {"note": 80, "velocity": 107, "duration": 245}, {"note": 77, "velocity": 107, "duration": 455}, {"note": 0, "velocity": 0, "duration": 1465}, {"note": 75, "velocity": 127, "duration": 91}, {"note": 0, "velocity": 0, "duration": 149}, {"note": 75, "velocity": 99, "duration": 123}, {"note": 0, "velocity": 0, "duration": 117}, {"note": 75, "velocity": 100, "duration": 130}, {"note": 0, "velocity": 0, "duration": 110}, {"note": 73, "velocity": 102, "duration": 140}, {"note": 0, "velocity": 0, "duration": 100}, {"note": 75, "velocity": 122, "duration": 646}, {"note": 0, "velocity": 0, "duration": 74}, {"note": 80, "velocity": 117, "duration": 162}, {"note": 0, "velocity": 0, "duration": 78}, {"note": 77, "velocity": 99, "duration": 306}, {"note": 0, "velocity": 0, "duration": 174}, {"note": 75, "velocity": 117, "duration": 255}, {"note": 73, "velocity": 93, "duration": 232}, {"note": 70, "velocity": 122, "duration": 232}, {"note": 0, "velocity": 0, "duration": 248}, {"note": 82, "velocity": 127, "duration": 90}, {"note": 0, "velocity": 0, "duration": 150}, {"note": 82, "velocity": 112, "duration": 73}, {"note": 0, "velocity": 0, "duration": 167}, {"note": 82, "velocity": 107, "duration": 123}, {"note": 0, "velocity": 0, "duration": 117}, {"note": 80, "velocity": 99, "duration": 86}, {"note": 0, "velocity": 0, "duration": 154}, {"note": 82, "velocity": 107, "duration": 118}, {"note": 0, "velocity": 0, "duration": 122}, {"note": 80, "velocity": 112, "duration": 84}, {"note": 0, "velocity": 0, "duration": 156}, {"note": 77, "velocity": 102, "duration": 472}, {"note": 75, "velocity": 107, "duration": 28}, {"note": 0, "velocity": 0, "duration": 452}, {"note": 73, "velocity": 117, "duration": 153}, {"note": 0, "velocity": 0, "duration": 87}, {"note": 73, "velocity": 102, "duration": 138}, {"note": 0, "velocity": 0, "duration": 102}, {"note": 73, "velocity": 117, "duration": 179}, {"note": 0, "velocity": 0, "duration": 61}, {"note": 75, "velocity": 112, "duration": 191}, {"note": 77, "velocity": 89, "duration": 411}, {"note": 75, "velocity": 117, "duration": 206}, {"note": 73, "velocity": 100, "duration": 256}, {"note": 75, "velocity": 99, "duration": 206}, {"note": 70, "velocity": 96, "duration": 1494}, {"note": 0, "velocity": 0, "duration": 426}, {"note": 73, "velocity": 112, "duration": 121}, {"note": 0, "velocity": 0, "duration": 119}, {"note": 73, "velocity": 112, "duration": 98}, {"note": 73, "velocity": 82, "duration": 256}, {"note": 75, "velocity": 100, "duration": 217}, {"note": 77, "velocity": 89, "duration": 114}, {"note": 0, "velocity": 0, "duration": 126}, {"note": 80, "velocity": 122, "duration": 210}, {"note": 82, "velocity": 112, "duration": 222}, {"note": 80, "velocity": 107, "duration": 245}, {"note": 77, "velocity": 107, "duration": 1617}, {"note": 0, "velocity": 0, "duration": 303}, {"note": 75, "velocity": 127, "duration": 91}, {"note": 0, "velocity": 0, "duration": 149}, {"note": 75, "velocity": 99, "duration": 123}, {"note": 75, "velocity": 100, "duration": 130}, {"note": 0, "velocity": 0, "duration": 110}, {"note": 73, "velocity": 102, "duration": 140}, {"note": 0, "velocity": 0, "duration": 100}, {"note": 75, "velocity": 122, "duration": 646}, {"note": 0, "velocity": 0, "duration": 74}, {"note": 80, "velocity": 117, "duration": 162}, {"note": 0, "velocity": 0, "duration": 78}, {"note": 77, "velocity": 99, "duration": 306}, {"note": 0, "velocity": 0, "duration": 174}, {"note": 75, "velocity": 117, "duration": 255}, {"note": 73, "velocity": 93, "duration": 232}, {"note": 70, "velocity": 122, "duration": 712}, {"note": 0, "velocity": 0, "duration": 248}, {"note": 82, "velocity": 127, "duration": 90}, {"note": 0, "velocity": 0, "duration": 150}, {"note": 82, "velocity": 112, "duration": 73}, {"note": 0, "velocity": 0, "duration": 167}, {"note": 82, "velocity": 107, "duration": 123}, {"note": 0, "velocity": 0, "duration": 117}, {"note": 80, "velocity": 122, "duration": 168}, {"note": 0, "velocity": 0, "duration": 72}, {"note": 82, "velocity": 107, "duration": 196}, {"note": 80, "velocity": 112, "duration": 150}, {"note": 0, "velocity": 0, "duration": 90}, {"note": 75, "velocity": 122, "duration": 183}, {"note": 77, "velocity": 95, "duration": 339}, {"note": 73, "velocity": 97, "duration": 1243}, {"note": 0, "velocity": 0, "duration": 677}, {"note": 89, "velocity": 127, "duration": 82}, {"note": 0, "velocity": 0, "duration": 158}, {"note": 89, "velocity": 99, "duration": 81}, {"note": 0, "velocity": 0, "duration": 159}, {"note": 89, "velocity": 107, "duration": 96}, {"note": 0, "velocity": 0, "duration": 144}, {"note": 87, "velocity": 117, "duration": 92}, {"note": 0, "velocity": 0, "duration": 148}, {"note": 85, "velocity": 112, "duration": 77}, {"note": 0, "velocity": 0, "duration": 163}, {"note": 87, "velocity": 107, "duration": 95}, {"note": 0, "velocity": 0, "duration": 145}, {"note": 85, "velocity": 122, "duration": 205}, {"note": 84, "velocity": 122, "duration": 190}, {"note": 82, "velocity": 112, "duration": 766}, {"note": 0, "velocity": 0, "duration": 914}, {"note": 82, "velocity": 99, "duration": 153}, {"note": 0, "velocity": 0, "duration": 87}, {"note": 85, "velocity": 112, "duration": 136}, {"note": 0, "velocity": 0, "duration": 104}, {"note": 85, "velocity": 122, "duration": 115}, {"note": 0, "velocity": 0, "duration": 125}, {"note": 85, "velocity": 112, "duration": 136}, {"note": 0, "velocity": 0, "duration": 104}, {"note": 87, "velocity": 112, "duration": 171}, {"note": 0, "velocity": 0, "duration": 69}, {"note": 85, "velocity": 127, "duration": 164}, {"note": 0, "velocity": 0, "duration": 76}, {"note": 84, "velocity": 122, "duration": 172}, {"note": 0, "velocity": 0, "duration": 68}, {"note": 82, "velocity": 107, "duration": 157}, {"note": 0, "velocity": 0, "duration": 83}, {"note": 84, "velocity": 93, "duration": 171}, {"note": 0, "velocity": 0, "duration": 69}, {"note": 80, "velocity": 107, "duration": 1446}, {"note": 0, "velocity": 0, "duration": 474}, {"note": 78, "velocity": 107, "duration": 126}, {"note": 0, "velocity": 0, "duration": 114}, {"note": 78, "velocity": 97, "duration": 109}, {"note": 0, "velocity": 0, "duration": 131}, {"note": 78, "velocity": 107, "duration": 121}, {"note": 0, "velocity": 0, "duration": 119}, {"note": 77, "velocity": 97, "duration": 123}, {"note": 0, "velocity": 0, "duration": 117}, {"note": 75, "velocity": 102, "duration": 502}, {"note": 77, "velocity": 96, "duration": 463}, {"note": 70, "velocity": 92, "duration": 1258}, {"note": 0, "velocity": 0, "duration": 422}, {"note": 70, "velocity": 102, "duration": 174}, {"note": 0, "velocity": 0, "duration": 66}, {"note": 75, "velocity": 107, "duration": 123}, {"note": 0, "velocity": 0, "duration": 117}, {"note": 75, "velocity": 122, "duration": 106}, {"note": 0, "velocity": 0, "duration": 134}, {"note": 75, "velocity": 107, "duration": 146}, {"note": 0, "velocity": 0, "duration": 94}, {"note": 77, "velocity": 102, "duration": 182}, {"note": 78, "velocity": 127, "duration": 146}, {"note": 0, "velocity": 0, "duration": 94}, {"note": 85, "velocity": 112, "duration": 169}, {"note": 0, "velocity": 0, "duration": 71}, {"note": 84, "velocity": 97, "duration": 196}, {"note": 82, "velocity": 117, "duration": 156}, {"note": 0, "velocity": 0, "duration": 84}, {"note": 80, "velocity": 107, "duration": 1481}, {"note": 0, "velocity": 0, "duration": 439}, {"note": 89, "velocity": 127, "duration": 82}, {"note": 0, "velocity": 0, "duration": 158}, {"note": 89, "velocity": 99, "duration": 81}, {"note": 0, "velocity": 0, "duration": 159}, {"note": 89, "velocity": 107, "duration": 96}, {"note": 0, "velocity": 0, "duration": 144}, {"note": 87, "velocity": 117, "duration": 92}, {"note": 0, "velocity": 0, "duration": 148}, {"note": 85, "velocity": 112, "duration": 77}, {"note": 0, "velocity": 0, "duration": 163}, {"note": 87, "velocity": 107, "duration": 95}, {"note": 0, "velocity": 0, "duration": 145}, {"note": 85, "velocity": 122, "duration": 205}, {"note": 84, "velocity": 122, "duration": 190}, {"note": 82, "velocity": 112, "duration": 766}, {"note": 0, "velocity": 0, "duration": 914}, {"note": 82, "velocity": 99, "duration": 153}, {"note": 0, "velocity": 0, "duration": 87}, {"note": 85, "velocity": 112, "duration": 136}, {"note": 0, "velocity": 0, "duration": 104}, {"note": 85, "velocity": 122, "duration": 115}, {"note": 0, "velocity": 0, "duration": 125}, {"note": 85, "velocity": 112, "duration": 136}, {"note": 0, "velocity": 0, "duration": 104}, {"note": 87, "velocity": 112, "duration": 171}, {"note": 0, "velocity": 0, "duration": 69}, {"note": 85, "velocity": 127, "duration": 164}, {"note": 0, "velocity": 0, "duration": 76}, {"note": 84, "velocity": 122, "duration": 172}, {"note": 0, "velocity": 0, "duration": 68}, {"note": 82, "velocity": 107, "duration": 157}, {"note": 0, "velocity": 0, "duration": 83}, {"note": 84, "velocity": 93, "duration": 171}, {"note": 0, "velocity": 0, "duration": 69}, {"note": 80, "velocity": 107, "duration": 1446}, {"note": 0, "velocity": 0, "duration": 474}, {"note": 78, "velocity": 107, "duration": 126}, {"note": 0, "velocity": 0, "duration": 114}, {"note": 78, "velocity": 97, "duration": 109}, {"note": 0, "velocity": 0, "duration": 131}, {"note": 78, "velocity": 107, "duration": 121}, {"note": 0, "velocity": 0, "duration": 119}, {"note": 77, "velocity": 97, "duration": 123}, {"note": 0, "velocity": 0, "duration": 117}, {"note": 75, "velocity": 102, "duration": 502}, {"note": 77, "velocity": 96, "duration": 463}, {"note": 70, "velocity": 92, "duration": 1258}, {"note": 0, "velocity": 0, "duration": 182}, {"note": 70, "velocity": 102, "duration": 117}, {"note": 0, "velocity": 0, "duration": 123}, {"note": 73, "velocity": 117, "duration": 141}, {"note": 0, "velocity": 0, "duration": 99}, {"note": 75, "velocity": 97, "duration": 80}, {"note": 0, "velocity": 0, "duration": 160}, {"note": 75, "velocity": 107, "duration": 75}, {"note": 0, "velocity": 0, "duration": 165}, {"note": 75, "velocity": 122, "duration": 69}, {"note": 0, "velocity": 0, "duration": 171}, {"note": 77, "velocity": 97, "duration": 173}, {"note": 0, "velocity": 0, "duration": 67}, {"note": 78, "velocity": 112, "duration": 157}, {"note": 0, "velocity": 0, "duration": 323}, {"note": 84, "velocity": 102, "duration": 206}, {"note": 82, "velocity": 107, "duration": 215}, {"note": 80, "velocity": 97, "duration": 1044}, {"note": 89, "velocity": 122, "duration": 100}, {"note": 0, "velocity": 0, "duration": 140}, {"note": 89, "velocity": 112, "duration": 100}, {"note": 0, "velocity": 0, "duration": 140}, {"note": 89, "velocity": 117, "duration": 98}, {"note": 0, "velocity": 0, "duration": 142}, {"note": 89, "velocity": 122, "duration": 120}, {"note": 0, "velocity": 0, "duration": 120}, {"note": 89, "velocity": 112, "duration": 116}, {"note": 0, "velocity": 0, "duration": 124}, {"note": 89, "velocity": 122, "duration": 133}, {"note": 0, "velocity": 0, "duration": 107}, {"note": 87, "velocity": 107, "duration": 155}, {"note": 0, "velocity": 0, "duration": 85}, {"note": 85, "velocity": 117, "duration": 139}, {"note": 0, "velocity": 0, "duration": 101}, {"note": 87, "velocity": 122, "duration": 298}, {"note": 0, "velocity": 0, "duration": 182}, {"note": 85, "velocity": 107, "duration": 183}, {"note": 84, "velocity": 92, "duration": 197}, {"note": 82, "velocity": 107, "duration": 534}, {"note": 0, "velocity": 0, "duration": 426}, {"note": 87, "velocity": 127, "duration": 133}, {"note": 0, "velocity": 0, "duration": 107}, {"note": 87, "velocity": 117, "duration": 98}, {"note": 0, "velocity": 0, "duration": 142}, {"note": 87, "velocity": 127, "duration": 94}, {"note": 0, "velocity": 0, "duration": 146}, {"note": 89, "velocity": 112, "duration": 99}, {"note": 0, "velocity": 0, "duration": 141}, {"note": 87, "velocity": 127, "duration": 68}, {"note": 0, "velocity": 0, "duration": 172}, {"note": 87, "velocity": 112, "duration": 110}, {"note": 0, "velocity": 0, "duration": 130}, {"note": 85, "velocity": 100, "duration": 116}, {"note": 0, "velocity": 0, "duration": 124}, {"note": 82, "velocity": 112, "duration": 178}, {"note": 0, "velocity": 0, "duration": 62}, {"note": 85, "velocity": 112, "duration": 210}, {"note": 0, "velocity": 0, "duration": 270}, {"note": 82, "velocity": 122, "duration": 227}, {"note": 80, "velocity": 102, "duration": 89}, {"note": 0, "velocity": 0, "duration": 151}, {"note": 80, "velocity": 127, "duration": 836}, {"note": 0, "velocity": 0, "duration": 124}, {"note": 78, "velocity": 117, "duration": 100}, {"note": 0, "velocity": 0, "duration": 140}, {"note": 78, "velocity": 112, "duration": 96}, {"note": 0, "velocity": 0, "duration": 144}, {"note": 78, "velocity": 117, "duration": 103}, {"note": 0, "velocity": 0, "duration": 137}, {"note": 77, "velocity": 95, "duration": 138}, {"note": 0, "velocity": 0, "duration": 102}, {"note": 75, "velocity": 102, "duration": 207}, {"note": 80, "velocity": 100, "duration": 180}, {"note": 77, "velocity": 99, "duration": 235}, {"note": 75, "velocity": 96, "duration": 232}, {"note": 73, "velocity": 92, "duration": 1173}, {"note": 0, "velocity": 0, "duration": 6240}, {"note": 73, "velocity": 117, "duration": 153}, {"note": 0, "velocity": 0, "duration": 87}, {"note": 73, "velocity": 102, "duration": 138}, {"note": 0, "velocity": 0, "duration": 102}, {"note": 73, "velocity": 117, "duration": 179}, {"note": 0, "velocity": 0, "duration": 61}, {"note": 75, "velocity": 112, "duration": 191}, {"note": 77, "velocity": 89, "duration": 411}, {"note": 75, "velocity": 117, "duration": 206}, {"note": 73, "velocity": 100, "duration": 256}, {"note": 75, "velocity": 99, "duration": 206}, {"note": 70, "velocity": 96, "duration": 1494}, {"note": 0, "velocity": 0, "duration": 426}, {"note": 73, "velocity": 112, "duration": 121}, {"note": 0, "velocity": 0, "duration": 119}, {"note": 73, "velocity": 112, "duration": 98}, {"note": 0, "velocity": 0, "duration": 142}, {"note": 73, "velocity": 82, "duration": 256}, {"note": 75, "velocity": 100, "duration": 217}, {"note": 77, "velocity": 89, "duration": 114}, {"note": 0, "velocity": 0, "duration": 126}, {"note": 80, "velocity": 122, "duration": 210}, {"note": 82, "velocity": 112, "duration": 222}, {"note": 80, "velocity": 107, "duration": 245}, {"note": 77, "velocity": 107, "duration": 1617}, {"note": 0, "velocity": 0, "duration": 303}, {"note": 75, "velocity": 127, "duration": 91}, {"note": 0, "velocity": 0, "duration": 149}, {"note": 75, "velocity": 99, "duration": 123}, {"note": 0, "velocity": 0, "duration": 117}, {"note": 75, "velocity": 100, "duration": 130}, {"note": 0, "velocity": 0, "duration": 110}, {"note": 73, "velocity": 102, "duration": 140}, {"note": 0, "velocity": 0, "duration": 100}, {"note": 75, "velocity": 122, "duration": 646}, {"note": 0, "velocity": 0, "duration": 74}, {"note": 80, "velocity": 117, "duration": 162}, {"note": 0, "velocity": 0, "duration": 78}, {"note": 77, "velocity": 99, "duration": 306}, {"note": 0, "velocity": 0, "duration": 174}, {"note": 75, "velocity": 117, "duration": 255}, {"note": 73, "velocity": 93, "duration": 232}, {"note": 70, "velocity": 122, "duration": 712}, {"note": 0, "velocity": 0, "duration": 248}, {"note": 82, "velocity": 127, "duration": 90}, {"note": 0, "velocity": 0, "duration": 150}, {"note": 82, "velocity": 112, "duration": 73}, {"note": 0, "velocity": 0, "duration": 167}, {"note": 82, "velocity": 107, "duration": 123}, {"note": 0, "velocity": 0, "duration": 117}, {"note": 80, "velocity": 122, "duration": 168}, {"note": 0, "velocity": 0, "duration": 72}, {"note": 82, "velocity": 107, "duration": 196}, {"note": 80, "velocity": 112, "duration": 150}, {"note": 0, "velocity": 0, "duration": 90}, {"note": 75, "velocity": 122, "duration": 183}, {"note": 77, "velocity": 95, "duration": 339}, {"note": 73, "velocity": 97, "duration": 1243}, {"note": 0, "velocity": 0, "duration": 677}, {"note": 89, "velocity": 127, "duration": 82}, {"note": 0, "velocity": 0, "duration": 158}, {"note": 89, "velocity": 99, "duration": 81}, {"note": 0, "velocity": 0, "duration": 159}, {"note": 89, "velocity": 107, "duration": 96}, {"note": 0, "velocity": 0, "duration": 144}, {"note": 87, "velocity": 117, "duration": 92}, {"note": 0, "velocity": 0, "duration": 148}, {"note": 85, "velocity": 112, "duration": 77}, {"note": 0, "velocity": 0, "duration": 163}, {"note": 87, "velocity": 107, "duration": 95}, {"note": 0, "velocity": 0, "duration": 145}, {"note": 85, "velocity": 122, "duration": 205}, {"note": 84, "velocity": 122, "duration": 190}, {"note": 82, "velocity": 112, "duration": 766}, {"note": 0, "velocity": 0, "duration": 914}, {"note": 82, "velocity": 99, "duration": 153}, {"note": 0, "velocity": 0, "duration": 87}, {"note": 85, "velocity": 112, "duration": 136}, {"note": 0, "velocity": 0, "duration": 104}, {"note": 85, "velocity": 122, "duration": 115}, {"note": 0, "velocity": 0, "duration": 125}, {"note": 85, "velocity": 112, "duration": 136}, {"note": 0, "velocity": 0, "duration": 104}, {"note": 87, "velocity": 112, "duration": 171}, {"note": 0, "velocity": 0, "duration": 69}, {"note": 85, "velocity": 127, "duration": 164}, {"note": 0, "velocity": 0, "duration": 76}, {"note": 84, "velocity": 122, "duration": 172}, {"note": 0, "velocity": 0, "duration": 68}, {"note": 82, "velocity": 107, "duration": 157}, {"note": 0, "velocity": 0, "duration": 83}, {"note": 84, "velocity": 93, "duration": 171}, {"note": 0, "velocity": 0, "duration": 69}, {"note": 80, "velocity": 107, "duration": 486}, {"note": 0, "velocity": 0, "duration": 474}, {"note": 78, "velocity": 107, "duration": 126}, {"note": 0, "velocity": 0, "duration": 114}, {"note": 78, "velocity": 97, "duration": 109}, {"note": 0, "velocity": 0, "duration": 131}, {"note": 78, "velocity": 107, "duration": 121}, {"note": 0, "velocity": 0, "duration": 119}, {"note": 77, "velocity": 97, "duration": 123}, {"note": 0, "velocity": 0, "duration": 117}, {"note": 75, "velocity": 102, "duration": 502}, {"note": 77, "velocity": 96, "duration": 463}, {"note": 70, "velocity": 92, "duration": 1258}, {"note": 0, "velocity": 0, "duration": 422}, {"note": 70, "velocity": 102, "duration": 174}, {"note": 0, "velocity": 0, "duration": 66}, {"note": 75, "velocity": 107, "duration": 123}, {"note": 0, "velocity": 0, "duration": 117}, {"note": 75, "velocity": 122, "duration": 106}, {"note": 0, "velocity": 0, "duration": 134}, {"note": 75, "velocity": 107, "duration": 146}, {"note": 0, "velocity": 0, "duration": 94}, {"note": 77, "velocity": 102, "duration": 182}, {"note": 78, "velocity": 127, "duration": 146}, {"note": 0, "velocity": 0, "duration": 94}, {"note": 85, "velocity": 112, "duration": 169}, {"note": 0, "velocity": 0, "duration": 71}, {"note": 84, "velocity": 97, "duration": 196}, {"note": 82, "velocity": 117, "duration": 156}, {"note": 0, "velocity": 0, "duration": 84}, {"note": 80, "velocity": 107, "duration": 1001}, {"note": 0, "velocity": 0, "duration": 439}, {"note": 89, "velocity": 127, "duration": 82}, {"note": 0, "velocity": 0, "duration": 158}, {"note": 89, "velocity": 99, "duration": 81}, {"note": 0, "velocity": 0, "duration": 159}, {"note": 89, "velocity": 107, "duration": 96}, {"note": 0, "velocity": 0, "duration": 144}, {"note": 87, "velocity": 117, "duration": 92}, {"note": 0, "velocity": 0, "duration": 148}, {"note": 85, "velocity": 112, "duration": 77}, {"note": 0, "velocity": 0, "duration": 163}, {"note": 87, "velocity": 107, "duration": 95}, {"note": 0, "velocity": 0, "duration": 145}, {"note": 85, "velocity": 122, "duration": 205}, {"note": 84, "velocity": 122, "duration": 190}, {"note": 82, "velocity": 112, "duration": 766}, {"note": 0, "velocity": 0, "duration": 914}, {"note": 82, "velocity": 99, "duration": 153}, {"note": 0, "velocity": 0, "duration": 87}, {"note": 85, "velocity": 112, "duration": 136}, {"note": 0, "velocity": 0, "duration": 104}, {"note": 85, "velocity": 122, "duration": 115}, {"note": 0, "velocity": 0, "duration": 125}, {"note": 85, "velocity": 112, "duration": 136}, {"note": 0, "velocity": 0, "duration": 104}, {"note": 87, "velocity": 112, "duration": 171}, {"note": 0, "velocity": 0, "duration": 69}, {"note": 85, "velocity": 127, "duration": 164}, {"note": 0, "velocity": 0, "duration": 76}, {"note": 84, "velocity": 122, "duration": 172}, {"note": 0, "velocity": 0, "duration": 68}, {"note": 82, "velocity": 107, "duration": 157}, {"note": 0, "velocity": 0, "duration": 83}, {"note": 84, "velocity": 93, "duration": 171}, {"note": 0, "velocity": 0, "duration": 69}, {"note": 80, "velocity": 107, "duration": 966}, {"note": 0, "velocity": 0, "duration": 474}, {"note": 78, "velocity": 107, "duration": 126}, {"note": 0, "velocity": 0, "duration": 114}, {"note": 78, "velocity": 97, "duration": 109}, {"note": 0, "velocity": 0, "duration": 131}, {"note": 78, "velocity": 107, "duration": 121}, {"note": 0, "velocity": 0, "duration": 119}, {"note": 77, "velocity": 97, "duration": 123}, {"note": 0, "velocity": 0, "duration": 117}, {"note": 75, "velocity": 102, "duration": 502}, {"note": 77, "velocity": 96, "duration": 463}, {"note": 70, "velocity": 92, "duration": 1258}, {"note": 0, "velocity": 0, "duration": 182}, {"note": 70, "velocity": 102, "duration": 117}, {"note": 0, "velocity": 0, "duration": 123}, {"note": 73, "velocity": 117, "duration": 141}, {"note": 0, "velocity": 0, "duration": 99}, {"note": 75, "velocity": 97, "duration": 80}, {"note": 0, "velocity": 0, "duration": 160}, {"note": 75, "velocity": 107, "duration": 75}, {"note": 0, "velocity": 0, "duration": 165}, {"note": 75, "velocity": 122, "duration": 69}, {"note": 0, "velocity": 0, "duration": 171}, {"note": 77, "velocity": 97, "duration": 173}, {"note": 0, "velocity": 0, "duration": 67}, {"note": 78, "velocity": 112, "duration": 157}, {"note": 0, "velocity": 0, "duration": 323}, {"note": 84, "velocity": 102, "duration": 206}, {"note": 82, "velocity": 107, "duration": 215}, {"note": 80, "velocity": 97, "duration": 1044}, {"note": 0, "velocity": 0, "duration": 876}, {"note": 89, "velocity": 122, "duration": 100}, {"note": 0, "velocity": 0, "duration": 140}, {"note": 89, "velocity": 112, "duration": 100}, {"note": 0, "velocity": 0, "duration": 140}, {"note": 89, "velocity": 117, "duration": 98}, {"note": 0, "velocity": 0, "duration": 142}, {"note": 89, "velocity": 122, "duration": 120}, {"note": 0, "velocity": 0, "duration": 120}, {"note": 89, "velocity": 112, "duration": 116}, {"note": 0, "velocity": 0, "duration": 124}, {"note": 89, "velocity": 122, "duration": 133}, {"note": 0, "velocity": 0, "duration": 107}, {"note": 87, "velocity": 107, "duration": 155}, {"note": 0, "velocity": 0, "duration": 85}, {"note": 85, "velocity": 117, "duration": 139}, {"note": 0, "velocity": 0, "duration": 101}, {"note": 87, "velocity": 122, "duration": 298}, {"note": 0, "velocity": 0, "duration": 182}, {"note": 85, "velocity": 107, "duration": 183}, {"note": 84, "velocity": 92, "duration": 197}, {"note": 82, "velocity": 107, "duration": 534}, {"note": 0, "velocity": 0, "duration": 426}, {"note": 87, "velocity": 127, "duration": 133}, {"note": 0, "velocity": 0, "duration": 107}, {"note": 87, "velocity": 117, "duration": 98}, {"note": 0, "velocity": 0, "duration": 142}, {"note": 87, "velocity": 127, "duration": 94}, {"note": 0, "velocity": 0, "duration": 146}, {"note": 89, "velocity": 112, "duration": 99}, {"note": 0, "velocity": 0, "duration": 141}, {"note": 87, "velocity": 127, "duration": 68}, {"note": 0, "velocity": 0, "duration": 172}, {"note": 87, "velocity": 112, "duration": 110}, {"note": 0, "velocity": 0, "duration": 130}, {"note": 85, "velocity": 100, "duration": 116}, {"note": 0, "velocity": 0, "duration": 124}, {"note": 82, "velocity": 112, "duration": 178}, {"note": 0, "velocity": 0, "duration": 62}, {"note": 85, "velocity": 112, "duration": 210}, {"note": 0, "velocity": 0, "duration": 270}, {"note": 82, "velocity": 122, "duration": 227}, {"note": 80, "velocity": 102, "duration": 89}, {"note": 0, "velocity": 0, "duration": 151}, {"note": 80, "velocity": 127, "duration": 836}, {"note": 0, "velocity": 0, "duration": 124}, {"note": 78, "velocity": 117, "duration": 100}, {"note": 0, "velocity": 0, "duration": 140}, {"note": 78, "velocity": 112, "duration": 96}, {"note": 0, "velocity": 0, "duration": 144}, {"note": 78, "velocity": 117, "duration": 103}, {"note": 0, "velocity": 0, "duration": 137}, {"note": 77, "velocity": 95, "duration": 138}, {"note": 0, "velocity": 0, "duration": 102}, {"note": 75, "velocity": 102, "duration": 207}, {"note": 80, "velocity": 100, "duration": 180}, {"note": 77, "velocity": 99, "duration": 235}, {"note": 75, "velocity": 96, "duration": 232}, {"note": 73, "velocity": 92, "duration": 1173}, {"note": 0, "velocity": 0, "duration": 747}, {"note": 89, "velocity": 127, "duration": 82}, {"note": 0, "velocity": 0, "duration": 158}, {"note": 89, "velocity": 99, "duration": 81}, {"note": 0, "velocity": 0, "duration": 159}, {"note": 89, "velocity": 107, "duration": 96}, {"note": 0, "velocity": 0, "duration": 144}, {"note": 87, "velocity": 117, "duration": 92}, {"note": 0, "velocity": 0, "duration": 148}, {"note": 85, "velocity": 112, "duration": 77}, {"note": 0, "velocity": 0, "duration": 163}, {"note": 87, "velocity": 107, "duration": 95}, {"note": 0, "velocity": 0, "duration": 145}, {"note": 85, "velocity": 122, "duration": 205}, {"note": 84, "velocity": 122, "duration": 190}, {"note": 82, "velocity": 112, "duration": 766}, {"note": 0, "velocity": 0, "duration": 914}, {"note": 82, "velocity": 99, "duration": 153}, {"note": 0, "velocity": 0, "duration": 87}, {"note": 85, "velocity": 112, "duration": 136}, {"note": 0, "velocity": 0, "duration": 104}, {"note": 85, "velocity": 122, "duration": 115}, {"note": 0, "velocity": 0, "duration": 125}, {"note": 85, "velocity": 112, "duration": 136}, {"note": 0, "velocity": 0, "duration": 104}, {"note": 87, "velocity": 112, "duration": 171}, {"note": 0, "velocity": 0, "duration": 69}, {"note": 85, "velocity": 127, "duration": 164}, {"note": 0, "velocity": 0, "duration": 76}, {"note": 84, "velocity": 122, "duration": 172}, {"note": 0, "velocity": 0, "duration": 68}, {"note": 82, "velocity": 107, "duration": 157}, {"note": 0, "velocity": 0, "duration": 83}, {"note": 84, "velocity": 93, "duration": 171}, {"note": 0, "velocity": 0, "duration": 69}, {"note": 80, "velocity": 107, "duration": 1446}, {"note": 0, "velocity": 0, "duration": 474}, {"note": 78, "velocity": 107, "duration": 126}, {"note": 0, "velocity": 0, "duration": 114}, {"note": 78, "velocity": 97, "duration": 109}, {"note": 0, "velocity": 0, "duration": 131}, {"note": 78, "velocity": 107, "duration": 121}, {"note": 0, "velocity": 0, "duration": 119}, {"note": 77, "velocity": 97, "duration": 123}, {"note": 0, "velocity": 0, "duration": 117}, {"note": 75, "velocity": 102, "duration": 502}, {"note": 77, "velocity": 96, "duration": 463}, {"note": 70, "velocity": 92, "duration": 1258}, {"note": 0, "velocity": 0, "duration": 422}, {"note": 70, "velocity": 102, "duration": 174}, {"note": 0, "velocity": 0, "duration": 66}, {"note": 75, "velocity": 107, "duration": 123}, {"note": 0, "velocity": 0, "duration": 117}, {"note": 75, "velocity": 122, "duration": 106}, {"note": 0, "velocity": 0, "duration": 134}, {"note": 75, "velocity": 107, "duration": 146}, {"note": 0, "velocity": 0, "duration": 94}, {"note": 77, "velocity": 102, "duration": 182}, {"note": 78, "velocity": 127, "duration": 146}, {"note": 0, "velocity": 0, "duration": 94}, {"note": 85, "velocity": 112, "duration": 169}, {"note": 0, "velocity": 0, "duration": 71}, {"note": 84, "velocity": 97, "duration": 196}, {"note": 82, "velocity": 117, "duration": 156}, {"note": 0, "velocity": 0, "duration": 84}, {"note": 80, "velocity": 107, "duration": 1481}, {"note": 0, "velocity": 0, "duration": 439}, {"note": 89, "velocity": 127, "duration": 82}, {"note": 0, "velocity": 0, "duration": 158}, {"note": 89, "velocity": 99, "duration": 81}, {"note": 0, "velocity": 0, "duration": 159}, {"note": 89, "velocity": 107, "duration": 96}, {"note": 0, "velocity": 0, "duration": 144}, {"note": 87, "velocity": 117, "duration": 92}, {"note": 0, "velocity": 0, "duration": 148}, {"note": 85, "velocity": 112, "duration": 77}, {"note": 0, "velocity": 0, "duration": 163}, {"note": 87, "velocity": 107, "duration": 95}, {"note": 0, "velocity": 0, "duration": 145}, {"note": 85, "velocity": 122, "duration": 205}, {"note": 84, "velocity": 122, "duration": 190}, {"note": 82, "velocity": 112, "duration": 766}, {"note": 0, "velocity": 0, "duration": 914}, {"note": 82, "velocity": 99, "duration": 153}, {"note": 0, "velocity": 0, "duration": 87}, {"note": 85, "velocity": 112, "duration": 136}, {"note": 0, "velocity": 0, "duration": 104}, {"note": 85, "velocity": 122, "duration": 115}, {"note": 0, "velocity": 0, "duration": 125}, {"note": 85, "velocity": 112, "duration": 136}, {"note": 0, "velocity": 0, "duration": 104}, {"note": 87, "velocity": 112, "duration": 171}, {"note": 0, "velocity": 0, "duration": 69}, {"note": 85, "velocity": 127, "duration": 164}, {"note": 0, "velocity": 0, "duration": 76}, {"note": 84, "velocity": 122, "duration": 172}, {"note": 0, "velocity": 0, "duration": 68}, {"note": 82, "velocity": 107, "duration": 157}, {"note": 0, "velocity": 0, "duration": 83}, {"note": 84, "velocity": 93, "duration": 171}, {"note": 0, "velocity": 0, "duration": 69}, {"note": 80, "velocity": 107, "duration": 1446}, {"note": 0, "velocity": 0, "duration": 474}, {"note": 78, "velocity": 107, "duration": 126}, {"note": 0, "velocity": 0, "duration": 114}, {"note": 78, "velocity": 97, "duration": 109}, {"note": 0, "velocity": 0, "duration": 131}, {"note": 78, "velocity": 107, "duration": 121}, {"note": 0, "velocity": 0, "duration": 119}, {"note": 77, "velocity": 97, "duration": 123}, {"note": 0, "velocity": 0, "duration": 117}, {"note": 75, "velocity": 102, "duration": 502}, {"note": 77, "velocity": 96, "duration": 463}, {"note": 70, "velocity": 92, "duration": 1258}, {"note": 0, "velocity": 0, "duration": 182}, {"note": 70, "velocity": 102, "duration": 117}, {"note": 0, "velocity": 0, "duration": 123}, {"note": 73, "velocity": 117, "duration": 141}, {"note": 0, "velocity": 0, "duration": 99}, {"note": 75, "velocity": 97, "duration": 80}, {"note": 0, "velocity": 0, "duration": 160}, {"note": 75, "velocity": 107, "duration": 75}, {"note": 0, "velocity": 0, "duration": 165}, {"note": 75, "velocity": 122, "duration": 69}, {"note": 0, "velocity": 0, "duration": 171}, {"note": 77, "velocity": 97, "duration": 173}, {"note": 0, "velocity": 0, "duration": 67}, {"note": 78, "velocity": 112, "duration": 157}, {"note": 0, "velocity": 0, "duration": 323}, {"note": 84, "velocity": 102, "duration": 206}, {"note": 82, "velocity": 107, "duration": 215}, {"note": 80, "velocity": 97, "duration": 1044}, {"note": 0, "velocity": 0, "duration": 876}, {"note": 89, "velocity": 122, "duration": 100}, {"note": 0, "velocity": 0, "duration": 140}, {"note": 89, "velocity": 112, "duration": 100}, {"note": 0, "velocity": 0, "duration": 140}, {"note": 89, "velocity": 117, "duration": 98}, {"note": 0, "velocity": 0, "duration": 142}, {"note": 89, "velocity": 122, "duration": 120}, {"note": 0, "velocity": 0, "duration": 120}, {"note": 89, "velocity": 112, "duration": 116}, {"note": 0, "velocity": 0, "duration": 124}, {"note": 89, "velocity": 122, "duration": 133}, {"note": 0, "velocity": 0, "duration": 107}, {"note": 87, "velocity": 107, "duration": 155}, {"note": 0, "velocity": 0, "duration": 85}, {"note": 85, "velocity": 117, "duration": 139}, {"note": 0, "velocity": 0, "duration": 101}, {"note": 87, "velocity": 122, "duration": 298}, {"note": 0, "velocity": 0, "duration": 182}, {"note": 85, "velocity": 107, "duration": 183}, {"note": 84, "velocity": 92, "duration": 197}, {"note": 82, "velocity": 107, "duration": 534}, {"note": 0, "velocity": 0, "duration": 426}, {"note": 87, "velocity": 127, "duration": 133}, {"note": 0, "velocity": 0, "duration": 107}, {"note": 87, "velocity": 117, "duration": 98}, {"note": 0, "velocity": 0, "duration": 142}, {"note": 87, "velocity": 127, "duration": 94}, {"note": 0, "velocity": 0, "duration": 146}, {"note": 89, "velocity": 112, "duration": 99}, {"note": 0, "velocity": 0, "duration": 141}, {"note": 87, "velocity": 127, "duration": 68}, {"note": 0, "velocity": 0, "duration": 172}, {"note": 87, "velocity": 112, "duration": 110}, {"note": 0, "velocity": 0, "duration": 130}, {"note": 85, "velocity": 100, "duration": 116}, {"note": 0, "velocity": 0, "duration": 124}, {"note": 82, "velocity": 112, "duration": 178}, {"note": 0, "velocity": 0, "duration": 62}, {"note": 85, "velocity": 112, "duration": 210}, {"note": 0, "velocity": 0, "duration": 270}, {"note": 82, "velocity": 122, "duration": 227}, {"note": 80, "velocity": 102, "duration": 89}, {"note": 0, "velocity": 0, "duration": 151}, {"note": 80, "velocity": 127, "duration": 836}, {"note": 0, "velocity": 0, "duration": 124}, {"note": 78, "velocity": 117, "duration": 100}, {"note": 0, "velocity": 0, "duration": 140}, {"note": 78, "velocity": 112, "duration": 96}, {"note": 0, "velocity": 0, "duration": 144}, {"note": 78, "velocity": 117, "duration": 103}, {"note": 0, "velocity": 0, "duration": 137}, {"note": 77, "velocity": 95, "duration": 138}, {"note": 0, "velocity": 0, "duration": 102}, {"note": 75, "velocity": 102, "duration": 207}, {"note": 80, "velocity": 100, "duration": 180}, {"note": 77, "velocity": 99, "duration": 235}, {"note": 75, "velocity": 96, "duration": 232}, {"note": 73, "velocity": 92, "duration": 1173}, {"note": 0, "velocity": 0, "duration": 747}, {"note": 78, "velocity": 127, "duration": 140}, {"note": 0, "velocity": 0, "duration": 100}, {"note": 78, "velocity": 117, "duration": 111}, {"note": 0, "velocity": 0, "duration": 129}, {"note": 78, "velocity": 127, "duration": 179}, {"note": 0, "velocity": 0, "duration": 61}, {"note": 77, "velocity": 127, "duration": 230}, {"note": 75, "velocity": 127, "duration": 202}, {"note": 80, "velocity": 122, "duration": 212}, {"note": 77, "velocity": 107, "duration": 234}, {"note": 75, "velocity": 107, "duration": 7}, {"note": 73, "velocity": 107, "duration": 1744}]]