[[{"note": 74, "velocity": 97, "duration": 272}, {"note": 79, "velocity": 102, "duration": 176}, {"note": 0, "velocity": 0, "duration": 64}, {"note": 79, "velocity": 100, "duration": 522}, {"note": 0, "velocity": 0, "duration": 198}, {"note": 83, "velocity": 102, "duration": 138}, {"note": 0, "velocity": 0, "duration": 102}, {"note": 86, "velocity": 99, "duration": 302}, {"note": 83, "velocity": 99, "duration": 239}, {"note": 81, "velocity": 97, "duration": 215}, {"note": 83, "velocity": 90, "duration": 238}, {"note": 76, "velocity": 82, "duration": 1181}, {"note": 0, "velocity": 0, "duration": 259}, {"note": 83, "velocity": 112, "duration": 208}, {"note": 86, "velocity": 117, "duration": 123}, {"note": 88, "velocity": 97, "duration": 589}, {"note": 0, "velocity": 0, "duration": 251}, {"note": 88, "velocity": 122, "duration": 124}, {"note": 0, "velocity": 0, "duration": 116}, {"note": 88, "velocity": 122, "duration": 218}, {"note": 86, "velocity": 107, "duration": 181}, {"note": 86, "velocity": 100, "duration": 237}, {"note": 88, "velocity": 99, "duration": 121}, {"note": 0, "velocity": 0, "duration": 119}, {"note": 83, "velocity": 102, "duration": 635}, {"note": 0, "velocity": 0, "duration": 565}, {"note": 83, "velocity": 107, "duration": 193}, {"note": 86, "velocity": 112, "duration": 108}, {"note": 88, "velocity": 99, "duration": 543}, {"note": 0, "velocity": 0, "duration": 417}, {"note": 88, "velocity": 96, "duration": 160}, {"note": 90, "velocity": 127, "duration": 219}, {"note": 88, "velocity": 96, "duration": 226}, {"note": 86, "velocity": 107, "duration": 224}, {"note": 84, "velocity": 96, "duration": 233}, {"note": 83, "velocity": 95, "duration": 307}, {"note": 86, "velocity": 112, "duration": 202}, {"note": 81, "velocity": 85, "duration": 224}, {"note": 83, "velocity": 82, "duration": 261}, {"note": 76, "velocity": 100, "duration": 532}, {"note": 74, "velocity": 88, "duration": 255}, {"note": 76, "velocity": 90, "duration": 233}, {"note": 79, "velocity": 95, "duration": 510}, {"note": 0, "velocity": 0, "duration": 330}, {"note": 83, "velocity": 100, "duration": 80}, {"note": 86, "velocity": 102, "duration": 197}, {"note": 83, "velocity": 97, "duration": 248}, {"note": 81, "velocity": 107, "duration": 211}, {"note": 83, "velocity": 107, "duration": 451}, {"note": 76, "velocity": 97, "duration": 942}, {"note": 0, "velocity": 0, "duration": 258}, {"note": 83, "velocity": 107, "duration": 264}, {"note": 88, "velocity": 127, "duration": 175}, {"note": 0, "velocity": 0, "duration": 65}, {"note": 88, "velocity": 117, "duration": 477}, {"note": 0, "velocity": 0, "duration": 363}, {"note": 88, "velocity": 96, "duration": 75}, {"note": 90, "velocity": 122, "duration": 209}, {"note": 88, "velocity": 112, "duration": 224}, {"note": 86, "velocity": 100, "duration": 208}, {"note": 84, "velocity": 107, "duration": 226}, {"note": 83, "velocity": 100, "duration": 254}, {"note": 86, "velocity": 107, "duration": 198}, {"note": 81, "velocity": 99, "duration": 222}, {"note": 83, "velocity": 83, "duration": 239}, {"note": 76, "velocity": 107, "duration": 369}, {"note": 0, "velocity": 0, "duration": 112}, {"note": 74, "velocity": 102, "duration": 237}, {"note": 76, "velocity": 107, "duration": 267}, {"note": 79, "velocity": 102, "duration": 537}, {"note": 0, "velocity": 0, "duration": 303}, {"note": 83, "velocity": 99, "duration": 101}, {"note": 86, "velocity": 93, "duration": 214}, {"note": 83, "velocity": 96, "duration": 235}, {"note": 81, "velocity": 97, "duration": 224}, {"note": 83, "velocity": 112, "duration": 463}, {"note": 76, "velocity": 99, "duration": 1110}, {"note": 0, "velocity": 0, "duration": 90}, {"note": 74, "velocity": 100, "duration": 246}, {"note": 79, "velocity": 92, "duration": 160}, {"note": 0, "velocity": 0, "duration": 80}, {"note": 79, "velocity": 112, "duration": 514}, {"note": 0, "velocity": 0, "duration": 206}, {"note": 83, "velocity": 107, "duration": 157}, {"note": 0, "velocity": 0, "duration": 83}, {"note": 86, "velocity": 102, "duration": 246}, {"note": 83, "velocity": 92, "duration": 8}, {"note": 81, "velocity": 93, "duration": 221}, {"note": 83, "velocity": 88, "duration": 243}, {"note": 76, "velocity": 96, "duration": 852}, {"note": 0, "velocity": 0, "duration": 588}, {"note": 83, "velocity": 112, "duration": 208}, {"note": 86, "velocity": 117, "duration": 123}, {"note": 88, "velocity": 97, "duration": 589}, {"note": 0, "velocity": 0, "duration": 251}, {"note": 88, "velocity": 122, "duration": 124}, {"note": 0, "velocity": 0, "duration": 116}, {"note": 88, "velocity": 122, "duration": 218}, {"note": 86, "velocity": 102, "duration": 52}, {"note": 0, "velocity": 0, "duration": 68}, {"note": 86, "velocity": 102, "duration": 238}, {"note": 0, "velocity": 0, "duration": 122}, {"note": 81, "velocity": 88, "duration": 124}, {"note": 83, "velocity": 100, "duration": 882}, {"note": 0, "velocity": 0, "duration": 678}, {"note": 83, "velocity": 107, "duration": 193}, {"note": 86, "velocity": 112, "duration": 108}, {"note": 88, "velocity": 99, "duration": 543}, {"note": 0, "velocity": 0, "duration": 417}, {"note": 88, "velocity": 96, "duration": 160}, {"note": 90, "velocity": 127, "duration": 219}, {"note": 88, "velocity": 96, "duration": 226}, {"note": 86, "velocity": 107, "duration": 224}, {"note": 84, "velocity": 96, "duration": 233}, {"note": 83, "velocity": 95, "duration": 307}, {"note": 86, "velocity": 112, "duration": 202}, {"note": 81, "velocity": 85, "duration": 224}, {"note": 83, "velocity": 82, "duration": 261}, {"note": 76, "velocity": 100, "duration": 532}, {"note": 74, "velocity": 88, "duration": 255}, {"note": 76, "velocity": 90, "duration": 233}, {"note": 79, "velocity": 95, "duration": 510}, {"note": 0, "velocity": 0, "duration": 330}, {"note": 83, "velocity": 100, "duration": 80}, {"note": 86, "velocity": 102, "duration": 197}, {"note": 83, "velocity": 97, "duration": 248}, {"note": 81, "velocity": 107, "duration": 211}, {"note": 83, "velocity": 107, "duration": 451}, {"note": 76, "velocity": 97, "duration": 942}, {"note": 0, "velocity": 0, "duration": 258}, {"note": 83, "velocity": 107, "duration": 264}, {"note": 88, "velocity": 127, "duration": 175}, {"note": 0, "velocity": 0, "duration": 65}, {"note": 88, "velocity": 117, "duration": 477}, {"note": 0, "velocity": 0, "duration": 363}, {"note": 88, "velocity": 96, "duration": 75}, {"note": 90, "velocity": 122, "duration": 209}, {"note": 88, "velocity": 112, "duration": 224}, {"note": 86, "velocity": 100, "duration": 208}, {"note": 84, "velocity": 107, "duration": 226}, {"note": 83, "velocity": 100, "duration": 254}, {"note": 86, "velocity": 107, "duration": 198}, {"note": 81, "velocity": 99, "duration": 222}, {"note": 83, "velocity": 83, "duration": 239}, {"note": 76, "velocity": 107, "duration": 369}, {"note": 0, "velocity": 0, "duration": 112}, {"note": 74, "velocity": 102, "duration": 237}, {"note": 76, "velocity": 107, "duration": 267}, {"note": 79, "velocity": 102, "duration": 537}, {"note": 0, "velocity": 0, "duration": 303}, {"note": 83, "velocity": 99, "duration": 101}, {"note": 86, "velocity": 93, "duration": 214}, {"note": 83, "velocity": 96, "duration": 235}, {"note": 86, "velocity": 117, "duration": 307}, {"note": 0, "velocity": 0, "duration": 173}, {"note": 83, "velocity": 117, "duration": 209}, {"note": 76, "velocity": 99, "duration": 1110}, {"note": 0, "velocity": 0, "duration": 14880}, {"note": 74, "velocity": 97, "duration": 272}, {"note": 79, "velocity": 102, "duration": 176}, {"note": 0, "velocity": 0, "duration": 64}, {"note": 79, "velocity": 100, "duration": 522}, {"note": 0, "velocity": 0, "duration": 198}, {"note": 83, "velocity": 102, "duration": 138}, {"note": 0, "velocity": 0, "duration": 102}, {"note": 86, "velocity": 99, "duration": 302}, {"note": 83, "velocity": 99, "duration": 239}, {"note": 81, "velocity": 97, "duration": 215}, {"note": 83, "velocity": 90, "duration": 238}, {"note": 76, "velocity": 82, "duration": 1181}, {"note": 0, "velocity": 0, "duration": 259}, {"note": 83, "velocity": 112, "duration": 208}, {"note": 86, "velocity": 117, "duration": 123}, {"note": 0, "velocity": 0, "duration": 117}, {"note": 88, "velocity": 97, "duration": 589}, {"note": 0, "velocity": 0, "duration": 131}, {"note": 88, "velocity": 122, "duration": 124}, {"note": 0, "velocity": 0, "duration": 116}, {"note": 88, "velocity": 122, "duration": 218}, {"note": 86, "velocity": 107, "duration": 181}, {"note": 86, "velocity": 100, "duration": 237}, {"note": 88, "velocity": 99, "duration": 240}, {"note": 83, "velocity": 102, "duration": 635}, {"note": 83, "velocity": 107, "duration": 193}, {"note": 86, "velocity": 112, "duration": 108}, {"note": 88, "velocity": 99, "duration": 543}, {"note": 0, "velocity": 0, "duration": 417}, {"note": 88, "velocity": 96, "duration": 160}, {"note": 90, "velocity": 127, "duration": 219}, {"note": 88, "velocity": 96, "duration": 226}, {"note": 86, "velocity": 107, "duration": 224}, {"note": 84, "velocity": 96, "duration": 233}, {"note": 83, "velocity": 95, "duration": 307}, {"note": 86, "velocity": 112, "duration": 202}, {"note": 81, "velocity": 85, "duration": 224}, {"note": 83, "velocity": 82, "duration": 261}, {"note": 76, "velocity": 100, "duration": 532}, {"note": 74, "velocity": 88, "duration": 255}, {"note": 76, "velocity": 90, "duration": 233}, {"note": 79, "velocity": 95, "duration": 510}, {"note": 0, "velocity": 0, "duration": 330}, {"note": 83, "velocity": 100, "duration": 80}, {"note": 86, "velocity": 102, "duration": 197}, {"note": 83, "velocity": 97, "duration": 248}, {"note": 81, "velocity": 107, "duration": 211}, {"note": 83, "velocity": 107, "duration": 451}, {"note": 76, "velocity": 97, "duration": 222}, {"note": 0, "velocity": 0, "duration": 258}, {"note": 83, "velocity": 107, "duration": 264}, {"note": 88, "velocity": 127, "duration": 175}, {"note": 0, "velocity": 0, "duration": 65}, {"note": 88, "velocity": 117, "duration": 477}, {"note": 0, "velocity": 0, "duration": 363}, {"note": 88, "velocity": 96, "duration": 75}, {"note": 90, "velocity": 122, "duration": 209}, {"note": 88, "velocity": 112, "duration": 224}, {"note": 86, "velocity": 100, "duration": 208}, {"note": 84, "velocity": 107, "duration": 226}, {"note": 83, "velocity": 100, "duration": 254}, {"note": 86, "velocity": 107, "duration": 198}, {"note": 81, "velocity": 99, "duration": 222}, {"note": 83, "velocity": 83, "duration": 239}, {"note": 76, "velocity": 107, "duration": 369}, {"note": 0, "velocity": 0, "duration": 112}, {"note": 74, "velocity": 102, "duration": 237}, {"note": 76, "velocity": 107, "duration": 267}, {"note": 79, "velocity": 102, "duration": 537}, {"note": 0, "velocity": 0, "duration": 303}, {"note": 83, "velocity": 99, "duration": 101}, {"note": 86, "velocity": 93, "duration": 214}, {"note": 83, "velocity": 96, "duration": 235}, {"note": 81, "velocity": 97, "duration": 224}, {"note": 83, "velocity": 112, "duration": 223}, {"note": 76, "velocity": 99, "duration": 1110}, {"note": 0, "velocity": 0, "duration": 90}, {"note": 76, "velocity": 122, "duration": 231}, {"note": 78, "velocity": 127, "duration": 202}, {"note": 81, "velocity": 112, "duration": 514}, {"note": 0, "velocity": 0, "duration": 206}, {"note": 85, "velocity": 107, "duration": 157}, {"note": 0, "velocity": 0, "duration": 83}, {"note": 88, "velocity": 102, "duration": 246}, {"note": 85, "velocity": 92, "duration": 242}, {"note": 83, "velocity": 93, "duration": 221}, {"note": 85, "velocity": 88, "duration": 243}, {"note": 78, "velocity": 96, "duration": 852}, {"note": 0, "velocity": 0, "duration": 588}, {"note": 85, "velocity": 112, "duration": 208}, {"note": 88, "velocity": 117, "duration": 123}, {"note": 90, "velocity": 97, "duration": 589}, {"note": 0, "velocity": 0, "duration": 251}, {"note": 90, "velocity": 122, "duration": 124}, {"note": 0, "velocity": 0, "duration": 116}, {"note": 90, "velocity": 122, "duration": 218}, {"note": 88, "velocity": 102, "duration": 52}, {"note": 0, "velocity": 0, "duration": 68}, {"note": 88, "velocity": 102, "duration": 238}, {"note": 0, "velocity": 0, "duration": 122}, {"note": 83, "velocity": 88, "duration": 124}, {"note": 85, "velocity": 100, "duration": 882}, {"note": 0, "velocity": 0, "duration": 480}, {"note": 85, "velocity": 107, "duration": 193}, {"note": 88, "velocity": 112, "duration": 108}, {"note": 90, "velocity": 99, "duration": 543}, {"note": 0, "velocity": 0, "duration": 417}, {"note": 90, "velocity": 96, "duration": 160}, {"note": 92, "velocity": 127, "duration": 219}, {"note": 90, "velocity": 96, "duration": 226}, {"note": 88, "velocity": 107, "duration": 224}, {"note": 86, "velocity": 96, "duration": 233}, {"note": 85, "velocity": 95, "duration": 307}, {"note": 88, "velocity": 112, "duration": 202}, {"note": 83, "velocity": 85, "duration": 224}, {"note": 85, "velocity": 82, "duration": 261}, {"note": 78, "velocity": 100, "duration": 532}, {"note": 76, "velocity": 88, "duration": 255}, {"note": 78, "velocity": 90, "duration": 233}, {"note": 81, "velocity": 95, "duration": 510}, {"note": 0, "velocity": 0, "duration": 330}, {"note": 85, "velocity": 100, "duration": 80}, {"note": 88, "velocity": 102, "duration": 197}, {"note": 85, "velocity": 97, "duration": 248}, {"note": 83, "velocity": 107, "duration": 211}, {"note": 85, "velocity": 107, "duration": 451}, {"note": 78, "velocity": 97, "duration": 942}, {"note": 0, "velocity": 0, "duration": 258}, {"note": 85, "velocity": 107, "duration": 264}, {"note": 90, "velocity": 127, "duration": 175}, {"note": 0, "velocity": 0, "duration": 65}, {"note": 90, "velocity": 117, "duration": 477}, {"note": 0, "velocity": 0, "duration": 363}, {"note": 90, "velocity": 96, "duration": 75}, {"note": 92, "velocity": 122, "duration": 209}, {"note": 90, "velocity": 112, "duration": 224}, {"note": 88, "velocity": 100, "duration": 208}, {"note": 86, "velocity": 107, "duration": 226}, {"note": 85, "velocity": 100, "duration": 254}, {"note": 88, "velocity": 107, "duration": 198}, {"note": 83, "velocity": 99, "duration": 222}, {"note": 85, "velocity": 83, "duration": 239}, {"note": 78, "velocity": 107, "duration": 369}, {"note": 0, "velocity": 0, "duration": 112}, {"note": 76, "velocity": 102, "duration": 237}, {"note": 78, "velocity": 107, "duration": 267}, {"note": 81, "velocity": 102, "duration": 537}, {"note": 0, "velocity": 0, "duration": 303}, {"note": 85, "velocity": 99, "duration": 101}, {"note": 88, "velocity": 93, "duration": 214}, {"note": 85, "velocity": 127, "duration": 156}, {"note": 0, "velocity": 0, "duration": 84}, {"note": 83, "velocity": 127, "duration": 187}, {"note": 88, "velocity": 117, "duration": 439}, {"note": 78, "velocity": 122, "duration": 1008}, {"note": 0, "velocity": 0, "duration": 192}, {"note": 85, "velocity": 107, "duration": 193}, {"note": 88, "velocity": 112, "duration": 108}, {"note": 90, "velocity": 99, "duration": 543}, {"note": 0, "velocity": 0, "duration": 417}, {"note": 90, "velocity": 96, "duration": 160}, {"note": 92, "velocity": 127, "duration": 219}, {"note": 90, "velocity": 96, "duration": 226}, {"note": 88, "velocity": 107, "duration": 224}, {"note": 86, "velocity": 96, "duration": 233}, {"note": 85, "velocity": 95, "duration": 307}, {"note": 88, "velocity": 112, "duration": 202}, {"note": 83, "velocity": 85, "duration": 224}, {"note": 85, "velocity": 82, "duration": 261}, {"note": 78, "velocity": 100, "duration": 532}, {"note": 76, "velocity": 88, "duration": 255}, {"note": 78, "velocity": 90, "duration": 233}, {"note": 81, "velocity": 95, "duration": 510}, {"note": 0, "velocity": 0, "duration": 330}, {"note": 85, "velocity": 100, "duration": 80}, {"note": 88, "velocity": 102, "duration": 197}, {"note": 85, "velocity": 97, "duration": 248}, {"note": 85, "velocity": 127, "duration": 8}, {"note": 0, "velocity": 0, "duration": 232}, {"note": 92, "velocity": 127, "duration": 2001}, {"note": 0, "velocity": 0, "duration": 159}, {"note": 90, "velocity": 127, "duration": 1511}, {"note": 0, "velocity": 0, "duration": 1849}, {"note": 85, "velocity": 112, "duration": 208}, {"note": 88, "velocity": 117, "duration": 123}, {"note": 90, "velocity": 97, "duration": 589}, {"note": 0, "velocity": 0, "duration": 251}, {"note": 90, "velocity": 122, "duration": 124}, {"note": 0, "velocity": 0, "duration": 116}, {"note": 90, "velocity": 122, "duration": 218}, {"note": 88, "velocity": 102, "duration": 52}, {"note": 0, "velocity": 0, "duration": 68}, {"note": 88, "velocity": 102, "duration": 238}, {"note": 0, "velocity": 0, "duration": 122}, {"note": 83, "velocity": 88, "duration": 124}, {"note": 85, "velocity": 100, "duration": 882}, {"note": 0, "velocity": 0, "duration": 678}, {"note": 85, "velocity": 107, "duration": 193}, {"note": 88, "velocity": 112, "duration": 108}, {"note": 90, "velocity": 99, "duration": 423}, {"note": 0, "velocity": 0, "duration": 417}, {"note": 90, "velocity": 96, "duration": 160}, {"note": 92, "velocity": 127, "duration": 219}, {"note": 90, "velocity": 96, "duration": 226}, {"note": 88, "velocity": 107, "duration": 224}, {"note": 86, "velocity": 96, "duration": 233}, {"note": 85, "velocity": 95, "duration": 307}, {"note": 88, "velocity": 112, "duration": 202}, {"note": 83, "velocity": 85, "duration": 224}, {"note": 85, "velocity": 82, "duration": 261}, {"note": 78, "velocity": 100, "duration": 532}, {"note": 76, "velocity": 88, "duration": 255}, {"note": 78, "velocity": 90, "duration": 233}, {"note": 81, "velocity": 95, "duration": 510}, {"note": 0, "velocity": 0, "duration": 330}, {"note": 85, "velocity": 100, "duration": 80}, {"note": 88, "velocity": 102, "duration": 197}, {"note": 85, "velocity": 97, "duration": 248}, {"note": 83, "velocity": 107, "duration": 211}, {"note": 85, "velocity": 107, "duration": 451}, {"note": 78, "velocity": 97, "duration": 942}, {"note": 0, "velocity": 0, "duration": 258}, {"note": 76, "velocity": 88, "duration": 255}, {"note": 78, "velocity": 90, "duration": 233}, {"note": 81, "velocity": 95, "duration": 510}, {"note": 0, "velocity": 0, "duration": 330}, {"note": 85, "velocity": 100, "duration": 80}, {"note": 88, "velocity": 102, "duration": 197}, {"note": 85, "velocity": 97, "duration": 248}, {"note": 83, "velocity": 107, "duration": 211}, {"note": 85, "velocity": 107, "duration": 451}, {"note": 78, "velocity": 97, "duration": 942}, {"note": 0, "velocity": 0, "duration": 258}, {"note": 85, "velocity": 112, "duration": 208}, {"note": 88, "velocity": 117, "duration": 123}, {"note": 90, "velocity": 97, "duration": 589}, {"note": 0, "velocity": 0, "duration": 251}, {"note": 90, "velocity": 122, "duration": 124}, {"note": 0, "velocity": 0, "duration": 116}, {"note": 90, "velocity": 122, "duration": 218}, {"note": 88, "velocity": 102, "duration": 52}, {"note": 0, "velocity": 0, "duration": 68}, {"note": 88, "velocity": 102, "duration": 238}, {"note": 0, "velocity": 0, "duration": 122}, {"note": 83, "velocity": 88, "duration": 124}, {"note": 85, "velocity": 100, "duration": 882}, {"note": 0, "velocity": 0, "duration": 678}, {"note": 85, "velocity": 107, "duration": 193}, {"note": 88, "velocity": 112, "duration": 108}, {"note": 90, "velocity": 99, "duration": 543}, {"note": 0, "velocity": 0, "duration": 417}, {"note": 90, "velocity": 96, "duration": 160}, {"note": 92, "velocity": 127, "duration": 219}, {"note": 90, "velocity": 96, "duration": 226}, {"note": 88, "velocity": 107, "duration": 224}, {"note": 86, "velocity": 96, "duration": 233}, {"note": 85, "velocity": 95, "duration": 307}, {"note": 88, "velocity": 112, "duration": 202}, {"note": 83, "velocity": 85, "duration": 224}, {"note": 85, "velocity": 82, "duration": 261}, {"note": 78, "velocity": 100, "duration": 532}, {"note": 76, "velocity": 88, "duration": 255}, {"note": 78, "velocity": 90, "duration": 233}, {"note": 81, "velocity": 95, "duration": 510}, {"note": 0, "velocity": 0, "duration": 330}, {"note": 85, "velocity": 100, "duration": 80}, {"note": 88, "velocity": 102, "duration": 197}, {"note": 85, "velocity": 97, "duration": 248}, {"note": 83, "velocity": 107, "duration": 211}, {"note": 85, "velocity": 107, "duration": 451}, {"note": 78, "velocity": 97, "duration": 942}]]