[[{"note": 68, "velocity": 92, "duration": 457}, {"note": 73, "velocity": 96, "duration": 1726}, {"note": 0, "velocity": 0, "duration": 194}, {"note": 76, "velocity": 69, "duration": 475}, {"note": 68, "velocity": 73, "duration": 607}, {"note": 71, "velocity": 69, "duration": 883}, {"note": 0, "velocity": 0, "duration": 77}, {"note": 73, "velocity": 97, "duration": 395}, {"note": 0, "velocity": 0, "duration": 85}, {"note": 71, "velocity": 71, "duration": 929}, {"note": 0, "velocity": 0, "duration": 271}, {"note": 68, "velocity": 69, "duration": 163}, {"note": 0, "velocity": 0, "duration": 77}, {"note": 73, "velocity": 85, "duration": 384}, {"note": 0, "velocity": 0, "duration": 96}, {"note": 73, "velocity": 73, "duration": 374}, {"note": 0, "velocity": 0, "duration": 106}, {"note": 75, "velocity": 90, "duration": 344}, {"note": 0, "velocity": 0, "duration": 136}, {"note": 76, "velocity": 75, "duration": 700}, {"note": 75, "velocity": 74, "duration": 573}, {"note": 0, "velocity": 0, "duration": 387}, {"note": 71, "velocity": 92, "duration": 461}, {"note": 73, "velocity": 75, "duration": 1708}, {"note": 0, "velocity": 0, "duration": 212}, {"note": 68, "velocity": 99, "duration": 392}, {"note": 0, "velocity": 0, "duration": 88}, {"note": 66, "velocity": 83, "duration": 762}, {"note": 0, "velocity": 0, "duration": 198}, {"note": 68, "velocity": 112, "duration": 382}, {"note": 0, "velocity": 0, "duration": 98}, {"note": 71, "velocity": 83, "duration": 697}, {"note": 0, "velocity": 0, "duration": 263}, {"note": 68, "velocity": 93, "duration": 5}, {"note": 73, "velocity": 90, "duration": 290}, {"note": 0, "velocity": 0, "duration": 190}, {"note": 73, "velocity": 96, "duration": 285}, {"note": 0, "velocity": 0, "duration": 195}, {"note": 73, "velocity": 88, "duration": 352}, {"note": 0, "velocity": 0, "duration": 128}, {"note": 68, "velocity": 88, "duration": 847}, {"note": 0, "velocity": 0, "duration": 113}, {"note": 64, "velocity": 85, "duration": 561}, {"note": 66, "velocity": 100, "duration": 741}, {"note": 0, "velocity": 0, "duration": 219}, {"note": 66, "velocity": 99, "duration": 95}, {"note": 0, "velocity": 0, "duration": 145}, {"note": 66, "velocity": 75, "duration": 148}, {"note": 0, "velocity": 0, "duration": 92}, {"note": 68, "velocity": 92, "duration": 473}, {"note": 66, "velocity": 99, "duration": 442}, {"note": 64, "velocity": 89, "duration": 515}, {"note": 68, "velocity": 100, "duration": 274}, {"note": 66, "velocity": 86, "duration": 265}, {"note": 68, "velocity": 88, "duration": 1786}, {"note": 0, "velocity": 0, "duration": 108}, {"note": 68, "velocity": 100, "duration": 388}, {"note": 0, "velocity": 0, "duration": 92}, {"note": 73, "velocity": 122, "duration": 840}, {"note": 0, "velocity": 0, "duration": 120}, {"note": 73, "velocity": 102, "duration": 602}, {"note": 0, "velocity": 0, "duration": 358}, {"note": 75, "velocity": 96, "duration": 367}, {"note": 0, "velocity": 0, "duration": 113}, {"note": 68, "velocity": 99, "duration": 518}, {"note": 71, "velocity": 96, "duration": 592}, {"note": 0, "velocity": 0, "duration": 368}, {"note": 73, "velocity": 107, "duration": 501}, {"note": 71, "velocity": 90, "duration": 798}, {"note": 0, "velocity": 0, "duration": 402}, {"note": 68, "velocity": 92, "duration": 265}, {"note": 73, "velocity": 93, "duration": 363}, {"note": 0, "velocity": 0, "duration": 117}, {"note": 73, "velocity": 97, "duration": 345}, {"note": 0, "velocity": 0, "duration": 135}, {"note": 75, "velocity": 102, "duration": 253}, {"note": 76, "velocity": 79, "duration": 510}, {"note": 75, "velocity": 96, "duration": 592}, {"note": 0, "velocity": 0, "duration": 128}, {"note": 71, "velocity": 88, "duration": 191}, {"note": 73, "velocity": 97, "duration": 644}, {"note": 0, "velocity": 0, "duration": 316}, {"note": 68, "velocity": 100, "duration": 442}, {"note": 66, "velocity": 92, "duration": 825}, {"note": 0, "velocity": 0, "duration": 135}, {"note": 68, "velocity": 90, "duration": 470}, {"note": 71, "velocity": 89, "duration": 773}, {"note": 0, "velocity": 0, "duration": 187}, {"note": 68, "velocity": 96, "duration": 443}, {"note": 73, "velocity": 97, "duration": 719}, {"note": 0, "velocity": 0, "duration": 241}, {"note": 73, "velocity": 100, "duration": 397}, {"note": 68, "velocity": 102, "duration": 609}, {"note": 0, "velocity": 0, "duration": 351}, {"note": 64, "velocity": 88, "duration": 102}, {"note": 0, "velocity": 0, "duration": 138}, {"note": 64, "velocity": 82, "duration": 171}, {"note": 0, "velocity": 0, "duration": 69}, {"note": 66, "velocity": 100, "duration": 764}, {"note": 0, "velocity": 0, "duration": 196}, {"note": 66, "velocity": 97, "duration": 399}, {"note": 0, "velocity": 0, "duration": 81}, {"note": 68, "velocity": 102, "duration": 457}, {"note": 66, "velocity": 97, "duration": 556}, {"note": 59, "velocity": 93, "duration": 476}, {"note": 61, "velocity": 99, "duration": 2354}, {"note": 0, "velocity": 0, "duration": 526}, {"note": 80, "velocity": 122, "duration": 799}, {"note": 0, "velocity": 0, "duration": 161}, {"note": 76, "velocity": 102, "duration": 333}, {"note": 0, "velocity": 0, "duration": 147}, {"note": 78, "velocity": 127, "duration": 810}, {"note": 0, "velocity": 0, "duration": 630}, {"note": 78, "velocity": 127, "duration": 690}, {"note": 0, "velocity": 0, "duration": 270}, {"note": 80, "velocity": 122, "duration": 306}, {"note": 0, "velocity": 0, "duration": 148}, {"note": 76, "velocity": 112, "duration": 219}, {"note": 73, "velocity": 102, "duration": 871}, {"note": 0, "velocity": 0, "duration": 365}, {"note": 75, "velocity": 117, "duration": 74}, {"note": 0, "velocity": 0, "duration": 166}, {"note": 75, "velocity": 88, "duration": 111}, {"note": 0, "velocity": 0, "duration": 129}, {"note": 75, "velocity": 96, "duration": 218}, {"note": 0, "velocity": 0, "duration": 262}, {"note": 75, "velocity": 122, "duration": 294}, {"note": 0, "velocity": 0, "duration": 186}, {"note": 76, "velocity": 102, "duration": 338}, {"note": 0, "velocity": 0, "duration": 142}, {"note": 75, "velocity": 117, "duration": 445}, {"note": 0, "velocity": 0, "duration": 275}, {"note": 71, "velocity": 85, "duration": 222}, {"note": 73, "velocity": 107, "duration": 961}, {"note": 0, "velocity": 0, "duration": 239}, {"note": 80, "velocity": 117, "duration": 98}, {"note": 0, "velocity": 0, "duration": 142}, {"note": 80, "velocity": 127, "duration": 513}, {"note": 0, "velocity": 0, "duration": 927}, {"note": 81, "velocity": 127, "duration": 743}, {"note": 0, "velocity": 0, "duration": 217}, {"note": 80, "velocity": 122, "duration": 325}, {"note": 0, "velocity": 0, "duration": 155}, {"note": 78, "velocity": 127, "duration": 1138}, {"note": 0, "velocity": 0, "duration": 302}, {"note": 78, "velocity": 127, "duration": 318}, {"note": 0, "velocity": 0, "duration": 162}, {"note": 78, "velocity": 122, "duration": 323}, {"note": 0, "velocity": 0, "duration": 157}, {"note": 80, "velocity": 122, "duration": 338}, {"note": 0, "velocity": 0, "duration": 149}, {"note": 76, "velocity": 100, "duration": 187}, {"note": 73, "velocity": 100, "duration": 978}, {"note": 75, "velocity": 100, "duration": 95}, {"note": 0, "velocity": 0, "duration": 145}, {"note": 75, "velocity": 107, "duration": 86}, {"note": 0, "velocity": 0, "duration": 154}, {"note": 75, "velocity": 112, "duration": 194}, {"note": 0, "velocity": 0, "duration": 286}, {"note": 75, "velocity": 127, "duration": 229}, {"note": 0, "velocity": 0, "duration": 251}, {"note": 71, "velocity": 102, "duration": 337}, {"note": 0, "velocity": 0, "duration": 143}, {"note": 68, "velocity": 117, "duration": 469}, {"note": 0, "velocity": 0, "duration": 251}, {"note": 75, "velocity": 97, "duration": 187}, {"note": 73, "velocity": 122, "duration": 1093}, {"note": 0, "velocity": 0, "duration": 8160}, {"note": 68, "velocity": 92, "duration": 457}, {"note": 73, "velocity": 96, "duration": 1726}, {"note": 0, "velocity": 0, "duration": 194}, {"note": 76, "velocity": 69, "duration": 475}, {"note": 68, "velocity": 73, "duration": 607}, {"note": 71, "velocity": 69, "duration": 883}, {"note": 0, "velocity": 0, "duration": 77}, {"note": 73, "velocity": 97, "duration": 395}, {"note": 0, "velocity": 0, "duration": 85}, {"note": 71, "velocity": 71, "duration": 929}, {"note": 0, "velocity": 0, "duration": 271}, {"note": 68, "velocity": 69, "duration": 163}, {"note": 0, "velocity": 0, "duration": 77}, {"note": 73, "velocity": 85, "duration": 384}, {"note": 0, "velocity": 0, "duration": 96}, {"note": 73, "velocity": 73, "duration": 374}, {"note": 0, "velocity": 0, "duration": 106}, {"note": 75, "velocity": 90, "duration": 344}, {"note": 0, "velocity": 0, "duration": 136}, {"note": 76, "velocity": 75, "duration": 700}, {"note": 75, "velocity": 74, "duration": 573}, {"note": 0, "velocity": 0, "duration": 387}, {"note": 71, "velocity": 59, "duration": 461}, {"note": 73, "velocity": 75, "duration": 1708}, {"note": 0, "velocity": 0, "duration": 212}, {"note": 68, "velocity": 99, "duration": 392}, {"note": 0, "velocity": 0, "duration": 88}, {"note": 66, "velocity": 83, "duration": 762}, {"note": 0, "velocity": 0, "duration": 198}, {"note": 68, "velocity": 112, "duration": 382}, {"note": 0, "velocity": 0, "duration": 98}, {"note": 71, "velocity": 83, "duration": 697}, {"note": 0, "velocity": 0, "duration": 263}, {"note": 68, "velocity": 93, "duration": 5}, {"note": 73, "velocity": 90, "duration": 290}, {"note": 0, "velocity": 0, "duration": 190}, {"note": 73, "velocity": 96, "duration": 285}, {"note": 0, "velocity": 0, "duration": 195}, {"note": 73, "velocity": 88, "duration": 352}, {"note": 0, "velocity": 0, "duration": 128}, {"note": 68, "velocity": 88, "duration": 847}, {"note": 0, "velocity": 0, "duration": 113}, {"note": 64, "velocity": 85, "duration": 81}, {"note": 66, "velocity": 100, "duration": 741}, {"note": 0, "velocity": 0, "duration": 219}, {"note": 66, "velocity": 99, "duration": 95}, {"note": 0, "velocity": 0, "duration": 145}, {"note": 66, "velocity": 75, "duration": 148}, {"note": 0, "velocity": 0, "duration": 92}, {"note": 68, "velocity": 92, "duration": 473}, {"note": 66, "velocity": 99, "duration": 442}, {"note": 64, "velocity": 89, "duration": 515}, {"note": 68, "velocity": 100, "duration": 2294}, {"note": 0, "velocity": 0, "duration": 106}, {"note": 68, "velocity": 100, "duration": 388}, {"note": 0, "velocity": 0, "duration": 92}, {"note": 73, "velocity": 122, "duration": 840}, {"note": 0, "velocity": 0, "duration": 120}, {"note": 73, "velocity": 102, "duration": 602}, {"note": 0, "velocity": 0, "duration": 358}, {"note": 75, "velocity": 96, "duration": 367}, {"note": 0, "velocity": 0, "duration": 113}, {"note": 68, "velocity": 99, "duration": 518}, {"note": 71, "velocity": 96, "duration": 592}, {"note": 0, "velocity": 0, "duration": 368}, {"note": 73, "velocity": 107, "duration": 501}, {"note": 71, "velocity": 90, "duration": 798}, {"note": 0, "velocity": 0, "duration": 402}, {"note": 68, "velocity": 92, "duration": 265}, {"note": 73, "velocity": 93, "duration": 363}, {"note": 0, "velocity": 0, "duration": 117}, {"note": 73, "velocity": 97, "duration": 345}, {"note": 0, "velocity": 0, "duration": 135}, {"note": 75, "velocity": 102, "duration": 253}, {"note": 0, "velocity": 0, "duration": 227}, {"note": 76, "velocity": 79, "duration": 510}, {"note": 75, "velocity": 96, "duration": 592}, {"note": 0, "velocity": 0, "duration": 128}, {"note": 71, "velocity": 88, "duration": 191}, {"note": 73, "velocity": 97, "duration": 2084}, {"note": 0, "velocity": 0, "duration": 316}, {"note": 68, "velocity": 100, "duration": 442}, {"note": 66, "velocity": 92, "duration": 825}, {"note": 0, "velocity": 0, "duration": 135}, {"note": 68, "velocity": 90, "duration": 470}, {"note": 71, "velocity": 89, "duration": 773}, {"note": 0, "velocity": 0, "duration": 187}, {"note": 68, "velocity": 96, "duration": 443}, {"note": 73, "velocity": 97, "duration": 719}, {"note": 0, "velocity": 0, "duration": 241}, {"note": 73, "velocity": 100, "duration": 397}, {"note": 0, "velocity": 0, "duration": 83}, {"note": 68, "velocity": 102, "duration": 609}, {"note": 0, "velocity": 0, "duration": 351}, {"note": 64, "velocity": 88, "duration": 102}, {"note": 0, "velocity": 0, "duration": 138}, {"note": 64, "velocity": 82, "duration": 171}, {"note": 0, "velocity": 0, "duration": 69}, {"note": 66, "velocity": 100, "duration": 764}, {"note": 0, "velocity": 0, "duration": 196}, {"note": 66, "velocity": 97, "duration": 399}, {"note": 0, "velocity": 0, "duration": 81}, {"note": 68, "velocity": 102, "duration": 457}, {"note": 66, "velocity": 97, "duration": 556}, {"note": 59, "velocity": 93, "duration": 476}, {"note": 61, "velocity": 99, "duration": 2422}, {"note": 0, "velocity": 0, "duration": 458}, {"note": 80, "velocity": 122, "duration": 799}, {"note": 0, "velocity": 0, "duration": 161}, {"note": 76, "velocity": 102, "duration": 333}, {"note": 0, "velocity": 0, "duration": 147}, {"note": 78, "velocity": 127, "duration": 810}, {"note": 0, "velocity": 0, "duration": 630}, {"note": 78, "velocity": 127, "duration": 690}, {"note": 0, "velocity": 0, "duration": 270}, {"note": 80, "velocity": 122, "duration": 306}, {"note": 0, "velocity": 0, "duration": 155}, {"note": 76, "velocity": 102, "duration": 183}, {"note": 73, "velocity": 96, "duration": 843}, {"note": 0, "velocity": 0, "duration": 422}, {"note": 75, "velocity": 117, "duration": 74}, {"note": 0, "velocity": 0, "duration": 166}, {"note": 75, "velocity": 88, "duration": 111}, {"note": 0, "velocity": 0, "duration": 129}, {"note": 75, "velocity": 96, "duration": 218}, {"note": 0, "velocity": 0, "duration": 262}, {"note": 75, "velocity": 122, "duration": 294}, {"note": 0, "velocity": 0, "duration": 186}, {"note": 76, "velocity": 102, "duration": 338}, {"note": 0, "velocity": 0, "duration": 142}, {"note": 75, "velocity": 117, "duration": 445}, {"note": 0, "velocity": 0, "duration": 275}, {"note": 71, "velocity": 85, "duration": 222}, {"note": 73, "velocity": 107, "duration": 782}, {"note": 0, "velocity": 0, "duration": 418}, {"note": 80, "velocity": 117, "duration": 98}, {"note": 0, "velocity": 0, "duration": 142}, {"note": 80, "velocity": 127, "duration": 513}, {"note": 0, "velocity": 0, "duration": 927}, {"note": 81, "velocity": 127, "duration": 743}, {"note": 0, "velocity": 0, "duration": 217}, {"note": 80, "velocity": 122, "duration": 325}, {"note": 0, "velocity": 0, "duration": 155}, {"note": 78, "velocity": 127, "duration": 704}, {"note": 0, "velocity": 0, "duration": 736}, {"note": 78, "velocity": 127, "duration": 318}, {"note": 0, "velocity": 0, "duration": 162}, {"note": 78, "velocity": 122, "duration": 323}, {"note": 0, "velocity": 0, "duration": 157}, {"note": 80, "velocity": 122, "duration": 338}, {"note": 0, "velocity": 0, "duration": 142}, {"note": 73, "velocity": 117, "duration": 1223}, {"note": 0, "velocity": 0, "duration": 217}, {"note": 75, "velocity": 100, "duration": 95}, {"note": 0, "velocity": 0, "duration": 145}, {"note": 75, "velocity": 107, "duration": 86}, {"note": 0, "velocity": 0, "duration": 154}, {"note": 75, "velocity": 112, "duration": 194}, {"note": 0, "velocity": 0, "duration": 286}, {"note": 75, "velocity": 127, "duration": 229}, {"note": 0, "velocity": 0, "duration": 251}, {"note": 71, "velocity": 102, "duration": 337}, {"note": 0, "velocity": 0, "duration": 143}, {"note": 68, "velocity": 117, "duration": 469}, {"note": 0, "velocity": 0, "duration": 251}, {"note": 75, "velocity": 97, "duration": 187}, {"note": 73, "velocity": 122, "duration": 2533}, {"note": 0, "velocity": 0, "duration": 347}, {"note": 80, "velocity": 122, "duration": 799}, {"note": 0, "velocity": 0, "duration": 161}, {"note": 76, "velocity": 102, "duration": 333}, {"note": 78, "velocity": 127, "duration": 810}, {"note": 0, "velocity": 0, "duration": 630}, {"note": 78, "velocity": 127, "duration": 690}, {"note": 0, "velocity": 0, "duration": 270}, {"note": 80, "velocity": 122, "duration": 306}, {"note": 0, "velocity": 0, "duration": 188}, {"note": 76, "velocity": 112, "duration": 160}, {"note": 73, "velocity": 96, "duration": 870}, {"note": 0, "velocity": 0, "duration": 375}, {"note": 75, "velocity": 117, "duration": 74}, {"note": 0, "velocity": 0, "duration": 166}, {"note": 75, "velocity": 88, "duration": 111}, {"note": 0, "velocity": 0, "duration": 129}, {"note": 75, "velocity": 96, "duration": 218}, {"note": 0, "velocity": 0, "duration": 262}, {"note": 75, "velocity": 122, "duration": 294}, {"note": 0, "velocity": 0, "duration": 186}, {"note": 76, "velocity": 102, "duration": 338}, {"note": 0, "velocity": 0, "duration": 142}, {"note": 75, "velocity": 117, "duration": 445}, {"note": 0, "velocity": 0, "duration": 275}, {"note": 71, "velocity": 85, "duration": 222}, {"note": 73, "velocity": 107, "duration": 782}, {"note": 0, "velocity": 0, "duration": 418}, {"note": 80, "velocity": 117, "duration": 98}, {"note": 0, "velocity": 0, "duration": 142}, {"note": 80, "velocity": 127, "duration": 513}, {"note": 0, "velocity": 0, "duration": 176}, {"note": 81, "velocity": 99, "duration": 142}, {"note": 80, "velocity": 96, "duration": 130}, {"note": 78, "velocity": 117, "duration": 135}, {"note": 0, "velocity": 0, "duration": 388}, {"note": 81, "velocity": 127, "duration": 743}, {"note": 0, "velocity": 0, "duration": 217}, {"note": 80, "velocity": 122, "duration": 325}, {"note": 0, "velocity": 0, "duration": 155}, {"note": 78, "velocity": 127, "duration": 704}, {"note": 0, "velocity": 0, "duration": 736}, {"note": 78, "velocity": 127, "duration": 318}, {"note": 0, "velocity": 0, "duration": 162}, {"note": 78, "velocity": 122, "duration": 323}, {"note": 0, "velocity": 0, "duration": 157}, {"note": 83, "velocity": 122, "duration": 338}, {"note": 0, "velocity": 0, "duration": 142}, {"note": 78, "velocity": 117, "duration": 340}, {"note": 76, "velocity": 117, "duration": 1110}, {"note": 75, "velocity": 100, "duration": 95}, {"note": 0, "velocity": 0, "duration": 145}, {"note": 75, "velocity": 107, "duration": 86}, {"note": 0, "velocity": 0, "duration": 154}, {"note": 75, "velocity": 112, "duration": 194}, {"note": 0, "velocity": 0, "duration": 286}, {"note": 75, "velocity": 127, "duration": 229}, {"note": 0, "velocity": 0, "duration": 251}, {"note": 71, "velocity": 102, "duration": 337}, {"note": 0, "velocity": 0, "duration": 143}, {"note": 68, "velocity": 117, "duration": 469}, {"note": 0, "velocity": 0, "duration": 251}, {"note": 75, "velocity": 97, "duration": 187}, {"note": 73, "velocity": 122, "duration": 861}, {"note": 0, "velocity": 0, "duration": 99}, {"note": 75, "velocity": 107, "duration": 286}, {"note": 0, "velocity": 0, "duration": 194}, {"note": 76, "velocity": 95, "duration": 259}, {"note": 0, "velocity": 0, "duration": 221}, {"note": 78, "velocity": 112, "duration": 473}, {"note": 0, "velocity": 0, "duration": 487}, {"note": 80, "velocity": 122, "duration": 799}, {"note": 0, "velocity": 0, "duration": 161}, {"note": 83, "velocity": 102, "duration": 333}, {"note": 0, "velocity": 0, "duration": 147}, {"note": 78, "velocity": 127, "duration": 810}, {"note": 78, "velocity": 127, "duration": 690}, {"note": 0, "velocity": 0, "duration": 270}, {"note": 83, "velocity": 122, "duration": 306}, {"note": 0, "velocity": 0, "duration": 141}, {"note": 85, "velocity": 127, "duration": 185}, {"note": 83, "velocity": 86, "duration": 208}, {"note": 78, "velocity": 100, "duration": 157}, {"note": 76, "velocity": 92, "duration": 752}, {"note": 0, "velocity": 0, "duration": 205}, {"note": 75, "velocity": 117, "duration": 74}, {"note": 0, "velocity": 0, "duration": 166}, {"note": 75, "velocity": 88, "duration": 111}, {"note": 0, "velocity": 0, "duration": 129}, {"note": 75, "velocity": 96, "duration": 218}, {"note": 0, "velocity": 0, "duration": 262}, {"note": 76, "velocity": 122, "duration": 294}, {"note": 0, "velocity": 0, "duration": 186}, {"note": 78, "velocity": 102, "duration": 338}, {"note": 0, "velocity": 0, "duration": 142}, {"note": 75, "velocity": 117, "duration": 445}, {"note": 0, "velocity": 0, "duration": 275}, {"note": 71, "velocity": 85, "duration": 222}, {"note": 73, "velocity": 107, "duration": 782}, {"note": 0, "velocity": 0, "duration": 418}, {"note": 80, "velocity": 117, "duration": 98}, {"note": 0, "velocity": 0, "duration": 142}, {"note": 80, "velocity": 127, "duration": 264}, {"note": 78, "velocity": 117, "duration": 177}, {"note": 80, "velocity": 122, "duration": 378}, {"note": 0, "velocity": 0, "duration": 602}, {"note": 81, "velocity": 127, "duration": 743}, {"note": 0, "velocity": 0, "duration": 217}, {"note": 80, "velocity": 122, "duration": 325}, {"note": 0, "velocity": 0, "duration": 187}, {"note": 81, "velocity": 127, "duration": 227}, {"note": 80, "velocity": 82, "duration": 187}, {"note": 78, "velocity": 127, "duration": 758}, {"note": 0, "velocity": 0, "duration": 276}, {"note": 78, "velocity": 127, "duration": 318}, {"note": 0, "velocity": 0, "duration": 162}, {"note": 78, "velocity": 122, "duration": 323}, {"note": 0, "velocity": 0, "duration": 157}, {"note": 83, "velocity": 122, "duration": 338}, {"note": 0, "velocity": 0, "duration": 142}, {"note": 76, "velocity": 117, "duration": 424}, {"note": 0, "velocity": 0, "duration": 261}, {"note": 78, "velocity": 117, "duration": 154}, {"note": 80, "velocity": 112, "duration": 284}, {"note": 0, "velocity": 0, "duration": 298}, {"note": 75, "velocity": 100, "duration": 95}, {"note": 0, "velocity": 0, "duration": 145}, {"note": 75, "velocity": 107, "duration": 86}, {"note": 0, "velocity": 0, "duration": 154}, {"note": 75, "velocity": 112, "duration": 194}, {"note": 0, "velocity": 0, "duration": 286}, {"note": 75, "velocity": 127, "duration": 229}, {"note": 0, "velocity": 0, "duration": 251}, {"note": 78, "velocity": 102, "duration": 337}, {"note": 0, "velocity": 0, "duration": 143}, {"note": 75, "velocity": 117, "duration": 469}, {"note": 0, "velocity": 0, "duration": 251}, {"note": 71, "velocity": 97, "duration": 187}, {"note": 73, "velocity": 122, "duration": 861}, {"note": 0, "velocity": 0, "duration": 99}, {"note": 75, "velocity": 107, "duration": 286}, {"note": 0, "velocity": 0, "duration": 194}, {"note": 76, "velocity": 95, "duration": 259}, {"note": 0, "velocity": 0, "duration": 221}, {"note": 78, "velocity": 112, "duration": 473}, {"note": 0, "velocity": 0, "duration": 487}, {"note": 80, "velocity": 122, "duration": 799}, {"note": 0, "velocity": 0, "duration": 161}, {"note": 76, "velocity": 102, "duration": 333}, {"note": 0, "velocity": 0, "duration": 147}, {"note": 78, "velocity": 127, "duration": 810}, {"note": 78, "velocity": 127, "duration": 690}, {"note": 0, "velocity": 0, "duration": 270}, {"note": 80, "velocity": 122, "duration": 306}, {"note": 0, "velocity": 0, "duration": 174}, {"note": 73, "velocity": 117, "duration": 922}, {"note": 75, "velocity": 117, "duration": 74}, {"note": 0, "velocity": 0, "duration": 166}, {"note": 75, "velocity": 88, "duration": 111}, {"note": 0, "velocity": 0, "duration": 129}, {"note": 75, "velocity": 96, "duration": 218}, {"note": 0, "velocity": 0, "duration": 262}, {"note": 75, "velocity": 122, "duration": 294}, {"note": 0, "velocity": 0, "duration": 186}, {"note": 76, "velocity": 102, "duration": 338}, {"note": 0, "velocity": 0, "duration": 142}, {"note": 75, "velocity": 117, "duration": 445}, {"note": 0, "velocity": 0, "duration": 275}, {"note": 71, "velocity": 85, "duration": 222}, {"note": 73, "velocity": 107, "duration": 782}, {"note": 0, "velocity": 0, "duration": 418}, {"note": 80, "velocity": 117, "duration": 98}, {"note": 0, "velocity": 0, "duration": 142}, {"note": 80, "velocity": 127, "duration": 513}, {"note": 0, "velocity": 0, "duration": 927}, {"note": 81, "velocity": 127, "duration": 743}, {"note": 0, "velocity": 0, "duration": 217}, {"note": 80, "velocity": 122, "duration": 325}, {"note": 0, "velocity": 0, "duration": 155}, {"note": 78, "velocity": 127, "duration": 704}, {"note": 0, "velocity": 0, "duration": 736}, {"note": 78, "velocity": 127, "duration": 318}, {"note": 0, "velocity": 0, "duration": 162}, {"note": 78, "velocity": 122, "duration": 323}, {"note": 0, "velocity": 0, "duration": 157}, {"note": 83, "velocity": 122, "duration": 338}, {"note": 0, "velocity": 0, "duration": 142}, {"note": 78, "velocity": 117, "duration": 1440}, {"note": 75, "velocity": 100, "duration": 95}, {"note": 0, "velocity": 0, "duration": 145}, {"note": 75, "velocity": 107, "duration": 86}, {"note": 0, "velocity": 0, "duration": 154}, {"note": 75, "velocity": 112, "duration": 194}, {"note": 0, "velocity": 0, "duration": 286}, {"note": 75, "velocity": 127, "duration": 229}, {"note": 0, "velocity": 0, "duration": 251}, {"note": 71, "velocity": 102, "duration": 337}, {"note": 0, "velocity": 0, "duration": 143}, {"note": 68, "velocity": 117, "duration": 469}, {"note": 0, "velocity": 0, "duration": 251}, {"note": 75, "velocity": 97, "duration": 187}, {"note": 73, "velocity": 122, "duration": 861}, {"note": 0, "velocity": 0, "duration": 99}, {"note": 75, "velocity": 107, "duration": 286}, {"note": 0, "velocity": 0, "duration": 194}, {"note": 76, "velocity": 95, "duration": 259}, {"note": 0, "velocity": 0, "duration": 221}, {"note": 78, "velocity": 112, "duration": 473}]]