[[{"note": 69, "velocity": 102, "duration": 105}, {"note": 0, "velocity": 0, "duration": 135}, {"note": 69, "velocity": 102, "duration": 229}, {"note": 71, "velocity": 112, "duration": 248}, {"note": 73, "velocity": 122, "duration": 334}, {"note": 0, "velocity": 0, "duration": 146}, {"note": 73, "velocity": 127, "duration": 578}, {"note": 0, "velocity": 0, "duration": 142}, {"note": 69, "velocity": 99, "duration": 87}, {"note": 0, "velocity": 0, "duration": 153}, {"note": 69, "velocity": 102, "duration": 187}, {"note": 71, "velocity": 97, "duration": 86}, {"note": 0, "velocity": 0, "duration": 154}, {"note": 73, "velocity": 127, "duration": 82}, {"note": 0, "velocity": 0, "duration": 158}, {"note": 73, "velocity": 112, "duration": 379}, {"note": 0, "velocity": 0, "duration": 341}, {"note": 69, "velocity": 97, "duration": 115}, {"note": 0, "velocity": 0, "duration": 125}, {"note": 69, "velocity": 117, "duration": 225}, {"note": 0, "velocity": 0, "duration": 255}, {"note": 69, "velocity": 96, "duration": 330}, {"note": 0, "velocity": 0, "duration": 150}, {"note": 66, "velocity": 102, "duration": 356}, {"note": 0, "velocity": 0, "duration": 364}, {"note": 71, "velocity": 95, "duration": 168}, {"note": 0, "velocity": 0, "duration": 72}, {"note": 73, "velocity": 117, "duration": 333}, {"note": 0, "velocity": 0, "duration": 147}, {"note": 73, "velocity": 96, "duration": 110}, {"note": 0, "velocity": 0, "duration": 130}, {"note": 73, "velocity": 102, "duration": 171}, {"note": 0, "velocity": 0, "duration": 69}, {"note": 64, "velocity": 100, "duration": 785}, {"note": 0, "velocity": 0, "duration": 175}, {"note": 69, "velocity": 92, "duration": 120}, {"note": 0, "velocity": 0, "duration": 120}, {"note": 71, "velocity": 102, "duration": 209}, {"note": 69, "velocity": 81, "duration": 277}, {"note": 73, "velocity": 117, "duration": 250}, {"note": 0, "velocity": 0, "duration": 230}, {"note": 73, "velocity": 112, "duration": 684}, {"note": 69, "velocity": 92, "duration": 65}, {"note": 0, "velocity": 0, "duration": 175}, {"note": 69, "velocity": 97, "duration": 224}, {"note": 71, "velocity": 96, "duration": 93}, {"note": 0, "velocity": 0, "duration": 147}, {"note": 73, "velocity": 122, "duration": 73}, {"note": 0, "velocity": 0, "duration": 167}, {"note": 73, "velocity": 112, "duration": 601}, {"note": 0, "velocity": 0, "duration": 119}, {"note": 69, "velocity": 97, "duration": 65}, {"note": 0, "velocity": 0, "duration": 175}, {"note": 69, "velocity": 99, "duration": 290}, {"note": 0, "velocity": 0, "duration": 190}, {"note": 66, "velocity": 99, "duration": 149}, {"note": 0, "velocity": 0, "duration": 91}, {"note": 73, "velocity": 122, "duration": 121}, {"note": 0, "velocity": 0, "duration": 359}, {"note": 71, "velocity": 102, "duration": 530}, {"note": 71, "velocity": 93, "duration": 50}, {"note": 0, "velocity": 0, "duration": 190}, {"note": 71, "velocity": 88, "duration": 119}, {"note": 0, "velocity": 0, "duration": 121}, {"note": 73, "velocity": 117, "duration": 182}, {"note": 71, "velocity": 83, "duration": 106}, {"note": 0, "velocity": 0, "duration": 134}, {"note": 71, "velocity": 107, "duration": 108}, {"note": 0, "velocity": 0, "duration": 132}, {"note": 69, "velocity": 93, "duration": 1422}, {"note": 0, "velocity": 0, "duration": 2898}, {"note": 71, "velocity": 86, "duration": 92}, {"note": 0, "velocity": 0, "duration": 148}, {"note": 71, "velocity": 83, "duration": 107}, {"note": 0, "velocity": 0, "duration": 133}, {"note": 71, "velocity": 93, "duration": 96}, {"note": 0, "velocity": 0, "duration": 144}, {"note": 71, "velocity": 97, "duration": 120}, {"note": 0, "velocity": 0, "duration": 120}, {"note": 73, "velocity": 122, "duration": 281}, {"note": 0, "velocity": 0, "duration": 199}, {"note": 71, "velocity": 102, "duration": 592}, {"note": 71, "velocity": 95, "duration": 112}, {"note": 0, "velocity": 0, "duration": 128}, {"note": 71, "velocity": 99, "duration": 112}, {"note": 0, "velocity": 0, "duration": 128}, {"note": 71, "velocity": 97, "duration": 106}, {"note": 0, "velocity": 0, "duration": 134}, {"note": 71, "velocity": 107, "duration": 127}, {"note": 0, "velocity": 0, "duration": 113}, {"note": 73, "velocity": 127, "duration": 272}, {"note": 0, "velocity": 0, "duration": 208}, {"note": 71, "velocity": 117, "duration": 270}, {"note": 0, "velocity": 0, "duration": 450}, {"note": 78, "velocity": 122, "duration": 165}, {"note": 0, "velocity": 0, "duration": 75}, {"note": 76, "velocity": 97, "duration": 98}, {"note": 0, "velocity": 0, "duration": 142}, {"note": 76, "velocity": 112, "duration": 86}, {"note": 0, "velocity": 0, "duration": 154}, {"note": 76, "velocity": 127, "duration": 105}, {"note": 0, "velocity": 0, "duration": 375}, {"note": 73, "velocity": 112, "duration": 113}, {"note": 0, "velocity": 0, "duration": 127}, {"note": 71, "velocity": 96, "duration": 163}, {"note": 0, "velocity": 0, "duration": 77}, {"note": 71, "velocity": 107, "duration": 244}, {"note": 0, "velocity": 0, "duration": 236}, {"note": 73, "velocity": 122, "duration": 698}, {"note": 0, "velocity": 0, "duration": 742}, {"note": 71, "velocity": 81, "duration": 94}, {"note": 0, "velocity": 0, "duration": 146}, {"note": 71, "velocity": 82, "duration": 120}, {"note": 0, "velocity": 0, "duration": 120}, {"note": 71, "velocity": 86, "duration": 100}, {"note": 0, "velocity": 0, "duration": 140}, {"note": 71, "velocity": 93, "duration": 146}, {"note": 0, "velocity": 0, "duration": 94}, {"note": 73, "velocity": 102, "duration": 303}, {"note": 0, "velocity": 0, "duration": 177}, {"note": 71, "velocity": 100, "duration": 251}, {"note": 0, "velocity": 0, "duration": 229}, {"note": 71, "velocity": 96, "duration": 76}, {"note": 0, "velocity": 0, "duration": 164}, {"note": 71, "velocity": 89, "duration": 79}, {"note": 0, "velocity": 0, "duration": 161}, {"note": 71, "velocity": 86, "duration": 79}, {"note": 0, "velocity": 0, "duration": 161}, {"note": 71, "velocity": 99, "duration": 139}, {"note": 0, "velocity": 0, "duration": 101}, {"note": 73, "velocity": 102, "duration": 288}, {"note": 0, "velocity": 0, "duration": 192}, {"note": 76, "velocity": 107, "duration": 806}, {"note": 78, "velocity": 117, "duration": 192}, {"note": 76, "velocity": 93, "duration": 119}, {"note": 0, "velocity": 0, "duration": 121}, {"note": 76, "velocity": 93, "duration": 101}, {"note": 0, "velocity": 0, "duration": 139}, {"note": 76, "velocity": 100, "duration": 102}, {"note": 0, "velocity": 0, "duration": 378}, {"note": 73, "velocity": 112, "duration": 223}, {"note": 78, "velocity": 112, "duration": 230}, {"note": 0, "velocity": 0, "duration": 250}, {"note": 78, "velocity": 127, "duration": 408}, {"note": 0, "velocity": 0, "duration": 72}, {"note": 76, "velocity": 107, "duration": 1286}, {"note": 0, "velocity": 0, "duration": 1834}, {"note": 73, "velocity": 92, "duration": 124}, {"note": 0, "velocity": 0, "duration": 116}, {"note": 73, "velocity": 99, "duration": 161}, {"note": 0, "velocity": 0, "duration": 79}, {"note": 71, "velocity": 89, "duration": 122}, {"note": 0, "velocity": 0, "duration": 118}, {"note": 73, "velocity": 102, "duration": 146}, {"note": 0, "velocity": 0, "duration": 94}, {"note": 78, "velocity": 112, "duration": 370}, {"note": 0, "velocity": 0, "duration": 110}, {"note": 76, "velocity": 100, "duration": 245}, {"note": 0, "velocity": 0, "duration": 235}, {"note": 76, "velocity": 90, "duration": 72}, {"note": 0, "velocity": 0, "duration": 168}, {"note": 76, "velocity": 102, "duration": 141}, {"note": 0, "velocity": 0, "duration": 99}, {"note": 74, "velocity": 99, "duration": 175}, {"note": 0, "velocity": 0, "duration": 65}, {"note": 73, "velocity": 117, "duration": 175}, {"note": 0, "velocity": 0, "duration": 65}, {"note": 74, "velocity": 107, "duration": 18}, {"note": 0, "velocity": 0, "duration": 222}, {"note": 73, "velocity": 122, "duration": 527}, {"note": 0, "velocity": 0, "duration": 193}, {"note": 73, "velocity": 127, "duration": 181}, {"note": 71, "velocity": 85, "duration": 83}, {"note": 0, "velocity": 0, "duration": 157}, {"note": 71, "velocity": 97, "duration": 146}, {"note": 0, "velocity": 0, "duration": 94}, {"note": 73, "velocity": 117, "duration": 267}, {"note": 0, "velocity": 0, "duration": 213}, {"note": 71, "velocity": 102, "duration": 148}, {"note": 0, "velocity": 0, "duration": 92}, {"note": 69, "velocity": 107, "duration": 292}, {"note": 0, "velocity": 0, "duration": 188}, {"note": 78, "velocity": 127, "duration": 246}, {"note": 0, "velocity": 0, "duration": 234}, {"note": 76, "velocity": 127, "duration": 127}, {"note": 0, "velocity": 0, "duration": 113}, {"note": 78, "velocity": 117, "duration": 148}, {"note": 0, "velocity": 0, "duration": 92}, {"note": 76, "velocity": 107, "duration": 86}, {"note": 0, "velocity": 0, "duration": 154}, {"note": 73, "velocity": 117, "duration": 268}, {"note": 0, "velocity": 0, "duration": 452}, {"note": 73, "velocity": 127, "duration": 68}, {"note": 0, "velocity": 0, "duration": 172}, {"note": 73, "velocity": 122, "duration": 95}, {"note": 0, "velocity": 0, "duration": 145}, {"note": 71, "velocity": 97, "duration": 88}, {"note": 0, "velocity": 0, "duration": 152}, {"note": 73, "velocity": 127, "duration": 64}, {"note": 0, "velocity": 0, "duration": 176}, {"note": 78, "velocity": 112, "duration": 318}, {"note": 0, "velocity": 0, "duration": 162}, {"note": 76, "velocity": 127, "duration": 311}, {"note": 0, "velocity": 0, "duration": 169}, {"note": 76, "velocity": 109, "duration": 100}, {"note": 0, "velocity": 0, "duration": 140}, {"note": 76, "velocity": 112, "duration": 178}, {"note": 0, "velocity": 0, "duration": 62}, {"note": 74, "velocity": 102, "duration": 102}, {"note": 0, "velocity": 0, "duration": 138}, {"note": 73, "velocity": 117, "duration": 96}, {"note": 0, "velocity": 0, "duration": 144}, {"note": 74, "velocity": 102, "duration": 144}, {"note": 0, "velocity": 0, "duration": 96}, {"note": 73, "velocity": 127, "duration": 297}, {"note": 0, "velocity": 0, "duration": 663}, {"note": 73, "velocity": 127, "duration": 97}, {"note": 0, "velocity": 0, "duration": 143}, {"note": 71, "velocity": 93, "duration": 73}, {"note": 0, "velocity": 0, "duration": 167}, {"note": 71, "velocity": 93, "duration": 115}, {"note": 0, "velocity": 0, "duration": 125}, {"note": 73, "velocity": 117, "duration": 130}, {"note": 71, "velocity": 99, "duration": 229}, {"note": 73, "velocity": 100, "duration": 348}, {"note": 0, "velocity": 0, "duration": 372}, {"note": 71, "velocity": 99, "duration": 113}, {"note": 0, "velocity": 0, "duration": 127}, {"note": 66, "velocity": 107, "duration": 196}, {"note": 69, "velocity": 107, "duration": 1446}, {"note": 71, "velocity": 99, "duration": 225}, {"note": 73, "velocity": 117, "duration": 315}, {"note": 0, "velocity": 0, "duration": 405}, {"note": 73, "velocity": 117, "duration": 285}, {"note": 0, "velocity": 0, "duration": 75}, {"note": 69, "velocity": 95, "duration": 1574}, {"note": 0, "velocity": 0, "duration": 9826}, {"note": 71, "velocity": 86, "duration": 92}, {"note": 0, "velocity": 0, "duration": 148}, {"note": 71, "velocity": 83, "duration": 107}, {"note": 0, "velocity": 0, "duration": 133}, {"note": 71, "velocity": 93, "duration": 96}, {"note": 0, "velocity": 0, "duration": 144}, {"note": 71, "velocity": 97, "duration": 120}, {"note": 0, "velocity": 0, "duration": 120}, {"note": 73, "velocity": 122, "duration": 281}, {"note": 0, "velocity": 0, "duration": 199}, {"note": 71, "velocity": 102, "duration": 592}, {"note": 71, "velocity": 95, "duration": 112}, {"note": 0, "velocity": 0, "duration": 128}, {"note": 71, "velocity": 99, "duration": 112}, {"note": 0, "velocity": 0, "duration": 128}, {"note": 71, "velocity": 97, "duration": 106}, {"note": 0, "velocity": 0, "duration": 134}, {"note": 71, "velocity": 107, "duration": 127}, {"note": 0, "velocity": 0, "duration": 113}, {"note": 73, "velocity": 127, "duration": 272}, {"note": 0, "velocity": 0, "duration": 208}, {"note": 71, "velocity": 117, "duration": 270}, {"note": 0, "velocity": 0, "duration": 450}, {"note": 78, "velocity": 122, "duration": 165}, {"note": 0, "velocity": 0, "duration": 75}, {"note": 76, "velocity": 97, "duration": 98}, {"note": 0, "velocity": 0, "duration": 142}, {"note": 76, "velocity": 112, "duration": 86}, {"note": 0, "velocity": 0, "duration": 154}, {"note": 76, "velocity": 127, "duration": 105}, {"note": 0, "velocity": 0, "duration": 375}, {"note": 73, "velocity": 112, "duration": 113}, {"note": 0, "velocity": 0, "duration": 127}, {"note": 71, "velocity": 96, "duration": 163}, {"note": 0, "velocity": 0, "duration": 77}, {"note": 71, "velocity": 107, "duration": 244}, {"note": 0, "velocity": 0, "duration": 236}, {"note": 73, "velocity": 122, "duration": 698}, {"note": 0, "velocity": 0, "duration": 742}, {"note": 71, "velocity": 81, "duration": 94}, {"note": 0, "velocity": 0, "duration": 146}, {"note": 71, "velocity": 82, "duration": 120}, {"note": 0, "velocity": 0, "duration": 120}, {"note": 71, "velocity": 86, "duration": 100}, {"note": 0, "velocity": 0, "duration": 140}, {"note": 71, "velocity": 93, "duration": 146}, {"note": 0, "velocity": 0, "duration": 94}, {"note": 73, "velocity": 102, "duration": 303}, {"note": 0, "velocity": 0, "duration": 177}, {"note": 71, "velocity": 100, "duration": 251}, {"note": 0, "velocity": 0, "duration": 229}, {"note": 71, "velocity": 96, "duration": 76}, {"note": 0, "velocity": 0, "duration": 164}, {"note": 71, "velocity": 89, "duration": 79}, {"note": 0, "velocity": 0, "duration": 161}, {"note": 71, "velocity": 86, "duration": 79}, {"note": 0, "velocity": 0, "duration": 161}, {"note": 71, "velocity": 99, "duration": 139}, {"note": 0, "velocity": 0, "duration": 101}, {"note": 73, "velocity": 102, "duration": 288}, {"note": 0, "velocity": 0, "duration": 192}, {"note": 76, "velocity": 107, "duration": 806}, {"note": 78, "velocity": 117, "duration": 192}, {"note": 76, "velocity": 93, "duration": 119}, {"note": 0, "velocity": 0, "duration": 121}, {"note": 76, "velocity": 93, "duration": 101}, {"note": 0, "velocity": 0, "duration": 139}, {"note": 76, "velocity": 100, "duration": 102}, {"note": 0, "velocity": 0, "duration": 378}, {"note": 73, "velocity": 112, "duration": 223}, {"note": 78, "velocity": 112, "duration": 230}, {"note": 0, "velocity": 0, "duration": 250}, {"note": 78, "velocity": 127, "duration": 408}, {"note": 0, "velocity": 0, "duration": 72}, {"note": 76, "velocity": 107, "duration": 1286}, {"note": 0, "velocity": 0, "duration": 1834}, {"note": 73, "velocity": 92, "duration": 124}, {"note": 0, "velocity": 0, "duration": 116}, {"note": 73, "velocity": 99, "duration": 161}, {"note": 0, "velocity": 0, "duration": 79}, {"note": 71, "velocity": 89, "duration": 122}, {"note": 0, "velocity": 0, "duration": 118}, {"note": 73, "velocity": 102, "duration": 146}, {"note": 0, "velocity": 0, "duration": 94}, {"note": 78, "velocity": 112, "duration": 370}, {"note": 0, "velocity": 0, "duration": 110}, {"note": 76, "velocity": 100, "duration": 245}, {"note": 0, "velocity": 0, "duration": 235}, {"note": 76, "velocity": 90, "duration": 72}, {"note": 0, "velocity": 0, "duration": 168}, {"note": 76, "velocity": 102, "duration": 141}, {"note": 0, "velocity": 0, "duration": 99}, {"note": 74, "velocity": 99, "duration": 175}, {"note": 0, "velocity": 0, "duration": 65}, {"note": 73, "velocity": 117, "duration": 175}, {"note": 0, "velocity": 0, "duration": 65}, {"note": 74, "velocity": 107, "duration": 258}, {"note": 0, "velocity": 0, "duration": 222}, {"note": 73, "velocity": 122, "duration": 527}, {"note": 0, "velocity": 0, "duration": 193}, {"note": 73, "velocity": 127, "duration": 181}, {"note": 71, "velocity": 85, "duration": 83}, {"note": 0, "velocity": 0, "duration": 157}, {"note": 71, "velocity": 97, "duration": 146}, {"note": 0, "velocity": 0, "duration": 94}, {"note": 73, "velocity": 117, "duration": 267}, {"note": 0, "velocity": 0, "duration": 213}, {"note": 71, "velocity": 102, "duration": 148}, {"note": 0, "velocity": 0, "duration": 92}, {"note": 69, "velocity": 107, "duration": 292}, {"note": 0, "velocity": 0, "duration": 188}, {"note": 78, "velocity": 127, "duration": 246}, {"note": 0, "velocity": 0, "duration": 234}, {"note": 76, "velocity": 127, "duration": 127}, {"note": 0, "velocity": 0, "duration": 113}, {"note": 78, "velocity": 117, "duration": 148}, {"note": 0, "velocity": 0, "duration": 92}, {"note": 76, "velocity": 107, "duration": 86}, {"note": 0, "velocity": 0, "duration": 154}, {"note": 73, "velocity": 117, "duration": 508}, {"note": 0, "velocity": 0, "duration": 452}, {"note": 73, "velocity": 127, "duration": 68}, {"note": 0, "velocity": 0, "duration": 172}, {"note": 73, "velocity": 122, "duration": 95}, {"note": 0, "velocity": 0, "duration": 145}, {"note": 71, "velocity": 97, "duration": 88}, {"note": 0, "velocity": 0, "duration": 152}, {"note": 73, "velocity": 127, "duration": 64}, {"note": 0, "velocity": 0, "duration": 176}, {"note": 78, "velocity": 112, "duration": 318}, {"note": 0, "velocity": 0, "duration": 162}, {"note": 76, "velocity": 127, "duration": 311}, {"note": 76, "velocity": 73, "duration": 100}, {"note": 0, "velocity": 0, "duration": 140}, {"note": 76, "velocity": 112, "duration": 178}, {"note": 0, "velocity": 0, "duration": 182}, {"note": 74, "velocity": 102, "duration": 102}, {"note": 0, "velocity": 0, "duration": 138}, {"note": 73, "velocity": 117, "duration": 96}, {"note": 0, "velocity": 0, "duration": 144}, {"note": 74, "velocity": 102, "duration": 144}, {"note": 0, "velocity": 0, "duration": 96}, {"note": 73, "velocity": 127, "duration": 297}, {"note": 0, "velocity": 0, "duration": 663}, {"note": 73, "velocity": 127, "duration": 97}, {"note": 0, "velocity": 0, "duration": 143}, {"note": 71, "velocity": 93, "duration": 73}, {"note": 0, "velocity": 0, "duration": 167}, {"note": 71, "velocity": 93, "duration": 115}, {"note": 0, "velocity": 0, "duration": 125}, {"note": 73, "velocity": 117, "duration": 130}, {"note": 0, "velocity": 0, "duration": 110}, {"note": 71, "velocity": 99, "duration": 229}, {"note": 73, "velocity": 100, "duration": 348}, {"note": 0, "velocity": 0, "duration": 372}, {"note": 71, "velocity": 99, "duration": 113}, {"note": 0, "velocity": 0, "duration": 127}, {"note": 66, "velocity": 107, "duration": 196}, {"note": 69, "velocity": 107, "duration": 1446}, {"note": 71, "velocity": 99, "duration": 225}, {"note": 73, "velocity": 117, "duration": 315}, {"note": 0, "velocity": 0, "duration": 405}, {"note": 73, "velocity": 117, "duration": 285}, {"note": 0, "velocity": 0, "duration": 75}, {"note": 69, "velocity": 95, "duration": 1574}, {"note": 0, "velocity": 0, "duration": 9826}, {"note": 74, "velocity": 92, "duration": 124}, {"note": 0, "velocity": 0, "duration": 116}, {"note": 74, "velocity": 99, "duration": 161}, {"note": 0, "velocity": 0, "duration": 79}, {"note": 72, "velocity": 89, "duration": 122}, {"note": 0, "velocity": 0, "duration": 118}, {"note": 74, "velocity": 102, "duration": 146}, {"note": 0, "velocity": 0, "duration": 94}, {"note": 79, "velocity": 112, "duration": 370}, {"note": 0, "velocity": 0, "duration": 110}, {"note": 77, "velocity": 100, "duration": 245}, {"note": 0, "velocity": 0, "duration": 235}, {"note": 77, "velocity": 90, "duration": 72}, {"note": 0, "velocity": 0, "duration": 168}, {"note": 77, "velocity": 102, "duration": 141}, {"note": 0, "velocity": 0, "duration": 99}, {"note": 75, "velocity": 99, "duration": 175}, {"note": 0, "velocity": 0, "duration": 65}, {"note": 74, "velocity": 117, "duration": 175}, {"note": 0, "velocity": 0, "duration": 65}, {"note": 75, "velocity": 107, "duration": 258}, {"note": 0, "velocity": 0, "duration": 222}, {"note": 74, "velocity": 122, "duration": 527}, {"note": 0, "velocity": 0, "duration": 193}, {"note": 74, "velocity": 127, "duration": 181}, {"note": 72, "velocity": 85, "duration": 83}, {"note": 0, "velocity": 0, "duration": 157}, {"note": 72, "velocity": 97, "duration": 146}, {"note": 0, "velocity": 0, "duration": 94}, {"note": 74, "velocity": 117, "duration": 267}, {"note": 0, "velocity": 0, "duration": 213}, {"note": 72, "velocity": 102, "duration": 148}, {"note": 0, "velocity": 0, "duration": 92}, {"note": 70, "velocity": 107, "duration": 292}, {"note": 0, "velocity": 0, "duration": 188}, {"note": 79, "velocity": 127, "duration": 246}, {"note": 0, "velocity": 0, "duration": 234}, {"note": 77, "velocity": 127, "duration": 127}, {"note": 0, "velocity": 0, "duration": 113}, {"note": 79, "velocity": 117, "duration": 148}, {"note": 0, "velocity": 0, "duration": 92}, {"note": 77, "velocity": 107, "duration": 86}, {"note": 0, "velocity": 0, "duration": 154}, {"note": 74, "velocity": 117, "duration": 508}, {"note": 0, "velocity": 0, "duration": 452}, {"note": 74, "velocity": 127, "duration": 68}, {"note": 0, "velocity": 0, "duration": 172}, {"note": 74, "velocity": 122, "duration": 95}, {"note": 0, "velocity": 0, "duration": 145}, {"note": 72, "velocity": 97, "duration": 88}, {"note": 0, "velocity": 0, "duration": 152}, {"note": 74, "velocity": 127, "duration": 64}, {"note": 0, "velocity": 0, "duration": 176}, {"note": 79, "velocity": 112, "duration": 318}, {"note": 0, "velocity": 0, "duration": 162}, {"note": 77, "velocity": 127, "duration": 311}, {"note": 77, "velocity": 73, "duration": 100}, {"note": 0, "velocity": 0, "duration": 140}, {"note": 77, "velocity": 112, "duration": 178}, {"note": 0, "velocity": 0, "duration": 182}, {"note": 75, "velocity": 102, "duration": 102}, {"note": 0, "velocity": 0, "duration": 138}, {"note": 74, "velocity": 117, "duration": 96}, {"note": 0, "velocity": 0, "duration": 144}, {"note": 75, "velocity": 102, "duration": 144}, {"note": 0, "velocity": 0, "duration": 96}, {"note": 74, "velocity": 127, "duration": 297}, {"note": 0, "velocity": 0, "duration": 663}, {"note": 74, "velocity": 127, "duration": 97}, {"note": 0, "velocity": 0, "duration": 143}, {"note": 72, "velocity": 93, "duration": 73}, {"note": 0, "velocity": 0, "duration": 167}, {"note": 72, "velocity": 93, "duration": 115}, {"note": 0, "velocity": 0, "duration": 125}, {"note": 74, "velocity": 117, "duration": 130}, {"note": 0, "velocity": 0, "duration": 110}, {"note": 72, "velocity": 99, "duration": 229}, {"note": 74, "velocity": 100, "duration": 348}, {"note": 0, "velocity": 0, "duration": 372}, {"note": 72, "velocity": 99, "duration": 113}, {"note": 0, "velocity": 0, "duration": 127}, {"note": 67, "velocity": 107, "duration": 196}, {"note": 70, "velocity": 107, "duration": 1446}, {"note": 72, "velocity": 99, "duration": 225}, {"note": 74, "velocity": 117, "duration": 315}, {"note": 0, "velocity": 0, "duration": 405}, {"note": 74, "velocity": 117, "duration": 285}, {"note": 0, "velocity": 0, "duration": 195}, {"note": 70, "velocity": 95, "duration": 1574}]]