[[{"note": 73, "velocity": 95, "duration": 193}, {"note": 74, "velocity": 99, "duration": 103}, {"note": 76, "velocity": 107, "duration": 160}, {"note": 0, "velocity": 0, "duration": 200}, {"note": 78, "velocity": 104, "duration": 338}, {"note": 0, "velocity": 0, "duration": 142}, {"note": 73, "velocity": 117, "duration": 78}, {"note": 74, "velocity": 90, "duration": 92}, {"note": 76, "velocity": 93, "duration": 204}, {"note": 76, "velocity": 100, "duration": 50}, {"note": 0, "velocity": 0, "duration": 70}, {"note": 76, "velocity": 89, "duration": 114}, {"note": 0, "velocity": 0, "duration": 126}, {"note": 73, "velocity": 102, "duration": 118}, {"note": 0, "velocity": 0, "duration": 122}, {"note": 71, "velocity": 99, "duration": 466}, {"note": 0, "velocity": 0, "duration": 1094}, {"note": 73, "velocity": 127, "duration": 69}, {"note": 74, "velocity": 71, "duration": 151}, {"note": 76, "velocity": 96, "duration": 50}, {"note": 0, "velocity": 0, "duration": 70}, {"note": 76, "velocity": 97, "duration": 42}, {"note": 0, "velocity": 0, "duration": 78}, {"note": 76, "velocity": 97, "duration": 183}, {"note": 81, "velocity": 99, "duration": 62}, {"note": 80, "velocity": 107, "duration": 238}, {"note": 0, "velocity": 0, "duration": 122}, {"note": 76, "velocity": 122, "duration": 102}, {"note": 74, "velocity": 102, "duration": 199}, {"note": 0, "velocity": 0, "duration": 161}, {"note": 74, "velocity": 97, "duration": 270}, {"note": 0, "velocity": 0, "duration": 450}, {"note": 78, "velocity": 127, "duration": 33}, {"note": 0, "velocity": 0, "duration": 87}, {"note": 78, "velocity": 99, "duration": 44}, {"note": 0, "velocity": 0, "duration": 76}, {"note": 78, "velocity": 102, "duration": 39}, {"note": 0, "velocity": 0, "duration": 81}, {"note": 78, "velocity": 112, "duration": 45}, {"note": 0, "velocity": 0, "duration": 75}, {"note": 77, "velocity": 112, "duration": 149}, {"note": 0, "velocity": 0, "duration": 91}, {"note": 77, "velocity": 112, "duration": 123}, {"note": 0, "velocity": 0, "duration": 597}, {"note": 81, "velocity": 127, "duration": 106}, {"note": 80, "velocity": 89, "duration": 152}, {"note": 78, "velocity": 97, "duration": 40}, {"note": 0, "velocity": 0, "duration": 80}, {"note": 78, "velocity": 122, "duration": 197}, {"note": 0, "velocity": 0, "duration": 163}, {"note": 76, "velocity": 112, "duration": 184}, {"note": 0, "velocity": 0, "duration": 416}, {"note": 76, "velocity": 97, "duration": 79}, {"note": 78, "velocity": 97, "duration": 155}, {"note": 0, "velocity": 0, "duration": 85}, {"note": 76, "velocity": 102, "duration": 72}, {"note": 76, "velocity": 95, "duration": 178}, {"note": 0, "velocity": 0, "duration": 182}, {"note": 69, "velocity": 97, "duration": 166}, {"note": 73, "velocity": 117, "duration": 229}, {"note": 76, "velocity": 122, "duration": 168}, {"note": 0, "velocity": 0, "duration": 432}, {"note": 73, "velocity": 107, "duration": 55}, {"note": 0, "velocity": 0, "duration": 65}, {"note": 74, "velocity": 95, "duration": 112}, {"note": 0, "velocity": 0, "duration": 128}, {"note": 73, "velocity": 112, "duration": 58}, {"note": 0, "velocity": 0, "duration": 62}, {"note": 74, "velocity": 97, "duration": 207}, {"note": 0, "velocity": 0, "duration": 153}, {"note": 78, "velocity": 117, "duration": 159}, {"note": 0, "velocity": 0, "duration": 81}, {"note": 77, "velocity": 117, "duration": 131}, {"note": 0, "velocity": 0, "duration": 109}, {"note": 77, "velocity": 100, "duration": 52}, {"note": 0, "velocity": 0, "duration": 68}, {"note": 78, "velocity": 122, "duration": 114}, {"note": 0, "velocity": 0, "duration": 246}, {"note": 80, "velocity": 112, "duration": 243}, {"note": 78, "velocity": 117, "duration": 457}, {"note": 0, "velocity": 0, "duration": 120}, {"note": 78, "velocity": 102, "duration": 59}, {"note": 0, "velocity": 0, "duration": 61}, {"note": 80, "velocity": 92, "duration": 56}, {"note": 0, "velocity": 0, "duration": 64}, {"note": 81, "velocity": 93, "duration": 71}, {"note": 83, "velocity": 102, "duration": 115}, {"note": 0, "velocity": 0, "duration": 125}, {"note": 81, "velocity": 102, "duration": 52}, {"note": 0, "velocity": 0, "duration": 68}, {"note": 80, "velocity": 122, "duration": 145}, {"note": 0, "velocity": 0, "duration": 215}, {"note": 78, "velocity": 107, "duration": 48}, {"note": 0, "velocity": 0, "duration": 72}, {"note": 76, "velocity": 96, "duration": 397}, {"note": 0, "velocity": 0, "duration": 563}, {"note": 76, "velocity": 99, "duration": 81}, {"note": 74, "velocity": 100, "duration": 134}, {"note": 0, "velocity": 0, "duration": 106}, {"note": 73, "velocity": 107, "duration": 75}, {"note": 74, "velocity": 95, "duration": 154}, {"note": 0, "velocity": 0, "duration": 206}, {"note": 81, "velocity": 112, "duration": 177}, {"note": 0, "velocity": 0, "duration": 63}, {"note": 80, "velocity": 112, "duration": 425}, {"note": 78, "velocity": 122, "duration": 430}, {"note": 77, "velocity": 117, "duration": 329}, {"note": 0, "velocity": 0, "duration": 151}, {"note": 78, "velocity": 127, "duration": 111}, {"note": 80, "velocity": 102, "duration": 78}, {"note": 81, "velocity": 97, "duration": 58}, {"note": 0, "velocity": 0, "duration": 62}, {"note": 81, "velocity": 107, "duration": 194}, {"note": 0, "velocity": 0, "duration": 406}, {"note": 78, "velocity": 127, "duration": 73}, {"note": 80, "velocity": 107, "duration": 53}, {"note": 0, "velocity": 0, "duration": 67}, {"note": 81, "velocity": 112, "duration": 54}, {"note": 0, "velocity": 0, "duration": 66}, {"note": 81, "velocity": 127, "duration": 84}, {"note": 0, "velocity": 0, "duration": 516}, {"note": 78, "velocity": 127, "duration": 59}, {"note": 0, "velocity": 0, "duration": 61}, {"note": 80, "velocity": 96, "duration": 55}, {"note": 0, "velocity": 0, "duration": 65}, {"note": 81, "velocity": 97, "duration": 118}, {"note": 0, "velocity": 0, "duration": 122}, {"note": 83, "velocity": 100, "duration": 139}, {"note": 0, "velocity": 0, "duration": 101}, {"note": 81, "velocity": 112, "duration": 144}, {"note": 0, "velocity": 0, "duration": 96}, {"note": 80, "velocity": 122, "duration": 128}, {"note": 0, "velocity": 0, "duration": 112}, {"note": 78, "velocity": 117, "duration": 42}, {"note": 0, "velocity": 0, "duration": 78}, {"note": 78, "velocity": 117, "duration": 180}, {"note": 76, "velocity": 107, "duration": 354}, {"note": 0, "velocity": 0, "duration": 720}, {"note": 78, "velocity": 117, "duration": 70}, {"note": 76, "velocity": 92, "duration": 47}, {"note": 0, "velocity": 0, "duration": 73}, {"note": 78, "velocity": 127, "duration": 118}, {"note": 0, "velocity": 0, "duration": 122}, {"note": 76, "velocity": 112, "duration": 51}, {"note": 0, "velocity": 0, "duration": 69}, {"note": 74, "velocity": 107, "duration": 280}, {"note": 0, "velocity": 0, "duration": 80}, {"note": 74, "velocity": 112, "duration": 51}, {"note": 0, "velocity": 0, "duration": 69}, {"note": 74, "velocity": 127, "duration": 120}, {"note": 0, "velocity": 0, "duration": 360}, {"note": 78, "velocity": 127, "duration": 64}, {"note": 80, "velocity": 112, "duration": 126}, {"note": 0, "velocity": 0, "duration": 114}, {"note": 80, "velocity": 127, "duration": 46}, {"note": 0, "velocity": 0, "duration": 74}, {"note": 80, "velocity": 122, "duration": 121}, {"note": 0, "velocity": 0, "duration": 239}, {"note": 78, "velocity": 117, "duration": 60}, {"note": 80, "velocity": 127, "duration": 272}, {"note": 0, "velocity": 0, "duration": 328}, {"note": 78, "velocity": 127, "duration": 111}, {"note": 80, "velocity": 102, "duration": 78}, {"note": 81, "velocity": 97, "duration": 58}, {"note": 0, "velocity": 0, "duration": 62}, {"note": 81, "velocity": 107, "duration": 194}, {"note": 0, "velocity": 0, "duration": 406}, {"note": 78, "velocity": 127, "duration": 73}, {"note": 80, "velocity": 107, "duration": 53}, {"note": 0, "velocity": 0, "duration": 67}, {"note": 81, "velocity": 112, "duration": 54}, {"note": 0, "velocity": 0, "duration": 66}, {"note": 81, "velocity": 127, "duration": 84}, {"note": 0, "velocity": 0, "duration": 516}, {"note": 78, "velocity": 127, "duration": 59}, {"note": 0, "velocity": 0, "duration": 61}, {"note": 80, "velocity": 96, "duration": 55}, {"note": 0, "velocity": 0, "duration": 65}, {"note": 81, "velocity": 97, "duration": 118}, {"note": 0, "velocity": 0, "duration": 122}, {"note": 83, "velocity": 100, "duration": 139}, {"note": 0, "velocity": 0, "duration": 101}, {"note": 81, "velocity": 112, "duration": 144}, {"note": 0, "velocity": 0, "duration": 96}, {"note": 80, "velocity": 122, "duration": 128}, {"note": 0, "velocity": 0, "duration": 112}, {"note": 78, "velocity": 117, "duration": 42}, {"note": 0, "velocity": 0, "duration": 78}, {"note": 78, "velocity": 117, "duration": 180}, {"note": 76, "velocity": 107, "duration": 354}, {"note": 0, "velocity": 0, "duration": 366}, {"note": 73, "velocity": 122, "duration": 44}, {"note": 0, "velocity": 0, "duration": 76}, {"note": 74, "velocity": 122, "duration": 149}, {"note": 0, "velocity": 0, "duration": 91}, {"note": 73, "velocity": 127, "duration": 64}, {"note": 74, "velocity": 127, "duration": 107}, {"note": 0, "velocity": 0, "duration": 240}, {"note": 81, "velocity": 122, "duration": 142}, {"note": 0, "velocity": 0, "duration": 98}, {"note": 80, "velocity": 127, "duration": 263}, {"note": 0, "velocity": 0, "duration": 217}, {"note": 77, "velocity": 127, "duration": 403}, {"note": 0, "velocity": 0, "duration": 77}, {"note": 78, "velocity": 127, "duration": 190}, {"note": 0, "velocity": 0, "duration": 4320}, {"note": 73, "velocity": 95, "duration": 193}, {"note": 74, "velocity": 99, "duration": 103}, {"note": 76, "velocity": 107, "duration": 160}, {"note": 0, "velocity": 0, "duration": 200}, {"note": 78, "velocity": 104, "duration": 338}, {"note": 0, "velocity": 0, "duration": 142}, {"note": 73, "velocity": 117, "duration": 78}, {"note": 74, "velocity": 90, "duration": 92}, {"note": 76, "velocity": 93, "duration": 204}, {"note": 76, "velocity": 100, "duration": 50}, {"note": 0, "velocity": 0, "duration": 70}, {"note": 76, "velocity": 89, "duration": 114}, {"note": 0, "velocity": 0, "duration": 126}, {"note": 73, "velocity": 102, "duration": 118}, {"note": 0, "velocity": 0, "duration": 122}, {"note": 71, "velocity": 99, "duration": 466}, {"note": 0, "velocity": 0, "duration": 480}, {"note": 73, "velocity": 127, "duration": 69}, {"note": 74, "velocity": 71, "duration": 151}, {"note": 76, "velocity": 96, "duration": 50}, {"note": 0, "velocity": 0, "duration": 70}, {"note": 76, "velocity": 97, "duration": 42}, {"note": 0, "velocity": 0, "duration": 78}, {"note": 76, "velocity": 97, "duration": 183}, {"note": 81, "velocity": 99, "duration": 62}, {"note": 80, "velocity": 107, "duration": 238}, {"note": 0, "velocity": 0, "duration": 122}, {"note": 76, "velocity": 122, "duration": 102}, {"note": 74, "velocity": 102, "duration": 199}, {"note": 0, "velocity": 0, "duration": 161}, {"note": 74, "velocity": 97, "duration": 270}, {"note": 0, "velocity": 0, "duration": 450}, {"note": 78, "velocity": 127, "duration": 33}, {"note": 0, "velocity": 0, "duration": 87}, {"note": 78, "velocity": 99, "duration": 44}, {"note": 0, "velocity": 0, "duration": 76}, {"note": 78, "velocity": 102, "duration": 39}, {"note": 0, "velocity": 0, "duration": 81}, {"note": 78, "velocity": 112, "duration": 45}, {"note": 0, "velocity": 0, "duration": 75}, {"note": 77, "velocity": 112, "duration": 149}, {"note": 0, "velocity": 0, "duration": 91}, {"note": 77, "velocity": 112, "duration": 123}, {"note": 0, "velocity": 0, "duration": 597}, {"note": 81, "velocity": 127, "duration": 106}, {"note": 80, "velocity": 89, "duration": 152}, {"note": 78, "velocity": 97, "duration": 40}, {"note": 0, "velocity": 0, "duration": 80}, {"note": 78, "velocity": 122, "duration": 197}, {"note": 0, "velocity": 0, "duration": 163}, {"note": 76, "velocity": 112, "duration": 184}, {"note": 0, "velocity": 0, "duration": 416}, {"note": 76, "velocity": 97, "duration": 79}, {"note": 78, "velocity": 97, "duration": 155}, {"note": 0, "velocity": 0, "duration": 85}, {"note": 76, "velocity": 102, "duration": 72}, {"note": 76, "velocity": 95, "duration": 178}, {"note": 0, "velocity": 0, "duration": 182}, {"note": 69, "velocity": 97, "duration": 166}, {"note": 73, "velocity": 117, "duration": 303}, {"note": 76, "velocity": 122, "duration": 168}, {"note": 0, "velocity": 0, "duration": 432}, {"note": 73, "velocity": 107, "duration": 55}, {"note": 74, "velocity": 95, "duration": 112}, {"note": 0, "velocity": 0, "duration": 128}, {"note": 73, "velocity": 112, "duration": 58}, {"note": 0, "velocity": 0, "duration": 62}, {"note": 74, "velocity": 97, "duration": 207}, {"note": 0, "velocity": 0, "duration": 153}, {"note": 78, "velocity": 117, "duration": 159}, {"note": 0, "velocity": 0, "duration": 81}, {"note": 77, "velocity": 117, "duration": 131}, {"note": 0, "velocity": 0, "duration": 109}, {"note": 77, "velocity": 100, "duration": 52}, {"note": 0, "velocity": 0, "duration": 68}, {"note": 78, "velocity": 122, "duration": 114}, {"note": 0, "velocity": 0, "duration": 246}, {"note": 80, "velocity": 112, "duration": 243}, {"note": 78, "velocity": 117, "duration": 457}, {"note": 0, "velocity": 0, "duration": 143}, {"note": 78, "velocity": 102, "duration": 59}, {"note": 0, "velocity": 0, "duration": 61}, {"note": 80, "velocity": 92, "duration": 56}, {"note": 0, "velocity": 0, "duration": 64}, {"note": 81, "velocity": 93, "duration": 71}, {"note": 83, "velocity": 102, "duration": 115}, {"note": 0, "velocity": 0, "duration": 125}, {"note": 81, "velocity": 102, "duration": 52}, {"note": 0, "velocity": 0, "duration": 68}, {"note": 80, "velocity": 122, "duration": 145}, {"note": 0, "velocity": 0, "duration": 215}, {"note": 78, "velocity": 107, "duration": 48}, {"note": 0, "velocity": 0, "duration": 72}, {"note": 76, "velocity": 96, "duration": 397}, {"note": 0, "velocity": 0, "duration": 563}, {"note": 76, "velocity": 99, "duration": 81}, {"note": 74, "velocity": 100, "duration": 134}, {"note": 0, "velocity": 0, "duration": 106}, {"note": 73, "velocity": 107, "duration": 75}, {"note": 74, "velocity": 95, "duration": 154}, {"note": 0, "velocity": 0, "duration": 206}, {"note": 81, "velocity": 112, "duration": 177}, {"note": 0, "velocity": 0, "duration": 63}, {"note": 80, "velocity": 112, "duration": 425}, {"note": 78, "velocity": 122, "duration": 430}, {"note": 77, "velocity": 117, "duration": 329}, {"note": 78, "velocity": 127, "duration": 111}, {"note": 80, "velocity": 102, "duration": 78}, {"note": 81, "velocity": 97, "duration": 58}, {"note": 0, "velocity": 0, "duration": 62}, {"note": 81, "velocity": 107, "duration": 194}, {"note": 0, "velocity": 0, "duration": 406}, {"note": 78, "velocity": 127, "duration": 73}, {"note": 80, "velocity": 107, "duration": 53}, {"note": 0, "velocity": 0, "duration": 67}, {"note": 81, "velocity": 112, "duration": 54}, {"note": 0, "velocity": 0, "duration": 66}, {"note": 81, "velocity": 127, "duration": 84}, {"note": 0, "velocity": 0, "duration": 516}, {"note": 78, "velocity": 127, "duration": 59}, {"note": 0, "velocity": 0, "duration": 61}, {"note": 80, "velocity": 96, "duration": 55}, {"note": 0, "velocity": 0, "duration": 65}, {"note": 81, "velocity": 97, "duration": 118}, {"note": 0, "velocity": 0, "duration": 122}, {"note": 83, "velocity": 100, "duration": 139}, {"note": 0, "velocity": 0, "duration": 101}, {"note": 81, "velocity": 112, "duration": 144}, {"note": 0, "velocity": 0, "duration": 96}, {"note": 80, "velocity": 122, "duration": 128}, {"note": 0, "velocity": 0, "duration": 112}, {"note": 78, "velocity": 117, "duration": 42}, {"note": 0, "velocity": 0, "duration": 78}, {"note": 78, "velocity": 117, "duration": 180}, {"note": 76, "velocity": 107, "duration": 354}, {"note": 0, "velocity": 0, "duration": 726}, {"note": 78, "velocity": 117, "duration": 70}, {"note": 76, "velocity": 92, "duration": 47}, {"note": 0, "velocity": 0, "duration": 73}, {"note": 78, "velocity": 127, "duration": 118}, {"note": 0, "velocity": 0, "duration": 122}, {"note": 76, "velocity": 112, "duration": 51}, {"note": 0, "velocity": 0, "duration": 69}, {"note": 74, "velocity": 107, "duration": 280}, {"note": 0, "velocity": 0, "duration": 80}, {"note": 74, "velocity": 112, "duration": 51}, {"note": 0, "velocity": 0, "duration": 69}, {"note": 74, "velocity": 127, "duration": 120}, {"note": 0, "velocity": 0, "duration": 360}, {"note": 78, "velocity": 127, "duration": 64}, {"note": 80, "velocity": 112, "duration": 126}, {"note": 0, "velocity": 0, "duration": 114}, {"note": 80, "velocity": 127, "duration": 46}, {"note": 0, "velocity": 0, "duration": 74}, {"note": 80, "velocity": 122, "duration": 121}, {"note": 0, "velocity": 0, "duration": 239}, {"note": 78, "velocity": 117, "duration": 60}, {"note": 80, "velocity": 127, "duration": 272}, {"note": 0, "velocity": 0, "duration": 328}, {"note": 78, "velocity": 127, "duration": 111}, {"note": 80, "velocity": 102, "duration": 78}, {"note": 81, "velocity": 97, "duration": 58}, {"note": 0, "velocity": 0, "duration": 62}, {"note": 81, "velocity": 107, "duration": 194}, {"note": 0, "velocity": 0, "duration": 406}, {"note": 78, "velocity": 127, "duration": 73}, {"note": 80, "velocity": 107, "duration": 53}, {"note": 0, "velocity": 0, "duration": 67}, {"note": 81, "velocity": 112, "duration": 54}, {"note": 0, "velocity": 0, "duration": 66}, {"note": 81, "velocity": 127, "duration": 84}, {"note": 0, "velocity": 0, "duration": 516}, {"note": 78, "velocity": 127, "duration": 59}, {"note": 0, "velocity": 0, "duration": 61}, {"note": 80, "velocity": 96, "duration": 55}, {"note": 0, "velocity": 0, "duration": 65}, {"note": 81, "velocity": 97, "duration": 118}, {"note": 0, "velocity": 0, "duration": 122}, {"note": 83, "velocity": 100, "duration": 139}, {"note": 0, "velocity": 0, "duration": 101}, {"note": 81, "velocity": 112, "duration": 144}, {"note": 0, "velocity": 0, "duration": 96}, {"note": 80, "velocity": 122, "duration": 128}, {"note": 0, "velocity": 0, "duration": 112}, {"note": 78, "velocity": 117, "duration": 42}, {"note": 0, "velocity": 0, "duration": 78}, {"note": 78, "velocity": 117, "duration": 180}, {"note": 76, "velocity": 107, "duration": 354}, {"note": 0, "velocity": 0, "duration": 366}, {"note": 73, "velocity": 122, "duration": 44}, {"note": 0, "velocity": 0, "duration": 76}, {"note": 74, "velocity": 122, "duration": 149}, {"note": 0, "velocity": 0, "duration": 91}, {"note": 73, "velocity": 127, "duration": 64}, {"note": 74, "velocity": 127, "duration": 107}, {"note": 0, "velocity": 0, "duration": 253}, {"note": 81, "velocity": 122, "duration": 142}, {"note": 0, "velocity": 0, "duration": 98}, {"note": 80, "velocity": 127, "duration": 263}, {"note": 0, "velocity": 0, "duration": 217}, {"note": 77, "velocity": 127, "duration": 403}, {"note": 0, "velocity": 0, "duration": 77}, {"note": 78, "velocity": 127, "duration": 1150}, {"note": 0, "velocity": 0, "duration": 290}, {"note": 78, "velocity": 127, "duration": 163}, {"note": 0, "velocity": 0, "duration": 77}, {"note": 80, "velocity": 127, "duration": 142}, {"note": 0, "velocity": 0, "duration": 98}, {"note": 81, "velocity": 127, "duration": 224}, {"note": 81, "velocity": 122, "duration": 44}, {"note": 0, "velocity": 0, "duration": 76}, {"note": 81, "velocity": 117, "duration": 162}, {"note": 0, "velocity": 0, "duration": 198}, {"note": 80, "velocity": 117, "duration": 48}, {"note": 0, "velocity": 0, "duration": 72}, {"note": 80, "velocity": 122, "duration": 171}, {"note": 0, "velocity": 0, "duration": 189}, {"note": 78, "velocity": 122, "duration": 85}, {"note": 76, "velocity": 107, "duration": 228}, {"note": 0, "velocity": 0, "duration": 132}, {"note": 80, "velocity": 127, "duration": 72}, {"note": 81, "velocity": 95, "duration": 56}, {"note": 0, "velocity": 0, "duration": 64}, {"note": 83, "velocity": 122, "duration": 156}, {"note": 0, "velocity": 0, "duration": 84}, {"note": 83, "velocity": 107, "duration": 41}, {"note": 0, "velocity": 0, "duration": 79}, {"note": 83, "velocity": 127, "duration": 103}, {"note": 0, "velocity": 0, "duration": 257}, {"note": 85, "velocity": 122, "duration": 90}, {"note": 82, "velocity": 122, "duration": 284}, {"note": 0, "velocity": 0, "duration": 76}, {"note": 82, "velocity": 127, "duration": 47}, {"note": 0, "velocity": 0, "duration": 73}, {"note": 82, "velocity": 127, "duration": 171}, {"note": 0, "velocity": 0, "duration": 189}, {"note": 78, "velocity": 127, "duration": 67}, {"note": 80, "velocity": 99, "duration": 52}, {"note": 0, "velocity": 0, "duration": 68}, {"note": 81, "velocity": 112, "duration": 143}, {"note": 0, "velocity": 0, "duration": 97}, {"note": 78, "velocity": 117, "duration": 64}, {"note": 80, "velocity": 127, "duration": 155}, {"note": 0, "velocity": 0, "duration": 85}, {"note": 81, "velocity": 127, "duration": 276}, {"note": 0, "velocity": 0, "duration": 444}, {"note": 78, "velocity": 127, "duration": 51}, {"note": 0, "velocity": 0, "duration": 69}, {"note": 78, "velocity": 127, "duration": 77}, {"note": 80, "velocity": 117, "duration": 94}, {"note": 0, "velocity": 0, "duration": 146}, {"note": 81, "velocity": 127, "duration": 65}, {"note": 80, "velocity": 127, "duration": 1123}, {"note": 0, "velocity": 0, "duration": 317}, {"note": 78, "velocity": 127, "duration": 111}, {"note": 80, "velocity": 102, "duration": 78}, {"note": 81, "velocity": 97, "duration": 58}, {"note": 0, "velocity": 0, "duration": 62}, {"note": 81, "velocity": 107, "duration": 74}, {"note": 0, "velocity": 0, "duration": 406}, {"note": 78, "velocity": 127, "duration": 73}, {"note": 80, "velocity": 107, "duration": 53}, {"note": 0, "velocity": 0, "duration": 67}, {"note": 81, "velocity": 112, "duration": 54}, {"note": 0, "velocity": 0, "duration": 66}, {"note": 81, "velocity": 127, "duration": 84}, {"note": 0, "velocity": 0, "duration": 516}, {"note": 78, "velocity": 127, "duration": 59}, {"note": 0, "velocity": 0, "duration": 61}, {"note": 80, "velocity": 96, "duration": 55}, {"note": 0, "velocity": 0, "duration": 65}, {"note": 81, "velocity": 97, "duration": 118}, {"note": 0, "velocity": 0, "duration": 122}, {"note": 83, "velocity": 100, "duration": 139}, {"note": 0, "velocity": 0, "duration": 101}, {"note": 81, "velocity": 112, "duration": 144}, {"note": 0, "velocity": 0, "duration": 96}, {"note": 80, "velocity": 122, "duration": 128}, {"note": 0, "velocity": 0, "duration": 112}, {"note": 78, "velocity": 117, "duration": 42}, {"note": 0, "velocity": 0, "duration": 78}, {"note": 78, "velocity": 117, "duration": 180}, {"note": 76, "velocity": 107, "duration": 354}, {"note": 0, "velocity": 0, "duration": 726}, {"note": 78, "velocity": 117, "duration": 70}, {"note": 76, "velocity": 92, "duration": 47}, {"note": 0, "velocity": 0, "duration": 73}, {"note": 78, "velocity": 127, "duration": 118}, {"note": 0, "velocity": 0, "duration": 122}, {"note": 81, "velocity": 102, "duration": 78}, {"note": 78, "velocity": 127, "duration": 251}, {"note": 0, "velocity": 0, "duration": 109}, {"note": 76, "velocity": 112, "duration": 57}, {"note": 0, "velocity": 0, "duration": 63}, {"note": 74, "velocity": 107, "duration": 349}, {"note": 0, "velocity": 0, "duration": 131}, {"note": 81, "velocity": 117, "duration": 98}, {"note": 80, "velocity": 122, "duration": 160}, {"note": 0, "velocity": 0, "duration": 80}, {"note": 80, "velocity": 127, "duration": 48}, {"note": 0, "velocity": 0, "duration": 72}, {"note": 80, "velocity": 122, "duration": 168}, {"note": 0, "velocity": 0, "duration": 72}, {"note": 81, "velocity": 127, "duration": 168}, {"note": 0, "velocity": 0, "duration": 72}, {"note": 80, "velocity": 127, "duration": 423}, {"note": 0, "velocity": 0, "duration": 177}, {"note": 78, "velocity": 127, "duration": 111}, {"note": 80, "velocity": 102, "duration": 78}, {"note": 81, "velocity": 97, "duration": 58}, {"note": 0, "velocity": 0, "duration": 62}, {"note": 81, "velocity": 107, "duration": 194}, {"note": 0, "velocity": 0, "duration": 406}, {"note": 78, "velocity": 127, "duration": 73}, {"note": 80, "velocity": 107, "duration": 53}, {"note": 0, "velocity": 0, "duration": 67}, {"note": 81, "velocity": 112, "duration": 54}, {"note": 0, "velocity": 0, "duration": 66}, {"note": 81, "velocity": 127, "duration": 84}, {"note": 78, "velocity": 127, "duration": 59}, {"note": 0, "velocity": 0, "duration": 61}, {"note": 80, "velocity": 96, "duration": 55}, {"note": 0, "velocity": 0, "duration": 65}, {"note": 81, "velocity": 97, "duration": 118}, {"note": 0, "velocity": 0, "duration": 122}, {"note": 83, "velocity": 100, "duration": 139}, {"note": 0, "velocity": 0, "duration": 101}, {"note": 81, "velocity": 112, "duration": 144}, {"note": 0, "velocity": 0, "duration": 96}, {"note": 80, "velocity": 122, "duration": 128}, {"note": 0, "velocity": 0, "duration": 112}, {"note": 78, "velocity": 117, "duration": 42}, {"note": 0, "velocity": 0, "duration": 78}, {"note": 78, "velocity": 117, "duration": 180}, {"note": 76, "velocity": 107, "duration": 354}, {"note": 0, "velocity": 0, "duration": 366}, {"note": 73, "velocity": 122, "duration": 44}, {"note": 0, "velocity": 0, "duration": 76}, {"note": 74, "velocity": 122, "duration": 149}, {"note": 0, "velocity": 0, "duration": 91}, {"note": 73, "velocity": 127, "duration": 64}, {"note": 74, "velocity": 127, "duration": 107}, {"note": 0, "velocity": 0, "duration": 253}, {"note": 81, "velocity": 122, "duration": 142}, {"note": 0, "velocity": 0, "duration": 98}, {"note": 80, "velocity": 127, "duration": 263}, {"note": 0, "velocity": 0, "duration": 217}, {"note": 77, "velocity": 127, "duration": 403}, {"note": 0, "velocity": 0, "duration": 77}, {"note": 78, "velocity": 127, "duration": 1150}, {"note": 0, "velocity": 0, "duration": 650}, {"note": 73, "velocity": 107, "duration": 80}, {"note": 74, "velocity": 95, "duration": 184}, {"note": 73, "velocity": 122, "duration": 73}, {"note": 74, "velocity": 97, "duration": 265}, {"note": 0, "velocity": 0, "duration": 95}, {"note": 81, "velocity": 122, "duration": 163}, {"note": 0, "velocity": 0, "duration": 77}, {"note": 80, "velocity": 122, "duration": 462}, {"note": 77, "velocity": 112, "duration": 668}, {"note": 78, "velocity": 127, "duration": 2465}]]