[[{"note": 70, "velocity": 96, "duration": 197}, {"note": 70, "velocity": 97, "duration": 230}, {"note": 75, "velocity": 112, "duration": 206}, {"note": 75, "velocity": 96, "duration": 228}, {"note": 77, "velocity": 97, "duration": 195}, {"note": 79, "velocity": 96, "duration": 242}, {"note": 80, "velocity": 112, "duration": 166}, {"note": 0, "velocity": 0, "duration": 74}, {"note": 80, "velocity": 102, "duration": 337}, {"note": 0, "velocity": 0, "duration": 383}, {"note": 77, "velocity": 100, "duration": 58}, {"note": 0, "velocity": 0, "duration": 62}, {"note": 77, "velocity": 99, "duration": 688}, {"note": 0, "velocity": 0, "duration": 632}, {"note": 70, "velocity": 112, "duration": 156}, {"note": 0, "velocity": 0, "duration": 84}, {"note": 70, "velocity": 127, "duration": 194}, {"note": 75, "velocity": 112, "duration": 176}, {"note": 0, "velocity": 0, "duration": 64}, {"note": 75, "velocity": 112, "duration": 184}, {"note": 77, "velocity": 90, "duration": 147}, {"note": 0, "velocity": 0, "duration": 93}, {"note": 79, "velocity": 93, "duration": 202}, {"note": 80, "velocity": 102, "duration": 156}, {"note": 0, "velocity": 0, "duration": 84}, {"note": 79, "velocity": 102, "duration": 638}, {"note": 0, "velocity": 0, "duration": 82}, {"note": 82, "velocity": 90, "duration": 152}, {"note": 0, "velocity": 0, "duration": 88}, {"note": 82, "velocity": 127, "duration": 871}, {"note": 0, "velocity": 0, "duration": 569}, {"note": 84, "velocity": 96, "duration": 112}, {"note": 86, "velocity": 97, "duration": 100}, {"note": 87, "velocity": 102, "duration": 181}, {"note": 86, "velocity": 102, "duration": 189}, {"note": 84, "velocity": 96, "duration": 191}, {"note": 82, "velocity": 122, "duration": 169}, {"note": 0, "velocity": 0, "duration": 71}, {"note": 80, "velocity": 117, "duration": 164}, {"note": 0, "velocity": 0, "duration": 76}, {"note": 79, "velocity": 97, "duration": 179}, {"note": 0, "velocity": 0, "duration": 61}, {"note": 82, "velocity": 127, "duration": 177}, {"note": 0, "velocity": 0, "duration": 63}, {"note": 86, "velocity": 96, "duration": 177}, {"note": 0, "velocity": 0, "duration": 63}, {"note": 87, "velocity": 122, "duration": 733}, {"note": 82, "velocity": 127, "duration": 208}, {"note": 79, "velocity": 96, "duration": 198}, {"note": 82, "velocity": 127, "duration": 150}, {"note": 0, "velocity": 0, "duration": 90}, {"note": 82, "velocity": 122, "duration": 149}, {"note": 0, "velocity": 0, "duration": 91}, {"note": 82, "velocity": 127, "duration": 145}, {"note": 0, "velocity": 0, "duration": 95}, {"note": 80, "velocity": 127, "duration": 402}, {"note": 0, "velocity": 0, "duration": 78}, {"note": 79, "velocity": 122, "duration": 186}, {"note": 80, "velocity": 112, "duration": 216}, {"note": 77, "velocity": 100, "duration": 1070}, {"note": 0, "velocity": 0, "duration": 1330}, {"note": 70, "velocity": 96, "duration": 197}, {"note": 70, "velocity": 97, "duration": 230}, {"note": 75, "velocity": 112, "duration": 206}, {"note": 75, "velocity": 96, "duration": 228}, {"note": 77, "velocity": 97, "duration": 195}, {"note": 79, "velocity": 96, "duration": 242}, {"note": 80, "velocity": 112, "duration": 166}, {"note": 0, "velocity": 0, "duration": 74}, {"note": 80, "velocity": 102, "duration": 337}, {"note": 0, "velocity": 0, "duration": 383}, {"note": 77, "velocity": 100, "duration": 58}, {"note": 0, "velocity": 0, "duration": 62}, {"note": 77, "velocity": 99, "duration": 688}, {"note": 0, "velocity": 0, "duration": 632}, {"note": 70, "velocity": 112, "duration": 156}, {"note": 0, "velocity": 0, "duration": 84}, {"note": 70, "velocity": 127, "duration": 194}, {"note": 75, "velocity": 112, "duration": 176}, {"note": 0, "velocity": 0, "duration": 64}, {"note": 75, "velocity": 112, "duration": 184}, {"note": 77, "velocity": 90, "duration": 147}, {"note": 0, "velocity": 0, "duration": 93}, {"note": 79, "velocity": 93, "duration": 202}, {"note": 80, "velocity": 102, "duration": 156}, {"note": 0, "velocity": 0, "duration": 84}, {"note": 79, "velocity": 102, "duration": 638}, {"note": 0, "velocity": 0, "duration": 82}, {"note": 82, "velocity": 90, "duration": 152}, {"note": 0, "velocity": 0, "duration": 88}, {"note": 82, "velocity": 127, "duration": 871}, {"note": 0, "velocity": 0, "duration": 569}, {"note": 84, "velocity": 96, "duration": 112}, {"note": 86, "velocity": 97, "duration": 100}, {"note": 87, "velocity": 102, "duration": 181}, {"note": 86, "velocity": 102, "duration": 189}, {"note": 84, "velocity": 96, "duration": 191}, {"note": 82, "velocity": 122, "duration": 169}, {"note": 0, "velocity": 0, "duration": 71}, {"note": 80, "velocity": 117, "duration": 164}, {"note": 0, "velocity": 0, "duration": 76}, {"note": 79, "velocity": 97, "duration": 179}, {"note": 0, "velocity": 0, "duration": 61}, {"note": 82, "velocity": 127, "duration": 177}, {"note": 0, "velocity": 0, "duration": 63}, {"note": 86, "velocity": 96, "duration": 177}, {"note": 0, "velocity": 0, "duration": 63}, {"note": 87, "velocity": 122, "duration": 733}, {"note": 82, "velocity": 127, "duration": 208}, {"note": 79, "velocity": 96, "duration": 198}, {"note": 82, "velocity": 127, "duration": 150}, {"note": 0, "velocity": 0, "duration": 90}, {"note": 82, "velocity": 122, "duration": 149}, {"note": 0, "velocity": 0, "duration": 91}, {"note": 82, "velocity": 127, "duration": 145}, {"note": 0, "velocity": 0, "duration": 95}, {"note": 80, "velocity": 127, "duration": 402}, {"note": 0, "velocity": 0, "duration": 78}, {"note": 79, "velocity": 122, "duration": 186}, {"note": 80, "velocity": 112, "duration": 216}, {"note": 77, "velocity": 100, "duration": 1070}, {"note": 0, "velocity": 0, "duration": 370}, {"note": 75, "velocity": 112, "duration": 279}, {"note": 87, "velocity": 107, "duration": 244}, {"note": 86, "velocity": 100, "duration": 216}, {"note": 82, "velocity": 97, "duration": 313}, {"note": 84, "velocity": 122, "duration": 153}, {"note": 0, "velocity": 0, "duration": 87}, {"note": 84, "velocity": 127, "duration": 648}, {"note": 0, "velocity": 0, "duration": 192}, {"note": 75, "velocity": 97, "duration": 89}, {"note": 87, "velocity": 112, "duration": 170}, {"note": 0, "velocity": 0, "duration": 70}, {"note": 86, "velocity": 122, "duration": 213}, {"note": 84, "velocity": 127, "duration": 210}, {"note": 82, "velocity": 117, "duration": 126}, {"note": 0, "velocity": 0, "duration": 114}, {"note": 82, "velocity": 127, "duration": 611}, {"note": 0, "velocity": 0, "duration": 229}, {"note": 80, "velocity": 112, "duration": 48}, {"note": 0, "velocity": 0, "duration": 72}, {"note": 80, "velocity": 117, "duration": 193}, {"note": 82, "velocity": 107, "duration": 166}, {"note": 0, "velocity": 0, "duration": 74}, {"note": 82, "velocity": 127, "duration": 196}, {"note": 84, "velocity": 96, "duration": 54}, {"note": 0, "velocity": 0, "duration": 66}, {"note": 84, "velocity": 122, "duration": 427}, {"note": 0, "velocity": 0, "duration": 173}, {"note": 86, "velocity": 99, "duration": 218}, {"note": 87, "velocity": 102, "duration": 97}, {"note": 89, "velocity": 117, "duration": 223}, {"note": 92, "velocity": 127, "duration": 192}, {"note": 0, "velocity": 0, "duration": 168}, {"note": 92, "velocity": 127, "duration": 419}, {"note": 0, "velocity": 0, "duration": 301}, {"note": 91, "velocity": 102, "duration": 50}, {"note": 0, "velocity": 0, "duration": 70}, {"note": 91, "velocity": 112, "duration": 295}, {"note": 0, "velocity": 0, "duration": 305}, {"note": 89, "velocity": 102, "duration": 230}, {"note": 91, "velocity": 90, "duration": 201}, {"note": 89, "velocity": 102, "duration": 200}, {"note": 87, "velocity": 107, "duration": 50}, {"note": 0, "velocity": 0, "duration": 70}, {"note": 87, "velocity": 127, "duration": 504}, {"note": 0, "velocity": 0, "duration": 96}, {"note": 86, "velocity": 102, "duration": 175}, {"note": 0, "velocity": 0, "duration": 65}, {"note": 87, "velocity": 100, "duration": 93}, {"note": 89, "velocity": 100, "duration": 439}, {"note": 0, "velocity": 0, "duration": 161}, {"note": 86, "velocity": 112, "duration": 156}, {"note": 0, "velocity": 0, "duration": 84}, {"note": 87, "velocity": 93, "duration": 52}, {"note": 0, "velocity": 0, "duration": 68}, {"note": 89, "velocity": 96, "duration": 287}, {"note": 0, "velocity": 0, "duration": 73}, {"note": 86, "velocity": 102, "duration": 50}, {"note": 0, "velocity": 0, "duration": 70}, {"note": 87, "velocity": 122, "duration": 601}, {"note": 0, "velocity": 0, "duration": 1199}, {"note": 91, "velocity": 97, "duration": 117}, {"note": 92, "velocity": 96, "duration": 102}, {"note": 91, "velocity": 99, "duration": 231}, {"note": 87, "velocity": 95, "duration": 59}, {"note": 0, "velocity": 0, "duration": 61}, {"note": 87, "velocity": 95, "duration": 314}, {"note": 89, "velocity": 127, "duration": 141}, {"note": 91, "velocity": 72, "duration": 57}, {"note": 0, "velocity": 0, "duration": 63}, {"note": 91, "velocity": 90, "duration": 195}, {"note": 87, "velocity": 92, "duration": 65}, {"note": 87, "velocity": 100, "duration": 269}, {"note": 0, "velocity": 0, "duration": 91}, {"note": 86, "velocity": 102, "duration": 94}, {"note": 89, "velocity": 97, "duration": 370}, {"note": 87, "velocity": 95, "duration": 1564}, {"note": 0, "velocity": 0, "duration": 8996}, {"note": 70, "velocity": 96, "duration": 197}, {"note": 70, "velocity": 97, "duration": 230}, {"note": 75, "velocity": 112, "duration": 206}, {"note": 75, "velocity": 96, "duration": 228}, {"note": 77, "velocity": 97, "duration": 195}, {"note": 79, "velocity": 96, "duration": 242}, {"note": 80, "velocity": 112, "duration": 166}, {"note": 0, "velocity": 0, "duration": 74}, {"note": 80, "velocity": 102, "duration": 337}, {"note": 0, "velocity": 0, "duration": 383}, {"note": 77, "velocity": 100, "duration": 58}, {"note": 0, "velocity": 0, "duration": 62}, {"note": 77, "velocity": 99, "duration": 688}, {"note": 0, "velocity": 0, "duration": 632}, {"note": 70, "velocity": 112, "duration": 156}, {"note": 0, "velocity": 0, "duration": 84}, {"note": 70, "velocity": 127, "duration": 194}, {"note": 75, "velocity": 112, "duration": 176}, {"note": 0, "velocity": 0, "duration": 64}, {"note": 75, "velocity": 112, "duration": 184}, {"note": 77, "velocity": 90, "duration": 147}, {"note": 0, "velocity": 0, "duration": 93}, {"note": 79, "velocity": 93, "duration": 202}, {"note": 80, "velocity": 102, "duration": 156}, {"note": 0, "velocity": 0, "duration": 84}, {"note": 79, "velocity": 102, "duration": 638}, {"note": 0, "velocity": 0, "duration": 82}, {"note": 82, "velocity": 90, "duration": 152}, {"note": 0, "velocity": 0, "duration": 88}, {"note": 82, "velocity": 127, "duration": 871}, {"note": 0, "velocity": 0, "duration": 569}, {"note": 84, "velocity": 96, "duration": 112}, {"note": 86, "velocity": 97, "duration": 100}, {"note": 87, "velocity": 102, "duration": 181}, {"note": 86, "velocity": 102, "duration": 189}, {"note": 84, "velocity": 96, "duration": 191}, {"note": 82, "velocity": 122, "duration": 169}, {"note": 0, "velocity": 0, "duration": 71}, {"note": 80, "velocity": 117, "duration": 164}, {"note": 0, "velocity": 0, "duration": 76}, {"note": 79, "velocity": 97, "duration": 179}, {"note": 0, "velocity": 0, "duration": 61}, {"note": 82, "velocity": 127, "duration": 177}, {"note": 0, "velocity": 0, "duration": 63}, {"note": 86, "velocity": 96, "duration": 177}, {"note": 0, "velocity": 0, "duration": 63}, {"note": 87, "velocity": 122, "duration": 733}, {"note": 82, "velocity": 127, "duration": 208}, {"note": 79, "velocity": 96, "duration": 198}, {"note": 82, "velocity": 127, "duration": 150}, {"note": 0, "velocity": 0, "duration": 90}, {"note": 82, "velocity": 122, "duration": 149}, {"note": 0, "velocity": 0, "duration": 91}, {"note": 82, "velocity": 127, "duration": 145}, {"note": 0, "velocity": 0, "duration": 95}, {"note": 80, "velocity": 127, "duration": 402}, {"note": 0, "velocity": 0, "duration": 78}, {"note": 79, "velocity": 122, "duration": 186}, {"note": 80, "velocity": 112, "duration": 216}, {"note": 77, "velocity": 100, "duration": 1070}, {"note": 0, "velocity": 0, "duration": 370}, {"note": 75, "velocity": 112, "duration": 279}, {"note": 87, "velocity": 107, "duration": 244}, {"note": 86, "velocity": 100, "duration": 216}, {"note": 82, "velocity": 97, "duration": 313}, {"note": 84, "velocity": 122, "duration": 153}, {"note": 0, "velocity": 0, "duration": 87}, {"note": 84, "velocity": 127, "duration": 648}, {"note": 0, "velocity": 0, "duration": 192}, {"note": 75, "velocity": 97, "duration": 89}, {"note": 87, "velocity": 112, "duration": 170}, {"note": 0, "velocity": 0, "duration": 70}, {"note": 86, "velocity": 122, "duration": 213}, {"note": 84, "velocity": 127, "duration": 210}, {"note": 82, "velocity": 117, "duration": 126}, {"note": 0, "velocity": 0, "duration": 114}, {"note": 82, "velocity": 127, "duration": 611}, {"note": 0, "velocity": 0, "duration": 229}, {"note": 80, "velocity": 112, "duration": 48}, {"note": 0, "velocity": 0, "duration": 72}, {"note": 80, "velocity": 117, "duration": 193}, {"note": 82, "velocity": 107, "duration": 166}, {"note": 0, "velocity": 0, "duration": 74}, {"note": 82, "velocity": 127, "duration": 196}, {"note": 84, "velocity": 96, "duration": 54}, {"note": 0, "velocity": 0, "duration": 66}, {"note": 84, "velocity": 122, "duration": 427}, {"note": 0, "velocity": 0, "duration": 173}, {"note": 86, "velocity": 99, "duration": 218}, {"note": 87, "velocity": 102, "duration": 97}, {"note": 89, "velocity": 117, "duration": 223}, {"note": 92, "velocity": 127, "duration": 192}, {"note": 0, "velocity": 0, "duration": 168}, {"note": 92, "velocity": 127, "duration": 419}, {"note": 0, "velocity": 0, "duration": 301}, {"note": 91, "velocity": 102, "duration": 50}, {"note": 0, "velocity": 0, "duration": 70}, {"note": 91, "velocity": 112, "duration": 295}, {"note": 0, "velocity": 0, "duration": 305}, {"note": 89, "velocity": 102, "duration": 230}, {"note": 91, "velocity": 90, "duration": 201}, {"note": 89, "velocity": 102, "duration": 200}, {"note": 87, "velocity": 107, "duration": 50}, {"note": 0, "velocity": 0, "duration": 70}, {"note": 87, "velocity": 127, "duration": 504}, {"note": 0, "velocity": 0, "duration": 96}, {"note": 86, "velocity": 102, "duration": 175}, {"note": 0, "velocity": 0, "duration": 65}, {"note": 87, "velocity": 100, "duration": 93}, {"note": 89, "velocity": 100, "duration": 439}, {"note": 0, "velocity": 0, "duration": 161}, {"note": 86, "velocity": 112, "duration": 156}, {"note": 0, "velocity": 0, "duration": 84}, {"note": 87, "velocity": 93, "duration": 52}, {"note": 0, "velocity": 0, "duration": 68}, {"note": 89, "velocity": 96, "duration": 287}, {"note": 0, "velocity": 0, "duration": 73}, {"note": 86, "velocity": 102, "duration": 50}, {"note": 0, "velocity": 0, "duration": 70}, {"note": 87, "velocity": 122, "duration": 601}, {"note": 0, "velocity": 0, "duration": 1199}, {"note": 91, "velocity": 97, "duration": 117}, {"note": 92, "velocity": 96, "duration": 102}, {"note": 91, "velocity": 99, "duration": 231}, {"note": 87, "velocity": 95, "duration": 59}, {"note": 0, "velocity": 0, "duration": 61}, {"note": 87, "velocity": 95, "duration": 314}, {"note": 89, "velocity": 127, "duration": 141}, {"note": 91, "velocity": 72, "duration": 57}, {"note": 0, "velocity": 0, "duration": 63}, {"note": 91, "velocity": 90, "duration": 195}, {"note": 87, "velocity": 92, "duration": 65}, {"note": 87, "velocity": 100, "duration": 269}, {"note": 0, "velocity": 0, "duration": 91}, {"note": 86, "velocity": 102, "duration": 94}, {"note": 89, "velocity": 97, "duration": 370}, {"note": 87, "velocity": 95, "duration": 720}, {"note": 0, "velocity": 0, "duration": 720}, {"note": 82, "velocity": 127, "duration": 146}, {"note": 0, "velocity": 0, "duration": 94}, {"note": 84, "velocity": 127, "duration": 154}, {"note": 0, "velocity": 0, "duration": 86}, {"note": 82, "velocity": 127, "duration": 70}, {"note": 84, "velocity": 127, "duration": 327}, {"note": 0, "velocity": 0, "duration": 273}, {"note": 86, "velocity": 122, "duration": 138}, {"note": 0, "velocity": 0, "duration": 102}, {"note": 84, "velocity": 117, "duration": 54}, {"note": 0, "velocity": 0, "duration": 66}, {"note": 86, "velocity": 127, "duration": 356}, {"note": 0, "velocity": 0, "duration": 484}, {"note": 86, "velocity": 99, "duration": 77}, {"note": 87, "velocity": 117, "duration": 60}, {"note": 89, "velocity": 112, "duration": 130}, {"note": 0, "velocity": 0, "duration": 110}, {"note": 86, "velocity": 97, "duration": 48}, {"note": 0, "velocity": 0, "duration": 72}, {"note": 87, "velocity": 127, "duration": 458}, {"note": 0, "velocity": 0, "duration": 142}, {"note": 87, "velocity": 127, "duration": 95}, {"note": 89, "velocity": 122, "duration": 126}, {"note": 0, "velocity": 0, "duration": 114}, {"note": 91, "velocity": 117, "duration": 52}, {"note": 0, "velocity": 0, "duration": 68}, {"note": 91, "velocity": 127, "duration": 163}, {"note": 0, "velocity": 0, "duration": 557}, {"note": 87, "velocity": 117, "duration": 513}, {"note": 0, "velocity": 0, "duration": 207}, {"note": 87, "velocity": 127, "duration": 97}, {"note": 89, "velocity": 117, "duration": 129}, {"note": 0, "velocity": 0, "duration": 111}, {"note": 91, "velocity": 127, "duration": 59}, {"note": 0, "velocity": 0, "duration": 61}, {"note": 91, "velocity": 127, "duration": 539}, {"note": 0, "velocity": 0, "duration": 61}, {"note": 92, "velocity": 127, "duration": 333}, {"note": 89, "velocity": 127, "duration": 1148}, {"note": 0, "velocity": 0, "duration": 1012}, {"note": 75, "velocity": 112, "duration": 279}, {"note": 87, "velocity": 107, "duration": 244}, {"note": 86, "velocity": 100, "duration": 216}, {"note": 82, "velocity": 97, "duration": 313}, {"note": 84, "velocity": 122, "duration": 153}, {"note": 0, "velocity": 0, "duration": 87}, {"note": 84, "velocity": 127, "duration": 648}, {"note": 0, "velocity": 0, "duration": 72}, {"note": 75, "velocity": 97, "duration": 89}, {"note": 0, "velocity": 0, "duration": 151}, {"note": 87, "velocity": 112, "duration": 170}, {"note": 0, "velocity": 0, "duration": 70}, {"note": 86, "velocity": 122, "duration": 213}, {"note": 84, "velocity": 127, "duration": 210}, {"note": 82, "velocity": 117, "duration": 126}, {"note": 0, "velocity": 0, "duration": 114}, {"note": 82, "velocity": 127, "duration": 611}, {"note": 0, "velocity": 0, "duration": 229}, {"note": 80, "velocity": 112, "duration": 48}, {"note": 0, "velocity": 0, "duration": 72}, {"note": 80, "velocity": 117, "duration": 193}, {"note": 82, "velocity": 107, "duration": 166}, {"note": 0, "velocity": 0, "duration": 74}, {"note": 82, "velocity": 127, "duration": 196}, {"note": 84, "velocity": 96, "duration": 54}, {"note": 0, "velocity": 0, "duration": 66}, {"note": 84, "velocity": 122, "duration": 427}, {"note": 0, "velocity": 0, "duration": 173}, {"note": 86, "velocity": 99, "duration": 218}, {"note": 87, "velocity": 102, "duration": 97}, {"note": 89, "velocity": 117, "duration": 223}, {"note": 92, "velocity": 127, "duration": 192}, {"note": 0, "velocity": 0, "duration": 168}, {"note": 92, "velocity": 127, "duration": 419}, {"note": 0, "velocity": 0, "duration": 301}, {"note": 91, "velocity": 102, "duration": 50}, {"note": 0, "velocity": 0, "duration": 70}, {"note": 91, "velocity": 112, "duration": 295}, {"note": 0, "velocity": 0, "duration": 305}, {"note": 89, "velocity": 102, "duration": 230}, {"note": 91, "velocity": 90, "duration": 201}, {"note": 89, "velocity": 102, "duration": 200}, {"note": 87, "velocity": 107, "duration": 50}, {"note": 0, "velocity": 0, "duration": 70}, {"note": 87, "velocity": 127, "duration": 504}, {"note": 0, "velocity": 0, "duration": 96}, {"note": 86, "velocity": 102, "duration": 175}, {"note": 0, "velocity": 0, "duration": 65}, {"note": 87, "velocity": 100, "duration": 93}, {"note": 89, "velocity": 100, "duration": 439}, {"note": 0, "velocity": 0, "duration": 401}, {"note": 86, "velocity": 97, "duration": 81}, {"note": 87, "velocity": 112, "duration": 77}, {"note": 89, "velocity": 127, "duration": 279}, {"note": 92, "velocity": 122, "duration": 213}, {"note": 89, "velocity": 117, "duration": 412}, {"note": 87, "velocity": 107, "duration": 1414}, {"note": 0, "velocity": 0, "duration": 866}, {"note": 91, "velocity": 99, "duration": 134}, {"note": 92, "velocity": 112, "duration": 126}, {"note": 91, "velocity": 117, "duration": 240}, {"note": 87, "velocity": 83, "duration": 62}, {"note": 87, "velocity": 122, "duration": 500}, {"note": 89, "velocity": 117, "duration": 116}, {"note": 91, "velocity": 92, "duration": 61}, {"note": 91, "velocity": 107, "duration": 229}, {"note": 87, "velocity": 92, "duration": 56}, {"note": 0, "velocity": 0, "duration": 64}, {"note": 87, "velocity": 117, "duration": 1068}]]