[[{"note": 74, "velocity": 107, "duration": 140}, {"note": 0, "velocity": 0, "duration": 100}, {"note": 74, "velocity": 99, "duration": 40}, {"note": 0, "velocity": 0, "duration": 80}, {"note": 74, "velocity": 107, "duration": 222}, {"note": 78, "velocity": 127, "duration": 299}, {"note": 0, "velocity": 0, "duration": 61}, {"note": 74, "velocity": 102, "duration": 467}, {"note": 0, "velocity": 0, "duration": 493}, {"note": 71, "velocity": 112, "duration": 210}, {"note": 79, "velocity": 107, "duration": 119}, {"note": 81, "velocity": 122, "duration": 237}, {"note": 0, "velocity": 0, "duration": 123}, {"note": 76, "velocity": 117, "duration": 108}, {"note": 78, "velocity": 102, "duration": 133}, {"note": 74, "velocity": 122, "duration": 468}, {"note": 0, "velocity": 0, "duration": 492}, {"note": 76, "velocity": 112, "duration": 160}, {"note": 0, "velocity": 0, "duration": 80}, {"note": 74, "velocity": 117, "duration": 80}, {"note": 72, "velocity": 102, "duration": 322}, {"note": 76, "velocity": 112, "duration": 196}, {"note": 74, "velocity": 122, "duration": 325}, {"note": 67, "velocity": 100, "duration": 364}, {"note": 0, "velocity": 0, "duration": 236}, {"note": 72, "velocity": 122, "duration": 188}, {"note": 71, "velocity": 99, "duration": 332}, {"note": 0, "velocity": 0, "duration": 148}, {"note": 74, "velocity": 112, "duration": 201}, {"note": 69, "velocity": 99, "duration": 561}, {"note": 0, "velocity": 0, "duration": 399}, {"note": 71, "velocity": 107, "duration": 176}, {"note": 0, "velocity": 0, "duration": 64}, {"note": 71, "velocity": 93, "duration": 54}, {"note": 0, "velocity": 0, "duration": 66}, {"note": 71, "velocity": 100, "duration": 342}, {"note": 79, "velocity": 127, "duration": 169}, {"note": 0, "velocity": 0, "duration": 71}, {"note": 79, "velocity": 122, "duration": 557}, {"note": 0, "velocity": 0, "duration": 403}, {"note": 81, "velocity": 122, "duration": 184}, {"note": 79, "velocity": 100, "duration": 89}, {"note": 78, "velocity": 102, "duration": 277}, {"note": 0, "velocity": 0, "duration": 83}, {"note": 81, "velocity": 100, "duration": 185}, {"note": 74, "velocity": 122, "duration": 405}, {"note": 0, "velocity": 0, "duration": 555}, {"note": 71, "velocity": 107, "duration": 178}, {"note": 0, "velocity": 0, "duration": 62}, {"note": 79, "velocity": 112, "duration": 410}, {"note": 0, "velocity": 0, "duration": 70}, {"note": 81, "velocity": 117, "duration": 100}, {"note": 79, "velocity": 95, "duration": 111}, {"note": 78, "velocity": 102, "duration": 214}, {"note": 0, "velocity": 0, "duration": 146}, {"note": 76, "velocity": 112, "duration": 113}, {"note": 74, "velocity": 97, "duration": 315}, {"note": 0, "velocity": 0, "duration": 165}, {"note": 76, "velocity": 127, "duration": 161}, {"note": 0, "velocity": 0, "duration": 79}, {"note": 76, "velocity": 122, "duration": 103}, {"note": 74, "velocity": 99, "duration": 109}, {"note": 79, "velocity": 102, "duration": 166}, {"note": 0, "velocity": 0, "duration": 74}, {"note": 71, "velocity": 107, "duration": 210}, {"note": 69, "velocity": 102, "duration": 641}, {"note": 0, "velocity": 0, "duration": 319}, {"note": 74, "velocity": 127, "duration": 182}, {"note": 74, "velocity": 97, "duration": 56}, {"note": 0, "velocity": 0, "duration": 64}, {"note": 74, "velocity": 117, "duration": 152}, {"note": 74, "velocity": 127, "duration": 32}, {"note": 0, "velocity": 0, "duration": 208}, {"note": 78, "velocity": 122, "duration": 223}, {"note": 74, "velocity": 107, "duration": 471}, {"note": 0, "velocity": 0, "duration": 489}, {"note": 71, "velocity": 102, "duration": 222}, {"note": 79, "velocity": 102, "duration": 109}, {"note": 81, "velocity": 112, "duration": 293}, {"note": 0, "velocity": 0, "duration": 67}, {"note": 76, "velocity": 122, "duration": 214}, {"note": 74, "velocity": 112, "duration": 485}, {"note": 0, "velocity": 0, "duration": 475}, {"note": 76, "velocity": 127, "duration": 163}, {"note": 0, "velocity": 0, "duration": 77}, {"note": 74, "velocity": 117, "duration": 98}, {"note": 72, "velocity": 127, "duration": 289}, {"note": 0, "velocity": 0, "duration": 71}, {"note": 76, "velocity": 127, "duration": 193}, {"note": 74, "velocity": 127, "duration": 327}, {"note": 67, "velocity": 117, "duration": 339}, {"note": 0, "velocity": 0, "duration": 261}, {"note": 72, "velocity": 122, "duration": 221}, {"note": 71, "velocity": 99, "duration": 406}, {"note": 0, "velocity": 0, "duration": 74}, {"note": 74, "velocity": 112, "duration": 204}, {"note": 69, "velocity": 100, "duration": 656}, {"note": 0, "velocity": 0, "duration": 304}, {"note": 71, "velocity": 102, "duration": 151}, {"note": 0, "velocity": 0, "duration": 89}, {"note": 71, "velocity": 97, "duration": 43}, {"note": 0, "velocity": 0, "duration": 77}, {"note": 71, "velocity": 90, "duration": 51}, {"note": 0, "velocity": 0, "duration": 69}, {"note": 71, "velocity": 102, "duration": 221}, {"note": 79, "velocity": 127, "duration": 162}, {"note": 0, "velocity": 0, "duration": 78}, {"note": 79, "velocity": 127, "duration": 672}, {"note": 0, "velocity": 0, "duration": 288}, {"note": 81, "velocity": 117, "duration": 187}, {"note": 79, "velocity": 100, "duration": 91}, {"note": 78, "velocity": 127, "duration": 266}, {"note": 0, "velocity": 0, "duration": 94}, {"note": 81, "velocity": 102, "duration": 196}, {"note": 74, "velocity": 112, "duration": 460}, {"note": 0, "velocity": 0, "duration": 500}, {"note": 71, "velocity": 122, "duration": 212}, {"note": 79, "velocity": 127, "duration": 462}, {"note": 81, "velocity": 112, "duration": 99}, {"note": 79, "velocity": 93, "duration": 98}, {"note": 78, "velocity": 117, "duration": 284}, {"note": 0, "velocity": 0, "duration": 196}, {"note": 74, "velocity": 102, "duration": 213}, {"note": 0, "velocity": 0, "duration": 267}, {"note": 76, "velocity": 102, "duration": 152}, {"note": 0, "velocity": 0, "duration": 88}, {"note": 76, "velocity": 107, "duration": 78}, {"note": 74, "velocity": 81, "duration": 140}, {"note": 76, "velocity": 117, "duration": 294}, {"note": 79, "velocity": 117, "duration": 90}, {"note": 0, "velocity": 0, "duration": 150}, {"note": 81, "velocity": 127, "duration": 905}, {"note": 74, "velocity": 112, "duration": 241}, {"note": 83, "velocity": 122, "duration": 164}, {"note": 0, "velocity": 0, "duration": 76}, {"note": 83, "velocity": 122, "duration": 175}, {"note": 0, "velocity": 0, "duration": 185}, {"note": 84, "velocity": 127, "duration": 114}, {"note": 81, "velocity": 112, "duration": 325}, {"note": 0, "velocity": 0, "duration": 275}, {"note": 76, "velocity": 127, "duration": 51}, {"note": 0, "velocity": 0, "duration": 69}, {"note": 76, "velocity": 112, "duration": 84}, {"note": 79, "velocity": 97, "duration": 71}, {"note": 81, "velocity": 122, "duration": 208}, {"note": 0, "velocity": 0, "duration": 272}, {"note": 78, "velocity": 127, "duration": 209}, {"note": 76, "velocity": 112, "duration": 217}, {"note": 74, "velocity": 97, "duration": 417}, {"note": 0, "velocity": 0, "duration": 303}, {"note": 71, "velocity": 100, "duration": 136}, {"note": 74, "velocity": 99, "duration": 105}, {"note": 79, "velocity": 112, "duration": 171}, {"note": 0, "velocity": 0, "duration": 69}, {"note": 79, "velocity": 127, "duration": 115}, {"note": 81, "velocity": 127, "duration": 259}, {"note": 0, "velocity": 0, "duration": 101}, {"note": 79, "velocity": 107, "duration": 213}, {"note": 78, "velocity": 117, "duration": 206}, {"note": 76, "velocity": 112, "duration": 116}, {"note": 74, "velocity": 100, "duration": 195}, {"note": 0, "velocity": 0, "duration": 165}, {"note": 67, "velocity": 97, "duration": 124}, {"note": 69, "velocity": 107, "duration": 109}, {"note": 71, "velocity": 112, "duration": 603}, {"note": 0, "velocity": 0, "duration": 1317}, {"note": 76, "velocity": 112, "duration": 167}, {"note": 0, "velocity": 0, "duration": 73}, {"note": 76, "velocity": 100, "duration": 48}, {"note": 0, "velocity": 0, "duration": 72}, {"note": 76, "velocity": 112, "duration": 187}, {"note": 83, "velocity": 127, "duration": 308}, {"note": 81, "velocity": 127, "duration": 455}, {"note": 0, "velocity": 0, "duration": 265}, {"note": 83, "velocity": 122, "duration": 79}, {"note": 81, "velocity": 99, "duration": 101}, {"note": 79, "velocity": 127, "duration": 271}, {"note": 0, "velocity": 0, "duration": 89}, {"note": 79, "velocity": 117, "duration": 62}, {"note": 79, "velocity": 127, "duration": 189}, {"note": 81, "velocity": 112, "duration": 226}, {"note": 76, "velocity": 102, "duration": 590}, {"note": 0, "velocity": 0, "duration": 130}, {"note": 74, "velocity": 96, "duration": 64}, {"note": 74, "velocity": 96, "duration": 74}, {"note": 76, "velocity": 122, "duration": 274}, {"note": 0, "velocity": 0, "duration": 86}, {"note": 83, "velocity": 127, "duration": 105}, {"note": 81, "velocity": 127, "duration": 207}, {"note": 79, "velocity": 127, "duration": 217}, {"note": 0, "velocity": 0, "duration": 263}, {"note": 79, "velocity": 122, "duration": 50}, {"note": 0, "velocity": 0, "duration": 70}, {"note": 79, "velocity": 100, "duration": 47}, {"note": 0, "velocity": 0, "duration": 73}, {"note": 79, "velocity": 122, "duration": 129}, {"note": 0, "velocity": 0, "duration": 231}, {"note": 76, "velocity": 112, "duration": 108}, {"note": 81, "velocity": 127, "duration": 956}, {"note": 0, "velocity": 0, "duration": 964}, {"note": 74, "velocity": 112, "duration": 241}, {"note": 83, "velocity": 122, "duration": 164}, {"note": 0, "velocity": 0, "duration": 76}, {"note": 83, "velocity": 122, "duration": 175}, {"note": 0, "velocity": 0, "duration": 185}, {"note": 84, "velocity": 127, "duration": 114}, {"note": 81, "velocity": 112, "duration": 325}, {"note": 0, "velocity": 0, "duration": 275}, {"note": 76, "velocity": 96, "duration": 51}, {"note": 0, "velocity": 0, "duration": 69}, {"note": 76, "velocity": 107, "duration": 65}, {"note": 78, "velocity": 127, "duration": 93}, {"note": 81, "velocity": 122, "duration": 208}, {"note": 0, "velocity": 0, "duration": 272}, {"note": 78, "velocity": 127, "duration": 209}, {"note": 76, "velocity": 112, "duration": 217}, {"note": 74, "velocity": 97, "duration": 417}, {"note": 0, "velocity": 0, "duration": 303}, {"note": 71, "velocity": 100, "duration": 136}, {"note": 74, "velocity": 99, "duration": 105}, {"note": 79, "velocity": 112, "duration": 171}, {"note": 0, "velocity": 0, "duration": 69}, {"note": 79, "velocity": 127, "duration": 115}, {"note": 81, "velocity": 127, "duration": 259}, {"note": 0, "velocity": 0, "duration": 101}, {"note": 79, "velocity": 107, "duration": 213}, {"note": 78, "velocity": 117, "duration": 206}, {"note": 76, "velocity": 112, "duration": 116}, {"note": 74, "velocity": 100, "duration": 195}, {"note": 0, "velocity": 0, "duration": 165}, {"note": 67, "velocity": 97, "duration": 124}, {"note": 69, "velocity": 107, "duration": 109}, {"note": 71, "velocity": 112, "duration": 1794}, {"note": 0, "velocity": 0, "duration": 126}, {"note": 76, "velocity": 112, "duration": 167}, {"note": 0, "velocity": 0, "duration": 73}, {"note": 76, "velocity": 100, "duration": 48}, {"note": 0, "velocity": 0, "duration": 72}, {"note": 76, "velocity": 112, "duration": 187}, {"note": 83, "velocity": 127, "duration": 308}, {"note": 81, "velocity": 127, "duration": 455}, {"note": 0, "velocity": 0, "duration": 265}, {"note": 83, "velocity": 122, "duration": 79}, {"note": 81, "velocity": 99, "duration": 101}, {"note": 79, "velocity": 127, "duration": 271}, {"note": 0, "velocity": 0, "duration": 89}, {"note": 79, "velocity": 117, "duration": 62}, {"note": 79, "velocity": 127, "duration": 189}, {"note": 81, "velocity": 112, "duration": 226}, {"note": 76, "velocity": 102, "duration": 590}, {"note": 0, "velocity": 0, "duration": 130}, {"note": 74, "velocity": 96, "duration": 64}, {"note": 74, "velocity": 96, "duration": 74}, {"note": 76, "velocity": 122, "duration": 274}, {"note": 0, "velocity": 0, "duration": 86}, {"note": 83, "velocity": 127, "duration": 105}, {"note": 81, "velocity": 127, "duration": 207}, {"note": 79, "velocity": 127, "duration": 217}, {"note": 0, "velocity": 0, "duration": 263}, {"note": 76, "velocity": 112, "duration": 96}, {"note": 79, "velocity": 100, "duration": 103}, {"note": 83, "velocity": 127, "duration": 168}, {"note": 0, "velocity": 0, "duration": 72}, {"note": 81, "velocity": 127, "duration": 149}, {"note": 0, "velocity": 0, "duration": 91}, {"note": 81, "velocity": 127, "duration": 200}, {"note": 76, "velocity": 102, "duration": 526}, {"note": 81, "velocity": 127, "duration": 225}, {"note": 79, "velocity": 127, "duration": 1221}, {"note": 0, "velocity": 0, "duration": 7419}, {"note": 74, "velocity": 127, "duration": 182}, {"note": 74, "velocity": 97, "duration": 56}, {"note": 0, "velocity": 0, "duration": 64}, {"note": 74, "velocity": 117, "duration": 152}, {"note": 74, "velocity": 127, "duration": 32}, {"note": 0, "velocity": 0, "duration": 208}, {"note": 78, "velocity": 122, "duration": 223}, {"note": 74, "velocity": 107, "duration": 471}, {"note": 0, "velocity": 0, "duration": 489}, {"note": 71, "velocity": 102, "duration": 222}, {"note": 79, "velocity": 102, "duration": 109}, {"note": 81, "velocity": 112, "duration": 293}, {"note": 0, "velocity": 0, "duration": 67}, {"note": 76, "velocity": 122, "duration": 214}, {"note": 74, "velocity": 112, "duration": 485}, {"note": 0, "velocity": 0, "duration": 475}, {"note": 76, "velocity": 127, "duration": 163}, {"note": 0, "velocity": 0, "duration": 77}, {"note": 74, "velocity": 117, "duration": 98}, {"note": 72, "velocity": 127, "duration": 289}, {"note": 0, "velocity": 0, "duration": 71}, {"note": 76, "velocity": 127, "duration": 193}, {"note": 74, "velocity": 127, "duration": 327}, {"note": 67, "velocity": 117, "duration": 339}, {"note": 0, "velocity": 0, "duration": 261}, {"note": 72, "velocity": 122, "duration": 221}, {"note": 71, "velocity": 99, "duration": 406}, {"note": 0, "velocity": 0, "duration": 74}, {"note": 74, "velocity": 112, "duration": 204}, {"note": 69, "velocity": 100, "duration": 656}, {"note": 0, "velocity": 0, "duration": 304}, {"note": 71, "velocity": 102, "duration": 151}, {"note": 0, "velocity": 0, "duration": 89}, {"note": 71, "velocity": 97, "duration": 43}, {"note": 0, "velocity": 0, "duration": 77}, {"note": 71, "velocity": 90, "duration": 51}, {"note": 0, "velocity": 0, "duration": 69}, {"note": 71, "velocity": 102, "duration": 221}, {"note": 79, "velocity": 127, "duration": 162}, {"note": 0, "velocity": 0, "duration": 78}, {"note": 79, "velocity": 127, "duration": 672}, {"note": 0, "velocity": 0, "duration": 288}, {"note": 81, "velocity": 117, "duration": 187}, {"note": 79, "velocity": 100, "duration": 91}, {"note": 78, "velocity": 127, "duration": 266}, {"note": 0, "velocity": 0, "duration": 94}, {"note": 81, "velocity": 102, "duration": 196}, {"note": 74, "velocity": 112, "duration": 460}, {"note": 0, "velocity": 0, "duration": 500}, {"note": 71, "velocity": 122, "duration": 212}, {"note": 79, "velocity": 127, "duration": 462}, {"note": 81, "velocity": 112, "duration": 99}, {"note": 79, "velocity": 93, "duration": 98}, {"note": 78, "velocity": 117, "duration": 284}, {"note": 0, "velocity": 0, "duration": 196}, {"note": 74, "velocity": 102, "duration": 213}, {"note": 0, "velocity": 0, "duration": 267}, {"note": 76, "velocity": 102, "duration": 152}, {"note": 0, "velocity": 0, "duration": 88}, {"note": 76, "velocity": 107, "duration": 78}, {"note": 74, "velocity": 81, "duration": 140}, {"note": 76, "velocity": 117, "duration": 294}, {"note": 79, "velocity": 117, "duration": 90}, {"note": 0, "velocity": 0, "duration": 150}, {"note": 81, "velocity": 127, "duration": 905}, {"note": 74, "velocity": 112, "duration": 241}, {"note": 83, "velocity": 122, "duration": 164}, {"note": 0, "velocity": 0, "duration": 76}, {"note": 83, "velocity": 122, "duration": 175}, {"note": 0, "velocity": 0, "duration": 185}, {"note": 84, "velocity": 127, "duration": 114}, {"note": 81, "velocity": 112, "duration": 325}, {"note": 0, "velocity": 0, "duration": 275}, {"note": 76, "velocity": 127, "duration": 51}, {"note": 0, "velocity": 0, "duration": 69}, {"note": 76, "velocity": 112, "duration": 84}, {"note": 79, "velocity": 97, "duration": 71}, {"note": 81, "velocity": 122, "duration": 208}, {"note": 0, "velocity": 0, "duration": 272}, {"note": 78, "velocity": 127, "duration": 209}, {"note": 76, "velocity": 112, "duration": 217}, {"note": 74, "velocity": 97, "duration": 417}, {"note": 0, "velocity": 0, "duration": 303}, {"note": 71, "velocity": 100, "duration": 136}, {"note": 74, "velocity": 99, "duration": 105}, {"note": 79, "velocity": 112, "duration": 171}, {"note": 0, "velocity": 0, "duration": 69}, {"note": 79, "velocity": 127, "duration": 115}, {"note": 81, "velocity": 127, "duration": 259}, {"note": 0, "velocity": 0, "duration": 101}, {"note": 79, "velocity": 107, "duration": 213}, {"note": 78, "velocity": 117, "duration": 206}, {"note": 76, "velocity": 112, "duration": 116}, {"note": 74, "velocity": 100, "duration": 195}, {"note": 0, "velocity": 0, "duration": 165}, {"note": 67, "velocity": 97, "duration": 124}, {"note": 69, "velocity": 107, "duration": 109}, {"note": 71, "velocity": 112, "duration": 603}, {"note": 0, "velocity": 0, "duration": 1317}, {"note": 76, "velocity": 112, "duration": 167}, {"note": 0, "velocity": 0, "duration": 73}, {"note": 76, "velocity": 100, "duration": 48}, {"note": 0, "velocity": 0, "duration": 72}, {"note": 76, "velocity": 112, "duration": 187}, {"note": 83, "velocity": 127, "duration": 308}, {"note": 81, "velocity": 127, "duration": 455}, {"note": 0, "velocity": 0, "duration": 265}, {"note": 83, "velocity": 122, "duration": 79}, {"note": 81, "velocity": 99, "duration": 101}, {"note": 79, "velocity": 127, "duration": 271}, {"note": 0, "velocity": 0, "duration": 89}, {"note": 79, "velocity": 117, "duration": 62}, {"note": 79, "velocity": 127, "duration": 189}, {"note": 81, "velocity": 112, "duration": 226}, {"note": 76, "velocity": 102, "duration": 590}, {"note": 0, "velocity": 0, "duration": 130}, {"note": 74, "velocity": 96, "duration": 64}, {"note": 74, "velocity": 96, "duration": 74}, {"note": 76, "velocity": 122, "duration": 274}, {"note": 0, "velocity": 0, "duration": 86}, {"note": 83, "velocity": 127, "duration": 105}, {"note": 81, "velocity": 127, "duration": 207}, {"note": 79, "velocity": 127, "duration": 217}, {"note": 0, "velocity": 0, "duration": 263}, {"note": 79, "velocity": 122, "duration": 50}, {"note": 0, "velocity": 0, "duration": 70}, {"note": 79, "velocity": 100, "duration": 47}, {"note": 0, "velocity": 0, "duration": 73}, {"note": 79, "velocity": 122, "duration": 129}, {"note": 0, "velocity": 0, "duration": 231}, {"note": 76, "velocity": 112, "duration": 108}, {"note": 81, "velocity": 127, "duration": 956}, {"note": 0, "velocity": 0, "duration": 964}, {"note": 74, "velocity": 112, "duration": 241}, {"note": 83, "velocity": 122, "duration": 164}, {"note": 0, "velocity": 0, "duration": 76}, {"note": 83, "velocity": 122, "duration": 175}, {"note": 0, "velocity": 0, "duration": 185}, {"note": 84, "velocity": 127, "duration": 114}, {"note": 81, "velocity": 112, "duration": 325}, {"note": 0, "velocity": 0, "duration": 275}, {"note": 76, "velocity": 96, "duration": 51}, {"note": 0, "velocity": 0, "duration": 69}, {"note": 76, "velocity": 107, "duration": 65}, {"note": 78, "velocity": 127, "duration": 93}, {"note": 81, "velocity": 122, "duration": 208}, {"note": 0, "velocity": 0, "duration": 272}, {"note": 78, "velocity": 127, "duration": 209}, {"note": 76, "velocity": 112, "duration": 217}, {"note": 74, "velocity": 97, "duration": 417}, {"note": 0, "velocity": 0, "duration": 303}, {"note": 71, "velocity": 100, "duration": 136}, {"note": 74, "velocity": 99, "duration": 105}, {"note": 79, "velocity": 112, "duration": 171}, {"note": 0, "velocity": 0, "duration": 69}, {"note": 79, "velocity": 127, "duration": 115}, {"note": 81, "velocity": 127, "duration": 259}, {"note": 0, "velocity": 0, "duration": 101}, {"note": 79, "velocity": 107, "duration": 213}, {"note": 78, "velocity": 117, "duration": 206}, {"note": 76, "velocity": 112, "duration": 116}, {"note": 74, "velocity": 100, "duration": 195}, {"note": 0, "velocity": 0, "duration": 165}, {"note": 67, "velocity": 97, "duration": 124}, {"note": 69, "velocity": 107, "duration": 109}, {"note": 71, "velocity": 112, "duration": 1794}, {"note": 0, "velocity": 0, "duration": 126}, {"note": 76, "velocity": 112, "duration": 167}, {"note": 0, "velocity": 0, "duration": 73}, {"note": 76, "velocity": 100, "duration": 48}, {"note": 0, "velocity": 0, "duration": 72}, {"note": 76, "velocity": 112, "duration": 187}, {"note": 83, "velocity": 127, "duration": 308}, {"note": 81, "velocity": 127, "duration": 455}, {"note": 0, "velocity": 0, "duration": 265}, {"note": 83, "velocity": 122, "duration": 79}, {"note": 81, "velocity": 99, "duration": 101}, {"note": 79, "velocity": 127, "duration": 271}, {"note": 0, "velocity": 0, "duration": 89}, {"note": 79, "velocity": 117, "duration": 62}, {"note": 79, "velocity": 127, "duration": 189}, {"note": 81, "velocity": 112, "duration": 226}, {"note": 76, "velocity": 102, "duration": 590}, {"note": 0, "velocity": 0, "duration": 130}, {"note": 74, "velocity": 96, "duration": 64}, {"note": 74, "velocity": 96, "duration": 74}, {"note": 76, "velocity": 122, "duration": 274}, {"note": 0, "velocity": 0, "duration": 86}, {"note": 83, "velocity": 127, "duration": 105}, {"note": 81, "velocity": 127, "duration": 207}, {"note": 79, "velocity": 127, "duration": 217}, {"note": 0, "velocity": 0, "duration": 263}, {"note": 76, "velocity": 112, "duration": 96}, {"note": 79, "velocity": 100, "duration": 103}, {"note": 83, "velocity": 127, "duration": 168}, {"note": 0, "velocity": 0, "duration": 72}, {"note": 81, "velocity": 127, "duration": 149}, {"note": 0, "velocity": 0, "duration": 91}, {"note": 81, "velocity": 127, "duration": 200}, {"note": 76, "velocity": 102, "duration": 526}, {"note": 81, "velocity": 127, "duration": 225}, {"note": 79, "velocity": 127, "duration": 480}, {"note": 0, "velocity": 0, "duration": 240}, {"note": 74, "velocity": 107, "duration": 66}, {"note": 74, "velocity": 97, "duration": 108}, {"note": 76, "velocity": 107, "duration": 263}, {"note": 83, "velocity": 122, "duration": 231}, {"note": 81, "velocity": 102, "duration": 281}, {"note": 79, "velocity": 127, "duration": 305}, {"note": 0, "velocity": 0, "duration": 175}, {"note": 76, "velocity": 97, "duration": 161}, {"note": 79, "velocity": 96, "duration": 142}, {"note": 83, "velocity": 92, "duration": 267}, {"note": 81, "velocity": 117, "duration": 264}, {"note": 81, "velocity": 117, "duration": 24}, {"note": 0, "velocity": 0, "duration": 216}, {"note": 76, "velocity": 99, "duration": 1039}, {"note": 0, "velocity": 0, "duration": 401}, {"note": 81, "velocity": 117, "duration": 273}, {"note": 79, "velocity": 97, "duration": 1095}]]