[[{"note": 74, "velocity": 94, "duration": 72}, {"note": 74, "velocity": 105, "duration": 84}, {"note": 72, "velocity": 105, "duration": 72}, {"note": 71, "velocity": 105, "duration": 68}, {"note": 71, "velocity": 102, "duration": 812}, {"note": 69, "velocity": 114, "duration": 73}, {"note": 67, "velocity": 105, "duration": 84}, {"note": 71, "velocity": 117, "duration": 175}, {"note": 0, "velocity": 0, "duration": 65}, {"note": 72, "velocity": 108, "duration": 61}, {"note": 72, "velocity": 105, "duration": 918}, {"note": 0, "velocity": 0, "duration": 1002}, {"note": 72, "velocity": 105, "duration": 70}, {"note": 72, "velocity": 111, "duration": 90}, {"note": 71, "velocity": 100, "duration": 64}, {"note": 71, "velocity": 114, "duration": 74}, {"note": 69, "velocity": 114, "duration": 705}, {"note": 0, "velocity": 0, "duration": 135}, {"note": 69, "velocity": 114, "duration": 84}, {"note": 67, "velocity": 80, "duration": 66}, {"note": 69, "velocity": 117, "duration": 174}, {"note": 0, "velocity": 0, "duration": 66}, {"note": 71, "velocity": 114, "duration": 61}, {"note": 71, "velocity": 117, "duration": 1366}, {"note": 0, "velocity": 0, "duration": 554}, {"note": 74, "velocity": 94, "duration": 72}, {"note": 74, "velocity": 105, "duration": 84}, {"note": 72, "velocity": 105, "duration": 72}, {"note": 71, "velocity": 105, "duration": 68}, {"note": 71, "velocity": 102, "duration": 812}, {"note": 69, "velocity": 114, "duration": 73}, {"note": 67, "velocity": 105, "duration": 84}, {"note": 71, "velocity": 117, "duration": 175}, {"note": 0, "velocity": 0, "duration": 65}, {"note": 72, "velocity": 108, "duration": 61}, {"note": 72, "velocity": 105, "duration": 918}, {"note": 0, "velocity": 0, "duration": 1002}, {"note": 72, "velocity": 105, "duration": 70}, {"note": 72, "velocity": 111, "duration": 90}, {"note": 71, "velocity": 100, "duration": 64}, {"note": 71, "velocity": 114, "duration": 74}, {"note": 69, "velocity": 114, "duration": 705}, {"note": 0, "velocity": 0, "duration": 135}, {"note": 69, "velocity": 114, "duration": 84}, {"note": 71, "velocity": 80, "duration": 66}, {"note": 69, "velocity": 117, "duration": 174}, {"note": 0, "velocity": 0, "duration": 66}, {"note": 67, "velocity": 114, "duration": 61}, {"note": 67, "velocity": 117, "duration": 1078}, {"note": 71, "velocity": 120, "duration": 175}, {"note": 0, "velocity": 0, "duration": 65}, {"note": 74, "velocity": 114, "duration": 148}, {"note": 0, "velocity": 0, "duration": 92}, {"note": 79, "velocity": 111, "duration": 487}, {"note": 0, "velocity": 0, "duration": 233}, {"note": 78, "velocity": 112, "duration": 50}, {"note": 0, "velocity": 0, "duration": 70}, {"note": 79, "velocity": 105, "duration": 90}, {"note": 78, "velocity": 112, "duration": 158}, {"note": 0, "velocity": 0, "duration": 82}, {"note": 71, "velocity": 108, "duration": 89}, {"note": 74, "velocity": 87, "duration": 391}, {"note": 0, "velocity": 0, "duration": 209}, {"note": 74, "velocity": 120, "duration": 195}, {"note": 76, "velocity": 114, "duration": 145}, {"note": 0, "velocity": 0, "duration": 95}, {"note": 67, "velocity": 120, "duration": 164}, {"note": 0, "velocity": 0, "duration": 76}, {"note": 74, "velocity": 111, "duration": 66}, {"note": 71, "velocity": 111, "duration": 478}, {"note": 0, "velocity": 0, "duration": 122}, {"note": 71, "velocity": 111, "duration": 172}, {"note": 0, "velocity": 0, "duration": 68}, {"note": 74, "velocity": 108, "duration": 151}, {"note": 0, "velocity": 0, "duration": 89}, {"note": 74, "velocity": 92, "duration": 73}, {"note": 72, "velocity": 108, "duration": 53}, {"note": 0, "velocity": 0, "duration": 67}, {"note": 71, "velocity": 111, "duration": 56}, {"note": 0, "velocity": 0, "duration": 64}, {"note": 72, "velocity": 111, "duration": 340}, {"note": 0, "velocity": 0, "duration": 260}, {"note": 74, "velocity": 108, "duration": 82}, {"note": 72, "velocity": 108, "duration": 60}, {"note": 71, "velocity": 108, "duration": 73}, {"note": 72, "velocity": 114, "duration": 164}, {"note": 0, "velocity": 0, "duration": 76}, {"note": 72, "velocity": 108, "duration": 74}, {"note": 71, "velocity": 108, "duration": 64}, {"note": 72, "velocity": 108, "duration": 60}, {"note": 74, "velocity": 105, "duration": 1148}, {"note": 0, "velocity": 0, "duration": 292}, {"note": 74, "velocity": 111, "duration": 76}, {"note": 76, "velocity": 114, "duration": 62}, {"note": 79, "velocity": 114, "duration": 82}, {"note": 76, "velocity": 108, "duration": 69}, {"note": 83, "velocity": 114, "duration": 207}, {"note": 0, "velocity": 0, "duration": 153}, {"note": 83, "velocity": 114, "duration": 159}, {"note": 0, "velocity": 0, "duration": 81}, {"note": 76, "velocity": 102, "duration": 163}, {"note": 0, "velocity": 0, "duration": 77}, {"note": 81, "velocity": 114, "duration": 424}, {"note": 81, "velocity": 100, "duration": 64}, {"note": 81, "velocity": 105, "duration": 76}, {"note": 79, "velocity": 111, "duration": 65}, {"note": 78, "velocity": 102, "duration": 69}, {"note": 79, "velocity": 105, "duration": 65}, {"note": 81, "velocity": 111, "duration": 144}, {"note": 0, "velocity": 0, "duration": 96}, {"note": 83, "velocity": 111, "duration": 60}, {"note": 81, "velocity": 105, "duration": 127}, {"note": 0, "velocity": 0, "duration": 113}, {"note": 74, "velocity": 105, "duration": 122}, {"note": 0, "velocity": 0, "duration": 118}, {"note": 79, "velocity": 111, "duration": 432}, {"note": 0, "velocity": 0, "duration": 168}, {"note": 79, "velocity": 114, "duration": 73}, {"note": 78, "velocity": 102, "duration": 73}, {"note": 76, "velocity": 111, "duration": 56}, {"note": 0, "velocity": 0, "duration": 64}, {"note": 78, "velocity": 112, "duration": 64}, {"note": 79, "velocity": 114, "duration": 143}, {"note": 0, "velocity": 0, "duration": 97}, {"note": 72, "velocity": 108, "duration": 72}, {"note": 72, "velocity": 111, "duration": 222}, {"note": 79, "velocity": 111, "duration": 53}, {"note": 0, "velocity": 0, "duration": 67}, {"note": 79, "velocity": 111, "duration": 57}, {"note": 0, "velocity": 0, "duration": 63}, {"note": 81, "velocity": 111, "duration": 61}, {"note": 79, "velocity": 114, "duration": 166}, {"note": 0, "velocity": 0, "duration": 74}, {"note": 74, "velocity": 114, "duration": 72}, {"note": 74, "velocity": 111, "duration": 123}, {"note": 0, "velocity": 0, "duration": 357}, {"note": 74, "velocity": 114, "duration": 50}, {"note": 0, "velocity": 0, "duration": 70}, {"note": 84, "velocity": 102, "duration": 373}, {"note": 0, "velocity": 0, "duration": 107}, {"note": 83, "velocity": 108, "duration": 179}, {"note": 0, "velocity": 0, "duration": 61}, {"note": 81, "velocity": 94, "duration": 65}, {"note": 83, "velocity": 114, "duration": 497}, {"note": 0, "velocity": 0, "duration": 103}, {"note": 74, "velocity": 111, "duration": 76}, {"note": 76, "velocity": 114, "duration": 62}, {"note": 79, "velocity": 114, "duration": 82}, {"note": 76, "velocity": 108, "duration": 69}, {"note": 83, "velocity": 114, "duration": 207}, {"note": 0, "velocity": 0, "duration": 153}, {"note": 83, "velocity": 114, "duration": 159}, {"note": 0, "velocity": 0, "duration": 81}, {"note": 76, "velocity": 102, "duration": 163}, {"note": 0, "velocity": 0, "duration": 77}, {"note": 81, "velocity": 114, "duration": 424}, {"note": 81, "velocity": 100, "duration": 64}, {"note": 81, "velocity": 105, "duration": 76}, {"note": 79, "velocity": 111, "duration": 65}, {"note": 78, "velocity": 102, "duration": 69}, {"note": 79, "velocity": 105, "duration": 65}, {"note": 81, "velocity": 111, "duration": 144}, {"note": 0, "velocity": 0, "duration": 96}, {"note": 83, "velocity": 111, "duration": 60}, {"note": 81, "velocity": 105, "duration": 127}, {"note": 0, "velocity": 0, "duration": 113}, {"note": 74, "velocity": 105, "duration": 122}, {"note": 0, "velocity": 0, "duration": 118}, {"note": 79, "velocity": 111, "duration": 432}, {"note": 0, "velocity": 0, "duration": 168}, {"note": 79, "velocity": 114, "duration": 73}, {"note": 78, "velocity": 102, "duration": 73}, {"note": 76, "velocity": 111, "duration": 56}, {"note": 0, "velocity": 0, "duration": 64}, {"note": 78, "velocity": 112, "duration": 64}, {"note": 79, "velocity": 114, "duration": 143}, {"note": 0, "velocity": 0, "duration": 97}, {"note": 72, "velocity": 108, "duration": 72}, {"note": 72, "velocity": 111, "duration": 222}, {"note": 79, "velocity": 111, "duration": 53}, {"note": 0, "velocity": 0, "duration": 67}, {"note": 79, "velocity": 111, "duration": 57}, {"note": 0, "velocity": 0, "duration": 63}, {"note": 81, "velocity": 111, "duration": 61}, {"note": 79, "velocity": 114, "duration": 166}, {"note": 0, "velocity": 0, "duration": 74}, {"note": 74, "velocity": 114, "duration": 72}, {"note": 74, "velocity": 111, "duration": 238}, {"note": 0, "velocity": 0, "duration": 242}, {"note": 74, "velocity": 114, "duration": 50}, {"note": 0, "velocity": 0, "duration": 70}, {"note": 76, "velocity": 102, "duration": 373}, {"note": 0, "velocity": 0, "duration": 107}, {"note": 78, "velocity": 108, "duration": 478}, {"note": 79, "velocity": 100, "duration": 188}, {"note": 79, "velocity": 111, "duration": 183}, {"note": 78, "velocity": 105, "duration": 180}, {"note": 79, "velocity": 105, "duration": 1701}, {"note": 0, "velocity": 0, "duration": 7539}, {"note": 74, "velocity": 94, "duration": 72}, {"note": 74, "velocity": 105, "duration": 84}, {"note": 72, "velocity": 105, "duration": 72}, {"note": 71, "velocity": 105, "duration": 68}, {"note": 71, "velocity": 102, "duration": 812}, {"note": 69, "velocity": 114, "duration": 73}, {"note": 67, "velocity": 105, "duration": 84}, {"note": 71, "velocity": 117, "duration": 175}, {"note": 0, "velocity": 0, "duration": 65}, {"note": 72, "velocity": 108, "duration": 61}, {"note": 72, "velocity": 105, "duration": 918}, {"note": 0, "velocity": 0, "duration": 1002}, {"note": 72, "velocity": 105, "duration": 70}, {"note": 72, "velocity": 111, "duration": 90}, {"note": 71, "velocity": 100, "duration": 64}, {"note": 71, "velocity": 114, "duration": 74}, {"note": 69, "velocity": 114, "duration": 705}, {"note": 0, "velocity": 0, "duration": 135}, {"note": 69, "velocity": 114, "duration": 84}, {"note": 67, "velocity": 80, "duration": 66}, {"note": 69, "velocity": 117, "duration": 174}, {"note": 0, "velocity": 0, "duration": 66}, {"note": 71, "velocity": 114, "duration": 61}, {"note": 71, "velocity": 117, "duration": 1366}, {"note": 0, "velocity": 0, "duration": 554}, {"note": 74, "velocity": 94, "duration": 72}, {"note": 74, "velocity": 105, "duration": 84}, {"note": 72, "velocity": 105, "duration": 72}, {"note": 71, "velocity": 105, "duration": 68}, {"note": 71, "velocity": 102, "duration": 812}, {"note": 69, "velocity": 114, "duration": 73}, {"note": 67, "velocity": 105, "duration": 84}, {"note": 71, "velocity": 117, "duration": 175}, {"note": 0, "velocity": 0, "duration": 65}, {"note": 72, "velocity": 108, "duration": 61}, {"note": 72, "velocity": 105, "duration": 918}, {"note": 0, "velocity": 0, "duration": 1002}, {"note": 72, "velocity": 105, "duration": 70}, {"note": 72, "velocity": 111, "duration": 90}, {"note": 71, "velocity": 100, "duration": 64}, {"note": 71, "velocity": 114, "duration": 74}, {"note": 69, "velocity": 114, "duration": 705}, {"note": 0, "velocity": 0, "duration": 135}, {"note": 69, "velocity": 114, "duration": 84}, {"note": 71, "velocity": 80, "duration": 66}, {"note": 69, "velocity": 117, "duration": 174}, {"note": 0, "velocity": 0, "duration": 66}, {"note": 67, "velocity": 114, "duration": 61}, {"note": 67, "velocity": 117, "duration": 1078}, {"note": 71, "velocity": 120, "duration": 175}, {"note": 0, "velocity": 0, "duration": 65}, {"note": 74, "velocity": 114, "duration": 148}, {"note": 0, "velocity": 0, "duration": 92}, {"note": 79, "velocity": 111, "duration": 487}, {"note": 0, "velocity": 0, "duration": 233}, {"note": 78, "velocity": 112, "duration": 50}, {"note": 0, "velocity": 0, "duration": 70}, {"note": 79, "velocity": 105, "duration": 90}, {"note": 78, "velocity": 112, "duration": 158}, {"note": 0, "velocity": 0, "duration": 82}, {"note": 71, "velocity": 108, "duration": 89}, {"note": 74, "velocity": 87, "duration": 391}, {"note": 0, "velocity": 0, "duration": 209}, {"note": 74, "velocity": 120, "duration": 195}, {"note": 76, "velocity": 114, "duration": 145}, {"note": 0, "velocity": 0, "duration": 95}, {"note": 67, "velocity": 120, "duration": 164}, {"note": 0, "velocity": 0, "duration": 76}, {"note": 74, "velocity": 111, "duration": 66}, {"note": 71, "velocity": 111, "duration": 478}, {"note": 0, "velocity": 0, "duration": 122}, {"note": 71, "velocity": 111, "duration": 172}, {"note": 0, "velocity": 0, "duration": 68}, {"note": 74, "velocity": 108, "duration": 151}, {"note": 0, "velocity": 0, "duration": 89}, {"note": 74, "velocity": 92, "duration": 73}, {"note": 72, "velocity": 108, "duration": 53}, {"note": 0, "velocity": 0, "duration": 67}, {"note": 71, "velocity": 111, "duration": 56}, {"note": 0, "velocity": 0, "duration": 64}, {"note": 72, "velocity": 111, "duration": 340}, {"note": 0, "velocity": 0, "duration": 260}, {"note": 74, "velocity": 108, "duration": 82}, {"note": 72, "velocity": 108, "duration": 60}, {"note": 71, "velocity": 108, "duration": 73}, {"note": 72, "velocity": 114, "duration": 164}, {"note": 0, "velocity": 0, "duration": 76}, {"note": 72, "velocity": 108, "duration": 74}, {"note": 71, "velocity": 108, "duration": 64}, {"note": 72, "velocity": 108, "duration": 60}, {"note": 74, "velocity": 105, "duration": 1148}, {"note": 0, "velocity": 0, "duration": 292}, {"note": 74, "velocity": 111, "duration": 76}, {"note": 76, "velocity": 114, "duration": 62}, {"note": 79, "velocity": 114, "duration": 82}, {"note": 76, "velocity": 108, "duration": 69}, {"note": 83, "velocity": 114, "duration": 207}, {"note": 0, "velocity": 0, "duration": 153}, {"note": 83, "velocity": 114, "duration": 159}, {"note": 0, "velocity": 0, "duration": 81}, {"note": 76, "velocity": 102, "duration": 163}, {"note": 0, "velocity": 0, "duration": 77}, {"note": 81, "velocity": 114, "duration": 424}, {"note": 81, "velocity": 100, "duration": 64}, {"note": 81, "velocity": 105, "duration": 76}, {"note": 79, "velocity": 111, "duration": 65}, {"note": 78, "velocity": 102, "duration": 69}, {"note": 79, "velocity": 105, "duration": 65}, {"note": 81, "velocity": 111, "duration": 144}, {"note": 0, "velocity": 0, "duration": 96}, {"note": 83, "velocity": 111, "duration": 60}, {"note": 81, "velocity": 105, "duration": 127}, {"note": 0, "velocity": 0, "duration": 113}, {"note": 74, "velocity": 105, "duration": 122}, {"note": 0, "velocity": 0, "duration": 118}, {"note": 79, "velocity": 111, "duration": 432}, {"note": 0, "velocity": 0, "duration": 168}, {"note": 79, "velocity": 114, "duration": 73}, {"note": 78, "velocity": 102, "duration": 73}, {"note": 76, "velocity": 111, "duration": 56}, {"note": 0, "velocity": 0, "duration": 64}, {"note": 78, "velocity": 112, "duration": 64}, {"note": 79, "velocity": 114, "duration": 143}, {"note": 0, "velocity": 0, "duration": 97}, {"note": 72, "velocity": 108, "duration": 72}, {"note": 72, "velocity": 111, "duration": 222}, {"note": 79, "velocity": 111, "duration": 53}, {"note": 0, "velocity": 0, "duration": 67}, {"note": 79, "velocity": 111, "duration": 57}, {"note": 0, "velocity": 0, "duration": 63}, {"note": 81, "velocity": 111, "duration": 61}, {"note": 79, "velocity": 114, "duration": 166}, {"note": 0, "velocity": 0, "duration": 74}, {"note": 74, "velocity": 114, "duration": 72}, {"note": 74, "velocity": 111, "duration": 123}, {"note": 0, "velocity": 0, "duration": 357}, {"note": 74, "velocity": 114, "duration": 50}, {"note": 0, "velocity": 0, "duration": 70}, {"note": 84, "velocity": 102, "duration": 373}, {"note": 0, "velocity": 0, "duration": 107}, {"note": 83, "velocity": 108, "duration": 179}, {"note": 0, "velocity": 0, "duration": 61}, {"note": 81, "velocity": 94, "duration": 65}, {"note": 83, "velocity": 114, "duration": 497}, {"note": 0, "velocity": 0, "duration": 103}, {"note": 74, "velocity": 111, "duration": 76}, {"note": 76, "velocity": 114, "duration": 62}, {"note": 79, "velocity": 114, "duration": 82}, {"note": 76, "velocity": 108, "duration": 69}, {"note": 83, "velocity": 114, "duration": 207}, {"note": 0, "velocity": 0, "duration": 153}, {"note": 83, "velocity": 114, "duration": 159}, {"note": 0, "velocity": 0, "duration": 81}, {"note": 76, "velocity": 102, "duration": 163}, {"note": 0, "velocity": 0, "duration": 77}, {"note": 81, "velocity": 114, "duration": 424}, {"note": 81, "velocity": 100, "duration": 64}, {"note": 81, "velocity": 105, "duration": 76}, {"note": 79, "velocity": 111, "duration": 65}, {"note": 78, "velocity": 102, "duration": 69}, {"note": 79, "velocity": 105, "duration": 65}, {"note": 81, "velocity": 111, "duration": 144}, {"note": 0, "velocity": 0, "duration": 96}, {"note": 83, "velocity": 111, "duration": 60}, {"note": 81, "velocity": 105, "duration": 127}, {"note": 0, "velocity": 0, "duration": 113}, {"note": 74, "velocity": 105, "duration": 122}, {"note": 0, "velocity": 0, "duration": 118}, {"note": 79, "velocity": 111, "duration": 432}, {"note": 0, "velocity": 0, "duration": 168}, {"note": 79, "velocity": 114, "duration": 73}, {"note": 78, "velocity": 102, "duration": 73}, {"note": 76, "velocity": 111, "duration": 56}, {"note": 0, "velocity": 0, "duration": 64}, {"note": 78, "velocity": 112, "duration": 64}, {"note": 79, "velocity": 114, "duration": 143}, {"note": 0, "velocity": 0, "duration": 97}, {"note": 72, "velocity": 108, "duration": 72}, {"note": 72, "velocity": 111, "duration": 222}, {"note": 79, "velocity": 111, "duration": 53}, {"note": 0, "velocity": 0, "duration": 67}, {"note": 79, "velocity": 111, "duration": 57}, {"note": 0, "velocity": 0, "duration": 63}, {"note": 81, "velocity": 111, "duration": 61}, {"note": 79, "velocity": 114, "duration": 166}, {"note": 0, "velocity": 0, "duration": 74}, {"note": 74, "velocity": 114, "duration": 72}, {"note": 74, "velocity": 111, "duration": 238}, {"note": 0, "velocity": 0, "duration": 242}, {"note": 74, "velocity": 114, "duration": 50}, {"note": 0, "velocity": 0, "duration": 70}, {"note": 76, "velocity": 102, "duration": 373}, {"note": 0, "velocity": 0, "duration": 107}, {"note": 78, "velocity": 108, "duration": 478}, {"note": 79, "velocity": 100, "duration": 188}, {"note": 79, "velocity": 111, "duration": 183}, {"note": 78, "velocity": 105, "duration": 180}, {"note": 79, "velocity": 105, "duration": 1701}, {"note": 74, "velocity": 111, "duration": 76}, {"note": 76, "velocity": 114, "duration": 62}, {"note": 79, "velocity": 114, "duration": 82}, {"note": 76, "velocity": 108, "duration": 69}, {"note": 83, "velocity": 114, "duration": 207}, {"note": 0, "velocity": 0, "duration": 153}, {"note": 83, "velocity": 114, "duration": 159}, {"note": 0, "velocity": 0, "duration": 81}, {"note": 76, "velocity": 102, "duration": 163}, {"note": 0, "velocity": 0, "duration": 77}, {"note": 81, "velocity": 114, "duration": 424}, {"note": 81, "velocity": 100, "duration": 64}, {"note": 81, "velocity": 105, "duration": 76}, {"note": 79, "velocity": 111, "duration": 65}, {"note": 78, "velocity": 102, "duration": 69}, {"note": 79, "velocity": 105, "duration": 65}, {"note": 81, "velocity": 111, "duration": 144}, {"note": 0, "velocity": 0, "duration": 96}, {"note": 83, "velocity": 111, "duration": 60}, {"note": 81, "velocity": 105, "duration": 127}, {"note": 0, "velocity": 0, "duration": 113}, {"note": 74, "velocity": 105, "duration": 122}, {"note": 0, "velocity": 0, "duration": 118}, {"note": 79, "velocity": 111, "duration": 432}, {"note": 0, "velocity": 0, "duration": 168}, {"note": 79, "velocity": 114, "duration": 73}, {"note": 78, "velocity": 102, "duration": 73}, {"note": 76, "velocity": 111, "duration": 56}, {"note": 0, "velocity": 0, "duration": 64}, {"note": 78, "velocity": 112, "duration": 64}, {"note": 79, "velocity": 114, "duration": 143}, {"note": 0, "velocity": 0, "duration": 97}, {"note": 72, "velocity": 108, "duration": 72}, {"note": 72, "velocity": 111, "duration": 222}, {"note": 79, "velocity": 111, "duration": 53}, {"note": 0, "velocity": 0, "duration": 67}, {"note": 79, "velocity": 111, "duration": 57}, {"note": 0, "velocity": 0, "duration": 63}, {"note": 81, "velocity": 111, "duration": 61}, {"note": 79, "velocity": 114, "duration": 166}, {"note": 0, "velocity": 0, "duration": 74}, {"note": 74, "velocity": 114, "duration": 72}, {"note": 74, "velocity": 111, "duration": 123}, {"note": 0, "velocity": 0, "duration": 357}, {"note": 74, "velocity": 114, "duration": 50}, {"note": 0, "velocity": 0, "duration": 70}, {"note": 84, "velocity": 102, "duration": 373}, {"note": 0, "velocity": 0, "duration": 107}, {"note": 83, "velocity": 108, "duration": 179}, {"note": 0, "velocity": 0, "duration": 61}, {"note": 81, "velocity": 94, "duration": 65}, {"note": 83, "velocity": 114, "duration": 497}, {"note": 0, "velocity": 0, "duration": 103}, {"note": 74, "velocity": 111, "duration": 76}, {"note": 76, "velocity": 114, "duration": 62}, {"note": 79, "velocity": 114, "duration": 82}, {"note": 76, "velocity": 108, "duration": 69}, {"note": 83, "velocity": 114, "duration": 207}, {"note": 0, "velocity": 0, "duration": 153}, {"note": 83, "velocity": 114, "duration": 159}, {"note": 0, "velocity": 0, "duration": 81}, {"note": 76, "velocity": 102, "duration": 163}, {"note": 0, "velocity": 0, "duration": 77}, {"note": 81, "velocity": 114, "duration": 424}, {"note": 81, "velocity": 100, "duration": 64}, {"note": 81, "velocity": 105, "duration": 76}, {"note": 79, "velocity": 111, "duration": 65}, {"note": 78, "velocity": 102, "duration": 69}, {"note": 79, "velocity": 105, "duration": 65}, {"note": 81, "velocity": 111, "duration": 144}, {"note": 0, "velocity": 0, "duration": 96}, {"note": 83, "velocity": 111, "duration": 60}, {"note": 81, "velocity": 105, "duration": 127}, {"note": 0, "velocity": 0, "duration": 113}, {"note": 74, "velocity": 105, "duration": 122}, {"note": 0, "velocity": 0, "duration": 118}, {"note": 79, "velocity": 111, "duration": 432}, {"note": 0, "velocity": 0, "duration": 168}, {"note": 79, "velocity": 114, "duration": 73}, {"note": 78, "velocity": 102, "duration": 73}, {"note": 76, "velocity": 111, "duration": 56}, {"note": 0, "velocity": 0, "duration": 64}, {"note": 78, "velocity": 112, "duration": 64}, {"note": 79, "velocity": 114, "duration": 143}, {"note": 0, "velocity": 0, "duration": 97}, {"note": 72, "velocity": 108, "duration": 72}, {"note": 72, "velocity": 111, "duration": 222}, {"note": 79, "velocity": 111, "duration": 53}, {"note": 0, "velocity": 0, "duration": 67}, {"note": 79, "velocity": 111, "duration": 57}, {"note": 0, "velocity": 0, "duration": 63}, {"note": 81, "velocity": 111, "duration": 61}, {"note": 79, "velocity": 114, "duration": 166}, {"note": 0, "velocity": 0, "duration": 74}, {"note": 74, "velocity": 114, "duration": 72}, {"note": 74, "velocity": 111, "duration": 238}, {"note": 0, "velocity": 0, "duration": 242}, {"note": 74, "velocity": 114, "duration": 50}, {"note": 0, "velocity": 0, "duration": 70}, {"note": 76, "velocity": 102, "duration": 373}, {"note": 0, "velocity": 0, "duration": 107}, {"note": 78, "velocity": 108, "duration": 478}, {"note": 79, "velocity": 100, "duration": 188}, {"note": 79, "velocity": 111, "duration": 183}, {"note": 78, "velocity": 105, "duration": 180}, {"note": 79, "velocity": 105, "duration": 1701}, {"note": 0, "velocity": 0, "duration": 474}, {"note": 74, "velocity": 100, "duration": 134}, {"note": 0, "velocity": 0, "duration": 83}, {"note": 76, "velocity": 97, "duration": 464}, {"note": 78, "velocity": 99, "duration": 350}, {"note": 0, "velocity": 0, "duration": 72}, {"note": 79, "velocity": 100, "duration": 282}, {"note": 0, "velocity": 0, "duration": 64}, {"note": 79, "velocity": 84, "duration": 132}, {"note": 78, "velocity": 93, "duration": 486}, {"note": 0, "velocity": 0, "duration": 120}, {"note": 79, "velocity": 94, "duration": 1119}]]