[[{"note": 67, "velocity": 109, "duration": 69}, {"note": 69, "velocity": 115, "duration": 69}, {"note": 71, "velocity": 109, "duration": 164}, {"note": 0, "velocity": 0, "duration": 76}, {"note": 71, "velocity": 109, "duration": 158}, {"note": 0, "velocity": 0, "duration": 82}, {"note": 71, "velocity": 112, "duration": 162}, {"note": 0, "velocity": 0, "duration": 78}, {"note": 69, "velocity": 109, "duration": 164}, {"note": 0, "velocity": 0, "duration": 76}, {"note": 69, "velocity": 109, "duration": 167}, {"note": 0, "velocity": 0, "duration": 73}, {"note": 67, "velocity": 109, "duration": 995}, {"note": 0, "velocity": 0, "duration": 445}, {"note": 69, "velocity": 109, "duration": 63}, {"note": 71, "velocity": 115, "duration": 62}, {"note": 72, "velocity": 109, "duration": 632}, {"note": 0, "velocity": 0, "duration": 88}, {"note": 71, "velocity": 109, "duration": 130}, {"note": 0, "velocity": 0, "duration": 110}, {"note": 69, "velocity": 109, "duration": 149}, {"note": 0, "velocity": 0, "duration": 91}, {"note": 71, "velocity": 106, "duration": 207}, {"note": 67, "velocity": 109, "duration": 1002}, {"note": 0, "velocity": 0, "duration": 198}, {"note": 69, "velocity": 109, "duration": 154}, {"note": 0, "velocity": 0, "duration": 86}, {"note": 69, "velocity": 109, "duration": 870}, {"note": 0, "velocity": 0, "duration": 810}, {"note": 67, "velocity": 112, "duration": 61}, {"note": 69, "velocity": 112, "duration": 59}, {"note": 0, "velocity": 0, "duration": 61}, {"note": 71, "velocity": 109, "duration": 161}, {"note": 0, "velocity": 0, "duration": 79}, {"note": 71, "velocity": 109, "duration": 168}, {"note": 0, "velocity": 0, "duration": 72}, {"note": 71, "velocity": 112, "duration": 163}, {"note": 0, "velocity": 0, "duration": 77}, {"note": 69, "velocity": 112, "duration": 158}, {"note": 0, "velocity": 0, "duration": 82}, {"note": 69, "velocity": 112, "duration": 287}, {"note": 0, "velocity": 0, "duration": 73}, {"note": 67, "velocity": 112, "duration": 1144}, {"note": 0, "velocity": 0, "duration": 176}, {"note": 71, "velocity": 109, "duration": 75}, {"note": 72, "velocity": 109, "duration": 58}, {"note": 0, "velocity": 0, "duration": 62}, {"note": 74, "velocity": 112, "duration": 634}, {"note": 0, "velocity": 0, "duration": 86}, {"note": 72, "velocity": 106, "duration": 75}, {"note": 71, "velocity": 106, "duration": 62}, {"note": 69, "velocity": 115, "duration": 187}, {"note": 71, "velocity": 109, "duration": 195}, {"note": 67, "velocity": 109, "duration": 524}, {"note": 0, "velocity": 0, "duration": 676}, {"note": 71, "velocity": 112, "duration": 179}, {"note": 0, "velocity": 0, "duration": 61}, {"note": 69, "velocity": 112, "duration": 1344}, {"note": 0, "velocity": 0, "duration": 96}, {"note": 67, "velocity": 112, "duration": 181}, {"note": 66, "velocity": 120, "duration": 158}, {"note": 0, "velocity": 0, "duration": 82}, {"note": 64, "velocity": 112, "duration": 602}, {"note": 0, "velocity": 0, "duration": 358}, {"note": 64, "velocity": 112, "duration": 158}, {"note": 0, "velocity": 0, "duration": 82}, {"note": 66, "velocity": 117, "duration": 157}, {"note": 0, "velocity": 0, "duration": 83}, {"note": 67, "velocity": 112, "duration": 270}, {"note": 0, "velocity": 0, "duration": 90}, {"note": 66, "velocity": 117, "duration": 863}, {"note": 0, "velocity": 0, "duration": 217}, {"note": 66, "velocity": 120, "duration": 172}, {"note": 0, "velocity": 0, "duration": 68}, {"note": 67, "velocity": 112, "duration": 145}, {"note": 0, "velocity": 0, "duration": 95}, {"note": 69, "velocity": 112, "duration": 274}, {"note": 0, "velocity": 0, "duration": 86}, {"note": 67, "velocity": 109, "duration": 830}, {"note": 72, "velocity": 101, "duration": 422}, {"note": 0, "velocity": 0, "duration": 75}, {"note": 67, "velocity": 115, "duration": 158}, {"note": 0, "velocity": 0, "duration": 82}, {"note": 69, "velocity": 112, "duration": 204}, {"note": 0, "velocity": 0, "duration": 156}, {"note": 71, "velocity": 112, "duration": 973}, {"note": 0, "velocity": 0, "duration": 107}, {"note": 71, "velocity": 109, "duration": 154}, {"note": 0, "velocity": 0, "duration": 86}, {"note": 69, "velocity": 112, "duration": 461}, {"note": 67, "velocity": 99, "duration": 771}, {"note": 0, "velocity": 0, "duration": 189}, {"note": 67, "velocity": 112, "duration": 132}, {"note": 0, "velocity": 0, "duration": 108}, {"note": 67, "velocity": 112, "duration": 179}, {"note": 0, "velocity": 0, "duration": 61}, {"note": 69, "velocity": 112, "duration": 147}, {"note": 0, "velocity": 0, "duration": 93}, {"note": 71, "velocity": 109, "duration": 169}, {"note": 0, "velocity": 0, "duration": 71}, {"note": 74, "velocity": 109, "duration": 603}, {"note": 0, "velocity": 0, "duration": 357}, {"note": 71, "velocity": 109, "duration": 138}, {"note": 0, "velocity": 0, "duration": 102}, {"note": 71, "velocity": 112, "duration": 155}, {"note": 0, "velocity": 0, "duration": 85}, {"note": 72, "velocity": 109, "duration": 146}, {"note": 0, "velocity": 0, "duration": 94}, {"note": 71, "velocity": 112, "duration": 154}, {"note": 0, "velocity": 0, "duration": 86}, {"note": 72, "velocity": 109, "duration": 348}, {"note": 0, "velocity": 0, "duration": 372}, {"note": 71, "velocity": 109, "duration": 161}, {"note": 0, "velocity": 0, "duration": 79}, {"note": 69, "velocity": 112, "duration": 573}, {"note": 0, "velocity": 0, "duration": 147}, {"note": 67, "velocity": 109, "duration": 162}, {"note": 0, "velocity": 0, "duration": 78}, {"note": 69, "velocity": 112, "duration": 156}, {"note": 0, "velocity": 0, "duration": 84}, {"note": 71, "velocity": 112, "duration": 190}, {"note": 72, "velocity": 112, "duration": 180}, {"note": 76, "velocity": 109, "duration": 158}, {"note": 0, "velocity": 0, "duration": 82}, {"note": 74, "velocity": 118, "duration": 598}, {"note": 0, "velocity": 0, "duration": 122}, {"note": 71, "velocity": 115, "duration": 178}, {"note": 0, "velocity": 0, "duration": 62}, {"note": 72, "velocity": 112, "duration": 154}, {"note": 0, "velocity": 0, "duration": 86}, {"note": 74, "velocity": 115, "duration": 434}, {"note": 71, "velocity": 112, "duration": 179}, {"note": 0, "velocity": 0, "duration": 61}, {"note": 74, "velocity": 115, "duration": 628}, {"note": 0, "velocity": 0, "duration": 92}, {"note": 71, "velocity": 112, "duration": 149}, {"note": 0, "velocity": 0, "duration": 91}, {"note": 74, "velocity": 112, "duration": 179}, {"note": 0, "velocity": 0, "duration": 61}, {"note": 76, "velocity": 115, "duration": 182}, {"note": 78, "velocity": 120, "duration": 166}, {"note": 0, "velocity": 0, "duration": 74}, {"note": 76, "velocity": 106, "duration": 142}, {"note": 0, "velocity": 0, "duration": 98}, {"note": 74, "velocity": 115, "duration": 662}, {"note": 76, "velocity": 115, "duration": 162}, {"note": 0, "velocity": 0, "duration": 78}, {"note": 78, "velocity": 120, "duration": 145}, {"note": 0, "velocity": 0, "duration": 95}, {"note": 79, "velocity": 115, "duration": 379}, {"note": 0, "velocity": 0, "duration": 101}, {"note": 79, "velocity": 115, "duration": 141}, {"note": 0, "velocity": 0, "duration": 99}, {"note": 79, "velocity": 115, "duration": 393}, {"note": 0, "velocity": 0, "duration": 87}, {"note": 78, "velocity": 120, "duration": 174}, {"note": 0, "velocity": 0, "duration": 66}, {"note": 76, "velocity": 109, "duration": 169}, {"note": 0, "velocity": 0, "duration": 71}, {"note": 74, "velocity": 115, "duration": 1088}, {"note": 0, "velocity": 0, "duration": 112}, {"note": 74, "velocity": 115, "duration": 164}, {"note": 0, "velocity": 0, "duration": 76}, {"note": 76, "velocity": 109, "duration": 155}, {"note": 0, "velocity": 0, "duration": 85}, {"note": 78, "velocity": 120, "duration": 162}, {"note": 0, "velocity": 0, "duration": 78}, {"note": 79, "velocity": 115, "duration": 384}, {"note": 0, "velocity": 0, "duration": 336}, {"note": 72, "velocity": 112, "duration": 136}, {"note": 0, "velocity": 0, "duration": 104}, {"note": 72, "velocity": 112, "duration": 544}, {"note": 0, "velocity": 0, "duration": 176}, {"note": 76, "velocity": 115, "duration": 147}, {"note": 0, "velocity": 0, "duration": 93}, {"note": 78, "velocity": 117, "duration": 149}, {"note": 0, "velocity": 0, "duration": 91}, {"note": 79, "velocity": 115, "duration": 342}, {"note": 0, "velocity": 0, "duration": 138}, {"note": 71, "velocity": 112, "duration": 150}, {"note": 0, "velocity": 0, "duration": 90}, {"note": 71, "velocity": 109, "duration": 397}, {"note": 0, "velocity": 0, "duration": 83}, {"note": 71, "velocity": 115, "duration": 169}, {"note": 0, "velocity": 0, "duration": 71}, {"note": 74, "velocity": 115, "duration": 163}, {"note": 0, "velocity": 0, "duration": 77}, {"note": 76, "velocity": 109, "duration": 482}, {"note": 0, "velocity": 0, "duration": 238}, {"note": 71, "velocity": 115, "duration": 158}, {"note": 0, "velocity": 0, "duration": 82}, {"note": 71, "velocity": 112, "duration": 407}, {"note": 0, "velocity": 0, "duration": 73}, {"note": 71, "velocity": 109, "duration": 160}, {"note": 0, "velocity": 0, "duration": 80}, {"note": 72, "velocity": 109, "duration": 229}, {"note": 71, "velocity": 109, "duration": 477}, {"note": 69, "velocity": 115, "duration": 600}, {"note": 0, "velocity": 0, "duration": 120}, {"note": 71, "velocity": 115, "duration": 415}, {"note": 0, "velocity": 0, "duration": 65}, {"note": 72, "velocity": 118, "duration": 378}, {"note": 0, "velocity": 0, "duration": 102}, {"note": 74, "velocity": 115, "duration": 434}, {"note": 71, "velocity": 112, "duration": 179}, {"note": 0, "velocity": 0, "duration": 61}, {"note": 74, "velocity": 115, "duration": 628}, {"note": 0, "velocity": 0, "duration": 92}, {"note": 71, "velocity": 112, "duration": 149}, {"note": 0, "velocity": 0, "duration": 91}, {"note": 74, "velocity": 112, "duration": 179}, {"note": 0, "velocity": 0, "duration": 61}, {"note": 76, "velocity": 115, "duration": 182}, {"note": 78, "velocity": 120, "duration": 166}, {"note": 0, "velocity": 0, "duration": 74}, {"note": 76, "velocity": 106, "duration": 142}, {"note": 0, "velocity": 0, "duration": 98}, {"note": 74, "velocity": 115, "duration": 662}, {"note": 76, "velocity": 115, "duration": 162}, {"note": 0, "velocity": 0, "duration": 78}, {"note": 78, "velocity": 120, "duration": 145}, {"note": 0, "velocity": 0, "duration": 95}, {"note": 79, "velocity": 115, "duration": 379}, {"note": 0, "velocity": 0, "duration": 101}, {"note": 79, "velocity": 115, "duration": 141}, {"note": 0, "velocity": 0, "duration": 99}, {"note": 79, "velocity": 115, "duration": 393}, {"note": 0, "velocity": 0, "duration": 87}, {"note": 78, "velocity": 120, "duration": 174}, {"note": 0, "velocity": 0, "duration": 66}, {"note": 76, "velocity": 109, "duration": 169}, {"note": 0, "velocity": 0, "duration": 71}, {"note": 78, "velocity": 117, "duration": 396}, {"note": 0, "velocity": 0, "duration": 84}, {"note": 74, "velocity": 112, "duration": 135}, {"note": 0, "velocity": 0, "duration": 105}, {"note": 71, "velocity": 115, "duration": 574}, {"note": 0, "velocity": 0, "duration": 146}, {"note": 71, "velocity": 115, "duration": 168}, {"note": 0, "velocity": 0, "duration": 72}, {"note": 74, "velocity": 115, "duration": 158}, {"note": 0, "velocity": 0, "duration": 82}, {"note": 76, "velocity": 109, "duration": 427}, {"note": 78, "velocity": 120, "duration": 137}, {"note": 0, "velocity": 0, "duration": 103}, {"note": 79, "velocity": 112, "duration": 155}, {"note": 0, "velocity": 0, "duration": 85}, {"note": 72, "velocity": 115, "duration": 361}, {"note": 0, "velocity": 0, "duration": 359}, {"note": 76, "velocity": 112, "duration": 152}, {"note": 0, "velocity": 0, "duration": 88}, {"note": 78, "velocity": 117, "duration": 145}, {"note": 0, "velocity": 0, "duration": 95}, {"note": 79, "velocity": 112, "duration": 354}, {"note": 0, "velocity": 0, "duration": 126}, {"note": 71, "velocity": 112, "duration": 161}, {"note": 0, "velocity": 0, "duration": 79}, {"note": 71, "velocity": 106, "duration": 466}, {"note": 72, "velocity": 118, "duration": 373}, {"note": 0, "velocity": 0, "duration": 107}, {"note": 71, "velocity": 112, "duration": 175}, {"note": 0, "velocity": 0, "duration": 65}, {"note": 69, "velocity": 112, "duration": 1957}, {"note": 0, "velocity": 0, "duration": 683}, {"note": 62, "velocity": 118, "duration": 162}, {"note": 0, "velocity": 0, "duration": 78}, {"note": 72, "velocity": 112, "duration": 637}, {"note": 0, "velocity": 0, "duration": 83}, {"note": 71, "velocity": 112, "duration": 358}, {"note": 69, "velocity": 94, "duration": 115}, {"note": 67, "velocity": 96, "duration": 1100}, {"note": 0, "velocity": 0, "duration": 13780}, {"note": 67, "velocity": 109, "duration": 69}, {"note": 69, "velocity": 115, "duration": 69}, {"note": 71, "velocity": 109, "duration": 164}, {"note": 0, "velocity": 0, "duration": 76}, {"note": 71, "velocity": 109, "duration": 158}, {"note": 0, "velocity": 0, "duration": 82}, {"note": 71, "velocity": 112, "duration": 162}, {"note": 0, "velocity": 0, "duration": 78}, {"note": 69, "velocity": 109, "duration": 164}, {"note": 0, "velocity": 0, "duration": 76}, {"note": 69, "velocity": 109, "duration": 167}, {"note": 0, "velocity": 0, "duration": 73}, {"note": 67, "velocity": 109, "duration": 995}, {"note": 0, "velocity": 0, "duration": 445}, {"note": 69, "velocity": 109, "duration": 63}, {"note": 71, "velocity": 115, "duration": 62}, {"note": 72, "velocity": 109, "duration": 632}, {"note": 0, "velocity": 0, "duration": 88}, {"note": 71, "velocity": 109, "duration": 130}, {"note": 0, "velocity": 0, "duration": 110}, {"note": 69, "velocity": 109, "duration": 149}, {"note": 0, "velocity": 0, "duration": 91}, {"note": 71, "velocity": 106, "duration": 207}, {"note": 67, "velocity": 109, "duration": 1002}, {"note": 0, "velocity": 0, "duration": 198}, {"note": 69, "velocity": 109, "duration": 154}, {"note": 0, "velocity": 0, "duration": 86}, {"note": 69, "velocity": 109, "duration": 870}, {"note": 0, "velocity": 0, "duration": 810}, {"note": 67, "velocity": 112, "duration": 61}, {"note": 69, "velocity": 112, "duration": 59}, {"note": 0, "velocity": 0, "duration": 61}, {"note": 71, "velocity": 109, "duration": 161}, {"note": 0, "velocity": 0, "duration": 79}, {"note": 71, "velocity": 109, "duration": 168}, {"note": 0, "velocity": 0, "duration": 72}, {"note": 71, "velocity": 112, "duration": 163}, {"note": 0, "velocity": 0, "duration": 77}, {"note": 69, "velocity": 112, "duration": 158}, {"note": 0, "velocity": 0, "duration": 82}, {"note": 69, "velocity": 112, "duration": 287}, {"note": 0, "velocity": 0, "duration": 73}, {"note": 67, "velocity": 112, "duration": 1144}, {"note": 0, "velocity": 0, "duration": 176}, {"note": 71, "velocity": 109, "duration": 75}, {"note": 72, "velocity": 109, "duration": 58}, {"note": 0, "velocity": 0, "duration": 62}, {"note": 74, "velocity": 112, "duration": 634}, {"note": 0, "velocity": 0, "duration": 86}, {"note": 72, "velocity": 106, "duration": 75}, {"note": 71, "velocity": 106, "duration": 62}, {"note": 69, "velocity": 115, "duration": 187}, {"note": 71, "velocity": 109, "duration": 195}, {"note": 67, "velocity": 109, "duration": 524}, {"note": 0, "velocity": 0, "duration": 676}, {"note": 71, "velocity": 112, "duration": 179}, {"note": 0, "velocity": 0, "duration": 61}, {"note": 69, "velocity": 112, "duration": 1344}, {"note": 0, "velocity": 0, "duration": 96}, {"note": 67, "velocity": 112, "duration": 181}, {"note": 66, "velocity": 120, "duration": 158}, {"note": 0, "velocity": 0, "duration": 82}, {"note": 64, "velocity": 112, "duration": 602}, {"note": 0, "velocity": 0, "duration": 358}, {"note": 64, "velocity": 112, "duration": 158}, {"note": 0, "velocity": 0, "duration": 82}, {"note": 66, "velocity": 117, "duration": 157}, {"note": 0, "velocity": 0, "duration": 83}, {"note": 67, "velocity": 112, "duration": 270}, {"note": 0, "velocity": 0, "duration": 90}, {"note": 66, "velocity": 117, "duration": 863}, {"note": 0, "velocity": 0, "duration": 217}, {"note": 66, "velocity": 120, "duration": 172}, {"note": 0, "velocity": 0, "duration": 68}, {"note": 67, "velocity": 112, "duration": 145}, {"note": 0, "velocity": 0, "duration": 95}, {"note": 69, "velocity": 112, "duration": 274}, {"note": 0, "velocity": 0, "duration": 86}, {"note": 67, "velocity": 109, "duration": 830}, {"note": 72, "velocity": 101, "duration": 422}, {"note": 0, "velocity": 0, "duration": 75}, {"note": 67, "velocity": 115, "duration": 158}, {"note": 0, "velocity": 0, "duration": 82}, {"note": 69, "velocity": 112, "duration": 204}, {"note": 0, "velocity": 0, "duration": 156}, {"note": 71, "velocity": 112, "duration": 973}, {"note": 0, "velocity": 0, "duration": 107}, {"note": 71, "velocity": 109, "duration": 154}, {"note": 0, "velocity": 0, "duration": 86}, {"note": 69, "velocity": 112, "duration": 461}, {"note": 67, "velocity": 99, "duration": 771}, {"note": 0, "velocity": 0, "duration": 189}, {"note": 67, "velocity": 112, "duration": 132}, {"note": 0, "velocity": 0, "duration": 108}, {"note": 67, "velocity": 112, "duration": 179}, {"note": 0, "velocity": 0, "duration": 61}, {"note": 69, "velocity": 112, "duration": 147}, {"note": 0, "velocity": 0, "duration": 93}, {"note": 71, "velocity": 109, "duration": 169}, {"note": 0, "velocity": 0, "duration": 71}, {"note": 74, "velocity": 109, "duration": 603}, {"note": 0, "velocity": 0, "duration": 357}, {"note": 71, "velocity": 109, "duration": 138}, {"note": 0, "velocity": 0, "duration": 102}, {"note": 71, "velocity": 112, "duration": 155}, {"note": 0, "velocity": 0, "duration": 85}, {"note": 72, "velocity": 109, "duration": 146}, {"note": 0, "velocity": 0, "duration": 94}, {"note": 71, "velocity": 112, "duration": 154}, {"note": 0, "velocity": 0, "duration": 86}, {"note": 72, "velocity": 109, "duration": 348}, {"note": 0, "velocity": 0, "duration": 372}, {"note": 71, "velocity": 109, "duration": 161}, {"note": 0, "velocity": 0, "duration": 79}, {"note": 69, "velocity": 112, "duration": 573}, {"note": 0, "velocity": 0, "duration": 147}, {"note": 67, "velocity": 109, "duration": 162}, {"note": 0, "velocity": 0, "duration": 78}, {"note": 69, "velocity": 112, "duration": 156}, {"note": 0, "velocity": 0, "duration": 84}, {"note": 71, "velocity": 112, "duration": 190}, {"note": 72, "velocity": 112, "duration": 180}, {"note": 76, "velocity": 109, "duration": 158}, {"note": 0, "velocity": 0, "duration": 82}, {"note": 74, "velocity": 118, "duration": 598}, {"note": 0, "velocity": 0, "duration": 122}, {"note": 71, "velocity": 115, "duration": 178}, {"note": 0, "velocity": 0, "duration": 62}, {"note": 72, "velocity": 112, "duration": 154}, {"note": 0, "velocity": 0, "duration": 86}, {"note": 74, "velocity": 115, "duration": 434}, {"note": 71, "velocity": 112, "duration": 179}, {"note": 0, "velocity": 0, "duration": 61}, {"note": 74, "velocity": 115, "duration": 628}, {"note": 0, "velocity": 0, "duration": 92}, {"note": 71, "velocity": 112, "duration": 149}, {"note": 0, "velocity": 0, "duration": 91}, {"note": 74, "velocity": 112, "duration": 179}, {"note": 0, "velocity": 0, "duration": 61}, {"note": 76, "velocity": 115, "duration": 182}, {"note": 78, "velocity": 120, "duration": 166}, {"note": 0, "velocity": 0, "duration": 74}, {"note": 76, "velocity": 106, "duration": 142}, {"note": 0, "velocity": 0, "duration": 98}, {"note": 74, "velocity": 115, "duration": 662}, {"note": 76, "velocity": 115, "duration": 162}, {"note": 0, "velocity": 0, "duration": 78}, {"note": 78, "velocity": 120, "duration": 145}, {"note": 0, "velocity": 0, "duration": 95}, {"note": 79, "velocity": 115, "duration": 379}, {"note": 0, "velocity": 0, "duration": 101}, {"note": 79, "velocity": 115, "duration": 141}, {"note": 0, "velocity": 0, "duration": 99}, {"note": 79, "velocity": 115, "duration": 393}, {"note": 0, "velocity": 0, "duration": 87}, {"note": 78, "velocity": 120, "duration": 174}, {"note": 0, "velocity": 0, "duration": 66}, {"note": 76, "velocity": 109, "duration": 169}, {"note": 0, "velocity": 0, "duration": 71}, {"note": 74, "velocity": 115, "duration": 1088}, {"note": 0, "velocity": 0, "duration": 112}, {"note": 74, "velocity": 115, "duration": 164}, {"note": 0, "velocity": 0, "duration": 76}, {"note": 76, "velocity": 109, "duration": 155}, {"note": 0, "velocity": 0, "duration": 85}, {"note": 78, "velocity": 120, "duration": 162}, {"note": 0, "velocity": 0, "duration": 78}, {"note": 79, "velocity": 115, "duration": 384}, {"note": 0, "velocity": 0, "duration": 336}, {"note": 72, "velocity": 112, "duration": 136}, {"note": 0, "velocity": 0, "duration": 104}, {"note": 72, "velocity": 112, "duration": 544}, {"note": 0, "velocity": 0, "duration": 176}, {"note": 76, "velocity": 115, "duration": 147}, {"note": 0, "velocity": 0, "duration": 93}, {"note": 78, "velocity": 117, "duration": 149}, {"note": 0, "velocity": 0, "duration": 91}, {"note": 79, "velocity": 115, "duration": 342}, {"note": 0, "velocity": 0, "duration": 138}, {"note": 71, "velocity": 112, "duration": 150}, {"note": 0, "velocity": 0, "duration": 90}, {"note": 71, "velocity": 109, "duration": 397}, {"note": 0, "velocity": 0, "duration": 83}, {"note": 71, "velocity": 115, "duration": 169}, {"note": 0, "velocity": 0, "duration": 71}, {"note": 74, "velocity": 115, "duration": 163}, {"note": 0, "velocity": 0, "duration": 77}, {"note": 76, "velocity": 109, "duration": 482}, {"note": 0, "velocity": 0, "duration": 238}, {"note": 71, "velocity": 115, "duration": 158}, {"note": 0, "velocity": 0, "duration": 82}, {"note": 71, "velocity": 112, "duration": 407}, {"note": 0, "velocity": 0, "duration": 73}, {"note": 71, "velocity": 109, "duration": 160}, {"note": 0, "velocity": 0, "duration": 80}, {"note": 72, "velocity": 109, "duration": 229}, {"note": 71, "velocity": 109, "duration": 477}, {"note": 69, "velocity": 115, "duration": 600}, {"note": 0, "velocity": 0, "duration": 120}, {"note": 71, "velocity": 115, "duration": 415}, {"note": 0, "velocity": 0, "duration": 65}, {"note": 72, "velocity": 118, "duration": 378}, {"note": 0, "velocity": 0, "duration": 102}, {"note": 74, "velocity": 115, "duration": 434}, {"note": 71, "velocity": 112, "duration": 179}, {"note": 0, "velocity": 0, "duration": 61}, {"note": 74, "velocity": 115, "duration": 628}, {"note": 0, "velocity": 0, "duration": 92}, {"note": 71, "velocity": 112, "duration": 149}, {"note": 0, "velocity": 0, "duration": 91}, {"note": 74, "velocity": 112, "duration": 179}, {"note": 0, "velocity": 0, "duration": 61}, {"note": 76, "velocity": 115, "duration": 182}, {"note": 78, "velocity": 120, "duration": 166}, {"note": 0, "velocity": 0, "duration": 74}, {"note": 76, "velocity": 106, "duration": 142}, {"note": 0, "velocity": 0, "duration": 98}, {"note": 74, "velocity": 115, "duration": 662}, {"note": 76, "velocity": 115, "duration": 162}, {"note": 0, "velocity": 0, "duration": 78}, {"note": 78, "velocity": 120, "duration": 145}, {"note": 0, "velocity": 0, "duration": 95}, {"note": 79, "velocity": 115, "duration": 379}, {"note": 0, "velocity": 0, "duration": 101}, {"note": 79, "velocity": 115, "duration": 141}, {"note": 0, "velocity": 0, "duration": 99}, {"note": 79, "velocity": 115, "duration": 393}, {"note": 0, "velocity": 0, "duration": 87}, {"note": 78, "velocity": 120, "duration": 174}, {"note": 0, "velocity": 0, "duration": 66}, {"note": 76, "velocity": 109, "duration": 169}, {"note": 0, "velocity": 0, "duration": 71}, {"note": 78, "velocity": 117, "duration": 396}, {"note": 0, "velocity": 0, "duration": 84}, {"note": 74, "velocity": 112, "duration": 135}, {"note": 0, "velocity": 0, "duration": 105}, {"note": 71, "velocity": 115, "duration": 574}, {"note": 0, "velocity": 0, "duration": 146}, {"note": 71, "velocity": 115, "duration": 168}, {"note": 0, "velocity": 0, "duration": 72}, {"note": 74, "velocity": 115, "duration": 158}, {"note": 0, "velocity": 0, "duration": 82}, {"note": 76, "velocity": 109, "duration": 427}, {"note": 78, "velocity": 120, "duration": 137}, {"note": 0, "velocity": 0, "duration": 103}, {"note": 79, "velocity": 112, "duration": 155}, {"note": 0, "velocity": 0, "duration": 85}, {"note": 72, "velocity": 115, "duration": 361}, {"note": 0, "velocity": 0, "duration": 359}, {"note": 76, "velocity": 112, "duration": 152}, {"note": 0, "velocity": 0, "duration": 88}, {"note": 78, "velocity": 117, "duration": 145}, {"note": 0, "velocity": 0, "duration": 95}, {"note": 79, "velocity": 112, "duration": 354}, {"note": 0, "velocity": 0, "duration": 126}, {"note": 71, "velocity": 112, "duration": 161}, {"note": 0, "velocity": 0, "duration": 79}, {"note": 71, "velocity": 106, "duration": 466}, {"note": 72, "velocity": 118, "duration": 373}, {"note": 0, "velocity": 0, "duration": 107}, {"note": 71, "velocity": 112, "duration": 175}, {"note": 0, "velocity": 0, "duration": 65}, {"note": 69, "velocity": 112, "duration": 1957}, {"note": 0, "velocity": 0, "duration": 683}, {"note": 62, "velocity": 118, "duration": 162}, {"note": 0, "velocity": 0, "duration": 78}, {"note": 72, "velocity": 112, "duration": 637}, {"note": 0, "velocity": 0, "duration": 83}, {"note": 71, "velocity": 112, "duration": 358}, {"note": 69, "velocity": 94, "duration": 115}, {"note": 67, "velocity": 96, "duration": 1100}]]