[[{"note": 71, "velocity": 97, "duration": 68}, {"note": 71, "velocity": 105, "duration": 56}, {"note": 0, "velocity": 0, "duration": 64}, {"note": 71, "velocity": 108, "duration": 165}, {"note": 0, "velocity": 0, "duration": 75}, {"note": 75, "velocity": 105, "duration": 168}, {"note": 0, "velocity": 0, "duration": 72}, {"note": 73, "velocity": 108, "duration": 183}, {"note": 73, "velocity": 89, "duration": 57}, {"note": 0, "velocity": 0, "duration": 63}, {"note": 73, "velocity": 102, "duration": 192}, {"note": 71, "velocity": 108, "duration": 171}, {"note": 0, "velocity": 0, "duration": 189}, {"note": 73, "velocity": 108, "duration": 195}, {"note": 73, "velocity": 105, "duration": 143}, {"note": 0, "velocity": 0, "duration": 97}, {"note": 73, "velocity": 105, "duration": 109}, {"note": 71, "velocity": 87, "duration": 103}, {"note": 68, "velocity": 97, "duration": 1217}, {"note": 0, "velocity": 0, "duration": 223}, {"note": 70, "velocity": 97, "duration": 68}, {"note": 70, "velocity": 111, "duration": 59}, {"note": 0, "velocity": 0, "duration": 61}, {"note": 70, "velocity": 111, "duration": 181}, {"note": 71, "velocity": 105, "duration": 66}, {"note": 73, "velocity": 108, "duration": 327}, {"note": 70, "velocity": 111, "duration": 174}, {"note": 0, "velocity": 0, "duration": 66}, {"note": 68, "velocity": 108, "duration": 63}, {"note": 66, "velocity": 92, "duration": 343}, {"note": 63, "velocity": 105, "duration": 1456}, {"note": 0, "velocity": 0, "duration": 704}, {"note": 75, "velocity": 102, "duration": 68}, {"note": 73, "velocity": 89, "duration": 56}, {"note": 0, "velocity": 0, "duration": 64}, {"note": 75, "velocity": 102, "duration": 160}, {"note": 0, "velocity": 0, "duration": 80}, {"note": 75, "velocity": 100, "duration": 65}, {"note": 73, "velocity": 111, "duration": 316}, {"note": 73, "velocity": 102, "duration": 199}, {"note": 71, "velocity": 102, "duration": 371}, {"note": 0, "velocity": 0, "duration": 109}, {"note": 73, "velocity": 111, "duration": 186}, {"note": 68, "velocity": 111, "duration": 157}, {"note": 0, "velocity": 0, "duration": 83}, {"note": 68, "velocity": 105, "duration": 71}, {"note": 73, "velocity": 105, "duration": 321}, {"note": 71, "velocity": 73, "duration": 966}, {"note": 0, "velocity": 0, "duration": 234}, {"note": 70, "velocity": 89, "duration": 47}, {"note": 0, "velocity": 0, "duration": 73}, {"note": 70, "velocity": 94, "duration": 56}, {"note": 0, "velocity": 0, "duration": 64}, {"note": 70, "velocity": 108, "duration": 174}, {"note": 0, "velocity": 0, "duration": 66}, {"note": 71, "velocity": 100, "duration": 59}, {"note": 0, "velocity": 0, "duration": 61}, {"note": 73, "velocity": 108, "duration": 313}, {"note": 73, "velocity": 105, "duration": 184}, {"note": 70, "velocity": 108, "duration": 71}, {"note": 66, "velocity": 100, "duration": 348}, {"note": 63, "velocity": 97, "duration": 1349}, {"note": 0, "velocity": 0, "duration": 571}, {"note": 78, "velocity": 117, "duration": 275}, {"note": 0, "velocity": 0, "duration": 85}, {"note": 73, "velocity": 114, "duration": 306}, {"note": 75, "velocity": 111, "duration": 181}, {"note": 78, "velocity": 114, "duration": 329}, {"note": 73, "velocity": 105, "duration": 301}, {"note": 71, "velocity": 92, "duration": 236}, {"note": 68, "velocity": 114, "duration": 1714}, {"note": 0, "velocity": 0, "duration": 206}, {"note": 73, "velocity": 108, "duration": 276}, {"note": 0, "velocity": 0, "duration": 84}, {"note": 68, "velocity": 111, "duration": 273}, {"note": 0, "velocity": 0, "duration": 87}, {"note": 75, "velocity": 114, "duration": 183}, {"note": 73, "velocity": 108, "duration": 327}, {"note": 71, "velocity": 100, "duration": 290}, {"note": 0, "velocity": 0, "duration": 70}, {"note": 71, "velocity": 100, "duration": 212}, {"note": 66, "velocity": 111, "duration": 1700}, {"note": 0, "velocity": 0, "duration": 220}, {"note": 78, "velocity": 117, "duration": 275}, {"note": 0, "velocity": 0, "duration": 85}, {"note": 73, "velocity": 114, "duration": 306}, {"note": 75, "velocity": 111, "duration": 181}, {"note": 78, "velocity": 114, "duration": 329}, {"note": 73, "velocity": 105, "duration": 301}, {"note": 71, "velocity": 92, "duration": 236}, {"note": 68, "velocity": 114, "duration": 1714}, {"note": 0, "velocity": 0, "duration": 206}, {"note": 73, "velocity": 108, "duration": 276}, {"note": 0, "velocity": 0, "duration": 84}, {"note": 68, "velocity": 111, "duration": 273}, {"note": 0, "velocity": 0, "duration": 87}, {"note": 75, "velocity": 114, "duration": 183}, {"note": 73, "velocity": 108, "duration": 327}, {"note": 71, "velocity": 100, "duration": 290}, {"note": 0, "velocity": 0, "duration": 70}, {"note": 73, "velocity": 100, "duration": 212}, {"note": 73, "velocity": 111, "duration": 1700}, {"note": 0, "velocity": 0, "duration": 460}, {"note": 71, "velocity": 102, "duration": 59}, {"note": 0, "velocity": 0, "duration": 61}, {"note": 71, "velocity": 105, "duration": 51}, {"note": 0, "velocity": 0, "duration": 69}, {"note": 71, "velocity": 111, "duration": 166}, {"note": 0, "velocity": 0, "duration": 74}, {"note": 66, "velocity": 108, "duration": 65}, {"note": 71, "velocity": 111, "duration": 312}, {"note": 78, "velocity": 117, "duration": 178}, {"note": 0, "velocity": 0, "duration": 62}, {"note": 76, "velocity": 102, "duration": 183}, {"note": 75, "velocity": 108, "duration": 156}, {"note": 0, "velocity": 0, "duration": 84}, {"note": 73, "velocity": 108, "duration": 307}, {"note": 71, "velocity": 108, "duration": 1076}, {"note": 0, "velocity": 0, "duration": 124}, {"note": 71, "velocity": 114, "duration": 116}, {"note": 75, "velocity": 92, "duration": 77}, {"note": 78, "velocity": 105, "duration": 76}, {"note": 80, "velocity": 100, "duration": 178}, {"note": 0, "velocity": 0, "duration": 62}, {"note": 78, "velocity": 102, "duration": 60}, {"note": 80, "velocity": 111, "duration": 198}, {"note": 78, "velocity": 108, "duration": 174}, {"note": 0, "velocity": 0, "duration": 186}, {"note": 80, "velocity": 114, "duration": 236}, {"note": 78, "velocity": 105, "duration": 178}, {"note": 0, "velocity": 0, "duration": 62}, {"note": 75, "velocity": 100, "duration": 60}, {"note": 78, "velocity": 111, "duration": 267}, {"note": 0, "velocity": 0, "duration": 93}, {"note": 75, "velocity": 105, "duration": 1676}, {"note": 0, "velocity": 0, "duration": 484}, {"note": 71, "velocity": 102, "duration": 54}, {"note": 0, "velocity": 0, "duration": 66}, {"note": 71, "velocity": 102, "duration": 48}, {"note": 0, "velocity": 0, "duration": 72}, {"note": 71, "velocity": 111, "duration": 180}, {"note": 66, "velocity": 108, "duration": 60}, {"note": 71, "velocity": 114, "duration": 319}, {"note": 78, "velocity": 111, "duration": 131}, {"note": 0, "velocity": 0, "duration": 109}, {"note": 76, "velocity": 105, "duration": 168}, {"note": 0, "velocity": 0, "duration": 72}, {"note": 75, "velocity": 111, "duration": 185}, {"note": 73, "velocity": 92, "duration": 329}, {"note": 71, "velocity": 108, "duration": 1040}, {"note": 0, "velocity": 0, "duration": 160}, {"note": 71, "velocity": 108, "duration": 73}, {"note": 75, "velocity": 114, "duration": 62}, {"note": 78, "velocity": 111, "duration": 60}, {"note": 80, "velocity": 114, "duration": 180}, {"note": 78, "velocity": 114, "duration": 57}, {"note": 0, "velocity": 0, "duration": 63}, {"note": 80, "velocity": 111, "duration": 186}, {"note": 78, "velocity": 111, "duration": 148}, {"note": 0, "velocity": 0, "duration": 212}, {"note": 80, "velocity": 108, "duration": 154}, {"note": 0, "velocity": 0, "duration": 86}, {"note": 78, "velocity": 108, "duration": 181}, {"note": 75, "velocity": 111, "duration": 90}, {"note": 78, "velocity": 114, "duration": 238}, {"note": 0, "velocity": 0, "duration": 122}, {"note": 78, "velocity": 111, "duration": 1833}, {"note": 0, "velocity": 0, "duration": 17127}, {"note": 71, "velocity": 97, "duration": 68}, {"note": 71, "velocity": 105, "duration": 56}, {"note": 0, "velocity": 0, "duration": 64}, {"note": 71, "velocity": 108, "duration": 165}, {"note": 0, "velocity": 0, "duration": 75}, {"note": 75, "velocity": 105, "duration": 168}, {"note": 0, "velocity": 0, "duration": 72}, {"note": 73, "velocity": 108, "duration": 183}, {"note": 73, "velocity": 89, "duration": 57}, {"note": 0, "velocity": 0, "duration": 63}, {"note": 73, "velocity": 102, "duration": 192}, {"note": 71, "velocity": 108, "duration": 171}, {"note": 0, "velocity": 0, "duration": 189}, {"note": 73, "velocity": 108, "duration": 195}, {"note": 73, "velocity": 105, "duration": 143}, {"note": 0, "velocity": 0, "duration": 97}, {"note": 73, "velocity": 105, "duration": 109}, {"note": 71, "velocity": 87, "duration": 103}, {"note": 68, "velocity": 97, "duration": 1217}, {"note": 0, "velocity": 0, "duration": 223}, {"note": 70, "velocity": 97, "duration": 68}, {"note": 70, "velocity": 111, "duration": 59}, {"note": 0, "velocity": 0, "duration": 61}, {"note": 70, "velocity": 111, "duration": 181}, {"note": 71, "velocity": 105, "duration": 66}, {"note": 73, "velocity": 108, "duration": 327}, {"note": 70, "velocity": 111, "duration": 174}, {"note": 0, "velocity": 0, "duration": 66}, {"note": 68, "velocity": 108, "duration": 63}, {"note": 66, "velocity": 92, "duration": 343}, {"note": 63, "velocity": 105, "duration": 1456}, {"note": 0, "velocity": 0, "duration": 704}, {"note": 75, "velocity": 102, "duration": 68}, {"note": 73, "velocity": 89, "duration": 56}, {"note": 0, "velocity": 0, "duration": 64}, {"note": 75, "velocity": 102, "duration": 160}, {"note": 0, "velocity": 0, "duration": 80}, {"note": 75, "velocity": 100, "duration": 65}, {"note": 73, "velocity": 111, "duration": 316}, {"note": 73, "velocity": 102, "duration": 199}, {"note": 71, "velocity": 102, "duration": 371}, {"note": 0, "velocity": 0, "duration": 109}, {"note": 73, "velocity": 111, "duration": 186}, {"note": 68, "velocity": 111, "duration": 157}, {"note": 0, "velocity": 0, "duration": 83}, {"note": 68, "velocity": 105, "duration": 71}, {"note": 73, "velocity": 105, "duration": 321}, {"note": 71, "velocity": 73, "duration": 966}, {"note": 0, "velocity": 0, "duration": 234}, {"note": 70, "velocity": 89, "duration": 47}, {"note": 0, "velocity": 0, "duration": 73}, {"note": 70, "velocity": 94, "duration": 56}, {"note": 0, "velocity": 0, "duration": 64}, {"note": 70, "velocity": 108, "duration": 174}, {"note": 0, "velocity": 0, "duration": 66}, {"note": 71, "velocity": 100, "duration": 59}, {"note": 0, "velocity": 0, "duration": 61}, {"note": 73, "velocity": 108, "duration": 313}, {"note": 73, "velocity": 105, "duration": 184}, {"note": 70, "velocity": 108, "duration": 71}, {"note": 66, "velocity": 100, "duration": 348}, {"note": 63, "velocity": 97, "duration": 1349}, {"note": 0, "velocity": 0, "duration": 571}, {"note": 78, "velocity": 117, "duration": 275}, {"note": 0, "velocity": 0, "duration": 85}, {"note": 73, "velocity": 114, "duration": 306}, {"note": 75, "velocity": 111, "duration": 181}, {"note": 78, "velocity": 114, "duration": 329}, {"note": 73, "velocity": 105, "duration": 301}, {"note": 71, "velocity": 92, "duration": 236}, {"note": 68, "velocity": 114, "duration": 1714}, {"note": 0, "velocity": 0, "duration": 206}, {"note": 73, "velocity": 108, "duration": 276}, {"note": 0, "velocity": 0, "duration": 84}, {"note": 68, "velocity": 111, "duration": 273}, {"note": 0, "velocity": 0, "duration": 87}, {"note": 75, "velocity": 114, "duration": 183}, {"note": 73, "velocity": 108, "duration": 327}, {"note": 71, "velocity": 100, "duration": 290}, {"note": 0, "velocity": 0, "duration": 70}, {"note": 71, "velocity": 100, "duration": 212}, {"note": 66, "velocity": 111, "duration": 1700}, {"note": 0, "velocity": 0, "duration": 220}, {"note": 78, "velocity": 117, "duration": 275}, {"note": 0, "velocity": 0, "duration": 85}, {"note": 73, "velocity": 114, "duration": 306}, {"note": 75, "velocity": 111, "duration": 181}, {"note": 78, "velocity": 114, "duration": 329}, {"note": 73, "velocity": 105, "duration": 301}, {"note": 71, "velocity": 92, "duration": 236}, {"note": 68, "velocity": 114, "duration": 1714}, {"note": 0, "velocity": 0, "duration": 206}, {"note": 73, "velocity": 108, "duration": 276}, {"note": 0, "velocity": 0, "duration": 84}, {"note": 68, "velocity": 111, "duration": 273}, {"note": 0, "velocity": 0, "duration": 87}, {"note": 75, "velocity": 114, "duration": 183}, {"note": 73, "velocity": 108, "duration": 327}, {"note": 71, "velocity": 100, "duration": 290}, {"note": 0, "velocity": 0, "duration": 70}, {"note": 73, "velocity": 100, "duration": 212}, {"note": 73, "velocity": 111, "duration": 1700}, {"note": 0, "velocity": 0, "duration": 460}, {"note": 71, "velocity": 102, "duration": 59}, {"note": 0, "velocity": 0, "duration": 61}, {"note": 71, "velocity": 105, "duration": 51}, {"note": 0, "velocity": 0, "duration": 69}, {"note": 71, "velocity": 111, "duration": 166}, {"note": 0, "velocity": 0, "duration": 74}, {"note": 66, "velocity": 108, "duration": 65}, {"note": 71, "velocity": 111, "duration": 312}, {"note": 78, "velocity": 117, "duration": 178}, {"note": 0, "velocity": 0, "duration": 62}, {"note": 76, "velocity": 102, "duration": 183}, {"note": 75, "velocity": 108, "duration": 156}, {"note": 0, "velocity": 0, "duration": 84}, {"note": 73, "velocity": 108, "duration": 307}, {"note": 71, "velocity": 108, "duration": 1076}, {"note": 0, "velocity": 0, "duration": 124}, {"note": 71, "velocity": 114, "duration": 116}, {"note": 75, "velocity": 92, "duration": 77}, {"note": 78, "velocity": 105, "duration": 76}, {"note": 80, "velocity": 100, "duration": 178}, {"note": 0, "velocity": 0, "duration": 62}, {"note": 78, "velocity": 102, "duration": 60}, {"note": 80, "velocity": 111, "duration": 198}, {"note": 78, "velocity": 108, "duration": 174}, {"note": 0, "velocity": 0, "duration": 186}, {"note": 80, "velocity": 114, "duration": 236}, {"note": 78, "velocity": 105, "duration": 178}, {"note": 0, "velocity": 0, "duration": 62}, {"note": 75, "velocity": 100, "duration": 60}, {"note": 78, "velocity": 111, "duration": 267}, {"note": 0, "velocity": 0, "duration": 93}, {"note": 75, "velocity": 105, "duration": 1676}, {"note": 0, "velocity": 0, "duration": 484}, {"note": 71, "velocity": 102, "duration": 54}, {"note": 0, "velocity": 0, "duration": 66}, {"note": 71, "velocity": 102, "duration": 48}, {"note": 0, "velocity": 0, "duration": 72}, {"note": 71, "velocity": 111, "duration": 180}, {"note": 66, "velocity": 108, "duration": 60}, {"note": 71, "velocity": 114, "duration": 319}, {"note": 78, "velocity": 111, "duration": 131}, {"note": 0, "velocity": 0, "duration": 109}, {"note": 76, "velocity": 105, "duration": 168}, {"note": 0, "velocity": 0, "duration": 72}, {"note": 75, "velocity": 111, "duration": 185}, {"note": 73, "velocity": 92, "duration": 329}, {"note": 71, "velocity": 108, "duration": 1040}, {"note": 0, "velocity": 0, "duration": 160}, {"note": 71, "velocity": 108, "duration": 73}, {"note": 75, "velocity": 114, "duration": 62}, {"note": 78, "velocity": 111, "duration": 60}, {"note": 80, "velocity": 114, "duration": 180}, {"note": 78, "velocity": 114, "duration": 57}, {"note": 0, "velocity": 0, "duration": 63}, {"note": 80, "velocity": 111, "duration": 186}, {"note": 78, "velocity": 111, "duration": 148}, {"note": 0, "velocity": 0, "duration": 212}, {"note": 80, "velocity": 108, "duration": 154}, {"note": 0, "velocity": 0, "duration": 86}, {"note": 78, "velocity": 108, "duration": 181}, {"note": 75, "velocity": 111, "duration": 90}, {"note": 78, "velocity": 114, "duration": 238}, {"note": 0, "velocity": 0, "duration": 122}, {"note": 78, "velocity": 111, "duration": 1833}, {"note": 0, "velocity": 0, "duration": 327}, {"note": 71, "velocity": 102, "duration": 59}, {"note": 0, "velocity": 0, "duration": 61}, {"note": 71, "velocity": 105, "duration": 51}, {"note": 0, "velocity": 0, "duration": 69}, {"note": 71, "velocity": 111, "duration": 166}, {"note": 0, "velocity": 0, "duration": 74}, {"note": 66, "velocity": 108, "duration": 65}, {"note": 71, "velocity": 111, "duration": 312}, {"note": 78, "velocity": 117, "duration": 178}, {"note": 0, "velocity": 0, "duration": 62}, {"note": 76, "velocity": 102, "duration": 183}, {"note": 75, "velocity": 108, "duration": 156}, {"note": 0, "velocity": 0, "duration": 84}, {"note": 73, "velocity": 108, "duration": 307}, {"note": 71, "velocity": 108, "duration": 1076}, {"note": 0, "velocity": 0, "duration": 124}, {"note": 71, "velocity": 114, "duration": 116}, {"note": 75, "velocity": 92, "duration": 77}, {"note": 78, "velocity": 105, "duration": 76}, {"note": 80, "velocity": 100, "duration": 178}, {"note": 0, "velocity": 0, "duration": 62}, {"note": 78, "velocity": 102, "duration": 60}, {"note": 80, "velocity": 111, "duration": 198}, {"note": 78, "velocity": 108, "duration": 174}, {"note": 0, "velocity": 0, "duration": 186}, {"note": 80, "velocity": 114, "duration": 236}, {"note": 78, "velocity": 105, "duration": 178}, {"note": 0, "velocity": 0, "duration": 62}, {"note": 75, "velocity": 100, "duration": 60}, {"note": 78, "velocity": 111, "duration": 267}, {"note": 0, "velocity": 0, "duration": 93}, {"note": 75, "velocity": 105, "duration": 1676}, {"note": 0, "velocity": 0, "duration": 484}, {"note": 71, "velocity": 102, "duration": 54}, {"note": 0, "velocity": 0, "duration": 66}, {"note": 71, "velocity": 102, "duration": 48}, {"note": 0, "velocity": 0, "duration": 72}, {"note": 71, "velocity": 111, "duration": 180}, {"note": 66, "velocity": 108, "duration": 60}, {"note": 71, "velocity": 114, "duration": 319}, {"note": 78, "velocity": 111, "duration": 131}, {"note": 0, "velocity": 0, "duration": 109}, {"note": 76, "velocity": 105, "duration": 168}, {"note": 0, "velocity": 0, "duration": 72}, {"note": 75, "velocity": 111, "duration": 185}, {"note": 73, "velocity": 92, "duration": 329}, {"note": 71, "velocity": 108, "duration": 1040}, {"note": 0, "velocity": 0, "duration": 160}, {"note": 71, "velocity": 108, "duration": 73}, {"note": 75, "velocity": 114, "duration": 62}, {"note": 78, "velocity": 111, "duration": 60}, {"note": 80, "velocity": 114, "duration": 180}, {"note": 78, "velocity": 114, "duration": 57}, {"note": 0, "velocity": 0, "duration": 63}, {"note": 80, "velocity": 111, "duration": 186}, {"note": 78, "velocity": 111, "duration": 148}, {"note": 0, "velocity": 0, "duration": 212}, {"note": 80, "velocity": 108, "duration": 154}, {"note": 0, "velocity": 0, "duration": 86}, {"note": 78, "velocity": 108, "duration": 181}, {"note": 75, "velocity": 111, "duration": 90}, {"note": 78, "velocity": 114, "duration": 238}, {"note": 0, "velocity": 0, "duration": 122}, {"note": 78, "velocity": 111, "duration": 1833}, {"note": 0, "velocity": 0, "duration": 327}, {"note": 71, "velocity": 97, "duration": 68}, {"note": 71, "velocity": 105, "duration": 56}, {"note": 0, "velocity": 0, "duration": 64}, {"note": 71, "velocity": 108, "duration": 165}, {"note": 0, "velocity": 0, "duration": 75}, {"note": 75, "velocity": 105, "duration": 168}, {"note": 0, "velocity": 0, "duration": 72}, {"note": 73, "velocity": 108, "duration": 183}, {"note": 73, "velocity": 89, "duration": 57}, {"note": 0, "velocity": 0, "duration": 63}, {"note": 73, "velocity": 102, "duration": 192}, {"note": 71, "velocity": 108, "duration": 171}, {"note": 0, "velocity": 0, "duration": 189}, {"note": 73, "velocity": 108, "duration": 195}, {"note": 73, "velocity": 105, "duration": 143}, {"note": 0, "velocity": 0, "duration": 97}, {"note": 73, "velocity": 105, "duration": 109}, {"note": 71, "velocity": 87, "duration": 103}, {"note": 68, "velocity": 97, "duration": 1217}]]