[[{"note": 55, "velocity": 92, "duration": 178}, {"note": 0, "velocity": 0, "duration": 62}, {"note": 62, "velocity": 108, "duration": 161}, {"note": 0, "velocity": 0, "duration": 79}, {"note": 62, "velocity": 92, "duration": 158}, {"note": 0, "velocity": 0, "duration": 82}, {"note": 60, "velocity": 94, "duration": 178}, {"note": 0, "velocity": 0, "duration": 62}, {"note": 62, "velocity": 97, "duration": 728}, {"note": 0, "velocity": 0, "duration": 232}, {"note": 60, "velocity": 97, "duration": 174}, {"note": 0, "velocity": 0, "duration": 66}, {"note": 62, "velocity": 108, "duration": 151}, {"note": 0, "velocity": 0, "duration": 89}, {"note": 60, "velocity": 100, "duration": 161}, {"note": 0, "velocity": 0, "duration": 79}, {"note": 58, "velocity": 105, "duration": 325}, {"note": 0, "velocity": 0, "duration": 155}, {"note": 55, "velocity": 94, "duration": 509}, {"note": 0, "velocity": 0, "duration": 211}, {"note": 67, "velocity": 108, "duration": 257}, {"note": 0, "velocity": 0, "duration": 103}, {"note": 67, "velocity": 92, "duration": 57}, {"note": 0, "velocity": 0, "duration": 63}, {"note": 67, "velocity": 100, "duration": 172}, {"note": 0, "velocity": 0, "duration": 68}, {"note": 65, "velocity": 100, "duration": 146}, {"note": 0, "velocity": 0, "duration": 94}, {"note": 67, "velocity": 111, "duration": 291}, {"note": 0, "velocity": 0, "duration": 69}, {"note": 65, "velocity": 92, "duration": 61}, {"note": 65, "velocity": 102, "duration": 201}, {"note": 60, "velocity": 105, "duration": 167}, {"note": 0, "velocity": 0, "duration": 73}, {"note": 62, "velocity": 105, "duration": 1157}, {"note": 0, "velocity": 0, "duration": 763}, {"note": 55, "velocity": 108, "duration": 178}, {"note": 0, "velocity": 0, "duration": 62}, {"note": 55, "velocity": 89, "duration": 134}, {"note": 0, "velocity": 0, "duration": 106}, {"note": 55, "velocity": 102, "duration": 168}, {"note": 0, "velocity": 0, "duration": 72}, {"note": 62, "velocity": 108, "duration": 398}, {"note": 0, "velocity": 0, "duration": 82}, {"note": 60, "velocity": 105, "duration": 452}, {"note": 0, "velocity": 0, "duration": 268}, {"note": 62, "velocity": 105, "duration": 163}, {"note": 0, "velocity": 0, "duration": 77}, {"note": 65, "velocity": 105, "duration": 149}, {"note": 0, "velocity": 0, "duration": 91}, {"note": 60, "velocity": 105, "duration": 153}, {"note": 0, "velocity": 0, "duration": 87}, {"note": 62, "velocity": 100, "duration": 352}, {"note": 0, "velocity": 0, "duration": 128}, {"note": 55, "velocity": 94, "duration": 410}, {"note": 0, "velocity": 0, "duration": 310}, {"note": 55, "velocity": 94, "duration": 149}, {"note": 0, "velocity": 0, "duration": 91}, {"note": 55, "velocity": 94, "duration": 147}, {"note": 0, "velocity": 0, "duration": 93}, {"note": 55, "velocity": 102, "duration": 147}, {"note": 0, "velocity": 0, "duration": 93}, {"note": 62, "velocity": 100, "duration": 156}, {"note": 0, "velocity": 0, "duration": 84}, {"note": 60, "velocity": 100, "duration": 303}, {"note": 62, "velocity": 94, "duration": 249}, {"note": 0, "velocity": 0, "duration": 111}, {"note": 57, "velocity": 100, "duration": 385}, {"note": 0, "velocity": 0, "duration": 95}, {"note": 55, "velocity": 92, "duration": 1287}, {"note": 0, "velocity": 0, "duration": 393}, {"note": 55, "velocity": 92, "duration": 178}, {"note": 0, "velocity": 0, "duration": 62}, {"note": 62, "velocity": 108, "duration": 161}, {"note": 0, "velocity": 0, "duration": 79}, {"note": 62, "velocity": 92, "duration": 158}, {"note": 0, "velocity": 0, "duration": 82}, {"note": 60, "velocity": 94, "duration": 178}, {"note": 0, "velocity": 0, "duration": 62}, {"note": 62, "velocity": 97, "duration": 728}, {"note": 0, "velocity": 0, "duration": 232}, {"note": 60, "velocity": 97, "duration": 174}, {"note": 0, "velocity": 0, "duration": 66}, {"note": 62, "velocity": 108, "duration": 151}, {"note": 0, "velocity": 0, "duration": 89}, {"note": 60, "velocity": 100, "duration": 161}, {"note": 0, "velocity": 0, "duration": 79}, {"note": 58, "velocity": 105, "duration": 325}, {"note": 0, "velocity": 0, "duration": 155}, {"note": 55, "velocity": 94, "duration": 509}, {"note": 0, "velocity": 0, "duration": 211}, {"note": 67, "velocity": 108, "duration": 257}, {"note": 0, "velocity": 0, "duration": 103}, {"note": 67, "velocity": 92, "duration": 57}, {"note": 0, "velocity": 0, "duration": 63}, {"note": 67, "velocity": 100, "duration": 172}, {"note": 0, "velocity": 0, "duration": 68}, {"note": 65, "velocity": 100, "duration": 146}, {"note": 0, "velocity": 0, "duration": 94}, {"note": 67, "velocity": 111, "duration": 291}, {"note": 0, "velocity": 0, "duration": 69}, {"note": 65, "velocity": 92, "duration": 61}, {"note": 65, "velocity": 102, "duration": 201}, {"note": 60, "velocity": 105, "duration": 167}, {"note": 0, "velocity": 0, "duration": 73}, {"note": 62, "velocity": 105, "duration": 1157}, {"note": 0, "velocity": 0, "duration": 763}, {"note": 55, "velocity": 108, "duration": 178}, {"note": 0, "velocity": 0, "duration": 62}, {"note": 55, "velocity": 89, "duration": 134}, {"note": 0, "velocity": 0, "duration": 106}, {"note": 55, "velocity": 102, "duration": 168}, {"note": 0, "velocity": 0, "duration": 72}, {"note": 62, "velocity": 108, "duration": 398}, {"note": 0, "velocity": 0, "duration": 82}, {"note": 60, "velocity": 105, "duration": 452}, {"note": 0, "velocity": 0, "duration": 268}, {"note": 62, "velocity": 105, "duration": 163}, {"note": 0, "velocity": 0, "duration": 77}, {"note": 65, "velocity": 105, "duration": 149}, {"note": 0, "velocity": 0, "duration": 91}, {"note": 60, "velocity": 105, "duration": 153}, {"note": 0, "velocity": 0, "duration": 87}, {"note": 62, "velocity": 100, "duration": 352}, {"note": 0, "velocity": 0, "duration": 128}, {"note": 55, "velocity": 94, "duration": 410}, {"note": 0, "velocity": 0, "duration": 310}, {"note": 55, "velocity": 94, "duration": 149}, {"note": 0, "velocity": 0, "duration": 91}, {"note": 55, "velocity": 94, "duration": 147}, {"note": 0, "velocity": 0, "duration": 93}, {"note": 55, "velocity": 102, "duration": 147}, {"note": 0, "velocity": 0, "duration": 93}, {"note": 62, "velocity": 100, "duration": 156}, {"note": 0, "velocity": 0, "duration": 84}, {"note": 60, "velocity": 100, "duration": 303}, {"note": 62, "velocity": 94, "duration": 249}, {"note": 0, "velocity": 0, "duration": 111}, {"note": 57, "velocity": 100, "duration": 385}, {"note": 0, "velocity": 0, "duration": 95}, {"note": 55, "velocity": 92, "duration": 1078}, {"note": 0, "velocity": 0, "duration": 122}, {"note": 70, "velocity": 109, "duration": 185}, {"note": 69, "velocity": 108, "duration": 156}, {"note": 0, "velocity": 0, "duration": 84}, {"note": 67, "velocity": 114, "duration": 611}, {"note": 0, "velocity": 0, "duration": 109}, {"note": 65, "velocity": 105, "duration": 161}, {"note": 0, "velocity": 0, "duration": 79}, {"note": 67, "velocity": 108, "duration": 180}, {"note": 65, "velocity": 114, "duration": 167}, {"note": 0, "velocity": 0, "duration": 73}, {"note": 62, "velocity": 114, "duration": 161}, {"note": 0, "velocity": 0, "duration": 79}, {"note": 60, "velocity": 108, "duration": 391}, {"note": 0, "velocity": 0, "duration": 89}, {"note": 62, "velocity": 105, "duration": 1048}, {"note": 0, "velocity": 0, "duration": 152}, {"note": 62, "velocity": 108, "duration": 161}, {"note": 0, "velocity": 0, "duration": 79}, {"note": 65, "velocity": 108, "duration": 155}, {"note": 0, "velocity": 0, "duration": 85}, {"note": 67, "velocity": 102, "duration": 567}, {"note": 0, "velocity": 0, "duration": 153}, {"note": 70, "velocity": 105, "duration": 191}, {"note": 69, "velocity": 108, "duration": 155}, {"note": 0, "velocity": 0, "duration": 85}, {"note": 70, "velocity": 93, "duration": 165}, {"note": 0, "velocity": 0, "duration": 75}, {"note": 69, "velocity": 108, "duration": 136}, {"note": 0, "velocity": 0, "duration": 104}, {"note": 65, "velocity": 108, "duration": 377}, {"note": 0, "velocity": 0, "duration": 103}, {"note": 67, "velocity": 102, "duration": 1061}, {"note": 0, "velocity": 0, "duration": 379}, {"note": 62, "velocity": 108, "duration": 147}, {"note": 0, "velocity": 0, "duration": 93}, {"note": 60, "velocity": 102, "duration": 360}, {"note": 0, "velocity": 0, "duration": 120}, {"note": 60, "velocity": 102, "duration": 163}, {"note": 0, "velocity": 0, "duration": 77}, {"note": 62, "velocity": 94, "duration": 172}, {"note": 0, "velocity": 0, "duration": 68}, {"note": 60, "velocity": 102, "duration": 567}, {"note": 0, "velocity": 0, "duration": 153}, {"note": 67, "velocity": 108, "duration": 153}, {"note": 0, "velocity": 0, "duration": 87}, {"note": 69, "velocity": 100, "duration": 389}, {"note": 0, "velocity": 0, "duration": 91}, {"note": 65, "velocity": 105, "duration": 117}, {"note": 0, "velocity": 0, "duration": 123}, {"note": 62, "velocity": 105, "duration": 174}, {"note": 0, "velocity": 0, "duration": 66}, {"note": 65, "velocity": 111, "duration": 594}, {"note": 0, "velocity": 0, "duration": 126}, {"note": 65, "velocity": 105, "duration": 153}, {"note": 0, "velocity": 0, "duration": 87}, {"note": 67, "velocity": 105, "duration": 157}, {"note": 0, "velocity": 0, "duration": 83}, {"note": 70, "velocity": 109, "duration": 146}, {"note": 0, "velocity": 0, "duration": 94}, {"note": 70, "velocity": 105, "duration": 124}, {"note": 0, "velocity": 0, "duration": 116}, {"note": 67, "velocity": 100, "duration": 153}, {"note": 0, "velocity": 0, "duration": 87}, {"note": 72, "velocity": 114, "duration": 165}, {"note": 0, "velocity": 0, "duration": 75}, {"note": 70, "velocity": 102, "duration": 119}, {"note": 0, "velocity": 0, "duration": 121}, {"note": 70, "velocity": 105, "duration": 385}, {"note": 0, "velocity": 0, "duration": 95}, {"note": 67, "velocity": 105, "duration": 327}, {"note": 69, "velocity": 100, "duration": 914}, {"note": 0, "velocity": 0, "duration": 166}, {"note": 70, "velocity": 109, "duration": 185}, {"note": 69, "velocity": 108, "duration": 156}, {"note": 0, "velocity": 0, "duration": 84}, {"note": 67, "velocity": 114, "duration": 611}, {"note": 0, "velocity": 0, "duration": 109}, {"note": 65, "velocity": 105, "duration": 161}, {"note": 0, "velocity": 0, "duration": 79}, {"note": 67, "velocity": 108, "duration": 180}, {"note": 65, "velocity": 114, "duration": 167}, {"note": 0, "velocity": 0, "duration": 73}, {"note": 62, "velocity": 114, "duration": 161}, {"note": 0, "velocity": 0, "duration": 79}, {"note": 60, "velocity": 108, "duration": 391}, {"note": 0, "velocity": 0, "duration": 89}, {"note": 62, "velocity": 105, "duration": 1048}, {"note": 0, "velocity": 0, "duration": 152}, {"note": 62, "velocity": 108, "duration": 161}, {"note": 0, "velocity": 0, "duration": 79}, {"note": 65, "velocity": 108, "duration": 155}, {"note": 0, "velocity": 0, "duration": 85}, {"note": 67, "velocity": 102, "duration": 567}, {"note": 0, "velocity": 0, "duration": 153}, {"note": 70, "velocity": 105, "duration": 191}, {"note": 69, "velocity": 108, "duration": 155}, {"note": 0, "velocity": 0, "duration": 85}, {"note": 70, "velocity": 93, "duration": 165}, {"note": 0, "velocity": 0, "duration": 75}, {"note": 69, "velocity": 108, "duration": 136}, {"note": 0, "velocity": 0, "duration": 104}, {"note": 65, "velocity": 108, "duration": 377}, {"note": 0, "velocity": 0, "duration": 103}, {"note": 67, "velocity": 102, "duration": 1061}, {"note": 0, "velocity": 0, "duration": 379}, {"note": 62, "velocity": 108, "duration": 147}, {"note": 0, "velocity": 0, "duration": 93}, {"note": 60, "velocity": 102, "duration": 360}, {"note": 0, "velocity": 0, "duration": 120}, {"note": 60, "velocity": 102, "duration": 163}, {"note": 0, "velocity": 0, "duration": 77}, {"note": 62, "velocity": 94, "duration": 172}, {"note": 0, "velocity": 0, "duration": 68}, {"note": 60, "velocity": 102, "duration": 567}, {"note": 0, "velocity": 0, "duration": 153}, {"note": 67, "velocity": 108, "duration": 153}, {"note": 0, "velocity": 0, "duration": 87}, {"note": 69, "velocity": 100, "duration": 389}, {"note": 0, "velocity": 0, "duration": 91}, {"note": 65, "velocity": 105, "duration": 117}, {"note": 0, "velocity": 0, "duration": 123}, {"note": 62, "velocity": 105, "duration": 174}, {"note": 0, "velocity": 0, "duration": 66}, {"note": 65, "velocity": 111, "duration": 594}, {"note": 0, "velocity": 0, "duration": 126}, {"note": 65, "velocity": 105, "duration": 153}, {"note": 0, "velocity": 0, "duration": 87}, {"note": 67, "velocity": 105, "duration": 157}, {"note": 0, "velocity": 0, "duration": 83}, {"note": 70, "velocity": 109, "duration": 146}, {"note": 0, "velocity": 0, "duration": 94}, {"note": 70, "velocity": 105, "duration": 124}, {"note": 0, "velocity": 0, "duration": 116}, {"note": 74, "velocity": 100, "duration": 153}, {"note": 0, "velocity": 0, "duration": 87}, {"note": 72, "velocity": 114, "duration": 358}, {"note": 0, "velocity": 0, "duration": 362}, {"note": 69, "velocity": 108, "duration": 418}, {"note": 0, "velocity": 0, "duration": 62}, {"note": 67, "velocity": 105, "duration": 1479}, {"note": 65, "velocity": 102, "duration": 165}, {"note": 0, "velocity": 0, "duration": 75}, {"note": 67, "velocity": 105, "duration": 163}, {"note": 0, "velocity": 0, "duration": 77}, {"note": 70, "velocity": 102, "duration": 178}, {"note": 0, "velocity": 0, "duration": 62}, {"note": 70, "velocity": 102, "duration": 190}, {"note": 74, "velocity": 108, "duration": 144}, {"note": 0, "velocity": 0, "duration": 96}, {"note": 72, "velocity": 114, "duration": 621}, {"note": 0, "velocity": 0, "duration": 99}, {"note": 69, "velocity": 102, "duration": 383}, {"note": 0, "velocity": 0, "duration": 97}, {"note": 67, "velocity": 105, "duration": 1603}, {"note": 0, "velocity": 0, "duration": 7757}, {"note": 55, "velocity": 92, "duration": 178}, {"note": 0, "velocity": 0, "duration": 62}, {"note": 62, "velocity": 108, "duration": 161}, {"note": 0, "velocity": 0, "duration": 79}, {"note": 62, "velocity": 92, "duration": 158}, {"note": 0, "velocity": 0, "duration": 82}, {"note": 60, "velocity": 94, "duration": 178}, {"note": 0, "velocity": 0, "duration": 62}, {"note": 62, "velocity": 97, "duration": 728}, {"note": 0, "velocity": 0, "duration": 232}, {"note": 60, "velocity": 97, "duration": 174}, {"note": 0, "velocity": 0, "duration": 66}, {"note": 62, "velocity": 108, "duration": 151}, {"note": 0, "velocity": 0, "duration": 89}, {"note": 60, "velocity": 100, "duration": 161}, {"note": 0, "velocity": 0, "duration": 79}, {"note": 58, "velocity": 105, "duration": 325}, {"note": 0, "velocity": 0, "duration": 155}, {"note": 55, "velocity": 94, "duration": 509}, {"note": 0, "velocity": 0, "duration": 211}, {"note": 67, "velocity": 108, "duration": 257}, {"note": 0, "velocity": 0, "duration": 103}, {"note": 67, "velocity": 92, "duration": 57}, {"note": 0, "velocity": 0, "duration": 63}, {"note": 67, "velocity": 100, "duration": 172}, {"note": 0, "velocity": 0, "duration": 68}, {"note": 65, "velocity": 100, "duration": 146}, {"note": 0, "velocity": 0, "duration": 94}, {"note": 67, "velocity": 111, "duration": 291}, {"note": 0, "velocity": 0, "duration": 69}, {"note": 65, "velocity": 92, "duration": 61}, {"note": 65, "velocity": 102, "duration": 201}, {"note": 60, "velocity": 105, "duration": 167}, {"note": 0, "velocity": 0, "duration": 73}, {"note": 62, "velocity": 105, "duration": 1157}, {"note": 0, "velocity": 0, "duration": 763}, {"note": 55, "velocity": 108, "duration": 178}, {"note": 0, "velocity": 0, "duration": 62}, {"note": 55, "velocity": 89, "duration": 134}, {"note": 0, "velocity": 0, "duration": 106}, {"note": 55, "velocity": 102, "duration": 168}, {"note": 0, "velocity": 0, "duration": 72}, {"note": 62, "velocity": 108, "duration": 398}, {"note": 0, "velocity": 0, "duration": 82}, {"note": 60, "velocity": 105, "duration": 452}, {"note": 0, "velocity": 0, "duration": 268}, {"note": 62, "velocity": 105, "duration": 163}, {"note": 0, "velocity": 0, "duration": 77}, {"note": 65, "velocity": 105, "duration": 149}, {"note": 0, "velocity": 0, "duration": 91}, {"note": 60, "velocity": 105, "duration": 153}, {"note": 0, "velocity": 0, "duration": 87}, {"note": 62, "velocity": 100, "duration": 352}, {"note": 0, "velocity": 0, "duration": 128}, {"note": 55, "velocity": 94, "duration": 410}, {"note": 0, "velocity": 0, "duration": 310}, {"note": 55, "velocity": 94, "duration": 149}, {"note": 0, "velocity": 0, "duration": 91}, {"note": 55, "velocity": 94, "duration": 147}, {"note": 0, "velocity": 0, "duration": 93}, {"note": 55, "velocity": 102, "duration": 147}, {"note": 0, "velocity": 0, "duration": 93}, {"note": 62, "velocity": 100, "duration": 156}, {"note": 0, "velocity": 0, "duration": 84}, {"note": 60, "velocity": 100, "duration": 303}, {"note": 62, "velocity": 94, "duration": 249}, {"note": 0, "velocity": 0, "duration": 111}, {"note": 57, "velocity": 100, "duration": 385}, {"note": 0, "velocity": 0, "duration": 95}, {"note": 55, "velocity": 92, "duration": 1078}, {"note": 0, "velocity": 0, "duration": 122}, {"note": 70, "velocity": 109, "duration": 185}, {"note": 69, "velocity": 108, "duration": 156}, {"note": 0, "velocity": 0, "duration": 84}, {"note": 67, "velocity": 114, "duration": 611}, {"note": 0, "velocity": 0, "duration": 109}, {"note": 65, "velocity": 105, "duration": 161}, {"note": 0, "velocity": 0, "duration": 79}, {"note": 67, "velocity": 108, "duration": 180}, {"note": 65, "velocity": 114, "duration": 167}, {"note": 0, "velocity": 0, "duration": 73}, {"note": 62, "velocity": 114, "duration": 161}, {"note": 0, "velocity": 0, "duration": 79}, {"note": 60, "velocity": 108, "duration": 391}, {"note": 0, "velocity": 0, "duration": 89}, {"note": 62, "velocity": 105, "duration": 1048}, {"note": 0, "velocity": 0, "duration": 152}, {"note": 62, "velocity": 108, "duration": 161}, {"note": 0, "velocity": 0, "duration": 79}, {"note": 65, "velocity": 108, "duration": 155}, {"note": 0, "velocity": 0, "duration": 85}, {"note": 67, "velocity": 102, "duration": 567}, {"note": 0, "velocity": 0, "duration": 153}, {"note": 70, "velocity": 105, "duration": 191}, {"note": 69, "velocity": 108, "duration": 155}, {"note": 0, "velocity": 0, "duration": 85}, {"note": 70, "velocity": 93, "duration": 165}, {"note": 0, "velocity": 0, "duration": 75}, {"note": 69, "velocity": 108, "duration": 136}, {"note": 0, "velocity": 0, "duration": 104}, {"note": 65, "velocity": 108, "duration": 377}, {"note": 0, "velocity": 0, "duration": 103}, {"note": 67, "velocity": 102, "duration": 1061}, {"note": 0, "velocity": 0, "duration": 379}, {"note": 62, "velocity": 108, "duration": 147}, {"note": 0, "velocity": 0, "duration": 93}, {"note": 60, "velocity": 102, "duration": 360}, {"note": 0, "velocity": 0, "duration": 120}, {"note": 60, "velocity": 102, "duration": 163}, {"note": 0, "velocity": 0, "duration": 77}, {"note": 62, "velocity": 94, "duration": 172}, {"note": 0, "velocity": 0, "duration": 68}, {"note": 60, "velocity": 102, "duration": 567}, {"note": 0, "velocity": 0, "duration": 153}, {"note": 67, "velocity": 108, "duration": 153}, {"note": 0, "velocity": 0, "duration": 87}, {"note": 69, "velocity": 100, "duration": 389}, {"note": 0, "velocity": 0, "duration": 91}, {"note": 65, "velocity": 105, "duration": 117}, {"note": 0, "velocity": 0, "duration": 123}, {"note": 62, "velocity": 105, "duration": 174}, {"note": 0, "velocity": 0, "duration": 66}, {"note": 65, "velocity": 111, "duration": 594}, {"note": 0, "velocity": 0, "duration": 126}, {"note": 65, "velocity": 105, "duration": 153}, {"note": 0, "velocity": 0, "duration": 87}, {"note": 67, "velocity": 105, "duration": 157}, {"note": 0, "velocity": 0, "duration": 83}, {"note": 70, "velocity": 109, "duration": 146}, {"note": 0, "velocity": 0, "duration": 94}, {"note": 70, "velocity": 105, "duration": 124}, {"note": 0, "velocity": 0, "duration": 116}, {"note": 67, "velocity": 100, "duration": 153}, {"note": 0, "velocity": 0, "duration": 87}, {"note": 72, "velocity": 114, "duration": 165}, {"note": 0, "velocity": 0, "duration": 75}, {"note": 70, "velocity": 102, "duration": 119}, {"note": 0, "velocity": 0, "duration": 121}, {"note": 70, "velocity": 105, "duration": 385}, {"note": 0, "velocity": 0, "duration": 95}, {"note": 67, "velocity": 105, "duration": 327}, {"note": 69, "velocity": 100, "duration": 914}, {"note": 0, "velocity": 0, "duration": 166}, {"note": 70, "velocity": 109, "duration": 185}, {"note": 69, "velocity": 108, "duration": 156}, {"note": 0, "velocity": 0, "duration": 84}, {"note": 67, "velocity": 114, "duration": 611}, {"note": 0, "velocity": 0, "duration": 109}, {"note": 65, "velocity": 105, "duration": 161}, {"note": 0, "velocity": 0, "duration": 79}, {"note": 67, "velocity": 108, "duration": 180}, {"note": 65, "velocity": 114, "duration": 167}, {"note": 0, "velocity": 0, "duration": 73}, {"note": 62, "velocity": 114, "duration": 161}, {"note": 0, "velocity": 0, "duration": 79}, {"note": 60, "velocity": 108, "duration": 391}, {"note": 0, "velocity": 0, "duration": 89}, {"note": 62, "velocity": 105, "duration": 1048}, {"note": 0, "velocity": 0, "duration": 152}, {"note": 62, "velocity": 108, "duration": 161}, {"note": 0, "velocity": 0, "duration": 79}, {"note": 65, "velocity": 108, "duration": 155}, {"note": 0, "velocity": 0, "duration": 85}, {"note": 67, "velocity": 102, "duration": 567}, {"note": 0, "velocity": 0, "duration": 153}, {"note": 70, "velocity": 105, "duration": 191}, {"note": 69, "velocity": 108, "duration": 155}, {"note": 0, "velocity": 0, "duration": 85}, {"note": 70, "velocity": 93, "duration": 165}, {"note": 0, "velocity": 0, "duration": 75}, {"note": 69, "velocity": 108, "duration": 136}, {"note": 0, "velocity": 0, "duration": 104}, {"note": 65, "velocity": 108, "duration": 377}, {"note": 0, "velocity": 0, "duration": 103}, {"note": 67, "velocity": 102, "duration": 1061}, {"note": 0, "velocity": 0, "duration": 379}, {"note": 62, "velocity": 108, "duration": 147}, {"note": 0, "velocity": 0, "duration": 93}, {"note": 60, "velocity": 102, "duration": 360}, {"note": 0, "velocity": 0, "duration": 120}, {"note": 60, "velocity": 102, "duration": 163}, {"note": 0, "velocity": 0, "duration": 77}, {"note": 62, "velocity": 94, "duration": 172}, {"note": 0, "velocity": 0, "duration": 68}, {"note": 60, "velocity": 102, "duration": 567}, {"note": 0, "velocity": 0, "duration": 153}, {"note": 67, "velocity": 108, "duration": 153}, {"note": 0, "velocity": 0, "duration": 87}, {"note": 69, "velocity": 100, "duration": 389}, {"note": 0, "velocity": 0, "duration": 91}, {"note": 65, "velocity": 105, "duration": 117}, {"note": 0, "velocity": 0, "duration": 123}, {"note": 62, "velocity": 105, "duration": 174}, {"note": 0, "velocity": 0, "duration": 66}, {"note": 65, "velocity": 111, "duration": 594}, {"note": 0, "velocity": 0, "duration": 126}, {"note": 65, "velocity": 105, "duration": 153}, {"note": 0, "velocity": 0, "duration": 87}, {"note": 67, "velocity": 105, "duration": 157}, {"note": 0, "velocity": 0, "duration": 83}, {"note": 70, "velocity": 109, "duration": 146}, {"note": 0, "velocity": 0, "duration": 94}, {"note": 70, "velocity": 105, "duration": 124}, {"note": 0, "velocity": 0, "duration": 116}, {"note": 74, "velocity": 100, "duration": 153}, {"note": 0, "velocity": 0, "duration": 87}, {"note": 72, "velocity": 114, "duration": 358}, {"note": 0, "velocity": 0, "duration": 362}, {"note": 69, "velocity": 108, "duration": 418}, {"note": 0, "velocity": 0, "duration": 62}, {"note": 67, "velocity": 105, "duration": 1198}, {"note": 72, "velocity": 109, "duration": 185}, {"note": 71, "velocity": 108, "duration": 156}, {"note": 0, "velocity": 0, "duration": 84}, {"note": 69, "velocity": 114, "duration": 611}, {"note": 0, "velocity": 0, "duration": 109}, {"note": 67, "velocity": 105, "duration": 161}, {"note": 0, "velocity": 0, "duration": 79}, {"note": 69, "velocity": 108, "duration": 180}, {"note": 67, "velocity": 114, "duration": 167}, {"note": 0, "velocity": 0, "duration": 73}, {"note": 64, "velocity": 114, "duration": 161}, {"note": 0, "velocity": 0, "duration": 79}, {"note": 62, "velocity": 108, "duration": 391}, {"note": 0, "velocity": 0, "duration": 89}, {"note": 64, "velocity": 105, "duration": 1048}, {"note": 0, "velocity": 0, "duration": 152}, {"note": 64, "velocity": 108, "duration": 161}, {"note": 0, "velocity": 0, "duration": 79}, {"note": 67, "velocity": 108, "duration": 155}, {"note": 0, "velocity": 0, "duration": 85}, {"note": 69, "velocity": 102, "duration": 567}, {"note": 0, "velocity": 0, "duration": 153}, {"note": 72, "velocity": 105, "duration": 191}, {"note": 71, "velocity": 108, "duration": 155}, {"note": 0, "velocity": 0, "duration": 85}, {"note": 72, "velocity": 93, "duration": 165}, {"note": 0, "velocity": 0, "duration": 75}, {"note": 71, "velocity": 108, "duration": 136}, {"note": 0, "velocity": 0, "duration": 104}, {"note": 67, "velocity": 108, "duration": 377}, {"note": 0, "velocity": 0, "duration": 103}, {"note": 69, "velocity": 102, "duration": 1061}, {"note": 0, "velocity": 0, "duration": 379}, {"note": 64, "velocity": 108, "duration": 147}, {"note": 0, "velocity": 0, "duration": 93}, {"note": 62, "velocity": 102, "duration": 360}, {"note": 0, "velocity": 0, "duration": 120}, {"note": 62, "velocity": 102, "duration": 163}, {"note": 0, "velocity": 0, "duration": 77}, {"note": 64, "velocity": 94, "duration": 172}, {"note": 0, "velocity": 0, "duration": 68}, {"note": 62, "velocity": 102, "duration": 567}, {"note": 0, "velocity": 0, "duration": 153}, {"note": 69, "velocity": 108, "duration": 153}, {"note": 0, "velocity": 0, "duration": 87}, {"note": 71, "velocity": 100, "duration": 389}, {"note": 0, "velocity": 0, "duration": 91}, {"note": 67, "velocity": 105, "duration": 117}, {"note": 0, "velocity": 0, "duration": 123}, {"note": 64, "velocity": 105, "duration": 174}, {"note": 0, "velocity": 0, "duration": 66}, {"note": 67, "velocity": 111, "duration": 594}, {"note": 0, "velocity": 0, "duration": 126}, {"note": 67, "velocity": 105, "duration": 153}, {"note": 0, "velocity": 0, "duration": 87}, {"note": 69, "velocity": 105, "duration": 157}, {"note": 0, "velocity": 0, "duration": 83}, {"note": 72, "velocity": 109, "duration": 146}, {"note": 0, "velocity": 0, "duration": 94}, {"note": 72, "velocity": 105, "duration": 124}, {"note": 0, "velocity": 0, "duration": 116}, {"note": 69, "velocity": 100, "duration": 153}, {"note": 0, "velocity": 0, "duration": 87}, {"note": 74, "velocity": 114, "duration": 165}, {"note": 0, "velocity": 0, "duration": 75}, {"note": 72, "velocity": 102, "duration": 119}, {"note": 0, "velocity": 0, "duration": 121}, {"note": 72, "velocity": 105, "duration": 385}, {"note": 0, "velocity": 0, "duration": 95}, {"note": 69, "velocity": 105, "duration": 327}, {"note": 71, "velocity": 100, "duration": 914}, {"note": 0, "velocity": 0, "duration": 166}, {"note": 72, "velocity": 109, "duration": 185}, {"note": 71, "velocity": 108, "duration": 156}, {"note": 0, "velocity": 0, "duration": 84}, {"note": 69, "velocity": 114, "duration": 611}, {"note": 0, "velocity": 0, "duration": 109}, {"note": 67, "velocity": 105, "duration": 161}, {"note": 0, "velocity": 0, "duration": 79}, {"note": 69, "velocity": 108, "duration": 180}, {"note": 67, "velocity": 114, "duration": 167}, {"note": 0, "velocity": 0, "duration": 73}, {"note": 64, "velocity": 114, "duration": 161}, {"note": 0, "velocity": 0, "duration": 79}, {"note": 62, "velocity": 108, "duration": 391}, {"note": 0, "velocity": 0, "duration": 89}, {"note": 64, "velocity": 105, "duration": 1048}, {"note": 0, "velocity": 0, "duration": 152}, {"note": 64, "velocity": 108, "duration": 161}, {"note": 0, "velocity": 0, "duration": 79}, {"note": 67, "velocity": 108, "duration": 155}, {"note": 0, "velocity": 0, "duration": 85}, {"note": 69, "velocity": 102, "duration": 567}, {"note": 0, "velocity": 0, "duration": 153}, {"note": 72, "velocity": 105, "duration": 191}, {"note": 71, "velocity": 108, "duration": 155}, {"note": 0, "velocity": 0, "duration": 85}, {"note": 72, "velocity": 93, "duration": 165}, {"note": 0, "velocity": 0, "duration": 75}, {"note": 71, "velocity": 108, "duration": 136}, {"note": 0, "velocity": 0, "duration": 104}, {"note": 67, "velocity": 108, "duration": 377}, {"note": 0, "velocity": 0, "duration": 103}, {"note": 69, "velocity": 102, "duration": 1061}, {"note": 0, "velocity": 0, "duration": 379}, {"note": 64, "velocity": 108, "duration": 147}, {"note": 0, "velocity": 0, "duration": 93}, {"note": 62, "velocity": 102, "duration": 360}, {"note": 0, "velocity": 0, "duration": 120}, {"note": 62, "velocity": 102, "duration": 163}, {"note": 0, "velocity": 0, "duration": 77}, {"note": 64, "velocity": 94, "duration": 172}, {"note": 0, "velocity": 0, "duration": 68}, {"note": 62, "velocity": 102, "duration": 567}, {"note": 0, "velocity": 0, "duration": 153}, {"note": 69, "velocity": 108, "duration": 153}, {"note": 0, "velocity": 0, "duration": 87}, {"note": 71, "velocity": 100, "duration": 389}, {"note": 0, "velocity": 0, "duration": 91}, {"note": 67, "velocity": 105, "duration": 117}, {"note": 0, "velocity": 0, "duration": 123}, {"note": 64, "velocity": 105, "duration": 174}, {"note": 0, "velocity": 0, "duration": 66}, {"note": 67, "velocity": 111, "duration": 594}, {"note": 0, "velocity": 0, "duration": 126}, {"note": 67, "velocity": 105, "duration": 153}, {"note": 0, "velocity": 0, "duration": 87}, {"note": 69, "velocity": 105, "duration": 157}, {"note": 0, "velocity": 0, "duration": 83}, {"note": 72, "velocity": 109, "duration": 146}, {"note": 0, "velocity": 0, "duration": 94}, {"note": 72, "velocity": 105, "duration": 124}, {"note": 0, "velocity": 0, "duration": 116}, {"note": 76, "velocity": 100, "duration": 153}, {"note": 0, "velocity": 0, "duration": 87}, {"note": 74, "velocity": 114, "duration": 358}, {"note": 0, "velocity": 0, "duration": 362}, {"note": 71, "velocity": 108, "duration": 418}, {"note": 0, "velocity": 0, "duration": 62}, {"note": 69, "velocity": 105, "duration": 1198}, {"note": 0, "velocity": 0, "duration": 242}, {"note": 67, "velocity": 102, "duration": 165}, {"note": 0, "velocity": 0, "duration": 75}, {"note": 69, "velocity": 105, "duration": 163}, {"note": 0, "velocity": 0, "duration": 77}, {"note": 72, "velocity": 102, "duration": 178}, {"note": 0, "velocity": 0, "duration": 62}, {"note": 72, "velocity": 102, "duration": 190}, {"note": 76, "velocity": 108, "duration": 144}, {"note": 0, "velocity": 0, "duration": 96}, {"note": 74, "velocity": 114, "duration": 1798}, {"note": 0, "velocity": 0, "duration": 301}, {"note": 71, "velocity": 108, "duration": 1040}, {"note": 0, "velocity": 0, "duration": 172}, {"note": 69, "velocity": 105, "duration": 1908}]]