[[{"note": 64, "velocity": 100, "duration": 93}, {"note": 66, "velocity": 105, "duration": 67}, {"note": 67, "velocity": 105, "duration": 55}, {"note": 0, "velocity": 0, "duration": 65}, {"note": 69, "velocity": 100, "duration": 71}, {"note": 71, "velocity": 102, "duration": 180}, {"note": 69, "velocity": 94, "duration": 68}, {"note": 66, "velocity": 96, "duration": 230}, {"note": 0, "velocity": 0, "duration": 130}, {"note": 66, "velocity": 102, "duration": 81}, {"note": 64, "velocity": 105, "duration": 159}, {"note": 0, "velocity": 0, "duration": 81}, {"note": 62, "velocity": 108, "duration": 221}, {"note": 0, "velocity": 0, "duration": 379}, {"note": 64, "velocity": 102, "duration": 149}, {"note": 0, "velocity": 0, "duration": 91}, {"note": 64, "velocity": 97, "duration": 147}, {"note": 0, "velocity": 0, "duration": 93}, {"note": 62, "velocity": 100, "duration": 60}, {"note": 64, "velocity": 94, "duration": 54}, {"note": 0, "velocity": 0, "duration": 66}, {"note": 62, "velocity": 105, "duration": 81}, {"note": 62, "velocity": 100, "duration": 638}, {"note": 0, "velocity": 0, "duration": 202}, {"note": 64, "velocity": 94, "duration": 63}, {"note": 66, "velocity": 90, "duration": 70}, {"note": 67, "velocity": 97, "duration": 51}, {"note": 0, "velocity": 0, "duration": 69}, {"note": 69, "velocity": 94, "duration": 63}, {"note": 71, "velocity": 102, "duration": 156}, {"note": 0, "velocity": 0, "duration": 84}, {"note": 69, "velocity": 102, "duration": 63}, {"note": 66, "velocity": 93, "duration": 169}, {"note": 0, "velocity": 0, "duration": 191}, {"note": 66, "velocity": 93, "duration": 80}, {"note": 64, "velocity": 100, "duration": 146}, {"note": 0, "velocity": 0, "duration": 94}, {"note": 62, "velocity": 105, "duration": 284}, {"note": 0, "velocity": 0, "duration": 316}, {"note": 64, "velocity": 87, "duration": 67}, {"note": 64, "velocity": 94, "duration": 73}, {"note": 74, "velocity": 108, "duration": 244}, {"note": 72, "velocity": 102, "duration": 56}, {"note": 0, "velocity": 0, "duration": 64}, {"note": 72, "velocity": 105, "duration": 158}, {"note": 0, "velocity": 0, "duration": 82}, {"note": 71, "velocity": 97, "duration": 668}, {"note": 0, "velocity": 0, "duration": 172}, {"note": 72, "velocity": 108, "duration": 76}, {"note": 69, "velocity": 100, "duration": 60}, {"note": 71, "velocity": 102, "duration": 61}, {"note": 72, "velocity": 108, "duration": 118}, {"note": 72, "velocity": 102, "duration": 63}, {"note": 69, "velocity": 102, "duration": 57}, {"note": 0, "velocity": 0, "duration": 63}, {"note": 71, "velocity": 102, "duration": 55}, {"note": 0, "velocity": 0, "duration": 65}, {"note": 72, "velocity": 102, "duration": 55}, {"note": 0, "velocity": 0, "duration": 65}, {"note": 72, "velocity": 102, "duration": 51}, {"note": 0, "velocity": 0, "duration": 69}, {"note": 79, "velocity": 89, "duration": 47}, {"note": 0, "velocity": 0, "duration": 73}, {"note": 79, "velocity": 105, "duration": 57}, {"note": 0, "velocity": 0, "duration": 63}, {"note": 79, "velocity": 102, "duration": 48}, {"note": 0, "velocity": 0, "duration": 72}, {"note": 79, "velocity": 102, "duration": 57}, {"note": 0, "velocity": 0, "duration": 63}, {"note": 78, "velocity": 105, "duration": 55}, {"note": 0, "velocity": 0, "duration": 65}, {"note": 78, "velocity": 109, "duration": 57}, {"note": 0, "velocity": 0, "duration": 63}, {"note": 76, "velocity": 108, "duration": 47}, {"note": 0, "velocity": 0, "duration": 73}, {"note": 71, "velocity": 111, "duration": 51}, {"note": 0, "velocity": 0, "duration": 69}, {"note": 67, "velocity": 82, "duration": 51}, {"note": 0, "velocity": 0, "duration": 69}, {"note": 69, "velocity": 102, "duration": 51}, {"note": 0, "velocity": 0, "duration": 69}, {"note": 71, "velocity": 105, "duration": 58}, {"note": 0, "velocity": 0, "duration": 62}, {"note": 71, "velocity": 111, "duration": 61}, {"note": 67, "velocity": 84, "duration": 61}, {"note": 69, "velocity": 100, "duration": 54}, {"note": 0, "velocity": 0, "duration": 66}, {"note": 71, "velocity": 100, "duration": 65}, {"note": 71, "velocity": 100, "duration": 65}, {"note": 78, "velocity": 111, "duration": 48}, {"note": 0, "velocity": 0, "duration": 72}, {"note": 78, "velocity": 108, "duration": 53}, {"note": 0, "velocity": 0, "duration": 67}, {"note": 78, "velocity": 97, "duration": 71}, {"note": 78, "velocity": 105, "duration": 68}, {"note": 76, "velocity": 70, "duration": 70}, {"note": 76, "velocity": 105, "duration": 57}, {"note": 0, "velocity": 0, "duration": 63}, {"note": 71, "velocity": 114, "duration": 358}, {"note": 72, "velocity": 97, "duration": 53}, {"note": 0, "velocity": 0, "duration": 67}, {"note": 72, "velocity": 92, "duration": 57}, {"note": 0, "velocity": 0, "duration": 63}, {"note": 72, "velocity": 102, "duration": 58}, {"note": 0, "velocity": 0, "duration": 62}, {"note": 72, "velocity": 97, "duration": 53}, {"note": 0, "velocity": 0, "duration": 67}, {"note": 72, "velocity": 102, "duration": 63}, {"note": 74, "velocity": 108, "duration": 215}, {"note": 72, "velocity": 105, "duration": 494}, {"note": 0, "velocity": 0, "duration": 106}, {"note": 71, "velocity": 114, "duration": 63}, {"note": 69, "velocity": 102, "duration": 67}, {"note": 69, "velocity": 92, "duration": 68}, {"note": 71, "velocity": 100, "duration": 55}, {"note": 0, "velocity": 0, "duration": 65}, {"note": 71, "velocity": 108, "duration": 1482}, {"note": 0, "velocity": 0, "duration": 198}, {"note": 64, "velocity": 100, "duration": 93}, {"note": 66, "velocity": 105, "duration": 67}, {"note": 67, "velocity": 105, "duration": 55}, {"note": 0, "velocity": 0, "duration": 65}, {"note": 69, "velocity": 100, "duration": 71}, {"note": 71, "velocity": 102, "duration": 180}, {"note": 69, "velocity": 94, "duration": 68}, {"note": 66, "velocity": 96, "duration": 230}, {"note": 0, "velocity": 0, "duration": 130}, {"note": 66, "velocity": 102, "duration": 81}, {"note": 64, "velocity": 105, "duration": 159}, {"note": 0, "velocity": 0, "duration": 81}, {"note": 62, "velocity": 108, "duration": 221}, {"note": 0, "velocity": 0, "duration": 379}, {"note": 64, "velocity": 102, "duration": 149}, {"note": 0, "velocity": 0, "duration": 91}, {"note": 64, "velocity": 97, "duration": 147}, {"note": 0, "velocity": 0, "duration": 93}, {"note": 62, "velocity": 100, "duration": 60}, {"note": 64, "velocity": 94, "duration": 54}, {"note": 0, "velocity": 0, "duration": 66}, {"note": 62, "velocity": 105, "duration": 81}, {"note": 62, "velocity": 100, "duration": 638}, {"note": 0, "velocity": 0, "duration": 202}, {"note": 64, "velocity": 94, "duration": 63}, {"note": 66, "velocity": 90, "duration": 70}, {"note": 67, "velocity": 97, "duration": 51}, {"note": 0, "velocity": 0, "duration": 69}, {"note": 69, "velocity": 94, "duration": 63}, {"note": 71, "velocity": 102, "duration": 156}, {"note": 0, "velocity": 0, "duration": 84}, {"note": 69, "velocity": 102, "duration": 63}, {"note": 66, "velocity": 93, "duration": 169}, {"note": 0, "velocity": 0, "duration": 191}, {"note": 66, "velocity": 93, "duration": 80}, {"note": 64, "velocity": 100, "duration": 146}, {"note": 0, "velocity": 0, "duration": 94}, {"note": 62, "velocity": 105, "duration": 284}, {"note": 0, "velocity": 0, "duration": 316}, {"note": 64, "velocity": 87, "duration": 238}, {"note": 74, "velocity": 108, "duration": 244}, {"note": 72, "velocity": 102, "duration": 56}, {"note": 0, "velocity": 0, "duration": 64}, {"note": 72, "velocity": 105, "duration": 158}, {"note": 0, "velocity": 0, "duration": 82}, {"note": 71, "velocity": 97, "duration": 668}, {"note": 0, "velocity": 0, "duration": 172}, {"note": 72, "velocity": 108, "duration": 76}, {"note": 69, "velocity": 100, "duration": 60}, {"note": 71, "velocity": 102, "duration": 61}, {"note": 72, "velocity": 108, "duration": 118}, {"note": 72, "velocity": 102, "duration": 63}, {"note": 69, "velocity": 102, "duration": 57}, {"note": 0, "velocity": 0, "duration": 63}, {"note": 71, "velocity": 102, "duration": 55}, {"note": 0, "velocity": 0, "duration": 65}, {"note": 72, "velocity": 102, "duration": 55}, {"note": 0, "velocity": 0, "duration": 65}, {"note": 72, "velocity": 102, "duration": 51}, {"note": 0, "velocity": 0, "duration": 69}, {"note": 79, "velocity": 89, "duration": 47}, {"note": 0, "velocity": 0, "duration": 73}, {"note": 79, "velocity": 105, "duration": 57}, {"note": 0, "velocity": 0, "duration": 63}, {"note": 79, "velocity": 102, "duration": 48}, {"note": 0, "velocity": 0, "duration": 72}, {"note": 79, "velocity": 102, "duration": 57}, {"note": 0, "velocity": 0, "duration": 63}, {"note": 78, "velocity": 105, "duration": 55}, {"note": 0, "velocity": 0, "duration": 65}, {"note": 78, "velocity": 109, "duration": 57}, {"note": 0, "velocity": 0, "duration": 63}, {"note": 76, "velocity": 108, "duration": 47}, {"note": 0, "velocity": 0, "duration": 73}, {"note": 71, "velocity": 111, "duration": 51}, {"note": 0, "velocity": 0, "duration": 69}, {"note": 67, "velocity": 82, "duration": 51}, {"note": 0, "velocity": 0, "duration": 69}, {"note": 69, "velocity": 102, "duration": 51}, {"note": 0, "velocity": 0, "duration": 69}, {"note": 71, "velocity": 105, "duration": 58}, {"note": 0, "velocity": 0, "duration": 62}, {"note": 71, "velocity": 111, "duration": 61}, {"note": 67, "velocity": 84, "duration": 61}, {"note": 69, "velocity": 100, "duration": 54}, {"note": 0, "velocity": 0, "duration": 66}, {"note": 71, "velocity": 100, "duration": 65}, {"note": 71, "velocity": 100, "duration": 65}, {"note": 78, "velocity": 111, "duration": 48}, {"note": 0, "velocity": 0, "duration": 72}, {"note": 78, "velocity": 108, "duration": 53}, {"note": 0, "velocity": 0, "duration": 67}, {"note": 78, "velocity": 97, "duration": 71}, {"note": 78, "velocity": 105, "duration": 68}, {"note": 76, "velocity": 70, "duration": 70}, {"note": 76, "velocity": 105, "duration": 57}, {"note": 0, "velocity": 0, "duration": 63}, {"note": 71, "velocity": 114, "duration": 358}, {"note": 72, "velocity": 97, "duration": 53}, {"note": 0, "velocity": 0, "duration": 67}, {"note": 72, "velocity": 92, "duration": 57}, {"note": 0, "velocity": 0, "duration": 63}, {"note": 72, "velocity": 102, "duration": 58}, {"note": 0, "velocity": 0, "duration": 62}, {"note": 72, "velocity": 97, "duration": 53}, {"note": 0, "velocity": 0, "duration": 67}, {"note": 72, "velocity": 102, "duration": 63}, {"note": 74, "velocity": 108, "duration": 215}, {"note": 72, "velocity": 105, "duration": 478}, {"note": 72, "velocity": 114, "duration": 118}, {"note": 71, "velocity": 114, "duration": 63}, {"note": 69, "velocity": 102, "duration": 67}, {"note": 71, "velocity": 114, "duration": 142}, {"note": 71, "velocity": 111, "duration": 100}, {"note": 71, "velocity": 111, "duration": 110}, {"note": 75, "velocity": 109, "duration": 118}, {"note": 75, "velocity": 105, "duration": 106}, {"note": 76, "velocity": 111, "duration": 93}, {"note": 78, "velocity": 105, "duration": 523}, {"note": 0, "velocity": 0, "duration": 78}, {"note": 71, "velocity": 117, "duration": 166}, {"note": 0, "velocity": 0, "duration": 74}, {"note": 71, "velocity": 114, "duration": 70}, {"note": 79, "velocity": 114, "duration": 57}, {"note": 0, "velocity": 0, "duration": 63}, {"note": 79, "velocity": 114, "duration": 60}, {"note": 78, "velocity": 109, "duration": 63}, {"note": 76, "velocity": 111, "duration": 144}, {"note": 0, "velocity": 0, "duration": 96}, {"note": 76, "velocity": 120, "duration": 159}, {"note": 0, "velocity": 0, "duration": 81}, {"note": 71, "velocity": 105, "duration": 67}, {"note": 79, "velocity": 111, "duration": 60}, {"note": 79, "velocity": 111, "duration": 61}, {"note": 78, "velocity": 102, "duration": 76}, {"note": 76, "velocity": 114, "duration": 169}, {"note": 0, "velocity": 0, "duration": 71}, {"note": 76, "velocity": 108, "duration": 118}, {"note": 76, "velocity": 100, "duration": 64}, {"note": 79, "velocity": 111, "duration": 57}, {"note": 0, "velocity": 0, "duration": 63}, {"note": 78, "velocity": 105, "duration": 55}, {"note": 0, "velocity": 0, "duration": 65}, {"note": 78, "velocity": 90, "duration": 53}, {"note": 0, "velocity": 0, "duration": 67}, {"note": 78, "velocity": 102, "duration": 57}, {"note": 0, "velocity": 0, "duration": 63}, {"note": 78, "velocity": 102, "duration": 53}, {"note": 0, "velocity": 0, "duration": 67}, {"note": 78, "velocity": 109, "duration": 65}, {"note": 76, "velocity": 102, "duration": 50}, {"note": 0, "velocity": 0, "duration": 70}, {"note": 76, "velocity": 94, "duration": 64}, {"note": 74, "velocity": 76, "duration": 58}, {"note": 0, "velocity": 0, "duration": 62}, {"note": 74, "velocity": 102, "duration": 188}, {"note": 76, "velocity": 82, "duration": 73}, {"note": 71, "velocity": 97, "duration": 347}, {"note": 0, "velocity": 0, "duration": 373}, {"note": 72, "velocity": 105, "duration": 51}, {"note": 0, "velocity": 0, "duration": 69}, {"note": 72, "velocity": 100, "duration": 60}, {"note": 72, "velocity": 97, "duration": 55}, {"note": 0, "velocity": 0, "duration": 65}, {"note": 72, "velocity": 111, "duration": 64}, {"note": 71, "velocity": 111, "duration": 63}, {"note": 72, "velocity": 108, "duration": 60}, {"note": 76, "velocity": 105, "duration": 60}, {"note": 71, "velocity": 108, "duration": 173}, {"note": 71, "velocity": 111, "duration": 14}, {"note": 0, "velocity": 0, "duration": 159}, {"note": 71, "velocity": 111, "duration": 103}, {"note": 76, "velocity": 111, "duration": 92}, {"note": 0, "velocity": 0, "duration": 66}, {"note": 76, "velocity": 108, "duration": 95}, {"note": 0, "velocity": 0, "duration": 61}, {"note": 79, "velocity": 108, "duration": 84}, {"note": 78, "velocity": 109, "duration": 189}, {"note": 0, "velocity": 0, "duration": 67}, {"note": 73, "velocity": 96, "duration": 232}, {"note": 0, "velocity": 0, "duration": 128}, {"note": 75, "velocity": 116, "duration": 162}, {"note": 0, "velocity": 0, "duration": 78}, {"note": 76, "velocity": 108, "duration": 73}, {"note": 78, "velocity": 105, "duration": 540}, {"note": 71, "velocity": 117, "duration": 118}, {"note": 71, "velocity": 114, "duration": 118}, {"note": 71, "velocity": 114, "duration": 70}, {"note": 79, "velocity": 114, "duration": 57}, {"note": 0, "velocity": 0, "duration": 63}, {"note": 79, "velocity": 114, "duration": 60}, {"note": 78, "velocity": 109, "duration": 63}, {"note": 76, "velocity": 111, "duration": 144}, {"note": 0, "velocity": 0, "duration": 96}, {"note": 76, "velocity": 120, "duration": 159}, {"note": 0, "velocity": 0, "duration": 81}, {"note": 71, "velocity": 105, "duration": 67}, {"note": 79, "velocity": 111, "duration": 60}, {"note": 79, "velocity": 111, "duration": 61}, {"note": 78, "velocity": 102, "duration": 76}, {"note": 76, "velocity": 114, "duration": 169}, {"note": 0, "velocity": 0, "duration": 71}, {"note": 76, "velocity": 108, "duration": 118}, {"note": 76, "velocity": 100, "duration": 64}, {"note": 79, "velocity": 111, "duration": 57}, {"note": 0, "velocity": 0, "duration": 63}, {"note": 78, "velocity": 105, "duration": 55}, {"note": 0, "velocity": 0, "duration": 65}, {"note": 78, "velocity": 90, "duration": 53}, {"note": 0, "velocity": 0, "duration": 67}, {"note": 78, "velocity": 102, "duration": 57}, {"note": 0, "velocity": 0, "duration": 63}, {"note": 78, "velocity": 102, "duration": 53}, {"note": 0, "velocity": 0, "duration": 67}, {"note": 78, "velocity": 109, "duration": 65}, {"note": 76, "velocity": 102, "duration": 50}, {"note": 0, "velocity": 0, "duration": 70}, {"note": 76, "velocity": 94, "duration": 64}, {"note": 74, "velocity": 76, "duration": 58}, {"note": 0, "velocity": 0, "duration": 62}, {"note": 74, "velocity": 102, "duration": 188}, {"note": 76, "velocity": 82, "duration": 73}, {"note": 71, "velocity": 97, "duration": 347}, {"note": 0, "velocity": 0, "duration": 373}, {"note": 72, "velocity": 105, "duration": 51}, {"note": 0, "velocity": 0, "duration": 69}, {"note": 72, "velocity": 100, "duration": 60}, {"note": 72, "velocity": 97, "duration": 55}, {"note": 0, "velocity": 0, "duration": 65}, {"note": 72, "velocity": 111, "duration": 64}, {"note": 71, "velocity": 111, "duration": 63}, {"note": 72, "velocity": 108, "duration": 60}, {"note": 76, "velocity": 105, "duration": 60}, {"note": 71, "velocity": 108, "duration": 173}, {"note": 71, "velocity": 111, "duration": 14}, {"note": 0, "velocity": 0, "duration": 159}, {"note": 71, "velocity": 111, "duration": 103}, {"note": 76, "velocity": 111, "duration": 92}, {"note": 0, "velocity": 0, "duration": 66}, {"note": 76, "velocity": 108, "duration": 95}, {"note": 0, "velocity": 0, "duration": 61}, {"note": 78, "velocity": 108, "duration": 84}, {"note": 79, "velocity": 109, "duration": 598}, {"note": 0, "velocity": 0, "duration": 387}, {"note": 78, "velocity": 109, "duration": 127}, {"note": 78, "velocity": 102, "duration": 120}, {"note": 78, "velocity": 102, "duration": 101}, {"note": 78, "velocity": 102, "duration": 134}, {"note": 76, "velocity": 108, "duration": 101}, {"note": 0, "velocity": 0, "duration": 64}, {"note": 75, "velocity": 105, "duration": 238}, {"note": 76, "velocity": 111, "duration": 1396}, {"note": 0, "velocity": 0, "duration": 9524}, {"note": 76, "velocity": 111, "duration": 61}, {"note": 74, "velocity": 111, "duration": 199}, {"note": 69, "velocity": 108, "duration": 257}, {"note": 0, "velocity": 0, "duration": 103}, {"note": 67, "velocity": 105, "duration": 54}, {"note": 0, "velocity": 0, "duration": 66}, {"note": 69, "velocity": 111, "duration": 238}, {"note": 67, "velocity": 89, "duration": 55}, {"note": 0, "velocity": 0, "duration": 65}, {"note": 69, "velocity": 105, "duration": 58}, {"note": 0, "velocity": 0, "duration": 62}, {"note": 67, "velocity": 105, "duration": 53}, {"note": 0, "velocity": 0, "duration": 67}, {"note": 69, "velocity": 117, "duration": 57}, {"note": 0, "velocity": 0, "duration": 63}, {"note": 67, "velocity": 105, "duration": 48}, {"note": 0, "velocity": 0, "duration": 72}, {"note": 69, "velocity": 108, "duration": 57}, {"note": 0, "velocity": 0, "duration": 63}, {"note": 67, "velocity": 102, "duration": 54}, {"note": 0, "velocity": 0, "duration": 66}, {"note": 69, "velocity": 114, "duration": 53}, {"note": 0, "velocity": 0, "duration": 67}, {"note": 67, "velocity": 108, "duration": 53}, {"note": 0, "velocity": 0, "duration": 67}, {"note": 69, "velocity": 102, "duration": 70}, {"note": 67, "velocity": 102, "duration": 48}, {"note": 0, "velocity": 0, "duration": 72}, {"note": 69, "velocity": 111, "duration": 61}, {"note": 67, "velocity": 108, "duration": 52}, {"note": 0, "velocity": 0, "duration": 68}, {"note": 64, "velocity": 111, "duration": 118}, {"note": 64, "velocity": 111, "duration": 598}, {"note": 0, "velocity": 0, "duration": 362}, {"note": 76, "velocity": 108, "duration": 58}, {"note": 0, "velocity": 0, "duration": 62}, {"note": 76, "velocity": 111, "duration": 170}, {"note": 0, "velocity": 0, "duration": 70}, {"note": 78, "velocity": 105, "duration": 61}, {"note": 79, "velocity": 102, "duration": 64}, {"note": 78, "velocity": 109, "duration": 183}, {"note": 74, "velocity": 111, "duration": 61}, {"note": 74, "velocity": 105, "duration": 203}, {"note": 0, "velocity": 0, "duration": 397}, {"note": 76, "velocity": 111, "duration": 175}, {"note": 0, "velocity": 0, "duration": 65}, {"note": 78, "velocity": 105, "duration": 68}, {"note": 79, "velocity": 105, "duration": 59}, {"note": 0, "velocity": 0, "duration": 61}, {"note": 79, "velocity": 111, "duration": 170}, {"note": 0, "velocity": 0, "duration": 66}, {"note": 78, "velocity": 112, "duration": 83}, {"note": 76, "velocity": 105, "duration": 65}, {"note": 78, "velocity": 109, "duration": 282}, {"note": 0, "velocity": 0, "duration": 311}, {"note": 71, "velocity": 117, "duration": 166}, {"note": 0, "velocity": 0, "duration": 74}, {"note": 71, "velocity": 114, "duration": 70}, {"note": 79, "velocity": 114, "duration": 57}, {"note": 0, "velocity": 0, "duration": 63}, {"note": 79, "velocity": 114, "duration": 60}, {"note": 78, "velocity": 109, "duration": 63}, {"note": 76, "velocity": 111, "duration": 144}, {"note": 0, "velocity": 0, "duration": 96}, {"note": 76, "velocity": 120, "duration": 159}, {"note": 0, "velocity": 0, "duration": 81}, {"note": 71, "velocity": 105, "duration": 67}, {"note": 79, "velocity": 111, "duration": 60}, {"note": 79, "velocity": 111, "duration": 61}, {"note": 78, "velocity": 102, "duration": 76}, {"note": 76, "velocity": 114, "duration": 169}, {"note": 0, "velocity": 0, "duration": 71}, {"note": 76, "velocity": 108, "duration": 118}, {"note": 76, "velocity": 100, "duration": 64}, {"note": 79, "velocity": 111, "duration": 57}, {"note": 0, "velocity": 0, "duration": 63}, {"note": 78, "velocity": 105, "duration": 55}, {"note": 0, "velocity": 0, "duration": 65}, {"note": 78, "velocity": 90, "duration": 53}, {"note": 0, "velocity": 0, "duration": 67}, {"note": 78, "velocity": 102, "duration": 57}, {"note": 0, "velocity": 0, "duration": 63}, {"note": 78, "velocity": 102, "duration": 53}, {"note": 0, "velocity": 0, "duration": 67}, {"note": 78, "velocity": 109, "duration": 65}, {"note": 76, "velocity": 102, "duration": 50}, {"note": 0, "velocity": 0, "duration": 70}, {"note": 76, "velocity": 94, "duration": 64}, {"note": 74, "velocity": 76, "duration": 58}, {"note": 0, "velocity": 0, "duration": 62}, {"note": 74, "velocity": 102, "duration": 188}, {"note": 76, "velocity": 82, "duration": 73}, {"note": 71, "velocity": 97, "duration": 347}, {"note": 0, "velocity": 0, "duration": 373}, {"note": 72, "velocity": 105, "duration": 51}, {"note": 0, "velocity": 0, "duration": 69}, {"note": 72, "velocity": 100, "duration": 60}, {"note": 72, "velocity": 97, "duration": 55}, {"note": 0, "velocity": 0, "duration": 65}, {"note": 72, "velocity": 111, "duration": 64}, {"note": 71, "velocity": 111, "duration": 63}, {"note": 72, "velocity": 108, "duration": 60}, {"note": 76, "velocity": 105, "duration": 60}, {"note": 71, "velocity": 108, "duration": 173}, {"note": 71, "velocity": 111, "duration": 14}, {"note": 0, "velocity": 0, "duration": 159}, {"note": 71, "velocity": 111, "duration": 103}, {"note": 76, "velocity": 111, "duration": 92}, {"note": 0, "velocity": 0, "duration": 66}, {"note": 76, "velocity": 108, "duration": 95}, {"note": 0, "velocity": 0, "duration": 61}, {"note": 79, "velocity": 108, "duration": 84}, {"note": 78, "velocity": 109, "duration": 189}, {"note": 0, "velocity": 0, "duration": 67}, {"note": 73, "velocity": 96, "duration": 232}, {"note": 0, "velocity": 0, "duration": 128}, {"note": 75, "velocity": 116, "duration": 162}, {"note": 0, "velocity": 0, "duration": 78}, {"note": 76, "velocity": 108, "duration": 73}, {"note": 78, "velocity": 105, "duration": 540}, {"note": 71, "velocity": 117, "duration": 118}, {"note": 71, "velocity": 114, "duration": 118}, {"note": 71, "velocity": 114, "duration": 70}, {"note": 79, "velocity": 114, "duration": 57}, {"note": 0, "velocity": 0, "duration": 63}, {"note": 79, "velocity": 114, "duration": 60}, {"note": 78, "velocity": 109, "duration": 63}, {"note": 76, "velocity": 111, "duration": 144}, {"note": 0, "velocity": 0, "duration": 96}, {"note": 76, "velocity": 120, "duration": 159}, {"note": 0, "velocity": 0, "duration": 81}, {"note": 71, "velocity": 105, "duration": 67}, {"note": 79, "velocity": 111, "duration": 60}, {"note": 79, "velocity": 111, "duration": 61}, {"note": 78, "velocity": 102, "duration": 76}, {"note": 76, "velocity": 114, "duration": 169}, {"note": 0, "velocity": 0, "duration": 71}, {"note": 76, "velocity": 108, "duration": 118}, {"note": 76, "velocity": 100, "duration": 64}, {"note": 79, "velocity": 111, "duration": 57}, {"note": 0, "velocity": 0, "duration": 63}, {"note": 78, "velocity": 105, "duration": 55}, {"note": 0, "velocity": 0, "duration": 65}, {"note": 78, "velocity": 90, "duration": 53}, {"note": 0, "velocity": 0, "duration": 67}, {"note": 78, "velocity": 102, "duration": 57}, {"note": 0, "velocity": 0, "duration": 63}, {"note": 78, "velocity": 102, "duration": 53}, {"note": 0, "velocity": 0, "duration": 67}, {"note": 78, "velocity": 109, "duration": 65}, {"note": 76, "velocity": 102, "duration": 50}, {"note": 0, "velocity": 0, "duration": 70}, {"note": 76, "velocity": 94, "duration": 64}, {"note": 74, "velocity": 76, "duration": 58}, {"note": 0, "velocity": 0, "duration": 62}, {"note": 74, "velocity": 102, "duration": 188}, {"note": 76, "velocity": 82, "duration": 73}, {"note": 71, "velocity": 97, "duration": 347}, {"note": 0, "velocity": 0, "duration": 373}, {"note": 72, "velocity": 105, "duration": 51}, {"note": 0, "velocity": 0, "duration": 69}, {"note": 72, "velocity": 100, "duration": 60}, {"note": 72, "velocity": 97, "duration": 55}, {"note": 0, "velocity": 0, "duration": 65}, {"note": 72, "velocity": 111, "duration": 64}, {"note": 71, "velocity": 111, "duration": 63}, {"note": 72, "velocity": 108, "duration": 60}, {"note": 76, "velocity": 105, "duration": 60}, {"note": 71, "velocity": 108, "duration": 173}, {"note": 71, "velocity": 111, "duration": 14}, {"note": 0, "velocity": 0, "duration": 159}, {"note": 71, "velocity": 111, "duration": 103}, {"note": 76, "velocity": 111, "duration": 92}, {"note": 0, "velocity": 0, "duration": 66}, {"note": 76, "velocity": 108, "duration": 95}, {"note": 0, "velocity": 0, "duration": 61}, {"note": 78, "velocity": 108, "duration": 84}, {"note": 79, "velocity": 109, "duration": 598}, {"note": 0, "velocity": 0, "duration": 387}, {"note": 78, "velocity": 109, "duration": 127}, {"note": 78, "velocity": 102, "duration": 120}, {"note": 78, "velocity": 102, "duration": 101}, {"note": 78, "velocity": 102, "duration": 134}, {"note": 76, "velocity": 108, "duration": 101}, {"note": 0, "velocity": 0, "duration": 64}, {"note": 75, "velocity": 105, "duration": 238}, {"note": 76, "velocity": 111, "duration": 1396}, {"note": 71, "velocity": 117, "duration": 118}, {"note": 71, "velocity": 114, "duration": 118}, {"note": 71, "velocity": 114, "duration": 70}, {"note": 79, "velocity": 114, "duration": 57}, {"note": 0, "velocity": 0, "duration": 63}, {"note": 79, "velocity": 114, "duration": 60}, {"note": 78, "velocity": 109, "duration": 63}, {"note": 76, "velocity": 111, "duration": 144}, {"note": 0, "velocity": 0, "duration": 96}, {"note": 76, "velocity": 120, "duration": 159}, {"note": 0, "velocity": 0, "duration": 81}, {"note": 71, "velocity": 105, "duration": 67}, {"note": 79, "velocity": 111, "duration": 60}, {"note": 79, "velocity": 111, "duration": 61}, {"note": 78, "velocity": 102, "duration": 76}, {"note": 76, "velocity": 114, "duration": 169}, {"note": 0, "velocity": 0, "duration": 71}, {"note": 76, "velocity": 108, "duration": 118}, {"note": 76, "velocity": 100, "duration": 64}, {"note": 79, "velocity": 111, "duration": 57}, {"note": 0, "velocity": 0, "duration": 63}, {"note": 78, "velocity": 105, "duration": 55}, {"note": 0, "velocity": 0, "duration": 65}, {"note": 78, "velocity": 90, "duration": 53}, {"note": 0, "velocity": 0, "duration": 67}, {"note": 78, "velocity": 102, "duration": 57}, {"note": 0, "velocity": 0, "duration": 63}, {"note": 78, "velocity": 102, "duration": 53}, {"note": 0, "velocity": 0, "duration": 67}, {"note": 78, "velocity": 109, "duration": 65}, {"note": 76, "velocity": 102, "duration": 50}, {"note": 0, "velocity": 0, "duration": 70}, {"note": 76, "velocity": 94, "duration": 64}, {"note": 74, "velocity": 76, "duration": 58}, {"note": 0, "velocity": 0, "duration": 62}, {"note": 74, "velocity": 102, "duration": 188}, {"note": 76, "velocity": 82, "duration": 73}, {"note": 71, "velocity": 97, "duration": 347}, {"note": 0, "velocity": 0, "duration": 373}, {"note": 72, "velocity": 105, "duration": 51}, {"note": 0, "velocity": 0, "duration": 69}, {"note": 72, "velocity": 100, "duration": 60}, {"note": 72, "velocity": 97, "duration": 55}, {"note": 0, "velocity": 0, "duration": 65}, {"note": 72, "velocity": 111, "duration": 64}, {"note": 71, "velocity": 111, "duration": 63}, {"note": 72, "velocity": 108, "duration": 60}, {"note": 76, "velocity": 105, "duration": 60}, {"note": 71, "velocity": 108, "duration": 173}, {"note": 71, "velocity": 111, "duration": 14}, {"note": 0, "velocity": 0, "duration": 159}, {"note": 71, "velocity": 111, "duration": 103}, {"note": 76, "velocity": 111, "duration": 92}, {"note": 0, "velocity": 0, "duration": 66}, {"note": 76, "velocity": 108, "duration": 95}, {"note": 0, "velocity": 0, "duration": 61}, {"note": 78, "velocity": 108, "duration": 84}, {"note": 79, "velocity": 109, "duration": 598}, {"note": 0, "velocity": 0, "duration": 387}, {"note": 78, "velocity": 109, "duration": 127}, {"note": 78, "velocity": 102, "duration": 120}, {"note": 78, "velocity": 102, "duration": 101}, {"note": 78, "velocity": 102, "duration": 134}, {"note": 76, "velocity": 108, "duration": 101}, {"note": 0, "velocity": 0, "duration": 64}, {"note": 75, "velocity": 105, "duration": 238}, {"note": 76, "velocity": 111, "duration": 1396}]]