[[{"note": 64, "velocity": 108, "duration": 147}, {"note": 0, "velocity": 0, "duration": 93}, {"note": 69, "velocity": 108, "duration": 267}, {"note": 0, "velocity": 0, "duration": 93}, {"note": 69, "velocity": 97, "duration": 63}, {"note": 69, "velocity": 111, "duration": 158}, {"note": 0, "velocity": 0, "duration": 82}, {"note": 69, "velocity": 100, "duration": 79}, {"note": 67, "velocity": 111, "duration": 49}, {"note": 0, "velocity": 0, "duration": 71}, {"note": 67, "velocity": 108, "duration": 166}, {"note": 0, "velocity": 0, "duration": 74}, {"note": 62, "velocity": 102, "duration": 295}, {"note": 0, "velocity": 0, "duration": 65}, {"note": 62, "velocity": 94, "duration": 50}, {"note": 0, "velocity": 0, "duration": 70}, {"note": 60, "velocity": 100, "duration": 57}, {"note": 0, "velocity": 0, "duration": 63}, {"note": 62, "velocity": 105, "duration": 49}, {"note": 0, "velocity": 0, "duration": 71}, {"note": 64, "velocity": 105, "duration": 289}, {"note": 0, "velocity": 0, "duration": 71}, {"note": 67, "velocity": 102, "duration": 57}, {"note": 0, "velocity": 0, "duration": 63}, {"note": 64, "velocity": 94, "duration": 132}, {"note": 0, "velocity": 0, "duration": 108}, {"note": 62, "velocity": 100, "duration": 118}, {"note": 64, "velocity": 114, "duration": 118}, {"note": 57, "velocity": 82, "duration": 447}, {"note": 0, "velocity": 0, "duration": 273}, {"note": 57, "velocity": 105, "duration": 81}, {"note": 60, "velocity": 94, "duration": 57}, {"note": 0, "velocity": 0, "duration": 63}, {"note": 62, "velocity": 105, "duration": 91}, {"note": 0, "velocity": 0, "duration": 149}, {"note": 62, "velocity": 102, "duration": 84}, {"note": 0, "velocity": 0, "duration": 156}, {"note": 62, "velocity": 94, "duration": 71}, {"note": 60, "velocity": 89, "duration": 170}, {"note": 0, "velocity": 0, "duration": 70}, {"note": 57, "velocity": 97, "duration": 83}, {"note": 62, "velocity": 100, "duration": 197}, {"note": 64, "velocity": 94, "duration": 90}, {"note": 62, "velocity": 100, "duration": 238}, {"note": 0, "velocity": 0, "duration": 122}, {"note": 57, "velocity": 94, "duration": 69}, {"note": 60, "velocity": 78, "duration": 58}, {"note": 0, "velocity": 0, "duration": 62}, {"note": 62, "velocity": 105, "duration": 57}, {"note": 0, "velocity": 0, "duration": 63}, {"note": 62, "velocity": 92, "duration": 53}, {"note": 0, "velocity": 0, "duration": 67}, {"note": 62, "velocity": 100, "duration": 50}, {"note": 0, "velocity": 0, "duration": 70}, {"note": 62, "velocity": 97, "duration": 57}, {"note": 0, "velocity": 0, "duration": 63}, {"note": 67, "velocity": 105, "duration": 177}, {"note": 0, "velocity": 0, "duration": 63}, {"note": 69, "velocity": 108, "duration": 60}, {"note": 64, "velocity": 105, "duration": 686}, {"note": 0, "velocity": 0, "duration": 154}, {"note": 64, "velocity": 108, "duration": 118}, {"note": 64, "velocity": 108, "duration": 118}, {"note": 69, "velocity": 108, "duration": 267}, {"note": 0, "velocity": 0, "duration": 93}, {"note": 69, "velocity": 97, "duration": 63}, {"note": 69, "velocity": 111, "duration": 158}, {"note": 0, "velocity": 0, "duration": 82}, {"note": 69, "velocity": 100, "duration": 79}, {"note": 67, "velocity": 111, "duration": 49}, {"note": 0, "velocity": 0, "duration": 71}, {"note": 67, "velocity": 108, "duration": 166}, {"note": 0, "velocity": 0, "duration": 74}, {"note": 62, "velocity": 102, "duration": 295}, {"note": 0, "velocity": 0, "duration": 65}, {"note": 62, "velocity": 94, "duration": 50}, {"note": 0, "velocity": 0, "duration": 70}, {"note": 60, "velocity": 100, "duration": 57}, {"note": 0, "velocity": 0, "duration": 63}, {"note": 62, "velocity": 105, "duration": 49}, {"note": 0, "velocity": 0, "duration": 71}, {"note": 64, "velocity": 105, "duration": 289}, {"note": 0, "velocity": 0, "duration": 71}, {"note": 67, "velocity": 102, "duration": 57}, {"note": 0, "velocity": 0, "duration": 63}, {"note": 64, "velocity": 94, "duration": 132}, {"note": 0, "velocity": 0, "duration": 108}, {"note": 62, "velocity": 100, "duration": 118}, {"note": 64, "velocity": 114, "duration": 118}, {"note": 57, "velocity": 82, "duration": 447}, {"note": 0, "velocity": 0, "duration": 273}, {"note": 57, "velocity": 105, "duration": 81}, {"note": 60, "velocity": 94, "duration": 57}, {"note": 0, "velocity": 0, "duration": 63}, {"note": 62, "velocity": 105, "duration": 91}, {"note": 0, "velocity": 0, "duration": 149}, {"note": 62, "velocity": 102, "duration": 84}, {"note": 62, "velocity": 114, "duration": 118}, {"note": 62, "velocity": 94, "duration": 238}, {"note": 60, "velocity": 89, "duration": 170}, {"note": 0, "velocity": 0, "duration": 70}, {"note": 62, "velocity": 100, "duration": 118}, {"note": 62, "velocity": 114, "duration": 118}, {"note": 0, "velocity": 0, "duration": 122}, {"note": 64, "velocity": 94, "duration": 90}, {"note": 62, "velocity": 100, "duration": 238}, {"note": 60, "velocity": 102, "duration": 66}, {"note": 62, "velocity": 100, "duration": 58}, {"note": 0, "velocity": 0, "duration": 62}, {"note": 67, "velocity": 105, "duration": 140}, {"note": 0, "velocity": 0, "duration": 100}, {"note": 64, "velocity": 92, "duration": 605}, {"note": 0, "velocity": 0, "duration": 115}, {"note": 64, "velocity": 105, "duration": 177}, {"note": 0, "velocity": 0, "duration": 63}, {"note": 62, "velocity": 92, "duration": 64}, {"note": 62, "velocity": 102, "duration": 295}, {"note": 0, "velocity": 0, "duration": 65}, {"note": 60, "velocity": 105, "duration": 118}, {"note": 62, "velocity": 105, "duration": 118}, {"note": 57, "velocity": 111, "duration": 1438}, {"note": 0, "velocity": 0, "duration": 482}, {"note": 64, "velocity": 82, "duration": 186}, {"note": 57, "velocity": 108, "duration": 341}, {"note": 0, "velocity": 0, "duration": 139}, {"note": 60, "velocity": 102, "duration": 148}, {"note": 0, "velocity": 0, "duration": 92}, {"note": 62, "velocity": 105, "duration": 501}, {"note": 0, "velocity": 0, "duration": 219}, {"note": 60, "velocity": 89, "duration": 64}, {"note": 62, "velocity": 105, "duration": 60}, {"note": 64, "velocity": 105, "duration": 259}, {"note": 0, "velocity": 0, "duration": 101}, {"note": 62, "velocity": 108, "duration": 74}, {"note": 60, "velocity": 94, "duration": 156}, {"note": 0, "velocity": 0, "duration": 84}, {"note": 62, "velocity": 108, "duration": 107}, {"note": 0, "velocity": 0, "duration": 133}, {"note": 64, "velocity": 105, "duration": 539}, {"note": 0, "velocity": 0, "duration": 181}, {"note": 64, "velocity": 94, "duration": 61}, {"note": 67, "velocity": 111, "duration": 57}, {"note": 0, "velocity": 0, "duration": 63}, {"note": 69, "velocity": 108, "duration": 52}, {"note": 0, "velocity": 0, "duration": 68}, {"note": 72, "velocity": 105, "duration": 61}, {"note": 69, "velocity": 100, "duration": 305}, {"note": 0, "velocity": 0, "duration": 175}, {"note": 67, "velocity": 97, "duration": 53}, {"note": 0, "velocity": 0, "duration": 67}, {"note": 69, "velocity": 108, "duration": 50}, {"note": 0, "velocity": 0, "duration": 70}, {"note": 67, "velocity": 111, "duration": 134}, {"note": 0, "velocity": 0, "duration": 106}, {"note": 57, "velocity": 105, "duration": 300}, {"note": 0, "velocity": 0, "duration": 180}, {"note": 64, "velocity": 94, "duration": 71}, {"note": 67, "velocity": 108, "duration": 56}, {"note": 0, "velocity": 0, "duration": 64}, {"note": 62, "velocity": 105, "duration": 958}, {"note": 0, "velocity": 0, "duration": 962}, {"note": 64, "velocity": 108, "duration": 328}, {"note": 0, "velocity": 0, "duration": 152}, {"note": 57, "velocity": 108, "duration": 161}, {"note": 0, "velocity": 0, "duration": 79}, {"note": 64, "velocity": 102, "duration": 164}, {"note": 0, "velocity": 0, "duration": 76}, {"note": 62, "velocity": 102, "duration": 515}, {"note": 0, "velocity": 0, "duration": 205}, {"note": 60, "velocity": 92, "duration": 69}, {"note": 62, "velocity": 102, "duration": 60}, {"note": 64, "velocity": 108, "duration": 262}, {"note": 0, "velocity": 0, "duration": 98}, {"note": 62, "velocity": 105, "duration": 64}, {"note": 60, "velocity": 108, "duration": 168}, {"note": 0, "velocity": 0, "duration": 72}, {"note": 67, "velocity": 102, "duration": 112}, {"note": 0, "velocity": 0, "duration": 128}, {"note": 64, "velocity": 102, "duration": 516}, {"note": 0, "velocity": 0, "duration": 204}, {"note": 64, "velocity": 102, "duration": 58}, {"note": 0, "velocity": 0, "duration": 62}, {"note": 67, "velocity": 102, "duration": 58}, {"note": 0, "velocity": 0, "duration": 62}, {"note": 69, "velocity": 111, "duration": 162}, {"note": 0, "velocity": 0, "duration": 78}, {"note": 69, "velocity": 111, "duration": 72}, {"note": 67, "velocity": 102, "duration": 41}, {"note": 0, "velocity": 0, "duration": 79}, {"note": 64, "velocity": 105, "duration": 121}, {"note": 0, "velocity": 0, "duration": 119}, {"note": 60, "velocity": 105, "duration": 60}, {"note": 64, "velocity": 100, "duration": 50}, {"note": 0, "velocity": 0, "duration": 70}, {"note": 62, "velocity": 114, "duration": 178}, {"note": 0, "velocity": 0, "duration": 62}, {"note": 62, "velocity": 114, "duration": 238}, {"note": 0, "velocity": 0, "duration": 242}, {"note": 60, "velocity": 102, "duration": 61}, {"note": 62, "velocity": 105, "duration": 64}, {"note": 60, "velocity": 114, "duration": 218}, {"note": 57, "velocity": 102, "duration": 1256}, {"note": 0, "velocity": 0, "duration": 424}, {"note": 64, "velocity": 82, "duration": 186}, {"note": 57, "velocity": 108, "duration": 341}, {"note": 0, "velocity": 0, "duration": 139}, {"note": 60, "velocity": 102, "duration": 148}, {"note": 0, "velocity": 0, "duration": 92}, {"note": 62, "velocity": 105, "duration": 501}, {"note": 0, "velocity": 0, "duration": 219}, {"note": 60, "velocity": 89, "duration": 64}, {"note": 62, "velocity": 105, "duration": 60}, {"note": 64, "velocity": 105, "duration": 259}, {"note": 0, "velocity": 0, "duration": 101}, {"note": 62, "velocity": 108, "duration": 74}, {"note": 60, "velocity": 94, "duration": 156}, {"note": 0, "velocity": 0, "duration": 84}, {"note": 62, "velocity": 108, "duration": 107}, {"note": 0, "velocity": 0, "duration": 133}, {"note": 64, "velocity": 105, "duration": 539}, {"note": 0, "velocity": 0, "duration": 181}, {"note": 64, "velocity": 94, "duration": 61}, {"note": 67, "velocity": 111, "duration": 57}, {"note": 0, "velocity": 0, "duration": 63}, {"note": 69, "velocity": 108, "duration": 52}, {"note": 0, "velocity": 0, "duration": 68}, {"note": 72, "velocity": 105, "duration": 61}, {"note": 69, "velocity": 100, "duration": 305}, {"note": 0, "velocity": 0, "duration": 175}, {"note": 67, "velocity": 97, "duration": 53}, {"note": 0, "velocity": 0, "duration": 67}, {"note": 69, "velocity": 108, "duration": 50}, {"note": 0, "velocity": 0, "duration": 70}, {"note": 67, "velocity": 111, "duration": 134}, {"note": 0, "velocity": 0, "duration": 106}, {"note": 57, "velocity": 105, "duration": 300}, {"note": 0, "velocity": 0, "duration": 180}, {"note": 64, "velocity": 94, "duration": 71}, {"note": 67, "velocity": 108, "duration": 56}, {"note": 0, "velocity": 0, "duration": 64}, {"note": 62, "velocity": 105, "duration": 958}, {"note": 0, "velocity": 0, "duration": 962}, {"note": 64, "velocity": 108, "duration": 328}, {"note": 0, "velocity": 0, "duration": 152}, {"note": 57, "velocity": 108, "duration": 161}, {"note": 0, "velocity": 0, "duration": 79}, {"note": 64, "velocity": 102, "duration": 164}, {"note": 0, "velocity": 0, "duration": 76}, {"note": 62, "velocity": 102, "duration": 515}, {"note": 0, "velocity": 0, "duration": 205}, {"note": 60, "velocity": 92, "duration": 69}, {"note": 62, "velocity": 102, "duration": 60}, {"note": 64, "velocity": 108, "duration": 262}, {"note": 0, "velocity": 0, "duration": 98}, {"note": 62, "velocity": 105, "duration": 64}, {"note": 60, "velocity": 108, "duration": 168}, {"note": 0, "velocity": 0, "duration": 72}, {"note": 67, "velocity": 102, "duration": 112}, {"note": 0, "velocity": 0, "duration": 128}, {"note": 64, "velocity": 102, "duration": 516}, {"note": 0, "velocity": 0, "duration": 204}, {"note": 64, "velocity": 102, "duration": 58}, {"note": 0, "velocity": 0, "duration": 62}, {"note": 67, "velocity": 102, "duration": 58}, {"note": 0, "velocity": 0, "duration": 62}, {"note": 69, "velocity": 111, "duration": 162}, {"note": 0, "velocity": 0, "duration": 78}, {"note": 69, "velocity": 111, "duration": 72}, {"note": 67, "velocity": 102, "duration": 41}, {"note": 0, "velocity": 0, "duration": 79}, {"note": 64, "velocity": 105, "duration": 121}, {"note": 0, "velocity": 0, "duration": 119}, {"note": 60, "velocity": 105, "duration": 60}, {"note": 64, "velocity": 100, "duration": 50}, {"note": 0, "velocity": 0, "duration": 70}, {"note": 62, "velocity": 114, "duration": 178}, {"note": 0, "velocity": 0, "duration": 62}, {"note": 62, "velocity": 114, "duration": 238}, {"note": 0, "velocity": 0, "duration": 242}, {"note": 60, "velocity": 102, "duration": 61}, {"note": 62, "velocity": 105, "duration": 64}, {"note": 60, "velocity": 114, "duration": 218}, {"note": 57, "velocity": 102, "duration": 1256}, {"note": 0, "velocity": 0, "duration": 15784}, {"note": 64, "velocity": 82, "duration": 186}, {"note": 57, "velocity": 108, "duration": 341}, {"note": 0, "velocity": 0, "duration": 139}, {"note": 60, "velocity": 102, "duration": 148}, {"note": 0, "velocity": 0, "duration": 92}, {"note": 62, "velocity": 105, "duration": 501}, {"note": 0, "velocity": 0, "duration": 219}, {"note": 60, "velocity": 89, "duration": 64}, {"note": 62, "velocity": 105, "duration": 60}, {"note": 64, "velocity": 105, "duration": 259}, {"note": 0, "velocity": 0, "duration": 101}, {"note": 62, "velocity": 108, "duration": 74}, {"note": 60, "velocity": 94, "duration": 156}, {"note": 0, "velocity": 0, "duration": 84}, {"note": 62, "velocity": 108, "duration": 107}, {"note": 0, "velocity": 0, "duration": 133}, {"note": 64, "velocity": 105, "duration": 539}, {"note": 0, "velocity": 0, "duration": 181}, {"note": 64, "velocity": 94, "duration": 61}, {"note": 67, "velocity": 111, "duration": 57}, {"note": 0, "velocity": 0, "duration": 63}, {"note": 69, "velocity": 108, "duration": 52}, {"note": 0, "velocity": 0, "duration": 68}, {"note": 72, "velocity": 105, "duration": 61}, {"note": 69, "velocity": 100, "duration": 305}, {"note": 0, "velocity": 0, "duration": 175}, {"note": 67, "velocity": 97, "duration": 53}, {"note": 0, "velocity": 0, "duration": 67}, {"note": 69, "velocity": 108, "duration": 50}, {"note": 0, "velocity": 0, "duration": 70}, {"note": 67, "velocity": 111, "duration": 134}, {"note": 0, "velocity": 0, "duration": 106}, {"note": 57, "velocity": 105, "duration": 300}, {"note": 0, "velocity": 0, "duration": 180}, {"note": 64, "velocity": 94, "duration": 71}, {"note": 67, "velocity": 108, "duration": 56}, {"note": 0, "velocity": 0, "duration": 64}, {"note": 62, "velocity": 105, "duration": 958}, {"note": 0, "velocity": 0, "duration": 962}, {"note": 64, "velocity": 108, "duration": 328}, {"note": 0, "velocity": 0, "duration": 152}, {"note": 57, "velocity": 108, "duration": 161}, {"note": 0, "velocity": 0, "duration": 79}, {"note": 64, "velocity": 102, "duration": 164}, {"note": 0, "velocity": 0, "duration": 76}, {"note": 62, "velocity": 102, "duration": 515}, {"note": 0, "velocity": 0, "duration": 205}, {"note": 60, "velocity": 92, "duration": 69}, {"note": 62, "velocity": 102, "duration": 60}, {"note": 64, "velocity": 108, "duration": 262}, {"note": 0, "velocity": 0, "duration": 98}, {"note": 62, "velocity": 105, "duration": 64}, {"note": 60, "velocity": 108, "duration": 168}, {"note": 0, "velocity": 0, "duration": 72}, {"note": 67, "velocity": 102, "duration": 112}, {"note": 0, "velocity": 0, "duration": 128}, {"note": 64, "velocity": 102, "duration": 516}, {"note": 0, "velocity": 0, "duration": 204}, {"note": 64, "velocity": 102, "duration": 58}, {"note": 0, "velocity": 0, "duration": 62}, {"note": 67, "velocity": 102, "duration": 58}, {"note": 0, "velocity": 0, "duration": 62}, {"note": 69, "velocity": 111, "duration": 162}, {"note": 0, "velocity": 0, "duration": 78}, {"note": 69, "velocity": 111, "duration": 72}, {"note": 67, "velocity": 102, "duration": 41}, {"note": 0, "velocity": 0, "duration": 79}, {"note": 64, "velocity": 105, "duration": 121}, {"note": 0, "velocity": 0, "duration": 119}, {"note": 60, "velocity": 105, "duration": 60}, {"note": 64, "velocity": 100, "duration": 50}, {"note": 0, "velocity": 0, "duration": 70}, {"note": 62, "velocity": 114, "duration": 178}, {"note": 0, "velocity": 0, "duration": 62}, {"note": 62, "velocity": 114, "duration": 238}, {"note": 0, "velocity": 0, "duration": 242}, {"note": 60, "velocity": 102, "duration": 61}, {"note": 62, "velocity": 105, "duration": 64}, {"note": 60, "velocity": 114, "duration": 218}, {"note": 57, "velocity": 102, "duration": 1256}, {"note": 0, "velocity": 0, "duration": 184}, {"note": 64, "velocity": 108, "duration": 147}, {"note": 0, "velocity": 0, "duration": 93}, {"note": 69, "velocity": 108, "duration": 267}, {"note": 0, "velocity": 0, "duration": 93}, {"note": 69, "velocity": 97, "duration": 63}, {"note": 69, "velocity": 111, "duration": 158}, {"note": 0, "velocity": 0, "duration": 82}, {"note": 69, "velocity": 100, "duration": 79}, {"note": 67, "velocity": 111, "duration": 49}, {"note": 0, "velocity": 0, "duration": 71}, {"note": 67, "velocity": 108, "duration": 166}, {"note": 0, "velocity": 0, "duration": 74}, {"note": 62, "velocity": 102, "duration": 295}, {"note": 0, "velocity": 0, "duration": 65}, {"note": 62, "velocity": 94, "duration": 50}, {"note": 0, "velocity": 0, "duration": 70}, {"note": 60, "velocity": 100, "duration": 57}, {"note": 0, "velocity": 0, "duration": 63}, {"note": 62, "velocity": 105, "duration": 49}, {"note": 0, "velocity": 0, "duration": 71}, {"note": 64, "velocity": 105, "duration": 289}, {"note": 0, "velocity": 0, "duration": 71}, {"note": 67, "velocity": 102, "duration": 57}, {"note": 0, "velocity": 0, "duration": 63}, {"note": 64, "velocity": 94, "duration": 132}, {"note": 0, "velocity": 0, "duration": 108}, {"note": 62, "velocity": 100, "duration": 118}, {"note": 64, "velocity": 114, "duration": 118}, {"note": 57, "velocity": 82, "duration": 447}, {"note": 0, "velocity": 0, "duration": 273}, {"note": 57, "velocity": 105, "duration": 81}, {"note": 60, "velocity": 94, "duration": 57}, {"note": 0, "velocity": 0, "duration": 63}, {"note": 62, "velocity": 105, "duration": 91}, {"note": 0, "velocity": 0, "duration": 149}, {"note": 62, "velocity": 102, "duration": 84}, {"note": 0, "velocity": 0, "duration": 156}, {"note": 62, "velocity": 94, "duration": 71}, {"note": 60, "velocity": 89, "duration": 170}, {"note": 0, "velocity": 0, "duration": 70}, {"note": 57, "velocity": 97, "duration": 83}, {"note": 62, "velocity": 100, "duration": 197}, {"note": 64, "velocity": 94, "duration": 90}, {"note": 62, "velocity": 100, "duration": 238}, {"note": 0, "velocity": 0, "duration": 122}, {"note": 57, "velocity": 94, "duration": 69}, {"note": 60, "velocity": 78, "duration": 58}, {"note": 0, "velocity": 0, "duration": 62}, {"note": 62, "velocity": 105, "duration": 57}, {"note": 0, "velocity": 0, "duration": 63}, {"note": 62, "velocity": 92, "duration": 53}, {"note": 0, "velocity": 0, "duration": 67}, {"note": 62, "velocity": 100, "duration": 50}, {"note": 0, "velocity": 0, "duration": 70}, {"note": 62, "velocity": 97, "duration": 57}, {"note": 0, "velocity": 0, "duration": 63}, {"note": 67, "velocity": 105, "duration": 177}, {"note": 0, "velocity": 0, "duration": 63}, {"note": 69, "velocity": 108, "duration": 60}, {"note": 64, "velocity": 105, "duration": 686}, {"note": 0, "velocity": 0, "duration": 154}, {"note": 64, "velocity": 108, "duration": 118}, {"note": 64, "velocity": 108, "duration": 118}, {"note": 69, "velocity": 108, "duration": 267}, {"note": 0, "velocity": 0, "duration": 93}, {"note": 69, "velocity": 97, "duration": 63}, {"note": 69, "velocity": 111, "duration": 158}, {"note": 0, "velocity": 0, "duration": 82}, {"note": 69, "velocity": 100, "duration": 79}, {"note": 67, "velocity": 111, "duration": 49}, {"note": 0, "velocity": 0, "duration": 71}, {"note": 67, "velocity": 108, "duration": 166}, {"note": 0, "velocity": 0, "duration": 74}, {"note": 62, "velocity": 102, "duration": 295}, {"note": 0, "velocity": 0, "duration": 65}, {"note": 62, "velocity": 94, "duration": 50}, {"note": 0, "velocity": 0, "duration": 70}, {"note": 60, "velocity": 100, "duration": 57}, {"note": 0, "velocity": 0, "duration": 63}, {"note": 62, "velocity": 105, "duration": 49}, {"note": 0, "velocity": 0, "duration": 71}, {"note": 64, "velocity": 105, "duration": 289}, {"note": 0, "velocity": 0, "duration": 71}, {"note": 67, "velocity": 102, "duration": 57}, {"note": 0, "velocity": 0, "duration": 63}, {"note": 64, "velocity": 94, "duration": 132}, {"note": 0, "velocity": 0, "duration": 108}, {"note": 62, "velocity": 100, "duration": 118}, {"note": 64, "velocity": 114, "duration": 118}, {"note": 57, "velocity": 82, "duration": 447}, {"note": 0, "velocity": 0, "duration": 273}, {"note": 57, "velocity": 105, "duration": 81}, {"note": 60, "velocity": 94, "duration": 57}, {"note": 0, "velocity": 0, "duration": 63}, {"note": 62, "velocity": 105, "duration": 91}, {"note": 0, "velocity": 0, "duration": 149}, {"note": 62, "velocity": 102, "duration": 84}, {"note": 62, "velocity": 114, "duration": 118}, {"note": 62, "velocity": 94, "duration": 238}, {"note": 60, "velocity": 89, "duration": 170}, {"note": 0, "velocity": 0, "duration": 70}, {"note": 62, "velocity": 100, "duration": 118}, {"note": 62, "velocity": 114, "duration": 118}, {"note": 0, "velocity": 0, "duration": 122}, {"note": 64, "velocity": 94, "duration": 90}, {"note": 62, "velocity": 100, "duration": 238}, {"note": 60, "velocity": 102, "duration": 66}, {"note": 62, "velocity": 100, "duration": 58}, {"note": 0, "velocity": 0, "duration": 62}, {"note": 67, "velocity": 105, "duration": 140}, {"note": 0, "velocity": 0, "duration": 100}, {"note": 64, "velocity": 92, "duration": 605}, {"note": 0, "velocity": 0, "duration": 115}, {"note": 64, "velocity": 105, "duration": 177}, {"note": 0, "velocity": 0, "duration": 63}, {"note": 62, "velocity": 92, "duration": 64}, {"note": 62, "velocity": 102, "duration": 295}, {"note": 0, "velocity": 0, "duration": 65}, {"note": 60, "velocity": 105, "duration": 118}, {"note": 62, "velocity": 105, "duration": 118}, {"note": 57, "velocity": 111, "duration": 1438}, {"note": 0, "velocity": 0, "duration": 242}, {"note": 64, "velocity": 108, "duration": 147}, {"note": 0, "velocity": 0, "duration": 93}, {"note": 69, "velocity": 108, "duration": 267}, {"note": 0, "velocity": 0, "duration": 93}, {"note": 69, "velocity": 97, "duration": 63}, {"note": 69, "velocity": 111, "duration": 158}, {"note": 0, "velocity": 0, "duration": 82}, {"note": 69, "velocity": 100, "duration": 79}, {"note": 67, "velocity": 111, "duration": 49}, {"note": 0, "velocity": 0, "duration": 71}, {"note": 67, "velocity": 108, "duration": 166}, {"note": 0, "velocity": 0, "duration": 74}, {"note": 62, "velocity": 102, "duration": 295}, {"note": 0, "velocity": 0, "duration": 65}, {"note": 62, "velocity": 94, "duration": 50}, {"note": 0, "velocity": 0, "duration": 70}, {"note": 60, "velocity": 100, "duration": 57}, {"note": 0, "velocity": 0, "duration": 63}, {"note": 62, "velocity": 105, "duration": 49}, {"note": 0, "velocity": 0, "duration": 71}, {"note": 64, "velocity": 105, "duration": 289}, {"note": 0, "velocity": 0, "duration": 71}, {"note": 67, "velocity": 102, "duration": 57}, {"note": 0, "velocity": 0, "duration": 63}, {"note": 64, "velocity": 94, "duration": 132}, {"note": 0, "velocity": 0, "duration": 108}, {"note": 62, "velocity": 100, "duration": 118}, {"note": 64, "velocity": 114, "duration": 118}, {"note": 57, "velocity": 82, "duration": 447}, {"note": 0, "velocity": 0, "duration": 273}, {"note": 57, "velocity": 105, "duration": 81}, {"note": 60, "velocity": 94, "duration": 57}, {"note": 0, "velocity": 0, "duration": 63}, {"note": 62, "velocity": 105, "duration": 91}, {"note": 0, "velocity": 0, "duration": 149}, {"note": 62, "velocity": 102, "duration": 84}, {"note": 0, "velocity": 0, "duration": 156}, {"note": 62, "velocity": 94, "duration": 71}, {"note": 60, "velocity": 89, "duration": 170}, {"note": 0, "velocity": 0, "duration": 70}, {"note": 57, "velocity": 97, "duration": 83}, {"note": 62, "velocity": 100, "duration": 197}, {"note": 64, "velocity": 94, "duration": 90}, {"note": 62, "velocity": 100, "duration": 238}, {"note": 0, "velocity": 0, "duration": 122}, {"note": 57, "velocity": 94, "duration": 69}, {"note": 60, "velocity": 78, "duration": 58}, {"note": 0, "velocity": 0, "duration": 62}, {"note": 62, "velocity": 105, "duration": 57}, {"note": 0, "velocity": 0, "duration": 63}, {"note": 62, "velocity": 92, "duration": 53}, {"note": 0, "velocity": 0, "duration": 67}, {"note": 62, "velocity": 100, "duration": 50}, {"note": 0, "velocity": 0, "duration": 70}, {"note": 62, "velocity": 97, "duration": 57}, {"note": 0, "velocity": 0, "duration": 63}, {"note": 67, "velocity": 105, "duration": 177}, {"note": 0, "velocity": 0, "duration": 63}, {"note": 69, "velocity": 108, "duration": 60}, {"note": 64, "velocity": 105, "duration": 686}, {"note": 0, "velocity": 0, "duration": 154}, {"note": 64, "velocity": 108, "duration": 118}, {"note": 64, "velocity": 108, "duration": 118}, {"note": 69, "velocity": 108, "duration": 267}, {"note": 0, "velocity": 0, "duration": 93}, {"note": 69, "velocity": 97, "duration": 63}, {"note": 69, "velocity": 111, "duration": 158}, {"note": 0, "velocity": 0, "duration": 82}, {"note": 69, "velocity": 100, "duration": 79}, {"note": 67, "velocity": 111, "duration": 49}, {"note": 0, "velocity": 0, "duration": 71}, {"note": 67, "velocity": 108, "duration": 166}, {"note": 0, "velocity": 0, "duration": 74}, {"note": 62, "velocity": 102, "duration": 295}, {"note": 0, "velocity": 0, "duration": 65}, {"note": 62, "velocity": 94, "duration": 50}, {"note": 0, "velocity": 0, "duration": 70}, {"note": 60, "velocity": 100, "duration": 57}, {"note": 0, "velocity": 0, "duration": 63}, {"note": 62, "velocity": 105, "duration": 49}, {"note": 0, "velocity": 0, "duration": 71}, {"note": 64, "velocity": 105, "duration": 289}, {"note": 0, "velocity": 0, "duration": 71}, {"note": 67, "velocity": 102, "duration": 57}, {"note": 0, "velocity": 0, "duration": 63}, {"note": 64, "velocity": 94, "duration": 132}, {"note": 0, "velocity": 0, "duration": 108}, {"note": 62, "velocity": 100, "duration": 118}, {"note": 64, "velocity": 114, "duration": 118}, {"note": 57, "velocity": 82, "duration": 447}, {"note": 0, "velocity": 0, "duration": 273}, {"note": 57, "velocity": 105, "duration": 81}, {"note": 60, "velocity": 94, "duration": 57}, {"note": 0, "velocity": 0, "duration": 63}, {"note": 62, "velocity": 105, "duration": 91}, {"note": 0, "velocity": 0, "duration": 149}, {"note": 62, "velocity": 102, "duration": 84}, {"note": 62, "velocity": 114, "duration": 118}, {"note": 62, "velocity": 94, "duration": 238}, {"note": 60, "velocity": 89, "duration": 170}, {"note": 0, "velocity": 0, "duration": 70}, {"note": 62, "velocity": 100, "duration": 118}, {"note": 62, "velocity": 114, "duration": 118}, {"note": 0, "velocity": 0, "duration": 122}, {"note": 64, "velocity": 94, "duration": 90}, {"note": 62, "velocity": 100, "duration": 238}, {"note": 60, "velocity": 102, "duration": 66}, {"note": 62, "velocity": 100, "duration": 58}, {"note": 0, "velocity": 0, "duration": 62}, {"note": 67, "velocity": 105, "duration": 140}, {"note": 0, "velocity": 0, "duration": 100}, {"note": 64, "velocity": 92, "duration": 605}, {"note": 0, "velocity": 0, "duration": 115}, {"note": 64, "velocity": 105, "duration": 177}, {"note": 0, "velocity": 0, "duration": 63}, {"note": 62, "velocity": 92, "duration": 64}, {"note": 62, "velocity": 102, "duration": 958}, {"note": 0, "velocity": 0, "duration": 424}, {"note": 60, "velocity": 108, "duration": 166}, {"note": 62, "velocity": 94, "duration": 371}, {"note": 0, "velocity": 0, "duration": 121}, {"note": 60, "velocity": 100, "duration": 134}, {"note": 57, "velocity": 84, "duration": 1316}]]