[[{"note": 70, "velocity": 112, "duration": 89}, {"note": 68, "velocity": 101, "duration": 71}, {"note": 70, "velocity": 109, "duration": 67}, {"note": 73, "velocity": 112, "duration": 62}, {"note": 68, "velocity": 104, "duration": 163}, {"note": 0, "velocity": 0, "duration": 77}, {"note": 70, "velocity": 106, "duration": 171}, {"note": 0, "velocity": 0, "duration": 69}, {"note": 66, "velocity": 106, "duration": 426}, {"note": 66, "velocity": 112, "duration": 177}, {"note": 0, "velocity": 0, "duration": 63}, {"note": 68, "velocity": 112, "duration": 141}, {"note": 0, "velocity": 0, "duration": 99}, {"note": 70, "velocity": 104, "duration": 88}, {"note": 68, "velocity": 106, "duration": 60}, {"note": 70, "velocity": 109, "duration": 74}, {"note": 73, "velocity": 109, "duration": 54}, {"note": 0, "velocity": 0, "duration": 66}, {"note": 68, "velocity": 109, "duration": 165}, {"note": 0, "velocity": 0, "duration": 75}, {"note": 70, "velocity": 109, "duration": 174}, {"note": 0, "velocity": 0, "duration": 66}, {"note": 66, "velocity": 112, "duration": 352}, {"note": 0, "velocity": 0, "duration": 128}, {"note": 68, "velocity": 106, "duration": 136}, {"note": 0, "velocity": 0, "duration": 104}, {"note": 70, "velocity": 112, "duration": 132}, {"note": 0, "velocity": 0, "duration": 108}, {"note": 71, "velocity": 101, "duration": 64}, {"note": 70, "velocity": 115, "duration": 55}, {"note": 0, "velocity": 0, "duration": 65}, {"note": 71, "velocity": 112, "duration": 57}, {"note": 0, "velocity": 0, "duration": 63}, {"note": 75, "velocity": 104, "duration": 65}, {"note": 70, "velocity": 109, "duration": 166}, {"note": 0, "velocity": 0, "duration": 74}, {"note": 71, "velocity": 106, "duration": 137}, {"note": 0, "velocity": 0, "duration": 103}, {"note": 68, "velocity": 109, "duration": 350}, {"note": 0, "velocity": 0, "duration": 130}, {"note": 63, "velocity": 115, "duration": 175}, {"note": 0, "velocity": 0, "duration": 65}, {"note": 66, "velocity": 115, "duration": 145}, {"note": 0, "velocity": 0, "duration": 95}, {"note": 70, "velocity": 109, "duration": 163}, {"note": 0, "velocity": 0, "duration": 77}, {"note": 68, "velocity": 109, "duration": 146}, {"note": 0, "velocity": 0, "duration": 94}, {"note": 68, "velocity": 112, "duration": 165}, {"note": 0, "velocity": 0, "duration": 75}, {"note": 66, "velocity": 106, "duration": 165}, {"note": 0, "velocity": 0, "duration": 75}, {"note": 68, "velocity": 109, "duration": 769}, {"note": 0, "velocity": 0, "duration": 191}, {"note": 70, "velocity": 112, "duration": 89}, {"note": 68, "velocity": 101, "duration": 71}, {"note": 70, "velocity": 109, "duration": 67}, {"note": 73, "velocity": 112, "duration": 62}, {"note": 68, "velocity": 104, "duration": 163}, {"note": 0, "velocity": 0, "duration": 77}, {"note": 70, "velocity": 106, "duration": 171}, {"note": 0, "velocity": 0, "duration": 69}, {"note": 66, "velocity": 106, "duration": 426}, {"note": 66, "velocity": 112, "duration": 177}, {"note": 0, "velocity": 0, "duration": 63}, {"note": 68, "velocity": 112, "duration": 141}, {"note": 0, "velocity": 0, "duration": 99}, {"note": 70, "velocity": 104, "duration": 88}, {"note": 68, "velocity": 106, "duration": 60}, {"note": 70, "velocity": 109, "duration": 74}, {"note": 73, "velocity": 109, "duration": 54}, {"note": 0, "velocity": 0, "duration": 66}, {"note": 68, "velocity": 109, "duration": 165}, {"note": 0, "velocity": 0, "duration": 75}, {"note": 70, "velocity": 109, "duration": 174}, {"note": 0, "velocity": 0, "duration": 66}, {"note": 66, "velocity": 112, "duration": 352}, {"note": 0, "velocity": 0, "duration": 128}, {"note": 68, "velocity": 106, "duration": 136}, {"note": 0, "velocity": 0, "duration": 104}, {"note": 70, "velocity": 112, "duration": 132}, {"note": 0, "velocity": 0, "duration": 108}, {"note": 71, "velocity": 101, "duration": 64}, {"note": 70, "velocity": 115, "duration": 55}, {"note": 0, "velocity": 0, "duration": 65}, {"note": 71, "velocity": 112, "duration": 57}, {"note": 0, "velocity": 0, "duration": 63}, {"note": 75, "velocity": 104, "duration": 65}, {"note": 70, "velocity": 109, "duration": 166}, {"note": 0, "velocity": 0, "duration": 74}, {"note": 71, "velocity": 106, "duration": 137}, {"note": 0, "velocity": 0, "duration": 103}, {"note": 68, "velocity": 109, "duration": 350}, {"note": 0, "velocity": 0, "duration": 130}, {"note": 63, "velocity": 115, "duration": 175}, {"note": 0, "velocity": 0, "duration": 65}, {"note": 66, "velocity": 115, "duration": 145}, {"note": 0, "velocity": 0, "duration": 95}, {"note": 70, "velocity": 109, "duration": 163}, {"note": 0, "velocity": 0, "duration": 77}, {"note": 68, "velocity": 109, "duration": 146}, {"note": 0, "velocity": 0, "duration": 94}, {"note": 68, "velocity": 112, "duration": 165}, {"note": 0, "velocity": 0, "duration": 75}, {"note": 66, "velocity": 106, "duration": 165}, {"note": 0, "velocity": 0, "duration": 75}, {"note": 68, "velocity": 109, "duration": 598}, {"note": 0, "velocity": 0, "duration": 122}, {"note": 66, "velocity": 109, "duration": 79}, {"note": 68, "velocity": 104, "duration": 59}, {"note": 0, "velocity": 0, "duration": 61}, {"note": 70, "velocity": 112, "duration": 164}, {"note": 0, "velocity": 0, "duration": 76}, {"note": 68, "velocity": 112, "duration": 127}, {"note": 0, "velocity": 0, "duration": 113}, {"note": 70, "velocity": 109, "duration": 152}, {"note": 0, "velocity": 0, "duration": 88}, {"note": 75, "velocity": 101, "duration": 134}, {"note": 0, "velocity": 0, "duration": 106}, {"note": 73, "velocity": 109, "duration": 506}, {"note": 0, "velocity": 0, "duration": 214}, {"note": 63, "velocity": 109, "duration": 72}, {"note": 65, "velocity": 117, "duration": 56}, {"note": 0, "velocity": 0, "duration": 64}, {"note": 66, "velocity": 101, "duration": 160}, {"note": 0, "velocity": 0, "duration": 80}, {"note": 63, "velocity": 117, "duration": 158}, {"note": 0, "velocity": 0, "duration": 82}, {"note": 66, "velocity": 106, "duration": 167}, {"note": 0, "velocity": 0, "duration": 73}, {"note": 71, "velocity": 104, "duration": 138}, {"note": 0, "velocity": 0, "duration": 102}, {"note": 70, "velocity": 109, "duration": 445}, {"note": 0, "velocity": 0, "duration": 275}, {"note": 68, "velocity": 106, "duration": 81}, {"note": 70, "velocity": 106, "duration": 68}, {"note": 68, "velocity": 109, "duration": 165}, {"note": 0, "velocity": 0, "duration": 75}, {"note": 68, "velocity": 109, "duration": 67}, {"note": 66, "velocity": 104, "duration": 69}, {"note": 68, "velocity": 115, "duration": 177}, {"note": 0, "velocity": 0, "duration": 63}, {"note": 66, "velocity": 106, "duration": 69}, {"note": 68, "velocity": 112, "duration": 67}, {"note": 70, "velocity": 106, "duration": 175}, {"note": 0, "velocity": 0, "duration": 65}, {"note": 73, "velocity": 104, "duration": 130}, {"note": 0, "velocity": 0, "duration": 110}, {"note": 70, "velocity": 109, "duration": 169}, {"note": 0, "velocity": 0, "duration": 71}, {"note": 68, "velocity": 112, "duration": 57}, {"note": 0, "velocity": 0, "duration": 63}, {"note": 70, "velocity": 104, "duration": 54}, {"note": 0, "velocity": 0, "duration": 66}, {"note": 68, "velocity": 112, "duration": 149}, {"note": 0, "velocity": 0, "duration": 91}, {"note": 66, "velocity": 106, "duration": 76}, {"note": 70, "velocity": 104, "duration": 62}, {"note": 68, "velocity": 112, "duration": 150}, {"note": 0, "velocity": 0, "duration": 90}, {"note": 68, "velocity": 112, "duration": 156}, {"note": 0, "velocity": 0, "duration": 84}, {"note": 66, "velocity": 109, "duration": 1206}, {"note": 0, "velocity": 0, "duration": 474}, {"note": 70, "velocity": 109, "duration": 78}, {"note": 73, "velocity": 106, "duration": 57}, {"note": 0, "velocity": 0, "duration": 63}, {"note": 75, "velocity": 106, "duration": 162}, {"note": 0, "velocity": 0, "duration": 78}, {"note": 78, "velocity": 109, "duration": 151}, {"note": 0, "velocity": 0, "duration": 89}, {"note": 75, "velocity": 109, "duration": 153}, {"note": 0, "velocity": 0, "duration": 87}, {"note": 73, "velocity": 112, "duration": 145}, {"note": 0, "velocity": 0, "duration": 95}, {"note": 70, "velocity": 112, "duration": 542}, {"note": 0, "velocity": 0, "duration": 178}, {"note": 70, "velocity": 112, "duration": 73}, {"note": 73, "velocity": 112, "duration": 60}, {"note": 68, "velocity": 109, "duration": 61}, {"note": 68, "velocity": 109, "duration": 141}, {"note": 0, "velocity": 0, "duration": 99}, {"note": 70, "velocity": 109, "duration": 69}, {"note": 68, "velocity": 112, "duration": 142}, {"note": 0, "velocity": 0, "duration": 98}, {"note": 66, "velocity": 106, "duration": 66}, {"note": 68, "velocity": 106, "duration": 57}, {"note": 0, "velocity": 0, "duration": 63}, {"note": 70, "velocity": 104, "duration": 505}, {"note": 0, "velocity": 0, "duration": 215}, {"note": 68, "velocity": 115, "duration": 54}, {"note": 0, "velocity": 0, "duration": 66}, {"note": 70, "velocity": 106, "duration": 57}, {"note": 0, "velocity": 0, "duration": 63}, {"note": 68, "velocity": 115, "duration": 173}, {"note": 0, "velocity": 0, "duration": 67}, {"note": 70, "velocity": 101, "duration": 132}, {"note": 0, "velocity": 0, "duration": 108}, {"note": 68, "velocity": 115, "duration": 142}, {"note": 0, "velocity": 0, "duration": 98}, {"note": 66, "velocity": 106, "duration": 62}, {"note": 68, "velocity": 112, "duration": 59}, {"note": 0, "velocity": 0, "duration": 61}, {"note": 70, "velocity": 109, "duration": 166}, {"note": 0, "velocity": 0, "duration": 74}, {"note": 73, "velocity": 106, "duration": 141}, {"note": 0, "velocity": 0, "duration": 99}, {"note": 70, "velocity": 109, "duration": 171}, {"note": 0, "velocity": 0, "duration": 69}, {"note": 70, "velocity": 106, "duration": 83}, {"note": 73, "velocity": 109, "duration": 66}, {"note": 75, "velocity": 109, "duration": 138}, {"note": 0, "velocity": 0, "duration": 102}, {"note": 78, "velocity": 109, "duration": 160}, {"note": 0, "velocity": 0, "duration": 80}, {"note": 75, "velocity": 104, "duration": 150}, {"note": 0, "velocity": 0, "duration": 90}, {"note": 70, "velocity": 101, "duration": 177}, {"note": 0, "velocity": 0, "duration": 63}, {"note": 73, "velocity": 112, "duration": 642}, {"note": 0, "velocity": 0, "duration": 78}, {"note": 70, "velocity": 109, "duration": 78}, {"note": 73, "velocity": 106, "duration": 57}, {"note": 0, "velocity": 0, "duration": 63}, {"note": 75, "velocity": 106, "duration": 162}, {"note": 0, "velocity": 0, "duration": 78}, {"note": 78, "velocity": 109, "duration": 151}, {"note": 0, "velocity": 0, "duration": 89}, {"note": 75, "velocity": 109, "duration": 153}, {"note": 0, "velocity": 0, "duration": 87}, {"note": 73, "velocity": 112, "duration": 145}, {"note": 0, "velocity": 0, "duration": 95}, {"note": 70, "velocity": 112, "duration": 542}, {"note": 0, "velocity": 0, "duration": 178}, {"note": 70, "velocity": 112, "duration": 73}, {"note": 73, "velocity": 112, "duration": 60}, {"note": 68, "velocity": 109, "duration": 61}, {"note": 68, "velocity": 109, "duration": 141}, {"note": 0, "velocity": 0, "duration": 99}, {"note": 70, "velocity": 109, "duration": 69}, {"note": 68, "velocity": 112, "duration": 142}, {"note": 0, "velocity": 0, "duration": 98}, {"note": 66, "velocity": 106, "duration": 66}, {"note": 68, "velocity": 106, "duration": 57}, {"note": 0, "velocity": 0, "duration": 63}, {"note": 70, "velocity": 104, "duration": 505}, {"note": 0, "velocity": 0, "duration": 215}, {"note": 68, "velocity": 115, "duration": 54}, {"note": 0, "velocity": 0, "duration": 66}, {"note": 70, "velocity": 106, "duration": 57}, {"note": 0, "velocity": 0, "duration": 63}, {"note": 68, "velocity": 115, "duration": 173}, {"note": 0, "velocity": 0, "duration": 67}, {"note": 70, "velocity": 101, "duration": 132}, {"note": 0, "velocity": 0, "duration": 108}, {"note": 68, "velocity": 115, "duration": 142}, {"note": 0, "velocity": 0, "duration": 98}, {"note": 66, "velocity": 106, "duration": 62}, {"note": 68, "velocity": 112, "duration": 59}, {"note": 0, "velocity": 0, "duration": 61}, {"note": 70, "velocity": 109, "duration": 166}, {"note": 0, "velocity": 0, "duration": 74}, {"note": 73, "velocity": 106, "duration": 141}, {"note": 0, "velocity": 0, "duration": 99}, {"note": 70, "velocity": 109, "duration": 171}, {"note": 0, "velocity": 0, "duration": 69}, {"note": 70, "velocity": 106, "duration": 83}, {"note": 73, "velocity": 109, "duration": 66}, {"note": 75, "velocity": 109, "duration": 138}, {"note": 0, "velocity": 0, "duration": 102}, {"note": 78, "velocity": 109, "duration": 160}, {"note": 0, "velocity": 0, "duration": 80}, {"note": 75, "velocity": 104, "duration": 150}, {"note": 0, "velocity": 0, "duration": 90}, {"note": 70, "velocity": 101, "duration": 177}, {"note": 0, "velocity": 0, "duration": 63}, {"note": 73, "velocity": 112, "duration": 642}, {"note": 0, "velocity": 0, "duration": 798}, {"note": 70, "velocity": 109, "duration": 88}, {"note": 73, "velocity": 112, "duration": 59}, {"note": 0, "velocity": 0, "duration": 61}, {"note": 75, "velocity": 106, "duration": 62}, {"note": 78, "velocity": 115, "duration": 67}, {"note": 78, "velocity": 109, "duration": 135}, {"note": 0, "velocity": 0, "duration": 105}, {"note": 73, "velocity": 78, "duration": 112}, {"note": 0, "velocity": 0, "duration": 128}, {"note": 70, "velocity": 101, "duration": 59}, {"note": 0, "velocity": 0, "duration": 61}, {"note": 73, "velocity": 115, "duration": 59}, {"note": 0, "velocity": 0, "duration": 61}, {"note": 75, "velocity": 94, "duration": 63}, {"note": 78, "velocity": 109, "duration": 67}, {"note": 78, "velocity": 112, "duration": 141}, {"note": 0, "velocity": 0, "duration": 99}, {"note": 75, "velocity": 106, "duration": 217}, {"note": 0, "velocity": 0, "duration": 263}, {"note": 70, "velocity": 115, "duration": 61}, {"note": 68, "velocity": 109, "duration": 71}, {"note": 70, "velocity": 115, "duration": 59}, {"note": 0, "velocity": 0, "duration": 61}, {"note": 73, "velocity": 112, "duration": 96}, {"note": 0, "velocity": 0, "duration": 144}, {"note": 73, "velocity": 112, "duration": 56}, {"note": 0, "velocity": 0, "duration": 64}, {"note": 73, "velocity": 109, "duration": 124}, {"note": 0, "velocity": 0, "duration": 116}, {"note": 70, "velocity": 109, "duration": 153}, {"note": 0, "velocity": 0, "duration": 87}, {"note": 75, "velocity": 104, "duration": 375}, {"note": 0, "velocity": 0, "duration": 105}, {"note": 70, "velocity": 109, "duration": 88}, {"note": 73, "velocity": 112, "duration": 59}, {"note": 0, "velocity": 0, "duration": 61}, {"note": 75, "velocity": 106, "duration": 62}, {"note": 78, "velocity": 115, "duration": 67}, {"note": 78, "velocity": 109, "duration": 135}, {"note": 0, "velocity": 0, "duration": 105}, {"note": 73, "velocity": 78, "duration": 112}, {"note": 0, "velocity": 0, "duration": 128}, {"note": 70, "velocity": 101, "duration": 59}, {"note": 0, "velocity": 0, "duration": 61}, {"note": 73, "velocity": 115, "duration": 59}, {"note": 0, "velocity": 0, "duration": 61}, {"note": 75, "velocity": 94, "duration": 63}, {"note": 78, "velocity": 109, "duration": 67}, {"note": 78, "velocity": 112, "duration": 141}, {"note": 0, "velocity": 0, "duration": 99}, {"note": 75, "velocity": 106, "duration": 217}, {"note": 0, "velocity": 0, "duration": 263}, {"note": 70, "velocity": 115, "duration": 61}, {"note": 68, "velocity": 109, "duration": 71}, {"note": 70, "velocity": 115, "duration": 59}, {"note": 0, "velocity": 0, "duration": 61}, {"note": 73, "velocity": 112, "duration": 96}, {"note": 0, "velocity": 0, "duration": 144}, {"note": 73, "velocity": 112, "duration": 56}, {"note": 0, "velocity": 0, "duration": 64}, {"note": 73, "velocity": 109, "duration": 124}, {"note": 0, "velocity": 0, "duration": 116}, {"note": 70, "velocity": 109, "duration": 153}, {"note": 0, "velocity": 0, "duration": 87}, {"note": 75, "velocity": 104, "duration": 375}, {"note": 0, "velocity": 0, "duration": 345}, {"note": 70, "velocity": 109, "duration": 95}, {"note": 73, "velocity": 112, "duration": 63}, {"note": 75, "velocity": 109, "duration": 145}, {"note": 0, "velocity": 0, "duration": 95}, {"note": 78, "velocity": 106, "duration": 123}, {"note": 0, "velocity": 0, "duration": 117}, {"note": 80, "velocity": 115, "duration": 187}, {"note": 78, "velocity": 106, "duration": 120}, {"note": 0, "velocity": 0, "duration": 120}, {"note": 77, "velocity": 107, "duration": 356}, {"note": 0, "velocity": 0, "duration": 124}, {"note": 75, "velocity": 115, "duration": 168}, {"note": 0, "velocity": 0, "duration": 72}, {"note": 73, "velocity": 109, "duration": 181}, {"note": 75, "velocity": 106, "duration": 1534}, {"note": 0, "velocity": 0, "duration": 8066}, {"note": 70, "velocity": 112, "duration": 89}, {"note": 68, "velocity": 101, "duration": 71}, {"note": 70, "velocity": 109, "duration": 67}, {"note": 73, "velocity": 112, "duration": 62}, {"note": 68, "velocity": 104, "duration": 163}, {"note": 0, "velocity": 0, "duration": 77}, {"note": 70, "velocity": 106, "duration": 171}, {"note": 0, "velocity": 0, "duration": 69}, {"note": 66, "velocity": 106, "duration": 426}, {"note": 66, "velocity": 112, "duration": 177}, {"note": 0, "velocity": 0, "duration": 63}, {"note": 68, "velocity": 112, "duration": 141}, {"note": 0, "velocity": 0, "duration": 99}, {"note": 70, "velocity": 104, "duration": 88}, {"note": 68, "velocity": 106, "duration": 60}, {"note": 70, "velocity": 109, "duration": 74}, {"note": 73, "velocity": 109, "duration": 54}, {"note": 0, "velocity": 0, "duration": 66}, {"note": 68, "velocity": 109, "duration": 165}, {"note": 0, "velocity": 0, "duration": 75}, {"note": 70, "velocity": 109, "duration": 174}, {"note": 0, "velocity": 0, "duration": 66}, {"note": 66, "velocity": 112, "duration": 352}, {"note": 0, "velocity": 0, "duration": 128}, {"note": 68, "velocity": 106, "duration": 136}, {"note": 0, "velocity": 0, "duration": 104}, {"note": 70, "velocity": 112, "duration": 132}, {"note": 0, "velocity": 0, "duration": 108}, {"note": 71, "velocity": 101, "duration": 64}, {"note": 70, "velocity": 115, "duration": 55}, {"note": 0, "velocity": 0, "duration": 65}, {"note": 71, "velocity": 112, "duration": 57}, {"note": 0, "velocity": 0, "duration": 63}, {"note": 75, "velocity": 104, "duration": 65}, {"note": 70, "velocity": 109, "duration": 166}, {"note": 0, "velocity": 0, "duration": 74}, {"note": 71, "velocity": 106, "duration": 137}, {"note": 0, "velocity": 0, "duration": 103}, {"note": 68, "velocity": 109, "duration": 350}, {"note": 0, "velocity": 0, "duration": 130}, {"note": 63, "velocity": 115, "duration": 175}, {"note": 0, "velocity": 0, "duration": 65}, {"note": 66, "velocity": 115, "duration": 145}, {"note": 0, "velocity": 0, "duration": 95}, {"note": 70, "velocity": 109, "duration": 163}, {"note": 0, "velocity": 0, "duration": 77}, {"note": 68, "velocity": 109, "duration": 146}, {"note": 0, "velocity": 0, "duration": 94}, {"note": 68, "velocity": 112, "duration": 165}, {"note": 0, "velocity": 0, "duration": 75}, {"note": 66, "velocity": 106, "duration": 165}, {"note": 0, "velocity": 0, "duration": 75}, {"note": 68, "velocity": 109, "duration": 598}, {"note": 0, "velocity": 0, "duration": 122}, {"note": 66, "velocity": 109, "duration": 79}, {"note": 68, "velocity": 104, "duration": 59}, {"note": 0, "velocity": 0, "duration": 61}, {"note": 70, "velocity": 112, "duration": 164}, {"note": 0, "velocity": 0, "duration": 76}, {"note": 68, "velocity": 112, "duration": 127}, {"note": 0, "velocity": 0, "duration": 113}, {"note": 70, "velocity": 109, "duration": 152}, {"note": 0, "velocity": 0, "duration": 88}, {"note": 75, "velocity": 101, "duration": 134}, {"note": 0, "velocity": 0, "duration": 106}, {"note": 73, "velocity": 109, "duration": 506}, {"note": 0, "velocity": 0, "duration": 214}, {"note": 63, "velocity": 109, "duration": 72}, {"note": 65, "velocity": 117, "duration": 56}, {"note": 0, "velocity": 0, "duration": 64}, {"note": 66, "velocity": 101, "duration": 160}, {"note": 0, "velocity": 0, "duration": 80}, {"note": 63, "velocity": 117, "duration": 158}, {"note": 0, "velocity": 0, "duration": 82}, {"note": 66, "velocity": 106, "duration": 167}, {"note": 0, "velocity": 0, "duration": 73}, {"note": 71, "velocity": 104, "duration": 138}, {"note": 0, "velocity": 0, "duration": 102}, {"note": 70, "velocity": 109, "duration": 445}, {"note": 0, "velocity": 0, "duration": 275}, {"note": 68, "velocity": 106, "duration": 81}, {"note": 70, "velocity": 106, "duration": 68}, {"note": 68, "velocity": 109, "duration": 165}, {"note": 0, "velocity": 0, "duration": 75}, {"note": 68, "velocity": 109, "duration": 67}, {"note": 66, "velocity": 104, "duration": 69}, {"note": 68, "velocity": 115, "duration": 177}, {"note": 0, "velocity": 0, "duration": 63}, {"note": 66, "velocity": 106, "duration": 69}, {"note": 68, "velocity": 112, "duration": 67}, {"note": 70, "velocity": 106, "duration": 175}, {"note": 0, "velocity": 0, "duration": 65}, {"note": 73, "velocity": 104, "duration": 130}, {"note": 0, "velocity": 0, "duration": 110}, {"note": 70, "velocity": 109, "duration": 169}, {"note": 0, "velocity": 0, "duration": 71}, {"note": 68, "velocity": 112, "duration": 57}, {"note": 0, "velocity": 0, "duration": 63}, {"note": 70, "velocity": 104, "duration": 54}, {"note": 0, "velocity": 0, "duration": 66}, {"note": 68, "velocity": 112, "duration": 149}, {"note": 0, "velocity": 0, "duration": 91}, {"note": 66, "velocity": 106, "duration": 76}, {"note": 70, "velocity": 104, "duration": 62}, {"note": 68, "velocity": 112, "duration": 150}, {"note": 0, "velocity": 0, "duration": 90}, {"note": 68, "velocity": 112, "duration": 156}, {"note": 0, "velocity": 0, "duration": 84}, {"note": 66, "velocity": 109, "duration": 1206}, {"note": 0, "velocity": 0, "duration": 474}, {"note": 70, "velocity": 109, "duration": 78}, {"note": 73, "velocity": 106, "duration": 57}, {"note": 0, "velocity": 0, "duration": 63}, {"note": 75, "velocity": 106, "duration": 162}, {"note": 0, "velocity": 0, "duration": 78}, {"note": 78, "velocity": 109, "duration": 151}, {"note": 0, "velocity": 0, "duration": 89}, {"note": 75, "velocity": 109, "duration": 153}, {"note": 0, "velocity": 0, "duration": 87}, {"note": 73, "velocity": 112, "duration": 145}, {"note": 0, "velocity": 0, "duration": 95}, {"note": 70, "velocity": 112, "duration": 542}, {"note": 0, "velocity": 0, "duration": 178}, {"note": 70, "velocity": 112, "duration": 73}, {"note": 73, "velocity": 112, "duration": 60}, {"note": 68, "velocity": 109, "duration": 61}, {"note": 68, "velocity": 109, "duration": 141}, {"note": 0, "velocity": 0, "duration": 99}, {"note": 70, "velocity": 109, "duration": 69}, {"note": 68, "velocity": 112, "duration": 142}, {"note": 0, "velocity": 0, "duration": 98}, {"note": 66, "velocity": 106, "duration": 66}, {"note": 68, "velocity": 106, "duration": 57}, {"note": 0, "velocity": 0, "duration": 63}, {"note": 70, "velocity": 104, "duration": 505}, {"note": 0, "velocity": 0, "duration": 215}, {"note": 68, "velocity": 115, "duration": 54}, {"note": 0, "velocity": 0, "duration": 66}, {"note": 70, "velocity": 106, "duration": 57}, {"note": 0, "velocity": 0, "duration": 63}, {"note": 68, "velocity": 115, "duration": 173}, {"note": 0, "velocity": 0, "duration": 67}, {"note": 70, "velocity": 101, "duration": 132}, {"note": 0, "velocity": 0, "duration": 108}, {"note": 68, "velocity": 115, "duration": 142}, {"note": 0, "velocity": 0, "duration": 98}, {"note": 66, "velocity": 106, "duration": 62}, {"note": 68, "velocity": 112, "duration": 59}, {"note": 0, "velocity": 0, "duration": 61}, {"note": 70, "velocity": 109, "duration": 166}, {"note": 0, "velocity": 0, "duration": 74}, {"note": 73, "velocity": 106, "duration": 141}, {"note": 0, "velocity": 0, "duration": 99}, {"note": 70, "velocity": 109, "duration": 171}, {"note": 0, "velocity": 0, "duration": 69}, {"note": 70, "velocity": 106, "duration": 83}, {"note": 73, "velocity": 109, "duration": 66}, {"note": 75, "velocity": 109, "duration": 138}, {"note": 0, "velocity": 0, "duration": 102}, {"note": 78, "velocity": 109, "duration": 160}, {"note": 0, "velocity": 0, "duration": 80}, {"note": 75, "velocity": 104, "duration": 150}, {"note": 0, "velocity": 0, "duration": 90}, {"note": 70, "velocity": 101, "duration": 177}, {"note": 0, "velocity": 0, "duration": 63}, {"note": 73, "velocity": 112, "duration": 642}, {"note": 0, "velocity": 0, "duration": 798}, {"note": 70, "velocity": 109, "duration": 88}, {"note": 73, "velocity": 112, "duration": 59}, {"note": 0, "velocity": 0, "duration": 61}, {"note": 75, "velocity": 106, "duration": 62}, {"note": 78, "velocity": 115, "duration": 67}, {"note": 78, "velocity": 109, "duration": 135}, {"note": 0, "velocity": 0, "duration": 105}, {"note": 73, "velocity": 78, "duration": 112}, {"note": 0, "velocity": 0, "duration": 128}, {"note": 70, "velocity": 101, "duration": 59}, {"note": 0, "velocity": 0, "duration": 61}, {"note": 73, "velocity": 115, "duration": 59}, {"note": 0, "velocity": 0, "duration": 61}, {"note": 75, "velocity": 94, "duration": 63}, {"note": 78, "velocity": 109, "duration": 67}, {"note": 78, "velocity": 112, "duration": 141}, {"note": 0, "velocity": 0, "duration": 99}, {"note": 75, "velocity": 106, "duration": 217}, {"note": 0, "velocity": 0, "duration": 263}, {"note": 70, "velocity": 115, "duration": 61}, {"note": 68, "velocity": 109, "duration": 71}, {"note": 70, "velocity": 115, "duration": 59}, {"note": 0, "velocity": 0, "duration": 61}, {"note": 73, "velocity": 112, "duration": 96}, {"note": 0, "velocity": 0, "duration": 144}, {"note": 73, "velocity": 112, "duration": 56}, {"note": 0, "velocity": 0, "duration": 64}, {"note": 73, "velocity": 109, "duration": 124}, {"note": 0, "velocity": 0, "duration": 116}, {"note": 70, "velocity": 109, "duration": 153}, {"note": 0, "velocity": 0, "duration": 87}, {"note": 75, "velocity": 104, "duration": 375}, {"note": 0, "velocity": 0, "duration": 105}, {"note": 70, "velocity": 109, "duration": 88}, {"note": 73, "velocity": 112, "duration": 59}, {"note": 0, "velocity": 0, "duration": 61}, {"note": 75, "velocity": 106, "duration": 62}, {"note": 78, "velocity": 115, "duration": 67}, {"note": 78, "velocity": 109, "duration": 135}, {"note": 0, "velocity": 0, "duration": 105}, {"note": 73, "velocity": 78, "duration": 112}, {"note": 0, "velocity": 0, "duration": 128}, {"note": 70, "velocity": 101, "duration": 59}, {"note": 0, "velocity": 0, "duration": 61}, {"note": 73, "velocity": 115, "duration": 59}, {"note": 0, "velocity": 0, "duration": 61}, {"note": 75, "velocity": 94, "duration": 63}, {"note": 78, "velocity": 109, "duration": 67}, {"note": 78, "velocity": 112, "duration": 141}, {"note": 0, "velocity": 0, "duration": 99}, {"note": 75, "velocity": 106, "duration": 217}, {"note": 0, "velocity": 0, "duration": 263}, {"note": 70, "velocity": 115, "duration": 61}, {"note": 68, "velocity": 109, "duration": 71}, {"note": 70, "velocity": 115, "duration": 59}, {"note": 0, "velocity": 0, "duration": 61}, {"note": 73, "velocity": 112, "duration": 96}, {"note": 0, "velocity": 0, "duration": 144}, {"note": 73, "velocity": 112, "duration": 56}, {"note": 0, "velocity": 0, "duration": 64}, {"note": 73, "velocity": 109, "duration": 124}, {"note": 0, "velocity": 0, "duration": 116}, {"note": 70, "velocity": 109, "duration": 153}, {"note": 0, "velocity": 0, "duration": 87}, {"note": 75, "velocity": 104, "duration": 375}, {"note": 0, "velocity": 0, "duration": 345}, {"note": 70, "velocity": 109, "duration": 95}, {"note": 73, "velocity": 112, "duration": 63}, {"note": 75, "velocity": 109, "duration": 145}, {"note": 0, "velocity": 0, "duration": 95}, {"note": 78, "velocity": 106, "duration": 123}, {"note": 0, "velocity": 0, "duration": 117}, {"note": 80, "velocity": 115, "duration": 187}, {"note": 78, "velocity": 106, "duration": 120}, {"note": 0, "velocity": 0, "duration": 120}, {"note": 77, "velocity": 107, "duration": 356}, {"note": 0, "velocity": 0, "duration": 124}, {"note": 75, "velocity": 115, "duration": 168}, {"note": 0, "velocity": 0, "duration": 72}, {"note": 73, "velocity": 109, "duration": 181}, {"note": 75, "velocity": 106, "duration": 1534}, {"note": 0, "velocity": 0, "duration": 15266}, {"note": 70, "velocity": 109, "duration": 88}, {"note": 73, "velocity": 112, "duration": 59}, {"note": 0, "velocity": 0, "duration": 61}, {"note": 75, "velocity": 106, "duration": 62}, {"note": 78, "velocity": 115, "duration": 67}, {"note": 78, "velocity": 109, "duration": 135}, {"note": 0, "velocity": 0, "duration": 105}, {"note": 73, "velocity": 78, "duration": 112}, {"note": 0, "velocity": 0, "duration": 128}, {"note": 70, "velocity": 101, "duration": 59}, {"note": 0, "velocity": 0, "duration": 61}, {"note": 73, "velocity": 115, "duration": 59}, {"note": 0, "velocity": 0, "duration": 61}, {"note": 75, "velocity": 94, "duration": 63}, {"note": 78, "velocity": 109, "duration": 67}, {"note": 78, "velocity": 112, "duration": 141}, {"note": 0, "velocity": 0, "duration": 99}, {"note": 75, "velocity": 106, "duration": 217}, {"note": 0, "velocity": 0, "duration": 263}, {"note": 70, "velocity": 115, "duration": 61}, {"note": 68, "velocity": 109, "duration": 71}, {"note": 70, "velocity": 115, "duration": 59}, {"note": 0, "velocity": 0, "duration": 61}, {"note": 73, "velocity": 112, "duration": 96}, {"note": 0, "velocity": 0, "duration": 144}, {"note": 73, "velocity": 112, "duration": 56}, {"note": 0, "velocity": 0, "duration": 64}, {"note": 73, "velocity": 109, "duration": 124}, {"note": 0, "velocity": 0, "duration": 116}, {"note": 70, "velocity": 109, "duration": 153}, {"note": 0, "velocity": 0, "duration": 87}, {"note": 75, "velocity": 104, "duration": 375}, {"note": 0, "velocity": 0, "duration": 105}, {"note": 70, "velocity": 109, "duration": 88}, {"note": 73, "velocity": 112, "duration": 59}, {"note": 0, "velocity": 0, "duration": 61}, {"note": 75, "velocity": 106, "duration": 62}, {"note": 78, "velocity": 115, "duration": 67}, {"note": 78, "velocity": 109, "duration": 135}, {"note": 0, "velocity": 0, "duration": 105}, {"note": 73, "velocity": 78, "duration": 112}, {"note": 0, "velocity": 0, "duration": 128}, {"note": 70, "velocity": 101, "duration": 59}, {"note": 0, "velocity": 0, "duration": 61}, {"note": 73, "velocity": 115, "duration": 59}, {"note": 0, "velocity": 0, "duration": 61}, {"note": 75, "velocity": 94, "duration": 63}, {"note": 78, "velocity": 109, "duration": 67}, {"note": 78, "velocity": 112, "duration": 141}, {"note": 0, "velocity": 0, "duration": 99}, {"note": 75, "velocity": 106, "duration": 217}, {"note": 0, "velocity": 0, "duration": 263}, {"note": 70, "velocity": 115, "duration": 61}, {"note": 68, "velocity": 109, "duration": 71}, {"note": 70, "velocity": 115, "duration": 59}, {"note": 0, "velocity": 0, "duration": 61}, {"note": 73, "velocity": 112, "duration": 96}, {"note": 0, "velocity": 0, "duration": 144}, {"note": 73, "velocity": 112, "duration": 56}, {"note": 0, "velocity": 0, "duration": 64}, {"note": 73, "velocity": 109, "duration": 124}, {"note": 0, "velocity": 0, "duration": 116}, {"note": 70, "velocity": 109, "duration": 153}, {"note": 0, "velocity": 0, "duration": 87}, {"note": 75, "velocity": 104, "duration": 375}, {"note": 0, "velocity": 0, "duration": 345}, {"note": 70, "velocity": 109, "duration": 95}, {"note": 73, "velocity": 112, "duration": 63}, {"note": 75, "velocity": 109, "duration": 145}, {"note": 0, "velocity": 0, "duration": 95}, {"note": 78, "velocity": 106, "duration": 123}, {"note": 0, "velocity": 0, "duration": 117}, {"note": 80, "velocity": 115, "duration": 187}, {"note": 78, "velocity": 106, "duration": 120}, {"note": 0, "velocity": 0, "duration": 120}, {"note": 77, "velocity": 107, "duration": 356}, {"note": 0, "velocity": 0, "duration": 124}, {"note": 75, "velocity": 115, "duration": 168}, {"note": 0, "velocity": 0, "duration": 72}, {"note": 73, "velocity": 109, "duration": 181}, {"note": 75, "velocity": 106, "duration": 1534}, {"note": 0, "velocity": 0, "duration": 146}, {"note": 70, "velocity": 109, "duration": 95}, {"note": 73, "velocity": 112, "duration": 63}, {"note": 75, "velocity": 109, "duration": 145}, {"note": 0, "velocity": 0, "duration": 95}, {"note": 78, "velocity": 106, "duration": 123}, {"note": 0, "velocity": 0, "duration": 117}, {"note": 80, "velocity": 115, "duration": 187}, {"note": 78, "velocity": 106, "duration": 120}, {"note": 0, "velocity": 0, "duration": 120}, {"note": 77, "velocity": 107, "duration": 356}, {"note": 0, "velocity": 0, "duration": 124}, {"note": 75, "velocity": 115, "duration": 168}, {"note": 0, "velocity": 0, "duration": 72}, {"note": 73, "velocity": 109, "duration": 181}, {"note": 75, "velocity": 106, "duration": 1534}]]