[[{"note": 72, "velocity": 115, "duration": 318}, {"note": 75, "velocity": 117, "duration": 87}, {"note": 74, "velocity": 115, "duration": 166}, {"note": 0, "velocity": 0, "duration": 74}, {"note": 72, "velocity": 115, "duration": 146}, {"note": 0, "velocity": 0, "duration": 94}, {"note": 70, "velocity": 120, "duration": 175}, {"note": 0, "velocity": 0, "duration": 65}, {"note": 72, "velocity": 104, "duration": 139}, {"note": 0, "velocity": 0, "duration": 101}, {"note": 67, "velocity": 112, "duration": 372}, {"note": 0, "velocity": 0, "duration": 108}, {"note": 67, "velocity": 112, "duration": 182}, {"note": 70, "velocity": 117, "duration": 151}, {"note": 0, "velocity": 0, "duration": 89}, {"note": 69, "velocity": 112, "duration": 163}, {"note": 0, "velocity": 0, "duration": 77}, {"note": 67, "velocity": 112, "duration": 142}, {"note": 0, "velocity": 0, "duration": 98}, {"note": 65, "velocity": 115, "duration": 168}, {"note": 0, "velocity": 0, "duration": 72}, {"note": 67, "velocity": 112, "duration": 172}, {"note": 0, "velocity": 0, "duration": 68}, {"note": 60, "velocity": 112, "duration": 355}, {"note": 0, "velocity": 0, "duration": 125}, {"note": 63, "velocity": 117, "duration": 54}, {"note": 0, "velocity": 0, "duration": 66}, {"note": 63, "velocity": 104, "duration": 226}, {"note": 0, "velocity": 0, "duration": 134}, {"note": 63, "velocity": 117, "duration": 183}, {"note": 60, "velocity": 109, "duration": 60}, {"note": 63, "velocity": 117, "duration": 66}, {"note": 65, "velocity": 109, "duration": 180}, {"note": 65, "velocity": 109, "duration": 159}, {"note": 0, "velocity": 0, "duration": 81}, {"note": 70, "velocity": 113, "duration": 77}, {"note": 67, "velocity": 109, "duration": 198}, {"note": 65, "velocity": 112, "duration": 68}, {"note": 67, "velocity": 109, "duration": 1333}, {"note": 0, "velocity": 0, "duration": 587}, {"note": 72, "velocity": 115, "duration": 318}, {"note": 75, "velocity": 117, "duration": 87}, {"note": 74, "velocity": 115, "duration": 166}, {"note": 0, "velocity": 0, "duration": 74}, {"note": 72, "velocity": 115, "duration": 146}, {"note": 0, "velocity": 0, "duration": 94}, {"note": 70, "velocity": 120, "duration": 175}, {"note": 0, "velocity": 0, "duration": 65}, {"note": 72, "velocity": 104, "duration": 139}, {"note": 0, "velocity": 0, "duration": 101}, {"note": 67, "velocity": 112, "duration": 372}, {"note": 0, "velocity": 0, "duration": 108}, {"note": 67, "velocity": 112, "duration": 182}, {"note": 70, "velocity": 117, "duration": 151}, {"note": 0, "velocity": 0, "duration": 89}, {"note": 69, "velocity": 112, "duration": 163}, {"note": 0, "velocity": 0, "duration": 77}, {"note": 67, "velocity": 112, "duration": 142}, {"note": 0, "velocity": 0, "duration": 98}, {"note": 65, "velocity": 115, "duration": 168}, {"note": 0, "velocity": 0, "duration": 72}, {"note": 67, "velocity": 112, "duration": 172}, {"note": 0, "velocity": 0, "duration": 68}, {"note": 60, "velocity": 112, "duration": 355}, {"note": 0, "velocity": 0, "duration": 125}, {"note": 63, "velocity": 117, "duration": 54}, {"note": 0, "velocity": 0, "duration": 66}, {"note": 63, "velocity": 104, "duration": 226}, {"note": 0, "velocity": 0, "duration": 134}, {"note": 63, "velocity": 117, "duration": 183}, {"note": 60, "velocity": 109, "duration": 60}, {"note": 63, "velocity": 117, "duration": 66}, {"note": 65, "velocity": 109, "duration": 180}, {"note": 65, "velocity": 109, "duration": 159}, {"note": 0, "velocity": 0, "duration": 81}, {"note": 63, "velocity": 120, "duration": 63}, {"note": 62, "velocity": 106, "duration": 345}, {"note": 60, "velocity": 106, "duration": 1477}, {"note": 0, "velocity": 0, "duration": 443}, {"note": 72, "velocity": 115, "duration": 318}, {"note": 75, "velocity": 117, "duration": 87}, {"note": 74, "velocity": 115, "duration": 166}, {"note": 0, "velocity": 0, "duration": 74}, {"note": 72, "velocity": 115, "duration": 146}, {"note": 0, "velocity": 0, "duration": 94}, {"note": 70, "velocity": 120, "duration": 175}, {"note": 0, "velocity": 0, "duration": 65}, {"note": 72, "velocity": 104, "duration": 139}, {"note": 0, "velocity": 0, "duration": 101}, {"note": 67, "velocity": 112, "duration": 372}, {"note": 0, "velocity": 0, "duration": 108}, {"note": 67, "velocity": 112, "duration": 182}, {"note": 70, "velocity": 117, "duration": 151}, {"note": 0, "velocity": 0, "duration": 89}, {"note": 69, "velocity": 112, "duration": 163}, {"note": 0, "velocity": 0, "duration": 77}, {"note": 67, "velocity": 112, "duration": 142}, {"note": 0, "velocity": 0, "duration": 98}, {"note": 65, "velocity": 115, "duration": 168}, {"note": 0, "velocity": 0, "duration": 72}, {"note": 67, "velocity": 112, "duration": 172}, {"note": 0, "velocity": 0, "duration": 68}, {"note": 60, "velocity": 112, "duration": 355}, {"note": 0, "velocity": 0, "duration": 125}, {"note": 63, "velocity": 117, "duration": 54}, {"note": 0, "velocity": 0, "duration": 66}, {"note": 63, "velocity": 104, "duration": 226}, {"note": 63, "velocity": 114, "duration": 118}, {"note": 63, "velocity": 117, "duration": 118}, {"note": 63, "velocity": 114, "duration": 118}, {"note": 60, "velocity": 109, "duration": 60}, {"note": 63, "velocity": 117, "duration": 66}, {"note": 65, "velocity": 109, "duration": 180}, {"note": 65, "velocity": 109, "duration": 159}, {"note": 0, "velocity": 0, "duration": 81}, {"note": 70, "velocity": 113, "duration": 77}, {"note": 67, "velocity": 109, "duration": 198}, {"note": 65, "velocity": 112, "duration": 68}, {"note": 67, "velocity": 109, "duration": 1438}, {"note": 0, "velocity": 0, "duration": 482}, {"note": 72, "velocity": 115, "duration": 238}, {"note": 75, "velocity": 117, "duration": 207}, {"note": 74, "velocity": 115, "duration": 166}, {"note": 0, "velocity": 0, "duration": 74}, {"note": 72, "velocity": 115, "duration": 146}, {"note": 0, "velocity": 0, "duration": 94}, {"note": 70, "velocity": 120, "duration": 175}, {"note": 0, "velocity": 0, "duration": 65}, {"note": 72, "velocity": 104, "duration": 139}, {"note": 0, "velocity": 0, "duration": 101}, {"note": 67, "velocity": 112, "duration": 372}, {"note": 0, "velocity": 0, "duration": 108}, {"note": 67, "velocity": 112, "duration": 182}, {"note": 70, "velocity": 117, "duration": 151}, {"note": 0, "velocity": 0, "duration": 89}, {"note": 69, "velocity": 112, "duration": 163}, {"note": 0, "velocity": 0, "duration": 77}, {"note": 67, "velocity": 112, "duration": 142}, {"note": 0, "velocity": 0, "duration": 98}, {"note": 65, "velocity": 115, "duration": 168}, {"note": 0, "velocity": 0, "duration": 72}, {"note": 67, "velocity": 112, "duration": 172}, {"note": 0, "velocity": 0, "duration": 68}, {"note": 60, "velocity": 112, "duration": 355}, {"note": 0, "velocity": 0, "duration": 125}, {"note": 63, "velocity": 117, "duration": 54}, {"note": 0, "velocity": 0, "duration": 66}, {"note": 63, "velocity": 104, "duration": 226}, {"note": 0, "velocity": 0, "duration": 134}, {"note": 63, "velocity": 117, "duration": 183}, {"note": 60, "velocity": 109, "duration": 60}, {"note": 63, "velocity": 117, "duration": 66}, {"note": 65, "velocity": 109, "duration": 180}, {"note": 65, "velocity": 109, "duration": 358}, {"note": 0, "velocity": 0, "duration": 122}, {"note": 70, "velocity": 106, "duration": 225}, {"note": 72, "velocity": 127, "duration": 220}, {"note": 74, "velocity": 110, "duration": 85}, {"note": 72, "velocity": 110, "duration": 107}, {"note": 70, "velocity": 105, "duration": 92}, {"note": 72, "velocity": 116, "duration": 1048}, {"note": 0, "velocity": 0, "duration": 2325}, {"note": 77, "velocity": 115, "duration": 195}, {"note": 79, "velocity": 112, "duration": 165}, {"note": 0, "velocity": 0, "duration": 75}, {"note": 77, "velocity": 118, "duration": 158}, {"note": 0, "velocity": 0, "duration": 82}, {"note": 75, "velocity": 120, "duration": 156}, {"note": 0, "velocity": 0, "duration": 84}, {"note": 77, "velocity": 115, "duration": 374}, {"note": 0, "velocity": 0, "duration": 106}, {"note": 77, "velocity": 118, "duration": 60}, {"note": 75, "velocity": 117, "duration": 49}, {"note": 0, "velocity": 0, "duration": 71}, {"note": 72, "velocity": 112, "duration": 184}, {"note": 72, "velocity": 115, "duration": 180}, {"note": 75, "velocity": 120, "duration": 160}, {"note": 0, "velocity": 0, "duration": 80}, {"note": 74, "velocity": 109, "duration": 68}, {"note": 72, "velocity": 109, "duration": 50}, {"note": 0, "velocity": 0, "duration": 70}, {"note": 70, "velocity": 120, "duration": 168}, {"note": 0, "velocity": 0, "duration": 72}, {"note": 72, "velocity": 112, "duration": 801}, {"note": 0, "velocity": 0, "duration": 159}, {"note": 67, "velocity": 109, "duration": 244}, {"note": 70, "velocity": 113, "duration": 140}, {"note": 0, "velocity": 0, "duration": 100}, {"note": 70, "velocity": 120, "duration": 173}, {"note": 0, "velocity": 0, "duration": 67}, {"note": 65, "velocity": 115, "duration": 154}, {"note": 0, "velocity": 0, "duration": 86}, {"note": 65, "velocity": 112, "duration": 225}, {"note": 67, "velocity": 109, "duration": 153}, {"note": 0, "velocity": 0, "duration": 87}, {"note": 67, "velocity": 115, "duration": 235}, {"note": 65, "velocity": 106, "duration": 156}, {"note": 0, "velocity": 0, "duration": 84}, {"note": 70, "velocity": 120, "duration": 142}, {"note": 0, "velocity": 0, "duration": 98}, {"note": 70, "velocity": 120, "duration": 138}, {"note": 0, "velocity": 0, "duration": 102}, {"note": 70, "velocity": 120, "duration": 83}, {"note": 68, "velocity": 117, "duration": 61}, {"note": 67, "velocity": 115, "duration": 164}, {"note": 0, "velocity": 0, "duration": 76}, {"note": 67, "velocity": 112, "duration": 761}, {"note": 0, "velocity": 0, "duration": 199}, {"note": 79, "velocity": 115, "duration": 614}, {"note": 0, "velocity": 0, "duration": 106}, {"note": 77, "velocity": 115, "duration": 80}, {"note": 75, "velocity": 120, "duration": 51}, {"note": 0, "velocity": 0, "duration": 69}, {"note": 77, "velocity": 118, "duration": 380}, {"note": 0, "velocity": 0, "duration": 100}, {"note": 72, "velocity": 112, "duration": 354}, {"note": 0, "velocity": 0, "duration": 126}, {"note": 74, "velocity": 106, "duration": 605}, {"note": 0, "velocity": 0, "duration": 115}, {"note": 72, "velocity": 112, "duration": 75}, {"note": 70, "velocity": 120, "duration": 56}, {"note": 0, "velocity": 0, "duration": 64}, {"note": 72, "velocity": 106, "duration": 402}, {"note": 0, "velocity": 0, "duration": 78}, {"note": 67, "velocity": 112, "duration": 371}, {"note": 0, "velocity": 0, "duration": 109}, {"note": 65, "velocity": 112, "duration": 164}, {"note": 0, "velocity": 0, "duration": 76}, {"note": 65, "velocity": 109, "duration": 60}, {"note": 65, "velocity": 115, "duration": 265}, {"note": 0, "velocity": 0, "duration": 95}, {"note": 67, "velocity": 112, "duration": 169}, {"note": 0, "velocity": 0, "duration": 71}, {"note": 77, "velocity": 109, "duration": 116}, {"note": 0, "velocity": 0, "duration": 124}, {"note": 77, "velocity": 115, "duration": 57}, {"note": 0, "velocity": 0, "duration": 63}, {"note": 77, "velocity": 112, "duration": 285}, {"note": 0, "velocity": 0, "duration": 75}, {"note": 79, "velocity": 118, "duration": 140}, {"note": 0, "velocity": 0, "duration": 100}, {"note": 75, "velocity": 123, "duration": 85}, {"note": 74, "velocity": 109, "duration": 56}, {"note": 0, "velocity": 0, "duration": 64}, {"note": 72, "velocity": 112, "duration": 1605}, {"note": 0, "velocity": 0, "duration": 15435}, {"note": 72, "velocity": 115, "duration": 318}, {"note": 75, "velocity": 117, "duration": 87}, {"note": 74, "velocity": 115, "duration": 166}, {"note": 0, "velocity": 0, "duration": 74}, {"note": 72, "velocity": 115, "duration": 146}, {"note": 0, "velocity": 0, "duration": 94}, {"note": 70, "velocity": 120, "duration": 175}, {"note": 0, "velocity": 0, "duration": 65}, {"note": 72, "velocity": 104, "duration": 139}, {"note": 0, "velocity": 0, "duration": 101}, {"note": 67, "velocity": 112, "duration": 372}, {"note": 0, "velocity": 0, "duration": 108}, {"note": 67, "velocity": 112, "duration": 182}, {"note": 70, "velocity": 117, "duration": 151}, {"note": 0, "velocity": 0, "duration": 89}, {"note": 69, "velocity": 112, "duration": 163}, {"note": 0, "velocity": 0, "duration": 77}, {"note": 67, "velocity": 112, "duration": 142}, {"note": 0, "velocity": 0, "duration": 98}, {"note": 65, "velocity": 115, "duration": 168}, {"note": 0, "velocity": 0, "duration": 72}, {"note": 67, "velocity": 112, "duration": 172}, {"note": 0, "velocity": 0, "duration": 68}, {"note": 60, "velocity": 112, "duration": 355}, {"note": 0, "velocity": 0, "duration": 125}, {"note": 63, "velocity": 117, "duration": 54}, {"note": 0, "velocity": 0, "duration": 66}, {"note": 63, "velocity": 104, "duration": 226}, {"note": 63, "velocity": 114, "duration": 118}, {"note": 63, "velocity": 117, "duration": 118}, {"note": 63, "velocity": 114, "duration": 118}, {"note": 60, "velocity": 109, "duration": 60}, {"note": 63, "velocity": 117, "duration": 66}, {"note": 65, "velocity": 109, "duration": 180}, {"note": 65, "velocity": 109, "duration": 159}, {"note": 0, "velocity": 0, "duration": 81}, {"note": 70, "velocity": 113, "duration": 77}, {"note": 67, "velocity": 109, "duration": 198}, {"note": 65, "velocity": 112, "duration": 68}, {"note": 67, "velocity": 109, "duration": 1438}, {"note": 0, "velocity": 0, "duration": 482}, {"note": 72, "velocity": 115, "duration": 238}, {"note": 75, "velocity": 117, "duration": 207}, {"note": 74, "velocity": 115, "duration": 166}, {"note": 0, "velocity": 0, "duration": 74}, {"note": 72, "velocity": 115, "duration": 146}, {"note": 0, "velocity": 0, "duration": 94}, {"note": 70, "velocity": 120, "duration": 175}, {"note": 0, "velocity": 0, "duration": 65}, {"note": 72, "velocity": 104, "duration": 139}, {"note": 0, "velocity": 0, "duration": 101}, {"note": 67, "velocity": 112, "duration": 372}, {"note": 0, "velocity": 0, "duration": 108}, {"note": 67, "velocity": 112, "duration": 182}, {"note": 70, "velocity": 117, "duration": 151}, {"note": 0, "velocity": 0, "duration": 89}, {"note": 69, "velocity": 112, "duration": 163}, {"note": 0, "velocity": 0, "duration": 77}, {"note": 67, "velocity": 112, "duration": 142}, {"note": 0, "velocity": 0, "duration": 98}, {"note": 65, "velocity": 115, "duration": 168}, {"note": 0, "velocity": 0, "duration": 72}, {"note": 67, "velocity": 112, "duration": 172}, {"note": 0, "velocity": 0, "duration": 68}, {"note": 60, "velocity": 112, "duration": 355}, {"note": 0, "velocity": 0, "duration": 125}, {"note": 63, "velocity": 117, "duration": 54}, {"note": 0, "velocity": 0, "duration": 66}, {"note": 63, "velocity": 104, "duration": 226}, {"note": 0, "velocity": 0, "duration": 134}, {"note": 63, "velocity": 117, "duration": 183}, {"note": 60, "velocity": 109, "duration": 60}, {"note": 63, "velocity": 117, "duration": 66}, {"note": 65, "velocity": 109, "duration": 180}, {"note": 65, "velocity": 109, "duration": 358}, {"note": 0, "velocity": 0, "duration": 122}, {"note": 70, "velocity": 106, "duration": 225}, {"note": 72, "velocity": 109, "duration": 68}, {"note": 74, "velocity": 110, "duration": 84}, {"note": 72, "velocity": 110, "duration": 84}, {"note": 70, "velocity": 110, "duration": 73}, {"note": 72, "velocity": 116, "duration": 1023}, {"note": 0, "velocity": 0, "duration": 2557}, {"note": 77, "velocity": 115, "duration": 195}, {"note": 79, "velocity": 112, "duration": 165}, {"note": 0, "velocity": 0, "duration": 75}, {"note": 77, "velocity": 118, "duration": 158}, {"note": 0, "velocity": 0, "duration": 82}, {"note": 75, "velocity": 120, "duration": 156}, {"note": 0, "velocity": 0, "duration": 84}, {"note": 77, "velocity": 115, "duration": 374}, {"note": 0, "velocity": 0, "duration": 106}, {"note": 77, "velocity": 118, "duration": 60}, {"note": 75, "velocity": 117, "duration": 49}, {"note": 0, "velocity": 0, "duration": 71}, {"note": 72, "velocity": 112, "duration": 184}, {"note": 72, "velocity": 115, "duration": 180}, {"note": 75, "velocity": 120, "duration": 160}, {"note": 0, "velocity": 0, "duration": 80}, {"note": 74, "velocity": 109, "duration": 68}, {"note": 72, "velocity": 109, "duration": 50}, {"note": 0, "velocity": 0, "duration": 70}, {"note": 70, "velocity": 120, "duration": 168}, {"note": 0, "velocity": 0, "duration": 72}, {"note": 72, "velocity": 112, "duration": 801}, {"note": 0, "velocity": 0, "duration": 159}, {"note": 67, "velocity": 109, "duration": 244}, {"note": 70, "velocity": 113, "duration": 140}, {"note": 0, "velocity": 0, "duration": 100}, {"note": 70, "velocity": 120, "duration": 173}, {"note": 0, "velocity": 0, "duration": 67}, {"note": 65, "velocity": 115, "duration": 154}, {"note": 0, "velocity": 0, "duration": 86}, {"note": 65, "velocity": 112, "duration": 225}, {"note": 67, "velocity": 109, "duration": 153}, {"note": 0, "velocity": 0, "duration": 87}, {"note": 67, "velocity": 115, "duration": 235}, {"note": 65, "velocity": 106, "duration": 156}, {"note": 0, "velocity": 0, "duration": 84}, {"note": 70, "velocity": 120, "duration": 142}, {"note": 0, "velocity": 0, "duration": 98}, {"note": 70, "velocity": 120, "duration": 138}, {"note": 0, "velocity": 0, "duration": 102}, {"note": 70, "velocity": 120, "duration": 83}, {"note": 68, "velocity": 117, "duration": 61}, {"note": 67, "velocity": 115, "duration": 164}, {"note": 0, "velocity": 0, "duration": 76}, {"note": 67, "velocity": 112, "duration": 761}, {"note": 0, "velocity": 0, "duration": 199}, {"note": 79, "velocity": 115, "duration": 614}, {"note": 0, "velocity": 0, "duration": 106}, {"note": 77, "velocity": 115, "duration": 80}, {"note": 75, "velocity": 120, "duration": 51}, {"note": 0, "velocity": 0, "duration": 69}, {"note": 77, "velocity": 118, "duration": 380}, {"note": 0, "velocity": 0, "duration": 100}, {"note": 72, "velocity": 112, "duration": 354}, {"note": 0, "velocity": 0, "duration": 126}, {"note": 74, "velocity": 106, "duration": 605}, {"note": 0, "velocity": 0, "duration": 115}, {"note": 72, "velocity": 112, "duration": 75}, {"note": 70, "velocity": 120, "duration": 56}, {"note": 0, "velocity": 0, "duration": 64}, {"note": 72, "velocity": 106, "duration": 402}, {"note": 0, "velocity": 0, "duration": 78}, {"note": 67, "velocity": 112, "duration": 371}, {"note": 0, "velocity": 0, "duration": 109}, {"note": 65, "velocity": 112, "duration": 164}, {"note": 0, "velocity": 0, "duration": 76}, {"note": 65, "velocity": 109, "duration": 60}, {"note": 65, "velocity": 115, "duration": 265}, {"note": 0, "velocity": 0, "duration": 95}, {"note": 67, "velocity": 112, "duration": 169}, {"note": 0, "velocity": 0, "duration": 71}, {"note": 77, "velocity": 109, "duration": 116}, {"note": 0, "velocity": 0, "duration": 124}, {"note": 77, "velocity": 115, "duration": 57}, {"note": 0, "velocity": 0, "duration": 63}, {"note": 77, "velocity": 112, "duration": 285}, {"note": 0, "velocity": 0, "duration": 75}, {"note": 79, "velocity": 118, "duration": 140}, {"note": 0, "velocity": 0, "duration": 100}, {"note": 75, "velocity": 123, "duration": 85}, {"note": 74, "velocity": 109, "duration": 56}, {"note": 0, "velocity": 0, "duration": 64}, {"note": 72, "velocity": 112, "duration": 1605}, {"note": 0, "velocity": 0, "duration": 1035}, {"note": 77, "velocity": 115, "duration": 195}, {"note": 79, "velocity": 112, "duration": 165}, {"note": 0, "velocity": 0, "duration": 75}, {"note": 77, "velocity": 118, "duration": 158}, {"note": 0, "velocity": 0, "duration": 82}, {"note": 75, "velocity": 120, "duration": 156}, {"note": 0, "velocity": 0, "duration": 84}, {"note": 77, "velocity": 115, "duration": 374}, {"note": 0, "velocity": 0, "duration": 106}, {"note": 77, "velocity": 118, "duration": 60}, {"note": 75, "velocity": 117, "duration": 49}, {"note": 0, "velocity": 0, "duration": 71}, {"note": 72, "velocity": 112, "duration": 184}, {"note": 72, "velocity": 115, "duration": 180}, {"note": 75, "velocity": 120, "duration": 160}, {"note": 0, "velocity": 0, "duration": 80}, {"note": 74, "velocity": 109, "duration": 68}, {"note": 72, "velocity": 109, "duration": 50}, {"note": 0, "velocity": 0, "duration": 70}, {"note": 70, "velocity": 120, "duration": 168}, {"note": 0, "velocity": 0, "duration": 72}, {"note": 72, "velocity": 112, "duration": 801}, {"note": 0, "velocity": 0, "duration": 159}, {"note": 67, "velocity": 109, "duration": 244}, {"note": 70, "velocity": 113, "duration": 140}, {"note": 0, "velocity": 0, "duration": 100}, {"note": 70, "velocity": 120, "duration": 173}, {"note": 0, "velocity": 0, "duration": 67}, {"note": 65, "velocity": 115, "duration": 154}, {"note": 0, "velocity": 0, "duration": 86}, {"note": 65, "velocity": 112, "duration": 225}, {"note": 67, "velocity": 109, "duration": 153}, {"note": 0, "velocity": 0, "duration": 87}, {"note": 67, "velocity": 115, "duration": 235}, {"note": 65, "velocity": 106, "duration": 156}, {"note": 0, "velocity": 0, "duration": 84}, {"note": 70, "velocity": 120, "duration": 142}, {"note": 0, "velocity": 0, "duration": 98}, {"note": 70, "velocity": 120, "duration": 138}, {"note": 0, "velocity": 0, "duration": 102}, {"note": 70, "velocity": 120, "duration": 83}, {"note": 68, "velocity": 117, "duration": 61}, {"note": 67, "velocity": 115, "duration": 164}, {"note": 0, "velocity": 0, "duration": 76}, {"note": 67, "velocity": 112, "duration": 761}, {"note": 0, "velocity": 0, "duration": 199}, {"note": 79, "velocity": 115, "duration": 614}, {"note": 0, "velocity": 0, "duration": 106}, {"note": 77, "velocity": 115, "duration": 80}, {"note": 75, "velocity": 120, "duration": 51}, {"note": 0, "velocity": 0, "duration": 69}, {"note": 77, "velocity": 118, "duration": 380}, {"note": 0, "velocity": 0, "duration": 100}, {"note": 72, "velocity": 112, "duration": 354}, {"note": 0, "velocity": 0, "duration": 126}, {"note": 74, "velocity": 106, "duration": 605}, {"note": 0, "velocity": 0, "duration": 115}, {"note": 72, "velocity": 112, "duration": 75}, {"note": 70, "velocity": 120, "duration": 56}, {"note": 0, "velocity": 0, "duration": 64}, {"note": 72, "velocity": 106, "duration": 402}, {"note": 0, "velocity": 0, "duration": 78}, {"note": 67, "velocity": 112, "duration": 371}, {"note": 0, "velocity": 0, "duration": 109}, {"note": 65, "velocity": 112, "duration": 164}, {"note": 0, "velocity": 0, "duration": 76}, {"note": 65, "velocity": 109, "duration": 60}, {"note": 65, "velocity": 115, "duration": 265}, {"note": 0, "velocity": 0, "duration": 95}, {"note": 67, "velocity": 112, "duration": 169}, {"note": 0, "velocity": 0, "duration": 71}, {"note": 77, "velocity": 109, "duration": 116}, {"note": 0, "velocity": 0, "duration": 124}, {"note": 77, "velocity": 115, "duration": 57}, {"note": 0, "velocity": 0, "duration": 63}, {"note": 77, "velocity": 112, "duration": 285}, {"note": 0, "velocity": 0, "duration": 75}, {"note": 79, "velocity": 118, "duration": 140}, {"note": 0, "velocity": 0, "duration": 100}, {"note": 75, "velocity": 123, "duration": 85}, {"note": 74, "velocity": 109, "duration": 56}, {"note": 0, "velocity": 0, "duration": 64}, {"note": 72, "velocity": 112, "duration": 1605}]]