[[{"note": 70, "velocity": 112, "duration": 175}, {"note": 0, "velocity": 0, "duration": 65}, {"note": 63, "velocity": 115, "duration": 59}, {"note": 0, "velocity": 0, "duration": 61}, {"note": 63, "velocity": 106, "duration": 64}, {"note": 63, "velocity": 115, "duration": 98}, {"note": 65, "velocity": 115, "duration": 55}, {"note": 0, "velocity": 0, "duration": 65}, {"note": 66, "velocity": 109, "duration": 56}, {"note": 0, "velocity": 0, "duration": 64}, {"note": 73, "velocity": 104, "duration": 63}, {"note": 68, "velocity": 94, "duration": 550}, {"note": 0, "velocity": 0, "duration": 290}, {"note": 61, "velocity": 112, "duration": 64}, {"note": 63, "velocity": 115, "duration": 160}, {"note": 0, "velocity": 0, "duration": 80}, {"note": 66, "velocity": 115, "duration": 169}, {"note": 0, "velocity": 0, "duration": 71}, {"note": 68, "velocity": 112, "duration": 118}, {"note": 68, "velocity": 112, "duration": 301}, {"note": 70, "velocity": 115, "duration": 533}, {"note": 0, "velocity": 0, "duration": 427}, {"note": 68, "velocity": 112, "duration": 169}, {"note": 0, "velocity": 0, "duration": 71}, {"note": 68, "velocity": 112, "duration": 150}, {"note": 0, "velocity": 0, "duration": 90}, {"note": 68, "velocity": 112, "duration": 88}, {"note": 70, "velocity": 115, "duration": 46}, {"note": 0, "velocity": 0, "duration": 74}, {"note": 71, "velocity": 120, "duration": 75}, {"note": 70, "velocity": 115, "duration": 52}, {"note": 0, "velocity": 0, "duration": 68}, {"note": 70, "velocity": 112, "duration": 184}, {"note": 66, "velocity": 112, "duration": 440}, {"note": 0, "velocity": 0, "duration": 160}, {"note": 61, "velocity": 109, "duration": 70}, {"note": 63, "velocity": 115, "duration": 170}, {"note": 0, "velocity": 0, "duration": 70}, {"note": 75, "velocity": 112, "duration": 154}, {"note": 0, "velocity": 0, "duration": 86}, {"note": 73, "velocity": 112, "duration": 168}, {"note": 0, "velocity": 0, "duration": 72}, {"note": 71, "velocity": 117, "duration": 94}, {"note": 68, "velocity": 106, "duration": 70}, {"note": 70, "velocity": 112, "duration": 796}, {"note": 0, "velocity": 0, "duration": 164}, {"note": 70, "velocity": 112, "duration": 179}, {"note": 0, "velocity": 0, "duration": 61}, {"note": 63, "velocity": 109, "duration": 58}, {"note": 0, "velocity": 0, "duration": 62}, {"note": 63, "velocity": 115, "duration": 49}, {"note": 0, "velocity": 0, "duration": 71}, {"note": 63, "velocity": 112, "duration": 66}, {"note": 65, "velocity": 115, "duration": 63}, {"note": 66, "velocity": 112, "duration": 59}, {"note": 0, "velocity": 0, "duration": 61}, {"note": 70, "velocity": 112, "duration": 66}, {"note": 68, "velocity": 112, "duration": 553}, {"note": 0, "velocity": 0, "duration": 407}, {"note": 63, "velocity": 118, "duration": 256}, {"note": 66, "velocity": 118, "duration": 150}, {"note": 0, "velocity": 0, "duration": 71}, {"note": 66, "velocity": 115, "duration": 122}, {"note": 66, "velocity": 115, "duration": 106}, {"note": 68, "velocity": 112, "duration": 87}, {"note": 70, "velocity": 112, "duration": 792}, {"note": 0, "velocity": 0, "duration": 188}, {"note": 68, "velocity": 112, "duration": 171}, {"note": 0, "velocity": 0, "duration": 69}, {"note": 68, "velocity": 109, "duration": 55}, {"note": 0, "velocity": 0, "duration": 65}, {"note": 68, "velocity": 109, "duration": 58}, {"note": 0, "velocity": 0, "duration": 62}, {"note": 68, "velocity": 115, "duration": 62}, {"note": 70, "velocity": 115, "duration": 57}, {"note": 0, "velocity": 0, "duration": 63}, {"note": 71, "velocity": 117, "duration": 75}, {"note": 70, "velocity": 104, "duration": 79}, {"note": 70, "velocity": 118, "duration": 195}, {"note": 68, "velocity": 112, "duration": 70}, {"note": 66, "velocity": 112, "duration": 315}, {"note": 63, "velocity": 112, "duration": 52}, {"note": 63, "velocity": 118, "duration": 73}, {"note": 75, "velocity": 115, "duration": 144}, {"note": 0, "velocity": 0, "duration": 72}, {"note": 75, "velocity": 115, "duration": 61}, {"note": 0, "velocity": 0, "duration": 72}, {"note": 75, "velocity": 115, "duration": 67}, {"note": 0, "velocity": 0, "duration": 64}, {"note": 75, "velocity": 115, "duration": 99}, {"note": 73, "velocity": 120, "duration": 77}, {"note": 0, "velocity": 0, "duration": 72}, {"note": 75, "velocity": 118, "duration": 81}, {"note": 0, "velocity": 0, "duration": 66}, {"note": 77, "velocity": 109, "duration": 299}, {"note": 0, "velocity": 0, "duration": 179}, {"note": 73, "velocity": 115, "duration": 134}, {"note": 70, "velocity": 118, "duration": 95}, {"note": 0, "velocity": 0, "duration": 67}, {"note": 73, "velocity": 115, "duration": 103}, {"note": 0, "velocity": 0, "duration": 62}, {"note": 75, "velocity": 118, "duration": 1438}, {"note": 0, "velocity": 0, "duration": 240}, {"note": 75, "velocity": 106, "duration": 69}, {"note": 77, "velocity": 115, "duration": 66}, {"note": 78, "velocity": 115, "duration": 162}, {"note": 0, "velocity": 0, "duration": 78}, {"note": 78, "velocity": 109, "duration": 57}, {"note": 0, "velocity": 0, "duration": 63}, {"note": 78, "velocity": 118, "duration": 61}, {"note": 78, "velocity": 118, "duration": 177}, {"note": 0, "velocity": 0, "duration": 63}, {"note": 77, "velocity": 115, "duration": 51}, {"note": 0, "velocity": 0, "duration": 69}, {"note": 75, "velocity": 115, "duration": 57}, {"note": 0, "velocity": 0, "duration": 63}, {"note": 77, "velocity": 112, "duration": 488}, {"note": 0, "velocity": 0, "duration": 232}, {"note": 73, "velocity": 112, "duration": 66}, {"note": 75, "velocity": 115, "duration": 56}, {"note": 0, "velocity": 0, "duration": 64}, {"note": 77, "velocity": 112, "duration": 162}, {"note": 0, "velocity": 0, "duration": 78}, {"note": 77, "velocity": 112, "duration": 60}, {"note": 77, "velocity": 112, "duration": 55}, {"note": 0, "velocity": 0, "duration": 65}, {"note": 77, "velocity": 115, "duration": 159}, {"note": 0, "velocity": 0, "duration": 81}, {"note": 77, "velocity": 115, "duration": 59}, {"note": 0, "velocity": 0, "duration": 61}, {"note": 78, "velocity": 118, "duration": 59}, {"note": 0, "velocity": 0, "duration": 61}, {"note": 77, "velocity": 115, "duration": 165}, {"note": 0, "velocity": 0, "duration": 75}, {"note": 75, "velocity": 115, "duration": 290}, {"note": 0, "velocity": 0, "duration": 190}, {"note": 75, "velocity": 115, "duration": 64}, {"note": 77, "velocity": 109, "duration": 61}, {"note": 78, "velocity": 115, "duration": 169}, {"note": 0, "velocity": 0, "duration": 71}, {"note": 78, "velocity": 109, "duration": 60}, {"note": 78, "velocity": 109, "duration": 50}, {"note": 0, "velocity": 0, "duration": 70}, {"note": 78, "velocity": 115, "duration": 168}, {"note": 0, "velocity": 0, "duration": 72}, {"note": 77, "velocity": 112, "duration": 51}, {"note": 0, "velocity": 0, "duration": 69}, {"note": 75, "velocity": 115, "duration": 55}, {"note": 0, "velocity": 0, "duration": 65}, {"note": 77, "velocity": 115, "duration": 469}, {"note": 0, "velocity": 0, "duration": 251}, {"note": 73, "velocity": 106, "duration": 67}, {"note": 75, "velocity": 112, "duration": 53}, {"note": 0, "velocity": 0, "duration": 67}, {"note": 77, "velocity": 109, "duration": 172}, {"note": 0, "velocity": 0, "duration": 68}, {"note": 77, "velocity": 104, "duration": 52}, {"note": 0, "velocity": 0, "duration": 68}, {"note": 77, "velocity": 109, "duration": 51}, {"note": 0, "velocity": 0, "duration": 69}, {"note": 77, "velocity": 109, "duration": 169}, {"note": 0, "velocity": 0, "duration": 71}, {"note": 77, "velocity": 104, "duration": 62}, {"note": 78, "velocity": 112, "duration": 64}, {"note": 77, "velocity": 112, "duration": 186}, {"note": 75, "velocity": 115, "duration": 368}, {"note": 0, "velocity": 0, "duration": 112}, {"note": 75, "velocity": 118, "duration": 60}, {"note": 77, "velocity": 112, "duration": 60}, {"note": 78, "velocity": 112, "duration": 174}, {"note": 0, "velocity": 0, "duration": 66}, {"note": 78, "velocity": 112, "duration": 60}, {"note": 78, "velocity": 112, "duration": 56}, {"note": 0, "velocity": 0, "duration": 64}, {"note": 78, "velocity": 115, "duration": 167}, {"note": 0, "velocity": 0, "duration": 73}, {"note": 77, "velocity": 112, "duration": 49}, {"note": 0, "velocity": 0, "duration": 71}, {"note": 75, "velocity": 112, "duration": 56}, {"note": 0, "velocity": 0, "duration": 64}, {"note": 77, "velocity": 112, "duration": 552}, {"note": 0, "velocity": 0, "duration": 168}, {"note": 73, "velocity": 112, "duration": 63}, {"note": 75, "velocity": 112, "duration": 55}, {"note": 0, "velocity": 0, "duration": 65}, {"note": 77, "velocity": 109, "duration": 174}, {"note": 0, "velocity": 0, "duration": 66}, {"note": 77, "velocity": 101, "duration": 51}, {"note": 0, "velocity": 0, "duration": 69}, {"note": 77, "velocity": 101, "duration": 52}, {"note": 0, "velocity": 0, "duration": 68}, {"note": 77, "velocity": 109, "duration": 172}, {"note": 0, "velocity": 0, "duration": 68}, {"note": 77, "velocity": 101, "duration": 61}, {"note": 78, "velocity": 112, "duration": 59}, {"note": 0, "velocity": 0, "duration": 61}, {"note": 77, "velocity": 112, "duration": 175}, {"note": 0, "velocity": 0, "duration": 65}, {"note": 75, "velocity": 115, "duration": 352}, {"note": 0, "velocity": 0, "duration": 128}, {"note": 75, "velocity": 115, "duration": 59}, {"note": 0, "velocity": 0, "duration": 61}, {"note": 77, "velocity": 109, "duration": 52}, {"note": 0, "velocity": 0, "duration": 68}, {"note": 78, "velocity": 115, "duration": 175}, {"note": 0, "velocity": 0, "duration": 65}, {"note": 78, "velocity": 112, "duration": 50}, {"note": 0, "velocity": 0, "duration": 70}, {"note": 78, "velocity": 112, "duration": 52}, {"note": 0, "velocity": 0, "duration": 68}, {"note": 78, "velocity": 115, "duration": 171}, {"note": 0, "velocity": 0, "duration": 69}, {"note": 77, "velocity": 106, "duration": 52}, {"note": 0, "velocity": 0, "duration": 68}, {"note": 75, "velocity": 106, "duration": 54}, {"note": 0, "velocity": 0, "duration": 66}, {"note": 77, "velocity": 109, "duration": 523}, {"note": 0, "velocity": 0, "duration": 197}, {"note": 73, "velocity": 109, "duration": 59}, {"note": 0, "velocity": 0, "duration": 61}, {"note": 75, "velocity": 112, "duration": 58}, {"note": 0, "velocity": 0, "duration": 62}, {"note": 77, "velocity": 109, "duration": 118}, {"note": 77, "velocity": 109, "duration": 118}, {"note": 77, "velocity": 101, "duration": 51}, {"note": 0, "velocity": 0, "duration": 69}, {"note": 77, "velocity": 104, "duration": 52}, {"note": 0, "velocity": 0, "duration": 68}, {"note": 77, "velocity": 106, "duration": 176}, {"note": 0, "velocity": 0, "duration": 64}, {"note": 77, "velocity": 101, "duration": 72}, {"note": 78, "velocity": 109, "duration": 66}, {"note": 77, "velocity": 112, "duration": 179}, {"note": 0, "velocity": 0, "duration": 61}, {"note": 75, "velocity": 112, "duration": 718}, {"note": 0, "velocity": 0, "duration": 7682}, {"note": 70, "velocity": 112, "duration": 175}, {"note": 0, "velocity": 0, "duration": 65}, {"note": 63, "velocity": 115, "duration": 59}, {"note": 0, "velocity": 0, "duration": 61}, {"note": 63, "velocity": 106, "duration": 64}, {"note": 63, "velocity": 115, "duration": 98}, {"note": 65, "velocity": 115, "duration": 55}, {"note": 0, "velocity": 0, "duration": 65}, {"note": 66, "velocity": 109, "duration": 56}, {"note": 0, "velocity": 0, "duration": 64}, {"note": 73, "velocity": 104, "duration": 63}, {"note": 68, "velocity": 94, "duration": 550}, {"note": 0, "velocity": 0, "duration": 290}, {"note": 61, "velocity": 112, "duration": 64}, {"note": 63, "velocity": 115, "duration": 160}, {"note": 0, "velocity": 0, "duration": 80}, {"note": 66, "velocity": 115, "duration": 169}, {"note": 0, "velocity": 0, "duration": 71}, {"note": 68, "velocity": 112, "duration": 118}, {"note": 68, "velocity": 112, "duration": 301}, {"note": 70, "velocity": 115, "duration": 533}, {"note": 0, "velocity": 0, "duration": 427}, {"note": 68, "velocity": 112, "duration": 169}, {"note": 0, "velocity": 0, "duration": 71}, {"note": 68, "velocity": 112, "duration": 150}, {"note": 0, "velocity": 0, "duration": 90}, {"note": 68, "velocity": 112, "duration": 88}, {"note": 70, "velocity": 115, "duration": 46}, {"note": 0, "velocity": 0, "duration": 74}, {"note": 71, "velocity": 120, "duration": 75}, {"note": 70, "velocity": 115, "duration": 52}, {"note": 0, "velocity": 0, "duration": 68}, {"note": 70, "velocity": 112, "duration": 184}, {"note": 66, "velocity": 112, "duration": 440}, {"note": 0, "velocity": 0, "duration": 160}, {"note": 61, "velocity": 109, "duration": 70}, {"note": 63, "velocity": 115, "duration": 170}, {"note": 0, "velocity": 0, "duration": 70}, {"note": 75, "velocity": 112, "duration": 154}, {"note": 0, "velocity": 0, "duration": 86}, {"note": 73, "velocity": 112, "duration": 168}, {"note": 0, "velocity": 0, "duration": 72}, {"note": 71, "velocity": 117, "duration": 94}, {"note": 68, "velocity": 106, "duration": 70}, {"note": 70, "velocity": 112, "duration": 796}, {"note": 0, "velocity": 0, "duration": 164}, {"note": 70, "velocity": 112, "duration": 179}, {"note": 0, "velocity": 0, "duration": 61}, {"note": 63, "velocity": 109, "duration": 58}, {"note": 0, "velocity": 0, "duration": 62}, {"note": 63, "velocity": 115, "duration": 49}, {"note": 0, "velocity": 0, "duration": 71}, {"note": 63, "velocity": 112, "duration": 66}, {"note": 65, "velocity": 115, "duration": 63}, {"note": 66, "velocity": 112, "duration": 59}, {"note": 0, "velocity": 0, "duration": 61}, {"note": 70, "velocity": 112, "duration": 66}, {"note": 68, "velocity": 112, "duration": 553}, {"note": 0, "velocity": 0, "duration": 407}, {"note": 63, "velocity": 118, "duration": 256}, {"note": 66, "velocity": 118, "duration": 150}, {"note": 0, "velocity": 0, "duration": 71}, {"note": 66, "velocity": 115, "duration": 122}, {"note": 66, "velocity": 115, "duration": 106}, {"note": 68, "velocity": 112, "duration": 87}, {"note": 70, "velocity": 112, "duration": 792}, {"note": 0, "velocity": 0, "duration": 188}, {"note": 68, "velocity": 112, "duration": 171}, {"note": 0, "velocity": 0, "duration": 69}, {"note": 68, "velocity": 109, "duration": 55}, {"note": 0, "velocity": 0, "duration": 65}, {"note": 68, "velocity": 109, "duration": 58}, {"note": 0, "velocity": 0, "duration": 62}, {"note": 68, "velocity": 115, "duration": 62}, {"note": 70, "velocity": 115, "duration": 57}, {"note": 0, "velocity": 0, "duration": 63}, {"note": 71, "velocity": 117, "duration": 75}, {"note": 68, "velocity": 104, "duration": 79}, {"note": 70, "velocity": 118, "duration": 195}, {"note": 68, "velocity": 112, "duration": 70}, {"note": 66, "velocity": 112, "duration": 315}, {"note": 63, "velocity": 112, "duration": 52}, {"note": 63, "velocity": 118, "duration": 73}, {"note": 75, "velocity": 115, "duration": 144}, {"note": 0, "velocity": 0, "duration": 72}, {"note": 75, "velocity": 115, "duration": 61}, {"note": 0, "velocity": 0, "duration": 72}, {"note": 75, "velocity": 115, "duration": 67}, {"note": 0, "velocity": 0, "duration": 64}, {"note": 75, "velocity": 115, "duration": 99}, {"note": 73, "velocity": 120, "duration": 77}, {"note": 0, "velocity": 0, "duration": 72}, {"note": 75, "velocity": 118, "duration": 81}, {"note": 0, "velocity": 0, "duration": 66}, {"note": 77, "velocity": 109, "duration": 299}, {"note": 0, "velocity": 0, "duration": 179}, {"note": 73, "velocity": 115, "duration": 134}, {"note": 70, "velocity": 118, "duration": 95}, {"note": 0, "velocity": 0, "duration": 67}, {"note": 73, "velocity": 115, "duration": 103}, {"note": 0, "velocity": 0, "duration": 62}, {"note": 75, "velocity": 118, "duration": 1438}, {"note": 0, "velocity": 0, "duration": 240}, {"note": 75, "velocity": 106, "duration": 69}, {"note": 77, "velocity": 115, "duration": 66}, {"note": 78, "velocity": 115, "duration": 162}, {"note": 0, "velocity": 0, "duration": 78}, {"note": 78, "velocity": 109, "duration": 57}, {"note": 0, "velocity": 0, "duration": 63}, {"note": 78, "velocity": 118, "duration": 61}, {"note": 78, "velocity": 118, "duration": 177}, {"note": 0, "velocity": 0, "duration": 63}, {"note": 77, "velocity": 115, "duration": 51}, {"note": 0, "velocity": 0, "duration": 69}, {"note": 75, "velocity": 115, "duration": 57}, {"note": 0, "velocity": 0, "duration": 63}, {"note": 77, "velocity": 112, "duration": 488}, {"note": 0, "velocity": 0, "duration": 232}, {"note": 73, "velocity": 112, "duration": 66}, {"note": 75, "velocity": 115, "duration": 56}, {"note": 0, "velocity": 0, "duration": 64}, {"note": 77, "velocity": 112, "duration": 162}, {"note": 0, "velocity": 0, "duration": 78}, {"note": 77, "velocity": 112, "duration": 60}, {"note": 77, "velocity": 112, "duration": 55}, {"note": 0, "velocity": 0, "duration": 65}, {"note": 77, "velocity": 115, "duration": 159}, {"note": 0, "velocity": 0, "duration": 81}, {"note": 77, "velocity": 115, "duration": 59}, {"note": 0, "velocity": 0, "duration": 61}, {"note": 78, "velocity": 118, "duration": 59}, {"note": 0, "velocity": 0, "duration": 61}, {"note": 77, "velocity": 115, "duration": 165}, {"note": 0, "velocity": 0, "duration": 75}, {"note": 75, "velocity": 115, "duration": 290}, {"note": 0, "velocity": 0, "duration": 190}, {"note": 75, "velocity": 115, "duration": 64}, {"note": 77, "velocity": 109, "duration": 61}, {"note": 78, "velocity": 115, "duration": 169}, {"note": 0, "velocity": 0, "duration": 71}, {"note": 78, "velocity": 109, "duration": 60}, {"note": 78, "velocity": 109, "duration": 50}, {"note": 0, "velocity": 0, "duration": 70}, {"note": 78, "velocity": 115, "duration": 168}, {"note": 0, "velocity": 0, "duration": 72}, {"note": 77, "velocity": 112, "duration": 51}, {"note": 0, "velocity": 0, "duration": 69}, {"note": 75, "velocity": 115, "duration": 55}, {"note": 0, "velocity": 0, "duration": 65}, {"note": 77, "velocity": 115, "duration": 469}, {"note": 0, "velocity": 0, "duration": 251}, {"note": 73, "velocity": 106, "duration": 67}, {"note": 75, "velocity": 112, "duration": 53}, {"note": 0, "velocity": 0, "duration": 67}, {"note": 77, "velocity": 109, "duration": 172}, {"note": 0, "velocity": 0, "duration": 68}, {"note": 77, "velocity": 104, "duration": 52}, {"note": 0, "velocity": 0, "duration": 68}, {"note": 77, "velocity": 109, "duration": 51}, {"note": 0, "velocity": 0, "duration": 69}, {"note": 77, "velocity": 109, "duration": 169}, {"note": 0, "velocity": 0, "duration": 71}, {"note": 77, "velocity": 104, "duration": 62}, {"note": 78, "velocity": 112, "duration": 64}, {"note": 77, "velocity": 112, "duration": 186}, {"note": 75, "velocity": 115, "duration": 368}, {"note": 0, "velocity": 0, "duration": 112}, {"note": 75, "velocity": 118, "duration": 60}, {"note": 77, "velocity": 112, "duration": 60}, {"note": 78, "velocity": 112, "duration": 174}, {"note": 0, "velocity": 0, "duration": 66}, {"note": 78, "velocity": 112, "duration": 60}, {"note": 78, "velocity": 112, "duration": 56}, {"note": 0, "velocity": 0, "duration": 64}, {"note": 78, "velocity": 115, "duration": 167}, {"note": 0, "velocity": 0, "duration": 73}, {"note": 77, "velocity": 112, "duration": 49}, {"note": 0, "velocity": 0, "duration": 71}, {"note": 75, "velocity": 112, "duration": 56}, {"note": 0, "velocity": 0, "duration": 64}, {"note": 77, "velocity": 112, "duration": 552}, {"note": 0, "velocity": 0, "duration": 168}, {"note": 73, "velocity": 112, "duration": 63}, {"note": 75, "velocity": 112, "duration": 55}, {"note": 0, "velocity": 0, "duration": 65}, {"note": 77, "velocity": 109, "duration": 174}, {"note": 0, "velocity": 0, "duration": 66}, {"note": 77, "velocity": 101, "duration": 51}, {"note": 0, "velocity": 0, "duration": 69}, {"note": 77, "velocity": 101, "duration": 52}, {"note": 0, "velocity": 0, "duration": 68}, {"note": 77, "velocity": 109, "duration": 172}, {"note": 0, "velocity": 0, "duration": 68}, {"note": 77, "velocity": 101, "duration": 61}, {"note": 78, "velocity": 112, "duration": 59}, {"note": 0, "velocity": 0, "duration": 61}, {"note": 77, "velocity": 112, "duration": 175}, {"note": 0, "velocity": 0, "duration": 65}, {"note": 75, "velocity": 115, "duration": 352}, {"note": 0, "velocity": 0, "duration": 128}, {"note": 75, "velocity": 115, "duration": 59}, {"note": 0, "velocity": 0, "duration": 61}, {"note": 77, "velocity": 109, "duration": 52}, {"note": 0, "velocity": 0, "duration": 68}, {"note": 78, "velocity": 115, "duration": 175}, {"note": 0, "velocity": 0, "duration": 65}, {"note": 78, "velocity": 112, "duration": 50}, {"note": 0, "velocity": 0, "duration": 70}, {"note": 78, "velocity": 112, "duration": 52}, {"note": 0, "velocity": 0, "duration": 68}, {"note": 78, "velocity": 115, "duration": 171}, {"note": 0, "velocity": 0, "duration": 69}, {"note": 77, "velocity": 106, "duration": 52}, {"note": 0, "velocity": 0, "duration": 68}, {"note": 75, "velocity": 106, "duration": 54}, {"note": 0, "velocity": 0, "duration": 66}, {"note": 77, "velocity": 109, "duration": 523}, {"note": 0, "velocity": 0, "duration": 197}, {"note": 73, "velocity": 109, "duration": 59}, {"note": 0, "velocity": 0, "duration": 61}, {"note": 75, "velocity": 112, "duration": 58}, {"note": 0, "velocity": 0, "duration": 62}, {"note": 77, "velocity": 109, "duration": 118}, {"note": 77, "velocity": 109, "duration": 118}, {"note": 77, "velocity": 101, "duration": 51}, {"note": 0, "velocity": 0, "duration": 69}, {"note": 77, "velocity": 104, "duration": 52}, {"note": 0, "velocity": 0, "duration": 68}, {"note": 77, "velocity": 106, "duration": 176}, {"note": 0, "velocity": 0, "duration": 64}, {"note": 77, "velocity": 101, "duration": 72}, {"note": 78, "velocity": 109, "duration": 66}, {"note": 77, "velocity": 112, "duration": 179}, {"note": 0, "velocity": 0, "duration": 61}, {"note": 75, "velocity": 112, "duration": 549}, {"note": 75, "velocity": 106, "duration": 69}, {"note": 77, "velocity": 115, "duration": 66}, {"note": 78, "velocity": 115, "duration": 162}, {"note": 0, "velocity": 0, "duration": 78}, {"note": 78, "velocity": 109, "duration": 57}, {"note": 0, "velocity": 0, "duration": 63}, {"note": 78, "velocity": 118, "duration": 61}, {"note": 78, "velocity": 118, "duration": 177}, {"note": 0, "velocity": 0, "duration": 63}, {"note": 77, "velocity": 115, "duration": 51}, {"note": 0, "velocity": 0, "duration": 69}, {"note": 75, "velocity": 115, "duration": 57}, {"note": 0, "velocity": 0, "duration": 63}, {"note": 77, "velocity": 112, "duration": 488}, {"note": 0, "velocity": 0, "duration": 232}, {"note": 73, "velocity": 112, "duration": 66}, {"note": 75, "velocity": 115, "duration": 56}, {"note": 0, "velocity": 0, "duration": 64}, {"note": 77, "velocity": 112, "duration": 162}, {"note": 0, "velocity": 0, "duration": 78}, {"note": 77, "velocity": 112, "duration": 60}, {"note": 77, "velocity": 112, "duration": 55}, {"note": 0, "velocity": 0, "duration": 65}, {"note": 77, "velocity": 115, "duration": 159}, {"note": 0, "velocity": 0, "duration": 81}, {"note": 77, "velocity": 115, "duration": 59}, {"note": 0, "velocity": 0, "duration": 61}, {"note": 78, "velocity": 118, "duration": 59}, {"note": 0, "velocity": 0, "duration": 61}, {"note": 77, "velocity": 115, "duration": 165}, {"note": 0, "velocity": 0, "duration": 75}, {"note": 75, "velocity": 115, "duration": 290}, {"note": 0, "velocity": 0, "duration": 190}, {"note": 75, "velocity": 115, "duration": 64}, {"note": 77, "velocity": 109, "duration": 61}, {"note": 78, "velocity": 115, "duration": 169}, {"note": 0, "velocity": 0, "duration": 71}, {"note": 78, "velocity": 109, "duration": 60}, {"note": 78, "velocity": 109, "duration": 50}, {"note": 0, "velocity": 0, "duration": 70}, {"note": 78, "velocity": 115, "duration": 168}, {"note": 0, "velocity": 0, "duration": 72}, {"note": 77, "velocity": 112, "duration": 51}, {"note": 0, "velocity": 0, "duration": 69}, {"note": 75, "velocity": 115, "duration": 55}, {"note": 0, "velocity": 0, "duration": 65}, {"note": 77, "velocity": 115, "duration": 469}, {"note": 0, "velocity": 0, "duration": 251}, {"note": 73, "velocity": 106, "duration": 67}, {"note": 75, "velocity": 112, "duration": 53}, {"note": 0, "velocity": 0, "duration": 67}, {"note": 77, "velocity": 109, "duration": 172}, {"note": 0, "velocity": 0, "duration": 68}, {"note": 77, "velocity": 104, "duration": 52}, {"note": 0, "velocity": 0, "duration": 68}, {"note": 77, "velocity": 109, "duration": 51}, {"note": 0, "velocity": 0, "duration": 69}, {"note": 77, "velocity": 109, "duration": 169}, {"note": 0, "velocity": 0, "duration": 71}, {"note": 77, "velocity": 104, "duration": 62}, {"note": 78, "velocity": 112, "duration": 64}, {"note": 77, "velocity": 112, "duration": 186}, {"note": 75, "velocity": 115, "duration": 368}, {"note": 0, "velocity": 0, "duration": 112}, {"note": 75, "velocity": 118, "duration": 60}, {"note": 77, "velocity": 112, "duration": 60}, {"note": 78, "velocity": 112, "duration": 174}, {"note": 0, "velocity": 0, "duration": 66}, {"note": 78, "velocity": 112, "duration": 60}, {"note": 78, "velocity": 112, "duration": 56}, {"note": 0, "velocity": 0, "duration": 64}, {"note": 78, "velocity": 115, "duration": 167}, {"note": 0, "velocity": 0, "duration": 73}, {"note": 77, "velocity": 112, "duration": 49}, {"note": 0, "velocity": 0, "duration": 71}, {"note": 75, "velocity": 112, "duration": 56}, {"note": 0, "velocity": 0, "duration": 64}, {"note": 77, "velocity": 112, "duration": 552}, {"note": 0, "velocity": 0, "duration": 168}, {"note": 73, "velocity": 112, "duration": 63}, {"note": 75, "velocity": 112, "duration": 55}, {"note": 0, "velocity": 0, "duration": 65}, {"note": 77, "velocity": 109, "duration": 174}, {"note": 0, "velocity": 0, "duration": 66}, {"note": 77, "velocity": 101, "duration": 51}, {"note": 0, "velocity": 0, "duration": 69}, {"note": 77, "velocity": 101, "duration": 52}, {"note": 0, "velocity": 0, "duration": 68}, {"note": 77, "velocity": 109, "duration": 172}, {"note": 0, "velocity": 0, "duration": 68}, {"note": 77, "velocity": 101, "duration": 61}, {"note": 78, "velocity": 112, "duration": 59}, {"note": 0, "velocity": 0, "duration": 61}, {"note": 77, "velocity": 112, "duration": 175}, {"note": 0, "velocity": 0, "duration": 65}, {"note": 75, "velocity": 115, "duration": 352}, {"note": 0, "velocity": 0, "duration": 128}, {"note": 75, "velocity": 115, "duration": 59}, {"note": 0, "velocity": 0, "duration": 61}, {"note": 77, "velocity": 109, "duration": 52}, {"note": 0, "velocity": 0, "duration": 68}, {"note": 78, "velocity": 115, "duration": 175}, {"note": 0, "velocity": 0, "duration": 65}, {"note": 78, "velocity": 112, "duration": 50}, {"note": 0, "velocity": 0, "duration": 70}, {"note": 78, "velocity": 112, "duration": 52}, {"note": 0, "velocity": 0, "duration": 68}, {"note": 78, "velocity": 115, "duration": 171}, {"note": 0, "velocity": 0, "duration": 69}, {"note": 77, "velocity": 106, "duration": 52}, {"note": 0, "velocity": 0, "duration": 68}, {"note": 75, "velocity": 106, "duration": 54}, {"note": 0, "velocity": 0, "duration": 66}, {"note": 77, "velocity": 109, "duration": 523}, {"note": 0, "velocity": 0, "duration": 197}, {"note": 73, "velocity": 109, "duration": 59}, {"note": 0, "velocity": 0, "duration": 61}, {"note": 75, "velocity": 112, "duration": 58}, {"note": 0, "velocity": 0, "duration": 62}, {"note": 77, "velocity": 109, "duration": 118}, {"note": 77, "velocity": 109, "duration": 118}, {"note": 77, "velocity": 101, "duration": 51}, {"note": 0, "velocity": 0, "duration": 69}, {"note": 77, "velocity": 104, "duration": 52}, {"note": 0, "velocity": 0, "duration": 68}, {"note": 77, "velocity": 106, "duration": 176}, {"note": 0, "velocity": 0, "duration": 64}, {"note": 77, "velocity": 101, "duration": 72}, {"note": 78, "velocity": 109, "duration": 66}, {"note": 77, "velocity": 112, "duration": 179}, {"note": 0, "velocity": 0, "duration": 61}, {"note": 75, "velocity": 112, "duration": 718}]]