[[{"note": 60, "velocity": 115, "duration": 178}, {"note": 0, "velocity": 0, "duration": 62}, {"note": 60, "velocity": 109, "duration": 418}, {"note": 0, "velocity": 0, "duration": 62}, {"note": 63, "velocity": 123, "duration": 181}, {"note": 62, "velocity": 118, "duration": 180}, {"note": 60, "velocity": 112, "duration": 162}, {"note": 0, "velocity": 0, "duration": 78}, {"note": 60, "velocity": 109, "duration": 182}, {"note": 58, "velocity": 120, "duration": 167}, {"note": 0, "velocity": 0, "duration": 73}, {"note": 60, "velocity": 112, "duration": 1357}, {"note": 0, "velocity": 0, "duration": 83}, {"note": 63, "velocity": 120, "duration": 174}, {"note": 0, "velocity": 0, "duration": 66}, {"note": 65, "velocity": 112, "duration": 180}, {"note": 67, "velocity": 109, "duration": 172}, {"note": 0, "velocity": 0, "duration": 68}, {"note": 67, "velocity": 109, "duration": 391}, {"note": 0, "velocity": 0, "duration": 89}, {"note": 72, "velocity": 112, "duration": 170}, {"note": 0, "velocity": 0, "duration": 70}, {"note": 70, "velocity": 123, "duration": 185}, {"note": 72, "velocity": 112, "duration": 162}, {"note": 0, "velocity": 0, "duration": 78}, {"note": 70, "velocity": 123, "duration": 186}, {"note": 65, "velocity": 115, "duration": 162}, {"note": 0, "velocity": 0, "duration": 78}, {"note": 67, "velocity": 112, "duration": 1305}, {"note": 0, "velocity": 0, "duration": 135}, {"note": 67, "velocity": 115, "duration": 173}, {"note": 0, "velocity": 0, "duration": 67}, {"note": 70, "velocity": 117, "duration": 164}, {"note": 0, "velocity": 0, "duration": 76}, {"note": 72, "velocity": 106, "duration": 166}, {"note": 0, "velocity": 0, "duration": 74}, {"note": 72, "velocity": 115, "duration": 405}, {"note": 0, "velocity": 0, "duration": 75}, {"note": 70, "velocity": 117, "duration": 161}, {"note": 0, "velocity": 0, "duration": 79}, {"note": 72, "velocity": 109, "duration": 339}, {"note": 0, "velocity": 0, "duration": 141}, {"note": 67, "velocity": 112, "duration": 170}, {"note": 0, "velocity": 0, "duration": 70}, {"note": 63, "velocity": 117, "duration": 150}, {"note": 0, "velocity": 0, "duration": 90}, {"note": 65, "velocity": 109, "duration": 156}, {"note": 0, "velocity": 0, "duration": 84}, {"note": 65, "velocity": 118, "duration": 373}, {"note": 0, "velocity": 0, "duration": 107}, {"note": 63, "velocity": 117, "duration": 184}, {"note": 67, "velocity": 115, "duration": 435}, {"note": 0, "velocity": 0, "duration": 525}, {"note": 62, "velocity": 115, "duration": 262}, {"note": 0, "velocity": 0, "duration": 98}, {"note": 62, "velocity": 109, "duration": 73}, {"note": 62, "velocity": 112, "duration": 139}, {"note": 0, "velocity": 0, "duration": 101}, {"note": 60, "velocity": 109, "duration": 168}, {"note": 0, "velocity": 0, "duration": 72}, {"note": 58, "velocity": 120, "duration": 151}, {"note": 0, "velocity": 0, "duration": 89}, {"note": 60, "velocity": 106, "duration": 193}, {"note": 63, "velocity": 120, "duration": 165}, {"note": 0, "velocity": 0, "duration": 75}, {"note": 62, "velocity": 115, "duration": 150}, {"note": 0, "velocity": 0, "duration": 90}, {"note": 60, "velocity": 112, "duration": 1778}, {"note": 0, "velocity": 0, "duration": 142}, {"note": 60, "velocity": 115, "duration": 178}, {"note": 0, "velocity": 0, "duration": 62}, {"note": 60, "velocity": 109, "duration": 418}, {"note": 0, "velocity": 0, "duration": 62}, {"note": 63, "velocity": 123, "duration": 181}, {"note": 62, "velocity": 118, "duration": 180}, {"note": 60, "velocity": 112, "duration": 162}, {"note": 0, "velocity": 0, "duration": 78}, {"note": 60, "velocity": 109, "duration": 182}, {"note": 58, "velocity": 120, "duration": 167}, {"note": 0, "velocity": 0, "duration": 73}, {"note": 60, "velocity": 112, "duration": 1357}, {"note": 0, "velocity": 0, "duration": 83}, {"note": 63, "velocity": 120, "duration": 174}, {"note": 0, "velocity": 0, "duration": 66}, {"note": 65, "velocity": 112, "duration": 180}, {"note": 67, "velocity": 109, "duration": 172}, {"note": 0, "velocity": 0, "duration": 68}, {"note": 67, "velocity": 109, "duration": 391}, {"note": 0, "velocity": 0, "duration": 89}, {"note": 72, "velocity": 112, "duration": 170}, {"note": 0, "velocity": 0, "duration": 70}, {"note": 70, "velocity": 123, "duration": 185}, {"note": 72, "velocity": 112, "duration": 162}, {"note": 0, "velocity": 0, "duration": 78}, {"note": 70, "velocity": 123, "duration": 186}, {"note": 65, "velocity": 115, "duration": 162}, {"note": 0, "velocity": 0, "duration": 78}, {"note": 67, "velocity": 112, "duration": 1305}, {"note": 0, "velocity": 0, "duration": 135}, {"note": 67, "velocity": 115, "duration": 173}, {"note": 0, "velocity": 0, "duration": 67}, {"note": 70, "velocity": 117, "duration": 164}, {"note": 0, "velocity": 0, "duration": 76}, {"note": 72, "velocity": 106, "duration": 166}, {"note": 0, "velocity": 0, "duration": 74}, {"note": 72, "velocity": 115, "duration": 405}, {"note": 0, "velocity": 0, "duration": 75}, {"note": 70, "velocity": 117, "duration": 161}, {"note": 0, "velocity": 0, "duration": 79}, {"note": 72, "velocity": 109, "duration": 339}, {"note": 0, "velocity": 0, "duration": 141}, {"note": 67, "velocity": 112, "duration": 170}, {"note": 0, "velocity": 0, "duration": 70}, {"note": 63, "velocity": 117, "duration": 150}, {"note": 0, "velocity": 0, "duration": 90}, {"note": 65, "velocity": 109, "duration": 156}, {"note": 0, "velocity": 0, "duration": 84}, {"note": 65, "velocity": 118, "duration": 373}, {"note": 0, "velocity": 0, "duration": 107}, {"note": 63, "velocity": 117, "duration": 184}, {"note": 67, "velocity": 115, "duration": 435}, {"note": 0, "velocity": 0, "duration": 525}, {"note": 62, "velocity": 115, "duration": 262}, {"note": 0, "velocity": 0, "duration": 98}, {"note": 62, "velocity": 109, "duration": 73}, {"note": 62, "velocity": 112, "duration": 139}, {"note": 0, "velocity": 0, "duration": 101}, {"note": 60, "velocity": 109, "duration": 168}, {"note": 0, "velocity": 0, "duration": 72}, {"note": 58, "velocity": 120, "duration": 151}, {"note": 0, "velocity": 0, "duration": 89}, {"note": 60, "velocity": 106, "duration": 193}, {"note": 63, "velocity": 120, "duration": 165}, {"note": 0, "velocity": 0, "duration": 75}, {"note": 62, "velocity": 115, "duration": 150}, {"note": 0, "velocity": 0, "duration": 90}, {"note": 60, "velocity": 112, "duration": 1621}, {"note": 67, "velocity": 118, "duration": 180}, {"note": 72, "velocity": 115, "duration": 157}, {"note": 0, "velocity": 0, "duration": 83}, {"note": 72, "velocity": 109, "duration": 161}, {"note": 0, "velocity": 0, "duration": 79}, {"note": 72, "velocity": 112, "duration": 173}, {"note": 0, "velocity": 0, "duration": 67}, {"note": 70, "velocity": 123, "duration": 159}, {"note": 0, "velocity": 0, "duration": 81}, {"note": 72, "velocity": 112, "duration": 625}, {"note": 0, "velocity": 0, "duration": 95}, {"note": 75, "velocity": 120, "duration": 162}, {"note": 0, "velocity": 0, "duration": 78}, {"note": 74, "velocity": 118, "duration": 169}, {"note": 0, "velocity": 0, "duration": 71}, {"note": 72, "velocity": 106, "duration": 144}, {"note": 0, "velocity": 0, "duration": 96}, {"note": 70, "velocity": 120, "duration": 185}, {"note": 65, "velocity": 115, "duration": 150}, {"note": 0, "velocity": 0, "duration": 90}, {"note": 67, "velocity": 115, "duration": 543}, {"note": 0, "velocity": 0, "duration": 417}, {"note": 74, "velocity": 112, "duration": 251}, {"note": 0, "velocity": 0, "duration": 109}, {"note": 74, "velocity": 112, "duration": 60}, {"note": 74, "velocity": 112, "duration": 150}, {"note": 0, "velocity": 0, "duration": 90}, {"note": 72, "velocity": 109, "duration": 166}, {"note": 0, "velocity": 0, "duration": 74}, {"note": 70, "velocity": 120, "duration": 161}, {"note": 0, "velocity": 0, "duration": 79}, {"note": 72, "velocity": 109, "duration": 128}, {"note": 0, "velocity": 0, "duration": 112}, {"note": 70, "velocity": 120, "duration": 180}, {"note": 65, "velocity": 115, "duration": 155}, {"note": 0, "velocity": 0, "duration": 85}, {"note": 67, "velocity": 112, "duration": 1304}, {"note": 0, "velocity": 0, "duration": 376}, {"note": 67, "velocity": 115, "duration": 154}, {"note": 0, "velocity": 0, "duration": 86}, {"note": 65, "velocity": 112, "duration": 161}, {"note": 0, "velocity": 0, "duration": 79}, {"note": 65, "velocity": 106, "duration": 57}, {"note": 0, "velocity": 0, "duration": 63}, {"note": 67, "velocity": 112, "duration": 72}, {"note": 65, "velocity": 118, "duration": 154}, {"note": 0, "velocity": 0, "duration": 86}, {"note": 63, "velocity": 120, "duration": 159}, {"note": 0, "velocity": 0, "duration": 81}, {"note": 65, "velocity": 115, "duration": 538}, {"note": 0, "velocity": 0, "duration": 182}, {"note": 67, "velocity": 115, "duration": 170}, {"note": 0, "velocity": 0, "duration": 70}, {"note": 70, "velocity": 120, "duration": 168}, {"note": 0, "velocity": 0, "duration": 72}, {"note": 72, "velocity": 106, "duration": 149}, {"note": 0, "velocity": 0, "duration": 91}, {"note": 70, "velocity": 123, "duration": 134}, {"note": 0, "velocity": 0, "duration": 106}, {"note": 58, "velocity": 120, "duration": 169}, {"note": 0, "velocity": 0, "duration": 71}, {"note": 60, "velocity": 106, "duration": 500}, {"note": 0, "velocity": 0, "duration": 460}, {"note": 74, "velocity": 115, "duration": 255}, {"note": 0, "velocity": 0, "duration": 105}, {"note": 74, "velocity": 115, "duration": 62}, {"note": 74, "velocity": 112, "duration": 152}, {"note": 0, "velocity": 0, "duration": 88}, {"note": 72, "velocity": 112, "duration": 150}, {"note": 0, "velocity": 0, "duration": 90}, {"note": 70, "velocity": 117, "duration": 150}, {"note": 0, "velocity": 0, "duration": 90}, {"note": 67, "velocity": 115, "duration": 399}, {"note": 0, "velocity": 0, "duration": 81}, {"note": 70, "velocity": 117, "duration": 165}, {"note": 0, "velocity": 0, "duration": 75}, {"note": 72, "velocity": 112, "duration": 1481}, {"note": 0, "velocity": 0, "duration": 199}, {"note": 67, "velocity": 118, "duration": 180}, {"note": 72, "velocity": 115, "duration": 157}, {"note": 0, "velocity": 0, "duration": 83}, {"note": 72, "velocity": 109, "duration": 161}, {"note": 0, "velocity": 0, "duration": 79}, {"note": 72, "velocity": 112, "duration": 173}, {"note": 0, "velocity": 0, "duration": 67}, {"note": 70, "velocity": 123, "duration": 159}, {"note": 0, "velocity": 0, "duration": 81}, {"note": 72, "velocity": 112, "duration": 625}, {"note": 0, "velocity": 0, "duration": 95}, {"note": 75, "velocity": 120, "duration": 162}, {"note": 0, "velocity": 0, "duration": 78}, {"note": 74, "velocity": 118, "duration": 169}, {"note": 0, "velocity": 0, "duration": 71}, {"note": 72, "velocity": 106, "duration": 144}, {"note": 0, "velocity": 0, "duration": 96}, {"note": 70, "velocity": 120, "duration": 185}, {"note": 65, "velocity": 115, "duration": 150}, {"note": 0, "velocity": 0, "duration": 90}, {"note": 67, "velocity": 115, "duration": 543}, {"note": 0, "velocity": 0, "duration": 417}, {"note": 74, "velocity": 112, "duration": 251}, {"note": 0, "velocity": 0, "duration": 109}, {"note": 74, "velocity": 112, "duration": 60}, {"note": 74, "velocity": 112, "duration": 150}, {"note": 0, "velocity": 0, "duration": 90}, {"note": 72, "velocity": 109, "duration": 166}, {"note": 0, "velocity": 0, "duration": 74}, {"note": 70, "velocity": 120, "duration": 161}, {"note": 0, "velocity": 0, "duration": 79}, {"note": 72, "velocity": 109, "duration": 128}, {"note": 0, "velocity": 0, "duration": 112}, {"note": 70, "velocity": 120, "duration": 180}, {"note": 65, "velocity": 115, "duration": 155}, {"note": 0, "velocity": 0, "duration": 85}, {"note": 67, "velocity": 112, "duration": 1304}, {"note": 0, "velocity": 0, "duration": 376}, {"note": 67, "velocity": 115, "duration": 154}, {"note": 0, "velocity": 0, "duration": 86}, {"note": 65, "velocity": 112, "duration": 161}, {"note": 0, "velocity": 0, "duration": 79}, {"note": 65, "velocity": 106, "duration": 57}, {"note": 0, "velocity": 0, "duration": 63}, {"note": 67, "velocity": 112, "duration": 72}, {"note": 65, "velocity": 118, "duration": 154}, {"note": 0, "velocity": 0, "duration": 86}, {"note": 63, "velocity": 120, "duration": 159}, {"note": 0, "velocity": 0, "duration": 81}, {"note": 65, "velocity": 115, "duration": 538}, {"note": 0, "velocity": 0, "duration": 182}, {"note": 67, "velocity": 115, "duration": 170}, {"note": 0, "velocity": 0, "duration": 70}, {"note": 70, "velocity": 120, "duration": 168}, {"note": 0, "velocity": 0, "duration": 72}, {"note": 72, "velocity": 106, "duration": 149}, {"note": 0, "velocity": 0, "duration": 91}, {"note": 70, "velocity": 123, "duration": 134}, {"note": 0, "velocity": 0, "duration": 106}, {"note": 58, "velocity": 120, "duration": 169}, {"note": 0, "velocity": 0, "duration": 71}, {"note": 60, "velocity": 106, "duration": 500}, {"note": 0, "velocity": 0, "duration": 460}, {"note": 74, "velocity": 115, "duration": 255}, {"note": 0, "velocity": 0, "duration": 105}, {"note": 74, "velocity": 115, "duration": 62}, {"note": 74, "velocity": 112, "duration": 152}, {"note": 0, "velocity": 0, "duration": 88}, {"note": 72, "velocity": 112, "duration": 150}, {"note": 0, "velocity": 0, "duration": 90}, {"note": 70, "velocity": 117, "duration": 150}, {"note": 0, "velocity": 0, "duration": 90}, {"note": 67, "velocity": 115, "duration": 399}, {"note": 0, "velocity": 0, "duration": 81}, {"note": 70, "velocity": 117, "duration": 165}, {"note": 0, "velocity": 0, "duration": 75}, {"note": 72, "velocity": 112, "duration": 1481}, {"note": 0, "velocity": 0, "duration": 15799}, {"note": 60, "velocity": 115, "duration": 178}, {"note": 0, "velocity": 0, "duration": 62}, {"note": 60, "velocity": 109, "duration": 418}, {"note": 0, "velocity": 0, "duration": 62}, {"note": 63, "velocity": 123, "duration": 181}, {"note": 62, "velocity": 118, "duration": 180}, {"note": 60, "velocity": 112, "duration": 162}, {"note": 0, "velocity": 0, "duration": 78}, {"note": 60, "velocity": 109, "duration": 182}, {"note": 58, "velocity": 120, "duration": 167}, {"note": 0, "velocity": 0, "duration": 73}, {"note": 60, "velocity": 112, "duration": 1357}, {"note": 0, "velocity": 0, "duration": 83}, {"note": 63, "velocity": 120, "duration": 174}, {"note": 0, "velocity": 0, "duration": 66}, {"note": 65, "velocity": 112, "duration": 180}, {"note": 67, "velocity": 109, "duration": 172}, {"note": 0, "velocity": 0, "duration": 68}, {"note": 67, "velocity": 109, "duration": 391}, {"note": 0, "velocity": 0, "duration": 89}, {"note": 72, "velocity": 112, "duration": 170}, {"note": 0, "velocity": 0, "duration": 70}, {"note": 70, "velocity": 123, "duration": 185}, {"note": 72, "velocity": 112, "duration": 162}, {"note": 0, "velocity": 0, "duration": 78}, {"note": 70, "velocity": 123, "duration": 186}, {"note": 65, "velocity": 115, "duration": 162}, {"note": 0, "velocity": 0, "duration": 78}, {"note": 67, "velocity": 112, "duration": 1305}, {"note": 0, "velocity": 0, "duration": 135}, {"note": 67, "velocity": 115, "duration": 173}, {"note": 0, "velocity": 0, "duration": 67}, {"note": 70, "velocity": 117, "duration": 164}, {"note": 0, "velocity": 0, "duration": 76}, {"note": 72, "velocity": 106, "duration": 166}, {"note": 0, "velocity": 0, "duration": 74}, {"note": 72, "velocity": 115, "duration": 405}, {"note": 0, "velocity": 0, "duration": 75}, {"note": 70, "velocity": 117, "duration": 161}, {"note": 0, "velocity": 0, "duration": 79}, {"note": 72, "velocity": 109, "duration": 339}, {"note": 0, "velocity": 0, "duration": 141}, {"note": 67, "velocity": 112, "duration": 170}, {"note": 0, "velocity": 0, "duration": 70}, {"note": 63, "velocity": 117, "duration": 150}, {"note": 0, "velocity": 0, "duration": 90}, {"note": 65, "velocity": 109, "duration": 156}, {"note": 0, "velocity": 0, "duration": 84}, {"note": 65, "velocity": 118, "duration": 373}, {"note": 0, "velocity": 0, "duration": 107}, {"note": 63, "velocity": 117, "duration": 184}, {"note": 67, "velocity": 115, "duration": 435}, {"note": 0, "velocity": 0, "duration": 525}, {"note": 62, "velocity": 115, "duration": 262}, {"note": 0, "velocity": 0, "duration": 98}, {"note": 62, "velocity": 109, "duration": 73}, {"note": 62, "velocity": 112, "duration": 139}, {"note": 0, "velocity": 0, "duration": 101}, {"note": 60, "velocity": 109, "duration": 168}, {"note": 0, "velocity": 0, "duration": 72}, {"note": 58, "velocity": 120, "duration": 151}, {"note": 0, "velocity": 0, "duration": 89}, {"note": 60, "velocity": 106, "duration": 193}, {"note": 63, "velocity": 120, "duration": 165}, {"note": 0, "velocity": 0, "duration": 75}, {"note": 62, "velocity": 115, "duration": 150}, {"note": 0, "velocity": 0, "duration": 90}, {"note": 60, "velocity": 112, "duration": 1621}, {"note": 67, "velocity": 118, "duration": 180}, {"note": 72, "velocity": 115, "duration": 157}, {"note": 0, "velocity": 0, "duration": 83}, {"note": 72, "velocity": 109, "duration": 161}, {"note": 0, "velocity": 0, "duration": 79}, {"note": 72, "velocity": 112, "duration": 173}, {"note": 0, "velocity": 0, "duration": 67}, {"note": 70, "velocity": 123, "duration": 159}, {"note": 0, "velocity": 0, "duration": 81}, {"note": 72, "velocity": 112, "duration": 625}, {"note": 0, "velocity": 0, "duration": 95}, {"note": 75, "velocity": 120, "duration": 162}, {"note": 0, "velocity": 0, "duration": 78}, {"note": 74, "velocity": 118, "duration": 169}, {"note": 0, "velocity": 0, "duration": 71}, {"note": 72, "velocity": 106, "duration": 144}, {"note": 0, "velocity": 0, "duration": 96}, {"note": 70, "velocity": 120, "duration": 185}, {"note": 65, "velocity": 115, "duration": 150}, {"note": 0, "velocity": 0, "duration": 90}, {"note": 67, "velocity": 115, "duration": 543}, {"note": 0, "velocity": 0, "duration": 417}, {"note": 74, "velocity": 112, "duration": 251}, {"note": 0, "velocity": 0, "duration": 109}, {"note": 74, "velocity": 112, "duration": 60}, {"note": 74, "velocity": 112, "duration": 150}, {"note": 0, "velocity": 0, "duration": 90}, {"note": 72, "velocity": 109, "duration": 166}, {"note": 0, "velocity": 0, "duration": 74}, {"note": 70, "velocity": 120, "duration": 161}, {"note": 0, "velocity": 0, "duration": 79}, {"note": 72, "velocity": 109, "duration": 128}, {"note": 0, "velocity": 0, "duration": 112}, {"note": 70, "velocity": 120, "duration": 180}, {"note": 65, "velocity": 115, "duration": 155}, {"note": 0, "velocity": 0, "duration": 85}, {"note": 67, "velocity": 112, "duration": 1304}, {"note": 0, "velocity": 0, "duration": 376}, {"note": 67, "velocity": 115, "duration": 154}, {"note": 0, "velocity": 0, "duration": 86}, {"note": 65, "velocity": 112, "duration": 161}, {"note": 0, "velocity": 0, "duration": 79}, {"note": 65, "velocity": 106, "duration": 57}, {"note": 0, "velocity": 0, "duration": 63}, {"note": 67, "velocity": 112, "duration": 72}, {"note": 65, "velocity": 118, "duration": 154}, {"note": 0, "velocity": 0, "duration": 86}, {"note": 63, "velocity": 120, "duration": 159}, {"note": 0, "velocity": 0, "duration": 81}, {"note": 65, "velocity": 115, "duration": 538}, {"note": 0, "velocity": 0, "duration": 182}, {"note": 67, "velocity": 115, "duration": 170}, {"note": 0, "velocity": 0, "duration": 70}, {"note": 70, "velocity": 120, "duration": 168}, {"note": 0, "velocity": 0, "duration": 72}, {"note": 72, "velocity": 106, "duration": 149}, {"note": 0, "velocity": 0, "duration": 91}, {"note": 70, "velocity": 123, "duration": 134}, {"note": 0, "velocity": 0, "duration": 106}, {"note": 58, "velocity": 120, "duration": 169}, {"note": 0, "velocity": 0, "duration": 71}, {"note": 60, "velocity": 106, "duration": 500}, {"note": 0, "velocity": 0, "duration": 460}, {"note": 74, "velocity": 115, "duration": 255}, {"note": 0, "velocity": 0, "duration": 105}, {"note": 74, "velocity": 115, "duration": 62}, {"note": 74, "velocity": 112, "duration": 152}, {"note": 0, "velocity": 0, "duration": 88}, {"note": 72, "velocity": 112, "duration": 150}, {"note": 0, "velocity": 0, "duration": 90}, {"note": 70, "velocity": 117, "duration": 150}, {"note": 0, "velocity": 0, "duration": 90}, {"note": 67, "velocity": 115, "duration": 399}, {"note": 0, "velocity": 0, "duration": 81}, {"note": 70, "velocity": 117, "duration": 165}, {"note": 0, "velocity": 0, "duration": 75}, {"note": 72, "velocity": 112, "duration": 1481}, {"note": 0, "velocity": 0, "duration": 199}, {"note": 67, "velocity": 118, "duration": 180}, {"note": 72, "velocity": 115, "duration": 157}, {"note": 0, "velocity": 0, "duration": 83}, {"note": 72, "velocity": 109, "duration": 161}, {"note": 0, "velocity": 0, "duration": 79}, {"note": 72, "velocity": 112, "duration": 173}, {"note": 0, "velocity": 0, "duration": 67}, {"note": 70, "velocity": 123, "duration": 159}, {"note": 0, "velocity": 0, "duration": 81}, {"note": 72, "velocity": 112, "duration": 625}, {"note": 0, "velocity": 0, "duration": 95}, {"note": 75, "velocity": 120, "duration": 162}, {"note": 0, "velocity": 0, "duration": 78}, {"note": 74, "velocity": 118, "duration": 169}, {"note": 0, "velocity": 0, "duration": 71}, {"note": 72, "velocity": 106, "duration": 144}, {"note": 0, "velocity": 0, "duration": 96}, {"note": 70, "velocity": 120, "duration": 185}, {"note": 65, "velocity": 115, "duration": 150}, {"note": 0, "velocity": 0, "duration": 90}, {"note": 67, "velocity": 115, "duration": 543}, {"note": 0, "velocity": 0, "duration": 417}, {"note": 74, "velocity": 112, "duration": 251}, {"note": 0, "velocity": 0, "duration": 109}, {"note": 74, "velocity": 112, "duration": 60}, {"note": 74, "velocity": 112, "duration": 150}, {"note": 0, "velocity": 0, "duration": 90}, {"note": 72, "velocity": 109, "duration": 166}, {"note": 0, "velocity": 0, "duration": 74}, {"note": 70, "velocity": 120, "duration": 161}, {"note": 0, "velocity": 0, "duration": 79}, {"note": 72, "velocity": 109, "duration": 128}, {"note": 0, "velocity": 0, "duration": 112}, {"note": 70, "velocity": 120, "duration": 180}, {"note": 65, "velocity": 115, "duration": 155}, {"note": 0, "velocity": 0, "duration": 85}, {"note": 67, "velocity": 112, "duration": 1304}, {"note": 0, "velocity": 0, "duration": 376}, {"note": 67, "velocity": 115, "duration": 154}, {"note": 0, "velocity": 0, "duration": 86}, {"note": 65, "velocity": 112, "duration": 161}, {"note": 0, "velocity": 0, "duration": 79}, {"note": 65, "velocity": 106, "duration": 57}, {"note": 0, "velocity": 0, "duration": 63}, {"note": 67, "velocity": 112, "duration": 72}, {"note": 65, "velocity": 118, "duration": 154}, {"note": 0, "velocity": 0, "duration": 86}, {"note": 63, "velocity": 120, "duration": 159}, {"note": 0, "velocity": 0, "duration": 81}, {"note": 65, "velocity": 115, "duration": 538}, {"note": 0, "velocity": 0, "duration": 182}, {"note": 67, "velocity": 115, "duration": 170}, {"note": 0, "velocity": 0, "duration": 70}, {"note": 70, "velocity": 120, "duration": 168}, {"note": 0, "velocity": 0, "duration": 72}, {"note": 72, "velocity": 106, "duration": 149}, {"note": 0, "velocity": 0, "duration": 91}, {"note": 70, "velocity": 123, "duration": 134}, {"note": 0, "velocity": 0, "duration": 106}, {"note": 58, "velocity": 120, "duration": 169}, {"note": 0, "velocity": 0, "duration": 71}, {"note": 60, "velocity": 106, "duration": 500}, {"note": 0, "velocity": 0, "duration": 460}, {"note": 74, "velocity": 115, "duration": 255}, {"note": 0, "velocity": 0, "duration": 105}, {"note": 74, "velocity": 115, "duration": 62}, {"note": 74, "velocity": 112, "duration": 152}, {"note": 0, "velocity": 0, "duration": 88}, {"note": 72, "velocity": 112, "duration": 150}, {"note": 0, "velocity": 0, "duration": 90}, {"note": 70, "velocity": 117, "duration": 150}, {"note": 0, "velocity": 0, "duration": 90}, {"note": 67, "velocity": 115, "duration": 399}, {"note": 0, "velocity": 0, "duration": 81}, {"note": 70, "velocity": 117, "duration": 165}, {"note": 0, "velocity": 0, "duration": 75}, {"note": 72, "velocity": 112, "duration": 1481}, {"note": 0, "velocity": 0, "duration": 199}, {"note": 67, "velocity": 118, "duration": 180}, {"note": 72, "velocity": 115, "duration": 157}, {"note": 0, "velocity": 0, "duration": 83}, {"note": 72, "velocity": 109, "duration": 161}, {"note": 0, "velocity": 0, "duration": 79}, {"note": 72, "velocity": 112, "duration": 173}, {"note": 0, "velocity": 0, "duration": 67}, {"note": 70, "velocity": 123, "duration": 159}, {"note": 0, "velocity": 0, "duration": 81}, {"note": 72, "velocity": 112, "duration": 625}, {"note": 0, "velocity": 0, "duration": 95}, {"note": 75, "velocity": 120, "duration": 162}, {"note": 0, "velocity": 0, "duration": 78}, {"note": 74, "velocity": 118, "duration": 169}, {"note": 0, "velocity": 0, "duration": 71}, {"note": 72, "velocity": 106, "duration": 144}, {"note": 0, "velocity": 0, "duration": 96}, {"note": 70, "velocity": 120, "duration": 185}, {"note": 65, "velocity": 115, "duration": 150}, {"note": 0, "velocity": 0, "duration": 90}, {"note": 67, "velocity": 115, "duration": 543}, {"note": 0, "velocity": 0, "duration": 417}, {"note": 74, "velocity": 112, "duration": 251}, {"note": 0, "velocity": 0, "duration": 109}, {"note": 74, "velocity": 112, "duration": 60}, {"note": 74, "velocity": 112, "duration": 150}, {"note": 0, "velocity": 0, "duration": 90}, {"note": 72, "velocity": 109, "duration": 166}, {"note": 0, "velocity": 0, "duration": 74}, {"note": 70, "velocity": 120, "duration": 161}, {"note": 0, "velocity": 0, "duration": 79}, {"note": 72, "velocity": 109, "duration": 128}, {"note": 0, "velocity": 0, "duration": 112}, {"note": 70, "velocity": 120, "duration": 180}, {"note": 65, "velocity": 115, "duration": 155}, {"note": 0, "velocity": 0, "duration": 85}, {"note": 67, "velocity": 112, "duration": 1304}, {"note": 0, "velocity": 0, "duration": 376}, {"note": 67, "velocity": 115, "duration": 154}, {"note": 0, "velocity": 0, "duration": 86}, {"note": 65, "velocity": 112, "duration": 161}, {"note": 0, "velocity": 0, "duration": 79}, {"note": 65, "velocity": 106, "duration": 57}, {"note": 0, "velocity": 0, "duration": 63}, {"note": 67, "velocity": 112, "duration": 72}, {"note": 65, "velocity": 118, "duration": 154}, {"note": 0, "velocity": 0, "duration": 86}, {"note": 63, "velocity": 120, "duration": 159}, {"note": 0, "velocity": 0, "duration": 81}, {"note": 65, "velocity": 115, "duration": 538}, {"note": 0, "velocity": 0, "duration": 182}, {"note": 67, "velocity": 115, "duration": 170}, {"note": 0, "velocity": 0, "duration": 70}, {"note": 70, "velocity": 120, "duration": 168}, {"note": 0, "velocity": 0, "duration": 72}, {"note": 72, "velocity": 106, "duration": 149}, {"note": 0, "velocity": 0, "duration": 91}, {"note": 70, "velocity": 123, "duration": 134}, {"note": 0, "velocity": 0, "duration": 106}, {"note": 58, "velocity": 120, "duration": 169}, {"note": 0, "velocity": 0, "duration": 71}, {"note": 60, "velocity": 106, "duration": 500}, {"note": 0, "velocity": 0, "duration": 460}, {"note": 74, "velocity": 115, "duration": 255}, {"note": 0, "velocity": 0, "duration": 105}, {"note": 74, "velocity": 115, "duration": 62}, {"note": 74, "velocity": 112, "duration": 152}, {"note": 0, "velocity": 0, "duration": 88}, {"note": 72, "velocity": 112, "duration": 150}, {"note": 0, "velocity": 0, "duration": 90}, {"note": 70, "velocity": 117, "duration": 150}, {"note": 0, "velocity": 0, "duration": 90}, {"note": 67, "velocity": 115, "duration": 399}, {"note": 0, "velocity": 0, "duration": 81}, {"note": 70, "velocity": 117, "duration": 165}, {"note": 0, "velocity": 0, "duration": 75}, {"note": 72, "velocity": 112, "duration": 1481}, {"note": 0, "velocity": 0, "duration": 199}, {"note": 67, "velocity": 118, "duration": 180}, {"note": 72, "velocity": 115, "duration": 157}, {"note": 0, "velocity": 0, "duration": 83}, {"note": 72, "velocity": 109, "duration": 161}, {"note": 0, "velocity": 0, "duration": 79}, {"note": 72, "velocity": 112, "duration": 173}, {"note": 0, "velocity": 0, "duration": 67}, {"note": 70, "velocity": 123, "duration": 159}, {"note": 0, "velocity": 0, "duration": 81}, {"note": 72, "velocity": 112, "duration": 625}, {"note": 0, "velocity": 0, "duration": 95}, {"note": 75, "velocity": 120, "duration": 162}, {"note": 0, "velocity": 0, "duration": 78}, {"note": 74, "velocity": 118, "duration": 169}, {"note": 0, "velocity": 0, "duration": 71}, {"note": 72, "velocity": 106, "duration": 144}, {"note": 0, "velocity": 0, "duration": 96}, {"note": 70, "velocity": 120, "duration": 185}, {"note": 65, "velocity": 115, "duration": 150}, {"note": 0, "velocity": 0, "duration": 90}, {"note": 67, "velocity": 115, "duration": 543}, {"note": 0, "velocity": 0, "duration": 417}, {"note": 74, "velocity": 112, "duration": 251}, {"note": 0, "velocity": 0, "duration": 109}, {"note": 74, "velocity": 112, "duration": 60}, {"note": 74, "velocity": 112, "duration": 150}, {"note": 0, "velocity": 0, "duration": 90}, {"note": 72, "velocity": 109, "duration": 166}, {"note": 0, "velocity": 0, "duration": 74}, {"note": 70, "velocity": 120, "duration": 161}, {"note": 0, "velocity": 0, "duration": 79}, {"note": 72, "velocity": 109, "duration": 128}, {"note": 0, "velocity": 0, "duration": 112}, {"note": 70, "velocity": 120, "duration": 180}, {"note": 65, "velocity": 115, "duration": 155}, {"note": 0, "velocity": 0, "duration": 85}, {"note": 67, "velocity": 112, "duration": 1304}, {"note": 0, "velocity": 0, "duration": 376}, {"note": 67, "velocity": 115, "duration": 154}, {"note": 0, "velocity": 0, "duration": 86}, {"note": 65, "velocity": 112, "duration": 161}, {"note": 0, "velocity": 0, "duration": 79}, {"note": 65, "velocity": 106, "duration": 57}, {"note": 0, "velocity": 0, "duration": 63}, {"note": 67, "velocity": 112, "duration": 72}, {"note": 65, "velocity": 118, "duration": 154}, {"note": 0, "velocity": 0, "duration": 86}, {"note": 63, "velocity": 120, "duration": 159}, {"note": 0, "velocity": 0, "duration": 81}, {"note": 65, "velocity": 115, "duration": 538}, {"note": 0, "velocity": 0, "duration": 182}, {"note": 67, "velocity": 115, "duration": 170}, {"note": 0, "velocity": 0, "duration": 70}, {"note": 70, "velocity": 120, "duration": 168}, {"note": 0, "velocity": 0, "duration": 72}, {"note": 72, "velocity": 106, "duration": 149}, {"note": 0, "velocity": 0, "duration": 91}, {"note": 70, "velocity": 123, "duration": 134}, {"note": 0, "velocity": 0, "duration": 106}, {"note": 58, "velocity": 120, "duration": 169}, {"note": 0, "velocity": 0, "duration": 71}, {"note": 60, "velocity": 106, "duration": 500}, {"note": 0, "velocity": 0, "duration": 460}, {"note": 74, "velocity": 115, "duration": 255}, {"note": 0, "velocity": 0, "duration": 105}, {"note": 74, "velocity": 115, "duration": 62}, {"note": 74, "velocity": 112, "duration": 152}, {"note": 0, "velocity": 0, "duration": 88}, {"note": 72, "velocity": 112, "duration": 150}, {"note": 0, "velocity": 0, "duration": 90}, {"note": 70, "velocity": 117, "duration": 150}, {"note": 0, "velocity": 0, "duration": 90}, {"note": 67, "velocity": 115, "duration": 399}, {"note": 0, "velocity": 0, "duration": 81}, {"note": 70, "velocity": 117, "duration": 165}, {"note": 0, "velocity": 0, "duration": 75}, {"note": 72, "velocity": 112, "duration": 1481}, {"note": 0, "velocity": 0, "duration": 439}, {"note": 65, "velocity": 112, "duration": 161}, {"note": 0, "velocity": 0, "duration": 79}, {"note": 65, "velocity": 106, "duration": 57}, {"note": 0, "velocity": 0, "duration": 63}, {"note": 67, "velocity": 112, "duration": 72}, {"note": 65, "velocity": 118, "duration": 154}, {"note": 0, "velocity": 0, "duration": 86}, {"note": 63, "velocity": 120, "duration": 159}, {"note": 0, "velocity": 0, "duration": 81}, {"note": 65, "velocity": 115, "duration": 538}, {"note": 0, "velocity": 0, "duration": 182}, {"note": 67, "velocity": 115, "duration": 170}, {"note": 0, "velocity": 0, "duration": 70}, {"note": 70, "velocity": 120, "duration": 168}, {"note": 0, "velocity": 0, "duration": 72}, {"note": 72, "velocity": 106, "duration": 149}, {"note": 0, "velocity": 0, "duration": 91}, {"note": 70, "velocity": 123, "duration": 134}, {"note": 0, "velocity": 0, "duration": 106}, {"note": 58, "velocity": 120, "duration": 169}, {"note": 0, "velocity": 0, "duration": 71}, {"note": 60, "velocity": 106, "duration": 500}, {"note": 0, "velocity": 0, "duration": 460}, {"note": 74, "velocity": 115, "duration": 255}, {"note": 0, "velocity": 0, "duration": 105}, {"note": 74, "velocity": 115, "duration": 62}, {"note": 74, "velocity": 112, "duration": 152}, {"note": 0, "velocity": 0, "duration": 88}, {"note": 72, "velocity": 112, "duration": 150}, {"note": 0, "velocity": 0, "duration": 90}, {"note": 70, "velocity": 117, "duration": 150}, {"note": 0, "velocity": 0, "duration": 90}, {"note": 67, "velocity": 115, "duration": 813}, {"note": 70, "velocity": 117, "duration": 287}, {"note": 0, "velocity": 0, "duration": 75}, {"note": 72, "velocity": 112, "duration": 1481}]]