[[{"note": 65, "velocity": 112, "duration": 171}, {"note": 0, "velocity": 0, "duration": 69}, {"note": 63, "velocity": 109, "duration": 131}, {"note": 0, "velocity": 0, "duration": 109}, {"note": 61, "velocity": 106, "duration": 129}, {"note": 0, "velocity": 0, "duration": 111}, {"note": 60, "velocity": 109, "duration": 78}, {"note": 61, "velocity": 101, "duration": 284}, {"note": 0, "velocity": 0, "duration": 76}, {"note": 58, "velocity": 109, "duration": 324}, {"note": 0, "velocity": 0, "duration": 396}, {"note": 60, "velocity": 115, "duration": 169}, {"note": 0, "velocity": 0, "duration": 71}, {"note": 61, "velocity": 109, "duration": 123}, {"note": 0, "velocity": 0, "duration": 117}, {"note": 61, "velocity": 112, "duration": 174}, {"note": 0, "velocity": 0, "duration": 66}, {"note": 63, "velocity": 112, "duration": 63}, {"note": 61, "velocity": 109, "duration": 280}, {"note": 58, "velocity": 109, "duration": 573}, {"note": 0, "velocity": 0, "duration": 267}, {"note": 58, "velocity": 115, "duration": 200}, {"note": 63, "velocity": 106, "duration": 154}, {"note": 0, "velocity": 0, "duration": 86}, {"note": 63, "velocity": 109, "duration": 197}, {"note": 58, "velocity": 112, "duration": 168}, {"note": 0, "velocity": 0, "duration": 72}, {"note": 63, "velocity": 112, "duration": 211}, {"note": 58, "velocity": 112, "duration": 174}, {"note": 0, "velocity": 0, "duration": 66}, {"note": 63, "velocity": 106, "duration": 209}, {"note": 66, "velocity": 109, "duration": 178}, {"note": 0, "velocity": 0, "duration": 62}, {"note": 65, "velocity": 112, "duration": 1603}, {"note": 0, "velocity": 0, "duration": 317}, {"note": 63, "velocity": 112, "duration": 179}, {"note": 0, "velocity": 0, "duration": 61}, {"note": 70, "velocity": 115, "duration": 146}, {"note": 0, "velocity": 0, "duration": 94}, {"note": 70, "velocity": 109, "duration": 132}, {"note": 0, "velocity": 0, "duration": 108}, {"note": 63, "velocity": 109, "duration": 58}, {"note": 0, "velocity": 0, "duration": 62}, {"note": 63, "velocity": 106, "duration": 276}, {"note": 0, "velocity": 0, "duration": 84}, {"note": 61, "velocity": 109, "duration": 556}, {"note": 0, "velocity": 0, "duration": 164}, {"note": 60, "velocity": 112, "duration": 196}, {"note": 65, "velocity": 109, "duration": 132}, {"note": 0, "velocity": 0, "duration": 108}, {"note": 65, "velocity": 106, "duration": 142}, {"note": 0, "velocity": 0, "duration": 98}, {"note": 60, "velocity": 109, "duration": 118}, {"note": 0, "velocity": 0, "duration": 122}, {"note": 60, "velocity": 109, "duration": 198}, {"note": 58, "velocity": 109, "duration": 404}, {"note": 0, "velocity": 0, "duration": 76}, {"note": 58, "velocity": 115, "duration": 73}, {"note": 60, "velocity": 101, "duration": 47}, {"note": 0, "velocity": 0, "duration": 73}, {"note": 61, "velocity": 106, "duration": 569}, {"note": 0, "velocity": 0, "duration": 151}, {"note": 60, "velocity": 112, "duration": 97}, {"note": 61, "velocity": 106, "duration": 68}, {"note": 63, "velocity": 109, "duration": 160}, {"note": 0, "velocity": 0, "duration": 80}, {"note": 63, "velocity": 112, "duration": 303}, {"note": 0, "velocity": 0, "duration": 177}, {"note": 60, "velocity": 109, "duration": 166}, {"note": 0, "velocity": 0, "duration": 74}, {"note": 58, "velocity": 112, "duration": 1754}, {"note": 0, "velocity": 0, "duration": 166}, {"note": 65, "velocity": 112, "duration": 171}, {"note": 0, "velocity": 0, "duration": 69}, {"note": 63, "velocity": 109, "duration": 131}, {"note": 0, "velocity": 0, "duration": 109}, {"note": 61, "velocity": 106, "duration": 129}, {"note": 0, "velocity": 0, "duration": 111}, {"note": 60, "velocity": 109, "duration": 78}, {"note": 61, "velocity": 101, "duration": 284}, {"note": 0, "velocity": 0, "duration": 76}, {"note": 58, "velocity": 109, "duration": 324}, {"note": 0, "velocity": 0, "duration": 396}, {"note": 60, "velocity": 115, "duration": 169}, {"note": 0, "velocity": 0, "duration": 71}, {"note": 61, "velocity": 109, "duration": 123}, {"note": 0, "velocity": 0, "duration": 117}, {"note": 61, "velocity": 112, "duration": 174}, {"note": 0, "velocity": 0, "duration": 66}, {"note": 63, "velocity": 112, "duration": 63}, {"note": 61, "velocity": 109, "duration": 280}, {"note": 58, "velocity": 109, "duration": 573}, {"note": 0, "velocity": 0, "duration": 267}, {"note": 58, "velocity": 115, "duration": 200}, {"note": 63, "velocity": 106, "duration": 154}, {"note": 0, "velocity": 0, "duration": 86}, {"note": 63, "velocity": 109, "duration": 197}, {"note": 58, "velocity": 112, "duration": 168}, {"note": 0, "velocity": 0, "duration": 72}, {"note": 63, "velocity": 112, "duration": 211}, {"note": 58, "velocity": 112, "duration": 174}, {"note": 0, "velocity": 0, "duration": 66}, {"note": 63, "velocity": 106, "duration": 209}, {"note": 66, "velocity": 109, "duration": 178}, {"note": 0, "velocity": 0, "duration": 62}, {"note": 65, "velocity": 112, "duration": 1603}, {"note": 0, "velocity": 0, "duration": 317}, {"note": 63, "velocity": 112, "duration": 179}, {"note": 0, "velocity": 0, "duration": 61}, {"note": 70, "velocity": 115, "duration": 146}, {"note": 0, "velocity": 0, "duration": 94}, {"note": 70, "velocity": 109, "duration": 132}, {"note": 0, "velocity": 0, "duration": 108}, {"note": 63, "velocity": 109, "duration": 58}, {"note": 0, "velocity": 0, "duration": 62}, {"note": 63, "velocity": 106, "duration": 276}, {"note": 0, "velocity": 0, "duration": 84}, {"note": 61, "velocity": 109, "duration": 556}, {"note": 0, "velocity": 0, "duration": 164}, {"note": 60, "velocity": 112, "duration": 196}, {"note": 65, "velocity": 109, "duration": 132}, {"note": 0, "velocity": 0, "duration": 108}, {"note": 65, "velocity": 106, "duration": 142}, {"note": 0, "velocity": 0, "duration": 98}, {"note": 60, "velocity": 109, "duration": 118}, {"note": 0, "velocity": 0, "duration": 122}, {"note": 60, "velocity": 109, "duration": 198}, {"note": 58, "velocity": 109, "duration": 404}, {"note": 0, "velocity": 0, "duration": 76}, {"note": 58, "velocity": 115, "duration": 73}, {"note": 60, "velocity": 101, "duration": 47}, {"note": 0, "velocity": 0, "duration": 73}, {"note": 61, "velocity": 106, "duration": 569}, {"note": 0, "velocity": 0, "duration": 151}, {"note": 60, "velocity": 112, "duration": 97}, {"note": 61, "velocity": 106, "duration": 68}, {"note": 63, "velocity": 109, "duration": 160}, {"note": 0, "velocity": 0, "duration": 80}, {"note": 63, "velocity": 112, "duration": 303}, {"note": 0, "velocity": 0, "duration": 177}, {"note": 60, "velocity": 109, "duration": 166}, {"note": 0, "velocity": 0, "duration": 74}, {"note": 58, "velocity": 112, "duration": 1754}, {"note": 65, "velocity": 112, "duration": 64}, {"note": 70, "velocity": 112, "duration": 61}, {"note": 72, "velocity": 112, "duration": 59}, {"note": 0, "velocity": 0, "duration": 61}, {"note": 73, "velocity": 109, "duration": 157}, {"note": 0, "velocity": 0, "duration": 83}, {"note": 73, "velocity": 112, "duration": 166}, {"note": 0, "velocity": 0, "duration": 74}, {"note": 70, "velocity": 115, "duration": 63}, {"note": 75, "velocity": 112, "duration": 297}, {"note": 0, "velocity": 0, "duration": 63}, {"note": 73, "velocity": 109, "duration": 533}, {"note": 0, "velocity": 0, "duration": 187}, {"note": 70, "velocity": 118, "duration": 74}, {"note": 73, "velocity": 109, "duration": 71}, {"note": 72, "velocity": 118, "duration": 143}, {"note": 0, "velocity": 0, "duration": 97}, {"note": 72, "velocity": 109, "duration": 64}, {"note": 72, "velocity": 106, "duration": 59}, {"note": 0, "velocity": 0, "duration": 61}, {"note": 72, "velocity": 115, "duration": 186}, {"note": 68, "velocity": 115, "duration": 67}, {"note": 63, "velocity": 115, "duration": 61}, {"note": 65, "velocity": 115, "duration": 495}, {"note": 0, "velocity": 0, "duration": 345}, {"note": 65, "velocity": 115, "duration": 66}, {"note": 63, "velocity": 115, "duration": 153}, {"note": 0, "velocity": 0, "duration": 87}, {"note": 63, "velocity": 109, "duration": 55}, {"note": 0, "velocity": 0, "duration": 65}, {"note": 63, "velocity": 115, "duration": 300}, {"note": 70, "velocity": 115, "duration": 156}, {"note": 0, "velocity": 0, "duration": 84}, {"note": 68, "velocity": 109, "duration": 166}, {"note": 0, "velocity": 0, "duration": 74}, {"note": 70, "velocity": 112, "duration": 53}, {"note": 0, "velocity": 0, "duration": 67}, {"note": 72, "velocity": 115, "duration": 271}, {"note": 0, "velocity": 0, "duration": 89}, {"note": 68, "velocity": 115, "duration": 194}, {"note": 65, "velocity": 112, "duration": 1504}, {"note": 0, "velocity": 0, "duration": 416}, {"note": 70, "velocity": 115, "duration": 161}, {"note": 0, "velocity": 0, "duration": 79}, {"note": 68, "velocity": 112, "duration": 61}, {"note": 70, "velocity": 115, "duration": 290}, {"note": 0, "velocity": 0, "duration": 70}, {"note": 73, "velocity": 115, "duration": 169}, {"note": 0, "velocity": 0, "duration": 71}, {"note": 75, "velocity": 112, "duration": 180}, {"note": 77, "velocity": 109, "duration": 67}, {"note": 75, "velocity": 118, "duration": 358}, {"note": 73, "velocity": 109, "duration": 137}, {"note": 0, "velocity": 0, "duration": 103}, {"note": 68, "velocity": 112, "duration": 174}, {"note": 0, "velocity": 0, "duration": 66}, {"note": 70, "velocity": 109, "duration": 49}, {"note": 0, "velocity": 0, "duration": 71}, {"note": 72, "velocity": 115, "duration": 305}, {"note": 75, "velocity": 115, "duration": 167}, {"note": 0, "velocity": 0, "duration": 73}, {"note": 73, "velocity": 112, "duration": 514}, {"note": 0, "velocity": 0, "duration": 206}, {"note": 65, "velocity": 115, "duration": 75}, {"note": 68, "velocity": 115, "duration": 50}, {"note": 0, "velocity": 0, "duration": 70}, {"note": 70, "velocity": 112, "duration": 186}, {"note": 68, "velocity": 112, "duration": 53}, {"note": 0, "velocity": 0, "duration": 67}, {"note": 70, "velocity": 115, "duration": 279}, {"note": 0, "velocity": 0, "duration": 81}, {"note": 77, "velocity": 112, "duration": 166}, {"note": 0, "velocity": 0, "duration": 74}, {"note": 75, "velocity": 115, "duration": 307}, {"note": 77, "velocity": 112, "duration": 217}, {"note": 0, "velocity": 0, "duration": 143}, {"note": 68, "velocity": 112, "duration": 177}, {"note": 0, "velocity": 0, "duration": 63}, {"note": 70, "velocity": 115, "duration": 1940}, {"note": 0, "velocity": 0, "duration": 15340}, {"note": 65, "velocity": 112, "duration": 171}, {"note": 0, "velocity": 0, "duration": 69}, {"note": 63, "velocity": 109, "duration": 131}, {"note": 0, "velocity": 0, "duration": 109}, {"note": 61, "velocity": 106, "duration": 129}, {"note": 0, "velocity": 0, "duration": 111}, {"note": 60, "velocity": 109, "duration": 78}, {"note": 61, "velocity": 101, "duration": 284}, {"note": 0, "velocity": 0, "duration": 76}, {"note": 58, "velocity": 109, "duration": 324}, {"note": 0, "velocity": 0, "duration": 396}, {"note": 60, "velocity": 115, "duration": 169}, {"note": 0, "velocity": 0, "duration": 71}, {"note": 61, "velocity": 109, "duration": 123}, {"note": 0, "velocity": 0, "duration": 117}, {"note": 61, "velocity": 112, "duration": 174}, {"note": 0, "velocity": 0, "duration": 66}, {"note": 63, "velocity": 112, "duration": 63}, {"note": 61, "velocity": 109, "duration": 280}, {"note": 58, "velocity": 109, "duration": 573}, {"note": 0, "velocity": 0, "duration": 267}, {"note": 58, "velocity": 115, "duration": 200}, {"note": 63, "velocity": 106, "duration": 154}, {"note": 0, "velocity": 0, "duration": 86}, {"note": 63, "velocity": 109, "duration": 197}, {"note": 58, "velocity": 112, "duration": 168}, {"note": 0, "velocity": 0, "duration": 72}, {"note": 63, "velocity": 112, "duration": 211}, {"note": 58, "velocity": 112, "duration": 174}, {"note": 0, "velocity": 0, "duration": 66}, {"note": 63, "velocity": 106, "duration": 209}, {"note": 66, "velocity": 109, "duration": 178}, {"note": 0, "velocity": 0, "duration": 62}, {"note": 65, "velocity": 112, "duration": 1603}, {"note": 0, "velocity": 0, "duration": 317}, {"note": 63, "velocity": 112, "duration": 179}, {"note": 0, "velocity": 0, "duration": 61}, {"note": 70, "velocity": 115, "duration": 146}, {"note": 0, "velocity": 0, "duration": 94}, {"note": 70, "velocity": 109, "duration": 132}, {"note": 0, "velocity": 0, "duration": 108}, {"note": 63, "velocity": 109, "duration": 58}, {"note": 0, "velocity": 0, "duration": 62}, {"note": 63, "velocity": 106, "duration": 276}, {"note": 0, "velocity": 0, "duration": 84}, {"note": 61, "velocity": 109, "duration": 556}, {"note": 0, "velocity": 0, "duration": 164}, {"note": 60, "velocity": 112, "duration": 196}, {"note": 65, "velocity": 109, "duration": 132}, {"note": 0, "velocity": 0, "duration": 108}, {"note": 65, "velocity": 106, "duration": 142}, {"note": 0, "velocity": 0, "duration": 98}, {"note": 60, "velocity": 109, "duration": 118}, {"note": 0, "velocity": 0, "duration": 122}, {"note": 60, "velocity": 109, "duration": 198}, {"note": 58, "velocity": 109, "duration": 404}, {"note": 0, "velocity": 0, "duration": 76}, {"note": 58, "velocity": 115, "duration": 73}, {"note": 60, "velocity": 101, "duration": 47}, {"note": 0, "velocity": 0, "duration": 73}, {"note": 61, "velocity": 106, "duration": 569}, {"note": 0, "velocity": 0, "duration": 151}, {"note": 60, "velocity": 112, "duration": 97}, {"note": 61, "velocity": 106, "duration": 68}, {"note": 63, "velocity": 109, "duration": 160}, {"note": 0, "velocity": 0, "duration": 80}, {"note": 63, "velocity": 112, "duration": 303}, {"note": 0, "velocity": 0, "duration": 177}, {"note": 60, "velocity": 109, "duration": 166}, {"note": 0, "velocity": 0, "duration": 74}, {"note": 58, "velocity": 112, "duration": 1754}, {"note": 65, "velocity": 112, "duration": 64}, {"note": 70, "velocity": 112, "duration": 61}, {"note": 72, "velocity": 112, "duration": 59}, {"note": 0, "velocity": 0, "duration": 61}, {"note": 73, "velocity": 109, "duration": 157}, {"note": 0, "velocity": 0, "duration": 83}, {"note": 73, "velocity": 112, "duration": 166}, {"note": 0, "velocity": 0, "duration": 74}, {"note": 70, "velocity": 115, "duration": 63}, {"note": 75, "velocity": 112, "duration": 297}, {"note": 0, "velocity": 0, "duration": 63}, {"note": 73, "velocity": 109, "duration": 533}, {"note": 0, "velocity": 0, "duration": 187}, {"note": 70, "velocity": 118, "duration": 74}, {"note": 73, "velocity": 109, "duration": 71}, {"note": 72, "velocity": 118, "duration": 143}, {"note": 0, "velocity": 0, "duration": 97}, {"note": 72, "velocity": 109, "duration": 64}, {"note": 72, "velocity": 106, "duration": 59}, {"note": 0, "velocity": 0, "duration": 61}, {"note": 72, "velocity": 115, "duration": 186}, {"note": 68, "velocity": 115, "duration": 67}, {"note": 63, "velocity": 115, "duration": 61}, {"note": 65, "velocity": 115, "duration": 495}, {"note": 0, "velocity": 0, "duration": 345}, {"note": 65, "velocity": 115, "duration": 66}, {"note": 63, "velocity": 115, "duration": 153}, {"note": 0, "velocity": 0, "duration": 87}, {"note": 63, "velocity": 109, "duration": 55}, {"note": 0, "velocity": 0, "duration": 65}, {"note": 63, "velocity": 115, "duration": 300}, {"note": 70, "velocity": 115, "duration": 156}, {"note": 0, "velocity": 0, "duration": 84}, {"note": 68, "velocity": 109, "duration": 166}, {"note": 0, "velocity": 0, "duration": 74}, {"note": 70, "velocity": 112, "duration": 53}, {"note": 0, "velocity": 0, "duration": 67}, {"note": 72, "velocity": 115, "duration": 271}, {"note": 0, "velocity": 0, "duration": 89}, {"note": 68, "velocity": 115, "duration": 194}, {"note": 65, "velocity": 112, "duration": 1504}, {"note": 0, "velocity": 0, "duration": 416}, {"note": 70, "velocity": 115, "duration": 161}, {"note": 0, "velocity": 0, "duration": 79}, {"note": 68, "velocity": 112, "duration": 61}, {"note": 70, "velocity": 115, "duration": 290}, {"note": 0, "velocity": 0, "duration": 70}, {"note": 73, "velocity": 115, "duration": 169}, {"note": 0, "velocity": 0, "duration": 71}, {"note": 75, "velocity": 112, "duration": 180}, {"note": 77, "velocity": 109, "duration": 67}, {"note": 75, "velocity": 118, "duration": 358}, {"note": 73, "velocity": 109, "duration": 137}, {"note": 0, "velocity": 0, "duration": 103}, {"note": 68, "velocity": 112, "duration": 174}, {"note": 0, "velocity": 0, "duration": 66}, {"note": 70, "velocity": 109, "duration": 49}, {"note": 0, "velocity": 0, "duration": 71}, {"note": 72, "velocity": 115, "duration": 305}, {"note": 75, "velocity": 115, "duration": 167}, {"note": 0, "velocity": 0, "duration": 73}, {"note": 73, "velocity": 112, "duration": 514}, {"note": 0, "velocity": 0, "duration": 206}, {"note": 65, "velocity": 115, "duration": 75}, {"note": 68, "velocity": 115, "duration": 50}, {"note": 0, "velocity": 0, "duration": 70}, {"note": 70, "velocity": 112, "duration": 186}, {"note": 68, "velocity": 112, "duration": 53}, {"note": 0, "velocity": 0, "duration": 67}, {"note": 70, "velocity": 115, "duration": 279}, {"note": 0, "velocity": 0, "duration": 81}, {"note": 77, "velocity": 112, "duration": 166}, {"note": 0, "velocity": 0, "duration": 74}, {"note": 75, "velocity": 115, "duration": 307}, {"note": 77, "velocity": 112, "duration": 217}, {"note": 0, "velocity": 0, "duration": 143}, {"note": 68, "velocity": 112, "duration": 177}, {"note": 0, "velocity": 0, "duration": 63}, {"note": 70, "velocity": 115, "duration": 1440}, {"note": 0, "velocity": 0, "duration": 120}, {"note": 65, "velocity": 112, "duration": 64}, {"note": 70, "velocity": 112, "duration": 61}, {"note": 72, "velocity": 112, "duration": 59}, {"note": 0, "velocity": 0, "duration": 61}, {"note": 73, "velocity": 109, "duration": 157}, {"note": 0, "velocity": 0, "duration": 83}, {"note": 73, "velocity": 112, "duration": 166}, {"note": 0, "velocity": 0, "duration": 74}, {"note": 70, "velocity": 115, "duration": 63}, {"note": 75, "velocity": 112, "duration": 297}, {"note": 0, "velocity": 0, "duration": 63}, {"note": 73, "velocity": 109, "duration": 533}, {"note": 0, "velocity": 0, "duration": 187}, {"note": 70, "velocity": 118, "duration": 74}, {"note": 73, "velocity": 109, "duration": 71}, {"note": 72, "velocity": 118, "duration": 143}, {"note": 0, "velocity": 0, "duration": 97}, {"note": 72, "velocity": 109, "duration": 64}, {"note": 72, "velocity": 106, "duration": 59}, {"note": 0, "velocity": 0, "duration": 61}, {"note": 72, "velocity": 115, "duration": 186}, {"note": 68, "velocity": 115, "duration": 67}, {"note": 63, "velocity": 115, "duration": 61}, {"note": 65, "velocity": 115, "duration": 495}, {"note": 0, "velocity": 0, "duration": 345}, {"note": 65, "velocity": 115, "duration": 66}, {"note": 63, "velocity": 115, "duration": 153}, {"note": 0, "velocity": 0, "duration": 87}, {"note": 63, "velocity": 109, "duration": 55}, {"note": 0, "velocity": 0, "duration": 65}, {"note": 63, "velocity": 115, "duration": 300}, {"note": 70, "velocity": 115, "duration": 156}, {"note": 0, "velocity": 0, "duration": 84}, {"note": 68, "velocity": 109, "duration": 166}, {"note": 0, "velocity": 0, "duration": 74}, {"note": 70, "velocity": 112, "duration": 53}, {"note": 0, "velocity": 0, "duration": 67}, {"note": 72, "velocity": 115, "duration": 271}, {"note": 0, "velocity": 0, "duration": 89}, {"note": 68, "velocity": 115, "duration": 194}, {"note": 65, "velocity": 112, "duration": 1504}, {"note": 0, "velocity": 0, "duration": 416}, {"note": 70, "velocity": 115, "duration": 161}, {"note": 0, "velocity": 0, "duration": 79}, {"note": 68, "velocity": 112, "duration": 61}, {"note": 70, "velocity": 115, "duration": 290}, {"note": 0, "velocity": 0, "duration": 70}, {"note": 73, "velocity": 115, "duration": 169}, {"note": 0, "velocity": 0, "duration": 71}, {"note": 75, "velocity": 112, "duration": 180}, {"note": 77, "velocity": 109, "duration": 67}, {"note": 75, "velocity": 118, "duration": 358}, {"note": 73, "velocity": 109, "duration": 137}, {"note": 0, "velocity": 0, "duration": 103}, {"note": 68, "velocity": 112, "duration": 174}, {"note": 0, "velocity": 0, "duration": 66}, {"note": 70, "velocity": 109, "duration": 49}, {"note": 0, "velocity": 0, "duration": 71}, {"note": 72, "velocity": 115, "duration": 305}, {"note": 75, "velocity": 115, "duration": 167}, {"note": 0, "velocity": 0, "duration": 73}, {"note": 73, "velocity": 112, "duration": 514}, {"note": 0, "velocity": 0, "duration": 206}, {"note": 65, "velocity": 115, "duration": 75}, {"note": 68, "velocity": 115, "duration": 50}, {"note": 0, "velocity": 0, "duration": 70}, {"note": 70, "velocity": 112, "duration": 186}, {"note": 68, "velocity": 112, "duration": 53}, {"note": 0, "velocity": 0, "duration": 67}, {"note": 70, "velocity": 115, "duration": 279}, {"note": 0, "velocity": 0, "duration": 81}, {"note": 77, "velocity": 112, "duration": 166}, {"note": 0, "velocity": 0, "duration": 74}, {"note": 75, "velocity": 115, "duration": 307}, {"note": 77, "velocity": 112, "duration": 217}, {"note": 0, "velocity": 0, "duration": 143}, {"note": 68, "velocity": 112, "duration": 177}, {"note": 0, "velocity": 0, "duration": 63}, {"note": 70, "velocity": 115, "duration": 1505}, {"note": 0, "velocity": 0, "duration": 175}, {"note": 65, "velocity": 115, "duration": 91}, {"note": 68, "velocity": 112, "duration": 61}, {"note": 0, "velocity": 0, "duration": 66}, {"note": 70, "velocity": 112, "duration": 222}, {"note": 68, "velocity": 104, "duration": 62}, {"note": 70, "velocity": 115, "duration": 300}, {"note": 77, "velocity": 101, "duration": 215}, {"note": 75, "velocity": 112, "duration": 464}, {"note": 72, "velocity": 115, "duration": 1270}, {"note": 0, "velocity": 0, "duration": 453}, {"note": 68, "velocity": 112, "duration": 418}, {"note": 0, "velocity": 0, "duration": 214}, {"note": 70, "velocity": 115, "duration": 1738}]]