[[{"note": 62, "velocity": 110, "duration": 647}, {"note": 0, "velocity": 0, "duration": 193}, {"note": 62, "velocity": 101, "duration": 89}, {"note": 63, "velocity": 109, "duration": 182}, {"note": 62, "velocity": 117, "duration": 192}, {"note": 60, "velocity": 112, "duration": 379}, {"note": 0, "velocity": 0, "duration": 101}, {"note": 58, "velocity": 109, "duration": 178}, {"note": 0, "velocity": 0, "duration": 62}, {"note": 65, "velocity": 106, "duration": 823}, {"note": 0, "velocity": 0, "duration": 137}, {"note": 65, "velocity": 112, "duration": 178}, {"note": 0, "velocity": 0, "duration": 62}, {"note": 67, "velocity": 120, "duration": 161}, {"note": 0, "velocity": 0, "duration": 79}, {"note": 69, "velocity": 113, "duration": 152}, {"note": 0, "velocity": 0, "duration": 88}, {"note": 70, "velocity": 106, "duration": 649}, {"note": 0, "velocity": 0, "duration": 191}, {"note": 69, "velocity": 107, "duration": 69}, {"note": 70, "velocity": 99, "duration": 200}, {"note": 69, "velocity": 120, "duration": 161}, {"note": 0, "velocity": 0, "duration": 79}, {"note": 67, "velocity": 117, "duration": 401}, {"note": 0, "velocity": 0, "duration": 79}, {"note": 65, "velocity": 106, "duration": 152}, {"note": 0, "velocity": 0, "duration": 88}, {"note": 65, "velocity": 106, "duration": 770}, {"note": 0, "velocity": 0, "duration": 190}, {"note": 65, "velocity": 109, "duration": 154}, {"note": 0, "velocity": 0, "duration": 86}, {"note": 65, "velocity": 112, "duration": 168}, {"note": 0, "velocity": 0, "duration": 72}, {"note": 70, "velocity": 106, "duration": 147}, {"note": 0, "velocity": 0, "duration": 93}, {"note": 70, "velocity": 115, "duration": 169}, {"note": 0, "velocity": 0, "duration": 71}, {"note": 63, "velocity": 115, "duration": 350}, {"note": 0, "velocity": 0, "duration": 130}, {"note": 63, "velocity": 106, "duration": 152}, {"note": 0, "velocity": 0, "duration": 88}, {"note": 63, "velocity": 112, "duration": 171}, {"note": 0, "velocity": 0, "duration": 69}, {"note": 62, "velocity": 117, "duration": 164}, {"note": 0, "velocity": 0, "duration": 76}, {"note": 60, "velocity": 112, "duration": 153}, {"note": 0, "velocity": 0, "duration": 87}, {"note": 63, "velocity": 112, "duration": 175}, {"note": 0, "velocity": 0, "duration": 65}, {"note": 62, "velocity": 117, "duration": 506}, {"note": 0, "velocity": 0, "duration": 214}, {"note": 60, "velocity": 115, "duration": 150}, {"note": 0, "velocity": 0, "duration": 90}, {"note": 58, "velocity": 115, "duration": 165}, {"note": 0, "velocity": 0, "duration": 75}, {"note": 58, "velocity": 112, "duration": 157}, {"note": 0, "velocity": 0, "duration": 83}, {"note": 60, "velocity": 112, "duration": 153}, {"note": 0, "velocity": 0, "duration": 87}, {"note": 62, "velocity": 110, "duration": 145}, {"note": 0, "velocity": 0, "duration": 95}, {"note": 62, "velocity": 117, "duration": 199}, {"note": 63, "velocity": 106, "duration": 71}, {"note": 63, "velocity": 109, "duration": 477}, {"note": 0, "velocity": 0, "duration": 123}, {"note": 63, "velocity": 106, "duration": 206}, {"note": 62, "velocity": 120, "duration": 185}, {"note": 60, "velocity": 112, "duration": 232}, {"note": 58, "velocity": 115, "duration": 175}, {"note": 0, "velocity": 0, "duration": 65}, {"note": 60, "velocity": 109, "duration": 1349}, {"note": 0, "velocity": 0, "duration": 571}, {"note": 62, "velocity": 110, "duration": 647}, {"note": 0, "velocity": 0, "duration": 193}, {"note": 62, "velocity": 101, "duration": 89}, {"note": 63, "velocity": 109, "duration": 182}, {"note": 62, "velocity": 117, "duration": 192}, {"note": 60, "velocity": 112, "duration": 379}, {"note": 0, "velocity": 0, "duration": 101}, {"note": 58, "velocity": 109, "duration": 178}, {"note": 0, "velocity": 0, "duration": 62}, {"note": 65, "velocity": 106, "duration": 823}, {"note": 0, "velocity": 0, "duration": 137}, {"note": 65, "velocity": 112, "duration": 178}, {"note": 0, "velocity": 0, "duration": 62}, {"note": 67, "velocity": 120, "duration": 161}, {"note": 0, "velocity": 0, "duration": 79}, {"note": 69, "velocity": 113, "duration": 152}, {"note": 0, "velocity": 0, "duration": 88}, {"note": 70, "velocity": 106, "duration": 649}, {"note": 0, "velocity": 0, "duration": 191}, {"note": 69, "velocity": 107, "duration": 69}, {"note": 70, "velocity": 99, "duration": 200}, {"note": 69, "velocity": 120, "duration": 161}, {"note": 0, "velocity": 0, "duration": 79}, {"note": 67, "velocity": 117, "duration": 401}, {"note": 0, "velocity": 0, "duration": 79}, {"note": 65, "velocity": 106, "duration": 152}, {"note": 0, "velocity": 0, "duration": 88}, {"note": 65, "velocity": 106, "duration": 770}, {"note": 0, "velocity": 0, "duration": 190}, {"note": 65, "velocity": 109, "duration": 154}, {"note": 0, "velocity": 0, "duration": 86}, {"note": 65, "velocity": 112, "duration": 168}, {"note": 0, "velocity": 0, "duration": 72}, {"note": 70, "velocity": 106, "duration": 147}, {"note": 0, "velocity": 0, "duration": 93}, {"note": 70, "velocity": 115, "duration": 169}, {"note": 0, "velocity": 0, "duration": 71}, {"note": 63, "velocity": 115, "duration": 350}, {"note": 0, "velocity": 0, "duration": 130}, {"note": 63, "velocity": 106, "duration": 152}, {"note": 0, "velocity": 0, "duration": 88}, {"note": 63, "velocity": 112, "duration": 171}, {"note": 0, "velocity": 0, "duration": 69}, {"note": 62, "velocity": 117, "duration": 164}, {"note": 0, "velocity": 0, "duration": 76}, {"note": 60, "velocity": 112, "duration": 153}, {"note": 0, "velocity": 0, "duration": 87}, {"note": 63, "velocity": 112, "duration": 175}, {"note": 0, "velocity": 0, "duration": 65}, {"note": 62, "velocity": 117, "duration": 199}, {"note": 65, "velocity": 115, "duration": 181}, {"note": 72, "velocity": 118, "duration": 379}, {"note": 0, "velocity": 0, "duration": 101}, {"note": 70, "velocity": 115, "duration": 548}, {"note": 0, "velocity": 0, "duration": 172}, {"note": 65, "velocity": 109, "duration": 59}, {"note": 0, "velocity": 0, "duration": 61}, {"note": 65, "velocity": 106, "duration": 65}, {"note": 65, "velocity": 112, "duration": 185}, {"note": 63, "velocity": 109, "duration": 61}, {"note": 63, "velocity": 106, "duration": 526}, {"note": 62, "velocity": 117, "duration": 74}, {"note": 63, "velocity": 115, "duration": 175}, {"note": 0, "velocity": 0, "duration": 65}, {"note": 62, "velocity": 117, "duration": 166}, {"note": 0, "velocity": 0, "duration": 74}, {"note": 63, "velocity": 112, "duration": 180}, {"note": 70, "velocity": 112, "duration": 161}, {"note": 0, "velocity": 0, "duration": 79}, {"note": 72, "velocity": 112, "duration": 1915}, {"note": 0, "velocity": 0, "duration": 1205}, {"note": 65, "velocity": 115, "duration": 166}, {"note": 0, "velocity": 0, "duration": 74}, {"note": 65, "velocity": 115, "duration": 170}, {"note": 0, "velocity": 0, "duration": 70}, {"note": 75, "velocity": 118, "duration": 151}, {"note": 0, "velocity": 0, "duration": 89}, {"note": 75, "velocity": 115, "duration": 570}, {"note": 0, "velocity": 0, "duration": 150}, {"note": 74, "velocity": 117, "duration": 147}, {"note": 0, "velocity": 0, "duration": 93}, {"note": 74, "velocity": 117, "duration": 556}, {"note": 0, "velocity": 0, "duration": 164}, {"note": 65, "velocity": 112, "duration": 89}, {"note": 74, "velocity": 117, "duration": 52}, {"note": 0, "velocity": 0, "duration": 68}, {"note": 74, "velocity": 117, "duration": 546}, {"note": 0, "velocity": 0, "duration": 174}, {"note": 72, "velocity": 109, "duration": 112}, {"note": 0, "velocity": 0, "duration": 128}, {"note": 72, "velocity": 112, "duration": 484}, {"note": 0, "velocity": 0, "duration": 236}, {"note": 70, "velocity": 106, "duration": 73}, {"note": 69, "velocity": 120, "duration": 69}, {"note": 70, "velocity": 112, "duration": 174}, {"note": 0, "velocity": 0, "duration": 66}, {"note": 69, "velocity": 120, "duration": 162}, {"note": 0, "velocity": 0, "duration": 78}, {"note": 70, "velocity": 112, "duration": 188}, {"note": 69, "velocity": 117, "duration": 137}, {"note": 0, "velocity": 0, "duration": 103}, {"note": 70, "velocity": 115, "duration": 181}, {"note": 69, "velocity": 120, "duration": 127}, {"note": 0, "velocity": 0, "duration": 113}, {"note": 70, "velocity": 109, "duration": 116}, {"note": 0, "velocity": 0, "duration": 124}, {"note": 77, "velocity": 104, "duration": 387}, {"note": 0, "velocity": 0, "duration": 93}, {"note": 77, "velocity": 104, "duration": 733}, {"note": 0, "velocity": 0, "duration": 227}, {"note": 70, "velocity": 106, "duration": 175}, {"note": 0, "velocity": 0, "duration": 65}, {"note": 70, "velocity": 112, "duration": 156}, {"note": 0, "velocity": 0, "duration": 84}, {"note": 81, "velocity": 117, "duration": 165}, {"note": 0, "velocity": 0, "duration": 75}, {"note": 81, "velocity": 120, "duration": 620}, {"note": 0, "velocity": 0, "duration": 100}, {"note": 79, "velocity": 117, "duration": 156}, {"note": 0, "velocity": 0, "duration": 84}, {"note": 79, "velocity": 120, "duration": 546}, {"note": 0, "velocity": 0, "duration": 174}, {"note": 70, "velocity": 118, "duration": 75}, {"note": 79, "velocity": 120, "duration": 54}, {"note": 0, "velocity": 0, "duration": 66}, {"note": 79, "velocity": 120, "duration": 582}, {"note": 0, "velocity": 0, "duration": 138}, {"note": 77, "velocity": 99, "duration": 159}, {"note": 0, "velocity": 0, "duration": 81}, {"note": 77, "velocity": 106, "duration": 506}, {"note": 0, "velocity": 0, "duration": 214}, {"note": 74, "velocity": 107, "duration": 164}, {"note": 0, "velocity": 0, "duration": 76}, {"note": 75, "velocity": 115, "duration": 157}, {"note": 0, "velocity": 0, "duration": 83}, {"note": 74, "velocity": 120, "duration": 157}, {"note": 0, "velocity": 0, "duration": 83}, {"note": 75, "velocity": 112, "duration": 155}, {"note": 0, "velocity": 0, "duration": 85}, {"note": 74, "velocity": 120, "duration": 48}, {"note": 0, "velocity": 0, "duration": 72}, {"note": 75, "velocity": 112, "duration": 251}, {"note": 0, "velocity": 0, "duration": 109}, {"note": 74, "velocity": 120, "duration": 146}, {"note": 0, "velocity": 0, "duration": 94}, {"note": 72, "velocity": 112, "duration": 163}, {"note": 0, "velocity": 0, "duration": 77}, {"note": 70, "velocity": 112, "duration": 166}, {"note": 0, "velocity": 0, "duration": 74}, {"note": 72, "velocity": 109, "duration": 972}, {"note": 0, "velocity": 0, "duration": 228}, {"note": 65, "velocity": 115, "duration": 166}, {"note": 0, "velocity": 0, "duration": 74}, {"note": 65, "velocity": 115, "duration": 170}, {"note": 0, "velocity": 0, "duration": 70}, {"note": 75, "velocity": 118, "duration": 151}, {"note": 0, "velocity": 0, "duration": 89}, {"note": 75, "velocity": 115, "duration": 570}, {"note": 0, "velocity": 0, "duration": 150}, {"note": 74, "velocity": 117, "duration": 147}, {"note": 0, "velocity": 0, "duration": 93}, {"note": 74, "velocity": 117, "duration": 556}, {"note": 0, "velocity": 0, "duration": 164}, {"note": 65, "velocity": 112, "duration": 89}, {"note": 74, "velocity": 117, "duration": 52}, {"note": 0, "velocity": 0, "duration": 68}, {"note": 74, "velocity": 117, "duration": 546}, {"note": 0, "velocity": 0, "duration": 174}, {"note": 72, "velocity": 109, "duration": 112}, {"note": 0, "velocity": 0, "duration": 128}, {"note": 72, "velocity": 112, "duration": 484}, {"note": 0, "velocity": 0, "duration": 236}, {"note": 70, "velocity": 106, "duration": 73}, {"note": 69, "velocity": 120, "duration": 69}, {"note": 70, "velocity": 112, "duration": 174}, {"note": 0, "velocity": 0, "duration": 66}, {"note": 69, "velocity": 120, "duration": 162}, {"note": 0, "velocity": 0, "duration": 78}, {"note": 70, "velocity": 112, "duration": 188}, {"note": 69, "velocity": 117, "duration": 137}, {"note": 0, "velocity": 0, "duration": 103}, {"note": 70, "velocity": 115, "duration": 181}, {"note": 69, "velocity": 120, "duration": 127}, {"note": 0, "velocity": 0, "duration": 113}, {"note": 70, "velocity": 109, "duration": 116}, {"note": 0, "velocity": 0, "duration": 124}, {"note": 77, "velocity": 104, "duration": 387}, {"note": 0, "velocity": 0, "duration": 93}, {"note": 77, "velocity": 104, "duration": 733}, {"note": 0, "velocity": 0, "duration": 227}, {"note": 70, "velocity": 106, "duration": 175}, {"note": 0, "velocity": 0, "duration": 65}, {"note": 70, "velocity": 112, "duration": 156}, {"note": 0, "velocity": 0, "duration": 84}, {"note": 81, "velocity": 117, "duration": 165}, {"note": 0, "velocity": 0, "duration": 75}, {"note": 81, "velocity": 120, "duration": 620}, {"note": 0, "velocity": 0, "duration": 100}, {"note": 79, "velocity": 117, "duration": 156}, {"note": 0, "velocity": 0, "duration": 84}, {"note": 79, "velocity": 120, "duration": 546}, {"note": 0, "velocity": 0, "duration": 174}, {"note": 70, "velocity": 118, "duration": 75}, {"note": 79, "velocity": 120, "duration": 54}, {"note": 0, "velocity": 0, "duration": 66}, {"note": 79, "velocity": 120, "duration": 582}, {"note": 0, "velocity": 0, "duration": 138}, {"note": 77, "velocity": 99, "duration": 159}, {"note": 0, "velocity": 0, "duration": 81}, {"note": 77, "velocity": 106, "duration": 506}, {"note": 0, "velocity": 0, "duration": 214}, {"note": 74, "velocity": 107, "duration": 164}, {"note": 0, "velocity": 0, "duration": 76}, {"note": 75, "velocity": 115, "duration": 157}, {"note": 0, "velocity": 0, "duration": 83}, {"note": 74, "velocity": 120, "duration": 157}, {"note": 0, "velocity": 0, "duration": 83}, {"note": 75, "velocity": 112, "duration": 155}, {"note": 0, "velocity": 0, "duration": 85}, {"note": 74, "velocity": 120, "duration": 48}, {"note": 0, "velocity": 0, "duration": 72}, {"note": 75, "velocity": 112, "duration": 251}, {"note": 0, "velocity": 0, "duration": 109}, {"note": 74, "velocity": 120, "duration": 146}, {"note": 0, "velocity": 0, "duration": 94}, {"note": 72, "velocity": 112, "duration": 163}, {"note": 0, "velocity": 0, "duration": 77}, {"note": 70, "velocity": 112, "duration": 166}, {"note": 0, "velocity": 0, "duration": 80}, {"note": 70, "velocity": 114, "duration": 201}, {"note": 72, "velocity": 109, "duration": 610}, {"note": 0, "velocity": 0, "duration": 84}, {"note": 65, "velocity": 112, "duration": 178}, {"note": 0, "velocity": 0, "duration": 62}, {"note": 74, "velocity": 113, "duration": 191}, {"note": 72, "velocity": 106, "duration": 154}, {"note": 0, "velocity": 0, "duration": 86}, {"note": 70, "velocity": 112, "duration": 620}, {"note": 0, "velocity": 0, "duration": 220}, {"note": 69, "velocity": 112, "duration": 211}, {"note": 0, "velocity": 0, "duration": 149}, {"note": 70, "velocity": 101, "duration": 1078}, {"note": 0, "velocity": 0, "duration": 16467}, {"note": 65, "velocity": 115, "duration": 361}, {"note": 65, "velocity": 115, "duration": 298}, {"note": 0, "velocity": 0, "duration": 90}, {"note": 75, "velocity": 118, "duration": 332}, {"note": 0, "velocity": 0, "duration": 89}, {"note": 75, "velocity": 115, "duration": 570}, {"note": 0, "velocity": 0, "duration": 150}, {"note": 74, "velocity": 117, "duration": 147}, {"note": 0, "velocity": 0, "duration": 93}, {"note": 74, "velocity": 117, "duration": 556}, {"note": 0, "velocity": 0, "duration": 164}, {"note": 65, "velocity": 112, "duration": 89}, {"note": 74, "velocity": 117, "duration": 52}, {"note": 0, "velocity": 0, "duration": 68}, {"note": 74, "velocity": 117, "duration": 546}, {"note": 0, "velocity": 0, "duration": 174}, {"note": 72, "velocity": 109, "duration": 112}, {"note": 0, "velocity": 0, "duration": 128}, {"note": 72, "velocity": 112, "duration": 484}, {"note": 0, "velocity": 0, "duration": 236}, {"note": 70, "velocity": 106, "duration": 73}, {"note": 69, "velocity": 120, "duration": 69}, {"note": 70, "velocity": 112, "duration": 174}, {"note": 0, "velocity": 0, "duration": 66}, {"note": 69, "velocity": 120, "duration": 162}, {"note": 0, "velocity": 0, "duration": 78}, {"note": 70, "velocity": 112, "duration": 188}, {"note": 69, "velocity": 117, "duration": 137}, {"note": 0, "velocity": 0, "duration": 103}, {"note": 70, "velocity": 115, "duration": 181}, {"note": 69, "velocity": 120, "duration": 127}, {"note": 0, "velocity": 0, "duration": 113}, {"note": 70, "velocity": 109, "duration": 116}, {"note": 0, "velocity": 0, "duration": 124}, {"note": 77, "velocity": 104, "duration": 387}, {"note": 0, "velocity": 0, "duration": 93}, {"note": 77, "velocity": 104, "duration": 733}, {"note": 0, "velocity": 0, "duration": 227}, {"note": 70, "velocity": 106, "duration": 175}, {"note": 0, "velocity": 0, "duration": 65}, {"note": 70, "velocity": 112, "duration": 156}, {"note": 0, "velocity": 0, "duration": 84}, {"note": 81, "velocity": 117, "duration": 165}, {"note": 0, "velocity": 0, "duration": 75}, {"note": 81, "velocity": 120, "duration": 620}, {"note": 0, "velocity": 0, "duration": 100}, {"note": 79, "velocity": 117, "duration": 156}, {"note": 0, "velocity": 0, "duration": 84}, {"note": 79, "velocity": 120, "duration": 546}, {"note": 0, "velocity": 0, "duration": 174}, {"note": 70, "velocity": 118, "duration": 75}, {"note": 79, "velocity": 120, "duration": 54}, {"note": 0, "velocity": 0, "duration": 66}, {"note": 79, "velocity": 120, "duration": 582}, {"note": 0, "velocity": 0, "duration": 138}, {"note": 77, "velocity": 99, "duration": 159}, {"note": 0, "velocity": 0, "duration": 81}, {"note": 77, "velocity": 106, "duration": 506}, {"note": 0, "velocity": 0, "duration": 214}, {"note": 74, "velocity": 107, "duration": 164}, {"note": 0, "velocity": 0, "duration": 76}, {"note": 75, "velocity": 115, "duration": 157}, {"note": 0, "velocity": 0, "duration": 83}, {"note": 74, "velocity": 120, "duration": 157}, {"note": 0, "velocity": 0, "duration": 83}, {"note": 75, "velocity": 112, "duration": 155}, {"note": 0, "velocity": 0, "duration": 85}, {"note": 74, "velocity": 120, "duration": 48}, {"note": 0, "velocity": 0, "duration": 72}, {"note": 75, "velocity": 112, "duration": 251}, {"note": 0, "velocity": 0, "duration": 109}, {"note": 74, "velocity": 120, "duration": 146}, {"note": 0, "velocity": 0, "duration": 94}, {"note": 72, "velocity": 112, "duration": 163}, {"note": 0, "velocity": 0, "duration": 77}, {"note": 70, "velocity": 112, "duration": 166}, {"note": 0, "velocity": 0, "duration": 74}, {"note": 72, "velocity": 109, "duration": 972}, {"note": 0, "velocity": 0, "duration": 228}, {"note": 65, "velocity": 115, "duration": 166}, {"note": 0, "velocity": 0, "duration": 74}, {"note": 65, "velocity": 115, "duration": 170}, {"note": 0, "velocity": 0, "duration": 70}, {"note": 75, "velocity": 118, "duration": 151}, {"note": 0, "velocity": 0, "duration": 89}, {"note": 75, "velocity": 115, "duration": 570}, {"note": 0, "velocity": 0, "duration": 150}, {"note": 74, "velocity": 117, "duration": 147}, {"note": 0, "velocity": 0, "duration": 93}, {"note": 74, "velocity": 117, "duration": 556}, {"note": 0, "velocity": 0, "duration": 164}, {"note": 65, "velocity": 112, "duration": 89}, {"note": 74, "velocity": 117, "duration": 52}, {"note": 0, "velocity": 0, "duration": 68}, {"note": 74, "velocity": 117, "duration": 546}, {"note": 0, "velocity": 0, "duration": 174}, {"note": 72, "velocity": 109, "duration": 112}, {"note": 0, "velocity": 0, "duration": 128}, {"note": 72, "velocity": 112, "duration": 484}, {"note": 0, "velocity": 0, "duration": 236}, {"note": 70, "velocity": 106, "duration": 73}, {"note": 69, "velocity": 120, "duration": 69}, {"note": 70, "velocity": 112, "duration": 174}, {"note": 0, "velocity": 0, "duration": 66}, {"note": 69, "velocity": 120, "duration": 162}, {"note": 0, "velocity": 0, "duration": 78}, {"note": 70, "velocity": 112, "duration": 188}, {"note": 69, "velocity": 117, "duration": 137}, {"note": 0, "velocity": 0, "duration": 103}, {"note": 70, "velocity": 115, "duration": 181}, {"note": 69, "velocity": 120, "duration": 127}, {"note": 0, "velocity": 0, "duration": 113}, {"note": 70, "velocity": 109, "duration": 116}, {"note": 0, "velocity": 0, "duration": 124}, {"note": 77, "velocity": 104, "duration": 387}, {"note": 0, "velocity": 0, "duration": 93}, {"note": 77, "velocity": 104, "duration": 733}, {"note": 0, "velocity": 0, "duration": 227}, {"note": 70, "velocity": 106, "duration": 175}, {"note": 0, "velocity": 0, "duration": 65}, {"note": 70, "velocity": 112, "duration": 156}, {"note": 0, "velocity": 0, "duration": 84}, {"note": 81, "velocity": 117, "duration": 165}, {"note": 0, "velocity": 0, "duration": 75}, {"note": 81, "velocity": 120, "duration": 620}, {"note": 0, "velocity": 0, "duration": 100}, {"note": 79, "velocity": 117, "duration": 156}, {"note": 0, "velocity": 0, "duration": 84}, {"note": 79, "velocity": 120, "duration": 546}, {"note": 0, "velocity": 0, "duration": 174}, {"note": 70, "velocity": 118, "duration": 75}, {"note": 79, "velocity": 120, "duration": 54}, {"note": 0, "velocity": 0, "duration": 66}, {"note": 79, "velocity": 120, "duration": 582}, {"note": 0, "velocity": 0, "duration": 138}, {"note": 77, "velocity": 99, "duration": 159}, {"note": 0, "velocity": 0, "duration": 81}, {"note": 77, "velocity": 106, "duration": 506}, {"note": 0, "velocity": 0, "duration": 214}, {"note": 74, "velocity": 107, "duration": 164}, {"note": 0, "velocity": 0, "duration": 76}, {"note": 75, "velocity": 115, "duration": 157}, {"note": 0, "velocity": 0, "duration": 83}, {"note": 74, "velocity": 120, "duration": 157}, {"note": 0, "velocity": 0, "duration": 83}, {"note": 75, "velocity": 112, "duration": 155}, {"note": 0, "velocity": 0, "duration": 85}, {"note": 74, "velocity": 120, "duration": 48}, {"note": 0, "velocity": 0, "duration": 72}, {"note": 75, "velocity": 112, "duration": 251}, {"note": 0, "velocity": 0, "duration": 109}, {"note": 74, "velocity": 120, "duration": 146}, {"note": 0, "velocity": 0, "duration": 94}, {"note": 72, "velocity": 112, "duration": 163}, {"note": 0, "velocity": 0, "duration": 77}, {"note": 70, "velocity": 112, "duration": 166}, {"note": 0, "velocity": 0, "duration": 80}, {"note": 70, "velocity": 114, "duration": 201}, {"note": 72, "velocity": 109, "duration": 610}, {"note": 0, "velocity": 0, "duration": 84}, {"note": 65, "velocity": 112, "duration": 178}, {"note": 0, "velocity": 0, "duration": 62}, {"note": 74, "velocity": 113, "duration": 191}, {"note": 72, "velocity": 106, "duration": 154}, {"note": 0, "velocity": 0, "duration": 86}, {"note": 70, "velocity": 112, "duration": 620}, {"note": 0, "velocity": 0, "duration": 220}, {"note": 69, "velocity": 112, "duration": 211}, {"note": 0, "velocity": 0, "duration": 149}, {"note": 70, "velocity": 101, "duration": 1078}, {"note": 0, "velocity": 0, "duration": 1029}, {"note": 70, "velocity": 118, "duration": 158}, {"note": 0, "velocity": 0, "duration": 65}, {"note": 70, "velocity": 118, "duration": 162}, {"note": 81, "velocity": 120, "duration": 158}, {"note": 0, "velocity": 0, "duration": 118}, {"note": 81, "velocity": 123, "duration": 758}, {"note": 0, "velocity": 0, "duration": 65}, {"note": 79, "velocity": 120, "duration": 179}, {"note": 0, "velocity": 0, "duration": 76}, {"note": 79, "velocity": 120, "duration": 673}, {"note": 0, "velocity": 0, "duration": 118}, {"note": 70, "velocity": 104, "duration": 92}, {"note": 79, "velocity": 117, "duration": 63}, {"note": 0, "velocity": 0, "duration": 67}, {"note": 79, "velocity": 120, "duration": 538}, {"note": 0, "velocity": 0, "duration": 84}, {"note": 77, "velocity": 106, "duration": 163}, {"note": 0, "velocity": 0, "duration": 121}, {"note": 77, "velocity": 104, "duration": 846}]]