[[{"note": 67, "velocity": 104, "duration": 554}, {"note": 0, "velocity": 0, "duration": 166}, {"note": 71, "velocity": 106, "duration": 158}, {"note": 0, "velocity": 0, "duration": 82}, {"note": 59, "velocity": 112, "duration": 172}, {"note": 0, "velocity": 0, "duration": 68}, {"note": 62, "velocity": 109, "duration": 133}, {"note": 0, "velocity": 0, "duration": 107}, {"note": 64, "velocity": 109, "duration": 182}, {"note": 67, "velocity": 112, "duration": 182}, {"note": 71, "velocity": 106, "duration": 1650}, {"note": 0, "velocity": 0, "duration": 270}, {"note": 67, "velocity": 112, "duration": 577}, {"note": 0, "velocity": 0, "duration": 143}, {"note": 71, "velocity": 109, "duration": 168}, {"note": 0, "velocity": 0, "duration": 72}, {"note": 69, "velocity": 106, "duration": 151}, {"note": 0, "velocity": 0, "duration": 89}, {"note": 67, "velocity": 112, "duration": 154}, {"note": 0, "velocity": 0, "duration": 86}, {"note": 64, "velocity": 112, "duration": 168}, {"note": 0, "velocity": 0, "duration": 72}, {"note": 67, "velocity": 106, "duration": 149}, {"note": 0, "velocity": 0, "duration": 91}, {"note": 62, "velocity": 115, "duration": 1649}, {"note": 0, "velocity": 0, "duration": 271}, {"note": 67, "velocity": 115, "duration": 612}, {"note": 0, "velocity": 0, "duration": 108}, {"note": 71, "velocity": 109, "duration": 149}, {"note": 0, "velocity": 0, "duration": 91}, {"note": 59, "velocity": 112, "duration": 175}, {"note": 0, "velocity": 0, "duration": 65}, {"note": 62, "velocity": 112, "duration": 138}, {"note": 0, "velocity": 0, "duration": 102}, {"note": 64, "velocity": 106, "duration": 149}, {"note": 0, "velocity": 0, "duration": 91}, {"note": 67, "velocity": 109, "duration": 152}, {"note": 0, "velocity": 0, "duration": 88}, {"note": 69, "velocity": 109, "duration": 1754}, {"note": 0, "velocity": 0, "duration": 166}, {"note": 67, "velocity": 109, "duration": 565}, {"note": 0, "velocity": 0, "duration": 155}, {"note": 69, "velocity": 112, "duration": 137}, {"note": 0, "velocity": 0, "duration": 103}, {"note": 64, "velocity": 112, "duration": 165}, {"note": 0, "velocity": 0, "duration": 75}, {"note": 67, "velocity": 109, "duration": 130}, {"note": 0, "velocity": 0, "duration": 110}, {"note": 62, "velocity": 118, "duration": 210}, {"note": 59, "velocity": 112, "duration": 96}, {"note": 0, "velocity": 0, "duration": 144}, {"note": 62, "velocity": 112, "duration": 1805}, {"note": 0, "velocity": 0, "duration": 115}, {"note": 59, "velocity": 115, "duration": 602}, {"note": 0, "velocity": 0, "duration": 118}, {"note": 62, "velocity": 109, "duration": 160}, {"note": 0, "velocity": 0, "duration": 80}, {"note": 59, "velocity": 109, "duration": 163}, {"note": 0, "velocity": 0, "duration": 77}, {"note": 57, "velocity": 115, "duration": 141}, {"note": 0, "velocity": 0, "duration": 99}, {"note": 55, "velocity": 112, "duration": 162}, {"note": 0, "velocity": 0, "duration": 78}, {"note": 59, "velocity": 112, "duration": 183}, {"note": 57, "velocity": 112, "duration": 1617}, {"note": 0, "velocity": 0, "duration": 303}, {"note": 62, "velocity": 115, "duration": 595}, {"note": 0, "velocity": 0, "duration": 125}, {"note": 64, "velocity": 112, "duration": 149}, {"note": 0, "velocity": 0, "duration": 91}, {"note": 62, "velocity": 112, "duration": 151}, {"note": 0, "velocity": 0, "duration": 89}, {"note": 59, "velocity": 115, "duration": 153}, {"note": 0, "velocity": 0, "duration": 87}, {"note": 67, "velocity": 109, "duration": 136}, {"note": 0, "velocity": 0, "duration": 104}, {"note": 69, "velocity": 109, "duration": 394}, {"note": 0, "velocity": 0, "duration": 86}, {"note": 64, "velocity": 115, "duration": 1484}, {"note": 0, "velocity": 0, "duration": 196}, {"note": 67, "velocity": 112, "duration": 134}, {"note": 0, "velocity": 0, "duration": 106}, {"note": 71, "velocity": 109, "duration": 213}, {"note": 0, "velocity": 0, "duration": 267}, {"note": 67, "velocity": 106, "duration": 137}, {"note": 0, "velocity": 0, "duration": 103}, {"note": 59, "velocity": 112, "duration": 393}, {"note": 0, "velocity": 0, "duration": 87}, {"note": 62, "velocity": 112, "duration": 329}, {"note": 0, "velocity": 0, "duration": 151}, {"note": 64, "velocity": 109, "duration": 127}, {"note": 0, "velocity": 0, "duration": 113}, {"note": 67, "velocity": 109, "duration": 153}, {"note": 0, "velocity": 0, "duration": 327}, {"note": 64, "velocity": 101, "duration": 148}, {"note": 0, "velocity": 0, "duration": 92}, {"note": 57, "velocity": 115, "duration": 360}, {"note": 0, "velocity": 0, "duration": 120}, {"note": 59, "velocity": 112, "duration": 391}, {"note": 0, "velocity": 0, "duration": 569}, {"note": 62, "velocity": 115, "duration": 172}, {"note": 0, "velocity": 0, "duration": 68}, {"note": 64, "velocity": 115, "duration": 165}, {"note": 0, "velocity": 0, "duration": 75}, {"note": 67, "velocity": 112, "duration": 367}, {"note": 0, "velocity": 0, "duration": 113}, {"note": 69, "velocity": 115, "duration": 355}, {"note": 0, "velocity": 0, "duration": 125}, {"note": 71, "velocity": 109, "duration": 362}, {"note": 0, "velocity": 0, "duration": 118}, {"note": 64, "velocity": 109, "duration": 143}, {"note": 0, "velocity": 0, "duration": 97}, {"note": 67, "velocity": 115, "duration": 122}, {"note": 0, "velocity": 0, "duration": 118}, {"note": 69, "velocity": 112, "duration": 346}, {"note": 0, "velocity": 0, "duration": 134}, {"note": 71, "velocity": 118, "duration": 136}, {"note": 0, "velocity": 0, "duration": 104}, {"note": 74, "velocity": 112, "duration": 170}, {"note": 0, "velocity": 0, "duration": 310}, {"note": 71, "velocity": 115, "duration": 364}, {"note": 0, "velocity": 0, "duration": 116}, {"note": 74, "velocity": 112, "duration": 150}, {"note": 0, "velocity": 0, "duration": 90}, {"note": 71, "velocity": 115, "duration": 218}, {"note": 69, "velocity": 112, "duration": 124}, {"note": 0, "velocity": 0, "duration": 116}, {"note": 67, "velocity": 112, "duration": 163}, {"note": 0, "velocity": 0, "duration": 77}, {"note": 71, "velocity": 112, "duration": 158}, {"note": 0, "velocity": 0, "duration": 82}, {"note": 69, "velocity": 112, "duration": 1835}, {"note": 0, "velocity": 0, "duration": 325}, {"note": 62, "velocity": 109, "duration": 381}, {"note": 0, "velocity": 0, "duration": 99}, {"note": 64, "velocity": 104, "duration": 107}, {"note": 0, "velocity": 0, "duration": 133}, {"note": 62, "velocity": 99, "duration": 135}, {"note": 0, "velocity": 0, "duration": 105}, {"note": 59, "velocity": 94, "duration": 132}, {"note": 0, "velocity": 0, "duration": 108}, {"note": 67, "velocity": 96, "duration": 138}, {"note": 0, "velocity": 0, "duration": 102}, {"note": 69, "velocity": 99, "duration": 127}, {"note": 0, "velocity": 0, "duration": 113}, {"note": 64, "velocity": 85, "duration": 1053}, {"note": 0, "velocity": 0, "duration": 867}, {"note": 67, "velocity": 104, "duration": 601}, {"note": 0, "velocity": 0, "duration": 119}, {"note": 71, "velocity": 106, "duration": 168}, {"note": 0, "velocity": 0, "duration": 72}, {"note": 59, "velocity": 109, "duration": 163}, {"note": 0, "velocity": 0, "duration": 77}, {"note": 62, "velocity": 112, "duration": 135}, {"note": 0, "velocity": 0, "duration": 105}, {"note": 64, "velocity": 106, "duration": 139}, {"note": 0, "velocity": 0, "duration": 101}, {"note": 67, "velocity": 112, "duration": 151}, {"note": 0, "velocity": 0, "duration": 89}, {"note": 69, "velocity": 106, "duration": 1713}, {"note": 0, "velocity": 0, "duration": 207}, {"note": 67, "velocity": 112, "duration": 329}, {"note": 0, "velocity": 0, "duration": 151}, {"note": 64, "velocity": 109, "duration": 143}, {"note": 0, "velocity": 0, "duration": 97}, {"note": 67, "velocity": 109, "duration": 116}, {"note": 0, "velocity": 0, "duration": 124}, {"note": 62, "velocity": 109, "duration": 146}, {"note": 0, "velocity": 0, "duration": 94}, {"note": 59, "velocity": 112, "duration": 149}, {"note": 0, "velocity": 0, "duration": 91}, {"note": 62, "velocity": 112, "duration": 142}, {"note": 0, "velocity": 0, "duration": 98}, {"note": 69, "velocity": 109, "duration": 146}, {"note": 0, "velocity": 0, "duration": 94}, {"note": 67, "velocity": 106, "duration": 1882}, {"note": 0, "velocity": 0, "duration": 7718}, {"note": 67, "velocity": 104, "duration": 554}, {"note": 0, "velocity": 0, "duration": 166}, {"note": 71, "velocity": 106, "duration": 158}, {"note": 0, "velocity": 0, "duration": 82}, {"note": 59, "velocity": 112, "duration": 172}, {"note": 0, "velocity": 0, "duration": 68}, {"note": 62, "velocity": 109, "duration": 133}, {"note": 0, "velocity": 0, "duration": 107}, {"note": 64, "velocity": 109, "duration": 182}, {"note": 67, "velocity": 112, "duration": 182}, {"note": 71, "velocity": 106, "duration": 1650}, {"note": 0, "velocity": 0, "duration": 270}, {"note": 67, "velocity": 112, "duration": 577}, {"note": 0, "velocity": 0, "duration": 143}, {"note": 71, "velocity": 109, "duration": 168}, {"note": 0, "velocity": 0, "duration": 72}, {"note": 69, "velocity": 106, "duration": 151}, {"note": 0, "velocity": 0, "duration": 89}, {"note": 67, "velocity": 112, "duration": 154}, {"note": 0, "velocity": 0, "duration": 86}, {"note": 64, "velocity": 112, "duration": 168}, {"note": 0, "velocity": 0, "duration": 72}, {"note": 67, "velocity": 106, "duration": 149}, {"note": 0, "velocity": 0, "duration": 91}, {"note": 62, "velocity": 115, "duration": 1649}, {"note": 0, "velocity": 0, "duration": 271}, {"note": 67, "velocity": 115, "duration": 612}, {"note": 0, "velocity": 0, "duration": 108}, {"note": 71, "velocity": 109, "duration": 149}, {"note": 0, "velocity": 0, "duration": 91}, {"note": 59, "velocity": 112, "duration": 175}, {"note": 0, "velocity": 0, "duration": 65}, {"note": 62, "velocity": 112, "duration": 138}, {"note": 0, "velocity": 0, "duration": 102}, {"note": 64, "velocity": 106, "duration": 149}, {"note": 0, "velocity": 0, "duration": 91}, {"note": 67, "velocity": 109, "duration": 152}, {"note": 0, "velocity": 0, "duration": 88}, {"note": 69, "velocity": 109, "duration": 1754}, {"note": 0, "velocity": 0, "duration": 166}, {"note": 67, "velocity": 109, "duration": 565}, {"note": 0, "velocity": 0, "duration": 155}, {"note": 69, "velocity": 112, "duration": 137}, {"note": 0, "velocity": 0, "duration": 103}, {"note": 64, "velocity": 112, "duration": 165}, {"note": 0, "velocity": 0, "duration": 75}, {"note": 67, "velocity": 109, "duration": 130}, {"note": 0, "velocity": 0, "duration": 110}, {"note": 62, "velocity": 118, "duration": 210}, {"note": 59, "velocity": 112, "duration": 96}, {"note": 0, "velocity": 0, "duration": 144}, {"note": 62, "velocity": 112, "duration": 1805}, {"note": 0, "velocity": 0, "duration": 115}, {"note": 59, "velocity": 115, "duration": 602}, {"note": 0, "velocity": 0, "duration": 118}, {"note": 62, "velocity": 109, "duration": 160}, {"note": 0, "velocity": 0, "duration": 80}, {"note": 59, "velocity": 109, "duration": 163}, {"note": 0, "velocity": 0, "duration": 77}, {"note": 57, "velocity": 115, "duration": 141}, {"note": 0, "velocity": 0, "duration": 99}, {"note": 55, "velocity": 112, "duration": 162}, {"note": 0, "velocity": 0, "duration": 78}, {"note": 59, "velocity": 112, "duration": 183}, {"note": 57, "velocity": 112, "duration": 1617}, {"note": 0, "velocity": 0, "duration": 303}, {"note": 62, "velocity": 115, "duration": 595}, {"note": 0, "velocity": 0, "duration": 125}, {"note": 64, "velocity": 112, "duration": 149}, {"note": 0, "velocity": 0, "duration": 91}, {"note": 62, "velocity": 112, "duration": 151}, {"note": 0, "velocity": 0, "duration": 89}, {"note": 59, "velocity": 115, "duration": 153}, {"note": 0, "velocity": 0, "duration": 87}, {"note": 67, "velocity": 109, "duration": 136}, {"note": 0, "velocity": 0, "duration": 104}, {"note": 69, "velocity": 109, "duration": 394}, {"note": 0, "velocity": 0, "duration": 86}, {"note": 64, "velocity": 115, "duration": 1484}, {"note": 0, "velocity": 0, "duration": 196}, {"note": 67, "velocity": 112, "duration": 134}, {"note": 0, "velocity": 0, "duration": 106}, {"note": 71, "velocity": 109, "duration": 213}, {"note": 0, "velocity": 0, "duration": 267}, {"note": 67, "velocity": 106, "duration": 137}, {"note": 0, "velocity": 0, "duration": 103}, {"note": 59, "velocity": 112, "duration": 393}, {"note": 0, "velocity": 0, "duration": 87}, {"note": 62, "velocity": 112, "duration": 329}, {"note": 0, "velocity": 0, "duration": 151}, {"note": 64, "velocity": 109, "duration": 127}, {"note": 0, "velocity": 0, "duration": 113}, {"note": 67, "velocity": 109, "duration": 153}, {"note": 0, "velocity": 0, "duration": 327}, {"note": 64, "velocity": 101, "duration": 148}, {"note": 0, "velocity": 0, "duration": 92}, {"note": 57, "velocity": 115, "duration": 360}, {"note": 0, "velocity": 0, "duration": 120}, {"note": 59, "velocity": 112, "duration": 391}, {"note": 0, "velocity": 0, "duration": 569}, {"note": 62, "velocity": 115, "duration": 172}, {"note": 0, "velocity": 0, "duration": 68}, {"note": 64, "velocity": 115, "duration": 165}, {"note": 0, "velocity": 0, "duration": 75}, {"note": 67, "velocity": 112, "duration": 367}, {"note": 0, "velocity": 0, "duration": 113}, {"note": 69, "velocity": 115, "duration": 355}, {"note": 0, "velocity": 0, "duration": 125}, {"note": 71, "velocity": 109, "duration": 362}, {"note": 0, "velocity": 0, "duration": 118}, {"note": 64, "velocity": 109, "duration": 143}, {"note": 0, "velocity": 0, "duration": 97}, {"note": 67, "velocity": 115, "duration": 122}, {"note": 0, "velocity": 0, "duration": 118}, {"note": 69, "velocity": 112, "duration": 346}, {"note": 0, "velocity": 0, "duration": 134}, {"note": 71, "velocity": 118, "duration": 136}, {"note": 0, "velocity": 0, "duration": 104}, {"note": 74, "velocity": 112, "duration": 170}, {"note": 0, "velocity": 0, "duration": 310}, {"note": 71, "velocity": 115, "duration": 364}, {"note": 0, "velocity": 0, "duration": 116}, {"note": 74, "velocity": 112, "duration": 150}, {"note": 0, "velocity": 0, "duration": 90}, {"note": 71, "velocity": 115, "duration": 218}, {"note": 69, "velocity": 112, "duration": 124}, {"note": 0, "velocity": 0, "duration": 116}, {"note": 67, "velocity": 112, "duration": 163}, {"note": 0, "velocity": 0, "duration": 77}, {"note": 71, "velocity": 112, "duration": 158}, {"note": 0, "velocity": 0, "duration": 82}, {"note": 69, "velocity": 112, "duration": 1835}, {"note": 0, "velocity": 0, "duration": 325}, {"note": 62, "velocity": 109, "duration": 381}, {"note": 0, "velocity": 0, "duration": 99}, {"note": 64, "velocity": 104, "duration": 107}, {"note": 0, "velocity": 0, "duration": 133}, {"note": 62, "velocity": 99, "duration": 135}, {"note": 0, "velocity": 0, "duration": 105}, {"note": 59, "velocity": 94, "duration": 132}, {"note": 0, "velocity": 0, "duration": 108}, {"note": 67, "velocity": 96, "duration": 138}, {"note": 0, "velocity": 0, "duration": 102}, {"note": 69, "velocity": 99, "duration": 127}, {"note": 0, "velocity": 0, "duration": 113}, {"note": 64, "velocity": 85, "duration": 1053}, {"note": 0, "velocity": 0, "duration": 867}, {"note": 67, "velocity": 104, "duration": 601}, {"note": 0, "velocity": 0, "duration": 119}, {"note": 71, "velocity": 106, "duration": 168}, {"note": 0, "velocity": 0, "duration": 72}, {"note": 59, "velocity": 109, "duration": 163}, {"note": 0, "velocity": 0, "duration": 77}, {"note": 62, "velocity": 112, "duration": 135}, {"note": 0, "velocity": 0, "duration": 105}, {"note": 64, "velocity": 106, "duration": 139}, {"note": 0, "velocity": 0, "duration": 101}, {"note": 67, "velocity": 112, "duration": 151}, {"note": 0, "velocity": 0, "duration": 89}, {"note": 69, "velocity": 106, "duration": 1713}, {"note": 0, "velocity": 0, "duration": 207}, {"note": 67, "velocity": 112, "duration": 329}, {"note": 0, "velocity": 0, "duration": 151}, {"note": 64, "velocity": 109, "duration": 143}, {"note": 0, "velocity": 0, "duration": 97}, {"note": 67, "velocity": 109, "duration": 116}, {"note": 0, "velocity": 0, "duration": 124}, {"note": 62, "velocity": 109, "duration": 146}, {"note": 0, "velocity": 0, "duration": 94}, {"note": 59, "velocity": 112, "duration": 149}, {"note": 0, "velocity": 0, "duration": 91}, {"note": 62, "velocity": 112, "duration": 142}, {"note": 0, "velocity": 0, "duration": 98}, {"note": 69, "velocity": 109, "duration": 146}, {"note": 0, "velocity": 0, "duration": 94}, {"note": 67, "velocity": 106, "duration": 1882}]]