[[{"note": 62, "velocity": 115, "duration": 720}, {"note": 57, "velocity": 118, "duration": 240}, {"note": 62, "velocity": 115, "duration": 480}, {"note": 65, "velocity": 112, "duration": 480}, {"note": 67, "velocity": 112, "duration": 240}, {"note": 69, "velocity": 112, "duration": 120}, {"note": 67, "velocity": 109, "duration": 120}, {"note": 65, "velocity": 112, "duration": 240}, {"note": 67, "velocity": 109, "duration": 240}, {"note": 69, "velocity": 112, "duration": 960}, {"note": 74, "velocity": 112, "duration": 239}, {"note": 74, "velocity": 109, "duration": 120}, {"note": 72, "velocity": 109, "duration": 120}, {"note": 69, "velocity": 115, "duration": 240}, {"note": 67, "velocity": 104, "duration": 240}, {"note": 65, "velocity": 115, "duration": 240}, {"note": 62, "velocity": 112, "duration": 240}, {"note": 65, "velocity": 112, "duration": 240}, {"note": 67, "velocity": 106, "duration": 240}, {"note": 69, "velocity": 112, "duration": 1919}, {"note": 69, "velocity": 118, "duration": 239}, {"note": 69, "velocity": 115, "duration": 480}, {"note": 74, "velocity": 106, "duration": 239}, {"note": 74, "velocity": 109, "duration": 240}, {"note": 72, "velocity": 112, "duration": 240}, {"note": 69, "velocity": 115, "duration": 239}, {"note": 69, "velocity": 112, "duration": 120}, {"note": 72, "velocity": 106, "duration": 120}, {"note": 65, "velocity": 115, "duration": 240}, {"note": 62, "velocity": 112, "duration": 480}, {"note": 69, "velocity": 109, "duration": 239}, {"note": 69, "velocity": 112, "duration": 240}, {"note": 67, "velocity": 106, "duration": 719}, {"note": 67, "velocity": 101, "duration": 239}, {"note": 67, "velocity": 104, "duration": 119}, {"note": 67, "velocity": 106, "duration": 120}, {"note": 69, "velocity": 109, "duration": 240}, {"note": 72, "velocity": 106, "duration": 240}, {"note": 65, "velocity": 112, "duration": 479}, {"note": 65, "velocity": 112, "duration": 240}, {"note": 67, "velocity": 109, "duration": 120}, {"note": 65, "velocity": 114, "duration": 360}, {"note": 62, "velocity": 109, "duration": 1679}, {"note": 62, "velocity": 115, "duration": 720}, {"note": 57, "velocity": 118, "duration": 240}, {"note": 62, "velocity": 115, "duration": 239}, {"note": 62, "velocity": 115, "duration": 240}, {"note": 69, "velocity": 112, "duration": 480}, {"note": 67, "velocity": 112, "duration": 240}, {"note": 69, "velocity": 112, "duration": 120}, {"note": 67, "velocity": 109, "duration": 120}, {"note": 65, "velocity": 112, "duration": 240}, {"note": 67, "velocity": 109, "duration": 240}, {"note": 69, "velocity": 112, "duration": 960}, {"note": 74, "velocity": 112, "duration": 239}, {"note": 74, "velocity": 109, "duration": 120}, {"note": 72, "velocity": 109, "duration": 120}, {"note": 69, "velocity": 115, "duration": 240}, {"note": 67, "velocity": 104, "duration": 240}, {"note": 65, "velocity": 115, "duration": 240}, {"note": 62, "velocity": 112, "duration": 240}, {"note": 65, "velocity": 112, "duration": 240}, {"note": 67, "velocity": 106, "duration": 240}, {"note": 69, "velocity": 112, "duration": 1919}, {"note": 69, "velocity": 118, "duration": 239}, {"note": 69, "velocity": 115, "duration": 480}, {"note": 74, "velocity": 106, "duration": 239}, {"note": 74, "velocity": 109, "duration": 240}, {"note": 72, "velocity": 112, "duration": 240}, {"note": 69, "velocity": 115, "duration": 480}, {"note": 65, "velocity": 115, "duration": 240}, {"note": 62, "velocity": 112, "duration": 480}, {"note": 69, "velocity": 109, "duration": 239}, {"note": 69, "velocity": 112, "duration": 240}, {"note": 67, "velocity": 106, "duration": 719}, {"note": 67, "velocity": 101, "duration": 239}, {"note": 67, "velocity": 104, "duration": 119}, {"note": 67, "velocity": 106, "duration": 120}, {"note": 69, "velocity": 109, "duration": 240}, {"note": 72, "velocity": 106, "duration": 240}, {"note": 65, "velocity": 112, "duration": 479}, {"note": 65, "velocity": 112, "duration": 240}, {"note": 67, "velocity": 109, "duration": 120}, {"note": 65, "velocity": 114, "duration": 360}, {"note": 62, "velocity": 109, "duration": 1680}, {"note": 74, "velocity": 112, "duration": 239}, {"note": 74, "velocity": 112, "duration": 480}, {"note": 72, "velocity": 104, "duration": 240}, {"note": 74, "velocity": 109, "duration": 240}, {"note": 72, "velocity": 112, "duration": 240}, {"note": 69, "velocity": 115, "duration": 480}, {"note": 72, "velocity": 112, "duration": 240}, {"note": 69, "velocity": 112, "duration": 240}, {"note": 67, "velocity": 112, "duration": 240}, {"note": 65, "velocity": 115, "duration": 120}, {"note": 67, "velocity": 112, "duration": 120}, {"note": 69, "velocity": 109, "duration": 960}, {"note": 74, "velocity": 112, "duration": 360}, {"note": 72, "velocity": 112, "duration": 120}, {"note": 74, "velocity": 115, "duration": 240}, {"note": 72, "velocity": 112, "duration": 240}, {"note": 70, "velocity": 117, "duration": 240}, {"note": 62, "velocity": 118, "duration": 480}, {"note": 67, "velocity": 104, "duration": 120}, {"note": 69, "velocity": 109, "duration": 120}, {"note": 67, "velocity": 106, "duration": 1919}, {"note": 67, "velocity": 112, "duration": 239}, {"note": 67, "velocity": 109, "duration": 120}, {"note": 69, "velocity": 101, "duration": 120}, {"note": 67, "velocity": 118, "duration": 240}, {"note": 65, "velocity": 115, "duration": 240}, {"note": 67, "velocity": 112, "duration": 960}, {"note": 62, "velocity": 109, "duration": 239}, {"note": 62, "velocity": 109, "duration": 120}, {"note": 65, "velocity": 109, "duration": 120}, {"note": 62, "velocity": 112, "duration": 240}, {"note": 60, "velocity": 112, "duration": 240}, {"note": 57, "velocity": 115, "duration": 959}, {"note": 57, "velocity": 104, "duration": 240}, {"note": 67, "velocity": 109, "duration": 239}, {"note": 67, "velocity": 112, "duration": 240}, {"note": 69, "velocity": 112, "duration": 240}, {"note": 65, "velocity": 109, "duration": 480}, {"note": 62, "velocity": 112, "duration": 120}, {"note": 65, "velocity": 109, "duration": 120}, {"note": 62, "velocity": 112, "duration": 120}, {"note": 60, "velocity": 99, "duration": 120}, {"note": 62, "velocity": 112, "duration": 1920}, {"note": 74, "velocity": 112, "duration": 239}, {"note": 74, "velocity": 112, "duration": 480}, {"note": 72, "velocity": 104, "duration": 240}, {"note": 74, "velocity": 109, "duration": 240}, {"note": 72, "velocity": 112, "duration": 240}, {"note": 69, "velocity": 115, "duration": 480}, {"note": 72, "velocity": 112, "duration": 240}, {"note": 69, "velocity": 112, "duration": 240}, {"note": 67, "velocity": 112, "duration": 240}, {"note": 65, "velocity": 115, "duration": 120}, {"note": 67, "velocity": 112, "duration": 120}, {"note": 69, "velocity": 109, "duration": 960}, {"note": 74, "velocity": 112, "duration": 360}, {"note": 72, "velocity": 112, "duration": 120}, {"note": 74, "velocity": 115, "duration": 240}, {"note": 72, "velocity": 112, "duration": 240}, {"note": 70, "velocity": 117, "duration": 240}, {"note": 62, "velocity": 118, "duration": 480}, {"note": 67, "velocity": 104, "duration": 120}, {"note": 69, "velocity": 109, "duration": 120}, {"note": 67, "velocity": 106, "duration": 1919}, {"note": 67, "velocity": 112, "duration": 239}, {"note": 67, "velocity": 109, "duration": 120}, {"note": 69, "velocity": 101, "duration": 120}, {"note": 67, "velocity": 118, "duration": 240}, {"note": 65, "velocity": 115, "duration": 240}, {"note": 67, "velocity": 112, "duration": 960}, {"note": 62, "velocity": 109, "duration": 239}, {"note": 62, "velocity": 109, "duration": 120}, {"note": 65, "velocity": 109, "duration": 120}, {"note": 62, "velocity": 112, "duration": 240}, {"note": 60, "velocity": 112, "duration": 240}, {"note": 57, "velocity": 115, "duration": 959}, {"note": 57, "velocity": 104, "duration": 240}, {"note": 67, "velocity": 109, "duration": 239}, {"note": 67, "velocity": 112, "duration": 240}, {"note": 69, "velocity": 112, "duration": 240}, {"note": 65, "velocity": 109, "duration": 480}, {"note": 62, "velocity": 112, "duration": 120}, {"note": 65, "velocity": 109, "duration": 120}, {"note": 62, "velocity": 112, "duration": 120}, {"note": 60, "velocity": 99, "duration": 120}, {"note": 62, "velocity": 112, "duration": 2291}, {"note": 0, "velocity": 0, "duration": 14989}, {"note": 62, "velocity": 115, "duration": 720}, {"note": 57, "velocity": 118, "duration": 240}, {"note": 62, "velocity": 115, "duration": 480}, {"note": 65, "velocity": 112, "duration": 480}, {"note": 67, "velocity": 112, "duration": 240}, {"note": 69, "velocity": 112, "duration": 120}, {"note": 67, "velocity": 109, "duration": 120}, {"note": 65, "velocity": 112, "duration": 240}, {"note": 67, "velocity": 109, "duration": 240}, {"note": 69, "velocity": 112, "duration": 960}, {"note": 74, "velocity": 112, "duration": 239}, {"note": 74, "velocity": 109, "duration": 120}, {"note": 72, "velocity": 109, "duration": 120}, {"note": 69, "velocity": 115, "duration": 240}, {"note": 67, "velocity": 104, "duration": 240}, {"note": 65, "velocity": 115, "duration": 240}, {"note": 62, "velocity": 112, "duration": 240}, {"note": 65, "velocity": 112, "duration": 240}, {"note": 67, "velocity": 106, "duration": 240}, {"note": 69, "velocity": 112, "duration": 1919}, {"note": 69, "velocity": 118, "duration": 239}, {"note": 69, "velocity": 115, "duration": 480}, {"note": 74, "velocity": 106, "duration": 239}, {"note": 74, "velocity": 109, "duration": 240}, {"note": 72, "velocity": 112, "duration": 240}, {"note": 69, "velocity": 115, "duration": 239}, {"note": 69, "velocity": 112, "duration": 120}, {"note": 72, "velocity": 106, "duration": 120}, {"note": 65, "velocity": 115, "duration": 240}, {"note": 62, "velocity": 112, "duration": 480}, {"note": 69, "velocity": 109, "duration": 239}, {"note": 69, "velocity": 112, "duration": 240}, {"note": 67, "velocity": 106, "duration": 719}, {"note": 67, "velocity": 101, "duration": 239}, {"note": 67, "velocity": 104, "duration": 119}, {"note": 67, "velocity": 106, "duration": 120}, {"note": 69, "velocity": 109, "duration": 240}, {"note": 72, "velocity": 106, "duration": 240}, {"note": 65, "velocity": 112, "duration": 479}, {"note": 65, "velocity": 112, "duration": 240}, {"note": 67, "velocity": 109, "duration": 120}, {"note": 65, "velocity": 114, "duration": 360}, {"note": 62, "velocity": 109, "duration": 1679}, {"note": 62, "velocity": 115, "duration": 720}, {"note": 57, "velocity": 118, "duration": 240}, {"note": 62, "velocity": 115, "duration": 239}, {"note": 62, "velocity": 115, "duration": 240}, {"note": 69, "velocity": 112, "duration": 480}, {"note": 67, "velocity": 112, "duration": 240}, {"note": 69, "velocity": 112, "duration": 120}, {"note": 67, "velocity": 109, "duration": 120}, {"note": 65, "velocity": 112, "duration": 240}, {"note": 67, "velocity": 109, "duration": 240}, {"note": 69, "velocity": 112, "duration": 960}, {"note": 74, "velocity": 112, "duration": 239}, {"note": 74, "velocity": 109, "duration": 120}, {"note": 72, "velocity": 109, "duration": 120}, {"note": 69, "velocity": 115, "duration": 240}, {"note": 67, "velocity": 104, "duration": 240}, {"note": 65, "velocity": 115, "duration": 240}, {"note": 62, "velocity": 112, "duration": 240}, {"note": 65, "velocity": 112, "duration": 240}, {"note": 67, "velocity": 106, "duration": 240}, {"note": 69, "velocity": 112, "duration": 1919}, {"note": 69, "velocity": 118, "duration": 239}, {"note": 69, "velocity": 115, "duration": 480}, {"note": 74, "velocity": 106, "duration": 239}, {"note": 74, "velocity": 109, "duration": 240}, {"note": 72, "velocity": 112, "duration": 240}, {"note": 69, "velocity": 115, "duration": 480}, {"note": 65, "velocity": 115, "duration": 240}, {"note": 62, "velocity": 112, "duration": 480}, {"note": 69, "velocity": 109, "duration": 239}, {"note": 69, "velocity": 112, "duration": 240}, {"note": 67, "velocity": 106, "duration": 719}, {"note": 67, "velocity": 101, "duration": 239}, {"note": 67, "velocity": 104, "duration": 119}, {"note": 67, "velocity": 106, "duration": 120}, {"note": 69, "velocity": 109, "duration": 240}, {"note": 72, "velocity": 106, "duration": 240}, {"note": 65, "velocity": 112, "duration": 479}, {"note": 65, "velocity": 112, "duration": 240}, {"note": 67, "velocity": 109, "duration": 120}, {"note": 65, "velocity": 114, "duration": 360}, {"note": 62, "velocity": 109, "duration": 1680}, {"note": 74, "velocity": 112, "duration": 239}, {"note": 74, "velocity": 112, "duration": 480}, {"note": 72, "velocity": 104, "duration": 240}, {"note": 74, "velocity": 109, "duration": 240}, {"note": 72, "velocity": 112, "duration": 240}, {"note": 69, "velocity": 115, "duration": 480}, {"note": 72, "velocity": 112, "duration": 240}, {"note": 69, "velocity": 112, "duration": 240}, {"note": 67, "velocity": 112, "duration": 240}, {"note": 65, "velocity": 115, "duration": 120}, {"note": 67, "velocity": 112, "duration": 120}, {"note": 69, "velocity": 109, "duration": 960}, {"note": 74, "velocity": 112, "duration": 360}, {"note": 72, "velocity": 112, "duration": 120}, {"note": 74, "velocity": 115, "duration": 240}, {"note": 72, "velocity": 112, "duration": 240}, {"note": 70, "velocity": 117, "duration": 240}, {"note": 62, "velocity": 118, "duration": 480}, {"note": 67, "velocity": 104, "duration": 120}, {"note": 69, "velocity": 109, "duration": 120}, {"note": 67, "velocity": 106, "duration": 1919}, {"note": 67, "velocity": 112, "duration": 239}, {"note": 67, "velocity": 109, "duration": 120}, {"note": 69, "velocity": 101, "duration": 120}, {"note": 67, "velocity": 118, "duration": 240}, {"note": 65, "velocity": 115, "duration": 240}, {"note": 67, "velocity": 112, "duration": 960}, {"note": 62, "velocity": 109, "duration": 239}, {"note": 62, "velocity": 109, "duration": 120}, {"note": 65, "velocity": 109, "duration": 120}, {"note": 62, "velocity": 112, "duration": 240}, {"note": 60, "velocity": 112, "duration": 240}, {"note": 57, "velocity": 115, "duration": 959}, {"note": 57, "velocity": 104, "duration": 240}, {"note": 67, "velocity": 109, "duration": 239}, {"note": 67, "velocity": 112, "duration": 240}, {"note": 69, "velocity": 112, "duration": 240}, {"note": 65, "velocity": 109, "duration": 480}, {"note": 62, "velocity": 112, "duration": 120}, {"note": 65, "velocity": 109, "duration": 120}, {"note": 62, "velocity": 112, "duration": 120}, {"note": 60, "velocity": 99, "duration": 120}, {"note": 62, "velocity": 112, "duration": 1920}, {"note": 74, "velocity": 112, "duration": 239}, {"note": 74, "velocity": 112, "duration": 480}, {"note": 72, "velocity": 104, "duration": 240}, {"note": 74, "velocity": 109, "duration": 240}, {"note": 72, "velocity": 112, "duration": 240}, {"note": 69, "velocity": 115, "duration": 480}, {"note": 72, "velocity": 112, "duration": 240}, {"note": 69, "velocity": 112, "duration": 240}, {"note": 67, "velocity": 112, "duration": 240}, {"note": 65, "velocity": 115, "duration": 120}, {"note": 67, "velocity": 112, "duration": 120}, {"note": 69, "velocity": 109, "duration": 960}, {"note": 74, "velocity": 112, "duration": 360}, {"note": 72, "velocity": 112, "duration": 120}, {"note": 74, "velocity": 115, "duration": 240}, {"note": 72, "velocity": 112, "duration": 240}, {"note": 70, "velocity": 117, "duration": 240}, {"note": 62, "velocity": 118, "duration": 480}, {"note": 67, "velocity": 104, "duration": 120}, {"note": 69, "velocity": 109, "duration": 120}, {"note": 67, "velocity": 106, "duration": 1919}, {"note": 67, "velocity": 112, "duration": 239}, {"note": 67, "velocity": 109, "duration": 120}, {"note": 69, "velocity": 101, "duration": 120}, {"note": 67, "velocity": 118, "duration": 240}, {"note": 65, "velocity": 115, "duration": 240}, {"note": 67, "velocity": 112, "duration": 960}, {"note": 62, "velocity": 109, "duration": 239}, {"note": 62, "velocity": 109, "duration": 120}, {"note": 65, "velocity": 109, "duration": 120}, {"note": 62, "velocity": 112, "duration": 240}, {"note": 60, "velocity": 112, "duration": 240}, {"note": 57, "velocity": 115, "duration": 959}, {"note": 57, "velocity": 104, "duration": 240}, {"note": 67, "velocity": 109, "duration": 239}, {"note": 67, "velocity": 112, "duration": 240}, {"note": 69, "velocity": 112, "duration": 240}, {"note": 65, "velocity": 109, "duration": 480}, {"note": 62, "velocity": 112, "duration": 120}, {"note": 65, "velocity": 109, "duration": 120}, {"note": 62, "velocity": 112, "duration": 120}, {"note": 60, "velocity": 99, "duration": 120}, {"note": 62, "velocity": 112, "duration": 2291}]]