[[{"note": 62, "velocity": 115, "duration": 171}, {"note": 0, "velocity": 0, "duration": 69}, {"note": 67, "velocity": 104, "duration": 179}, {"note": 0, "velocity": 0, "duration": 61}, {"note": 66, "velocity": 117, "duration": 176}, {"note": 0, "velocity": 0, "duration": 64}, {"note": 64, "velocity": 109, "duration": 377}, {"note": 0, "velocity": 0, "duration": 103}, {"note": 62, "velocity": 109, "duration": 77}, {"note": 60, "velocity": 101, "duration": 70}, {"note": 62, "velocity": 104, "duration": 354}, {"note": 0, "velocity": 0, "duration": 366}, {"note": 57, "velocity": 104, "duration": 121}, {"note": 60, "velocity": 89, "duration": 107}, {"note": 59, "velocity": 99, "duration": 755}, {"note": 0, "velocity": 0, "duration": 685}, {"note": 55, "velocity": 106, "duration": 203}, {"note": 64, "velocity": 109, "duration": 176}, {"note": 0, "velocity": 0, "duration": 64}, {"note": 64, "velocity": 106, "duration": 177}, {"note": 0, "velocity": 0, "duration": 63}, {"note": 62, "velocity": 104, "duration": 399}, {"note": 0, "velocity": 0, "duration": 81}, {"note": 55, "velocity": 104, "duration": 94}, {"note": 57, "velocity": 104, "duration": 69}, {"note": 59, "velocity": 104, "duration": 1454}, {"note": 0, "velocity": 0, "duration": 946}, {"note": 59, "velocity": 106, "duration": 196}, {"note": 66, "velocity": 110, "duration": 174}, {"note": 0, "velocity": 0, "duration": 66}, {"note": 66, "velocity": 113, "duration": 355}, {"note": 0, "velocity": 0, "duration": 125}, {"note": 59, "velocity": 109, "duration": 166}, {"note": 0, "velocity": 0, "duration": 74}, {"note": 59, "velocity": 109, "duration": 170}, {"note": 0, "velocity": 0, "duration": 70}, {"note": 66, "velocity": 107, "duration": 171}, {"note": 0, "velocity": 0, "duration": 69}, {"note": 67, "velocity": 99, "duration": 788}, {"note": 0, "velocity": 0, "duration": 412}, {"note": 64, "velocity": 112, "duration": 169}, {"note": 0, "velocity": 0, "duration": 71}, {"note": 66, "velocity": 113, "duration": 144}, {"note": 0, "velocity": 0, "duration": 96}, {"note": 67, "velocity": 109, "duration": 162}, {"note": 0, "velocity": 0, "duration": 78}, {"note": 64, "velocity": 101, "duration": 160}, {"note": 0, "velocity": 0, "duration": 80}, {"note": 64, "velocity": 99, "duration": 187}, {"note": 62, "velocity": 106, "duration": 194}, {"note": 64, "velocity": 101, "duration": 583}, {"note": 62, "velocity": 101, "duration": 478}, {"note": 55, "velocity": 104, "duration": 231}, {"note": 59, "velocity": 94, "duration": 238}, {"note": 57, "velocity": 101, "duration": 797}, {"note": 0, "velocity": 0, "duration": 1123}, {"note": 62, "velocity": 115, "duration": 171}, {"note": 0, "velocity": 0, "duration": 69}, {"note": 67, "velocity": 104, "duration": 179}, {"note": 0, "velocity": 0, "duration": 61}, {"note": 66, "velocity": 117, "duration": 176}, {"note": 0, "velocity": 0, "duration": 64}, {"note": 64, "velocity": 109, "duration": 377}, {"note": 0, "velocity": 0, "duration": 103}, {"note": 62, "velocity": 109, "duration": 77}, {"note": 60, "velocity": 101, "duration": 70}, {"note": 62, "velocity": 104, "duration": 354}, {"note": 0, "velocity": 0, "duration": 366}, {"note": 57, "velocity": 104, "duration": 121}, {"note": 60, "velocity": 89, "duration": 107}, {"note": 59, "velocity": 99, "duration": 755}, {"note": 0, "velocity": 0, "duration": 685}, {"note": 55, "velocity": 106, "duration": 203}, {"note": 64, "velocity": 109, "duration": 176}, {"note": 0, "velocity": 0, "duration": 64}, {"note": 64, "velocity": 106, "duration": 177}, {"note": 0, "velocity": 0, "duration": 63}, {"note": 62, "velocity": 104, "duration": 399}, {"note": 0, "velocity": 0, "duration": 81}, {"note": 55, "velocity": 104, "duration": 94}, {"note": 57, "velocity": 104, "duration": 69}, {"note": 59, "velocity": 104, "duration": 1454}, {"note": 0, "velocity": 0, "duration": 946}, {"note": 59, "velocity": 106, "duration": 196}, {"note": 66, "velocity": 110, "duration": 174}, {"note": 0, "velocity": 0, "duration": 66}, {"note": 66, "velocity": 113, "duration": 355}, {"note": 0, "velocity": 0, "duration": 125}, {"note": 59, "velocity": 109, "duration": 166}, {"note": 0, "velocity": 0, "duration": 74}, {"note": 59, "velocity": 109, "duration": 170}, {"note": 0, "velocity": 0, "duration": 70}, {"note": 66, "velocity": 107, "duration": 171}, {"note": 0, "velocity": 0, "duration": 69}, {"note": 67, "velocity": 99, "duration": 788}, {"note": 0, "velocity": 0, "duration": 412}, {"note": 64, "velocity": 112, "duration": 169}, {"note": 0, "velocity": 0, "duration": 71}, {"note": 66, "velocity": 113, "duration": 144}, {"note": 0, "velocity": 0, "duration": 96}, {"note": 67, "velocity": 109, "duration": 162}, {"note": 0, "velocity": 0, "duration": 78}, {"note": 64, "velocity": 101, "duration": 160}, {"note": 0, "velocity": 0, "duration": 80}, {"note": 64, "velocity": 99, "duration": 187}, {"note": 62, "velocity": 106, "duration": 194}, {"note": 64, "velocity": 101, "duration": 478}, {"note": 0, "velocity": 0, "duration": 217}, {"note": 64, "velocity": 115, "duration": 439}, {"note": 67, "velocity": 112, "duration": 165}, {"note": 64, "velocity": 104, "duration": 234}, {"note": 62, "velocity": 106, "duration": 2362}, {"note": 0, "velocity": 0, "duration": 213}, {"note": 62, "velocity": 115, "duration": 183}, {"note": 69, "velocity": 112, "duration": 188}, {"note": 72, "velocity": 106, "duration": 136}, {"note": 0, "velocity": 0, "duration": 104}, {"note": 72, "velocity": 109, "duration": 177}, {"note": 0, "velocity": 0, "duration": 63}, {"note": 71, "velocity": 106, "duration": 156}, {"note": 0, "velocity": 0, "duration": 84}, {"note": 71, "velocity": 109, "duration": 160}, {"note": 0, "velocity": 0, "duration": 80}, {"note": 69, "velocity": 112, "duration": 150}, {"note": 0, "velocity": 0, "duration": 90}, {"note": 71, "velocity": 112, "duration": 382}, {"note": 0, "velocity": 0, "duration": 98}, {"note": 67, "velocity": 115, "duration": 145}, {"note": 0, "velocity": 0, "duration": 95}, {"note": 71, "velocity": 109, "duration": 324}, {"note": 0, "velocity": 0, "duration": 156}, {"note": 69, "velocity": 109, "duration": 605}, {"note": 0, "velocity": 0, "duration": 115}, {"note": 69, "velocity": 115, "duration": 162}, {"note": 0, "velocity": 0, "duration": 78}, {"note": 71, "velocity": 106, "duration": 145}, {"note": 0, "velocity": 0, "duration": 95}, {"note": 71, "velocity": 106, "duration": 139}, {"note": 0, "velocity": 0, "duration": 101}, {"note": 66, "velocity": 110, "duration": 144}, {"note": 0, "velocity": 0, "duration": 96}, {"note": 67, "velocity": 109, "duration": 373}, {"note": 0, "velocity": 0, "duration": 107}, {"note": 64, "velocity": 109, "duration": 163}, {"note": 0, "velocity": 0, "duration": 77}, {"note": 66, "velocity": 120, "duration": 143}, {"note": 0, "velocity": 0, "duration": 97}, {"note": 67, "velocity": 109, "duration": 162}, {"note": 0, "velocity": 0, "duration": 78}, {"note": 71, "velocity": 104, "duration": 158}, {"note": 0, "velocity": 0, "duration": 82}, {"note": 69, "velocity": 106, "duration": 148}, {"note": 0, "velocity": 0, "duration": 92}, {"note": 67, "velocity": 106, "duration": 145}, {"note": 0, "velocity": 0, "duration": 95}, {"note": 66, "velocity": 117, "duration": 346}, {"note": 0, "velocity": 0, "duration": 614}, {"note": 67, "velocity": 104, "duration": 152}, {"note": 0, "velocity": 0, "duration": 88}, {"note": 66, "velocity": 117, "duration": 190}, {"note": 62, "velocity": 112, "duration": 160}, {"note": 0, "velocity": 0, "duration": 80}, {"note": 66, "velocity": 117, "duration": 167}, {"note": 0, "velocity": 0, "duration": 73}, {"note": 64, "velocity": 106, "duration": 519}, {"note": 0, "velocity": 0, "duration": 201}, {"note": 64, "velocity": 109, "duration": 151}, {"note": 0, "velocity": 0, "duration": 89}, {"note": 64, "velocity": 115, "duration": 167}, {"note": 0, "velocity": 0, "duration": 73}, {"note": 74, "velocity": 112, "duration": 149}, {"note": 0, "velocity": 0, "duration": 91}, {"note": 72, "velocity": 112, "duration": 146}, {"note": 0, "velocity": 0, "duration": 94}, {"note": 71, "velocity": 115, "duration": 148}, {"note": 0, "velocity": 0, "duration": 92}, {"note": 72, "velocity": 112, "duration": 483}, {"note": 0, "velocity": 0, "duration": 228}, {"note": 67, "velocity": 109, "duration": 140}, {"note": 0, "velocity": 0, "duration": 96}, {"note": 69, "velocity": 112, "duration": 269}, {"note": 0, "velocity": 0, "duration": 85}, {"note": 62, "velocity": 115, "duration": 77}, {"note": 0, "velocity": 0, "duration": 71}, {"note": 69, "velocity": 115, "duration": 150}, {"note": 0, "velocity": 0, "duration": 74}, {"note": 72, "velocity": 106, "duration": 189}, {"note": 72, "velocity": 109, "duration": 177}, {"note": 0, "velocity": 0, "duration": 63}, {"note": 71, "velocity": 106, "duration": 156}, {"note": 0, "velocity": 0, "duration": 84}, {"note": 71, "velocity": 109, "duration": 160}, {"note": 0, "velocity": 0, "duration": 80}, {"note": 69, "velocity": 112, "duration": 150}, {"note": 0, "velocity": 0, "duration": 90}, {"note": 71, "velocity": 112, "duration": 382}, {"note": 0, "velocity": 0, "duration": 98}, {"note": 67, "velocity": 115, "duration": 145}, {"note": 0, "velocity": 0, "duration": 95}, {"note": 71, "velocity": 109, "duration": 324}, {"note": 0, "velocity": 0, "duration": 156}, {"note": 69, "velocity": 109, "duration": 605}, {"note": 0, "velocity": 0, "duration": 115}, {"note": 69, "velocity": 115, "duration": 162}, {"note": 0, "velocity": 0, "duration": 78}, {"note": 71, "velocity": 106, "duration": 145}, {"note": 0, "velocity": 0, "duration": 95}, {"note": 71, "velocity": 106, "duration": 139}, {"note": 0, "velocity": 0, "duration": 101}, {"note": 66, "velocity": 110, "duration": 144}, {"note": 0, "velocity": 0, "duration": 96}, {"note": 67, "velocity": 109, "duration": 373}, {"note": 0, "velocity": 0, "duration": 107}, {"note": 64, "velocity": 109, "duration": 163}, {"note": 0, "velocity": 0, "duration": 77}, {"note": 66, "velocity": 120, "duration": 143}, {"note": 0, "velocity": 0, "duration": 97}, {"note": 67, "velocity": 109, "duration": 162}, {"note": 0, "velocity": 0, "duration": 78}, {"note": 71, "velocity": 104, "duration": 158}, {"note": 0, "velocity": 0, "duration": 82}, {"note": 69, "velocity": 106, "duration": 148}, {"note": 0, "velocity": 0, "duration": 92}, {"note": 67, "velocity": 106, "duration": 145}, {"note": 0, "velocity": 0, "duration": 95}, {"note": 66, "velocity": 117, "duration": 346}, {"note": 0, "velocity": 0, "duration": 614}, {"note": 67, "velocity": 104, "duration": 152}, {"note": 0, "velocity": 0, "duration": 88}, {"note": 66, "velocity": 117, "duration": 190}, {"note": 62, "velocity": 112, "duration": 160}, {"note": 0, "velocity": 0, "duration": 80}, {"note": 66, "velocity": 117, "duration": 167}, {"note": 0, "velocity": 0, "duration": 73}, {"note": 64, "velocity": 106, "duration": 519}, {"note": 0, "velocity": 0, "duration": 201}, {"note": 64, "velocity": 109, "duration": 151}, {"note": 0, "velocity": 0, "duration": 89}, {"note": 64, "velocity": 115, "duration": 167}, {"note": 0, "velocity": 0, "duration": 73}, {"note": 74, "velocity": 112, "duration": 149}, {"note": 0, "velocity": 0, "duration": 91}, {"note": 72, "velocity": 112, "duration": 146}, {"note": 0, "velocity": 0, "duration": 94}, {"note": 71, "velocity": 115, "duration": 148}, {"note": 0, "velocity": 0, "duration": 92}, {"note": 69, "velocity": 112, "duration": 958}, {"note": 0, "velocity": 0, "duration": 449}, {"note": 67, "velocity": 112, "duration": 188}, {"note": 0, "velocity": 0, "duration": 62}, {"note": 66, "velocity": 117, "duration": 295}, {"note": 67, "velocity": 106, "duration": 1459}, {"note": 0, "velocity": 0, "duration": 6674}, {"note": 62, "velocity": 115, "duration": 171}, {"note": 0, "velocity": 0, "duration": 69}, {"note": 67, "velocity": 104, "duration": 179}, {"note": 0, "velocity": 0, "duration": 61}, {"note": 66, "velocity": 117, "duration": 176}, {"note": 0, "velocity": 0, "duration": 64}, {"note": 64, "velocity": 109, "duration": 377}, {"note": 0, "velocity": 0, "duration": 103}, {"note": 62, "velocity": 109, "duration": 77}, {"note": 60, "velocity": 101, "duration": 70}, {"note": 62, "velocity": 104, "duration": 354}, {"note": 0, "velocity": 0, "duration": 366}, {"note": 57, "velocity": 104, "duration": 121}, {"note": 60, "velocity": 89, "duration": 107}, {"note": 59, "velocity": 99, "duration": 755}, {"note": 0, "velocity": 0, "duration": 685}, {"note": 55, "velocity": 106, "duration": 203}, {"note": 64, "velocity": 109, "duration": 176}, {"note": 0, "velocity": 0, "duration": 64}, {"note": 64, "velocity": 106, "duration": 177}, {"note": 0, "velocity": 0, "duration": 63}, {"note": 62, "velocity": 104, "duration": 399}, {"note": 0, "velocity": 0, "duration": 81}, {"note": 55, "velocity": 104, "duration": 94}, {"note": 57, "velocity": 104, "duration": 69}, {"note": 59, "velocity": 104, "duration": 1454}, {"note": 0, "velocity": 0, "duration": 946}, {"note": 59, "velocity": 106, "duration": 196}, {"note": 66, "velocity": 110, "duration": 174}, {"note": 0, "velocity": 0, "duration": 66}, {"note": 66, "velocity": 113, "duration": 355}, {"note": 0, "velocity": 0, "duration": 125}, {"note": 59, "velocity": 109, "duration": 166}, {"note": 0, "velocity": 0, "duration": 74}, {"note": 59, "velocity": 109, "duration": 170}, {"note": 0, "velocity": 0, "duration": 70}, {"note": 66, "velocity": 107, "duration": 171}, {"note": 0, "velocity": 0, "duration": 69}, {"note": 67, "velocity": 99, "duration": 788}, {"note": 0, "velocity": 0, "duration": 412}, {"note": 64, "velocity": 112, "duration": 169}, {"note": 0, "velocity": 0, "duration": 71}, {"note": 66, "velocity": 113, "duration": 144}, {"note": 0, "velocity": 0, "duration": 96}, {"note": 67, "velocity": 109, "duration": 162}, {"note": 0, "velocity": 0, "duration": 78}, {"note": 64, "velocity": 101, "duration": 160}, {"note": 0, "velocity": 0, "duration": 80}, {"note": 64, "velocity": 99, "duration": 187}, {"note": 62, "velocity": 106, "duration": 194}, {"note": 64, "velocity": 101, "duration": 583}, {"note": 62, "velocity": 101, "duration": 478}, {"note": 55, "velocity": 104, "duration": 231}, {"note": 59, "velocity": 94, "duration": 238}, {"note": 57, "velocity": 101, "duration": 797}, {"note": 0, "velocity": 0, "duration": 1123}, {"note": 62, "velocity": 115, "duration": 171}, {"note": 0, "velocity": 0, "duration": 69}, {"note": 67, "velocity": 104, "duration": 179}, {"note": 0, "velocity": 0, "duration": 61}, {"note": 66, "velocity": 117, "duration": 176}, {"note": 0, "velocity": 0, "duration": 64}, {"note": 64, "velocity": 109, "duration": 377}, {"note": 0, "velocity": 0, "duration": 103}, {"note": 62, "velocity": 109, "duration": 77}, {"note": 60, "velocity": 101, "duration": 70}, {"note": 62, "velocity": 104, "duration": 354}, {"note": 0, "velocity": 0, "duration": 366}, {"note": 57, "velocity": 104, "duration": 121}, {"note": 60, "velocity": 89, "duration": 107}, {"note": 59, "velocity": 99, "duration": 755}, {"note": 0, "velocity": 0, "duration": 685}, {"note": 55, "velocity": 106, "duration": 203}, {"note": 64, "velocity": 109, "duration": 176}, {"note": 0, "velocity": 0, "duration": 64}, {"note": 64, "velocity": 106, "duration": 177}, {"note": 0, "velocity": 0, "duration": 63}, {"note": 62, "velocity": 104, "duration": 399}, {"note": 0, "velocity": 0, "duration": 81}, {"note": 55, "velocity": 104, "duration": 94}, {"note": 57, "velocity": 104, "duration": 69}, {"note": 59, "velocity": 104, "duration": 1454}, {"note": 0, "velocity": 0, "duration": 946}, {"note": 59, "velocity": 106, "duration": 196}, {"note": 66, "velocity": 110, "duration": 174}, {"note": 0, "velocity": 0, "duration": 66}, {"note": 66, "velocity": 113, "duration": 355}, {"note": 0, "velocity": 0, "duration": 125}, {"note": 59, "velocity": 109, "duration": 166}, {"note": 0, "velocity": 0, "duration": 74}, {"note": 59, "velocity": 109, "duration": 170}, {"note": 0, "velocity": 0, "duration": 70}, {"note": 66, "velocity": 107, "duration": 171}, {"note": 0, "velocity": 0, "duration": 69}, {"note": 67, "velocity": 99, "duration": 788}, {"note": 0, "velocity": 0, "duration": 412}, {"note": 64, "velocity": 112, "duration": 169}, {"note": 0, "velocity": 0, "duration": 71}, {"note": 66, "velocity": 113, "duration": 144}, {"note": 0, "velocity": 0, "duration": 96}, {"note": 67, "velocity": 109, "duration": 162}, {"note": 0, "velocity": 0, "duration": 78}, {"note": 64, "velocity": 101, "duration": 160}, {"note": 0, "velocity": 0, "duration": 80}, {"note": 64, "velocity": 99, "duration": 187}, {"note": 62, "velocity": 106, "duration": 194}, {"note": 64, "velocity": 101, "duration": 478}, {"note": 64, "velocity": 115, "duration": 238}, {"note": 67, "velocity": 114, "duration": 238}, {"note": 64, "velocity": 114, "duration": 238}, {"note": 62, "velocity": 106, "duration": 718}, {"note": 0, "velocity": 0, "duration": 242}, {"note": 62, "velocity": 115, "duration": 183}, {"note": 69, "velocity": 112, "duration": 188}, {"note": 72, "velocity": 106, "duration": 136}, {"note": 0, "velocity": 0, "duration": 104}, {"note": 72, "velocity": 109, "duration": 177}, {"note": 0, "velocity": 0, "duration": 63}, {"note": 71, "velocity": 106, "duration": 156}, {"note": 0, "velocity": 0, "duration": 84}, {"note": 71, "velocity": 109, "duration": 160}, {"note": 0, "velocity": 0, "duration": 80}, {"note": 69, "velocity": 112, "duration": 150}, {"note": 0, "velocity": 0, "duration": 90}, {"note": 71, "velocity": 112, "duration": 382}, {"note": 0, "velocity": 0, "duration": 98}, {"note": 67, "velocity": 115, "duration": 145}, {"note": 0, "velocity": 0, "duration": 95}, {"note": 71, "velocity": 109, "duration": 324}, {"note": 0, "velocity": 0, "duration": 156}, {"note": 69, "velocity": 109, "duration": 605}, {"note": 0, "velocity": 0, "duration": 115}, {"note": 69, "velocity": 115, "duration": 162}, {"note": 0, "velocity": 0, "duration": 78}, {"note": 71, "velocity": 106, "duration": 145}, {"note": 0, "velocity": 0, "duration": 95}, {"note": 71, "velocity": 106, "duration": 139}, {"note": 0, "velocity": 0, "duration": 101}, {"note": 66, "velocity": 110, "duration": 144}, {"note": 0, "velocity": 0, "duration": 96}, {"note": 67, "velocity": 109, "duration": 373}, {"note": 0, "velocity": 0, "duration": 107}, {"note": 64, "velocity": 109, "duration": 163}, {"note": 0, "velocity": 0, "duration": 77}, {"note": 66, "velocity": 120, "duration": 143}, {"note": 0, "velocity": 0, "duration": 97}, {"note": 67, "velocity": 109, "duration": 162}, {"note": 0, "velocity": 0, "duration": 78}, {"note": 71, "velocity": 104, "duration": 158}, {"note": 0, "velocity": 0, "duration": 82}, {"note": 69, "velocity": 106, "duration": 148}, {"note": 0, "velocity": 0, "duration": 92}, {"note": 67, "velocity": 106, "duration": 145}, {"note": 0, "velocity": 0, "duration": 95}, {"note": 66, "velocity": 117, "duration": 346}, {"note": 0, "velocity": 0, "duration": 614}, {"note": 67, "velocity": 104, "duration": 152}, {"note": 0, "velocity": 0, "duration": 88}, {"note": 66, "velocity": 117, "duration": 190}, {"note": 62, "velocity": 112, "duration": 160}, {"note": 0, "velocity": 0, "duration": 80}, {"note": 66, "velocity": 117, "duration": 167}, {"note": 0, "velocity": 0, "duration": 73}, {"note": 64, "velocity": 106, "duration": 519}, {"note": 0, "velocity": 0, "duration": 201}, {"note": 64, "velocity": 109, "duration": 151}, {"note": 0, "velocity": 0, "duration": 89}, {"note": 64, "velocity": 115, "duration": 167}, {"note": 0, "velocity": 0, "duration": 73}, {"note": 74, "velocity": 112, "duration": 149}, {"note": 0, "velocity": 0, "duration": 91}, {"note": 72, "velocity": 112, "duration": 146}, {"note": 0, "velocity": 0, "duration": 94}, {"note": 71, "velocity": 115, "duration": 148}, {"note": 0, "velocity": 0, "duration": 92}, {"note": 72, "velocity": 112, "duration": 483}, {"note": 0, "velocity": 0, "duration": 228}, {"note": 67, "velocity": 109, "duration": 140}, {"note": 0, "velocity": 0, "duration": 96}, {"note": 69, "velocity": 112, "duration": 269}, {"note": 0, "velocity": 0, "duration": 85}, {"note": 62, "velocity": 115, "duration": 77}, {"note": 0, "velocity": 0, "duration": 71}, {"note": 69, "velocity": 115, "duration": 150}, {"note": 0, "velocity": 0, "duration": 74}, {"note": 72, "velocity": 106, "duration": 189}, {"note": 72, "velocity": 109, "duration": 177}, {"note": 0, "velocity": 0, "duration": 63}, {"note": 71, "velocity": 106, "duration": 156}, {"note": 0, "velocity": 0, "duration": 84}, {"note": 71, "velocity": 109, "duration": 160}, {"note": 0, "velocity": 0, "duration": 80}, {"note": 69, "velocity": 112, "duration": 150}, {"note": 0, "velocity": 0, "duration": 90}, {"note": 71, "velocity": 112, "duration": 382}, {"note": 0, "velocity": 0, "duration": 98}, {"note": 67, "velocity": 115, "duration": 145}, {"note": 0, "velocity": 0, "duration": 95}, {"note": 71, "velocity": 109, "duration": 324}, {"note": 0, "velocity": 0, "duration": 156}, {"note": 69, "velocity": 109, "duration": 605}, {"note": 0, "velocity": 0, "duration": 115}, {"note": 69, "velocity": 115, "duration": 162}, {"note": 0, "velocity": 0, "duration": 78}, {"note": 71, "velocity": 106, "duration": 145}, {"note": 0, "velocity": 0, "duration": 95}, {"note": 71, "velocity": 106, "duration": 139}, {"note": 0, "velocity": 0, "duration": 101}, {"note": 66, "velocity": 110, "duration": 144}, {"note": 0, "velocity": 0, "duration": 96}, {"note": 67, "velocity": 109, "duration": 373}, {"note": 0, "velocity": 0, "duration": 107}, {"note": 64, "velocity": 109, "duration": 163}, {"note": 0, "velocity": 0, "duration": 77}, {"note": 66, "velocity": 120, "duration": 143}, {"note": 0, "velocity": 0, "duration": 97}, {"note": 67, "velocity": 109, "duration": 162}, {"note": 0, "velocity": 0, "duration": 78}, {"note": 71, "velocity": 104, "duration": 158}, {"note": 0, "velocity": 0, "duration": 82}, {"note": 69, "velocity": 106, "duration": 148}, {"note": 0, "velocity": 0, "duration": 92}, {"note": 67, "velocity": 106, "duration": 145}, {"note": 0, "velocity": 0, "duration": 95}, {"note": 66, "velocity": 117, "duration": 346}, {"note": 0, "velocity": 0, "duration": 614}, {"note": 67, "velocity": 104, "duration": 152}, {"note": 0, "velocity": 0, "duration": 88}, {"note": 66, "velocity": 117, "duration": 190}, {"note": 62, "velocity": 112, "duration": 160}, {"note": 0, "velocity": 0, "duration": 80}, {"note": 66, "velocity": 117, "duration": 167}, {"note": 0, "velocity": 0, "duration": 73}, {"note": 64, "velocity": 106, "duration": 519}, {"note": 0, "velocity": 0, "duration": 201}, {"note": 64, "velocity": 109, "duration": 151}, {"note": 0, "velocity": 0, "duration": 89}, {"note": 64, "velocity": 115, "duration": 167}, {"note": 0, "velocity": 0, "duration": 73}, {"note": 74, "velocity": 112, "duration": 149}, {"note": 0, "velocity": 0, "duration": 91}, {"note": 72, "velocity": 112, "duration": 146}, {"note": 0, "velocity": 0, "duration": 94}, {"note": 71, "velocity": 115, "duration": 148}, {"note": 0, "velocity": 0, "duration": 92}, {"note": 69, "velocity": 112, "duration": 958}, {"note": 0, "velocity": 0, "duration": 449}, {"note": 67, "velocity": 112, "duration": 188}, {"note": 0, "velocity": 0, "duration": 62}, {"note": 66, "velocity": 117, "duration": 295}, {"note": 67, "velocity": 106, "duration": 1459}, {"note": 0, "velocity": 0, "duration": 1635}, {"note": 64, "velocity": 113, "duration": 120}, {"note": 0, "velocity": 0, "duration": 120}, {"note": 71, "velocity": 100, "duration": 120}, {"note": 0, "velocity": 0, "duration": 120}, {"note": 74, "velocity": 100, "duration": 120}, {"note": 0, "velocity": 0, "duration": 119}, {"note": 74, "velocity": 109, "duration": 177}, {"note": 0, "velocity": 0, "duration": 63}, {"note": 73, "velocity": 106, "duration": 156}, {"note": 0, "velocity": 0, "duration": 84}, {"note": 73, "velocity": 109, "duration": 160}, {"note": 0, "velocity": 0, "duration": 80}, {"note": 71, "velocity": 112, "duration": 150}, {"note": 0, "velocity": 0, "duration": 90}, {"note": 73, "velocity": 112, "duration": 382}, {"note": 0, "velocity": 0, "duration": 98}, {"note": 69, "velocity": 115, "duration": 145}, {"note": 0, "velocity": 0, "duration": 95}, {"note": 73, "velocity": 109, "duration": 324}, {"note": 0, "velocity": 0, "duration": 156}, {"note": 71, "velocity": 109, "duration": 605}, {"note": 0, "velocity": 0, "duration": 115}, {"note": 71, "velocity": 115, "duration": 162}, {"note": 0, "velocity": 0, "duration": 78}, {"note": 73, "velocity": 106, "duration": 145}, {"note": 0, "velocity": 0, "duration": 95}, {"note": 73, "velocity": 106, "duration": 139}, {"note": 0, "velocity": 0, "duration": 101}, {"note": 68, "velocity": 110, "duration": 144}, {"note": 0, "velocity": 0, "duration": 96}, {"note": 69, "velocity": 109, "duration": 373}, {"note": 0, "velocity": 0, "duration": 107}, {"note": 66, "velocity": 109, "duration": 163}, {"note": 0, "velocity": 0, "duration": 77}, {"note": 68, "velocity": 120, "duration": 143}, {"note": 0, "velocity": 0, "duration": 97}, {"note": 69, "velocity": 109, "duration": 162}, {"note": 0, "velocity": 0, "duration": 78}, {"note": 73, "velocity": 104, "duration": 158}, {"note": 0, "velocity": 0, "duration": 82}, {"note": 71, "velocity": 106, "duration": 148}, {"note": 0, "velocity": 0, "duration": 92}, {"note": 69, "velocity": 106, "duration": 145}, {"note": 0, "velocity": 0, "duration": 95}, {"note": 68, "velocity": 117, "duration": 346}, {"note": 0, "velocity": 0, "duration": 614}, {"note": 69, "velocity": 104, "duration": 152}, {"note": 0, "velocity": 0, "duration": 88}, {"note": 68, "velocity": 117, "duration": 190}, {"note": 64, "velocity": 112, "duration": 160}, {"note": 0, "velocity": 0, "duration": 80}, {"note": 68, "velocity": 117, "duration": 167}, {"note": 0, "velocity": 0, "duration": 73}, {"note": 66, "velocity": 106, "duration": 519}, {"note": 0, "velocity": 0, "duration": 201}, {"note": 66, "velocity": 109, "duration": 151}, {"note": 0, "velocity": 0, "duration": 89}, {"note": 66, "velocity": 115, "duration": 167}, {"note": 0, "velocity": 0, "duration": 73}, {"note": 76, "velocity": 112, "duration": 149}, {"note": 0, "velocity": 0, "duration": 91}, {"note": 74, "velocity": 112, "duration": 146}, {"note": 0, "velocity": 0, "duration": 94}, {"note": 73, "velocity": 115, "duration": 148}, {"note": 0, "velocity": 0, "duration": 92}, {"note": 74, "velocity": 112, "duration": 483}, {"note": 0, "velocity": 0, "duration": 228}, {"note": 69, "velocity": 109, "duration": 140}, {"note": 0, "velocity": 0, "duration": 96}, {"note": 71, "velocity": 112, "duration": 269}, {"note": 0, "velocity": 0, "duration": 85}, {"note": 64, "velocity": 115, "duration": 77}, {"note": 0, "velocity": 0, "duration": 71}, {"note": 71, "velocity": 115, "duration": 150}, {"note": 0, "velocity": 0, "duration": 74}, {"note": 74, "velocity": 106, "duration": 189}, {"note": 74, "velocity": 109, "duration": 177}, {"note": 0, "velocity": 0, "duration": 63}, {"note": 73, "velocity": 106, "duration": 156}, {"note": 0, "velocity": 0, "duration": 84}, {"note": 73, "velocity": 109, "duration": 160}, {"note": 0, "velocity": 0, "duration": 80}, {"note": 71, "velocity": 112, "duration": 150}, {"note": 0, "velocity": 0, "duration": 90}, {"note": 73, "velocity": 112, "duration": 382}, {"note": 0, "velocity": 0, "duration": 98}, {"note": 69, "velocity": 115, "duration": 145}, {"note": 0, "velocity": 0, "duration": 95}, {"note": 73, "velocity": 109, "duration": 324}, {"note": 0, "velocity": 0, "duration": 156}, {"note": 71, "velocity": 109, "duration": 605}, {"note": 0, "velocity": 0, "duration": 115}, {"note": 71, "velocity": 115, "duration": 162}, {"note": 0, "velocity": 0, "duration": 78}, {"note": 73, "velocity": 106, "duration": 145}, {"note": 0, "velocity": 0, "duration": 95}, {"note": 73, "velocity": 106, "duration": 139}, {"note": 0, "velocity": 0, "duration": 101}, {"note": 68, "velocity": 110, "duration": 144}, {"note": 0, "velocity": 0, "duration": 96}, {"note": 69, "velocity": 109, "duration": 373}, {"note": 0, "velocity": 0, "duration": 107}, {"note": 66, "velocity": 109, "duration": 163}, {"note": 0, "velocity": 0, "duration": 77}, {"note": 68, "velocity": 120, "duration": 143}, {"note": 0, "velocity": 0, "duration": 97}, {"note": 69, "velocity": 109, "duration": 162}, {"note": 0, "velocity": 0, "duration": 78}, {"note": 73, "velocity": 104, "duration": 158}, {"note": 0, "velocity": 0, "duration": 82}, {"note": 71, "velocity": 106, "duration": 148}, {"note": 0, "velocity": 0, "duration": 92}, {"note": 69, "velocity": 106, "duration": 145}, {"note": 0, "velocity": 0, "duration": 95}, {"note": 68, "velocity": 117, "duration": 346}, {"note": 0, "velocity": 0, "duration": 614}, {"note": 69, "velocity": 104, "duration": 152}, {"note": 0, "velocity": 0, "duration": 88}, {"note": 68, "velocity": 117, "duration": 190}, {"note": 64, "velocity": 112, "duration": 160}, {"note": 0, "velocity": 0, "duration": 80}, {"note": 68, "velocity": 117, "duration": 167}, {"note": 0, "velocity": 0, "duration": 73}, {"note": 66, "velocity": 106, "duration": 519}, {"note": 0, "velocity": 0, "duration": 201}, {"note": 66, "velocity": 109, "duration": 151}, {"note": 0, "velocity": 0, "duration": 89}, {"note": 66, "velocity": 115, "duration": 167}, {"note": 0, "velocity": 0, "duration": 73}, {"note": 76, "velocity": 112, "duration": 149}, {"note": 0, "velocity": 0, "duration": 91}, {"note": 74, "velocity": 112, "duration": 146}, {"note": 0, "velocity": 0, "duration": 94}, {"note": 73, "velocity": 115, "duration": 148}, {"note": 0, "velocity": 0, "duration": 92}, {"note": 71, "velocity": 112, "duration": 958}, {"note": 0, "velocity": 0, "duration": 449}, {"note": 69, "velocity": 112, "duration": 188}, {"note": 0, "velocity": 0, "duration": 62}, {"note": 68, "velocity": 117, "duration": 295}, {"note": 69, "velocity": 106, "duration": 1459}, {"note": 0, "velocity": 0, "duration": 2022}, {"note": 69, "velocity": 112, "duration": 188}, {"note": 0, "velocity": 0, "duration": 78}, {"note": 68, "velocity": 117, "duration": 279}, {"note": 71, "velocity": 106, "duration": 420}, {"note": 0, "velocity": 0, "duration": 61}, {"note": 69, "velocity": 106, "duration": 1124}]]