[[{"note": 77, "velocity": 108, "duration": 185}, {"note": 75, "velocity": 92, "duration": 92}, {"note": 0, "velocity": 0, "duration": 148}, {"note": 75, "velocity": 94, "duration": 329}, {"note": 0, "velocity": 0, "duration": 151}, {"note": 73, "velocity": 97, "duration": 135}, {"note": 0, "velocity": 0, "duration": 105}, {"note": 75, "velocity": 102, "duration": 562}, {"note": 0, "velocity": 0, "duration": 158}, {"note": 70, "velocity": 94, "duration": 81}, {"note": 0, "velocity": 0, "duration": 159}, {"note": 70, "velocity": 94, "duration": 1240}, {"note": 0, "velocity": 0, "duration": 440}, {"note": 68, "velocity": 102, "duration": 148}, {"note": 0, "velocity": 0, "duration": 92}, {"note": 73, "velocity": 100, "duration": 144}, {"note": 0, "velocity": 0, "duration": 96}, {"note": 73, "velocity": 100, "duration": 383}, {"note": 0, "velocity": 0, "duration": 97}, {"note": 75, "velocity": 97, "duration": 121}, {"note": 0, "velocity": 0, "duration": 119}, {"note": 75, "velocity": 97, "duration": 1406}, {"note": 0, "velocity": 0, "duration": 1234}, {"note": 77, "velocity": 97, "duration": 167}, {"note": 0, "velocity": 0, "duration": 73}, {"note": 75, "velocity": 97, "duration": 134}, {"note": 0, "velocity": 0, "duration": 106}, {"note": 75, "velocity": 105, "duration": 410}, {"note": 0, "velocity": 0, "duration": 70}, {"note": 73, "velocity": 94, "duration": 135}, {"note": 0, "velocity": 0, "duration": 105}, {"note": 75, "velocity": 100, "duration": 442}, {"note": 70, "velocity": 80, "duration": 167}, {"note": 0, "velocity": 0, "duration": 73}, {"note": 70, "velocity": 97, "duration": 1450}, {"note": 0, "velocity": 0, "duration": 230}, {"note": 68, "velocity": 92, "duration": 113}, {"note": 0, "velocity": 0, "duration": 127}, {"note": 68, "velocity": 100, "duration": 140}, {"note": 0, "velocity": 0, "duration": 100}, {"note": 73, "velocity": 102, "duration": 397}, {"note": 0, "velocity": 0, "duration": 83}, {"note": 73, "velocity": 82, "duration": 171}, {"note": 0, "velocity": 0, "duration": 69}, {"note": 75, "velocity": 89, "duration": 154}, {"note": 0, "velocity": 0, "duration": 86}, {"note": 75, "velocity": 102, "duration": 2023}, {"note": 0, "velocity": 0, "duration": 137}, {"note": 70, "velocity": 108, "duration": 142}, {"note": 0, "velocity": 0, "duration": 98}, {"note": 73, "velocity": 102, "duration": 385}, {"note": 0, "velocity": 0, "duration": 95}, {"note": 73, "velocity": 100, "duration": 581}, {"note": 0, "velocity": 0, "duration": 139}, {"note": 68, "velocity": 97, "duration": 139}, {"note": 0, "velocity": 0, "duration": 101}, {"note": 68, "velocity": 89, "duration": 175}, {"note": 0, "velocity": 0, "duration": 65}, {"note": 75, "velocity": 102, "duration": 375}, {"note": 0, "velocity": 0, "duration": 97}, {"note": 77, "velocity": 92, "duration": 131}, {"note": 0, "velocity": 0, "duration": 133}, {"note": 73, "velocity": 84, "duration": 450}, {"note": 70, "velocity": 97, "duration": 533}, {"note": 0, "velocity": 0, "duration": 163}, {"note": 70, "velocity": 100, "duration": 165}, {"note": 0, "velocity": 0, "duration": 75}, {"note": 73, "velocity": 97, "duration": 392}, {"note": 0, "velocity": 0, "duration": 88}, {"note": 73, "velocity": 102, "duration": 596}, {"note": 0, "velocity": 0, "duration": 124}, {"note": 68, "velocity": 94, "duration": 154}, {"note": 0, "velocity": 0, "duration": 86}, {"note": 68, "velocity": 89, "duration": 127}, {"note": 0, "velocity": 0, "duration": 113}, {"note": 75, "velocity": 105, "duration": 394}, {"note": 0, "velocity": 0, "duration": 86}, {"note": 77, "velocity": 102, "duration": 131}, {"note": 0, "velocity": 0, "duration": 109}, {"note": 73, "velocity": 102, "duration": 1074}, {"note": 0, "velocity": 0, "duration": 126}, {"note": 70, "velocity": 97, "duration": 183}, {"note": 73, "velocity": 100, "duration": 375}, {"note": 0, "velocity": 0, "duration": 105}, {"note": 73, "velocity": 102, "duration": 734}, {"note": 0, "velocity": 0, "duration": 226}, {"note": 68, "velocity": 100, "duration": 185}, {"note": 75, "velocity": 73, "duration": 385}, {"note": 0, "velocity": 0, "duration": 95}, {"note": 73, "velocity": 84, "duration": 185}, {"note": 77, "velocity": 108, "duration": 554}, {"note": 0, "velocity": 0, "duration": 166}, {"note": 73, "velocity": 105, "duration": 160}, {"note": 0, "velocity": 0, "duration": 80}, {"note": 73, "velocity": 105, "duration": 2096}, {"note": 0, "velocity": 0, "duration": 784}, {"note": 73, "velocity": 105, "duration": 177}, {"note": 0, "velocity": 0, "duration": 63}, {"note": 77, "velocity": 111, "duration": 181}, {"note": 78, "velocity": 105, "duration": 131}, {"note": 0, "velocity": 0, "duration": 109}, {"note": 80, "velocity": 114, "duration": 160}, {"note": 0, "velocity": 0, "duration": 80}, {"note": 73, "velocity": 102, "duration": 147}, {"note": 0, "velocity": 0, "duration": 93}, {"note": 82, "velocity": 117, "duration": 329}, {"note": 0, "velocity": 0, "duration": 151}, {"note": 80, "velocity": 102, "duration": 121}, {"note": 0, "velocity": 0, "duration": 119}, {"note": 80, "velocity": 114, "duration": 567}, {"note": 0, "velocity": 0, "duration": 153}, {"note": 78, "velocity": 105, "duration": 150}, {"note": 0, "velocity": 0, "duration": 90}, {"note": 77, "velocity": 108, "duration": 404}, {"note": 0, "velocity": 0, "duration": 76}, {"note": 75, "velocity": 108, "duration": 342}, {"note": 0, "velocity": 0, "duration": 138}, {"note": 68, "velocity": 102, "duration": 135}, {"note": 0, "velocity": 0, "duration": 105}, {"note": 75, "velocity": 105, "duration": 146}, {"note": 0, "velocity": 0, "duration": 94}, {"note": 77, "velocity": 92, "duration": 179}, {"note": 0, "velocity": 0, "duration": 61}, {"note": 78, "velocity": 114, "duration": 113}, {"note": 0, "velocity": 0, "duration": 127}, {"note": 68, "velocity": 111, "duration": 152}, {"note": 0, "velocity": 0, "duration": 88}, {"note": 80, "velocity": 114, "duration": 323}, {"note": 0, "velocity": 0, "duration": 157}, {"note": 78, "velocity": 108, "duration": 154}, {"note": 0, "velocity": 0, "duration": 86}, {"note": 77, "velocity": 102, "duration": 501}, {"note": 75, "velocity": 105, "duration": 350}, {"note": 0, "velocity": 0, "duration": 130}, {"note": 75, "velocity": 102, "duration": 383}, {"note": 0, "velocity": 0, "duration": 97}, {"note": 73, "velocity": 102, "duration": 381}, {"note": 0, "velocity": 0, "duration": 99}, {"note": 68, "velocity": 105, "duration": 148}, {"note": 0, "velocity": 0, "duration": 92}, {"note": 73, "velocity": 105, "duration": 123}, {"note": 0, "velocity": 0, "duration": 117}, {"note": 75, "velocity": 94, "duration": 151}, {"note": 0, "velocity": 0, "duration": 89}, {"note": 77, "velocity": 102, "duration": 148}, {"note": 0, "velocity": 0, "duration": 92}, {"note": 73, "velocity": 97, "duration": 150}, {"note": 0, "velocity": 0, "duration": 90}, {"note": 78, "velocity": 108, "duration": 323}, {"note": 0, "velocity": 0, "duration": 157}, {"note": 77, "velocity": 89, "duration": 135}, {"note": 0, "velocity": 0, "duration": 105}, {"note": 75, "velocity": 102, "duration": 388}, {"note": 0, "velocity": 0, "duration": 92}, {"note": 73, "velocity": 108, "duration": 498}, {"note": 0, "velocity": 0, "duration": 222}, {"note": 73, "velocity": 117, "duration": 390}, {"note": 0, "velocity": 0, "duration": 90}, {"note": 72, "velocity": 100, "duration": 150}, {"note": 0, "velocity": 0, "duration": 90}, {"note": 73, "velocity": 105, "duration": 421}, {"note": 75, "velocity": 108, "duration": 558}, {"note": 0, "velocity": 0, "duration": 162}, {"note": 78, "velocity": 108, "duration": 367}, {"note": 0, "velocity": 0, "duration": 113}, {"note": 77, "velocity": 100, "duration": 131}, {"note": 0, "velocity": 0, "duration": 109}, {"note": 77, "velocity": 102, "duration": 358}, {"note": 0, "velocity": 0, "duration": 122}, {"note": 75, "velocity": 102, "duration": 304}, {"note": 0, "velocity": 0, "duration": 176}, {"note": 77, "velocity": 102, "duration": 744}, {"note": 0, "velocity": 0, "duration": 216}, {"note": 73, "velocity": 105, "duration": 177}, {"note": 0, "velocity": 0, "duration": 63}, {"note": 77, "velocity": 111, "duration": 181}, {"note": 78, "velocity": 105, "duration": 131}, {"note": 0, "velocity": 0, "duration": 109}, {"note": 80, "velocity": 114, "duration": 160}, {"note": 0, "velocity": 0, "duration": 80}, {"note": 73, "velocity": 102, "duration": 147}, {"note": 0, "velocity": 0, "duration": 93}, {"note": 82, "velocity": 117, "duration": 329}, {"note": 0, "velocity": 0, "duration": 151}, {"note": 80, "velocity": 102, "duration": 121}, {"note": 0, "velocity": 0, "duration": 119}, {"note": 80, "velocity": 114, "duration": 567}, {"note": 0, "velocity": 0, "duration": 153}, {"note": 78, "velocity": 105, "duration": 150}, {"note": 0, "velocity": 0, "duration": 90}, {"note": 77, "velocity": 108, "duration": 404}, {"note": 0, "velocity": 0, "duration": 76}, {"note": 75, "velocity": 108, "duration": 342}, {"note": 0, "velocity": 0, "duration": 138}, {"note": 68, "velocity": 102, "duration": 135}, {"note": 0, "velocity": 0, "duration": 105}, {"note": 75, "velocity": 105, "duration": 146}, {"note": 0, "velocity": 0, "duration": 94}, {"note": 77, "velocity": 92, "duration": 179}, {"note": 0, "velocity": 0, "duration": 61}, {"note": 78, "velocity": 114, "duration": 113}, {"note": 0, "velocity": 0, "duration": 127}, {"note": 68, "velocity": 111, "duration": 152}, {"note": 0, "velocity": 0, "duration": 88}, {"note": 80, "velocity": 114, "duration": 323}, {"note": 0, "velocity": 0, "duration": 157}, {"note": 78, "velocity": 108, "duration": 154}, {"note": 0, "velocity": 0, "duration": 86}, {"note": 77, "velocity": 102, "duration": 501}, {"note": 75, "velocity": 105, "duration": 350}, {"note": 0, "velocity": 0, "duration": 130}, {"note": 75, "velocity": 102, "duration": 383}, {"note": 0, "velocity": 0, "duration": 97}, {"note": 73, "velocity": 102, "duration": 1554}, {"note": 0, "velocity": 0, "duration": 126}, {"note": 70, "velocity": 108, "duration": 354}, {"note": 0, "velocity": 0, "duration": 126}, {"note": 73, "velocity": 100, "duration": 144}, {"note": 0, "velocity": 0, "duration": 96}, {"note": 73, "velocity": 105, "duration": 798}, {"note": 0, "velocity": 0, "duration": 162}, {"note": 68, "velocity": 102, "duration": 142}, {"note": 0, "velocity": 0, "duration": 98}, {"note": 75, "velocity": 108, "duration": 356}, {"note": 0, "velocity": 0, "duration": 124}, {"note": 73, "velocity": 102, "duration": 127}, {"note": 0, "velocity": 0, "duration": 113}, {"note": 77, "velocity": 111, "duration": 340}, {"note": 0, "velocity": 0, "duration": 140}, {"note": 73, "velocity": 102, "duration": 585}, {"note": 0, "velocity": 0, "duration": 135}, {"note": 73, "velocity": 94, "duration": 1658}, {"note": 0, "velocity": 0, "duration": 6502}, {"note": 77, "velocity": 108, "duration": 185}, {"note": 75, "velocity": 92, "duration": 92}, {"note": 0, "velocity": 0, "duration": 148}, {"note": 75, "velocity": 94, "duration": 329}, {"note": 0, "velocity": 0, "duration": 151}, {"note": 73, "velocity": 97, "duration": 135}, {"note": 0, "velocity": 0, "duration": 105}, {"note": 75, "velocity": 102, "duration": 562}, {"note": 0, "velocity": 0, "duration": 158}, {"note": 70, "velocity": 94, "duration": 81}, {"note": 0, "velocity": 0, "duration": 159}, {"note": 70, "velocity": 94, "duration": 1240}, {"note": 0, "velocity": 0, "duration": 440}, {"note": 68, "velocity": 102, "duration": 148}, {"note": 0, "velocity": 0, "duration": 92}, {"note": 73, "velocity": 100, "duration": 144}, {"note": 0, "velocity": 0, "duration": 96}, {"note": 73, "velocity": 100, "duration": 383}, {"note": 0, "velocity": 0, "duration": 97}, {"note": 75, "velocity": 97, "duration": 121}, {"note": 0, "velocity": 0, "duration": 119}, {"note": 75, "velocity": 97, "duration": 1406}, {"note": 0, "velocity": 0, "duration": 1234}, {"note": 77, "velocity": 97, "duration": 167}, {"note": 0, "velocity": 0, "duration": 73}, {"note": 75, "velocity": 97, "duration": 134}, {"note": 0, "velocity": 0, "duration": 106}, {"note": 75, "velocity": 105, "duration": 410}, {"note": 0, "velocity": 0, "duration": 70}, {"note": 73, "velocity": 94, "duration": 135}, {"note": 0, "velocity": 0, "duration": 105}, {"note": 75, "velocity": 100, "duration": 442}, {"note": 70, "velocity": 80, "duration": 167}, {"note": 0, "velocity": 0, "duration": 73}, {"note": 70, "velocity": 97, "duration": 1450}, {"note": 0, "velocity": 0, "duration": 230}, {"note": 68, "velocity": 92, "duration": 113}, {"note": 0, "velocity": 0, "duration": 127}, {"note": 68, "velocity": 100, "duration": 140}, {"note": 0, "velocity": 0, "duration": 100}, {"note": 73, "velocity": 102, "duration": 397}, {"note": 0, "velocity": 0, "duration": 83}, {"note": 73, "velocity": 82, "duration": 171}, {"note": 0, "velocity": 0, "duration": 69}, {"note": 75, "velocity": 89, "duration": 154}, {"note": 0, "velocity": 0, "duration": 86}, {"note": 75, "velocity": 102, "duration": 2023}, {"note": 0, "velocity": 0, "duration": 137}, {"note": 70, "velocity": 108, "duration": 142}, {"note": 0, "velocity": 0, "duration": 98}, {"note": 73, "velocity": 102, "duration": 385}, {"note": 0, "velocity": 0, "duration": 95}, {"note": 73, "velocity": 100, "duration": 581}, {"note": 0, "velocity": 0, "duration": 139}, {"note": 68, "velocity": 97, "duration": 139}, {"note": 0, "velocity": 0, "duration": 101}, {"note": 68, "velocity": 89, "duration": 175}, {"note": 0, "velocity": 0, "duration": 65}, {"note": 75, "velocity": 102, "duration": 375}, {"note": 0, "velocity": 0, "duration": 97}, {"note": 77, "velocity": 92, "duration": 131}, {"note": 0, "velocity": 0, "duration": 133}, {"note": 73, "velocity": 84, "duration": 450}, {"note": 70, "velocity": 97, "duration": 533}, {"note": 0, "velocity": 0, "duration": 163}, {"note": 70, "velocity": 100, "duration": 165}, {"note": 0, "velocity": 0, "duration": 75}, {"note": 73, "velocity": 97, "duration": 392}, {"note": 0, "velocity": 0, "duration": 88}, {"note": 73, "velocity": 102, "duration": 596}, {"note": 0, "velocity": 0, "duration": 124}, {"note": 68, "velocity": 94, "duration": 154}, {"note": 0, "velocity": 0, "duration": 86}, {"note": 68, "velocity": 89, "duration": 127}, {"note": 0, "velocity": 0, "duration": 113}, {"note": 75, "velocity": 105, "duration": 394}, {"note": 0, "velocity": 0, "duration": 86}, {"note": 77, "velocity": 102, "duration": 131}, {"note": 0, "velocity": 0, "duration": 109}, {"note": 73, "velocity": 102, "duration": 1074}, {"note": 0, "velocity": 0, "duration": 126}, {"note": 70, "velocity": 97, "duration": 183}, {"note": 73, "velocity": 100, "duration": 375}, {"note": 0, "velocity": 0, "duration": 105}, {"note": 73, "velocity": 102, "duration": 734}, {"note": 0, "velocity": 0, "duration": 226}, {"note": 68, "velocity": 100, "duration": 185}, {"note": 75, "velocity": 73, "duration": 385}, {"note": 0, "velocity": 0, "duration": 95}, {"note": 73, "velocity": 84, "duration": 185}, {"note": 77, "velocity": 108, "duration": 554}, {"note": 0, "velocity": 0, "duration": 166}, {"note": 73, "velocity": 105, "duration": 160}, {"note": 0, "velocity": 0, "duration": 80}, {"note": 73, "velocity": 105, "duration": 2096}, {"note": 0, "velocity": 0, "duration": 784}, {"note": 73, "velocity": 105, "duration": 177}, {"note": 0, "velocity": 0, "duration": 63}, {"note": 77, "velocity": 111, "duration": 181}, {"note": 78, "velocity": 105, "duration": 131}, {"note": 0, "velocity": 0, "duration": 109}, {"note": 80, "velocity": 114, "duration": 160}, {"note": 0, "velocity": 0, "duration": 80}, {"note": 73, "velocity": 102, "duration": 147}, {"note": 0, "velocity": 0, "duration": 93}, {"note": 82, "velocity": 117, "duration": 329}, {"note": 0, "velocity": 0, "duration": 151}, {"note": 80, "velocity": 102, "duration": 121}, {"note": 0, "velocity": 0, "duration": 119}, {"note": 80, "velocity": 114, "duration": 567}, {"note": 0, "velocity": 0, "duration": 153}, {"note": 78, "velocity": 105, "duration": 150}, {"note": 0, "velocity": 0, "duration": 90}, {"note": 77, "velocity": 108, "duration": 404}, {"note": 0, "velocity": 0, "duration": 76}, {"note": 75, "velocity": 108, "duration": 342}, {"note": 0, "velocity": 0, "duration": 138}, {"note": 68, "velocity": 102, "duration": 135}, {"note": 0, "velocity": 0, "duration": 105}, {"note": 75, "velocity": 105, "duration": 146}, {"note": 0, "velocity": 0, "duration": 94}, {"note": 77, "velocity": 92, "duration": 179}, {"note": 0, "velocity": 0, "duration": 61}, {"note": 78, "velocity": 114, "duration": 113}, {"note": 0, "velocity": 0, "duration": 127}, {"note": 68, "velocity": 111, "duration": 152}, {"note": 0, "velocity": 0, "duration": 88}, {"note": 80, "velocity": 114, "duration": 323}, {"note": 0, "velocity": 0, "duration": 157}, {"note": 78, "velocity": 108, "duration": 154}, {"note": 0, "velocity": 0, "duration": 86}, {"note": 77, "velocity": 102, "duration": 501}, {"note": 75, "velocity": 105, "duration": 350}, {"note": 0, "velocity": 0, "duration": 130}, {"note": 75, "velocity": 102, "duration": 383}, {"note": 0, "velocity": 0, "duration": 97}, {"note": 73, "velocity": 102, "duration": 381}, {"note": 0, "velocity": 0, "duration": 99}, {"note": 68, "velocity": 105, "duration": 148}, {"note": 0, "velocity": 0, "duration": 92}, {"note": 73, "velocity": 105, "duration": 123}, {"note": 0, "velocity": 0, "duration": 117}, {"note": 75, "velocity": 94, "duration": 151}, {"note": 0, "velocity": 0, "duration": 89}, {"note": 77, "velocity": 102, "duration": 148}, {"note": 0, "velocity": 0, "duration": 92}, {"note": 73, "velocity": 97, "duration": 150}, {"note": 0, "velocity": 0, "duration": 90}, {"note": 78, "velocity": 108, "duration": 323}, {"note": 0, "velocity": 0, "duration": 157}, {"note": 77, "velocity": 89, "duration": 135}, {"note": 0, "velocity": 0, "duration": 105}, {"note": 75, "velocity": 102, "duration": 388}, {"note": 0, "velocity": 0, "duration": 92}, {"note": 73, "velocity": 108, "duration": 498}, {"note": 0, "velocity": 0, "duration": 222}, {"note": 73, "velocity": 117, "duration": 390}, {"note": 0, "velocity": 0, "duration": 90}, {"note": 72, "velocity": 100, "duration": 150}, {"note": 0, "velocity": 0, "duration": 90}, {"note": 73, "velocity": 105, "duration": 421}, {"note": 75, "velocity": 108, "duration": 558}, {"note": 0, "velocity": 0, "duration": 162}, {"note": 78, "velocity": 108, "duration": 367}, {"note": 0, "velocity": 0, "duration": 113}, {"note": 77, "velocity": 100, "duration": 131}, {"note": 0, "velocity": 0, "duration": 109}, {"note": 77, "velocity": 102, "duration": 358}, {"note": 0, "velocity": 0, "duration": 122}, {"note": 75, "velocity": 102, "duration": 304}, {"note": 0, "velocity": 0, "duration": 176}, {"note": 77, "velocity": 102, "duration": 744}, {"note": 0, "velocity": 0, "duration": 216}, {"note": 73, "velocity": 105, "duration": 177}, {"note": 0, "velocity": 0, "duration": 63}, {"note": 77, "velocity": 111, "duration": 181}, {"note": 78, "velocity": 105, "duration": 131}, {"note": 0, "velocity": 0, "duration": 109}, {"note": 80, "velocity": 114, "duration": 160}, {"note": 0, "velocity": 0, "duration": 80}, {"note": 73, "velocity": 102, "duration": 147}, {"note": 0, "velocity": 0, "duration": 93}, {"note": 82, "velocity": 117, "duration": 329}, {"note": 0, "velocity": 0, "duration": 151}, {"note": 80, "velocity": 102, "duration": 121}, {"note": 0, "velocity": 0, "duration": 119}, {"note": 80, "velocity": 114, "duration": 567}, {"note": 0, "velocity": 0, "duration": 153}, {"note": 78, "velocity": 105, "duration": 150}, {"note": 0, "velocity": 0, "duration": 90}, {"note": 77, "velocity": 108, "duration": 404}, {"note": 0, "velocity": 0, "duration": 76}, {"note": 75, "velocity": 108, "duration": 342}, {"note": 0, "velocity": 0, "duration": 138}, {"note": 68, "velocity": 102, "duration": 135}, {"note": 0, "velocity": 0, "duration": 105}, {"note": 75, "velocity": 105, "duration": 146}, {"note": 0, "velocity": 0, "duration": 94}, {"note": 77, "velocity": 92, "duration": 179}, {"note": 0, "velocity": 0, "duration": 61}, {"note": 78, "velocity": 114, "duration": 113}, {"note": 0, "velocity": 0, "duration": 127}, {"note": 68, "velocity": 111, "duration": 152}, {"note": 0, "velocity": 0, "duration": 88}, {"note": 80, "velocity": 114, "duration": 323}, {"note": 0, "velocity": 0, "duration": 157}, {"note": 78, "velocity": 108, "duration": 154}, {"note": 0, "velocity": 0, "duration": 86}, {"note": 77, "velocity": 102, "duration": 501}, {"note": 75, "velocity": 105, "duration": 350}, {"note": 0, "velocity": 0, "duration": 130}, {"note": 75, "velocity": 102, "duration": 383}, {"note": 0, "velocity": 0, "duration": 97}, {"note": 73, "velocity": 102, "duration": 1554}, {"note": 0, "velocity": 0, "duration": 126}, {"note": 70, "velocity": 108, "duration": 354}, {"note": 0, "velocity": 0, "duration": 126}, {"note": 73, "velocity": 100, "duration": 144}, {"note": 0, "velocity": 0, "duration": 96}, {"note": 73, "velocity": 105, "duration": 798}, {"note": 0, "velocity": 0, "duration": 162}, {"note": 68, "velocity": 102, "duration": 142}, {"note": 0, "velocity": 0, "duration": 98}, {"note": 75, "velocity": 108, "duration": 356}, {"note": 0, "velocity": 0, "duration": 124}, {"note": 73, "velocity": 102, "duration": 127}, {"note": 0, "velocity": 0, "duration": 113}, {"note": 77, "velocity": 111, "duration": 340}, {"note": 0, "velocity": 0, "duration": 140}, {"note": 73, "velocity": 102, "duration": 585}, {"note": 0, "velocity": 0, "duration": 135}, {"note": 73, "velocity": 94, "duration": 1658}, {"note": 0, "velocity": 0, "duration": 13702}, {"note": 70, "velocity": 97, "duration": 183}, {"note": 73, "velocity": 100, "duration": 375}, {"note": 0, "velocity": 0, "duration": 105}, {"note": 73, "velocity": 102, "duration": 734}, {"note": 68, "velocity": 108, "duration": 171}, {"note": 0, "velocity": 0, "duration": 75}, {"note": 68, "velocity": 111, "duration": 184}, {"note": 75, "velocity": 111, "duration": 415}, {"note": 77, "velocity": 111, "duration": 179}, {"note": 0, "velocity": 0, "duration": 71}, {"note": 73, "velocity": 108, "duration": 498}, {"note": 68, "velocity": 108, "duration": 1198}, {"note": 0, "velocity": 0, "duration": 2157}, {"note": 73, "velocity": 105, "duration": 177}, {"note": 0, "velocity": 0, "duration": 63}, {"note": 77, "velocity": 111, "duration": 181}, {"note": 78, "velocity": 105, "duration": 131}, {"note": 0, "velocity": 0, "duration": 109}, {"note": 80, "velocity": 114, "duration": 160}, {"note": 0, "velocity": 0, "duration": 80}, {"note": 73, "velocity": 102, "duration": 147}, {"note": 0, "velocity": 0, "duration": 93}, {"note": 82, "velocity": 117, "duration": 329}, {"note": 0, "velocity": 0, "duration": 151}, {"note": 80, "velocity": 102, "duration": 121}, {"note": 0, "velocity": 0, "duration": 119}, {"note": 80, "velocity": 114, "duration": 567}, {"note": 0, "velocity": 0, "duration": 153}, {"note": 78, "velocity": 105, "duration": 150}, {"note": 0, "velocity": 0, "duration": 90}, {"note": 77, "velocity": 108, "duration": 404}, {"note": 0, "velocity": 0, "duration": 76}, {"note": 75, "velocity": 108, "duration": 342}, {"note": 0, "velocity": 0, "duration": 138}, {"note": 68, "velocity": 102, "duration": 135}, {"note": 0, "velocity": 0, "duration": 105}, {"note": 75, "velocity": 105, "duration": 146}, {"note": 0, "velocity": 0, "duration": 94}, {"note": 77, "velocity": 92, "duration": 179}, {"note": 0, "velocity": 0, "duration": 61}, {"note": 78, "velocity": 114, "duration": 113}, {"note": 0, "velocity": 0, "duration": 127}, {"note": 68, "velocity": 111, "duration": 152}, {"note": 0, "velocity": 0, "duration": 88}, {"note": 80, "velocity": 114, "duration": 323}, {"note": 0, "velocity": 0, "duration": 157}, {"note": 78, "velocity": 108, "duration": 154}, {"note": 0, "velocity": 0, "duration": 86}, {"note": 77, "velocity": 102, "duration": 501}, {"note": 75, "velocity": 105, "duration": 350}, {"note": 0, "velocity": 0, "duration": 130}, {"note": 75, "velocity": 102, "duration": 383}, {"note": 0, "velocity": 0, "duration": 97}, {"note": 73, "velocity": 102, "duration": 381}, {"note": 0, "velocity": 0, "duration": 99}, {"note": 68, "velocity": 105, "duration": 148}, {"note": 0, "velocity": 0, "duration": 92}, {"note": 73, "velocity": 105, "duration": 123}, {"note": 0, "velocity": 0, "duration": 117}, {"note": 75, "velocity": 94, "duration": 151}, {"note": 0, "velocity": 0, "duration": 89}, {"note": 77, "velocity": 102, "duration": 148}, {"note": 0, "velocity": 0, "duration": 92}, {"note": 73, "velocity": 97, "duration": 150}, {"note": 0, "velocity": 0, "duration": 90}, {"note": 78, "velocity": 108, "duration": 323}, {"note": 0, "velocity": 0, "duration": 157}, {"note": 77, "velocity": 89, "duration": 135}, {"note": 0, "velocity": 0, "duration": 105}, {"note": 75, "velocity": 102, "duration": 388}, {"note": 0, "velocity": 0, "duration": 92}, {"note": 73, "velocity": 108, "duration": 498}, {"note": 0, "velocity": 0, "duration": 222}, {"note": 73, "velocity": 117, "duration": 390}, {"note": 0, "velocity": 0, "duration": 90}, {"note": 72, "velocity": 100, "duration": 150}, {"note": 0, "velocity": 0, "duration": 90}, {"note": 73, "velocity": 105, "duration": 421}, {"note": 75, "velocity": 108, "duration": 558}, {"note": 0, "velocity": 0, "duration": 162}, {"note": 78, "velocity": 108, "duration": 367}, {"note": 0, "velocity": 0, "duration": 113}, {"note": 77, "velocity": 100, "duration": 131}, {"note": 0, "velocity": 0, "duration": 109}, {"note": 77, "velocity": 102, "duration": 358}, {"note": 0, "velocity": 0, "duration": 122}, {"note": 75, "velocity": 102, "duration": 304}, {"note": 0, "velocity": 0, "duration": 176}, {"note": 77, "velocity": 102, "duration": 744}, {"note": 0, "velocity": 0, "duration": 216}, {"note": 73, "velocity": 105, "duration": 177}, {"note": 0, "velocity": 0, "duration": 63}, {"note": 77, "velocity": 111, "duration": 181}, {"note": 78, "velocity": 105, "duration": 131}, {"note": 0, "velocity": 0, "duration": 109}, {"note": 80, "velocity": 114, "duration": 160}, {"note": 0, "velocity": 0, "duration": 80}, {"note": 73, "velocity": 102, "duration": 147}, {"note": 0, "velocity": 0, "duration": 93}, {"note": 82, "velocity": 117, "duration": 329}, {"note": 0, "velocity": 0, "duration": 151}, {"note": 80, "velocity": 102, "duration": 121}, {"note": 0, "velocity": 0, "duration": 119}, {"note": 80, "velocity": 114, "duration": 567}, {"note": 0, "velocity": 0, "duration": 153}, {"note": 78, "velocity": 105, "duration": 150}, {"note": 0, "velocity": 0, "duration": 90}, {"note": 77, "velocity": 108, "duration": 404}, {"note": 0, "velocity": 0, "duration": 76}, {"note": 75, "velocity": 108, "duration": 342}, {"note": 0, "velocity": 0, "duration": 138}, {"note": 68, "velocity": 102, "duration": 135}, {"note": 0, "velocity": 0, "duration": 105}, {"note": 75, "velocity": 105, "duration": 146}, {"note": 0, "velocity": 0, "duration": 94}, {"note": 77, "velocity": 92, "duration": 179}, {"note": 0, "velocity": 0, "duration": 61}, {"note": 78, "velocity": 114, "duration": 113}, {"note": 0, "velocity": 0, "duration": 127}, {"note": 68, "velocity": 111, "duration": 152}, {"note": 0, "velocity": 0, "duration": 88}, {"note": 80, "velocity": 114, "duration": 323}, {"note": 0, "velocity": 0, "duration": 157}, {"note": 78, "velocity": 108, "duration": 154}, {"note": 0, "velocity": 0, "duration": 86}, {"note": 77, "velocity": 102, "duration": 501}, {"note": 75, "velocity": 105, "duration": 350}, {"note": 0, "velocity": 0, "duration": 130}, {"note": 75, "velocity": 102, "duration": 383}, {"note": 0, "velocity": 0, "duration": 97}, {"note": 73, "velocity": 102, "duration": 1554}, {"note": 0, "velocity": 0, "duration": 126}, {"note": 70, "velocity": 108, "duration": 354}, {"note": 0, "velocity": 0, "duration": 126}, {"note": 73, "velocity": 100, "duration": 144}, {"note": 0, "velocity": 0, "duration": 96}, {"note": 73, "velocity": 105, "duration": 798}, {"note": 0, "velocity": 0, "duration": 162}, {"note": 68, "velocity": 102, "duration": 142}, {"note": 0, "velocity": 0, "duration": 98}, {"note": 75, "velocity": 108, "duration": 356}, {"note": 0, "velocity": 0, "duration": 124}, {"note": 73, "velocity": 102, "duration": 127}, {"note": 0, "velocity": 0, "duration": 113}, {"note": 77, "velocity": 111, "duration": 340}, {"note": 0, "velocity": 0, "duration": 140}, {"note": 73, "velocity": 102, "duration": 585}, {"note": 0, "velocity": 0, "duration": 135}, {"note": 73, "velocity": 94, "duration": 1658}]]