[[{"note": 67, "velocity": 109, "duration": 120}, {"note": 70, "velocity": 97, "duration": 239}, {"note": 70, "velocity": 97, "duration": 119}, {"note": 70, "velocity": 108, "duration": 119}, {"note": 70, "velocity": 102, "duration": 120}, {"note": 67, "velocity": 102, "duration": 240}, {"note": 70, "velocity": 108, "duration": 960}, {"note": 72, "velocity": 108, "duration": 120}, {"note": 75, "velocity": 108, "duration": 240}, {"note": 77, "velocity": 105, "duration": 240}, {"note": 75, "velocity": 111, "duration": 120}, {"note": 67, "velocity": 96, "duration": 240}, {"note": 70, "velocity": 100, "duration": 960}, {"note": 72, "velocity": 105, "duration": 120}, {"note": 75, "velocity": 100, "duration": 239}, {"note": 75, "velocity": 100, "duration": 119}, {"note": 75, "velocity": 102, "duration": 480}, {"note": 70, "velocity": 97, "duration": 119}, {"note": 70, "velocity": 108, "duration": 240}, {"note": 72, "velocity": 97, "duration": 120}, {"note": 67, "velocity": 105, "duration": 480}, {"note": 65, "velocity": 105, "duration": 119}, {"note": 65, "velocity": 111, "duration": 240}, {"note": 63, "velocity": 89, "duration": 120}, {"note": 65, "velocity": 105, "duration": 120}, {"note": 63, "velocity": 92, "duration": 120}, {"note": 67, "velocity": 102, "duration": 240}, {"note": 65, "velocity": 114, "duration": 960}, {"note": 67, "velocity": 109, "duration": 120}, {"note": 70, "velocity": 97, "duration": 239}, {"note": 70, "velocity": 97, "duration": 119}, {"note": 70, "velocity": 108, "duration": 119}, {"note": 70, "velocity": 102, "duration": 120}, {"note": 67, "velocity": 102, "duration": 240}, {"note": 70, "velocity": 108, "duration": 960}, {"note": 72, "velocity": 108, "duration": 120}, {"note": 75, "velocity": 108, "duration": 239}, {"note": 75, "velocity": 105, "duration": 120}, {"note": 77, "velocity": 114, "duration": 120}, {"note": 75, "velocity": 111, "duration": 120}, {"note": 67, "velocity": 96, "duration": 240}, {"note": 70, "velocity": 100, "duration": 960}, {"note": 72, "velocity": 105, "duration": 120}, {"note": 75, "velocity": 100, "duration": 239}, {"note": 75, "velocity": 100, "duration": 120}, {"note": 77, "velocity": 114, "duration": 120}, {"note": 75, "velocity": 102, "duration": 360}, {"note": 70, "velocity": 97, "duration": 119}, {"note": 70, "velocity": 108, "duration": 239}, {"note": 70, "velocity": 97, "duration": 120}, {"note": 72, "velocity": 114, "duration": 120}, {"note": 75, "velocity": 105, "duration": 360}, {"note": 72, "velocity": 114, "duration": 240}, {"note": 75, "velocity": 94, "duration": 119}, {"note": 75, "velocity": 97, "duration": 120}, {"note": 77, "velocity": 105, "duration": 120}, {"note": 75, "velocity": 111, "duration": 120}, {"note": 72, "velocity": 111, "duration": 240}, {"note": 77, "velocity": 111, "duration": 720}, {"note": 75, "velocity": 108, "duration": 120}, {"note": 77, "velocity": 100, "duration": 120}, {"note": 79, "velocity": 109, "duration": 119}, {"note": 79, "velocity": 96, "duration": 119}, {"note": 79, "velocity": 105, "duration": 119}, {"note": 79, "velocity": 105, "duration": 120}, {"note": 77, "velocity": 111, "duration": 120}, {"note": 79, "velocity": 112, "duration": 120}, {"note": 77, "velocity": 111, "duration": 240}, {"note": 75, "velocity": 111, "duration": 720}, {"note": 79, "velocity": 109, "duration": 120}, {"note": 82, "velocity": 111, "duration": 120}, {"note": 84, "velocity": 105, "duration": 239}, {"note": 84, "velocity": 111, "duration": 119}, {"note": 84, "velocity": 108, "duration": 120}, {"note": 82, "velocity": 114, "duration": 120}, {"note": 84, "velocity": 108, "duration": 120}, {"note": 82, "velocity": 120, "duration": 240}, {"note": 79, "velocity": 105, "duration": 720}, {"note": 75, "velocity": 108, "duration": 120}, {"note": 77, "velocity": 100, "duration": 120}, {"note": 79, "velocity": 109, "duration": 119}, {"note": 79, "velocity": 96, "duration": 119}, {"note": 79, "velocity": 105, "duration": 119}, {"note": 79, "velocity": 105, "duration": 120}, {"note": 77, "velocity": 111, "duration": 120}, {"note": 79, "velocity": 112, "duration": 120}, {"note": 77, "velocity": 111, "duration": 240}, {"note": 75, "velocity": 111, "duration": 498}, {"note": 77, "velocity": 105, "duration": 120}, {"note": 79, "velocity": 105, "duration": 120}, {"note": 77, "velocity": 114, "duration": 120}, {"note": 75, "velocity": 100, "duration": 120}, {"note": 72, "velocity": 108, "duration": 239}, {"note": 72, "velocity": 108, "duration": 119}, {"note": 72, "velocity": 108, "duration": 120}, {"note": 75, "velocity": 111, "duration": 119}, {"note": 75, "velocity": 100, "duration": 120}, {"note": 77, "velocity": 111, "duration": 240}, {"note": 75, "velocity": 114, "duration": 719}, {"note": 75, "velocity": 108, "duration": 120}, {"note": 77, "velocity": 100, "duration": 120}, {"note": 79, "velocity": 109, "duration": 119}, {"note": 79, "velocity": 96, "duration": 119}, {"note": 79, "velocity": 105, "duration": 119}, {"note": 79, "velocity": 105, "duration": 120}, {"note": 77, "velocity": 111, "duration": 120}, {"note": 79, "velocity": 112, "duration": 120}, {"note": 77, "velocity": 111, "duration": 240}, {"note": 75, "velocity": 111, "duration": 720}, {"note": 79, "velocity": 109, "duration": 120}, {"note": 82, "velocity": 111, "duration": 120}, {"note": 84, "velocity": 105, "duration": 239}, {"note": 84, "velocity": 111, "duration": 119}, {"note": 84, "velocity": 108, "duration": 120}, {"note": 82, "velocity": 114, "duration": 120}, {"note": 84, "velocity": 108, "duration": 120}, {"note": 82, "velocity": 120, "duration": 240}, {"note": 79, "velocity": 105, "duration": 720}, {"note": 75, "velocity": 108, "duration": 120}, {"note": 77, "velocity": 100, "duration": 120}, {"note": 79, "velocity": 109, "duration": 119}, {"note": 79, "velocity": 96, "duration": 119}, {"note": 79, "velocity": 105, "duration": 119}, {"note": 79, "velocity": 105, "duration": 120}, {"note": 77, "velocity": 111, "duration": 120}, {"note": 79, "velocity": 112, "duration": 120}, {"note": 77, "velocity": 111, "duration": 240}, {"note": 75, "velocity": 111, "duration": 498}, {"note": 77, "velocity": 105, "duration": 120}, {"note": 79, "velocity": 105, "duration": 120}, {"note": 77, "velocity": 114, "duration": 120}, {"note": 75, "velocity": 100, "duration": 120}, {"note": 72, "velocity": 108, "duration": 239}, {"note": 72, "velocity": 108, "duration": 119}, {"note": 72, "velocity": 108, "duration": 120}, {"note": 75, "velocity": 111, "duration": 119}, {"note": 75, "velocity": 100, "duration": 120}, {"note": 77, "velocity": 111, "duration": 240}, {"note": 75, "velocity": 114, "duration": 1157}, {"note": 0, "velocity": 0, "duration": 7483}, {"note": 67, "velocity": 109, "duration": 120}, {"note": 70, "velocity": 97, "duration": 239}, {"note": 70, "velocity": 97, "duration": 119}, {"note": 70, "velocity": 108, "duration": 119}, {"note": 70, "velocity": 102, "duration": 120}, {"note": 67, "velocity": 102, "duration": 240}, {"note": 70, "velocity": 108, "duration": 960}, {"note": 72, "velocity": 108, "duration": 120}, {"note": 75, "velocity": 108, "duration": 239}, {"note": 75, "velocity": 105, "duration": 120}, {"note": 77, "velocity": 114, "duration": 120}, {"note": 75, "velocity": 111, "duration": 120}, {"note": 67, "velocity": 96, "duration": 240}, {"note": 70, "velocity": 100, "duration": 960}, {"note": 72, "velocity": 105, "duration": 120}, {"note": 75, "velocity": 100, "duration": 239}, {"note": 75, "velocity": 100, "duration": 120}, {"note": 77, "velocity": 114, "duration": 120}, {"note": 75, "velocity": 102, "duration": 360}, {"note": 70, "velocity": 97, "duration": 119}, {"note": 70, "velocity": 108, "duration": 239}, {"note": 70, "velocity": 97, "duration": 120}, {"note": 72, "velocity": 114, "duration": 120}, {"note": 75, "velocity": 105, "duration": 360}, {"note": 72, "velocity": 114, "duration": 240}, {"note": 75, "velocity": 94, "duration": 119}, {"note": 75, "velocity": 97, "duration": 120}, {"note": 77, "velocity": 105, "duration": 120}, {"note": 75, "velocity": 111, "duration": 120}, {"note": 72, "velocity": 111, "duration": 240}, {"note": 77, "velocity": 111, "duration": 1680}, {"note": 75, "velocity": 108, "duration": 120}, {"note": 77, "velocity": 100, "duration": 120}, {"note": 79, "velocity": 109, "duration": 119}, {"note": 79, "velocity": 96, "duration": 119}, {"note": 79, "velocity": 105, "duration": 119}, {"note": 79, "velocity": 105, "duration": 120}, {"note": 77, "velocity": 111, "duration": 120}, {"note": 79, "velocity": 112, "duration": 120}, {"note": 77, "velocity": 111, "duration": 240}, {"note": 75, "velocity": 111, "duration": 720}, {"note": 79, "velocity": 109, "duration": 120}, {"note": 82, "velocity": 111, "duration": 120}, {"note": 84, "velocity": 105, "duration": 239}, {"note": 84, "velocity": 111, "duration": 119}, {"note": 84, "velocity": 108, "duration": 120}, {"note": 82, "velocity": 114, "duration": 120}, {"note": 84, "velocity": 108, "duration": 120}, {"note": 82, "velocity": 120, "duration": 240}, {"note": 79, "velocity": 105, "duration": 720}, {"note": 75, "velocity": 108, "duration": 120}, {"note": 77, "velocity": 100, "duration": 120}, {"note": 79, "velocity": 109, "duration": 119}, {"note": 79, "velocity": 96, "duration": 119}, {"note": 79, "velocity": 105, "duration": 119}, {"note": 79, "velocity": 105, "duration": 120}, {"note": 77, "velocity": 111, "duration": 120}, {"note": 79, "velocity": 112, "duration": 120}, {"note": 77, "velocity": 111, "duration": 240}, {"note": 75, "velocity": 111, "duration": 498}, {"note": 77, "velocity": 105, "duration": 120}, {"note": 79, "velocity": 105, "duration": 120}, {"note": 77, "velocity": 114, "duration": 120}, {"note": 75, "velocity": 100, "duration": 120}, {"note": 72, "velocity": 108, "duration": 239}, {"note": 72, "velocity": 108, "duration": 119}, {"note": 72, "velocity": 108, "duration": 120}, {"note": 75, "velocity": 111, "duration": 119}, {"note": 75, "velocity": 100, "duration": 120}, {"note": 77, "velocity": 111, "duration": 240}, {"note": 75, "velocity": 114, "duration": 719}, {"note": 75, "velocity": 108, "duration": 120}, {"note": 77, "velocity": 100, "duration": 120}, {"note": 79, "velocity": 109, "duration": 119}, {"note": 79, "velocity": 96, "duration": 119}, {"note": 79, "velocity": 105, "duration": 119}, {"note": 79, "velocity": 105, "duration": 120}, {"note": 77, "velocity": 111, "duration": 120}, {"note": 79, "velocity": 112, "duration": 120}, {"note": 77, "velocity": 111, "duration": 240}, {"note": 75, "velocity": 111, "duration": 720}, {"note": 79, "velocity": 109, "duration": 120}, {"note": 82, "velocity": 111, "duration": 120}, {"note": 84, "velocity": 105, "duration": 239}, {"note": 84, "velocity": 111, "duration": 119}, {"note": 84, "velocity": 108, "duration": 120}, {"note": 82, "velocity": 114, "duration": 120}, {"note": 84, "velocity": 108, "duration": 120}, {"note": 82, "velocity": 120, "duration": 240}, {"note": 79, "velocity": 105, "duration": 720}, {"note": 75, "velocity": 108, "duration": 120}, {"note": 77, "velocity": 100, "duration": 120}, {"note": 79, "velocity": 109, "duration": 119}, {"note": 79, "velocity": 96, "duration": 119}, {"note": 79, "velocity": 105, "duration": 119}, {"note": 79, "velocity": 105, "duration": 120}, {"note": 77, "velocity": 111, "duration": 120}, {"note": 79, "velocity": 112, "duration": 120}, {"note": 77, "velocity": 111, "duration": 240}, {"note": 75, "velocity": 111, "duration": 498}, {"note": 77, "velocity": 105, "duration": 120}, {"note": 79, "velocity": 105, "duration": 120}, {"note": 77, "velocity": 114, "duration": 120}, {"note": 75, "velocity": 100, "duration": 120}, {"note": 72, "velocity": 108, "duration": 239}, {"note": 72, "velocity": 108, "duration": 119}, {"note": 72, "velocity": 108, "duration": 120}, {"note": 75, "velocity": 111, "duration": 119}, {"note": 75, "velocity": 100, "duration": 120}, {"note": 77, "velocity": 111, "duration": 240}, {"note": 75, "velocity": 114, "duration": 837}, {"note": 0, "velocity": 0, "duration": 15243}, {"note": 75, "velocity": 108, "duration": 71}, {"note": 77, "velocity": 100, "duration": 68}, {"note": 79, "velocity": 109, "duration": 71}, {"note": 79, "velocity": 96, "duration": 56}, {"note": 0, "velocity": 0, "duration": 64}, {"note": 79, "velocity": 105, "duration": 61}, {"note": 79, "velocity": 105, "duration": 73}, {"note": 77, "velocity": 111, "duration": 65}, {"note": 79, "velocity": 112, "duration": 75}, {"note": 77, "velocity": 111, "duration": 173}, {"note": 0, "velocity": 0, "duration": 67}, {"note": 75, "velocity": 111, "duration": 498}, {"note": 0, "velocity": 0, "duration": 222}, {"note": 79, "velocity": 109, "duration": 67}, {"note": 82, "velocity": 111, "duration": 51}, {"note": 0, "velocity": 0, "duration": 69}, {"note": 84, "velocity": 105, "duration": 183}, {"note": 84, "velocity": 111, "duration": 62}, {"note": 84, "velocity": 108, "duration": 62}, {"note": 82, "velocity": 114, "duration": 46}, {"note": 0, "velocity": 0, "duration": 74}, {"note": 84, "velocity": 108, "duration": 59}, {"note": 0, "velocity": 0, "duration": 61}, {"note": 82, "velocity": 120, "duration": 173}, {"note": 0, "velocity": 0, "duration": 67}, {"note": 79, "velocity": 105, "duration": 566}, {"note": 0, "velocity": 0, "duration": 154}, {"note": 75, "velocity": 108, "duration": 71}, {"note": 77, "velocity": 100, "duration": 68}, {"note": 79, "velocity": 109, "duration": 71}, {"note": 79, "velocity": 96, "duration": 56}, {"note": 0, "velocity": 0, "duration": 64}, {"note": 79, "velocity": 105, "duration": 61}, {"note": 79, "velocity": 105, "duration": 73}, {"note": 77, "velocity": 111, "duration": 65}, {"note": 79, "velocity": 112, "duration": 75}, {"note": 77, "velocity": 111, "duration": 173}, {"note": 0, "velocity": 0, "duration": 67}, {"note": 75, "velocity": 111, "duration": 498}, {"note": 77, "velocity": 105, "duration": 86}, {"note": 79, "velocity": 105, "duration": 56}, {"note": 0, "velocity": 0, "duration": 64}, {"note": 77, "velocity": 114, "duration": 64}, {"note": 75, "velocity": 100, "duration": 59}, {"note": 0, "velocity": 0, "duration": 61}, {"note": 72, "velocity": 108, "duration": 169}, {"note": 0, "velocity": 0, "duration": 71}, {"note": 72, "velocity": 108, "duration": 58}, {"note": 0, "velocity": 0, "duration": 62}, {"note": 72, "velocity": 108, "duration": 62}, {"note": 75, "velocity": 111, "duration": 62}, {"note": 75, "velocity": 100, "duration": 61}, {"note": 77, "velocity": 111, "duration": 162}, {"note": 0, "velocity": 0, "duration": 78}, {"note": 75, "velocity": 114, "duration": 571}, {"note": 0, "velocity": 0, "duration": 149}, {"note": 75, "velocity": 108, "duration": 71}, {"note": 77, "velocity": 100, "duration": 68}, {"note": 79, "velocity": 109, "duration": 71}, {"note": 79, "velocity": 96, "duration": 56}, {"note": 0, "velocity": 0, "duration": 64}, {"note": 79, "velocity": 105, "duration": 61}, {"note": 79, "velocity": 105, "duration": 73}, {"note": 77, "velocity": 111, "duration": 65}, {"note": 79, "velocity": 112, "duration": 75}, {"note": 77, "velocity": 111, "duration": 173}, {"note": 0, "velocity": 0, "duration": 67}, {"note": 75, "velocity": 111, "duration": 498}, {"note": 0, "velocity": 0, "duration": 222}, {"note": 79, "velocity": 109, "duration": 67}, {"note": 82, "velocity": 111, "duration": 51}, {"note": 0, "velocity": 0, "duration": 69}, {"note": 84, "velocity": 105, "duration": 183}, {"note": 84, "velocity": 111, "duration": 62}, {"note": 84, "velocity": 108, "duration": 62}, {"note": 82, "velocity": 114, "duration": 46}, {"note": 0, "velocity": 0, "duration": 74}, {"note": 84, "velocity": 108, "duration": 59}, {"note": 0, "velocity": 0, "duration": 61}, {"note": 82, "velocity": 120, "duration": 173}, {"note": 0, "velocity": 0, "duration": 67}, {"note": 79, "velocity": 105, "duration": 566}, {"note": 0, "velocity": 0, "duration": 154}, {"note": 75, "velocity": 108, "duration": 71}, {"note": 77, "velocity": 100, "duration": 68}, {"note": 79, "velocity": 109, "duration": 71}, {"note": 79, "velocity": 96, "duration": 56}, {"note": 0, "velocity": 0, "duration": 64}, {"note": 79, "velocity": 105, "duration": 61}, {"note": 79, "velocity": 105, "duration": 73}, {"note": 77, "velocity": 111, "duration": 65}, {"note": 79, "velocity": 112, "duration": 75}, {"note": 77, "velocity": 111, "duration": 173}, {"note": 0, "velocity": 0, "duration": 67}, {"note": 75, "velocity": 111, "duration": 498}, {"note": 77, "velocity": 105, "duration": 86}, {"note": 79, "velocity": 105, "duration": 56}, {"note": 0, "velocity": 0, "duration": 64}, {"note": 77, "velocity": 114, "duration": 64}, {"note": 75, "velocity": 100, "duration": 59}, {"note": 0, "velocity": 0, "duration": 61}, {"note": 72, "velocity": 108, "duration": 169}, {"note": 0, "velocity": 0, "duration": 71}, {"note": 72, "velocity": 108, "duration": 58}, {"note": 0, "velocity": 0, "duration": 62}, {"note": 72, "velocity": 108, "duration": 62}, {"note": 75, "velocity": 111, "duration": 62}, {"note": 75, "velocity": 100, "duration": 61}, {"note": 77, "velocity": 111, "duration": 162}, {"note": 0, "velocity": 0, "duration": 78}, {"note": 75, "velocity": 114, "duration": 571}, {"note": 77, "velocity": 111, "duration": 71}, {"note": 79, "velocity": 105, "duration": 85}, {"note": 77, "velocity": 111, "duration": 65}, {"note": 75, "velocity": 111, "duration": 64}, {"note": 72, "velocity": 114, "duration": 181}, {"note": 72, "velocity": 108, "duration": 478}, {"note": 72, "velocity": 111, "duration": 195}, {"note": 75, "velocity": 105, "duration": 196}, {"note": 72, "velocity": 117, "duration": 190}, {"note": 75, "velocity": 105, "duration": 154}, {"note": 77, "velocity": 111, "duration": 1014}, {"note": 0, "velocity": 0, "duration": 219}, {"note": 75, "velocity": 97, "duration": 1324}]]