[[{"note": 69, "velocity": 115, "duration": 240}, {"note": 71, "velocity": 112, "duration": 240}, {"note": 73, "velocity": 117, "duration": 479}, {"note": 73, "velocity": 120, "duration": 239}, {"note": 73, "velocity": 120, "duration": 480}, {"note": 73, "velocity": 120, "duration": 240}, {"note": 71, "velocity": 112, "duration": 240}, {"note": 69, "velocity": 115, "duration": 240}, {"note": 71, "velocity": 112, "duration": 240}, {"note": 68, "velocity": 120, "duration": 480}, {"note": 64, "velocity": 106, "duration": 479}, {"note": 64, "velocity": 109, "duration": 239}, {"note": 64, "velocity": 106, "duration": 240}, {"note": 66, "velocity": 117, "duration": 240}, {"note": 69, "velocity": 109, "duration": 240}, {"note": 66, "velocity": 117, "duration": 240}, {"note": 69, "velocity": 112, "duration": 240}, {"note": 66, "velocity": 120, "duration": 240}, {"note": 69, "velocity": 112, "duration": 240}, {"note": 66, "velocity": 120, "duration": 240}, {"note": 71, "velocity": 115, "duration": 240}, {"note": 73, "velocity": 117, "duration": 1680}, {"note": 64, "velocity": 97, "duration": 239}, {"note": 64, "velocity": 105, "duration": 240}, {"note": 66, "velocity": 105, "duration": 240}, {"note": 69, "velocity": 111, "duration": 479}, {"note": 69, "velocity": 114, "duration": 479}, {"note": 69, "velocity": 114, "duration": 240}, {"note": 66, "velocity": 87, "duration": 240}, {"note": 64, "velocity": 92, "duration": 239}, {"note": 64, "velocity": 102, "duration": 240}, {"note": 73, "velocity": 109, "duration": 479}, {"note": 73, "velocity": 99, "duration": 720}, {"note": 69, "velocity": 111, "duration": 239}, {"note": 69, "velocity": 97, "duration": 240}, {"note": 73, "velocity": 102, "duration": 240}, {"note": 71, "velocity": 111, "duration": 480}, {"note": 69, "velocity": 111, "duration": 239}, {"note": 69, "velocity": 97, "duration": 240}, {"note": 66, "velocity": 109, "duration": 240}, {"note": 69, "velocity": 108, "duration": 240}, {"note": 71, "velocity": 105, "duration": 1680}, {"note": 69, "velocity": 115, "duration": 240}, {"note": 71, "velocity": 112, "duration": 240}, {"note": 73, "velocity": 117, "duration": 479}, {"note": 73, "velocity": 120, "duration": 239}, {"note": 73, "velocity": 120, "duration": 239}, {"note": 73, "velocity": 120, "duration": 480}, {"note": 69, "velocity": 112, "duration": 480}, {"note": 71, "velocity": 112, "duration": 240}, {"note": 68, "velocity": 120, "duration": 480}, {"note": 64, "velocity": 106, "duration": 719}, {"note": 64, "velocity": 106, "duration": 240}, {"note": 66, "velocity": 117, "duration": 240}, {"note": 69, "velocity": 109, "duration": 240}, {"note": 66, "velocity": 117, "duration": 240}, {"note": 69, "velocity": 112, "duration": 240}, {"note": 66, "velocity": 120, "duration": 240}, {"note": 69, "velocity": 112, "duration": 240}, {"note": 66, "velocity": 120, "duration": 240}, {"note": 71, "velocity": 115, "duration": 240}, {"note": 73, "velocity": 117, "duration": 1680}, {"note": 64, "velocity": 97, "duration": 239}, {"note": 64, "velocity": 105, "duration": 240}, {"note": 66, "velocity": 105, "duration": 240}, {"note": 69, "velocity": 111, "duration": 479}, {"note": 69, "velocity": 114, "duration": 720}, {"note": 66, "velocity": 87, "duration": 240}, {"note": 64, "velocity": 92, "duration": 239}, {"note": 64, "velocity": 102, "duration": 240}, {"note": 73, "velocity": 109, "duration": 479}, {"note": 73, "velocity": 99, "duration": 720}, {"note": 69, "velocity": 111, "duration": 239}, {"note": 69, "velocity": 97, "duration": 240}, {"note": 73, "velocity": 102, "duration": 240}, {"note": 71, "velocity": 111, "duration": 480}, {"note": 69, "velocity": 111, "duration": 239}, {"note": 69, "velocity": 97, "duration": 240}, {"note": 66, "velocity": 109, "duration": 240}, {"note": 69, "velocity": 108, "duration": 240}, {"note": 76, "velocity": 105, "duration": 3600}, {"note": 69, "velocity": 120, "duration": 240}, {"note": 71, "velocity": 108, "duration": 240}, {"note": 73, "velocity": 102, "duration": 959}, {"note": 73, "velocity": 112, "duration": 480}, {"note": 76, "velocity": 105, "duration": 480}, {"note": 78, "velocity": 112, "duration": 240}, {"note": 76, "velocity": 114, "duration": 480}, {"note": 71, "velocity": 114, "duration": 480}, {"note": 73, "velocity": 102, "duration": 239}, {"note": 73, "velocity": 102, "duration": 240}, {"note": 71, "velocity": 111, "duration": 240}, {"note": 69, "velocity": 108, "duration": 240}, {"note": 66, "velocity": 105, "duration": 240}, {"note": 69, "velocity": 105, "duration": 240}, {"note": 66, "velocity": 109, "duration": 240}, {"note": 69, "velocity": 108, "duration": 240}, {"note": 66, "velocity": 112, "duration": 240}, {"note": 71, "velocity": 111, "duration": 240}, {"note": 73, "velocity": 109, "duration": 1680}, {"note": 64, "velocity": 120, "duration": 239}, {"note": 64, "velocity": 97, "duration": 240}, {"note": 66, "velocity": 105, "duration": 480}, {"note": 69, "velocity": 114, "duration": 479}, {"note": 69, "velocity": 111, "duration": 480}, {"note": 66, "velocity": 105, "duration": 480}, {"note": 64, "velocity": 94, "duration": 480}, {"note": 73, "velocity": 109, "duration": 239}, {"note": 73, "velocity": 109, "duration": 720}, {"note": 69, "velocity": 117, "duration": 239}, {"note": 69, "velocity": 108, "duration": 240}, {"note": 73, "velocity": 105, "duration": 240}, {"note": 71, "velocity": 111, "duration": 239}, {"note": 71, "velocity": 117, "duration": 240}, {"note": 69, "velocity": 117, "duration": 239}, {"note": 69, "velocity": 111, "duration": 240}, {"note": 66, "velocity": 109, "duration": 240}, {"note": 69, "velocity": 111, "duration": 240}, {"note": 71, "velocity": 105, "duration": 1680}, {"note": 69, "velocity": 120, "duration": 240}, {"note": 71, "velocity": 108, "duration": 240}, {"note": 73, "velocity": 102, "duration": 959}, {"note": 73, "velocity": 112, "duration": 480}, {"note": 76, "velocity": 105, "duration": 480}, {"note": 78, "velocity": 112, "duration": 240}, {"note": 76, "velocity": 114, "duration": 480}, {"note": 71, "velocity": 114, "duration": 480}, {"note": 73, "velocity": 102, "duration": 239}, {"note": 73, "velocity": 102, "duration": 240}, {"note": 71, "velocity": 111, "duration": 240}, {"note": 69, "velocity": 108, "duration": 240}, {"note": 66, "velocity": 105, "duration": 240}, {"note": 69, "velocity": 105, "duration": 240}, {"note": 66, "velocity": 109, "duration": 240}, {"note": 69, "velocity": 108, "duration": 240}, {"note": 66, "velocity": 112, "duration": 240}, {"note": 71, "velocity": 111, "duration": 240}, {"note": 73, "velocity": 109, "duration": 1680}, {"note": 64, "velocity": 120, "duration": 239}, {"note": 64, "velocity": 97, "duration": 240}, {"note": 66, "velocity": 105, "duration": 480}, {"note": 69, "velocity": 114, "duration": 479}, {"note": 69, "velocity": 111, "duration": 480}, {"note": 66, "velocity": 105, "duration": 480}, {"note": 64, "velocity": 94, "duration": 480}, {"note": 73, "velocity": 109, "duration": 239}, {"note": 73, "velocity": 109, "duration": 720}, {"note": 69, "velocity": 117, "duration": 239}, {"note": 69, "velocity": 108, "duration": 240}, {"note": 73, "velocity": 105, "duration": 240}, {"note": 71, "velocity": 111, "duration": 239}, {"note": 71, "velocity": 117, "duration": 240}, {"note": 69, "velocity": 117, "duration": 239}, {"note": 69, "velocity": 111, "duration": 240}, {"note": 66, "velocity": 109, "duration": 239}, {"note": 66, "velocity": 111, "duration": 240}, {"note": 69, "velocity": 105, "duration": 1098}, {"note": 0, "velocity": 0, "duration": 15942}, {"note": 69, "velocity": 115, "duration": 240}, {"note": 71, "velocity": 112, "duration": 240}, {"note": 73, "velocity": 117, "duration": 479}, {"note": 73, "velocity": 120, "duration": 239}, {"note": 73, "velocity": 120, "duration": 480}, {"note": 73, "velocity": 120, "duration": 240}, {"note": 71, "velocity": 112, "duration": 240}, {"note": 69, "velocity": 115, "duration": 240}, {"note": 71, "velocity": 112, "duration": 240}, {"note": 68, "velocity": 120, "duration": 480}, {"note": 64, "velocity": 106, "duration": 479}, {"note": 64, "velocity": 109, "duration": 239}, {"note": 64, "velocity": 106, "duration": 240}, {"note": 66, "velocity": 117, "duration": 240}, {"note": 69, "velocity": 109, "duration": 240}, {"note": 66, "velocity": 117, "duration": 240}, {"note": 69, "velocity": 112, "duration": 240}, {"note": 66, "velocity": 120, "duration": 240}, {"note": 69, "velocity": 112, "duration": 240}, {"note": 66, "velocity": 120, "duration": 240}, {"note": 71, "velocity": 115, "duration": 240}, {"note": 73, "velocity": 117, "duration": 1680}, {"note": 64, "velocity": 97, "duration": 239}, {"note": 64, "velocity": 105, "duration": 240}, {"note": 66, "velocity": 105, "duration": 240}, {"note": 69, "velocity": 111, "duration": 479}, {"note": 69, "velocity": 114, "duration": 479}, {"note": 69, "velocity": 114, "duration": 240}, {"note": 66, "velocity": 87, "duration": 240}, {"note": 64, "velocity": 92, "duration": 239}, {"note": 64, "velocity": 102, "duration": 240}, {"note": 73, "velocity": 109, "duration": 479}, {"note": 73, "velocity": 99, "duration": 720}, {"note": 69, "velocity": 111, "duration": 239}, {"note": 69, "velocity": 97, "duration": 240}, {"note": 73, "velocity": 102, "duration": 240}, {"note": 71, "velocity": 111, "duration": 480}, {"note": 69, "velocity": 111, "duration": 239}, {"note": 69, "velocity": 97, "duration": 240}, {"note": 66, "velocity": 109, "duration": 240}, {"note": 69, "velocity": 108, "duration": 240}, {"note": 71, "velocity": 105, "duration": 1680}, {"note": 69, "velocity": 115, "duration": 240}, {"note": 71, "velocity": 112, "duration": 240}, {"note": 73, "velocity": 117, "duration": 479}, {"note": 73, "velocity": 120, "duration": 239}, {"note": 73, "velocity": 120, "duration": 239}, {"note": 73, "velocity": 120, "duration": 480}, {"note": 69, "velocity": 112, "duration": 480}, {"note": 71, "velocity": 112, "duration": 240}, {"note": 68, "velocity": 120, "duration": 480}, {"note": 64, "velocity": 106, "duration": 719}, {"note": 64, "velocity": 106, "duration": 240}, {"note": 66, "velocity": 117, "duration": 240}, {"note": 69, "velocity": 109, "duration": 240}, {"note": 66, "velocity": 117, "duration": 240}, {"note": 69, "velocity": 112, "duration": 240}, {"note": 66, "velocity": 120, "duration": 240}, {"note": 69, "velocity": 112, "duration": 240}, {"note": 66, "velocity": 120, "duration": 240}, {"note": 71, "velocity": 115, "duration": 240}, {"note": 73, "velocity": 117, "duration": 1680}, {"note": 64, "velocity": 97, "duration": 239}, {"note": 64, "velocity": 105, "duration": 240}, {"note": 66, "velocity": 105, "duration": 240}, {"note": 69, "velocity": 111, "duration": 479}, {"note": 69, "velocity": 114, "duration": 720}, {"note": 66, "velocity": 87, "duration": 240}, {"note": 64, "velocity": 92, "duration": 239}, {"note": 64, "velocity": 102, "duration": 240}, {"note": 73, "velocity": 109, "duration": 479}, {"note": 73, "velocity": 99, "duration": 720}, {"note": 69, "velocity": 111, "duration": 239}, {"note": 69, "velocity": 97, "duration": 240}, {"note": 73, "velocity": 102, "duration": 240}, {"note": 71, "velocity": 111, "duration": 480}, {"note": 69, "velocity": 111, "duration": 239}, {"note": 69, "velocity": 97, "duration": 240}, {"note": 66, "velocity": 109, "duration": 240}, {"note": 69, "velocity": 108, "duration": 240}, {"note": 76, "velocity": 105, "duration": 3600}, {"note": 69, "velocity": 120, "duration": 240}, {"note": 71, "velocity": 108, "duration": 240}, {"note": 73, "velocity": 102, "duration": 959}, {"note": 73, "velocity": 112, "duration": 480}, {"note": 76, "velocity": 105, "duration": 480}, {"note": 78, "velocity": 112, "duration": 240}, {"note": 76, "velocity": 114, "duration": 480}, {"note": 71, "velocity": 114, "duration": 480}, {"note": 73, "velocity": 102, "duration": 239}, {"note": 73, "velocity": 102, "duration": 240}, {"note": 71, "velocity": 111, "duration": 240}, {"note": 69, "velocity": 108, "duration": 240}, {"note": 66, "velocity": 105, "duration": 240}, {"note": 69, "velocity": 105, "duration": 240}, {"note": 66, "velocity": 109, "duration": 240}, {"note": 69, "velocity": 108, "duration": 240}, {"note": 66, "velocity": 112, "duration": 240}, {"note": 71, "velocity": 111, "duration": 240}, {"note": 73, "velocity": 109, "duration": 1680}, {"note": 64, "velocity": 120, "duration": 239}, {"note": 64, "velocity": 97, "duration": 240}, {"note": 66, "velocity": 105, "duration": 480}, {"note": 69, "velocity": 114, "duration": 479}, {"note": 69, "velocity": 111, "duration": 480}, {"note": 66, "velocity": 105, "duration": 480}, {"note": 64, "velocity": 94, "duration": 480}, {"note": 73, "velocity": 109, "duration": 239}, {"note": 73, "velocity": 109, "duration": 720}, {"note": 69, "velocity": 117, "duration": 239}, {"note": 69, "velocity": 108, "duration": 240}, {"note": 73, "velocity": 105, "duration": 240}, {"note": 71, "velocity": 111, "duration": 239}, {"note": 71, "velocity": 117, "duration": 240}, {"note": 69, "velocity": 117, "duration": 239}, {"note": 69, "velocity": 111, "duration": 240}, {"note": 66, "velocity": 109, "duration": 240}, {"note": 69, "velocity": 111, "duration": 240}, {"note": 71, "velocity": 105, "duration": 1680}, {"note": 69, "velocity": 120, "duration": 240}, {"note": 71, "velocity": 108, "duration": 240}, {"note": 73, "velocity": 102, "duration": 959}, {"note": 73, "velocity": 112, "duration": 480}, {"note": 76, "velocity": 105, "duration": 480}, {"note": 78, "velocity": 112, "duration": 240}, {"note": 76, "velocity": 114, "duration": 480}, {"note": 71, "velocity": 114, "duration": 480}, {"note": 73, "velocity": 102, "duration": 239}, {"note": 73, "velocity": 102, "duration": 240}, {"note": 71, "velocity": 111, "duration": 240}, {"note": 69, "velocity": 108, "duration": 240}, {"note": 66, "velocity": 105, "duration": 240}, {"note": 69, "velocity": 105, "duration": 240}, {"note": 66, "velocity": 109, "duration": 240}, {"note": 69, "velocity": 108, "duration": 240}, {"note": 66, "velocity": 112, "duration": 240}, {"note": 71, "velocity": 111, "duration": 240}, {"note": 73, "velocity": 109, "duration": 1680}, {"note": 64, "velocity": 120, "duration": 239}, {"note": 64, "velocity": 97, "duration": 240}, {"note": 66, "velocity": 105, "duration": 480}, {"note": 69, "velocity": 114, "duration": 479}, {"note": 69, "velocity": 111, "duration": 480}, {"note": 66, "velocity": 105, "duration": 480}, {"note": 64, "velocity": 94, "duration": 480}, {"note": 73, "velocity": 109, "duration": 239}, {"note": 73, "velocity": 109, "duration": 720}, {"note": 69, "velocity": 117, "duration": 239}, {"note": 69, "velocity": 108, "duration": 240}, {"note": 73, "velocity": 105, "duration": 240}, {"note": 71, "velocity": 111, "duration": 239}, {"note": 71, "velocity": 117, "duration": 240}, {"note": 69, "velocity": 117, "duration": 239}, {"note": 69, "velocity": 111, "duration": 240}, {"note": 66, "velocity": 109, "duration": 239}, {"note": 66, "velocity": 111, "duration": 240}, {"note": 69, "velocity": 105, "duration": 3600}, {"note": 71, "velocity": 120, "duration": 240}, {"note": 73, "velocity": 108, "duration": 240}, {"note": 75, "velocity": 102, "duration": 959}, {"note": 75, "velocity": 112, "duration": 480}, {"note": 78, "velocity": 105, "duration": 480}, {"note": 80, "velocity": 112, "duration": 240}, {"note": 78, "velocity": 114, "duration": 480}, {"note": 73, "velocity": 114, "duration": 480}, {"note": 75, "velocity": 102, "duration": 239}, {"note": 75, "velocity": 102, "duration": 240}, {"note": 73, "velocity": 111, "duration": 240}, {"note": 71, "velocity": 108, "duration": 240}, {"note": 68, "velocity": 105, "duration": 240}, {"note": 71, "velocity": 105, "duration": 240}, {"note": 68, "velocity": 109, "duration": 240}, {"note": 71, "velocity": 108, "duration": 240}, {"note": 68, "velocity": 112, "duration": 240}, {"note": 73, "velocity": 111, "duration": 240}, {"note": 75, "velocity": 109, "duration": 1680}, {"note": 66, "velocity": 120, "duration": 239}, {"note": 66, "velocity": 97, "duration": 240}, {"note": 68, "velocity": 105, "duration": 480}, {"note": 71, "velocity": 114, "duration": 479}, {"note": 71, "velocity": 111, "duration": 480}, {"note": 68, "velocity": 105, "duration": 480}, {"note": 66, "velocity": 94, "duration": 480}, {"note": 75, "velocity": 109, "duration": 239}, {"note": 75, "velocity": 109, "duration": 720}, {"note": 71, "velocity": 117, "duration": 239}, {"note": 71, "velocity": 108, "duration": 240}, {"note": 75, "velocity": 105, "duration": 240}, {"note": 73, "velocity": 111, "duration": 239}, {"note": 73, "velocity": 117, "duration": 240}, {"note": 71, "velocity": 117, "duration": 239}, {"note": 71, "velocity": 111, "duration": 240}, {"note": 68, "velocity": 109, "duration": 240}, {"note": 71, "velocity": 111, "duration": 240}, {"note": 73, "velocity": 105, "duration": 1680}, {"note": 71, "velocity": 120, "duration": 240}, {"note": 73, "velocity": 108, "duration": 240}, {"note": 75, "velocity": 102, "duration": 959}, {"note": 75, "velocity": 112, "duration": 480}, {"note": 78, "velocity": 105, "duration": 480}, {"note": 80, "velocity": 112, "duration": 240}, {"note": 78, "velocity": 114, "duration": 480}, {"note": 73, "velocity": 114, "duration": 480}, {"note": 75, "velocity": 102, "duration": 239}, {"note": 75, "velocity": 102, "duration": 240}, {"note": 73, "velocity": 111, "duration": 240}, {"note": 71, "velocity": 108, "duration": 240}, {"note": 68, "velocity": 105, "duration": 240}, {"note": 71, "velocity": 105, "duration": 240}, {"note": 68, "velocity": 109, "duration": 240}, {"note": 71, "velocity": 108, "duration": 240}, {"note": 68, "velocity": 112, "duration": 240}, {"note": 73, "velocity": 111, "duration": 240}, {"note": 75, "velocity": 109, "duration": 1680}, {"note": 66, "velocity": 120, "duration": 239}, {"note": 66, "velocity": 97, "duration": 240}, {"note": 68, "velocity": 105, "duration": 480}, {"note": 71, "velocity": 114, "duration": 479}, {"note": 71, "velocity": 111, "duration": 480}, {"note": 68, "velocity": 105, "duration": 480}, {"note": 66, "velocity": 94, "duration": 480}, {"note": 75, "velocity": 109, "duration": 239}, {"note": 75, "velocity": 109, "duration": 720}, {"note": 71, "velocity": 117, "duration": 239}, {"note": 71, "velocity": 108, "duration": 240}, {"note": 75, "velocity": 105, "duration": 240}, {"note": 73, "velocity": 111, "duration": 239}, {"note": 73, "velocity": 117, "duration": 240}, {"note": 71, "velocity": 117, "duration": 239}, {"note": 71, "velocity": 111, "duration": 240}, {"note": 68, "velocity": 109, "duration": 239}, {"note": 68, "velocity": 111, "duration": 240}, {"note": 71, "velocity": 105, "duration": 1680}, {"note": 68, "velocity": 112, "duration": 240}, {"note": 71, "velocity": 100, "duration": 240}, {"note": 75, "velocity": 116, "duration": 240}, {"note": 73, "velocity": 112, "duration": 239}, {"note": 73, "velocity": 112, "duration": 240}, {"note": 71, "velocity": 111, "duration": 239}, {"note": 71, "velocity": 111, "duration": 240}, {"note": 68, "velocity": 102, "duration": 719}, {"note": 68, "velocity": 112, "duration": 1975}, {"note": 68, "velocity": 112, "duration": 244}, {"note": 71, "velocity": 111, "duration": 3438}]]