[[{"note": 64, "velocity": 114, "duration": 240}, {"note": 71, "velocity": 120, "duration": 240}, {"note": 69, "velocity": 114, "duration": 240}, {"note": 67, "velocity": 114, "duration": 120}, {"note": 64, "velocity": 108, "duration": 839}, {"note": 64, "velocity": 105, "duration": 120}, {"note": 66, "velocity": 102, "duration": 120}, {"note": 67, "velocity": 102, "duration": 240}, {"note": 66, "velocity": 112, "duration": 240}, {"note": 64, "velocity": 111, "duration": 120}, {"note": 62, "velocity": 111, "duration": 240}, {"note": 64, "velocity": 111, "duration": 1079}, {"note": 64, "velocity": 114, "duration": 240}, {"note": 76, "velocity": 114, "duration": 239}, {"note": 76, "velocity": 108, "duration": 240}, {"note": 74, "velocity": 97, "duration": 119}, {"note": 74, "velocity": 102, "duration": 119}, {"note": 74, "velocity": 117, "duration": 240}, {"note": 69, "velocity": 117, "duration": 239}, {"note": 69, "velocity": 108, "duration": 120}, {"note": 74, "velocity": 108, "duration": 360}, {"note": 71, "velocity": 108, "duration": 1679}, {"note": 71, "velocity": 102, "duration": 120}, {"note": 74, "velocity": 105, "duration": 120}, {"note": 76, "velocity": 111, "duration": 480}, {"note": 74, "velocity": 111, "duration": 240}, {"note": 71, "velocity": 105, "duration": 120}, {"note": 69, "velocity": 108, "duration": 840}, {"note": 67, "velocity": 105, "duration": 120}, {"note": 69, "velocity": 108, "duration": 120}, {"note": 71, "velocity": 108, "duration": 480}, {"note": 69, "velocity": 114, "duration": 240}, {"note": 71, "velocity": 117, "duration": 120}, {"note": 64, "velocity": 111, "duration": 839}, {"note": 64, "velocity": 105, "duration": 120}, {"note": 66, "velocity": 105, "duration": 120}, {"note": 67, "velocity": 97, "duration": 479}, {"note": 67, "velocity": 102, "duration": 120}, {"note": 69, "velocity": 105, "duration": 240}, {"note": 66, "velocity": 109, "duration": 600}, {"note": 62, "velocity": 120, "duration": 240}, {"note": 59, "velocity": 111, "duration": 120}, {"note": 64, "velocity": 108, "duration": 2039}, {"note": 64, "velocity": 114, "duration": 240}, {"note": 71, "velocity": 120, "duration": 240}, {"note": 69, "velocity": 114, "duration": 240}, {"note": 67, "velocity": 114, "duration": 120}, {"note": 64, "velocity": 108, "duration": 839}, {"note": 64, "velocity": 105, "duration": 120}, {"note": 66, "velocity": 102, "duration": 120}, {"note": 67, "velocity": 102, "duration": 240}, {"note": 66, "velocity": 112, "duration": 240}, {"note": 64, "velocity": 111, "duration": 120}, {"note": 62, "velocity": 111, "duration": 240}, {"note": 64, "velocity": 111, "duration": 1079}, {"note": 64, "velocity": 114, "duration": 240}, {"note": 76, "velocity": 114, "duration": 239}, {"note": 76, "velocity": 108, "duration": 240}, {"note": 74, "velocity": 97, "duration": 119}, {"note": 74, "velocity": 102, "duration": 119}, {"note": 74, "velocity": 117, "duration": 240}, {"note": 69, "velocity": 117, "duration": 239}, {"note": 69, "velocity": 108, "duration": 120}, {"note": 74, "velocity": 108, "duration": 360}, {"note": 71, "velocity": 108, "duration": 1679}, {"note": 71, "velocity": 102, "duration": 120}, {"note": 74, "velocity": 105, "duration": 120}, {"note": 76, "velocity": 111, "duration": 480}, {"note": 74, "velocity": 111, "duration": 240}, {"note": 71, "velocity": 105, "duration": 120}, {"note": 69, "velocity": 108, "duration": 840}, {"note": 67, "velocity": 105, "duration": 120}, {"note": 69, "velocity": 108, "duration": 120}, {"note": 71, "velocity": 108, "duration": 480}, {"note": 69, "velocity": 114, "duration": 240}, {"note": 71, "velocity": 117, "duration": 120}, {"note": 64, "velocity": 111, "duration": 839}, {"note": 64, "velocity": 105, "duration": 120}, {"note": 66, "velocity": 105, "duration": 120}, {"note": 67, "velocity": 97, "duration": 479}, {"note": 67, "velocity": 102, "duration": 120}, {"note": 69, "velocity": 105, "duration": 240}, {"note": 66, "velocity": 109, "duration": 600}, {"note": 62, "velocity": 120, "duration": 240}, {"note": 59, "velocity": 111, "duration": 120}, {"note": 64, "velocity": 108, "duration": 1680}, {"note": 71, "velocity": 111, "duration": 119}, {"note": 71, "velocity": 111, "duration": 119}, {"note": 71, "velocity": 114, "duration": 120}, {"note": 79, "velocity": 114, "duration": 240}, {"note": 78, "velocity": 112, "duration": 240}, {"note": 76, "velocity": 102, "duration": 120}, {"note": 74, "velocity": 123, "duration": 240}, {"note": 71, "velocity": 120, "duration": 719}, {"note": 71, "velocity": 117, "duration": 120}, {"note": 74, "velocity": 111, "duration": 120}, {"note": 71, "velocity": 117, "duration": 120}, {"note": 76, "velocity": 102, "duration": 119}, {"note": 76, "velocity": 108, "duration": 240}, {"note": 74, "velocity": 114, "duration": 120}, {"note": 67, "velocity": 114, "duration": 240}, {"note": 69, "velocity": 117, "duration": 240}, {"note": 71, "velocity": 108, "duration": 960}, {"note": 69, "velocity": 100, "duration": 119}, {"note": 69, "velocity": 105, "duration": 119}, {"note": 69, "velocity": 111, "duration": 120}, {"note": 67, "velocity": 97, "duration": 120}, {"note": 69, "velocity": 114, "duration": 240}, {"note": 67, "velocity": 111, "duration": 120}, {"note": 64, "velocity": 108, "duration": 839}, {"note": 64, "velocity": 114, "duration": 119}, {"note": 64, "velocity": 111, "duration": 120}, {"note": 76, "velocity": 108, "duration": 119}, {"note": 76, "velocity": 117, "duration": 119}, {"note": 76, "velocity": 108, "duration": 119}, {"note": 76, "velocity": 102, "duration": 119}, {"note": 76, "velocity": 108, "duration": 240}, {"note": 71, "velocity": 111, "duration": 120}, {"note": 76, "velocity": 114, "duration": 240}, {"note": 74, "velocity": 108, "duration": 480}, {"note": 71, "velocity": 111, "duration": 120}, {"note": 74, "velocity": 111, "duration": 120}, {"note": 71, "velocity": 114, "duration": 120}, {"note": 79, "velocity": 114, "duration": 240}, {"note": 78, "velocity": 112, "duration": 240}, {"note": 76, "velocity": 102, "duration": 120}, {"note": 74, "velocity": 123, "duration": 240}, {"note": 71, "velocity": 120, "duration": 719}, {"note": 71, "velocity": 117, "duration": 120}, {"note": 74, "velocity": 111, "duration": 120}, {"note": 71, "velocity": 117, "duration": 120}, {"note": 76, "velocity": 102, "duration": 119}, {"note": 76, "velocity": 108, "duration": 240}, {"note": 74, "velocity": 114, "duration": 120}, {"note": 67, "velocity": 114, "duration": 240}, {"note": 69, "velocity": 117, "duration": 240}, {"note": 71, "velocity": 108, "duration": 960}, {"note": 69, "velocity": 100, "duration": 119}, {"note": 69, "velocity": 105, "duration": 119}, {"note": 69, "velocity": 111, "duration": 120}, {"note": 67, "velocity": 97, "duration": 120}, {"note": 69, "velocity": 114, "duration": 240}, {"note": 67, "velocity": 111, "duration": 119}, {"note": 67, "velocity": 105, "duration": 240}, {"note": 64, "velocity": 105, "duration": 600}, {"note": 76, "velocity": 120, "duration": 120}, {"note": 78, "velocity": 105, "duration": 120}, {"note": 79, "velocity": 108, "duration": 599}, {"note": 79, "velocity": 111, "duration": 120}, {"note": 81, "velocity": 114, "duration": 240}, {"note": 78, "velocity": 109, "duration": 480}, {"note": 74, "velocity": 111, "duration": 240}, {"note": 71, "velocity": 114, "duration": 120}, {"note": 76, "velocity": 108, "duration": 2386}, {"note": 0, "velocity": 0, "duration": 15014}, {"note": 64, "velocity": 114, "duration": 166}, {"note": 0, "velocity": 0, "duration": 74}, {"note": 71, "velocity": 120, "duration": 150}, {"note": 0, "velocity": 0, "duration": 90}, {"note": 69, "velocity": 114, "duration": 161}, {"note": 0, "velocity": 0, "duration": 79}, {"note": 67, "velocity": 114, "duration": 55}, {"note": 0, "velocity": 0, "duration": 65}, {"note": 64, "velocity": 108, "duration": 583}, {"note": 0, "velocity": 0, "duration": 257}, {"note": 64, "velocity": 105, "duration": 67}, {"note": 66, "velocity": 102, "duration": 63}, {"note": 67, "velocity": 102, "duration": 164}, {"note": 0, "velocity": 0, "duration": 76}, {"note": 66, "velocity": 112, "duration": 140}, {"note": 0, "velocity": 0, "duration": 100}, {"note": 64, "velocity": 111, "duration": 50}, {"note": 0, "velocity": 0, "duration": 70}, {"note": 62, "velocity": 111, "duration": 212}, {"note": 64, "velocity": 111, "duration": 816}, {"note": 0, "velocity": 0, "duration": 264}, {"note": 64, "velocity": 114, "duration": 148}, {"note": 0, "velocity": 0, "duration": 92}, {"note": 76, "velocity": 114, "duration": 146}, {"note": 0, "velocity": 0, "duration": 94}, {"note": 76, "velocity": 108, "duration": 137}, {"note": 0, "velocity": 0, "duration": 103}, {"note": 74, "velocity": 97, "duration": 62}, {"note": 74, "velocity": 102, "duration": 50}, {"note": 0, "velocity": 0, "duration": 70}, {"note": 74, "velocity": 117, "duration": 158}, {"note": 0, "velocity": 0, "duration": 82}, {"note": 69, "velocity": 117, "duration": 143}, {"note": 0, "velocity": 0, "duration": 97}, {"note": 69, "velocity": 108, "duration": 76}, {"note": 74, "velocity": 108, "duration": 296}, {"note": 0, "velocity": 0, "duration": 64}, {"note": 71, "velocity": 108, "duration": 1062}, {"note": 0, "velocity": 0, "duration": 618}, {"note": 71, "velocity": 102, "duration": 62}, {"note": 74, "velocity": 105, "duration": 50}, {"note": 0, "velocity": 0, "duration": 70}, {"note": 76, "velocity": 111, "duration": 321}, {"note": 0, "velocity": 0, "duration": 159}, {"note": 74, "velocity": 111, "duration": 146}, {"note": 0, "velocity": 0, "duration": 94}, {"note": 71, "velocity": 105, "duration": 55}, {"note": 0, "velocity": 0, "duration": 65}, {"note": 69, "velocity": 108, "duration": 692}, {"note": 0, "velocity": 0, "duration": 148}, {"note": 67, "velocity": 105, "duration": 57}, {"note": 0, "velocity": 0, "duration": 63}, {"note": 69, "velocity": 108, "duration": 49}, {"note": 0, "velocity": 0, "duration": 71}, {"note": 71, "velocity": 108, "duration": 332}, {"note": 0, "velocity": 0, "duration": 148}, {"note": 69, "velocity": 114, "duration": 177}, {"note": 0, "velocity": 0, "duration": 63}, {"note": 71, "velocity": 117, "duration": 55}, {"note": 0, "velocity": 0, "duration": 65}, {"note": 64, "velocity": 111, "duration": 669}, {"note": 0, "velocity": 0, "duration": 171}, {"note": 64, "velocity": 105, "duration": 50}, {"note": 0, "velocity": 0, "duration": 70}, {"note": 66, "velocity": 105, "duration": 52}, {"note": 0, "velocity": 0, "duration": 68}, {"note": 67, "velocity": 97, "duration": 387}, {"note": 0, "velocity": 0, "duration": 93}, {"note": 67, "velocity": 102, "duration": 62}, {"note": 69, "velocity": 105, "duration": 231}, {"note": 66, "velocity": 109, "duration": 511}, {"note": 0, "velocity": 0, "duration": 89}, {"note": 62, "velocity": 120, "duration": 158}, {"note": 0, "velocity": 0, "duration": 82}, {"note": 59, "velocity": 111, "duration": 57}, {"note": 0, "velocity": 0, "duration": 63}, {"note": 64, "velocity": 108, "duration": 1560}, {"note": 0, "velocity": 0, "duration": 120}, {"note": 71, "velocity": 111, "duration": 70}, {"note": 71, "velocity": 111, "duration": 50}, {"note": 0, "velocity": 0, "duration": 70}, {"note": 71, "velocity": 114, "duration": 62}, {"note": 79, "velocity": 114, "duration": 181}, {"note": 78, "velocity": 112, "duration": 155}, {"note": 0, "velocity": 0, "duration": 85}, {"note": 76, "velocity": 102, "duration": 63}, {"note": 74, "velocity": 123, "duration": 200}, {"note": 71, "velocity": 120, "duration": 578}, {"note": 0, "velocity": 0, "duration": 142}, {"note": 71, "velocity": 117, "duration": 50}, {"note": 0, "velocity": 0, "duration": 70}, {"note": 74, "velocity": 111, "duration": 57}, {"note": 0, "velocity": 0, "duration": 63}, {"note": 71, "velocity": 117, "duration": 45}, {"note": 0, "velocity": 0, "duration": 75}, {"note": 76, "velocity": 102, "duration": 50}, {"note": 0, "velocity": 0, "duration": 70}, {"note": 76, "velocity": 108, "duration": 171}, {"note": 0, "velocity": 0, "duration": 69}, {"note": 74, "velocity": 114, "duration": 55}, {"note": 0, "velocity": 0, "duration": 65}, {"note": 67, "velocity": 114, "duration": 169}, {"note": 0, "velocity": 0, "duration": 71}, {"note": 69, "velocity": 117, "duration": 169}, {"note": 0, "velocity": 0, "duration": 71}, {"note": 71, "velocity": 108, "duration": 508}, {"note": 0, "velocity": 0, "duration": 452}, {"note": 69, "velocity": 100, "duration": 62}, {"note": 69, "velocity": 105, "duration": 64}, {"note": 69, "velocity": 111, "duration": 75}, {"note": 67, "velocity": 97, "duration": 65}, {"note": 69, "velocity": 114, "duration": 176}, {"note": 0, "velocity": 0, "duration": 64}, {"note": 67, "velocity": 111, "duration": 65}, {"note": 64, "velocity": 108, "duration": 690}, {"note": 0, "velocity": 0, "duration": 150}, {"note": 64, "velocity": 114, "duration": 53}, {"note": 0, "velocity": 0, "duration": 67}, {"note": 64, "velocity": 111, "duration": 57}, {"note": 0, "velocity": 0, "duration": 63}, {"note": 76, "velocity": 108, "duration": 55}, {"note": 0, "velocity": 0, "duration": 65}, {"note": 76, "velocity": 117, "duration": 49}, {"note": 0, "velocity": 0, "duration": 71}, {"note": 76, "velocity": 108, "duration": 47}, {"note": 0, "velocity": 0, "duration": 73}, {"note": 76, "velocity": 102, "duration": 58}, {"note": 0, "velocity": 0, "duration": 62}, {"note": 76, "velocity": 108, "duration": 151}, {"note": 0, "velocity": 0, "duration": 89}, {"note": 71, "velocity": 111, "duration": 79}, {"note": 76, "velocity": 114, "duration": 171}, {"note": 0, "velocity": 0, "duration": 69}, {"note": 74, "velocity": 108, "duration": 448}, {"note": 71, "velocity": 111, "duration": 70}, {"note": 74, "velocity": 111, "duration": 50}, {"note": 0, "velocity": 0, "duration": 70}, {"note": 71, "velocity": 114, "duration": 62}, {"note": 79, "velocity": 114, "duration": 181}, {"note": 78, "velocity": 112, "duration": 155}, {"note": 0, "velocity": 0, "duration": 85}, {"note": 76, "velocity": 102, "duration": 63}, {"note": 74, "velocity": 123, "duration": 200}, {"note": 71, "velocity": 120, "duration": 578}, {"note": 0, "velocity": 0, "duration": 142}, {"note": 71, "velocity": 117, "duration": 50}, {"note": 0, "velocity": 0, "duration": 70}, {"note": 74, "velocity": 111, "duration": 57}, {"note": 0, "velocity": 0, "duration": 63}, {"note": 71, "velocity": 117, "duration": 45}, {"note": 0, "velocity": 0, "duration": 75}, {"note": 76, "velocity": 102, "duration": 50}, {"note": 0, "velocity": 0, "duration": 70}, {"note": 76, "velocity": 108, "duration": 171}, {"note": 0, "velocity": 0, "duration": 69}, {"note": 74, "velocity": 114, "duration": 55}, {"note": 0, "velocity": 0, "duration": 65}, {"note": 67, "velocity": 114, "duration": 169}, {"note": 0, "velocity": 0, "duration": 71}, {"note": 69, "velocity": 117, "duration": 169}, {"note": 0, "velocity": 0, "duration": 71}, {"note": 71, "velocity": 108, "duration": 508}, {"note": 0, "velocity": 0, "duration": 452}, {"note": 69, "velocity": 100, "duration": 62}, {"note": 69, "velocity": 105, "duration": 64}, {"note": 69, "velocity": 111, "duration": 75}, {"note": 67, "velocity": 97, "duration": 65}, {"note": 69, "velocity": 114, "duration": 176}, {"note": 0, "velocity": 0, "duration": 64}, {"note": 67, "velocity": 111, "duration": 65}, {"note": 67, "velocity": 105, "duration": 181}, {"note": 64, "velocity": 105, "duration": 402}, {"note": 0, "velocity": 0, "duration": 198}, {"note": 76, "velocity": 120, "duration": 62}, {"note": 78, "velocity": 105, "duration": 60}, {"note": 79, "velocity": 108, "duration": 506}, {"note": 0, "velocity": 0, "duration": 94}, {"note": 79, "velocity": 111, "duration": 66}, {"note": 81, "velocity": 114, "duration": 164}, {"note": 0, "velocity": 0, "duration": 76}, {"note": 78, "velocity": 109, "duration": 355}, {"note": 0, "velocity": 0, "duration": 125}, {"note": 74, "velocity": 111, "duration": 177}, {"note": 0, "velocity": 0, "duration": 63}, {"note": 71, "velocity": 114, "duration": 62}, {"note": 76, "velocity": 108, "duration": 1560}, {"note": 0, "velocity": 0, "duration": 120}, {"note": 71, "velocity": 111, "duration": 70}, {"note": 71, "velocity": 111, "duration": 50}, {"note": 0, "velocity": 0, "duration": 70}, {"note": 71, "velocity": 114, "duration": 62}, {"note": 79, "velocity": 114, "duration": 181}, {"note": 78, "velocity": 112, "duration": 155}, {"note": 0, "velocity": 0, "duration": 85}, {"note": 76, "velocity": 102, "duration": 63}, {"note": 74, "velocity": 123, "duration": 200}, {"note": 71, "velocity": 120, "duration": 578}, {"note": 0, "velocity": 0, "duration": 142}, {"note": 71, "velocity": 117, "duration": 50}, {"note": 0, "velocity": 0, "duration": 70}, {"note": 74, "velocity": 111, "duration": 57}, {"note": 0, "velocity": 0, "duration": 63}, {"note": 71, "velocity": 117, "duration": 45}, {"note": 0, "velocity": 0, "duration": 75}, {"note": 76, "velocity": 102, "duration": 50}, {"note": 0, "velocity": 0, "duration": 70}, {"note": 76, "velocity": 108, "duration": 171}, {"note": 0, "velocity": 0, "duration": 69}, {"note": 74, "velocity": 114, "duration": 55}, {"note": 0, "velocity": 0, "duration": 65}, {"note": 67, "velocity": 114, "duration": 169}, {"note": 0, "velocity": 0, "duration": 71}, {"note": 69, "velocity": 117, "duration": 169}, {"note": 0, "velocity": 0, "duration": 71}, {"note": 71, "velocity": 108, "duration": 508}, {"note": 0, "velocity": 0, "duration": 452}, {"note": 69, "velocity": 100, "duration": 62}, {"note": 69, "velocity": 105, "duration": 64}, {"note": 69, "velocity": 111, "duration": 75}, {"note": 67, "velocity": 97, "duration": 65}, {"note": 69, "velocity": 114, "duration": 176}, {"note": 0, "velocity": 0, "duration": 64}, {"note": 67, "velocity": 111, "duration": 65}, {"note": 64, "velocity": 108, "duration": 690}, {"note": 0, "velocity": 0, "duration": 150}, {"note": 64, "velocity": 114, "duration": 53}, {"note": 0, "velocity": 0, "duration": 67}, {"note": 64, "velocity": 111, "duration": 57}, {"note": 0, "velocity": 0, "duration": 63}, {"note": 76, "velocity": 108, "duration": 55}, {"note": 0, "velocity": 0, "duration": 65}, {"note": 76, "velocity": 117, "duration": 49}, {"note": 0, "velocity": 0, "duration": 71}, {"note": 76, "velocity": 108, "duration": 47}, {"note": 0, "velocity": 0, "duration": 73}, {"note": 76, "velocity": 102, "duration": 58}, {"note": 0, "velocity": 0, "duration": 62}, {"note": 76, "velocity": 108, "duration": 151}, {"note": 0, "velocity": 0, "duration": 89}, {"note": 71, "velocity": 111, "duration": 79}, {"note": 76, "velocity": 114, "duration": 171}, {"note": 0, "velocity": 0, "duration": 69}, {"note": 74, "velocity": 108, "duration": 448}, {"note": 71, "velocity": 111, "duration": 70}, {"note": 74, "velocity": 111, "duration": 50}, {"note": 0, "velocity": 0, "duration": 70}, {"note": 71, "velocity": 114, "duration": 62}, {"note": 79, "velocity": 114, "duration": 181}, {"note": 78, "velocity": 112, "duration": 155}, {"note": 0, "velocity": 0, "duration": 85}, {"note": 76, "velocity": 102, "duration": 63}, {"note": 74, "velocity": 123, "duration": 200}, {"note": 71, "velocity": 120, "duration": 578}, {"note": 0, "velocity": 0, "duration": 142}, {"note": 71, "velocity": 117, "duration": 50}, {"note": 0, "velocity": 0, "duration": 70}, {"note": 74, "velocity": 111, "duration": 57}, {"note": 0, "velocity": 0, "duration": 63}, {"note": 71, "velocity": 117, "duration": 45}, {"note": 0, "velocity": 0, "duration": 75}, {"note": 76, "velocity": 102, "duration": 50}, {"note": 0, "velocity": 0, "duration": 70}, {"note": 76, "velocity": 108, "duration": 171}, {"note": 0, "velocity": 0, "duration": 69}, {"note": 74, "velocity": 114, "duration": 55}, {"note": 0, "velocity": 0, "duration": 65}, {"note": 67, "velocity": 114, "duration": 169}, {"note": 0, "velocity": 0, "duration": 71}, {"note": 69, "velocity": 117, "duration": 169}, {"note": 0, "velocity": 0, "duration": 71}, {"note": 71, "velocity": 108, "duration": 508}, {"note": 0, "velocity": 0, "duration": 452}, {"note": 69, "velocity": 100, "duration": 62}, {"note": 69, "velocity": 105, "duration": 64}, {"note": 69, "velocity": 111, "duration": 75}, {"note": 67, "velocity": 97, "duration": 65}, {"note": 69, "velocity": 114, "duration": 176}, {"note": 0, "velocity": 0, "duration": 64}, {"note": 67, "velocity": 111, "duration": 65}, {"note": 67, "velocity": 105, "duration": 181}, {"note": 64, "velocity": 105, "duration": 402}, {"note": 0, "velocity": 0, "duration": 198}, {"note": 76, "velocity": 120, "duration": 62}, {"note": 78, "velocity": 105, "duration": 60}, {"note": 79, "velocity": 108, "duration": 506}, {"note": 0, "velocity": 0, "duration": 94}, {"note": 79, "velocity": 111, "duration": 66}, {"note": 81, "velocity": 114, "duration": 164}, {"note": 0, "velocity": 0, "duration": 76}, {"note": 78, "velocity": 109, "duration": 355}, {"note": 0, "velocity": 0, "duration": 125}, {"note": 74, "velocity": 111, "duration": 177}, {"note": 0, "velocity": 0, "duration": 63}, {"note": 71, "velocity": 114, "duration": 62}, {"note": 76, "velocity": 108, "duration": 1560}]]