[[{"note": 67, "velocity": 87, "duration": 134}, {"note": 76, "velocity": 105, "duration": 237}, {"note": 74, "velocity": 94, "duration": 116}, {"note": 76, "velocity": 84, "duration": 124}, {"note": 74, "velocity": 100, "duration": 243}, {"note": 74, "velocity": 76, "duration": 241}, {"note": 74, "velocity": 82, "duration": 264}, {"note": 71, "velocity": 100, "duration": 120}, {"note": 71, "velocity": 102, "duration": 226}, {"note": 72, "velocity": 92, "duration": 1490}, {"note": 0, "velocity": 0, "duration": 687}, {"note": 67, "velocity": 111, "duration": 115}, {"note": 76, "velocity": 105, "duration": 239}, {"note": 74, "velocity": 94, "duration": 112}, {"note": 76, "velocity": 102, "duration": 125}, {"note": 74, "velocity": 105, "duration": 247}, {"note": 74, "velocity": 100, "duration": 252}, {"note": 74, "velocity": 102, "duration": 233}, {"note": 71, "velocity": 117, "duration": 127}, {"note": 71, "velocity": 117, "duration": 235}, {"note": 69, "velocity": 117, "duration": 1018}, {"note": 0, "velocity": 0, "duration": 667}, {"note": 67, "velocity": 117, "duration": 118}, {"note": 81, "velocity": 114, "duration": 237}, {"note": 79, "velocity": 108, "duration": 356}, {"note": 72, "velocity": 117, "duration": 229}, {"note": 74, "velocity": 111, "duration": 135}, {"note": 76, "velocity": 97, "duration": 733}, {"note": 74, "velocity": 114, "duration": 120}, {"note": 72, "velocity": 111, "duration": 120}, {"note": 76, "velocity": 111, "duration": 240}, {"note": 74, "velocity": 105, "duration": 119}, {"note": 74, "velocity": 97, "duration": 360}, {"note": 71, "velocity": 105, "duration": 120}, {"note": 72, "velocity": 108, "duration": 935}, {"note": 0, "velocity": 0, "duration": 505}, {"note": 67, "velocity": 105, "duration": 120}, {"note": 76, "velocity": 114, "duration": 240}, {"note": 74, "velocity": 97, "duration": 120}, {"note": 76, "velocity": 100, "duration": 120}, {"note": 74, "velocity": 97, "duration": 239}, {"note": 74, "velocity": 100, "duration": 239}, {"note": 74, "velocity": 102, "duration": 240}, {"note": 71, "velocity": 102, "duration": 120}, {"note": 72, "velocity": 102, "duration": 1659}, {"note": 0, "velocity": 0, "duration": 716}, {"note": 67, "velocity": 87, "duration": 134}, {"note": 76, "velocity": 105, "duration": 237}, {"note": 74, "velocity": 94, "duration": 116}, {"note": 76, "velocity": 84, "duration": 124}, {"note": 74, "velocity": 100, "duration": 243}, {"note": 74, "velocity": 76, "duration": 241}, {"note": 74, "velocity": 82, "duration": 264}, {"note": 71, "velocity": 100, "duration": 121}, {"note": 72, "velocity": 102, "duration": 226}, {"note": 69, "velocity": 92, "duration": 1433}, {"note": 0, "velocity": 0, "duration": 744}, {"note": 67, "velocity": 111, "duration": 115}, {"note": 76, "velocity": 105, "duration": 239}, {"note": 74, "velocity": 94, "duration": 112}, {"note": 76, "velocity": 102, "duration": 125}, {"note": 74, "velocity": 105, "duration": 247}, {"note": 74, "velocity": 100, "duration": 252}, {"note": 74, "velocity": 102, "duration": 233}, {"note": 79, "velocity": 117, "duration": 127}, {"note": 79, "velocity": 117, "duration": 235}, {"note": 76, "velocity": 117, "duration": 1025}, {"note": 0, "velocity": 0, "duration": 548}, {"note": 72, "velocity": 114, "duration": 120}, {"note": 72, "velocity": 114, "duration": 120}, {"note": 81, "velocity": 114, "duration": 237}, {"note": 79, "velocity": 108, "duration": 120}, {"note": 79, "velocity": 108, "duration": 240}, {"note": 72, "velocity": 117, "duration": 229}, {"note": 74, "velocity": 111, "duration": 135}, {"note": 76, "velocity": 97, "duration": 733}, {"note": 74, "velocity": 114, "duration": 120}, {"note": 72, "velocity": 111, "duration": 120}, {"note": 76, "velocity": 111, "duration": 240}, {"note": 74, "velocity": 105, "duration": 119}, {"note": 74, "velocity": 97, "duration": 360}, {"note": 71, "velocity": 105, "duration": 120}, {"note": 72, "velocity": 108, "duration": 959}, {"note": 72, "velocity": 92, "duration": 120}, {"note": 76, "velocity": 108, "duration": 119}, {"note": 76, "velocity": 108, "duration": 360}, {"note": 74, "velocity": 105, "duration": 240}, {"note": 72, "velocity": 114, "duration": 120}, {"note": 74, "velocity": 105, "duration": 239}, {"note": 74, "velocity": 105, "duration": 359}, {"note": 74, "velocity": 105, "duration": 240}, {"note": 72, "velocity": 117, "duration": 119}, {"note": 72, "velocity": 114, "duration": 1097}, {"note": 0, "velocity": 0, "duration": 703}, {"note": 81, "velocity": 108, "duration": 120}, {"note": 83, "velocity": 117, "duration": 120}, {"note": 84, "velocity": 111, "duration": 120}, {"note": 83, "velocity": 114, "duration": 120}, {"note": 79, "velocity": 114, "duration": 120}, {"note": 84, "velocity": 117, "duration": 240}, {"note": 83, "velocity": 117, "duration": 240}, {"note": 84, "velocity": 108, "duration": 240}, {"note": 83, "velocity": 111, "duration": 120}, {"note": 79, "velocity": 114, "duration": 120}, {"note": 84, "velocity": 117, "duration": 240}, {"note": 83, "velocity": 120, "duration": 240}, {"note": 79, "velocity": 114, "duration": 240}, {"note": 76, "velocity": 108, "duration": 240}, {"note": 79, "velocity": 102, "duration": 1320}, {"note": 72, "velocity": 105, "duration": 119}, {"note": 72, "velocity": 111, "duration": 120}, {"note": 81, "velocity": 111, "duration": 120}, {"note": 79, "velocity": 108, "duration": 120}, {"note": 72, "velocity": 117, "duration": 120}, {"note": 81, "velocity": 111, "duration": 240}, {"note": 79, "velocity": 111, "duration": 240}, {"note": 81, "velocity": 111, "duration": 240}, {"note": 79, "velocity": 100, "duration": 120}, {"note": 72, "velocity": 117, "duration": 120}, {"note": 81, "velocity": 111, "duration": 240}, {"note": 79, "velocity": 102, "duration": 120}, {"note": 72, "velocity": 111, "duration": 119}, {"note": 72, "velocity": 114, "duration": 241}, {"note": 79, "velocity": 108, "duration": 240}, {"note": 76, "velocity": 114, "duration": 1559}, {"note": 76, "velocity": 114, "duration": 120}, {"note": 79, "velocity": 111, "duration": 480}, {"note": 72, "velocity": 114, "duration": 240}, {"note": 74, "velocity": 102, "duration": 119}, {"note": 74, "velocity": 105, "duration": 720}, {"note": 72, "velocity": 111, "duration": 120}, {"note": 74, "velocity": 102, "duration": 120}, {"note": 76, "velocity": 111, "duration": 240}, {"note": 79, "velocity": 114, "duration": 240}, {"note": 83, "velocity": 120, "duration": 240}, {"note": 79, "velocity": 105, "duration": 120}, {"note": 84, "velocity": 111, "duration": 1079}, {"note": 84, "velocity": 111, "duration": 120}, {"note": 83, "velocity": 114, "duration": 120}, {"note": 79, "velocity": 117, "duration": 119}, {"note": 79, "velocity": 108, "duration": 240}, {"note": 76, "velocity": 108, "duration": 240}, {"note": 74, "velocity": 111, "duration": 240}, {"note": 71, "velocity": 102, "duration": 240}, {"note": 76, "velocity": 117, "duration": 600}, {"note": 71, "velocity": 117, "duration": 120}, {"note": 69, "velocity": 92, "duration": 2729}, {"note": 0, "velocity": 0, "duration": 7086}, {"note": 67, "velocity": 87, "duration": 134}, {"note": 76, "velocity": 105, "duration": 237}, {"note": 74, "velocity": 94, "duration": 116}, {"note": 76, "velocity": 84, "duration": 124}, {"note": 74, "velocity": 100, "duration": 243}, {"note": 74, "velocity": 76, "duration": 241}, {"note": 74, "velocity": 82, "duration": 264}, {"note": 71, "velocity": 100, "duration": 121}, {"note": 72, "velocity": 102, "duration": 226}, {"note": 69, "velocity": 92, "duration": 2177}, {"note": 67, "velocity": 111, "duration": 115}, {"note": 76, "velocity": 105, "duration": 239}, {"note": 74, "velocity": 94, "duration": 112}, {"note": 76, "velocity": 102, "duration": 125}, {"note": 74, "velocity": 105, "duration": 247}, {"note": 74, "velocity": 100, "duration": 252}, {"note": 74, "velocity": 102, "duration": 233}, {"note": 79, "velocity": 117, "duration": 127}, {"note": 79, "velocity": 117, "duration": 235}, {"note": 76, "velocity": 117, "duration": 1573}, {"note": 72, "velocity": 114, "duration": 120}, {"note": 72, "velocity": 114, "duration": 120}, {"note": 81, "velocity": 114, "duration": 237}, {"note": 79, "velocity": 108, "duration": 120}, {"note": 79, "velocity": 108, "duration": 240}, {"note": 72, "velocity": 117, "duration": 229}, {"note": 74, "velocity": 111, "duration": 135}, {"note": 76, "velocity": 97, "duration": 733}, {"note": 74, "velocity": 114, "duration": 120}, {"note": 72, "velocity": 111, "duration": 120}, {"note": 76, "velocity": 111, "duration": 240}, {"note": 74, "velocity": 105, "duration": 119}, {"note": 74, "velocity": 97, "duration": 360}, {"note": 71, "velocity": 105, "duration": 120}, {"note": 72, "velocity": 108, "duration": 959}, {"note": 72, "velocity": 92, "duration": 120}, {"note": 76, "velocity": 108, "duration": 119}, {"note": 76, "velocity": 108, "duration": 360}, {"note": 74, "velocity": 105, "duration": 240}, {"note": 72, "velocity": 114, "duration": 120}, {"note": 74, "velocity": 105, "duration": 239}, {"note": 74, "velocity": 105, "duration": 359}, {"note": 74, "velocity": 105, "duration": 240}, {"note": 72, "velocity": 117, "duration": 119}, {"note": 72, "velocity": 114, "duration": 1146}, {"note": 0, "velocity": 0, "duration": 654}, {"note": 81, "velocity": 108, "duration": 120}, {"note": 83, "velocity": 117, "duration": 120}, {"note": 84, "velocity": 111, "duration": 120}, {"note": 83, "velocity": 114, "duration": 120}, {"note": 79, "velocity": 114, "duration": 120}, {"note": 84, "velocity": 117, "duration": 240}, {"note": 83, "velocity": 117, "duration": 240}, {"note": 84, "velocity": 108, "duration": 240}, {"note": 83, "velocity": 111, "duration": 120}, {"note": 79, "velocity": 114, "duration": 120}, {"note": 84, "velocity": 117, "duration": 240}, {"note": 83, "velocity": 120, "duration": 240}, {"note": 79, "velocity": 114, "duration": 240}, {"note": 76, "velocity": 108, "duration": 240}, {"note": 79, "velocity": 102, "duration": 1320}, {"note": 72, "velocity": 105, "duration": 119}, {"note": 72, "velocity": 111, "duration": 120}, {"note": 81, "velocity": 111, "duration": 120}, {"note": 79, "velocity": 108, "duration": 120}, {"note": 72, "velocity": 117, "duration": 120}, {"note": 81, "velocity": 111, "duration": 240}, {"note": 79, "velocity": 111, "duration": 240}, {"note": 81, "velocity": 111, "duration": 240}, {"note": 79, "velocity": 100, "duration": 120}, {"note": 72, "velocity": 117, "duration": 120}, {"note": 81, "velocity": 111, "duration": 240}, {"note": 79, "velocity": 102, "duration": 120}, {"note": 72, "velocity": 111, "duration": 119}, {"note": 72, "velocity": 114, "duration": 241}, {"note": 79, "velocity": 108, "duration": 240}, {"note": 76, "velocity": 114, "duration": 1559}, {"note": 76, "velocity": 114, "duration": 120}, {"note": 79, "velocity": 111, "duration": 480}, {"note": 72, "velocity": 114, "duration": 240}, {"note": 74, "velocity": 102, "duration": 119}, {"note": 74, "velocity": 105, "duration": 720}, {"note": 72, "velocity": 111, "duration": 120}, {"note": 74, "velocity": 102, "duration": 120}, {"note": 76, "velocity": 111, "duration": 240}, {"note": 79, "velocity": 114, "duration": 240}, {"note": 83, "velocity": 120, "duration": 240}, {"note": 79, "velocity": 105, "duration": 120}, {"note": 84, "velocity": 111, "duration": 1079}, {"note": 84, "velocity": 111, "duration": 120}, {"note": 83, "velocity": 114, "duration": 120}, {"note": 79, "velocity": 117, "duration": 119}, {"note": 79, "velocity": 108, "duration": 240}, {"note": 76, "velocity": 108, "duration": 240}, {"note": 74, "velocity": 111, "duration": 240}, {"note": 71, "velocity": 102, "duration": 240}, {"note": 76, "velocity": 117, "duration": 600}, {"note": 71, "velocity": 117, "duration": 120}, {"note": 69, "velocity": 92, "duration": 1320}, {"note": 81, "velocity": 120, "duration": 240}, {"note": 83, "velocity": 114, "duration": 120}, {"note": 84, "velocity": 114, "duration": 240}, {"note": 83, "velocity": 117, "duration": 1320}, {"note": 81, "velocity": 117, "duration": 240}, {"note": 83, "velocity": 114, "duration": 120}, {"note": 84, "velocity": 111, "duration": 1265}, {"note": 0, "velocity": 0, "duration": 535}, {"note": 84, "velocity": 114, "duration": 120}, {"note": 83, "velocity": 111, "duration": 800}, {"note": 0, "velocity": 0, "duration": 1000}, {"note": 81, "velocity": 117, "duration": 120}, {"note": 83, "velocity": 108, "duration": 120}, {"note": 84, "velocity": 114, "duration": 120}, {"note": 83, "velocity": 114, "duration": 120}, {"note": 79, "velocity": 114, "duration": 120}, {"note": 84, "velocity": 114, "duration": 240}, {"note": 83, "velocity": 114, "duration": 240}, {"note": 84, "velocity": 108, "duration": 240}, {"note": 83, "velocity": 108, "duration": 120}, {"note": 79, "velocity": 114, "duration": 120}, {"note": 84, "velocity": 111, "duration": 240}, {"note": 83, "velocity": 111, "duration": 360}, {"note": 79, "velocity": 111, "duration": 240}, {"note": 76, "velocity": 102, "duration": 120}, {"note": 79, "velocity": 108, "duration": 1320}, {"note": 72, "velocity": 111, "duration": 119}, {"note": 72, "velocity": 111, "duration": 120}, {"note": 81, "velocity": 114, "duration": 120}, {"note": 79, "velocity": 100, "duration": 120}, {"note": 72, "velocity": 111, "duration": 120}, {"note": 81, "velocity": 108, "duration": 240}, {"note": 79, "velocity": 108, "duration": 240}, {"note": 81, "velocity": 111, "duration": 240}, {"note": 79, "velocity": 120, "duration": 120}, {"note": 72, "velocity": 117, "duration": 120}, {"note": 81, "velocity": 108, "duration": 240}, {"note": 79, "velocity": 111, "duration": 240}, {"note": 72, "velocity": 108, "duration": 240}, {"note": 79, "velocity": 97, "duration": 240}, {"note": 76, "velocity": 108, "duration": 1559}, {"note": 76, "velocity": 117, "duration": 120}, {"note": 79, "velocity": 114, "duration": 360}, {"note": 72, "velocity": 94, "duration": 360}, {"note": 74, "velocity": 102, "duration": 239}, {"note": 74, "velocity": 100, "duration": 600}, {"note": 72, "velocity": 108, "duration": 120}, {"note": 74, "velocity": 105, "duration": 120}, {"note": 76, "velocity": 111, "duration": 240}, {"note": 79, "velocity": 111, "duration": 240}, {"note": 83, "velocity": 117, "duration": 240}, {"note": 79, "velocity": 108, "duration": 120}, {"note": 84, "velocity": 117, "duration": 1079}, {"note": 84, "velocity": 114, "duration": 120}, {"note": 83, "velocity": 102, "duration": 120}, {"note": 79, "velocity": 108, "duration": 119}, {"note": 79, "velocity": 108, "duration": 240}, {"note": 76, "velocity": 114, "duration": 240}, {"note": 74, "velocity": 100, "duration": 240}, {"note": 71, "velocity": 114, "duration": 240}, {"note": 76, "velocity": 105, "duration": 600}, {"note": 71, "velocity": 114, "duration": 240}, {"note": 72, "velocity": 105, "duration": 252}, {"note": 69, "velocity": 108, "duration": 1572}]]