[[{"note": 62, "velocity": 102, "duration": 360}, {"note": 60, "velocity": 92, "duration": 360}, {"note": 55, "velocity": 94, "duration": 960}, {"note": 52, "velocity": 105, "duration": 120}, {"note": 55, "velocity": 100, "duration": 120}, {"note": 59, "velocity": 100, "duration": 359}, {"note": 59, "velocity": 102, "duration": 360}, {"note": 60, "velocity": 89, "duration": 240}, {"note": 57, "velocity": 94, "duration": 839}, {"note": 57, "velocity": 100, "duration": 120}, {"note": 64, "velocity": 97, "duration": 240}, {"note": 62, "velocity": 97, "duration": 240}, {"note": 60, "velocity": 102, "duration": 240}, {"note": 57, "velocity": 108, "duration": 959}, {"note": 57, "velocity": 105, "duration": 120}, {"note": 59, "velocity": 94, "duration": 120}, {"note": 60, "velocity": 92, "duration": 479}, {"note": 60, "velocity": 97, "duration": 480}, {"note": 62, "velocity": 89, "duration": 959}, {"note": 62, "velocity": 105, "duration": 360}, {"note": 60, "velocity": 108, "duration": 360}, {"note": 55, "velocity": 105, "duration": 960}, {"note": 52, "velocity": 111, "duration": 120}, {"note": 55, "velocity": 100, "duration": 120}, {"note": 59, "velocity": 102, "duration": 359}, {"note": 59, "velocity": 105, "duration": 360}, {"note": 60, "velocity": 94, "duration": 240}, {"note": 57, "velocity": 89, "duration": 960}, {"note": 64, "velocity": 80, "duration": 360}, {"note": 62, "velocity": 94, "duration": 360}, {"note": 57, "velocity": 111, "duration": 959}, {"note": 57, "velocity": 105, "duration": 120}, {"note": 59, "velocity": 89, "duration": 120}, {"note": 60, "velocity": 97, "duration": 239}, {"note": 60, "velocity": 84, "duration": 119}, {"note": 60, "velocity": 105, "duration": 360}, {"note": 62, "velocity": 108, "duration": 239}, {"note": 62, "velocity": 82, "duration": 1200}, {"note": 64, "velocity": 102, "duration": 239}, {"note": 64, "velocity": 102, "duration": 359}, {"note": 64, "velocity": 94, "duration": 120}, {"note": 65, "velocity": 87, "duration": 240}, {"note": 64, "velocity": 105, "duration": 239}, {"note": 64, "velocity": 97, "duration": 240}, {"note": 62, "velocity": 100, "duration": 120}, {"note": 62, "velocity": 100, "duration": 120}, {"note": 62, "velocity": 108, "duration": 240}, {"note": 60, "velocity": 100, "duration": 480}, {"note": 59, "velocity": 105, "duration": 240}, {"note": 60, "velocity": 97, "duration": 725}, {"note": 62, "velocity": 114, "duration": 120}, {"note": 64, "velocity": 80, "duration": 120}, {"note": 65, "velocity": 102, "duration": 240}, {"note": 64, "velocity": 102, "duration": 240}, {"note": 60, "velocity": 108, "duration": 120}, {"note": 57, "velocity": 111, "duration": 360}, {"note": 65, "velocity": 111, "duration": 240}, {"note": 64, "velocity": 108, "duration": 240}, {"note": 65, "velocity": 92, "duration": 240}, {"note": 64, "velocity": 100, "duration": 240}, {"note": 60, "velocity": 111, "duration": 960}, {"note": 62, "velocity": 102, "duration": 1200}, {"note": 64, "velocity": 108, "duration": 239}, {"note": 64, "velocity": 105, "duration": 239}, {"note": 64, "velocity": 105, "duration": 240}, {"note": 65, "velocity": 108, "duration": 240}, {"note": 64, "velocity": 105, "duration": 239}, {"note": 64, "velocity": 100, "duration": 719}, {"note": 64, "velocity": 114, "duration": 239}, {"note": 64, "velocity": 114, "duration": 240}, {"note": 69, "velocity": 117, "duration": 240}, {"note": 64, "velocity": 117, "duration": 276}, {"note": 62, "velocity": 87, "duration": 119}, {"note": 62, "velocity": 100, "duration": 359}, {"note": 62, "velocity": 108, "duration": 120}, {"note": 64, "velocity": 114, "duration": 120}, {"note": 65, "velocity": 111, "duration": 240}, {"note": 64, "velocity": 111, "duration": 240}, {"note": 60, "velocity": 108, "duration": 120}, {"note": 57, "velocity": 120, "duration": 360}, {"note": 65, "velocity": 117, "duration": 240}, {"note": 64, "velocity": 108, "duration": 240}, {"note": 65, "velocity": 111, "duration": 240}, {"note": 67, "velocity": 108, "duration": 1440}, {"note": 55, "velocity": 120, "duration": 240}, {"note": 60, "velocity": 114, "duration": 240}, {"note": 67, "velocity": 111, "duration": 239}, {"note": 67, "velocity": 114, "duration": 1200}, {"note": 55, "velocity": 117, "duration": 240}, {"note": 60, "velocity": 114, "duration": 240}, {"note": 67, "velocity": 114, "duration": 239}, {"note": 67, "velocity": 111, "duration": 480}, {"note": 65, "velocity": 114, "duration": 240}, {"note": 64, "velocity": 111, "duration": 120}, {"note": 65, "velocity": 100, "duration": 480}, {"note": 57, "velocity": 108, "duration": 120}, {"note": 60, "velocity": 117, "duration": 240}, {"note": 69, "velocity": 114, "duration": 239}, {"note": 69, "velocity": 111, "duration": 1200}, {"note": 65, "velocity": 108, "duration": 240}, {"note": 67, "velocity": 111, "duration": 240}, {"note": 69, "velocity": 108, "duration": 239}, {"note": 69, "velocity": 111, "duration": 360}, {"note": 67, "velocity": 108, "duration": 360}, {"note": 65, "velocity": 100, "duration": 480}, {"note": 55, "velocity": 120, "duration": 240}, {"note": 60, "velocity": 114, "duration": 240}, {"note": 67, "velocity": 111, "duration": 239}, {"note": 67, "velocity": 114, "duration": 1200}, {"note": 55, "velocity": 117, "duration": 240}, {"note": 60, "velocity": 114, "duration": 240}, {"note": 67, "velocity": 114, "duration": 239}, {"note": 67, "velocity": 111, "duration": 240}, {"note": 65, "velocity": 114, "duration": 240}, {"note": 65, "velocity": 114, "duration": 240}, {"note": 64, "velocity": 111, "duration": 120}, {"note": 65, "velocity": 100, "duration": 840}, {"note": 62, "velocity": 111, "duration": 120}, {"note": 64, "velocity": 108, "duration": 120}, {"note": 65, "velocity": 105, "duration": 360}, {"note": 64, "velocity": 111, "duration": 360}, {"note": 57, "velocity": 117, "duration": 720}, {"note": 59, "velocity": 111, "duration": 479}, {"note": 59, "velocity": 117, "duration": 240}, {"note": 60, "velocity": 108, "duration": 9360}, {"note": 62, "velocity": 102, "duration": 360}, {"note": 60, "velocity": 92, "duration": 360}, {"note": 55, "velocity": 94, "duration": 960}, {"note": 52, "velocity": 105, "duration": 120}, {"note": 55, "velocity": 100, "duration": 120}, {"note": 59, "velocity": 100, "duration": 359}, {"note": 59, "velocity": 102, "duration": 360}, {"note": 60, "velocity": 89, "duration": 240}, {"note": 57, "velocity": 94, "duration": 839}, {"note": 57, "velocity": 100, "duration": 120}, {"note": 64, "velocity": 97, "duration": 240}, {"note": 62, "velocity": 97, "duration": 240}, {"note": 60, "velocity": 102, "duration": 240}, {"note": 57, "velocity": 108, "duration": 959}, {"note": 57, "velocity": 105, "duration": 120}, {"note": 59, "velocity": 94, "duration": 120}, {"note": 60, "velocity": 92, "duration": 479}, {"note": 60, "velocity": 97, "duration": 480}, {"note": 62, "velocity": 89, "duration": 959}, {"note": 62, "velocity": 105, "duration": 360}, {"note": 60, "velocity": 108, "duration": 360}, {"note": 55, "velocity": 105, "duration": 960}, {"note": 52, "velocity": 111, "duration": 120}, {"note": 55, "velocity": 100, "duration": 120}, {"note": 59, "velocity": 102, "duration": 359}, {"note": 59, "velocity": 105, "duration": 360}, {"note": 60, "velocity": 94, "duration": 240}, {"note": 57, "velocity": 89, "duration": 960}, {"note": 64, "velocity": 80, "duration": 360}, {"note": 62, "velocity": 94, "duration": 360}, {"note": 57, "velocity": 111, "duration": 959}, {"note": 57, "velocity": 105, "duration": 120}, {"note": 59, "velocity": 89, "duration": 120}, {"note": 60, "velocity": 97, "duration": 239}, {"note": 60, "velocity": 84, "duration": 119}, {"note": 60, "velocity": 105, "duration": 360}, {"note": 62, "velocity": 108, "duration": 239}, {"note": 62, "velocity": 82, "duration": 1200}, {"note": 64, "velocity": 102, "duration": 239}, {"note": 64, "velocity": 102, "duration": 359}, {"note": 64, "velocity": 94, "duration": 120}, {"note": 65, "velocity": 87, "duration": 240}, {"note": 64, "velocity": 105, "duration": 239}, {"note": 64, "velocity": 97, "duration": 240}, {"note": 62, "velocity": 100, "duration": 120}, {"note": 62, "velocity": 100, "duration": 120}, {"note": 62, "velocity": 108, "duration": 240}, {"note": 60, "velocity": 100, "duration": 480}, {"note": 59, "velocity": 105, "duration": 240}, {"note": 60, "velocity": 97, "duration": 725}, {"note": 62, "velocity": 114, "duration": 120}, {"note": 64, "velocity": 80, "duration": 120}, {"note": 65, "velocity": 102, "duration": 240}, {"note": 64, "velocity": 102, "duration": 240}, {"note": 60, "velocity": 108, "duration": 120}, {"note": 57, "velocity": 111, "duration": 360}, {"note": 65, "velocity": 111, "duration": 240}, {"note": 64, "velocity": 108, "duration": 240}, {"note": 65, "velocity": 92, "duration": 240}, {"note": 64, "velocity": 100, "duration": 240}, {"note": 60, "velocity": 111, "duration": 960}, {"note": 62, "velocity": 102, "duration": 1200}, {"note": 64, "velocity": 108, "duration": 239}, {"note": 64, "velocity": 105, "duration": 239}, {"note": 64, "velocity": 105, "duration": 240}, {"note": 65, "velocity": 108, "duration": 240}, {"note": 64, "velocity": 105, "duration": 239}, {"note": 64, "velocity": 100, "duration": 719}, {"note": 64, "velocity": 114, "duration": 239}, {"note": 64, "velocity": 114, "duration": 240}, {"note": 69, "velocity": 117, "duration": 240}, {"note": 64, "velocity": 117, "duration": 276}, {"note": 62, "velocity": 87, "duration": 119}, {"note": 62, "velocity": 100, "duration": 359}, {"note": 62, "velocity": 108, "duration": 120}, {"note": 64, "velocity": 114, "duration": 120}, {"note": 65, "velocity": 111, "duration": 240}, {"note": 64, "velocity": 111, "duration": 240}, {"note": 60, "velocity": 108, "duration": 120}, {"note": 57, "velocity": 120, "duration": 360}, {"note": 65, "velocity": 117, "duration": 240}, {"note": 64, "velocity": 108, "duration": 240}, {"note": 65, "velocity": 111, "duration": 240}, {"note": 67, "velocity": 108, "duration": 1440}, {"note": 55, "velocity": 120, "duration": 240}, {"note": 60, "velocity": 114, "duration": 240}, {"note": 67, "velocity": 111, "duration": 239}, {"note": 67, "velocity": 114, "duration": 1200}, {"note": 55, "velocity": 117, "duration": 240}, {"note": 60, "velocity": 114, "duration": 240}, {"note": 67, "velocity": 114, "duration": 239}, {"note": 67, "velocity": 111, "duration": 480}, {"note": 65, "velocity": 114, "duration": 240}, {"note": 64, "velocity": 111, "duration": 120}, {"note": 65, "velocity": 100, "duration": 480}, {"note": 57, "velocity": 108, "duration": 120}, {"note": 60, "velocity": 117, "duration": 240}, {"note": 69, "velocity": 114, "duration": 239}, {"note": 69, "velocity": 111, "duration": 1200}, {"note": 65, "velocity": 108, "duration": 240}, {"note": 67, "velocity": 111, "duration": 240}, {"note": 69, "velocity": 108, "duration": 239}, {"note": 69, "velocity": 111, "duration": 360}, {"note": 67, "velocity": 108, "duration": 360}, {"note": 65, "velocity": 100, "duration": 480}, {"note": 55, "velocity": 120, "duration": 240}, {"note": 60, "velocity": 114, "duration": 240}, {"note": 67, "velocity": 111, "duration": 239}, {"note": 67, "velocity": 114, "duration": 1200}, {"note": 55, "velocity": 117, "duration": 240}, {"note": 60, "velocity": 114, "duration": 240}, {"note": 67, "velocity": 114, "duration": 239}, {"note": 67, "velocity": 111, "duration": 240}, {"note": 65, "velocity": 114, "duration": 240}, {"note": 65, "velocity": 114, "duration": 240}, {"note": 64, "velocity": 111, "duration": 120}, {"note": 65, "velocity": 100, "duration": 840}, {"note": 62, "velocity": 111, "duration": 120}, {"note": 64, "velocity": 108, "duration": 120}, {"note": 65, "velocity": 105, "duration": 360}, {"note": 64, "velocity": 111, "duration": 360}, {"note": 57, "velocity": 117, "duration": 720}, {"note": 59, "velocity": 111, "duration": 479}, {"note": 59, "velocity": 117, "duration": 240}, {"note": 60, "velocity": 108, "duration": 960}, {"note": 55, "velocity": 120, "duration": 240}, {"note": 60, "velocity": 114, "duration": 240}, {"note": 67, "velocity": 111, "duration": 239}, {"note": 67, "velocity": 114, "duration": 1200}, {"note": 55, "velocity": 117, "duration": 240}, {"note": 60, "velocity": 114, "duration": 240}, {"note": 67, "velocity": 114, "duration": 239}, {"note": 67, "velocity": 111, "duration": 480}, {"note": 65, "velocity": 114, "duration": 240}, {"note": 64, "velocity": 111, "duration": 120}, {"note": 65, "velocity": 100, "duration": 480}, {"note": 57, "velocity": 108, "duration": 120}, {"note": 60, "velocity": 117, "duration": 240}, {"note": 69, "velocity": 114, "duration": 239}, {"note": 69, "velocity": 111, "duration": 1200}, {"note": 65, "velocity": 108, "duration": 240}, {"note": 67, "velocity": 111, "duration": 240}, {"note": 69, "velocity": 108, "duration": 239}, {"note": 69, "velocity": 111, "duration": 360}, {"note": 67, "velocity": 108, "duration": 360}, {"note": 65, "velocity": 100, "duration": 480}, {"note": 55, "velocity": 120, "duration": 240}, {"note": 60, "velocity": 114, "duration": 240}, {"note": 67, "velocity": 111, "duration": 239}, {"note": 67, "velocity": 114, "duration": 1200}, {"note": 55, "velocity": 117, "duration": 240}, {"note": 60, "velocity": 114, "duration": 240}, {"note": 67, "velocity": 114, "duration": 239}, {"note": 67, "velocity": 111, "duration": 240}, {"note": 65, "velocity": 114, "duration": 240}, {"note": 65, "velocity": 114, "duration": 240}, {"note": 64, "velocity": 111, "duration": 120}, {"note": 65, "velocity": 100, "duration": 840}, {"note": 62, "velocity": 111, "duration": 120}, {"note": 64, "velocity": 108, "duration": 120}, {"note": 65, "velocity": 105, "duration": 360}, {"note": 64, "velocity": 111, "duration": 360}, {"note": 57, "velocity": 117, "duration": 720}, {"note": 59, "velocity": 111, "duration": 479}, {"note": 59, "velocity": 117, "duration": 240}, {"note": 60, "velocity": 108, "duration": 1733}]]