[[{"note": 59, "velocity": 100, "duration": 120}, {"note": 57, "velocity": 100, "duration": 120}, {"note": 59, "velocity": 114, "duration": 240}, {"note": 60, "velocity": 94, "duration": 120}, {"note": 57, "velocity": 114, "duration": 960}, {"note": 55, "velocity": 108, "duration": 360}, {"note": 57, "velocity": 105, "duration": 239}, {"note": 57, "velocity": 105, "duration": 240}, {"note": 52, "velocity": 87, "duration": 120}, {"note": 53, "velocity": 76, "duration": 1320}, {"note": 59, "velocity": 100, "duration": 239}, {"note": 59, "velocity": 102, "duration": 240}, {"note": 57, "velocity": 100, "duration": 120}, {"note": 55, "velocity": 100, "duration": 390}, {"note": 55, "velocity": 100, "duration": 30}, {"note": 0, "velocity": 0, "duration": 90}, {"note": 55, "velocity": 97, "duration": 120}, {"note": 57, "velocity": 102, "duration": 240}, {"note": 59, "velocity": 108, "duration": 240}, {"note": 52, "velocity": 114, "duration": 2160}, {"note": 55, "velocity": 102, "duration": 240}, {"note": 53, "velocity": 100, "duration": 240}, {"note": 52, "velocity": 94, "duration": 120}, {"note": 53, "velocity": 102, "duration": 600}, {"note": 52, "velocity": 111, "duration": 240}, {"note": 64, "velocity": 111, "duration": 239}, {"note": 64, "velocity": 108, "duration": 479}, {"note": 64, "velocity": 108, "duration": 240}, {"note": 62, "velocity": 100, "duration": 119}, {"note": 62, "velocity": 105, "duration": 240}, {"note": 60, "velocity": 105, "duration": 599}, {"note": 60, "velocity": 105, "duration": 120}, {"note": 59, "velocity": 108, "duration": 120}, {"note": 62, "velocity": 108, "duration": 360}, {"note": 57, "velocity": 108, "duration": 359}, {"note": 57, "velocity": 111, "duration": 120}, {"note": 59, "velocity": 82, "duration": 120}, {"note": 60, "velocity": 102, "duration": 359}, {"note": 60, "velocity": 100, "duration": 360}, {"note": 57, "velocity": 114, "duration": 240}, {"note": 59, "velocity": 111, "duration": 359}, {"note": 59, "velocity": 105, "duration": 1799}, {"note": 59, "velocity": 100, "duration": 120}, {"note": 57, "velocity": 100, "duration": 120}, {"note": 59, "velocity": 114, "duration": 240}, {"note": 60, "velocity": 94, "duration": 120}, {"note": 57, "velocity": 114, "duration": 960}, {"note": 55, "velocity": 108, "duration": 360}, {"note": 57, "velocity": 105, "duration": 239}, {"note": 57, "velocity": 105, "duration": 240}, {"note": 52, "velocity": 87, "duration": 120}, {"note": 53, "velocity": 76, "duration": 1320}, {"note": 59, "velocity": 100, "duration": 239}, {"note": 59, "velocity": 102, "duration": 240}, {"note": 57, "velocity": 100, "duration": 120}, {"note": 55, "velocity": 100, "duration": 390}, {"note": 55, "velocity": 100, "duration": 30}, {"note": 0, "velocity": 0, "duration": 90}, {"note": 55, "velocity": 97, "duration": 120}, {"note": 57, "velocity": 102, "duration": 240}, {"note": 59, "velocity": 108, "duration": 240}, {"note": 52, "velocity": 114, "duration": 2160}, {"note": 55, "velocity": 102, "duration": 240}, {"note": 53, "velocity": 100, "duration": 240}, {"note": 52, "velocity": 94, "duration": 120}, {"note": 53, "velocity": 102, "duration": 600}, {"note": 52, "velocity": 111, "duration": 240}, {"note": 64, "velocity": 111, "duration": 239}, {"note": 64, "velocity": 108, "duration": 479}, {"note": 64, "velocity": 108, "duration": 240}, {"note": 62, "velocity": 100, "duration": 119}, {"note": 62, "velocity": 105, "duration": 240}, {"note": 60, "velocity": 105, "duration": 599}, {"note": 60, "velocity": 105, "duration": 120}, {"note": 59, "velocity": 108, "duration": 120}, {"note": 62, "velocity": 108, "duration": 360}, {"note": 57, "velocity": 108, "duration": 359}, {"note": 57, "velocity": 111, "duration": 119}, {"note": 57, "velocity": 82, "duration": 120}, {"note": 59, "velocity": 102, "duration": 240}, {"note": 59, "velocity": 102, "duration": 240}, {"note": 60, "velocity": 100, "duration": 240}, {"note": 59, "velocity": 97, "duration": 119}, {"note": 59, "velocity": 105, "duration": 360}, {"note": 57, "velocity": 100, "duration": 3600}, {"note": 65, "velocity": 97, "duration": 119}, {"note": 65, "velocity": 105, "duration": 119}, {"note": 65, "velocity": 108, "duration": 120}, {"note": 64, "velocity": 100, "duration": 120}, {"note": 65, "velocity": 111, "duration": 240}, {"note": 64, "velocity": 100, "duration": 119}, {"note": 64, "velocity": 108, "duration": 360}, {"note": 62, "velocity": 108, "duration": 359}, {"note": 62, "velocity": 100, "duration": 119}, {"note": 62, "velocity": 102, "duration": 119}, {"note": 62, "velocity": 100, "duration": 120}, {"note": 64, "velocity": 105, "duration": 239}, {"note": 64, "velocity": 102, "duration": 239}, {"note": 64, "velocity": 108, "duration": 240}, {"note": 62, "velocity": 97, "duration": 119}, {"note": 62, "velocity": 108, "duration": 360}, {"note": 60, "velocity": 111, "duration": 480}, {"note": 64, "velocity": 108, "duration": 120}, {"note": 60, "velocity": 102, "duration": 120}, {"note": 62, "velocity": 100, "duration": 119}, {"note": 62, "velocity": 89, "duration": 119}, {"note": 62, "velocity": 102, "duration": 239}, {"note": 62, "velocity": 111, "duration": 240}, {"note": 57, "velocity": 108, "duration": 120}, {"note": 59, "velocity": 111, "duration": 240}, {"note": 59, "velocity": 111, "duration": 600}, {"note": 57, "velocity": 117, "duration": 120}, {"note": 59, "velocity": 111, "duration": 120}, {"note": 60, "velocity": 114, "duration": 239}, {"note": 60, "velocity": 94, "duration": 119}, {"note": 60, "velocity": 105, "duration": 119}, {"note": 60, "velocity": 111, "duration": 240}, {"note": 62, "velocity": 100, "duration": 120}, {"note": 64, "velocity": 108, "duration": 1080}, {"note": 65, "velocity": 102, "duration": 119}, {"note": 65, "velocity": 100, "duration": 119}, {"note": 65, "velocity": 105, "duration": 120}, {"note": 64, "velocity": 94, "duration": 120}, {"note": 65, "velocity": 111, "duration": 239}, {"note": 65, "velocity": 100, "duration": 120}, {"note": 67, "velocity": 111, "duration": 360}, {"note": 62, "velocity": 114, "duration": 359}, {"note": 62, "velocity": 89, "duration": 119}, {"note": 62, "velocity": 92, "duration": 119}, {"note": 62, "velocity": 108, "duration": 120}, {"note": 64, "velocity": 111, "duration": 119}, {"note": 64, "velocity": 102, "duration": 240}, {"note": 67, "velocity": 117, "duration": 360}, {"note": 64, "velocity": 97, "duration": 240}, {"note": 62, "velocity": 111, "duration": 240}, {"note": 60, "velocity": 111, "duration": 480}, {"note": 60, "velocity": 111, "duration": 119}, {"note": 60, "velocity": 102, "duration": 120}, {"note": 62, "velocity": 105, "duration": 119}, {"note": 62, "velocity": 100, "duration": 239}, {"note": 62, "velocity": 92, "duration": 119}, {"note": 62, "velocity": 105, "duration": 240}, {"note": 60, "velocity": 100, "duration": 120}, {"note": 59, "velocity": 108, "duration": 360}, {"note": 59, "velocity": 94, "duration": 119}, {"note": 59, "velocity": 94, "duration": 119}, {"note": 59, "velocity": 92, "duration": 119}, {"note": 59, "velocity": 105, "duration": 239}, {"note": 59, "velocity": 100, "duration": 120}, {"note": 60, "velocity": 111, "duration": 240}, {"note": 59, "velocity": 105, "duration": 480}, {"note": 57, "velocity": 108, "duration": 1279}, {"note": 0, "velocity": 0, "duration": 20321}, {"note": 59, "velocity": 100, "duration": 120}, {"note": 57, "velocity": 100, "duration": 120}, {"note": 59, "velocity": 114, "duration": 240}, {"note": 60, "velocity": 94, "duration": 120}, {"note": 57, "velocity": 114, "duration": 960}, {"note": 55, "velocity": 108, "duration": 360}, {"note": 57, "velocity": 105, "duration": 239}, {"note": 57, "velocity": 105, "duration": 240}, {"note": 52, "velocity": 87, "duration": 120}, {"note": 53, "velocity": 76, "duration": 1320}, {"note": 59, "velocity": 100, "duration": 239}, {"note": 59, "velocity": 102, "duration": 240}, {"note": 57, "velocity": 100, "duration": 120}, {"note": 55, "velocity": 100, "duration": 390}, {"note": 55, "velocity": 100, "duration": 30}, {"note": 0, "velocity": 0, "duration": 90}, {"note": 55, "velocity": 97, "duration": 120}, {"note": 57, "velocity": 102, "duration": 240}, {"note": 59, "velocity": 108, "duration": 240}, {"note": 52, "velocity": 114, "duration": 2160}, {"note": 55, "velocity": 102, "duration": 240}, {"note": 53, "velocity": 100, "duration": 240}, {"note": 52, "velocity": 94, "duration": 120}, {"note": 53, "velocity": 102, "duration": 600}, {"note": 52, "velocity": 111, "duration": 240}, {"note": 64, "velocity": 111, "duration": 239}, {"note": 64, "velocity": 108, "duration": 479}, {"note": 64, "velocity": 108, "duration": 240}, {"note": 62, "velocity": 100, "duration": 119}, {"note": 62, "velocity": 105, "duration": 240}, {"note": 60, "velocity": 105, "duration": 599}, {"note": 60, "velocity": 105, "duration": 120}, {"note": 59, "velocity": 108, "duration": 120}, {"note": 62, "velocity": 108, "duration": 360}, {"note": 57, "velocity": 108, "duration": 359}, {"note": 57, "velocity": 111, "duration": 120}, {"note": 59, "velocity": 82, "duration": 120}, {"note": 60, "velocity": 102, "duration": 359}, {"note": 60, "velocity": 100, "duration": 360}, {"note": 57, "velocity": 114, "duration": 240}, {"note": 59, "velocity": 111, "duration": 359}, {"note": 59, "velocity": 105, "duration": 1799}, {"note": 59, "velocity": 100, "duration": 120}, {"note": 57, "velocity": 100, "duration": 120}, {"note": 59, "velocity": 114, "duration": 240}, {"note": 60, "velocity": 94, "duration": 120}, {"note": 57, "velocity": 114, "duration": 960}, {"note": 55, "velocity": 108, "duration": 360}, {"note": 57, "velocity": 105, "duration": 239}, {"note": 57, "velocity": 105, "duration": 240}, {"note": 52, "velocity": 87, "duration": 120}, {"note": 53, "velocity": 76, "duration": 1320}, {"note": 59, "velocity": 100, "duration": 239}, {"note": 59, "velocity": 102, "duration": 240}, {"note": 57, "velocity": 100, "duration": 120}, {"note": 55, "velocity": 100, "duration": 390}, {"note": 55, "velocity": 100, "duration": 30}, {"note": 0, "velocity": 0, "duration": 90}, {"note": 55, "velocity": 97, "duration": 120}, {"note": 57, "velocity": 102, "duration": 240}, {"note": 59, "velocity": 108, "duration": 240}, {"note": 52, "velocity": 114, "duration": 2160}, {"note": 55, "velocity": 102, "duration": 240}, {"note": 53, "velocity": 100, "duration": 240}, {"note": 52, "velocity": 94, "duration": 120}, {"note": 53, "velocity": 102, "duration": 600}, {"note": 52, "velocity": 111, "duration": 240}, {"note": 64, "velocity": 111, "duration": 239}, {"note": 64, "velocity": 108, "duration": 479}, {"note": 64, "velocity": 108, "duration": 240}, {"note": 62, "velocity": 100, "duration": 119}, {"note": 62, "velocity": 105, "duration": 240}, {"note": 60, "velocity": 105, "duration": 599}, {"note": 60, "velocity": 105, "duration": 120}, {"note": 59, "velocity": 108, "duration": 120}, {"note": 62, "velocity": 108, "duration": 360}, {"note": 57, "velocity": 108, "duration": 359}, {"note": 57, "velocity": 111, "duration": 119}, {"note": 57, "velocity": 82, "duration": 120}, {"note": 59, "velocity": 102, "duration": 240}, {"note": 59, "velocity": 102, "duration": 240}, {"note": 60, "velocity": 100, "duration": 240}, {"note": 59, "velocity": 97, "duration": 119}, {"note": 59, "velocity": 105, "duration": 360}, {"note": 57, "velocity": 100, "duration": 3600}, {"note": 65, "velocity": 97, "duration": 119}, {"note": 65, "velocity": 105, "duration": 119}, {"note": 65, "velocity": 108, "duration": 120}, {"note": 64, "velocity": 100, "duration": 120}, {"note": 65, "velocity": 111, "duration": 240}, {"note": 64, "velocity": 100, "duration": 119}, {"note": 64, "velocity": 108, "duration": 360}, {"note": 62, "velocity": 108, "duration": 359}, {"note": 62, "velocity": 100, "duration": 119}, {"note": 62, "velocity": 102, "duration": 119}, {"note": 62, "velocity": 100, "duration": 120}, {"note": 64, "velocity": 105, "duration": 239}, {"note": 64, "velocity": 102, "duration": 239}, {"note": 64, "velocity": 108, "duration": 240}, {"note": 62, "velocity": 97, "duration": 119}, {"note": 62, "velocity": 108, "duration": 360}, {"note": 60, "velocity": 111, "duration": 480}, {"note": 64, "velocity": 108, "duration": 120}, {"note": 60, "velocity": 102, "duration": 120}, {"note": 62, "velocity": 100, "duration": 119}, {"note": 62, "velocity": 89, "duration": 119}, {"note": 62, "velocity": 102, "duration": 239}, {"note": 62, "velocity": 111, "duration": 240}, {"note": 57, "velocity": 108, "duration": 120}, {"note": 59, "velocity": 111, "duration": 240}, {"note": 59, "velocity": 111, "duration": 600}, {"note": 57, "velocity": 117, "duration": 120}, {"note": 59, "velocity": 111, "duration": 120}, {"note": 60, "velocity": 114, "duration": 239}, {"note": 60, "velocity": 94, "duration": 119}, {"note": 60, "velocity": 105, "duration": 119}, {"note": 60, "velocity": 111, "duration": 240}, {"note": 62, "velocity": 100, "duration": 120}, {"note": 64, "velocity": 108, "duration": 1080}, {"note": 65, "velocity": 102, "duration": 119}, {"note": 65, "velocity": 100, "duration": 119}, {"note": 65, "velocity": 105, "duration": 120}, {"note": 64, "velocity": 94, "duration": 120}, {"note": 65, "velocity": 111, "duration": 239}, {"note": 65, "velocity": 100, "duration": 120}, {"note": 67, "velocity": 111, "duration": 360}, {"note": 62, "velocity": 114, "duration": 359}, {"note": 62, "velocity": 89, "duration": 119}, {"note": 62, "velocity": 92, "duration": 119}, {"note": 62, "velocity": 108, "duration": 120}, {"note": 64, "velocity": 111, "duration": 119}, {"note": 64, "velocity": 102, "duration": 240}, {"note": 67, "velocity": 117, "duration": 360}, {"note": 64, "velocity": 97, "duration": 240}, {"note": 62, "velocity": 111, "duration": 240}, {"note": 60, "velocity": 111, "duration": 480}, {"note": 60, "velocity": 111, "duration": 119}, {"note": 60, "velocity": 102, "duration": 120}, {"note": 62, "velocity": 105, "duration": 119}, {"note": 62, "velocity": 100, "duration": 239}, {"note": 62, "velocity": 92, "duration": 119}, {"note": 62, "velocity": 105, "duration": 240}, {"note": 60, "velocity": 100, "duration": 120}, {"note": 59, "velocity": 108, "duration": 360}, {"note": 59, "velocity": 94, "duration": 119}, {"note": 59, "velocity": 94, "duration": 119}, {"note": 59, "velocity": 92, "duration": 119}, {"note": 59, "velocity": 105, "duration": 239}, {"note": 59, "velocity": 100, "duration": 120}, {"note": 60, "velocity": 111, "duration": 240}, {"note": 59, "velocity": 105, "duration": 480}, {"note": 57, "velocity": 108, "duration": 1205}, {"note": 65, "velocity": 97, "duration": 119}, {"note": 65, "velocity": 105, "duration": 119}, {"note": 65, "velocity": 108, "duration": 120}, {"note": 64, "velocity": 100, "duration": 120}, {"note": 65, "velocity": 111, "duration": 240}, {"note": 64, "velocity": 100, "duration": 119}, {"note": 64, "velocity": 108, "duration": 360}, {"note": 62, "velocity": 108, "duration": 359}, {"note": 62, "velocity": 100, "duration": 119}, {"note": 62, "velocity": 102, "duration": 119}, {"note": 62, "velocity": 100, "duration": 120}, {"note": 64, "velocity": 105, "duration": 239}, {"note": 64, "velocity": 102, "duration": 239}, {"note": 64, "velocity": 108, "duration": 240}, {"note": 62, "velocity": 97, "duration": 119}, {"note": 62, "velocity": 108, "duration": 360}, {"note": 60, "velocity": 111, "duration": 480}, {"note": 64, "velocity": 108, "duration": 120}, {"note": 60, "velocity": 102, "duration": 120}, {"note": 62, "velocity": 100, "duration": 119}, {"note": 62, "velocity": 89, "duration": 119}, {"note": 62, "velocity": 102, "duration": 239}, {"note": 62, "velocity": 111, "duration": 240}, {"note": 57, "velocity": 108, "duration": 120}, {"note": 59, "velocity": 111, "duration": 240}, {"note": 59, "velocity": 111, "duration": 600}, {"note": 57, "velocity": 117, "duration": 120}, {"note": 59, "velocity": 111, "duration": 120}, {"note": 60, "velocity": 114, "duration": 239}, {"note": 60, "velocity": 94, "duration": 119}, {"note": 60, "velocity": 105, "duration": 119}, {"note": 60, "velocity": 111, "duration": 240}, {"note": 62, "velocity": 100, "duration": 120}, {"note": 64, "velocity": 108, "duration": 1080}, {"note": 65, "velocity": 102, "duration": 119}, {"note": 65, "velocity": 100, "duration": 119}, {"note": 65, "velocity": 105, "duration": 120}, {"note": 64, "velocity": 94, "duration": 120}, {"note": 65, "velocity": 111, "duration": 239}, {"note": 65, "velocity": 100, "duration": 120}, {"note": 67, "velocity": 111, "duration": 360}, {"note": 62, "velocity": 114, "duration": 359}, {"note": 62, "velocity": 89, "duration": 119}, {"note": 62, "velocity": 92, "duration": 119}, {"note": 62, "velocity": 108, "duration": 120}, {"note": 64, "velocity": 111, "duration": 119}, {"note": 64, "velocity": 102, "duration": 240}, {"note": 67, "velocity": 117, "duration": 360}, {"note": 64, "velocity": 97, "duration": 240}, {"note": 62, "velocity": 111, "duration": 240}, {"note": 60, "velocity": 111, "duration": 480}, {"note": 60, "velocity": 111, "duration": 119}, {"note": 60, "velocity": 102, "duration": 120}, {"note": 62, "velocity": 105, "duration": 119}, {"note": 62, "velocity": 100, "duration": 239}, {"note": 62, "velocity": 92, "duration": 119}, {"note": 62, "velocity": 105, "duration": 240}, {"note": 60, "velocity": 100, "duration": 120}, {"note": 59, "velocity": 108, "duration": 360}, {"note": 59, "velocity": 94, "duration": 119}, {"note": 59, "velocity": 94, "duration": 119}, {"note": 59, "velocity": 92, "duration": 119}, {"note": 59, "velocity": 105, "duration": 239}, {"note": 59, "velocity": 100, "duration": 120}, {"note": 60, "velocity": 111, "duration": 240}, {"note": 59, "velocity": 105, "duration": 480}, {"note": 57, "velocity": 108, "duration": 1279}]]