[[{"note": 55, "velocity": 87, "duration": 228}, {"note": 67, "velocity": 87, "duration": 228}, {"note": 63, "velocity": 90, "duration": 163}, {"note": 0, "velocity": 0, "duration": 77}, {"note": 63, "velocity": 105, "duration": 159}, {"note": 0, "velocity": 0, "duration": 81}, {"note": 62, "velocity": 100, "duration": 137}, {"note": 0, "velocity": 0, "duration": 103}, {"note": 60, "velocity": 102, "duration": 334}, {"note": 0, "velocity": 0, "duration": 146}, {"note": 55, "velocity": 100, "duration": 139}, {"note": 0, "velocity": 0, "duration": 101}, {"note": 55, "velocity": 100, "duration": 135}, {"note": 0, "velocity": 0, "duration": 105}, {"note": 55, "velocity": 94, "duration": 153}, {"note": 0, "velocity": 0, "duration": 87}, {"note": 62, "velocity": 97, "duration": 132}, {"note": 0, "velocity": 0, "duration": 108}, {"note": 62, "velocity": 102, "duration": 135}, {"note": 0, "velocity": 0, "duration": 105}, {"note": 60, "velocity": 94, "duration": 166}, {"note": 0, "velocity": 0, "duration": 74}, {"note": 58, "velocity": 99, "duration": 398}, {"note": 0, "velocity": 0, "duration": 562}, {"note": 60, "velocity": 89, "duration": 178}, {"note": 0, "velocity": 0, "duration": 62}, {"note": 58, "velocity": 102, "duration": 120}, {"note": 0, "velocity": 0, "duration": 120}, {"note": 58, "velocity": 87, "duration": 138}, {"note": 0, "velocity": 0, "duration": 102}, {"note": 56, "velocity": 102, "duration": 168}, {"note": 0, "velocity": 0, "duration": 72}, {"note": 58, "velocity": 99, "duration": 261}, {"note": 0, "velocity": 0, "duration": 219}, {"note": 51, "velocity": 85, "duration": 154}, {"note": 0, "velocity": 0, "duration": 86}, {"note": 51, "velocity": 87, "duration": 144}, {"note": 0, "velocity": 0, "duration": 96}, {"note": 55, "velocity": 94, "duration": 143}, {"note": 0, "velocity": 0, "duration": 97}, {"note": 56, "velocity": 105, "duration": 168}, {"note": 0, "velocity": 0, "duration": 72}, {"note": 55, "velocity": 94, "duration": 108}, {"note": 0, "velocity": 0, "duration": 132}, {"note": 51, "velocity": 105, "duration": 151}, {"note": 0, "velocity": 0, "duration": 89}, {"note": 53, "velocity": 100, "duration": 381}, {"note": 0, "velocity": 0, "duration": 99}, {"note": 53, "velocity": 97, "duration": 300}, {"note": 0, "velocity": 0, "duration": 180}, {"note": 51, "velocity": 85, "duration": 218}, {"note": 63, "velocity": 85, "duration": 218}, {"note": 63, "velocity": 87, "duration": 168}, {"note": 0, "velocity": 0, "duration": 72}, {"note": 63, "velocity": 93, "duration": 137}, {"note": 0, "velocity": 0, "duration": 103}, {"note": 62, "velocity": 94, "duration": 166}, {"note": 0, "velocity": 0, "duration": 74}, {"note": 60, "velocity": 89, "duration": 283}, {"note": 0, "velocity": 0, "duration": 197}, {"note": 55, "velocity": 92, "duration": 139}, {"note": 0, "velocity": 0, "duration": 101}, {"note": 55, "velocity": 84, "duration": 127}, {"note": 0, "velocity": 0, "duration": 113}, {"note": 55, "velocity": 92, "duration": 146}, {"note": 0, "velocity": 0, "duration": 94}, {"note": 62, "velocity": 97, "duration": 125}, {"note": 0, "velocity": 0, "duration": 115}, {"note": 62, "velocity": 100, "duration": 137}, {"note": 0, "velocity": 0, "duration": 103}, {"note": 60, "velocity": 87, "duration": 142}, {"note": 0, "velocity": 0, "duration": 98}, {"note": 58, "velocity": 105, "duration": 348}, {"note": 0, "velocity": 0, "duration": 612}, {"note": 60, "velocity": 92, "duration": 166}, {"note": 0, "velocity": 0, "duration": 74}, {"note": 58, "velocity": 99, "duration": 135}, {"note": 0, "velocity": 0, "duration": 105}, {"note": 58, "velocity": 93, "duration": 146}, {"note": 0, "velocity": 0, "duration": 94}, {"note": 56, "velocity": 102, "duration": 154}, {"note": 0, "velocity": 0, "duration": 86}, {"note": 58, "velocity": 109, "duration": 266}, {"note": 0, "velocity": 0, "duration": 214}, {"note": 51, "velocity": 93, "duration": 133}, {"note": 0, "velocity": 0, "duration": 107}, {"note": 51, "velocity": 105, "duration": 130}, {"note": 0, "velocity": 0, "duration": 110}, {"note": 56, "velocity": 100, "duration": 276}, {"note": 0, "velocity": 0, "duration": 684}, {"note": 55, "velocity": 100, "duration": 276}, {"note": 0, "velocity": 0, "duration": 204}, {"note": 50, "velocity": 100, "duration": 343}, {"note": 0, "velocity": 0, "duration": 137}, {"note": 51, "velocity": 93, "duration": 609}, {"note": 0, "velocity": 0, "duration": 3231}, {"note": 60, "velocity": 102, "duration": 156}, {"note": 0, "velocity": 0, "duration": 84}, {"note": 67, "velocity": 92, "duration": 144}, {"note": 0, "velocity": 0, "duration": 96}, {"note": 67, "velocity": 97, "duration": 146}, {"note": 0, "velocity": 0, "duration": 94}, {"note": 65, "velocity": 94, "duration": 106}, {"note": 0, "velocity": 0, "duration": 134}, {"note": 67, "velocity": 97, "duration": 372}, {"note": 0, "velocity": 0, "duration": 108}, {"note": 67, "velocity": 102, "duration": 288}, {"note": 0, "velocity": 0, "duration": 192}, {"note": 60, "velocity": 92, "duration": 163}, {"note": 0, "velocity": 0, "duration": 77}, {"note": 65, "velocity": 89, "duration": 120}, {"note": 0, "velocity": 0, "duration": 120}, {"note": 65, "velocity": 94, "duration": 129}, {"note": 0, "velocity": 0, "duration": 111}, {"note": 63, "velocity": 93, "duration": 161}, {"note": 0, "velocity": 0, "duration": 79}, {"note": 65, "velocity": 97, "duration": 640}, {"note": 0, "velocity": 0, "duration": 320}, {"note": 60, "velocity": 102, "duration": 190}, {"note": 65, "velocity": 97, "duration": 132}, {"note": 0, "velocity": 0, "duration": 108}, {"note": 65, "velocity": 94, "duration": 127}, {"note": 0, "velocity": 0, "duration": 113}, {"note": 63, "velocity": 96, "duration": 149}, {"note": 0, "velocity": 0, "duration": 91}, {"note": 65, "velocity": 97, "duration": 336}, {"note": 0, "velocity": 0, "duration": 144}, {"note": 65, "velocity": 97, "duration": 281}, {"note": 0, "velocity": 0, "duration": 199}, {"note": 65, "velocity": 105, "duration": 135}, {"note": 0, "velocity": 0, "duration": 105}, {"note": 65, "velocity": 100, "duration": 103}, {"note": 0, "velocity": 0, "duration": 137}, {"note": 65, "velocity": 94, "duration": 115}, {"note": 0, "velocity": 0, "duration": 125}, {"note": 67, "velocity": 105, "duration": 149}, {"note": 0, "velocity": 0, "duration": 91}, {"note": 63, "velocity": 99, "duration": 191}, {"note": 60, "velocity": 111, "duration": 618}, {"note": 0, "velocity": 0, "duration": 102}, {"note": 60, "velocity": 102, "duration": 156}, {"note": 0, "velocity": 0, "duration": 84}, {"note": 67, "velocity": 92, "duration": 144}, {"note": 0, "velocity": 0, "duration": 96}, {"note": 67, "velocity": 97, "duration": 146}, {"note": 0, "velocity": 0, "duration": 94}, {"note": 65, "velocity": 94, "duration": 106}, {"note": 0, "velocity": 0, "duration": 134}, {"note": 67, "velocity": 97, "duration": 372}, {"note": 0, "velocity": 0, "duration": 108}, {"note": 67, "velocity": 102, "duration": 288}, {"note": 0, "velocity": 0, "duration": 192}, {"note": 60, "velocity": 92, "duration": 163}, {"note": 0, "velocity": 0, "duration": 77}, {"note": 65, "velocity": 89, "duration": 120}, {"note": 0, "velocity": 0, "duration": 120}, {"note": 65, "velocity": 94, "duration": 129}, {"note": 0, "velocity": 0, "duration": 111}, {"note": 63, "velocity": 93, "duration": 161}, {"note": 0, "velocity": 0, "duration": 79}, {"note": 65, "velocity": 97, "duration": 640}, {"note": 0, "velocity": 0, "duration": 320}, {"note": 60, "velocity": 102, "duration": 190}, {"note": 65, "velocity": 97, "duration": 132}, {"note": 0, "velocity": 0, "duration": 108}, {"note": 65, "velocity": 94, "duration": 127}, {"note": 0, "velocity": 0, "duration": 113}, {"note": 63, "velocity": 96, "duration": 149}, {"note": 0, "velocity": 0, "duration": 91}, {"note": 65, "velocity": 97, "duration": 336}, {"note": 0, "velocity": 0, "duration": 144}, {"note": 65, "velocity": 97, "duration": 281}, {"note": 0, "velocity": 0, "duration": 199}, {"note": 65, "velocity": 105, "duration": 135}, {"note": 0, "velocity": 0, "duration": 105}, {"note": 65, "velocity": 100, "duration": 103}, {"note": 0, "velocity": 0, "duration": 137}, {"note": 65, "velocity": 94, "duration": 132}, {"note": 0, "velocity": 0, "duration": 108}, {"note": 65, "velocity": 97, "duration": 125}, {"note": 0, "velocity": 0, "duration": 115}, {"note": 65, "velocity": 100, "duration": 123}, {"note": 0, "velocity": 0, "duration": 117}, {"note": 67, "velocity": 105, "duration": 118}, {"note": 0, "velocity": 0, "duration": 122}, {"note": 68, "velocity": 105, "duration": 257}, {"note": 0, "velocity": 0, "duration": 223}, {"note": 67, "velocity": 100, "duration": 142}, {"note": 0, "velocity": 0, "duration": 98}, {"note": 65, "velocity": 100, "duration": 1531}, {"note": 0, "velocity": 0, "duration": 629}, {"note": 63, "velocity": 109, "duration": 166}, {"note": 0, "velocity": 0, "duration": 74}, {"note": 65, "velocity": 94, "duration": 139}, {"note": 0, "velocity": 0, "duration": 101}, {"note": 63, "velocity": 105, "duration": 179}, {"note": 0, "velocity": 0, "duration": 61}, {"note": 60, "velocity": 100, "duration": 1735}, {"note": 0, "velocity": 0, "duration": 13385}, {"note": 55, "velocity": 87, "duration": 228}, {"note": 63, "velocity": 90, "duration": 163}, {"note": 0, "velocity": 0, "duration": 77}, {"note": 63, "velocity": 105, "duration": 159}, {"note": 0, "velocity": 0, "duration": 81}, {"note": 62, "velocity": 100, "duration": 137}, {"note": 0, "velocity": 0, "duration": 103}, {"note": 60, "velocity": 102, "duration": 334}, {"note": 0, "velocity": 0, "duration": 146}, {"note": 55, "velocity": 100, "duration": 139}, {"note": 0, "velocity": 0, "duration": 101}, {"note": 55, "velocity": 100, "duration": 135}, {"note": 0, "velocity": 0, "duration": 105}, {"note": 55, "velocity": 94, "duration": 153}, {"note": 0, "velocity": 0, "duration": 87}, {"note": 62, "velocity": 97, "duration": 132}, {"note": 0, "velocity": 0, "duration": 108}, {"note": 62, "velocity": 102, "duration": 135}, {"note": 0, "velocity": 0, "duration": 105}, {"note": 60, "velocity": 94, "duration": 166}, {"note": 0, "velocity": 0, "duration": 74}, {"note": 58, "velocity": 99, "duration": 398}, {"note": 0, "velocity": 0, "duration": 562}, {"note": 60, "velocity": 89, "duration": 178}, {"note": 0, "velocity": 0, "duration": 62}, {"note": 58, "velocity": 102, "duration": 120}, {"note": 0, "velocity": 0, "duration": 120}, {"note": 58, "velocity": 87, "duration": 138}, {"note": 0, "velocity": 0, "duration": 102}, {"note": 56, "velocity": 102, "duration": 168}, {"note": 0, "velocity": 0, "duration": 72}, {"note": 58, "velocity": 99, "duration": 261}, {"note": 0, "velocity": 0, "duration": 219}, {"note": 51, "velocity": 85, "duration": 154}, {"note": 0, "velocity": 0, "duration": 86}, {"note": 51, "velocity": 87, "duration": 144}, {"note": 0, "velocity": 0, "duration": 96}, {"note": 55, "velocity": 94, "duration": 143}, {"note": 0, "velocity": 0, "duration": 97}, {"note": 56, "velocity": 105, "duration": 168}, {"note": 0, "velocity": 0, "duration": 72}, {"note": 55, "velocity": 94, "duration": 108}, {"note": 0, "velocity": 0, "duration": 132}, {"note": 51, "velocity": 105, "duration": 151}, {"note": 0, "velocity": 0, "duration": 89}, {"note": 53, "velocity": 100, "duration": 381}, {"note": 0, "velocity": 0, "duration": 99}, {"note": 53, "velocity": 97, "duration": 300}, {"note": 0, "velocity": 0, "duration": 180}, {"note": 51, "velocity": 85, "duration": 218}, {"note": 63, "velocity": 85, "duration": 218}, {"note": 63, "velocity": 87, "duration": 168}, {"note": 0, "velocity": 0, "duration": 72}, {"note": 63, "velocity": 93, "duration": 137}, {"note": 0, "velocity": 0, "duration": 103}, {"note": 62, "velocity": 94, "duration": 166}, {"note": 0, "velocity": 0, "duration": 74}, {"note": 60, "velocity": 89, "duration": 283}, {"note": 0, "velocity": 0, "duration": 197}, {"note": 55, "velocity": 92, "duration": 139}, {"note": 0, "velocity": 0, "duration": 101}, {"note": 55, "velocity": 84, "duration": 127}, {"note": 0, "velocity": 0, "duration": 113}, {"note": 55, "velocity": 92, "duration": 146}, {"note": 0, "velocity": 0, "duration": 94}, {"note": 62, "velocity": 97, "duration": 125}, {"note": 0, "velocity": 0, "duration": 115}, {"note": 62, "velocity": 100, "duration": 137}, {"note": 0, "velocity": 0, "duration": 103}, {"note": 60, "velocity": 87, "duration": 142}, {"note": 0, "velocity": 0, "duration": 98}, {"note": 58, "velocity": 105, "duration": 348}, {"note": 0, "velocity": 0, "duration": 612}, {"note": 60, "velocity": 92, "duration": 166}, {"note": 0, "velocity": 0, "duration": 74}, {"note": 58, "velocity": 99, "duration": 135}, {"note": 0, "velocity": 0, "duration": 105}, {"note": 58, "velocity": 93, "duration": 146}, {"note": 0, "velocity": 0, "duration": 94}, {"note": 56, "velocity": 102, "duration": 154}, {"note": 0, "velocity": 0, "duration": 86}, {"note": 58, "velocity": 109, "duration": 266}, {"note": 0, "velocity": 0, "duration": 214}, {"note": 51, "velocity": 93, "duration": 133}, {"note": 0, "velocity": 0, "duration": 107}, {"note": 51, "velocity": 105, "duration": 130}, {"note": 0, "velocity": 0, "duration": 110}, {"note": 56, "velocity": 100, "duration": 276}, {"note": 0, "velocity": 0, "duration": 684}, {"note": 55, "velocity": 100, "duration": 276}, {"note": 0, "velocity": 0, "duration": 204}, {"note": 50, "velocity": 100, "duration": 343}, {"note": 0, "velocity": 0, "duration": 137}, {"note": 51, "velocity": 93, "duration": 609}, {"note": 0, "velocity": 0, "duration": 3231}, {"note": 60, "velocity": 102, "duration": 156}, {"note": 0, "velocity": 0, "duration": 84}, {"note": 67, "velocity": 92, "duration": 144}, {"note": 0, "velocity": 0, "duration": 96}, {"note": 67, "velocity": 97, "duration": 146}, {"note": 0, "velocity": 0, "duration": 94}, {"note": 65, "velocity": 94, "duration": 106}, {"note": 0, "velocity": 0, "duration": 134}, {"note": 67, "velocity": 97, "duration": 372}, {"note": 0, "velocity": 0, "duration": 108}, {"note": 67, "velocity": 102, "duration": 288}, {"note": 0, "velocity": 0, "duration": 192}, {"note": 60, "velocity": 92, "duration": 163}, {"note": 0, "velocity": 0, "duration": 77}, {"note": 65, "velocity": 89, "duration": 120}, {"note": 0, "velocity": 0, "duration": 120}, {"note": 65, "velocity": 94, "duration": 129}, {"note": 0, "velocity": 0, "duration": 111}, {"note": 63, "velocity": 93, "duration": 161}, {"note": 0, "velocity": 0, "duration": 79}, {"note": 65, "velocity": 97, "duration": 640}, {"note": 0, "velocity": 0, "duration": 320}, {"note": 60, "velocity": 102, "duration": 190}, {"note": 65, "velocity": 97, "duration": 132}, {"note": 0, "velocity": 0, "duration": 108}, {"note": 65, "velocity": 94, "duration": 127}, {"note": 0, "velocity": 0, "duration": 113}, {"note": 63, "velocity": 96, "duration": 149}, {"note": 0, "velocity": 0, "duration": 91}, {"note": 65, "velocity": 97, "duration": 336}, {"note": 0, "velocity": 0, "duration": 144}, {"note": 65, "velocity": 97, "duration": 281}, {"note": 0, "velocity": 0, "duration": 199}, {"note": 65, "velocity": 105, "duration": 135}, {"note": 0, "velocity": 0, "duration": 105}, {"note": 65, "velocity": 100, "duration": 103}, {"note": 0, "velocity": 0, "duration": 137}, {"note": 65, "velocity": 94, "duration": 115}, {"note": 0, "velocity": 0, "duration": 125}, {"note": 67, "velocity": 105, "duration": 149}, {"note": 0, "velocity": 0, "duration": 91}, {"note": 63, "velocity": 99, "duration": 191}, {"note": 60, "velocity": 111, "duration": 618}, {"note": 0, "velocity": 0, "duration": 102}, {"note": 60, "velocity": 102, "duration": 156}, {"note": 0, "velocity": 0, "duration": 84}, {"note": 67, "velocity": 92, "duration": 144}, {"note": 0, "velocity": 0, "duration": 96}, {"note": 67, "velocity": 97, "duration": 146}, {"note": 0, "velocity": 0, "duration": 94}, {"note": 65, "velocity": 94, "duration": 106}, {"note": 0, "velocity": 0, "duration": 134}, {"note": 67, "velocity": 97, "duration": 372}, {"note": 0, "velocity": 0, "duration": 108}, {"note": 67, "velocity": 102, "duration": 288}, {"note": 0, "velocity": 0, "duration": 192}, {"note": 60, "velocity": 92, "duration": 163}, {"note": 0, "velocity": 0, "duration": 77}, {"note": 65, "velocity": 89, "duration": 120}, {"note": 0, "velocity": 0, "duration": 120}, {"note": 65, "velocity": 94, "duration": 129}, {"note": 0, "velocity": 0, "duration": 111}, {"note": 63, "velocity": 93, "duration": 161}, {"note": 0, "velocity": 0, "duration": 79}, {"note": 65, "velocity": 97, "duration": 640}, {"note": 0, "velocity": 0, "duration": 320}, {"note": 60, "velocity": 102, "duration": 190}, {"note": 65, "velocity": 97, "duration": 132}, {"note": 0, "velocity": 0, "duration": 108}, {"note": 65, "velocity": 94, "duration": 127}, {"note": 0, "velocity": 0, "duration": 113}, {"note": 63, "velocity": 96, "duration": 149}, {"note": 0, "velocity": 0, "duration": 91}, {"note": 65, "velocity": 97, "duration": 336}, {"note": 0, "velocity": 0, "duration": 144}, {"note": 65, "velocity": 97, "duration": 281}, {"note": 0, "velocity": 0, "duration": 199}, {"note": 65, "velocity": 105, "duration": 135}, {"note": 0, "velocity": 0, "duration": 105}, {"note": 65, "velocity": 100, "duration": 103}, {"note": 0, "velocity": 0, "duration": 137}, {"note": 65, "velocity": 94, "duration": 132}, {"note": 0, "velocity": 0, "duration": 108}, {"note": 65, "velocity": 97, "duration": 125}, {"note": 0, "velocity": 0, "duration": 115}, {"note": 65, "velocity": 100, "duration": 123}, {"note": 0, "velocity": 0, "duration": 117}, {"note": 67, "velocity": 105, "duration": 118}, {"note": 0, "velocity": 0, "duration": 122}, {"note": 68, "velocity": 105, "duration": 257}, {"note": 0, "velocity": 0, "duration": 223}, {"note": 67, "velocity": 100, "duration": 142}, {"note": 0, "velocity": 0, "duration": 98}, {"note": 65, "velocity": 100, "duration": 1531}, {"note": 0, "velocity": 0, "duration": 629}, {"note": 63, "velocity": 109, "duration": 166}, {"note": 0, "velocity": 0, "duration": 74}, {"note": 65, "velocity": 94, "duration": 139}, {"note": 0, "velocity": 0, "duration": 101}, {"note": 63, "velocity": 105, "duration": 179}, {"note": 0, "velocity": 0, "duration": 61}, {"note": 60, "velocity": 100, "duration": 1735}, {"note": 0, "velocity": 0, "duration": 425}, {"note": 63, "velocity": 99, "duration": 197}, {"note": 65, "velocity": 87, "duration": 121}, {"note": 0, "velocity": 0, "duration": 119}, {"note": 67, "velocity": 60, "duration": 149}, {"note": 0, "velocity": 0, "duration": 91}, {"note": 65, "velocity": 100, "duration": 762}, {"note": 0, "velocity": 0, "duration": 438}, {"note": 63, "velocity": 105, "duration": 166}, {"note": 0, "velocity": 0, "duration": 74}, {"note": 65, "velocity": 92, "duration": 117}, {"note": 0, "velocity": 0, "duration": 123}, {"note": 63, "velocity": 102, "duration": 235}, {"note": 60, "velocity": 108, "duration": 743}, {"note": 0, "velocity": 0, "duration": 457}, {"note": 63, "velocity": 99, "duration": 173}, {"note": 0, "velocity": 0, "duration": 67}, {"note": 65, "velocity": 94, "duration": 147}, {"note": 0, "velocity": 0, "duration": 93}, {"note": 67, "velocity": 87, "duration": 147}, {"note": 0, "velocity": 0, "duration": 93}, {"note": 65, "velocity": 94, "duration": 822}, {"note": 0, "velocity": 0, "duration": 138}, {"note": 63, "velocity": 99, "duration": 139}, {"note": 0, "velocity": 0, "duration": 101}, {"note": 65, "velocity": 89, "duration": 120}, {"note": 0, "velocity": 0, "duration": 120}, {"note": 63, "velocity": 102, "duration": 163}, {"note": 0, "velocity": 0, "duration": 77}, {"note": 65, "velocity": 92, "duration": 374}, {"note": 0, "velocity": 0, "duration": 106}, {"note": 63, "velocity": 105, "duration": 400}, {"note": 0, "velocity": 0, "duration": 80}, {"note": 67, "velocity": 102, "duration": 1602}, {"note": 0, "velocity": 0, "duration": 2238}, {"note": 60, "velocity": 102, "duration": 156}, {"note": 0, "velocity": 0, "duration": 84}, {"note": 67, "velocity": 92, "duration": 144}, {"note": 0, "velocity": 0, "duration": 96}, {"note": 67, "velocity": 97, "duration": 146}, {"note": 0, "velocity": 0, "duration": 94}, {"note": 65, "velocity": 94, "duration": 106}, {"note": 0, "velocity": 0, "duration": 134}, {"note": 67, "velocity": 97, "duration": 372}, {"note": 0, "velocity": 0, "duration": 108}, {"note": 67, "velocity": 102, "duration": 288}, {"note": 0, "velocity": 0, "duration": 192}, {"note": 60, "velocity": 92, "duration": 163}, {"note": 0, "velocity": 0, "duration": 77}, {"note": 65, "velocity": 89, "duration": 120}, {"note": 0, "velocity": 0, "duration": 120}, {"note": 65, "velocity": 94, "duration": 129}, {"note": 0, "velocity": 0, "duration": 111}, {"note": 63, "velocity": 93, "duration": 161}, {"note": 0, "velocity": 0, "duration": 79}, {"note": 65, "velocity": 97, "duration": 640}, {"note": 0, "velocity": 0, "duration": 320}, {"note": 60, "velocity": 102, "duration": 190}, {"note": 65, "velocity": 97, "duration": 132}, {"note": 0, "velocity": 0, "duration": 108}, {"note": 65, "velocity": 94, "duration": 127}, {"note": 0, "velocity": 0, "duration": 113}, {"note": 63, "velocity": 96, "duration": 149}, {"note": 0, "velocity": 0, "duration": 91}, {"note": 65, "velocity": 97, "duration": 336}, {"note": 0, "velocity": 0, "duration": 144}, {"note": 65, "velocity": 97, "duration": 281}, {"note": 0, "velocity": 0, "duration": 199}, {"note": 65, "velocity": 105, "duration": 135}, {"note": 0, "velocity": 0, "duration": 105}, {"note": 65, "velocity": 100, "duration": 103}, {"note": 0, "velocity": 0, "duration": 137}, {"note": 65, "velocity": 94, "duration": 115}, {"note": 0, "velocity": 0, "duration": 125}, {"note": 67, "velocity": 105, "duration": 149}, {"note": 0, "velocity": 0, "duration": 91}, {"note": 63, "velocity": 99, "duration": 191}, {"note": 60, "velocity": 111, "duration": 618}, {"note": 0, "velocity": 0, "duration": 102}, {"note": 60, "velocity": 102, "duration": 156}, {"note": 0, "velocity": 0, "duration": 84}, {"note": 67, "velocity": 92, "duration": 144}, {"note": 0, "velocity": 0, "duration": 96}, {"note": 67, "velocity": 97, "duration": 146}, {"note": 0, "velocity": 0, "duration": 94}, {"note": 65, "velocity": 94, "duration": 106}, {"note": 0, "velocity": 0, "duration": 134}, {"note": 67, "velocity": 97, "duration": 372}, {"note": 0, "velocity": 0, "duration": 108}, {"note": 67, "velocity": 102, "duration": 288}, {"note": 0, "velocity": 0, "duration": 192}, {"note": 60, "velocity": 92, "duration": 163}, {"note": 0, "velocity": 0, "duration": 77}, {"note": 65, "velocity": 89, "duration": 120}, {"note": 0, "velocity": 0, "duration": 120}, {"note": 65, "velocity": 94, "duration": 129}, {"note": 0, "velocity": 0, "duration": 111}, {"note": 63, "velocity": 93, "duration": 161}, {"note": 0, "velocity": 0, "duration": 79}, {"note": 65, "velocity": 97, "duration": 640}, {"note": 0, "velocity": 0, "duration": 320}, {"note": 60, "velocity": 102, "duration": 190}, {"note": 65, "velocity": 97, "duration": 132}, {"note": 0, "velocity": 0, "duration": 108}, {"note": 65, "velocity": 94, "duration": 127}, {"note": 0, "velocity": 0, "duration": 113}, {"note": 63, "velocity": 96, "duration": 149}, {"note": 0, "velocity": 0, "duration": 91}, {"note": 65, "velocity": 97, "duration": 336}, {"note": 0, "velocity": 0, "duration": 144}, {"note": 65, "velocity": 97, "duration": 281}, {"note": 0, "velocity": 0, "duration": 199}, {"note": 65, "velocity": 105, "duration": 135}, {"note": 0, "velocity": 0, "duration": 105}, {"note": 65, "velocity": 100, "duration": 103}, {"note": 0, "velocity": 0, "duration": 137}, {"note": 65, "velocity": 94, "duration": 115}, {"note": 0, "velocity": 0, "duration": 125}, {"note": 67, "velocity": 105, "duration": 149}, {"note": 0, "velocity": 0, "duration": 91}, {"note": 63, "velocity": 99, "duration": 191}, {"note": 60, "velocity": 111, "duration": 618}, {"note": 0, "velocity": 0, "duration": 102}, {"note": 60, "velocity": 102, "duration": 156}, {"note": 0, "velocity": 0, "duration": 84}, {"note": 67, "velocity": 92, "duration": 144}, {"note": 0, "velocity": 0, "duration": 96}, {"note": 67, "velocity": 97, "duration": 146}, {"note": 0, "velocity": 0, "duration": 94}, {"note": 65, "velocity": 94, "duration": 106}, {"note": 0, "velocity": 0, "duration": 134}, {"note": 67, "velocity": 97, "duration": 372}, {"note": 0, "velocity": 0, "duration": 108}, {"note": 67, "velocity": 102, "duration": 288}, {"note": 0, "velocity": 0, "duration": 192}, {"note": 60, "velocity": 92, "duration": 163}, {"note": 0, "velocity": 0, "duration": 77}, {"note": 65, "velocity": 89, "duration": 120}, {"note": 0, "velocity": 0, "duration": 120}, {"note": 65, "velocity": 94, "duration": 129}, {"note": 0, "velocity": 0, "duration": 111}, {"note": 63, "velocity": 93, "duration": 161}, {"note": 0, "velocity": 0, "duration": 79}, {"note": 65, "velocity": 97, "duration": 640}, {"note": 0, "velocity": 0, "duration": 320}, {"note": 60, "velocity": 102, "duration": 190}, {"note": 65, "velocity": 97, "duration": 132}, {"note": 0, "velocity": 0, "duration": 108}, {"note": 65, "velocity": 94, "duration": 127}, {"note": 0, "velocity": 0, "duration": 113}, {"note": 63, "velocity": 96, "duration": 149}, {"note": 0, "velocity": 0, "duration": 91}, {"note": 65, "velocity": 97, "duration": 336}, {"note": 0, "velocity": 0, "duration": 144}, {"note": 65, "velocity": 97, "duration": 281}, {"note": 0, "velocity": 0, "duration": 199}, {"note": 65, "velocity": 105, "duration": 135}, {"note": 0, "velocity": 0, "duration": 105}, {"note": 65, "velocity": 100, "duration": 103}, {"note": 0, "velocity": 0, "duration": 137}, {"note": 65, "velocity": 94, "duration": 115}, {"note": 0, "velocity": 0, "duration": 125}, {"note": 67, "velocity": 105, "duration": 149}, {"note": 0, "velocity": 0, "duration": 91}, {"note": 63, "velocity": 99, "duration": 191}, {"note": 60, "velocity": 111, "duration": 618}, {"note": 0, "velocity": 0, "duration": 102}, {"note": 60, "velocity": 102, "duration": 156}, {"note": 0, "velocity": 0, "duration": 84}, {"note": 67, "velocity": 92, "duration": 144}, {"note": 0, "velocity": 0, "duration": 96}, {"note": 67, "velocity": 97, "duration": 146}, {"note": 0, "velocity": 0, "duration": 94}, {"note": 65, "velocity": 94, "duration": 106}, {"note": 0, "velocity": 0, "duration": 134}, {"note": 67, "velocity": 97, "duration": 372}, {"note": 0, "velocity": 0, "duration": 108}, {"note": 67, "velocity": 102, "duration": 288}, {"note": 0, "velocity": 0, "duration": 192}, {"note": 60, "velocity": 92, "duration": 163}, {"note": 0, "velocity": 0, "duration": 77}, {"note": 65, "velocity": 89, "duration": 120}, {"note": 0, "velocity": 0, "duration": 120}, {"note": 65, "velocity": 94, "duration": 129}, {"note": 0, "velocity": 0, "duration": 111}, {"note": 63, "velocity": 93, "duration": 161}, {"note": 0, "velocity": 0, "duration": 79}, {"note": 65, "velocity": 97, "duration": 640}, {"note": 0, "velocity": 0, "duration": 320}, {"note": 60, "velocity": 102, "duration": 190}, {"note": 65, "velocity": 97, "duration": 132}, {"note": 0, "velocity": 0, "duration": 108}, {"note": 65, "velocity": 94, "duration": 127}, {"note": 0, "velocity": 0, "duration": 113}, {"note": 63, "velocity": 96, "duration": 149}, {"note": 0, "velocity": 0, "duration": 91}, {"note": 65, "velocity": 97, "duration": 336}, {"note": 0, "velocity": 0, "duration": 144}, {"note": 65, "velocity": 97, "duration": 281}, {"note": 0, "velocity": 0, "duration": 199}, {"note": 65, "velocity": 105, "duration": 135}, {"note": 0, "velocity": 0, "duration": 105}, {"note": 65, "velocity": 100, "duration": 103}, {"note": 0, "velocity": 0, "duration": 137}, {"note": 65, "velocity": 94, "duration": 132}, {"note": 0, "velocity": 0, "duration": 108}, {"note": 65, "velocity": 97, "duration": 125}, {"note": 0, "velocity": 0, "duration": 115}, {"note": 65, "velocity": 100, "duration": 123}, {"note": 0, "velocity": 0, "duration": 117}, {"note": 67, "velocity": 105, "duration": 118}, {"note": 0, "velocity": 0, "duration": 122}, {"note": 68, "velocity": 105, "duration": 257}, {"note": 0, "velocity": 0, "duration": 223}, {"note": 67, "velocity": 100, "duration": 142}, {"note": 0, "velocity": 0, "duration": 98}, {"note": 65, "velocity": 100, "duration": 1531}, {"note": 0, "velocity": 0, "duration": 1109}, {"note": 63, "velocity": 109, "duration": 391}, {"note": 0, "velocity": 0, "duration": 89}, {"note": 65, "velocity": 97, "duration": 345}, {"note": 0, "velocity": 0, "duration": 135}, {"note": 63, "velocity": 109, "duration": 144}, {"note": 0, "velocity": 0, "duration": 96}, {"note": 60, "velocity": 89, "duration": 1533}]]