[[{"note": 62, "velocity": 94, "duration": 119}, {"note": 62, "velocity": 92, "duration": 119}, {"note": 62, "velocity": 92, "duration": 119}, {"note": 62, "velocity": 102, "duration": 480}, {"note": 59, "velocity": 100, "duration": 120}, {"note": 64, "velocity": 102, "duration": 240}, {"note": 62, "velocity": 105, "duration": 240}, {"note": 59, "velocity": 108, "duration": 120}, {"note": 57, "velocity": 102, "duration": 120}, {"note": 55, "velocity": 102, "duration": 240}, {"note": 57, "velocity": 117, "duration": 1200}, {"note": 62, "velocity": 108, "duration": 240}, {"note": 64, "velocity": 105, "duration": 240}, {"note": 66, "velocity": 105, "duration": 240}, {"note": 67, "velocity": 102, "duration": 239}, {"note": 67, "velocity": 94, "duration": 119}, {"note": 67, "velocity": 108, "duration": 479}, {"note": 67, "velocity": 92, "duration": 120}, {"note": 69, "velocity": 105, "duration": 240}, {"note": 67, "velocity": 108, "duration": 240}, {"note": 66, "velocity": 112, "duration": 240}, {"note": 59, "velocity": 108, "duration": 240}, {"note": 64, "velocity": 102, "duration": 243}, {"note": 62, "velocity": 105, "duration": 959}, {"note": 62, "velocity": 102, "duration": 240}, {"note": 67, "velocity": 100, "duration": 240}, {"note": 62, "velocity": 102, "duration": 240}, {"note": 64, "velocity": 105, "duration": 360}, {"note": 67, "velocity": 108, "duration": 275}, {"note": 64, "velocity": 105, "duration": 239}, {"note": 64, "velocity": 92, "duration": 120}, {"note": 62, "velocity": 100, "duration": 239}, {"note": 62, "velocity": 100, "duration": 120}, {"note": 69, "velocity": 100, "duration": 240}, {"note": 62, "velocity": 87, "duration": 119}, {"note": 62, "velocity": 100, "duration": 120}, {"note": 59, "velocity": 100, "duration": 120}, {"note": 62, "velocity": 69, "duration": 239}, {"note": 62, "velocity": 89, "duration": 119}, {"note": 62, "velocity": 92, "duration": 120}, {"note": 69, "velocity": 100, "duration": 240}, {"note": 66, "velocity": 102, "duration": 120}, {"note": 67, "velocity": 105, "duration": 600}, {"note": 59, "velocity": 100, "duration": 120}, {"note": 57, "velocity": 108, "duration": 120}, {"note": 55, "velocity": 100, "duration": 120}, {"note": 59, "velocity": 108, "duration": 240}, {"note": 57, "velocity": 97, "duration": 720}, {"note": 55, "velocity": 92, "duration": 120}, {"note": 59, "velocity": 97, "duration": 240}, {"note": 57, "velocity": 102, "duration": 239}, {"note": 57, "velocity": 111, "duration": 240}, {"note": 55, "velocity": 102, "duration": 240}, {"note": 59, "velocity": 92, "duration": 720}, {"note": 57, "velocity": 108, "duration": 239}, {"note": 57, "velocity": 102, "duration": 960}, {"note": 62, "velocity": 94, "duration": 119}, {"note": 62, "velocity": 92, "duration": 119}, {"note": 62, "velocity": 92, "duration": 119}, {"note": 62, "velocity": 102, "duration": 480}, {"note": 59, "velocity": 100, "duration": 120}, {"note": 64, "velocity": 102, "duration": 240}, {"note": 62, "velocity": 105, "duration": 240}, {"note": 59, "velocity": 108, "duration": 120}, {"note": 57, "velocity": 102, "duration": 120}, {"note": 55, "velocity": 102, "duration": 240}, {"note": 57, "velocity": 117, "duration": 1200}, {"note": 62, "velocity": 108, "duration": 240}, {"note": 64, "velocity": 105, "duration": 240}, {"note": 66, "velocity": 105, "duration": 240}, {"note": 67, "velocity": 102, "duration": 239}, {"note": 67, "velocity": 94, "duration": 119}, {"note": 67, "velocity": 108, "duration": 479}, {"note": 67, "velocity": 92, "duration": 120}, {"note": 69, "velocity": 105, "duration": 240}, {"note": 67, "velocity": 108, "duration": 240}, {"note": 66, "velocity": 112, "duration": 240}, {"note": 59, "velocity": 108, "duration": 240}, {"note": 64, "velocity": 102, "duration": 243}, {"note": 62, "velocity": 105, "duration": 959}, {"note": 62, "velocity": 102, "duration": 240}, {"note": 67, "velocity": 100, "duration": 240}, {"note": 62, "velocity": 102, "duration": 240}, {"note": 64, "velocity": 105, "duration": 360}, {"note": 67, "velocity": 108, "duration": 275}, {"note": 64, "velocity": 105, "duration": 239}, {"note": 64, "velocity": 92, "duration": 120}, {"note": 62, "velocity": 100, "duration": 239}, {"note": 62, "velocity": 100, "duration": 120}, {"note": 69, "velocity": 100, "duration": 240}, {"note": 62, "velocity": 87, "duration": 119}, {"note": 62, "velocity": 100, "duration": 120}, {"note": 59, "velocity": 100, "duration": 120}, {"note": 62, "velocity": 69, "duration": 239}, {"note": 62, "velocity": 89, "duration": 119}, {"note": 62, "velocity": 92, "duration": 120}, {"note": 69, "velocity": 100, "duration": 240}, {"note": 66, "velocity": 102, "duration": 120}, {"note": 67, "velocity": 105, "duration": 600}, {"note": 59, "velocity": 100, "duration": 120}, {"note": 57, "velocity": 108, "duration": 120}, {"note": 55, "velocity": 100, "duration": 120}, {"note": 59, "velocity": 108, "duration": 240}, {"note": 57, "velocity": 97, "duration": 720}, {"note": 55, "velocity": 92, "duration": 120}, {"note": 59, "velocity": 97, "duration": 240}, {"note": 57, "velocity": 102, "duration": 239}, {"note": 57, "velocity": 111, "duration": 240}, {"note": 55, "velocity": 102, "duration": 239}, {"note": 55, "velocity": 92, "duration": 1440}, {"note": 59, "velocity": 117, "duration": 240}, {"note": 62, "velocity": 108, "duration": 240}, {"note": 64, "velocity": 97, "duration": 120}, {"note": 63, "velocity": 109, "duration": 120}, {"note": 64, "velocity": 89, "duration": 120}, {"note": 63, "velocity": 109, "duration": 120}, {"note": 64, "velocity": 92, "duration": 120}, {"note": 63, "velocity": 109, "duration": 120}, {"note": 64, "velocity": 97, "duration": 119}, {"note": 64, "velocity": 105, "duration": 120}, {"note": 66, "velocity": 89, "duration": 120}, {"note": 64, "velocity": 102, "duration": 120}, {"note": 66, "velocity": 84, "duration": 120}, {"note": 64, "velocity": 105, "duration": 120}, {"note": 66, "velocity": 92, "duration": 120}, {"note": 64, "velocity": 89, "duration": 120}, {"note": 66, "velocity": 109, "duration": 120}, {"note": 64, "velocity": 94, "duration": 120}, {"note": 67, "velocity": 97, "duration": 120}, {"note": 66, "velocity": 59, "duration": 120}, {"note": 67, "velocity": 84, "duration": 120}, {"note": 66, "velocity": 77, "duration": 120}, {"note": 67, "velocity": 87, "duration": 120}, {"note": 69, "velocity": 108, "duration": 240}, {"note": 67, "velocity": 100, "duration": 840}, {"note": 64, "velocity": 94, "duration": 120}, {"note": 66, "velocity": 102, "duration": 120}, {"note": 67, "velocity": 108, "duration": 240}, {"note": 66, "velocity": 93, "duration": 239}, {"note": 66, "velocity": 112, "duration": 240}, {"note": 64, "velocity": 97, "duration": 119}, {"note": 64, "velocity": 100, "duration": 360}, {"note": 62, "velocity": 97, "duration": 240}, {"note": 57, "velocity": 105, "duration": 240}, {"note": 60, "velocity": 100, "duration": 120}, {"note": 59, "velocity": 102, "duration": 1559}, {"note": 59, "velocity": 117, "duration": 240}, {"note": 62, "velocity": 108, "duration": 240}, {"note": 64, "velocity": 97, "duration": 120}, {"note": 63, "velocity": 109, "duration": 120}, {"note": 64, "velocity": 89, "duration": 120}, {"note": 63, "velocity": 109, "duration": 120}, {"note": 64, "velocity": 92, "duration": 120}, {"note": 63, "velocity": 109, "duration": 120}, {"note": 64, "velocity": 97, "duration": 119}, {"note": 64, "velocity": 105, "duration": 120}, {"note": 66, "velocity": 89, "duration": 120}, {"note": 64, "velocity": 102, "duration": 120}, {"note": 66, "velocity": 84, "duration": 120}, {"note": 64, "velocity": 105, "duration": 120}, {"note": 66, "velocity": 92, "duration": 120}, {"note": 64, "velocity": 89, "duration": 120}, {"note": 66, "velocity": 109, "duration": 120}, {"note": 64, "velocity": 94, "duration": 120}, {"note": 67, "velocity": 97, "duration": 120}, {"note": 66, "velocity": 59, "duration": 120}, {"note": 67, "velocity": 84, "duration": 120}, {"note": 66, "velocity": 77, "duration": 120}, {"note": 67, "velocity": 87, "duration": 120}, {"note": 69, "velocity": 108, "duration": 240}, {"note": 71, "velocity": 100, "duration": 720}, {"note": 64, "velocity": 92, "duration": 120}, {"note": 67, "velocity": 89, "duration": 120}, {"note": 66, "velocity": 102, "duration": 120}, {"note": 67, "velocity": 108, "duration": 239}, {"note": 67, "velocity": 100, "duration": 239}, {"note": 67, "velocity": 105, "duration": 239}, {"note": 67, "velocity": 108, "duration": 119}, {"note": 67, "velocity": 94, "duration": 119}, {"note": 67, "velocity": 102, "duration": 240}, {"note": 66, "velocity": 105, "duration": 239}, {"note": 66, "velocity": 112, "duration": 240}, {"note": 64, "velocity": 108, "duration": 152}, {"note": 66, "velocity": 82, "duration": 1560}, {"note": 59, "velocity": 114, "duration": 240}, {"note": 63, "velocity": 109, "duration": 240}, {"note": 64, "velocity": 108, "duration": 480}, {"note": 59, "velocity": 108, "duration": 480}, {"note": 66, "velocity": 112, "duration": 240}, {"note": 64, "velocity": 89, "duration": 240}, {"note": 63, "velocity": 112, "duration": 240}, {"note": 64, "velocity": 105, "duration": 240}, {"note": 59, "velocity": 111, "duration": 240}, {"note": 66, "velocity": 109, "duration": 119}, {"note": 66, "velocity": 102, "duration": 240}, {"note": 68, "velocity": 99, "duration": 240}, {"note": 66, "velocity": 105, "duration": 600}, {"note": 59, "velocity": 111, "duration": 240}, {"note": 63, "velocity": 105, "duration": 240}, {"note": 64, "velocity": 102, "duration": 479}, {"note": 64, "velocity": 102, "duration": 480}, {"note": 66, "velocity": 96, "duration": 240}, {"note": 64, "velocity": 105, "duration": 240}, {"note": 63, "velocity": 102, "duration": 240}, {"note": 64, "velocity": 100, "duration": 240}, {"note": 66, "velocity": 108, "duration": 240}, {"note": 68, "velocity": 109, "duration": 119}, {"note": 68, "velocity": 102, "duration": 240}, {"note": 69, "velocity": 102, "duration": 240}, {"note": 68, "velocity": 109, "duration": 840}, {"note": 71, "velocity": 100, "duration": 239}, {"note": 71, "velocity": 102, "duration": 240}, {"note": 64, "velocity": 92, "duration": 239}, {"note": 64, "velocity": 97, "duration": 240}, {"note": 66, "velocity": 102, "duration": 239}, {"note": 66, "velocity": 102, "duration": 480}, {"note": 68, "velocity": 99, "duration": 240}, {"note": 71, "velocity": 97, "duration": 239}, {"note": 71, "velocity": 100, "duration": 240}, {"note": 63, "velocity": 102, "duration": 239}, {"note": 63, "velocity": 105, "duration": 240}, {"note": 64, "velocity": 89, "duration": 239}, {"note": 64, "velocity": 102, "duration": 479}, {"note": 64, "velocity": 105, "duration": 120}, {"note": 66, "velocity": 102, "duration": 120}, {"note": 68, "velocity": 109, "duration": 240}, {"note": 66, "velocity": 109, "duration": 360}, {"note": 64, "velocity": 102, "duration": 360}, {"note": 61, "velocity": 105, "duration": 720}, {"note": 64, "velocity": 94, "duration": 120}, {"note": 66, "velocity": 99, "duration": 120}, {"note": 68, "velocity": 105, "duration": 239}, {"note": 68, "velocity": 109, "duration": 360}, {"note": 66, "velocity": 102, "duration": 360}, {"note": 64, "velocity": 100, "duration": 239}, {"note": 64, "velocity": 102, "duration": 240}, {"note": 66, "velocity": 109, "duration": 240}, {"note": 59, "velocity": 114, "duration": 240}, {"note": 63, "velocity": 109, "duration": 240}, {"note": 64, "velocity": 108, "duration": 480}, {"note": 59, "velocity": 108, "duration": 480}, {"note": 66, "velocity": 112, "duration": 240}, {"note": 64, "velocity": 89, "duration": 240}, {"note": 63, "velocity": 112, "duration": 240}, {"note": 64, "velocity": 105, "duration": 240}, {"note": 59, "velocity": 111, "duration": 240}, {"note": 66, "velocity": 109, "duration": 119}, {"note": 66, "velocity": 102, "duration": 240}, {"note": 68, "velocity": 99, "duration": 240}, {"note": 66, "velocity": 105, "duration": 600}, {"note": 59, "velocity": 111, "duration": 240}, {"note": 63, "velocity": 105, "duration": 240}, {"note": 64, "velocity": 102, "duration": 479}, {"note": 64, "velocity": 102, "duration": 240}, {"note": 64, "velocity": 114, "duration": 240}, {"note": 66, "velocity": 96, "duration": 240}, {"note": 64, "velocity": 105, "duration": 120}, {"note": 63, "velocity": 102, "duration": 360}, {"note": 64, "velocity": 100, "duration": 240}, {"note": 66, "velocity": 108, "duration": 240}, {"note": 68, "velocity": 109, "duration": 119}, {"note": 68, "velocity": 102, "duration": 240}, {"note": 69, "velocity": 102, "duration": 240}, {"note": 68, "velocity": 109, "duration": 840}, {"note": 71, "velocity": 100, "duration": 239}, {"note": 71, "velocity": 102, "duration": 240}, {"note": 64, "velocity": 92, "duration": 239}, {"note": 64, "velocity": 97, "duration": 240}, {"note": 66, "velocity": 102, "duration": 239}, {"note": 66, "velocity": 102, "duration": 480}, {"note": 68, "velocity": 99, "duration": 240}, {"note": 71, "velocity": 97, "duration": 239}, {"note": 71, "velocity": 100, "duration": 240}, {"note": 63, "velocity": 102, "duration": 239}, {"note": 63, "velocity": 105, "duration": 240}, {"note": 64, "velocity": 89, "duration": 239}, {"note": 64, "velocity": 102, "duration": 479}, {"note": 64, "velocity": 105, "duration": 120}, {"note": 66, "velocity": 102, "duration": 120}, {"note": 68, "velocity": 109, "duration": 240}, {"note": 66, "velocity": 112, "duration": 240}, {"note": 64, "velocity": 102, "duration": 239}, {"note": 64, "velocity": 100, "duration": 240}, {"note": 61, "velocity": 105, "duration": 240}, {"note": 63, "velocity": 109, "duration": 239}, {"note": 63, "velocity": 92, "duration": 239}, {"note": 63, "velocity": 89, "duration": 240}, {"note": 64, "velocity": 109, "duration": 239}, {"note": 64, "velocity": 97, "duration": 815}, {"note": 0, "velocity": 0, "duration": 9745}, {"note": 62, "velocity": 94, "duration": 119}, {"note": 62, "velocity": 92, "duration": 119}, {"note": 62, "velocity": 92, "duration": 119}, {"note": 62, "velocity": 102, "duration": 480}, {"note": 59, "velocity": 100, "duration": 120}, {"note": 64, "velocity": 102, "duration": 240}, {"note": 62, "velocity": 105, "duration": 240}, {"note": 59, "velocity": 108, "duration": 120}, {"note": 57, "velocity": 102, "duration": 120}, {"note": 55, "velocity": 102, "duration": 240}, {"note": 57, "velocity": 117, "duration": 1200}, {"note": 62, "velocity": 108, "duration": 240}, {"note": 64, "velocity": 105, "duration": 240}, {"note": 66, "velocity": 105, "duration": 240}, {"note": 67, "velocity": 102, "duration": 239}, {"note": 67, "velocity": 94, "duration": 119}, {"note": 67, "velocity": 108, "duration": 479}, {"note": 67, "velocity": 92, "duration": 120}, {"note": 69, "velocity": 105, "duration": 240}, {"note": 67, "velocity": 108, "duration": 240}, {"note": 66, "velocity": 112, "duration": 240}, {"note": 59, "velocity": 108, "duration": 240}, {"note": 64, "velocity": 102, "duration": 243}, {"note": 62, "velocity": 105, "duration": 959}, {"note": 62, "velocity": 102, "duration": 240}, {"note": 67, "velocity": 100, "duration": 240}, {"note": 62, "velocity": 102, "duration": 240}, {"note": 64, "velocity": 105, "duration": 360}, {"note": 67, "velocity": 108, "duration": 275}, {"note": 64, "velocity": 105, "duration": 239}, {"note": 64, "velocity": 92, "duration": 120}, {"note": 62, "velocity": 100, "duration": 239}, {"note": 62, "velocity": 100, "duration": 120}, {"note": 69, "velocity": 100, "duration": 240}, {"note": 62, "velocity": 87, "duration": 119}, {"note": 62, "velocity": 100, "duration": 120}, {"note": 59, "velocity": 100, "duration": 120}, {"note": 62, "velocity": 69, "duration": 239}, {"note": 62, "velocity": 89, "duration": 119}, {"note": 62, "velocity": 92, "duration": 120}, {"note": 69, "velocity": 100, "duration": 240}, {"note": 66, "velocity": 102, "duration": 120}, {"note": 67, "velocity": 105, "duration": 600}, {"note": 59, "velocity": 100, "duration": 120}, {"note": 57, "velocity": 108, "duration": 120}, {"note": 55, "velocity": 100, "duration": 120}, {"note": 59, "velocity": 108, "duration": 240}, {"note": 57, "velocity": 97, "duration": 720}, {"note": 55, "velocity": 92, "duration": 120}, {"note": 59, "velocity": 97, "duration": 240}, {"note": 57, "velocity": 102, "duration": 239}, {"note": 57, "velocity": 111, "duration": 240}, {"note": 55, "velocity": 102, "duration": 239}, {"note": 55, "velocity": 92, "duration": 1440}, {"note": 59, "velocity": 117, "duration": 240}, {"note": 62, "velocity": 108, "duration": 240}, {"note": 64, "velocity": 97, "duration": 120}, {"note": 63, "velocity": 109, "duration": 120}, {"note": 64, "velocity": 89, "duration": 120}, {"note": 63, "velocity": 109, "duration": 120}, {"note": 64, "velocity": 92, "duration": 120}, {"note": 63, "velocity": 109, "duration": 120}, {"note": 64, "velocity": 97, "duration": 119}, {"note": 64, "velocity": 105, "duration": 120}, {"note": 66, "velocity": 89, "duration": 120}, {"note": 64, "velocity": 102, "duration": 120}, {"note": 66, "velocity": 84, "duration": 120}, {"note": 64, "velocity": 105, "duration": 120}, {"note": 66, "velocity": 92, "duration": 120}, {"note": 64, "velocity": 89, "duration": 120}, {"note": 66, "velocity": 109, "duration": 120}, {"note": 64, "velocity": 94, "duration": 120}, {"note": 67, "velocity": 97, "duration": 120}, {"note": 66, "velocity": 59, "duration": 120}, {"note": 67, "velocity": 84, "duration": 120}, {"note": 66, "velocity": 77, "duration": 120}, {"note": 67, "velocity": 87, "duration": 120}, {"note": 69, "velocity": 108, "duration": 240}, {"note": 67, "velocity": 100, "duration": 840}, {"note": 64, "velocity": 94, "duration": 120}, {"note": 66, "velocity": 102, "duration": 120}, {"note": 67, "velocity": 108, "duration": 240}, {"note": 66, "velocity": 93, "duration": 239}, {"note": 66, "velocity": 112, "duration": 240}, {"note": 64, "velocity": 97, "duration": 119}, {"note": 64, "velocity": 100, "duration": 360}, {"note": 62, "velocity": 97, "duration": 240}, {"note": 57, "velocity": 105, "duration": 240}, {"note": 60, "velocity": 100, "duration": 120}, {"note": 59, "velocity": 102, "duration": 1559}, {"note": 59, "velocity": 117, "duration": 240}, {"note": 62, "velocity": 108, "duration": 240}, {"note": 64, "velocity": 97, "duration": 120}, {"note": 63, "velocity": 109, "duration": 120}, {"note": 64, "velocity": 89, "duration": 120}, {"note": 63, "velocity": 109, "duration": 120}, {"note": 64, "velocity": 92, "duration": 120}, {"note": 63, "velocity": 109, "duration": 120}, {"note": 64, "velocity": 97, "duration": 119}, {"note": 64, "velocity": 105, "duration": 120}, {"note": 66, "velocity": 89, "duration": 120}, {"note": 64, "velocity": 102, "duration": 120}, {"note": 66, "velocity": 84, "duration": 120}, {"note": 64, "velocity": 105, "duration": 120}, {"note": 66, "velocity": 92, "duration": 120}, {"note": 64, "velocity": 89, "duration": 120}, {"note": 66, "velocity": 109, "duration": 120}, {"note": 64, "velocity": 94, "duration": 120}, {"note": 67, "velocity": 97, "duration": 120}, {"note": 66, "velocity": 59, "duration": 120}, {"note": 67, "velocity": 84, "duration": 120}, {"note": 66, "velocity": 77, "duration": 120}, {"note": 67, "velocity": 87, "duration": 120}, {"note": 69, "velocity": 108, "duration": 240}, {"note": 71, "velocity": 100, "duration": 720}, {"note": 64, "velocity": 92, "duration": 120}, {"note": 67, "velocity": 89, "duration": 120}, {"note": 66, "velocity": 102, "duration": 120}, {"note": 67, "velocity": 108, "duration": 239}, {"note": 67, "velocity": 100, "duration": 239}, {"note": 67, "velocity": 105, "duration": 239}, {"note": 67, "velocity": 108, "duration": 119}, {"note": 67, "velocity": 94, "duration": 119}, {"note": 67, "velocity": 102, "duration": 240}, {"note": 66, "velocity": 105, "duration": 239}, {"note": 66, "velocity": 112, "duration": 240}, {"note": 64, "velocity": 108, "duration": 152}, {"note": 66, "velocity": 82, "duration": 1560}, {"note": 59, "velocity": 114, "duration": 240}, {"note": 63, "velocity": 109, "duration": 240}, {"note": 64, "velocity": 108, "duration": 480}, {"note": 59, "velocity": 108, "duration": 480}, {"note": 66, "velocity": 112, "duration": 240}, {"note": 64, "velocity": 89, "duration": 240}, {"note": 63, "velocity": 112, "duration": 240}, {"note": 64, "velocity": 105, "duration": 240}, {"note": 59, "velocity": 111, "duration": 240}, {"note": 66, "velocity": 109, "duration": 119}, {"note": 66, "velocity": 102, "duration": 240}, {"note": 68, "velocity": 99, "duration": 240}, {"note": 66, "velocity": 105, "duration": 600}, {"note": 59, "velocity": 111, "duration": 240}, {"note": 63, "velocity": 105, "duration": 240}, {"note": 64, "velocity": 102, "duration": 479}, {"note": 64, "velocity": 102, "duration": 480}, {"note": 66, "velocity": 96, "duration": 240}, {"note": 64, "velocity": 105, "duration": 240}, {"note": 63, "velocity": 102, "duration": 240}, {"note": 64, "velocity": 100, "duration": 240}, {"note": 66, "velocity": 108, "duration": 240}, {"note": 68, "velocity": 109, "duration": 119}, {"note": 68, "velocity": 102, "duration": 240}, {"note": 69, "velocity": 102, "duration": 240}, {"note": 68, "velocity": 109, "duration": 840}, {"note": 71, "velocity": 100, "duration": 239}, {"note": 71, "velocity": 102, "duration": 240}, {"note": 64, "velocity": 92, "duration": 239}, {"note": 64, "velocity": 97, "duration": 240}, {"note": 66, "velocity": 102, "duration": 239}, {"note": 66, "velocity": 102, "duration": 480}, {"note": 68, "velocity": 99, "duration": 240}, {"note": 71, "velocity": 97, "duration": 239}, {"note": 71, "velocity": 100, "duration": 240}, {"note": 63, "velocity": 102, "duration": 239}, {"note": 63, "velocity": 105, "duration": 240}, {"note": 64, "velocity": 89, "duration": 239}, {"note": 64, "velocity": 102, "duration": 479}, {"note": 64, "velocity": 105, "duration": 120}, {"note": 66, "velocity": 102, "duration": 120}, {"note": 68, "velocity": 109, "duration": 240}, {"note": 66, "velocity": 109, "duration": 360}, {"note": 64, "velocity": 102, "duration": 360}, {"note": 61, "velocity": 105, "duration": 720}, {"note": 64, "velocity": 94, "duration": 120}, {"note": 66, "velocity": 99, "duration": 120}, {"note": 68, "velocity": 105, "duration": 239}, {"note": 68, "velocity": 109, "duration": 360}, {"note": 66, "velocity": 102, "duration": 360}, {"note": 64, "velocity": 100, "duration": 239}, {"note": 64, "velocity": 102, "duration": 240}, {"note": 66, "velocity": 109, "duration": 240}, {"note": 59, "velocity": 114, "duration": 240}, {"note": 63, "velocity": 109, "duration": 240}, {"note": 64, "velocity": 108, "duration": 480}, {"note": 59, "velocity": 108, "duration": 480}, {"note": 66, "velocity": 112, "duration": 240}, {"note": 64, "velocity": 89, "duration": 240}, {"note": 63, "velocity": 112, "duration": 240}, {"note": 64, "velocity": 105, "duration": 240}, {"note": 59, "velocity": 111, "duration": 240}, {"note": 66, "velocity": 109, "duration": 119}, {"note": 66, "velocity": 102, "duration": 240}, {"note": 68, "velocity": 99, "duration": 240}, {"note": 66, "velocity": 105, "duration": 600}, {"note": 59, "velocity": 111, "duration": 240}, {"note": 63, "velocity": 105, "duration": 240}, {"note": 64, "velocity": 102, "duration": 479}, {"note": 64, "velocity": 102, "duration": 240}, {"note": 64, "velocity": 114, "duration": 240}, {"note": 66, "velocity": 96, "duration": 240}, {"note": 64, "velocity": 105, "duration": 120}, {"note": 63, "velocity": 102, "duration": 360}, {"note": 64, "velocity": 100, "duration": 240}, {"note": 66, "velocity": 108, "duration": 240}, {"note": 68, "velocity": 109, "duration": 119}, {"note": 68, "velocity": 102, "duration": 240}, {"note": 69, "velocity": 102, "duration": 240}, {"note": 68, "velocity": 109, "duration": 840}, {"note": 71, "velocity": 100, "duration": 239}, {"note": 71, "velocity": 102, "duration": 240}, {"note": 64, "velocity": 92, "duration": 239}, {"note": 64, "velocity": 97, "duration": 240}, {"note": 66, "velocity": 102, "duration": 239}, {"note": 66, "velocity": 102, "duration": 480}, {"note": 68, "velocity": 99, "duration": 240}, {"note": 71, "velocity": 97, "duration": 239}, {"note": 71, "velocity": 100, "duration": 240}, {"note": 63, "velocity": 102, "duration": 239}, {"note": 63, "velocity": 105, "duration": 240}, {"note": 64, "velocity": 89, "duration": 239}, {"note": 64, "velocity": 102, "duration": 479}, {"note": 64, "velocity": 105, "duration": 120}, {"note": 66, "velocity": 102, "duration": 120}, {"note": 68, "velocity": 109, "duration": 240}, {"note": 66, "velocity": 112, "duration": 240}, {"note": 64, "velocity": 102, "duration": 239}, {"note": 64, "velocity": 100, "duration": 240}, {"note": 61, "velocity": 105, "duration": 240}, {"note": 63, "velocity": 109, "duration": 239}, {"note": 63, "velocity": 92, "duration": 239}, {"note": 63, "velocity": 89, "duration": 240}, {"note": 64, "velocity": 109, "duration": 239}, {"note": 64, "velocity": 97, "duration": 1637}]]