[[{"note": 64, "velocity": 100, "duration": 120}, {"note": 62, "velocity": 84, "duration": 120}, {"note": 64, "velocity": 94, "duration": 142}, {"note": 67, "velocity": 105, "duration": 120}, {"note": 60, "velocity": 111, "duration": 480}, {"note": 57, "velocity": 111, "duration": 480}, {"note": 55, "velocity": 105, "duration": 480}, {"note": 64, "velocity": 108, "duration": 120}, {"note": 62, "velocity": 82, "duration": 120}, {"note": 64, "velocity": 108, "duration": 120}, {"note": 67, "velocity": 114, "duration": 120}, {"note": 60, "velocity": 105, "duration": 480}, {"note": 69, "velocity": 117, "duration": 480}, {"note": 67, "velocity": 105, "duration": 480}, {"note": 69, "velocity": 111, "duration": 240}, {"note": 72, "velocity": 117, "duration": 240}, {"note": 64, "velocity": 111, "duration": 480}, {"note": 67, "velocity": 111, "duration": 240}, {"note": 69, "velocity": 111, "duration": 240}, {"note": 62, "velocity": 108, "duration": 360}, {"note": 64, "velocity": 92, "duration": 120}, {"note": 60, "velocity": 100, "duration": 240}, {"note": 57, "velocity": 111, "duration": 240}, {"note": 55, "velocity": 92, "duration": 1440}, {"note": 64, "velocity": 100, "duration": 120}, {"note": 62, "velocity": 84, "duration": 120}, {"note": 64, "velocity": 94, "duration": 142}, {"note": 67, "velocity": 105, "duration": 120}, {"note": 60, "velocity": 111, "duration": 480}, {"note": 57, "velocity": 111, "duration": 480}, {"note": 55, "velocity": 105, "duration": 480}, {"note": 64, "velocity": 108, "duration": 120}, {"note": 62, "velocity": 82, "duration": 120}, {"note": 64, "velocity": 108, "duration": 120}, {"note": 67, "velocity": 114, "duration": 120}, {"note": 60, "velocity": 105, "duration": 480}, {"note": 69, "velocity": 117, "duration": 480}, {"note": 67, "velocity": 105, "duration": 480}, {"note": 69, "velocity": 111, "duration": 240}, {"note": 72, "velocity": 117, "duration": 240}, {"note": 64, "velocity": 111, "duration": 480}, {"note": 67, "velocity": 111, "duration": 240}, {"note": 69, "velocity": 111, "duration": 240}, {"note": 62, "velocity": 108, "duration": 360}, {"note": 64, "velocity": 92, "duration": 120}, {"note": 55, "velocity": 105, "duration": 120}, {"note": 57, "velocity": 84, "duration": 120}, {"note": 55, "velocity": 97, "duration": 120}, {"note": 57, "velocity": 111, "duration": 120}, {"note": 60, "velocity": 108, "duration": 1440}, {"note": 64, "velocity": 102, "duration": 240}, {"note": 67, "velocity": 108, "duration": 240}, {"note": 69, "velocity": 108, "duration": 480}, {"note": 72, "velocity": 114, "duration": 240}, {"note": 69, "velocity": 108, "duration": 239}, {"note": 69, "velocity": 108, "duration": 480}, {"note": 64, "velocity": 114, "duration": 240}, {"note": 69, "velocity": 102, "duration": 240}, {"note": 67, "velocity": 114, "duration": 359}, {"note": 67, "velocity": 114, "duration": 120}, {"note": 69, "velocity": 105, "duration": 240}, {"note": 67, "velocity": 117, "duration": 120}, {"note": 64, "velocity": 94, "duration": 120}, {"note": 67, "velocity": 114, "duration": 479}, {"note": 67, "velocity": 111, "duration": 240}, {"note": 69, "velocity": 108, "duration": 240}, {"note": 72, "velocity": 108, "duration": 239}, {"note": 72, "velocity": 108, "duration": 239}, {"note": 72, "velocity": 111, "duration": 240}, {"note": 74, "velocity": 111, "duration": 240}, {"note": 72, "velocity": 111, "duration": 359}, {"note": 72, "velocity": 105, "duration": 120}, {"note": 69, "velocity": 117, "duration": 240}, {"note": 67, "velocity": 105, "duration": 120}, {"note": 69, "velocity": 108, "duration": 120}, {"note": 67, "velocity": 108, "duration": 1440}, {"note": 64, "velocity": 105, "duration": 240}, {"note": 67, "velocity": 108, "duration": 240}, {"note": 69, "velocity": 105, "duration": 479}, {"note": 69, "velocity": 111, "duration": 120}, {"note": 72, "velocity": 100, "duration": 120}, {"note": 69, "velocity": 108, "duration": 120}, {"note": 67, "velocity": 97, "duration": 120}, {"note": 69, "velocity": 100, "duration": 600}, {"note": 64, "velocity": 111, "duration": 120}, {"note": 69, "velocity": 105, "duration": 240}, {"note": 67, "velocity": 105, "duration": 479}, {"note": 67, "velocity": 108, "duration": 120}, {"note": 69, "velocity": 89, "duration": 120}, {"note": 67, "velocity": 105, "duration": 120}, {"note": 64, "velocity": 102, "duration": 120}, {"note": 67, "velocity": 111, "duration": 479}, {"note": 67, "velocity": 89, "duration": 240}, {"note": 69, "velocity": 105, "duration": 240}, {"note": 62, "velocity": 105, "duration": 479}, {"note": 62, "velocity": 102, "duration": 240}, {"note": 64, "velocity": 100, "duration": 240}, {"note": 60, "velocity": 111, "duration": 385}, {"note": 62, "velocity": 84, "duration": 121}, {"note": 60, "velocity": 92, "duration": 120}, {"note": 62, "velocity": 92, "duration": 120}, {"note": 60, "velocity": 78, "duration": 120}, {"note": 57, "velocity": 97, "duration": 120}, {"note": 55, "velocity": 111, "duration": 1440}, {"note": 64, "velocity": 100, "duration": 120}, {"note": 62, "velocity": 84, "duration": 120}, {"note": 64, "velocity": 94, "duration": 142}, {"note": 67, "velocity": 105, "duration": 120}, {"note": 60, "velocity": 111, "duration": 480}, {"note": 57, "velocity": 111, "duration": 480}, {"note": 55, "velocity": 105, "duration": 480}, {"note": 64, "velocity": 108, "duration": 120}, {"note": 62, "velocity": 82, "duration": 120}, {"note": 64, "velocity": 108, "duration": 120}, {"note": 67, "velocity": 114, "duration": 120}, {"note": 60, "velocity": 105, "duration": 480}, {"note": 69, "velocity": 117, "duration": 480}, {"note": 67, "velocity": 105, "duration": 480}, {"note": 69, "velocity": 111, "duration": 240}, {"note": 72, "velocity": 117, "duration": 240}, {"note": 64, "velocity": 111, "duration": 480}, {"note": 67, "velocity": 111, "duration": 240}, {"note": 69, "velocity": 111, "duration": 240}, {"note": 62, "velocity": 108, "duration": 360}, {"note": 64, "velocity": 92, "duration": 120}, {"note": 55, "velocity": 105, "duration": 120}, {"note": 57, "velocity": 84, "duration": 120}, {"note": 55, "velocity": 97, "duration": 120}, {"note": 57, "velocity": 111, "duration": 120}, {"note": 60, "velocity": 108, "duration": 1779}, {"note": 0, "velocity": 0, "duration": 7341}, {"note": 64, "velocity": 100, "duration": 120}, {"note": 62, "velocity": 84, "duration": 120}, {"note": 64, "velocity": 94, "duration": 142}, {"note": 67, "velocity": 105, "duration": 120}, {"note": 60, "velocity": 111, "duration": 480}, {"note": 57, "velocity": 111, "duration": 480}, {"note": 55, "velocity": 105, "duration": 480}, {"note": 64, "velocity": 108, "duration": 120}, {"note": 62, "velocity": 82, "duration": 120}, {"note": 64, "velocity": 108, "duration": 120}, {"note": 67, "velocity": 114, "duration": 120}, {"note": 60, "velocity": 105, "duration": 480}, {"note": 69, "velocity": 117, "duration": 480}, {"note": 67, "velocity": 105, "duration": 480}, {"note": 69, "velocity": 111, "duration": 240}, {"note": 72, "velocity": 117, "duration": 240}, {"note": 64, "velocity": 111, "duration": 480}, {"note": 67, "velocity": 111, "duration": 240}, {"note": 69, "velocity": 111, "duration": 240}, {"note": 62, "velocity": 108, "duration": 360}, {"note": 64, "velocity": 92, "duration": 120}, {"note": 60, "velocity": 100, "duration": 240}, {"note": 57, "velocity": 111, "duration": 240}, {"note": 55, "velocity": 92, "duration": 1440}, {"note": 64, "velocity": 100, "duration": 120}, {"note": 62, "velocity": 84, "duration": 120}, {"note": 64, "velocity": 94, "duration": 142}, {"note": 67, "velocity": 105, "duration": 120}, {"note": 60, "velocity": 111, "duration": 480}, {"note": 57, "velocity": 111, "duration": 480}, {"note": 55, "velocity": 105, "duration": 480}, {"note": 64, "velocity": 108, "duration": 120}, {"note": 62, "velocity": 82, "duration": 120}, {"note": 64, "velocity": 108, "duration": 120}, {"note": 67, "velocity": 114, "duration": 120}, {"note": 60, "velocity": 105, "duration": 480}, {"note": 69, "velocity": 117, "duration": 480}, {"note": 67, "velocity": 105, "duration": 480}, {"note": 69, "velocity": 111, "duration": 240}, {"note": 72, "velocity": 117, "duration": 240}, {"note": 64, "velocity": 111, "duration": 480}, {"note": 67, "velocity": 111, "duration": 240}, {"note": 69, "velocity": 111, "duration": 240}, {"note": 62, "velocity": 108, "duration": 360}, {"note": 64, "velocity": 92, "duration": 120}, {"note": 55, "velocity": 105, "duration": 120}, {"note": 57, "velocity": 84, "duration": 120}, {"note": 55, "velocity": 97, "duration": 120}, {"note": 57, "velocity": 111, "duration": 120}, {"note": 60, "velocity": 108, "duration": 1440}, {"note": 64, "velocity": 102, "duration": 240}, {"note": 67, "velocity": 108, "duration": 240}, {"note": 69, "velocity": 108, "duration": 480}, {"note": 72, "velocity": 114, "duration": 240}, {"note": 69, "velocity": 108, "duration": 239}, {"note": 69, "velocity": 108, "duration": 480}, {"note": 64, "velocity": 114, "duration": 240}, {"note": 69, "velocity": 102, "duration": 240}, {"note": 67, "velocity": 114, "duration": 359}, {"note": 67, "velocity": 114, "duration": 120}, {"note": 69, "velocity": 105, "duration": 240}, {"note": 67, "velocity": 117, "duration": 120}, {"note": 64, "velocity": 94, "duration": 120}, {"note": 67, "velocity": 114, "duration": 479}, {"note": 67, "velocity": 111, "duration": 240}, {"note": 69, "velocity": 108, "duration": 240}, {"note": 72, "velocity": 108, "duration": 239}, {"note": 72, "velocity": 108, "duration": 239}, {"note": 72, "velocity": 111, "duration": 240}, {"note": 74, "velocity": 111, "duration": 240}, {"note": 72, "velocity": 111, "duration": 359}, {"note": 72, "velocity": 105, "duration": 120}, {"note": 69, "velocity": 117, "duration": 240}, {"note": 67, "velocity": 105, "duration": 120}, {"note": 69, "velocity": 108, "duration": 120}, {"note": 67, "velocity": 108, "duration": 1440}, {"note": 64, "velocity": 105, "duration": 240}, {"note": 67, "velocity": 108, "duration": 240}, {"note": 69, "velocity": 105, "duration": 479}, {"note": 69, "velocity": 111, "duration": 120}, {"note": 72, "velocity": 100, "duration": 120}, {"note": 69, "velocity": 108, "duration": 120}, {"note": 67, "velocity": 97, "duration": 120}, {"note": 69, "velocity": 100, "duration": 600}, {"note": 64, "velocity": 111, "duration": 120}, {"note": 69, "velocity": 105, "duration": 240}, {"note": 67, "velocity": 105, "duration": 479}, {"note": 67, "velocity": 108, "duration": 120}, {"note": 69, "velocity": 89, "duration": 120}, {"note": 67, "velocity": 105, "duration": 120}, {"note": 64, "velocity": 102, "duration": 120}, {"note": 67, "velocity": 111, "duration": 479}, {"note": 67, "velocity": 89, "duration": 240}, {"note": 69, "velocity": 105, "duration": 240}, {"note": 62, "velocity": 105, "duration": 479}, {"note": 62, "velocity": 102, "duration": 240}, {"note": 64, "velocity": 100, "duration": 240}, {"note": 60, "velocity": 111, "duration": 385}, {"note": 62, "velocity": 84, "duration": 121}, {"note": 60, "velocity": 92, "duration": 120}, {"note": 62, "velocity": 92, "duration": 120}, {"note": 60, "velocity": 78, "duration": 120}, {"note": 57, "velocity": 97, "duration": 120}, {"note": 55, "velocity": 111, "duration": 1440}, {"note": 64, "velocity": 100, "duration": 120}, {"note": 62, "velocity": 84, "duration": 120}, {"note": 64, "velocity": 94, "duration": 142}, {"note": 67, "velocity": 105, "duration": 120}, {"note": 60, "velocity": 111, "duration": 480}, {"note": 57, "velocity": 111, "duration": 480}, {"note": 55, "velocity": 105, "duration": 480}, {"note": 64, "velocity": 108, "duration": 120}, {"note": 62, "velocity": 82, "duration": 120}, {"note": 64, "velocity": 108, "duration": 120}, {"note": 67, "velocity": 114, "duration": 120}, {"note": 60, "velocity": 105, "duration": 480}, {"note": 69, "velocity": 117, "duration": 480}, {"note": 67, "velocity": 105, "duration": 480}, {"note": 69, "velocity": 111, "duration": 240}, {"note": 72, "velocity": 117, "duration": 240}, {"note": 64, "velocity": 111, "duration": 480}, {"note": 67, "velocity": 111, "duration": 240}, {"note": 69, "velocity": 111, "duration": 240}, {"note": 62, "velocity": 108, "duration": 360}, {"note": 64, "velocity": 92, "duration": 120}, {"note": 55, "velocity": 105, "duration": 120}, {"note": 57, "velocity": 84, "duration": 120}, {"note": 55, "velocity": 97, "duration": 120}, {"note": 57, "velocity": 111, "duration": 120}, {"note": 60, "velocity": 108, "duration": 1516}, {"note": 0, "velocity": 0, "duration": 15284}, {"note": 64, "velocity": 102, "duration": 153}, {"note": 0, "velocity": 0, "duration": 87}, {"note": 67, "velocity": 108, "duration": 166}, {"note": 0, "velocity": 0, "duration": 74}, {"note": 69, "velocity": 108, "duration": 398}, {"note": 0, "velocity": 0, "duration": 82}, {"note": 72, "velocity": 114, "duration": 193}, {"note": 69, "velocity": 108, "duration": 179}, {"note": 0, "velocity": 0, "duration": 61}, {"note": 69, "velocity": 108, "duration": 394}, {"note": 0, "velocity": 0, "duration": 86}, {"note": 64, "velocity": 114, "duration": 196}, {"note": 69, "velocity": 102, "duration": 176}, {"note": 0, "velocity": 0, "duration": 64}, {"note": 67, "velocity": 114, "duration": 283}, {"note": 0, "velocity": 0, "duration": 77}, {"note": 67, "velocity": 114, "duration": 70}, {"note": 69, "velocity": 105, "duration": 172}, {"note": 0, "velocity": 0, "duration": 68}, {"note": 67, "velocity": 117, "duration": 74}, {"note": 64, "velocity": 94, "duration": 68}, {"note": 67, "velocity": 114, "duration": 315}, {"note": 0, "velocity": 0, "duration": 165}, {"note": 67, "velocity": 111, "duration": 138}, {"note": 0, "velocity": 0, "duration": 102}, {"note": 69, "velocity": 108, "duration": 147}, {"note": 0, "velocity": 0, "duration": 93}, {"note": 72, "velocity": 108, "duration": 144}, {"note": 0, "velocity": 0, "duration": 96}, {"note": 72, "velocity": 108, "duration": 121}, {"note": 0, "velocity": 0, "duration": 119}, {"note": 72, "velocity": 111, "duration": 147}, {"note": 0, "velocity": 0, "duration": 93}, {"note": 74, "velocity": 111, "duration": 147}, {"note": 0, "velocity": 0, "duration": 93}, {"note": 72, "velocity": 111, "duration": 260}, {"note": 0, "velocity": 0, "duration": 100}, {"note": 72, "velocity": 105, "duration": 76}, {"note": 69, "velocity": 117, "duration": 191}, {"note": 67, "velocity": 105, "duration": 78}, {"note": 69, "velocity": 108, "duration": 78}, {"note": 67, "velocity": 108, "duration": 1152}, {"note": 0, "velocity": 0, "duration": 288}, {"note": 64, "velocity": 105, "duration": 172}, {"note": 0, "velocity": 0, "duration": 68}, {"note": 67, "velocity": 108, "duration": 181}, {"note": 69, "velocity": 105, "duration": 368}, {"note": 0, "velocity": 0, "duration": 112}, {"note": 69, "velocity": 111, "duration": 81}, {"note": 72, "velocity": 100, "duration": 81}, {"note": 69, "velocity": 108, "duration": 68}, {"note": 67, "velocity": 97, "duration": 67}, {"note": 69, "velocity": 100, "duration": 326}, {"note": 0, "velocity": 0, "duration": 274}, {"note": 64, "velocity": 111, "duration": 95}, {"note": 69, "velocity": 105, "duration": 134}, {"note": 0, "velocity": 0, "duration": 106}, {"note": 67, "velocity": 105, "duration": 317}, {"note": 0, "velocity": 0, "duration": 163}, {"note": 67, "velocity": 108, "duration": 83}, {"note": 69, "velocity": 89, "duration": 72}, {"note": 67, "velocity": 105, "duration": 81}, {"note": 64, "velocity": 102, "duration": 72}, {"note": 67, "velocity": 111, "duration": 302}, {"note": 0, "velocity": 0, "duration": 178}, {"note": 67, "velocity": 89, "duration": 149}, {"note": 0, "velocity": 0, "duration": 91}, {"note": 69, "velocity": 105, "duration": 112}, {"note": 0, "velocity": 0, "duration": 128}, {"note": 62, "velocity": 105, "duration": 332}, {"note": 0, "velocity": 0, "duration": 148}, {"note": 62, "velocity": 102, "duration": 193}, {"note": 64, "velocity": 100, "duration": 191}, {"note": 60, "velocity": 111, "duration": 385}, {"note": 62, "velocity": 84, "duration": 121}, {"note": 60, "velocity": 92, "duration": 66}, {"note": 62, "velocity": 92, "duration": 74}, {"note": 60, "velocity": 78, "duration": 85}, {"note": 57, "velocity": 97, "duration": 63}, {"note": 55, "velocity": 111, "duration": 1317}, {"note": 0, "velocity": 0, "duration": 123}, {"note": 64, "velocity": 100, "duration": 106}, {"note": 62, "velocity": 84, "duration": 110}, {"note": 64, "velocity": 94, "duration": 142}, {"note": 67, "velocity": 105, "duration": 102}, {"note": 60, "velocity": 111, "duration": 368}, {"note": 0, "velocity": 0, "duration": 112}, {"note": 57, "velocity": 111, "duration": 404}, {"note": 0, "velocity": 0, "duration": 76}, {"note": 55, "velocity": 105, "duration": 353}, {"note": 0, "velocity": 0, "duration": 127}, {"note": 64, "velocity": 108, "duration": 87}, {"note": 62, "velocity": 82, "duration": 78}, {"note": 64, "velocity": 108, "duration": 79}, {"note": 67, "velocity": 114, "duration": 66}, {"note": 60, "velocity": 105, "duration": 362}, {"note": 0, "velocity": 0, "duration": 118}, {"note": 69, "velocity": 117, "duration": 404}, {"note": 0, "velocity": 0, "duration": 76}, {"note": 67, "velocity": 105, "duration": 309}, {"note": 0, "velocity": 0, "duration": 171}, {"note": 69, "velocity": 111, "duration": 168}, {"note": 0, "velocity": 0, "duration": 72}, {"note": 72, "velocity": 117, "duration": 112}, {"note": 0, "velocity": 0, "duration": 128}, {"note": 64, "velocity": 111, "duration": 379}, {"note": 0, "velocity": 0, "duration": 101}, {"note": 67, "velocity": 111, "duration": 144}, {"note": 0, "velocity": 0, "duration": 96}, {"note": 69, "velocity": 111, "duration": 151}, {"note": 0, "velocity": 0, "duration": 89}, {"note": 62, "velocity": 108, "duration": 358}, {"note": 64, "velocity": 92, "duration": 77}, {"note": 55, "velocity": 105, "duration": 78}, {"note": 57, "velocity": 84, "duration": 72}, {"note": 55, "velocity": 97, "duration": 100}, {"note": 57, "velocity": 111, "duration": 72}, {"note": 60, "velocity": 108, "duration": 1331}]]