[[{"note": 60, "velocity": 111, "duration": 125}, {"note": 62, "velocity": 97, "duration": 64}, {"note": 65, "velocity": 108, "duration": 73}, {"note": 67, "velocity": 100, "duration": 64}, {"note": 67, "velocity": 105, "duration": 229}, {"note": 69, "velocity": 97, "duration": 696}, {"note": 0, "velocity": 0, "duration": 384}, {"note": 60, "velocity": 94, "duration": 106}, {"note": 69, "velocity": 111, "duration": 83}, {"note": 67, "velocity": 114, "duration": 53}, {"note": 0, "velocity": 0, "duration": 67}, {"note": 67, "velocity": 100, "duration": 66}, {"note": 69, "velocity": 92, "duration": 79}, {"note": 67, "velocity": 108, "duration": 196}, {"note": 65, "velocity": 108, "duration": 563}, {"note": 0, "velocity": 0, "duration": 637}, {"note": 65, "velocity": 114, "duration": 70}, {"note": 67, "velocity": 108, "duration": 63}, {"note": 69, "velocity": 108, "duration": 56}, {"note": 0, "velocity": 0, "duration": 64}, {"note": 72, "velocity": 108, "duration": 79}, {"note": 74, "velocity": 102, "duration": 185}, {"note": 74, "velocity": 102, "duration": 69}, {"note": 74, "velocity": 114, "duration": 626}, {"note": 0, "velocity": 0, "duration": 334}, {"note": 74, "velocity": 97, "duration": 97}, {"note": 72, "velocity": 111, "duration": 104}, {"note": 70, "velocity": 105, "duration": 94}, {"note": 69, "velocity": 111, "duration": 69}, {"note": 70, "velocity": 109, "duration": 80}, {"note": 69, "velocity": 114, "duration": 898}, {"note": 0, "velocity": 0, "duration": 542}, {"note": 69, "velocity": 123, "duration": 182}, {"note": 72, "velocity": 111, "duration": 158}, {"note": 0, "velocity": 0, "duration": 82}, {"note": 74, "velocity": 105, "duration": 175}, {"note": 0, "velocity": 0, "duration": 65}, {"note": 74, "velocity": 100, "duration": 63}, {"note": 74, "velocity": 108, "duration": 718}, {"note": 0, "velocity": 0, "duration": 362}, {"note": 74, "velocity": 111, "duration": 168}, {"note": 0, "velocity": 0, "duration": 72}, {"note": 74, "velocity": 111, "duration": 76}, {"note": 69, "velocity": 111, "duration": 66}, {"note": 72, "velocity": 108, "duration": 367}, {"note": 0, "velocity": 0, "duration": 113}, {"note": 72, "velocity": 108, "duration": 199}, {"note": 74, "velocity": 105, "duration": 74}, {"note": 69, "velocity": 108, "duration": 656}, {"note": 0, "velocity": 0, "duration": 664}, {"note": 65, "velocity": 87, "duration": 169}, {"note": 0, "velocity": 0, "duration": 71}, {"note": 65, "velocity": 111, "duration": 228}, {"note": 62, "velocity": 105, "duration": 79}, {"note": 62, "velocity": 105, "duration": 183}, {"note": 65, "velocity": 97, "duration": 574}, {"note": 0, "velocity": 0, "duration": 146}, {"note": 62, "velocity": 108, "duration": 107}, {"note": 67, "velocity": 105, "duration": 1150}, {"note": 0, "velocity": 0, "duration": 290}, {"note": 60, "velocity": 111, "duration": 125}, {"note": 62, "velocity": 97, "duration": 64}, {"note": 65, "velocity": 108, "duration": 73}, {"note": 67, "velocity": 100, "duration": 64}, {"note": 67, "velocity": 105, "duration": 229}, {"note": 69, "velocity": 97, "duration": 696}, {"note": 0, "velocity": 0, "duration": 384}, {"note": 60, "velocity": 94, "duration": 106}, {"note": 69, "velocity": 111, "duration": 83}, {"note": 67, "velocity": 114, "duration": 53}, {"note": 0, "velocity": 0, "duration": 67}, {"note": 67, "velocity": 100, "duration": 66}, {"note": 69, "velocity": 92, "duration": 79}, {"note": 67, "velocity": 108, "duration": 196}, {"note": 65, "velocity": 108, "duration": 563}, {"note": 0, "velocity": 0, "duration": 637}, {"note": 65, "velocity": 114, "duration": 70}, {"note": 67, "velocity": 108, "duration": 63}, {"note": 69, "velocity": 108, "duration": 56}, {"note": 0, "velocity": 0, "duration": 64}, {"note": 72, "velocity": 108, "duration": 79}, {"note": 74, "velocity": 102, "duration": 185}, {"note": 74, "velocity": 102, "duration": 69}, {"note": 74, "velocity": 114, "duration": 626}, {"note": 0, "velocity": 0, "duration": 334}, {"note": 74, "velocity": 97, "duration": 97}, {"note": 72, "velocity": 111, "duration": 104}, {"note": 70, "velocity": 105, "duration": 94}, {"note": 69, "velocity": 111, "duration": 69}, {"note": 70, "velocity": 109, "duration": 80}, {"note": 69, "velocity": 114, "duration": 898}, {"note": 0, "velocity": 0, "duration": 542}, {"note": 69, "velocity": 123, "duration": 182}, {"note": 72, "velocity": 111, "duration": 158}, {"note": 0, "velocity": 0, "duration": 82}, {"note": 74, "velocity": 105, "duration": 175}, {"note": 0, "velocity": 0, "duration": 65}, {"note": 74, "velocity": 100, "duration": 63}, {"note": 74, "velocity": 108, "duration": 718}, {"note": 0, "velocity": 0, "duration": 362}, {"note": 74, "velocity": 111, "duration": 168}, {"note": 0, "velocity": 0, "duration": 72}, {"note": 74, "velocity": 111, "duration": 76}, {"note": 69, "velocity": 111, "duration": 66}, {"note": 72, "velocity": 108, "duration": 367}, {"note": 0, "velocity": 0, "duration": 113}, {"note": 72, "velocity": 108, "duration": 199}, {"note": 74, "velocity": 105, "duration": 74}, {"note": 69, "velocity": 108, "duration": 656}, {"note": 0, "velocity": 0, "duration": 664}, {"note": 65, "velocity": 87, "duration": 169}, {"note": 0, "velocity": 0, "duration": 71}, {"note": 65, "velocity": 111, "duration": 228}, {"note": 62, "velocity": 105, "duration": 79}, {"note": 69, "velocity": 105, "duration": 183}, {"note": 67, "velocity": 97, "duration": 574}, {"note": 69, "velocity": 108, "duration": 227}, {"note": 65, "velocity": 105, "duration": 1150}, {"note": 0, "velocity": 0, "duration": 1010}, {"note": 70, "velocity": 112, "duration": 165}, {"note": 0, "velocity": 0, "duration": 75}, {"note": 70, "velocity": 112, "duration": 170}, {"note": 0, "velocity": 0, "duration": 70}, {"note": 72, "velocity": 97, "duration": 79}, {"note": 69, "velocity": 108, "duration": 927}, {"note": 0, "velocity": 0, "duration": 393}, {"note": 67, "velocity": 105, "duration": 153}, {"note": 0, "velocity": 0, "duration": 87}, {"note": 67, "velocity": 111, "duration": 177}, {"note": 0, "velocity": 0, "duration": 63}, {"note": 65, "velocity": 100, "duration": 69}, {"note": 65, "velocity": 114, "duration": 626}, {"note": 0, "velocity": 0, "duration": 214}, {"note": 65, "velocity": 108, "duration": 65}, {"note": 64, "velocity": 105, "duration": 55}, {"note": 0, "velocity": 0, "duration": 65}, {"note": 62, "velocity": 105, "duration": 153}, {"note": 0, "velocity": 0, "duration": 87}, {"note": 62, "velocity": 94, "duration": 79}, {"note": 60, "velocity": 102, "duration": 89}, {"note": 62, "velocity": 102, "duration": 155}, {"note": 0, "velocity": 0, "duration": 85}, {"note": 62, "velocity": 114, "duration": 63}, {"note": 65, "velocity": 100, "duration": 57}, {"note": 0, "velocity": 0, "duration": 63}, {"note": 64, "velocity": 117, "duration": 50}, {"note": 0, "velocity": 0, "duration": 70}, {"note": 64, "velocity": 97, "duration": 62}, {"note": 64, "velocity": 94, "duration": 62}, {"note": 64, "velocity": 105, "duration": 196}, {"note": 0, "velocity": 0, "duration": 164}, {"note": 62, "velocity": 111, "duration": 56}, {"note": 0, "velocity": 0, "duration": 64}, {"note": 64, "velocity": 108, "duration": 53}, {"note": 0, "velocity": 0, "duration": 67}, {"note": 65, "velocity": 94, "duration": 57}, {"note": 0, "velocity": 0, "duration": 63}, {"note": 65, "velocity": 89, "duration": 57}, {"note": 0, "velocity": 0, "duration": 63}, {"note": 65, "velocity": 94, "duration": 76}, {"note": 65, "velocity": 100, "duration": 215}, {"note": 65, "velocity": 100, "duration": 68}, {"note": 65, "velocity": 100, "duration": 74}, {"note": 69, "velocity": 108, "duration": 73}, {"note": 67, "velocity": 105, "duration": 86}, {"note": 0, "velocity": 0, "duration": 154}, {"note": 67, "velocity": 114, "duration": 59}, {"note": 0, "velocity": 0, "duration": 61}, {"note": 67, "velocity": 100, "duration": 57}, {"note": 0, "velocity": 0, "duration": 63}, {"note": 67, "velocity": 108, "duration": 205}, {"note": 65, "velocity": 105, "duration": 89}, {"note": 72, "velocity": 108, "duration": 1423}, {"note": 0, "velocity": 0, "duration": 137}, {"note": 74, "velocity": 111, "duration": 71}, {"note": 76, "velocity": 111, "duration": 411}, {"note": 0, "velocity": 0, "duration": 189}, {"note": 77, "velocity": 114, "duration": 380}, {"note": 0, "velocity": 0, "duration": 100}, {"note": 69, "velocity": 114, "duration": 150}, {"note": 0, "velocity": 0, "duration": 90}, {"note": 72, "velocity": 114, "duration": 186}, {"note": 74, "velocity": 97, "duration": 68}, {"note": 72, "velocity": 114, "duration": 232}, {"note": 0, "velocity": 0, "duration": 128}, {"note": 69, "velocity": 117, "duration": 79}, {"note": 67, "velocity": 105, "duration": 51}, {"note": 0, "velocity": 0, "duration": 69}, {"note": 65, "velocity": 105, "duration": 161}, {"note": 0, "velocity": 0, "duration": 79}, {"note": 65, "velocity": 105, "duration": 156}, {"note": 0, "velocity": 0, "duration": 84}, {"note": 65, "velocity": 108, "duration": 179}, {"note": 0, "velocity": 0, "duration": 61}, {"note": 69, "velocity": 111, "duration": 186}, {"note": 67, "velocity": 108, "duration": 184}, {"note": 69, "velocity": 100, "duration": 77}, {"note": 67, "velocity": 111, "duration": 235}, {"note": 0, "velocity": 0, "duration": 360}, {"note": 74, "velocity": 108, "duration": 126}, {"note": 74, "velocity": 97, "duration": 131}, {"note": 72, "velocity": 105, "duration": 71}, {"note": 0, "velocity": 0, "duration": 64}, {"note": 72, "velocity": 111, "duration": 122}, {"note": 69, "velocity": 111, "duration": 129}, {"note": 67, "velocity": 105, "duration": 81}, {"note": 69, "velocity": 114, "duration": 120}, {"note": 72, "velocity": 102, "duration": 360}, {"note": 0, "velocity": 0, "duration": 120}, {"note": 69, "velocity": 105, "duration": 86}, {"note": 67, "velocity": 108, "duration": 63}, {"note": 65, "velocity": 111, "duration": 89}, {"note": 67, "velocity": 108, "duration": 153}, {"note": 0, "velocity": 0, "duration": 87}, {"note": 67, "velocity": 105, "duration": 80}, {"note": 65, "velocity": 105, "duration": 67}, {"note": 67, "velocity": 111, "duration": 182}, {"note": 65, "velocity": 108, "duration": 72}, {"note": 65, "velocity": 105, "duration": 120}, {"note": 72, "velocity": 117, "duration": 156}, {"note": 0, "velocity": 0, "duration": 84}, {"note": 72, "velocity": 114, "duration": 150}, {"note": 0, "velocity": 0, "duration": 90}, {"note": 72, "velocity": 111, "duration": 64}, {"note": 74, "velocity": 102, "duration": 68}, {"note": 76, "velocity": 114, "duration": 265}, {"note": 0, "velocity": 0, "duration": 215}, {"note": 77, "velocity": 108, "duration": 323}, {"note": 0, "velocity": 0, "duration": 157}, {"note": 69, "velocity": 108, "duration": 163}, {"note": 0, "velocity": 0, "duration": 77}, {"note": 72, "velocity": 108, "duration": 170}, {"note": 0, "velocity": 0, "duration": 70}, {"note": 74, "velocity": 100, "duration": 82}, {"note": 72, "velocity": 117, "duration": 185}, {"note": 0, "velocity": 0, "duration": 175}, {"note": 69, "velocity": 105, "duration": 80}, {"note": 67, "velocity": 108, "duration": 55}, {"note": 0, "velocity": 0, "duration": 65}, {"note": 65, "velocity": 108, "duration": 181}, {"note": 65, "velocity": 108, "duration": 62}, {"note": 65, "velocity": 111, "duration": 302}, {"note": 0, "velocity": 0, "duration": 178}, {"note": 65, "velocity": 105, "duration": 74}, {"note": 72, "velocity": 108, "duration": 170}, {"note": 0, "velocity": 0, "duration": 70}, {"note": 74, "velocity": 100, "duration": 60}, {"note": 72, "velocity": 108, "duration": 486}, {"note": 0, "velocity": 0, "duration": 114}, {"note": 69, "velocity": 108, "duration": 92}, {"note": 67, "velocity": 97, "duration": 72}, {"note": 65, "velocity": 111, "duration": 418}, {"note": 0, "velocity": 0, "duration": 62}, {"note": 67, "velocity": 102, "duration": 91}, {"note": 65, "velocity": 105, "duration": 85}, {"note": 67, "velocity": 105, "duration": 155}, {"note": 0, "velocity": 0, "duration": 85}, {"note": 69, "velocity": 108, "duration": 48}, {"note": 0, "velocity": 0, "duration": 72}, {"note": 60, "velocity": 105, "duration": 240}, {"note": 67, "velocity": 108, "duration": 422}, {"note": 0, "velocity": 0, "duration": 178}, {"note": 67, "velocity": 111, "duration": 390}, {"note": 0, "velocity": 0, "duration": 90}, {"note": 65, "velocity": 117, "duration": 174}, {"note": 0, "velocity": 0, "duration": 66}, {"note": 65, "velocity": 105, "duration": 1364}, {"note": 0, "velocity": 0, "duration": 10636}, {"note": 60, "velocity": 111, "duration": 125}, {"note": 62, "velocity": 97, "duration": 64}, {"note": 65, "velocity": 108, "duration": 73}, {"note": 67, "velocity": 100, "duration": 64}, {"note": 67, "velocity": 105, "duration": 229}, {"note": 69, "velocity": 97, "duration": 696}, {"note": 0, "velocity": 0, "duration": 384}, {"note": 60, "velocity": 94, "duration": 106}, {"note": 69, "velocity": 111, "duration": 83}, {"note": 67, "velocity": 114, "duration": 53}, {"note": 0, "velocity": 0, "duration": 67}, {"note": 67, "velocity": 100, "duration": 66}, {"note": 69, "velocity": 92, "duration": 79}, {"note": 67, "velocity": 108, "duration": 196}, {"note": 65, "velocity": 108, "duration": 563}, {"note": 0, "velocity": 0, "duration": 637}, {"note": 65, "velocity": 114, "duration": 70}, {"note": 67, "velocity": 108, "duration": 63}, {"note": 69, "velocity": 108, "duration": 56}, {"note": 0, "velocity": 0, "duration": 64}, {"note": 72, "velocity": 108, "duration": 79}, {"note": 74, "velocity": 102, "duration": 185}, {"note": 74, "velocity": 102, "duration": 69}, {"note": 74, "velocity": 114, "duration": 626}, {"note": 0, "velocity": 0, "duration": 334}, {"note": 74, "velocity": 97, "duration": 97}, {"note": 72, "velocity": 111, "duration": 104}, {"note": 70, "velocity": 105, "duration": 94}, {"note": 69, "velocity": 111, "duration": 69}, {"note": 70, "velocity": 109, "duration": 80}, {"note": 69, "velocity": 114, "duration": 898}, {"note": 0, "velocity": 0, "duration": 542}, {"note": 69, "velocity": 123, "duration": 182}, {"note": 72, "velocity": 111, "duration": 158}, {"note": 0, "velocity": 0, "duration": 82}, {"note": 74, "velocity": 105, "duration": 175}, {"note": 0, "velocity": 0, "duration": 65}, {"note": 74, "velocity": 100, "duration": 63}, {"note": 74, "velocity": 108, "duration": 718}, {"note": 0, "velocity": 0, "duration": 362}, {"note": 74, "velocity": 111, "duration": 168}, {"note": 0, "velocity": 0, "duration": 72}, {"note": 74, "velocity": 111, "duration": 76}, {"note": 69, "velocity": 111, "duration": 66}, {"note": 72, "velocity": 108, "duration": 367}, {"note": 0, "velocity": 0, "duration": 113}, {"note": 72, "velocity": 108, "duration": 199}, {"note": 74, "velocity": 105, "duration": 74}, {"note": 69, "velocity": 108, "duration": 656}, {"note": 0, "velocity": 0, "duration": 664}, {"note": 65, "velocity": 87, "duration": 169}, {"note": 0, "velocity": 0, "duration": 71}, {"note": 65, "velocity": 111, "duration": 228}, {"note": 62, "velocity": 105, "duration": 79}, {"note": 69, "velocity": 105, "duration": 183}, {"note": 67, "velocity": 97, "duration": 574}, {"note": 69, "velocity": 108, "duration": 227}, {"note": 65, "velocity": 105, "duration": 1150}, {"note": 0, "velocity": 0, "duration": 1010}, {"note": 70, "velocity": 112, "duration": 165}, {"note": 0, "velocity": 0, "duration": 75}, {"note": 70, "velocity": 112, "duration": 170}, {"note": 0, "velocity": 0, "duration": 70}, {"note": 72, "velocity": 97, "duration": 79}, {"note": 69, "velocity": 108, "duration": 927}, {"note": 0, "velocity": 0, "duration": 393}, {"note": 67, "velocity": 105, "duration": 153}, {"note": 0, "velocity": 0, "duration": 87}, {"note": 67, "velocity": 111, "duration": 177}, {"note": 0, "velocity": 0, "duration": 63}, {"note": 65, "velocity": 100, "duration": 69}, {"note": 65, "velocity": 114, "duration": 626}, {"note": 0, "velocity": 0, "duration": 214}, {"note": 65, "velocity": 108, "duration": 65}, {"note": 64, "velocity": 105, "duration": 55}, {"note": 0, "velocity": 0, "duration": 65}, {"note": 62, "velocity": 105, "duration": 153}, {"note": 0, "velocity": 0, "duration": 87}, {"note": 62, "velocity": 94, "duration": 79}, {"note": 60, "velocity": 102, "duration": 89}, {"note": 62, "velocity": 102, "duration": 155}, {"note": 0, "velocity": 0, "duration": 85}, {"note": 62, "velocity": 114, "duration": 63}, {"note": 65, "velocity": 100, "duration": 57}, {"note": 0, "velocity": 0, "duration": 63}, {"note": 64, "velocity": 117, "duration": 50}, {"note": 0, "velocity": 0, "duration": 70}, {"note": 64, "velocity": 97, "duration": 62}, {"note": 64, "velocity": 94, "duration": 62}, {"note": 64, "velocity": 105, "duration": 196}, {"note": 0, "velocity": 0, "duration": 164}, {"note": 62, "velocity": 111, "duration": 56}, {"note": 0, "velocity": 0, "duration": 64}, {"note": 64, "velocity": 108, "duration": 53}, {"note": 0, "velocity": 0, "duration": 67}, {"note": 65, "velocity": 94, "duration": 57}, {"note": 0, "velocity": 0, "duration": 63}, {"note": 65, "velocity": 89, "duration": 57}, {"note": 0, "velocity": 0, "duration": 63}, {"note": 65, "velocity": 94, "duration": 76}, {"note": 65, "velocity": 100, "duration": 215}, {"note": 65, "velocity": 100, "duration": 68}, {"note": 65, "velocity": 100, "duration": 74}, {"note": 69, "velocity": 108, "duration": 73}, {"note": 67, "velocity": 105, "duration": 86}, {"note": 0, "velocity": 0, "duration": 154}, {"note": 67, "velocity": 114, "duration": 59}, {"note": 0, "velocity": 0, "duration": 61}, {"note": 67, "velocity": 100, "duration": 57}, {"note": 0, "velocity": 0, "duration": 63}, {"note": 67, "velocity": 108, "duration": 205}, {"note": 65, "velocity": 105, "duration": 89}, {"note": 72, "velocity": 108, "duration": 1423}, {"note": 0, "velocity": 0, "duration": 137}, {"note": 74, "velocity": 111, "duration": 71}, {"note": 76, "velocity": 111, "duration": 411}, {"note": 0, "velocity": 0, "duration": 189}, {"note": 77, "velocity": 114, "duration": 380}, {"note": 0, "velocity": 0, "duration": 100}, {"note": 69, "velocity": 114, "duration": 150}, {"note": 0, "velocity": 0, "duration": 90}, {"note": 72, "velocity": 114, "duration": 186}, {"note": 74, "velocity": 97, "duration": 68}, {"note": 72, "velocity": 114, "duration": 232}, {"note": 0, "velocity": 0, "duration": 128}, {"note": 69, "velocity": 117, "duration": 79}, {"note": 67, "velocity": 105, "duration": 51}, {"note": 0, "velocity": 0, "duration": 69}, {"note": 65, "velocity": 105, "duration": 161}, {"note": 0, "velocity": 0, "duration": 79}, {"note": 65, "velocity": 105, "duration": 156}, {"note": 0, "velocity": 0, "duration": 84}, {"note": 65, "velocity": 108, "duration": 179}, {"note": 0, "velocity": 0, "duration": 61}, {"note": 69, "velocity": 111, "duration": 186}, {"note": 67, "velocity": 108, "duration": 184}, {"note": 69, "velocity": 100, "duration": 77}, {"note": 67, "velocity": 111, "duration": 235}, {"note": 0, "velocity": 0, "duration": 360}, {"note": 74, "velocity": 108, "duration": 126}, {"note": 74, "velocity": 97, "duration": 131}, {"note": 72, "velocity": 105, "duration": 71}, {"note": 0, "velocity": 0, "duration": 64}, {"note": 72, "velocity": 111, "duration": 122}, {"note": 69, "velocity": 111, "duration": 129}, {"note": 67, "velocity": 105, "duration": 81}, {"note": 69, "velocity": 114, "duration": 120}, {"note": 72, "velocity": 102, "duration": 360}, {"note": 0, "velocity": 0, "duration": 120}, {"note": 69, "velocity": 105, "duration": 86}, {"note": 67, "velocity": 108, "duration": 63}, {"note": 65, "velocity": 111, "duration": 89}, {"note": 67, "velocity": 108, "duration": 153}, {"note": 0, "velocity": 0, "duration": 87}, {"note": 67, "velocity": 105, "duration": 80}, {"note": 65, "velocity": 105, "duration": 67}, {"note": 67, "velocity": 111, "duration": 182}, {"note": 65, "velocity": 108, "duration": 72}, {"note": 65, "velocity": 105, "duration": 120}, {"note": 72, "velocity": 117, "duration": 156}, {"note": 0, "velocity": 0, "duration": 84}, {"note": 72, "velocity": 114, "duration": 150}, {"note": 0, "velocity": 0, "duration": 90}, {"note": 72, "velocity": 111, "duration": 64}, {"note": 74, "velocity": 102, "duration": 68}, {"note": 76, "velocity": 114, "duration": 265}, {"note": 0, "velocity": 0, "duration": 215}, {"note": 77, "velocity": 108, "duration": 323}, {"note": 0, "velocity": 0, "duration": 157}, {"note": 69, "velocity": 108, "duration": 163}, {"note": 0, "velocity": 0, "duration": 77}, {"note": 72, "velocity": 108, "duration": 170}, {"note": 0, "velocity": 0, "duration": 70}, {"note": 74, "velocity": 100, "duration": 82}, {"note": 72, "velocity": 117, "duration": 185}, {"note": 0, "velocity": 0, "duration": 175}, {"note": 69, "velocity": 105, "duration": 80}, {"note": 67, "velocity": 108, "duration": 55}, {"note": 0, "velocity": 0, "duration": 65}, {"note": 65, "velocity": 108, "duration": 181}, {"note": 65, "velocity": 108, "duration": 62}, {"note": 65, "velocity": 111, "duration": 302}, {"note": 0, "velocity": 0, "duration": 178}, {"note": 65, "velocity": 105, "duration": 74}, {"note": 72, "velocity": 108, "duration": 170}, {"note": 0, "velocity": 0, "duration": 70}, {"note": 74, "velocity": 100, "duration": 60}, {"note": 72, "velocity": 108, "duration": 486}, {"note": 0, "velocity": 0, "duration": 114}, {"note": 69, "velocity": 108, "duration": 92}, {"note": 67, "velocity": 97, "duration": 72}, {"note": 65, "velocity": 111, "duration": 418}, {"note": 0, "velocity": 0, "duration": 62}, {"note": 67, "velocity": 102, "duration": 91}, {"note": 65, "velocity": 105, "duration": 85}, {"note": 67, "velocity": 105, "duration": 155}, {"note": 0, "velocity": 0, "duration": 85}, {"note": 69, "velocity": 108, "duration": 48}, {"note": 0, "velocity": 0, "duration": 72}, {"note": 60, "velocity": 105, "duration": 240}, {"note": 67, "velocity": 108, "duration": 422}, {"note": 0, "velocity": 0, "duration": 178}, {"note": 67, "velocity": 111, "duration": 390}, {"note": 0, "velocity": 0, "duration": 90}, {"note": 65, "velocity": 117, "duration": 174}, {"note": 0, "velocity": 0, "duration": 66}, {"note": 65, "velocity": 105, "duration": 1364}]]