[[{"note": 68, "velocity": 108, "duration": 240}, {"note": 75, "velocity": 102, "duration": 239}, {"note": 75, "velocity": 114, "duration": 240}, {"note": 73, "velocity": 84, "duration": 240}, {"note": 71, "velocity": 102, "duration": 480}, {"note": 73, "velocity": 102, "duration": 240}, {"note": 71, "velocity": 105, "duration": 240}, {"note": 68, "velocity": 111, "duration": 1919}, {"note": 68, "velocity": 111, "duration": 275}, {"note": 80, "velocity": 102, "duration": 239}, {"note": 80, "velocity": 105, "duration": 240}, {"note": 78, "velocity": 108, "duration": 239}, {"note": 78, "velocity": 105, "duration": 480}, {"note": 80, "velocity": 108, "duration": 240}, {"note": 78, "velocity": 102, "duration": 240}, {"note": 75, "velocity": 105, "duration": 1919}, {"note": 75, "velocity": 100, "duration": 240}, {"note": 80, "velocity": 114, "duration": 239}, {"note": 80, "velocity": 108, "duration": 240}, {"note": 78, "velocity": 105, "duration": 240}, {"note": 80, "velocity": 114, "duration": 480}, {"note": 68, "velocity": 108, "duration": 240}, {"note": 71, "velocity": 105, "duration": 240}, {"note": 73, "velocity": 102, "duration": 479}, {"note": 73, "velocity": 105, "duration": 1439}, {"note": 73, "velocity": 114, "duration": 239}, {"note": 73, "velocity": 105, "duration": 239}, {"note": 73, "velocity": 102, "duration": 240}, {"note": 75, "velocity": 105, "duration": 240}, {"note": 78, "velocity": 114, "duration": 240}, {"note": 75, "velocity": 108, "duration": 240}, {"note": 73, "velocity": 105, "duration": 240}, {"note": 71, "velocity": 108, "duration": 240}, {"note": 75, "velocity": 108, "duration": 479}, {"note": 75, "velocity": 114, "duration": 1440}, {"note": 68, "velocity": 120, "duration": 240}, {"note": 75, "velocity": 105, "duration": 239}, {"note": 75, "velocity": 111, "duration": 240}, {"note": 73, "velocity": 97, "duration": 240}, {"note": 71, "velocity": 105, "duration": 480}, {"note": 73, "velocity": 108, "duration": 240}, {"note": 71, "velocity": 111, "duration": 240}, {"note": 68, "velocity": 117, "duration": 1919}, {"note": 68, "velocity": 117, "duration": 240}, {"note": 80, "velocity": 87, "duration": 239}, {"note": 80, "velocity": 111, "duration": 240}, {"note": 78, "velocity": 108, "duration": 239}, {"note": 78, "velocity": 111, "duration": 480}, {"note": 80, "velocity": 111, "duration": 240}, {"note": 78, "velocity": 102, "duration": 240}, {"note": 75, "velocity": 111, "duration": 1919}, {"note": 75, "velocity": 102, "duration": 240}, {"note": 80, "velocity": 97, "duration": 239}, {"note": 80, "velocity": 108, "duration": 240}, {"note": 78, "velocity": 108, "duration": 240}, {"note": 80, "velocity": 114, "duration": 480}, {"note": 68, "velocity": 111, "duration": 240}, {"note": 71, "velocity": 108, "duration": 240}, {"note": 73, "velocity": 102, "duration": 479}, {"note": 73, "velocity": 105, "duration": 1439}, {"note": 73, "velocity": 114, "duration": 239}, {"note": 73, "velocity": 105, "duration": 239}, {"note": 73, "velocity": 111, "duration": 240}, {"note": 75, "velocity": 108, "duration": 240}, {"note": 78, "velocity": 111, "duration": 239}, {"note": 78, "velocity": 105, "duration": 239}, {"note": 78, "velocity": 102, "duration": 240}, {"note": 75, "velocity": 111, "duration": 240}, {"note": 80, "velocity": 127, "duration": 479}, {"note": 80, "velocity": 117, "duration": 3120}, {"note": 75, "velocity": 114, "duration": 240}, {"note": 83, "velocity": 114, "duration": 480}, {"note": 75, "velocity": 87, "duration": 240}, {"note": 83, "velocity": 114, "duration": 240}, {"note": 80, "velocity": 108, "duration": 720}, {"note": 75, "velocity": 92, "duration": 240}, {"note": 83, "velocity": 117, "duration": 480}, {"note": 75, "velocity": 100, "duration": 240}, {"note": 83, "velocity": 120, "duration": 240}, {"note": 80, "velocity": 111, "duration": 960}, {"note": 83, "velocity": 108, "duration": 239}, {"note": 83, "velocity": 114, "duration": 240}, {"note": 80, "velocity": 105, "duration": 240}, {"note": 78, "velocity": 108, "duration": 239}, {"note": 78, "velocity": 108, "duration": 240}, {"note": 80, "velocity": 102, "duration": 239}, {"note": 80, "velocity": 114, "duration": 240}, {"note": 78, "velocity": 108, "duration": 240}, {"note": 71, "velocity": 111, "duration": 240}, {"note": 73, "velocity": 105, "duration": 240}, {"note": 78, "velocity": 111, "duration": 480}, {"note": 75, "velocity": 105, "duration": 719}, {"note": 75, "velocity": 52, "duration": 239}, {"note": 75, "velocity": 111, "duration": 480}, {"note": 68, "velocity": 108, "duration": 240}, {"note": 75, "velocity": 108, "duration": 240}, {"note": 73, "velocity": 114, "duration": 720}, {"note": 75, "velocity": 111, "duration": 240}, {"note": 78, "velocity": 117, "duration": 480}, {"note": 75, "velocity": 108, "duration": 240}, {"note": 83, "velocity": 111, "duration": 240}, {"note": 80, "velocity": 102, "duration": 959}, {"note": 80, "velocity": 114, "duration": 240}, {"note": 83, "velocity": 108, "duration": 239}, {"note": 83, "velocity": 105, "duration": 240}, {"note": 80, "velocity": 105, "duration": 240}, {"note": 85, "velocity": 114, "duration": 479}, {"note": 85, "velocity": 111, "duration": 240}, {"note": 83, "velocity": 89, "duration": 240}, {"note": 82, "velocity": 97, "duration": 239}, {"note": 82, "velocity": 105, "duration": 240}, {"note": 80, "velocity": 108, "duration": 240}, {"note": 82, "velocity": 105, "duration": 960}, {"note": 75, "velocity": 114, "duration": 240}, {"note": 83, "velocity": 114, "duration": 480}, {"note": 75, "velocity": 87, "duration": 240}, {"note": 83, "velocity": 114, "duration": 240}, {"note": 80, "velocity": 108, "duration": 720}, {"note": 75, "velocity": 92, "duration": 240}, {"note": 83, "velocity": 117, "duration": 480}, {"note": 75, "velocity": 100, "duration": 240}, {"note": 83, "velocity": 120, "duration": 240}, {"note": 80, "velocity": 111, "duration": 960}, {"note": 83, "velocity": 108, "duration": 239}, {"note": 83, "velocity": 114, "duration": 240}, {"note": 80, "velocity": 105, "duration": 240}, {"note": 78, "velocity": 108, "duration": 239}, {"note": 78, "velocity": 108, "duration": 240}, {"note": 80, "velocity": 102, "duration": 239}, {"note": 80, "velocity": 114, "duration": 240}, {"note": 78, "velocity": 108, "duration": 240}, {"note": 71, "velocity": 111, "duration": 240}, {"note": 73, "velocity": 105, "duration": 240}, {"note": 78, "velocity": 111, "duration": 480}, {"note": 75, "velocity": 105, "duration": 719}, {"note": 75, "velocity": 52, "duration": 239}, {"note": 75, "velocity": 111, "duration": 480}, {"note": 68, "velocity": 108, "duration": 240}, {"note": 75, "velocity": 108, "duration": 240}, {"note": 73, "velocity": 114, "duration": 720}, {"note": 75, "velocity": 111, "duration": 240}, {"note": 78, "velocity": 117, "duration": 480}, {"note": 75, "velocity": 108, "duration": 240}, {"note": 83, "velocity": 111, "duration": 240}, {"note": 80, "velocity": 102, "duration": 959}, {"note": 80, "velocity": 114, "duration": 240}, {"note": 83, "velocity": 108, "duration": 239}, {"note": 83, "velocity": 105, "duration": 240}, {"note": 80, "velocity": 105, "duration": 240}, {"note": 85, "velocity": 114, "duration": 479}, {"note": 85, "velocity": 111, "duration": 240}, {"note": 83, "velocity": 89, "duration": 240}, {"note": 75, "velocity": 114, "duration": 240}, {"note": 78, "velocity": 108, "duration": 240}, {"note": 82, "velocity": 120, "duration": 480}, {"note": 80, "velocity": 102, "duration": 1630}, {"note": 0, "velocity": 0, "duration": 14690}, {"note": 68, "velocity": 108, "duration": 240}, {"note": 75, "velocity": 102, "duration": 239}, {"note": 75, "velocity": 114, "duration": 240}, {"note": 73, "velocity": 84, "duration": 240}, {"note": 71, "velocity": 102, "duration": 480}, {"note": 73, "velocity": 102, "duration": 240}, {"note": 71, "velocity": 105, "duration": 240}, {"note": 68, "velocity": 111, "duration": 1919}, {"note": 68, "velocity": 111, "duration": 275}, {"note": 80, "velocity": 102, "duration": 239}, {"note": 80, "velocity": 105, "duration": 240}, {"note": 78, "velocity": 108, "duration": 239}, {"note": 78, "velocity": 105, "duration": 480}, {"note": 80, "velocity": 108, "duration": 240}, {"note": 78, "velocity": 102, "duration": 240}, {"note": 75, "velocity": 105, "duration": 1919}, {"note": 75, "velocity": 100, "duration": 240}, {"note": 80, "velocity": 114, "duration": 239}, {"note": 80, "velocity": 108, "duration": 240}, {"note": 78, "velocity": 105, "duration": 240}, {"note": 80, "velocity": 114, "duration": 480}, {"note": 68, "velocity": 108, "duration": 240}, {"note": 71, "velocity": 105, "duration": 240}, {"note": 73, "velocity": 102, "duration": 479}, {"note": 73, "velocity": 105, "duration": 1439}, {"note": 73, "velocity": 114, "duration": 239}, {"note": 73, "velocity": 105, "duration": 239}, {"note": 73, "velocity": 102, "duration": 240}, {"note": 75, "velocity": 105, "duration": 240}, {"note": 78, "velocity": 114, "duration": 240}, {"note": 75, "velocity": 108, "duration": 240}, {"note": 73, "velocity": 105, "duration": 240}, {"note": 71, "velocity": 108, "duration": 240}, {"note": 75, "velocity": 108, "duration": 479}, {"note": 75, "velocity": 114, "duration": 1440}, {"note": 68, "velocity": 120, "duration": 240}, {"note": 75, "velocity": 105, "duration": 239}, {"note": 75, "velocity": 111, "duration": 240}, {"note": 73, "velocity": 97, "duration": 240}, {"note": 71, "velocity": 105, "duration": 480}, {"note": 73, "velocity": 108, "duration": 240}, {"note": 71, "velocity": 111, "duration": 240}, {"note": 68, "velocity": 117, "duration": 1919}, {"note": 68, "velocity": 117, "duration": 240}, {"note": 80, "velocity": 87, "duration": 239}, {"note": 80, "velocity": 111, "duration": 240}, {"note": 78, "velocity": 108, "duration": 239}, {"note": 78, "velocity": 111, "duration": 480}, {"note": 80, "velocity": 111, "duration": 240}, {"note": 78, "velocity": 102, "duration": 240}, {"note": 75, "velocity": 111, "duration": 1919}, {"note": 75, "velocity": 102, "duration": 240}, {"note": 80, "velocity": 97, "duration": 239}, {"note": 80, "velocity": 108, "duration": 240}, {"note": 78, "velocity": 108, "duration": 240}, {"note": 80, "velocity": 114, "duration": 480}, {"note": 68, "velocity": 111, "duration": 240}, {"note": 71, "velocity": 108, "duration": 240}, {"note": 73, "velocity": 102, "duration": 479}, {"note": 73, "velocity": 105, "duration": 1439}, {"note": 73, "velocity": 114, "duration": 239}, {"note": 73, "velocity": 105, "duration": 239}, {"note": 73, "velocity": 111, "duration": 240}, {"note": 75, "velocity": 108, "duration": 240}, {"note": 78, "velocity": 111, "duration": 239}, {"note": 78, "velocity": 105, "duration": 239}, {"note": 78, "velocity": 102, "duration": 240}, {"note": 75, "velocity": 111, "duration": 240}, {"note": 80, "velocity": 127, "duration": 479}, {"note": 80, "velocity": 117, "duration": 3120}, {"note": 75, "velocity": 114, "duration": 240}, {"note": 83, "velocity": 114, "duration": 480}, {"note": 75, "velocity": 87, "duration": 240}, {"note": 83, "velocity": 114, "duration": 240}, {"note": 80, "velocity": 108, "duration": 720}, {"note": 75, "velocity": 92, "duration": 240}, {"note": 83, "velocity": 117, "duration": 480}, {"note": 75, "velocity": 100, "duration": 240}, {"note": 83, "velocity": 120, "duration": 240}, {"note": 80, "velocity": 111, "duration": 960}, {"note": 83, "velocity": 108, "duration": 239}, {"note": 83, "velocity": 114, "duration": 240}, {"note": 80, "velocity": 105, "duration": 240}, {"note": 78, "velocity": 108, "duration": 239}, {"note": 78, "velocity": 108, "duration": 240}, {"note": 80, "velocity": 102, "duration": 239}, {"note": 80, "velocity": 114, "duration": 240}, {"note": 78, "velocity": 108, "duration": 240}, {"note": 71, "velocity": 111, "duration": 240}, {"note": 73, "velocity": 105, "duration": 240}, {"note": 78, "velocity": 111, "duration": 480}, {"note": 75, "velocity": 105, "duration": 719}, {"note": 75, "velocity": 52, "duration": 239}, {"note": 75, "velocity": 111, "duration": 480}, {"note": 68, "velocity": 108, "duration": 240}, {"note": 75, "velocity": 108, "duration": 240}, {"note": 73, "velocity": 114, "duration": 720}, {"note": 75, "velocity": 111, "duration": 240}, {"note": 78, "velocity": 117, "duration": 480}, {"note": 75, "velocity": 108, "duration": 240}, {"note": 83, "velocity": 111, "duration": 240}, {"note": 80, "velocity": 102, "duration": 959}, {"note": 80, "velocity": 114, "duration": 240}, {"note": 83, "velocity": 108, "duration": 239}, {"note": 83, "velocity": 105, "duration": 240}, {"note": 80, "velocity": 105, "duration": 240}, {"note": 85, "velocity": 114, "duration": 479}, {"note": 85, "velocity": 111, "duration": 240}, {"note": 83, "velocity": 89, "duration": 240}, {"note": 82, "velocity": 97, "duration": 239}, {"note": 82, "velocity": 105, "duration": 240}, {"note": 80, "velocity": 108, "duration": 240}, {"note": 82, "velocity": 105, "duration": 960}, {"note": 75, "velocity": 114, "duration": 240}, {"note": 83, "velocity": 114, "duration": 480}, {"note": 75, "velocity": 87, "duration": 240}, {"note": 83, "velocity": 114, "duration": 240}, {"note": 80, "velocity": 108, "duration": 720}, {"note": 75, "velocity": 92, "duration": 240}, {"note": 83, "velocity": 117, "duration": 480}, {"note": 75, "velocity": 100, "duration": 240}, {"note": 83, "velocity": 120, "duration": 240}, {"note": 80, "velocity": 111, "duration": 960}, {"note": 83, "velocity": 108, "duration": 239}, {"note": 83, "velocity": 114, "duration": 240}, {"note": 80, "velocity": 105, "duration": 240}, {"note": 78, "velocity": 108, "duration": 239}, {"note": 78, "velocity": 108, "duration": 240}, {"note": 80, "velocity": 102, "duration": 239}, {"note": 80, "velocity": 114, "duration": 240}, {"note": 78, "velocity": 108, "duration": 240}, {"note": 71, "velocity": 111, "duration": 240}, {"note": 73, "velocity": 105, "duration": 240}, {"note": 78, "velocity": 111, "duration": 480}, {"note": 75, "velocity": 105, "duration": 719}, {"note": 75, "velocity": 52, "duration": 239}, {"note": 75, "velocity": 111, "duration": 480}, {"note": 68, "velocity": 108, "duration": 240}, {"note": 75, "velocity": 108, "duration": 240}, {"note": 73, "velocity": 114, "duration": 720}, {"note": 75, "velocity": 111, "duration": 240}, {"note": 78, "velocity": 117, "duration": 480}, {"note": 75, "velocity": 108, "duration": 240}, {"note": 83, "velocity": 111, "duration": 240}, {"note": 80, "velocity": 102, "duration": 959}, {"note": 80, "velocity": 114, "duration": 240}, {"note": 83, "velocity": 108, "duration": 239}, {"note": 83, "velocity": 105, "duration": 240}, {"note": 80, "velocity": 105, "duration": 240}, {"note": 85, "velocity": 114, "duration": 479}, {"note": 85, "velocity": 111, "duration": 240}, {"note": 83, "velocity": 89, "duration": 240}, {"note": 75, "velocity": 114, "duration": 240}, {"note": 78, "velocity": 108, "duration": 240}, {"note": 82, "velocity": 120, "duration": 480}, {"note": 80, "velocity": 102, "duration": 960}, {"note": 68, "velocity": 114, "duration": 239}, {"note": 68, "velocity": 100, "duration": 239}, {"note": 68, "velocity": 94, "duration": 239}, {"note": 68, "velocity": 92, "duration": 130}, {"note": 66, "velocity": 102, "duration": 360}, {"note": 68, "velocity": 105, "duration": 239}, {"note": 68, "velocity": 105, "duration": 720}, {"note": 66, "velocity": 97, "duration": 120}, {"note": 68, "velocity": 97, "duration": 119}, {"note": 68, "velocity": 97, "duration": 239}, {"note": 68, "velocity": 89, "duration": 119}, {"note": 68, "velocity": 84, "duration": 119}, {"note": 68, "velocity": 80, "duration": 239}, {"note": 68, "velocity": 100, "duration": 240}, {"note": 71, "velocity": 93, "duration": 720}, {"note": 68, "velocity": 71, "duration": 119}, {"note": 68, "velocity": 84, "duration": 119}, {"note": 68, "velocity": 105, "duration": 239}, {"note": 68, "velocity": 100, "duration": 239}, {"note": 68, "velocity": 100, "duration": 240}, {"note": 66, "velocity": 97, "duration": 240}, {"note": 68, "velocity": 114, "duration": 480}, {"note": 75, "velocity": 92, "duration": 239}, {"note": 75, "velocity": 94, "duration": 239}, {"note": 75, "velocity": 97, "duration": 239}, {"note": 75, "velocity": 102, "duration": 239}, {"note": 75, "velocity": 97, "duration": 239}, {"note": 75, "velocity": 94, "duration": 240}, {"note": 71, "velocity": 111, "duration": 720}, {"note": 68, "velocity": 71, "duration": 119}, {"note": 68, "velocity": 84, "duration": 119}, {"note": 68, "velocity": 105, "duration": 239}, {"note": 68, "velocity": 100, "duration": 239}, {"note": 68, "velocity": 100, "duration": 240}, {"note": 66, "velocity": 97, "duration": 240}, {"note": 68, "velocity": 114, "duration": 719}, {"note": 68, "velocity": 71, "duration": 119}, {"note": 68, "velocity": 84, "duration": 119}, {"note": 68, "velocity": 105, "duration": 239}, {"note": 68, "velocity": 100, "duration": 239}, {"note": 68, "velocity": 100, "duration": 239}, {"note": 68, "velocity": 97, "duration": 240}, {"note": 71, "velocity": 114, "duration": 720}, {"note": 68, "velocity": 94, "duration": 239}, {"note": 68, "velocity": 92, "duration": 239}, {"note": 68, "velocity": 102, "duration": 239}, {"note": 68, "velocity": 105, "duration": 240}, {"note": 66, "velocity": 100, "duration": 240}, {"note": 68, "velocity": 100, "duration": 239}, {"note": 68, "velocity": 102, "duration": 240}, {"note": 75, "velocity": 66, "duration": 239}, {"note": 75, "velocity": 73, "duration": 239}, {"note": 75, "velocity": 94, "duration": 239}, {"note": 75, "velocity": 94, "duration": 240}, {"note": 73, "velocity": 100, "duration": 240}, {"note": 71, "velocity": 114, "duration": 240}, {"note": 68, "velocity": 105, "duration": 2160}, {"note": 75, "velocity": 114, "duration": 240}, {"note": 83, "velocity": 114, "duration": 480}, {"note": 75, "velocity": 87, "duration": 240}, {"note": 83, "velocity": 114, "duration": 240}, {"note": 80, "velocity": 108, "duration": 720}, {"note": 75, "velocity": 92, "duration": 240}, {"note": 83, "velocity": 117, "duration": 480}, {"note": 75, "velocity": 100, "duration": 240}, {"note": 83, "velocity": 120, "duration": 240}, {"note": 80, "velocity": 111, "duration": 960}, {"note": 83, "velocity": 108, "duration": 239}, {"note": 83, "velocity": 114, "duration": 240}, {"note": 80, "velocity": 105, "duration": 240}, {"note": 78, "velocity": 108, "duration": 239}, {"note": 78, "velocity": 108, "duration": 240}, {"note": 80, "velocity": 102, "duration": 239}, {"note": 80, "velocity": 114, "duration": 240}, {"note": 78, "velocity": 108, "duration": 240}, {"note": 71, "velocity": 111, "duration": 240}, {"note": 73, "velocity": 105, "duration": 240}, {"note": 78, "velocity": 111, "duration": 480}, {"note": 75, "velocity": 105, "duration": 719}, {"note": 75, "velocity": 52, "duration": 239}, {"note": 75, "velocity": 111, "duration": 480}, {"note": 68, "velocity": 108, "duration": 240}, {"note": 75, "velocity": 108, "duration": 240}, {"note": 73, "velocity": 114, "duration": 720}, {"note": 75, "velocity": 111, "duration": 240}, {"note": 78, "velocity": 117, "duration": 480}, {"note": 75, "velocity": 108, "duration": 240}, {"note": 83, "velocity": 111, "duration": 240}, {"note": 80, "velocity": 102, "duration": 959}, {"note": 80, "velocity": 114, "duration": 240}, {"note": 83, "velocity": 108, "duration": 239}, {"note": 83, "velocity": 105, "duration": 240}, {"note": 80, "velocity": 105, "duration": 240}, {"note": 85, "velocity": 114, "duration": 479}, {"note": 85, "velocity": 111, "duration": 240}, {"note": 83, "velocity": 89, "duration": 240}, {"note": 82, "velocity": 97, "duration": 239}, {"note": 82, "velocity": 105, "duration": 240}, {"note": 80, "velocity": 108, "duration": 240}, {"note": 82, "velocity": 105, "duration": 960}, {"note": 75, "velocity": 114, "duration": 240}, {"note": 83, "velocity": 114, "duration": 480}, {"note": 75, "velocity": 87, "duration": 240}, {"note": 83, "velocity": 114, "duration": 240}, {"note": 80, "velocity": 108, "duration": 720}, {"note": 75, "velocity": 92, "duration": 240}, {"note": 83, "velocity": 117, "duration": 480}, {"note": 75, "velocity": 100, "duration": 240}, {"note": 83, "velocity": 120, "duration": 240}, {"note": 80, "velocity": 111, "duration": 960}, {"note": 83, "velocity": 108, "duration": 239}, {"note": 83, "velocity": 114, "duration": 240}, {"note": 80, "velocity": 105, "duration": 240}, {"note": 78, "velocity": 108, "duration": 239}, {"note": 78, "velocity": 108, "duration": 240}, {"note": 80, "velocity": 102, "duration": 239}, {"note": 80, "velocity": 114, "duration": 240}, {"note": 78, "velocity": 108, "duration": 240}, {"note": 71, "velocity": 111, "duration": 240}, {"note": 73, "velocity": 105, "duration": 240}, {"note": 78, "velocity": 111, "duration": 480}, {"note": 75, "velocity": 105, "duration": 719}, {"note": 75, "velocity": 52, "duration": 239}, {"note": 75, "velocity": 111, "duration": 480}, {"note": 68, "velocity": 108, "duration": 240}, {"note": 75, "velocity": 108, "duration": 240}, {"note": 73, "velocity": 114, "duration": 720}, {"note": 75, "velocity": 111, "duration": 240}, {"note": 78, "velocity": 117, "duration": 480}, {"note": 75, "velocity": 108, "duration": 240}, {"note": 83, "velocity": 111, "duration": 240}, {"note": 80, "velocity": 102, "duration": 959}, {"note": 80, "velocity": 114, "duration": 240}, {"note": 83, "velocity": 108, "duration": 239}, {"note": 83, "velocity": 105, "duration": 240}, {"note": 80, "velocity": 105, "duration": 240}, {"note": 85, "velocity": 114, "duration": 479}, {"note": 85, "velocity": 111, "duration": 240}, {"note": 83, "velocity": 89, "duration": 240}, {"note": 75, "velocity": 114, "duration": 240}, {"note": 78, "velocity": 108, "duration": 240}, {"note": 82, "velocity": 120, "duration": 480}, {"note": 80, "velocity": 102, "duration": 960}, {"note": 80, "velocity": 114, "duration": 240}, {"note": 83, "velocity": 108, "duration": 239}, {"note": 83, "velocity": 105, "duration": 240}, {"note": 80, "velocity": 105, "duration": 240}, {"note": 85, "velocity": 114, "duration": 479}, {"note": 85, "velocity": 111, "duration": 240}, {"note": 83, "velocity": 89, "duration": 240}, {"note": 75, "velocity": 114, "duration": 240}, {"note": 78, "velocity": 108, "duration": 240}, {"note": 82, "velocity": 120, "duration": 480}, {"note": 80, "velocity": 102, "duration": 1150}]]