[[{"note": 71, "velocity": 120, "duration": 86}, {"note": 76, "velocity": 117, "duration": 190}, {"note": 76, "velocity": 114, "duration": 148}, {"note": 0, "velocity": 0, "duration": 92}, {"note": 76, "velocity": 111, "duration": 164}, {"note": 0, "velocity": 0, "duration": 76}, {"note": 76, "velocity": 108, "duration": 120}, {"note": 76, "velocity": 108, "duration": 120}, {"note": 74, "velocity": 111, "duration": 65}, {"note": 76, "velocity": 111, "duration": 59}, {"note": 0, "velocity": 0, "duration": 61}, {"note": 78, "velocity": 116, "duration": 81}, {"note": 76, "velocity": 114, "duration": 280}, {"note": 0, "velocity": 0, "duration": 80}, {"note": 76, "velocity": 112, "duration": 81}, {"note": 76, "velocity": 108, "duration": 68}, {"note": 74, "velocity": 102, "duration": 85}, {"note": 71, "velocity": 100, "duration": 52}, {"note": 0, "velocity": 0, "duration": 68}, {"note": 71, "velocity": 100, "duration": 52}, {"note": 0, "velocity": 0, "duration": 68}, {"note": 71, "velocity": 102, "duration": 59}, {"note": 0, "velocity": 0, "duration": 61}, {"note": 71, "velocity": 102, "duration": 64}, {"note": 71, "velocity": 100, "duration": 66}, {"note": 69, "velocity": 94, "duration": 71}, {"note": 71, "velocity": 105, "duration": 755}, {"note": 0, "velocity": 0, "duration": 205}, {"note": 64, "velocity": 105, "duration": 85}, {"note": 76, "velocity": 111, "duration": 166}, {"note": 0, "velocity": 0, "duration": 74}, {"note": 76, "velocity": 111, "duration": 141}, {"note": 0, "velocity": 0, "duration": 99}, {"note": 76, "velocity": 105, "duration": 179}, {"note": 0, "velocity": 0, "duration": 61}, {"note": 76, "velocity": 108, "duration": 75}, {"note": 76, "velocity": 100, "duration": 90}, {"note": 74, "velocity": 111, "duration": 67}, {"note": 76, "velocity": 111, "duration": 62}, {"note": 78, "velocity": 112, "duration": 94}, {"note": 76, "velocity": 117, "duration": 233}, {"note": 76, "velocity": 111, "duration": 240}, {"note": 76, "velocity": 105, "duration": 81}, {"note": 74, "velocity": 105, "duration": 120}, {"note": 71, "velocity": 114, "duration": 120}, {"note": 71, "velocity": 108, "duration": 73}, {"note": 71, "velocity": 97, "duration": 62}, {"note": 71, "velocity": 108, "duration": 62}, {"note": 71, "velocity": 102, "duration": 60}, {"note": 69, "velocity": 111, "duration": 60}, {"note": 71, "velocity": 111, "duration": 606}, {"note": 0, "velocity": 0, "duration": 234}, {"note": 74, "velocity": 114, "duration": 70}, {"note": 71, "velocity": 108, "duration": 73}, {"note": 69, "velocity": 114, "duration": 155}, {"note": 0, "velocity": 0, "duration": 85}, {"note": 69, "velocity": 108, "duration": 52}, {"note": 0, "velocity": 0, "duration": 68}, {"note": 69, "velocity": 111, "duration": 85}, {"note": 71, "velocity": 117, "duration": 179}, {"note": 0, "velocity": 0, "duration": 61}, {"note": 69, "velocity": 111, "duration": 75}, {"note": 67, "velocity": 114, "duration": 54}, {"note": 0, "velocity": 0, "duration": 66}, {"note": 71, "velocity": 108, "duration": 68}, {"note": 74, "velocity": 108, "duration": 373}, {"note": 0, "velocity": 0, "duration": 347}, {"note": 64, "velocity": 117, "duration": 73}, {"note": 76, "velocity": 108, "duration": 65}, {"note": 76, "velocity": 111, "duration": 57}, {"note": 0, "velocity": 0, "duration": 63}, {"note": 76, "velocity": 102, "duration": 52}, {"note": 0, "velocity": 0, "duration": 68}, {"note": 76, "velocity": 105, "duration": 55}, {"note": 0, "velocity": 0, "duration": 65}, {"note": 76, "velocity": 105, "duration": 65}, {"note": 78, "velocity": 112, "duration": 80}, {"note": 76, "velocity": 111, "duration": 72}, {"note": 74, "velocity": 114, "duration": 80}, {"note": 71, "velocity": 117, "duration": 625}, {"note": 0, "velocity": 0, "duration": 95}, {"note": 74, "velocity": 105, "duration": 78}, {"note": 71, "velocity": 102, "duration": 72}, {"note": 69, "velocity": 114, "duration": 160}, {"note": 0, "velocity": 0, "duration": 80}, {"note": 69, "velocity": 108, "duration": 73}, {"note": 69, "velocity": 120, "duration": 213}, {"note": 69, "velocity": 117, "duration": 187}, {"note": 67, "velocity": 108, "duration": 67}, {"note": 71, "velocity": 108, "duration": 93}, {"note": 66, "velocity": 111, "duration": 240}, {"note": 66, "velocity": 109, "duration": 160}, {"note": 0, "velocity": 0, "duration": 80}, {"note": 66, "velocity": 105, "duration": 60}, {"note": 66, "velocity": 105, "duration": 70}, {"note": 62, "velocity": 102, "duration": 70}, {"note": 64, "velocity": 111, "duration": 52}, {"note": 0, "velocity": 0, "duration": 68}, {"note": 64, "velocity": 108, "duration": 55}, {"note": 0, "velocity": 0, "duration": 65}, {"note": 64, "velocity": 105, "duration": 62}, {"note": 64, "velocity": 108, "duration": 66}, {"note": 62, "velocity": 102, "duration": 68}, {"note": 64, "velocity": 111, "duration": 55}, {"note": 0, "velocity": 0, "duration": 65}, {"note": 66, "velocity": 102, "duration": 240}, {"note": 64, "velocity": 114, "duration": 720}, {"note": 0, "velocity": 0, "duration": 120}, {"note": 71, "velocity": 120, "duration": 86}, {"note": 76, "velocity": 117, "duration": 190}, {"note": 76, "velocity": 114, "duration": 148}, {"note": 0, "velocity": 0, "duration": 92}, {"note": 76, "velocity": 111, "duration": 164}, {"note": 0, "velocity": 0, "duration": 76}, {"note": 76, "velocity": 108, "duration": 120}, {"note": 76, "velocity": 108, "duration": 120}, {"note": 74, "velocity": 111, "duration": 65}, {"note": 76, "velocity": 111, "duration": 59}, {"note": 0, "velocity": 0, "duration": 61}, {"note": 78, "velocity": 116, "duration": 81}, {"note": 76, "velocity": 114, "duration": 280}, {"note": 0, "velocity": 0, "duration": 80}, {"note": 76, "velocity": 112, "duration": 81}, {"note": 76, "velocity": 108, "duration": 68}, {"note": 74, "velocity": 102, "duration": 85}, {"note": 71, "velocity": 100, "duration": 52}, {"note": 0, "velocity": 0, "duration": 68}, {"note": 71, "velocity": 100, "duration": 52}, {"note": 0, "velocity": 0, "duration": 68}, {"note": 71, "velocity": 102, "duration": 59}, {"note": 0, "velocity": 0, "duration": 61}, {"note": 71, "velocity": 102, "duration": 64}, {"note": 71, "velocity": 100, "duration": 66}, {"note": 69, "velocity": 94, "duration": 71}, {"note": 71, "velocity": 105, "duration": 755}, {"note": 0, "velocity": 0, "duration": 205}, {"note": 64, "velocity": 105, "duration": 85}, {"note": 76, "velocity": 111, "duration": 166}, {"note": 0, "velocity": 0, "duration": 74}, {"note": 76, "velocity": 111, "duration": 141}, {"note": 0, "velocity": 0, "duration": 99}, {"note": 76, "velocity": 105, "duration": 179}, {"note": 0, "velocity": 0, "duration": 61}, {"note": 76, "velocity": 108, "duration": 75}, {"note": 76, "velocity": 100, "duration": 90}, {"note": 74, "velocity": 111, "duration": 67}, {"note": 76, "velocity": 111, "duration": 62}, {"note": 78, "velocity": 112, "duration": 94}, {"note": 76, "velocity": 117, "duration": 233}, {"note": 76, "velocity": 111, "duration": 240}, {"note": 76, "velocity": 105, "duration": 81}, {"note": 74, "velocity": 105, "duration": 120}, {"note": 71, "velocity": 114, "duration": 120}, {"note": 71, "velocity": 108, "duration": 73}, {"note": 71, "velocity": 97, "duration": 62}, {"note": 71, "velocity": 108, "duration": 62}, {"note": 71, "velocity": 102, "duration": 60}, {"note": 69, "velocity": 111, "duration": 60}, {"note": 71, "velocity": 111, "duration": 606}, {"note": 0, "velocity": 0, "duration": 234}, {"note": 74, "velocity": 114, "duration": 70}, {"note": 71, "velocity": 108, "duration": 73}, {"note": 69, "velocity": 114, "duration": 155}, {"note": 0, "velocity": 0, "duration": 85}, {"note": 69, "velocity": 108, "duration": 52}, {"note": 0, "velocity": 0, "duration": 68}, {"note": 69, "velocity": 111, "duration": 85}, {"note": 71, "velocity": 117, "duration": 179}, {"note": 0, "velocity": 0, "duration": 61}, {"note": 69, "velocity": 111, "duration": 75}, {"note": 67, "velocity": 114, "duration": 54}, {"note": 0, "velocity": 0, "duration": 66}, {"note": 71, "velocity": 108, "duration": 68}, {"note": 74, "velocity": 108, "duration": 373}, {"note": 0, "velocity": 0, "duration": 347}, {"note": 64, "velocity": 117, "duration": 73}, {"note": 76, "velocity": 108, "duration": 65}, {"note": 76, "velocity": 111, "duration": 57}, {"note": 0, "velocity": 0, "duration": 63}, {"note": 76, "velocity": 102, "duration": 52}, {"note": 0, "velocity": 0, "duration": 68}, {"note": 76, "velocity": 105, "duration": 55}, {"note": 0, "velocity": 0, "duration": 65}, {"note": 76, "velocity": 105, "duration": 65}, {"note": 78, "velocity": 112, "duration": 80}, {"note": 76, "velocity": 111, "duration": 72}, {"note": 74, "velocity": 114, "duration": 80}, {"note": 71, "velocity": 117, "duration": 625}, {"note": 0, "velocity": 0, "duration": 95}, {"note": 74, "velocity": 105, "duration": 78}, {"note": 71, "velocity": 102, "duration": 72}, {"note": 69, "velocity": 114, "duration": 160}, {"note": 0, "velocity": 0, "duration": 80}, {"note": 69, "velocity": 108, "duration": 73}, {"note": 69, "velocity": 120, "duration": 213}, {"note": 69, "velocity": 117, "duration": 187}, {"note": 67, "velocity": 108, "duration": 67}, {"note": 71, "velocity": 108, "duration": 93}, {"note": 66, "velocity": 111, "duration": 240}, {"note": 66, "velocity": 109, "duration": 160}, {"note": 0, "velocity": 0, "duration": 80}, {"note": 66, "velocity": 105, "duration": 60}, {"note": 66, "velocity": 105, "duration": 70}, {"note": 62, "velocity": 102, "duration": 70}, {"note": 64, "velocity": 111, "duration": 52}, {"note": 0, "velocity": 0, "duration": 68}, {"note": 64, "velocity": 108, "duration": 55}, {"note": 0, "velocity": 0, "duration": 65}, {"note": 64, "velocity": 105, "duration": 62}, {"note": 64, "velocity": 108, "duration": 66}, {"note": 62, "velocity": 102, "duration": 68}, {"note": 64, "velocity": 111, "duration": 55}, {"note": 0, "velocity": 0, "duration": 65}, {"note": 66, "velocity": 102, "duration": 240}, {"note": 64, "velocity": 114, "duration": 720}, {"note": 0, "velocity": 0, "duration": 240}, {"note": 80, "velocity": 116, "duration": 593}, {"note": 0, "velocity": 0, "duration": 127}, {"note": 79, "velocity": 108, "duration": 83}, {"note": 77, "velocity": 117, "duration": 120}, {"note": 72, "velocity": 114, "duration": 546}, {"note": 77, "velocity": 114, "duration": 120}, {"note": 77, "velocity": 105, "duration": 73}, {"note": 75, "velocity": 116, "duration": 58}, {"note": 0, "velocity": 0, "duration": 62}, {"note": 72, "velocity": 108, "duration": 59}, {"note": 0, "velocity": 0, "duration": 181}, {"note": 72, "velocity": 102, "duration": 65}, {"note": 70, "velocity": 97, "duration": 65}, {"note": 68, "velocity": 100, "duration": 93}, {"note": 70, "velocity": 112, "duration": 158}, {"note": 0, "velocity": 0, "duration": 82}, {"note": 72, "velocity": 111, "duration": 956}, {"note": 0, "velocity": 0, "duration": 124}, {"note": 77, "velocity": 111, "duration": 503}, {"note": 0, "velocity": 0, "duration": 97}, {"note": 75, "velocity": 116, "duration": 172}, {"note": 0, "velocity": 0, "duration": 68}, {"note": 72, "velocity": 102, "duration": 95}, {"note": 70, "velocity": 112, "duration": 155}, {"note": 0, "velocity": 0, "duration": 85}, {"note": 72, "velocity": 111, "duration": 244}, {"note": 0, "velocity": 0, "duration": 236}, {"note": 68, "velocity": 116, "duration": 127}, {"note": 70, "velocity": 116, "duration": 68}, {"note": 72, "velocity": 108, "duration": 150}, {"note": 0, "velocity": 0, "duration": 90}, {"note": 72, "velocity": 105, "duration": 70}, {"note": 70, "velocity": 112, "duration": 47}, {"note": 0, "velocity": 0, "duration": 73}, {"note": 68, "velocity": 112, "duration": 72}, {"note": 70, "velocity": 116, "duration": 150}, {"note": 0, "velocity": 0, "duration": 90}, {"note": 67, "velocity": 120, "duration": 1029}, {"note": 80, "velocity": 116, "duration": 593}, {"note": 0, "velocity": 0, "duration": 127}, {"note": 79, "velocity": 108, "duration": 83}, {"note": 77, "velocity": 117, "duration": 120}, {"note": 72, "velocity": 114, "duration": 546}, {"note": 77, "velocity": 114, "duration": 120}, {"note": 77, "velocity": 105, "duration": 73}, {"note": 75, "velocity": 116, "duration": 58}, {"note": 0, "velocity": 0, "duration": 62}, {"note": 72, "velocity": 108, "duration": 59}, {"note": 0, "velocity": 0, "duration": 181}, {"note": 72, "velocity": 102, "duration": 65}, {"note": 70, "velocity": 97, "duration": 65}, {"note": 68, "velocity": 100, "duration": 93}, {"note": 70, "velocity": 112, "duration": 158}, {"note": 0, "velocity": 0, "duration": 82}, {"note": 72, "velocity": 111, "duration": 956}, {"note": 0, "velocity": 0, "duration": 124}, {"note": 77, "velocity": 111, "duration": 503}, {"note": 0, "velocity": 0, "duration": 97}, {"note": 75, "velocity": 116, "duration": 172}, {"note": 0, "velocity": 0, "duration": 68}, {"note": 72, "velocity": 102, "duration": 95}, {"note": 70, "velocity": 112, "duration": 155}, {"note": 0, "velocity": 0, "duration": 85}, {"note": 72, "velocity": 111, "duration": 244}, {"note": 0, "velocity": 0, "duration": 236}, {"note": 68, "velocity": 116, "duration": 127}, {"note": 70, "velocity": 116, "duration": 68}, {"note": 72, "velocity": 108, "duration": 150}, {"note": 0, "velocity": 0, "duration": 90}, {"note": 72, "velocity": 105, "duration": 70}, {"note": 70, "velocity": 112, "duration": 47}, {"note": 0, "velocity": 0, "duration": 73}, {"note": 68, "velocity": 112, "duration": 72}, {"note": 70, "velocity": 116, "duration": 150}, {"note": 0, "velocity": 0, "duration": 90}, {"note": 67, "velocity": 120, "duration": 1029}, {"note": 0, "velocity": 0, "duration": 20091}, {"note": 71, "velocity": 120, "duration": 86}, {"note": 76, "velocity": 117, "duration": 190}, {"note": 76, "velocity": 114, "duration": 148}, {"note": 0, "velocity": 0, "duration": 92}, {"note": 76, "velocity": 111, "duration": 164}, {"note": 0, "velocity": 0, "duration": 76}, {"note": 76, "velocity": 108, "duration": 120}, {"note": 76, "velocity": 108, "duration": 120}, {"note": 74, "velocity": 111, "duration": 65}, {"note": 76, "velocity": 111, "duration": 59}, {"note": 0, "velocity": 0, "duration": 61}, {"note": 78, "velocity": 116, "duration": 81}, {"note": 76, "velocity": 114, "duration": 280}, {"note": 0, "velocity": 0, "duration": 80}, {"note": 76, "velocity": 112, "duration": 81}, {"note": 76, "velocity": 108, "duration": 68}, {"note": 74, "velocity": 102, "duration": 85}, {"note": 71, "velocity": 100, "duration": 52}, {"note": 0, "velocity": 0, "duration": 68}, {"note": 71, "velocity": 100, "duration": 52}, {"note": 0, "velocity": 0, "duration": 68}, {"note": 71, "velocity": 102, "duration": 59}, {"note": 0, "velocity": 0, "duration": 61}, {"note": 71, "velocity": 102, "duration": 64}, {"note": 71, "velocity": 100, "duration": 66}, {"note": 69, "velocity": 94, "duration": 71}, {"note": 71, "velocity": 105, "duration": 755}, {"note": 0, "velocity": 0, "duration": 205}, {"note": 64, "velocity": 105, "duration": 85}, {"note": 76, "velocity": 111, "duration": 166}, {"note": 0, "velocity": 0, "duration": 74}, {"note": 76, "velocity": 111, "duration": 141}, {"note": 0, "velocity": 0, "duration": 99}, {"note": 76, "velocity": 105, "duration": 179}, {"note": 0, "velocity": 0, "duration": 61}, {"note": 76, "velocity": 108, "duration": 75}, {"note": 76, "velocity": 100, "duration": 90}, {"note": 74, "velocity": 111, "duration": 67}, {"note": 76, "velocity": 111, "duration": 62}, {"note": 78, "velocity": 112, "duration": 94}, {"note": 76, "velocity": 117, "duration": 233}, {"note": 76, "velocity": 111, "duration": 240}, {"note": 76, "velocity": 105, "duration": 81}, {"note": 74, "velocity": 105, "duration": 120}, {"note": 71, "velocity": 114, "duration": 120}, {"note": 71, "velocity": 108, "duration": 73}, {"note": 71, "velocity": 97, "duration": 62}, {"note": 71, "velocity": 108, "duration": 62}, {"note": 71, "velocity": 102, "duration": 60}, {"note": 69, "velocity": 111, "duration": 60}, {"note": 71, "velocity": 111, "duration": 606}, {"note": 0, "velocity": 0, "duration": 234}, {"note": 74, "velocity": 114, "duration": 70}, {"note": 71, "velocity": 108, "duration": 73}, {"note": 69, "velocity": 114, "duration": 155}, {"note": 0, "velocity": 0, "duration": 85}, {"note": 69, "velocity": 108, "duration": 52}, {"note": 0, "velocity": 0, "duration": 68}, {"note": 69, "velocity": 111, "duration": 85}, {"note": 71, "velocity": 117, "duration": 179}, {"note": 0, "velocity": 0, "duration": 61}, {"note": 69, "velocity": 111, "duration": 75}, {"note": 67, "velocity": 114, "duration": 54}, {"note": 0, "velocity": 0, "duration": 66}, {"note": 71, "velocity": 108, "duration": 68}, {"note": 74, "velocity": 108, "duration": 373}, {"note": 0, "velocity": 0, "duration": 347}, {"note": 64, "velocity": 117, "duration": 73}, {"note": 76, "velocity": 108, "duration": 65}, {"note": 76, "velocity": 111, "duration": 57}, {"note": 0, "velocity": 0, "duration": 63}, {"note": 76, "velocity": 102, "duration": 52}, {"note": 0, "velocity": 0, "duration": 68}, {"note": 76, "velocity": 105, "duration": 55}, {"note": 0, "velocity": 0, "duration": 65}, {"note": 76, "velocity": 105, "duration": 65}, {"note": 78, "velocity": 112, "duration": 80}, {"note": 76, "velocity": 111, "duration": 72}, {"note": 74, "velocity": 114, "duration": 80}, {"note": 71, "velocity": 117, "duration": 625}, {"note": 0, "velocity": 0, "duration": 95}, {"note": 74, "velocity": 105, "duration": 78}, {"note": 71, "velocity": 102, "duration": 72}, {"note": 69, "velocity": 114, "duration": 160}, {"note": 0, "velocity": 0, "duration": 80}, {"note": 69, "velocity": 108, "duration": 73}, {"note": 69, "velocity": 120, "duration": 213}, {"note": 69, "velocity": 117, "duration": 187}, {"note": 67, "velocity": 108, "duration": 67}, {"note": 71, "velocity": 108, "duration": 93}, {"note": 66, "velocity": 111, "duration": 240}, {"note": 66, "velocity": 109, "duration": 160}, {"note": 0, "velocity": 0, "duration": 80}, {"note": 66, "velocity": 105, "duration": 60}, {"note": 66, "velocity": 105, "duration": 70}, {"note": 62, "velocity": 102, "duration": 70}, {"note": 64, "velocity": 111, "duration": 52}, {"note": 0, "velocity": 0, "duration": 68}, {"note": 64, "velocity": 108, "duration": 55}, {"note": 0, "velocity": 0, "duration": 65}, {"note": 64, "velocity": 105, "duration": 62}, {"note": 64, "velocity": 108, "duration": 66}, {"note": 62, "velocity": 102, "duration": 68}, {"note": 64, "velocity": 111, "duration": 55}, {"note": 0, "velocity": 0, "duration": 65}, {"note": 66, "velocity": 102, "duration": 240}, {"note": 64, "velocity": 114, "duration": 720}, {"note": 0, "velocity": 0, "duration": 120}, {"note": 71, "velocity": 120, "duration": 86}, {"note": 76, "velocity": 117, "duration": 190}, {"note": 76, "velocity": 114, "duration": 148}, {"note": 0, "velocity": 0, "duration": 92}, {"note": 76, "velocity": 111, "duration": 164}, {"note": 0, "velocity": 0, "duration": 76}, {"note": 76, "velocity": 108, "duration": 120}, {"note": 76, "velocity": 108, "duration": 120}, {"note": 74, "velocity": 111, "duration": 65}, {"note": 76, "velocity": 111, "duration": 59}, {"note": 0, "velocity": 0, "duration": 61}, {"note": 78, "velocity": 116, "duration": 81}, {"note": 76, "velocity": 114, "duration": 280}, {"note": 0, "velocity": 0, "duration": 80}, {"note": 76, "velocity": 112, "duration": 81}, {"note": 76, "velocity": 108, "duration": 68}, {"note": 74, "velocity": 102, "duration": 85}, {"note": 71, "velocity": 100, "duration": 52}, {"note": 0, "velocity": 0, "duration": 68}, {"note": 71, "velocity": 100, "duration": 52}, {"note": 0, "velocity": 0, "duration": 68}, {"note": 71, "velocity": 102, "duration": 59}, {"note": 0, "velocity": 0, "duration": 61}, {"note": 71, "velocity": 102, "duration": 64}, {"note": 71, "velocity": 100, "duration": 66}, {"note": 69, "velocity": 94, "duration": 71}, {"note": 71, "velocity": 105, "duration": 755}, {"note": 0, "velocity": 0, "duration": 205}, {"note": 64, "velocity": 105, "duration": 85}, {"note": 76, "velocity": 111, "duration": 166}, {"note": 0, "velocity": 0, "duration": 74}, {"note": 76, "velocity": 111, "duration": 141}, {"note": 0, "velocity": 0, "duration": 99}, {"note": 76, "velocity": 105, "duration": 179}, {"note": 0, "velocity": 0, "duration": 61}, {"note": 76, "velocity": 108, "duration": 75}, {"note": 76, "velocity": 100, "duration": 90}, {"note": 74, "velocity": 111, "duration": 67}, {"note": 76, "velocity": 111, "duration": 62}, {"note": 78, "velocity": 112, "duration": 94}, {"note": 76, "velocity": 117, "duration": 233}, {"note": 76, "velocity": 111, "duration": 240}, {"note": 76, "velocity": 105, "duration": 81}, {"note": 74, "velocity": 105, "duration": 120}, {"note": 71, "velocity": 114, "duration": 120}, {"note": 71, "velocity": 108, "duration": 73}, {"note": 71, "velocity": 97, "duration": 62}, {"note": 71, "velocity": 108, "duration": 62}, {"note": 71, "velocity": 102, "duration": 60}, {"note": 69, "velocity": 111, "duration": 60}, {"note": 71, "velocity": 111, "duration": 606}, {"note": 0, "velocity": 0, "duration": 234}, {"note": 74, "velocity": 114, "duration": 70}, {"note": 71, "velocity": 108, "duration": 73}, {"note": 69, "velocity": 114, "duration": 155}, {"note": 0, "velocity": 0, "duration": 85}, {"note": 69, "velocity": 108, "duration": 52}, {"note": 0, "velocity": 0, "duration": 68}, {"note": 69, "velocity": 111, "duration": 85}, {"note": 71, "velocity": 117, "duration": 179}, {"note": 0, "velocity": 0, "duration": 61}, {"note": 69, "velocity": 111, "duration": 75}, {"note": 67, "velocity": 114, "duration": 54}, {"note": 0, "velocity": 0, "duration": 66}, {"note": 71, "velocity": 108, "duration": 68}, {"note": 74, "velocity": 108, "duration": 373}, {"note": 0, "velocity": 0, "duration": 347}, {"note": 64, "velocity": 117, "duration": 73}, {"note": 76, "velocity": 108, "duration": 65}, {"note": 76, "velocity": 111, "duration": 57}, {"note": 0, "velocity": 0, "duration": 63}, {"note": 76, "velocity": 102, "duration": 52}, {"note": 0, "velocity": 0, "duration": 68}, {"note": 76, "velocity": 105, "duration": 55}, {"note": 0, "velocity": 0, "duration": 65}, {"note": 76, "velocity": 105, "duration": 65}, {"note": 78, "velocity": 112, "duration": 80}, {"note": 76, "velocity": 111, "duration": 72}, {"note": 74, "velocity": 114, "duration": 80}, {"note": 71, "velocity": 117, "duration": 625}, {"note": 0, "velocity": 0, "duration": 95}, {"note": 74, "velocity": 105, "duration": 78}, {"note": 71, "velocity": 102, "duration": 72}, {"note": 69, "velocity": 114, "duration": 160}, {"note": 0, "velocity": 0, "duration": 80}, {"note": 69, "velocity": 108, "duration": 73}, {"note": 69, "velocity": 120, "duration": 213}, {"note": 69, "velocity": 117, "duration": 187}, {"note": 67, "velocity": 108, "duration": 67}, {"note": 71, "velocity": 108, "duration": 93}, {"note": 66, "velocity": 111, "duration": 240}, {"note": 66, "velocity": 109, "duration": 160}, {"note": 0, "velocity": 0, "duration": 80}, {"note": 66, "velocity": 105, "duration": 60}, {"note": 66, "velocity": 105, "duration": 70}, {"note": 62, "velocity": 102, "duration": 70}, {"note": 64, "velocity": 111, "duration": 52}, {"note": 0, "velocity": 0, "duration": 68}, {"note": 64, "velocity": 108, "duration": 55}, {"note": 0, "velocity": 0, "duration": 65}, {"note": 64, "velocity": 105, "duration": 62}, {"note": 64, "velocity": 108, "duration": 66}, {"note": 62, "velocity": 102, "duration": 68}, {"note": 64, "velocity": 111, "duration": 55}, {"note": 0, "velocity": 0, "duration": 65}, {"note": 66, "velocity": 102, "duration": 240}, {"note": 64, "velocity": 114, "duration": 720}, {"note": 0, "velocity": 0, "duration": 240}, {"note": 80, "velocity": 116, "duration": 593}, {"note": 0, "velocity": 0, "duration": 127}, {"note": 79, "velocity": 108, "duration": 83}, {"note": 77, "velocity": 117, "duration": 120}, {"note": 72, "velocity": 114, "duration": 546}, {"note": 77, "velocity": 114, "duration": 120}, {"note": 77, "velocity": 105, "duration": 73}, {"note": 75, "velocity": 116, "duration": 58}, {"note": 0, "velocity": 0, "duration": 62}, {"note": 72, "velocity": 108, "duration": 59}, {"note": 0, "velocity": 0, "duration": 181}, {"note": 72, "velocity": 102, "duration": 65}, {"note": 70, "velocity": 97, "duration": 65}, {"note": 68, "velocity": 100, "duration": 93}, {"note": 70, "velocity": 112, "duration": 158}, {"note": 0, "velocity": 0, "duration": 82}, {"note": 72, "velocity": 111, "duration": 956}, {"note": 0, "velocity": 0, "duration": 124}, {"note": 77, "velocity": 111, "duration": 503}, {"note": 0, "velocity": 0, "duration": 97}, {"note": 75, "velocity": 116, "duration": 172}, {"note": 0, "velocity": 0, "duration": 68}, {"note": 72, "velocity": 102, "duration": 95}, {"note": 70, "velocity": 112, "duration": 155}, {"note": 0, "velocity": 0, "duration": 85}, {"note": 72, "velocity": 111, "duration": 244}, {"note": 0, "velocity": 0, "duration": 236}, {"note": 68, "velocity": 116, "duration": 127}, {"note": 70, "velocity": 116, "duration": 68}, {"note": 72, "velocity": 108, "duration": 150}, {"note": 0, "velocity": 0, "duration": 90}, {"note": 72, "velocity": 105, "duration": 70}, {"note": 70, "velocity": 112, "duration": 47}, {"note": 0, "velocity": 0, "duration": 73}, {"note": 68, "velocity": 112, "duration": 72}, {"note": 70, "velocity": 116, "duration": 150}, {"note": 0, "velocity": 0, "duration": 90}, {"note": 67, "velocity": 120, "duration": 1029}, {"note": 80, "velocity": 116, "duration": 593}, {"note": 0, "velocity": 0, "duration": 127}, {"note": 79, "velocity": 108, "duration": 83}, {"note": 77, "velocity": 117, "duration": 120}, {"note": 72, "velocity": 114, "duration": 546}, {"note": 77, "velocity": 114, "duration": 120}, {"note": 77, "velocity": 105, "duration": 73}, {"note": 75, "velocity": 116, "duration": 58}, {"note": 0, "velocity": 0, "duration": 62}, {"note": 72, "velocity": 108, "duration": 59}, {"note": 0, "velocity": 0, "duration": 181}, {"note": 72, "velocity": 102, "duration": 65}, {"note": 70, "velocity": 97, "duration": 65}, {"note": 68, "velocity": 100, "duration": 93}, {"note": 70, "velocity": 112, "duration": 158}, {"note": 0, "velocity": 0, "duration": 82}, {"note": 72, "velocity": 111, "duration": 956}, {"note": 0, "velocity": 0, "duration": 124}, {"note": 77, "velocity": 111, "duration": 503}, {"note": 0, "velocity": 0, "duration": 97}, {"note": 75, "velocity": 116, "duration": 172}, {"note": 0, "velocity": 0, "duration": 68}, {"note": 72, "velocity": 102, "duration": 95}, {"note": 70, "velocity": 112, "duration": 155}, {"note": 0, "velocity": 0, "duration": 85}, {"note": 72, "velocity": 111, "duration": 244}, {"note": 0, "velocity": 0, "duration": 236}, {"note": 68, "velocity": 116, "duration": 127}, {"note": 70, "velocity": 116, "duration": 68}, {"note": 72, "velocity": 108, "duration": 150}, {"note": 0, "velocity": 0, "duration": 90}, {"note": 72, "velocity": 105, "duration": 70}, {"note": 70, "velocity": 112, "duration": 47}, {"note": 0, "velocity": 0, "duration": 73}, {"note": 68, "velocity": 112, "duration": 72}, {"note": 70, "velocity": 116, "duration": 150}, {"note": 0, "velocity": 0, "duration": 90}, {"note": 67, "velocity": 120, "duration": 1029}]]