[[{"note": 62, "velocity": 94, "duration": 132}, {"note": 0, "velocity": 0, "duration": 108}, {"note": 62, "velocity": 97, "duration": 144}, {"note": 0, "velocity": 0, "duration": 96}, {"note": 64, "velocity": 102, "duration": 138}, {"note": 0, "velocity": 0, "duration": 102}, {"note": 67, "velocity": 111, "duration": 795}, {"note": 0, "velocity": 0, "duration": 165}, {"note": 67, "velocity": 108, "duration": 1515}, {"note": 0, "velocity": 0, "duration": 165}, {"note": 67, "velocity": 111, "duration": 153}, {"note": 0, "velocity": 0, "duration": 87}, {"note": 66, "velocity": 112, "duration": 118}, {"note": 0, "velocity": 0, "duration": 122}, {"note": 64, "velocity": 105, "duration": 115}, {"note": 0, "velocity": 0, "duration": 125}, {"note": 62, "velocity": 100, "duration": 121}, {"note": 0, "velocity": 0, "duration": 119}, {"note": 60, "velocity": 114, "duration": 238}, {"note": 62, "velocity": 100, "duration": 936}, {"note": 0, "velocity": 0, "duration": 1704}, {"note": 67, "velocity": 105, "duration": 144}, {"note": 0, "velocity": 0, "duration": 96}, {"note": 66, "velocity": 109, "duration": 150}, {"note": 0, "velocity": 0, "duration": 90}, {"note": 64, "velocity": 105, "duration": 118}, {"note": 0, "velocity": 0, "duration": 122}, {"note": 62, "velocity": 100, "duration": 138}, {"note": 0, "velocity": 0, "duration": 102}, {"note": 64, "velocity": 111, "duration": 129}, {"note": 0, "velocity": 0, "duration": 111}, {"note": 67, "velocity": 108, "duration": 350}, {"note": 0, "velocity": 0, "duration": 130}, {"note": 62, "velocity": 111, "duration": 478}, {"note": 64, "velocity": 100, "duration": 384}, {"note": 0, "velocity": 0, "duration": 96}, {"note": 62, "velocity": 108, "duration": 191}, {"note": 59, "velocity": 100, "duration": 153}, {"note": 0, "velocity": 0, "duration": 87}, {"note": 62, "velocity": 108, "duration": 410}, {"note": 0, "velocity": 0, "duration": 70}, {"note": 59, "velocity": 102, "duration": 147}, {"note": 0, "velocity": 0, "duration": 93}, {"note": 57, "velocity": 87, "duration": 132}, {"note": 0, "velocity": 0, "duration": 108}, {"note": 59, "velocity": 108, "duration": 112}, {"note": 0, "velocity": 0, "duration": 128}, {"note": 59, "velocity": 105, "duration": 138}, {"note": 0, "velocity": 0, "duration": 102}, {"note": 57, "velocity": 102, "duration": 138}, {"note": 0, "velocity": 0, "duration": 102}, {"note": 55, "velocity": 97, "duration": 1918}, {"note": 0, "velocity": 0, "duration": 1442}, {"note": 62, "velocity": 94, "duration": 132}, {"note": 0, "velocity": 0, "duration": 108}, {"note": 62, "velocity": 97, "duration": 144}, {"note": 0, "velocity": 0, "duration": 96}, {"note": 64, "velocity": 102, "duration": 138}, {"note": 0, "velocity": 0, "duration": 102}, {"note": 67, "velocity": 111, "duration": 795}, {"note": 0, "velocity": 0, "duration": 165}, {"note": 67, "velocity": 108, "duration": 1515}, {"note": 0, "velocity": 0, "duration": 165}, {"note": 67, "velocity": 111, "duration": 153}, {"note": 0, "velocity": 0, "duration": 87}, {"note": 66, "velocity": 112, "duration": 118}, {"note": 0, "velocity": 0, "duration": 122}, {"note": 64, "velocity": 105, "duration": 115}, {"note": 0, "velocity": 0, "duration": 125}, {"note": 62, "velocity": 100, "duration": 121}, {"note": 0, "velocity": 0, "duration": 119}, {"note": 60, "velocity": 114, "duration": 238}, {"note": 62, "velocity": 100, "duration": 936}, {"note": 0, "velocity": 0, "duration": 1704}, {"note": 67, "velocity": 105, "duration": 144}, {"note": 0, "velocity": 0, "duration": 96}, {"note": 66, "velocity": 109, "duration": 150}, {"note": 0, "velocity": 0, "duration": 90}, {"note": 64, "velocity": 105, "duration": 118}, {"note": 0, "velocity": 0, "duration": 122}, {"note": 62, "velocity": 100, "duration": 138}, {"note": 0, "velocity": 0, "duration": 102}, {"note": 64, "velocity": 111, "duration": 129}, {"note": 0, "velocity": 0, "duration": 111}, {"note": 67, "velocity": 108, "duration": 350}, {"note": 0, "velocity": 0, "duration": 130}, {"note": 62, "velocity": 111, "duration": 478}, {"note": 64, "velocity": 100, "duration": 384}, {"note": 0, "velocity": 0, "duration": 96}, {"note": 62, "velocity": 108, "duration": 191}, {"note": 59, "velocity": 100, "duration": 153}, {"note": 0, "velocity": 0, "duration": 87}, {"note": 62, "velocity": 108, "duration": 410}, {"note": 0, "velocity": 0, "duration": 70}, {"note": 59, "velocity": 102, "duration": 147}, {"note": 0, "velocity": 0, "duration": 93}, {"note": 57, "velocity": 87, "duration": 132}, {"note": 0, "velocity": 0, "duration": 108}, {"note": 59, "velocity": 108, "duration": 112}, {"note": 0, "velocity": 0, "duration": 128}, {"note": 59, "velocity": 105, "duration": 138}, {"note": 0, "velocity": 0, "duration": 102}, {"note": 57, "velocity": 102, "duration": 138}, {"note": 0, "velocity": 0, "duration": 102}, {"note": 55, "velocity": 97, "duration": 1918}, {"note": 0, "velocity": 0, "duration": 1442}, {"note": 67, "velocity": 97, "duration": 109}, {"note": 0, "velocity": 0, "duration": 131}, {"note": 67, "velocity": 100, "duration": 124}, {"note": 0, "velocity": 0, "duration": 116}, {"note": 67, "velocity": 108, "duration": 150}, {"note": 0, "velocity": 0, "duration": 90}, {"note": 69, "velocity": 92, "duration": 147}, {"note": 0, "velocity": 0, "duration": 93}, {"note": 69, "velocity": 102, "duration": 127}, {"note": 0, "velocity": 0, "duration": 113}, {"note": 69, "velocity": 114, "duration": 132}, {"note": 0, "velocity": 0, "duration": 108}, {"note": 64, "velocity": 114, "duration": 121}, {"note": 0, "velocity": 0, "duration": 119}, {"note": 62, "velocity": 114, "duration": 465}, {"note": 0, "velocity": 0, "duration": 255}, {"note": 69, "velocity": 111, "duration": 375}, {"note": 0, "velocity": 0, "duration": 105}, {"note": 69, "velocity": 114, "duration": 128}, {"note": 0, "velocity": 0, "duration": 112}, {"note": 69, "velocity": 102, "duration": 121}, {"note": 0, "velocity": 0, "duration": 119}, {"note": 64, "velocity": 105, "duration": 118}, {"note": 0, "velocity": 0, "duration": 122}, {"note": 62, "velocity": 105, "duration": 127}, {"note": 0, "velocity": 0, "duration": 113}, {"note": 62, "velocity": 102, "duration": 115}, {"note": 0, "velocity": 0, "duration": 125}, {"note": 62, "velocity": 100, "duration": 127}, {"note": 0, "velocity": 0, "duration": 113}, {"note": 64, "velocity": 114, "duration": 132}, {"note": 0, "velocity": 0, "duration": 108}, {"note": 67, "velocity": 94, "duration": 126}, {"note": 0, "velocity": 0, "duration": 114}, {"note": 67, "velocity": 102, "duration": 143}, {"note": 0, "velocity": 0, "duration": 97}, {"note": 65, "velocity": 97, "duration": 129}, {"note": 0, "velocity": 0, "duration": 111}, {"note": 64, "velocity": 111, "duration": 118}, {"note": 0, "velocity": 0, "duration": 122}, {"note": 62, "velocity": 114, "duration": 445}, {"note": 0, "velocity": 0, "duration": 275}, {"note": 67, "velocity": 111, "duration": 357}, {"note": 0, "velocity": 0, "duration": 123}, {"note": 67, "velocity": 108, "duration": 139}, {"note": 0, "velocity": 0, "duration": 101}, {"note": 65, "velocity": 105, "duration": 144}, {"note": 0, "velocity": 0, "duration": 96}, {"note": 64, "velocity": 111, "duration": 121}, {"note": 0, "velocity": 0, "duration": 119}, {"note": 62, "velocity": 105, "duration": 182}, {"note": 67, "velocity": 89, "duration": 118}, {"note": 0, "velocity": 0, "duration": 122}, {"note": 67, "velocity": 94, "duration": 106}, {"note": 0, "velocity": 0, "duration": 134}, {"note": 67, "velocity": 97, "duration": 138}, {"note": 0, "velocity": 0, "duration": 102}, {"note": 69, "velocity": 84, "duration": 121}, {"note": 0, "velocity": 0, "duration": 119}, {"note": 69, "velocity": 100, "duration": 118}, {"note": 0, "velocity": 0, "duration": 122}, {"note": 69, "velocity": 100, "duration": 127}, {"note": 0, "velocity": 0, "duration": 113}, {"note": 67, "velocity": 114, "duration": 127}, {"note": 0, "velocity": 0, "duration": 113}, {"note": 64, "velocity": 111, "duration": 436}, {"note": 0, "velocity": 0, "duration": 284}, {"note": 64, "velocity": 102, "duration": 127}, {"note": 0, "velocity": 0, "duration": 113}, {"note": 69, "velocity": 102, "duration": 115}, {"note": 0, "velocity": 0, "duration": 125}, {"note": 69, "velocity": 105, "duration": 129}, {"note": 0, "velocity": 0, "duration": 111}, {"note": 69, "velocity": 100, "duration": 138}, {"note": 0, "velocity": 0, "duration": 102}, {"note": 67, "velocity": 105, "duration": 103}, {"note": 0, "velocity": 0, "duration": 137}, {"note": 64, "velocity": 108, "duration": 103}, {"note": 0, "velocity": 0, "duration": 137}, {"note": 64, "velocity": 97, "duration": 124}, {"note": 0, "velocity": 0, "duration": 116}, {"note": 64, "velocity": 102, "duration": 121}, {"note": 0, "velocity": 0, "duration": 119}, {"note": 64, "velocity": 108, "duration": 112}, {"note": 0, "velocity": 0, "duration": 128}, {"note": 65, "velocity": 100, "duration": 124}, {"note": 0, "velocity": 0, "duration": 116}, {"note": 65, "velocity": 100, "duration": 112}, {"note": 0, "velocity": 0, "duration": 128}, {"note": 65, "velocity": 105, "duration": 121}, {"note": 0, "velocity": 0, "duration": 119}, {"note": 67, "velocity": 105, "duration": 135}, {"note": 0, "velocity": 0, "duration": 105}, {"note": 65, "velocity": 105, "duration": 127}, {"note": 0, "velocity": 0, "duration": 113}, {"note": 64, "velocity": 105, "duration": 115}, {"note": 0, "velocity": 0, "duration": 125}, {"note": 62, "velocity": 102, "duration": 118}, {"note": 0, "velocity": 0, "duration": 122}, {"note": 62, "velocity": 100, "duration": 129}, {"note": 0, "velocity": 0, "duration": 111}, {"note": 66, "velocity": 102, "duration": 112}, {"note": 0, "velocity": 0, "duration": 128}, {"note": 66, "velocity": 99, "duration": 121}, {"note": 0, "velocity": 0, "duration": 119}, {"note": 66, "velocity": 96, "duration": 127}, {"note": 0, "velocity": 0, "duration": 113}, {"note": 66, "velocity": 102, "duration": 258}, {"note": 0, "velocity": 0, "duration": 222}, {"note": 62, "velocity": 94, "duration": 132}, {"note": 0, "velocity": 0, "duration": 108}, {"note": 62, "velocity": 97, "duration": 144}, {"note": 0, "velocity": 0, "duration": 96}, {"note": 64, "velocity": 102, "duration": 138}, {"note": 0, "velocity": 0, "duration": 102}, {"note": 67, "velocity": 111, "duration": 795}, {"note": 0, "velocity": 0, "duration": 165}, {"note": 67, "velocity": 108, "duration": 1515}, {"note": 0, "velocity": 0, "duration": 165}, {"note": 67, "velocity": 111, "duration": 153}, {"note": 0, "velocity": 0, "duration": 87}, {"note": 66, "velocity": 112, "duration": 118}, {"note": 0, "velocity": 0, "duration": 122}, {"note": 64, "velocity": 105, "duration": 115}, {"note": 0, "velocity": 0, "duration": 125}, {"note": 62, "velocity": 100, "duration": 121}, {"note": 0, "velocity": 0, "duration": 119}, {"note": 60, "velocity": 114, "duration": 238}, {"note": 62, "velocity": 100, "duration": 936}, {"note": 0, "velocity": 0, "duration": 1704}, {"note": 67, "velocity": 105, "duration": 144}, {"note": 0, "velocity": 0, "duration": 96}, {"note": 66, "velocity": 109, "duration": 150}, {"note": 0, "velocity": 0, "duration": 90}, {"note": 64, "velocity": 105, "duration": 118}, {"note": 0, "velocity": 0, "duration": 122}, {"note": 62, "velocity": 100, "duration": 138}, {"note": 0, "velocity": 0, "duration": 102}, {"note": 64, "velocity": 111, "duration": 129}, {"note": 0, "velocity": 0, "duration": 111}, {"note": 67, "velocity": 108, "duration": 350}, {"note": 0, "velocity": 0, "duration": 130}, {"note": 62, "velocity": 111, "duration": 478}, {"note": 64, "velocity": 100, "duration": 384}, {"note": 0, "velocity": 0, "duration": 96}, {"note": 62, "velocity": 108, "duration": 191}, {"note": 59, "velocity": 100, "duration": 153}, {"note": 0, "velocity": 0, "duration": 87}, {"note": 62, "velocity": 108, "duration": 410}, {"note": 0, "velocity": 0, "duration": 70}, {"note": 59, "velocity": 102, "duration": 147}, {"note": 0, "velocity": 0, "duration": 93}, {"note": 57, "velocity": 87, "duration": 132}, {"note": 0, "velocity": 0, "duration": 108}, {"note": 59, "velocity": 108, "duration": 112}, {"note": 0, "velocity": 0, "duration": 128}, {"note": 59, "velocity": 105, "duration": 138}, {"note": 0, "velocity": 0, "duration": 102}, {"note": 57, "velocity": 102, "duration": 138}, {"note": 0, "velocity": 0, "duration": 102}, {"note": 55, "velocity": 97, "duration": 1918}, {"note": 0, "velocity": 0, "duration": 24482}, {"note": 62, "velocity": 94, "duration": 132}, {"note": 0, "velocity": 0, "duration": 108}, {"note": 62, "velocity": 97, "duration": 144}, {"note": 0, "velocity": 0, "duration": 96}, {"note": 64, "velocity": 102, "duration": 138}, {"note": 0, "velocity": 0, "duration": 102}, {"note": 67, "velocity": 111, "duration": 795}, {"note": 0, "velocity": 0, "duration": 165}, {"note": 67, "velocity": 108, "duration": 1515}, {"note": 0, "velocity": 0, "duration": 165}, {"note": 67, "velocity": 111, "duration": 153}, {"note": 0, "velocity": 0, "duration": 87}, {"note": 66, "velocity": 112, "duration": 118}, {"note": 0, "velocity": 0, "duration": 122}, {"note": 64, "velocity": 105, "duration": 115}, {"note": 0, "velocity": 0, "duration": 125}, {"note": 62, "velocity": 100, "duration": 121}, {"note": 0, "velocity": 0, "duration": 119}, {"note": 60, "velocity": 114, "duration": 238}, {"note": 62, "velocity": 100, "duration": 936}, {"note": 0, "velocity": 0, "duration": 1704}, {"note": 67, "velocity": 105, "duration": 144}, {"note": 0, "velocity": 0, "duration": 96}, {"note": 66, "velocity": 109, "duration": 150}, {"note": 0, "velocity": 0, "duration": 90}, {"note": 64, "velocity": 105, "duration": 118}, {"note": 0, "velocity": 0, "duration": 122}, {"note": 62, "velocity": 100, "duration": 138}, {"note": 0, "velocity": 0, "duration": 102}, {"note": 64, "velocity": 111, "duration": 129}, {"note": 0, "velocity": 0, "duration": 111}, {"note": 67, "velocity": 108, "duration": 350}, {"note": 0, "velocity": 0, "duration": 130}, {"note": 62, "velocity": 111, "duration": 478}, {"note": 64, "velocity": 100, "duration": 384}, {"note": 0, "velocity": 0, "duration": 96}, {"note": 62, "velocity": 108, "duration": 191}, {"note": 59, "velocity": 100, "duration": 153}, {"note": 0, "velocity": 0, "duration": 87}, {"note": 62, "velocity": 108, "duration": 410}, {"note": 0, "velocity": 0, "duration": 70}, {"note": 59, "velocity": 102, "duration": 147}, {"note": 0, "velocity": 0, "duration": 93}, {"note": 57, "velocity": 87, "duration": 132}, {"note": 0, "velocity": 0, "duration": 108}, {"note": 59, "velocity": 108, "duration": 112}, {"note": 0, "velocity": 0, "duration": 128}, {"note": 59, "velocity": 105, "duration": 138}, {"note": 0, "velocity": 0, "duration": 102}, {"note": 57, "velocity": 102, "duration": 138}, {"note": 0, "velocity": 0, "duration": 102}, {"note": 55, "velocity": 97, "duration": 1918}, {"note": 0, "velocity": 0, "duration": 1442}, {"note": 62, "velocity": 94, "duration": 132}, {"note": 0, "velocity": 0, "duration": 108}, {"note": 62, "velocity": 97, "duration": 144}, {"note": 0, "velocity": 0, "duration": 96}, {"note": 64, "velocity": 102, "duration": 138}, {"note": 0, "velocity": 0, "duration": 102}, {"note": 67, "velocity": 111, "duration": 795}, {"note": 0, "velocity": 0, "duration": 165}, {"note": 67, "velocity": 108, "duration": 1515}, {"note": 0, "velocity": 0, "duration": 165}, {"note": 67, "velocity": 111, "duration": 153}, {"note": 0, "velocity": 0, "duration": 87}, {"note": 66, "velocity": 112, "duration": 118}, {"note": 0, "velocity": 0, "duration": 122}, {"note": 64, "velocity": 105, "duration": 115}, {"note": 0, "velocity": 0, "duration": 125}, {"note": 62, "velocity": 100, "duration": 121}, {"note": 0, "velocity": 0, "duration": 119}, {"note": 60, "velocity": 114, "duration": 238}, {"note": 62, "velocity": 100, "duration": 936}, {"note": 0, "velocity": 0, "duration": 1704}, {"note": 67, "velocity": 105, "duration": 144}, {"note": 0, "velocity": 0, "duration": 96}, {"note": 66, "velocity": 109, "duration": 150}, {"note": 0, "velocity": 0, "duration": 90}, {"note": 64, "velocity": 105, "duration": 118}, {"note": 0, "velocity": 0, "duration": 122}, {"note": 62, "velocity": 100, "duration": 138}, {"note": 0, "velocity": 0, "duration": 102}, {"note": 64, "velocity": 111, "duration": 129}, {"note": 0, "velocity": 0, "duration": 111}, {"note": 67, "velocity": 108, "duration": 350}, {"note": 0, "velocity": 0, "duration": 130}, {"note": 62, "velocity": 111, "duration": 478}, {"note": 64, "velocity": 100, "duration": 384}, {"note": 0, "velocity": 0, "duration": 96}, {"note": 62, "velocity": 108, "duration": 191}, {"note": 59, "velocity": 100, "duration": 153}, {"note": 0, "velocity": 0, "duration": 87}, {"note": 62, "velocity": 108, "duration": 410}, {"note": 0, "velocity": 0, "duration": 70}, {"note": 59, "velocity": 102, "duration": 147}, {"note": 0, "velocity": 0, "duration": 93}, {"note": 57, "velocity": 87, "duration": 132}, {"note": 0, "velocity": 0, "duration": 108}, {"note": 59, "velocity": 108, "duration": 112}, {"note": 0, "velocity": 0, "duration": 128}, {"note": 59, "velocity": 105, "duration": 138}, {"note": 0, "velocity": 0, "duration": 102}, {"note": 57, "velocity": 102, "duration": 138}, {"note": 0, "velocity": 0, "duration": 102}, {"note": 55, "velocity": 97, "duration": 1918}, {"note": 0, "velocity": 0, "duration": 1442}, {"note": 67, "velocity": 97, "duration": 109}, {"note": 0, "velocity": 0, "duration": 131}, {"note": 67, "velocity": 100, "duration": 124}, {"note": 0, "velocity": 0, "duration": 116}, {"note": 67, "velocity": 108, "duration": 150}, {"note": 0, "velocity": 0, "duration": 90}, {"note": 69, "velocity": 92, "duration": 147}, {"note": 0, "velocity": 0, "duration": 93}, {"note": 69, "velocity": 102, "duration": 127}, {"note": 0, "velocity": 0, "duration": 113}, {"note": 69, "velocity": 114, "duration": 132}, {"note": 0, "velocity": 0, "duration": 108}, {"note": 64, "velocity": 114, "duration": 121}, {"note": 0, "velocity": 0, "duration": 119}, {"note": 62, "velocity": 114, "duration": 465}, {"note": 0, "velocity": 0, "duration": 255}, {"note": 69, "velocity": 111, "duration": 375}, {"note": 0, "velocity": 0, "duration": 105}, {"note": 69, "velocity": 114, "duration": 128}, {"note": 0, "velocity": 0, "duration": 112}, {"note": 69, "velocity": 102, "duration": 121}, {"note": 0, "velocity": 0, "duration": 119}, {"note": 64, "velocity": 105, "duration": 118}, {"note": 0, "velocity": 0, "duration": 122}, {"note": 62, "velocity": 105, "duration": 127}, {"note": 0, "velocity": 0, "duration": 113}, {"note": 62, "velocity": 102, "duration": 115}, {"note": 0, "velocity": 0, "duration": 125}, {"note": 62, "velocity": 100, "duration": 127}, {"note": 0, "velocity": 0, "duration": 113}, {"note": 64, "velocity": 114, "duration": 132}, {"note": 0, "velocity": 0, "duration": 108}, {"note": 67, "velocity": 94, "duration": 126}, {"note": 0, "velocity": 0, "duration": 114}, {"note": 67, "velocity": 102, "duration": 143}, {"note": 0, "velocity": 0, "duration": 97}, {"note": 65, "velocity": 97, "duration": 129}, {"note": 0, "velocity": 0, "duration": 111}, {"note": 64, "velocity": 111, "duration": 118}, {"note": 0, "velocity": 0, "duration": 122}, {"note": 62, "velocity": 114, "duration": 445}, {"note": 0, "velocity": 0, "duration": 275}, {"note": 67, "velocity": 111, "duration": 357}, {"note": 0, "velocity": 0, "duration": 123}, {"note": 67, "velocity": 108, "duration": 139}, {"note": 0, "velocity": 0, "duration": 101}, {"note": 65, "velocity": 105, "duration": 144}, {"note": 0, "velocity": 0, "duration": 96}, {"note": 64, "velocity": 111, "duration": 121}, {"note": 0, "velocity": 0, "duration": 119}, {"note": 62, "velocity": 105, "duration": 182}, {"note": 67, "velocity": 89, "duration": 118}, {"note": 0, "velocity": 0, "duration": 122}, {"note": 67, "velocity": 94, "duration": 106}, {"note": 0, "velocity": 0, "duration": 134}, {"note": 67, "velocity": 97, "duration": 138}, {"note": 0, "velocity": 0, "duration": 102}, {"note": 69, "velocity": 84, "duration": 121}, {"note": 0, "velocity": 0, "duration": 119}, {"note": 69, "velocity": 100, "duration": 118}, {"note": 0, "velocity": 0, "duration": 122}, {"note": 69, "velocity": 100, "duration": 127}, {"note": 0, "velocity": 0, "duration": 113}, {"note": 67, "velocity": 114, "duration": 127}, {"note": 0, "velocity": 0, "duration": 113}, {"note": 64, "velocity": 111, "duration": 436}, {"note": 0, "velocity": 0, "duration": 284}, {"note": 64, "velocity": 102, "duration": 127}, {"note": 0, "velocity": 0, "duration": 113}, {"note": 69, "velocity": 102, "duration": 115}, {"note": 0, "velocity": 0, "duration": 125}, {"note": 69, "velocity": 105, "duration": 129}, {"note": 0, "velocity": 0, "duration": 111}, {"note": 69, "velocity": 100, "duration": 138}, {"note": 0, "velocity": 0, "duration": 102}, {"note": 67, "velocity": 105, "duration": 103}, {"note": 0, "velocity": 0, "duration": 137}, {"note": 64, "velocity": 108, "duration": 103}, {"note": 0, "velocity": 0, "duration": 137}, {"note": 64, "velocity": 97, "duration": 124}, {"note": 0, "velocity": 0, "duration": 116}, {"note": 64, "velocity": 102, "duration": 121}, {"note": 0, "velocity": 0, "duration": 119}, {"note": 64, "velocity": 108, "duration": 112}, {"note": 0, "velocity": 0, "duration": 128}, {"note": 65, "velocity": 100, "duration": 124}, {"note": 0, "velocity": 0, "duration": 116}, {"note": 65, "velocity": 100, "duration": 112}, {"note": 0, "velocity": 0, "duration": 128}, {"note": 65, "velocity": 105, "duration": 121}, {"note": 0, "velocity": 0, "duration": 119}, {"note": 67, "velocity": 105, "duration": 135}, {"note": 0, "velocity": 0, "duration": 105}, {"note": 65, "velocity": 105, "duration": 127}, {"note": 0, "velocity": 0, "duration": 113}, {"note": 64, "velocity": 105, "duration": 115}, {"note": 0, "velocity": 0, "duration": 125}, {"note": 62, "velocity": 102, "duration": 118}, {"note": 0, "velocity": 0, "duration": 122}, {"note": 62, "velocity": 100, "duration": 129}, {"note": 0, "velocity": 0, "duration": 111}, {"note": 66, "velocity": 102, "duration": 112}, {"note": 0, "velocity": 0, "duration": 128}, {"note": 66, "velocity": 99, "duration": 121}, {"note": 0, "velocity": 0, "duration": 119}, {"note": 66, "velocity": 96, "duration": 127}, {"note": 0, "velocity": 0, "duration": 113}, {"note": 66, "velocity": 102, "duration": 258}, {"note": 0, "velocity": 0, "duration": 1182}, {"note": 62, "velocity": 94, "duration": 132}, {"note": 0, "velocity": 0, "duration": 108}, {"note": 62, "velocity": 97, "duration": 144}, {"note": 0, "velocity": 0, "duration": 96}, {"note": 64, "velocity": 102, "duration": 138}, {"note": 0, "velocity": 0, "duration": 102}, {"note": 67, "velocity": 111, "duration": 795}, {"note": 0, "velocity": 0, "duration": 165}, {"note": 67, "velocity": 108, "duration": 1515}, {"note": 0, "velocity": 0, "duration": 165}, {"note": 67, "velocity": 111, "duration": 153}, {"note": 0, "velocity": 0, "duration": 87}, {"note": 66, "velocity": 112, "duration": 118}, {"note": 0, "velocity": 0, "duration": 122}, {"note": 64, "velocity": 105, "duration": 115}, {"note": 0, "velocity": 0, "duration": 125}, {"note": 62, "velocity": 100, "duration": 121}, {"note": 0, "velocity": 0, "duration": 119}, {"note": 60, "velocity": 114, "duration": 238}, {"note": 62, "velocity": 100, "duration": 936}, {"note": 0, "velocity": 0, "duration": 1704}, {"note": 67, "velocity": 105, "duration": 144}, {"note": 0, "velocity": 0, "duration": 96}, {"note": 66, "velocity": 109, "duration": 150}, {"note": 0, "velocity": 0, "duration": 90}, {"note": 64, "velocity": 105, "duration": 118}, {"note": 0, "velocity": 0, "duration": 122}, {"note": 62, "velocity": 100, "duration": 138}, {"note": 0, "velocity": 0, "duration": 102}, {"note": 64, "velocity": 111, "duration": 129}, {"note": 0, "velocity": 0, "duration": 111}, {"note": 67, "velocity": 108, "duration": 350}, {"note": 0, "velocity": 0, "duration": 130}, {"note": 62, "velocity": 111, "duration": 478}, {"note": 64, "velocity": 100, "duration": 384}, {"note": 0, "velocity": 0, "duration": 96}, {"note": 62, "velocity": 108, "duration": 191}, {"note": 59, "velocity": 100, "duration": 153}, {"note": 0, "velocity": 0, "duration": 87}, {"note": 62, "velocity": 108, "duration": 410}, {"note": 0, "velocity": 0, "duration": 70}, {"note": 59, "velocity": 102, "duration": 147}, {"note": 0, "velocity": 0, "duration": 93}, {"note": 57, "velocity": 87, "duration": 132}, {"note": 0, "velocity": 0, "duration": 108}, {"note": 59, "velocity": 108, "duration": 112}, {"note": 0, "velocity": 0, "duration": 128}, {"note": 59, "velocity": 105, "duration": 138}, {"note": 0, "velocity": 0, "duration": 102}, {"note": 57, "velocity": 102, "duration": 138}, {"note": 0, "velocity": 0, "duration": 102}, {"note": 55, "velocity": 97, "duration": 1918}, {"note": 0, "velocity": 0, "duration": 1442}, {"note": 62, "velocity": 94, "duration": 132}, {"note": 0, "velocity": 0, "duration": 108}, {"note": 62, "velocity": 97, "duration": 144}, {"note": 0, "velocity": 0, "duration": 96}, {"note": 64, "velocity": 102, "duration": 138}, {"note": 0, "velocity": 0, "duration": 102}, {"note": 67, "velocity": 111, "duration": 795}, {"note": 0, "velocity": 0, "duration": 165}, {"note": 67, "velocity": 108, "duration": 1515}, {"note": 0, "velocity": 0, "duration": 165}, {"note": 67, "velocity": 111, "duration": 153}, {"note": 0, "velocity": 0, "duration": 87}, {"note": 66, "velocity": 112, "duration": 118}, {"note": 0, "velocity": 0, "duration": 122}, {"note": 64, "velocity": 105, "duration": 115}, {"note": 0, "velocity": 0, "duration": 125}, {"note": 62, "velocity": 100, "duration": 121}, {"note": 0, "velocity": 0, "duration": 119}, {"note": 60, "velocity": 114, "duration": 238}, {"note": 62, "velocity": 100, "duration": 936}, {"note": 0, "velocity": 0, "duration": 1704}, {"note": 67, "velocity": 105, "duration": 144}, {"note": 0, "velocity": 0, "duration": 96}, {"note": 66, "velocity": 109, "duration": 150}, {"note": 0, "velocity": 0, "duration": 90}, {"note": 64, "velocity": 105, "duration": 118}, {"note": 0, "velocity": 0, "duration": 122}, {"note": 62, "velocity": 100, "duration": 138}, {"note": 0, "velocity": 0, "duration": 102}, {"note": 64, "velocity": 111, "duration": 129}, {"note": 0, "velocity": 0, "duration": 111}, {"note": 67, "velocity": 108, "duration": 350}, {"note": 0, "velocity": 0, "duration": 130}, {"note": 62, "velocity": 111, "duration": 478}, {"note": 64, "velocity": 100, "duration": 384}, {"note": 0, "velocity": 0, "duration": 96}, {"note": 62, "velocity": 108, "duration": 191}, {"note": 59, "velocity": 100, "duration": 153}, {"note": 0, "velocity": 0, "duration": 87}, {"note": 62, "velocity": 108, "duration": 410}, {"note": 0, "velocity": 0, "duration": 70}, {"note": 59, "velocity": 102, "duration": 147}, {"note": 0, "velocity": 0, "duration": 93}, {"note": 57, "velocity": 87, "duration": 132}, {"note": 0, "velocity": 0, "duration": 108}, {"note": 59, "velocity": 108, "duration": 112}, {"note": 0, "velocity": 0, "duration": 128}, {"note": 59, "velocity": 105, "duration": 138}, {"note": 0, "velocity": 0, "duration": 102}, {"note": 57, "velocity": 102, "duration": 138}, {"note": 0, "velocity": 0, "duration": 102}, {"note": 55, "velocity": 97, "duration": 1918}, {"note": 0, "velocity": 0, "duration": 962}, {"note": 67, "velocity": 105, "duration": 144}, {"note": 0, "velocity": 0, "duration": 96}, {"note": 66, "velocity": 109, "duration": 150}, {"note": 0, "velocity": 0, "duration": 90}, {"note": 64, "velocity": 105, "duration": 118}, {"note": 0, "velocity": 0, "duration": 122}, {"note": 62, "velocity": 100, "duration": 138}, {"note": 0, "velocity": 0, "duration": 102}, {"note": 64, "velocity": 111, "duration": 129}, {"note": 0, "velocity": 0, "duration": 111}, {"note": 67, "velocity": 108, "duration": 350}, {"note": 0, "velocity": 0, "duration": 130}, {"note": 62, "velocity": 111, "duration": 478}, {"note": 64, "velocity": 100, "duration": 384}, {"note": 0, "velocity": 0, "duration": 96}, {"note": 62, "velocity": 108, "duration": 191}, {"note": 59, "velocity": 100, "duration": 153}, {"note": 0, "velocity": 0, "duration": 87}, {"note": 62, "velocity": 108, "duration": 410}, {"note": 0, "velocity": 0, "duration": 70}, {"note": 59, "velocity": 102, "duration": 147}, {"note": 0, "velocity": 0, "duration": 93}, {"note": 57, "velocity": 87, "duration": 132}, {"note": 0, "velocity": 0, "duration": 108}, {"note": 59, "velocity": 108, "duration": 112}, {"note": 0, "velocity": 0, "duration": 128}, {"note": 59, "velocity": 105, "duration": 138}, {"note": 0, "velocity": 0, "duration": 102}, {"note": 57, "velocity": 102, "duration": 138}, {"note": 0, "velocity": 0, "duration": 102}, {"note": 55, "velocity": 97, "duration": 1918}, {"note": 0, "velocity": 0, "duration": 482}, {"note": 67, "velocity": 105, "duration": 144}, {"note": 0, "velocity": 0, "duration": 96}, {"note": 66, "velocity": 109, "duration": 150}, {"note": 0, "velocity": 0, "duration": 90}, {"note": 64, "velocity": 105, "duration": 118}, {"note": 0, "velocity": 0, "duration": 122}, {"note": 62, "velocity": 100, "duration": 138}, {"note": 0, "velocity": 0, "duration": 102}, {"note": 64, "velocity": 111, "duration": 129}, {"note": 0, "velocity": 0, "duration": 111}, {"note": 67, "velocity": 108, "duration": 350}, {"note": 0, "velocity": 0, "duration": 130}, {"note": 62, "velocity": 111, "duration": 478}, {"note": 64, "velocity": 100, "duration": 384}, {"note": 0, "velocity": 0, "duration": 96}, {"note": 62, "velocity": 108, "duration": 191}, {"note": 59, "velocity": 100, "duration": 153}, {"note": 0, "velocity": 0, "duration": 87}, {"note": 62, "velocity": 108, "duration": 410}, {"note": 0, "velocity": 0, "duration": 70}, {"note": 59, "velocity": 102, "duration": 147}, {"note": 0, "velocity": 0, "duration": 93}, {"note": 57, "velocity": 87, "duration": 132}, {"note": 0, "velocity": 0, "duration": 108}, {"note": 59, "velocity": 108, "duration": 265}, {"note": 59, "velocity": 105, "duration": 312}, {"note": 0, "velocity": 0, "duration": 68}, {"note": 57, "velocity": 102, "duration": 279}, {"note": 0, "velocity": 0, "duration": 114}, {"note": 55, "velocity": 97, "duration": 1918}]]