[[{"note": 62, "velocity": 94, "duration": 479}, {"note": 62, "velocity": 80, "duration": 240}, {"note": 60, "velocity": 100, "duration": 240}, {"note": 62, "velocity": 92, "duration": 240}, {"note": 64, "velocity": 97, "duration": 240}, {"note": 65, "velocity": 92, "duration": 480}, {"note": 58, "velocity": 105, "duration": 240}, {"note": 65, "velocity": 97, "duration": 240}, {"note": 64, "velocity": 105, "duration": 240}, {"note": 65, "velocity": 100, "duration": 240}, {"note": 64, "velocity": 97, "duration": 959}, {"note": 64, "velocity": 100, "duration": 479}, {"note": 64, "velocity": 94, "duration": 240}, {"note": 62, "velocity": 89, "duration": 240}, {"note": 61, "velocity": 85, "duration": 360}, {"note": 57, "velocity": 111, "duration": 413}, {"note": 64, "velocity": 108, "duration": 480}, {"note": 62, "velocity": 92, "duration": 1679}, {"note": 62, "velocity": 89, "duration": 479}, {"note": 62, "velocity": 92, "duration": 240}, {"note": 60, "velocity": 111, "duration": 240}, {"note": 62, "velocity": 102, "duration": 240}, {"note": 64, "velocity": 100, "duration": 240}, {"note": 65, "velocity": 105, "duration": 480}, {"note": 58, "velocity": 93, "duration": 720}, {"note": 65, "velocity": 105, "duration": 240}, {"note": 64, "velocity": 102, "duration": 720}, {"note": 65, "velocity": 114, "duration": 240}, {"note": 67, "velocity": 105, "duration": 719}, {"note": 67, "velocity": 102, "duration": 240}, {"note": 64, "velocity": 92, "duration": 360}, {"note": 64, "velocity": 92, "duration": 360}, {"note": 60, "velocity": 94, "duration": 240}, {"note": 62, "velocity": 100, "duration": 3599}, {"note": 62, "velocity": 100, "duration": 240}, {"note": 65, "velocity": 102, "duration": 720}, {"note": 64, "velocity": 111, "duration": 240}, {"note": 62, "velocity": 111, "duration": 720}, {"note": 69, "velocity": 100, "duration": 480}, {"note": 67, "velocity": 102, "duration": 1440}, {"note": 65, "velocity": 94, "duration": 240}, {"note": 67, "velocity": 102, "duration": 959}, {"note": 67, "velocity": 108, "duration": 719}, {"note": 67, "velocity": 102, "duration": 240}, {"note": 65, "velocity": 102, "duration": 725}, {"note": 62, "velocity": 100, "duration": 1200}, {"note": 69, "velocity": 102, "duration": 360}, {"note": 67, "velocity": 94, "duration": 120}, {"note": 69, "velocity": 108, "duration": 240}, {"note": 67, "velocity": 102, "duration": 240}, {"note": 65, "velocity": 105, "duration": 480}, {"note": 62, "velocity": 105, "duration": 480}, {"note": 67, "velocity": 50, "duration": 240}, {"note": 65, "velocity": 100, "duration": 240}, {"note": 67, "velocity": 105, "duration": 240}, {"note": 65, "velocity": 97, "duration": 240}, {"note": 64, "velocity": 105, "duration": 480}, {"note": 62, "velocity": 102, "duration": 480}, {"note": 65, "velocity": 100, "duration": 720}, {"note": 64, "velocity": 100, "duration": 240}, {"note": 65, "velocity": 100, "duration": 719}, {"note": 65, "velocity": 100, "duration": 240}, {"note": 67, "velocity": 108, "duration": 720}, {"note": 65, "velocity": 82, "duration": 240}, {"note": 67, "velocity": 108, "duration": 1439}, {"note": 67, "velocity": 102, "duration": 240}, {"note": 69, "velocity": 100, "duration": 240}, {"note": 67, "velocity": 108, "duration": 720}, {"note": 60, "velocity": 105, "duration": 240}, {"note": 62, "velocity": 102, "duration": 2958}, {"note": 0, "velocity": 0, "duration": 16242}, {"note": 62, "velocity": 94, "duration": 479}, {"note": 62, "velocity": 80, "duration": 240}, {"note": 60, "velocity": 100, "duration": 240}, {"note": 62, "velocity": 92, "duration": 240}, {"note": 64, "velocity": 97, "duration": 240}, {"note": 65, "velocity": 92, "duration": 480}, {"note": 58, "velocity": 105, "duration": 240}, {"note": 65, "velocity": 97, "duration": 240}, {"note": 64, "velocity": 105, "duration": 240}, {"note": 65, "velocity": 100, "duration": 240}, {"note": 64, "velocity": 97, "duration": 959}, {"note": 64, "velocity": 100, "duration": 479}, {"note": 64, "velocity": 94, "duration": 240}, {"note": 62, "velocity": 89, "duration": 240}, {"note": 61, "velocity": 85, "duration": 360}, {"note": 57, "velocity": 111, "duration": 413}, {"note": 64, "velocity": 108, "duration": 480}, {"note": 62, "velocity": 92, "duration": 1679}, {"note": 62, "velocity": 89, "duration": 479}, {"note": 62, "velocity": 92, "duration": 240}, {"note": 60, "velocity": 111, "duration": 240}, {"note": 62, "velocity": 102, "duration": 240}, {"note": 64, "velocity": 100, "duration": 240}, {"note": 65, "velocity": 105, "duration": 480}, {"note": 58, "velocity": 93, "duration": 720}, {"note": 65, "velocity": 105, "duration": 240}, {"note": 64, "velocity": 102, "duration": 720}, {"note": 65, "velocity": 114, "duration": 240}, {"note": 67, "velocity": 105, "duration": 719}, {"note": 67, "velocity": 102, "duration": 240}, {"note": 64, "velocity": 92, "duration": 360}, {"note": 64, "velocity": 92, "duration": 360}, {"note": 60, "velocity": 94, "duration": 240}, {"note": 62, "velocity": 100, "duration": 3599}, {"note": 62, "velocity": 100, "duration": 240}, {"note": 65, "velocity": 102, "duration": 720}, {"note": 64, "velocity": 111, "duration": 240}, {"note": 62, "velocity": 111, "duration": 720}, {"note": 69, "velocity": 100, "duration": 480}, {"note": 67, "velocity": 102, "duration": 1440}, {"note": 65, "velocity": 94, "duration": 240}, {"note": 67, "velocity": 102, "duration": 959}, {"note": 67, "velocity": 108, "duration": 719}, {"note": 67, "velocity": 102, "duration": 240}, {"note": 65, "velocity": 102, "duration": 725}, {"note": 62, "velocity": 100, "duration": 1200}, {"note": 69, "velocity": 102, "duration": 360}, {"note": 67, "velocity": 94, "duration": 120}, {"note": 69, "velocity": 108, "duration": 240}, {"note": 67, "velocity": 102, "duration": 240}, {"note": 65, "velocity": 105, "duration": 480}, {"note": 62, "velocity": 105, "duration": 480}, {"note": 67, "velocity": 50, "duration": 240}, {"note": 65, "velocity": 100, "duration": 240}, {"note": 67, "velocity": 105, "duration": 240}, {"note": 65, "velocity": 97, "duration": 240}, {"note": 64, "velocity": 105, "duration": 480}, {"note": 62, "velocity": 102, "duration": 480}, {"note": 65, "velocity": 100, "duration": 720}, {"note": 64, "velocity": 100, "duration": 240}, {"note": 65, "velocity": 100, "duration": 719}, {"note": 65, "velocity": 100, "duration": 240}, {"note": 67, "velocity": 108, "duration": 720}, {"note": 65, "velocity": 82, "duration": 240}, {"note": 67, "velocity": 108, "duration": 1439}, {"note": 67, "velocity": 102, "duration": 240}, {"note": 69, "velocity": 100, "duration": 240}, {"note": 67, "velocity": 108, "duration": 720}, {"note": 60, "velocity": 105, "duration": 240}, {"note": 62, "velocity": 102, "duration": 2958}, {"note": 0, "velocity": 0, "duration": 16002}, {"note": 62, "velocity": 100, "duration": 240}, {"note": 65, "velocity": 102, "duration": 720}, {"note": 64, "velocity": 111, "duration": 240}, {"note": 62, "velocity": 111, "duration": 720}, {"note": 69, "velocity": 100, "duration": 480}, {"note": 67, "velocity": 102, "duration": 1440}, {"note": 65, "velocity": 94, "duration": 240}, {"note": 67, "velocity": 102, "duration": 959}, {"note": 67, "velocity": 108, "duration": 719}, {"note": 67, "velocity": 102, "duration": 240}, {"note": 65, "velocity": 102, "duration": 725}, {"note": 62, "velocity": 100, "duration": 1200}, {"note": 69, "velocity": 102, "duration": 360}, {"note": 67, "velocity": 94, "duration": 120}, {"note": 69, "velocity": 108, "duration": 240}, {"note": 67, "velocity": 102, "duration": 240}, {"note": 65, "velocity": 105, "duration": 480}, {"note": 62, "velocity": 105, "duration": 480}, {"note": 67, "velocity": 50, "duration": 240}, {"note": 65, "velocity": 100, "duration": 240}, {"note": 67, "velocity": 105, "duration": 240}, {"note": 65, "velocity": 97, "duration": 240}, {"note": 64, "velocity": 105, "duration": 480}, {"note": 62, "velocity": 102, "duration": 480}, {"note": 65, "velocity": 100, "duration": 720}, {"note": 64, "velocity": 100, "duration": 240}, {"note": 65, "velocity": 100, "duration": 719}, {"note": 65, "velocity": 100, "duration": 240}, {"note": 67, "velocity": 108, "duration": 720}, {"note": 65, "velocity": 82, "duration": 240}, {"note": 67, "velocity": 108, "duration": 1439}, {"note": 67, "velocity": 102, "duration": 240}, {"note": 69, "velocity": 100, "duration": 240}, {"note": 67, "velocity": 108, "duration": 720}, {"note": 60, "velocity": 105, "duration": 240}, {"note": 62, "velocity": 102, "duration": 2958}]]