[[{"note": 63, "velocity": 92, "duration": 64}, {"note": 63, "velocity": 94, "duration": 59}, {"note": 0, "velocity": 0, "duration": 61}, {"note": 63, "velocity": 102, "duration": 261}, {"note": 0, "velocity": 0, "duration": 99}, {"note": 65, "velocity": 102, "duration": 77}, {"note": 67, "velocity": 96, "duration": 173}, {"note": 0, "velocity": 0, "duration": 67}, {"note": 70, "velocity": 105, "duration": 153}, {"note": 0, "velocity": 0, "duration": 87}, {"note": 67, "velocity": 105, "duration": 95}, {"note": 65, "velocity": 100, "duration": 60}, {"note": 63, "velocity": 108, "duration": 191}, {"note": 60, "velocity": 108, "duration": 1295}, {"note": 0, "velocity": 0, "duration": 865}, {"note": 63, "velocity": 97, "duration": 69}, {"note": 63, "velocity": 97, "duration": 62}, {"note": 63, "velocity": 100, "duration": 254}, {"note": 0, "velocity": 0, "duration": 76}, {"note": 65, "velocity": 92, "duration": 83}, {"note": 67, "velocity": 109, "duration": 188}, {"note": 70, "velocity": 100, "duration": 165}, {"note": 0, "velocity": 0, "duration": 75}, {"note": 67, "velocity": 105, "duration": 109}, {"note": 65, "velocity": 97, "duration": 72}, {"note": 63, "velocity": 97, "duration": 182}, {"note": 0, "velocity": 0, "duration": 73}, {"note": 65, "velocity": 105, "duration": 782}, {"note": 0, "velocity": 0, "duration": 1408}, {"note": 72, "velocity": 105, "duration": 70}, {"note": 72, "velocity": 97, "duration": 64}, {"note": 72, "velocity": 97, "duration": 59}, {"note": 0, "velocity": 0, "duration": 61}, {"note": 72, "velocity": 102, "duration": 170}, {"note": 70, "velocity": 100, "duration": 90}, {"note": 72, "velocity": 111, "duration": 192}, {"note": 75, "velocity": 111, "duration": 419}, {"note": 0, "velocity": 0, "duration": 91}, {"note": 72, "velocity": 105, "duration": 69}, {"note": 72, "velocity": 94, "duration": 75}, {"note": 70, "velocity": 102, "duration": 153}, {"note": 0, "velocity": 0, "duration": 72}, {"note": 70, "velocity": 114, "duration": 171}, {"note": 0, "velocity": 0, "duration": 324}, {"note": 67, "velocity": 105, "duration": 159}, {"note": 65, "velocity": 105, "duration": 91}, {"note": 63, "velocity": 97, "duration": 484}, {"note": 0, "velocity": 0, "duration": 716}, {"note": 65, "velocity": 105, "duration": 64}, {"note": 65, "velocity": 89, "duration": 69}, {"note": 65, "velocity": 97, "duration": 64}, {"note": 65, "velocity": 100, "duration": 174}, {"note": 0, "velocity": 0, "duration": 66}, {"note": 63, "velocity": 100, "duration": 77}, {"note": 67, "velocity": 102, "duration": 192}, {"note": 65, "velocity": 105, "duration": 65}, {"note": 65, "velocity": 114, "duration": 120}, {"note": 63, "velocity": 105, "duration": 199}, {"note": 60, "velocity": 94, "duration": 91}, {"note": 63, "velocity": 108, "duration": 65}, {"note": 65, "velocity": 105, "duration": 1846}, {"note": 0, "velocity": 0, "duration": 314}, {"note": 63, "velocity": 92, "duration": 64}, {"note": 63, "velocity": 94, "duration": 59}, {"note": 0, "velocity": 0, "duration": 61}, {"note": 63, "velocity": 102, "duration": 261}, {"note": 0, "velocity": 0, "duration": 99}, {"note": 65, "velocity": 102, "duration": 77}, {"note": 67, "velocity": 96, "duration": 173}, {"note": 0, "velocity": 0, "duration": 67}, {"note": 70, "velocity": 105, "duration": 153}, {"note": 0, "velocity": 0, "duration": 87}, {"note": 67, "velocity": 105, "duration": 95}, {"note": 65, "velocity": 100, "duration": 60}, {"note": 63, "velocity": 108, "duration": 191}, {"note": 60, "velocity": 108, "duration": 1295}, {"note": 0, "velocity": 0, "duration": 865}, {"note": 63, "velocity": 97, "duration": 69}, {"note": 63, "velocity": 97, "duration": 62}, {"note": 63, "velocity": 100, "duration": 254}, {"note": 0, "velocity": 0, "duration": 76}, {"note": 65, "velocity": 92, "duration": 83}, {"note": 67, "velocity": 109, "duration": 188}, {"note": 70, "velocity": 100, "duration": 165}, {"note": 0, "velocity": 0, "duration": 75}, {"note": 67, "velocity": 105, "duration": 109}, {"note": 65, "velocity": 97, "duration": 72}, {"note": 63, "velocity": 97, "duration": 182}, {"note": 0, "velocity": 0, "duration": 73}, {"note": 65, "velocity": 105, "duration": 782}, {"note": 0, "velocity": 0, "duration": 1378}, {"note": 72, "velocity": 105, "duration": 70}, {"note": 72, "velocity": 97, "duration": 64}, {"note": 72, "velocity": 97, "duration": 59}, {"note": 0, "velocity": 0, "duration": 61}, {"note": 72, "velocity": 102, "duration": 170}, {"note": 0, "velocity": 0, "duration": 70}, {"note": 70, "velocity": 100, "duration": 90}, {"note": 72, "velocity": 111, "duration": 192}, {"note": 75, "velocity": 111, "duration": 419}, {"note": 0, "velocity": 0, "duration": 61}, {"note": 72, "velocity": 105, "duration": 69}, {"note": 72, "velocity": 94, "duration": 75}, {"note": 70, "velocity": 102, "duration": 153}, {"note": 0, "velocity": 0, "duration": 87}, {"note": 70, "velocity": 114, "duration": 171}, {"note": 0, "velocity": 0, "duration": 309}, {"note": 67, "velocity": 105, "duration": 159}, {"note": 65, "velocity": 105, "duration": 91}, {"note": 63, "velocity": 97, "duration": 484}, {"note": 0, "velocity": 0, "duration": 716}, {"note": 65, "velocity": 105, "duration": 64}, {"note": 65, "velocity": 89, "duration": 69}, {"note": 65, "velocity": 97, "duration": 64}, {"note": 65, "velocity": 100, "duration": 174}, {"note": 0, "velocity": 0, "duration": 66}, {"note": 67, "velocity": 100, "duration": 77}, {"note": 68, "velocity": 102, "duration": 192}, {"note": 75, "velocity": 105, "duration": 240}, {"note": 72, "velocity": 114, "duration": 120}, {"note": 70, "velocity": 105, "duration": 120}, {"note": 0, "velocity": 0, "duration": 120}, {"note": 72, "velocity": 108, "duration": 120}, {"note": 70, "velocity": 105, "duration": 1846}, {"note": 0, "velocity": 0, "duration": 314}, {"note": 79, "velocity": 112, "duration": 74}, {"note": 79, "velocity": 93, "duration": 74}, {"note": 79, "velocity": 93, "duration": 67}, {"note": 79, "velocity": 109, "duration": 159}, {"note": 0, "velocity": 0, "duration": 201}, {"note": 79, "velocity": 112, "duration": 188}, {"note": 77, "velocity": 111, "duration": 163}, {"note": 0, "velocity": 0, "duration": 77}, {"note": 75, "velocity": 108, "duration": 72}, {"note": 77, "velocity": 111, "duration": 261}, {"note": 0, "velocity": 0, "duration": 99}, {"note": 75, "velocity": 105, "duration": 77}, {"note": 72, "velocity": 114, "duration": 1436}, {"note": 0, "velocity": 0, "duration": 604}, {"note": 77, "velocity": 105, "duration": 69}, {"note": 77, "velocity": 105, "duration": 65}, {"note": 77, "velocity": 102, "duration": 56}, {"note": 0, "velocity": 0, "duration": 64}, {"note": 77, "velocity": 108, "duration": 188}, {"note": 75, "velocity": 94, "duration": 90}, {"note": 79, "velocity": 116, "duration": 145}, {"note": 0, "velocity": 0, "duration": 95}, {"note": 77, "velocity": 105, "duration": 153}, {"note": 0, "velocity": 0, "duration": 87}, {"note": 75, "velocity": 111, "duration": 64}, {"note": 72, "velocity": 108, "duration": 179}, {"note": 0, "velocity": 0, "duration": 61}, {"note": 75, "velocity": 102, "duration": 67}, {"note": 77, "velocity": 100, "duration": 1677}, {"note": 0, "velocity": 0, "duration": 483}, {"note": 79, "velocity": 109, "duration": 71}, {"note": 79, "velocity": 96, "duration": 59}, {"note": 0, "velocity": 0, "duration": 61}, {"note": 79, "velocity": 109, "duration": 150}, {"note": 0, "velocity": 0, "duration": 90}, {"note": 79, "velocity": 109, "duration": 65}, {"note": 79, "velocity": 109, "duration": 64}, {"note": 77, "velocity": 114, "duration": 274}, {"note": 0, "velocity": 0, "duration": 86}, {"note": 79, "velocity": 112, "duration": 202}, {"note": 0, "velocity": 0, "duration": 158}, {"note": 77, "velocity": 102, "duration": 70}, {"note": 79, "velocity": 112, "duration": 65}, {"note": 82, "velocity": 108, "duration": 232}, {"note": 0, "velocity": 0, "duration": 128}, {"note": 79, "velocity": 109, "duration": 166}, {"note": 0, "velocity": 0, "duration": 74}, {"note": 77, "velocity": 105, "duration": 161}, {"note": 0, "velocity": 0, "duration": 79}, {"note": 75, "velocity": 105, "duration": 75}, {"note": 72, "velocity": 111, "duration": 959}, {"note": 0, "velocity": 0, "duration": 241}, {"note": 77, "velocity": 102, "duration": 65}, {"note": 77, "velocity": 94, "duration": 67}, {"note": 77, "velocity": 114, "duration": 168}, {"note": 0, "velocity": 0, "duration": 72}, {"note": 77, "velocity": 108, "duration": 75}, {"note": 75, "velocity": 89, "duration": 79}, {"note": 79, "velocity": 116, "duration": 155}, {"note": 0, "velocity": 0, "duration": 85}, {"note": 77, "velocity": 94, "duration": 64}, {"note": 77, "velocity": 94, "duration": 70}, {"note": 75, "velocity": 108, "duration": 183}, {"note": 72, "velocity": 108, "duration": 78}, {"note": 75, "velocity": 94, "duration": 69}, {"note": 72, "velocity": 114, "duration": 183}, {"note": 70, "velocity": 111, "duration": 1625}, {"note": 0, "velocity": 0, "duration": 295}, {"note": 79, "velocity": 112, "duration": 74}, {"note": 79, "velocity": 93, "duration": 74}, {"note": 79, "velocity": 93, "duration": 67}, {"note": 79, "velocity": 109, "duration": 159}, {"note": 0, "velocity": 0, "duration": 201}, {"note": 79, "velocity": 112, "duration": 188}, {"note": 77, "velocity": 111, "duration": 163}, {"note": 0, "velocity": 0, "duration": 77}, {"note": 75, "velocity": 108, "duration": 72}, {"note": 77, "velocity": 111, "duration": 261}, {"note": 0, "velocity": 0, "duration": 99}, {"note": 75, "velocity": 105, "duration": 77}, {"note": 72, "velocity": 114, "duration": 1436}, {"note": 0, "velocity": 0, "duration": 604}, {"note": 77, "velocity": 105, "duration": 69}, {"note": 77, "velocity": 105, "duration": 65}, {"note": 77, "velocity": 102, "duration": 56}, {"note": 0, "velocity": 0, "duration": 64}, {"note": 77, "velocity": 108, "duration": 188}, {"note": 75, "velocity": 94, "duration": 90}, {"note": 79, "velocity": 116, "duration": 145}, {"note": 0, "velocity": 0, "duration": 95}, {"note": 77, "velocity": 105, "duration": 153}, {"note": 0, "velocity": 0, "duration": 87}, {"note": 75, "velocity": 111, "duration": 64}, {"note": 72, "velocity": 108, "duration": 179}, {"note": 0, "velocity": 0, "duration": 61}, {"note": 75, "velocity": 102, "duration": 67}, {"note": 77, "velocity": 100, "duration": 1677}, {"note": 0, "velocity": 0, "duration": 483}, {"note": 79, "velocity": 109, "duration": 71}, {"note": 79, "velocity": 96, "duration": 59}, {"note": 0, "velocity": 0, "duration": 61}, {"note": 79, "velocity": 109, "duration": 150}, {"note": 0, "velocity": 0, "duration": 90}, {"note": 79, "velocity": 109, "duration": 65}, {"note": 79, "velocity": 109, "duration": 64}, {"note": 77, "velocity": 114, "duration": 274}, {"note": 0, "velocity": 0, "duration": 86}, {"note": 79, "velocity": 112, "duration": 202}, {"note": 0, "velocity": 0, "duration": 158}, {"note": 77, "velocity": 102, "duration": 70}, {"note": 79, "velocity": 112, "duration": 65}, {"note": 82, "velocity": 108, "duration": 232}, {"note": 0, "velocity": 0, "duration": 128}, {"note": 79, "velocity": 109, "duration": 166}, {"note": 0, "velocity": 0, "duration": 74}, {"note": 77, "velocity": 105, "duration": 161}, {"note": 0, "velocity": 0, "duration": 79}, {"note": 75, "velocity": 105, "duration": 75}, {"note": 72, "velocity": 111, "duration": 959}, {"note": 0, "velocity": 0, "duration": 241}, {"note": 77, "velocity": 102, "duration": 65}, {"note": 77, "velocity": 94, "duration": 67}, {"note": 77, "velocity": 114, "duration": 168}, {"note": 0, "velocity": 0, "duration": 72}, {"note": 77, "velocity": 108, "duration": 75}, {"note": 75, "velocity": 89, "duration": 79}, {"note": 79, "velocity": 116, "duration": 155}, {"note": 0, "velocity": 0, "duration": 85}, {"note": 77, "velocity": 94, "duration": 240}, {"note": 75, "velocity": 108, "duration": 183}, {"note": 72, "velocity": 108, "duration": 78}, {"note": 75, "velocity": 94, "duration": 240}, {"note": 0, "velocity": 0, "duration": 120}, {"note": 75, "velocity": 114, "duration": 1680}, {"note": 0, "velocity": 0, "duration": 17520}, {"note": 63, "velocity": 92, "duration": 64}, {"note": 63, "velocity": 94, "duration": 59}, {"note": 0, "velocity": 0, "duration": 61}, {"note": 63, "velocity": 102, "duration": 261}, {"note": 0, "velocity": 0, "duration": 99}, {"note": 65, "velocity": 102, "duration": 77}, {"note": 67, "velocity": 96, "duration": 173}, {"note": 0, "velocity": 0, "duration": 67}, {"note": 70, "velocity": 105, "duration": 153}, {"note": 0, "velocity": 0, "duration": 87}, {"note": 67, "velocity": 105, "duration": 95}, {"note": 65, "velocity": 100, "duration": 60}, {"note": 63, "velocity": 108, "duration": 191}, {"note": 60, "velocity": 108, "duration": 1295}, {"note": 0, "velocity": 0, "duration": 865}, {"note": 63, "velocity": 97, "duration": 69}, {"note": 63, "velocity": 97, "duration": 62}, {"note": 63, "velocity": 100, "duration": 254}, {"note": 0, "velocity": 0, "duration": 76}, {"note": 65, "velocity": 92, "duration": 83}, {"note": 67, "velocity": 109, "duration": 188}, {"note": 70, "velocity": 100, "duration": 165}, {"note": 0, "velocity": 0, "duration": 75}, {"note": 67, "velocity": 105, "duration": 109}, {"note": 65, "velocity": 97, "duration": 72}, {"note": 63, "velocity": 97, "duration": 182}, {"note": 0, "velocity": 0, "duration": 73}, {"note": 65, "velocity": 105, "duration": 782}, {"note": 0, "velocity": 0, "duration": 1378}, {"note": 72, "velocity": 105, "duration": 70}, {"note": 72, "velocity": 97, "duration": 64}, {"note": 72, "velocity": 97, "duration": 59}, {"note": 0, "velocity": 0, "duration": 61}, {"note": 72, "velocity": 102, "duration": 170}, {"note": 0, "velocity": 0, "duration": 70}, {"note": 70, "velocity": 100, "duration": 90}, {"note": 72, "velocity": 111, "duration": 192}, {"note": 75, "velocity": 111, "duration": 419}, {"note": 0, "velocity": 0, "duration": 61}, {"note": 72, "velocity": 105, "duration": 69}, {"note": 72, "velocity": 94, "duration": 75}, {"note": 70, "velocity": 102, "duration": 153}, {"note": 0, "velocity": 0, "duration": 87}, {"note": 70, "velocity": 114, "duration": 171}, {"note": 0, "velocity": 0, "duration": 309}, {"note": 67, "velocity": 105, "duration": 159}, {"note": 65, "velocity": 105, "duration": 91}, {"note": 63, "velocity": 97, "duration": 484}, {"note": 0, "velocity": 0, "duration": 716}, {"note": 65, "velocity": 105, "duration": 64}, {"note": 65, "velocity": 89, "duration": 69}, {"note": 65, "velocity": 97, "duration": 64}, {"note": 65, "velocity": 100, "duration": 174}, {"note": 0, "velocity": 0, "duration": 66}, {"note": 67, "velocity": 100, "duration": 77}, {"note": 68, "velocity": 102, "duration": 192}, {"note": 75, "velocity": 105, "duration": 240}, {"note": 72, "velocity": 114, "duration": 120}, {"note": 70, "velocity": 105, "duration": 120}, {"note": 0, "velocity": 0, "duration": 120}, {"note": 72, "velocity": 108, "duration": 120}, {"note": 70, "velocity": 105, "duration": 1846}, {"note": 0, "velocity": 0, "duration": 314}, {"note": 79, "velocity": 112, "duration": 74}, {"note": 79, "velocity": 93, "duration": 74}, {"note": 79, "velocity": 93, "duration": 67}, {"note": 79, "velocity": 109, "duration": 159}, {"note": 0, "velocity": 0, "duration": 201}, {"note": 79, "velocity": 112, "duration": 188}, {"note": 77, "velocity": 111, "duration": 163}, {"note": 0, "velocity": 0, "duration": 77}, {"note": 75, "velocity": 108, "duration": 72}, {"note": 77, "velocity": 111, "duration": 261}, {"note": 0, "velocity": 0, "duration": 99}, {"note": 75, "velocity": 105, "duration": 77}, {"note": 72, "velocity": 114, "duration": 1436}, {"note": 0, "velocity": 0, "duration": 604}, {"note": 77, "velocity": 105, "duration": 69}, {"note": 77, "velocity": 105, "duration": 65}, {"note": 77, "velocity": 102, "duration": 56}, {"note": 0, "velocity": 0, "duration": 64}, {"note": 77, "velocity": 108, "duration": 188}, {"note": 75, "velocity": 94, "duration": 90}, {"note": 79, "velocity": 116, "duration": 145}, {"note": 0, "velocity": 0, "duration": 95}, {"note": 77, "velocity": 105, "duration": 153}, {"note": 0, "velocity": 0, "duration": 87}, {"note": 75, "velocity": 111, "duration": 64}, {"note": 72, "velocity": 108, "duration": 179}, {"note": 0, "velocity": 0, "duration": 61}, {"note": 75, "velocity": 102, "duration": 67}, {"note": 77, "velocity": 100, "duration": 1677}, {"note": 0, "velocity": 0, "duration": 483}, {"note": 79, "velocity": 109, "duration": 71}, {"note": 79, "velocity": 96, "duration": 59}, {"note": 0, "velocity": 0, "duration": 61}, {"note": 79, "velocity": 109, "duration": 150}, {"note": 0, "velocity": 0, "duration": 90}, {"note": 79, "velocity": 109, "duration": 65}, {"note": 79, "velocity": 109, "duration": 64}, {"note": 77, "velocity": 114, "duration": 274}, {"note": 0, "velocity": 0, "duration": 86}, {"note": 79, "velocity": 112, "duration": 202}, {"note": 0, "velocity": 0, "duration": 158}, {"note": 77, "velocity": 102, "duration": 70}, {"note": 79, "velocity": 112, "duration": 65}, {"note": 82, "velocity": 108, "duration": 232}, {"note": 0, "velocity": 0, "duration": 128}, {"note": 79, "velocity": 109, "duration": 166}, {"note": 0, "velocity": 0, "duration": 74}, {"note": 77, "velocity": 105, "duration": 161}, {"note": 0, "velocity": 0, "duration": 79}, {"note": 75, "velocity": 105, "duration": 75}, {"note": 72, "velocity": 111, "duration": 959}, {"note": 0, "velocity": 0, "duration": 241}, {"note": 77, "velocity": 102, "duration": 65}, {"note": 77, "velocity": 94, "duration": 67}, {"note": 77, "velocity": 114, "duration": 168}, {"note": 0, "velocity": 0, "duration": 72}, {"note": 77, "velocity": 108, "duration": 75}, {"note": 75, "velocity": 89, "duration": 79}, {"note": 79, "velocity": 116, "duration": 155}, {"note": 0, "velocity": 0, "duration": 85}, {"note": 77, "velocity": 94, "duration": 64}, {"note": 77, "velocity": 94, "duration": 70}, {"note": 75, "velocity": 108, "duration": 183}, {"note": 72, "velocity": 108, "duration": 78}, {"note": 75, "velocity": 94, "duration": 69}, {"note": 72, "velocity": 114, "duration": 183}, {"note": 70, "velocity": 111, "duration": 1625}, {"note": 0, "velocity": 0, "duration": 295}, {"note": 79, "velocity": 112, "duration": 74}, {"note": 79, "velocity": 93, "duration": 74}, {"note": 79, "velocity": 93, "duration": 67}, {"note": 79, "velocity": 109, "duration": 159}, {"note": 0, "velocity": 0, "duration": 201}, {"note": 79, "velocity": 112, "duration": 188}, {"note": 77, "velocity": 111, "duration": 163}, {"note": 0, "velocity": 0, "duration": 77}, {"note": 75, "velocity": 108, "duration": 72}, {"note": 77, "velocity": 111, "duration": 261}, {"note": 0, "velocity": 0, "duration": 99}, {"note": 75, "velocity": 105, "duration": 77}, {"note": 72, "velocity": 114, "duration": 1436}, {"note": 0, "velocity": 0, "duration": 604}, {"note": 77, "velocity": 105, "duration": 69}, {"note": 77, "velocity": 105, "duration": 65}, {"note": 77, "velocity": 102, "duration": 56}, {"note": 0, "velocity": 0, "duration": 64}, {"note": 77, "velocity": 108, "duration": 188}, {"note": 75, "velocity": 94, "duration": 90}, {"note": 79, "velocity": 116, "duration": 145}, {"note": 0, "velocity": 0, "duration": 95}, {"note": 77, "velocity": 105, "duration": 153}, {"note": 0, "velocity": 0, "duration": 87}, {"note": 75, "velocity": 111, "duration": 64}, {"note": 72, "velocity": 108, "duration": 179}, {"note": 0, "velocity": 0, "duration": 61}, {"note": 75, "velocity": 102, "duration": 67}, {"note": 77, "velocity": 100, "duration": 1677}, {"note": 0, "velocity": 0, "duration": 483}, {"note": 79, "velocity": 109, "duration": 71}, {"note": 79, "velocity": 96, "duration": 59}, {"note": 0, "velocity": 0, "duration": 61}, {"note": 79, "velocity": 109, "duration": 150}, {"note": 0, "velocity": 0, "duration": 90}, {"note": 79, "velocity": 109, "duration": 65}, {"note": 79, "velocity": 109, "duration": 64}, {"note": 77, "velocity": 114, "duration": 274}, {"note": 0, "velocity": 0, "duration": 86}, {"note": 79, "velocity": 112, "duration": 202}, {"note": 0, "velocity": 0, "duration": 158}, {"note": 77, "velocity": 102, "duration": 70}, {"note": 79, "velocity": 112, "duration": 65}, {"note": 82, "velocity": 108, "duration": 232}, {"note": 0, "velocity": 0, "duration": 128}, {"note": 79, "velocity": 109, "duration": 166}, {"note": 0, "velocity": 0, "duration": 74}, {"note": 77, "velocity": 105, "duration": 161}, {"note": 0, "velocity": 0, "duration": 79}, {"note": 75, "velocity": 105, "duration": 75}, {"note": 72, "velocity": 111, "duration": 959}, {"note": 0, "velocity": 0, "duration": 241}, {"note": 77, "velocity": 102, "duration": 65}, {"note": 77, "velocity": 94, "duration": 67}, {"note": 77, "velocity": 114, "duration": 168}, {"note": 0, "velocity": 0, "duration": 72}, {"note": 77, "velocity": 108, "duration": 75}, {"note": 75, "velocity": 89, "duration": 79}, {"note": 79, "velocity": 116, "duration": 155}, {"note": 0, "velocity": 0, "duration": 85}, {"note": 77, "velocity": 94, "duration": 240}, {"note": 75, "velocity": 108, "duration": 183}, {"note": 72, "velocity": 108, "duration": 78}, {"note": 75, "velocity": 94, "duration": 240}, {"note": 0, "velocity": 0, "duration": 120}, {"note": 75, "velocity": 114, "duration": 1680}, {"note": 0, "velocity": 0, "duration": 245}, {"note": 77, "velocity": 100, "duration": 86}, {"note": 77, "velocity": 105, "duration": 81}, {"note": 0, "velocity": 0, "duration": 70}, {"note": 77, "velocity": 114, "duration": 112}, {"note": 77, "velocity": 102, "duration": 116}, {"note": 75, "velocity": 102, "duration": 130}, {"note": 79, "velocity": 99, "duration": 342}, {"note": 77, "velocity": 111, "duration": 1367}, {"note": 0, "velocity": 0, "duration": 373}, {"note": 75, "velocity": 105, "duration": 358}, {"note": 72, "velocity": 108, "duration": 259}, {"note": 75, "velocity": 111, "duration": 479}, {"note": 0, "velocity": 0, "duration": 121}, {"note": 75, "velocity": 117, "duration": 2379}]]