[[{"note": 59, "velocity": 90, "duration": 480}, {"note": 58, "velocity": 114, "duration": 480}, {"note": 56, "velocity": 92, "duration": 239}, {"note": 56, "velocity": 92, "duration": 239}, {"note": 56, "velocity": 105, "duration": 240}, {"note": 54, "velocity": 100, "duration": 240}, {"note": 56, "velocity": 105, "duration": 480}, {"note": 63, "velocity": 100, "duration": 479}, {"note": 63, "velocity": 105, "duration": 960}, {"note": 59, "velocity": 112, "duration": 480}, {"note": 63, "velocity": 102, "duration": 480}, {"note": 61, "velocity": 100, "duration": 479}, {"note": 61, "velocity": 97, "duration": 240}, {"note": 59, "velocity": 102, "duration": 240}, {"note": 61, "velocity": 102, "duration": 480}, {"note": 59, "velocity": 105, "duration": 480}, {"note": 56, "velocity": 108, "duration": 959}, {"note": 56, "velocity": 105, "duration": 480}, {"note": 54, "velocity": 108, "duration": 480}, {"note": 56, "velocity": 94, "duration": 240}, {"note": 59, "velocity": 85, "duration": 239}, {"note": 59, "velocity": 99, "duration": 239}, {"note": 59, "velocity": 99, "duration": 240}, {"note": 61, "velocity": 102, "duration": 480}, {"note": 63, "velocity": 105, "duration": 480}, {"note": 61, "velocity": 102, "duration": 959}, {"note": 61, "velocity": 111, "duration": 480}, {"note": 63, "velocity": 105, "duration": 480}, {"note": 66, "velocity": 108, "duration": 239}, {"note": 66, "velocity": 105, "duration": 239}, {"note": 66, "velocity": 102, "duration": 239}, {"note": 66, "velocity": 102, "duration": 240}, {"note": 63, "velocity": 105, "duration": 480}, {"note": 61, "velocity": 108, "duration": 480}, {"note": 63, "velocity": 108, "duration": 960}, {"note": 59, "velocity": 90, "duration": 480}, {"note": 58, "velocity": 114, "duration": 480}, {"note": 56, "velocity": 92, "duration": 239}, {"note": 56, "velocity": 92, "duration": 239}, {"note": 56, "velocity": 105, "duration": 240}, {"note": 54, "velocity": 100, "duration": 240}, {"note": 56, "velocity": 105, "duration": 480}, {"note": 63, "velocity": 100, "duration": 479}, {"note": 63, "velocity": 105, "duration": 960}, {"note": 59, "velocity": 112, "duration": 480}, {"note": 63, "velocity": 102, "duration": 480}, {"note": 61, "velocity": 100, "duration": 239}, {"note": 61, "velocity": 100, "duration": 239}, {"note": 61, "velocity": 97, "duration": 240}, {"note": 59, "velocity": 102, "duration": 240}, {"note": 58, "velocity": 102, "duration": 480}, {"note": 59, "velocity": 105, "duration": 480}, {"note": 56, "velocity": 108, "duration": 959}, {"note": 56, "velocity": 105, "duration": 480}, {"note": 54, "velocity": 108, "duration": 480}, {"note": 56, "velocity": 94, "duration": 240}, {"note": 59, "velocity": 85, "duration": 239}, {"note": 59, "velocity": 99, "duration": 239}, {"note": 59, "velocity": 99, "duration": 240}, {"note": 66, "velocity": 102, "duration": 480}, {"note": 63, "velocity": 105, "duration": 480}, {"note": 61, "velocity": 102, "duration": 959}, {"note": 61, "velocity": 111, "duration": 480}, {"note": 63, "velocity": 105, "duration": 480}, {"note": 66, "velocity": 108, "duration": 479}, {"note": 66, "velocity": 111, "duration": 960}, {"note": 63, "velocity": 100, "duration": 480}, {"note": 61, "velocity": 108, "duration": 720}, {"note": 59, "velocity": 105, "duration": 240}, {"note": 58, "velocity": 117, "duration": 720}, {"note": 59, "velocity": 99, "duration": 240}, {"note": 56, "velocity": 108, "duration": 2880}, {"note": 63, "velocity": 114, "duration": 480}, {"note": 66, "velocity": 117, "duration": 480}, {"note": 68, "velocity": 105, "duration": 239}, {"note": 68, "velocity": 105, "duration": 239}, {"note": 68, "velocity": 111, "duration": 240}, {"note": 66, "velocity": 111, "duration": 240}, {"note": 68, "velocity": 114, "duration": 480}, {"note": 71, "velocity": 105, "duration": 480}, {"note": 70, "velocity": 111, "duration": 959}, {"note": 70, "velocity": 108, "duration": 480}, {"note": 68, "velocity": 111, "duration": 480}, {"note": 66, "velocity": 100, "duration": 239}, {"note": 66, "velocity": 105, "duration": 239}, {"note": 66, "velocity": 111, "duration": 240}, {"note": 63, "velocity": 114, "duration": 240}, {"note": 66, "velocity": 117, "duration": 480}, {"note": 70, "velocity": 108, "duration": 480}, {"note": 68, "velocity": 108, "duration": 960}, {"note": 63, "velocity": 114, "duration": 480}, {"note": 66, "velocity": 108, "duration": 480}, {"note": 68, "velocity": 97, "duration": 239}, {"note": 68, "velocity": 102, "duration": 239}, {"note": 68, "velocity": 108, "duration": 240}, {"note": 66, "velocity": 108, "duration": 240}, {"note": 63, "velocity": 111, "duration": 480}, {"note": 59, "velocity": 102, "duration": 240}, {"note": 63, "velocity": 97, "duration": 240}, {"note": 61, "velocity": 84, "duration": 959}, {"note": 61, "velocity": 111, "duration": 480}, {"note": 63, "velocity": 97, "duration": 480}, {"note": 66, "velocity": 100, "duration": 239}, {"note": 66, "velocity": 102, "duration": 239}, {"note": 66, "velocity": 102, "duration": 240}, {"note": 63, "velocity": 100, "duration": 240}, {"note": 66, "velocity": 105, "duration": 240}, {"note": 68, "velocity": 105, "duration": 240}, {"note": 66, "velocity": 105, "duration": 480}, {"note": 63, "velocity": 111, "duration": 959}, {"note": 63, "velocity": 105, "duration": 480}, {"note": 66, "velocity": 105, "duration": 480}, {"note": 68, "velocity": 105, "duration": 239}, {"note": 68, "velocity": 94, "duration": 239}, {"note": 68, "velocity": 108, "duration": 240}, {"note": 66, "velocity": 111, "duration": 240}, {"note": 68, "velocity": 114, "duration": 480}, {"note": 71, "velocity": 105, "duration": 480}, {"note": 70, "velocity": 108, "duration": 959}, {"note": 70, "velocity": 111, "duration": 480}, {"note": 68, "velocity": 108, "duration": 480}, {"note": 66, "velocity": 97, "duration": 239}, {"note": 66, "velocity": 97, "duration": 239}, {"note": 66, "velocity": 105, "duration": 240}, {"note": 63, "velocity": 105, "duration": 240}, {"note": 66, "velocity": 108, "duration": 240}, {"note": 68, "velocity": 92, "duration": 240}, {"note": 70, "velocity": 102, "duration": 480}, {"note": 68, "velocity": 111, "duration": 960}, {"note": 63, "velocity": 105, "duration": 480}, {"note": 66, "velocity": 111, "duration": 480}, {"note": 68, "velocity": 102, "duration": 239}, {"note": 68, "velocity": 100, "duration": 239}, {"note": 68, "velocity": 97, "duration": 240}, {"note": 66, "velocity": 111, "duration": 240}, {"note": 63, "velocity": 108, "duration": 480}, {"note": 59, "velocity": 102, "duration": 240}, {"note": 63, "velocity": 102, "duration": 240}, {"note": 61, "velocity": 108, "duration": 959}, {"note": 61, "velocity": 114, "duration": 480}, {"note": 63, "velocity": 102, "duration": 480}, {"note": 66, "velocity": 97, "duration": 479}, {"note": 66, "velocity": 100, "duration": 960}, {"note": 63, "velocity": 108, "duration": 480}, {"note": 66, "velocity": 92, "duration": 720}, {"note": 63, "velocity": 111, "duration": 240}, {"note": 66, "velocity": 102, "duration": 240}, {"note": 68, "velocity": 111, "duration": 480}, {"note": 66, "velocity": 100, "duration": 240}, {"note": 68, "velocity": 111, "duration": 2734}, {"note": 0, "velocity": 0, "duration": 15506}, {"note": 59, "velocity": 90, "duration": 480}, {"note": 58, "velocity": 114, "duration": 480}, {"note": 56, "velocity": 92, "duration": 239}, {"note": 56, "velocity": 92, "duration": 239}, {"note": 56, "velocity": 105, "duration": 240}, {"note": 54, "velocity": 100, "duration": 240}, {"note": 56, "velocity": 105, "duration": 480}, {"note": 63, "velocity": 100, "duration": 479}, {"note": 63, "velocity": 105, "duration": 960}, {"note": 59, "velocity": 112, "duration": 480}, {"note": 63, "velocity": 102, "duration": 480}, {"note": 61, "velocity": 100, "duration": 479}, {"note": 61, "velocity": 97, "duration": 240}, {"note": 59, "velocity": 102, "duration": 240}, {"note": 61, "velocity": 102, "duration": 480}, {"note": 59, "velocity": 105, "duration": 480}, {"note": 56, "velocity": 108, "duration": 959}, {"note": 56, "velocity": 105, "duration": 480}, {"note": 54, "velocity": 108, "duration": 480}, {"note": 56, "velocity": 94, "duration": 240}, {"note": 59, "velocity": 85, "duration": 239}, {"note": 59, "velocity": 99, "duration": 239}, {"note": 59, "velocity": 99, "duration": 240}, {"note": 61, "velocity": 102, "duration": 480}, {"note": 63, "velocity": 105, "duration": 480}, {"note": 61, "velocity": 102, "duration": 959}, {"note": 61, "velocity": 111, "duration": 480}, {"note": 63, "velocity": 105, "duration": 480}, {"note": 66, "velocity": 108, "duration": 239}, {"note": 66, "velocity": 105, "duration": 239}, {"note": 66, "velocity": 102, "duration": 239}, {"note": 66, "velocity": 102, "duration": 240}, {"note": 63, "velocity": 105, "duration": 480}, {"note": 61, "velocity": 108, "duration": 480}, {"note": 63, "velocity": 108, "duration": 960}, {"note": 59, "velocity": 90, "duration": 480}, {"note": 58, "velocity": 114, "duration": 480}, {"note": 56, "velocity": 92, "duration": 239}, {"note": 56, "velocity": 92, "duration": 239}, {"note": 56, "velocity": 105, "duration": 240}, {"note": 54, "velocity": 100, "duration": 240}, {"note": 56, "velocity": 105, "duration": 480}, {"note": 63, "velocity": 100, "duration": 479}, {"note": 63, "velocity": 105, "duration": 960}, {"note": 59, "velocity": 112, "duration": 480}, {"note": 63, "velocity": 102, "duration": 480}, {"note": 61, "velocity": 100, "duration": 239}, {"note": 61, "velocity": 100, "duration": 239}, {"note": 61, "velocity": 97, "duration": 240}, {"note": 59, "velocity": 102, "duration": 240}, {"note": 58, "velocity": 102, "duration": 480}, {"note": 59, "velocity": 105, "duration": 480}, {"note": 56, "velocity": 108, "duration": 959}, {"note": 56, "velocity": 105, "duration": 480}, {"note": 54, "velocity": 108, "duration": 480}, {"note": 56, "velocity": 94, "duration": 240}, {"note": 59, "velocity": 85, "duration": 239}, {"note": 59, "velocity": 99, "duration": 239}, {"note": 59, "velocity": 99, "duration": 240}, {"note": 66, "velocity": 102, "duration": 480}, {"note": 63, "velocity": 105, "duration": 480}, {"note": 61, "velocity": 102, "duration": 959}, {"note": 61, "velocity": 111, "duration": 480}, {"note": 63, "velocity": 105, "duration": 480}, {"note": 66, "velocity": 108, "duration": 479}, {"note": 66, "velocity": 111, "duration": 960}, {"note": 63, "velocity": 100, "duration": 480}, {"note": 61, "velocity": 108, "duration": 720}, {"note": 59, "velocity": 105, "duration": 240}, {"note": 58, "velocity": 117, "duration": 720}, {"note": 59, "velocity": 99, "duration": 240}, {"note": 56, "velocity": 108, "duration": 2880}, {"note": 63, "velocity": 114, "duration": 480}, {"note": 66, "velocity": 117, "duration": 480}, {"note": 68, "velocity": 105, "duration": 239}, {"note": 68, "velocity": 105, "duration": 239}, {"note": 68, "velocity": 111, "duration": 240}, {"note": 66, "velocity": 111, "duration": 240}, {"note": 68, "velocity": 114, "duration": 480}, {"note": 71, "velocity": 105, "duration": 480}, {"note": 70, "velocity": 111, "duration": 959}, {"note": 70, "velocity": 108, "duration": 480}, {"note": 68, "velocity": 111, "duration": 480}, {"note": 66, "velocity": 100, "duration": 239}, {"note": 66, "velocity": 105, "duration": 239}, {"note": 66, "velocity": 111, "duration": 240}, {"note": 63, "velocity": 114, "duration": 240}, {"note": 66, "velocity": 117, "duration": 480}, {"note": 70, "velocity": 108, "duration": 480}, {"note": 68, "velocity": 108, "duration": 960}, {"note": 63, "velocity": 114, "duration": 480}, {"note": 66, "velocity": 108, "duration": 480}, {"note": 68, "velocity": 97, "duration": 239}, {"note": 68, "velocity": 102, "duration": 239}, {"note": 68, "velocity": 108, "duration": 240}, {"note": 66, "velocity": 108, "duration": 240}, {"note": 63, "velocity": 111, "duration": 480}, {"note": 59, "velocity": 102, "duration": 240}, {"note": 63, "velocity": 97, "duration": 240}, {"note": 61, "velocity": 84, "duration": 959}, {"note": 61, "velocity": 111, "duration": 480}, {"note": 63, "velocity": 97, "duration": 480}, {"note": 66, "velocity": 100, "duration": 239}, {"note": 66, "velocity": 102, "duration": 239}, {"note": 66, "velocity": 102, "duration": 240}, {"note": 63, "velocity": 100, "duration": 240}, {"note": 66, "velocity": 105, "duration": 240}, {"note": 68, "velocity": 105, "duration": 240}, {"note": 66, "velocity": 105, "duration": 480}, {"note": 63, "velocity": 111, "duration": 959}, {"note": 63, "velocity": 105, "duration": 480}, {"note": 66, "velocity": 105, "duration": 480}, {"note": 68, "velocity": 105, "duration": 239}, {"note": 68, "velocity": 94, "duration": 239}, {"note": 68, "velocity": 108, "duration": 240}, {"note": 66, "velocity": 111, "duration": 240}, {"note": 68, "velocity": 114, "duration": 480}, {"note": 71, "velocity": 105, "duration": 480}, {"note": 70, "velocity": 108, "duration": 959}, {"note": 70, "velocity": 111, "duration": 480}, {"note": 68, "velocity": 108, "duration": 480}, {"note": 66, "velocity": 97, "duration": 239}, {"note": 66, "velocity": 97, "duration": 239}, {"note": 66, "velocity": 105, "duration": 240}, {"note": 63, "velocity": 105, "duration": 240}, {"note": 66, "velocity": 108, "duration": 240}, {"note": 68, "velocity": 92, "duration": 240}, {"note": 70, "velocity": 102, "duration": 480}, {"note": 68, "velocity": 111, "duration": 960}, {"note": 63, "velocity": 105, "duration": 480}, {"note": 66, "velocity": 111, "duration": 480}, {"note": 68, "velocity": 102, "duration": 239}, {"note": 68, "velocity": 100, "duration": 239}, {"note": 68, "velocity": 97, "duration": 240}, {"note": 66, "velocity": 111, "duration": 240}, {"note": 63, "velocity": 108, "duration": 480}, {"note": 59, "velocity": 102, "duration": 240}, {"note": 63, "velocity": 102, "duration": 240}, {"note": 61, "velocity": 108, "duration": 959}, {"note": 61, "velocity": 114, "duration": 480}, {"note": 63, "velocity": 102, "duration": 480}, {"note": 66, "velocity": 97, "duration": 479}, {"note": 66, "velocity": 100, "duration": 960}, {"note": 63, "velocity": 108, "duration": 480}, {"note": 66, "velocity": 92, "duration": 720}, {"note": 63, "velocity": 111, "duration": 240}, {"note": 66, "velocity": 102, "duration": 240}, {"note": 68, "velocity": 111, "duration": 480}, {"note": 66, "velocity": 100, "duration": 240}, {"note": 68, "velocity": 111, "duration": 2880}, {"note": 63, "velocity": 114, "duration": 480}, {"note": 66, "velocity": 117, "duration": 480}, {"note": 68, "velocity": 105, "duration": 239}, {"note": 68, "velocity": 105, "duration": 239}, {"note": 68, "velocity": 111, "duration": 240}, {"note": 66, "velocity": 111, "duration": 240}, {"note": 68, "velocity": 114, "duration": 480}, {"note": 71, "velocity": 105, "duration": 480}, {"note": 70, "velocity": 111, "duration": 959}, {"note": 70, "velocity": 108, "duration": 480}, {"note": 68, "velocity": 111, "duration": 480}, {"note": 66, "velocity": 100, "duration": 239}, {"note": 66, "velocity": 105, "duration": 239}, {"note": 66, "velocity": 111, "duration": 240}, {"note": 63, "velocity": 114, "duration": 240}, {"note": 66, "velocity": 117, "duration": 480}, {"note": 70, "velocity": 108, "duration": 480}, {"note": 68, "velocity": 108, "duration": 960}, {"note": 63, "velocity": 114, "duration": 480}, {"note": 66, "velocity": 108, "duration": 480}, {"note": 68, "velocity": 97, "duration": 239}, {"note": 68, "velocity": 102, "duration": 239}, {"note": 68, "velocity": 108, "duration": 240}, {"note": 66, "velocity": 108, "duration": 240}, {"note": 63, "velocity": 111, "duration": 480}, {"note": 59, "velocity": 102, "duration": 240}, {"note": 63, "velocity": 97, "duration": 240}, {"note": 61, "velocity": 84, "duration": 959}, {"note": 61, "velocity": 111, "duration": 480}, {"note": 63, "velocity": 97, "duration": 480}, {"note": 66, "velocity": 100, "duration": 239}, {"note": 66, "velocity": 102, "duration": 239}, {"note": 66, "velocity": 102, "duration": 240}, {"note": 63, "velocity": 100, "duration": 240}, {"note": 66, "velocity": 105, "duration": 240}, {"note": 68, "velocity": 105, "duration": 240}, {"note": 66, "velocity": 105, "duration": 480}, {"note": 63, "velocity": 111, "duration": 959}, {"note": 63, "velocity": 105, "duration": 480}, {"note": 66, "velocity": 105, "duration": 480}, {"note": 68, "velocity": 105, "duration": 239}, {"note": 68, "velocity": 94, "duration": 239}, {"note": 68, "velocity": 108, "duration": 240}, {"note": 66, "velocity": 111, "duration": 240}, {"note": 68, "velocity": 114, "duration": 480}, {"note": 71, "velocity": 105, "duration": 480}, {"note": 70, "velocity": 108, "duration": 959}, {"note": 70, "velocity": 111, "duration": 480}, {"note": 68, "velocity": 108, "duration": 480}, {"note": 66, "velocity": 97, "duration": 239}, {"note": 66, "velocity": 97, "duration": 239}, {"note": 66, "velocity": 105, "duration": 240}, {"note": 63, "velocity": 105, "duration": 240}, {"note": 66, "velocity": 108, "duration": 240}, {"note": 68, "velocity": 92, "duration": 240}, {"note": 70, "velocity": 102, "duration": 480}, {"note": 68, "velocity": 111, "duration": 960}, {"note": 63, "velocity": 105, "duration": 480}, {"note": 66, "velocity": 111, "duration": 480}, {"note": 68, "velocity": 102, "duration": 239}, {"note": 68, "velocity": 100, "duration": 239}, {"note": 68, "velocity": 97, "duration": 240}, {"note": 66, "velocity": 111, "duration": 240}, {"note": 63, "velocity": 108, "duration": 480}, {"note": 59, "velocity": 102, "duration": 240}, {"note": 63, "velocity": 102, "duration": 240}, {"note": 61, "velocity": 108, "duration": 959}, {"note": 61, "velocity": 114, "duration": 480}, {"note": 63, "velocity": 102, "duration": 480}, {"note": 66, "velocity": 97, "duration": 479}, {"note": 66, "velocity": 100, "duration": 960}, {"note": 63, "velocity": 108, "duration": 480}, {"note": 66, "velocity": 92, "duration": 720}, {"note": 63, "velocity": 111, "duration": 240}, {"note": 66, "velocity": 102, "duration": 240}, {"note": 68, "velocity": 111, "duration": 480}, {"note": 66, "velocity": 100, "duration": 240}, {"note": 68, "velocity": 111, "duration": 2734}]]