[[{"note": 72, "velocity": 92, "duration": 64}, {"note": 72, "velocity": 87, "duration": 64}, {"note": 72, "velocity": 92, "duration": 78}, {"note": 77, "velocity": 87, "duration": 61}, {"note": 77, "velocity": 94, "duration": 61}, {"note": 77, "velocity": 92, "duration": 71}, {"note": 75, "velocity": 80, "duration": 69}, {"note": 77, "velocity": 94, "duration": 246}, {"note": 0, "velocity": 0, "duration": 114}, {"note": 75, "velocity": 87, "duration": 74}, {"note": 75, "velocity": 84, "duration": 204}, {"note": 72, "velocity": 105, "duration": 304}, {"note": 70, "velocity": 84, "duration": 57}, {"note": 0, "velocity": 0, "duration": 63}, {"note": 70, "velocity": 94, "duration": 73}, {"note": 68, "velocity": 92, "duration": 66}, {"note": 70, "velocity": 100, "duration": 61}, {"note": 70, "velocity": 94, "duration": 60}, {"note": 70, "velocity": 100, "duration": 58}, {"note": 0, "velocity": 0, "duration": 62}, {"note": 70, "velocity": 97, "duration": 64}, {"note": 70, "velocity": 102, "duration": 170}, {"note": 0, "velocity": 0, "duration": 70}, {"note": 70, "velocity": 89, "duration": 98}, {"note": 72, "velocity": 84, "duration": 74}, {"note": 68, "velocity": 100, "duration": 181}, {"note": 65, "velocity": 105, "duration": 241}, {"note": 0, "velocity": 0, "duration": 359}, {"note": 65, "velocity": 97, "duration": 74}, {"note": 68, "velocity": 100, "duration": 605}, {"note": 0, "velocity": 0, "duration": 235}, {"note": 65, "velocity": 108, "duration": 84}, {"note": 77, "velocity": 105, "duration": 176}, {"note": 0, "velocity": 0, "duration": 64}, {"note": 75, "velocity": 94, "duration": 65}, {"note": 75, "velocity": 87, "duration": 61}, {"note": 75, "velocity": 100, "duration": 158}, {"note": 0, "velocity": 0, "duration": 82}, {"note": 75, "velocity": 105, "duration": 77}, {"note": 77, "velocity": 94, "duration": 64}, {"note": 75, "velocity": 111, "duration": 188}, {"note": 70, "velocity": 100, "duration": 64}, {"note": 72, "velocity": 102, "duration": 955}, {"note": 0, "velocity": 0, "duration": 365}, {"note": 72, "velocity": 102, "duration": 87}, {"note": 75, "velocity": 97, "duration": 69}, {"note": 77, "velocity": 105, "duration": 157}, {"note": 0, "velocity": 0, "duration": 83}, {"note": 77, "velocity": 102, "duration": 71}, {"note": 75, "velocity": 100, "duration": 57}, {"note": 0, "velocity": 0, "duration": 63}, {"note": 77, "velocity": 105, "duration": 277}, {"note": 0, "velocity": 0, "duration": 83}, {"note": 75, "velocity": 100, "duration": 59}, {"note": 0, "velocity": 0, "duration": 61}, {"note": 75, "velocity": 102, "duration": 203}, {"note": 72, "velocity": 108, "duration": 287}, {"note": 0, "velocity": 0, "duration": 193}, {"note": 70, "velocity": 100, "duration": 84}, {"note": 68, "velocity": 82, "duration": 81}, {"note": 70, "velocity": 94, "duration": 58}, {"note": 0, "velocity": 0, "duration": 62}, {"note": 70, "velocity": 94, "duration": 61}, {"note": 70, "velocity": 102, "duration": 87}, {"note": 68, "velocity": 92, "duration": 67}, {"note": 70, "velocity": 102, "duration": 323}, {"note": 75, "velocity": 100, "duration": 82}, {"note": 70, "velocity": 82, "duration": 180}, {"note": 72, "velocity": 100, "duration": 310}, {"note": 0, "velocity": 0, "duration": 170}, {"note": 65, "velocity": 97, "duration": 79}, {"note": 67, "velocity": 102, "duration": 64}, {"note": 68, "velocity": 80, "duration": 238}, {"note": 68, "velocity": 93, "duration": 238}, {"note": 0, "velocity": 0, "duration": 242}, {"note": 70, "velocity": 89, "duration": 64}, {"note": 72, "velocity": 94, "duration": 72}, {"note": 70, "velocity": 114, "duration": 337}, {"note": 0, "velocity": 0, "duration": 143}, {"note": 67, "velocity": 99, "duration": 190}, {"note": 63, "velocity": 92, "duration": 59}, {"note": 0, "velocity": 0, "duration": 61}, {"note": 65, "velocity": 97, "duration": 1558}, {"note": 0, "velocity": 0, "duration": 242}, {"note": 72, "velocity": 105, "duration": 69}, {"note": 72, "velocity": 97, "duration": 71}, {"note": 77, "velocity": 100, "duration": 143}, {"note": 0, "velocity": 0, "duration": 97}, {"note": 77, "velocity": 105, "duration": 368}, {"note": 0, "velocity": 0, "duration": 112}, {"note": 77, "velocity": 111, "duration": 79}, {"note": 75, "velocity": 94, "duration": 59}, {"note": 0, "velocity": 0, "duration": 61}, {"note": 77, "velocity": 105, "duration": 196}, {"note": 0, "velocity": 0, "duration": 284}, {"note": 75, "velocity": 87, "duration": 90}, {"note": 70, "velocity": 102, "duration": 247}, {"note": 0, "velocity": 0, "duration": 113}, {"note": 72, "velocity": 108, "duration": 100}, {"note": 70, "velocity": 78, "duration": 117}, {"note": 72, "velocity": 100, "duration": 1188}, {"note": 0, "velocity": 0, "duration": 252}, {"note": 72, "velocity": 92, "duration": 71}, {"note": 72, "velocity": 97, "duration": 73}, {"note": 77, "velocity": 105, "duration": 359}, {"note": 0, "velocity": 0, "duration": 121}, {"note": 77, "velocity": 111, "duration": 343}, {"note": 75, "velocity": 53, "duration": 57}, {"note": 0, "velocity": 0, "duration": 63}, {"note": 77, "velocity": 102, "duration": 330}, {"note": 0, "velocity": 0, "duration": 150}, {"note": 75, "velocity": 105, "duration": 132}, {"note": 0, "velocity": 0, "duration": 108}, {"note": 75, "velocity": 100, "duration": 73}, {"note": 77, "velocity": 102, "duration": 77}, {"note": 75, "velocity": 105, "duration": 165}, {"note": 0, "velocity": 0, "duration": 75}, {"note": 70, "velocity": 100, "duration": 69}, {"note": 72, "velocity": 97, "duration": 1121}, {"note": 0, "velocity": 0, "duration": 199}, {"note": 72, "velocity": 108, "duration": 74}, {"note": 70, "velocity": 105, "duration": 67}, {"note": 68, "velocity": 100, "duration": 66}, {"note": 68, "velocity": 100, "duration": 209}, {"note": 0, "velocity": 0, "duration": 151}, {"note": 68, "velocity": 108, "duration": 153}, {"note": 0, "velocity": 0, "duration": 87}, {"note": 68, "velocity": 102, "duration": 72}, {"note": 65, "velocity": 92, "duration": 64}, {"note": 70, "velocity": 102, "duration": 140}, {"note": 0, "velocity": 0, "duration": 100}, {"note": 75, "velocity": 87, "duration": 72}, {"note": 70, "velocity": 102, "duration": 208}, {"note": 0, "velocity": 0, "duration": 152}, {"note": 68, "velocity": 102, "duration": 64}, {"note": 70, "velocity": 105, "duration": 55}, {"note": 0, "velocity": 0, "duration": 65}, {"note": 72, "velocity": 105, "duration": 167}, {"note": 0, "velocity": 0, "duration": 73}, {"note": 75, "velocity": 92, "duration": 145}, {"note": 0, "velocity": 0, "duration": 95}, {"note": 70, "velocity": 108, "duration": 157}, {"note": 0, "velocity": 0, "duration": 83}, {"note": 70, "velocity": 105, "duration": 74}, {"note": 72, "velocity": 92, "duration": 71}, {"note": 70, "velocity": 114, "duration": 175}, {"note": 0, "velocity": 0, "duration": 65}, {"note": 68, "velocity": 105, "duration": 280}, {"note": 0, "velocity": 0, "duration": 200}, {"note": 65, "velocity": 105, "duration": 66}, {"note": 68, "velocity": 100, "duration": 51}, {"note": 0, "velocity": 0, "duration": 69}, {"note": 72, "velocity": 102, "duration": 166}, {"note": 0, "velocity": 0, "duration": 74}, {"note": 70, "velocity": 87, "duration": 56}, {"note": 0, "velocity": 0, "duration": 64}, {"note": 70, "velocity": 100, "duration": 444}, {"note": 0, "velocity": 0, "duration": 156}, {"note": 70, "velocity": 105, "duration": 238}, {"note": 70, "velocity": 89, "duration": 62}, {"note": 72, "velocity": 102, "duration": 299}, {"note": 0, "velocity": 0, "duration": 61}, {"note": 68, "velocity": 111, "duration": 222}, {"note": 65, "velocity": 108, "duration": 1241}, {"note": 0, "velocity": 0, "duration": 199}, {"note": 72, "velocity": 102, "duration": 92}, {"note": 80, "velocity": 111, "duration": 171}, {"note": 0, "velocity": 0, "duration": 69}, {"note": 72, "velocity": 117, "duration": 62}, {"note": 77, "velocity": 97, "duration": 361}, {"note": 0, "velocity": 0, "duration": 119}, {"note": 77, "velocity": 105, "duration": 165}, {"note": 0, "velocity": 0, "duration": 75}, {"note": 75, "velocity": 97, "duration": 61}, {"note": 0, "velocity": 0, "duration": 70}, {"note": 77, "velocity": 108, "duration": 462}, {"note": 72, "velocity": 105, "duration": 100}, {"note": 80, "velocity": 105, "duration": 160}, {"note": 0, "velocity": 0, "duration": 80}, {"note": 77, "velocity": 94, "duration": 59}, {"note": 0, "velocity": 0, "duration": 61}, {"note": 75, "velocity": 102, "duration": 56}, {"note": 0, "velocity": 0, "duration": 64}, {"note": 77, "velocity": 105, "duration": 182}, {"note": 75, "velocity": 111, "duration": 118}, {"note": 72, "velocity": 114, "duration": 598}, {"note": 0, "velocity": 0, "duration": 482}, {"note": 64, "velocity": 111, "duration": 188}, {"note": 72, "velocity": 108, "duration": 90}, {"note": 68, "velocity": 73, "duration": 76}, {"note": 70, "velocity": 105, "duration": 289}, {"note": 0, "velocity": 0, "duration": 71}, {"note": 70, "velocity": 92, "duration": 68}, {"note": 70, "velocity": 102, "duration": 161}, {"note": 0, "velocity": 0, "duration": 79}, {"note": 70, "velocity": 102, "duration": 87}, {"note": 68, "velocity": 89, "duration": 77}, {"note": 70, "velocity": 114, "duration": 333}, {"note": 0, "velocity": 0, "duration": 147}, {"note": 75, "velocity": 102, "duration": 160}, {"note": 0, "velocity": 0, "duration": 80}, {"note": 77, "velocity": 100, "duration": 77}, {"note": 75, "velocity": 108, "duration": 69}, {"note": 72, "velocity": 111, "duration": 1295}, {"note": 0, "velocity": 0, "duration": 145}, {"note": 72, "velocity": 102, "duration": 92}, {"note": 80, "velocity": 111, "duration": 171}, {"note": 0, "velocity": 0, "duration": 69}, {"note": 72, "velocity": 117, "duration": 62}, {"note": 77, "velocity": 97, "duration": 361}, {"note": 0, "velocity": 0, "duration": 119}, {"note": 77, "velocity": 105, "duration": 165}, {"note": 0, "velocity": 0, "duration": 75}, {"note": 75, "velocity": 97, "duration": 61}, {"note": 77, "velocity": 108, "duration": 462}, {"note": 72, "velocity": 105, "duration": 100}, {"note": 80, "velocity": 105, "duration": 160}, {"note": 0, "velocity": 0, "duration": 80}, {"note": 77, "velocity": 94, "duration": 59}, {"note": 0, "velocity": 0, "duration": 61}, {"note": 75, "velocity": 102, "duration": 56}, {"note": 0, "velocity": 0, "duration": 64}, {"note": 77, "velocity": 105, "duration": 182}, {"note": 75, "velocity": 111, "duration": 118}, {"note": 72, "velocity": 114, "duration": 838}, {"note": 0, "velocity": 0, "duration": 242}, {"note": 64, "velocity": 111, "duration": 188}, {"note": 72, "velocity": 108, "duration": 90}, {"note": 68, "velocity": 73, "duration": 76}, {"note": 70, "velocity": 105, "duration": 289}, {"note": 0, "velocity": 0, "duration": 191}, {"note": 70, "velocity": 102, "duration": 161}, {"note": 0, "velocity": 0, "duration": 79}, {"note": 68, "velocity": 102, "duration": 87}, {"note": 70, "velocity": 114, "duration": 453}, {"note": 0, "velocity": 0, "duration": 147}, {"note": 68, "velocity": 108, "duration": 176}, {"note": 0, "velocity": 0, "duration": 64}, {"note": 70, "velocity": 94, "duration": 90}, {"note": 68, "velocity": 94, "duration": 99}, {"note": 65, "velocity": 102, "duration": 1761}, {"note": 0, "velocity": 0, "duration": 7479}, {"note": 70, "velocity": 92, "duration": 64}, {"note": 72, "velocity": 87, "duration": 64}, {"note": 72, "velocity": 92, "duration": 78}, {"note": 77, "velocity": 87, "duration": 61}, {"note": 77, "velocity": 94, "duration": 61}, {"note": 77, "velocity": 92, "duration": 71}, {"note": 75, "velocity": 80, "duration": 69}, {"note": 77, "velocity": 94, "duration": 246}, {"note": 0, "velocity": 0, "duration": 114}, {"note": 75, "velocity": 87, "duration": 74}, {"note": 75, "velocity": 84, "duration": 204}, {"note": 72, "velocity": 105, "duration": 304}, {"note": 0, "velocity": 0, "duration": 195}, {"note": 70, "velocity": 84, "duration": 57}, {"note": 0, "velocity": 0, "duration": 63}, {"note": 70, "velocity": 94, "duration": 73}, {"note": 68, "velocity": 92, "duration": 66}, {"note": 70, "velocity": 100, "duration": 61}, {"note": 70, "velocity": 94, "duration": 60}, {"note": 70, "velocity": 100, "duration": 58}, {"note": 0, "velocity": 0, "duration": 62}, {"note": 70, "velocity": 97, "duration": 64}, {"note": 70, "velocity": 102, "duration": 170}, {"note": 0, "velocity": 0, "duration": 70}, {"note": 70, "velocity": 89, "duration": 98}, {"note": 72, "velocity": 84, "duration": 74}, {"note": 68, "velocity": 100, "duration": 181}, {"note": 65, "velocity": 105, "duration": 241}, {"note": 0, "velocity": 0, "duration": 359}, {"note": 65, "velocity": 97, "duration": 74}, {"note": 68, "velocity": 100, "duration": 605}, {"note": 0, "velocity": 0, "duration": 235}, {"note": 65, "velocity": 108, "duration": 84}, {"note": 77, "velocity": 105, "duration": 176}, {"note": 0, "velocity": 0, "duration": 64}, {"note": 75, "velocity": 94, "duration": 65}, {"note": 75, "velocity": 87, "duration": 61}, {"note": 75, "velocity": 100, "duration": 158}, {"note": 0, "velocity": 0, "duration": 82}, {"note": 75, "velocity": 105, "duration": 77}, {"note": 77, "velocity": 94, "duration": 64}, {"note": 75, "velocity": 111, "duration": 188}, {"note": 70, "velocity": 100, "duration": 64}, {"note": 72, "velocity": 102, "duration": 955}, {"note": 0, "velocity": 0, "duration": 365}, {"note": 72, "velocity": 102, "duration": 87}, {"note": 75, "velocity": 97, "duration": 69}, {"note": 77, "velocity": 105, "duration": 157}, {"note": 0, "velocity": 0, "duration": 83}, {"note": 77, "velocity": 102, "duration": 71}, {"note": 75, "velocity": 100, "duration": 57}, {"note": 0, "velocity": 0, "duration": 63}, {"note": 77, "velocity": 105, "duration": 277}, {"note": 0, "velocity": 0, "duration": 83}, {"note": 75, "velocity": 100, "duration": 59}, {"note": 0, "velocity": 0, "duration": 61}, {"note": 75, "velocity": 102, "duration": 203}, {"note": 72, "velocity": 108, "duration": 287}, {"note": 0, "velocity": 0, "duration": 193}, {"note": 70, "velocity": 100, "duration": 84}, {"note": 68, "velocity": 82, "duration": 81}, {"note": 70, "velocity": 94, "duration": 58}, {"note": 0, "velocity": 0, "duration": 62}, {"note": 70, "velocity": 94, "duration": 61}, {"note": 70, "velocity": 102, "duration": 87}, {"note": 68, "velocity": 92, "duration": 67}, {"note": 70, "velocity": 102, "duration": 323}, {"note": 75, "velocity": 100, "duration": 82}, {"note": 70, "velocity": 82, "duration": 180}, {"note": 72, "velocity": 100, "duration": 310}, {"note": 0, "velocity": 0, "duration": 157}, {"note": 65, "velocity": 97, "duration": 79}, {"note": 67, "velocity": 102, "duration": 64}, {"note": 68, "velocity": 80, "duration": 238}, {"note": 68, "velocity": 93, "duration": 238}, {"note": 0, "velocity": 0, "duration": 242}, {"note": 70, "velocity": 89, "duration": 64}, {"note": 72, "velocity": 94, "duration": 72}, {"note": 70, "velocity": 114, "duration": 337}, {"note": 0, "velocity": 0, "duration": 143}, {"note": 67, "velocity": 99, "duration": 190}, {"note": 63, "velocity": 92, "duration": 59}, {"note": 0, "velocity": 0, "duration": 61}, {"note": 65, "velocity": 97, "duration": 1558}, {"note": 0, "velocity": 0, "duration": 242}, {"note": 72, "velocity": 105, "duration": 69}, {"note": 72, "velocity": 97, "duration": 71}, {"note": 77, "velocity": 100, "duration": 143}, {"note": 0, "velocity": 0, "duration": 97}, {"note": 77, "velocity": 105, "duration": 368}, {"note": 0, "velocity": 0, "duration": 112}, {"note": 77, "velocity": 111, "duration": 79}, {"note": 75, "velocity": 94, "duration": 59}, {"note": 0, "velocity": 0, "duration": 61}, {"note": 77, "velocity": 105, "duration": 196}, {"note": 0, "velocity": 0, "duration": 284}, {"note": 75, "velocity": 87, "duration": 90}, {"note": 70, "velocity": 102, "duration": 247}, {"note": 0, "velocity": 0, "duration": 113}, {"note": 72, "velocity": 108, "duration": 100}, {"note": 70, "velocity": 78, "duration": 117}, {"note": 72, "velocity": 100, "duration": 1188}, {"note": 0, "velocity": 0, "duration": 252}, {"note": 72, "velocity": 92, "duration": 71}, {"note": 72, "velocity": 97, "duration": 73}, {"note": 77, "velocity": 105, "duration": 359}, {"note": 0, "velocity": 0, "duration": 121}, {"note": 77, "velocity": 111, "duration": 343}, {"note": 75, "velocity": 53, "duration": 57}, {"note": 0, "velocity": 0, "duration": 63}, {"note": 77, "velocity": 102, "duration": 330}, {"note": 0, "velocity": 0, "duration": 150}, {"note": 75, "velocity": 105, "duration": 132}, {"note": 0, "velocity": 0, "duration": 108}, {"note": 75, "velocity": 100, "duration": 73}, {"note": 77, "velocity": 102, "duration": 77}, {"note": 75, "velocity": 105, "duration": 165}, {"note": 0, "velocity": 0, "duration": 75}, {"note": 70, "velocity": 100, "duration": 69}, {"note": 72, "velocity": 97, "duration": 1121}, {"note": 0, "velocity": 0, "duration": 199}, {"note": 72, "velocity": 108, "duration": 74}, {"note": 70, "velocity": 105, "duration": 67}, {"note": 68, "velocity": 100, "duration": 66}, {"note": 68, "velocity": 100, "duration": 209}, {"note": 0, "velocity": 0, "duration": 151}, {"note": 68, "velocity": 108, "duration": 153}, {"note": 0, "velocity": 0, "duration": 87}, {"note": 68, "velocity": 102, "duration": 72}, {"note": 65, "velocity": 92, "duration": 64}, {"note": 70, "velocity": 102, "duration": 140}, {"note": 0, "velocity": 0, "duration": 100}, {"note": 75, "velocity": 87, "duration": 72}, {"note": 70, "velocity": 102, "duration": 208}, {"note": 0, "velocity": 0, "duration": 152}, {"note": 68, "velocity": 102, "duration": 64}, {"note": 70, "velocity": 105, "duration": 55}, {"note": 0, "velocity": 0, "duration": 65}, {"note": 72, "velocity": 105, "duration": 167}, {"note": 0, "velocity": 0, "duration": 73}, {"note": 75, "velocity": 92, "duration": 145}, {"note": 0, "velocity": 0, "duration": 95}, {"note": 70, "velocity": 108, "duration": 157}, {"note": 0, "velocity": 0, "duration": 83}, {"note": 70, "velocity": 105, "duration": 74}, {"note": 72, "velocity": 92, "duration": 71}, {"note": 70, "velocity": 114, "duration": 175}, {"note": 0, "velocity": 0, "duration": 65}, {"note": 68, "velocity": 105, "duration": 280}, {"note": 0, "velocity": 0, "duration": 200}, {"note": 65, "velocity": 105, "duration": 66}, {"note": 68, "velocity": 100, "duration": 51}, {"note": 0, "velocity": 0, "duration": 69}, {"note": 72, "velocity": 102, "duration": 166}, {"note": 0, "velocity": 0, "duration": 74}, {"note": 70, "velocity": 87, "duration": 56}, {"note": 0, "velocity": 0, "duration": 64}, {"note": 70, "velocity": 100, "duration": 444}, {"note": 0, "velocity": 0, "duration": 156}, {"note": 70, "velocity": 105, "duration": 238}, {"note": 70, "velocity": 89, "duration": 62}, {"note": 72, "velocity": 102, "duration": 299}, {"note": 0, "velocity": 0, "duration": 61}, {"note": 68, "velocity": 111, "duration": 222}, {"note": 65, "velocity": 108, "duration": 1241}, {"note": 0, "velocity": 0, "duration": 199}, {"note": 72, "velocity": 102, "duration": 92}, {"note": 80, "velocity": 111, "duration": 171}, {"note": 0, "velocity": 0, "duration": 69}, {"note": 72, "velocity": 117, "duration": 62}, {"note": 77, "velocity": 97, "duration": 361}, {"note": 0, "velocity": 0, "duration": 119}, {"note": 77, "velocity": 105, "duration": 165}, {"note": 0, "velocity": 0, "duration": 75}, {"note": 75, "velocity": 97, "duration": 61}, {"note": 77, "velocity": 108, "duration": 462}, {"note": 72, "velocity": 105, "duration": 100}, {"note": 80, "velocity": 105, "duration": 160}, {"note": 0, "velocity": 0, "duration": 80}, {"note": 77, "velocity": 94, "duration": 59}, {"note": 0, "velocity": 0, "duration": 61}, {"note": 75, "velocity": 102, "duration": 56}, {"note": 0, "velocity": 0, "duration": 64}, {"note": 77, "velocity": 105, "duration": 182}, {"note": 75, "velocity": 111, "duration": 118}, {"note": 72, "velocity": 114, "duration": 598}, {"note": 0, "velocity": 0, "duration": 482}, {"note": 64, "velocity": 111, "duration": 188}, {"note": 72, "velocity": 108, "duration": 90}, {"note": 68, "velocity": 73, "duration": 76}, {"note": 70, "velocity": 105, "duration": 289}, {"note": 0, "velocity": 0, "duration": 71}, {"note": 70, "velocity": 92, "duration": 68}, {"note": 70, "velocity": 102, "duration": 161}, {"note": 0, "velocity": 0, "duration": 79}, {"note": 70, "velocity": 102, "duration": 87}, {"note": 68, "velocity": 89, "duration": 77}, {"note": 70, "velocity": 114, "duration": 333}, {"note": 0, "velocity": 0, "duration": 147}, {"note": 75, "velocity": 102, "duration": 160}, {"note": 0, "velocity": 0, "duration": 80}, {"note": 77, "velocity": 100, "duration": 77}, {"note": 75, "velocity": 108, "duration": 69}, {"note": 72, "velocity": 111, "duration": 1295}, {"note": 0, "velocity": 0, "duration": 145}, {"note": 72, "velocity": 102, "duration": 92}, {"note": 80, "velocity": 111, "duration": 171}, {"note": 0, "velocity": 0, "duration": 69}, {"note": 72, "velocity": 117, "duration": 62}, {"note": 77, "velocity": 97, "duration": 361}, {"note": 0, "velocity": 0, "duration": 119}, {"note": 77, "velocity": 105, "duration": 165}, {"note": 0, "velocity": 0, "duration": 75}, {"note": 75, "velocity": 97, "duration": 61}, {"note": 77, "velocity": 108, "duration": 462}, {"note": 72, "velocity": 105, "duration": 100}, {"note": 80, "velocity": 105, "duration": 160}, {"note": 0, "velocity": 0, "duration": 80}, {"note": 77, "velocity": 94, "duration": 59}, {"note": 0, "velocity": 0, "duration": 61}, {"note": 75, "velocity": 102, "duration": 56}, {"note": 0, "velocity": 0, "duration": 64}, {"note": 77, "velocity": 105, "duration": 182}, {"note": 75, "velocity": 111, "duration": 118}, {"note": 72, "velocity": 114, "duration": 838}, {"note": 0, "velocity": 0, "duration": 242}, {"note": 64, "velocity": 111, "duration": 188}, {"note": 72, "velocity": 108, "duration": 90}, {"note": 68, "velocity": 73, "duration": 76}, {"note": 70, "velocity": 105, "duration": 289}, {"note": 0, "velocity": 0, "duration": 191}, {"note": 70, "velocity": 102, "duration": 161}, {"note": 0, "velocity": 0, "duration": 79}, {"note": 68, "velocity": 102, "duration": 87}, {"note": 70, "velocity": 114, "duration": 453}, {"note": 0, "velocity": 0, "duration": 147}, {"note": 67, "velocity": 108, "duration": 176}, {"note": 0, "velocity": 0, "duration": 64}, {"note": 70, "velocity": 94, "duration": 90}, {"note": 68, "velocity": 94, "duration": 99}, {"note": 65, "velocity": 102, "duration": 1438}, {"note": 72, "velocity": 102, "duration": 92}, {"note": 80, "velocity": 111, "duration": 171}, {"note": 0, "velocity": 0, "duration": 69}, {"note": 72, "velocity": 117, "duration": 62}, {"note": 77, "velocity": 97, "duration": 361}, {"note": 0, "velocity": 0, "duration": 119}, {"note": 77, "velocity": 105, "duration": 165}, {"note": 0, "velocity": 0, "duration": 75}, {"note": 75, "velocity": 97, "duration": 61}, {"note": 77, "velocity": 108, "duration": 462}, {"note": 72, "velocity": 105, "duration": 100}, {"note": 80, "velocity": 105, "duration": 160}, {"note": 0, "velocity": 0, "duration": 80}, {"note": 77, "velocity": 94, "duration": 59}, {"note": 0, "velocity": 0, "duration": 61}, {"note": 75, "velocity": 102, "duration": 56}, {"note": 0, "velocity": 0, "duration": 64}, {"note": 77, "velocity": 105, "duration": 182}, {"note": 75, "velocity": 111, "duration": 118}, {"note": 72, "velocity": 114, "duration": 598}, {"note": 0, "velocity": 0, "duration": 482}, {"note": 64, "velocity": 111, "duration": 188}, {"note": 72, "velocity": 108, "duration": 90}, {"note": 68, "velocity": 73, "duration": 76}, {"note": 70, "velocity": 105, "duration": 289}, {"note": 0, "velocity": 0, "duration": 71}, {"note": 70, "velocity": 92, "duration": 68}, {"note": 70, "velocity": 102, "duration": 161}, {"note": 0, "velocity": 0, "duration": 79}, {"note": 70, "velocity": 102, "duration": 87}, {"note": 68, "velocity": 89, "duration": 77}, {"note": 70, "velocity": 114, "duration": 333}, {"note": 0, "velocity": 0, "duration": 147}, {"note": 75, "velocity": 102, "duration": 160}, {"note": 0, "velocity": 0, "duration": 80}, {"note": 77, "velocity": 100, "duration": 77}, {"note": 75, "velocity": 108, "duration": 69}, {"note": 72, "velocity": 111, "duration": 1295}, {"note": 0, "velocity": 0, "duration": 145}, {"note": 72, "velocity": 102, "duration": 92}, {"note": 80, "velocity": 111, "duration": 171}, {"note": 0, "velocity": 0, "duration": 69}, {"note": 72, "velocity": 117, "duration": 62}, {"note": 77, "velocity": 97, "duration": 361}, {"note": 0, "velocity": 0, "duration": 119}, {"note": 77, "velocity": 105, "duration": 165}, {"note": 0, "velocity": 0, "duration": 75}, {"note": 75, "velocity": 97, "duration": 61}, {"note": 77, "velocity": 108, "duration": 462}, {"note": 72, "velocity": 105, "duration": 100}, {"note": 80, "velocity": 105, "duration": 160}, {"note": 0, "velocity": 0, "duration": 80}, {"note": 77, "velocity": 94, "duration": 59}, {"note": 0, "velocity": 0, "duration": 61}, {"note": 75, "velocity": 102, "duration": 56}, {"note": 0, "velocity": 0, "duration": 64}, {"note": 77, "velocity": 105, "duration": 182}, {"note": 75, "velocity": 111, "duration": 118}, {"note": 72, "velocity": 114, "duration": 838}, {"note": 0, "velocity": 0, "duration": 242}, {"note": 64, "velocity": 111, "duration": 188}, {"note": 72, "velocity": 108, "duration": 90}, {"note": 68, "velocity": 73, "duration": 76}, {"note": 70, "velocity": 105, "duration": 289}, {"note": 0, "velocity": 0, "duration": 191}, {"note": 70, "velocity": 102, "duration": 161}, {"note": 0, "velocity": 0, "duration": 79}, {"note": 68, "velocity": 102, "duration": 87}, {"note": 70, "velocity": 114, "duration": 453}, {"note": 0, "velocity": 0, "duration": 147}, {"note": 67, "velocity": 108, "duration": 176}, {"note": 0, "velocity": 0, "duration": 64}, {"note": 70, "velocity": 94, "duration": 90}, {"note": 68, "velocity": 94, "duration": 99}, {"note": 65, "velocity": 102, "duration": 1761}]]