[[{"note": 70, "velocity": 97, "duration": 103}, {"note": 70, "velocity": 97, "duration": 99}, {"note": 0, "velocity": 0, "duration": 61}, {"note": 70, "velocity": 97, "duration": 100}, {"note": 70, "velocity": 94, "duration": 108}, {"note": 67, "velocity": 70, "duration": 95}, {"note": 0, "velocity": 0, "duration": 65}, {"note": 68, "velocity": 82, "duration": 106}, {"note": 70, "velocity": 105, "duration": 789}, {"note": 0, "velocity": 0, "duration": 171}, {"note": 67, "velocity": 79, "duration": 101}, {"note": 67, "velocity": 99, "duration": 91}, {"note": 0, "velocity": 0, "duration": 69}, {"note": 67, "velocity": 105, "duration": 131}, {"note": 79, "velocity": 102, "duration": 112}, {"note": 79, "velocity": 90, "duration": 106}, {"note": 77, "velocity": 89, "duration": 101}, {"note": 75, "velocity": 82, "duration": 563}, {"note": 0, "velocity": 0, "duration": 237}, {"note": 72, "velocity": 94, "duration": 123}, {"note": 79, "velocity": 99, "duration": 104}, {"note": 80, "velocity": 100, "duration": 87}, {"note": 0, "velocity": 0, "duration": 73}, {"note": 72, "velocity": 102, "duration": 247}, {"note": 0, "velocity": 0, "duration": 393}, {"note": 79, "velocity": 102, "duration": 230}, {"note": 0, "velocity": 0, "duration": 90}, {"note": 80, "velocity": 108, "duration": 150}, {"note": 72, "velocity": 92, "duration": 302}, {"note": 75, "velocity": 94, "duration": 133}, {"note": 77, "velocity": 89, "duration": 903}, {"note": 0, "velocity": 0, "duration": 1017}, {"note": 70, "velocity": 97, "duration": 103}, {"note": 70, "velocity": 97, "duration": 99}, {"note": 0, "velocity": 0, "duration": 61}, {"note": 70, "velocity": 97, "duration": 100}, {"note": 70, "velocity": 94, "duration": 108}, {"note": 67, "velocity": 70, "duration": 95}, {"note": 0, "velocity": 0, "duration": 65}, {"note": 68, "velocity": 82, "duration": 106}, {"note": 70, "velocity": 105, "duration": 789}, {"note": 0, "velocity": 0, "duration": 171}, {"note": 67, "velocity": 79, "duration": 101}, {"note": 67, "velocity": 99, "duration": 91}, {"note": 0, "velocity": 0, "duration": 69}, {"note": 67, "velocity": 105, "duration": 131}, {"note": 79, "velocity": 102, "duration": 112}, {"note": 79, "velocity": 90, "duration": 106}, {"note": 77, "velocity": 89, "duration": 101}, {"note": 75, "velocity": 82, "duration": 563}, {"note": 0, "velocity": 0, "duration": 237}, {"note": 72, "velocity": 94, "duration": 123}, {"note": 79, "velocity": 99, "duration": 104}, {"note": 80, "velocity": 100, "duration": 87}, {"note": 0, "velocity": 0, "duration": 73}, {"note": 72, "velocity": 102, "duration": 247}, {"note": 0, "velocity": 0, "duration": 233}, {"note": 72, "velocity": 114, "duration": 160}, {"note": 79, "velocity": 102, "duration": 230}, {"note": 0, "velocity": 0, "duration": 90}, {"note": 80, "velocity": 108, "duration": 150}, {"note": 72, "velocity": 92, "duration": 302}, {"note": 75, "velocity": 94, "duration": 133}, {"note": 77, "velocity": 89, "duration": 903}, {"note": 0, "velocity": 0, "duration": 2857}, {"note": 70, "velocity": 105, "duration": 79}, {"note": 79, "velocity": 109, "duration": 104}, {"note": 77, "velocity": 100, "duration": 61}, {"note": 79, "velocity": 109, "duration": 118}, {"note": 77, "velocity": 102, "duration": 63}, {"note": 79, "velocity": 112, "duration": 159}, {"note": 0, "velocity": 0, "duration": 81}, {"note": 70, "velocity": 100, "duration": 108}, {"note": 79, "velocity": 112, "duration": 312}, {"note": 0, "velocity": 0, "duration": 648}, {"note": 70, "velocity": 105, "duration": 56}, {"note": 77, "velocity": 105, "duration": 101}, {"note": 75, "velocity": 73, "duration": 53}, {"note": 77, "velocity": 100, "duration": 84}, {"note": 0, "velocity": 0, "duration": 76}, {"note": 75, "velocity": 94, "duration": 58}, {"note": 74, "velocity": 109, "duration": 130}, {"note": 0, "velocity": 0, "duration": 110}, {"note": 67, "velocity": 116, "duration": 69}, {"note": 0, "velocity": 0, "duration": 91}, {"note": 72, "velocity": 105, "duration": 398}, {"note": 0, "velocity": 0, "duration": 562}, {"note": 72, "velocity": 111, "duration": 61}, {"note": 79, "velocity": 112, "duration": 66}, {"note": 0, "velocity": 0, "duration": 94}, {"note": 79, "velocity": 96, "duration": 53}, {"note": 79, "velocity": 72, "duration": 68}, {"note": 0, "velocity": 0, "duration": 92}, {"note": 79, "velocity": 105, "duration": 46}, {"note": 79, "velocity": 99, "duration": 153}, {"note": 0, "velocity": 0, "duration": 87}, {"note": 79, "velocity": 105, "duration": 63}, {"note": 0, "velocity": 0, "duration": 97}, {"note": 79, "velocity": 109, "duration": 279}, {"note": 80, "velocity": 114, "duration": 172}, {"note": 0, "velocity": 0, "duration": 68}, {"note": 72, "velocity": 114, "duration": 182}, {"note": 75, "velocity": 108, "duration": 266}, {"note": 77, "velocity": 114, "duration": 934}, {"note": 0, "velocity": 0, "duration": 906}, {"note": 70, "velocity": 105, "duration": 79}, {"note": 79, "velocity": 109, "duration": 104}, {"note": 79, "velocity": 100, "duration": 61}, {"note": 79, "velocity": 109, "duration": 118}, {"note": 79, "velocity": 102, "duration": 63}, {"note": 79, "velocity": 112, "duration": 159}, {"note": 0, "velocity": 0, "duration": 81}, {"note": 70, "velocity": 100, "duration": 108}, {"note": 79, "velocity": 112, "duration": 312}, {"note": 0, "velocity": 0, "duration": 648}, {"note": 70, "velocity": 105, "duration": 56}, {"note": 77, "velocity": 105, "duration": 101}, {"note": 75, "velocity": 73, "duration": 53}, {"note": 77, "velocity": 100, "duration": 84}, {"note": 0, "velocity": 0, "duration": 76}, {"note": 75, "velocity": 94, "duration": 58}, {"note": 74, "velocity": 109, "duration": 130}, {"note": 0, "velocity": 0, "duration": 110}, {"note": 75, "velocity": 116, "duration": 69}, {"note": 0, "velocity": 0, "duration": 91}, {"note": 72, "velocity": 105, "duration": 398}, {"note": 0, "velocity": 0, "duration": 562}, {"note": 72, "velocity": 111, "duration": 61}, {"note": 79, "velocity": 112, "duration": 66}, {"note": 0, "velocity": 0, "duration": 94}, {"note": 79, "velocity": 96, "duration": 53}, {"note": 79, "velocity": 72, "duration": 68}, {"note": 0, "velocity": 0, "duration": 92}, {"note": 79, "velocity": 105, "duration": 46}, {"note": 79, "velocity": 99, "duration": 153}, {"note": 0, "velocity": 0, "duration": 87}, {"note": 79, "velocity": 105, "duration": 63}, {"note": 0, "velocity": 0, "duration": 97}, {"note": 79, "velocity": 109, "duration": 279}, {"note": 80, "velocity": 114, "duration": 172}, {"note": 0, "velocity": 0, "duration": 68}, {"note": 72, "velocity": 114, "duration": 182}, {"note": 75, "velocity": 108, "duration": 266}, {"note": 79, "velocity": 105, "duration": 170}, {"note": 0, "velocity": 0, "duration": 70}, {"note": 77, "velocity": 108, "duration": 1274}, {"note": 0, "velocity": 0, "duration": 406}, {"note": 68, "velocity": 108, "duration": 110}, {"note": 70, "velocity": 92, "duration": 132}, {"note": 0, "velocity": 0, "duration": 228}, {"note": 70, "velocity": 100, "duration": 75}, {"note": 68, "velocity": 67, "duration": 75}, {"note": 67, "velocity": 109, "duration": 64}, {"note": 68, "velocity": 97, "duration": 64}, {"note": 70, "velocity": 97, "duration": 698}, {"note": 0, "velocity": 0, "duration": 262}, {"note": 67, "velocity": 105, "duration": 165}, {"note": 0, "velocity": 0, "duration": 75}, {"note": 67, "velocity": 112, "duration": 47}, {"note": 0, "velocity": 0, "duration": 73}, {"note": 67, "velocity": 102, "duration": 56}, {"note": 0, "velocity": 0, "duration": 64}, {"note": 79, "velocity": 93, "duration": 161}, {"note": 0, "velocity": 0, "duration": 79}, {"note": 77, "velocity": 112, "duration": 240}, {"note": 75, "velocity": 92, "duration": 471}, {"note": 0, "velocity": 0, "duration": 369}, {"note": 70, "velocity": 105, "duration": 129}, {"note": 79, "velocity": 109, "duration": 198}, {"note": 80, "velocity": 97, "duration": 82}, {"note": 72, "velocity": 82, "duration": 342}, {"note": 0, "velocity": 0, "duration": 258}, {"note": 79, "velocity": 99, "duration": 161}, {"note": 0, "velocity": 0, "duration": 79}, {"note": 80, "velocity": 97, "duration": 132}, {"note": 0, "velocity": 0, "duration": 108}, {"note": 80, "velocity": 100, "duration": 168}, {"note": 0, "velocity": 0, "duration": 72}, {"note": 79, "velocity": 102, "duration": 155}, {"note": 0, "velocity": 0, "duration": 85}, {"note": 77, "velocity": 100, "duration": 75}, {"note": 75, "velocity": 94, "duration": 1553}, {"note": 0, "velocity": 0, "duration": 167}, {"note": 70, "velocity": 105, "duration": 79}, {"note": 79, "velocity": 109, "duration": 104}, {"note": 77, "velocity": 100, "duration": 61}, {"note": 79, "velocity": 109, "duration": 118}, {"note": 77, "velocity": 102, "duration": 63}, {"note": 79, "velocity": 112, "duration": 159}, {"note": 0, "velocity": 0, "duration": 81}, {"note": 70, "velocity": 100, "duration": 108}, {"note": 79, "velocity": 112, "duration": 312}, {"note": 0, "velocity": 0, "duration": 648}, {"note": 70, "velocity": 105, "duration": 56}, {"note": 77, "velocity": 105, "duration": 101}, {"note": 75, "velocity": 73, "duration": 53}, {"note": 77, "velocity": 100, "duration": 84}, {"note": 0, "velocity": 0, "duration": 76}, {"note": 75, "velocity": 94, "duration": 58}, {"note": 74, "velocity": 109, "duration": 130}, {"note": 0, "velocity": 0, "duration": 110}, {"note": 67, "velocity": 116, "duration": 69}, {"note": 0, "velocity": 0, "duration": 91}, {"note": 72, "velocity": 105, "duration": 398}, {"note": 0, "velocity": 0, "duration": 562}, {"note": 72, "velocity": 111, "duration": 61}, {"note": 79, "velocity": 112, "duration": 66}, {"note": 0, "velocity": 0, "duration": 94}, {"note": 79, "velocity": 96, "duration": 53}, {"note": 79, "velocity": 72, "duration": 68}, {"note": 0, "velocity": 0, "duration": 92}, {"note": 79, "velocity": 105, "duration": 46}, {"note": 79, "velocity": 99, "duration": 153}, {"note": 0, "velocity": 0, "duration": 87}, {"note": 79, "velocity": 105, "duration": 63}, {"note": 0, "velocity": 0, "duration": 97}, {"note": 79, "velocity": 109, "duration": 279}, {"note": 80, "velocity": 114, "duration": 172}, {"note": 0, "velocity": 0, "duration": 68}, {"note": 72, "velocity": 114, "duration": 182}, {"note": 75, "velocity": 108, "duration": 266}, {"note": 77, "velocity": 114, "duration": 934}, {"note": 0, "velocity": 0, "duration": 906}, {"note": 70, "velocity": 105, "duration": 79}, {"note": 79, "velocity": 109, "duration": 104}, {"note": 79, "velocity": 100, "duration": 61}, {"note": 79, "velocity": 109, "duration": 118}, {"note": 79, "velocity": 102, "duration": 63}, {"note": 79, "velocity": 112, "duration": 159}, {"note": 0, "velocity": 0, "duration": 81}, {"note": 70, "velocity": 100, "duration": 108}, {"note": 79, "velocity": 112, "duration": 312}, {"note": 0, "velocity": 0, "duration": 648}, {"note": 70, "velocity": 105, "duration": 56}, {"note": 77, "velocity": 105, "duration": 101}, {"note": 75, "velocity": 73, "duration": 53}, {"note": 77, "velocity": 100, "duration": 84}, {"note": 0, "velocity": 0, "duration": 76}, {"note": 75, "velocity": 94, "duration": 58}, {"note": 74, "velocity": 109, "duration": 130}, {"note": 0, "velocity": 0, "duration": 110}, {"note": 75, "velocity": 116, "duration": 69}, {"note": 0, "velocity": 0, "duration": 91}, {"note": 72, "velocity": 105, "duration": 398}, {"note": 0, "velocity": 0, "duration": 562}, {"note": 72, "velocity": 111, "duration": 61}, {"note": 79, "velocity": 112, "duration": 66}, {"note": 0, "velocity": 0, "duration": 94}, {"note": 79, "velocity": 96, "duration": 53}, {"note": 79, "velocity": 72, "duration": 68}, {"note": 0, "velocity": 0, "duration": 92}, {"note": 79, "velocity": 105, "duration": 46}, {"note": 79, "velocity": 99, "duration": 153}, {"note": 0, "velocity": 0, "duration": 87}, {"note": 79, "velocity": 105, "duration": 63}, {"note": 0, "velocity": 0, "duration": 97}, {"note": 79, "velocity": 109, "duration": 279}, {"note": 80, "velocity": 114, "duration": 172}, {"note": 0, "velocity": 0, "duration": 68}, {"note": 72, "velocity": 114, "duration": 182}, {"note": 75, "velocity": 108, "duration": 266}, {"note": 79, "velocity": 105, "duration": 170}, {"note": 0, "velocity": 0, "duration": 70}, {"note": 77, "velocity": 108, "duration": 1274}, {"note": 0, "velocity": 0, "duration": 406}, {"note": 68, "velocity": 108, "duration": 110}, {"note": 70, "velocity": 92, "duration": 132}, {"note": 0, "velocity": 0, "duration": 228}, {"note": 70, "velocity": 100, "duration": 75}, {"note": 68, "velocity": 67, "duration": 75}, {"note": 67, "velocity": 109, "duration": 64}, {"note": 68, "velocity": 97, "duration": 64}, {"note": 70, "velocity": 97, "duration": 698}, {"note": 0, "velocity": 0, "duration": 262}, {"note": 67, "velocity": 105, "duration": 165}, {"note": 0, "velocity": 0, "duration": 75}, {"note": 67, "velocity": 112, "duration": 47}, {"note": 0, "velocity": 0, "duration": 73}, {"note": 67, "velocity": 102, "duration": 56}, {"note": 0, "velocity": 0, "duration": 64}, {"note": 79, "velocity": 93, "duration": 161}, {"note": 0, "velocity": 0, "duration": 79}, {"note": 77, "velocity": 112, "duration": 240}, {"note": 75, "velocity": 92, "duration": 471}, {"note": 0, "velocity": 0, "duration": 369}, {"note": 70, "velocity": 105, "duration": 129}, {"note": 79, "velocity": 109, "duration": 198}, {"note": 80, "velocity": 97, "duration": 82}, {"note": 72, "velocity": 82, "duration": 342}, {"note": 0, "velocity": 0, "duration": 258}, {"note": 79, "velocity": 99, "duration": 161}, {"note": 0, "velocity": 0, "duration": 79}, {"note": 80, "velocity": 97, "duration": 132}, {"note": 0, "velocity": 0, "duration": 108}, {"note": 80, "velocity": 100, "duration": 168}, {"note": 0, "velocity": 0, "duration": 72}, {"note": 79, "velocity": 102, "duration": 155}, {"note": 0, "velocity": 0, "duration": 85}, {"note": 77, "velocity": 100, "duration": 75}, {"note": 75, "velocity": 94, "duration": 1553}]]