[[{"note": 65, "velocity": 117, "duration": 240}, {"note": 68, "velocity": 117, "duration": 239}, {"note": 68, "velocity": 117, "duration": 240}, {"note": 65, "velocity": 114, "duration": 240}, {"note": 70, "velocity": 100, "duration": 960}, {"note": 58, "velocity": 108, "duration": 240}, {"note": 61, "velocity": 105, "duration": 239}, {"note": 61, "velocity": 111, "duration": 240}, {"note": 58, "velocity": 108, "duration": 240}, {"note": 68, "velocity": 111, "duration": 120}, {"note": 65, "velocity": 102, "duration": 120}, {"note": 63, "velocity": 92, "duration": 720}, {"note": 65, "velocity": 100, "duration": 120}, {"note": 68, "velocity": 105, "duration": 359}, {"note": 68, "velocity": 114, "duration": 240}, {"note": 65, "velocity": 108, "duration": 240}, {"note": 73, "velocity": 78, "duration": 960}, {"note": 70, "velocity": 105, "duration": 239}, {"note": 70, "velocity": 114, "duration": 240}, {"note": 73, "velocity": 114, "duration": 240}, {"note": 65, "velocity": 111, "duration": 240}, {"note": 68, "velocity": 105, "duration": 960}, {"note": 73, "velocity": 97, "duration": 240}, {"note": 70, "velocity": 105, "duration": 240}, {"note": 68, "velocity": 102, "duration": 240}, {"note": 70, "velocity": 111, "duration": 240}, {"note": 73, "velocity": 111, "duration": 960}, {"note": 70, "velocity": 108, "duration": 240}, {"note": 68, "velocity": 111, "duration": 240}, {"note": 65, "velocity": 108, "duration": 240}, {"note": 68, "velocity": 108, "duration": 240}, {"note": 70, "velocity": 102, "duration": 960}, {"note": 68, "velocity": 111, "duration": 120}, {"note": 70, "velocity": 114, "duration": 359}, {"note": 70, "velocity": 117, "duration": 240}, {"note": 68, "velocity": 111, "duration": 240}, {"note": 73, "velocity": 111, "duration": 240}, {"note": 58, "velocity": 108, "duration": 240}, {"note": 61, "velocity": 102, "duration": 480}, {"note": 63, "velocity": 111, "duration": 240}, {"note": 65, "velocity": 117, "duration": 240}, {"note": 63, "velocity": 105, "duration": 240}, {"note": 70, "velocity": 111, "duration": 240}, {"note": 68, "velocity": 108, "duration": 960}, {"note": 65, "velocity": 117, "duration": 240}, {"note": 68, "velocity": 117, "duration": 239}, {"note": 68, "velocity": 117, "duration": 240}, {"note": 65, "velocity": 114, "duration": 240}, {"note": 70, "velocity": 100, "duration": 960}, {"note": 58, "velocity": 108, "duration": 240}, {"note": 61, "velocity": 105, "duration": 239}, {"note": 61, "velocity": 111, "duration": 240}, {"note": 58, "velocity": 108, "duration": 240}, {"note": 68, "velocity": 111, "duration": 120}, {"note": 65, "velocity": 102, "duration": 120}, {"note": 63, "velocity": 92, "duration": 720}, {"note": 65, "velocity": 100, "duration": 120}, {"note": 68, "velocity": 105, "duration": 359}, {"note": 68, "velocity": 114, "duration": 240}, {"note": 65, "velocity": 108, "duration": 240}, {"note": 73, "velocity": 78, "duration": 960}, {"note": 70, "velocity": 105, "duration": 239}, {"note": 70, "velocity": 114, "duration": 240}, {"note": 73, "velocity": 114, "duration": 240}, {"note": 65, "velocity": 111, "duration": 240}, {"note": 68, "velocity": 105, "duration": 960}, {"note": 73, "velocity": 97, "duration": 240}, {"note": 70, "velocity": 105, "duration": 240}, {"note": 68, "velocity": 102, "duration": 240}, {"note": 70, "velocity": 111, "duration": 240}, {"note": 73, "velocity": 111, "duration": 960}, {"note": 70, "velocity": 108, "duration": 240}, {"note": 68, "velocity": 111, "duration": 240}, {"note": 65, "velocity": 108, "duration": 240}, {"note": 68, "velocity": 108, "duration": 240}, {"note": 70, "velocity": 102, "duration": 960}, {"note": 68, "velocity": 111, "duration": 120}, {"note": 70, "velocity": 114, "duration": 359}, {"note": 70, "velocity": 117, "duration": 240}, {"note": 68, "velocity": 111, "duration": 240}, {"note": 73, "velocity": 111, "duration": 240}, {"note": 58, "velocity": 108, "duration": 240}, {"note": 61, "velocity": 102, "duration": 480}, {"note": 63, "velocity": 111, "duration": 240}, {"note": 65, "velocity": 117, "duration": 240}, {"note": 63, "velocity": 105, "duration": 240}, {"note": 70, "velocity": 111, "duration": 240}, {"note": 68, "velocity": 108, "duration": 960}, {"note": 65, "velocity": 111, "duration": 240}, {"note": 68, "velocity": 108, "duration": 239}, {"note": 68, "velocity": 108, "duration": 240}, {"note": 65, "velocity": 117, "duration": 240}, {"note": 70, "velocity": 111, "duration": 480}, {"note": 68, "velocity": 105, "duration": 240}, {"note": 70, "velocity": 114, "duration": 240}, {"note": 61, "velocity": 111, "duration": 480}, {"note": 58, "velocity": 108, "duration": 240}, {"note": 61, "velocity": 105, "duration": 240}, {"note": 63, "velocity": 114, "duration": 960}, {"note": 65, "velocity": 111, "duration": 240}, {"note": 68, "velocity": 108, "duration": 239}, {"note": 68, "velocity": 111, "duration": 240}, {"note": 70, "velocity": 102, "duration": 240}, {"note": 73, "velocity": 94, "duration": 479}, {"note": 73, "velocity": 105, "duration": 240}, {"note": 73, "velocity": 89, "duration": 240}, {"note": 70, "velocity": 111, "duration": 240}, {"note": 68, "velocity": 100, "duration": 239}, {"note": 68, "velocity": 111, "duration": 240}, {"note": 65, "velocity": 108, "duration": 240}, {"note": 63, "velocity": 111, "duration": 960}, {"note": 65, "velocity": 108, "duration": 240}, {"note": 68, "velocity": 97, "duration": 239}, {"note": 68, "velocity": 100, "duration": 240}, {"note": 65, "velocity": 105, "duration": 240}, {"note": 70, "velocity": 92, "duration": 480}, {"note": 73, "velocity": 105, "duration": 480}, {"note": 58, "velocity": 102, "duration": 480}, {"note": 65, "velocity": 108, "duration": 480}, {"note": 63, "velocity": 105, "duration": 480}, {"note": 61, "velocity": 84, "duration": 240}, {"note": 63, "velocity": 92, "duration": 240}, {"note": 65, "velocity": 111, "duration": 240}, {"note": 68, "velocity": 111, "duration": 239}, {"note": 68, "velocity": 92, "duration": 240}, {"note": 70, "velocity": 102, "duration": 240}, {"note": 73, "velocity": 87, "duration": 479}, {"note": 73, "velocity": 111, "duration": 239}, {"note": 73, "velocity": 105, "duration": 240}, {"note": 70, "velocity": 89, "duration": 240}, {"note": 68, "velocity": 108, "duration": 240}, {"note": 65, "velocity": 108, "duration": 480}, {"note": 68, "velocity": 111, "duration": 960}, {"note": 65, "velocity": 111, "duration": 240}, {"note": 68, "velocity": 108, "duration": 239}, {"note": 68, "velocity": 108, "duration": 240}, {"note": 65, "velocity": 117, "duration": 240}, {"note": 70, "velocity": 111, "duration": 480}, {"note": 68, "velocity": 105, "duration": 240}, {"note": 70, "velocity": 114, "duration": 240}, {"note": 61, "velocity": 111, "duration": 480}, {"note": 58, "velocity": 108, "duration": 240}, {"note": 61, "velocity": 105, "duration": 240}, {"note": 63, "velocity": 114, "duration": 960}, {"note": 65, "velocity": 111, "duration": 240}, {"note": 68, "velocity": 108, "duration": 239}, {"note": 68, "velocity": 111, "duration": 240}, {"note": 70, "velocity": 102, "duration": 240}, {"note": 73, "velocity": 94, "duration": 479}, {"note": 73, "velocity": 105, "duration": 240}, {"note": 73, "velocity": 89, "duration": 240}, {"note": 70, "velocity": 111, "duration": 240}, {"note": 68, "velocity": 100, "duration": 239}, {"note": 68, "velocity": 111, "duration": 240}, {"note": 65, "velocity": 108, "duration": 240}, {"note": 63, "velocity": 111, "duration": 960}, {"note": 65, "velocity": 108, "duration": 240}, {"note": 68, "velocity": 97, "duration": 239}, {"note": 68, "velocity": 100, "duration": 240}, {"note": 65, "velocity": 105, "duration": 240}, {"note": 70, "velocity": 92, "duration": 480}, {"note": 73, "velocity": 105, "duration": 480}, {"note": 58, "velocity": 102, "duration": 480}, {"note": 65, "velocity": 108, "duration": 480}, {"note": 63, "velocity": 105, "duration": 480}, {"note": 61, "velocity": 84, "duration": 240}, {"note": 63, "velocity": 92, "duration": 240}, {"note": 65, "velocity": 111, "duration": 240}, {"note": 68, "velocity": 111, "duration": 239}, {"note": 68, "velocity": 92, "duration": 251}, {"note": 68, "velocity": 102, "duration": 228}, {"note": 70, "velocity": 114, "duration": 240}, {"note": 68, "velocity": 111, "duration": 240}, {"note": 65, "velocity": 108, "duration": 240}, {"note": 68, "velocity": 105, "duration": 240}, {"note": 70, "velocity": 87, "duration": 240}, {"note": 68, "velocity": 100, "duration": 240}, {"note": 65, "velocity": 114, "duration": 480}, {"note": 72, "velocity": 108, "duration": 960}, {"note": 73, "velocity": 111, "duration": 240}, {"note": 70, "velocity": 105, "duration": 240}, {"note": 68, "velocity": 102, "duration": 240}, {"note": 65, "velocity": 108, "duration": 240}, {"note": 63, "velocity": 105, "duration": 240}, {"note": 68, "velocity": 100, "duration": 239}, {"note": 68, "velocity": 111, "duration": 240}, {"note": 58, "velocity": 108, "duration": 240}, {"note": 56, "velocity": 111, "duration": 480}, {"note": 68, "velocity": 102, "duration": 240}, {"note": 70, "velocity": 102, "duration": 240}, {"note": 65, "velocity": 97, "duration": 240}, {"note": 68, "velocity": 102, "duration": 240}, {"note": 58, "velocity": 96, "duration": 480}, {"note": 61, "velocity": 92, "duration": 1203}, {"note": 0, "velocity": 0, "duration": 21837}, {"note": 65, "velocity": 111, "duration": 240}, {"note": 68, "velocity": 108, "duration": 239}, {"note": 68, "velocity": 108, "duration": 240}, {"note": 65, "velocity": 117, "duration": 240}, {"note": 70, "velocity": 111, "duration": 480}, {"note": 68, "velocity": 105, "duration": 240}, {"note": 70, "velocity": 114, "duration": 240}, {"note": 61, "velocity": 111, "duration": 480}, {"note": 58, "velocity": 108, "duration": 240}, {"note": 61, "velocity": 105, "duration": 240}, {"note": 63, "velocity": 114, "duration": 960}, {"note": 65, "velocity": 111, "duration": 240}, {"note": 68, "velocity": 108, "duration": 239}, {"note": 68, "velocity": 111, "duration": 240}, {"note": 70, "velocity": 102, "duration": 240}, {"note": 73, "velocity": 94, "duration": 479}, {"note": 73, "velocity": 105, "duration": 240}, {"note": 73, "velocity": 89, "duration": 240}, {"note": 70, "velocity": 111, "duration": 240}, {"note": 68, "velocity": 100, "duration": 239}, {"note": 68, "velocity": 111, "duration": 240}, {"note": 65, "velocity": 108, "duration": 240}, {"note": 63, "velocity": 111, "duration": 960}, {"note": 65, "velocity": 108, "duration": 240}, {"note": 68, "velocity": 97, "duration": 239}, {"note": 68, "velocity": 100, "duration": 240}, {"note": 65, "velocity": 105, "duration": 240}, {"note": 70, "velocity": 92, "duration": 480}, {"note": 73, "velocity": 105, "duration": 480}, {"note": 58, "velocity": 102, "duration": 480}, {"note": 65, "velocity": 108, "duration": 480}, {"note": 63, "velocity": 105, "duration": 480}, {"note": 61, "velocity": 84, "duration": 240}, {"note": 63, "velocity": 92, "duration": 240}, {"note": 65, "velocity": 111, "duration": 240}, {"note": 68, "velocity": 111, "duration": 239}, {"note": 68, "velocity": 92, "duration": 240}, {"note": 70, "velocity": 102, "duration": 240}, {"note": 73, "velocity": 87, "duration": 479}, {"note": 73, "velocity": 111, "duration": 239}, {"note": 73, "velocity": 105, "duration": 240}, {"note": 70, "velocity": 89, "duration": 240}, {"note": 68, "velocity": 108, "duration": 240}, {"note": 65, "velocity": 108, "duration": 480}, {"note": 68, "velocity": 111, "duration": 960}, {"note": 65, "velocity": 111, "duration": 240}, {"note": 68, "velocity": 108, "duration": 239}, {"note": 68, "velocity": 108, "duration": 240}, {"note": 65, "velocity": 117, "duration": 240}, {"note": 70, "velocity": 111, "duration": 480}, {"note": 68, "velocity": 105, "duration": 240}, {"note": 70, "velocity": 114, "duration": 240}, {"note": 61, "velocity": 111, "duration": 480}, {"note": 58, "velocity": 108, "duration": 240}, {"note": 61, "velocity": 105, "duration": 240}, {"note": 63, "velocity": 114, "duration": 960}, {"note": 65, "velocity": 111, "duration": 240}, {"note": 68, "velocity": 108, "duration": 239}, {"note": 68, "velocity": 111, "duration": 240}, {"note": 70, "velocity": 102, "duration": 240}, {"note": 73, "velocity": 94, "duration": 479}, {"note": 73, "velocity": 105, "duration": 240}, {"note": 73, "velocity": 89, "duration": 240}, {"note": 70, "velocity": 111, "duration": 240}, {"note": 68, "velocity": 100, "duration": 239}, {"note": 68, "velocity": 111, "duration": 240}, {"note": 65, "velocity": 108, "duration": 240}, {"note": 63, "velocity": 111, "duration": 960}, {"note": 65, "velocity": 108, "duration": 240}, {"note": 68, "velocity": 97, "duration": 239}, {"note": 68, "velocity": 100, "duration": 240}, {"note": 65, "velocity": 105, "duration": 240}, {"note": 70, "velocity": 92, "duration": 480}, {"note": 73, "velocity": 105, "duration": 480}, {"note": 58, "velocity": 102, "duration": 480}, {"note": 65, "velocity": 108, "duration": 480}, {"note": 63, "velocity": 105, "duration": 480}, {"note": 61, "velocity": 84, "duration": 240}, {"note": 63, "velocity": 92, "duration": 240}, {"note": 65, "velocity": 111, "duration": 240}, {"note": 68, "velocity": 111, "duration": 239}, {"note": 68, "velocity": 92, "duration": 251}, {"note": 68, "velocity": 102, "duration": 228}, {"note": 70, "velocity": 114, "duration": 240}, {"note": 68, "velocity": 111, "duration": 240}, {"note": 65, "velocity": 108, "duration": 240}, {"note": 68, "velocity": 105, "duration": 240}, {"note": 70, "velocity": 87, "duration": 240}, {"note": 68, "velocity": 100, "duration": 240}, {"note": 65, "velocity": 114, "duration": 480}, {"note": 72, "velocity": 108, "duration": 960}, {"note": 73, "velocity": 111, "duration": 240}, {"note": 70, "velocity": 105, "duration": 240}, {"note": 68, "velocity": 102, "duration": 240}, {"note": 65, "velocity": 108, "duration": 240}, {"note": 63, "velocity": 105, "duration": 240}, {"note": 68, "velocity": 100, "duration": 239}, {"note": 68, "velocity": 111, "duration": 240}, {"note": 58, "velocity": 108, "duration": 240}, {"note": 56, "velocity": 111, "duration": 480}, {"note": 68, "velocity": 102, "duration": 240}, {"note": 70, "velocity": 102, "duration": 240}, {"note": 65, "velocity": 97, "duration": 240}, {"note": 68, "velocity": 102, "duration": 240}, {"note": 58, "velocity": 96, "duration": 480}, {"note": 61, "velocity": 92, "duration": 1920}, {"note": 65, "velocity": 111, "duration": 240}, {"note": 68, "velocity": 108, "duration": 239}, {"note": 68, "velocity": 108, "duration": 240}, {"note": 65, "velocity": 117, "duration": 240}, {"note": 70, "velocity": 111, "duration": 480}, {"note": 68, "velocity": 105, "duration": 240}, {"note": 70, "velocity": 114, "duration": 240}, {"note": 61, "velocity": 111, "duration": 480}, {"note": 58, "velocity": 108, "duration": 240}, {"note": 61, "velocity": 105, "duration": 240}, {"note": 63, "velocity": 114, "duration": 960}, {"note": 65, "velocity": 111, "duration": 240}, {"note": 68, "velocity": 108, "duration": 239}, {"note": 68, "velocity": 111, "duration": 240}, {"note": 70, "velocity": 102, "duration": 240}, {"note": 73, "velocity": 94, "duration": 479}, {"note": 73, "velocity": 105, "duration": 240}, {"note": 73, "velocity": 89, "duration": 240}, {"note": 70, "velocity": 111, "duration": 240}, {"note": 68, "velocity": 100, "duration": 239}, {"note": 68, "velocity": 111, "duration": 240}, {"note": 65, "velocity": 108, "duration": 240}, {"note": 63, "velocity": 111, "duration": 960}, {"note": 65, "velocity": 108, "duration": 240}, {"note": 68, "velocity": 97, "duration": 239}, {"note": 68, "velocity": 100, "duration": 240}, {"note": 65, "velocity": 105, "duration": 240}, {"note": 70, "velocity": 92, "duration": 480}, {"note": 73, "velocity": 105, "duration": 480}, {"note": 58, "velocity": 102, "duration": 480}, {"note": 65, "velocity": 108, "duration": 480}, {"note": 63, "velocity": 105, "duration": 480}, {"note": 61, "velocity": 84, "duration": 240}, {"note": 63, "velocity": 92, "duration": 240}, {"note": 65, "velocity": 111, "duration": 240}, {"note": 68, "velocity": 111, "duration": 239}, {"note": 68, "velocity": 92, "duration": 240}, {"note": 70, "velocity": 102, "duration": 240}, {"note": 73, "velocity": 87, "duration": 479}, {"note": 73, "velocity": 111, "duration": 239}, {"note": 73, "velocity": 105, "duration": 240}, {"note": 70, "velocity": 89, "duration": 240}, {"note": 68, "velocity": 108, "duration": 240}, {"note": 65, "velocity": 108, "duration": 480}, {"note": 68, "velocity": 111, "duration": 960}, {"note": 65, "velocity": 111, "duration": 240}, {"note": 68, "velocity": 108, "duration": 239}, {"note": 68, "velocity": 108, "duration": 240}, {"note": 65, "velocity": 117, "duration": 240}, {"note": 70, "velocity": 111, "duration": 480}, {"note": 68, "velocity": 105, "duration": 240}, {"note": 70, "velocity": 114, "duration": 240}, {"note": 61, "velocity": 111, "duration": 480}, {"note": 58, "velocity": 108, "duration": 240}, {"note": 61, "velocity": 105, "duration": 240}, {"note": 63, "velocity": 114, "duration": 960}, {"note": 65, "velocity": 111, "duration": 240}, {"note": 68, "velocity": 108, "duration": 239}, {"note": 68, "velocity": 111, "duration": 240}, {"note": 70, "velocity": 102, "duration": 240}, {"note": 73, "velocity": 94, "duration": 479}, {"note": 73, "velocity": 105, "duration": 240}, {"note": 73, "velocity": 89, "duration": 240}, {"note": 70, "velocity": 111, "duration": 240}, {"note": 68, "velocity": 100, "duration": 239}, {"note": 68, "velocity": 111, "duration": 240}, {"note": 65, "velocity": 108, "duration": 240}, {"note": 63, "velocity": 111, "duration": 960}, {"note": 65, "velocity": 108, "duration": 240}, {"note": 68, "velocity": 97, "duration": 239}, {"note": 68, "velocity": 100, "duration": 240}, {"note": 65, "velocity": 105, "duration": 240}, {"note": 70, "velocity": 92, "duration": 480}, {"note": 73, "velocity": 105, "duration": 480}, {"note": 58, "velocity": 102, "duration": 480}, {"note": 65, "velocity": 108, "duration": 480}, {"note": 63, "velocity": 105, "duration": 480}, {"note": 61, "velocity": 84, "duration": 240}, {"note": 63, "velocity": 92, "duration": 240}, {"note": 65, "velocity": 111, "duration": 240}, {"note": 68, "velocity": 111, "duration": 239}, {"note": 68, "velocity": 92, "duration": 251}, {"note": 68, "velocity": 102, "duration": 228}, {"note": 70, "velocity": 114, "duration": 240}, {"note": 68, "velocity": 111, "duration": 240}, {"note": 65, "velocity": 108, "duration": 240}, {"note": 68, "velocity": 105, "duration": 240}, {"note": 70, "velocity": 87, "duration": 240}, {"note": 68, "velocity": 100, "duration": 240}, {"note": 65, "velocity": 114, "duration": 480}, {"note": 72, "velocity": 108, "duration": 960}, {"note": 73, "velocity": 111, "duration": 240}, {"note": 70, "velocity": 105, "duration": 240}, {"note": 68, "velocity": 102, "duration": 240}, {"note": 65, "velocity": 108, "duration": 240}, {"note": 63, "velocity": 105, "duration": 240}, {"note": 68, "velocity": 100, "duration": 239}, {"note": 68, "velocity": 111, "duration": 240}, {"note": 58, "velocity": 108, "duration": 240}, {"note": 56, "velocity": 111, "duration": 480}, {"note": 68, "velocity": 102, "duration": 240}, {"note": 70, "velocity": 102, "duration": 240}, {"note": 65, "velocity": 97, "duration": 240}, {"note": 68, "velocity": 102, "duration": 240}, {"note": 58, "velocity": 96, "duration": 480}, {"note": 61, "velocity": 92, "duration": 1203}]]