[[{"note": 69, "velocity": 53, "duration": 119}, {"note": 69, "velocity": 65, "duration": 120}, {"note": 71, "velocity": 73, "duration": 360}, {"note": 69, "velocity": 81, "duration": 1319}, {"note": 69, "velocity": 67, "duration": 119}, {"note": 69, "velocity": 68, "duration": 120}, {"note": 71, "velocity": 67, "duration": 360}, {"note": 69, "velocity": 76, "duration": 1319}, {"note": 69, "velocity": 71, "duration": 119}, {"note": 69, "velocity": 75, "duration": 120}, {"note": 71, "velocity": 75, "duration": 360}, {"note": 69, "velocity": 59, "duration": 890}, {"note": 71, "velocity": 73, "duration": 120}, {"note": 73, "velocity": 86, "duration": 240}, {"note": 71, "velocity": 71, "duration": 240}, {"note": 69, "velocity": 70, "duration": 120}, {"note": 71, "velocity": 69, "duration": 360}, {"note": 73, "velocity": 76, "duration": 1320}, {"note": 69, "velocity": 67, "duration": 119}, {"note": 69, "velocity": 70, "duration": 240}, {"note": 71, "velocity": 86, "duration": 240}, {"note": 69, "velocity": 68, "duration": 852}, {"note": 76, "velocity": 79, "duration": 119}, {"note": 76, "velocity": 98, "duration": 240}, {"note": 74, "velocity": 68, "duration": 240}, {"note": 73, "velocity": 69, "duration": 120}, {"note": 76, "velocity": 61, "duration": 240}, {"note": 71, "velocity": 64, "duration": 240}, {"note": 69, "velocity": 58, "duration": 359}, {"note": 69, "velocity": 67, "duration": 124}, {"note": 71, "velocity": 63, "duration": 360}, {"note": 73, "velocity": 69, "duration": 360}, {"note": 69, "velocity": 63, "duration": 120}, {"note": 68, "velocity": 74, "duration": 240}, {"note": 69, "velocity": 74, "duration": 240}, {"note": 66, "velocity": 71, "duration": 1319}, {"note": 66, "velocity": 62, "duration": 120}, {"note": 69, "velocity": 74, "duration": 120}, {"note": 66, "velocity": 74, "duration": 360}, {"note": 71, "velocity": 83, "duration": 2400}, {"note": 69, "velocity": 77, "duration": 240}, {"note": 71, "velocity": 74, "duration": 240}, {"note": 73, "velocity": 100, "duration": 479}, {"note": 73, "velocity": 93, "duration": 240}, {"note": 74, "velocity": 83, "duration": 120}, {"note": 71, "velocity": 72, "duration": 839}, {"note": 71, "velocity": 73, "duration": 120}, {"note": 73, "velocity": 68, "duration": 120}, {"note": 69, "velocity": 81, "duration": 239}, {"note": 69, "velocity": 63, "duration": 119}, {"note": 69, "velocity": 58, "duration": 240}, {"note": 78, "velocity": 69, "duration": 360}, {"note": 76, "velocity": 85, "duration": 720}, {"note": 71, "velocity": 76, "duration": 120}, {"note": 73, "velocity": 72, "duration": 122}, {"note": 69, "velocity": 79, "duration": 239}, {"note": 69, "velocity": 71, "duration": 119}, {"note": 69, "velocity": 65, "duration": 240}, {"note": 78, "velocity": 81, "duration": 360}, {"note": 76, "velocity": 108, "duration": 720}, {"note": 71, "velocity": 73, "duration": 120}, {"note": 73, "velocity": 61, "duration": 120}, {"note": 74, "velocity": 85, "duration": 240}, {"note": 73, "velocity": 61, "duration": 120}, {"note": 69, "velocity": 67, "duration": 240}, {"note": 73, "velocity": 76, "duration": 360}, {"note": 71, "velocity": 75, "duration": 480}, {"note": 69, "velocity": 85, "duration": 240}, {"note": 71, "velocity": 59, "duration": 240}, {"note": 73, "velocity": 98, "duration": 479}, {"note": 73, "velocity": 93, "duration": 240}, {"note": 74, "velocity": 68, "duration": 127}, {"note": 71, "velocity": 64, "duration": 839}, {"note": 71, "velocity": 76, "duration": 120}, {"note": 73, "velocity": 67, "duration": 142}, {"note": 69, "velocity": 74, "duration": 239}, {"note": 69, "velocity": 69, "duration": 119}, {"note": 69, "velocity": 67, "duration": 240}, {"note": 78, "velocity": 81, "duration": 360}, {"note": 76, "velocity": 100, "duration": 720}, {"note": 71, "velocity": 74, "duration": 120}, {"note": 73, "velocity": 65, "duration": 120}, {"note": 74, "velocity": 86, "duration": 240}, {"note": 73, "velocity": 68, "duration": 120}, {"note": 74, "velocity": 74, "duration": 240}, {"note": 69, "velocity": 60, "duration": 240}, {"note": 73, "velocity": 87, "duration": 360}, {"note": 71, "velocity": 76, "duration": 480}, {"note": 73, "velocity": 71, "duration": 120}, {"note": 74, "velocity": 70, "duration": 120}, {"note": 76, "velocity": 95, "duration": 240}, {"note": 74, "velocity": 60, "duration": 120}, {"note": 76, "velocity": 90, "duration": 240}, {"note": 68, "velocity": 81, "duration": 240}, {"note": 76, "velocity": 85, "duration": 307}, {"note": 73, "velocity": 60, "duration": 600}, {"note": 71, "velocity": 76, "duration": 139}, {"note": 73, "velocity": 63, "duration": 120}, {"note": 74, "velocity": 74, "duration": 240}, {"note": 73, "velocity": 61, "duration": 120}, {"note": 74, "velocity": 83, "duration": 360}, {"note": 76, "velocity": 93, "duration": 240}, {"note": 73, "velocity": 64, "duration": 260}, {"note": 69, "velocity": 67, "duration": 240}, {"note": 66, "velocity": 63, "duration": 521}, {"note": 64, "velocity": 81, "duration": 263}, {"note": 71, "velocity": 76, "duration": 360}, {"note": 69, "velocity": 71, "duration": 775}, {"note": 0, "velocity": 0, "duration": 7625}, {"note": 69, "velocity": 53, "duration": 119}, {"note": 69, "velocity": 65, "duration": 120}, {"note": 71, "velocity": 73, "duration": 360}, {"note": 69, "velocity": 81, "duration": 1319}, {"note": 69, "velocity": 67, "duration": 119}, {"note": 69, "velocity": 68, "duration": 120}, {"note": 71, "velocity": 67, "duration": 360}, {"note": 69, "velocity": 76, "duration": 1319}, {"note": 69, "velocity": 71, "duration": 119}, {"note": 69, "velocity": 75, "duration": 120}, {"note": 71, "velocity": 75, "duration": 360}, {"note": 69, "velocity": 59, "duration": 890}, {"note": 71, "velocity": 73, "duration": 120}, {"note": 73, "velocity": 86, "duration": 240}, {"note": 71, "velocity": 71, "duration": 240}, {"note": 69, "velocity": 70, "duration": 120}, {"note": 71, "velocity": 69, "duration": 360}, {"note": 73, "velocity": 76, "duration": 1200}, {"note": 76, "velocity": 87, "duration": 273}, {"note": 74, "velocity": 70, "duration": 177}, {"note": 73, "velocity": 74, "duration": 269}, {"note": 69, "velocity": 85, "duration": 960}, {"note": 76, "velocity": 79, "duration": 119}, {"note": 76, "velocity": 98, "duration": 240}, {"note": 74, "velocity": 68, "duration": 240}, {"note": 73, "velocity": 69, "duration": 120}, {"note": 76, "velocity": 61, "duration": 240}, {"note": 71, "velocity": 64, "duration": 240}, {"note": 69, "velocity": 58, "duration": 359}, {"note": 69, "velocity": 67, "duration": 124}, {"note": 71, "velocity": 63, "duration": 360}, {"note": 73, "velocity": 69, "duration": 360}, {"note": 69, "velocity": 63, "duration": 120}, {"note": 68, "velocity": 74, "duration": 240}, {"note": 69, "velocity": 74, "duration": 240}, {"note": 66, "velocity": 71, "duration": 1319}, {"note": 66, "velocity": 62, "duration": 120}, {"note": 69, "velocity": 74, "duration": 120}, {"note": 66, "velocity": 74, "duration": 360}, {"note": 71, "velocity": 83, "duration": 1440}, {"note": 69, "velocity": 77, "duration": 240}, {"note": 71, "velocity": 74, "duration": 240}, {"note": 73, "velocity": 100, "duration": 479}, {"note": 73, "velocity": 93, "duration": 240}, {"note": 74, "velocity": 83, "duration": 120}, {"note": 71, "velocity": 72, "duration": 839}, {"note": 71, "velocity": 73, "duration": 120}, {"note": 73, "velocity": 68, "duration": 120}, {"note": 69, "velocity": 81, "duration": 239}, {"note": 69, "velocity": 63, "duration": 119}, {"note": 69, "velocity": 58, "duration": 240}, {"note": 78, "velocity": 69, "duration": 360}, {"note": 76, "velocity": 85, "duration": 720}, {"note": 71, "velocity": 76, "duration": 120}, {"note": 73, "velocity": 72, "duration": 122}, {"note": 69, "velocity": 79, "duration": 239}, {"note": 69, "velocity": 71, "duration": 119}, {"note": 69, "velocity": 65, "duration": 240}, {"note": 78, "velocity": 81, "duration": 360}, {"note": 76, "velocity": 108, "duration": 720}, {"note": 71, "velocity": 73, "duration": 120}, {"note": 73, "velocity": 61, "duration": 120}, {"note": 74, "velocity": 85, "duration": 240}, {"note": 73, "velocity": 61, "duration": 120}, {"note": 69, "velocity": 67, "duration": 240}, {"note": 73, "velocity": 76, "duration": 360}, {"note": 71, "velocity": 75, "duration": 480}, {"note": 69, "velocity": 85, "duration": 240}, {"note": 71, "velocity": 59, "duration": 240}, {"note": 73, "velocity": 98, "duration": 479}, {"note": 73, "velocity": 93, "duration": 240}, {"note": 74, "velocity": 68, "duration": 127}, {"note": 71, "velocity": 64, "duration": 839}, {"note": 71, "velocity": 76, "duration": 120}, {"note": 73, "velocity": 67, "duration": 142}, {"note": 69, "velocity": 74, "duration": 239}, {"note": 69, "velocity": 69, "duration": 119}, {"note": 69, "velocity": 67, "duration": 240}, {"note": 78, "velocity": 81, "duration": 360}, {"note": 76, "velocity": 100, "duration": 720}, {"note": 71, "velocity": 74, "duration": 120}, {"note": 73, "velocity": 65, "duration": 120}, {"note": 74, "velocity": 86, "duration": 240}, {"note": 73, "velocity": 68, "duration": 120}, {"note": 74, "velocity": 74, "duration": 240}, {"note": 69, "velocity": 60, "duration": 240}, {"note": 73, "velocity": 87, "duration": 360}, {"note": 71, "velocity": 76, "duration": 480}, {"note": 73, "velocity": 71, "duration": 120}, {"note": 74, "velocity": 70, "duration": 120}, {"note": 76, "velocity": 95, "duration": 240}, {"note": 74, "velocity": 60, "duration": 120}, {"note": 76, "velocity": 90, "duration": 240}, {"note": 68, "velocity": 81, "duration": 240}, {"note": 76, "velocity": 85, "duration": 307}, {"note": 73, "velocity": 60, "duration": 600}, {"note": 71, "velocity": 70, "duration": 120}, {"note": 73, "velocity": 75, "duration": 120}, {"note": 74, "velocity": 93, "duration": 240}, {"note": 73, "velocity": 74, "duration": 120}, {"note": 74, "velocity": 93, "duration": 480}, {"note": 76, "velocity": 76, "duration": 125}, {"note": 73, "velocity": 67, "duration": 240}, {"note": 69, "velocity": 74, "duration": 172}, {"note": 66, "velocity": 83, "duration": 344}, {"note": 64, "velocity": 71, "duration": 240}, {"note": 71, "velocity": 73, "duration": 240}, {"note": 69, "velocity": 65, "duration": 1200}, {"note": 71, "velocity": 77, "duration": 240}, {"note": 73, "velocity": 74, "duration": 240}, {"note": 75, "velocity": 100, "duration": 479}, {"note": 75, "velocity": 93, "duration": 240}, {"note": 76, "velocity": 83, "duration": 120}, {"note": 73, "velocity": 72, "duration": 839}, {"note": 73, "velocity": 73, "duration": 120}, {"note": 75, "velocity": 68, "duration": 120}, {"note": 71, "velocity": 81, "duration": 239}, {"note": 71, "velocity": 63, "duration": 119}, {"note": 71, "velocity": 58, "duration": 240}, {"note": 80, "velocity": 69, "duration": 360}, {"note": 78, "velocity": 85, "duration": 720}, {"note": 73, "velocity": 76, "duration": 120}, {"note": 75, "velocity": 72, "duration": 122}, {"note": 71, "velocity": 79, "duration": 239}, {"note": 71, "velocity": 71, "duration": 119}, {"note": 71, "velocity": 65, "duration": 240}, {"note": 80, "velocity": 81, "duration": 360}, {"note": 78, "velocity": 108, "duration": 720}, {"note": 73, "velocity": 73, "duration": 120}, {"note": 75, "velocity": 61, "duration": 120}, {"note": 76, "velocity": 85, "duration": 240}, {"note": 75, "velocity": 61, "duration": 120}, {"note": 71, "velocity": 67, "duration": 240}, {"note": 75, "velocity": 76, "duration": 360}, {"note": 73, "velocity": 75, "duration": 480}, {"note": 71, "velocity": 85, "duration": 240}, {"note": 73, "velocity": 59, "duration": 240}, {"note": 75, "velocity": 98, "duration": 479}, {"note": 75, "velocity": 93, "duration": 240}, {"note": 76, "velocity": 68, "duration": 127}, {"note": 73, "velocity": 64, "duration": 839}, {"note": 73, "velocity": 76, "duration": 120}, {"note": 75, "velocity": 67, "duration": 142}, {"note": 71, "velocity": 74, "duration": 239}, {"note": 71, "velocity": 69, "duration": 119}, {"note": 71, "velocity": 67, "duration": 240}, {"note": 80, "velocity": 81, "duration": 360}, {"note": 78, "velocity": 100, "duration": 720}, {"note": 73, "velocity": 74, "duration": 120}, {"note": 75, "velocity": 65, "duration": 120}, {"note": 76, "velocity": 86, "duration": 240}, {"note": 75, "velocity": 68, "duration": 120}, {"note": 76, "velocity": 74, "duration": 240}, {"note": 71, "velocity": 60, "duration": 240}, {"note": 75, "velocity": 87, "duration": 360}, {"note": 73, "velocity": 76, "duration": 480}, {"note": 75, "velocity": 71, "duration": 120}, {"note": 76, "velocity": 70, "duration": 120}, {"note": 78, "velocity": 95, "duration": 240}, {"note": 76, "velocity": 60, "duration": 120}, {"note": 78, "velocity": 90, "duration": 240}, {"note": 70, "velocity": 81, "duration": 240}, {"note": 78, "velocity": 85, "duration": 307}, {"note": 75, "velocity": 60, "duration": 600}, {"note": 73, "velocity": 70, "duration": 120}, {"note": 75, "velocity": 75, "duration": 120}, {"note": 76, "velocity": 93, "duration": 240}, {"note": 75, "velocity": 74, "duration": 120}, {"note": 76, "velocity": 93, "duration": 480}, {"note": 78, "velocity": 76, "duration": 125}, {"note": 75, "velocity": 67, "duration": 240}, {"note": 71, "velocity": 74, "duration": 172}, {"note": 68, "velocity": 83, "duration": 344}, {"note": 66, "velocity": 71, "duration": 240}, {"note": 73, "velocity": 83, "duration": 491}, {"note": 71, "velocity": 72, "duration": 1276}, {"note": 73, "velocity": 68, "duration": 138}, {"note": 75, "velocity": 59, "duration": 122}, {"note": 76, "velocity": 77, "duration": 264}, {"note": 75, "velocity": 52, "duration": 240}, {"note": 76, "velocity": 85, "duration": 480}, {"note": 78, "velocity": 73, "duration": 184}, {"note": 75, "velocity": 68, "duration": 360}, {"note": 71, "velocity": 72, "duration": 339}, {"note": 68, "velocity": 70, "duration": 1090}, {"note": 66, "velocity": 73, "duration": 515}, {"note": 71, "velocity": 65, "duration": 3762}]]