[[{"note": 57, "velocity": 61, "duration": 246}, {"note": 66, "velocity": 62, "duration": 239}, {"note": 66, "velocity": 60, "duration": 239}, {"note": 66, "velocity": 65, "duration": 239}, {"note": 66, "velocity": 71, "duration": 239}, {"note": 66, "velocity": 72, "duration": 240}, {"note": 64, "velocity": 61, "duration": 239}, {"note": 64, "velocity": 61, "duration": 239}, {"note": 64, "velocity": 63, "duration": 239}, {"note": 64, "velocity": 67, "duration": 480}, {"note": 62, "velocity": 55, "duration": 240}, {"note": 66, "velocity": 58, "duration": 4800}, {"note": 57, "velocity": 58, "duration": 273}, {"note": 66, "velocity": 62, "duration": 239}, {"note": 66, "velocity": 60, "duration": 239}, {"note": 66, "velocity": 66, "duration": 239}, {"note": 66, "velocity": 60, "duration": 239}, {"note": 66, "velocity": 83, "duration": 240}, {"note": 64, "velocity": 63, "duration": 239}, {"note": 64, "velocity": 61, "duration": 239}, {"note": 64, "velocity": 61, "duration": 239}, {"note": 64, "velocity": 66, "duration": 480}, {"note": 57, "velocity": 67, "duration": 240}, {"note": 66, "velocity": 58, "duration": 3120}, {"note": 59, "velocity": 61, "duration": 240}, {"note": 61, "velocity": 60, "duration": 283}, {"note": 62, "velocity": 60, "duration": 258}, {"note": 59, "velocity": 60, "duration": 521}, {"note": 71, "velocity": 71, "duration": 960}, {"note": 59, "velocity": 58, "duration": 276}, {"note": 62, "velocity": 59, "duration": 289}, {"note": 61, "velocity": 58, "duration": 959}, {"note": 61, "velocity": 57, "duration": 239}, {"note": 61, "velocity": 59, "duration": 240}, {"note": 62, "velocity": 64, "duration": 261}, {"note": 64, "velocity": 65, "duration": 240}, {"note": 73, "velocity": 64, "duration": 480}, {"note": 69, "velocity": 76, "duration": 479}, {"note": 69, "velocity": 73, "duration": 239}, {"note": 69, "velocity": 72, "duration": 480}, {"note": 61, "velocity": 58, "duration": 273}, {"note": 64, "velocity": 66, "duration": 480}, {"note": 62, "velocity": 63, "duration": 1200}, {"note": 66, "velocity": 68, "duration": 239}, {"note": 66, "velocity": 69, "duration": 240}, {"note": 67, "velocity": 69, "duration": 479}, {"note": 67, "velocity": 74, "duration": 239}, {"note": 67, "velocity": 67, "duration": 480}, {"note": 66, "velocity": 74, "duration": 480}, {"note": 64, "velocity": 71, "duration": 1026}, {"note": 57, "velocity": 60, "duration": 355}, {"note": 64, "velocity": 59, "duration": 423}, {"note": 66, "velocity": 62, "duration": 421}, {"note": 67, "velocity": 76, "duration": 480}, {"note": 66, "velocity": 67, "duration": 4320}, {"note": 57, "velocity": 61, "duration": 246}, {"note": 66, "velocity": 62, "duration": 239}, {"note": 66, "velocity": 60, "duration": 239}, {"note": 66, "velocity": 65, "duration": 239}, {"note": 66, "velocity": 71, "duration": 239}, {"note": 66, "velocity": 72, "duration": 240}, {"note": 64, "velocity": 61, "duration": 239}, {"note": 64, "velocity": 61, "duration": 239}, {"note": 64, "velocity": 63, "duration": 239}, {"note": 64, "velocity": 67, "duration": 480}, {"note": 62, "velocity": 55, "duration": 240}, {"note": 66, "velocity": 58, "duration": 4800}, {"note": 57, "velocity": 58, "duration": 273}, {"note": 66, "velocity": 62, "duration": 239}, {"note": 66, "velocity": 60, "duration": 239}, {"note": 66, "velocity": 66, "duration": 239}, {"note": 66, "velocity": 60, "duration": 239}, {"note": 66, "velocity": 83, "duration": 240}, {"note": 64, "velocity": 63, "duration": 239}, {"note": 64, "velocity": 61, "duration": 239}, {"note": 64, "velocity": 61, "duration": 239}, {"note": 64, "velocity": 66, "duration": 480}, {"note": 57, "velocity": 67, "duration": 240}, {"note": 66, "velocity": 58, "duration": 3120}, {"note": 59, "velocity": 61, "duration": 240}, {"note": 61, "velocity": 60, "duration": 283}, {"note": 62, "velocity": 60, "duration": 258}, {"note": 59, "velocity": 60, "duration": 521}, {"note": 71, "velocity": 71, "duration": 960}, {"note": 59, "velocity": 58, "duration": 276}, {"note": 62, "velocity": 59, "duration": 289}, {"note": 61, "velocity": 58, "duration": 959}, {"note": 61, "velocity": 57, "duration": 239}, {"note": 61, "velocity": 59, "duration": 240}, {"note": 62, "velocity": 64, "duration": 261}, {"note": 64, "velocity": 65, "duration": 240}, {"note": 73, "velocity": 64, "duration": 480}, {"note": 69, "velocity": 76, "duration": 479}, {"note": 69, "velocity": 73, "duration": 239}, {"note": 69, "velocity": 72, "duration": 480}, {"note": 61, "velocity": 58, "duration": 273}, {"note": 64, "velocity": 66, "duration": 480}, {"note": 62, "velocity": 63, "duration": 1200}, {"note": 66, "velocity": 68, "duration": 239}, {"note": 66, "velocity": 69, "duration": 240}, {"note": 67, "velocity": 69, "duration": 479}, {"note": 67, "velocity": 74, "duration": 240}, {"note": 59, "velocity": 62, "duration": 720}, {"note": 62, "velocity": 67, "duration": 252}, {"note": 61, "velocity": 81, "duration": 980}, {"note": 57, "velocity": 54, "duration": 270}, {"note": 66, "velocity": 63, "duration": 276}, {"note": 64, "velocity": 62, "duration": 302}, {"note": 66, "velocity": 66, "duration": 295}, {"note": 64, "velocity": 59, "duration": 480}, {"note": 62, "velocity": 66, "duration": 2400}, {"note": 62, "velocity": 65, "duration": 289}, {"note": 74, "velocity": 65, "duration": 279}, {"note": 76, "velocity": 63, "duration": 326}, {"note": 78, "velocity": 75, "duration": 292}, {"note": 71, "velocity": 53, "duration": 480}, {"note": 76, "velocity": 69, "duration": 960}, {"note": 78, "velocity": 75, "duration": 480}, {"note": 71, "velocity": 65, "duration": 530}, {"note": 76, "velocity": 74, "duration": 479}, {"note": 76, "velocity": 73, "duration": 239}, {"note": 76, "velocity": 76, "duration": 240}, {"note": 74, "velocity": 65, "duration": 240}, {"note": 73, "velocity": 73, "duration": 240}, {"note": 74, "velocity": 73, "duration": 240}, {"note": 76, "velocity": 79, "duration": 479}, {"note": 76, "velocity": 72, "duration": 239}, {"note": 76, "velocity": 69, "duration": 239}, {"note": 76, "velocity": 70, "duration": 480}, {"note": 69, "velocity": 66, "duration": 240}, {"note": 76, "velocity": 67, "duration": 480}, {"note": 74, "velocity": 72, "duration": 479}, {"note": 74, "velocity": 70, "duration": 239}, {"note": 74, "velocity": 81, "duration": 360}, {"note": 73, "velocity": 74, "duration": 240}, {"note": 71, "velocity": 68, "duration": 360}, {"note": 67, "velocity": 74, "duration": 360}, {"note": 74, "velocity": 75, "duration": 359}, {"note": 74, "velocity": 74, "duration": 239}, {"note": 74, "velocity": 95, "duration": 360}, {"note": 73, "velocity": 73, "duration": 359}, {"note": 73, "velocity": 77, "duration": 240}, {"note": 71, "velocity": 69, "duration": 360}, {"note": 69, "velocity": 77, "duration": 599}, {"note": 69, "velocity": 83, "duration": 239}, {"note": 69, "velocity": 85, "duration": 720}, {"note": 76, "velocity": 86, "duration": 375}, {"note": 69, "velocity": 85, "duration": 360}, {"note": 76, "velocity": 90, "duration": 493}, {"note": 79, "velocity": 100, "duration": 480}, {"note": 78, "velocity": 90, "duration": 1200}, {"note": 74, "velocity": 83, "duration": 310}, {"note": 76, "velocity": 71, "duration": 246}, {"note": 78, "velocity": 74, "duration": 266}, {"note": 71, "velocity": 98, "duration": 515}, {"note": 76, "velocity": 93, "duration": 960}, {"note": 78, "velocity": 104, "duration": 480}, {"note": 71, "velocity": 93, "duration": 458}, {"note": 76, "velocity": 83, "duration": 508}, {"note": 76, "velocity": 100, "duration": 239}, {"note": 76, "velocity": 95, "duration": 240}, {"note": 74, "velocity": 68, "duration": 240}, {"note": 73, "velocity": 90, "duration": 266}, {"note": 74, "velocity": 77, "duration": 240}, {"note": 76, "velocity": 90, "duration": 479}, {"note": 76, "velocity": 86, "duration": 239}, {"note": 76, "velocity": 85, "duration": 239}, {"note": 76, "velocity": 87, "duration": 480}, {"note": 69, "velocity": 70, "duration": 240}, {"note": 76, "velocity": 95, "duration": 480}, {"note": 74, "velocity": 79, "duration": 479}, {"note": 74, "velocity": 74, "duration": 239}, {"note": 74, "velocity": 74, "duration": 360}, {"note": 73, "velocity": 70, "duration": 360}, {"note": 74, "velocity": 70, "duration": 240}, {"note": 69, "velocity": 69, "duration": 360}, {"note": 67, "velocity": 59, "duration": 1916}, {"note": 74, "velocity": 79, "duration": 526}, {"note": 73, "velocity": 65, "duration": 284}, {"note": 71, "velocity": 68, "duration": 543}, {"note": 76, "velocity": 79, "duration": 600}, {"note": 74, "velocity": 90, "duration": 4440}, {"note": 0, "velocity": 0, "duration": 15749}, {"note": 57, "velocity": 61, "duration": 246}, {"note": 66, "velocity": 62, "duration": 239}, {"note": 66, "velocity": 60, "duration": 239}, {"note": 66, "velocity": 65, "duration": 239}, {"note": 66, "velocity": 71, "duration": 239}, {"note": 66, "velocity": 72, "duration": 240}, {"note": 64, "velocity": 61, "duration": 239}, {"note": 64, "velocity": 61, "duration": 239}, {"note": 64, "velocity": 63, "duration": 239}, {"note": 64, "velocity": 67, "duration": 480}, {"note": 62, "velocity": 55, "duration": 240}, {"note": 66, "velocity": 58, "duration": 4800}, {"note": 57, "velocity": 58, "duration": 273}, {"note": 66, "velocity": 62, "duration": 239}, {"note": 66, "velocity": 60, "duration": 239}, {"note": 66, "velocity": 66, "duration": 239}, {"note": 66, "velocity": 60, "duration": 239}, {"note": 66, "velocity": 83, "duration": 240}, {"note": 64, "velocity": 63, "duration": 239}, {"note": 0, "velocity": 0, "duration": 241}, {"note": 64, "velocity": 61, "duration": 239}, {"note": 57, "velocity": 66, "duration": 211}, {"note": 67, "velocity": 67, "duration": 480}, {"note": 66, "velocity": 58, "duration": 3120}, {"note": 61, "velocity": 61, "duration": 240}, {"note": 62, "velocity": 60, "duration": 283}, {"note": 62, "velocity": 60, "duration": 43}, {"note": 0, "velocity": 0, "duration": 197}, {"note": 59, "velocity": 60, "duration": 521}, {"note": 71, "velocity": 71, "duration": 691}, {"note": 59, "velocity": 58, "duration": 316}, {"note": 0, "velocity": 0, "duration": 153}, {"note": 62, "velocity": 59, "duration": 235}, {"note": 62, "velocity": 59, "duration": 460}, {"note": 61, "velocity": 58, "duration": 468}, {"note": 0, "velocity": 0, "duration": 241}, {"note": 61, "velocity": 59, "duration": 240}, {"note": 62, "velocity": 64, "duration": 261}, {"note": 64, "velocity": 65, "duration": 240}, {"note": 73, "velocity": 64, "duration": 480}, {"note": 69, "velocity": 76, "duration": 479}, {"note": 69, "velocity": 73, "duration": 239}, {"note": 69, "velocity": 72, "duration": 480}, {"note": 61, "velocity": 58, "duration": 273}, {"note": 64, "velocity": 66, "duration": 480}, {"note": 62, "velocity": 63, "duration": 1200}, {"note": 0, "velocity": 0, "duration": 240}, {"note": 66, "velocity": 69, "duration": 240}, {"note": 67, "velocity": 69, "duration": 479}, {"note": 67, "velocity": 74, "duration": 240}, {"note": 67, "velocity": 86, "duration": 240}, {"note": 69, "velocity": 95, "duration": 480}, {"note": 67, "velocity": 90, "duration": 480}, {"note": 66, "velocity": 70, "duration": 239}, {"note": 66, "velocity": 100, "duration": 480}, {"note": 64, "velocity": 73, "duration": 240}, {"note": 57, "velocity": 76, "duration": 480}, {"note": 66, "velocity": 72, "duration": 565}, {"note": 64, "velocity": 72, "duration": 292}, {"note": 62, "velocity": 66, "duration": 2729}, {"note": 66, "velocity": 65, "duration": 289}, {"note": 74, "velocity": 65, "duration": 279}, {"note": 76, "velocity": 63, "duration": 326}, {"note": 78, "velocity": 75, "duration": 292}, {"note": 71, "velocity": 53, "duration": 480}, {"note": 76, "velocity": 69, "duration": 960}, {"note": 78, "velocity": 75, "duration": 480}, {"note": 71, "velocity": 65, "duration": 530}, {"note": 76, "velocity": 74, "duration": 479}, {"note": 76, "velocity": 73, "duration": 239}, {"note": 76, "velocity": 76, "duration": 240}, {"note": 74, "velocity": 65, "duration": 240}, {"note": 73, "velocity": 73, "duration": 240}, {"note": 74, "velocity": 73, "duration": 240}, {"note": 76, "velocity": 79, "duration": 479}, {"note": 76, "velocity": 72, "duration": 239}, {"note": 76, "velocity": 69, "duration": 239}, {"note": 76, "velocity": 70, "duration": 480}, {"note": 69, "velocity": 66, "duration": 240}, {"note": 76, "velocity": 67, "duration": 480}, {"note": 74, "velocity": 72, "duration": 479}, {"note": 74, "velocity": 70, "duration": 239}, {"note": 74, "velocity": 81, "duration": 360}, {"note": 73, "velocity": 74, "duration": 371}, {"note": 71, "velocity": 68, "duration": 229}, {"note": 69, "velocity": 74, "duration": 200}, {"note": 67, "velocity": 74, "duration": 200}, {"note": 74, "velocity": 95, "duration": 1200}, {"note": 69, "velocity": 67, "duration": 239}, {"note": 69, "velocity": 75, "duration": 271}, {"note": 67, "velocity": 75, "duration": 276}, {"note": 76, "velocity": 83, "duration": 719}, {"note": 76, "velocity": 111, "duration": 719}, {"note": 76, "velocity": 86, "duration": 531}, {"note": 69, "velocity": 85, "duration": 368}, {"note": 76, "velocity": 90, "duration": 493}, {"note": 79, "velocity": 100, "duration": 480}, {"note": 78, "velocity": 90, "duration": 960}, {"note": 69, "velocity": 75, "duration": 240}, {"note": 74, "velocity": 83, "duration": 310}, {"note": 76, "velocity": 71, "duration": 246}, {"note": 78, "velocity": 74, "duration": 266}, {"note": 71, "velocity": 98, "duration": 515}, {"note": 76, "velocity": 93, "duration": 960}, {"note": 78, "velocity": 104, "duration": 480}, {"note": 71, "velocity": 93, "duration": 458}, {"note": 78, "velocity": 93, "duration": 280}, {"note": 76, "velocity": 83, "duration": 228}, {"note": 76, "velocity": 100, "duration": 239}, {"note": 76, "velocity": 95, "duration": 240}, {"note": 74, "velocity": 68, "duration": 240}, {"note": 73, "velocity": 90, "duration": 266}, {"note": 74, "velocity": 77, "duration": 240}, {"note": 76, "velocity": 90, "duration": 479}, {"note": 76, "velocity": 86, "duration": 239}, {"note": 76, "velocity": 85, "duration": 531}, {"note": 69, "velocity": 87, "duration": 560}, {"note": 76, "velocity": 95, "duration": 480}, {"note": 74, "velocity": 100, "duration": 825}, {"note": 74, "velocity": 98, "duration": 105}, {"note": 0, "velocity": 0, "duration": 255}, {"note": 73, "velocity": 77, "duration": 322}, {"note": 73, "velocity": 74, "duration": 23}, {"note": 0, "velocity": 0, "duration": 278}, {"note": 71, "velocity": 93, "duration": 191}, {"note": 69, "velocity": 73, "duration": 191}, {"note": 67, "velocity": 87, "duration": 1320}, {"note": 74, "velocity": 67, "duration": 239}, {"note": 74, "velocity": 77, "duration": 480}, {"note": 76, "velocity": 74, "duration": 319}, {"note": 78, "velocity": 86, "duration": 720}, {"note": 0, "velocity": 0, "duration": 251}, {"note": 73, "velocity": 73, "duration": 1000}, {"note": 74, "velocity": 93, "duration": 3440}, {"note": 0, "velocity": 0, "duration": 149}, {"note": 66, "velocity": 79, "duration": 239}, {"note": 66, "velocity": 71, "duration": 239}, {"note": 66, "velocity": 76, "duration": 479}, {"note": 66, "velocity": 74, "duration": 239}, {"note": 66, "velocity": 73, "duration": 480}, {"note": 64, "velocity": 81, "duration": 479}, {"note": 64, "velocity": 63, "duration": 312}, {"note": 57, "velocity": 67, "duration": 579}, {"note": 67, "velocity": 70, "duration": 303}, {"note": 66, "velocity": 64, "duration": 4799}, {"note": 66, "velocity": 60, "duration": 239}, {"note": 66, "velocity": 64, "duration": 239}, {"note": 66, "velocity": 65, "duration": 239}, {"note": 66, "velocity": 65, "duration": 239}, {"note": 66, "velocity": 65, "duration": 239}, {"note": 66, "velocity": 74, "duration": 496}, {"note": 64, "velocity": 67, "duration": 266}, {"note": 57, "velocity": 54, "duration": 527}, {"note": 67, "velocity": 63, "duration": 600}, {"note": 66, "velocity": 67, "duration": 3092}, {"note": 59, "velocity": 69, "duration": 318}, {"note": 61, "velocity": 75, "duration": 257}, {"note": 62, "velocity": 73, "duration": 281}, {"note": 59, "velocity": 62, "duration": 520}, {"note": 71, "velocity": 81, "duration": 960}, {"note": 59, "velocity": 60, "duration": 269}, {"note": 62, "velocity": 63, "duration": 299}, {"note": 61, "velocity": 60, "duration": 1199}, {"note": 61, "velocity": 70, "duration": 356}, {"note": 62, "velocity": 66, "duration": 284}, {"note": 64, "velocity": 67, "duration": 240}, {"note": 73, "velocity": 79, "duration": 480}, {"note": 69, "velocity": 76, "duration": 451}, {"note": 69, "velocity": 76, "duration": 74}, {"note": 0, "velocity": 0, "duration": 174}, {"note": 69, "velocity": 81, "duration": 436}, {"note": 61, "velocity": 60, "duration": 360}, {"note": 64, "velocity": 72, "duration": 363}, {"note": 62, "velocity": 62, "duration": 1531}, {"note": 57, "velocity": 59, "duration": 248}, {"note": 67, "velocity": 74, "duration": 433}, {"note": 66, "velocity": 58, "duration": 377}, {"note": 67, "velocity": 69, "duration": 750}, {"note": 66, "velocity": 66, "duration": 544}, {"note": 64, "velocity": 67, "duration": 960}, {"note": 57, "velocity": 59, "duration": 360}, {"note": 66, "velocity": 67, "duration": 393}, {"note": 64, "velocity": 61, "duration": 328}, {"note": 66, "velocity": 59, "duration": 485}, {"note": 64, "velocity": 59, "duration": 713}, {"note": 62, "velocity": 58, "duration": 3064}, {"note": 57, "velocity": 59, "duration": 254}, {"note": 67, "velocity": 69, "duration": 719}, {"note": 67, "velocity": 73, "duration": 720}, {"note": 57, "velocity": 62, "duration": 760}, {"note": 64, "velocity": 71, "duration": 982}, {"note": 57, "velocity": 48, "duration": 359}, {"note": 57, "velocity": 52, "duration": 700}, {"note": 66, "velocity": 58, "duration": 480}, {"note": 64, "velocity": 57, "duration": 558}, {"note": 66, "velocity": 58, "duration": 850}, {"note": 64, "velocity": 59, "duration": 1320}, {"note": 62, "velocity": 47, "duration": 7051}]]