[[{"note": 67, "velocity": 81, "duration": 65}, {"note": 67, "velocity": 64, "duration": 56}, {"note": 0, "velocity": 0, "duration": 64}, {"note": 67, "velocity": 59, "duration": 72}, {"note": 70, "velocity": 73, "duration": 203}, {"note": 72, "velocity": 75, "duration": 253}, {"note": 0, "velocity": 0, "duration": 107}, {"note": 72, "velocity": 90, "duration": 265}, {"note": 70, "velocity": 58, "duration": 131}, {"note": 68, "velocity": 65, "duration": 1492}, {"note": 0, "velocity": 0, "duration": 1028}, {"note": 67, "velocity": 71, "duration": 71}, {"note": 67, "velocity": 64, "duration": 53}, {"note": 0, "velocity": 0, "duration": 67}, {"note": 67, "velocity": 63, "duration": 88}, {"note": 70, "velocity": 72, "duration": 217}, {"note": 72, "velocity": 70, "duration": 239}, {"note": 72, "velocity": 104, "duration": 274}, {"note": 0, "velocity": 0, "duration": 86}, {"note": 70, "velocity": 74, "duration": 152}, {"note": 68, "velocity": 74, "duration": 942}, {"note": 0, "velocity": 0, "duration": 378}, {"note": 72, "velocity": 65, "duration": 101}, {"note": 74, "velocity": 71, "duration": 61}, {"note": 74, "velocity": 87, "duration": 177}, {"note": 0, "velocity": 0, "duration": 63}, {"note": 75, "velocity": 74, "duration": 63}, {"note": 75, "velocity": 76, "duration": 344}, {"note": 67, "velocity": 85, "duration": 220}, {"note": 72, "velocity": 95, "duration": 243}, {"note": 70, "velocity": 67, "duration": 174}, {"note": 0, "velocity": 0, "duration": 66}, {"note": 70, "velocity": 86, "duration": 167}, {"note": 0, "velocity": 0, "duration": 73}, {"note": 70, "velocity": 67, "duration": 128}, {"note": 0, "velocity": 0, "duration": 112}, {"note": 68, "velocity": 86, "duration": 1373}, {"note": 0, "velocity": 0, "duration": 307}, {"note": 72, "velocity": 74, "duration": 92}, {"note": 74, "velocity": 74, "duration": 52}, {"note": 0, "velocity": 0, "duration": 68}, {"note": 74, "velocity": 90, "duration": 154}, {"note": 0, "velocity": 0, "duration": 86}, {"note": 75, "velocity": 83, "duration": 56}, {"note": 0, "velocity": 0, "duration": 64}, {"note": 75, "velocity": 87, "duration": 297}, {"note": 0, "velocity": 0, "duration": 63}, {"note": 77, "velocity": 71, "duration": 195}, {"note": 74, "velocity": 86, "duration": 212}, {"note": 72, "velocity": 63, "duration": 62}, {"note": 72, "velocity": 74, "duration": 175}, {"note": 0, "velocity": 0, "duration": 65}, {"note": 70, "velocity": 83, "duration": 239}, {"note": 0, "velocity": 0, "duration": 121}, {"note": 68, "velocity": 76, "duration": 1582}, {"note": 0, "velocity": 0, "duration": 98}, {"note": 67, "velocity": 104, "duration": 157}, {"note": 0, "velocity": 0, "duration": 83}, {"note": 65, "velocity": 85, "duration": 1133}, {"note": 0, "velocity": 0, "duration": 307}, {"note": 77, "velocity": 86, "duration": 99}, {"note": 79, "velocity": 74, "duration": 128}, {"note": 77, "velocity": 64, "duration": 149}, {"note": 75, "velocity": 67, "duration": 63}, {"note": 72, "velocity": 90, "duration": 231}, {"note": 77, "velocity": 87, "duration": 166}, {"note": 0, "velocity": 0, "duration": 74}, {"note": 77, "velocity": 100, "duration": 678}, {"note": 0, "velocity": 0, "duration": 282}, {"note": 77, "velocity": 77, "duration": 80}, {"note": 79, "velocity": 76, "duration": 141}, {"note": 77, "velocity": 59, "duration": 143}, {"note": 75, "velocity": 64, "duration": 63}, {"note": 70, "velocity": 76, "duration": 219}, {"note": 77, "velocity": 81, "duration": 182}, {"note": 77, "velocity": 104, "duration": 183}, {"note": 74, "velocity": 74, "duration": 176}, {"note": 0, "velocity": 0, "duration": 64}, {"note": 75, "velocity": 86, "duration": 520}, {"note": 0, "velocity": 0, "duration": 200}, {"note": 75, "velocity": 74, "duration": 150}, {"note": 77, "velocity": 72, "duration": 88}, {"note": 79, "velocity": 90, "duration": 193}, {"note": 80, "velocity": 74, "duration": 57}, {"note": 0, "velocity": 0, "duration": 63}, {"note": 80, "velocity": 86, "duration": 149}, {"note": 0, "velocity": 0, "duration": 91}, {"note": 72, "velocity": 87, "duration": 298}, {"note": 0, "velocity": 0, "duration": 62}, {"note": 75, "velocity": 74, "duration": 185}, {"note": 74, "velocity": 77, "duration": 187}, {"note": 72, "velocity": 76, "duration": 177}, {"note": 0, "velocity": 0, "duration": 63}, {"note": 74, "velocity": 112, "duration": 218}, {"note": 70, "velocity": 100, "duration": 1062}, {"note": 0, "velocity": 0, "duration": 378}, {"note": 77, "velocity": 90, "duration": 74}, {"note": 79, "velocity": 83, "duration": 77}, {"note": 77, "velocity": 65, "duration": 54}, {"note": 0, "velocity": 0, "duration": 66}, {"note": 75, "velocity": 85, "duration": 60}, {"note": 75, "velocity": 100, "duration": 85}, {"note": 0, "velocity": 0, "duration": 129}, {"note": 72, "velocity": 93, "duration": 141}, {"note": 0, "velocity": 0, "duration": 125}, {"note": 77, "velocity": 93, "duration": 71}, {"note": 79, "velocity": 74, "duration": 75}, {"note": 77, "velocity": 67, "duration": 88}, {"note": 75, "velocity": 76, "duration": 66}, {"note": 75, "velocity": 86, "duration": 57}, {"note": 0, "velocity": 0, "duration": 183}, {"note": 72, "velocity": 104, "duration": 180}, {"note": 77, "velocity": 95, "duration": 58}, {"note": 0, "velocity": 0, "duration": 62}, {"note": 79, "velocity": 86, "duration": 71}, {"note": 77, "velocity": 74, "duration": 68}, {"note": 75, "velocity": 87, "duration": 57}, {"note": 0, "velocity": 0, "duration": 63}, {"note": 75, "velocity": 104, "duration": 99}, {"note": 0, "velocity": 0, "duration": 141}, {"note": 70, "velocity": 93, "duration": 145}, {"note": 0, "velocity": 0, "duration": 95}, {"note": 77, "velocity": 111, "duration": 204}, {"note": 74, "velocity": 100, "duration": 179}, {"note": 0, "velocity": 0, "duration": 61}, {"note": 75, "velocity": 86, "duration": 635}, {"note": 0, "velocity": 0, "duration": 85}, {"note": 70, "velocity": 74, "duration": 131}, {"note": 67, "velocity": 65, "duration": 173}, {"note": 68, "velocity": 76, "duration": 236}, {"note": 75, "velocity": 63, "duration": 58}, {"note": 0, "velocity": 0, "duration": 62}, {"note": 75, "velocity": 72, "duration": 484}, {"note": 72, "velocity": 67, "duration": 145}, {"note": 74, "velocity": 72, "duration": 74}, {"note": 75, "velocity": 83, "duration": 230}, {"note": 74, "velocity": 67, "duration": 181}, {"note": 75, "velocity": 81, "duration": 157}, {"note": 0, "velocity": 0, "duration": 77}, {"note": 77, "velocity": 98, "duration": 214}, {"note": 0, "velocity": 0, "duration": 83}, {"note": 77, "velocity": 98, "duration": 1075}, {"note": 0, "velocity": 0, "duration": 412}, {"note": 77, "velocity": 90, "duration": 94}, {"note": 79, "velocity": 90, "duration": 96}, {"note": 77, "velocity": 74, "duration": 115}, {"note": 75, "velocity": 86, "duration": 61}, {"note": 0, "velocity": 0, "duration": 76}, {"note": 72, "velocity": 83, "duration": 178}, {"note": 0, "velocity": 0, "duration": 62}, {"note": 77, "velocity": 90, "duration": 153}, {"note": 0, "velocity": 0, "duration": 87}, {"note": 77, "velocity": 108, "duration": 575}, {"note": 0, "velocity": 0, "duration": 385}, {"note": 77, "velocity": 87, "duration": 83}, {"note": 79, "velocity": 81, "duration": 107}, {"note": 77, "velocity": 63, "duration": 129}, {"note": 75, "velocity": 75, "duration": 59}, {"note": 0, "velocity": 0, "duration": 61}, {"note": 70, "velocity": 95, "duration": 175}, {"note": 0, "velocity": 0, "duration": 65}, {"note": 77, "velocity": 98, "duration": 178}, {"note": 0, "velocity": 0, "duration": 62}, {"note": 77, "velocity": 108, "duration": 184}, {"note": 74, "velocity": 98, "duration": 143}, {"note": 75, "velocity": 95, "duration": 661}, {"note": 0, "velocity": 0, "duration": 179}, {"note": 75, "velocity": 90, "duration": 147}, {"note": 77, "velocity": 68, "duration": 93}, {"note": 79, "velocity": 95, "duration": 177}, {"note": 0, "velocity": 0, "duration": 63}, {"note": 80, "velocity": 86, "duration": 81}, {"note": 80, "velocity": 77, "duration": 138}, {"note": 0, "velocity": 0, "duration": 102}, {"note": 72, "velocity": 95, "duration": 299}, {"note": 0, "velocity": 0, "duration": 61}, {"note": 74, "velocity": 98, "duration": 184}, {"note": 72, "velocity": 72, "duration": 125}, {"note": 70, "velocity": 81, "duration": 223}, {"note": 74, "velocity": 79, "duration": 280}, {"note": 0, "velocity": 0, "duration": 80}, {"note": 70, "velocity": 95, "duration": 1380}, {"note": 77, "velocity": 90, "duration": 64}, {"note": 79, "velocity": 73, "duration": 60}, {"note": 77, "velocity": 72, "duration": 52}, {"note": 0, "velocity": 0, "duration": 68}, {"note": 75, "velocity": 74, "duration": 53}, {"note": 0, "velocity": 0, "duration": 67}, {"note": 75, "velocity": 73, "duration": 136}, {"note": 0, "velocity": 0, "duration": 104}, {"note": 72, "velocity": 87, "duration": 131}, {"note": 0, "velocity": 0, "duration": 109}, {"note": 77, "velocity": 86, "duration": 61}, {"note": 79, "velocity": 67, "duration": 59}, {"note": 0, "velocity": 0, "duration": 61}, {"note": 77, "velocity": 74, "duration": 44}, {"note": 0, "velocity": 0, "duration": 76}, {"note": 75, "velocity": 66, "duration": 60}, {"note": 75, "velocity": 74, "duration": 104}, {"note": 0, "velocity": 0, "duration": 126}, {"note": 72, "velocity": 87, "duration": 212}, {"note": 77, "velocity": 79, "duration": 66}, {"note": 79, "velocity": 104, "duration": 75}, {"note": 77, "velocity": 74, "duration": 65}, {"note": 75, "velocity": 81, "duration": 67}, {"note": 75, "velocity": 98, "duration": 73}, {"note": 0, "velocity": 0, "duration": 167}, {"note": 70, "velocity": 95, "duration": 152}, {"note": 0, "velocity": 0, "duration": 88}, {"note": 82, "velocity": 111, "duration": 190}, {"note": 74, "velocity": 104, "duration": 144}, {"note": 0, "velocity": 0, "duration": 96}, {"note": 75, "velocity": 90, "duration": 654}, {"note": 0, "velocity": 0, "duration": 66}, {"note": 70, "velocity": 85, "duration": 129}, {"note": 67, "velocity": 71, "duration": 157}, {"note": 68, "velocity": 77, "duration": 128}, {"note": 0, "velocity": 0, "duration": 112}, {"note": 75, "velocity": 73, "duration": 56}, {"note": 0, "velocity": 0, "duration": 64}, {"note": 75, "velocity": 83, "duration": 352}, {"note": 79, "velocity": 83, "duration": 98}, {"note": 80, "velocity": 74, "duration": 69}, {"note": 79, "velocity": 93, "duration": 271}, {"note": 77, "velocity": 74, "duration": 167}, {"note": 75, "velocity": 72, "duration": 251}, {"note": 0, "velocity": 0, "duration": 70}, {"note": 74, "velocity": 75, "duration": 207}, {"note": 75, "velocity": 85, "duration": 1874}, {"note": 0, "velocity": 0, "duration": 972}, {"note": 67, "velocity": 81, "duration": 65}, {"note": 67, "velocity": 64, "duration": 56}, {"note": 0, "velocity": 0, "duration": 64}, {"note": 67, "velocity": 59, "duration": 72}, {"note": 70, "velocity": 73, "duration": 203}, {"note": 72, "velocity": 75, "duration": 253}, {"note": 0, "velocity": 0, "duration": 107}, {"note": 72, "velocity": 90, "duration": 265}, {"note": 70, "velocity": 58, "duration": 131}, {"note": 68, "velocity": 65, "duration": 1492}, {"note": 0, "velocity": 0, "duration": 1028}, {"note": 67, "velocity": 71, "duration": 71}, {"note": 67, "velocity": 64, "duration": 53}, {"note": 0, "velocity": 0, "duration": 67}, {"note": 67, "velocity": 63, "duration": 88}, {"note": 70, "velocity": 72, "duration": 217}, {"note": 72, "velocity": 70, "duration": 239}, {"note": 72, "velocity": 104, "duration": 274}, {"note": 0, "velocity": 0, "duration": 86}, {"note": 70, "velocity": 74, "duration": 152}, {"note": 68, "velocity": 74, "duration": 942}, {"note": 0, "velocity": 0, "duration": 378}, {"note": 72, "velocity": 65, "duration": 101}, {"note": 74, "velocity": 71, "duration": 61}, {"note": 74, "velocity": 87, "duration": 177}, {"note": 0, "velocity": 0, "duration": 63}, {"note": 75, "velocity": 74, "duration": 63}, {"note": 75, "velocity": 76, "duration": 344}, {"note": 67, "velocity": 85, "duration": 220}, {"note": 74, "velocity": 95, "duration": 243}, {"note": 72, "velocity": 67, "duration": 174}, {"note": 0, "velocity": 0, "duration": 66}, {"note": 70, "velocity": 86, "duration": 167}, {"note": 0, "velocity": 0, "duration": 73}, {"note": 70, "velocity": 67, "duration": 128}, {"note": 0, "velocity": 0, "duration": 112}, {"note": 68, "velocity": 86, "duration": 1373}, {"note": 0, "velocity": 0, "duration": 307}, {"note": 72, "velocity": 74, "duration": 92}, {"note": 74, "velocity": 74, "duration": 52}, {"note": 0, "velocity": 0, "duration": 68}, {"note": 74, "velocity": 90, "duration": 154}, {"note": 0, "velocity": 0, "duration": 86}, {"note": 75, "velocity": 83, "duration": 56}, {"note": 0, "velocity": 0, "duration": 64}, {"note": 75, "velocity": 87, "duration": 297}, {"note": 0, "velocity": 0, "duration": 63}, {"note": 77, "velocity": 71, "duration": 195}, {"note": 74, "velocity": 86, "duration": 212}, {"note": 72, "velocity": 63, "duration": 62}, {"note": 72, "velocity": 74, "duration": 175}, {"note": 0, "velocity": 0, "duration": 65}, {"note": 70, "velocity": 83, "duration": 239}, {"note": 0, "velocity": 0, "duration": 121}, {"note": 68, "velocity": 76, "duration": 1582}, {"note": 0, "velocity": 0, "duration": 98}, {"note": 67, "velocity": 104, "duration": 157}, {"note": 0, "velocity": 0, "duration": 83}, {"note": 65, "velocity": 85, "duration": 1133}, {"note": 0, "velocity": 0, "duration": 307}, {"note": 77, "velocity": 86, "duration": 99}, {"note": 79, "velocity": 74, "duration": 128}, {"note": 77, "velocity": 64, "duration": 149}, {"note": 75, "velocity": 67, "duration": 63}, {"note": 72, "velocity": 90, "duration": 231}, {"note": 77, "velocity": 87, "duration": 166}, {"note": 0, "velocity": 0, "duration": 74}, {"note": 77, "velocity": 100, "duration": 678}, {"note": 0, "velocity": 0, "duration": 282}, {"note": 77, "velocity": 77, "duration": 80}, {"note": 79, "velocity": 76, "duration": 141}, {"note": 77, "velocity": 59, "duration": 143}, {"note": 75, "velocity": 64, "duration": 63}, {"note": 70, "velocity": 76, "duration": 219}, {"note": 77, "velocity": 81, "duration": 182}, {"note": 77, "velocity": 104, "duration": 183}, {"note": 74, "velocity": 74, "duration": 176}, {"note": 0, "velocity": 0, "duration": 64}, {"note": 75, "velocity": 86, "duration": 520}, {"note": 0, "velocity": 0, "duration": 200}, {"note": 75, "velocity": 74, "duration": 150}, {"note": 77, "velocity": 72, "duration": 88}, {"note": 79, "velocity": 90, "duration": 193}, {"note": 80, "velocity": 74, "duration": 57}, {"note": 0, "velocity": 0, "duration": 63}, {"note": 80, "velocity": 86, "duration": 149}, {"note": 0, "velocity": 0, "duration": 91}, {"note": 72, "velocity": 87, "duration": 298}, {"note": 0, "velocity": 0, "duration": 62}, {"note": 75, "velocity": 74, "duration": 185}, {"note": 74, "velocity": 77, "duration": 187}, {"note": 72, "velocity": 76, "duration": 177}, {"note": 0, "velocity": 0, "duration": 63}, {"note": 74, "velocity": 112, "duration": 218}, {"note": 70, "velocity": 100, "duration": 1062}, {"note": 0, "velocity": 0, "duration": 378}, {"note": 77, "velocity": 90, "duration": 74}, {"note": 79, "velocity": 83, "duration": 77}, {"note": 77, "velocity": 65, "duration": 54}, {"note": 0, "velocity": 0, "duration": 66}, {"note": 75, "velocity": 85, "duration": 60}, {"note": 75, "velocity": 100, "duration": 85}, {"note": 0, "velocity": 0, "duration": 129}, {"note": 72, "velocity": 93, "duration": 141}, {"note": 0, "velocity": 0, "duration": 125}, {"note": 77, "velocity": 93, "duration": 71}, {"note": 79, "velocity": 74, "duration": 75}, {"note": 77, "velocity": 67, "duration": 88}, {"note": 75, "velocity": 76, "duration": 66}, {"note": 75, "velocity": 86, "duration": 57}, {"note": 0, "velocity": 0, "duration": 183}, {"note": 72, "velocity": 104, "duration": 180}, {"note": 77, "velocity": 95, "duration": 58}, {"note": 0, "velocity": 0, "duration": 62}, {"note": 79, "velocity": 86, "duration": 71}, {"note": 77, "velocity": 74, "duration": 68}, {"note": 75, "velocity": 87, "duration": 57}, {"note": 0, "velocity": 0, "duration": 63}, {"note": 75, "velocity": 104, "duration": 99}, {"note": 0, "velocity": 0, "duration": 141}, {"note": 70, "velocity": 93, "duration": 145}, {"note": 0, "velocity": 0, "duration": 95}, {"note": 77, "velocity": 111, "duration": 204}, {"note": 74, "velocity": 100, "duration": 179}, {"note": 0, "velocity": 0, "duration": 61}, {"note": 75, "velocity": 86, "duration": 635}, {"note": 0, "velocity": 0, "duration": 85}, {"note": 70, "velocity": 74, "duration": 131}, {"note": 67, "velocity": 65, "duration": 173}, {"note": 68, "velocity": 76, "duration": 236}, {"note": 75, "velocity": 63, "duration": 58}, {"note": 0, "velocity": 0, "duration": 62}, {"note": 75, "velocity": 72, "duration": 484}, {"note": 72, "velocity": 67, "duration": 145}, {"note": 74, "velocity": 72, "duration": 74}, {"note": 75, "velocity": 83, "duration": 230}, {"note": 74, "velocity": 67, "duration": 181}, {"note": 75, "velocity": 81, "duration": 157}, {"note": 0, "velocity": 0, "duration": 77}, {"note": 77, "velocity": 98, "duration": 214}, {"note": 0, "velocity": 0, "duration": 83}, {"note": 77, "velocity": 98, "duration": 1075}, {"note": 0, "velocity": 0, "duration": 412}, {"note": 77, "velocity": 90, "duration": 94}, {"note": 79, "velocity": 90, "duration": 96}, {"note": 77, "velocity": 74, "duration": 115}, {"note": 75, "velocity": 86, "duration": 61}, {"note": 0, "velocity": 0, "duration": 76}, {"note": 72, "velocity": 83, "duration": 178}, {"note": 0, "velocity": 0, "duration": 62}, {"note": 77, "velocity": 90, "duration": 153}, {"note": 0, "velocity": 0, "duration": 87}, {"note": 77, "velocity": 108, "duration": 575}, {"note": 0, "velocity": 0, "duration": 385}, {"note": 77, "velocity": 87, "duration": 83}, {"note": 79, "velocity": 81, "duration": 107}, {"note": 77, "velocity": 63, "duration": 129}, {"note": 75, "velocity": 75, "duration": 59}, {"note": 0, "velocity": 0, "duration": 61}, {"note": 70, "velocity": 95, "duration": 175}, {"note": 0, "velocity": 0, "duration": 65}, {"note": 77, "velocity": 98, "duration": 178}, {"note": 0, "velocity": 0, "duration": 62}, {"note": 77, "velocity": 108, "duration": 184}, {"note": 74, "velocity": 98, "duration": 143}, {"note": 75, "velocity": 95, "duration": 661}, {"note": 0, "velocity": 0, "duration": 179}, {"note": 75, "velocity": 90, "duration": 147}, {"note": 77, "velocity": 68, "duration": 93}, {"note": 79, "velocity": 95, "duration": 177}, {"note": 0, "velocity": 0, "duration": 63}, {"note": 80, "velocity": 86, "duration": 81}, {"note": 80, "velocity": 77, "duration": 138}, {"note": 0, "velocity": 0, "duration": 102}, {"note": 72, "velocity": 95, "duration": 299}, {"note": 0, "velocity": 0, "duration": 61}, {"note": 74, "velocity": 98, "duration": 184}, {"note": 72, "velocity": 72, "duration": 125}, {"note": 70, "velocity": 81, "duration": 223}, {"note": 74, "velocity": 79, "duration": 280}, {"note": 0, "velocity": 0, "duration": 80}, {"note": 70, "velocity": 95, "duration": 1380}, {"note": 77, "velocity": 90, "duration": 64}, {"note": 79, "velocity": 73, "duration": 60}, {"note": 77, "velocity": 72, "duration": 52}, {"note": 0, "velocity": 0, "duration": 68}, {"note": 75, "velocity": 74, "duration": 53}, {"note": 0, "velocity": 0, "duration": 67}, {"note": 75, "velocity": 73, "duration": 136}, {"note": 0, "velocity": 0, "duration": 104}, {"note": 72, "velocity": 87, "duration": 131}, {"note": 0, "velocity": 0, "duration": 109}, {"note": 77, "velocity": 86, "duration": 61}, {"note": 79, "velocity": 67, "duration": 59}, {"note": 0, "velocity": 0, "duration": 61}, {"note": 77, "velocity": 74, "duration": 44}, {"note": 0, "velocity": 0, "duration": 76}, {"note": 75, "velocity": 66, "duration": 60}, {"note": 75, "velocity": 74, "duration": 104}, {"note": 0, "velocity": 0, "duration": 126}, {"note": 72, "velocity": 87, "duration": 212}, {"note": 77, "velocity": 79, "duration": 66}, {"note": 79, "velocity": 104, "duration": 75}, {"note": 77, "velocity": 74, "duration": 65}, {"note": 75, "velocity": 81, "duration": 67}, {"note": 75, "velocity": 98, "duration": 73}, {"note": 0, "velocity": 0, "duration": 167}, {"note": 70, "velocity": 95, "duration": 152}, {"note": 0, "velocity": 0, "duration": 88}, {"note": 82, "velocity": 111, "duration": 190}, {"note": 74, "velocity": 104, "duration": 144}, {"note": 0, "velocity": 0, "duration": 96}, {"note": 75, "velocity": 90, "duration": 654}, {"note": 0, "velocity": 0, "duration": 66}, {"note": 70, "velocity": 85, "duration": 129}, {"note": 67, "velocity": 71, "duration": 157}, {"note": 68, "velocity": 77, "duration": 128}, {"note": 0, "velocity": 0, "duration": 112}, {"note": 75, "velocity": 73, "duration": 56}, {"note": 0, "velocity": 0, "duration": 64}, {"note": 75, "velocity": 83, "duration": 352}, {"note": 79, "velocity": 83, "duration": 98}, {"note": 80, "velocity": 74, "duration": 69}, {"note": 79, "velocity": 93, "duration": 271}, {"note": 77, "velocity": 74, "duration": 167}, {"note": 75, "velocity": 72, "duration": 251}, {"note": 0, "velocity": 0, "duration": 70}, {"note": 74, "velocity": 75, "duration": 207}, {"note": 75, "velocity": 85, "duration": 1874}, {"note": 0, "velocity": 0, "duration": 5772}, {"note": 72, "velocity": 77, "duration": 122}, {"note": 74, "velocity": 81, "duration": 70}, {"note": 75, "velocity": 93, "duration": 145}, {"note": 0, "velocity": 0, "duration": 95}, {"note": 75, "velocity": 112, "duration": 159}, {"note": 0, "velocity": 0, "duration": 81}, {"note": 72, "velocity": 79, "duration": 118}, {"note": 74, "velocity": 77, "duration": 63}, {"note": 75, "velocity": 86, "duration": 140}, {"note": 0, "velocity": 0, "duration": 100}, {"note": 77, "velocity": 100, "duration": 561}, {"note": 0, "velocity": 0, "duration": 159}, {"note": 74, "velocity": 108, "duration": 147}, {"note": 75, "velocity": 75, "duration": 64}, {"note": 77, "velocity": 98, "duration": 154}, {"note": 0, "velocity": 0, "duration": 86}, {"note": 77, "velocity": 112, "duration": 154}, {"note": 0, "velocity": 0, "duration": 86}, {"note": 74, "velocity": 98, "duration": 112}, {"note": 75, "velocity": 85, "duration": 72}, {"note": 77, "velocity": 100, "duration": 154}, {"note": 0, "velocity": 0, "duration": 86}, {"note": 79, "velocity": 114, "duration": 599}, {"note": 0, "velocity": 0, "duration": 121}, {"note": 80, "velocity": 112, "duration": 267}, {"note": 79, "velocity": 81, "duration": 261}, {"note": 75, "velocity": 74, "duration": 275}, {"note": 80, "velocity": 100, "duration": 265}, {"note": 79, "velocity": 76, "duration": 253}, {"note": 75, "velocity": 69, "duration": 261}, {"note": 80, "velocity": 112, "duration": 262}, {"note": 79, "velocity": 90, "duration": 230}, {"note": 77, "velocity": 100, "duration": 943}, {"note": 0, "velocity": 0, "duration": 1570}, {"note": 80, "velocity": 90, "duration": 96}, {"note": 78, "velocity": 74, "duration": 115}, {"note": 76, "velocity": 86, "duration": 61}, {"note": 0, "velocity": 0, "duration": 76}, {"note": 73, "velocity": 83, "duration": 178}, {"note": 0, "velocity": 0, "duration": 62}, {"note": 78, "velocity": 90, "duration": 153}, {"note": 0, "velocity": 0, "duration": 87}, {"note": 78, "velocity": 108, "duration": 575}, {"note": 0, "velocity": 0, "duration": 385}, {"note": 78, "velocity": 87, "duration": 83}, {"note": 80, "velocity": 81, "duration": 107}, {"note": 78, "velocity": 63, "duration": 129}, {"note": 76, "velocity": 75, "duration": 59}, {"note": 0, "velocity": 0, "duration": 61}, {"note": 71, "velocity": 95, "duration": 175}, {"note": 0, "velocity": 0, "duration": 65}, {"note": 78, "velocity": 98, "duration": 178}, {"note": 0, "velocity": 0, "duration": 62}, {"note": 78, "velocity": 108, "duration": 184}, {"note": 75, "velocity": 98, "duration": 143}, {"note": 76, "velocity": 95, "duration": 661}, {"note": 0, "velocity": 0, "duration": 179}, {"note": 76, "velocity": 90, "duration": 147}, {"note": 78, "velocity": 68, "duration": 93}, {"note": 80, "velocity": 95, "duration": 177}, {"note": 0, "velocity": 0, "duration": 63}, {"note": 81, "velocity": 86, "duration": 81}, {"note": 81, "velocity": 77, "duration": 138}, {"note": 0, "velocity": 0, "duration": 102}, {"note": 73, "velocity": 95, "duration": 299}, {"note": 0, "velocity": 0, "duration": 61}, {"note": 75, "velocity": 98, "duration": 184}, {"note": 73, "velocity": 72, "duration": 125}, {"note": 71, "velocity": 81, "duration": 223}, {"note": 75, "velocity": 79, "duration": 280}, {"note": 0, "velocity": 0, "duration": 80}, {"note": 71, "velocity": 95, "duration": 1380}, {"note": 78, "velocity": 90, "duration": 64}, {"note": 80, "velocity": 73, "duration": 60}, {"note": 78, "velocity": 72, "duration": 52}, {"note": 0, "velocity": 0, "duration": 68}, {"note": 76, "velocity": 74, "duration": 53}, {"note": 0, "velocity": 0, "duration": 67}, {"note": 76, "velocity": 73, "duration": 136}, {"note": 0, "velocity": 0, "duration": 104}, {"note": 73, "velocity": 87, "duration": 131}, {"note": 0, "velocity": 0, "duration": 109}, {"note": 78, "velocity": 86, "duration": 61}, {"note": 80, "velocity": 67, "duration": 59}, {"note": 0, "velocity": 0, "duration": 61}, {"note": 78, "velocity": 74, "duration": 44}, {"note": 0, "velocity": 0, "duration": 76}, {"note": 76, "velocity": 66, "duration": 60}, {"note": 76, "velocity": 74, "duration": 104}, {"note": 0, "velocity": 0, "duration": 126}, {"note": 73, "velocity": 87, "duration": 212}, {"note": 78, "velocity": 79, "duration": 66}, {"note": 80, "velocity": 104, "duration": 75}, {"note": 78, "velocity": 74, "duration": 65}, {"note": 76, "velocity": 81, "duration": 67}, {"note": 76, "velocity": 98, "duration": 73}, {"note": 0, "velocity": 0, "duration": 167}, {"note": 71, "velocity": 95, "duration": 152}, {"note": 0, "velocity": 0, "duration": 88}, {"note": 83, "velocity": 111, "duration": 190}, {"note": 75, "velocity": 104, "duration": 144}, {"note": 0, "velocity": 0, "duration": 96}, {"note": 76, "velocity": 90, "duration": 654}, {"note": 0, "velocity": 0, "duration": 66}, {"note": 71, "velocity": 85, "duration": 129}, {"note": 68, "velocity": 71, "duration": 157}, {"note": 69, "velocity": 77, "duration": 128}, {"note": 0, "velocity": 0, "duration": 112}, {"note": 76, "velocity": 73, "duration": 56}, {"note": 0, "velocity": 0, "duration": 64}, {"note": 76, "velocity": 83, "duration": 352}, {"note": 80, "velocity": 83, "duration": 98}, {"note": 81, "velocity": 74, "duration": 69}, {"note": 80, "velocity": 93, "duration": 271}, {"note": 78, "velocity": 74, "duration": 167}, {"note": 76, "velocity": 72, "duration": 251}, {"note": 0, "velocity": 0, "duration": 70}, {"note": 75, "velocity": 75, "duration": 207}, {"note": 76, "velocity": 85, "duration": 1819}, {"note": 78, "velocity": 90, "duration": 64}, {"note": 80, "velocity": 73, "duration": 60}, {"note": 78, "velocity": 72, "duration": 52}, {"note": 76, "velocity": 74, "duration": 53}, {"note": 0, "velocity": 0, "duration": 67}, {"note": 76, "velocity": 73, "duration": 136}, {"note": 0, "velocity": 0, "duration": 104}, {"note": 73, "velocity": 87, "duration": 131}, {"note": 0, "velocity": 0, "duration": 109}, {"note": 78, "velocity": 86, "duration": 61}, {"note": 80, "velocity": 67, "duration": 59}, {"note": 0, "velocity": 0, "duration": 61}, {"note": 78, "velocity": 74, "duration": 44}, {"note": 0, "velocity": 0, "duration": 76}, {"note": 76, "velocity": 66, "duration": 60}, {"note": 76, "velocity": 74, "duration": 104}, {"note": 0, "velocity": 0, "duration": 126}, {"note": 73, "velocity": 87, "duration": 212}, {"note": 78, "velocity": 79, "duration": 66}, {"note": 80, "velocity": 104, "duration": 75}, {"note": 78, "velocity": 74, "duration": 65}, {"note": 76, "velocity": 81, "duration": 67}, {"note": 76, "velocity": 98, "duration": 73}, {"note": 0, "velocity": 0, "duration": 167}, {"note": 71, "velocity": 95, "duration": 152}, {"note": 0, "velocity": 0, "duration": 88}, {"note": 83, "velocity": 111, "duration": 190}, {"note": 75, "velocity": 104, "duration": 144}, {"note": 0, "velocity": 0, "duration": 96}, {"note": 76, "velocity": 90, "duration": 654}, {"note": 0, "velocity": 0, "duration": 66}, {"note": 71, "velocity": 85, "duration": 129}, {"note": 68, "velocity": 71, "duration": 157}, {"note": 69, "velocity": 77, "duration": 128}, {"note": 0, "velocity": 0, "duration": 112}, {"note": 76, "velocity": 73, "duration": 56}, {"note": 0, "velocity": 0, "duration": 64}, {"note": 76, "velocity": 83, "duration": 352}, {"note": 80, "velocity": 83, "duration": 98}, {"note": 81, "velocity": 74, "duration": 69}, {"note": 80, "velocity": 93, "duration": 271}, {"note": 78, "velocity": 74, "duration": 167}, {"note": 76, "velocity": 72, "duration": 1492}, {"note": 75, "velocity": 63, "duration": 248}, {"note": 76, "velocity": 83, "duration": 2117}]]