[[{"note": 67, "velocity": 76, "duration": 261}, {"note": 76, "velocity": 55, "duration": 240}, {"note": 74, "velocity": 66, "duration": 239}, {"note": 74, "velocity": 77, "duration": 240}, {"note": 76, "velocity": 81, "duration": 480}, {"note": 74, "velocity": 75, "duration": 480}, {"note": 67, "velocity": 74, "duration": 254}, {"note": 76, "velocity": 86, "duration": 282}, {"note": 74, "velocity": 74, "duration": 242}, {"note": 74, "velocity": 63, "duration": 2}, {"note": 0, "velocity": 0, "duration": 246}, {"note": 76, "velocity": 65, "duration": 232}, {"note": 72, "velocity": 76, "duration": 1439}, {"note": 72, "velocity": 70, "duration": 288}, {"note": 74, "velocity": 68, "duration": 259}, {"note": 76, "velocity": 77, "duration": 261}, {"note": 72, "velocity": 67, "duration": 239}, {"note": 72, "velocity": 69, "duration": 262}, {"note": 74, "velocity": 68, "duration": 252}, {"note": 76, "velocity": 71, "duration": 240}, {"note": 72, "velocity": 64, "duration": 240}, {"note": 77, "velocity": 85, "duration": 240}, {"note": 76, "velocity": 67, "duration": 960}, {"note": 67, "velocity": 68, "duration": 269}, {"note": 76, "velocity": 65, "duration": 256}, {"note": 74, "velocity": 60, "duration": 239}, {"note": 74, "velocity": 70, "duration": 253}, {"note": 76, "velocity": 74, "duration": 480}, {"note": 74, "velocity": 66, "duration": 480}, {"note": 67, "velocity": 64, "duration": 240}, {"note": 76, "velocity": 74, "duration": 293}, {"note": 74, "velocity": 67, "duration": 241}, {"note": 74, "velocity": 68, "duration": 1}, {"note": 0, "velocity": 0, "duration": 239}, {"note": 76, "velocity": 74, "duration": 480}, {"note": 72, "velocity": 67, "duration": 1199}, {"note": 72, "velocity": 73, "duration": 294}, {"note": 74, "velocity": 73, "duration": 240}, {"note": 76, "velocity": 71, "duration": 241}, {"note": 72, "velocity": 65, "duration": 239}, {"note": 72, "velocity": 71, "duration": 272}, {"note": 74, "velocity": 67, "duration": 243}, {"note": 76, "velocity": 73, "duration": 247}, {"note": 72, "velocity": 64, "duration": 276}, {"note": 74, "velocity": 85, "duration": 256}, {"note": 72, "velocity": 85, "duration": 484}, {"note": 72, "velocity": 71, "duration": 4}, {"note": 0, "velocity": 0, "duration": 236}, {"note": 72, "velocity": 75, "duration": 240}, {"note": 71, "velocity": 74, "duration": 247}, {"note": 67, "velocity": 74, "duration": 256}, {"note": 72, "velocity": 70, "duration": 240}, {"note": 71, "velocity": 64, "duration": 247}, {"note": 67, "velocity": 68, "duration": 480}, {"note": 72, "velocity": 70, "duration": 239}, {"note": 72, "velocity": 74, "duration": 240}, {"note": 71, "velocity": 68, "duration": 249}, {"note": 67, "velocity": 67, "duration": 266}, {"note": 72, "velocity": 74, "duration": 287}, {"note": 71, "velocity": 70, "duration": 240}, {"note": 67, "velocity": 69, "duration": 480}, {"note": 72, "velocity": 67, "duration": 240}, {"note": 71, "velocity": 74, "duration": 240}, {"note": 72, "velocity": 67, "duration": 240}, {"note": 67, "velocity": 71, "duration": 267}, {"note": 72, "velocity": 74, "duration": 240}, {"note": 71, "velocity": 68, "duration": 251}, {"note": 72, "velocity": 75, "duration": 261}, {"note": 74, "velocity": 72, "duration": 239}, {"note": 74, "velocity": 76, "duration": 239}, {"note": 74, "velocity": 76, "duration": 239}, {"note": 74, "velocity": 83, "duration": 239}, {"note": 74, "velocity": 93, "duration": 240}, {"note": 72, "velocity": 68, "duration": 240}, {"note": 76, "velocity": 90, "duration": 240}, {"note": 74, "velocity": 79, "duration": 480}, {"note": 77, "velocity": 85, "duration": 239}, {"note": 77, "velocity": 85, "duration": 240}, {"note": 76, "velocity": 74, "duration": 240}, {"note": 77, "velocity": 77, "duration": 240}, {"note": 79, "velocity": 85, "duration": 240}, {"note": 76, "velocity": 85, "duration": 240}, {"note": 74, "velocity": 87, "duration": 480}, {"note": 76, "velocity": 64, "duration": 239}, {"note": 76, "velocity": 70, "duration": 240}, {"note": 74, "velocity": 67, "duration": 240}, {"note": 76, "velocity": 67, "duration": 240}, {"note": 74, "velocity": 63, "duration": 240}, {"note": 72, "velocity": 64, "duration": 132}, {"note": 69, "velocity": 49, "duration": 157}, {"note": 72, "velocity": 66, "duration": 652}, {"note": 77, "velocity": 77, "duration": 239}, {"note": 77, "velocity": 95, "duration": 240}, {"note": 76, "velocity": 73, "duration": 240}, {"note": 77, "velocity": 87, "duration": 240}, {"note": 76, "velocity": 67, "duration": 253}, {"note": 74, "velocity": 85, "duration": 316}, {"note": 72, "velocity": 71, "duration": 240}, {"note": 74, "velocity": 87, "duration": 239}, {"note": 74, "velocity": 83, "duration": 239}, {"note": 74, "velocity": 93, "duration": 239}, {"note": 74, "velocity": 86, "duration": 239}, {"note": 74, "velocity": 104, "duration": 240}, {"note": 72, "velocity": 68, "duration": 120}, {"note": 81, "velocity": 98, "duration": 240}, {"note": 79, "velocity": 108, "duration": 359}, {"note": 79, "velocity": 93, "duration": 240}, {"note": 77, "velocity": 65, "duration": 119}, {"note": 77, "velocity": 83, "duration": 240}, {"note": 76, "velocity": 87, "duration": 239}, {"note": 76, "velocity": 81, "duration": 240}, {"note": 74, "velocity": 74, "duration": 240}, {"note": 77, "velocity": 90, "duration": 240}, {"note": 76, "velocity": 81, "duration": 360}, {"note": 79, "velocity": 104, "duration": 240}, {"note": 77, "velocity": 90, "duration": 119}, {"note": 77, "velocity": 93, "duration": 240}, {"note": 76, "velocity": 86, "duration": 239}, {"note": 76, "velocity": 75, "duration": 240}, {"note": 74, "velocity": 75, "duration": 239}, {"note": 74, "velocity": 86, "duration": 240}, {"note": 72, "velocity": 74, "duration": 370}, {"note": 77, "velocity": 95, "duration": 240}, {"note": 76, "velocity": 71, "duration": 120}, {"note": 77, "velocity": 85, "duration": 240}, {"note": 79, "velocity": 100, "duration": 239}, {"note": 79, "velocity": 98, "duration": 240}, {"note": 77, "velocity": 79, "duration": 145}, {"note": 76, "velocity": 69, "duration": 120}, {"note": 77, "velocity": 100, "duration": 600}, {"note": 80, "velocity": 100, "duration": 239}, {"note": 80, "velocity": 87, "duration": 119}, {"note": 80, "velocity": 85, "duration": 240}, {"note": 82, "velocity": 67, "duration": 239}, {"note": 82, "velocity": 112, "duration": 240}, {"note": 80, "velocity": 83, "duration": 138}, {"note": 79, "velocity": 77, "duration": 120}, {"note": 80, "velocity": 95, "duration": 600}, {"note": 79, "velocity": 93, "duration": 240}, {"note": 77, "velocity": 65, "duration": 119}, {"note": 77, "velocity": 83, "duration": 240}, {"note": 76, "velocity": 87, "duration": 239}, {"note": 76, "velocity": 81, "duration": 240}, {"note": 74, "velocity": 74, "duration": 240}, {"note": 77, "velocity": 90, "duration": 240}, {"note": 76, "velocity": 81, "duration": 360}, {"note": 79, "velocity": 104, "duration": 240}, {"note": 77, "velocity": 90, "duration": 119}, {"note": 77, "velocity": 93, "duration": 240}, {"note": 76, "velocity": 86, "duration": 239}, {"note": 76, "velocity": 75, "duration": 240}, {"note": 74, "velocity": 75, "duration": 239}, {"note": 74, "velocity": 86, "duration": 240}, {"note": 72, "velocity": 74, "duration": 370}, {"note": 77, "velocity": 95, "duration": 240}, {"note": 76, "velocity": 71, "duration": 120}, {"note": 77, "velocity": 85, "duration": 240}, {"note": 79, "velocity": 100, "duration": 239}, {"note": 79, "velocity": 98, "duration": 240}, {"note": 77, "velocity": 79, "duration": 145}, {"note": 76, "velocity": 69, "duration": 120}, {"note": 77, "velocity": 100, "duration": 480}, {"note": 76, "velocity": 70, "duration": 120}, {"note": 77, "velocity": 95, "duration": 240}, {"note": 76, "velocity": 68, "duration": 120}, {"note": 77, "velocity": 100, "duration": 240}, {"note": 79, "velocity": 93, "duration": 360}, {"note": 77, "velocity": 86, "duration": 150}, {"note": 76, "velocity": 53, "duration": 131}, {"note": 72, "velocity": 69, "duration": 290}, {"note": 74, "velocity": 74, "duration": 239}, {"note": 74, "velocity": 90, "duration": 240}, {"note": 72, "velocity": 77, "duration": 8400}, {"note": 67, "velocity": 76, "duration": 261}, {"note": 76, "velocity": 55, "duration": 240}, {"note": 74, "velocity": 66, "duration": 239}, {"note": 74, "velocity": 77, "duration": 240}, {"note": 76, "velocity": 81, "duration": 480}, {"note": 74, "velocity": 75, "duration": 480}, {"note": 67, "velocity": 74, "duration": 254}, {"note": 76, "velocity": 86, "duration": 282}, {"note": 74, "velocity": 74, "duration": 242}, {"note": 74, "velocity": 63, "duration": 2}, {"note": 0, "velocity": 0, "duration": 246}, {"note": 76, "velocity": 65, "duration": 232}, {"note": 72, "velocity": 76, "duration": 1439}, {"note": 72, "velocity": 70, "duration": 288}, {"note": 74, "velocity": 68, "duration": 259}, {"note": 76, "velocity": 77, "duration": 261}, {"note": 72, "velocity": 67, "duration": 239}, {"note": 72, "velocity": 69, "duration": 262}, {"note": 74, "velocity": 68, "duration": 252}, {"note": 76, "velocity": 71, "duration": 240}, {"note": 72, "velocity": 64, "duration": 240}, {"note": 77, "velocity": 85, "duration": 240}, {"note": 76, "velocity": 67, "duration": 960}, {"note": 67, "velocity": 68, "duration": 269}, {"note": 76, "velocity": 65, "duration": 256}, {"note": 74, "velocity": 60, "duration": 239}, {"note": 74, "velocity": 70, "duration": 253}, {"note": 76, "velocity": 74, "duration": 480}, {"note": 74, "velocity": 66, "duration": 480}, {"note": 67, "velocity": 64, "duration": 240}, {"note": 76, "velocity": 74, "duration": 293}, {"note": 74, "velocity": 67, "duration": 241}, {"note": 74, "velocity": 68, "duration": 1}, {"note": 0, "velocity": 0, "duration": 239}, {"note": 76, "velocity": 74, "duration": 480}, {"note": 72, "velocity": 67, "duration": 1199}, {"note": 72, "velocity": 73, "duration": 294}, {"note": 74, "velocity": 73, "duration": 240}, {"note": 76, "velocity": 71, "duration": 241}, {"note": 72, "velocity": 65, "duration": 239}, {"note": 72, "velocity": 71, "duration": 272}, {"note": 74, "velocity": 67, "duration": 243}, {"note": 76, "velocity": 73, "duration": 247}, {"note": 72, "velocity": 64, "duration": 276}, {"note": 74, "velocity": 85, "duration": 256}, {"note": 72, "velocity": 85, "duration": 484}, {"note": 72, "velocity": 71, "duration": 4}, {"note": 0, "velocity": 0, "duration": 236}, {"note": 72, "velocity": 75, "duration": 240}, {"note": 71, "velocity": 74, "duration": 247}, {"note": 67, "velocity": 74, "duration": 256}, {"note": 72, "velocity": 70, "duration": 240}, {"note": 71, "velocity": 64, "duration": 247}, {"note": 67, "velocity": 68, "duration": 480}, {"note": 72, "velocity": 70, "duration": 239}, {"note": 72, "velocity": 74, "duration": 240}, {"note": 71, "velocity": 68, "duration": 249}, {"note": 67, "velocity": 67, "duration": 266}, {"note": 72, "velocity": 74, "duration": 287}, {"note": 71, "velocity": 70, "duration": 240}, {"note": 67, "velocity": 69, "duration": 480}, {"note": 72, "velocity": 67, "duration": 240}, {"note": 71, "velocity": 74, "duration": 240}, {"note": 72, "velocity": 67, "duration": 240}, {"note": 67, "velocity": 71, "duration": 267}, {"note": 72, "velocity": 74, "duration": 240}, {"note": 71, "velocity": 68, "duration": 251}, {"note": 72, "velocity": 75, "duration": 261}, {"note": 74, "velocity": 72, "duration": 239}, {"note": 74, "velocity": 76, "duration": 239}, {"note": 74, "velocity": 76, "duration": 239}, {"note": 74, "velocity": 83, "duration": 239}, {"note": 74, "velocity": 93, "duration": 240}, {"note": 72, "velocity": 68, "duration": 240}, {"note": 76, "velocity": 90, "duration": 240}, {"note": 74, "velocity": 79, "duration": 480}, {"note": 77, "velocity": 85, "duration": 239}, {"note": 77, "velocity": 85, "duration": 240}, {"note": 76, "velocity": 74, "duration": 240}, {"note": 77, "velocity": 77, "duration": 240}, {"note": 79, "velocity": 85, "duration": 240}, {"note": 76, "velocity": 85, "duration": 240}, {"note": 74, "velocity": 87, "duration": 480}, {"note": 76, "velocity": 64, "duration": 239}, {"note": 76, "velocity": 70, "duration": 240}, {"note": 74, "velocity": 67, "duration": 240}, {"note": 76, "velocity": 67, "duration": 240}, {"note": 74, "velocity": 63, "duration": 240}, {"note": 72, "velocity": 64, "duration": 132}, {"note": 69, "velocity": 49, "duration": 157}, {"note": 72, "velocity": 66, "duration": 652}, {"note": 77, "velocity": 77, "duration": 239}, {"note": 77, "velocity": 95, "duration": 240}, {"note": 76, "velocity": 73, "duration": 240}, {"note": 77, "velocity": 87, "duration": 240}, {"note": 76, "velocity": 67, "duration": 253}, {"note": 74, "velocity": 85, "duration": 316}, {"note": 72, "velocity": 71, "duration": 240}, {"note": 74, "velocity": 87, "duration": 239}, {"note": 74, "velocity": 83, "duration": 239}, {"note": 74, "velocity": 93, "duration": 239}, {"note": 74, "velocity": 86, "duration": 239}, {"note": 74, "velocity": 104, "duration": 240}, {"note": 72, "velocity": 68, "duration": 120}, {"note": 81, "velocity": 98, "duration": 240}, {"note": 79, "velocity": 108, "duration": 359}, {"note": 79, "velocity": 93, "duration": 240}, {"note": 77, "velocity": 65, "duration": 119}, {"note": 77, "velocity": 83, "duration": 240}, {"note": 76, "velocity": 87, "duration": 239}, {"note": 76, "velocity": 81, "duration": 240}, {"note": 74, "velocity": 74, "duration": 240}, {"note": 77, "velocity": 90, "duration": 240}, {"note": 76, "velocity": 81, "duration": 360}, {"note": 79, "velocity": 104, "duration": 240}, {"note": 77, "velocity": 90, "duration": 119}, {"note": 77, "velocity": 93, "duration": 240}, {"note": 76, "velocity": 86, "duration": 239}, {"note": 76, "velocity": 75, "duration": 240}, {"note": 74, "velocity": 75, "duration": 239}, {"note": 74, "velocity": 86, "duration": 240}, {"note": 72, "velocity": 74, "duration": 370}, {"note": 77, "velocity": 95, "duration": 240}, {"note": 76, "velocity": 71, "duration": 120}, {"note": 77, "velocity": 85, "duration": 240}, {"note": 79, "velocity": 100, "duration": 239}, {"note": 79, "velocity": 98, "duration": 240}, {"note": 77, "velocity": 79, "duration": 145}, {"note": 76, "velocity": 69, "duration": 120}, {"note": 77, "velocity": 100, "duration": 600}, {"note": 80, "velocity": 100, "duration": 239}, {"note": 80, "velocity": 87, "duration": 119}, {"note": 80, "velocity": 85, "duration": 240}, {"note": 82, "velocity": 67, "duration": 239}, {"note": 82, "velocity": 112, "duration": 240}, {"note": 80, "velocity": 83, "duration": 138}, {"note": 79, "velocity": 77, "duration": 120}, {"note": 80, "velocity": 95, "duration": 600}, {"note": 79, "velocity": 93, "duration": 240}, {"note": 77, "velocity": 65, "duration": 119}, {"note": 77, "velocity": 83, "duration": 240}, {"note": 76, "velocity": 87, "duration": 239}, {"note": 76, "velocity": 81, "duration": 240}, {"note": 74, "velocity": 74, "duration": 240}, {"note": 77, "velocity": 90, "duration": 240}, {"note": 76, "velocity": 81, "duration": 360}, {"note": 79, "velocity": 104, "duration": 240}, {"note": 77, "velocity": 90, "duration": 119}, {"note": 77, "velocity": 93, "duration": 240}, {"note": 76, "velocity": 86, "duration": 239}, {"note": 76, "velocity": 75, "duration": 240}, {"note": 74, "velocity": 75, "duration": 239}, {"note": 74, "velocity": 86, "duration": 240}, {"note": 72, "velocity": 74, "duration": 370}, {"note": 77, "velocity": 95, "duration": 240}, {"note": 76, "velocity": 71, "duration": 120}, {"note": 77, "velocity": 85, "duration": 240}, {"note": 79, "velocity": 100, "duration": 239}, {"note": 79, "velocity": 98, "duration": 240}, {"note": 77, "velocity": 79, "duration": 145}, {"note": 76, "velocity": 69, "duration": 120}, {"note": 77, "velocity": 100, "duration": 480}, {"note": 76, "velocity": 70, "duration": 120}, {"note": 77, "velocity": 95, "duration": 240}, {"note": 76, "velocity": 68, "duration": 120}, {"note": 77, "velocity": 100, "duration": 240}, {"note": 79, "velocity": 93, "duration": 360}, {"note": 77, "velocity": 86, "duration": 150}, {"note": 76, "velocity": 53, "duration": 131}, {"note": 72, "velocity": 69, "duration": 290}, {"note": 74, "velocity": 74, "duration": 239}, {"note": 74, "velocity": 90, "duration": 240}, {"note": 72, "velocity": 77, "duration": 1936}, {"note": 80, "velocity": 93, "duration": 240}, {"note": 78, "velocity": 65, "duration": 119}, {"note": 78, "velocity": 83, "duration": 240}, {"note": 77, "velocity": 87, "duration": 239}, {"note": 77, "velocity": 81, "duration": 240}, {"note": 75, "velocity": 74, "duration": 240}, {"note": 78, "velocity": 90, "duration": 240}, {"note": 77, "velocity": 81, "duration": 360}, {"note": 80, "velocity": 104, "duration": 240}, {"note": 78, "velocity": 90, "duration": 119}, {"note": 78, "velocity": 93, "duration": 240}, {"note": 77, "velocity": 86, "duration": 239}, {"note": 77, "velocity": 75, "duration": 240}, {"note": 75, "velocity": 75, "duration": 239}, {"note": 75, "velocity": 86, "duration": 240}, {"note": 73, "velocity": 74, "duration": 370}, {"note": 78, "velocity": 95, "duration": 240}, {"note": 77, "velocity": 71, "duration": 120}, {"note": 78, "velocity": 85, "duration": 240}, {"note": 80, "velocity": 100, "duration": 239}, {"note": 80, "velocity": 98, "duration": 240}, {"note": 78, "velocity": 79, "duration": 145}, {"note": 77, "velocity": 69, "duration": 120}, {"note": 78, "velocity": 100, "duration": 600}, {"note": 81, "velocity": 100, "duration": 239}, {"note": 81, "velocity": 87, "duration": 119}, {"note": 81, "velocity": 85, "duration": 240}, {"note": 83, "velocity": 67, "duration": 239}, {"note": 83, "velocity": 112, "duration": 240}, {"note": 81, "velocity": 83, "duration": 138}, {"note": 80, "velocity": 77, "duration": 120}, {"note": 81, "velocity": 95, "duration": 600}, {"note": 80, "velocity": 93, "duration": 240}, {"note": 78, "velocity": 65, "duration": 119}, {"note": 78, "velocity": 83, "duration": 240}, {"note": 77, "velocity": 87, "duration": 239}, {"note": 77, "velocity": 81, "duration": 240}, {"note": 75, "velocity": 74, "duration": 240}, {"note": 78, "velocity": 90, "duration": 240}, {"note": 77, "velocity": 81, "duration": 360}, {"note": 80, "velocity": 104, "duration": 240}, {"note": 78, "velocity": 90, "duration": 119}, {"note": 78, "velocity": 93, "duration": 240}, {"note": 77, "velocity": 86, "duration": 239}, {"note": 77, "velocity": 75, "duration": 240}, {"note": 75, "velocity": 75, "duration": 239}, {"note": 75, "velocity": 86, "duration": 240}, {"note": 73, "velocity": 74, "duration": 370}, {"note": 78, "velocity": 95, "duration": 240}, {"note": 77, "velocity": 71, "duration": 120}, {"note": 78, "velocity": 85, "duration": 240}, {"note": 80, "velocity": 100, "duration": 239}, {"note": 80, "velocity": 98, "duration": 240}, {"note": 78, "velocity": 79, "duration": 145}, {"note": 77, "velocity": 69, "duration": 120}, {"note": 78, "velocity": 100, "duration": 480}, {"note": 77, "velocity": 70, "duration": 120}, {"note": 78, "velocity": 95, "duration": 240}, {"note": 77, "velocity": 68, "duration": 120}, {"note": 78, "velocity": 100, "duration": 240}, {"note": 80, "velocity": 93, "duration": 360}, {"note": 78, "velocity": 86, "duration": 150}, {"note": 77, "velocity": 53, "duration": 131}, {"note": 73, "velocity": 69, "duration": 290}, {"note": 75, "velocity": 74, "duration": 239}, {"note": 75, "velocity": 90, "duration": 240}, {"note": 73, "velocity": 77, "duration": 1726}]]