[[{"note": 77, "velocity": 76, "duration": 240}, {"note": 76, "velocity": 71, "duration": 240}, {"note": 74, "velocity": 64, "duration": 240}, {"note": 69, "velocity": 64, "duration": 240}, {"note": 74, "velocity": 66, "duration": 240}, {"note": 76, "velocity": 67, "duration": 240}, {"note": 77, "velocity": 79, "duration": 240}, {"note": 76, "velocity": 69, "duration": 240}, {"note": 74, "velocity": 60, "duration": 240}, {"note": 79, "velocity": 83, "duration": 240}, {"note": 81, "velocity": 76, "duration": 1439}, {"note": 81, "velocity": 69, "duration": 240}, {"note": 79, "velocity": 72, "duration": 240}, {"note": 81, "velocity": 68, "duration": 240}, {"note": 74, "velocity": 71, "duration": 240}, {"note": 79, "velocity": 83, "duration": 239}, {"note": 79, "velocity": 76, "duration": 240}, {"note": 81, "velocity": 65, "duration": 240}, {"note": 74, "velocity": 67, "duration": 240}, {"note": 79, "velocity": 73, "duration": 240}, {"note": 77, "velocity": 67, "duration": 240}, {"note": 69, "velocity": 55, "duration": 1440}, {"note": 77, "velocity": 64, "duration": 240}, {"note": 76, "velocity": 63, "duration": 240}, {"note": 74, "velocity": 59, "duration": 240}, {"note": 69, "velocity": 59, "duration": 334}, {"note": 74, "velocity": 61, "duration": 240}, {"note": 76, "velocity": 62, "duration": 263}, {"note": 77, "velocity": 64, "duration": 239}, {"note": 77, "velocity": 81, "duration": 240}, {"note": 74, "velocity": 59, "duration": 240}, {"note": 84, "velocity": 47, "duration": 240}, {"note": 81, "velocity": 67, "duration": 1680}, {"note": 74, "velocity": 59, "duration": 240}, {"note": 81, "velocity": 71, "duration": 240}, {"note": 79, "velocity": 71, "duration": 240}, {"note": 81, "velocity": 66, "duration": 240}, {"note": 79, "velocity": 74, "duration": 240}, {"note": 81, "velocity": 70, "duration": 480}, {"note": 76, "velocity": 67, "duration": 240}, {"note": 72, "velocity": 63, "duration": 240}, {"note": 74, "velocity": 69, "duration": 1486}, {"note": 77, "velocity": 76, "duration": 255}, {"note": 76, "velocity": 71, "duration": 240}, {"note": 74, "velocity": 64, "duration": 270}, {"note": 69, "velocity": 64, "duration": 240}, {"note": 74, "velocity": 66, "duration": 289}, {"note": 76, "velocity": 67, "duration": 314}, {"note": 77, "velocity": 79, "duration": 299}, {"note": 77, "velocity": 69, "duration": 59}, {"note": 0, "velocity": 0, "duration": 181}, {"note": 74, "velocity": 60, "duration": 282}, {"note": 79, "velocity": 83, "duration": 245}, {"note": 81, "velocity": 76, "duration": 1439}, {"note": 81, "velocity": 69, "duration": 249}, {"note": 79, "velocity": 72, "duration": 276}, {"note": 81, "velocity": 68, "duration": 240}, {"note": 74, "velocity": 71, "duration": 274}, {"note": 79, "velocity": 83, "duration": 239}, {"note": 79, "velocity": 76, "duration": 261}, {"note": 81, "velocity": 65, "duration": 242}, {"note": 76, "velocity": 67, "duration": 240}, {"note": 79, "velocity": 73, "duration": 260}, {"note": 77, "velocity": 67, "duration": 240}, {"note": 69, "velocity": 55, "duration": 1440}, {"note": 77, "velocity": 64, "duration": 240}, {"note": 76, "velocity": 63, "duration": 243}, {"note": 74, "velocity": 59, "duration": 255}, {"note": 69, "velocity": 59, "duration": 427}, {"note": 74, "velocity": 61, "duration": 240}, {"note": 76, "velocity": 62, "duration": 240}, {"note": 77, "velocity": 64, "duration": 239}, {"note": 77, "velocity": 81, "duration": 261}, {"note": 74, "velocity": 59, "duration": 279}, {"note": 84, "velocity": 47, "duration": 240}, {"note": 81, "velocity": 67, "duration": 1680}, {"note": 74, "velocity": 59, "duration": 244}, {"note": 77, "velocity": 71, "duration": 245}, {"note": 79, "velocity": 71, "duration": 240}, {"note": 81, "velocity": 66, "duration": 252}, {"note": 79, "velocity": 74, "duration": 240}, {"note": 81, "velocity": 70, "duration": 480}, {"note": 72, "velocity": 62, "duration": 480}, {"note": 74, "velocity": 65, "duration": 239}, {"note": 74, "velocity": 70, "duration": 1199}, {"note": 74, "velocity": 61, "duration": 495}, {"note": 77, "velocity": 67, "duration": 288}, {"note": 81, "velocity": 64, "duration": 274}, {"note": 86, "velocity": 71, "duration": 479}, {"note": 86, "velocity": 70, "duration": 251}, {"note": 84, "velocity": 61, "duration": 240}, {"note": 86, "velocity": 70, "duration": 480}, {"note": 84, "velocity": 65, "duration": 240}, {"note": 81, "velocity": 64, "duration": 277}, {"note": 84, "velocity": 69, "duration": 250}, {"note": 81, "velocity": 69, "duration": 275}, {"note": 79, "velocity": 70, "duration": 274}, {"note": 81, "velocity": 60, "duration": 719}, {"note": 81, "velocity": 70, "duration": 239}, {"note": 81, "velocity": 74, "duration": 240}, {"note": 76, "velocity": 65, "duration": 239}, {"note": 76, "velocity": 64, "duration": 239}, {"note": 76, "velocity": 70, "duration": 240}, {"note": 74, "velocity": 72, "duration": 240}, {"note": 73, "velocity": 90, "duration": 480}, {"note": 76, "velocity": 75, "duration": 288}, {"note": 77, "velocity": 73, "duration": 277}, {"note": 79, "velocity": 73, "duration": 288}, {"note": 81, "velocity": 81, "duration": 960}, {"note": 74, "velocity": 58, "duration": 463}, {"note": 77, "velocity": 69, "duration": 434}, {"note": 81, "velocity": 65, "duration": 240}, {"note": 86, "velocity": 81, "duration": 479}, {"note": 86, "velocity": 83, "duration": 244}, {"note": 84, "velocity": 61, "duration": 240}, {"note": 86, "velocity": 93, "duration": 720}, {"note": 82, "velocity": 81, "duration": 269}, {"note": 81, "velocity": 64, "duration": 274}, {"note": 82, "velocity": 81, "duration": 276}, {"note": 81, "velocity": 60, "duration": 240}, {"note": 69, "velocity": 52, "duration": 297}, {"note": 77, "velocity": 72, "duration": 960}, {"note": 76, "velocity": 67, "duration": 475}, {"note": 77, "velocity": 81, "duration": 271}, {"note": 79, "velocity": 67, "duration": 272}, {"note": 81, "velocity": 62, "duration": 240}, {"note": 74, "velocity": 75, "duration": 720}, {"note": 77, "velocity": 65, "duration": 286}, {"note": 76, "velocity": 66, "duration": 240}, {"note": 74, "velocity": 59, "duration": 289}, {"note": 77, "velocity": 72, "duration": 480}, {"note": 76, "velocity": 66, "duration": 2933}, {"note": 0, "velocity": 0, "duration": 14587}, {"note": 77, "velocity": 76, "duration": 255}, {"note": 76, "velocity": 71, "duration": 240}, {"note": 74, "velocity": 64, "duration": 270}, {"note": 69, "velocity": 64, "duration": 240}, {"note": 74, "velocity": 66, "duration": 240}, {"note": 76, "velocity": 67, "duration": 240}, {"note": 77, "velocity": 79, "duration": 239}, {"note": 77, "velocity": 69, "duration": 264}, {"note": 74, "velocity": 60, "duration": 282}, {"note": 79, "velocity": 83, "duration": 245}, {"note": 81, "velocity": 76, "duration": 1680}, {"note": 74, "velocity": 75, "duration": 283}, {"note": 81, "velocity": 66, "duration": 240}, {"note": 79, "velocity": 85, "duration": 240}, {"note": 81, "velocity": 70, "duration": 240}, {"note": 79, "velocity": 62, "duration": 240}, {"note": 81, "velocity": 70, "duration": 240}, {"note": 77, "velocity": 75, "duration": 263}, {"note": 79, "velocity": 77, "duration": 480}, {"note": 77, "velocity": 68, "duration": 240}, {"note": 79, "velocity": 80, "duration": 1200}, {"note": 77, "velocity": 64, "duration": 240}, {"note": 76, "velocity": 63, "duration": 243}, {"note": 74, "velocity": 59, "duration": 255}, {"note": 69, "velocity": 59, "duration": 427}, {"note": 74, "velocity": 61, "duration": 278}, {"note": 76, "velocity": 62, "duration": 240}, {"note": 77, "velocity": 64, "duration": 239}, {"note": 77, "velocity": 81, "duration": 261}, {"note": 79, "velocity": 77, "duration": 296}, {"note": 84, "velocity": 47, "duration": 240}, {"note": 81, "velocity": 67, "duration": 1680}, {"note": 74, "velocity": 59, "duration": 244}, {"note": 77, "velocity": 71, "duration": 245}, {"note": 79, "velocity": 71, "duration": 240}, {"note": 81, "velocity": 66, "duration": 252}, {"note": 79, "velocity": 74, "duration": 240}, {"note": 81, "velocity": 70, "duration": 270}, {"note": 72, "velocity": 72, "duration": 480}, {"note": 74, "velocity": 66, "duration": 239}, {"note": 74, "velocity": 74, "duration": 1439}, {"note": 74, "velocity": 61, "duration": 495}, {"note": 77, "velocity": 67, "duration": 288}, {"note": 81, "velocity": 64, "duration": 274}, {"note": 86, "velocity": 71, "duration": 479}, {"note": 86, "velocity": 70, "duration": 251}, {"note": 84, "velocity": 61, "duration": 240}, {"note": 86, "velocity": 70, "duration": 480}, {"note": 84, "velocity": 65, "duration": 240}, {"note": 81, "velocity": 64, "duration": 277}, {"note": 84, "velocity": 69, "duration": 250}, {"note": 81, "velocity": 69, "duration": 240}, {"note": 79, "velocity": 70, "duration": 274}, {"note": 81, "velocity": 60, "duration": 719}, {"note": 81, "velocity": 70, "duration": 239}, {"note": 81, "velocity": 74, "duration": 240}, {"note": 76, "velocity": 65, "duration": 239}, {"note": 76, "velocity": 64, "duration": 239}, {"note": 76, "velocity": 70, "duration": 240}, {"note": 74, "velocity": 72, "duration": 240}, {"note": 73, "velocity": 68, "duration": 480}, {"note": 76, "velocity": 75, "duration": 288}, {"note": 77, "velocity": 73, "duration": 277}, {"note": 79, "velocity": 73, "duration": 288}, {"note": 82, "velocity": 81, "duration": 480}, {"note": 81, "velocity": 81, "duration": 480}, {"note": 74, "velocity": 58, "duration": 463}, {"note": 77, "velocity": 69, "duration": 434}, {"note": 81, "velocity": 65, "duration": 240}, {"note": 86, "velocity": 81, "duration": 479}, {"note": 86, "velocity": 83, "duration": 244}, {"note": 84, "velocity": 61, "duration": 240}, {"note": 86, "velocity": 93, "duration": 720}, {"note": 82, "velocity": 81, "duration": 269}, {"note": 81, "velocity": 64, "duration": 274}, {"note": 82, "velocity": 81, "duration": 276}, {"note": 81, "velocity": 60, "duration": 240}, {"note": 69, "velocity": 52, "duration": 297}, {"note": 77, "velocity": 72, "duration": 960}, {"note": 76, "velocity": 67, "duration": 240}, {"note": 77, "velocity": 81, "duration": 271}, {"note": 79, "velocity": 67, "duration": 272}, {"note": 81, "velocity": 62, "duration": 240}, {"note": 74, "velocity": 75, "duration": 720}, {"note": 77, "velocity": 65, "duration": 286}, {"note": 76, "velocity": 66, "duration": 240}, {"note": 74, "velocity": 59, "duration": 240}, {"note": 82, "velocity": 72, "duration": 360}, {"note": 81, "velocity": 87, "duration": 360}, {"note": 74, "velocity": 61, "duration": 495}, {"note": 77, "velocity": 67, "duration": 288}, {"note": 81, "velocity": 64, "duration": 274}, {"note": 86, "velocity": 71, "duration": 479}, {"note": 86, "velocity": 70, "duration": 251}, {"note": 84, "velocity": 61, "duration": 240}, {"note": 86, "velocity": 70, "duration": 479}, {"note": 86, "velocity": 65, "duration": 240}, {"note": 81, "velocity": 64, "duration": 277}, {"note": 84, "velocity": 69, "duration": 250}, {"note": 81, "velocity": 69, "duration": 275}, {"note": 79, "velocity": 70, "duration": 274}, {"note": 81, "velocity": 60, "duration": 719}, {"note": 81, "velocity": 70, "duration": 239}, {"note": 81, "velocity": 74, "duration": 240}, {"note": 76, "velocity": 65, "duration": 479}, {"note": 76, "velocity": 70, "duration": 240}, {"note": 74, "velocity": 72, "duration": 240}, {"note": 73, "velocity": 90, "duration": 240}, {"note": 74, "velocity": 86, "duration": 297}, {"note": 76, "velocity": 75, "duration": 288}, {"note": 77, "velocity": 73, "duration": 277}, {"note": 79, "velocity": 73, "duration": 288}, {"note": 82, "velocity": 81, "duration": 480}, {"note": 81, "velocity": 83, "duration": 480}, {"note": 74, "velocity": 58, "duration": 463}, {"note": 77, "velocity": 69, "duration": 434}, {"note": 81, "velocity": 65, "duration": 240}, {"note": 86, "velocity": 81, "duration": 479}, {"note": 86, "velocity": 83, "duration": 244}, {"note": 84, "velocity": 61, "duration": 240}, {"note": 86, "velocity": 93, "duration": 239}, {"note": 86, "velocity": 111, "duration": 480}, {"note": 81, "velocity": 67, "duration": 240}, {"note": 84, "velocity": 76, "duration": 240}, {"note": 81, "velocity": 68, "duration": 240}, {"note": 79, "velocity": 86, "duration": 269}, {"note": 81, "velocity": 93, "duration": 1199}, {"note": 81, "velocity": 75, "duration": 275}, {"note": 82, "velocity": 79, "duration": 273}, {"note": 81, "velocity": 64, "duration": 275}, {"note": 82, "velocity": 100, "duration": 480}, {"note": 76, "velocity": 72, "duration": 480}, {"note": 77, "velocity": 72, "duration": 240}, {"note": 74, "velocity": 87, "duration": 4560}, {"note": 77, "velocity": 63, "duration": 251}, {"note": 76, "velocity": 66, "duration": 240}, {"note": 74, "velocity": 64, "duration": 277}, {"note": 76, "velocity": 65, "duration": 244}, {"note": 74, "velocity": 68, "duration": 244}, {"note": 76, "velocity": 67, "duration": 246}, {"note": 74, "velocity": 65, "duration": 240}, {"note": 79, "velocity": 63, "duration": 240}, {"note": 81, "velocity": 75, "duration": 1920}, {"note": 69, "velocity": 58, "duration": 239}, {"note": 69, "velocity": 58, "duration": 266}, {"note": 77, "velocity": 61, "duration": 268}, {"note": 76, "velocity": 65, "duration": 329}, {"note": 77, "velocity": 65, "duration": 360}, {"note": 74, "velocity": 50, "duration": 2813}]]