[[{"note": 69, "velocity": 73, "duration": 959}, {"note": 69, "velocity": 82, "duration": 480}, {"note": 67, "velocity": 82, "duration": 700}, {"note": 65, "velocity": 82, "duration": 240}, {"note": 64, "velocity": 82, "duration": 480}, {"note": 65, "velocity": 82, "duration": 1079}, {"note": 67, "velocity": 82, "duration": 480}, {"note": 69, "velocity": 82, "duration": 959}, {"note": 69, "velocity": 82, "duration": 255}, {"note": 72, "velocity": 82, "duration": 240}, {"note": 74, "velocity": 82, "duration": 959}, {"note": 74, "velocity": 82, "duration": 480}, {"note": 76, "velocity": 82, "duration": 720}, {"note": 74, "velocity": 82, "duration": 294}, {"note": 72, "velocity": 82, "duration": 240}, {"note": 67, "velocity": 82, "duration": 249}, {"note": 69, "velocity": 82, "duration": 2399}, {"note": 69, "velocity": 81, "duration": 259}, {"note": 72, "velocity": 81, "duration": 240}, {"note": 74, "velocity": 81, "duration": 959}, {"note": 74, "velocity": 81, "duration": 480}, {"note": 72, "velocity": 81, "duration": 960}, {"note": 69, "velocity": 81, "duration": 270}, {"note": 67, "velocity": 81, "duration": 299}, {"note": 69, "velocity": 81, "duration": 720}, {"note": 70, "velocity": 81, "duration": 240}, {"note": 69, "velocity": 81, "duration": 280}, {"note": 67, "velocity": 81, "duration": 275}, {"note": 65, "velocity": 81, "duration": 960}, {"note": 62, "velocity": 81, "duration": 359}, {"note": 64, "velocity": 81, "duration": 324}, {"note": 65, "velocity": 81, "duration": 963}, {"note": 69, "velocity": 81, "duration": 514}, {"note": 67, "velocity": 81, "duration": 1004}, {"note": 64, "velocity": 81, "duration": 240}, {"note": 60, "velocity": 82, "duration": 480}, {"note": 62, "velocity": 82, "duration": 2880}, {"note": 69, "velocity": 83, "duration": 959}, {"note": 69, "velocity": 85, "duration": 480}, {"note": 67, "velocity": 85, "duration": 987}, {"note": 65, "velocity": 86, "duration": 240}, {"note": 64, "velocity": 86, "duration": 480}, {"note": 65, "velocity": 86, "duration": 1079}, {"note": 67, "velocity": 86, "duration": 480}, {"note": 69, "velocity": 87, "duration": 959}, {"note": 69, "velocity": 87, "duration": 255}, {"note": 72, "velocity": 87, "duration": 240}, {"note": 74, "velocity": 87, "duration": 959}, {"note": 74, "velocity": 87, "duration": 480}, {"note": 76, "velocity": 87, "duration": 720}, {"note": 74, "velocity": 88, "duration": 294}, {"note": 72, "velocity": 89, "duration": 240}, {"note": 67, "velocity": 89, "duration": 249}, {"note": 69, "velocity": 89, "duration": 2399}, {"note": 69, "velocity": 90, "duration": 259}, {"note": 72, "velocity": 90, "duration": 240}, {"note": 74, "velocity": 90, "duration": 959}, {"note": 74, "velocity": 90, "duration": 480}, {"note": 72, "velocity": 90, "duration": 960}, {"note": 69, "velocity": 91, "duration": 270}, {"note": 67, "velocity": 91, "duration": 299}, {"note": 69, "velocity": 91, "duration": 720}, {"note": 70, "velocity": 92, "duration": 240}, {"note": 69, "velocity": 92, "duration": 280}, {"note": 67, "velocity": 92, "duration": 275}, {"note": 65, "velocity": 92, "duration": 960}, {"note": 62, "velocity": 92, "duration": 359}, {"note": 64, "velocity": 92, "duration": 324}, {"note": 65, "velocity": 92, "duration": 963}, {"note": 69, "velocity": 94, "duration": 514}, {"note": 67, "velocity": 94, "duration": 1004}, {"note": 64, "velocity": 94, "duration": 240}, {"note": 60, "velocity": 94, "duration": 480}, {"note": 62, "velocity": 94, "duration": 1920}, {"note": 69, "velocity": 92, "duration": 504}, {"note": 72, "velocity": 91, "duration": 494}, {"note": 74, "velocity": 91, "duration": 1508}, {"note": 76, "velocity": 91, "duration": 1322}, {"note": 76, "velocity": 90, "duration": 2}, {"note": 0, "velocity": 0, "duration": 1078}, {"note": 79, "velocity": 90, "duration": 480}, {"note": 77, "velocity": 90, "duration": 960}, {"note": 74, "velocity": 90, "duration": 239}, {"note": 74, "velocity": 90, "duration": 239}, {"note": 74, "velocity": 90, "duration": 959}, {"note": 74, "velocity": 90, "duration": 480}, {"note": 72, "velocity": 89, "duration": 720}, {"note": 74, "velocity": 89, "duration": 240}, {"note": 72, "velocity": 89, "duration": 249}, {"note": 67, "velocity": 89, "duration": 240}, {"note": 70, "velocity": 89, "duration": 480}, {"note": 69, "velocity": 87, "duration": 1439}, {"note": 69, "velocity": 86, "duration": 480}, {"note": 72, "velocity": 86, "duration": 480}, {"note": 74, "velocity": 86, "duration": 1440}, {"note": 76, "velocity": 86, "duration": 1440}, {"note": 73, "velocity": 84, "duration": 960}, {"note": 76, "velocity": 84, "duration": 480}, {"note": 77, "velocity": 84, "duration": 1466}, {"note": 67, "velocity": 83, "duration": 960}, {"note": 69, "velocity": 81, "duration": 505}, {"note": 67, "velocity": 80, "duration": 720}, {"note": 64, "velocity": 80, "duration": 296}, {"note": 60, "velocity": 80, "duration": 480}, {"note": 62, "velocity": 80, "duration": 2905}, {"note": 0, "velocity": 0, "duration": 23015}, {"note": 69, "velocity": 83, "duration": 959}, {"note": 69, "velocity": 85, "duration": 480}, {"note": 67, "velocity": 85, "duration": 987}, {"note": 65, "velocity": 85, "duration": 240}, {"note": 64, "velocity": 85, "duration": 480}, {"note": 65, "velocity": 85, "duration": 1079}, {"note": 67, "velocity": 86, "duration": 480}, {"note": 69, "velocity": 86, "duration": 959}, {"note": 69, "velocity": 86, "duration": 255}, {"note": 72, "velocity": 86, "duration": 240}, {"note": 74, "velocity": 86, "duration": 959}, {"note": 74, "velocity": 86, "duration": 480}, {"note": 76, "velocity": 86, "duration": 720}, {"note": 74, "velocity": 86, "duration": 294}, {"note": 72, "velocity": 86, "duration": 240}, {"note": 67, "velocity": 86, "duration": 249}, {"note": 69, "velocity": 86, "duration": 2399}, {"note": 69, "velocity": 86, "duration": 259}, {"note": 72, "velocity": 86, "duration": 240}, {"note": 74, "velocity": 86, "duration": 959}, {"note": 74, "velocity": 86, "duration": 480}, {"note": 72, "velocity": 86, "duration": 960}, {"note": 69, "velocity": 86, "duration": 270}, {"note": 67, "velocity": 86, "duration": 299}, {"note": 69, "velocity": 86, "duration": 720}, {"note": 70, "velocity": 86, "duration": 240}, {"note": 69, "velocity": 87, "duration": 280}, {"note": 67, "velocity": 86, "duration": 275}, {"note": 65, "velocity": 87, "duration": 960}, {"note": 62, "velocity": 89, "duration": 359}, {"note": 64, "velocity": 89, "duration": 324}, {"note": 65, "velocity": 89, "duration": 963}, {"note": 69, "velocity": 89, "duration": 514}, {"note": 67, "velocity": 89, "duration": 1004}, {"note": 64, "velocity": 89, "duration": 240}, {"note": 60, "velocity": 89, "duration": 480}, {"note": 62, "velocity": 89, "duration": 1920}, {"note": 69, "velocity": 89, "duration": 504}, {"note": 72, "velocity": 89, "duration": 494}, {"note": 74, "velocity": 89, "duration": 1508}, {"note": 76, "velocity": 89, "duration": 1439}, {"note": 76, "velocity": 89, "duration": 960}, {"note": 79, "velocity": 89, "duration": 480}, {"note": 77, "velocity": 89, "duration": 960}, {"note": 74, "velocity": 86, "duration": 239}, {"note": 74, "velocity": 86, "duration": 239}, {"note": 74, "velocity": 86, "duration": 959}, {"note": 74, "velocity": 86, "duration": 480}, {"note": 72, "velocity": 86, "duration": 720}, {"note": 74, "velocity": 84, "duration": 240}, {"note": 72, "velocity": 83, "duration": 249}, {"note": 67, "velocity": 83, "duration": 240}, {"note": 70, "velocity": 82, "duration": 480}, {"note": 69, "velocity": 82, "duration": 1439}, {"note": 69, "velocity": 82, "duration": 480}, {"note": 72, "velocity": 82, "duration": 480}, {"note": 74, "velocity": 82, "duration": 1440}, {"note": 76, "velocity": 82, "duration": 1440}, {"note": 73, "velocity": 81, "duration": 960}, {"note": 76, "velocity": 81, "duration": 480}, {"note": 77, "velocity": 81, "duration": 1466}, {"note": 67, "velocity": 81, "duration": 960}, {"note": 69, "velocity": 81, "duration": 505}, {"note": 67, "velocity": 82, "duration": 720}, {"note": 64, "velocity": 82, "duration": 296}, {"note": 60, "velocity": 83, "duration": 480}, {"note": 62, "velocity": 83, "duration": 2880}, {"note": 75, "velocity": 85, "duration": 4345}, {"note": 0, "velocity": 0, "duration": 15335}, {"note": 76, "velocity": 96, "duration": 239}, {"note": 76, "velocity": 96, "duration": 239}, {"note": 76, "velocity": 96, "duration": 959}, {"note": 76, "velocity": 96, "duration": 480}, {"note": 74, "velocity": 96, "duration": 720}, {"note": 76, "velocity": 96, "duration": 240}, {"note": 74, "velocity": 96, "duration": 239}, {"note": 69, "velocity": 96, "duration": 258}, {"note": 72, "velocity": 96, "duration": 480}, {"note": 71, "velocity": 96, "duration": 1439}, {"note": 71, "velocity": 95, "duration": 480}, {"note": 74, "velocity": 95, "duration": 480}, {"note": 76, "velocity": 95, "duration": 1440}, {"note": 78, "velocity": 94, "duration": 1439}, {"note": 78, "velocity": 94, "duration": 960}, {"note": 81, "velocity": 94, "duration": 480}, {"note": 79, "velocity": 94, "duration": 960}, {"note": 76, "velocity": 94, "duration": 239}, {"note": 76, "velocity": 94, "duration": 239}, {"note": 76, "velocity": 94, "duration": 959}, {"note": 76, "velocity": 94, "duration": 480}, {"note": 78, "velocity": 94, "duration": 720}, {"note": 79, "velocity": 94, "duration": 240}, {"note": 78, "velocity": 94, "duration": 237}, {"note": 74, "velocity": 94, "duration": 243}, {"note": 78, "velocity": 94, "duration": 480}, {"note": 76, "velocity": 94, "duration": 1448}, {"note": 71, "velocity": 94, "duration": 510}, {"note": 74, "velocity": 94, "duration": 480}, {"note": 76, "velocity": 94, "duration": 1440}, {"note": 78, "velocity": 94, "duration": 1440}, {"note": 76, "velocity": 94, "duration": 960}, {"note": 78, "velocity": 94, "duration": 480}, {"note": 79, "velocity": 95, "duration": 7680}, {"note": 67, "velocity": 61, "duration": 1182}, {"note": 71, "velocity": 60, "duration": 547}, {"note": 69, "velocity": 60, "duration": 1287}, {"note": 67, "velocity": 60, "duration": 256}, {"note": 62, "velocity": 60, "duration": 481}, {"note": 64, "velocity": 60, "duration": 6297}, {"note": 71, "velocity": 63, "duration": 1168}, {"note": 71, "velocity": 63, "duration": 581}, {"note": 69, "velocity": 63, "duration": 885}, {"note": 66, "velocity": 63, "duration": 256}, {"note": 66, "velocity": 63, "duration": 388}, {"note": 67, "velocity": 63, "duration": 1017}, {"note": 69, "velocity": 63, "duration": 510}, {"note": 71, "velocity": 63, "duration": 1015}, {"note": 71, "velocity": 63, "duration": 31}, {"note": 0, "velocity": 0, "duration": 258}, {"note": 74, "velocity": 63, "duration": 302}, {"note": 76, "velocity": 63, "duration": 928}, {"note": 76, "velocity": 63, "duration": 462}, {"note": 78, "velocity": 63, "duration": 777}, {"note": 76, "velocity": 63, "duration": 405}, {"note": 74, "velocity": 63, "duration": 344}, {"note": 69, "velocity": 63, "duration": 455}, {"note": 71, "velocity": 63, "duration": 2329}, {"note": 71, "velocity": 63, "duration": 370}, {"note": 74, "velocity": 62, "duration": 281}, {"note": 76, "velocity": 62, "duration": 950}, {"note": 76, "velocity": 62, "duration": 478}, {"note": 74, "velocity": 62, "duration": 988}, {"note": 71, "velocity": 61, "duration": 272}, {"note": 69, "velocity": 61, "duration": 305}, {"note": 71, "velocity": 61, "duration": 789}, {"note": 72, "velocity": 61, "duration": 245}, {"note": 71, "velocity": 60, "duration": 280}, {"note": 69, "velocity": 61, "duration": 280}, {"note": 67, "velocity": 60, "duration": 915}, {"note": 64, "velocity": 60, "duration": 327}, {"note": 66, "velocity": 60, "duration": 335}, {"note": 67, "velocity": 60, "duration": 1110}, {"note": 71, "velocity": 60, "duration": 564}, {"note": 69, "velocity": 60, "duration": 1298}, {"note": 66, "velocity": 60, "duration": 334}, {"note": 62, "velocity": 60, "duration": 478}, {"note": 64, "velocity": 60, "duration": 3183}, {"note": 64, "velocity": 60, "duration": 418}, {"note": 66, "velocity": 60, "duration": 404}, {"note": 67, "velocity": 60, "duration": 1578}, {"note": 71, "velocity": 62, "duration": 407}, {"note": 69, "velocity": 62, "duration": 3064}, {"note": 67, "velocity": 63, "duration": 1859}, {"note": 64, "velocity": 64, "duration": 6993}]]