[[{"note": 67, "velocity": 65, "duration": 119}, {"note": 67, "velocity": 72, "duration": 240}, {"note": 70, "velocity": 70, "duration": 300}, {"note": 72, "velocity": 72, "duration": 247}, {"note": 75, "velocity": 74, "duration": 242}, {"note": 72, "velocity": 98, "duration": 839}, {"note": 72, "velocity": 69, "duration": 119}, {"note": 72, "velocity": 77, "duration": 240}, {"note": 75, "velocity": 74, "duration": 254}, {"note": 77, "velocity": 81, "duration": 240}, {"note": 79, "velocity": 98, "duration": 239}, {"note": 79, "velocity": 104, "duration": 960}, {"note": 67, "velocity": 74, "duration": 302}, {"note": 70, "velocity": 68, "duration": 266}, {"note": 72, "velocity": 81, "duration": 271}, {"note": 75, "velocity": 70, "duration": 240}, {"note": 72, "velocity": 79, "duration": 960}, {"note": 70, "velocity": 87, "duration": 282}, {"note": 72, "velocity": 79, "duration": 239}, {"note": 72, "velocity": 95, "duration": 240}, {"note": 70, "velocity": 100, "duration": 240}, {"note": 67, "velocity": 108, "duration": 959}, {"note": 67, "velocity": 86, "duration": 300}, {"note": 70, "velocity": 73, "duration": 262}, {"note": 72, "velocity": 74, "duration": 240}, {"note": 75, "velocity": 76, "duration": 240}, {"note": 72, "velocity": 104, "duration": 960}, {"note": 70, "velocity": 75, "duration": 273}, {"note": 72, "velocity": 74, "duration": 239}, {"note": 72, "velocity": 86, "duration": 240}, {"note": 70, "velocity": 74, "duration": 240}, {"note": 67, "velocity": 90, "duration": 960}, {"note": 72, "velocity": 74, "duration": 239}, {"note": 72, "velocity": 74, "duration": 240}, {"note": 75, "velocity": 76, "duration": 120}, {"note": 77, "velocity": 83, "duration": 239}, {"note": 77, "velocity": 98, "duration": 960}, {"note": 74, "velocity": 85, "duration": 119}, {"note": 74, "velocity": 87, "duration": 240}, {"note": 72, "velocity": 77, "duration": 240}, {"note": 70, "velocity": 76, "duration": 240}, {"note": 72, "velocity": 67, "duration": 239}, {"note": 72, "velocity": 83, "duration": 2760}, {"note": 67, "velocity": 65, "duration": 119}, {"note": 67, "velocity": 72, "duration": 240}, {"note": 70, "velocity": 70, "duration": 300}, {"note": 72, "velocity": 72, "duration": 247}, {"note": 75, "velocity": 74, "duration": 242}, {"note": 72, "velocity": 98, "duration": 960}, {"note": 70, "velocity": 81, "duration": 274}, {"note": 72, "velocity": 76, "duration": 239}, {"note": 72, "velocity": 90, "duration": 240}, {"note": 70, "velocity": 77, "duration": 240}, {"note": 67, "velocity": 104, "duration": 960}, {"note": 72, "velocity": 83, "duration": 315}, {"note": 75, "velocity": 64, "duration": 282}, {"note": 77, "velocity": 73, "duration": 265}, {"note": 79, "velocity": 85, "duration": 240}, {"note": 77, "velocity": 85, "duration": 960}, {"note": 74, "velocity": 83, "duration": 239}, {"note": 74, "velocity": 108, "duration": 240}, {"note": 72, "velocity": 74, "duration": 244}, {"note": 70, "velocity": 86, "duration": 240}, {"note": 72, "velocity": 108, "duration": 960}, {"note": 67, "velocity": 86, "duration": 300}, {"note": 70, "velocity": 73, "duration": 262}, {"note": 72, "velocity": 74, "duration": 240}, {"note": 75, "velocity": 76, "duration": 240}, {"note": 72, "velocity": 104, "duration": 960}, {"note": 70, "velocity": 75, "duration": 273}, {"note": 72, "velocity": 74, "duration": 239}, {"note": 72, "velocity": 86, "duration": 240}, {"note": 70, "velocity": 74, "duration": 240}, {"note": 67, "velocity": 90, "duration": 960}, {"note": 72, "velocity": 71, "duration": 240}, {"note": 75, "velocity": 74, "duration": 240}, {"note": 79, "velocity": 77, "duration": 241}, {"note": 75, "velocity": 67, "duration": 269}, {"note": 77, "velocity": 98, "duration": 960}, {"note": 74, "velocity": 87, "duration": 239}, {"note": 74, "velocity": 98, "duration": 240}, {"note": 72, "velocity": 76, "duration": 251}, {"note": 70, "velocity": 79, "duration": 240}, {"note": 72, "velocity": 86, "duration": 1432}, {"note": 0, "velocity": 0, "duration": 7208}, {"note": 72, "velocity": 85, "duration": 267}, {"note": 75, "velocity": 73, "duration": 240}, {"note": 79, "velocity": 77, "duration": 240}, {"note": 75, "velocity": 75, "duration": 240}, {"note": 77, "velocity": 108, "duration": 960}, {"note": 72, "velocity": 81, "duration": 284}, {"note": 75, "velocity": 61, "duration": 240}, {"note": 77, "velocity": 85, "duration": 240}, {"note": 79, "velocity": 74, "duration": 240}, {"note": 72, "velocity": 87, "duration": 960}, {"note": 79, "velocity": 104, "duration": 239}, {"note": 79, "velocity": 108, "duration": 239}, {"note": 79, "velocity": 112, "duration": 239}, {"note": 79, "velocity": 114, "duration": 239}, {"note": 79, "velocity": 108, "duration": 480}, {"note": 75, "velocity": 87, "duration": 480}, {"note": 77, "velocity": 86, "duration": 239}, {"note": 77, "velocity": 81, "duration": 239}, {"note": 77, "velocity": 87, "duration": 120}, {"note": 79, "velocity": 86, "duration": 360}, {"note": 77, "velocity": 98, "duration": 960}, {"note": 72, "velocity": 100, "duration": 300}, {"note": 75, "velocity": 67, "duration": 240}, {"note": 77, "velocity": 73, "duration": 240}, {"note": 79, "velocity": 93, "duration": 240}, {"note": 77, "velocity": 112, "duration": 960}, {"note": 74, "velocity": 98, "duration": 239}, {"note": 74, "velocity": 100, "duration": 239}, {"note": 74, "velocity": 87, "duration": 240}, {"note": 70, "velocity": 100, "duration": 240}, {"note": 67, "velocity": 111, "duration": 960}, {"note": 74, "velocity": 69, "duration": 239}, {"note": 74, "velocity": 93, "duration": 239}, {"note": 74, "velocity": 98, "duration": 240}, {"note": 70, "velocity": 87, "duration": 239}, {"note": 70, "velocity": 95, "duration": 240}, {"note": 67, "velocity": 95, "duration": 239}, {"note": 67, "velocity": 100, "duration": 239}, {"note": 67, "velocity": 86, "duration": 240}, {"note": 70, "velocity": 95, "duration": 240}, {"note": 67, "velocity": 90, "duration": 240}, {"note": 70, "velocity": 86, "duration": 240}, {"note": 74, "velocity": 111, "duration": 240}, {"note": 72, "velocity": 95, "duration": 2131}, {"note": 0, "velocity": 0, "duration": 14069}, {"note": 67, "velocity": 65, "duration": 119}, {"note": 67, "velocity": 72, "duration": 240}, {"note": 70, "velocity": 70, "duration": 300}, {"note": 72, "velocity": 72, "duration": 247}, {"note": 75, "velocity": 74, "duration": 242}, {"note": 72, "velocity": 98, "duration": 839}, {"note": 72, "velocity": 69, "duration": 119}, {"note": 72, "velocity": 77, "duration": 240}, {"note": 75, "velocity": 74, "duration": 254}, {"note": 77, "velocity": 81, "duration": 240}, {"note": 79, "velocity": 98, "duration": 239}, {"note": 79, "velocity": 104, "duration": 960}, {"note": 67, "velocity": 74, "duration": 302}, {"note": 70, "velocity": 68, "duration": 266}, {"note": 72, "velocity": 81, "duration": 271}, {"note": 75, "velocity": 70, "duration": 240}, {"note": 72, "velocity": 79, "duration": 960}, {"note": 70, "velocity": 87, "duration": 282}, {"note": 72, "velocity": 79, "duration": 239}, {"note": 72, "velocity": 95, "duration": 240}, {"note": 70, "velocity": 100, "duration": 240}, {"note": 67, "velocity": 108, "duration": 959}, {"note": 67, "velocity": 86, "duration": 300}, {"note": 70, "velocity": 73, "duration": 262}, {"note": 72, "velocity": 74, "duration": 240}, {"note": 75, "velocity": 76, "duration": 240}, {"note": 72, "velocity": 104, "duration": 960}, {"note": 70, "velocity": 75, "duration": 273}, {"note": 72, "velocity": 74, "duration": 239}, {"note": 72, "velocity": 86, "duration": 240}, {"note": 70, "velocity": 74, "duration": 240}, {"note": 67, "velocity": 90, "duration": 960}, {"note": 72, "velocity": 74, "duration": 239}, {"note": 72, "velocity": 74, "duration": 240}, {"note": 75, "velocity": 76, "duration": 120}, {"note": 77, "velocity": 83, "duration": 239}, {"note": 77, "velocity": 98, "duration": 960}, {"note": 74, "velocity": 85, "duration": 119}, {"note": 74, "velocity": 87, "duration": 240}, {"note": 72, "velocity": 77, "duration": 240}, {"note": 70, "velocity": 76, "duration": 240}, {"note": 72, "velocity": 67, "duration": 239}, {"note": 72, "velocity": 83, "duration": 2760}, {"note": 67, "velocity": 65, "duration": 119}, {"note": 67, "velocity": 72, "duration": 240}, {"note": 70, "velocity": 70, "duration": 300}, {"note": 72, "velocity": 72, "duration": 247}, {"note": 75, "velocity": 74, "duration": 242}, {"note": 72, "velocity": 98, "duration": 960}, {"note": 70, "velocity": 81, "duration": 274}, {"note": 72, "velocity": 76, "duration": 239}, {"note": 72, "velocity": 90, "duration": 240}, {"note": 70, "velocity": 77, "duration": 240}, {"note": 67, "velocity": 104, "duration": 960}, {"note": 72, "velocity": 83, "duration": 315}, {"note": 75, "velocity": 64, "duration": 282}, {"note": 77, "velocity": 73, "duration": 265}, {"note": 79, "velocity": 85, "duration": 240}, {"note": 77, "velocity": 85, "duration": 960}, {"note": 74, "velocity": 83, "duration": 239}, {"note": 74, "velocity": 108, "duration": 240}, {"note": 72, "velocity": 74, "duration": 244}, {"note": 70, "velocity": 86, "duration": 240}, {"note": 72, "velocity": 108, "duration": 960}, {"note": 67, "velocity": 86, "duration": 300}, {"note": 70, "velocity": 73, "duration": 262}, {"note": 72, "velocity": 74, "duration": 240}, {"note": 75, "velocity": 76, "duration": 240}, {"note": 72, "velocity": 104, "duration": 960}, {"note": 70, "velocity": 75, "duration": 273}, {"note": 72, "velocity": 74, "duration": 239}, {"note": 72, "velocity": 86, "duration": 240}, {"note": 70, "velocity": 74, "duration": 240}, {"note": 67, "velocity": 90, "duration": 960}, {"note": 72, "velocity": 71, "duration": 240}, {"note": 75, "velocity": 74, "duration": 240}, {"note": 79, "velocity": 77, "duration": 241}, {"note": 75, "velocity": 67, "duration": 269}, {"note": 77, "velocity": 98, "duration": 960}, {"note": 74, "velocity": 87, "duration": 239}, {"note": 74, "velocity": 98, "duration": 240}, {"note": 72, "velocity": 76, "duration": 251}, {"note": 70, "velocity": 79, "duration": 240}, {"note": 72, "velocity": 86, "duration": 1490}, {"note": 0, "velocity": 0, "duration": 7150}, {"note": 72, "velocity": 85, "duration": 267}, {"note": 75, "velocity": 73, "duration": 240}, {"note": 79, "velocity": 77, "duration": 240}, {"note": 75, "velocity": 75, "duration": 240}, {"note": 77, "velocity": 108, "duration": 960}, {"note": 72, "velocity": 81, "duration": 284}, {"note": 75, "velocity": 61, "duration": 240}, {"note": 77, "velocity": 85, "duration": 240}, {"note": 79, "velocity": 74, "duration": 240}, {"note": 72, "velocity": 87, "duration": 960}, {"note": 79, "velocity": 104, "duration": 239}, {"note": 79, "velocity": 108, "duration": 239}, {"note": 79, "velocity": 112, "duration": 239}, {"note": 79, "velocity": 114, "duration": 239}, {"note": 79, "velocity": 108, "duration": 480}, {"note": 75, "velocity": 87, "duration": 480}, {"note": 77, "velocity": 86, "duration": 239}, {"note": 77, "velocity": 81, "duration": 239}, {"note": 77, "velocity": 87, "duration": 120}, {"note": 79, "velocity": 86, "duration": 360}, {"note": 77, "velocity": 98, "duration": 960}, {"note": 72, "velocity": 100, "duration": 300}, {"note": 75, "velocity": 67, "duration": 240}, {"note": 77, "velocity": 73, "duration": 240}, {"note": 79, "velocity": 93, "duration": 240}, {"note": 77, "velocity": 112, "duration": 960}, {"note": 74, "velocity": 98, "duration": 239}, {"note": 74, "velocity": 100, "duration": 239}, {"note": 74, "velocity": 87, "duration": 240}, {"note": 70, "velocity": 100, "duration": 240}, {"note": 67, "velocity": 111, "duration": 960}, {"note": 74, "velocity": 69, "duration": 239}, {"note": 74, "velocity": 93, "duration": 239}, {"note": 74, "velocity": 98, "duration": 240}, {"note": 70, "velocity": 87, "duration": 239}, {"note": 70, "velocity": 95, "duration": 240}, {"note": 67, "velocity": 95, "duration": 239}, {"note": 67, "velocity": 100, "duration": 239}, {"note": 67, "velocity": 86, "duration": 240}, {"note": 70, "velocity": 95, "duration": 240}, {"note": 67, "velocity": 90, "duration": 240}, {"note": 70, "velocity": 86, "duration": 240}, {"note": 74, "velocity": 111, "duration": 240}, {"note": 72, "velocity": 95, "duration": 1227}, {"note": 72, "velocity": 85, "duration": 267}, {"note": 75, "velocity": 73, "duration": 240}, {"note": 79, "velocity": 77, "duration": 240}, {"note": 75, "velocity": 75, "duration": 240}, {"note": 77, "velocity": 108, "duration": 960}, {"note": 72, "velocity": 81, "duration": 284}, {"note": 75, "velocity": 61, "duration": 240}, {"note": 77, "velocity": 85, "duration": 240}, {"note": 79, "velocity": 74, "duration": 240}, {"note": 72, "velocity": 87, "duration": 960}, {"note": 79, "velocity": 104, "duration": 239}, {"note": 79, "velocity": 108, "duration": 239}, {"note": 79, "velocity": 112, "duration": 239}, {"note": 79, "velocity": 114, "duration": 239}, {"note": 79, "velocity": 108, "duration": 480}, {"note": 75, "velocity": 87, "duration": 480}, {"note": 77, "velocity": 86, "duration": 239}, {"note": 77, "velocity": 81, "duration": 239}, {"note": 77, "velocity": 87, "duration": 120}, {"note": 79, "velocity": 86, "duration": 360}, {"note": 77, "velocity": 98, "duration": 960}, {"note": 72, "velocity": 100, "duration": 300}, {"note": 75, "velocity": 67, "duration": 240}, {"note": 77, "velocity": 73, "duration": 240}, {"note": 79, "velocity": 93, "duration": 240}, {"note": 77, "velocity": 112, "duration": 960}, {"note": 74, "velocity": 98, "duration": 239}, {"note": 74, "velocity": 100, "duration": 239}, {"note": 74, "velocity": 87, "duration": 240}, {"note": 70, "velocity": 100, "duration": 240}, {"note": 67, "velocity": 111, "duration": 960}, {"note": 74, "velocity": 69, "duration": 239}, {"note": 74, "velocity": 93, "duration": 239}, {"note": 74, "velocity": 98, "duration": 240}, {"note": 70, "velocity": 87, "duration": 239}, {"note": 70, "velocity": 95, "duration": 240}, {"note": 67, "velocity": 95, "duration": 239}, {"note": 67, "velocity": 100, "duration": 239}, {"note": 67, "velocity": 86, "duration": 240}, {"note": 70, "velocity": 95, "duration": 240}, {"note": 67, "velocity": 90, "duration": 240}, {"note": 70, "velocity": 86, "duration": 240}, {"note": 74, "velocity": 111, "duration": 240}, {"note": 72, "velocity": 95, "duration": 1260}, {"note": 72, "velocity": 100, "duration": 300}, {"note": 75, "velocity": 67, "duration": 240}, {"note": 77, "velocity": 73, "duration": 240}, {"note": 79, "velocity": 93, "duration": 240}, {"note": 77, "velocity": 112, "duration": 960}, {"note": 74, "velocity": 98, "duration": 239}, {"note": 74, "velocity": 100, "duration": 239}, {"note": 74, "velocity": 87, "duration": 240}, {"note": 70, "velocity": 100, "duration": 240}, {"note": 67, "velocity": 111, "duration": 960}, {"note": 74, "velocity": 69, "duration": 239}, {"note": 74, "velocity": 93, "duration": 239}, {"note": 74, "velocity": 98, "duration": 240}, {"note": 70, "velocity": 87, "duration": 239}, {"note": 70, "velocity": 95, "duration": 240}, {"note": 67, "velocity": 67, "duration": 240}, {"note": 67, "velocity": 95, "duration": 240}, {"note": 74, "velocity": 98, "duration": 480}, {"note": 79, "velocity": 111, "duration": 239}, {"note": 79, "velocity": 111, "duration": 239}, {"note": 79, "velocity": 112, "duration": 240}, {"note": 82, "velocity": 117, "duration": 240}, {"note": 84, "velocity": 122, "duration": 1171}]]