[[{"note": 69, "velocity": 54, "duration": 548}, {"note": 78, "velocity": 75, "duration": 510}, {"note": 81, "velocity": 75, "duration": 289}, {"note": 76, "velocity": 66, "duration": 720}, {"note": 69, "velocity": 60, "duration": 491}, {"note": 78, "velocity": 73, "duration": 455}, {"note": 81, "velocity": 81, "duration": 360}, {"note": 76, "velocity": 71, "duration": 960}, {"note": 69, "velocity": 51, "duration": 240}, {"note": 78, "velocity": 67, "duration": 480}, {"note": 81, "velocity": 62, "duration": 240}, {"note": 76, "velocity": 72, "duration": 480}, {"note": 74, "velocity": 63, "duration": 240}, {"note": 76, "velocity": 75, "duration": 240}, {"note": 74, "velocity": 59, "duration": 254}, {"note": 76, "velocity": 65, "duration": 480}, {"note": 78, "velocity": 64, "duration": 240}, {"note": 71, "velocity": 67, "duration": 582}, {"note": 74, "velocity": 64, "duration": 720}, {"note": 81, "velocity": 76, "duration": 433}, {"note": 78, "velocity": 58, "duration": 360}, {"note": 76, "velocity": 61, "duration": 479}, {"note": 76, "velocity": 67, "duration": 512}, {"note": 76, "velocity": 64, "duration": 32}, {"note": 0, "velocity": 0, "duration": 208}, {"note": 76, "velocity": 63, "duration": 240}, {"note": 74, "velocity": 60, "duration": 240}, {"note": 76, "velocity": 63, "duration": 240}, {"note": 71, "velocity": 59, "duration": 480}, {"note": 76, "velocity": 69, "duration": 719}, {"note": 76, "velocity": 65, "duration": 220}, {"note": 71, "velocity": 58, "duration": 259}, {"note": 71, "velocity": 54, "duration": 239}, {"note": 71, "velocity": 49, "duration": 255}, {"note": 81, "velocity": 73, "duration": 359}, {"note": 81, "velocity": 71, "duration": 360}, {"note": 78, "velocity": 71, "duration": 1920}, {"note": 69, "velocity": 59, "duration": 334}, {"note": 78, "velocity": 65, "duration": 488}, {"note": 81, "velocity": 74, "duration": 257}, {"note": 76, "velocity": 55, "duration": 960}, {"note": 69, "velocity": 47, "duration": 253}, {"note": 78, "velocity": 66, "duration": 486}, {"note": 81, "velocity": 70, "duration": 268}, {"note": 76, "velocity": 67, "duration": 960}, {"note": 69, "velocity": 35, "duration": 240}, {"note": 78, "velocity": 61, "duration": 480}, {"note": 81, "velocity": 63, "duration": 241}, {"note": 76, "velocity": 61, "duration": 480}, {"note": 74, "velocity": 58, "duration": 240}, {"note": 76, "velocity": 60, "duration": 240}, {"note": 74, "velocity": 52, "duration": 240}, {"note": 76, "velocity": 61, "duration": 479}, {"note": 76, "velocity": 61, "duration": 315}, {"note": 78, "velocity": 42, "duration": 240}, {"note": 71, "velocity": 60, "duration": 360}, {"note": 74, "velocity": 60, "duration": 600}, {"note": 81, "velocity": 74, "duration": 480}, {"note": 78, "velocity": 66, "duration": 278}, {"note": 76, "velocity": 60, "duration": 479}, {"note": 76, "velocity": 68, "duration": 479}, {"note": 76, "velocity": 65, "duration": 239}, {"note": 76, "velocity": 73, "duration": 349}, {"note": 76, "velocity": 75, "duration": 369}, {"note": 76, "velocity": 69, "duration": 479}, {"note": 76, "velocity": 74, "duration": 480}, {"note": 71, "velocity": 54, "duration": 240}, {"note": 76, "velocity": 71, "duration": 452}, {"note": 71, "velocity": 59, "duration": 460}, {"note": 76, "velocity": 67, "duration": 480}, {"note": 74, "velocity": 64, "duration": 3599}, {"note": 74, "velocity": 68, "duration": 239}, {"note": 74, "velocity": 68, "duration": 239}, {"note": 74, "velocity": 75, "duration": 239}, {"note": 74, "velocity": 65, "duration": 239}, {"note": 74, "velocity": 64, "duration": 359}, {"note": 74, "velocity": 67, "duration": 360}, {"note": 69, "velocity": 57, "duration": 240}, {"note": 73, "velocity": 95, "duration": 720}, {"note": 74, "velocity": 69, "duration": 1199}, {"note": 74, "velocity": 65, "duration": 240}, {"note": 71, "velocity": 52, "duration": 243}, {"note": 74, "velocity": 60, "duration": 268}, {"note": 71, "velocity": 46, "duration": 279}, {"note": 78, "velocity": 65, "duration": 359}, {"note": 78, "velocity": 76, "duration": 360}, {"note": 74, "velocity": 74, "duration": 262}, {"note": 76, "velocity": 79, "duration": 1920}, {"note": 78, "velocity": 74, "duration": 359}, {"note": 78, "velocity": 64, "duration": 360}, {"note": 83, "velocity": 81, "duration": 480}, {"note": 78, "velocity": 59, "duration": 720}, {"note": 76, "velocity": 67, "duration": 239}, {"note": 76, "velocity": 71, "duration": 480}, {"note": 78, "velocity": 63, "duration": 960}, {"note": 71, "velocity": 53, "duration": 283}, {"note": 79, "velocity": 75, "duration": 254}, {"note": 78, "velocity": 49, "duration": 271}, {"note": 74, "velocity": 64, "duration": 266}, {"note": 71, "velocity": 60, "duration": 241}, {"note": 74, "velocity": 58, "duration": 359}, {"note": 74, "velocity": 67, "duration": 380}, {"note": 71, "velocity": 62, "duration": 241}, {"note": 78, "velocity": 72, "duration": 285}, {"note": 76, "velocity": 74, "duration": 1680}, {"note": 74, "velocity": 68, "duration": 239}, {"note": 74, "velocity": 68, "duration": 239}, {"note": 74, "velocity": 75, "duration": 239}, {"note": 74, "velocity": 65, "duration": 239}, {"note": 74, "velocity": 64, "duration": 359}, {"note": 74, "velocity": 67, "duration": 360}, {"note": 69, "velocity": 57, "duration": 240}, {"note": 73, "velocity": 95, "duration": 720}, {"note": 74, "velocity": 69, "duration": 1199}, {"note": 74, "velocity": 65, "duration": 240}, {"note": 71, "velocity": 52, "duration": 243}, {"note": 74, "velocity": 60, "duration": 268}, {"note": 71, "velocity": 46, "duration": 279}, {"note": 78, "velocity": 65, "duration": 359}, {"note": 78, "velocity": 76, "duration": 360}, {"note": 74, "velocity": 74, "duration": 262}, {"note": 76, "velocity": 79, "duration": 1920}, {"note": 78, "velocity": 74, "duration": 359}, {"note": 78, "velocity": 64, "duration": 360}, {"note": 83, "velocity": 81, "duration": 480}, {"note": 78, "velocity": 59, "duration": 720}, {"note": 76, "velocity": 67, "duration": 239}, {"note": 76, "velocity": 71, "duration": 480}, {"note": 78, "velocity": 63, "duration": 960}, {"note": 71, "velocity": 53, "duration": 283}, {"note": 79, "velocity": 75, "duration": 254}, {"note": 78, "velocity": 49, "duration": 271}, {"note": 74, "velocity": 64, "duration": 266}, {"note": 71, "velocity": 60, "duration": 241}, {"note": 74, "velocity": 58, "duration": 359}, {"note": 74, "velocity": 67, "duration": 360}, {"note": 76, "velocity": 62, "duration": 248}, {"note": 74, "velocity": 67, "duration": 2400}, {"note": 69, "velocity": 54, "duration": 548}, {"note": 78, "velocity": 75, "duration": 510}, {"note": 81, "velocity": 75, "duration": 289}, {"note": 76, "velocity": 66, "duration": 720}, {"note": 69, "velocity": 60, "duration": 491}, {"note": 78, "velocity": 73, "duration": 480}, {"note": 81, "velocity": 81, "duration": 306}, {"note": 76, "velocity": 71, "duration": 960}, {"note": 69, "velocity": 51, "duration": 240}, {"note": 78, "velocity": 67, "duration": 480}, {"note": 81, "velocity": 62, "duration": 240}, {"note": 76, "velocity": 72, "duration": 480}, {"note": 74, "velocity": 63, "duration": 240}, {"note": 76, "velocity": 75, "duration": 240}, {"note": 74, "velocity": 59, "duration": 254}, {"note": 76, "velocity": 65, "duration": 480}, {"note": 78, "velocity": 64, "duration": 240}, {"note": 71, "velocity": 67, "duration": 582}, {"note": 74, "velocity": 64, "duration": 720}, {"note": 81, "velocity": 76, "duration": 433}, {"note": 78, "velocity": 58, "duration": 360}, {"note": 76, "velocity": 61, "duration": 479}, {"note": 76, "velocity": 67, "duration": 479}, {"note": 76, "velocity": 64, "duration": 239}, {"note": 76, "velocity": 63, "duration": 240}, {"note": 74, "velocity": 60, "duration": 240}, {"note": 76, "velocity": 63, "duration": 240}, {"note": 71, "velocity": 59, "duration": 480}, {"note": 76, "velocity": 69, "duration": 719}, {"note": 76, "velocity": 65, "duration": 220}, {"note": 71, "velocity": 58, "duration": 259}, {"note": 71, "velocity": 54, "duration": 239}, {"note": 71, "velocity": 49, "duration": 255}, {"note": 81, "velocity": 73, "duration": 359}, {"note": 81, "velocity": 71, "duration": 360}, {"note": 78, "velocity": 71, "duration": 1920}, {"note": 69, "velocity": 59, "duration": 240}, {"note": 78, "velocity": 65, "duration": 488}, {"note": 81, "velocity": 74, "duration": 257}, {"note": 76, "velocity": 55, "duration": 960}, {"note": 69, "velocity": 47, "duration": 253}, {"note": 78, "velocity": 66, "duration": 486}, {"note": 81, "velocity": 70, "duration": 268}, {"note": 76, "velocity": 67, "duration": 960}, {"note": 69, "velocity": 58, "duration": 240}, {"note": 78, "velocity": 61, "duration": 480}, {"note": 81, "velocity": 63, "duration": 241}, {"note": 76, "velocity": 61, "duration": 480}, {"note": 74, "velocity": 58, "duration": 240}, {"note": 76, "velocity": 60, "duration": 240}, {"note": 74, "velocity": 52, "duration": 240}, {"note": 76, "velocity": 61, "duration": 479}, {"note": 76, "velocity": 61, "duration": 315}, {"note": 78, "velocity": 42, "duration": 240}, {"note": 71, "velocity": 60, "duration": 360}, {"note": 74, "velocity": 60, "duration": 600}, {"note": 81, "velocity": 74, "duration": 480}, {"note": 78, "velocity": 66, "duration": 278}, {"note": 76, "velocity": 60, "duration": 479}, {"note": 76, "velocity": 68, "duration": 479}, {"note": 76, "velocity": 65, "duration": 239}, {"note": 76, "velocity": 73, "duration": 349}, {"note": 76, "velocity": 75, "duration": 369}, {"note": 76, "velocity": 69, "duration": 479}, {"note": 76, "velocity": 74, "duration": 480}, {"note": 71, "velocity": 54, "duration": 240}, {"note": 76, "velocity": 71, "duration": 452}, {"note": 71, "velocity": 59, "duration": 460}, {"note": 76, "velocity": 67, "duration": 480}, {"note": 74, "velocity": 64, "duration": 2472}, {"note": 0, "velocity": 0, "duration": 8808}, {"note": 74, "velocity": 68, "duration": 239}, {"note": 74, "velocity": 68, "duration": 239}, {"note": 74, "velocity": 75, "duration": 239}, {"note": 74, "velocity": 65, "duration": 239}, {"note": 74, "velocity": 64, "duration": 359}, {"note": 74, "velocity": 67, "duration": 360}, {"note": 69, "velocity": 57, "duration": 240}, {"note": 73, "velocity": 95, "duration": 720}, {"note": 74, "velocity": 69, "duration": 1199}, {"note": 74, "velocity": 65, "duration": 240}, {"note": 71, "velocity": 52, "duration": 243}, {"note": 74, "velocity": 60, "duration": 268}, {"note": 71, "velocity": 46, "duration": 279}, {"note": 78, "velocity": 65, "duration": 359}, {"note": 78, "velocity": 76, "duration": 360}, {"note": 74, "velocity": 74, "duration": 262}, {"note": 76, "velocity": 79, "duration": 1920}, {"note": 78, "velocity": 74, "duration": 359}, {"note": 78, "velocity": 64, "duration": 360}, {"note": 83, "velocity": 81, "duration": 480}, {"note": 78, "velocity": 59, "duration": 720}, {"note": 76, "velocity": 67, "duration": 239}, {"note": 76, "velocity": 71, "duration": 480}, {"note": 78, "velocity": 63, "duration": 960}, {"note": 71, "velocity": 53, "duration": 283}, {"note": 79, "velocity": 75, "duration": 254}, {"note": 78, "velocity": 49, "duration": 271}, {"note": 74, "velocity": 64, "duration": 266}, {"note": 71, "velocity": 60, "duration": 241}, {"note": 74, "velocity": 58, "duration": 359}, {"note": 74, "velocity": 67, "duration": 360}, {"note": 76, "velocity": 62, "duration": 248}, {"note": 74, "velocity": 67, "duration": 3360}, {"note": 69, "velocity": 54, "duration": 548}, {"note": 78, "velocity": 75, "duration": 510}, {"note": 81, "velocity": 75, "duration": 289}, {"note": 76, "velocity": 66, "duration": 720}, {"note": 69, "velocity": 60, "duration": 491}, {"note": 78, "velocity": 73, "duration": 480}, {"note": 81, "velocity": 81, "duration": 306}, {"note": 76, "velocity": 71, "duration": 960}, {"note": 69, "velocity": 51, "duration": 240}, {"note": 78, "velocity": 67, "duration": 480}, {"note": 81, "velocity": 62, "duration": 240}, {"note": 76, "velocity": 72, "duration": 480}, {"note": 74, "velocity": 63, "duration": 240}, {"note": 76, "velocity": 75, "duration": 240}, {"note": 74, "velocity": 59, "duration": 254}, {"note": 76, "velocity": 65, "duration": 480}, {"note": 78, "velocity": 64, "duration": 240}, {"note": 71, "velocity": 67, "duration": 582}, {"note": 74, "velocity": 64, "duration": 720}, {"note": 81, "velocity": 76, "duration": 433}, {"note": 78, "velocity": 58, "duration": 360}, {"note": 76, "velocity": 61, "duration": 479}, {"note": 76, "velocity": 67, "duration": 479}, {"note": 76, "velocity": 64, "duration": 239}, {"note": 76, "velocity": 63, "duration": 240}, {"note": 74, "velocity": 60, "duration": 240}, {"note": 76, "velocity": 63, "duration": 240}, {"note": 71, "velocity": 59, "duration": 480}, {"note": 76, "velocity": 69, "duration": 719}, {"note": 76, "velocity": 65, "duration": 220}, {"note": 71, "velocity": 58, "duration": 259}, {"note": 71, "velocity": 54, "duration": 239}, {"note": 71, "velocity": 49, "duration": 255}, {"note": 81, "velocity": 73, "duration": 359}, {"note": 81, "velocity": 71, "duration": 360}, {"note": 78, "velocity": 71, "duration": 1920}, {"note": 69, "velocity": 59, "duration": 240}, {"note": 78, "velocity": 65, "duration": 488}, {"note": 81, "velocity": 74, "duration": 257}, {"note": 76, "velocity": 55, "duration": 960}, {"note": 69, "velocity": 47, "duration": 253}, {"note": 78, "velocity": 66, "duration": 486}, {"note": 81, "velocity": 70, "duration": 268}, {"note": 76, "velocity": 67, "duration": 960}, {"note": 69, "velocity": 58, "duration": 240}, {"note": 78, "velocity": 61, "duration": 480}, {"note": 81, "velocity": 63, "duration": 241}, {"note": 76, "velocity": 61, "duration": 480}, {"note": 74, "velocity": 58, "duration": 240}, {"note": 76, "velocity": 60, "duration": 240}, {"note": 74, "velocity": 52, "duration": 240}, {"note": 76, "velocity": 61, "duration": 479}, {"note": 76, "velocity": 61, "duration": 315}, {"note": 78, "velocity": 42, "duration": 240}, {"note": 71, "velocity": 60, "duration": 360}, {"note": 74, "velocity": 60, "duration": 600}, {"note": 81, "velocity": 74, "duration": 480}, {"note": 78, "velocity": 66, "duration": 278}, {"note": 76, "velocity": 60, "duration": 479}, {"note": 76, "velocity": 68, "duration": 479}, {"note": 76, "velocity": 65, "duration": 239}, {"note": 76, "velocity": 73, "duration": 349}, {"note": 76, "velocity": 75, "duration": 369}, {"note": 76, "velocity": 69, "duration": 479}, {"note": 76, "velocity": 74, "duration": 480}, {"note": 71, "velocity": 54, "duration": 240}, {"note": 76, "velocity": 71, "duration": 452}, {"note": 71, "velocity": 59, "duration": 460}, {"note": 76, "velocity": 67, "duration": 480}, {"note": 74, "velocity": 64, "duration": 2640}, {"note": 83, "velocity": 112, "duration": 239}, {"note": 83, "velocity": 111, "duration": 239}, {"note": 83, "velocity": 111, "duration": 239}, {"note": 83, "velocity": 108, "duration": 239}, {"note": 83, "velocity": 108, "duration": 359}, {"note": 83, "velocity": 117, "duration": 360}, {"note": 78, "velocity": 86, "duration": 240}, {"note": 81, "velocity": 122, "duration": 1919}, {"note": 81, "velocity": 114, "duration": 239}, {"note": 81, "velocity": 120, "duration": 239}, {"note": 81, "velocity": 114, "duration": 239}, {"note": 81, "velocity": 117, "duration": 239}, {"note": 81, "velocity": 117, "duration": 360}, {"note": 76, "velocity": 95, "duration": 360}, {"note": 81, "velocity": 122, "duration": 240}, {"note": 78, "velocity": 100, "duration": 1920}, {"note": 83, "velocity": 85, "duration": 239}, {"note": 83, "velocity": 81, "duration": 239}, {"note": 83, "velocity": 98, "duration": 239}, {"note": 83, "velocity": 98, "duration": 239}, {"note": 83, "velocity": 112, "duration": 359}, {"note": 83, "velocity": 112, "duration": 360}, {"note": 78, "velocity": 98, "duration": 240}, {"note": 81, "velocity": 108, "duration": 959}, {"note": 81, "velocity": 112, "duration": 480}, {"note": 76, "velocity": 90, "duration": 240}, {"note": 81, "velocity": 112, "duration": 480}, {"note": 78, "velocity": 112, "duration": 3600}, {"note": 83, "velocity": 86, "duration": 239}, {"note": 83, "velocity": 81, "duration": 239}, {"note": 83, "velocity": 90, "duration": 239}, {"note": 83, "velocity": 95, "duration": 239}, {"note": 83, "velocity": 90, "duration": 239}, {"note": 83, "velocity": 93, "duration": 360}, {"note": 78, "velocity": 74, "duration": 360}, {"note": 81, "velocity": 111, "duration": 1920}, {"note": 73, "velocity": 108, "duration": 240}, {"note": 81, "velocity": 74, "duration": 239}, {"note": 81, "velocity": 71, "duration": 239}, {"note": 81, "velocity": 83, "duration": 239}, {"note": 81, "velocity": 95, "duration": 360}, {"note": 76, "velocity": 85, "duration": 360}, {"note": 81, "velocity": 95, "duration": 240}, {"note": 78, "velocity": 81, "duration": 1920}, {"note": 83, "velocity": 95, "duration": 239}, {"note": 83, "velocity": 85, "duration": 239}, {"note": 83, "velocity": 95, "duration": 239}, {"note": 83, "velocity": 90, "duration": 240}, {"note": 86, "velocity": 100, "duration": 360}, {"note": 85, "velocity": 104, "duration": 360}, {"note": 83, "velocity": 90, "duration": 480}, {"note": 81, "velocity": 98, "duration": 1440}, {"note": 78, "velocity": 79, "duration": 240}, {"note": 86, "velocity": 86, "duration": 3078}, {"note": 69, "velocity": 51, "duration": 240}, {"note": 78, "velocity": 87, "duration": 480}, {"note": 81, "velocity": 69, "duration": 287}, {"note": 76, "velocity": 90, "duration": 960}, {"note": 69, "velocity": 64, "duration": 240}, {"note": 78, "velocity": 104, "duration": 493}, {"note": 81, "velocity": 79, "duration": 252}, {"note": 76, "velocity": 86, "duration": 983}, {"note": 69, "velocity": 54, "duration": 325}, {"note": 78, "velocity": 95, "duration": 480}, {"note": 81, "velocity": 74, "duration": 259}, {"note": 76, "velocity": 74, "duration": 480}, {"note": 74, "velocity": 67, "duration": 270}, {"note": 76, "velocity": 76, "duration": 280}, {"note": 74, "velocity": 74, "duration": 307}, {"note": 76, "velocity": 76, "duration": 359}, {"note": 76, "velocity": 77, "duration": 367}, {"note": 78, "velocity": 71, "duration": 233}, {"note": 71, "velocity": 76, "duration": 505}, {"note": 74, "velocity": 86, "duration": 719}, {"note": 81, "velocity": 86, "duration": 480}, {"note": 78, "velocity": 74, "duration": 262}, {"note": 76, "velocity": 86, "duration": 479}, {"note": 76, "velocity": 85, "duration": 479}, {"note": 76, "velocity": 83, "duration": 239}, {"note": 76, "velocity": 76, "duration": 479}, {"note": 76, "velocity": 83, "duration": 239}, {"note": 76, "velocity": 83, "duration": 479}, {"note": 76, "velocity": 93, "duration": 651}, {"note": 71, "velocity": 69, "duration": 240}, {"note": 76, "velocity": 87, "duration": 480}, {"note": 71, "velocity": 77, "duration": 360}, {"note": 76, "velocity": 100, "duration": 600}, {"note": 74, "velocity": 93, "duration": 3539}]]