[[{"note": 66, "velocity": 67, "duration": 142}, {"note": 68, "velocity": 63, "duration": 120}, {"note": 69, "velocity": 76, "duration": 239}, {"note": 69, "velocity": 85, "duration": 515}, {"note": 62, "velocity": 75, "duration": 119}, {"note": 62, "velocity": 83, "duration": 840}, {"note": 64, "velocity": 79, "duration": 239}, {"note": 64, "velocity": 83, "duration": 240}, {"note": 73, "velocity": 75, "duration": 240}, {"note": 71, "velocity": 68, "duration": 239}, {"note": 71, "velocity": 90, "duration": 130}, {"note": 69, "velocity": 63, "duration": 239}, {"note": 69, "velocity": 93, "duration": 719}, {"note": 69, "velocity": 63, "duration": 120}, {"note": 71, "velocity": 71, "duration": 120}, {"note": 69, "velocity": 87, "duration": 840}, {"note": 62, "velocity": 71, "duration": 119}, {"note": 62, "velocity": 74, "duration": 120}, {"note": 66, "velocity": 85, "duration": 360}, {"note": 64, "velocity": 65, "duration": 119}, {"note": 64, "velocity": 67, "duration": 1920}, {"note": 66, "velocity": 73, "duration": 120}, {"note": 69, "velocity": 61, "duration": 119}, {"note": 69, "velocity": 71, "duration": 239}, {"note": 69, "velocity": 75, "duration": 240}, {"note": 71, "velocity": 75, "duration": 120}, {"note": 73, "velocity": 86, "duration": 422}, {"note": 69, "velocity": 66, "duration": 120}, {"note": 73, "velocity": 85, "duration": 840}, {"note": 71, "velocity": 67, "duration": 120}, {"note": 73, "velocity": 71, "duration": 120}, {"note": 71, "velocity": 86, "duration": 174}, {"note": 76, "velocity": 79, "duration": 359}, {"note": 76, "velocity": 79, "duration": 307}, {"note": 68, "velocity": 81, "duration": 120}, {"note": 69, "velocity": 74, "duration": 1560}, {"note": 73, "velocity": 83, "duration": 120}, {"note": 74, "velocity": 72, "duration": 135}, {"note": 73, "velocity": 60, "duration": 120}, {"note": 74, "velocity": 74, "duration": 120}, {"note": 73, "velocity": 69, "duration": 240}, {"note": 69, "velocity": 70, "duration": 119}, {"note": 69, "velocity": 90, "duration": 240}, {"note": 66, "velocity": 51, "duration": 120}, {"note": 71, "velocity": 62, "duration": 1680}, {"note": 74, "velocity": 90, "duration": 239}, {"note": 74, "velocity": 91, "duration": 239}, {"note": 74, "velocity": 91, "duration": 240}, {"note": 73, "velocity": 88, "duration": 119}, {"note": 73, "velocity": 85, "duration": 360}, {"note": 71, "velocity": 85, "duration": 120}, {"note": 73, "velocity": 84, "duration": 839}, {"note": 73, "velocity": 73, "duration": 119}, {"note": 73, "velocity": 75, "duration": 119}, {"note": 73, "velocity": 87, "duration": 120}, {"note": 78, "velocity": 100, "duration": 360}, {"note": 71, "velocity": 90, "duration": 240}, {"note": 69, "velocity": 64, "duration": 119}, {"note": 69, "velocity": 81, "duration": 840}, {"note": 66, "velocity": 79, "duration": 119}, {"note": 66, "velocity": 74, "duration": 119}, {"note": 66, "velocity": 90, "duration": 242}, {"note": 68, "velocity": 93, "duration": 269}, {"note": 69, "velocity": 76, "duration": 120}, {"note": 73, "velocity": 87, "duration": 360}, {"note": 71, "velocity": 85, "duration": 960}, {"note": 73, "velocity": 67, "duration": 960}, {"note": 81, "velocity": 85, "duration": 239}, {"note": 81, "velocity": 88, "duration": 240}, {"note": 80, "velocity": 91, "duration": 479}, {"note": 80, "velocity": 95, "duration": 120}, {"note": 81, "velocity": 95, "duration": 239}, {"note": 81, "velocity": 92, "duration": 599}, {"note": 81, "velocity": 86, "duration": 258}, {"note": 80, "velocity": 87, "duration": 134}, {"note": 78, "velocity": 88, "duration": 251}, {"note": 76, "velocity": 76, "duration": 132}, {"note": 73, "velocity": 93, "duration": 719}, {"note": 73, "velocity": 74, "duration": 137}, {"note": 71, "velocity": 65, "duration": 162}, {"note": 69, "velocity": 60, "duration": 120}, {"note": 66, "velocity": 63, "duration": 146}, {"note": 69, "velocity": 85, "duration": 167}, {"note": 71, "velocity": 69, "duration": 240}, {"note": 73, "velocity": 92, "duration": 480}, {"note": 64, "velocity": 63, "duration": 120}, {"note": 69, "velocity": 70, "duration": 137}, {"note": 71, "velocity": 79, "duration": 240}, {"note": 73, "velocity": 95, "duration": 480}, {"note": 64, "velocity": 58, "duration": 120}, {"note": 69, "velocity": 74, "duration": 145}, {"note": 71, "velocity": 73, "duration": 240}, {"note": 73, "velocity": 96, "duration": 1560}, {"note": 81, "velocity": 91, "duration": 239}, {"note": 81, "velocity": 94, "duration": 239}, {"note": 81, "velocity": 95, "duration": 240}, {"note": 80, "velocity": 95, "duration": 240}, {"note": 78, "velocity": 95, "duration": 120}, {"note": 80, "velocity": 94, "duration": 240}, {"note": 81, "velocity": 94, "duration": 466}, {"note": 69, "velocity": 72, "duration": 119}, {"note": 69, "velocity": 64, "duration": 120}, {"note": 81, "velocity": 83, "duration": 239}, {"note": 81, "velocity": 81, "duration": 120}, {"note": 80, "velocity": 79, "duration": 120}, {"note": 78, "velocity": 64, "duration": 155}, {"note": 76, "velocity": 87, "duration": 240}, {"note": 73, "velocity": 96, "duration": 599}, {"note": 73, "velocity": 85, "duration": 120}, {"note": 71, "velocity": 85, "duration": 164}, {"note": 69, "velocity": 83, "duration": 120}, {"note": 66, "velocity": 82, "duration": 138}, {"note": 73, "velocity": 81, "duration": 479}, {"note": 73, "velocity": 72, "duration": 129}, {"note": 71, "velocity": 66, "duration": 198}, {"note": 69, "velocity": 68, "duration": 132}, {"note": 66, "velocity": 63, "duration": 164}, {"note": 73, "velocity": 93, "duration": 479}, {"note": 73, "velocity": 73, "duration": 158}, {"note": 71, "velocity": 61, "duration": 168}, {"note": 69, "velocity": 60, "duration": 120}, {"note": 66, "velocity": 73, "duration": 121}, {"note": 71, "velocity": 93, "duration": 1200}, {"note": 81, "velocity": 95, "duration": 384}, {"note": 80, "velocity": 94, "duration": 139}, {"note": 78, "velocity": 95, "duration": 148}, {"note": 81, "velocity": 91, "duration": 397}, {"note": 78, "velocity": 85, "duration": 1200}, {"note": 76, "velocity": 86, "duration": 170}, {"note": 74, "velocity": 86, "duration": 136}, {"note": 73, "velocity": 86, "duration": 149}, {"note": 74, "velocity": 86, "duration": 240}, {"note": 73, "velocity": 86, "duration": 240}, {"note": 71, "velocity": 87, "duration": 1080}, {"note": 81, "velocity": 83, "duration": 164}, {"note": 80, "velocity": 83, "duration": 151}, {"note": 78, "velocity": 83, "duration": 120}, {"note": 80, "velocity": 80, "duration": 128}, {"note": 81, "velocity": 79, "duration": 480}, {"note": 73, "velocity": 75, "duration": 480}, {"note": 76, "velocity": 74, "duration": 120}, {"note": 78, "velocity": 74, "duration": 240}, {"note": 76, "velocity": 75, "duration": 610}, {"note": 73, "velocity": 76, "duration": 360}, {"note": 71, "velocity": 82, "duration": 2400}, {"note": 66, "velocity": 67, "duration": 142}, {"note": 68, "velocity": 63, "duration": 120}, {"note": 69, "velocity": 76, "duration": 239}, {"note": 69, "velocity": 85, "duration": 515}, {"note": 62, "velocity": 75, "duration": 119}, {"note": 62, "velocity": 83, "duration": 840}, {"note": 64, "velocity": 79, "duration": 239}, {"note": 64, "velocity": 83, "duration": 240}, {"note": 73, "velocity": 75, "duration": 240}, {"note": 71, "velocity": 68, "duration": 239}, {"note": 71, "velocity": 90, "duration": 130}, {"note": 69, "velocity": 63, "duration": 239}, {"note": 69, "velocity": 93, "duration": 719}, {"note": 69, "velocity": 63, "duration": 120}, {"note": 71, "velocity": 71, "duration": 120}, {"note": 69, "velocity": 87, "duration": 840}, {"note": 62, "velocity": 71, "duration": 119}, {"note": 62, "velocity": 74, "duration": 120}, {"note": 66, "velocity": 85, "duration": 360}, {"note": 64, "velocity": 65, "duration": 119}, {"note": 64, "velocity": 67, "duration": 1920}, {"note": 66, "velocity": 73, "duration": 120}, {"note": 69, "velocity": 61, "duration": 119}, {"note": 69, "velocity": 71, "duration": 239}, {"note": 69, "velocity": 75, "duration": 240}, {"note": 71, "velocity": 75, "duration": 120}, {"note": 73, "velocity": 86, "duration": 422}, {"note": 69, "velocity": 66, "duration": 120}, {"note": 73, "velocity": 85, "duration": 840}, {"note": 71, "velocity": 67, "duration": 120}, {"note": 73, "velocity": 71, "duration": 120}, {"note": 71, "velocity": 86, "duration": 174}, {"note": 76, "velocity": 79, "duration": 359}, {"note": 76, "velocity": 79, "duration": 307}, {"note": 68, "velocity": 81, "duration": 120}, {"note": 69, "velocity": 74, "duration": 1560}, {"note": 73, "velocity": 83, "duration": 120}, {"note": 74, "velocity": 72, "duration": 135}, {"note": 73, "velocity": 60, "duration": 120}, {"note": 74, "velocity": 74, "duration": 120}, {"note": 73, "velocity": 69, "duration": 240}, {"note": 69, "velocity": 70, "duration": 119}, {"note": 69, "velocity": 90, "duration": 240}, {"note": 66, "velocity": 51, "duration": 120}, {"note": 71, "velocity": 62, "duration": 1680}, {"note": 74, "velocity": 90, "duration": 239}, {"note": 74, "velocity": 91, "duration": 239}, {"note": 74, "velocity": 91, "duration": 240}, {"note": 73, "velocity": 88, "duration": 119}, {"note": 73, "velocity": 85, "duration": 360}, {"note": 71, "velocity": 85, "duration": 120}, {"note": 73, "velocity": 84, "duration": 839}, {"note": 73, "velocity": 73, "duration": 119}, {"note": 73, "velocity": 75, "duration": 119}, {"note": 73, "velocity": 87, "duration": 120}, {"note": 78, "velocity": 100, "duration": 360}, {"note": 71, "velocity": 90, "duration": 240}, {"note": 69, "velocity": 64, "duration": 119}, {"note": 69, "velocity": 81, "duration": 840}, {"note": 66, "velocity": 79, "duration": 119}, {"note": 66, "velocity": 74, "duration": 119}, {"note": 66, "velocity": 90, "duration": 242}, {"note": 68, "velocity": 93, "duration": 269}, {"note": 69, "velocity": 76, "duration": 120}, {"note": 73, "velocity": 93, "duration": 360}, {"note": 71, "velocity": 96, "duration": 960}, {"note": 73, "velocity": 84, "duration": 960}, {"note": 81, "velocity": 84, "duration": 239}, {"note": 81, "velocity": 84, "duration": 240}, {"note": 80, "velocity": 85, "duration": 479}, {"note": 80, "velocity": 90, "duration": 120}, {"note": 81, "velocity": 91, "duration": 239}, {"note": 81, "velocity": 92, "duration": 599}, {"note": 81, "velocity": 90, "duration": 258}, {"note": 80, "velocity": 94, "duration": 134}, {"note": 78, "velocity": 87, "duration": 251}, {"note": 76, "velocity": 76, "duration": 132}, {"note": 73, "velocity": 93, "duration": 719}, {"note": 73, "velocity": 74, "duration": 137}, {"note": 71, "velocity": 65, "duration": 162}, {"note": 69, "velocity": 60, "duration": 120}, {"note": 66, "velocity": 63, "duration": 146}, {"note": 69, "velocity": 85, "duration": 167}, {"note": 71, "velocity": 69, "duration": 240}, {"note": 73, "velocity": 92, "duration": 480}, {"note": 64, "velocity": 63, "duration": 120}, {"note": 69, "velocity": 70, "duration": 137}, {"note": 71, "velocity": 79, "duration": 240}, {"note": 73, "velocity": 95, "duration": 480}, {"note": 64, "velocity": 58, "duration": 120}, {"note": 69, "velocity": 74, "duration": 145}, {"note": 71, "velocity": 73, "duration": 240}, {"note": 73, "velocity": 96, "duration": 1560}, {"note": 81, "velocity": 91, "duration": 239}, {"note": 81, "velocity": 85, "duration": 239}, {"note": 81, "velocity": 82, "duration": 240}, {"note": 80, "velocity": 81, "duration": 240}, {"note": 78, "velocity": 83, "duration": 120}, {"note": 80, "velocity": 84, "duration": 240}, {"note": 81, "velocity": 86, "duration": 466}, {"note": 69, "velocity": 72, "duration": 119}, {"note": 69, "velocity": 64, "duration": 120}, {"note": 81, "velocity": 83, "duration": 239}, {"note": 81, "velocity": 81, "duration": 120}, {"note": 80, "velocity": 79, "duration": 120}, {"note": 78, "velocity": 64, "duration": 155}, {"note": 76, "velocity": 87, "duration": 240}, {"note": 73, "velocity": 93, "duration": 599}, {"note": 73, "velocity": 74, "duration": 120}, {"note": 71, "velocity": 90, "duration": 164}, {"note": 69, "velocity": 90, "duration": 120}, {"note": 66, "velocity": 90, "duration": 138}, {"note": 73, "velocity": 92, "duration": 479}, {"note": 73, "velocity": 72, "duration": 129}, {"note": 71, "velocity": 66, "duration": 198}, {"note": 69, "velocity": 68, "duration": 132}, {"note": 66, "velocity": 63, "duration": 164}, {"note": 73, "velocity": 93, "duration": 479}, {"note": 73, "velocity": 73, "duration": 158}, {"note": 71, "velocity": 61, "duration": 168}, {"note": 69, "velocity": 60, "duration": 120}, {"note": 66, "velocity": 73, "duration": 121}, {"note": 71, "velocity": 93, "duration": 1200}, {"note": 81, "velocity": 95, "duration": 384}, {"note": 80, "velocity": 89, "duration": 139}, {"note": 78, "velocity": 90, "duration": 148}, {"note": 81, "velocity": 91, "duration": 120}, {"note": 81, "velocity": 91, "duration": 239}, {"note": 81, "velocity": 94, "duration": 240}, {"note": 80, "velocity": 94, "duration": 479}, {"note": 80, "velocity": 101, "duration": 120}, {"note": 81, "velocity": 102, "duration": 239}, {"note": 81, "velocity": 105, "duration": 599}, {"note": 81, "velocity": 108, "duration": 258}, {"note": 80, "velocity": 83, "duration": 134}, {"note": 78, "velocity": 87, "duration": 251}, {"note": 76, "velocity": 76, "duration": 132}, {"note": 73, "velocity": 93, "duration": 719}, {"note": 73, "velocity": 74, "duration": 137}, {"note": 71, "velocity": 65, "duration": 162}, {"note": 69, "velocity": 60, "duration": 120}, {"note": 66, "velocity": 63, "duration": 146}, {"note": 69, "velocity": 85, "duration": 167}, {"note": 71, "velocity": 69, "duration": 240}, {"note": 73, "velocity": 92, "duration": 480}, {"note": 64, "velocity": 63, "duration": 120}, {"note": 69, "velocity": 70, "duration": 137}, {"note": 71, "velocity": 79, "duration": 240}, {"note": 73, "velocity": 95, "duration": 480}, {"note": 64, "velocity": 58, "duration": 120}, {"note": 69, "velocity": 74, "duration": 145}, {"note": 71, "velocity": 73, "duration": 240}, {"note": 73, "velocity": 96, "duration": 1560}, {"note": 81, "velocity": 94, "duration": 239}, {"note": 81, "velocity": 94, "duration": 239}, {"note": 81, "velocity": 95, "duration": 240}, {"note": 80, "velocity": 95, "duration": 240}, {"note": 78, "velocity": 95, "duration": 120}, {"note": 80, "velocity": 95, "duration": 240}, {"note": 81, "velocity": 95, "duration": 466}, {"note": 69, "velocity": 72, "duration": 119}, {"note": 69, "velocity": 64, "duration": 120}, {"note": 81, "velocity": 83, "duration": 239}, {"note": 81, "velocity": 81, "duration": 120}, {"note": 80, "velocity": 79, "duration": 120}, {"note": 78, "velocity": 64, "duration": 155}, {"note": 76, "velocity": 87, "duration": 240}, {"note": 73, "velocity": 93, "duration": 599}, {"note": 73, "velocity": 74, "duration": 120}, {"note": 71, "velocity": 98, "duration": 164}, {"note": 69, "velocity": 97, "duration": 120}, {"note": 66, "velocity": 96, "duration": 138}, {"note": 73, "velocity": 95, "duration": 479}, {"note": 73, "velocity": 72, "duration": 129}, {"note": 71, "velocity": 66, "duration": 198}, {"note": 69, "velocity": 68, "duration": 132}, {"note": 66, "velocity": 63, "duration": 164}, {"note": 73, "velocity": 93, "duration": 479}, {"note": 73, "velocity": 73, "duration": 158}, {"note": 71, "velocity": 61, "duration": 168}, {"note": 69, "velocity": 60, "duration": 120}, {"note": 66, "velocity": 73, "duration": 121}, {"note": 71, "velocity": 93, "duration": 1200}, {"note": 81, "velocity": 95, "duration": 384}, {"note": 80, "velocity": 71, "duration": 139}, {"note": 78, "velocity": 87, "duration": 148}, {"note": 81, "velocity": 111, "duration": 397}, {"note": 78, "velocity": 85, "duration": 1200}, {"note": 76, "velocity": 79, "duration": 170}, {"note": 74, "velocity": 79, "duration": 136}, {"note": 73, "velocity": 79, "duration": 149}, {"note": 74, "velocity": 80, "duration": 240}, {"note": 73, "velocity": 81, "duration": 240}, {"note": 71, "velocity": 85, "duration": 1080}, {"note": 81, "velocity": 99, "duration": 164}, {"note": 80, "velocity": 99, "duration": 151}, {"note": 78, "velocity": 99, "duration": 120}, {"note": 80, "velocity": 99, "duration": 128}, {"note": 81, "velocity": 99, "duration": 480}, {"note": 73, "velocity": 96, "duration": 480}, {"note": 76, "velocity": 92, "duration": 120}, {"note": 78, "velocity": 91, "duration": 240}, {"note": 76, "velocity": 91, "duration": 610}, {"note": 73, "velocity": 91, "duration": 360}, {"note": 71, "velocity": 90, "duration": 2305}]]