[[{"note": 60, "velocity": 61, "duration": 272}, {"note": 65, "velocity": 68, "duration": 239}, {"note": 65, "velocity": 74, "duration": 239}, {"note": 65, "velocity": 65, "duration": 240}, {"note": 68, "velocity": 73, "duration": 240}, {"note": 65, "velocity": 85, "duration": 479}, {"note": 65, "velocity": 79, "duration": 240}, {"note": 63, "velocity": 72, "duration": 240}, {"note": 65, "velocity": 77, "duration": 479}, {"note": 65, "velocity": 93, "duration": 1199}, {"note": 65, "velocity": 64, "duration": 264}, {"note": 70, "velocity": 81, "duration": 239}, {"note": 70, "velocity": 76, "duration": 239}, {"note": 70, "velocity": 76, "duration": 240}, {"note": 72, "velocity": 87, "duration": 240}, {"note": 70, "velocity": 98, "duration": 480}, {"note": 68, "velocity": 74, "duration": 240}, {"note": 70, "velocity": 76, "duration": 240}, {"note": 72, "velocity": 77, "duration": 479}, {"note": 72, "velocity": 90, "duration": 1199}, {"note": 72, "velocity": 71, "duration": 240}, {"note": 77, "velocity": 76, "duration": 239}, {"note": 77, "velocity": 76, "duration": 239}, {"note": 77, "velocity": 85, "duration": 240}, {"note": 80, "velocity": 75, "duration": 240}, {"note": 77, "velocity": 104, "duration": 480}, {"note": 75, "velocity": 63, "duration": 268}, {"note": 72, "velocity": 67, "duration": 240}, {"note": 75, "velocity": 98, "duration": 480}, {"note": 70, "velocity": 79, "duration": 1199}, {"note": 70, "velocity": 72, "duration": 240}, {"note": 72, "velocity": 90, "duration": 479}, {"note": 72, "velocity": 77, "duration": 240}, {"note": 75, "velocity": 86, "duration": 240}, {"note": 70, "velocity": 72, "duration": 239}, {"note": 70, "velocity": 75, "duration": 480}, {"note": 72, "velocity": 67, "duration": 240}, {"note": 68, "velocity": 61, "duration": 480}, {"note": 65, "velocity": 76, "duration": 1200}, {"note": 65, "velocity": 83, "duration": 1200}, {"note": 60, "velocity": 61, "duration": 272}, {"note": 65, "velocity": 68, "duration": 239}, {"note": 65, "velocity": 74, "duration": 239}, {"note": 65, "velocity": 65, "duration": 240}, {"note": 68, "velocity": 73, "duration": 240}, {"note": 65, "velocity": 85, "duration": 479}, {"note": 65, "velocity": 79, "duration": 240}, {"note": 63, "velocity": 72, "duration": 240}, {"note": 65, "velocity": 77, "duration": 479}, {"note": 65, "velocity": 93, "duration": 1199}, {"note": 65, "velocity": 64, "duration": 264}, {"note": 70, "velocity": 81, "duration": 239}, {"note": 70, "velocity": 76, "duration": 239}, {"note": 70, "velocity": 76, "duration": 240}, {"note": 72, "velocity": 87, "duration": 240}, {"note": 70, "velocity": 98, "duration": 480}, {"note": 68, "velocity": 74, "duration": 240}, {"note": 70, "velocity": 76, "duration": 240}, {"note": 72, "velocity": 77, "duration": 479}, {"note": 72, "velocity": 90, "duration": 1199}, {"note": 72, "velocity": 71, "duration": 240}, {"note": 77, "velocity": 76, "duration": 239}, {"note": 77, "velocity": 76, "duration": 239}, {"note": 77, "velocity": 85, "duration": 239}, {"note": 77, "velocity": 75, "duration": 239}, {"note": 77, "velocity": 104, "duration": 480}, {"note": 75, "velocity": 63, "duration": 268}, {"note": 72, "velocity": 67, "duration": 240}, {"note": 75, "velocity": 98, "duration": 480}, {"note": 70, "velocity": 79, "duration": 1199}, {"note": 70, "velocity": 72, "duration": 240}, {"note": 72, "velocity": 90, "duration": 479}, {"note": 72, "velocity": 77, "duration": 240}, {"note": 75, "velocity": 86, "duration": 240}, {"note": 70, "velocity": 72, "duration": 239}, {"note": 70, "velocity": 75, "duration": 239}, {"note": 70, "velocity": 98, "duration": 240}, {"note": 72, "velocity": 67, "duration": 240}, {"note": 68, "velocity": 61, "duration": 480}, {"note": 65, "velocity": 76, "duration": 3120}, {"note": 65, "velocity": 83, "duration": 3120}, {"note": 72, "velocity": 72, "duration": 240}, {"note": 77, "velocity": 85, "duration": 239}, {"note": 77, "velocity": 98, "duration": 239}, {"note": 77, "velocity": 93, "duration": 240}, {"note": 80, "velocity": 100, "duration": 239}, {"note": 80, "velocity": 120, "duration": 480}, {"note": 75, "velocity": 95, "duration": 240}, {"note": 77, "velocity": 104, "duration": 479}, {"note": 77, "velocity": 93, "duration": 1440}, {"note": 72, "velocity": 86, "duration": 240}, {"note": 77, "velocity": 104, "duration": 239}, {"note": 77, "velocity": 98, "duration": 239}, {"note": 77, "velocity": 90, "duration": 240}, {"note": 80, "velocity": 111, "duration": 240}, {"note": 77, "velocity": 104, "duration": 240}, {"note": 75, "velocity": 104, "duration": 239}, {"note": 75, "velocity": 104, "duration": 240}, {"note": 72, "velocity": 85, "duration": 239}, {"note": 72, "velocity": 111, "duration": 480}, {"note": 70, "velocity": 75, "duration": 1440}, {"note": 72, "velocity": 108, "duration": 240}, {"note": 75, "velocity": 104, "duration": 239}, {"note": 75, "velocity": 108, "duration": 240}, {"note": 77, "velocity": 100, "duration": 240}, {"note": 72, "velocity": 100, "duration": 480}, {"note": 70, "velocity": 104, "duration": 240}, {"note": 72, "velocity": 98, "duration": 240}, {"note": 68, "velocity": 85, "duration": 480}, {"note": 72, "velocity": 111, "duration": 1439}, {"note": 72, "velocity": 90, "duration": 239}, {"note": 72, "velocity": 77, "duration": 239}, {"note": 72, "velocity": 79, "duration": 240}, {"note": 75, "velocity": 112, "duration": 240}, {"note": 70, "velocity": 93, "duration": 239}, {"note": 70, "velocity": 79, "duration": 480}, {"note": 72, "velocity": 79, "duration": 240}, {"note": 68, "velocity": 85, "duration": 480}, {"note": 65, "velocity": 90, "duration": 1200}, {"note": 72, "velocity": 72, "duration": 240}, {"note": 77, "velocity": 85, "duration": 239}, {"note": 77, "velocity": 98, "duration": 239}, {"note": 77, "velocity": 93, "duration": 240}, {"note": 80, "velocity": 100, "duration": 239}, {"note": 80, "velocity": 120, "duration": 480}, {"note": 75, "velocity": 95, "duration": 240}, {"note": 77, "velocity": 104, "duration": 479}, {"note": 77, "velocity": 93, "duration": 1440}, {"note": 72, "velocity": 86, "duration": 240}, {"note": 77, "velocity": 104, "duration": 239}, {"note": 77, "velocity": 98, "duration": 239}, {"note": 77, "velocity": 90, "duration": 240}, {"note": 80, "velocity": 111, "duration": 239}, {"note": 80, "velocity": 104, "duration": 240}, {"note": 77, "velocity": 104, "duration": 239}, {"note": 77, "velocity": 104, "duration": 240}, {"note": 75, "velocity": 77, "duration": 239}, {"note": 75, "velocity": 108, "duration": 480}, {"note": 72, "velocity": 98, "duration": 1439}, {"note": 72, "velocity": 108, "duration": 240}, {"note": 75, "velocity": 104, "duration": 239}, {"note": 75, "velocity": 108, "duration": 240}, {"note": 77, "velocity": 100, "duration": 354}, {"note": 75, "velocity": 100, "duration": 366}, {"note": 72, "velocity": 93, "duration": 249}, {"note": 68, "velocity": 71, "duration": 240}, {"note": 70, "velocity": 104, "duration": 479}, {"note": 70, "velocity": 112, "duration": 1440}, {"note": 72, "velocity": 112, "duration": 239}, {"note": 72, "velocity": 112, "duration": 480}, {"note": 75, "velocity": 112, "duration": 240}, {"note": 70, "velocity": 93, "duration": 239}, {"note": 70, "velocity": 79, "duration": 480}, {"note": 72, "velocity": 79, "duration": 240}, {"note": 68, "velocity": 85, "duration": 480}, {"note": 65, "velocity": 90, "duration": 1275}, {"note": 0, "velocity": 0, "duration": 24885}, {"note": 60, "velocity": 61, "duration": 272}, {"note": 65, "velocity": 68, "duration": 239}, {"note": 65, "velocity": 74, "duration": 239}, {"note": 65, "velocity": 65, "duration": 240}, {"note": 68, "velocity": 73, "duration": 240}, {"note": 65, "velocity": 85, "duration": 479}, {"note": 65, "velocity": 79, "duration": 240}, {"note": 63, "velocity": 72, "duration": 240}, {"note": 65, "velocity": 77, "duration": 479}, {"note": 65, "velocity": 93, "duration": 1199}, {"note": 65, "velocity": 64, "duration": 264}, {"note": 70, "velocity": 81, "duration": 239}, {"note": 70, "velocity": 76, "duration": 239}, {"note": 70, "velocity": 76, "duration": 240}, {"note": 72, "velocity": 87, "duration": 240}, {"note": 70, "velocity": 98, "duration": 480}, {"note": 68, "velocity": 74, "duration": 240}, {"note": 70, "velocity": 76, "duration": 240}, {"note": 72, "velocity": 77, "duration": 479}, {"note": 72, "velocity": 90, "duration": 1199}, {"note": 72, "velocity": 71, "duration": 240}, {"note": 77, "velocity": 76, "duration": 239}, {"note": 77, "velocity": 76, "duration": 239}, {"note": 77, "velocity": 85, "duration": 240}, {"note": 80, "velocity": 75, "duration": 240}, {"note": 77, "velocity": 104, "duration": 480}, {"note": 75, "velocity": 63, "duration": 268}, {"note": 72, "velocity": 67, "duration": 240}, {"note": 75, "velocity": 98, "duration": 480}, {"note": 70, "velocity": 79, "duration": 1199}, {"note": 70, "velocity": 72, "duration": 240}, {"note": 72, "velocity": 90, "duration": 479}, {"note": 72, "velocity": 77, "duration": 240}, {"note": 75, "velocity": 86, "duration": 240}, {"note": 70, "velocity": 72, "duration": 239}, {"note": 70, "velocity": 75, "duration": 480}, {"note": 72, "velocity": 67, "duration": 240}, {"note": 68, "velocity": 61, "duration": 480}, {"note": 65, "velocity": 76, "duration": 1200}, {"note": 65, "velocity": 83, "duration": 1200}, {"note": 60, "velocity": 61, "duration": 272}, {"note": 65, "velocity": 68, "duration": 239}, {"note": 65, "velocity": 74, "duration": 239}, {"note": 65, "velocity": 65, "duration": 240}, {"note": 68, "velocity": 73, "duration": 240}, {"note": 65, "velocity": 85, "duration": 479}, {"note": 65, "velocity": 79, "duration": 240}, {"note": 63, "velocity": 72, "duration": 240}, {"note": 65, "velocity": 77, "duration": 479}, {"note": 65, "velocity": 93, "duration": 1199}, {"note": 65, "velocity": 64, "duration": 264}, {"note": 70, "velocity": 81, "duration": 239}, {"note": 70, "velocity": 76, "duration": 239}, {"note": 70, "velocity": 76, "duration": 240}, {"note": 72, "velocity": 87, "duration": 240}, {"note": 70, "velocity": 98, "duration": 480}, {"note": 68, "velocity": 74, "duration": 240}, {"note": 70, "velocity": 76, "duration": 240}, {"note": 72, "velocity": 77, "duration": 479}, {"note": 72, "velocity": 90, "duration": 1199}, {"note": 72, "velocity": 71, "duration": 240}, {"note": 77, "velocity": 76, "duration": 239}, {"note": 77, "velocity": 76, "duration": 239}, {"note": 77, "velocity": 85, "duration": 239}, {"note": 77, "velocity": 75, "duration": 239}, {"note": 77, "velocity": 104, "duration": 480}, {"note": 75, "velocity": 63, "duration": 268}, {"note": 72, "velocity": 67, "duration": 240}, {"note": 75, "velocity": 98, "duration": 480}, {"note": 70, "velocity": 79, "duration": 1199}, {"note": 70, "velocity": 72, "duration": 240}, {"note": 72, "velocity": 90, "duration": 479}, {"note": 72, "velocity": 77, "duration": 240}, {"note": 75, "velocity": 86, "duration": 240}, {"note": 70, "velocity": 72, "duration": 239}, {"note": 70, "velocity": 75, "duration": 239}, {"note": 70, "velocity": 98, "duration": 240}, {"note": 72, "velocity": 67, "duration": 240}, {"note": 68, "velocity": 61, "duration": 480}, {"note": 65, "velocity": 76, "duration": 3120}, {"note": 65, "velocity": 83, "duration": 3120}, {"note": 72, "velocity": 72, "duration": 240}, {"note": 77, "velocity": 85, "duration": 239}, {"note": 77, "velocity": 98, "duration": 239}, {"note": 77, "velocity": 93, "duration": 240}, {"note": 80, "velocity": 100, "duration": 239}, {"note": 80, "velocity": 120, "duration": 480}, {"note": 75, "velocity": 95, "duration": 240}, {"note": 77, "velocity": 104, "duration": 479}, {"note": 77, "velocity": 93, "duration": 1440}, {"note": 72, "velocity": 86, "duration": 240}, {"note": 77, "velocity": 104, "duration": 239}, {"note": 77, "velocity": 98, "duration": 239}, {"note": 77, "velocity": 90, "duration": 240}, {"note": 80, "velocity": 111, "duration": 240}, {"note": 77, "velocity": 104, "duration": 240}, {"note": 75, "velocity": 104, "duration": 239}, {"note": 75, "velocity": 104, "duration": 240}, {"note": 72, "velocity": 85, "duration": 239}, {"note": 72, "velocity": 111, "duration": 480}, {"note": 70, "velocity": 75, "duration": 1440}, {"note": 72, "velocity": 108, "duration": 240}, {"note": 75, "velocity": 104, "duration": 239}, {"note": 75, "velocity": 108, "duration": 240}, {"note": 77, "velocity": 100, "duration": 240}, {"note": 72, "velocity": 100, "duration": 480}, {"note": 70, "velocity": 104, "duration": 240}, {"note": 72, "velocity": 98, "duration": 240}, {"note": 68, "velocity": 85, "duration": 480}, {"note": 72, "velocity": 111, "duration": 1439}, {"note": 72, "velocity": 90, "duration": 239}, {"note": 72, "velocity": 77, "duration": 239}, {"note": 72, "velocity": 79, "duration": 240}, {"note": 75, "velocity": 112, "duration": 240}, {"note": 70, "velocity": 93, "duration": 239}, {"note": 70, "velocity": 79, "duration": 480}, {"note": 72, "velocity": 79, "duration": 240}, {"note": 68, "velocity": 85, "duration": 480}, {"note": 65, "velocity": 90, "duration": 1200}, {"note": 72, "velocity": 72, "duration": 240}, {"note": 77, "velocity": 85, "duration": 239}, {"note": 77, "velocity": 98, "duration": 239}, {"note": 77, "velocity": 93, "duration": 240}, {"note": 80, "velocity": 100, "duration": 239}, {"note": 80, "velocity": 120, "duration": 480}, {"note": 75, "velocity": 95, "duration": 240}, {"note": 77, "velocity": 104, "duration": 479}, {"note": 77, "velocity": 93, "duration": 1440}, {"note": 72, "velocity": 86, "duration": 240}, {"note": 77, "velocity": 104, "duration": 239}, {"note": 77, "velocity": 98, "duration": 239}, {"note": 77, "velocity": 90, "duration": 240}, {"note": 80, "velocity": 111, "duration": 239}, {"note": 80, "velocity": 104, "duration": 240}, {"note": 77, "velocity": 104, "duration": 239}, {"note": 77, "velocity": 104, "duration": 240}, {"note": 75, "velocity": 77, "duration": 239}, {"note": 75, "velocity": 108, "duration": 480}, {"note": 72, "velocity": 98, "duration": 1439}, {"note": 72, "velocity": 108, "duration": 240}, {"note": 75, "velocity": 104, "duration": 239}, {"note": 75, "velocity": 108, "duration": 240}, {"note": 77, "velocity": 100, "duration": 354}, {"note": 75, "velocity": 100, "duration": 366}, {"note": 72, "velocity": 93, "duration": 249}, {"note": 68, "velocity": 71, "duration": 240}, {"note": 70, "velocity": 104, "duration": 479}, {"note": 70, "velocity": 112, "duration": 1440}, {"note": 72, "velocity": 112, "duration": 239}, {"note": 72, "velocity": 112, "duration": 480}, {"note": 75, "velocity": 112, "duration": 240}, {"note": 70, "velocity": 93, "duration": 239}, {"note": 70, "velocity": 79, "duration": 480}, {"note": 72, "velocity": 79, "duration": 240}, {"note": 68, "velocity": 85, "duration": 480}, {"note": 65, "velocity": 90, "duration": 1200}, {"note": 72, "velocity": 72, "duration": 240}, {"note": 77, "velocity": 85, "duration": 239}, {"note": 77, "velocity": 98, "duration": 239}, {"note": 77, "velocity": 93, "duration": 240}, {"note": 80, "velocity": 100, "duration": 239}, {"note": 80, "velocity": 120, "duration": 480}, {"note": 75, "velocity": 95, "duration": 240}, {"note": 77, "velocity": 104, "duration": 479}, {"note": 77, "velocity": 93, "duration": 1440}, {"note": 72, "velocity": 86, "duration": 240}, {"note": 77, "velocity": 104, "duration": 239}, {"note": 77, "velocity": 98, "duration": 239}, {"note": 77, "velocity": 90, "duration": 240}, {"note": 80, "velocity": 111, "duration": 240}, {"note": 77, "velocity": 104, "duration": 240}, {"note": 75, "velocity": 104, "duration": 239}, {"note": 75, "velocity": 104, "duration": 240}, {"note": 72, "velocity": 85, "duration": 239}, {"note": 72, "velocity": 111, "duration": 480}, {"note": 70, "velocity": 75, "duration": 1440}, {"note": 72, "velocity": 108, "duration": 240}, {"note": 75, "velocity": 104, "duration": 239}, {"note": 75, "velocity": 108, "duration": 240}, {"note": 77, "velocity": 100, "duration": 240}, {"note": 72, "velocity": 100, "duration": 480}, {"note": 70, "velocity": 104, "duration": 240}, {"note": 72, "velocity": 98, "duration": 240}, {"note": 68, "velocity": 85, "duration": 480}, {"note": 72, "velocity": 111, "duration": 1439}, {"note": 72, "velocity": 90, "duration": 239}, {"note": 72, "velocity": 77, "duration": 239}, {"note": 72, "velocity": 79, "duration": 240}, {"note": 75, "velocity": 112, "duration": 240}, {"note": 70, "velocity": 93, "duration": 239}, {"note": 70, "velocity": 79, "duration": 480}, {"note": 72, "velocity": 79, "duration": 240}, {"note": 68, "velocity": 85, "duration": 480}, {"note": 65, "velocity": 90, "duration": 1200}, {"note": 72, "velocity": 72, "duration": 240}, {"note": 77, "velocity": 85, "duration": 239}, {"note": 77, "velocity": 98, "duration": 239}, {"note": 77, "velocity": 93, "duration": 240}, {"note": 80, "velocity": 100, "duration": 239}, {"note": 80, "velocity": 120, "duration": 480}, {"note": 75, "velocity": 95, "duration": 240}, {"note": 77, "velocity": 104, "duration": 479}, {"note": 77, "velocity": 93, "duration": 1440}, {"note": 72, "velocity": 86, "duration": 240}, {"note": 77, "velocity": 104, "duration": 239}, {"note": 77, "velocity": 98, "duration": 239}, {"note": 77, "velocity": 90, "duration": 240}, {"note": 80, "velocity": 111, "duration": 239}, {"note": 80, "velocity": 104, "duration": 240}, {"note": 77, "velocity": 104, "duration": 239}, {"note": 77, "velocity": 104, "duration": 240}, {"note": 75, "velocity": 77, "duration": 239}, {"note": 75, "velocity": 108, "duration": 480}, {"note": 72, "velocity": 98, "duration": 1439}, {"note": 72, "velocity": 108, "duration": 240}, {"note": 75, "velocity": 104, "duration": 239}, {"note": 75, "velocity": 108, "duration": 240}, {"note": 77, "velocity": 100, "duration": 354}, {"note": 75, "velocity": 100, "duration": 366}, {"note": 72, "velocity": 93, "duration": 249}, {"note": 68, "velocity": 71, "duration": 240}, {"note": 70, "velocity": 104, "duration": 479}, {"note": 70, "velocity": 112, "duration": 1440}, {"note": 72, "velocity": 112, "duration": 239}, {"note": 72, "velocity": 112, "duration": 480}, {"note": 75, "velocity": 112, "duration": 240}, {"note": 70, "velocity": 93, "duration": 239}, {"note": 70, "velocity": 79, "duration": 480}, {"note": 72, "velocity": 79, "duration": 240}, {"note": 68, "velocity": 85, "duration": 480}, {"note": 65, "velocity": 90, "duration": 1275}]]