[[{"note": 87, "velocity": 85, "duration": 2624}, {"note": 0, "velocity": 0, "duration": 256}, {"note": 85, "velocity": 87, "duration": 244}, {"note": 87, "velocity": 98, "duration": 283}, {"note": 85, "velocity": 83, "duration": 251}, {"note": 80, "velocity": 72, "duration": 260}, {"note": 87, "velocity": 93, "duration": 1943}, {"note": 0, "velocity": 0, "duration": 937}, {"note": 85, "velocity": 83, "duration": 245}, {"note": 87, "velocity": 74, "duration": 225}, {"note": 80, "velocity": 68, "duration": 504}, {"note": 85, "velocity": 98, "duration": 2714}, {"note": 0, "velocity": 0, "duration": 166}, {"note": 83, "velocity": 73, "duration": 227}, {"note": 85, "velocity": 83, "duration": 242}, {"note": 83, "velocity": 79, "duration": 463}, {"note": 80, "velocity": 81, "duration": 2940}, {"note": 0, "velocity": 0, "duration": 16260}, {"note": 80, "velocity": 87, "duration": 112}, {"note": 0, "velocity": 0, "duration": 128}, {"note": 80, "velocity": 73, "duration": 96}, {"note": 0, "velocity": 0, "duration": 144}, {"note": 80, "velocity": 81, "duration": 93}, {"note": 0, "velocity": 0, "duration": 147}, {"note": 80, "velocity": 85, "duration": 97}, {"note": 0, "velocity": 0, "duration": 143}, {"note": 80, "velocity": 86, "duration": 276}, {"note": 0, "velocity": 0, "duration": 204}, {"note": 75, "velocity": 67, "duration": 99}, {"note": 0, "velocity": 0, "duration": 141}, {"note": 75, "velocity": 74, "duration": 147}, {"note": 0, "velocity": 0, "duration": 93}, {"note": 78, "velocity": 72, "duration": 267}, {"note": 80, "velocity": 68, "duration": 169}, {"note": 0, "velocity": 0, "duration": 71}, {"note": 82, "velocity": 90, "duration": 295}, {"note": 0, "velocity": 0, "duration": 185}, {"note": 80, "velocity": 87, "duration": 712}, {"note": 0, "velocity": 0, "duration": 248}, {"note": 80, "velocity": 74, "duration": 93}, {"note": 0, "velocity": 0, "duration": 147}, {"note": 80, "velocity": 68, "duration": 90}, {"note": 0, "velocity": 0, "duration": 150}, {"note": 80, "velocity": 72, "duration": 123}, {"note": 82, "velocity": 93, "duration": 147}, {"note": 0, "velocity": 0, "duration": 213}, {"note": 80, "velocity": 76, "duration": 287}, {"note": 0, "velocity": 0, "duration": 193}, {"note": 78, "velocity": 79, "duration": 200}, {"note": 80, "velocity": 66, "duration": 253}, {"note": 75, "velocity": 83, "duration": 1773}, {"note": 0, "velocity": 0, "duration": 147}, {"note": 73, "velocity": 74, "duration": 96}, {"note": 0, "velocity": 0, "duration": 144}, {"note": 73, "velocity": 79, "duration": 91}, {"note": 0, "velocity": 0, "duration": 149}, {"note": 73, "velocity": 79, "duration": 85}, {"note": 0, "velocity": 0, "duration": 155}, {"note": 73, "velocity": 74, "duration": 96}, {"note": 0, "velocity": 0, "duration": 144}, {"note": 73, "velocity": 93, "duration": 234}, {"note": 0, "velocity": 0, "duration": 246}, {"note": 71, "velocity": 74, "duration": 246}, {"note": 68, "velocity": 60, "duration": 245}, {"note": 71, "velocity": 73, "duration": 270}, {"note": 73, "velocity": 85, "duration": 139}, {"note": 0, "velocity": 0, "duration": 101}, {"note": 75, "velocity": 74, "duration": 286}, {"note": 0, "velocity": 0, "duration": 194}, {"note": 73, "velocity": 79, "duration": 742}, {"note": 0, "velocity": 0, "duration": 218}, {"note": 73, "velocity": 72, "duration": 88}, {"note": 0, "velocity": 0, "duration": 152}, {"note": 73, "velocity": 72, "duration": 73}, {"note": 0, "velocity": 0, "duration": 167}, {"note": 73, "velocity": 67, "duration": 97}, {"note": 0, "velocity": 0, "duration": 143}, {"note": 75, "velocity": 64, "duration": 115}, {"note": 0, "velocity": 0, "duration": 125}, {"note": 73, "velocity": 69, "duration": 204}, {"note": 71, "velocity": 60, "duration": 138}, {"note": 0, "velocity": 0, "duration": 102}, {"note": 68, "velocity": 54, "duration": 168}, {"note": 0, "velocity": 0, "duration": 72}, {"note": 71, "velocity": 68, "duration": 225}, {"note": 68, "velocity": 63, "duration": 1919}, {"note": 80, "velocity": 87, "duration": 112}, {"note": 0, "velocity": 0, "duration": 128}, {"note": 80, "velocity": 73, "duration": 96}, {"note": 0, "velocity": 0, "duration": 144}, {"note": 80, "velocity": 81, "duration": 93}, {"note": 0, "velocity": 0, "duration": 147}, {"note": 80, "velocity": 85, "duration": 97}, {"note": 0, "velocity": 0, "duration": 143}, {"note": 80, "velocity": 86, "duration": 276}, {"note": 0, "velocity": 0, "duration": 204}, {"note": 75, "velocity": 67, "duration": 99}, {"note": 0, "velocity": 0, "duration": 141}, {"note": 75, "velocity": 74, "duration": 147}, {"note": 0, "velocity": 0, "duration": 93}, {"note": 78, "velocity": 72, "duration": 267}, {"note": 80, "velocity": 68, "duration": 169}, {"note": 0, "velocity": 0, "duration": 71}, {"note": 82, "velocity": 90, "duration": 295}, {"note": 0, "velocity": 0, "duration": 185}, {"note": 80, "velocity": 87, "duration": 712}, {"note": 0, "velocity": 0, "duration": 248}, {"note": 80, "velocity": 74, "duration": 93}, {"note": 0, "velocity": 0, "duration": 147}, {"note": 80, "velocity": 68, "duration": 90}, {"note": 0, "velocity": 0, "duration": 150}, {"note": 80, "velocity": 72, "duration": 123}, {"note": 82, "velocity": 93, "duration": 147}, {"note": 0, "velocity": 0, "duration": 213}, {"note": 80, "velocity": 76, "duration": 287}, {"note": 0, "velocity": 0, "duration": 193}, {"note": 78, "velocity": 79, "duration": 200}, {"note": 80, "velocity": 66, "duration": 253}, {"note": 75, "velocity": 83, "duration": 1773}, {"note": 0, "velocity": 0, "duration": 147}, {"note": 73, "velocity": 74, "duration": 96}, {"note": 0, "velocity": 0, "duration": 144}, {"note": 73, "velocity": 79, "duration": 91}, {"note": 0, "velocity": 0, "duration": 389}, {"note": 73, "velocity": 74, "duration": 96}, {"note": 0, "velocity": 0, "duration": 144}, {"note": 73, "velocity": 93, "duration": 234}, {"note": 0, "velocity": 0, "duration": 246}, {"note": 71, "velocity": 74, "duration": 246}, {"note": 68, "velocity": 60, "duration": 245}, {"note": 71, "velocity": 73, "duration": 270}, {"note": 73, "velocity": 85, "duration": 139}, {"note": 0, "velocity": 0, "duration": 101}, {"note": 75, "velocity": 74, "duration": 286}, {"note": 0, "velocity": 0, "duration": 194}, {"note": 73, "velocity": 79, "duration": 742}, {"note": 0, "velocity": 0, "duration": 218}, {"note": 73, "velocity": 72, "duration": 88}, {"note": 0, "velocity": 0, "duration": 152}, {"note": 73, "velocity": 72, "duration": 73}, {"note": 0, "velocity": 0, "duration": 167}, {"note": 73, "velocity": 67, "duration": 97}, {"note": 0, "velocity": 0, "duration": 143}, {"note": 75, "velocity": 64, "duration": 115}, {"note": 0, "velocity": 0, "duration": 125}, {"note": 73, "velocity": 69, "duration": 204}, {"note": 71, "velocity": 60, "duration": 138}, {"note": 0, "velocity": 0, "duration": 102}, {"note": 68, "velocity": 54, "duration": 168}, {"note": 0, "velocity": 0, "duration": 72}, {"note": 71, "velocity": 68, "duration": 225}, {"note": 68, "velocity": 63, "duration": 1919}, {"note": 0, "velocity": 0, "duration": 1921}, {"note": 80, "velocity": 68, "duration": 100}, {"note": 0, "velocity": 0, "duration": 140}, {"note": 80, "velocity": 74, "duration": 88}, {"note": 0, "velocity": 0, "duration": 152}, {"note": 80, "velocity": 76, "duration": 130}, {"note": 0, "velocity": 0, "duration": 110}, {"note": 83, "velocity": 93, "duration": 89}, {"note": 0, "velocity": 0, "duration": 151}, {"note": 83, "velocity": 93, "duration": 315}, {"note": 0, "velocity": 0, "duration": 165}, {"note": 80, "velocity": 81, "duration": 90}, {"note": 0, "velocity": 0, "duration": 150}, {"note": 80, "velocity": 77, "duration": 178}, {"note": 0, "velocity": 0, "duration": 62}, {"note": 83, "velocity": 87, "duration": 104}, {"note": 0, "velocity": 0, "duration": 136}, {"note": 85, "velocity": 87, "duration": 86}, {"note": 0, "velocity": 0, "duration": 154}, {"note": 87, "velocity": 111, "duration": 342}, {"note": 0, "velocity": 0, "duration": 138}, {"note": 85, "velocity": 117, "duration": 729}, {"note": 0, "velocity": 0, "duration": 231}, {"note": 85, "velocity": 111, "duration": 95}, {"note": 0, "velocity": 0, "duration": 145}, {"note": 85, "velocity": 90, "duration": 91}, {"note": 0, "velocity": 0, "duration": 149}, {"note": 85, "velocity": 111, "duration": 95}, {"note": 0, "velocity": 0, "duration": 145}, {"note": 87, "velocity": 98, "duration": 105}, {"note": 0, "velocity": 0, "duration": 135}, {"note": 85, "velocity": 95, "duration": 330}, {"note": 83, "velocity": 77, "duration": 169}, {"note": 0, "velocity": 0, "duration": 71}, {"note": 80, "velocity": 70, "duration": 89}, {"note": 0, "velocity": 0, "duration": 151}, {"note": 83, "velocity": 95, "duration": 92}, {"note": 0, "velocity": 0, "duration": 148}, {"note": 80, "velocity": 86, "duration": 1741}, {"note": 75, "velocity": 76, "duration": 137}, {"note": 0, "velocity": 0, "duration": 103}, {"note": 73, "velocity": 85, "duration": 664}, {"note": 75, "velocity": 68, "duration": 87}, {"note": 0, "velocity": 0, "duration": 153}, {"note": 78, "velocity": 93, "duration": 288}, {"note": 0, "velocity": 0, "duration": 72}, {"note": 75, "velocity": 83, "duration": 598}, {"note": 78, "velocity": 86, "duration": 263}, {"note": 80, "velocity": 63, "duration": 127}, {"note": 0, "velocity": 0, "duration": 113}, {"note": 83, "velocity": 72, "duration": 95}, {"note": 0, "velocity": 0, "duration": 145}, {"note": 85, "velocity": 83, "duration": 98}, {"note": 83, "velocity": 79, "duration": 117}, {"note": 80, "velocity": 77, "duration": 826}, {"note": 0, "velocity": 0, "duration": 134}, {"note": 85, "velocity": 85, "duration": 100}, {"note": 0, "velocity": 0, "duration": 140}, {"note": 85, "velocity": 104, "duration": 81}, {"note": 0, "velocity": 0, "duration": 159}, {"note": 85, "velocity": 112, "duration": 94}, {"note": 0, "velocity": 0, "duration": 146}, {"note": 85, "velocity": 104, "duration": 87}, {"note": 0, "velocity": 0, "duration": 153}, {"note": 85, "velocity": 117, "duration": 99}, {"note": 0, "velocity": 0, "duration": 141}, {"note": 83, "velocity": 90, "duration": 86}, {"note": 0, "velocity": 0, "duration": 154}, {"note": 83, "velocity": 85, "duration": 101}, {"note": 0, "velocity": 0, "duration": 139}, {"note": 85, "velocity": 104, "duration": 90}, {"note": 0, "velocity": 0, "duration": 150}, {"note": 87, "velocity": 112, "duration": 625}, {"note": 0, "velocity": 0, "duration": 1295}, {"note": 80, "velocity": 68, "duration": 100}, {"note": 0, "velocity": 0, "duration": 140}, {"note": 80, "velocity": 74, "duration": 88}, {"note": 0, "velocity": 0, "duration": 152}, {"note": 80, "velocity": 76, "duration": 130}, {"note": 0, "velocity": 0, "duration": 110}, {"note": 83, "velocity": 93, "duration": 89}, {"note": 0, "velocity": 0, "duration": 151}, {"note": 83, "velocity": 93, "duration": 315}, {"note": 0, "velocity": 0, "duration": 165}, {"note": 80, "velocity": 81, "duration": 90}, {"note": 0, "velocity": 0, "duration": 150}, {"note": 80, "velocity": 77, "duration": 178}, {"note": 0, "velocity": 0, "duration": 62}, {"note": 83, "velocity": 87, "duration": 104}, {"note": 0, "velocity": 0, "duration": 136}, {"note": 85, "velocity": 87, "duration": 86}, {"note": 0, "velocity": 0, "duration": 154}, {"note": 87, "velocity": 111, "duration": 342}, {"note": 0, "velocity": 0, "duration": 138}, {"note": 85, "velocity": 117, "duration": 729}, {"note": 0, "velocity": 0, "duration": 231}, {"note": 85, "velocity": 111, "duration": 95}, {"note": 0, "velocity": 0, "duration": 145}, {"note": 85, "velocity": 90, "duration": 91}, {"note": 0, "velocity": 0, "duration": 149}, {"note": 85, "velocity": 111, "duration": 95}, {"note": 0, "velocity": 0, "duration": 145}, {"note": 87, "velocity": 98, "duration": 105}, {"note": 0, "velocity": 0, "duration": 135}, {"note": 85, "velocity": 95, "duration": 330}, {"note": 83, "velocity": 77, "duration": 169}, {"note": 0, "velocity": 0, "duration": 71}, {"note": 80, "velocity": 70, "duration": 89}, {"note": 0, "velocity": 0, "duration": 151}, {"note": 83, "velocity": 95, "duration": 92}, {"note": 0, "velocity": 0, "duration": 148}, {"note": 80, "velocity": 86, "duration": 1741}, {"note": 75, "velocity": 76, "duration": 137}, {"note": 0, "velocity": 0, "duration": 103}, {"note": 73, "velocity": 85, "duration": 664}, {"note": 75, "velocity": 68, "duration": 87}, {"note": 0, "velocity": 0, "duration": 153}, {"note": 78, "velocity": 93, "duration": 288}, {"note": 0, "velocity": 0, "duration": 72}, {"note": 75, "velocity": 83, "duration": 598}, {"note": 78, "velocity": 86, "duration": 263}, {"note": 80, "velocity": 63, "duration": 127}, {"note": 0, "velocity": 0, "duration": 113}, {"note": 83, "velocity": 72, "duration": 95}, {"note": 0, "velocity": 0, "duration": 145}, {"note": 85, "velocity": 83, "duration": 98}, {"note": 83, "velocity": 79, "duration": 117}, {"note": 80, "velocity": 77, "duration": 826}, {"note": 0, "velocity": 0, "duration": 134}, {"note": 78, "velocity": 90, "duration": 102}, {"note": 0, "velocity": 0, "duration": 138}, {"note": 78, "velocity": 83, "duration": 92}, {"note": 0, "velocity": 0, "duration": 148}, {"note": 78, "velocity": 98, "duration": 191}, {"note": 75, "velocity": 69, "duration": 294}, {"note": 78, "velocity": 70, "duration": 256}, {"note": 80, "velocity": 75, "duration": 104}, {"note": 0, "velocity": 0, "duration": 136}, {"note": 83, "velocity": 86, "duration": 129}, {"note": 0, "velocity": 0, "duration": 111}, {"note": 82, "velocity": 83, "duration": 121}, {"note": 0, "velocity": 0, "duration": 119}, {"note": 80, "velocity": 85, "duration": 1440}, {"note": 83, "velocity": 93, "duration": 182}, {"note": 85, "velocity": 87, "duration": 89}, {"note": 0, "velocity": 0, "duration": 151}, {"note": 87, "velocity": 112, "duration": 2689}, {"note": 0, "velocity": 0, "duration": 191}, {"note": 85, "velocity": 87, "duration": 298}, {"note": 87, "velocity": 74, "duration": 249}, {"note": 90, "velocity": 90, "duration": 262}, {"note": 92, "velocity": 100, "duration": 252}, {"note": 87, "velocity": 85, "duration": 2651}, {"note": 0, "velocity": 0, "duration": 229}, {"note": 80, "velocity": 81, "duration": 524}, {"note": 83, "velocity": 74, "duration": 141}, {"note": 0, "velocity": 0, "duration": 99}, {"note": 87, "velocity": 104, "duration": 91}, {"note": 0, "velocity": 0, "duration": 149}, {"note": 85, "velocity": 111, "duration": 2825}, {"note": 85, "velocity": 83, "duration": 232}, {"note": 87, "velocity": 83, "duration": 252}, {"note": 85, "velocity": 77, "duration": 268}, {"note": 83, "velocity": 61, "duration": 272}, {"note": 80, "velocity": 75, "duration": 3662}, {"note": 0, "velocity": 0, "duration": 178}, {"note": 80, "velocity": 87, "duration": 112}, {"note": 0, "velocity": 0, "duration": 128}, {"note": 80, "velocity": 73, "duration": 96}, {"note": 0, "velocity": 0, "duration": 144}, {"note": 80, "velocity": 81, "duration": 93}, {"note": 0, "velocity": 0, "duration": 147}, {"note": 80, "velocity": 85, "duration": 97}, {"note": 0, "velocity": 0, "duration": 143}, {"note": 80, "velocity": 86, "duration": 276}, {"note": 0, "velocity": 0, "duration": 204}, {"note": 75, "velocity": 67, "duration": 99}, {"note": 0, "velocity": 0, "duration": 141}, {"note": 75, "velocity": 74, "duration": 147}, {"note": 0, "velocity": 0, "duration": 93}, {"note": 78, "velocity": 72, "duration": 267}, {"note": 80, "velocity": 68, "duration": 169}, {"note": 0, "velocity": 0, "duration": 71}, {"note": 82, "velocity": 90, "duration": 295}, {"note": 0, "velocity": 0, "duration": 185}, {"note": 80, "velocity": 87, "duration": 712}, {"note": 0, "velocity": 0, "duration": 248}, {"note": 80, "velocity": 74, "duration": 93}, {"note": 0, "velocity": 0, "duration": 147}, {"note": 80, "velocity": 68, "duration": 90}, {"note": 0, "velocity": 0, "duration": 150}, {"note": 80, "velocity": 72, "duration": 123}, {"note": 0, "velocity": 0, "duration": 117}, {"note": 82, "velocity": 93, "duration": 147}, {"note": 0, "velocity": 0, "duration": 93}, {"note": 80, "velocity": 76, "duration": 287}, {"note": 0, "velocity": 0, "duration": 193}, {"note": 75, "velocity": 79, "duration": 200}, {"note": 78, "velocity": 66, "duration": 253}, {"note": 75, "velocity": 83, "duration": 1773}, {"note": 0, "velocity": 0, "duration": 147}, {"note": 73, "velocity": 74, "duration": 96}, {"note": 0, "velocity": 0, "duration": 144}, {"note": 73, "velocity": 79, "duration": 91}, {"note": 0, "velocity": 0, "duration": 149}, {"note": 73, "velocity": 79, "duration": 85}, {"note": 0, "velocity": 0, "duration": 155}, {"note": 73, "velocity": 74, "duration": 96}, {"note": 0, "velocity": 0, "duration": 144}, {"note": 73, "velocity": 93, "duration": 234}, {"note": 0, "velocity": 0, "duration": 246}, {"note": 71, "velocity": 74, "duration": 246}, {"note": 68, "velocity": 60, "duration": 245}, {"note": 71, "velocity": 73, "duration": 270}, {"note": 73, "velocity": 85, "duration": 139}, {"note": 0, "velocity": 0, "duration": 101}, {"note": 75, "velocity": 74, "duration": 286}, {"note": 0, "velocity": 0, "duration": 194}, {"note": 73, "velocity": 79, "duration": 742}, {"note": 0, "velocity": 0, "duration": 218}, {"note": 73, "velocity": 72, "duration": 88}, {"note": 0, "velocity": 0, "duration": 152}, {"note": 73, "velocity": 72, "duration": 73}, {"note": 0, "velocity": 0, "duration": 167}, {"note": 73, "velocity": 67, "duration": 97}, {"note": 0, "velocity": 0, "duration": 143}, {"note": 75, "velocity": 64, "duration": 115}, {"note": 0, "velocity": 0, "duration": 125}, {"note": 73, "velocity": 69, "duration": 204}, {"note": 71, "velocity": 60, "duration": 138}, {"note": 0, "velocity": 0, "duration": 102}, {"note": 68, "velocity": 54, "duration": 168}, {"note": 0, "velocity": 0, "duration": 72}, {"note": 71, "velocity": 68, "duration": 225}, {"note": 68, "velocity": 63, "duration": 1919}, {"note": 80, "velocity": 68, "duration": 100}, {"note": 0, "velocity": 0, "duration": 140}, {"note": 80, "velocity": 74, "duration": 88}, {"note": 0, "velocity": 0, "duration": 152}, {"note": 80, "velocity": 76, "duration": 130}, {"note": 0, "velocity": 0, "duration": 110}, {"note": 83, "velocity": 93, "duration": 89}, {"note": 0, "velocity": 0, "duration": 151}, {"note": 83, "velocity": 93, "duration": 315}, {"note": 0, "velocity": 0, "duration": 165}, {"note": 80, "velocity": 81, "duration": 90}, {"note": 0, "velocity": 0, "duration": 150}, {"note": 80, "velocity": 77, "duration": 178}, {"note": 0, "velocity": 0, "duration": 62}, {"note": 83, "velocity": 87, "duration": 104}, {"note": 0, "velocity": 0, "duration": 136}, {"note": 85, "velocity": 87, "duration": 86}, {"note": 0, "velocity": 0, "duration": 154}, {"note": 87, "velocity": 111, "duration": 342}, {"note": 0, "velocity": 0, "duration": 138}, {"note": 85, "velocity": 117, "duration": 729}, {"note": 0, "velocity": 0, "duration": 231}, {"note": 85, "velocity": 111, "duration": 95}, {"note": 0, "velocity": 0, "duration": 145}, {"note": 85, "velocity": 90, "duration": 91}, {"note": 0, "velocity": 0, "duration": 149}, {"note": 85, "velocity": 111, "duration": 95}, {"note": 0, "velocity": 0, "duration": 145}, {"note": 87, "velocity": 98, "duration": 105}, {"note": 0, "velocity": 0, "duration": 135}, {"note": 85, "velocity": 95, "duration": 330}, {"note": 83, "velocity": 77, "duration": 169}, {"note": 0, "velocity": 0, "duration": 71}, {"note": 80, "velocity": 70, "duration": 89}, {"note": 0, "velocity": 0, "duration": 151}, {"note": 83, "velocity": 95, "duration": 92}, {"note": 0, "velocity": 0, "duration": 148}, {"note": 80, "velocity": 86, "duration": 1573}, {"note": 0, "velocity": 0, "duration": 107}, {"note": 75, "velocity": 76, "duration": 137}, {"note": 0, "velocity": 0, "duration": 103}, {"note": 73, "velocity": 85, "duration": 664}, {"note": 75, "velocity": 68, "duration": 87}, {"note": 0, "velocity": 0, "duration": 153}, {"note": 78, "velocity": 93, "duration": 288}, {"note": 0, "velocity": 0, "duration": 192}, {"note": 75, "velocity": 83, "duration": 478}, {"note": 78, "velocity": 86, "duration": 263}, {"note": 80, "velocity": 63, "duration": 127}, {"note": 0, "velocity": 0, "duration": 113}, {"note": 83, "velocity": 72, "duration": 95}, {"note": 0, "velocity": 0, "duration": 145}, {"note": 85, "velocity": 83, "duration": 98}, {"note": 83, "velocity": 79, "duration": 117}, {"note": 80, "velocity": 77, "duration": 826}, {"note": 0, "velocity": 0, "duration": 134}, {"note": 85, "velocity": 85, "duration": 100}, {"note": 0, "velocity": 0, "duration": 140}, {"note": 85, "velocity": 104, "duration": 81}, {"note": 0, "velocity": 0, "duration": 159}, {"note": 85, "velocity": 112, "duration": 94}, {"note": 0, "velocity": 0, "duration": 146}, {"note": 85, "velocity": 104, "duration": 87}, {"note": 0, "velocity": 0, "duration": 153}, {"note": 85, "velocity": 117, "duration": 99}, {"note": 0, "velocity": 0, "duration": 141}, {"note": 83, "velocity": 90, "duration": 86}, {"note": 0, "velocity": 0, "duration": 154}, {"note": 83, "velocity": 85, "duration": 101}, {"note": 0, "velocity": 0, "duration": 139}, {"note": 85, "velocity": 104, "duration": 90}, {"note": 0, "velocity": 0, "duration": 150}, {"note": 87, "velocity": 112, "duration": 1440}, {"note": 0, "velocity": 0, "duration": 480}, {"note": 80, "velocity": 68, "duration": 100}, {"note": 0, "velocity": 0, "duration": 140}, {"note": 80, "velocity": 74, "duration": 88}, {"note": 0, "velocity": 0, "duration": 152}, {"note": 80, "velocity": 76, "duration": 130}, {"note": 0, "velocity": 0, "duration": 110}, {"note": 83, "velocity": 93, "duration": 89}, {"note": 0, "velocity": 0, "duration": 151}, {"note": 83, "velocity": 93, "duration": 315}, {"note": 0, "velocity": 0, "duration": 165}, {"note": 80, "velocity": 81, "duration": 90}, {"note": 0, "velocity": 0, "duration": 150}, {"note": 80, "velocity": 77, "duration": 178}, {"note": 0, "velocity": 0, "duration": 62}, {"note": 83, "velocity": 87, "duration": 104}, {"note": 0, "velocity": 0, "duration": 136}, {"note": 85, "velocity": 87, "duration": 86}, {"note": 0, "velocity": 0, "duration": 154}, {"note": 87, "velocity": 111, "duration": 342}, {"note": 0, "velocity": 0, "duration": 138}, {"note": 85, "velocity": 117, "duration": 729}, {"note": 0, "velocity": 0, "duration": 231}, {"note": 85, "velocity": 111, "duration": 95}, {"note": 0, "velocity": 0, "duration": 145}, {"note": 85, "velocity": 90, "duration": 91}, {"note": 0, "velocity": 0, "duration": 149}, {"note": 85, "velocity": 111, "duration": 95}, {"note": 0, "velocity": 0, "duration": 145}, {"note": 87, "velocity": 98, "duration": 105}, {"note": 0, "velocity": 0, "duration": 135}, {"note": 85, "velocity": 95, "duration": 330}, {"note": 83, "velocity": 77, "duration": 169}, {"note": 0, "velocity": 0, "duration": 71}, {"note": 80, "velocity": 70, "duration": 89}, {"note": 0, "velocity": 0, "duration": 151}, {"note": 83, "velocity": 95, "duration": 92}, {"note": 0, "velocity": 0, "duration": 148}, {"note": 80, "velocity": 86, "duration": 1741}, {"note": 75, "velocity": 76, "duration": 137}, {"note": 0, "velocity": 0, "duration": 103}, {"note": 73, "velocity": 85, "duration": 664}, {"note": 75, "velocity": 68, "duration": 87}, {"note": 0, "velocity": 0, "duration": 153}, {"note": 78, "velocity": 93, "duration": 288}, {"note": 0, "velocity": 0, "duration": 72}, {"note": 75, "velocity": 83, "duration": 598}, {"note": 78, "velocity": 86, "duration": 263}, {"note": 80, "velocity": 63, "duration": 127}, {"note": 0, "velocity": 0, "duration": 113}, {"note": 83, "velocity": 72, "duration": 95}, {"note": 0, "velocity": 0, "duration": 145}, {"note": 85, "velocity": 83, "duration": 98}, {"note": 83, "velocity": 79, "duration": 117}, {"note": 80, "velocity": 77, "duration": 826}, {"note": 0, "velocity": 0, "duration": 134}, {"note": 78, "velocity": 90, "duration": 102}, {"note": 0, "velocity": 0, "duration": 138}, {"note": 78, "velocity": 83, "duration": 92}, {"note": 0, "velocity": 0, "duration": 148}, {"note": 78, "velocity": 98, "duration": 191}, {"note": 75, "velocity": 69, "duration": 294}, {"note": 78, "velocity": 70, "duration": 256}, {"note": 80, "velocity": 75, "duration": 104}, {"note": 0, "velocity": 0, "duration": 136}, {"note": 83, "velocity": 86, "duration": 129}, {"note": 0, "velocity": 0, "duration": 111}, {"note": 82, "velocity": 83, "duration": 121}, {"note": 0, "velocity": 0, "duration": 119}, {"note": 80, "velocity": 85, "duration": 1440}, {"note": 0, "velocity": 0, "duration": 480}, {"note": 80, "velocity": 68, "duration": 100}, {"note": 0, "velocity": 0, "duration": 140}, {"note": 80, "velocity": 74, "duration": 88}, {"note": 0, "velocity": 0, "duration": 152}, {"note": 80, "velocity": 76, "duration": 130}, {"note": 0, "velocity": 0, "duration": 110}, {"note": 83, "velocity": 93, "duration": 89}, {"note": 0, "velocity": 0, "duration": 151}, {"note": 83, "velocity": 93, "duration": 315}, {"note": 0, "velocity": 0, "duration": 165}, {"note": 80, "velocity": 81, "duration": 90}, {"note": 0, "velocity": 0, "duration": 150}, {"note": 80, "velocity": 77, "duration": 178}, {"note": 0, "velocity": 0, "duration": 62}, {"note": 83, "velocity": 87, "duration": 104}, {"note": 0, "velocity": 0, "duration": 136}, {"note": 85, "velocity": 87, "duration": 86}, {"note": 0, "velocity": 0, "duration": 154}, {"note": 87, "velocity": 111, "duration": 342}, {"note": 0, "velocity": 0, "duration": 138}, {"note": 85, "velocity": 117, "duration": 729}, {"note": 0, "velocity": 0, "duration": 231}, {"note": 85, "velocity": 111, "duration": 95}, {"note": 0, "velocity": 0, "duration": 145}, {"note": 85, "velocity": 90, "duration": 91}, {"note": 0, "velocity": 0, "duration": 149}, {"note": 85, "velocity": 111, "duration": 95}, {"note": 0, "velocity": 0, "duration": 145}, {"note": 87, "velocity": 98, "duration": 105}, {"note": 0, "velocity": 0, "duration": 135}, {"note": 85, "velocity": 95, "duration": 330}, {"note": 83, "velocity": 77, "duration": 169}, {"note": 0, "velocity": 0, "duration": 71}, {"note": 80, "velocity": 70, "duration": 89}, {"note": 0, "velocity": 0, "duration": 151}, {"note": 83, "velocity": 95, "duration": 92}, {"note": 0, "velocity": 0, "duration": 148}, {"note": 80, "velocity": 86, "duration": 1741}, {"note": 75, "velocity": 76, "duration": 137}, {"note": 0, "velocity": 0, "duration": 103}, {"note": 73, "velocity": 85, "duration": 664}, {"note": 0, "velocity": 0, "duration": 296}, {"note": 78, "velocity": 93, "duration": 288}, {"note": 0, "velocity": 0, "duration": 192}, {"note": 75, "velocity": 83, "duration": 478}, {"note": 78, "velocity": 86, "duration": 263}, {"note": 80, "velocity": 63, "duration": 127}, {"note": 0, "velocity": 0, "duration": 113}, {"note": 83, "velocity": 72, "duration": 95}, {"note": 0, "velocity": 0, "duration": 145}, {"note": 85, "velocity": 83, "duration": 98}, {"note": 83, "velocity": 79, "duration": 117}, {"note": 80, "velocity": 77, "duration": 826}, {"note": 0, "velocity": 0, "duration": 134}, {"note": 85, "velocity": 85, "duration": 100}, {"note": 0, "velocity": 0, "duration": 140}, {"note": 85, "velocity": 104, "duration": 81}, {"note": 0, "velocity": 0, "duration": 159}, {"note": 85, "velocity": 112, "duration": 94}, {"note": 0, "velocity": 0, "duration": 146}, {"note": 85, "velocity": 104, "duration": 87}, {"note": 0, "velocity": 0, "duration": 153}, {"note": 85, "velocity": 117, "duration": 99}, {"note": 0, "velocity": 0, "duration": 141}, {"note": 83, "velocity": 90, "duration": 86}, {"note": 0, "velocity": 0, "duration": 154}, {"note": 83, "velocity": 85, "duration": 101}, {"note": 0, "velocity": 0, "duration": 139}, {"note": 85, "velocity": 104, "duration": 90}, {"note": 0, "velocity": 0, "duration": 150}, {"note": 87, "velocity": 112, "duration": 625}, {"note": 0, "velocity": 0, "duration": 1295}, {"note": 80, "velocity": 68, "duration": 100}, {"note": 0, "velocity": 0, "duration": 140}, {"note": 80, "velocity": 74, "duration": 88}, {"note": 0, "velocity": 0, "duration": 152}, {"note": 80, "velocity": 76, "duration": 130}, {"note": 0, "velocity": 0, "duration": 110}, {"note": 83, "velocity": 93, "duration": 89}, {"note": 0, "velocity": 0, "duration": 151}, {"note": 83, "velocity": 93, "duration": 315}, {"note": 0, "velocity": 0, "duration": 130}, {"note": 80, "velocity": 81, "duration": 91}, {"note": 0, "velocity": 0, "duration": 149}, {"note": 80, "velocity": 77, "duration": 178}, {"note": 0, "velocity": 0, "duration": 62}, {"note": 83, "velocity": 87, "duration": 104}, {"note": 0, "velocity": 0, "duration": 136}, {"note": 85, "velocity": 87, "duration": 87}, {"note": 0, "velocity": 0, "duration": 153}, {"note": 87, "velocity": 111, "duration": 343}, {"note": 0, "velocity": 0, "duration": 137}, {"note": 85, "velocity": 117, "duration": 730}, {"note": 0, "velocity": 0, "duration": 230}, {"note": 85, "velocity": 111, "duration": 95}, {"note": 0, "velocity": 0, "duration": 145}, {"note": 85, "velocity": 90, "duration": 91}, {"note": 0, "velocity": 0, "duration": 149}, {"note": 85, "velocity": 111, "duration": 96}, {"note": 0, "velocity": 0, "duration": 144}, {"note": 87, "velocity": 98, "duration": 105}, {"note": 0, "velocity": 0, "duration": 135}, {"note": 85, "velocity": 95, "duration": 330}, {"note": 83, "velocity": 77, "duration": 169}, {"note": 0, "velocity": 0, "duration": 71}, {"note": 80, "velocity": 70, "duration": 89}, {"note": 0, "velocity": 0, "duration": 151}, {"note": 83, "velocity": 95, "duration": 92}, {"note": 0, "velocity": 0, "duration": 148}, {"note": 80, "velocity": 86, "duration": 1440}, {"note": 0, "velocity": 0, "duration": 240}, {"note": 75, "velocity": 76, "duration": 138}, {"note": 0, "velocity": 0, "duration": 102}, {"note": 73, "velocity": 85, "duration": 665}, {"note": 75, "velocity": 68, "duration": 88}, {"note": 0, "velocity": 0, "duration": 152}, {"note": 78, "velocity": 93, "duration": 289}, {"note": 0, "velocity": 0, "duration": 71}, {"note": 75, "velocity": 83, "duration": 598}, {"note": 78, "velocity": 86, "duration": 264}, {"note": 80, "velocity": 63, "duration": 127}, {"note": 0, "velocity": 0, "duration": 113}, {"note": 83, "velocity": 72, "duration": 96}, {"note": 0, "velocity": 0, "duration": 144}, {"note": 85, "velocity": 83, "duration": 99}, {"note": 83, "velocity": 79, "duration": 118}, {"note": 80, "velocity": 77, "duration": 827}, {"note": 0, "velocity": 0, "duration": 133}, {"note": 78, "velocity": 90, "duration": 102}, {"note": 0, "velocity": 0, "duration": 138}, {"note": 78, "velocity": 83, "duration": 93}, {"note": 0, "velocity": 0, "duration": 147}, {"note": 78, "velocity": 98, "duration": 191}, {"note": 75, "velocity": 69, "duration": 294}, {"note": 78, "velocity": 70, "duration": 257}, {"note": 80, "velocity": 75, "duration": 104}, {"note": 0, "velocity": 0, "duration": 136}, {"note": 83, "velocity": 86, "duration": 129}, {"note": 0, "velocity": 0, "duration": 111}, {"note": 82, "velocity": 83, "duration": 121}, {"note": 0, "velocity": 0, "duration": 119}, {"note": 80, "velocity": 85, "duration": 1440}, {"note": 0, "velocity": 0, "duration": 240}, {"note": 75, "velocity": 76, "duration": 138}, {"note": 0, "velocity": 0, "duration": 102}, {"note": 73, "velocity": 85, "duration": 665}, {"note": 75, "velocity": 68, "duration": 88}, {"note": 0, "velocity": 0, "duration": 152}, {"note": 78, "velocity": 93, "duration": 289}, {"note": 0, "velocity": 0, "duration": 71}, {"note": 75, "velocity": 83, "duration": 598}, {"note": 78, "velocity": 86, "duration": 264}, {"note": 80, "velocity": 63, "duration": 127}, {"note": 0, "velocity": 0, "duration": 113}, {"note": 83, "velocity": 72, "duration": 96}, {"note": 0, "velocity": 0, "duration": 144}, {"note": 85, "velocity": 83, "duration": 99}, {"note": 83, "velocity": 79, "duration": 118}, {"note": 80, "velocity": 77, "duration": 827}, {"note": 0, "velocity": 0, "duration": 145}, {"note": 78, "velocity": 67, "duration": 154}, {"note": 0, "velocity": 0, "duration": 174}, {"note": 78, "velocity": 67, "duration": 121}, {"note": 0, "velocity": 0, "duration": 203}, {"note": 78, "velocity": 66, "duration": 286}, {"note": 75, "velocity": 59, "duration": 410}, {"note": 78, "velocity": 67, "duration": 552}, {"note": 80, "velocity": 64, "duration": 358}, {"note": 83, "velocity": 59, "duration": 771}, {"note": 82, "velocity": 71, "duration": 803}, {"note": 80, "velocity": 64, "duration": 2598}, {"note": 85, "velocity": 36, "duration": 33}]]