[[{"note": 69, "velocity": 61, "duration": 504}, {"note": 77, "velocity": 74, "duration": 494}, {"note": 73, "velocity": 65, "duration": 480}, {"note": 76, "velocity": 71, "duration": 720}, {"note": 74, "velocity": 65, "duration": 239}, {"note": 74, "velocity": 74, "duration": 1438}, {"note": 74, "velocity": 75, "duration": 240}, {"note": 76, "velocity": 61, "duration": 241}, {"note": 77, "velocity": 69, "duration": 480}, {"note": 76, "velocity": 67, "duration": 216}, {"note": 74, "velocity": 59, "duration": 264}, {"note": 70, "velocity": 62, "duration": 2399}, {"note": 70, "velocity": 61, "duration": 480}, {"note": 79, "velocity": 85, "duration": 555}, {"note": 77, "velocity": 79, "duration": 479}, {"note": 77, "velocity": 75, "duration": 490}, {"note": 79, "velocity": 75, "duration": 240}, {"note": 76, "velocity": 65, "duration": 1439}, {"note": 76, "velocity": 64, "duration": 239}, {"note": 76, "velocity": 68, "duration": 240}, {"note": 77, "velocity": 68, "duration": 240}, {"note": 79, "velocity": 81, "duration": 480}, {"note": 77, "velocity": 63, "duration": 240}, {"note": 76, "velocity": 66, "duration": 240}, {"note": 69, "velocity": 65, "duration": 2399}, {"note": 69, "velocity": 66, "duration": 587}, {"note": 77, "velocity": 68, "duration": 480}, {"note": 73, "velocity": 63, "duration": 480}, {"note": 76, "velocity": 71, "duration": 720}, {"note": 74, "velocity": 67, "duration": 1679}, {"note": 74, "velocity": 70, "duration": 480}, {"note": 82, "velocity": 67, "duration": 480}, {"note": 78, "velocity": 74, "duration": 480}, {"note": 81, "velocity": 75, "duration": 359}, {"note": 81, "velocity": 74, "duration": 360}, {"note": 79, "velocity": 74, "duration": 238}, {"note": 79, "velocity": 76, "duration": 1440}, {"note": 79, "velocity": 83, "duration": 240}, {"note": 81, "velocity": 67, "duration": 240}, {"note": 82, "velocity": 75, "duration": 480}, {"note": 81, "velocity": 74, "duration": 240}, {"note": 79, "velocity": 73, "duration": 240}, {"note": 77, "velocity": 74, "duration": 479}, {"note": 77, "velocity": 65, "duration": 240}, {"note": 79, "velocity": 71, "duration": 240}, {"note": 81, "velocity": 81, "duration": 480}, {"note": 79, "velocity": 83, "duration": 240}, {"note": 77, "velocity": 63, "duration": 295}, {"note": 76, "velocity": 67, "duration": 479}, {"note": 76, "velocity": 67, "duration": 240}, {"note": 77, "velocity": 66, "duration": 240}, {"note": 79, "velocity": 100, "duration": 480}, {"note": 77, "velocity": 68, "duration": 240}, {"note": 76, "velocity": 65, "duration": 240}, {"note": 74, "velocity": 69, "duration": 2400}, {"note": 77, "velocity": 93, "duration": 479}, {"note": 77, "velocity": 85, "duration": 480}, {"note": 74, "velocity": 74, "duration": 480}, {"note": 77, "velocity": 90, "duration": 720}, {"note": 76, "velocity": 65, "duration": 239}, {"note": 76, "velocity": 77, "duration": 1440}, {"note": 79, "velocity": 83, "duration": 479}, {"note": 79, "velocity": 87, "duration": 480}, {"note": 76, "velocity": 70, "duration": 480}, {"note": 79, "velocity": 93, "duration": 720}, {"note": 77, "velocity": 69, "duration": 239}, {"note": 77, "velocity": 79, "duration": 1440}, {"note": 81, "velocity": 100, "duration": 239}, {"note": 81, "velocity": 87, "duration": 239}, {"note": 81, "velocity": 98, "duration": 480}, {"note": 79, "velocity": 74, "duration": 240}, {"note": 77, "velocity": 71, "duration": 240}, {"note": 81, "velocity": 108, "duration": 720}, {"note": 79, "velocity": 100, "duration": 239}, {"note": 79, "velocity": 95, "duration": 1440}, {"note": 82, "velocity": 108, "duration": 239}, {"note": 82, "velocity": 81, "duration": 239}, {"note": 82, "velocity": 93, "duration": 240}, {"note": 81, "velocity": 74, "duration": 240}, {"note": 79, "velocity": 83, "duration": 240}, {"note": 77, "velocity": 74, "duration": 720}, {"note": 81, "velocity": 95, "duration": 1679}, {"note": 81, "velocity": 74, "duration": 240}, {"note": 80, "velocity": 67, "duration": 240}, {"note": 81, "velocity": 95, "duration": 240}, {"note": 84, "velocity": 50, "duration": 239}, {"note": 84, "velocity": 108, "duration": 240}, {"note": 82, "velocity": 79, "duration": 240}, {"note": 81, "velocity": 70, "duration": 239}, {"note": 81, "velocity": 77, "duration": 199}, {"note": 81, "velocity": 52, "duration": 280}, {"note": 80, "velocity": 67, "duration": 240}, {"note": 82, "velocity": 95, "duration": 1440}, {"note": 79, "velocity": 90, "duration": 240}, {"note": 78, "velocity": 68, "duration": 232}, {"note": 79, "velocity": 95, "duration": 248}, {"note": 82, "velocity": 111, "duration": 239}, {"note": 82, "velocity": 100, "duration": 240}, {"note": 81, "velocity": 90, "duration": 216}, {"note": 79, "velocity": 86, "duration": 263}, {"note": 79, "velocity": 90, "duration": 480}, {"note": 77, "velocity": 72, "duration": 240}, {"note": 81, "velocity": 90, "duration": 1440}, {"note": 74, "velocity": 65, "duration": 276}, {"note": 76, "velocity": 67, "duration": 281}, {"note": 77, "velocity": 70, "duration": 240}, {"note": 81, "velocity": 69, "duration": 480}, {"note": 79, "velocity": 85, "duration": 240}, {"note": 77, "velocity": 74, "duration": 239}, {"note": 77, "velocity": 73, "duration": 480}, {"note": 76, "velocity": 64, "duration": 239}, {"note": 76, "velocity": 81, "duration": 1680}, {"note": 69, "velocity": 60, "duration": 239}, {"note": 69, "velocity": 58, "duration": 240}, {"note": 77, "velocity": 72, "duration": 720}, {"note": 73, "velocity": 68, "duration": 240}, {"note": 74, "velocity": 74, "duration": 2330}, {"note": 0, "velocity": 0, "duration": 15430}, {"note": 69, "velocity": 61, "duration": 504}, {"note": 77, "velocity": 74, "duration": 494}, {"note": 73, "velocity": 65, "duration": 480}, {"note": 76, "velocity": 71, "duration": 720}, {"note": 74, "velocity": 65, "duration": 239}, {"note": 74, "velocity": 74, "duration": 1439}, {"note": 74, "velocity": 75, "duration": 240}, {"note": 76, "velocity": 61, "duration": 240}, {"note": 77, "velocity": 69, "duration": 480}, {"note": 76, "velocity": 67, "duration": 224}, {"note": 74, "velocity": 59, "duration": 256}, {"note": 70, "velocity": 62, "duration": 2399}, {"note": 70, "velocity": 61, "duration": 480}, {"note": 79, "velocity": 85, "duration": 555}, {"note": 77, "velocity": 79, "duration": 479}, {"note": 77, "velocity": 75, "duration": 490}, {"note": 79, "velocity": 75, "duration": 240}, {"note": 76, "velocity": 65, "duration": 1439}, {"note": 76, "velocity": 64, "duration": 239}, {"note": 76, "velocity": 68, "duration": 240}, {"note": 77, "velocity": 68, "duration": 240}, {"note": 79, "velocity": 81, "duration": 480}, {"note": 77, "velocity": 63, "duration": 240}, {"note": 76, "velocity": 66, "duration": 240}, {"note": 69, "velocity": 65, "duration": 2399}, {"note": 69, "velocity": 66, "duration": 587}, {"note": 77, "velocity": 68, "duration": 480}, {"note": 73, "velocity": 63, "duration": 480}, {"note": 76, "velocity": 71, "duration": 720}, {"note": 74, "velocity": 67, "duration": 1679}, {"note": 74, "velocity": 70, "duration": 480}, {"note": 82, "velocity": 67, "duration": 480}, {"note": 78, "velocity": 74, "duration": 480}, {"note": 81, "velocity": 75, "duration": 359}, {"note": 81, "velocity": 74, "duration": 360}, {"note": 79, "velocity": 74, "duration": 239}, {"note": 79, "velocity": 76, "duration": 1439}, {"note": 79, "velocity": 83, "duration": 240}, {"note": 81, "velocity": 67, "duration": 240}, {"note": 82, "velocity": 75, "duration": 480}, {"note": 81, "velocity": 74, "duration": 240}, {"note": 79, "velocity": 73, "duration": 240}, {"note": 77, "velocity": 74, "duration": 479}, {"note": 77, "velocity": 65, "duration": 240}, {"note": 79, "velocity": 71, "duration": 240}, {"note": 81, "velocity": 81, "duration": 480}, {"note": 79, "velocity": 83, "duration": 240}, {"note": 77, "velocity": 63, "duration": 295}, {"note": 76, "velocity": 67, "duration": 479}, {"note": 76, "velocity": 67, "duration": 240}, {"note": 77, "velocity": 66, "duration": 240}, {"note": 79, "velocity": 100, "duration": 480}, {"note": 77, "velocity": 68, "duration": 240}, {"note": 76, "velocity": 65, "duration": 240}, {"note": 74, "velocity": 69, "duration": 2400}, {"note": 77, "velocity": 93, "duration": 479}, {"note": 77, "velocity": 85, "duration": 480}, {"note": 74, "velocity": 74, "duration": 480}, {"note": 77, "velocity": 90, "duration": 720}, {"note": 76, "velocity": 65, "duration": 239}, {"note": 76, "velocity": 77, "duration": 1440}, {"note": 79, "velocity": 83, "duration": 479}, {"note": 79, "velocity": 87, "duration": 480}, {"note": 76, "velocity": 70, "duration": 480}, {"note": 79, "velocity": 93, "duration": 720}, {"note": 77, "velocity": 69, "duration": 239}, {"note": 77, "velocity": 79, "duration": 1440}, {"note": 81, "velocity": 100, "duration": 239}, {"note": 81, "velocity": 87, "duration": 239}, {"note": 81, "velocity": 98, "duration": 480}, {"note": 79, "velocity": 74, "duration": 240}, {"note": 77, "velocity": 71, "duration": 240}, {"note": 81, "velocity": 108, "duration": 720}, {"note": 79, "velocity": 100, "duration": 239}, {"note": 79, "velocity": 95, "duration": 1440}, {"note": 82, "velocity": 108, "duration": 239}, {"note": 82, "velocity": 81, "duration": 239}, {"note": 82, "velocity": 93, "duration": 240}, {"note": 81, "velocity": 74, "duration": 240}, {"note": 79, "velocity": 83, "duration": 240}, {"note": 77, "velocity": 74, "duration": 720}, {"note": 81, "velocity": 95, "duration": 1679}, {"note": 81, "velocity": 74, "duration": 240}, {"note": 80, "velocity": 67, "duration": 240}, {"note": 81, "velocity": 95, "duration": 240}, {"note": 84, "velocity": 50, "duration": 239}, {"note": 84, "velocity": 108, "duration": 240}, {"note": 82, "velocity": 79, "duration": 240}, {"note": 81, "velocity": 70, "duration": 239}, {"note": 81, "velocity": 77, "duration": 199}, {"note": 81, "velocity": 52, "duration": 280}, {"note": 80, "velocity": 67, "duration": 240}, {"note": 82, "velocity": 95, "duration": 1440}, {"note": 79, "velocity": 90, "duration": 240}, {"note": 78, "velocity": 68, "duration": 232}, {"note": 79, "velocity": 95, "duration": 248}, {"note": 82, "velocity": 111, "duration": 239}, {"note": 82, "velocity": 100, "duration": 240}, {"note": 81, "velocity": 90, "duration": 216}, {"note": 79, "velocity": 86, "duration": 263}, {"note": 79, "velocity": 90, "duration": 480}, {"note": 77, "velocity": 72, "duration": 240}, {"note": 81, "velocity": 90, "duration": 1440}, {"note": 74, "velocity": 65, "duration": 276}, {"note": 76, "velocity": 67, "duration": 281}, {"note": 77, "velocity": 70, "duration": 240}, {"note": 81, "velocity": 69, "duration": 480}, {"note": 79, "velocity": 85, "duration": 240}, {"note": 77, "velocity": 74, "duration": 239}, {"note": 77, "velocity": 73, "duration": 480}, {"note": 76, "velocity": 64, "duration": 239}, {"note": 76, "velocity": 81, "duration": 1680}, {"note": 69, "velocity": 60, "duration": 239}, {"note": 69, "velocity": 58, "duration": 240}, {"note": 77, "velocity": 72, "duration": 720}, {"note": 73, "velocity": 68, "duration": 240}, {"note": 74, "velocity": 74, "duration": 2400}, {"note": 77, "velocity": 93, "duration": 479}, {"note": 77, "velocity": 85, "duration": 480}, {"note": 74, "velocity": 74, "duration": 480}, {"note": 77, "velocity": 90, "duration": 720}, {"note": 76, "velocity": 65, "duration": 239}, {"note": 76, "velocity": 77, "duration": 1440}, {"note": 79, "velocity": 83, "duration": 479}, {"note": 79, "velocity": 87, "duration": 480}, {"note": 76, "velocity": 70, "duration": 480}, {"note": 79, "velocity": 93, "duration": 720}, {"note": 77, "velocity": 69, "duration": 239}, {"note": 77, "velocity": 79, "duration": 1440}, {"note": 81, "velocity": 100, "duration": 239}, {"note": 81, "velocity": 87, "duration": 239}, {"note": 81, "velocity": 98, "duration": 480}, {"note": 79, "velocity": 74, "duration": 240}, {"note": 77, "velocity": 71, "duration": 240}, {"note": 81, "velocity": 108, "duration": 720}, {"note": 79, "velocity": 100, "duration": 239}, {"note": 79, "velocity": 95, "duration": 1440}, {"note": 82, "velocity": 108, "duration": 239}, {"note": 82, "velocity": 81, "duration": 239}, {"note": 82, "velocity": 93, "duration": 240}, {"note": 81, "velocity": 74, "duration": 240}, {"note": 79, "velocity": 83, "duration": 240}, {"note": 77, "velocity": 74, "duration": 720}, {"note": 81, "velocity": 95, "duration": 1679}, {"note": 81, "velocity": 74, "duration": 240}, {"note": 80, "velocity": 67, "duration": 240}, {"note": 81, "velocity": 95, "duration": 240}, {"note": 84, "velocity": 50, "duration": 239}, {"note": 84, "velocity": 108, "duration": 240}, {"note": 82, "velocity": 79, "duration": 240}, {"note": 81, "velocity": 70, "duration": 239}, {"note": 81, "velocity": 77, "duration": 199}, {"note": 81, "velocity": 52, "duration": 280}, {"note": 80, "velocity": 67, "duration": 240}, {"note": 82, "velocity": 95, "duration": 1440}, {"note": 79, "velocity": 90, "duration": 240}, {"note": 78, "velocity": 68, "duration": 232}, {"note": 79, "velocity": 95, "duration": 248}, {"note": 82, "velocity": 111, "duration": 239}, {"note": 82, "velocity": 100, "duration": 240}, {"note": 81, "velocity": 90, "duration": 216}, {"note": 79, "velocity": 86, "duration": 263}, {"note": 79, "velocity": 90, "duration": 480}, {"note": 77, "velocity": 72, "duration": 240}, {"note": 81, "velocity": 90, "duration": 1440}, {"note": 74, "velocity": 65, "duration": 276}, {"note": 76, "velocity": 67, "duration": 281}, {"note": 77, "velocity": 70, "duration": 240}, {"note": 81, "velocity": 69, "duration": 480}, {"note": 79, "velocity": 85, "duration": 240}, {"note": 77, "velocity": 74, "duration": 239}, {"note": 77, "velocity": 73, "duration": 480}, {"note": 76, "velocity": 64, "duration": 239}, {"note": 76, "velocity": 81, "duration": 1680}, {"note": 69, "velocity": 60, "duration": 239}, {"note": 69, "velocity": 58, "duration": 240}, {"note": 77, "velocity": 72, "duration": 720}, {"note": 73, "velocity": 68, "duration": 240}, {"note": 74, "velocity": 74, "duration": 2330}]]