[[{"note": 77, "velocity": 103, "duration": 368}, {"note": 0, "velocity": 0, "duration": 112}, {"note": 77, "velocity": 93, "duration": 135}, {"note": 0, "velocity": 0, "duration": 105}, {"note": 77, "velocity": 90, "duration": 115}, {"note": 0, "velocity": 0, "duration": 125}, {"note": 77, "velocity": 93, "duration": 148}, {"note": 0, "velocity": 0, "duration": 92}, {"note": 76, "velocity": 102, "duration": 113}, {"note": 0, "velocity": 0, "duration": 127}, {"note": 74, "velocity": 87, "duration": 132}, {"note": 0, "velocity": 0, "duration": 108}, {"note": 74, "velocity": 93, "duration": 755}, {"note": 0, "velocity": 0, "duration": 925}, {"note": 72, "velocity": 93, "duration": 174}, {"note": 0, "velocity": 0, "duration": 66}, {"note": 74, "velocity": 87, "duration": 172}, {"note": 0, "velocity": 0, "duration": 68}, {"note": 76, "velocity": 85, "duration": 154}, {"note": 0, "velocity": 0, "duration": 86}, {"note": 77, "velocity": 93, "duration": 106}, {"note": 0, "velocity": 0, "duration": 134}, {"note": 77, "velocity": 103, "duration": 108}, {"note": 0, "velocity": 0, "duration": 132}, {"note": 77, "velocity": 105, "duration": 204}, {"note": 77, "velocity": 95, "duration": 159}, {"note": 0, "velocity": 0, "duration": 81}, {"note": 76, "velocity": 93, "duration": 118}, {"note": 0, "velocity": 0, "duration": 122}, {"note": 74, "velocity": 87, "duration": 307}, {"note": 0, "velocity": 0, "duration": 173}, {"note": 72, "velocity": 87, "duration": 709}, {"note": 0, "velocity": 0, "duration": 1211}, {"note": 81, "velocity": 87, "duration": 320}, {"note": 0, "velocity": 0, "duration": 160}, {"note": 79, "velocity": 87, "duration": 146}, {"note": 0, "velocity": 0, "duration": 94}, {"note": 77, "velocity": 95, "duration": 396}, {"note": 0, "velocity": 0, "duration": 84}, {"note": 76, "velocity": 102, "duration": 387}, {"note": 0, "velocity": 0, "duration": 333}, {"note": 79, "velocity": 83, "duration": 297}, {"note": 0, "velocity": 0, "duration": 183}, {"note": 77, "velocity": 103, "duration": 114}, {"note": 0, "velocity": 0, "duration": 126}, {"note": 76, "velocity": 103, "duration": 417}, {"note": 0, "velocity": 0, "duration": 63}, {"note": 74, "velocity": 95, "duration": 431}, {"note": 0, "velocity": 0, "duration": 289}, {"note": 77, "velocity": 93, "duration": 255}, {"note": 0, "velocity": 0, "duration": 225}, {"note": 76, "velocity": 93, "duration": 141}, {"note": 0, "velocity": 0, "duration": 99}, {"note": 74, "velocity": 95, "duration": 412}, {"note": 0, "velocity": 0, "duration": 68}, {"note": 72, "velocity": 87, "duration": 207}, {"note": 74, "velocity": 72, "duration": 143}, {"note": 0, "velocity": 0, "duration": 97}, {"note": 74, "velocity": 95, "duration": 798}, {"note": 0, "velocity": 0, "duration": 1362}, {"note": 77, "velocity": 103, "duration": 368}, {"note": 0, "velocity": 0, "duration": 112}, {"note": 77, "velocity": 93, "duration": 135}, {"note": 0, "velocity": 0, "duration": 105}, {"note": 77, "velocity": 90, "duration": 115}, {"note": 0, "velocity": 0, "duration": 125}, {"note": 77, "velocity": 93, "duration": 148}, {"note": 0, "velocity": 0, "duration": 92}, {"note": 76, "velocity": 102, "duration": 113}, {"note": 0, "velocity": 0, "duration": 127}, {"note": 74, "velocity": 87, "duration": 132}, {"note": 0, "velocity": 0, "duration": 108}, {"note": 74, "velocity": 93, "duration": 755}, {"note": 0, "velocity": 0, "duration": 925}, {"note": 72, "velocity": 93, "duration": 174}, {"note": 0, "velocity": 0, "duration": 66}, {"note": 74, "velocity": 87, "duration": 172}, {"note": 0, "velocity": 0, "duration": 68}, {"note": 76, "velocity": 85, "duration": 154}, {"note": 0, "velocity": 0, "duration": 86}, {"note": 77, "velocity": 93, "duration": 106}, {"note": 0, "velocity": 0, "duration": 134}, {"note": 77, "velocity": 103, "duration": 108}, {"note": 0, "velocity": 0, "duration": 132}, {"note": 77, "velocity": 105, "duration": 204}, {"note": 79, "velocity": 95, "duration": 159}, {"note": 0, "velocity": 0, "duration": 81}, {"note": 77, "velocity": 93, "duration": 118}, {"note": 0, "velocity": 0, "duration": 122}, {"note": 74, "velocity": 87, "duration": 307}, {"note": 0, "velocity": 0, "duration": 173}, {"note": 72, "velocity": 87, "duration": 709}, {"note": 0, "velocity": 0, "duration": 1211}, {"note": 81, "velocity": 87, "duration": 320}, {"note": 0, "velocity": 0, "duration": 160}, {"note": 79, "velocity": 87, "duration": 146}, {"note": 0, "velocity": 0, "duration": 94}, {"note": 77, "velocity": 95, "duration": 396}, {"note": 0, "velocity": 0, "duration": 84}, {"note": 76, "velocity": 102, "duration": 387}, {"note": 0, "velocity": 0, "duration": 333}, {"note": 79, "velocity": 83, "duration": 297}, {"note": 0, "velocity": 0, "duration": 183}, {"note": 77, "velocity": 103, "duration": 114}, {"note": 0, "velocity": 0, "duration": 126}, {"note": 76, "velocity": 103, "duration": 417}, {"note": 0, "velocity": 0, "duration": 63}, {"note": 74, "velocity": 95, "duration": 431}, {"note": 0, "velocity": 0, "duration": 289}, {"note": 77, "velocity": 93, "duration": 255}, {"note": 0, "velocity": 0, "duration": 225}, {"note": 76, "velocity": 93, "duration": 141}, {"note": 0, "velocity": 0, "duration": 99}, {"note": 74, "velocity": 95, "duration": 412}, {"note": 0, "velocity": 0, "duration": 68}, {"note": 72, "velocity": 87, "duration": 207}, {"note": 74, "velocity": 72, "duration": 143}, {"note": 0, "velocity": 0, "duration": 97}, {"note": 74, "velocity": 95, "duration": 798}, {"note": 0, "velocity": 0, "duration": 162}, {"note": 72, "velocity": 93, "duration": 163}, {"note": 0, "velocity": 0, "duration": 77}, {"note": 74, "velocity": 102, "duration": 129}, {"note": 0, "velocity": 0, "duration": 111}, {"note": 81, "velocity": 93, "duration": 328}, {"note": 0, "velocity": 0, "duration": 152}, {"note": 79, "velocity": 93, "duration": 2191}, {"note": 0, "velocity": 0, "duration": 449}, {"note": 77, "velocity": 102, "duration": 164}, {"note": 0, "velocity": 0, "duration": 76}, {"note": 79, "velocity": 93, "duration": 382}, {"note": 0, "velocity": 0, "duration": 98}, {"note": 77, "velocity": 102, "duration": 387}, {"note": 0, "velocity": 0, "duration": 93}, {"note": 72, "velocity": 93, "duration": 519}, {"note": 0, "velocity": 0, "duration": 201}, {"note": 77, "velocity": 105, "duration": 165}, {"note": 0, "velocity": 0, "duration": 75}, {"note": 79, "velocity": 80, "duration": 373}, {"note": 0, "velocity": 0, "duration": 107}, {"note": 77, "velocity": 102, "duration": 347}, {"note": 0, "velocity": 0, "duration": 133}, {"note": 74, "velocity": 87, "duration": 435}, {"note": 0, "velocity": 0, "duration": 525}, {"note": 72, "velocity": 93, "duration": 104}, {"note": 0, "velocity": 0, "duration": 136}, {"note": 74, "velocity": 87, "duration": 133}, {"note": 0, "velocity": 0, "duration": 107}, {"note": 81, "velocity": 87, "duration": 316}, {"note": 0, "velocity": 0, "duration": 164}, {"note": 79, "velocity": 95, "duration": 1997}, {"note": 0, "velocity": 0, "duration": 643}, {"note": 81, "velocity": 93, "duration": 144}, {"note": 0, "velocity": 0, "duration": 96}, {"note": 79, "velocity": 93, "duration": 320}, {"note": 0, "velocity": 0, "duration": 160}, {"note": 77, "velocity": 102, "duration": 379}, {"note": 0, "velocity": 0, "duration": 101}, {"note": 72, "velocity": 95, "duration": 440}, {"note": 0, "velocity": 0, "duration": 280}, {"note": 81, "velocity": 93, "duration": 159}, {"note": 0, "velocity": 0, "duration": 81}, {"note": 79, "velocity": 83, "duration": 357}, {"note": 0, "velocity": 0, "duration": 123}, {"note": 81, "velocity": 87, "duration": 331}, {"note": 0, "velocity": 0, "duration": 149}, {"note": 74, "velocity": 93, "duration": 441}, {"note": 0, "velocity": 0, "duration": 519}, {"note": 72, "velocity": 93, "duration": 95}, {"note": 0, "velocity": 0, "duration": 145}, {"note": 77, "velocity": 95, "duration": 83}, {"note": 0, "velocity": 0, "duration": 157}, {"note": 79, "velocity": 87, "duration": 100}, {"note": 0, "velocity": 0, "duration": 140}, {"note": 81, "velocity": 87, "duration": 130}, {"note": 0, "velocity": 0, "duration": 110}, {"note": 81, "velocity": 93, "duration": 300}, {"note": 0, "velocity": 0, "duration": 420}, {"note": 79, "velocity": 83, "duration": 75}, {"note": 0, "velocity": 0, "duration": 165}, {"note": 77, "velocity": 93, "duration": 919}, {"note": 0, "velocity": 0, "duration": 1241}, {"note": 72, "velocity": 105, "duration": 381}, {"note": 0, "velocity": 0, "duration": 99}, {"note": 84, "velocity": 93, "duration": 376}, {"note": 0, "velocity": 0, "duration": 104}, {"note": 77, "velocity": 105, "duration": 604}, {"note": 0, "velocity": 0, "duration": 116}, {"note": 79, "velocity": 95, "duration": 1980}, {"note": 0, "velocity": 0, "duration": 180}, {"note": 74, "velocity": 110, "duration": 336}, {"note": 0, "velocity": 0, "duration": 144}, {"note": 86, "velocity": 102, "duration": 347}, {"note": 0, "velocity": 0, "duration": 133}, {"note": 79, "velocity": 103, "duration": 630}, {"note": 0, "velocity": 0, "duration": 90}, {"note": 81, "velocity": 93, "duration": 1903}, {"note": 0, "velocity": 0, "duration": 257}, {"note": 72, "velocity": 105, "duration": 381}, {"note": 0, "velocity": 0, "duration": 99}, {"note": 84, "velocity": 93, "duration": 376}, {"note": 0, "velocity": 0, "duration": 104}, {"note": 77, "velocity": 105, "duration": 604}, {"note": 0, "velocity": 0, "duration": 116}, {"note": 79, "velocity": 95, "duration": 1980}, {"note": 0, "velocity": 0, "duration": 180}, {"note": 74, "velocity": 110, "duration": 336}, {"note": 0, "velocity": 0, "duration": 144}, {"note": 86, "velocity": 102, "duration": 347}, {"note": 0, "velocity": 0, "duration": 133}, {"note": 81, "velocity": 103, "duration": 2878}, {"note": 0, "velocity": 0, "duration": 962}, {"note": 77, "velocity": 103, "duration": 368}, {"note": 0, "velocity": 0, "duration": 112}, {"note": 77, "velocity": 93, "duration": 135}, {"note": 0, "velocity": 0, "duration": 105}, {"note": 77, "velocity": 90, "duration": 115}, {"note": 0, "velocity": 0, "duration": 125}, {"note": 77, "velocity": 93, "duration": 148}, {"note": 0, "velocity": 0, "duration": 92}, {"note": 76, "velocity": 102, "duration": 113}, {"note": 0, "velocity": 0, "duration": 127}, {"note": 74, "velocity": 87, "duration": 132}, {"note": 0, "velocity": 0, "duration": 108}, {"note": 74, "velocity": 93, "duration": 755}, {"note": 0, "velocity": 0, "duration": 925}, {"note": 72, "velocity": 93, "duration": 174}, {"note": 0, "velocity": 0, "duration": 66}, {"note": 74, "velocity": 87, "duration": 172}, {"note": 0, "velocity": 0, "duration": 68}, {"note": 76, "velocity": 85, "duration": 154}, {"note": 0, "velocity": 0, "duration": 86}, {"note": 77, "velocity": 93, "duration": 106}, {"note": 0, "velocity": 0, "duration": 134}, {"note": 77, "velocity": 103, "duration": 108}, {"note": 0, "velocity": 0, "duration": 132}, {"note": 77, "velocity": 105, "duration": 204}, {"note": 77, "velocity": 95, "duration": 159}, {"note": 0, "velocity": 0, "duration": 81}, {"note": 76, "velocity": 93, "duration": 118}, {"note": 0, "velocity": 0, "duration": 122}, {"note": 74, "velocity": 87, "duration": 307}, {"note": 0, "velocity": 0, "duration": 173}, {"note": 72, "velocity": 87, "duration": 709}, {"note": 0, "velocity": 0, "duration": 1211}, {"note": 81, "velocity": 87, "duration": 320}, {"note": 0, "velocity": 0, "duration": 160}, {"note": 79, "velocity": 87, "duration": 146}, {"note": 0, "velocity": 0, "duration": 94}, {"note": 77, "velocity": 95, "duration": 396}, {"note": 0, "velocity": 0, "duration": 84}, {"note": 76, "velocity": 102, "duration": 387}, {"note": 0, "velocity": 0, "duration": 333}, {"note": 79, "velocity": 83, "duration": 297}, {"note": 0, "velocity": 0, "duration": 183}, {"note": 77, "velocity": 103, "duration": 114}, {"note": 0, "velocity": 0, "duration": 126}, {"note": 76, "velocity": 103, "duration": 417}, {"note": 0, "velocity": 0, "duration": 63}, {"note": 74, "velocity": 95, "duration": 431}, {"note": 0, "velocity": 0, "duration": 289}, {"note": 77, "velocity": 93, "duration": 255}, {"note": 0, "velocity": 0, "duration": 225}, {"note": 76, "velocity": 93, "duration": 141}, {"note": 0, "velocity": 0, "duration": 99}, {"note": 74, "velocity": 95, "duration": 412}, {"note": 0, "velocity": 0, "duration": 68}, {"note": 72, "velocity": 87, "duration": 207}, {"note": 74, "velocity": 72, "duration": 143}, {"note": 0, "velocity": 0, "duration": 97}, {"note": 74, "velocity": 95, "duration": 798}, {"note": 0, "velocity": 0, "duration": 1362}, {"note": 77, "velocity": 103, "duration": 368}, {"note": 0, "velocity": 0, "duration": 112}, {"note": 77, "velocity": 93, "duration": 135}, {"note": 0, "velocity": 0, "duration": 105}, {"note": 77, "velocity": 90, "duration": 115}, {"note": 0, "velocity": 0, "duration": 125}, {"note": 77, "velocity": 93, "duration": 148}, {"note": 0, "velocity": 0, "duration": 92}, {"note": 76, "velocity": 102, "duration": 113}, {"note": 0, "velocity": 0, "duration": 127}, {"note": 74, "velocity": 87, "duration": 132}, {"note": 0, "velocity": 0, "duration": 108}, {"note": 74, "velocity": 93, "duration": 755}, {"note": 0, "velocity": 0, "duration": 925}, {"note": 72, "velocity": 93, "duration": 174}, {"note": 0, "velocity": 0, "duration": 66}, {"note": 74, "velocity": 87, "duration": 172}, {"note": 0, "velocity": 0, "duration": 68}, {"note": 76, "velocity": 85, "duration": 154}, {"note": 0, "velocity": 0, "duration": 86}, {"note": 77, "velocity": 93, "duration": 106}, {"note": 0, "velocity": 0, "duration": 134}, {"note": 77, "velocity": 103, "duration": 108}, {"note": 0, "velocity": 0, "duration": 132}, {"note": 77, "velocity": 105, "duration": 204}, {"note": 79, "velocity": 95, "duration": 159}, {"note": 0, "velocity": 0, "duration": 81}, {"note": 77, "velocity": 93, "duration": 118}, {"note": 0, "velocity": 0, "duration": 122}, {"note": 74, "velocity": 87, "duration": 307}, {"note": 0, "velocity": 0, "duration": 173}, {"note": 72, "velocity": 87, "duration": 709}, {"note": 0, "velocity": 0, "duration": 1211}, {"note": 81, "velocity": 87, "duration": 320}, {"note": 0, "velocity": 0, "duration": 160}, {"note": 79, "velocity": 87, "duration": 146}, {"note": 0, "velocity": 0, "duration": 94}, {"note": 77, "velocity": 95, "duration": 396}, {"note": 0, "velocity": 0, "duration": 84}, {"note": 76, "velocity": 102, "duration": 387}, {"note": 0, "velocity": 0, "duration": 333}, {"note": 79, "velocity": 83, "duration": 297}, {"note": 0, "velocity": 0, "duration": 183}, {"note": 77, "velocity": 103, "duration": 114}, {"note": 0, "velocity": 0, "duration": 126}, {"note": 76, "velocity": 103, "duration": 417}, {"note": 0, "velocity": 0, "duration": 63}, {"note": 74, "velocity": 95, "duration": 431}, {"note": 0, "velocity": 0, "duration": 289}, {"note": 77, "velocity": 93, "duration": 255}, {"note": 0, "velocity": 0, "duration": 225}, {"note": 76, "velocity": 93, "duration": 141}, {"note": 0, "velocity": 0, "duration": 99}, {"note": 74, "velocity": 95, "duration": 412}, {"note": 0, "velocity": 0, "duration": 68}, {"note": 72, "velocity": 87, "duration": 207}, {"note": 74, "velocity": 72, "duration": 143}, {"note": 0, "velocity": 0, "duration": 97}, {"note": 74, "velocity": 95, "duration": 798}, {"note": 0, "velocity": 0, "duration": 162}, {"note": 72, "velocity": 93, "duration": 163}, {"note": 0, "velocity": 0, "duration": 77}, {"note": 74, "velocity": 102, "duration": 129}, {"note": 0, "velocity": 0, "duration": 111}, {"note": 81, "velocity": 93, "duration": 328}, {"note": 0, "velocity": 0, "duration": 152}, {"note": 79, "velocity": 93, "duration": 2191}, {"note": 0, "velocity": 0, "duration": 449}, {"note": 77, "velocity": 102, "duration": 164}, {"note": 0, "velocity": 0, "duration": 76}, {"note": 79, "velocity": 93, "duration": 382}, {"note": 0, "velocity": 0, "duration": 98}, {"note": 77, "velocity": 102, "duration": 387}, {"note": 0, "velocity": 0, "duration": 93}, {"note": 72, "velocity": 93, "duration": 519}, {"note": 0, "velocity": 0, "duration": 201}, {"note": 77, "velocity": 105, "duration": 165}, {"note": 0, "velocity": 0, "duration": 75}, {"note": 79, "velocity": 80, "duration": 373}, {"note": 0, "velocity": 0, "duration": 107}, {"note": 77, "velocity": 102, "duration": 347}, {"note": 0, "velocity": 0, "duration": 133}, {"note": 74, "velocity": 87, "duration": 435}, {"note": 0, "velocity": 0, "duration": 525}, {"note": 72, "velocity": 93, "duration": 104}, {"note": 0, "velocity": 0, "duration": 136}, {"note": 74, "velocity": 87, "duration": 133}, {"note": 0, "velocity": 0, "duration": 107}, {"note": 81, "velocity": 87, "duration": 316}, {"note": 0, "velocity": 0, "duration": 164}, {"note": 79, "velocity": 95, "duration": 1997}, {"note": 0, "velocity": 0, "duration": 643}, {"note": 81, "velocity": 93, "duration": 144}, {"note": 0, "velocity": 0, "duration": 96}, {"note": 79, "velocity": 93, "duration": 320}, {"note": 0, "velocity": 0, "duration": 160}, {"note": 77, "velocity": 102, "duration": 379}, {"note": 0, "velocity": 0, "duration": 101}, {"note": 72, "velocity": 95, "duration": 440}, {"note": 0, "velocity": 0, "duration": 280}, {"note": 81, "velocity": 93, "duration": 159}, {"note": 0, "velocity": 0, "duration": 81}, {"note": 79, "velocity": 83, "duration": 357}, {"note": 0, "velocity": 0, "duration": 123}, {"note": 81, "velocity": 87, "duration": 331}, {"note": 0, "velocity": 0, "duration": 149}, {"note": 74, "velocity": 93, "duration": 441}, {"note": 0, "velocity": 0, "duration": 519}, {"note": 72, "velocity": 93, "duration": 95}, {"note": 0, "velocity": 0, "duration": 145}, {"note": 77, "velocity": 95, "duration": 83}, {"note": 0, "velocity": 0, "duration": 157}, {"note": 79, "velocity": 87, "duration": 100}, {"note": 0, "velocity": 0, "duration": 140}, {"note": 81, "velocity": 87, "duration": 130}, {"note": 0, "velocity": 0, "duration": 110}, {"note": 81, "velocity": 93, "duration": 300}, {"note": 0, "velocity": 0, "duration": 420}, {"note": 79, "velocity": 83, "duration": 75}, {"note": 0, "velocity": 0, "duration": 165}, {"note": 77, "velocity": 93, "duration": 919}, {"note": 0, "velocity": 0, "duration": 2681}, {"note": 82, "velocity": 103, "duration": 142}, {"note": 0, "velocity": 0, "duration": 98}, {"note": 82, "velocity": 93, "duration": 420}, {"note": 81, "velocity": 93, "duration": 143}, {"note": 0, "velocity": 0, "duration": 97}, {"note": 79, "velocity": 103, "duration": 147}, {"note": 0, "velocity": 0, "duration": 93}, {"note": 82, "velocity": 103, "duration": 553}, {"note": 0, "velocity": 0, "duration": 167}, {"note": 82, "velocity": 102, "duration": 146}, {"note": 0, "velocity": 0, "duration": 94}, {"note": 82, "velocity": 93, "duration": 409}, {"note": 0, "velocity": 0, "duration": 71}, {"note": 81, "velocity": 102, "duration": 139}, {"note": 0, "velocity": 0, "duration": 101}, {"note": 79, "velocity": 103, "duration": 145}, {"note": 0, "velocity": 0, "duration": 95}, {"note": 81, "velocity": 93, "duration": 302}, {"note": 0, "velocity": 0, "duration": 418}, {"note": 81, "velocity": 93, "duration": 169}, {"note": 0, "velocity": 0, "duration": 71}, {"note": 79, "velocity": 102, "duration": 385}, {"note": 0, "velocity": 0, "duration": 95}, {"note": 79, "velocity": 102, "duration": 160}, {"note": 0, "velocity": 0, "duration": 80}, {"note": 81, "velocity": 93, "duration": 187}, {"note": 77, "velocity": 103, "duration": 227}, {"note": 74, "velocity": 74, "duration": 315}, {"note": 0, "velocity": 0, "duration": 165}, {"note": 74, "velocity": 103, "duration": 137}, {"note": 0, "velocity": 0, "duration": 103}, {"note": 77, "velocity": 102, "duration": 616}, {"note": 0, "velocity": 0, "duration": 104}, {"note": 84, "velocity": 87, "duration": 148}, {"note": 0, "velocity": 0, "duration": 92}, {"note": 82, "velocity": 95, "duration": 548}, {"note": 0, "velocity": 0, "duration": 172}, {"note": 82, "velocity": 95, "duration": 155}, {"note": 0, "velocity": 0, "duration": 85}, {"note": 81, "velocity": 95, "duration": 473}, {"note": 79, "velocity": 90, "duration": 107}, {"note": 0, "velocity": 0, "duration": 133}, {"note": 79, "velocity": 105, "duration": 193}, {"note": 82, "velocity": 103, "duration": 544}, {"note": 0, "velocity": 0, "duration": 176}, {"note": 84, "velocity": 93, "duration": 180}, {"note": 82, "velocity": 93, "duration": 428}, {"note": 81, "velocity": 93, "duration": 178}, {"note": 0, "velocity": 0, "duration": 62}, {"note": 79, "velocity": 105, "duration": 176}, {"note": 0, "velocity": 0, "duration": 64}, {"note": 81, "velocity": 93, "duration": 446}, {"note": 0, "velocity": 0, "duration": 274}, {"note": 81, "velocity": 93, "duration": 140}, {"note": 0, "velocity": 0, "duration": 100}, {"note": 79, "velocity": 93, "duration": 373}, {"note": 0, "velocity": 0, "duration": 107}, {"note": 79, "velocity": 87, "duration": 161}, {"note": 0, "velocity": 0, "duration": 79}, {"note": 81, "velocity": 85, "duration": 172}, {"note": 0, "velocity": 0, "duration": 68}, {"note": 77, "velocity": 93, "duration": 214}, {"note": 74, "velocity": 95, "duration": 325}, {"note": 0, "velocity": 0, "duration": 395}, {"note": 72, "velocity": 93, "duration": 163}, {"note": 0, "velocity": 0, "duration": 77}, {"note": 74, "velocity": 102, "duration": 129}, {"note": 0, "velocity": 0, "duration": 111}, {"note": 81, "velocity": 93, "duration": 328}, {"note": 0, "velocity": 0, "duration": 152}, {"note": 79, "velocity": 93, "duration": 2191}, {"note": 0, "velocity": 0, "duration": 449}, {"note": 77, "velocity": 102, "duration": 164}, {"note": 0, "velocity": 0, "duration": 76}, {"note": 79, "velocity": 93, "duration": 382}, {"note": 0, "velocity": 0, "duration": 98}, {"note": 77, "velocity": 102, "duration": 387}, {"note": 0, "velocity": 0, "duration": 93}, {"note": 72, "velocity": 93, "duration": 519}, {"note": 0, "velocity": 0, "duration": 201}, {"note": 77, "velocity": 105, "duration": 165}, {"note": 0, "velocity": 0, "duration": 75}, {"note": 79, "velocity": 80, "duration": 373}, {"note": 0, "velocity": 0, "duration": 107}, {"note": 77, "velocity": 102, "duration": 347}, {"note": 0, "velocity": 0, "duration": 133}, {"note": 74, "velocity": 87, "duration": 435}, {"note": 0, "velocity": 0, "duration": 525}, {"note": 72, "velocity": 93, "duration": 104}, {"note": 0, "velocity": 0, "duration": 136}, {"note": 74, "velocity": 87, "duration": 133}, {"note": 0, "velocity": 0, "duration": 107}, {"note": 81, "velocity": 87, "duration": 316}, {"note": 0, "velocity": 0, "duration": 164}, {"note": 79, "velocity": 95, "duration": 1997}, {"note": 0, "velocity": 0, "duration": 643}, {"note": 81, "velocity": 93, "duration": 144}, {"note": 0, "velocity": 0, "duration": 96}, {"note": 79, "velocity": 93, "duration": 320}, {"note": 0, "velocity": 0, "duration": 160}, {"note": 77, "velocity": 102, "duration": 379}, {"note": 0, "velocity": 0, "duration": 101}, {"note": 72, "velocity": 95, "duration": 440}, {"note": 0, "velocity": 0, "duration": 280}, {"note": 81, "velocity": 93, "duration": 159}, {"note": 0, "velocity": 0, "duration": 81}, {"note": 79, "velocity": 83, "duration": 357}, {"note": 0, "velocity": 0, "duration": 123}, {"note": 81, "velocity": 87, "duration": 331}, {"note": 0, "velocity": 0, "duration": 149}, {"note": 74, "velocity": 93, "duration": 441}, {"note": 0, "velocity": 0, "duration": 519}, {"note": 72, "velocity": 93, "duration": 95}, {"note": 0, "velocity": 0, "duration": 145}, {"note": 77, "velocity": 95, "duration": 83}, {"note": 0, "velocity": 0, "duration": 157}, {"note": 79, "velocity": 87, "duration": 100}, {"note": 0, "velocity": 0, "duration": 140}, {"note": 81, "velocity": 87, "duration": 130}, {"note": 0, "velocity": 0, "duration": 110}, {"note": 81, "velocity": 93, "duration": 300}, {"note": 0, "velocity": 0, "duration": 420}, {"note": 79, "velocity": 83, "duration": 75}, {"note": 0, "velocity": 0, "duration": 165}, {"note": 77, "velocity": 93, "duration": 919}, {"note": 0, "velocity": 0, "duration": 1241}, {"note": 72, "velocity": 105, "duration": 381}, {"note": 0, "velocity": 0, "duration": 99}, {"note": 84, "velocity": 93, "duration": 376}, {"note": 0, "velocity": 0, "duration": 104}, {"note": 77, "velocity": 105, "duration": 604}, {"note": 0, "velocity": 0, "duration": 116}, {"note": 79, "velocity": 95, "duration": 1980}, {"note": 0, "velocity": 0, "duration": 180}, {"note": 74, "velocity": 110, "duration": 336}, {"note": 0, "velocity": 0, "duration": 144}, {"note": 86, "velocity": 102, "duration": 347}, {"note": 0, "velocity": 0, "duration": 133}, {"note": 79, "velocity": 103, "duration": 630}, {"note": 0, "velocity": 0, "duration": 90}, {"note": 81, "velocity": 93, "duration": 1903}, {"note": 0, "velocity": 0, "duration": 257}, {"note": 72, "velocity": 105, "duration": 381}, {"note": 0, "velocity": 0, "duration": 99}, {"note": 84, "velocity": 93, "duration": 376}, {"note": 0, "velocity": 0, "duration": 104}, {"note": 77, "velocity": 105, "duration": 604}, {"note": 0, "velocity": 0, "duration": 116}, {"note": 79, "velocity": 95, "duration": 1980}, {"note": 0, "velocity": 0, "duration": 180}, {"note": 74, "velocity": 110, "duration": 336}, {"note": 0, "velocity": 0, "duration": 144}, {"note": 86, "velocity": 102, "duration": 347}, {"note": 0, "velocity": 0, "duration": 133}, {"note": 81, "velocity": 103, "duration": 2878}, {"note": 72, "velocity": 105, "duration": 381}, {"note": 0, "velocity": 0, "duration": 99}, {"note": 84, "velocity": 93, "duration": 376}, {"note": 0, "velocity": 0, "duration": 104}, {"note": 77, "velocity": 105, "duration": 604}, {"note": 0, "velocity": 0, "duration": 116}, {"note": 79, "velocity": 95, "duration": 1980}, {"note": 0, "velocity": 0, "duration": 180}, {"note": 74, "velocity": 110, "duration": 336}, {"note": 0, "velocity": 0, "duration": 144}, {"note": 86, "velocity": 102, "duration": 347}, {"note": 0, "velocity": 0, "duration": 133}, {"note": 79, "velocity": 103, "duration": 630}, {"note": 0, "velocity": 0, "duration": 90}, {"note": 81, "velocity": 93, "duration": 1903}, {"note": 0, "velocity": 0, "duration": 257}, {"note": 72, "velocity": 105, "duration": 381}, {"note": 0, "velocity": 0, "duration": 99}, {"note": 84, "velocity": 93, "duration": 376}, {"note": 0, "velocity": 0, "duration": 104}, {"note": 77, "velocity": 80, "duration": 604}, {"note": 0, "velocity": 0, "duration": 116}, {"note": 79, "velocity": 69, "duration": 1980}, {"note": 0, "velocity": 0, "duration": 180}, {"note": 74, "velocity": 33, "duration": 336}, {"note": 0, "velocity": 0, "duration": 144}, {"note": 86, "velocity": 27, "duration": 347}, {"note": 0, "velocity": 0, "duration": 133}, {"note": 81, "velocity": 19, "duration": 2878}]]