[[{"note": 71, "velocity": 74, "duration": 149}, {"note": 0, "velocity": 0, "duration": 91}, {"note": 71, "velocity": 76, "duration": 129}, {"note": 0, "velocity": 0, "duration": 111}, {"note": 71, "velocity": 74, "duration": 282}, {"note": 73, "velocity": 81, "duration": 222}, {"note": 71, "velocity": 87, "duration": 421}, {"note": 66, "velocity": 86, "duration": 505}, {"note": 0, "velocity": 0, "duration": 215}, {"note": 71, "velocity": 77, "duration": 183}, {"note": 71, "velocity": 69, "duration": 175}, {"note": 0, "velocity": 0, "duration": 65}, {"note": 73, "velocity": 81, "duration": 206}, {"note": 71, "velocity": 86, "duration": 419}, {"note": 0, "velocity": 0, "duration": 61}, {"note": 68, "velocity": 69, "duration": 529}, {"note": 71, "velocity": 71, "duration": 513}, {"note": 68, "velocity": 74, "duration": 262}, {"note": 70, "velocity": 68, "duration": 243}, {"note": 66, "velocity": 71, "duration": 2304}, {"note": 0, "velocity": 0, "duration": 576}, {"note": 71, "velocity": 61, "duration": 91}, {"note": 0, "velocity": 0, "duration": 149}, {"note": 71, "velocity": 69, "duration": 112}, {"note": 0, "velocity": 0, "duration": 128}, {"note": 71, "velocity": 63, "duration": 285}, {"note": 73, "velocity": 74, "duration": 260}, {"note": 76, "velocity": 87, "duration": 498}, {"note": 75, "velocity": 74, "duration": 459}, {"note": 71, "velocity": 75, "duration": 384}, {"note": 0, "velocity": 0, "duration": 96}, {"note": 71, "velocity": 63, "duration": 269}, {"note": 73, "velocity": 76, "duration": 228}, {"note": 71, "velocity": 79, "duration": 304}, {"note": 0, "velocity": 0, "duration": 176}, {"note": 68, "velocity": 66, "duration": 297}, {"note": 0, "velocity": 0, "duration": 183}, {"note": 71, "velocity": 77, "duration": 683}, {"note": 73, "velocity": 64, "duration": 272}, {"note": 0, "velocity": 0, "duration": 208}, {"note": 75, "velocity": 59, "duration": 623}, {"note": 70, "velocity": 68, "duration": 198}, {"note": 0, "velocity": 0, "duration": 282}, {"note": 70, "velocity": 71, "duration": 518}, {"note": 71, "velocity": 79, "duration": 745}, {"note": 0, "velocity": 0, "duration": 695}, {"note": 71, "velocity": 63, "duration": 88}, {"note": 0, "velocity": 0, "duration": 152}, {"note": 71, "velocity": 67, "duration": 79}, {"note": 0, "velocity": 0, "duration": 161}, {"note": 71, "velocity": 67, "duration": 222}, {"note": 73, "velocity": 67, "duration": 259}, {"note": 71, "velocity": 74, "duration": 408}, {"note": 0, "velocity": 0, "duration": 72}, {"note": 66, "velocity": 73, "duration": 483}, {"note": 0, "velocity": 0, "duration": 237}, {"note": 71, "velocity": 75, "duration": 96}, {"note": 0, "velocity": 0, "duration": 144}, {"note": 71, "velocity": 75, "duration": 187}, {"note": 73, "velocity": 74, "duration": 164}, {"note": 0, "velocity": 0, "duration": 76}, {"note": 71, "velocity": 74, "duration": 302}, {"note": 0, "velocity": 0, "duration": 178}, {"note": 68, "velocity": 67, "duration": 373}, {"note": 0, "velocity": 0, "duration": 107}, {"note": 71, "velocity": 69, "duration": 413}, {"note": 0, "velocity": 0, "duration": 67}, {"note": 70, "velocity": 77, "duration": 264}, {"note": 0, "velocity": 0, "duration": 216}, {"note": 66, "velocity": 69, "duration": 2045}, {"note": 0, "velocity": 0, "duration": 835}, {"note": 71, "velocity": 63, "duration": 87}, {"note": 0, "velocity": 0, "duration": 153}, {"note": 71, "velocity": 69, "duration": 91}, {"note": 0, "velocity": 0, "duration": 149}, {"note": 71, "velocity": 74, "duration": 150}, {"note": 0, "velocity": 0, "duration": 90}, {"note": 73, "velocity": 71, "duration": 177}, {"note": 0, "velocity": 0, "duration": 63}, {"note": 76, "velocity": 83, "duration": 496}, {"note": 73, "velocity": 67, "duration": 351}, {"note": 0, "velocity": 0, "duration": 129}, {"note": 71, "velocity": 81, "duration": 362}, {"note": 0, "velocity": 0, "duration": 118}, {"note": 71, "velocity": 68, "duration": 215}, {"note": 73, "velocity": 79, "duration": 260}, {"note": 71, "velocity": 76, "duration": 447}, {"note": 68, "velocity": 76, "duration": 498}, {"note": 71, "velocity": 83, "duration": 513}, {"note": 73, "velocity": 81, "duration": 382}, {"note": 0, "velocity": 0, "duration": 98}, {"note": 75, "velocity": 86, "duration": 276}, {"note": 0, "velocity": 0, "duration": 204}, {"note": 70, "velocity": 75, "duration": 339}, {"note": 0, "velocity": 0, "duration": 141}, {"note": 70, "velocity": 81, "duration": 520}, {"note": 71, "velocity": 81, "duration": 218}, {"note": 73, "velocity": 74, "duration": 275}, {"note": 71, "velocity": 64, "duration": 738}, {"note": 0, "velocity": 0, "duration": 222}, {"note": 71, "velocity": 70, "duration": 226}, {"note": 78, "velocity": 87, "duration": 266}, {"note": 75, "velocity": 70, "duration": 474}, {"note": 70, "velocity": 85, "duration": 798}, {"note": 0, "velocity": 0, "duration": 162}, {"note": 70, "velocity": 62, "duration": 227}, {"note": 78, "velocity": 100, "duration": 264}, {"note": 75, "velocity": 64, "duration": 302}, {"note": 0, "velocity": 0, "duration": 178}, {"note": 68, "velocity": 67, "duration": 996}, {"note": 0, "velocity": 0, "duration": 444}, {"note": 68, "velocity": 71, "duration": 102}, {"note": 0, "velocity": 0, "duration": 138}, {"note": 68, "velocity": 64, "duration": 94}, {"note": 0, "velocity": 0, "duration": 146}, {"note": 68, "velocity": 66, "duration": 100}, {"note": 0, "velocity": 0, "duration": 140}, {"note": 68, "velocity": 87, "duration": 262}, {"note": 70, "velocity": 76, "duration": 340}, {"note": 0, "velocity": 0, "duration": 140}, {"note": 71, "velocity": 95, "duration": 333}, {"note": 0, "velocity": 0, "duration": 147}, {"note": 76, "velocity": 81, "duration": 326}, {"note": 0, "velocity": 0, "duration": 154}, {"note": 75, "velocity": 79, "duration": 933}, {"note": 75, "velocity": 73, "duration": 221}, {"note": 78, "velocity": 95, "duration": 232}, {"note": 75, "velocity": 68, "duration": 481}, {"note": 70, "velocity": 68, "duration": 818}, {"note": 0, "velocity": 0, "duration": 142}, {"note": 70, "velocity": 61, "duration": 227}, {"note": 78, "velocity": 87, "duration": 248}, {"note": 75, "velocity": 65, "duration": 254}, {"note": 78, "velocity": 93, "duration": 248}, {"note": 70, "velocity": 74, "duration": 391}, {"note": 0, "velocity": 0, "duration": 89}, {"note": 68, "velocity": 73, "duration": 668}, {"note": 0, "velocity": 0, "duration": 1252}, {"note": 76, "velocity": 85, "duration": 267}, {"note": 75, "velocity": 65, "duration": 226}, {"note": 71, "velocity": 68, "duration": 265}, {"note": 76, "velocity": 72, "duration": 280}, {"note": 0, "velocity": 0, "duration": 64}, {"note": 75, "velocity": 65, "duration": 256}, {"note": 76, "velocity": 87, "duration": 331}, {"note": 78, "velocity": 81, "duration": 666}, {"note": 0, "velocity": 0, "duration": 7990}, {"note": 71, "velocity": 63, "duration": 88}, {"note": 0, "velocity": 0, "duration": 152}, {"note": 71, "velocity": 67, "duration": 79}, {"note": 0, "velocity": 0, "duration": 161}, {"note": 71, "velocity": 67, "duration": 222}, {"note": 73, "velocity": 67, "duration": 259}, {"note": 71, "velocity": 74, "duration": 408}, {"note": 0, "velocity": 0, "duration": 72}, {"note": 66, "velocity": 73, "duration": 483}, {"note": 0, "velocity": 0, "duration": 237}, {"note": 71, "velocity": 75, "duration": 96}, {"note": 0, "velocity": 0, "duration": 144}, {"note": 71, "velocity": 75, "duration": 187}, {"note": 73, "velocity": 74, "duration": 164}, {"note": 0, "velocity": 0, "duration": 76}, {"note": 71, "velocity": 74, "duration": 302}, {"note": 0, "velocity": 0, "duration": 178}, {"note": 68, "velocity": 67, "duration": 373}, {"note": 0, "velocity": 0, "duration": 107}, {"note": 71, "velocity": 69, "duration": 413}, {"note": 0, "velocity": 0, "duration": 67}, {"note": 70, "velocity": 77, "duration": 264}, {"note": 0, "velocity": 0, "duration": 216}, {"note": 66, "velocity": 69, "duration": 2045}, {"note": 0, "velocity": 0, "duration": 835}, {"note": 71, "velocity": 63, "duration": 87}, {"note": 0, "velocity": 0, "duration": 153}, {"note": 71, "velocity": 69, "duration": 91}, {"note": 0, "velocity": 0, "duration": 149}, {"note": 71, "velocity": 74, "duration": 150}, {"note": 0, "velocity": 0, "duration": 90}, {"note": 73, "velocity": 71, "duration": 177}, {"note": 0, "velocity": 0, "duration": 63}, {"note": 76, "velocity": 83, "duration": 496}, {"note": 73, "velocity": 67, "duration": 351}, {"note": 0, "velocity": 0, "duration": 129}, {"note": 71, "velocity": 81, "duration": 362}, {"note": 0, "velocity": 0, "duration": 118}, {"note": 71, "velocity": 68, "duration": 215}, {"note": 73, "velocity": 79, "duration": 260}, {"note": 71, "velocity": 76, "duration": 447}, {"note": 68, "velocity": 76, "duration": 498}, {"note": 71, "velocity": 83, "duration": 513}, {"note": 73, "velocity": 81, "duration": 382}, {"note": 0, "velocity": 0, "duration": 98}, {"note": 75, "velocity": 86, "duration": 276}, {"note": 0, "velocity": 0, "duration": 204}, {"note": 70, "velocity": 75, "duration": 339}, {"note": 0, "velocity": 0, "duration": 141}, {"note": 75, "velocity": 81, "duration": 218}, {"note": 0, "velocity": 0, "duration": 262}, {"note": 73, "velocity": 74, "duration": 275}, {"note": 0, "velocity": 0, "duration": 205}, {"note": 71, "velocity": 64, "duration": 738}, {"note": 0, "velocity": 0, "duration": 222}, {"note": 71, "velocity": 70, "duration": 226}, {"note": 78, "velocity": 87, "duration": 266}, {"note": 75, "velocity": 70, "duration": 474}, {"note": 70, "velocity": 85, "duration": 798}, {"note": 0, "velocity": 0, "duration": 162}, {"note": 70, "velocity": 62, "duration": 227}, {"note": 78, "velocity": 100, "duration": 264}, {"note": 75, "velocity": 64, "duration": 302}, {"note": 0, "velocity": 0, "duration": 178}, {"note": 68, "velocity": 67, "duration": 996}, {"note": 0, "velocity": 0, "duration": 444}, {"note": 68, "velocity": 71, "duration": 102}, {"note": 0, "velocity": 0, "duration": 138}, {"note": 68, "velocity": 64, "duration": 94}, {"note": 0, "velocity": 0, "duration": 146}, {"note": 68, "velocity": 66, "duration": 100}, {"note": 0, "velocity": 0, "duration": 140}, {"note": 68, "velocity": 87, "duration": 262}, {"note": 70, "velocity": 76, "duration": 340}, {"note": 0, "velocity": 0, "duration": 140}, {"note": 71, "velocity": 95, "duration": 333}, {"note": 0, "velocity": 0, "duration": 147}, {"note": 76, "velocity": 81, "duration": 326}, {"note": 0, "velocity": 0, "duration": 154}, {"note": 75, "velocity": 79, "duration": 933}, {"note": 75, "velocity": 73, "duration": 221}, {"note": 78, "velocity": 95, "duration": 232}, {"note": 75, "velocity": 68, "duration": 481}, {"note": 70, "velocity": 68, "duration": 818}, {"note": 0, "velocity": 0, "duration": 142}, {"note": 70, "velocity": 61, "duration": 227}, {"note": 78, "velocity": 87, "duration": 248}, {"note": 75, "velocity": 65, "duration": 254}, {"note": 78, "velocity": 93, "duration": 248}, {"note": 70, "velocity": 74, "duration": 391}, {"note": 0, "velocity": 0, "duration": 89}, {"note": 68, "velocity": 73, "duration": 668}, {"note": 0, "velocity": 0, "duration": 1252}, {"note": 76, "velocity": 85, "duration": 267}, {"note": 75, "velocity": 65, "duration": 226}, {"note": 71, "velocity": 68, "duration": 265}, {"note": 76, "velocity": 72, "duration": 280}, {"note": 75, "velocity": 65, "duration": 256}, {"note": 76, "velocity": 87, "duration": 331}, {"note": 75, "velocity": 81, "duration": 666}, {"note": 71, "velocity": 74, "duration": 720}, {"note": 71, "velocity": 74, "duration": 259}, {"note": 73, "velocity": 75, "duration": 239}, {"note": 71, "velocity": 73, "duration": 238}, {"note": 75, "velocity": 98, "duration": 460}, {"note": 70, "velocity": 93, "duration": 585}, {"note": 0, "velocity": 0, "duration": 135}, {"note": 70, "velocity": 108, "duration": 259}, {"note": 71, "velocity": 85, "duration": 233}, {"note": 73, "velocity": 71, "duration": 270}, {"note": 75, "velocity": 75, "duration": 517}, {"note": 71, "velocity": 61, "duration": 109}, {"note": 0, "velocity": 0, "duration": 131}, {"note": 71, "velocity": 75, "duration": 97}, {"note": 0, "velocity": 0, "duration": 143}, {"note": 71, "velocity": 74, "duration": 219}, {"note": 80, "velocity": 108, "duration": 210}, {"note": 78, "velocity": 117, "duration": 354}, {"note": 0, "velocity": 0, "duration": 126}, {"note": 73, "velocity": 98, "duration": 240}, {"note": 71, "velocity": 72, "duration": 824}, {"note": 0, "velocity": 0, "duration": 136}, {"note": 71, "velocity": 74, "duration": 242}, {"note": 73, "velocity": 69, "duration": 248}, {"note": 71, "velocity": 74, "duration": 254}, {"note": 75, "velocity": 93, "duration": 458}, {"note": 71, "velocity": 68, "duration": 107}, {"note": 0, "velocity": 0, "duration": 133}, {"note": 71, "velocity": 85, "duration": 150}, {"note": 0, "velocity": 0, "duration": 90}, {"note": 71, "velocity": 70, "duration": 105}, {"note": 0, "velocity": 0, "duration": 135}, {"note": 71, "velocity": 74, "duration": 108}, {"note": 0, "velocity": 0, "duration": 132}, {"note": 68, "velocity": 74, "duration": 90}, {"note": 0, "velocity": 0, "duration": 150}, {"note": 71, "velocity": 83, "duration": 169}, {"note": 0, "velocity": 0, "duration": 71}, {"note": 70, "velocity": 104, "duration": 1070}, {"note": 0, "velocity": 0, "duration": 130}, {"note": 71, "velocity": 93, "duration": 253}, {"note": 73, "velocity": 73, "duration": 224}, {"note": 71, "velocity": 79, "duration": 280}, {"note": 75, "velocity": 104, "duration": 370}, {"note": 0, "velocity": 0, "duration": 110}, {"note": 71, "velocity": 69, "duration": 86}, {"note": 0, "velocity": 0, "duration": 154}, {"note": 71, "velocity": 93, "duration": 93}, {"note": 0, "velocity": 0, "duration": 147}, {"note": 71, "velocity": 85, "duration": 90}, {"note": 0, "velocity": 0, "duration": 150}, {"note": 71, "velocity": 111, "duration": 178}, {"note": 0, "velocity": 0, "duration": 62}, {"note": 73, "velocity": 73, "duration": 269}, {"note": 75, "velocity": 77, "duration": 160}, {"note": 0, "velocity": 0, "duration": 80}, {"note": 76, "velocity": 111, "duration": 510}, {"note": 0, "velocity": 0, "duration": 210}, {"note": 75, "velocity": 85, "duration": 245}, {"note": 76, "velocity": 83, "duration": 564}, {"note": 0, "velocity": 0, "duration": 156}, {"note": 75, "velocity": 98, "duration": 226}, {"note": 78, "velocity": 117, "duration": 1900}, {"note": 82, "velocity": 100, "duration": 823}, {"note": 0, "velocity": 0, "duration": 137}, {"note": 78, "velocity": 112, "duration": 240}, {"note": 0, "velocity": 0, "duration": 240}, {"note": 76, "velocity": 87, "duration": 231}, {"note": 75, "velocity": 90, "duration": 249}, {"note": 76, "velocity": 104, "duration": 1450}, {"note": 0, "velocity": 0, "duration": 470}, {"note": 68, "velocity": 74, "duration": 227}, {"note": 76, "velocity": 87, "duration": 449}, {"note": 75, "velocity": 77, "duration": 132}, {"note": 0, "velocity": 0, "duration": 108}, {"note": 76, "velocity": 81, "duration": 330}, {"note": 0, "velocity": 0, "duration": 150}, {"note": 78, "velocity": 108, "duration": 326}, {"note": 0, "velocity": 0, "duration": 154}, {"note": 75, "velocity": 98, "duration": 800}, {"note": 0, "velocity": 0, "duration": 160}, {"note": 75, "velocity": 79, "duration": 240}, {"note": 78, "velocity": 90, "duration": 263}, {"note": 75, "velocity": 81, "duration": 413}, {"note": 0, "velocity": 0, "duration": 67}, {"note": 70, "velocity": 95, "duration": 773}, {"note": 0, "velocity": 0, "duration": 187}, {"note": 70, "velocity": 77, "duration": 286}, {"note": 78, "velocity": 93, "duration": 306}, {"note": 75, "velocity": 71, "duration": 142}, {"note": 0, "velocity": 0, "duration": 98}, {"note": 78, "velocity": 95, "duration": 166}, {"note": 0, "velocity": 0, "duration": 74}, {"note": 70, "velocity": 85, "duration": 295}, {"note": 0, "velocity": 0, "duration": 185}, {"note": 68, "velocity": 74, "duration": 1650}, {"note": 0, "velocity": 0, "duration": 270}, {"note": 76, "velocity": 74, "duration": 293}, {"note": 75, "velocity": 68, "duration": 235}, {"note": 71, "velocity": 63, "duration": 304}, {"note": 76, "velocity": 72, "duration": 270}, {"note": 75, "velocity": 74, "duration": 267}, {"note": 76, "velocity": 95, "duration": 214}, {"note": 75, "velocity": 86, "duration": 3030}, {"note": 0, "velocity": 0, "duration": 90}, {"note": 70, "velocity": 83, "duration": 361}, {"note": 0, "velocity": 0, "duration": 119}, {"note": 71, "velocity": 85, "duration": 136}, {"note": 0, "velocity": 0, "duration": 104}, {"note": 71, "velocity": 90, "duration": 458}, {"note": 68, "velocity": 75, "duration": 1585}]]