[[{"note": 65, "velocity": 100, "duration": 67}, {"note": 65, "velocity": 77, "duration": 67}, {"note": 68, "velocity": 107, "duration": 78}, {"note": 65, "velocity": 73, "duration": 69}, {"note": 68, "velocity": 112, "duration": 84}, {"note": 65, "velocity": 99, "duration": 105}, {"note": 0, "velocity": 0, "duration": 135}, {"note": 63, "velocity": 107, "duration": 87}, {"note": 65, "velocity": 100, "duration": 694}, {"note": 0, "velocity": 0, "duration": 266}, {"note": 65, "velocity": 96, "duration": 67}, {"note": 65, "velocity": 74, "duration": 74}, {"note": 68, "velocity": 112, "duration": 115}, {"note": 65, "velocity": 82, "duration": 120}, {"note": 68, "velocity": 117, "duration": 148}, {"note": 0, "velocity": 0, "duration": 92}, {"note": 65, "velocity": 92, "duration": 142}, {"note": 63, "velocity": 100, "duration": 109}, {"note": 65, "velocity": 99, "duration": 593}, {"note": 0, "velocity": 0, "duration": 367}, {"note": 56, "velocity": 99, "duration": 111}, {"note": 58, "velocity": 92, "duration": 119}, {"note": 61, "velocity": 97, "duration": 128}, {"note": 58, "velocity": 100, "duration": 144}, {"note": 61, "velocity": 97, "duration": 185}, {"note": 61, "velocity": 102, "duration": 227}, {"note": 56, "velocity": 96, "duration": 254}, {"note": 58, "velocity": 100, "duration": 112}, {"note": 61, "velocity": 100, "duration": 595}, {"note": 63, "velocity": 117, "duration": 111}, {"note": 65, "velocity": 72, "duration": 115}, {"note": 63, "velocity": 100, "duration": 124}, {"note": 65, "velocity": 85, "duration": 74}, {"note": 58, "velocity": 97, "duration": 155}, {"note": 0, "velocity": 0, "duration": 85}, {"note": 61, "velocity": 93, "duration": 97}, {"note": 63, "velocity": 97, "duration": 939}, {"note": 0, "velocity": 0, "duration": 141}, {"note": 63, "velocity": 117, "duration": 142}, {"note": 65, "velocity": 76, "duration": 105}, {"note": 68, "velocity": 107, "duration": 126}, {"note": 65, "velocity": 92, "duration": 85}, {"note": 68, "velocity": 112, "duration": 109}, {"note": 65, "velocity": 93, "duration": 169}, {"note": 0, "velocity": 0, "duration": 71}, {"note": 63, "velocity": 95, "duration": 99}, {"note": 65, "velocity": 102, "duration": 724}, {"note": 0, "velocity": 0, "duration": 236}, {"note": 63, "velocity": 117, "duration": 102}, {"note": 65, "velocity": 96, "duration": 88}, {"note": 68, "velocity": 112, "duration": 118}, {"note": 65, "velocity": 95, "duration": 113}, {"note": 63, "velocity": 95, "duration": 116}, {"note": 68, "velocity": 99, "duration": 147}, {"note": 0, "velocity": 0, "duration": 93}, {"note": 65, "velocity": 93, "duration": 686}, {"note": 0, "velocity": 0, "duration": 394}, {"note": 56, "velocity": 95, "duration": 109}, {"note": 58, "velocity": 73, "duration": 134}, {"note": 61, "velocity": 97, "duration": 137}, {"note": 58, "velocity": 88, "duration": 109}, {"note": 61, "velocity": 90, "duration": 246}, {"note": 0, "velocity": 0, "duration": 114}, {"note": 58, "velocity": 102, "duration": 101}, {"note": 56, "velocity": 97, "duration": 143}, {"note": 58, "velocity": 95, "duration": 121}, {"note": 0, "velocity": 0, "duration": 119}, {"note": 61, "velocity": 100, "duration": 575}, {"note": 63, "velocity": 112, "duration": 45}, {"note": 0, "velocity": 0, "duration": 75}, {"note": 63, "velocity": 107, "duration": 129}, {"note": 0, "velocity": 0, "duration": 111}, {"note": 61, "velocity": 100, "duration": 50}, {"note": 0, "velocity": 0, "duration": 70}, {"note": 61, "velocity": 100, "duration": 89}, {"note": 63, "velocity": 97, "duration": 164}, {"note": 0, "velocity": 0, "duration": 76}, {"note": 65, "velocity": 99, "duration": 975}, {"note": 0, "velocity": 0, "duration": 105}, {"note": 61, "velocity": 122, "duration": 121}, {"note": 73, "velocity": 102, "duration": 67}, {"note": 73, "velocity": 107, "duration": 122}, {"note": 72, "velocity": 100, "duration": 122}, {"note": 73, "velocity": 122, "duration": 193}, {"note": 70, "velocity": 112, "duration": 153}, {"note": 65, "velocity": 85, "duration": 110}, {"note": 68, "velocity": 117, "duration": 765}, {"note": 0, "velocity": 0, "duration": 195}, {"note": 63, "velocity": 127, "duration": 101}, {"note": 61, "velocity": 97, "duration": 60}, {"note": 61, "velocity": 117, "duration": 102}, {"note": 61, "velocity": 107, "duration": 50}, {"note": 0, "velocity": 0, "duration": 70}, {"note": 61, "velocity": 122, "duration": 90}, {"note": 58, "velocity": 100, "duration": 156}, {"note": 0, "velocity": 0, "duration": 84}, {"note": 61, "velocity": 117, "duration": 77}, {"note": 65, "velocity": 100, "duration": 778}, {"note": 0, "velocity": 0, "duration": 182}, {"note": 61, "velocity": 127, "duration": 120}, {"note": 73, "velocity": 122, "duration": 62}, {"note": 73, "velocity": 112, "duration": 115}, {"note": 72, "velocity": 107, "duration": 57}, {"note": 0, "velocity": 0, "duration": 63}, {"note": 72, "velocity": 122, "duration": 147}, {"note": 70, "velocity": 102, "duration": 151}, {"note": 0, "velocity": 0, "duration": 89}, {"note": 72, "velocity": 112, "duration": 124}, {"note": 70, "velocity": 117, "duration": 147}, {"note": 0, "velocity": 0, "duration": 93}, {"note": 65, "velocity": 100, "duration": 112}, {"note": 68, "velocity": 127, "duration": 501}, {"note": 0, "velocity": 0, "duration": 99}, {"note": 61, "velocity": 117, "duration": 99}, {"note": 63, "velocity": 93, "duration": 50}, {"note": 0, "velocity": 0, "duration": 70}, {"note": 63, "velocity": 117, "duration": 112}, {"note": 61, "velocity": 97, "duration": 58}, {"note": 0, "velocity": 0, "duration": 62}, {"note": 61, "velocity": 117, "duration": 123}, {"note": 0, "velocity": 0, "duration": 117}, {"note": 58, "velocity": 112, "duration": 118}, {"note": 61, "velocity": 122, "duration": 1319}, {"note": 0, "velocity": 0, "duration": 9361}, {"note": 65, "velocity": 100, "duration": 67}, {"note": 65, "velocity": 77, "duration": 67}, {"note": 68, "velocity": 107, "duration": 78}, {"note": 65, "velocity": 73, "duration": 69}, {"note": 68, "velocity": 112, "duration": 84}, {"note": 65, "velocity": 99, "duration": 105}, {"note": 0, "velocity": 0, "duration": 135}, {"note": 63, "velocity": 107, "duration": 87}, {"note": 65, "velocity": 100, "duration": 694}, {"note": 0, "velocity": 0, "duration": 266}, {"note": 68, "velocity": 96, "duration": 67}, {"note": 65, "velocity": 74, "duration": 74}, {"note": 63, "velocity": 112, "duration": 115}, {"note": 65, "velocity": 82, "duration": 120}, {"note": 68, "velocity": 117, "duration": 148}, {"note": 0, "velocity": 0, "duration": 74}, {"note": 68, "velocity": 92, "duration": 160}, {"note": 63, "velocity": 100, "duration": 109}, {"note": 65, "velocity": 99, "duration": 593}, {"note": 0, "velocity": 0, "duration": 367}, {"note": 56, "velocity": 99, "duration": 111}, {"note": 58, "velocity": 92, "duration": 119}, {"note": 61, "velocity": 97, "duration": 128}, {"note": 58, "velocity": 100, "duration": 144}, {"note": 61, "velocity": 97, "duration": 185}, {"note": 58, "velocity": 102, "duration": 227}, {"note": 56, "velocity": 96, "duration": 254}, {"note": 58, "velocity": 100, "duration": 112}, {"note": 61, "velocity": 100, "duration": 595}, {"note": 63, "velocity": 117, "duration": 111}, {"note": 61, "velocity": 96, "duration": 115}, {"note": 63, "velocity": 100, "duration": 124}, {"note": 61, "velocity": 85, "duration": 74}, {"note": 58, "velocity": 97, "duration": 155}, {"note": 0, "velocity": 0, "duration": 85}, {"note": 61, "velocity": 93, "duration": 97}, {"note": 63, "velocity": 97, "duration": 939}, {"note": 0, "velocity": 0, "duration": 141}, {"note": 63, "velocity": 117, "duration": 142}, {"note": 65, "velocity": 76, "duration": 105}, {"note": 68, "velocity": 107, "duration": 126}, {"note": 65, "velocity": 92, "duration": 85}, {"note": 68, "velocity": 112, "duration": 109}, {"note": 65, "velocity": 93, "duration": 169}, {"note": 0, "velocity": 0, "duration": 71}, {"note": 63, "velocity": 95, "duration": 99}, {"note": 65, "velocity": 102, "duration": 724}, {"note": 0, "velocity": 0, "duration": 236}, {"note": 63, "velocity": 117, "duration": 102}, {"note": 65, "velocity": 96, "duration": 88}, {"note": 68, "velocity": 112, "duration": 118}, {"note": 65, "velocity": 95, "duration": 113}, {"note": 63, "velocity": 95, "duration": 116}, {"note": 68, "velocity": 99, "duration": 147}, {"note": 0, "velocity": 0, "duration": 93}, {"note": 65, "velocity": 93, "duration": 686}, {"note": 0, "velocity": 0, "duration": 394}, {"note": 56, "velocity": 95, "duration": 109}, {"note": 58, "velocity": 73, "duration": 134}, {"note": 61, "velocity": 97, "duration": 137}, {"note": 58, "velocity": 88, "duration": 109}, {"note": 61, "velocity": 90, "duration": 246}, {"note": 0, "velocity": 0, "duration": 114}, {"note": 58, "velocity": 102, "duration": 101}, {"note": 56, "velocity": 97, "duration": 143}, {"note": 58, "velocity": 95, "duration": 121}, {"note": 0, "velocity": 0, "duration": 119}, {"note": 61, "velocity": 100, "duration": 575}, {"note": 63, "velocity": 112, "duration": 45}, {"note": 0, "velocity": 0, "duration": 75}, {"note": 63, "velocity": 107, "duration": 129}, {"note": 0, "velocity": 0, "duration": 111}, {"note": 61, "velocity": 100, "duration": 50}, {"note": 0, "velocity": 0, "duration": 70}, {"note": 61, "velocity": 100, "duration": 89}, {"note": 63, "velocity": 97, "duration": 164}, {"note": 0, "velocity": 0, "duration": 76}, {"note": 65, "velocity": 99, "duration": 975}, {"note": 0, "velocity": 0, "duration": 105}, {"note": 61, "velocity": 122, "duration": 121}, {"note": 73, "velocity": 102, "duration": 67}, {"note": 73, "velocity": 107, "duration": 122}, {"note": 72, "velocity": 100, "duration": 122}, {"note": 73, "velocity": 122, "duration": 193}, {"note": 70, "velocity": 112, "duration": 153}, {"note": 65, "velocity": 85, "duration": 110}, {"note": 68, "velocity": 117, "duration": 765}, {"note": 0, "velocity": 0, "duration": 195}, {"note": 63, "velocity": 127, "duration": 101}, {"note": 61, "velocity": 97, "duration": 60}, {"note": 61, "velocity": 117, "duration": 102}, {"note": 61, "velocity": 107, "duration": 50}, {"note": 0, "velocity": 0, "duration": 70}, {"note": 61, "velocity": 122, "duration": 90}, {"note": 58, "velocity": 100, "duration": 156}, {"note": 0, "velocity": 0, "duration": 84}, {"note": 61, "velocity": 117, "duration": 77}, {"note": 65, "velocity": 100, "duration": 778}, {"note": 0, "velocity": 0, "duration": 182}, {"note": 61, "velocity": 127, "duration": 120}, {"note": 73, "velocity": 122, "duration": 62}, {"note": 73, "velocity": 112, "duration": 115}, {"note": 72, "velocity": 107, "duration": 57}, {"note": 0, "velocity": 0, "duration": 63}, {"note": 72, "velocity": 122, "duration": 147}, {"note": 70, "velocity": 102, "duration": 151}, {"note": 0, "velocity": 0, "duration": 89}, {"note": 72, "velocity": 112, "duration": 124}, {"note": 70, "velocity": 117, "duration": 147}, {"note": 0, "velocity": 0, "duration": 93}, {"note": 65, "velocity": 100, "duration": 112}, {"note": 68, "velocity": 127, "duration": 501}, {"note": 0, "velocity": 0, "duration": 99}, {"note": 70, "velocity": 127, "duration": 101}, {"note": 72, "velocity": 102, "duration": 129}, {"note": 73, "velocity": 127, "duration": 105}, {"note": 72, "velocity": 117, "duration": 119}, {"note": 73, "velocity": 127, "duration": 116}, {"note": 0, "velocity": 0, "duration": 124}, {"note": 70, "velocity": 127, "duration": 96}, {"note": 72, "velocity": 122, "duration": 906}, {"note": 0, "velocity": 0, "duration": 174}, {"note": 73, "velocity": 127, "duration": 119}, {"note": 72, "velocity": 93, "duration": 129}, {"note": 73, "velocity": 122, "duration": 127}, {"note": 72, "velocity": 95, "duration": 110}, {"note": 73, "velocity": 127, "duration": 114}, {"note": 73, "velocity": 127, "duration": 149}, {"note": 0, "velocity": 0, "duration": 91}, {"note": 75, "velocity": 127, "duration": 116}, {"note": 72, "velocity": 107, "duration": 157}, {"note": 0, "velocity": 0, "duration": 83}, {"note": 70, "velocity": 122, "duration": 115}, {"note": 68, "velocity": 99, "duration": 389}, {"note": 0, "velocity": 0, "duration": 211}, {"note": 70, "velocity": 127, "duration": 116}, {"note": 68, "velocity": 122, "duration": 125}, {"note": 70, "velocity": 117, "duration": 105}, {"note": 68, "velocity": 122, "duration": 103}, {"note": 63, "velocity": 117, "duration": 243}, {"note": 68, "velocity": 127, "duration": 114}, {"note": 65, "velocity": 122, "duration": 865}, {"note": 0, "velocity": 0, "duration": 215}, {"note": 61, "velocity": 127, "duration": 128}, {"note": 73, "velocity": 127, "duration": 58}, {"note": 0, "velocity": 0, "duration": 62}, {"note": 73, "velocity": 122, "duration": 108}, {"note": 72, "velocity": 102, "duration": 125}, {"note": 73, "velocity": 127, "duration": 166}, {"note": 70, "velocity": 122, "duration": 140}, {"note": 0, "velocity": 0, "duration": 100}, {"note": 72, "velocity": 117, "duration": 95}, {"note": 70, "velocity": 127, "duration": 193}, {"note": 65, "velocity": 107, "duration": 104}, {"note": 68, "velocity": 122, "duration": 442}, {"note": 0, "velocity": 0, "duration": 158}, {"note": 63, "velocity": 127, "duration": 89}, {"note": 61, "velocity": 122, "duration": 54}, {"note": 0, "velocity": 0, "duration": 66}, {"note": 61, "velocity": 117, "duration": 55}, {"note": 0, "velocity": 0, "duration": 65}, {"note": 61, "velocity": 117, "duration": 54}, {"note": 0, "velocity": 0, "duration": 66}, {"note": 61, "velocity": 117, "duration": 127}, {"note": 0, "velocity": 0, "duration": 113}, {"note": 58, "velocity": 127, "duration": 111}, {"note": 61, "velocity": 127, "duration": 905}, {"note": 0, "velocity": 0, "duration": 1135}, {"note": 61, "velocity": 112, "duration": 107}, {"note": 0, "velocity": 0, "duration": 83}, {"note": 73, "velocity": 96, "duration": 73}, {"note": 73, "velocity": 107, "duration": 99}, {"note": 72, "velocity": 93, "duration": 82}, {"note": 72, "velocity": 112, "duration": 232}, {"note": 70, "velocity": 117, "duration": 104}, {"note": 0, "velocity": 0, "duration": 82}, {"note": 72, "velocity": 112, "duration": 107}, {"note": 70, "velocity": 117, "duration": 191}, {"note": 65, "velocity": 99, "duration": 133}, {"note": 68, "velocity": 107, "duration": 688}, {"note": 63, "velocity": 122, "duration": 141}, {"note": 61, "velocity": 93, "duration": 85}, {"note": 0, "velocity": 0, "duration": 61}, {"note": 61, "velocity": 102, "duration": 108}, {"note": 61, "velocity": 97, "duration": 98}, {"note": 61, "velocity": 117, "duration": 1237}, {"note": 0, "velocity": 0, "duration": 423}, {"note": 58, "velocity": 117, "duration": 508}, {"note": 61, "velocity": 117, "duration": 2597}]]