[[{"note": 76, "velocity": 122, "duration": 81}, {"note": 0, "velocity": 0, "duration": 159}, {"note": 76, "velocity": 117, "duration": 72}, {"note": 0, "velocity": 0, "duration": 168}, {"note": 76, "velocity": 97, "duration": 37}, {"note": 0, "velocity": 0, "duration": 83}, {"note": 76, "velocity": 112, "duration": 234}, {"note": 0, "velocity": 0, "duration": 126}, {"note": 75, "velocity": 127, "duration": 123}, {"note": 0, "velocity": 0, "duration": 117}, {"note": 73, "velocity": 127, "duration": 113}, {"note": 0, "velocity": 0, "duration": 127}, {"note": 71, "velocity": 127, "duration": 184}, {"note": 68, "velocity": 127, "duration": 1182}, {"note": 0, "velocity": 0, "duration": 978}, {"note": 73, "velocity": 127, "duration": 77}, {"note": 0, "velocity": 0, "duration": 163}, {"note": 73, "velocity": 127, "duration": 94}, {"note": 0, "velocity": 0, "duration": 146}, {"note": 73, "velocity": 112, "duration": 46}, {"note": 0, "velocity": 0, "duration": 74}, {"note": 73, "velocity": 112, "duration": 238}, {"note": 0, "velocity": 0, "duration": 122}, {"note": 71, "velocity": 117, "duration": 127}, {"note": 0, "velocity": 0, "duration": 113}, {"note": 64, "velocity": 97, "duration": 120}, {"note": 0, "velocity": 0, "duration": 120}, {"note": 71, "velocity": 117, "duration": 86}, {"note": 68, "velocity": 112, "duration": 1734}, {"note": 0, "velocity": 0, "duration": 546}, {"note": 66, "velocity": 112, "duration": 53}, {"note": 0, "velocity": 0, "duration": 67}, {"note": 66, "velocity": 96, "duration": 45}, {"note": 0, "velocity": 0, "duration": 75}, {"note": 66, "velocity": 112, "duration": 106}, {"note": 0, "velocity": 0, "duration": 134}, {"note": 68, "velocity": 122, "duration": 93}, {"note": 66, "velocity": 127, "duration": 139}, {"note": 0, "velocity": 0, "duration": 221}, {"note": 64, "velocity": 102, "duration": 104}, {"note": 0, "velocity": 0, "duration": 136}, {"note": 68, "velocity": 122, "duration": 75}, {"note": 0, "velocity": 0, "duration": 165}, {"note": 66, "velocity": 117, "duration": 1747}, {"note": 0, "velocity": 0, "duration": 653}, {"note": 71, "velocity": 127, "duration": 95}, {"note": 0, "velocity": 0, "duration": 145}, {"note": 71, "velocity": 127, "duration": 69}, {"note": 0, "velocity": 0, "duration": 171}, {"note": 73, "velocity": 127, "duration": 101}, {"note": 71, "velocity": 127, "duration": 100}, {"note": 0, "velocity": 0, "duration": 260}, {"note": 59, "velocity": 112, "duration": 126}, {"note": 0, "velocity": 0, "duration": 114}, {"note": 61, "velocity": 127, "duration": 120}, {"note": 0, "velocity": 0, "duration": 120}, {"note": 64, "velocity": 127, "duration": 1434}, {"note": 0, "velocity": 0, "duration": 966}, {"note": 76, "velocity": 122, "duration": 81}, {"note": 0, "velocity": 0, "duration": 159}, {"note": 76, "velocity": 117, "duration": 72}, {"note": 0, "velocity": 0, "duration": 168}, {"note": 76, "velocity": 97, "duration": 37}, {"note": 0, "velocity": 0, "duration": 83}, {"note": 76, "velocity": 112, "duration": 234}, {"note": 0, "velocity": 0, "duration": 126}, {"note": 75, "velocity": 127, "duration": 123}, {"note": 0, "velocity": 0, "duration": 117}, {"note": 73, "velocity": 127, "duration": 113}, {"note": 0, "velocity": 0, "duration": 127}, {"note": 71, "velocity": 127, "duration": 184}, {"note": 68, "velocity": 127, "duration": 1182}, {"note": 0, "velocity": 0, "duration": 978}, {"note": 73, "velocity": 127, "duration": 77}, {"note": 0, "velocity": 0, "duration": 163}, {"note": 73, "velocity": 127, "duration": 94}, {"note": 0, "velocity": 0, "duration": 146}, {"note": 73, "velocity": 112, "duration": 46}, {"note": 0, "velocity": 0, "duration": 74}, {"note": 73, "velocity": 112, "duration": 238}, {"note": 0, "velocity": 0, "duration": 122}, {"note": 71, "velocity": 117, "duration": 127}, {"note": 0, "velocity": 0, "duration": 113}, {"note": 64, "velocity": 97, "duration": 120}, {"note": 0, "velocity": 0, "duration": 120}, {"note": 71, "velocity": 117, "duration": 86}, {"note": 68, "velocity": 112, "duration": 1734}, {"note": 0, "velocity": 0, "duration": 546}, {"note": 66, "velocity": 112, "duration": 53}, {"note": 0, "velocity": 0, "duration": 67}, {"note": 66, "velocity": 96, "duration": 45}, {"note": 0, "velocity": 0, "duration": 75}, {"note": 66, "velocity": 112, "duration": 106}, {"note": 0, "velocity": 0, "duration": 134}, {"note": 68, "velocity": 122, "duration": 93}, {"note": 66, "velocity": 127, "duration": 139}, {"note": 0, "velocity": 0, "duration": 221}, {"note": 64, "velocity": 102, "duration": 104}, {"note": 0, "velocity": 0, "duration": 136}, {"note": 68, "velocity": 122, "duration": 75}, {"note": 0, "velocity": 0, "duration": 165}, {"note": 66, "velocity": 117, "duration": 1747}, {"note": 0, "velocity": 0, "duration": 653}, {"note": 71, "velocity": 127, "duration": 95}, {"note": 0, "velocity": 0, "duration": 145}, {"note": 71, "velocity": 127, "duration": 69}, {"note": 0, "velocity": 0, "duration": 171}, {"note": 73, "velocity": 127, "duration": 101}, {"note": 71, "velocity": 127, "duration": 100}, {"note": 0, "velocity": 0, "duration": 260}, {"note": 59, "velocity": 112, "duration": 126}, {"note": 0, "velocity": 0, "duration": 114}, {"note": 61, "velocity": 127, "duration": 120}, {"note": 0, "velocity": 0, "duration": 120}, {"note": 64, "velocity": 127, "duration": 1434}, {"note": 0, "velocity": 0, "duration": 966}, {"note": 80, "velocity": 127, "duration": 145}, {"note": 0, "velocity": 0, "duration": 95}, {"note": 80, "velocity": 122, "duration": 146}, {"note": 0, "velocity": 0, "duration": 94}, {"note": 80, "velocity": 127, "duration": 148}, {"note": 0, "velocity": 0, "duration": 92}, {"note": 80, "velocity": 127, "duration": 203}, {"note": 78, "velocity": 127, "duration": 132}, {"note": 0, "velocity": 0, "duration": 108}, {"note": 78, "velocity": 127, "duration": 102}, {"note": 0, "velocity": 0, "duration": 138}, {"note": 76, "velocity": 122, "duration": 78}, {"note": 78, "velocity": 127, "duration": 1634}, {"note": 0, "velocity": 0, "duration": 646}, {"note": 78, "velocity": 127, "duration": 95}, {"note": 0, "velocity": 0, "duration": 145}, {"note": 78, "velocity": 127, "duration": 91}, {"note": 0, "velocity": 0, "duration": 149}, {"note": 78, "velocity": 112, "duration": 50}, {"note": 0, "velocity": 0, "duration": 70}, {"note": 78, "velocity": 122, "duration": 245}, {"note": 0, "velocity": 0, "duration": 115}, {"note": 76, "velocity": 117, "duration": 99}, {"note": 0, "velocity": 0, "duration": 141}, {"note": 73, "velocity": 127, "duration": 87}, {"note": 0, "velocity": 0, "duration": 153}, {"note": 71, "velocity": 112, "duration": 1588}, {"note": 0, "velocity": 0, "duration": 812}, {"note": 80, "velocity": 127, "duration": 48}, {"note": 0, "velocity": 0, "duration": 72}, {"note": 80, "velocity": 96, "duration": 50}, {"note": 0, "velocity": 0, "duration": 70}, {"note": 80, "velocity": 127, "duration": 112}, {"note": 0, "velocity": 0, "duration": 128}, {"note": 80, "velocity": 122, "duration": 46}, {"note": 0, "velocity": 0, "duration": 74}, {"note": 80, "velocity": 127, "duration": 179}, {"note": 0, "velocity": 0, "duration": 181}, {"note": 78, "velocity": 127, "duration": 82}, {"note": 0, "velocity": 0, "duration": 158}, {"note": 78, "velocity": 127, "duration": 100}, {"note": 0, "velocity": 0, "duration": 140}, {"note": 76, "velocity": 107, "duration": 73}, {"note": 78, "velocity": 117, "duration": 1826}, {"note": 0, "velocity": 0, "duration": 454}, {"note": 71, "velocity": 112, "duration": 152}, {"note": 0, "velocity": 0, "duration": 88}, {"note": 76, "velocity": 100, "duration": 199}, {"note": 71, "velocity": 89, "duration": 85}, {"note": 79, "velocity": 117, "duration": 338}, {"note": 78, "velocity": 127, "duration": 171}, {"note": 0, "velocity": 0, "duration": 69}, {"note": 78, "velocity": 127, "duration": 225}, {"note": 76, "velocity": 127, "duration": 2024}, {"note": 0, "velocity": 0, "duration": 376}, {"note": 76, "velocity": 122, "duration": 81}, {"note": 0, "velocity": 0, "duration": 159}, {"note": 76, "velocity": 117, "duration": 72}, {"note": 0, "velocity": 0, "duration": 168}, {"note": 76, "velocity": 97, "duration": 37}, {"note": 0, "velocity": 0, "duration": 83}, {"note": 76, "velocity": 112, "duration": 234}, {"note": 0, "velocity": 0, "duration": 126}, {"note": 75, "velocity": 127, "duration": 123}, {"note": 0, "velocity": 0, "duration": 117}, {"note": 73, "velocity": 127, "duration": 113}, {"note": 0, "velocity": 0, "duration": 127}, {"note": 71, "velocity": 127, "duration": 184}, {"note": 68, "velocity": 127, "duration": 1920}, {"note": 0, "velocity": 0, "duration": 240}, {"note": 73, "velocity": 127, "duration": 77}, {"note": 0, "velocity": 0, "duration": 163}, {"note": 73, "velocity": 127, "duration": 94}, {"note": 0, "velocity": 0, "duration": 146}, {"note": 73, "velocity": 112, "duration": 46}, {"note": 0, "velocity": 0, "duration": 74}, {"note": 73, "velocity": 112, "duration": 238}, {"note": 0, "velocity": 0, "duration": 122}, {"note": 71, "velocity": 117, "duration": 127}, {"note": 0, "velocity": 0, "duration": 113}, {"note": 64, "velocity": 97, "duration": 120}, {"note": 0, "velocity": 0, "duration": 120}, {"note": 71, "velocity": 117, "duration": 86}, {"note": 68, "velocity": 112, "duration": 1734}, {"note": 0, "velocity": 0, "duration": 546}, {"note": 66, "velocity": 112, "duration": 53}, {"note": 0, "velocity": 0, "duration": 67}, {"note": 66, "velocity": 96, "duration": 45}, {"note": 0, "velocity": 0, "duration": 75}, {"note": 66, "velocity": 112, "duration": 106}, {"note": 0, "velocity": 0, "duration": 134}, {"note": 68, "velocity": 122, "duration": 93}, {"note": 66, "velocity": 127, "duration": 139}, {"note": 0, "velocity": 0, "duration": 221}, {"note": 64, "velocity": 102, "duration": 104}, {"note": 0, "velocity": 0, "duration": 136}, {"note": 68, "velocity": 122, "duration": 75}, {"note": 0, "velocity": 0, "duration": 165}, {"note": 66, "velocity": 117, "duration": 2160}, {"note": 0, "velocity": 0, "duration": 240}, {"note": 71, "velocity": 127, "duration": 95}, {"note": 0, "velocity": 0, "duration": 145}, {"note": 71, "velocity": 127, "duration": 69}, {"note": 0, "velocity": 0, "duration": 171}, {"note": 73, "velocity": 127, "duration": 101}, {"note": 71, "velocity": 127, "duration": 100}, {"note": 0, "velocity": 0, "duration": 260}, {"note": 59, "velocity": 112, "duration": 126}, {"note": 0, "velocity": 0, "duration": 114}, {"note": 61, "velocity": 127, "duration": 120}, {"note": 0, "velocity": 0, "duration": 120}, {"note": 64, "velocity": 127, "duration": 2160}, {"note": 0, "velocity": 0, "duration": 240}, {"note": 80, "velocity": 127, "duration": 145}, {"note": 0, "velocity": 0, "duration": 95}, {"note": 80, "velocity": 122, "duration": 146}, {"note": 0, "velocity": 0, "duration": 94}, {"note": 80, "velocity": 127, "duration": 148}, {"note": 0, "velocity": 0, "duration": 92}, {"note": 80, "velocity": 127, "duration": 203}, {"note": 78, "velocity": 127, "duration": 132}, {"note": 0, "velocity": 0, "duration": 108}, {"note": 78, "velocity": 127, "duration": 102}, {"note": 0, "velocity": 0, "duration": 138}, {"note": 76, "velocity": 122, "duration": 78}, {"note": 78, "velocity": 127, "duration": 2040}, {"note": 0, "velocity": 0, "duration": 240}, {"note": 78, "velocity": 127, "duration": 95}, {"note": 0, "velocity": 0, "duration": 145}, {"note": 78, "velocity": 127, "duration": 91}, {"note": 0, "velocity": 0, "duration": 149}, {"note": 78, "velocity": 112, "duration": 50}, {"note": 0, "velocity": 0, "duration": 70}, {"note": 78, "velocity": 122, "duration": 245}, {"note": 0, "velocity": 0, "duration": 115}, {"note": 76, "velocity": 117, "duration": 99}, {"note": 0, "velocity": 0, "duration": 141}, {"note": 73, "velocity": 127, "duration": 87}, {"note": 0, "velocity": 0, "duration": 153}, {"note": 71, "velocity": 112, "duration": 2160}, {"note": 0, "velocity": 0, "duration": 240}, {"note": 80, "velocity": 127, "duration": 48}, {"note": 0, "velocity": 0, "duration": 72}, {"note": 80, "velocity": 96, "duration": 50}, {"note": 0, "velocity": 0, "duration": 70}, {"note": 80, "velocity": 127, "duration": 112}, {"note": 0, "velocity": 0, "duration": 128}, {"note": 80, "velocity": 122, "duration": 46}, {"note": 0, "velocity": 0, "duration": 74}, {"note": 80, "velocity": 127, "duration": 179}, {"note": 0, "velocity": 0, "duration": 181}, {"note": 78, "velocity": 127, "duration": 82}, {"note": 0, "velocity": 0, "duration": 158}, {"note": 78, "velocity": 127, "duration": 100}, {"note": 0, "velocity": 0, "duration": 140}, {"note": 76, "velocity": 107, "duration": 73}, {"note": 78, "velocity": 117, "duration": 2040}, {"note": 0, "velocity": 0, "duration": 240}, {"note": 71, "velocity": 112, "duration": 152}, {"note": 0, "velocity": 0, "duration": 88}, {"note": 76, "velocity": 100, "duration": 199}, {"note": 71, "velocity": 89, "duration": 85}, {"note": 79, "velocity": 117, "duration": 338}, {"note": 78, "velocity": 127, "duration": 171}, {"note": 0, "velocity": 0, "duration": 69}, {"note": 78, "velocity": 127, "duration": 225}, {"note": 76, "velocity": 127, "duration": 2024}, {"note": 0, "velocity": 0, "duration": 11896}, {"note": 80, "velocity": 127, "duration": 145}, {"note": 0, "velocity": 0, "duration": 95}, {"note": 80, "velocity": 122, "duration": 146}, {"note": 0, "velocity": 0, "duration": 94}, {"note": 80, "velocity": 127, "duration": 148}, {"note": 0, "velocity": 0, "duration": 92}, {"note": 80, "velocity": 127, "duration": 203}, {"note": 78, "velocity": 127, "duration": 132}, {"note": 0, "velocity": 0, "duration": 108}, {"note": 78, "velocity": 127, "duration": 102}, {"note": 0, "velocity": 0, "duration": 138}, {"note": 76, "velocity": 122, "duration": 78}, {"note": 78, "velocity": 127, "duration": 2040}, {"note": 0, "velocity": 0, "duration": 240}, {"note": 78, "velocity": 127, "duration": 95}, {"note": 0, "velocity": 0, "duration": 145}, {"note": 78, "velocity": 127, "duration": 91}, {"note": 0, "velocity": 0, "duration": 149}, {"note": 78, "velocity": 112, "duration": 50}, {"note": 0, "velocity": 0, "duration": 70}, {"note": 78, "velocity": 122, "duration": 245}, {"note": 0, "velocity": 0, "duration": 115}, {"note": 76, "velocity": 117, "duration": 99}, {"note": 0, "velocity": 0, "duration": 141}, {"note": 73, "velocity": 127, "duration": 87}, {"note": 0, "velocity": 0, "duration": 153}, {"note": 71, "velocity": 112, "duration": 2160}, {"note": 0, "velocity": 0, "duration": 240}, {"note": 80, "velocity": 127, "duration": 48}, {"note": 0, "velocity": 0, "duration": 72}, {"note": 80, "velocity": 96, "duration": 50}, {"note": 0, "velocity": 0, "duration": 70}, {"note": 80, "velocity": 127, "duration": 112}, {"note": 0, "velocity": 0, "duration": 128}, {"note": 80, "velocity": 122, "duration": 46}, {"note": 0, "velocity": 0, "duration": 74}, {"note": 80, "velocity": 127, "duration": 179}, {"note": 0, "velocity": 0, "duration": 181}, {"note": 78, "velocity": 127, "duration": 82}, {"note": 0, "velocity": 0, "duration": 158}, {"note": 78, "velocity": 127, "duration": 100}, {"note": 0, "velocity": 0, "duration": 140}, {"note": 76, "velocity": 107, "duration": 73}, {"note": 78, "velocity": 117, "duration": 2040}, {"note": 0, "velocity": 0, "duration": 240}, {"note": 71, "velocity": 112, "duration": 152}, {"note": 0, "velocity": 0, "duration": 88}, {"note": 76, "velocity": 100, "duration": 199}, {"note": 71, "velocity": 89, "duration": 85}, {"note": 79, "velocity": 117, "duration": 338}, {"note": 78, "velocity": 127, "duration": 171}, {"note": 0, "velocity": 0, "duration": 69}, {"note": 78, "velocity": 127, "duration": 225}, {"note": 76, "velocity": 127, "duration": 2024}, {"note": 0, "velocity": 0, "duration": 376}, {"note": 80, "velocity": 127, "duration": 145}, {"note": 0, "velocity": 0, "duration": 95}, {"note": 80, "velocity": 122, "duration": 146}, {"note": 0, "velocity": 0, "duration": 94}, {"note": 80, "velocity": 127, "duration": 148}, {"note": 0, "velocity": 0, "duration": 92}, {"note": 80, "velocity": 127, "duration": 203}, {"note": 78, "velocity": 127, "duration": 132}, {"note": 0, "velocity": 0, "duration": 108}, {"note": 78, "velocity": 127, "duration": 102}, {"note": 0, "velocity": 0, "duration": 138}, {"note": 76, "velocity": 122, "duration": 78}, {"note": 78, "velocity": 127, "duration": 2040}, {"note": 0, "velocity": 0, "duration": 240}, {"note": 78, "velocity": 127, "duration": 95}, {"note": 0, "velocity": 0, "duration": 145}, {"note": 78, "velocity": 127, "duration": 91}, {"note": 0, "velocity": 0, "duration": 149}, {"note": 78, "velocity": 112, "duration": 50}, {"note": 0, "velocity": 0, "duration": 70}, {"note": 78, "velocity": 122, "duration": 245}, {"note": 0, "velocity": 0, "duration": 115}, {"note": 76, "velocity": 117, "duration": 99}, {"note": 0, "velocity": 0, "duration": 141}, {"note": 73, "velocity": 127, "duration": 87}, {"note": 0, "velocity": 0, "duration": 153}, {"note": 71, "velocity": 112, "duration": 2160}, {"note": 0, "velocity": 0, "duration": 240}, {"note": 80, "velocity": 127, "duration": 48}, {"note": 0, "velocity": 0, "duration": 72}, {"note": 80, "velocity": 96, "duration": 50}, {"note": 0, "velocity": 0, "duration": 70}, {"note": 80, "velocity": 127, "duration": 112}, {"note": 0, "velocity": 0, "duration": 128}, {"note": 80, "velocity": 122, "duration": 46}, {"note": 0, "velocity": 0, "duration": 74}, {"note": 80, "velocity": 127, "duration": 179}, {"note": 0, "velocity": 0, "duration": 181}, {"note": 78, "velocity": 127, "duration": 82}, {"note": 0, "velocity": 0, "duration": 158}, {"note": 78, "velocity": 127, "duration": 100}, {"note": 0, "velocity": 0, "duration": 140}, {"note": 76, "velocity": 107, "duration": 73}, {"note": 78, "velocity": 117, "duration": 2040}, {"note": 0, "velocity": 0, "duration": 240}, {"note": 71, "velocity": 112, "duration": 152}, {"note": 0, "velocity": 0, "duration": 88}, {"note": 76, "velocity": 100, "duration": 199}, {"note": 71, "velocity": 89, "duration": 85}, {"note": 79, "velocity": 117, "duration": 338}, {"note": 78, "velocity": 127, "duration": 171}, {"note": 0, "velocity": 0, "duration": 69}, {"note": 78, "velocity": 127, "duration": 225}, {"note": 76, "velocity": 127, "duration": 2024}]]