[[{"note": 68, "velocity": 127, "duration": 97}, {"note": 0, "velocity": 0, "duration": 143}, {"note": 68, "velocity": 97, "duration": 79}, {"note": 0, "velocity": 0, "duration": 161}, {"note": 68, "velocity": 107, "duration": 266}, {"note": 0, "velocity": 0, "duration": 214}, {"note": 66, "velocity": 127, "duration": 202}, {"note": 64, "velocity": 97, "duration": 199}, {"note": 66, "velocity": 122, "duration": 247}, {"note": 64, "velocity": 107, "duration": 627}, {"note": 0, "velocity": 0, "duration": 333}, {"note": 61, "velocity": 117, "duration": 90}, {"note": 59, "velocity": 70, "duration": 99}, {"note": 61, "velocity": 122, "duration": 160}, {"note": 0, "velocity": 0, "duration": 80}, {"note": 64, "velocity": 95, "duration": 264}, {"note": 66, "velocity": 117, "duration": 205}, {"note": 64, "velocity": 99, "duration": 979}, {"note": 73, "velocity": 107, "duration": 132}, {"note": 0, "velocity": 0, "duration": 108}, {"note": 73, "velocity": 92, "duration": 185}, {"note": 64, "velocity": 96, "duration": 249}, {"note": 66, "velocity": 112, "duration": 1913}, {"note": 0, "velocity": 0, "duration": 247}, {"note": 68, "velocity": 117, "duration": 65}, {"note": 0, "velocity": 0, "duration": 175}, {"note": 71, "velocity": 112, "duration": 98}, {"note": 0, "velocity": 0, "duration": 142}, {"note": 71, "velocity": 107, "duration": 261}, {"note": 0, "velocity": 0, "duration": 219}, {"note": 68, "velocity": 100, "duration": 75}, {"note": 0, "velocity": 0, "duration": 165}, {"note": 68, "velocity": 127, "duration": 166}, {"note": 0, "velocity": 0, "duration": 74}, {"note": 71, "velocity": 99, "duration": 207}, {"note": 73, "velocity": 117, "duration": 586}, {"note": 0, "velocity": 0, "duration": 134}, {"note": 68, "velocity": 122, "duration": 970}, {"note": 71, "velocity": 102, "duration": 84}, {"note": 0, "velocity": 0, "duration": 156}, {"note": 73, "velocity": 127, "duration": 214}, {"note": 76, "velocity": 100, "duration": 215}, {"note": 0, "velocity": 0, "duration": 745}, {"note": 68, "velocity": 117, "duration": 189}, {"note": 64, "velocity": 96, "duration": 208}, {"note": 68, "velocity": 127, "duration": 96}, {"note": 0, "velocity": 0, "duration": 144}, {"note": 68, "velocity": 122, "duration": 220}, {"note": 66, "velocity": 122, "duration": 1054}, {"note": 66, "velocity": 97, "duration": 94}, {"note": 0, "velocity": 0, "duration": 146}, {"note": 66, "velocity": 122, "duration": 162}, {"note": 0, "velocity": 0, "duration": 78}, {"note": 68, "velocity": 117, "duration": 94}, {"note": 0, "velocity": 0, "duration": 146}, {"note": 69, "velocity": 127, "duration": 194}, {"note": 68, "velocity": 112, "duration": 693}, {"note": 0, "velocity": 0, "duration": 267}, {"note": 66, "velocity": 122, "duration": 182}, {"note": 68, "velocity": 112, "duration": 193}, {"note": 61, "velocity": 107, "duration": 179}, {"note": 0, "velocity": 0, "duration": 61}, {"note": 64, "velocity": 96, "duration": 1018}, {"note": 0, "velocity": 0, "duration": 182}, {"note": 61, "velocity": 122, "duration": 104}, {"note": 0, "velocity": 0, "duration": 136}, {"note": 61, "velocity": 107, "duration": 144}, {"note": 0, "velocity": 0, "duration": 96}, {"note": 64, "velocity": 95, "duration": 175}, {"note": 0, "velocity": 0, "duration": 65}, {"note": 69, "velocity": 112, "duration": 1071}, {"note": 0, "velocity": 0, "duration": 129}, {"note": 71, "velocity": 102, "duration": 136}, {"note": 0, "velocity": 0, "duration": 104}, {"note": 71, "velocity": 102, "duration": 183}, {"note": 73, "velocity": 117, "duration": 174}, {"note": 0, "velocity": 0, "duration": 66}, {"note": 75, "velocity": 127, "duration": 2074}, {"note": 0, "velocity": 0, "duration": 2006}, {"note": 76, "velocity": 102, "duration": 116}, {"note": 0, "velocity": 0, "duration": 124}, {"note": 76, "velocity": 117, "duration": 236}, {"note": 75, "velocity": 112, "duration": 123}, {"note": 0, "velocity": 0, "duration": 117}, {"note": 66, "velocity": 97, "duration": 235}, {"note": 68, "velocity": 102, "duration": 737}, {"note": 0, "velocity": 0, "duration": 223}, {"note": 76, "velocity": 122, "duration": 71}, {"note": 0, "velocity": 0, "duration": 169}, {"note": 76, "velocity": 107, "duration": 110}, {"note": 0, "velocity": 0, "duration": 130}, {"note": 71, "velocity": 97, "duration": 86}, {"note": 0, "velocity": 0, "duration": 154}, {"note": 68, "velocity": 112, "duration": 102}, {"note": 0, "velocity": 0, "duration": 138}, {"note": 73, "velocity": 127, "duration": 655}, {"note": 0, "velocity": 0, "duration": 305}, {"note": 76, "velocity": 127, "duration": 104}, {"note": 0, "velocity": 0, "duration": 136}, {"note": 76, "velocity": 117, "duration": 121}, {"note": 0, "velocity": 0, "duration": 119}, {"note": 68, "velocity": 117, "duration": 107}, {"note": 0, "velocity": 0, "duration": 133}, {"note": 71, "velocity": 112, "duration": 97}, {"note": 0, "velocity": 0, "duration": 143}, {"note": 69, "velocity": 127, "duration": 597}, {"note": 0, "velocity": 0, "duration": 363}, {"note": 76, "velocity": 112, "duration": 77}, {"note": 0, "velocity": 0, "duration": 163}, {"note": 76, "velocity": 122, "duration": 195}, {"note": 76, "velocity": 107, "duration": 70}, {"note": 0, "velocity": 0, "duration": 170}, {"note": 68, "velocity": 127, "duration": 211}, {"note": 66, "velocity": 112, "duration": 905}, {"note": 76, "velocity": 122, "duration": 93}, {"note": 0, "velocity": 0, "duration": 147}, {"note": 76, "velocity": 122, "duration": 84}, {"note": 0, "velocity": 0, "duration": 156}, {"note": 71, "velocity": 107, "duration": 76}, {"note": 0, "velocity": 0, "duration": 164}, {"note": 66, "velocity": 122, "duration": 214}, {"note": 68, "velocity": 122, "duration": 506}, {"note": 0, "velocity": 0, "duration": 454}, {"note": 76, "velocity": 117, "duration": 96}, {"note": 0, "velocity": 0, "duration": 144}, {"note": 76, "velocity": 100, "duration": 108}, {"note": 0, "velocity": 0, "duration": 132}, {"note": 68, "velocity": 117, "duration": 54}, {"note": 66, "velocity": 117, "duration": 60}, {"note": 0, "velocity": 0, "duration": 180}, {"note": 68, "velocity": 127, "duration": 168}, {"note": 0, "velocity": 0, "duration": 72}, {"note": 73, "velocity": 127, "duration": 688}, {"note": 0, "velocity": 0, "duration": 272}, {"note": 76, "velocity": 95, "duration": 89}, {"note": 0, "velocity": 0, "duration": 151}, {"note": 76, "velocity": 97, "duration": 92}, {"note": 0, "velocity": 0, "duration": 148}, {"note": 68, "velocity": 127, "duration": 73}, {"note": 0, "velocity": 0, "duration": 167}, {"note": 71, "velocity": 112, "duration": 193}, {"note": 69, "velocity": 112, "duration": 672}, {"note": 0, "velocity": 0, "duration": 288}, {"note": 76, "velocity": 102, "duration": 113}, {"note": 0, "velocity": 0, "duration": 127}, {"note": 76, "velocity": 117, "duration": 184}, {"note": 73, "velocity": 122, "duration": 50}, {"note": 0, "velocity": 0, "duration": 190}, {"note": 76, "velocity": 102, "duration": 259}, {"note": 78, "velocity": 112, "duration": 2093}, {"note": 0, "velocity": 0, "duration": 67}, {"note": 76, "velocity": 127, "duration": 108}, {"note": 0, "velocity": 0, "duration": 132}, {"note": 76, "velocity": 112, "duration": 101}, {"note": 0, "velocity": 0, "duration": 139}, {"note": 76, "velocity": 122, "duration": 203}, {"note": 0, "velocity": 0, "duration": 277}, {"note": 66, "velocity": 122, "duration": 212}, {"note": 64, "velocity": 88, "duration": 281}, {"note": 66, "velocity": 117, "duration": 216}, {"note": 64, "velocity": 99, "duration": 1422}, {"note": 0, "velocity": 0, "duration": 14178}, {"note": 68, "velocity": 127, "duration": 97}, {"note": 0, "velocity": 0, "duration": 143}, {"note": 68, "velocity": 97, "duration": 79}, {"note": 0, "velocity": 0, "duration": 161}, {"note": 68, "velocity": 107, "duration": 266}, {"note": 0, "velocity": 0, "duration": 214}, {"note": 66, "velocity": 127, "duration": 202}, {"note": 64, "velocity": 97, "duration": 199}, {"note": 66, "velocity": 122, "duration": 247}, {"note": 64, "velocity": 107, "duration": 627}, {"note": 0, "velocity": 0, "duration": 333}, {"note": 61, "velocity": 117, "duration": 90}, {"note": 59, "velocity": 70, "duration": 99}, {"note": 61, "velocity": 122, "duration": 160}, {"note": 0, "velocity": 0, "duration": 80}, {"note": 64, "velocity": 95, "duration": 264}, {"note": 66, "velocity": 117, "duration": 205}, {"note": 64, "velocity": 99, "duration": 979}, {"note": 73, "velocity": 107, "duration": 132}, {"note": 0, "velocity": 0, "duration": 108}, {"note": 73, "velocity": 92, "duration": 185}, {"note": 64, "velocity": 96, "duration": 249}, {"note": 66, "velocity": 112, "duration": 1913}, {"note": 0, "velocity": 0, "duration": 247}, {"note": 68, "velocity": 117, "duration": 65}, {"note": 0, "velocity": 0, "duration": 175}, {"note": 71, "velocity": 112, "duration": 98}, {"note": 0, "velocity": 0, "duration": 142}, {"note": 71, "velocity": 107, "duration": 261}, {"note": 0, "velocity": 0, "duration": 219}, {"note": 68, "velocity": 100, "duration": 75}, {"note": 0, "velocity": 0, "duration": 165}, {"note": 68, "velocity": 127, "duration": 166}, {"note": 0, "velocity": 0, "duration": 74}, {"note": 71, "velocity": 99, "duration": 207}, {"note": 73, "velocity": 117, "duration": 586}, {"note": 0, "velocity": 0, "duration": 134}, {"note": 68, "velocity": 122, "duration": 970}, {"note": 71, "velocity": 102, "duration": 84}, {"note": 0, "velocity": 0, "duration": 156}, {"note": 73, "velocity": 127, "duration": 214}, {"note": 76, "velocity": 100, "duration": 215}, {"note": 0, "velocity": 0, "duration": 745}, {"note": 68, "velocity": 117, "duration": 189}, {"note": 64, "velocity": 96, "duration": 208}, {"note": 68, "velocity": 127, "duration": 96}, {"note": 0, "velocity": 0, "duration": 144}, {"note": 68, "velocity": 122, "duration": 220}, {"note": 66, "velocity": 122, "duration": 1054}, {"note": 66, "velocity": 97, "duration": 94}, {"note": 0, "velocity": 0, "duration": 146}, {"note": 66, "velocity": 122, "duration": 162}, {"note": 0, "velocity": 0, "duration": 78}, {"note": 68, "velocity": 117, "duration": 94}, {"note": 0, "velocity": 0, "duration": 146}, {"note": 69, "velocity": 127, "duration": 194}, {"note": 68, "velocity": 112, "duration": 693}, {"note": 0, "velocity": 0, "duration": 267}, {"note": 66, "velocity": 122, "duration": 182}, {"note": 68, "velocity": 112, "duration": 193}, {"note": 61, "velocity": 107, "duration": 179}, {"note": 0, "velocity": 0, "duration": 61}, {"note": 64, "velocity": 96, "duration": 1018}, {"note": 0, "velocity": 0, "duration": 182}, {"note": 61, "velocity": 122, "duration": 104}, {"note": 0, "velocity": 0, "duration": 136}, {"note": 61, "velocity": 107, "duration": 144}, {"note": 0, "velocity": 0, "duration": 96}, {"note": 64, "velocity": 95, "duration": 175}, {"note": 0, "velocity": 0, "duration": 65}, {"note": 69, "velocity": 112, "duration": 1071}, {"note": 0, "velocity": 0, "duration": 129}, {"note": 71, "velocity": 102, "duration": 136}, {"note": 0, "velocity": 0, "duration": 104}, {"note": 71, "velocity": 102, "duration": 183}, {"note": 73, "velocity": 117, "duration": 174}, {"note": 0, "velocity": 0, "duration": 66}, {"note": 75, "velocity": 127, "duration": 2074}, {"note": 0, "velocity": 0, "duration": 2006}, {"note": 76, "velocity": 102, "duration": 116}, {"note": 0, "velocity": 0, "duration": 124}, {"note": 76, "velocity": 117, "duration": 236}, {"note": 75, "velocity": 112, "duration": 123}, {"note": 0, "velocity": 0, "duration": 117}, {"note": 66, "velocity": 97, "duration": 235}, {"note": 68, "velocity": 102, "duration": 737}, {"note": 0, "velocity": 0, "duration": 223}, {"note": 76, "velocity": 122, "duration": 71}, {"note": 0, "velocity": 0, "duration": 169}, {"note": 76, "velocity": 107, "duration": 110}, {"note": 0, "velocity": 0, "duration": 130}, {"note": 71, "velocity": 97, "duration": 86}, {"note": 0, "velocity": 0, "duration": 154}, {"note": 68, "velocity": 112, "duration": 102}, {"note": 0, "velocity": 0, "duration": 138}, {"note": 73, "velocity": 127, "duration": 655}, {"note": 0, "velocity": 0, "duration": 305}, {"note": 76, "velocity": 127, "duration": 104}, {"note": 0, "velocity": 0, "duration": 136}, {"note": 76, "velocity": 117, "duration": 121}, {"note": 0, "velocity": 0, "duration": 119}, {"note": 68, "velocity": 117, "duration": 107}, {"note": 0, "velocity": 0, "duration": 133}, {"note": 71, "velocity": 112, "duration": 97}, {"note": 0, "velocity": 0, "duration": 143}, {"note": 69, "velocity": 127, "duration": 597}, {"note": 0, "velocity": 0, "duration": 363}, {"note": 76, "velocity": 112, "duration": 77}, {"note": 0, "velocity": 0, "duration": 163}, {"note": 76, "velocity": 122, "duration": 195}, {"note": 76, "velocity": 107, "duration": 70}, {"note": 0, "velocity": 0, "duration": 170}, {"note": 68, "velocity": 127, "duration": 211}, {"note": 66, "velocity": 112, "duration": 905}, {"note": 76, "velocity": 122, "duration": 93}, {"note": 0, "velocity": 0, "duration": 147}, {"note": 76, "velocity": 122, "duration": 84}, {"note": 0, "velocity": 0, "duration": 156}, {"note": 71, "velocity": 107, "duration": 76}, {"note": 0, "velocity": 0, "duration": 164}, {"note": 66, "velocity": 122, "duration": 214}, {"note": 68, "velocity": 122, "duration": 506}, {"note": 0, "velocity": 0, "duration": 454}, {"note": 76, "velocity": 117, "duration": 96}, {"note": 0, "velocity": 0, "duration": 144}, {"note": 76, "velocity": 100, "duration": 108}, {"note": 0, "velocity": 0, "duration": 132}, {"note": 68, "velocity": 117, "duration": 54}, {"note": 66, "velocity": 117, "duration": 60}, {"note": 0, "velocity": 0, "duration": 180}, {"note": 68, "velocity": 127, "duration": 168}, {"note": 0, "velocity": 0, "duration": 72}, {"note": 73, "velocity": 127, "duration": 688}, {"note": 0, "velocity": 0, "duration": 272}, {"note": 76, "velocity": 95, "duration": 89}, {"note": 0, "velocity": 0, "duration": 151}, {"note": 76, "velocity": 97, "duration": 92}, {"note": 0, "velocity": 0, "duration": 148}, {"note": 68, "velocity": 127, "duration": 73}, {"note": 0, "velocity": 0, "duration": 167}, {"note": 71, "velocity": 112, "duration": 193}, {"note": 69, "velocity": 112, "duration": 672}, {"note": 0, "velocity": 0, "duration": 288}, {"note": 76, "velocity": 102, "duration": 113}, {"note": 0, "velocity": 0, "duration": 127}, {"note": 76, "velocity": 117, "duration": 184}, {"note": 73, "velocity": 122, "duration": 50}, {"note": 0, "velocity": 0, "duration": 190}, {"note": 76, "velocity": 102, "duration": 259}, {"note": 78, "velocity": 112, "duration": 2093}, {"note": 0, "velocity": 0, "duration": 67}, {"note": 76, "velocity": 127, "duration": 108}, {"note": 0, "velocity": 0, "duration": 132}, {"note": 76, "velocity": 112, "duration": 101}, {"note": 0, "velocity": 0, "duration": 139}, {"note": 76, "velocity": 122, "duration": 203}, {"note": 0, "velocity": 0, "duration": 277}, {"note": 66, "velocity": 122, "duration": 212}, {"note": 64, "velocity": 88, "duration": 281}, {"note": 66, "velocity": 117, "duration": 216}, {"note": 64, "velocity": 99, "duration": 1422}, {"note": 0, "velocity": 0, "duration": 15618}, {"note": 76, "velocity": 99, "duration": 115}, {"note": 75, "velocity": 78, "duration": 123}, {"note": 73, "velocity": 112, "duration": 58}, {"note": 0, "velocity": 0, "duration": 62}, {"note": 73, "velocity": 107, "duration": 222}, {"note": 0, "velocity": 0, "duration": 138}, {"note": 71, "velocity": 102, "duration": 82}, {"note": 0, "velocity": 0, "duration": 158}, {"note": 73, "velocity": 127, "duration": 64}, {"note": 71, "velocity": 99, "duration": 67}, {"note": 0, "velocity": 0, "duration": 293}, {"note": 73, "velocity": 127, "duration": 380}, {"note": 0, "velocity": 0, "duration": 100}, {"note": 73, "velocity": 127, "duration": 115}, {"note": 71, "velocity": 76, "duration": 78}, {"note": 0, "velocity": 0, "duration": 162}, {"note": 73, "velocity": 127, "duration": 87}, {"note": 0, "velocity": 0, "duration": 273}, {"note": 71, "velocity": 117, "duration": 66}, {"note": 0, "velocity": 0, "duration": 174}, {"note": 73, "velocity": 127, "duration": 108}, {"note": 71, "velocity": 89, "duration": 73}, {"note": 0, "velocity": 0, "duration": 287}, {"note": 73, "velocity": 127, "duration": 436}, {"note": 75, "velocity": 127, "duration": 829}, {"note": 71, "velocity": 107, "duration": 1010}, {"note": 0, "velocity": 0, "duration": 190}, {"note": 75, "velocity": 127, "duration": 670}, {"note": 71, "velocity": 112, "duration": 1108}, {"note": 0, "velocity": 0, "duration": 92}, {"note": 76, "velocity": 117, "duration": 103}, {"note": 73, "velocity": 117, "duration": 51}, {"note": 0, "velocity": 0, "duration": 69}, {"note": 73, "velocity": 99, "duration": 56}, {"note": 0, "velocity": 0, "duration": 64}, {"note": 73, "velocity": 122, "duration": 98}, {"note": 0, "velocity": 0, "duration": 262}, {"note": 71, "velocity": 117, "duration": 56}, {"note": 0, "velocity": 0, "duration": 184}, {"note": 73, "velocity": 127, "duration": 83}, {"note": 71, "velocity": 107, "duration": 64}, {"note": 0, "velocity": 0, "duration": 296}, {"note": 73, "velocity": 127, "duration": 384}, {"note": 0, "velocity": 0, "duration": 96}, {"note": 73, "velocity": 127, "duration": 97}, {"note": 71, "velocity": 93, "duration": 83}, {"note": 0, "velocity": 0, "duration": 157}, {"note": 73, "velocity": 127, "duration": 200}, {"note": 0, "velocity": 0, "duration": 160}, {"note": 71, "velocity": 102, "duration": 57}, {"note": 0, "velocity": 0, "duration": 183}, {"note": 73, "velocity": 127, "duration": 71}, {"note": 71, "velocity": 95, "duration": 84}, {"note": 0, "velocity": 0, "duration": 156}, {"note": 73, "velocity": 127, "duration": 454}, {"note": 0, "velocity": 0, "duration": 146}, {"note": 75, "velocity": 127, "duration": 2689}]]