[[{"note": 58, "velocity": 127, "duration": 89}, {"note": 61, "velocity": 92, "duration": 119}, {"note": 61, "velocity": 127, "duration": 120}, {"note": 53, "velocity": 92, "duration": 79}, {"note": 54, "velocity": 100, "duration": 98}, {"note": 58, "velocity": 122, "duration": 120}, {"note": 61, "velocity": 107, "duration": 122}, {"note": 58, "velocity": 112, "duration": 81}, {"note": 60, "velocity": 102, "duration": 81}, {"note": 61, "velocity": 112, "duration": 120}, {"note": 63, "velocity": 112, "duration": 79}, {"note": 61, "velocity": 99, "duration": 11}, {"note": 58, "velocity": 112, "duration": 10}, {"note": 61, "velocity": 107, "duration": 119}, {"note": 61, "velocity": 112, "duration": 119}, {"note": 61, "velocity": 117, "duration": 75}, {"note": 63, "velocity": 112, "duration": 109}, {"note": 65, "velocity": 93, "duration": 120}, {"note": 63, "velocity": 117, "duration": 59}, {"note": 63, "velocity": 112, "duration": 51}, {"note": 61, "velocity": 100, "duration": 433}, {"note": 61, "velocity": 97, "duration": 313}, {"note": 0, "velocity": 0, "duration": 167}, {"note": 61, "velocity": 96, "duration": 29}, {"note": 0, "velocity": 0, "duration": 103}, {"note": 68, "velocity": 127, "duration": 120}, {"note": 66, "velocity": 117, "duration": 120}, {"note": 68, "velocity": 107, "duration": 51}, {"note": 65, "velocity": 107, "duration": 184}, {"note": 63, "velocity": 97, "duration": 79}, {"note": 63, "velocity": 107, "duration": 79}, {"note": 65, "velocity": 100, "duration": 120}, {"note": 63, "velocity": 100, "duration": 120}, {"note": 65, "velocity": 97, "duration": 63}, {"note": 63, "velocity": 112, "duration": 87}, {"note": 65, "velocity": 102, "duration": 123}, {"note": 58, "velocity": 102, "duration": 120}, {"note": 61, "velocity": 117, "duration": 100}, {"note": 61, "velocity": 117, "duration": 119}, {"note": 61, "velocity": 107, "duration": 120}, {"note": 58, "velocity": 100, "duration": 120}, {"note": 61, "velocity": 122, "duration": 240}, {"note": 63, "velocity": 122, "duration": 32}, {"note": 64, "velocity": 127, "duration": 102}, {"note": 63, "velocity": 99, "duration": 120}, {"note": 61, "velocity": 112, "duration": 119}, {"note": 61, "velocity": 127, "duration": 70}, {"note": 63, "velocity": 122, "duration": 274}, {"note": 63, "velocity": 97, "duration": 154}, {"note": 0, "velocity": 0, "duration": 105}, {"note": 61, "velocity": 107, "duration": 119}, {"note": 61, "velocity": 102, "duration": 120}, {"note": 53, "velocity": 97, "duration": 29}, {"note": 54, "velocity": 117, "duration": 77}, {"note": 58, "velocity": 117, "duration": 120}, {"note": 61, "velocity": 122, "duration": 120}, {"note": 58, "velocity": 112, "duration": 44}, {"note": 60, "velocity": 93, "duration": 75}, {"note": 61, "velocity": 117, "duration": 120}, {"note": 63, "velocity": 117, "duration": 70}, {"note": 58, "velocity": 122, "duration": 87}, {"note": 61, "velocity": 122, "duration": 239}, {"note": 61, "velocity": 122, "duration": 71}, {"note": 63, "velocity": 100, "duration": 96}, {"note": 63, "velocity": 122, "duration": 239}, {"note": 63, "velocity": 127, "duration": 53}, {"note": 68, "velocity": 102, "duration": 65}, {"note": 66, "velocity": 127, "duration": 119}, {"note": 66, "velocity": 97, "duration": 37}, {"note": 63, "velocity": 112, "duration": 11}, {"note": 65, "velocity": 112, "duration": 103}, {"note": 68, "velocity": 117, "duration": 120}, {"note": 66, "velocity": 112, "duration": 120}, {"note": 68, "velocity": 107, "duration": 67}, {"note": 65, "velocity": 102, "duration": 217}, {"note": 63, "velocity": 112, "duration": 111}, {"note": 65, "velocity": 102, "duration": 120}, {"note": 63, "velocity": 122, "duration": 120}, {"note": 65, "velocity": 95, "duration": 60}, {"note": 63, "velocity": 122, "duration": 220}, {"note": 61, "velocity": 102, "duration": 79}, {"note": 61, "velocity": 112, "duration": 79}, {"note": 65, "velocity": 127, "duration": 110}, {"note": 63, "velocity": 97, "duration": 120}, {"note": 61, "velocity": 107, "duration": 120}, {"note": 58, "velocity": 112, "duration": 83}, {"note": 61, "velocity": 122, "duration": 108}, {"note": 63, "velocity": 122, "duration": 119}, {"note": 63, "velocity": 122, "duration": 120}, {"note": 58, "velocity": 117, "duration": 229}, {"note": 61, "velocity": 122, "duration": 11}, {"note": 68, "velocity": 127, "duration": 351}, {"note": 66, "velocity": 112, "duration": 37}, {"note": 65, "velocity": 122, "duration": 343}, {"note": 63, "velocity": 112, "duration": 38}, {"note": 65, "velocity": 112, "duration": 194}, {"note": 56, "velocity": 97, "duration": 124}, {"note": 56, "velocity": 117, "duration": 4}, {"note": 0, "velocity": 0, "duration": 64}, {"note": 56, "velocity": 97, "duration": 8}, {"note": 0, "velocity": 0, "duration": 89}, {"note": 61, "velocity": 122, "duration": 240}, {"note": 58, "velocity": 127, "duration": 49}, {"note": 56, "velocity": 122, "duration": 31}, {"note": 68, "velocity": 122, "duration": 360}, {"note": 66, "velocity": 122, "duration": 70}, {"note": 65, "velocity": 117, "duration": 345}, {"note": 61, "velocity": 122, "duration": 6}, {"note": 66, "velocity": 127, "duration": 120}, {"note": 61, "velocity": 117, "duration": 120}, {"note": 58, "velocity": 102, "duration": 119}, {"note": 58, "velocity": 117, "duration": 61}, {"note": 61, "velocity": 127, "duration": 101}, {"note": 63, "velocity": 117, "duration": 120}, {"note": 58, "velocity": 112, "duration": 676}, {"note": 0, "velocity": 0, "duration": 61}, {"note": 58, "velocity": 127, "duration": 89}, {"note": 61, "velocity": 92, "duration": 119}, {"note": 61, "velocity": 127, "duration": 120}, {"note": 56, "velocity": 82, "duration": 78}, {"note": 54, "velocity": 100, "duration": 98}, {"note": 58, "velocity": 122, "duration": 120}, {"note": 61, "velocity": 107, "duration": 122}, {"note": 58, "velocity": 112, "duration": 81}, {"note": 60, "velocity": 102, "duration": 81}, {"note": 61, "velocity": 112, "duration": 120}, {"note": 63, "velocity": 112, "duration": 79}, {"note": 61, "velocity": 99, "duration": 11}, {"note": 58, "velocity": 112, "duration": 10}, {"note": 61, "velocity": 107, "duration": 119}, {"note": 61, "velocity": 112, "duration": 119}, {"note": 61, "velocity": 117, "duration": 75}, {"note": 63, "velocity": 112, "duration": 109}, {"note": 65, "velocity": 93, "duration": 120}, {"note": 63, "velocity": 117, "duration": 59}, {"note": 68, "velocity": 97, "duration": 71}, {"note": 63, "velocity": 112, "duration": 62}, {"note": 61, "velocity": 100, "duration": 433}, {"note": 61, "velocity": 97, "duration": 313}, {"note": 0, "velocity": 0, "duration": 103}, {"note": 68, "velocity": 127, "duration": 120}, {"note": 66, "velocity": 117, "duration": 120}, {"note": 68, "velocity": 107, "duration": 51}, {"note": 65, "velocity": 107, "duration": 184}, {"note": 63, "velocity": 107, "duration": 79}, {"note": 65, "velocity": 100, "duration": 120}, {"note": 63, "velocity": 100, "duration": 120}, {"note": 65, "velocity": 97, "duration": 62}, {"note": 65, "velocity": 112, "duration": 92}, {"note": 63, "velocity": 102, "duration": 110}, {"note": 63, "velocity": 107, "duration": 124}, {"note": 61, "velocity": 117, "duration": 97}, {"note": 61, "velocity": 117, "duration": 119}, {"note": 61, "velocity": 107, "duration": 120}, {"note": 58, "velocity": 100, "duration": 120}, {"note": 61, "velocity": 122, "duration": 120}, {"note": 58, "velocity": 107, "duration": 125}, {"note": 61, "velocity": 96, "duration": 118}, {"note": 63, "velocity": 122, "duration": 32}, {"note": 64, "velocity": 127, "duration": 102}, {"note": 63, "velocity": 99, "duration": 120}, {"note": 61, "velocity": 112, "duration": 119}, {"note": 61, "velocity": 127, "duration": 70}, {"note": 63, "velocity": 122, "duration": 105}, {"note": 61, "velocity": 107, "duration": 119}, {"note": 61, "velocity": 102, "duration": 120}, {"note": 53, "velocity": 97, "duration": 29}, {"note": 54, "velocity": 117, "duration": 77}, {"note": 58, "velocity": 117, "duration": 120}, {"note": 61, "velocity": 122, "duration": 120}, {"note": 58, "velocity": 112, "duration": 44}, {"note": 60, "velocity": 93, "duration": 75}, {"note": 61, "velocity": 117, "duration": 120}, {"note": 63, "velocity": 117, "duration": 120}, {"note": 61, "velocity": 122, "duration": 70}, {"note": 58, "velocity": 122, "duration": 87}, {"note": 61, "velocity": 122, "duration": 239}, {"note": 61, "velocity": 122, "duration": 71}, {"note": 63, "velocity": 100, "duration": 96}, {"note": 63, "velocity": 122, "duration": 120}, {"note": 61, "velocity": 86, "duration": 178}, {"note": 63, "velocity": 127, "duration": 111}, {"note": 68, "velocity": 102, "duration": 65}, {"note": 66, "velocity": 127, "duration": 119}, {"note": 63, "velocity": 99, "duration": 36}, {"note": 66, "velocity": 97, "duration": 37}, {"note": 63, "velocity": 112, "duration": 11}, {"note": 65, "velocity": 112, "duration": 103}, {"note": 68, "velocity": 117, "duration": 120}, {"note": 66, "velocity": 112, "duration": 120}, {"note": 68, "velocity": 107, "duration": 67}, {"note": 65, "velocity": 102, "duration": 217}, {"note": 63, "velocity": 112, "duration": 111}, {"note": 65, "velocity": 102, "duration": 120}, {"note": 63, "velocity": 122, "duration": 120}, {"note": 65, "velocity": 95, "duration": 60}, {"note": 63, "velocity": 122, "duration": 220}, {"note": 61, "velocity": 102, "duration": 79}, {"note": 65, "velocity": 127, "duration": 110}, {"note": 63, "velocity": 97, "duration": 120}, {"note": 61, "velocity": 107, "duration": 135}, {"note": 58, "velocity": 97, "duration": 83}, {"note": 61, "velocity": 122, "duration": 108}, {"note": 63, "velocity": 122, "duration": 119}, {"note": 63, "velocity": 122, "duration": 120}, {"note": 58, "velocity": 117, "duration": 229}, {"note": 61, "velocity": 122, "duration": 48}, {"note": 68, "velocity": 127, "duration": 351}, {"note": 66, "velocity": 112, "duration": 37}, {"note": 65, "velocity": 122, "duration": 343}, {"note": 63, "velocity": 112, "duration": 38}, {"note": 65, "velocity": 112, "duration": 194}, {"note": 56, "velocity": 97, "duration": 124}, {"note": 56, "velocity": 117, "duration": 4}, {"note": 0, "velocity": 0, "duration": 64}, {"note": 56, "velocity": 97, "duration": 8}, {"note": 0, "velocity": 0, "duration": 89}, {"note": 61, "velocity": 122, "duration": 240}, {"note": 58, "velocity": 127, "duration": 49}, {"note": 56, "velocity": 122, "duration": 31}, {"note": 68, "velocity": 122, "duration": 360}, {"note": 66, "velocity": 122, "duration": 70}, {"note": 65, "velocity": 117, "duration": 345}, {"note": 61, "velocity": 122, "duration": 6}, {"note": 66, "velocity": 127, "duration": 120}, {"note": 61, "velocity": 117, "duration": 120}, {"note": 58, "velocity": 102, "duration": 119}, {"note": 58, "velocity": 117, "duration": 61}, {"note": 61, "velocity": 127, "duration": 101}, {"note": 63, "velocity": 117, "duration": 120}, {"note": 58, "velocity": 112, "duration": 68}, {"note": 61, "velocity": 122, "duration": 88}, {"note": 68, "velocity": 127, "duration": 351}, {"note": 66, "velocity": 112, "duration": 37}, {"note": 65, "velocity": 122, "duration": 343}, {"note": 63, "velocity": 112, "duration": 38}, {"note": 65, "velocity": 112, "duration": 194}, {"note": 56, "velocity": 97, "duration": 124}, {"note": 56, "velocity": 117, "duration": 4}, {"note": 0, "velocity": 0, "duration": 64}, {"note": 56, "velocity": 97, "duration": 8}, {"note": 0, "velocity": 0, "duration": 89}, {"note": 61, "velocity": 122, "duration": 240}, {"note": 58, "velocity": 127, "duration": 49}, {"note": 56, "velocity": 122, "duration": 31}, {"note": 68, "velocity": 122, "duration": 360}, {"note": 66, "velocity": 122, "duration": 70}, {"note": 65, "velocity": 117, "duration": 345}, {"note": 61, "velocity": 122, "duration": 6}, {"note": 66, "velocity": 127, "duration": 120}, {"note": 61, "velocity": 117, "duration": 120}, {"note": 58, "velocity": 90, "duration": 124}, {"note": 58, "velocity": 117, "duration": 4}, {"note": 61, "velocity": 127, "duration": 101}, {"note": 63, "velocity": 117, "duration": 120}, {"note": 58, "velocity": 112, "duration": 68}, {"note": 61, "velocity": 122, "duration": 546}, {"note": 0, "velocity": 0, "duration": 173}, {"note": 61, "velocity": 117, "duration": 110}, {"note": 66, "velocity": 112, "duration": 116}, {"note": 54, "velocity": 96, "duration": 120}, {"note": 61, "velocity": 117, "duration": 120}, {"note": 58, "velocity": 102, "duration": 141}, {"note": 58, "velocity": 102, "duration": 21}, {"note": 61, "velocity": 127, "duration": 83}, {"note": 63, "velocity": 100, "duration": 120}, {"note": 58, "velocity": 102, "duration": 120}, {"note": 61, "velocity": 127, "duration": 541}]]