[[{"note": 75, "velocity": 127, "duration": 148}, {"note": 0, "velocity": 0, "duration": 92}, {"note": 75, "velocity": 112, "duration": 51}, {"note": 0, "velocity": 0, "duration": 69}, {"note": 75, "velocity": 96, "duration": 74}, {"note": 78, "velocity": 127, "duration": 305}, {"note": 73, "velocity": 112, "duration": 121}, {"note": 75, "velocity": 122, "duration": 824}, {"note": 0, "velocity": 0, "duration": 136}, {"note": 75, "velocity": 127, "duration": 139}, {"note": 0, "velocity": 0, "duration": 101}, {"note": 75, "velocity": 122, "duration": 51}, {"note": 0, "velocity": 0, "duration": 69}, {"note": 75, "velocity": 112, "duration": 59}, {"note": 0, "velocity": 0, "duration": 61}, {"note": 77, "velocity": 117, "duration": 274}, {"note": 0, "velocity": 0, "duration": 86}, {"note": 73, "velocity": 122, "duration": 70}, {"note": 70, "velocity": 112, "duration": 948}, {"note": 70, "velocity": 117, "duration": 258}, {"note": 0, "velocity": 0, "duration": 102}, {"note": 70, "velocity": 99, "duration": 94}, {"note": 75, "velocity": 117, "duration": 216}, {"note": 70, "velocity": 122, "duration": 198}, {"note": 68, "velocity": 127, "duration": 247}, {"note": 66, "velocity": 127, "duration": 555}, {"note": 0, "velocity": 0, "duration": 165}, {"note": 68, "velocity": 127, "duration": 271}, {"note": 0, "velocity": 0, "duration": 89}, {"note": 68, "velocity": 117, "duration": 128}, {"note": 66, "velocity": 122, "duration": 266}, {"note": 0, "velocity": 0, "duration": 94}, {"note": 63, "velocity": 100, "duration": 116}, {"note": 70, "velocity": 122, "duration": 913}, {"note": 75, "velocity": 127, "duration": 145}, {"note": 0, "velocity": 0, "duration": 95}, {"note": 75, "velocity": 107, "duration": 47}, {"note": 0, "velocity": 0, "duration": 73}, {"note": 75, "velocity": 112, "duration": 44}, {"note": 0, "velocity": 0, "duration": 76}, {"note": 77, "velocity": 117, "duration": 267}, {"note": 0, "velocity": 0, "duration": 93}, {"note": 73, "velocity": 112, "duration": 104}, {"note": 75, "velocity": 112, "duration": 810}, {"note": 0, "velocity": 0, "duration": 150}, {"note": 75, "velocity": 122, "duration": 144}, {"note": 0, "velocity": 0, "duration": 96}, {"note": 75, "velocity": 107, "duration": 47}, {"note": 0, "velocity": 0, "duration": 73}, {"note": 75, "velocity": 102, "duration": 63}, {"note": 77, "velocity": 97, "duration": 298}, {"note": 0, "velocity": 0, "duration": 62}, {"note": 73, "velocity": 100, "duration": 109}, {"note": 70, "velocity": 107, "duration": 862}, {"note": 0, "velocity": 0, "duration": 98}, {"note": 70, "velocity": 127, "duration": 385}, {"note": 0, "velocity": 0, "duration": 95}, {"note": 75, "velocity": 122, "duration": 146}, {"note": 0, "velocity": 0, "duration": 94}, {"note": 75, "velocity": 112, "duration": 68}, {"note": 70, "velocity": 112, "duration": 56}, {"note": 0, "velocity": 0, "duration": 64}, {"note": 68, "velocity": 117, "duration": 181}, {"note": 68, "velocity": 122, "duration": 85}, {"note": 70, "velocity": 93, "duration": 67}, {"note": 66, "velocity": 117, "duration": 492}, {"note": 68, "velocity": 127, "duration": 215}, {"note": 70, "velocity": 127, "duration": 194}, {"note": 66, "velocity": 127, "duration": 287}, {"note": 0, "velocity": 0, "duration": 73}, {"note": 63, "velocity": 112, "duration": 43}, {"note": 0, "velocity": 0, "duration": 77}, {"note": 63, "velocity": 127, "duration": 916}, {"note": 75, "velocity": 127, "duration": 204}, {"note": 78, "velocity": 127, "duration": 378}, {"note": 0, "velocity": 0, "duration": 102}, {"note": 75, "velocity": 127, "duration": 167}, {"note": 0, "velocity": 0, "duration": 73}, {"note": 80, "velocity": 127, "duration": 291}, {"note": 78, "velocity": 127, "duration": 579}, {"note": 0, "velocity": 0, "duration": 141}, {"note": 77, "velocity": 122, "duration": 188}, {"note": 75, "velocity": 107, "duration": 80}, {"note": 77, "velocity": 89, "duration": 99}, {"note": 73, "velocity": 107, "duration": 289}, {"note": 0, "velocity": 0, "duration": 71}, {"note": 70, "velocity": 117, "duration": 54}, {"note": 0, "velocity": 0, "duration": 66}, {"note": 73, "velocity": 127, "duration": 192}, {"note": 75, "velocity": 127, "duration": 739}, {"note": 75, "velocity": 122, "duration": 19}, {"note": 0, "velocity": 0, "duration": 221}, {"note": 78, "velocity": 127, "duration": 322}, {"note": 75, "velocity": 127, "duration": 173}, {"note": 0, "velocity": 0, "duration": 187}, {"note": 82, "velocity": 127, "duration": 213}, {"note": 80, "velocity": 127, "duration": 528}, {"note": 0, "velocity": 0, "duration": 192}, {"note": 77, "velocity": 127, "duration": 173}, {"note": 0, "velocity": 0, "duration": 67}, {"note": 75, "velocity": 122, "duration": 77}, {"note": 77, "velocity": 93, "duration": 87}, {"note": 75, "velocity": 122, "duration": 197}, {"note": 73, "velocity": 112, "duration": 207}, {"note": 75, "velocity": 96, "duration": 255}, {"note": 70, "velocity": 97, "duration": 115}, {"note": 70, "velocity": 100, "duration": 472}, {"note": 0, "velocity": 0, "duration": 128}, {"note": 70, "velocity": 127, "duration": 196}, {"note": 75, "velocity": 99, "duration": 150}, {"note": 0, "velocity": 0, "duration": 90}, {"note": 75, "velocity": 117, "duration": 144}, {"note": 0, "velocity": 0, "duration": 96}, {"note": 70, "velocity": 107, "duration": 102}, {"note": 68, "velocity": 86, "duration": 139}, {"note": 70, "velocity": 107, "duration": 151}, {"note": 0, "velocity": 0, "duration": 89}, {"note": 70, "velocity": 122, "duration": 399}, {"note": 0, "velocity": 0, "duration": 321}, {"note": 70, "velocity": 122, "duration": 180}, {"note": 75, "velocity": 96, "duration": 170}, {"note": 0, "velocity": 0, "duration": 70}, {"note": 75, "velocity": 117, "duration": 126}, {"note": 0, "velocity": 0, "duration": 114}, {"note": 70, "velocity": 102, "duration": 94}, {"note": 68, "velocity": 92, "duration": 120}, {"note": 66, "velocity": 107, "duration": 186}, {"note": 66, "velocity": 122, "duration": 394}, {"note": 0, "velocity": 0, "duration": 326}, {"note": 65, "velocity": 102, "duration": 51}, {"note": 0, "velocity": 0, "duration": 69}, {"note": 65, "velocity": 96, "duration": 143}, {"note": 0, "velocity": 0, "duration": 97}, {"note": 63, "velocity": 107, "duration": 110}, {"note": 68, "velocity": 122, "duration": 179}, {"note": 0, "velocity": 0, "duration": 61}, {"note": 70, "velocity": 117, "duration": 39}, {"note": 0, "velocity": 0, "duration": 81}, {"note": 70, "velocity": 112, "duration": 47}, {"note": 0, "velocity": 0, "duration": 73}, {"note": 73, "velocity": 122, "duration": 273}, {"note": 0, "velocity": 0, "duration": 87}, {"note": 70, "velocity": 117, "duration": 107}, {"note": 73, "velocity": 127, "duration": 268}, {"note": 75, "velocity": 127, "duration": 145}, {"note": 0, "velocity": 0, "duration": 95}, {"note": 78, "velocity": 127, "duration": 235}, {"note": 0, "velocity": 0, "duration": 125}, {"note": 78, "velocity": 127, "duration": 86}, {"note": 77, "velocity": 117, "duration": 170}, {"note": 0, "velocity": 0, "duration": 70}, {"note": 75, "velocity": 127, "duration": 157}, {"note": 0, "velocity": 0, "duration": 83}, {"note": 80, "velocity": 127, "duration": 947}, {"note": 75, "velocity": 127, "duration": 190}, {"note": 77, "velocity": 102, "duration": 224}, {"note": 73, "velocity": 127, "duration": 140}, {"note": 70, "velocity": 117, "duration": 154}, {"note": 0, "velocity": 0, "duration": 86}, {"note": 70, "velocity": 112, "duration": 121}, {"note": 73, "velocity": 122, "duration": 220}, {"note": 75, "velocity": 122, "duration": 1688}, {"note": 0, "velocity": 0, "duration": 9592}, {"note": 75, "velocity": 127, "duration": 148}, {"note": 0, "velocity": 0, "duration": 92}, {"note": 75, "velocity": 112, "duration": 51}, {"note": 0, "velocity": 0, "duration": 69}, {"note": 75, "velocity": 96, "duration": 74}, {"note": 78, "velocity": 127, "duration": 305}, {"note": 73, "velocity": 112, "duration": 121}, {"note": 75, "velocity": 122, "duration": 824}, {"note": 0, "velocity": 0, "duration": 136}, {"note": 75, "velocity": 127, "duration": 139}, {"note": 0, "velocity": 0, "duration": 101}, {"note": 75, "velocity": 122, "duration": 51}, {"note": 0, "velocity": 0, "duration": 69}, {"note": 75, "velocity": 112, "duration": 59}, {"note": 0, "velocity": 0, "duration": 61}, {"note": 77, "velocity": 117, "duration": 274}, {"note": 0, "velocity": 0, "duration": 86}, {"note": 73, "velocity": 122, "duration": 70}, {"note": 70, "velocity": 112, "duration": 948}, {"note": 70, "velocity": 117, "duration": 258}, {"note": 0, "velocity": 0, "duration": 102}, {"note": 70, "velocity": 99, "duration": 94}, {"note": 75, "velocity": 117, "duration": 216}, {"note": 70, "velocity": 122, "duration": 198}, {"note": 68, "velocity": 127, "duration": 247}, {"note": 66, "velocity": 127, "duration": 555}, {"note": 0, "velocity": 0, "duration": 165}, {"note": 68, "velocity": 127, "duration": 271}, {"note": 0, "velocity": 0, "duration": 89}, {"note": 68, "velocity": 117, "duration": 128}, {"note": 66, "velocity": 122, "duration": 266}, {"note": 0, "velocity": 0, "duration": 94}, {"note": 63, "velocity": 100, "duration": 116}, {"note": 70, "velocity": 122, "duration": 913}, {"note": 75, "velocity": 127, "duration": 145}, {"note": 0, "velocity": 0, "duration": 95}, {"note": 75, "velocity": 107, "duration": 47}, {"note": 0, "velocity": 0, "duration": 73}, {"note": 75, "velocity": 112, "duration": 44}, {"note": 0, "velocity": 0, "duration": 76}, {"note": 77, "velocity": 117, "duration": 267}, {"note": 0, "velocity": 0, "duration": 93}, {"note": 73, "velocity": 112, "duration": 104}, {"note": 75, "velocity": 112, "duration": 810}, {"note": 0, "velocity": 0, "duration": 150}, {"note": 75, "velocity": 122, "duration": 144}, {"note": 0, "velocity": 0, "duration": 96}, {"note": 75, "velocity": 107, "duration": 47}, {"note": 0, "velocity": 0, "duration": 73}, {"note": 75, "velocity": 102, "duration": 63}, {"note": 77, "velocity": 97, "duration": 298}, {"note": 0, "velocity": 0, "duration": 62}, {"note": 73, "velocity": 100, "duration": 109}, {"note": 70, "velocity": 107, "duration": 862}, {"note": 0, "velocity": 0, "duration": 98}, {"note": 70, "velocity": 127, "duration": 385}, {"note": 0, "velocity": 0, "duration": 95}, {"note": 75, "velocity": 122, "duration": 146}, {"note": 0, "velocity": 0, "duration": 94}, {"note": 75, "velocity": 112, "duration": 68}, {"note": 70, "velocity": 112, "duration": 56}, {"note": 0, "velocity": 0, "duration": 64}, {"note": 68, "velocity": 117, "duration": 181}, {"note": 68, "velocity": 122, "duration": 85}, {"note": 70, "velocity": 93, "duration": 67}, {"note": 66, "velocity": 117, "duration": 492}, {"note": 68, "velocity": 127, "duration": 215}, {"note": 70, "velocity": 127, "duration": 194}, {"note": 66, "velocity": 127, "duration": 287}, {"note": 0, "velocity": 0, "duration": 73}, {"note": 63, "velocity": 112, "duration": 43}, {"note": 0, "velocity": 0, "duration": 77}, {"note": 63, "velocity": 127, "duration": 916}, {"note": 75, "velocity": 127, "duration": 204}, {"note": 78, "velocity": 127, "duration": 378}, {"note": 0, "velocity": 0, "duration": 102}, {"note": 75, "velocity": 127, "duration": 167}, {"note": 0, "velocity": 0, "duration": 73}, {"note": 80, "velocity": 127, "duration": 291}, {"note": 78, "velocity": 127, "duration": 579}, {"note": 0, "velocity": 0, "duration": 141}, {"note": 77, "velocity": 122, "duration": 188}, {"note": 75, "velocity": 107, "duration": 80}, {"note": 77, "velocity": 89, "duration": 99}, {"note": 73, "velocity": 107, "duration": 289}, {"note": 0, "velocity": 0, "duration": 71}, {"note": 70, "velocity": 117, "duration": 54}, {"note": 0, "velocity": 0, "duration": 66}, {"note": 73, "velocity": 127, "duration": 192}, {"note": 75, "velocity": 127, "duration": 739}, {"note": 75, "velocity": 122, "duration": 19}, {"note": 0, "velocity": 0, "duration": 221}, {"note": 78, "velocity": 127, "duration": 322}, {"note": 75, "velocity": 127, "duration": 173}, {"note": 0, "velocity": 0, "duration": 187}, {"note": 82, "velocity": 127, "duration": 213}, {"note": 80, "velocity": 127, "duration": 528}, {"note": 0, "velocity": 0, "duration": 192}, {"note": 77, "velocity": 127, "duration": 173}, {"note": 0, "velocity": 0, "duration": 67}, {"note": 75, "velocity": 122, "duration": 77}, {"note": 77, "velocity": 93, "duration": 87}, {"note": 75, "velocity": 122, "duration": 197}, {"note": 73, "velocity": 112, "duration": 207}, {"note": 75, "velocity": 96, "duration": 255}, {"note": 70, "velocity": 97, "duration": 115}, {"note": 70, "velocity": 100, "duration": 472}, {"note": 0, "velocity": 0, "duration": 128}, {"note": 70, "velocity": 127, "duration": 196}, {"note": 75, "velocity": 99, "duration": 150}, {"note": 0, "velocity": 0, "duration": 90}, {"note": 75, "velocity": 117, "duration": 144}, {"note": 0, "velocity": 0, "duration": 96}, {"note": 70, "velocity": 107, "duration": 102}, {"note": 68, "velocity": 86, "duration": 139}, {"note": 70, "velocity": 107, "duration": 151}, {"note": 0, "velocity": 0, "duration": 89}, {"note": 70, "velocity": 122, "duration": 399}, {"note": 0, "velocity": 0, "duration": 321}, {"note": 70, "velocity": 122, "duration": 180}, {"note": 75, "velocity": 96, "duration": 170}, {"note": 0, "velocity": 0, "duration": 70}, {"note": 75, "velocity": 117, "duration": 126}, {"note": 0, "velocity": 0, "duration": 114}, {"note": 70, "velocity": 102, "duration": 94}, {"note": 68, "velocity": 92, "duration": 120}, {"note": 66, "velocity": 107, "duration": 186}, {"note": 66, "velocity": 122, "duration": 394}, {"note": 0, "velocity": 0, "duration": 326}, {"note": 65, "velocity": 102, "duration": 51}, {"note": 0, "velocity": 0, "duration": 69}, {"note": 65, "velocity": 96, "duration": 143}, {"note": 0, "velocity": 0, "duration": 97}, {"note": 63, "velocity": 107, "duration": 110}, {"note": 68, "velocity": 122, "duration": 179}, {"note": 0, "velocity": 0, "duration": 61}, {"note": 70, "velocity": 117, "duration": 39}, {"note": 0, "velocity": 0, "duration": 81}, {"note": 70, "velocity": 112, "duration": 47}, {"note": 0, "velocity": 0, "duration": 73}, {"note": 73, "velocity": 122, "duration": 273}, {"note": 0, "velocity": 0, "duration": 87}, {"note": 70, "velocity": 117, "duration": 107}, {"note": 73, "velocity": 127, "duration": 268}, {"note": 75, "velocity": 127, "duration": 145}, {"note": 0, "velocity": 0, "duration": 95}, {"note": 78, "velocity": 127, "duration": 235}, {"note": 0, "velocity": 0, "duration": 125}, {"note": 78, "velocity": 127, "duration": 86}, {"note": 77, "velocity": 117, "duration": 170}, {"note": 0, "velocity": 0, "duration": 70}, {"note": 75, "velocity": 127, "duration": 157}, {"note": 0, "velocity": 0, "duration": 83}, {"note": 80, "velocity": 127, "duration": 947}, {"note": 75, "velocity": 127, "duration": 190}, {"note": 77, "velocity": 102, "duration": 224}, {"note": 73, "velocity": 127, "duration": 140}, {"note": 70, "velocity": 117, "duration": 154}, {"note": 0, "velocity": 0, "duration": 86}, {"note": 70, "velocity": 112, "duration": 121}, {"note": 73, "velocity": 122, "duration": 220}, {"note": 75, "velocity": 122, "duration": 1591}, {"note": 0, "velocity": 0, "duration": 89}, {"note": 75, "velocity": 127, "duration": 204}, {"note": 78, "velocity": 127, "duration": 378}, {"note": 0, "velocity": 0, "duration": 102}, {"note": 75, "velocity": 127, "duration": 167}, {"note": 0, "velocity": 0, "duration": 73}, {"note": 80, "velocity": 127, "duration": 291}, {"note": 78, "velocity": 127, "duration": 579}, {"note": 0, "velocity": 0, "duration": 141}, {"note": 77, "velocity": 122, "duration": 188}, {"note": 75, "velocity": 107, "duration": 80}, {"note": 77, "velocity": 89, "duration": 99}, {"note": 73, "velocity": 107, "duration": 289}, {"note": 0, "velocity": 0, "duration": 71}, {"note": 70, "velocity": 117, "duration": 54}, {"note": 0, "velocity": 0, "duration": 66}, {"note": 73, "velocity": 127, "duration": 192}, {"note": 75, "velocity": 127, "duration": 739}, {"note": 75, "velocity": 122, "duration": 19}, {"note": 0, "velocity": 0, "duration": 221}, {"note": 78, "velocity": 127, "duration": 322}, {"note": 75, "velocity": 127, "duration": 173}, {"note": 0, "velocity": 0, "duration": 187}, {"note": 82, "velocity": 127, "duration": 213}, {"note": 80, "velocity": 127, "duration": 528}, {"note": 0, "velocity": 0, "duration": 192}, {"note": 77, "velocity": 127, "duration": 173}, {"note": 0, "velocity": 0, "duration": 67}, {"note": 75, "velocity": 122, "duration": 77}, {"note": 77, "velocity": 93, "duration": 87}, {"note": 75, "velocity": 122, "duration": 197}, {"note": 73, "velocity": 112, "duration": 207}, {"note": 75, "velocity": 96, "duration": 255}, {"note": 70, "velocity": 97, "duration": 115}, {"note": 70, "velocity": 100, "duration": 472}, {"note": 0, "velocity": 0, "duration": 128}, {"note": 70, "velocity": 127, "duration": 196}, {"note": 75, "velocity": 99, "duration": 150}, {"note": 0, "velocity": 0, "duration": 90}, {"note": 75, "velocity": 117, "duration": 144}, {"note": 0, "velocity": 0, "duration": 96}, {"note": 70, "velocity": 107, "duration": 102}, {"note": 68, "velocity": 86, "duration": 139}, {"note": 70, "velocity": 107, "duration": 151}, {"note": 0, "velocity": 0, "duration": 89}, {"note": 70, "velocity": 122, "duration": 399}, {"note": 0, "velocity": 0, "duration": 321}, {"note": 70, "velocity": 122, "duration": 180}, {"note": 75, "velocity": 96, "duration": 170}, {"note": 0, "velocity": 0, "duration": 70}, {"note": 75, "velocity": 117, "duration": 126}, {"note": 0, "velocity": 0, "duration": 114}, {"note": 70, "velocity": 102, "duration": 94}, {"note": 68, "velocity": 92, "duration": 120}, {"note": 66, "velocity": 107, "duration": 186}, {"note": 66, "velocity": 122, "duration": 394}, {"note": 0, "velocity": 0, "duration": 326}, {"note": 65, "velocity": 102, "duration": 51}, {"note": 0, "velocity": 0, "duration": 69}, {"note": 65, "velocity": 96, "duration": 143}, {"note": 0, "velocity": 0, "duration": 97}, {"note": 63, "velocity": 107, "duration": 110}, {"note": 68, "velocity": 122, "duration": 179}, {"note": 0, "velocity": 0, "duration": 61}, {"note": 70, "velocity": 117, "duration": 39}, {"note": 0, "velocity": 0, "duration": 81}, {"note": 70, "velocity": 112, "duration": 47}, {"note": 0, "velocity": 0, "duration": 73}, {"note": 73, "velocity": 122, "duration": 273}, {"note": 0, "velocity": 0, "duration": 87}, {"note": 70, "velocity": 117, "duration": 107}, {"note": 73, "velocity": 127, "duration": 268}, {"note": 75, "velocity": 127, "duration": 145}, {"note": 0, "velocity": 0, "duration": 95}, {"note": 78, "velocity": 127, "duration": 235}, {"note": 0, "velocity": 0, "duration": 125}, {"note": 78, "velocity": 127, "duration": 86}, {"note": 77, "velocity": 117, "duration": 170}, {"note": 0, "velocity": 0, "duration": 70}, {"note": 75, "velocity": 127, "duration": 157}, {"note": 0, "velocity": 0, "duration": 83}, {"note": 80, "velocity": 127, "duration": 1882}, {"note": 75, "velocity": 127, "duration": 265}, {"note": 77, "velocity": 100, "duration": 455}, {"note": 73, "velocity": 117, "duration": 416}, {"note": 0, "velocity": 0, "duration": 64}, {"note": 70, "velocity": 122, "duration": 668}, {"note": 75, "velocity": 127, "duration": 2024}]]