[[{"note": 68, "velocity": 112, "duration": 85}, {"note": 0, "velocity": 0, "duration": 155}, {"note": 76, "velocity": 117, "duration": 201}, {"note": 75, "velocity": 127, "duration": 197}, {"note": 76, "velocity": 107, "duration": 104}, {"note": 0, "velocity": 0, "duration": 136}, {"note": 76, "velocity": 127, "duration": 125}, {"note": 0, "velocity": 0, "duration": 355}, {"note": 68, "velocity": 107, "duration": 166}, {"note": 0, "velocity": 0, "duration": 74}, {"note": 73, "velocity": 127, "duration": 193}, {"note": 68, "velocity": 89, "duration": 159}, {"note": 0, "velocity": 0, "duration": 81}, {"note": 73, "velocity": 127, "duration": 150}, {"note": 0, "velocity": 0, "duration": 90}, {"note": 71, "velocity": 122, "duration": 649}, {"note": 0, "velocity": 0, "duration": 71}, {"note": 68, "velocity": 112, "duration": 103}, {"note": 0, "velocity": 0, "duration": 137}, {"note": 71, "velocity": 112, "duration": 261}, {"note": 73, "velocity": 117, "duration": 166}, {"note": 0, "velocity": 0, "duration": 74}, {"note": 73, "velocity": 127, "duration": 240}, {"note": 0, "velocity": 0, "duration": 480}, {"note": 64, "velocity": 107, "duration": 140}, {"note": 0, "velocity": 0, "duration": 100}, {"note": 64, "velocity": 95, "duration": 205}, {"note": 71, "velocity": 97, "duration": 216}, {"note": 68, "velocity": 99, "duration": 1551}, {"note": 0, "velocity": 0, "duration": 849}, {"note": 76, "velocity": 127, "duration": 69}, {"note": 0, "velocity": 0, "duration": 171}, {"note": 76, "velocity": 127, "duration": 147}, {"note": 0, "velocity": 0, "duration": 93}, {"note": 76, "velocity": 100, "duration": 99}, {"note": 0, "velocity": 0, "duration": 141}, {"note": 68, "velocity": 112, "duration": 180}, {"note": 76, "velocity": 122, "duration": 129}, {"note": 0, "velocity": 0, "duration": 351}, {"note": 71, "velocity": 117, "duration": 52}, {"note": 0, "velocity": 0, "duration": 188}, {"note": 73, "velocity": 127, "duration": 189}, {"note": 68, "velocity": 127, "duration": 66}, {"note": 0, "velocity": 0, "duration": 174}, {"note": 73, "velocity": 127, "duration": 198}, {"note": 71, "velocity": 127, "duration": 167}, {"note": 0, "velocity": 0, "duration": 73}, {"note": 71, "velocity": 127, "duration": 316}, {"note": 0, "velocity": 0, "duration": 164}, {"note": 68, "velocity": 127, "duration": 204}, {"note": 66, "velocity": 100, "duration": 216}, {"note": 64, "velocity": 102, "duration": 228}, {"note": 64, "velocity": 112, "duration": 230}, {"note": 0, "velocity": 0, "duration": 250}, {"note": 64, "velocity": 96, "duration": 215}, {"note": 73, "velocity": 112, "duration": 206}, {"note": 71, "velocity": 127, "duration": 87}, {"note": 0, "velocity": 0, "duration": 153}, {"note": 71, "velocity": 122, "duration": 105}, {"note": 0, "velocity": 0, "duration": 135}, {"note": 68, "velocity": 122, "duration": 382}, {"note": 66, "velocity": 112, "duration": 411}, {"note": 0, "velocity": 0, "duration": 1629}, {"note": 76, "velocity": 89, "duration": 93}, {"note": 0, "velocity": 0, "duration": 147}, {"note": 76, "velocity": 102, "duration": 114}, {"note": 0, "velocity": 0, "duration": 126}, {"note": 76, "velocity": 107, "duration": 99}, {"note": 0, "velocity": 0, "duration": 141}, {"note": 68, "velocity": 122, "duration": 176}, {"note": 0, "velocity": 0, "duration": 64}, {"note": 76, "velocity": 117, "duration": 118}, {"note": 0, "velocity": 0, "duration": 362}, {"note": 68, "velocity": 107, "duration": 166}, {"note": 0, "velocity": 0, "duration": 74}, {"note": 73, "velocity": 127, "duration": 193}, {"note": 68, "velocity": 122, "duration": 356}, {"note": 0, "velocity": 0, "duration": 124}, {"note": 71, "velocity": 122, "duration": 575}, {"note": 0, "velocity": 0, "duration": 145}, {"note": 68, "velocity": 117, "duration": 177}, {"note": 0, "velocity": 0, "duration": 63}, {"note": 71, "velocity": 100, "duration": 184}, {"note": 73, "velocity": 127, "duration": 154}, {"note": 0, "velocity": 0, "duration": 86}, {"note": 71, "velocity": 127, "duration": 98}, {"note": 0, "velocity": 0, "duration": 142}, {"note": 73, "velocity": 127, "duration": 183}, {"note": 73, "velocity": 127, "duration": 152}, {"note": 0, "velocity": 0, "duration": 88}, {"note": 64, "velocity": 107, "duration": 140}, {"note": 0, "velocity": 0, "duration": 100}, {"note": 64, "velocity": 95, "duration": 205}, {"note": 71, "velocity": 97, "duration": 216}, {"note": 68, "velocity": 99, "duration": 1551}, {"note": 0, "velocity": 0, "duration": 849}, {"note": 76, "velocity": 127, "duration": 116}, {"note": 0, "velocity": 0, "duration": 124}, {"note": 76, "velocity": 127, "duration": 103}, {"note": 0, "velocity": 0, "duration": 137}, {"note": 75, "velocity": 127, "duration": 111}, {"note": 0, "velocity": 0, "duration": 129}, {"note": 76, "velocity": 117, "duration": 204}, {"note": 68, "velocity": 107, "duration": 268}, {"note": 0, "velocity": 0, "duration": 212}, {"note": 68, "velocity": 117, "duration": 226}, {"note": 73, "velocity": 127, "duration": 189}, {"note": 68, "velocity": 127, "duration": 240}, {"note": 73, "velocity": 127, "duration": 198}, {"note": 71, "velocity": 127, "duration": 522}, {"note": 0, "velocity": 0, "duration": 198}, {"note": 68, "velocity": 127, "duration": 204}, {"note": 71, "velocity": 112, "duration": 207}, {"note": 73, "velocity": 122, "duration": 186}, {"note": 0, "velocity": 0, "duration": 294}, {"note": 73, "velocity": 127, "duration": 204}, {"note": 71, "velocity": 93, "duration": 168}, {"note": 0, "velocity": 0, "duration": 72}, {"note": 73, "velocity": 127, "duration": 152}, {"note": 0, "velocity": 0, "duration": 88}, {"note": 76, "velocity": 102, "duration": 175}, {"note": 0, "velocity": 0, "duration": 65}, {"note": 73, "velocity": 112, "duration": 117}, {"note": 0, "velocity": 0, "duration": 123}, {"note": 78, "velocity": 127, "duration": 1606}, {"note": 0, "velocity": 0, "duration": 74}, {"note": 76, "velocity": 127, "duration": 199}, {"note": 75, "velocity": 127, "duration": 192}, {"note": 76, "velocity": 127, "duration": 836}, {"note": 0, "velocity": 0, "duration": 604}, {"note": 73, "velocity": 127, "duration": 300}, {"note": 68, "velocity": 107, "duration": 180}, {"note": 71, "velocity": 112, "duration": 1040}, {"note": 0, "velocity": 0, "duration": 400}, {"note": 68, "velocity": 127, "duration": 189}, {"note": 71, "velocity": 107, "duration": 161}, {"note": 0, "velocity": 0, "duration": 79}, {"note": 73, "velocity": 117, "duration": 292}, {"note": 0, "velocity": 0, "duration": 188}, {"note": 76, "velocity": 127, "duration": 197}, {"note": 73, "velocity": 127, "duration": 275}, {"note": 0, "velocity": 0, "duration": 205}, {"note": 71, "velocity": 122, "duration": 195}, {"note": 66, "velocity": 117, "duration": 239}, {"note": 68, "velocity": 117, "duration": 699}, {"note": 0, "velocity": 0, "duration": 981}, {"note": 66, "velocity": 117, "duration": 206}, {"note": 68, "velocity": 112, "duration": 153}, {"note": 0, "velocity": 0, "duration": 87}, {"note": 71, "velocity": 107, "duration": 367}, {"note": 0, "velocity": 0, "duration": 113}, {"note": 68, "velocity": 122, "duration": 208}, {"note": 71, "velocity": 122, "duration": 407}, {"note": 0, "velocity": 0, "duration": 313}, {"note": 68, "velocity": 117, "duration": 162}, {"note": 0, "velocity": 0, "duration": 78}, {"note": 71, "velocity": 100, "duration": 158}, {"note": 0, "velocity": 0, "duration": 82}, {"note": 73, "velocity": 127, "duration": 341}, {"note": 0, "velocity": 0, "duration": 139}, {"note": 76, "velocity": 122, "duration": 216}, {"note": 73, "velocity": 117, "duration": 504}, {"note": 0, "velocity": 0, "duration": 216}, {"note": 71, "velocity": 107, "duration": 192}, {"note": 73, "velocity": 127, "duration": 166}, {"note": 0, "velocity": 0, "duration": 74}, {"note": 76, "velocity": 112, "duration": 129}, {"note": 0, "velocity": 0, "duration": 111}, {"note": 76, "velocity": 127, "duration": 411}, {"note": 0, "velocity": 0, "duration": 549}, {"note": 73, "velocity": 117, "duration": 190}, {"note": 80, "velocity": 127, "duration": 467}, {"note": 78, "velocity": 127, "duration": 1423}, {"note": 76, "velocity": 127, "duration": 199}, {"note": 75, "velocity": 127, "duration": 192}, {"note": 76, "velocity": 127, "duration": 836}, {"note": 0, "velocity": 0, "duration": 604}, {"note": 73, "velocity": 127, "duration": 300}, {"note": 68, "velocity": 107, "duration": 180}, {"note": 71, "velocity": 112, "duration": 1040}, {"note": 0, "velocity": 0, "duration": 400}, {"note": 68, "velocity": 127, "duration": 189}, {"note": 71, "velocity": 107, "duration": 161}, {"note": 0, "velocity": 0, "duration": 79}, {"note": 73, "velocity": 117, "duration": 292}, {"note": 0, "velocity": 0, "duration": 188}, {"note": 76, "velocity": 127, "duration": 197}, {"note": 73, "velocity": 127, "duration": 275}, {"note": 0, "velocity": 0, "duration": 205}, {"note": 71, "velocity": 122, "duration": 195}, {"note": 66, "velocity": 117, "duration": 239}, {"note": 68, "velocity": 117, "duration": 699}, {"note": 0, "velocity": 0, "duration": 981}, {"note": 66, "velocity": 127, "duration": 235}, {"note": 68, "velocity": 127, "duration": 240}, {"note": 71, "velocity": 107, "duration": 367}, {"note": 0, "velocity": 0, "duration": 353}, {"note": 71, "velocity": 127, "duration": 370}, {"note": 0, "velocity": 0, "duration": 350}, {"note": 68, "velocity": 117, "duration": 162}, {"note": 0, "velocity": 0, "duration": 78}, {"note": 71, "velocity": 100, "duration": 158}, {"note": 0, "velocity": 0, "duration": 82}, {"note": 73, "velocity": 127, "duration": 341}, {"note": 0, "velocity": 0, "duration": 139}, {"note": 76, "velocity": 122, "duration": 216}, {"note": 73, "velocity": 117, "duration": 504}, {"note": 0, "velocity": 0, "duration": 216}, {"note": 71, "velocity": 107, "duration": 192}, {"note": 73, "velocity": 127, "duration": 166}, {"note": 0, "velocity": 0, "duration": 74}, {"note": 76, "velocity": 112, "duration": 129}, {"note": 0, "velocity": 0, "duration": 111}, {"note": 76, "velocity": 127, "duration": 720}, {"note": 0, "velocity": 0, "duration": 240}, {"note": 76, "velocity": 112, "duration": 177}, {"note": 0, "velocity": 0, "duration": 63}, {"note": 73, "velocity": 127, "duration": 194}, {"note": 78, "velocity": 127, "duration": 1316}, {"note": 76, "velocity": 127, "duration": 323}, {"note": 0, "velocity": 0, "duration": 157}, {"note": 75, "velocity": 127, "duration": 168}, {"note": 0, "velocity": 0, "duration": 72}, {"note": 76, "velocity": 127, "duration": 427}, {"note": 73, "velocity": 127, "duration": 1888}, {"note": 0, "velocity": 0, "duration": 1952}, {"note": 68, "velocity": 112, "duration": 85}, {"note": 0, "velocity": 0, "duration": 155}, {"note": 76, "velocity": 127, "duration": 152}, {"note": 0, "velocity": 0, "duration": 88}, {"note": 76, "velocity": 107, "duration": 89}, {"note": 0, "velocity": 0, "duration": 151}, {"note": 76, "velocity": 127, "duration": 133}, {"note": 0, "velocity": 0, "duration": 107}, {"note": 68, "velocity": 127, "duration": 66}, {"note": 0, "velocity": 0, "duration": 174}, {"note": 76, "velocity": 127, "duration": 114}, {"note": 0, "velocity": 0, "duration": 126}, {"note": 68, "velocity": 107, "duration": 166}, {"note": 0, "velocity": 0, "duration": 74}, {"note": 73, "velocity": 127, "duration": 193}, {"note": 73, "velocity": 127, "duration": 317}, {"note": 0, "velocity": 0, "duration": 163}, {"note": 71, "velocity": 127, "duration": 517}, {"note": 0, "velocity": 0, "duration": 83}, {"note": 68, "velocity": 127, "duration": 210}, {"note": 0, "velocity": 0, "duration": 150}, {"note": 66, "velocity": 122, "duration": 238}, {"note": 64, "velocity": 112, "duration": 234}, {"note": 64, "velocity": 127, "duration": 147}, {"note": 0, "velocity": 0, "duration": 333}, {"note": 61, "velocity": 117, "duration": 70}, {"note": 0, "velocity": 0, "duration": 170}, {"note": 73, "velocity": 127, "duration": 216}, {"note": 71, "velocity": 99, "duration": 64}, {"note": 0, "velocity": 0, "duration": 176}, {"note": 71, "velocity": 117, "duration": 194}, {"note": 66, "velocity": 122, "duration": 230}, {"note": 68, "velocity": 107, "duration": 1072}, {"note": 0, "velocity": 0, "duration": 1088}, {"note": 76, "velocity": 69, "duration": 96}, {"note": 0, "velocity": 0, "duration": 144}, {"note": 76, "velocity": 112, "duration": 167}, {"note": 0, "velocity": 0, "duration": 73}, {"note": 68, "velocity": 112, "duration": 64}, {"note": 76, "velocity": 127, "duration": 177}, {"note": 0, "velocity": 0, "duration": 423}, {"note": 76, "velocity": 112, "duration": 187}, {"note": 68, "velocity": 122, "duration": 64}, {"note": 0, "velocity": 0, "duration": 176}, {"note": 73, "velocity": 127, "duration": 189}, {"note": 68, "velocity": 127, "duration": 66}, {"note": 0, "velocity": 0, "duration": 174}, {"note": 73, "velocity": 127, "duration": 198}, {"note": 71, "velocity": 127, "duration": 409}, {"note": 0, "velocity": 0, "duration": 311}, {"note": 68, "velocity": 127, "duration": 178}, {"note": 0, "velocity": 0, "duration": 62}, {"note": 71, "velocity": 107, "duration": 240}, {"note": 73, "velocity": 127, "duration": 127}, {"note": 0, "velocity": 0, "duration": 113}, {"note": 73, "velocity": 127, "duration": 186}, {"note": 0, "velocity": 0, "duration": 534}, {"note": 73, "velocity": 112, "duration": 206}, {"note": 71, "velocity": 127, "duration": 87}, {"note": 0, "velocity": 0, "duration": 153}, {"note": 71, "velocity": 122, "duration": 105}, {"note": 0, "velocity": 0, "duration": 135}, {"note": 64, "velocity": 100, "duration": 218}, {"note": 66, "velocity": 127, "duration": 1545}, {"note": 0, "velocity": 0, "duration": 615}, {"note": 76, "velocity": 127, "duration": 105}, {"note": 0, "velocity": 0, "duration": 135}, {"note": 76, "velocity": 127, "duration": 80}, {"note": 0, "velocity": 0, "duration": 160}, {"note": 76, "velocity": 127, "duration": 78}, {"note": 0, "velocity": 0, "duration": 162}, {"note": 76, "velocity": 127, "duration": 160}, {"note": 0, "velocity": 0, "duration": 560}, {"note": 76, "velocity": 127, "duration": 84}, {"note": 0, "velocity": 0, "duration": 156}, {"note": 68, "velocity": 122, "duration": 180}, {"note": 71, "velocity": 122, "duration": 170}, {"note": 0, "velocity": 0, "duration": 70}, {"note": 73, "velocity": 122, "duration": 178}, {"note": 0, "velocity": 0, "duration": 62}, {"note": 71, "velocity": 127, "duration": 276}, {"note": 0, "velocity": 0, "duration": 444}, {"note": 68, "velocity": 117, "duration": 177}, {"note": 0, "velocity": 0, "duration": 63}, {"note": 71, "velocity": 100, "duration": 184}, {"note": 73, "velocity": 127, "duration": 154}, {"note": 0, "velocity": 0, "duration": 86}, {"note": 73, "velocity": 127, "duration": 171}, {"note": 0, "velocity": 0, "duration": 309}, {"note": 73, "velocity": 127, "duration": 138}, {"note": 0, "velocity": 0, "duration": 102}, {"note": 64, "velocity": 107, "duration": 140}, {"note": 0, "velocity": 0, "duration": 100}, {"note": 64, "velocity": 95, "duration": 205}, {"note": 71, "velocity": 97, "duration": 216}, {"note": 68, "velocity": 99, "duration": 2160}, {"note": 0, "velocity": 0, "duration": 240}, {"note": 76, "velocity": 86, "duration": 83}, {"note": 0, "velocity": 0, "duration": 157}, {"note": 76, "velocity": 102, "duration": 189}, {"note": 68, "velocity": 127, "duration": 104}, {"note": 0, "velocity": 0, "duration": 136}, {"note": 76, "velocity": 127, "duration": 110}, {"note": 0, "velocity": 0, "duration": 130}, {"note": 76, "velocity": 127, "duration": 116}, {"note": 0, "velocity": 0, "duration": 124}, {"note": 73, "velocity": 127, "duration": 149}, {"note": 0, "velocity": 0, "duration": 331}, {"note": 68, "velocity": 127, "duration": 170}, {"note": 0, "velocity": 0, "duration": 70}, {"note": 71, "velocity": 117, "duration": 172}, {"note": 0, "velocity": 0, "duration": 68}, {"note": 73, "velocity": 127, "duration": 174}, {"note": 71, "velocity": 122, "duration": 146}, {"note": 0, "velocity": 0, "duration": 214}, {"note": 71, "velocity": 127, "duration": 226}, {"note": 0, "velocity": 0, "duration": 254}, {"note": 68, "velocity": 127, "duration": 204}, {"note": 71, "velocity": 112, "duration": 207}, {"note": 73, "velocity": 122, "duration": 186}, {"note": 73, "velocity": 127, "duration": 121}, {"note": 0, "velocity": 0, "duration": 359}, {"note": 73, "velocity": 127, "duration": 99}, {"note": 71, "velocity": 100, "duration": 76}, {"note": 73, "velocity": 127, "duration": 152}, {"note": 0, "velocity": 0, "duration": 88}, {"note": 76, "velocity": 102, "duration": 175}, {"note": 0, "velocity": 0, "duration": 65}, {"note": 73, "velocity": 112, "duration": 117}, {"note": 0, "velocity": 0, "duration": 123}, {"note": 78, "velocity": 127, "duration": 1606}, {"note": 0, "velocity": 0, "duration": 74}, {"note": 76, "velocity": 127, "duration": 199}, {"note": 75, "velocity": 127, "duration": 192}, {"note": 76, "velocity": 127, "duration": 836}, {"note": 0, "velocity": 0, "duration": 604}, {"note": 73, "velocity": 127, "duration": 300}, {"note": 68, "velocity": 107, "duration": 180}, {"note": 71, "velocity": 112, "duration": 1040}, {"note": 0, "velocity": 0, "duration": 400}, {"note": 68, "velocity": 127, "duration": 189}, {"note": 71, "velocity": 107, "duration": 161}, {"note": 0, "velocity": 0, "duration": 79}, {"note": 73, "velocity": 117, "duration": 292}, {"note": 0, "velocity": 0, "duration": 188}, {"note": 76, "velocity": 127, "duration": 197}, {"note": 73, "velocity": 127, "duration": 275}, {"note": 0, "velocity": 0, "duration": 205}, {"note": 71, "velocity": 122, "duration": 195}, {"note": 66, "velocity": 117, "duration": 239}, {"note": 68, "velocity": 117, "duration": 699}, {"note": 0, "velocity": 0, "duration": 981}, {"note": 66, "velocity": 117, "duration": 206}, {"note": 68, "velocity": 112, "duration": 153}, {"note": 0, "velocity": 0, "duration": 87}, {"note": 71, "velocity": 107, "duration": 367}, {"note": 0, "velocity": 0, "duration": 113}, {"note": 68, "velocity": 122, "duration": 208}, {"note": 71, "velocity": 122, "duration": 407}, {"note": 0, "velocity": 0, "duration": 313}, {"note": 68, "velocity": 117, "duration": 162}, {"note": 0, "velocity": 0, "duration": 78}, {"note": 71, "velocity": 100, "duration": 158}, {"note": 0, "velocity": 0, "duration": 82}, {"note": 73, "velocity": 127, "duration": 341}, {"note": 0, "velocity": 0, "duration": 139}, {"note": 76, "velocity": 122, "duration": 216}, {"note": 73, "velocity": 117, "duration": 504}, {"note": 0, "velocity": 0, "duration": 216}, {"note": 71, "velocity": 107, "duration": 192}, {"note": 73, "velocity": 127, "duration": 166}, {"note": 0, "velocity": 0, "duration": 74}, {"note": 76, "velocity": 112, "duration": 129}, {"note": 0, "velocity": 0, "duration": 111}, {"note": 76, "velocity": 127, "duration": 411}, {"note": 0, "velocity": 0, "duration": 549}, {"note": 73, "velocity": 117, "duration": 190}, {"note": 80, "velocity": 127, "duration": 467}, {"note": 78, "velocity": 127, "duration": 1423}, {"note": 76, "velocity": 127, "duration": 199}, {"note": 75, "velocity": 127, "duration": 192}, {"note": 76, "velocity": 127, "duration": 836}, {"note": 0, "velocity": 0, "duration": 604}, {"note": 73, "velocity": 127, "duration": 300}, {"note": 68, "velocity": 107, "duration": 180}, {"note": 71, "velocity": 112, "duration": 1040}, {"note": 0, "velocity": 0, "duration": 400}, {"note": 68, "velocity": 127, "duration": 189}, {"note": 71, "velocity": 107, "duration": 161}, {"note": 0, "velocity": 0, "duration": 79}, {"note": 73, "velocity": 117, "duration": 292}, {"note": 0, "velocity": 0, "duration": 188}, {"note": 76, "velocity": 127, "duration": 197}, {"note": 73, "velocity": 127, "duration": 275}, {"note": 0, "velocity": 0, "duration": 205}, {"note": 71, "velocity": 122, "duration": 195}, {"note": 66, "velocity": 117, "duration": 239}, {"note": 68, "velocity": 117, "duration": 699}, {"note": 0, "velocity": 0, "duration": 981}, {"note": 66, "velocity": 127, "duration": 235}, {"note": 68, "velocity": 127, "duration": 240}, {"note": 71, "velocity": 107, "duration": 367}, {"note": 0, "velocity": 0, "duration": 353}, {"note": 71, "velocity": 127, "duration": 370}, {"note": 0, "velocity": 0, "duration": 350}, {"note": 68, "velocity": 117, "duration": 162}, {"note": 0, "velocity": 0, "duration": 78}, {"note": 71, "velocity": 100, "duration": 158}, {"note": 0, "velocity": 0, "duration": 82}, {"note": 73, "velocity": 127, "duration": 341}, {"note": 0, "velocity": 0, "duration": 139}, {"note": 76, "velocity": 122, "duration": 216}, {"note": 73, "velocity": 117, "duration": 504}, {"note": 0, "velocity": 0, "duration": 216}, {"note": 71, "velocity": 107, "duration": 192}, {"note": 73, "velocity": 127, "duration": 166}, {"note": 0, "velocity": 0, "duration": 74}, {"note": 76, "velocity": 112, "duration": 129}, {"note": 0, "velocity": 0, "duration": 111}, {"note": 76, "velocity": 127, "duration": 720}, {"note": 0, "velocity": 0, "duration": 240}, {"note": 76, "velocity": 112, "duration": 177}, {"note": 0, "velocity": 0, "duration": 63}, {"note": 73, "velocity": 127, "duration": 194}, {"note": 78, "velocity": 127, "duration": 1316}, {"note": 76, "velocity": 127, "duration": 323}, {"note": 0, "velocity": 0, "duration": 157}, {"note": 75, "velocity": 127, "duration": 168}, {"note": 0, "velocity": 0, "duration": 72}, {"note": 76, "velocity": 127, "duration": 427}, {"note": 73, "velocity": 127, "duration": 1888}]]