[[{"note": 65, "velocity": 97, "duration": 212}, {"note": 67, "velocity": 95, "duration": 230}, {"note": 65, "velocity": 89, "duration": 243}, {"note": 74, "velocity": 99, "duration": 186}, {"note": 74, "velocity": 97, "duration": 242}, {"note": 0, "velocity": 0, "duration": 718}, {"note": 67, "velocity": 99, "duration": 231}, {"note": 70, "velocity": 100, "duration": 161}, {"note": 0, "velocity": 0, "duration": 79}, {"note": 72, "velocity": 102, "duration": 123}, {"note": 70, "velocity": 102, "duration": 132}, {"note": 67, "velocity": 97, "duration": 259}, {"note": 65, "velocity": 89, "duration": 760}, {"note": 0, "velocity": 0, "duration": 200}, {"note": 65, "velocity": 96, "duration": 255}, {"note": 67, "velocity": 95, "duration": 204}, {"note": 65, "velocity": 96, "duration": 135}, {"note": 0, "velocity": 0, "duration": 105}, {"note": 79, "velocity": 117, "duration": 231}, {"note": 77, "velocity": 117, "duration": 117}, {"note": 0, "velocity": 0, "duration": 123}, {"note": 74, "velocity": 122, "duration": 124}, {"note": 0, "velocity": 0, "duration": 116}, {"note": 72, "velocity": 117, "duration": 152}, {"note": 0, "velocity": 0, "duration": 88}, {"note": 70, "velocity": 107, "duration": 80}, {"note": 72, "velocity": 99, "duration": 812}, {"note": 0, "velocity": 0, "duration": 1228}, {"note": 74, "velocity": 100, "duration": 161}, {"note": 0, "velocity": 0, "duration": 79}, {"note": 74, "velocity": 100, "duration": 180}, {"note": 72, "velocity": 107, "duration": 178}, {"note": 0, "velocity": 0, "duration": 62}, {"note": 74, "velocity": 117, "duration": 199}, {"note": 77, "velocity": 100, "duration": 579}, {"note": 0, "velocity": 0, "duration": 381}, {"note": 69, "velocity": 102, "duration": 213}, {"note": 70, "velocity": 97, "duration": 184}, {"note": 72, "velocity": 107, "duration": 222}, {"note": 69, "velocity": 89, "duration": 101}, {"note": 70, "velocity": 112, "duration": 163}, {"note": 0, "velocity": 0, "duration": 917}, {"note": 67, "velocity": 107, "duration": 255}, {"note": 65, "velocity": 83, "duration": 208}, {"note": 67, "velocity": 95, "duration": 186}, {"note": 74, "velocity": 102, "duration": 147}, {"note": 0, "velocity": 0, "duration": 93}, {"note": 67, "velocity": 100, "duration": 154}, {"note": 0, "velocity": 0, "duration": 86}, {"note": 65, "velocity": 107, "duration": 107}, {"note": 0, "velocity": 0, "duration": 133}, {"note": 67, "velocity": 95, "duration": 102}, {"note": 70, "velocity": 107, "duration": 156}, {"note": 0, "velocity": 0, "duration": 204}, {"note": 72, "velocity": 99, "duration": 157}, {"note": 0, "velocity": 0, "duration": 83}, {"note": 70, "velocity": 100, "duration": 98}, {"note": 0, "velocity": 0, "duration": 142}, {"note": 72, "velocity": 97, "duration": 138}, {"note": 74, "velocity": 102, "duration": 103}, {"note": 77, "velocity": 127, "duration": 161}, {"note": 0, "velocity": 0, "duration": 996}, {"note": 65, "velocity": 97, "duration": 212}, {"note": 67, "velocity": 95, "duration": 230}, {"note": 65, "velocity": 89, "duration": 243}, {"note": 74, "velocity": 99, "duration": 186}, {"note": 74, "velocity": 97, "duration": 242}, {"note": 0, "velocity": 0, "duration": 718}, {"note": 67, "velocity": 99, "duration": 231}, {"note": 70, "velocity": 100, "duration": 161}, {"note": 0, "velocity": 0, "duration": 79}, {"note": 72, "velocity": 102, "duration": 123}, {"note": 70, "velocity": 102, "duration": 132}, {"note": 67, "velocity": 97, "duration": 259}, {"note": 65, "velocity": 89, "duration": 760}, {"note": 0, "velocity": 0, "duration": 200}, {"note": 65, "velocity": 96, "duration": 255}, {"note": 67, "velocity": 95, "duration": 204}, {"note": 65, "velocity": 96, "duration": 135}, {"note": 0, "velocity": 0, "duration": 105}, {"note": 79, "velocity": 117, "duration": 231}, {"note": 77, "velocity": 117, "duration": 117}, {"note": 0, "velocity": 0, "duration": 123}, {"note": 74, "velocity": 122, "duration": 124}, {"note": 0, "velocity": 0, "duration": 116}, {"note": 72, "velocity": 117, "duration": 152}, {"note": 0, "velocity": 0, "duration": 88}, {"note": 70, "velocity": 107, "duration": 80}, {"note": 72, "velocity": 99, "duration": 812}, {"note": 0, "velocity": 0, "duration": 1228}, {"note": 74, "velocity": 100, "duration": 161}, {"note": 0, "velocity": 0, "duration": 79}, {"note": 74, "velocity": 100, "duration": 180}, {"note": 72, "velocity": 107, "duration": 178}, {"note": 0, "velocity": 0, "duration": 62}, {"note": 74, "velocity": 117, "duration": 199}, {"note": 77, "velocity": 100, "duration": 579}, {"note": 0, "velocity": 0, "duration": 381}, {"note": 69, "velocity": 102, "duration": 213}, {"note": 70, "velocity": 97, "duration": 184}, {"note": 72, "velocity": 107, "duration": 222}, {"note": 69, "velocity": 89, "duration": 101}, {"note": 70, "velocity": 112, "duration": 163}, {"note": 0, "velocity": 0, "duration": 917}, {"note": 67, "velocity": 107, "duration": 255}, {"note": 65, "velocity": 83, "duration": 208}, {"note": 67, "velocity": 95, "duration": 186}, {"note": 74, "velocity": 102, "duration": 147}, {"note": 0, "velocity": 0, "duration": 93}, {"note": 67, "velocity": 100, "duration": 154}, {"note": 0, "velocity": 0, "duration": 86}, {"note": 65, "velocity": 107, "duration": 107}, {"note": 0, "velocity": 0, "duration": 133}, {"note": 67, "velocity": 95, "duration": 102}, {"note": 70, "velocity": 107, "duration": 156}, {"note": 0, "velocity": 0, "duration": 204}, {"note": 77, "velocity": 122, "duration": 127}, {"note": 79, "velocity": 97, "duration": 270}, {"note": 0, "velocity": 0, "duration": 90}, {"note": 77, "velocity": 122, "duration": 77}, {"note": 0, "velocity": 0, "duration": 163}, {"note": 74, "velocity": 127, "duration": 144}, {"note": 0, "velocity": 0, "duration": 96}, {"note": 74, "velocity": 127, "duration": 103}, {"note": 72, "velocity": 112, "duration": 1119}, {"note": 0, "velocity": 0, "duration": 681}, {"note": 65, "velocity": 102, "duration": 202}, {"note": 67, "velocity": 99, "duration": 165}, {"note": 0, "velocity": 0, "duration": 75}, {"note": 70, "velocity": 127, "duration": 170}, {"note": 0, "velocity": 0, "duration": 70}, {"note": 72, "velocity": 102, "duration": 196}, {"note": 74, "velocity": 127, "duration": 117}, {"note": 0, "velocity": 0, "duration": 123}, {"note": 77, "velocity": 117, "duration": 156}, {"note": 0, "velocity": 0, "duration": 84}, {"note": 79, "velocity": 122, "duration": 113}, {"note": 0, "velocity": 0, "duration": 127}, {"note": 77, "velocity": 127, "duration": 100}, {"note": 0, "velocity": 0, "duration": 140}, {"note": 70, "velocity": 122, "duration": 113}, {"note": 0, "velocity": 0, "duration": 127}, {"note": 69, "velocity": 102, "duration": 109}, {"note": 0, "velocity": 0, "duration": 131}, {"note": 70, "velocity": 127, "duration": 75}, {"note": 0, "velocity": 0, "duration": 165}, {"note": 72, "velocity": 127, "duration": 107}, {"note": 74, "velocity": 112, "duration": 59}, {"note": 0, "velocity": 0, "duration": 61}, {"note": 74, "velocity": 127, "duration": 148}, {"note": 0, "velocity": 0, "duration": 812}, {"note": 79, "velocity": 127, "duration": 186}, {"note": 77, "velocity": 127, "duration": 104}, {"note": 0, "velocity": 0, "duration": 136}, {"note": 77, "velocity": 127, "duration": 82}, {"note": 0, "velocity": 0, "duration": 158}, {"note": 77, "velocity": 122, "duration": 91}, {"note": 79, "velocity": 112, "duration": 77}, {"note": 77, "velocity": 127, "duration": 144}, {"note": 0, "velocity": 0, "duration": 96}, {"note": 74, "velocity": 112, "duration": 108}, {"note": 77, "velocity": 112, "duration": 65}, {"note": 77, "velocity": 127, "duration": 110}, {"note": 0, "velocity": 0, "duration": 250}, {"note": 70, "velocity": 122, "duration": 64}, {"note": 72, "velocity": 107, "duration": 87}, {"note": 0, "velocity": 0, "duration": 153}, {"note": 70, "velocity": 122, "duration": 92}, {"note": 0, "velocity": 0, "duration": 148}, {"note": 72, "velocity": 102, "duration": 117}, {"note": 0, "velocity": 0, "duration": 123}, {"note": 74, "velocity": 117, "duration": 186}, {"note": 72, "velocity": 127, "duration": 184}, {"note": 0, "velocity": 0, "duration": 776}, {"note": 65, "velocity": 102, "duration": 155}, {"note": 0, "velocity": 0, "duration": 85}, {"note": 67, "velocity": 96, "duration": 151}, {"note": 0, "velocity": 0, "duration": 89}, {"note": 70, "velocity": 127, "duration": 109}, {"note": 0, "velocity": 0, "duration": 131}, {"note": 72, "velocity": 127, "duration": 158}, {"note": 0, "velocity": 0, "duration": 82}, {"note": 74, "velocity": 127, "duration": 128}, {"note": 0, "velocity": 0, "duration": 112}, {"note": 77, "velocity": 127, "duration": 153}, {"note": 0, "velocity": 0, "duration": 87}, {"note": 79, "velocity": 127, "duration": 175}, {"note": 0, "velocity": 0, "duration": 65}, {"note": 77, "velocity": 127, "duration": 139}, {"note": 0, "velocity": 0, "duration": 101}, {"note": 70, "velocity": 117, "duration": 141}, {"note": 0, "velocity": 0, "duration": 99}, {"note": 69, "velocity": 107, "duration": 157}, {"note": 0, "velocity": 0, "duration": 83}, {"note": 70, "velocity": 117, "duration": 137}, {"note": 0, "velocity": 0, "duration": 103}, {"note": 74, "velocity": 122, "duration": 110}, {"note": 0, "velocity": 0, "duration": 130}, {"note": 74, "velocity": 127, "duration": 261}, {"note": 0, "velocity": 0, "duration": 699}, {"note": 79, "velocity": 127, "duration": 68}, {"note": 0, "velocity": 0, "duration": 172}, {"note": 77, "velocity": 100, "duration": 86}, {"note": 0, "velocity": 0, "duration": 154}, {"note": 79, "velocity": 127, "duration": 102}, {"note": 0, "velocity": 0, "duration": 378}, {"note": 77, "velocity": 122, "duration": 120}, {"note": 0, "velocity": 0, "duration": 120}, {"note": 77, "velocity": 122, "duration": 188}, {"note": 77, "velocity": 127, "duration": 178}, {"note": 0, "velocity": 0, "duration": 302}, {"note": 72, "velocity": 117, "duration": 165}, {"note": 0, "velocity": 0, "duration": 75}, {"note": 70, "velocity": 127, "duration": 214}, {"note": 67, "velocity": 102, "duration": 216}, {"note": 72, "velocity": 122, "duration": 210}, {"note": 70, "velocity": 127, "duration": 830}, {"note": 0, "velocity": 0, "duration": 15490}, {"note": 65, "velocity": 97, "duration": 212}, {"note": 67, "velocity": 95, "duration": 230}, {"note": 65, "velocity": 89, "duration": 243}, {"note": 74, "velocity": 99, "duration": 186}, {"note": 74, "velocity": 97, "duration": 242}, {"note": 0, "velocity": 0, "duration": 718}, {"note": 67, "velocity": 99, "duration": 231}, {"note": 70, "velocity": 100, "duration": 161}, {"note": 0, "velocity": 0, "duration": 79}, {"note": 72, "velocity": 102, "duration": 123}, {"note": 70, "velocity": 102, "duration": 132}, {"note": 67, "velocity": 97, "duration": 259}, {"note": 65, "velocity": 89, "duration": 760}, {"note": 0, "velocity": 0, "duration": 200}, {"note": 65, "velocity": 96, "duration": 255}, {"note": 67, "velocity": 95, "duration": 204}, {"note": 65, "velocity": 96, "duration": 135}, {"note": 0, "velocity": 0, "duration": 105}, {"note": 79, "velocity": 117, "duration": 231}, {"note": 77, "velocity": 117, "duration": 117}, {"note": 0, "velocity": 0, "duration": 123}, {"note": 74, "velocity": 122, "duration": 124}, {"note": 0, "velocity": 0, "duration": 116}, {"note": 72, "velocity": 117, "duration": 152}, {"note": 0, "velocity": 0, "duration": 88}, {"note": 70, "velocity": 107, "duration": 80}, {"note": 72, "velocity": 99, "duration": 812}, {"note": 0, "velocity": 0, "duration": 1228}, {"note": 74, "velocity": 100, "duration": 161}, {"note": 0, "velocity": 0, "duration": 79}, {"note": 74, "velocity": 100, "duration": 180}, {"note": 72, "velocity": 107, "duration": 178}, {"note": 0, "velocity": 0, "duration": 62}, {"note": 74, "velocity": 117, "duration": 199}, {"note": 77, "velocity": 100, "duration": 579}, {"note": 0, "velocity": 0, "duration": 381}, {"note": 69, "velocity": 102, "duration": 213}, {"note": 70, "velocity": 97, "duration": 184}, {"note": 72, "velocity": 107, "duration": 222}, {"note": 69, "velocity": 89, "duration": 101}, {"note": 70, "velocity": 112, "duration": 163}, {"note": 0, "velocity": 0, "duration": 917}, {"note": 67, "velocity": 107, "duration": 255}, {"note": 65, "velocity": 83, "duration": 208}, {"note": 67, "velocity": 95, "duration": 186}, {"note": 74, "velocity": 102, "duration": 147}, {"note": 0, "velocity": 0, "duration": 93}, {"note": 67, "velocity": 100, "duration": 154}, {"note": 0, "velocity": 0, "duration": 86}, {"note": 65, "velocity": 107, "duration": 107}, {"note": 0, "velocity": 0, "duration": 133}, {"note": 67, "velocity": 95, "duration": 102}, {"note": 70, "velocity": 107, "duration": 156}, {"note": 0, "velocity": 0, "duration": 204}, {"note": 72, "velocity": 99, "duration": 157}, {"note": 0, "velocity": 0, "duration": 83}, {"note": 70, "velocity": 100, "duration": 98}, {"note": 0, "velocity": 0, "duration": 142}, {"note": 72, "velocity": 97, "duration": 138}, {"note": 74, "velocity": 102, "duration": 103}, {"note": 77, "velocity": 127, "duration": 161}, {"note": 0, "velocity": 0, "duration": 996}, {"note": 65, "velocity": 97, "duration": 212}, {"note": 67, "velocity": 95, "duration": 230}, {"note": 65, "velocity": 89, "duration": 243}, {"note": 74, "velocity": 99, "duration": 186}, {"note": 74, "velocity": 97, "duration": 242}, {"note": 0, "velocity": 0, "duration": 718}, {"note": 67, "velocity": 99, "duration": 231}, {"note": 70, "velocity": 100, "duration": 161}, {"note": 0, "velocity": 0, "duration": 79}, {"note": 72, "velocity": 102, "duration": 123}, {"note": 70, "velocity": 102, "duration": 132}, {"note": 67, "velocity": 97, "duration": 259}, {"note": 65, "velocity": 89, "duration": 760}, {"note": 0, "velocity": 0, "duration": 200}, {"note": 65, "velocity": 96, "duration": 255}, {"note": 67, "velocity": 95, "duration": 204}, {"note": 65, "velocity": 96, "duration": 135}, {"note": 0, "velocity": 0, "duration": 105}, {"note": 79, "velocity": 117, "duration": 231}, {"note": 77, "velocity": 117, "duration": 117}, {"note": 0, "velocity": 0, "duration": 123}, {"note": 74, "velocity": 122, "duration": 124}, {"note": 0, "velocity": 0, "duration": 116}, {"note": 72, "velocity": 117, "duration": 152}, {"note": 0, "velocity": 0, "duration": 88}, {"note": 70, "velocity": 107, "duration": 80}, {"note": 72, "velocity": 99, "duration": 812}, {"note": 0, "velocity": 0, "duration": 1228}, {"note": 74, "velocity": 100, "duration": 161}, {"note": 0, "velocity": 0, "duration": 79}, {"note": 74, "velocity": 100, "duration": 180}, {"note": 72, "velocity": 107, "duration": 178}, {"note": 0, "velocity": 0, "duration": 62}, {"note": 74, "velocity": 117, "duration": 199}, {"note": 77, "velocity": 100, "duration": 579}, {"note": 0, "velocity": 0, "duration": 381}, {"note": 69, "velocity": 102, "duration": 213}, {"note": 70, "velocity": 97, "duration": 184}, {"note": 72, "velocity": 107, "duration": 222}, {"note": 69, "velocity": 89, "duration": 101}, {"note": 70, "velocity": 112, "duration": 163}, {"note": 0, "velocity": 0, "duration": 917}, {"note": 67, "velocity": 107, "duration": 255}, {"note": 65, "velocity": 83, "duration": 208}, {"note": 67, "velocity": 95, "duration": 186}, {"note": 74, "velocity": 102, "duration": 147}, {"note": 0, "velocity": 0, "duration": 93}, {"note": 67, "velocity": 100, "duration": 154}, {"note": 0, "velocity": 0, "duration": 86}, {"note": 65, "velocity": 107, "duration": 107}, {"note": 0, "velocity": 0, "duration": 133}, {"note": 67, "velocity": 95, "duration": 102}, {"note": 70, "velocity": 107, "duration": 156}, {"note": 0, "velocity": 0, "duration": 204}, {"note": 77, "velocity": 122, "duration": 127}, {"note": 79, "velocity": 97, "duration": 270}, {"note": 0, "velocity": 0, "duration": 90}, {"note": 77, "velocity": 122, "duration": 77}, {"note": 0, "velocity": 0, "duration": 163}, {"note": 74, "velocity": 127, "duration": 144}, {"note": 0, "velocity": 0, "duration": 96}, {"note": 74, "velocity": 127, "duration": 103}, {"note": 72, "velocity": 112, "duration": 1119}, {"note": 0, "velocity": 0, "duration": 681}, {"note": 65, "velocity": 102, "duration": 202}, {"note": 67, "velocity": 99, "duration": 165}, {"note": 0, "velocity": 0, "duration": 75}, {"note": 70, "velocity": 127, "duration": 170}, {"note": 0, "velocity": 0, "duration": 70}, {"note": 72, "velocity": 102, "duration": 196}, {"note": 74, "velocity": 127, "duration": 117}, {"note": 0, "velocity": 0, "duration": 123}, {"note": 77, "velocity": 117, "duration": 156}, {"note": 0, "velocity": 0, "duration": 84}, {"note": 79, "velocity": 122, "duration": 113}, {"note": 0, "velocity": 0, "duration": 127}, {"note": 77, "velocity": 127, "duration": 100}, {"note": 0, "velocity": 0, "duration": 140}, {"note": 70, "velocity": 122, "duration": 113}, {"note": 0, "velocity": 0, "duration": 127}, {"note": 69, "velocity": 102, "duration": 109}, {"note": 0, "velocity": 0, "duration": 131}, {"note": 70, "velocity": 127, "duration": 75}, {"note": 0, "velocity": 0, "duration": 165}, {"note": 72, "velocity": 127, "duration": 107}, {"note": 74, "velocity": 112, "duration": 59}, {"note": 0, "velocity": 0, "duration": 61}, {"note": 74, "velocity": 127, "duration": 148}, {"note": 0, "velocity": 0, "duration": 812}, {"note": 79, "velocity": 127, "duration": 186}, {"note": 77, "velocity": 127, "duration": 104}, {"note": 0, "velocity": 0, "duration": 136}, {"note": 77, "velocity": 127, "duration": 82}, {"note": 0, "velocity": 0, "duration": 158}, {"note": 77, "velocity": 122, "duration": 91}, {"note": 79, "velocity": 112, "duration": 77}, {"note": 77, "velocity": 127, "duration": 144}, {"note": 0, "velocity": 0, "duration": 96}, {"note": 74, "velocity": 112, "duration": 108}, {"note": 77, "velocity": 112, "duration": 65}, {"note": 77, "velocity": 127, "duration": 110}, {"note": 0, "velocity": 0, "duration": 250}, {"note": 70, "velocity": 122, "duration": 64}, {"note": 72, "velocity": 107, "duration": 87}, {"note": 0, "velocity": 0, "duration": 153}, {"note": 70, "velocity": 122, "duration": 92}, {"note": 0, "velocity": 0, "duration": 148}, {"note": 72, "velocity": 102, "duration": 117}, {"note": 0, "velocity": 0, "duration": 123}, {"note": 74, "velocity": 117, "duration": 186}, {"note": 72, "velocity": 127, "duration": 184}, {"note": 0, "velocity": 0, "duration": 776}, {"note": 65, "velocity": 102, "duration": 155}, {"note": 0, "velocity": 0, "duration": 85}, {"note": 67, "velocity": 96, "duration": 151}, {"note": 0, "velocity": 0, "duration": 89}, {"note": 70, "velocity": 127, "duration": 109}, {"note": 0, "velocity": 0, "duration": 131}, {"note": 72, "velocity": 127, "duration": 158}, {"note": 0, "velocity": 0, "duration": 82}, {"note": 74, "velocity": 127, "duration": 128}, {"note": 0, "velocity": 0, "duration": 112}, {"note": 77, "velocity": 127, "duration": 153}, {"note": 0, "velocity": 0, "duration": 87}, {"note": 79, "velocity": 127, "duration": 175}, {"note": 0, "velocity": 0, "duration": 65}, {"note": 77, "velocity": 127, "duration": 139}, {"note": 0, "velocity": 0, "duration": 101}, {"note": 70, "velocity": 117, "duration": 141}, {"note": 0, "velocity": 0, "duration": 99}, {"note": 69, "velocity": 107, "duration": 157}, {"note": 0, "velocity": 0, "duration": 83}, {"note": 70, "velocity": 117, "duration": 137}, {"note": 0, "velocity": 0, "duration": 103}, {"note": 74, "velocity": 122, "duration": 110}, {"note": 0, "velocity": 0, "duration": 130}, {"note": 74, "velocity": 127, "duration": 261}, {"note": 0, "velocity": 0, "duration": 699}, {"note": 79, "velocity": 127, "duration": 68}, {"note": 0, "velocity": 0, "duration": 172}, {"note": 77, "velocity": 100, "duration": 86}, {"note": 0, "velocity": 0, "duration": 154}, {"note": 79, "velocity": 127, "duration": 102}, {"note": 0, "velocity": 0, "duration": 378}, {"note": 77, "velocity": 122, "duration": 120}, {"note": 0, "velocity": 0, "duration": 120}, {"note": 77, "velocity": 122, "duration": 188}, {"note": 77, "velocity": 127, "duration": 178}, {"note": 0, "velocity": 0, "duration": 302}, {"note": 72, "velocity": 117, "duration": 165}, {"note": 0, "velocity": 0, "duration": 75}, {"note": 70, "velocity": 127, "duration": 214}, {"note": 67, "velocity": 102, "duration": 216}, {"note": 72, "velocity": 122, "duration": 210}, {"note": 70, "velocity": 127, "duration": 830}, {"note": 0, "velocity": 0, "duration": 130}, {"note": 65, "velocity": 102, "duration": 202}, {"note": 67, "velocity": 99, "duration": 165}, {"note": 0, "velocity": 0, "duration": 75}, {"note": 70, "velocity": 127, "duration": 170}, {"note": 0, "velocity": 0, "duration": 70}, {"note": 72, "velocity": 102, "duration": 196}, {"note": 74, "velocity": 127, "duration": 117}, {"note": 0, "velocity": 0, "duration": 123}, {"note": 77, "velocity": 117, "duration": 156}, {"note": 0, "velocity": 0, "duration": 84}, {"note": 79, "velocity": 122, "duration": 113}, {"note": 0, "velocity": 0, "duration": 127}, {"note": 77, "velocity": 127, "duration": 100}, {"note": 0, "velocity": 0, "duration": 140}, {"note": 70, "velocity": 122, "duration": 113}, {"note": 0, "velocity": 0, "duration": 127}, {"note": 69, "velocity": 102, "duration": 109}, {"note": 0, "velocity": 0, "duration": 131}, {"note": 70, "velocity": 127, "duration": 75}, {"note": 0, "velocity": 0, "duration": 165}, {"note": 72, "velocity": 127, "duration": 107}, {"note": 74, "velocity": 112, "duration": 59}, {"note": 0, "velocity": 0, "duration": 61}, {"note": 74, "velocity": 127, "duration": 148}, {"note": 0, "velocity": 0, "duration": 812}, {"note": 79, "velocity": 127, "duration": 186}, {"note": 77, "velocity": 127, "duration": 104}, {"note": 0, "velocity": 0, "duration": 136}, {"note": 77, "velocity": 127, "duration": 82}, {"note": 0, "velocity": 0, "duration": 158}, {"note": 77, "velocity": 122, "duration": 91}, {"note": 79, "velocity": 112, "duration": 77}, {"note": 77, "velocity": 127, "duration": 144}, {"note": 0, "velocity": 0, "duration": 96}, {"note": 74, "velocity": 112, "duration": 108}, {"note": 77, "velocity": 112, "duration": 65}, {"note": 77, "velocity": 127, "duration": 110}, {"note": 0, "velocity": 0, "duration": 250}, {"note": 70, "velocity": 122, "duration": 64}, {"note": 72, "velocity": 107, "duration": 87}, {"note": 0, "velocity": 0, "duration": 153}, {"note": 70, "velocity": 122, "duration": 92}, {"note": 0, "velocity": 0, "duration": 148}, {"note": 72, "velocity": 102, "duration": 117}, {"note": 0, "velocity": 0, "duration": 123}, {"note": 74, "velocity": 117, "duration": 186}, {"note": 72, "velocity": 127, "duration": 184}, {"note": 0, "velocity": 0, "duration": 776}, {"note": 65, "velocity": 102, "duration": 155}, {"note": 0, "velocity": 0, "duration": 85}, {"note": 67, "velocity": 96, "duration": 151}, {"note": 0, "velocity": 0, "duration": 89}, {"note": 70, "velocity": 127, "duration": 109}, {"note": 0, "velocity": 0, "duration": 131}, {"note": 72, "velocity": 127, "duration": 158}, {"note": 0, "velocity": 0, "duration": 82}, {"note": 74, "velocity": 127, "duration": 128}, {"note": 0, "velocity": 0, "duration": 112}, {"note": 77, "velocity": 127, "duration": 153}, {"note": 0, "velocity": 0, "duration": 87}, {"note": 79, "velocity": 127, "duration": 175}, {"note": 0, "velocity": 0, "duration": 65}, {"note": 77, "velocity": 127, "duration": 139}, {"note": 0, "velocity": 0, "duration": 101}, {"note": 70, "velocity": 117, "duration": 141}, {"note": 0, "velocity": 0, "duration": 99}, {"note": 69, "velocity": 107, "duration": 157}, {"note": 0, "velocity": 0, "duration": 83}, {"note": 70, "velocity": 117, "duration": 137}, {"note": 0, "velocity": 0, "duration": 103}, {"note": 74, "velocity": 122, "duration": 110}, {"note": 0, "velocity": 0, "duration": 130}, {"note": 74, "velocity": 127, "duration": 261}, {"note": 0, "velocity": 0, "duration": 699}, {"note": 79, "velocity": 127, "duration": 68}, {"note": 0, "velocity": 0, "duration": 172}, {"note": 77, "velocity": 100, "duration": 86}, {"note": 0, "velocity": 0, "duration": 154}, {"note": 79, "velocity": 127, "duration": 102}, {"note": 0, "velocity": 0, "duration": 378}, {"note": 77, "velocity": 122, "duration": 120}, {"note": 0, "velocity": 0, "duration": 120}, {"note": 77, "velocity": 122, "duration": 188}, {"note": 77, "velocity": 127, "duration": 178}, {"note": 0, "velocity": 0, "duration": 302}, {"note": 72, "velocity": 117, "duration": 165}, {"note": 0, "velocity": 0, "duration": 75}, {"note": 70, "velocity": 127, "duration": 214}, {"note": 67, "velocity": 102, "duration": 216}, {"note": 72, "velocity": 122, "duration": 210}, {"note": 70, "velocity": 127, "duration": 830}, {"note": 0, "velocity": 0, "duration": 130}, {"note": 79, "velocity": 127, "duration": 68}, {"note": 0, "velocity": 0, "duration": 172}, {"note": 77, "velocity": 100, "duration": 86}, {"note": 0, "velocity": 0, "duration": 154}, {"note": 79, "velocity": 127, "duration": 102}, {"note": 0, "velocity": 0, "duration": 378}, {"note": 77, "velocity": 122, "duration": 120}, {"note": 0, "velocity": 0, "duration": 120}, {"note": 77, "velocity": 122, "duration": 188}, {"note": 77, "velocity": 127, "duration": 178}, {"note": 0, "velocity": 0, "duration": 302}, {"note": 72, "velocity": 117, "duration": 165}, {"note": 0, "velocity": 0, "duration": 75}, {"note": 70, "velocity": 127, "duration": 214}, {"note": 67, "velocity": 102, "duration": 216}, {"note": 72, "velocity": 122, "duration": 210}, {"note": 70, "velocity": 127, "duration": 830}]]