[[{"note": 62, "velocity": 99, "duration": 239}, {"note": 62, "velocity": 100, "duration": 240}, {"note": 59, "velocity": 92, "duration": 240}, {"note": 66, "velocity": 127, "duration": 137}, {"note": 64, "velocity": 79, "duration": 133}, {"note": 62, "velocity": 93, "duration": 960}, {"note": 57, "velocity": 100, "duration": 240}, {"note": 59, "velocity": 102, "duration": 240}, {"note": 69, "velocity": 117, "duration": 240}, {"note": 67, "velocity": 95, "duration": 269}, {"note": 66, "velocity": 107, "duration": 960}, {"note": 71, "velocity": 99, "duration": 240}, {"note": 69, "velocity": 97, "duration": 240}, {"note": 62, "velocity": 99, "duration": 240}, {"note": 64, "velocity": 97, "duration": 240}, {"note": 66, "velocity": 127, "duration": 240}, {"note": 69, "velocity": 95, "duration": 120}, {"note": 64, "velocity": 96, "duration": 600}, {"note": 66, "velocity": 112, "duration": 240}, {"note": 64, "velocity": 95, "duration": 240}, {"note": 62, "velocity": 96, "duration": 240}, {"note": 64, "velocity": 97, "duration": 240}, {"note": 66, "velocity": 117, "duration": 960}, {"note": 62, "velocity": 96, "duration": 240}, {"note": 61, "velocity": 102, "duration": 240}, {"note": 59, "velocity": 96, "duration": 240}, {"note": 66, "velocity": 127, "duration": 125}, {"note": 64, "velocity": 86, "duration": 120}, {"note": 62, "velocity": 100, "duration": 960}, {"note": 57, "velocity": 102, "duration": 240}, {"note": 59, "velocity": 97, "duration": 240}, {"note": 69, "velocity": 107, "duration": 240}, {"note": 67, "velocity": 107, "duration": 240}, {"note": 66, "velocity": 97, "duration": 840}, {"note": 59, "velocity": 100, "duration": 120}, {"note": 71, "velocity": 95, "duration": 240}, {"note": 69, "velocity": 100, "duration": 240}, {"note": 62, "velocity": 96, "duration": 240}, {"note": 64, "velocity": 107, "duration": 240}, {"note": 66, "velocity": 117, "duration": 240}, {"note": 69, "velocity": 112, "duration": 239}, {"note": 69, "velocity": 117, "duration": 119}, {"note": 69, "velocity": 100, "duration": 240}, {"note": 71, "velocity": 100, "duration": 120}, {"note": 66, "velocity": 117, "duration": 1439}, {"note": 66, "velocity": 122, "duration": 240}, {"note": 69, "velocity": 100, "duration": 272}, {"note": 71, "velocity": 107, "duration": 240}, {"note": 69, "velocity": 99, "duration": 240}, {"note": 71, "velocity": 107, "duration": 240}, {"note": 74, "velocity": 107, "duration": 240}, {"note": 73, "velocity": 107, "duration": 720}, {"note": 69, "velocity": 96, "duration": 120}, {"note": 66, "velocity": 95, "duration": 120}, {"note": 69, "velocity": 100, "duration": 240}, {"note": 66, "velocity": 102, "duration": 240}, {"note": 69, "velocity": 100, "duration": 240}, {"note": 73, "velocity": 117, "duration": 256}, {"note": 71, "velocity": 100, "duration": 744}, {"note": 71, "velocity": 112, "duration": 24}, {"note": 0, "velocity": 0, "duration": 216}, {"note": 74, "velocity": 127, "duration": 240}, {"note": 71, "velocity": 95, "duration": 240}, {"note": 74, "velocity": 102, "duration": 240}, {"note": 71, "velocity": 95, "duration": 119}, {"note": 71, "velocity": 82, "duration": 120}, {"note": 73, "velocity": 127, "duration": 258}, {"note": 69, "velocity": 99, "duration": 240}, {"note": 71, "velocity": 99, "duration": 240}, {"note": 73, "velocity": 112, "duration": 240}, {"note": 71, "velocity": 99, "duration": 1920}, {"note": 62, "velocity": 99, "duration": 239}, {"note": 62, "velocity": 100, "duration": 240}, {"note": 59, "velocity": 92, "duration": 240}, {"note": 66, "velocity": 127, "duration": 137}, {"note": 64, "velocity": 79, "duration": 133}, {"note": 62, "velocity": 93, "duration": 840}, {"note": 57, "velocity": 117, "duration": 119}, {"note": 57, "velocity": 100, "duration": 240}, {"note": 59, "velocity": 102, "duration": 240}, {"note": 66, "velocity": 117, "duration": 240}, {"note": 69, "velocity": 95, "duration": 269}, {"note": 66, "velocity": 107, "duration": 840}, {"note": 59, "velocity": 112, "duration": 120}, {"note": 71, "velocity": 99, "duration": 240}, {"note": 69, "velocity": 97, "duration": 240}, {"note": 62, "velocity": 99, "duration": 240}, {"note": 64, "velocity": 97, "duration": 240}, {"note": 66, "velocity": 127, "duration": 240}, {"note": 69, "velocity": 95, "duration": 240}, {"note": 64, "velocity": 96, "duration": 308}, {"note": 57, "velocity": 95, "duration": 119}, {"note": 57, "velocity": 92, "duration": 120}, {"note": 66, "velocity": 112, "duration": 240}, {"note": 64, "velocity": 95, "duration": 240}, {"note": 62, "velocity": 96, "duration": 360}, {"note": 64, "velocity": 97, "duration": 120}, {"note": 66, "velocity": 117, "duration": 960}, {"note": 59, "velocity": 96, "duration": 239}, {"note": 59, "velocity": 102, "duration": 239}, {"note": 59, "velocity": 96, "duration": 240}, {"note": 66, "velocity": 127, "duration": 125}, {"note": 64, "velocity": 86, "duration": 120}, {"note": 62, "velocity": 100, "duration": 960}, {"note": 57, "velocity": 102, "duration": 240}, {"note": 59, "velocity": 97, "duration": 240}, {"note": 66, "velocity": 107, "duration": 240}, {"note": 69, "velocity": 107, "duration": 240}, {"note": 66, "velocity": 97, "duration": 840}, {"note": 59, "velocity": 100, "duration": 120}, {"note": 71, "velocity": 95, "duration": 240}, {"note": 69, "velocity": 100, "duration": 240}, {"note": 62, "velocity": 96, "duration": 239}, {"note": 62, "velocity": 89, "duration": 120}, {"note": 64, "velocity": 97, "duration": 120}, {"note": 66, "velocity": 117, "duration": 240}, {"note": 69, "velocity": 112, "duration": 239}, {"note": 69, "velocity": 117, "duration": 239}, {"note": 69, "velocity": 100, "duration": 120}, {"note": 71, "velocity": 100, "duration": 120}, {"note": 66, "velocity": 117, "duration": 1439}, {"note": 66, "velocity": 122, "duration": 240}, {"note": 69, "velocity": 100, "duration": 272}, {"note": 71, "velocity": 107, "duration": 240}, {"note": 69, "velocity": 99, "duration": 240}, {"note": 71, "velocity": 107, "duration": 240}, {"note": 74, "velocity": 107, "duration": 240}, {"note": 73, "velocity": 107, "duration": 720}, {"note": 69, "velocity": 96, "duration": 120}, {"note": 66, "velocity": 95, "duration": 120}, {"note": 69, "velocity": 100, "duration": 240}, {"note": 66, "velocity": 102, "duration": 240}, {"note": 69, "velocity": 100, "duration": 240}, {"note": 73, "velocity": 117, "duration": 256}, {"note": 71, "velocity": 100, "duration": 719}, {"note": 71, "velocity": 112, "duration": 240}, {"note": 74, "velocity": 127, "duration": 240}, {"note": 71, "velocity": 95, "duration": 240}, {"note": 74, "velocity": 102, "duration": 240}, {"note": 71, "velocity": 95, "duration": 119}, {"note": 71, "velocity": 82, "duration": 120}, {"note": 73, "velocity": 127, "duration": 258}, {"note": 69, "velocity": 99, "duration": 240}, {"note": 71, "velocity": 99, "duration": 240}, {"note": 73, "velocity": 112, "duration": 240}, {"note": 71, "velocity": 99, "duration": 1440}, {"note": 74, "velocity": 127, "duration": 240}, {"note": 73, "velocity": 122, "duration": 240}, {"note": 71, "velocity": 112, "duration": 480}, {"note": 74, "velocity": 122, "duration": 480}, {"note": 76, "velocity": 127, "duration": 720}, {"note": 69, "velocity": 102, "duration": 240}, {"note": 78, "velocity": 127, "duration": 240}, {"note": 69, "velocity": 102, "duration": 240}, {"note": 76, "velocity": 107, "duration": 240}, {"note": 69, "velocity": 96, "duration": 240}, {"note": 74, "velocity": 117, "duration": 720}, {"note": 71, "velocity": 112, "duration": 240}, {"note": 74, "velocity": 122, "duration": 240}, {"note": 71, "velocity": 102, "duration": 240}, {"note": 74, "velocity": 127, "duration": 240}, {"note": 71, "velocity": 107, "duration": 240}, {"note": 76, "velocity": 127, "duration": 265}, {"note": 69, "velocity": 100, "duration": 240}, {"note": 76, "velocity": 117, "duration": 240}, {"note": 69, "velocity": 117, "duration": 240}, {"note": 78, "velocity": 127, "duration": 240}, {"note": 76, "velocity": 122, "duration": 240}, {"note": 74, "velocity": 100, "duration": 240}, {"note": 78, "velocity": 127, "duration": 239}, {"note": 78, "velocity": 127, "duration": 480}, {"note": 74, "velocity": 127, "duration": 240}, {"note": 73, "velocity": 112, "duration": 240}, {"note": 71, "velocity": 112, "duration": 480}, {"note": 74, "velocity": 102, "duration": 480}, {"note": 76, "velocity": 127, "duration": 720}, {"note": 69, "velocity": 99, "duration": 240}, {"note": 81, "velocity": 117, "duration": 240}, {"note": 79, "velocity": 122, "duration": 240}, {"note": 78, "velocity": 127, "duration": 240}, {"note": 69, "velocity": 96, "duration": 240}, {"note": 71, "velocity": 127, "duration": 719}, {"note": 71, "velocity": 112, "duration": 240}, {"note": 74, "velocity": 122, "duration": 240}, {"note": 71, "velocity": 112, "duration": 240}, {"note": 74, "velocity": 127, "duration": 240}, {"note": 71, "velocity": 117, "duration": 240}, {"note": 76, "velocity": 117, "duration": 240}, {"note": 69, "velocity": 90, "duration": 240}, {"note": 76, "velocity": 117, "duration": 480}, {"note": 69, "velocity": 107, "duration": 240}, {"note": 66, "velocity": 117, "duration": 240}, {"note": 69, "velocity": 127, "duration": 240}, {"note": 71, "velocity": 102, "duration": 239}, {"note": 71, "velocity": 127, "duration": 1313}, {"note": 0, "velocity": 0, "duration": 7327}, {"note": 62, "velocity": 99, "duration": 239}, {"note": 62, "velocity": 100, "duration": 240}, {"note": 59, "velocity": 92, "duration": 240}, {"note": 66, "velocity": 127, "duration": 137}, {"note": 64, "velocity": 79, "duration": 133}, {"note": 62, "velocity": 93, "duration": 840}, {"note": 57, "velocity": 117, "duration": 119}, {"note": 57, "velocity": 100, "duration": 240}, {"note": 59, "velocity": 102, "duration": 240}, {"note": 66, "velocity": 117, "duration": 240}, {"note": 69, "velocity": 95, "duration": 269}, {"note": 66, "velocity": 107, "duration": 840}, {"note": 59, "velocity": 112, "duration": 120}, {"note": 71, "velocity": 99, "duration": 240}, {"note": 69, "velocity": 97, "duration": 240}, {"note": 62, "velocity": 99, "duration": 240}, {"note": 64, "velocity": 97, "duration": 240}, {"note": 66, "velocity": 127, "duration": 240}, {"note": 69, "velocity": 95, "duration": 240}, {"note": 64, "velocity": 96, "duration": 308}, {"note": 57, "velocity": 95, "duration": 119}, {"note": 57, "velocity": 92, "duration": 120}, {"note": 66, "velocity": 112, "duration": 240}, {"note": 64, "velocity": 95, "duration": 240}, {"note": 62, "velocity": 96, "duration": 360}, {"note": 64, "velocity": 97, "duration": 120}, {"note": 66, "velocity": 117, "duration": 960}, {"note": 59, "velocity": 96, "duration": 239}, {"note": 59, "velocity": 102, "duration": 239}, {"note": 59, "velocity": 96, "duration": 240}, {"note": 66, "velocity": 127, "duration": 125}, {"note": 64, "velocity": 86, "duration": 120}, {"note": 62, "velocity": 100, "duration": 960}, {"note": 57, "velocity": 102, "duration": 240}, {"note": 59, "velocity": 97, "duration": 240}, {"note": 66, "velocity": 107, "duration": 240}, {"note": 69, "velocity": 107, "duration": 240}, {"note": 66, "velocity": 97, "duration": 840}, {"note": 59, "velocity": 100, "duration": 120}, {"note": 71, "velocity": 95, "duration": 240}, {"note": 69, "velocity": 100, "duration": 240}, {"note": 62, "velocity": 96, "duration": 239}, {"note": 62, "velocity": 89, "duration": 120}, {"note": 64, "velocity": 97, "duration": 120}, {"note": 66, "velocity": 117, "duration": 240}, {"note": 69, "velocity": 112, "duration": 239}, {"note": 69, "velocity": 117, "duration": 239}, {"note": 69, "velocity": 100, "duration": 120}, {"note": 71, "velocity": 100, "duration": 120}, {"note": 66, "velocity": 117, "duration": 1439}, {"note": 66, "velocity": 122, "duration": 240}, {"note": 69, "velocity": 100, "duration": 272}, {"note": 71, "velocity": 107, "duration": 240}, {"note": 69, "velocity": 99, "duration": 240}, {"note": 71, "velocity": 107, "duration": 240}, {"note": 74, "velocity": 107, "duration": 240}, {"note": 73, "velocity": 107, "duration": 720}, {"note": 69, "velocity": 96, "duration": 120}, {"note": 66, "velocity": 95, "duration": 120}, {"note": 69, "velocity": 100, "duration": 240}, {"note": 66, "velocity": 102, "duration": 240}, {"note": 69, "velocity": 100, "duration": 240}, {"note": 73, "velocity": 117, "duration": 256}, {"note": 71, "velocity": 100, "duration": 719}, {"note": 71, "velocity": 112, "duration": 240}, {"note": 74, "velocity": 127, "duration": 240}, {"note": 71, "velocity": 95, "duration": 240}, {"note": 74, "velocity": 102, "duration": 240}, {"note": 71, "velocity": 95, "duration": 119}, {"note": 71, "velocity": 82, "duration": 120}, {"note": 73, "velocity": 127, "duration": 258}, {"note": 69, "velocity": 99, "duration": 240}, {"note": 71, "velocity": 99, "duration": 240}, {"note": 73, "velocity": 112, "duration": 240}, {"note": 71, "velocity": 99, "duration": 1440}, {"note": 74, "velocity": 127, "duration": 240}, {"note": 73, "velocity": 122, "duration": 240}, {"note": 71, "velocity": 112, "duration": 480}, {"note": 74, "velocity": 122, "duration": 480}, {"note": 76, "velocity": 127, "duration": 720}, {"note": 69, "velocity": 102, "duration": 240}, {"note": 78, "velocity": 127, "duration": 240}, {"note": 69, "velocity": 102, "duration": 240}, {"note": 76, "velocity": 107, "duration": 240}, {"note": 69, "velocity": 96, "duration": 240}, {"note": 74, "velocity": 117, "duration": 720}, {"note": 71, "velocity": 112, "duration": 240}, {"note": 74, "velocity": 122, "duration": 240}, {"note": 71, "velocity": 102, "duration": 240}, {"note": 74, "velocity": 127, "duration": 240}, {"note": 71, "velocity": 107, "duration": 240}, {"note": 76, "velocity": 127, "duration": 265}, {"note": 69, "velocity": 100, "duration": 240}, {"note": 76, "velocity": 117, "duration": 240}, {"note": 69, "velocity": 117, "duration": 240}, {"note": 78, "velocity": 127, "duration": 240}, {"note": 76, "velocity": 122, "duration": 240}, {"note": 74, "velocity": 100, "duration": 240}, {"note": 78, "velocity": 127, "duration": 239}, {"note": 78, "velocity": 127, "duration": 480}, {"note": 74, "velocity": 127, "duration": 240}, {"note": 73, "velocity": 112, "duration": 240}, {"note": 71, "velocity": 112, "duration": 480}, {"note": 74, "velocity": 102, "duration": 480}, {"note": 76, "velocity": 127, "duration": 720}, {"note": 69, "velocity": 99, "duration": 240}, {"note": 81, "velocity": 117, "duration": 240}, {"note": 79, "velocity": 122, "duration": 240}, {"note": 78, "velocity": 127, "duration": 240}, {"note": 69, "velocity": 96, "duration": 240}, {"note": 71, "velocity": 127, "duration": 719}, {"note": 71, "velocity": 112, "duration": 240}, {"note": 74, "velocity": 122, "duration": 240}, {"note": 71, "velocity": 112, "duration": 240}, {"note": 74, "velocity": 127, "duration": 240}, {"note": 71, "velocity": 117, "duration": 240}, {"note": 76, "velocity": 117, "duration": 240}, {"note": 69, "velocity": 90, "duration": 240}, {"note": 76, "velocity": 117, "duration": 480}, {"note": 69, "velocity": 107, "duration": 240}, {"note": 66, "velocity": 117, "duration": 240}, {"note": 69, "velocity": 127, "duration": 240}, {"note": 71, "velocity": 102, "duration": 239}, {"note": 71, "velocity": 127, "duration": 719}, {"note": 71, "velocity": 107, "duration": 240}, {"note": 74, "velocity": 127, "duration": 240}, {"note": 71, "velocity": 107, "duration": 240}, {"note": 74, "velocity": 127, "duration": 240}, {"note": 71, "velocity": 112, "duration": 240}, {"note": 76, "velocity": 127, "duration": 240}, {"note": 69, "velocity": 90, "duration": 240}, {"note": 76, "velocity": 127, "duration": 480}, {"note": 69, "velocity": 122, "duration": 240}, {"note": 66, "velocity": 117, "duration": 240}, {"note": 69, "velocity": 102, "duration": 240}, {"note": 73, "velocity": 127, "duration": 240}, {"note": 71, "velocity": 127, "duration": 1152}, {"note": 0, "velocity": 0, "duration": 14688}, {"note": 74, "velocity": 127, "duration": 240}, {"note": 73, "velocity": 122, "duration": 240}, {"note": 71, "velocity": 112, "duration": 480}, {"note": 74, "velocity": 122, "duration": 480}, {"note": 76, "velocity": 127, "duration": 720}, {"note": 69, "velocity": 102, "duration": 240}, {"note": 78, "velocity": 127, "duration": 240}, {"note": 69, "velocity": 102, "duration": 240}, {"note": 76, "velocity": 107, "duration": 240}, {"note": 69, "velocity": 96, "duration": 240}, {"note": 74, "velocity": 117, "duration": 720}, {"note": 71, "velocity": 112, "duration": 240}, {"note": 74, "velocity": 122, "duration": 240}, {"note": 71, "velocity": 102, "duration": 240}, {"note": 74, "velocity": 127, "duration": 240}, {"note": 71, "velocity": 107, "duration": 240}, {"note": 76, "velocity": 127, "duration": 265}, {"note": 69, "velocity": 100, "duration": 240}, {"note": 76, "velocity": 117, "duration": 240}, {"note": 69, "velocity": 117, "duration": 240}, {"note": 78, "velocity": 127, "duration": 240}, {"note": 76, "velocity": 122, "duration": 240}, {"note": 74, "velocity": 100, "duration": 240}, {"note": 78, "velocity": 127, "duration": 239}, {"note": 78, "velocity": 127, "duration": 480}, {"note": 74, "velocity": 127, "duration": 240}, {"note": 73, "velocity": 112, "duration": 240}, {"note": 71, "velocity": 112, "duration": 480}, {"note": 74, "velocity": 102, "duration": 480}, {"note": 76, "velocity": 127, "duration": 720}, {"note": 69, "velocity": 99, "duration": 240}, {"note": 81, "velocity": 117, "duration": 240}, {"note": 79, "velocity": 122, "duration": 240}, {"note": 78, "velocity": 127, "duration": 240}, {"note": 69, "velocity": 96, "duration": 240}, {"note": 71, "velocity": 127, "duration": 719}, {"note": 71, "velocity": 112, "duration": 240}, {"note": 74, "velocity": 122, "duration": 240}, {"note": 71, "velocity": 112, "duration": 240}, {"note": 74, "velocity": 127, "duration": 240}, {"note": 71, "velocity": 117, "duration": 240}, {"note": 76, "velocity": 117, "duration": 240}, {"note": 69, "velocity": 90, "duration": 240}, {"note": 76, "velocity": 117, "duration": 480}, {"note": 69, "velocity": 107, "duration": 240}, {"note": 66, "velocity": 117, "duration": 240}, {"note": 69, "velocity": 127, "duration": 240}, {"note": 71, "velocity": 102, "duration": 239}, {"note": 71, "velocity": 127, "duration": 719}, {"note": 71, "velocity": 107, "duration": 240}, {"note": 74, "velocity": 127, "duration": 240}, {"note": 71, "velocity": 107, "duration": 240}, {"note": 74, "velocity": 127, "duration": 240}, {"note": 71, "velocity": 112, "duration": 240}, {"note": 76, "velocity": 127, "duration": 240}, {"note": 69, "velocity": 90, "duration": 240}, {"note": 76, "velocity": 127, "duration": 480}, {"note": 69, "velocity": 122, "duration": 240}, {"note": 66, "velocity": 117, "duration": 240}, {"note": 69, "velocity": 102, "duration": 240}, {"note": 73, "velocity": 127, "duration": 240}, {"note": 71, "velocity": 127, "duration": 1152}]]