[[{"note": 78, "velocity": 97, "duration": 347}, {"note": 0, "velocity": 0, "duration": 133}, {"note": 74, "velocity": 96, "duration": 240}, {"note": 69, "velocity": 73, "duration": 82}, {"note": 74, "velocity": 99, "duration": 396}, {"note": 74, "velocity": 97, "duration": 36}, {"note": 0, "velocity": 0, "duration": 204}, {"note": 78, "velocity": 122, "duration": 306}, {"note": 0, "velocity": 0, "duration": 174}, {"note": 73, "velocity": 117, "duration": 340}, {"note": 0, "velocity": 0, "duration": 140}, {"note": 70, "velocity": 112, "duration": 248}, {"note": 0, "velocity": 0, "duration": 112}, {"note": 70, "velocity": 102, "duration": 179}, {"note": 0, "velocity": 0, "duration": 181}, {"note": 71, "velocity": 97, "duration": 195}, {"note": 73, "velocity": 127, "duration": 212}, {"note": 73, "velocity": 117, "duration": 102}, {"note": 74, "velocity": 99, "duration": 817}, {"note": 73, "velocity": 107, "duration": 96}, {"note": 74, "velocity": 93, "duration": 100}, {"note": 0, "velocity": 0, "duration": 260}, {"note": 73, "velocity": 112, "duration": 84}, {"note": 0, "velocity": 0, "duration": 156}, {"note": 74, "velocity": 107, "duration": 84}, {"note": 0, "velocity": 0, "duration": 156}, {"note": 78, "velocity": 127, "duration": 71}, {"note": 0, "velocity": 0, "duration": 169}, {"note": 67, "velocity": 100, "duration": 692}, {"note": 76, "velocity": 90, "duration": 372}, {"note": 0, "velocity": 0, "duration": 108}, {"note": 73, "velocity": 97, "duration": 177}, {"note": 0, "velocity": 0, "duration": 63}, {"note": 73, "velocity": 100, "duration": 356}, {"note": 0, "velocity": 0, "duration": 124}, {"note": 78, "velocity": 117, "duration": 508}, {"note": 74, "velocity": 100, "duration": 204}, {"note": 69, "velocity": 72, "duration": 109}, {"note": 74, "velocity": 97, "duration": 251}, {"note": 0, "velocity": 0, "duration": 109}, {"note": 74, "velocity": 92, "duration": 188}, {"note": 78, "velocity": 127, "duration": 235}, {"note": 0, "velocity": 0, "duration": 245}, {"note": 73, "velocity": 117, "duration": 317}, {"note": 0, "velocity": 0, "duration": 163}, {"note": 70, "velocity": 117, "duration": 73}, {"note": 0, "velocity": 0, "duration": 167}, {"note": 70, "velocity": 100, "duration": 60}, {"note": 70, "velocity": 117, "duration": 316}, {"note": 71, "velocity": 99, "duration": 198}, {"note": 73, "velocity": 112, "duration": 121}, {"note": 0, "velocity": 0, "duration": 119}, {"note": 73, "velocity": 112, "duration": 89}, {"note": 74, "velocity": 107, "duration": 772}, {"note": 0, "velocity": 0, "duration": 68}, {"note": 73, "velocity": 117, "duration": 92}, {"note": 74, "velocity": 93, "duration": 193}, {"note": 0, "velocity": 0, "duration": 167}, {"note": 73, "velocity": 127, "duration": 146}, {"note": 0, "velocity": 0, "duration": 94}, {"note": 74, "velocity": 100, "duration": 140}, {"note": 0, "velocity": 0, "duration": 100}, {"note": 79, "velocity": 102, "duration": 190}, {"note": 67, "velocity": 102, "duration": 525}, {"note": 0, "velocity": 0, "duration": 195}, {"note": 76, "velocity": 117, "duration": 355}, {"note": 0, "velocity": 0, "duration": 125}, {"note": 74, "velocity": 107, "duration": 114}, {"note": 0, "velocity": 0, "duration": 126}, {"note": 74, "velocity": 122, "duration": 459}, {"note": 74, "velocity": 117, "duration": 322}, {"note": 0, "velocity": 0, "duration": 158}, {"note": 81, "velocity": 127, "duration": 114}, {"note": 78, "velocity": 97, "duration": 154}, {"note": 0, "velocity": 0, "duration": 86}, {"note": 81, "velocity": 107, "duration": 279}, {"note": 0, "velocity": 0, "duration": 81}, {"note": 81, "velocity": 107, "duration": 187}, {"note": 78, "velocity": 102, "duration": 175}, {"note": 0, "velocity": 0, "duration": 65}, {"note": 81, "velocity": 107, "duration": 163}, {"note": 0, "velocity": 0, "duration": 77}, {"note": 73, "velocity": 112, "duration": 508}, {"note": 81, "velocity": 107, "duration": 181}, {"note": 78, "velocity": 107, "duration": 139}, {"note": 81, "velocity": 102, "duration": 274}, {"note": 0, "velocity": 0, "duration": 86}, {"note": 81, "velocity": 117, "duration": 191}, {"note": 78, "velocity": 127, "duration": 201}, {"note": 81, "velocity": 100, "duration": 191}, {"note": 71, "velocity": 107, "duration": 443}, {"note": 78, "velocity": 127, "duration": 115}, {"note": 76, "velocity": 89, "duration": 136}, {"note": 0, "velocity": 0, "duration": 104}, {"note": 78, "velocity": 112, "duration": 206}, {"note": 0, "velocity": 0, "duration": 154}, {"note": 78, "velocity": 122, "duration": 165}, {"note": 0, "velocity": 0, "duration": 75}, {"note": 76, "velocity": 117, "duration": 185}, {"note": 74, "velocity": 117, "duration": 223}, {"note": 67, "velocity": 99, "duration": 417}, {"note": 0, "velocity": 0, "duration": 63}, {"note": 76, "velocity": 127, "duration": 220}, {"note": 74, "velocity": 90, "duration": 249}, {"note": 76, "velocity": 97, "duration": 231}, {"note": 74, "velocity": 100, "duration": 191}, {"note": 76, "velocity": 99, "duration": 207}, {"note": 74, "velocity": 107, "duration": 162}, {"note": 0, "velocity": 0, "duration": 78}, {"note": 74, "velocity": 127, "duration": 375}, {"note": 0, "velocity": 0, "duration": 105}, {"note": 81, "velocity": 107, "duration": 115}, {"note": 78, "velocity": 99, "duration": 141}, {"note": 0, "velocity": 0, "duration": 99}, {"note": 81, "velocity": 100, "duration": 267}, {"note": 0, "velocity": 0, "duration": 93}, {"note": 81, "velocity": 122, "duration": 155}, {"note": 0, "velocity": 0, "duration": 85}, {"note": 78, "velocity": 117, "duration": 171}, {"note": 0, "velocity": 0, "duration": 69}, {"note": 81, "velocity": 99, "duration": 212}, {"note": 73, "velocity": 122, "duration": 418}, {"note": 0, "velocity": 0, "duration": 62}, {"note": 81, "velocity": 107, "duration": 109}, {"note": 78, "velocity": 97, "duration": 156}, {"note": 0, "velocity": 0, "duration": 84}, {"note": 81, "velocity": 99, "duration": 229}, {"note": 0, "velocity": 0, "duration": 131}, {"note": 81, "velocity": 112, "duration": 143}, {"note": 0, "velocity": 0, "duration": 97}, {"note": 78, "velocity": 112, "duration": 180}, {"note": 81, "velocity": 107, "duration": 167}, {"note": 0, "velocity": 0, "duration": 73}, {"note": 71, "velocity": 117, "duration": 350}, {"note": 0, "velocity": 0, "duration": 130}, {"note": 78, "velocity": 122, "duration": 131}, {"note": 76, "velocity": 88, "duration": 146}, {"note": 0, "velocity": 0, "duration": 94}, {"note": 78, "velocity": 117, "duration": 216}, {"note": 0, "velocity": 0, "duration": 144}, {"note": 78, "velocity": 127, "duration": 211}, {"note": 76, "velocity": 99, "duration": 168}, {"note": 0, "velocity": 0, "duration": 72}, {"note": 74, "velocity": 117, "duration": 206}, {"note": 67, "velocity": 102, "duration": 293}, {"note": 0, "velocity": 0, "duration": 187}, {"note": 76, "velocity": 112, "duration": 162}, {"note": 0, "velocity": 0, "duration": 78}, {"note": 74, "velocity": 107, "duration": 217}, {"note": 76, "velocity": 97, "duration": 191}, {"note": 74, "velocity": 112, "duration": 171}, {"note": 0, "velocity": 0, "duration": 69}, {"note": 76, "velocity": 107, "duration": 173}, {"note": 0, "velocity": 0, "duration": 67}, {"note": 74, "velocity": 117, "duration": 1392}, {"note": 0, "velocity": 0, "duration": 6528}, {"note": 78, "velocity": 97, "duration": 347}, {"note": 0, "velocity": 0, "duration": 133}, {"note": 74, "velocity": 96, "duration": 240}, {"note": 69, "velocity": 73, "duration": 82}, {"note": 74, "velocity": 99, "duration": 396}, {"note": 74, "velocity": 97, "duration": 36}, {"note": 0, "velocity": 0, "duration": 204}, {"note": 78, "velocity": 122, "duration": 306}, {"note": 0, "velocity": 0, "duration": 174}, {"note": 73, "velocity": 117, "duration": 340}, {"note": 0, "velocity": 0, "duration": 140}, {"note": 70, "velocity": 112, "duration": 248}, {"note": 0, "velocity": 0, "duration": 112}, {"note": 70, "velocity": 102, "duration": 179}, {"note": 0, "velocity": 0, "duration": 181}, {"note": 71, "velocity": 97, "duration": 195}, {"note": 73, "velocity": 127, "duration": 212}, {"note": 73, "velocity": 117, "duration": 102}, {"note": 74, "velocity": 99, "duration": 817}, {"note": 73, "velocity": 107, "duration": 96}, {"note": 74, "velocity": 93, "duration": 100}, {"note": 0, "velocity": 0, "duration": 260}, {"note": 73, "velocity": 112, "duration": 84}, {"note": 0, "velocity": 0, "duration": 156}, {"note": 74, "velocity": 107, "duration": 84}, {"note": 0, "velocity": 0, "duration": 156}, {"note": 78, "velocity": 127, "duration": 71}, {"note": 0, "velocity": 0, "duration": 169}, {"note": 67, "velocity": 100, "duration": 692}, {"note": 76, "velocity": 90, "duration": 372}, {"note": 0, "velocity": 0, "duration": 108}, {"note": 73, "velocity": 97, "duration": 177}, {"note": 0, "velocity": 0, "duration": 63}, {"note": 73, "velocity": 100, "duration": 356}, {"note": 0, "velocity": 0, "duration": 124}, {"note": 78, "velocity": 117, "duration": 508}, {"note": 74, "velocity": 100, "duration": 204}, {"note": 69, "velocity": 72, "duration": 109}, {"note": 74, "velocity": 97, "duration": 251}, {"note": 0, "velocity": 0, "duration": 109}, {"note": 74, "velocity": 92, "duration": 188}, {"note": 78, "velocity": 127, "duration": 235}, {"note": 0, "velocity": 0, "duration": 245}, {"note": 73, "velocity": 117, "duration": 317}, {"note": 0, "velocity": 0, "duration": 163}, {"note": 70, "velocity": 117, "duration": 73}, {"note": 0, "velocity": 0, "duration": 167}, {"note": 70, "velocity": 100, "duration": 60}, {"note": 70, "velocity": 117, "duration": 316}, {"note": 71, "velocity": 99, "duration": 198}, {"note": 73, "velocity": 112, "duration": 121}, {"note": 0, "velocity": 0, "duration": 119}, {"note": 73, "velocity": 112, "duration": 89}, {"note": 74, "velocity": 107, "duration": 772}, {"note": 0, "velocity": 0, "duration": 68}, {"note": 73, "velocity": 117, "duration": 92}, {"note": 74, "velocity": 93, "duration": 193}, {"note": 0, "velocity": 0, "duration": 167}, {"note": 73, "velocity": 127, "duration": 146}, {"note": 0, "velocity": 0, "duration": 94}, {"note": 74, "velocity": 100, "duration": 140}, {"note": 0, "velocity": 0, "duration": 100}, {"note": 79, "velocity": 102, "duration": 190}, {"note": 67, "velocity": 102, "duration": 525}, {"note": 0, "velocity": 0, "duration": 195}, {"note": 76, "velocity": 117, "duration": 355}, {"note": 0, "velocity": 0, "duration": 125}, {"note": 74, "velocity": 107, "duration": 114}, {"note": 0, "velocity": 0, "duration": 126}, {"note": 74, "velocity": 122, "duration": 459}, {"note": 74, "velocity": 117, "duration": 322}, {"note": 0, "velocity": 0, "duration": 158}, {"note": 81, "velocity": 127, "duration": 114}, {"note": 78, "velocity": 97, "duration": 154}, {"note": 0, "velocity": 0, "duration": 86}, {"note": 81, "velocity": 107, "duration": 279}, {"note": 0, "velocity": 0, "duration": 81}, {"note": 81, "velocity": 107, "duration": 187}, {"note": 78, "velocity": 102, "duration": 175}, {"note": 0, "velocity": 0, "duration": 65}, {"note": 81, "velocity": 107, "duration": 163}, {"note": 0, "velocity": 0, "duration": 77}, {"note": 73, "velocity": 112, "duration": 508}, {"note": 81, "velocity": 107, "duration": 181}, {"note": 78, "velocity": 107, "duration": 139}, {"note": 81, "velocity": 102, "duration": 274}, {"note": 0, "velocity": 0, "duration": 86}, {"note": 81, "velocity": 117, "duration": 191}, {"note": 78, "velocity": 127, "duration": 201}, {"note": 81, "velocity": 100, "duration": 191}, {"note": 71, "velocity": 107, "duration": 443}, {"note": 78, "velocity": 127, "duration": 115}, {"note": 76, "velocity": 89, "duration": 136}, {"note": 0, "velocity": 0, "duration": 104}, {"note": 78, "velocity": 112, "duration": 206}, {"note": 0, "velocity": 0, "duration": 154}, {"note": 78, "velocity": 122, "duration": 165}, {"note": 0, "velocity": 0, "duration": 75}, {"note": 76, "velocity": 117, "duration": 185}, {"note": 74, "velocity": 117, "duration": 223}, {"note": 67, "velocity": 99, "duration": 417}, {"note": 0, "velocity": 0, "duration": 63}, {"note": 76, "velocity": 127, "duration": 220}, {"note": 74, "velocity": 90, "duration": 249}, {"note": 76, "velocity": 97, "duration": 231}, {"note": 74, "velocity": 100, "duration": 191}, {"note": 76, "velocity": 99, "duration": 207}, {"note": 74, "velocity": 107, "duration": 162}, {"note": 0, "velocity": 0, "duration": 78}, {"note": 74, "velocity": 127, "duration": 375}, {"note": 0, "velocity": 0, "duration": 105}, {"note": 81, "velocity": 107, "duration": 115}, {"note": 78, "velocity": 99, "duration": 141}, {"note": 0, "velocity": 0, "duration": 99}, {"note": 81, "velocity": 100, "duration": 267}, {"note": 0, "velocity": 0, "duration": 93}, {"note": 81, "velocity": 122, "duration": 155}, {"note": 0, "velocity": 0, "duration": 85}, {"note": 78, "velocity": 117, "duration": 171}, {"note": 0, "velocity": 0, "duration": 69}, {"note": 81, "velocity": 99, "duration": 212}, {"note": 73, "velocity": 122, "duration": 418}, {"note": 0, "velocity": 0, "duration": 62}, {"note": 81, "velocity": 107, "duration": 109}, {"note": 78, "velocity": 97, "duration": 156}, {"note": 0, "velocity": 0, "duration": 84}, {"note": 81, "velocity": 99, "duration": 229}, {"note": 0, "velocity": 0, "duration": 131}, {"note": 81, "velocity": 112, "duration": 143}, {"note": 0, "velocity": 0, "duration": 97}, {"note": 78, "velocity": 112, "duration": 180}, {"note": 81, "velocity": 107, "duration": 167}, {"note": 0, "velocity": 0, "duration": 73}, {"note": 71, "velocity": 117, "duration": 350}, {"note": 0, "velocity": 0, "duration": 130}, {"note": 78, "velocity": 122, "duration": 131}, {"note": 76, "velocity": 88, "duration": 146}, {"note": 0, "velocity": 0, "duration": 94}, {"note": 78, "velocity": 117, "duration": 216}, {"note": 0, "velocity": 0, "duration": 144}, {"note": 78, "velocity": 127, "duration": 211}, {"note": 76, "velocity": 99, "duration": 168}, {"note": 0, "velocity": 0, "duration": 72}, {"note": 74, "velocity": 117, "duration": 206}, {"note": 67, "velocity": 102, "duration": 293}, {"note": 0, "velocity": 0, "duration": 187}, {"note": 76, "velocity": 112, "duration": 162}, {"note": 0, "velocity": 0, "duration": 78}, {"note": 74, "velocity": 107, "duration": 217}, {"note": 76, "velocity": 97, "duration": 191}, {"note": 74, "velocity": 112, "duration": 171}, {"note": 0, "velocity": 0, "duration": 69}, {"note": 76, "velocity": 107, "duration": 173}, {"note": 0, "velocity": 0, "duration": 67}, {"note": 74, "velocity": 117, "duration": 240}, {"note": 0, "velocity": 0, "duration": 240}, {"note": 78, "velocity": 112, "duration": 127}, {"note": 0, "velocity": 0, "duration": 113}, {"note": 78, "velocity": 117, "duration": 130}, {"note": 0, "velocity": 0, "duration": 110}, {"note": 78, "velocity": 117, "duration": 125}, {"note": 0, "velocity": 0, "duration": 115}, {"note": 78, "velocity": 127, "duration": 98}, {"note": 0, "velocity": 0, "duration": 142}, {"note": 78, "velocity": 112, "duration": 117}, {"note": 0, "velocity": 0, "duration": 123}, {"note": 78, "velocity": 117, "duration": 164}, {"note": 0, "velocity": 0, "duration": 76}, {"note": 76, "velocity": 112, "duration": 280}, {"note": 0, "velocity": 0, "duration": 440}, {"note": 78, "velocity": 127, "duration": 121}, {"note": 0, "velocity": 0, "duration": 119}, {"note": 78, "velocity": 117, "duration": 117}, {"note": 0, "velocity": 0, "duration": 123}, {"note": 78, "velocity": 112, "duration": 104}, {"note": 0, "velocity": 0, "duration": 136}, {"note": 78, "velocity": 99, "duration": 110}, {"note": 0, "velocity": 0, "duration": 130}, {"note": 78, "velocity": 107, "duration": 117}, {"note": 0, "velocity": 0, "duration": 123}, {"note": 74, "velocity": 127, "duration": 305}, {"note": 0, "velocity": 0, "duration": 175}, {"note": 78, "velocity": 122, "duration": 106}, {"note": 0, "velocity": 0, "duration": 134}, {"note": 78, "velocity": 122, "duration": 98}, {"note": 0, "velocity": 0, "duration": 142}, {"note": 78, "velocity": 127, "duration": 113}, {"note": 0, "velocity": 0, "duration": 127}, {"note": 78, "velocity": 127, "duration": 114}, {"note": 0, "velocity": 0, "duration": 126}, {"note": 78, "velocity": 127, "duration": 103}, {"note": 0, "velocity": 0, "duration": 137}, {"note": 78, "velocity": 127, "duration": 137}, {"note": 0, "velocity": 0, "duration": 103}, {"note": 76, "velocity": 127, "duration": 254}, {"note": 0, "velocity": 0, "duration": 226}, {"note": 76, "velocity": 88, "duration": 217}, {"note": 74, "velocity": 79, "duration": 64}, {"note": 0, "velocity": 0, "duration": 176}, {"note": 76, "velocity": 107, "duration": 159}, {"note": 0, "velocity": 0, "duration": 81}, {"note": 74, "velocity": 100, "duration": 136}, {"note": 0, "velocity": 0, "duration": 104}, {"note": 76, "velocity": 107, "duration": 124}, {"note": 0, "velocity": 0, "duration": 116}, {"note": 78, "velocity": 122, "duration": 193}, {"note": 74, "velocity": 102, "duration": 357}, {"note": 0, "velocity": 0, "duration": 123}, {"note": 78, "velocity": 112, "duration": 127}, {"note": 0, "velocity": 0, "duration": 113}, {"note": 78, "velocity": 117, "duration": 130}, {"note": 0, "velocity": 0, "duration": 110}, {"note": 78, "velocity": 117, "duration": 125}, {"note": 0, "velocity": 0, "duration": 115}, {"note": 78, "velocity": 127, "duration": 98}, {"note": 0, "velocity": 0, "duration": 142}, {"note": 78, "velocity": 112, "duration": 117}, {"note": 0, "velocity": 0, "duration": 123}, {"note": 78, "velocity": 117, "duration": 164}, {"note": 0, "velocity": 0, "duration": 76}, {"note": 76, "velocity": 112, "duration": 280}, {"note": 0, "velocity": 0, "duration": 440}, {"note": 78, "velocity": 127, "duration": 121}, {"note": 0, "velocity": 0, "duration": 119}, {"note": 78, "velocity": 117, "duration": 117}, {"note": 0, "velocity": 0, "duration": 123}, {"note": 78, "velocity": 112, "duration": 104}, {"note": 0, "velocity": 0, "duration": 136}, {"note": 78, "velocity": 99, "duration": 110}, {"note": 0, "velocity": 0, "duration": 130}, {"note": 78, "velocity": 107, "duration": 117}, {"note": 0, "velocity": 0, "duration": 123}, {"note": 74, "velocity": 127, "duration": 305}, {"note": 0, "velocity": 0, "duration": 175}, {"note": 78, "velocity": 122, "duration": 106}, {"note": 0, "velocity": 0, "duration": 134}, {"note": 78, "velocity": 122, "duration": 98}, {"note": 0, "velocity": 0, "duration": 142}, {"note": 78, "velocity": 127, "duration": 113}, {"note": 0, "velocity": 0, "duration": 127}, {"note": 78, "velocity": 127, "duration": 114}, {"note": 0, "velocity": 0, "duration": 126}, {"note": 78, "velocity": 127, "duration": 103}, {"note": 0, "velocity": 0, "duration": 137}, {"note": 78, "velocity": 127, "duration": 137}, {"note": 0, "velocity": 0, "duration": 103}, {"note": 76, "velocity": 127, "duration": 254}, {"note": 0, "velocity": 0, "duration": 226}, {"note": 76, "velocity": 88, "duration": 217}, {"note": 74, "velocity": 79, "duration": 64}, {"note": 0, "velocity": 0, "duration": 176}, {"note": 76, "velocity": 107, "duration": 159}, {"note": 0, "velocity": 0, "duration": 81}, {"note": 74, "velocity": 100, "duration": 136}, {"note": 0, "velocity": 0, "duration": 104}, {"note": 76, "velocity": 107, "duration": 124}, {"note": 0, "velocity": 0, "duration": 116}, {"note": 78, "velocity": 122, "duration": 193}, {"note": 74, "velocity": 102, "duration": 357}]]