[[{"note": 68, "velocity": 112, "duration": 164}, {"note": 0, "velocity": 0, "duration": 76}, {"note": 68, "velocity": 107, "duration": 193}, {"note": 66, "velocity": 100, "duration": 172}, {"note": 0, "velocity": 0, "duration": 68}, {"note": 66, "velocity": 117, "duration": 246}, {"note": 64, "velocity": 93, "duration": 159}, {"note": 0, "velocity": 0, "duration": 81}, {"note": 64, "velocity": 96, "duration": 184}, {"note": 63, "velocity": 102, "duration": 172}, {"note": 0, "velocity": 0, "duration": 68}, {"note": 63, "velocity": 117, "duration": 225}, {"note": 64, "velocity": 92, "duration": 166}, {"note": 0, "velocity": 0, "duration": 74}, {"note": 64, "velocity": 93, "duration": 868}, {"note": 59, "velocity": 88, "duration": 162}, {"note": 0, "velocity": 0, "duration": 78}, {"note": 59, "velocity": 86, "duration": 120}, {"note": 0, "velocity": 0, "duration": 120}, {"note": 59, "velocity": 99, "duration": 431}, {"note": 68, "velocity": 112, "duration": 1029}, {"note": 59, "velocity": 83, "duration": 137}, {"note": 0, "velocity": 0, "duration": 103}, {"note": 59, "velocity": 86, "duration": 115}, {"note": 0, "velocity": 0, "duration": 125}, {"note": 59, "velocity": 95, "duration": 419}, {"note": 0, "velocity": 0, "duration": 61}, {"note": 66, "velocity": 112, "duration": 1420}, {"note": 0, "velocity": 0, "duration": 500}, {"note": 68, "velocity": 102, "duration": 177}, {"note": 0, "velocity": 0, "duration": 63}, {"note": 68, "velocity": 107, "duration": 191}, {"note": 66, "velocity": 112, "duration": 166}, {"note": 0, "velocity": 0, "duration": 74}, {"note": 66, "velocity": 112, "duration": 222}, {"note": 64, "velocity": 100, "duration": 174}, {"note": 0, "velocity": 0, "duration": 66}, {"note": 64, "velocity": 100, "duration": 278}, {"note": 63, "velocity": 107, "duration": 138}, {"note": 0, "velocity": 0, "duration": 102}, {"note": 63, "velocity": 122, "duration": 189}, {"note": 64, "velocity": 96, "duration": 104}, {"note": 0, "velocity": 0, "duration": 136}, {"note": 64, "velocity": 89, "duration": 111}, {"note": 63, "velocity": 97, "duration": 124}, {"note": 61, "velocity": 97, "duration": 553}, {"note": 59, "velocity": 75, "duration": 126}, {"note": 0, "velocity": 0, "duration": 114}, {"note": 59, "velocity": 89, "duration": 120}, {"note": 0, "velocity": 0, "duration": 120}, {"note": 59, "velocity": 97, "duration": 470}, {"note": 68, "velocity": 112, "duration": 890}, {"note": 0, "velocity": 0, "duration": 70}, {"note": 59, "velocity": 89, "duration": 149}, {"note": 0, "velocity": 0, "duration": 91}, {"note": 59, "velocity": 97, "duration": 126}, {"note": 0, "velocity": 0, "duration": 114}, {"note": 59, "velocity": 93, "duration": 481}, {"note": 66, "velocity": 117, "duration": 1543}, {"note": 0, "velocity": 0, "duration": 137}, {"note": 61, "velocity": 112, "duration": 113}, {"note": 63, "velocity": 96, "duration": 101}, {"note": 61, "velocity": 102, "duration": 150}, {"note": 63, "velocity": 107, "duration": 87}, {"note": 64, "velocity": 96, "duration": 117}, {"note": 63, "velocity": 107, "duration": 81}, {"note": 64, "velocity": 93, "duration": 105}, {"note": 66, "velocity": 100, "duration": 87}, {"note": 68, "velocity": 112, "duration": 101}, {"note": 69, "velocity": 71, "duration": 107}, {"note": 68, "velocity": 112, "duration": 107}, {"note": 69, "velocity": 65, "duration": 148}, {"note": 68, "velocity": 117, "duration": 75}, {"note": 0, "velocity": 0, "duration": 285}, {"note": 61, "velocity": 107, "duration": 52}, {"note": 0, "velocity": 0, "duration": 68}, {"note": 61, "velocity": 96, "duration": 63}, {"note": 63, "velocity": 99, "duration": 64}, {"note": 63, "velocity": 97, "duration": 81}, {"note": 63, "velocity": 90, "duration": 67}, {"note": 64, "velocity": 96, "duration": 82}, {"note": 63, "velocity": 100, "duration": 102}, {"note": 64, "velocity": 89, "duration": 79}, {"note": 66, "velocity": 89, "duration": 97}, {"note": 68, "velocity": 112, "duration": 255}, {"note": 69, "velocity": 82, "duration": 113}, {"note": 68, "velocity": 122, "duration": 15}, {"note": 0, "velocity": 0, "duration": 465}, {"note": 64, "velocity": 95, "duration": 92}, {"note": 66, "velocity": 95, "duration": 108}, {"note": 68, "velocity": 122, "duration": 177}, {"note": 69, "velocity": 93, "duration": 134}, {"note": 68, "velocity": 107, "duration": 259}, {"note": 0, "velocity": 0, "duration": 221}, {"note": 64, "velocity": 95, "duration": 92}, {"note": 66, "velocity": 93, "duration": 96}, {"note": 68, "velocity": 93, "duration": 142}, {"note": 69, "velocity": 85, "duration": 139}, {"note": 68, "velocity": 102, "duration": 285}, {"note": 66, "velocity": 122, "duration": 84}, {"note": 0, "velocity": 0, "duration": 156}, {"note": 64, "velocity": 93, "duration": 233}, {"note": 66, "velocity": 107, "duration": 1213}, {"note": 0, "velocity": 0, "duration": 707}, {"note": 64, "velocity": 107, "duration": 111}, {"note": 0, "velocity": 0, "duration": 129}, {"note": 64, "velocity": 112, "duration": 180}, {"note": 64, "velocity": 127, "duration": 124}, {"note": 0, "velocity": 0, "duration": 116}, {"note": 66, "velocity": 122, "duration": 147}, {"note": 0, "velocity": 0, "duration": 93}, {"note": 66, "velocity": 122, "duration": 165}, {"note": 0, "velocity": 0, "duration": 75}, {"note": 68, "velocity": 117, "duration": 96}, {"note": 0, "velocity": 0, "duration": 144}, {"note": 68, "velocity": 127, "duration": 452}, {"note": 71, "velocity": 99, "duration": 48}, {"note": 71, "velocity": 96, "duration": 193}, {"note": 73, "velocity": 122, "duration": 144}, {"note": 0, "velocity": 0, "duration": 96}, {"note": 73, "velocity": 127, "duration": 1002}, {"note": 0, "velocity": 0, "duration": 438}, {"note": 64, "velocity": 100, "duration": 233}, {"note": 66, "velocity": 107, "duration": 48}, {"note": 0, "velocity": 0, "duration": 192}, {"note": 66, "velocity": 122, "duration": 270}, {"note": 68, "velocity": 96, "duration": 182}, {"note": 68, "velocity": 127, "duration": 234}, {"note": 71, "velocity": 102, "duration": 154}, {"note": 0, "velocity": 0, "duration": 86}, {"note": 71, "velocity": 122, "duration": 196}, {"note": 0, "velocity": 0, "duration": 164}, {"note": 64, "velocity": 99, "duration": 97}, {"note": 68, "velocity": 112, "duration": 108}, {"note": 0, "velocity": 0, "duration": 132}, {"note": 66, "velocity": 122, "duration": 85}, {"note": 0, "velocity": 0, "duration": 155}, {"note": 66, "velocity": 127, "duration": 944}, {"note": 0, "velocity": 0, "duration": 496}, {"note": 64, "velocity": 107, "duration": 72}, {"note": 0, "velocity": 0, "duration": 168}, {"note": 64, "velocity": 102, "duration": 90}, {"note": 0, "velocity": 0, "duration": 150}, {"note": 64, "velocity": 99, "duration": 226}, {"note": 66, "velocity": 122, "duration": 150}, {"note": 0, "velocity": 0, "duration": 90}, {"note": 66, "velocity": 127, "duration": 180}, {"note": 68, "velocity": 127, "duration": 127}, {"note": 0, "velocity": 0, "duration": 113}, {"note": 68, "velocity": 127, "duration": 360}, {"note": 71, "velocity": 99, "duration": 45}, {"note": 0, "velocity": 0, "duration": 75}, {"note": 71, "velocity": 95, "duration": 184}, {"note": 73, "velocity": 117, "duration": 160}, {"note": 0, "velocity": 0, "duration": 80}, {"note": 73, "velocity": 122, "duration": 1055}, {"note": 0, "velocity": 0, "duration": 385}, {"note": 64, "velocity": 107, "duration": 237}, {"note": 66, "velocity": 122, "duration": 126}, {"note": 0, "velocity": 0, "duration": 114}, {"note": 66, "velocity": 127, "duration": 221}, {"note": 68, "velocity": 112, "duration": 170}, {"note": 0, "velocity": 0, "duration": 70}, {"note": 68, "velocity": 112, "duration": 189}, {"note": 71, "velocity": 117, "duration": 155}, {"note": 0, "velocity": 0, "duration": 85}, {"note": 71, "velocity": 122, "duration": 220}, {"note": 0, "velocity": 0, "duration": 140}, {"note": 64, "velocity": 93, "duration": 84}, {"note": 68, "velocity": 127, "duration": 115}, {"note": 0, "velocity": 0, "duration": 125}, {"note": 66, "velocity": 122, "duration": 65}, {"note": 0, "velocity": 0, "duration": 175}, {"note": 66, "velocity": 127, "duration": 436}, {"note": 64, "velocity": 89, "duration": 86}, {"note": 69, "velocity": 112, "duration": 164}, {"note": 0, "velocity": 0, "duration": 76}, {"note": 68, "velocity": 127, "duration": 165}, {"note": 0, "velocity": 0, "duration": 75}, {"note": 66, "velocity": 127, "duration": 172}, {"note": 0, "velocity": 0, "duration": 68}, {"note": 64, "velocity": 117, "duration": 221}, {"note": 64, "velocity": 112, "duration": 94}, {"note": 71, "velocity": 99, "duration": 56}, {"note": 0, "velocity": 0, "duration": 64}, {"note": 71, "velocity": 99, "duration": 79}, {"note": 0, "velocity": 0, "duration": 161}, {"note": 71, "velocity": 127, "duration": 65}, {"note": 0, "velocity": 0, "duration": 175}, {"note": 71, "velocity": 127, "duration": 86}, {"note": 0, "velocity": 0, "duration": 154}, {"note": 64, "velocity": 107, "duration": 204}, {"note": 0, "velocity": 0, "duration": 156}, {"note": 64, "velocity": 122, "duration": 169}, {"note": 0, "velocity": 0, "duration": 191}, {"note": 61, "velocity": 127, "duration": 273}, {"note": 0, "velocity": 0, "duration": 807}, {"note": 61, "velocity": 99, "duration": 69}, {"note": 69, "velocity": 100, "duration": 165}, {"note": 0, "velocity": 0, "duration": 75}, {"note": 68, "velocity": 127, "duration": 162}, {"note": 0, "velocity": 0, "duration": 78}, {"note": 66, "velocity": 127, "duration": 221}, {"note": 64, "velocity": 117, "duration": 138}, {"note": 0, "velocity": 0, "duration": 102}, {"note": 64, "velocity": 117, "duration": 89}, {"note": 71, "velocity": 96, "duration": 62}, {"note": 71, "velocity": 95, "duration": 94}, {"note": 0, "velocity": 0, "duration": 146}, {"note": 71, "velocity": 127, "duration": 79}, {"note": 0, "velocity": 0, "duration": 161}, {"note": 71, "velocity": 127, "duration": 91}, {"note": 0, "velocity": 0, "duration": 149}, {"note": 64, "velocity": 112, "duration": 135}, {"note": 0, "velocity": 0, "duration": 225}, {"note": 64, "velocity": 92, "duration": 52}, {"note": 0, "velocity": 0, "duration": 68}, {"note": 64, "velocity": 92, "duration": 162}, {"note": 0, "velocity": 0, "duration": 78}, {"note": 63, "velocity": 122, "duration": 344}, {"note": 0, "velocity": 0, "duration": 736}, {"note": 64, "velocity": 95, "duration": 80}, {"note": 69, "velocity": 117, "duration": 183}, {"note": 68, "velocity": 127, "duration": 211}, {"note": 66, "velocity": 127, "duration": 179}, {"note": 0, "velocity": 0, "duration": 61}, {"note": 61, "velocity": 122, "duration": 173}, {"note": 0, "velocity": 0, "duration": 67}, {"note": 64, "velocity": 127, "duration": 138}, {"note": 71, "velocity": 100, "duration": 55}, {"note": 0, "velocity": 0, "duration": 65}, {"note": 71, "velocity": 99, "duration": 63}, {"note": 0, "velocity": 0, "duration": 177}, {"note": 71, "velocity": 127, "duration": 64}, {"note": 0, "velocity": 0, "duration": 176}, {"note": 71, "velocity": 127, "duration": 106}, {"note": 0, "velocity": 0, "duration": 134}, {"note": 64, "velocity": 122, "duration": 157}, {"note": 0, "velocity": 0, "duration": 203}, {"note": 64, "velocity": 100, "duration": 60}, {"note": 64, "velocity": 100, "duration": 126}, {"note": 0, "velocity": 0, "duration": 114}, {"note": 61, "velocity": 127, "duration": 237}, {"note": 0, "velocity": 0, "duration": 843}, {"note": 61, "velocity": 122, "duration": 59}, {"note": 0, "velocity": 0, "duration": 61}, {"note": 69, "velocity": 112, "duration": 151}, {"note": 0, "velocity": 0, "duration": 89}, {"note": 68, "velocity": 127, "duration": 156}, {"note": 0, "velocity": 0, "duration": 84}, {"note": 66, "velocity": 127, "duration": 160}, {"note": 0, "velocity": 0, "duration": 80}, {"note": 64, "velocity": 122, "duration": 121}, {"note": 0, "velocity": 0, "duration": 119}, {"note": 64, "velocity": 122, "duration": 88}, {"note": 71, "velocity": 99, "duration": 57}, {"note": 0, "velocity": 0, "duration": 63}, {"note": 71, "velocity": 100, "duration": 94}, {"note": 0, "velocity": 0, "duration": 146}, {"note": 71, "velocity": 127, "duration": 124}, {"note": 0, "velocity": 0, "duration": 116}, {"note": 71, "velocity": 117, "duration": 137}, {"note": 0, "velocity": 0, "duration": 103}, {"note": 64, "velocity": 112, "duration": 128}, {"note": 0, "velocity": 0, "duration": 232}, {"note": 64, "velocity": 93, "duration": 58}, {"note": 0, "velocity": 0, "duration": 62}, {"note": 64, "velocity": 99, "duration": 139}, {"note": 0, "velocity": 0, "duration": 101}, {"note": 63, "velocity": 127, "duration": 1493}, {"note": 0, "velocity": 0, "duration": 907}, {"note": 68, "velocity": 112, "duration": 164}, {"note": 0, "velocity": 0, "duration": 76}, {"note": 68, "velocity": 107, "duration": 193}, {"note": 66, "velocity": 100, "duration": 172}, {"note": 0, "velocity": 0, "duration": 68}, {"note": 66, "velocity": 117, "duration": 246}, {"note": 64, "velocity": 93, "duration": 159}, {"note": 0, "velocity": 0, "duration": 81}, {"note": 64, "velocity": 96, "duration": 184}, {"note": 63, "velocity": 102, "duration": 172}, {"note": 0, "velocity": 0, "duration": 68}, {"note": 63, "velocity": 117, "duration": 225}, {"note": 64, "velocity": 92, "duration": 166}, {"note": 0, "velocity": 0, "duration": 74}, {"note": 64, "velocity": 93, "duration": 586}, {"note": 0, "velocity": 0, "duration": 134}, {"note": 59, "velocity": 88, "duration": 162}, {"note": 0, "velocity": 0, "duration": 78}, {"note": 59, "velocity": 86, "duration": 120}, {"note": 0, "velocity": 0, "duration": 120}, {"note": 59, "velocity": 99, "duration": 431}, {"note": 68, "velocity": 112, "duration": 720}, {"note": 0, "velocity": 0, "duration": 240}, {"note": 59, "velocity": 83, "duration": 137}, {"note": 0, "velocity": 0, "duration": 103}, {"note": 59, "velocity": 86, "duration": 115}, {"note": 0, "velocity": 0, "duration": 125}, {"note": 59, "velocity": 95, "duration": 419}, {"note": 0, "velocity": 0, "duration": 61}, {"note": 66, "velocity": 112, "duration": 1680}, {"note": 0, "velocity": 0, "duration": 240}, {"note": 68, "velocity": 102, "duration": 177}, {"note": 0, "velocity": 0, "duration": 63}, {"note": 68, "velocity": 107, "duration": 191}, {"note": 66, "velocity": 112, "duration": 166}, {"note": 0, "velocity": 0, "duration": 74}, {"note": 66, "velocity": 112, "duration": 222}, {"note": 64, "velocity": 100, "duration": 174}, {"note": 0, "velocity": 0, "duration": 66}, {"note": 64, "velocity": 100, "duration": 278}, {"note": 63, "velocity": 107, "duration": 138}, {"note": 0, "velocity": 0, "duration": 102}, {"note": 63, "velocity": 122, "duration": 189}, {"note": 64, "velocity": 96, "duration": 104}, {"note": 0, "velocity": 0, "duration": 136}, {"note": 64, "velocity": 89, "duration": 111}, {"note": 63, "velocity": 97, "duration": 124}, {"note": 61, "velocity": 97, "duration": 553}, {"note": 59, "velocity": 75, "duration": 126}, {"note": 0, "velocity": 0, "duration": 114}, {"note": 59, "velocity": 89, "duration": 120}, {"note": 0, "velocity": 0, "duration": 120}, {"note": 59, "velocity": 97, "duration": 470}, {"note": 68, "velocity": 112, "duration": 890}, {"note": 0, "velocity": 0, "duration": 70}, {"note": 59, "velocity": 89, "duration": 149}, {"note": 0, "velocity": 0, "duration": 91}, {"note": 59, "velocity": 97, "duration": 126}, {"note": 0, "velocity": 0, "duration": 114}, {"note": 59, "velocity": 93, "duration": 481}, {"note": 66, "velocity": 117, "duration": 1543}, {"note": 0, "velocity": 0, "duration": 137}, {"note": 61, "velocity": 112, "duration": 113}, {"note": 63, "velocity": 96, "duration": 101}, {"note": 61, "velocity": 102, "duration": 150}, {"note": 63, "velocity": 107, "duration": 87}, {"note": 64, "velocity": 96, "duration": 117}, {"note": 63, "velocity": 107, "duration": 81}, {"note": 64, "velocity": 93, "duration": 105}, {"note": 66, "velocity": 100, "duration": 87}, {"note": 68, "velocity": 112, "duration": 101}, {"note": 69, "velocity": 71, "duration": 107}, {"note": 68, "velocity": 112, "duration": 107}, {"note": 69, "velocity": 65, "duration": 148}, {"note": 68, "velocity": 117, "duration": 75}, {"note": 0, "velocity": 0, "duration": 285}, {"note": 61, "velocity": 107, "duration": 52}, {"note": 0, "velocity": 0, "duration": 68}, {"note": 61, "velocity": 96, "duration": 63}, {"note": 63, "velocity": 99, "duration": 64}, {"note": 63, "velocity": 97, "duration": 81}, {"note": 63, "velocity": 90, "duration": 67}, {"note": 64, "velocity": 96, "duration": 82}, {"note": 63, "velocity": 100, "duration": 102}, {"note": 64, "velocity": 89, "duration": 79}, {"note": 66, "velocity": 89, "duration": 97}, {"note": 68, "velocity": 112, "duration": 167}, {"note": 69, "velocity": 82, "duration": 113}, {"note": 68, "velocity": 122, "duration": 170}, {"note": 0, "velocity": 0, "duration": 310}, {"note": 64, "velocity": 95, "duration": 92}, {"note": 66, "velocity": 95, "duration": 108}, {"note": 68, "velocity": 122, "duration": 177}, {"note": 69, "velocity": 93, "duration": 134}, {"note": 68, "velocity": 107, "duration": 259}, {"note": 0, "velocity": 0, "duration": 221}, {"note": 64, "velocity": 95, "duration": 92}, {"note": 66, "velocity": 93, "duration": 96}, {"note": 68, "velocity": 93, "duration": 142}, {"note": 69, "velocity": 85, "duration": 139}, {"note": 68, "velocity": 102, "duration": 285}, {"note": 66, "velocity": 122, "duration": 84}, {"note": 0, "velocity": 0, "duration": 156}, {"note": 64, "velocity": 93, "duration": 233}, {"note": 66, "velocity": 107, "duration": 1213}, {"note": 0, "velocity": 0, "duration": 707}, {"note": 64, "velocity": 107, "duration": 111}, {"note": 0, "velocity": 0, "duration": 129}, {"note": 64, "velocity": 112, "duration": 180}, {"note": 64, "velocity": 127, "duration": 124}, {"note": 0, "velocity": 0, "duration": 116}, {"note": 66, "velocity": 122, "duration": 147}, {"note": 0, "velocity": 0, "duration": 93}, {"note": 66, "velocity": 122, "duration": 165}, {"note": 0, "velocity": 0, "duration": 75}, {"note": 68, "velocity": 117, "duration": 96}, {"note": 0, "velocity": 0, "duration": 144}, {"note": 68, "velocity": 127, "duration": 273}, {"note": 0, "velocity": 0, "duration": 87}, {"note": 71, "velocity": 99, "duration": 48}, {"note": 0, "velocity": 0, "duration": 72}, {"note": 71, "velocity": 96, "duration": 193}, {"note": 73, "velocity": 122, "duration": 144}, {"note": 0, "velocity": 0, "duration": 96}, {"note": 73, "velocity": 127, "duration": 1002}, {"note": 0, "velocity": 0, "duration": 438}, {"note": 64, "velocity": 100, "duration": 134}, {"note": 0, "velocity": 0, "duration": 106}, {"note": 66, "velocity": 107, "duration": 48}, {"note": 0, "velocity": 0, "duration": 192}, {"note": 66, "velocity": 122, "duration": 270}, {"note": 68, "velocity": 96, "duration": 182}, {"note": 68, "velocity": 127, "duration": 234}, {"note": 71, "velocity": 102, "duration": 154}, {"note": 0, "velocity": 0, "duration": 86}, {"note": 71, "velocity": 122, "duration": 196}, {"note": 0, "velocity": 0, "duration": 164}, {"note": 64, "velocity": 99, "duration": 97}, {"note": 68, "velocity": 112, "duration": 108}, {"note": 0, "velocity": 0, "duration": 132}, {"note": 66, "velocity": 122, "duration": 85}, {"note": 0, "velocity": 0, "duration": 155}, {"note": 66, "velocity": 127, "duration": 944}, {"note": 0, "velocity": 0, "duration": 496}, {"note": 64, "velocity": 107, "duration": 72}, {"note": 0, "velocity": 0, "duration": 168}, {"note": 64, "velocity": 102, "duration": 90}, {"note": 0, "velocity": 0, "duration": 150}, {"note": 64, "velocity": 99, "duration": 226}, {"note": 66, "velocity": 122, "duration": 150}, {"note": 0, "velocity": 0, "duration": 90}, {"note": 66, "velocity": 127, "duration": 180}, {"note": 68, "velocity": 127, "duration": 127}, {"note": 0, "velocity": 0, "duration": 113}, {"note": 68, "velocity": 127, "duration": 360}, {"note": 71, "velocity": 99, "duration": 45}, {"note": 0, "velocity": 0, "duration": 75}, {"note": 71, "velocity": 95, "duration": 184}, {"note": 73, "velocity": 117, "duration": 160}, {"note": 0, "velocity": 0, "duration": 80}, {"note": 73, "velocity": 122, "duration": 1055}, {"note": 0, "velocity": 0, "duration": 385}, {"note": 64, "velocity": 107, "duration": 237}, {"note": 66, "velocity": 122, "duration": 126}, {"note": 0, "velocity": 0, "duration": 114}, {"note": 66, "velocity": 127, "duration": 221}, {"note": 68, "velocity": 112, "duration": 170}, {"note": 0, "velocity": 0, "duration": 70}, {"note": 68, "velocity": 112, "duration": 189}, {"note": 71, "velocity": 117, "duration": 155}, {"note": 0, "velocity": 0, "duration": 85}, {"note": 71, "velocity": 122, "duration": 220}, {"note": 0, "velocity": 0, "duration": 140}, {"note": 64, "velocity": 93, "duration": 84}, {"note": 68, "velocity": 127, "duration": 115}, {"note": 0, "velocity": 0, "duration": 125}, {"note": 66, "velocity": 122, "duration": 65}, {"note": 0, "velocity": 0, "duration": 175}, {"note": 66, "velocity": 127, "duration": 436}, {"note": 64, "velocity": 89, "duration": 86}, {"note": 69, "velocity": 112, "duration": 164}, {"note": 0, "velocity": 0, "duration": 76}, {"note": 68, "velocity": 127, "duration": 165}, {"note": 0, "velocity": 0, "duration": 75}, {"note": 66, "velocity": 127, "duration": 172}, {"note": 0, "velocity": 0, "duration": 68}, {"note": 64, "velocity": 117, "duration": 221}, {"note": 64, "velocity": 112, "duration": 94}, {"note": 71, "velocity": 99, "duration": 56}, {"note": 0, "velocity": 0, "duration": 64}, {"note": 71, "velocity": 99, "duration": 79}, {"note": 0, "velocity": 0, "duration": 161}, {"note": 71, "velocity": 127, "duration": 65}, {"note": 0, "velocity": 0, "duration": 175}, {"note": 71, "velocity": 127, "duration": 86}, {"note": 0, "velocity": 0, "duration": 154}, {"note": 64, "velocity": 107, "duration": 204}, {"note": 0, "velocity": 0, "duration": 156}, {"note": 64, "velocity": 122, "duration": 169}, {"note": 0, "velocity": 0, "duration": 191}, {"note": 61, "velocity": 127, "duration": 273}, {"note": 0, "velocity": 0, "duration": 807}, {"note": 61, "velocity": 99, "duration": 69}, {"note": 69, "velocity": 100, "duration": 165}, {"note": 0, "velocity": 0, "duration": 75}, {"note": 68, "velocity": 127, "duration": 162}, {"note": 0, "velocity": 0, "duration": 78}, {"note": 66, "velocity": 127, "duration": 221}, {"note": 64, "velocity": 117, "duration": 138}, {"note": 0, "velocity": 0, "duration": 102}, {"note": 64, "velocity": 117, "duration": 89}, {"note": 71, "velocity": 96, "duration": 62}, {"note": 71, "velocity": 95, "duration": 94}, {"note": 0, "velocity": 0, "duration": 146}, {"note": 71, "velocity": 127, "duration": 79}, {"note": 0, "velocity": 0, "duration": 161}, {"note": 71, "velocity": 127, "duration": 91}, {"note": 0, "velocity": 0, "duration": 149}, {"note": 64, "velocity": 112, "duration": 135}, {"note": 0, "velocity": 0, "duration": 225}, {"note": 64, "velocity": 92, "duration": 52}, {"note": 0, "velocity": 0, "duration": 68}, {"note": 64, "velocity": 92, "duration": 162}, {"note": 0, "velocity": 0, "duration": 78}, {"note": 63, "velocity": 122, "duration": 344}, {"note": 0, "velocity": 0, "duration": 736}, {"note": 64, "velocity": 95, "duration": 80}, {"note": 69, "velocity": 117, "duration": 183}, {"note": 68, "velocity": 127, "duration": 211}, {"note": 66, "velocity": 127, "duration": 179}, {"note": 0, "velocity": 0, "duration": 61}, {"note": 61, "velocity": 122, "duration": 173}, {"note": 0, "velocity": 0, "duration": 67}, {"note": 64, "velocity": 127, "duration": 138}, {"note": 71, "velocity": 100, "duration": 55}, {"note": 0, "velocity": 0, "duration": 65}, {"note": 71, "velocity": 99, "duration": 63}, {"note": 0, "velocity": 0, "duration": 177}, {"note": 71, "velocity": 127, "duration": 64}, {"note": 0, "velocity": 0, "duration": 176}, {"note": 71, "velocity": 127, "duration": 106}, {"note": 0, "velocity": 0, "duration": 134}, {"note": 64, "velocity": 122, "duration": 157}, {"note": 0, "velocity": 0, "duration": 203}, {"note": 64, "velocity": 100, "duration": 60}, {"note": 64, "velocity": 100, "duration": 126}, {"note": 0, "velocity": 0, "duration": 114}, {"note": 61, "velocity": 127, "duration": 237}, {"note": 0, "velocity": 0, "duration": 843}, {"note": 61, "velocity": 122, "duration": 59}, {"note": 0, "velocity": 0, "duration": 61}, {"note": 69, "velocity": 112, "duration": 151}, {"note": 0, "velocity": 0, "duration": 89}, {"note": 68, "velocity": 127, "duration": 156}, {"note": 0, "velocity": 0, "duration": 84}, {"note": 66, "velocity": 127, "duration": 160}, {"note": 0, "velocity": 0, "duration": 80}, {"note": 64, "velocity": 122, "duration": 121}, {"note": 0, "velocity": 0, "duration": 119}, {"note": 64, "velocity": 122, "duration": 88}, {"note": 71, "velocity": 99, "duration": 57}, {"note": 0, "velocity": 0, "duration": 63}, {"note": 71, "velocity": 100, "duration": 94}, {"note": 0, "velocity": 0, "duration": 146}, {"note": 71, "velocity": 127, "duration": 124}, {"note": 0, "velocity": 0, "duration": 116}, {"note": 71, "velocity": 117, "duration": 137}, {"note": 0, "velocity": 0, "duration": 103}, {"note": 64, "velocity": 112, "duration": 128}, {"note": 0, "velocity": 0, "duration": 232}, {"note": 64, "velocity": 93, "duration": 58}, {"note": 0, "velocity": 0, "duration": 62}, {"note": 64, "velocity": 99, "duration": 139}, {"note": 0, "velocity": 0, "duration": 101}, {"note": 63, "velocity": 127, "duration": 1200}, {"note": 0, "velocity": 0, "duration": 240}, {"note": 63, "velocity": 112, "duration": 240}, {"note": 64, "velocity": 95, "duration": 133}, {"note": 0, "velocity": 0, "duration": 107}, {"note": 61, "velocity": 112, "duration": 263}, {"note": 0, "velocity": 0, "duration": 457}, {"note": 64, "velocity": 127, "duration": 159}, {"note": 0, "velocity": 0, "duration": 81}, {"note": 63, "velocity": 112, "duration": 389}, {"note": 0, "velocity": 0, "duration": 91}, {"note": 59, "velocity": 117, "duration": 460}, {"note": 63, "velocity": 117, "duration": 439}, {"note": 64, "velocity": 99, "duration": 117}, {"note": 0, "velocity": 0, "duration": 1083}, {"note": 64, "velocity": 107, "duration": 101}, {"note": 0, "velocity": 0, "duration": 139}, {"note": 63, "velocity": 117, "duration": 480}, {"note": 59, "velocity": 107, "duration": 217}, {"note": 0, "velocity": 0, "duration": 263}, {"note": 54, "velocity": 89, "duration": 379}, {"note": 0, "velocity": 0, "duration": 101}, {"note": 59, "velocity": 93, "duration": 489}, {"note": 56, "velocity": 97, "duration": 1278}, {"note": 0, "velocity": 0, "duration": 162}, {"note": 68, "velocity": 122, "duration": 226}, {"note": 66, "velocity": 99, "duration": 238}, {"note": 64, "velocity": 96, "duration": 374}, {"note": 0, "velocity": 0, "duration": 346}, {"note": 64, "velocity": 97, "duration": 97}, {"note": 0, "velocity": 0, "duration": 143}, {"note": 63, "velocity": 117, "duration": 429}, {"note": 59, "velocity": 97, "duration": 396}, {"note": 0, "velocity": 0, "duration": 84}, {"note": 66, "velocity": 112, "duration": 475}, {"note": 64, "velocity": 97, "duration": 331}, {"note": 0, "velocity": 0, "duration": 629}, {"note": 64, "velocity": 99, "duration": 61}, {"note": 0, "velocity": 0, "duration": 179}, {"note": 64, "velocity": 99, "duration": 84}, {"note": 0, "velocity": 0, "duration": 156}, {"note": 64, "velocity": 127, "duration": 142}, {"note": 0, "velocity": 0, "duration": 338}, {"note": 63, "velocity": 122, "duration": 361}, {"note": 0, "velocity": 0, "duration": 119}, {"note": 63, "velocity": 127, "duration": 175}, {"note": 0, "velocity": 0, "duration": 305}, {"note": 64, "velocity": 100, "duration": 376}, {"note": 0, "velocity": 0, "duration": 104}, {"note": 66, "velocity": 127, "duration": 1001}, {"note": 0, "velocity": 0, "duration": 79}, {"note": 64, "velocity": 93, "duration": 91}, {"note": 69, "velocity": 112, "duration": 176}, {"note": 0, "velocity": 0, "duration": 64}, {"note": 68, "velocity": 127, "duration": 132}, {"note": 0, "velocity": 0, "duration": 108}, {"note": 66, "velocity": 127, "duration": 134}, {"note": 0, "velocity": 0, "duration": 106}, {"note": 64, "velocity": 122, "duration": 154}, {"note": 0, "velocity": 0, "duration": 86}, {"note": 64, "velocity": 112, "duration": 94}, {"note": 71, "velocity": 99, "duration": 56}, {"note": 0, "velocity": 0, "duration": 64}, {"note": 71, "velocity": 99, "duration": 79}, {"note": 0, "velocity": 0, "duration": 161}, {"note": 71, "velocity": 127, "duration": 65}, {"note": 0, "velocity": 0, "duration": 175}, {"note": 71, "velocity": 127, "duration": 86}, {"note": 0, "velocity": 0, "duration": 154}, {"note": 64, "velocity": 107, "duration": 204}, {"note": 0, "velocity": 0, "duration": 156}, {"note": 64, "velocity": 122, "duration": 169}, {"note": 0, "velocity": 0, "duration": 191}, {"note": 61, "velocity": 127, "duration": 273}, {"note": 0, "velocity": 0, "duration": 807}, {"note": 61, "velocity": 99, "duration": 69}, {"note": 69, "velocity": 100, "duration": 165}, {"note": 0, "velocity": 0, "duration": 75}, {"note": 68, "velocity": 127, "duration": 162}, {"note": 0, "velocity": 0, "duration": 78}, {"note": 66, "velocity": 127, "duration": 221}, {"note": 64, "velocity": 117, "duration": 138}, {"note": 0, "velocity": 0, "duration": 102}, {"note": 64, "velocity": 117, "duration": 89}, {"note": 71, "velocity": 96, "duration": 62}, {"note": 71, "velocity": 95, "duration": 94}, {"note": 0, "velocity": 0, "duration": 146}, {"note": 71, "velocity": 127, "duration": 79}, {"note": 0, "velocity": 0, "duration": 161}, {"note": 71, "velocity": 127, "duration": 91}, {"note": 0, "velocity": 0, "duration": 149}, {"note": 64, "velocity": 112, "duration": 135}, {"note": 0, "velocity": 0, "duration": 225}, {"note": 64, "velocity": 92, "duration": 52}, {"note": 0, "velocity": 0, "duration": 68}, {"note": 64, "velocity": 92, "duration": 162}, {"note": 0, "velocity": 0, "duration": 78}, {"note": 63, "velocity": 122, "duration": 344}, {"note": 0, "velocity": 0, "duration": 736}, {"note": 64, "velocity": 95, "duration": 80}, {"note": 69, "velocity": 117, "duration": 183}, {"note": 68, "velocity": 127, "duration": 211}, {"note": 66, "velocity": 127, "duration": 179}, {"note": 0, "velocity": 0, "duration": 61}, {"note": 61, "velocity": 122, "duration": 173}, {"note": 0, "velocity": 0, "duration": 67}, {"note": 64, "velocity": 127, "duration": 138}, {"note": 71, "velocity": 100, "duration": 55}, {"note": 0, "velocity": 0, "duration": 65}, {"note": 71, "velocity": 99, "duration": 63}, {"note": 0, "velocity": 0, "duration": 177}, {"note": 71, "velocity": 127, "duration": 64}, {"note": 0, "velocity": 0, "duration": 176}, {"note": 71, "velocity": 127, "duration": 106}, {"note": 0, "velocity": 0, "duration": 134}, {"note": 64, "velocity": 122, "duration": 157}, {"note": 0, "velocity": 0, "duration": 203}, {"note": 64, "velocity": 100, "duration": 60}, {"note": 64, "velocity": 100, "duration": 126}, {"note": 0, "velocity": 0, "duration": 114}, {"note": 61, "velocity": 127, "duration": 237}, {"note": 0, "velocity": 0, "duration": 843}, {"note": 61, "velocity": 122, "duration": 59}, {"note": 0, "velocity": 0, "duration": 61}, {"note": 69, "velocity": 112, "duration": 151}, {"note": 0, "velocity": 0, "duration": 89}, {"note": 68, "velocity": 127, "duration": 156}, {"note": 0, "velocity": 0, "duration": 84}, {"note": 66, "velocity": 127, "duration": 160}, {"note": 0, "velocity": 0, "duration": 80}, {"note": 64, "velocity": 122, "duration": 121}, {"note": 0, "velocity": 0, "duration": 119}, {"note": 64, "velocity": 122, "duration": 88}, {"note": 71, "velocity": 99, "duration": 57}, {"note": 0, "velocity": 0, "duration": 63}, {"note": 71, "velocity": 100, "duration": 94}, {"note": 0, "velocity": 0, "duration": 146}, {"note": 71, "velocity": 127, "duration": 124}, {"note": 0, "velocity": 0, "duration": 116}, {"note": 71, "velocity": 117, "duration": 137}, {"note": 0, "velocity": 0, "duration": 103}, {"note": 64, "velocity": 112, "duration": 128}, {"note": 0, "velocity": 0, "duration": 232}, {"note": 64, "velocity": 93, "duration": 58}, {"note": 0, "velocity": 0, "duration": 62}, {"note": 64, "velocity": 99, "duration": 139}, {"note": 0, "velocity": 0, "duration": 101}, {"note": 63, "velocity": 127, "duration": 892}, {"note": 0, "velocity": 0, "duration": 188}, {"note": 64, "velocity": 90, "duration": 93}, {"note": 69, "velocity": 122, "duration": 188}, {"note": 68, "velocity": 127, "duration": 163}, {"note": 0, "velocity": 0, "duration": 77}, {"note": 66, "velocity": 122, "duration": 131}, {"note": 0, "velocity": 0, "duration": 109}, {"note": 64, "velocity": 112, "duration": 207}, {"note": 64, "velocity": 112, "duration": 94}, {"note": 71, "velocity": 99, "duration": 56}, {"note": 0, "velocity": 0, "duration": 64}, {"note": 71, "velocity": 99, "duration": 79}, {"note": 0, "velocity": 0, "duration": 161}, {"note": 71, "velocity": 127, "duration": 65}, {"note": 0, "velocity": 0, "duration": 175}, {"note": 71, "velocity": 127, "duration": 86}, {"note": 0, "velocity": 0, "duration": 154}, {"note": 64, "velocity": 107, "duration": 204}, {"note": 0, "velocity": 0, "duration": 156}, {"note": 64, "velocity": 122, "duration": 169}, {"note": 0, "velocity": 0, "duration": 191}, {"note": 61, "velocity": 127, "duration": 273}, {"note": 0, "velocity": 0, "duration": 807}, {"note": 61, "velocity": 99, "duration": 69}, {"note": 69, "velocity": 100, "duration": 165}, {"note": 0, "velocity": 0, "duration": 75}, {"note": 68, "velocity": 127, "duration": 162}, {"note": 0, "velocity": 0, "duration": 78}, {"note": 66, "velocity": 127, "duration": 221}, {"note": 64, "velocity": 117, "duration": 138}, {"note": 0, "velocity": 0, "duration": 102}, {"note": 64, "velocity": 117, "duration": 89}, {"note": 71, "velocity": 96, "duration": 62}, {"note": 71, "velocity": 95, "duration": 94}, {"note": 0, "velocity": 0, "duration": 146}, {"note": 71, "velocity": 127, "duration": 79}, {"note": 0, "velocity": 0, "duration": 161}, {"note": 71, "velocity": 127, "duration": 91}, {"note": 0, "velocity": 0, "duration": 149}, {"note": 64, "velocity": 112, "duration": 135}, {"note": 0, "velocity": 0, "duration": 225}, {"note": 64, "velocity": 92, "duration": 52}, {"note": 0, "velocity": 0, "duration": 68}, {"note": 64, "velocity": 92, "duration": 162}, {"note": 0, "velocity": 0, "duration": 78}, {"note": 63, "velocity": 122, "duration": 344}, {"note": 0, "velocity": 0, "duration": 736}, {"note": 64, "velocity": 95, "duration": 80}, {"note": 69, "velocity": 117, "duration": 183}, {"note": 68, "velocity": 127, "duration": 211}, {"note": 66, "velocity": 127, "duration": 179}, {"note": 0, "velocity": 0, "duration": 61}, {"note": 61, "velocity": 122, "duration": 173}, {"note": 0, "velocity": 0, "duration": 67}, {"note": 64, "velocity": 127, "duration": 138}, {"note": 71, "velocity": 100, "duration": 55}, {"note": 0, "velocity": 0, "duration": 65}, {"note": 71, "velocity": 99, "duration": 63}, {"note": 0, "velocity": 0, "duration": 177}, {"note": 71, "velocity": 127, "duration": 64}, {"note": 0, "velocity": 0, "duration": 176}, {"note": 71, "velocity": 127, "duration": 106}, {"note": 0, "velocity": 0, "duration": 134}, {"note": 64, "velocity": 122, "duration": 157}, {"note": 0, "velocity": 0, "duration": 203}, {"note": 64, "velocity": 100, "duration": 60}, {"note": 64, "velocity": 100, "duration": 126}, {"note": 0, "velocity": 0, "duration": 114}, {"note": 61, "velocity": 127, "duration": 237}, {"note": 0, "velocity": 0, "duration": 843}, {"note": 61, "velocity": 122, "duration": 59}, {"note": 0, "velocity": 0, "duration": 61}, {"note": 69, "velocity": 112, "duration": 151}, {"note": 0, "velocity": 0, "duration": 89}, {"note": 68, "velocity": 127, "duration": 156}, {"note": 0, "velocity": 0, "duration": 84}, {"note": 66, "velocity": 127, "duration": 160}, {"note": 0, "velocity": 0, "duration": 80}, {"note": 64, "velocity": 122, "duration": 121}, {"note": 0, "velocity": 0, "duration": 119}, {"note": 64, "velocity": 122, "duration": 88}, {"note": 71, "velocity": 99, "duration": 57}, {"note": 0, "velocity": 0, "duration": 63}, {"note": 71, "velocity": 100, "duration": 94}, {"note": 0, "velocity": 0, "duration": 146}, {"note": 71, "velocity": 127, "duration": 124}, {"note": 0, "velocity": 0, "duration": 116}, {"note": 71, "velocity": 117, "duration": 137}, {"note": 0, "velocity": 0, "duration": 103}, {"note": 64, "velocity": 112, "duration": 128}, {"note": 0, "velocity": 0, "duration": 232}, {"note": 64, "velocity": 93, "duration": 58}, {"note": 0, "velocity": 0, "duration": 62}, {"note": 64, "velocity": 99, "duration": 139}, {"note": 0, "velocity": 0, "duration": 101}, {"note": 63, "velocity": 127, "duration": 987}, {"note": 0, "velocity": 0, "duration": 93}, {"note": 64, "velocity": 93, "duration": 75}, {"note": 69, "velocity": 117, "duration": 138}, {"note": 0, "velocity": 0, "duration": 102}, {"note": 68, "velocity": 127, "duration": 114}, {"note": 0, "velocity": 0, "duration": 126}, {"note": 66, "velocity": 122, "duration": 147}, {"note": 0, "velocity": 0, "duration": 93}, {"note": 64, "velocity": 127, "duration": 310}]]