[[{"note": 67, "velocity": 122, "duration": 76}, {"note": 0, "velocity": 0, "duration": 84}, {"note": 67, "velocity": 96, "duration": 66}, {"note": 0, "velocity": 0, "duration": 94}, {"note": 67, "velocity": 107, "duration": 62}, {"note": 0, "velocity": 0, "duration": 98}, {"note": 69, "velocity": 127, "duration": 225}, {"note": 0, "velocity": 0, "duration": 95}, {"note": 67, "velocity": 127, "duration": 59}, {"note": 0, "velocity": 0, "duration": 101}, {"note": 64, "velocity": 117, "duration": 81}, {"note": 0, "velocity": 0, "duration": 79}, {"note": 64, "velocity": 117, "duration": 76}, {"note": 62, "velocity": 90, "duration": 79}, {"note": 64, "velocity": 96, "duration": 61}, {"note": 0, "velocity": 0, "duration": 259}, {"note": 60, "velocity": 102, "duration": 73}, {"note": 0, "velocity": 0, "duration": 87}, {"note": 64, "velocity": 112, "duration": 93}, {"note": 0, "velocity": 0, "duration": 67}, {"note": 72, "velocity": 127, "duration": 70}, {"note": 0, "velocity": 0, "duration": 90}, {"note": 72, "velocity": 117, "duration": 121}, {"note": 69, "velocity": 102, "duration": 83}, {"note": 0, "velocity": 0, "duration": 77}, {"note": 72, "velocity": 127, "duration": 281}, {"note": 69, "velocity": 97, "duration": 165}, {"note": 67, "velocity": 107, "duration": 198}, {"note": 0, "velocity": 0, "duration": 762}, {"note": 72, "velocity": 117, "duration": 62}, {"note": 0, "velocity": 0, "duration": 98}, {"note": 72, "velocity": 112, "duration": 116}, {"note": 69, "velocity": 102, "duration": 93}, {"note": 0, "velocity": 0, "duration": 67}, {"note": 72, "velocity": 127, "duration": 154}, {"note": 0, "velocity": 0, "duration": 166}, {"note": 69, "velocity": 107, "duration": 88}, {"note": 0, "velocity": 0, "duration": 72}, {"note": 67, "velocity": 102, "duration": 58}, {"note": 0, "velocity": 0, "duration": 102}, {"note": 67, "velocity": 97, "duration": 70}, {"note": 69, "velocity": 97, "duration": 76}, {"note": 67, "velocity": 112, "duration": 171}, {"note": 0, "velocity": 0, "duration": 149}, {"note": 62, "velocity": 93, "duration": 120}, {"note": 64, "velocity": 107, "duration": 129}, {"note": 67, "velocity": 93, "duration": 134}, {"note": 67, "velocity": 107, "duration": 63}, {"note": 0, "velocity": 0, "duration": 97}, {"note": 69, "velocity": 102, "duration": 78}, {"note": 0, "velocity": 0, "duration": 82}, {"note": 67, "velocity": 127, "duration": 103}, {"note": 0, "velocity": 0, "duration": 217}, {"note": 64, "velocity": 107, "duration": 66}, {"note": 0, "velocity": 0, "duration": 94}, {"note": 62, "velocity": 107, "duration": 409}, {"note": 0, "velocity": 0, "duration": 551}, {"note": 67, "velocity": 122, "duration": 53}, {"note": 0, "velocity": 0, "duration": 107}, {"note": 67, "velocity": 99, "duration": 50}, {"note": 0, "velocity": 0, "duration": 110}, {"note": 67, "velocity": 107, "duration": 57}, {"note": 0, "velocity": 0, "duration": 103}, {"note": 69, "velocity": 127, "duration": 261}, {"note": 67, "velocity": 117, "duration": 65}, {"note": 0, "velocity": 0, "duration": 95}, {"note": 64, "velocity": 127, "duration": 47}, {"note": 0, "velocity": 0, "duration": 113}, {"note": 64, "velocity": 107, "duration": 61}, {"note": 62, "velocity": 93, "duration": 68}, {"note": 64, "velocity": 107, "duration": 64}, {"note": 0, "velocity": 0, "duration": 256}, {"note": 60, "velocity": 100, "duration": 103}, {"note": 64, "velocity": 112, "duration": 78}, {"note": 0, "velocity": 0, "duration": 82}, {"note": 72, "velocity": 127, "duration": 57}, {"note": 0, "velocity": 0, "duration": 103}, {"note": 72, "velocity": 107, "duration": 53}, {"note": 0, "velocity": 0, "duration": 107}, {"note": 69, "velocity": 99, "duration": 88}, {"note": 0, "velocity": 0, "duration": 72}, {"note": 72, "velocity": 122, "duration": 110}, {"note": 72, "velocity": 112, "duration": 139}, {"note": 69, "velocity": 88, "duration": 150}, {"note": 67, "velocity": 90, "duration": 112}, {"note": 0, "velocity": 0, "duration": 848}, {"note": 72, "velocity": 117, "duration": 66}, {"note": 0, "velocity": 0, "duration": 94}, {"note": 72, "velocity": 102, "duration": 64}, {"note": 0, "velocity": 0, "duration": 96}, {"note": 69, "velocity": 107, "duration": 102}, {"note": 72, "velocity": 127, "duration": 138}, {"note": 0, "velocity": 0, "duration": 182}, {"note": 69, "velocity": 117, "duration": 65}, {"note": 0, "velocity": 0, "duration": 95}, {"note": 67, "velocity": 122, "duration": 119}, {"note": 0, "velocity": 0, "duration": 121}, {"note": 69, "velocity": 117, "duration": 71}, {"note": 67, "velocity": 100, "duration": 250}, {"note": 0, "velocity": 0, "duration": 70}, {"note": 60, "velocity": 82, "duration": 138}, {"note": 64, "velocity": 112, "duration": 128}, {"note": 72, "velocity": 127, "duration": 70}, {"note": 0, "velocity": 0, "duration": 90}, {"note": 72, "velocity": 122, "duration": 77}, {"note": 0, "velocity": 0, "duration": 83}, {"note": 72, "velocity": 122, "duration": 110}, {"note": 69, "velocity": 127, "duration": 204}, {"note": 71, "velocity": 127, "duration": 150}, {"note": 72, "velocity": 117, "duration": 111}, {"note": 74, "velocity": 127, "duration": 705}, {"note": 0, "velocity": 0, "duration": 255}, {"note": 74, "velocity": 127, "duration": 63}, {"note": 0, "velocity": 0, "duration": 97}, {"note": 74, "velocity": 107, "duration": 69}, {"note": 0, "velocity": 0, "duration": 91}, {"note": 67, "velocity": 96, "duration": 98}, {"note": 0, "velocity": 0, "duration": 62}, {"note": 76, "velocity": 127, "duration": 211}, {"note": 0, "velocity": 0, "duration": 109}, {"note": 74, "velocity": 127, "duration": 121}, {"note": 72, "velocity": 127, "duration": 65}, {"note": 0, "velocity": 0, "duration": 95}, {"note": 72, "velocity": 117, "duration": 74}, {"note": 0, "velocity": 0, "duration": 86}, {"note": 69, "velocity": 96, "duration": 109}, {"note": 74, "velocity": 127, "duration": 94}, {"note": 0, "velocity": 0, "duration": 226}, {"note": 72, "velocity": 107, "duration": 127}, {"note": 67, "velocity": 107, "duration": 74}, {"note": 0, "velocity": 0, "duration": 86}, {"note": 67, "velocity": 100, "duration": 66}, {"note": 0, "velocity": 0, "duration": 94}, {"note": 64, "velocity": 107, "duration": 120}, {"note": 67, "velocity": 122, "duration": 143}, {"note": 0, "velocity": 0, "duration": 177}, {"note": 69, "velocity": 122, "duration": 149}, {"note": 67, "velocity": 117, "duration": 363}, {"note": 0, "velocity": 0, "duration": 597}, {"note": 74, "velocity": 122, "duration": 59}, {"note": 0, "velocity": 0, "duration": 101}, {"note": 74, "velocity": 122, "duration": 70}, {"note": 0, "velocity": 0, "duration": 90}, {"note": 67, "velocity": 96, "duration": 90}, {"note": 0, "velocity": 0, "duration": 70}, {"note": 76, "velocity": 127, "duration": 134}, {"note": 74, "velocity": 112, "duration": 92}, {"note": 0, "velocity": 0, "duration": 68}, {"note": 74, "velocity": 127, "duration": 95}, {"note": 0, "velocity": 0, "duration": 65}, {"note": 72, "velocity": 127, "duration": 80}, {"note": 0, "velocity": 0, "duration": 80}, {"note": 69, "velocity": 100, "duration": 83}, {"note": 0, "velocity": 0, "duration": 77}, {"note": 69, "velocity": 97, "duration": 75}, {"note": 0, "velocity": 0, "duration": 85}, {"note": 74, "velocity": 127, "duration": 221}, {"note": 0, "velocity": 0, "duration": 99}, {"note": 72, "velocity": 127, "duration": 126}, {"note": 69, "velocity": 127, "duration": 58}, {"note": 0, "velocity": 0, "duration": 102}, {"note": 69, "velocity": 122, "duration": 85}, {"note": 0, "velocity": 0, "duration": 75}, {"note": 67, "velocity": 112, "duration": 97}, {"note": 0, "velocity": 0, "duration": 63}, {"note": 74, "velocity": 127, "duration": 272}, {"note": 76, "velocity": 127, "duration": 154}, {"note": 72, "velocity": 117, "duration": 1237}, {"note": 0, "velocity": 0, "duration": 7403}, {"note": 67, "velocity": 122, "duration": 76}, {"note": 0, "velocity": 0, "duration": 84}, {"note": 67, "velocity": 96, "duration": 66}, {"note": 0, "velocity": 0, "duration": 94}, {"note": 67, "velocity": 107, "duration": 62}, {"note": 0, "velocity": 0, "duration": 98}, {"note": 69, "velocity": 127, "duration": 225}, {"note": 0, "velocity": 0, "duration": 95}, {"note": 67, "velocity": 127, "duration": 59}, {"note": 0, "velocity": 0, "duration": 101}, {"note": 64, "velocity": 117, "duration": 81}, {"note": 0, "velocity": 0, "duration": 79}, {"note": 64, "velocity": 117, "duration": 76}, {"note": 62, "velocity": 90, "duration": 79}, {"note": 64, "velocity": 96, "duration": 61}, {"note": 0, "velocity": 0, "duration": 259}, {"note": 60, "velocity": 102, "duration": 73}, {"note": 0, "velocity": 0, "duration": 87}, {"note": 64, "velocity": 112, "duration": 93}, {"note": 0, "velocity": 0, "duration": 67}, {"note": 72, "velocity": 127, "duration": 70}, {"note": 0, "velocity": 0, "duration": 90}, {"note": 72, "velocity": 117, "duration": 121}, {"note": 69, "velocity": 102, "duration": 83}, {"note": 0, "velocity": 0, "duration": 77}, {"note": 72, "velocity": 127, "duration": 281}, {"note": 69, "velocity": 97, "duration": 165}, {"note": 67, "velocity": 107, "duration": 198}, {"note": 0, "velocity": 0, "duration": 762}, {"note": 72, "velocity": 117, "duration": 62}, {"note": 0, "velocity": 0, "duration": 98}, {"note": 72, "velocity": 112, "duration": 116}, {"note": 69, "velocity": 102, "duration": 93}, {"note": 0, "velocity": 0, "duration": 67}, {"note": 72, "velocity": 127, "duration": 154}, {"note": 0, "velocity": 0, "duration": 166}, {"note": 69, "velocity": 107, "duration": 88}, {"note": 0, "velocity": 0, "duration": 72}, {"note": 67, "velocity": 102, "duration": 58}, {"note": 0, "velocity": 0, "duration": 102}, {"note": 67, "velocity": 97, "duration": 70}, {"note": 69, "velocity": 97, "duration": 76}, {"note": 67, "velocity": 112, "duration": 171}, {"note": 0, "velocity": 0, "duration": 149}, {"note": 62, "velocity": 93, "duration": 120}, {"note": 64, "velocity": 107, "duration": 129}, {"note": 67, "velocity": 93, "duration": 134}, {"note": 67, "velocity": 107, "duration": 63}, {"note": 0, "velocity": 0, "duration": 97}, {"note": 69, "velocity": 102, "duration": 78}, {"note": 0, "velocity": 0, "duration": 82}, {"note": 67, "velocity": 127, "duration": 103}, {"note": 0, "velocity": 0, "duration": 217}, {"note": 64, "velocity": 107, "duration": 66}, {"note": 0, "velocity": 0, "duration": 94}, {"note": 62, "velocity": 107, "duration": 409}, {"note": 0, "velocity": 0, "duration": 551}, {"note": 67, "velocity": 122, "duration": 53}, {"note": 0, "velocity": 0, "duration": 107}, {"note": 67, "velocity": 99, "duration": 50}, {"note": 0, "velocity": 0, "duration": 110}, {"note": 67, "velocity": 107, "duration": 57}, {"note": 0, "velocity": 0, "duration": 103}, {"note": 69, "velocity": 127, "duration": 261}, {"note": 67, "velocity": 117, "duration": 65}, {"note": 0, "velocity": 0, "duration": 95}, {"note": 64, "velocity": 127, "duration": 47}, {"note": 0, "velocity": 0, "duration": 113}, {"note": 64, "velocity": 107, "duration": 61}, {"note": 62, "velocity": 93, "duration": 68}, {"note": 64, "velocity": 107, "duration": 64}, {"note": 0, "velocity": 0, "duration": 256}, {"note": 60, "velocity": 100, "duration": 103}, {"note": 64, "velocity": 112, "duration": 78}, {"note": 0, "velocity": 0, "duration": 82}, {"note": 72, "velocity": 127, "duration": 57}, {"note": 0, "velocity": 0, "duration": 103}, {"note": 72, "velocity": 107, "duration": 53}, {"note": 0, "velocity": 0, "duration": 107}, {"note": 69, "velocity": 99, "duration": 88}, {"note": 0, "velocity": 0, "duration": 72}, {"note": 72, "velocity": 122, "duration": 110}, {"note": 72, "velocity": 112, "duration": 139}, {"note": 69, "velocity": 88, "duration": 150}, {"note": 67, "velocity": 90, "duration": 112}, {"note": 0, "velocity": 0, "duration": 848}, {"note": 72, "velocity": 117, "duration": 66}, {"note": 0, "velocity": 0, "duration": 94}, {"note": 72, "velocity": 102, "duration": 64}, {"note": 0, "velocity": 0, "duration": 96}, {"note": 69, "velocity": 107, "duration": 102}, {"note": 72, "velocity": 127, "duration": 138}, {"note": 0, "velocity": 0, "duration": 182}, {"note": 69, "velocity": 117, "duration": 65}, {"note": 0, "velocity": 0, "duration": 95}, {"note": 67, "velocity": 122, "duration": 119}, {"note": 0, "velocity": 0, "duration": 121}, {"note": 69, "velocity": 117, "duration": 71}, {"note": 67, "velocity": 100, "duration": 250}, {"note": 0, "velocity": 0, "duration": 70}, {"note": 60, "velocity": 82, "duration": 138}, {"note": 64, "velocity": 112, "duration": 128}, {"note": 72, "velocity": 127, "duration": 70}, {"note": 0, "velocity": 0, "duration": 90}, {"note": 72, "velocity": 122, "duration": 77}, {"note": 0, "velocity": 0, "duration": 83}, {"note": 72, "velocity": 122, "duration": 110}, {"note": 69, "velocity": 127, "duration": 204}, {"note": 71, "velocity": 127, "duration": 150}, {"note": 72, "velocity": 117, "duration": 111}, {"note": 74, "velocity": 127, "duration": 705}, {"note": 0, "velocity": 0, "duration": 255}, {"note": 74, "velocity": 127, "duration": 63}, {"note": 0, "velocity": 0, "duration": 97}, {"note": 74, "velocity": 107, "duration": 69}, {"note": 0, "velocity": 0, "duration": 91}, {"note": 67, "velocity": 96, "duration": 98}, {"note": 0, "velocity": 0, "duration": 62}, {"note": 76, "velocity": 127, "duration": 211}, {"note": 0, "velocity": 0, "duration": 109}, {"note": 74, "velocity": 127, "duration": 121}, {"note": 72, "velocity": 127, "duration": 65}, {"note": 0, "velocity": 0, "duration": 95}, {"note": 72, "velocity": 117, "duration": 74}, {"note": 0, "velocity": 0, "duration": 86}, {"note": 69, "velocity": 96, "duration": 109}, {"note": 74, "velocity": 127, "duration": 94}, {"note": 0, "velocity": 0, "duration": 226}, {"note": 72, "velocity": 107, "duration": 127}, {"note": 67, "velocity": 107, "duration": 74}, {"note": 0, "velocity": 0, "duration": 86}, {"note": 67, "velocity": 100, "duration": 66}, {"note": 0, "velocity": 0, "duration": 94}, {"note": 64, "velocity": 107, "duration": 120}, {"note": 67, "velocity": 122, "duration": 143}, {"note": 0, "velocity": 0, "duration": 177}, {"note": 69, "velocity": 122, "duration": 149}, {"note": 67, "velocity": 117, "duration": 363}, {"note": 0, "velocity": 0, "duration": 597}, {"note": 74, "velocity": 122, "duration": 59}, {"note": 0, "velocity": 0, "duration": 101}, {"note": 74, "velocity": 122, "duration": 70}, {"note": 0, "velocity": 0, "duration": 90}, {"note": 67, "velocity": 96, "duration": 90}, {"note": 0, "velocity": 0, "duration": 70}, {"note": 76, "velocity": 127, "duration": 134}, {"note": 74, "velocity": 112, "duration": 92}, {"note": 0, "velocity": 0, "duration": 68}, {"note": 74, "velocity": 127, "duration": 95}, {"note": 0, "velocity": 0, "duration": 65}, {"note": 72, "velocity": 127, "duration": 80}, {"note": 0, "velocity": 0, "duration": 80}, {"note": 69, "velocity": 100, "duration": 83}, {"note": 0, "velocity": 0, "duration": 77}, {"note": 69, "velocity": 97, "duration": 75}, {"note": 0, "velocity": 0, "duration": 85}, {"note": 74, "velocity": 127, "duration": 221}, {"note": 0, "velocity": 0, "duration": 99}, {"note": 72, "velocity": 127, "duration": 126}, {"note": 69, "velocity": 127, "duration": 58}, {"note": 0, "velocity": 0, "duration": 102}, {"note": 69, "velocity": 122, "duration": 85}, {"note": 0, "velocity": 0, "duration": 75}, {"note": 67, "velocity": 112, "duration": 97}, {"note": 0, "velocity": 0, "duration": 63}, {"note": 74, "velocity": 127, "duration": 272}, {"note": 76, "velocity": 127, "duration": 154}, {"note": 72, "velocity": 117, "duration": 1237}, {"note": 0, "velocity": 0, "duration": 7403}, {"note": 67, "velocity": 122, "duration": 76}, {"note": 0, "velocity": 0, "duration": 84}, {"note": 67, "velocity": 96, "duration": 66}, {"note": 0, "velocity": 0, "duration": 94}, {"note": 67, "velocity": 107, "duration": 62}, {"note": 0, "velocity": 0, "duration": 98}, {"note": 69, "velocity": 127, "duration": 225}, {"note": 0, "velocity": 0, "duration": 95}, {"note": 67, "velocity": 127, "duration": 59}, {"note": 0, "velocity": 0, "duration": 101}, {"note": 64, "velocity": 117, "duration": 81}, {"note": 0, "velocity": 0, "duration": 79}, {"note": 64, "velocity": 117, "duration": 76}, {"note": 62, "velocity": 90, "duration": 79}, {"note": 64, "velocity": 96, "duration": 61}, {"note": 0, "velocity": 0, "duration": 259}, {"note": 60, "velocity": 102, "duration": 73}, {"note": 0, "velocity": 0, "duration": 87}, {"note": 64, "velocity": 112, "duration": 93}, {"note": 0, "velocity": 0, "duration": 67}, {"note": 72, "velocity": 127, "duration": 70}, {"note": 0, "velocity": 0, "duration": 90}, {"note": 72, "velocity": 117, "duration": 121}, {"note": 69, "velocity": 102, "duration": 83}, {"note": 0, "velocity": 0, "duration": 77}, {"note": 72, "velocity": 127, "duration": 281}, {"note": 69, "velocity": 97, "duration": 165}, {"note": 67, "velocity": 107, "duration": 198}, {"note": 0, "velocity": 0, "duration": 762}, {"note": 72, "velocity": 117, "duration": 62}, {"note": 0, "velocity": 0, "duration": 98}, {"note": 72, "velocity": 112, "duration": 116}, {"note": 69, "velocity": 102, "duration": 93}, {"note": 0, "velocity": 0, "duration": 67}, {"note": 72, "velocity": 127, "duration": 154}, {"note": 0, "velocity": 0, "duration": 166}, {"note": 69, "velocity": 107, "duration": 88}, {"note": 0, "velocity": 0, "duration": 72}, {"note": 67, "velocity": 102, "duration": 58}, {"note": 0, "velocity": 0, "duration": 102}, {"note": 67, "velocity": 97, "duration": 70}, {"note": 69, "velocity": 97, "duration": 76}, {"note": 67, "velocity": 112, "duration": 171}, {"note": 0, "velocity": 0, "duration": 149}, {"note": 62, "velocity": 93, "duration": 120}, {"note": 64, "velocity": 107, "duration": 129}, {"note": 67, "velocity": 93, "duration": 134}, {"note": 67, "velocity": 107, "duration": 63}, {"note": 0, "velocity": 0, "duration": 97}, {"note": 69, "velocity": 102, "duration": 78}, {"note": 0, "velocity": 0, "duration": 82}, {"note": 67, "velocity": 127, "duration": 103}, {"note": 0, "velocity": 0, "duration": 217}, {"note": 64, "velocity": 107, "duration": 66}, {"note": 0, "velocity": 0, "duration": 94}, {"note": 62, "velocity": 107, "duration": 409}, {"note": 0, "velocity": 0, "duration": 551}, {"note": 67, "velocity": 122, "duration": 53}, {"note": 0, "velocity": 0, "duration": 107}, {"note": 67, "velocity": 99, "duration": 50}, {"note": 0, "velocity": 0, "duration": 110}, {"note": 67, "velocity": 107, "duration": 57}, {"note": 0, "velocity": 0, "duration": 103}, {"note": 69, "velocity": 127, "duration": 261}, {"note": 67, "velocity": 117, "duration": 65}, {"note": 0, "velocity": 0, "duration": 95}, {"note": 64, "velocity": 127, "duration": 47}, {"note": 0, "velocity": 0, "duration": 113}, {"note": 64, "velocity": 107, "duration": 61}, {"note": 62, "velocity": 93, "duration": 68}, {"note": 64, "velocity": 107, "duration": 64}, {"note": 0, "velocity": 0, "duration": 256}, {"note": 60, "velocity": 100, "duration": 103}, {"note": 64, "velocity": 112, "duration": 78}, {"note": 0, "velocity": 0, "duration": 82}, {"note": 72, "velocity": 127, "duration": 57}, {"note": 0, "velocity": 0, "duration": 103}, {"note": 72, "velocity": 107, "duration": 53}, {"note": 0, "velocity": 0, "duration": 107}, {"note": 69, "velocity": 99, "duration": 88}, {"note": 0, "velocity": 0, "duration": 72}, {"note": 72, "velocity": 122, "duration": 110}, {"note": 72, "velocity": 112, "duration": 139}, {"note": 69, "velocity": 88, "duration": 150}, {"note": 67, "velocity": 90, "duration": 112}, {"note": 0, "velocity": 0, "duration": 848}, {"note": 72, "velocity": 117, "duration": 66}, {"note": 0, "velocity": 0, "duration": 94}, {"note": 72, "velocity": 102, "duration": 64}, {"note": 0, "velocity": 0, "duration": 96}, {"note": 69, "velocity": 107, "duration": 102}, {"note": 72, "velocity": 127, "duration": 138}, {"note": 0, "velocity": 0, "duration": 182}, {"note": 69, "velocity": 117, "duration": 65}, {"note": 0, "velocity": 0, "duration": 95}, {"note": 67, "velocity": 122, "duration": 119}, {"note": 0, "velocity": 0, "duration": 121}, {"note": 69, "velocity": 117, "duration": 71}, {"note": 67, "velocity": 100, "duration": 250}, {"note": 0, "velocity": 0, "duration": 70}, {"note": 60, "velocity": 82, "duration": 138}, {"note": 64, "velocity": 112, "duration": 128}, {"note": 72, "velocity": 127, "duration": 70}, {"note": 0, "velocity": 0, "duration": 90}, {"note": 72, "velocity": 122, "duration": 77}, {"note": 0, "velocity": 0, "duration": 83}, {"note": 72, "velocity": 122, "duration": 110}, {"note": 69, "velocity": 127, "duration": 204}, {"note": 71, "velocity": 127, "duration": 150}, {"note": 72, "velocity": 117, "duration": 111}, {"note": 74, "velocity": 127, "duration": 705}, {"note": 0, "velocity": 0, "duration": 255}, {"note": 74, "velocity": 127, "duration": 63}, {"note": 0, "velocity": 0, "duration": 97}, {"note": 74, "velocity": 107, "duration": 69}, {"note": 0, "velocity": 0, "duration": 91}, {"note": 67, "velocity": 96, "duration": 98}, {"note": 0, "velocity": 0, "duration": 62}, {"note": 76, "velocity": 127, "duration": 211}, {"note": 0, "velocity": 0, "duration": 109}, {"note": 74, "velocity": 127, "duration": 121}, {"note": 72, "velocity": 127, "duration": 65}, {"note": 0, "velocity": 0, "duration": 95}, {"note": 72, "velocity": 117, "duration": 74}, {"note": 0, "velocity": 0, "duration": 86}, {"note": 69, "velocity": 96, "duration": 109}, {"note": 74, "velocity": 127, "duration": 94}, {"note": 0, "velocity": 0, "duration": 226}, {"note": 72, "velocity": 107, "duration": 127}, {"note": 67, "velocity": 107, "duration": 74}, {"note": 0, "velocity": 0, "duration": 86}, {"note": 67, "velocity": 100, "duration": 66}, {"note": 0, "velocity": 0, "duration": 94}, {"note": 64, "velocity": 107, "duration": 120}, {"note": 67, "velocity": 122, "duration": 143}, {"note": 0, "velocity": 0, "duration": 177}, {"note": 69, "velocity": 122, "duration": 149}, {"note": 67, "velocity": 117, "duration": 363}, {"note": 0, "velocity": 0, "duration": 597}, {"note": 74, "velocity": 122, "duration": 59}, {"note": 0, "velocity": 0, "duration": 101}, {"note": 74, "velocity": 122, "duration": 70}, {"note": 0, "velocity": 0, "duration": 90}, {"note": 67, "velocity": 96, "duration": 90}, {"note": 0, "velocity": 0, "duration": 70}, {"note": 76, "velocity": 127, "duration": 134}, {"note": 74, "velocity": 112, "duration": 92}, {"note": 0, "velocity": 0, "duration": 68}, {"note": 74, "velocity": 127, "duration": 95}, {"note": 0, "velocity": 0, "duration": 65}, {"note": 72, "velocity": 127, "duration": 80}, {"note": 0, "velocity": 0, "duration": 80}, {"note": 69, "velocity": 100, "duration": 83}, {"note": 0, "velocity": 0, "duration": 77}, {"note": 69, "velocity": 97, "duration": 75}, {"note": 0, "velocity": 0, "duration": 85}, {"note": 74, "velocity": 127, "duration": 221}, {"note": 0, "velocity": 0, "duration": 99}, {"note": 72, "velocity": 127, "duration": 126}, {"note": 69, "velocity": 127, "duration": 58}, {"note": 0, "velocity": 0, "duration": 102}, {"note": 69, "velocity": 122, "duration": 85}, {"note": 0, "velocity": 0, "duration": 75}, {"note": 67, "velocity": 112, "duration": 97}, {"note": 0, "velocity": 0, "duration": 63}, {"note": 74, "velocity": 127, "duration": 272}, {"note": 76, "velocity": 127, "duration": 154}, {"note": 72, "velocity": 117, "duration": 960}, {"note": 74, "velocity": 127, "duration": 63}, {"note": 0, "velocity": 0, "duration": 97}, {"note": 74, "velocity": 107, "duration": 69}, {"note": 0, "velocity": 0, "duration": 91}, {"note": 67, "velocity": 96, "duration": 98}, {"note": 0, "velocity": 0, "duration": 62}, {"note": 76, "velocity": 127, "duration": 211}, {"note": 0, "velocity": 0, "duration": 109}, {"note": 74, "velocity": 127, "duration": 121}, {"note": 72, "velocity": 127, "duration": 65}, {"note": 0, "velocity": 0, "duration": 95}, {"note": 72, "velocity": 117, "duration": 74}, {"note": 0, "velocity": 0, "duration": 86}, {"note": 69, "velocity": 96, "duration": 109}, {"note": 74, "velocity": 127, "duration": 94}, {"note": 0, "velocity": 0, "duration": 226}, {"note": 72, "velocity": 107, "duration": 127}, {"note": 67, "velocity": 107, "duration": 74}, {"note": 0, "velocity": 0, "duration": 86}, {"note": 67, "velocity": 100, "duration": 66}, {"note": 0, "velocity": 0, "duration": 94}, {"note": 64, "velocity": 107, "duration": 120}, {"note": 67, "velocity": 122, "duration": 143}, {"note": 0, "velocity": 0, "duration": 177}, {"note": 69, "velocity": 122, "duration": 149}, {"note": 67, "velocity": 117, "duration": 363}, {"note": 0, "velocity": 0, "duration": 597}, {"note": 74, "velocity": 122, "duration": 59}, {"note": 0, "velocity": 0, "duration": 101}, {"note": 74, "velocity": 122, "duration": 70}, {"note": 0, "velocity": 0, "duration": 90}, {"note": 67, "velocity": 96, "duration": 90}, {"note": 0, "velocity": 0, "duration": 70}, {"note": 76, "velocity": 127, "duration": 134}, {"note": 74, "velocity": 112, "duration": 92}, {"note": 0, "velocity": 0, "duration": 68}, {"note": 74, "velocity": 127, "duration": 95}, {"note": 0, "velocity": 0, "duration": 65}, {"note": 72, "velocity": 127, "duration": 80}, {"note": 0, "velocity": 0, "duration": 80}, {"note": 69, "velocity": 100, "duration": 83}, {"note": 0, "velocity": 0, "duration": 77}, {"note": 69, "velocity": 97, "duration": 75}, {"note": 0, "velocity": 0, "duration": 85}, {"note": 74, "velocity": 127, "duration": 221}, {"note": 0, "velocity": 0, "duration": 99}, {"note": 72, "velocity": 127, "duration": 126}, {"note": 69, "velocity": 127, "duration": 58}, {"note": 0, "velocity": 0, "duration": 102}, {"note": 69, "velocity": 122, "duration": 85}, {"note": 0, "velocity": 0, "duration": 75}, {"note": 67, "velocity": 112, "duration": 97}, {"note": 0, "velocity": 0, "duration": 63}, {"note": 74, "velocity": 127, "duration": 272}, {"note": 76, "velocity": 127, "duration": 154}, {"note": 72, "velocity": 117, "duration": 960}]]