[[{"note": 72, "velocity": 96, "duration": 134}, {"note": 74, "velocity": 70, "duration": 131}, {"note": 76, "velocity": 102, "duration": 416}, {"note": 67, "velocity": 95, "duration": 630}, {"note": 0, "velocity": 0, "duration": 570}, {"note": 67, "velocity": 90, "duration": 65}, {"note": 67, "velocity": 90, "duration": 200}, {"note": 65, "velocity": 78, "duration": 154}, {"note": 0, "velocity": 0, "duration": 86}, {"note": 64, "velocity": 88, "duration": 108}, {"note": 65, "velocity": 95, "duration": 246}, {"note": 74, "velocity": 102, "duration": 161}, {"note": 0, "velocity": 0, "duration": 79}, {"note": 74, "velocity": 102, "duration": 243}, {"note": 72, "velocity": 79, "duration": 116}, {"note": 0, "velocity": 0, "duration": 124}, {"note": 74, "velocity": 112, "duration": 118}, {"note": 0, "velocity": 0, "duration": 722}, {"note": 72, "velocity": 83, "duration": 30}, {"note": 0, "velocity": 0, "duration": 90}, {"note": 77, "velocity": 107, "duration": 170}, {"note": 0, "velocity": 0, "duration": 70}, {"note": 76, "velocity": 117, "duration": 63}, {"note": 77, "velocity": 112, "duration": 219}, {"note": 0, "velocity": 0, "duration": 141}, {"note": 76, "velocity": 97, "duration": 116}, {"note": 77, "velocity": 90, "duration": 121}, {"note": 0, "velocity": 0, "duration": 119}, {"note": 76, "velocity": 100, "duration": 201}, {"note": 74, "velocity": 78, "duration": 75}, {"note": 74, "velocity": 122, "duration": 142}, {"note": 0, "velocity": 0, "duration": 98}, {"note": 72, "velocity": 102, "duration": 86}, {"note": 76, "velocity": 112, "duration": 870}, {"note": 0, "velocity": 0, "duration": 570}, {"note": 72, "velocity": 93, "duration": 51}, {"note": 0, "velocity": 0, "duration": 69}, {"note": 74, "velocity": 97, "duration": 103}, {"note": 76, "velocity": 112, "duration": 321}, {"note": 72, "velocity": 96, "duration": 1030}, {"note": 0, "velocity": 0, "duration": 170}, {"note": 72, "velocity": 78, "duration": 59}, {"note": 0, "velocity": 0, "duration": 181}, {"note": 72, "velocity": 96, "duration": 96}, {"note": 69, "velocity": 86, "duration": 130}, {"note": 0, "velocity": 0, "duration": 110}, {"note": 72, "velocity": 90, "duration": 59}, {"note": 0, "velocity": 0, "duration": 61}, {"note": 74, "velocity": 107, "duration": 218}, {"note": 72, "velocity": 73, "duration": 128}, {"note": 74, "velocity": 93, "duration": 295}, {"note": 76, "velocity": 100, "duration": 148}, {"note": 0, "velocity": 0, "duration": 92}, {"note": 74, "velocity": 102, "duration": 558}, {"note": 0, "velocity": 0, "duration": 402}, {"note": 72, "velocity": 88, "duration": 71}, {"note": 77, "velocity": 107, "duration": 144}, {"note": 0, "velocity": 0, "duration": 96}, {"note": 76, "velocity": 95, "duration": 81}, {"note": 77, "velocity": 97, "duration": 175}, {"note": 0, "velocity": 0, "duration": 185}, {"note": 76, "velocity": 102, "duration": 254}, {"note": 77, "velocity": 99, "duration": 181}, {"note": 76, "velocity": 102, "duration": 115}, {"note": 0, "velocity": 0, "duration": 125}, {"note": 74, "velocity": 102, "duration": 85}, {"note": 76, "velocity": 90, "duration": 313}, {"note": 72, "velocity": 97, "duration": 979}, {"note": 0, "velocity": 0, "duration": 461}, {"note": 72, "velocity": 93, "duration": 83}, {"note": 74, "velocity": 95, "duration": 136}, {"note": 76, "velocity": 73, "duration": 264}, {"note": 0, "velocity": 0, "duration": 216}, {"note": 67, "velocity": 90, "duration": 897}, {"note": 0, "velocity": 0, "duration": 63}, {"note": 67, "velocity": 82, "duration": 67}, {"note": 67, "velocity": 92, "duration": 143}, {"note": 65, "velocity": 93, "duration": 180}, {"note": 64, "velocity": 88, "duration": 121}, {"note": 65, "velocity": 96, "duration": 185}, {"note": 74, "velocity": 93, "duration": 84}, {"note": 0, "velocity": 0, "duration": 96}, {"note": 74, "velocity": 99, "duration": 340}, {"note": 72, "velocity": 89, "duration": 91}, {"note": 74, "velocity": 93, "duration": 829}, {"note": 0, "velocity": 0, "duration": 131}, {"note": 72, "velocity": 89, "duration": 106}, {"note": 77, "velocity": 107, "duration": 171}, {"note": 0, "velocity": 0, "duration": 69}, {"note": 76, "velocity": 112, "duration": 66}, {"note": 77, "velocity": 127, "duration": 182}, {"note": 76, "velocity": 112, "duration": 158}, {"note": 0, "velocity": 0, "duration": 82}, {"note": 77, "velocity": 112, "duration": 225}, {"note": 76, "velocity": 112, "duration": 105}, {"note": 0, "velocity": 0, "duration": 135}, {"note": 74, "velocity": 107, "duration": 62}, {"note": 74, "velocity": 127, "duration": 124}, {"note": 0, "velocity": 0, "duration": 116}, {"note": 72, "velocity": 112, "duration": 101}, {"note": 76, "velocity": 107, "duration": 1072}, {"note": 0, "velocity": 0, "duration": 368}, {"note": 72, "velocity": 112, "duration": 115}, {"note": 74, "velocity": 95, "duration": 118}, {"note": 76, "velocity": 97, "duration": 210}, {"note": 0, "velocity": 0, "duration": 150}, {"note": 72, "velocity": 107, "duration": 970}, {"note": 0, "velocity": 0, "duration": 230}, {"note": 72, "velocity": 95, "duration": 60}, {"note": 72, "velocity": 99, "duration": 122}, {"note": 0, "velocity": 0, "duration": 118}, {"note": 69, "velocity": 96, "duration": 137}, {"note": 72, "velocity": 96, "duration": 85}, {"note": 0, "velocity": 0, "duration": 95}, {"note": 74, "velocity": 107, "duration": 262}, {"note": 72, "velocity": 96, "duration": 124}, {"note": 74, "velocity": 117, "duration": 226}, {"note": 76, "velocity": 102, "duration": 326}, {"note": 74, "velocity": 122, "duration": 473}, {"note": 0, "velocity": 0, "duration": 427}, {"note": 72, "velocity": 88, "duration": 32}, {"note": 0, "velocity": 0, "duration": 88}, {"note": 77, "velocity": 112, "duration": 150}, {"note": 0, "velocity": 0, "duration": 90}, {"note": 76, "velocity": 95, "duration": 77}, {"note": 77, "velocity": 102, "duration": 169}, {"note": 0, "velocity": 0, "duration": 71}, {"note": 79, "velocity": 112, "duration": 180}, {"note": 81, "velocity": 107, "duration": 174}, {"note": 0, "velocity": 0, "duration": 66}, {"note": 79, "velocity": 102, "duration": 242}, {"note": 0, "velocity": 0, "duration": 118}, {"note": 77, "velocity": 117, "duration": 114}, {"note": 79, "velocity": 100, "duration": 233}, {"note": 0, "velocity": 0, "duration": 127}, {"note": 79, "velocity": 127, "duration": 1287}, {"note": 0, "velocity": 0, "duration": 1233}, {"note": 76, "velocity": 107, "duration": 121}, {"note": 0, "velocity": 0, "duration": 119}, {"note": 72, "velocity": 97, "duration": 101}, {"note": 79, "velocity": 117, "duration": 159}, {"note": 0, "velocity": 0, "duration": 81}, {"note": 76, "velocity": 99, "duration": 203}, {"note": 84, "velocity": 127, "duration": 225}, {"note": 83, "velocity": 102, "duration": 192}, {"note": 79, "velocity": 117, "duration": 671}, {"note": 79, "velocity": 100, "duration": 48}, {"note": 0, "velocity": 0, "duration": 72}, {"note": 79, "velocity": 96, "duration": 90}, {"note": 84, "velocity": 127, "duration": 157}, {"note": 0, "velocity": 0, "duration": 83}, {"note": 83, "velocity": 112, "duration": 64}, {"note": 79, "velocity": 99, "duration": 113}, {"note": 0, "velocity": 0, "duration": 127}, {"note": 76, "velocity": 107, "duration": 358}, {"note": 74, "velocity": 97, "duration": 623}, {"note": 0, "velocity": 0, "duration": 97}, {"note": 69, "velocity": 96, "duration": 114}, {"note": 72, "velocity": 90, "duration": 111}, {"note": 77, "velocity": 100, "duration": 171}, {"note": 0, "velocity": 0, "duration": 69}, {"note": 76, "velocity": 97, "duration": 63}, {"note": 77, "velocity": 122, "duration": 141}, {"note": 0, "velocity": 0, "duration": 99}, {"note": 79, "velocity": 96, "duration": 274}, {"note": 0, "velocity": 0, "duration": 86}, {"note": 80, "velocity": 122, "duration": 243}, {"note": 79, "velocity": 122, "duration": 138}, {"note": 0, "velocity": 0, "duration": 102}, {"note": 77, "velocity": 117, "duration": 200}, {"note": 79, "velocity": 100, "duration": 130}, {"note": 0, "velocity": 0, "duration": 110}, {"note": 72, "velocity": 100, "duration": 227}, {"note": 74, "velocity": 100, "duration": 52}, {"note": 0, "velocity": 0, "duration": 68}, {"note": 76, "velocity": 122, "duration": 179}, {"note": 0, "velocity": 0, "duration": 61}, {"note": 74, "velocity": 122, "duration": 504}, {"note": 0, "velocity": 0, "duration": 456}, {"note": 76, "velocity": 107, "duration": 121}, {"note": 0, "velocity": 0, "duration": 119}, {"note": 72, "velocity": 97, "duration": 101}, {"note": 79, "velocity": 117, "duration": 159}, {"note": 0, "velocity": 0, "duration": 81}, {"note": 76, "velocity": 99, "duration": 203}, {"note": 84, "velocity": 127, "duration": 225}, {"note": 83, "velocity": 102, "duration": 192}, {"note": 79, "velocity": 117, "duration": 671}, {"note": 76, "velocity": 97, "duration": 115}, {"note": 79, "velocity": 97, "duration": 113}, {"note": 84, "velocity": 127, "duration": 157}, {"note": 0, "velocity": 0, "duration": 83}, {"note": 83, "velocity": 112, "duration": 64}, {"note": 79, "velocity": 99, "duration": 113}, {"note": 0, "velocity": 0, "duration": 127}, {"note": 76, "velocity": 107, "duration": 358}, {"note": 79, "velocity": 127, "duration": 550}, {"note": 0, "velocity": 0, "duration": 170}, {"note": 77, "velocity": 122, "duration": 130}, {"note": 0, "velocity": 0, "duration": 110}, {"note": 74, "velocity": 117, "duration": 216}, {"note": 72, "velocity": 88, "duration": 237}, {"note": 0, "velocity": 0, "duration": 243}, {"note": 72, "velocity": 95, "duration": 51}, {"note": 0, "velocity": 0, "duration": 69}, {"note": 72, "velocity": 89, "duration": 65}, {"note": 77, "velocity": 117, "duration": 125}, {"note": 0, "velocity": 0, "duration": 115}, {"note": 76, "velocity": 112, "duration": 50}, {"note": 0, "velocity": 0, "duration": 70}, {"note": 77, "velocity": 122, "duration": 191}, {"note": 79, "velocity": 107, "duration": 151}, {"note": 0, "velocity": 0, "duration": 209}, {"note": 81, "velocity": 122, "duration": 210}, {"note": 72, "velocity": 107, "duration": 161}, {"note": 0, "velocity": 0, "duration": 79}, {"note": 72, "velocity": 112, "duration": 90}, {"note": 74, "velocity": 112, "duration": 324}, {"note": 72, "velocity": 107, "duration": 1663}, {"note": 0, "velocity": 0, "duration": 5417}, {"note": 72, "velocity": 112, "duration": 125}, {"note": 74, "velocity": 102, "duration": 162}, {"note": 76, "velocity": 112, "duration": 397}, {"note": 0, "velocity": 0, "duration": 203}, {"note": 67, "velocity": 90, "duration": 897}, {"note": 0, "velocity": 0, "duration": 63}, {"note": 67, "velocity": 82, "duration": 67}, {"note": 67, "velocity": 92, "duration": 143}, {"note": 65, "velocity": 93, "duration": 180}, {"note": 64, "velocity": 88, "duration": 121}, {"note": 65, "velocity": 96, "duration": 185}, {"note": 74, "velocity": 93, "duration": 84}, {"note": 0, "velocity": 0, "duration": 96}, {"note": 74, "velocity": 99, "duration": 340}, {"note": 72, "velocity": 89, "duration": 91}, {"note": 74, "velocity": 93, "duration": 829}, {"note": 0, "velocity": 0, "duration": 131}, {"note": 72, "velocity": 89, "duration": 106}, {"note": 77, "velocity": 107, "duration": 171}, {"note": 0, "velocity": 0, "duration": 69}, {"note": 76, "velocity": 112, "duration": 66}, {"note": 77, "velocity": 127, "duration": 182}, {"note": 76, "velocity": 112, "duration": 158}, {"note": 0, "velocity": 0, "duration": 82}, {"note": 77, "velocity": 112, "duration": 225}, {"note": 76, "velocity": 112, "duration": 105}, {"note": 0, "velocity": 0, "duration": 135}, {"note": 74, "velocity": 107, "duration": 62}, {"note": 74, "velocity": 127, "duration": 124}, {"note": 0, "velocity": 0, "duration": 116}, {"note": 72, "velocity": 112, "duration": 101}, {"note": 76, "velocity": 107, "duration": 1072}, {"note": 0, "velocity": 0, "duration": 368}, {"note": 72, "velocity": 112, "duration": 115}, {"note": 74, "velocity": 95, "duration": 118}, {"note": 76, "velocity": 97, "duration": 210}, {"note": 0, "velocity": 0, "duration": 150}, {"note": 72, "velocity": 107, "duration": 970}, {"note": 0, "velocity": 0, "duration": 230}, {"note": 72, "velocity": 95, "duration": 60}, {"note": 72, "velocity": 99, "duration": 122}, {"note": 0, "velocity": 0, "duration": 118}, {"note": 69, "velocity": 96, "duration": 137}, {"note": 72, "velocity": 96, "duration": 85}, {"note": 0, "velocity": 0, "duration": 95}, {"note": 74, "velocity": 107, "duration": 262}, {"note": 72, "velocity": 96, "duration": 124}, {"note": 74, "velocity": 117, "duration": 226}, {"note": 76, "velocity": 102, "duration": 326}, {"note": 74, "velocity": 122, "duration": 473}, {"note": 0, "velocity": 0, "duration": 427}, {"note": 72, "velocity": 88, "duration": 32}, {"note": 0, "velocity": 0, "duration": 88}, {"note": 77, "velocity": 112, "duration": 150}, {"note": 0, "velocity": 0, "duration": 90}, {"note": 76, "velocity": 95, "duration": 77}, {"note": 77, "velocity": 102, "duration": 169}, {"note": 0, "velocity": 0, "duration": 71}, {"note": 79, "velocity": 112, "duration": 180}, {"note": 81, "velocity": 107, "duration": 174}, {"note": 0, "velocity": 0, "duration": 66}, {"note": 79, "velocity": 102, "duration": 242}, {"note": 0, "velocity": 0, "duration": 118}, {"note": 77, "velocity": 117, "duration": 114}, {"note": 79, "velocity": 100, "duration": 233}, {"note": 0, "velocity": 0, "duration": 127}, {"note": 79, "velocity": 127, "duration": 1287}, {"note": 0, "velocity": 0, "duration": 1233}, {"note": 76, "velocity": 107, "duration": 121}, {"note": 0, "velocity": 0, "duration": 119}, {"note": 72, "velocity": 97, "duration": 101}, {"note": 79, "velocity": 117, "duration": 159}, {"note": 0, "velocity": 0, "duration": 81}, {"note": 76, "velocity": 99, "duration": 203}, {"note": 84, "velocity": 127, "duration": 225}, {"note": 83, "velocity": 102, "duration": 192}, {"note": 79, "velocity": 117, "duration": 671}, {"note": 79, "velocity": 100, "duration": 48}, {"note": 0, "velocity": 0, "duration": 72}, {"note": 79, "velocity": 96, "duration": 90}, {"note": 84, "velocity": 127, "duration": 157}, {"note": 0, "velocity": 0, "duration": 83}, {"note": 83, "velocity": 112, "duration": 64}, {"note": 79, "velocity": 99, "duration": 113}, {"note": 0, "velocity": 0, "duration": 127}, {"note": 76, "velocity": 107, "duration": 358}, {"note": 74, "velocity": 97, "duration": 623}, {"note": 0, "velocity": 0, "duration": 97}, {"note": 69, "velocity": 96, "duration": 114}, {"note": 72, "velocity": 90, "duration": 111}, {"note": 77, "velocity": 100, "duration": 171}, {"note": 0, "velocity": 0, "duration": 69}, {"note": 76, "velocity": 97, "duration": 63}, {"note": 77, "velocity": 122, "duration": 141}, {"note": 0, "velocity": 0, "duration": 99}, {"note": 79, "velocity": 96, "duration": 274}, {"note": 0, "velocity": 0, "duration": 86}, {"note": 80, "velocity": 122, "duration": 243}, {"note": 79, "velocity": 122, "duration": 138}, {"note": 0, "velocity": 0, "duration": 102}, {"note": 77, "velocity": 117, "duration": 200}, {"note": 79, "velocity": 100, "duration": 130}, {"note": 0, "velocity": 0, "duration": 110}, {"note": 72, "velocity": 100, "duration": 227}, {"note": 74, "velocity": 100, "duration": 52}, {"note": 0, "velocity": 0, "duration": 68}, {"note": 76, "velocity": 122, "duration": 179}, {"note": 0, "velocity": 0, "duration": 61}, {"note": 74, "velocity": 122, "duration": 504}, {"note": 0, "velocity": 0, "duration": 456}, {"note": 76, "velocity": 107, "duration": 121}, {"note": 0, "velocity": 0, "duration": 119}, {"note": 72, "velocity": 97, "duration": 101}, {"note": 79, "velocity": 117, "duration": 159}, {"note": 0, "velocity": 0, "duration": 81}, {"note": 76, "velocity": 99, "duration": 203}, {"note": 84, "velocity": 127, "duration": 225}, {"note": 83, "velocity": 102, "duration": 192}, {"note": 79, "velocity": 117, "duration": 671}, {"note": 76, "velocity": 97, "duration": 115}, {"note": 79, "velocity": 97, "duration": 113}, {"note": 84, "velocity": 127, "duration": 157}, {"note": 0, "velocity": 0, "duration": 83}, {"note": 83, "velocity": 112, "duration": 64}, {"note": 79, "velocity": 99, "duration": 113}, {"note": 0, "velocity": 0, "duration": 127}, {"note": 76, "velocity": 107, "duration": 358}, {"note": 79, "velocity": 127, "duration": 550}, {"note": 0, "velocity": 0, "duration": 170}, {"note": 77, "velocity": 122, "duration": 130}, {"note": 0, "velocity": 0, "duration": 110}, {"note": 74, "velocity": 117, "duration": 216}, {"note": 72, "velocity": 88, "duration": 237}, {"note": 0, "velocity": 0, "duration": 243}, {"note": 72, "velocity": 95, "duration": 51}, {"note": 0, "velocity": 0, "duration": 69}, {"note": 72, "velocity": 89, "duration": 65}, {"note": 77, "velocity": 117, "duration": 125}, {"note": 0, "velocity": 0, "duration": 115}, {"note": 76, "velocity": 112, "duration": 50}, {"note": 0, "velocity": 0, "duration": 70}, {"note": 77, "velocity": 122, "duration": 191}, {"note": 79, "velocity": 107, "duration": 151}, {"note": 0, "velocity": 0, "duration": 209}, {"note": 81, "velocity": 122, "duration": 210}, {"note": 72, "velocity": 107, "duration": 161}, {"note": 0, "velocity": 0, "duration": 79}, {"note": 72, "velocity": 112, "duration": 90}, {"note": 74, "velocity": 112, "duration": 324}, {"note": 72, "velocity": 107, "duration": 480}, {"note": 0, "velocity": 0, "duration": 600}, {"note": 76, "velocity": 127, "duration": 135}, {"note": 0, "velocity": 0, "duration": 105}, {"note": 74, "velocity": 76, "duration": 100}, {"note": 76, "velocity": 100, "duration": 116}, {"note": 74, "velocity": 86, "duration": 92}, {"note": 72, "velocity": 99, "duration": 291}, {"note": 0, "velocity": 0, "duration": 189}, {"note": 72, "velocity": 122, "duration": 66}, {"note": 72, "velocity": 99, "duration": 186}, {"note": 69, "velocity": 95, "duration": 85}, {"note": 72, "velocity": 122, "duration": 151}, {"note": 0, "velocity": 0, "duration": 89}, {"note": 79, "velocity": 117, "duration": 259}, {"note": 77, "velocity": 117, "duration": 219}, {"note": 0, "velocity": 0, "duration": 261}, {"note": 72, "velocity": 127, "duration": 60}, {"note": 72, "velocity": 102, "duration": 172}, {"note": 0, "velocity": 0, "duration": 68}, {"note": 69, "velocity": 112, "duration": 74}, {"note": 72, "velocity": 127, "duration": 109}, {"note": 79, "velocity": 127, "duration": 96}, {"note": 0, "velocity": 0, "duration": 144}, {"note": 79, "velocity": 127, "duration": 197}, {"note": 0, "velocity": 0, "duration": 283}, {"note": 79, "velocity": 102, "duration": 46}, {"note": 0, "velocity": 0, "duration": 74}, {"note": 81, "velocity": 117, "duration": 125}, {"note": 79, "velocity": 99, "duration": 106}, {"note": 77, "velocity": 127, "duration": 168}, {"note": 0, "velocity": 0, "duration": 72}, {"note": 79, "velocity": 127, "duration": 170}, {"note": 0, "velocity": 0, "duration": 70}, {"note": 79, "velocity": 127, "duration": 100}, {"note": 77, "velocity": 89, "duration": 116}, {"note": 76, "velocity": 100, "duration": 320}, {"note": 76, "velocity": 117, "duration": 93}, {"note": 74, "velocity": 122, "duration": 128}, {"note": 0, "velocity": 0, "duration": 112}, {"note": 76, "velocity": 127, "duration": 82}, {"note": 79, "velocity": 127, "duration": 217}, {"note": 0, "velocity": 0, "duration": 143}, {"note": 72, "velocity": 112, "duration": 480}, {"note": 0, "velocity": 0, "duration": 120}, {"note": 72, "velocity": 100, "duration": 53}, {"note": 0, "velocity": 0, "duration": 67}, {"note": 72, "velocity": 122, "duration": 87}, {"note": 0, "velocity": 0, "duration": 153}, {"note": 69, "velocity": 112, "duration": 84}, {"note": 72, "velocity": 127, "duration": 151}, {"note": 0, "velocity": 0, "duration": 89}, {"note": 79, "velocity": 127, "duration": 153}, {"note": 0, "velocity": 0, "duration": 87}, {"note": 79, "velocity": 122, "duration": 515}, {"note": 72, "velocity": 102, "duration": 50}, {"note": 0, "velocity": 0, "duration": 70}, {"note": 72, "velocity": 122, "duration": 94}, {"note": 0, "velocity": 0, "duration": 146}, {"note": 69, "velocity": 107, "duration": 105}, {"note": 72, "velocity": 127, "duration": 144}, {"note": 0, "velocity": 0, "duration": 96}, {"note": 79, "velocity": 127, "duration": 128}, {"note": 0, "velocity": 0, "duration": 112}, {"note": 81, "velocity": 127, "duration": 1067}, {"note": 0, "velocity": 0, "duration": 133}, {"note": 81, "velocity": 127, "duration": 176}, {"note": 0, "velocity": 0, "duration": 64}, {"note": 79, "velocity": 127, "duration": 1649}, {"note": 0, "velocity": 0, "duration": 2191}, {"note": 76, "velocity": 107, "duration": 121}, {"note": 0, "velocity": 0, "duration": 119}, {"note": 72, "velocity": 97, "duration": 101}, {"note": 79, "velocity": 117, "duration": 159}, {"note": 0, "velocity": 0, "duration": 81}, {"note": 76, "velocity": 99, "duration": 203}, {"note": 84, "velocity": 127, "duration": 225}, {"note": 83, "velocity": 102, "duration": 192}, {"note": 79, "velocity": 117, "duration": 671}, {"note": 79, "velocity": 100, "duration": 48}, {"note": 0, "velocity": 0, "duration": 72}, {"note": 79, "velocity": 96, "duration": 90}, {"note": 84, "velocity": 127, "duration": 157}, {"note": 0, "velocity": 0, "duration": 83}, {"note": 83, "velocity": 112, "duration": 64}, {"note": 79, "velocity": 99, "duration": 113}, {"note": 0, "velocity": 0, "duration": 127}, {"note": 76, "velocity": 107, "duration": 358}, {"note": 74, "velocity": 97, "duration": 623}, {"note": 0, "velocity": 0, "duration": 97}, {"note": 69, "velocity": 96, "duration": 114}, {"note": 72, "velocity": 90, "duration": 111}, {"note": 77, "velocity": 100, "duration": 171}, {"note": 0, "velocity": 0, "duration": 69}, {"note": 76, "velocity": 97, "duration": 63}, {"note": 77, "velocity": 122, "duration": 141}, {"note": 0, "velocity": 0, "duration": 99}, {"note": 79, "velocity": 96, "duration": 274}, {"note": 0, "velocity": 0, "duration": 86}, {"note": 80, "velocity": 122, "duration": 243}, {"note": 79, "velocity": 122, "duration": 138}, {"note": 0, "velocity": 0, "duration": 102}, {"note": 77, "velocity": 117, "duration": 200}, {"note": 79, "velocity": 100, "duration": 130}, {"note": 0, "velocity": 0, "duration": 110}, {"note": 72, "velocity": 100, "duration": 227}, {"note": 74, "velocity": 100, "duration": 52}, {"note": 0, "velocity": 0, "duration": 68}, {"note": 76, "velocity": 122, "duration": 179}, {"note": 0, "velocity": 0, "duration": 61}, {"note": 74, "velocity": 122, "duration": 504}, {"note": 0, "velocity": 0, "duration": 456}, {"note": 76, "velocity": 107, "duration": 121}, {"note": 0, "velocity": 0, "duration": 119}, {"note": 72, "velocity": 97, "duration": 101}, {"note": 79, "velocity": 117, "duration": 159}, {"note": 0, "velocity": 0, "duration": 81}, {"note": 76, "velocity": 99, "duration": 203}, {"note": 84, "velocity": 127, "duration": 225}, {"note": 83, "velocity": 102, "duration": 192}, {"note": 79, "velocity": 117, "duration": 671}, {"note": 76, "velocity": 97, "duration": 115}, {"note": 79, "velocity": 97, "duration": 113}, {"note": 84, "velocity": 127, "duration": 157}, {"note": 0, "velocity": 0, "duration": 83}, {"note": 83, "velocity": 112, "duration": 64}, {"note": 79, "velocity": 99, "duration": 113}, {"note": 0, "velocity": 0, "duration": 127}, {"note": 76, "velocity": 107, "duration": 358}, {"note": 79, "velocity": 127, "duration": 550}, {"note": 0, "velocity": 0, "duration": 170}, {"note": 77, "velocity": 122, "duration": 130}, {"note": 0, "velocity": 0, "duration": 110}, {"note": 74, "velocity": 117, "duration": 216}, {"note": 72, "velocity": 88, "duration": 237}, {"note": 0, "velocity": 0, "duration": 243}, {"note": 72, "velocity": 95, "duration": 51}, {"note": 0, "velocity": 0, "duration": 69}, {"note": 72, "velocity": 89, "duration": 65}, {"note": 77, "velocity": 117, "duration": 125}, {"note": 0, "velocity": 0, "duration": 115}, {"note": 76, "velocity": 112, "duration": 50}, {"note": 0, "velocity": 0, "duration": 70}, {"note": 77, "velocity": 122, "duration": 191}, {"note": 79, "velocity": 107, "duration": 151}, {"note": 0, "velocity": 0, "duration": 209}, {"note": 81, "velocity": 122, "duration": 210}, {"note": 72, "velocity": 107, "duration": 161}, {"note": 0, "velocity": 0, "duration": 79}, {"note": 72, "velocity": 112, "duration": 90}, {"note": 74, "velocity": 112, "duration": 324}, {"note": 72, "velocity": 107, "duration": 480}]]