[[{"note": 69, "velocity": 99, "duration": 240}, {"note": 71, "velocity": 93, "duration": 240}, {"note": 78, "velocity": 112, "duration": 960}, {"note": 71, "velocity": 112, "duration": 240}, {"note": 69, "velocity": 96, "duration": 1200}, {"note": 66, "velocity": 107, "duration": 240}, {"note": 69, "velocity": 97, "duration": 246}, {"note": 76, "velocity": 99, "duration": 960}, {"note": 69, "velocity": 95, "duration": 240}, {"note": 71, "velocity": 100, "duration": 1200}, {"note": 69, "velocity": 100, "duration": 240}, {"note": 71, "velocity": 100, "duration": 240}, {"note": 78, "velocity": 95, "duration": 239}, {"note": 78, "velocity": 122, "duration": 239}, {"note": 78, "velocity": 117, "duration": 239}, {"note": 78, "velocity": 122, "duration": 240}, {"note": 71, "velocity": 117, "duration": 240}, {"note": 69, "velocity": 99, "duration": 960}, {"note": 71, "velocity": 112, "duration": 245}, {"note": 69, "velocity": 96, "duration": 240}, {"note": 66, "velocity": 99, "duration": 2640}, {"note": 69, "velocity": 99, "duration": 240}, {"note": 71, "velocity": 93, "duration": 240}, {"note": 78, "velocity": 112, "duration": 960}, {"note": 71, "velocity": 112, "duration": 240}, {"note": 69, "velocity": 96, "duration": 1200}, {"note": 66, "velocity": 107, "duration": 240}, {"note": 69, "velocity": 97, "duration": 246}, {"note": 76, "velocity": 99, "duration": 239}, {"note": 76, "velocity": 122, "duration": 720}, {"note": 69, "velocity": 95, "duration": 240}, {"note": 71, "velocity": 100, "duration": 1200}, {"note": 69, "velocity": 100, "duration": 240}, {"note": 71, "velocity": 100, "duration": 240}, {"note": 78, "velocity": 95, "duration": 239}, {"note": 78, "velocity": 122, "duration": 239}, {"note": 78, "velocity": 117, "duration": 239}, {"note": 78, "velocity": 122, "duration": 240}, {"note": 71, "velocity": 117, "duration": 240}, {"note": 69, "velocity": 112, "duration": 480}, {"note": 71, "velocity": 127, "duration": 720}, {"note": 74, "velocity": 127, "duration": 480}, {"note": 71, "velocity": 112, "duration": 2159}, {"note": 71, "velocity": 117, "duration": 240}, {"note": 73, "velocity": 127, "duration": 240}, {"note": 74, "velocity": 117, "duration": 240}, {"note": 71, "velocity": 107, "duration": 240}, {"note": 74, "velocity": 122, "duration": 240}, {"note": 71, "velocity": 127, "duration": 240}, {"note": 74, "velocity": 127, "duration": 240}, {"note": 71, "velocity": 117, "duration": 240}, {"note": 74, "velocity": 127, "duration": 240}, {"note": 76, "velocity": 127, "duration": 239}, {"note": 76, "velocity": 127, "duration": 720}, {"note": 78, "velocity": 127, "duration": 240}, {"note": 69, "velocity": 117, "duration": 240}, {"note": 66, "velocity": 127, "duration": 240}, {"note": 69, "velocity": 122, "duration": 240}, {"note": 66, "velocity": 122, "duration": 240}, {"note": 69, "velocity": 117, "duration": 240}, {"note": 66, "velocity": 127, "duration": 240}, {"note": 69, "velocity": 127, "duration": 240}, {"note": 71, "velocity": 112, "duration": 239}, {"note": 71, "velocity": 127, "duration": 719}, {"note": 71, "velocity": 107, "duration": 240}, {"note": 74, "velocity": 127, "duration": 240}, {"note": 71, "velocity": 107, "duration": 240}, {"note": 74, "velocity": 127, "duration": 240}, {"note": 71, "velocity": 117, "duration": 240}, {"note": 74, "velocity": 127, "duration": 240}, {"note": 71, "velocity": 117, "duration": 240}, {"note": 74, "velocity": 127, "duration": 240}, {"note": 76, "velocity": 100, "duration": 239}, {"note": 76, "velocity": 127, "duration": 480}, {"note": 69, "velocity": 112, "duration": 239}, {"note": 69, "velocity": 112, "duration": 240}, {"note": 79, "velocity": 127, "duration": 480}, {"note": 78, "velocity": 127, "duration": 480}, {"note": 76, "velocity": 107, "duration": 240}, {"note": 79, "velocity": 102, "duration": 240}, {"note": 78, "velocity": 127, "duration": 1200}, {"note": 71, "velocity": 112, "duration": 240}, {"note": 74, "velocity": 127, "duration": 240}, {"note": 71, "velocity": 112, "duration": 240}, {"note": 74, "velocity": 127, "duration": 240}, {"note": 71, "velocity": 127, "duration": 240}, {"note": 74, "velocity": 127, "duration": 240}, {"note": 71, "velocity": 117, "duration": 240}, {"note": 74, "velocity": 122, "duration": 240}, {"note": 76, "velocity": 127, "duration": 239}, {"note": 76, "velocity": 127, "duration": 720}, {"note": 78, "velocity": 127, "duration": 240}, {"note": 69, "velocity": 117, "duration": 240}, {"note": 66, "velocity": 122, "duration": 240}, {"note": 69, "velocity": 117, "duration": 240}, {"note": 66, "velocity": 127, "duration": 240}, {"note": 69, "velocity": 122, "duration": 240}, {"note": 66, "velocity": 127, "duration": 240}, {"note": 69, "velocity": 127, "duration": 240}, {"note": 71, "velocity": 127, "duration": 239}, {"note": 71, "velocity": 122, "duration": 719}, {"note": 71, "velocity": 112, "duration": 240}, {"note": 74, "velocity": 127, "duration": 240}, {"note": 71, "velocity": 112, "duration": 240}, {"note": 74, "velocity": 127, "duration": 240}, {"note": 71, "velocity": 117, "duration": 240}, {"note": 74, "velocity": 127, "duration": 240}, {"note": 71, "velocity": 112, "duration": 240}, {"note": 74, "velocity": 122, "duration": 480}, {"note": 73, "velocity": 127, "duration": 755}, {"note": 74, "velocity": 117, "duration": 480}, {"note": 71, "velocity": 99, "duration": 2400}, {"note": 69, "velocity": 99, "duration": 240}, {"note": 71, "velocity": 93, "duration": 240}, {"note": 78, "velocity": 112, "duration": 960}, {"note": 71, "velocity": 112, "duration": 240}, {"note": 69, "velocity": 96, "duration": 1200}, {"note": 66, "velocity": 107, "duration": 240}, {"note": 69, "velocity": 97, "duration": 246}, {"note": 76, "velocity": 99, "duration": 960}, {"note": 69, "velocity": 95, "duration": 240}, {"note": 71, "velocity": 100, "duration": 1200}, {"note": 69, "velocity": 100, "duration": 240}, {"note": 71, "velocity": 100, "duration": 240}, {"note": 78, "velocity": 95, "duration": 239}, {"note": 78, "velocity": 122, "duration": 239}, {"note": 78, "velocity": 117, "duration": 239}, {"note": 78, "velocity": 122, "duration": 240}, {"note": 71, "velocity": 117, "duration": 240}, {"note": 69, "velocity": 99, "duration": 480}, {"note": 71, "velocity": 117, "duration": 720}, {"note": 74, "velocity": 127, "duration": 480}, {"note": 71, "velocity": 112, "duration": 1907}, {"note": 0, "velocity": 0, "duration": 13453}, {"note": 69, "velocity": 99, "duration": 240}, {"note": 71, "velocity": 93, "duration": 240}, {"note": 78, "velocity": 112, "duration": 960}, {"note": 71, "velocity": 112, "duration": 240}, {"note": 69, "velocity": 96, "duration": 1200}, {"note": 66, "velocity": 107, "duration": 240}, {"note": 69, "velocity": 97, "duration": 246}, {"note": 76, "velocity": 99, "duration": 239}, {"note": 76, "velocity": 122, "duration": 720}, {"note": 69, "velocity": 95, "duration": 240}, {"note": 71, "velocity": 100, "duration": 1200}, {"note": 69, "velocity": 100, "duration": 240}, {"note": 71, "velocity": 100, "duration": 240}, {"note": 78, "velocity": 95, "duration": 239}, {"note": 78, "velocity": 122, "duration": 239}, {"note": 78, "velocity": 117, "duration": 239}, {"note": 78, "velocity": 122, "duration": 240}, {"note": 71, "velocity": 117, "duration": 240}, {"note": 69, "velocity": 112, "duration": 480}, {"note": 71, "velocity": 127, "duration": 720}, {"note": 74, "velocity": 127, "duration": 480}, {"note": 71, "velocity": 112, "duration": 2159}, {"note": 71, "velocity": 117, "duration": 240}, {"note": 73, "velocity": 127, "duration": 240}, {"note": 74, "velocity": 117, "duration": 240}, {"note": 71, "velocity": 107, "duration": 240}, {"note": 74, "velocity": 122, "duration": 240}, {"note": 71, "velocity": 127, "duration": 240}, {"note": 74, "velocity": 127, "duration": 240}, {"note": 71, "velocity": 117, "duration": 240}, {"note": 74, "velocity": 127, "duration": 240}, {"note": 76, "velocity": 127, "duration": 239}, {"note": 76, "velocity": 127, "duration": 720}, {"note": 78, "velocity": 127, "duration": 240}, {"note": 69, "velocity": 117, "duration": 240}, {"note": 66, "velocity": 127, "duration": 240}, {"note": 69, "velocity": 122, "duration": 240}, {"note": 66, "velocity": 122, "duration": 240}, {"note": 69, "velocity": 117, "duration": 240}, {"note": 66, "velocity": 127, "duration": 240}, {"note": 69, "velocity": 127, "duration": 240}, {"note": 71, "velocity": 112, "duration": 239}, {"note": 71, "velocity": 127, "duration": 719}, {"note": 71, "velocity": 107, "duration": 240}, {"note": 74, "velocity": 127, "duration": 240}, {"note": 71, "velocity": 107, "duration": 240}, {"note": 74, "velocity": 127, "duration": 240}, {"note": 71, "velocity": 117, "duration": 240}, {"note": 74, "velocity": 127, "duration": 240}, {"note": 71, "velocity": 117, "duration": 240}, {"note": 74, "velocity": 127, "duration": 240}, {"note": 76, "velocity": 100, "duration": 239}, {"note": 76, "velocity": 127, "duration": 480}, {"note": 69, "velocity": 112, "duration": 239}, {"note": 69, "velocity": 112, "duration": 240}, {"note": 79, "velocity": 127, "duration": 480}, {"note": 78, "velocity": 127, "duration": 480}, {"note": 76, "velocity": 107, "duration": 240}, {"note": 79, "velocity": 102, "duration": 240}, {"note": 78, "velocity": 127, "duration": 1200}, {"note": 71, "velocity": 112, "duration": 240}, {"note": 74, "velocity": 127, "duration": 240}, {"note": 71, "velocity": 112, "duration": 240}, {"note": 74, "velocity": 127, "duration": 240}, {"note": 71, "velocity": 127, "duration": 240}, {"note": 74, "velocity": 127, "duration": 240}, {"note": 71, "velocity": 117, "duration": 240}, {"note": 74, "velocity": 122, "duration": 240}, {"note": 76, "velocity": 127, "duration": 239}, {"note": 76, "velocity": 127, "duration": 720}, {"note": 78, "velocity": 127, "duration": 240}, {"note": 69, "velocity": 117, "duration": 240}, {"note": 66, "velocity": 122, "duration": 240}, {"note": 69, "velocity": 117, "duration": 240}, {"note": 66, "velocity": 127, "duration": 240}, {"note": 69, "velocity": 122, "duration": 240}, {"note": 66, "velocity": 127, "duration": 240}, {"note": 69, "velocity": 127, "duration": 240}, {"note": 71, "velocity": 127, "duration": 239}, {"note": 71, "velocity": 122, "duration": 719}, {"note": 71, "velocity": 112, "duration": 240}, {"note": 74, "velocity": 127, "duration": 240}, {"note": 71, "velocity": 112, "duration": 240}, {"note": 74, "velocity": 127, "duration": 240}, {"note": 71, "velocity": 117, "duration": 240}, {"note": 74, "velocity": 127, "duration": 240}, {"note": 71, "velocity": 112, "duration": 240}, {"note": 74, "velocity": 122, "duration": 480}, {"note": 73, "velocity": 127, "duration": 755}, {"note": 74, "velocity": 117, "duration": 480}, {"note": 71, "velocity": 99, "duration": 2640}, {"note": 74, "velocity": 117, "duration": 240}, {"note": 71, "velocity": 107, "duration": 240}, {"note": 74, "velocity": 122, "duration": 240}, {"note": 71, "velocity": 127, "duration": 240}, {"note": 74, "velocity": 127, "duration": 240}, {"note": 71, "velocity": 117, "duration": 240}, {"note": 74, "velocity": 127, "duration": 240}, {"note": 76, "velocity": 127, "duration": 239}, {"note": 76, "velocity": 127, "duration": 720}, {"note": 78, "velocity": 127, "duration": 240}, {"note": 69, "velocity": 117, "duration": 240}, {"note": 66, "velocity": 127, "duration": 240}, {"note": 69, "velocity": 122, "duration": 240}, {"note": 66, "velocity": 122, "duration": 240}, {"note": 69, "velocity": 117, "duration": 240}, {"note": 66, "velocity": 127, "duration": 240}, {"note": 69, "velocity": 127, "duration": 240}, {"note": 71, "velocity": 112, "duration": 239}, {"note": 71, "velocity": 127, "duration": 719}, {"note": 71, "velocity": 107, "duration": 240}, {"note": 74, "velocity": 127, "duration": 240}, {"note": 71, "velocity": 107, "duration": 240}, {"note": 74, "velocity": 127, "duration": 240}, {"note": 71, "velocity": 117, "duration": 240}, {"note": 74, "velocity": 127, "duration": 240}, {"note": 71, "velocity": 117, "duration": 240}, {"note": 74, "velocity": 127, "duration": 240}, {"note": 76, "velocity": 100, "duration": 239}, {"note": 76, "velocity": 127, "duration": 480}, {"note": 69, "velocity": 112, "duration": 239}, {"note": 69, "velocity": 112, "duration": 240}, {"note": 79, "velocity": 127, "duration": 480}, {"note": 78, "velocity": 127, "duration": 480}, {"note": 76, "velocity": 107, "duration": 240}, {"note": 79, "velocity": 102, "duration": 240}, {"note": 78, "velocity": 127, "duration": 1200}, {"note": 71, "velocity": 112, "duration": 240}, {"note": 74, "velocity": 127, "duration": 240}, {"note": 71, "velocity": 112, "duration": 240}, {"note": 74, "velocity": 127, "duration": 240}, {"note": 71, "velocity": 127, "duration": 240}, {"note": 74, "velocity": 127, "duration": 240}, {"note": 71, "velocity": 117, "duration": 240}, {"note": 74, "velocity": 122, "duration": 240}, {"note": 76, "velocity": 127, "duration": 239}, {"note": 76, "velocity": 127, "duration": 720}, {"note": 78, "velocity": 127, "duration": 240}, {"note": 69, "velocity": 117, "duration": 240}, {"note": 66, "velocity": 122, "duration": 240}, {"note": 69, "velocity": 117, "duration": 240}, {"note": 66, "velocity": 127, "duration": 240}, {"note": 69, "velocity": 122, "duration": 240}, {"note": 66, "velocity": 127, "duration": 240}, {"note": 69, "velocity": 127, "duration": 240}, {"note": 71, "velocity": 127, "duration": 239}, {"note": 71, "velocity": 122, "duration": 719}, {"note": 71, "velocity": 112, "duration": 240}, {"note": 74, "velocity": 127, "duration": 240}, {"note": 71, "velocity": 112, "duration": 240}, {"note": 74, "velocity": 127, "duration": 240}, {"note": 71, "velocity": 117, "duration": 240}, {"note": 74, "velocity": 127, "duration": 240}, {"note": 71, "velocity": 112, "duration": 240}, {"note": 74, "velocity": 122, "duration": 480}, {"note": 73, "velocity": 127, "duration": 755}, {"note": 74, "velocity": 117, "duration": 480}, {"note": 71, "velocity": 99, "duration": 2397}, {"note": 69, "velocity": 99, "duration": 240}, {"note": 71, "velocity": 93, "duration": 240}, {"note": 78, "velocity": 112, "duration": 960}, {"note": 71, "velocity": 112, "duration": 240}, {"note": 69, "velocity": 96, "duration": 1200}, {"note": 66, "velocity": 107, "duration": 240}, {"note": 69, "velocity": 97, "duration": 247}, {"note": 76, "velocity": 99, "duration": 960}, {"note": 69, "velocity": 95, "duration": 240}, {"note": 71, "velocity": 100, "duration": 1200}, {"note": 69, "velocity": 100, "duration": 240}, {"note": 71, "velocity": 100, "duration": 240}, {"note": 78, "velocity": 95, "duration": 239}, {"note": 78, "velocity": 122, "duration": 239}, {"note": 78, "velocity": 117, "duration": 239}, {"note": 78, "velocity": 122, "duration": 240}, {"note": 71, "velocity": 117, "duration": 240}, {"note": 69, "velocity": 99, "duration": 480}, {"note": 71, "velocity": 117, "duration": 720}, {"note": 74, "velocity": 127, "duration": 480}, {"note": 71, "velocity": 112, "duration": 2400}, {"note": 69, "velocity": 100, "duration": 240}, {"note": 71, "velocity": 100, "duration": 240}, {"note": 78, "velocity": 95, "duration": 239}, {"note": 78, "velocity": 122, "duration": 239}, {"note": 78, "velocity": 117, "duration": 239}, {"note": 78, "velocity": 122, "duration": 240}, {"note": 71, "velocity": 117, "duration": 240}, {"note": 69, "velocity": 99, "duration": 480}, {"note": 71, "velocity": 117, "duration": 720}, {"note": 74, "velocity": 127, "duration": 480}, {"note": 71, "velocity": 112, "duration": 1910}]]