[[{"note": 61, "velocity": 122, "duration": 112}, {"note": 59, "velocity": 71, "duration": 143}, {"note": 61, "velocity": 95, "duration": 89}, {"note": 61, "velocity": 96, "duration": 152}, {"note": 0, "velocity": 0, "duration": 88}, {"note": 59, "velocity": 95, "duration": 139}, {"note": 61, "velocity": 102, "duration": 81}, {"note": 61, "velocity": 107, "duration": 169}, {"note": 0, "velocity": 0, "duration": 71}, {"note": 57, "velocity": 100, "duration": 355}, {"note": 64, "velocity": 112, "duration": 60}, {"note": 64, "velocity": 95, "duration": 120}, {"note": 61, "velocity": 90, "duration": 1116}, {"note": 0, "velocity": 0, "duration": 1044}, {"note": 61, "velocity": 117, "duration": 116}, {"note": 59, "velocity": 67, "duration": 118}, {"note": 61, "velocity": 112, "duration": 150}, {"note": 0, "velocity": 0, "duration": 90}, {"note": 59, "velocity": 96, "duration": 74}, {"note": 61, "velocity": 107, "duration": 190}, {"note": 61, "velocity": 112, "duration": 213}, {"note": 0, "velocity": 0, "duration": 147}, {"note": 61, "velocity": 127, "duration": 168}, {"note": 0, "velocity": 0, "duration": 72}, {"note": 59, "velocity": 107, "duration": 110}, {"note": 61, "velocity": 102, "duration": 236}, {"note": 0, "velocity": 0, "duration": 124}, {"note": 52, "velocity": 97, "duration": 1175}, {"note": 0, "velocity": 0, "duration": 745}, {"note": 66, "velocity": 117, "duration": 112}, {"note": 64, "velocity": 68, "duration": 90}, {"note": 66, "velocity": 122, "duration": 144}, {"note": 0, "velocity": 0, "duration": 96}, {"note": 64, "velocity": 100, "duration": 80}, {"note": 66, "velocity": 122, "duration": 203}, {"note": 69, "velocity": 112, "duration": 164}, {"note": 0, "velocity": 0, "duration": 76}, {"note": 69, "velocity": 117, "duration": 112}, {"note": 69, "velocity": 127, "duration": 63}, {"note": 69, "velocity": 117, "duration": 153}, {"note": 0, "velocity": 0, "duration": 87}, {"note": 61, "velocity": 92, "duration": 84}, {"note": 61, "velocity": 73, "duration": 234}, {"note": 64, "velocity": 102, "duration": 363}, {"note": 0, "velocity": 0, "duration": 1557}, {"note": 59, "velocity": 93, "duration": 58}, {"note": 0, "velocity": 0, "duration": 62}, {"note": 59, "velocity": 72, "duration": 56}, {"note": 0, "velocity": 0, "duration": 64}, {"note": 59, "velocity": 97, "duration": 137}, {"note": 61, "velocity": 112, "duration": 138}, {"note": 64, "velocity": 99, "duration": 181}, {"note": 64, "velocity": 122, "duration": 303}, {"note": 0, "velocity": 0, "duration": 417}, {"note": 59, "velocity": 99, "duration": 130}, {"note": 61, "velocity": 86, "duration": 164}, {"note": 57, "velocity": 92, "duration": 1426}, {"note": 0, "velocity": 0, "duration": 734}, {"note": 61, "velocity": 122, "duration": 112}, {"note": 59, "velocity": 71, "duration": 143}, {"note": 61, "velocity": 95, "duration": 327}, {"note": 59, "velocity": 95, "duration": 139}, {"note": 61, "velocity": 102, "duration": 81}, {"note": 0, "velocity": 0, "duration": 159}, {"note": 61, "velocity": 127, "duration": 51}, {"note": 0, "velocity": 0, "duration": 69}, {"note": 61, "velocity": 99, "duration": 50}, {"note": 0, "velocity": 0, "duration": 70}, {"note": 61, "velocity": 127, "duration": 152}, {"note": 0, "velocity": 0, "duration": 88}, {"note": 59, "velocity": 127, "duration": 95}, {"note": 57, "velocity": 97, "duration": 145}, {"note": 64, "velocity": 117, "duration": 262}, {"note": 61, "velocity": 117, "duration": 1134}, {"note": 0, "velocity": 0, "duration": 786}, {"note": 61, "velocity": 117, "duration": 116}, {"note": 59, "velocity": 67, "duration": 118}, {"note": 61, "velocity": 112, "duration": 150}, {"note": 0, "velocity": 0, "duration": 90}, {"note": 59, "velocity": 96, "duration": 74}, {"note": 61, "velocity": 107, "duration": 190}, {"note": 61, "velocity": 112, "duration": 213}, {"note": 0, "velocity": 0, "duration": 147}, {"note": 61, "velocity": 127, "duration": 168}, {"note": 0, "velocity": 0, "duration": 72}, {"note": 59, "velocity": 107, "duration": 110}, {"note": 61, "velocity": 102, "duration": 236}, {"note": 0, "velocity": 0, "duration": 124}, {"note": 52, "velocity": 97, "duration": 1175}, {"note": 0, "velocity": 0, "duration": 745}, {"note": 66, "velocity": 117, "duration": 112}, {"note": 64, "velocity": 68, "duration": 90}, {"note": 66, "velocity": 122, "duration": 144}, {"note": 0, "velocity": 0, "duration": 96}, {"note": 69, "velocity": 127, "duration": 69}, {"note": 69, "velocity": 122, "duration": 155}, {"note": 0, "velocity": 0, "duration": 205}, {"note": 69, "velocity": 117, "duration": 160}, {"note": 0, "velocity": 0, "duration": 80}, {"note": 69, "velocity": 127, "duration": 140}, {"note": 0, "velocity": 0, "duration": 100}, {"note": 61, "velocity": 92, "duration": 84}, {"note": 61, "velocity": 73, "duration": 384}, {"note": 64, "velocity": 102, "duration": 872}, {"note": 0, "velocity": 0, "duration": 1048}, {"note": 59, "velocity": 93, "duration": 58}, {"note": 0, "velocity": 0, "duration": 62}, {"note": 59, "velocity": 72, "duration": 56}, {"note": 0, "velocity": 0, "duration": 64}, {"note": 59, "velocity": 97, "duration": 137}, {"note": 61, "velocity": 112, "duration": 138}, {"note": 0, "velocity": 0, "duration": 102}, {"note": 61, "velocity": 112, "duration": 136}, {"note": 0, "velocity": 0, "duration": 104}, {"note": 64, "velocity": 112, "duration": 107}, {"note": 64, "velocity": 99, "duration": 215}, {"note": 0, "velocity": 0, "duration": 145}, {"note": 61, "velocity": 117, "duration": 314}, {"note": 57, "velocity": 90, "duration": 1257}, {"note": 0, "velocity": 0, "duration": 903}, {"note": 69, "velocity": 117, "duration": 109}, {"note": 66, "velocity": 97, "duration": 118}, {"note": 69, "velocity": 112, "duration": 92}, {"note": 69, "velocity": 112, "duration": 126}, {"note": 0, "velocity": 0, "duration": 114}, {"note": 69, "velocity": 112, "duration": 66}, {"note": 69, "velocity": 127, "duration": 133}, {"note": 0, "velocity": 0, "duration": 107}, {"note": 69, "velocity": 127, "duration": 57}, {"note": 0, "velocity": 0, "duration": 63}, {"note": 69, "velocity": 122, "duration": 182}, {"note": 0, "velocity": 0, "duration": 178}, {"note": 66, "velocity": 127, "duration": 235}, {"note": 64, "velocity": 117, "duration": 1027}, {"note": 0, "velocity": 0, "duration": 1133}, {"note": 69, "velocity": 112, "duration": 112}, {"note": 66, "velocity": 96, "duration": 126}, {"note": 69, "velocity": 102, "duration": 70}, {"note": 69, "velocity": 122, "duration": 137}, {"note": 0, "velocity": 0, "duration": 103}, {"note": 69, "velocity": 127, "duration": 144}, {"note": 0, "velocity": 0, "duration": 96}, {"note": 69, "velocity": 127, "duration": 278}, {"note": 0, "velocity": 0, "duration": 82}, {"note": 69, "velocity": 112, "duration": 77}, {"note": 69, "velocity": 100, "duration": 153}, {"note": 0, "velocity": 0, "duration": 87}, {"note": 61, "velocity": 96, "duration": 67}, {"note": 61, "velocity": 112, "duration": 233}, {"note": 64, "velocity": 99, "duration": 899}, {"note": 0, "velocity": 0, "duration": 1021}, {"note": 69, "velocity": 112, "duration": 116}, {"note": 66, "velocity": 92, "duration": 113}, {"note": 69, "velocity": 102, "duration": 95}, {"note": 69, "velocity": 112, "duration": 118}, {"note": 0, "velocity": 0, "duration": 122}, {"note": 69, "velocity": 100, "duration": 71}, {"note": 69, "velocity": 122, "duration": 88}, {"note": 73, "velocity": 127, "duration": 148}, {"note": 0, "velocity": 0, "duration": 92}, {"note": 73, "velocity": 127, "duration": 325}, {"note": 66, "velocity": 122, "duration": 238}, {"note": 64, "velocity": 117, "duration": 1199}, {"note": 0, "velocity": 0, "duration": 961}, {"note": 59, "velocity": 107, "duration": 48}, {"note": 0, "velocity": 0, "duration": 72}, {"note": 59, "velocity": 96, "duration": 51}, {"note": 0, "velocity": 0, "duration": 69}, {"note": 59, "velocity": 100, "duration": 148}, {"note": 61, "velocity": 117, "duration": 127}, {"note": 0, "velocity": 0, "duration": 113}, {"note": 61, "velocity": 112, "duration": 102}, {"note": 64, "velocity": 107, "duration": 91}, {"note": 64, "velocity": 112, "duration": 134}, {"note": 0, "velocity": 0, "duration": 226}, {"note": 61, "velocity": 127, "duration": 187}, {"note": 59, "velocity": 102, "duration": 111}, {"note": 61, "velocity": 107, "duration": 258}, {"note": 57, "velocity": 97, "duration": 1533}, {"note": 0, "velocity": 0, "duration": 507}, {"note": 61, "velocity": 122, "duration": 112}, {"note": 59, "velocity": 71, "duration": 143}, {"note": 61, "velocity": 95, "duration": 89}, {"note": 61, "velocity": 96, "duration": 152}, {"note": 0, "velocity": 0, "duration": 88}, {"note": 61, "velocity": 122, "duration": 56}, {"note": 0, "velocity": 0, "duration": 64}, {"note": 61, "velocity": 117, "duration": 133}, {"note": 0, "velocity": 0, "duration": 347}, {"note": 61, "velocity": 122, "duration": 236}, {"note": 57, "velocity": 93, "duration": 80}, {"note": 64, "velocity": 122, "duration": 163}, {"note": 0, "velocity": 0, "duration": 197}, {"note": 61, "velocity": 117, "duration": 1085}, {"note": 0, "velocity": 0, "duration": 835}, {"note": 61, "velocity": 117, "duration": 116}, {"note": 59, "velocity": 67, "duration": 118}, {"note": 61, "velocity": 112, "duration": 150}, {"note": 0, "velocity": 0, "duration": 90}, {"note": 59, "velocity": 96, "duration": 74}, {"note": 61, "velocity": 107, "duration": 190}, {"note": 61, "velocity": 112, "duration": 213}, {"note": 52, "velocity": 97, "duration": 116}, {"note": 61, "velocity": 127, "duration": 168}, {"note": 0, "velocity": 0, "duration": 72}, {"note": 59, "velocity": 107, "duration": 110}, {"note": 61, "velocity": 102, "duration": 236}, {"note": 0, "velocity": 0, "duration": 124}, {"note": 52, "velocity": 97, "duration": 1175}, {"note": 0, "velocity": 0, "duration": 745}, {"note": 66, "velocity": 117, "duration": 112}, {"note": 64, "velocity": 68, "duration": 90}, {"note": 66, "velocity": 122, "duration": 144}, {"note": 0, "velocity": 0, "duration": 96}, {"note": 69, "velocity": 112, "duration": 57}, {"note": 0, "velocity": 0, "duration": 63}, {"note": 69, "velocity": 107, "duration": 192}, {"note": 0, "velocity": 0, "duration": 168}, {"note": 69, "velocity": 112, "duration": 56}, {"note": 0, "velocity": 0, "duration": 64}, {"note": 69, "velocity": 97, "duration": 57}, {"note": 0, "velocity": 0, "duration": 63}, {"note": 69, "velocity": 122, "duration": 117}, {"note": 69, "velocity": 127, "duration": 68}, {"note": 0, "velocity": 0, "duration": 172}, {"note": 61, "velocity": 92, "duration": 84}, {"note": 61, "velocity": 73, "duration": 234}, {"note": 64, "velocity": 102, "duration": 1437}, {"note": 0, "velocity": 0, "duration": 483}, {"note": 59, "velocity": 93, "duration": 58}, {"note": 0, "velocity": 0, "duration": 62}, {"note": 59, "velocity": 72, "duration": 56}, {"note": 0, "velocity": 0, "duration": 64}, {"note": 59, "velocity": 97, "duration": 137}, {"note": 0, "velocity": 0, "duration": 103}, {"note": 61, "velocity": 112, "duration": 144}, {"note": 64, "velocity": 112, "duration": 174}, {"note": 0, "velocity": 0, "duration": 186}, {"note": 64, "velocity": 127, "duration": 98}, {"note": 0, "velocity": 0, "duration": 142}, {"note": 61, "velocity": 122, "duration": 219}, {"note": 59, "velocity": 99, "duration": 130}, {"note": 61, "velocity": 86, "duration": 164}, {"note": 0, "velocity": 0, "duration": 196}, {"note": 57, "velocity": 95, "duration": 1453}, {"note": 0, "velocity": 0, "duration": 15827}, {"note": 69, "velocity": 117, "duration": 109}, {"note": 66, "velocity": 97, "duration": 118}, {"note": 69, "velocity": 112, "duration": 92}, {"note": 69, "velocity": 112, "duration": 126}, {"note": 0, "velocity": 0, "duration": 114}, {"note": 69, "velocity": 112, "duration": 66}, {"note": 69, "velocity": 127, "duration": 133}, {"note": 0, "velocity": 0, "duration": 107}, {"note": 69, "velocity": 127, "duration": 57}, {"note": 0, "velocity": 0, "duration": 63}, {"note": 69, "velocity": 122, "duration": 182}, {"note": 0, "velocity": 0, "duration": 178}, {"note": 66, "velocity": 127, "duration": 235}, {"note": 64, "velocity": 117, "duration": 1027}, {"note": 0, "velocity": 0, "duration": 1133}, {"note": 69, "velocity": 112, "duration": 112}, {"note": 66, "velocity": 96, "duration": 126}, {"note": 69, "velocity": 102, "duration": 70}, {"note": 69, "velocity": 122, "duration": 137}, {"note": 0, "velocity": 0, "duration": 103}, {"note": 69, "velocity": 127, "duration": 144}, {"note": 0, "velocity": 0, "duration": 96}, {"note": 69, "velocity": 127, "duration": 278}, {"note": 0, "velocity": 0, "duration": 82}, {"note": 69, "velocity": 112, "duration": 77}, {"note": 69, "velocity": 100, "duration": 153}, {"note": 0, "velocity": 0, "duration": 87}, {"note": 61, "velocity": 96, "duration": 67}, {"note": 61, "velocity": 112, "duration": 233}, {"note": 64, "velocity": 99, "duration": 899}, {"note": 0, "velocity": 0, "duration": 1021}, {"note": 69, "velocity": 112, "duration": 116}, {"note": 66, "velocity": 92, "duration": 113}, {"note": 69, "velocity": 102, "duration": 95}, {"note": 69, "velocity": 112, "duration": 118}, {"note": 0, "velocity": 0, "duration": 122}, {"note": 69, "velocity": 100, "duration": 71}, {"note": 69, "velocity": 122, "duration": 88}, {"note": 73, "velocity": 127, "duration": 148}, {"note": 0, "velocity": 0, "duration": 92}, {"note": 73, "velocity": 127, "duration": 325}, {"note": 66, "velocity": 122, "duration": 238}, {"note": 64, "velocity": 117, "duration": 1199}, {"note": 0, "velocity": 0, "duration": 961}, {"note": 59, "velocity": 107, "duration": 48}, {"note": 0, "velocity": 0, "duration": 72}, {"note": 59, "velocity": 96, "duration": 51}, {"note": 0, "velocity": 0, "duration": 69}, {"note": 59, "velocity": 100, "duration": 148}, {"note": 61, "velocity": 117, "duration": 127}, {"note": 0, "velocity": 0, "duration": 113}, {"note": 61, "velocity": 112, "duration": 102}, {"note": 64, "velocity": 107, "duration": 91}, {"note": 64, "velocity": 112, "duration": 134}, {"note": 0, "velocity": 0, "duration": 226}, {"note": 61, "velocity": 127, "duration": 187}, {"note": 59, "velocity": 102, "duration": 111}, {"note": 61, "velocity": 107, "duration": 258}, {"note": 57, "velocity": 97, "duration": 1533}, {"note": 0, "velocity": 0, "duration": 507}, {"note": 61, "velocity": 122, "duration": 112}, {"note": 59, "velocity": 71, "duration": 143}, {"note": 61, "velocity": 95, "duration": 89}, {"note": 61, "velocity": 96, "duration": 152}, {"note": 0, "velocity": 0, "duration": 88}, {"note": 61, "velocity": 122, "duration": 56}, {"note": 0, "velocity": 0, "duration": 64}, {"note": 61, "velocity": 117, "duration": 133}, {"note": 0, "velocity": 0, "duration": 347}, {"note": 61, "velocity": 122, "duration": 236}, {"note": 57, "velocity": 93, "duration": 80}, {"note": 64, "velocity": 122, "duration": 163}, {"note": 0, "velocity": 0, "duration": 197}, {"note": 61, "velocity": 117, "duration": 1085}, {"note": 0, "velocity": 0, "duration": 835}, {"note": 61, "velocity": 117, "duration": 116}, {"note": 59, "velocity": 67, "duration": 118}, {"note": 61, "velocity": 112, "duration": 150}, {"note": 0, "velocity": 0, "duration": 90}, {"note": 59, "velocity": 96, "duration": 74}, {"note": 61, "velocity": 107, "duration": 190}, {"note": 61, "velocity": 112, "duration": 213}, {"note": 52, "velocity": 97, "duration": 116}, {"note": 61, "velocity": 127, "duration": 168}, {"note": 0, "velocity": 0, "duration": 72}, {"note": 59, "velocity": 107, "duration": 110}, {"note": 61, "velocity": 102, "duration": 236}, {"note": 0, "velocity": 0, "duration": 124}, {"note": 52, "velocity": 97, "duration": 1175}, {"note": 0, "velocity": 0, "duration": 745}, {"note": 66, "velocity": 117, "duration": 112}, {"note": 64, "velocity": 68, "duration": 90}, {"note": 66, "velocity": 122, "duration": 144}, {"note": 0, "velocity": 0, "duration": 96}, {"note": 69, "velocity": 112, "duration": 57}, {"note": 0, "velocity": 0, "duration": 63}, {"note": 69, "velocity": 107, "duration": 192}, {"note": 0, "velocity": 0, "duration": 168}, {"note": 69, "velocity": 112, "duration": 56}, {"note": 0, "velocity": 0, "duration": 64}, {"note": 69, "velocity": 97, "duration": 57}, {"note": 0, "velocity": 0, "duration": 63}, {"note": 69, "velocity": 122, "duration": 117}, {"note": 69, "velocity": 127, "duration": 68}, {"note": 0, "velocity": 0, "duration": 172}, {"note": 61, "velocity": 92, "duration": 84}, {"note": 61, "velocity": 73, "duration": 234}, {"note": 64, "velocity": 102, "duration": 1437}, {"note": 0, "velocity": 0, "duration": 483}, {"note": 59, "velocity": 93, "duration": 58}, {"note": 0, "velocity": 0, "duration": 62}, {"note": 59, "velocity": 72, "duration": 56}, {"note": 0, "velocity": 0, "duration": 64}, {"note": 59, "velocity": 97, "duration": 137}, {"note": 0, "velocity": 0, "duration": 103}, {"note": 61, "velocity": 112, "duration": 144}, {"note": 64, "velocity": 112, "duration": 174}, {"note": 0, "velocity": 0, "duration": 186}, {"note": 64, "velocity": 127, "duration": 98}, {"note": 0, "velocity": 0, "duration": 142}, {"note": 61, "velocity": 122, "duration": 219}, {"note": 59, "velocity": 99, "duration": 130}, {"note": 61, "velocity": 86, "duration": 164}, {"note": 0, "velocity": 0, "duration": 196}, {"note": 57, "velocity": 95, "duration": 720}]]