[[{"note": 68, "velocity": 102, "duration": 68}, {"note": 68, "velocity": 64, "duration": 60}, {"note": 68, "velocity": 92, "duration": 278}, {"note": 66, "velocity": 63, "duration": 74}, {"note": 0, "velocity": 0, "duration": 166}, {"note": 66, "velocity": 90, "duration": 657}, {"note": 0, "velocity": 0, "duration": 63}, {"note": 61, "velocity": 102, "duration": 106}, {"note": 63, "velocity": 79, "duration": 89}, {"note": 64, "velocity": 93, "duration": 264}, {"note": 0, "velocity": 0, "duration": 216}, {"note": 64, "velocity": 97, "duration": 184}, {"note": 66, "velocity": 100, "duration": 182}, {"note": 63, "velocity": 85, "duration": 875}, {"note": 56, "velocity": 81, "duration": 86}, {"note": 61, "velocity": 96, "duration": 196}, {"note": 63, "velocity": 92, "duration": 110}, {"note": 64, "velocity": 85, "duration": 531}, {"note": 56, "velocity": 82, "duration": 124}, {"note": 61, "velocity": 99, "duration": 247}, {"note": 63, "velocity": 93, "duration": 99}, {"note": 64, "velocity": 95, "duration": 510}, {"note": 0, "velocity": 0, "duration": 90}, {"note": 68, "velocity": 117, "duration": 174}, {"note": 0, "velocity": 0, "duration": 66}, {"note": 68, "velocity": 100, "duration": 61}, {"note": 68, "velocity": 99, "duration": 191}, {"note": 66, "velocity": 102, "duration": 83}, {"note": 0, "velocity": 0, "duration": 157}, {"note": 66, "velocity": 97, "duration": 1082}, {"note": 0, "velocity": 0, "duration": 238}, {"note": 68, "velocity": 92, "duration": 56}, {"note": 0, "velocity": 0, "duration": 64}, {"note": 68, "velocity": 92, "duration": 48}, {"note": 0, "velocity": 0, "duration": 72}, {"note": 68, "velocity": 117, "duration": 204}, {"note": 71, "velocity": 75, "duration": 85}, {"note": 71, "velocity": 96, "duration": 266}, {"note": 73, "velocity": 78, "duration": 564}, {"note": 70, "velocity": 122, "duration": 123}, {"note": 71, "velocity": 85, "duration": 136}, {"note": 73, "velocity": 102, "duration": 249}, {"note": 73, "velocity": 112, "duration": 9}, {"note": 0, "velocity": 0, "duration": 111}, {"note": 73, "velocity": 112, "duration": 286}, {"note": 0, "velocity": 0, "duration": 74}, {"note": 70, "velocity": 117, "duration": 198}, {"note": 73, "velocity": 102, "duration": 246}, {"note": 71, "velocity": 97, "duration": 389}, {"note": 0, "velocity": 0, "duration": 91}, {"note": 61, "velocity": 96, "duration": 133}, {"note": 63, "velocity": 85, "duration": 105}, {"note": 64, "velocity": 97, "duration": 234}, {"note": 66, "velocity": 92, "duration": 142}, {"note": 68, "velocity": 96, "duration": 435}, {"note": 66, "velocity": 97, "duration": 102}, {"note": 68, "velocity": 107, "duration": 202}, {"note": 71, "velocity": 89, "duration": 246}, {"note": 75, "velocity": 112, "duration": 238}, {"note": 0, "velocity": 0, "duration": 242}, {"note": 71, "velocity": 112, "duration": 254}, {"note": 73, "velocity": 112, "duration": 943}, {"note": 0, "velocity": 0, "duration": 377}, {"note": 71, "velocity": 83, "duration": 127}, {"note": 73, "velocity": 107, "duration": 106}, {"note": 78, "velocity": 99, "duration": 131}, {"note": 75, "velocity": 112, "duration": 289}, {"note": 73, "velocity": 90, "duration": 67}, {"note": 73, "velocity": 102, "duration": 144}, {"note": 0, "velocity": 0, "duration": 96}, {"note": 71, "velocity": 95, "duration": 221}, {"note": 73, "velocity": 107, "duration": 568}, {"note": 0, "velocity": 0, "duration": 152}, {"note": 70, "velocity": 122, "duration": 58}, {"note": 0, "velocity": 0, "duration": 62}, {"note": 70, "velocity": 107, "duration": 81}, {"note": 71, "velocity": 93, "duration": 106}, {"note": 73, "velocity": 112, "duration": 289}, {"note": 73, "velocity": 97, "duration": 49}, {"note": 0, "velocity": 0, "duration": 71}, {"note": 73, "velocity": 102, "duration": 181}, {"note": 70, "velocity": 102, "duration": 198}, {"note": 73, "velocity": 112, "duration": 218}, {"note": 71, "velocity": 100, "duration": 503}, {"note": 0, "velocity": 0, "duration": 97}, {"note": 71, "velocity": 83, "duration": 122}, {"note": 73, "velocity": 117, "duration": 100}, {"note": 78, "velocity": 99, "duration": 132}, {"note": 75, "velocity": 100, "duration": 207}, {"note": 73, "velocity": 93, "duration": 60}, {"note": 73, "velocity": 99, "duration": 59}, {"note": 0, "velocity": 0, "duration": 61}, {"note": 73, "velocity": 112, "duration": 169}, {"note": 0, "velocity": 0, "duration": 71}, {"note": 66, "velocity": 112, "duration": 220}, {"note": 75, "velocity": 122, "duration": 196}, {"note": 73, "velocity": 95, "duration": 73}, {"note": 73, "velocity": 112, "duration": 181}, {"note": 66, "velocity": 99, "duration": 132}, {"note": 0, "velocity": 0, "duration": 108}, {"note": 75, "velocity": 122, "duration": 1031}, {"note": 0, "velocity": 0, "duration": 649}, {"note": 71, "velocity": 93, "duration": 110}, {"note": 73, "velocity": 102, "duration": 102}, {"note": 78, "velocity": 100, "duration": 103}, {"note": 75, "velocity": 102, "duration": 258}, {"note": 73, "velocity": 99, "duration": 82}, {"note": 73, "velocity": 107, "duration": 143}, {"note": 0, "velocity": 0, "duration": 97}, {"note": 71, "velocity": 89, "duration": 122}, {"note": 0, "velocity": 0, "duration": 118}, {"note": 73, "velocity": 102, "duration": 606}, {"note": 0, "velocity": 0, "duration": 114}, {"note": 71, "velocity": 85, "duration": 103}, {"note": 70, "velocity": 102, "duration": 98}, {"note": 71, "velocity": 88, "duration": 111}, {"note": 78, "velocity": 100, "duration": 265}, {"note": 0, "velocity": 0, "duration": 95}, {"note": 78, "velocity": 117, "duration": 379}, {"note": 70, "velocity": 96, "duration": 158}, {"note": 0, "velocity": 0, "duration": 82}, {"note": 73, "velocity": 112, "duration": 215}, {"note": 71, "velocity": 92, "duration": 390}, {"note": 0, "velocity": 0, "duration": 90}, {"note": 71, "velocity": 90, "duration": 122}, {"note": 73, "velocity": 112, "duration": 107}, {"note": 78, "velocity": 102, "duration": 121}, {"note": 75, "velocity": 107, "duration": 276}, {"note": 73, "velocity": 112, "duration": 72}, {"note": 73, "velocity": 112, "duration": 190}, {"note": 71, "velocity": 100, "duration": 163}, {"note": 0, "velocity": 0, "duration": 77}, {"note": 71, "velocity": 100, "duration": 214}, {"note": 70, "velocity": 117, "duration": 479}, {"note": 0, "velocity": 0, "duration": 121}, {"note": 68, "velocity": 100, "duration": 147}, {"note": 70, "velocity": 99, "duration": 211}, {"note": 0, "velocity": 0, "duration": 149}, {"note": 71, "velocity": 99, "duration": 937}, {"note": 0, "velocity": 0, "duration": 383}, {"note": 71, "velocity": 90, "duration": 85}, {"note": 73, "velocity": 122, "duration": 101}, {"note": 78, "velocity": 117, "duration": 118}, {"note": 75, "velocity": 117, "duration": 222}, {"note": 73, "velocity": 56, "duration": 54}, {"note": 0, "velocity": 0, "duration": 66}, {"note": 73, "velocity": 127, "duration": 182}, {"note": 71, "velocity": 107, "duration": 167}, {"note": 0, "velocity": 0, "duration": 73}, {"note": 73, "velocity": 127, "duration": 621}, {"note": 0, "velocity": 0, "duration": 99}, {"note": 70, "velocity": 117, "duration": 58}, {"note": 0, "velocity": 0, "duration": 62}, {"note": 70, "velocity": 97, "duration": 96}, {"note": 71, "velocity": 92, "duration": 146}, {"note": 73, "velocity": 127, "duration": 177}, {"note": 0, "velocity": 0, "duration": 63}, {"note": 73, "velocity": 122, "duration": 45}, {"note": 0, "velocity": 0, "duration": 75}, {"note": 73, "velocity": 122, "duration": 158}, {"note": 0, "velocity": 0, "duration": 82}, {"note": 70, "velocity": 127, "duration": 191}, {"note": 73, "velocity": 127, "duration": 249}, {"note": 71, "velocity": 127, "duration": 416}, {"note": 0, "velocity": 0, "duration": 64}, {"note": 71, "velocity": 93, "duration": 86}, {"note": 73, "velocity": 122, "duration": 101}, {"note": 78, "velocity": 102, "duration": 132}, {"note": 75, "velocity": 107, "duration": 248}, {"note": 73, "velocity": 72, "duration": 59}, {"note": 0, "velocity": 0, "duration": 61}, {"note": 73, "velocity": 127, "duration": 240}, {"note": 0, "velocity": 0, "duration": 120}, {"note": 66, "velocity": 117, "duration": 211}, {"note": 75, "velocity": 127, "duration": 205}, {"note": 73, "velocity": 127, "duration": 110}, {"note": 66, "velocity": 112, "duration": 150}, {"note": 0, "velocity": 0, "duration": 210}, {"note": 76, "velocity": 117, "duration": 345}, {"note": 75, "velocity": 127, "duration": 731}, {"note": 0, "velocity": 0, "duration": 829}, {"note": 71, "velocity": 92, "duration": 104}, {"note": 73, "velocity": 122, "duration": 104}, {"note": 78, "velocity": 102, "duration": 160}, {"note": 75, "velocity": 127, "duration": 226}, {"note": 73, "velocity": 67, "duration": 65}, {"note": 73, "velocity": 122, "duration": 174}, {"note": 0, "velocity": 0, "duration": 66}, {"note": 71, "velocity": 99, "duration": 129}, {"note": 0, "velocity": 0, "duration": 111}, {"note": 75, "velocity": 122, "duration": 276}, {"note": 73, "velocity": 127, "duration": 384}, {"note": 0, "velocity": 0, "duration": 96}, {"note": 70, "velocity": 127, "duration": 52}, {"note": 0, "velocity": 0, "duration": 68}, {"note": 70, "velocity": 107, "duration": 96}, {"note": 71, "velocity": 99, "duration": 120}, {"note": 78, "velocity": 127, "duration": 194}, {"note": 78, "velocity": 117, "duration": 63}, {"note": 78, "velocity": 117, "duration": 188}, {"note": 70, "velocity": 107, "duration": 159}, {"note": 0, "velocity": 0, "duration": 81}, {"note": 73, "velocity": 122, "duration": 213}, {"note": 71, "velocity": 112, "duration": 458}, {"note": 71, "velocity": 97, "duration": 83}, {"note": 73, "velocity": 122, "duration": 102}, {"note": 78, "velocity": 100, "duration": 115}, {"note": 75, "velocity": 117, "duration": 189}, {"note": 73, "velocity": 90, "duration": 60}, {"note": 73, "velocity": 127, "duration": 212}, {"note": 71, "velocity": 117, "duration": 131}, {"note": 0, "velocity": 0, "duration": 229}, {"note": 71, "velocity": 102, "duration": 247}, {"note": 70, "velocity": 122, "duration": 616}, {"note": 0, "velocity": 0, "duration": 104}, {"note": 68, "velocity": 117, "duration": 266}, {"note": 70, "velocity": 96, "duration": 215}, {"note": 71, "velocity": 93, "duration": 1418}, {"note": 0, "velocity": 0, "duration": 15022}, {"note": 73, "velocity": 83, "duration": 127}, {"note": 75, "velocity": 107, "duration": 106}, {"note": 80, "velocity": 99, "duration": 131}, {"note": 77, "velocity": 112, "duration": 289}, {"note": 75, "velocity": 90, "duration": 67}, {"note": 75, "velocity": 102, "duration": 144}, {"note": 0, "velocity": 0, "duration": 96}, {"note": 73, "velocity": 95, "duration": 221}, {"note": 75, "velocity": 107, "duration": 568}, {"note": 0, "velocity": 0, "duration": 152}, {"note": 72, "velocity": 122, "duration": 58}, {"note": 0, "velocity": 0, "duration": 62}, {"note": 72, "velocity": 107, "duration": 81}, {"note": 73, "velocity": 93, "duration": 106}, {"note": 75, "velocity": 112, "duration": 289}, {"note": 75, "velocity": 97, "duration": 49}, {"note": 0, "velocity": 0, "duration": 71}, {"note": 75, "velocity": 102, "duration": 181}, {"note": 72, "velocity": 102, "duration": 198}, {"note": 75, "velocity": 112, "duration": 218}, {"note": 73, "velocity": 100, "duration": 503}, {"note": 0, "velocity": 0, "duration": 97}, {"note": 73, "velocity": 83, "duration": 122}, {"note": 75, "velocity": 117, "duration": 100}, {"note": 80, "velocity": 99, "duration": 132}, {"note": 77, "velocity": 100, "duration": 207}, {"note": 75, "velocity": 93, "duration": 60}, {"note": 75, "velocity": 99, "duration": 59}, {"note": 0, "velocity": 0, "duration": 61}, {"note": 75, "velocity": 112, "duration": 169}, {"note": 0, "velocity": 0, "duration": 71}, {"note": 68, "velocity": 112, "duration": 220}, {"note": 77, "velocity": 122, "duration": 196}, {"note": 75, "velocity": 95, "duration": 73}, {"note": 75, "velocity": 112, "duration": 181}, {"note": 68, "velocity": 99, "duration": 132}, {"note": 0, "velocity": 0, "duration": 108}, {"note": 77, "velocity": 122, "duration": 1031}, {"note": 0, "velocity": 0, "duration": 649}, {"note": 73, "velocity": 93, "duration": 110}, {"note": 75, "velocity": 102, "duration": 102}, {"note": 80, "velocity": 100, "duration": 103}, {"note": 77, "velocity": 102, "duration": 258}, {"note": 75, "velocity": 99, "duration": 82}, {"note": 75, "velocity": 107, "duration": 143}, {"note": 0, "velocity": 0, "duration": 97}, {"note": 73, "velocity": 89, "duration": 122}, {"note": 0, "velocity": 0, "duration": 118}, {"note": 75, "velocity": 102, "duration": 606}, {"note": 0, "velocity": 0, "duration": 114}, {"note": 73, "velocity": 85, "duration": 103}, {"note": 72, "velocity": 102, "duration": 98}, {"note": 73, "velocity": 88, "duration": 111}, {"note": 80, "velocity": 100, "duration": 265}, {"note": 0, "velocity": 0, "duration": 95}, {"note": 80, "velocity": 117, "duration": 379}, {"note": 72, "velocity": 96, "duration": 158}, {"note": 0, "velocity": 0, "duration": 82}, {"note": 75, "velocity": 112, "duration": 215}, {"note": 73, "velocity": 92, "duration": 390}, {"note": 0, "velocity": 0, "duration": 90}, {"note": 73, "velocity": 90, "duration": 122}, {"note": 75, "velocity": 112, "duration": 107}, {"note": 80, "velocity": 102, "duration": 121}, {"note": 77, "velocity": 107, "duration": 276}, {"note": 75, "velocity": 112, "duration": 72}, {"note": 75, "velocity": 112, "duration": 190}, {"note": 73, "velocity": 100, "duration": 163}, {"note": 0, "velocity": 0, "duration": 77}, {"note": 73, "velocity": 100, "duration": 214}, {"note": 72, "velocity": 117, "duration": 479}, {"note": 0, "velocity": 0, "duration": 121}, {"note": 70, "velocity": 100, "duration": 147}, {"note": 72, "velocity": 99, "duration": 211}, {"note": 75, "velocity": 117, "duration": 251}, {"note": 73, "velocity": 117, "duration": 338}, {"note": 75, "velocity": 127, "duration": 110}, {"note": 73, "velocity": 127, "duration": 105}, {"note": 77, "velocity": 127, "duration": 674}, {"note": 73, "velocity": 90, "duration": 85}, {"note": 75, "velocity": 122, "duration": 101}, {"note": 80, "velocity": 117, "duration": 118}, {"note": 77, "velocity": 117, "duration": 222}, {"note": 75, "velocity": 56, "duration": 54}, {"note": 0, "velocity": 0, "duration": 66}, {"note": 75, "velocity": 127, "duration": 182}, {"note": 73, "velocity": 107, "duration": 167}, {"note": 0, "velocity": 0, "duration": 73}, {"note": 75, "velocity": 127, "duration": 621}, {"note": 0, "velocity": 0, "duration": 99}, {"note": 72, "velocity": 117, "duration": 58}, {"note": 0, "velocity": 0, "duration": 62}, {"note": 72, "velocity": 97, "duration": 96}, {"note": 73, "velocity": 92, "duration": 146}, {"note": 75, "velocity": 127, "duration": 177}, {"note": 0, "velocity": 0, "duration": 63}, {"note": 75, "velocity": 122, "duration": 45}, {"note": 0, "velocity": 0, "duration": 75}, {"note": 75, "velocity": 122, "duration": 158}, {"note": 0, "velocity": 0, "duration": 82}, {"note": 72, "velocity": 127, "duration": 191}, {"note": 75, "velocity": 127, "duration": 249}, {"note": 73, "velocity": 127, "duration": 416}, {"note": 0, "velocity": 0, "duration": 64}, {"note": 73, "velocity": 93, "duration": 86}, {"note": 75, "velocity": 122, "duration": 101}, {"note": 80, "velocity": 102, "duration": 132}, {"note": 77, "velocity": 107, "duration": 248}, {"note": 75, "velocity": 72, "duration": 59}, {"note": 0, "velocity": 0, "duration": 61}, {"note": 75, "velocity": 127, "duration": 240}, {"note": 0, "velocity": 0, "duration": 120}, {"note": 68, "velocity": 117, "duration": 211}, {"note": 77, "velocity": 127, "duration": 205}, {"note": 75, "velocity": 127, "duration": 110}, {"note": 68, "velocity": 112, "duration": 150}, {"note": 0, "velocity": 0, "duration": 210}, {"note": 78, "velocity": 117, "duration": 345}, {"note": 77, "velocity": 127, "duration": 731}, {"note": 0, "velocity": 0, "duration": 829}, {"note": 73, "velocity": 92, "duration": 104}, {"note": 75, "velocity": 122, "duration": 104}, {"note": 80, "velocity": 102, "duration": 160}, {"note": 77, "velocity": 127, "duration": 226}, {"note": 75, "velocity": 67, "duration": 65}, {"note": 75, "velocity": 122, "duration": 174}, {"note": 0, "velocity": 0, "duration": 66}, {"note": 73, "velocity": 99, "duration": 129}, {"note": 0, "velocity": 0, "duration": 111}, {"note": 77, "velocity": 122, "duration": 276}, {"note": 75, "velocity": 127, "duration": 384}, {"note": 0, "velocity": 0, "duration": 96}, {"note": 72, "velocity": 127, "duration": 52}, {"note": 0, "velocity": 0, "duration": 68}, {"note": 72, "velocity": 107, "duration": 96}, {"note": 73, "velocity": 99, "duration": 120}, {"note": 80, "velocity": 127, "duration": 194}, {"note": 80, "velocity": 117, "duration": 63}, {"note": 80, "velocity": 117, "duration": 188}, {"note": 72, "velocity": 107, "duration": 159}, {"note": 0, "velocity": 0, "duration": 81}, {"note": 75, "velocity": 122, "duration": 213}, {"note": 73, "velocity": 112, "duration": 458}, {"note": 73, "velocity": 97, "duration": 83}, {"note": 75, "velocity": 122, "duration": 102}, {"note": 80, "velocity": 100, "duration": 115}, {"note": 77, "velocity": 117, "duration": 189}, {"note": 75, "velocity": 90, "duration": 60}, {"note": 75, "velocity": 127, "duration": 212}, {"note": 73, "velocity": 117, "duration": 131}, {"note": 0, "velocity": 0, "duration": 229}, {"note": 73, "velocity": 102, "duration": 247}, {"note": 72, "velocity": 122, "duration": 616}, {"note": 0, "velocity": 0, "duration": 104}, {"note": 70, "velocity": 117, "duration": 266}, {"note": 72, "velocity": 96, "duration": 215}, {"note": 73, "velocity": 93, "duration": 1226}, {"note": 73, "velocity": 81, "duration": 138}, {"note": 75, "velocity": 90, "duration": 143}, {"note": 80, "velocity": 97, "duration": 193}, {"note": 77, "velocity": 71, "duration": 292}, {"note": 75, "velocity": 99, "duration": 83}, {"note": 75, "velocity": 99, "duration": 320}, {"note": 0, "velocity": 0, "duration": 133}, {"note": 73, "velocity": 72, "duration": 294}, {"note": 72, "velocity": 83, "duration": 894}, {"note": 70, "velocity": 88, "duration": 397}, {"note": 72, "velocity": 86, "duration": 283}, {"note": 73, "velocity": 100, "duration": 1379}]]