[[{"note": 65, "velocity": 89, "duration": 255}, {"note": 70, "velocity": 96, "duration": 960}, {"note": 72, "velocity": 93, "duration": 240}, {"note": 77, "velocity": 97, "duration": 271}, {"note": 74, "velocity": 85, "duration": 1200}, {"note": 67, "velocity": 93, "duration": 240}, {"note": 70, "velocity": 100, "duration": 720}, {"note": 72, "velocity": 107, "duration": 240}, {"note": 67, "velocity": 93, "duration": 245}, {"note": 65, "velocity": 96, "duration": 239}, {"note": 65, "velocity": 90, "duration": 1199}, {"note": 65, "velocity": 90, "duration": 249}, {"note": 70, "velocity": 93, "duration": 960}, {"note": 72, "velocity": 100, "duration": 240}, {"note": 79, "velocity": 100, "duration": 240}, {"note": 74, "velocity": 96, "duration": 522}, {"note": 72, "velocity": 95, "duration": 508}, {"note": 70, "velocity": 102, "duration": 480}, {"note": 72, "velocity": 89, "duration": 2640}, {"note": 65, "velocity": 93, "duration": 240}, {"note": 70, "velocity": 112, "duration": 960}, {"note": 72, "velocity": 102, "duration": 240}, {"note": 77, "velocity": 102, "duration": 240}, {"note": 74, "velocity": 97, "duration": 1200}, {"note": 67, "velocity": 92, "duration": 240}, {"note": 70, "velocity": 100, "duration": 819}, {"note": 72, "velocity": 99, "duration": 241}, {"note": 67, "velocity": 95, "duration": 480}, {"note": 65, "velocity": 93, "duration": 1200}, {"note": 74, "velocity": 93, "duration": 240}, {"note": 77, "velocity": 97, "duration": 959}, {"note": 77, "velocity": 107, "duration": 480}, {"note": 82, "velocity": 127, "duration": 960}, {"note": 70, "velocity": 117, "duration": 480}, {"note": 72, "velocity": 127, "duration": 960}, {"note": 74, "velocity": 117, "duration": 480}, {"note": 72, "velocity": 102, "duration": 1200}, {"note": 65, "velocity": 93, "duration": 252}, {"note": 70, "velocity": 117, "duration": 960}, {"note": 72, "velocity": 97, "duration": 243}, {"note": 77, "velocity": 100, "duration": 244}, {"note": 74, "velocity": 107, "duration": 1200}, {"note": 67, "velocity": 99, "duration": 254}, {"note": 70, "velocity": 117, "duration": 720}, {"note": 72, "velocity": 100, "duration": 250}, {"note": 67, "velocity": 82, "duration": 240}, {"note": 65, "velocity": 69, "duration": 239}, {"note": 65, "velocity": 88, "duration": 1256}, {"note": 74, "velocity": 88, "duration": 240}, {"note": 77, "velocity": 97, "duration": 480}, {"note": 74, "velocity": 95, "duration": 498}, {"note": 72, "velocity": 93, "duration": 519}, {"note": 70, "velocity": 97, "duration": 641}, {"note": 72, "velocity": 112, "duration": 498}, {"note": 74, "velocity": 107, "duration": 515}, {"note": 72, "velocity": 100, "duration": 730}, {"note": 70, "velocity": 102, "duration": 240}, {"note": 72, "velocity": 100, "duration": 480}, {"note": 70, "velocity": 127, "duration": 3252}, {"note": 0, "velocity": 0, "duration": 19308}, {"note": 74, "velocity": 112, "duration": 240}, {"note": 77, "velocity": 117, "duration": 239}, {"note": 77, "velocity": 117, "duration": 479}, {"note": 77, "velocity": 127, "duration": 479}, {"note": 77, "velocity": 112, "duration": 480}, {"note": 79, "velocity": 127, "duration": 480}, {"note": 77, "velocity": 127, "duration": 720}, {"note": 74, "velocity": 122, "duration": 240}, {"note": 72, "velocity": 117, "duration": 316}, {"note": 70, "velocity": 99, "duration": 239}, {"note": 70, "velocity": 107, "duration": 720}, {"note": 67, "velocity": 100, "duration": 248}, {"note": 70, "velocity": 102, "duration": 1200}, {"note": 77, "velocity": 117, "duration": 239}, {"note": 77, "velocity": 127, "duration": 959}, {"note": 77, "velocity": 122, "duration": 480}, {"note": 79, "velocity": 117, "duration": 480}, {"note": 77, "velocity": 117, "duration": 720}, {"note": 74, "velocity": 127, "duration": 240}, {"note": 72, "velocity": 102, "duration": 2640}, {"note": 65, "velocity": 97, "duration": 240}, {"note": 70, "velocity": 127, "duration": 960}, {"note": 72, "velocity": 112, "duration": 240}, {"note": 77, "velocity": 112, "duration": 480}, {"note": 74, "velocity": 127, "duration": 960}, {"note": 67, "velocity": 90, "duration": 240}, {"note": 70, "velocity": 100, "duration": 720}, {"note": 72, "velocity": 117, "duration": 240}, {"note": 67, "velocity": 100, "duration": 480}, {"note": 65, "velocity": 102, "duration": 1200}, {"note": 67, "velocity": 100, "duration": 267}, {"note": 70, "velocity": 122, "duration": 960}, {"note": 72, "velocity": 112, "duration": 240}, {"note": 79, "velocity": 127, "duration": 480}, {"note": 74, "velocity": 127, "duration": 720}, {"note": 72, "velocity": 102, "duration": 240}, {"note": 70, "velocity": 99, "duration": 240}, {"note": 72, "velocity": 122, "duration": 2400}, {"note": 70, "velocity": 122, "duration": 479}, {"note": 70, "velocity": 122, "duration": 2400}, {"note": 74, "velocity": 127, "duration": 240}, {"note": 77, "velocity": 122, "duration": 239}, {"note": 77, "velocity": 127, "duration": 479}, {"note": 77, "velocity": 112, "duration": 479}, {"note": 77, "velocity": 122, "duration": 480}, {"note": 79, "velocity": 127, "duration": 480}, {"note": 77, "velocity": 127, "duration": 720}, {"note": 74, "velocity": 127, "duration": 240}, {"note": 72, "velocity": 127, "duration": 488}, {"note": 70, "velocity": 127, "duration": 720}, {"note": 67, "velocity": 102, "duration": 240}, {"note": 70, "velocity": 122, "duration": 1200}, {"note": 74, "velocity": 99, "duration": 240}, {"note": 77, "velocity": 112, "duration": 959}, {"note": 77, "velocity": 112, "duration": 959}, {"note": 77, "velocity": 117, "duration": 480}, {"note": 79, "velocity": 122, "duration": 480}, {"note": 77, "velocity": 127, "duration": 720}, {"note": 74, "velocity": 122, "duration": 240}, {"note": 72, "velocity": 117, "duration": 2640}, {"note": 65, "velocity": 79, "duration": 242}, {"note": 70, "velocity": 117, "duration": 840}, {"note": 72, "velocity": 102, "duration": 360}, {"note": 77, "velocity": 107, "duration": 269}, {"note": 74, "velocity": 112, "duration": 1200}, {"note": 67, "velocity": 97, "duration": 240}, {"note": 70, "velocity": 112, "duration": 720}, {"note": 72, "velocity": 100, "duration": 240}, {"note": 67, "velocity": 96, "duration": 480}, {"note": 65, "velocity": 97, "duration": 1199}, {"note": 65, "velocity": 95, "duration": 240}, {"note": 70, "velocity": 122, "duration": 960}, {"note": 72, "velocity": 102, "duration": 240}, {"note": 79, "velocity": 97, "duration": 260}, {"note": 74, "velocity": 97, "duration": 480}, {"note": 72, "velocity": 127, "duration": 480}, {"note": 70, "velocity": 122, "duration": 480}, {"note": 72, "velocity": 107, "duration": 2400}, {"note": 70, "velocity": 122, "duration": 719}, {"note": 70, "velocity": 117, "duration": 3492}]]