[[{"note": 83, "velocity": 58, "duration": 116}, {"note": 83, "velocity": 75, "duration": 116}, {"note": 83, "velocity": 75, "duration": 116}, {"note": 81, "velocity": 62, "duration": 116}, {"note": 81, "velocity": 70, "duration": 116}, {"note": 79, "velocity": 63, "duration": 116}, {"note": 81, "velocity": 66, "duration": 116}, {"note": 83, "velocity": 63, "duration": 236}, {"note": 81, "velocity": 66, "duration": 110}, {"note": 79, "velocity": 63, "duration": 116}, {"note": 79, "velocity": 62, "duration": 116}, {"note": 79, "velocity": 70, "duration": 116}, {"note": 78, "velocity": 60, "duration": 116}, {"note": 78, "velocity": 72, "duration": 116}, {"note": 76, "velocity": 67, "duration": 116}, {"note": 78, "velocity": 56, "duration": 116}, {"note": 79, "velocity": 64, "duration": 236}, {"note": 78, "velocity": 60, "duration": 476}, {"note": 74, "velocity": 55, "duration": 91}, {"note": 76, "velocity": 78, "duration": 356}, {"note": 76, "velocity": 78, "duration": 116}, {"note": 76, "velocity": 78, "duration": 116}, {"note": 79, "velocity": 88, "duration": 236}, {"note": 88, "velocity": 75, "duration": 116}, {"note": 86, "velocity": 103, "duration": 236}, {"note": 86, "velocity": 103, "duration": 116}, {"note": 79, "velocity": 85, "duration": 476}, {"note": 74, "velocity": 67, "duration": 116}, {"note": 76, "velocity": 67, "duration": 236}, {"note": 79, "velocity": 93, "duration": 116}, {"note": 79, "velocity": 85, "duration": 116}, {"note": 79, "velocity": 73, "duration": 236}, {"note": 81, "velocity": 78, "duration": 116}, {"note": 81, "velocity": 85, "duration": 1316}, {"note": 83, "velocity": 58, "duration": 116}, {"note": 83, "velocity": 75, "duration": 116}, {"note": 83, "velocity": 75, "duration": 116}, {"note": 81, "velocity": 62, "duration": 116}, {"note": 81, "velocity": 70, "duration": 116}, {"note": 79, "velocity": 63, "duration": 116}, {"note": 81, "velocity": 66, "duration": 116}, {"note": 83, "velocity": 63, "duration": 236}, {"note": 81, "velocity": 66, "duration": 110}, {"note": 79, "velocity": 63, "duration": 116}, {"note": 79, "velocity": 62, "duration": 116}, {"note": 79, "velocity": 70, "duration": 116}, {"note": 78, "velocity": 60, "duration": 116}, {"note": 78, "velocity": 72, "duration": 116}, {"note": 76, "velocity": 67, "duration": 116}, {"note": 78, "velocity": 56, "duration": 116}, {"note": 79, "velocity": 64, "duration": 236}, {"note": 78, "velocity": 60, "duration": 476}, {"note": 74, "velocity": 55, "duration": 91}, {"note": 76, "velocity": 78, "duration": 356}, {"note": 76, "velocity": 78, "duration": 116}, {"note": 76, "velocity": 78, "duration": 116}, {"note": 79, "velocity": 88, "duration": 236}, {"note": 88, "velocity": 75, "duration": 116}, {"note": 86, "velocity": 82, "duration": 236}, {"note": 86, "velocity": 82, "duration": 116}, {"note": 79, "velocity": 85, "duration": 476}, {"note": 74, "velocity": 67, "duration": 116}, {"note": 76, "velocity": 67, "duration": 236}, {"note": 79, "velocity": 93, "duration": 116}, {"note": 79, "velocity": 85, "duration": 116}, {"note": 79, "velocity": 73, "duration": 236}, {"note": 81, "velocity": 78, "duration": 116}, {"note": 81, "velocity": 85, "duration": 836}, {"note": 79, "velocity": 75, "duration": 116}, {"note": 81, "velocity": 78, "duration": 0}, {"note": 81, "velocity": 76, "duration": 116}, {"note": 83, "velocity": 72, "duration": 116}, {"note": 83, "velocity": 75, "duration": 116}, {"note": 83, "velocity": 69, "duration": 116}, {"note": 83, "velocity": 78, "duration": 180}, {"note": 81, "velocity": 91, "duration": 163}, {"note": 0, "velocity": 0, "duration": 77}, {"note": 79, "velocity": 66, "duration": 96}, {"note": 81, "velocity": 91, "duration": 128}, {"note": 83, "velocity": 69, "duration": 219}, {"note": 81, "velocity": 72, "duration": 436}, {"note": 74, "velocity": 80, "duration": 116}, {"note": 76, "velocity": 75, "duration": 64}, {"note": 79, "velocity": 72, "duration": 166}, {"note": 79, "velocity": 75, "duration": 46}, {"note": 0, "velocity": 0, "duration": 74}, {"note": 79, "velocity": 80, "duration": 236}, {"note": 76, "velocity": 73, "duration": 116}, {"note": 74, "velocity": 66, "duration": 606}, {"note": 79, "velocity": 73, "duration": 116}, {"note": 81, "velocity": 73, "duration": 15}, {"note": 83, "velocity": 76, "duration": 5}, {"note": 83, "velocity": 76, "duration": 116}, {"note": 83, "velocity": 76, "duration": 116}, {"note": 83, "velocity": 85, "duration": 116}, {"note": 83, "velocity": 93, "duration": 116}, {"note": 88, "velocity": 81, "duration": 27}, {"note": 86, "velocity": 79, "duration": 115}, {"note": 86, "velocity": 74, "duration": 129}, {"note": 83, "velocity": 66, "duration": 15}, {"note": 83, "velocity": 85, "duration": 116}, {"note": 84, "velocity": 76, "duration": 8}, {"note": 84, "velocity": 85, "duration": 116}, {"note": 83, "velocity": 85, "duration": 116}, {"note": 84, "velocity": 91, "duration": 116}, {"note": 86, "velocity": 95, "duration": 356}, {"note": 86, "velocity": 97, "duration": 525}, {"note": 79, "velocity": 99, "duration": 116}, {"note": 81, "velocity": 80, "duration": 116}, {"note": 81, "velocity": 93, "duration": 85}, {"note": 83, "velocity": 88, "duration": 61}, {"note": 83, "velocity": 82, "duration": 116}, {"note": 83, "velocity": 95, "duration": 116}, {"note": 83, "velocity": 95, "duration": 476}, {"note": 81, "velocity": 88, "duration": 107}, {"note": 86, "velocity": 72, "duration": 116}, {"note": 86, "velocity": 80, "duration": 116}, {"note": 86, "velocity": 85, "duration": 116}, {"note": 86, "velocity": 97, "duration": 356}, {"note": 86, "velocity": 93, "duration": 116}, {"note": 91, "velocity": 78, "duration": 102}, {"note": 91, "velocity": 82, "duration": 110}, {"note": 91, "velocity": 78, "duration": 116}, {"note": 91, "velocity": 85, "duration": 116}, {"note": 91, "velocity": 91, "duration": 236}, {"note": 88, "velocity": 93, "duration": 116}, {"note": 91, "velocity": 76, "duration": 116}, {"note": 88, "velocity": 93, "duration": 121}, {"note": 86, "velocity": 85, "duration": 596}, {"note": 79, "velocity": 76, "duration": 116}, {"note": 79, "velocity": 82, "duration": 14}, {"note": 88, "velocity": 88, "duration": 116}, {"note": 88, "velocity": 78, "duration": 116}, {"note": 88, "velocity": 85, "duration": 116}, {"note": 88, "velocity": 93, "duration": 236}, {"note": 86, "velocity": 75, "duration": 116}, {"note": 83, "velocity": 95, "duration": 5}, {"note": 83, "velocity": 97, "duration": 13}, {"note": 81, "velocity": 66, "duration": 116}, {"note": 79, "velocity": 80, "duration": 356}, {"note": 74, "velocity": 78, "duration": 116}, {"note": 74, "velocity": 88, "duration": 5}, {"note": 76, "velocity": 78, "duration": 99}, {"note": 79, "velocity": 88, "duration": 116}, {"note": 79, "velocity": 82, "duration": 236}, {"note": 83, "velocity": 75, "duration": 51}, {"note": 81, "velocity": 93, "duration": 851}, {"note": 79, "velocity": 99, "duration": 116}, {"note": 81, "velocity": 80, "duration": 44}, {"note": 81, "velocity": 93, "duration": 79}, {"note": 83, "velocity": 88, "duration": 116}, {"note": 83, "velocity": 82, "duration": 116}, {"note": 83, "velocity": 95, "duration": 116}, {"note": 83, "velocity": 95, "duration": 79}, {"note": 81, "velocity": 88, "duration": 48}, {"note": 86, "velocity": 72, "duration": 116}, {"note": 86, "velocity": 80, "duration": 116}, {"note": 86, "velocity": 85, "duration": 116}, {"note": 86, "velocity": 97, "duration": 356}, {"note": 86, "velocity": 93, "duration": 116}, {"note": 91, "velocity": 78, "duration": 107}, {"note": 91, "velocity": 82, "duration": 96}, {"note": 91, "velocity": 78, "duration": 116}, {"note": 91, "velocity": 85, "duration": 116}, {"note": 91, "velocity": 91, "duration": 236}, {"note": 88, "velocity": 93, "duration": 116}, {"note": 91, "velocity": 76, "duration": 14}, {"note": 88, "velocity": 93, "duration": 140}, {"note": 86, "velocity": 85, "duration": 120}, {"note": 86, "velocity": 85, "duration": 120}, {"note": 0, "velocity": 0, "duration": 360}, {"note": 79, "velocity": 76, "duration": 116}, {"note": 79, "velocity": 82, "duration": 17}, {"note": 88, "velocity": 88, "duration": 116}, {"note": 88, "velocity": 78, "duration": 116}, {"note": 88, "velocity": 85, "duration": 116}, {"note": 88, "velocity": 93, "duration": 236}, {"note": 86, "velocity": 75, "duration": 116}, {"note": 83, "velocity": 95, "duration": 0}, {"note": 83, "velocity": 97, "duration": 137}, {"note": 81, "velocity": 66, "duration": 116}, {"note": 79, "velocity": 80, "duration": 356}, {"note": 0, "velocity": 0, "duration": 124}, {"note": 74, "velocity": 88, "duration": 101}, {"note": 76, "velocity": 78, "duration": 219}, {"note": 79, "velocity": 88, "duration": 116}, {"note": 79, "velocity": 82, "duration": 236}, {"note": 83, "velocity": 75, "duration": 356}, {"note": 81, "velocity": 93, "duration": 683}, {"note": 81, "velocity": 93, "duration": 114}, {"note": 83, "velocity": 78, "duration": 127}, {"note": 81, "velocity": 80, "duration": 92}, {"note": 79, "velocity": 80, "duration": 96}, {"note": 79, "velocity": 78, "duration": 47}, {"note": 0, "velocity": 0, "duration": 239}, {"note": 67, "velocity": 78, "duration": 93}, {"note": 69, "velocity": 75, "duration": 73}, {"note": 69, "velocity": 97, "duration": 506}, {"note": 71, "velocity": 76, "duration": 334}, {"note": 0, "velocity": 0, "duration": 866}, {"note": 62, "velocity": 82, "duration": 236}, {"note": 64, "velocity": 76, "duration": 459}, {"note": 72, "velocity": 85, "duration": 447}, {"note": 71, "velocity": 93, "duration": 559}, {"note": 0, "velocity": 0, "duration": 161}, {"note": 79, "velocity": 91, "duration": 53}, {"note": 91, "velocity": 88, "duration": 71}, {"note": 81, "velocity": 60, "duration": 59}, {"note": 93, "velocity": 82, "duration": 65}, {"note": 81, "velocity": 88, "duration": 367}, {"note": 93, "velocity": 78, "duration": 398}, {"note": 0, "velocity": 0, "duration": 82}, {"note": 95, "velocity": 85, "duration": 363}, {"note": 83, "velocity": 72, "duration": 369}, {"note": 0, "velocity": 0, "duration": 111}, {"note": 78, "velocity": 95, "duration": 349}, {"note": 90, "velocity": 66, "duration": 376}, {"note": 0, "velocity": 0, "duration": 104}, {"note": 74, "velocity": 58, "duration": 344}, {"note": 86, "velocity": 88, "duration": 355}, {"note": 0, "velocity": 0, "duration": 125}, {"note": 76, "velocity": 60, "duration": 386}, {"note": 88, "velocity": 70, "duration": 438}, {"note": 96, "velocity": 70, "duration": 132}, {"note": 84, "velocity": 80, "duration": 142}, {"note": 0, "velocity": 0, "duration": 98}, {"note": 81, "velocity": 85, "duration": 151}, {"note": 93, "velocity": 75, "duration": 183}, {"note": 91, "velocity": 58, "duration": 442}, {"note": 86, "velocity": 58, "duration": 551}, {"note": 95, "velocity": 82, "duration": 580}, {"note": 0, "velocity": 0, "duration": 500}, {"note": 71, "velocity": 58, "duration": 116}, {"note": 71, "velocity": 75, "duration": 116}, {"note": 71, "velocity": 75, "duration": 116}, {"note": 69, "velocity": 62, "duration": 116}, {"note": 69, "velocity": 70, "duration": 116}, {"note": 67, "velocity": 63, "duration": 116}, {"note": 69, "velocity": 66, "duration": 116}, {"note": 71, "velocity": 63, "duration": 236}, {"note": 69, "velocity": 66, "duration": 110}, {"note": 67, "velocity": 63, "duration": 116}, {"note": 67, "velocity": 62, "duration": 116}, {"note": 67, "velocity": 70, "duration": 116}, {"note": 66, "velocity": 60, "duration": 116}, {"note": 66, "velocity": 72, "duration": 116}, {"note": 64, "velocity": 67, "duration": 116}, {"note": 66, "velocity": 56, "duration": 116}, {"note": 67, "velocity": 64, "duration": 236}, {"note": 66, "velocity": 60, "duration": 476}, {"note": 62, "velocity": 55, "duration": 91}, {"note": 64, "velocity": 78, "duration": 356}, {"note": 64, "velocity": 78, "duration": 116}, {"note": 64, "velocity": 78, "duration": 116}, {"note": 67, "velocity": 88, "duration": 236}, {"note": 76, "velocity": 75, "duration": 116}, {"note": 74, "velocity": 103, "duration": 236}, {"note": 74, "velocity": 103, "duration": 116}, {"note": 67, "velocity": 85, "duration": 476}, {"note": 62, "velocity": 67, "duration": 116}, {"note": 64, "velocity": 67, "duration": 236}, {"note": 67, "velocity": 93, "duration": 116}, {"note": 67, "velocity": 85, "duration": 116}, {"note": 67, "velocity": 73, "duration": 236}, {"note": 69, "velocity": 78, "duration": 116}, {"note": 69, "velocity": 85, "duration": 1316}, {"note": 71, "velocity": 58, "duration": 116}, {"note": 71, "velocity": 75, "duration": 116}, {"note": 71, "velocity": 75, "duration": 116}, {"note": 69, "velocity": 62, "duration": 116}, {"note": 69, "velocity": 70, "duration": 116}, {"note": 67, "velocity": 63, "duration": 116}, {"note": 69, "velocity": 66, "duration": 116}, {"note": 71, "velocity": 63, "duration": 236}, {"note": 69, "velocity": 66, "duration": 110}, {"note": 67, "velocity": 63, "duration": 116}, {"note": 67, "velocity": 62, "duration": 116}, {"note": 67, "velocity": 70, "duration": 116}, {"note": 66, "velocity": 60, "duration": 116}, {"note": 66, "velocity": 72, "duration": 116}, {"note": 64, "velocity": 67, "duration": 116}, {"note": 66, "velocity": 56, "duration": 116}, {"note": 67, "velocity": 64, "duration": 236}, {"note": 66, "velocity": 60, "duration": 476}, {"note": 62, "velocity": 55, "duration": 91}, {"note": 64, "velocity": 78, "duration": 356}, {"note": 64, "velocity": 78, "duration": 116}, {"note": 64, "velocity": 78, "duration": 116}, {"note": 67, "velocity": 88, "duration": 236}, {"note": 76, "velocity": 75, "duration": 116}, {"note": 74, "velocity": 82, "duration": 236}, {"note": 74, "velocity": 82, "duration": 116}, {"note": 67, "velocity": 85, "duration": 476}, {"note": 62, "velocity": 67, "duration": 116}, {"note": 64, "velocity": 67, "duration": 236}, {"note": 67, "velocity": 93, "duration": 116}, {"note": 67, "velocity": 85, "duration": 116}, {"note": 67, "velocity": 73, "duration": 236}, {"note": 69, "velocity": 78, "duration": 116}, {"note": 69, "velocity": 85, "duration": 836}, {"note": 67, "velocity": 75, "duration": 116}, {"note": 69, "velocity": 78, "duration": 0}, {"note": 69, "velocity": 76, "duration": 116}, {"note": 71, "velocity": 72, "duration": 116}, {"note": 71, "velocity": 75, "duration": 116}, {"note": 71, "velocity": 69, "duration": 116}, {"note": 71, "velocity": 78, "duration": 180}, {"note": 69, "velocity": 91, "duration": 163}, {"note": 0, "velocity": 0, "duration": 77}, {"note": 67, "velocity": 66, "duration": 96}, {"note": 69, "velocity": 91, "duration": 128}, {"note": 71, "velocity": 69, "duration": 219}, {"note": 69, "velocity": 72, "duration": 436}, {"note": 62, "velocity": 80, "duration": 116}, {"note": 64, "velocity": 75, "duration": 64}, {"note": 67, "velocity": 72, "duration": 166}, {"note": 67, "velocity": 75, "duration": 46}, {"note": 0, "velocity": 0, "duration": 74}, {"note": 67, "velocity": 80, "duration": 236}, {"note": 64, "velocity": 73, "duration": 116}, {"note": 62, "velocity": 66, "duration": 606}, {"note": 67, "velocity": 73, "duration": 116}, {"note": 69, "velocity": 73, "duration": 15}, {"note": 71, "velocity": 76, "duration": 5}, {"note": 71, "velocity": 76, "duration": 116}, {"note": 71, "velocity": 76, "duration": 116}, {"note": 71, "velocity": 85, "duration": 116}, {"note": 71, "velocity": 93, "duration": 116}, {"note": 76, "velocity": 81, "duration": 27}, {"note": 74, "velocity": 79, "duration": 115}, {"note": 74, "velocity": 74, "duration": 129}, {"note": 71, "velocity": 66, "duration": 15}, {"note": 71, "velocity": 85, "duration": 116}, {"note": 72, "velocity": 76, "duration": 8}, {"note": 72, "velocity": 85, "duration": 116}, {"note": 71, "velocity": 85, "duration": 116}, {"note": 72, "velocity": 91, "duration": 116}, {"note": 74, "velocity": 95, "duration": 356}, {"note": 74, "velocity": 97, "duration": 525}, {"note": 0, "velocity": 0, "duration": 1921}, {"note": 67, "velocity": 99, "duration": 116}, {"note": 69, "velocity": 80, "duration": 116}, {"note": 69, "velocity": 93, "duration": 85}, {"note": 71, "velocity": 88, "duration": 61}, {"note": 71, "velocity": 82, "duration": 116}, {"note": 71, "velocity": 95, "duration": 116}, {"note": 71, "velocity": 95, "duration": 476}, {"note": 69, "velocity": 88, "duration": 107}, {"note": 74, "velocity": 72, "duration": 116}, {"note": 74, "velocity": 80, "duration": 116}, {"note": 74, "velocity": 85, "duration": 116}, {"note": 74, "velocity": 97, "duration": 356}, {"note": 74, "velocity": 93, "duration": 116}, {"note": 79, "velocity": 78, "duration": 102}, {"note": 79, "velocity": 82, "duration": 110}, {"note": 79, "velocity": 78, "duration": 116}, {"note": 79, "velocity": 85, "duration": 116}, {"note": 79, "velocity": 91, "duration": 236}, {"note": 76, "velocity": 93, "duration": 116}, {"note": 79, "velocity": 76, "duration": 116}, {"note": 76, "velocity": 93, "duration": 121}, {"note": 74, "velocity": 85, "duration": 596}, {"note": 67, "velocity": 76, "duration": 116}, {"note": 67, "velocity": 82, "duration": 14}, {"note": 76, "velocity": 88, "duration": 116}, {"note": 76, "velocity": 78, "duration": 116}, {"note": 76, "velocity": 85, "duration": 116}, {"note": 76, "velocity": 93, "duration": 236}, {"note": 74, "velocity": 75, "duration": 116}, {"note": 71, "velocity": 95, "duration": 5}, {"note": 71, "velocity": 97, "duration": 13}, {"note": 69, "velocity": 66, "duration": 116}, {"note": 67, "velocity": 80, "duration": 356}, {"note": 62, "velocity": 78, "duration": 116}, {"note": 62, "velocity": 88, "duration": 5}, {"note": 64, "velocity": 78, "duration": 99}, {"note": 67, "velocity": 88, "duration": 116}, {"note": 67, "velocity": 82, "duration": 236}, {"note": 71, "velocity": 75, "duration": 51}, {"note": 69, "velocity": 93, "duration": 686}, {"note": 67, "velocity": 99, "duration": 116}, {"note": 69, "velocity": 80, "duration": 44}, {"note": 69, "velocity": 93, "duration": 79}, {"note": 71, "velocity": 88, "duration": 116}, {"note": 71, "velocity": 82, "duration": 116}, {"note": 71, "velocity": 95, "duration": 116}, {"note": 71, "velocity": 95, "duration": 79}, {"note": 69, "velocity": 88, "duration": 48}, {"note": 74, "velocity": 72, "duration": 116}, {"note": 74, "velocity": 80, "duration": 116}, {"note": 74, "velocity": 85, "duration": 116}, {"note": 74, "velocity": 97, "duration": 356}, {"note": 74, "velocity": 93, "duration": 116}, {"note": 79, "velocity": 78, "duration": 107}, {"note": 79, "velocity": 82, "duration": 96}, {"note": 79, "velocity": 78, "duration": 116}, {"note": 79, "velocity": 85, "duration": 116}, {"note": 79, "velocity": 91, "duration": 236}, {"note": 76, "velocity": 93, "duration": 116}, {"note": 79, "velocity": 76, "duration": 14}, {"note": 76, "velocity": 93, "duration": 140}, {"note": 74, "velocity": 85, "duration": 120}, {"note": 74, "velocity": 85, "duration": 120}, {"note": 0, "velocity": 0, "duration": 360}, {"note": 67, "velocity": 76, "duration": 116}, {"note": 67, "velocity": 82, "duration": 17}, {"note": 76, "velocity": 88, "duration": 116}, {"note": 76, "velocity": 78, "duration": 116}, {"note": 76, "velocity": 85, "duration": 116}, {"note": 76, "velocity": 93, "duration": 236}, {"note": 74, "velocity": 75, "duration": 116}, {"note": 71, "velocity": 95, "duration": 0}, {"note": 71, "velocity": 97, "duration": 137}, {"note": 69, "velocity": 66, "duration": 116}, {"note": 67, "velocity": 80, "duration": 356}, {"note": 0, "velocity": 0, "duration": 124}, {"note": 62, "velocity": 88, "duration": 101}, {"note": 64, "velocity": 78, "duration": 219}, {"note": 67, "velocity": 88, "duration": 116}, {"note": 67, "velocity": 82, "duration": 236}, {"note": 71, "velocity": 75, "duration": 356}, {"note": 69, "velocity": 93, "duration": 683}, {"note": 69, "velocity": 93, "duration": 114}, {"note": 71, "velocity": 78, "duration": 127}, {"note": 69, "velocity": 80, "duration": 92}, {"note": 67, "velocity": 80, "duration": 96}, {"note": 67, "velocity": 78, "duration": 47}, {"note": 0, "velocity": 0, "duration": 81}, {"note": 67, "velocity": 99, "duration": 116}, {"note": 69, "velocity": 80, "duration": 116}, {"note": 69, "velocity": 93, "duration": 85}, {"note": 71, "velocity": 88, "duration": 61}, {"note": 71, "velocity": 82, "duration": 116}, {"note": 71, "velocity": 95, "duration": 116}, {"note": 71, "velocity": 95, "duration": 476}, {"note": 69, "velocity": 88, "duration": 107}, {"note": 74, "velocity": 72, "duration": 116}, {"note": 74, "velocity": 80, "duration": 116}, {"note": 74, "velocity": 85, "duration": 116}, {"note": 74, "velocity": 97, "duration": 356}, {"note": 74, "velocity": 93, "duration": 116}, {"note": 79, "velocity": 78, "duration": 102}, {"note": 79, "velocity": 82, "duration": 110}, {"note": 79, "velocity": 78, "duration": 116}, {"note": 79, "velocity": 85, "duration": 116}, {"note": 79, "velocity": 91, "duration": 236}, {"note": 76, "velocity": 93, "duration": 116}, {"note": 79, "velocity": 76, "duration": 116}, {"note": 76, "velocity": 93, "duration": 121}, {"note": 74, "velocity": 85, "duration": 596}, {"note": 67, "velocity": 76, "duration": 116}, {"note": 67, "velocity": 82, "duration": 14}, {"note": 76, "velocity": 88, "duration": 116}, {"note": 76, "velocity": 78, "duration": 116}, {"note": 76, "velocity": 85, "duration": 116}, {"note": 76, "velocity": 93, "duration": 236}, {"note": 74, "velocity": 75, "duration": 116}, {"note": 71, "velocity": 95, "duration": 5}, {"note": 71, "velocity": 97, "duration": 13}, {"note": 69, "velocity": 66, "duration": 116}, {"note": 67, "velocity": 80, "duration": 356}, {"note": 62, "velocity": 78, "duration": 116}, {"note": 62, "velocity": 88, "duration": 5}, {"note": 64, "velocity": 78, "duration": 99}, {"note": 67, "velocity": 88, "duration": 116}, {"note": 67, "velocity": 82, "duration": 236}, {"note": 71, "velocity": 75, "duration": 51}, {"note": 69, "velocity": 93, "duration": 686}, {"note": 67, "velocity": 99, "duration": 116}, {"note": 69, "velocity": 80, "duration": 44}, {"note": 69, "velocity": 93, "duration": 79}, {"note": 71, "velocity": 88, "duration": 116}, {"note": 71, "velocity": 82, "duration": 116}, {"note": 71, "velocity": 95, "duration": 116}, {"note": 71, "velocity": 95, "duration": 79}, {"note": 69, "velocity": 88, "duration": 48}, {"note": 74, "velocity": 72, "duration": 116}, {"note": 74, "velocity": 80, "duration": 116}, {"note": 74, "velocity": 85, "duration": 116}, {"note": 74, "velocity": 97, "duration": 356}, {"note": 74, "velocity": 93, "duration": 116}, {"note": 79, "velocity": 78, "duration": 107}, {"note": 79, "velocity": 82, "duration": 96}, {"note": 79, "velocity": 78, "duration": 116}, {"note": 79, "velocity": 85, "duration": 116}, {"note": 79, "velocity": 91, "duration": 236}, {"note": 79, "velocity": 93, "duration": 116}, {"note": 81, "velocity": 76, "duration": 14}, {"note": 83, "velocity": 93, "duration": 140}, {"note": 76, "velocity": 85, "duration": 120}, {"note": 74, "velocity": 85, "duration": 120}, {"note": 0, "velocity": 0, "duration": 360}, {"note": 67, "velocity": 76, "duration": 116}, {"note": 67, "velocity": 82, "duration": 17}, {"note": 76, "velocity": 88, "duration": 116}, {"note": 76, "velocity": 78, "duration": 116}, {"note": 76, "velocity": 85, "duration": 116}, {"note": 76, "velocity": 93, "duration": 236}, {"note": 74, "velocity": 75, "duration": 116}, {"note": 71, "velocity": 95, "duration": 0}, {"note": 71, "velocity": 97, "duration": 137}, {"note": 69, "velocity": 66, "duration": 116}, {"note": 67, "velocity": 80, "duration": 356}, {"note": 0, "velocity": 0, "duration": 124}, {"note": 62, "velocity": 88, "duration": 101}, {"note": 64, "velocity": 78, "duration": 219}, {"note": 67, "velocity": 88, "duration": 116}, {"note": 67, "velocity": 82, "duration": 236}, {"note": 71, "velocity": 75, "duration": 356}, {"note": 69, "velocity": 93, "duration": 683}, {"note": 69, "velocity": 93, "duration": 114}, {"note": 71, "velocity": 78, "duration": 127}, {"note": 69, "velocity": 80, "duration": 92}, {"note": 67, "velocity": 80, "duration": 96}, {"note": 67, "velocity": 78, "duration": 47}, {"note": 0, "velocity": 0, "duration": 80}, {"note": 62, "velocity": 67, "duration": 59}, {"note": 0, "velocity": 0, "duration": 61}, {"note": 62, "velocity": 72, "duration": 173}, {"note": 64, "velocity": 73, "duration": 205}, {"note": 67, "velocity": 69, "duration": 110}, {"note": 67, "velocity": 66, "duration": 85}, {"note": 67, "velocity": 64, "duration": 141}, {"note": 71, "velocity": 70, "duration": 177}, {"note": 69, "velocity": 64, "duration": 516}, {"note": 0, "velocity": 0, "duration": 357}, {"note": 69, "velocity": 62, "duration": 136}, {"note": 71, "velocity": 72, "duration": 165}, {"note": 69, "velocity": 70, "duration": 208}, {"note": 67, "velocity": 69, "duration": 84}, {"note": 67, "velocity": 64, "duration": 545}]]