[[{"note": 62, "velocity": 70, "duration": 236}, {"note": 64, "velocity": 64, "duration": 236}, {"note": 67, "velocity": 57, "duration": 236}, {"note": 67, "velocity": 59, "duration": 236}, {"note": 67, "velocity": 72, "duration": 236}, {"note": 64, "velocity": 63, "duration": 116}, {"note": 69, "velocity": 48, "duration": 596}, {"note": 64, "velocity": 66, "duration": 236}, {"note": 62, "velocity": 64, "duration": 236}, {"note": 71, "velocity": 66, "duration": 236}, {"note": 71, "velocity": 64, "duration": 236}, {"note": 69, "velocity": 62, "duration": 236}, {"note": 69, "velocity": 72, "duration": 116}, {"note": 67, "velocity": 56, "duration": 836}, {"note": 62, "velocity": 59, "duration": 236}, {"note": 74, "velocity": 67, "duration": 236}, {"note": 74, "velocity": 91, "duration": 236}, {"note": 74, "velocity": 82, "duration": 236}, {"note": 71, "velocity": 82, "duration": 236}, {"note": 76, "velocity": 76, "duration": 476}, {"note": 74, "velocity": 75, "duration": 356}, {"note": 76, "velocity": 85, "duration": 116}, {"note": 74, "velocity": 88, "duration": 236}, {"note": 71, "velocity": 91, "duration": 1196}, {"note": 64, "velocity": 73, "duration": 236}, {"note": 67, "velocity": 69, "duration": 236}, {"note": 69, "velocity": 70, "duration": 236}, {"note": 69, "velocity": 80, "duration": 236}, {"note": 67, "velocity": 76, "duration": 236}, {"note": 69, "velocity": 88, "duration": 716}, {"note": 69, "velocity": 85, "duration": 236}, {"note": 67, "velocity": 53, "duration": 236}, {"note": 71, "velocity": 60, "duration": 236}, {"note": 69, "velocity": 82, "duration": 236}, {"note": 67, "velocity": 69, "duration": 236}, {"note": 67, "velocity": 72, "duration": 116}, {"note": 64, "velocity": 72, "duration": 836}, {"note": 62, "velocity": 88, "duration": 236}, {"note": 74, "velocity": 60, "duration": 236}, {"note": 71, "velocity": 69, "duration": 956}, {"note": 71, "velocity": 69, "duration": 236}, {"note": 71, "velocity": 64, "duration": 476}, {"note": 71, "velocity": 75, "duration": 236}, {"note": 69, "velocity": 80, "duration": 1196}, {"note": 62, "velocity": 70, "duration": 236}, {"note": 64, "velocity": 64, "duration": 236}, {"note": 67, "velocity": 57, "duration": 236}, {"note": 67, "velocity": 59, "duration": 236}, {"note": 67, "velocity": 72, "duration": 236}, {"note": 64, "velocity": 63, "duration": 116}, {"note": 69, "velocity": 48, "duration": 596}, {"note": 64, "velocity": 66, "duration": 236}, {"note": 62, "velocity": 64, "duration": 236}, {"note": 71, "velocity": 66, "duration": 236}, {"note": 71, "velocity": 64, "duration": 236}, {"note": 69, "velocity": 62, "duration": 236}, {"note": 69, "velocity": 72, "duration": 116}, {"note": 67, "velocity": 56, "duration": 836}, {"note": 62, "velocity": 59, "duration": 236}, {"note": 74, "velocity": 67, "duration": 236}, {"note": 74, "velocity": 91, "duration": 236}, {"note": 74, "velocity": 82, "duration": 236}, {"note": 71, "velocity": 82, "duration": 236}, {"note": 76, "velocity": 76, "duration": 476}, {"note": 74, "velocity": 75, "duration": 356}, {"note": 76, "velocity": 85, "duration": 116}, {"note": 74, "velocity": 88, "duration": 236}, {"note": 71, "velocity": 91, "duration": 1196}, {"note": 64, "velocity": 73, "duration": 236}, {"note": 67, "velocity": 69, "duration": 236}, {"note": 69, "velocity": 70, "duration": 236}, {"note": 69, "velocity": 80, "duration": 236}, {"note": 67, "velocity": 76, "duration": 236}, {"note": 69, "velocity": 88, "duration": 716}, {"note": 69, "velocity": 85, "duration": 236}, {"note": 67, "velocity": 53, "duration": 236}, {"note": 71, "velocity": 60, "duration": 236}, {"note": 69, "velocity": 82, "duration": 236}, {"note": 67, "velocity": 69, "duration": 236}, {"note": 67, "velocity": 72, "duration": 116}, {"note": 64, "velocity": 72, "duration": 836}, {"note": 62, "velocity": 88, "duration": 236}, {"note": 74, "velocity": 60, "duration": 236}, {"note": 71, "velocity": 69, "duration": 956}, {"note": 69, "velocity": 97, "duration": 236}, {"note": 67, "velocity": 93, "duration": 236}, {"note": 64, "velocity": 88, "duration": 236}, {"note": 67, "velocity": 99, "duration": 1436}, {"note": 67, "velocity": 103, "duration": 236}, {"note": 69, "velocity": 99, "duration": 236}, {"note": 71, "velocity": 106, "duration": 1436}, {"note": 69, "velocity": 101, "duration": 236}, {"note": 67, "velocity": 95, "duration": 236}, {"note": 69, "velocity": 103, "duration": 236}, {"note": 64, "velocity": 99, "duration": 1196}, {"note": 67, "velocity": 91, "duration": 236}, {"note": 69, "velocity": 91, "duration": 236}, {"note": 71, "velocity": 101, "duration": 476}, {"note": 71, "velocity": 99, "duration": 356}, {"note": 74, "velocity": 101, "duration": 116}, {"note": 76, "velocity": 99, "duration": 236}, {"note": 76, "velocity": 101, "duration": 236}, {"note": 74, "velocity": 93, "duration": 236}, {"note": 71, "velocity": 101, "duration": 236}, {"note": 74, "velocity": 109, "duration": 1436}, {"note": 74, "velocity": 103, "duration": 236}, {"note": 71, "velocity": 93, "duration": 236}, {"note": 76, "velocity": 109, "duration": 236}, {"note": 74, "velocity": 106, "duration": 236}, {"note": 69, "velocity": 101, "duration": 236}, {"note": 71, "velocity": 101, "duration": 716}, {"note": 69, "velocity": 93, "duration": 236}, {"note": 67, "velocity": 93, "duration": 236}, {"note": 71, "velocity": 91, "duration": 236}, {"note": 69, "velocity": 97, "duration": 236}, {"note": 67, "velocity": 91, "duration": 236}, {"note": 64, "velocity": 95, "duration": 956}, {"note": 62, "velocity": 82, "duration": 236}, {"note": 74, "velocity": 80, "duration": 236}, {"note": 71, "velocity": 88, "duration": 956}, {"note": 71, "velocity": 66, "duration": 236}, {"note": 69, "velocity": 91, "duration": 476}, {"note": 69, "velocity": 88, "duration": 236}, {"note": 67, "velocity": 95, "duration": 1676}, {"note": 62, "velocity": 70, "duration": 236}, {"note": 64, "velocity": 64, "duration": 236}, {"note": 67, "velocity": 57, "duration": 236}, {"note": 67, "velocity": 59, "duration": 236}, {"note": 67, "velocity": 72, "duration": 236}, {"note": 64, "velocity": 63, "duration": 116}, {"note": 69, "velocity": 48, "duration": 596}, {"note": 64, "velocity": 66, "duration": 236}, {"note": 62, "velocity": 64, "duration": 236}, {"note": 71, "velocity": 66, "duration": 236}, {"note": 71, "velocity": 64, "duration": 236}, {"note": 69, "velocity": 62, "duration": 236}, {"note": 69, "velocity": 72, "duration": 116}, {"note": 67, "velocity": 56, "duration": 836}, {"note": 62, "velocity": 59, "duration": 236}, {"note": 74, "velocity": 67, "duration": 236}, {"note": 74, "velocity": 91, "duration": 236}, {"note": 74, "velocity": 82, "duration": 236}, {"note": 71, "velocity": 82, "duration": 236}, {"note": 76, "velocity": 76, "duration": 476}, {"note": 74, "velocity": 75, "duration": 356}, {"note": 76, "velocity": 85, "duration": 116}, {"note": 74, "velocity": 88, "duration": 236}, {"note": 71, "velocity": 91, "duration": 1196}, {"note": 64, "velocity": 73, "duration": 236}, {"note": 67, "velocity": 69, "duration": 236}, {"note": 69, "velocity": 70, "duration": 236}, {"note": 69, "velocity": 80, "duration": 236}, {"note": 67, "velocity": 76, "duration": 236}, {"note": 69, "velocity": 88, "duration": 716}, {"note": 69, "velocity": 85, "duration": 236}, {"note": 67, "velocity": 53, "duration": 236}, {"note": 71, "velocity": 60, "duration": 236}, {"note": 69, "velocity": 82, "duration": 236}, {"note": 67, "velocity": 69, "duration": 236}, {"note": 67, "velocity": 72, "duration": 116}, {"note": 64, "velocity": 72, "duration": 836}, {"note": 62, "velocity": 88, "duration": 236}, {"note": 74, "velocity": 60, "duration": 236}, {"note": 71, "velocity": 69, "duration": 956}, {"note": 69, "velocity": 97, "duration": 236}, {"note": 67, "velocity": 93, "duration": 236}, {"note": 64, "velocity": 88, "duration": 236}, {"note": 67, "velocity": 99, "duration": 1436}, {"note": 0, "velocity": 0, "duration": 15364}, {"note": 67, "velocity": 103, "duration": 236}, {"note": 69, "velocity": 99, "duration": 236}, {"note": 71, "velocity": 106, "duration": 1436}, {"note": 69, "velocity": 101, "duration": 236}, {"note": 67, "velocity": 95, "duration": 236}, {"note": 69, "velocity": 103, "duration": 236}, {"note": 64, "velocity": 99, "duration": 1196}, {"note": 67, "velocity": 91, "duration": 236}, {"note": 69, "velocity": 91, "duration": 236}, {"note": 71, "velocity": 101, "duration": 476}, {"note": 71, "velocity": 99, "duration": 356}, {"note": 74, "velocity": 101, "duration": 116}, {"note": 76, "velocity": 99, "duration": 236}, {"note": 76, "velocity": 101, "duration": 236}, {"note": 74, "velocity": 93, "duration": 236}, {"note": 71, "velocity": 101, "duration": 236}, {"note": 74, "velocity": 109, "duration": 1436}, {"note": 74, "velocity": 103, "duration": 236}, {"note": 71, "velocity": 93, "duration": 236}, {"note": 76, "velocity": 109, "duration": 236}, {"note": 74, "velocity": 106, "duration": 236}, {"note": 69, "velocity": 101, "duration": 236}, {"note": 71, "velocity": 101, "duration": 716}, {"note": 69, "velocity": 93, "duration": 236}, {"note": 67, "velocity": 93, "duration": 236}, {"note": 71, "velocity": 91, "duration": 236}, {"note": 69, "velocity": 97, "duration": 236}, {"note": 67, "velocity": 91, "duration": 236}, {"note": 64, "velocity": 95, "duration": 956}, {"note": 62, "velocity": 82, "duration": 236}, {"note": 74, "velocity": 80, "duration": 236}, {"note": 71, "velocity": 88, "duration": 956}, {"note": 71, "velocity": 66, "duration": 236}, {"note": 69, "velocity": 91, "duration": 476}, {"note": 69, "velocity": 88, "duration": 236}, {"note": 67, "velocity": 95, "duration": 1200}, {"note": 63, "velocity": 56, "duration": 330}, {"note": 65, "velocity": 56, "duration": 330}, {"note": 68, "velocity": 57, "duration": 236}, {"note": 68, "velocity": 59, "duration": 236}, {"note": 68, "velocity": 72, "duration": 236}, {"note": 65, "velocity": 63, "duration": 116}, {"note": 70, "velocity": 48, "duration": 596}, {"note": 65, "velocity": 66, "duration": 236}, {"note": 63, "velocity": 64, "duration": 236}, {"note": 72, "velocity": 66, "duration": 236}, {"note": 72, "velocity": 64, "duration": 236}, {"note": 70, "velocity": 62, "duration": 236}, {"note": 70, "velocity": 72, "duration": 116}, {"note": 68, "velocity": 56, "duration": 836}, {"note": 63, "velocity": 59, "duration": 236}, {"note": 75, "velocity": 67, "duration": 236}, {"note": 75, "velocity": 91, "duration": 236}, {"note": 75, "velocity": 82, "duration": 236}, {"note": 72, "velocity": 82, "duration": 236}, {"note": 77, "velocity": 76, "duration": 476}, {"note": 75, "velocity": 75, "duration": 356}, {"note": 77, "velocity": 85, "duration": 116}, {"note": 75, "velocity": 88, "duration": 236}, {"note": 72, "velocity": 91, "duration": 1196}, {"note": 65, "velocity": 73, "duration": 236}, {"note": 68, "velocity": 69, "duration": 236}, {"note": 70, "velocity": 70, "duration": 236}, {"note": 70, "velocity": 80, "duration": 236}, {"note": 68, "velocity": 76, "duration": 236}, {"note": 70, "velocity": 88, "duration": 716}, {"note": 70, "velocity": 85, "duration": 236}, {"note": 68, "velocity": 53, "duration": 236}, {"note": 72, "velocity": 60, "duration": 236}, {"note": 70, "velocity": 82, "duration": 236}, {"note": 68, "velocity": 69, "duration": 236}, {"note": 68, "velocity": 72, "duration": 116}, {"note": 65, "velocity": 72, "duration": 836}, {"note": 63, "velocity": 88, "duration": 236}, {"note": 75, "velocity": 60, "duration": 236}, {"note": 72, "velocity": 69, "duration": 956}, {"note": 72, "velocity": 97, "duration": 236}, {"note": 72, "velocity": 93, "duration": 236}, {"note": 72, "velocity": 88, "duration": 236}, {"note": 70, "velocity": 99, "duration": 1436}, {"note": 63, "velocity": 56, "duration": 330}, {"note": 65, "velocity": 56, "duration": 330}, {"note": 68, "velocity": 57, "duration": 236}, {"note": 68, "velocity": 59, "duration": 236}, {"note": 68, "velocity": 72, "duration": 236}, {"note": 65, "velocity": 63, "duration": 116}, {"note": 70, "velocity": 48, "duration": 596}, {"note": 65, "velocity": 66, "duration": 236}, {"note": 63, "velocity": 64, "duration": 236}, {"note": 72, "velocity": 66, "duration": 236}, {"note": 72, "velocity": 64, "duration": 236}, {"note": 70, "velocity": 62, "duration": 236}, {"note": 70, "velocity": 72, "duration": 116}, {"note": 68, "velocity": 56, "duration": 836}, {"note": 63, "velocity": 59, "duration": 236}, {"note": 75, "velocity": 67, "duration": 236}, {"note": 75, "velocity": 91, "duration": 236}, {"note": 75, "velocity": 82, "duration": 236}, {"note": 72, "velocity": 82, "duration": 236}, {"note": 77, "velocity": 76, "duration": 476}, {"note": 75, "velocity": 75, "duration": 356}, {"note": 77, "velocity": 85, "duration": 116}, {"note": 75, "velocity": 88, "duration": 236}, {"note": 72, "velocity": 91, "duration": 1196}, {"note": 65, "velocity": 73, "duration": 236}, {"note": 68, "velocity": 69, "duration": 236}, {"note": 70, "velocity": 70, "duration": 236}, {"note": 70, "velocity": 80, "duration": 236}, {"note": 68, "velocity": 76, "duration": 236}, {"note": 70, "velocity": 88, "duration": 716}, {"note": 70, "velocity": 85, "duration": 236}, {"note": 68, "velocity": 53, "duration": 236}, {"note": 72, "velocity": 60, "duration": 236}, {"note": 70, "velocity": 82, "duration": 236}, {"note": 68, "velocity": 69, "duration": 236}, {"note": 68, "velocity": 72, "duration": 116}, {"note": 65, "velocity": 72, "duration": 836}, {"note": 63, "velocity": 88, "duration": 236}, {"note": 75, "velocity": 60, "duration": 236}, {"note": 72, "velocity": 69, "duration": 956}, {"note": 70, "velocity": 97, "duration": 236}, {"note": 68, "velocity": 93, "duration": 236}, {"note": 65, "velocity": 88, "duration": 236}, {"note": 68, "velocity": 99, "duration": 1436}]]