[[{"note": 70, "velocity": 92, "duration": 476}, {"note": 73, "velocity": 98, "duration": 476}, {"note": 73, "velocity": 94, "duration": 716}, {"note": 73, "velocity": 80, "duration": 236}, {"note": 73, "velocity": 91, "duration": 476}, {"note": 75, "velocity": 80, "duration": 476}, {"note": 73, "velocity": 83, "duration": 236}, {"note": 70, "velocity": 83, "duration": 716}, {"note": 70, "velocity": 91, "duration": 476}, {"note": 68, "velocity": 85, "duration": 476}, {"note": 66, "velocity": 66, "duration": 716}, {"note": 66, "velocity": 77, "duration": 236}, {"note": 68, "velocity": 70, "duration": 476}, {"note": 63, "velocity": 70, "duration": 476}, {"note": 61, "velocity": 63, "duration": 956}, {"note": 61, "velocity": 78, "duration": 476}, {"note": 63, "velocity": 78, "duration": 476}, {"note": 66, "velocity": 70, "duration": 716}, {"note": 66, "velocity": 67, "duration": 236}, {"note": 66, "velocity": 83, "duration": 476}, {"note": 68, "velocity": 82, "duration": 476}, {"note": 70, "velocity": 82, "duration": 476}, {"note": 70, "velocity": 86, "duration": 236}, {"note": 70, "velocity": 99, "duration": 236}, {"note": 68, "velocity": 87, "duration": 476}, {"note": 70, "velocity": 78, "duration": 476}, {"note": 68, "velocity": 82, "duration": 1916}, {"note": 0, "velocity": 0, "duration": 964}, {"note": 70, "velocity": 80, "duration": 487}, {"note": 73, "velocity": 86, "duration": 385}, {"note": 0, "velocity": 0, "duration": 95}, {"note": 73, "velocity": 77, "duration": 808}, {"note": 0, "velocity": 0, "duration": 152}, {"note": 73, "velocity": 84, "duration": 484}, {"note": 75, "velocity": 77, "duration": 548}, {"note": 73, "velocity": 79, "duration": 341}, {"note": 70, "velocity": 82, "duration": 568}, {"note": 0, "velocity": 0, "duration": 152}, {"note": 70, "velocity": 81, "duration": 470}, {"note": 68, "velocity": 81, "duration": 510}, {"note": 66, "velocity": 66, "duration": 103}, {"note": 0, "velocity": 0, "duration": 617}, {"note": 66, "velocity": 77, "duration": 304}, {"note": 68, "velocity": 83, "duration": 493}, {"note": 63, "velocity": 70, "duration": 487}, {"note": 61, "velocity": 76, "duration": 778}, {"note": 0, "velocity": 0, "duration": 182}, {"note": 61, "velocity": 80, "duration": 538}, {"note": 63, "velocity": 70, "duration": 510}, {"note": 66, "velocity": 77, "duration": 887}, {"note": 0, "velocity": 0, "duration": 553}, {"note": 68, "velocity": 82, "duration": 218}, {"note": 0, "velocity": 0, "duration": 262}, {"note": 70, "velocity": 86, "duration": 264}, {"note": 0, "velocity": 0, "duration": 216}, {"note": 70, "velocity": 81, "duration": 123}, {"note": 0, "velocity": 0, "duration": 117}, {"note": 70, "velocity": 78, "duration": 173}, {"note": 0, "velocity": 0, "duration": 67}, {"note": 68, "velocity": 80, "duration": 393}, {"note": 0, "velocity": 0, "duration": 87}, {"note": 66, "velocity": 67, "duration": 242}, {"note": 68, "velocity": 74, "duration": 288}, {"note": 66, "velocity": 70, "duration": 1050}, {"note": 0, "velocity": 0, "duration": 1830}, {"note": 70, "velocity": 80, "duration": 512}, {"note": 73, "velocity": 87, "duration": 538}, {"note": 75, "velocity": 79, "duration": 314}, {"note": 0, "velocity": 0, "duration": 166}, {"note": 75, "velocity": 80, "duration": 103}, {"note": 0, "velocity": 0, "duration": 137}, {"note": 75, "velocity": 80, "duration": 105}, {"note": 0, "velocity": 0, "duration": 135}, {"note": 75, "velocity": 80, "duration": 512}, {"note": 73, "velocity": 83, "duration": 560}, {"note": 70, "velocity": 84, "duration": 802}, {"note": 0, "velocity": 0, "duration": 158}, {"note": 68, "velocity": 85, "duration": 524}, {"note": 70, "velocity": 84, "duration": 411}, {"note": 0, "velocity": 0, "duration": 69}, {"note": 66, "velocity": 66, "duration": 113}, {"note": 0, "velocity": 0, "duration": 127}, {"note": 66, "velocity": 69, "duration": 112}, {"note": 0, "velocity": 0, "duration": 128}, {"note": 66, "velocity": 65, "duration": 103}, {"note": 0, "velocity": 0, "duration": 137}, {"note": 66, "velocity": 69, "duration": 113}, {"note": 0, "velocity": 0, "duration": 127}, {"note": 66, "velocity": 77, "duration": 548}, {"note": 68, "velocity": 81, "duration": 474}, {"note": 70, "velocity": 86, "duration": 594}, {"note": 0, "velocity": 0, "duration": 366}, {"note": 70, "velocity": 77, "duration": 401}, {"note": 0, "velocity": 0, "duration": 79}, {"note": 73, "velocity": 82, "duration": 410}, {"note": 0, "velocity": 0, "duration": 70}, {"note": 75, "velocity": 77, "duration": 119}, {"note": 0, "velocity": 0, "duration": 121}, {"note": 75, "velocity": 69, "duration": 105}, {"note": 0, "velocity": 0, "duration": 135}, {"note": 75, "velocity": 65, "duration": 94}, {"note": 0, "velocity": 0, "duration": 146}, {"note": 75, "velocity": 65, "duration": 106}, {"note": 0, "velocity": 0, "duration": 134}, {"note": 75, "velocity": 66, "duration": 459}, {"note": 73, "velocity": 77, "duration": 532}, {"note": 70, "velocity": 67, "duration": 119}, {"note": 0, "velocity": 0, "duration": 121}, {"note": 70, "velocity": 56, "duration": 82}, {"note": 0, "velocity": 0, "duration": 158}, {"note": 70, "velocity": 48, "duration": 74}, {"note": 0, "velocity": 0, "duration": 166}, {"note": 70, "velocity": 36, "duration": 76}, {"note": 0, "velocity": 0, "duration": 164}, {"note": 68, "velocity": 90, "duration": 244}, {"note": 66, "velocity": 66, "duration": 260}, {"note": 70, "velocity": 81, "duration": 491}, {"note": 68, "velocity": 83, "duration": 1885}, {"note": 0, "velocity": 0, "duration": 995}, {"note": 70, "velocity": 83, "duration": 418}, {"note": 0, "velocity": 0, "duration": 62}, {"note": 73, "velocity": 83, "duration": 375}, {"note": 0, "velocity": 0, "duration": 105}, {"note": 73, "velocity": 84, "duration": 570}, {"note": 0, "velocity": 0, "duration": 150}, {"note": 73, "velocity": 88, "duration": 106}, {"note": 0, "velocity": 0, "duration": 134}, {"note": 73, "velocity": 83, "duration": 514}, {"note": 75, "velocity": 77, "duration": 506}, {"note": 73, "velocity": 77, "duration": 250}, {"note": 70, "velocity": 74, "duration": 528}, {"note": 0, "velocity": 0, "duration": 192}, {"note": 70, "velocity": 84, "duration": 452}, {"note": 68, "velocity": 76, "duration": 472}, {"note": 66, "velocity": 64, "duration": 548}, {"note": 0, "velocity": 0, "duration": 172}, {"note": 66, "velocity": 69, "duration": 113}, {"note": 0, "velocity": 0, "duration": 127}, {"note": 66, "velocity": 70, "duration": 500}, {"note": 63, "velocity": 67, "duration": 488}, {"note": 61, "velocity": 69, "duration": 788}, {"note": 0, "velocity": 0, "duration": 172}, {"note": 61, "velocity": 73, "duration": 496}, {"note": 63, "velocity": 67, "duration": 525}, {"note": 66, "velocity": 79, "duration": 1476}, {"note": 68, "velocity": 86, "duration": 498}, {"note": 70, "velocity": 81, "duration": 284}, {"note": 0, "velocity": 0, "duration": 196}, {"note": 70, "velocity": 77, "duration": 111}, {"note": 0, "velocity": 0, "duration": 129}, {"note": 70, "velocity": 78, "duration": 117}, {"note": 0, "velocity": 0, "duration": 123}, {"note": 68, "velocity": 72, "duration": 423}, {"note": 66, "velocity": 61, "duration": 268}, {"note": 68, "velocity": 64, "duration": 286}, {"note": 66, "velocity": 66, "duration": 2026}, {"note": 0, "velocity": 0, "duration": 188}, {"note": 70, "velocity": 92, "duration": 476}, {"note": 73, "velocity": 98, "duration": 476}, {"note": 73, "velocity": 94, "duration": 716}, {"note": 73, "velocity": 80, "duration": 236}, {"note": 73, "velocity": 91, "duration": 476}, {"note": 75, "velocity": 80, "duration": 476}, {"note": 73, "velocity": 83, "duration": 236}, {"note": 70, "velocity": 83, "duration": 716}, {"note": 70, "velocity": 91, "duration": 476}, {"note": 68, "velocity": 85, "duration": 476}, {"note": 66, "velocity": 66, "duration": 716}, {"note": 66, "velocity": 77, "duration": 236}, {"note": 68, "velocity": 70, "duration": 476}, {"note": 63, "velocity": 70, "duration": 476}, {"note": 61, "velocity": 63, "duration": 956}, {"note": 61, "velocity": 78, "duration": 476}, {"note": 63, "velocity": 78, "duration": 476}, {"note": 66, "velocity": 70, "duration": 716}, {"note": 66, "velocity": 67, "duration": 236}, {"note": 66, "velocity": 83, "duration": 476}, {"note": 68, "velocity": 82, "duration": 476}, {"note": 70, "velocity": 82, "duration": 476}, {"note": 70, "velocity": 86, "duration": 236}, {"note": 70, "velocity": 99, "duration": 236}, {"note": 68, "velocity": 87, "duration": 476}, {"note": 70, "velocity": 78, "duration": 476}, {"note": 68, "velocity": 82, "duration": 1916}, {"note": 0, "velocity": 0, "duration": 964}, {"note": 70, "velocity": 80, "duration": 487}, {"note": 73, "velocity": 86, "duration": 385}, {"note": 0, "velocity": 0, "duration": 95}, {"note": 73, "velocity": 77, "duration": 808}, {"note": 0, "velocity": 0, "duration": 152}, {"note": 73, "velocity": 84, "duration": 484}, {"note": 75, "velocity": 77, "duration": 548}, {"note": 73, "velocity": 79, "duration": 341}, {"note": 70, "velocity": 82, "duration": 568}, {"note": 0, "velocity": 0, "duration": 152}, {"note": 70, "velocity": 81, "duration": 470}, {"note": 68, "velocity": 81, "duration": 510}, {"note": 66, "velocity": 66, "duration": 103}, {"note": 0, "velocity": 0, "duration": 617}, {"note": 66, "velocity": 77, "duration": 304}, {"note": 68, "velocity": 83, "duration": 493}, {"note": 63, "velocity": 70, "duration": 487}, {"note": 61, "velocity": 76, "duration": 778}, {"note": 0, "velocity": 0, "duration": 182}, {"note": 61, "velocity": 80, "duration": 538}, {"note": 63, "velocity": 70, "duration": 510}, {"note": 66, "velocity": 77, "duration": 887}, {"note": 0, "velocity": 0, "duration": 553}, {"note": 68, "velocity": 82, "duration": 218}, {"note": 0, "velocity": 0, "duration": 262}, {"note": 70, "velocity": 86, "duration": 264}, {"note": 0, "velocity": 0, "duration": 216}, {"note": 70, "velocity": 81, "duration": 123}, {"note": 0, "velocity": 0, "duration": 117}, {"note": 70, "velocity": 78, "duration": 173}, {"note": 0, "velocity": 0, "duration": 67}, {"note": 68, "velocity": 80, "duration": 393}, {"note": 0, "velocity": 0, "duration": 87}, {"note": 66, "velocity": 67, "duration": 242}, {"note": 68, "velocity": 74, "duration": 288}, {"note": 66, "velocity": 70, "duration": 1050}, {"note": 0, "velocity": 0, "duration": 1830}, {"note": 70, "velocity": 80, "duration": 1}, {"note": 0, "velocity": 0, "duration": 480}, {"note": 73, "velocity": 87, "duration": 537}, {"note": 75, "velocity": 79, "duration": 313}, {"note": 0, "velocity": 0, "duration": 166}, {"note": 75, "velocity": 80, "duration": 103}, {"note": 0, "velocity": 0, "duration": 137}, {"note": 75, "velocity": 80, "duration": 105}, {"note": 0, "velocity": 0, "duration": 135}, {"note": 75, "velocity": 80, "duration": 512}, {"note": 73, "velocity": 83, "duration": 560}, {"note": 70, "velocity": 84, "duration": 802}, {"note": 0, "velocity": 0, "duration": 158}, {"note": 68, "velocity": 85, "duration": 524}, {"note": 70, "velocity": 84, "duration": 411}, {"note": 0, "velocity": 0, "duration": 69}, {"note": 66, "velocity": 66, "duration": 113}, {"note": 0, "velocity": 0, "duration": 127}, {"note": 66, "velocity": 69, "duration": 112}, {"note": 0, "velocity": 0, "duration": 128}, {"note": 66, "velocity": 65, "duration": 103}, {"note": 0, "velocity": 0, "duration": 137}, {"note": 66, "velocity": 69, "duration": 113}, {"note": 0, "velocity": 0, "duration": 127}, {"note": 66, "velocity": 77, "duration": 548}, {"note": 68, "velocity": 81, "duration": 474}, {"note": 70, "velocity": 86, "duration": 594}, {"note": 0, "velocity": 0, "duration": 366}, {"note": 70, "velocity": 77, "duration": 401}, {"note": 0, "velocity": 0, "duration": 79}, {"note": 73, "velocity": 82, "duration": 410}, {"note": 0, "velocity": 0, "duration": 70}, {"note": 75, "velocity": 77, "duration": 119}, {"note": 0, "velocity": 0, "duration": 121}, {"note": 75, "velocity": 69, "duration": 105}, {"note": 0, "velocity": 0, "duration": 135}, {"note": 75, "velocity": 65, "duration": 94}, {"note": 0, "velocity": 0, "duration": 146}, {"note": 75, "velocity": 65, "duration": 106}, {"note": 0, "velocity": 0, "duration": 134}, {"note": 75, "velocity": 66, "duration": 459}, {"note": 73, "velocity": 77, "duration": 532}, {"note": 70, "velocity": 67, "duration": 119}, {"note": 0, "velocity": 0, "duration": 121}, {"note": 70, "velocity": 56, "duration": 82}, {"note": 0, "velocity": 0, "duration": 158}, {"note": 70, "velocity": 48, "duration": 74}, {"note": 0, "velocity": 0, "duration": 166}, {"note": 70, "velocity": 36, "duration": 76}, {"note": 0, "velocity": 0, "duration": 164}, {"note": 68, "velocity": 90, "duration": 244}, {"note": 66, "velocity": 66, "duration": 260}, {"note": 70, "velocity": 81, "duration": 491}, {"note": 68, "velocity": 83, "duration": 1885}, {"note": 0, "velocity": 0, "duration": 995}, {"note": 70, "velocity": 83, "duration": 418}, {"note": 0, "velocity": 0, "duration": 62}, {"note": 73, "velocity": 83, "duration": 375}, {"note": 0, "velocity": 0, "duration": 105}, {"note": 73, "velocity": 84, "duration": 570}, {"note": 0, "velocity": 0, "duration": 150}, {"note": 73, "velocity": 88, "duration": 106}, {"note": 0, "velocity": 0, "duration": 134}, {"note": 73, "velocity": 83, "duration": 514}, {"note": 75, "velocity": 77, "duration": 506}, {"note": 73, "velocity": 77, "duration": 250}, {"note": 70, "velocity": 74, "duration": 528}, {"note": 0, "velocity": 0, "duration": 192}, {"note": 70, "velocity": 84, "duration": 452}, {"note": 68, "velocity": 76, "duration": 472}, {"note": 66, "velocity": 64, "duration": 548}, {"note": 0, "velocity": 0, "duration": 172}, {"note": 66, "velocity": 69, "duration": 113}, {"note": 0, "velocity": 0, "duration": 127}, {"note": 66, "velocity": 70, "duration": 500}, {"note": 63, "velocity": 67, "duration": 488}, {"note": 61, "velocity": 69, "duration": 788}, {"note": 0, "velocity": 0, "duration": 172}, {"note": 61, "velocity": 73, "duration": 496}, {"note": 63, "velocity": 67, "duration": 525}, {"note": 66, "velocity": 79, "duration": 1476}, {"note": 68, "velocity": 86, "duration": 498}, {"note": 70, "velocity": 81, "duration": 284}, {"note": 0, "velocity": 0, "duration": 196}, {"note": 70, "velocity": 77, "duration": 111}, {"note": 0, "velocity": 0, "duration": 129}, {"note": 70, "velocity": 78, "duration": 117}, {"note": 0, "velocity": 0, "duration": 123}, {"note": 68, "velocity": 72, "duration": 423}, {"note": 66, "velocity": 61, "duration": 268}, {"note": 68, "velocity": 64, "duration": 286}, {"note": 66, "velocity": 66, "duration": 1920}, {"note": 0, "velocity": 0, "duration": 961}, {"note": 70, "velocity": 80, "duration": 333}, {"note": 0, "velocity": 0, "duration": 146}, {"note": 73, "velocity": 87, "duration": 538}, {"note": 75, "velocity": 79, "duration": 314}, {"note": 0, "velocity": 0, "duration": 166}, {"note": 75, "velocity": 80, "duration": 103}, {"note": 0, "velocity": 0, "duration": 137}, {"note": 75, "velocity": 80, "duration": 105}, {"note": 0, "velocity": 0, "duration": 135}, {"note": 75, "velocity": 80, "duration": 512}, {"note": 73, "velocity": 83, "duration": 560}, {"note": 70, "velocity": 84, "duration": 802}, {"note": 0, "velocity": 0, "duration": 158}, {"note": 68, "velocity": 85, "duration": 524}, {"note": 70, "velocity": 84, "duration": 411}, {"note": 0, "velocity": 0, "duration": 69}, {"note": 66, "velocity": 66, "duration": 113}, {"note": 0, "velocity": 0, "duration": 127}, {"note": 66, "velocity": 69, "duration": 112}, {"note": 0, "velocity": 0, "duration": 128}, {"note": 66, "velocity": 65, "duration": 103}, {"note": 0, "velocity": 0, "duration": 137}, {"note": 66, "velocity": 69, "duration": 113}, {"note": 0, "velocity": 0, "duration": 127}, {"note": 66, "velocity": 77, "duration": 548}, {"note": 68, "velocity": 81, "duration": 474}, {"note": 70, "velocity": 86, "duration": 594}, {"note": 0, "velocity": 0, "duration": 366}, {"note": 70, "velocity": 77, "duration": 401}, {"note": 0, "velocity": 0, "duration": 79}, {"note": 73, "velocity": 82, "duration": 410}, {"note": 0, "velocity": 0, "duration": 70}, {"note": 75, "velocity": 77, "duration": 119}, {"note": 0, "velocity": 0, "duration": 121}, {"note": 75, "velocity": 69, "duration": 105}, {"note": 0, "velocity": 0, "duration": 135}, {"note": 75, "velocity": 65, "duration": 94}, {"note": 0, "velocity": 0, "duration": 146}, {"note": 75, "velocity": 65, "duration": 106}, {"note": 0, "velocity": 0, "duration": 134}, {"note": 75, "velocity": 66, "duration": 459}, {"note": 73, "velocity": 77, "duration": 532}, {"note": 70, "velocity": 67, "duration": 119}, {"note": 0, "velocity": 0, "duration": 121}, {"note": 70, "velocity": 56, "duration": 82}, {"note": 0, "velocity": 0, "duration": 158}, {"note": 70, "velocity": 48, "duration": 74}, {"note": 0, "velocity": 0, "duration": 166}, {"note": 70, "velocity": 36, "duration": 76}, {"note": 0, "velocity": 0, "duration": 164}, {"note": 68, "velocity": 90, "duration": 244}, {"note": 66, "velocity": 66, "duration": 260}, {"note": 70, "velocity": 81, "duration": 491}, {"note": 68, "velocity": 83, "duration": 1885}, {"note": 0, "velocity": 0, "duration": 995}, {"note": 70, "velocity": 83, "duration": 418}, {"note": 0, "velocity": 0, "duration": 62}, {"note": 73, "velocity": 83, "duration": 375}, {"note": 0, "velocity": 0, "duration": 105}, {"note": 73, "velocity": 84, "duration": 570}, {"note": 0, "velocity": 0, "duration": 150}, {"note": 73, "velocity": 88, "duration": 106}, {"note": 0, "velocity": 0, "duration": 134}, {"note": 73, "velocity": 83, "duration": 514}, {"note": 75, "velocity": 77, "duration": 506}, {"note": 73, "velocity": 77, "duration": 250}, {"note": 70, "velocity": 74, "duration": 528}, {"note": 0, "velocity": 0, "duration": 192}, {"note": 70, "velocity": 84, "duration": 452}, {"note": 68, "velocity": 76, "duration": 472}, {"note": 66, "velocity": 64, "duration": 548}, {"note": 0, "velocity": 0, "duration": 172}, {"note": 66, "velocity": 69, "duration": 113}, {"note": 0, "velocity": 0, "duration": 127}, {"note": 66, "velocity": 70, "duration": 500}, {"note": 63, "velocity": 67, "duration": 488}, {"note": 61, "velocity": 69, "duration": 788}, {"note": 0, "velocity": 0, "duration": 172}, {"note": 61, "velocity": 73, "duration": 496}, {"note": 63, "velocity": 67, "duration": 525}, {"note": 66, "velocity": 79, "duration": 1476}, {"note": 68, "velocity": 86, "duration": 498}, {"note": 70, "velocity": 81, "duration": 284}, {"note": 0, "velocity": 0, "duration": 196}, {"note": 70, "velocity": 77, "duration": 111}, {"note": 0, "velocity": 0, "duration": 129}, {"note": 70, "velocity": 78, "duration": 117}, {"note": 0, "velocity": 0, "duration": 123}, {"note": 68, "velocity": 72, "duration": 423}, {"note": 66, "velocity": 61, "duration": 268}, {"note": 68, "velocity": 64, "duration": 286}, {"note": 66, "velocity": 66, "duration": 1920}, {"note": 0, "velocity": 0, "duration": 961}, {"note": 61, "velocity": 82, "duration": 571}, {"note": 63, "velocity": 78, "duration": 471}, {"note": 61, "velocity": 74, "duration": 296}, {"note": 66, "velocity": 69, "duration": 363}, {"note": 0, "velocity": 0, "duration": 357}, {"note": 66, "velocity": 76, "duration": 72}, {"note": 0, "velocity": 0, "duration": 168}, {"note": 66, "velocity": 78, "duration": 504}, {"note": 68, "velocity": 86, "duration": 510}, {"note": 70, "velocity": 90, "duration": 326}, {"note": 0, "velocity": 0, "duration": 154}, {"note": 70, "velocity": 84, "duration": 542}, {"note": 68, "velocity": 83, "duration": 272}, {"note": 66, "velocity": 69, "duration": 375}, {"note": 68, "velocity": 59, "duration": 444}, {"note": 66, "velocity": 80, "duration": 2733}]]