[[{"note": 80, "velocity": 79, "duration": 116}, {"note": 82, "velocity": 86, "duration": 116}, {"note": 83, "velocity": 87, "duration": 236}, {"note": 82, "velocity": 85, "duration": 116}, {"note": 80, "velocity": 91, "duration": 356}, {"note": 78, "velocity": 89, "duration": 236}, {"note": 75, "velocity": 86, "duration": 236}, {"note": 73, "velocity": 92, "duration": 116}, {"note": 71, "velocity": 90, "duration": 356}, {"note": 70, "velocity": 82, "duration": 236}, {"note": 71, "velocity": 106, "duration": 476}, {"note": 68, "velocity": 77, "duration": 236}, {"note": 78, "velocity": 86, "duration": 116}, {"note": 75, "velocity": 93, "duration": 836}, {"note": 73, "velocity": 84, "duration": 116}, {"note": 71, "velocity": 86, "duration": 116}, {"note": 73, "velocity": 91, "duration": 236}, {"note": 68, "velocity": 76, "duration": 236}, {"note": 76, "velocity": 83, "duration": 476}, {"note": 71, "velocity": 89, "duration": 236}, {"note": 68, "velocity": 78, "duration": 236}, {"note": 76, "velocity": 88, "duration": 356}, {"note": 71, "velocity": 79, "duration": 116}, {"note": 70, "velocity": 87, "duration": 236}, {"note": 74, "velocity": 86, "duration": 236}, {"note": 75, "velocity": 91, "duration": 236}, {"note": 77, "velocity": 86, "duration": 236}, {"note": 79, "velocity": 85, "duration": 716}, {"note": 80, "velocity": 80, "duration": 116}, {"note": 82, "velocity": 86, "duration": 116}, {"note": 83, "velocity": 88, "duration": 236}, {"note": 82, "velocity": 85, "duration": 116}, {"note": 80, "velocity": 89, "duration": 356}, {"note": 78, "velocity": 90, "duration": 236}, {"note": 75, "velocity": 92, "duration": 236}, {"note": 73, "velocity": 88, "duration": 116}, {"note": 71, "velocity": 92, "duration": 356}, {"note": 70, "velocity": 84, "duration": 236}, {"note": 71, "velocity": 103, "duration": 476}, {"note": 68, "velocity": 84, "duration": 236}, {"note": 78, "velocity": 89, "duration": 236}, {"note": 75, "velocity": 79, "duration": 716}, {"note": 73, "velocity": 95, "duration": 116}, {"note": 71, "velocity": 90, "duration": 116}, {"note": 73, "velocity": 94, "duration": 236}, {"note": 68, "velocity": 77, "duration": 236}, {"note": 76, "velocity": 86, "duration": 356}, {"note": 73, "velocity": 78, "duration": 116}, {"note": 71, "velocity": 86, "duration": 236}, {"note": 68, "velocity": 39, "duration": 236}, {"note": 76, "velocity": 80, "duration": 356}, {"note": 73, "velocity": 89, "duration": 116}, {"note": 70, "velocity": 82, "duration": 236}, {"note": 67, "velocity": 66, "duration": 236}, {"note": 76, "velocity": 58, "duration": 236}, {"note": 75, "velocity": 73, "duration": 236}, {"note": 68, "velocity": 77, "duration": 956}, {"note": 66, "velocity": 91, "duration": 236}, {"note": 70, "velocity": 98, "duration": 236}, {"note": 80, "velocity": 90, "duration": 356}, {"note": 78, "velocity": 84, "duration": 116}, {"note": 75, "velocity": 78, "duration": 236}, {"note": 75, "velocity": 86, "duration": 116}, {"note": 75, "velocity": 90, "duration": 596}, {"note": 67, "velocity": 85, "duration": 236}, {"note": 70, "velocity": 89, "duration": 236}, {"note": 76, "velocity": 86, "duration": 356}, {"note": 75, "velocity": 80, "duration": 116}, {"note": 73, "velocity": 86, "duration": 236}, {"note": 71, "velocity": 87, "duration": 116}, {"note": 71, "velocity": 92, "duration": 476}, {"note": 71, "velocity": 104, "duration": 116}, {"note": 70, "velocity": 93, "duration": 236}, {"note": 75, "velocity": 77, "duration": 236}, {"note": 80, "velocity": 86, "duration": 356}, {"note": 78, "velocity": 85, "duration": 116}, {"note": 75, "velocity": 90, "duration": 236}, {"note": 75, "velocity": 91, "duration": 116}, {"note": 75, "velocity": 90, "duration": 356}, {"note": 75, "velocity": 94, "duration": 116}, {"note": 75, "velocity": 85, "duration": 116}, {"note": 74, "velocity": 92, "duration": 236}, {"note": 77, "velocity": 99, "duration": 236}, {"note": 83, "velocity": 92, "duration": 356}, {"note": 82, "velocity": 90, "duration": 116}, {"note": 79, "velocity": 91, "duration": 236}, {"note": 79, "velocity": 88, "duration": 236}, {"note": 80, "velocity": 91, "duration": 116}, {"note": 82, "velocity": 102, "duration": 356}, {"note": 83, "velocity": 97, "duration": 306}, {"note": 82, "velocity": 86, "duration": 164}, {"note": 80, "velocity": 86, "duration": 386}, {"note": 78, "velocity": 89, "duration": 283}, {"note": 75, "velocity": 86, "duration": 237}, {"note": 73, "velocity": 89, "duration": 190}, {"note": 71, "velocity": 92, "duration": 304}, {"note": 70, "velocity": 94, "duration": 287}, {"note": 71, "velocity": 105, "duration": 473}, {"note": 68, "velocity": 91, "duration": 256}, {"note": 78, "velocity": 85, "duration": 255}, {"note": 75, "velocity": 88, "duration": 682}, {"note": 73, "velocity": 88, "duration": 105}, {"note": 71, "velocity": 90, "duration": 117}, {"note": 73, "velocity": 85, "duration": 228}, {"note": 68, "velocity": 85, "duration": 260}, {"note": 76, "velocity": 85, "duration": 381}, {"note": 73, "velocity": 85, "duration": 75}, {"note": 71, "velocity": 87, "duration": 210}, {"note": 68, "velocity": 81, "duration": 202}, {"note": 76, "velocity": 83, "duration": 168}, {"note": 0, "velocity": 0, "duration": 192}, {"note": 75, "velocity": 92, "duration": 106}, {"note": 70, "velocity": 85, "duration": 138}, {"note": 0, "velocity": 0, "duration": 102}, {"note": 67, "velocity": 83, "duration": 184}, {"note": 76, "velocity": 84, "duration": 289}, {"note": 75, "velocity": 79, "duration": 286}, {"note": 68, "velocity": 95, "duration": 780}, {"note": 68, "velocity": 91, "duration": 60}, {"note": 70, "velocity": 86, "duration": 95}, {"note": 72, "velocity": 91, "duration": 366}, {"note": 0, "velocity": 0, "duration": 114}, {"note": 72, "velocity": 89, "duration": 191}, {"note": 75, "velocity": 86, "duration": 63}, {"note": 75, "velocity": 84, "duration": 327}, {"note": 75, "velocity": 82, "duration": 228}, {"note": 77, "velocity": 86, "duration": 177}, {"note": 79, "velocity": 86, "duration": 76}, {"note": 0, "velocity": 0, "duration": 164}, {"note": 80, "velocity": 71, "duration": 252}, {"note": 0, "velocity": 0, "duration": 108}, {"note": 79, "velocity": 87, "duration": 106}, {"note": 0, "velocity": 0, "duration": 134}, {"note": 77, "velocity": 85, "duration": 160}, {"note": 0, "velocity": 0, "duration": 80}, {"note": 75, "velocity": 90, "duration": 214}, {"note": 72, "velocity": 90, "duration": 382}, {"note": 0, "velocity": 0, "duration": 458}, {"note": 70, "velocity": 95, "duration": 128}, {"note": 68, "velocity": 90, "duration": 87}, {"note": 73, "velocity": 100, "duration": 369}, {"note": 75, "velocity": 95, "duration": 244}, {"note": 0, "velocity": 0, "duration": 116}, {"note": 77, "velocity": 90, "duration": 181}, {"note": 75, "velocity": 97, "duration": 274}, {"note": 0, "velocity": 0, "duration": 86}, {"note": 80, "velocity": 90, "duration": 214}, {"note": 0, "velocity": 0, "duration": 146}, {"note": 68, "velocity": 81, "duration": 93}, {"note": 70, "velocity": 83, "duration": 84}, {"note": 72, "velocity": 91, "duration": 166}, {"note": 0, "velocity": 0, "duration": 74}, {"note": 70, "velocity": 91, "duration": 171}, {"note": 0, "velocity": 0, "duration": 69}, {"note": 68, "velocity": 94, "duration": 129}, {"note": 0, "velocity": 0, "duration": 111}, {"note": 70, "velocity": 91, "duration": 150}, {"note": 0, "velocity": 0, "duration": 90}, {"note": 72, "velocity": 90, "duration": 387}, {"note": 0, "velocity": 0, "duration": 93}, {"note": 70, "velocity": 94, "duration": 332}, {"note": 68, "velocity": 84, "duration": 96}, {"note": 70, "velocity": 84, "duration": 74}, {"note": 72, "velocity": 90, "duration": 336}, {"note": 0, "velocity": 0, "duration": 144}, {"note": 72, "velocity": 86, "duration": 183}, {"note": 75, "velocity": 86, "duration": 72}, {"note": 75, "velocity": 89, "duration": 241}, {"note": 0, "velocity": 0, "duration": 239}, {"note": 75, "velocity": 86, "duration": 120}, {"note": 77, "velocity": 86, "duration": 149}, {"note": 79, "velocity": 87, "duration": 84}, {"note": 0, "velocity": 0, "duration": 156}, {"note": 80, "velocity": 95, "duration": 216}, {"note": 0, "velocity": 0, "duration": 144}, {"note": 79, "velocity": 87, "duration": 84}, {"note": 0, "velocity": 0, "duration": 156}, {"note": 77, "velocity": 87, "duration": 84}, {"note": 0, "velocity": 0, "duration": 156}, {"note": 72, "velocity": 87, "duration": 120}, {"note": 72, "velocity": 87, "duration": 120}, {"note": 84, "velocity": 87, "duration": 120}, {"note": 0, "velocity": 0, "duration": 600}, {"note": 80, "velocity": 94, "duration": 154}, {"note": 79, "velocity": 87, "duration": 78}, {"note": 80, "velocity": 85, "duration": 479}, {"note": 0, "velocity": 0, "duration": 121}, {"note": 80, "velocity": 93, "duration": 55}, {"note": 0, "velocity": 0, "duration": 65}, {"note": 80, "velocity": 89, "duration": 135}, {"note": 79, "velocity": 86, "duration": 62}, {"note": 80, "velocity": 87, "duration": 214}, {"note": 0, "velocity": 0, "duration": 506}, {"note": 80, "velocity": 94, "duration": 86}, {"note": 79, "velocity": 89, "duration": 71}, {"note": 80, "velocity": 102, "duration": 94}, {"note": 80, "velocity": 103, "duration": 543}, {"note": 80, "velocity": 93, "duration": 187}, {"note": 79, "velocity": 89, "duration": 65}, {"note": 79, "velocity": 89, "duration": 198}, {"note": 0, "velocity": 0, "duration": 162}, {"note": 80, "velocity": 77, "duration": 141}, {"note": 82, "velocity": 89, "duration": 269}, {"note": 0, "velocity": 0, "duration": 91}, {"note": 80, "velocity": 107, "duration": 356}, {"note": 79, "velocity": 99, "duration": 356}, {"note": 77, "velocity": 97, "duration": 236}, {"note": 77, "velocity": 101, "duration": 476}, {"note": 75, "velocity": 101, "duration": 356}, {"note": 68, "velocity": 83, "duration": 116}, {"note": 77, "velocity": 86, "duration": 356}, {"note": 75, "velocity": 92, "duration": 356}, {"note": 73, "velocity": 106, "duration": 236}, {"note": 75, "velocity": 106, "duration": 956}, {"note": 76, "velocity": 101, "duration": 356}, {"note": 77, "velocity": 96, "duration": 356}, {"note": 79, "velocity": 104, "duration": 236}, {"note": 79, "velocity": 102, "duration": 116}, {"note": 77, "velocity": 95, "duration": 116}, {"note": 79, "velocity": 101, "duration": 116}, {"note": 80, "velocity": 102, "duration": 476}, {"note": 68, "velocity": 88, "duration": 116}, {"note": 77, "velocity": 89, "duration": 356}, {"note": 79, "velocity": 88, "duration": 356}, {"note": 80, "velocity": 93, "duration": 236}, {"note": 79, "velocity": 92, "duration": 236}, {"note": 79, "velocity": 101, "duration": 116}, {"note": 79, "velocity": 102, "duration": 116}, {"note": 80, "velocity": 102, "duration": 116}, {"note": 82, "velocity": 100, "duration": 356}, {"note": 80, "velocity": 107, "duration": 356}, {"note": 79, "velocity": 99, "duration": 356}, {"note": 77, "velocity": 97, "duration": 236}, {"note": 77, "velocity": 101, "duration": 476}, {"note": 75, "velocity": 101, "duration": 356}, {"note": 68, "velocity": 83, "duration": 116}, {"note": 77, "velocity": 86, "duration": 356}, {"note": 75, "velocity": 92, "duration": 356}, {"note": 73, "velocity": 106, "duration": 236}, {"note": 75, "velocity": 106, "duration": 956}, {"note": 76, "velocity": 101, "duration": 356}, {"note": 77, "velocity": 96, "duration": 356}, {"note": 79, "velocity": 104, "duration": 236}, {"note": 79, "velocity": 102, "duration": 116}, {"note": 77, "velocity": 95, "duration": 116}, {"note": 79, "velocity": 101, "duration": 116}, {"note": 80, "velocity": 102, "duration": 476}, {"note": 68, "velocity": 88, "duration": 116}, {"note": 77, "velocity": 89, "duration": 356}, {"note": 79, "velocity": 88, "duration": 356}, {"note": 80, "velocity": 93, "duration": 236}, {"note": 79, "velocity": 92, "duration": 236}, {"note": 79, "velocity": 101, "duration": 116}, {"note": 79, "velocity": 102, "duration": 116}, {"note": 80, "velocity": 102, "duration": 116}, {"note": 82, "velocity": 100, "duration": 356}, {"note": 80, "velocity": 111, "duration": 1458}, {"note": 0, "velocity": 0, "duration": 21342}, {"note": 80, "velocity": 79, "duration": 116}, {"note": 82, "velocity": 86, "duration": 116}, {"note": 83, "velocity": 87, "duration": 236}, {"note": 82, "velocity": 85, "duration": 116}, {"note": 80, "velocity": 91, "duration": 356}, {"note": 78, "velocity": 89, "duration": 236}, {"note": 75, "velocity": 86, "duration": 236}, {"note": 73, "velocity": 92, "duration": 116}, {"note": 71, "velocity": 90, "duration": 356}, {"note": 70, "velocity": 82, "duration": 236}, {"note": 71, "velocity": 106, "duration": 476}, {"note": 68, "velocity": 77, "duration": 236}, {"note": 78, "velocity": 86, "duration": 116}, {"note": 75, "velocity": 93, "duration": 836}, {"note": 73, "velocity": 84, "duration": 116}, {"note": 71, "velocity": 86, "duration": 116}, {"note": 73, "velocity": 91, "duration": 236}, {"note": 68, "velocity": 76, "duration": 236}, {"note": 76, "velocity": 83, "duration": 476}, {"note": 71, "velocity": 89, "duration": 236}, {"note": 68, "velocity": 78, "duration": 236}, {"note": 76, "velocity": 88, "duration": 356}, {"note": 71, "velocity": 79, "duration": 116}, {"note": 70, "velocity": 87, "duration": 236}, {"note": 74, "velocity": 86, "duration": 236}, {"note": 75, "velocity": 91, "duration": 236}, {"note": 77, "velocity": 86, "duration": 236}, {"note": 79, "velocity": 85, "duration": 716}, {"note": 80, "velocity": 80, "duration": 116}, {"note": 82, "velocity": 86, "duration": 116}, {"note": 83, "velocity": 88, "duration": 236}, {"note": 82, "velocity": 85, "duration": 116}, {"note": 80, "velocity": 89, "duration": 356}, {"note": 78, "velocity": 90, "duration": 236}, {"note": 75, "velocity": 92, "duration": 236}, {"note": 73, "velocity": 88, "duration": 116}, {"note": 71, "velocity": 92, "duration": 356}, {"note": 70, "velocity": 84, "duration": 236}, {"note": 71, "velocity": 103, "duration": 476}, {"note": 68, "velocity": 84, "duration": 236}, {"note": 78, "velocity": 89, "duration": 236}, {"note": 75, "velocity": 79, "duration": 716}, {"note": 73, "velocity": 95, "duration": 116}, {"note": 71, "velocity": 90, "duration": 116}, {"note": 73, "velocity": 94, "duration": 236}, {"note": 68, "velocity": 77, "duration": 236}, {"note": 76, "velocity": 86, "duration": 356}, {"note": 73, "velocity": 78, "duration": 116}, {"note": 71, "velocity": 86, "duration": 236}, {"note": 68, "velocity": 39, "duration": 236}, {"note": 76, "velocity": 80, "duration": 356}, {"note": 73, "velocity": 89, "duration": 116}, {"note": 70, "velocity": 82, "duration": 236}, {"note": 67, "velocity": 66, "duration": 236}, {"note": 76, "velocity": 58, "duration": 236}, {"note": 75, "velocity": 73, "duration": 236}, {"note": 68, "velocity": 77, "duration": 956}, {"note": 66, "velocity": 91, "duration": 236}, {"note": 70, "velocity": 98, "duration": 236}, {"note": 80, "velocity": 90, "duration": 356}, {"note": 78, "velocity": 84, "duration": 116}, {"note": 75, "velocity": 78, "duration": 236}, {"note": 75, "velocity": 86, "duration": 116}, {"note": 75, "velocity": 90, "duration": 596}, {"note": 67, "velocity": 85, "duration": 236}, {"note": 70, "velocity": 89, "duration": 236}, {"note": 76, "velocity": 86, "duration": 356}, {"note": 75, "velocity": 80, "duration": 116}, {"note": 73, "velocity": 86, "duration": 236}, {"note": 71, "velocity": 87, "duration": 116}, {"note": 71, "velocity": 92, "duration": 476}, {"note": 71, "velocity": 104, "duration": 116}, {"note": 70, "velocity": 93, "duration": 236}, {"note": 75, "velocity": 77, "duration": 236}, {"note": 80, "velocity": 86, "duration": 356}, {"note": 78, "velocity": 85, "duration": 116}, {"note": 75, "velocity": 90, "duration": 236}, {"note": 75, "velocity": 91, "duration": 116}, {"note": 75, "velocity": 90, "duration": 356}, {"note": 75, "velocity": 94, "duration": 116}, {"note": 75, "velocity": 85, "duration": 116}, {"note": 74, "velocity": 92, "duration": 236}, {"note": 77, "velocity": 99, "duration": 236}, {"note": 83, "velocity": 92, "duration": 356}, {"note": 82, "velocity": 90, "duration": 116}, {"note": 79, "velocity": 91, "duration": 236}, {"note": 79, "velocity": 88, "duration": 236}, {"note": 80, "velocity": 91, "duration": 116}, {"note": 82, "velocity": 102, "duration": 356}, {"note": 83, "velocity": 97, "duration": 306}, {"note": 82, "velocity": 86, "duration": 164}, {"note": 80, "velocity": 86, "duration": 386}, {"note": 78, "velocity": 89, "duration": 283}, {"note": 75, "velocity": 86, "duration": 237}, {"note": 73, "velocity": 89, "duration": 190}, {"note": 71, "velocity": 92, "duration": 304}, {"note": 70, "velocity": 94, "duration": 287}, {"note": 71, "velocity": 105, "duration": 473}, {"note": 68, "velocity": 91, "duration": 256}, {"note": 78, "velocity": 85, "duration": 255}, {"note": 75, "velocity": 88, "duration": 682}, {"note": 73, "velocity": 88, "duration": 105}, {"note": 71, "velocity": 90, "duration": 117}, {"note": 73, "velocity": 85, "duration": 228}, {"note": 68, "velocity": 85, "duration": 260}, {"note": 76, "velocity": 85, "duration": 381}, {"note": 73, "velocity": 85, "duration": 75}, {"note": 71, "velocity": 87, "duration": 210}, {"note": 68, "velocity": 81, "duration": 202}, {"note": 76, "velocity": 83, "duration": 168}, {"note": 0, "velocity": 0, "duration": 192}, {"note": 75, "velocity": 92, "duration": 106}, {"note": 70, "velocity": 85, "duration": 138}, {"note": 0, "velocity": 0, "duration": 102}, {"note": 67, "velocity": 83, "duration": 184}, {"note": 76, "velocity": 84, "duration": 289}, {"note": 75, "velocity": 79, "duration": 286}, {"note": 68, "velocity": 95, "duration": 780}, {"note": 68, "velocity": 91, "duration": 60}, {"note": 70, "velocity": 86, "duration": 95}, {"note": 72, "velocity": 91, "duration": 366}, {"note": 0, "velocity": 0, "duration": 114}, {"note": 72, "velocity": 89, "duration": 191}, {"note": 75, "velocity": 86, "duration": 63}, {"note": 75, "velocity": 84, "duration": 327}, {"note": 75, "velocity": 82, "duration": 228}, {"note": 77, "velocity": 86, "duration": 177}, {"note": 79, "velocity": 86, "duration": 76}, {"note": 0, "velocity": 0, "duration": 164}, {"note": 80, "velocity": 71, "duration": 252}, {"note": 0, "velocity": 0, "duration": 108}, {"note": 79, "velocity": 87, "duration": 106}, {"note": 0, "velocity": 0, "duration": 134}, {"note": 77, "velocity": 85, "duration": 160}, {"note": 0, "velocity": 0, "duration": 80}, {"note": 75, "velocity": 90, "duration": 214}, {"note": 72, "velocity": 90, "duration": 382}, {"note": 0, "velocity": 0, "duration": 458}, {"note": 70, "velocity": 95, "duration": 128}, {"note": 68, "velocity": 90, "duration": 87}, {"note": 73, "velocity": 100, "duration": 369}, {"note": 75, "velocity": 95, "duration": 244}, {"note": 77, "velocity": 90, "duration": 181}, {"note": 75, "velocity": 97, "duration": 274}, {"note": 0, "velocity": 0, "duration": 206}, {"note": 80, "velocity": 90, "duration": 214}, {"note": 0, "velocity": 0, "duration": 146}, {"note": 68, "velocity": 81, "duration": 93}, {"note": 70, "velocity": 83, "duration": 84}, {"note": 72, "velocity": 91, "duration": 166}, {"note": 0, "velocity": 0, "duration": 74}, {"note": 70, "velocity": 91, "duration": 171}, {"note": 0, "velocity": 0, "duration": 69}, {"note": 68, "velocity": 94, "duration": 129}, {"note": 0, "velocity": 0, "duration": 111}, {"note": 70, "velocity": 91, "duration": 150}, {"note": 0, "velocity": 0, "duration": 90}, {"note": 72, "velocity": 90, "duration": 387}, {"note": 0, "velocity": 0, "duration": 93}, {"note": 70, "velocity": 94, "duration": 332}, {"note": 68, "velocity": 84, "duration": 96}, {"note": 70, "velocity": 84, "duration": 74}, {"note": 72, "velocity": 90, "duration": 336}, {"note": 0, "velocity": 0, "duration": 144}, {"note": 72, "velocity": 86, "duration": 183}, {"note": 75, "velocity": 86, "duration": 72}, {"note": 75, "velocity": 89, "duration": 241}, {"note": 0, "velocity": 0, "duration": 239}, {"note": 75, "velocity": 86, "duration": 120}, {"note": 77, "velocity": 86, "duration": 149}, {"note": 79, "velocity": 87, "duration": 84}, {"note": 0, "velocity": 0, "duration": 156}, {"note": 80, "velocity": 95, "duration": 216}, {"note": 0, "velocity": 0, "duration": 144}, {"note": 79, "velocity": 87, "duration": 84}, {"note": 0, "velocity": 0, "duration": 156}, {"note": 77, "velocity": 87, "duration": 84}, {"note": 0, "velocity": 0, "duration": 156}, {"note": 72, "velocity": 87, "duration": 120}, {"note": 72, "velocity": 87, "duration": 120}, {"note": 84, "velocity": 87, "duration": 120}, {"note": 0, "velocity": 0, "duration": 600}, {"note": 80, "velocity": 94, "duration": 154}, {"note": 79, "velocity": 87, "duration": 78}, {"note": 80, "velocity": 85, "duration": 479}, {"note": 0, "velocity": 0, "duration": 121}, {"note": 80, "velocity": 93, "duration": 55}, {"note": 0, "velocity": 0, "duration": 65}, {"note": 80, "velocity": 89, "duration": 135}, {"note": 79, "velocity": 86, "duration": 62}, {"note": 80, "velocity": 87, "duration": 214}, {"note": 0, "velocity": 0, "duration": 506}, {"note": 80, "velocity": 94, "duration": 86}, {"note": 79, "velocity": 89, "duration": 71}, {"note": 80, "velocity": 102, "duration": 94}, {"note": 80, "velocity": 103, "duration": 543}, {"note": 80, "velocity": 93, "duration": 187}, {"note": 79, "velocity": 89, "duration": 65}, {"note": 79, "velocity": 89, "duration": 198}, {"note": 0, "velocity": 0, "duration": 162}, {"note": 80, "velocity": 77, "duration": 141}, {"note": 82, "velocity": 89, "duration": 269}, {"note": 0, "velocity": 0, "duration": 91}, {"note": 80, "velocity": 107, "duration": 356}, {"note": 79, "velocity": 99, "duration": 356}, {"note": 77, "velocity": 97, "duration": 236}, {"note": 77, "velocity": 101, "duration": 476}, {"note": 75, "velocity": 101, "duration": 356}, {"note": 68, "velocity": 83, "duration": 116}, {"note": 77, "velocity": 86, "duration": 356}, {"note": 75, "velocity": 92, "duration": 356}, {"note": 73, "velocity": 106, "duration": 236}, {"note": 75, "velocity": 106, "duration": 956}, {"note": 76, "velocity": 101, "duration": 356}, {"note": 77, "velocity": 96, "duration": 356}, {"note": 79, "velocity": 104, "duration": 236}, {"note": 79, "velocity": 102, "duration": 116}, {"note": 77, "velocity": 95, "duration": 116}, {"note": 79, "velocity": 101, "duration": 116}, {"note": 80, "velocity": 102, "duration": 476}, {"note": 68, "velocity": 88, "duration": 116}, {"note": 77, "velocity": 89, "duration": 356}, {"note": 79, "velocity": 88, "duration": 356}, {"note": 80, "velocity": 93, "duration": 236}, {"note": 79, "velocity": 92, "duration": 236}, {"note": 79, "velocity": 101, "duration": 116}, {"note": 79, "velocity": 102, "duration": 116}, {"note": 80, "velocity": 102, "duration": 116}, {"note": 82, "velocity": 100, "duration": 356}, {"note": 80, "velocity": 107, "duration": 356}, {"note": 79, "velocity": 99, "duration": 356}, {"note": 77, "velocity": 97, "duration": 236}, {"note": 77, "velocity": 101, "duration": 476}, {"note": 75, "velocity": 101, "duration": 356}, {"note": 68, "velocity": 83, "duration": 116}, {"note": 77, "velocity": 86, "duration": 356}, {"note": 75, "velocity": 92, "duration": 356}, {"note": 73, "velocity": 106, "duration": 236}, {"note": 75, "velocity": 106, "duration": 956}, {"note": 76, "velocity": 101, "duration": 356}, {"note": 77, "velocity": 96, "duration": 356}, {"note": 79, "velocity": 104, "duration": 236}, {"note": 79, "velocity": 102, "duration": 116}, {"note": 77, "velocity": 95, "duration": 116}, {"note": 79, "velocity": 101, "duration": 116}, {"note": 80, "velocity": 102, "duration": 476}, {"note": 68, "velocity": 88, "duration": 116}, {"note": 77, "velocity": 89, "duration": 356}, {"note": 79, "velocity": 88, "duration": 356}, {"note": 80, "velocity": 93, "duration": 236}, {"note": 79, "velocity": 92, "duration": 236}, {"note": 79, "velocity": 101, "duration": 116}, {"note": 79, "velocity": 102, "duration": 116}, {"note": 80, "velocity": 102, "duration": 116}, {"note": 82, "velocity": 100, "duration": 356}, {"note": 80, "velocity": 107, "duration": 356}, {"note": 80, "velocity": 111, "duration": 356}, {"note": 79, "velocity": 99, "duration": 356}, {"note": 77, "velocity": 97, "duration": 236}, {"note": 77, "velocity": 101, "duration": 476}, {"note": 75, "velocity": 101, "duration": 356}, {"note": 68, "velocity": 83, "duration": 116}, {"note": 77, "velocity": 86, "duration": 356}, {"note": 75, "velocity": 92, "duration": 356}, {"note": 73, "velocity": 106, "duration": 236}, {"note": 75, "velocity": 106, "duration": 956}, {"note": 76, "velocity": 101, "duration": 356}, {"note": 77, "velocity": 96, "duration": 356}, {"note": 79, "velocity": 104, "duration": 236}, {"note": 79, "velocity": 102, "duration": 116}, {"note": 77, "velocity": 95, "duration": 116}, {"note": 79, "velocity": 101, "duration": 116}, {"note": 80, "velocity": 102, "duration": 476}, {"note": 68, "velocity": 88, "duration": 116}, {"note": 77, "velocity": 89, "duration": 356}, {"note": 79, "velocity": 88, "duration": 356}, {"note": 80, "velocity": 93, "duration": 236}, {"note": 79, "velocity": 92, "duration": 236}, {"note": 79, "velocity": 101, "duration": 116}, {"note": 79, "velocity": 102, "duration": 116}, {"note": 80, "velocity": 102, "duration": 116}, {"note": 82, "velocity": 100, "duration": 356}, {"note": 84, "velocity": 102, "duration": 140}, {"note": 0, "velocity": 0, "duration": 580}, {"note": 85, "velocity": 102, "duration": 140}, {"note": 84, "velocity": 102, "duration": 140}, {"note": 82, "velocity": 102, "duration": 140}, {"note": 0, "velocity": 0, "duration": 820}, {"note": 80, "velocity": 102, "duration": 140}, {"note": 0, "velocity": 0, "duration": 580}, {"note": 82, "velocity": 102, "duration": 140}, {"note": 85, "velocity": 102, "duration": 140}, {"note": 85, "velocity": 102, "duration": 20}, {"note": 0, "velocity": 0, "duration": 220}, {"note": 84, "velocity": 102, "duration": 140}, {"note": 0, "velocity": 0, "duration": 220}, {"note": 82, "velocity": 102, "duration": 140}, {"note": 80, "velocity": 102, "duration": 140}, {"note": 0, "velocity": 0, "duration": 2020}, {"note": 80, "velocity": 102, "duration": 140}, {"note": 0, "velocity": 0, "duration": 100}, {"note": 75, "velocity": 102, "duration": 140}, {"note": 80, "velocity": 102, "duration": 140}, {"note": 0, "velocity": 0, "duration": 100}, {"note": 75, "velocity": 102, "duration": 140}, {"note": 80, "velocity": 102, "duration": 140}, {"note": 0, "velocity": 0, "duration": 100}, {"note": 82, "velocity": 102, "duration": 140}]]