[[{"note": 72, "velocity": 63, "duration": 87}, {"note": 0, "velocity": 0, "duration": 124}, {"note": 72, "velocity": 70, "duration": 236}, {"note": 72, "velocity": 59, "duration": 236}, {"note": 72, "velocity": 60, "duration": 236}, {"note": 76, "velocity": 67, "duration": 236}, {"note": 77, "velocity": 75, "duration": 236}, {"note": 72, "velocity": 59, "duration": 242}, {"note": 70, "velocity": 60, "duration": 430}, {"note": 67, "velocity": 61, "duration": 116}, {"note": 69, "velocity": 67, "duration": 116}, {"note": 70, "velocity": 67, "duration": 824}, {"note": 0, "velocity": 0, "duration": 124}, {"note": 70, "velocity": 66, "duration": 100}, {"note": 72, "velocity": 59, "duration": 236}, {"note": 67, "velocity": 56, "duration": 236}, {"note": 70, "velocity": 66, "duration": 80}, {"note": 69, "velocity": 64, "duration": 126}, {"note": 69, "velocity": 63, "duration": 236}, {"note": 69, "velocity": 72, "duration": 236}, {"note": 74, "velocity": 72, "duration": 236}, {"note": 74, "velocity": 70, "duration": 70}, {"note": 76, "velocity": 66, "duration": 236}, {"note": 76, "velocity": 64, "duration": 236}, {"note": 77, "velocity": 62, "duration": 236}, {"note": 69, "velocity": 68, "duration": 258}, {"note": 67, "velocity": 73, "duration": 1196}, {"note": 65, "velocity": 53, "duration": 236}, {"note": 69, "velocity": 66, "duration": 56}, {"note": 67, "velocity": 61, "duration": 236}, {"note": 67, "velocity": 60, "duration": 236}, {"note": 65, "velocity": 59, "duration": 236}, {"note": 67, "velocity": 61, "duration": 716}, {"note": 65, "velocity": 58, "duration": 236}, {"note": 69, "velocity": 67, "duration": 80}, {"note": 67, "velocity": 56, "duration": 236}, {"note": 67, "velocity": 67, "duration": 236}, {"note": 65, "velocity": 63, "duration": 236}, {"note": 72, "velocity": 69, "duration": 108}, {"note": 72, "velocity": 63, "duration": 226}, {"note": 72, "velocity": 70, "duration": 236}, {"note": 72, "velocity": 59, "duration": 236}, {"note": 72, "velocity": 60, "duration": 236}, {"note": 76, "velocity": 67, "duration": 236}, {"note": 77, "velocity": 75, "duration": 236}, {"note": 72, "velocity": 59, "duration": 24}, {"note": 70, "velocity": 75, "duration": 1556}, {"note": 67, "velocity": 61, "duration": 116}, {"note": 69, "velocity": 67, "duration": 116}, {"note": 70, "velocity": 67, "duration": 611}, {"note": 0, "velocity": 0, "duration": 124}, {"note": 70, "velocity": 62, "duration": 236}, {"note": 72, "velocity": 59, "duration": 236}, {"note": 67, "velocity": 56, "duration": 236}, {"note": 69, "velocity": 62, "duration": 6}, {"note": 69, "velocity": 68, "duration": 236}, {"note": 69, "velocity": 72, "duration": 236}, {"note": 74, "velocity": 72, "duration": 236}, {"note": 74, "velocity": 70, "duration": 186}, {"note": 76, "velocity": 66, "duration": 228}, {"note": 76, "velocity": 64, "duration": 236}, {"note": 77, "velocity": 62, "duration": 236}, {"note": 81, "velocity": 68, "duration": 285}, {"note": 79, "velocity": 73, "duration": 476}, {"note": 74, "velocity": 73, "duration": 716}, {"note": 77, "velocity": 76, "duration": 236}, {"note": 81, "velocity": 67, "duration": 261}, {"note": 79, "velocity": 60, "duration": 476}, {"note": 73, "velocity": 72, "duration": 495}, {"note": 77, "velocity": 75, "duration": 236}, {"note": 79, "velocity": 67, "duration": 1683}, {"note": 69, "velocity": 57, "duration": 236}, {"note": 72, "velocity": 66, "duration": 236}, {"note": 76, "velocity": 78, "duration": 236}, {"note": 77, "velocity": 74, "duration": 236}, {"note": 79, "velocity": 55, "duration": 716}, {"note": 81, "velocity": 64, "duration": 236}, {"note": 81, "velocity": 75, "duration": 716}, {"note": 77, "velocity": 73, "duration": 236}, {"note": 79, "velocity": 73, "duration": 716}, {"note": 81, "velocity": 75, "duration": 236}, {"note": 81, "velocity": 78, "duration": 716}, {"note": 84, "velocity": 67, "duration": 236}, {"note": 84, "velocity": 72, "duration": 236}, {"note": 82, "velocity": 65, "duration": 236}, {"note": 81, "velocity": 71, "duration": 236}, {"note": 77, "velocity": 69, "duration": 236}, {"note": 77, "velocity": 76, "duration": 236}, {"note": 79, "velocity": 73, "duration": 236}, {"note": 79, "velocity": 76, "duration": 116}, {"note": 81, "velocity": 76, "duration": 116}, {"note": 82, "velocity": 76, "duration": 236}, {"note": 79, "velocity": 76, "duration": 520}, {"note": 81, "velocity": 76, "duration": 236}, {"note": 79, "velocity": 76, "duration": 240}, {"note": 69, "velocity": 57, "duration": 236}, {"note": 72, "velocity": 66, "duration": 236}, {"note": 76, "velocity": 78, "duration": 236}, {"note": 77, "velocity": 77, "duration": 236}, {"note": 79, "velocity": 55, "duration": 716}, {"note": 81, "velocity": 64, "duration": 236}, {"note": 81, "velocity": 75, "duration": 716}, {"note": 77, "velocity": 73, "duration": 236}, {"note": 79, "velocity": 73, "duration": 716}, {"note": 84, "velocity": 75, "duration": 236}, {"note": 81, "velocity": 78, "duration": 716}, {"note": 84, "velocity": 67, "duration": 236}, {"note": 84, "velocity": 72, "duration": 236}, {"note": 82, "velocity": 65, "duration": 236}, {"note": 81, "velocity": 71, "duration": 236}, {"note": 77, "velocity": 69, "duration": 236}, {"note": 84, "velocity": 76, "duration": 236}, {"note": 0, "velocity": 0, "duration": 244}, {"note": 82, "velocity": 64, "duration": 294}, {"note": 0, "velocity": 0, "duration": 186}, {"note": 81, "velocity": 82, "duration": 226}, {"note": 79, "velocity": 73, "duration": 197}, {"note": 77, "velocity": 72, "duration": 239}, {"note": 76, "velocity": 73, "duration": 293}, {"note": 79, "velocity": 76, "duration": 525}, {"note": 77, "velocity": 73, "duration": 301}, {"note": 0, "velocity": 0, "duration": 6000}, {"note": 72, "velocity": 63, "duration": 226}, {"note": 72, "velocity": 70, "duration": 236}, {"note": 72, "velocity": 59, "duration": 236}, {"note": 72, "velocity": 60, "duration": 236}, {"note": 76, "velocity": 67, "duration": 236}, {"note": 77, "velocity": 75, "duration": 236}, {"note": 72, "velocity": 59, "duration": 24}, {"note": 70, "velocity": 68, "duration": 1556}, {"note": 67, "velocity": 61, "duration": 116}, {"note": 69, "velocity": 67, "duration": 116}, {"note": 70, "velocity": 67, "duration": 611}, {"note": 0, "velocity": 0, "duration": 124}, {"note": 70, "velocity": 62, "duration": 236}, {"note": 72, "velocity": 59, "duration": 236}, {"note": 67, "velocity": 56, "duration": 236}, {"note": 69, "velocity": 62, "duration": 6}, {"note": 69, "velocity": 68, "duration": 236}, {"note": 69, "velocity": 72, "duration": 236}, {"note": 74, "velocity": 72, "duration": 236}, {"note": 74, "velocity": 70, "duration": 186}, {"note": 76, "velocity": 66, "duration": 228}, {"note": 76, "velocity": 64, "duration": 236}, {"note": 77, "velocity": 62, "duration": 236}, {"note": 81, "velocity": 68, "duration": 285}, {"note": 79, "velocity": 73, "duration": 476}, {"note": 74, "velocity": 73, "duration": 716}, {"note": 77, "velocity": 76, "duration": 236}, {"note": 81, "velocity": 67, "duration": 261}, {"note": 79, "velocity": 60, "duration": 476}, {"note": 73, "velocity": 72, "duration": 495}, {"note": 77, "velocity": 75, "duration": 236}, {"note": 79, "velocity": 67, "duration": 1683}, {"note": 69, "velocity": 57, "duration": 237}, {"note": 72, "velocity": 66, "duration": 236}, {"note": 76, "velocity": 78, "duration": 236}, {"note": 77, "velocity": 74, "duration": 236}, {"note": 79, "velocity": 55, "duration": 716}, {"note": 81, "velocity": 64, "duration": 236}, {"note": 81, "velocity": 75, "duration": 716}, {"note": 77, "velocity": 73, "duration": 236}, {"note": 79, "velocity": 73, "duration": 716}, {"note": 81, "velocity": 75, "duration": 236}, {"note": 81, "velocity": 78, "duration": 716}, {"note": 84, "velocity": 67, "duration": 236}, {"note": 84, "velocity": 72, "duration": 236}, {"note": 82, "velocity": 65, "duration": 236}, {"note": 81, "velocity": 71, "duration": 236}, {"note": 77, "velocity": 69, "duration": 236}, {"note": 77, "velocity": 76, "duration": 236}, {"note": 79, "velocity": 73, "duration": 236}, {"note": 79, "velocity": 76, "duration": 116}, {"note": 81, "velocity": 76, "duration": 116}, {"note": 82, "velocity": 76, "duration": 236}, {"note": 79, "velocity": 76, "duration": 956}, {"note": 69, "velocity": 57, "duration": 236}, {"note": 72, "velocity": 66, "duration": 236}, {"note": 76, "velocity": 78, "duration": 236}, {"note": 77, "velocity": 77, "duration": 236}, {"note": 79, "velocity": 55, "duration": 716}, {"note": 81, "velocity": 64, "duration": 236}, {"note": 81, "velocity": 75, "duration": 716}, {"note": 77, "velocity": 73, "duration": 236}, {"note": 79, "velocity": 73, "duration": 716}, {"note": 84, "velocity": 75, "duration": 236}, {"note": 81, "velocity": 78, "duration": 716}, {"note": 84, "velocity": 67, "duration": 236}, {"note": 84, "velocity": 72, "duration": 236}, {"note": 82, "velocity": 65, "duration": 236}, {"note": 81, "velocity": 71, "duration": 236}, {"note": 77, "velocity": 69, "duration": 236}, {"note": 84, "velocity": 76, "duration": 236}, {"note": 0, "velocity": 0, "duration": 244}, {"note": 82, "velocity": 64, "duration": 293}, {"note": 0, "velocity": 0, "duration": 186}, {"note": 81, "velocity": 82, "duration": 226}, {"note": 79, "velocity": 73, "duration": 197}, {"note": 77, "velocity": 72, "duration": 239}, {"note": 76, "velocity": 73, "duration": 293}, {"note": 79, "velocity": 76, "duration": 525}, {"note": 77, "velocity": 73, "duration": 301}, {"note": 0, "velocity": 0, "duration": 240}, {"note": 77, "velocity": 56, "duration": 84}, {"note": 76, "velocity": 59, "duration": 101}, {"note": 77, "velocity": 62, "duration": 145}, {"note": 0, "velocity": 0, "duration": 95}, {"note": 77, "velocity": 50, "duration": 116}, {"note": 76, "velocity": 44, "duration": 110}, {"note": 77, "velocity": 59, "duration": 128}, {"note": 0, "velocity": 0, "duration": 112}, {"note": 77, "velocity": 55, "duration": 122}, {"note": 76, "velocity": 58, "duration": 170}, {"note": 77, "velocity": 61, "duration": 144}, {"note": 79, "velocity": 57, "duration": 122}, {"note": 81, "velocity": 61, "duration": 234}, {"note": 0, "velocity": 0, "duration": 246}, {"note": 77, "velocity": 59, "duration": 105}, {"note": 76, "velocity": 59, "duration": 139}, {"note": 77, "velocity": 63, "duration": 110}, {"note": 0, "velocity": 0, "duration": 130}, {"note": 77, "velocity": 57, "duration": 113}, {"note": 76, "velocity": 57, "duration": 150}, {"note": 77, "velocity": 67, "duration": 146}, {"note": 77, "velocity": 43, "duration": 26}, {"note": 0, "velocity": 0, "duration": 94}, {"note": 77, "velocity": 64, "duration": 99}, {"note": 76, "velocity": 60, "duration": 159}, {"note": 77, "velocity": 62, "duration": 109}, {"note": 79, "velocity": 61, "duration": 127}, {"note": 81, "velocity": 76, "duration": 236}, {"note": 0, "velocity": 0, "duration": 244}, {"note": 77, "velocity": 53, "duration": 115}, {"note": 76, "velocity": 54, "duration": 136}, {"note": 77, "velocity": 67, "duration": 149}, {"note": 0, "velocity": 0, "duration": 83}, {"note": 77, "velocity": 53, "duration": 96}, {"note": 76, "velocity": 49, "duration": 95}, {"note": 77, "velocity": 61, "duration": 125}, {"note": 76, "velocity": 60, "duration": 157}, {"note": 74, "velocity": 64, "duration": 232}, {"note": 76, "velocity": 61, "duration": 220}, {"note": 74, "velocity": 63, "duration": 402}, {"note": 72, "velocity": 57, "duration": 161}, {"note": 0, "velocity": 0, "duration": 110}, {"note": 77, "velocity": 59, "duration": 114}, {"note": 76, "velocity": 47, "duration": 108}, {"note": 77, "velocity": 62, "duration": 165}, {"note": 0, "velocity": 0, "duration": 75}, {"note": 77, "velocity": 53, "duration": 129}, {"note": 76, "velocity": 49, "duration": 139}, {"note": 77, "velocity": 61, "duration": 147}, {"note": 0, "velocity": 0, "duration": 93}, {"note": 77, "velocity": 48, "duration": 128}, {"note": 76, "velocity": 48, "duration": 138}, {"note": 77, "velocity": 55, "duration": 123}, {"note": 79, "velocity": 46, "duration": 112}, {"note": 81, "velocity": 63, "duration": 57}, {"note": 0, "velocity": 0, "duration": 168}, {"note": 77, "velocity": 58, "duration": 98}, {"note": 76, "velocity": 63, "duration": 109}, {"note": 77, "velocity": 70, "duration": 145}, {"note": 0, "velocity": 0, "duration": 95}, {"note": 77, "velocity": 58, "duration": 56}, {"note": 0, "velocity": 0, "duration": 64}, {"note": 77, "velocity": 64, "duration": 67}, {"note": 84, "velocity": 58, "duration": 225}, {"note": 84, "velocity": 69, "duration": 54}, {"note": 0, "velocity": 0, "duration": 66}, {"note": 84, "velocity": 72, "duration": 58}, {"note": 0, "velocity": 0, "duration": 62}, {"note": 84, "velocity": 64, "duration": 134}, {"note": 77, "velocity": 57, "duration": 161}, {"note": 77, "velocity": 67, "duration": 41}, {"note": 74, "velocity": 69, "duration": 216}, {"note": 76, "velocity": 69, "duration": 269}, {"note": 77, "velocity": 66, "duration": 245}, {"note": 79, "velocity": 61, "duration": 262}, {"note": 81, "velocity": 67, "duration": 350}, {"note": 0, "velocity": 0, "duration": 130}, {"note": 82, "velocity": 56, "duration": 278}, {"note": 0, "velocity": 0, "duration": 82}, {"note": 79, "velocity": 67, "duration": 933}, {"note": 77, "velocity": 55, "duration": 78}, {"note": 79, "velocity": 64, "duration": 3}, {"note": 0, "velocity": 0, "duration": 117}, {"note": 80, "velocity": 69, "duration": 499}, {"note": 70, "velocity": 57, "duration": 216}, {"note": 73, "velocity": 66, "duration": 236}, {"note": 77, "velocity": 78, "duration": 236}, {"note": 78, "velocity": 74, "duration": 236}, {"note": 80, "velocity": 55, "duration": 716}, {"note": 82, "velocity": 64, "duration": 236}, {"note": 82, "velocity": 75, "duration": 716}, {"note": 78, "velocity": 73, "duration": 236}, {"note": 80, "velocity": 73, "duration": 716}, {"note": 82, "velocity": 75, "duration": 236}, {"note": 82, "velocity": 78, "duration": 716}, {"note": 85, "velocity": 67, "duration": 236}, {"note": 85, "velocity": 72, "duration": 236}, {"note": 83, "velocity": 65, "duration": 236}, {"note": 82, "velocity": 71, "duration": 236}, {"note": 78, "velocity": 69, "duration": 236}, {"note": 78, "velocity": 76, "duration": 236}, {"note": 80, "velocity": 73, "duration": 236}, {"note": 80, "velocity": 76, "duration": 116}, {"note": 82, "velocity": 76, "duration": 116}, {"note": 83, "velocity": 76, "duration": 236}, {"note": 80, "velocity": 76, "duration": 956}, {"note": 70, "velocity": 57, "duration": 236}, {"note": 73, "velocity": 66, "duration": 236}, {"note": 77, "velocity": 78, "duration": 236}, {"note": 78, "velocity": 77, "duration": 236}, {"note": 80, "velocity": 55, "duration": 716}, {"note": 82, "velocity": 64, "duration": 236}, {"note": 82, "velocity": 75, "duration": 716}, {"note": 78, "velocity": 73, "duration": 236}, {"note": 80, "velocity": 73, "duration": 716}, {"note": 85, "velocity": 75, "duration": 236}, {"note": 82, "velocity": 78, "duration": 716}, {"note": 85, "velocity": 67, "duration": 236}, {"note": 85, "velocity": 72, "duration": 236}, {"note": 83, "velocity": 65, "duration": 236}, {"note": 82, "velocity": 71, "duration": 236}, {"note": 78, "velocity": 69, "duration": 236}, {"note": 85, "velocity": 76, "duration": 236}, {"note": 0, "velocity": 0, "duration": 244}, {"note": 83, "velocity": 64, "duration": 293}, {"note": 0, "velocity": 0, "duration": 186}, {"note": 82, "velocity": 82, "duration": 226}, {"note": 80, "velocity": 73, "duration": 197}, {"note": 78, "velocity": 72, "duration": 239}, {"note": 0, "velocity": 0, "duration": 2161}, {"note": 77, "velocity": 73, "duration": 293}, {"note": 0, "velocity": 0, "duration": 187}, {"note": 78, "velocity": 73, "duration": 301}]]