[[{"note": 63, "velocity": 56, "duration": 116}, {"note": 63, "velocity": 62, "duration": 116}, {"note": 72, "velocity": 70, "duration": 116}, {"note": 72, "velocity": 69, "duration": 23}, {"note": 72, "velocity": 63, "duration": 116}, {"note": 70, "velocity": 66, "duration": 116}, {"note": 70, "velocity": 62, "duration": 356}, {"note": 72, "velocity": 61, "duration": 68}, {"note": 63, "velocity": 55, "duration": 119}, {"note": 60, "velocity": 53, "duration": 116}, {"note": 63, "velocity": 70, "duration": 116}, {"note": 70, "velocity": 61, "duration": 92}, {"note": 68, "velocity": 55, "duration": 116}, {"note": 68, "velocity": 58, "duration": 116}, {"note": 68, "velocity": 59, "duration": 116}, {"note": 67, "velocity": 59, "duration": 116}, {"note": 68, "velocity": 59, "duration": 236}, {"note": 67, "velocity": 43, "duration": 43}, {"note": 65, "velocity": 45, "duration": 545}, {"note": 65, "velocity": 59, "duration": 116}, {"note": 68, "velocity": 69, "duration": 116}, {"note": 65, "velocity": 57, "duration": 29}, {"note": 75, "velocity": 73, "duration": 171}, {"note": 73, "velocity": 80, "duration": 236}, {"note": 72, "velocity": 66, "duration": 236}, {"note": 72, "velocity": 63, "duration": 116}, {"note": 73, "velocity": 59, "duration": 116}, {"note": 72, "velocity": 66, "duration": 236}, {"note": 70, "velocity": 58, "duration": 476}, {"note": 70, "velocity": 59, "duration": 116}, {"note": 65, "velocity": 54, "duration": 51}, {"note": 67, "velocity": 60, "duration": 46}, {"note": 67, "velocity": 60, "duration": 236}, {"note": 70, "velocity": 58, "duration": 116}, {"note": 70, "velocity": 59, "duration": 116}, {"note": 65, "velocity": 54, "duration": 116}, {"note": 67, "velocity": 61, "duration": 116}, {"note": 65, "velocity": 52, "duration": 60}, {"note": 63, "velocity": 49, "duration": 577}, {"note": 63, "velocity": 63, "duration": 116}, {"note": 63, "velocity": 85, "duration": 116}, {"note": 63, "velocity": 82, "duration": 21}, {"note": 72, "velocity": 70, "duration": 41}, {"note": 72, "velocity": 69, "duration": 116}, {"note": 72, "velocity": 63, "duration": 116}, {"note": 70, "velocity": 66, "duration": 116}, {"note": 70, "velocity": 62, "duration": 356}, {"note": 72, "velocity": 61, "duration": 116}, {"note": 63, "velocity": 55, "duration": 390}, {"note": 60, "velocity": 55, "duration": 116}, {"note": 63, "velocity": 53, "duration": 116}, {"note": 60, "velocity": 70, "duration": 0}, {"note": 70, "velocity": 61, "duration": 115}, {"note": 68, "velocity": 55, "duration": 236}, {"note": 67, "velocity": 59, "duration": 236}, {"note": 67, "velocity": 59, "duration": 116}, {"note": 68, "velocity": 43, "duration": 56}, {"note": 67, "velocity": 45, "duration": 192}, {"note": 65, "velocity": 45, "duration": 356}, {"note": 65, "velocity": 59, "duration": 116}, {"note": 68, "velocity": 69, "duration": 116}, {"note": 65, "velocity": 57, "duration": 116}, {"note": 75, "velocity": 73, "duration": 75}, {"note": 73, "velocity": 80, "duration": 116}, {"note": 73, "velocity": 80, "duration": 116}, {"note": 72, "velocity": 66, "duration": 356}, {"note": 73, "velocity": 59, "duration": 116}, {"note": 72, "velocity": 66, "duration": 85}, {"note": 70, "velocity": 58, "duration": 476}, {"note": 70, "velocity": 59, "duration": 116}, {"note": 65, "velocity": 54, "duration": 25}, {"note": 67, "velocity": 60, "duration": 49}, {"note": 67, "velocity": 60, "duration": 116}, {"note": 67, "velocity": 60, "duration": 116}, {"note": 70, "velocity": 58, "duration": 116}, {"note": 70, "velocity": 59, "duration": 116}, {"note": 65, "velocity": 54, "duration": 116}, {"note": 67, "velocity": 61, "duration": 116}, {"note": 65, "velocity": 52, "duration": 98}, {"note": 70, "velocity": 49, "duration": 61}, {"note": 68, "velocity": 49, "duration": 116}, {"note": 68, "velocity": 49, "duration": 716}, {"note": 0, "velocity": 0, "duration": 724}, {"note": 63, "velocity": 88, "duration": 62}, {"note": 65, "velocity": 72, "duration": 167}, {"note": 68, "velocity": 82, "duration": 47}, {"note": 68, "velocity": 73, "duration": 60}, {"note": 68, "velocity": 88, "duration": 103}, {"note": 70, "velocity": 78, "duration": 112}, {"note": 72, "velocity": 63, "duration": 203}, {"note": 72, "velocity": 97, "duration": 83}, {"note": 0, "velocity": 0, "duration": 157}, {"note": 75, "velocity": 91, "duration": 72}, {"note": 75, "velocity": 76, "duration": 407}, {"note": 0, "velocity": 0, "duration": 210}, {"note": 72, "velocity": 93, "duration": 80}, {"note": 75, "velocity": 70, "duration": 108}, {"note": 77, "velocity": 70, "duration": 29}, {"note": 77, "velocity": 75, "duration": 52}, {"note": 77, "velocity": 85, "duration": 84}, {"note": 75, "velocity": 80, "duration": 82}, {"note": 77, "velocity": 95, "duration": 173}, {"note": 0, "velocity": 0, "duration": 67}, {"note": 72, "velocity": 78, "duration": 148}, {"note": 75, "velocity": 74, "duration": 54}, {"note": 0, "velocity": 0, "duration": 66}, {"note": 72, "velocity": 91, "duration": 124}, {"note": 65, "velocity": 72, "duration": 152}, {"note": 0, "velocity": 0, "duration": 88}, {"note": 68, "velocity": 67, "duration": 233}, {"note": 70, "velocity": 74, "duration": 223}, {"note": 0, "velocity": 0, "duration": 605}, {"note": 70, "velocity": 97, "duration": 3}, {"note": 72, "velocity": 78, "duration": 116}, {"note": 75, "velocity": 63, "duration": 11}, {"note": 75, "velocity": 67, "duration": 116}, {"note": 75, "velocity": 75, "duration": 116}, {"note": 72, "velocity": 78, "duration": 116}, {"note": 70, "velocity": 88, "duration": 116}, {"note": 72, "velocity": 88, "duration": 236}, {"note": 67, "velocity": 78, "duration": 50}, {"note": 65, "velocity": 95, "duration": 678}, {"note": 70, "velocity": 95, "duration": 116}, {"note": 65, "velocity": 64, "duration": 116}, {"note": 67, "velocity": 67, "duration": 88}, {"note": 67, "velocity": 69, "duration": 227}, {"note": 70, "velocity": 69, "duration": 116}, {"note": 70, "velocity": 58, "duration": 116}, {"note": 65, "velocity": 67, "duration": 116}, {"note": 67, "velocity": 75, "duration": 116}, {"note": 65, "velocity": 64, "duration": 48}, {"note": 65, "velocity": 70, "duration": 197}, {"note": 63, "velocity": 70, "duration": 632}, {"note": 63, "velocity": 76, "duration": 152}, {"note": 65, "velocity": 75, "duration": 95}, {"note": 68, "velocity": 72, "duration": 63}, {"note": 68, "velocity": 72, "duration": 58}, {"note": 0, "velocity": 0, "duration": 62}, {"note": 68, "velocity": 88, "duration": 95}, {"note": 70, "velocity": 78, "duration": 82}, {"note": 72, "velocity": 99, "duration": 58}, {"note": 0, "velocity": 0, "duration": 62}, {"note": 72, "velocity": 80, "duration": 196}, {"note": 75, "velocity": 88, "duration": 66}, {"note": 77, "velocity": 70, "duration": 80}, {"note": 0, "velocity": 0, "duration": 155}, {"note": 75, "velocity": 88, "duration": 360}, {"note": 0, "velocity": 0, "duration": 120}, {"note": 72, "velocity": 80, "duration": 84}, {"note": 75, "velocity": 66, "duration": 123}, {"note": 77, "velocity": 70, "duration": 78}, {"note": 77, "velocity": 72, "duration": 70}, {"note": 77, "velocity": 80, "duration": 87}, {"note": 75, "velocity": 82, "duration": 111}, {"note": 77, "velocity": 91, "duration": 114}, {"note": 0, "velocity": 0, "duration": 126}, {"note": 72, "velocity": 82, "duration": 117}, {"note": 75, "velocity": 64, "duration": 120}, {"note": 72, "velocity": 80, "duration": 59}, {"note": 0, "velocity": 0, "duration": 73}, {"note": 65, "velocity": 91, "duration": 284}, {"note": 65, "velocity": 80, "duration": 44}, {"note": 0, "velocity": 0, "duration": 196}, {"note": 68, "velocity": 80, "duration": 284}, {"note": 70, "velocity": 80, "duration": 752}, {"note": 0, "velocity": 0, "duration": 431}, {"note": 70, "velocity": 95, "duration": 86}, {"note": 72, "velocity": 78, "duration": 89}, {"note": 75, "velocity": 82, "duration": 63}, {"note": 75, "velocity": 78, "duration": 56}, {"note": 0, "velocity": 0, "duration": 64}, {"note": 75, "velocity": 75, "duration": 87}, {"note": 72, "velocity": 82, "duration": 98}, {"note": 70, "velocity": 95, "duration": 87}, {"note": 72, "velocity": 85, "duration": 34}, {"note": 0, "velocity": 0, "duration": 80}, {"note": 67, "velocity": 69, "duration": 131}, {"note": 0, "velocity": 0, "duration": 109}, {"note": 65, "velocity": 59, "duration": 242}, {"note": 0, "velocity": 0, "duration": 358}, {"note": 63, "velocity": 85, "duration": 121}, {"note": 65, "velocity": 70, "duration": 88}, {"note": 75, "velocity": 80, "duration": 210}, {"note": 72, "velocity": 93, "duration": 219}, {"note": 70, "velocity": 101, "duration": 50}, {"note": 0, "velocity": 0, "duration": 70}, {"note": 70, "velocity": 93, "duration": 33}, {"note": 72, "velocity": 73, "duration": 152}, {"note": 70, "velocity": 76, "duration": 143}, {"note": 68, "velocity": 60, "duration": 97}, {"note": 65, "velocity": 62, "duration": 392}, {"note": 0, "velocity": 0, "duration": 88}, {"note": 70, "velocity": 59, "duration": 242}, {"note": 68, "velocity": 59, "duration": 297}, {"note": 0, "velocity": 0, "duration": 16080}, {"note": 63, "velocity": 56, "duration": 116}, {"note": 63, "velocity": 62, "duration": 116}, {"note": 72, "velocity": 70, "duration": 116}, {"note": 72, "velocity": 69, "duration": 23}, {"note": 72, "velocity": 63, "duration": 116}, {"note": 70, "velocity": 66, "duration": 116}, {"note": 70, "velocity": 62, "duration": 356}, {"note": 72, "velocity": 61, "duration": 68}, {"note": 63, "velocity": 55, "duration": 119}, {"note": 60, "velocity": 53, "duration": 116}, {"note": 63, "velocity": 70, "duration": 116}, {"note": 70, "velocity": 61, "duration": 92}, {"note": 68, "velocity": 55, "duration": 116}, {"note": 68, "velocity": 58, "duration": 116}, {"note": 68, "velocity": 59, "duration": 116}, {"note": 67, "velocity": 59, "duration": 116}, {"note": 68, "velocity": 59, "duration": 236}, {"note": 67, "velocity": 43, "duration": 43}, {"note": 65, "velocity": 45, "duration": 545}, {"note": 65, "velocity": 59, "duration": 116}, {"note": 68, "velocity": 69, "duration": 116}, {"note": 65, "velocity": 57, "duration": 29}, {"note": 75, "velocity": 73, "duration": 171}, {"note": 73, "velocity": 80, "duration": 236}, {"note": 72, "velocity": 66, "duration": 236}, {"note": 72, "velocity": 63, "duration": 116}, {"note": 73, "velocity": 59, "duration": 116}, {"note": 72, "velocity": 66, "duration": 236}, {"note": 70, "velocity": 58, "duration": 476}, {"note": 70, "velocity": 59, "duration": 116}, {"note": 65, "velocity": 54, "duration": 51}, {"note": 67, "velocity": 60, "duration": 46}, {"note": 67, "velocity": 60, "duration": 236}, {"note": 70, "velocity": 58, "duration": 116}, {"note": 70, "velocity": 59, "duration": 116}, {"note": 65, "velocity": 54, "duration": 116}, {"note": 67, "velocity": 61, "duration": 116}, {"note": 65, "velocity": 52, "duration": 60}, {"note": 63, "velocity": 49, "duration": 577}, {"note": 63, "velocity": 63, "duration": 116}, {"note": 63, "velocity": 85, "duration": 116}, {"note": 63, "velocity": 82, "duration": 21}, {"note": 72, "velocity": 70, "duration": 41}, {"note": 72, "velocity": 69, "duration": 116}, {"note": 72, "velocity": 63, "duration": 116}, {"note": 70, "velocity": 66, "duration": 116}, {"note": 70, "velocity": 62, "duration": 356}, {"note": 72, "velocity": 61, "duration": 116}, {"note": 63, "velocity": 55, "duration": 390}, {"note": 60, "velocity": 55, "duration": 116}, {"note": 63, "velocity": 53, "duration": 116}, {"note": 60, "velocity": 70, "duration": 0}, {"note": 70, "velocity": 61, "duration": 115}, {"note": 68, "velocity": 55, "duration": 236}, {"note": 67, "velocity": 59, "duration": 236}, {"note": 67, "velocity": 59, "duration": 116}, {"note": 68, "velocity": 43, "duration": 56}, {"note": 67, "velocity": 45, "duration": 192}, {"note": 65, "velocity": 45, "duration": 356}, {"note": 65, "velocity": 59, "duration": 116}, {"note": 68, "velocity": 69, "duration": 116}, {"note": 65, "velocity": 57, "duration": 116}, {"note": 75, "velocity": 73, "duration": 75}, {"note": 73, "velocity": 80, "duration": 116}, {"note": 73, "velocity": 80, "duration": 116}, {"note": 72, "velocity": 66, "duration": 356}, {"note": 73, "velocity": 59, "duration": 116}, {"note": 72, "velocity": 66, "duration": 85}, {"note": 70, "velocity": 58, "duration": 476}, {"note": 70, "velocity": 59, "duration": 116}, {"note": 65, "velocity": 54, "duration": 25}, {"note": 67, "velocity": 60, "duration": 49}, {"note": 67, "velocity": 60, "duration": 116}, {"note": 67, "velocity": 60, "duration": 116}, {"note": 70, "velocity": 58, "duration": 116}, {"note": 70, "velocity": 59, "duration": 116}, {"note": 65, "velocity": 54, "duration": 116}, {"note": 67, "velocity": 61, "duration": 116}, {"note": 65, "velocity": 52, "duration": 98}, {"note": 70, "velocity": 49, "duration": 61}, {"note": 68, "velocity": 49, "duration": 116}, {"note": 68, "velocity": 49, "duration": 716}, {"note": 0, "velocity": 0, "duration": 720}, {"note": 63, "velocity": 88, "duration": 62}, {"note": 65, "velocity": 72, "duration": 167}, {"note": 68, "velocity": 82, "duration": 47}, {"note": 68, "velocity": 73, "duration": 60}, {"note": 68, "velocity": 88, "duration": 103}, {"note": 70, "velocity": 78, "duration": 112}, {"note": 72, "velocity": 63, "duration": 203}, {"note": 72, "velocity": 97, "duration": 83}, {"note": 0, "velocity": 0, "duration": 157}, {"note": 75, "velocity": 91, "duration": 72}, {"note": 75, "velocity": 76, "duration": 407}, {"note": 0, "velocity": 0, "duration": 210}, {"note": 72, "velocity": 93, "duration": 80}, {"note": 75, "velocity": 70, "duration": 108}, {"note": 77, "velocity": 70, "duration": 29}, {"note": 77, "velocity": 75, "duration": 52}, {"note": 77, "velocity": 85, "duration": 84}, {"note": 75, "velocity": 80, "duration": 82}, {"note": 77, "velocity": 95, "duration": 173}, {"note": 0, "velocity": 0, "duration": 67}, {"note": 72, "velocity": 78, "duration": 148}, {"note": 75, "velocity": 74, "duration": 54}, {"note": 0, "velocity": 0, "duration": 66}, {"note": 72, "velocity": 91, "duration": 124}, {"note": 65, "velocity": 72, "duration": 152}, {"note": 0, "velocity": 0, "duration": 88}, {"note": 68, "velocity": 67, "duration": 233}, {"note": 70, "velocity": 74, "duration": 879}, {"note": 0, "velocity": 0, "duration": 605}, {"note": 70, "velocity": 97, "duration": 3}, {"note": 72, "velocity": 78, "duration": 116}, {"note": 75, "velocity": 63, "duration": 11}, {"note": 75, "velocity": 67, "duration": 116}, {"note": 75, "velocity": 75, "duration": 116}, {"note": 72, "velocity": 78, "duration": 116}, {"note": 70, "velocity": 88, "duration": 116}, {"note": 72, "velocity": 88, "duration": 236}, {"note": 67, "velocity": 78, "duration": 50}, {"note": 65, "velocity": 95, "duration": 678}, {"note": 70, "velocity": 95, "duration": 116}, {"note": 65, "velocity": 64, "duration": 116}, {"note": 67, "velocity": 67, "duration": 88}, {"note": 67, "velocity": 69, "duration": 227}, {"note": 70, "velocity": 69, "duration": 116}, {"note": 70, "velocity": 58, "duration": 116}, {"note": 65, "velocity": 67, "duration": 116}, {"note": 67, "velocity": 75, "duration": 116}, {"note": 65, "velocity": 64, "duration": 48}, {"note": 65, "velocity": 70, "duration": 197}, {"note": 63, "velocity": 70, "duration": 632}, {"note": 63, "velocity": 76, "duration": 152}, {"note": 65, "velocity": 75, "duration": 95}, {"note": 68, "velocity": 72, "duration": 63}, {"note": 68, "velocity": 72, "duration": 58}, {"note": 0, "velocity": 0, "duration": 62}, {"note": 68, "velocity": 88, "duration": 95}, {"note": 70, "velocity": 78, "duration": 82}, {"note": 72, "velocity": 99, "duration": 58}, {"note": 0, "velocity": 0, "duration": 62}, {"note": 72, "velocity": 80, "duration": 196}, {"note": 75, "velocity": 88, "duration": 66}, {"note": 77, "velocity": 70, "duration": 80}, {"note": 0, "velocity": 0, "duration": 155}, {"note": 75, "velocity": 88, "duration": 360}, {"note": 0, "velocity": 0, "duration": 120}, {"note": 72, "velocity": 80, "duration": 84}, {"note": 75, "velocity": 66, "duration": 123}, {"note": 77, "velocity": 70, "duration": 78}, {"note": 77, "velocity": 72, "duration": 70}, {"note": 77, "velocity": 80, "duration": 87}, {"note": 75, "velocity": 82, "duration": 111}, {"note": 77, "velocity": 91, "duration": 114}, {"note": 0, "velocity": 0, "duration": 126}, {"note": 72, "velocity": 82, "duration": 117}, {"note": 75, "velocity": 64, "duration": 120}, {"note": 72, "velocity": 80, "duration": 59}, {"note": 0, "velocity": 0, "duration": 73}, {"note": 65, "velocity": 91, "duration": 284}, {"note": 65, "velocity": 80, "duration": 44}, {"note": 0, "velocity": 0, "duration": 196}, {"note": 68, "velocity": 80, "duration": 284}, {"note": 70, "velocity": 80, "duration": 284}, {"note": 0, "velocity": 0, "duration": 89}, {"note": 70, "velocity": 95, "duration": 86}, {"note": 72, "velocity": 78, "duration": 89}, {"note": 75, "velocity": 82, "duration": 63}, {"note": 75, "velocity": 78, "duration": 56}, {"note": 0, "velocity": 0, "duration": 64}, {"note": 75, "velocity": 75, "duration": 87}, {"note": 72, "velocity": 82, "duration": 98}, {"note": 70, "velocity": 95, "duration": 87}, {"note": 72, "velocity": 85, "duration": 34}, {"note": 0, "velocity": 0, "duration": 80}, {"note": 67, "velocity": 69, "duration": 131}, {"note": 0, "velocity": 0, "duration": 109}, {"note": 65, "velocity": 59, "duration": 242}, {"note": 0, "velocity": 0, "duration": 358}, {"note": 63, "velocity": 85, "duration": 121}, {"note": 65, "velocity": 70, "duration": 88}, {"note": 75, "velocity": 80, "duration": 210}, {"note": 72, "velocity": 93, "duration": 219}, {"note": 70, "velocity": 101, "duration": 50}, {"note": 0, "velocity": 0, "duration": 70}, {"note": 70, "velocity": 93, "duration": 33}, {"note": 72, "velocity": 73, "duration": 152}, {"note": 70, "velocity": 76, "duration": 143}, {"note": 68, "velocity": 60, "duration": 97}, {"note": 65, "velocity": 62, "duration": 106}, {"note": 0, "velocity": 0, "duration": 374}, {"note": 70, "velocity": 59, "duration": 242}, {"note": 68, "velocity": 59, "duration": 242}, {"note": 0, "velocity": 0, "duration": 720}, {"note": 63, "velocity": 88, "duration": 62}, {"note": 65, "velocity": 72, "duration": 167}, {"note": 68, "velocity": 82, "duration": 47}, {"note": 68, "velocity": 73, "duration": 60}, {"note": 68, "velocity": 88, "duration": 103}, {"note": 70, "velocity": 78, "duration": 112}, {"note": 72, "velocity": 63, "duration": 203}, {"note": 72, "velocity": 97, "duration": 83}, {"note": 0, "velocity": 0, "duration": 157}, {"note": 75, "velocity": 91, "duration": 72}, {"note": 75, "velocity": 76, "duration": 407}, {"note": 0, "velocity": 0, "duration": 210}, {"note": 72, "velocity": 93, "duration": 80}, {"note": 75, "velocity": 70, "duration": 108}, {"note": 77, "velocity": 70, "duration": 29}, {"note": 77, "velocity": 75, "duration": 52}, {"note": 77, "velocity": 85, "duration": 84}, {"note": 75, "velocity": 80, "duration": 82}, {"note": 77, "velocity": 95, "duration": 173}, {"note": 0, "velocity": 0, "duration": 67}, {"note": 72, "velocity": 78, "duration": 148}, {"note": 75, "velocity": 74, "duration": 54}, {"note": 0, "velocity": 0, "duration": 66}, {"note": 72, "velocity": 91, "duration": 124}, {"note": 65, "velocity": 72, "duration": 152}, {"note": 0, "velocity": 0, "duration": 88}, {"note": 68, "velocity": 67, "duration": 233}, {"note": 70, "velocity": 74, "duration": 223}, {"note": 0, "velocity": 0, "duration": 605}, {"note": 70, "velocity": 97, "duration": 3}, {"note": 72, "velocity": 78, "duration": 116}, {"note": 75, "velocity": 63, "duration": 11}, {"note": 75, "velocity": 67, "duration": 116}, {"note": 75, "velocity": 75, "duration": 116}, {"note": 72, "velocity": 78, "duration": 116}, {"note": 70, "velocity": 88, "duration": 116}, {"note": 72, "velocity": 88, "duration": 236}, {"note": 67, "velocity": 78, "duration": 50}, {"note": 65, "velocity": 95, "duration": 678}, {"note": 70, "velocity": 95, "duration": 116}, {"note": 65, "velocity": 64, "duration": 116}, {"note": 67, "velocity": 67, "duration": 88}, {"note": 67, "velocity": 69, "duration": 227}, {"note": 70, "velocity": 69, "duration": 116}, {"note": 70, "velocity": 58, "duration": 116}, {"note": 65, "velocity": 67, "duration": 116}, {"note": 67, "velocity": 75, "duration": 116}, {"note": 65, "velocity": 64, "duration": 48}, {"note": 65, "velocity": 70, "duration": 197}, {"note": 63, "velocity": 70, "duration": 632}, {"note": 63, "velocity": 76, "duration": 152}, {"note": 65, "velocity": 75, "duration": 95}, {"note": 68, "velocity": 72, "duration": 63}, {"note": 68, "velocity": 72, "duration": 58}, {"note": 0, "velocity": 0, "duration": 62}, {"note": 68, "velocity": 88, "duration": 95}, {"note": 70, "velocity": 78, "duration": 82}, {"note": 72, "velocity": 99, "duration": 58}, {"note": 0, "velocity": 0, "duration": 62}, {"note": 72, "velocity": 80, "duration": 196}, {"note": 75, "velocity": 88, "duration": 66}, {"note": 77, "velocity": 70, "duration": 80}, {"note": 0, "velocity": 0, "duration": 155}, {"note": 75, "velocity": 88, "duration": 360}, {"note": 0, "velocity": 0, "duration": 120}, {"note": 72, "velocity": 80, "duration": 84}, {"note": 75, "velocity": 66, "duration": 123}, {"note": 77, "velocity": 70, "duration": 78}, {"note": 77, "velocity": 72, "duration": 70}, {"note": 77, "velocity": 80, "duration": 87}, {"note": 75, "velocity": 82, "duration": 111}, {"note": 77, "velocity": 91, "duration": 114}, {"note": 0, "velocity": 0, "duration": 126}, {"note": 72, "velocity": 82, "duration": 117}, {"note": 75, "velocity": 64, "duration": 120}, {"note": 72, "velocity": 80, "duration": 59}, {"note": 0, "velocity": 0, "duration": 73}, {"note": 65, "velocity": 91, "duration": 284}, {"note": 65, "velocity": 80, "duration": 44}, {"note": 0, "velocity": 0, "duration": 196}, {"note": 68, "velocity": 80, "duration": 284}, {"note": 70, "velocity": 80, "duration": 284}, {"note": 0, "velocity": 0, "duration": 1139}, {"note": 70, "velocity": 95, "duration": 86}, {"note": 72, "velocity": 78, "duration": 89}, {"note": 75, "velocity": 82, "duration": 63}, {"note": 75, "velocity": 78, "duration": 56}, {"note": 0, "velocity": 0, "duration": 64}, {"note": 75, "velocity": 75, "duration": 87}, {"note": 72, "velocity": 82, "duration": 98}, {"note": 70, "velocity": 95, "duration": 87}, {"note": 72, "velocity": 85, "duration": 34}, {"note": 0, "velocity": 0, "duration": 80}, {"note": 67, "velocity": 69, "duration": 131}, {"note": 0, "velocity": 0, "duration": 109}, {"note": 65, "velocity": 59, "duration": 242}, {"note": 0, "velocity": 0, "duration": 358}, {"note": 63, "velocity": 85, "duration": 121}, {"note": 65, "velocity": 70, "duration": 88}, {"note": 75, "velocity": 80, "duration": 210}, {"note": 72, "velocity": 93, "duration": 219}, {"note": 70, "velocity": 101, "duration": 50}, {"note": 0, "velocity": 0, "duration": 70}, {"note": 70, "velocity": 93, "duration": 33}, {"note": 72, "velocity": 73, "duration": 152}, {"note": 70, "velocity": 76, "duration": 143}, {"note": 68, "velocity": 60, "duration": 97}, {"note": 65, "velocity": 62, "duration": 106}, {"note": 0, "velocity": 0, "duration": 374}, {"note": 70, "velocity": 59, "duration": 242}, {"note": 68, "velocity": 59, "duration": 242}, {"note": 0, "velocity": 0, "duration": 720}, {"note": 63, "velocity": 73, "duration": 136}, {"note": 65, "velocity": 67, "duration": 90}, {"note": 75, "velocity": 73, "duration": 248}, {"note": 72, "velocity": 80, "duration": 188}, {"note": 70, "velocity": 64, "duration": 172}, {"note": 0, "velocity": 0, "duration": 68}, {"note": 70, "velocity": 63, "duration": 127}, {"note": 72, "velocity": 69, "duration": 162}, {"note": 70, "velocity": 64, "duration": 305}, {"note": 65, "velocity": 73, "duration": 520}, {"note": 0, "velocity": 0, "duration": 1097}, {"note": 70, "velocity": 69, "duration": 437}, {"note": 68, "velocity": 91, "duration": 552}]]