[[{"note": 68, "velocity": 91, "duration": 236}, {"note": 69, "velocity": 91, "duration": 596}, {"note": 64, "velocity": 67, "duration": 116}, {"note": 64, "velocity": 64, "duration": 116}, {"note": 64, "velocity": 56, "duration": 116}, {"note": 69, "velocity": 85, "duration": 196}, {"note": 71, "velocity": 76, "duration": 196}, {"note": 71, "velocity": 82, "duration": 196}, {"note": 69, "velocity": 75, "duration": 116}, {"note": 68, "velocity": 70, "duration": 116}, {"note": 69, "velocity": 66, "duration": 596}, {"note": 64, "velocity": 44, "duration": 116}, {"note": 64, "velocity": 56, "duration": 116}, {"note": 64, "velocity": 66, "duration": 236}, {"note": 69, "velocity": 64, "duration": 116}, {"note": 71, "velocity": 72, "duration": 236}, {"note": 71, "velocity": 91, "duration": 236}, {"note": 69, "velocity": 75, "duration": 116}, {"note": 68, "velocity": 80, "duration": 236}, {"note": 69, "velocity": 67, "duration": 716}, {"note": 64, "velocity": 67, "duration": 116}, {"note": 64, "velocity": 80, "duration": 116}, {"note": 66, "velocity": 72, "duration": 236}, {"note": 69, "velocity": 76, "duration": 116}, {"note": 71, "velocity": 69, "duration": 356}, {"note": 69, "velocity": 82, "duration": 116}, {"note": 73, "velocity": 72, "duration": 1796}, {"note": 68, "velocity": 91, "duration": 236}, {"note": 69, "velocity": 91, "duration": 596}, {"note": 64, "velocity": 67, "duration": 116}, {"note": 64, "velocity": 64, "duration": 116}, {"note": 64, "velocity": 56, "duration": 116}, {"note": 69, "velocity": 85, "duration": 196}, {"note": 71, "velocity": 76, "duration": 196}, {"note": 71, "velocity": 82, "duration": 196}, {"note": 69, "velocity": 75, "duration": 116}, {"note": 68, "velocity": 70, "duration": 116}, {"note": 69, "velocity": 66, "duration": 596}, {"note": 64, "velocity": 44, "duration": 116}, {"note": 64, "velocity": 56, "duration": 116}, {"note": 64, "velocity": 66, "duration": 236}, {"note": 69, "velocity": 64, "duration": 116}, {"note": 71, "velocity": 72, "duration": 236}, {"note": 71, "velocity": 91, "duration": 236}, {"note": 69, "velocity": 75, "duration": 116}, {"note": 68, "velocity": 80, "duration": 236}, {"note": 69, "velocity": 67, "duration": 716}, {"note": 64, "velocity": 67, "duration": 116}, {"note": 64, "velocity": 80, "duration": 116}, {"note": 66, "velocity": 72, "duration": 236}, {"note": 69, "velocity": 76, "duration": 116}, {"note": 71, "velocity": 69, "duration": 356}, {"note": 69, "velocity": 82, "duration": 236}, {"note": 68, "velocity": 93, "duration": 236}, {"note": 69, "velocity": 80, "duration": 1676}, {"note": 73, "velocity": 91, "duration": 596}, {"note": 73, "velocity": 97, "duration": 116}, {"note": 71, "velocity": 80, "duration": 116}, {"note": 69, "velocity": 88, "duration": 116}, {"note": 71, "velocity": 78, "duration": 116}, {"note": 69, "velocity": 91, "duration": 236}, {"note": 71, "velocity": 85, "duration": 236}, {"note": 73, "velocity": 97, "duration": 116}, {"note": 71, "velocity": 97, "duration": 236}, {"note": 69, "velocity": 80, "duration": 116}, {"note": 66, "velocity": 80, "duration": 476}, {"note": 73, "velocity": 97, "duration": 116}, {"note": 71, "velocity": 70, "duration": 116}, {"note": 69, "velocity": 85, "duration": 116}, {"note": 71, "velocity": 80, "duration": 116}, {"note": 69, "velocity": 78, "duration": 236}, {"note": 71, "velocity": 88, "duration": 236}, {"note": 73, "velocity": 91, "duration": 356}, {"note": 69, "velocity": 85, "duration": 116}, {"note": 66, "velocity": 82, "duration": 476}, {"note": 64, "velocity": 78, "duration": 116}, {"note": 64, "velocity": 75, "duration": 116}, {"note": 64, "velocity": 70, "duration": 116}, {"note": 66, "velocity": 82, "duration": 116}, {"note": 69, "velocity": 88, "duration": 236}, {"note": 71, "velocity": 93, "duration": 356}, {"note": 69, "velocity": 76, "duration": 116}, {"note": 73, "velocity": 97, "duration": 1076}, {"note": 73, "velocity": 95, "duration": 236}, {"note": 71, "velocity": 88, "duration": 116}, {"note": 71, "velocity": 88, "duration": 236}, {"note": 69, "velocity": 88, "duration": 356}, {"note": 73, "velocity": 97, "duration": 596}, {"note": 73, "velocity": 97, "duration": 116}, {"note": 71, "velocity": 75, "duration": 116}, {"note": 69, "velocity": 93, "duration": 116}, {"note": 71, "velocity": 88, "duration": 116}, {"note": 69, "velocity": 101, "duration": 236}, {"note": 71, "velocity": 97, "duration": 236}, {"note": 73, "velocity": 99, "duration": 356}, {"note": 66, "velocity": 97, "duration": 596}, {"note": 73, "velocity": 95, "duration": 116}, {"note": 71, "velocity": 80, "duration": 116}, {"note": 69, "velocity": 91, "duration": 116}, {"note": 71, "velocity": 78, "duration": 116}, {"note": 69, "velocity": 88, "duration": 236}, {"note": 71, "velocity": 97, "duration": 236}, {"note": 73, "velocity": 103, "duration": 356}, {"note": 66, "velocity": 93, "duration": 716}, {"note": 64, "velocity": 91, "duration": 236}, {"note": 66, "velocity": 88, "duration": 236}, {"note": 69, "velocity": 78, "duration": 116}, {"note": 71, "velocity": 69, "duration": 356}, {"note": 69, "velocity": 88, "duration": 116}, {"note": 69, "velocity": 85, "duration": 2036}, {"note": 73, "velocity": 109, "duration": 236}, {"note": 73, "velocity": 101, "duration": 116}, {"note": 73, "velocity": 99, "duration": 236}, {"note": 73, "velocity": 103, "duration": 356}, {"note": 71, "velocity": 101, "duration": 236}, {"note": 68, "velocity": 101, "duration": 116}, {"note": 68, "velocity": 101, "duration": 236}, {"note": 71, "velocity": 95, "duration": 356}, {"note": 69, "velocity": 101, "duration": 956}, {"note": 68, "velocity": 99, "duration": 236}, {"note": 64, "velocity": 88, "duration": 116}, {"note": 64, "velocity": 88, "duration": 236}, {"note": 68, "velocity": 97, "duration": 356}, {"note": 66, "velocity": 97, "duration": 956}, {"note": 71, "velocity": 103, "duration": 236}, {"note": 71, "velocity": 95, "duration": 116}, {"note": 71, "velocity": 91, "duration": 236}, {"note": 69, "velocity": 95, "duration": 356}, {"note": 64, "velocity": 97, "duration": 1916}, {"note": 73, "velocity": 109, "duration": 236}, {"note": 73, "velocity": 101, "duration": 116}, {"note": 73, "velocity": 99, "duration": 236}, {"note": 73, "velocity": 103, "duration": 356}, {"note": 71, "velocity": 101, "duration": 236}, {"note": 68, "velocity": 101, "duration": 116}, {"note": 68, "velocity": 101, "duration": 236}, {"note": 71, "velocity": 95, "duration": 356}, {"note": 69, "velocity": 101, "duration": 956}, {"note": 68, "velocity": 99, "duration": 236}, {"note": 64, "velocity": 88, "duration": 116}, {"note": 64, "velocity": 88, "duration": 236}, {"note": 68, "velocity": 97, "duration": 356}, {"note": 66, "velocity": 97, "duration": 956}, {"note": 71, "velocity": 103, "duration": 236}, {"note": 71, "velocity": 95, "duration": 116}, {"note": 71, "velocity": 91, "duration": 356}, {"note": 69, "velocity": 95, "duration": 116}, {"note": 68, "velocity": 95, "duration": 116}, {"note": 69, "velocity": 97, "duration": 1916}, {"note": 73, "velocity": 109, "duration": 236}, {"note": 73, "velocity": 101, "duration": 116}, {"note": 73, "velocity": 99, "duration": 236}, {"note": 73, "velocity": 103, "duration": 356}, {"note": 76, "velocity": 101, "duration": 236}, {"note": 76, "velocity": 101, "duration": 116}, {"note": 76, "velocity": 101, "duration": 236}, {"note": 71, "velocity": 95, "duration": 356}, {"note": 69, "velocity": 101, "duration": 956}, {"note": 68, "velocity": 99, "duration": 236}, {"note": 64, "velocity": 88, "duration": 116}, {"note": 64, "velocity": 88, "duration": 236}, {"note": 68, "velocity": 97, "duration": 356}, {"note": 66, "velocity": 97, "duration": 956}, {"note": 71, "velocity": 103, "duration": 236}, {"note": 71, "velocity": 95, "duration": 116}, {"note": 71, "velocity": 91, "duration": 356}, {"note": 69, "velocity": 95, "duration": 236}, {"note": 64, "velocity": 97, "duration": 1916}, {"note": 73, "velocity": 109, "duration": 236}, {"note": 73, "velocity": 101, "duration": 116}, {"note": 73, "velocity": 99, "duration": 236}, {"note": 73, "velocity": 103, "duration": 356}, {"note": 76, "velocity": 101, "duration": 236}, {"note": 76, "velocity": 101, "duration": 116}, {"note": 76, "velocity": 101, "duration": 236}, {"note": 78, "velocity": 95, "duration": 356}, {"note": 78, "velocity": 101, "duration": 476}, {"note": 73, "velocity": 93, "duration": 236}, {"note": 73, "velocity": 91, "duration": 116}, {"note": 71, "velocity": 99, "duration": 236}, {"note": 69, "velocity": 93, "duration": 356}, {"note": 73, "velocity": 95, "duration": 236}, {"note": 73, "velocity": 85, "duration": 116}, {"note": 71, "velocity": 95, "duration": 236}, {"note": 69, "velocity": 99, "duration": 836}, {"note": 71, "velocity": 103, "duration": 236}, {"note": 71, "velocity": 95, "duration": 116}, {"note": 71, "velocity": 91, "duration": 236}, {"note": 73, "velocity": 97, "duration": 356}, {"note": 71, "velocity": 97, "duration": 356}, {"note": 73, "velocity": 103, "duration": 47}, {"note": 71, "velocity": 103, "duration": 65}, {"note": 69, "velocity": 103, "duration": 1436}, {"note": 0, "velocity": 0, "duration": 7684}, {"note": 73, "velocity": 91, "duration": 596}, {"note": 73, "velocity": 97, "duration": 116}, {"note": 71, "velocity": 80, "duration": 116}, {"note": 69, "velocity": 88, "duration": 116}, {"note": 71, "velocity": 78, "duration": 116}, {"note": 69, "velocity": 91, "duration": 236}, {"note": 71, "velocity": 85, "duration": 236}, {"note": 73, "velocity": 97, "duration": 116}, {"note": 71, "velocity": 97, "duration": 236}, {"note": 69, "velocity": 80, "duration": 116}, {"note": 66, "velocity": 80, "duration": 476}, {"note": 73, "velocity": 97, "duration": 116}, {"note": 71, "velocity": 70, "duration": 116}, {"note": 69, "velocity": 85, "duration": 116}, {"note": 71, "velocity": 80, "duration": 116}, {"note": 69, "velocity": 78, "duration": 236}, {"note": 71, "velocity": 88, "duration": 236}, {"note": 73, "velocity": 91, "duration": 356}, {"note": 69, "velocity": 85, "duration": 116}, {"note": 66, "velocity": 82, "duration": 476}, {"note": 64, "velocity": 78, "duration": 116}, {"note": 64, "velocity": 75, "duration": 116}, {"note": 64, "velocity": 70, "duration": 116}, {"note": 66, "velocity": 82, "duration": 116}, {"note": 69, "velocity": 88, "duration": 236}, {"note": 71, "velocity": 93, "duration": 356}, {"note": 69, "velocity": 76, "duration": 116}, {"note": 73, "velocity": 97, "duration": 1076}, {"note": 73, "velocity": 95, "duration": 236}, {"note": 71, "velocity": 88, "duration": 116}, {"note": 71, "velocity": 88, "duration": 236}, {"note": 69, "velocity": 88, "duration": 356}, {"note": 73, "velocity": 97, "duration": 596}, {"note": 73, "velocity": 97, "duration": 116}, {"note": 71, "velocity": 75, "duration": 116}, {"note": 69, "velocity": 93, "duration": 116}, {"note": 71, "velocity": 88, "duration": 116}, {"note": 69, "velocity": 101, "duration": 236}, {"note": 71, "velocity": 97, "duration": 236}, {"note": 73, "velocity": 99, "duration": 356}, {"note": 66, "velocity": 97, "duration": 596}, {"note": 73, "velocity": 95, "duration": 116}, {"note": 71, "velocity": 80, "duration": 116}, {"note": 69, "velocity": 91, "duration": 116}, {"note": 71, "velocity": 78, "duration": 116}, {"note": 69, "velocity": 88, "duration": 236}, {"note": 71, "velocity": 97, "duration": 236}, {"note": 73, "velocity": 103, "duration": 356}, {"note": 66, "velocity": 93, "duration": 716}, {"note": 64, "velocity": 91, "duration": 236}, {"note": 66, "velocity": 88, "duration": 236}, {"note": 69, "velocity": 78, "duration": 116}, {"note": 71, "velocity": 69, "duration": 356}, {"note": 69, "velocity": 88, "duration": 116}, {"note": 69, "velocity": 85, "duration": 2036}, {"note": 73, "velocity": 109, "duration": 236}, {"note": 73, "velocity": 101, "duration": 116}, {"note": 73, "velocity": 99, "duration": 236}, {"note": 73, "velocity": 103, "duration": 356}, {"note": 71, "velocity": 101, "duration": 236}, {"note": 68, "velocity": 101, "duration": 116}, {"note": 68, "velocity": 101, "duration": 236}, {"note": 71, "velocity": 95, "duration": 356}, {"note": 69, "velocity": 101, "duration": 956}, {"note": 68, "velocity": 99, "duration": 236}, {"note": 64, "velocity": 88, "duration": 116}, {"note": 64, "velocity": 88, "duration": 236}, {"note": 68, "velocity": 97, "duration": 356}, {"note": 66, "velocity": 97, "duration": 956}, {"note": 71, "velocity": 103, "duration": 236}, {"note": 71, "velocity": 95, "duration": 116}, {"note": 71, "velocity": 91, "duration": 236}, {"note": 69, "velocity": 95, "duration": 356}, {"note": 64, "velocity": 97, "duration": 1916}, {"note": 73, "velocity": 109, "duration": 236}, {"note": 73, "velocity": 101, "duration": 116}, {"note": 73, "velocity": 99, "duration": 236}, {"note": 73, "velocity": 103, "duration": 356}, {"note": 71, "velocity": 101, "duration": 236}, {"note": 68, "velocity": 101, "duration": 116}, {"note": 68, "velocity": 101, "duration": 236}, {"note": 71, "velocity": 95, "duration": 356}, {"note": 69, "velocity": 101, "duration": 956}, {"note": 68, "velocity": 99, "duration": 236}, {"note": 64, "velocity": 88, "duration": 116}, {"note": 64, "velocity": 88, "duration": 236}, {"note": 68, "velocity": 97, "duration": 356}, {"note": 66, "velocity": 97, "duration": 956}, {"note": 71, "velocity": 103, "duration": 236}, {"note": 71, "velocity": 95, "duration": 116}, {"note": 71, "velocity": 91, "duration": 356}, {"note": 69, "velocity": 95, "duration": 116}, {"note": 68, "velocity": 95, "duration": 116}, {"note": 69, "velocity": 97, "duration": 1916}, {"note": 73, "velocity": 109, "duration": 236}, {"note": 73, "velocity": 101, "duration": 116}, {"note": 73, "velocity": 99, "duration": 236}, {"note": 73, "velocity": 103, "duration": 356}, {"note": 76, "velocity": 101, "duration": 236}, {"note": 76, "velocity": 101, "duration": 116}, {"note": 76, "velocity": 101, "duration": 236}, {"note": 71, "velocity": 95, "duration": 356}, {"note": 69, "velocity": 101, "duration": 956}, {"note": 68, "velocity": 99, "duration": 236}, {"note": 64, "velocity": 88, "duration": 116}, {"note": 64, "velocity": 88, "duration": 236}, {"note": 68, "velocity": 97, "duration": 356}, {"note": 66, "velocity": 97, "duration": 956}, {"note": 71, "velocity": 103, "duration": 236}, {"note": 71, "velocity": 95, "duration": 116}, {"note": 71, "velocity": 91, "duration": 356}, {"note": 69, "velocity": 95, "duration": 236}, {"note": 64, "velocity": 97, "duration": 1916}, {"note": 73, "velocity": 109, "duration": 236}, {"note": 73, "velocity": 101, "duration": 116}, {"note": 73, "velocity": 99, "duration": 236}, {"note": 73, "velocity": 103, "duration": 356}, {"note": 76, "velocity": 101, "duration": 236}, {"note": 76, "velocity": 101, "duration": 116}, {"note": 76, "velocity": 101, "duration": 236}, {"note": 78, "velocity": 95, "duration": 356}, {"note": 78, "velocity": 101, "duration": 476}, {"note": 73, "velocity": 93, "duration": 236}, {"note": 73, "velocity": 91, "duration": 116}, {"note": 71, "velocity": 99, "duration": 236}, {"note": 69, "velocity": 93, "duration": 356}, {"note": 73, "velocity": 95, "duration": 236}, {"note": 73, "velocity": 85, "duration": 116}, {"note": 71, "velocity": 95, "duration": 236}, {"note": 69, "velocity": 99, "duration": 836}, {"note": 71, "velocity": 103, "duration": 236}, {"note": 71, "velocity": 95, "duration": 116}, {"note": 71, "velocity": 91, "duration": 236}, {"note": 73, "velocity": 97, "duration": 356}, {"note": 71, "velocity": 97, "duration": 356}, {"note": 73, "velocity": 103, "duration": 47}, {"note": 71, "velocity": 103, "duration": 65}, {"note": 69, "velocity": 103, "duration": 1436}, {"note": 0, "velocity": 0, "duration": 953}, {"note": 76, "velocity": 100, "duration": 457}, {"note": 0, "velocity": 0, "duration": 487}, {"note": 81, "velocity": 100, "duration": 305}, {"note": 0, "velocity": 0, "duration": 232}, {"note": 73, "velocity": 100, "duration": 120}, {"note": 0, "velocity": 0, "duration": 112}, {"note": 73, "velocity": 100, "duration": 120}, {"note": 0, "velocity": 0, "duration": 98}, {"note": 71, "velocity": 100, "duration": 106}, {"note": 69, "velocity": 100, "duration": 305}, {"note": 73, "velocity": 100, "duration": 120}, {"note": 0, "velocity": 0, "duration": 105}, {"note": 73, "velocity": 100, "duration": 120}, {"note": 0, "velocity": 0, "duration": 139}, {"note": 71, "velocity": 100, "duration": 120}, {"note": 69, "velocity": 100, "duration": 120}, {"note": 0, "velocity": 0, "duration": 698}, {"note": 71, "velocity": 100, "duration": 120}, {"note": 0, "velocity": 0, "duration": 158}, {"note": 71, "velocity": 100, "duration": 120}, {"note": 71, "velocity": 100, "duration": 120}, {"note": 0, "velocity": 0, "duration": 150}, {"note": 73, "velocity": 100, "duration": 120}, {"note": 0, "velocity": 0, "duration": 100}, {"note": 71, "velocity": 100, "duration": 120}, {"note": 0, "velocity": 0, "duration": 120}, {"note": 69, "velocity": 100, "duration": 371}]]