[[{"note": 79, "velocity": 101, "duration": 116}, {"note": 79, "velocity": 93, "duration": 116}, {"note": 79, "velocity": 93, "duration": 116}, {"note": 84, "velocity": 88, "duration": 116}, {"note": 84, "velocity": 88, "duration": 476}, {"note": 86, "velocity": 93, "duration": 116}, {"note": 86, "velocity": 93, "duration": 116}, {"note": 84, "velocity": 88, "duration": 116}, {"note": 82, "velocity": 82, "duration": 116}, {"note": 82, "velocity": 69, "duration": 476}, {"note": 77, "velocity": 97, "duration": 116}, {"note": 77, "velocity": 78, "duration": 116}, {"note": 77, "velocity": 78, "duration": 116}, {"note": 75, "velocity": 85, "duration": 116}, {"note": 77, "velocity": 88, "duration": 116}, {"note": 77, "velocity": 85, "duration": 116}, {"note": 77, "velocity": 91, "duration": 116}, {"note": 82, "velocity": 73, "duration": 116}, {"note": 79, "velocity": 88, "duration": 116}, {"note": 75, "velocity": 75, "duration": 116}, {"note": 77, "velocity": 88, "duration": 116}, {"note": 79, "velocity": 82, "duration": 116}, {"note": 79, "velocity": 88, "duration": 476}, {"note": 79, "velocity": 91, "duration": 116}, {"note": 79, "velocity": 85, "duration": 116}, {"note": 79, "velocity": 82, "duration": 116}, {"note": 84, "velocity": 80, "duration": 116}, {"note": 84, "velocity": 88, "duration": 476}, {"note": 86, "velocity": 99, "duration": 116}, {"note": 86, "velocity": 80, "duration": 116}, {"note": 86, "velocity": 95, "duration": 116}, {"note": 89, "velocity": 70, "duration": 116}, {"note": 89, "velocity": 82, "duration": 476}, {"note": 82, "velocity": 97, "duration": 116}, {"note": 82, "velocity": 82, "duration": 116}, {"note": 82, "velocity": 93, "duration": 116}, {"note": 79, "velocity": 93, "duration": 116}, {"note": 79, "velocity": 93, "duration": 116}, {"note": 86, "velocity": 103, "duration": 236}, {"note": 87, "velocity": 75, "duration": 116}, {"note": 86, "velocity": 95, "duration": 116}, {"note": 84, "velocity": 82, "duration": 116}, {"note": 84, "velocity": 82, "duration": 116}, {"note": 82, "velocity": 82, "duration": 116}, {"note": 84, "velocity": 85, "duration": 476}, {"note": 79, "velocity": 101, "duration": 116}, {"note": 79, "velocity": 93, "duration": 116}, {"note": 79, "velocity": 93, "duration": 116}, {"note": 84, "velocity": 88, "duration": 116}, {"note": 84, "velocity": 88, "duration": 476}, {"note": 86, "velocity": 93, "duration": 116}, {"note": 86, "velocity": 93, "duration": 116}, {"note": 84, "velocity": 88, "duration": 116}, {"note": 82, "velocity": 82, "duration": 116}, {"note": 82, "velocity": 69, "duration": 476}, {"note": 77, "velocity": 97, "duration": 116}, {"note": 77, "velocity": 78, "duration": 116}, {"note": 77, "velocity": 78, "duration": 116}, {"note": 75, "velocity": 85, "duration": 116}, {"note": 77, "velocity": 88, "duration": 116}, {"note": 77, "velocity": 85, "duration": 116}, {"note": 77, "velocity": 91, "duration": 116}, {"note": 82, "velocity": 73, "duration": 116}, {"note": 79, "velocity": 88, "duration": 116}, {"note": 75, "velocity": 75, "duration": 116}, {"note": 77, "velocity": 88, "duration": 116}, {"note": 79, "velocity": 82, "duration": 116}, {"note": 79, "velocity": 88, "duration": 476}, {"note": 79, "velocity": 91, "duration": 116}, {"note": 79, "velocity": 85, "duration": 116}, {"note": 79, "velocity": 82, "duration": 116}, {"note": 84, "velocity": 80, "duration": 116}, {"note": 84, "velocity": 88, "duration": 476}, {"note": 86, "velocity": 99, "duration": 116}, {"note": 86, "velocity": 80, "duration": 116}, {"note": 86, "velocity": 95, "duration": 116}, {"note": 89, "velocity": 70, "duration": 116}, {"note": 89, "velocity": 82, "duration": 476}, {"note": 82, "velocity": 97, "duration": 116}, {"note": 82, "velocity": 82, "duration": 116}, {"note": 82, "velocity": 93, "duration": 116}, {"note": 79, "velocity": 93, "duration": 116}, {"note": 79, "velocity": 93, "duration": 116}, {"note": 86, "velocity": 103, "duration": 236}, {"note": 87, "velocity": 75, "duration": 116}, {"note": 89, "velocity": 95, "duration": 116}, {"note": 89, "velocity": 82, "duration": 116}, {"note": 87, "velocity": 82, "duration": 116}, {"note": 86, "velocity": 82, "duration": 116}, {"note": 84, "velocity": 85, "duration": 476}, {"note": 0, "velocity": 0, "duration": 724}, {"note": 79, "velocity": 99, "duration": 116}, {"note": 82, "velocity": 95, "duration": 116}, {"note": 84, "velocity": 99, "duration": 236}, {"note": 84, "velocity": 99, "duration": 116}, {"note": 84, "velocity": 99, "duration": 116}, {"note": 84, "velocity": 103, "duration": 236}, {"note": 84, "velocity": 97, "duration": 116}, {"note": 91, "velocity": 99, "duration": 116}, {"note": 91, "velocity": 97, "duration": 116}, {"note": 89, "velocity": 88, "duration": 116}, {"note": 89, "velocity": 97, "duration": 116}, {"note": 91, "velocity": 97, "duration": 116}, {"note": 89, "velocity": 99, "duration": 456}, {"note": 86, "velocity": 101, "duration": 251}, {"note": 86, "velocity": 93, "duration": 11}, {"note": 0, "velocity": 0, "duration": 109}, {"note": 84, "velocity": 93, "duration": 114}, {"note": 82, "velocity": 95, "duration": 101}, {"note": 82, "velocity": 95, "duration": 126}, {"note": 84, "velocity": 93, "duration": 109}, {"note": 86, "velocity": 91, "duration": 126}, {"note": 86, "velocity": 99, "duration": 6}, {"note": 0, "velocity": 0, "duration": 114}, {"note": 84, "velocity": 85, "duration": 117}, {"note": 84, "velocity": 93, "duration": 114}, {"note": 82, "velocity": 88, "duration": 123}, {"note": 84, "velocity": 91, "duration": 474}, {"note": 89, "velocity": 95, "duration": 116}, {"note": 89, "velocity": 97, "duration": 116}, {"note": 89, "velocity": 95, "duration": 116}, {"note": 87, "velocity": 97, "duration": 116}, {"note": 89, "velocity": 101, "duration": 476}, {"note": 91, "velocity": 101, "duration": 116}, {"note": 91, "velocity": 85, "duration": 116}, {"note": 87, "velocity": 82, "duration": 116}, {"note": 86, "velocity": 78, "duration": 116}, {"note": 84, "velocity": 97, "duration": 476}, {"note": 82, "velocity": 85, "duration": 116}, {"note": 82, "velocity": 78, "duration": 116}, {"note": 82, "velocity": 70, "duration": 116}, {"note": 84, "velocity": 78, "duration": 116}, {"note": 86, "velocity": 85, "duration": 116}, {"note": 86, "velocity": 93, "duration": 116}, {"note": 86, "velocity": 91, "duration": 116}, {"note": 87, "velocity": 91, "duration": 116}, {"note": 89, "velocity": 67, "duration": 116}, {"note": 89, "velocity": 82, "duration": 116}, {"note": 87, "velocity": 95, "duration": 116}, {"note": 86, "velocity": 88, "duration": 116}, {"note": 84, "velocity": 95, "duration": 476}, {"note": 79, "velocity": 99, "duration": 116}, {"note": 82, "velocity": 95, "duration": 116}, {"note": 84, "velocity": 99, "duration": 236}, {"note": 84, "velocity": 99, "duration": 116}, {"note": 84, "velocity": 99, "duration": 116}, {"note": 84, "velocity": 103, "duration": 236}, {"note": 84, "velocity": 97, "duration": 116}, {"note": 91, "velocity": 99, "duration": 116}, {"note": 91, "velocity": 97, "duration": 116}, {"note": 89, "velocity": 88, "duration": 116}, {"note": 89, "velocity": 97, "duration": 116}, {"note": 91, "velocity": 97, "duration": 116}, {"note": 89, "velocity": 99, "duration": 456}, {"note": 86, "velocity": 101, "duration": 251}, {"note": 86, "velocity": 93, "duration": 11}, {"note": 0, "velocity": 0, "duration": 109}, {"note": 84, "velocity": 93, "duration": 114}, {"note": 82, "velocity": 95, "duration": 101}, {"note": 82, "velocity": 95, "duration": 126}, {"note": 84, "velocity": 93, "duration": 109}, {"note": 86, "velocity": 91, "duration": 126}, {"note": 86, "velocity": 99, "duration": 6}, {"note": 0, "velocity": 0, "duration": 114}, {"note": 84, "velocity": 85, "duration": 117}, {"note": 84, "velocity": 93, "duration": 114}, {"note": 82, "velocity": 88, "duration": 123}, {"note": 84, "velocity": 91, "duration": 474}, {"note": 89, "velocity": 95, "duration": 116}, {"note": 89, "velocity": 97, "duration": 116}, {"note": 89, "velocity": 95, "duration": 116}, {"note": 87, "velocity": 97, "duration": 116}, {"note": 89, "velocity": 101, "duration": 476}, {"note": 89, "velocity": 101, "duration": 116}, {"note": 91, "velocity": 85, "duration": 116}, {"note": 87, "velocity": 82, "duration": 116}, {"note": 86, "velocity": 78, "duration": 116}, {"note": 84, "velocity": 97, "duration": 476}, {"note": 82, "velocity": 85, "duration": 116}, {"note": 82, "velocity": 78, "duration": 116}, {"note": 82, "velocity": 70, "duration": 116}, {"note": 84, "velocity": 78, "duration": 116}, {"note": 86, "velocity": 85, "duration": 116}, {"note": 86, "velocity": 93, "duration": 116}, {"note": 86, "velocity": 91, "duration": 116}, {"note": 87, "velocity": 91, "duration": 116}, {"note": 89, "velocity": 67, "duration": 116}, {"note": 89, "velocity": 82, "duration": 116}, {"note": 87, "velocity": 95, "duration": 116}, {"note": 86, "velocity": 88, "duration": 116}, {"note": 84, "velocity": 95, "duration": 476}, {"note": 0, "velocity": 0, "duration": 16324}, {"note": 79, "velocity": 101, "duration": 116}, {"note": 79, "velocity": 93, "duration": 116}, {"note": 79, "velocity": 93, "duration": 116}, {"note": 84, "velocity": 88, "duration": 116}, {"note": 84, "velocity": 88, "duration": 476}, {"note": 86, "velocity": 93, "duration": 116}, {"note": 86, "velocity": 93, "duration": 116}, {"note": 84, "velocity": 88, "duration": 116}, {"note": 82, "velocity": 82, "duration": 116}, {"note": 82, "velocity": 69, "duration": 476}, {"note": 77, "velocity": 97, "duration": 116}, {"note": 77, "velocity": 78, "duration": 116}, {"note": 77, "velocity": 78, "duration": 116}, {"note": 75, "velocity": 85, "duration": 116}, {"note": 77, "velocity": 88, "duration": 116}, {"note": 77, "velocity": 85, "duration": 116}, {"note": 77, "velocity": 91, "duration": 116}, {"note": 82, "velocity": 73, "duration": 116}, {"note": 79, "velocity": 88, "duration": 116}, {"note": 75, "velocity": 75, "duration": 116}, {"note": 77, "velocity": 88, "duration": 116}, {"note": 79, "velocity": 82, "duration": 116}, {"note": 79, "velocity": 88, "duration": 476}, {"note": 79, "velocity": 91, "duration": 116}, {"note": 79, "velocity": 85, "duration": 116}, {"note": 79, "velocity": 82, "duration": 116}, {"note": 84, "velocity": 80, "duration": 116}, {"note": 84, "velocity": 88, "duration": 476}, {"note": 86, "velocity": 99, "duration": 116}, {"note": 86, "velocity": 80, "duration": 116}, {"note": 86, "velocity": 95, "duration": 116}, {"note": 89, "velocity": 70, "duration": 116}, {"note": 89, "velocity": 82, "duration": 476}, {"note": 82, "velocity": 97, "duration": 116}, {"note": 82, "velocity": 82, "duration": 116}, {"note": 82, "velocity": 93, "duration": 116}, {"note": 79, "velocity": 93, "duration": 116}, {"note": 79, "velocity": 93, "duration": 116}, {"note": 86, "velocity": 103, "duration": 236}, {"note": 87, "velocity": 75, "duration": 116}, {"note": 86, "velocity": 95, "duration": 116}, {"note": 84, "velocity": 82, "duration": 116}, {"note": 84, "velocity": 82, "duration": 116}, {"note": 82, "velocity": 82, "duration": 116}, {"note": 84, "velocity": 85, "duration": 476}, {"note": 79, "velocity": 101, "duration": 116}, {"note": 79, "velocity": 93, "duration": 116}, {"note": 79, "velocity": 93, "duration": 116}, {"note": 84, "velocity": 88, "duration": 116}, {"note": 84, "velocity": 88, "duration": 476}, {"note": 86, "velocity": 93, "duration": 116}, {"note": 86, "velocity": 93, "duration": 116}, {"note": 84, "velocity": 88, "duration": 116}, {"note": 82, "velocity": 82, "duration": 116}, {"note": 82, "velocity": 69, "duration": 476}, {"note": 77, "velocity": 97, "duration": 116}, {"note": 77, "velocity": 78, "duration": 116}, {"note": 77, "velocity": 78, "duration": 116}, {"note": 75, "velocity": 85, "duration": 116}, {"note": 77, "velocity": 88, "duration": 116}, {"note": 77, "velocity": 85, "duration": 116}, {"note": 77, "velocity": 91, "duration": 116}, {"note": 82, "velocity": 73, "duration": 116}, {"note": 79, "velocity": 88, "duration": 116}, {"note": 75, "velocity": 75, "duration": 116}, {"note": 77, "velocity": 88, "duration": 116}, {"note": 79, "velocity": 82, "duration": 116}, {"note": 79, "velocity": 88, "duration": 476}, {"note": 79, "velocity": 91, "duration": 116}, {"note": 79, "velocity": 85, "duration": 116}, {"note": 79, "velocity": 82, "duration": 116}, {"note": 84, "velocity": 80, "duration": 116}, {"note": 84, "velocity": 88, "duration": 476}, {"note": 86, "velocity": 99, "duration": 116}, {"note": 86, "velocity": 80, "duration": 116}, {"note": 86, "velocity": 95, "duration": 116}, {"note": 89, "velocity": 70, "duration": 116}, {"note": 89, "velocity": 82, "duration": 476}, {"note": 82, "velocity": 97, "duration": 116}, {"note": 82, "velocity": 82, "duration": 116}, {"note": 82, "velocity": 93, "duration": 116}, {"note": 79, "velocity": 93, "duration": 116}, {"note": 79, "velocity": 93, "duration": 116}, {"note": 86, "velocity": 103, "duration": 236}, {"note": 87, "velocity": 75, "duration": 116}, {"note": 89, "velocity": 95, "duration": 116}, {"note": 89, "velocity": 82, "duration": 116}, {"note": 87, "velocity": 82, "duration": 116}, {"note": 86, "velocity": 82, "duration": 116}, {"note": 84, "velocity": 85, "duration": 476}, {"note": 0, "velocity": 0, "duration": 724}, {"note": 79, "velocity": 99, "duration": 116}, {"note": 82, "velocity": 95, "duration": 116}, {"note": 84, "velocity": 99, "duration": 236}, {"note": 84, "velocity": 99, "duration": 116}, {"note": 84, "velocity": 99, "duration": 116}, {"note": 84, "velocity": 103, "duration": 236}, {"note": 84, "velocity": 97, "duration": 116}, {"note": 91, "velocity": 99, "duration": 116}, {"note": 91, "velocity": 97, "duration": 116}, {"note": 89, "velocity": 88, "duration": 116}, {"note": 89, "velocity": 97, "duration": 116}, {"note": 91, "velocity": 97, "duration": 116}, {"note": 89, "velocity": 99, "duration": 456}, {"note": 86, "velocity": 101, "duration": 251}, {"note": 86, "velocity": 93, "duration": 11}, {"note": 0, "velocity": 0, "duration": 109}, {"note": 84, "velocity": 93, "duration": 114}, {"note": 82, "velocity": 95, "duration": 101}, {"note": 82, "velocity": 95, "duration": 126}, {"note": 84, "velocity": 93, "duration": 109}, {"note": 86, "velocity": 91, "duration": 126}, {"note": 86, "velocity": 99, "duration": 6}, {"note": 0, "velocity": 0, "duration": 114}, {"note": 84, "velocity": 85, "duration": 117}, {"note": 84, "velocity": 93, "duration": 114}, {"note": 82, "velocity": 88, "duration": 123}, {"note": 84, "velocity": 91, "duration": 474}, {"note": 89, "velocity": 95, "duration": 116}, {"note": 89, "velocity": 97, "duration": 116}, {"note": 89, "velocity": 95, "duration": 116}, {"note": 87, "velocity": 97, "duration": 116}, {"note": 89, "velocity": 101, "duration": 476}, {"note": 91, "velocity": 101, "duration": 116}, {"note": 91, "velocity": 85, "duration": 116}, {"note": 87, "velocity": 82, "duration": 116}, {"note": 86, "velocity": 78, "duration": 116}, {"note": 84, "velocity": 97, "duration": 476}, {"note": 82, "velocity": 85, "duration": 116}, {"note": 82, "velocity": 78, "duration": 116}, {"note": 82, "velocity": 70, "duration": 116}, {"note": 84, "velocity": 78, "duration": 116}, {"note": 86, "velocity": 85, "duration": 116}, {"note": 86, "velocity": 93, "duration": 116}, {"note": 86, "velocity": 91, "duration": 116}, {"note": 87, "velocity": 91, "duration": 116}, {"note": 89, "velocity": 67, "duration": 116}, {"note": 89, "velocity": 82, "duration": 116}, {"note": 87, "velocity": 95, "duration": 116}, {"note": 86, "velocity": 88, "duration": 116}, {"note": 84, "velocity": 95, "duration": 476}, {"note": 79, "velocity": 99, "duration": 116}, {"note": 82, "velocity": 95, "duration": 116}, {"note": 84, "velocity": 99, "duration": 236}, {"note": 84, "velocity": 99, "duration": 116}, {"note": 84, "velocity": 99, "duration": 116}, {"note": 84, "velocity": 103, "duration": 236}, {"note": 84, "velocity": 97, "duration": 116}, {"note": 91, "velocity": 99, "duration": 116}, {"note": 91, "velocity": 97, "duration": 116}, {"note": 89, "velocity": 88, "duration": 116}, {"note": 89, "velocity": 97, "duration": 116}, {"note": 91, "velocity": 97, "duration": 116}, {"note": 89, "velocity": 99, "duration": 456}, {"note": 86, "velocity": 101, "duration": 251}, {"note": 86, "velocity": 93, "duration": 11}, {"note": 0, "velocity": 0, "duration": 109}, {"note": 84, "velocity": 93, "duration": 114}, {"note": 82, "velocity": 95, "duration": 101}, {"note": 82, "velocity": 95, "duration": 126}, {"note": 84, "velocity": 93, "duration": 109}, {"note": 86, "velocity": 91, "duration": 126}, {"note": 86, "velocity": 99, "duration": 6}, {"note": 0, "velocity": 0, "duration": 114}, {"note": 84, "velocity": 85, "duration": 117}, {"note": 84, "velocity": 93, "duration": 114}, {"note": 82, "velocity": 88, "duration": 123}, {"note": 84, "velocity": 91, "duration": 474}, {"note": 89, "velocity": 95, "duration": 116}, {"note": 89, "velocity": 97, "duration": 116}, {"note": 89, "velocity": 95, "duration": 116}, {"note": 87, "velocity": 97, "duration": 116}, {"note": 89, "velocity": 101, "duration": 476}, {"note": 89, "velocity": 101, "duration": 116}, {"note": 91, "velocity": 85, "duration": 116}, {"note": 87, "velocity": 82, "duration": 116}, {"note": 86, "velocity": 78, "duration": 116}, {"note": 84, "velocity": 97, "duration": 476}, {"note": 82, "velocity": 85, "duration": 116}, {"note": 82, "velocity": 78, "duration": 116}, {"note": 82, "velocity": 70, "duration": 116}, {"note": 84, "velocity": 78, "duration": 116}, {"note": 86, "velocity": 85, "duration": 116}, {"note": 86, "velocity": 93, "duration": 116}, {"note": 86, "velocity": 91, "duration": 116}, {"note": 87, "velocity": 91, "duration": 116}, {"note": 89, "velocity": 67, "duration": 116}, {"note": 89, "velocity": 82, "duration": 116}, {"note": 87, "velocity": 95, "duration": 116}, {"note": 86, "velocity": 88, "duration": 116}, {"note": 84, "velocity": 95, "duration": 476}, {"note": 0, "velocity": 0, "duration": 724}, {"note": 79, "velocity": 99, "duration": 116}, {"note": 82, "velocity": 95, "duration": 116}, {"note": 84, "velocity": 99, "duration": 236}, {"note": 84, "velocity": 99, "duration": 116}, {"note": 84, "velocity": 99, "duration": 116}, {"note": 84, "velocity": 103, "duration": 236}, {"note": 84, "velocity": 97, "duration": 116}, {"note": 91, "velocity": 99, "duration": 116}, {"note": 91, "velocity": 97, "duration": 116}, {"note": 89, "velocity": 88, "duration": 116}, {"note": 89, "velocity": 97, "duration": 116}, {"note": 91, "velocity": 97, "duration": 116}, {"note": 89, "velocity": 99, "duration": 456}, {"note": 86, "velocity": 101, "duration": 251}, {"note": 86, "velocity": 93, "duration": 11}, {"note": 0, "velocity": 0, "duration": 109}, {"note": 84, "velocity": 93, "duration": 114}, {"note": 82, "velocity": 95, "duration": 101}, {"note": 82, "velocity": 95, "duration": 126}, {"note": 84, "velocity": 93, "duration": 109}, {"note": 86, "velocity": 91, "duration": 126}, {"note": 86, "velocity": 99, "duration": 6}, {"note": 0, "velocity": 0, "duration": 114}, {"note": 84, "velocity": 85, "duration": 117}, {"note": 84, "velocity": 93, "duration": 114}, {"note": 82, "velocity": 88, "duration": 123}, {"note": 84, "velocity": 91, "duration": 474}, {"note": 89, "velocity": 95, "duration": 116}, {"note": 89, "velocity": 97, "duration": 116}, {"note": 89, "velocity": 95, "duration": 116}, {"note": 87, "velocity": 97, "duration": 116}, {"note": 89, "velocity": 101, "duration": 476}, {"note": 91, "velocity": 101, "duration": 116}, {"note": 91, "velocity": 85, "duration": 116}, {"note": 87, "velocity": 82, "duration": 116}, {"note": 86, "velocity": 78, "duration": 116}, {"note": 84, "velocity": 97, "duration": 476}, {"note": 82, "velocity": 85, "duration": 116}, {"note": 82, "velocity": 78, "duration": 116}, {"note": 82, "velocity": 70, "duration": 116}, {"note": 84, "velocity": 78, "duration": 116}, {"note": 86, "velocity": 85, "duration": 116}, {"note": 86, "velocity": 93, "duration": 116}, {"note": 86, "velocity": 91, "duration": 116}, {"note": 87, "velocity": 91, "duration": 116}, {"note": 89, "velocity": 67, "duration": 116}, {"note": 89, "velocity": 82, "duration": 116}, {"note": 87, "velocity": 95, "duration": 116}, {"note": 86, "velocity": 88, "duration": 116}, {"note": 84, "velocity": 95, "duration": 476}, {"note": 79, "velocity": 99, "duration": 116}, {"note": 82, "velocity": 95, "duration": 116}, {"note": 84, "velocity": 99, "duration": 236}, {"note": 84, "velocity": 99, "duration": 116}, {"note": 84, "velocity": 99, "duration": 116}, {"note": 84, "velocity": 103, "duration": 236}, {"note": 84, "velocity": 97, "duration": 116}, {"note": 91, "velocity": 99, "duration": 116}, {"note": 91, "velocity": 97, "duration": 116}, {"note": 89, "velocity": 88, "duration": 116}, {"note": 89, "velocity": 97, "duration": 116}, {"note": 91, "velocity": 97, "duration": 116}, {"note": 89, "velocity": 99, "duration": 456}, {"note": 86, "velocity": 101, "duration": 251}, {"note": 86, "velocity": 93, "duration": 11}, {"note": 0, "velocity": 0, "duration": 109}, {"note": 84, "velocity": 93, "duration": 114}, {"note": 82, "velocity": 95, "duration": 101}, {"note": 82, "velocity": 95, "duration": 126}, {"note": 84, "velocity": 93, "duration": 109}, {"note": 86, "velocity": 91, "duration": 126}, {"note": 86, "velocity": 99, "duration": 6}, {"note": 0, "velocity": 0, "duration": 114}, {"note": 84, "velocity": 85, "duration": 117}, {"note": 84, "velocity": 93, "duration": 114}, {"note": 82, "velocity": 88, "duration": 123}, {"note": 84, "velocity": 91, "duration": 474}, {"note": 89, "velocity": 95, "duration": 116}, {"note": 89, "velocity": 97, "duration": 116}, {"note": 89, "velocity": 95, "duration": 116}, {"note": 87, "velocity": 97, "duration": 116}, {"note": 89, "velocity": 101, "duration": 476}, {"note": 89, "velocity": 101, "duration": 116}, {"note": 91, "velocity": 85, "duration": 116}, {"note": 87, "velocity": 82, "duration": 116}, {"note": 86, "velocity": 78, "duration": 116}, {"note": 84, "velocity": 97, "duration": 476}, {"note": 82, "velocity": 85, "duration": 116}, {"note": 82, "velocity": 78, "duration": 116}, {"note": 82, "velocity": 70, "duration": 116}, {"note": 84, "velocity": 78, "duration": 116}, {"note": 86, "velocity": 85, "duration": 116}, {"note": 86, "velocity": 93, "duration": 116}, {"note": 86, "velocity": 91, "duration": 116}, {"note": 87, "velocity": 91, "duration": 116}, {"note": 89, "velocity": 67, "duration": 116}, {"note": 89, "velocity": 82, "duration": 116}, {"note": 87, "velocity": 95, "duration": 116}, {"note": 86, "velocity": 88, "duration": 116}, {"note": 84, "velocity": 95, "duration": 476}, {"note": 0, "velocity": 0, "duration": 974}, {"note": 70, "velocity": 81, "duration": 74}, {"note": 70, "velocity": 85, "duration": 64}, {"note": 0, "velocity": 0, "duration": 75}, {"note": 70, "velocity": 70, "duration": 106}, {"note": 72, "velocity": 80, "duration": 116}, {"note": 74, "velocity": 91, "duration": 89}, {"note": 0, "velocity": 0, "duration": 62}, {"note": 74, "velocity": 85, "duration": 93}, {"note": 0, "velocity": 0, "duration": 81}, {"note": 74, "velocity": 85, "duration": 118}, {"note": 75, "velocity": 88, "duration": 114}, {"note": 77, "velocity": 91, "duration": 98}, {"note": 0, "velocity": 0, "duration": 69}, {"note": 77, "velocity": 82, "duration": 91}, {"note": 0, "velocity": 0, "duration": 77}, {"note": 75, "velocity": 99, "duration": 141}, {"note": 0, "velocity": 0, "duration": 65}, {"note": 74, "velocity": 93, "duration": 561}, {"note": 0, "velocity": 0, "duration": 273}, {"note": 72, "velocity": 95, "duration": 444}]]