[[{"note": 67, "velocity": 59, "duration": 239}, {"note": 67, "velocity": 58, "duration": 240}, {"note": 69, "velocity": 57, "duration": 127}, {"note": 72, "velocity": 61, "duration": 90}, {"note": 72, "velocity": 48, "duration": 75}, {"note": 72, "velocity": 58, "duration": 239}, {"note": 72, "velocity": 67, "duration": 480}, {"note": 69, "velocity": 58, "duration": 240}, {"note": 76, "velocity": 61, "duration": 1180}, {"note": 67, "velocity": 73, "duration": 240}, {"note": 69, "velocity": 73, "duration": 240}, {"note": 72, "velocity": 63, "duration": 156}, {"note": 72, "velocity": 73, "duration": 239}, {"note": 72, "velocity": 76, "duration": 239}, {"note": 72, "velocity": 85, "duration": 720}, {"note": 76, "velocity": 75, "duration": 240}, {"note": 79, "velocity": 80, "duration": 1708}, {"note": 79, "velocity": 70, "duration": 70}, {"note": 81, "velocity": 72, "duration": 86}, {"note": 79, "velocity": 64, "duration": 240}, {"note": 81, "velocity": 70, "duration": 240}, {"note": 79, "velocity": 62, "duration": 240}, {"note": 81, "velocity": 78, "duration": 480}, {"note": 79, "velocity": 80, "duration": 240}, {"note": 76, "velocity": 73, "duration": 99}, {"note": 74, "velocity": 69, "duration": 240}, {"note": 72, "velocity": 49, "duration": 719}, {"note": 72, "velocity": 75, "duration": 239}, {"note": 72, "velocity": 70, "duration": 240}, {"note": 69, "velocity": 70, "duration": 66}, {"note": 72, "velocity": 70, "duration": 343}, {"note": 72, "velocity": 80, "duration": 240}, {"note": 69, "velocity": 80, "duration": 240}, {"note": 72, "velocity": 63, "duration": 240}, {"note": 76, "velocity": 70, "duration": 15}, {"note": 74, "velocity": 88, "duration": 975}, {"note": 67, "velocity": 76, "duration": 240}, {"note": 69, "velocity": 67, "duration": 240}, {"note": 72, "velocity": 64, "duration": 37}, {"note": 72, "velocity": 70, "duration": 239}, {"note": 72, "velocity": 78, "duration": 239}, {"note": 72, "velocity": 76, "duration": 239}, {"note": 72, "velocity": 76, "duration": 239}, {"note": 72, "velocity": 72, "duration": 240}, {"note": 69, "velocity": 72, "duration": 240}, {"note": 74, "velocity": 78, "duration": 136}, {"note": 76, "velocity": 78, "duration": 1508}, {"note": 67, "velocity": 82, "duration": 240}, {"note": 69, "velocity": 73, "duration": 240}, {"note": 72, "velocity": 88, "duration": 236}, {"note": 72, "velocity": 85, "duration": 239}, {"note": 72, "velocity": 76, "duration": 239}, {"note": 72, "velocity": 69, "duration": 239}, {"note": 72, "velocity": 73, "duration": 480}, {"note": 76, "velocity": 76, "duration": 240}, {"note": 79, "velocity": 88, "duration": 1667}, {"note": 79, "velocity": 95, "duration": 240}, {"note": 81, "velocity": 88, "duration": 98}, {"note": 79, "velocity": 93, "duration": 240}, {"note": 81, "velocity": 91, "duration": 240}, {"note": 79, "velocity": 80, "duration": 240}, {"note": 81, "velocity": 99, "duration": 479}, {"note": 81, "velocity": 99, "duration": 240}, {"note": 79, "velocity": 80, "duration": 6}, {"note": 76, "velocity": 91, "duration": 471}, {"note": 74, "velocity": 91, "duration": 240}, {"note": 72, "velocity": 95, "duration": 480}, {"note": 69, "velocity": 73, "duration": 239}, {"note": 69, "velocity": 75, "duration": 240}, {"note": 72, "velocity": 72, "duration": 82}, {"note": 67, "velocity": 75, "duration": 434}, {"note": 76, "velocity": 64, "duration": 240}, {"note": 74, "velocity": 88, "duration": 240}, {"note": 72, "velocity": 88, "duration": 480}, {"note": 69, "velocity": 75, "duration": 240}, {"note": 72, "velocity": 69, "duration": 99}, {"note": 72, "velocity": 76, "duration": 1076}, {"note": 79, "velocity": 91, "duration": 240}, {"note": 81, "velocity": 76, "duration": 240}, {"note": 84, "velocity": 69, "duration": 80}, {"note": 81, "velocity": 99, "duration": 403}, {"note": 81, "velocity": 91, "duration": 240}, {"note": 79, "velocity": 76, "duration": 240}, {"note": 81, "velocity": 101, "duration": 240}, {"note": 79, "velocity": 75, "duration": 240}, {"note": 76, "velocity": 88, "duration": 240}, {"note": 79, "velocity": 88, "duration": 1075}, {"note": 79, "velocity": 82, "duration": 240}, {"note": 81, "velocity": 80, "duration": 240}, {"note": 84, "velocity": 64, "duration": 16}, {"note": 81, "velocity": 93, "duration": 346}, {"note": 81, "velocity": 82, "duration": 240}, {"note": 79, "velocity": 73, "duration": 240}, {"note": 81, "velocity": 93, "duration": 240}, {"note": 79, "velocity": 78, "duration": 240}, {"note": 81, "velocity": 73, "duration": 36}, {"note": 72, "velocity": 82, "duration": 1068}, {"note": 72, "velocity": 99, "duration": 240}, {"note": 74, "velocity": 78, "duration": 240}, {"note": 76, "velocity": 91, "duration": 240}, {"note": 74, "velocity": 91, "duration": 67}, {"note": 74, "velocity": 76, "duration": 239}, {"note": 74, "velocity": 88, "duration": 240}, {"note": 72, "velocity": 91, "duration": 240}, {"note": 74, "velocity": 93, "duration": 240}, {"note": 72, "velocity": 93, "duration": 240}, {"note": 69, "velocity": 72, "duration": 240}, {"note": 76, "velocity": 85, "duration": 190}, {"note": 74, "velocity": 85, "duration": 960}, {"note": 79, "velocity": 93, "duration": 240}, {"note": 81, "velocity": 69, "duration": 240}, {"note": 76, "velocity": 82, "duration": 2}, {"note": 79, "velocity": 88, "duration": 303}, {"note": 79, "velocity": 88, "duration": 240}, {"note": 76, "velocity": 85, "duration": 240}, {"note": 79, "velocity": 93, "duration": 360}, {"note": 76, "velocity": 69, "duration": 0}, {"note": 81, "velocity": 97, "duration": 207}, {"note": 79, "velocity": 73, "duration": 240}, {"note": 81, "velocity": 88, "duration": 240}, {"note": 79, "velocity": 66, "duration": 239}, {"note": 79, "velocity": 95, "duration": 239}, {"note": 79, "velocity": 95, "duration": 240}, {"note": 81, "velocity": 95, "duration": 240}, {"note": 84, "velocity": 95, "duration": 240}, {"note": 81, "velocity": 95, "duration": 175}, {"note": 81, "velocity": 88, "duration": 240}, {"note": 79, "velocity": 85, "duration": 240}, {"note": 81, "velocity": 88, "duration": 240}, {"note": 79, "velocity": 82, "duration": 240}, {"note": 76, "velocity": 91, "duration": 240}, {"note": 79, "velocity": 85, "duration": 1046}, {"note": 79, "velocity": 76, "duration": 240}, {"note": 81, "velocity": 80, "duration": 240}, {"note": 84, "velocity": 73, "duration": 240}, {"note": 81, "velocity": 80, "duration": 281}, {"note": 81, "velocity": 67, "duration": 240}, {"note": 79, "velocity": 59, "duration": 240}, {"note": 81, "velocity": 59, "duration": 240}, {"note": 79, "velocity": 54, "duration": 240}, {"note": 81, "velocity": 59, "duration": 240}, {"note": 79, "velocity": 60, "duration": 56}, {"note": 72, "velocity": 48, "duration": 1060}, {"note": 72, "velocity": 91, "duration": 240}, {"note": 74, "velocity": 82, "duration": 240}, {"note": 76, "velocity": 69, "duration": 1}, {"note": 77, "velocity": 88, "duration": 267}, {"note": 77, "velocity": 93, "duration": 240}, {"note": 79, "velocity": 85, "duration": 239}, {"note": 79, "velocity": 75, "duration": 479}, {"note": 79, "velocity": 78, "duration": 240}, {"note": 81, "velocity": 72, "duration": 44}, {"note": 84, "velocity": 80, "duration": 480}, {"note": 81, "velocity": 97, "duration": 480}, {"note": 84, "velocity": 78, "duration": 240}, {"note": 83, "velocity": 82, "duration": 240}, {"note": 81, "velocity": 75, "duration": 32}, {"note": 79, "velocity": 75, "duration": 719}, {"note": 79, "velocity": 69, "duration": 240}, {"note": 67, "velocity": 72, "duration": 240}, {"note": 81, "velocity": 76, "duration": 92}, {"note": 79, "velocity": 78, "duration": 1011}, {"note": 79, "velocity": 85, "duration": 116}, {"note": 0, "velocity": 0, "duration": 124}, {"note": 81, "velocity": 64, "duration": 240}, {"note": 84, "velocity": 78, "duration": 360}, {"note": 76, "velocity": 49, "duration": 92}, {"note": 74, "velocity": 43, "duration": 120}, {"note": 76, "velocity": 64, "duration": 120}, {"note": 74, "velocity": 64, "duration": 120}, {"note": 72, "velocity": 64, "duration": 58}, {"note": 0, "velocity": 0, "duration": 20450}, {"note": 67, "velocity": 59, "duration": 239}, {"note": 67, "velocity": 58, "duration": 240}, {"note": 69, "velocity": 57, "duration": 127}, {"note": 72, "velocity": 61, "duration": 90}, {"note": 72, "velocity": 48, "duration": 75}, {"note": 72, "velocity": 58, "duration": 239}, {"note": 72, "velocity": 67, "duration": 480}, {"note": 69, "velocity": 58, "duration": 240}, {"note": 76, "velocity": 61, "duration": 1180}, {"note": 67, "velocity": 73, "duration": 240}, {"note": 69, "velocity": 73, "duration": 240}, {"note": 72, "velocity": 63, "duration": 156}, {"note": 72, "velocity": 73, "duration": 239}, {"note": 72, "velocity": 76, "duration": 239}, {"note": 72, "velocity": 85, "duration": 720}, {"note": 76, "velocity": 75, "duration": 240}, {"note": 79, "velocity": 80, "duration": 1708}, {"note": 79, "velocity": 70, "duration": 70}, {"note": 81, "velocity": 72, "duration": 86}, {"note": 79, "velocity": 64, "duration": 240}, {"note": 81, "velocity": 70, "duration": 240}, {"note": 79, "velocity": 62, "duration": 240}, {"note": 81, "velocity": 78, "duration": 480}, {"note": 79, "velocity": 80, "duration": 240}, {"note": 76, "velocity": 73, "duration": 99}, {"note": 74, "velocity": 69, "duration": 240}, {"note": 72, "velocity": 49, "duration": 719}, {"note": 72, "velocity": 75, "duration": 239}, {"note": 72, "velocity": 70, "duration": 240}, {"note": 69, "velocity": 70, "duration": 66}, {"note": 72, "velocity": 70, "duration": 343}, {"note": 72, "velocity": 80, "duration": 240}, {"note": 69, "velocity": 80, "duration": 240}, {"note": 72, "velocity": 63, "duration": 240}, {"note": 76, "velocity": 70, "duration": 15}, {"note": 74, "velocity": 88, "duration": 975}, {"note": 67, "velocity": 76, "duration": 240}, {"note": 69, "velocity": 67, "duration": 240}, {"note": 72, "velocity": 64, "duration": 37}, {"note": 72, "velocity": 70, "duration": 239}, {"note": 72, "velocity": 78, "duration": 239}, {"note": 72, "velocity": 76, "duration": 239}, {"note": 72, "velocity": 76, "duration": 239}, {"note": 72, "velocity": 72, "duration": 240}, {"note": 69, "velocity": 72, "duration": 240}, {"note": 74, "velocity": 78, "duration": 136}, {"note": 76, "velocity": 78, "duration": 1508}, {"note": 67, "velocity": 82, "duration": 240}, {"note": 69, "velocity": 73, "duration": 240}, {"note": 72, "velocity": 88, "duration": 236}, {"note": 72, "velocity": 85, "duration": 239}, {"note": 72, "velocity": 76, "duration": 239}, {"note": 72, "velocity": 69, "duration": 239}, {"note": 72, "velocity": 73, "duration": 480}, {"note": 76, "velocity": 76, "duration": 240}, {"note": 79, "velocity": 88, "duration": 1667}, {"note": 79, "velocity": 95, "duration": 240}, {"note": 81, "velocity": 88, "duration": 98}, {"note": 79, "velocity": 93, "duration": 240}, {"note": 81, "velocity": 91, "duration": 240}, {"note": 79, "velocity": 80, "duration": 240}, {"note": 81, "velocity": 99, "duration": 479}, {"note": 81, "velocity": 99, "duration": 240}, {"note": 79, "velocity": 80, "duration": 6}, {"note": 76, "velocity": 91, "duration": 471}, {"note": 74, "velocity": 91, "duration": 240}, {"note": 72, "velocity": 95, "duration": 480}, {"note": 69, "velocity": 73, "duration": 239}, {"note": 69, "velocity": 75, "duration": 240}, {"note": 72, "velocity": 72, "duration": 82}, {"note": 67, "velocity": 75, "duration": 434}, {"note": 76, "velocity": 64, "duration": 240}, {"note": 74, "velocity": 88, "duration": 240}, {"note": 72, "velocity": 88, "duration": 480}, {"note": 69, "velocity": 75, "duration": 240}, {"note": 72, "velocity": 69, "duration": 99}, {"note": 72, "velocity": 76, "duration": 1076}, {"note": 79, "velocity": 91, "duration": 240}, {"note": 81, "velocity": 76, "duration": 240}, {"note": 84, "velocity": 69, "duration": 80}, {"note": 81, "velocity": 99, "duration": 403}, {"note": 81, "velocity": 91, "duration": 240}, {"note": 79, "velocity": 76, "duration": 240}, {"note": 81, "velocity": 101, "duration": 240}, {"note": 79, "velocity": 75, "duration": 240}, {"note": 76, "velocity": 88, "duration": 240}, {"note": 79, "velocity": 88, "duration": 1075}, {"note": 79, "velocity": 82, "duration": 240}, {"note": 81, "velocity": 80, "duration": 240}, {"note": 84, "velocity": 64, "duration": 16}, {"note": 81, "velocity": 93, "duration": 346}, {"note": 81, "velocity": 82, "duration": 240}, {"note": 79, "velocity": 73, "duration": 240}, {"note": 81, "velocity": 93, "duration": 240}, {"note": 79, "velocity": 78, "duration": 240}, {"note": 81, "velocity": 73, "duration": 36}, {"note": 72, "velocity": 82, "duration": 1068}, {"note": 72, "velocity": 99, "duration": 240}, {"note": 74, "velocity": 78, "duration": 240}, {"note": 76, "velocity": 91, "duration": 240}, {"note": 74, "velocity": 91, "duration": 67}, {"note": 74, "velocity": 76, "duration": 239}, {"note": 74, "velocity": 88, "duration": 240}, {"note": 72, "velocity": 91, "duration": 240}, {"note": 74, "velocity": 93, "duration": 240}, {"note": 72, "velocity": 93, "duration": 240}, {"note": 69, "velocity": 72, "duration": 240}, {"note": 76, "velocity": 85, "duration": 190}, {"note": 74, "velocity": 85, "duration": 960}, {"note": 79, "velocity": 93, "duration": 240}, {"note": 81, "velocity": 69, "duration": 240}, {"note": 76, "velocity": 82, "duration": 2}, {"note": 79, "velocity": 88, "duration": 303}, {"note": 79, "velocity": 88, "duration": 240}, {"note": 76, "velocity": 85, "duration": 240}, {"note": 79, "velocity": 93, "duration": 360}, {"note": 76, "velocity": 69, "duration": 0}, {"note": 81, "velocity": 97, "duration": 207}, {"note": 79, "velocity": 73, "duration": 240}, {"note": 81, "velocity": 88, "duration": 240}, {"note": 79, "velocity": 66, "duration": 239}, {"note": 79, "velocity": 95, "duration": 239}, {"note": 79, "velocity": 95, "duration": 0}, {"note": 81, "velocity": 95, "duration": 240}, {"note": 84, "velocity": 95, "duration": 240}, {"note": 81, "velocity": 95, "duration": 175}, {"note": 81, "velocity": 88, "duration": 240}, {"note": 79, "velocity": 85, "duration": 240}, {"note": 81, "velocity": 88, "duration": 240}, {"note": 79, "velocity": 82, "duration": 240}, {"note": 76, "velocity": 91, "duration": 240}, {"note": 79, "velocity": 85, "duration": 1046}, {"note": 79, "velocity": 76, "duration": 240}, {"note": 81, "velocity": 80, "duration": 240}, {"note": 84, "velocity": 73, "duration": 1}, {"note": 86, "velocity": 80, "duration": 288}, {"note": 86, "velocity": 67, "duration": 4}, {"note": 0, "velocity": 0, "duration": 232}, {"note": 84, "velocity": 59, "duration": 241}, {"note": 86, "velocity": 59, "duration": 241}, {"note": 88, "velocity": 54, "duration": 66}, {"note": 79, "velocity": 48, "duration": 1091}, {"note": 77, "velocity": 91, "duration": 266}, {"note": 77, "velocity": 82, "duration": 7}, {"note": 0, "velocity": 0, "duration": 207}, {"note": 79, "velocity": 69, "duration": 13}, {"note": 81, "velocity": 88, "duration": 286}, {"note": 81, "velocity": 93, "duration": 236}, {"note": 79, "velocity": 85, "duration": 239}, {"note": 79, "velocity": 75, "duration": 479}, {"note": 79, "velocity": 78, "duration": 240}, {"note": 81, "velocity": 72, "duration": 44}, {"note": 84, "velocity": 80, "duration": 480}, {"note": 81, "velocity": 97, "duration": 480}, {"note": 84, "velocity": 78, "duration": 240}, {"note": 83, "velocity": 82, "duration": 240}, {"note": 81, "velocity": 75, "duration": 32}, {"note": 79, "velocity": 75, "duration": 719}, {"note": 79, "velocity": 69, "duration": 240}, {"note": 67, "velocity": 72, "duration": 240}, {"note": 81, "velocity": 76, "duration": 92}, {"note": 79, "velocity": 78, "duration": 1011}, {"note": 79, "velocity": 85, "duration": 116}, {"note": 0, "velocity": 0, "duration": 124}, {"note": 81, "velocity": 64, "duration": 240}, {"note": 84, "velocity": 78, "duration": 360}, {"note": 76, "velocity": 49, "duration": 92}, {"note": 74, "velocity": 43, "duration": 120}, {"note": 76, "velocity": 64, "duration": 120}, {"note": 74, "velocity": 64, "duration": 120}, {"note": 72, "velocity": 64, "duration": 1090}, {"note": 79, "velocity": 91, "duration": 240}, {"note": 81, "velocity": 76, "duration": 240}, {"note": 84, "velocity": 69, "duration": 95}, {"note": 81, "velocity": 99, "duration": 417}, {"note": 81, "velocity": 91, "duration": 240}, {"note": 79, "velocity": 76, "duration": 240}, {"note": 81, "velocity": 101, "duration": 240}, {"note": 79, "velocity": 75, "duration": 240}, {"note": 76, "velocity": 88, "duration": 240}, {"note": 79, "velocity": 88, "duration": 1089}, {"note": 79, "velocity": 82, "duration": 240}, {"note": 81, "velocity": 80, "duration": 240}, {"note": 84, "velocity": 64, "duration": 31}, {"note": 81, "velocity": 93, "duration": 360}, {"note": 81, "velocity": 82, "duration": 240}, {"note": 79, "velocity": 73, "duration": 240}, {"note": 81, "velocity": 93, "duration": 240}, {"note": 79, "velocity": 78, "duration": 240}, {"note": 81, "velocity": 73, "duration": 50}, {"note": 72, "velocity": 82, "duration": 1082}, {"note": 72, "velocity": 99, "duration": 240}, {"note": 74, "velocity": 78, "duration": 240}, {"note": 76, "velocity": 91, "duration": 2}, {"note": 74, "velocity": 91, "duration": 81}, {"note": 74, "velocity": 76, "duration": 239}, {"note": 74, "velocity": 88, "duration": 240}, {"note": 72, "velocity": 91, "duration": 240}, {"note": 74, "velocity": 93, "duration": 240}, {"note": 72, "velocity": 93, "duration": 240}, {"note": 69, "velocity": 72, "duration": 240}, {"note": 76, "velocity": 85, "duration": 205}, {"note": 74, "velocity": 85, "duration": 960}, {"note": 79, "velocity": 93, "duration": 240}, {"note": 81, "velocity": 69, "duration": 240}, {"note": 76, "velocity": 82, "duration": 6}, {"note": 79, "velocity": 88, "duration": 318}, {"note": 79, "velocity": 88, "duration": 240}, {"note": 76, "velocity": 85, "duration": 240}, {"note": 79, "velocity": 93, "duration": 360}, {"note": 76, "velocity": 69, "duration": 0}, {"note": 81, "velocity": 97, "duration": 221}, {"note": 79, "velocity": 73, "duration": 240}, {"note": 81, "velocity": 88, "duration": 240}, {"note": 79, "velocity": 66, "duration": 239}, {"note": 79, "velocity": 95, "duration": 239}, {"note": 79, "velocity": 95, "duration": 15}, {"note": 81, "velocity": 95, "duration": 240}, {"note": 84, "velocity": 95, "duration": 240}, {"note": 81, "velocity": 95, "duration": 189}, {"note": 81, "velocity": 88, "duration": 240}, {"note": 79, "velocity": 85, "duration": 240}, {"note": 81, "velocity": 88, "duration": 240}, {"note": 79, "velocity": 82, "duration": 240}, {"note": 76, "velocity": 91, "duration": 240}, {"note": 79, "velocity": 85, "duration": 1060}, {"note": 79, "velocity": 76, "duration": 240}, {"note": 81, "velocity": 80, "duration": 240}, {"note": 84, "velocity": 73, "duration": 2}, {"note": 81, "velocity": 80, "duration": 296}, {"note": 81, "velocity": 67, "duration": 240}, {"note": 79, "velocity": 59, "duration": 240}, {"note": 81, "velocity": 59, "duration": 240}, {"note": 79, "velocity": 54, "duration": 240}, {"note": 81, "velocity": 59, "duration": 240}, {"note": 79, "velocity": 60, "duration": 71}, {"note": 72, "velocity": 48, "duration": 1074}, {"note": 72, "velocity": 91, "duration": 240}, {"note": 74, "velocity": 82, "duration": 240}, {"note": 76, "velocity": 69, "duration": 9}, {"note": 77, "velocity": 88, "duration": 282}, {"note": 77, "velocity": 93, "duration": 240}, {"note": 79, "velocity": 85, "duration": 239}, {"note": 79, "velocity": 75, "duration": 479}, {"note": 79, "velocity": 78, "duration": 240}, {"note": 81, "velocity": 72, "duration": 59}, {"note": 84, "velocity": 80, "duration": 480}, {"note": 81, "velocity": 97, "duration": 480}, {"note": 84, "velocity": 78, "duration": 240}, {"note": 83, "velocity": 82, "duration": 240}, {"note": 81, "velocity": 75, "duration": 160}, {"note": 79, "velocity": 75, "duration": 765}, {"note": 79, "velocity": 69, "duration": 240}, {"note": 67, "velocity": 72, "duration": 240}, {"note": 81, "velocity": 76, "duration": 106}, {"note": 79, "velocity": 78, "duration": 1026}, {"note": 79, "velocity": 85, "duration": 236}, {"note": 0, "velocity": 0, "duration": 124}, {"note": 81, "velocity": 64, "duration": 240}, {"note": 84, "velocity": 78, "duration": 360}, {"note": 76, "velocity": 49, "duration": 106}, {"note": 74, "velocity": 43, "duration": 120}, {"note": 76, "velocity": 64, "duration": 120}, {"note": 74, "velocity": 64, "duration": 120}, {"note": 72, "velocity": 64, "duration": 72}]]