[[{"note": 69, "velocity": 93, "duration": 116}, {"note": 71, "velocity": 82, "duration": 236}, {"note": 69, "velocity": 76, "duration": 74}, {"note": 71, "velocity": 77, "duration": 471}, {"note": 67, "velocity": 91, "duration": 116}, {"note": 69, "velocity": 69, "duration": 116}, {"note": 71, "velocity": 80, "duration": 116}, {"note": 72, "velocity": 88, "duration": 39}, {"note": 74, "velocity": 73, "duration": 171}, {"note": 72, "velocity": 80, "duration": 116}, {"note": 72, "velocity": 85, "duration": 356}, {"note": 72, "velocity": 69, "duration": 116}, {"note": 71, "velocity": 66, "duration": 199}, {"note": 69, "velocity": 66, "duration": 116}, {"note": 67, "velocity": 76, "duration": 236}, {"note": 69, "velocity": 63, "duration": 237}, {"note": 62, "velocity": 82, "duration": 116}, {"note": 69, "velocity": 76, "duration": 116}, {"note": 71, "velocity": 85, "duration": 236}, {"note": 69, "velocity": 80, "duration": 55}, {"note": 71, "velocity": 73, "duration": 441}, {"note": 67, "velocity": 91, "duration": 236}, {"note": 76, "velocity": 69, "duration": 20}, {"note": 74, "velocity": 97, "duration": 163}, {"note": 72, "velocity": 78, "duration": 116}, {"note": 72, "velocity": 88, "duration": 356}, {"note": 72, "velocity": 61, "duration": 116}, {"note": 74, "velocity": 69, "duration": 20}, {"note": 71, "velocity": 67, "duration": 236}, {"note": 69, "velocity": 66, "duration": 116}, {"note": 71, "velocity": 85, "duration": 356}, {"note": 69, "velocity": 93, "duration": 116}, {"note": 67, "velocity": 95, "duration": 382}, {"note": 67, "velocity": 82, "duration": 116}, {"note": 79, "velocity": 70, "duration": 116}, {"note": 79, "velocity": 75, "duration": 116}, {"note": 78, "velocity": 99, "duration": 116}, {"note": 79, "velocity": 70, "duration": 24}, {"note": 78, "velocity": 101, "duration": 175}, {"note": 74, "velocity": 85, "duration": 116}, {"note": 74, "velocity": 95, "duration": 476}, {"note": 67, "velocity": 97, "duration": 116}, {"note": 76, "velocity": 99, "duration": 76}, {"note": 74, "velocity": 85, "duration": 116}, {"note": 74, "velocity": 93, "duration": 116}, {"note": 74, "velocity": 93, "duration": 236}, {"note": 74, "velocity": 97, "duration": 116}, {"note": 74, "velocity": 88, "duration": 596}, {"note": 69, "velocity": 88, "duration": 117}, {"note": 71, "velocity": 66, "duration": 110}, {"note": 72, "velocity": 76, "duration": 44}, {"note": 71, "velocity": 82, "duration": 41}, {"note": 72, "velocity": 76, "duration": 119}, {"note": 79, "velocity": 80, "duration": 1070}, {"note": 67, "velocity": 91, "duration": 176}, {"note": 69, "velocity": 82, "duration": 176}, {"note": 0, "velocity": 0, "duration": 64}, {"note": 71, "velocity": 85, "duration": 1}, {"note": 71, "velocity": 93, "duration": 230}, {"note": 72, "velocity": 70, "duration": 56}, {"note": 0, "velocity": 0, "duration": 64}, {"note": 71, "velocity": 69, "duration": 56}, {"note": 69, "velocity": 93, "duration": 147}, {"note": 71, "velocity": 85, "duration": 216}, {"note": 69, "velocity": 73, "duration": 116}, {"note": 67, "velocity": 64, "duration": 327}, {"note": 69, "velocity": 93, "duration": 116}, {"note": 71, "velocity": 82, "duration": 236}, {"note": 69, "velocity": 76, "duration": 7}, {"note": 71, "velocity": 77, "duration": 343}, {"note": 67, "velocity": 91, "duration": 116}, {"note": 69, "velocity": 69, "duration": 116}, {"note": 71, "velocity": 80, "duration": 116}, {"note": 72, "velocity": 88, "duration": 0}, {"note": 74, "velocity": 73, "duration": 100}, {"note": 72, "velocity": 80, "duration": 116}, {"note": 72, "velocity": 85, "duration": 356}, {"note": 72, "velocity": 69, "duration": 116}, {"note": 71, "velocity": 66, "duration": 149}, {"note": 69, "velocity": 66, "duration": 116}, {"note": 67, "velocity": 76, "duration": 236}, {"note": 69, "velocity": 63, "duration": 237}, {"note": 62, "velocity": 82, "duration": 116}, {"note": 69, "velocity": 76, "duration": 116}, {"note": 71, "velocity": 85, "duration": 236}, {"note": 69, "velocity": 80, "duration": 21}, {"note": 71, "velocity": 73, "duration": 351}, {"note": 67, "velocity": 91, "duration": 236}, {"note": 76, "velocity": 69, "duration": 54}, {"note": 74, "velocity": 97, "duration": 146}, {"note": 72, "velocity": 78, "duration": 116}, {"note": 72, "velocity": 88, "duration": 356}, {"note": 72, "velocity": 61, "duration": 116}, {"note": 74, "velocity": 69, "duration": 37}, {"note": 71, "velocity": 67, "duration": 125}, {"note": 69, "velocity": 66, "duration": 116}, {"note": 71, "velocity": 85, "duration": 356}, {"note": 69, "velocity": 93, "duration": 116}, {"note": 67, "velocity": 95, "duration": 206}, {"note": 67, "velocity": 82, "duration": 116}, {"note": 79, "velocity": 70, "duration": 236}, {"note": 78, "velocity": 99, "duration": 116}, {"note": 78, "velocity": 101, "duration": 147}, {"note": 74, "velocity": 85, "duration": 236}, {"note": 74, "velocity": 95, "duration": 116}, {"note": 71, "velocity": 95, "duration": 236}, {"note": 67, "velocity": 97, "duration": 116}, {"note": 76, "velocity": 99, "duration": 92}, {"note": 74, "velocity": 85, "duration": 116}, {"note": 74, "velocity": 93, "duration": 236}, {"note": 72, "velocity": 93, "duration": 116}, {"note": 74, "velocity": 97, "duration": 116}, {"note": 72, "velocity": 88, "duration": 116}, {"note": 74, "velocity": 88, "duration": 585}, {"note": 69, "velocity": 88, "duration": 117}, {"note": 71, "velocity": 66, "duration": 17}, {"note": 72, "velocity": 76, "duration": 106}, {"note": 71, "velocity": 82, "duration": 115}, {"note": 72, "velocity": 76, "duration": 119}, {"note": 79, "velocity": 80, "duration": 280}, {"note": 76, "velocity": 101, "duration": 110}, {"note": 79, "velocity": 91, "duration": 192}, {"note": 81, "velocity": 103, "duration": 181}, {"note": 81, "velocity": 99, "duration": 195}, {"note": 0, "velocity": 0, "duration": 112}, {"note": 79, "velocity": 99, "duration": 206}, {"note": 81, "velocity": 97, "duration": 7}, {"note": 83, "velocity": 103, "duration": 104}, {"note": 0, "velocity": 0, "duration": 68}, {"note": 83, "velocity": 103, "duration": 144}, {"note": 0, "velocity": 0, "duration": 96}, {"note": 83, "velocity": 106, "duration": 155}, {"note": 0, "velocity": 0, "duration": 85}, {"note": 83, "velocity": 99, "duration": 77}, {"note": 84, "velocity": 109, "duration": 113}, {"note": 83, "velocity": 99, "duration": 169}, {"note": 83, "velocity": 97, "duration": 49}, {"note": 0, "velocity": 0, "duration": 191}, {"note": 83, "velocity": 97, "duration": 201}, {"note": 81, "velocity": 106, "duration": 85}, {"note": 79, "velocity": 93, "duration": 235}, {"note": 0, "velocity": 0, "duration": 125}, {"note": 79, "velocity": 97, "duration": 199}, {"note": 76, "velocity": 106, "duration": 128}, {"note": 83, "velocity": 101, "duration": 500}, {"note": 0, "velocity": 0, "duration": 149}, {"note": 74, "velocity": 99, "duration": 55}, {"note": 0, "velocity": 0, "duration": 65}, {"note": 74, "velocity": 95, "duration": 92}, {"note": 76, "velocity": 95, "duration": 109}, {"note": 79, "velocity": 101, "duration": 83}, {"note": 0, "velocity": 0, "duration": 104}, {"note": 79, "velocity": 80, "duration": 54}, {"note": 0, "velocity": 0, "duration": 66}, {"note": 79, "velocity": 97, "duration": 189}, {"note": 76, "velocity": 91, "duration": 110}, {"note": 74, "velocity": 97, "duration": 183}, {"note": 74, "velocity": 103, "duration": 63}, {"note": 83, "velocity": 97, "duration": 66}, {"note": 0, "velocity": 0, "duration": 127}, {"note": 83, "velocity": 93, "duration": 138}, {"note": 83, "velocity": 106, "duration": 18}, {"note": 0, "velocity": 0, "duration": 222}, {"note": 81, "velocity": 103, "duration": 146}, {"note": 79, "velocity": 101, "duration": 87}, {"note": 0, "velocity": 0, "duration": 154}, {"note": 79, "velocity": 99, "duration": 49}, {"note": 0, "velocity": 0, "duration": 71}, {"note": 79, "velocity": 93, "duration": 54}, {"note": 0, "velocity": 0, "duration": 66}, {"note": 79, "velocity": 99, "duration": 208}, {"note": 76, "velocity": 103, "duration": 109}, {"note": 81, "velocity": 101, "duration": 314}, {"note": 0, "velocity": 0, "duration": 100}, {"note": 79, "velocity": 101, "duration": 224}, {"note": 81, "velocity": 97, "duration": 173}, {"note": 83, "velocity": 103, "duration": 3}, {"note": 0, "velocity": 0, "duration": 111}, {"note": 83, "velocity": 106, "duration": 97}, {"note": 83, "velocity": 99, "duration": 82}, {"note": 83, "velocity": 97, "duration": 143}, {"note": 0, "velocity": 0, "duration": 97}, {"note": 83, "velocity": 91, "duration": 83}, {"note": 83, "velocity": 80, "duration": 61}, {"note": 84, "velocity": 97, "duration": 207}, {"note": 83, "velocity": 95, "duration": 115}, {"note": 83, "velocity": 97, "duration": 209}, {"note": 83, "velocity": 97, "duration": 209}, {"note": 81, "velocity": 101, "duration": 104}, {"note": 79, "velocity": 88, "duration": 266}, {"note": 0, "velocity": 0, "duration": 94}, {"note": 79, "velocity": 99, "duration": 268}, {"note": 81, "velocity": 99, "duration": 75}, {"note": 81, "velocity": 97, "duration": 392}, {"note": 0, "velocity": 0, "duration": 288}, {"note": 74, "velocity": 99, "duration": 51}, {"note": 0, "velocity": 0, "duration": 69}, {"note": 74, "velocity": 97, "duration": 20}, {"note": 76, "velocity": 95, "duration": 143}, {"note": 79, "velocity": 101, "duration": 73}, {"note": 0, "velocity": 0, "duration": 103}, {"note": 79, "velocity": 60, "duration": 46}, {"note": 0, "velocity": 0, "duration": 74}, {"note": 79, "velocity": 82, "duration": 176}, {"note": 0, "velocity": 0, "duration": 64}, {"note": 76, "velocity": 85, "duration": 82}, {"note": 74, "velocity": 97, "duration": 32}, {"note": 74, "velocity": 85, "duration": 120}, {"note": 0, "velocity": 0, "duration": 64}, {"note": 83, "velocity": 88, "duration": 112}, {"note": 83, "velocity": 85, "duration": 192}, {"note": 83, "velocity": 97, "duration": 72}, {"note": 0, "velocity": 0, "duration": 168}, {"note": 81, "velocity": 97, "duration": 209}, {"note": 79, "velocity": 97, "duration": 154}, {"note": 0, "velocity": 0, "duration": 96}, {"note": 76, "velocity": 99, "duration": 215}, {"note": 79, "velocity": 82, "duration": 182}, {"note": 0, "velocity": 0, "duration": 351}, {"note": 69, "velocity": 93, "duration": 116}, {"note": 71, "velocity": 82, "duration": 116}, {"note": 69, "velocity": 82, "duration": 116}, {"note": 71, "velocity": 77, "duration": 394}, {"note": 67, "velocity": 91, "duration": 116}, {"note": 69, "velocity": 69, "duration": 116}, {"note": 71, "velocity": 80, "duration": 116}, {"note": 72, "velocity": 88, "duration": 116}, {"note": 74, "velocity": 73, "duration": 85}, {"note": 72, "velocity": 80, "duration": 116}, {"note": 72, "velocity": 85, "duration": 236}, {"note": 79, "velocity": 77, "duration": 46}, {"note": 72, "velocity": 85, "duration": 157}, {"note": 71, "velocity": 66, "duration": 116}, {"note": 69, "velocity": 76, "duration": 236}, {"note": 71, "velocity": 63, "duration": 299}, {"note": 69, "velocity": 76, "duration": 116}, {"note": 71, "velocity": 85, "duration": 236}, {"note": 69, "velocity": 80, "duration": 116}, {"note": 71, "velocity": 73, "duration": 347}, {"note": 67, "velocity": 91, "duration": 236}, {"note": 76, "velocity": 69, "duration": 15}, {"note": 74, "velocity": 97, "duration": 117}, {"note": 72, "velocity": 78, "duration": 116}, {"note": 72, "velocity": 88, "duration": 356}, {"note": 72, "velocity": 87, "duration": 116}, {"note": 74, "velocity": 69, "duration": 116}, {"note": 71, "velocity": 67, "duration": 103}, {"note": 69, "velocity": 66, "duration": 116}, {"note": 71, "velocity": 85, "duration": 356}, {"note": 69, "velocity": 83, "duration": 116}, {"note": 67, "velocity": 85, "duration": 253}, {"note": 67, "velocity": 82, "duration": 116}, {"note": 79, "velocity": 70, "duration": 236}, {"note": 78, "velocity": 84, "duration": 116}, {"note": 78, "velocity": 70, "duration": 86}, {"note": 76, "velocity": 85, "duration": 236}, {"note": 74, "velocity": 81, "duration": 116}, {"note": 71, "velocity": 81, "duration": 236}, {"note": 67, "velocity": 83, "duration": 116}, {"note": 76, "velocity": 85, "duration": 129}, {"note": 74, "velocity": 85, "duration": 116}, {"note": 74, "velocity": 93, "duration": 236}, {"note": 74, "velocity": 97, "duration": 116}, {"note": 72, "velocity": 88, "duration": 116}, {"note": 74, "velocity": 88, "duration": 628}, {"note": 69, "velocity": 88, "duration": 116}, {"note": 71, "velocity": 66, "duration": 116}, {"note": 72, "velocity": 76, "duration": 117}, {"note": 71, "velocity": 82, "duration": 116}, {"note": 72, "velocity": 76, "duration": 97}, {"note": 79, "velocity": 80, "duration": 225}, {"note": 76, "velocity": 101, "duration": 116}, {"note": 79, "velocity": 91, "duration": 236}, {"note": 81, "velocity": 103, "duration": 236}, {"note": 81, "velocity": 99, "duration": 373}, {"note": 79, "velocity": 99, "duration": 236}, {"note": 81, "velocity": 97, "duration": 7}, {"note": 83, "velocity": 103, "duration": 85}, {"note": 83, "velocity": 103, "duration": 236}, {"note": 83, "velocity": 106, "duration": 236}, {"note": 83, "velocity": 99, "duration": 116}, {"note": 84, "velocity": 109, "duration": 91}, {"note": 83, "velocity": 99, "duration": 116}, {"note": 83, "velocity": 97, "duration": 236}, {"note": 83, "velocity": 97, "duration": 356}, {"note": 81, "velocity": 106, "duration": 62}, {"note": 79, "velocity": 93, "duration": 280}, {"note": 79, "velocity": 97, "duration": 236}, {"note": 76, "velocity": 106, "duration": 49}, {"note": 83, "velocity": 101, "duration": 643}, {"note": 74, "velocity": 99, "duration": 116}, {"note": 74, "velocity": 95, "duration": 116}, {"note": 76, "velocity": 95, "duration": 103}, {"note": 79, "velocity": 101, "duration": 174}, {"note": 79, "velocity": 80, "duration": 116}, {"note": 79, "velocity": 97, "duration": 236}, {"note": 76, "velocity": 91, "duration": 116}, {"note": 74, "velocity": 97, "duration": 116}, {"note": 74, "velocity": 103, "duration": 102}, {"note": 83, "velocity": 97, "duration": 183}, {"note": 83, "velocity": 93, "duration": 116}, {"note": 83, "velocity": 106, "duration": 236}, {"note": 81, "velocity": 103, "duration": 116}, {"note": 79, "velocity": 101, "duration": 57}, {"note": 79, "velocity": 99, "duration": 116}, {"note": 79, "velocity": 93, "duration": 116}, {"note": 79, "velocity": 99, "duration": 116}, {"note": 83, "velocity": 103, "duration": 97}, {"note": 83, "velocity": 101, "duration": 50}, {"note": 81, "velocity": 101, "duration": 236}, {"note": 79, "velocity": 101, "duration": 78}, {"note": 81, "velocity": 97, "duration": 236}, {"note": 83, "velocity": 103, "duration": 88}, {"note": 83, "velocity": 106, "duration": 116}, {"note": 83, "velocity": 99, "duration": 116}, {"note": 83, "velocity": 97, "duration": 236}, {"note": 83, "velocity": 91, "duration": 116}, {"note": 83, "velocity": 80, "duration": 18}, {"note": 84, "velocity": 97, "duration": 78}, {"note": 83, "velocity": 95, "duration": 116}, {"note": 83, "velocity": 97, "duration": 236}, {"note": 83, "velocity": 97, "duration": 24}, {"note": 81, "velocity": 101, "duration": 20}, {"note": 79, "velocity": 88, "duration": 356}, {"note": 79, "velocity": 99, "duration": 236}, {"note": 81, "velocity": 99, "duration": 116}, {"note": 81, "velocity": 97, "duration": 597}, {"note": 74, "velocity": 99, "duration": 116}, {"note": 74, "velocity": 97, "duration": 116}, {"note": 76, "velocity": 95, "duration": 115}, {"note": 0, "velocity": 0, "duration": 86}, {"note": 79, "velocity": 101, "duration": 120}, {"note": 79, "velocity": 60, "duration": 116}, {"note": 79, "velocity": 82, "duration": 236}, {"note": 76, "velocity": 85, "duration": 116}, {"note": 74, "velocity": 97, "duration": 19}, {"note": 74, "velocity": 85, "duration": 229}, {"note": 83, "velocity": 88, "duration": 109}, {"note": 0, "velocity": 0, "duration": 124}, {"note": 83, "velocity": 85, "duration": 116}, {"note": 83, "velocity": 97, "duration": 236}, {"note": 81, "velocity": 97, "duration": 116}, {"note": 79, "velocity": 97, "duration": 132}, {"note": 76, "velocity": 99, "duration": 236}, {"note": 79, "velocity": 82, "duration": 23}, {"note": 0, "velocity": 0, "duration": 382}, {"note": 79, "velocity": 70, "duration": 236}, {"note": 78, "velocity": 84, "duration": 116}, {"note": 78, "velocity": 70, "duration": 114}, {"note": 76, "velocity": 85, "duration": 51}, {"note": 74, "velocity": 81, "duration": 116}, {"note": 71, "velocity": 81, "duration": 236}, {"note": 67, "velocity": 83, "duration": 30}, {"note": 76, "velocity": 85, "duration": 236}, {"note": 74, "velocity": 85, "duration": 60}, {"note": 74, "velocity": 93, "duration": 236}, {"note": 72, "velocity": 97, "duration": 116}, {"note": 74, "velocity": 88, "duration": 116}, {"note": 72, "velocity": 88, "duration": 114}, {"note": 74, "velocity": 88, "duration": 575}, {"note": 69, "velocity": 88, "duration": 116}, {"note": 71, "velocity": 66, "duration": 17}, {"note": 72, "velocity": 76, "duration": 116}, {"note": 71, "velocity": 82, "duration": 101}, {"note": 72, "velocity": 76, "duration": 116}, {"note": 79, "velocity": 80, "duration": 210}, {"note": 76, "velocity": 101, "duration": 116}, {"note": 79, "velocity": 91, "duration": 236}, {"note": 81, "velocity": 103, "duration": 236}, {"note": 81, "velocity": 99, "duration": 828}, {"note": 80, "velocity": 99, "duration": 364}, {"note": 82, "velocity": 97, "duration": 378}, {"note": 84, "velocity": 103, "duration": 104}, {"note": 84, "velocity": 103, "duration": 236}, {"note": 84, "velocity": 106, "duration": 236}, {"note": 84, "velocity": 99, "duration": 116}, {"note": 85, "velocity": 109, "duration": 133}, {"note": 84, "velocity": 99, "duration": 116}, {"note": 84, "velocity": 97, "duration": 236}, {"note": 84, "velocity": 97, "duration": 59}, {"note": 82, "velocity": 106, "duration": 43}, {"note": 80, "velocity": 93, "duration": 356}, {"note": 80, "velocity": 97, "duration": 236}, {"note": 77, "velocity": 106, "duration": 116}, {"note": 84, "velocity": 101, "duration": 648}, {"note": 75, "velocity": 99, "duration": 116}, {"note": 75, "velocity": 95, "duration": 34}, {"note": 77, "velocity": 95, "duration": 116}, {"note": 80, "velocity": 101, "duration": 127}, {"note": 80, "velocity": 80, "duration": 116}, {"note": 80, "velocity": 97, "duration": 236}, {"note": 77, "velocity": 91, "duration": 116}, {"note": 75, "velocity": 97, "duration": 66}, {"note": 75, "velocity": 103, "duration": 116}, {"note": 84, "velocity": 97, "duration": 236}, {"note": 84, "velocity": 93, "duration": 79}, {"note": 84, "velocity": 106, "duration": 236}, {"note": 82, "velocity": 103, "duration": 116}, {"note": 80, "velocity": 101, "duration": 15}, {"note": 80, "velocity": 99, "duration": 116}, {"note": 80, "velocity": 93, "duration": 116}, {"note": 80, "velocity": 99, "duration": 116}, {"note": 84, "velocity": 103, "duration": 356}, {"note": 84, "velocity": 101, "duration": 74}, {"note": 82, "velocity": 101, "duration": 236}, {"note": 80, "velocity": 101, "duration": 236}, {"note": 82, "velocity": 97, "duration": 236}, {"note": 84, "velocity": 103, "duration": 112}, {"note": 84, "velocity": 106, "duration": 116}, {"note": 84, "velocity": 99, "duration": 116}, {"note": 84, "velocity": 97, "duration": 236}, {"note": 84, "velocity": 91, "duration": 116}, {"note": 84, "velocity": 80, "duration": 116}, {"note": 85, "velocity": 97, "duration": 90}, {"note": 84, "velocity": 95, "duration": 116}, {"note": 84, "velocity": 97, "duration": 236}, {"note": 84, "velocity": 97, "duration": 86}, {"note": 82, "velocity": 101, "duration": 116}, {"note": 80, "velocity": 88, "duration": 330}, {"note": 80, "velocity": 99, "duration": 236}, {"note": 82, "velocity": 99, "duration": 116}, {"note": 82, "velocity": 97, "duration": 618}, {"note": 75, "velocity": 99, "duration": 49}, {"note": 75, "velocity": 97, "duration": 116}, {"note": 77, "velocity": 95, "duration": 2}, {"note": 80, "velocity": 101, "duration": 116}, {"note": 80, "velocity": 60, "duration": 116}, {"note": 80, "velocity": 82, "duration": 236}, {"note": 77, "velocity": 85, "duration": 116}, {"note": 75, "velocity": 97, "duration": 0}, {"note": 75, "velocity": 85, "duration": 116}, {"note": 84, "velocity": 88, "duration": 186}, {"note": 84, "velocity": 85, "duration": 116}, {"note": 84, "velocity": 97, "duration": 236}, {"note": 82, "velocity": 97, "duration": 116}, {"note": 80, "velocity": 97, "duration": 79}, {"note": 77, "velocity": 99, "duration": 236}, {"note": 80, "velocity": 82, "duration": 629}, {"note": 75, "velocity": 80, "duration": 120}, {"note": 75, "velocity": 91, "duration": 120}, {"note": 77, "velocity": 78, "duration": 106}, {"note": 80, "velocity": 82, "duration": 208}, {"note": 80, "velocity": 67, "duration": 120}, {"note": 80, "velocity": 82, "duration": 251}, {"note": 77, "velocity": 69, "duration": 120}, {"note": 75, "velocity": 59, "duration": 99}, {"note": 75, "velocity": 63, "duration": 125}, {"note": 84, "velocity": 78, "duration": 234}, {"note": 87, "velocity": 89, "duration": 205}, {"note": 84, "velocity": 74, "duration": 187}, {"note": 82, "velocity": 71, "duration": 93}, {"note": 80, "velocity": 72, "duration": 193}, {"note": 77, "velocity": 75, "duration": 338}, {"note": 80, "velocity": 90, "duration": 174}, {"note": 82, "velocity": 88, "duration": 476}, {"note": 80, "velocity": 87, "duration": 1823}]]