[[{"note": 76, "velocity": 101, "duration": 236}, {"note": 78, "velocity": 97, "duration": 476}, {"note": 76, "velocity": 95, "duration": 236}, {"note": 81, "velocity": 80, "duration": 476}, {"note": 78, "velocity": 103, "duration": 236}, {"note": 76, "velocity": 101, "duration": 236}, {"note": 73, "velocity": 93, "duration": 1916}, {"note": 71, "velocity": 91, "duration": 236}, {"note": 73, "velocity": 106, "duration": 476}, {"note": 76, "velocity": 101, "duration": 236}, {"note": 73, "velocity": 106, "duration": 476}, {"note": 71, "velocity": 97, "duration": 236}, {"note": 73, "velocity": 101, "duration": 716}, {"note": 66, "velocity": 99, "duration": 1436}, {"note": 69, "velocity": 103, "duration": 236}, {"note": 69, "velocity": 101, "duration": 476}, {"note": 66, "velocity": 95, "duration": 236}, {"note": 64, "velocity": 95, "duration": 476}, {"note": 66, "velocity": 95, "duration": 476}, {"note": 69, "velocity": 85, "duration": 716}, {"note": 71, "velocity": 70, "duration": 236}, {"note": 69, "velocity": 88, "duration": 956}, {"note": 71, "velocity": 101, "duration": 236}, {"note": 71, "velocity": 97, "duration": 476}, {"note": 69, "velocity": 91, "duration": 236}, {"note": 66, "velocity": 85, "duration": 476}, {"note": 73, "velocity": 95, "duration": 476}, {"note": 73, "velocity": 97, "duration": 476}, {"note": 71, "velocity": 45, "duration": 1436}, {"note": 76, "velocity": 97, "duration": 236}, {"note": 78, "velocity": 78, "duration": 476}, {"note": 76, "velocity": 95, "duration": 236}, {"note": 81, "velocity": 82, "duration": 476}, {"note": 78, "velocity": 101, "duration": 236}, {"note": 76, "velocity": 97, "duration": 236}, {"note": 76, "velocity": 95, "duration": 236}, {"note": 73, "velocity": 97, "duration": 1676}, {"note": 71, "velocity": 99, "duration": 236}, {"note": 73, "velocity": 80, "duration": 476}, {"note": 76, "velocity": 69, "duration": 236}, {"note": 73, "velocity": 95, "duration": 476}, {"note": 71, "velocity": 97, "duration": 236}, {"note": 73, "velocity": 91, "duration": 236}, {"note": 66, "velocity": 99, "duration": 1916}, {"note": 69, "velocity": 103, "duration": 236}, {"note": 69, "velocity": 103, "duration": 476}, {"note": 66, "velocity": 95, "duration": 236}, {"note": 64, "velocity": 101, "duration": 476}, {"note": 66, "velocity": 106, "duration": 476}, {"note": 69, "velocity": 113, "duration": 716}, {"note": 71, "velocity": 103, "duration": 236}, {"note": 69, "velocity": 106, "duration": 956}, {"note": 71, "velocity": 103, "duration": 236}, {"note": 71, "velocity": 99, "duration": 476}, {"note": 69, "velocity": 97, "duration": 236}, {"note": 66, "velocity": 101, "duration": 476}, {"note": 71, "velocity": 97, "duration": 476}, {"note": 71, "velocity": 101, "duration": 236}, {"note": 69, "velocity": 101, "duration": 1676}, {"note": 76, "velocity": 103, "duration": 232}, {"note": 73, "velocity": 106, "duration": 404}, {"note": 0, "velocity": 0, "duration": 76}, {"note": 76, "velocity": 106, "duration": 199}, {"note": 73, "velocity": 106, "duration": 326}, {"note": 0, "velocity": 0, "duration": 154}, {"note": 76, "velocity": 109, "duration": 354}, {"note": 0, "velocity": 0, "duration": 126}, {"note": 78, "velocity": 106, "duration": 113}, {"note": 0, "velocity": 0, "duration": 127}, {"note": 78, "velocity": 106, "duration": 283}, {"note": 0, "velocity": 0, "duration": 197}, {"note": 81, "velocity": 85, "duration": 130}, {"note": 0, "velocity": 0, "duration": 110}, {"note": 78, "velocity": 109, "duration": 438}, {"note": 76, "velocity": 80, "duration": 138}, {"note": 0, "velocity": 0, "duration": 342}, {"note": 73, "velocity": 99, "duration": 109}, {"note": 0, "velocity": 0, "duration": 131}, {"note": 73, "velocity": 99, "duration": 356}, {"note": 0, "velocity": 0, "duration": 124}, {"note": 71, "velocity": 106, "duration": 156}, {"note": 0, "velocity": 0, "duration": 84}, {"note": 73, "velocity": 103, "duration": 274}, {"note": 0, "velocity": 0, "duration": 206}, {"note": 76, "velocity": 95, "duration": 221}, {"note": 0, "velocity": 0, "duration": 259}, {"note": 73, "velocity": 95, "duration": 618}, {"note": 0, "velocity": 0, "duration": 1302}, {"note": 76, "velocity": 95, "duration": 244}, {"note": 73, "velocity": 99, "duration": 385}, {"note": 0, "velocity": 0, "duration": 95}, {"note": 76, "velocity": 99, "duration": 258}, {"note": 73, "velocity": 97, "duration": 445}, {"note": 76, "velocity": 103, "duration": 364}, {"note": 0, "velocity": 0, "duration": 116}, {"note": 78, "velocity": 101, "duration": 122}, {"note": 0, "velocity": 0, "duration": 118}, {"note": 78, "velocity": 97, "duration": 413}, {"note": 0, "velocity": 0, "duration": 67}, {"note": 81, "velocity": 72, "duration": 185}, {"note": 78, "velocity": 99, "duration": 370}, {"note": 0, "velocity": 0, "duration": 110}, {"note": 76, "velocity": 95, "duration": 277}, {"note": 0, "velocity": 0, "duration": 203}, {"note": 73, "velocity": 97, "duration": 89}, {"note": 0, "velocity": 0, "duration": 151}, {"note": 73, "velocity": 101, "duration": 357}, {"note": 0, "velocity": 0, "duration": 123}, {"note": 71, "velocity": 101, "duration": 149}, {"note": 0, "velocity": 0, "duration": 91}, {"note": 73, "velocity": 106, "duration": 260}, {"note": 0, "velocity": 0, "duration": 220}, {"note": 76, "velocity": 106, "duration": 289}, {"note": 0, "velocity": 0, "duration": 191}, {"note": 73, "velocity": 103, "duration": 226}, {"note": 0, "velocity": 0, "duration": 1694}, {"note": 71, "velocity": 106, "duration": 143}, {"note": 0, "velocity": 0, "duration": 577}, {"note": 73, "velocity": 106, "duration": 159}, {"note": 0, "velocity": 0, "duration": 81}, {"note": 71, "velocity": 103, "duration": 291}, {"note": 0, "velocity": 0, "duration": 189}, {"note": 73, "velocity": 101, "duration": 190}, {"note": 0, "velocity": 0, "duration": 290}, {"note": 76, "velocity": 109, "duration": 573}, {"note": 0, "velocity": 0, "duration": 147}, {"note": 78, "velocity": 109, "duration": 158}, {"note": 0, "velocity": 0, "duration": 82}, {"note": 76, "velocity": 103, "duration": 328}, {"note": 0, "velocity": 0, "duration": 152}, {"note": 78, "velocity": 103, "duration": 226}, {"note": 0, "velocity": 0, "duration": 254}, {"note": 81, "velocity": 97, "duration": 1327}, {"note": 0, "velocity": 0, "duration": 113}, {"note": 78, "velocity": 101, "duration": 440}, {"note": 81, "velocity": 80, "duration": 1555}, {"note": 0, "velocity": 0, "duration": 365}, {"note": 78, "velocity": 103, "duration": 98}, {"note": 0, "velocity": 0, "duration": 142}, {"note": 78, "velocity": 101, "duration": 257}, {"note": 0, "velocity": 0, "duration": 223}, {"note": 78, "velocity": 106, "duration": 159}, {"note": 0, "velocity": 0, "duration": 81}, {"note": 76, "velocity": 106, "duration": 356}, {"note": 0, "velocity": 0, "duration": 124}, {"note": 78, "velocity": 109, "duration": 219}, {"note": 0, "velocity": 0, "duration": 261}, {"note": 76, "velocity": 99, "duration": 610}, {"note": 0, "velocity": 0, "duration": 110}, {"note": 73, "velocity": 103, "duration": 237}, {"note": 71, "velocity": 99, "duration": 417}, {"note": 0, "velocity": 0, "duration": 63}, {"note": 73, "velocity": 101, "duration": 481}, {"note": 76, "velocity": 97, "duration": 1931}, {"note": 0, "velocity": 0, "duration": 1909}, {"note": 76, "velocity": 101, "duration": 236}, {"note": 78, "velocity": 97, "duration": 476}, {"note": 76, "velocity": 95, "duration": 236}, {"note": 81, "velocity": 80, "duration": 476}, {"note": 78, "velocity": 103, "duration": 236}, {"note": 76, "velocity": 101, "duration": 236}, {"note": 73, "velocity": 93, "duration": 1916}, {"note": 71, "velocity": 91, "duration": 236}, {"note": 73, "velocity": 106, "duration": 476}, {"note": 76, "velocity": 101, "duration": 236}, {"note": 73, "velocity": 106, "duration": 476}, {"note": 71, "velocity": 97, "duration": 236}, {"note": 73, "velocity": 101, "duration": 236}, {"note": 66, "velocity": 99, "duration": 1916}, {"note": 69, "velocity": 103, "duration": 236}, {"note": 69, "velocity": 101, "duration": 476}, {"note": 66, "velocity": 95, "duration": 236}, {"note": 64, "velocity": 95, "duration": 476}, {"note": 66, "velocity": 95, "duration": 476}, {"note": 69, "velocity": 85, "duration": 716}, {"note": 71, "velocity": 70, "duration": 236}, {"note": 69, "velocity": 88, "duration": 956}, {"note": 71, "velocity": 101, "duration": 236}, {"note": 71, "velocity": 97, "duration": 476}, {"note": 69, "velocity": 91, "duration": 236}, {"note": 66, "velocity": 85, "duration": 476}, {"note": 71, "velocity": 95, "duration": 476}, {"note": 71, "velocity": 97, "duration": 476}, {"note": 69, "velocity": 45, "duration": 1436}, {"note": 0, "velocity": 0, "duration": 30724}, {"note": 76, "velocity": 101, "duration": 236}, {"note": 78, "velocity": 97, "duration": 476}, {"note": 76, "velocity": 95, "duration": 236}, {"note": 81, "velocity": 80, "duration": 476}, {"note": 78, "velocity": 103, "duration": 236}, {"note": 76, "velocity": 101, "duration": 236}, {"note": 73, "velocity": 93, "duration": 1916}, {"note": 71, "velocity": 91, "duration": 236}, {"note": 73, "velocity": 106, "duration": 476}, {"note": 76, "velocity": 101, "duration": 236}, {"note": 73, "velocity": 106, "duration": 476}, {"note": 71, "velocity": 97, "duration": 236}, {"note": 73, "velocity": 101, "duration": 716}, {"note": 66, "velocity": 99, "duration": 1436}, {"note": 69, "velocity": 103, "duration": 236}, {"note": 69, "velocity": 101, "duration": 476}, {"note": 66, "velocity": 95, "duration": 236}, {"note": 64, "velocity": 95, "duration": 476}, {"note": 66, "velocity": 95, "duration": 476}, {"note": 69, "velocity": 85, "duration": 716}, {"note": 71, "velocity": 70, "duration": 236}, {"note": 69, "velocity": 88, "duration": 956}, {"note": 71, "velocity": 101, "duration": 236}, {"note": 71, "velocity": 97, "duration": 476}, {"note": 69, "velocity": 91, "duration": 236}, {"note": 66, "velocity": 85, "duration": 476}, {"note": 73, "velocity": 95, "duration": 476}, {"note": 73, "velocity": 97, "duration": 476}, {"note": 71, "velocity": 45, "duration": 1436}, {"note": 76, "velocity": 97, "duration": 236}, {"note": 78, "velocity": 78, "duration": 476}, {"note": 76, "velocity": 95, "duration": 236}, {"note": 81, "velocity": 82, "duration": 476}, {"note": 78, "velocity": 101, "duration": 236}, {"note": 76, "velocity": 97, "duration": 236}, {"note": 76, "velocity": 95, "duration": 236}, {"note": 73, "velocity": 97, "duration": 1676}, {"note": 71, "velocity": 99, "duration": 236}, {"note": 73, "velocity": 80, "duration": 476}, {"note": 76, "velocity": 69, "duration": 236}, {"note": 73, "velocity": 95, "duration": 476}, {"note": 71, "velocity": 97, "duration": 236}, {"note": 73, "velocity": 91, "duration": 236}, {"note": 66, "velocity": 99, "duration": 1916}, {"note": 69, "velocity": 103, "duration": 236}, {"note": 69, "velocity": 103, "duration": 476}, {"note": 66, "velocity": 95, "duration": 236}, {"note": 64, "velocity": 101, "duration": 476}, {"note": 66, "velocity": 106, "duration": 476}, {"note": 69, "velocity": 113, "duration": 716}, {"note": 71, "velocity": 103, "duration": 236}, {"note": 69, "velocity": 106, "duration": 956}, {"note": 71, "velocity": 103, "duration": 236}, {"note": 71, "velocity": 99, "duration": 476}, {"note": 69, "velocity": 97, "duration": 236}, {"note": 66, "velocity": 101, "duration": 476}, {"note": 71, "velocity": 97, "duration": 476}, {"note": 71, "velocity": 101, "duration": 236}, {"note": 69, "velocity": 101, "duration": 1676}, {"note": 76, "velocity": 103, "duration": 232}, {"note": 73, "velocity": 106, "duration": 404}, {"note": 0, "velocity": 0, "duration": 76}, {"note": 76, "velocity": 106, "duration": 199}, {"note": 73, "velocity": 106, "duration": 326}, {"note": 0, "velocity": 0, "duration": 154}, {"note": 76, "velocity": 109, "duration": 354}, {"note": 0, "velocity": 0, "duration": 126}, {"note": 78, "velocity": 106, "duration": 113}, {"note": 0, "velocity": 0, "duration": 127}, {"note": 78, "velocity": 106, "duration": 283}, {"note": 0, "velocity": 0, "duration": 197}, {"note": 81, "velocity": 85, "duration": 130}, {"note": 0, "velocity": 0, "duration": 110}, {"note": 78, "velocity": 109, "duration": 438}, {"note": 76, "velocity": 80, "duration": 138}, {"note": 0, "velocity": 0, "duration": 342}, {"note": 73, "velocity": 99, "duration": 109}, {"note": 0, "velocity": 0, "duration": 131}, {"note": 73, "velocity": 99, "duration": 356}, {"note": 71, "velocity": 106, "duration": 156}, {"note": 0, "velocity": 0, "duration": 204}, {"note": 73, "velocity": 103, "duration": 274}, {"note": 0, "velocity": 0, "duration": 206}, {"note": 76, "velocity": 95, "duration": 221}, {"note": 0, "velocity": 0, "duration": 259}, {"note": 73, "velocity": 95, "duration": 618}, {"note": 0, "velocity": 0, "duration": 1302}, {"note": 76, "velocity": 95, "duration": 244}, {"note": 73, "velocity": 99, "duration": 385}, {"note": 0, "velocity": 0, "duration": 95}, {"note": 76, "velocity": 99, "duration": 258}, {"note": 73, "velocity": 97, "duration": 445}, {"note": 76, "velocity": 103, "duration": 364}, {"note": 0, "velocity": 0, "duration": 116}, {"note": 78, "velocity": 101, "duration": 122}, {"note": 0, "velocity": 0, "duration": 118}, {"note": 78, "velocity": 97, "duration": 413}, {"note": 0, "velocity": 0, "duration": 67}, {"note": 81, "velocity": 72, "duration": 185}, {"note": 78, "velocity": 99, "duration": 370}, {"note": 0, "velocity": 0, "duration": 110}, {"note": 76, "velocity": 95, "duration": 277}, {"note": 0, "velocity": 0, "duration": 203}, {"note": 73, "velocity": 97, "duration": 89}, {"note": 0, "velocity": 0, "duration": 151}, {"note": 73, "velocity": 101, "duration": 357}, {"note": 0, "velocity": 0, "duration": 123}, {"note": 71, "velocity": 101, "duration": 149}, {"note": 0, "velocity": 0, "duration": 91}, {"note": 73, "velocity": 106, "duration": 260}, {"note": 0, "velocity": 0, "duration": 220}, {"note": 76, "velocity": 106, "duration": 289}, {"note": 0, "velocity": 0, "duration": 191}, {"note": 73, "velocity": 103, "duration": 226}, {"note": 0, "velocity": 0, "duration": 1694}, {"note": 71, "velocity": 106, "duration": 143}, {"note": 0, "velocity": 0, "duration": 577}, {"note": 73, "velocity": 106, "duration": 159}, {"note": 0, "velocity": 0, "duration": 81}, {"note": 71, "velocity": 103, "duration": 291}, {"note": 0, "velocity": 0, "duration": 189}, {"note": 73, "velocity": 101, "duration": 190}, {"note": 0, "velocity": 0, "duration": 290}, {"note": 76, "velocity": 109, "duration": 573}, {"note": 0, "velocity": 0, "duration": 147}, {"note": 78, "velocity": 109, "duration": 158}, {"note": 0, "velocity": 0, "duration": 82}, {"note": 76, "velocity": 103, "duration": 328}, {"note": 0, "velocity": 0, "duration": 152}, {"note": 78, "velocity": 103, "duration": 226}, {"note": 0, "velocity": 0, "duration": 254}, {"note": 81, "velocity": 97, "duration": 1327}, {"note": 0, "velocity": 0, "duration": 113}, {"note": 78, "velocity": 101, "duration": 440}, {"note": 81, "velocity": 80, "duration": 1555}, {"note": 0, "velocity": 0, "duration": 365}, {"note": 78, "velocity": 103, "duration": 98}, {"note": 0, "velocity": 0, "duration": 142}, {"note": 78, "velocity": 101, "duration": 257}, {"note": 0, "velocity": 0, "duration": 223}, {"note": 78, "velocity": 106, "duration": 159}, {"note": 0, "velocity": 0, "duration": 81}, {"note": 76, "velocity": 106, "duration": 356}, {"note": 0, "velocity": 0, "duration": 124}, {"note": 78, "velocity": 109, "duration": 219}, {"note": 0, "velocity": 0, "duration": 261}, {"note": 76, "velocity": 99, "duration": 610}, {"note": 0, "velocity": 0, "duration": 110}, {"note": 73, "velocity": 103, "duration": 237}, {"note": 71, "velocity": 99, "duration": 417}, {"note": 0, "velocity": 0, "duration": 63}, {"note": 73, "velocity": 101, "duration": 481}, {"note": 76, "velocity": 97, "duration": 1931}, {"note": 0, "velocity": 0, "duration": 1909}, {"note": 76, "velocity": 101, "duration": 236}, {"note": 78, "velocity": 97, "duration": 476}, {"note": 76, "velocity": 95, "duration": 236}, {"note": 81, "velocity": 80, "duration": 476}, {"note": 78, "velocity": 103, "duration": 236}, {"note": 76, "velocity": 101, "duration": 236}, {"note": 73, "velocity": 93, "duration": 1916}, {"note": 71, "velocity": 91, "duration": 236}, {"note": 73, "velocity": 106, "duration": 476}, {"note": 76, "velocity": 101, "duration": 236}, {"note": 73, "velocity": 106, "duration": 476}, {"note": 71, "velocity": 97, "duration": 236}, {"note": 73, "velocity": 101, "duration": 236}, {"note": 66, "velocity": 99, "duration": 1916}, {"note": 69, "velocity": 103, "duration": 236}, {"note": 69, "velocity": 101, "duration": 476}, {"note": 66, "velocity": 95, "duration": 236}, {"note": 64, "velocity": 95, "duration": 476}, {"note": 66, "velocity": 95, "duration": 476}, {"note": 69, "velocity": 85, "duration": 716}, {"note": 71, "velocity": 70, "duration": 236}, {"note": 69, "velocity": 88, "duration": 956}, {"note": 71, "velocity": 101, "duration": 236}, {"note": 71, "velocity": 97, "duration": 476}, {"note": 69, "velocity": 91, "duration": 236}, {"note": 66, "velocity": 85, "duration": 476}, {"note": 71, "velocity": 95, "duration": 476}, {"note": 71, "velocity": 97, "duration": 476}, {"note": 69, "velocity": 45, "duration": 1436}]]