[[{"note": 65, "velocity": 90, "duration": 476}, {"note": 74, "velocity": 83, "duration": 402}, {"note": 74, "velocity": 76, "duration": 236}, {"note": 74, "velocity": 82, "duration": 236}, {"note": 74, "velocity": 86, "duration": 236}, {"note": 72, "velocity": 63, "duration": 236}, {"note": 70, "velocity": 54, "duration": 93}, {"note": 72, "velocity": 73, "duration": 641}, {"note": 72, "velocity": 84, "duration": 196}, {"note": 74, "velocity": 67, "duration": 400}, {"note": 72, "velocity": 63, "duration": 7}, {"note": 70, "velocity": 64, "duration": 105}, {"note": 70, "velocity": 66, "duration": 236}, {"note": 70, "velocity": 69, "duration": 236}, {"note": 70, "velocity": 76, "duration": 236}, {"note": 70, "velocity": 65, "duration": 236}, {"note": 69, "velocity": 62, "duration": 236}, {"note": 67, "velocity": 61, "duration": 236}, {"note": 65, "velocity": 60, "duration": 892}, {"note": 65, "velocity": 82, "duration": 236}, {"note": 67, "velocity": 65, "duration": 236}, {"note": 65, "velocity": 68, "duration": 236}, {"note": 67, "velocity": 66, "duration": 236}, {"note": 70, "velocity": 94, "duration": 956}, {"note": 65, "velocity": 64, "duration": 236}, {"note": 65, "velocity": 85, "duration": 236}, {"note": 65, "velocity": 71, "duration": 236}, {"note": 72, "velocity": 91, "duration": 236}, {"note": 70, "velocity": 77, "duration": 956}, {"note": 65, "velocity": 76, "duration": 236}, {"note": 75, "velocity": 82, "duration": 236}, {"note": 74, "velocity": 66, "duration": 236}, {"note": 75, "velocity": 66, "duration": 236}, {"note": 74, "velocity": 77, "duration": 236}, {"note": 70, "velocity": 67, "duration": 236}, {"note": 65, "velocity": 74, "duration": 153}, {"note": 74, "velocity": 87, "duration": 476}, {"note": 77, "velocity": 90, "duration": 236}, {"note": 70, "velocity": 85, "duration": 236}, {"note": 72, "velocity": 84, "duration": 1676}, {"note": 65, "velocity": 87, "duration": 476}, {"note": 74, "velocity": 90, "duration": 424}, {"note": 74, "velocity": 91, "duration": 177}, {"note": 74, "velocity": 86, "duration": 236}, {"note": 74, "velocity": 87, "duration": 236}, {"note": 72, "velocity": 77, "duration": 83}, {"note": 72, "velocity": 68, "duration": 236}, {"note": 70, "velocity": 61, "duration": 130}, {"note": 72, "velocity": 90, "duration": 660}, {"note": 72, "velocity": 92, "duration": 236}, {"note": 74, "velocity": 93, "duration": 398}, {"note": 72, "velocity": 87, "duration": 236}, {"note": 72, "velocity": 93, "duration": 476}, {"note": 70, "velocity": 83, "duration": 236}, {"note": 70, "velocity": 91, "duration": 236}, {"note": 70, "velocity": 87, "duration": 236}, {"note": 70, "velocity": 97, "duration": 236}, {"note": 69, "velocity": 79, "duration": 236}, {"note": 67, "velocity": 79, "duration": 236}, {"note": 67, "velocity": 84, "duration": 476}, {"note": 65, "velocity": 68, "duration": 476}, {"note": 65, "velocity": 74, "duration": 236}, {"note": 67, "velocity": 90, "duration": 236}, {"note": 65, "velocity": 84, "duration": 236}, {"note": 67, "velocity": 89, "duration": 236}, {"note": 70, "velocity": 99, "duration": 956}, {"note": 65, "velocity": 84, "duration": 236}, {"note": 65, "velocity": 89, "duration": 236}, {"note": 65, "velocity": 73, "duration": 236}, {"note": 72, "velocity": 94, "duration": 236}, {"note": 70, "velocity": 93, "duration": 956}, {"note": 65, "velocity": 72, "duration": 236}, {"note": 75, "velocity": 69, "duration": 236}, {"note": 74, "velocity": 75, "duration": 236}, {"note": 75, "velocity": 82, "duration": 236}, {"note": 74, "velocity": 82, "duration": 236}, {"note": 70, "velocity": 90, "duration": 236}, {"note": 65, "velocity": 77, "duration": 476}, {"note": 65, "velocity": 69, "duration": 236}, {"note": 75, "velocity": 85, "duration": 236}, {"note": 74, "velocity": 84, "duration": 236}, {"note": 75, "velocity": 75, "duration": 236}, {"note": 74, "velocity": 87, "duration": 236}, {"note": 70, "velocity": 91, "duration": 476}, {"note": 72, "velocity": 91, "duration": 236}, {"note": 72, "velocity": 93, "duration": 1196}, {"note": 70, "velocity": 87, "duration": 2636}, {"note": 77, "velocity": 89, "duration": 236}, {"note": 77, "velocity": 94, "duration": 476}, {"note": 70, "velocity": 93, "duration": 476}, {"note": 77, "velocity": 98, "duration": 476}, {"note": 77, "velocity": 92, "duration": 236}, {"note": 77, "velocity": 90, "duration": 236}, {"note": 77, "velocity": 92, "duration": 236}, {"note": 79, "velocity": 93, "duration": 236}, {"note": 74, "velocity": 79, "duration": 236}, {"note": 72, "velocity": 101, "duration": 257}, {"note": 65, "velocity": 94, "duration": 236}, {"note": 74, "velocity": 94, "duration": 430}, {"note": 72, "velocity": 85, "duration": 236}, {"note": 72, "velocity": 87, "duration": 200}, {"note": 70, "velocity": 73, "duration": 236}, {"note": 70, "velocity": 68, "duration": 58}, {"note": 67, "velocity": 61, "duration": 236}, {"note": 70, "velocity": 75, "duration": 236}, {"note": 72, "velocity": 63, "duration": 236}, {"note": 74, "velocity": 80, "duration": 183}, {"note": 75, "velocity": 75, "duration": 135}, {"note": 74, "velocity": 85, "duration": 224}, {"note": 74, "velocity": 94, "duration": 94}, {"note": 0, "velocity": 0, "duration": 124}, {"note": 72, "velocity": 79, "duration": 236}, {"note": 72, "velocity": 83, "duration": 236}, {"note": 70, "velocity": 79, "duration": 109}, {"note": 67, "velocity": 87, "duration": 869}, {"note": 74, "velocity": 98, "duration": 236}, {"note": 72, "velocity": 83, "duration": 50}, {"note": 72, "velocity": 81, "duration": 236}, {"note": 70, "velocity": 72, "duration": 74}, {"note": 72, "velocity": 90, "duration": 956}, {"note": 74, "velocity": 97, "duration": 236}, {"note": 72, "velocity": 87, "duration": 236}, {"note": 72, "velocity": 87, "duration": 236}, {"note": 70, "velocity": 72, "duration": 236}, {"note": 72, "velocity": 87, "duration": 476}, {"note": 72, "velocity": 83, "duration": 236}, {"note": 74, "velocity": 82, "duration": 236}, {"note": 75, "velocity": 77, "duration": 236}, {"note": 74, "velocity": 77, "duration": 236}, {"note": 75, "velocity": 84, "duration": 236}, {"note": 77, "velocity": 74, "duration": 476}, {"note": 72, "velocity": 82, "duration": 476}, {"note": 77, "velocity": 89, "duration": 236}, {"note": 77, "velocity": 95, "duration": 476}, {"note": 75, "velocity": 97, "duration": 476}, {"note": 74, "velocity": 90, "duration": 476}, {"note": 74, "velocity": 86, "duration": 236}, {"note": 74, "velocity": 87, "duration": 236}, {"note": 74, "velocity": 87, "duration": 236}, {"note": 75, "velocity": 68, "duration": 236}, {"note": 77, "velocity": 86, "duration": 236}, {"note": 77, "velocity": 87, "duration": 476}, {"note": 79, "velocity": 64, "duration": 236}, {"note": 77, "velocity": 72, "duration": 236}, {"note": 70, "velocity": 98, "duration": 236}, {"note": 70, "velocity": 97, "duration": 476}, {"note": 72, "velocity": 99, "duration": 476}, {"note": 74, "velocity": 105, "duration": 716}, {"note": 72, "velocity": 87, "duration": 236}, {"note": 74, "velocity": 86, "duration": 236}, {"note": 72, "velocity": 82, "duration": 236}, {"note": 74, "velocity": 84, "duration": 236}, {"note": 75, "velocity": 90, "duration": 476}, {"note": 74, "velocity": 90, "duration": 716}, {"note": 74, "velocity": 97, "duration": 476}, {"note": 72, "velocity": 94, "duration": 236}, {"note": 70, "velocity": 89, "duration": 236}, {"note": 67, "velocity": 90, "duration": 716}, {"note": 74, "velocity": 101, "duration": 236}, {"note": 74, "velocity": 97, "duration": 476}, {"note": 72, "velocity": 97, "duration": 236}, {"note": 70, "velocity": 90, "duration": 236}, {"note": 72, "velocity": 97, "duration": 956}, {"note": 74, "velocity": 105, "duration": 476}, {"note": 72, "velocity": 105, "duration": 236}, {"note": 70, "velocity": 95, "duration": 236}, {"note": 72, "velocity": 98, "duration": 476}, {"note": 72, "velocity": 99, "duration": 236}, {"note": 74, "velocity": 97, "duration": 236}, {"note": 75, "velocity": 101, "duration": 236}, {"note": 74, "velocity": 93, "duration": 236}, {"note": 75, "velocity": 100, "duration": 236}, {"note": 77, "velocity": 91, "duration": 476}, {"note": 72, "velocity": 100, "duration": 2396}, {"note": 65, "velocity": 87, "duration": 236}, {"note": 67, "velocity": 86, "duration": 236}, {"note": 70, "velocity": 97, "duration": 236}, {"note": 72, "velocity": 85, "duration": 476}, {"note": 70, "velocity": 91, "duration": 3596}, {"note": 65, "velocity": 66, "duration": 236}, {"note": 74, "velocity": 83, "duration": 716}, {"note": 74, "velocity": 90, "duration": 236}, {"note": 74, "velocity": 90, "duration": 236}, {"note": 72, "velocity": 77, "duration": 236}, {"note": 70, "velocity": 87, "duration": 236}, {"note": 72, "velocity": 97, "duration": 956}, {"note": 72, "velocity": 97, "duration": 236}, {"note": 74, "velocity": 97, "duration": 476}, {"note": 72, "velocity": 95, "duration": 236}, {"note": 72, "velocity": 97, "duration": 476}, {"note": 70, "velocity": 91, "duration": 236}, {"note": 70, "velocity": 87, "duration": 236}, {"note": 70, "velocity": 93, "duration": 236}, {"note": 70, "velocity": 96, "duration": 236}, {"note": 69, "velocity": 90, "duration": 236}, {"note": 67, "velocity": 87, "duration": 236}, {"note": 67, "velocity": 90, "duration": 476}, {"note": 65, "velocity": 94, "duration": 476}, {"note": 65, "velocity": 84, "duration": 236}, {"note": 67, "velocity": 94, "duration": 236}, {"note": 65, "velocity": 91, "duration": 236}, {"note": 67, "velocity": 96, "duration": 236}, {"note": 70, "velocity": 101, "duration": 1196}, {"note": 70, "velocity": 94, "duration": 476}, {"note": 67, "velocity": 97, "duration": 236}, {"note": 65, "velocity": 87, "duration": 50}, {"note": 65, "velocity": 87, "duration": 150}, {"note": 67, "velocity": 90, "duration": 236}, {"note": 65, "velocity": 80, "duration": 236}, {"note": 67, "velocity": 90, "duration": 236}, {"note": 74, "velocity": 87, "duration": 476}, {"note": 70, "velocity": 86, "duration": 236}, {"note": 70, "velocity": 72, "duration": 236}, {"note": 67, "velocity": 72, "duration": 13}, {"note": 74, "velocity": 90, "duration": 236}, {"note": 72, "velocity": 84, "duration": 236}, {"note": 70, "velocity": 81, "duration": 236}, {"note": 72, "velocity": 95, "duration": 407}, {"note": 65, "velocity": 92, "duration": 476}, {"note": 74, "velocity": 90, "duration": 4}, {"note": 74, "velocity": 93, "duration": 236}, {"note": 74, "velocity": 90, "duration": 236}, {"note": 74, "velocity": 87, "duration": 217}, {"note": 72, "velocity": 85, "duration": 46}, {"note": 70, "velocity": 77, "duration": 236}, {"note": 72, "velocity": 93, "duration": 748}, {"note": 72, "velocity": 97, "duration": 122}, {"note": 74, "velocity": 98, "duration": 476}, {"note": 72, "velocity": 93, "duration": 236}, {"note": 70, "velocity": 93, "duration": 476}, {"note": 70, "velocity": 91, "duration": 236}, {"note": 70, "velocity": 91, "duration": 236}, {"note": 70, "velocity": 90, "duration": 236}, {"note": 70, "velocity": 97, "duration": 236}, {"note": 69, "velocity": 91, "duration": 236}, {"note": 67, "velocity": 90, "duration": 236}, {"note": 65, "velocity": 79, "duration": 956}, {"note": 65, "velocity": 85, "duration": 236}, {"note": 67, "velocity": 93, "duration": 236}, {"note": 65, "velocity": 84, "duration": 236}, {"note": 67, "velocity": 93, "duration": 236}, {"note": 70, "velocity": 103, "duration": 1196}, {"note": 65, "velocity": 95, "duration": 476}, {"note": 72, "velocity": 101, "duration": 236}, {"note": 70, "velocity": 92, "duration": 956}, {"note": 65, "velocity": 64, "duration": 236}, {"note": 74, "velocity": 93, "duration": 236}, {"note": 74, "velocity": 93, "duration": 236}, {"note": 75, "velocity": 85, "duration": 236}, {"note": 74, "velocity": 89, "duration": 236}, {"note": 70, "velocity": 96, "duration": 236}, {"note": 65, "velocity": 91, "duration": 476}, {"note": 65, "velocity": 77, "duration": 236}, {"note": 74, "velocity": 93, "duration": 236}, {"note": 74, "velocity": 95, "duration": 236}, {"note": 75, "velocity": 90, "duration": 236}, {"note": 74, "velocity": 87, "duration": 236}, {"note": 70, "velocity": 97, "duration": 476}, {"note": 72, "velocity": 90, "duration": 236}, {"note": 72, "velocity": 90, "duration": 956}, {"note": 74, "velocity": 52, "duration": 116}, {"note": 72, "velocity": 42, "duration": 116}, {"note": 70, "velocity": 61, "duration": 716}, {"note": 77, "velocity": 105, "duration": 236}, {"note": 77, "velocity": 97, "duration": 476}, {"note": 70, "velocity": 97, "duration": 476}, {"note": 77, "velocity": 99, "duration": 476}, {"note": 77, "velocity": 91, "duration": 236}, {"note": 77, "velocity": 90, "duration": 236}, {"note": 77, "velocity": 92, "duration": 236}, {"note": 79, "velocity": 91, "duration": 236}, {"note": 74, "velocity": 91, "duration": 236}, {"note": 72, "velocity": 87, "duration": 956}, {"note": 65, "velocity": 87, "duration": 236}, {"note": 74, "velocity": 96, "duration": 476}, {"note": 72, "velocity": 86, "duration": 236}, {"note": 72, "velocity": 87, "duration": 476}, {"note": 70, "velocity": 89, "duration": 236}, {"note": 70, "velocity": 91, "duration": 236}, {"note": 67, "velocity": 59, "duration": 236}, {"note": 70, "velocity": 87, "duration": 236}, {"note": 72, "velocity": 87, "duration": 236}, {"note": 74, "velocity": 93, "duration": 236}, {"note": 74, "velocity": 42, "duration": 476}, {"note": 75, "velocity": 93, "duration": 476}, {"note": 74, "velocity": 96, "duration": 716}, {"note": 74, "velocity": 99, "duration": 236}, {"note": 72, "velocity": 90, "duration": 236}, {"note": 72, "velocity": 87, "duration": 236}, {"note": 70, "velocity": 87, "duration": 236}, {"note": 67, "velocity": 90, "duration": 428}, {"note": 74, "velocity": 101, "duration": 236}, {"note": 72, "velocity": 91, "duration": 236}, {"note": 72, "velocity": 90, "duration": 236}, {"note": 70, "velocity": 90, "duration": 236}, {"note": 72, "velocity": 103, "duration": 947}, {"note": 74, "velocity": 108, "duration": 240}, {"note": 72, "velocity": 95, "duration": 236}, {"note": 72, "velocity": 94, "duration": 236}, {"note": 70, "velocity": 89, "duration": 236}, {"note": 72, "velocity": 92, "duration": 476}, {"note": 72, "velocity": 97, "duration": 236}, {"note": 74, "velocity": 91, "duration": 236}, {"note": 75, "velocity": 94, "duration": 236}, {"note": 74, "velocity": 90, "duration": 236}, {"note": 75, "velocity": 91, "duration": 236}, {"note": 77, "velocity": 86, "duration": 476}, {"note": 72, "velocity": 93, "duration": 476}, {"note": 77, "velocity": 97, "duration": 236}, {"note": 77, "velocity": 97, "duration": 476}, {"note": 75, "velocity": 99, "duration": 476}, {"note": 74, "velocity": 97, "duration": 716}, {"note": 74, "velocity": 91, "duration": 236}, {"note": 74, "velocity": 90, "duration": 236}, {"note": 75, "velocity": 77, "duration": 236}, {"note": 77, "velocity": 86, "duration": 236}, {"note": 77, "velocity": 87, "duration": 476}, {"note": 79, "velocity": 75, "duration": 236}, {"note": 77, "velocity": 74, "duration": 236}, {"note": 70, "velocity": 64, "duration": 236}, {"note": 70, "velocity": 93, "duration": 476}, {"note": 72, "velocity": 105, "duration": 476}, {"note": 74, "velocity": 98, "duration": 476}, {"note": 74, "velocity": 99, "duration": 236}, {"note": 72, "velocity": 87, "duration": 236}, {"note": 74, "velocity": 98, "duration": 236}, {"note": 72, "velocity": 77, "duration": 236}, {"note": 74, "velocity": 93, "duration": 236}, {"note": 75, "velocity": 91, "duration": 476}, {"note": 74, "velocity": 92, "duration": 716}, {"note": 72, "velocity": 101, "duration": 236}, {"note": 74, "velocity": 93, "duration": 236}, {"note": 72, "velocity": 91, "duration": 236}, {"note": 70, "velocity": 84, "duration": 236}, {"note": 67, "velocity": 90, "duration": 716}, {"note": 74, "velocity": 91, "duration": 236}, {"note": 74, "velocity": 99, "duration": 476}, {"note": 72, "velocity": 90, "duration": 236}, {"note": 70, "velocity": 87, "duration": 236}, {"note": 72, "velocity": 100, "duration": 956}, {"note": 74, "velocity": 98, "duration": 476}, {"note": 72, "velocity": 97, "duration": 236}, {"note": 70, "velocity": 86, "duration": 236}, {"note": 72, "velocity": 92, "duration": 476}, {"note": 72, "velocity": 90, "duration": 236}, {"note": 74, "velocity": 90, "duration": 236}, {"note": 75, "velocity": 91, "duration": 236}, {"note": 74, "velocity": 90, "duration": 236}, {"note": 75, "velocity": 77, "duration": 236}, {"note": 77, "velocity": 77, "duration": 476}, {"note": 72, "velocity": 81, "duration": 2396}, {"note": 65, "velocity": 83, "duration": 236}, {"note": 67, "velocity": 89, "duration": 236}, {"note": 70, "velocity": 96, "duration": 236}, {"note": 72, "velocity": 85, "duration": 476}, {"note": 70, "velocity": 97, "duration": 2876}, {"note": 77, "velocity": 101, "duration": 476}, {"note": 70, "velocity": 86, "duration": 476}, {"note": 77, "velocity": 95, "duration": 476}, {"note": 77, "velocity": 91, "duration": 236}, {"note": 77, "velocity": 91, "duration": 236}, {"note": 77, "velocity": 95, "duration": 236}, {"note": 79, "velocity": 81, "duration": 236}, {"note": 74, "velocity": 77, "duration": 236}, {"note": 72, "velocity": 90, "duration": 956}, {"note": 65, "velocity": 66, "duration": 236}, {"note": 74, "velocity": 89, "duration": 476}, {"note": 72, "velocity": 82, "duration": 236}, {"note": 72, "velocity": 84, "duration": 476}, {"note": 70, "velocity": 71, "duration": 236}, {"note": 70, "velocity": 76, "duration": 236}, {"note": 67, "velocity": 53, "duration": 236}, {"note": 70, "velocity": 71, "duration": 236}, {"note": 72, "velocity": 71, "duration": 236}, {"note": 74, "velocity": 74, "duration": 236}, {"note": 75, "velocity": 72, "duration": 476}, {"note": 74, "velocity": 72, "duration": 716}, {"note": 74, "velocity": 99, "duration": 236}, {"note": 72, "velocity": 90, "duration": 236}, {"note": 72, "velocity": 87, "duration": 236}, {"note": 70, "velocity": 89, "duration": 236}, {"note": 67, "velocity": 91, "duration": 956}, {"note": 74, "velocity": 101, "duration": 236}, {"note": 72, "velocity": 87, "duration": 236}, {"note": 72, "velocity": 87, "duration": 236}, {"note": 70, "velocity": 87, "duration": 236}, {"note": 72, "velocity": 93, "duration": 956}, {"note": 74, "velocity": 99, "duration": 236}, {"note": 72, "velocity": 89, "duration": 236}, {"note": 72, "velocity": 91, "duration": 236}, {"note": 70, "velocity": 82, "duration": 236}, {"note": 72, "velocity": 90, "duration": 476}, {"note": 72, "velocity": 90, "duration": 236}, {"note": 74, "velocity": 85, "duration": 236}, {"note": 75, "velocity": 87, "duration": 236}, {"note": 74, "velocity": 74, "duration": 236}, {"note": 75, "velocity": 89, "duration": 236}, {"note": 77, "velocity": 72, "duration": 476}, {"note": 72, "velocity": 75, "duration": 476}, {"note": 77, "velocity": 91, "duration": 236}, {"note": 77, "velocity": 98, "duration": 476}, {"note": 75, "velocity": 103, "duration": 476}, {"note": 74, "velocity": 97, "duration": 476}, {"note": 74, "velocity": 96, "duration": 236}, {"note": 74, "velocity": 91, "duration": 236}, {"note": 74, "velocity": 91, "duration": 236}, {"note": 75, "velocity": 86, "duration": 236}, {"note": 77, "velocity": 85, "duration": 236}, {"note": 77, "velocity": 90, "duration": 476}, {"note": 79, "velocity": 82, "duration": 236}, {"note": 77, "velocity": 73, "duration": 236}, {"note": 70, "velocity": 64, "duration": 236}, {"note": 70, "velocity": 91, "duration": 476}, {"note": 72, "velocity": 92, "duration": 476}, {"note": 74, "velocity": 90, "duration": 476}, {"note": 74, "velocity": 87, "duration": 236}, {"note": 72, "velocity": 84, "duration": 236}, {"note": 74, "velocity": 85, "duration": 236}, {"note": 72, "velocity": 75, "duration": 236}, {"note": 74, "velocity": 81, "duration": 236}, {"note": 75, "velocity": 92, "duration": 476}, {"note": 74, "velocity": 90, "duration": 716}, {"note": 72, "velocity": 103, "duration": 236}, {"note": 74, "velocity": 93, "duration": 236}, {"note": 72, "velocity": 90, "duration": 236}, {"note": 70, "velocity": 84, "duration": 236}, {"note": 67, "velocity": 90, "duration": 716}, {"note": 74, "velocity": 103, "duration": 236}, {"note": 74, "velocity": 100, "duration": 476}, {"note": 72, "velocity": 91, "duration": 236}, {"note": 70, "velocity": 91, "duration": 236}, {"note": 72, "velocity": 99, "duration": 956}, {"note": 74, "velocity": 100, "duration": 476}, {"note": 72, "velocity": 100, "duration": 236}, {"note": 70, "velocity": 95, "duration": 236}, {"note": 72, "velocity": 94, "duration": 476}, {"note": 72, "velocity": 94, "duration": 236}, {"note": 74, "velocity": 87, "duration": 236}, {"note": 75, "velocity": 92, "duration": 236}, {"note": 74, "velocity": 87, "duration": 236}, {"note": 75, "velocity": 90, "duration": 236}, {"note": 77, "velocity": 79, "duration": 476}, {"note": 72, "velocity": 83, "duration": 2396}, {"note": 65, "velocity": 90, "duration": 236}, {"note": 67, "velocity": 91, "duration": 236}, {"note": 70, "velocity": 95, "duration": 236}, {"note": 72, "velocity": 90, "duration": 476}, {"note": 70, "velocity": 98, "duration": 2876}, {"note": 74, "velocity": 97, "duration": 236}, {"note": 72, "velocity": 90, "duration": 236}, {"note": 70, "velocity": 91, "duration": 236}, {"note": 72, "velocity": 93, "duration": 716}, {"note": 72, "velocity": 99, "duration": 236}, {"note": 74, "velocity": 86, "duration": 236}, {"note": 75, "velocity": 91, "duration": 236}, {"note": 74, "velocity": 87, "duration": 236}, {"note": 75, "velocity": 89, "duration": 236}, {"note": 77, "velocity": 77, "duration": 476}, {"note": 72, "velocity": 90, "duration": 2396}, {"note": 67, "velocity": 84, "duration": 236}, {"note": 67, "velocity": 80, "duration": 236}, {"note": 70, "velocity": 66, "duration": 236}, {"note": 72, "velocity": 90, "duration": 476}, {"note": 70, "velocity": 90, "duration": 1915}]]