[[{"note": 77, "velocity": 103, "duration": 217}, {"note": 75, "velocity": 91, "duration": 210}, {"note": 73, "velocity": 87, "duration": 46}, {"note": 77, "velocity": 93, "duration": 238}, {"note": 75, "velocity": 90, "duration": 534}, {"note": 0, "velocity": 0, "duration": 186}, {"note": 73, "velocity": 96, "duration": 139}, {"note": 72, "velocity": 85, "duration": 111}, {"note": 70, "velocity": 87, "duration": 257}, {"note": 72, "velocity": 91, "duration": 258}, {"note": 73, "velocity": 100, "duration": 266}, {"note": 75, "velocity": 98, "duration": 249}, {"note": 77, "velocity": 96, "duration": 731}, {"note": 0, "velocity": 0, "duration": 229}, {"note": 70, "velocity": 93, "duration": 215}, {"note": 72, "velocity": 90, "duration": 250}, {"note": 73, "velocity": 74, "duration": 63}, {"note": 75, "velocity": 90, "duration": 235}, {"note": 68, "velocity": 84, "duration": 457}, {"note": 77, "velocity": 90, "duration": 288}, {"note": 0, "velocity": 0, "duration": 72}, {"note": 77, "velocity": 86, "duration": 153}, {"note": 75, "velocity": 92, "duration": 259}, {"note": 73, "velocity": 84, "duration": 235}, {"note": 70, "velocity": 75, "duration": 250}, {"note": 73, "velocity": 98, "duration": 265}, {"note": 75, "velocity": 101, "duration": 829}, {"note": 0, "velocity": 0, "duration": 131}, {"note": 77, "velocity": 92, "duration": 214}, {"note": 75, "velocity": 93, "duration": 232}, {"note": 73, "velocity": 87, "duration": 238}, {"note": 77, "velocity": 91, "duration": 254}, {"note": 75, "velocity": 95, "duration": 682}, {"note": 73, "velocity": 89, "duration": 132}, {"note": 72, "velocity": 89, "duration": 118}, {"note": 70, "velocity": 81, "duration": 233}, {"note": 72, "velocity": 72, "duration": 261}, {"note": 73, "velocity": 89, "duration": 262}, {"note": 75, "velocity": 90, "duration": 265}, {"note": 77, "velocity": 90, "duration": 767}, {"note": 0, "velocity": 0, "duration": 193}, {"note": 70, "velocity": 91, "duration": 225}, {"note": 72, "velocity": 87, "duration": 248}, {"note": 73, "velocity": 87, "duration": 205}, {"note": 82, "velocity": 90, "duration": 249}, {"note": 80, "velocity": 98, "duration": 482}, {"note": 73, "velocity": 98, "duration": 284}, {"note": 0, "velocity": 0, "duration": 76}, {"note": 73, "velocity": 87, "duration": 135}, {"note": 78, "velocity": 87, "duration": 237}, {"note": 77, "velocity": 77, "duration": 228}, {"note": 78, "velocity": 96, "duration": 226}, {"note": 82, "velocity": 93, "duration": 251}, {"note": 80, "velocity": 98, "duration": 339}, {"note": 0, "velocity": 0, "duration": 141}, {"note": 77, "velocity": 109, "duration": 256}, {"note": 75, "velocity": 98, "duration": 224}, {"note": 73, "velocity": 90, "duration": 464}, {"note": 77, "velocity": 100, "duration": 228}, {"note": 82, "velocity": 93, "duration": 240}, {"note": 80, "velocity": 100, "duration": 326}, {"note": 0, "velocity": 0, "duration": 154}, {"note": 77, "velocity": 100, "duration": 201}, {"note": 75, "velocity": 101, "duration": 247}, {"note": 73, "velocity": 97, "duration": 239}, {"note": 70, "velocity": 91, "duration": 238}, {"note": 73, "velocity": 99, "duration": 241}, {"note": 75, "velocity": 97, "duration": 259}, {"note": 77, "velocity": 103, "duration": 278}, {"note": 0, "velocity": 0, "duration": 186}, {"note": 77, "velocity": 100, "duration": 65}, {"note": 0, "velocity": 0, "duration": 62}, {"note": 77, "velocity": 96, "duration": 215}, {"note": 84, "velocity": 103, "duration": 161}, {"note": 0, "velocity": 0, "duration": 79}, {"note": 84, "velocity": 96, "duration": 164}, {"note": 0, "velocity": 0, "duration": 76}, {"note": 84, "velocity": 93, "duration": 234}, {"note": 80, "velocity": 99, "duration": 232}, {"note": 73, "velocity": 99, "duration": 266}, {"note": 0, "velocity": 0, "duration": 214}, {"note": 73, "velocity": 109, "duration": 260}, {"note": 72, "velocity": 103, "duration": 234}, {"note": 70, "velocity": 93, "duration": 248}, {"note": 72, "velocity": 97, "duration": 246}, {"note": 73, "velocity": 96, "duration": 245}, {"note": 77, "velocity": 90, "duration": 238}, {"note": 75, "velocity": 94, "duration": 246}, {"note": 0, "velocity": 0, "duration": 234}, {"note": 77, "velocity": 101, "duration": 260}, {"note": 75, "velocity": 99, "duration": 241}, {"note": 73, "velocity": 89, "duration": 467}, {"note": 77, "velocity": 99, "duration": 234}, {"note": 82, "velocity": 93, "duration": 249}, {"note": 80, "velocity": 100, "duration": 292}, {"note": 0, "velocity": 0, "duration": 188}, {"note": 77, "velocity": 97, "duration": 272}, {"note": 80, "velocity": 98, "duration": 246}, {"note": 82, "velocity": 103, "duration": 169}, {"note": 0, "velocity": 0, "duration": 71}, {"note": 82, "velocity": 103, "duration": 228}, {"note": 80, "velocity": 95, "duration": 232}, {"note": 82, "velocity": 100, "duration": 236}, {"note": 77, "velocity": 96, "duration": 264}, {"note": 0, "velocity": 0, "duration": 216}, {"note": 77, "velocity": 96, "duration": 170}, {"note": 0, "velocity": 0, "duration": 70}, {"note": 77, "velocity": 87, "duration": 186}, {"note": 84, "velocity": 105, "duration": 138}, {"note": 0, "velocity": 0, "duration": 102}, {"note": 84, "velocity": 97, "duration": 148}, {"note": 0, "velocity": 0, "duration": 92}, {"note": 84, "velocity": 99, "duration": 133}, {"note": 0, "velocity": 0, "duration": 107}, {"note": 80, "velocity": 95, "duration": 139}, {"note": 0, "velocity": 0, "duration": 101}, {"note": 73, "velocity": 97, "duration": 239}, {"note": 0, "velocity": 0, "duration": 241}, {"note": 73, "velocity": 109, "duration": 244}, {"note": 72, "velocity": 100, "duration": 237}, {"note": 70, "velocity": 87, "duration": 229}, {"note": 72, "velocity": 96, "duration": 212}, {"note": 73, "velocity": 95, "duration": 220}, {"note": 77, "velocity": 93, "duration": 231}, {"note": 75, "velocity": 99, "duration": 249}, {"note": 0, "velocity": 0, "duration": 231}, {"note": 77, "velocity": 106, "duration": 434}, {"note": 73, "velocity": 114, "duration": 1438}, {"note": 0, "velocity": 0, "duration": 13922}, {"note": 77, "velocity": 103, "duration": 222}, {"note": 75, "velocity": 91, "duration": 215}, {"note": 73, "velocity": 87, "duration": 51}, {"note": 77, "velocity": 93, "duration": 238}, {"note": 75, "velocity": 90, "duration": 534}, {"note": 0, "velocity": 0, "duration": 186}, {"note": 73, "velocity": 96, "duration": 138}, {"note": 72, "velocity": 85, "duration": 111}, {"note": 70, "velocity": 87, "duration": 257}, {"note": 72, "velocity": 91, "duration": 258}, {"note": 73, "velocity": 100, "duration": 266}, {"note": 75, "velocity": 98, "duration": 249}, {"note": 77, "velocity": 96, "duration": 731}, {"note": 0, "velocity": 0, "duration": 229}, {"note": 70, "velocity": 93, "duration": 215}, {"note": 72, "velocity": 90, "duration": 250}, {"note": 73, "velocity": 74, "duration": 67}, {"note": 75, "velocity": 90, "duration": 236}, {"note": 68, "velocity": 84, "duration": 457}, {"note": 77, "velocity": 90, "duration": 288}, {"note": 0, "velocity": 0, "duration": 72}, {"note": 77, "velocity": 86, "duration": 154}, {"note": 75, "velocity": 92, "duration": 259}, {"note": 73, "velocity": 84, "duration": 236}, {"note": 70, "velocity": 75, "duration": 250}, {"note": 73, "velocity": 98, "duration": 264}, {"note": 75, "velocity": 101, "duration": 829}, {"note": 0, "velocity": 0, "duration": 131}, {"note": 77, "velocity": 92, "duration": 215}, {"note": 75, "velocity": 93, "duration": 232}, {"note": 73, "velocity": 87, "duration": 238}, {"note": 77, "velocity": 91, "duration": 254}, {"note": 75, "velocity": 95, "duration": 682}, {"note": 73, "velocity": 89, "duration": 132}, {"note": 72, "velocity": 89, "duration": 119}, {"note": 70, "velocity": 81, "duration": 233}, {"note": 72, "velocity": 72, "duration": 261}, {"note": 73, "velocity": 89, "duration": 262}, {"note": 75, "velocity": 90, "duration": 265}, {"note": 77, "velocity": 90, "duration": 767}, {"note": 0, "velocity": 0, "duration": 193}, {"note": 70, "velocity": 91, "duration": 225}, {"note": 72, "velocity": 87, "duration": 248}, {"note": 73, "velocity": 87, "duration": 206}, {"note": 82, "velocity": 90, "duration": 249}, {"note": 80, "velocity": 98, "duration": 481}, {"note": 73, "velocity": 98, "duration": 284}, {"note": 0, "velocity": 0, "duration": 76}, {"note": 73, "velocity": 87, "duration": 135}, {"note": 78, "velocity": 87, "duration": 237}, {"note": 77, "velocity": 77, "duration": 228}, {"note": 78, "velocity": 96, "duration": 226}, {"note": 82, "velocity": 93, "duration": 251}, {"note": 80, "velocity": 98, "duration": 338}, {"note": 0, "velocity": 0, "duration": 142}, {"note": 77, "velocity": 109, "duration": 256}, {"note": 75, "velocity": 98, "duration": 224}, {"note": 73, "velocity": 90, "duration": 464}, {"note": 77, "velocity": 100, "duration": 228}, {"note": 82, "velocity": 93, "duration": 241}, {"note": 80, "velocity": 100, "duration": 326}, {"note": 0, "velocity": 0, "duration": 154}, {"note": 77, "velocity": 100, "duration": 214}, {"note": 75, "velocity": 101, "duration": 247}, {"note": 73, "velocity": 97, "duration": 239}, {"note": 70, "velocity": 91, "duration": 238}, {"note": 73, "velocity": 99, "duration": 241}, {"note": 75, "velocity": 97, "duration": 259}, {"note": 77, "velocity": 103, "duration": 283}, {"note": 0, "velocity": 0, "duration": 186}, {"note": 77, "velocity": 100, "duration": 70}, {"note": 0, "velocity": 0, "duration": 62}, {"note": 77, "velocity": 96, "duration": 215}, {"note": 84, "velocity": 103, "duration": 161}, {"note": 0, "velocity": 0, "duration": 79}, {"note": 84, "velocity": 96, "duration": 164}, {"note": 0, "velocity": 0, "duration": 76}, {"note": 84, "velocity": 93, "duration": 234}, {"note": 80, "velocity": 99, "duration": 232}, {"note": 73, "velocity": 99, "duration": 265}, {"note": 0, "velocity": 0, "duration": 215}, {"note": 73, "velocity": 109, "duration": 260}, {"note": 72, "velocity": 103, "duration": 234}, {"note": 70, "velocity": 93, "duration": 247}, {"note": 72, "velocity": 97, "duration": 246}, {"note": 73, "velocity": 96, "duration": 245}, {"note": 77, "velocity": 90, "duration": 238}, {"note": 75, "velocity": 94, "duration": 247}, {"note": 0, "velocity": 0, "duration": 233}, {"note": 77, "velocity": 101, "duration": 260}, {"note": 75, "velocity": 99, "duration": 242}, {"note": 73, "velocity": 89, "duration": 468}, {"note": 77, "velocity": 99, "duration": 233}, {"note": 82, "velocity": 93, "duration": 249}, {"note": 80, "velocity": 100, "duration": 293}, {"note": 0, "velocity": 0, "duration": 187}, {"note": 77, "velocity": 97, "duration": 271}, {"note": 80, "velocity": 98, "duration": 246}, {"note": 82, "velocity": 103, "duration": 169}, {"note": 0, "velocity": 0, "duration": 71}, {"note": 82, "velocity": 103, "duration": 228}, {"note": 80, "velocity": 95, "duration": 232}, {"note": 82, "velocity": 100, "duration": 236}, {"note": 77, "velocity": 96, "duration": 264}, {"note": 0, "velocity": 0, "duration": 216}, {"note": 77, "velocity": 96, "duration": 170}, {"note": 0, "velocity": 0, "duration": 70}, {"note": 77, "velocity": 87, "duration": 185}, {"note": 84, "velocity": 105, "duration": 138}, {"note": 0, "velocity": 0, "duration": 102}, {"note": 84, "velocity": 97, "duration": 147}, {"note": 0, "velocity": 0, "duration": 93}, {"note": 84, "velocity": 99, "duration": 133}, {"note": 0, "velocity": 0, "duration": 107}, {"note": 80, "velocity": 95, "duration": 139}, {"note": 0, "velocity": 0, "duration": 101}, {"note": 73, "velocity": 97, "duration": 238}, {"note": 0, "velocity": 0, "duration": 242}, {"note": 73, "velocity": 109, "duration": 244}, {"note": 72, "velocity": 100, "duration": 236}, {"note": 70, "velocity": 87, "duration": 229}, {"note": 72, "velocity": 96, "duration": 212}, {"note": 73, "velocity": 95, "duration": 221}, {"note": 77, "velocity": 93, "duration": 231}, {"note": 75, "velocity": 99, "duration": 249}, {"note": 0, "velocity": 0, "duration": 231}, {"note": 77, "velocity": 100, "duration": 240}, {"note": 77, "velocity": 106, "duration": 240}, {"note": 77, "velocity": 109, "duration": 240}, {"note": 75, "velocity": 98, "duration": 224}, {"note": 73, "velocity": 90, "duration": 484}, {"note": 73, "velocity": 100, "duration": 484}, {"note": 73, "velocity": 114, "duration": 484}, {"note": 77, "velocity": 100, "duration": 228}, {"note": 82, "velocity": 93, "duration": 241}, {"note": 80, "velocity": 100, "duration": 326}, {"note": 0, "velocity": 0, "duration": 154}, {"note": 77, "velocity": 100, "duration": 231}, {"note": 75, "velocity": 101, "duration": 233}, {"note": 73, "velocity": 97, "duration": 240}, {"note": 70, "velocity": 91, "duration": 232}, {"note": 73, "velocity": 99, "duration": 239}, {"note": 75, "velocity": 97, "duration": 273}, {"note": 77, "velocity": 103, "duration": 280}, {"note": 0, "velocity": 0, "duration": 171}, {"note": 77, "velocity": 100, "duration": 39}, {"note": 0, "velocity": 0, "duration": 61}, {"note": 77, "velocity": 96, "duration": 238}, {"note": 84, "velocity": 103, "duration": 185}, {"note": 84, "velocity": 96, "duration": 180}, {"note": 84, "velocity": 93, "duration": 251}, {"note": 80, "velocity": 99, "duration": 252}, {"note": 73, "velocity": 99, "duration": 280}, {"note": 0, "velocity": 0, "duration": 200}, {"note": 73, "velocity": 109, "duration": 260}, {"note": 72, "velocity": 103, "duration": 234}, {"note": 70, "velocity": 93, "duration": 247}, {"note": 72, "velocity": 97, "duration": 246}, {"note": 73, "velocity": 96, "duration": 245}, {"note": 77, "velocity": 90, "duration": 258}, {"note": 75, "velocity": 94, "duration": 247}, {"note": 0, "velocity": 0, "duration": 233}, {"note": 77, "velocity": 101, "duration": 260}, {"note": 75, "velocity": 99, "duration": 242}, {"note": 73, "velocity": 89, "duration": 468}, {"note": 77, "velocity": 99, "duration": 233}, {"note": 82, "velocity": 93, "duration": 249}, {"note": 80, "velocity": 100, "duration": 293}, {"note": 0, "velocity": 0, "duration": 187}, {"note": 77, "velocity": 97, "duration": 271}, {"note": 80, "velocity": 98, "duration": 246}, {"note": 82, "velocity": 103, "duration": 169}, {"note": 0, "velocity": 0, "duration": 71}, {"note": 82, "velocity": 103, "duration": 228}, {"note": 80, "velocity": 95, "duration": 232}, {"note": 82, "velocity": 100, "duration": 236}, {"note": 77, "velocity": 96, "duration": 264}, {"note": 0, "velocity": 0, "duration": 216}, {"note": 77, "velocity": 96, "duration": 170}, {"note": 0, "velocity": 0, "duration": 70}, {"note": 77, "velocity": 87, "duration": 185}, {"note": 84, "velocity": 105, "duration": 138}, {"note": 0, "velocity": 0, "duration": 102}, {"note": 84, "velocity": 97, "duration": 147}, {"note": 0, "velocity": 0, "duration": 93}, {"note": 84, "velocity": 99, "duration": 133}, {"note": 0, "velocity": 0, "duration": 107}, {"note": 80, "velocity": 95, "duration": 139}, {"note": 0, "velocity": 0, "duration": 101}, {"note": 73, "velocity": 97, "duration": 238}, {"note": 0, "velocity": 0, "duration": 242}, {"note": 73, "velocity": 109, "duration": 244}, {"note": 72, "velocity": 100, "duration": 236}, {"note": 70, "velocity": 87, "duration": 229}, {"note": 72, "velocity": 96, "duration": 212}, {"note": 73, "velocity": 95, "duration": 221}, {"note": 77, "velocity": 93, "duration": 231}, {"note": 75, "velocity": 99, "duration": 249}, {"note": 0, "velocity": 0, "duration": 231}, {"note": 77, "velocity": 105, "duration": 252}, {"note": 75, "velocity": 94, "duration": 245}, {"note": 73, "velocity": 92, "duration": 473}, {"note": 77, "velocity": 98, "duration": 225}, {"note": 82, "velocity": 90, "duration": 247}, {"note": 80, "velocity": 96, "duration": 305}, {"note": 0, "velocity": 0, "duration": 175}, {"note": 77, "velocity": 99, "duration": 252}, {"note": 75, "velocity": 91, "duration": 247}, {"note": 73, "velocity": 94, "duration": 206}, {"note": 70, "velocity": 91, "duration": 260}, {"note": 73, "velocity": 103, "duration": 247}, {"note": 75, "velocity": 98, "duration": 271}, {"note": 77, "velocity": 101, "duration": 291}, {"note": 0, "velocity": 0, "duration": 189}, {"note": 77, "velocity": 97, "duration": 176}, {"note": 0, "velocity": 0, "duration": 64}, {"note": 77, "velocity": 92, "duration": 214}, {"note": 84, "velocity": 101, "duration": 156}, {"note": 0, "velocity": 0, "duration": 84}, {"note": 84, "velocity": 96, "duration": 164}, {"note": 0, "velocity": 0, "duration": 76}, {"note": 84, "velocity": 97, "duration": 246}, {"note": 80, "velocity": 96, "duration": 243}, {"note": 73, "velocity": 95, "duration": 279}, {"note": 0, "velocity": 0, "duration": 201}, {"note": 73, "velocity": 101, "duration": 263}, {"note": 72, "velocity": 98, "duration": 220}, {"note": 70, "velocity": 91, "duration": 93}, {"note": 72, "velocity": 94, "duration": 144}, {"note": 73, "velocity": 97, "duration": 224}, {"note": 77, "velocity": 91, "duration": 73}, {"note": 75, "velocity": 100, "duration": 236}, {"note": 0, "velocity": 0, "duration": 116}, {"note": 77, "velocity": 105, "duration": 253}, {"note": 75, "velocity": 94, "duration": 245}, {"note": 73, "velocity": 92, "duration": 473}, {"note": 77, "velocity": 98, "duration": 224}, {"note": 82, "velocity": 90, "duration": 247}, {"note": 80, "velocity": 96, "duration": 304}, {"note": 0, "velocity": 0, "duration": 176}, {"note": 77, "velocity": 99, "duration": 251}, {"note": 75, "velocity": 91, "duration": 247}, {"note": 73, "velocity": 94, "duration": 205}, {"note": 70, "velocity": 91, "duration": 260}, {"note": 73, "velocity": 103, "duration": 248}, {"note": 75, "velocity": 98, "duration": 272}, {"note": 77, "velocity": 101, "duration": 291}, {"note": 0, "velocity": 0, "duration": 189}, {"note": 77, "velocity": 97, "duration": 176}, {"note": 0, "velocity": 0, "duration": 64}, {"note": 77, "velocity": 92, "duration": 214}, {"note": 84, "velocity": 101, "duration": 155}, {"note": 0, "velocity": 0, "duration": 85}, {"note": 84, "velocity": 96, "duration": 163}, {"note": 0, "velocity": 0, "duration": 77}, {"note": 84, "velocity": 97, "duration": 246}, {"note": 80, "velocity": 96, "duration": 243}, {"note": 73, "velocity": 95, "duration": 279}, {"note": 0, "velocity": 0, "duration": 201}, {"note": 73, "velocity": 101, "duration": 263}, {"note": 72, "velocity": 98, "duration": 220}, {"note": 70, "velocity": 91, "duration": 98}, {"note": 72, "velocity": 94, "duration": 149}, {"note": 73, "velocity": 97, "duration": 213}, {"note": 77, "velocity": 91, "duration": 62}, {"note": 75, "velocity": 100, "duration": 393}, {"note": 77, "velocity": 111, "duration": 460}, {"note": 73, "velocity": 100, "duration": 472}]]