[[{"note": 67, "velocity": 87, "duration": 495}, {"note": 72, "velocity": 91, "duration": 478}, {"note": 76, "velocity": 90, "duration": 464}, {"note": 74, "velocity": 97, "duration": 343}, {"note": 0, "velocity": 0, "duration": 377}, {"note": 77, "velocity": 90, "duration": 54}, {"note": 0, "velocity": 0, "duration": 66}, {"note": 77, "velocity": 87, "duration": 53}, {"note": 0, "velocity": 0, "duration": 67}, {"note": 77, "velocity": 90, "duration": 140}, {"note": 0, "velocity": 0, "duration": 100}, {"note": 76, "velocity": 87, "duration": 116}, {"note": 74, "velocity": 86, "duration": 337}, {"note": 72, "velocity": 66, "duration": 64}, {"note": 72, "velocity": 87, "duration": 467}, {"note": 0, "velocity": 0, "duration": 133}, {"note": 67, "velocity": 84, "duration": 479}, {"note": 72, "velocity": 101, "duration": 349}, {"note": 0, "velocity": 0, "duration": 131}, {"note": 71, "velocity": 97, "duration": 211}, {"note": 0, "velocity": 0, "duration": 269}, {"note": 69, "velocity": 97, "duration": 506}, {"note": 0, "velocity": 0, "duration": 214}, {"note": 69, "velocity": 74, "duration": 62}, {"note": 69, "velocity": 79, "duration": 62}, {"note": 69, "velocity": 77, "duration": 165}, {"note": 0, "velocity": 0, "duration": 75}, {"note": 67, "velocity": 68, "duration": 90}, {"note": 65, "velocity": 68, "duration": 263}, {"note": 64, "velocity": 58, "duration": 249}, {"note": 67, "velocity": 77, "duration": 539}, {"note": 0, "velocity": 0, "duration": 61}, {"note": 67, "velocity": 92, "duration": 533}, {"note": 72, "velocity": 86, "duration": 466}, {"note": 76, "velocity": 90, "duration": 496}, {"note": 74, "velocity": 106, "duration": 452}, {"note": 0, "velocity": 0, "duration": 268}, {"note": 77, "velocity": 105, "duration": 57}, {"note": 0, "velocity": 0, "duration": 63}, {"note": 77, "velocity": 95, "duration": 52}, {"note": 0, "velocity": 0, "duration": 68}, {"note": 77, "velocity": 100, "duration": 147}, {"note": 0, "velocity": 0, "duration": 93}, {"note": 76, "velocity": 106, "duration": 101}, {"note": 74, "velocity": 101, "duration": 239}, {"note": 72, "velocity": 90, "duration": 252}, {"note": 76, "velocity": 99, "duration": 521}, {"note": 0, "velocity": 0, "duration": 79}, {"note": 67, "velocity": 91, "duration": 508}, {"note": 72, "velocity": 103, "duration": 436}, {"note": 71, "velocity": 95, "duration": 504}, {"note": 69, "velocity": 101, "duration": 640}, {"note": 0, "velocity": 0, "duration": 80}, {"note": 72, "velocity": 98, "duration": 52}, {"note": 0, "velocity": 0, "duration": 68}, {"note": 72, "velocity": 97, "duration": 54}, {"note": 0, "velocity": 0, "duration": 66}, {"note": 72, "velocity": 93, "duration": 265}, {"note": 71, "velocity": 97, "duration": 143}, {"note": 72, "velocity": 96, "duration": 271}, {"note": 74, "velocity": 83, "duration": 235}, {"note": 76, "velocity": 97, "duration": 248}, {"note": 0, "velocity": 0, "duration": 112}, {"note": 69, "velocity": 90, "duration": 119}, {"note": 71, "velocity": 79, "duration": 115}, {"note": 72, "velocity": 93, "duration": 106}, {"note": 0, "velocity": 0, "duration": 134}, {"note": 69, "velocity": 90, "duration": 111}, {"note": 71, "velocity": 66, "duration": 155}, {"note": 72, "velocity": 96, "duration": 496}, {"note": 0, "velocity": 0, "duration": 704}, {"note": 67, "velocity": 61, "duration": 150}, {"note": 69, "velocity": 76, "duration": 144}, {"note": 71, "velocity": 83, "duration": 183}, {"note": 67, "velocity": 68, "duration": 132}, {"note": 69, "velocity": 66, "duration": 126}, {"note": 71, "velocity": 77, "duration": 139}, {"note": 69, "velocity": 66, "duration": 146}, {"note": 71, "velocity": 93, "duration": 247}, {"note": 0, "velocity": 0, "duration": 713}, {"note": 69, "velocity": 100, "duration": 163}, {"note": 0, "velocity": 0, "duration": 77}, {"note": 69, "velocity": 98, "duration": 226}, {"note": 71, "velocity": 97, "duration": 244}, {"note": 72, "velocity": 95, "duration": 244}, {"note": 74, "velocity": 91, "duration": 266}, {"note": 76, "velocity": 93, "duration": 198}, {"note": 77, "velocity": 94, "duration": 137}, {"note": 0, "velocity": 0, "duration": 103}, {"note": 76, "velocity": 101, "duration": 428}, {"note": 74, "velocity": 100, "duration": 111}, {"note": 0, "velocity": 0, "duration": 129}, {"note": 72, "velocity": 98, "duration": 546}, {"note": 0, "velocity": 0, "duration": 174}, {"note": 71, "velocity": 89, "duration": 538}, {"note": 0, "velocity": 0, "duration": 182}, {"note": 69, "velocity": 94, "duration": 140}, {"note": 71, "velocity": 90, "duration": 125}, {"note": 72, "velocity": 96, "duration": 147}, {"note": 0, "velocity": 0, "duration": 93}, {"note": 69, "velocity": 91, "duration": 126}, {"note": 71, "velocity": 82, "duration": 339}, {"note": 72, "velocity": 92, "duration": 666}, {"note": 0, "velocity": 0, "duration": 414}, {"note": 71, "velocity": 94, "duration": 97}, {"note": 72, "velocity": 90, "duration": 89}, {"note": 74, "velocity": 92, "duration": 153}, {"note": 0, "velocity": 0, "duration": 87}, {"note": 71, "velocity": 91, "duration": 88}, {"note": 72, "velocity": 94, "duration": 168}, {"note": 0, "velocity": 0, "duration": 72}, {"note": 74, "velocity": 97, "duration": 628}, {"note": 0, "velocity": 0, "duration": 452}, {"note": 74, "velocity": 103, "duration": 158}, {"note": 0, "velocity": 0, "duration": 82}, {"note": 74, "velocity": 96, "duration": 224}, {"note": 76, "velocity": 95, "duration": 262}, {"note": 77, "velocity": 99, "duration": 252}, {"note": 76, "velocity": 93, "duration": 233}, {"note": 74, "velocity": 93, "duration": 245}, {"note": 79, "velocity": 97, "duration": 343}, {"note": 0, "velocity": 0, "duration": 137}, {"note": 79, "velocity": 99, "duration": 243}, {"note": 81, "velocity": 106, "duration": 329}, {"note": 79, "velocity": 103, "duration": 1301}, {"note": 81, "velocity": 109, "duration": 1658}, {"note": 0, "velocity": 0, "duration": 742}, {"note": 81, "velocity": 109, "duration": 484}, {"note": 79, "velocity": 109, "duration": 471}, {"note": 78, "velocity": 99, "duration": 498}, {"note": 76, "velocity": 97, "duration": 641}, {"note": 0, "velocity": 0, "duration": 199}, {"note": 69, "velocity": 86, "duration": 107}, {"note": 81, "velocity": 90, "duration": 244}, {"note": 79, "velocity": 87, "duration": 148}, {"note": 78, "velocity": 98, "duration": 244}, {"note": 76, "velocity": 103, "duration": 356}, {"note": 74, "velocity": 97, "duration": 363}, {"note": 0, "velocity": 0, "duration": 117}, {"note": 81, "velocity": 97, "duration": 333}, {"note": 0, "velocity": 0, "duration": 147}, {"note": 74, "velocity": 106, "duration": 488}, {"note": 73, "velocity": 104, "duration": 472}, {"note": 71, "velocity": 98, "duration": 548}, {"note": 0, "velocity": 0, "duration": 172}, {"note": 79, "velocity": 95, "duration": 53}, {"note": 0, "velocity": 0, "duration": 67}, {"note": 79, "velocity": 105, "duration": 57}, {"note": 0, "velocity": 0, "duration": 63}, {"note": 79, "velocity": 99, "duration": 150}, {"note": 0, "velocity": 0, "duration": 90}, {"note": 79, "velocity": 95, "duration": 135}, {"note": 78, "velocity": 89, "duration": 248}, {"note": 79, "velocity": 93, "duration": 240}, {"note": 81, "velocity": 99, "duration": 832}, {"note": 81, "velocity": 105, "duration": 232}, {"note": 0, "velocity": 0, "duration": 248}, {"note": 79, "velocity": 109, "duration": 482}, {"note": 78, "velocity": 100, "duration": 478}, {"note": 76, "velocity": 101, "duration": 648}, {"note": 0, "velocity": 0, "duration": 72}, {"note": 69, "velocity": 71, "duration": 60}, {"note": 69, "velocity": 75, "duration": 68}, {"note": 81, "velocity": 90, "duration": 238}, {"note": 79, "velocity": 91, "duration": 139}, {"note": 78, "velocity": 97, "duration": 214}, {"note": 76, "velocity": 90, "duration": 345}, {"note": 74, "velocity": 90, "duration": 274}, {"note": 71, "velocity": 91, "duration": 120}, {"note": 73, "velocity": 95, "duration": 138}, {"note": 74, "velocity": 95, "duration": 239}, {"note": 71, "velocity": 93, "duration": 111}, {"note": 73, "velocity": 79, "duration": 124}, {"note": 74, "velocity": 97, "duration": 478}, {"note": 0, "velocity": 0, "duration": 242}, {"note": 71, "velocity": 77, "duration": 121}, {"note": 73, "velocity": 86, "duration": 136}, {"note": 74, "velocity": 97, "duration": 193}, {"note": 73, "velocity": 89, "duration": 87}, {"note": 74, "velocity": 91, "duration": 125}, {"note": 0, "velocity": 0, "duration": 115}, {"note": 83, "velocity": 101, "duration": 254}, {"note": 0, "velocity": 0, "duration": 106}, {"note": 81, "velocity": 103, "duration": 123}, {"note": 0, "velocity": 0, "duration": 117}, {"note": 73, "velocity": 98, "duration": 54}, {"note": 0, "velocity": 0, "duration": 66}, {"note": 73, "velocity": 93, "duration": 141}, {"note": 0, "velocity": 0, "duration": 99}, {"note": 76, "velocity": 89, "duration": 392}, {"note": 74, "velocity": 105, "duration": 1372}, {"note": 0, "velocity": 0, "duration": 18068}, {"note": 69, "velocity": 90, "duration": 119}, {"note": 71, "velocity": 79, "duration": 115}, {"note": 72, "velocity": 93, "duration": 115}, {"note": 0, "velocity": 0, "duration": 125}, {"note": 69, "velocity": 90, "duration": 111}, {"note": 71, "velocity": 66, "duration": 155}, {"note": 72, "velocity": 96, "duration": 496}, {"note": 0, "velocity": 0, "duration": 704}, {"note": 67, "velocity": 61, "duration": 149}, {"note": 69, "velocity": 76, "duration": 143}, {"note": 71, "velocity": 83, "duration": 183}, {"note": 67, "velocity": 68, "duration": 133}, {"note": 69, "velocity": 66, "duration": 127}, {"note": 71, "velocity": 77, "duration": 139}, {"note": 69, "velocity": 66, "duration": 146}, {"note": 71, "velocity": 93, "duration": 247}, {"note": 0, "velocity": 0, "duration": 713}, {"note": 69, "velocity": 100, "duration": 163}, {"note": 0, "velocity": 0, "duration": 77}, {"note": 69, "velocity": 98, "duration": 226}, {"note": 71, "velocity": 97, "duration": 243}, {"note": 72, "velocity": 95, "duration": 244}, {"note": 74, "velocity": 91, "duration": 266}, {"note": 76, "velocity": 93, "duration": 198}, {"note": 77, "velocity": 94, "duration": 137}, {"note": 0, "velocity": 0, "duration": 103}, {"note": 76, "velocity": 101, "duration": 428}, {"note": 74, "velocity": 100, "duration": 111}, {"note": 0, "velocity": 0, "duration": 129}, {"note": 72, "velocity": 98, "duration": 545}, {"note": 0, "velocity": 0, "duration": 175}, {"note": 71, "velocity": 89, "duration": 538}, {"note": 0, "velocity": 0, "duration": 182}, {"note": 69, "velocity": 94, "duration": 140}, {"note": 71, "velocity": 90, "duration": 126}, {"note": 72, "velocity": 96, "duration": 147}, {"note": 0, "velocity": 0, "duration": 93}, {"note": 69, "velocity": 91, "duration": 126}, {"note": 71, "velocity": 82, "duration": 339}, {"note": 72, "velocity": 92, "duration": 667}, {"note": 0, "velocity": 0, "duration": 413}, {"note": 71, "velocity": 94, "duration": 98}, {"note": 72, "velocity": 90, "duration": 90}, {"note": 74, "velocity": 92, "duration": 152}, {"note": 0, "velocity": 0, "duration": 88}, {"note": 71, "velocity": 91, "duration": 88}, {"note": 72, "velocity": 94, "duration": 168}, {"note": 0, "velocity": 0, "duration": 72}, {"note": 74, "velocity": 97, "duration": 628}, {"note": 0, "velocity": 0, "duration": 452}, {"note": 74, "velocity": 103, "duration": 158}, {"note": 0, "velocity": 0, "duration": 82}, {"note": 74, "velocity": 96, "duration": 225}, {"note": 76, "velocity": 95, "duration": 262}, {"note": 77, "velocity": 99, "duration": 252}, {"note": 76, "velocity": 93, "duration": 233}, {"note": 74, "velocity": 93, "duration": 245}, {"note": 79, "velocity": 97, "duration": 343}, {"note": 0, "velocity": 0, "duration": 137}, {"note": 81, "velocity": 99, "duration": 244}, {"note": 81, "velocity": 106, "duration": 4}, {"note": 0, "velocity": 0, "duration": 236}, {"note": 79, "velocity": 103, "duration": 854}, {"note": 76, "velocity": 100, "duration": 104}, {"note": 79, "velocity": 100, "duration": 121}, {"note": 81, "velocity": 109, "duration": 1781}, {"note": 0, "velocity": 0, "duration": 739}, {"note": 81, "velocity": 109, "duration": 483}, {"note": 79, "velocity": 109, "duration": 470}, {"note": 78, "velocity": 99, "duration": 497}, {"note": 76, "velocity": 97, "duration": 641}, {"note": 0, "velocity": 0, "duration": 199}, {"note": 69, "velocity": 86, "duration": 107}, {"note": 81, "velocity": 90, "duration": 243}, {"note": 79, "velocity": 87, "duration": 148}, {"note": 78, "velocity": 98, "duration": 244}, {"note": 76, "velocity": 103, "duration": 355}, {"note": 74, "velocity": 97, "duration": 363}, {"note": 0, "velocity": 0, "duration": 117}, {"note": 81, "velocity": 97, "duration": 333}, {"note": 0, "velocity": 0, "duration": 147}, {"note": 74, "velocity": 106, "duration": 489}, {"note": 73, "velocity": 104, "duration": 472}, {"note": 71, "velocity": 98, "duration": 547}, {"note": 0, "velocity": 0, "duration": 173}, {"note": 79, "velocity": 95, "duration": 53}, {"note": 0, "velocity": 0, "duration": 67}, {"note": 79, "velocity": 105, "duration": 57}, {"note": 0, "velocity": 0, "duration": 63}, {"note": 79, "velocity": 99, "duration": 150}, {"note": 0, "velocity": 0, "duration": 90}, {"note": 79, "velocity": 95, "duration": 135}, {"note": 78, "velocity": 89, "duration": 249}, {"note": 79, "velocity": 93, "duration": 240}, {"note": 81, "velocity": 99, "duration": 833}, {"note": 81, "velocity": 105, "duration": 233}, {"note": 0, "velocity": 0, "duration": 247}, {"note": 79, "velocity": 109, "duration": 482}, {"note": 78, "velocity": 100, "duration": 477}, {"note": 76, "velocity": 101, "duration": 647}, {"note": 0, "velocity": 0, "duration": 73}, {"note": 69, "velocity": 71, "duration": 60}, {"note": 69, "velocity": 75, "duration": 69}, {"note": 81, "velocity": 90, "duration": 238}, {"note": 79, "velocity": 91, "duration": 140}, {"note": 78, "velocity": 97, "duration": 214}, {"note": 76, "velocity": 90, "duration": 345}, {"note": 74, "velocity": 90, "duration": 273}, {"note": 71, "velocity": 91, "duration": 120}, {"note": 73, "velocity": 95, "duration": 138}, {"note": 74, "velocity": 95, "duration": 238}, {"note": 71, "velocity": 93, "duration": 111}, {"note": 73, "velocity": 79, "duration": 124}, {"note": 74, "velocity": 97, "duration": 478}, {"note": 0, "velocity": 0, "duration": 242}, {"note": 71, "velocity": 77, "duration": 120}, {"note": 73, "velocity": 86, "duration": 135}, {"note": 74, "velocity": 97, "duration": 193}, {"note": 73, "velocity": 89, "duration": 87}, {"note": 74, "velocity": 91, "duration": 125}, {"note": 0, "velocity": 0, "duration": 115}, {"note": 83, "velocity": 101, "duration": 254}, {"note": 0, "velocity": 0, "duration": 106}, {"note": 81, "velocity": 103, "duration": 123}, {"note": 0, "velocity": 0, "duration": 117}, {"note": 73, "velocity": 98, "duration": 54}, {"note": 0, "velocity": 0, "duration": 66}, {"note": 73, "velocity": 93, "duration": 140}, {"note": 0, "velocity": 0, "duration": 100}, {"note": 76, "velocity": 89, "duration": 392}, {"note": 74, "velocity": 105, "duration": 1372}, {"note": 0, "velocity": 0, "duration": 1028}, {"note": 81, "velocity": 109, "duration": 483}, {"note": 79, "velocity": 109, "duration": 471}, {"note": 78, "velocity": 99, "duration": 498}, {"note": 76, "velocity": 97, "duration": 641}, {"note": 0, "velocity": 0, "duration": 199}, {"note": 69, "velocity": 86, "duration": 107}, {"note": 81, "velocity": 90, "duration": 244}, {"note": 79, "velocity": 87, "duration": 148}, {"note": 78, "velocity": 98, "duration": 244}, {"note": 76, "velocity": 103, "duration": 356}, {"note": 74, "velocity": 97, "duration": 363}, {"note": 0, "velocity": 0, "duration": 117}, {"note": 81, "velocity": 97, "duration": 333}, {"note": 0, "velocity": 0, "duration": 147}, {"note": 74, "velocity": 106, "duration": 488}, {"note": 73, "velocity": 104, "duration": 472}, {"note": 71, "velocity": 98, "duration": 548}, {"note": 0, "velocity": 0, "duration": 172}, {"note": 79, "velocity": 95, "duration": 53}, {"note": 0, "velocity": 0, "duration": 67}, {"note": 79, "velocity": 105, "duration": 57}, {"note": 0, "velocity": 0, "duration": 63}, {"note": 79, "velocity": 99, "duration": 150}, {"note": 0, "velocity": 0, "duration": 90}, {"note": 79, "velocity": 95, "duration": 135}, {"note": 78, "velocity": 89, "duration": 248}, {"note": 79, "velocity": 93, "duration": 357}, {"note": 81, "velocity": 99, "duration": 701}, {"note": 81, "velocity": 105, "duration": 221}, {"note": 0, "velocity": 0, "duration": 259}, {"note": 79, "velocity": 109, "duration": 482}, {"note": 78, "velocity": 100, "duration": 478}, {"note": 76, "velocity": 101, "duration": 648}, {"note": 0, "velocity": 0, "duration": 72}, {"note": 69, "velocity": 71, "duration": 60}, {"note": 69, "velocity": 75, "duration": 68}, {"note": 81, "velocity": 90, "duration": 238}, {"note": 79, "velocity": 91, "duration": 139}, {"note": 78, "velocity": 97, "duration": 214}, {"note": 76, "velocity": 90, "duration": 345}, {"note": 74, "velocity": 90, "duration": 274}, {"note": 71, "velocity": 91, "duration": 120}, {"note": 73, "velocity": 95, "duration": 138}, {"note": 74, "velocity": 95, "duration": 239}, {"note": 71, "velocity": 93, "duration": 111}, {"note": 73, "velocity": 79, "duration": 124}, {"note": 74, "velocity": 97, "duration": 478}, {"note": 0, "velocity": 0, "duration": 242}, {"note": 71, "velocity": 77, "duration": 120}, {"note": 73, "velocity": 86, "duration": 136}, {"note": 74, "velocity": 97, "duration": 193}, {"note": 73, "velocity": 89, "duration": 87}, {"note": 74, "velocity": 91, "duration": 125}, {"note": 0, "velocity": 0, "duration": 115}, {"note": 83, "velocity": 101, "duration": 254}, {"note": 0, "velocity": 0, "duration": 106}, {"note": 81, "velocity": 103, "duration": 123}, {"note": 0, "velocity": 0, "duration": 117}, {"note": 73, "velocity": 98, "duration": 54}, {"note": 0, "velocity": 0, "duration": 66}, {"note": 73, "velocity": 93, "duration": 141}, {"note": 0, "velocity": 0, "duration": 99}, {"note": 76, "velocity": 89, "duration": 392}, {"note": 74, "velocity": 105, "duration": 1671}, {"note": 71, "velocity": 77, "duration": 120}, {"note": 73, "velocity": 86, "duration": 136}, {"note": 74, "velocity": 97, "duration": 193}, {"note": 73, "velocity": 89, "duration": 87}, {"note": 74, "velocity": 91, "duration": 125}, {"note": 0, "velocity": 0, "duration": 115}, {"note": 83, "velocity": 101, "duration": 254}, {"note": 0, "velocity": 0, "duration": 106}, {"note": 81, "velocity": 103, "duration": 123}, {"note": 0, "velocity": 0, "duration": 117}, {"note": 73, "velocity": 98, "duration": 54}, {"note": 0, "velocity": 0, "duration": 66}, {"note": 73, "velocity": 93, "duration": 140}, {"note": 0, "velocity": 0, "duration": 100}, {"note": 76, "velocity": 89, "duration": 392}, {"note": 74, "velocity": 105, "duration": 2003}]]