[[{"note": 67, "velocity": 96, "duration": 188}, {"note": 74, "velocity": 94, "duration": 101}, {"note": 72, "velocity": 80, "duration": 140}, {"note": 74, "velocity": 90, "duration": 233}, {"note": 67, "velocity": 84, "duration": 243}, {"note": 70, "velocity": 93, "duration": 196}, {"note": 67, "velocity": 85, "duration": 47}, {"note": 65, "velocity": 82, "duration": 126}, {"note": 67, "velocity": 90, "duration": 177}, {"note": 0, "velocity": 0, "duration": 302}, {"note": 67, "velocity": 94, "duration": 4}, {"note": 72, "velocity": 97, "duration": 60}, {"note": 72, "velocity": 94, "duration": 59}, {"note": 0, "velocity": 0, "duration": 61}, {"note": 72, "velocity": 98, "duration": 235}, {"note": 67, "velocity": 87, "duration": 223}, {"note": 70, "velocity": 86, "duration": 269}, {"note": 72, "velocity": 85, "duration": 120}, {"note": 74, "velocity": 87, "duration": 101}, {"note": 72, "velocity": 98, "duration": 274}, {"note": 0, "velocity": 0, "duration": 171}, {"note": 74, "velocity": 96, "duration": 218}, {"note": 79, "velocity": 96, "duration": 91}, {"note": 77, "velocity": 76, "duration": 147}, {"note": 79, "velocity": 95, "duration": 180}, {"note": 67, "velocity": 87, "duration": 185}, {"note": 70, "velocity": 97, "duration": 187}, {"note": 74, "velocity": 90, "duration": 221}, {"note": 72, "velocity": 101, "duration": 273}, {"note": 0, "velocity": 0, "duration": 207}, {"note": 72, "velocity": 91, "duration": 49}, {"note": 0, "velocity": 0, "duration": 71}, {"note": 72, "velocity": 85, "duration": 44}, {"note": 0, "velocity": 0, "duration": 76}, {"note": 72, "velocity": 87, "duration": 87}, {"note": 74, "velocity": 90, "duration": 60}, {"note": 77, "velocity": 90, "duration": 101}, {"note": 79, "velocity": 77, "duration": 132}, {"note": 72, "velocity": 93, "duration": 260}, {"note": 74, "velocity": 103, "duration": 292}, {"note": 0, "velocity": 0, "duration": 216}, {"note": 67, "velocity": 92, "duration": 159}, {"note": 74, "velocity": 101, "duration": 59}, {"note": 0, "velocity": 0, "duration": 61}, {"note": 74, "velocity": 95, "duration": 53}, {"note": 0, "velocity": 0, "duration": 67}, {"note": 74, "velocity": 91, "duration": 156}, {"note": 0, "velocity": 0, "duration": 84}, {"note": 67, "velocity": 84, "duration": 162}, {"note": 0, "velocity": 0, "duration": 78}, {"note": 70, "velocity": 91, "duration": 47}, {"note": 67, "velocity": 72, "duration": 130}, {"note": 65, "velocity": 72, "duration": 131}, {"note": 67, "velocity": 71, "duration": 312}, {"note": 0, "velocity": 0, "duration": 168}, {"note": 67, "velocity": 89, "duration": 202}, {"note": 72, "velocity": 93, "duration": 48}, {"note": 0, "velocity": 0, "duration": 72}, {"note": 72, "velocity": 87, "duration": 50}, {"note": 0, "velocity": 0, "duration": 70}, {"note": 72, "velocity": 87, "duration": 148}, {"note": 0, "velocity": 0, "duration": 92}, {"note": 67, "velocity": 71, "duration": 204}, {"note": 70, "velocity": 91, "duration": 172}, {"note": 0, "velocity": 0, "duration": 68}, {"note": 74, "velocity": 92, "duration": 154}, {"note": 0, "velocity": 0, "duration": 86}, {"note": 74, "velocity": 100, "duration": 284}, {"note": 0, "velocity": 0, "duration": 196}, {"note": 74, "velocity": 103, "duration": 164}, {"note": 0, "velocity": 0, "duration": 76}, {"note": 79, "velocity": 94, "duration": 87}, {"note": 77, "velocity": 82, "duration": 114}, {"note": 79, "velocity": 94, "duration": 161}, {"note": 0, "velocity": 0, "duration": 79}, {"note": 74, "velocity": 91, "duration": 148}, {"note": 0, "velocity": 0, "duration": 92}, {"note": 70, "velocity": 92, "duration": 220}, {"note": 74, "velocity": 97, "duration": 230}, {"note": 72, "velocity": 100, "duration": 303}, {"note": 0, "velocity": 0, "duration": 177}, {"note": 72, "velocity": 100, "duration": 44}, {"note": 0, "velocity": 0, "duration": 76}, {"note": 72, "velocity": 89, "duration": 41}, {"note": 0, "velocity": 0, "duration": 79}, {"note": 72, "velocity": 94, "duration": 57}, {"note": 0, "velocity": 0, "duration": 63}, {"note": 74, "velocity": 87, "duration": 62}, {"note": 77, "velocity": 93, "duration": 149}, {"note": 0, "velocity": 0, "duration": 91}, {"note": 65, "velocity": 91, "duration": 171}, {"note": 0, "velocity": 0, "duration": 69}, {"note": 67, "velocity": 98, "duration": 154}, {"note": 0, "velocity": 0, "duration": 224}, {"note": 74, "velocity": 103, "duration": 284}, {"note": 0, "velocity": 0, "duration": 76}, {"note": 74, "velocity": 91, "duration": 60}, {"note": 74, "velocity": 98, "duration": 167}, {"note": 0, "velocity": 0, "duration": 73}, {"note": 82, "velocity": 103, "duration": 167}, {"note": 0, "velocity": 0, "duration": 73}, {"note": 79, "velocity": 100, "duration": 689}, {"note": 0, "velocity": 0, "duration": 271}, {"note": 82, "velocity": 104, "duration": 50}, {"note": 0, "velocity": 0, "duration": 70}, {"note": 82, "velocity": 98, "duration": 141}, {"note": 0, "velocity": 0, "duration": 99}, {"note": 84, "velocity": 108, "duration": 52}, {"note": 0, "velocity": 0, "duration": 68}, {"note": 79, "velocity": 99, "duration": 170}, {"note": 0, "velocity": 0, "duration": 70}, {"note": 77, "velocity": 103, "duration": 165}, {"note": 0, "velocity": 0, "duration": 75}, {"note": 74, "velocity": 105, "duration": 549}, {"note": 0, "velocity": 0, "duration": 411}, {"note": 74, "velocity": 105, "duration": 319}, {"note": 0, "velocity": 0, "duration": 161}, {"note": 79, "velocity": 105, "duration": 133}, {"note": 0, "velocity": 0, "duration": 107}, {"note": 67, "velocity": 92, "duration": 146}, {"note": 0, "velocity": 0, "duration": 94}, {"note": 72, "velocity": 100, "duration": 159}, {"note": 74, "velocity": 100, "duration": 163}, {"note": 0, "velocity": 0, "duration": 77}, {"note": 72, "velocity": 99, "duration": 473}, {"note": 72, "velocity": 101, "duration": 55}, {"note": 0, "velocity": 0, "duration": 65}, {"note": 72, "velocity": 97, "duration": 141}, {"note": 0, "velocity": 0, "duration": 99}, {"note": 79, "velocity": 101, "duration": 54}, {"note": 0, "velocity": 0, "duration": 66}, {"note": 77, "velocity": 98, "duration": 167}, {"note": 0, "velocity": 0, "duration": 73}, {"note": 74, "velocity": 97, "duration": 105}, {"note": 72, "velocity": 90, "duration": 97}, {"note": 74, "velocity": 100, "duration": 247}, {"note": 0, "velocity": 0, "duration": 265}, {"note": 74, "velocity": 105, "duration": 282}, {"note": 0, "velocity": 0, "duration": 78}, {"note": 74, "velocity": 93, "duration": 60}, {"note": 74, "velocity": 97, "duration": 171}, {"note": 0, "velocity": 0, "duration": 69}, {"note": 82, "velocity": 109, "duration": 180}, {"note": 79, "velocity": 103, "duration": 639}, {"note": 0, "velocity": 0, "duration": 81}, {"note": 77, "velocity": 99, "duration": 121}, {"note": 79, "velocity": 97, "duration": 120}, {"note": 84, "velocity": 106, "duration": 352}, {"note": 82, "velocity": 100, "duration": 141}, {"note": 79, "velocity": 90, "duration": 233}, {"note": 77, "velocity": 97, "duration": 254}, {"note": 74, "velocity": 97, "duration": 164}, {"note": 0, "velocity": 0, "duration": 685}, {"note": 74, "velocity": 103, "duration": 381}, {"note": 79, "velocity": 61, "duration": 99}, {"note": 79, "velocity": 68, "duration": 204}, {"note": 74, "velocity": 76, "duration": 225}, {"note": 70, "velocity": 80, "duration": 227}, {"note": 74, "velocity": 79, "duration": 252}, {"note": 72, "velocity": 97, "duration": 313}, {"note": 0, "velocity": 0, "duration": 167}, {"note": 72, "velocity": 105, "duration": 67}, {"note": 72, "velocity": 95, "duration": 4}, {"note": 74, "velocity": 94, "duration": 124}, {"note": 77, "velocity": 91, "duration": 180}, {"note": 65, "velocity": 87, "duration": 250}, {"note": 67, "velocity": 98, "duration": 508}, {"note": 0, "velocity": 0, "duration": 15696}, {"note": 67, "velocity": 96, "duration": 188}, {"note": 74, "velocity": 94, "duration": 101}, {"note": 72, "velocity": 80, "duration": 140}, {"note": 74, "velocity": 90, "duration": 233}, {"note": 67, "velocity": 84, "duration": 243}, {"note": 70, "velocity": 93, "duration": 201}, {"note": 67, "velocity": 85, "duration": 52}, {"note": 65, "velocity": 82, "duration": 124}, {"note": 67, "velocity": 90, "duration": 176}, {"note": 0, "velocity": 0, "duration": 302}, {"note": 67, "velocity": 94, "duration": 8}, {"note": 72, "velocity": 97, "duration": 61}, {"note": 72, "velocity": 94, "duration": 60}, {"note": 72, "velocity": 98, "duration": 235}, {"note": 67, "velocity": 87, "duration": 223}, {"note": 70, "velocity": 86, "duration": 270}, {"note": 72, "velocity": 85, "duration": 120}, {"note": 74, "velocity": 87, "duration": 101}, {"note": 72, "velocity": 98, "duration": 279}, {"note": 0, "velocity": 0, "duration": 176}, {"note": 74, "velocity": 96, "duration": 218}, {"note": 79, "velocity": 96, "duration": 91}, {"note": 77, "velocity": 76, "duration": 147}, {"note": 79, "velocity": 95, "duration": 180}, {"note": 67, "velocity": 87, "duration": 185}, {"note": 70, "velocity": 97, "duration": 187}, {"note": 74, "velocity": 90, "duration": 221}, {"note": 72, "velocity": 101, "duration": 273}, {"note": 0, "velocity": 0, "duration": 207}, {"note": 72, "velocity": 91, "duration": 50}, {"note": 0, "velocity": 0, "duration": 70}, {"note": 72, "velocity": 85, "duration": 44}, {"note": 0, "velocity": 0, "duration": 76}, {"note": 72, "velocity": 87, "duration": 86}, {"note": 74, "velocity": 90, "duration": 59}, {"note": 0, "velocity": 0, "duration": 61}, {"note": 77, "velocity": 90, "duration": 101}, {"note": 79, "velocity": 77, "duration": 132}, {"note": 72, "velocity": 93, "duration": 260}, {"note": 74, "velocity": 103, "duration": 297}, {"note": 0, "velocity": 0, "duration": 216}, {"note": 67, "velocity": 92, "duration": 164}, {"note": 74, "velocity": 101, "duration": 58}, {"note": 0, "velocity": 0, "duration": 62}, {"note": 74, "velocity": 95, "duration": 52}, {"note": 0, "velocity": 0, "duration": 68}, {"note": 74, "velocity": 91, "duration": 156}, {"note": 0, "velocity": 0, "duration": 84}, {"note": 67, "velocity": 84, "duration": 162}, {"note": 0, "velocity": 0, "duration": 78}, {"note": 70, "velocity": 91, "duration": 51}, {"note": 67, "velocity": 72, "duration": 130}, {"note": 65, "velocity": 72, "duration": 131}, {"note": 67, "velocity": 71, "duration": 311}, {"note": 0, "velocity": 0, "duration": 169}, {"note": 67, "velocity": 89, "duration": 202}, {"note": 72, "velocity": 93, "duration": 48}, {"note": 0, "velocity": 0, "duration": 72}, {"note": 72, "velocity": 87, "duration": 51}, {"note": 0, "velocity": 0, "duration": 69}, {"note": 72, "velocity": 87, "duration": 148}, {"note": 0, "velocity": 0, "duration": 92}, {"note": 67, "velocity": 71, "duration": 204}, {"note": 70, "velocity": 91, "duration": 171}, {"note": 0, "velocity": 0, "duration": 69}, {"note": 74, "velocity": 92, "duration": 155}, {"note": 0, "velocity": 0, "duration": 85}, {"note": 74, "velocity": 100, "duration": 284}, {"note": 0, "velocity": 0, "duration": 196}, {"note": 74, "velocity": 103, "duration": 164}, {"note": 0, "velocity": 0, "duration": 76}, {"note": 79, "velocity": 94, "duration": 87}, {"note": 77, "velocity": 82, "duration": 114}, {"note": 79, "velocity": 94, "duration": 161}, {"note": 0, "velocity": 0, "duration": 79}, {"note": 74, "velocity": 91, "duration": 148}, {"note": 0, "velocity": 0, "duration": 92}, {"note": 70, "velocity": 92, "duration": 220}, {"note": 74, "velocity": 97, "duration": 230}, {"note": 72, "velocity": 100, "duration": 303}, {"note": 0, "velocity": 0, "duration": 177}, {"note": 72, "velocity": 100, "duration": 44}, {"note": 0, "velocity": 0, "duration": 76}, {"note": 72, "velocity": 89, "duration": 41}, {"note": 0, "velocity": 0, "duration": 79}, {"note": 72, "velocity": 94, "duration": 57}, {"note": 0, "velocity": 0, "duration": 63}, {"note": 74, "velocity": 87, "duration": 62}, {"note": 77, "velocity": 93, "duration": 149}, {"note": 0, "velocity": 0, "duration": 91}, {"note": 65, "velocity": 91, "duration": 172}, {"note": 0, "velocity": 0, "duration": 68}, {"note": 67, "velocity": 98, "duration": 158}, {"note": 0, "velocity": 0, "duration": 224}, {"note": 74, "velocity": 103, "duration": 284}, {"note": 0, "velocity": 0, "duration": 76}, {"note": 74, "velocity": 91, "duration": 61}, {"note": 74, "velocity": 98, "duration": 167}, {"note": 0, "velocity": 0, "duration": 73}, {"note": 82, "velocity": 103, "duration": 167}, {"note": 0, "velocity": 0, "duration": 73}, {"note": 79, "velocity": 100, "duration": 689}, {"note": 0, "velocity": 0, "duration": 271}, {"note": 82, "velocity": 104, "duration": 50}, {"note": 0, "velocity": 0, "duration": 70}, {"note": 82, "velocity": 98, "duration": 141}, {"note": 0, "velocity": 0, "duration": 99}, {"note": 84, "velocity": 108, "duration": 53}, {"note": 0, "velocity": 0, "duration": 67}, {"note": 79, "velocity": 99, "duration": 170}, {"note": 0, "velocity": 0, "duration": 70}, {"note": 77, "velocity": 103, "duration": 166}, {"note": 0, "velocity": 0, "duration": 74}, {"note": 74, "velocity": 105, "duration": 549}, {"note": 0, "velocity": 0, "duration": 411}, {"note": 74, "velocity": 105, "duration": 319}, {"note": 0, "velocity": 0, "duration": 161}, {"note": 79, "velocity": 105, "duration": 133}, {"note": 0, "velocity": 0, "duration": 107}, {"note": 67, "velocity": 92, "duration": 146}, {"note": 0, "velocity": 0, "duration": 94}, {"note": 72, "velocity": 100, "duration": 160}, {"note": 74, "velocity": 100, "duration": 163}, {"note": 0, "velocity": 0, "duration": 77}, {"note": 72, "velocity": 99, "duration": 473}, {"note": 72, "velocity": 101, "duration": 56}, {"note": 0, "velocity": 0, "duration": 64}, {"note": 72, "velocity": 97, "duration": 141}, {"note": 0, "velocity": 0, "duration": 99}, {"note": 79, "velocity": 101, "duration": 54}, {"note": 0, "velocity": 0, "duration": 66}, {"note": 77, "velocity": 98, "duration": 167}, {"note": 0, "velocity": 0, "duration": 73}, {"note": 74, "velocity": 97, "duration": 105}, {"note": 72, "velocity": 90, "duration": 97}, {"note": 74, "velocity": 100, "duration": 252}, {"note": 0, "velocity": 0, "duration": 265}, {"note": 74, "velocity": 105, "duration": 282}, {"note": 0, "velocity": 0, "duration": 78}, {"note": 74, "velocity": 93, "duration": 59}, {"note": 0, "velocity": 0, "duration": 61}, {"note": 74, "velocity": 97, "duration": 171}, {"note": 0, "velocity": 0, "duration": 69}, {"note": 82, "velocity": 109, "duration": 180}, {"note": 79, "velocity": 103, "duration": 639}, {"note": 0, "velocity": 0, "duration": 81}, {"note": 77, "velocity": 99, "duration": 121}, {"note": 79, "velocity": 97, "duration": 120}, {"note": 84, "velocity": 106, "duration": 352}, {"note": 82, "velocity": 100, "duration": 142}, {"note": 79, "velocity": 90, "duration": 234}, {"note": 77, "velocity": 97, "duration": 254}, {"note": 74, "velocity": 97, "duration": 168}, {"note": 0, "velocity": 0, "duration": 686}, {"note": 74, "velocity": 103, "duration": 380}, {"note": 79, "velocity": 61, "duration": 99}, {"note": 79, "velocity": 68, "duration": 204}, {"note": 74, "velocity": 76, "duration": 224}, {"note": 70, "velocity": 80, "duration": 227}, {"note": 74, "velocity": 79, "duration": 252}, {"note": 72, "velocity": 97, "duration": 313}, {"note": 0, "velocity": 0, "duration": 167}, {"note": 72, "velocity": 105, "duration": 67}, {"note": 72, "velocity": 95, "duration": 9}, {"note": 74, "velocity": 94, "duration": 124}, {"note": 77, "velocity": 91, "duration": 180}, {"note": 65, "velocity": 87, "duration": 250}, {"note": 67, "velocity": 98, "duration": 513}, {"note": 0, "velocity": 0, "duration": 336}, {"note": 74, "velocity": 103, "duration": 284}, {"note": 0, "velocity": 0, "duration": 76}, {"note": 74, "velocity": 91, "duration": 60}, {"note": 74, "velocity": 98, "duration": 167}, {"note": 0, "velocity": 0, "duration": 73}, {"note": 82, "velocity": 103, "duration": 167}, {"note": 0, "velocity": 0, "duration": 73}, {"note": 79, "velocity": 100, "duration": 689}, {"note": 0, "velocity": 0, "duration": 271}, {"note": 82, "velocity": 104, "duration": 49}, {"note": 0, "velocity": 0, "duration": 71}, {"note": 82, "velocity": 98, "duration": 141}, {"note": 0, "velocity": 0, "duration": 99}, {"note": 84, "velocity": 108, "duration": 52}, {"note": 0, "velocity": 0, "duration": 68}, {"note": 79, "velocity": 99, "duration": 170}, {"note": 0, "velocity": 0, "duration": 70}, {"note": 77, "velocity": 103, "duration": 165}, {"note": 0, "velocity": 0, "duration": 75}, {"note": 74, "velocity": 105, "duration": 549}, {"note": 0, "velocity": 0, "duration": 411}, {"note": 74, "velocity": 105, "duration": 318}, {"note": 0, "velocity": 0, "duration": 162}, {"note": 79, "velocity": 105, "duration": 133}, {"note": 0, "velocity": 0, "duration": 107}, {"note": 67, "velocity": 92, "duration": 146}, {"note": 0, "velocity": 0, "duration": 94}, {"note": 72, "velocity": 100, "duration": 159}, {"note": 74, "velocity": 100, "duration": 163}, {"note": 0, "velocity": 0, "duration": 77}, {"note": 72, "velocity": 99, "duration": 473}, {"note": 72, "velocity": 101, "duration": 55}, {"note": 0, "velocity": 0, "duration": 65}, {"note": 72, "velocity": 97, "duration": 141}, {"note": 0, "velocity": 0, "duration": 99}, {"note": 79, "velocity": 101, "duration": 54}, {"note": 0, "velocity": 0, "duration": 66}, {"note": 77, "velocity": 98, "duration": 167}, {"note": 0, "velocity": 0, "duration": 73}, {"note": 74, "velocity": 97, "duration": 105}, {"note": 72, "velocity": 90, "duration": 167}, {"note": 74, "velocity": 100, "duration": 252}, {"note": 0, "velocity": 0, "duration": 315}, {"note": 74, "velocity": 105, "duration": 282}, {"note": 0, "velocity": 0, "duration": 78}, {"note": 74, "velocity": 93, "duration": 60}, {"note": 74, "velocity": 97, "duration": 171}, {"note": 0, "velocity": 0, "duration": 69}, {"note": 82, "velocity": 109, "duration": 180}, {"note": 79, "velocity": 103, "duration": 639}, {"note": 0, "velocity": 0, "duration": 81}, {"note": 77, "velocity": 99, "duration": 121}, {"note": 79, "velocity": 97, "duration": 120}, {"note": 84, "velocity": 106, "duration": 352}, {"note": 82, "velocity": 100, "duration": 141}, {"note": 79, "velocity": 90, "duration": 233}, {"note": 77, "velocity": 97, "duration": 253}, {"note": 74, "velocity": 97, "duration": 175}, {"note": 0, "velocity": 0, "duration": 685}, {"note": 74, "velocity": 103, "duration": 381}, {"note": 79, "velocity": 61, "duration": 99}, {"note": 79, "velocity": 68, "duration": 204}, {"note": 74, "velocity": 76, "duration": 225}, {"note": 70, "velocity": 80, "duration": 228}, {"note": 74, "velocity": 79, "duration": 252}, {"note": 72, "velocity": 97, "duration": 314}, {"note": 0, "velocity": 0, "duration": 166}, {"note": 72, "velocity": 105, "duration": 67}, {"note": 72, "velocity": 95, "duration": 12}, {"note": 79, "velocity": 94, "duration": 144}, {"note": 77, "velocity": 91, "duration": 137}, {"note": 0, "velocity": 0, "duration": 103}, {"note": 72, "velocity": 87, "duration": 251}, {"note": 74, "velocity": 98, "duration": 521}, {"note": 0, "velocity": 0, "duration": 336}, {"note": 74, "velocity": 103, "duration": 284}, {"note": 0, "velocity": 0, "duration": 76}, {"note": 74, "velocity": 91, "duration": 60}, {"note": 74, "velocity": 98, "duration": 167}, {"note": 0, "velocity": 0, "duration": 73}, {"note": 82, "velocity": 103, "duration": 166}, {"note": 0, "velocity": 0, "duration": 74}, {"note": 79, "velocity": 100, "duration": 689}, {"note": 0, "velocity": 0, "duration": 271}, {"note": 82, "velocity": 104, "duration": 50}, {"note": 0, "velocity": 0, "duration": 70}, {"note": 82, "velocity": 98, "duration": 142}, {"note": 0, "velocity": 0, "duration": 98}, {"note": 84, "velocity": 108, "duration": 52}, {"note": 0, "velocity": 0, "duration": 68}, {"note": 79, "velocity": 99, "duration": 170}, {"note": 0, "velocity": 0, "duration": 70}, {"note": 77, "velocity": 103, "duration": 166}, {"note": 0, "velocity": 0, "duration": 74}, {"note": 74, "velocity": 105, "duration": 550}, {"note": 0, "velocity": 0, "duration": 410}, {"note": 74, "velocity": 105, "duration": 319}, {"note": 0, "velocity": 0, "duration": 161}, {"note": 79, "velocity": 105, "duration": 132}, {"note": 0, "velocity": 0, "duration": 108}, {"note": 67, "velocity": 92, "duration": 147}, {"note": 0, "velocity": 0, "duration": 93}, {"note": 72, "velocity": 100, "duration": 160}, {"note": 74, "velocity": 100, "duration": 154}, {"note": 0, "velocity": 0, "duration": 78}, {"note": 72, "velocity": 99, "duration": 473}, {"note": 72, "velocity": 101, "duration": 56}, {"note": 0, "velocity": 0, "duration": 64}, {"note": 72, "velocity": 97, "duration": 142}, {"note": 0, "velocity": 0, "duration": 98}, {"note": 79, "velocity": 101, "duration": 55}, {"note": 0, "velocity": 0, "duration": 65}, {"note": 77, "velocity": 98, "duration": 168}, {"note": 0, "velocity": 0, "duration": 72}, {"note": 74, "velocity": 97, "duration": 105}, {"note": 72, "velocity": 90, "duration": 96}, {"note": 74, "velocity": 100, "duration": 230}, {"note": 0, "velocity": 0, "duration": 266}, {"note": 74, "velocity": 105, "duration": 282}, {"note": 0, "velocity": 0, "duration": 78}, {"note": 74, "velocity": 93, "duration": 59}, {"note": 0, "velocity": 0, "duration": 61}, {"note": 74, "velocity": 97, "duration": 172}, {"note": 0, "velocity": 0, "duration": 68}, {"note": 82, "velocity": 109, "duration": 179}, {"note": 0, "velocity": 0, "duration": 61}, {"note": 79, "velocity": 103, "duration": 640}, {"note": 0, "velocity": 0, "duration": 80}, {"note": 77, "velocity": 99, "duration": 122}, {"note": 79, "velocity": 97, "duration": 120}, {"note": 84, "velocity": 106, "duration": 353}, {"note": 82, "velocity": 100, "duration": 141}, {"note": 79, "velocity": 90, "duration": 233}, {"note": 77, "velocity": 97, "duration": 253}, {"note": 74, "velocity": 97, "duration": 150}, {"note": 0, "velocity": 0, "duration": 686}, {"note": 74, "velocity": 103, "duration": 357}, {"note": 79, "velocity": 61, "duration": 144}, {"note": 79, "velocity": 68, "duration": 24}, {"note": 0, "velocity": 0, "duration": 216}, {"note": 74, "velocity": 76, "duration": 225}, {"note": 70, "velocity": 80, "duration": 227}, {"note": 74, "velocity": 79, "duration": 252}, {"note": 72, "velocity": 97, "duration": 313}, {"note": 0, "velocity": 0, "duration": 167}, {"note": 72, "velocity": 105, "duration": 68}, {"note": 72, "velocity": 95, "duration": 52}, {"note": 74, "velocity": 94, "duration": 123}, {"note": 77, "velocity": 91, "duration": 181}, {"note": 65, "velocity": 87, "duration": 250}, {"note": 67, "velocity": 98, "duration": 494}, {"note": 0, "velocity": 0, "duration": 336}, {"note": 72, "velocity": 87, "duration": 156}, {"note": 0, "velocity": 0, "duration": 84}, {"note": 72, "velocity": 91, "duration": 462}, {"note": 0, "velocity": 0, "duration": 92}, {"note": 74, "velocity": 94, "duration": 246}, {"note": 77, "velocity": 101, "duration": 477}, {"note": 65, "velocity": 72, "duration": 568}, {"note": 0, "velocity": 0, "duration": 752}, {"note": 67, "velocity": 72, "duration": 1998}]]