[[{"note": 81, "velocity": 84, "duration": 401}, {"note": 0, "velocity": 0, "duration": 79}, {"note": 81, "velocity": 95, "duration": 243}, {"note": 79, "velocity": 91, "duration": 266}, {"note": 77, "velocity": 98, "duration": 506}, {"note": 0, "velocity": 0, "duration": 115}, {"note": 84, "velocity": 97, "duration": 195}, {"note": 81, "velocity": 86, "duration": 163}, {"note": 0, "velocity": 0, "duration": 77}, {"note": 81, "velocity": 94, "duration": 232}, {"note": 72, "velocity": 87, "duration": 31}, {"note": 74, "velocity": 87, "duration": 359}, {"note": 0, "velocity": 0, "duration": 601}, {"note": 74, "velocity": 97, "duration": 118}, {"note": 0, "velocity": 0, "duration": 63}, {"note": 74, "velocity": 90, "duration": 263}, {"note": 77, "velocity": 91, "duration": 249}, {"note": 79, "velocity": 68, "duration": 427}, {"note": 0, "velocity": 0, "duration": 505}, {"note": 74, "velocity": 54, "duration": 132}, {"note": 81, "velocity": 54, "duration": 84}, {"note": 79, "velocity": 54, "duration": 121}, {"note": 77, "velocity": 60, "duration": 140}, {"note": 79, "velocity": 66, "duration": 263}, {"note": 81, "velocity": 54, "duration": 77}, {"note": 81, "velocity": 63, "duration": 84}, {"note": 79, "velocity": 48, "duration": 95}, {"note": 0, "velocity": 0, "duration": 357}, {"note": 81, "velocity": 93, "duration": 362}, {"note": 0, "velocity": 0, "duration": 118}, {"note": 81, "velocity": 97, "duration": 234}, {"note": 84, "velocity": 96, "duration": 110}, {"note": 86, "velocity": 90, "duration": 256}, {"note": 0, "velocity": 0, "duration": 104}, {"note": 84, "velocity": 95, "duration": 379}, {"note": 0, "velocity": 0, "duration": 341}, {"note": 86, "velocity": 95, "duration": 56}, {"note": 0, "velocity": 0, "duration": 64}, {"note": 86, "velocity": 84, "duration": 143}, {"note": 0, "velocity": 0, "duration": 97}, {"note": 84, "velocity": 84, "duration": 53}, {"note": 0, "velocity": 0, "duration": 67}, {"note": 84, "velocity": 80, "duration": 203}, {"note": 81, "velocity": 66, "duration": 50}, {"note": 0, "velocity": 0, "duration": 70}, {"note": 81, "velocity": 77, "duration": 172}, {"note": 0, "velocity": 0, "duration": 68}, {"note": 81, "velocity": 79, "duration": 475}, {"note": 0, "velocity": 0, "duration": 365}, {"note": 72, "velocity": 90, "duration": 505}, {"note": 74, "velocity": 97, "duration": 199}, {"note": 81, "velocity": 90, "duration": 226}, {"note": 79, "velocity": 89, "duration": 550}, {"note": 0, "velocity": 0, "duration": 410}, {"note": 81, "velocity": 105, "duration": 237}, {"note": 79, "velocity": 95, "duration": 1212}, {"note": 0, "velocity": 0, "duration": 274}, {"note": 81, "velocity": 101, "duration": 339}, {"note": 0, "velocity": 0, "duration": 141}, {"note": 81, "velocity": 98, "duration": 235}, {"note": 79, "velocity": 95, "duration": 222}, {"note": 77, "velocity": 99, "duration": 513}, {"note": 0, "velocity": 0, "duration": 447}, {"note": 84, "velocity": 106, "duration": 201}, {"note": 81, "velocity": 97, "duration": 174}, {"note": 0, "velocity": 0, "duration": 66}, {"note": 81, "velocity": 97, "duration": 208}, {"note": 72, "velocity": 87, "duration": 275}, {"note": 74, "velocity": 98, "duration": 802}, {"note": 0, "velocity": 0, "duration": 158}, {"note": 74, "velocity": 100, "duration": 375}, {"note": 0, "velocity": 0, "duration": 105}, {"note": 74, "velocity": 93, "duration": 201}, {"note": 77, "velocity": 97, "duration": 260}, {"note": 79, "velocity": 105, "duration": 673}, {"note": 0, "velocity": 0, "duration": 287}, {"note": 72, "velocity": 90, "duration": 122}, {"note": 81, "velocity": 89, "duration": 130}, {"note": 79, "velocity": 85, "duration": 120}, {"note": 77, "velocity": 82, "duration": 120}, {"note": 79, "velocity": 89, "duration": 186}, {"note": 81, "velocity": 79, "duration": 72}, {"note": 81, "velocity": 93, "duration": 80}, {"note": 79, "velocity": 66, "duration": 94}, {"note": 0, "velocity": 0, "duration": 362}, {"note": 81, "velocity": 93, "duration": 85}, {"note": 0, "velocity": 0, "duration": 96}, {"note": 81, "velocity": 91, "duration": 219}, {"note": 84, "velocity": 87, "duration": 147}, {"note": 86, "velocity": 90, "duration": 297}, {"note": 0, "velocity": 0, "duration": 63}, {"note": 84, "velocity": 89, "duration": 487}, {"note": 86, "velocity": 96, "duration": 52}, {"note": 0, "velocity": 0, "duration": 68}, {"note": 86, "velocity": 90, "duration": 46}, {"note": 86, "velocity": 82, "duration": 135}, {"note": 84, "velocity": 79, "duration": 63}, {"note": 84, "velocity": 79, "duration": 230}, {"note": 81, "velocity": 69, "duration": 145}, {"note": 0, "velocity": 0, "duration": 95}, {"note": 81, "velocity": 84, "duration": 155}, {"note": 0, "velocity": 0, "duration": 340}, {"note": 72, "velocity": 95, "duration": 396}, {"note": 0, "velocity": 0, "duration": 84}, {"note": 74, "velocity": 98, "duration": 226}, {"note": 81, "velocity": 63, "duration": 122}, {"note": 81, "velocity": 90, "duration": 2}, {"note": 0, "velocity": 0, "duration": 238}, {"note": 79, "velocity": 65, "duration": 76}, {"note": 0, "velocity": 0, "duration": 397}, {"note": 81, "velocity": 97, "duration": 254}, {"note": 79, "velocity": 87, "duration": 730}, {"note": 0, "velocity": 0, "duration": 132}, {"note": 79, "velocity": 89, "duration": 111}, {"note": 77, "velocity": 90, "duration": 117}, {"note": 74, "velocity": 79, "duration": 238}, {"note": 77, "velocity": 90, "duration": 174}, {"note": 0, "velocity": 0, "duration": 66}, {"note": 77, "velocity": 91, "duration": 1291}, {"note": 0, "velocity": 0, "duration": 149}, {"note": 72, "velocity": 94, "duration": 118}, {"note": 74, "velocity": 82, "duration": 114}, {"note": 77, "velocity": 92, "duration": 96}, {"note": 79, "velocity": 86, "duration": 90}, {"note": 81, "velocity": 87, "duration": 106}, {"note": 84, "velocity": 87, "duration": 12}, {"note": 81, "velocity": 93, "duration": 369}, {"note": 0, "velocity": 0, "duration": 111}, {"note": 77, "velocity": 92, "duration": 134}, {"note": 79, "velocity": 87, "duration": 126}, {"note": 81, "velocity": 83, "duration": 105}, {"note": 84, "velocity": 90, "duration": 95}, {"note": 86, "velocity": 90, "duration": 714}, {"note": 84, "velocity": 106, "duration": 232}, {"note": 81, "velocity": 106, "duration": 428}, {"note": 81, "velocity": 95, "duration": 83}, {"note": 84, "velocity": 94, "duration": 76}, {"note": 86, "velocity": 90, "duration": 93}, {"note": 89, "velocity": 92, "duration": 64}, {"note": 89, "velocity": 90, "duration": 612}, {"note": 0, "velocity": 0, "duration": 108}, {"note": 89, "velocity": 99, "duration": 130}, {"note": 86, "velocity": 94, "duration": 95}, {"note": 89, "velocity": 100, "duration": 98}, {"note": 86, "velocity": 99, "duration": 215}, {"note": 81, "velocity": 90, "duration": 219}, {"note": 86, "velocity": 95, "duration": 126}, {"note": 84, "velocity": 99, "duration": 315}, {"note": 0, "velocity": 0, "duration": 493}, {"note": 72, "velocity": 96, "duration": 85}, {"note": 74, "velocity": 89, "duration": 110}, {"note": 77, "velocity": 93, "duration": 106}, {"note": 79, "velocity": 84, "duration": 110}, {"note": 81, "velocity": 84, "duration": 255}, {"note": 84, "velocity": 100, "duration": 121}, {"note": 81, "velocity": 105, "duration": 316}, {"note": 0, "velocity": 0, "duration": 164}, {"note": 77, "velocity": 98, "duration": 114}, {"note": 79, "velocity": 87, "duration": 116}, {"note": 81, "velocity": 86, "duration": 87}, {"note": 84, "velocity": 87, "duration": 2}, {"note": 86, "velocity": 80, "duration": 577}, {"note": 84, "velocity": 90, "duration": 211}, {"note": 81, "velocity": 84, "duration": 363}, {"note": 0, "velocity": 0, "duration": 117}, {"note": 72, "velocity": 87, "duration": 116}, {"note": 74, "velocity": 77, "duration": 106}, {"note": 77, "velocity": 89, "duration": 130}, {"note": 81, "velocity": 90, "duration": 135}, {"note": 79, "velocity": 95, "duration": 665}, {"note": 79, "velocity": 96, "duration": 110}, {"note": 77, "velocity": 85, "duration": 123}, {"note": 79, "velocity": 87, "duration": 210}, {"note": 72, "velocity": 90, "duration": 274}, {"note": 74, "velocity": 89, "duration": 224}, {"note": 77, "velocity": 86, "duration": 256}, {"note": 0, "velocity": 0, "duration": 224}, {"note": 77, "velocity": 97, "duration": 1199}, {"note": 0, "velocity": 0, "duration": 15485}, {"note": 81, "velocity": 84, "duration": 402}, {"note": 0, "velocity": 0, "duration": 78}, {"note": 81, "velocity": 95, "duration": 242}, {"note": 79, "velocity": 91, "duration": 265}, {"note": 77, "velocity": 98, "duration": 505}, {"note": 0, "velocity": 0, "duration": 111}, {"note": 84, "velocity": 97, "duration": 176}, {"note": 81, "velocity": 86, "duration": 163}, {"note": 0, "velocity": 0, "duration": 77}, {"note": 81, "velocity": 94, "duration": 232}, {"note": 72, "velocity": 87, "duration": 267}, {"note": 74, "velocity": 87, "duration": 356}, {"note": 0, "velocity": 0, "duration": 601}, {"note": 74, "velocity": 97, "duration": 124}, {"note": 74, "velocity": 90, "duration": 263}, {"note": 77, "velocity": 91, "duration": 250}, {"note": 79, "velocity": 68, "duration": 423}, {"note": 0, "velocity": 0, "duration": 506}, {"note": 74, "velocity": 54, "duration": 132}, {"note": 81, "velocity": 54, "duration": 84}, {"note": 79, "velocity": 54, "duration": 121}, {"note": 77, "velocity": 60, "duration": 139}, {"note": 79, "velocity": 66, "duration": 262}, {"note": 81, "velocity": 54, "duration": 77}, {"note": 81, "velocity": 63, "duration": 80}, {"note": 79, "velocity": 48, "duration": 92}, {"note": 0, "velocity": 0, "duration": 357}, {"note": 81, "velocity": 93, "duration": 362}, {"note": 0, "velocity": 0, "duration": 118}, {"note": 81, "velocity": 97, "duration": 234}, {"note": 84, "velocity": 96, "duration": 110}, {"note": 86, "velocity": 90, "duration": 346}, {"note": 84, "velocity": 95, "duration": 391}, {"note": 0, "velocity": 0, "duration": 329}, {"note": 86, "velocity": 95, "duration": 56}, {"note": 0, "velocity": 0, "duration": 64}, {"note": 86, "velocity": 100, "duration": 69}, {"note": 86, "velocity": 84, "duration": 108}, {"note": 84, "velocity": 84, "duration": 52}, {"note": 0, "velocity": 0, "duration": 68}, {"note": 84, "velocity": 80, "duration": 202}, {"note": 81, "velocity": 66, "duration": 50}, {"note": 0, "velocity": 0, "duration": 190}, {"note": 81, "velocity": 77, "duration": 485}, {"note": 0, "velocity": 0, "duration": 475}, {"note": 74, "velocity": 90, "duration": 464}, {"note": 74, "velocity": 97, "duration": 198}, {"note": 81, "velocity": 90, "duration": 118}, {"note": 81, "velocity": 90, "duration": 172}, {"note": 79, "velocity": 89, "duration": 532}, {"note": 0, "velocity": 0, "duration": 428}, {"note": 81, "velocity": 105, "duration": 236}, {"note": 79, "velocity": 95, "duration": 718}, {"note": 0, "velocity": 0, "duration": 362}, {"note": 79, "velocity": 100, "duration": 157}, {"note": 77, "velocity": 100, "duration": 146}, {"note": 74, "velocity": 100, "duration": 99}, {"note": 77, "velocity": 100, "duration": 164}, {"note": 0, "velocity": 0, "duration": 196}, {"note": 77, "velocity": 100, "duration": 825}, {"note": 0, "velocity": 0, "duration": 495}, {"note": 72, "velocity": 94, "duration": 118}, {"note": 74, "velocity": 82, "duration": 115}, {"note": 77, "velocity": 92, "duration": 96}, {"note": 79, "velocity": 86, "duration": 90}, {"note": 81, "velocity": 87, "duration": 103}, {"note": 84, "velocity": 87, "duration": 9}, {"note": 81, "velocity": 93, "duration": 369}, {"note": 0, "velocity": 0, "duration": 111}, {"note": 77, "velocity": 92, "duration": 134}, {"note": 79, "velocity": 87, "duration": 127}, {"note": 81, "velocity": 83, "duration": 106}, {"note": 84, "velocity": 90, "duration": 94}, {"note": 86, "velocity": 90, "duration": 713}, {"note": 84, "velocity": 106, "duration": 232}, {"note": 81, "velocity": 106, "duration": 428}, {"note": 81, "velocity": 95, "duration": 84}, {"note": 84, "velocity": 94, "duration": 76}, {"note": 86, "velocity": 90, "duration": 94}, {"note": 89, "velocity": 92, "duration": 65}, {"note": 89, "velocity": 90, "duration": 612}, {"note": 0, "velocity": 0, "duration": 108}, {"note": 89, "velocity": 99, "duration": 129}, {"note": 86, "velocity": 94, "duration": 95}, {"note": 89, "velocity": 100, "duration": 96}, {"note": 86, "velocity": 99, "duration": 214}, {"note": 81, "velocity": 90, "duration": 219}, {"note": 86, "velocity": 95, "duration": 127}, {"note": 84, "velocity": 99, "duration": 308}, {"note": 0, "velocity": 0, "duration": 500}, {"note": 72, "velocity": 96, "duration": 85}, {"note": 74, "velocity": 89, "duration": 110}, {"note": 77, "velocity": 93, "duration": 107}, {"note": 79, "velocity": 84, "duration": 110}, {"note": 81, "velocity": 84, "duration": 254}, {"note": 84, "velocity": 100, "duration": 119}, {"note": 81, "velocity": 105, "duration": 316}, {"note": 0, "velocity": 0, "duration": 164}, {"note": 77, "velocity": 98, "duration": 136}, {"note": 79, "velocity": 87, "duration": 116}, {"note": 81, "velocity": 86, "duration": 87}, {"note": 84, "velocity": 87, "duration": 0}, {"note": 86, "velocity": 80, "duration": 574}, {"note": 84, "velocity": 90, "duration": 211}, {"note": 81, "velocity": 84, "duration": 362}, {"note": 0, "velocity": 0, "duration": 118}, {"note": 72, "velocity": 87, "duration": 117}, {"note": 74, "velocity": 77, "duration": 106}, {"note": 77, "velocity": 89, "duration": 130}, {"note": 81, "velocity": 90, "duration": 136}, {"note": 79, "velocity": 95, "duration": 665}, {"note": 79, "velocity": 96, "duration": 111}, {"note": 77, "velocity": 85, "duration": 123}, {"note": 79, "velocity": 87, "duration": 209}, {"note": 72, "velocity": 90, "duration": 336}, {"note": 74, "velocity": 89, "duration": 118}, {"note": 77, "velocity": 86, "duration": 416}, {"note": 0, "velocity": 0, "duration": 64}, {"note": 77, "velocity": 97, "duration": 657}, {"note": 0, "velocity": 0, "duration": 185}, {"note": 72, "velocity": 94, "duration": 118}, {"note": 74, "velocity": 82, "duration": 115}, {"note": 77, "velocity": 92, "duration": 96}, {"note": 79, "velocity": 86, "duration": 90}, {"note": 81, "velocity": 87, "duration": 99}, {"note": 84, "velocity": 87, "duration": 221}, {"note": 81, "velocity": 93, "duration": 367}, {"note": 0, "velocity": 0, "duration": 111}, {"note": 77, "velocity": 92, "duration": 134}, {"note": 79, "velocity": 87, "duration": 127}, {"note": 81, "velocity": 83, "duration": 106}, {"note": 84, "velocity": 90, "duration": 94}, {"note": 86, "velocity": 90, "duration": 713}, {"note": 84, "velocity": 106, "duration": 232}, {"note": 81, "velocity": 106, "duration": 428}, {"note": 81, "velocity": 95, "duration": 84}, {"note": 84, "velocity": 94, "duration": 76}, {"note": 86, "velocity": 90, "duration": 93}, {"note": 89, "velocity": 92, "duration": 64}, {"note": 89, "velocity": 90, "duration": 612}, {"note": 0, "velocity": 0, "duration": 108}, {"note": 89, "velocity": 99, "duration": 130}, {"note": 86, "velocity": 94, "duration": 95}, {"note": 89, "velocity": 100, "duration": 92}, {"note": 86, "velocity": 99, "duration": 215}, {"note": 81, "velocity": 90, "duration": 218}, {"note": 86, "velocity": 95, "duration": 127}, {"note": 84, "velocity": 99, "duration": 304}, {"note": 0, "velocity": 0, "duration": 500}, {"note": 72, "velocity": 96, "duration": 85}, {"note": 74, "velocity": 89, "duration": 111}, {"note": 77, "velocity": 93, "duration": 107}, {"note": 79, "velocity": 84, "duration": 110}, {"note": 81, "velocity": 84, "duration": 250}, {"note": 84, "velocity": 100, "duration": 115}, {"note": 81, "velocity": 105, "duration": 316}, {"note": 0, "velocity": 0, "duration": 164}, {"note": 77, "velocity": 98, "duration": 136}, {"note": 79, "velocity": 87, "duration": 116}, {"note": 81, "velocity": 86, "duration": 87}, {"note": 84, "velocity": 87, "duration": 120}, {"note": 86, "velocity": 80, "duration": 571}, {"note": 84, "velocity": 90, "duration": 211}, {"note": 81, "velocity": 84, "duration": 363}, {"note": 0, "velocity": 0, "duration": 117}, {"note": 72, "velocity": 87, "duration": 117}, {"note": 74, "velocity": 77, "duration": 106}, {"note": 77, "velocity": 89, "duration": 130}, {"note": 81, "velocity": 90, "duration": 136}, {"note": 79, "velocity": 95, "duration": 665}, {"note": 79, "velocity": 96, "duration": 111}, {"note": 77, "velocity": 85, "duration": 123}, {"note": 79, "velocity": 87, "duration": 209}, {"note": 72, "velocity": 90, "duration": 336}, {"note": 74, "velocity": 89, "duration": 254}, {"note": 77, "velocity": 86, "duration": 441}, {"note": 77, "velocity": 97, "duration": 826}, {"note": 72, "velocity": 96, "duration": 85}, {"note": 74, "velocity": 89, "duration": 110}, {"note": 77, "velocity": 93, "duration": 144}, {"note": 79, "velocity": 84, "duration": 110}, {"note": 81, "velocity": 84, "duration": 259}, {"note": 84, "velocity": 100, "duration": 124}, {"note": 81, "velocity": 105, "duration": 316}, {"note": 0, "velocity": 0, "duration": 164}, {"note": 77, "velocity": 98, "duration": 137}, {"note": 79, "velocity": 87, "duration": 116}, {"note": 81, "velocity": 86, "duration": 87}, {"note": 84, "velocity": 87, "duration": 5}, {"note": 86, "velocity": 80, "duration": 580}, {"note": 84, "velocity": 90, "duration": 211}, {"note": 81, "velocity": 84, "duration": 362}, {"note": 0, "velocity": 0, "duration": 118}, {"note": 72, "velocity": 87, "duration": 117}, {"note": 74, "velocity": 77, "duration": 106}, {"note": 77, "velocity": 89, "duration": 130}, {"note": 81, "velocity": 90, "duration": 136}, {"note": 79, "velocity": 95, "duration": 665}, {"note": 79, "velocity": 96, "duration": 111}, {"note": 77, "velocity": 85, "duration": 123}, {"note": 79, "velocity": 87, "duration": 209}, {"note": 72, "velocity": 90, "duration": 336}, {"note": 74, "velocity": 89, "duration": 259}, {"note": 77, "velocity": 86, "duration": 217}, {"note": 77, "velocity": 97, "duration": 1569}]]