[[{"note": 73, "velocity": 64, "duration": 139}, {"note": 78, "velocity": 81, "duration": 264}, {"note": 80, "velocity": 86, "duration": 270}, {"note": 77, "velocity": 90, "duration": 376}, {"note": 0, "velocity": 0, "duration": 344}, {"note": 75, "velocity": 68, "duration": 117}, {"note": 77, "velocity": 68, "duration": 147}, {"note": 78, "velocity": 87, "duration": 366}, {"note": 77, "velocity": 87, "duration": 371}, {"note": 70, "velocity": 66, "duration": 221}, {"note": 73, "velocity": 80, "duration": 193}, {"note": 75, "velocity": 86, "duration": 538}, {"note": 0, "velocity": 0, "duration": 62}, {"note": 78, "velocity": 92, "duration": 196}, {"note": 75, "velocity": 87, "duration": 237}, {"note": 73, "velocity": 66, "duration": 583}, {"note": 0, "velocity": 0, "duration": 137}, {"note": 73, "velocity": 82, "duration": 51}, {"note": 0, "velocity": 0, "duration": 69}, {"note": 73, "velocity": 67, "duration": 72}, {"note": 77, "velocity": 93, "duration": 345}, {"note": 73, "velocity": 87, "duration": 265}, {"note": 0, "velocity": 0, "duration": 95}, {"note": 73, "velocity": 87, "duration": 121}, {"note": 0, "velocity": 0, "duration": 119}, {"note": 71, "velocity": 74, "duration": 182}, {"note": 70, "velocity": 65, "duration": 420}, {"note": 0, "velocity": 0, "duration": 1020}, {"note": 70, "velocity": 80, "duration": 114}, {"note": 73, "velocity": 72, "duration": 149}, {"note": 75, "velocity": 96, "duration": 347}, {"note": 78, "velocity": 69, "duration": 160}, {"note": 80, "velocity": 72, "duration": 260}, {"note": 78, "velocity": 87, "duration": 230}, {"note": 75, "velocity": 67, "duration": 231}, {"note": 82, "velocity": 95, "duration": 267}, {"note": 80, "velocity": 97, "duration": 243}, {"note": 78, "velocity": 97, "duration": 209}, {"note": 0, "velocity": 0, "duration": 271}, {"note": 73, "velocity": 87, "duration": 223}, {"note": 82, "velocity": 98, "duration": 245}, {"note": 80, "velocity": 96, "duration": 275}, {"note": 78, "velocity": 105, "duration": 645}, {"note": 0, "velocity": 0, "duration": 315}, {"note": 75, "velocity": 108, "duration": 1109}, {"note": 77, "velocity": 93, "duration": 350}, {"note": 73, "velocity": 82, "duration": 386}, {"note": 77, "velocity": 95, "duration": 236}, {"note": 78, "velocity": 93, "duration": 802}, {"note": 0, "velocity": 0, "duration": 1478}, {"note": 73, "velocity": 64, "duration": 139}, {"note": 78, "velocity": 81, "duration": 264}, {"note": 80, "velocity": 86, "duration": 270}, {"note": 77, "velocity": 90, "duration": 376}, {"note": 0, "velocity": 0, "duration": 344}, {"note": 75, "velocity": 68, "duration": 117}, {"note": 77, "velocity": 68, "duration": 147}, {"note": 78, "velocity": 87, "duration": 366}, {"note": 77, "velocity": 87, "duration": 371}, {"note": 70, "velocity": 66, "duration": 220}, {"note": 73, "velocity": 80, "duration": 193}, {"note": 75, "velocity": 86, "duration": 538}, {"note": 0, "velocity": 0, "duration": 62}, {"note": 78, "velocity": 92, "duration": 196}, {"note": 75, "velocity": 87, "duration": 237}, {"note": 73, "velocity": 66, "duration": 583}, {"note": 0, "velocity": 0, "duration": 137}, {"note": 73, "velocity": 82, "duration": 51}, {"note": 0, "velocity": 0, "duration": 69}, {"note": 73, "velocity": 67, "duration": 72}, {"note": 77, "velocity": 93, "duration": 223}, {"note": 73, "velocity": 87, "duration": 204}, {"note": 73, "velocity": 87, "duration": 121}, {"note": 0, "velocity": 0, "duration": 119}, {"note": 71, "velocity": 74, "duration": 182}, {"note": 70, "velocity": 65, "duration": 420}, {"note": 0, "velocity": 0, "duration": 1260}, {"note": 70, "velocity": 83, "duration": 106}, {"note": 73, "velocity": 90, "duration": 84}, {"note": 75, "velocity": 93, "duration": 487}, {"note": 78, "velocity": 87, "duration": 916}, {"note": 80, "velocity": 98, "duration": 231}, {"note": 78, "velocity": 93, "duration": 132}, {"note": 80, "velocity": 90, "duration": 154}, {"note": 82, "velocity": 106, "duration": 876}, {"note": 80, "velocity": 106, "duration": 248}, {"note": 78, "velocity": 111, "duration": 517}, {"note": 0, "velocity": 0, "duration": 203}, {"note": 73, "velocity": 96, "duration": 136}, {"note": 75, "velocity": 91, "duration": 112}, {"note": 78, "velocity": 108, "duration": 266}, {"note": 0, "velocity": 0, "duration": 94}, {"note": 75, "velocity": 106, "duration": 658}, {"note": 0, "velocity": 0, "duration": 302}, {"note": 73, "velocity": 127, "duration": 255}, {"note": 75, "velocity": 75, "duration": 128}, {"note": 78, "velocity": 86, "duration": 132}, {"note": 75, "velocity": 85, "duration": 125}, {"note": 80, "velocity": 90, "duration": 1446}, {"note": 70, "velocity": 98, "duration": 256}, {"note": 71, "velocity": 103, "duration": 249}, {"note": 73, "velocity": 100, "duration": 686}, {"note": 0, "velocity": 0, "duration": 154}, {"note": 82, "velocity": 93, "duration": 159}, {"note": 80, "velocity": 92, "duration": 248}, {"note": 78, "velocity": 98, "duration": 241}, {"note": 70, "velocity": 92, "duration": 173}, {"note": 73, "velocity": 87, "duration": 370}, {"note": 75, "velocity": 97, "duration": 705}, {"note": 0, "velocity": 0, "duration": 135}, {"note": 82, "velocity": 101, "duration": 126}, {"note": 80, "velocity": 96, "duration": 359}, {"note": 78, "velocity": 99, "duration": 500}, {"note": 0, "velocity": 0, "duration": 340}, {"note": 73, "velocity": 77, "duration": 104}, {"note": 80, "velocity": 84, "duration": 67}, {"note": 80, "velocity": 92, "duration": 214}, {"note": 73, "velocity": 85, "duration": 205}, {"note": 80, "velocity": 96, "duration": 312}, {"note": 82, "velocity": 100, "duration": 362}, {"note": 85, "velocity": 84, "duration": 257}, {"note": 82, "velocity": 97, "duration": 763}, {"note": 0, "velocity": 0, "duration": 677}, {"note": 82, "velocity": 99, "duration": 262}, {"note": 80, "velocity": 95, "duration": 249}, {"note": 75, "velocity": 90, "duration": 241}, {"note": 82, "velocity": 98, "duration": 253}, {"note": 80, "velocity": 90, "duration": 239}, {"note": 78, "velocity": 90, "duration": 255}, {"note": 80, "velocity": 95, "duration": 326}, {"note": 75, "velocity": 87, "duration": 367}, {"note": 0, "velocity": 0, "duration": 473}, {"note": 73, "velocity": 77, "duration": 184}, {"note": 82, "velocity": 87, "duration": 233}, {"note": 80, "velocity": 64, "duration": 62}, {"note": 80, "velocity": 87, "duration": 264}, {"note": 78, "velocity": 81, "duration": 569}, {"note": 73, "velocity": 87, "duration": 133}, {"note": 75, "velocity": 79, "duration": 114}, {"note": 78, "velocity": 101, "duration": 254}, {"note": 0, "velocity": 0, "duration": 106}, {"note": 78, "velocity": 93, "duration": 56}, {"note": 0, "velocity": 0, "duration": 64}, {"note": 78, "velocity": 96, "duration": 160}, {"note": 0, "velocity": 0, "duration": 80}, {"note": 80, "velocity": 90, "duration": 170}, {"note": 82, "velocity": 90, "duration": 316}, {"note": 80, "velocity": 84, "duration": 150}, {"note": 0, "velocity": 0, "duration": 90}, {"note": 80, "velocity": 91, "duration": 175}, {"note": 0, "velocity": 0, "duration": 65}, {"note": 78, "velocity": 90, "duration": 158}, {"note": 0, "velocity": 0, "duration": 82}, {"note": 85, "velocity": 93, "duration": 308}, {"note": 80, "velocity": 83, "duration": 773}, {"note": 0, "velocity": 0, "duration": 307}, {"note": 70, "velocity": 93, "duration": 274}, {"note": 71, "velocity": 93, "duration": 266}, {"note": 73, "velocity": 96, "duration": 485}, {"note": 0, "velocity": 0, "duration": 355}, {"note": 82, "velocity": 93, "duration": 147}, {"note": 80, "velocity": 92, "duration": 247}, {"note": 78, "velocity": 93, "duration": 148}, {"note": 0, "velocity": 0, "duration": 92}, {"note": 70, "velocity": 91, "duration": 241}, {"note": 73, "velocity": 98, "duration": 361}, {"note": 75, "velocity": 105, "duration": 405}, {"note": 0, "velocity": 0, "duration": 435}, {"note": 82, "velocity": 74, "duration": 159}, {"note": 80, "velocity": 91, "duration": 370}, {"note": 78, "velocity": 91, "duration": 511}, {"note": 0, "velocity": 0, "duration": 329}, {"note": 73, "velocity": 72, "duration": 87}, {"note": 80, "velocity": 79, "duration": 61}, {"note": 80, "velocity": 94, "duration": 170}, {"note": 0, "velocity": 0, "duration": 70}, {"note": 82, "velocity": 96, "duration": 156}, {"note": 0, "velocity": 0, "duration": 84}, {"note": 85, "velocity": 90, "duration": 240}, {"note": 0, "velocity": 0, "duration": 120}, {"note": 82, "velocity": 93, "duration": 276}, {"note": 0, "velocity": 0, "duration": 84}, {"note": 80, "velocity": 98, "duration": 176}, {"note": 0, "velocity": 0, "duration": 64}, {"note": 82, "velocity": 103, "duration": 1126}, {"note": 0, "velocity": 0, "duration": 314}, {"note": 82, "velocity": 101, "duration": 248}, {"note": 80, "velocity": 93, "duration": 232}, {"note": 75, "velocity": 93, "duration": 220}, {"note": 82, "velocity": 100, "duration": 271}, {"note": 80, "velocity": 93, "duration": 240}, {"note": 78, "velocity": 93, "duration": 249}, {"note": 80, "velocity": 98, "duration": 361}, {"note": 75, "velocity": 92, "duration": 533}, {"note": 0, "velocity": 0, "duration": 307}, {"note": 82, "velocity": 100, "duration": 154}, {"note": 0, "velocity": 0, "duration": 86}, {"note": 82, "velocity": 105, "duration": 387}, {"note": 77, "velocity": 87, "duration": 255}, {"note": 78, "velocity": 96, "duration": 411}, {"note": 0, "velocity": 0, "duration": 189}, {"note": 73, "velocity": 90, "duration": 136}, {"note": 75, "velocity": 91, "duration": 93}, {"note": 78, "velocity": 100, "duration": 333}, {"note": 75, "velocity": 105, "duration": 617}, {"note": 78, "velocity": 100, "duration": 288}, {"note": 0, "velocity": 0, "duration": 72}, {"note": 75, "velocity": 103, "duration": 341}, {"note": 73, "velocity": 90, "duration": 261}, {"note": 82, "velocity": 100, "duration": 345}, {"note": 80, "velocity": 98, "duration": 627}, {"note": 0, "velocity": 0, "duration": 93}, {"note": 80, "velocity": 105, "duration": 362}, {"note": 75, "velocity": 98, "duration": 353}, {"note": 80, "velocity": 97, "duration": 220}, {"note": 78, "velocity": 91, "duration": 1525}, {"note": 0, "velocity": 0, "duration": 15275}, {"note": 70, "velocity": 98, "duration": 256}, {"note": 71, "velocity": 103, "duration": 250}, {"note": 73, "velocity": 100, "duration": 685}, {"note": 0, "velocity": 0, "duration": 155}, {"note": 82, "velocity": 93, "duration": 159}, {"note": 80, "velocity": 92, "duration": 247}, {"note": 78, "velocity": 98, "duration": 241}, {"note": 70, "velocity": 92, "duration": 173}, {"note": 73, "velocity": 87, "duration": 370}, {"note": 75, "velocity": 97, "duration": 704}, {"note": 0, "velocity": 0, "duration": 136}, {"note": 82, "velocity": 101, "duration": 126}, {"note": 80, "velocity": 96, "duration": 359}, {"note": 78, "velocity": 99, "duration": 500}, {"note": 0, "velocity": 0, "duration": 340}, {"note": 73, "velocity": 77, "duration": 103}, {"note": 80, "velocity": 84, "duration": 67}, {"note": 80, "velocity": 92, "duration": 215}, {"note": 73, "velocity": 85, "duration": 205}, {"note": 80, "velocity": 96, "duration": 311}, {"note": 82, "velocity": 100, "duration": 362}, {"note": 85, "velocity": 84, "duration": 257}, {"note": 82, "velocity": 97, "duration": 763}, {"note": 0, "velocity": 0, "duration": 677}, {"note": 82, "velocity": 99, "duration": 262}, {"note": 80, "velocity": 95, "duration": 250}, {"note": 75, "velocity": 90, "duration": 241}, {"note": 82, "velocity": 98, "duration": 254}, {"note": 80, "velocity": 90, "duration": 239}, {"note": 78, "velocity": 90, "duration": 255}, {"note": 80, "velocity": 95, "duration": 327}, {"note": 75, "velocity": 87, "duration": 387}, {"note": 0, "velocity": 0, "duration": 453}, {"note": 73, "velocity": 77, "duration": 184}, {"note": 82, "velocity": 87, "duration": 233}, {"note": 80, "velocity": 87, "duration": 419}, {"note": 78, "velocity": 81, "duration": 695}, {"note": 73, "velocity": 87, "duration": 133}, {"note": 75, "velocity": 79, "duration": 113}, {"note": 78, "velocity": 101, "duration": 253}, {"note": 0, "velocity": 0, "duration": 107}, {"note": 78, "velocity": 93, "duration": 55}, {"note": 0, "velocity": 0, "duration": 65}, {"note": 78, "velocity": 96, "duration": 160}, {"note": 0, "velocity": 0, "duration": 80}, {"note": 80, "velocity": 90, "duration": 170}, {"note": 82, "velocity": 90, "duration": 317}, {"note": 80, "velocity": 84, "duration": 150}, {"note": 0, "velocity": 0, "duration": 90}, {"note": 80, "velocity": 91, "duration": 174}, {"note": 0, "velocity": 0, "duration": 66}, {"note": 78, "velocity": 90, "duration": 158}, {"note": 0, "velocity": 0, "duration": 82}, {"note": 85, "velocity": 93, "duration": 308}, {"note": 80, "velocity": 83, "duration": 860}, {"note": 0, "velocity": 0, "duration": 340}, {"note": 70, "velocity": 93, "duration": 274}, {"note": 71, "velocity": 93, "duration": 266}, {"note": 73, "velocity": 96, "duration": 485}, {"note": 0, "velocity": 0, "duration": 355}, {"note": 82, "velocity": 93, "duration": 147}, {"note": 80, "velocity": 92, "duration": 247}, {"note": 78, "velocity": 93, "duration": 148}, {"note": 0, "velocity": 0, "duration": 92}, {"note": 70, "velocity": 91, "duration": 240}, {"note": 73, "velocity": 98, "duration": 361}, {"note": 75, "velocity": 105, "duration": 404}, {"note": 0, "velocity": 0, "duration": 436}, {"note": 82, "velocity": 74, "duration": 159}, {"note": 80, "velocity": 91, "duration": 370}, {"note": 78, "velocity": 91, "duration": 511}, {"note": 0, "velocity": 0, "duration": 329}, {"note": 73, "velocity": 72, "duration": 87}, {"note": 80, "velocity": 79, "duration": 62}, {"note": 80, "velocity": 94, "duration": 170}, {"note": 0, "velocity": 0, "duration": 70}, {"note": 82, "velocity": 96, "duration": 156}, {"note": 0, "velocity": 0, "duration": 84}, {"note": 85, "velocity": 90, "duration": 240}, {"note": 0, "velocity": 0, "duration": 120}, {"note": 82, "velocity": 93, "duration": 277}, {"note": 0, "velocity": 0, "duration": 83}, {"note": 80, "velocity": 98, "duration": 176}, {"note": 0, "velocity": 0, "duration": 64}, {"note": 82, "velocity": 103, "duration": 1126}, {"note": 0, "velocity": 0, "duration": 314}, {"note": 82, "velocity": 101, "duration": 248}, {"note": 80, "velocity": 93, "duration": 233}, {"note": 75, "velocity": 93, "duration": 219}, {"note": 82, "velocity": 100, "duration": 271}, {"note": 80, "velocity": 93, "duration": 240}, {"note": 78, "velocity": 93, "duration": 249}, {"note": 80, "velocity": 98, "duration": 360}, {"note": 75, "velocity": 92, "duration": 533}, {"note": 0, "velocity": 0, "duration": 307}, {"note": 82, "velocity": 100, "duration": 154}, {"note": 0, "velocity": 0, "duration": 86}, {"note": 82, "velocity": 105, "duration": 387}, {"note": 77, "velocity": 87, "duration": 255}, {"note": 78, "velocity": 96, "duration": 411}, {"note": 0, "velocity": 0, "duration": 189}, {"note": 73, "velocity": 90, "duration": 137}, {"note": 75, "velocity": 91, "duration": 93}, {"note": 78, "velocity": 100, "duration": 334}, {"note": 75, "velocity": 105, "duration": 618}, {"note": 78, "velocity": 100, "duration": 289}, {"note": 0, "velocity": 0, "duration": 71}, {"note": 75, "velocity": 103, "duration": 340}, {"note": 73, "velocity": 90, "duration": 261}, {"note": 82, "velocity": 100, "duration": 345}, {"note": 80, "velocity": 98, "duration": 626}, {"note": 0, "velocity": 0, "duration": 94}, {"note": 80, "velocity": 105, "duration": 362}, {"note": 75, "velocity": 98, "duration": 353}, {"note": 80, "velocity": 97, "duration": 220}, {"note": 78, "velocity": 91, "duration": 2520}]]