[[{"note": 64, "velocity": 65, "duration": 490}, {"note": 66, "velocity": 79, "duration": 519}, {"note": 69, "velocity": 87, "duration": 436}, {"note": 68, "velocity": 60, "duration": 420}, {"note": 68, "velocity": 66, "duration": 1597}, {"note": 0, "velocity": 0, "duration": 323}, {"note": 68, "velocity": 90, "duration": 282}, {"note": 69, "velocity": 66, "duration": 265}, {"note": 71, "velocity": 90, "duration": 522}, {"note": 69, "velocity": 89, "duration": 430}, {"note": 68, "velocity": 85, "duration": 466}, {"note": 64, "velocity": 64, "duration": 1397}, {"note": 0, "velocity": 0, "duration": 763}, {"note": 64, "velocity": 91, "duration": 470}, {"note": 66, "velocity": 74, "duration": 494}, {"note": 69, "velocity": 96, "duration": 450}, {"note": 68, "velocity": 66, "duration": 214}, {"note": 68, "velocity": 92, "duration": 1342}, {"note": 0, "velocity": 0, "duration": 338}, {"note": 68, "velocity": 90, "duration": 493}, {"note": 66, "velocity": 87, "duration": 494}, {"note": 64, "velocity": 79, "duration": 422}, {"note": 61, "velocity": 76, "duration": 444}, {"note": 66, "velocity": 66, "duration": 134}, {"note": 0, "velocity": 0, "duration": 106}, {"note": 66, "velocity": 66, "duration": 1117}, {"note": 0, "velocity": 0, "duration": 1043}, {"note": 64, "velocity": 87, "duration": 490}, {"note": 66, "velocity": 90, "duration": 501}, {"note": 69, "velocity": 95, "duration": 487}, {"note": 68, "velocity": 91, "duration": 173}, {"note": 0, "velocity": 0, "duration": 67}, {"note": 68, "velocity": 87, "duration": 1454}, {"note": 0, "velocity": 0, "duration": 706}, {"note": 68, "velocity": 87, "duration": 282}, {"note": 69, "velocity": 80, "duration": 344}, {"note": 71, "velocity": 91, "duration": 565}, {"note": 69, "velocity": 97, "duration": 472}, {"note": 68, "velocity": 93, "duration": 504}, {"note": 64, "velocity": 86, "duration": 523}, {"note": 71, "velocity": 92, "duration": 630}, {"note": 69, "velocity": 100, "duration": 505}, {"note": 0, "velocity": 0, "duration": 1415}, {"note": 69, "velocity": 97, "duration": 480}, {"note": 68, "velocity": 87, "duration": 326}, {"note": 76, "velocity": 87, "duration": 999}, {"note": 0, "velocity": 0, "duration": 201}, {"note": 68, "velocity": 101, "duration": 460}, {"note": 66, "velocity": 87, "duration": 195}, {"note": 66, "velocity": 66, "duration": 731}, {"note": 64, "velocity": 67, "duration": 166}, {"note": 0, "velocity": 0, "duration": 74}, {"note": 64, "velocity": 65, "duration": 1545}, {"note": 0, "velocity": 0, "duration": 1575}, {"note": 64, "velocity": 91, "duration": 451}, {"note": 66, "velocity": 84, "duration": 350}, {"note": 0, "velocity": 0, "duration": 130}, {"note": 69, "velocity": 96, "duration": 471}, {"note": 68, "velocity": 93, "duration": 171}, {"note": 0, "velocity": 0, "duration": 69}, {"note": 68, "velocity": 91, "duration": 1260}, {"note": 0, "velocity": 0, "duration": 900}, {"note": 68, "velocity": 87, "duration": 279}, {"note": 69, "velocity": 80, "duration": 170}, {"note": 0, "velocity": 0, "duration": 70}, {"note": 71, "velocity": 93, "duration": 536}, {"note": 69, "velocity": 89, "duration": 501}, {"note": 68, "velocity": 66, "duration": 616}, {"note": 64, "velocity": 38, "duration": 1303}, {"note": 0, "velocity": 0, "duration": 857}, {"note": 64, "velocity": 91, "duration": 377}, {"note": 0, "velocity": 0, "duration": 103}, {"note": 66, "velocity": 84, "duration": 501}, {"note": 69, "velocity": 92, "duration": 447}, {"note": 68, "velocity": 72, "duration": 169}, {"note": 0, "velocity": 0, "duration": 71}, {"note": 68, "velocity": 86, "duration": 1372}, {"note": 0, "velocity": 0, "duration": 308}, {"note": 68, "velocity": 100, "duration": 473}, {"note": 66, "velocity": 100, "duration": 440}, {"note": 64, "velocity": 93, "duration": 449}, {"note": 61, "velocity": 90, "duration": 422}, {"note": 66, "velocity": 97, "duration": 166}, {"note": 0, "velocity": 0, "duration": 74}, {"note": 66, "velocity": 97, "duration": 622}, {"note": 0, "velocity": 0, "duration": 338}, {"note": 64, "velocity": 100, "duration": 223}, {"note": 66, "velocity": 100, "duration": 370}, {"note": 0, "velocity": 0, "duration": 710}, {"note": 64, "velocity": 105, "duration": 463}, {"note": 66, "velocity": 98, "duration": 228}, {"note": 69, "velocity": 97, "duration": 260}, {"note": 68, "velocity": 86, "duration": 194}, {"note": 68, "velocity": 90, "duration": 296}, {"note": 0, "velocity": 0, "duration": 658}, {"note": 68, "velocity": 91, "duration": 231}, {"note": 0, "velocity": 0, "duration": 129}, {"note": 69, "velocity": 62, "duration": 278}, {"note": 71, "velocity": 90, "duration": 480}, {"note": 69, "velocity": 98, "duration": 489}, {"note": 68, "velocity": 87, "duration": 450}, {"note": 64, "velocity": 76, "duration": 293}, {"note": 0, "velocity": 0, "duration": 187}, {"note": 78, "velocity": 84, "duration": 495}, {"note": 76, "velocity": 95, "duration": 1177}, {"note": 0, "velocity": 0, "duration": 503}, {"note": 64, "velocity": 87, "duration": 246}, {"note": 68, "velocity": 95, "duration": 412}, {"note": 0, "velocity": 0, "duration": 68}, {"note": 68, "velocity": 82, "duration": 280}, {"note": 76, "velocity": 98, "duration": 843}, {"note": 0, "velocity": 0, "duration": 117}, {"note": 64, "velocity": 86, "duration": 222}, {"note": 68, "velocity": 96, "duration": 487}, {"note": 66, "velocity": 87, "duration": 112}, {"note": 0, "velocity": 0, "duration": 128}, {"note": 76, "velocity": 93, "duration": 800}, {"note": 75, "velocity": 87, "duration": 356}, {"note": 76, "velocity": 97, "duration": 1861}, {"note": 0, "velocity": 0, "duration": 779}, {"note": 80, "velocity": 109, "duration": 516}, {"note": 78, "velocity": 106, "duration": 497}, {"note": 76, "velocity": 98, "duration": 508}, {"note": 73, "velocity": 94, "duration": 377}, {"note": 0, "velocity": 0, "duration": 103}, {"note": 78, "velocity": 96, "duration": 122}, {"note": 0, "velocity": 0, "duration": 118}, {"note": 78, "velocity": 97, "duration": 1319}, {"note": 0, "velocity": 0, "duration": 361}, {"note": 80, "velocity": 98, "duration": 437}, {"note": 78, "velocity": 98, "duration": 460}, {"note": 76, "velocity": 90, "duration": 424}, {"note": 71, "velocity": 89, "duration": 484}, {"note": 78, "velocity": 96, "duration": 293}, {"note": 78, "velocity": 99, "duration": 53}, {"note": 0, "velocity": 0, "duration": 667}, {"note": 75, "velocity": 84, "duration": 291}, {"note": 76, "velocity": 90, "duration": 360}, {"note": 0, "velocity": 0, "duration": 360}, {"note": 80, "velocity": 105, "duration": 485}, {"note": 78, "velocity": 103, "duration": 501}, {"note": 76, "velocity": 98, "duration": 472}, {"note": 73, "velocity": 91, "duration": 449}, {"note": 78, "velocity": 87, "duration": 119}, {"note": 0, "velocity": 0, "duration": 121}, {"note": 78, "velocity": 95, "duration": 652}, {"note": 0, "velocity": 0, "duration": 68}, {"note": 76, "velocity": 91, "duration": 114}, {"note": 0, "velocity": 0, "duration": 126}, {"note": 81, "velocity": 104, "duration": 607}, {"note": 0, "velocity": 0, "duration": 113}, {"note": 80, "velocity": 97, "duration": 253}, {"note": 78, "velocity": 100, "duration": 493}, {"note": 76, "velocity": 97, "duration": 378}, {"note": 0, "velocity": 0, "duration": 102}, {"note": 71, "velocity": 87, "duration": 243}, {"note": 81, "velocity": 96, "duration": 362}, {"note": 0, "velocity": 0, "duration": 118}, {"note": 80, "velocity": 66, "duration": 106}, {"note": 0, "velocity": 0, "duration": 134}, {"note": 80, "velocity": 66, "duration": 438}, {"note": 78, "velocity": 90, "duration": 424}, {"note": 80, "velocity": 89, "duration": 599}, {"note": 80, "velocity": 99, "duration": 41}, {"note": 0, "velocity": 0, "duration": 192}, {"note": 81, "velocity": 91, "duration": 668}, {"note": 80, "velocity": 93, "duration": 231}, {"note": 85, "velocity": 103, "duration": 760}, {"note": 80, "velocity": 98, "duration": 127}, {"note": 0, "velocity": 0, "duration": 113}, {"note": 80, "velocity": 90, "duration": 757}, {"note": 78, "velocity": 66, "duration": 122}, {"note": 0, "velocity": 0, "duration": 118}, {"note": 78, "velocity": 80, "duration": 499}, {"note": 0, "velocity": 0, "duration": 221}, {"note": 78, "velocity": 93, "duration": 155}, {"note": 0, "velocity": 0, "duration": 85}, {"note": 80, "velocity": 97, "duration": 522}, {"note": 0, "velocity": 0, "duration": 198}, {"note": 78, "velocity": 97, "duration": 122}, {"note": 0, "velocity": 0, "duration": 118}, {"note": 83, "velocity": 97, "duration": 551}, {"note": 0, "velocity": 0, "duration": 169}, {"note": 78, "velocity": 84, "duration": 121}, {"note": 0, "velocity": 0, "duration": 119}, {"note": 78, "velocity": 79, "duration": 355}, {"note": 0, "velocity": 0, "duration": 125}, {"note": 75, "velocity": 90, "duration": 359}, {"note": 0, "velocity": 0, "duration": 121}, {"note": 78, "velocity": 90, "duration": 371}, {"note": 0, "velocity": 0, "duration": 109}, {"note": 76, "velocity": 99, "duration": 971}, {"note": 0, "velocity": 0, "duration": 229}, {"note": 71, "velocity": 98, "duration": 207}, {"note": 68, "velocity": 84, "duration": 285}, {"note": 69, "velocity": 93, "duration": 418}, {"note": 0, "velocity": 0, "duration": 62}, {"note": 76, "velocity": 72, "duration": 129}, {"note": 0, "velocity": 0, "duration": 111}, {"note": 76, "velocity": 100, "duration": 669}, {"note": 78, "velocity": 92, "duration": 139}, {"note": 0, "velocity": 0, "duration": 101}, {"note": 81, "velocity": 103, "duration": 510}, {"note": 0, "velocity": 0, "duration": 210}, {"note": 80, "velocity": 98, "duration": 261}, {"note": 0, "velocity": 0, "duration": 219}, {"note": 78, "velocity": 109, "duration": 313}, {"note": 0, "velocity": 0, "duration": 167}, {"note": 76, "velocity": 103, "duration": 466}, {"note": 76, "velocity": 105, "duration": 2988}, {"note": 0, "velocity": 0, "duration": 10753}, {"note": 64, "velocity": 65, "duration": 489}, {"note": 66, "velocity": 79, "duration": 518}, {"note": 69, "velocity": 87, "duration": 436}, {"note": 68, "velocity": 60, "duration": 251}, {"note": 68, "velocity": 66, "duration": 11}, {"note": 0, "velocity": 0, "duration": 2149}, {"note": 68, "velocity": 90, "duration": 282}, {"note": 69, "velocity": 66, "duration": 265}, {"note": 71, "velocity": 90, "duration": 522}, {"note": 69, "velocity": 89, "duration": 429}, {"note": 68, "velocity": 85, "duration": 466}, {"note": 64, "velocity": 64, "duration": 1397}, {"note": 0, "velocity": 0, "duration": 763}, {"note": 64, "velocity": 91, "duration": 470}, {"note": 66, "velocity": 74, "duration": 494}, {"note": 69, "velocity": 96, "duration": 450}, {"note": 68, "velocity": 66, "duration": 214}, {"note": 68, "velocity": 92, "duration": 1343}, {"note": 0, "velocity": 0, "duration": 337}, {"note": 68, "velocity": 90, "duration": 493}, {"note": 66, "velocity": 87, "duration": 494}, {"note": 64, "velocity": 79, "duration": 423}, {"note": 61, "velocity": 76, "duration": 444}, {"note": 66, "velocity": 66, "duration": 134}, {"note": 0, "velocity": 0, "duration": 106}, {"note": 66, "velocity": 66, "duration": 824}, {"note": 68, "velocity": 100, "duration": 122}, {"note": 66, "velocity": 100, "duration": 109}, {"note": 64, "velocity": 100, "duration": 85}, {"note": 66, "velocity": 100, "duration": 565}, {"note": 64, "velocity": 87, "duration": 476}, {"note": 66, "velocity": 90, "duration": 476}, {"note": 69, "velocity": 95, "duration": 476}, {"note": 68, "velocity": 91, "duration": 236}, {"note": 68, "velocity": 87, "duration": 2156}, {"note": 68, "velocity": 87, "duration": 236}, {"note": 69, "velocity": 80, "duration": 236}, {"note": 71, "velocity": 91, "duration": 476}, {"note": 69, "velocity": 97, "duration": 476}, {"note": 68, "velocity": 93, "duration": 476}, {"note": 64, "velocity": 86, "duration": 476}, {"note": 78, "velocity": 92, "duration": 956}, {"note": 76, "velocity": 100, "duration": 1196}, {"note": 64, "velocity": 100, "duration": 236}, {"note": 69, "velocity": 97, "duration": 476}, {"note": 68, "velocity": 87, "duration": 236}, {"note": 76, "velocity": 87, "duration": 960}, {"note": 64, "velocity": 86, "duration": 240}, {"note": 68, "velocity": 87, "duration": 476}, {"note": 66, "velocity": 73, "duration": 236}, {"note": 76, "velocity": 66, "duration": 720}, {"note": 75, "velocity": 67, "duration": 476}, {"note": 76, "velocity": 65, "duration": 2396}, {"note": 80, "velocity": 109, "duration": 476}, {"note": 78, "velocity": 106, "duration": 476}, {"note": 76, "velocity": 98, "duration": 480}, {"note": 73, "velocity": 94, "duration": 476}, {"note": 78, "velocity": 96, "duration": 236}, {"note": 78, "velocity": 97, "duration": 1556}, {"note": 0, "velocity": 0, "duration": 124}, {"note": 80, "velocity": 98, "duration": 476}, {"note": 78, "velocity": 98, "duration": 476}, {"note": 76, "velocity": 90, "duration": 476}, {"note": 71, "velocity": 89, "duration": 356}, {"note": 0, "velocity": 0, "duration": 124}, {"note": 78, "velocity": 96, "duration": 236}, {"note": 78, "velocity": 99, "duration": 716}, {"note": 76, "velocity": 84, "duration": 356}, {"note": 76, "velocity": 90, "duration": 116}, {"note": 0, "velocity": 0, "duration": 604}, {"note": 80, "velocity": 105, "duration": 476}, {"note": 78, "velocity": 103, "duration": 476}, {"note": 76, "velocity": 98, "duration": 476}, {"note": 73, "velocity": 91, "duration": 476}, {"note": 78, "velocity": 87, "duration": 236}, {"note": 78, "velocity": 95, "duration": 596}, {"note": 0, "velocity": 0, "duration": 124}, {"note": 76, "velocity": 91, "duration": 236}, {"note": 81, "velocity": 104, "duration": 500}, {"note": 0, "velocity": 0, "duration": 220}, {"note": 80, "velocity": 97, "duration": 236}, {"note": 78, "velocity": 100, "duration": 476}, {"note": 76, "velocity": 97, "duration": 476}, {"note": 71, "velocity": 87, "duration": 240}, {"note": 81, "velocity": 96, "duration": 476}, {"note": 0, "velocity": 0, "duration": 124}, {"note": 80, "velocity": 66, "duration": 109}, {"note": 80, "velocity": 66, "duration": 0}, {"note": 0, "velocity": 0, "duration": 241}, {"note": 78, "velocity": 90, "duration": 194}, {"note": 80, "velocity": 89, "duration": 180}, {"note": 0, "velocity": 0, "duration": 124}, {"note": 80, "velocity": 99, "duration": 236}, {"note": 81, "velocity": 91, "duration": 579}, {"note": 80, "velocity": 93, "duration": 236}, {"note": 85, "velocity": 103, "duration": 716}, {"note": 80, "velocity": 98, "duration": 236}, {"note": 80, "velocity": 90, "duration": 836}, {"note": 78, "velocity": 66, "duration": 236}, {"note": 78, "velocity": 80, "duration": 596}, {"note": 0, "velocity": 0, "duration": 124}, {"note": 78, "velocity": 93, "duration": 236}, {"note": 80, "velocity": 97, "duration": 716}, {"note": 78, "velocity": 97, "duration": 236}, {"note": 83, "velocity": 97, "duration": 716}, {"note": 78, "velocity": 84, "duration": 236}, {"note": 78, "velocity": 79, "duration": 476}, {"note": 75, "velocity": 90, "duration": 476}, {"note": 78, "velocity": 90, "duration": 476}, {"note": 76, "velocity": 99, "duration": 1076}, {"note": 0, "velocity": 0, "duration": 124}, {"note": 71, "velocity": 98, "duration": 236}, {"note": 68, "velocity": 84, "duration": 236}, {"note": 69, "velocity": 93, "duration": 476}, {"note": 76, "velocity": 72, "duration": 236}, {"note": 76, "velocity": 100, "duration": 716}, {"note": 78, "velocity": 92, "duration": 236}, {"note": 81, "velocity": 103, "duration": 716}, {"note": 80, "velocity": 98, "duration": 476}, {"note": 78, "velocity": 109, "duration": 476}, {"note": 76, "velocity": 103, "duration": 476}, {"note": 76, "velocity": 105, "duration": 1607}, {"note": 0, "velocity": 0, "duration": 124}, {"note": 80, "velocity": 109, "duration": 476}, {"note": 78, "velocity": 106, "duration": 596}, {"note": 76, "velocity": 98, "duration": 476}, {"note": 73, "velocity": 94, "duration": 476}, {"note": 78, "velocity": 96, "duration": 236}, {"note": 78, "velocity": 97, "duration": 1556}, {"note": 0, "velocity": 0, "duration": 124}, {"note": 80, "velocity": 98, "duration": 476}, {"note": 78, "velocity": 98, "duration": 596}, {"note": 76, "velocity": 90, "duration": 356}, {"note": 71, "velocity": 89, "duration": 476}, {"note": 78, "velocity": 96, "duration": 356}, {"note": 78, "velocity": 99, "duration": 116}, {"note": 0, "velocity": 0, "duration": 604}, {"note": 80, "velocity": 84, "duration": 236}, {"note": 76, "velocity": 90, "duration": 836}, {"note": 80, "velocity": 105, "duration": 356}, {"note": 0, "velocity": 0, "duration": 124}, {"note": 78, "velocity": 103, "duration": 476}, {"note": 76, "velocity": 98, "duration": 476}, {"note": 73, "velocity": 91, "duration": 476}, {"note": 78, "velocity": 87, "duration": 236}, {"note": 78, "velocity": 95, "duration": 716}, {"note": 76, "velocity": 91, "duration": 356}, {"note": 81, "velocity": 104, "duration": 596}, {"note": 0, "velocity": 0, "duration": 124}, {"note": 80, "velocity": 97, "duration": 236}, {"note": 78, "velocity": 100, "duration": 476}, {"note": 76, "velocity": 97, "duration": 476}, {"note": 71, "velocity": 87, "duration": 236}, {"note": 81, "velocity": 96, "duration": 476}, {"note": 80, "velocity": 66, "duration": 130}, {"note": 80, "velocity": 66, "duration": 115}, {"note": 81, "velocity": 90, "duration": 476}, {"note": 80, "velocity": 89, "duration": 140}, {"note": 80, "velocity": 99, "duration": 236}, {"note": 81, "velocity": 91, "duration": 716}, {"note": 80, "velocity": 93, "duration": 236}, {"note": 85, "velocity": 103, "duration": 716}, {"note": 80, "velocity": 98, "duration": 236}, {"note": 80, "velocity": 90, "duration": 836}, {"note": 78, "velocity": 66, "duration": 236}, {"note": 78, "velocity": 80, "duration": 596}, {"note": 78, "velocity": 93, "duration": 236}, {"note": 80, "velocity": 97, "duration": 716}, {"note": 78, "velocity": 97, "duration": 236}, {"note": 83, "velocity": 97, "duration": 716}, {"note": 78, "velocity": 84, "duration": 236}, {"note": 78, "velocity": 79, "duration": 476}, {"note": 0, "velocity": 0, "duration": 244}, {"note": 75, "velocity": 90, "duration": 356}, {"note": 78, "velocity": 90, "duration": 596}, {"note": 76, "velocity": 99, "duration": 3116}, {"note": 71, "velocity": 98, "duration": 236}, {"note": 68, "velocity": 84, "duration": 236}, {"note": 69, "velocity": 93, "duration": 476}, {"note": 76, "velocity": 72, "duration": 236}, {"note": 76, "velocity": 100, "duration": 716}, {"note": 78, "velocity": 92, "duration": 236}, {"note": 81, "velocity": 103, "duration": 596}, {"note": 80, "velocity": 98, "duration": 476}, {"note": 78, "velocity": 109, "duration": 476}, {"note": 76, "velocity": 103, "duration": 0}, {"note": 76, "velocity": 105, "duration": 6690}]]