[[{"note": 67, "velocity": 87, "duration": 580}, {"note": 0, "velocity": 0, "duration": 140}, {"note": 74, "velocity": 96, "duration": 278}, {"note": 72, "velocity": 93, "duration": 236}, {"note": 74, "velocity": 87, "duration": 263}, {"note": 70, "velocity": 93, "duration": 222}, {"note": 69, "velocity": 92, "duration": 244}, {"note": 67, "velocity": 105, "duration": 1232}, {"note": 0, "velocity": 0, "duration": 688}, {"note": 74, "velocity": 99, "duration": 364}, {"note": 0, "velocity": 0, "duration": 116}, {"note": 74, "velocity": 97, "duration": 211}, {"note": 67, "velocity": 84, "duration": 263}, {"note": 70, "velocity": 98, "duration": 242}, {"note": 72, "velocity": 100, "duration": 270}, {"note": 74, "velocity": 98, "duration": 524}, {"note": 72, "velocity": 111, "duration": 1122}, {"note": 0, "velocity": 0, "duration": 798}, {"note": 74, "velocity": 103, "duration": 406}, {"note": 0, "velocity": 0, "duration": 74}, {"note": 74, "velocity": 97, "duration": 212}, {"note": 67, "velocity": 80, "duration": 252}, {"note": 70, "velocity": 91, "duration": 332}, {"note": 0, "velocity": 0, "duration": 148}, {"note": 70, "velocity": 97, "duration": 265}, {"note": 72, "velocity": 97, "duration": 261}, {"note": 74, "velocity": 98, "duration": 165}, {"note": 0, "velocity": 0, "duration": 75}, {"note": 74, "velocity": 94, "duration": 151}, {"note": 0, "velocity": 0, "duration": 89}, {"note": 74, "velocity": 92, "duration": 211}, {"note": 67, "velocity": 91, "duration": 256}, {"note": 70, "velocity": 103, "duration": 561}, {"note": 0, "velocity": 0, "duration": 399}, {"note": 69, "velocity": 95, "duration": 660}, {"note": 67, "velocity": 66, "duration": 227}, {"note": 65, "velocity": 79, "duration": 286}, {"note": 67, "velocity": 55, "duration": 123}, {"note": 65, "velocity": 79, "duration": 116}, {"note": 62, "velocity": 73, "duration": 302}, {"note": 65, "velocity": 76, "duration": 272}, {"note": 67, "velocity": 105, "duration": 1258}, {"note": 0, "velocity": 0, "duration": 662}, {"note": 70, "velocity": 101, "duration": 725}, {"note": 0, "velocity": 0, "duration": 235}, {"note": 70, "velocity": 97, "duration": 543}, {"note": 0, "velocity": 0, "duration": 177}, {"note": 69, "velocity": 96, "duration": 229}, {"note": 67, "velocity": 87, "duration": 226}, {"note": 69, "velocity": 87, "duration": 264}, {"note": 67, "velocity": 92, "duration": 243}, {"note": 65, "velocity": 87, "duration": 263}, {"note": 62, "velocity": 98, "duration": 629}, {"note": 0, "velocity": 0, "duration": 331}, {"note": 74, "velocity": 103, "duration": 171}, {"note": 0, "velocity": 0, "duration": 69}, {"note": 74, "velocity": 96, "duration": 307}, {"note": 0, "velocity": 0, "duration": 173}, {"note": 67, "velocity": 93, "duration": 181}, {"note": 70, "velocity": 97, "duration": 246}, {"note": 72, "velocity": 98, "duration": 284}, {"note": 74, "velocity": 105, "duration": 473}, {"note": 72, "velocity": 109, "duration": 1519}, {"note": 0, "velocity": 0, "duration": 401}, {"note": 74, "velocity": 99, "duration": 141}, {"note": 0, "velocity": 0, "duration": 99}, {"note": 74, "velocity": 96, "duration": 123}, {"note": 0, "velocity": 0, "duration": 117}, {"note": 74, "velocity": 96, "duration": 202}, {"note": 67, "velocity": 93, "duration": 246}, {"note": 70, "velocity": 99, "duration": 543}, {"note": 0, "velocity": 0, "duration": 177}, {"note": 72, "velocity": 101, "duration": 262}, {"note": 74, "velocity": 97, "duration": 159}, {"note": 0, "velocity": 0, "duration": 81}, {"note": 74, "velocity": 97, "duration": 126}, {"note": 0, "velocity": 0, "duration": 114}, {"note": 74, "velocity": 96, "duration": 244}, {"note": 67, "velocity": 96, "duration": 279}, {"note": 70, "velocity": 105, "duration": 551}, {"note": 0, "velocity": 0, "duration": 409}, {"note": 69, "velocity": 97, "duration": 102}, {"note": 0, "velocity": 0, "duration": 138}, {"note": 69, "velocity": 94, "duration": 115}, {"note": 0, "velocity": 0, "duration": 125}, {"note": 69, "velocity": 93, "duration": 236}, {"note": 67, "velocity": 90, "duration": 222}, {"note": 65, "velocity": 91, "duration": 258}, {"note": 67, "velocity": 63, "duration": 149}, {"note": 65, "velocity": 90, "duration": 137}, {"note": 62, "velocity": 84, "duration": 266}, {"note": 65, "velocity": 83, "duration": 255}, {"note": 67, "velocity": 108, "duration": 1644}, {"note": 0, "velocity": 0, "duration": 2196}, {"note": 67, "velocity": 90, "duration": 196}, {"note": 67, "velocity": 91, "duration": 308}, {"note": 0, "velocity": 0, "duration": 172}, {"note": 74, "velocity": 101, "duration": 275}, {"note": 72, "velocity": 93, "duration": 230}, {"note": 74, "velocity": 87, "duration": 275}, {"note": 70, "velocity": 95, "duration": 226}, {"note": 69, "velocity": 92, "duration": 249}, {"note": 67, "velocity": 103, "duration": 1664}, {"note": 0, "velocity": 0, "duration": 256}, {"note": 74, "velocity": 108, "duration": 412}, {"note": 0, "velocity": 0, "duration": 68}, {"note": 74, "velocity": 98, "duration": 193}, {"note": 67, "velocity": 89, "duration": 204}, {"note": 70, "velocity": 90, "duration": 244}, {"note": 72, "velocity": 97, "duration": 301}, {"note": 74, "velocity": 105, "duration": 470}, {"note": 72, "velocity": 109, "duration": 1344}, {"note": 0, "velocity": 0, "duration": 576}, {"note": 74, "velocity": 100, "duration": 378}, {"note": 0, "velocity": 0, "duration": 102}, {"note": 74, "velocity": 101, "duration": 226}, {"note": 67, "velocity": 87, "duration": 213}, {"note": 70, "velocity": 98, "duration": 382}, {"note": 0, "velocity": 0, "duration": 98}, {"note": 70, "velocity": 108, "duration": 182}, {"note": 72, "velocity": 93, "duration": 280}, {"note": 74, "velocity": 103, "duration": 170}, {"note": 0, "velocity": 0, "duration": 70}, {"note": 74, "velocity": 100, "duration": 128}, {"note": 0, "velocity": 0, "duration": 112}, {"note": 74, "velocity": 103, "duration": 221}, {"note": 67, "velocity": 92, "duration": 252}, {"note": 70, "velocity": 97, "duration": 650}, {"note": 0, "velocity": 0, "duration": 310}, {"note": 69, "velocity": 103, "duration": 121}, {"note": 0, "velocity": 0, "duration": 119}, {"note": 69, "velocity": 96, "duration": 87}, {"note": 0, "velocity": 0, "duration": 153}, {"note": 69, "velocity": 93, "duration": 267}, {"note": 67, "velocity": 90, "duration": 231}, {"note": 65, "velocity": 87, "duration": 251}, {"note": 67, "velocity": 80, "duration": 142}, {"note": 65, "velocity": 86, "duration": 125}, {"note": 62, "velocity": 90, "duration": 277}, {"note": 65, "velocity": 93, "duration": 271}, {"note": 67, "velocity": 97, "duration": 1452}, {"note": 0, "velocity": 0, "duration": 468}, {"note": 70, "velocity": 108, "duration": 729}, {"note": 0, "velocity": 0, "duration": 231}, {"note": 70, "velocity": 100, "duration": 584}, {"note": 0, "velocity": 0, "duration": 136}, {"note": 69, "velocity": 100, "duration": 197}, {"note": 67, "velocity": 87, "duration": 179}, {"note": 0, "velocity": 0, "duration": 61}, {"note": 69, "velocity": 94, "duration": 218}, {"note": 67, "velocity": 89, "duration": 241}, {"note": 65, "velocity": 103, "duration": 267}, {"note": 62, "velocity": 94, "duration": 537}, {"note": 0, "velocity": 0, "duration": 423}, {"note": 74, "velocity": 100, "duration": 144}, {"note": 0, "velocity": 0, "duration": 96}, {"note": 74, "velocity": 100, "duration": 328}, {"note": 0, "velocity": 0, "duration": 152}, {"note": 67, "velocity": 92, "duration": 213}, {"note": 70, "velocity": 98, "duration": 246}, {"note": 72, "velocity": 96, "duration": 286}, {"note": 74, "velocity": 106, "duration": 504}, {"note": 72, "velocity": 103, "duration": 1310}, {"note": 0, "velocity": 0, "duration": 610}, {"note": 74, "velocity": 99, "duration": 143}, {"note": 0, "velocity": 0, "duration": 97}, {"note": 74, "velocity": 95, "duration": 134}, {"note": 0, "velocity": 0, "duration": 106}, {"note": 74, "velocity": 99, "duration": 213}, {"note": 67, "velocity": 93, "duration": 241}, {"note": 70, "velocity": 103, "duration": 570}, {"note": 0, "velocity": 0, "duration": 150}, {"note": 72, "velocity": 98, "duration": 258}, {"note": 74, "velocity": 103, "duration": 367}, {"note": 0, "velocity": 0, "duration": 113}, {"note": 74, "velocity": 97, "duration": 224}, {"note": 67, "velocity": 93, "duration": 247}, {"note": 70, "velocity": 100, "duration": 455}, {"note": 0, "velocity": 0, "duration": 505}, {"note": 69, "velocity": 99, "duration": 138}, {"note": 0, "velocity": 0, "duration": 102}, {"note": 69, "velocity": 97, "duration": 106}, {"note": 0, "velocity": 0, "duration": 134}, {"note": 69, "velocity": 89, "duration": 273}, {"note": 67, "velocity": 93, "duration": 234}, {"note": 65, "velocity": 83, "duration": 231}, {"note": 67, "velocity": 90, "duration": 150}, {"note": 65, "velocity": 84, "duration": 130}, {"note": 62, "velocity": 84, "duration": 253}, {"note": 65, "velocity": 93, "duration": 255}, {"note": 67, "velocity": 108, "duration": 1375}, {"note": 0, "velocity": 0, "duration": 545}, {"note": 74, "velocity": 97, "duration": 133}, {"note": 0, "velocity": 0, "duration": 107}, {"note": 74, "velocity": 95, "duration": 136}, {"note": 0, "velocity": 0, "duration": 104}, {"note": 74, "velocity": 98, "duration": 208}, {"note": 67, "velocity": 93, "duration": 200}, {"note": 70, "velocity": 98, "duration": 586}, {"note": 0, "velocity": 0, "duration": 134}, {"note": 72, "velocity": 103, "duration": 269}, {"note": 74, "velocity": 98, "duration": 166}, {"note": 0, "velocity": 0, "duration": 74}, {"note": 74, "velocity": 99, "duration": 165}, {"note": 0, "velocity": 0, "duration": 75}, {"note": 74, "velocity": 97, "duration": 204}, {"note": 67, "velocity": 90, "duration": 245}, {"note": 70, "velocity": 96, "duration": 11}, {"note": 0, "velocity": 0, "duration": 317}, {"note": 69, "velocity": 97, "duration": 126}, {"note": 0, "velocity": 0, "duration": 114}, {"note": 69, "velocity": 100, "duration": 169}, {"note": 0, "velocity": 0, "duration": 71}, {"note": 69, "velocity": 101, "duration": 232}, {"note": 67, "velocity": 98, "duration": 263}, {"note": 65, "velocity": 98, "duration": 260}, {"note": 67, "velocity": 85, "duration": 147}, {"note": 65, "velocity": 90, "duration": 124}, {"note": 62, "velocity": 91, "duration": 245}, {"note": 65, "velocity": 90, "duration": 257}, {"note": 67, "velocity": 106, "duration": 1483}, {"note": 0, "velocity": 0, "duration": 10037}, {"note": 67, "velocity": 87, "duration": 581}, {"note": 0, "velocity": 0, "duration": 139}, {"note": 74, "velocity": 96, "duration": 278}, {"note": 72, "velocity": 93, "duration": 237}, {"note": 74, "velocity": 87, "duration": 262}, {"note": 70, "velocity": 93, "duration": 222}, {"note": 69, "velocity": 92, "duration": 244}, {"note": 67, "velocity": 105, "duration": 1232}, {"note": 0, "velocity": 0, "duration": 688}, {"note": 74, "velocity": 99, "duration": 363}, {"note": 0, "velocity": 0, "duration": 117}, {"note": 74, "velocity": 97, "duration": 211}, {"note": 67, "velocity": 84, "duration": 263}, {"note": 70, "velocity": 98, "duration": 242}, {"note": 72, "velocity": 100, "duration": 269}, {"note": 74, "velocity": 98, "duration": 524}, {"note": 72, "velocity": 111, "duration": 1121}, {"note": 0, "velocity": 0, "duration": 799}, {"note": 74, "velocity": 103, "duration": 406}, {"note": 0, "velocity": 0, "duration": 74}, {"note": 74, "velocity": 97, "duration": 212}, {"note": 67, "velocity": 80, "duration": 252}, {"note": 70, "velocity": 91, "duration": 331}, {"note": 0, "velocity": 0, "duration": 149}, {"note": 70, "velocity": 97, "duration": 265}, {"note": 72, "velocity": 97, "duration": 261}, {"note": 74, "velocity": 98, "duration": 287}, {"note": 0, "velocity": 0, "duration": 193}, {"note": 74, "velocity": 92, "duration": 211}, {"note": 67, "velocity": 91, "duration": 256}, {"note": 70, "velocity": 103, "duration": 561}, {"note": 0, "velocity": 0, "duration": 399}, {"note": 69, "velocity": 95, "duration": 252}, {"note": 69, "velocity": 95, "duration": 12}, {"note": 0, "velocity": 0, "duration": 108}, {"note": 69, "velocity": 95, "duration": 15}, {"note": 0, "velocity": 0, "duration": 345}, {"note": 67, "velocity": 66, "duration": 226}, {"note": 65, "velocity": 79, "duration": 286}, {"note": 67, "velocity": 55, "duration": 123}, {"note": 65, "velocity": 79, "duration": 116}, {"note": 62, "velocity": 73, "duration": 302}, {"note": 65, "velocity": 76, "duration": 272}, {"note": 67, "velocity": 105, "duration": 1259}, {"note": 0, "velocity": 0, "duration": 661}, {"note": 70, "velocity": 101, "duration": 725}, {"note": 0, "velocity": 0, "duration": 235}, {"note": 70, "velocity": 97, "duration": 543}, {"note": 0, "velocity": 0, "duration": 177}, {"note": 69, "velocity": 96, "duration": 229}, {"note": 67, "velocity": 87, "duration": 227}, {"note": 69, "velocity": 87, "duration": 265}, {"note": 67, "velocity": 92, "duration": 243}, {"note": 65, "velocity": 87, "duration": 264}, {"note": 62, "velocity": 98, "duration": 629}, {"note": 0, "velocity": 0, "duration": 331}, {"note": 74, "velocity": 103, "duration": 171}, {"note": 0, "velocity": 0, "duration": 69}, {"note": 74, "velocity": 96, "duration": 307}, {"note": 0, "velocity": 0, "duration": 173}, {"note": 67, "velocity": 93, "duration": 181}, {"note": 70, "velocity": 97, "duration": 246}, {"note": 72, "velocity": 98, "duration": 284}, {"note": 74, "velocity": 105, "duration": 473}, {"note": 72, "velocity": 109, "duration": 1519}, {"note": 0, "velocity": 0, "duration": 401}, {"note": 74, "velocity": 99, "duration": 141}, {"note": 0, "velocity": 0, "duration": 99}, {"note": 74, "velocity": 96, "duration": 124}, {"note": 0, "velocity": 0, "duration": 116}, {"note": 74, "velocity": 96, "duration": 203}, {"note": 67, "velocity": 93, "duration": 245}, {"note": 70, "velocity": 99, "duration": 542}, {"note": 0, "velocity": 0, "duration": 178}, {"note": 72, "velocity": 101, "duration": 262}, {"note": 74, "velocity": 97, "duration": 159}, {"note": 0, "velocity": 0, "duration": 81}, {"note": 74, "velocity": 97, "duration": 126}, {"note": 0, "velocity": 0, "duration": 114}, {"note": 74, "velocity": 96, "duration": 244}, {"note": 67, "velocity": 96, "duration": 279}, {"note": 70, "velocity": 105, "duration": 551}, {"note": 0, "velocity": 0, "duration": 409}, {"note": 69, "velocity": 97, "duration": 103}, {"note": 0, "velocity": 0, "duration": 137}, {"note": 69, "velocity": 94, "duration": 116}, {"note": 0, "velocity": 0, "duration": 124}, {"note": 69, "velocity": 93, "duration": 235}, {"note": 67, "velocity": 90, "duration": 222}, {"note": 65, "velocity": 91, "duration": 259}, {"note": 67, "velocity": 63, "duration": 149}, {"note": 65, "velocity": 90, "duration": 138}, {"note": 62, "velocity": 84, "duration": 265}, {"note": 65, "velocity": 83, "duration": 255}, {"note": 67, "velocity": 108, "duration": 1900}, {"note": 0, "velocity": 0, "duration": 1940}, {"note": 67, "velocity": 90, "duration": 486}, {"note": 0, "velocity": 0, "duration": 234}, {"note": 74, "velocity": 101, "duration": 275}, {"note": 72, "velocity": 93, "duration": 230}, {"note": 74, "velocity": 87, "duration": 275}, {"note": 70, "velocity": 95, "duration": 226}, {"note": 69, "velocity": 92, "duration": 249}, {"note": 67, "velocity": 103, "duration": 1664}, {"note": 0, "velocity": 0, "duration": 256}, {"note": 74, "velocity": 108, "duration": 412}, {"note": 0, "velocity": 0, "duration": 68}, {"note": 74, "velocity": 98, "duration": 192}, {"note": 67, "velocity": 89, "duration": 204}, {"note": 70, "velocity": 90, "duration": 244}, {"note": 72, "velocity": 97, "duration": 301}, {"note": 74, "velocity": 105, "duration": 471}, {"note": 72, "velocity": 100, "duration": 229}, {"note": 72, "velocity": 109, "duration": 1343}, {"note": 0, "velocity": 0, "duration": 577}, {"note": 74, "velocity": 100, "duration": 378}, {"note": 0, "velocity": 0, "duration": 102}, {"note": 74, "velocity": 101, "duration": 226}, {"note": 67, "velocity": 87, "duration": 214}, {"note": 70, "velocity": 98, "duration": 381}, {"note": 0, "velocity": 0, "duration": 99}, {"note": 70, "velocity": 108, "duration": 182}, {"note": 72, "velocity": 93, "duration": 279}, {"note": 74, "velocity": 103, "duration": 170}, {"note": 0, "velocity": 0, "duration": 70}, {"note": 74, "velocity": 100, "duration": 128}, {"note": 0, "velocity": 0, "duration": 112}, {"note": 74, "velocity": 103, "duration": 220}, {"note": 67, "velocity": 92, "duration": 251}, {"note": 70, "velocity": 97, "duration": 651}, {"note": 0, "velocity": 0, "duration": 309}, {"note": 69, "velocity": 103, "duration": 808}, {"note": 67, "velocity": 90, "duration": 231}, {"note": 65, "velocity": 87, "duration": 250}, {"note": 67, "velocity": 80, "duration": 142}, {"note": 65, "velocity": 86, "duration": 124}, {"note": 62, "velocity": 90, "duration": 277}, {"note": 65, "velocity": 93, "duration": 271}, {"note": 67, "velocity": 97, "duration": 1453}, {"note": 0, "velocity": 0, "duration": 467}, {"note": 70, "velocity": 108, "duration": 728}, {"note": 0, "velocity": 0, "duration": 232}, {"note": 70, "velocity": 100, "duration": 583}, {"note": 0, "velocity": 0, "duration": 137}, {"note": 69, "velocity": 100, "duration": 198}, {"note": 67, "velocity": 87, "duration": 180}, {"note": 69, "velocity": 94, "duration": 217}, {"note": 67, "velocity": 89, "duration": 241}, {"note": 65, "velocity": 103, "duration": 267}, {"note": 62, "velocity": 94, "duration": 538}, {"note": 0, "velocity": 0, "duration": 422}, {"note": 74, "velocity": 100, "duration": 144}, {"note": 0, "velocity": 0, "duration": 96}, {"note": 74, "velocity": 100, "duration": 328}, {"note": 0, "velocity": 0, "duration": 152}, {"note": 67, "velocity": 92, "duration": 213}, {"note": 70, "velocity": 98, "duration": 245}, {"note": 72, "velocity": 96, "duration": 285}, {"note": 74, "velocity": 106, "duration": 504}, {"note": 72, "velocity": 103, "duration": 1310}, {"note": 0, "velocity": 0, "duration": 610}, {"note": 74, "velocity": 99, "duration": 143}, {"note": 0, "velocity": 0, "duration": 97}, {"note": 74, "velocity": 95, "duration": 134}, {"note": 0, "velocity": 0, "duration": 106}, {"note": 74, "velocity": 99, "duration": 212}, {"note": 67, "velocity": 93, "duration": 242}, {"note": 70, "velocity": 103, "duration": 569}, {"note": 0, "velocity": 0, "duration": 151}, {"note": 72, "velocity": 98, "duration": 258}, {"note": 74, "velocity": 103, "duration": 368}, {"note": 0, "velocity": 0, "duration": 112}, {"note": 74, "velocity": 97, "duration": 223}, {"note": 67, "velocity": 93, "duration": 248}, {"note": 70, "velocity": 100, "duration": 456}, {"note": 0, "velocity": 0, "duration": 504}, {"note": 69, "velocity": 99, "duration": 138}, {"note": 0, "velocity": 0, "duration": 102}, {"note": 69, "velocity": 97, "duration": 106}, {"note": 0, "velocity": 0, "duration": 134}, {"note": 69, "velocity": 89, "duration": 273}, {"note": 67, "velocity": 93, "duration": 234}, {"note": 65, "velocity": 83, "duration": 231}, {"note": 67, "velocity": 90, "duration": 149}, {"note": 65, "velocity": 84, "duration": 131}, {"note": 62, "velocity": 84, "duration": 253}, {"note": 65, "velocity": 93, "duration": 256}, {"note": 67, "velocity": 108, "duration": 1375}, {"note": 0, "velocity": 0, "duration": 545}, {"note": 74, "velocity": 97, "duration": 132}, {"note": 0, "velocity": 0, "duration": 108}, {"note": 74, "velocity": 95, "duration": 135}, {"note": 0, "velocity": 0, "duration": 105}, {"note": 74, "velocity": 98, "duration": 209}, {"note": 67, "velocity": 93, "duration": 200}, {"note": 70, "velocity": 98, "duration": 586}, {"note": 0, "velocity": 0, "duration": 134}, {"note": 72, "velocity": 103, "duration": 269}, {"note": 74, "velocity": 98, "duration": 166}, {"note": 0, "velocity": 0, "duration": 74}, {"note": 74, "velocity": 99, "duration": 165}, {"note": 0, "velocity": 0, "duration": 75}, {"note": 74, "velocity": 97, "duration": 204}, {"note": 67, "velocity": 90, "duration": 251}, {"note": 70, "velocity": 96, "duration": 641}, {"note": 0, "velocity": 0, "duration": 316}, {"note": 69, "velocity": 97, "duration": 125}, {"note": 0, "velocity": 0, "duration": 115}, {"note": 69, "velocity": 100, "duration": 169}, {"note": 0, "velocity": 0, "duration": 71}, {"note": 69, "velocity": 101, "duration": 232}, {"note": 67, "velocity": 98, "duration": 263}, {"note": 65, "velocity": 98, "duration": 261}, {"note": 67, "velocity": 85, "duration": 147}, {"note": 65, "velocity": 90, "duration": 124}, {"note": 62, "velocity": 91, "duration": 245}, {"note": 65, "velocity": 90, "duration": 256}, {"note": 67, "velocity": 106, "duration": 1483}, {"note": 0, "velocity": 0, "duration": 437}, {"note": 69, "velocity": 97, "duration": 118}, {"note": 0, "velocity": 0, "duration": 76}, {"note": 69, "velocity": 92, "duration": 62}, {"note": 0, "velocity": 0, "duration": 108}, {"note": 69, "velocity": 84, "duration": 272}, {"note": 67, "velocity": 89, "duration": 240}, {"note": 65, "velocity": 87, "duration": 450}, {"note": 62, "velocity": 67, "duration": 1853}, {"note": 65, "velocity": 94, "duration": 1015}, {"note": 67, "velocity": 92, "duration": 3320}]]