[[{"note": 63, "velocity": 61, "duration": 155}, {"note": 0, "velocity": 0, "duration": 85}, {"note": 63, "velocity": 66, "duration": 160}, {"note": 0, "velocity": 0, "duration": 80}, {"note": 63, "velocity": 59, "duration": 241}, {"note": 70, "velocity": 77, "duration": 234}, {"note": 70, "velocity": 65, "duration": 381}, {"note": 0, "velocity": 0, "duration": 99}, {"note": 70, "velocity": 65, "duration": 248}, {"note": 68, "velocity": 87, "duration": 144}, {"note": 0, "velocity": 0, "duration": 96}, {"note": 68, "velocity": 75, "duration": 159}, {"note": 0, "velocity": 0, "duration": 81}, {"note": 68, "velocity": 71, "duration": 250}, {"note": 70, "velocity": 75, "duration": 231}, {"note": 66, "velocity": 71, "duration": 242}, {"note": 63, "velocity": 64, "duration": 404}, {"note": 0, "velocity": 0, "duration": 316}, {"note": 68, "velocity": 99, "duration": 390}, {"note": 0, "velocity": 0, "duration": 90}, {"note": 68, "velocity": 93, "duration": 359}, {"note": 0, "velocity": 0, "duration": 121}, {"note": 68, "velocity": 90, "duration": 255}, {"note": 70, "velocity": 97, "duration": 715}, {"note": 66, "velocity": 96, "duration": 220}, {"note": 63, "velocity": 68, "duration": 1117}, {"note": 0, "velocity": 0, "duration": 803}, {"note": 75, "velocity": 96, "duration": 90}, {"note": 0, "velocity": 0, "duration": 150}, {"note": 75, "velocity": 95, "duration": 95}, {"note": 0, "velocity": 0, "duration": 145}, {"note": 75, "velocity": 87, "duration": 103}, {"note": 0, "velocity": 0, "duration": 137}, {"note": 75, "velocity": 94, "duration": 100}, {"note": 0, "velocity": 0, "duration": 140}, {"note": 75, "velocity": 87, "duration": 113}, {"note": 0, "velocity": 0, "duration": 127}, {"note": 75, "velocity": 90, "duration": 158}, {"note": 0, "velocity": 0, "duration": 82}, {"note": 75, "velocity": 66, "duration": 259}, {"note": 73, "velocity": 84, "duration": 210}, {"note": 70, "velocity": 54, "duration": 152}, {"note": 0, "velocity": 0, "duration": 88}, {"note": 70, "velocity": 66, "duration": 124}, {"note": 0, "velocity": 0, "duration": 116}, {"note": 70, "velocity": 66, "duration": 294}, {"note": 73, "velocity": 91, "duration": 228}, {"note": 70, "velocity": 92, "duration": 430}, {"note": 0, "velocity": 0, "duration": 290}, {"note": 68, "velocity": 97, "duration": 443}, {"note": 68, "velocity": 101, "duration": 489}, {"note": 66, "velocity": 93, "duration": 275}, {"note": 68, "velocity": 101, "duration": 675}, {"note": 70, "velocity": 98, "duration": 606}, {"note": 0, "velocity": 0, "duration": 1314}, {"note": 70, "velocity": 82, "duration": 224}, {"note": 78, "velocity": 85, "duration": 177}, {"note": 0, "velocity": 0, "duration": 63}, {"note": 78, "velocity": 92, "duration": 130}, {"note": 0, "velocity": 0, "duration": 110}, {"note": 78, "velocity": 90, "duration": 278}, {"note": 77, "velocity": 93, "duration": 259}, {"note": 75, "velocity": 90, "duration": 520}, {"note": 0, "velocity": 0, "duration": 200}, {"note": 73, "velocity": 91, "duration": 215}, {"note": 75, "velocity": 66, "duration": 140}, {"note": 0, "velocity": 0, "duration": 100}, {"note": 75, "velocity": 76, "duration": 139}, {"note": 0, "velocity": 0, "duration": 101}, {"note": 75, "velocity": 73, "duration": 244}, {"note": 73, "velocity": 89, "duration": 243}, {"note": 70, "velocity": 82, "duration": 274}, {"note": 73, "velocity": 100, "duration": 583}, {"note": 0, "velocity": 0, "duration": 137}, {"note": 68, "velocity": 94, "duration": 109}, {"note": 0, "velocity": 0, "duration": 131}, {"note": 68, "velocity": 90, "duration": 175}, {"note": 0, "velocity": 0, "duration": 65}, {"note": 68, "velocity": 79, "duration": 122}, {"note": 0, "velocity": 0, "duration": 118}, {"note": 68, "velocity": 74, "duration": 149}, {"note": 0, "velocity": 0, "duration": 91}, {"note": 68, "velocity": 76, "duration": 142}, {"note": 0, "velocity": 0, "duration": 98}, {"note": 68, "velocity": 77, "duration": 247}, {"note": 66, "velocity": 66, "duration": 240}, {"note": 63, "velocity": 64, "duration": 293}, {"note": 68, "velocity": 66, "duration": 196}, {"note": 70, "velocity": 91, "duration": 146}, {"note": 0, "velocity": 0, "duration": 94}, {"note": 70, "velocity": 92, "duration": 180}, {"note": 73, "velocity": 87, "duration": 209}, {"note": 70, "velocity": 92, "duration": 620}, {"note": 0, "velocity": 0, "duration": 100}, {"note": 70, "velocity": 93, "duration": 231}, {"note": 78, "velocity": 94, "duration": 168}, {"note": 0, "velocity": 0, "duration": 72}, {"note": 78, "velocity": 97, "duration": 117}, {"note": 0, "velocity": 0, "duration": 123}, {"note": 78, "velocity": 92, "duration": 256}, {"note": 77, "velocity": 100, "duration": 255}, {"note": 75, "velocity": 105, "duration": 584}, {"note": 0, "velocity": 0, "duration": 376}, {"note": 75, "velocity": 98, "duration": 131}, {"note": 0, "velocity": 0, "duration": 109}, {"note": 75, "velocity": 97, "duration": 128}, {"note": 0, "velocity": 0, "duration": 112}, {"note": 75, "velocity": 96, "duration": 227}, {"note": 70, "velocity": 91, "duration": 245}, {"note": 73, "velocity": 100, "duration": 559}, {"note": 0, "velocity": 0, "duration": 161}, {"note": 66, "velocity": 79, "duration": 220}, {"note": 68, "velocity": 76, "duration": 336}, {"note": 0, "velocity": 0, "duration": 144}, {"note": 68, "velocity": 87, "duration": 163}, {"note": 0, "velocity": 0, "duration": 77}, {"note": 68, "velocity": 73, "duration": 139}, {"note": 0, "velocity": 0, "duration": 101}, {"note": 68, "velocity": 75, "duration": 121}, {"note": 0, "velocity": 0, "duration": 119}, {"note": 68, "velocity": 66, "duration": 246}, {"note": 66, "velocity": 69, "duration": 222}, {"note": 63, "velocity": 61, "duration": 289}, {"note": 68, "velocity": 59, "duration": 156}, {"note": 0, "velocity": 0, "duration": 84}, {"note": 70, "velocity": 55, "duration": 207}, {"note": 70, "velocity": 62, "duration": 180}, {"note": 70, "velocity": 100, "duration": 420}, {"note": 70, "velocity": 98, "duration": 272}, {"note": 68, "velocity": 89, "duration": 211}, {"note": 66, "velocity": 80, "duration": 291}, {"note": 68, "velocity": 91, "duration": 742}, {"note": 63, "velocity": 62, "duration": 1437}, {"note": 0, "velocity": 0, "duration": 1203}, {"note": 63, "velocity": 87, "duration": 147}, {"note": 0, "velocity": 0, "duration": 93}, {"note": 63, "velocity": 80, "duration": 181}, {"note": 70, "velocity": 93, "duration": 392}, {"note": 0, "velocity": 0, "duration": 88}, {"note": 70, "velocity": 91, "duration": 212}, {"note": 73, "velocity": 86, "duration": 240}, {"note": 68, "velocity": 90, "duration": 375}, {"note": 0, "velocity": 0, "duration": 105}, {"note": 68, "velocity": 71, "duration": 244}, {"note": 70, "velocity": 73, "duration": 211}, {"note": 66, "velocity": 83, "duration": 395}, {"note": 0, "velocity": 0, "duration": 85}, {"note": 63, "velocity": 56, "duration": 245}, {"note": 61, "velocity": 57, "duration": 503}, {"note": 63, "velocity": 68, "duration": 1450}, {"note": 0, "velocity": 0, "duration": 3350}, {"note": 63, "velocity": 66, "duration": 165}, {"note": 0, "velocity": 0, "duration": 75}, {"note": 63, "velocity": 63, "duration": 142}, {"note": 0, "velocity": 0, "duration": 98}, {"note": 63, "velocity": 56, "duration": 226}, {"note": 70, "velocity": 66, "duration": 161}, {"note": 0, "velocity": 0, "duration": 79}, {"note": 70, "velocity": 69, "duration": 155}, {"note": 0, "velocity": 0, "duration": 85}, {"note": 70, "velocity": 87, "duration": 226}, {"note": 73, "velocity": 69, "duration": 276}, {"note": 68, "velocity": 72, "duration": 157}, {"note": 0, "velocity": 0, "duration": 83}, {"note": 68, "velocity": 66, "duration": 170}, {"note": 0, "velocity": 0, "duration": 70}, {"note": 68, "velocity": 61, "duration": 270}, {"note": 66, "velocity": 100, "duration": 368}, {"note": 63, "velocity": 58, "duration": 437}, {"note": 0, "velocity": 0, "duration": 523}, {"note": 68, "velocity": 91, "duration": 403}, {"note": 0, "velocity": 0, "duration": 77}, {"note": 68, "velocity": 90, "duration": 353}, {"note": 0, "velocity": 0, "duration": 127}, {"note": 68, "velocity": 84, "duration": 248}, {"note": 70, "velocity": 92, "duration": 714}, {"note": 66, "velocity": 96, "duration": 242}, {"note": 63, "velocity": 87, "duration": 880}, {"note": 0, "velocity": 0, "duration": 1040}, {"note": 75, "velocity": 96, "duration": 115}, {"note": 0, "velocity": 0, "duration": 125}, {"note": 75, "velocity": 97, "duration": 112}, {"note": 0, "velocity": 0, "duration": 128}, {"note": 75, "velocity": 90, "duration": 118}, {"note": 0, "velocity": 0, "duration": 122}, {"note": 75, "velocity": 90, "duration": 123}, {"note": 0, "velocity": 0, "duration": 117}, {"note": 75, "velocity": 87, "duration": 121}, {"note": 0, "velocity": 0, "duration": 119}, {"note": 75, "velocity": 91, "duration": 96}, {"note": 0, "velocity": 0, "duration": 144}, {"note": 75, "velocity": 91, "duration": 115}, {"note": 0, "velocity": 0, "duration": 125}, {"note": 73, "velocity": 106, "duration": 471}, {"note": 70, "velocity": 86, "duration": 226}, {"note": 73, "velocity": 92, "duration": 466}, {"note": 70, "velocity": 81, "duration": 419}, {"note": 0, "velocity": 0, "duration": 301}, {"note": 68, "velocity": 94, "duration": 417}, {"note": 0, "velocity": 0, "duration": 63}, {"note": 68, "velocity": 94, "duration": 232}, {"note": 68, "velocity": 91, "duration": 722}, {"note": 66, "velocity": 84, "duration": 483}, {"note": 70, "velocity": 101, "duration": 998}, {"note": 0, "velocity": 0, "duration": 682}, {"note": 70, "velocity": 83, "duration": 212}, {"note": 78, "velocity": 92, "duration": 176}, {"note": 0, "velocity": 0, "duration": 64}, {"note": 78, "velocity": 97, "duration": 97}, {"note": 0, "velocity": 0, "duration": 143}, {"note": 78, "velocity": 97, "duration": 258}, {"note": 77, "velocity": 101, "duration": 497}, {"note": 75, "velocity": 106, "duration": 298}, {"note": 0, "velocity": 0, "duration": 182}, {"note": 73, "velocity": 87, "duration": 207}, {"note": 75, "velocity": 93, "duration": 145}, {"note": 0, "velocity": 0, "duration": 95}, {"note": 75, "velocity": 90, "duration": 143}, {"note": 0, "velocity": 0, "duration": 97}, {"note": 75, "velocity": 91, "duration": 254}, {"note": 73, "velocity": 97, "duration": 232}, {"note": 70, "velocity": 87, "duration": 269}, {"note": 73, "velocity": 101, "duration": 593}, {"note": 0, "velocity": 0, "duration": 127}, {"note": 68, "velocity": 101, "duration": 128}, {"note": 0, "velocity": 0, "duration": 112}, {"note": 68, "velocity": 90, "duration": 147}, {"note": 0, "velocity": 0, "duration": 93}, {"note": 68, "velocity": 91, "duration": 143}, {"note": 0, "velocity": 0, "duration": 97}, {"note": 68, "velocity": 91, "duration": 153}, {"note": 0, "velocity": 0, "duration": 87}, {"note": 68, "velocity": 89, "duration": 144}, {"note": 0, "velocity": 0, "duration": 96}, {"note": 68, "velocity": 87, "duration": 238}, {"note": 66, "velocity": 75, "duration": 252}, {"note": 63, "velocity": 72, "duration": 283}, {"note": 68, "velocity": 68, "duration": 259}, {"note": 70, "velocity": 81, "duration": 177}, {"note": 0, "velocity": 0, "duration": 63}, {"note": 70, "velocity": 91, "duration": 146}, {"note": 0, "velocity": 0, "duration": 94}, {"note": 70, "velocity": 100, "duration": 727}, {"note": 0, "velocity": 0, "duration": 233}, {"note": 70, "velocity": 74, "duration": 257}, {"note": 78, "velocity": 94, "duration": 149}, {"note": 0, "velocity": 0, "duration": 91}, {"note": 78, "velocity": 97, "duration": 126}, {"note": 0, "velocity": 0, "duration": 114}, {"note": 78, "velocity": 93, "duration": 263}, {"note": 77, "velocity": 91, "duration": 289}, {"note": 75, "velocity": 90, "duration": 595}, {"note": 0, "velocity": 0, "duration": 365}, {"note": 75, "velocity": 106, "duration": 139}, {"note": 0, "velocity": 0, "duration": 101}, {"note": 75, "velocity": 91, "duration": 132}, {"note": 0, "velocity": 0, "duration": 108}, {"note": 75, "velocity": 91, "duration": 203}, {"note": 70, "velocity": 93, "duration": 243}, {"note": 73, "velocity": 106, "duration": 554}, {"note": 0, "velocity": 0, "duration": 166}, {"note": 66, "velocity": 92, "duration": 262}, {"note": 68, "velocity": 93, "duration": 153}, {"note": 0, "velocity": 0, "duration": 87}, {"note": 68, "velocity": 97, "duration": 148}, {"note": 0, "velocity": 0, "duration": 92}, {"note": 68, "velocity": 92, "duration": 151}, {"note": 0, "velocity": 0, "duration": 89}, {"note": 68, "velocity": 95, "duration": 136}, {"note": 0, "velocity": 0, "duration": 104}, {"note": 68, "velocity": 90, "duration": 118}, {"note": 0, "velocity": 0, "duration": 122}, {"note": 68, "velocity": 91, "duration": 249}, {"note": 66, "velocity": 85, "duration": 210}, {"note": 63, "velocity": 64, "duration": 264}, {"note": 68, "velocity": 66, "duration": 229}, {"note": 70, "velocity": 87, "duration": 155}, {"note": 0, "velocity": 0, "duration": 85}, {"note": 70, "velocity": 97, "duration": 140}, {"note": 0, "velocity": 0, "duration": 100}, {"note": 70, "velocity": 99, "duration": 407}, {"note": 0, "velocity": 0, "duration": 73}, {"note": 70, "velocity": 99, "duration": 289}, {"note": 68, "velocity": 97, "duration": 217}, {"note": 66, "velocity": 87, "duration": 280}, {"note": 68, "velocity": 99, "duration": 747}, {"note": 63, "velocity": 86, "duration": 1317}, {"note": 0, "velocity": 0, "duration": 1323}, {"note": 63, "velocity": 90, "duration": 166}, {"note": 0, "velocity": 0, "duration": 74}, {"note": 63, "velocity": 75, "duration": 177}, {"note": 0, "velocity": 0, "duration": 63}, {"note": 70, "velocity": 91, "duration": 377}, {"note": 0, "velocity": 0, "duration": 103}, {"note": 70, "velocity": 97, "duration": 199}, {"note": 73, "velocity": 87, "duration": 233}, {"note": 68, "velocity": 97, "duration": 359}, {"note": 0, "velocity": 0, "duration": 121}, {"note": 68, "velocity": 93, "duration": 195}, {"note": 70, "velocity": 96, "duration": 247}, {"note": 66, "velocity": 92, "duration": 481}, {"note": 63, "velocity": 89, "duration": 242}, {"note": 61, "velocity": 91, "duration": 513}, {"note": 63, "velocity": 103, "duration": 1868}, {"note": 0, "velocity": 0, "duration": 1972}, {"note": 73, "velocity": 57, "duration": 268}, {"note": 75, "velocity": 90, "duration": 234}, {"note": 78, "velocity": 96, "duration": 256}, {"note": 80, "velocity": 89, "duration": 139}, {"note": 0, "velocity": 0, "duration": 101}, {"note": 80, "velocity": 87, "duration": 155}, {"note": 0, "velocity": 0, "duration": 85}, {"note": 80, "velocity": 87, "duration": 156}, {"note": 0, "velocity": 0, "duration": 84}, {"note": 80, "velocity": 97, "duration": 140}, {"note": 0, "velocity": 0, "duration": 100}, {"note": 80, "velocity": 92, "duration": 150}, {"note": 0, "velocity": 0, "duration": 90}, {"note": 80, "velocity": 91, "duration": 133}, {"note": 0, "velocity": 0, "duration": 107}, {"note": 80, "velocity": 97, "duration": 240}, {"note": 82, "velocity": 89, "duration": 284}, {"note": 80, "velocity": 97, "duration": 252}, {"note": 78, "velocity": 100, "duration": 478}, {"note": 75, "velocity": 93, "duration": 404}, {"note": 0, "velocity": 0, "duration": 796}, {"note": 75, "velocity": 97, "duration": 147}, {"note": 0, "velocity": 0, "duration": 93}, {"note": 75, "velocity": 101, "duration": 142}, {"note": 0, "velocity": 0, "duration": 98}, {"note": 75, "velocity": 91, "duration": 142}, {"note": 0, "velocity": 0, "duration": 98}, {"note": 75, "velocity": 92, "duration": 148}, {"note": 0, "velocity": 0, "duration": 92}, {"note": 75, "velocity": 90, "duration": 145}, {"note": 0, "velocity": 0, "duration": 95}, {"note": 75, "velocity": 90, "duration": 124}, {"note": 0, "velocity": 0, "duration": 116}, {"note": 75, "velocity": 90, "duration": 225}, {"note": 78, "velocity": 99, "duration": 227}, {"note": 75, "velocity": 97, "duration": 235}, {"note": 73, "velocity": 91, "duration": 163}, {"note": 0, "velocity": 0, "duration": 77}, {"note": 73, "velocity": 72, "duration": 494}, {"note": 70, "velocity": 87, "duration": 558}, {"note": 0, "velocity": 0, "duration": 162}, {"note": 70, "velocity": 103, "duration": 209}, {"note": 68, "velocity": 98, "duration": 245}, {"note": 70, "velocity": 97, "duration": 286}, {"note": 68, "velocity": 97, "duration": 214}, {"note": 66, "velocity": 93, "duration": 501}, {"note": 63, "velocity": 100, "duration": 317}, {"note": 0, "velocity": 0, "duration": 163}, {"note": 70, "velocity": 127, "duration": 251}, {"note": 68, "velocity": 90, "duration": 260}, {"note": 70, "velocity": 87, "duration": 298}, {"note": 68, "velocity": 84, "duration": 244}, {"note": 66, "velocity": 91, "duration": 502}, {"note": 63, "velocity": 82, "duration": 302}, {"note": 0, "velocity": 0, "duration": 178}, {"note": 63, "velocity": 76, "duration": 224}, {"note": 75, "velocity": 87, "duration": 95}, {"note": 0, "velocity": 0, "duration": 145}, {"note": 75, "velocity": 91, "duration": 118}, {"note": 0, "velocity": 0, "duration": 122}, {"note": 75, "velocity": 96, "duration": 130}, {"note": 0, "velocity": 0, "duration": 110}, {"note": 75, "velocity": 95, "duration": 128}, {"note": 0, "velocity": 0, "duration": 112}, {"note": 75, "velocity": 93, "duration": 459}, {"note": 70, "velocity": 100, "duration": 165}, {"note": 0, "velocity": 0, "duration": 75}, {"note": 75, "velocity": 100, "duration": 461}, {"note": 73, "velocity": 100, "duration": 654}, {"note": 0, "velocity": 0, "duration": 306}, {"note": 73, "velocity": 97, "duration": 205}, {"note": 75, "velocity": 101, "duration": 168}, {"note": 0, "velocity": 0, "duration": 72}, {"note": 78, "velocity": 97, "duration": 274}, {"note": 80, "velocity": 97, "duration": 444}, {"note": 80, "velocity": 94, "duration": 161}, {"note": 0, "velocity": 0, "duration": 79}, {"note": 80, "velocity": 77, "duration": 131}, {"note": 0, "velocity": 0, "duration": 109}, {"note": 80, "velocity": 105, "duration": 334}, {"note": 0, "velocity": 0, "duration": 146}, {"note": 80, "velocity": 100, "duration": 256}, {"note": 82, "velocity": 99, "duration": 278}, {"note": 80, "velocity": 105, "duration": 267}, {"note": 78, "velocity": 106, "duration": 436}, {"note": 75, "velocity": 98, "duration": 523}, {"note": 0, "velocity": 0, "duration": 437}, {"note": 73, "velocity": 105, "duration": 244}, {"note": 75, "velocity": 92, "duration": 160}, {"note": 0, "velocity": 0, "duration": 80}, {"note": 75, "velocity": 96, "duration": 125}, {"note": 0, "velocity": 0, "duration": 115}, {"note": 75, "velocity": 89, "duration": 146}, {"note": 0, "velocity": 0, "duration": 94}, {"note": 75, "velocity": 94, "duration": 136}, {"note": 0, "velocity": 0, "duration": 104}, {"note": 75, "velocity": 94, "duration": 380}, {"note": 0, "velocity": 0, "duration": 100}, {"note": 75, "velocity": 92, "duration": 232}, {"note": 78, "velocity": 87, "duration": 247}, {"note": 75, "velocity": 93, "duration": 245}, {"note": 73, "velocity": 97, "duration": 137}, {"note": 0, "velocity": 0, "duration": 103}, {"note": 73, "velocity": 85, "duration": 438}, {"note": 70, "velocity": 87, "duration": 402}, {"note": 0, "velocity": 0, "duration": 318}, {"note": 70, "velocity": 98, "duration": 227}, {"note": 68, "velocity": 97, "duration": 250}, {"note": 70, "velocity": 93, "duration": 291}, {"note": 68, "velocity": 93, "duration": 224}, {"note": 66, "velocity": 92, "duration": 451}, {"note": 63, "velocity": 90, "duration": 319}, {"note": 0, "velocity": 0, "duration": 161}, {"note": 70, "velocity": 101, "duration": 232}, {"note": 68, "velocity": 97, "duration": 251}, {"note": 70, "velocity": 93, "duration": 286}, {"note": 68, "velocity": 93, "duration": 259}, {"note": 66, "velocity": 95, "duration": 475}, {"note": 63, "velocity": 66, "duration": 339}, {"note": 0, "velocity": 0, "duration": 141}, {"note": 63, "velocity": 76, "duration": 116}, {"note": 0, "velocity": 0, "duration": 124}, {"note": 75, "velocity": 87, "duration": 160}, {"note": 0, "velocity": 0, "duration": 80}, {"note": 75, "velocity": 68, "duration": 152}, {"note": 0, "velocity": 0, "duration": 88}, {"note": 75, "velocity": 98, "duration": 140}, {"note": 0, "velocity": 0, "duration": 100}, {"note": 75, "velocity": 91, "duration": 142}, {"note": 0, "velocity": 0, "duration": 98}, {"note": 75, "velocity": 90, "duration": 128}, {"note": 0, "velocity": 0, "duration": 112}, {"note": 75, "velocity": 90, "duration": 124}, {"note": 0, "velocity": 0, "duration": 116}, {"note": 75, "velocity": 90, "duration": 223}, {"note": 78, "velocity": 90, "duration": 228}, {"note": 75, "velocity": 93, "duration": 249}, {"note": 73, "velocity": 91, "duration": 267}, {"note": 75, "velocity": 95, "duration": 253}, {"note": 73, "velocity": 89, "duration": 510}, {"note": 73, "velocity": 93, "duration": 30}, {"note": 0, "velocity": 0, "duration": 210}, {"note": 75, "velocity": 91, "duration": 236}, {"note": 78, "velocity": 87, "duration": 275}, {"note": 80, "velocity": 95, "duration": 162}, {"note": 0, "velocity": 0, "duration": 78}, {"note": 80, "velocity": 96, "duration": 173}, {"note": 0, "velocity": 0, "duration": 67}, {"note": 80, "velocity": 93, "duration": 156}, {"note": 0, "velocity": 0, "duration": 84}, {"note": 80, "velocity": 91, "duration": 141}, {"note": 0, "velocity": 0, "duration": 99}, {"note": 80, "velocity": 91, "duration": 136}, {"note": 0, "velocity": 0, "duration": 104}, {"note": 80, "velocity": 90, "duration": 133}, {"note": 0, "velocity": 0, "duration": 107}, {"note": 80, "velocity": 97, "duration": 262}, {"note": 82, "velocity": 97, "duration": 290}, {"note": 80, "velocity": 93, "duration": 242}, {"note": 78, "velocity": 87, "duration": 135}, {"note": 0, "velocity": 0, "duration": 105}, {"note": 78, "velocity": 83, "duration": 464}, {"note": 75, "velocity": 96, "duration": 483}, {"note": 0, "velocity": 0, "duration": 237}, {"note": 73, "velocity": 108, "duration": 244}, {"note": 75, "velocity": 95, "duration": 165}, {"note": 0, "velocity": 0, "duration": 75}, {"note": 75, "velocity": 92, "duration": 143}, {"note": 0, "velocity": 0, "duration": 97}, {"note": 75, "velocity": 97, "duration": 153}, {"note": 0, "velocity": 0, "duration": 87}, {"note": 75, "velocity": 92, "duration": 137}, {"note": 0, "velocity": 0, "duration": 103}, {"note": 75, "velocity": 94, "duration": 137}, {"note": 0, "velocity": 0, "duration": 103}, {"note": 75, "velocity": 90, "duration": 139}, {"note": 0, "velocity": 0, "duration": 101}, {"note": 75, "velocity": 99, "duration": 197}, {"note": 78, "velocity": 91, "duration": 210}, {"note": 75, "velocity": 98, "duration": 204}, {"note": 73, "velocity": 94, "duration": 158}, {"note": 0, "velocity": 0, "duration": 82}, {"note": 73, "velocity": 91, "duration": 453}, {"note": 70, "velocity": 90, "duration": 552}, {"note": 0, "velocity": 0, "duration": 168}, {"note": 70, "velocity": 97, "duration": 221}, {"note": 68, "velocity": 93, "duration": 264}, {"note": 70, "velocity": 89, "duration": 271}, {"note": 68, "velocity": 89, "duration": 223}, {"note": 66, "velocity": 86, "duration": 245}, {"note": 63, "velocity": 71, "duration": 462}, {"note": 0, "velocity": 0, "duration": 258}, {"note": 70, "velocity": 90, "duration": 240}, {"note": 68, "velocity": 93, "duration": 278}, {"note": 70, "velocity": 87, "duration": 290}, {"note": 68, "velocity": 84, "duration": 259}, {"note": 66, "velocity": 91, "duration": 472}, {"note": 63, "velocity": 63, "duration": 355}, {"note": 0, "velocity": 0, "duration": 125}, {"note": 63, "velocity": 86, "duration": 207}, {"note": 75, "velocity": 79, "duration": 160}, {"note": 0, "velocity": 0, "duration": 80}, {"note": 75, "velocity": 90, "duration": 142}, {"note": 0, "velocity": 0, "duration": 98}, {"note": 75, "velocity": 83, "duration": 132}, {"note": 0, "velocity": 0, "duration": 108}, {"note": 75, "velocity": 87, "duration": 143}, {"note": 0, "velocity": 0, "duration": 97}, {"note": 75, "velocity": 90, "duration": 179}, {"note": 0, "velocity": 0, "duration": 61}, {"note": 75, "velocity": 90, "duration": 458}, {"note": 78, "velocity": 89, "duration": 263}, {"note": 75, "velocity": 96, "duration": 253}, {"note": 73, "velocity": 90, "duration": 279}, {"note": 75, "velocity": 67, "duration": 209}, {"note": 73, "velocity": 87, "duration": 592}, {"note": 73, "velocity": 97, "duration": 112}, {"note": 0, "velocity": 0, "duration": 128}, {"note": 75, "velocity": 95, "duration": 206}, {"note": 78, "velocity": 97, "duration": 308}, {"note": 80, "velocity": 89, "duration": 139}, {"note": 0, "velocity": 0, "duration": 101}, {"note": 80, "velocity": 87, "duration": 171}, {"note": 0, "velocity": 0, "duration": 69}, {"note": 80, "velocity": 90, "duration": 150}, {"note": 0, "velocity": 0, "duration": 90}, {"note": 80, "velocity": 86, "duration": 155}, {"note": 0, "velocity": 0, "duration": 85}, {"note": 80, "velocity": 97, "duration": 323}, {"note": 0, "velocity": 0, "duration": 157}, {"note": 80, "velocity": 101, "duration": 276}, {"note": 82, "velocity": 96, "duration": 272}, {"note": 80, "velocity": 99, "duration": 240}, {"note": 78, "velocity": 90, "duration": 171}, {"note": 0, "velocity": 0, "duration": 69}, {"note": 78, "velocity": 90, "duration": 475}, {"note": 75, "velocity": 98, "duration": 585}, {"note": 0, "velocity": 0, "duration": 375}, {"note": 75, "velocity": 101, "duration": 151}, {"note": 0, "velocity": 0, "duration": 89}, {"note": 75, "velocity": 101, "duration": 128}, {"note": 0, "velocity": 0, "duration": 112}, {"note": 75, "velocity": 95, "duration": 124}, {"note": 0, "velocity": 0, "duration": 116}, {"note": 75, "velocity": 94, "duration": 130}, {"note": 0, "velocity": 0, "duration": 110}, {"note": 75, "velocity": 105, "duration": 344}, {"note": 0, "velocity": 0, "duration": 136}, {"note": 75, "velocity": 103, "duration": 227}, {"note": 78, "velocity": 94, "duration": 209}, {"note": 75, "velocity": 105, "duration": 250}, {"note": 73, "velocity": 97, "duration": 157}, {"note": 0, "velocity": 0, "duration": 83}, {"note": 73, "velocity": 99, "duration": 450}, {"note": 70, "velocity": 98, "duration": 521}, {"note": 0, "velocity": 0, "duration": 199}, {"note": 70, "velocity": 97, "duration": 214}, {"note": 68, "velocity": 86, "duration": 224}, {"note": 70, "velocity": 95, "duration": 289}, {"note": 68, "velocity": 94, "duration": 226}, {"note": 66, "velocity": 90, "duration": 249}, {"note": 63, "velocity": 77, "duration": 423}, {"note": 0, "velocity": 0, "duration": 297}, {"note": 70, "velocity": 94, "duration": 285}, {"note": 68, "velocity": 94, "duration": 251}, {"note": 70, "velocity": 92, "duration": 294}, {"note": 68, "velocity": 89, "duration": 222}, {"note": 66, "velocity": 91, "duration": 437}, {"note": 63, "velocity": 74, "duration": 289}, {"note": 0, "velocity": 0, "duration": 671}, {"note": 61, "velocity": 73, "duration": 253}, {"note": 63, "velocity": 73, "duration": 244}, {"note": 66, "velocity": 66, "duration": 150}, {"note": 0, "velocity": 0, "duration": 90}, {"note": 75, "velocity": 90, "duration": 358}, {"note": 73, "velocity": 94, "duration": 529}, {"note": 70, "velocity": 100, "duration": 851}, {"note": 0, "velocity": 0, "duration": 349}, {"note": 68, "velocity": 96, "duration": 454}, {"note": 68, "velocity": 97, "duration": 244}, {"note": 70, "velocity": 91, "duration": 240}, {"note": 66, "velocity": 91, "duration": 235}, {"note": 0, "velocity": 0, "duration": 485}, {"note": 63, "velocity": 68, "duration": 1481}, {"note": 0, "velocity": 0, "duration": 17239}, {"note": 63, "velocity": 66, "duration": 164}, {"note": 0, "velocity": 0, "duration": 76}, {"note": 63, "velocity": 63, "duration": 142}, {"note": 0, "velocity": 0, "duration": 98}, {"note": 63, "velocity": 56, "duration": 226}, {"note": 70, "velocity": 66, "duration": 161}, {"note": 0, "velocity": 0, "duration": 79}, {"note": 70, "velocity": 69, "duration": 155}, {"note": 0, "velocity": 0, "duration": 85}, {"note": 70, "velocity": 87, "duration": 225}, {"note": 73, "velocity": 69, "duration": 276}, {"note": 68, "velocity": 72, "duration": 157}, {"note": 0, "velocity": 0, "duration": 83}, {"note": 68, "velocity": 66, "duration": 171}, {"note": 0, "velocity": 0, "duration": 69}, {"note": 68, "velocity": 61, "duration": 271}, {"note": 66, "velocity": 100, "duration": 368}, {"note": 63, "velocity": 58, "duration": 437}, {"note": 0, "velocity": 0, "duration": 523}, {"note": 68, "velocity": 91, "duration": 404}, {"note": 0, "velocity": 0, "duration": 76}, {"note": 68, "velocity": 90, "duration": 353}, {"note": 0, "velocity": 0, "duration": 127}, {"note": 68, "velocity": 84, "duration": 248}, {"note": 70, "velocity": 92, "duration": 714}, {"note": 66, "velocity": 96, "duration": 241}, {"note": 63, "velocity": 87, "duration": 881}, {"note": 0, "velocity": 0, "duration": 1039}, {"note": 75, "velocity": 96, "duration": 116}, {"note": 0, "velocity": 0, "duration": 124}, {"note": 75, "velocity": 97, "duration": 112}, {"note": 0, "velocity": 0, "duration": 128}, {"note": 75, "velocity": 90, "duration": 118}, {"note": 0, "velocity": 0, "duration": 122}, {"note": 75, "velocity": 90, "duration": 122}, {"note": 0, "velocity": 0, "duration": 118}, {"note": 75, "velocity": 87, "duration": 121}, {"note": 0, "velocity": 0, "duration": 119}, {"note": 75, "velocity": 91, "duration": 96}, {"note": 0, "velocity": 0, "duration": 144}, {"note": 75, "velocity": 91, "duration": 114}, {"note": 0, "velocity": 0, "duration": 126}, {"note": 73, "velocity": 106, "duration": 471}, {"note": 70, "velocity": 86, "duration": 226}, {"note": 73, "velocity": 92, "duration": 465}, {"note": 70, "velocity": 81, "duration": 419}, {"note": 0, "velocity": 0, "duration": 301}, {"note": 68, "velocity": 94, "duration": 417}, {"note": 0, "velocity": 0, "duration": 63}, {"note": 68, "velocity": 94, "duration": 233}, {"note": 68, "velocity": 91, "duration": 722}, {"note": 66, "velocity": 84, "duration": 483}, {"note": 70, "velocity": 101, "duration": 998}, {"note": 0, "velocity": 0, "duration": 682}, {"note": 70, "velocity": 83, "duration": 212}, {"note": 78, "velocity": 92, "duration": 176}, {"note": 0, "velocity": 0, "duration": 64}, {"note": 78, "velocity": 97, "duration": 97}, {"note": 0, "velocity": 0, "duration": 143}, {"note": 78, "velocity": 97, "duration": 257}, {"note": 77, "velocity": 101, "duration": 498}, {"note": 75, "velocity": 106, "duration": 299}, {"note": 0, "velocity": 0, "duration": 181}, {"note": 73, "velocity": 87, "duration": 208}, {"note": 75, "velocity": 93, "duration": 145}, {"note": 0, "velocity": 0, "duration": 95}, {"note": 75, "velocity": 90, "duration": 144}, {"note": 0, "velocity": 0, "duration": 96}, {"note": 75, "velocity": 91, "duration": 254}, {"note": 73, "velocity": 97, "duration": 233}, {"note": 70, "velocity": 87, "duration": 270}, {"note": 73, "velocity": 101, "duration": 593}, {"note": 0, "velocity": 0, "duration": 127}, {"note": 68, "velocity": 101, "duration": 128}, {"note": 0, "velocity": 0, "duration": 112}, {"note": 68, "velocity": 90, "duration": 147}, {"note": 0, "velocity": 0, "duration": 93}, {"note": 68, "velocity": 91, "duration": 143}, {"note": 0, "velocity": 0, "duration": 97}, {"note": 68, "velocity": 91, "duration": 153}, {"note": 0, "velocity": 0, "duration": 87}, {"note": 68, "velocity": 89, "duration": 143}, {"note": 0, "velocity": 0, "duration": 97}, {"note": 68, "velocity": 87, "duration": 237}, {"note": 66, "velocity": 75, "duration": 252}, {"note": 63, "velocity": 72, "duration": 282}, {"note": 68, "velocity": 68, "duration": 259}, {"note": 70, "velocity": 81, "duration": 177}, {"note": 0, "velocity": 0, "duration": 63}, {"note": 70, "velocity": 91, "duration": 146}, {"note": 0, "velocity": 0, "duration": 94}, {"note": 70, "velocity": 100, "duration": 727}, {"note": 0, "velocity": 0, "duration": 233}, {"note": 70, "velocity": 74, "duration": 257}, {"note": 78, "velocity": 94, "duration": 150}, {"note": 0, "velocity": 0, "duration": 90}, {"note": 78, "velocity": 97, "duration": 126}, {"note": 0, "velocity": 0, "duration": 114}, {"note": 78, "velocity": 93, "duration": 263}, {"note": 77, "velocity": 91, "duration": 289}, {"note": 75, "velocity": 90, "duration": 594}, {"note": 0, "velocity": 0, "duration": 366}, {"note": 75, "velocity": 106, "duration": 140}, {"note": 0, "velocity": 0, "duration": 100}, {"note": 75, "velocity": 91, "duration": 132}, {"note": 0, "velocity": 0, "duration": 108}, {"note": 75, "velocity": 91, "duration": 203}, {"note": 70, "velocity": 93, "duration": 243}, {"note": 73, "velocity": 106, "duration": 555}, {"note": 0, "velocity": 0, "duration": 165}, {"note": 66, "velocity": 92, "duration": 262}, {"note": 68, "velocity": 93, "duration": 153}, {"note": 0, "velocity": 0, "duration": 87}, {"note": 68, "velocity": 97, "duration": 148}, {"note": 0, "velocity": 0, "duration": 92}, {"note": 68, "velocity": 92, "duration": 152}, {"note": 0, "velocity": 0, "duration": 88}, {"note": 68, "velocity": 95, "duration": 136}, {"note": 0, "velocity": 0, "duration": 104}, {"note": 68, "velocity": 90, "duration": 118}, {"note": 0, "velocity": 0, "duration": 122}, {"note": 68, "velocity": 91, "duration": 248}, {"note": 66, "velocity": 85, "duration": 209}, {"note": 63, "velocity": 64, "duration": 264}, {"note": 68, "velocity": 66, "duration": 228}, {"note": 70, "velocity": 87, "duration": 154}, {"note": 0, "velocity": 0, "duration": 86}, {"note": 70, "velocity": 97, "duration": 139}, {"note": 0, "velocity": 0, "duration": 101}, {"note": 70, "velocity": 99, "duration": 407}, {"note": 0, "velocity": 0, "duration": 73}, {"note": 70, "velocity": 99, "duration": 289}, {"note": 68, "velocity": 97, "duration": 218}, {"note": 66, "velocity": 87, "duration": 281}, {"note": 68, "velocity": 99, "duration": 747}, {"note": 63, "velocity": 86, "duration": 1318}, {"note": 0, "velocity": 0, "duration": 1322}, {"note": 63, "velocity": 90, "duration": 166}, {"note": 0, "velocity": 0, "duration": 74}, {"note": 63, "velocity": 75, "duration": 177}, {"note": 0, "velocity": 0, "duration": 63}, {"note": 70, "velocity": 91, "duration": 376}, {"note": 0, "velocity": 0, "duration": 104}, {"note": 70, "velocity": 97, "duration": 199}, {"note": 73, "velocity": 87, "duration": 232}, {"note": 68, "velocity": 97, "duration": 359}, {"note": 0, "velocity": 0, "duration": 121}, {"note": 68, "velocity": 93, "duration": 194}, {"note": 70, "velocity": 96, "duration": 247}, {"note": 66, "velocity": 92, "duration": 481}, {"note": 63, "velocity": 89, "duration": 243}, {"note": 61, "velocity": 91, "duration": 513}, {"note": 63, "velocity": 103, "duration": 1867}, {"note": 73, "velocity": 57, "duration": 268}, {"note": 75, "velocity": 90, "duration": 234}, {"note": 78, "velocity": 96, "duration": 256}, {"note": 80, "velocity": 89, "duration": 139}, {"note": 0, "velocity": 0, "duration": 101}, {"note": 80, "velocity": 87, "duration": 155}, {"note": 0, "velocity": 0, "duration": 85}, {"note": 80, "velocity": 87, "duration": 156}, {"note": 0, "velocity": 0, "duration": 84}, {"note": 80, "velocity": 97, "duration": 140}, {"note": 0, "velocity": 0, "duration": 100}, {"note": 80, "velocity": 92, "duration": 150}, {"note": 0, "velocity": 0, "duration": 90}, {"note": 80, "velocity": 91, "duration": 133}, {"note": 0, "velocity": 0, "duration": 107}, {"note": 80, "velocity": 97, "duration": 240}, {"note": 82, "velocity": 89, "duration": 284}, {"note": 80, "velocity": 97, "duration": 252}, {"note": 78, "velocity": 100, "duration": 477}, {"note": 75, "velocity": 93, "duration": 404}, {"note": 0, "velocity": 0, "duration": 796}, {"note": 75, "velocity": 97, "duration": 148}, {"note": 0, "velocity": 0, "duration": 92}, {"note": 75, "velocity": 101, "duration": 142}, {"note": 0, "velocity": 0, "duration": 98}, {"note": 75, "velocity": 91, "duration": 141}, {"note": 0, "velocity": 0, "duration": 99}, {"note": 75, "velocity": 92, "duration": 148}, {"note": 0, "velocity": 0, "duration": 92}, {"note": 75, "velocity": 90, "duration": 144}, {"note": 0, "velocity": 0, "duration": 96}, {"note": 75, "velocity": 90, "duration": 125}, {"note": 0, "velocity": 0, "duration": 115}, {"note": 75, "velocity": 90, "duration": 226}, {"note": 78, "velocity": 99, "duration": 227}, {"note": 75, "velocity": 97, "duration": 235}, {"note": 73, "velocity": 91, "duration": 164}, {"note": 0, "velocity": 0, "duration": 76}, {"note": 73, "velocity": 72, "duration": 494}, {"note": 70, "velocity": 87, "duration": 558}, {"note": 0, "velocity": 0, "duration": 162}, {"note": 70, "velocity": 103, "duration": 209}, {"note": 68, "velocity": 98, "duration": 244}, {"note": 70, "velocity": 97, "duration": 287}, {"note": 68, "velocity": 97, "duration": 214}, {"note": 66, "velocity": 93, "duration": 500}, {"note": 63, "velocity": 100, "duration": 317}, {"note": 0, "velocity": 0, "duration": 163}, {"note": 70, "velocity": 100, "duration": 213}, {"note": 68, "velocity": 90, "duration": 260}, {"note": 70, "velocity": 87, "duration": 298}, {"note": 68, "velocity": 84, "duration": 245}, {"note": 66, "velocity": 91, "duration": 502}, {"note": 63, "velocity": 82, "duration": 303}, {"note": 0, "velocity": 0, "duration": 177}, {"note": 63, "velocity": 76, "duration": 224}, {"note": 75, "velocity": 87, "duration": 94}, {"note": 0, "velocity": 0, "duration": 146}, {"note": 75, "velocity": 91, "duration": 117}, {"note": 0, "velocity": 0, "duration": 123}, {"note": 75, "velocity": 96, "duration": 130}, {"note": 0, "velocity": 0, "duration": 110}, {"note": 75, "velocity": 95, "duration": 128}, {"note": 0, "velocity": 0, "duration": 112}, {"note": 75, "velocity": 93, "duration": 459}, {"note": 70, "velocity": 100, "duration": 165}, {"note": 0, "velocity": 0, "duration": 75}, {"note": 75, "velocity": 100, "duration": 462}, {"note": 73, "velocity": 100, "duration": 653}, {"note": 0, "velocity": 0, "duration": 307}, {"note": 73, "velocity": 97, "duration": 205}, {"note": 75, "velocity": 101, "duration": 167}, {"note": 0, "velocity": 0, "duration": 73}, {"note": 78, "velocity": 97, "duration": 274}, {"note": 80, "velocity": 97, "duration": 444}, {"note": 80, "velocity": 94, "duration": 162}, {"note": 0, "velocity": 0, "duration": 78}, {"note": 80, "velocity": 77, "duration": 132}, {"note": 0, "velocity": 0, "duration": 108}, {"note": 80, "velocity": 105, "duration": 334}, {"note": 0, "velocity": 0, "duration": 146}, {"note": 80, "velocity": 100, "duration": 256}, {"note": 82, "velocity": 99, "duration": 278}, {"note": 80, "velocity": 105, "duration": 266}, {"note": 78, "velocity": 106, "duration": 436}, {"note": 75, "velocity": 98, "duration": 523}, {"note": 0, "velocity": 0, "duration": 437}, {"note": 73, "velocity": 105, "duration": 244}, {"note": 75, "velocity": 92, "duration": 161}, {"note": 0, "velocity": 0, "duration": 79}, {"note": 75, "velocity": 96, "duration": 126}, {"note": 0, "velocity": 0, "duration": 114}, {"note": 75, "velocity": 89, "duration": 146}, {"note": 0, "velocity": 0, "duration": 94}, {"note": 75, "velocity": 94, "duration": 137}, {"note": 0, "velocity": 0, "duration": 103}, {"note": 75, "velocity": 94, "duration": 379}, {"note": 0, "velocity": 0, "duration": 101}, {"note": 75, "velocity": 92, "duration": 231}, {"note": 78, "velocity": 87, "duration": 246}, {"note": 75, "velocity": 93, "duration": 245}, {"note": 73, "velocity": 97, "duration": 138}, {"note": 0, "velocity": 0, "duration": 102}, {"note": 73, "velocity": 85, "duration": 439}, {"note": 70, "velocity": 87, "duration": 402}, {"note": 0, "velocity": 0, "duration": 318}, {"note": 70, "velocity": 98, "duration": 227}, {"note": 68, "velocity": 97, "duration": 250}, {"note": 70, "velocity": 93, "duration": 291}, {"note": 68, "velocity": 93, "duration": 224}, {"note": 66, "velocity": 92, "duration": 451}, {"note": 63, "velocity": 90, "duration": 318}, {"note": 0, "velocity": 0, "duration": 162}, {"note": 70, "velocity": 101, "duration": 232}, {"note": 68, "velocity": 97, "duration": 251}, {"note": 70, "velocity": 93, "duration": 286}, {"note": 68, "velocity": 93, "duration": 259}, {"note": 66, "velocity": 95, "duration": 474}, {"note": 63, "velocity": 66, "duration": 339}, {"note": 0, "velocity": 0, "duration": 141}, {"note": 63, "velocity": 76, "duration": 240}, {"note": 75, "velocity": 87, "duration": 160}, {"note": 0, "velocity": 0, "duration": 80}, {"note": 75, "velocity": 68, "duration": 152}, {"note": 0, "velocity": 0, "duration": 88}, {"note": 75, "velocity": 98, "duration": 140}, {"note": 0, "velocity": 0, "duration": 100}, {"note": 75, "velocity": 91, "duration": 142}, {"note": 0, "velocity": 0, "duration": 98}, {"note": 75, "velocity": 90, "duration": 127}, {"note": 0, "velocity": 0, "duration": 113}, {"note": 75, "velocity": 90, "duration": 124}, {"note": 0, "velocity": 0, "duration": 116}, {"note": 75, "velocity": 90, "duration": 223}, {"note": 78, "velocity": 90, "duration": 229}, {"note": 75, "velocity": 93, "duration": 250}, {"note": 73, "velocity": 91, "duration": 267}, {"note": 75, "velocity": 95, "duration": 253}, {"note": 73, "velocity": 89, "duration": 510}, {"note": 73, "velocity": 93, "duration": 30}, {"note": 0, "velocity": 0, "duration": 210}, {"note": 75, "velocity": 91, "duration": 236}, {"note": 78, "velocity": 87, "duration": 275}, {"note": 80, "velocity": 95, "duration": 163}, {"note": 0, "velocity": 0, "duration": 77}, {"note": 80, "velocity": 96, "duration": 173}, {"note": 0, "velocity": 0, "duration": 67}, {"note": 80, "velocity": 93, "duration": 157}, {"note": 0, "velocity": 0, "duration": 83}, {"note": 80, "velocity": 91, "duration": 141}, {"note": 0, "velocity": 0, "duration": 99}, {"note": 80, "velocity": 91, "duration": 136}, {"note": 0, "velocity": 0, "duration": 104}, {"note": 80, "velocity": 90, "duration": 133}, {"note": 0, "velocity": 0, "duration": 107}, {"note": 80, "velocity": 97, "duration": 262}, {"note": 82, "velocity": 97, "duration": 291}, {"note": 80, "velocity": 93, "duration": 242}, {"note": 78, "velocity": 87, "duration": 134}, {"note": 0, "velocity": 0, "duration": 106}, {"note": 78, "velocity": 83, "duration": 464}, {"note": 75, "velocity": 96, "duration": 482}, {"note": 0, "velocity": 0, "duration": 238}, {"note": 73, "velocity": 108, "duration": 245}, {"note": 75, "velocity": 95, "duration": 165}, {"note": 0, "velocity": 0, "duration": 75}, {"note": 75, "velocity": 92, "duration": 142}, {"note": 0, "velocity": 0, "duration": 98}, {"note": 75, "velocity": 97, "duration": 153}, {"note": 0, "velocity": 0, "duration": 87}, {"note": 75, "velocity": 92, "duration": 137}, {"note": 0, "velocity": 0, "duration": 103}, {"note": 75, "velocity": 94, "duration": 137}, {"note": 0, "velocity": 0, "duration": 103}, {"note": 75, "velocity": 90, "duration": 138}, {"note": 0, "velocity": 0, "duration": 102}, {"note": 75, "velocity": 99, "duration": 198}, {"note": 78, "velocity": 91, "duration": 210}, {"note": 75, "velocity": 98, "duration": 204}, {"note": 73, "velocity": 94, "duration": 159}, {"note": 0, "velocity": 0, "duration": 81}, {"note": 73, "velocity": 91, "duration": 453}, {"note": 70, "velocity": 90, "duration": 552}, {"note": 0, "velocity": 0, "duration": 168}, {"note": 70, "velocity": 97, "duration": 222}, {"note": 68, "velocity": 93, "duration": 263}, {"note": 70, "velocity": 89, "duration": 272}, {"note": 68, "velocity": 89, "duration": 223}, {"note": 66, "velocity": 86, "duration": 245}, {"note": 63, "velocity": 71, "duration": 462}, {"note": 0, "velocity": 0, "duration": 258}, {"note": 70, "velocity": 90, "duration": 239}, {"note": 68, "velocity": 93, "duration": 279}, {"note": 70, "velocity": 87, "duration": 289}, {"note": 68, "velocity": 84, "duration": 259}, {"note": 66, "velocity": 91, "duration": 473}, {"note": 63, "velocity": 63, "duration": 355}, {"note": 0, "velocity": 0, "duration": 125}, {"note": 63, "velocity": 86, "duration": 207}, {"note": 75, "velocity": 79, "duration": 160}, {"note": 0, "velocity": 0, "duration": 80}, {"note": 75, "velocity": 90, "duration": 141}, {"note": 0, "velocity": 0, "duration": 99}, {"note": 75, "velocity": 83, "duration": 132}, {"note": 0, "velocity": 0, "duration": 108}, {"note": 75, "velocity": 87, "duration": 143}, {"note": 0, "velocity": 0, "duration": 97}, {"note": 75, "velocity": 90, "duration": 179}, {"note": 0, "velocity": 0, "duration": 61}, {"note": 75, "velocity": 90, "duration": 459}, {"note": 78, "velocity": 89, "duration": 263}, {"note": 75, "velocity": 96, "duration": 253}, {"note": 73, "velocity": 90, "duration": 278}, {"note": 75, "velocity": 67, "duration": 209}, {"note": 73, "velocity": 87, "duration": 593}, {"note": 73, "velocity": 97, "duration": 113}, {"note": 0, "velocity": 0, "duration": 127}, {"note": 75, "velocity": 95, "duration": 206}, {"note": 78, "velocity": 97, "duration": 307}, {"note": 80, "velocity": 89, "duration": 139}, {"note": 0, "velocity": 0, "duration": 101}, {"note": 80, "velocity": 87, "duration": 171}, {"note": 0, "velocity": 0, "duration": 69}, {"note": 80, "velocity": 90, "duration": 149}, {"note": 0, "velocity": 0, "duration": 91}, {"note": 80, "velocity": 86, "duration": 155}, {"note": 0, "velocity": 0, "duration": 85}, {"note": 80, "velocity": 97, "duration": 323}, {"note": 0, "velocity": 0, "duration": 157}, {"note": 80, "velocity": 101, "duration": 276}, {"note": 82, "velocity": 96, "duration": 272}, {"note": 80, "velocity": 99, "duration": 240}, {"note": 78, "velocity": 90, "duration": 171}, {"note": 0, "velocity": 0, "duration": 69}, {"note": 78, "velocity": 90, "duration": 475}, {"note": 75, "velocity": 98, "duration": 585}, {"note": 0, "velocity": 0, "duration": 375}, {"note": 75, "velocity": 101, "duration": 212}, {"note": 75, "velocity": 101, "duration": 231}, {"note": 75, "velocity": 95, "duration": 212}, {"note": 75, "velocity": 94, "duration": 232}, {"note": 75, "velocity": 105, "duration": 344}, {"note": 0, "velocity": 0, "duration": 136}, {"note": 75, "velocity": 103, "duration": 226}, {"note": 78, "velocity": 94, "duration": 209}, {"note": 75, "velocity": 105, "duration": 250}, {"note": 73, "velocity": 97, "duration": 157}, {"note": 0, "velocity": 0, "duration": 83}, {"note": 73, "velocity": 99, "duration": 451}, {"note": 70, "velocity": 98, "duration": 521}, {"note": 0, "velocity": 0, "duration": 199}, {"note": 70, "velocity": 97, "duration": 214}, {"note": 68, "velocity": 86, "duration": 224}, {"note": 70, "velocity": 95, "duration": 289}, {"note": 68, "velocity": 94, "duration": 226}, {"note": 66, "velocity": 90, "duration": 249}, {"note": 63, "velocity": 77, "duration": 423}, {"note": 0, "velocity": 0, "duration": 297}, {"note": 70, "velocity": 94, "duration": 286}, {"note": 68, "velocity": 94, "duration": 251}, {"note": 70, "velocity": 92, "duration": 294}, {"note": 68, "velocity": 89, "duration": 222}, {"note": 66, "velocity": 91, "duration": 437}, {"note": 63, "velocity": 74, "duration": 289}, {"note": 0, "velocity": 0, "duration": 671}, {"note": 61, "velocity": 73, "duration": 253}, {"note": 63, "velocity": 73, "duration": 244}, {"note": 66, "velocity": 66, "duration": 150}, {"note": 0, "velocity": 0, "duration": 90}, {"note": 75, "velocity": 90, "duration": 357}, {"note": 73, "velocity": 94, "duration": 528}, {"note": 70, "velocity": 100, "duration": 851}, {"note": 0, "velocity": 0, "duration": 349}, {"note": 68, "velocity": 96, "duration": 472}, {"note": 68, "velocity": 97, "duration": 244}, {"note": 70, "velocity": 91, "duration": 240}, {"note": 66, "velocity": 91, "duration": 267}, {"note": 63, "velocity": 100, "duration": 373}, {"note": 0, "velocity": 0, "duration": 107}, {"note": 63, "velocity": 84, "duration": 1597}, {"note": 0, "velocity": 0, "duration": 803}, {"note": 61, "velocity": 66, "duration": 254}, {"note": 63, "velocity": 73, "duration": 244}, {"note": 66, "velocity": 66, "duration": 150}, {"note": 0, "velocity": 0, "duration": 90}, {"note": 75, "velocity": 90, "duration": 450}, {"note": 73, "velocity": 94, "duration": 423}, {"note": 70, "velocity": 100, "duration": 852}, {"note": 0, "velocity": 0, "duration": 348}, {"note": 68, "velocity": 93, "duration": 500}, {"note": 68, "velocity": 97, "duration": 20}, {"note": 0, "velocity": 0, "duration": 220}, {"note": 70, "velocity": 91, "duration": 240}, {"note": 66, "velocity": 91, "duration": 267}, {"note": 63, "velocity": 100, "duration": 545}, {"note": 75, "velocity": 127, "duration": 1451}, {"note": 0, "velocity": 0, "duration": 589}, {"note": 78, "velocity": 100, "duration": 1425}, {"note": 0, "velocity": 0, "duration": 495}, {"note": 82, "velocity": 127, "duration": 5696}, {"note": 0, "velocity": 0, "duration": 33904}, {"note": 73, "velocity": 87, "duration": 203}, {"note": 75, "velocity": 95, "duration": 206}, {"note": 78, "velocity": 97, "duration": 307}, {"note": 80, "velocity": 89, "duration": 139}, {"note": 0, "velocity": 0, "duration": 101}, {"note": 80, "velocity": 87, "duration": 171}, {"note": 0, "velocity": 0, "duration": 69}, {"note": 80, "velocity": 90, "duration": 150}, {"note": 0, "velocity": 0, "duration": 90}, {"note": 80, "velocity": 86, "duration": 155}, {"note": 0, "velocity": 0, "duration": 85}, {"note": 80, "velocity": 97, "duration": 178}, {"note": 0, "velocity": 0, "duration": 62}, {"note": 80, "velocity": 97, "duration": 103}, {"note": 0, "velocity": 0, "duration": 137}, {"note": 80, "velocity": 101, "duration": 276}, {"note": 82, "velocity": 96, "duration": 272}, {"note": 80, "velocity": 99, "duration": 240}, {"note": 78, "velocity": 90, "duration": 512}, {"note": 75, "velocity": 98, "duration": 836}, {"note": 0, "velocity": 0, "duration": 364}, {"note": 75, "velocity": 101, "duration": 212}, {"note": 75, "velocity": 101, "duration": 231}, {"note": 75, "velocity": 95, "duration": 212}, {"note": 75, "velocity": 94, "duration": 232}, {"note": 75, "velocity": 105, "duration": 194}, {"note": 75, "velocity": 105, "duration": 143}, {"note": 0, "velocity": 0, "duration": 97}, {"note": 75, "velocity": 103, "duration": 226}, {"note": 78, "velocity": 94, "duration": 209}, {"note": 75, "velocity": 105, "duration": 250}, {"note": 73, "velocity": 97, "duration": 157}, {"note": 0, "velocity": 0, "duration": 83}, {"note": 73, "velocity": 99, "duration": 451}, {"note": 70, "velocity": 98, "duration": 521}, {"note": 0, "velocity": 0, "duration": 199}, {"note": 70, "velocity": 97, "duration": 214}, {"note": 68, "velocity": 86, "duration": 224}, {"note": 70, "velocity": 95, "duration": 289}, {"note": 68, "velocity": 94, "duration": 226}, {"note": 66, "velocity": 90, "duration": 513}, {"note": 63, "velocity": 77, "duration": 370}, {"note": 0, "velocity": 0, "duration": 110}, {"note": 70, "velocity": 94, "duration": 286}, {"note": 68, "velocity": 94, "duration": 251}, {"note": 70, "velocity": 92, "duration": 294}, {"note": 68, "velocity": 89, "duration": 222}, {"note": 66, "velocity": 91, "duration": 437}, {"note": 63, "velocity": 74, "duration": 290}, {"note": 0, "velocity": 0, "duration": 190}, {"note": 63, "velocity": 76, "duration": 223}, {"note": 75, "velocity": 87, "duration": 95}, {"note": 0, "velocity": 0, "duration": 145}, {"note": 75, "velocity": 91, "duration": 118}, {"note": 0, "velocity": 0, "duration": 122}, {"note": 75, "velocity": 96, "duration": 131}, {"note": 0, "velocity": 0, "duration": 109}, {"note": 75, "velocity": 95, "duration": 128}, {"note": 0, "velocity": 0, "duration": 112}, {"note": 75, "velocity": 93, "duration": 458}, {"note": 70, "velocity": 100, "duration": 165}, {"note": 0, "velocity": 0, "duration": 75}, {"note": 75, "velocity": 100, "duration": 461}, {"note": 73, "velocity": 100, "duration": 653}, {"note": 0, "velocity": 0, "duration": 307}, {"note": 73, "velocity": 97, "duration": 205}, {"note": 75, "velocity": 101, "duration": 167}, {"note": 0, "velocity": 0, "duration": 73}, {"note": 78, "velocity": 97, "duration": 275}, {"note": 80, "velocity": 97, "duration": 444}, {"note": 80, "velocity": 94, "duration": 161}, {"note": 0, "velocity": 0, "duration": 79}, {"note": 80, "velocity": 77, "duration": 131}, {"note": 0, "velocity": 0, "duration": 109}, {"note": 80, "velocity": 105, "duration": 334}, {"note": 0, "velocity": 0, "duration": 146}, {"note": 80, "velocity": 100, "duration": 256}, {"note": 82, "velocity": 99, "duration": 277}, {"note": 80, "velocity": 105, "duration": 266}, {"note": 78, "velocity": 106, "duration": 436}, {"note": 75, "velocity": 98, "duration": 522}, {"note": 0, "velocity": 0, "duration": 438}, {"note": 73, "velocity": 105, "duration": 244}, {"note": 75, "velocity": 92, "duration": 160}, {"note": 0, "velocity": 0, "duration": 80}, {"note": 75, "velocity": 96, "duration": 126}, {"note": 0, "velocity": 0, "duration": 114}, {"note": 75, "velocity": 89, "duration": 146}, {"note": 0, "velocity": 0, "duration": 94}, {"note": 75, "velocity": 94, "duration": 136}, {"note": 0, "velocity": 0, "duration": 104}, {"note": 75, "velocity": 94, "duration": 380}, {"note": 0, "velocity": 0, "duration": 100}, {"note": 75, "velocity": 92, "duration": 232}, {"note": 78, "velocity": 87, "duration": 247}, {"note": 75, "velocity": 93, "duration": 244}, {"note": 73, "velocity": 97, "duration": 137}, {"note": 0, "velocity": 0, "duration": 103}, {"note": 73, "velocity": 85, "duration": 438}, {"note": 70, "velocity": 87, "duration": 402}, {"note": 0, "velocity": 0, "duration": 318}, {"note": 70, "velocity": 98, "duration": 227}, {"note": 68, "velocity": 97, "duration": 249}, {"note": 70, "velocity": 93, "duration": 291}, {"note": 68, "velocity": 93, "duration": 225}, {"note": 66, "velocity": 92, "duration": 451}, {"note": 63, "velocity": 90, "duration": 319}, {"note": 0, "velocity": 0, "duration": 161}, {"note": 70, "velocity": 101, "duration": 232}, {"note": 68, "velocity": 97, "duration": 251}, {"note": 70, "velocity": 93, "duration": 286}, {"note": 68, "velocity": 93, "duration": 258}, {"note": 66, "velocity": 95, "duration": 474}, {"note": 63, "velocity": 66, "duration": 339}, {"note": 0, "velocity": 0, "duration": 141}, {"note": 63, "velocity": 76, "duration": 116}, {"note": 0, "velocity": 0, "duration": 124}, {"note": 75, "velocity": 87, "duration": 160}, {"note": 0, "velocity": 0, "duration": 80}, {"note": 75, "velocity": 68, "duration": 152}, {"note": 0, "velocity": 0, "duration": 88}, {"note": 75, "velocity": 98, "duration": 139}, {"note": 0, "velocity": 0, "duration": 101}, {"note": 75, "velocity": 91, "duration": 143}, {"note": 0, "velocity": 0, "duration": 97}, {"note": 75, "velocity": 90, "duration": 128}, {"note": 0, "velocity": 0, "duration": 112}, {"note": 75, "velocity": 90, "duration": 124}, {"note": 0, "velocity": 0, "duration": 116}, {"note": 75, "velocity": 90, "duration": 224}, {"note": 78, "velocity": 90, "duration": 228}, {"note": 75, "velocity": 93, "duration": 249}, {"note": 73, "velocity": 91, "duration": 267}, {"note": 75, "velocity": 95, "duration": 252}, {"note": 73, "velocity": 89, "duration": 510}, {"note": 73, "velocity": 93, "duration": 30}, {"note": 0, "velocity": 0, "duration": 210}, {"note": 75, "velocity": 91, "duration": 235}, {"note": 78, "velocity": 87, "duration": 275}, {"note": 80, "velocity": 95, "duration": 163}, {"note": 0, "velocity": 0, "duration": 77}, {"note": 80, "velocity": 96, "duration": 172}, {"note": 0, "velocity": 0, "duration": 68}, {"note": 80, "velocity": 93, "duration": 156}, {"note": 0, "velocity": 0, "duration": 84}, {"note": 80, "velocity": 91, "duration": 140}, {"note": 0, "velocity": 0, "duration": 100}, {"note": 80, "velocity": 91, "duration": 136}, {"note": 0, "velocity": 0, "duration": 104}, {"note": 80, "velocity": 90, "duration": 133}, {"note": 0, "velocity": 0, "duration": 107}, {"note": 80, "velocity": 97, "duration": 263}, {"note": 82, "velocity": 97, "duration": 290}, {"note": 80, "velocity": 93, "duration": 241}, {"note": 78, "velocity": 87, "duration": 134}, {"note": 0, "velocity": 0, "duration": 106}, {"note": 78, "velocity": 83, "duration": 465}, {"note": 75, "velocity": 96, "duration": 482}, {"note": 0, "velocity": 0, "duration": 238}, {"note": 73, "velocity": 108, "duration": 244}, {"note": 75, "velocity": 95, "duration": 165}, {"note": 0, "velocity": 0, "duration": 75}, {"note": 75, "velocity": 92, "duration": 143}, {"note": 0, "velocity": 0, "duration": 97}, {"note": 75, "velocity": 97, "duration": 152}, {"note": 0, "velocity": 0, "duration": 88}, {"note": 75, "velocity": 92, "duration": 137}, {"note": 0, "velocity": 0, "duration": 103}, {"note": 75, "velocity": 94, "duration": 136}, {"note": 0, "velocity": 0, "duration": 104}, {"note": 75, "velocity": 90, "duration": 138}, {"note": 0, "velocity": 0, "duration": 102}, {"note": 75, "velocity": 99, "duration": 197}, {"note": 78, "velocity": 91, "duration": 210}, {"note": 75, "velocity": 98, "duration": 204}, {"note": 73, "velocity": 94, "duration": 158}, {"note": 0, "velocity": 0, "duration": 82}, {"note": 73, "velocity": 91, "duration": 453}, {"note": 70, "velocity": 90, "duration": 552}, {"note": 0, "velocity": 0, "duration": 168}, {"note": 70, "velocity": 97, "duration": 221}, {"note": 68, "velocity": 93, "duration": 264}, {"note": 70, "velocity": 89, "duration": 271}, {"note": 68, "velocity": 89, "duration": 222}, {"note": 66, "velocity": 86, "duration": 246}, {"note": 63, "velocity": 71, "duration": 462}]]