[[{"note": 64, "velocity": 63, "duration": 302}, {"note": 0, "velocity": 0, "duration": 178}, {"note": 72, "velocity": 71, "duration": 331}, {"note": 0, "velocity": 0, "duration": 149}, {"note": 74, "velocity": 89, "duration": 372}, {"note": 0, "velocity": 0, "duration": 108}, {"note": 72, "velocity": 83, "duration": 168}, {"note": 0, "velocity": 0, "duration": 72}, {"note": 76, "velocity": 87, "duration": 396}, {"note": 0, "velocity": 0, "duration": 84}, {"note": 72, "velocity": 83, "duration": 293}, {"note": 0, "velocity": 0, "duration": 187}, {"note": 74, "velocity": 93, "duration": 344}, {"note": 0, "velocity": 0, "duration": 136}, {"note": 72, "velocity": 97, "duration": 499}, {"note": 0, "velocity": 0, "duration": 701}, {"note": 72, "velocity": 71, "duration": 327}, {"note": 0, "velocity": 0, "duration": 153}, {"note": 74, "velocity": 75, "duration": 330}, {"note": 0, "velocity": 0, "duration": 150}, {"note": 72, "velocity": 80, "duration": 132}, {"note": 0, "velocity": 0, "duration": 108}, {"note": 76, "velocity": 90, "duration": 314}, {"note": 0, "velocity": 0, "duration": 166}, {"note": 72, "velocity": 77, "duration": 271}, {"note": 0, "velocity": 0, "duration": 209}, {"note": 72, "velocity": 68, "duration": 313}, {"note": 74, "velocity": 84, "duration": 269}, {"note": 76, "velocity": 87, "duration": 504}, {"note": 0, "velocity": 0, "duration": 216}, {"note": 76, "velocity": 106, "duration": 1246}, {"note": 74, "velocity": 91, "duration": 300}, {"note": 72, "velocity": 87, "duration": 272}, {"note": 74, "velocity": 94, "duration": 339}, {"note": 0, "velocity": 0, "duration": 141}, {"note": 67, "velocity": 94, "duration": 784}, {"note": 67, "velocity": 62, "duration": 304}, {"note": 69, "velocity": 71, "duration": 249}, {"note": 72, "velocity": 100, "duration": 477}, {"note": 0, "velocity": 0, "duration": 243}, {"note": 77, "velocity": 100, "duration": 407}, {"note": 0, "velocity": 0, "duration": 73}, {"note": 76, "velocity": 94, "duration": 414}, {"note": 0, "velocity": 0, "duration": 66}, {"note": 74, "velocity": 89, "duration": 460}, {"note": 72, "velocity": 66, "duration": 273}, {"note": 74, "velocity": 87, "duration": 509}, {"note": 76, "velocity": 90, "duration": 223}, {"note": 72, "velocity": 64, "duration": 290}, {"note": 74, "velocity": 89, "duration": 522}, {"note": 76, "velocity": 95, "duration": 444}, {"note": 0, "velocity": 0, "duration": 276}, {"note": 64, "velocity": 82, "duration": 9}, {"note": 72, "velocity": 83, "duration": 505}, {"note": 74, "velocity": 86, "duration": 493}, {"note": 72, "velocity": 66, "duration": 261}, {"note": 76, "velocity": 89, "duration": 484}, {"note": 72, "velocity": 85, "duration": 327}, {"note": 0, "velocity": 0, "duration": 153}, {"note": 72, "velocity": 90, "duration": 320}, {"note": 74, "velocity": 90, "duration": 281}, {"note": 72, "velocity": 93, "duration": 74}, {"note": 0, "velocity": 0, "duration": 284}, {"note": 64, "velocity": 86, "duration": 322}, {"note": 0, "velocity": 0, "duration": 158}, {"note": 72, "velocity": 90, "duration": 294}, {"note": 0, "velocity": 0, "duration": 186}, {"note": 74, "velocity": 98, "duration": 367}, {"note": 0, "velocity": 0, "duration": 113}, {"note": 72, "velocity": 95, "duration": 150}, {"note": 0, "velocity": 0, "duration": 90}, {"note": 76, "velocity": 90, "duration": 292}, {"note": 0, "velocity": 0, "duration": 188}, {"note": 72, "velocity": 95, "duration": 281}, {"note": 0, "velocity": 0, "duration": 199}, {"note": 72, "velocity": 93, "duration": 161}, {"note": 0, "velocity": 0, "duration": 79}, {"note": 74, "velocity": 96, "duration": 164}, {"note": 0, "velocity": 0, "duration": 76}, {"note": 76, "velocity": 91, "duration": 484}, {"note": 0, "velocity": 0, "duration": 236}, {"note": 76, "velocity": 98, "duration": 930}, {"note": 0, "velocity": 0, "duration": 270}, {"note": 74, "velocity": 90, "duration": 298}, {"note": 72, "velocity": 82, "duration": 277}, {"note": 74, "velocity": 83, "duration": 414}, {"note": 0, "velocity": 0, "duration": 66}, {"note": 67, "velocity": 81, "duration": 296}, {"note": 0, "velocity": 0, "duration": 184}, {"note": 67, "velocity": 79, "duration": 177}, {"note": 0, "velocity": 0, "duration": 63}, {"note": 69, "velocity": 91, "duration": 174}, {"note": 0, "velocity": 0, "duration": 66}, {"note": 72, "velocity": 95, "duration": 387}, {"note": 0, "velocity": 0, "duration": 333}, {"note": 77, "velocity": 101, "duration": 339}, {"note": 0, "velocity": 0, "duration": 141}, {"note": 76, "velocity": 97, "duration": 321}, {"note": 0, "velocity": 0, "duration": 159}, {"note": 74, "velocity": 96, "duration": 432}, {"note": 72, "velocity": 86, "duration": 166}, {"note": 0, "velocity": 0, "duration": 74}, {"note": 76, "velocity": 97, "duration": 407}, {"note": 0, "velocity": 0, "duration": 73}, {"note": 74, "velocity": 83, "duration": 329}, {"note": 72, "velocity": 83, "duration": 351}, {"note": 76, "velocity": 90, "duration": 597}, {"note": 74, "velocity": 96, "duration": 427}, {"note": 0, "velocity": 0, "duration": 278}, {"note": 79, "velocity": 97, "duration": 331}, {"note": 0, "velocity": 0, "duration": 149}, {"note": 79, "velocity": 96, "duration": 411}, {"note": 0, "velocity": 0, "duration": 69}, {"note": 72, "velocity": 84, "duration": 203}, {"note": 76, "velocity": 96, "duration": 490}, {"note": 74, "velocity": 87, "duration": 486}, {"note": 76, "velocity": 98, "duration": 373}, {"note": 0, "velocity": 0, "duration": 467}, {"note": 72, "velocity": 71, "duration": 219}, {"note": 74, "velocity": 66, "duration": 270}, {"note": 76, "velocity": 98, "duration": 493}, {"note": 77, "velocity": 95, "duration": 299}, {"note": 76, "velocity": 103, "duration": 285}, {"note": 74, "velocity": 91, "duration": 496}, {"note": 76, "velocity": 96, "duration": 471}, {"note": 72, "velocity": 101, "duration": 929}, {"note": 0, "velocity": 0, "duration": 991}, {"note": 76, "velocity": 93, "duration": 523}, {"note": 72, "velocity": 95, "duration": 293}, {"note": 0, "velocity": 0, "duration": 187}, {"note": 72, "velocity": 87, "duration": 444}, {"note": 69, "velocity": 77, "duration": 273}, {"note": 76, "velocity": 105, "duration": 504}, {"note": 74, "velocity": 101, "duration": 919}, {"note": 0, "velocity": 0, "duration": 281}, {"note": 72, "velocity": 98, "duration": 312}, {"note": 74, "velocity": 108, "duration": 894}, {"note": 72, "velocity": 93, "duration": 1687}, {"note": 0, "velocity": 0, "duration": 1673}, {"note": 76, "velocity": 97, "duration": 191}, {"note": 72, "velocity": 90, "duration": 124}, {"note": 0, "velocity": 0, "duration": 116}, {"note": 72, "velocity": 90, "duration": 162}, {"note": 0, "velocity": 0, "duration": 78}, {"note": 74, "velocity": 97, "duration": 336}, {"note": 0, "velocity": 0, "duration": 144}, {"note": 72, "velocity": 98, "duration": 367}, {"note": 0, "velocity": 0, "duration": 113}, {"note": 76, "velocity": 103, "duration": 376}, {"note": 0, "velocity": 0, "duration": 104}, {"note": 72, "velocity": 82, "duration": 112}, {"note": 0, "velocity": 0, "duration": 128}, {"note": 72, "velocity": 91, "duration": 153}, {"note": 0, "velocity": 0, "duration": 87}, {"note": 74, "velocity": 90, "duration": 119}, {"note": 0, "velocity": 0, "duration": 121}, {"note": 74, "velocity": 94, "duration": 218}, {"note": 72, "velocity": 91, "duration": 298}, {"note": 74, "velocity": 100, "duration": 270}, {"note": 0, "velocity": 0, "duration": 330}, {"note": 76, "velocity": 109, "duration": 174}, {"note": 72, "velocity": 87, "duration": 129}, {"note": 0, "velocity": 0, "duration": 111}, {"note": 72, "velocity": 92, "duration": 142}, {"note": 0, "velocity": 0, "duration": 98}, {"note": 74, "velocity": 100, "duration": 340}, {"note": 0, "velocity": 0, "duration": 140}, {"note": 72, "velocity": 100, "duration": 283}, {"note": 0, "velocity": 0, "duration": 197}, {"note": 76, "velocity": 114, "duration": 294}, {"note": 0, "velocity": 0, "duration": 186}, {"note": 72, "velocity": 97, "duration": 118}, {"note": 0, "velocity": 0, "duration": 122}, {"note": 72, "velocity": 93, "duration": 151}, {"note": 0, "velocity": 0, "duration": 89}, {"note": 74, "velocity": 97, "duration": 125}, {"note": 0, "velocity": 0, "duration": 115}, {"note": 74, "velocity": 100, "duration": 221}, {"note": 72, "velocity": 97, "duration": 188}, {"note": 74, "velocity": 108, "duration": 256}, {"note": 0, "velocity": 0, "duration": 224}, {"note": 79, "velocity": 97, "duration": 1193}, {"note": 77, "velocity": 90, "duration": 303}, {"note": 76, "velocity": 92, "duration": 250}, {"note": 72, "velocity": 90, "duration": 388}, {"note": 0, "velocity": 0, "duration": 92}, {"note": 72, "velocity": 92, "duration": 754}, {"note": 0, "velocity": 0, "duration": 206}, {"note": 67, "velocity": 67, "duration": 272}, {"note": 69, "velocity": 85, "duration": 241}, {"note": 72, "velocity": 96, "duration": 125}, {"note": 0, "velocity": 0, "duration": 115}, {"note": 72, "velocity": 94, "duration": 236}, {"note": 65, "velocity": 62, "duration": 158}, {"note": 67, "velocity": 62, "duration": 257}, {"note": 69, "velocity": 82, "duration": 262}, {"note": 72, "velocity": 92, "duration": 129}, {"note": 0, "velocity": 0, "duration": 111}, {"note": 72, "velocity": 96, "duration": 200}, {"note": 67, "velocity": 65, "duration": 290}, {"note": 69, "velocity": 77, "duration": 250}, {"note": 72, "velocity": 92, "duration": 171}, {"note": 0, "velocity": 0, "duration": 69}, {"note": 76, "velocity": 90, "duration": 403}, {"note": 0, "velocity": 0, "duration": 77}, {"note": 77, "velocity": 77, "duration": 240}, {"note": 72, "velocity": 93, "duration": 377}, {"note": 0, "velocity": 0, "duration": 103}, {"note": 74, "velocity": 105, "duration": 600}, {"note": 0, "velocity": 0, "duration": 120}, {"note": 76, "velocity": 100, "duration": 227}, {"note": 72, "velocity": 93, "duration": 115}, {"note": 0, "velocity": 0, "duration": 125}, {"note": 72, "velocity": 94, "duration": 146}, {"note": 0, "velocity": 0, "duration": 94}, {"note": 74, "velocity": 100, "duration": 297}, {"note": 0, "velocity": 0, "duration": 183}, {"note": 72, "velocity": 101, "duration": 304}, {"note": 0, "velocity": 0, "duration": 176}, {"note": 76, "velocity": 101, "duration": 400}, {"note": 0, "velocity": 0, "duration": 80}, {"note": 72, "velocity": 97, "duration": 125}, {"note": 0, "velocity": 0, "duration": 115}, {"note": 72, "velocity": 90, "duration": 152}, {"note": 0, "velocity": 0, "duration": 88}, {"note": 74, "velocity": 93, "duration": 112}, {"note": 0, "velocity": 0, "duration": 128}, {"note": 74, "velocity": 95, "duration": 181}, {"note": 72, "velocity": 97, "duration": 138}, {"note": 0, "velocity": 0, "duration": 102}, {"note": 74, "velocity": 105, "duration": 250}, {"note": 0, "velocity": 0, "duration": 230}, {"note": 76, "velocity": 95, "duration": 172}, {"note": 0, "velocity": 0, "duration": 68}, {"note": 72, "velocity": 89, "duration": 109}, {"note": 0, "velocity": 0, "duration": 131}, {"note": 72, "velocity": 93, "duration": 118}, {"note": 0, "velocity": 0, "duration": 122}, {"note": 74, "velocity": 99, "duration": 278}, {"note": 0, "velocity": 0, "duration": 202}, {"note": 72, "velocity": 97, "duration": 266}, {"note": 0, "velocity": 0, "duration": 214}, {"note": 76, "velocity": 97, "duration": 289}, {"note": 0, "velocity": 0, "duration": 191}, {"note": 72, "velocity": 95, "duration": 94}, {"note": 0, "velocity": 0, "duration": 146}, {"note": 72, "velocity": 90, "duration": 101}, {"note": 0, "velocity": 0, "duration": 139}, {"note": 74, "velocity": 89, "duration": 82}, {"note": 0, "velocity": 0, "duration": 158}, {"note": 74, "velocity": 91, "duration": 201}, {"note": 72, "velocity": 87, "duration": 110}, {"note": 0, "velocity": 0, "duration": 130}, {"note": 74, "velocity": 97, "duration": 171}, {"note": 0, "velocity": 0, "duration": 309}, {"note": 79, "velocity": 106, "duration": 1026}, {"note": 0, "velocity": 0, "duration": 174}, {"note": 77, "velocity": 101, "duration": 310}, {"note": 76, "velocity": 87, "duration": 271}, {"note": 74, "velocity": 90, "duration": 454}, {"note": 72, "velocity": 99, "duration": 591}, {"note": 0, "velocity": 0, "duration": 489}, {"note": 67, "velocity": 87, "duration": 205}, {"note": 69, "velocity": 90, "duration": 193}, {"note": 72, "velocity": 97, "duration": 134}, {"note": 0, "velocity": 0, "duration": 106}, {"note": 72, "velocity": 105, "duration": 200}, {"note": 67, "velocity": 82, "duration": 230}, {"note": 69, "velocity": 90, "duration": 260}, {"note": 72, "velocity": 96, "duration": 135}, {"note": 0, "velocity": 0, "duration": 105}, {"note": 72, "velocity": 101, "duration": 206}, {"note": 67, "velocity": 89, "duration": 272}, {"note": 69, "velocity": 89, "duration": 196}, {"note": 72, "velocity": 93, "duration": 138}, {"note": 0, "velocity": 0, "duration": 102}, {"note": 76, "velocity": 98, "duration": 454}, {"note": 74, "velocity": 87, "duration": 187}, {"note": 72, "velocity": 98, "duration": 307}, {"note": 0, "velocity": 0, "duration": 173}, {"note": 67, "velocity": 92, "duration": 285}, {"note": 69, "velocity": 97, "duration": 207}, {"note": 72, "velocity": 99, "duration": 130}, {"note": 0, "velocity": 0, "duration": 110}, {"note": 72, "velocity": 105, "duration": 232}, {"note": 67, "velocity": 90, "duration": 238}, {"note": 69, "velocity": 91, "duration": 278}, {"note": 72, "velocity": 101, "duration": 120}, {"note": 0, "velocity": 0, "duration": 120}, {"note": 72, "velocity": 99, "duration": 212}, {"note": 67, "velocity": 64, "duration": 313}, {"note": 69, "velocity": 92, "duration": 227}, {"note": 72, "velocity": 96, "duration": 192}, {"note": 76, "velocity": 85, "duration": 489}, {"note": 77, "velocity": 100, "duration": 227}, {"note": 74, "velocity": 97, "duration": 396}, {"note": 0, "velocity": 0, "duration": 324}, {"note": 74, "velocity": 100, "duration": 226}, {"note": 74, "velocity": 97, "duration": 342}, {"note": 0, "velocity": 0, "duration": 138}, {"note": 72, "velocity": 89, "duration": 1275}, {"note": 0, "velocity": 0, "duration": 33045}, {"note": 64, "velocity": 63, "duration": 302}, {"note": 0, "velocity": 0, "duration": 178}, {"note": 72, "velocity": 71, "duration": 330}, {"note": 0, "velocity": 0, "duration": 150}, {"note": 74, "velocity": 89, "duration": 372}, {"note": 0, "velocity": 0, "duration": 108}, {"note": 72, "velocity": 83, "duration": 168}, {"note": 0, "velocity": 0, "duration": 72}, {"note": 76, "velocity": 87, "duration": 395}, {"note": 0, "velocity": 0, "duration": 85}, {"note": 72, "velocity": 83, "duration": 293}, {"note": 0, "velocity": 0, "duration": 187}, {"note": 74, "velocity": 93, "duration": 343}, {"note": 0, "velocity": 0, "duration": 137}, {"note": 72, "velocity": 97, "duration": 499}, {"note": 0, "velocity": 0, "duration": 701}, {"note": 72, "velocity": 71, "duration": 328}, {"note": 0, "velocity": 0, "duration": 152}, {"note": 74, "velocity": 75, "duration": 330}, {"note": 0, "velocity": 0, "duration": 150}, {"note": 72, "velocity": 80, "duration": 133}, {"note": 0, "velocity": 0, "duration": 107}, {"note": 76, "velocity": 90, "duration": 315}, {"note": 0, "velocity": 0, "duration": 165}, {"note": 72, "velocity": 77, "duration": 271}, {"note": 0, "velocity": 0, "duration": 209}, {"note": 72, "velocity": 68, "duration": 313}, {"note": 74, "velocity": 84, "duration": 270}, {"note": 76, "velocity": 87, "duration": 504}, {"note": 0, "velocity": 0, "duration": 216}, {"note": 76, "velocity": 106, "duration": 1246}, {"note": 74, "velocity": 91, "duration": 300}, {"note": 72, "velocity": 87, "duration": 272}, {"note": 74, "velocity": 94, "duration": 338}, {"note": 0, "velocity": 0, "duration": 142}, {"note": 67, "velocity": 94, "duration": 784}, {"note": 67, "velocity": 62, "duration": 304}, {"note": 69, "velocity": 71, "duration": 249}, {"note": 72, "velocity": 100, "duration": 477}, {"note": 0, "velocity": 0, "duration": 243}, {"note": 77, "velocity": 100, "duration": 408}, {"note": 0, "velocity": 0, "duration": 72}, {"note": 76, "velocity": 94, "duration": 414}, {"note": 0, "velocity": 0, "duration": 66}, {"note": 74, "velocity": 89, "duration": 460}, {"note": 72, "velocity": 66, "duration": 274}, {"note": 74, "velocity": 87, "duration": 509}, {"note": 76, "velocity": 90, "duration": 224}, {"note": 72, "velocity": 64, "duration": 290}, {"note": 74, "velocity": 89, "duration": 522}, {"note": 76, "velocity": 95, "duration": 444}, {"note": 0, "velocity": 0, "duration": 276}, {"note": 64, "velocity": 82, "duration": 314}, {"note": 72, "velocity": 83, "duration": 505}, {"note": 74, "velocity": 86, "duration": 493}, {"note": 72, "velocity": 66, "duration": 260}, {"note": 76, "velocity": 89, "duration": 484}, {"note": 72, "velocity": 85, "duration": 326}, {"note": 0, "velocity": 0, "duration": 154}, {"note": 72, "velocity": 90, "duration": 321}, {"note": 74, "velocity": 90, "duration": 281}, {"note": 72, "velocity": 93, "duration": 60}, {"note": 0, "velocity": 0, "duration": 284}, {"note": 64, "velocity": 86, "duration": 323}, {"note": 0, "velocity": 0, "duration": 157}, {"note": 72, "velocity": 90, "duration": 294}, {"note": 0, "velocity": 0, "duration": 186}, {"note": 74, "velocity": 98, "duration": 367}, {"note": 0, "velocity": 0, "duration": 113}, {"note": 72, "velocity": 95, "duration": 150}, {"note": 0, "velocity": 0, "duration": 90}, {"note": 76, "velocity": 90, "duration": 292}, {"note": 0, "velocity": 0, "duration": 188}, {"note": 72, "velocity": 95, "duration": 281}, {"note": 0, "velocity": 0, "duration": 199}, {"note": 72, "velocity": 93, "duration": 160}, {"note": 0, "velocity": 0, "duration": 80}, {"note": 74, "velocity": 96, "duration": 163}, {"note": 0, "velocity": 0, "duration": 77}, {"note": 76, "velocity": 91, "duration": 484}, {"note": 0, "velocity": 0, "duration": 236}, {"note": 76, "velocity": 98, "duration": 930}, {"note": 0, "velocity": 0, "duration": 270}, {"note": 74, "velocity": 90, "duration": 298}, {"note": 72, "velocity": 82, "duration": 278}, {"note": 74, "velocity": 83, "duration": 414}, {"note": 0, "velocity": 0, "duration": 66}, {"note": 67, "velocity": 81, "duration": 296}, {"note": 0, "velocity": 0, "duration": 184}, {"note": 67, "velocity": 79, "duration": 177}, {"note": 0, "velocity": 0, "duration": 63}, {"note": 69, "velocity": 91, "duration": 174}, {"note": 0, "velocity": 0, "duration": 66}, {"note": 72, "velocity": 95, "duration": 387}, {"note": 0, "velocity": 0, "duration": 333}, {"note": 77, "velocity": 101, "duration": 339}, {"note": 0, "velocity": 0, "duration": 141}, {"note": 76, "velocity": 97, "duration": 321}, {"note": 0, "velocity": 0, "duration": 159}, {"note": 74, "velocity": 96, "duration": 432}, {"note": 72, "velocity": 86, "duration": 166}, {"note": 0, "velocity": 0, "duration": 74}, {"note": 76, "velocity": 97, "duration": 407}, {"note": 0, "velocity": 0, "duration": 73}, {"note": 74, "velocity": 83, "duration": 329}, {"note": 72, "velocity": 83, "duration": 351}, {"note": 76, "velocity": 90, "duration": 597}, {"note": 74, "velocity": 96, "duration": 427}, {"note": 0, "velocity": 0, "duration": 265}, {"note": 79, "velocity": 97, "duration": 331}, {"note": 0, "velocity": 0, "duration": 149}, {"note": 79, "velocity": 96, "duration": 411}, {"note": 0, "velocity": 0, "duration": 69}, {"note": 72, "velocity": 84, "duration": 203}, {"note": 76, "velocity": 96, "duration": 490}, {"note": 74, "velocity": 87, "duration": 486}, {"note": 76, "velocity": 98, "duration": 373}, {"note": 0, "velocity": 0, "duration": 467}, {"note": 72, "velocity": 71, "duration": 219}, {"note": 74, "velocity": 66, "duration": 271}, {"note": 76, "velocity": 98, "duration": 493}, {"note": 77, "velocity": 95, "duration": 298}, {"note": 76, "velocity": 103, "duration": 285}, {"note": 74, "velocity": 91, "duration": 496}, {"note": 76, "velocity": 96, "duration": 470}, {"note": 72, "velocity": 101, "duration": 929}, {"note": 0, "velocity": 0, "duration": 991}, {"note": 76, "velocity": 93, "duration": 523}, {"note": 72, "velocity": 95, "duration": 293}, {"note": 0, "velocity": 0, "duration": 187}, {"note": 72, "velocity": 87, "duration": 444}, {"note": 69, "velocity": 77, "duration": 273}, {"note": 76, "velocity": 105, "duration": 504}, {"note": 74, "velocity": 101, "duration": 919}, {"note": 0, "velocity": 0, "duration": 281}, {"note": 72, "velocity": 98, "duration": 312}, {"note": 74, "velocity": 108, "duration": 895}, {"note": 72, "velocity": 93, "duration": 1687}, {"note": 0, "velocity": 0, "duration": 1553}, {"note": 76, "velocity": 97, "duration": 192}, {"note": 72, "velocity": 90, "duration": 124}, {"note": 0, "velocity": 0, "duration": 116}, {"note": 72, "velocity": 90, "duration": 163}, {"note": 0, "velocity": 0, "duration": 77}, {"note": 74, "velocity": 97, "duration": 336}, {"note": 0, "velocity": 0, "duration": 144}, {"note": 72, "velocity": 98, "duration": 366}, {"note": 0, "velocity": 0, "duration": 114}, {"note": 76, "velocity": 103, "duration": 375}, {"note": 0, "velocity": 0, "duration": 105}, {"note": 72, "velocity": 82, "duration": 113}, {"note": 0, "velocity": 0, "duration": 127}, {"note": 72, "velocity": 91, "duration": 152}, {"note": 0, "velocity": 0, "duration": 88}, {"note": 74, "velocity": 90, "duration": 118}, {"note": 0, "velocity": 0, "duration": 122}, {"note": 74, "velocity": 94, "duration": 218}, {"note": 72, "velocity": 91, "duration": 298}, {"note": 74, "velocity": 100, "duration": 269}, {"note": 0, "velocity": 0, "duration": 211}, {"note": 76, "velocity": 109, "duration": 174}, {"note": 0, "velocity": 0, "duration": 66}, {"note": 72, "velocity": 87, "duration": 129}, {"note": 0, "velocity": 0, "duration": 111}, {"note": 72, "velocity": 92, "duration": 141}, {"note": 0, "velocity": 0, "duration": 99}, {"note": 74, "velocity": 100, "duration": 340}, {"note": 0, "velocity": 0, "duration": 140}, {"note": 72, "velocity": 100, "duration": 283}, {"note": 0, "velocity": 0, "duration": 197}, {"note": 76, "velocity": 114, "duration": 294}, {"note": 0, "velocity": 0, "duration": 186}, {"note": 72, "velocity": 97, "duration": 118}, {"note": 0, "velocity": 0, "duration": 122}, {"note": 72, "velocity": 93, "duration": 152}, {"note": 0, "velocity": 0, "duration": 88}, {"note": 74, "velocity": 97, "duration": 125}, {"note": 0, "velocity": 0, "duration": 115}, {"note": 74, "velocity": 100, "duration": 221}, {"note": 72, "velocity": 97, "duration": 187}, {"note": 74, "velocity": 108, "duration": 256}, {"note": 0, "velocity": 0, "duration": 224}, {"note": 79, "velocity": 97, "duration": 1192}, {"note": 77, "velocity": 90, "duration": 302}, {"note": 76, "velocity": 92, "duration": 249}, {"note": 71, "velocity": 90, "duration": 388}, {"note": 0, "velocity": 0, "duration": 92}, {"note": 72, "velocity": 92, "duration": 754}, {"note": 0, "velocity": 0, "duration": 206}, {"note": 67, "velocity": 67, "duration": 272}, {"note": 69, "velocity": 85, "duration": 241}, {"note": 72, "velocity": 96, "duration": 125}, {"note": 0, "velocity": 0, "duration": 115}, {"note": 72, "velocity": 94, "duration": 235}, {"note": 67, "velocity": 62, "duration": 256}, {"note": 69, "velocity": 82, "duration": 262}, {"note": 72, "velocity": 92, "duration": 129}, {"note": 0, "velocity": 0, "duration": 111}, {"note": 72, "velocity": 96, "duration": 201}, {"note": 67, "velocity": 65, "duration": 290}, {"note": 69, "velocity": 77, "duration": 250}, {"note": 72, "velocity": 92, "duration": 171}, {"note": 0, "velocity": 0, "duration": 69}, {"note": 76, "velocity": 90, "duration": 402}, {"note": 0, "velocity": 0, "duration": 78}, {"note": 77, "velocity": 77, "duration": 240}, {"note": 72, "velocity": 93, "duration": 377}, {"note": 0, "velocity": 0, "duration": 103}, {"note": 74, "velocity": 105, "duration": 600}, {"note": 0, "velocity": 0, "duration": 120}, {"note": 76, "velocity": 100, "duration": 228}, {"note": 72, "velocity": 93, "duration": 116}, {"note": 0, "velocity": 0, "duration": 124}, {"note": 72, "velocity": 94, "duration": 146}, {"note": 0, "velocity": 0, "duration": 94}, {"note": 74, "velocity": 100, "duration": 297}, {"note": 0, "velocity": 0, "duration": 183}, {"note": 72, "velocity": 101, "duration": 304}, {"note": 0, "velocity": 0, "duration": 176}, {"note": 76, "velocity": 101, "duration": 400}, {"note": 0, "velocity": 0, "duration": 80}, {"note": 72, "velocity": 97, "duration": 124}, {"note": 0, "velocity": 0, "duration": 116}, {"note": 72, "velocity": 90, "duration": 152}, {"note": 0, "velocity": 0, "duration": 88}, {"note": 74, "velocity": 93, "duration": 112}, {"note": 0, "velocity": 0, "duration": 128}, {"note": 74, "velocity": 95, "duration": 181}, {"note": 72, "velocity": 97, "duration": 138}, {"note": 0, "velocity": 0, "duration": 102}, {"note": 74, "velocity": 105, "duration": 249}, {"note": 0, "velocity": 0, "duration": 231}, {"note": 76, "velocity": 95, "duration": 172}, {"note": 0, "velocity": 0, "duration": 68}, {"note": 72, "velocity": 89, "duration": 110}, {"note": 0, "velocity": 0, "duration": 130}, {"note": 72, "velocity": 93, "duration": 118}, {"note": 0, "velocity": 0, "duration": 122}, {"note": 74, "velocity": 99, "duration": 278}, {"note": 0, "velocity": 0, "duration": 202}, {"note": 72, "velocity": 97, "duration": 267}, {"note": 0, "velocity": 0, "duration": 213}, {"note": 76, "velocity": 97, "duration": 289}, {"note": 0, "velocity": 0, "duration": 191}, {"note": 72, "velocity": 95, "duration": 94}, {"note": 0, "velocity": 0, "duration": 146}, {"note": 72, "velocity": 90, "duration": 101}, {"note": 0, "velocity": 0, "duration": 139}, {"note": 74, "velocity": 89, "duration": 82}, {"note": 0, "velocity": 0, "duration": 158}, {"note": 74, "velocity": 91, "duration": 200}, {"note": 72, "velocity": 87, "duration": 109}, {"note": 0, "velocity": 0, "duration": 131}, {"note": 74, "velocity": 97, "duration": 170}, {"note": 0, "velocity": 0, "duration": 310}, {"note": 79, "velocity": 106, "duration": 1026}, {"note": 0, "velocity": 0, "duration": 174}, {"note": 77, "velocity": 101, "duration": 309}, {"note": 76, "velocity": 87, "duration": 272}, {"note": 74, "velocity": 90, "duration": 454}, {"note": 72, "velocity": 99, "duration": 592}, {"note": 0, "velocity": 0, "duration": 488}, {"note": 67, "velocity": 87, "duration": 205}, {"note": 69, "velocity": 90, "duration": 194}, {"note": 72, "velocity": 97, "duration": 134}, {"note": 0, "velocity": 0, "duration": 106}, {"note": 72, "velocity": 105, "duration": 201}, {"note": 67, "velocity": 82, "duration": 230}, {"note": 69, "velocity": 90, "duration": 260}, {"note": 72, "velocity": 96, "duration": 136}, {"note": 0, "velocity": 0, "duration": 104}, {"note": 72, "velocity": 101, "duration": 206}, {"note": 67, "velocity": 89, "duration": 271}, {"note": 69, "velocity": 89, "duration": 196}, {"note": 72, "velocity": 93, "duration": 138}, {"note": 0, "velocity": 0, "duration": 102}, {"note": 76, "velocity": 98, "duration": 453}, {"note": 74, "velocity": 87, "duration": 186}, {"note": 72, "velocity": 98, "duration": 307}, {"note": 0, "velocity": 0, "duration": 173}, {"note": 67, "velocity": 92, "duration": 285}, {"note": 69, "velocity": 97, "duration": 207}, {"note": 72, "velocity": 99, "duration": 131}, {"note": 0, "velocity": 0, "duration": 109}, {"note": 72, "velocity": 105, "duration": 232}, {"note": 67, "velocity": 90, "duration": 238}, {"note": 69, "velocity": 91, "duration": 277}, {"note": 72, "velocity": 101, "duration": 119}, {"note": 0, "velocity": 0, "duration": 121}, {"note": 72, "velocity": 99, "duration": 212}, {"note": 67, "velocity": 64, "duration": 313}, {"note": 69, "velocity": 92, "duration": 227}, {"note": 72, "velocity": 96, "duration": 192}, {"note": 76, "velocity": 85, "duration": 489}, {"note": 77, "velocity": 100, "duration": 227}, {"note": 74, "velocity": 97, "duration": 396}, {"note": 0, "velocity": 0, "duration": 324}, {"note": 74, "velocity": 100, "duration": 226}, {"note": 74, "velocity": 97, "duration": 342}, {"note": 0, "velocity": 0, "duration": 138}, {"note": 72, "velocity": 89, "duration": 1734}, {"note": 81, "velocity": 108, "duration": 745}, {"note": 79, "velocity": 127, "duration": 111}, {"note": 81, "velocity": 127, "duration": 143}, {"note": 79, "velocity": 127, "duration": 840}, {"note": 0, "velocity": 0, "duration": 120}, {"note": 76, "velocity": 100, "duration": 227}, {"note": 72, "velocity": 93, "duration": 115}, {"note": 0, "velocity": 0, "duration": 125}, {"note": 72, "velocity": 94, "duration": 145}, {"note": 0, "velocity": 0, "duration": 95}, {"note": 74, "velocity": 100, "duration": 297}, {"note": 0, "velocity": 0, "duration": 183}, {"note": 72, "velocity": 101, "duration": 304}, {"note": 0, "velocity": 0, "duration": 176}, {"note": 76, "velocity": 101, "duration": 400}, {"note": 0, "velocity": 0, "duration": 80}, {"note": 72, "velocity": 97, "duration": 125}, {"note": 0, "velocity": 0, "duration": 115}, {"note": 72, "velocity": 90, "duration": 152}, {"note": 0, "velocity": 0, "duration": 88}, {"note": 74, "velocity": 93, "duration": 112}, {"note": 0, "velocity": 0, "duration": 128}, {"note": 74, "velocity": 95, "duration": 181}, {"note": 72, "velocity": 97, "duration": 139}, {"note": 0, "velocity": 0, "duration": 101}, {"note": 74, "velocity": 105, "duration": 293}, {"note": 0, "velocity": 0, "duration": 187}, {"note": 76, "velocity": 95, "duration": 230}, {"note": 72, "velocity": 89, "duration": 109}, {"note": 0, "velocity": 0, "duration": 131}, {"note": 72, "velocity": 93, "duration": 118}, {"note": 0, "velocity": 0, "duration": 122}, {"note": 74, "velocity": 99, "duration": 278}, {"note": 0, "velocity": 0, "duration": 202}, {"note": 72, "velocity": 97, "duration": 266}, {"note": 0, "velocity": 0, "duration": 214}, {"note": 76, "velocity": 97, "duration": 288}, {"note": 0, "velocity": 0, "duration": 192}, {"note": 72, "velocity": 95, "duration": 94}, {"note": 0, "velocity": 0, "duration": 146}, {"note": 72, "velocity": 90, "duration": 101}, {"note": 0, "velocity": 0, "duration": 139}, {"note": 74, "velocity": 89, "duration": 81}, {"note": 0, "velocity": 0, "duration": 159}, {"note": 74, "velocity": 91, "duration": 201}, {"note": 72, "velocity": 87, "duration": 110}, {"note": 0, "velocity": 0, "duration": 130}, {"note": 74, "velocity": 97, "duration": 171}, {"note": 0, "velocity": 0, "duration": 309}, {"note": 79, "velocity": 106, "duration": 1026}, {"note": 0, "velocity": 0, "duration": 174}, {"note": 77, "velocity": 101, "duration": 310}, {"note": 76, "velocity": 87, "duration": 271}, {"note": 71, "velocity": 90, "duration": 454}, {"note": 72, "velocity": 99, "duration": 591}, {"note": 0, "velocity": 0, "duration": 369}, {"note": 67, "velocity": 87, "duration": 341}, {"note": 69, "velocity": 90, "duration": 268}, {"note": 72, "velocity": 97, "duration": 157}, {"note": 0, "velocity": 0, "duration": 83}, {"note": 72, "velocity": 105, "duration": 200}, {"note": 67, "velocity": 82, "duration": 230}, {"note": 69, "velocity": 90, "duration": 259}, {"note": 72, "velocity": 96, "duration": 135}, {"note": 0, "velocity": 0, "duration": 105}, {"note": 72, "velocity": 101, "duration": 206}, {"note": 67, "velocity": 89, "duration": 272}, {"note": 69, "velocity": 89, "duration": 196}, {"note": 72, "velocity": 93, "duration": 138}, {"note": 0, "velocity": 0, "duration": 102}, {"note": 76, "velocity": 98, "duration": 496}, {"note": 77, "velocity": 87, "duration": 263}, {"note": 79, "velocity": 98, "duration": 362}, {"note": 0, "velocity": 0, "duration": 118}, {"note": 74, "velocity": 92, "duration": 503}, {"note": 0, "velocity": 0, "duration": 209}, {"note": 76, "velocity": 100, "duration": 227}, {"note": 72, "velocity": 93, "duration": 115}, {"note": 0, "velocity": 0, "duration": 125}, {"note": 72, "velocity": 94, "duration": 145}, {"note": 0, "velocity": 0, "duration": 95}, {"note": 74, "velocity": 100, "duration": 296}, {"note": 0, "velocity": 0, "duration": 184}, {"note": 72, "velocity": 101, "duration": 303}, {"note": 0, "velocity": 0, "duration": 177}, {"note": 76, "velocity": 101, "duration": 400}, {"note": 0, "velocity": 0, "duration": 80}, {"note": 72, "velocity": 97, "duration": 125}, {"note": 0, "velocity": 0, "duration": 115}, {"note": 72, "velocity": 90, "duration": 152}, {"note": 0, "velocity": 0, "duration": 88}, {"note": 74, "velocity": 93, "duration": 111}, {"note": 0, "velocity": 0, "duration": 129}, {"note": 74, "velocity": 95, "duration": 181}, {"note": 72, "velocity": 97, "duration": 138}, {"note": 0, "velocity": 0, "duration": 102}, {"note": 74, "velocity": 105, "duration": 292}, {"note": 0, "velocity": 0, "duration": 188}, {"note": 76, "velocity": 95, "duration": 230}, {"note": 72, "velocity": 89, "duration": 110}, {"note": 0, "velocity": 0, "duration": 130}, {"note": 72, "velocity": 93, "duration": 118}, {"note": 0, "velocity": 0, "duration": 122}, {"note": 74, "velocity": 99, "duration": 278}, {"note": 0, "velocity": 0, "duration": 202}, {"note": 72, "velocity": 97, "duration": 266}, {"note": 0, "velocity": 0, "duration": 214}, {"note": 76, "velocity": 97, "duration": 288}, {"note": 0, "velocity": 0, "duration": 192}, {"note": 72, "velocity": 95, "duration": 95}, {"note": 0, "velocity": 0, "duration": 145}, {"note": 72, "velocity": 90, "duration": 101}, {"note": 0, "velocity": 0, "duration": 139}, {"note": 74, "velocity": 89, "duration": 81}, {"note": 0, "velocity": 0, "duration": 159}, {"note": 74, "velocity": 91, "duration": 201}, {"note": 72, "velocity": 87, "duration": 110}, {"note": 0, "velocity": 0, "duration": 130}, {"note": 74, "velocity": 97, "duration": 170}, {"note": 0, "velocity": 0, "duration": 310}, {"note": 79, "velocity": 106, "duration": 1026}, {"note": 0, "velocity": 0, "duration": 174}, {"note": 77, "velocity": 101, "duration": 309}, {"note": 76, "velocity": 87, "duration": 271}, {"note": 74, "velocity": 100, "duration": 396}, {"note": 0, "velocity": 0, "duration": 84}, {"note": 72, "velocity": 99, "duration": 591}, {"note": 0, "velocity": 0, "duration": 249}, {"note": 67, "velocity": 87, "duration": 341}, {"note": 69, "velocity": 90, "duration": 267}, {"note": 72, "velocity": 97, "duration": 158}, {"note": 0, "velocity": 0, "duration": 82}, {"note": 72, "velocity": 105, "duration": 200}, {"note": 67, "velocity": 82, "duration": 231}, {"note": 69, "velocity": 90, "duration": 260}, {"note": 72, "velocity": 96, "duration": 135}, {"note": 0, "velocity": 0, "duration": 105}, {"note": 72, "velocity": 101, "duration": 206}, {"note": 67, "velocity": 89, "duration": 271}, {"note": 69, "velocity": 89, "duration": 196}, {"note": 72, "velocity": 93, "duration": 138}, {"note": 0, "velocity": 0, "duration": 102}, {"note": 76, "velocity": 98, "duration": 496}, {"note": 74, "velocity": 87, "duration": 245}, {"note": 72, "velocity": 98, "duration": 362}, {"note": 67, "velocity": 87, "duration": 340}, {"note": 69, "velocity": 90, "duration": 268}, {"note": 0, "velocity": 0, "duration": 92}, {"note": 72, "velocity": 97, "duration": 157}, {"note": 0, "velocity": 0, "duration": 83}, {"note": 72, "velocity": 105, "duration": 201}, {"note": 67, "velocity": 82, "duration": 230}, {"note": 69, "velocity": 90, "duration": 260}, {"note": 72, "velocity": 96, "duration": 136}, {"note": 0, "velocity": 0, "duration": 104}, {"note": 72, "velocity": 101, "duration": 206}, {"note": 67, "velocity": 89, "duration": 271}, {"note": 69, "velocity": 89, "duration": 196}, {"note": 72, "velocity": 93, "duration": 138}, {"note": 0, "velocity": 0, "duration": 102}, {"note": 76, "velocity": 98, "duration": 495}, {"note": 77, "velocity": 87, "duration": 263}, {"note": 76, "velocity": 98, "duration": 509}, {"note": 0, "velocity": 0, "duration": 211}, {"note": 74, "velocity": 100, "duration": 204}, {"note": 74, "velocity": 100, "duration": 477}, {"note": 72, "velocity": 100, "duration": 612}, {"note": 0, "velocity": 0, "duration": 2148}, {"note": 67, "velocity": 87, "duration": 340}, {"note": 69, "velocity": 90, "duration": 268}, {"note": 72, "velocity": 97, "duration": 157}, {"note": 0, "velocity": 0, "duration": 83}, {"note": 72, "velocity": 105, "duration": 201}, {"note": 67, "velocity": 82, "duration": 230}, {"note": 69, "velocity": 90, "duration": 260}, {"note": 72, "velocity": 96, "duration": 135}, {"note": 0, "velocity": 0, "duration": 105}, {"note": 72, "velocity": 101, "duration": 206}, {"note": 67, "velocity": 89, "duration": 272}, {"note": 69, "velocity": 89, "duration": 196}, {"note": 72, "velocity": 93, "duration": 138}, {"note": 0, "velocity": 0, "duration": 102}, {"note": 76, "velocity": 98, "duration": 617}, {"note": 74, "velocity": 87, "duration": 401}, {"note": 72, "velocity": 98, "duration": 442}, {"note": 0, "velocity": 0, "duration": 130}, {"note": 67, "velocity": 87, "duration": 396}, {"note": 69, "velocity": 90, "duration": 294}, {"note": 72, "velocity": 97, "duration": 135}, {"note": 0, "velocity": 0, "duration": 152}, {"note": 72, "velocity": 93, "duration": 275}, {"note": 67, "velocity": 85, "duration": 230}, {"note": 69, "velocity": 93, "duration": 285}, {"note": 72, "velocity": 85, "duration": 76}, {"note": 0, "velocity": 0, "duration": 185}, {"note": 72, "velocity": 104, "duration": 272}, {"note": 67, "velocity": 91, "duration": 269}, {"note": 69, "velocity": 99, "duration": 284}, {"note": 72, "velocity": 104, "duration": 309}, {"note": 76, "velocity": 100, "duration": 464}, {"note": 77, "velocity": 110, "duration": 393}, {"note": 76, "velocity": 95, "duration": 948}, {"note": 74, "velocity": 110, "duration": 380}, {"note": 74, "velocity": 112, "duration": 900}, {"note": 72, "velocity": 73, "duration": 128}, {"note": 74, "velocity": 65, "duration": 123}, {"note": 72, "velocity": 81, "duration": 2309}]]