[[{"note": 74, "velocity": 94, "duration": 5}, {"note": 74, "velocity": 94, "duration": 27}, {"note": 74, "velocity": 82, "duration": 117}, {"note": 72, "velocity": 84, "duration": 256}, {"note": 69, "velocity": 66, "duration": 336}, {"note": 65, "velocity": 64, "duration": 253}, {"note": 67, "velocity": 85, "duration": 270}, {"note": 69, "velocity": 91, "duration": 250}, {"note": 72, "velocity": 93, "duration": 719}, {"note": 72, "velocity": 95, "duration": 1588}, {"note": 67, "velocity": 94, "duration": 96}, {"note": 67, "velocity": 91, "duration": 479}, {"note": 67, "velocity": 93, "duration": 479}, {"note": 67, "velocity": 92, "duration": 251}, {"note": 60, "velocity": 87, "duration": 920}, {"note": 67, "velocity": 95, "duration": 301}, {"note": 60, "velocity": 91, "duration": 240}, {"note": 62, "velocity": 84, "duration": 479}, {"note": 62, "velocity": 89, "duration": 479}, {"note": 62, "velocity": 97, "duration": 21}, {"note": 77, "velocity": 79, "duration": 116}, {"note": 77, "velocity": 80, "duration": 479}, {"note": 77, "velocity": 79, "duration": 480}, {"note": 76, "velocity": 83, "duration": 273}, {"note": 77, "velocity": 98, "duration": 306}, {"note": 74, "velocity": 91, "duration": 371}, {"note": 72, "velocity": 80, "duration": 312}, {"note": 69, "velocity": 90, "duration": 1200}, {"note": 72, "velocity": 97, "duration": 479}, {"note": 72, "velocity": 93, "duration": 557}, {"note": 69, "velocity": 82, "duration": 637}, {"note": 67, "velocity": 84, "duration": 480}, {"note": 69, "velocity": 73, "duration": 480}, {"note": 67, "velocity": 72, "duration": 446}, {"note": 60, "velocity": 56, "duration": 240}, {"note": 67, "velocity": 86, "duration": 290}, {"note": 65, "velocity": 79, "duration": 285}, {"note": 64, "velocity": 77, "duration": 122}, {"note": 62, "velocity": 68, "duration": 199}, {"note": 62, "velocity": 81, "duration": 107}, {"note": 62, "velocity": 80, "duration": 130}, {"note": 77, "velocity": 91, "duration": 480}, {"note": 69, "velocity": 84, "duration": 434}, {"note": 77, "velocity": 96, "duration": 547}, {"note": 69, "velocity": 73, "duration": 258}, {"note": 77, "velocity": 91, "duration": 1130}, {"note": 65, "velocity": 87, "duration": 240}, {"note": 67, "velocity": 66, "duration": 137}, {"note": 69, "velocity": 82, "duration": 218}, {"note": 72, "velocity": 66, "duration": 480}, {"note": 69, "velocity": 107, "duration": 561}, {"note": 67, "velocity": 89, "duration": 480}, {"note": 60, "velocity": 64, "duration": 480}, {"note": 67, "velocity": 89, "duration": 3}, {"note": 67, "velocity": 93, "duration": 240}, {"note": 60, "velocity": 79, "duration": 1679}, {"note": 60, "velocity": 81, "duration": 258}, {"note": 62, "velocity": 65, "duration": 240}, {"note": 65, "velocity": 91, "duration": 485}, {"note": 65, "velocity": 85, "duration": 5}, {"note": 0, "velocity": 0, "duration": 475}, {"note": 65, "velocity": 85, "duration": 312}, {"note": 62, "velocity": 64, "duration": 555}, {"note": 77, "velocity": 100, "duration": 479}, {"note": 77, "velocity": 97, "duration": 479}, {"note": 77, "velocity": 99, "duration": 479}, {"note": 77, "velocity": 98, "duration": 240}, {"note": 69, "velocity": 95, "duration": 1680}, {"note": 65, "velocity": 66, "duration": 279}, {"note": 67, "velocity": 66, "duration": 129}, {"note": 69, "velocity": 91, "duration": 723}, {"note": 72, "velocity": 75, "duration": 479}, {"note": 72, "velocity": 68, "duration": 243}, {"note": 69, "velocity": 72, "duration": 2160}, {"note": 67, "velocity": 90, "duration": 479}, {"note": 67, "velocity": 89, "duration": 479}, {"note": 67, "velocity": 85, "duration": 246}, {"note": 67, "velocity": 82, "duration": 239}, {"note": 60, "velocity": 83, "duration": 1680}, {"note": 65, "velocity": 87, "duration": 239}, {"note": 65, "velocity": 80, "duration": 239}, {"note": 65, "velocity": 79, "duration": 108}, {"note": 65, "velocity": 90, "duration": 156}, {"note": 62, "velocity": 86, "duration": 2019}, {"note": 62, "velocity": 66, "duration": 73}, {"note": 62, "velocity": 84, "duration": 139}, {"note": 62, "velocity": 68, "duration": 257}, {"note": 65, "velocity": 64, "duration": 255}, {"note": 69, "velocity": 72, "duration": 458}, {"note": 72, "velocity": 72, "duration": 480}, {"note": 69, "velocity": 87, "duration": 170}, {"note": 67, "velocity": 87, "duration": 244}, {"note": 65, "velocity": 66, "duration": 295}, {"note": 67, "velocity": 89, "duration": 359}, {"note": 67, "velocity": 84, "duration": 359}, {"note": 67, "velocity": 87, "duration": 359}, {"note": 67, "velocity": 87, "duration": 266}, {"note": 64, "velocity": 74, "duration": 360}, {"note": 60, "velocity": 62, "duration": 240}, {"note": 62, "velocity": 80, "duration": 272}, {"note": 74, "velocity": 91, "duration": 227}, {"note": 74, "velocity": 87, "duration": 239}, {"note": 74, "velocity": 77, "duration": 1}, {"note": 74, "velocity": 79, "duration": 359}, {"note": 74, "velocity": 77, "duration": 90}, {"note": 72, "velocity": 76, "duration": 281}, {"note": 74, "velocity": 86, "duration": 360}, {"note": 77, "velocity": 87, "duration": 423}, {"note": 74, "velocity": 90, "duration": 720}, {"note": 72, "velocity": 93, "duration": 240}, {"note": 65, "velocity": 64, "duration": 250}, {"note": 67, "velocity": 62, "duration": 359}, {"note": 67, "velocity": 77, "duration": 360}, {"note": 69, "velocity": 92, "duration": 240}, {"note": 77, "velocity": 95, "duration": 360}, {"note": 76, "velocity": 68, "duration": 360}, {"note": 72, "velocity": 66, "duration": 346}, {"note": 74, "velocity": 81, "duration": 2147}, {"note": 0, "velocity": 0, "duration": 22813}, {"note": 74, "velocity": 94, "duration": 295}, {"note": 74, "velocity": 94, "duration": 364}, {"note": 74, "velocity": 82, "duration": 137}, {"note": 72, "velocity": 84, "duration": 256}, {"note": 69, "velocity": 66, "duration": 32}, {"note": 0, "velocity": 0, "duration": 325}, {"note": 65, "velocity": 64, "duration": 254}, {"note": 67, "velocity": 85, "duration": 255}, {"note": 69, "velocity": 91, "duration": 256}, {"note": 72, "velocity": 93, "duration": 623}, {"note": 0, "velocity": 0, "duration": 97}, {"note": 72, "velocity": 95, "duration": 530}, {"note": 0, "velocity": 0, "duration": 153}, {"note": 67, "velocity": 94, "duration": 130}, {"note": 67, "velocity": 91, "duration": 369}, {"note": 0, "velocity": 0, "duration": 111}, {"note": 67, "velocity": 93, "duration": 341}, {"note": 0, "velocity": 0, "duration": 139}, {"note": 67, "velocity": 92, "duration": 226}, {"note": 60, "velocity": 87, "duration": 581}, {"note": 0, "velocity": 0, "duration": 284}, {"note": 67, "velocity": 95, "duration": 200}, {"note": 60, "velocity": 91, "duration": 187}, {"note": 62, "velocity": 84, "duration": 333}, {"note": 0, "velocity": 0, "duration": 147}, {"note": 62, "velocity": 89, "duration": 314}, {"note": 0, "velocity": 0, "duration": 166}, {"note": 62, "velocity": 97, "duration": 161}, {"note": 77, "velocity": 79, "duration": 341}, {"note": 0, "velocity": 0, "duration": 126}, {"note": 77, "velocity": 80, "duration": 375}, {"note": 0, "velocity": 0, "duration": 105}, {"note": 77, "velocity": 79, "duration": 473}, {"note": 76, "velocity": 83, "duration": 249}, {"note": 77, "velocity": 98, "duration": 38}, {"note": 0, "velocity": 0, "duration": 254}, {"note": 74, "velocity": 91, "duration": 282}, {"note": 72, "velocity": 80, "duration": 233}, {"note": 69, "velocity": 90, "duration": 971}, {"note": 0, "velocity": 0, "duration": 229}, {"note": 72, "velocity": 97, "duration": 431}, {"note": 72, "velocity": 93, "duration": 288}, {"note": 69, "velocity": 82, "duration": 1054}, {"note": 0, "velocity": 0, "duration": 330}, {"note": 67, "velocity": 84, "duration": 279}, {"note": 0, "velocity": 0, "duration": 201}, {"note": 67, "velocity": 73, "duration": 356}, {"note": 0, "velocity": 0, "duration": 124}, {"note": 67, "velocity": 72, "duration": 446}, {"note": 60, "velocity": 56, "duration": 220}, {"note": 67, "velocity": 86, "duration": 212}, {"note": 0, "velocity": 0, "duration": 173}, {"note": 60, "velocity": 72, "duration": 186}, {"note": 65, "velocity": 79, "duration": 285}, {"note": 60, "velocity": 77, "duration": 242}, {"note": 62, "velocity": 68, "duration": 262}, {"note": 62, "velocity": 81, "duration": 355}, {"note": 0, "velocity": 0, "duration": 125}, {"note": 62, "velocity": 80, "duration": 700}, {"note": 0, "velocity": 0, "duration": 373}, {"note": 77, "velocity": 91, "duration": 392}, {"note": 69, "velocity": 84, "duration": 212}, {"note": 77, "velocity": 96, "duration": 546}, {"note": 69, "velocity": 73, "duration": 268}, {"note": 77, "velocity": 91, "duration": 497}, {"note": 0, "velocity": 0, "duration": 925}, {"note": 65, "velocity": 87, "duration": 246}, {"note": 67, "velocity": 66, "duration": 312}, {"note": 69, "velocity": 82, "duration": 1258}, {"note": 72, "velocity": 66, "duration": 417}, {"note": 72, "velocity": 66, "duration": 223}, {"note": 69, "velocity": 107, "duration": 26}, {"note": 0, "velocity": 0, "duration": 485}, {"note": 67, "velocity": 89, "duration": 445}, {"note": 60, "velocity": 64, "duration": 445}, {"note": 67, "velocity": 89, "duration": 367}, {"note": 0, "velocity": 0, "duration": 104}, {"note": 67, "velocity": 93, "duration": 240}, {"note": 60, "velocity": 79, "duration": 618}, {"note": 0, "velocity": 0, "duration": 822}, {"note": 60, "velocity": 81, "duration": 274}, {"note": 67, "velocity": 81, "duration": 274}, {"note": 60, "velocity": 65, "duration": 238}, {"note": 65, "velocity": 91, "duration": 486}, {"note": 0, "velocity": 0, "duration": 114}, {"note": 65, "velocity": 85, "duration": 262}, {"note": 0, "velocity": 0, "duration": 98}, {"note": 65, "velocity": 85, "duration": 222}, {"note": 62, "velocity": 64, "duration": 869}, {"note": 0, "velocity": 0, "duration": 583}, {"note": 77, "velocity": 100, "duration": 366}, {"note": 0, "velocity": 0, "duration": 114}, {"note": 77, "velocity": 97, "duration": 336}, {"note": 0, "velocity": 0, "duration": 144}, {"note": 77, "velocity": 99, "duration": 355}, {"note": 0, "velocity": 0, "duration": 125}, {"note": 77, "velocity": 98, "duration": 209}, {"note": 69, "velocity": 95, "duration": 969}, {"note": 0, "velocity": 0, "duration": 711}, {"note": 65, "velocity": 66, "duration": 280}, {"note": 67, "velocity": 66, "duration": 295}, {"note": 69, "velocity": 91, "duration": 683}, {"note": 72, "velocity": 75, "duration": 343}, {"note": 0, "velocity": 0, "duration": 137}, {"note": 72, "velocity": 68, "duration": 243}, {"note": 69, "velocity": 72, "duration": 1087}, {"note": 0, "velocity": 0, "duration": 833}, {"note": 67, "velocity": 90, "duration": 396}, {"note": 0, "velocity": 0, "duration": 84}, {"note": 67, "velocity": 89, "duration": 316}, {"note": 0, "velocity": 0, "duration": 164}, {"note": 67, "velocity": 85, "duration": 86}, {"note": 0, "velocity": 0, "duration": 124}, {"note": 67, "velocity": 82, "duration": 183}, {"note": 60, "velocity": 83, "duration": 815}, {"note": 0, "velocity": 0, "duration": 865}, {"note": 65, "velocity": 87, "duration": 141}, {"note": 0, "velocity": 0, "duration": 99}, {"note": 60, "velocity": 80, "duration": 133}, {"note": 0, "velocity": 0, "duration": 107}, {"note": 65, "velocity": 79, "duration": 64}, {"note": 0, "velocity": 0, "duration": 137}, {"note": 65, "velocity": 90, "duration": 228}, {"note": 62, "velocity": 86, "duration": 536}, {"note": 0, "velocity": 0, "duration": 1577}, {"note": 62, "velocity": 66, "duration": 39}, {"note": 62, "velocity": 84, "duration": 112}, {"note": 0, "velocity": 0, "duration": 128}, {"note": 62, "velocity": 68, "duration": 256}, {"note": 65, "velocity": 64, "duration": 255}, {"note": 69, "velocity": 72, "duration": 459}, {"note": 72, "velocity": 72, "duration": 423}, {"note": 69, "velocity": 87, "duration": 205}, {"note": 67, "velocity": 87, "duration": 245}, {"note": 65, "velocity": 66, "duration": 295}, {"note": 67, "velocity": 89, "duration": 243}, {"note": 0, "velocity": 0, "duration": 117}, {"note": 67, "velocity": 84, "duration": 222}, {"note": 0, "velocity": 0, "duration": 138}, {"note": 67, "velocity": 87, "duration": 162}, {"note": 0, "velocity": 0, "duration": 78}, {"note": 67, "velocity": 87, "duration": 267}, {"note": 0, "velocity": 0, "duration": 93}, {"note": 64, "velocity": 74, "duration": 314}, {"note": 60, "velocity": 62, "duration": 238}, {"note": 62, "velocity": 80, "duration": 909}, {"note": 74, "velocity": 91, "duration": 108}, {"note": 0, "velocity": 0, "duration": 132}, {"note": 74, "velocity": 87, "duration": 124}, {"note": 0, "velocity": 0, "duration": 116}, {"note": 74, "velocity": 77, "duration": 166}, {"note": 74, "velocity": 79, "duration": 235}, {"note": 0, "velocity": 0, "duration": 125}, {"note": 74, "velocity": 77, "duration": 83}, {"note": 72, "velocity": 76, "duration": 280}, {"note": 74, "velocity": 86, "duration": 253}, {"note": 0, "velocity": 0, "duration": 107}, {"note": 77, "velocity": 87, "duration": 423}, {"note": 74, "velocity": 90, "duration": 457}, {"note": 0, "velocity": 0, "duration": 263}, {"note": 72, "velocity": 93, "duration": 229}, {"note": 65, "velocity": 64, "duration": 250}, {"note": 67, "velocity": 62, "duration": 227}, {"note": 0, "velocity": 0, "duration": 133}, {"note": 67, "velocity": 77, "duration": 243}, {"note": 0, "velocity": 0, "duration": 117}, {"note": 69, "velocity": 92, "duration": 139}, {"note": 0, "velocity": 0, "duration": 101}, {"note": 77, "velocity": 95, "duration": 363}, {"note": 76, "velocity": 68, "duration": 340}, {"note": 0, "velocity": 0, "duration": 140}, {"note": 72, "velocity": 66, "duration": 347}, {"note": 74, "velocity": 81, "duration": 2603}]]