[[{"note": 68, "velocity": 78, "duration": 116}, {"note": 70, "velocity": 73, "duration": 116}, {"note": 68, "velocity": 73, "duration": 116}, {"note": 70, "velocity": 61, "duration": 116}, {"note": 72, "velocity": 73, "duration": 476}, {"note": 72, "velocity": 57, "duration": 476}, {"note": 75, "velocity": 80, "duration": 236}, {"note": 77, "velocity": 80, "duration": 116}, {"note": 75, "velocity": 91, "duration": 236}, {"note": 70, "velocity": 91, "duration": 356}, {"note": 72, "velocity": 82, "duration": 236}, {"note": 72, "velocity": 76, "duration": 236}, {"note": 72, "velocity": 78, "duration": 236}, {"note": 70, "velocity": 64, "duration": 116}, {"note": 72, "velocity": 64, "duration": 596}, {"note": 72, "velocity": 88, "duration": 116}, {"note": 75, "velocity": 72, "duration": 236}, {"note": 72, "velocity": 63, "duration": 116}, {"note": 77, "velocity": 66, "duration": 236}, {"note": 75, "velocity": 69, "duration": 116}, {"note": 75, "velocity": 80, "duration": 236}, {"note": 72, "velocity": 75, "duration": 356}, {"note": 77, "velocity": 64, "duration": 236}, {"note": 75, "velocity": 82, "duration": 236}, {"note": 72, "velocity": 82, "duration": 356}, {"note": 70, "velocity": 73, "duration": 116}, {"note": 72, "velocity": 72, "duration": 1436}, {"note": 68, "velocity": 78, "duration": 116}, {"note": 70, "velocity": 73, "duration": 116}, {"note": 68, "velocity": 73, "duration": 116}, {"note": 70, "velocity": 61, "duration": 116}, {"note": 72, "velocity": 73, "duration": 476}, {"note": 72, "velocity": 57, "duration": 476}, {"note": 75, "velocity": 80, "duration": 236}, {"note": 77, "velocity": 80, "duration": 116}, {"note": 75, "velocity": 91, "duration": 236}, {"note": 70, "velocity": 91, "duration": 356}, {"note": 72, "velocity": 82, "duration": 236}, {"note": 72, "velocity": 76, "duration": 236}, {"note": 72, "velocity": 78, "duration": 116}, {"note": 75, "velocity": 64, "duration": 356}, {"note": 72, "velocity": 80, "duration": 236}, {"note": 70, "velocity": 82, "duration": 116}, {"note": 70, "velocity": 82, "duration": 116}, {"note": 68, "velocity": 78, "duration": 236}, {"note": 65, "velocity": 75, "duration": 116}, {"note": 67, "velocity": 76, "duration": 116}, {"note": 68, "velocity": 82, "duration": 236}, {"note": 68, "velocity": 62, "duration": 116}, {"note": 68, "velocity": 70, "duration": 236}, {"note": 72, "velocity": 82, "duration": 356}, {"note": 70, "velocity": 91, "duration": 236}, {"note": 68, "velocity": 67, "duration": 116}, {"note": 67, "velocity": 91, "duration": 476}, {"note": 68, "velocity": 56, "duration": 236}, {"note": 67, "velocity": 56, "duration": 116}, {"note": 65, "velocity": 56, "duration": 1916}, {"note": 60, "velocity": 52, "duration": 116}, {"note": 58, "velocity": 59, "duration": 116}, {"note": 60, "velocity": 61, "duration": 116}, {"note": 58, "velocity": 57, "duration": 356}, {"note": 60, "velocity": 57, "duration": 236}, {"note": 63, "velocity": 60, "duration": 116}, {"note": 65, "velocity": 66, "duration": 236}, {"note": 63, "velocity": 64, "duration": 356}, {"note": 60, "velocity": 66, "duration": 236}, {"note": 60, "velocity": 66, "duration": 236}, {"note": 60, "velocity": 44, "duration": 236}, {"note": 63, "velocity": 67, "duration": 116}, {"note": 60, "velocity": 61, "duration": 596}, {"note": 60, "velocity": 54, "duration": 116}, {"note": 63, "velocity": 67, "duration": 236}, {"note": 60, "velocity": 54, "duration": 116}, {"note": 68, "velocity": 63, "duration": 236}, {"note": 67, "velocity": 66, "duration": 116}, {"note": 65, "velocity": 63, "duration": 236}, {"note": 63, "velocity": 52, "duration": 356}, {"note": 65, "velocity": 64, "duration": 236}, {"note": 63, "velocity": 62, "duration": 356}, {"note": 60, "velocity": 44, "duration": 356}, {"note": 58, "velocity": 60, "duration": 116}, {"note": 60, "velocity": 60, "duration": 2036}, {"note": 60, "velocity": 52, "duration": 116}, {"note": 58, "velocity": 59, "duration": 116}, {"note": 60, "velocity": 61, "duration": 116}, {"note": 58, "velocity": 57, "duration": 356}, {"note": 60, "velocity": 57, "duration": 236}, {"note": 63, "velocity": 60, "duration": 116}, {"note": 65, "velocity": 66, "duration": 236}, {"note": 63, "velocity": 64, "duration": 356}, {"note": 60, "velocity": 66, "duration": 236}, {"note": 60, "velocity": 66, "duration": 236}, {"note": 60, "velocity": 44, "duration": 236}, {"note": 63, "velocity": 67, "duration": 116}, {"note": 60, "velocity": 61, "duration": 596}, {"note": 60, "velocity": 54, "duration": 116}, {"note": 63, "velocity": 67, "duration": 236}, {"note": 60, "velocity": 54, "duration": 116}, {"note": 68, "velocity": 63, "duration": 236}, {"note": 67, "velocity": 66, "duration": 116}, {"note": 65, "velocity": 63, "duration": 236}, {"note": 63, "velocity": 52, "duration": 356}, {"note": 68, "velocity": 76, "duration": 116}, {"note": 67, "velocity": 69, "duration": 596}, {"note": 65, "velocity": 63, "duration": 236}, {"note": 63, "velocity": 60, "duration": 116}, {"note": 67, "velocity": 67, "duration": 236}, {"note": 65, "velocity": 67, "duration": 1556}, {"note": 68, "velocity": 78, "duration": 116}, {"note": 70, "velocity": 73, "duration": 116}, {"note": 68, "velocity": 73, "duration": 116}, {"note": 70, "velocity": 61, "duration": 116}, {"note": 72, "velocity": 73, "duration": 476}, {"note": 72, "velocity": 57, "duration": 476}, {"note": 75, "velocity": 80, "duration": 236}, {"note": 77, "velocity": 80, "duration": 116}, {"note": 75, "velocity": 91, "duration": 236}, {"note": 70, "velocity": 91, "duration": 356}, {"note": 72, "velocity": 82, "duration": 236}, {"note": 72, "velocity": 76, "duration": 236}, {"note": 72, "velocity": 78, "duration": 236}, {"note": 70, "velocity": 64, "duration": 116}, {"note": 72, "velocity": 64, "duration": 596}, {"note": 72, "velocity": 88, "duration": 116}, {"note": 75, "velocity": 72, "duration": 236}, {"note": 72, "velocity": 63, "duration": 116}, {"note": 77, "velocity": 66, "duration": 236}, {"note": 75, "velocity": 69, "duration": 116}, {"note": 75, "velocity": 80, "duration": 236}, {"note": 72, "velocity": 75, "duration": 356}, {"note": 77, "velocity": 64, "duration": 236}, {"note": 75, "velocity": 82, "duration": 236}, {"note": 72, "velocity": 82, "duration": 356}, {"note": 70, "velocity": 73, "duration": 116}, {"note": 72, "velocity": 72, "duration": 1436}, {"note": 68, "velocity": 78, "duration": 116}, {"note": 70, "velocity": 73, "duration": 116}, {"note": 68, "velocity": 73, "duration": 116}, {"note": 70, "velocity": 61, "duration": 116}, {"note": 72, "velocity": 73, "duration": 476}, {"note": 72, "velocity": 57, "duration": 476}, {"note": 75, "velocity": 80, "duration": 236}, {"note": 77, "velocity": 80, "duration": 116}, {"note": 75, "velocity": 91, "duration": 236}, {"note": 70, "velocity": 91, "duration": 356}, {"note": 72, "velocity": 82, "duration": 236}, {"note": 72, "velocity": 76, "duration": 236}, {"note": 72, "velocity": 78, "duration": 116}, {"note": 75, "velocity": 64, "duration": 356}, {"note": 72, "velocity": 80, "duration": 236}, {"note": 70, "velocity": 82, "duration": 116}, {"note": 70, "velocity": 82, "duration": 116}, {"note": 68, "velocity": 78, "duration": 236}, {"note": 65, "velocity": 75, "duration": 116}, {"note": 67, "velocity": 76, "duration": 116}, {"note": 68, "velocity": 82, "duration": 236}, {"note": 68, "velocity": 62, "duration": 116}, {"note": 68, "velocity": 70, "duration": 236}, {"note": 72, "velocity": 82, "duration": 356}, {"note": 70, "velocity": 91, "duration": 236}, {"note": 68, "velocity": 67, "duration": 116}, {"note": 67, "velocity": 91, "duration": 476}, {"note": 68, "velocity": 56, "duration": 236}, {"note": 67, "velocity": 56, "duration": 116}, {"note": 65, "velocity": 56, "duration": 1916}, {"note": 60, "velocity": 52, "duration": 116}, {"note": 58, "velocity": 59, "duration": 116}, {"note": 60, "velocity": 61, "duration": 116}, {"note": 58, "velocity": 57, "duration": 356}, {"note": 60, "velocity": 57, "duration": 236}, {"note": 63, "velocity": 60, "duration": 116}, {"note": 65, "velocity": 66, "duration": 236}, {"note": 63, "velocity": 64, "duration": 356}, {"note": 60, "velocity": 66, "duration": 236}, {"note": 60, "velocity": 66, "duration": 236}, {"note": 60, "velocity": 44, "duration": 236}, {"note": 63, "velocity": 67, "duration": 116}, {"note": 60, "velocity": 61, "duration": 596}, {"note": 60, "velocity": 54, "duration": 116}, {"note": 63, "velocity": 67, "duration": 236}, {"note": 60, "velocity": 54, "duration": 116}, {"note": 68, "velocity": 63, "duration": 236}, {"note": 67, "velocity": 66, "duration": 116}, {"note": 65, "velocity": 63, "duration": 236}, {"note": 63, "velocity": 52, "duration": 356}, {"note": 65, "velocity": 64, "duration": 236}, {"note": 63, "velocity": 62, "duration": 356}, {"note": 60, "velocity": 44, "duration": 356}, {"note": 58, "velocity": 60, "duration": 116}, {"note": 56, "velocity": 64, "duration": 356}, {"note": 0, "velocity": 0, "duration": 964}, {"note": 68, "velocity": 78, "duration": 116}, {"note": 70, "velocity": 73, "duration": 116}, {"note": 68, "velocity": 73, "duration": 116}, {"note": 70, "velocity": 61, "duration": 116}, {"note": 72, "velocity": 73, "duration": 476}, {"note": 72, "velocity": 57, "duration": 476}, {"note": 75, "velocity": 80, "duration": 236}, {"note": 77, "velocity": 80, "duration": 116}, {"note": 75, "velocity": 91, "duration": 236}, {"note": 70, "velocity": 91, "duration": 240}, {"note": 70, "velocity": 91, "duration": 240}, {"note": 72, "velocity": 82, "duration": 236}, {"note": 72, "velocity": 76, "duration": 236}, {"note": 72, "velocity": 78, "duration": 116}, {"note": 75, "velocity": 64, "duration": 356}, {"note": 72, "velocity": 80, "duration": 236}, {"note": 70, "velocity": 82, "duration": 116}, {"note": 70, "velocity": 82, "duration": 116}, {"note": 68, "velocity": 78, "duration": 236}, {"note": 65, "velocity": 91, "duration": 240}, {"note": 67, "velocity": 76, "duration": 116}, {"note": 68, "velocity": 82, "duration": 236}, {"note": 68, "velocity": 62, "duration": 116}, {"note": 68, "velocity": 70, "duration": 236}, {"note": 72, "velocity": 82, "duration": 356}, {"note": 70, "velocity": 91, "duration": 236}, {"note": 68, "velocity": 67, "duration": 116}, {"note": 67, "velocity": 91, "duration": 476}, {"note": 0, "velocity": 0, "duration": 1084}, {"note": 68, "velocity": 56, "duration": 236}, {"note": 0, "velocity": 0, "duration": 484}, {"note": 67, "velocity": 56, "duration": 116}, {"note": 0, "velocity": 0, "duration": 124}, {"note": 65, "velocity": 56, "duration": 1916}, {"note": 0, "velocity": 0, "duration": 964}, {"note": 84, "velocity": 67, "duration": 1454}]]