[[{"note": 68, "velocity": 84, "duration": 711}, {"note": 75, "velocity": 94, "duration": 874}, {"note": 0, "velocity": 0, "duration": 326}, {"note": 73, "velocity": 89, "duration": 236}, {"note": 75, "velocity": 84, "duration": 216}, {"note": 73, "velocity": 79, "duration": 269}, {"note": 71, "velocity": 89, "duration": 415}, {"note": 0, "velocity": 0, "duration": 154}, {"note": 71, "velocity": 87, "duration": 124}, {"note": 0, "velocity": 0, "duration": 116}, {"note": 71, "velocity": 84, "duration": 112}, {"note": 0, "velocity": 0, "duration": 128}, {"note": 71, "velocity": 64, "duration": 84}, {"note": 70, "velocity": 68, "duration": 485}, {"note": 68, "velocity": 57, "duration": 431}, {"note": 66, "velocity": 64, "duration": 194}, {"note": 68, "velocity": 82, "duration": 436}, {"note": 0, "velocity": 0, "duration": 388}, {"note": 68, "velocity": 90, "duration": 365}, {"note": 80, "velocity": 101, "duration": 1021}, {"note": 0, "velocity": 0, "duration": 179}, {"note": 78, "velocity": 90, "duration": 277}, {"note": 80, "velocity": 66, "duration": 232}, {"note": 78, "velocity": 72, "duration": 197}, {"note": 75, "velocity": 85, "duration": 862}, {"note": 0, "velocity": 0, "duration": 578}, {"note": 73, "velocity": 86, "duration": 106}, {"note": 0, "velocity": 0, "duration": 134}, {"note": 73, "velocity": 84, "duration": 129}, {"note": 0, "velocity": 0, "duration": 111}, {"note": 73, "velocity": 80, "duration": 110}, {"note": 0, "velocity": 0, "duration": 130}, {"note": 73, "velocity": 84, "duration": 434}, {"note": 71, "velocity": 90, "duration": 61}, {"note": 68, "velocity": 79, "duration": 501}, {"note": 70, "velocity": 87, "duration": 1275}, {"note": 0, "velocity": 0, "duration": 405}, {"note": 68, "velocity": 97, "duration": 728}, {"note": 75, "velocity": 105, "duration": 1009}, {"note": 73, "velocity": 105, "duration": 110}, {"note": 75, "velocity": 93, "duration": 269}, {"note": 73, "velocity": 90, "duration": 277}, {"note": 71, "velocity": 96, "duration": 854}, {"note": 0, "velocity": 0, "duration": 586}, {"note": 71, "velocity": 94, "duration": 125}, {"note": 0, "velocity": 0, "duration": 115}, {"note": 71, "velocity": 84, "duration": 139}, {"note": 0, "velocity": 0, "duration": 101}, {"note": 71, "velocity": 80, "duration": 94}, {"note": 70, "velocity": 87, "duration": 277}, {"note": 68, "velocity": 71, "duration": 334}, {"note": 66, "velocity": 66, "duration": 296}, {"note": 68, "velocity": 84, "duration": 1248}, {"note": 0, "velocity": 0, "duration": 415}, {"note": 68, "velocity": 96, "duration": 269}, {"note": 80, "velocity": 72, "duration": 1217}, {"note": 0, "velocity": 0, "duration": 203}, {"note": 78, "velocity": 91, "duration": 52}, {"note": 80, "velocity": 84, "duration": 277}, {"note": 78, "velocity": 64, "duration": 217}, {"note": 75, "velocity": 96, "duration": 640}, {"note": 80, "velocity": 91, "duration": 123}, {"note": 0, "velocity": 0, "duration": 117}, {"note": 80, "velocity": 77, "duration": 143}, {"note": 0, "velocity": 0, "duration": 97}, {"note": 80, "velocity": 79, "duration": 185}, {"note": 82, "velocity": 86, "duration": 30}, {"note": 80, "velocity": 90, "duration": 333}, {"note": 78, "velocity": 79, "duration": 163}, {"note": 80, "velocity": 95, "duration": 2789}, {"note": 0, "velocity": 0, "duration": 1248}, {"note": 80, "velocity": 96, "duration": 343}, {"note": 78, "velocity": 73, "duration": 120}, {"note": 75, "velocity": 82, "duration": 168}, {"note": 0, "velocity": 0, "duration": 70}, {"note": 75, "velocity": 82, "duration": 168}, {"note": 0, "velocity": 0, "duration": 72}, {"note": 80, "velocity": 94, "duration": 309}, {"note": 78, "velocity": 66, "duration": 159}, {"note": 80, "velocity": 82, "duration": 214}, {"note": 83, "velocity": 83, "duration": 219}, {"note": 78, "velocity": 90, "duration": 304}, {"note": 75, "velocity": 65, "duration": 196}, {"note": 78, "velocity": 82, "duration": 232}, {"note": 80, "velocity": 91, "duration": 273}, {"note": 78, "velocity": 90, "duration": 648}, {"note": 0, "velocity": 0, "duration": 312}, {"note": 73, "velocity": 93, "duration": 325}, {"note": 71, "velocity": 75, "duration": 144}, {"note": 68, "velocity": 77, "duration": 129}, {"note": 0, "velocity": 0, "duration": 111}, {"note": 68, "velocity": 66, "duration": 223}, {"note": 73, "velocity": 90, "duration": 360}, {"note": 71, "velocity": 77, "duration": 172}, {"note": 73, "velocity": 74, "duration": 212}, {"note": 75, "velocity": 85, "duration": 280}, {"note": 71, "velocity": 90, "duration": 325}, {"note": 68, "velocity": 64, "duration": 172}, {"note": 71, "velocity": 87, "duration": 220}, {"note": 68, "velocity": 66, "duration": 233}, {"note": 66, "velocity": 83, "duration": 588}, {"note": 0, "velocity": 0, "duration": 372}, {"note": 80, "velocity": 96, "duration": 242}, {"note": 78, "velocity": 95, "duration": 282}, {"note": 75, "velocity": 92, "duration": 165}, {"note": 0, "velocity": 0, "duration": 81}, {"note": 75, "velocity": 92, "duration": 165}, {"note": 0, "velocity": 0, "duration": 75}, {"note": 80, "velocity": 100, "duration": 140}, {"note": 0, "velocity": 0, "duration": 104}, {"note": 78, "velocity": 100, "duration": 130}, {"note": 80, "velocity": 97, "duration": 262}, {"note": 0, "velocity": 0, "duration": 124}, {"note": 80, "velocity": 99, "duration": 234}, {"note": 83, "velocity": 95, "duration": 251}, {"note": 80, "velocity": 105, "duration": 313}, {"note": 78, "velocity": 106, "duration": 123}, {"note": 0, "velocity": 0, "duration": 145}, {"note": 78, "velocity": 106, "duration": 183}, {"note": 83, "velocity": 101, "duration": 138}, {"note": 0, "velocity": 0, "duration": 104}, {"note": 80, "velocity": 101, "duration": 138}, {"note": 0, "velocity": 0, "duration": 94}, {"note": 83, "velocity": 100, "duration": 174}, {"note": 0, "velocity": 0, "duration": 72}, {"note": 83, "velocity": 114, "duration": 260}, {"note": 0, "velocity": 0, "duration": 220}, {"note": 83, "velocity": 99, "duration": 106}, {"note": 0, "velocity": 0, "duration": 134}, {"note": 83, "velocity": 98, "duration": 111}, {"note": 0, "velocity": 0, "duration": 129}, {"note": 83, "velocity": 95, "duration": 192}, {"note": 82, "velocity": 93, "duration": 459}, {"note": 80, "velocity": 94, "duration": 263}, {"note": 78, "velocity": 101, "duration": 492}, {"note": 80, "velocity": 101, "duration": 1282}, {"note": 0, "velocity": 0, "duration": 398}, {"note": 80, "velocity": 101, "duration": 342}, {"note": 78, "velocity": 76, "duration": 124}, {"note": 75, "velocity": 81, "duration": 145}, {"note": 0, "velocity": 0, "duration": 101}, {"note": 75, "velocity": 81, "duration": 145}, {"note": 0, "velocity": 0, "duration": 95}, {"note": 80, "velocity": 94, "duration": 335}, {"note": 78, "velocity": 75, "duration": 167}, {"note": 80, "velocity": 84, "duration": 198}, {"note": 83, "velocity": 85, "duration": 286}, {"note": 78, "velocity": 91, "duration": 342}, {"note": 75, "velocity": 64, "duration": 189}, {"note": 78, "velocity": 86, "duration": 253}, {"note": 80, "velocity": 90, "duration": 241}, {"note": 78, "velocity": 91, "duration": 680}, {"note": 0, "velocity": 0, "duration": 266}, {"note": 73, "velocity": 97, "duration": 358}, {"note": 71, "velocity": 80, "duration": 124}, {"note": 68, "velocity": 66, "duration": 112}, {"note": 0, "velocity": 0, "duration": 128}, {"note": 68, "velocity": 68, "duration": 147}, {"note": 0, "velocity": 0, "duration": 93}, {"note": 73, "velocity": 87, "duration": 295}, {"note": 0, "velocity": 0, "duration": 65}, {"note": 71, "velocity": 68, "duration": 169}, {"note": 73, "velocity": 72, "duration": 221}, {"note": 75, "velocity": 74, "duration": 263}, {"note": 71, "velocity": 87, "duration": 310}, {"note": 68, "velocity": 65, "duration": 194}, {"note": 71, "velocity": 85, "duration": 225}, {"note": 68, "velocity": 79, "duration": 240}, {"note": 66, "velocity": 98, "duration": 639}, {"note": 0, "velocity": 0, "duration": 321}, {"note": 80, "velocity": 100, "duration": 190}, {"note": 78, "velocity": 87, "duration": 376}, {"note": 0, "velocity": 0, "duration": 104}, {"note": 75, "velocity": 82, "duration": 195}, {"note": 80, "velocity": 99, "duration": 148}, {"note": 0, "velocity": 0, "duration": 86}, {"note": 78, "velocity": 99, "duration": 148}, {"note": 0, "velocity": 0, "duration": 92}, {"note": 80, "velocity": 98, "duration": 95}, {"note": 0, "velocity": 0, "duration": 151}, {"note": 80, "velocity": 90, "duration": 256}, {"note": 83, "velocity": 89, "duration": 253}, {"note": 80, "velocity": 101, "duration": 214}, {"note": 78, "velocity": 101, "duration": 160}, {"note": 0, "velocity": 0, "duration": 78}, {"note": 78, "velocity": 97, "duration": 251}, {"note": 83, "velocity": 100, "duration": 129}, {"note": 0, "velocity": 0, "duration": 115}, {"note": 80, "velocity": 100, "duration": 129}, {"note": 0, "velocity": 0, "duration": 101}, {"note": 83, "velocity": 97, "duration": 135}, {"note": 0, "velocity": 0, "duration": 111}, {"note": 83, "velocity": 108, "duration": 275}, {"note": 0, "velocity": 0, "duration": 205}, {"note": 83, "velocity": 103, "duration": 97}, {"note": 0, "velocity": 0, "duration": 143}, {"note": 83, "velocity": 100, "duration": 93}, {"note": 0, "velocity": 0, "duration": 147}, {"note": 83, "velocity": 105, "duration": 111}, {"note": 0, "velocity": 0, "duration": 129}, {"note": 82, "velocity": 100, "duration": 250}, {"note": 0, "velocity": 0, "duration": 230}, {"note": 80, "velocity": 108, "duration": 143}, {"note": 0, "velocity": 0, "duration": 97}, {"note": 78, "velocity": 105, "duration": 328}, {"note": 0, "velocity": 0, "duration": 152}, {"note": 80, "velocity": 109, "duration": 1560}, {"note": 0, "velocity": 0, "duration": 15480}, {"note": 68, "velocity": 97, "duration": 52}, {"note": 75, "velocity": 95, "duration": 1058}, {"note": 0, "velocity": 0, "duration": 128}, {"note": 73, "velocity": 93, "duration": 172}, {"note": 75, "velocity": 90, "duration": 287}, {"note": 73, "velocity": 86, "duration": 256}, {"note": 71, "velocity": 89, "duration": 387}, {"note": 0, "velocity": 0, "duration": 125}, {"note": 71, "velocity": 87, "duration": 150}, {"note": 0, "velocity": 0, "duration": 90}, {"note": 71, "velocity": 84, "duration": 123}, {"note": 0, "velocity": 0, "duration": 117}, {"note": 71, "velocity": 64, "duration": 54}, {"note": 70, "velocity": 68, "duration": 484}, {"note": 68, "velocity": 57, "duration": 400}, {"note": 66, "velocity": 64, "duration": 165}, {"note": 68, "velocity": 82, "duration": 408}, {"note": 0, "velocity": 0, "duration": 387}, {"note": 68, "velocity": 90, "duration": 354}, {"note": 80, "velocity": 121, "duration": 1309}, {"note": 0, "velocity": 0, "duration": 131}, {"note": 78, "velocity": 90, "duration": 248}, {"note": 80, "velocity": 66, "duration": 223}, {"note": 78, "velocity": 72, "duration": 198}, {"note": 75, "velocity": 85, "duration": 863}, {"note": 0, "velocity": 0, "duration": 577}, {"note": 73, "velocity": 86, "duration": 142}, {"note": 0, "velocity": 0, "duration": 98}, {"note": 73, "velocity": 84, "duration": 160}, {"note": 0, "velocity": 0, "duration": 80}, {"note": 73, "velocity": 80, "duration": 135}, {"note": 0, "velocity": 0, "duration": 105}, {"note": 73, "velocity": 84, "duration": 434}, {"note": 71, "velocity": 90, "duration": 32}, {"note": 68, "velocity": 79, "duration": 501}, {"note": 70, "velocity": 87, "duration": 1276}, {"note": 0, "velocity": 0, "duration": 404}, {"note": 68, "velocity": 97, "duration": 728}, {"note": 75, "velocity": 105, "duration": 1010}, {"note": 0, "velocity": 0, "duration": 190}, {"note": 73, "velocity": 105, "duration": 80}, {"note": 75, "velocity": 93, "duration": 269}, {"note": 73, "velocity": 90, "duration": 277}, {"note": 71, "velocity": 96, "duration": 855}, {"note": 0, "velocity": 0, "duration": 585}, {"note": 71, "velocity": 94, "duration": 125}, {"note": 0, "velocity": 0, "duration": 115}, {"note": 71, "velocity": 84, "duration": 139}, {"note": 0, "velocity": 0, "duration": 101}, {"note": 71, "velocity": 80, "duration": 66}, {"note": 70, "velocity": 87, "duration": 249}, {"note": 68, "velocity": 71, "duration": 374}, {"note": 66, "velocity": 66, "duration": 308}, {"note": 68, "velocity": 84, "duration": 1220}, {"note": 0, "velocity": 0, "duration": 415}, {"note": 68, "velocity": 96, "duration": 261}, {"note": 80, "velocity": 72, "duration": 1234}, {"note": 0, "velocity": 0, "duration": 202}, {"note": 78, "velocity": 91, "duration": 23}, {"note": 80, "velocity": 84, "duration": 276}, {"note": 78, "velocity": 64, "duration": 217}, {"note": 75, "velocity": 96, "duration": 639}, {"note": 0, "velocity": 0, "duration": 209}, {"note": 80, "velocity": 91, "duration": 113}, {"note": 0, "velocity": 0, "duration": 116}, {"note": 80, "velocity": 77, "duration": 143}, {"note": 0, "velocity": 0, "duration": 97}, {"note": 80, "velocity": 79, "duration": 184}, {"note": 82, "velocity": 86, "duration": 464}, {"note": 80, "velocity": 90, "duration": 325}, {"note": 78, "velocity": 79, "duration": 340}, {"note": 80, "velocity": 95, "duration": 2642}, {"note": 0, "velocity": 0, "duration": 1368}, {"note": 80, "velocity": 96, "duration": 343}, {"note": 78, "velocity": 73, "duration": 120}, {"note": 75, "velocity": 82, "duration": 168}, {"note": 75, "velocity": 82, "duration": 168}, {"note": 0, "velocity": 0, "duration": 72}, {"note": 80, "velocity": 94, "duration": 308}, {"note": 78, "velocity": 66, "duration": 159}, {"note": 80, "velocity": 82, "duration": 214}, {"note": 83, "velocity": 83, "duration": 220}, {"note": 78, "velocity": 90, "duration": 304}, {"note": 75, "velocity": 65, "duration": 197}, {"note": 78, "velocity": 82, "duration": 232}, {"note": 80, "velocity": 91, "duration": 273}, {"note": 78, "velocity": 90, "duration": 649}, {"note": 0, "velocity": 0, "duration": 311}, {"note": 73, "velocity": 93, "duration": 324}, {"note": 71, "velocity": 75, "duration": 143}, {"note": 68, "velocity": 77, "duration": 129}, {"note": 0, "velocity": 0, "duration": 111}, {"note": 68, "velocity": 66, "duration": 223}, {"note": 73, "velocity": 90, "duration": 360}, {"note": 71, "velocity": 77, "duration": 173}, {"note": 73, "velocity": 74, "duration": 211}, {"note": 75, "velocity": 85, "duration": 279}, {"note": 71, "velocity": 90, "duration": 324}, {"note": 68, "velocity": 64, "duration": 173}, {"note": 71, "velocity": 87, "duration": 219}, {"note": 68, "velocity": 66, "duration": 234}, {"note": 66, "velocity": 83, "duration": 588}, {"note": 0, "velocity": 0, "duration": 378}, {"note": 80, "velocity": 96, "duration": 243}, {"note": 78, "velocity": 95, "duration": 282}, {"note": 75, "velocity": 92, "duration": 165}, {"note": 0, "velocity": 0, "duration": 75}, {"note": 75, "velocity": 92, "duration": 165}, {"note": 0, "velocity": 0, "duration": 75}, {"note": 80, "velocity": 100, "duration": 140}, {"note": 0, "velocity": 0, "duration": 104}, {"note": 78, "velocity": 100, "duration": 140}, {"note": 0, "velocity": 0, "duration": 96}, {"note": 80, "velocity": 97, "duration": 142}, {"note": 0, "velocity": 0, "duration": 84}, {"note": 80, "velocity": 99, "duration": 234}, {"note": 83, "velocity": 95, "duration": 251}, {"note": 80, "velocity": 105, "duration": 194}, {"note": 78, "velocity": 105, "duration": 194}, {"note": 78, "velocity": 106, "duration": 217}, {"note": 83, "velocity": 101, "duration": 138}, {"note": 0, "velocity": 0, "duration": 106}, {"note": 80, "velocity": 101, "duration": 138}, {"note": 0, "velocity": 0, "duration": 112}, {"note": 83, "velocity": 100, "duration": 194}, {"note": 83, "velocity": 114, "duration": 260}, {"note": 0, "velocity": 0, "duration": 220}, {"note": 83, "velocity": 99, "duration": 106}, {"note": 0, "velocity": 0, "duration": 134}, {"note": 83, "velocity": 98, "duration": 111}, {"note": 0, "velocity": 0, "duration": 129}, {"note": 83, "velocity": 95, "duration": 191}, {"note": 82, "velocity": 93, "duration": 460}, {"note": 80, "velocity": 94, "duration": 263}, {"note": 78, "velocity": 101, "duration": 491}, {"note": 80, "velocity": 101, "duration": 1281}, {"note": 0, "velocity": 0, "duration": 399}, {"note": 80, "velocity": 101, "duration": 343}, {"note": 78, "velocity": 76, "duration": 125}, {"note": 75, "velocity": 57, "duration": 123}, {"note": 0, "velocity": 0, "duration": 117}, {"note": 75, "velocity": 81, "duration": 145}, {"note": 0, "velocity": 0, "duration": 95}, {"note": 80, "velocity": 94, "duration": 335}, {"note": 78, "velocity": 75, "duration": 167}, {"note": 80, "velocity": 84, "duration": 198}, {"note": 83, "velocity": 85, "duration": 287}, {"note": 78, "velocity": 91, "duration": 342}, {"note": 75, "velocity": 64, "duration": 189}, {"note": 78, "velocity": 86, "duration": 253}, {"note": 80, "velocity": 90, "duration": 242}, {"note": 78, "velocity": 91, "duration": 713}, {"note": 0, "velocity": 0, "duration": 247}, {"note": 73, "velocity": 97, "duration": 358}, {"note": 71, "velocity": 80, "duration": 125}, {"note": 68, "velocity": 66, "duration": 112}, {"note": 0, "velocity": 0, "duration": 128}, {"note": 68, "velocity": 68, "duration": 147}, {"note": 0, "velocity": 0, "duration": 93}, {"note": 73, "velocity": 87, "duration": 295}, {"note": 0, "velocity": 0, "duration": 65}, {"note": 71, "velocity": 68, "duration": 170}, {"note": 73, "velocity": 72, "duration": 221}, {"note": 75, "velocity": 74, "duration": 264}, {"note": 71, "velocity": 87, "duration": 348}, {"note": 68, "velocity": 65, "duration": 109}, {"note": 71, "velocity": 85, "duration": 274}, {"note": 68, "velocity": 79, "duration": 195}, {"note": 66, "velocity": 98, "duration": 689}, {"note": 0, "velocity": 0, "duration": 271}, {"note": 80, "velocity": 100, "duration": 253}, {"note": 78, "velocity": 87, "duration": 274}, {"note": 75, "velocity": 82, "duration": 195}, {"note": 75, "velocity": 82, "duration": 195}, {"note": 80, "velocity": 99, "duration": 148}, {"note": 0, "velocity": 0, "duration": 96}, {"note": 78, "velocity": 99, "duration": 148}, {"note": 0, "velocity": 0, "duration": 82}, {"note": 80, "velocity": 98, "duration": 215}, {"note": 80, "velocity": 90, "duration": 256}, {"note": 83, "velocity": 89, "duration": 253}, {"note": 80, "velocity": 101, "duration": 266}, {"note": 78, "velocity": 101, "duration": 148}, {"note": 0, "velocity": 0, "duration": 90}, {"note": 78, "velocity": 97, "duration": 251}, {"note": 83, "velocity": 100, "duration": 129}, {"note": 0, "velocity": 0, "duration": 113}, {"note": 80, "velocity": 100, "duration": 129}, {"note": 0, "velocity": 0, "duration": 111}, {"note": 83, "velocity": 97, "duration": 107}, {"note": 0, "velocity": 0, "duration": 131}, {"note": 83, "velocity": 108, "duration": 276}, {"note": 0, "velocity": 0, "duration": 204}, {"note": 83, "velocity": 103, "duration": 97}, {"note": 0, "velocity": 0, "duration": 143}, {"note": 83, "velocity": 100, "duration": 93}, {"note": 0, "velocity": 0, "duration": 147}, {"note": 83, "velocity": 105, "duration": 110}, {"note": 0, "velocity": 0, "duration": 130}, {"note": 82, "velocity": 100, "duration": 251}, {"note": 0, "velocity": 0, "duration": 229}, {"note": 80, "velocity": 108, "duration": 143}, {"note": 0, "velocity": 0, "duration": 97}, {"note": 78, "velocity": 105, "duration": 328}, {"note": 0, "velocity": 0, "duration": 152}, {"note": 80, "velocity": 109, "duration": 1559}, {"note": 0, "velocity": 0, "duration": 121}, {"note": 80, "velocity": 101, "duration": 343}, {"note": 78, "velocity": 76, "duration": 124}, {"note": 75, "velocity": 85, "duration": 123}, {"note": 0, "velocity": 0, "duration": 117}, {"note": 75, "velocity": 81, "duration": 145}, {"note": 0, "velocity": 0, "duration": 95}, {"note": 80, "velocity": 94, "duration": 335}, {"note": 78, "velocity": 75, "duration": 167}, {"note": 80, "velocity": 84, "duration": 198}, {"note": 83, "velocity": 85, "duration": 286}, {"note": 78, "velocity": 91, "duration": 342}, {"note": 75, "velocity": 64, "duration": 189}, {"note": 78, "velocity": 86, "duration": 253}, {"note": 80, "velocity": 90, "duration": 203}, {"note": 80, "velocity": 91, "duration": 206}, {"note": 78, "velocity": 91, "duration": 481}, {"note": 0, "velocity": 0, "duration": 239}, {"note": 73, "velocity": 97, "duration": 358}, {"note": 71, "velocity": 80, "duration": 125}, {"note": 68, "velocity": 66, "duration": 112}, {"note": 0, "velocity": 0, "duration": 128}, {"note": 68, "velocity": 68, "duration": 147}, {"note": 0, "velocity": 0, "duration": 93}, {"note": 73, "velocity": 87, "duration": 296}, {"note": 0, "velocity": 0, "duration": 64}, {"note": 71, "velocity": 68, "duration": 170}, {"note": 73, "velocity": 72, "duration": 221}, {"note": 75, "velocity": 74, "duration": 263}, {"note": 71, "velocity": 87, "duration": 310}, {"note": 68, "velocity": 65, "duration": 194}, {"note": 71, "velocity": 85, "duration": 224}, {"note": 68, "velocity": 79, "duration": 239}, {"note": 66, "velocity": 98, "duration": 639}, {"note": 0, "velocity": 0, "duration": 321}, {"note": 80, "velocity": 100, "duration": 190}, {"note": 78, "velocity": 87, "duration": 376}, {"note": 75, "velocity": 82, "duration": 195}, {"note": 75, "velocity": 82, "duration": 195}, {"note": 80, "velocity": 99, "duration": 148}, {"note": 0, "velocity": 0, "duration": 98}, {"note": 78, "velocity": 99, "duration": 148}, {"note": 0, "velocity": 0, "duration": 88}, {"note": 80, "velocity": 98, "duration": 164}, {"note": 0, "velocity": 0, "duration": 74}, {"note": 80, "velocity": 90, "duration": 256}, {"note": 83, "velocity": 89, "duration": 253}, {"note": 80, "velocity": 101, "duration": 174}, {"note": 78, "velocity": 101, "duration": 174}, {"note": 0, "velocity": 0, "duration": 72}, {"note": 78, "velocity": 97, "duration": 251}, {"note": 83, "velocity": 100, "duration": 129}, {"note": 0, "velocity": 0, "duration": 117}, {"note": 80, "velocity": 100, "duration": 129}, {"note": 0, "velocity": 0, "duration": 111}, {"note": 83, "velocity": 97, "duration": 103}, {"note": 0, "velocity": 0, "duration": 131}, {"note": 83, "velocity": 108, "duration": 275}, {"note": 0, "velocity": 0, "duration": 205}, {"note": 83, "velocity": 103, "duration": 97}, {"note": 0, "velocity": 0, "duration": 143}, {"note": 83, "velocity": 100, "duration": 93}, {"note": 0, "velocity": 0, "duration": 147}, {"note": 83, "velocity": 105, "duration": 110}, {"note": 0, "velocity": 0, "duration": 130}, {"note": 82, "velocity": 100, "duration": 251}, {"note": 0, "velocity": 0, "duration": 229}, {"note": 80, "velocity": 108, "duration": 143}, {"note": 0, "velocity": 0, "duration": 97}, {"note": 78, "velocity": 105, "duration": 328}, {"note": 0, "velocity": 0, "duration": 166}, {"note": 80, "velocity": 109, "duration": 1546}, {"note": 0, "velocity": 0, "duration": 223}, {"note": 83, "velocity": 84, "duration": 128}, {"note": 0, "velocity": 0, "duration": 112}, {"note": 83, "velocity": 89, "duration": 118}, {"note": 0, "velocity": 0, "duration": 122}, {"note": 83, "velocity": 83, "duration": 212}, {"note": 85, "velocity": 93, "duration": 520}, {"note": 82, "velocity": 93, "duration": 473}, {"note": 78, "velocity": 93, "duration": 471}, {"note": 80, "velocity": 76, "duration": 3688}]]