[[{"note": 71, "velocity": 83, "duration": 236}, {"note": 73, "velocity": 67, "duration": 236}, {"note": 74, "velocity": 68, "duration": 236}, {"note": 73, "velocity": 80, "duration": 236}, {"note": 71, "velocity": 66, "duration": 956}, {"note": 69, "velocity": 90, "duration": 236}, {"note": 71, "velocity": 66, "duration": 236}, {"note": 73, "velocity": 73, "duration": 236}, {"note": 69, "velocity": 66, "duration": 236}, {"note": 66, "velocity": 74, "duration": 956}, {"note": 67, "velocity": 94, "duration": 236}, {"note": 67, "velocity": 85, "duration": 476}, {"note": 71, "velocity": 94, "duration": 236}, {"note": 69, "velocity": 84, "duration": 476}, {"note": 69, "velocity": 77, "duration": 236}, {"note": 67, "velocity": 57, "duration": 356}, {"note": 64, "velocity": 58, "duration": 596}, {"note": 66, "velocity": 35, "duration": 1196}, {"note": 71, "velocity": 97, "duration": 236}, {"note": 73, "velocity": 85, "duration": 236}, {"note": 74, "velocity": 87, "duration": 236}, {"note": 73, "velocity": 91, "duration": 236}, {"note": 71, "velocity": 91, "duration": 716}, {"note": 66, "velocity": 66, "duration": 236}, {"note": 69, "velocity": 84, "duration": 236}, {"note": 71, "velocity": 87, "duration": 236}, {"note": 73, "velocity": 84, "duration": 236}, {"note": 71, "velocity": 91, "duration": 236}, {"note": 69, "velocity": 81, "duration": 956}, {"note": 71, "velocity": 98, "duration": 236}, {"note": 71, "velocity": 92, "duration": 476}, {"note": 74, "velocity": 97, "duration": 236}, {"note": 73, "velocity": 96, "duration": 476}, {"note": 71, "velocity": 96, "duration": 236}, {"note": 69, "velocity": 87, "duration": 476}, {"note": 71, "velocity": 90, "duration": 1676}, {"note": 71, "velocity": 90, "duration": 236}, {"note": 73, "velocity": 92, "duration": 236}, {"note": 74, "velocity": 98, "duration": 236}, {"note": 73, "velocity": 93, "duration": 236}, {"note": 71, "velocity": 97, "duration": 956}, {"note": 69, "velocity": 92, "duration": 236}, {"note": 71, "velocity": 87, "duration": 236}, {"note": 73, "velocity": 87, "duration": 236}, {"note": 69, "velocity": 67, "duration": 236}, {"note": 66, "velocity": 68, "duration": 956}, {"note": 67, "velocity": 93, "duration": 236}, {"note": 67, "velocity": 85, "duration": 476}, {"note": 71, "velocity": 97, "duration": 236}, {"note": 69, "velocity": 81, "duration": 476}, {"note": 69, "velocity": 80, "duration": 236}, {"note": 67, "velocity": 66, "duration": 476}, {"note": 64, "velocity": 58, "duration": 476}, {"note": 66, "velocity": 48, "duration": 1196}, {"note": 71, "velocity": 100, "duration": 236}, {"note": 73, "velocity": 91, "duration": 236}, {"note": 74, "velocity": 96, "duration": 236}, {"note": 73, "velocity": 93, "duration": 236}, {"note": 71, "velocity": 96, "duration": 956}, {"note": 69, "velocity": 90, "duration": 236}, {"note": 71, "velocity": 75, "duration": 236}, {"note": 73, "velocity": 86, "duration": 236}, {"note": 71, "velocity": 65, "duration": 476}, {"note": 69, "velocity": 75, "duration": 716}, {"note": 71, "velocity": 99, "duration": 236}, {"note": 71, "velocity": 93, "duration": 476}, {"note": 74, "velocity": 98, "duration": 236}, {"note": 73, "velocity": 90, "duration": 476}, {"note": 71, "velocity": 93, "duration": 236}, {"note": 69, "velocity": 90, "duration": 236}, {"note": 71, "velocity": 95, "duration": 3356}, {"note": 74, "velocity": 92, "duration": 236}, {"note": 76, "velocity": 71, "duration": 236}, {"note": 78, "velocity": 66, "duration": 236}, {"note": 78, "velocity": 77, "duration": 236}, {"note": 78, "velocity": 84, "duration": 236}, {"note": 76, "velocity": 66, "duration": 236}, {"note": 76, "velocity": 74, "duration": 476}, {"note": 78, "velocity": 106, "duration": 236}, {"note": 76, "velocity": 84, "duration": 236}, {"note": 76, "velocity": 87, "duration": 236}, {"note": 74, "velocity": 64, "duration": 236}, {"note": 76, "velocity": 81, "duration": 236}, {"note": 74, "velocity": 77, "duration": 240}, {"note": 0, "velocity": 0, "duration": 240}, {"note": 73, "velocity": 87, "duration": 476}, {"note": 69, "velocity": 97, "duration": 236}, {"note": 71, "velocity": 97, "duration": 236}, {"note": 71, "velocity": 96, "duration": 476}, {"note": 71, "velocity": 103, "duration": 236}, {"note": 69, "velocity": 95, "duration": 476}, {"note": 71, "velocity": 97, "duration": 476}, {"note": 66, "velocity": 83, "duration": 1436}, {"note": 74, "velocity": 109, "duration": 236}, {"note": 76, "velocity": 87, "duration": 236}, {"note": 78, "velocity": 93, "duration": 236}, {"note": 78, "velocity": 96, "duration": 236}, {"note": 78, "velocity": 97, "duration": 236}, {"note": 76, "velocity": 87, "duration": 236}, {"note": 76, "velocity": 92, "duration": 476}, {"note": 78, "velocity": 101, "duration": 236}, {"note": 76, "velocity": 90, "duration": 236}, {"note": 76, "velocity": 95, "duration": 236}, {"note": 74, "velocity": 90, "duration": 236}, {"note": 76, "velocity": 96, "duration": 236}, {"note": 74, "velocity": 96, "duration": 476}, {"note": 73, "velocity": 74, "duration": 476}, {"note": 69, "velocity": 91, "duration": 236}, {"note": 71, "velocity": 89, "duration": 716}, {"note": 71, "velocity": 96, "duration": 236}, {"note": 73, "velocity": 97, "duration": 356}, {"note": 71, "velocity": 98, "duration": 356}, {"note": 69, "velocity": 97, "duration": 236}, {"note": 71, "velocity": 94, "duration": 1920}, {"note": 0, "velocity": 0, "duration": 17280}, {"note": 71, "velocity": 83, "duration": 236}, {"note": 73, "velocity": 67, "duration": 236}, {"note": 74, "velocity": 68, "duration": 236}, {"note": 73, "velocity": 80, "duration": 236}, {"note": 71, "velocity": 66, "duration": 956}, {"note": 69, "velocity": 90, "duration": 236}, {"note": 71, "velocity": 66, "duration": 236}, {"note": 73, "velocity": 73, "duration": 236}, {"note": 69, "velocity": 66, "duration": 236}, {"note": 66, "velocity": 74, "duration": 956}, {"note": 67, "velocity": 94, "duration": 236}, {"note": 67, "velocity": 85, "duration": 476}, {"note": 71, "velocity": 94, "duration": 236}, {"note": 69, "velocity": 84, "duration": 236}, {"note": 69, "velocity": 77, "duration": 476}, {"note": 67, "velocity": 57, "duration": 236}, {"note": 64, "velocity": 58, "duration": 356}, {"note": 66, "velocity": 35, "duration": 1556}, {"note": 71, "velocity": 97, "duration": 236}, {"note": 73, "velocity": 85, "duration": 236}, {"note": 74, "velocity": 87, "duration": 236}, {"note": 73, "velocity": 91, "duration": 236}, {"note": 71, "velocity": 91, "duration": 716}, {"note": 66, "velocity": 66, "duration": 236}, {"note": 69, "velocity": 84, "duration": 236}, {"note": 71, "velocity": 87, "duration": 236}, {"note": 73, "velocity": 84, "duration": 236}, {"note": 71, "velocity": 91, "duration": 236}, {"note": 69, "velocity": 81, "duration": 956}, {"note": 71, "velocity": 98, "duration": 356}, {"note": 71, "velocity": 92, "duration": 356}, {"note": 74, "velocity": 97, "duration": 236}, {"note": 73, "velocity": 96, "duration": 476}, {"note": 71, "velocity": 96, "duration": 236}, {"note": 69, "velocity": 87, "duration": 476}, {"note": 71, "velocity": 90, "duration": 1676}, {"note": 71, "velocity": 90, "duration": 236}, {"note": 73, "velocity": 92, "duration": 236}, {"note": 74, "velocity": 98, "duration": 236}, {"note": 73, "velocity": 93, "duration": 236}, {"note": 71, "velocity": 97, "duration": 956}, {"note": 69, "velocity": 92, "duration": 236}, {"note": 71, "velocity": 87, "duration": 236}, {"note": 73, "velocity": 87, "duration": 236}, {"note": 69, "velocity": 67, "duration": 236}, {"note": 66, "velocity": 68, "duration": 956}, {"note": 67, "velocity": 93, "duration": 356}, {"note": 67, "velocity": 85, "duration": 476}, {"note": 71, "velocity": 97, "duration": 236}, {"note": 69, "velocity": 81, "duration": 476}, {"note": 69, "velocity": 80, "duration": 236}, {"note": 67, "velocity": 66, "duration": 476}, {"note": 64, "velocity": 58, "duration": 476}, {"note": 66, "velocity": 48, "duration": 1046}, {"note": 71, "velocity": 100, "duration": 236}, {"note": 73, "velocity": 91, "duration": 236}, {"note": 74, "velocity": 96, "duration": 236}, {"note": 73, "velocity": 93, "duration": 236}, {"note": 71, "velocity": 96, "duration": 836}, {"note": 0, "velocity": 0, "duration": 139}, {"note": 69, "velocity": 90, "duration": 236}, {"note": 71, "velocity": 101, "duration": 224}, {"note": 73, "velocity": 99, "duration": 116}, {"note": 0, "velocity": 0, "duration": 134}, {"note": 71, "velocity": 91, "duration": 476}, {"note": 69, "velocity": 75, "duration": 716}, {"note": 71, "velocity": 99, "duration": 356}, {"note": 71, "velocity": 93, "duration": 356}, {"note": 74, "velocity": 98, "duration": 236}, {"note": 73, "velocity": 90, "duration": 476}, {"note": 71, "velocity": 93, "duration": 236}, {"note": 69, "velocity": 90, "duration": 236}, {"note": 71, "velocity": 95, "duration": 3356}, {"note": 74, "velocity": 92, "duration": 236}, {"note": 76, "velocity": 71, "duration": 236}, {"note": 78, "velocity": 66, "duration": 236}, {"note": 78, "velocity": 77, "duration": 236}, {"note": 78, "velocity": 84, "duration": 236}, {"note": 76, "velocity": 66, "duration": 356}, {"note": 76, "velocity": 74, "duration": 360}, {"note": 78, "velocity": 106, "duration": 236}, {"note": 76, "velocity": 84, "duration": 236}, {"note": 76, "velocity": 87, "duration": 236}, {"note": 74, "velocity": 64, "duration": 236}, {"note": 76, "velocity": 81, "duration": 236}, {"note": 74, "velocity": 77, "duration": 476}, {"note": 73, "velocity": 87, "duration": 476}, {"note": 69, "velocity": 97, "duration": 236}, {"note": 71, "velocity": 97, "duration": 236}, {"note": 71, "velocity": 96, "duration": 476}, {"note": 71, "velocity": 103, "duration": 236}, {"note": 69, "velocity": 95, "duration": 476}, {"note": 71, "velocity": 97, "duration": 476}, {"note": 66, "velocity": 83, "duration": 1316}, {"note": 0, "velocity": 0, "duration": 126}, {"note": 74, "velocity": 109, "duration": 240}, {"note": 76, "velocity": 87, "duration": 236}, {"note": 78, "velocity": 93, "duration": 236}, {"note": 78, "velocity": 96, "duration": 236}, {"note": 78, "velocity": 97, "duration": 240}, {"note": 76, "velocity": 87, "duration": 236}, {"note": 76, "velocity": 92, "duration": 476}, {"note": 78, "velocity": 101, "duration": 236}, {"note": 76, "velocity": 90, "duration": 236}, {"note": 76, "velocity": 95, "duration": 236}, {"note": 74, "velocity": 90, "duration": 236}, {"note": 76, "velocity": 96, "duration": 236}, {"note": 74, "velocity": 96, "duration": 476}, {"note": 73, "velocity": 74, "duration": 476}, {"note": 69, "velocity": 91, "duration": 236}, {"note": 71, "velocity": 89, "duration": 716}, {"note": 71, "velocity": 96, "duration": 236}, {"note": 69, "velocity": 97, "duration": 356}, {"note": 66, "velocity": 98, "duration": 356}, {"note": 69, "velocity": 97, "duration": 236}, {"note": 71, "velocity": 94, "duration": 1436}, {"note": 74, "velocity": 92, "duration": 236}, {"note": 76, "velocity": 71, "duration": 236}, {"note": 78, "velocity": 66, "duration": 236}, {"note": 78, "velocity": 77, "duration": 236}, {"note": 78, "velocity": 84, "duration": 236}, {"note": 76, "velocity": 66, "duration": 240}, {"note": 76, "velocity": 74, "duration": 2}, {"note": 0, "velocity": 0, "duration": 478}, {"note": 78, "velocity": 106, "duration": 238}, {"note": 76, "velocity": 84, "duration": 236}, {"note": 76, "velocity": 87, "duration": 236}, {"note": 74, "velocity": 64, "duration": 236}, {"note": 76, "velocity": 81, "duration": 236}, {"note": 74, "velocity": 77, "duration": 476}, {"note": 73, "velocity": 87, "duration": 476}, {"note": 69, "velocity": 97, "duration": 236}, {"note": 71, "velocity": 97, "duration": 236}, {"note": 71, "velocity": 96, "duration": 476}, {"note": 71, "velocity": 103, "duration": 236}, {"note": 69, "velocity": 95, "duration": 476}, {"note": 71, "velocity": 97, "duration": 476}, {"note": 66, "velocity": 83, "duration": 1436}, {"note": 74, "velocity": 109, "duration": 236}, {"note": 76, "velocity": 87, "duration": 236}, {"note": 78, "velocity": 93, "duration": 236}, {"note": 78, "velocity": 96, "duration": 236}, {"note": 78, "velocity": 97, "duration": 236}, {"note": 76, "velocity": 87, "duration": 236}, {"note": 76, "velocity": 92, "duration": 476}, {"note": 78, "velocity": 101, "duration": 236}, {"note": 76, "velocity": 90, "duration": 236}, {"note": 76, "velocity": 95, "duration": 236}, {"note": 74, "velocity": 90, "duration": 236}, {"note": 76, "velocity": 96, "duration": 236}, {"note": 74, "velocity": 96, "duration": 476}, {"note": 73, "velocity": 74, "duration": 476}, {"note": 69, "velocity": 91, "duration": 236}, {"note": 71, "velocity": 89, "duration": 716}, {"note": 71, "velocity": 96, "duration": 236}, {"note": 69, "velocity": 97, "duration": 356}, {"note": 66, "velocity": 98, "duration": 236}, {"note": 69, "velocity": 97, "duration": 356}, {"note": 71, "velocity": 94, "duration": 5756}, {"note": 83, "velocity": 96, "duration": 476}, {"note": 83, "velocity": 90, "duration": 596}, {"note": 86, "velocity": 93, "duration": 236}, {"note": 85, "velocity": 94, "duration": 596}, {"note": 83, "velocity": 93, "duration": 716}, {"note": 81, "velocity": 75, "duration": 1436}, {"note": 83, "velocity": 85, "duration": 4076}]]