[[{"note": 68, "velocity": 66, "duration": 240}, {"note": 73, "velocity": 81, "duration": 240}, {"note": 75, "velocity": 91, "duration": 102}, {"note": 73, "velocity": 90, "duration": 199}, {"note": 73, "velocity": 93, "duration": 239}, {"note": 73, "velocity": 92, "duration": 240}, {"note": 75, "velocity": 93, "duration": 240}, {"note": 73, "velocity": 95, "duration": 1199}, {"note": 73, "velocity": 84, "duration": 239}, {"note": 73, "velocity": 87, "duration": 240}, {"note": 75, "velocity": 76, "duration": 240}, {"note": 77, "velocity": 89, "duration": 240}, {"note": 82, "velocity": 87, "duration": 240}, {"note": 84, "velocity": 94, "duration": 240}, {"note": 85, "velocity": 91, "duration": 480}, {"note": 82, "velocity": 100, "duration": 239}, {"note": 82, "velocity": 101, "duration": 240}, {"note": 80, "velocity": 95, "duration": 239}, {"note": 80, "velocity": 91, "duration": 240}, {"note": 77, "velocity": 94, "duration": 67}, {"note": 73, "velocity": 95, "duration": 240}, {"note": 75, "velocity": 106, "duration": 480}, {"note": 68, "velocity": 91, "duration": 240}, {"note": 73, "velocity": 98, "duration": 240}, {"note": 75, "velocity": 97, "duration": 240}, {"note": 73, "velocity": 100, "duration": 814}, {"note": 73, "velocity": 101, "duration": 239}, {"note": 73, "velocity": 99, "duration": 360}, {"note": 75, "velocity": 95, "duration": 120}, {"note": 77, "velocity": 96, "duration": 1200}, {"note": 68, "velocity": 84, "duration": 240}, {"note": 73, "velocity": 98, "duration": 240}, {"note": 75, "velocity": 90, "duration": 240}, {"note": 77, "velocity": 92, "duration": 240}, {"note": 82, "velocity": 91, "duration": 240}, {"note": 84, "velocity": 98, "duration": 240}, {"note": 85, "velocity": 105, "duration": 480}, {"note": 82, "velocity": 97, "duration": 239}, {"note": 82, "velocity": 98, "duration": 240}, {"note": 80, "velocity": 92, "duration": 239}, {"note": 80, "velocity": 97, "duration": 26}, {"note": 82, "velocity": 92, "duration": 123}, {"note": 77, "velocity": 90, "duration": 240}, {"note": 75, "velocity": 97, "duration": 480}, {"note": 73, "velocity": 103, "duration": 239}, {"note": 73, "velocity": 105, "duration": 240}, {"note": 72, "velocity": 101, "duration": 240}, {"note": 73, "velocity": 105, "duration": 240}, {"note": 70, "velocity": 93, "duration": 240}, {"note": 85, "velocity": 99, "duration": 240}, {"note": 80, "velocity": 98, "duration": 240}, {"note": 82, "velocity": 97, "duration": 479}, {"note": 82, "velocity": 105, "duration": 240}, {"note": 80, "velocity": 103, "duration": 239}, {"note": 80, "velocity": 97, "duration": 240}, {"note": 77, "velocity": 98, "duration": 239}, {"note": 77, "velocity": 97, "duration": 240}, {"note": 73, "velocity": 101, "duration": 240}, {"note": 75, "velocity": 101, "duration": 480}, {"note": 73, "velocity": 101, "duration": 240}, {"note": 72, "velocity": 97, "duration": 240}, {"note": 73, "velocity": 98, "duration": 240}, {"note": 70, "velocity": 94, "duration": 240}, {"note": 85, "velocity": 97, "duration": 240}, {"note": 87, "velocity": 105, "duration": 240}, {"note": 85, "velocity": 106, "duration": 479}, {"note": 85, "velocity": 108, "duration": 240}, {"note": 82, "velocity": 109, "duration": 480}, {"note": 80, "velocity": 101, "duration": 240}, {"note": 77, "velocity": 83, "duration": 240}, {"note": 80, "velocity": 97, "duration": 240}, {"note": 75, "velocity": 99, "duration": 480}, {"note": 73, "velocity": 103, "duration": 240}, {"note": 72, "velocity": 106, "duration": 240}, {"note": 73, "velocity": 103, "duration": 240}, {"note": 70, "velocity": 97, "duration": 240}, {"note": 85, "velocity": 98, "duration": 240}, {"note": 80, "velocity": 94, "duration": 240}, {"note": 82, "velocity": 109, "duration": 479}, {"note": 82, "velocity": 100, "duration": 240}, {"note": 80, "velocity": 103, "duration": 239}, {"note": 80, "velocity": 101, "duration": 240}, {"note": 82, "velocity": 98, "duration": 240}, {"note": 77, "velocity": 94, "duration": 240}, {"note": 80, "velocity": 91, "duration": 240}, {"note": 75, "velocity": 95, "duration": 480}, {"note": 73, "velocity": 100, "duration": 240}, {"note": 75, "velocity": 103, "duration": 240}, {"note": 73, "velocity": 108, "duration": 240}, {"note": 72, "velocity": 99, "duration": 120}, {"note": 73, "velocity": 108, "duration": 1079}, {"note": 73, "velocity": 105, "duration": 240}, {"note": 75, "velocity": 92, "duration": 240}, {"note": 77, "velocity": 99, "duration": 240}, {"note": 75, "velocity": 97, "duration": 120}, {"note": 73, "velocity": 97, "duration": 360}, {"note": 72, "velocity": 87, "duration": 120}, {"note": 73, "velocity": 97, "duration": 8040}, {"note": 68, "velocity": 102, "duration": 240}, {"note": 73, "velocity": 102, "duration": 240}, {"note": 75, "velocity": 91, "duration": 96}, {"note": 73, "velocity": 104, "duration": 193}, {"note": 73, "velocity": 93, "duration": 239}, {"note": 73, "velocity": 92, "duration": 240}, {"note": 75, "velocity": 93, "duration": 240}, {"note": 73, "velocity": 95, "duration": 1199}, {"note": 73, "velocity": 84, "duration": 239}, {"note": 73, "velocity": 87, "duration": 240}, {"note": 75, "velocity": 76, "duration": 240}, {"note": 77, "velocity": 89, "duration": 240}, {"note": 82, "velocity": 87, "duration": 240}, {"note": 84, "velocity": 94, "duration": 240}, {"note": 85, "velocity": 91, "duration": 480}, {"note": 82, "velocity": 100, "duration": 239}, {"note": 82, "velocity": 101, "duration": 240}, {"note": 80, "velocity": 95, "duration": 239}, {"note": 80, "velocity": 91, "duration": 240}, {"note": 77, "velocity": 94, "duration": 61}, {"note": 73, "velocity": 95, "duration": 240}, {"note": 75, "velocity": 106, "duration": 480}, {"note": 68, "velocity": 91, "duration": 240}, {"note": 73, "velocity": 98, "duration": 240}, {"note": 75, "velocity": 97, "duration": 240}, {"note": 73, "velocity": 100, "duration": 809}, {"note": 73, "velocity": 101, "duration": 239}, {"note": 73, "velocity": 99, "duration": 360}, {"note": 75, "velocity": 95, "duration": 120}, {"note": 77, "velocity": 96, "duration": 1200}, {"note": 68, "velocity": 84, "duration": 240}, {"note": 73, "velocity": 98, "duration": 240}, {"note": 75, "velocity": 90, "duration": 240}, {"note": 77, "velocity": 92, "duration": 240}, {"note": 82, "velocity": 91, "duration": 240}, {"note": 84, "velocity": 98, "duration": 240}, {"note": 85, "velocity": 105, "duration": 480}, {"note": 82, "velocity": 97, "duration": 239}, {"note": 82, "velocity": 98, "duration": 240}, {"note": 80, "velocity": 92, "duration": 239}, {"note": 80, "velocity": 97, "duration": 20}, {"note": 82, "velocity": 92, "duration": 117}, {"note": 77, "velocity": 90, "duration": 240}, {"note": 75, "velocity": 97, "duration": 480}, {"note": 73, "velocity": 103, "duration": 239}, {"note": 73, "velocity": 105, "duration": 240}, {"note": 72, "velocity": 101, "duration": 240}, {"note": 73, "velocity": 105, "duration": 240}, {"note": 70, "velocity": 93, "duration": 240}, {"note": 85, "velocity": 99, "duration": 240}, {"note": 80, "velocity": 98, "duration": 240}, {"note": 82, "velocity": 97, "duration": 479}, {"note": 82, "velocity": 105, "duration": 240}, {"note": 80, "velocity": 103, "duration": 239}, {"note": 80, "velocity": 97, "duration": 240}, {"note": 77, "velocity": 98, "duration": 239}, {"note": 77, "velocity": 97, "duration": 240}, {"note": 73, "velocity": 101, "duration": 240}, {"note": 75, "velocity": 101, "duration": 480}, {"note": 73, "velocity": 101, "duration": 240}, {"note": 72, "velocity": 97, "duration": 240}, {"note": 73, "velocity": 98, "duration": 240}, {"note": 70, "velocity": 94, "duration": 240}, {"note": 85, "velocity": 97, "duration": 240}, {"note": 87, "velocity": 105, "duration": 240}, {"note": 85, "velocity": 106, "duration": 479}, {"note": 85, "velocity": 108, "duration": 240}, {"note": 82, "velocity": 109, "duration": 480}, {"note": 80, "velocity": 101, "duration": 240}, {"note": 77, "velocity": 83, "duration": 240}, {"note": 80, "velocity": 97, "duration": 240}, {"note": 75, "velocity": 99, "duration": 480}, {"note": 73, "velocity": 103, "duration": 240}, {"note": 72, "velocity": 106, "duration": 240}, {"note": 73, "velocity": 103, "duration": 240}, {"note": 70, "velocity": 97, "duration": 240}, {"note": 85, "velocity": 98, "duration": 240}, {"note": 80, "velocity": 94, "duration": 240}, {"note": 82, "velocity": 109, "duration": 479}, {"note": 82, "velocity": 100, "duration": 240}, {"note": 80, "velocity": 103, "duration": 239}, {"note": 80, "velocity": 101, "duration": 240}, {"note": 82, "velocity": 98, "duration": 240}, {"note": 77, "velocity": 94, "duration": 240}, {"note": 80, "velocity": 91, "duration": 240}, {"note": 75, "velocity": 95, "duration": 480}, {"note": 73, "velocity": 100, "duration": 240}, {"note": 75, "velocity": 103, "duration": 240}, {"note": 73, "velocity": 108, "duration": 240}, {"note": 72, "velocity": 99, "duration": 120}, {"note": 73, "velocity": 108, "duration": 1079}, {"note": 73, "velocity": 105, "duration": 240}, {"note": 75, "velocity": 92, "duration": 240}, {"note": 77, "velocity": 99, "duration": 240}, {"note": 75, "velocity": 97, "duration": 120}, {"note": 73, "velocity": 97, "duration": 360}, {"note": 72, "velocity": 87, "duration": 120}, {"note": 73, "velocity": 97, "duration": 599}, {"note": 73, "velocity": 105, "duration": 239}, {"note": 73, "velocity": 101, "duration": 239}, {"note": 73, "velocity": 105, "duration": 240}, {"note": 70, "velocity": 93, "duration": 240}, {"note": 85, "velocity": 99, "duration": 240}, {"note": 80, "velocity": 98, "duration": 240}, {"note": 82, "velocity": 97, "duration": 479}, {"note": 82, "velocity": 105, "duration": 240}, {"note": 80, "velocity": 103, "duration": 239}, {"note": 80, "velocity": 97, "duration": 240}, {"note": 77, "velocity": 98, "duration": 239}, {"note": 77, "velocity": 97, "duration": 240}, {"note": 73, "velocity": 101, "duration": 240}, {"note": 75, "velocity": 101, "duration": 480}, {"note": 73, "velocity": 101, "duration": 240}, {"note": 72, "velocity": 97, "duration": 240}, {"note": 73, "velocity": 98, "duration": 240}, {"note": 70, "velocity": 94, "duration": 240}, {"note": 85, "velocity": 97, "duration": 240}, {"note": 87, "velocity": 105, "duration": 240}, {"note": 85, "velocity": 106, "duration": 479}, {"note": 85, "velocity": 108, "duration": 240}, {"note": 82, "velocity": 109, "duration": 480}, {"note": 80, "velocity": 101, "duration": 240}, {"note": 77, "velocity": 83, "duration": 240}, {"note": 80, "velocity": 97, "duration": 240}, {"note": 75, "velocity": 99, "duration": 480}, {"note": 73, "velocity": 103, "duration": 239}, {"note": 73, "velocity": 106, "duration": 239}, {"note": 73, "velocity": 103, "duration": 240}, {"note": 70, "velocity": 97, "duration": 240}, {"note": 85, "velocity": 98, "duration": 240}, {"note": 80, "velocity": 94, "duration": 240}, {"note": 82, "velocity": 109, "duration": 479}, {"note": 82, "velocity": 100, "duration": 240}, {"note": 80, "velocity": 103, "duration": 239}, {"note": 80, "velocity": 101, "duration": 240}, {"note": 82, "velocity": 98, "duration": 240}, {"note": 77, "velocity": 94, "duration": 240}, {"note": 80, "velocity": 91, "duration": 240}, {"note": 75, "velocity": 95, "duration": 480}, {"note": 73, "velocity": 100, "duration": 240}, {"note": 75, "velocity": 103, "duration": 240}, {"note": 73, "velocity": 108, "duration": 240}, {"note": 72, "velocity": 99, "duration": 240}, {"note": 73, "velocity": 108, "duration": 959}, {"note": 73, "velocity": 105, "duration": 240}, {"note": 75, "velocity": 92, "duration": 240}, {"note": 77, "velocity": 99, "duration": 240}, {"note": 75, "velocity": 97, "duration": 120}, {"note": 73, "velocity": 97, "duration": 360}, {"note": 72, "velocity": 87, "duration": 120}, {"note": 73, "velocity": 97, "duration": 2280}, {"note": 74, "velocity": 103, "duration": 239}, {"note": 74, "velocity": 105, "duration": 240}, {"note": 73, "velocity": 101, "duration": 240}, {"note": 74, "velocity": 105, "duration": 240}, {"note": 71, "velocity": 93, "duration": 240}, {"note": 86, "velocity": 99, "duration": 240}, {"note": 81, "velocity": 98, "duration": 240}, {"note": 83, "velocity": 97, "duration": 479}, {"note": 83, "velocity": 105, "duration": 240}, {"note": 81, "velocity": 103, "duration": 239}, {"note": 81, "velocity": 97, "duration": 240}, {"note": 78, "velocity": 98, "duration": 239}, {"note": 78, "velocity": 97, "duration": 240}, {"note": 74, "velocity": 101, "duration": 240}, {"note": 76, "velocity": 101, "duration": 480}, {"note": 74, "velocity": 101, "duration": 240}, {"note": 73, "velocity": 97, "duration": 240}, {"note": 74, "velocity": 98, "duration": 240}, {"note": 71, "velocity": 94, "duration": 240}, {"note": 86, "velocity": 97, "duration": 240}, {"note": 88, "velocity": 105, "duration": 240}, {"note": 86, "velocity": 106, "duration": 479}, {"note": 86, "velocity": 108, "duration": 240}, {"note": 83, "velocity": 109, "duration": 480}, {"note": 81, "velocity": 101, "duration": 240}, {"note": 78, "velocity": 83, "duration": 240}, {"note": 81, "velocity": 97, "duration": 240}, {"note": 76, "velocity": 99, "duration": 480}, {"note": 74, "velocity": 103, "duration": 240}, {"note": 73, "velocity": 106, "duration": 240}, {"note": 74, "velocity": 103, "duration": 240}, {"note": 71, "velocity": 97, "duration": 240}, {"note": 86, "velocity": 98, "duration": 240}, {"note": 81, "velocity": 94, "duration": 240}, {"note": 83, "velocity": 109, "duration": 479}, {"note": 83, "velocity": 100, "duration": 240}, {"note": 81, "velocity": 103, "duration": 239}, {"note": 81, "velocity": 101, "duration": 240}, {"note": 83, "velocity": 98, "duration": 240}, {"note": 78, "velocity": 94, "duration": 240}, {"note": 81, "velocity": 91, "duration": 240}, {"note": 76, "velocity": 95, "duration": 480}, {"note": 74, "velocity": 100, "duration": 240}, {"note": 76, "velocity": 103, "duration": 240}, {"note": 74, "velocity": 108, "duration": 240}, {"note": 73, "velocity": 99, "duration": 240}, {"note": 74, "velocity": 108, "duration": 959}, {"note": 74, "velocity": 105, "duration": 240}, {"note": 76, "velocity": 92, "duration": 240}, {"note": 78, "velocity": 99, "duration": 240}, {"note": 76, "velocity": 97, "duration": 120}, {"note": 74, "velocity": 97, "duration": 360}, {"note": 73, "velocity": 87, "duration": 120}, {"note": 74, "velocity": 97, "duration": 2016}]]