[[{"note": 64, "velocity": 53, "duration": 299}, {"note": 62, "velocity": 60, "duration": 284}, {"note": 60, "velocity": 53, "duration": 292}, {"note": 67, "velocity": 68, "duration": 720}, {"note": 62, "velocity": 95, "duration": 251}, {"note": 60, "velocity": 72, "duration": 240}, {"note": 59, "velocity": 63, "duration": 286}, {"note": 67, "velocity": 83, "duration": 240}, {"note": 69, "velocity": 91, "duration": 240}, {"note": 71, "velocity": 92, "duration": 240}, {"note": 72, "velocity": 97, "duration": 116}, {"note": 71, "velocity": 91, "duration": 273}, {"note": 72, "velocity": 100, "duration": 480}, {"note": 64, "velocity": 90, "duration": 278}, {"note": 67, "velocity": 97, "duration": 1316}, {"note": 69, "velocity": 105, "duration": 253}, {"note": 67, "velocity": 83, "duration": 119}, {"note": 65, "velocity": 73, "duration": 26}, {"note": 69, "velocity": 103, "duration": 342}, {"note": 67, "velocity": 66, "duration": 269}, {"note": 65, "velocity": 58, "duration": 240}, {"note": 64, "velocity": 45, "duration": 256}, {"note": 67, "velocity": 59, "duration": 240}, {"note": 62, "velocity": 51, "duration": 251}, {"note": 64, "velocity": 56, "duration": 280}, {"note": 65, "velocity": 64, "duration": 480}, {"note": 64, "velocity": 46, "duration": 277}, {"note": 67, "velocity": 66, "duration": 485}, {"note": 64, "velocity": 53, "duration": 273}, {"note": 62, "velocity": 58, "duration": 1440}, {"note": 64, "velocity": 96, "duration": 264}, {"note": 62, "velocity": 86, "duration": 240}, {"note": 60, "velocity": 71, "duration": 44}, {"note": 67, "velocity": 90, "duration": 431}, {"note": 62, "velocity": 98, "duration": 240}, {"note": 60, "velocity": 64, "duration": 112}, {"note": 59, "velocity": 74, "duration": 262}, {"note": 67, "velocity": 79, "duration": 400}, {"note": 69, "velocity": 83, "duration": 240}, {"note": 71, "velocity": 83, "duration": 240}, {"note": 72, "velocity": 97, "duration": 480}, {"note": 71, "velocity": 91, "duration": 253}, {"note": 72, "velocity": 93, "duration": 484}, {"note": 64, "velocity": 89, "duration": 279}, {"note": 67, "velocity": 87, "duration": 1440}, {"note": 69, "velocity": 91, "duration": 240}, {"note": 67, "velocity": 68, "duration": 240}, {"note": 65, "velocity": 66, "duration": 240}, {"note": 69, "velocity": 97, "duration": 720}, {"note": 67, "velocity": 99, "duration": 240}, {"note": 65, "velocity": 87, "duration": 240}, {"note": 64, "velocity": 90, "duration": 247}, {"note": 62, "velocity": 97, "duration": 719}, {"note": 62, "velocity": 105, "duration": 480}, {"note": 60, "velocity": 103, "duration": 1920}, {"note": 69, "velocity": 93, "duration": 240}, {"note": 71, "velocity": 72, "duration": 281}, {"note": 72, "velocity": 95, "duration": 479}, {"note": 72, "velocity": 97, "duration": 239}, {"note": 72, "velocity": 93, "duration": 243}, {"note": 71, "velocity": 84, "duration": 240}, {"note": 69, "velocity": 80, "duration": 239}, {"note": 69, "velocity": 87, "duration": 480}, {"note": 67, "velocity": 84, "duration": 719}, {"note": 67, "velocity": 68, "duration": 263}, {"note": 69, "velocity": 87, "duration": 480}, {"note": 60, "velocity": 74, "duration": 239}, {"note": 60, "velocity": 80, "duration": 239}, {"note": 60, "velocity": 69, "duration": 240}, {"note": 67, "velocity": 90, "duration": 241}, {"note": 64, "velocity": 91, "duration": 1439}, {"note": 64, "velocity": 101, "duration": 479}, {"note": 64, "velocity": 93, "duration": 239}, {"note": 64, "velocity": 93, "duration": 239}, {"note": 64, "velocity": 91, "duration": 240}, {"note": 62, "velocity": 87, "duration": 240}, {"note": 60, "velocity": 97, "duration": 480}, {"note": 64, "velocity": 93, "duration": 240}, {"note": 69, "velocity": 105, "duration": 480}, {"note": 71, "velocity": 101, "duration": 240}, {"note": 72, "velocity": 106, "duration": 720}, {"note": 69, "velocity": 109, "duration": 176}, {"note": 69, "velocity": 99, "duration": 251}, {"note": 71, "velocity": 103, "duration": 217}, {"note": 72, "velocity": 109, "duration": 695}, {"note": 72, "velocity": 108, "duration": 144}, {"note": 72, "velocity": 93, "duration": 122}, {"note": 74, "velocity": 100, "duration": 240}, {"note": 76, "velocity": 99, "duration": 239}, {"note": 76, "velocity": 98, "duration": 239}, {"note": 76, "velocity": 97, "duration": 239}, {"note": 76, "velocity": 100, "duration": 270}, {"note": 77, "velocity": 103, "duration": 194}, {"note": 76, "velocity": 109, "duration": 223}, {"note": 74, "velocity": 114, "duration": 676}, {"note": 67, "velocity": 97, "duration": 240}, {"note": 72, "velocity": 93, "duration": 269}, {"note": 74, "velocity": 100, "duration": 313}, {"note": 76, "velocity": 106, "duration": 719}, {"note": 76, "velocity": 106, "duration": 719}, {"note": 76, "velocity": 101, "duration": 239}, {"note": 76, "velocity": 97, "duration": 239}, {"note": 76, "velocity": 97, "duration": 239}, {"note": 76, "velocity": 97, "duration": 240}, {"note": 74, "velocity": 99, "duration": 240}, {"note": 72, "velocity": 98, "duration": 267}, {"note": 74, "velocity": 103, "duration": 720}, {"note": 72, "velocity": 103, "duration": 523}, {"note": 71, "velocity": 103, "duration": 720}, {"note": 69, "velocity": 94, "duration": 480}, {"note": 71, "velocity": 97, "duration": 243}, {"note": 72, "velocity": 111, "duration": 719}, {"note": 72, "velocity": 109, "duration": 719}, {"note": 72, "velocity": 101, "duration": 239}, {"note": 72, "velocity": 90, "duration": 239}, {"note": 72, "velocity": 97, "duration": 239}, {"note": 72, "velocity": 94, "duration": 261}, {"note": 71, "velocity": 90, "duration": 254}, {"note": 69, "velocity": 93, "duration": 239}, {"note": 69, "velocity": 94, "duration": 768}, {"note": 67, "velocity": 91, "duration": 480}, {"note": 71, "velocity": 94, "duration": 256}, {"note": 64, "velocity": 90, "duration": 719}, {"note": 64, "velocity": 106, "duration": 480}, {"note": 67, "velocity": 106, "duration": 240}, {"note": 69, "velocity": 109, "duration": 479}, {"note": 69, "velocity": 92, "duration": 239}, {"note": 69, "velocity": 95, "duration": 240}, {"note": 64, "velocity": 80, "duration": 249}, {"note": 69, "velocity": 97, "duration": 240}, {"note": 76, "velocity": 97, "duration": 502}, {"note": 77, "velocity": 97, "duration": 86}, {"note": 74, "velocity": 97, "duration": 639}, {"note": 67, "velocity": 92, "duration": 479}, {"note": 67, "velocity": 91, "duration": 239}, {"note": 67, "velocity": 93, "duration": 240}, {"note": 64, "velocity": 87, "duration": 259}, {"note": 67, "velocity": 95, "duration": 240}, {"note": 72, "velocity": 87, "duration": 719}, {"note": 72, "velocity": 105, "duration": 494}, {"note": 71, "velocity": 97, "duration": 240}, {"note": 69, "velocity": 93, "duration": 255}, {"note": 71, "velocity": 91, "duration": 262}, {"note": 72, "velocity": 97, "duration": 240}, {"note": 69, "velocity": 105, "duration": 719}, {"note": 69, "velocity": 108, "duration": 166}, {"note": 71, "velocity": 95, "duration": 256}, {"note": 72, "velocity": 106, "duration": 240}, {"note": 69, "velocity": 103, "duration": 480}, {"note": 72, "velocity": 91, "duration": 240}, {"note": 76, "velocity": 93, "duration": 239}, {"note": 76, "velocity": 103, "duration": 239}, {"note": 76, "velocity": 97, "duration": 239}, {"note": 76, "velocity": 99, "duration": 240}, {"note": 77, "velocity": 100, "duration": 240}, {"note": 76, "velocity": 106, "duration": 242}, {"note": 74, "velocity": 108, "duration": 699}, {"note": 67, "velocity": 97, "duration": 240}, {"note": 72, "velocity": 90, "duration": 240}, {"note": 74, "velocity": 97, "duration": 274}, {"note": 76, "velocity": 101, "duration": 959}, {"note": 76, "velocity": 106, "duration": 479}, {"note": 76, "velocity": 105, "duration": 239}, {"note": 76, "velocity": 97, "duration": 239}, {"note": 76, "velocity": 99, "duration": 239}, {"note": 76, "velocity": 99, "duration": 240}, {"note": 74, "velocity": 98, "duration": 240}, {"note": 72, "velocity": 93, "duration": 264}, {"note": 74, "velocity": 98, "duration": 243}, {"note": 72, "velocity": 108, "duration": 720}, {"note": 71, "velocity": 108, "duration": 720}, {"note": 69, "velocity": 97, "duration": 504}, {"note": 71, "velocity": 97, "duration": 308}, {"note": 72, "velocity": 109, "duration": 719}, {"note": 72, "velocity": 111, "duration": 719}, {"note": 72, "velocity": 111, "duration": 239}, {"note": 72, "velocity": 100, "duration": 239}, {"note": 72, "velocity": 99, "duration": 239}, {"note": 72, "velocity": 94, "duration": 260}, {"note": 71, "velocity": 93, "duration": 240}, {"note": 69, "velocity": 93, "duration": 239}, {"note": 69, "velocity": 97, "duration": 152}, {"note": 67, "velocity": 92, "duration": 480}, {"note": 71, "velocity": 97, "duration": 255}, {"note": 64, "velocity": 96, "duration": 702}, {"note": 64, "velocity": 94, "duration": 465}, {"note": 67, "velocity": 98, "duration": 240}, {"note": 69, "velocity": 98, "duration": 239}, {"note": 69, "velocity": 95, "duration": 239}, {"note": 69, "velocity": 97, "duration": 239}, {"note": 69, "velocity": 97, "duration": 240}, {"note": 71, "velocity": 90, "duration": 275}, {"note": 72, "velocity": 98, "duration": 240}, {"note": 71, "velocity": 108, "duration": 719}, {"note": 71, "velocity": 100, "duration": 495}, {"note": 69, "velocity": 99, "duration": 264}, {"note": 67, "velocity": 98, "duration": 480}, {"note": 64, "velocity": 86, "duration": 479}, {"note": 64, "velocity": 86, "duration": 240}, {"note": 74, "velocity": 91, "duration": 240}, {"note": 72, "velocity": 99, "duration": 719}, {"note": 72, "velocity": 108, "duration": 488}, {"note": 71, "velocity": 99, "duration": 258}, {"note": 69, "velocity": 99, "duration": 260}, {"note": 71, "velocity": 98, "duration": 258}, {"note": 72, "velocity": 106, "duration": 960}, {"note": 69, "velocity": 86, "duration": 480}, {"note": 72, "velocity": 97, "duration": 239}, {"note": 72, "velocity": 98, "duration": 521}, {"note": 74, "velocity": 100, "duration": 567}, {"note": 72, "velocity": 99, "duration": 1838}, {"note": 0, "velocity": 0, "duration": 11096}, {"note": 76, "velocity": 53, "duration": 300}, {"note": 74, "velocity": 60, "duration": 284}, {"note": 72, "velocity": 53, "duration": 291}, {"note": 79, "velocity": 68, "duration": 720}, {"note": 74, "velocity": 95, "duration": 251}, {"note": 72, "velocity": 72, "duration": 240}, {"note": 71, "velocity": 63, "duration": 286}, {"note": 79, "velocity": 83, "duration": 240}, {"note": 81, "velocity": 91, "duration": 240}, {"note": 83, "velocity": 92, "duration": 240}, {"note": 84, "velocity": 97, "duration": 143}, {"note": 84, "velocity": 91, "duration": 239}, {"note": 84, "velocity": 100, "duration": 480}, {"note": 83, "velocity": 90, "duration": 278}, {"note": 81, "velocity": 97, "duration": 384}, {"note": 79, "velocity": 97, "duration": 960}, {"note": 81, "velocity": 105, "duration": 252}, {"note": 79, "velocity": 83, "duration": 146}, {"note": 77, "velocity": 73, "duration": 54}, {"note": 81, "velocity": 103, "duration": 348}, {"note": 79, "velocity": 66, "duration": 269}, {"note": 77, "velocity": 58, "duration": 240}, {"note": 76, "velocity": 45, "duration": 240}, {"note": 79, "velocity": 59, "duration": 240}, {"note": 74, "velocity": 51, "duration": 251}, {"note": 76, "velocity": 56, "duration": 280}, {"note": 77, "velocity": 64, "duration": 480}, {"note": 76, "velocity": 46, "duration": 276}, {"note": 79, "velocity": 66, "duration": 486}, {"note": 76, "velocity": 53, "duration": 273}, {"note": 74, "velocity": 58, "duration": 1440}, {"note": 76, "velocity": 96, "duration": 240}, {"note": 74, "velocity": 86, "duration": 240}, {"note": 72, "velocity": 71, "duration": 36}, {"note": 79, "velocity": 90, "duration": 423}, {"note": 74, "velocity": 98, "duration": 240}, {"note": 72, "velocity": 64, "duration": 140}, {"note": 71, "velocity": 74, "duration": 262}, {"note": 79, "velocity": 79, "duration": 339}, {"note": 81, "velocity": 83, "duration": 240}, {"note": 83, "velocity": 83, "duration": 240}, {"note": 84, "velocity": 97, "duration": 480}, {"note": 83, "velocity": 91, "duration": 309}, {"note": 84, "velocity": 93, "duration": 249}, {"note": 83, "velocity": 89, "duration": 521}, {"note": 81, "velocity": 89, "duration": 488}, {"note": 79, "velocity": 87, "duration": 1200}, {"note": 81, "velocity": 91, "duration": 240}, {"note": 79, "velocity": 68, "duration": 240}, {"note": 77, "velocity": 66, "duration": 240}, {"note": 81, "velocity": 97, "duration": 720}, {"note": 79, "velocity": 99, "duration": 248}, {"note": 77, "velocity": 87, "duration": 240}, {"note": 76, "velocity": 90, "duration": 240}, {"note": 74, "velocity": 97, "duration": 253}, {"note": 74, "velocity": 97, "duration": 13}, {"note": 0, "velocity": 0, "duration": 227}, {"note": 76, "velocity": 105, "duration": 500}, {"note": 72, "velocity": 103, "duration": 2160}, {"note": 81, "velocity": 93, "duration": 240}, {"note": 83, "velocity": 72, "duration": 281}, {"note": 84, "velocity": 95, "duration": 479}, {"note": 84, "velocity": 97, "duration": 239}, {"note": 84, "velocity": 93, "duration": 243}, {"note": 83, "velocity": 84, "duration": 240}, {"note": 81, "velocity": 80, "duration": 239}, {"note": 81, "velocity": 87, "duration": 480}, {"note": 79, "velocity": 84, "duration": 719}, {"note": 79, "velocity": 68, "duration": 264}, {"note": 81, "velocity": 87, "duration": 491}, {"note": 72, "velocity": 74, "duration": 239}, {"note": 72, "velocity": 80, "duration": 239}, {"note": 72, "velocity": 69, "duration": 240}, {"note": 79, "velocity": 90, "duration": 246}, {"note": 76, "velocity": 91, "duration": 1439}, {"note": 76, "velocity": 101, "duration": 479}, {"note": 76, "velocity": 93, "duration": 239}, {"note": 76, "velocity": 93, "duration": 239}, {"note": 76, "velocity": 91, "duration": 240}, {"note": 74, "velocity": 87, "duration": 301}, {"note": 72, "velocity": 97, "duration": 480}, {"note": 76, "velocity": 93, "duration": 240}, {"note": 81, "velocity": 105, "duration": 480}, {"note": 83, "velocity": 101, "duration": 240}, {"note": 84, "velocity": 106, "duration": 720}, {"note": 81, "velocity": 109, "duration": 208}, {"note": 81, "velocity": 99, "duration": 14}, {"note": 83, "velocity": 103, "duration": 22}, {"note": 84, "velocity": 109, "duration": 716}, {"note": 84, "velocity": 108, "duration": 176}, {"note": 84, "velocity": 93, "duration": 154}, {"note": 86, "velocity": 100, "duration": 240}, {"note": 88, "velocity": 99, "duration": 239}, {"note": 88, "velocity": 98, "duration": 239}, {"note": 88, "velocity": 97, "duration": 239}, {"note": 88, "velocity": 100, "duration": 270}, {"note": 91, "velocity": 103, "duration": 64}, {"note": 88, "velocity": 109, "duration": 50}, {"note": 86, "velocity": 114, "duration": 708}, {"note": 79, "velocity": 97, "duration": 248}, {"note": 84, "velocity": 93, "duration": 240}, {"note": 86, "velocity": 100, "duration": 248}, {"note": 88, "velocity": 106, "duration": 719}, {"note": 88, "velocity": 106, "duration": 719}, {"note": 88, "velocity": 101, "duration": 239}, {"note": 88, "velocity": 97, "duration": 239}, {"note": 88, "velocity": 97, "duration": 239}, {"note": 88, "velocity": 97, "duration": 240}, {"note": 86, "velocity": 99, "duration": 240}, {"note": 84, "velocity": 98, "duration": 266}, {"note": 86, "velocity": 103, "duration": 720}, {"note": 84, "velocity": 103, "duration": 555}, {"note": 83, "velocity": 103, "duration": 720}, {"note": 81, "velocity": 94, "duration": 480}, {"note": 83, "velocity": 97, "duration": 243}, {"note": 84, "velocity": 111, "duration": 719}, {"note": 84, "velocity": 109, "duration": 719}, {"note": 84, "velocity": 101, "duration": 239}, {"note": 84, "velocity": 90, "duration": 239}, {"note": 84, "velocity": 97, "duration": 239}, {"note": 84, "velocity": 94, "duration": 261}, {"note": 83, "velocity": 90, "duration": 254}, {"note": 81, "velocity": 93, "duration": 239}, {"note": 81, "velocity": 94, "duration": 768}, {"note": 79, "velocity": 91, "duration": 480}, {"note": 83, "velocity": 94, "duration": 257}, {"note": 76, "velocity": 90, "duration": 719}, {"note": 76, "velocity": 106, "duration": 480}, {"note": 79, "velocity": 106, "duration": 240}, {"note": 81, "velocity": 109, "duration": 479}, {"note": 81, "velocity": 92, "duration": 239}, {"note": 81, "velocity": 95, "duration": 240}, {"note": 76, "velocity": 80, "duration": 240}, {"note": 81, "velocity": 97, "duration": 296}, {"note": 88, "velocity": 97, "duration": 480}, {"note": 89, "velocity": 97, "duration": 96}, {"note": 86, "velocity": 97, "duration": 671}, {"note": 79, "velocity": 92, "duration": 479}, {"note": 79, "velocity": 91, "duration": 239}, {"note": 79, "velocity": 93, "duration": 240}, {"note": 76, "velocity": 87, "duration": 356}, {"note": 79, "velocity": 95, "duration": 240}, {"note": 84, "velocity": 87, "duration": 719}, {"note": 84, "velocity": 105, "duration": 494}, {"note": 83, "velocity": 97, "duration": 240}, {"note": 81, "velocity": 93, "duration": 255}, {"note": 83, "velocity": 91, "duration": 262}, {"note": 84, "velocity": 97, "duration": 240}, {"note": 81, "velocity": 105, "duration": 719}, {"note": 81, "velocity": 108, "duration": 198}, {"note": 83, "velocity": 95, "duration": 256}, {"note": 84, "velocity": 106, "duration": 240}, {"note": 81, "velocity": 103, "duration": 480}, {"note": 84, "velocity": 91, "duration": 240}, {"note": 88, "velocity": 93, "duration": 239}, {"note": 88, "velocity": 103, "duration": 239}, {"note": 88, "velocity": 97, "duration": 239}, {"note": 88, "velocity": 99, "duration": 240}, {"note": 89, "velocity": 100, "duration": 240}, {"note": 88, "velocity": 106, "duration": 9}, {"note": 86, "velocity": 108, "duration": 720}, {"note": 79, "velocity": 97, "duration": 240}, {"note": 84, "velocity": 90, "duration": 240}, {"note": 86, "velocity": 97, "duration": 274}, {"note": 88, "velocity": 101, "duration": 719}, {"note": 88, "velocity": 106, "duration": 719}, {"note": 88, "velocity": 105, "duration": 239}, {"note": 88, "velocity": 97, "duration": 239}, {"note": 88, "velocity": 99, "duration": 239}, {"note": 88, "velocity": 99, "duration": 240}, {"note": 86, "velocity": 98, "duration": 240}, {"note": 84, "velocity": 93, "duration": 263}, {"note": 86, "velocity": 98, "duration": 271}, {"note": 84, "velocity": 108, "duration": 720}, {"note": 83, "velocity": 108, "duration": 720}, {"note": 81, "velocity": 97, "duration": 504}, {"note": 83, "velocity": 97, "duration": 308}, {"note": 84, "velocity": 109, "duration": 719}, {"note": 84, "velocity": 111, "duration": 719}, {"note": 84, "velocity": 111, "duration": 239}, {"note": 84, "velocity": 100, "duration": 239}, {"note": 84, "velocity": 99, "duration": 239}, {"note": 84, "velocity": 94, "duration": 260}, {"note": 83, "velocity": 93, "duration": 240}, {"note": 81, "velocity": 93, "duration": 239}, {"note": 81, "velocity": 97, "duration": 154}, {"note": 79, "velocity": 92, "duration": 480}, {"note": 83, "velocity": 97, "duration": 251}, {"note": 76, "velocity": 96, "duration": 23}, {"note": 76, "velocity": 94, "duration": 480}, {"note": 79, "velocity": 98, "duration": 240}, {"note": 81, "velocity": 98, "duration": 239}, {"note": 81, "velocity": 95, "duration": 239}, {"note": 81, "velocity": 97, "duration": 239}, {"note": 81, "velocity": 97, "duration": 240}, {"note": 83, "velocity": 90, "duration": 275}, {"note": 84, "velocity": 98, "duration": 240}, {"note": 83, "velocity": 108, "duration": 719}, {"note": 83, "velocity": 100, "duration": 494}, {"note": 81, "velocity": 99, "duration": 264}, {"note": 79, "velocity": 98, "duration": 480}, {"note": 76, "velocity": 86, "duration": 479}, {"note": 76, "velocity": 86, "duration": 240}, {"note": 86, "velocity": 91, "duration": 240}, {"note": 84, "velocity": 99, "duration": 719}, {"note": 84, "velocity": 108, "duration": 488}, {"note": 83, "velocity": 99, "duration": 258}, {"note": 81, "velocity": 99, "duration": 259}, {"note": 83, "velocity": 98, "duration": 259}, {"note": 84, "velocity": 106, "duration": 960}, {"note": 81, "velocity": 86, "duration": 480}, {"note": 84, "velocity": 97, "duration": 479}, {"note": 84, "velocity": 98, "duration": 513}, {"note": 86, "velocity": 100, "duration": 521}, {"note": 84, "velocity": 99, "duration": 1077}, {"note": 84, "velocity": 90, "duration": 157}, {"note": 0, "velocity": 0, "duration": 83}, {"note": 83, "velocity": 90, "duration": 288}, {"note": 81, "velocity": 86, "duration": 260}, {"note": 83, "velocity": 91, "duration": 267}, {"note": 84, "velocity": 98, "duration": 960}, {"note": 81, "velocity": 93, "duration": 494}, {"note": 84, "velocity": 98, "duration": 61}, {"note": 84, "velocity": 97, "duration": 23}, {"note": 0, "velocity": 0, "duration": 506}, {"note": 86, "velocity": 87, "duration": 764}, {"note": 84, "velocity": 90, "duration": 5464}]]