[[{"note": 73, "velocity": 95, "duration": 352}, {"note": 72, "velocity": 97, "duration": 500}, {"note": 70, "velocity": 68, "duration": 323}, {"note": 68, "velocity": 86, "duration": 271}, {"note": 70, "velocity": 68, "duration": 228}, {"note": 68, "velocity": 66, "duration": 200}, {"note": 65, "velocity": 81, "duration": 258}, {"note": 68, "velocity": 90, "duration": 748}, {"note": 73, "velocity": 101, "duration": 480}, {"note": 72, "velocity": 105, "duration": 480}, {"note": 70, "velocity": 94, "duration": 679}, {"note": 68, "velocity": 71, "duration": 100}, {"note": 70, "velocity": 72, "duration": 275}, {"note": 73, "velocity": 89, "duration": 240}, {"note": 75, "velocity": 97, "duration": 240}, {"note": 77, "velocity": 84, "duration": 98}, {"note": 77, "velocity": 103, "duration": 448}, {"note": 77, "velocity": 98, "duration": 505}, {"note": 75, "velocity": 103, "duration": 299}, {"note": 73, "velocity": 100, "duration": 265}, {"note": 75, "velocity": 97, "duration": 254}, {"note": 73, "velocity": 93, "duration": 240}, {"note": 70, "velocity": 87, "duration": 240}, {"note": 73, "velocity": 97, "duration": 719}, {"note": 73, "velocity": 103, "duration": 6}, {"note": 72, "velocity": 103, "duration": 499}, {"note": 70, "velocity": 97, "duration": 429}, {"note": 70, "velocity": 101, "duration": 240}, {"note": 68, "velocity": 95, "duration": 100}, {"note": 65, "velocity": 91, "duration": 245}, {"note": 68, "velocity": 100, "duration": 256}, {"note": 70, "velocity": 103, "duration": 2627}, {"note": 73, "velocity": 95, "duration": 345}, {"note": 72, "velocity": 97, "duration": 499}, {"note": 70, "velocity": 68, "duration": 315}, {"note": 68, "velocity": 86, "duration": 270}, {"note": 70, "velocity": 68, "duration": 218}, {"note": 68, "velocity": 66, "duration": 190}, {"note": 65, "velocity": 81, "duration": 258}, {"note": 68, "velocity": 90, "duration": 741}, {"note": 73, "velocity": 101, "duration": 480}, {"note": 72, "velocity": 105, "duration": 480}, {"note": 70, "velocity": 94, "duration": 694}, {"note": 68, "velocity": 71, "duration": 77}, {"note": 70, "velocity": 72, "duration": 275}, {"note": 73, "velocity": 89, "duration": 240}, {"note": 75, "velocity": 97, "duration": 240}, {"note": 77, "velocity": 84, "duration": 957}, {"note": 77, "velocity": 103, "duration": 479}, {"note": 77, "velocity": 98, "duration": 505}, {"note": 75, "velocity": 103, "duration": 300}, {"note": 73, "velocity": 100, "duration": 265}, {"note": 75, "velocity": 97, "duration": 254}, {"note": 73, "velocity": 93, "duration": 240}, {"note": 70, "velocity": 87, "duration": 240}, {"note": 73, "velocity": 97, "duration": 721}, {"note": 73, "velocity": 103, "duration": 12}, {"note": 72, "velocity": 103, "duration": 499}, {"note": 70, "velocity": 97, "duration": 436}, {"note": 70, "velocity": 101, "duration": 247}, {"note": 68, "velocity": 95, "duration": 102}, {"note": 65, "velocity": 91, "duration": 245}, {"note": 68, "velocity": 100, "duration": 256}, {"note": 70, "velocity": 103, "duration": 2622}, {"note": 73, "velocity": 98, "duration": 496}, {"note": 75, "velocity": 98, "duration": 507}, {"note": 77, "velocity": 100, "duration": 720}, {"note": 75, "velocity": 97, "duration": 268}, {"note": 77, "velocity": 91, "duration": 291}, {"note": 75, "velocity": 83, "duration": 344}, {"note": 77, "velocity": 93, "duration": 281}, {"note": 80, "velocity": 90, "duration": 480}, {"note": 75, "velocity": 76, "duration": 720}, {"note": 73, "velocity": 100, "duration": 480}, {"note": 75, "velocity": 97, "duration": 480}, {"note": 82, "velocity": 92, "duration": 720}, {"note": 80, "velocity": 101, "duration": 271}, {"note": 82, "velocity": 98, "duration": 279}, {"note": 80, "velocity": 83, "duration": 240}, {"note": 77, "velocity": 91, "duration": 243}, {"note": 80, "velocity": 99, "duration": 488}, {"note": 77, "velocity": 99, "duration": 720}, {"note": 80, "velocity": 103, "duration": 480}, {"note": 82, "velocity": 108, "duration": 240}, {"note": 85, "velocity": 114, "duration": 352}, {"note": 82, "velocity": 109, "duration": 7}, {"note": 80, "velocity": 98, "duration": 113}, {"note": 77, "velocity": 98, "duration": 240}, {"note": 80, "velocity": 100, "duration": 316}, {"note": 77, "velocity": 97, "duration": 343}, {"note": 77, "velocity": 109, "duration": 479}, {"note": 77, "velocity": 101, "duration": 393}, {"note": 75, "velocity": 111, "duration": 479}, {"note": 75, "velocity": 106, "duration": 498}, {"note": 73, "velocity": 101, "duration": 284}, {"note": 75, "velocity": 99, "duration": 77}, {"note": 77, "velocity": 105, "duration": 1180}, {"note": 73, "velocity": 106, "duration": 486}, {"note": 75, "velocity": 103, "duration": 480}, {"note": 77, "velocity": 105, "duration": 720}, {"note": 75, "velocity": 98, "duration": 246}, {"note": 77, "velocity": 100, "duration": 280}, {"note": 75, "velocity": 98, "duration": 244}, {"note": 77, "velocity": 97, "duration": 240}, {"note": 80, "velocity": 92, "duration": 483}, {"note": 75, "velocity": 106, "duration": 720}, {"note": 73, "velocity": 97, "duration": 497}, {"note": 75, "velocity": 103, "duration": 480}, {"note": 82, "velocity": 97, "duration": 720}, {"note": 80, "velocity": 106, "duration": 240}, {"note": 82, "velocity": 93, "duration": 243}, {"note": 80, "velocity": 92, "duration": 245}, {"note": 77, "velocity": 97, "duration": 270}, {"note": 80, "velocity": 108, "duration": 480}, {"note": 77, "velocity": 97, "duration": 720}, {"note": 80, "velocity": 101, "duration": 514}, {"note": 82, "velocity": 103, "duration": 240}, {"note": 85, "velocity": 109, "duration": 960}, {"note": 82, "velocity": 103, "duration": 490}, {"note": 80, "velocity": 99, "duration": 240}, {"note": 77, "velocity": 99, "duration": 246}, {"note": 80, "velocity": 106, "duration": 480}, {"note": 77, "velocity": 100, "duration": 719}, {"note": 77, "velocity": 101, "duration": 479}, {"note": 77, "velocity": 98, "duration": 520}, {"note": 75, "velocity": 98, "duration": 479}, {"note": 75, "velocity": 90, "duration": 186}, {"note": 73, "velocity": 90, "duration": 253}, {"note": 75, "velocity": 93, "duration": 32}, {"note": 77, "velocity": 101, "duration": 2263}, {"note": 73, "velocity": 95, "duration": 335}, {"note": 72, "velocity": 97, "duration": 499}, {"note": 70, "velocity": 68, "duration": 305}, {"note": 68, "velocity": 86, "duration": 270}, {"note": 70, "velocity": 68, "duration": 208}, {"note": 68, "velocity": 66, "duration": 180}, {"note": 65, "velocity": 81, "duration": 480}, {"note": 68, "velocity": 90, "duration": 713}, {"note": 73, "velocity": 101, "duration": 480}, {"note": 72, "velocity": 105, "duration": 480}, {"note": 70, "velocity": 94, "duration": 673}, {"note": 68, "velocity": 71, "duration": 94}, {"note": 70, "velocity": 72, "duration": 274}, {"note": 73, "velocity": 89, "duration": 240}, {"note": 75, "velocity": 97, "duration": 240}, {"note": 77, "velocity": 84, "duration": 92}, {"note": 77, "velocity": 103, "duration": 443}, {"note": 77, "velocity": 98, "duration": 480}, {"note": 75, "velocity": 103, "duration": 268}, {"note": 73, "velocity": 100, "duration": 244}, {"note": 75, "velocity": 97, "duration": 253}, {"note": 73, "velocity": 93, "duration": 240}, {"note": 70, "velocity": 87, "duration": 240}, {"note": 73, "velocity": 97, "duration": 714}, {"note": 73, "velocity": 103, "duration": 0}, {"note": 72, "velocity": 103, "duration": 499}, {"note": 70, "velocity": 97, "duration": 424}, {"note": 70, "velocity": 101, "duration": 240}, {"note": 68, "velocity": 95, "duration": 95}, {"note": 65, "velocity": 91, "duration": 244}, {"note": 68, "velocity": 100, "duration": 256}, {"note": 70, "velocity": 103, "duration": 1660}, {"note": 0, "velocity": 0, "duration": 35521}, {"note": 73, "velocity": 98, "duration": 495}, {"note": 75, "velocity": 98, "duration": 508}, {"note": 77, "velocity": 100, "duration": 720}, {"note": 75, "velocity": 97, "duration": 285}, {"note": 77, "velocity": 91, "duration": 291}, {"note": 75, "velocity": 83, "duration": 344}, {"note": 77, "velocity": 93, "duration": 280}, {"note": 80, "velocity": 90, "duration": 480}, {"note": 75, "velocity": 76, "duration": 720}, {"note": 73, "velocity": 100, "duration": 480}, {"note": 75, "velocity": 97, "duration": 480}, {"note": 82, "velocity": 92, "duration": 720}, {"note": 80, "velocity": 101, "duration": 271}, {"note": 82, "velocity": 98, "duration": 280}, {"note": 80, "velocity": 83, "duration": 240}, {"note": 77, "velocity": 91, "duration": 243}, {"note": 80, "velocity": 99, "duration": 489}, {"note": 77, "velocity": 99, "duration": 720}, {"note": 80, "velocity": 103, "duration": 480}, {"note": 82, "velocity": 108, "duration": 255}, {"note": 85, "velocity": 114, "duration": 376}, {"note": 82, "velocity": 109, "duration": 0}, {"note": 80, "velocity": 98, "duration": 122}, {"note": 77, "velocity": 98, "duration": 240}, {"note": 80, "velocity": 100, "duration": 326}, {"note": 77, "velocity": 97, "duration": 352}, {"note": 77, "velocity": 109, "duration": 479}, {"note": 77, "velocity": 101, "duration": 403}, {"note": 75, "velocity": 111, "duration": 479}, {"note": 75, "velocity": 106, "duration": 497}, {"note": 73, "velocity": 101, "duration": 283}, {"note": 75, "velocity": 99, "duration": 86}, {"note": 77, "velocity": 105, "duration": 1190}, {"note": 73, "velocity": 106, "duration": 497}, {"note": 75, "velocity": 103, "duration": 480}, {"note": 77, "velocity": 105, "duration": 720}, {"note": 75, "velocity": 98, "duration": 245}, {"note": 77, "velocity": 100, "duration": 281}, {"note": 75, "velocity": 98, "duration": 244}, {"note": 77, "velocity": 97, "duration": 240}, {"note": 80, "velocity": 92, "duration": 482}, {"note": 75, "velocity": 106, "duration": 720}, {"note": 73, "velocity": 97, "duration": 496}, {"note": 75, "velocity": 103, "duration": 480}, {"note": 82, "velocity": 97, "duration": 720}, {"note": 80, "velocity": 106, "duration": 240}, {"note": 82, "velocity": 93, "duration": 243}, {"note": 80, "velocity": 92, "duration": 244}, {"note": 77, "velocity": 97, "duration": 270}, {"note": 80, "velocity": 108, "duration": 480}, {"note": 77, "velocity": 97, "duration": 720}, {"note": 80, "velocity": 101, "duration": 513}, {"note": 82, "velocity": 103, "duration": 240}, {"note": 85, "velocity": 109, "duration": 960}, {"note": 82, "velocity": 103, "duration": 490}, {"note": 80, "velocity": 99, "duration": 240}, {"note": 77, "velocity": 99, "duration": 246}, {"note": 80, "velocity": 106, "duration": 480}, {"note": 77, "velocity": 100, "duration": 719}, {"note": 77, "velocity": 101, "duration": 479}, {"note": 77, "velocity": 98, "duration": 520}, {"note": 75, "velocity": 98, "duration": 479}, {"note": 75, "velocity": 90, "duration": 195}, {"note": 73, "velocity": 90, "duration": 253}, {"note": 75, "velocity": 93, "duration": 43}, {"note": 77, "velocity": 101, "duration": 2274}, {"note": 73, "velocity": 95, "duration": 344}, {"note": 72, "velocity": 97, "duration": 500}, {"note": 70, "velocity": 68, "duration": 315}, {"note": 68, "velocity": 86, "duration": 271}, {"note": 70, "velocity": 68, "duration": 220}, {"note": 68, "velocity": 66, "duration": 192}, {"note": 65, "velocity": 81, "duration": 240}, {"note": 68, "velocity": 90, "duration": 722}, {"note": 73, "velocity": 101, "duration": 480}, {"note": 72, "velocity": 105, "duration": 480}, {"note": 70, "velocity": 94, "duration": 683}, {"note": 68, "velocity": 71, "duration": 102}, {"note": 70, "velocity": 72, "duration": 275}, {"note": 73, "velocity": 89, "duration": 240}, {"note": 75, "velocity": 97, "duration": 240}, {"note": 77, "velocity": 84, "duration": 102}, {"note": 77, "velocity": 103, "duration": 452}, {"note": 77, "velocity": 98, "duration": 480}, {"note": 75, "velocity": 103, "duration": 277}, {"note": 73, "velocity": 100, "duration": 244}, {"note": 75, "velocity": 97, "duration": 254}, {"note": 73, "velocity": 93, "duration": 240}, {"note": 70, "velocity": 87, "duration": 240}, {"note": 73, "velocity": 97, "duration": 723}, {"note": 73, "velocity": 103, "duration": 10}, {"note": 72, "velocity": 103, "duration": 498}, {"note": 70, "velocity": 97, "duration": 432}, {"note": 70, "velocity": 101, "duration": 240}, {"note": 68, "velocity": 95, "duration": 104}, {"note": 65, "velocity": 91, "duration": 245}, {"note": 68, "velocity": 100, "duration": 256}, {"note": 70, "velocity": 103, "duration": 1670}]]