[[{"note": 61, "velocity": 90, "duration": 486}, {"note": 70, "velocity": 93, "duration": 567}, {"note": 0, "velocity": 0, "duration": 153}, {"note": 70, "velocity": 97, "duration": 149}, {"note": 0, "velocity": 0, "duration": 91}, {"note": 70, "velocity": 92, "duration": 347}, {"note": 68, "velocity": 95, "duration": 377}, {"note": 66, "velocity": 84, "duration": 195}, {"note": 66, "velocity": 85, "duration": 1126}, {"note": 0, "velocity": 0, "duration": 314}, {"note": 68, "velocity": 84, "duration": 262}, {"note": 70, "velocity": 73, "duration": 224}, {"note": 73, "velocity": 101, "duration": 176}, {"note": 73, "velocity": 101, "duration": 372}, {"note": 0, "velocity": 0, "duration": 108}, {"note": 73, "velocity": 106, "duration": 138}, {"note": 0, "velocity": 0, "duration": 102}, {"note": 73, "velocity": 99, "duration": 448}, {"note": 75, "velocity": 89, "duration": 206}, {"note": 73, "velocity": 89, "duration": 240}, {"note": 70, "velocity": 100, "duration": 952}, {"note": 0, "velocity": 0, "duration": 728}, {"note": 66, "velocity": 66, "duration": 258}, {"note": 75, "velocity": 92, "duration": 81}, {"note": 0, "velocity": 0, "duration": 124}, {"note": 75, "velocity": 96, "duration": 266}, {"note": 0, "velocity": 0, "duration": 94}, {"note": 75, "velocity": 94, "duration": 188}, {"note": 75, "velocity": 95, "duration": 533}, {"note": 73, "velocity": 89, "duration": 198}, {"note": 75, "velocity": 86, "duration": 214}, {"note": 73, "velocity": 95, "duration": 474}, {"note": 70, "velocity": 91, "duration": 788}, {"note": 0, "velocity": 0, "duration": 172}, {"note": 68, "velocity": 89, "duration": 211}, {"note": 70, "velocity": 77, "duration": 239}, {"note": 71, "velocity": 78, "duration": 169}, {"note": 0, "velocity": 0, "duration": 71}, {"note": 71, "velocity": 76, "duration": 148}, {"note": 71, "velocity": 74, "duration": 80}, {"note": 70, "velocity": 66, "duration": 111}, {"note": 66, "velocity": 61, "duration": 361}, {"note": 63, "velocity": 54, "duration": 606}, {"note": 66, "velocity": 64, "duration": 568}, {"note": 68, "velocity": 64, "duration": 733}, {"note": 0, "velocity": 0, "duration": 947}, {"note": 61, "velocity": 65, "duration": 228}, {"note": 70, "velocity": 94, "duration": 540}, {"note": 0, "velocity": 0, "duration": 180}, {"note": 70, "velocity": 105, "duration": 163}, {"note": 0, "velocity": 0, "duration": 77}, {"note": 70, "velocity": 97, "duration": 366}, {"note": 68, "velocity": 97, "duration": 71}, {"note": 66, "velocity": 87, "duration": 188}, {"note": 66, "velocity": 87, "duration": 876}, {"note": 0, "velocity": 0, "duration": 141}, {"note": 68, "velocity": 90, "duration": 287}, {"note": 70, "velocity": 90, "duration": 226}, {"note": 73, "velocity": 103, "duration": 274}, {"note": 0, "velocity": 0, "duration": 86}, {"note": 73, "velocity": 99, "duration": 221}, {"note": 0, "velocity": 0, "duration": 139}, {"note": 73, "velocity": 99, "duration": 167}, {"note": 0, "velocity": 0, "duration": 193}, {"note": 73, "velocity": 105, "duration": 441}, {"note": 75, "velocity": 97, "duration": 286}, {"note": 73, "velocity": 98, "duration": 248}, {"note": 70, "velocity": 98, "duration": 254}, {"note": 0, "velocity": 0, "duration": 1015}, {"note": 66, "velocity": 76, "duration": 227}, {"note": 75, "velocity": 95, "duration": 272}, {"note": 0, "velocity": 0, "duration": 88}, {"note": 75, "velocity": 98, "duration": 234}, {"note": 0, "velocity": 0, "duration": 126}, {"note": 75, "velocity": 100, "duration": 119}, {"note": 0, "velocity": 0, "duration": 118}, {"note": 75, "velocity": 96, "duration": 336}, {"note": 0, "velocity": 0, "duration": 144}, {"note": 73, "velocity": 103, "duration": 248}, {"note": 75, "velocity": 93, "duration": 120}, {"note": 73, "velocity": 97, "duration": 351}, {"note": 70, "velocity": 87, "duration": 389}, {"note": 0, "velocity": 0, "duration": 186}, {"note": 68, "velocity": 90, "duration": 283}, {"note": 70, "velocity": 90, "duration": 290}, {"note": 71, "velocity": 93, "duration": 332}, {"note": 71, "velocity": 89, "duration": 98}, {"note": 71, "velocity": 68, "duration": 218}, {"note": 70, "velocity": 87, "duration": 231}, {"note": 66, "velocity": 84, "duration": 339}, {"note": 63, "velocity": 64, "duration": 489}, {"note": 65, "velocity": 81, "duration": 76}, {"note": 66, "velocity": 86, "duration": 651}, {"note": 0, "velocity": 0, "duration": 669}, {"note": 61, "velocity": 90, "duration": 147}, {"note": 0, "velocity": 0, "duration": 93}, {"note": 61, "velocity": 89, "duration": 185}, {"note": 70, "velocity": 97, "duration": 261}, {"note": 0, "velocity": 0, "duration": 99}, {"note": 70, "velocity": 97, "duration": 215}, {"note": 0, "velocity": 0, "duration": 145}, {"note": 70, "velocity": 96, "duration": 136}, {"note": 0, "velocity": 0, "duration": 104}, {"note": 70, "velocity": 99, "duration": 292}, {"note": 0, "velocity": 0, "duration": 68}, {"note": 68, "velocity": 97, "duration": 326}, {"note": 66, "velocity": 83, "duration": 244}, {"note": 73, "velocity": 100, "duration": 950}, {"note": 0, "velocity": 0, "duration": 492}, {"note": 70, "velocity": 90, "duration": 253}, {"note": 73, "velocity": 97, "duration": 279}, {"note": 75, "velocity": 99, "duration": 573}, {"note": 0, "velocity": 0, "duration": 147}, {"note": 75, "velocity": 96, "duration": 129}, {"note": 0, "velocity": 0, "duration": 111}, {"note": 75, "velocity": 95, "duration": 298}, {"note": 0, "velocity": 0, "duration": 62}, {"note": 78, "velocity": 97, "duration": 343}, {"note": 75, "velocity": 103, "duration": 288}, {"note": 73, "velocity": 105, "duration": 945}, {"note": 0, "velocity": 0, "duration": 495}, {"note": 70, "velocity": 94, "duration": 242}, {"note": 73, "velocity": 97, "duration": 260}, {"note": 75, "velocity": 93, "duration": 263}, {"note": 0, "velocity": 0, "duration": 97}, {"note": 75, "velocity": 97, "duration": 236}, {"note": 0, "velocity": 0, "duration": 124}, {"note": 75, "velocity": 105, "duration": 146}, {"note": 0, "velocity": 0, "duration": 94}, {"note": 75, "velocity": 97, "duration": 286}, {"note": 0, "velocity": 0, "duration": 194}, {"note": 73, "velocity": 103, "duration": 266}, {"note": 75, "velocity": 99, "duration": 252}, {"note": 73, "velocity": 98, "duration": 397}, {"note": 70, "velocity": 95, "duration": 684}, {"note": 0, "velocity": 0, "duration": 396}, {"note": 68, "velocity": 91, "duration": 170}, {"note": 0, "velocity": 0, "duration": 70}, {"note": 70, "velocity": 77, "duration": 288}, {"note": 71, "velocity": 89, "duration": 125}, {"note": 0, "velocity": 0, "duration": 115}, {"note": 71, "velocity": 87, "duration": 110}, {"note": 0, "velocity": 0, "duration": 130}, {"note": 71, "velocity": 84, "duration": 112}, {"note": 0, "velocity": 0, "duration": 128}, {"note": 71, "velocity": 89, "duration": 91}, {"note": 0, "velocity": 0, "duration": 149}, {"note": 70, "velocity": 92, "duration": 193}, {"note": 0, "velocity": 0, "duration": 167}, {"note": 66, "velocity": 68, "duration": 296}, {"note": 0, "velocity": 0, "duration": 64}, {"note": 63, "velocity": 64, "duration": 235}, {"note": 66, "velocity": 76, "duration": 2535}, {"note": 0, "velocity": 0, "duration": 2745}, {"note": 61, "velocity": 90, "duration": 486}, {"note": 70, "velocity": 93, "duration": 567}, {"note": 0, "velocity": 0, "duration": 153}, {"note": 70, "velocity": 97, "duration": 149}, {"note": 0, "velocity": 0, "duration": 91}, {"note": 70, "velocity": 92, "duration": 347}, {"note": 68, "velocity": 95, "duration": 378}, {"note": 66, "velocity": 84, "duration": 194}, {"note": 0, "velocity": 0, "duration": 166}, {"note": 66, "velocity": 85, "duration": 1127}, {"note": 0, "velocity": 0, "duration": 313}, {"note": 68, "velocity": 84, "duration": 262}, {"note": 70, "velocity": 73, "duration": 224}, {"note": 73, "velocity": 101, "duration": 181}, {"note": 73, "velocity": 101, "duration": 372}, {"note": 0, "velocity": 0, "duration": 108}, {"note": 73, "velocity": 106, "duration": 138}, {"note": 0, "velocity": 0, "duration": 102}, {"note": 73, "velocity": 99, "duration": 448}, {"note": 75, "velocity": 89, "duration": 205}, {"note": 73, "velocity": 89, "duration": 240}, {"note": 70, "velocity": 100, "duration": 951}, {"note": 0, "velocity": 0, "duration": 729}, {"note": 66, "velocity": 66, "duration": 263}, {"note": 75, "velocity": 92, "duration": 91}, {"note": 0, "velocity": 0, "duration": 124}, {"note": 75, "velocity": 96, "duration": 266}, {"note": 0, "velocity": 0, "duration": 94}, {"note": 75, "velocity": 94, "duration": 189}, {"note": 75, "velocity": 95, "duration": 534}, {"note": 73, "velocity": 89, "duration": 205}, {"note": 75, "velocity": 86, "duration": 220}, {"note": 73, "velocity": 95, "duration": 474}, {"note": 70, "velocity": 91, "duration": 789}, {"note": 0, "velocity": 0, "duration": 171}, {"note": 68, "velocity": 89, "duration": 179}, {"note": 70, "velocity": 77, "duration": 240}, {"note": 71, "velocity": 78, "duration": 169}, {"note": 0, "velocity": 0, "duration": 71}, {"note": 71, "velocity": 76, "duration": 149}, {"note": 71, "velocity": 74, "duration": 49}, {"note": 70, "velocity": 66, "duration": 81}, {"note": 66, "velocity": 61, "duration": 360}, {"note": 63, "velocity": 54, "duration": 428}, {"note": 66, "velocity": 64, "duration": 243}, {"note": 68, "velocity": 64, "duration": 732}, {"note": 0, "velocity": 0, "duration": 948}, {"note": 61, "velocity": 65, "duration": 228}, {"note": 70, "velocity": 94, "duration": 539}, {"note": 0, "velocity": 0, "duration": 181}, {"note": 70, "velocity": 105, "duration": 162}, {"note": 0, "velocity": 0, "duration": 78}, {"note": 70, "velocity": 97, "duration": 365}, {"note": 68, "velocity": 97, "duration": 61}, {"note": 66, "velocity": 87, "duration": 182}, {"note": 66, "velocity": 87, "duration": 863}, {"note": 0, "velocity": 0, "duration": 261}, {"note": 68, "velocity": 90, "duration": 287}, {"note": 70, "velocity": 90, "duration": 226}, {"note": 73, "velocity": 103, "duration": 275}, {"note": 0, "velocity": 0, "duration": 85}, {"note": 73, "velocity": 99, "duration": 220}, {"note": 0, "velocity": 0, "duration": 140}, {"note": 73, "velocity": 99, "duration": 168}, {"note": 0, "velocity": 0, "duration": 72}, {"note": 73, "velocity": 105, "duration": 441}, {"note": 75, "velocity": 97, "duration": 286}, {"note": 73, "velocity": 98, "duration": 251}, {"note": 70, "velocity": 98, "duration": 244}, {"note": 0, "velocity": 0, "duration": 1015}, {"note": 66, "velocity": 76, "duration": 227}, {"note": 75, "velocity": 95, "duration": 272}, {"note": 0, "velocity": 0, "duration": 88}, {"note": 75, "velocity": 98, "duration": 234}, {"note": 0, "velocity": 0, "duration": 126}, {"note": 75, "velocity": 100, "duration": 106}, {"note": 0, "velocity": 0, "duration": 119}, {"note": 75, "velocity": 96, "duration": 336}, {"note": 0, "velocity": 0, "duration": 144}, {"note": 73, "velocity": 103, "duration": 249}, {"note": 75, "velocity": 93, "duration": 108}, {"note": 73, "velocity": 97, "duration": 351}, {"note": 70, "velocity": 87, "duration": 377}, {"note": 0, "velocity": 0, "duration": 186}, {"note": 68, "velocity": 90, "duration": 282}, {"note": 70, "velocity": 90, "duration": 190}, {"note": 71, "velocity": 93, "duration": 342}, {"note": 71, "velocity": 89, "duration": 103}, {"note": 71, "velocity": 68, "duration": 296}, {"note": 70, "velocity": 87, "duration": 339}, {"note": 66, "velocity": 84, "duration": 447}, {"note": 63, "velocity": 64, "duration": 362}, {"note": 65, "velocity": 81, "duration": 98}, {"note": 66, "velocity": 86, "duration": 686}, {"note": 0, "velocity": 0, "duration": 648}, {"note": 61, "velocity": 90, "duration": 147}, {"note": 0, "velocity": 0, "duration": 93}, {"note": 61, "velocity": 89, "duration": 186}, {"note": 70, "velocity": 97, "duration": 261}, {"note": 0, "velocity": 0, "duration": 99}, {"note": 70, "velocity": 97, "duration": 214}, {"note": 0, "velocity": 0, "duration": 146}, {"note": 70, "velocity": 96, "duration": 136}, {"note": 0, "velocity": 0, "duration": 104}, {"note": 70, "velocity": 99, "duration": 292}, {"note": 0, "velocity": 0, "duration": 68}, {"note": 68, "velocity": 97, "duration": 326}, {"note": 66, "velocity": 83, "duration": 243}, {"note": 73, "velocity": 100, "duration": 950}, {"note": 0, "velocity": 0, "duration": 490}, {"note": 70, "velocity": 90, "duration": 253}, {"note": 73, "velocity": 97, "duration": 278}, {"note": 75, "velocity": 99, "duration": 572}, {"note": 0, "velocity": 0, "duration": 148}, {"note": 75, "velocity": 96, "duration": 130}, {"note": 0, "velocity": 0, "duration": 110}, {"note": 75, "velocity": 95, "duration": 298}, {"note": 0, "velocity": 0, "duration": 62}, {"note": 78, "velocity": 97, "duration": 343}, {"note": 75, "velocity": 103, "duration": 287}, {"note": 73, "velocity": 105, "duration": 945}, {"note": 0, "velocity": 0, "duration": 495}, {"note": 70, "velocity": 94, "duration": 242}, {"note": 73, "velocity": 97, "duration": 260}, {"note": 75, "velocity": 93, "duration": 263}, {"note": 0, "velocity": 0, "duration": 97}, {"note": 75, "velocity": 97, "duration": 237}, {"note": 0, "velocity": 0, "duration": 123}, {"note": 75, "velocity": 105, "duration": 146}, {"note": 0, "velocity": 0, "duration": 94}, {"note": 75, "velocity": 97, "duration": 287}, {"note": 0, "velocity": 0, "duration": 193}, {"note": 73, "velocity": 103, "duration": 267}, {"note": 75, "velocity": 99, "duration": 252}, {"note": 73, "velocity": 98, "duration": 397}, {"note": 70, "velocity": 95, "duration": 684}, {"note": 0, "velocity": 0, "duration": 396}, {"note": 68, "velocity": 91, "duration": 170}, {"note": 0, "velocity": 0, "duration": 70}, {"note": 70, "velocity": 77, "duration": 289}, {"note": 71, "velocity": 89, "duration": 125}, {"note": 0, "velocity": 0, "duration": 115}, {"note": 71, "velocity": 87, "duration": 110}, {"note": 0, "velocity": 0, "duration": 130}, {"note": 71, "velocity": 84, "duration": 112}, {"note": 0, "velocity": 0, "duration": 128}, {"note": 71, "velocity": 89, "duration": 91}, {"note": 0, "velocity": 0, "duration": 149}, {"note": 70, "velocity": 92, "duration": 193}, {"note": 0, "velocity": 0, "duration": 167}, {"note": 66, "velocity": 68, "duration": 295}, {"note": 0, "velocity": 0, "duration": 65}, {"note": 63, "velocity": 64, "duration": 235}, {"note": 66, "velocity": 76, "duration": 2535}, {"note": 0, "velocity": 0, "duration": 2745}, {"note": 61, "velocity": 90, "duration": 486}, {"note": 70, "velocity": 93, "duration": 567}, {"note": 0, "velocity": 0, "duration": 153}, {"note": 70, "velocity": 97, "duration": 149}, {"note": 0, "velocity": 0, "duration": 91}, {"note": 70, "velocity": 92, "duration": 347}, {"note": 68, "velocity": 95, "duration": 377}, {"note": 66, "velocity": 84, "duration": 194}, {"note": 66, "velocity": 85, "duration": 1126}, {"note": 0, "velocity": 0, "duration": 314}, {"note": 68, "velocity": 84, "duration": 262}, {"note": 70, "velocity": 73, "duration": 224}, {"note": 73, "velocity": 101, "duration": 172}, {"note": 73, "velocity": 101, "duration": 372}, {"note": 0, "velocity": 0, "duration": 108}, {"note": 73, "velocity": 106, "duration": 170}, {"note": 0, "velocity": 0, "duration": 70}, {"note": 73, "velocity": 99, "duration": 473}, {"note": 75, "velocity": 89, "duration": 244}, {"note": 73, "velocity": 89, "duration": 240}, {"note": 70, "velocity": 100, "duration": 952}, {"note": 0, "velocity": 0, "duration": 728}, {"note": 66, "velocity": 66, "duration": 254}, {"note": 75, "velocity": 92, "duration": 72}, {"note": 0, "velocity": 0, "duration": 125}, {"note": 75, "velocity": 96, "duration": 266}, {"note": 0, "velocity": 0, "duration": 94}, {"note": 75, "velocity": 94, "duration": 188}, {"note": 75, "velocity": 95, "duration": 533}, {"note": 73, "velocity": 89, "duration": 195}, {"note": 75, "velocity": 86, "duration": 374}, {"note": 73, "velocity": 95, "duration": 469}, {"note": 70, "velocity": 91, "duration": 788}, {"note": 0, "velocity": 0, "duration": 172}, {"note": 68, "velocity": 89, "duration": 279}, {"note": 70, "velocity": 77, "duration": 273}, {"note": 71, "velocity": 78, "duration": 169}, {"note": 0, "velocity": 0, "duration": 71}, {"note": 71, "velocity": 76, "duration": 148}, {"note": 71, "velocity": 74, "duration": 41}, {"note": 70, "velocity": 66, "duration": 72}, {"note": 66, "velocity": 61, "duration": 361}, {"note": 63, "velocity": 54, "duration": 469}, {"note": 65, "velocity": 64, "duration": 574}, {"note": 66, "velocity": 64, "duration": 533}, {"note": 0, "velocity": 0, "duration": 31267}, {"note": 73, "velocity": 82, "duration": 122}, {"note": 0, "velocity": 0, "duration": 118}, {"note": 73, "velocity": 87, "duration": 12}, {"note": 82, "velocity": 95, "duration": 13}, {"note": 0, "velocity": 0, "duration": 136}, {"note": 82, "velocity": 93, "duration": 272}, {"note": 0, "velocity": 0, "duration": 88}, {"note": 82, "velocity": 93, "duration": 169}, {"note": 0, "velocity": 0, "duration": 71}, {"note": 82, "velocity": 90, "duration": 351}, {"note": 80, "velocity": 84, "duration": 357}, {"note": 78, "velocity": 71, "duration": 283}, {"note": 85, "velocity": 76, "duration": 888}, {"note": 0, "velocity": 0, "duration": 552}, {"note": 82, "velocity": 91, "duration": 263}, {"note": 85, "velocity": 91, "duration": 285}, {"note": 87, "velocity": 94, "duration": 579}, {"note": 0, "velocity": 0, "duration": 141}, {"note": 87, "velocity": 91, "duration": 147}, {"note": 0, "velocity": 0, "duration": 93}, {"note": 87, "velocity": 92, "duration": 348}, {"note": 90, "velocity": 90, "duration": 297}, {"note": 0, "velocity": 0, "duration": 61}, {"note": 87, "velocity": 100, "duration": 290}, {"note": 85, "velocity": 98, "duration": 371}, {"note": 0, "velocity": 0, "duration": 134}, {"note": 82, "velocity": 93, "duration": 267}, {"note": 85, "velocity": 89, "duration": 259}, {"note": 87, "velocity": 95, "duration": 227}, {"note": 0, "velocity": 0, "duration": 103}, {"note": 87, "velocity": 93, "duration": 227}, {"note": 0, "velocity": 0, "duration": 133}, {"note": 87, "velocity": 94, "duration": 156}, {"note": 0, "velocity": 0, "duration": 84}, {"note": 87, "velocity": 95, "duration": 423}, {"note": 85, "velocity": 96, "duration": 255}, {"note": 87, "velocity": 90, "duration": 271}, {"note": 85, "velocity": 85, "duration": 351}, {"note": 82, "velocity": 87, "duration": 760}, {"note": 0, "velocity": 0, "duration": 322}, {"note": 80, "velocity": 93, "duration": 255}, {"note": 82, "velocity": 80, "duration": 220}, {"note": 83, "velocity": 93, "duration": 141}, {"note": 0, "velocity": 0, "duration": 99}, {"note": 83, "velocity": 86, "duration": 112}, {"note": 0, "velocity": 0, "duration": 128}, {"note": 83, "velocity": 89, "duration": 100}, {"note": 0, "velocity": 0, "duration": 140}, {"note": 83, "velocity": 89, "duration": 167}, {"note": 0, "velocity": 0, "duration": 73}, {"note": 82, "velocity": 94, "duration": 306}, {"note": 78, "velocity": 87, "duration": 323}, {"note": 75, "velocity": 57, "duration": 238}, {"note": 78, "velocity": 91, "duration": 582}, {"note": 0, "velocity": 0, "duration": 4698}, {"note": 61, "velocity": 90, "duration": 486}, {"note": 70, "velocity": 93, "duration": 567}, {"note": 0, "velocity": 0, "duration": 153}, {"note": 70, "velocity": 97, "duration": 149}, {"note": 0, "velocity": 0, "duration": 91}, {"note": 70, "velocity": 92, "duration": 347}, {"note": 68, "velocity": 95, "duration": 378}, {"note": 66, "velocity": 84, "duration": 194}, {"note": 66, "velocity": 85, "duration": 1127}, {"note": 0, "velocity": 0, "duration": 313}, {"note": 68, "velocity": 84, "duration": 262}, {"note": 70, "velocity": 73, "duration": 224}, {"note": 73, "velocity": 101, "duration": 160}, {"note": 73, "velocity": 101, "duration": 372}, {"note": 0, "velocity": 0, "duration": 108}, {"note": 73, "velocity": 106, "duration": 170}, {"note": 0, "velocity": 0, "duration": 70}, {"note": 73, "velocity": 99, "duration": 472}, {"note": 75, "velocity": 89, "duration": 245}, {"note": 73, "velocity": 89, "duration": 240}, {"note": 70, "velocity": 100, "duration": 951}, {"note": 0, "velocity": 0, "duration": 729}, {"note": 66, "velocity": 66, "duration": 242}, {"note": 75, "velocity": 92, "duration": 49}, {"note": 0, "velocity": 0, "duration": 124}, {"note": 75, "velocity": 96, "duration": 266}, {"note": 0, "velocity": 0, "duration": 94}, {"note": 75, "velocity": 94, "duration": 189}, {"note": 75, "velocity": 95, "duration": 534}, {"note": 73, "velocity": 89, "duration": 184}, {"note": 75, "velocity": 86, "duration": 362}, {"note": 73, "velocity": 95, "duration": 469}, {"note": 70, "velocity": 91, "duration": 789}, {"note": 0, "velocity": 0, "duration": 171}, {"note": 68, "velocity": 92, "duration": 257}, {"note": 70, "velocity": 90, "duration": 276}, {"note": 71, "velocity": 93, "duration": 154}, {"note": 0, "velocity": 0, "duration": 86}, {"note": 71, "velocity": 93, "duration": 182}, {"note": 71, "velocity": 91, "duration": 367}, {"note": 70, "velocity": 95, "duration": 484}, {"note": 66, "velocity": 82, "duration": 470}, {"note": 63, "velocity": 74, "duration": 601}, {"note": 65, "velocity": 90, "duration": 656}, {"note": 66, "velocity": 96, "duration": 3051}]]