[[{"note": 73, "velocity": 82, "duration": 247}, {"note": 75, "velocity": 84, "duration": 229}, {"note": 71, "velocity": 75, "duration": 450}, {"note": 68, "velocity": 64, "duration": 522}, {"note": 75, "velocity": 66, "duration": 259}, {"note": 73, "velocity": 100, "duration": 118}, {"note": 73, "velocity": 100, "duration": 202}, {"note": 75, "velocity": 77, "duration": 238}, {"note": 68, "velocity": 72, "duration": 199}, {"note": 68, "velocity": 64, "duration": 215}, {"note": 71, "velocity": 66, "duration": 237}, {"note": 73, "velocity": 62, "duration": 128}, {"note": 75, "velocity": 77, "duration": 323}, {"note": 0, "velocity": 0, "duration": 277}, {"note": 73, "velocity": 98, "duration": 240}, {"note": 75, "velocity": 80, "duration": 239}, {"note": 70, "velocity": 93, "duration": 428}, {"note": 66, "velocity": 82, "duration": 357}, {"note": 73, "velocity": 95, "duration": 424}, {"note": 0, "velocity": 0, "duration": 176}, {"note": 71, "velocity": 91, "duration": 205}, {"note": 73, "velocity": 76, "duration": 200}, {"note": 75, "velocity": 92, "duration": 142}, {"note": 0, "velocity": 0, "duration": 98}, {"note": 75, "velocity": 96, "duration": 110}, {"note": 0, "velocity": 0, "duration": 130}, {"note": 73, "velocity": 86, "duration": 135}, {"note": 0, "velocity": 0, "duration": 105}, {"note": 71, "velocity": 72, "duration": 90}, {"note": 73, "velocity": 87, "duration": 186}, {"note": 0, "velocity": 0, "duration": 294}, {"note": 68, "velocity": 60, "duration": 113}, {"note": 73, "velocity": 57, "duration": 189}, {"note": 75, "velocity": 84, "duration": 229}, {"note": 71, "velocity": 75, "duration": 450}, {"note": 68, "velocity": 64, "duration": 410}, {"note": 75, "velocity": 66, "duration": 407}, {"note": 80, "velocity": 97, "duration": 280}, {"note": 78, "velocity": 90, "duration": 198}, {"note": 73, "velocity": 75, "duration": 152}, {"note": 0, "velocity": 0, "duration": 88}, {"note": 73, "velocity": 91, "duration": 113}, {"note": 0, "velocity": 0, "duration": 127}, {"note": 73, "velocity": 90, "duration": 215}, {"note": 71, "velocity": 82, "duration": 138}, {"note": 73, "velocity": 87, "duration": 385}, {"note": 0, "velocity": 0, "duration": 215}, {"note": 73, "velocity": 92, "duration": 231}, {"note": 83, "velocity": 90, "duration": 199}, {"note": 82, "velocity": 96, "duration": 472}, {"note": 85, "velocity": 91, "duration": 282}, {"note": 0, "velocity": 0, "duration": 198}, {"note": 78, "velocity": 97, "duration": 212}, {"note": 76, "velocity": 79, "duration": 207}, {"note": 76, "velocity": 72, "duration": 452}, {"note": 75, "velocity": 62, "duration": 875}, {"note": 0, "velocity": 0, "duration": 85}, {"note": 81, "velocity": 104, "duration": 458}, {"note": 80, "velocity": 106, "duration": 313}, {"note": 0, "velocity": 0, "duration": 167}, {"note": 76, "velocity": 100, "duration": 239}, {"note": 75, "velocity": 83, "duration": 119}, {"note": 0, "velocity": 0, "duration": 121}, {"note": 76, "velocity": 93, "duration": 177}, {"note": 0, "velocity": 0, "duration": 63}, {"note": 75, "velocity": 85, "duration": 119}, {"note": 0, "velocity": 0, "duration": 121}, {"note": 76, "velocity": 93, "duration": 172}, {"note": 0, "velocity": 0, "duration": 68}, {"note": 75, "velocity": 85, "duration": 121}, {"note": 76, "velocity": 94, "duration": 273}, {"note": 0, "velocity": 0, "duration": 207}, {"note": 66, "velocity": 67, "duration": 121}, {"note": 76, "velocity": 67, "duration": 225}, {"note": 75, "velocity": 76, "duration": 237}, {"note": 76, "velocity": 64, "duration": 240}, {"note": 75, "velocity": 80, "duration": 257}, {"note": 76, "velocity": 62, "duration": 250}, {"note": 75, "velocity": 76, "duration": 117}, {"note": 73, "velocity": 66, "duration": 289}, {"note": 0, "velocity": 0, "duration": 71}, {"note": 73, "velocity": 69, "duration": 207}, {"note": 75, "velocity": 90, "duration": 620}, {"note": 0, "velocity": 0, "duration": 340}, {"note": 73, "velocity": 93, "duration": 429}, {"note": 70, "velocity": 97, "duration": 469}, {"note": 75, "velocity": 109, "duration": 1029}, {"note": 76, "velocity": 105, "duration": 478}, {"note": 75, "velocity": 99, "duration": 211}, {"note": 0, "velocity": 0, "duration": 269}, {"note": 76, "velocity": 101, "duration": 186}, {"note": 75, "velocity": 98, "duration": 118}, {"note": 0, "velocity": 0, "duration": 122}, {"note": 76, "velocity": 99, "duration": 174}, {"note": 0, "velocity": 0, "duration": 66}, {"note": 75, "velocity": 99, "duration": 117}, {"note": 0, "velocity": 0, "duration": 123}, {"note": 76, "velocity": 105, "duration": 171}, {"note": 0, "velocity": 0, "duration": 69}, {"note": 75, "velocity": 97, "duration": 112}, {"note": 76, "velocity": 100, "duration": 307}, {"note": 0, "velocity": 0, "duration": 173}, {"note": 66, "velocity": 62, "duration": 129}, {"note": 76, "velocity": 84, "duration": 189}, {"note": 75, "velocity": 91, "duration": 248}, {"note": 76, "velocity": 72, "duration": 256}, {"note": 75, "velocity": 89, "duration": 248}, {"note": 76, "velocity": 66, "duration": 236}, {"note": 75, "velocity": 83, "duration": 133}, {"note": 76, "velocity": 79, "duration": 353}, {"note": 73, "velocity": 79, "duration": 281}, {"note": 75, "velocity": 95, "duration": 1568}, {"note": 73, "velocity": 101, "duration": 449}, {"note": 70, "velocity": 99, "duration": 480}, {"note": 75, "velocity": 109, "duration": 1117}, {"note": 76, "velocity": 105, "duration": 454}, {"note": 75, "velocity": 92, "duration": 247}, {"note": 0, "velocity": 0, "duration": 233}, {"note": 76, "velocity": 98, "duration": 189}, {"note": 78, "velocity": 93, "duration": 213}, {"note": 80, "velocity": 95, "duration": 246}, {"note": 76, "velocity": 83, "duration": 136}, {"note": 73, "velocity": 87, "duration": 645}, {"note": 0, "velocity": 0, "duration": 315}, {"note": 66, "velocity": 55, "duration": 134}, {"note": 75, "velocity": 90, "duration": 221}, {"note": 76, "velocity": 62, "duration": 236}, {"note": 75, "velocity": 82, "duration": 241}, {"note": 71, "velocity": 66, "duration": 238}, {"note": 68, "velocity": 77, "duration": 342}, {"note": 0, "velocity": 0, "duration": 618}, {"note": 75, "velocity": 95, "duration": 219}, {"note": 71, "velocity": 91, "duration": 213}, {"note": 68, "velocity": 87, "duration": 248}, {"note": 71, "velocity": 76, "duration": 126}, {"note": 68, "velocity": 82, "duration": 639}, {"note": 0, "velocity": 0, "duration": 441}, {"note": 75, "velocity": 95, "duration": 145}, {"note": 0, "velocity": 0, "duration": 95}, {"note": 71, "velocity": 87, "duration": 92}, {"note": 0, "velocity": 0, "duration": 148}, {"note": 73, "velocity": 91, "duration": 141}, {"note": 0, "velocity": 0, "duration": 99}, {"note": 71, "velocity": 92, "duration": 110}, {"note": 0, "velocity": 0, "duration": 130}, {"note": 75, "velocity": 94, "duration": 138}, {"note": 0, "velocity": 0, "duration": 102}, {"note": 71, "velocity": 77, "duration": 239}, {"note": 73, "velocity": 81, "duration": 236}, {"note": 71, "velocity": 63, "duration": 207}, {"note": 68, "velocity": 73, "duration": 624}, {"note": 0, "velocity": 0, "duration": 6576}, {"note": 73, "velocity": 82, "duration": 247}, {"note": 75, "velocity": 84, "duration": 229}, {"note": 71, "velocity": 75, "duration": 450}, {"note": 68, "velocity": 64, "duration": 522}, {"note": 75, "velocity": 66, "duration": 263}, {"note": 73, "velocity": 100, "duration": 118}, {"note": 73, "velocity": 100, "duration": 202}, {"note": 75, "velocity": 77, "duration": 238}, {"note": 68, "velocity": 72, "duration": 199}, {"note": 68, "velocity": 64, "duration": 215}, {"note": 71, "velocity": 66, "duration": 237}, {"note": 73, "velocity": 62, "duration": 128}, {"note": 75, "velocity": 77, "duration": 323}, {"note": 0, "velocity": 0, "duration": 277}, {"note": 73, "velocity": 98, "duration": 240}, {"note": 75, "velocity": 80, "duration": 239}, {"note": 70, "velocity": 93, "duration": 428}, {"note": 66, "velocity": 82, "duration": 357}, {"note": 73, "velocity": 95, "duration": 424}, {"note": 0, "velocity": 0, "duration": 176}, {"note": 71, "velocity": 91, "duration": 205}, {"note": 73, "velocity": 76, "duration": 201}, {"note": 75, "velocity": 92, "duration": 142}, {"note": 0, "velocity": 0, "duration": 98}, {"note": 75, "velocity": 96, "duration": 110}, {"note": 0, "velocity": 0, "duration": 130}, {"note": 73, "velocity": 86, "duration": 135}, {"note": 0, "velocity": 0, "duration": 105}, {"note": 71, "velocity": 72, "duration": 168}, {"note": 73, "velocity": 87, "duration": 366}, {"note": 0, "velocity": 0, "duration": 234}, {"note": 73, "velocity": 57, "duration": 187}, {"note": 75, "velocity": 84, "duration": 316}, {"note": 71, "velocity": 75, "duration": 475}, {"note": 68, "velocity": 64, "duration": 334}, {"note": 75, "velocity": 66, "duration": 343}, {"note": 80, "velocity": 97, "duration": 233}, {"note": 78, "velocity": 90, "duration": 176}, {"note": 0, "velocity": 0, "duration": 64}, {"note": 73, "velocity": 75, "duration": 137}, {"note": 0, "velocity": 0, "duration": 103}, {"note": 73, "velocity": 91, "duration": 170}, {"note": 0, "velocity": 0, "duration": 70}, {"note": 73, "velocity": 90, "duration": 185}, {"note": 71, "velocity": 82, "duration": 138}, {"note": 73, "velocity": 87, "duration": 385}, {"note": 0, "velocity": 0, "duration": 215}, {"note": 73, "velocity": 92, "duration": 231}, {"note": 83, "velocity": 90, "duration": 199}, {"note": 82, "velocity": 96, "duration": 472}, {"note": 85, "velocity": 91, "duration": 282}, {"note": 0, "velocity": 0, "duration": 198}, {"note": 78, "velocity": 97, "duration": 212}, {"note": 76, "velocity": 79, "duration": 208}, {"note": 76, "velocity": 72, "duration": 452}, {"note": 75, "velocity": 62, "duration": 875}, {"note": 0, "velocity": 0, "duration": 85}, {"note": 81, "velocity": 104, "duration": 458}, {"note": 80, "velocity": 106, "duration": 313}, {"note": 0, "velocity": 0, "duration": 167}, {"note": 76, "velocity": 100, "duration": 239}, {"note": 75, "velocity": 83, "duration": 85}, {"note": 0, "velocity": 0, "duration": 155}, {"note": 76, "velocity": 93, "duration": 177}, {"note": 0, "velocity": 0, "duration": 63}, {"note": 75, "velocity": 85, "duration": 119}, {"note": 0, "velocity": 0, "duration": 121}, {"note": 76, "velocity": 93, "duration": 173}, {"note": 0, "velocity": 0, "duration": 67}, {"note": 75, "velocity": 85, "duration": 121}, {"note": 76, "velocity": 94, "duration": 273}, {"note": 0, "velocity": 0, "duration": 207}, {"note": 66, "velocity": 67, "duration": 121}, {"note": 76, "velocity": 67, "duration": 225}, {"note": 75, "velocity": 76, "duration": 237}, {"note": 76, "velocity": 64, "duration": 240}, {"note": 75, "velocity": 80, "duration": 257}, {"note": 76, "velocity": 62, "duration": 250}, {"note": 75, "velocity": 76, "duration": 117}, {"note": 73, "velocity": 66, "duration": 289}, {"note": 0, "velocity": 0, "duration": 71}, {"note": 73, "velocity": 69, "duration": 207}, {"note": 75, "velocity": 90, "duration": 620}, {"note": 0, "velocity": 0, "duration": 340}, {"note": 73, "velocity": 93, "duration": 429}, {"note": 70, "velocity": 97, "duration": 469}, {"note": 75, "velocity": 109, "duration": 956}, {"note": 76, "velocity": 105, "duration": 447}, {"note": 75, "velocity": 99, "duration": 211}, {"note": 0, "velocity": 0, "duration": 269}, {"note": 76, "velocity": 101, "duration": 259}, {"note": 75, "velocity": 98, "duration": 184}, {"note": 76, "velocity": 99, "duration": 151}, {"note": 0, "velocity": 0, "duration": 89}, {"note": 75, "velocity": 99, "duration": 117}, {"note": 0, "velocity": 0, "duration": 123}, {"note": 76, "velocity": 105, "duration": 171}, {"note": 0, "velocity": 0, "duration": 69}, {"note": 75, "velocity": 97, "duration": 112}, {"note": 76, "velocity": 100, "duration": 307}, {"note": 0, "velocity": 0, "duration": 173}, {"note": 66, "velocity": 62, "duration": 129}, {"note": 76, "velocity": 84, "duration": 189}, {"note": 75, "velocity": 91, "duration": 248}, {"note": 76, "velocity": 72, "duration": 256}, {"note": 75, "velocity": 89, "duration": 248}, {"note": 76, "velocity": 66, "duration": 236}, {"note": 75, "velocity": 83, "duration": 133}, {"note": 76, "velocity": 79, "duration": 353}, {"note": 73, "velocity": 79, "duration": 281}, {"note": 75, "velocity": 95, "duration": 1568}, {"note": 73, "velocity": 101, "duration": 449}, {"note": 70, "velocity": 99, "duration": 480}, {"note": 75, "velocity": 109, "duration": 1076}, {"note": 76, "velocity": 105, "duration": 454}, {"note": 75, "velocity": 92, "duration": 247}, {"note": 0, "velocity": 0, "duration": 233}, {"note": 76, "velocity": 98, "duration": 188}, {"note": 78, "velocity": 93, "duration": 213}, {"note": 80, "velocity": 95, "duration": 246}, {"note": 76, "velocity": 83, "duration": 136}, {"note": 73, "velocity": 87, "duration": 645}, {"note": 0, "velocity": 0, "duration": 315}, {"note": 66, "velocity": 55, "duration": 134}, {"note": 75, "velocity": 90, "duration": 221}, {"note": 76, "velocity": 62, "duration": 236}, {"note": 75, "velocity": 82, "duration": 241}, {"note": 71, "velocity": 66, "duration": 238}, {"note": 68, "velocity": 77, "duration": 342}, {"note": 0, "velocity": 0, "duration": 618}, {"note": 75, "velocity": 95, "duration": 219}, {"note": 71, "velocity": 91, "duration": 213}, {"note": 68, "velocity": 87, "duration": 248}, {"note": 71, "velocity": 76, "duration": 126}, {"note": 68, "velocity": 82, "duration": 639}, {"note": 0, "velocity": 0, "duration": 441}, {"note": 75, "velocity": 95, "duration": 145}, {"note": 0, "velocity": 0, "duration": 95}, {"note": 71, "velocity": 87, "duration": 92}, {"note": 0, "velocity": 0, "duration": 148}, {"note": 73, "velocity": 91, "duration": 141}, {"note": 0, "velocity": 0, "duration": 99}, {"note": 71, "velocity": 92, "duration": 110}, {"note": 0, "velocity": 0, "duration": 130}, {"note": 75, "velocity": 94, "duration": 137}, {"note": 0, "velocity": 0, "duration": 103}, {"note": 71, "velocity": 77, "duration": 239}, {"note": 73, "velocity": 81, "duration": 236}, {"note": 71, "velocity": 63, "duration": 207}, {"note": 68, "velocity": 73, "duration": 624}, {"note": 0, "velocity": 0, "duration": 14736}, {"note": 76, "velocity": 101, "duration": 259}, {"note": 75, "velocity": 98, "duration": 184}, {"note": 76, "velocity": 99, "duration": 150}, {"note": 0, "velocity": 0, "duration": 90}, {"note": 75, "velocity": 99, "duration": 118}, {"note": 0, "velocity": 0, "duration": 122}, {"note": 76, "velocity": 105, "duration": 171}, {"note": 0, "velocity": 0, "duration": 69}, {"note": 75, "velocity": 97, "duration": 112}, {"note": 76, "velocity": 100, "duration": 308}, {"note": 0, "velocity": 0, "duration": 172}, {"note": 66, "velocity": 62, "duration": 129}, {"note": 76, "velocity": 84, "duration": 188}, {"note": 75, "velocity": 91, "duration": 249}, {"note": 76, "velocity": 72, "duration": 256}, {"note": 75, "velocity": 89, "duration": 248}, {"note": 76, "velocity": 66, "duration": 237}, {"note": 75, "velocity": 83, "duration": 202}, {"note": 73, "velocity": 79, "duration": 319}, {"note": 73, "velocity": 79, "duration": 281}, {"note": 75, "velocity": 95, "duration": 972}, {"note": 73, "velocity": 101, "duration": 414}, {"note": 0, "velocity": 0, "duration": 66}, {"note": 70, "velocity": 99, "duration": 480}, {"note": 75, "velocity": 109, "duration": 962}, {"note": 76, "velocity": 105, "duration": 451}, {"note": 75, "velocity": 92, "duration": 247}, {"note": 0, "velocity": 0, "duration": 233}, {"note": 76, "velocity": 101, "duration": 259}, {"note": 75, "velocity": 98, "duration": 184}, {"note": 76, "velocity": 99, "duration": 150}, {"note": 0, "velocity": 0, "duration": 90}, {"note": 75, "velocity": 99, "duration": 118}, {"note": 0, "velocity": 0, "duration": 122}, {"note": 76, "velocity": 105, "duration": 170}, {"note": 0, "velocity": 0, "duration": 70}, {"note": 75, "velocity": 97, "duration": 112}, {"note": 76, "velocity": 100, "duration": 307}, {"note": 0, "velocity": 0, "duration": 173}, {"note": 66, "velocity": 62, "duration": 128}, {"note": 76, "velocity": 84, "duration": 188}, {"note": 75, "velocity": 91, "duration": 249}, {"note": 76, "velocity": 72, "duration": 256}, {"note": 75, "velocity": 89, "duration": 248}, {"note": 76, "velocity": 66, "duration": 237}, {"note": 75, "velocity": 83, "duration": 132}, {"note": 76, "velocity": 79, "duration": 353}, {"note": 73, "velocity": 79, "duration": 281}, {"note": 75, "velocity": 95, "duration": 980}, {"note": 73, "velocity": 101, "duration": 414}, {"note": 0, "velocity": 0, "duration": 66}, {"note": 70, "velocity": 99, "duration": 480}, {"note": 75, "velocity": 109, "duration": 1077}, {"note": 76, "velocity": 105, "duration": 454}, {"note": 75, "velocity": 92, "duration": 247}, {"note": 0, "velocity": 0, "duration": 233}, {"note": 76, "velocity": 98, "duration": 188}, {"note": 78, "velocity": 93, "duration": 213}, {"note": 80, "velocity": 95, "duration": 246}, {"note": 76, "velocity": 83, "duration": 135}, {"note": 73, "velocity": 87, "duration": 645}, {"note": 0, "velocity": 0, "duration": 315}, {"note": 66, "velocity": 55, "duration": 134}, {"note": 75, "velocity": 90, "duration": 220}, {"note": 76, "velocity": 62, "duration": 236}, {"note": 75, "velocity": 82, "duration": 241}, {"note": 71, "velocity": 66, "duration": 238}, {"note": 68, "velocity": 77, "duration": 341}, {"note": 0, "velocity": 0, "duration": 619}, {"note": 75, "velocity": 95, "duration": 219}, {"note": 71, "velocity": 91, "duration": 213}, {"note": 68, "velocity": 87, "duration": 247}, {"note": 71, "velocity": 76, "duration": 126}, {"note": 68, "velocity": 82, "duration": 640}, {"note": 0, "velocity": 0, "duration": 440}, {"note": 75, "velocity": 95, "duration": 145}, {"note": 0, "velocity": 0, "duration": 95}, {"note": 71, "velocity": 87, "duration": 92}, {"note": 0, "velocity": 0, "duration": 148}, {"note": 73, "velocity": 91, "duration": 140}, {"note": 0, "velocity": 0, "duration": 100}, {"note": 71, "velocity": 92, "duration": 110}, {"note": 0, "velocity": 0, "duration": 130}, {"note": 75, "velocity": 94, "duration": 137}, {"note": 0, "velocity": 0, "duration": 103}, {"note": 71, "velocity": 77, "duration": 239}, {"note": 73, "velocity": 81, "duration": 237}, {"note": 71, "velocity": 63, "duration": 207}, {"note": 68, "velocity": 73, "duration": 625}, {"note": 0, "velocity": 0, "duration": 1295}, {"note": 76, "velocity": 101, "duration": 259}, {"note": 75, "velocity": 98, "duration": 185}, {"note": 76, "velocity": 99, "duration": 150}, {"note": 0, "velocity": 0, "duration": 90}, {"note": 75, "velocity": 99, "duration": 117}, {"note": 0, "velocity": 0, "duration": 123}, {"note": 76, "velocity": 105, "duration": 171}, {"note": 0, "velocity": 0, "duration": 69}, {"note": 75, "velocity": 97, "duration": 113}, {"note": 76, "velocity": 100, "duration": 308}, {"note": 0, "velocity": 0, "duration": 172}, {"note": 66, "velocity": 62, "duration": 129}, {"note": 76, "velocity": 84, "duration": 188}, {"note": 75, "velocity": 91, "duration": 249}, {"note": 76, "velocity": 72, "duration": 255}, {"note": 75, "velocity": 89, "duration": 248}, {"note": 76, "velocity": 66, "duration": 236}, {"note": 75, "velocity": 83, "duration": 202}, {"note": 73, "velocity": 79, "duration": 319}, {"note": 73, "velocity": 79, "duration": 281}, {"note": 75, "velocity": 95, "duration": 972}, {"note": 73, "velocity": 101, "duration": 414}, {"note": 0, "velocity": 0, "duration": 66}, {"note": 70, "velocity": 99, "duration": 480}, {"note": 75, "velocity": 109, "duration": 962}, {"note": 80, "velocity": 105, "duration": 428}, {"note": 78, "velocity": 92, "duration": 247}, {"note": 0, "velocity": 0, "duration": 233}, {"note": 76, "velocity": 101, "duration": 259}, {"note": 75, "velocity": 98, "duration": 184}, {"note": 76, "velocity": 99, "duration": 150}, {"note": 0, "velocity": 0, "duration": 90}, {"note": 75, "velocity": 99, "duration": 118}, {"note": 0, "velocity": 0, "duration": 122}, {"note": 76, "velocity": 105, "duration": 171}, {"note": 0, "velocity": 0, "duration": 69}, {"note": 75, "velocity": 97, "duration": 112}, {"note": 76, "velocity": 100, "duration": 307}, {"note": 0, "velocity": 0, "duration": 173}, {"note": 66, "velocity": 62, "duration": 129}, {"note": 76, "velocity": 84, "duration": 188}, {"note": 75, "velocity": 91, "duration": 249}, {"note": 76, "velocity": 72, "duration": 256}, {"note": 75, "velocity": 89, "duration": 248}, {"note": 76, "velocity": 66, "duration": 237}, {"note": 75, "velocity": 83, "duration": 202}, {"note": 76, "velocity": 79, "duration": 320}, {"note": 73, "velocity": 79, "duration": 281}, {"note": 75, "velocity": 95, "duration": 972}, {"note": 73, "velocity": 101, "duration": 414}, {"note": 0, "velocity": 0, "duration": 66}, {"note": 70, "velocity": 99, "duration": 480}, {"note": 75, "velocity": 109, "duration": 948}, {"note": 76, "velocity": 105, "duration": 458}, {"note": 75, "velocity": 92, "duration": 267}, {"note": 0, "velocity": 0, "duration": 93}, {"note": 68, "velocity": 100, "duration": 90}, {"note": 76, "velocity": 98, "duration": 189}, {"note": 78, "velocity": 93, "duration": 213}, {"note": 80, "velocity": 95, "duration": 247}, {"note": 76, "velocity": 83, "duration": 135}, {"note": 73, "velocity": 87, "duration": 645}, {"note": 0, "velocity": 0, "duration": 315}, {"note": 66, "velocity": 55, "duration": 134}, {"note": 75, "velocity": 90, "duration": 221}, {"note": 76, "velocity": 62, "duration": 236}, {"note": 75, "velocity": 82, "duration": 242}, {"note": 71, "velocity": 66, "duration": 238}, {"note": 68, "velocity": 77, "duration": 342}, {"note": 0, "velocity": 0, "duration": 618}, {"note": 75, "velocity": 95, "duration": 219}, {"note": 71, "velocity": 91, "duration": 214}, {"note": 68, "velocity": 87, "duration": 248}, {"note": 71, "velocity": 76, "duration": 126}, {"note": 68, "velocity": 82, "duration": 640}, {"note": 0, "velocity": 0, "duration": 440}, {"note": 75, "velocity": 95, "duration": 145}, {"note": 0, "velocity": 0, "duration": 95}, {"note": 71, "velocity": 87, "duration": 91}, {"note": 0, "velocity": 0, "duration": 149}, {"note": 73, "velocity": 91, "duration": 141}, {"note": 0, "velocity": 0, "duration": 99}, {"note": 71, "velocity": 92, "duration": 110}, {"note": 0, "velocity": 0, "duration": 130}, {"note": 75, "velocity": 94, "duration": 137}, {"note": 0, "velocity": 0, "duration": 103}, {"note": 71, "velocity": 77, "duration": 238}, {"note": 73, "velocity": 81, "duration": 237}, {"note": 71, "velocity": 63, "duration": 208}, {"note": 68, "velocity": 73, "duration": 624}, {"note": 0, "velocity": 0, "duration": 816}, {"note": 75, "velocity": 97, "duration": 165}, {"note": 0, "velocity": 0, "duration": 75}, {"note": 71, "velocity": 91, "duration": 250}, {"note": 68, "velocity": 83, "duration": 591}, {"note": 0, "velocity": 0, "duration": 480}, {"note": 80, "velocity": 103, "duration": 251}, {"note": 78, "velocity": 91, "duration": 181}, {"note": 78, "velocity": 99, "duration": 573}, {"note": 0, "velocity": 0, "duration": 347}, {"note": 76, "velocity": 94, "duration": 325}, {"note": 0, "velocity": 0, "duration": 98}, {"note": 76, "velocity": 97, "duration": 61}, {"note": 75, "velocity": 98, "duration": 718}, {"note": 0, "velocity": 0, "duration": 242}, {"note": 75, "velocity": 98, "duration": 117}, {"note": 71, "velocity": 87, "duration": 62}, {"note": 73, "velocity": 91, "duration": 226}, {"note": 71, "velocity": 87, "duration": 222}, {"note": 68, "velocity": 94, "duration": 306}, {"note": 0, "velocity": 0, "duration": 821}, {"note": 75, "velocity": 103, "duration": 167}, {"note": 0, "velocity": 0, "duration": 73}, {"note": 71, "velocity": 91, "duration": 36}, {"note": 68, "velocity": 90, "duration": 451}, {"note": 0, "velocity": 0, "duration": 989}, {"note": 80, "velocity": 99, "duration": 237}, {"note": 78, "velocity": 93, "duration": 185}, {"note": 78, "velocity": 93, "duration": 507}, {"note": 76, "velocity": 96, "duration": 112}, {"note": 0, "velocity": 0, "duration": 200}, {"note": 76, "velocity": 97, "duration": 25}, {"note": 75, "velocity": 95, "duration": 38}, {"note": 0, "velocity": 0, "duration": 127}, {"note": 68, "velocity": 45, "duration": 118}, {"note": 75, "velocity": 73, "duration": 218}, {"note": 71, "velocity": 54, "duration": 266}, {"note": 73, "velocity": 54, "duration": 264}, {"note": 71, "velocity": 66, "duration": 359}, {"note": 68, "velocity": 61, "duration": 2601}]]