[[{"note": 63, "velocity": 56, "duration": 236}, {"note": 64, "velocity": 77, "duration": 236}, {"note": 66, "velocity": 94, "duration": 716}, {"note": 66, "velocity": 91, "duration": 18}, {"note": 66, "velocity": 77, "duration": 207}, {"note": 71, "velocity": 84, "duration": 356}, {"note": 73, "velocity": 79, "duration": 236}, {"note": 71, "velocity": 97, "duration": 1796}, {"note": 0, "velocity": 0, "duration": 124}, {"note": 70, "velocity": 105, "duration": 356}, {"note": 70, "velocity": 94, "duration": 356}, {"note": 71, "velocity": 98, "duration": 236}, {"note": 70, "velocity": 99, "duration": 356}, {"note": 68, "velocity": 97, "duration": 236}, {"note": 0, "velocity": 0, "duration": 124}, {"note": 66, "velocity": 91, "duration": 236}, {"note": 68, "velocity": 91, "duration": 1796}, {"note": 0, "velocity": 0, "duration": 124}, {"note": 64, "velocity": 90, "duration": 236}, {"note": 0, "velocity": 0, "duration": 124}, {"note": 64, "velocity": 87, "duration": 956}, {"note": 64, "velocity": 91, "duration": 116}, {"note": 0, "velocity": 0, "duration": 124}, {"note": 66, "velocity": 92, "duration": 236}, {"note": 68, "velocity": 87, "duration": 236}, {"note": 66, "velocity": 96, "duration": 476}, {"note": 63, "velocity": 86, "duration": 236}, {"note": 59, "velocity": 84, "duration": 716}, {"note": 61, "velocity": 95, "duration": 236}, {"note": 63, "velocity": 93, "duration": 236}, {"note": 64, "velocity": 94, "duration": 596}, {"note": 0, "velocity": 0, "duration": 124}, {"note": 64, "velocity": 90, "duration": 236}, {"note": 68, "velocity": 91, "duration": 356}, {"note": 71, "velocity": 89, "duration": 476}, {"note": 63, "velocity": 84, "duration": 236}, {"note": 61, "velocity": 63, "duration": 289}, {"note": 63, "velocity": 96, "duration": 236}, {"note": 64, "velocity": 83, "duration": 236}, {"note": 66, "velocity": 97, "duration": 356}, {"note": 66, "velocity": 98, "duration": 596}, {"note": 66, "velocity": 103, "duration": 356}, {"note": 71, "velocity": 100, "duration": 356}, {"note": 73, "velocity": 94, "duration": 236}, {"note": 71, "velocity": 103, "duration": 1436}, {"note": 71, "velocity": 97, "duration": 236}, {"note": 73, "velocity": 87, "duration": 236}, {"note": 75, "velocity": 94, "duration": 716}, {"note": 70, "velocity": 83, "duration": 236}, {"note": 70, "velocity": 89, "duration": 356}, {"note": 73, "velocity": 87, "duration": 596}, {"note": 71, "velocity": 96, "duration": 476}, {"note": 68, "velocity": 54, "duration": 956}, {"note": 68, "velocity": 90, "duration": 236}, {"note": 70, "velocity": 86, "duration": 236}, {"note": 71, "velocity": 95, "duration": 1196}, {"note": 71, "velocity": 98, "duration": 236}, {"note": 70, "velocity": 87, "duration": 236}, {"note": 68, "velocity": 67, "duration": 236}, {"note": 66, "velocity": 86, "duration": 476}, {"note": 70, "velocity": 92, "duration": 236}, {"note": 71, "velocity": 92, "duration": 716}, {"note": 68, "velocity": 98, "duration": 236}, {"note": 70, "velocity": 87, "duration": 236}, {"note": 71, "velocity": 74, "duration": 236}, {"note": 71, "velocity": 90, "duration": 236}, {"note": 71, "velocity": 96, "duration": 236}, {"note": 71, "velocity": 93, "duration": 236}, {"note": 75, "velocity": 96, "duration": 236}, {"note": 78, "velocity": 87, "duration": 476}, {"note": 71, "velocity": 82, "duration": 236}, {"note": 73, "velocity": 68, "duration": 956}, {"note": 75, "velocity": 101, "duration": 25}, {"note": 73, "velocity": 90, "duration": 356}, {"note": 71, "velocity": 86, "duration": 356}, {"note": 75, "velocity": 97, "duration": 716}, {"note": 75, "velocity": 108, "duration": 236}, {"note": 78, "velocity": 91, "duration": 356}, {"note": 75, "velocity": 99, "duration": 356}, {"note": 73, "velocity": 91, "duration": 236}, {"note": 75, "velocity": 105, "duration": 956}, {"note": 75, "velocity": 93, "duration": 236}, {"note": 78, "velocity": 93, "duration": 356}, {"note": 75, "velocity": 84, "duration": 356}, {"note": 80, "velocity": 103, "duration": 356}, {"note": 80, "velocity": 98, "duration": 356}, {"note": 80, "velocity": 97, "duration": 236}, {"note": 78, "velocity": 106, "duration": 356}, {"note": 75, "velocity": 94, "duration": 236}, {"note": 0, "velocity": 0, "duration": 124}, {"note": 73, "velocity": 94, "duration": 116}, {"note": 0, "velocity": 0, "duration": 124}, {"note": 75, "velocity": 103, "duration": 596}, {"note": 0, "velocity": 0, "duration": 124}, {"note": 68, "velocity": 84, "duration": 236}, {"note": 75, "velocity": 95, "duration": 236}, {"note": 73, "velocity": 93, "duration": 356}, {"note": 0, "velocity": 0, "duration": 124}, {"note": 75, "velocity": 98, "duration": 236}, {"note": 68, "velocity": 89, "duration": 716}, {"note": 68, "velocity": 72, "duration": 236}, {"note": 75, "velocity": 98, "duration": 356}, {"note": 73, "velocity": 90, "duration": 356}, {"note": 75, "velocity": 93, "duration": 236}, {"note": 66, "velocity": 84, "duration": 956}, {"note": 75, "velocity": 101, "duration": 356}, {"note": 73, "velocity": 97, "duration": 236}, {"note": 71, "velocity": 96, "duration": 356}, {"note": 76, "velocity": 77, "duration": 356}, {"note": 76, "velocity": 99, "duration": 236}, {"note": 0, "velocity": 0, "duration": 124}, {"note": 76, "velocity": 95, "duration": 236}, {"note": 76, "velocity": 96, "duration": 476}, {"note": 78, "velocity": 97, "duration": 240}, {"note": 75, "velocity": 94, "duration": 236}, {"note": 75, "velocity": 89, "duration": 236}, {"note": 73, "velocity": 89, "duration": 716}, {"note": 75, "velocity": 101, "duration": 116}, {"note": 0, "velocity": 0, "duration": 124}, {"note": 73, "velocity": 99, "duration": 356}, {"note": 0, "velocity": 0, "duration": 124}, {"note": 71, "velocity": 96, "duration": 236}, {"note": 75, "velocity": 103, "duration": 956}, {"note": 78, "velocity": 92, "duration": 236}, {"note": 75, "velocity": 100, "duration": 356}, {"note": 0, "velocity": 0, "duration": 124}, {"note": 73, "velocity": 92, "duration": 236}, {"note": 75, "velocity": 99, "duration": 956}, {"note": 75, "velocity": 94, "duration": 356}, {"note": 78, "velocity": 96, "duration": 356}, {"note": 75, "velocity": 87, "duration": 236}, {"note": 80, "velocity": 105, "duration": 356}, {"note": 80, "velocity": 97, "duration": 356}, {"note": 80, "velocity": 98, "duration": 236}, {"note": 78, "velocity": 96, "duration": 356}, {"note": 75, "velocity": 93, "duration": 356}, {"note": 73, "velocity": 90, "duration": 236}, {"note": 75, "velocity": 100, "duration": 956}, {"note": 75, "velocity": 106, "duration": 236}, {"note": 73, "velocity": 101, "duration": 356}, {"note": 0, "velocity": 0, "duration": 124}, {"note": 75, "velocity": 97, "duration": 236}, {"note": 68, "velocity": 94, "duration": 956}, {"note": 75, "velocity": 105, "duration": 356}, {"note": 73, "velocity": 97, "duration": 356}, {"note": 75, "velocity": 94, "duration": 236}, {"note": 66, "velocity": 91, "duration": 960}, {"note": 75, "velocity": 101, "duration": 356}, {"note": 73, "velocity": 91, "duration": 356}, {"note": 71, "velocity": 89, "duration": 236}, {"note": 76, "velocity": 98, "duration": 356}, {"note": 76, "velocity": 96, "duration": 356}, {"note": 76, "velocity": 96, "duration": 236}, {"note": 78, "velocity": 99, "duration": 356}, {"note": 75, "velocity": 95, "duration": 356}, {"note": 75, "velocity": 101, "duration": 476}, {"note": 73, "velocity": 87, "duration": 716}, {"note": 75, "velocity": 103, "duration": 356}, {"note": 73, "velocity": 101, "duration": 356}, {"note": 75, "velocity": 93, "duration": 236}, {"note": 73, "velocity": 90, "duration": 716}, {"note": 71, "velocity": 99, "duration": 2636}, {"note": 63, "velocity": 56, "duration": 236}, {"note": 64, "velocity": 77, "duration": 236}, {"note": 66, "velocity": 94, "duration": 716}, {"note": 66, "velocity": 91, "duration": 236}, {"note": 66, "velocity": 77, "duration": 178}, {"note": 71, "velocity": 84, "duration": 356}, {"note": 73, "velocity": 79, "duration": 236}, {"note": 71, "velocity": 97, "duration": 1796}, {"note": 0, "velocity": 0, "duration": 124}, {"note": 70, "velocity": 105, "duration": 236}, {"note": 0, "velocity": 0, "duration": 124}, {"note": 70, "velocity": 94, "duration": 236}, {"note": 0, "velocity": 0, "duration": 124}, {"note": 70, "velocity": 98, "duration": 236}, {"note": 70, "velocity": 99, "duration": 356}, {"note": 68, "velocity": 97, "duration": 356}, {"note": 66, "velocity": 91, "duration": 356}, {"note": 68, "velocity": 91, "duration": 1796}, {"note": 64, "velocity": 90, "duration": 236}, {"note": 64, "velocity": 87, "duration": 956}, {"note": 64, "velocity": 91, "duration": 236}, {"note": 66, "velocity": 92, "duration": 236}, {"note": 68, "velocity": 87, "duration": 236}, {"note": 66, "velocity": 96, "duration": 476}, {"note": 63, "velocity": 86, "duration": 236}, {"note": 59, "velocity": 84, "duration": 716}, {"note": 61, "velocity": 95, "duration": 236}, {"note": 63, "velocity": 93, "duration": 236}, {"note": 64, "velocity": 94, "duration": 716}, {"note": 64, "velocity": 90, "duration": 236}, {"note": 68, "velocity": 91, "duration": 356}, {"note": 71, "velocity": 89, "duration": 356}, {"note": 63, "velocity": 84, "duration": 356}, {"note": 61, "velocity": 63, "duration": 379}, {"note": 63, "velocity": 96, "duration": 116}, {"note": 64, "velocity": 83, "duration": 236}, {"note": 66, "velocity": 97, "duration": 356}, {"note": 66, "velocity": 98, "duration": 596}, {"note": 66, "velocity": 103, "duration": 356}, {"note": 71, "velocity": 100, "duration": 356}, {"note": 73, "velocity": 94, "duration": 236}, {"note": 71, "velocity": 103, "duration": 1436}, {"note": 71, "velocity": 97, "duration": 236}, {"note": 73, "velocity": 87, "duration": 236}, {"note": 75, "velocity": 94, "duration": 716}, {"note": 70, "velocity": 83, "duration": 236}, {"note": 70, "velocity": 89, "duration": 356}, {"note": 73, "velocity": 87, "duration": 356}, {"note": 71, "velocity": 96, "duration": 476}, {"note": 68, "velocity": 88, "duration": 1196}, {"note": 68, "velocity": 90, "duration": 236}, {"note": 70, "velocity": 86, "duration": 240}, {"note": 71, "velocity": 95, "duration": 1196}, {"note": 71, "velocity": 98, "duration": 236}, {"note": 70, "velocity": 87, "duration": 236}, {"note": 68, "velocity": 67, "duration": 236}, {"note": 66, "velocity": 86, "duration": 476}, {"note": 70, "velocity": 92, "duration": 236}, {"note": 71, "velocity": 92, "duration": 716}, {"note": 68, "velocity": 98, "duration": 236}, {"note": 70, "velocity": 87, "duration": 236}, {"note": 71, "velocity": 74, "duration": 236}, {"note": 71, "velocity": 90, "duration": 236}, {"note": 71, "velocity": 96, "duration": 236}, {"note": 71, "velocity": 93, "duration": 236}, {"note": 75, "velocity": 96, "duration": 356}, {"note": 78, "velocity": 87, "duration": 476}, {"note": 71, "velocity": 82, "duration": 236}, {"note": 73, "velocity": 85, "duration": 836}, {"note": 0, "velocity": 0, "duration": 124}, {"note": 75, "velocity": 101, "duration": 115}, {"note": 73, "velocity": 90, "duration": 356}, {"note": 71, "velocity": 86, "duration": 236}, {"note": 75, "velocity": 97, "duration": 716}, {"note": 75, "velocity": 108, "duration": 236}, {"note": 78, "velocity": 91, "duration": 356}, {"note": 75, "velocity": 99, "duration": 356}, {"note": 73, "velocity": 91, "duration": 236}, {"note": 75, "velocity": 105, "duration": 956}, {"note": 75, "velocity": 93, "duration": 236}, {"note": 78, "velocity": 93, "duration": 356}, {"note": 75, "velocity": 84, "duration": 356}, {"note": 80, "velocity": 103, "duration": 356}, {"note": 80, "velocity": 98, "duration": 356}, {"note": 80, "velocity": 97, "duration": 236}, {"note": 78, "velocity": 106, "duration": 356}, {"note": 75, "velocity": 94, "duration": 356}, {"note": 73, "velocity": 94, "duration": 236}, {"note": 75, "velocity": 103, "duration": 716}, {"note": 68, "velocity": 84, "duration": 236}, {"note": 75, "velocity": 95, "duration": 356}, {"note": 73, "velocity": 93, "duration": 356}, {"note": 75, "velocity": 98, "duration": 236}, {"note": 68, "velocity": 89, "duration": 716}, {"note": 68, "velocity": 72, "duration": 236}, {"note": 75, "velocity": 98, "duration": 356}, {"note": 73, "velocity": 90, "duration": 356}, {"note": 75, "velocity": 93, "duration": 236}, {"note": 66, "velocity": 84, "duration": 956}, {"note": 75, "velocity": 101, "duration": 356}, {"note": 73, "velocity": 97, "duration": 236}, {"note": 71, "velocity": 96, "duration": 356}, {"note": 76, "velocity": 77, "duration": 356}, {"note": 76, "velocity": 99, "duration": 356}, {"note": 76, "velocity": 95, "duration": 236}, {"note": 76, "velocity": 96, "duration": 476}, {"note": 78, "velocity": 97, "duration": 240}, {"note": 75, "velocity": 94, "duration": 356}, {"note": 75, "velocity": 89, "duration": 356}, {"note": 73, "velocity": 89, "duration": 720}, {"note": 75, "velocity": 101, "duration": 236}, {"note": 0, "velocity": 0, "duration": 124}, {"note": 73, "velocity": 99, "duration": 356}, {"note": 71, "velocity": 96, "duration": 236}, {"note": 75, "velocity": 103, "duration": 956}, {"note": 78, "velocity": 92, "duration": 356}, {"note": 78, "velocity": 100, "duration": 356}, {"note": 80, "velocity": 92, "duration": 356}, {"note": 75, "velocity": 99, "duration": 836}, {"note": 75, "velocity": 94, "duration": 356}, {"note": 78, "velocity": 96, "duration": 356}, {"note": 75, "velocity": 87, "duration": 236}, {"note": 80, "velocity": 105, "duration": 356}, {"note": 80, "velocity": 97, "duration": 356}, {"note": 80, "velocity": 98, "duration": 236}, {"note": 78, "velocity": 96, "duration": 356}, {"note": 75, "velocity": 93, "duration": 356}, {"note": 73, "velocity": 90, "duration": 236}, {"note": 75, "velocity": 100, "duration": 956}, {"note": 75, "velocity": 106, "duration": 236}, {"note": 0, "velocity": 0, "duration": 124}, {"note": 73, "velocity": 101, "duration": 236}, {"note": 0, "velocity": 0, "duration": 124}, {"note": 71, "velocity": 97, "duration": 236}, {"note": 68, "velocity": 94, "duration": 956}, {"note": 75, "velocity": 105, "duration": 356}, {"note": 73, "velocity": 97, "duration": 356}, {"note": 75, "velocity": 94, "duration": 236}, {"note": 66, "velocity": 91, "duration": 956}, {"note": 75, "velocity": 101, "duration": 356}, {"note": 73, "velocity": 91, "duration": 356}, {"note": 71, "velocity": 89, "duration": 236}, {"note": 76, "velocity": 98, "duration": 356}, {"note": 76, "velocity": 96, "duration": 356}, {"note": 76, "velocity": 96, "duration": 236}, {"note": 78, "velocity": 99, "duration": 356}, {"note": 75, "velocity": 95, "duration": 356}, {"note": 75, "velocity": 101, "duration": 476}, {"note": 73, "velocity": 87, "duration": 716}, {"note": 75, "velocity": 103, "duration": 356}, {"note": 73, "velocity": 101, "duration": 356}, {"note": 75, "velocity": 93, "duration": 236}, {"note": 73, "velocity": 90, "duration": 836}, {"note": 71, "velocity": 99, "duration": 2040}, {"note": 0, "velocity": 0, "duration": 30720}, {"note": 75, "velocity": 101, "duration": 131}, {"note": 73, "velocity": 90, "duration": 356}, {"note": 71, "velocity": 86, "duration": 236}, {"note": 75, "velocity": 97, "duration": 716}, {"note": 75, "velocity": 108, "duration": 236}, {"note": 78, "velocity": 91, "duration": 356}, {"note": 75, "velocity": 99, "duration": 356}, {"note": 73, "velocity": 91, "duration": 236}, {"note": 75, "velocity": 105, "duration": 836}, {"note": 0, "velocity": 0, "duration": 124}, {"note": 75, "velocity": 93, "duration": 356}, {"note": 78, "velocity": 93, "duration": 356}, {"note": 75, "velocity": 84, "duration": 236}, {"note": 80, "velocity": 103, "duration": 356}, {"note": 80, "velocity": 98, "duration": 356}, {"note": 80, "velocity": 97, "duration": 236}, {"note": 78, "velocity": 106, "duration": 356}, {"note": 75, "velocity": 94, "duration": 236}, {"note": 0, "velocity": 0, "duration": 124}, {"note": 73, "velocity": 94, "duration": 236}, {"note": 75, "velocity": 103, "duration": 596}, {"note": 0, "velocity": 0, "duration": 124}, {"note": 68, "velocity": 84, "duration": 236}, {"note": 75, "velocity": 95, "duration": 356}, {"note": 73, "velocity": 93, "duration": 236}, {"note": 0, "velocity": 0, "duration": 124}, {"note": 75, "velocity": 98, "duration": 236}, {"note": 68, "velocity": 89, "duration": 716}, {"note": 68, "velocity": 72, "duration": 236}, {"note": 75, "velocity": 98, "duration": 356}, {"note": 73, "velocity": 90, "duration": 356}, {"note": 75, "velocity": 93, "duration": 236}, {"note": 66, "velocity": 84, "duration": 956}, {"note": 75, "velocity": 101, "duration": 356}, {"note": 73, "velocity": 97, "duration": 236}, {"note": 0, "velocity": 0, "duration": 124}, {"note": 71, "velocity": 96, "duration": 236}, {"note": 76, "velocity": 77, "duration": 356}, {"note": 76, "velocity": 99, "duration": 356}, {"note": 76, "velocity": 95, "duration": 236}, {"note": 76, "velocity": 96, "duration": 356}, {"note": 78, "velocity": 97, "duration": 236}, {"note": 0, "velocity": 0, "duration": 124}, {"note": 75, "velocity": 94, "duration": 236}, {"note": 75, "velocity": 89, "duration": 236}, {"note": 73, "velocity": 89, "duration": 836}, {"note": 75, "velocity": 101, "duration": 356}, {"note": 73, "velocity": 99, "duration": 356}, {"note": 71, "velocity": 96, "duration": 236}, {"note": 75, "velocity": 103, "duration": 956}, {"note": 78, "velocity": 92, "duration": 356}, {"note": 78, "velocity": 100, "duration": 356}, {"note": 80, "velocity": 92, "duration": 236}, {"note": 75, "velocity": 99, "duration": 956}, {"note": 75, "velocity": 94, "duration": 356}, {"note": 78, "velocity": 96, "duration": 356}, {"note": 75, "velocity": 87, "duration": 236}, {"note": 80, "velocity": 105, "duration": 356}, {"note": 80, "velocity": 97, "duration": 356}, {"note": 80, "velocity": 98, "duration": 236}, {"note": 78, "velocity": 96, "duration": 356}, {"note": 75, "velocity": 93, "duration": 356}, {"note": 73, "velocity": 90, "duration": 236}, {"note": 75, "velocity": 100, "duration": 956}, {"note": 75, "velocity": 106, "duration": 236}, {"note": 0, "velocity": 0, "duration": 124}, {"note": 73, "velocity": 101, "duration": 236}, {"note": 0, "velocity": 0, "duration": 124}, {"note": 75, "velocity": 97, "duration": 236}, {"note": 68, "velocity": 94, "duration": 956}, {"note": 75, "velocity": 105, "duration": 236}, {"note": 0, "velocity": 0, "duration": 124}, {"note": 73, "velocity": 97, "duration": 356}, {"note": 75, "velocity": 94, "duration": 356}, {"note": 66, "velocity": 91, "duration": 956}, {"note": 75, "velocity": 101, "duration": 356}, {"note": 73, "velocity": 91, "duration": 356}, {"note": 71, "velocity": 89, "duration": 236}, {"note": 76, "velocity": 98, "duration": 356}, {"note": 76, "velocity": 96, "duration": 356}, {"note": 76, "velocity": 96, "duration": 236}, {"note": 78, "velocity": 99, "duration": 476}, {"note": 75, "velocity": 95, "duration": 356}, {"note": 75, "velocity": 101, "duration": 356}, {"note": 73, "velocity": 87, "duration": 716}, {"note": 75, "velocity": 103, "duration": 356}, {"note": 73, "velocity": 101, "duration": 356}, {"note": 75, "velocity": 93, "duration": 356}, {"note": 73, "velocity": 90, "duration": 716}, {"note": 71, "velocity": 99, "duration": 3053}]]