[[{"note": 64, "velocity": 54, "duration": 476}, {"note": 69, "velocity": 56, "duration": 476}, {"note": 66, "velocity": 54, "duration": 236}, {"note": 64, "velocity": 61, "duration": 236}, {"note": 64, "velocity": 64, "duration": 716}, {"note": 69, "velocity": 87, "duration": 236}, {"note": 66, "velocity": 77, "duration": 236}, {"note": 64, "velocity": 60, "duration": 236}, {"note": 64, "velocity": 85, "duration": 956}, {"note": 57, "velocity": 92, "duration": 236}, {"note": 59, "velocity": 87, "duration": 236}, {"note": 61, "velocity": 87, "duration": 236}, {"note": 59, "velocity": 74, "duration": 236}, {"note": 64, "velocity": 77, "duration": 716}, {"note": 59, "velocity": 87, "duration": 716}, {"note": 57, "velocity": 81, "duration": 5276}, {"note": 69, "velocity": 97, "duration": 476}, {"note": 69, "velocity": 97, "duration": 476}, {"note": 66, "velocity": 77, "duration": 236}, {"note": 64, "velocity": 66, "duration": 236}, {"note": 69, "velocity": 93, "duration": 476}, {"note": 69, "velocity": 91, "duration": 356}, {"note": 0, "velocity": 0, "duration": 124}, {"note": 71, "velocity": 66, "duration": 596}, {"note": 69, "velocity": 93, "duration": 956}, {"note": 61, "velocity": 73, "duration": 236}, {"note": 64, "velocity": 65, "duration": 236}, {"note": 69, "velocity": 62, "duration": 476}, {"note": 64, "velocity": 65, "duration": 716}, {"note": 59, "velocity": 84, "duration": 236}, {"note": 59, "velocity": 75, "duration": 236}, {"note": 61, "velocity": 67, "duration": 236}, {"note": 64, "velocity": 93, "duration": 476}, {"note": 66, "velocity": 64, "duration": 236}, {"note": 64, "velocity": 96, "duration": 4076}, {"note": 61, "velocity": 100, "duration": 476}, {"note": 61, "velocity": 96, "duration": 716}, {"note": 61, "velocity": 97, "duration": 236}, {"note": 59, "velocity": 85, "duration": 236}, {"note": 57, "velocity": 87, "duration": 236}, {"note": 56, "velocity": 90, "duration": 476}, {"note": 57, "velocity": 66, "duration": 236}, {"note": 59, "velocity": 95, "duration": 716}, {"note": 64, "velocity": 92, "duration": 236}, {"note": 69, "velocity": 81, "duration": 236}, {"note": 69, "velocity": 62, "duration": 476}, {"note": 64, "velocity": 67, "duration": 476}, {"note": 64, "velocity": 91, "duration": 716}, {"note": 61, "velocity": 52, "duration": 236}, {"note": 61, "velocity": 61, "duration": 2396}, {"note": 69, "velocity": 87, "duration": 476}, {"note": 69, "velocity": 79, "duration": 476}, {"note": 73, "velocity": 90, "duration": 476}, {"note": 71, "velocity": 73, "duration": 236}, {"note": 71, "velocity": 66, "duration": 356}, {"note": 0, "velocity": 0, "duration": 124}, {"note": 69, "velocity": 69, "duration": 356}, {"note": 69, "velocity": 73, "duration": 116}, {"note": 0, "velocity": 0, "duration": 124}, {"note": 68, "velocity": 73, "duration": 236}, {"note": 69, "velocity": 65, "duration": 956}, {"note": 64, "velocity": 77, "duration": 476}, {"note": 69, "velocity": 90, "duration": 236}, {"note": 66, "velocity": 79, "duration": 356}, {"note": 0, "velocity": 0, "duration": 124}, {"note": 64, "velocity": 62, "duration": 356}, {"note": 64, "velocity": 87, "duration": 116}, {"note": 0, "velocity": 0, "duration": 844}, {"note": 57, "velocity": 85, "duration": 236}, {"note": 59, "velocity": 82, "duration": 356}, {"note": 61, "velocity": 90, "duration": 236}, {"note": 0, "velocity": 0, "duration": 244}, {"note": 59, "velocity": 94, "duration": 4316}, {"note": 66, "velocity": 103, "duration": 476}, {"note": 66, "velocity": 99, "duration": 476}, {"note": 66, "velocity": 95, "duration": 236}, {"note": 64, "velocity": 90, "duration": 236}, {"note": 69, "velocity": 96, "duration": 476}, {"note": 69, "velocity": 105, "duration": 476}, {"note": 69, "velocity": 111, "duration": 1436}, {"note": 66, "velocity": 101, "duration": 236}, {"note": 64, "velocity": 93, "duration": 236}, {"note": 66, "velocity": 97, "duration": 596}, {"note": 69, "velocity": 90, "duration": 716}, {"note": 61, "velocity": 95, "duration": 356}, {"note": 0, "velocity": 0, "duration": 124}, {"note": 64, "velocity": 98, "duration": 236}, {"note": 66, "velocity": 103, "duration": 236}, {"note": 64, "velocity": 103, "duration": 236}, {"note": 66, "velocity": 103, "duration": 956}, {"note": 0, "velocity": 0, "duration": 144}, {"note": 59, "velocity": 80, "duration": 476}, {"note": 61, "velocity": 83, "duration": 716}, {"note": 59, "velocity": 63, "duration": 236}, {"note": 64, "velocity": 85, "duration": 476}, {"note": 66, "velocity": 62, "duration": 236}, {"note": 64, "velocity": 68, "duration": 476}, {"note": 61, "velocity": 91, "duration": 356}, {"note": 0, "velocity": 0, "duration": 124}, {"note": 59, "velocity": 97, "duration": 236}, {"note": 64, "velocity": 97, "duration": 596}, {"note": 59, "velocity": 97, "duration": 356}, {"note": 57, "velocity": 64, "duration": 116}, {"note": 0, "velocity": 0, "duration": 124}, {"note": 57, "velocity": 80, "duration": 236}, {"note": 59, "velocity": 84, "duration": 236}, {"note": 61, "velocity": 82, "duration": 236}, {"note": 64, "velocity": 71, "duration": 236}, {"note": 59, "velocity": 64, "duration": 116}, {"note": 0, "velocity": 0, "duration": 124}, {"note": 57, "velocity": 66, "duration": 476}, {"note": 57, "velocity": 72, "duration": 236}, {"note": 56, "velocity": 72, "duration": 240}, {"note": 57, "velocity": 93, "duration": 476}, {"note": 0, "velocity": 0, "duration": 244}, {"note": 59, "velocity": 98, "duration": 236}, {"note": 57, "velocity": 96, "duration": 3836}, {"note": 69, "velocity": 92, "duration": 1436}, {"note": 71, "velocity": 93, "duration": 236}, {"note": 69, "velocity": 84, "duration": 236}, {"note": 73, "velocity": 93, "duration": 716}, {"note": 73, "velocity": 91, "duration": 836}, {"note": 0, "velocity": 0, "duration": 124}, {"note": 71, "velocity": 90, "duration": 236}, {"note": 69, "velocity": 80, "duration": 476}, {"note": 71, "velocity": 82, "duration": 236}, {"note": 69, "velocity": 90, "duration": 476}, {"note": 66, "velocity": 62, "duration": 356}, {"note": 0, "velocity": 0, "duration": 124}, {"note": 64, "velocity": 64, "duration": 2396}, {"note": 69, "velocity": 101, "duration": 1436}, {"note": 71, "velocity": 99, "duration": 236}, {"note": 69, "velocity": 90, "duration": 236}, {"note": 73, "velocity": 95, "duration": 716}, {"note": 73, "velocity": 91, "duration": 956}, {"note": 71, "velocity": 74, "duration": 236}, {"note": 69, "velocity": 84, "duration": 476}, {"note": 71, "velocity": 72, "duration": 236}, {"note": 69, "velocity": 90, "duration": 476}, {"note": 66, "velocity": 66, "duration": 236}, {"note": 64, "velocity": 84, "duration": 2396}, {"note": 61, "velocity": 97, "duration": 236}, {"note": 61, "velocity": 94, "duration": 476}, {"note": 59, "velocity": 90, "duration": 236}, {"note": 61, "velocity": 94, "duration": 476}, {"note": 61, "velocity": 94, "duration": 236}, {"note": 64, "velocity": 93, "duration": 236}, {"note": 66, "velocity": 98, "duration": 476}, {"note": 69, "velocity": 91, "duration": 476}, {"note": 61, "velocity": 91, "duration": 116}, {"note": 64, "velocity": 91, "duration": 836}, {"note": 57, "velocity": 90, "duration": 236}, {"note": 57, "velocity": 75, "duration": 476}, {"note": 59, "velocity": 87, "duration": 236}, {"note": 61, "velocity": 87, "duration": 476}, {"note": 64, "velocity": 87, "duration": 476}, {"note": 69, "velocity": 84, "duration": 476}, {"note": 66, "velocity": 92, "duration": 236}, {"note": 64, "velocity": 68, "duration": 236}, {"note": 66, "velocity": 96, "duration": 1436}, {"note": 64, "velocity": 97, "duration": 476}, {"note": 64, "velocity": 97, "duration": 476}, {"note": 64, "velocity": 91, "duration": 236}, {"note": 64, "velocity": 95, "duration": 1196}, {"note": 66, "velocity": 103, "duration": 476}, {"note": 69, "velocity": 105, "duration": 236}, {"note": 69, "velocity": 109, "duration": 1076}, {"note": 0, "velocity": 0, "duration": 124}, {"note": 69, "velocity": 96, "duration": 236}, {"note": 69, "velocity": 95, "duration": 236}, {"note": 69, "velocity": 92, "duration": 236}, {"note": 71, "velocity": 90, "duration": 236}, {"note": 73, "velocity": 99, "duration": 476}, {"note": 73, "velocity": 105, "duration": 476}, {"note": 71, "velocity": 95, "duration": 236}, {"note": 69, "velocity": 94, "duration": 716}, {"note": 69, "velocity": 98, "duration": 716}, {"note": 61, "velocity": 100, "duration": 3116}, {"note": 66, "velocity": 108, "duration": 356}, {"note": 66, "velocity": 97, "duration": 356}, {"note": 64, "velocity": 101, "duration": 236}, {"note": 69, "velocity": 94, "duration": 476}, {"note": 66, "velocity": 100, "duration": 236}, {"note": 64, "velocity": 100, "duration": 236}, {"note": 61, "velocity": 79, "duration": 356}, {"note": 64, "velocity": 75, "duration": 356}, {"note": 66, "velocity": 96, "duration": 236}, {"note": 64, "velocity": 95, "duration": 2636}, {"note": 64, "velocity": 91, "duration": 236}, {"note": 71, "velocity": 101, "duration": 476}, {"note": 71, "velocity": 103, "duration": 956}, {"note": 64, "velocity": 87, "duration": 476}, {"note": 73, "velocity": 97, "duration": 476}, {"note": 73, "velocity": 101, "duration": 1436}, {"note": 71, "velocity": 99, "duration": 236}, {"note": 69, "velocity": 87, "duration": 236}, {"note": 66, "velocity": 77, "duration": 236}, {"note": 64, "velocity": 62, "duration": 476}, {"note": 69, "velocity": 83, "duration": 476}, {"note": 71, "velocity": 96, "duration": 236}, {"note": 69, "velocity": 103, "duration": 11996}, {"note": 64, "velocity": 54, "duration": 476}, {"note": 69, "velocity": 56, "duration": 476}, {"note": 66, "velocity": 54, "duration": 236}, {"note": 64, "velocity": 61, "duration": 236}, {"note": 64, "velocity": 64, "duration": 716}, {"note": 69, "velocity": 87, "duration": 236}, {"note": 66, "velocity": 77, "duration": 236}, {"note": 64, "velocity": 60, "duration": 236}, {"note": 64, "velocity": 85, "duration": 956}, {"note": 57, "velocity": 92, "duration": 236}, {"note": 59, "velocity": 87, "duration": 236}, {"note": 61, "velocity": 87, "duration": 236}, {"note": 59, "velocity": 74, "duration": 236}, {"note": 64, "velocity": 77, "duration": 716}, {"note": 59, "velocity": 87, "duration": 476}, {"note": 57, "velocity": 87, "duration": 236}, {"note": 57, "velocity": 81, "duration": 5276}, {"note": 69, "velocity": 97, "duration": 476}, {"note": 69, "velocity": 97, "duration": 476}, {"note": 66, "velocity": 77, "duration": 236}, {"note": 64, "velocity": 66, "duration": 236}, {"note": 69, "velocity": 93, "duration": 476}, {"note": 69, "velocity": 91, "duration": 476}, {"note": 71, "velocity": 66, "duration": 476}, {"note": 69, "velocity": 93, "duration": 836}, {"note": 0, "velocity": 0, "duration": 124}, {"note": 61, "velocity": 73, "duration": 236}, {"note": 64, "velocity": 65, "duration": 236}, {"note": 69, "velocity": 62, "duration": 476}, {"note": 64, "velocity": 65, "duration": 836}, {"note": 59, "velocity": 84, "duration": 236}, {"note": 59, "velocity": 75, "duration": 236}, {"note": 61, "velocity": 67, "duration": 236}, {"note": 64, "velocity": 93, "duration": 356}, {"note": 0, "velocity": 0, "duration": 124}, {"note": 66, "velocity": 64, "duration": 236}, {"note": 64, "velocity": 96, "duration": 4076}, {"note": 61, "velocity": 100, "duration": 476}, {"note": 61, "velocity": 96, "duration": 716}, {"note": 61, "velocity": 97, "duration": 236}, {"note": 59, "velocity": 85, "duration": 236}, {"note": 57, "velocity": 87, "duration": 236}, {"note": 56, "velocity": 90, "duration": 596}, {"note": 57, "velocity": 66, "duration": 236}, {"note": 59, "velocity": 95, "duration": 716}, {"note": 64, "velocity": 92, "duration": 116}, {"note": 0, "velocity": 0, "duration": 124}, {"note": 69, "velocity": 81, "duration": 236}, {"note": 69, "velocity": 62, "duration": 476}, {"note": 64, "velocity": 67, "duration": 476}, {"note": 64, "velocity": 91, "duration": 716}, {"note": 61, "velocity": 52, "duration": 356}, {"note": 61, "velocity": 61, "duration": 2396}, {"note": 69, "velocity": 87, "duration": 476}, {"note": 69, "velocity": 79, "duration": 476}, {"note": 73, "velocity": 90, "duration": 476}, {"note": 71, "velocity": 73, "duration": 236}, {"note": 71, "velocity": 66, "duration": 356}, {"note": 71, "velocity": 69, "duration": 356}, {"note": 69, "velocity": 73, "duration": 116}, {"note": 0, "velocity": 0, "duration": 124}, {"note": 68, "velocity": 73, "duration": 240}, {"note": 69, "velocity": 65, "duration": 836}, {"note": 0, "velocity": 0, "duration": 124}, {"note": 64, "velocity": 77, "duration": 476}, {"note": 69, "velocity": 90, "duration": 236}, {"note": 69, "velocity": 79, "duration": 476}, {"note": 64, "velocity": 62, "duration": 236}, {"note": 64, "velocity": 87, "duration": 956}, {"note": 57, "velocity": 79, "duration": 476}, {"note": 59, "velocity": 82, "duration": 476}, {"note": 0, "velocity": 0, "duration": 244}, {"note": 61, "velocity": 90, "duration": 236}, {"note": 59, "velocity": 94, "duration": 4316}, {"note": 66, "velocity": 103, "duration": 476}, {"note": 66, "velocity": 99, "duration": 476}, {"note": 64, "velocity": 95, "duration": 476}, {"note": 69, "velocity": 96, "duration": 476}, {"note": 69, "velocity": 105, "duration": 476}, {"note": 69, "velocity": 111, "duration": 236}, {"note": 69, "velocity": 111, "duration": 1196}, {"note": 66, "velocity": 101, "duration": 236}, {"note": 64, "velocity": 93, "duration": 236}, {"note": 66, "velocity": 97, "duration": 476}, {"note": 69, "velocity": 90, "duration": 836}, {"note": 61, "velocity": 95, "duration": 356}, {"note": 64, "velocity": 98, "duration": 236}, {"note": 66, "velocity": 103, "duration": 236}, {"note": 64, "velocity": 103, "duration": 236}, {"note": 66, "velocity": 103, "duration": 956}, {"note": 59, "velocity": 80, "duration": 476}, {"note": 61, "velocity": 83, "duration": 240}, {"note": 61, "velocity": 83, "duration": 240}, {"note": 0, "velocity": 0, "duration": 240}, {"note": 59, "velocity": 63, "duration": 236}, {"note": 64, "velocity": 85, "duration": 476}, {"note": 66, "velocity": 62, "duration": 236}, {"note": 64, "velocity": 68, "duration": 356}, {"note": 0, "velocity": 0, "duration": 124}, {"note": 61, "velocity": 91, "duration": 476}, {"note": 59, "velocity": 97, "duration": 236}, {"note": 64, "velocity": 97, "duration": 596}, {"note": 59, "velocity": 97, "duration": 356}, {"note": 57, "velocity": 64, "duration": 116}, {"note": 0, "velocity": 0, "duration": 124}, {"note": 57, "velocity": 80, "duration": 236}, {"note": 59, "velocity": 84, "duration": 236}, {"note": 61, "velocity": 82, "duration": 236}, {"note": 64, "velocity": 71, "duration": 236}, {"note": 59, "velocity": 66, "duration": 356}, {"note": 56, "velocity": 72, "duration": 836}, {"note": 57, "velocity": 93, "duration": 476}, {"note": 59, "velocity": 98, "duration": 236}, {"note": 57, "velocity": 96, "duration": 3836}, {"note": 69, "velocity": 92, "duration": 1436}, {"note": 71, "velocity": 93, "duration": 236}, {"note": 69, "velocity": 84, "duration": 236}, {"note": 73, "velocity": 93, "duration": 716}, {"note": 73, "velocity": 91, "duration": 836}, {"note": 0, "velocity": 0, "duration": 124}, {"note": 71, "velocity": 90, "duration": 236}, {"note": 69, "velocity": 80, "duration": 476}, {"note": 71, "velocity": 82, "duration": 236}, {"note": 69, "velocity": 90, "duration": 476}, {"note": 66, "velocity": 62, "duration": 356}, {"note": 64, "velocity": 64, "duration": 2276}, {"note": 0, "velocity": 0, "duration": 124}, {"note": 69, "velocity": 101, "duration": 1436}, {"note": 71, "velocity": 99, "duration": 236}, {"note": 69, "velocity": 90, "duration": 236}, {"note": 73, "velocity": 95, "duration": 836}, {"note": 73, "velocity": 91, "duration": 116}, {"note": 0, "velocity": 0, "duration": 844}, {"note": 71, "velocity": 74, "duration": 236}, {"note": 69, "velocity": 84, "duration": 476}, {"note": 71, "velocity": 72, "duration": 236}, {"note": 69, "velocity": 90, "duration": 476}, {"note": 66, "velocity": 66, "duration": 236}, {"note": 64, "velocity": 84, "duration": 2396}, {"note": 61, "velocity": 97, "duration": 236}, {"note": 61, "velocity": 94, "duration": 476}, {"note": 59, "velocity": 90, "duration": 236}, {"note": 61, "velocity": 94, "duration": 476}, {"note": 61, "velocity": 94, "duration": 236}, {"note": 64, "velocity": 93, "duration": 236}, {"note": 66, "velocity": 98, "duration": 476}, {"note": 69, "velocity": 91, "duration": 476}, {"note": 61, "velocity": 91, "duration": 236}, {"note": 64, "velocity": 91, "duration": 716}, {"note": 57, "velocity": 90, "duration": 236}, {"note": 57, "velocity": 75, "duration": 476}, {"note": 59, "velocity": 87, "duration": 236}, {"note": 61, "velocity": 87, "duration": 476}, {"note": 64, "velocity": 87, "duration": 476}, {"note": 69, "velocity": 84, "duration": 236}, {"note": 66, "velocity": 84, "duration": 236}, {"note": 66, "velocity": 92, "duration": 236}, {"note": 64, "velocity": 68, "duration": 236}, {"note": 66, "velocity": 96, "duration": 1436}, {"note": 64, "velocity": 97, "duration": 476}, {"note": 64, "velocity": 97, "duration": 476}, {"note": 64, "velocity": 91, "duration": 236}, {"note": 64, "velocity": 95, "duration": 1196}, {"note": 66, "velocity": 103, "duration": 476}, {"note": 69, "velocity": 105, "duration": 236}, {"note": 69, "velocity": 109, "duration": 1196}, {"note": 69, "velocity": 96, "duration": 236}, {"note": 69, "velocity": 95, "duration": 236}, {"note": 69, "velocity": 92, "duration": 236}, {"note": 71, "velocity": 90, "duration": 236}, {"note": 73, "velocity": 99, "duration": 476}, {"note": 73, "velocity": 105, "duration": 476}, {"note": 71, "velocity": 95, "duration": 236}, {"note": 69, "velocity": 94, "duration": 716}, {"note": 69, "velocity": 98, "duration": 716}, {"note": 61, "velocity": 100, "duration": 3116}, {"note": 66, "velocity": 108, "duration": 236}, {"note": 66, "velocity": 97, "duration": 476}, {"note": 64, "velocity": 101, "duration": 236}, {"note": 69, "velocity": 94, "duration": 476}, {"note": 61, "velocity": 100, "duration": 836}, {"note": 64, "velocity": 75, "duration": 356}, {"note": 0, "velocity": 0, "duration": 124}, {"note": 66, "velocity": 96, "duration": 236}, {"note": 64, "velocity": 95, "duration": 2636}, {"note": 64, "velocity": 91, "duration": 236}, {"note": 71, "velocity": 101, "duration": 476}, {"note": 71, "velocity": 103, "duration": 956}, {"note": 64, "velocity": 87, "duration": 476}, {"note": 73, "velocity": 97, "duration": 476}, {"note": 76, "velocity": 101, "duration": 2876}, {"note": 73, "velocity": 66, "duration": 356}, {"note": 71, "velocity": 57, "duration": 116}, {"note": 69, "velocity": 55, "duration": 236}, {"note": 66, "velocity": 59, "duration": 236}, {"note": 64, "velocity": 61, "duration": 716}, {"note": 69, "velocity": 51, "duration": 356}, {"note": 71, "velocity": 63, "duration": 356}, {"note": 69, "velocity": 63, "duration": 7227}]]