[[{"note": 72, "velocity": 48, "duration": 479}, {"note": 72, "velocity": 53, "duration": 486}, {"note": 74, "velocity": 61, "duration": 480}, {"note": 72, "velocity": 60, "duration": 1920}, {"note": 77, "velocity": 69, "duration": 475}, {"note": 76, "velocity": 65, "duration": 413}, {"note": 74, "velocity": 59, "duration": 480}, {"note": 72, "velocity": 56, "duration": 2880}, {"note": 69, "velocity": 72, "duration": 479}, {"note": 69, "velocity": 81, "duration": 480}, {"note": 67, "velocity": 65, "duration": 507}, {"note": 69, "velocity": 72, "duration": 942}, {"note": 74, "velocity": 82, "duration": 611}, {"note": 69, "velocity": 64, "duration": 500}, {"note": 67, "velocity": 51, "duration": 533}, {"note": 69, "velocity": 52, "duration": 132}, {"note": 70, "velocity": 89, "duration": 479}, {"note": 70, "velocity": 84, "duration": 235}, {"note": 69, "velocity": 79, "duration": 455}, {"note": 72, "velocity": 87, "duration": 507}, {"note": 70, "velocity": 75, "duration": 1920}, {"note": 81, "velocity": 92, "duration": 479}, {"note": 81, "velocity": 91, "duration": 481}, {"note": 79, "velocity": 89, "duration": 479}, {"note": 79, "velocity": 82, "duration": 488}, {"note": 77, "velocity": 79, "duration": 1440}, {"note": 81, "velocity": 105, "duration": 480}, {"note": 74, "velocity": 93, "duration": 118}, {"note": 74, "velocity": 76, "duration": 480}, {"note": 77, "velocity": 82, "duration": 423}, {"note": 79, "velocity": 84, "duration": 360}, {"note": 74, "velocity": 89, "duration": 776}, {"note": 72, "velocity": 73, "duration": 3719}, {"note": 72, "velocity": 87, "duration": 273}, {"note": 72, "velocity": 85, "duration": 480}, {"note": 74, "velocity": 91, "duration": 480}, {"note": 72, "velocity": 87, "duration": 119}, {"note": 77, "velocity": 93, "duration": 498}, {"note": 76, "velocity": 96, "duration": 486}, {"note": 74, "velocity": 90, "duration": 480}, {"note": 72, "velocity": 94, "duration": 480}, {"note": 69, "velocity": 92, "duration": 479}, {"note": 69, "velocity": 94, "duration": 480}, {"note": 67, "velocity": 89, "duration": 480}, {"note": 69, "velocity": 98, "duration": 59}, {"note": 74, "velocity": 97, "duration": 887}, {"note": 69, "velocity": 93, "duration": 243}, {"note": 67, "velocity": 82, "duration": 493}, {"note": 69, "velocity": 90, "duration": 1713}, {"note": 70, "velocity": 95, "duration": 479}, {"note": 70, "velocity": 95, "duration": 480}, {"note": 69, "velocity": 94, "duration": 262}, {"note": 72, "velocity": 97, "duration": 600}, {"note": 70, "velocity": 95, "duration": 2040}, {"note": 81, "velocity": 100, "duration": 479}, {"note": 81, "velocity": 105, "duration": 484}, {"note": 79, "velocity": 91, "duration": 359}, {"note": 79, "velocity": 91, "duration": 519}, {"note": 77, "velocity": 101, "duration": 58}, {"note": 81, "velocity": 106, "duration": 480}, {"note": 74, "velocity": 103, "duration": 239}, {"note": 74, "velocity": 97, "duration": 240}, {"note": 81, "velocity": 100, "duration": 517}, {"note": 79, "velocity": 93, "duration": 266}, {"note": 77, "velocity": 92, "duration": 244}, {"note": 81, "velocity": 106, "duration": 600}, {"note": 79, "velocity": 96, "duration": 2760}, {"note": 72, "velocity": 98, "duration": 480}, {"note": 81, "velocity": 103, "duration": 2400}, {"note": 82, "velocity": 105, "duration": 480}, {"note": 81, "velocity": 100, "duration": 480}, {"note": 72, "velocity": 91, "duration": 480}, {"note": 79, "velocity": 100, "duration": 479}, {"note": 79, "velocity": 93, "duration": 479}, {"note": 79, "velocity": 98, "duration": 480}, {"note": 81, "velocity": 93, "duration": 506}, {"note": 79, "velocity": 100, "duration": 506}, {"note": 74, "velocity": 89, "duration": 1199}, {"note": 74, "velocity": 66, "duration": 242}, {"note": 82, "velocity": 99, "duration": 479}, {"note": 82, "velocity": 103, "duration": 479}, {"note": 82, "velocity": 104, "duration": 1440}, {"note": 86, "velocity": 103, "duration": 480}, {"note": 84, "velocity": 99, "duration": 480}, {"note": 82, "velocity": 99, "duration": 479}, {"note": 82, "velocity": 100, "duration": 480}, {"note": 81, "velocity": 98, "duration": 479}, {"note": 81, "velocity": 105, "duration": 480}, {"note": 79, "velocity": 99, "duration": 240}, {"note": 81, "velocity": 100, "duration": 59}, {"note": 77, "velocity": 98, "duration": 258}, {"note": 84, "velocity": 109, "duration": 479}, {"note": 84, "velocity": 109, "duration": 1440}, {"note": 81, "velocity": 91, "duration": 240}, {"note": 82, "velocity": 87, "duration": 240}, {"note": 84, "velocity": 93, "duration": 479}, {"note": 84, "velocity": 97, "duration": 257}, {"note": 82, "velocity": 91, "duration": 240}, {"note": 81, "velocity": 87, "duration": 480}, {"note": 82, "velocity": 103, "duration": 479}, {"note": 82, "velocity": 89, "duration": 479}, {"note": 82, "velocity": 95, "duration": 480}, {"note": 74, "velocity": 89, "duration": 480}, {"note": 77, "velocity": 91, "duration": 1680}, {"note": 72, "velocity": 65, "duration": 258}, {"note": 81, "velocity": 96, "duration": 499}, {"note": 79, "velocity": 87, "duration": 360}, {"note": 77, "velocity": 91, "duration": 286}, {"note": 81, "velocity": 100, "duration": 506}, {"note": 79, "velocity": 89, "duration": 360}, {"note": 77, "velocity": 91, "duration": 304}, {"note": 81, "velocity": 106, "duration": 960}, {"note": 86, "velocity": 109, "duration": 546}, {"note": 81, "velocity": 94, "duration": 613}, {"note": 79, "velocity": 87, "duration": 520}, {"note": 77, "velocity": 82, "duration": 560}, {"note": 79, "velocity": 100, "duration": 2280}, {"note": 72, "velocity": 101, "duration": 480}, {"note": 81, "velocity": 105, "duration": 2400}, {"note": 82, "velocity": 100, "duration": 480}, {"note": 81, "velocity": 93, "duration": 480}, {"note": 72, "velocity": 84, "duration": 480}, {"note": 79, "velocity": 103, "duration": 479}, {"note": 79, "velocity": 100, "duration": 479}, {"note": 79, "velocity": 99, "duration": 480}, {"note": 81, "velocity": 96, "duration": 480}, {"note": 79, "velocity": 96, "duration": 480}, {"note": 81, "velocity": 75, "duration": 240}, {"note": 79, "velocity": 71, "duration": 290}, {"note": 77, "velocity": 89, "duration": 913}, {"note": 74, "velocity": 91, "duration": 256}, {"note": 82, "velocity": 96, "duration": 479}, {"note": 82, "velocity": 100, "duration": 239}, {"note": 82, "velocity": 104, "duration": 1680}, {"note": 86, "velocity": 105, "duration": 480}, {"note": 84, "velocity": 105, "duration": 480}, {"note": 82, "velocity": 95, "duration": 479}, {"note": 82, "velocity": 103, "duration": 480}, {"note": 81, "velocity": 96, "duration": 479}, {"note": 81, "velocity": 99, "duration": 480}, {"note": 79, "velocity": 97, "duration": 251}, {"note": 81, "velocity": 100, "duration": 1920}, {"note": 77, "velocity": 90, "duration": 240}, {"note": 84, "velocity": 106, "duration": 479}, {"note": 84, "velocity": 108, "duration": 239}, {"note": 84, "velocity": 108, "duration": 1200}, {"note": 81, "velocity": 93, "duration": 281}, {"note": 82, "velocity": 89, "duration": 252}, {"note": 84, "velocity": 89, "duration": 239}, {"note": 84, "velocity": 91, "duration": 480}, {"note": 82, "velocity": 95, "duration": 480}, {"note": 81, "velocity": 87, "duration": 283}, {"note": 82, "velocity": 96, "duration": 479}, {"note": 82, "velocity": 77, "duration": 479}, {"note": 82, "velocity": 77, "duration": 480}, {"note": 74, "velocity": 53, "duration": 480}, {"note": 77, "velocity": 83, "duration": 1440}, {"note": 72, "velocity": 65, "duration": 480}, {"note": 81, "velocity": 92, "duration": 351}, {"note": 79, "velocity": 72, "duration": 300}, {"note": 77, "velocity": 73, "duration": 360}, {"note": 81, "velocity": 98, "duration": 506}, {"note": 79, "velocity": 84, "duration": 360}, {"note": 77, "velocity": 66, "duration": 287}, {"note": 79, "velocity": 72, "duration": 920}, {"note": 79, "velocity": 98, "duration": 200}, {"note": 0, "velocity": 0, "duration": 280}, {"note": 77, "velocity": 98, "duration": 480}, {"note": 76, "velocity": 79, "duration": 488}, {"note": 77, "velocity": 97, "duration": 228}, {"note": 72, "velocity": 48, "duration": 479}, {"note": 72, "velocity": 53, "duration": 484}, {"note": 74, "velocity": 61, "duration": 480}, {"note": 72, "velocity": 60, "duration": 1543}, {"note": 77, "velocity": 69, "duration": 363}, {"note": 76, "velocity": 65, "duration": 407}, {"note": 74, "velocity": 59, "duration": 600}, {"note": 72, "velocity": 56, "duration": 3120}, {"note": 69, "velocity": 72, "duration": 479}, {"note": 69, "velocity": 81, "duration": 372}, {"note": 67, "velocity": 65, "duration": 621}, {"note": 69, "velocity": 72, "duration": 1253}, {"note": 74, "velocity": 82, "duration": 640}, {"note": 69, "velocity": 64, "duration": 256}, {"note": 67, "velocity": 51, "duration": 603}, {"note": 69, "velocity": 52, "duration": 3120}, {"note": 70, "velocity": 89, "duration": 479}, {"note": 70, "velocity": 84, "duration": 25}, {"note": 69, "velocity": 79, "duration": 422}, {"note": 72, "velocity": 87, "duration": 507}, {"note": 70, "velocity": 75, "duration": 1920}, {"note": 81, "velocity": 92, "duration": 479}, {"note": 81, "velocity": 91, "duration": 482}, {"note": 79, "velocity": 89, "duration": 479}, {"note": 79, "velocity": 82, "duration": 488}, {"note": 77, "velocity": 79, "duration": 1440}, {"note": 81, "velocity": 105, "duration": 480}, {"note": 74, "velocity": 93, "duration": 2159}, {"note": 74, "velocity": 76, "duration": 248}, {"note": 81, "velocity": 82, "duration": 480}, {"note": 79, "velocity": 84, "duration": 300}, {"note": 77, "velocity": 89, "duration": 240}, {"note": 81, "velocity": 89, "duration": 736}, {"note": 79, "velocity": 73, "duration": 2640}, {"note": 72, "velocity": 98, "duration": 480}, {"note": 81, "velocity": 103, "duration": 2400}, {"note": 82, "velocity": 105, "duration": 480}, {"note": 81, "velocity": 100, "duration": 480}, {"note": 72, "velocity": 91, "duration": 480}, {"note": 79, "velocity": 100, "duration": 479}, {"note": 79, "velocity": 93, "duration": 479}, {"note": 79, "velocity": 98, "duration": 480}, {"note": 81, "velocity": 93, "duration": 480}, {"note": 79, "velocity": 100, "duration": 480}, {"note": 74, "velocity": 89, "duration": 1199}, {"note": 74, "velocity": 66, "duration": 242}, {"note": 82, "velocity": 99, "duration": 479}, {"note": 82, "velocity": 103, "duration": 479}, {"note": 82, "velocity": 104, "duration": 1440}, {"note": 86, "velocity": 103, "duration": 480}, {"note": 84, "velocity": 99, "duration": 480}, {"note": 82, "velocity": 99, "duration": 479}, {"note": 82, "velocity": 100, "duration": 480}, {"note": 81, "velocity": 98, "duration": 479}, {"note": 81, "velocity": 105, "duration": 480}, {"note": 79, "velocity": 99, "duration": 755}, {"note": 81, "velocity": 100, "duration": 1680}, {"note": 77, "velocity": 98, "duration": 258}, {"note": 84, "velocity": 109, "duration": 479}, {"note": 84, "velocity": 109, "duration": 1440}, {"note": 81, "velocity": 91, "duration": 240}, {"note": 82, "velocity": 87, "duration": 240}, {"note": 84, "velocity": 93, "duration": 479}, {"note": 84, "velocity": 97, "duration": 257}, {"note": 82, "velocity": 91, "duration": 240}, {"note": 81, "velocity": 87, "duration": 480}, {"note": 82, "velocity": 103, "duration": 479}, {"note": 82, "velocity": 89, "duration": 479}, {"note": 82, "velocity": 95, "duration": 480}, {"note": 74, "velocity": 89, "duration": 480}, {"note": 77, "velocity": 91, "duration": 1560}, {"note": 72, "velocity": 65, "duration": 360}, {"note": 81, "velocity": 96, "duration": 360}, {"note": 79, "velocity": 87, "duration": 298}, {"note": 77, "velocity": 91, "duration": 286}, {"note": 0, "velocity": 0, "duration": 71}, {"note": 81, "velocity": 100, "duration": 506}, {"note": 79, "velocity": 89, "duration": 360}, {"note": 77, "velocity": 91, "duration": 305}, {"note": 81, "velocity": 106, "duration": 491}, {"note": 0, "velocity": 0, "duration": 353}, {"note": 86, "velocity": 109, "duration": 607}, {"note": 79, "velocity": 94, "duration": 479}, {"note": 79, "velocity": 87, "duration": 493}, {"note": 77, "velocity": 82, "duration": 490}, {"note": 79, "velocity": 100, "duration": 360}, {"note": 77, "velocity": 100, "duration": 240}, {"note": 79, "velocity": 100, "duration": 1800}, {"note": 72, "velocity": 91, "duration": 528}, {"note": 81, "velocity": 99, "duration": 371}, {"note": 79, "velocity": 76, "duration": 142}, {"note": 81, "velocity": 96, "duration": 720}, {"note": 79, "velocity": 84, "duration": 377}, {"note": 77, "velocity": 89, "duration": 960}, {"note": 82, "velocity": 100, "duration": 480}, {"note": 81, "velocity": 93, "duration": 480}, {"note": 72, "velocity": 84, "duration": 480}, {"note": 79, "velocity": 103, "duration": 479}, {"note": 79, "velocity": 100, "duration": 479}, {"note": 79, "velocity": 99, "duration": 480}, {"note": 81, "velocity": 96, "duration": 480}, {"note": 79, "velocity": 96, "duration": 402}, {"note": 81, "velocity": 75, "duration": 261}, {"note": 79, "velocity": 71, "duration": 240}, {"note": 77, "velocity": 89, "duration": 1017}, {"note": 74, "velocity": 91, "duration": 257}, {"note": 82, "velocity": 96, "duration": 479}, {"note": 82, "velocity": 100, "duration": 239}, {"note": 82, "velocity": 104, "duration": 1680}, {"note": 86, "velocity": 105, "duration": 480}, {"note": 84, "velocity": 105, "duration": 480}, {"note": 82, "velocity": 95, "duration": 479}, {"note": 82, "velocity": 103, "duration": 480}, {"note": 81, "velocity": 96, "duration": 479}, {"note": 81, "velocity": 99, "duration": 480}, {"note": 79, "velocity": 97, "duration": 250}, {"note": 81, "velocity": 100, "duration": 1920}, {"note": 77, "velocity": 90, "duration": 240}, {"note": 84, "velocity": 106, "duration": 479}, {"note": 84, "velocity": 108, "duration": 239}, {"note": 84, "velocity": 108, "duration": 1200}, {"note": 81, "velocity": 93, "duration": 281}, {"note": 82, "velocity": 89, "duration": 252}, {"note": 84, "velocity": 89, "duration": 239}, {"note": 84, "velocity": 91, "duration": 480}, {"note": 82, "velocity": 95, "duration": 480}, {"note": 81, "velocity": 87, "duration": 283}, {"note": 82, "velocity": 96, "duration": 479}, {"note": 82, "velocity": 77, "duration": 479}, {"note": 82, "velocity": 77, "duration": 480}, {"note": 74, "velocity": 53, "duration": 480}, {"note": 77, "velocity": 83, "duration": 1680}, {"note": 72, "velocity": 65, "duration": 240}, {"note": 81, "velocity": 92, "duration": 360}, {"note": 79, "velocity": 72, "duration": 360}, {"note": 77, "velocity": 73, "duration": 300}, {"note": 81, "velocity": 98, "duration": 505}, {"note": 79, "velocity": 84, "duration": 263}, {"note": 77, "velocity": 66, "duration": 287}, {"note": 79, "velocity": 72, "duration": 920}, {"note": 79, "velocity": 98, "duration": 200}, {"note": 0, "velocity": 0, "duration": 280}, {"note": 77, "velocity": 98, "duration": 480}, {"note": 76, "velocity": 79, "duration": 488}, {"note": 77, "velocity": 97, "duration": 5008}, {"note": 81, "velocity": 91, "duration": 1200}, {"note": 79, "velocity": 74, "duration": 364}, {"note": 77, "velocity": 79, "duration": 479}, {"note": 77, "velocity": 66, "duration": 1680}, {"note": 72, "velocity": 80, "duration": 263}, {"note": 81, "velocity": 89, "duration": 406}, {"note": 79, "velocity": 72, "duration": 373}, {"note": 77, "velocity": 80, "duration": 360}, {"note": 81, "velocity": 93, "duration": 413}, {"note": 79, "velocity": 73, "duration": 480}, {"note": 77, "velocity": 79, "duration": 360}, {"note": 79, "velocity": 89, "duration": 599}, {"note": 79, "velocity": 87, "duration": 720}, {"note": 77, "velocity": 92, "duration": 840}, {"note": 74, "velocity": 87, "duration": 303}, {"note": 72, "velocity": 54, "duration": 502}, {"note": 74, "velocity": 107, "duration": 3240}, {"note": 67, "velocity": 66, "duration": 491}, {"note": 69, "velocity": 91, "duration": 549}, {"note": 72, "velocity": 90, "duration": 480}, {"note": 81, "velocity": 97, "duration": 600}, {"note": 79, "velocity": 94, "duration": 2760}, {"note": 77, "velocity": 96, "duration": 479}, {"note": 77, "velocity": 98, "duration": 1200}, {"note": 76, "velocity": 94, "duration": 720}, {"note": 77, "velocity": 101, "duration": 5280}]]