[[{"note": 72, "velocity": 94, "duration": 236}, {"note": 69, "velocity": 66, "duration": 236}, {"note": 69, "velocity": 57, "duration": 236}, {"note": 67, "velocity": 48, "duration": 236}, {"note": 69, "velocity": 52, "duration": 236}, {"note": 67, "velocity": 63, "duration": 236}, {"note": 69, "velocity": 62, "duration": 236}, {"note": 72, "velocity": 63, "duration": 236}, {"note": 72, "velocity": 79, "duration": 236}, {"note": 69, "velocity": 65, "duration": 236}, {"note": 69, "velocity": 84, "duration": 236}, {"note": 67, "velocity": 59, "duration": 236}, {"note": 69, "velocity": 66, "duration": 236}, {"note": 67, "velocity": 64, "duration": 236}, {"note": 69, "velocity": 68, "duration": 236}, {"note": 72, "velocity": 76, "duration": 236}, {"note": 77, "velocity": 65, "duration": 236}, {"note": 74, "velocity": 71, "duration": 236}, {"note": 74, "velocity": 71, "duration": 236}, {"note": 72, "velocity": 61, "duration": 236}, {"note": 74, "velocity": 60, "duration": 236}, {"note": 72, "velocity": 59, "duration": 236}, {"note": 72, "velocity": 63, "duration": 476}, {"note": 65, "velocity": 59, "duration": 356}, {"note": 69, "velocity": 56, "duration": 836}, {"note": 65, "velocity": 83, "duration": 236}, {"note": 77, "velocity": 72, "duration": 236}, {"note": 74, "velocity": 91, "duration": 716}, {"note": 74, "velocity": 91, "duration": 236}, {"note": 74, "velocity": 82, "duration": 236}, {"note": 74, "velocity": 80, "duration": 236}, {"note": 74, "velocity": 84, "duration": 476}, {"note": 72, "velocity": 79, "duration": 236}, {"note": 74, "velocity": 91, "duration": 236}, {"note": 72, "velocity": 67, "duration": 236}, {"note": 69, "velocity": 66, "duration": 236}, {"note": 72, "velocity": 86, "duration": 476}, {"note": 65, "velocity": 90, "duration": 236}, {"note": 77, "velocity": 84, "duration": 236}, {"note": 74, "velocity": 90, "duration": 233}, {"note": 74, "velocity": 90, "duration": 236}, {"note": 74, "velocity": 87, "duration": 236}, {"note": 74, "velocity": 87, "duration": 236}, {"note": 72, "velocity": 65, "duration": 236}, {"note": 69, "velocity": 61, "duration": 236}, {"note": 72, "velocity": 86, "duration": 1436}, {"note": 65, "velocity": 66, "duration": 236}, {"note": 77, "velocity": 68, "duration": 236}, {"note": 74, "velocity": 84, "duration": 716}, {"note": 74, "velocity": 79, "duration": 236}, {"note": 72, "velocity": 59, "duration": 236}, {"note": 74, "velocity": 66, "duration": 236}, {"note": 72, "velocity": 65, "duration": 476}, {"note": 74, "velocity": 66, "duration": 236}, {"note": 76, "velocity": 79, "duration": 476}, {"note": 74, "velocity": 62, "duration": 236}, {"note": 76, "velocity": 93, "duration": 956}, {"note": 76, "velocity": 97, "duration": 236}, {"note": 77, "velocity": 91, "duration": 236}, {"note": 76, "velocity": 90, "duration": 236}, {"note": 74, "velocity": 90, "duration": 236}, {"note": 72, "velocity": 85, "duration": 236}, {"note": 72, "velocity": 90, "duration": 356}, {"note": 77, "velocity": 93, "duration": 356}, {"note": 79, "velocity": 95, "duration": 236}, {"note": 79, "velocity": 97, "duration": 5756}, {"note": 69, "velocity": 93, "duration": 476}, {"note": 72, "velocity": 95, "duration": 236}, {"note": 77, "velocity": 90, "duration": 716}, {"note": 79, "velocity": 95, "duration": 236}, {"note": 81, "velocity": 93, "duration": 227}, {"note": 72, "velocity": 93, "duration": 236}, {"note": 74, "velocity": 93, "duration": 476}, {"note": 74, "velocity": 99, "duration": 236}, {"note": 77, "velocity": 96, "duration": 236}, {"note": 76, "velocity": 96, "duration": 255}, {"note": 74, "velocity": 100, "duration": 236}, {"note": 72, "velocity": 97, "duration": 476}, {"note": 82, "velocity": 98, "duration": 17}, {"note": 81, "velocity": 99, "duration": 1436}, {"note": 81, "velocity": 66, "duration": 236}, {"note": 82, "velocity": 68, "duration": 236}, {"note": 81, "velocity": 84, "duration": 716}, {"note": 79, "velocity": 68, "duration": 236}, {"note": 77, "velocity": 62, "duration": 476}, {"note": 79, "velocity": 74, "duration": 716}, {"note": 76, "velocity": 93, "duration": 476}, {"note": 74, "velocity": 66, "duration": 131}, {"note": 72, "velocity": 91, "duration": 33}, {"note": 72, "velocity": 93, "duration": 3}, {"note": 74, "velocity": 93, "duration": 30}, {"note": 77, "velocity": 99, "duration": 37}, {"note": 77, "velocity": 87, "duration": 8}, {"note": 77, "velocity": 93, "duration": 294}, {"note": 81, "velocity": 98, "duration": 356}, {"note": 79, "velocity": 109, "duration": 12}, {"note": 69, "velocity": 90, "duration": 476}, {"note": 72, "velocity": 84, "duration": 236}, {"note": 77, "velocity": 94, "duration": 716}, {"note": 79, "velocity": 90, "duration": 236}, {"note": 81, "velocity": 90, "duration": 716}, {"note": 72, "velocity": 80, "duration": 236}, {"note": 74, "velocity": 87, "duration": 476}, {"note": 74, "velocity": 93, "duration": 236}, {"note": 77, "velocity": 99, "duration": 236}, {"note": 76, "velocity": 99, "duration": 716}, {"note": 74, "velocity": 85, "duration": 108}, {"note": 72, "velocity": 91, "duration": 175}, {"note": 82, "velocity": 97, "duration": 49}, {"note": 81, "velocity": 96, "duration": 269}, {"note": 81, "velocity": 93, "duration": 236}, {"note": 82, "velocity": 95, "duration": 236}, {"note": 81, "velocity": 94, "duration": 716}, {"note": 79, "velocity": 84, "duration": 236}, {"note": 77, "velocity": 87, "duration": 476}, {"note": 79, "velocity": 90, "duration": 716}, {"note": 76, "velocity": 100, "duration": 476}, {"note": 74, "velocity": 93, "duration": 236}, {"note": 72, "velocity": 96, "duration": 956}, {"note": 72, "velocity": 95, "duration": 236}, {"note": 74, "velocity": 98, "duration": 476}, {"note": 77, "velocity": 105, "duration": 236}, {"note": 77, "velocity": 105, "duration": 476}, {"note": 81, "velocity": 95, "duration": 476}, {"note": 79, "velocity": 105, "duration": 1196}, {"note": 72, "velocity": 98, "duration": 356}, {"note": 77, "velocity": 99, "duration": 192}, {"note": 76, "velocity": 97, "duration": 24}, {"note": 77, "velocity": 97, "duration": 10262}, {"note": 72, "velocity": 94, "duration": 236}, {"note": 69, "velocity": 66, "duration": 236}, {"note": 69, "velocity": 57, "duration": 236}, {"note": 67, "velocity": 48, "duration": 236}, {"note": 69, "velocity": 52, "duration": 236}, {"note": 67, "velocity": 63, "duration": 236}, {"note": 69, "velocity": 62, "duration": 236}, {"note": 72, "velocity": 63, "duration": 236}, {"note": 72, "velocity": 79, "duration": 236}, {"note": 69, "velocity": 65, "duration": 236}, {"note": 69, "velocity": 84, "duration": 236}, {"note": 67, "velocity": 59, "duration": 236}, {"note": 69, "velocity": 66, "duration": 236}, {"note": 67, "velocity": 64, "duration": 236}, {"note": 69, "velocity": 68, "duration": 236}, {"note": 72, "velocity": 76, "duration": 236}, {"note": 77, "velocity": 65, "duration": 236}, {"note": 74, "velocity": 71, "duration": 236}, {"note": 74, "velocity": 71, "duration": 236}, {"note": 72, "velocity": 61, "duration": 236}, {"note": 74, "velocity": 60, "duration": 236}, {"note": 72, "velocity": 59, "duration": 236}, {"note": 72, "velocity": 63, "duration": 476}, {"note": 65, "velocity": 59, "duration": 356}, {"note": 69, "velocity": 56, "duration": 836}, {"note": 65, "velocity": 83, "duration": 236}, {"note": 77, "velocity": 72, "duration": 236}, {"note": 74, "velocity": 91, "duration": 716}, {"note": 74, "velocity": 91, "duration": 236}, {"note": 74, "velocity": 82, "duration": 236}, {"note": 74, "velocity": 80, "duration": 236}, {"note": 74, "velocity": 84, "duration": 476}, {"note": 72, "velocity": 79, "duration": 236}, {"note": 74, "velocity": 91, "duration": 236}, {"note": 72, "velocity": 67, "duration": 236}, {"note": 69, "velocity": 66, "duration": 236}, {"note": 72, "velocity": 86, "duration": 476}, {"note": 65, "velocity": 90, "duration": 236}, {"note": 77, "velocity": 84, "duration": 236}, {"note": 74, "velocity": 90, "duration": 219}, {"note": 74, "velocity": 90, "duration": 236}, {"note": 74, "velocity": 87, "duration": 236}, {"note": 74, "velocity": 87, "duration": 236}, {"note": 72, "velocity": 65, "duration": 236}, {"note": 69, "velocity": 61, "duration": 236}, {"note": 72, "velocity": 86, "duration": 1436}, {"note": 65, "velocity": 66, "duration": 236}, {"note": 77, "velocity": 68, "duration": 236}, {"note": 74, "velocity": 84, "duration": 716}, {"note": 74, "velocity": 79, "duration": 236}, {"note": 72, "velocity": 59, "duration": 236}, {"note": 74, "velocity": 66, "duration": 236}, {"note": 72, "velocity": 65, "duration": 476}, {"note": 74, "velocity": 66, "duration": 236}, {"note": 76, "velocity": 79, "duration": 476}, {"note": 74, "velocity": 62, "duration": 236}, {"note": 76, "velocity": 93, "duration": 956}, {"note": 76, "velocity": 97, "duration": 236}, {"note": 77, "velocity": 91, "duration": 236}, {"note": 76, "velocity": 90, "duration": 236}, {"note": 74, "velocity": 90, "duration": 236}, {"note": 72, "velocity": 85, "duration": 236}, {"note": 72, "velocity": 90, "duration": 356}, {"note": 77, "velocity": 93, "duration": 356}, {"note": 79, "velocity": 95, "duration": 236}, {"note": 79, "velocity": 97, "duration": 3836}, {"note": 69, "velocity": 93, "duration": 476}, {"note": 72, "velocity": 95, "duration": 236}, {"note": 77, "velocity": 90, "duration": 716}, {"note": 79, "velocity": 95, "duration": 236}, {"note": 81, "velocity": 93, "duration": 166}, {"note": 72, "velocity": 93, "duration": 236}, {"note": 74, "velocity": 93, "duration": 476}, {"note": 74, "velocity": 99, "duration": 236}, {"note": 77, "velocity": 96, "duration": 236}, {"note": 76, "velocity": 96, "duration": 194}, {"note": 74, "velocity": 100, "duration": 236}, {"note": 72, "velocity": 97, "duration": 476}, {"note": 82, "velocity": 98, "duration": 196}, {"note": 81, "velocity": 99, "duration": 1196}, {"note": 81, "velocity": 66, "duration": 236}, {"note": 82, "velocity": 68, "duration": 236}, {"note": 81, "velocity": 84, "duration": 716}, {"note": 79, "velocity": 68, "duration": 236}, {"note": 77, "velocity": 62, "duration": 476}, {"note": 79, "velocity": 74, "duration": 716}, {"note": 76, "velocity": 93, "duration": 476}, {"note": 74, "velocity": 66, "duration": 70}, {"note": 72, "velocity": 91, "duration": 9}, {"note": 72, "velocity": 93, "duration": 0}, {"note": 74, "velocity": 93, "duration": 6}, {"note": 77, "velocity": 99, "duration": 14}, {"note": 77, "velocity": 87, "duration": 86}, {"note": 77, "velocity": 93, "duration": 353}, {"note": 81, "velocity": 98, "duration": 476}, {"note": 79, "velocity": 109, "duration": 488}, {"note": 69, "velocity": 90, "duration": 431}, {"note": 72, "velocity": 84, "duration": 236}, {"note": 77, "velocity": 94, "duration": 716}, {"note": 79, "velocity": 90, "duration": 236}, {"note": 81, "velocity": 90, "duration": 716}, {"note": 72, "velocity": 80, "duration": 236}, {"note": 74, "velocity": 87, "duration": 476}, {"note": 74, "velocity": 93, "duration": 236}, {"note": 77, "velocity": 99, "duration": 236}, {"note": 76, "velocity": 99, "duration": 716}, {"note": 74, "velocity": 85, "duration": 47}, {"note": 72, "velocity": 91, "duration": 114}, {"note": 82, "velocity": 97, "duration": 476}, {"note": 81, "velocity": 96, "duration": 208}, {"note": 81, "velocity": 93, "duration": 236}, {"note": 82, "velocity": 95, "duration": 236}, {"note": 81, "velocity": 94, "duration": 716}, {"note": 79, "velocity": 84, "duration": 236}, {"note": 77, "velocity": 87, "duration": 476}, {"note": 79, "velocity": 90, "duration": 716}, {"note": 76, "velocity": 100, "duration": 476}, {"note": 74, "velocity": 93, "duration": 236}, {"note": 72, "velocity": 96, "duration": 956}, {"note": 72, "velocity": 95, "duration": 236}, {"note": 74, "velocity": 98, "duration": 476}, {"note": 77, "velocity": 105, "duration": 236}, {"note": 77, "velocity": 105, "duration": 476}, {"note": 81, "velocity": 95, "duration": 476}, {"note": 79, "velocity": 105, "duration": 1196}, {"note": 72, "velocity": 98, "duration": 356}, {"note": 77, "velocity": 99, "duration": 251}, {"note": 76, "velocity": 97, "duration": 83}, {"note": 79, "velocity": 97, "duration": 165}, {"note": 77, "velocity": 97, "duration": 1201}, {"note": 74, "velocity": 97, "duration": 236}, {"note": 74, "velocity": 92, "duration": 236}, {"note": 74, "velocity": 97, "duration": 236}, {"note": 77, "velocity": 98, "duration": 716}, {"note": 76, "velocity": 101, "duration": 476}, {"note": 77, "velocity": 98, "duration": 236}, {"note": 76, "velocity": 95, "duration": 476}, {"note": 72, "velocity": 92, "duration": 476}, {"note": 72, "velocity": 84, "duration": 236}, {"note": 81, "velocity": 101, "duration": 356}, {"note": 81, "velocity": 105, "duration": 356}, {"note": 81, "velocity": 100, "duration": 236}, {"note": 84, "velocity": 95, "duration": 356}, {"note": 79, "velocity": 97, "duration": 356}, {"note": 81, "velocity": 97, "duration": 236}, {"note": 79, "velocity": 95, "duration": 356}, {"note": 77, "velocity": 99, "duration": 2036}, {"note": 74, "velocity": 98, "duration": 236}, {"note": 74, "velocity": 97, "duration": 236}, {"note": 74, "velocity": 97, "duration": 236}, {"note": 77, "velocity": 101, "duration": 716}, {"note": 76, "velocity": 106, "duration": 476}, {"note": 77, "velocity": 106, "duration": 236}, {"note": 76, "velocity": 98, "duration": 476}, {"note": 72, "velocity": 97, "duration": 476}, {"note": 72, "velocity": 73, "duration": 236}, {"note": 82, "velocity": 100, "duration": 356}, {"note": 81, "velocity": 87, "duration": 356}, {"note": 82, "velocity": 91, "duration": 236}, {"note": 81, "velocity": 93, "duration": 356}, {"note": 77, "velocity": 83, "duration": 356}, {"note": 77, "velocity": 101, "duration": 236}, {"note": 82, "velocity": 107, "duration": 356}, {"note": 81, "velocity": 99, "duration": 356}, {"note": 82, "velocity": 95, "duration": 236}, {"note": 81, "velocity": 99, "duration": 236}, {"note": 77, "velocity": 97, "duration": 716}, {"note": 69, "velocity": 93, "duration": 476}, {"note": 72, "velocity": 95, "duration": 236}, {"note": 77, "velocity": 90, "duration": 476}, {"note": 79, "velocity": 95, "duration": 476}, {"note": 81, "velocity": 93, "duration": 166}, {"note": 72, "velocity": 93, "duration": 236}, {"note": 74, "velocity": 93, "duration": 476}, {"note": 74, "velocity": 99, "duration": 236}, {"note": 77, "velocity": 96, "duration": 236}, {"note": 76, "velocity": 96, "duration": 194}, {"note": 74, "velocity": 100, "duration": 236}, {"note": 72, "velocity": 97, "duration": 476}, {"note": 82, "velocity": 98, "duration": 2}, {"note": 81, "velocity": 99, "duration": 1396}, {"note": 81, "velocity": 66, "duration": 236}, {"note": 82, "velocity": 68, "duration": 236}, {"note": 81, "velocity": 84, "duration": 716}, {"note": 79, "velocity": 68, "duration": 236}, {"note": 77, "velocity": 62, "duration": 476}, {"note": 79, "velocity": 74, "duration": 716}, {"note": 76, "velocity": 93, "duration": 476}, {"note": 74, "velocity": 66, "duration": 47}, {"note": 72, "velocity": 91, "duration": 269}, {"note": 72, "velocity": 93, "duration": 21}, {"note": 74, "velocity": 93, "duration": 47}, {"note": 77, "velocity": 99, "duration": 9}, {"note": 77, "velocity": 87, "duration": 109}, {"note": 77, "velocity": 93, "duration": 6}, {"note": 81, "velocity": 98, "duration": 476}, {"note": 82, "velocity": 98, "duration": 236}, {"note": 81, "velocity": 98, "duration": 236}, {"note": 79, "velocity": 109, "duration": 381}, {"note": 69, "velocity": 90, "duration": 406}, {"note": 72, "velocity": 84, "duration": 236}, {"note": 77, "velocity": 94, "duration": 716}, {"note": 79, "velocity": 90, "duration": 236}, {"note": 81, "velocity": 90, "duration": 716}, {"note": 72, "velocity": 80, "duration": 236}, {"note": 74, "velocity": 87, "duration": 476}, {"note": 74, "velocity": 93, "duration": 236}, {"note": 77, "velocity": 99, "duration": 236}, {"note": 76, "velocity": 99, "duration": 716}, {"note": 74, "velocity": 85, "duration": 22}, {"note": 72, "velocity": 91, "duration": 89}, {"note": 82, "velocity": 97, "duration": 476}, {"note": 81, "velocity": 96, "duration": 184}, {"note": 81, "velocity": 93, "duration": 236}, {"note": 82, "velocity": 95, "duration": 236}, {"note": 81, "velocity": 94, "duration": 716}, {"note": 79, "velocity": 84, "duration": 236}, {"note": 77, "velocity": 87, "duration": 476}, {"note": 79, "velocity": 90, "duration": 716}, {"note": 76, "velocity": 100, "duration": 476}, {"note": 74, "velocity": 93, "duration": 236}, {"note": 72, "velocity": 96, "duration": 956}, {"note": 72, "velocity": 95, "duration": 236}, {"note": 74, "velocity": 98, "duration": 476}, {"note": 77, "velocity": 105, "duration": 236}, {"note": 77, "velocity": 105, "duration": 476}, {"note": 81, "velocity": 95, "duration": 476}, {"note": 79, "velocity": 105, "duration": 4076}, {"note": 72, "velocity": 98, "duration": 356}, {"note": 77, "velocity": 99, "duration": 273}, {"note": 76, "velocity": 97, "duration": 105}, {"note": 79, "velocity": 97, "duration": 157}, {"note": 77, "velocity": 97, "duration": 1421}]]