[[{"note": 79, "velocity": 68, "duration": 239}, {"note": 79, "velocity": 66, "duration": 239}, {"note": 79, "velocity": 64, "duration": 240}, {"note": 76, "velocity": 65, "duration": 240}, {"note": 74, "velocity": 63, "duration": 240}, {"note": 76, "velocity": 87, "duration": 720}, {"note": 74, "velocity": 90, "duration": 239}, {"note": 74, "velocity": 82, "duration": 239}, {"note": 74, "velocity": 74, "duration": 240}, {"note": 72, "velocity": 64, "duration": 240}, {"note": 71, "velocity": 58, "duration": 240}, {"note": 72, "velocity": 63, "duration": 960}, {"note": 67, "velocity": 66, "duration": 240}, {"note": 72, "velocity": 54, "duration": 239}, {"note": 72, "velocity": 62, "duration": 479}, {"note": 72, "velocity": 56, "duration": 239}, {"note": 72, "velocity": 62, "duration": 240}, {"note": 69, "velocity": 56, "duration": 1439}, {"note": 67, "velocity": 60, "duration": 240}, {"note": 76, "velocity": 66, "duration": 240}, {"note": 69, "velocity": 55, "duration": 2400}, {"note": 69, "velocity": 57, "duration": 18}, {"note": 0, "velocity": 0, "duration": 462}, {"note": 72, "velocity": 66, "duration": 239}, {"note": 72, "velocity": 66, "duration": 240}, {"note": 74, "velocity": 63, "duration": 240}, {"note": 76, "velocity": 66, "duration": 240}, {"note": 74, "velocity": 50, "duration": 239}, {"note": 74, "velocity": 58, "duration": 240}, {"note": 72, "velocity": 53, "duration": 240}, {"note": 69, "velocity": 49, "duration": 240}, {"note": 72, "velocity": 53, "duration": 240}, {"note": 74, "velocity": 56, "duration": 239}, {"note": 74, "velocity": 68, "duration": 2400}, {"note": 67, "velocity": 62, "duration": 240}, {"note": 79, "velocity": 61, "duration": 239}, {"note": 79, "velocity": 60, "duration": 239}, {"note": 79, "velocity": 65, "duration": 240}, {"note": 76, "velocity": 56, "duration": 239}, {"note": 76, "velocity": 62, "duration": 239}, {"note": 76, "velocity": 68, "duration": 480}, {"note": 74, "velocity": 64, "duration": 239}, {"note": 74, "velocity": 59, "duration": 239}, {"note": 74, "velocity": 55, "duration": 239}, {"note": 74, "velocity": 56, "duration": 240}, {"note": 72, "velocity": 47, "duration": 240}, {"note": 71, "velocity": 56, "duration": 240}, {"note": 72, "velocity": 64, "duration": 136}, {"note": 72, "velocity": 84, "duration": 240}, {"note": 71, "velocity": 73, "duration": 240}, {"note": 64, "velocity": 51, "duration": 480}, {"note": 74, "velocity": 68, "duration": 1}, {"note": 72, "velocity": 84, "duration": 13}, {"note": 71, "velocity": 87, "duration": 287}, {"note": 72, "velocity": 63, "duration": 1}, {"note": 69, "velocity": 76, "duration": 1420}, {"note": 64, "velocity": 52, "duration": 240}, {"note": 67, "velocity": 56, "duration": 240}, {"note": 64, "velocity": 55, "duration": 240}, {"note": 67, "velocity": 41, "duration": 240}, {"note": 64, "velocity": 53, "duration": 480}, {"note": 62, "velocity": 51, "duration": 480}, {"note": 60, "velocity": 52, "duration": 480}, {"note": 57, "velocity": 48, "duration": 240}, {"note": 64, "velocity": 52, "duration": 240}, {"note": 62, "velocity": 62, "duration": 2265}, {"note": 64, "velocity": 92, "duration": 240}, {"note": 62, "velocity": 66, "duration": 240}, {"note": 60, "velocity": 57, "duration": 240}, {"note": 62, "velocity": 68, "duration": 4320}, {"note": 69, "velocity": 81, "duration": 239}, {"note": 69, "velocity": 69, "duration": 239}, {"note": 69, "velocity": 68, "duration": 239}, {"note": 69, "velocity": 77, "duration": 239}, {"note": 69, "velocity": 85, "duration": 479}, {"note": 69, "velocity": 91, "duration": 240}, {"note": 71, "velocity": 92, "duration": 360}, {"note": 72, "velocity": 72, "duration": 360}, {"note": 71, "velocity": 85, "duration": 239}, {"note": 71, "velocity": 84, "duration": 240}, {"note": 67, "velocity": 87, "duration": 719}, {"note": 67, "velocity": 97, "duration": 480}, {"note": 69, "velocity": 97, "duration": 240}, {"note": 67, "velocity": 91, "duration": 720}, {"note": 62, "velocity": 64, "duration": 240}, {"note": 64, "velocity": 90, "duration": 2399}, {"note": 64, "velocity": 84, "duration": 239}, {"note": 64, "velocity": 83, "duration": 239}, {"note": 64, "velocity": 73, "duration": 239}, {"note": 64, "velocity": 79, "duration": 239}, {"note": 64, "velocity": 75, "duration": 239}, {"note": 64, "velocity": 73, "duration": 239}, {"note": 64, "velocity": 69, "duration": 240}, {"note": 67, "velocity": 92, "duration": 360}, {"note": 64, "velocity": 80, "duration": 360}, {"note": 62, "velocity": 62, "duration": 480}, {"note": 60, "velocity": 82, "duration": 479}, {"note": 60, "velocity": 66, "duration": 240}, {"note": 69, "velocity": 94, "duration": 239}, {"note": 69, "velocity": 100, "duration": 719}, {"note": 69, "velocity": 97, "duration": 360}, {"note": 72, "velocity": 91, "duration": 360}, {"note": 69, "velocity": 98, "duration": 240}, {"note": 74, "velocity": 90, "duration": 2640}, {"note": 67, "velocity": 66, "duration": 240}, {"note": 79, "velocity": 69, "duration": 480}, {"note": 76, "velocity": 84, "duration": 480}, {"note": 74, "velocity": 64, "duration": 240}, {"note": 72, "velocity": 56, "duration": 239}, {"note": 72, "velocity": 68, "duration": 240}, {"note": 69, "velocity": 64, "duration": 240}, {"note": 72, "velocity": 66, "duration": 240}, {"note": 74, "velocity": 56, "duration": 239}, {"note": 74, "velocity": 69, "duration": 239}, {"note": 74, "velocity": 79, "duration": 1440}, {"note": 76, "velocity": 92, "duration": 480}, {"note": 74, "velocity": 77, "duration": 239}, {"note": 74, "velocity": 66, "duration": 240}, {"note": 72, "velocity": 66, "duration": 239}, {"note": 72, "velocity": 65, "duration": 240}, {"note": 69, "velocity": 57, "duration": 240}, {"note": 72, "velocity": 54, "duration": 240}, {"note": 74, "velocity": 66, "duration": 240}, {"note": 76, "velocity": 79, "duration": 239}, {"note": 76, "velocity": 92, "duration": 28}, {"note": 72, "velocity": 89, "duration": 240}, {"note": 69, "velocity": 61, "duration": 122}, {"note": 72, "velocity": 83, "duration": 239}, {"note": 72, "velocity": 73, "duration": 240}, {"note": 74, "velocity": 77, "duration": 240}, {"note": 72, "velocity": 90, "duration": 960}, {"note": 67, "velocity": 92, "duration": 239}, {"note": 67, "velocity": 90, "duration": 240}, {"note": 69, "velocity": 74, "duration": 240}, {"note": 72, "velocity": 95, "duration": 239}, {"note": 72, "velocity": 101, "duration": 719}, {"note": 72, "velocity": 87, "duration": 239}, {"note": 72, "velocity": 85, "duration": 240}, {"note": 76, "velocity": 84, "duration": 240}, {"note": 74, "velocity": 71, "duration": 239}, {"note": 74, "velocity": 69, "duration": 239}, {"note": 74, "velocity": 77, "duration": 240}, {"note": 72, "velocity": 76, "duration": 239}, {"note": 72, "velocity": 69, "duration": 240}, {"note": 74, "velocity": 86, "duration": 239}, {"note": 74, "velocity": 91, "duration": 1440}, {"note": 67, "velocity": 76, "duration": 240}, {"note": 79, "velocity": 75, "duration": 240}, {"note": 76, "velocity": 66, "duration": 240}, {"note": 74, "velocity": 54, "duration": 170}, {"note": 72, "velocity": 50, "duration": 239}, {"note": 72, "velocity": 62, "duration": 240}, {"note": 69, "velocity": 54, "duration": 240}, {"note": 72, "velocity": 42, "duration": 240}, {"note": 74, "velocity": 64, "duration": 239}, {"note": 74, "velocity": 58, "duration": 61}, {"note": 74, "velocity": 66, "duration": 1440}, {"note": 76, "velocity": 87, "duration": 480}, {"note": 79, "velocity": 84, "duration": 239}, {"note": 79, "velocity": 90, "duration": 239}, {"note": 79, "velocity": 87, "duration": 240}, {"note": 76, "velocity": 60, "duration": 240}, {"note": 74, "velocity": 63, "duration": 239}, {"note": 74, "velocity": 66, "duration": 240}, {"note": 76, "velocity": 80, "duration": 240}, {"note": 79, "velocity": 71, "duration": 239}, {"note": 79, "velocity": 87, "duration": 102}, {"note": 72, "velocity": 63, "duration": 239}, {"note": 72, "velocity": 66, "duration": 240}, {"note": 69, "velocity": 61, "duration": 240}, {"note": 72, "velocity": 56, "duration": 240}, {"note": 69, "velocity": 53, "duration": 32}, {"note": 69, "velocity": 77, "duration": 626}, {"note": 67, "velocity": 53, "duration": 240}, {"note": 79, "velocity": 54, "duration": 240}, {"note": 76, "velocity": 52, "duration": 240}, {"note": 74, "velocity": 52, "duration": 240}, {"note": 76, "velocity": 66, "duration": 720}, {"note": 69, "velocity": 65, "duration": 240}, {"note": 72, "velocity": 69, "duration": 240}, {"note": 69, "velocity": 69, "duration": 240}, {"note": 72, "velocity": 62, "duration": 720}, {"note": 76, "velocity": 53, "duration": 240}, {"note": 74, "velocity": 53, "duration": 240}, {"note": 72, "velocity": 54, "duration": 240}, {"note": 74, "velocity": 87, "duration": 1200}, {"note": 72, "velocity": 97, "duration": 480}, {"note": 69, "velocity": 72, "duration": 480}, {"note": 72, "velocity": 105, "duration": 1920}, {"note": 0, "velocity": 0, "duration": 19440}, {"note": 67, "velocity": 62, "duration": 240}, {"note": 79, "velocity": 61, "duration": 239}, {"note": 79, "velocity": 60, "duration": 239}, {"note": 79, "velocity": 65, "duration": 240}, {"note": 76, "velocity": 56, "duration": 239}, {"note": 76, "velocity": 62, "duration": 239}, {"note": 76, "velocity": 68, "duration": 480}, {"note": 74, "velocity": 64, "duration": 239}, {"note": 74, "velocity": 59, "duration": 239}, {"note": 74, "velocity": 55, "duration": 239}, {"note": 74, "velocity": 56, "duration": 240}, {"note": 72, "velocity": 47, "duration": 240}, {"note": 71, "velocity": 56, "duration": 240}, {"note": 72, "velocity": 64, "duration": 130}, {"note": 72, "velocity": 84, "duration": 240}, {"note": 71, "velocity": 73, "duration": 480}, {"note": 64, "velocity": 51, "duration": 240}, {"note": 74, "velocity": 68, "duration": 15}, {"note": 72, "velocity": 84, "duration": 8}, {"note": 71, "velocity": 87, "duration": 281}, {"note": 72, "velocity": 63, "duration": 4}, {"note": 69, "velocity": 76, "duration": 1415}, {"note": 64, "velocity": 52, "duration": 240}, {"note": 67, "velocity": 56, "duration": 240}, {"note": 64, "velocity": 55, "duration": 240}, {"note": 67, "velocity": 41, "duration": 240}, {"note": 64, "velocity": 53, "duration": 480}, {"note": 62, "velocity": 51, "duration": 480}, {"note": 60, "velocity": 52, "duration": 480}, {"note": 57, "velocity": 48, "duration": 240}, {"note": 64, "velocity": 52, "duration": 240}, {"note": 62, "velocity": 62, "duration": 2259}, {"note": 64, "velocity": 92, "duration": 240}, {"note": 62, "velocity": 66, "duration": 240}, {"note": 60, "velocity": 57, "duration": 240}, {"note": 62, "velocity": 68, "duration": 4320}, {"note": 69, "velocity": 81, "duration": 239}, {"note": 69, "velocity": 69, "duration": 239}, {"note": 69, "velocity": 68, "duration": 239}, {"note": 69, "velocity": 77, "duration": 239}, {"note": 69, "velocity": 85, "duration": 479}, {"note": 69, "velocity": 91, "duration": 240}, {"note": 71, "velocity": 92, "duration": 360}, {"note": 72, "velocity": 72, "duration": 360}, {"note": 71, "velocity": 85, "duration": 239}, {"note": 71, "velocity": 84, "duration": 240}, {"note": 67, "velocity": 87, "duration": 719}, {"note": 67, "velocity": 97, "duration": 480}, {"note": 69, "velocity": 97, "duration": 240}, {"note": 67, "velocity": 91, "duration": 600}, {"note": 62, "velocity": 64, "duration": 360}, {"note": 64, "velocity": 90, "duration": 2399}, {"note": 64, "velocity": 84, "duration": 239}, {"note": 64, "velocity": 83, "duration": 239}, {"note": 64, "velocity": 73, "duration": 239}, {"note": 64, "velocity": 79, "duration": 239}, {"note": 64, "velocity": 75, "duration": 239}, {"note": 64, "velocity": 73, "duration": 239}, {"note": 64, "velocity": 69, "duration": 240}, {"note": 67, "velocity": 92, "duration": 480}, {"note": 64, "velocity": 80, "duration": 240}, {"note": 62, "velocity": 62, "duration": 480}, {"note": 60, "velocity": 82, "duration": 479}, {"note": 60, "velocity": 66, "duration": 240}, {"note": 69, "velocity": 94, "duration": 239}, {"note": 69, "velocity": 100, "duration": 719}, {"note": 69, "velocity": 97, "duration": 360}, {"note": 72, "velocity": 91, "duration": 360}, {"note": 69, "velocity": 98, "duration": 240}, {"note": 74, "velocity": 90, "duration": 2640}, {"note": 67, "velocity": 66, "duration": 240}, {"note": 79, "velocity": 69, "duration": 480}, {"note": 76, "velocity": 84, "duration": 480}, {"note": 74, "velocity": 64, "duration": 240}, {"note": 72, "velocity": 56, "duration": 239}, {"note": 72, "velocity": 68, "duration": 240}, {"note": 67, "velocity": 64, "duration": 240}, {"note": 72, "velocity": 66, "duration": 240}, {"note": 74, "velocity": 56, "duration": 239}, {"note": 74, "velocity": 69, "duration": 239}, {"note": 74, "velocity": 79, "duration": 1440}, {"note": 76, "velocity": 92, "duration": 480}, {"note": 74, "velocity": 77, "duration": 239}, {"note": 74, "velocity": 66, "duration": 240}, {"note": 72, "velocity": 66, "duration": 239}, {"note": 72, "velocity": 65, "duration": 240}, {"note": 69, "velocity": 57, "duration": 240}, {"note": 72, "velocity": 54, "duration": 240}, {"note": 74, "velocity": 66, "duration": 240}, {"note": 76, "velocity": 79, "duration": 239}, {"note": 76, "velocity": 92, "duration": 23}, {"note": 72, "velocity": 89, "duration": 240}, {"note": 69, "velocity": 61, "duration": 116}, {"note": 72, "velocity": 83, "duration": 239}, {"note": 72, "velocity": 73, "duration": 240}, {"note": 74, "velocity": 77, "duration": 240}, {"note": 72, "velocity": 90, "duration": 960}, {"note": 67, "velocity": 92, "duration": 239}, {"note": 67, "velocity": 90, "duration": 240}, {"note": 69, "velocity": 74, "duration": 240}, {"note": 72, "velocity": 95, "duration": 239}, {"note": 72, "velocity": 101, "duration": 719}, {"note": 72, "velocity": 87, "duration": 239}, {"note": 72, "velocity": 85, "duration": 240}, {"note": 76, "velocity": 84, "duration": 240}, {"note": 74, "velocity": 71, "duration": 239}, {"note": 74, "velocity": 69, "duration": 239}, {"note": 74, "velocity": 77, "duration": 240}, {"note": 72, "velocity": 76, "duration": 239}, {"note": 72, "velocity": 69, "duration": 240}, {"note": 74, "velocity": 86, "duration": 239}, {"note": 74, "velocity": 91, "duration": 1320}, {"note": 67, "velocity": 76, "duration": 360}, {"note": 79, "velocity": 75, "duration": 240}, {"note": 76, "velocity": 66, "duration": 240}, {"note": 74, "velocity": 54, "duration": 227}, {"note": 72, "velocity": 50, "duration": 239}, {"note": 72, "velocity": 62, "duration": 240}, {"note": 69, "velocity": 54, "duration": 240}, {"note": 72, "velocity": 42, "duration": 240}, {"note": 74, "velocity": 64, "duration": 239}, {"note": 74, "velocity": 58, "duration": 55}, {"note": 74, "velocity": 66, "duration": 1560}, {"note": 76, "velocity": 87, "duration": 360}, {"note": 79, "velocity": 84, "duration": 239}, {"note": 79, "velocity": 90, "duration": 239}, {"note": 79, "velocity": 87, "duration": 240}, {"note": 76, "velocity": 60, "duration": 240}, {"note": 74, "velocity": 63, "duration": 239}, {"note": 74, "velocity": 66, "duration": 240}, {"note": 76, "velocity": 80, "duration": 240}, {"note": 79, "velocity": 71, "duration": 239}, {"note": 79, "velocity": 87, "duration": 97}, {"note": 72, "velocity": 63, "duration": 239}, {"note": 72, "velocity": 66, "duration": 240}, {"note": 69, "velocity": 61, "duration": 240}, {"note": 72, "velocity": 56, "duration": 240}, {"note": 69, "velocity": 53, "duration": 26}, {"note": 69, "velocity": 77, "duration": 620}, {"note": 67, "velocity": 53, "duration": 240}, {"note": 79, "velocity": 54, "duration": 240}, {"note": 76, "velocity": 52, "duration": 240}, {"note": 74, "velocity": 52, "duration": 240}, {"note": 76, "velocity": 66, "duration": 720}, {"note": 69, "velocity": 65, "duration": 240}, {"note": 72, "velocity": 69, "duration": 240}, {"note": 69, "velocity": 69, "duration": 240}, {"note": 72, "velocity": 62, "duration": 720}, {"note": 76, "velocity": 53, "duration": 240}, {"note": 74, "velocity": 53, "duration": 356}, {"note": 72, "velocity": 54, "duration": 240}, {"note": 74, "velocity": 87, "duration": 1200}, {"note": 72, "velocity": 97, "duration": 480}, {"note": 69, "velocity": 72, "duration": 480}, {"note": 72, "velocity": 105, "duration": 2640}, {"note": 67, "velocity": 66, "duration": 240}, {"note": 79, "velocity": 69, "duration": 480}, {"note": 76, "velocity": 84, "duration": 480}, {"note": 74, "velocity": 64, "duration": 240}, {"note": 72, "velocity": 56, "duration": 239}, {"note": 72, "velocity": 68, "duration": 240}, {"note": 69, "velocity": 64, "duration": 240}, {"note": 72, "velocity": 66, "duration": 240}, {"note": 74, "velocity": 56, "duration": 239}, {"note": 74, "velocity": 69, "duration": 239}, {"note": 74, "velocity": 79, "duration": 1440}, {"note": 76, "velocity": 92, "duration": 480}, {"note": 74, "velocity": 77, "duration": 239}, {"note": 74, "velocity": 66, "duration": 240}, {"note": 72, "velocity": 66, "duration": 239}, {"note": 72, "velocity": 65, "duration": 240}, {"note": 69, "velocity": 57, "duration": 240}, {"note": 72, "velocity": 54, "duration": 240}, {"note": 74, "velocity": 66, "duration": 240}, {"note": 76, "velocity": 79, "duration": 239}, {"note": 76, "velocity": 92, "duration": 13}, {"note": 72, "velocity": 89, "duration": 240}, {"note": 69, "velocity": 61, "duration": 107}, {"note": 72, "velocity": 83, "duration": 239}, {"note": 72, "velocity": 73, "duration": 240}, {"note": 74, "velocity": 77, "duration": 240}, {"note": 72, "velocity": 90, "duration": 960}, {"note": 67, "velocity": 92, "duration": 239}, {"note": 67, "velocity": 90, "duration": 240}, {"note": 69, "velocity": 74, "duration": 240}, {"note": 72, "velocity": 95, "duration": 239}, {"note": 72, "velocity": 101, "duration": 719}, {"note": 72, "velocity": 87, "duration": 239}, {"note": 72, "velocity": 85, "duration": 240}, {"note": 76, "velocity": 84, "duration": 240}, {"note": 74, "velocity": 71, "duration": 239}, {"note": 74, "velocity": 69, "duration": 239}, {"note": 74, "velocity": 77, "duration": 240}, {"note": 72, "velocity": 76, "duration": 239}, {"note": 72, "velocity": 69, "duration": 240}, {"note": 74, "velocity": 86, "duration": 239}, {"note": 74, "velocity": 91, "duration": 1320}, {"note": 67, "velocity": 76, "duration": 360}, {"note": 79, "velocity": 75, "duration": 240}, {"note": 76, "velocity": 66, "duration": 240}, {"note": 74, "velocity": 54, "duration": 154}, {"note": 72, "velocity": 50, "duration": 239}, {"note": 72, "velocity": 62, "duration": 240}, {"note": 69, "velocity": 54, "duration": 240}, {"note": 72, "velocity": 42, "duration": 240}, {"note": 74, "velocity": 64, "duration": 239}, {"note": 74, "velocity": 58, "duration": 45}, {"note": 74, "velocity": 66, "duration": 1560}, {"note": 76, "velocity": 87, "duration": 360}, {"note": 79, "velocity": 84, "duration": 239}, {"note": 79, "velocity": 90, "duration": 239}, {"note": 79, "velocity": 87, "duration": 240}, {"note": 76, "velocity": 60, "duration": 240}, {"note": 74, "velocity": 63, "duration": 239}, {"note": 74, "velocity": 66, "duration": 240}, {"note": 76, "velocity": 80, "duration": 240}, {"note": 79, "velocity": 71, "duration": 239}, {"note": 79, "velocity": 87, "duration": 87}, {"note": 72, "velocity": 63, "duration": 239}, {"note": 72, "velocity": 66, "duration": 240}, {"note": 69, "velocity": 61, "duration": 240}, {"note": 71, "velocity": 50, "duration": 240}, {"note": 72, "velocity": 56, "duration": 240}, {"note": 69, "velocity": 53, "duration": 16}, {"note": 69, "velocity": 77, "duration": 610}, {"note": 67, "velocity": 53, "duration": 240}, {"note": 79, "velocity": 54, "duration": 240}, {"note": 76, "velocity": 52, "duration": 240}, {"note": 74, "velocity": 52, "duration": 240}, {"note": 76, "velocity": 66, "duration": 720}, {"note": 69, "velocity": 65, "duration": 240}, {"note": 72, "velocity": 69, "duration": 240}, {"note": 69, "velocity": 69, "duration": 240}, {"note": 72, "velocity": 62, "duration": 720}, {"note": 76, "velocity": 53, "duration": 240}, {"note": 74, "velocity": 53, "duration": 240}, {"note": 72, "velocity": 54, "duration": 240}, {"note": 74, "velocity": 87, "duration": 1200}, {"note": 72, "velocity": 97, "duration": 480}, {"note": 69, "velocity": 72, "duration": 480}, {"note": 72, "velocity": 105, "duration": 3360}, {"note": 69, "velocity": 93, "duration": 240}, {"note": 72, "velocity": 110, "duration": 240}, {"note": 69, "velocity": 96, "duration": 240}, {"note": 72, "velocity": 88, "duration": 78}, {"note": 76, "velocity": 66, "duration": 240}, {"note": 74, "velocity": 64, "duration": 102}, {"note": 72, "velocity": 65, "duration": 240}, {"note": 74, "velocity": 85, "duration": 1051}, {"note": 72, "velocity": 87, "duration": 1080}, {"note": 69, "velocity": 66, "duration": 840}, {"note": 72, "velocity": 66, "duration": 480}]]