[[{"note": 56, "velocity": 68, "duration": 197}, {"note": 58, "velocity": 63, "duration": 129}, {"note": 65, "velocity": 72, "duration": 365}, {"note": 65, "velocity": 87, "duration": 218}, {"note": 63, "velocity": 82, "duration": 171}, {"note": 65, "velocity": 94, "duration": 280}, {"note": 0, "velocity": 0, "duration": 200}, {"note": 63, "velocity": 90, "duration": 243}, {"note": 65, "velocity": 83, "duration": 222}, {"note": 68, "velocity": 99, "duration": 223}, {"note": 65, "velocity": 79, "duration": 253}, {"note": 68, "velocity": 92, "duration": 212}, {"note": 70, "velocity": 90, "duration": 243}, {"note": 68, "velocity": 96, "duration": 88}, {"note": 70, "velocity": 105, "duration": 59}, {"note": 0, "velocity": 0, "duration": 142}, {"note": 70, "velocity": 101, "duration": 230}, {"note": 68, "velocity": 90, "duration": 243}, {"note": 65, "velocity": 82, "duration": 231}, {"note": 63, "velocity": 85, "duration": 123}, {"note": 0, "velocity": 0, "duration": 117}, {"note": 63, "velocity": 93, "duration": 192}, {"note": 61, "velocity": 90, "duration": 45}, {"note": 63, "velocity": 101, "duration": 1152}, {"note": 0, "velocity": 0, "duration": 288}, {"note": 63, "velocity": 93, "duration": 217}, {"note": 65, "velocity": 92, "duration": 232}, {"note": 68, "velocity": 94, "duration": 174}, {"note": 0, "velocity": 0, "duration": 66}, {"note": 68, "velocity": 97, "duration": 46}, {"note": 0, "velocity": 0, "duration": 69}, {"note": 68, "velocity": 106, "duration": 37}, {"note": 70, "velocity": 97, "duration": 27}, {"note": 68, "velocity": 103, "duration": 131}, {"note": 0, "velocity": 0, "duration": 236}, {"note": 70, "velocity": 87, "duration": 216}, {"note": 68, "velocity": 89, "duration": 261}, {"note": 65, "velocity": 74, "duration": 162}, {"note": 0, "velocity": 0, "duration": 78}, {"note": 65, "velocity": 83, "duration": 134}, {"note": 0, "velocity": 0, "duration": 106}, {"note": 65, "velocity": 91, "duration": 218}, {"note": 63, "velocity": 66, "duration": 177}, {"note": 65, "velocity": 45, "duration": 71}, {"note": 61, "velocity": 61, "duration": 380}, {"note": 0, "velocity": 0, "duration": 580}, {"note": 63, "velocity": 93, "duration": 148}, {"note": 0, "velocity": 0, "duration": 65}, {"note": 63, "velocity": 87, "duration": 167}, {"note": 0, "velocity": 0, "duration": 73}, {"note": 63, "velocity": 86, "duration": 200}, {"note": 61, "velocity": 79, "duration": 229}, {"note": 58, "velocity": 65, "duration": 325}, {"note": 0, "velocity": 0, "duration": 155}, {"note": 58, "velocity": 73, "duration": 260}, {"note": 65, "velocity": 65, "duration": 151}, {"note": 0, "velocity": 0, "duration": 89}, {"note": 65, "velocity": 83, "duration": 102}, {"note": 63, "velocity": 49, "duration": 1430}, {"note": 56, "velocity": 53, "duration": 242}, {"note": 58, "velocity": 66, "duration": 244}, {"note": 65, "velocity": 90, "duration": 175}, {"note": 0, "velocity": 0, "duration": 65}, {"note": 65, "velocity": 84, "duration": 173}, {"note": 0, "velocity": 0, "duration": 67}, {"note": 65, "velocity": 95, "duration": 5}, {"note": 63, "velocity": 79, "duration": 225}, {"note": 65, "velocity": 91, "duration": 211}, {"note": 0, "velocity": 0, "duration": 111}, {"note": 63, "velocity": 95, "duration": 205}, {"note": 65, "velocity": 90, "duration": 46}, {"note": 68, "velocity": 95, "duration": 14}, {"note": 65, "velocity": 90, "duration": 95}, {"note": 68, "velocity": 95, "duration": 236}, {"note": 70, "velocity": 93, "duration": 241}, {"note": 68, "velocity": 98, "duration": 74}, {"note": 0, "velocity": 0, "duration": 672}, {"note": 70, "velocity": 98, "duration": 183}, {"note": 70, "velocity": 96, "duration": 140}, {"note": 0, "velocity": 0, "duration": 100}, {"note": 70, "velocity": 93, "duration": 245}, {"note": 68, "velocity": 93, "duration": 224}, {"note": 65, "velocity": 87, "duration": 402}, {"note": 0, "velocity": 0, "duration": 318}, {"note": 61, "velocity": 87, "duration": 233}, {"note": 63, "velocity": 96, "duration": 1108}, {"note": 0, "velocity": 0, "duration": 332}, {"note": 63, "velocity": 55, "duration": 239}, {"note": 65, "velocity": 87, "duration": 246}, {"note": 68, "velocity": 96, "duration": 171}, {"note": 0, "velocity": 0, "duration": 69}, {"note": 68, "velocity": 97, "duration": 167}, {"note": 0, "velocity": 0, "duration": 73}, {"note": 68, "velocity": 93, "duration": 239}, {"note": 70, "velocity": 100, "duration": 263}, {"note": 68, "velocity": 98, "duration": 266}, {"note": 0, "velocity": 0, "duration": 694}, {"note": 65, "velocity": 98, "duration": 194}, {"note": 65, "velocity": 92, "duration": 174}, {"note": 0, "velocity": 0, "duration": 66}, {"note": 65, "velocity": 97, "duration": 259}, {"note": 63, "velocity": 95, "duration": 239}, {"note": 61, "velocity": 92, "duration": 508}, {"note": 0, "velocity": 0, "duration": 452}, {"note": 63, "velocity": 101, "duration": 181}, {"note": 63, "velocity": 92, "duration": 65}, {"note": 63, "velocity": 79, "duration": 54}, {"note": 0, "velocity": 0, "duration": 66}, {"note": 63, "velocity": 91, "duration": 184}, {"note": 70, "velocity": 90, "duration": 232}, {"note": 68, "velocity": 95, "duration": 228}, {"note": 0, "velocity": 0, "duration": 252}, {"note": 65, "velocity": 108, "duration": 277}, {"note": 63, "velocity": 97, "duration": 519}, {"note": 61, "velocity": 98, "duration": 975}, {"note": 0, "velocity": 0, "duration": 225}, {"note": 68, "velocity": 90, "duration": 232}, {"note": 70, "velocity": 93, "duration": 242}, {"note": 73, "velocity": 98, "duration": 154}, {"note": 0, "velocity": 0, "duration": 86}, {"note": 73, "velocity": 92, "duration": 54}, {"note": 0, "velocity": 0, "duration": 66}, {"note": 73, "velocity": 86, "duration": 56}, {"note": 0, "velocity": 0, "duration": 64}, {"note": 73, "velocity": 90, "duration": 191}, {"note": 73, "velocity": 97, "duration": 120}, {"note": 75, "velocity": 97, "duration": 120}, {"note": 77, "velocity": 87, "duration": 269}, {"note": 75, "velocity": 87, "duration": 263}, {"note": 73, "velocity": 87, "duration": 267}, {"note": 77, "velocity": 64, "duration": 264}, {"note": 70, "velocity": 72, "duration": 636}, {"note": 0, "velocity": 0, "duration": 1284}, {"note": 63, "velocity": 90, "duration": 173}, {"note": 0, "velocity": 0, "duration": 67}, {"note": 63, "velocity": 77, "duration": 66}, {"note": 63, "velocity": 75, "duration": 65}, {"note": 63, "velocity": 80, "duration": 157}, {"note": 0, "velocity": 0, "duration": 83}, {"note": 63, "velocity": 86, "duration": 109}, {"note": 65, "velocity": 81, "duration": 137}, {"note": 63, "velocity": 87, "duration": 249}, {"note": 61, "velocity": 80, "duration": 153}, {"note": 0, "velocity": 0, "duration": 87}, {"note": 61, "velocity": 84, "duration": 204}, {"note": 58, "velocity": 65, "duration": 289}, {"note": 56, "velocity": 90, "duration": 1070}, {"note": 0, "velocity": 0, "duration": 370}, {"note": 51, "velocity": 63, "duration": 248}, {"note": 53, "velocity": 63, "duration": 209}, {"note": 56, "velocity": 87, "duration": 177}, {"note": 0, "velocity": 0, "duration": 63}, {"note": 56, "velocity": 93, "duration": 167}, {"note": 0, "velocity": 0, "duration": 73}, {"note": 56, "velocity": 97, "duration": 246}, {"note": 53, "velocity": 90, "duration": 232}, {"note": 56, "velocity": 98, "duration": 194}, {"note": 0, "velocity": 0, "duration": 286}, {"note": 73, "velocity": 106, "duration": 240}, {"note": 75, "velocity": 101, "duration": 222}, {"note": 70, "velocity": 100, "duration": 999}, {"note": 0, "velocity": 0, "duration": 921}, {"note": 75, "velocity": 101, "duration": 3}, {"note": 0, "velocity": 0, "duration": 68}, {"note": 75, "velocity": 87, "duration": 53}, {"note": 75, "velocity": 87, "duration": 40}, {"note": 75, "velocity": 90, "duration": 222}, {"note": 77, "velocity": 93, "duration": 64}, {"note": 75, "velocity": 99, "duration": 169}, {"note": 73, "velocity": 94, "duration": 239}, {"note": 70, "velocity": 87, "duration": 254}, {"note": 73, "velocity": 94, "duration": 243}, {"note": 75, "velocity": 97, "duration": 1421}, {"note": 0, "velocity": 0, "duration": 499}, {"note": 73, "velocity": 95, "duration": 189}, {"note": 73, "velocity": 75, "duration": 61}, {"note": 73, "velocity": 76, "duration": 59}, {"note": 0, "velocity": 0, "duration": 61}, {"note": 73, "velocity": 72, "duration": 169}, {"note": 0, "velocity": 0, "duration": 71}, {"note": 73, "velocity": 76, "duration": 138}, {"note": 75, "velocity": 49, "duration": 91}, {"note": 77, "velocity": 66, "duration": 286}, {"note": 75, "velocity": 72, "duration": 266}, {"note": 73, "velocity": 72, "duration": 245}, {"note": 77, "velocity": 63, "duration": 235}, {"note": 70, "velocity": 63, "duration": 695}, {"note": 0, "velocity": 0, "duration": 1225}, {"note": 75, "velocity": 101, "duration": 152}, {"note": 0, "velocity": 0, "duration": 88}, {"note": 75, "velocity": 95, "duration": 57}, {"note": 0, "velocity": 0, "duration": 63}, {"note": 75, "velocity": 89, "duration": 54}, {"note": 0, "velocity": 0, "duration": 66}, {"note": 75, "velocity": 92, "duration": 149}, {"note": 75, "velocity": 96, "duration": 2}, {"note": 77, "velocity": 91, "duration": 154}, {"note": 75, "velocity": 93, "duration": 260}, {"note": 73, "velocity": 91, "duration": 156}, {"note": 0, "velocity": 0, "duration": 84}, {"note": 73, "velocity": 90, "duration": 213}, {"note": 70, "velocity": 92, "duration": 235}, {"note": 68, "velocity": 99, "duration": 58}, {"note": 0, "velocity": 0, "duration": 350}, {"note": 63, "velocity": 87, "duration": 248}, {"note": 65, "velocity": 73, "duration": 245}, {"note": 68, "velocity": 94, "duration": 192}, {"note": 68, "velocity": 66, "duration": 187}, {"note": 68, "velocity": 90, "duration": 235}, {"note": 65, "velocity": 84, "duration": 249}, {"note": 68, "velocity": 99, "duration": 10}, {"note": 0, "velocity": 0, "duration": 205}, {"note": 73, "velocity": 101, "duration": 261}, {"note": 75, "velocity": 101, "duration": 203}, {"note": 70, "velocity": 103, "duration": 1160}, {"note": 0, "velocity": 0, "duration": 760}, {"note": 75, "velocity": 103, "duration": 289}, {"note": 0, "velocity": 0, "duration": 71}, {"note": 75, "velocity": 95, "duration": 62}, {"note": 75, "velocity": 93, "duration": 146}, {"note": 0, "velocity": 0, "duration": 94}, {"note": 75, "velocity": 90, "duration": 108}, {"note": 77, "velocity": 87, "duration": 154}, {"note": 75, "velocity": 91, "duration": 256}, {"note": 73, "velocity": 91, "duration": 221}, {"note": 70, "velocity": 91, "duration": 239}, {"note": 73, "velocity": 93, "duration": 367}, {"note": 0, "velocity": 0, "duration": 113}, {"note": 73, "velocity": 97, "duration": 278}, {"note": 0, "velocity": 0, "duration": 15793}, {"note": 56, "velocity": 68, "duration": 198}, {"note": 58, "velocity": 63, "duration": 126}, {"note": 65, "velocity": 72, "duration": 204}, {"note": 65, "velocity": 72, "duration": 159}, {"note": 65, "velocity": 87, "duration": 218}, {"note": 63, "velocity": 82, "duration": 169}, {"note": 65, "velocity": 94, "duration": 281}, {"note": 0, "velocity": 0, "duration": 199}, {"note": 63, "velocity": 90, "duration": 243}, {"note": 65, "velocity": 83, "duration": 222}, {"note": 68, "velocity": 99, "duration": 223}, {"note": 65, "velocity": 79, "duration": 253}, {"note": 68, "velocity": 92, "duration": 212}, {"note": 70, "velocity": 90, "duration": 3}, {"note": 68, "velocity": 96, "duration": 112}, {"note": 70, "velocity": 105, "duration": 93}, {"note": 70, "velocity": 105, "duration": 187}, {"note": 70, "velocity": 101, "duration": 233}, {"note": 68, "velocity": 90, "duration": 243}, {"note": 65, "velocity": 82, "duration": 231}, {"note": 0, "velocity": 0, "duration": 489}, {"note": 61, "velocity": 90, "duration": 21}, {"note": 63, "velocity": 101, "duration": 1112}, {"note": 0, "velocity": 0, "duration": 328}, {"note": 63, "velocity": 93, "duration": 216}, {"note": 65, "velocity": 92, "duration": 232}, {"note": 68, "velocity": 94, "duration": 174}, {"note": 68, "velocity": 97, "duration": 71}, {"note": 0, "velocity": 0, "duration": 69}, {"note": 68, "velocity": 106, "duration": 62}, {"note": 70, "velocity": 97, "duration": 52}, {"note": 68, "velocity": 103, "duration": 156}, {"note": 0, "velocity": 0, "duration": 716}, {"note": 65, "velocity": 74, "duration": 161}, {"note": 0, "velocity": 0, "duration": 79}, {"note": 65, "velocity": 83, "duration": 135}, {"note": 0, "velocity": 0, "duration": 105}, {"note": 65, "velocity": 91, "duration": 218}, {"note": 63, "velocity": 66, "duration": 273}, {"note": 61, "velocity": 61, "duration": 380}, {"note": 0, "velocity": 0, "duration": 580}, {"note": 63, "velocity": 101, "duration": 182}, {"note": 63, "velocity": 92, "duration": 65}, {"note": 63, "velocity": 79, "duration": 54}, {"note": 0, "velocity": 0, "duration": 66}, {"note": 63, "velocity": 91, "duration": 184}, {"note": 70, "velocity": 90, "duration": 232}, {"note": 68, "velocity": 95, "duration": 228}, {"note": 0, "velocity": 0, "duration": 252}, {"note": 65, "velocity": 108, "duration": 277}, {"note": 63, "velocity": 97, "duration": 477}, {"note": 61, "velocity": 98, "duration": 982}, {"note": 0, "velocity": 0, "duration": 218}, {"note": 68, "velocity": 90, "duration": 232}, {"note": 70, "velocity": 93, "duration": 242}, {"note": 73, "velocity": 98, "duration": 132}, {"note": 0, "velocity": 0, "duration": 108}, {"note": 73, "velocity": 92, "duration": 54}, {"note": 0, "velocity": 0, "duration": 66}, {"note": 73, "velocity": 86, "duration": 56}, {"note": 0, "velocity": 0, "duration": 64}, {"note": 73, "velocity": 90, "duration": 119}, {"note": 0, "velocity": 0, "duration": 121}, {"note": 73, "velocity": 90, "duration": 115}, {"note": 75, "velocity": 97, "duration": 109}, {"note": 77, "velocity": 87, "duration": 231}, {"note": 75, "velocity": 87, "duration": 263}, {"note": 73, "velocity": 87, "duration": 267}, {"note": 77, "velocity": 64, "duration": 265}, {"note": 70, "velocity": 72, "duration": 637}, {"note": 0, "velocity": 0, "duration": 1283}, {"note": 75, "velocity": 90, "duration": 130}, {"note": 0, "velocity": 0, "duration": 110}, {"note": 75, "velocity": 77, "duration": 40}, {"note": 0, "velocity": 0, "duration": 80}, {"note": 75, "velocity": 75, "duration": 39}, {"note": 0, "velocity": 0, "duration": 81}, {"note": 75, "velocity": 80, "duration": 131}, {"note": 0, "velocity": 0, "duration": 109}, {"note": 75, "velocity": 86, "duration": 83}, {"note": 77, "velocity": 81, "duration": 111}, {"note": 75, "velocity": 87, "duration": 223}, {"note": 73, "velocity": 80, "duration": 127}, {"note": 0, "velocity": 0, "duration": 113}, {"note": 73, "velocity": 84, "duration": 178}, {"note": 0, "velocity": 0, "duration": 62}, {"note": 70, "velocity": 65, "duration": 262}, {"note": 68, "velocity": 90, "duration": 1044}, {"note": 0, "velocity": 0, "duration": 396}, {"note": 63, "velocity": 63, "duration": 248}, {"note": 65, "velocity": 63, "duration": 209}, {"note": 68, "velocity": 87, "duration": 177}, {"note": 0, "velocity": 0, "duration": 63}, {"note": 68, "velocity": 93, "duration": 168}, {"note": 0, "velocity": 0, "duration": 72}, {"note": 68, "velocity": 97, "duration": 247}, {"note": 65, "velocity": 90, "duration": 232}, {"note": 68, "velocity": 98, "duration": 194}, {"note": 0, "velocity": 0, "duration": 286}, {"note": 73, "velocity": 106, "duration": 241}, {"note": 75, "velocity": 101, "duration": 222}, {"note": 70, "velocity": 100, "duration": 999}, {"note": 0, "velocity": 0, "duration": 921}, {"note": 75, "velocity": 101, "duration": 125}, {"note": 75, "velocity": 87, "duration": 55}, {"note": 75, "velocity": 90, "duration": 222}, {"note": 77, "velocity": 93, "duration": 79}, {"note": 75, "velocity": 99, "duration": 184}, {"note": 73, "velocity": 94, "duration": 239}, {"note": 70, "velocity": 87, "duration": 253}, {"note": 73, "velocity": 94, "duration": 243}, {"note": 75, "velocity": 97, "duration": 1421}, {"note": 0, "velocity": 0, "duration": 499}, {"note": 73, "velocity": 95, "duration": 189}, {"note": 73, "velocity": 75, "duration": 61}, {"note": 73, "velocity": 76, "duration": 59}, {"note": 0, "velocity": 0, "duration": 61}, {"note": 73, "velocity": 72, "duration": 169}, {"note": 0, "velocity": 0, "duration": 71}, {"note": 73, "velocity": 76, "duration": 138}, {"note": 75, "velocity": 49, "duration": 92}, {"note": 77, "velocity": 66, "duration": 286}, {"note": 75, "velocity": 72, "duration": 266}, {"note": 73, "velocity": 72, "duration": 245}, {"note": 77, "velocity": 63, "duration": 235}, {"note": 70, "velocity": 63, "duration": 696}, {"note": 0, "velocity": 0, "duration": 1224}, {"note": 75, "velocity": 101, "duration": 152}, {"note": 0, "velocity": 0, "duration": 88}, {"note": 75, "velocity": 95, "duration": 57}, {"note": 0, "velocity": 0, "duration": 63}, {"note": 75, "velocity": 89, "duration": 55}, {"note": 0, "velocity": 0, "duration": 65}, {"note": 75, "velocity": 92, "duration": 149}, {"note": 75, "velocity": 96, "duration": 18}, {"note": 77, "velocity": 91, "duration": 153}, {"note": 75, "velocity": 93, "duration": 259}, {"note": 73, "velocity": 91, "duration": 156}, {"note": 0, "velocity": 0, "duration": 84}, {"note": 73, "velocity": 90, "duration": 213}, {"note": 70, "velocity": 92, "duration": 235}, {"note": 68, "velocity": 99, "duration": 73}, {"note": 0, "velocity": 0, "duration": 350}, {"note": 63, "velocity": 87, "duration": 249}, {"note": 65, "velocity": 73, "duration": 245}, {"note": 68, "velocity": 94, "duration": 192}, {"note": 68, "velocity": 66, "duration": 187}, {"note": 68, "velocity": 90, "duration": 235}, {"note": 65, "velocity": 84, "duration": 249}, {"note": 68, "velocity": 99, "duration": 25}, {"note": 0, "velocity": 0, "duration": 205}, {"note": 73, "velocity": 101, "duration": 261}, {"note": 75, "velocity": 101, "duration": 204}, {"note": 70, "velocity": 103, "duration": 1160}, {"note": 0, "velocity": 0, "duration": 760}, {"note": 75, "velocity": 103, "duration": 289}, {"note": 0, "velocity": 0, "duration": 71}, {"note": 75, "velocity": 95, "duration": 62}, {"note": 75, "velocity": 93, "duration": 146}, {"note": 0, "velocity": 0, "duration": 94}, {"note": 75, "velocity": 90, "duration": 108}, {"note": 77, "velocity": 87, "duration": 153}, {"note": 75, "velocity": 91, "duration": 256}, {"note": 73, "velocity": 91, "duration": 222}, {"note": 70, "velocity": 91, "duration": 238}, {"note": 73, "velocity": 93, "duration": 367}, {"note": 0, "velocity": 0, "duration": 113}, {"note": 73, "velocity": 97, "duration": 293}, {"note": 0, "velocity": 0, "duration": 913}, {"note": 73, "velocity": 98, "duration": 132}, {"note": 0, "velocity": 0, "duration": 108}, {"note": 73, "velocity": 92, "duration": 54}, {"note": 0, "velocity": 0, "duration": 66}, {"note": 73, "velocity": 86, "duration": 56}, {"note": 0, "velocity": 0, "duration": 64}, {"note": 73, "velocity": 90, "duration": 119}, {"note": 0, "velocity": 0, "duration": 121}, {"note": 73, "velocity": 90, "duration": 115}, {"note": 75, "velocity": 97, "duration": 109}, {"note": 77, "velocity": 87, "duration": 231}, {"note": 75, "velocity": 87, "duration": 263}, {"note": 73, "velocity": 87, "duration": 267}, {"note": 77, "velocity": 64, "duration": 264}, {"note": 70, "velocity": 72, "duration": 637}, {"note": 0, "velocity": 0, "duration": 1283}, {"note": 75, "velocity": 90, "duration": 130}, {"note": 0, "velocity": 0, "duration": 110}, {"note": 75, "velocity": 77, "duration": 40}, {"note": 0, "velocity": 0, "duration": 80}, {"note": 75, "velocity": 75, "duration": 39}, {"note": 0, "velocity": 0, "duration": 81}, {"note": 75, "velocity": 80, "duration": 131}, {"note": 0, "velocity": 0, "duration": 109}, {"note": 75, "velocity": 86, "duration": 83}, {"note": 77, "velocity": 81, "duration": 111}, {"note": 75, "velocity": 87, "duration": 223}, {"note": 73, "velocity": 80, "duration": 128}, {"note": 0, "velocity": 0, "duration": 112}, {"note": 73, "velocity": 84, "duration": 178}, {"note": 0, "velocity": 0, "duration": 62}, {"note": 70, "velocity": 65, "duration": 263}, {"note": 68, "velocity": 90, "duration": 1043}, {"note": 0, "velocity": 0, "duration": 397}, {"note": 63, "velocity": 63, "duration": 247}, {"note": 65, "velocity": 63, "duration": 209}, {"note": 68, "velocity": 87, "duration": 177}, {"note": 0, "velocity": 0, "duration": 63}, {"note": 68, "velocity": 93, "duration": 168}, {"note": 0, "velocity": 0, "duration": 72}, {"note": 68, "velocity": 97, "duration": 247}, {"note": 65, "velocity": 90, "duration": 232}, {"note": 68, "velocity": 98, "duration": 194}, {"note": 0, "velocity": 0, "duration": 286}, {"note": 73, "velocity": 106, "duration": 241}, {"note": 75, "velocity": 101, "duration": 223}, {"note": 70, "velocity": 100, "duration": 1019}, {"note": 0, "velocity": 0, "duration": 901}, {"note": 75, "velocity": 101, "duration": 101}, {"note": 75, "velocity": 87, "duration": 60}, {"note": 75, "velocity": 90, "duration": 222}, {"note": 77, "velocity": 93, "duration": 93}, {"note": 75, "velocity": 99, "duration": 198}, {"note": 73, "velocity": 94, "duration": 239}, {"note": 70, "velocity": 87, "duration": 254}, {"note": 73, "velocity": 94, "duration": 243}, {"note": 75, "velocity": 97, "duration": 1421}, {"note": 0, "velocity": 0, "duration": 499}, {"note": 73, "velocity": 95, "duration": 190}, {"note": 73, "velocity": 75, "duration": 60}, {"note": 73, "velocity": 76, "duration": 58}, {"note": 0, "velocity": 0, "duration": 62}, {"note": 73, "velocity": 72, "duration": 170}, {"note": 0, "velocity": 0, "duration": 70}, {"note": 73, "velocity": 76, "duration": 138}, {"note": 75, "velocity": 49, "duration": 92}, {"note": 77, "velocity": 66, "duration": 316}, {"note": 75, "velocity": 72, "duration": 265}, {"note": 73, "velocity": 72, "duration": 246}, {"note": 77, "velocity": 63, "duration": 259}, {"note": 70, "velocity": 63, "duration": 737}, {"note": 0, "velocity": 0, "duration": 1183}, {"note": 75, "velocity": 101, "duration": 153}, {"note": 0, "velocity": 0, "duration": 87}, {"note": 75, "velocity": 95, "duration": 58}, {"note": 0, "velocity": 0, "duration": 62}, {"note": 75, "velocity": 89, "duration": 55}, {"note": 0, "velocity": 0, "duration": 65}, {"note": 75, "velocity": 92, "duration": 149}, {"note": 75, "velocity": 96, "duration": 32}, {"note": 77, "velocity": 91, "duration": 154}, {"note": 75, "velocity": 93, "duration": 259}, {"note": 73, "velocity": 91, "duration": 156}, {"note": 0, "velocity": 0, "duration": 84}, {"note": 73, "velocity": 90, "duration": 204}, {"note": 70, "velocity": 92, "duration": 215}, {"note": 68, "velocity": 99, "duration": 60}, {"note": 0, "velocity": 0, "duration": 377}, {"note": 63, "velocity": 87, "duration": 248}, {"note": 65, "velocity": 73, "duration": 244}, {"note": 68, "velocity": 94, "duration": 193}, {"note": 68, "velocity": 66, "duration": 187}, {"note": 68, "velocity": 90, "duration": 235}, {"note": 65, "velocity": 84, "duration": 249}, {"note": 68, "velocity": 99, "duration": 39}, {"note": 0, "velocity": 0, "duration": 205}, {"note": 73, "velocity": 101, "duration": 190}, {"note": 75, "velocity": 101, "duration": 269}, {"note": 70, "velocity": 103, "duration": 1161}, {"note": 0, "velocity": 0, "duration": 759}, {"note": 75, "velocity": 103, "duration": 289}, {"note": 0, "velocity": 0, "duration": 71}, {"note": 75, "velocity": 95, "duration": 61}, {"note": 75, "velocity": 93, "duration": 145}, {"note": 0, "velocity": 0, "duration": 95}, {"note": 75, "velocity": 90, "duration": 108}, {"note": 77, "velocity": 87, "duration": 154}, {"note": 75, "velocity": 91, "duration": 257}, {"note": 73, "velocity": 91, "duration": 222}, {"note": 70, "velocity": 91, "duration": 238}, {"note": 73, "velocity": 93, "duration": 367}, {"note": 0, "velocity": 0, "duration": 113}, {"note": 73, "velocity": 97, "duration": 307}, {"note": 0, "velocity": 0, "duration": 913}, {"note": 75, "velocity": 100, "duration": 290}, {"note": 0, "velocity": 0, "duration": 70}, {"note": 75, "velocity": 95, "duration": 106}, {"note": 75, "velocity": 95, "duration": 290}, {"note": 77, "velocity": 96, "duration": 246}, {"note": 75, "velocity": 103, "duration": 253}, {"note": 73, "velocity": 98, "duration": 327}, {"note": 70, "velocity": 91, "duration": 57}, {"note": 73, "velocity": 90, "duration": 1443}, {"note": 0, "velocity": 0, "duration": 466}, {"note": 73, "velocity": 108, "duration": 1705}]]