[[{"note": 68, "velocity": 66, "duration": 236}, {"note": 68, "velocity": 68, "duration": 236}, {"note": 70, "velocity": 61, "duration": 236}, {"note": 68, "velocity": 61, "duration": 236}, {"note": 72, "velocity": 66, "duration": 116}, {"note": 70, "velocity": 63, "duration": 116}, {"note": 72, "velocity": 66, "duration": 2636}, {"note": 72, "velocity": 66, "duration": 236}, {"note": 72, "velocity": 79, "duration": 356}, {"note": 72, "velocity": 66, "duration": 356}, {"note": 70, "velocity": 83, "duration": 476}, {"note": 70, "velocity": 69, "duration": 2396}, {"note": 68, "velocity": 74, "duration": 236}, {"note": 70, "velocity": 80, "duration": 236}, {"note": 70, "velocity": 66, "duration": 236}, {"note": 68, "velocity": 53, "duration": 236}, {"note": 70, "velocity": 79, "duration": 476}, {"note": 68, "velocity": 63, "duration": 956}, {"note": 65, "velocity": 80, "duration": 236}, {"note": 68, "velocity": 84, "duration": 236}, {"note": 70, "velocity": 87, "duration": 476}, {"note": 68, "velocity": 90, "duration": 476}, {"note": 68, "velocity": 71, "duration": 236}, {"note": 68, "velocity": 74, "duration": 476}, {"note": 72, "velocity": 56, "duration": 116}, {"note": 70, "velocity": 61, "duration": 116}, {"note": 72, "velocity": 66, "duration": 1767}, {"note": 63, "velocity": 69, "duration": 236}, {"note": 68, "velocity": 92, "duration": 236}, {"note": 68, "velocity": 87, "duration": 236}, {"note": 70, "velocity": 87, "duration": 236}, {"note": 68, "velocity": 74, "duration": 236}, {"note": 72, "velocity": 91, "duration": 2876}, {"note": 72, "velocity": 94, "duration": 236}, {"note": 72, "velocity": 93, "duration": 476}, {"note": 72, "velocity": 84, "duration": 236}, {"note": 70, "velocity": 92, "duration": 476}, {"note": 70, "velocity": 67, "duration": 2396}, {"note": 70, "velocity": 90, "duration": 236}, {"note": 70, "velocity": 90, "duration": 236}, {"note": 70, "velocity": 90, "duration": 236}, {"note": 68, "velocity": 85, "duration": 236}, {"note": 70, "velocity": 105, "duration": 476}, {"note": 68, "velocity": 81, "duration": 956}, {"note": 65, "velocity": 85, "duration": 236}, {"note": 68, "velocity": 96, "duration": 236}, {"note": 70, "velocity": 100, "duration": 476}, {"note": 68, "velocity": 91, "duration": 476}, {"note": 72, "velocity": 94, "duration": 122}, {"note": 70, "velocity": 85, "duration": 476}, {"note": 70, "velocity": 96, "duration": 476}, {"note": 68, "velocity": 68, "duration": 2636}, {"note": 72, "velocity": 87, "duration": 236}, {"note": 75, "velocity": 91, "duration": 716}, {"note": 75, "velocity": 96, "duration": 476}, {"note": 79, "velocity": 98, "duration": 29}, {"note": 77, "velocity": 94, "duration": 476}, {"note": 77, "velocity": 87, "duration": 236}, {"note": 77, "velocity": 91, "duration": 428}, {"note": 75, "velocity": 103, "duration": 716}, {"note": 75, "velocity": 105, "duration": 236}, {"note": 75, "velocity": 96, "duration": 44}, {"note": 75, "velocity": 90, "duration": 236}, {"note": 68, "velocity": 91, "duration": 99}, {"note": 72, "velocity": 99, "duration": 2930}, {"note": 77, "velocity": 93, "duration": 236}, {"note": 77, "velocity": 91, "duration": 236}, {"note": 77, "velocity": 93, "duration": 476}, {"note": 75, "velocity": 87, "duration": 236}, {"note": 75, "velocity": 79, "duration": 716}, {"note": 73, "velocity": 97, "duration": 476}, {"note": 68, "velocity": 72, "duration": 236}, {"note": 72, "velocity": 68, "duration": 167}, {"note": 72, "velocity": 87, "duration": 87}, {"note": 70, "velocity": 64, "duration": 1644}, {"note": 75, "velocity": 108, "duration": 236}, {"note": 75, "velocity": 96, "duration": 476}, {"note": 75, "velocity": 95, "duration": 236}, {"note": 79, "velocity": 103, "duration": 476}, {"note": 79, "velocity": 108, "duration": 1916}, {"note": 79, "velocity": 100, "duration": 476}, {"note": 79, "velocity": 95, "duration": 236}, {"note": 72, "velocity": 77, "duration": 356}, {"note": 72, "velocity": 81, "duration": 356}, {"note": 72, "velocity": 91, "duration": 236}, {"note": 81, "velocity": 96, "duration": 3116}, {"note": 77, "velocity": 87, "duration": 236}, {"note": 77, "velocity": 66, "duration": 236}, {"note": 77, "velocity": 87, "duration": 476}, {"note": 75, "velocity": 81, "duration": 476}, {"note": 75, "velocity": 87, "duration": 476}, {"note": 73, "velocity": 59, "duration": 236}, {"note": 75, "velocity": 82, "duration": 236}, {"note": 73, "velocity": 89, "duration": 716}, {"note": 73, "velocity": 87, "duration": 236}, {"note": 73, "velocity": 97, "duration": 356}, {"note": 73, "velocity": 93, "duration": 356}, {"note": 73, "velocity": 86, "duration": 236}, {"note": 75, "velocity": 91, "duration": 476}, {"note": 75, "velocity": 98, "duration": 8}, {"note": 75, "velocity": 101, "duration": 356}, {"note": 75, "velocity": 93, "duration": 356}, {"note": 75, "velocity": 96, "duration": 236}, {"note": 79, "velocity": 91, "duration": 84}, {"note": 72, "velocity": 106, "duration": 1008}, {"note": 67, "velocity": 81, "duration": 236}, {"note": 75, "velocity": 93, "duration": 356}, {"note": 75, "velocity": 90, "duration": 356}, {"note": 75, "velocity": 80, "duration": 236}, {"note": 79, "velocity": 94, "duration": 476}, {"note": 72, "velocity": 101, "duration": 2396}, {"note": 75, "velocity": 106, "duration": 356}, {"note": 75, "velocity": 98, "duration": 356}, {"note": 75, "velocity": 90, "duration": 236}, {"note": 80, "velocity": 100, "duration": 476}, {"note": 77, "velocity": 109, "duration": 435}, {"note": 68, "velocity": 85, "duration": 236}, {"note": 68, "velocity": 91, "duration": 236}, {"note": 72, "velocity": 97, "duration": 476}, {"note": 72, "velocity": 103, "duration": 476}, {"note": 70, "velocity": 94, "duration": 2636}, {"note": 75, "velocity": 99, "duration": 356}, {"note": 75, "velocity": 91, "duration": 356}, {"note": 75, "velocity": 92, "duration": 236}, {"note": 79, "velocity": 101, "duration": 476}, {"note": 72, "velocity": 94, "duration": 2396}, {"note": 75, "velocity": 108, "duration": 356}, {"note": 75, "velocity": 97, "duration": 356}, {"note": 75, "velocity": 94, "duration": 236}, {"note": 79, "velocity": 105, "duration": 476}, {"note": 72, "velocity": 99, "duration": 2396}, {"note": 75, "velocity": 95, "duration": 236}, {"note": 75, "velocity": 97, "duration": 356}, {"note": 75, "velocity": 93, "duration": 356}, {"note": 80, "velocity": 106, "duration": 476}, {"note": 77, "velocity": 108, "duration": 673}, {"note": 77, "velocity": 101, "duration": 476}, {"note": 77, "velocity": 93, "duration": 236}, {"note": 77, "velocity": 94, "duration": 476}, {"note": 77, "velocity": 93, "duration": 716}, {"note": 75, "velocity": 90, "duration": 6236}, {"note": 68, "velocity": 66, "duration": 236}, {"note": 68, "velocity": 68, "duration": 236}, {"note": 70, "velocity": 61, "duration": 236}, {"note": 68, "velocity": 61, "duration": 236}, {"note": 72, "velocity": 66, "duration": 116}, {"note": 70, "velocity": 63, "duration": 116}, {"note": 72, "velocity": 66, "duration": 2396}, {"note": 63, "velocity": 66, "duration": 236}, {"note": 75, "velocity": 79, "duration": 356}, {"note": 75, "velocity": 66, "duration": 356}, {"note": 75, "velocity": 66, "duration": 236}, {"note": 70, "velocity": 58, "duration": 476}, {"note": 70, "velocity": 69, "duration": 2396}, {"note": 70, "velocity": 74, "duration": 236}, {"note": 70, "velocity": 80, "duration": 236}, {"note": 70, "velocity": 66, "duration": 236}, {"note": 68, "velocity": 53, "duration": 236}, {"note": 70, "velocity": 79, "duration": 476}, {"note": 68, "velocity": 63, "duration": 956}, {"note": 65, "velocity": 80, "duration": 236}, {"note": 68, "velocity": 84, "duration": 236}, {"note": 70, "velocity": 87, "duration": 716}, {"note": 72, "velocity": 90, "duration": 476}, {"note": 72, "velocity": 90, "duration": 236}, {"note": 72, "velocity": 90, "duration": 236}, {"note": 73, "velocity": 98, "duration": 236}, {"note": 72, "velocity": 98, "duration": 1516}, {"note": 63, "velocity": 69, "duration": 236}, {"note": 68, "velocity": 87, "duration": 476}, {"note": 70, "velocity": 87, "duration": 236}, {"note": 68, "velocity": 74, "duration": 236}, {"note": 72, "velocity": 91, "duration": 2636}, {"note": 63, "velocity": 85, "duration": 236}, {"note": 75, "velocity": 78, "duration": 236}, {"note": 75, "velocity": 77, "duration": 476}, {"note": 75, "velocity": 84, "duration": 236}, {"note": 70, "velocity": 92, "duration": 356}, {"note": 70, "velocity": 67, "duration": 2036}, {"note": 63, "velocity": 57, "duration": 476}, {"note": 70, "velocity": 90, "duration": 236}, {"note": 70, "velocity": 90, "duration": 236}, {"note": 70, "velocity": 90, "duration": 236}, {"note": 68, "velocity": 85, "duration": 236}, {"note": 70, "velocity": 105, "duration": 476}, {"note": 68, "velocity": 81, "duration": 956}, {"note": 65, "velocity": 85, "duration": 236}, {"note": 68, "velocity": 96, "duration": 236}, {"note": 70, "velocity": 100, "duration": 476}, {"note": 68, "velocity": 91, "duration": 13}, {"note": 72, "velocity": 94, "duration": 236}, {"note": 70, "velocity": 85, "duration": 476}, {"note": 70, "velocity": 96, "duration": 476}, {"note": 68, "velocity": 68, "duration": 2636}, {"note": 75, "velocity": 87, "duration": 236}, {"note": 75, "velocity": 91, "duration": 716}, {"note": 75, "velocity": 96, "duration": 236}, {"note": 79, "velocity": 98, "duration": 716}, {"note": 77, "velocity": 94, "duration": 447}, {"note": 77, "velocity": 87, "duration": 236}, {"note": 77, "velocity": 91, "duration": 366}, {"note": 75, "velocity": 103, "duration": 716}, {"note": 75, "velocity": 105, "duration": 236}, {"note": 75, "velocity": 96, "duration": 356}, {"note": 75, "velocity": 90, "duration": 323}, {"note": 68, "velocity": 91, "duration": 137}, {"note": 72, "velocity": 99, "duration": 2968}, {"note": 77, "velocity": 93, "duration": 236}, {"note": 77, "velocity": 91, "duration": 236}, {"note": 77, "velocity": 93, "duration": 476}, {"note": 75, "velocity": 87, "duration": 236}, {"note": 75, "velocity": 79, "duration": 716}, {"note": 73, "velocity": 97, "duration": 476}, {"note": 68, "velocity": 72, "duration": 236}, {"note": 72, "velocity": 68, "duration": 225}, {"note": 72, "velocity": 87, "duration": 144}, {"note": 0, "velocity": 0, "duration": 124}, {"note": 70, "velocity": 64, "duration": 1701}, {"note": 75, "velocity": 108, "duration": 236}, {"note": 75, "velocity": 96, "duration": 476}, {"note": 75, "velocity": 95, "duration": 236}, {"note": 79, "velocity": 103, "duration": 476}, {"note": 79, "velocity": 108, "duration": 1676}, {"note": 79, "velocity": 100, "duration": 716}, {"note": 79, "velocity": 100, "duration": 236}, {"note": 72, "velocity": 77, "duration": 236}, {"note": 72, "velocity": 81, "duration": 476}, {"note": 72, "velocity": 91, "duration": 236}, {"note": 81, "velocity": 96, "duration": 3116}, {"note": 77, "velocity": 87, "duration": 236}, {"note": 77, "velocity": 66, "duration": 236}, {"note": 77, "velocity": 87, "duration": 476}, {"note": 75, "velocity": 81, "duration": 476}, {"note": 75, "velocity": 87, "duration": 476}, {"note": 73, "velocity": 59, "duration": 236}, {"note": 75, "velocity": 82, "duration": 476}, {"note": 73, "velocity": 89, "duration": 476}, {"note": 73, "velocity": 87, "duration": 236}, {"note": 73, "velocity": 97, "duration": 236}, {"note": 73, "velocity": 93, "duration": 476}, {"note": 73, "velocity": 86, "duration": 236}, {"note": 75, "velocity": 91, "duration": 476}, {"note": 75, "velocity": 98, "duration": 6236}, {"note": 75, "velocity": 101, "duration": 301}, {"note": 75, "velocity": 93, "duration": 356}, {"note": 75, "velocity": 96, "duration": 236}, {"note": 79, "velocity": 91, "duration": 18}, {"note": 72, "velocity": 106, "duration": 942}, {"note": 75, "velocity": 81, "duration": 236}, {"note": 75, "velocity": 93, "duration": 356}, {"note": 75, "velocity": 90, "duration": 356}, {"note": 75, "velocity": 80, "duration": 236}, {"note": 79, "velocity": 94, "duration": 476}, {"note": 72, "velocity": 101, "duration": 2396}, {"note": 75, "velocity": 106, "duration": 356}, {"note": 75, "velocity": 98, "duration": 356}, {"note": 75, "velocity": 90, "duration": 236}, {"note": 80, "velocity": 100, "duration": 476}, {"note": 77, "velocity": 109, "duration": 158}, {"note": 68, "velocity": 100, "duration": 236}, {"note": 68, "velocity": 85, "duration": 236}, {"note": 68, "velocity": 91, "duration": 236}, {"note": 72, "velocity": 97, "duration": 476}, {"note": 72, "velocity": 103, "duration": 236}, {"note": 72, "velocity": 103, "duration": 236}, {"note": 70, "velocity": 94, "duration": 2396}, {"note": 75, "velocity": 87, "duration": 236}, {"note": 75, "velocity": 99, "duration": 236}, {"note": 75, "velocity": 91, "duration": 356}, {"note": 75, "velocity": 92, "duration": 356}, {"note": 79, "velocity": 101, "duration": 476}, {"note": 72, "velocity": 94, "duration": 2156}, {"note": 75, "velocity": 100, "duration": 236}, {"note": 75, "velocity": 108, "duration": 236}, {"note": 75, "velocity": 97, "duration": 356}, {"note": 75, "velocity": 94, "duration": 356}, {"note": 79, "velocity": 105, "duration": 476}, {"note": 72, "velocity": 99, "duration": 2396}, {"note": 75, "velocity": 95, "duration": 356}, {"note": 75, "velocity": 97, "duration": 356}, {"note": 75, "velocity": 93, "duration": 236}, {"note": 80, "velocity": 106, "duration": 476}, {"note": 77, "velocity": 108, "duration": 367}, {"note": 77, "velocity": 98, "duration": 476}, {"note": 77, "velocity": 98, "duration": 236}, {"note": 77, "velocity": 103, "duration": 356}, {"note": 77, "velocity": 99, "duration": 356}, {"note": 77, "velocity": 97, "duration": 236}, {"note": 77, "velocity": 106, "duration": 476}, {"note": 75, "velocity": 97, "duration": 2346}, {"note": 77, "velocity": 99, "duration": 373}, {"note": 77, "velocity": 97, "duration": 335}, {"note": 77, "velocity": 95, "duration": 306}, {"note": 81, "velocity": 99, "duration": 470}, {"note": 74, "velocity": 101, "duration": 2386}, {"note": 77, "velocity": 101, "duration": 257}, {"note": 77, "velocity": 93, "duration": 356}, {"note": 77, "velocity": 96, "duration": 236}, {"note": 81, "velocity": 91, "duration": 476}, {"note": 74, "velocity": 106, "duration": 1137}, {"note": 77, "velocity": 81, "duration": 236}, {"note": 77, "velocity": 93, "duration": 236}, {"note": 77, "velocity": 90, "duration": 236}, {"note": 77, "velocity": 80, "duration": 236}, {"note": 82, "velocity": 94, "duration": 356}, {"note": 79, "velocity": 101, "duration": 2036}, {"note": 79, "velocity": 111, "duration": 236}, {"note": 79, "velocity": 99, "duration": 196}, {"note": 79, "velocity": 106, "duration": 236}, {"note": 79, "velocity": 97, "duration": 476}, {"note": 79, "velocity": 101, "duration": 617}, {"note": 77, "velocity": 63, "duration": 1759}, {"note": 77, "velocity": 98, "duration": 236}, {"note": 77, "velocity": 98, "duration": 356}, {"note": 77, "velocity": 97, "duration": 356}, {"note": 77, "velocity": 92, "duration": 236}, {"note": 81, "velocity": 97, "duration": 716}, {"note": 74, "velocity": 93, "duration": 162}, {"note": 77, "velocity": 96, "duration": 236}, {"note": 77, "velocity": 93, "duration": 356}, {"note": 77, "velocity": 98, "duration": 218}, {"note": 77, "velocity": 100, "duration": 236}, {"note": 81, "velocity": 99, "duration": 167}, {"note": 81, "velocity": 107, "duration": 1538}, {"note": 77, "velocity": 96, "duration": 356}, {"note": 77, "velocity": 93, "duration": 356}, {"note": 77, "velocity": 94, "duration": 236}, {"note": 82, "velocity": 101, "duration": 476}, {"note": 79, "velocity": 103, "duration": 1916}, {"note": 79, "velocity": 94, "duration": 236}, {"note": 79, "velocity": 99, "duration": 356}, {"note": 0, "velocity": 0, "duration": 124}, {"note": 79, "velocity": 97, "duration": 236}, {"note": 79, "velocity": 93, "duration": 356}, {"note": 79, "velocity": 95, "duration": 116}, {"note": 0, "velocity": 0, "duration": 124}, {"note": 79, "velocity": 98, "duration": 476}, {"note": 77, "velocity": 66, "duration": 24581}]]