[[{"note": 66, "velocity": 61, "duration": 6}, {"note": 73, "velocity": 87, "duration": 183}, {"note": 73, "velocity": 90, "duration": 169}, {"note": 78, "velocity": 83, "duration": 236}, {"note": 71, "velocity": 79, "duration": 9}, {"note": 69, "velocity": 86, "duration": 466}, {"note": 68, "velocity": 79, "duration": 476}, {"note": 69, "velocity": 94, "duration": 476}, {"note": 68, "velocity": 93, "duration": 476}, {"note": 66, "velocity": 68, "duration": 476}, {"note": 64, "velocity": 66, "duration": 236}, {"note": 66, "velocity": 66, "duration": 236}, {"note": 66, "velocity": 86, "duration": 956}, {"note": 69, "velocity": 99, "duration": 476}, {"note": 71, "velocity": 83, "duration": 476}, {"note": 73, "velocity": 97, "duration": 476}, {"note": 71, "velocity": 91, "duration": 476}, {"note": 71, "velocity": 91, "duration": 476}, {"note": 69, "velocity": 79, "duration": 476}, {"note": 68, "velocity": 98, "duration": 476}, {"note": 66, "velocity": 77, "duration": 31}, {"note": 64, "velocity": 95, "duration": 30}, {"note": 73, "velocity": 103, "duration": 0}, {"note": 69, "velocity": 91, "duration": 476}, {"note": 71, "velocity": 77, "duration": 476}, {"note": 73, "velocity": 95, "duration": 956}, {"note": 71, "velocity": 96, "duration": 476}, {"note": 69, "velocity": 89, "duration": 476}, {"note": 71, "velocity": 100, "duration": 956}, {"note": 68, "velocity": 97, "duration": 476}, {"note": 69, "velocity": 91, "duration": 476}, {"note": 71, "velocity": 86, "duration": 476}, {"note": 73, "velocity": 86, "duration": 476}, {"note": 71, "velocity": 90, "duration": 476}, {"note": 64, "velocity": 87, "duration": 476}, {"note": 66, "velocity": 87, "duration": 10}, {"note": 66, "velocity": 84, "duration": 355}, {"note": 68, "velocity": 83, "duration": 476}, {"note": 69, "velocity": 90, "duration": 233}, {"note": 69, "velocity": 93, "duration": 182}, {"note": 71, "velocity": 84, "duration": 280}, {"note": 69, "velocity": 93, "duration": 476}, {"note": 68, "velocity": 96, "duration": 476}, {"note": 66, "velocity": 91, "duration": 476}, {"note": 64, "velocity": 80, "duration": 476}, {"note": 66, "velocity": 84, "duration": 476}, {"note": 66, "velocity": 91, "duration": 3596}, {"note": 66, "velocity": 85, "duration": 236}, {"note": 73, "velocity": 97, "duration": 956}, {"note": 73, "velocity": 97, "duration": 476}, {"note": 78, "velocity": 87, "duration": 236}, {"note": 71, "velocity": 98, "duration": 1196}, {"note": 69, "velocity": 97, "duration": 476}, {"note": 68, "velocity": 91, "duration": 476}, {"note": 69, "velocity": 95, "duration": 476}, {"note": 68, "velocity": 67, "duration": 476}, {"note": 66, "velocity": 85, "duration": 476}, {"note": 64, "velocity": 96, "duration": 476}, {"note": 66, "velocity": 96, "duration": 956}, {"note": 69, "velocity": 100, "duration": 476}, {"note": 71, "velocity": 91, "duration": 476}, {"note": 73, "velocity": 90, "duration": 476}, {"note": 71, "velocity": 90, "duration": 476}, {"note": 71, "velocity": 90, "duration": 476}, {"note": 69, "velocity": 77, "duration": 476}, {"note": 68, "velocity": 84, "duration": 476}, {"note": 66, "velocity": 71, "duration": 476}, {"note": 64, "velocity": 84, "duration": 476}, {"note": 73, "velocity": 87, "duration": 476}, {"note": 73, "velocity": 103, "duration": 2876}, {"note": 69, "velocity": 98, "duration": 476}, {"note": 71, "velocity": 90, "duration": 476}, {"note": 73, "velocity": 97, "duration": 297}, {"note": 71, "velocity": 97, "duration": 476}, {"note": 69, "velocity": 89, "duration": 476}, {"note": 71, "velocity": 97, "duration": 956}, {"note": 68, "velocity": 90, "duration": 476}, {"note": 69, "velocity": 87, "duration": 476}, {"note": 71, "velocity": 91, "duration": 476}, {"note": 73, "velocity": 84, "duration": 476}, {"note": 71, "velocity": 79, "duration": 476}, {"note": 64, "velocity": 64, "duration": 476}, {"note": 66, "velocity": 91, "duration": 956}, {"note": 66, "velocity": 98, "duration": 476}, {"note": 68, "velocity": 85, "duration": 476}, {"note": 69, "velocity": 93, "duration": 716}, {"note": 69, "velocity": 97, "duration": 236}, {"note": 71, "velocity": 81, "duration": 476}, {"note": 69, "velocity": 94, "duration": 476}, {"note": 68, "velocity": 97, "duration": 476}, {"note": 66, "velocity": 85, "duration": 476}, {"note": 64, "velocity": 90, "duration": 476}, {"note": 66, "velocity": 92, "duration": 956}, {"note": 66, "velocity": 92, "duration": 2876}, {"note": 73, "velocity": 100, "duration": 476}, {"note": 78, "velocity": 97, "duration": 830}, {"note": 78, "velocity": 98, "duration": 476}, {"note": 76, "velocity": 85, "duration": 476}, {"note": 71, "velocity": 86, "duration": 476}, {"note": 73, "velocity": 66, "duration": 476}, {"note": 76, "velocity": 76, "duration": 476}, {"note": 73, "velocity": 91, "duration": 476}, {"note": 66, "velocity": 90, "duration": 476}, {"note": 78, "velocity": 101, "duration": 476}, {"note": 76, "velocity": 91, "duration": 716}, {"note": 71, "velocity": 74, "duration": 236}, {"note": 73, "velocity": 96, "duration": 1436}, {"note": 73, "velocity": 99, "duration": 236}, {"note": 71, "velocity": 97, "duration": 236}, {"note": 69, "velocity": 96, "duration": 716}, {"note": 69, "velocity": 90, "duration": 236}, {"note": 69, "velocity": 94, "duration": 476}, {"note": 66, "velocity": 85, "duration": 476}, {"note": 73, "velocity": 95, "duration": 476}, {"note": 71, "velocity": 99, "duration": 1196}, {"note": 66, "velocity": 85, "duration": 236}, {"note": 78, "velocity": 90, "duration": 716}, {"note": 76, "velocity": 93, "duration": 236}, {"note": 78, "velocity": 89, "duration": 476}, {"note": 76, "velocity": 93, "duration": 476}, {"note": 73, "velocity": 99, "duration": 1436}, {"note": 73, "velocity": 106, "duration": 476}, {"note": 78, "velocity": 96, "duration": 716}, {"note": 78, "velocity": 97, "duration": 236}, {"note": 78, "velocity": 98, "duration": 476}, {"note": 73, "velocity": 97, "duration": 476}, {"note": 71, "velocity": 98, "duration": 716}, {"note": 73, "velocity": 98, "duration": 236}, {"note": 76, "velocity": 105, "duration": 476}, {"note": 73, "velocity": 105, "duration": 476}, {"note": 66, "velocity": 93, "duration": 476}, {"note": 78, "velocity": 90, "duration": 476}, {"note": 78, "velocity": 94, "duration": 476}, {"note": 76, "velocity": 100, "duration": 476}, {"note": 73, "velocity": 98, "duration": 1436}, {"note": 73, "velocity": 98, "duration": 236}, {"note": 71, "velocity": 97, "duration": 236}, {"note": 69, "velocity": 101, "duration": 716}, {"note": 69, "velocity": 106, "duration": 236}, {"note": 69, "velocity": 100, "duration": 476}, {"note": 66, "velocity": 96, "duration": 476}, {"note": 71, "velocity": 106, "duration": 716}, {"note": 73, "velocity": 111, "duration": 236}, {"note": 73, "velocity": 95, "duration": 476}, {"note": 71, "velocity": 105, "duration": 476}, {"note": 66, "velocity": 96, "duration": 476}, {"note": 69, "velocity": 90, "duration": 476}, {"note": 69, "velocity": 101, "duration": 476}, {"note": 73, "velocity": 109, "duration": 476}, {"note": 73, "velocity": 111, "duration": 2636}, {"note": 61, "velocity": 81, "duration": 236}, {"note": 69, "velocity": 91, "duration": 476}, {"note": 68, "velocity": 96, "duration": 476}, {"note": 64, "velocity": 100, "duration": 476}, {"note": 66, "velocity": 98, "duration": 2231}, {"note": 0, "velocity": 0, "duration": 37369}, {"note": 66, "velocity": 61, "duration": 25}, {"note": 73, "velocity": 87, "duration": 202}, {"note": 73, "velocity": 90, "duration": 188}, {"note": 78, "velocity": 83, "duration": 236}, {"note": 71, "velocity": 79, "duration": 4}, {"note": 69, "velocity": 86, "duration": 476}, {"note": 68, "velocity": 79, "duration": 476}, {"note": 69, "velocity": 94, "duration": 476}, {"note": 68, "velocity": 93, "duration": 476}, {"note": 66, "velocity": 68, "duration": 476}, {"note": 64, "velocity": 66, "duration": 236}, {"note": 66, "velocity": 66, "duration": 236}, {"note": 66, "velocity": 86, "duration": 956}, {"note": 69, "velocity": 99, "duration": 476}, {"note": 71, "velocity": 83, "duration": 476}, {"note": 73, "velocity": 97, "duration": 476}, {"note": 71, "velocity": 91, "duration": 476}, {"note": 71, "velocity": 91, "duration": 476}, {"note": 69, "velocity": 79, "duration": 476}, {"note": 68, "velocity": 98, "duration": 716}, {"note": 66, "velocity": 77, "duration": 236}, {"note": 64, "velocity": 95, "duration": 50}, {"note": 73, "velocity": 103, "duration": 49}, {"note": 73, "velocity": 103, "duration": 17}, {"note": 69, "velocity": 91, "duration": 476}, {"note": 71, "velocity": 77, "duration": 476}, {"note": 73, "velocity": 95, "duration": 956}, {"note": 71, "velocity": 96, "duration": 476}, {"note": 69, "velocity": 89, "duration": 236}, {"note": 71, "velocity": 89, "duration": 236}, {"note": 71, "velocity": 100, "duration": 948}, {"note": 68, "velocity": 97, "duration": 476}, {"note": 69, "velocity": 91, "duration": 476}, {"note": 71, "velocity": 86, "duration": 476}, {"note": 73, "velocity": 86, "duration": 476}, {"note": 71, "velocity": 90, "duration": 476}, {"note": 64, "velocity": 87, "duration": 476}, {"note": 66, "velocity": 87, "duration": 16}, {"note": 66, "velocity": 84, "duration": 374}, {"note": 68, "velocity": 83, "duration": 476}, {"note": 69, "velocity": 90, "duration": 252}, {"note": 69, "velocity": 93, "duration": 201}, {"note": 71, "velocity": 84, "duration": 299}, {"note": 69, "velocity": 93, "duration": 476}, {"note": 68, "velocity": 96, "duration": 476}, {"note": 66, "velocity": 91, "duration": 476}, {"note": 64, "velocity": 80, "duration": 476}, {"note": 66, "velocity": 84, "duration": 956}, {"note": 66, "velocity": 91, "duration": 2876}, {"note": 73, "velocity": 100, "duration": 476}, {"note": 78, "velocity": 97, "duration": 849}, {"note": 78, "velocity": 98, "duration": 476}, {"note": 76, "velocity": 85, "duration": 476}, {"note": 71, "velocity": 86, "duration": 716}, {"note": 73, "velocity": 66, "duration": 356}, {"note": 76, "velocity": 76, "duration": 356}, {"note": 73, "velocity": 91, "duration": 476}, {"note": 66, "velocity": 90, "duration": 476}, {"note": 78, "velocity": 101, "duration": 476}, {"note": 76, "velocity": 91, "duration": 716}, {"note": 71, "velocity": 74, "duration": 236}, {"note": 73, "velocity": 96, "duration": 1436}, {"note": 73, "velocity": 99, "duration": 236}, {"note": 71, "velocity": 97, "duration": 236}, {"note": 69, "velocity": 96, "duration": 716}, {"note": 69, "velocity": 90, "duration": 236}, {"note": 69, "velocity": 94, "duration": 476}, {"note": 66, "velocity": 85, "duration": 476}, {"note": 73, "velocity": 95, "duration": 476}, {"note": 71, "velocity": 99, "duration": 1196}, {"note": 66, "velocity": 85, "duration": 236}, {"note": 78, "velocity": 90, "duration": 716}, {"note": 76, "velocity": 93, "duration": 236}, {"note": 78, "velocity": 89, "duration": 476}, {"note": 76, "velocity": 93, "duration": 476}, {"note": 73, "velocity": 99, "duration": 1436}, {"note": 73, "velocity": 106, "duration": 476}, {"note": 78, "velocity": 96, "duration": 716}, {"note": 78, "velocity": 97, "duration": 236}, {"note": 78, "velocity": 98, "duration": 476}, {"note": 73, "velocity": 97, "duration": 476}, {"note": 71, "velocity": 98, "duration": 716}, {"note": 73, "velocity": 98, "duration": 236}, {"note": 76, "velocity": 105, "duration": 476}, {"note": 73, "velocity": 105, "duration": 476}, {"note": 66, "velocity": 93, "duration": 476}, {"note": 78, "velocity": 90, "duration": 476}, {"note": 78, "velocity": 94, "duration": 476}, {"note": 76, "velocity": 100, "duration": 476}, {"note": 73, "velocity": 98, "duration": 1436}, {"note": 73, "velocity": 98, "duration": 236}, {"note": 71, "velocity": 97, "duration": 236}, {"note": 69, "velocity": 101, "duration": 716}, {"note": 69, "velocity": 106, "duration": 236}, {"note": 69, "velocity": 100, "duration": 476}, {"note": 66, "velocity": 96, "duration": 476}, {"note": 71, "velocity": 106, "duration": 716}, {"note": 73, "velocity": 111, "duration": 236}, {"note": 73, "velocity": 95, "duration": 356}, {"note": 71, "velocity": 105, "duration": 596}, {"note": 66, "velocity": 96, "duration": 476}, {"note": 69, "velocity": 90, "duration": 476}, {"note": 69, "velocity": 101, "duration": 476}, {"note": 73, "velocity": 109, "duration": 476}, {"note": 73, "velocity": 111, "duration": 2516}, {"note": 61, "velocity": 81, "duration": 356}, {"note": 69, "velocity": 91, "duration": 356}, {"note": 68, "velocity": 96, "duration": 596}, {"note": 64, "velocity": 100, "duration": 476}, {"note": 66, "velocity": 98, "duration": 2876}, {"note": 73, "velocity": 100, "duration": 476}, {"note": 78, "velocity": 97, "duration": 825}, {"note": 78, "velocity": 98, "duration": 476}, {"note": 73, "velocity": 85, "duration": 476}, {"note": 71, "velocity": 86, "duration": 716}, {"note": 73, "velocity": 66, "duration": 236}, {"note": 76, "velocity": 76, "duration": 476}, {"note": 73, "velocity": 91, "duration": 476}, {"note": 66, "velocity": 90, "duration": 476}, {"note": 78, "velocity": 101, "duration": 476}, {"note": 76, "velocity": 91, "duration": 476}, {"note": 71, "velocity": 74, "duration": 476}, {"note": 73, "velocity": 96, "duration": 1436}, {"note": 73, "velocity": 99, "duration": 236}, {"note": 71, "velocity": 97, "duration": 236}, {"note": 69, "velocity": 96, "duration": 716}, {"note": 69, "velocity": 90, "duration": 236}, {"note": 69, "velocity": 94, "duration": 476}, {"note": 66, "velocity": 85, "duration": 476}, {"note": 73, "velocity": 95, "duration": 476}, {"note": 71, "velocity": 99, "duration": 1196}, {"note": 66, "velocity": 85, "duration": 236}, {"note": 78, "velocity": 90, "duration": 716}, {"note": 76, "velocity": 93, "duration": 236}, {"note": 78, "velocity": 89, "duration": 476}, {"note": 76, "velocity": 93, "duration": 476}, {"note": 73, "velocity": 99, "duration": 1436}, {"note": 73, "velocity": 106, "duration": 476}, {"note": 78, "velocity": 96, "duration": 716}, {"note": 78, "velocity": 97, "duration": 236}, {"note": 78, "velocity": 98, "duration": 476}, {"note": 73, "velocity": 97, "duration": 476}, {"note": 71, "velocity": 98, "duration": 716}, {"note": 73, "velocity": 98, "duration": 236}, {"note": 76, "velocity": 105, "duration": 476}, {"note": 73, "velocity": 105, "duration": 476}, {"note": 66, "velocity": 93, "duration": 476}, {"note": 78, "velocity": 90, "duration": 476}, {"note": 78, "velocity": 94, "duration": 476}, {"note": 76, "velocity": 100, "duration": 476}, {"note": 73, "velocity": 98, "duration": 1436}, {"note": 73, "velocity": 98, "duration": 236}, {"note": 71, "velocity": 97, "duration": 236}, {"note": 69, "velocity": 101, "duration": 716}, {"note": 69, "velocity": 106, "duration": 236}, {"note": 69, "velocity": 100, "duration": 476}, {"note": 66, "velocity": 96, "duration": 476}, {"note": 71, "velocity": 106, "duration": 716}, {"note": 73, "velocity": 111, "duration": 236}, {"note": 73, "velocity": 95, "duration": 476}, {"note": 71, "velocity": 105, "duration": 476}, {"note": 66, "velocity": 96, "duration": 476}, {"note": 69, "velocity": 90, "duration": 476}, {"note": 69, "velocity": 101, "duration": 476}, {"note": 73, "velocity": 109, "duration": 476}, {"note": 73, "velocity": 111, "duration": 2636}, {"note": 61, "velocity": 81, "duration": 236}, {"note": 69, "velocity": 91, "duration": 476}, {"note": 68, "velocity": 96, "duration": 476}, {"note": 64, "velocity": 100, "duration": 476}, {"note": 66, "velocity": 98, "duration": 3314}]]