[[{"note": 77, "velocity": 79, "duration": 237}, {"note": 77, "velocity": 80, "duration": 237}, {"note": 77, "velocity": 84, "duration": 238}, {"note": 70, "velocity": 63, "duration": 238}, {"note": 72, "velocity": 71, "duration": 238}, {"note": 73, "velocity": 62, "duration": 238}, {"note": 77, "velocity": 90, "duration": 237}, {"note": 77, "velocity": 87, "duration": 237}, {"note": 77, "velocity": 87, "duration": 238}, {"note": 70, "velocity": 69, "duration": 238}, {"note": 72, "velocity": 64, "duration": 240}, {"note": 73, "velocity": 79, "duration": 238}, {"note": 77, "velocity": 87, "duration": 237}, {"note": 77, "velocity": 75, "duration": 237}, {"note": 77, "velocity": 72, "duration": 237}, {"note": 77, "velocity": 77, "duration": 238}, {"note": 75, "velocity": 73, "duration": 238}, {"note": 73, "velocity": 74, "duration": 238}, {"note": 70, "velocity": 87, "duration": 98}, {"note": 73, "velocity": 84, "duration": 237}, {"note": 73, "velocity": 93, "duration": 237}, {"note": 73, "velocity": 86, "duration": 238}, {"note": 70, "velocity": 66, "duration": 273}, {"note": 72, "velocity": 74, "duration": 263}, {"note": 73, "velocity": 89, "duration": 238}, {"note": 75, "velocity": 90, "duration": 237}, {"note": 75, "velocity": 90, "duration": 237}, {"note": 75, "velocity": 77, "duration": 237}, {"note": 75, "velocity": 69, "duration": 237}, {"note": 75, "velocity": 87, "duration": 238}, {"note": 68, "velocity": 59, "duration": 238}, {"note": 77, "velocity": 82, "duration": 237}, {"note": 77, "velocity": 75, "duration": 237}, {"note": 77, "velocity": 69, "duration": 237}, {"note": 77, "velocity": 84, "duration": 238}, {"note": 75, "velocity": 89, "duration": 238}, {"note": 73, "velocity": 87, "duration": 240}, {"note": 77, "velocity": 94, "duration": 1437}, {"note": 77, "velocity": 97, "duration": 237}, {"note": 77, "velocity": 84, "duration": 237}, {"note": 77, "velocity": 90, "duration": 238}, {"note": 70, "velocity": 64, "duration": 260}, {"note": 72, "velocity": 81, "duration": 251}, {"note": 73, "velocity": 66, "duration": 238}, {"note": 77, "velocity": 89, "duration": 237}, {"note": 77, "velocity": 90, "duration": 237}, {"note": 77, "velocity": 86, "duration": 238}, {"note": 70, "velocity": 84, "duration": 238}, {"note": 72, "velocity": 68, "duration": 286}, {"note": 73, "velocity": 80, "duration": 238}, {"note": 77, "velocity": 90, "duration": 237}, {"note": 77, "velocity": 96, "duration": 237}, {"note": 77, "velocity": 93, "duration": 238}, {"note": 82, "velocity": 86, "duration": 238}, {"note": 77, "velocity": 79, "duration": 238}, {"note": 73, "velocity": 73, "duration": 238}, {"note": 70, "velocity": 90, "duration": 1438}, {"note": 73, "velocity": 93, "duration": 726}, {"note": 75, "velocity": 89, "duration": 238}, {"note": 73, "velocity": 87, "duration": 478}, {"note": 72, "velocity": 86, "duration": 478}, {"note": 70, "velocity": 87, "duration": 478}, {"note": 68, "velocity": 93, "duration": 541}, {"note": 70, "velocity": 100, "duration": 2878}, {"note": 80, "velocity": 94, "duration": 717}, {"note": 80, "velocity": 91, "duration": 237}, {"note": 80, "velocity": 91, "duration": 477}, {"note": 80, "velocity": 91, "duration": 478}, {"note": 78, "velocity": 92, "duration": 478}, {"note": 75, "velocity": 87, "duration": 478}, {"note": 78, "velocity": 97, "duration": 718}, {"note": 80, "velocity": 93, "duration": 238}, {"note": 78, "velocity": 83, "duration": 238}, {"note": 75, "velocity": 86, "duration": 263}, {"note": 77, "velocity": 99, "duration": 1438}, {"note": 75, "velocity": 94, "duration": 718}, {"note": 75, "velocity": 90, "duration": 237}, {"note": 75, "velocity": 87, "duration": 477}, {"note": 75, "velocity": 103, "duration": 478}, {"note": 73, "velocity": 96, "duration": 478}, {"note": 75, "velocity": 101, "duration": 478}, {"note": 77, "velocity": 96, "duration": 237}, {"note": 77, "velocity": 96, "duration": 237}, {"note": 77, "velocity": 93, "duration": 238}, {"note": 78, "velocity": 89, "duration": 238}, {"note": 77, "velocity": 87, "duration": 238}, {"note": 72, "velocity": 72, "duration": 238}, {"note": 77, "velocity": 89, "duration": 1438}, {"note": 80, "velocity": 99, "duration": 717}, {"note": 80, "velocity": 90, "duration": 237}, {"note": 80, "velocity": 91, "duration": 477}, {"note": 80, "velocity": 98, "duration": 478}, {"note": 78, "velocity": 91, "duration": 478}, {"note": 75, "velocity": 91, "duration": 478}, {"note": 78, "velocity": 98, "duration": 237}, {"note": 78, "velocity": 90, "duration": 237}, {"note": 78, "velocity": 89, "duration": 238}, {"note": 80, "velocity": 93, "duration": 238}, {"note": 78, "velocity": 92, "duration": 238}, {"note": 75, "velocity": 91, "duration": 238}, {"note": 77, "velocity": 98, "duration": 1438}, {"note": 75, "velocity": 105, "duration": 717}, {"note": 75, "velocity": 93, "duration": 237}, {"note": 75, "velocity": 96, "duration": 477}, {"note": 75, "velocity": 98, "duration": 478}, {"note": 73, "velocity": 100, "duration": 478}, {"note": 71, "velocity": 100, "duration": 125}, {"note": 69, "velocity": 100, "duration": 1197}, {"note": 69, "velocity": 95, "duration": 237}, {"note": 69, "velocity": 96, "duration": 478}, {"note": 70, "velocity": 92, "duration": 221}, {"note": 72, "velocity": 91, "duration": 177}, {"note": 77, "velocity": 97, "duration": 3927}, {"note": 77, "velocity": 87, "duration": 237}, {"note": 77, "velocity": 72, "duration": 248}, {"note": 85, "velocity": 90, "duration": 238}, {"note": 84, "velocity": 87, "duration": 94}, {"note": 85, "velocity": 87, "duration": 238}, {"note": 84, "velocity": 89, "duration": 257}, {"note": 85, "velocity": 86, "duration": 188}, {"note": 77, "velocity": 90, "duration": 259}, {"note": 80, "velocity": 105, "duration": 1438}, {"note": 82, "velocity": 91, "duration": 238}, {"note": 80, "velocity": 87, "duration": 243}, {"note": 82, "velocity": 90, "duration": 229}, {"note": 80, "velocity": 89, "duration": 238}, {"note": 82, "velocity": 91, "duration": 247}, {"note": 73, "velocity": 87, "duration": 302}, {"note": 77, "velocity": 98, "duration": 613}, {"note": 78, "velocity": 74, "duration": 174}, {"note": 77, "velocity": 66, "duration": 244}, {"note": 78, "velocity": 79, "duration": 238}, {"note": 77, "velocity": 63, "duration": 285}, {"note": 78, "velocity": 87, "duration": 238}, {"note": 75, "velocity": 82, "duration": 238}, {"note": 77, "velocity": 90, "duration": 238}, {"note": 75, "velocity": 79, "duration": 265}, {"note": 77, "velocity": 77, "duration": 238}, {"note": 75, "velocity": 65, "duration": 248}, {"note": 77, "velocity": 72, "duration": 238}, {"note": 73, "velocity": 72, "duration": 238}, {"note": 75, "velocity": 84, "duration": 237}, {"note": 75, "velocity": 83, "duration": 237}, {"note": 75, "velocity": 84, "duration": 259}, {"note": 77, "velocity": 91, "duration": 238}, {"note": 78, "velocity": 86, "duration": 238}, {"note": 75, "velocity": 91, "duration": 109}, {"note": 77, "velocity": 108, "duration": 482}, {"note": 77, "velocity": 97, "duration": 237}, {"note": 77, "velocity": 87, "duration": 238}, {"note": 85, "velocity": 93, "duration": 238}, {"note": 84, "velocity": 91, "duration": 238}, {"note": 85, "velocity": 90, "duration": 238}, {"note": 84, "velocity": 97, "duration": 238}, {"note": 85, "velocity": 90, "duration": 238}, {"note": 82, "velocity": 100, "duration": 288}, {"note": 84, "velocity": 105, "duration": 1438}, {"note": 82, "velocity": 100, "duration": 238}, {"note": 80, "velocity": 84, "duration": 238}, {"note": 82, "velocity": 87, "duration": 238}, {"note": 84, "velocity": 94, "duration": 238}, {"note": 85, "velocity": 91, "duration": 358}, {"note": 82, "velocity": 90, "duration": 358}, {"note": 80, "velocity": 106, "duration": 1198}, {"note": 78, "velocity": 96, "duration": 718}, {"note": 80, "velocity": 83, "duration": 302}, {"note": 78, "velocity": 93, "duration": 499}, {"note": 77, "velocity": 89, "duration": 478}, {"note": 75, "velocity": 94, "duration": 478}, {"note": 73, "velocity": 92, "duration": 478}, {"note": 75, "velocity": 97, "duration": 237}, {"note": 75, "velocity": 94, "duration": 237}, {"note": 75, "velocity": 91, "duration": 271}, {"note": 77, "velocity": 93, "duration": 238}, {"note": 78, "velocity": 84, "duration": 238}, {"note": 75, "velocity": 90, "duration": 238}, {"note": 72, "velocity": 91, "duration": 1438}, {"note": 73, "velocity": 106, "duration": 478}, {"note": 75, "velocity": 103, "duration": 478}, {"note": 73, "velocity": 91, "duration": 478}, {"note": 72, "velocity": 94, "duration": 547}, {"note": 70, "velocity": 97, "duration": 741}, {"note": 68, "velocity": 89, "duration": 358}, {"note": 70, "velocity": 96, "duration": 2758}, {"note": 0, "velocity": 0, "duration": 122}, {"note": 73, "velocity": 108, "duration": 721}, {"note": 75, "velocity": 97, "duration": 238}, {"note": 73, "velocity": 100, "duration": 478}, {"note": 72, "velocity": 97, "duration": 478}, {"note": 73, "velocity": 106, "duration": 856}, {"note": 72, "velocity": 101, "duration": 598}, {"note": 70, "velocity": 97, "duration": 1481}, {"note": 0, "velocity": 0, "duration": 6679}, {"note": 77, "velocity": 79, "duration": 262}, {"note": 77, "velocity": 80, "duration": 22}, {"note": 0, "velocity": 0, "duration": 218}, {"note": 77, "velocity": 84, "duration": 22}, {"note": 0, "velocity": 0, "duration": 218}, {"note": 70, "velocity": 63, "duration": 263}, {"note": 72, "velocity": 71, "duration": 238}, {"note": 73, "velocity": 62, "duration": 263}, {"note": 77, "velocity": 90, "duration": 262}, {"note": 77, "velocity": 87, "duration": 22}, {"note": 0, "velocity": 0, "duration": 218}, {"note": 77, "velocity": 87, "duration": 22}, {"note": 0, "velocity": 0, "duration": 218}, {"note": 70, "velocity": 69, "duration": 238}, {"note": 72, "velocity": 64, "duration": 238}, {"note": 73, "velocity": 79, "duration": 238}, {"note": 77, "velocity": 87, "duration": 262}, {"note": 77, "velocity": 75, "duration": 22}, {"note": 0, "velocity": 0, "duration": 218}, {"note": 77, "velocity": 72, "duration": 22}, {"note": 0, "velocity": 0, "duration": 218}, {"note": 77, "velocity": 77, "duration": 22}, {"note": 0, "velocity": 0, "duration": 218}, {"note": 75, "velocity": 73, "duration": 238}, {"note": 73, "velocity": 74, "duration": 238}, {"note": 70, "velocity": 87, "duration": 98}, {"note": 73, "velocity": 84, "duration": 238}, {"note": 73, "velocity": 93, "duration": 238}, {"note": 73, "velocity": 86, "duration": 238}, {"note": 70, "velocity": 66, "duration": 238}, {"note": 72, "velocity": 74, "duration": 238}, {"note": 73, "velocity": 89, "duration": 238}, {"note": 75, "velocity": 90, "duration": 238}, {"note": 75, "velocity": 90, "duration": 238}, {"note": 75, "velocity": 77, "duration": 238}, {"note": 75, "velocity": 69, "duration": 238}, {"note": 75, "velocity": 87, "duration": 263}, {"note": 68, "velocity": 59, "duration": 238}, {"note": 77, "velocity": 82, "duration": 238}, {"note": 77, "velocity": 75, "duration": 238}, {"note": 77, "velocity": 69, "duration": 238}, {"note": 77, "velocity": 84, "duration": 263}, {"note": 75, "velocity": 89, "duration": 238}, {"note": 73, "velocity": 87, "duration": 238}, {"note": 77, "velocity": 94, "duration": 1462}, {"note": 77, "velocity": 97, "duration": 22}, {"note": 0, "velocity": 0, "duration": 218}, {"note": 77, "velocity": 84, "duration": 238}, {"note": 77, "velocity": 90, "duration": 263}, {"note": 70, "velocity": 64, "duration": 238}, {"note": 72, "velocity": 81, "duration": 238}, {"note": 73, "velocity": 66, "duration": 263}, {"note": 77, "velocity": 89, "duration": 238}, {"note": 77, "velocity": 90, "duration": 238}, {"note": 77, "velocity": 86, "duration": 263}, {"note": 70, "velocity": 84, "duration": 238}, {"note": 72, "velocity": 68, "duration": 238}, {"note": 73, "velocity": 80, "duration": 238}, {"note": 77, "velocity": 90, "duration": 262}, {"note": 77, "velocity": 96, "duration": 22}, {"note": 0, "velocity": 0, "duration": 218}, {"note": 77, "velocity": 93, "duration": 22}, {"note": 0, "velocity": 0, "duration": 218}, {"note": 82, "velocity": 86, "duration": 238}, {"note": 77, "velocity": 79, "duration": 238}, {"note": 73, "velocity": 73, "duration": 238}, {"note": 70, "velocity": 90, "duration": 1438}, {"note": 73, "velocity": 93, "duration": 718}, {"note": 75, "velocity": 89, "duration": 238}, {"note": 73, "velocity": 87, "duration": 478}, {"note": 72, "velocity": 86, "duration": 478}, {"note": 70, "velocity": 87, "duration": 478}, {"note": 68, "velocity": 93, "duration": 478}, {"note": 70, "velocity": 100, "duration": 2878}, {"note": 80, "velocity": 94, "duration": 718}, {"note": 80, "velocity": 91, "duration": 238}, {"note": 80, "velocity": 91, "duration": 478}, {"note": 80, "velocity": 91, "duration": 478}, {"note": 78, "velocity": 92, "duration": 478}, {"note": 75, "velocity": 87, "duration": 478}, {"note": 78, "velocity": 97, "duration": 718}, {"note": 80, "velocity": 93, "duration": 238}, {"note": 78, "velocity": 83, "duration": 238}, {"note": 75, "velocity": 86, "duration": 238}, {"note": 77, "velocity": 99, "duration": 1438}, {"note": 75, "velocity": 94, "duration": 718}, {"note": 75, "velocity": 90, "duration": 238}, {"note": 75, "velocity": 87, "duration": 478}, {"note": 75, "velocity": 103, "duration": 478}, {"note": 73, "velocity": 96, "duration": 478}, {"note": 75, "velocity": 101, "duration": 478}, {"note": 77, "velocity": 96, "duration": 238}, {"note": 77, "velocity": 96, "duration": 238}, {"note": 77, "velocity": 93, "duration": 238}, {"note": 78, "velocity": 89, "duration": 238}, {"note": 77, "velocity": 87, "duration": 238}, {"note": 72, "velocity": 72, "duration": 478}, {"note": 77, "velocity": 89, "duration": 1198}, {"note": 80, "velocity": 99, "duration": 718}, {"note": 80, "velocity": 90, "duration": 238}, {"note": 80, "velocity": 91, "duration": 478}, {"note": 80, "velocity": 98, "duration": 478}, {"note": 78, "velocity": 91, "duration": 478}, {"note": 75, "velocity": 91, "duration": 478}, {"note": 78, "velocity": 98, "duration": 238}, {"note": 78, "velocity": 90, "duration": 238}, {"note": 78, "velocity": 89, "duration": 238}, {"note": 80, "velocity": 93, "duration": 238}, {"note": 78, "velocity": 92, "duration": 238}, {"note": 75, "velocity": 91, "duration": 478}, {"note": 77, "velocity": 98, "duration": 1198}, {"note": 75, "velocity": 105, "duration": 718}, {"note": 75, "velocity": 93, "duration": 238}, {"note": 75, "velocity": 96, "duration": 478}, {"note": 75, "velocity": 98, "duration": 478}, {"note": 73, "velocity": 100, "duration": 478}, {"note": 71, "velocity": 100, "duration": 99}, {"note": 69, "velocity": 100, "duration": 1198}, {"note": 69, "velocity": 95, "duration": 238}, {"note": 69, "velocity": 96, "duration": 478}, {"note": 70, "velocity": 92, "duration": 179}, {"note": 72, "velocity": 91, "duration": 138}, {"note": 77, "velocity": 97, "duration": 3902}, {"note": 77, "velocity": 87, "duration": 238}, {"note": 77, "velocity": 72, "duration": 238}, {"note": 85, "velocity": 90, "duration": 238}, {"note": 84, "velocity": 87, "duration": 69}, {"note": 85, "velocity": 87, "duration": 238}, {"note": 84, "velocity": 89, "duration": 238}, {"note": 85, "velocity": 86, "duration": 145}, {"note": 77, "velocity": 90, "duration": 238}, {"note": 80, "velocity": 105, "duration": 1463}, {"note": 82, "velocity": 91, "duration": 263}, {"note": 80, "velocity": 87, "duration": 268}, {"note": 82, "velocity": 90, "duration": 254}, {"note": 80, "velocity": 89, "duration": 263}, {"note": 82, "velocity": 91, "duration": 272}, {"note": 73, "velocity": 87, "duration": 327}, {"note": 77, "velocity": 98, "duration": 638}, {"note": 78, "velocity": 74, "duration": 198}, {"note": 77, "velocity": 66, "duration": 269}, {"note": 78, "velocity": 79, "duration": 263}, {"note": 77, "velocity": 63, "duration": 310}, {"note": 78, "velocity": 87, "duration": 263}, {"note": 75, "velocity": 82, "duration": 263}, {"note": 77, "velocity": 90, "duration": 263}, {"note": 75, "velocity": 79, "duration": 291}, {"note": 77, "velocity": 77, "duration": 263}, {"note": 75, "velocity": 65, "duration": 274}, {"note": 77, "velocity": 72, "duration": 263}, {"note": 73, "velocity": 72, "duration": 263}, {"note": 75, "velocity": 84, "duration": 238}, {"note": 75, "velocity": 83, "duration": 238}, {"note": 75, "velocity": 84, "duration": 238}, {"note": 77, "velocity": 91, "duration": 238}, {"note": 78, "velocity": 86, "duration": 238}, {"note": 75, "velocity": 91, "duration": 55}, {"note": 77, "velocity": 108, "duration": 431}, {"note": 77, "velocity": 97, "duration": 238}, {"note": 77, "velocity": 87, "duration": 238}, {"note": 85, "velocity": 93, "duration": 238}, {"note": 84, "velocity": 91, "duration": 238}, {"note": 85, "velocity": 90, "duration": 238}, {"note": 84, "velocity": 97, "duration": 238}, {"note": 85, "velocity": 90, "duration": 238}, {"note": 82, "velocity": 100, "duration": 238}, {"note": 84, "velocity": 105, "duration": 1463}, {"note": 82, "velocity": 100, "duration": 238}, {"note": 80, "velocity": 84, "duration": 238}, {"note": 82, "velocity": 87, "duration": 238}, {"note": 84, "velocity": 94, "duration": 238}, {"note": 85, "velocity": 91, "duration": 238}, {"note": 82, "velocity": 90, "duration": 238}, {"note": 80, "velocity": 106, "duration": 1438}, {"note": 78, "velocity": 96, "duration": 718}, {"note": 80, "velocity": 83, "duration": 238}, {"note": 78, "velocity": 93, "duration": 478}, {"note": 77, "velocity": 89, "duration": 478}, {"note": 75, "velocity": 94, "duration": 478}, {"note": 73, "velocity": 92, "duration": 478}, {"note": 75, "velocity": 97, "duration": 238}, {"note": 75, "velocity": 94, "duration": 238}, {"note": 75, "velocity": 91, "duration": 238}, {"note": 77, "velocity": 93, "duration": 238}, {"note": 78, "velocity": 84, "duration": 238}, {"note": 75, "velocity": 90, "duration": 238}, {"note": 77, "velocity": 91, "duration": 958}, {"note": 77, "velocity": 87, "duration": 238}, {"note": 77, "velocity": 72, "duration": 238}, {"note": 85, "velocity": 90, "duration": 238}, {"note": 84, "velocity": 87, "duration": 238}, {"note": 85, "velocity": 87, "duration": 238}, {"note": 84, "velocity": 89, "duration": 238}, {"note": 85, "velocity": 86, "duration": 238}, {"note": 77, "velocity": 90, "duration": 238}, {"note": 80, "velocity": 105, "duration": 1463}, {"note": 82, "velocity": 91, "duration": 263}, {"note": 80, "velocity": 87, "duration": 268}, {"note": 82, "velocity": 90, "duration": 254}, {"note": 80, "velocity": 89, "duration": 263}, {"note": 82, "velocity": 91, "duration": 272}, {"note": 73, "velocity": 87, "duration": 327}, {"note": 77, "velocity": 98, "duration": 1463}, {"note": 78, "velocity": 74, "duration": 291}, {"note": 77, "velocity": 66, "duration": 269}, {"note": 78, "velocity": 79, "duration": 263}, {"note": 77, "velocity": 63, "duration": 310}, {"note": 78, "velocity": 87, "duration": 263}, {"note": 75, "velocity": 82, "duration": 263}, {"note": 77, "velocity": 90, "duration": 263}, {"note": 75, "velocity": 79, "duration": 291}, {"note": 77, "velocity": 77, "duration": 263}, {"note": 75, "velocity": 65, "duration": 274}, {"note": 77, "velocity": 72, "duration": 263}, {"note": 73, "velocity": 72, "duration": 263}, {"note": 75, "velocity": 84, "duration": 238}, {"note": 75, "velocity": 83, "duration": 238}, {"note": 75, "velocity": 84, "duration": 238}, {"note": 77, "velocity": 91, "duration": 238}, {"note": 78, "velocity": 86, "duration": 238}, {"note": 75, "velocity": 91, "duration": 478}, {"note": 77, "velocity": 108, "duration": 718}, {"note": 77, "velocity": 97, "duration": 238}, {"note": 77, "velocity": 87, "duration": 238}, {"note": 85, "velocity": 93, "duration": 238}, {"note": 84, "velocity": 91, "duration": 238}, {"note": 85, "velocity": 90, "duration": 238}, {"note": 84, "velocity": 97, "duration": 238}, {"note": 85, "velocity": 90, "duration": 238}, {"note": 82, "velocity": 100, "duration": 238}, {"note": 84, "velocity": 105, "duration": 1463}, {"note": 82, "velocity": 100, "duration": 238}, {"note": 80, "velocity": 84, "duration": 238}, {"note": 82, "velocity": 87, "duration": 238}, {"note": 84, "velocity": 94, "duration": 238}, {"note": 85, "velocity": 91, "duration": 238}, {"note": 82, "velocity": 90, "duration": 238}, {"note": 80, "velocity": 106, "duration": 1438}, {"note": 78, "velocity": 96, "duration": 718}, {"note": 80, "velocity": 83, "duration": 478}, {"note": 78, "velocity": 93, "duration": 238}, {"note": 77, "velocity": 89, "duration": 478}, {"note": 75, "velocity": 94, "duration": 478}, {"note": 73, "velocity": 92, "duration": 478}, {"note": 75, "velocity": 97, "duration": 238}, {"note": 75, "velocity": 94, "duration": 238}, {"note": 75, "velocity": 91, "duration": 238}, {"note": 77, "velocity": 93, "duration": 238}, {"note": 78, "velocity": 84, "duration": 238}, {"note": 75, "velocity": 90, "duration": 238}, {"note": 72, "velocity": 91, "duration": 1438}, {"note": 73, "velocity": 106, "duration": 478}, {"note": 75, "velocity": 103, "duration": 718}, {"note": 73, "velocity": 91, "duration": 238}, {"note": 72, "velocity": 94, "duration": 547}, {"note": 70, "velocity": 97, "duration": 478}, {"note": 68, "velocity": 89, "duration": 478}, {"note": 70, "velocity": 96, "duration": 2878}, {"note": 73, "velocity": 108, "duration": 721}, {"note": 75, "velocity": 97, "duration": 238}, {"note": 73, "velocity": 100, "duration": 478}, {"note": 72, "velocity": 97, "duration": 478}, {"note": 73, "velocity": 106, "duration": 958}, {"note": 72, "velocity": 101, "duration": 358}, {"note": 70, "velocity": 97, "duration": 1601}]]