[[{"note": 79, "velocity": 72, "duration": 126}, {"note": 79, "velocity": 65, "duration": 6}, {"note": 0, "velocity": 0, "duration": 234}, {"note": 76, "velocity": 74, "duration": 239}, {"note": 76, "velocity": 68, "duration": 240}, {"note": 74, "velocity": 79, "duration": 239}, {"note": 74, "velocity": 84, "duration": 240}, {"note": 72, "velocity": 71, "duration": 310}, {"note": 74, "velocity": 94, "duration": 506}, {"note": 76, "velocity": 89, "duration": 239}, {"note": 76, "velocity": 98, "duration": 480}, {"note": 67, "velocity": 77, "duration": 239}, {"note": 67, "velocity": 91, "duration": 240}, {"note": 69, "velocity": 89, "duration": 240}, {"note": 74, "velocity": 97, "duration": 480}, {"note": 72, "velocity": 94, "duration": 282}, {"note": 74, "velocity": 96, "duration": 480}, {"note": 76, "velocity": 100, "duration": 499}, {"note": 72, "velocity": 97, "duration": 1680}, {"note": 67, "velocity": 66, "duration": 272}, {"note": 69, "velocity": 68, "duration": 240}, {"note": 74, "velocity": 87, "duration": 480}, {"note": 72, "velocity": 79, "duration": 268}, {"note": 74, "velocity": 91, "duration": 513}, {"note": 76, "velocity": 93, "duration": 509}, {"note": 72, "velocity": 106, "duration": 1680}, {"note": 67, "velocity": 89, "duration": 240}, {"note": 69, "velocity": 77, "duration": 240}, {"note": 74, "velocity": 96, "duration": 480}, {"note": 72, "velocity": 95, "duration": 240}, {"note": 74, "velocity": 98, "duration": 537}, {"note": 76, "velocity": 97, "duration": 479}, {"note": 76, "velocity": 103, "duration": 480}, {"note": 74, "velocity": 105, "duration": 1920}, {"note": 79, "velocity": 90, "duration": 239}, {"note": 79, "velocity": 90, "duration": 240}, {"note": 76, "velocity": 89, "duration": 239}, {"note": 76, "velocity": 94, "duration": 260}, {"note": 74, "velocity": 82, "duration": 239}, {"note": 74, "velocity": 92, "duration": 240}, {"note": 72, "velocity": 94, "duration": 240}, {"note": 74, "velocity": 99, "duration": 507}, {"note": 76, "velocity": 100, "duration": 239}, {"note": 76, "velocity": 100, "duration": 480}, {"note": 67, "velocity": 75, "duration": 239}, {"note": 67, "velocity": 87, "duration": 240}, {"note": 69, "velocity": 85, "duration": 240}, {"note": 74, "velocity": 96, "duration": 480}, {"note": 72, "velocity": 85, "duration": 273}, {"note": 74, "velocity": 93, "duration": 480}, {"note": 79, "velocity": 90, "duration": 495}, {"note": 72, "velocity": 59, "duration": 1680}, {"note": 67, "velocity": 92, "duration": 240}, {"note": 69, "velocity": 92, "duration": 240}, {"note": 74, "velocity": 100, "duration": 480}, {"note": 72, "velocity": 98, "duration": 278}, {"note": 74, "velocity": 98, "duration": 481}, {"note": 76, "velocity": 105, "duration": 480}, {"note": 72, "velocity": 105, "duration": 1680}, {"note": 67, "velocity": 97, "duration": 240}, {"note": 69, "velocity": 90, "duration": 240}, {"note": 74, "velocity": 98, "duration": 480}, {"note": 72, "velocity": 90, "duration": 282}, {"note": 74, "velocity": 92, "duration": 489}, {"note": 76, "velocity": 93, "duration": 479}, {"note": 76, "velocity": 97, "duration": 480}, {"note": 74, "velocity": 108, "duration": 1200}, {"note": 72, "velocity": 100, "duration": 240}, {"note": 74, "velocity": 84, "duration": 252}, {"note": 76, "velocity": 98, "duration": 480}, {"note": 79, "velocity": 91, "duration": 239}, {"note": 79, "velocity": 99, "duration": 492}, {"note": 81, "velocity": 101, "duration": 479}, {"note": 81, "velocity": 105, "duration": 480}, {"note": 79, "velocity": 108, "duration": 1200}, {"note": 76, "velocity": 101, "duration": 239}, {"note": 76, "velocity": 93, "duration": 269}, {"note": 77, "velocity": 98, "duration": 480}, {"note": 76, "velocity": 95, "duration": 243}, {"note": 77, "velocity": 99, "duration": 504}, {"note": 79, "velocity": 97, "duration": 480}, {"note": 74, "velocity": 90, "duration": 281}, {"note": 76, "velocity": 98, "duration": 719}, {"note": 76, "velocity": 101, "duration": 240}, {"note": 74, "velocity": 97, "duration": 252}, {"note": 76, "velocity": 94, "duration": 240}, {"note": 79, "velocity": 90, "duration": 240}, {"note": 76, "velocity": 97, "duration": 256}, {"note": 74, "velocity": 100, "duration": 270}, {"note": 72, "velocity": 76, "duration": 480}, {"note": 69, "velocity": 85, "duration": 239}, {"note": 69, "velocity": 89, "duration": 240}, {"note": 72, "velocity": 90, "duration": 240}, {"note": 81, "velocity": 97, "duration": 251}, {"note": 83, "velocity": 92, "duration": 264}, {"note": 81, "velocity": 108, "duration": 402}, {"note": 79, "velocity": 98, "duration": 1080}, {"note": 76, "velocity": 99, "duration": 240}, {"note": 79, "velocity": 90, "duration": 240}, {"note": 77, "velocity": 97, "duration": 240}, {"note": 76, "velocity": 94, "duration": 240}, {"note": 77, "velocity": 98, "duration": 240}, {"note": 76, "velocity": 93, "duration": 269}, {"note": 77, "velocity": 98, "duration": 240}, {"note": 84, "velocity": 100, "duration": 479}, {"note": 84, "velocity": 109, "duration": 960}, {"note": 81, "velocity": 105, "duration": 240}, {"note": 84, "velocity": 108, "duration": 480}, {"note": 86, "velocity": 99, "duration": 240}, {"note": 81, "velocity": 105, "duration": 480}, {"note": 79, "velocity": 111, "duration": 2639}, {"note": 79, "velocity": 108, "duration": 245}, {"note": 81, "velocity": 96, "duration": 240}, {"note": 84, "velocity": 99, "duration": 242}, {"note": 83, "velocity": 96, "duration": 267}, {"note": 81, "velocity": 97, "duration": 386}, {"note": 79, "velocity": 99, "duration": 599}, {"note": 79, "velocity": 109, "duration": 273}, {"note": 81, "velocity": 98, "duration": 240}, {"note": 84, "velocity": 97, "duration": 240}, {"note": 83, "velocity": 97, "duration": 282}, {"note": 81, "velocity": 106, "duration": 390}, {"note": 79, "velocity": 97, "duration": 599}, {"note": 79, "velocity": 109, "duration": 240}, {"note": 81, "velocity": 96, "duration": 240}, {"note": 84, "velocity": 94, "duration": 258}, {"note": 83, "velocity": 93, "duration": 309}, {"note": 81, "velocity": 106, "duration": 284}, {"note": 79, "velocity": 98, "duration": 479}, {"note": 79, "velocity": 106, "duration": 239}, {"note": 79, "velocity": 105, "duration": 359}, {"note": 79, "velocity": 108, "duration": 360}, {"note": 74, "velocity": 97, "duration": 240}, {"note": 76, "velocity": 103, "duration": 719}, {"note": 76, "velocity": 111, "duration": 240}, {"note": 74, "velocity": 101, "duration": 240}, {"note": 76, "velocity": 96, "duration": 240}, {"note": 79, "velocity": 98, "duration": 240}, {"note": 76, "velocity": 105, "duration": 240}, {"note": 74, "velocity": 106, "duration": 360}, {"note": 72, "velocity": 105, "duration": 360}, {"note": 69, "velocity": 99, "duration": 239}, {"note": 69, "velocity": 100, "duration": 240}, {"note": 72, "velocity": 99, "duration": 240}, {"note": 81, "velocity": 101, "duration": 240}, {"note": 83, "velocity": 93, "duration": 287}, {"note": 81, "velocity": 111, "duration": 411}, {"note": 79, "velocity": 116, "duration": 1080}, {"note": 76, "velocity": 106, "duration": 240}, {"note": 79, "velocity": 106, "duration": 248}, {"note": 77, "velocity": 105, "duration": 480}, {"note": 76, "velocity": 99, "duration": 280}, {"note": 77, "velocity": 99, "duration": 480}, {"note": 84, "velocity": 108, "duration": 480}, {"note": 72, "velocity": 90, "duration": 240}, {"note": 74, "velocity": 101, "duration": 1085}, {"note": 79, "velocity": 103, "duration": 240}, {"note": 81, "velocity": 100, "duration": 240}, {"note": 84, "velocity": 94, "duration": 269}, {"note": 83, "velocity": 100, "duration": 267}, {"note": 81, "velocity": 111, "duration": 360}, {"note": 79, "velocity": 108, "duration": 599}, {"note": 79, "velocity": 108, "duration": 277}, {"note": 81, "velocity": 101, "duration": 240}, {"note": 84, "velocity": 99, "duration": 266}, {"note": 83, "velocity": 99, "duration": 260}, {"note": 81, "velocity": 114, "duration": 457}, {"note": 79, "velocity": 108, "duration": 599}, {"note": 79, "velocity": 109, "duration": 240}, {"note": 81, "velocity": 99, "duration": 240}, {"note": 84, "velocity": 93, "duration": 260}, {"note": 83, "velocity": 99, "duration": 299}, {"note": 81, "velocity": 108, "duration": 360}, {"note": 79, "velocity": 98, "duration": 359}, {"note": 79, "velocity": 97, "duration": 239}, {"note": 79, "velocity": 105, "duration": 359}, {"note": 79, "velocity": 105, "duration": 360}, {"note": 74, "velocity": 89, "duration": 240}, {"note": 76, "velocity": 101, "duration": 719}, {"note": 76, "velocity": 105, "duration": 240}, {"note": 74, "velocity": 97, "duration": 240}, {"note": 76, "velocity": 98, "duration": 240}, {"note": 79, "velocity": 90, "duration": 240}, {"note": 76, "velocity": 100, "duration": 263}, {"note": 74, "velocity": 101, "duration": 240}, {"note": 72, "velocity": 94, "duration": 480}, {"note": 69, "velocity": 94, "duration": 239}, {"note": 69, "velocity": 94, "duration": 240}, {"note": 72, "velocity": 93, "duration": 240}, {"note": 81, "velocity": 103, "duration": 240}, {"note": 83, "velocity": 87, "duration": 240}, {"note": 81, "velocity": 109, "duration": 360}, {"note": 79, "velocity": 109, "duration": 1080}, {"note": 76, "velocity": 103, "duration": 240}, {"note": 79, "velocity": 105, "duration": 278}, {"note": 77, "velocity": 108, "duration": 247}, {"note": 76, "velocity": 97, "duration": 266}, {"note": 77, "velocity": 93, "duration": 240}, {"note": 76, "velocity": 92, "duration": 264}, {"note": 77, "velocity": 100, "duration": 240}, {"note": 84, "velocity": 98, "duration": 480}, {"note": 72, "velocity": 86, "duration": 240}, {"note": 74, "velocity": 90, "duration": 720}, {"note": 67, "velocity": 90, "duration": 240}, {"note": 76, "velocity": 91, "duration": 252}, {"note": 79, "velocity": 84, "duration": 480}, {"note": 81, "velocity": 77, "duration": 255}, {"note": 74, "velocity": 90, "duration": 720}, {"note": 72, "velocity": 85, "duration": 7200}, {"note": 79, "velocity": 72, "duration": 239}, {"note": 79, "velocity": 65, "duration": 240}, {"note": 76, "velocity": 74, "duration": 239}, {"note": 76, "velocity": 68, "duration": 240}, {"note": 74, "velocity": 79, "duration": 239}, {"note": 74, "velocity": 84, "duration": 240}, {"note": 72, "velocity": 71, "duration": 310}, {"note": 74, "velocity": 94, "duration": 480}, {"note": 76, "velocity": 89, "duration": 239}, {"note": 76, "velocity": 98, "duration": 480}, {"note": 67, "velocity": 77, "duration": 239}, {"note": 67, "velocity": 91, "duration": 240}, {"note": 69, "velocity": 89, "duration": 280}, {"note": 74, "velocity": 97, "duration": 480}, {"note": 72, "velocity": 94, "duration": 282}, {"note": 74, "velocity": 96, "duration": 480}, {"note": 76, "velocity": 100, "duration": 499}, {"note": 72, "velocity": 97, "duration": 1680}, {"note": 67, "velocity": 66, "duration": 260}, {"note": 69, "velocity": 68, "duration": 253}, {"note": 74, "velocity": 87, "duration": 480}, {"note": 72, "velocity": 79, "duration": 268}, {"note": 74, "velocity": 91, "duration": 513}, {"note": 76, "velocity": 93, "duration": 480}, {"note": 72, "velocity": 106, "duration": 1680}, {"note": 67, "velocity": 89, "duration": 297}, {"note": 69, "velocity": 77, "duration": 240}, {"note": 74, "velocity": 96, "duration": 480}, {"note": 72, "velocity": 95, "duration": 240}, {"note": 74, "velocity": 98, "duration": 537}, {"note": 76, "velocity": 97, "duration": 479}, {"note": 76, "velocity": 103, "duration": 480}, {"note": 74, "velocity": 105, "duration": 1417}, {"note": 0, "velocity": 0, "duration": 503}, {"note": 79, "velocity": 90, "duration": 239}, {"note": 79, "velocity": 90, "duration": 271}, {"note": 76, "velocity": 89, "duration": 239}, {"note": 76, "velocity": 94, "duration": 380}, {"note": 74, "velocity": 82, "duration": 239}, {"note": 74, "velocity": 92, "duration": 349}, {"note": 72, "velocity": 94, "duration": 240}, {"note": 74, "velocity": 99, "duration": 507}, {"note": 76, "velocity": 100, "duration": 239}, {"note": 76, "velocity": 100, "duration": 480}, {"note": 67, "velocity": 75, "duration": 239}, {"note": 67, "velocity": 87, "duration": 240}, {"note": 69, "velocity": 85, "duration": 240}, {"note": 74, "velocity": 96, "duration": 480}, {"note": 72, "velocity": 85, "duration": 273}, {"note": 74, "velocity": 93, "duration": 480}, {"note": 79, "velocity": 90, "duration": 495}, {"note": 72, "velocity": 59, "duration": 1680}, {"note": 67, "velocity": 92, "duration": 303}, {"note": 69, "velocity": 92, "duration": 240}, {"note": 74, "velocity": 100, "duration": 480}, {"note": 72, "velocity": 98, "duration": 278}, {"note": 74, "velocity": 98, "duration": 481}, {"note": 76, "velocity": 105, "duration": 480}, {"note": 72, "velocity": 105, "duration": 1680}, {"note": 67, "velocity": 97, "duration": 257}, {"note": 69, "velocity": 90, "duration": 240}, {"note": 74, "velocity": 98, "duration": 480}, {"note": 72, "velocity": 90, "duration": 274}, {"note": 74, "velocity": 92, "duration": 489}, {"note": 76, "velocity": 93, "duration": 479}, {"note": 76, "velocity": 97, "duration": 480}, {"note": 74, "velocity": 108, "duration": 1200}, {"note": 72, "velocity": 100, "duration": 240}, {"note": 74, "velocity": 84, "duration": 252}, {"note": 76, "velocity": 98, "duration": 480}, {"note": 79, "velocity": 91, "duration": 239}, {"note": 79, "velocity": 99, "duration": 492}, {"note": 81, "velocity": 101, "duration": 479}, {"note": 81, "velocity": 105, "duration": 480}, {"note": 79, "velocity": 108, "duration": 1200}, {"note": 76, "velocity": 101, "duration": 240}, {"note": 79, "velocity": 93, "duration": 268}, {"note": 77, "velocity": 98, "duration": 527}, {"note": 76, "velocity": 95, "duration": 243}, {"note": 77, "velocity": 99, "duration": 504}, {"note": 79, "velocity": 97, "duration": 480}, {"note": 74, "velocity": 90, "duration": 280}, {"note": 76, "velocity": 98, "duration": 719}, {"note": 76, "velocity": 101, "duration": 240}, {"note": 74, "velocity": 97, "duration": 252}, {"note": 76, "velocity": 94, "duration": 240}, {"note": 79, "velocity": 90, "duration": 240}, {"note": 76, "velocity": 97, "duration": 256}, {"note": 74, "velocity": 100, "duration": 270}, {"note": 72, "velocity": 76, "duration": 480}, {"note": 69, "velocity": 85, "duration": 239}, {"note": 69, "velocity": 89, "duration": 240}, {"note": 72, "velocity": 90, "duration": 240}, {"note": 81, "velocity": 97, "duration": 251}, {"note": 83, "velocity": 92, "duration": 264}, {"note": 81, "velocity": 108, "duration": 402}, {"note": 79, "velocity": 98, "duration": 1080}, {"note": 76, "velocity": 99, "duration": 240}, {"note": 79, "velocity": 90, "duration": 240}, {"note": 77, "velocity": 97, "duration": 240}, {"note": 76, "velocity": 94, "duration": 240}, {"note": 77, "velocity": 98, "duration": 240}, {"note": 76, "velocity": 93, "duration": 269}, {"note": 77, "velocity": 98, "duration": 240}, {"note": 84, "velocity": 100, "duration": 599}, {"note": 84, "velocity": 109, "duration": 840}, {"note": 81, "velocity": 105, "duration": 240}, {"note": 84, "velocity": 108, "duration": 480}, {"note": 86, "velocity": 99, "duration": 240}, {"note": 81, "velocity": 105, "duration": 480}, {"note": 79, "velocity": 111, "duration": 2639}, {"note": 79, "velocity": 108, "duration": 245}, {"note": 81, "velocity": 96, "duration": 240}, {"note": 84, "velocity": 99, "duration": 242}, {"note": 83, "velocity": 96, "duration": 267}, {"note": 81, "velocity": 97, "duration": 386}, {"note": 79, "velocity": 99, "duration": 599}, {"note": 79, "velocity": 109, "duration": 273}, {"note": 81, "velocity": 98, "duration": 240}, {"note": 84, "velocity": 97, "duration": 240}, {"note": 83, "velocity": 97, "duration": 282}, {"note": 81, "velocity": 106, "duration": 390}, {"note": 79, "velocity": 97, "duration": 599}, {"note": 79, "velocity": 109, "duration": 240}, {"note": 81, "velocity": 96, "duration": 240}, {"note": 84, "velocity": 94, "duration": 258}, {"note": 83, "velocity": 93, "duration": 309}, {"note": 81, "velocity": 106, "duration": 284}, {"note": 79, "velocity": 98, "duration": 479}, {"note": 79, "velocity": 106, "duration": 239}, {"note": 79, "velocity": 105, "duration": 359}, {"note": 79, "velocity": 108, "duration": 360}, {"note": 74, "velocity": 97, "duration": 240}, {"note": 76, "velocity": 103, "duration": 719}, {"note": 76, "velocity": 111, "duration": 240}, {"note": 74, "velocity": 101, "duration": 240}, {"note": 76, "velocity": 96, "duration": 240}, {"note": 79, "velocity": 98, "duration": 240}, {"note": 76, "velocity": 105, "duration": 240}, {"note": 74, "velocity": 106, "duration": 292}, {"note": 72, "velocity": 105, "duration": 480}, {"note": 69, "velocity": 99, "duration": 239}, {"note": 69, "velocity": 100, "duration": 240}, {"note": 72, "velocity": 99, "duration": 240}, {"note": 81, "velocity": 101, "duration": 240}, {"note": 83, "velocity": 93, "duration": 288}, {"note": 81, "velocity": 111, "duration": 411}, {"note": 79, "velocity": 116, "duration": 1080}, {"note": 76, "velocity": 106, "duration": 240}, {"note": 79, "velocity": 106, "duration": 248}, {"note": 77, "velocity": 105, "duration": 480}, {"note": 76, "velocity": 99, "duration": 280}, {"note": 77, "velocity": 99, "duration": 480}, {"note": 84, "velocity": 108, "duration": 480}, {"note": 72, "velocity": 90, "duration": 240}, {"note": 74, "velocity": 101, "duration": 1085}, {"note": 79, "velocity": 103, "duration": 250}, {"note": 81, "velocity": 100, "duration": 240}, {"note": 84, "velocity": 94, "duration": 269}, {"note": 83, "velocity": 100, "duration": 267}, {"note": 81, "velocity": 111, "duration": 347}, {"note": 79, "velocity": 108, "duration": 719}, {"note": 79, "velocity": 108, "duration": 277}, {"note": 81, "velocity": 101, "duration": 240}, {"note": 84, "velocity": 99, "duration": 266}, {"note": 83, "velocity": 99, "duration": 260}, {"note": 81, "velocity": 114, "duration": 322}, {"note": 79, "velocity": 108, "duration": 719}, {"note": 79, "velocity": 109, "duration": 240}, {"note": 81, "velocity": 99, "duration": 240}, {"note": 84, "velocity": 93, "duration": 260}, {"note": 83, "velocity": 99, "duration": 299}, {"note": 81, "velocity": 108, "duration": 259}, {"note": 79, "velocity": 98, "duration": 479}, {"note": 79, "velocity": 97, "duration": 239}, {"note": 79, "velocity": 105, "duration": 359}, {"note": 79, "velocity": 105, "duration": 360}, {"note": 74, "velocity": 89, "duration": 240}, {"note": 76, "velocity": 101, "duration": 719}, {"note": 76, "velocity": 105, "duration": 240}, {"note": 74, "velocity": 97, "duration": 240}, {"note": 76, "velocity": 98, "duration": 240}, {"note": 79, "velocity": 90, "duration": 240}, {"note": 76, "velocity": 100, "duration": 263}, {"note": 74, "velocity": 101, "duration": 240}, {"note": 72, "velocity": 94, "duration": 480}, {"note": 69, "velocity": 94, "duration": 239}, {"note": 69, "velocity": 94, "duration": 240}, {"note": 72, "velocity": 93, "duration": 240}, {"note": 81, "velocity": 103, "duration": 240}, {"note": 83, "velocity": 87, "duration": 240}, {"note": 81, "velocity": 109, "duration": 311}, {"note": 79, "velocity": 109, "duration": 1200}, {"note": 76, "velocity": 103, "duration": 240}, {"note": 79, "velocity": 105, "duration": 278}, {"note": 77, "velocity": 108, "duration": 247}, {"note": 76, "velocity": 97, "duration": 266}, {"note": 77, "velocity": 93, "duration": 240}, {"note": 76, "velocity": 92, "duration": 264}, {"note": 77, "velocity": 100, "duration": 240}, {"note": 84, "velocity": 98, "duration": 480}, {"note": 72, "velocity": 86, "duration": 240}, {"note": 74, "velocity": 90, "duration": 720}, {"note": 67, "velocity": 90, "duration": 240}, {"note": 76, "velocity": 91, "duration": 252}, {"note": 79, "velocity": 84, "duration": 360}, {"note": 81, "velocity": 77, "duration": 360}, {"note": 74, "velocity": 90, "duration": 720}, {"note": 72, "velocity": 85, "duration": 2160}, {"note": 79, "velocity": 103, "duration": 240}, {"note": 81, "velocity": 100, "duration": 271}, {"note": 84, "velocity": 94, "duration": 240}, {"note": 83, "velocity": 100, "duration": 268}, {"note": 81, "velocity": 111, "duration": 360}, {"note": 79, "velocity": 108, "duration": 599}, {"note": 79, "velocity": 108, "duration": 278}, {"note": 81, "velocity": 101, "duration": 240}, {"note": 84, "velocity": 99, "duration": 267}, {"note": 83, "velocity": 99, "duration": 261}, {"note": 81, "velocity": 114, "duration": 360}, {"note": 79, "velocity": 108, "duration": 599}, {"note": 79, "velocity": 109, "duration": 240}, {"note": 81, "velocity": 99, "duration": 240}, {"note": 84, "velocity": 93, "duration": 259}, {"note": 83, "velocity": 99, "duration": 299}, {"note": 81, "velocity": 108, "duration": 360}, {"note": 79, "velocity": 98, "duration": 599}, {"note": 79, "velocity": 97, "duration": 434}, {"note": 79, "velocity": 105, "duration": 94}, {"note": 0, "velocity": 0, "duration": 286}, {"note": 74, "velocity": 89, "duration": 240}, {"note": 76, "velocity": 101, "duration": 719}, {"note": 76, "velocity": 105, "duration": 240}, {"note": 74, "velocity": 97, "duration": 240}, {"note": 76, "velocity": 98, "duration": 240}, {"note": 79, "velocity": 90, "duration": 240}, {"note": 76, "velocity": 100, "duration": 263}, {"note": 74, "velocity": 101, "duration": 240}, {"note": 72, "velocity": 94, "duration": 480}, {"note": 69, "velocity": 94, "duration": 239}, {"note": 69, "velocity": 94, "duration": 240}, {"note": 72, "velocity": 93, "duration": 240}, {"note": 81, "velocity": 103, "duration": 240}, {"note": 83, "velocity": 87, "duration": 240}, {"note": 81, "velocity": 109, "duration": 719}, {"note": 79, "velocity": 109, "duration": 960}, {"note": 76, "velocity": 103, "duration": 240}, {"note": 79, "velocity": 105, "duration": 278}, {"note": 77, "velocity": 108, "duration": 480}, {"note": 76, "velocity": 97, "duration": 304}, {"note": 77, "velocity": 93, "duration": 516}, {"note": 84, "velocity": 98, "duration": 360}, {"note": 72, "velocity": 86, "duration": 360}, {"note": 74, "velocity": 90, "duration": 960}, {"note": 79, "velocity": 103, "duration": 240}, {"note": 81, "velocity": 100, "duration": 240}, {"note": 84, "velocity": 94, "duration": 269}, {"note": 83, "velocity": 100, "duration": 268}, {"note": 81, "velocity": 111, "duration": 347}, {"note": 79, "velocity": 108, "duration": 719}, {"note": 79, "velocity": 108, "duration": 277}, {"note": 81, "velocity": 101, "duration": 240}, {"note": 84, "velocity": 99, "duration": 267}, {"note": 83, "velocity": 99, "duration": 260}, {"note": 81, "velocity": 114, "duration": 321}, {"note": 79, "velocity": 108, "duration": 719}, {"note": 79, "velocity": 109, "duration": 240}, {"note": 81, "velocity": 99, "duration": 240}, {"note": 84, "velocity": 93, "duration": 260}, {"note": 83, "velocity": 99, "duration": 299}, {"note": 81, "velocity": 108, "duration": 259}, {"note": 79, "velocity": 98, "duration": 719}, {"note": 79, "velocity": 97, "duration": 359}, {"note": 79, "velocity": 105, "duration": 388}, {"note": 74, "velocity": 89, "duration": 240}, {"note": 76, "velocity": 101, "duration": 719}, {"note": 76, "velocity": 105, "duration": 240}, {"note": 74, "velocity": 97, "duration": 240}, {"note": 76, "velocity": 98, "duration": 240}, {"note": 79, "velocity": 90, "duration": 240}, {"note": 76, "velocity": 100, "duration": 263}, {"note": 74, "velocity": 101, "duration": 240}, {"note": 72, "velocity": 94, "duration": 480}, {"note": 69, "velocity": 94, "duration": 239}, {"note": 69, "velocity": 94, "duration": 240}, {"note": 72, "velocity": 93, "duration": 240}, {"note": 81, "velocity": 103, "duration": 240}, {"note": 83, "velocity": 87, "duration": 240}, {"note": 81, "velocity": 109, "duration": 493}, {"note": 79, "velocity": 109, "duration": 1080}, {"note": 76, "velocity": 103, "duration": 240}, {"note": 79, "velocity": 105, "duration": 278}, {"note": 77, "velocity": 108, "duration": 247}, {"note": 76, "velocity": 97, "duration": 266}, {"note": 77, "velocity": 93, "duration": 240}, {"note": 76, "velocity": 92, "duration": 264}, {"note": 77, "velocity": 100, "duration": 240}, {"note": 84, "velocity": 98, "duration": 480}, {"note": 72, "velocity": 86, "duration": 240}, {"note": 74, "velocity": 90, "duration": 720}, {"note": 67, "velocity": 90, "duration": 240}, {"note": 76, "velocity": 91, "duration": 253}, {"note": 79, "velocity": 84, "duration": 360}, {"note": 81, "velocity": 77, "duration": 360}, {"note": 74, "velocity": 90, "duration": 720}, {"note": 72, "velocity": 85, "duration": 1880}]]