[[{"note": 69, "velocity": 86, "duration": 240}, {"note": 71, "velocity": 86, "duration": 267}, {"note": 72, "velocity": 95, "duration": 719}, {"note": 72, "velocity": 96, "duration": 239}, {"note": 72, "velocity": 91, "duration": 247}, {"note": 71, "velocity": 81, "duration": 244}, {"note": 69, "velocity": 65, "duration": 240}, {"note": 72, "velocity": 87, "duration": 284}, {"note": 71, "velocity": 96, "duration": 720}, {"note": 67, "velocity": 90, "duration": 239}, {"note": 67, "velocity": 97, "duration": 480}, {"note": 69, "velocity": 105, "duration": 13}, {"note": 71, "velocity": 90, "duration": 210}, {"note": 72, "velocity": 98, "duration": 89}, {"note": 72, "velocity": 97, "duration": 239}, {"note": 72, "velocity": 92, "duration": 239}, {"note": 72, "velocity": 92, "duration": 239}, {"note": 72, "velocity": 91, "duration": 239}, {"note": 72, "velocity": 96, "duration": 239}, {"note": 72, "velocity": 90, "duration": 256}, {"note": 76, "velocity": 97, "duration": 239}, {"note": 76, "velocity": 93, "duration": 239}, {"note": 76, "velocity": 101, "duration": 480}, {"note": 74, "velocity": 89, "duration": 525}, {"note": 69, "velocity": 95, "duration": 240}, {"note": 71, "velocity": 92, "duration": 263}, {"note": 72, "velocity": 97, "duration": 719}, {"note": 72, "velocity": 100, "duration": 239}, {"note": 72, "velocity": 97, "duration": 246}, {"note": 71, "velocity": 93, "duration": 240}, {"note": 69, "velocity": 86, "duration": 240}, {"note": 72, "velocity": 96, "duration": 280}, {"note": 71, "velocity": 99, "duration": 720}, {"note": 67, "velocity": 93, "duration": 239}, {"note": 67, "velocity": 97, "duration": 480}, {"note": 69, "velocity": 101, "duration": 272}, {"note": 71, "velocity": 92, "duration": 254}, {"note": 72, "velocity": 95, "duration": 720}, {"note": 69, "velocity": 93, "duration": 240}, {"note": 76, "velocity": 90, "duration": 262}, {"note": 74, "velocity": 95, "duration": 263}, {"note": 72, "velocity": 97, "duration": 240}, {"note": 74, "velocity": 94, "duration": 246}, {"note": 71, "velocity": 100, "duration": 767}, {"note": 69, "velocity": 95, "duration": 805}, {"note": 69, "velocity": 97, "duration": 85}, {"note": 0, "velocity": 0, "duration": 155}, {"note": 71, "velocity": 91, "duration": 269}, {"note": 72, "velocity": 93, "duration": 959}, {"note": 72, "velocity": 106, "duration": 278}, {"note": 71, "velocity": 93, "duration": 255}, {"note": 69, "velocity": 90, "duration": 240}, {"note": 72, "velocity": 97, "duration": 266}, {"note": 71, "velocity": 98, "duration": 479}, {"note": 71, "velocity": 98, "duration": 240}, {"note": 67, "velocity": 87, "duration": 239}, {"note": 67, "velocity": 92, "duration": 480}, {"note": 69, "velocity": 103, "duration": 259}, {"note": 71, "velocity": 98, "duration": 250}, {"note": 72, "velocity": 98, "duration": 479}, {"note": 72, "velocity": 105, "duration": 239}, {"note": 72, "velocity": 100, "duration": 239}, {"note": 72, "velocity": 97, "duration": 239}, {"note": 72, "velocity": 101, "duration": 239}, {"note": 72, "velocity": 98, "duration": 239}, {"note": 72, "velocity": 97, "duration": 240}, {"note": 76, "velocity": 100, "duration": 239}, {"note": 76, "velocity": 97, "duration": 239}, {"note": 76, "velocity": 103, "duration": 261}, {"note": 74, "velocity": 90, "duration": 239}, {"note": 74, "velocity": 97, "duration": 480}, {"note": 69, "velocity": 106, "duration": 250}, {"note": 71, "velocity": 90, "duration": 276}, {"note": 72, "velocity": 101, "duration": 719}, {"note": 72, "velocity": 100, "duration": 239}, {"note": 72, "velocity": 99, "duration": 240}, {"note": 71, "velocity": 97, "duration": 240}, {"note": 69, "velocity": 85, "duration": 240}, {"note": 72, "velocity": 93, "duration": 240}, {"note": 71, "velocity": 97, "duration": 720}, {"note": 67, "velocity": 81, "duration": 239}, {"note": 67, "velocity": 97, "duration": 480}, {"note": 69, "velocity": 97, "duration": 255}, {"note": 71, "velocity": 92, "duration": 261}, {"note": 72, "velocity": 96, "duration": 960}, {"note": 76, "velocity": 106, "duration": 240}, {"note": 74, "velocity": 90, "duration": 240}, {"note": 72, "velocity": 95, "duration": 240}, {"note": 74, "velocity": 90, "duration": 240}, {"note": 71, "velocity": 101, "duration": 368}, {"note": 69, "velocity": 87, "duration": 359}, {"note": 69, "velocity": 92, "duration": 1200}, {"note": 76, "velocity": 106, "duration": 719}, {"note": 76, "velocity": 108, "duration": 239}, {"note": 76, "velocity": 106, "duration": 480}, {"note": 74, "velocity": 105, "duration": 240}, {"note": 72, "velocity": 91, "duration": 240}, {"note": 76, "velocity": 108, "duration": 480}, {"note": 74, "velocity": 103, "duration": 959}, {"note": 74, "velocity": 109, "duration": 261}, {"note": 76, "velocity": 95, "duration": 253}, {"note": 77, "velocity": 99, "duration": 719}, {"note": 77, "velocity": 109, "duration": 240}, {"note": 79, "velocity": 93, "duration": 480}, {"note": 74, "velocity": 99, "duration": 240}, {"note": 77, "velocity": 105, "duration": 480}, {"note": 76, "velocity": 103, "duration": 1439}, {"note": 76, "velocity": 103, "duration": 246}, {"note": 77, "velocity": 103, "duration": 720}, {"note": 76, "velocity": 105, "duration": 267}, {"note": 74, "velocity": 105, "duration": 479}, {"note": 74, "velocity": 109, "duration": 240}, {"note": 76, "velocity": 99, "duration": 239}, {"note": 76, "velocity": 109, "duration": 480}, {"note": 74, "velocity": 106, "duration": 480}, {"note": 72, "velocity": 101, "duration": 480}, {"note": 69, "velocity": 93, "duration": 240}, {"note": 71, "velocity": 93, "duration": 263}, {"note": 72, "velocity": 97, "duration": 239}, {"note": 72, "velocity": 100, "duration": 479}, {"note": 72, "velocity": 109, "duration": 243}, {"note": 71, "velocity": 92, "duration": 239}, {"note": 71, "velocity": 85, "duration": 240}, {"note": 72, "velocity": 95, "duration": 481}, {"note": 69, "velocity": 87, "duration": 1727}, {"note": 0, "velocity": 0, "duration": 15073}, {"note": 69, "velocity": 86, "duration": 205}, {"note": 71, "velocity": 86, "duration": 267}, {"note": 72, "velocity": 95, "duration": 510}, {"note": 0, "velocity": 0, "duration": 210}, {"note": 72, "velocity": 96, "duration": 170}, {"note": 0, "velocity": 0, "duration": 70}, {"note": 72, "velocity": 91, "duration": 247}, {"note": 71, "velocity": 81, "duration": 244}, {"note": 69, "velocity": 65, "duration": 208}, {"note": 72, "velocity": 87, "duration": 284}, {"note": 71, "velocity": 96, "duration": 438}, {"note": 71, "velocity": 96, "duration": 223}, {"note": 67, "velocity": 90, "duration": 198}, {"note": 67, "velocity": 97, "duration": 366}, {"note": 0, "velocity": 0, "duration": 114}, {"note": 69, "velocity": 105, "duration": 246}, {"note": 71, "velocity": 90, "duration": 184}, {"note": 72, "velocity": 98, "duration": 428}, {"note": 0, "velocity": 0, "duration": 288}, {"note": 72, "velocity": 92, "duration": 206}, {"note": 72, "velocity": 92, "duration": 176}, {"note": 0, "velocity": 0, "duration": 64}, {"note": 72, "velocity": 91, "duration": 185}, {"note": 72, "velocity": 96, "duration": 171}, {"note": 0, "velocity": 0, "duration": 69}, {"note": 72, "velocity": 90, "duration": 256}, {"note": 76, "velocity": 97, "duration": 183}, {"note": 76, "velocity": 93, "duration": 142}, {"note": 0, "velocity": 0, "duration": 98}, {"note": 76, "velocity": 101, "duration": 458}, {"note": 74, "velocity": 89, "duration": 455}, {"note": 69, "velocity": 95, "duration": 285}, {"note": 71, "velocity": 92, "duration": 263}, {"note": 72, "velocity": 97, "duration": 580}, {"note": 0, "velocity": 0, "duration": 140}, {"note": 72, "velocity": 100, "duration": 152}, {"note": 0, "velocity": 0, "duration": 88}, {"note": 72, "velocity": 97, "duration": 246}, {"note": 71, "velocity": 93, "duration": 237}, {"note": 69, "velocity": 86, "duration": 214}, {"note": 72, "velocity": 96, "duration": 280}, {"note": 71, "velocity": 99, "duration": 210}, {"note": 71, "velocity": 99, "duration": 228}, {"note": 71, "velocity": 99, "duration": 245}, {"note": 67, "velocity": 93, "duration": 206}, {"note": 67, "velocity": 97, "duration": 266}, {"note": 0, "velocity": 0, "duration": 214}, {"note": 69, "velocity": 101, "duration": 272}, {"note": 71, "velocity": 92, "duration": 254}, {"note": 72, "velocity": 95, "duration": 513}, {"note": 0, "velocity": 0, "duration": 447}, {"note": 76, "velocity": 90, "duration": 276}, {"note": 74, "velocity": 95, "duration": 263}, {"note": 72, "velocity": 97, "duration": 239}, {"note": 74, "velocity": 94, "duration": 246}, {"note": 72, "velocity": 100, "duration": 463}, {"note": 69, "velocity": 100, "duration": 202}, {"note": 69, "velocity": 95, "duration": 702}, {"note": 69, "velocity": 95, "duration": 238}, {"note": 71, "velocity": 91, "duration": 269}, {"note": 72, "velocity": 93, "duration": 613}, {"note": 0, "velocity": 0, "duration": 347}, {"note": 72, "velocity": 106, "duration": 278}, {"note": 71, "velocity": 93, "duration": 255}, {"note": 69, "velocity": 90, "duration": 236}, {"note": 72, "velocity": 97, "duration": 267}, {"note": 71, "velocity": 98, "duration": 394}, {"note": 0, "velocity": 0, "duration": 86}, {"note": 71, "velocity": 98, "duration": 221}, {"note": 67, "velocity": 87, "duration": 192}, {"note": 67, "velocity": 92, "duration": 295}, {"note": 0, "velocity": 0, "duration": 185}, {"note": 69, "velocity": 103, "duration": 259}, {"note": 71, "velocity": 98, "duration": 250}, {"note": 72, "velocity": 98, "duration": 312}, {"note": 0, "velocity": 0, "duration": 168}, {"note": 72, "velocity": 105, "duration": 149}, {"note": 0, "velocity": 0, "duration": 91}, {"note": 72, "velocity": 100, "duration": 169}, {"note": 0, "velocity": 0, "duration": 71}, {"note": 72, "velocity": 97, "duration": 165}, {"note": 0, "velocity": 0, "duration": 75}, {"note": 72, "velocity": 101, "duration": 159}, {"note": 0, "velocity": 0, "duration": 81}, {"note": 72, "velocity": 98, "duration": 150}, {"note": 0, "velocity": 0, "duration": 90}, {"note": 72, "velocity": 97, "duration": 213}, {"note": 76, "velocity": 100, "duration": 171}, {"note": 0, "velocity": 0, "duration": 69}, {"note": 76, "velocity": 97, "duration": 155}, {"note": 0, "velocity": 0, "duration": 85}, {"note": 76, "velocity": 103, "duration": 261}, {"note": 74, "velocity": 90, "duration": 173}, {"note": 0, "velocity": 0, "duration": 67}, {"note": 74, "velocity": 97, "duration": 270}, {"note": 0, "velocity": 0, "duration": 210}, {"note": 69, "velocity": 106, "duration": 250}, {"note": 71, "velocity": 90, "duration": 276}, {"note": 72, "velocity": 101, "duration": 355}, {"note": 0, "velocity": 0, "duration": 365}, {"note": 72, "velocity": 100, "duration": 138}, {"note": 0, "velocity": 0, "duration": 102}, {"note": 72, "velocity": 99, "duration": 210}, {"note": 71, "velocity": 97, "duration": 230}, {"note": 69, "velocity": 85, "duration": 209}, {"note": 72, "velocity": 93, "duration": 239}, {"note": 71, "velocity": 97, "duration": 708}, {"note": 67, "velocity": 81, "duration": 183}, {"note": 67, "velocity": 97, "duration": 278}, {"note": 0, "velocity": 0, "duration": 202}, {"note": 69, "velocity": 97, "duration": 255}, {"note": 71, "velocity": 92, "duration": 261}, {"note": 72, "velocity": 96, "duration": 481}, {"note": 0, "velocity": 0, "duration": 479}, {"note": 76, "velocity": 106, "duration": 232}, {"note": 74, "velocity": 90, "duration": 211}, {"note": 72, "velocity": 95, "duration": 227}, {"note": 74, "velocity": 90, "duration": 201}, {"note": 71, "velocity": 101, "duration": 251}, {"note": 69, "velocity": 87, "duration": 464}, {"note": 69, "velocity": 92, "duration": 896}, {"note": 0, "velocity": 0, "duration": 304}, {"note": 76, "velocity": 106, "duration": 537}, {"note": 0, "velocity": 0, "duration": 183}, {"note": 76, "velocity": 108, "duration": 183}, {"note": 76, "velocity": 106, "duration": 361}, {"note": 0, "velocity": 0, "duration": 119}, {"note": 74, "velocity": 105, "duration": 241}, {"note": 72, "velocity": 91, "duration": 250}, {"note": 76, "velocity": 108, "duration": 489}, {"note": 74, "velocity": 103, "duration": 695}, {"note": 0, "velocity": 0, "duration": 265}, {"note": 74, "velocity": 109, "duration": 261}, {"note": 76, "velocity": 95, "duration": 253}, {"note": 77, "velocity": 99, "duration": 543}, {"note": 0, "velocity": 0, "duration": 177}, {"note": 77, "velocity": 109, "duration": 237}, {"note": 79, "velocity": 93, "duration": 452}, {"note": 74, "velocity": 99, "duration": 233}, {"note": 77, "velocity": 105, "duration": 454}, {"note": 76, "velocity": 103, "duration": 1104}, {"note": 0, "velocity": 0, "duration": 336}, {"note": 76, "velocity": 103, "duration": 246}, {"note": 77, "velocity": 103, "duration": 704}, {"note": 76, "velocity": 105, "duration": 267}, {"note": 74, "velocity": 105, "duration": 449}, {"note": 74, "velocity": 109, "duration": 222}, {"note": 76, "velocity": 99, "duration": 172}, {"note": 0, "velocity": 0, "duration": 68}, {"note": 76, "velocity": 109, "duration": 421}, {"note": 74, "velocity": 106, "duration": 450}, {"note": 72, "velocity": 101, "duration": 342}, {"note": 0, "velocity": 0, "duration": 138}, {"note": 69, "velocity": 93, "duration": 210}, {"note": 71, "velocity": 93, "duration": 263}, {"note": 72, "velocity": 97, "duration": 177}, {"note": 0, "velocity": 0, "duration": 63}, {"note": 72, "velocity": 100, "duration": 240}, {"note": 0, "velocity": 0, "duration": 240}, {"note": 72, "velocity": 109, "duration": 243}, {"note": 71, "velocity": 92, "duration": 229}, {"note": 71, "velocity": 85, "duration": 239}, {"note": 72, "velocity": 95, "duration": 198}, {"note": 69, "velocity": 95, "duration": 231}, {"note": 69, "velocity": 87, "duration": 1356}, {"note": 0, "velocity": 0, "duration": 564}, {"note": 76, "velocity": 106, "duration": 537}, {"note": 0, "velocity": 0, "duration": 183}, {"note": 76, "velocity": 108, "duration": 183}, {"note": 76, "velocity": 106, "duration": 361}, {"note": 0, "velocity": 0, "duration": 119}, {"note": 74, "velocity": 105, "duration": 241}, {"note": 72, "velocity": 91, "duration": 250}, {"note": 76, "velocity": 108, "duration": 490}, {"note": 74, "velocity": 103, "duration": 694}, {"note": 0, "velocity": 0, "duration": 266}, {"note": 74, "velocity": 109, "duration": 261}, {"note": 76, "velocity": 95, "duration": 253}, {"note": 77, "velocity": 99, "duration": 543}, {"note": 0, "velocity": 0, "duration": 177}, {"note": 77, "velocity": 109, "duration": 237}, {"note": 79, "velocity": 93, "duration": 452}, {"note": 74, "velocity": 99, "duration": 233}, {"note": 77, "velocity": 105, "duration": 454}, {"note": 76, "velocity": 103, "duration": 1104}, {"note": 0, "velocity": 0, "duration": 336}, {"note": 76, "velocity": 103, "duration": 246}, {"note": 77, "velocity": 103, "duration": 705}, {"note": 76, "velocity": 105, "duration": 267}, {"note": 74, "velocity": 105, "duration": 420}, {"note": 74, "velocity": 109, "duration": 249}, {"note": 76, "velocity": 99, "duration": 228}, {"note": 76, "velocity": 109, "duration": 508}, {"note": 74, "velocity": 106, "duration": 451}, {"note": 72, "velocity": 101, "duration": 342}, {"note": 0, "velocity": 0, "duration": 138}, {"note": 69, "velocity": 93, "duration": 267}, {"note": 71, "velocity": 93, "duration": 262}, {"note": 72, "velocity": 97, "duration": 177}, {"note": 0, "velocity": 0, "duration": 63}, {"note": 72, "velocity": 100, "duration": 240}, {"note": 0, "velocity": 0, "duration": 240}, {"note": 72, "velocity": 109, "duration": 243}, {"note": 71, "velocity": 92, "duration": 229}, {"note": 71, "velocity": 85, "duration": 239}, {"note": 72, "velocity": 95, "duration": 198}, {"note": 69, "velocity": 95, "duration": 232}, {"note": 69, "velocity": 87, "duration": 1415}]]