[[{"note": 70, "velocity": 91, "duration": 132}, {"note": 73, "velocity": 93, "duration": 359}, {"note": 73, "velocity": 90, "duration": 240}, {"note": 70, "velocity": 87, "duration": 240}, {"note": 73, "velocity": 99, "duration": 160}, {"note": 75, "velocity": 90, "duration": 240}, {"note": 73, "velocity": 99, "duration": 600}, {"note": 66, "velocity": 97, "duration": 119}, {"note": 66, "velocity": 93, "duration": 239}, {"note": 66, "velocity": 92, "duration": 119}, {"note": 66, "velocity": 93, "duration": 239}, {"note": 66, "velocity": 94, "duration": 120}, {"note": 68, "velocity": 85, "duration": 128}, {"note": 70, "velocity": 84, "duration": 139}, {"note": 71, "velocity": 91, "duration": 240}, {"note": 70, "velocity": 100, "duration": 600}, {"note": 63, "velocity": 95, "duration": 240}, {"note": 66, "velocity": 91, "duration": 119}, {"note": 66, "velocity": 94, "duration": 600}, {"note": 71, "velocity": 98, "duration": 240}, {"note": 70, "velocity": 90, "duration": 240}, {"note": 68, "velocity": 95, "duration": 120}, {"note": 66, "velocity": 85, "duration": 360}, {"note": 68, "velocity": 94, "duration": 1920}, {"note": 70, "velocity": 79, "duration": 148}, {"note": 73, "velocity": 84, "duration": 359}, {"note": 73, "velocity": 99, "duration": 240}, {"note": 70, "velocity": 85, "duration": 240}, {"note": 73, "velocity": 96, "duration": 144}, {"note": 75, "velocity": 93, "duration": 240}, {"note": 73, "velocity": 98, "duration": 600}, {"note": 66, "velocity": 90, "duration": 119}, {"note": 66, "velocity": 86, "duration": 239}, {"note": 66, "velocity": 66, "duration": 119}, {"note": 66, "velocity": 72, "duration": 240}, {"note": 68, "velocity": 79, "duration": 253}, {"note": 70, "velocity": 85, "duration": 139}, {"note": 71, "velocity": 89, "duration": 240}, {"note": 70, "velocity": 96, "duration": 600}, {"note": 63, "velocity": 90, "duration": 120}, {"note": 66, "velocity": 83, "duration": 239}, {"note": 66, "velocity": 92, "duration": 239}, {"note": 66, "velocity": 92, "duration": 240}, {"note": 68, "velocity": 86, "duration": 126}, {"note": 70, "velocity": 93, "duration": 188}, {"note": 66, "velocity": 76, "duration": 839}, {"note": 66, "velocity": 94, "duration": 479}, {"note": 66, "velocity": 94, "duration": 240}, {"note": 63, "velocity": 84, "duration": 240}, {"note": 68, "velocity": 97, "duration": 1920}, {"note": 75, "velocity": 109, "duration": 239}, {"note": 75, "velocity": 100, "duration": 119}, {"note": 75, "velocity": 97, "duration": 393}, {"note": 77, "velocity": 97, "duration": 275}, {"note": 78, "velocity": 105, "duration": 369}, {"note": 73, "velocity": 98, "duration": 600}, {"note": 71, "velocity": 98, "duration": 239}, {"note": 71, "velocity": 95, "duration": 119}, {"note": 71, "velocity": 96, "duration": 360}, {"note": 73, "velocity": 95, "duration": 253}, {"note": 75, "velocity": 96, "duration": 386}, {"note": 70, "velocity": 91, "duration": 600}, {"note": 75, "velocity": 106, "duration": 239}, {"note": 75, "velocity": 97, "duration": 119}, {"note": 75, "velocity": 98, "duration": 360}, {"note": 77, "velocity": 99, "duration": 269}, {"note": 78, "velocity": 99, "duration": 406}, {"note": 73, "velocity": 99, "duration": 600}, {"note": 71, "velocity": 100, "duration": 119}, {"note": 71, "velocity": 93, "duration": 119}, {"note": 71, "velocity": 86, "duration": 119}, {"note": 71, "velocity": 97, "duration": 960}, {"note": 70, "velocity": 93, "duration": 244}, {"note": 68, "velocity": 77, "duration": 243}, {"note": 66, "velocity": 66, "duration": 2040}, {"note": 73, "velocity": 96, "duration": 247}, {"note": 75, "velocity": 87, "duration": 120}, {"note": 78, "velocity": 87, "duration": 119}, {"note": 78, "velocity": 84, "duration": 240}, {"note": 73, "velocity": 87, "duration": 240}, {"note": 75, "velocity": 87, "duration": 240}, {"note": 70, "velocity": 73, "duration": 126}, {"note": 73, "velocity": 87, "duration": 600}, {"note": 78, "velocity": 105, "duration": 119}, {"note": 78, "velocity": 92, "duration": 239}, {"note": 78, "velocity": 95, "duration": 119}, {"note": 78, "velocity": 97, "duration": 240}, {"note": 73, "velocity": 96, "duration": 240}, {"note": 75, "velocity": 98, "duration": 120}, {"note": 70, "velocity": 91, "duration": 240}, {"note": 68, "velocity": 94, "duration": 599}, {"note": 68, "velocity": 99, "duration": 240}, {"note": 70, "velocity": 99, "duration": 146}, {"note": 71, "velocity": 93, "duration": 359}, {"note": 71, "velocity": 93, "duration": 148}, {"note": 73, "velocity": 93, "duration": 120}, {"note": 75, "velocity": 85, "duration": 280}, {"note": 73, "velocity": 100, "duration": 254}, {"note": 75, "velocity": 97, "duration": 240}, {"note": 73, "velocity": 94, "duration": 120}, {"note": 70, "velocity": 92, "duration": 2040}, {"note": 73, "velocity": 98, "duration": 242}, {"note": 75, "velocity": 81, "duration": 120}, {"note": 78, "velocity": 87, "duration": 119}, {"note": 78, "velocity": 90, "duration": 240}, {"note": 73, "velocity": 97, "duration": 240}, {"note": 75, "velocity": 97, "duration": 240}, {"note": 70, "velocity": 81, "duration": 125}, {"note": 73, "velocity": 95, "duration": 600}, {"note": 78, "velocity": 103, "duration": 239}, {"note": 78, "velocity": 97, "duration": 119}, {"note": 78, "velocity": 93, "duration": 119}, {"note": 78, "velocity": 99, "duration": 240}, {"note": 73, "velocity": 90, "duration": 119}, {"note": 73, "velocity": 93, "duration": 120}, {"note": 75, "velocity": 99, "duration": 120}, {"note": 70, "velocity": 87, "duration": 239}, {"note": 70, "velocity": 94, "duration": 120}, {"note": 68, "velocity": 100, "duration": 479}, {"note": 68, "velocity": 97, "duration": 240}, {"note": 70, "velocity": 100, "duration": 149}, {"note": 71, "velocity": 99, "duration": 600}, {"note": 73, "velocity": 109, "duration": 240}, {"note": 75, "velocity": 96, "duration": 134}, {"note": 73, "velocity": 94, "duration": 120}, {"note": 71, "velocity": 95, "duration": 240}, {"note": 70, "velocity": 104, "duration": 137}, {"note": 68, "velocity": 99, "duration": 276}, {"note": 66, "velocity": 79, "duration": 1800}, {"note": 73, "velocity": 111, "duration": 240}, {"note": 75, "velocity": 98, "duration": 120}, {"note": 78, "velocity": 98, "duration": 119}, {"note": 78, "velocity": 93, "duration": 240}, {"note": 73, "velocity": 106, "duration": 240}, {"note": 75, "velocity": 105, "duration": 240}, {"note": 70, "velocity": 93, "duration": 120}, {"note": 73, "velocity": 98, "duration": 600}, {"note": 78, "velocity": 106, "duration": 119}, {"note": 78, "velocity": 101, "duration": 239}, {"note": 78, "velocity": 103, "duration": 119}, {"note": 78, "velocity": 103, "duration": 240}, {"note": 73, "velocity": 101, "duration": 240}, {"note": 75, "velocity": 103, "duration": 240}, {"note": 70, "velocity": 98, "duration": 120}, {"note": 68, "velocity": 96, "duration": 599}, {"note": 68, "velocity": 101, "duration": 240}, {"note": 70, "velocity": 93, "duration": 144}, {"note": 71, "velocity": 89, "duration": 359}, {"note": 71, "velocity": 96, "duration": 120}, {"note": 73, "velocity": 95, "duration": 120}, {"note": 75, "velocity": 91, "duration": 240}, {"note": 73, "velocity": 100, "duration": 240}, {"note": 75, "velocity": 91, "duration": 240}, {"note": 73, "velocity": 95, "duration": 217}, {"note": 70, "velocity": 93, "duration": 2040}, {"note": 73, "velocity": 109, "duration": 240}, {"note": 75, "velocity": 99, "duration": 120}, {"note": 78, "velocity": 90, "duration": 119}, {"note": 78, "velocity": 93, "duration": 240}, {"note": 73, "velocity": 97, "duration": 240}, {"note": 75, "velocity": 99, "duration": 240}, {"note": 70, "velocity": 93, "duration": 120}, {"note": 73, "velocity": 100, "duration": 600}, {"note": 78, "velocity": 103, "duration": 239}, {"note": 78, "velocity": 100, "duration": 119}, {"note": 78, "velocity": 98, "duration": 119}, {"note": 78, "velocity": 97, "duration": 240}, {"note": 73, "velocity": 97, "duration": 119}, {"note": 73, "velocity": 91, "duration": 120}, {"note": 75, "velocity": 93, "duration": 120}, {"note": 70, "velocity": 96, "duration": 239}, {"note": 70, "velocity": 99, "duration": 120}, {"note": 68, "velocity": 96, "duration": 479}, {"note": 68, "velocity": 98, "duration": 240}, {"note": 70, "velocity": 98, "duration": 138}, {"note": 71, "velocity": 96, "duration": 599}, {"note": 71, "velocity": 107, "duration": 240}, {"note": 73, "velocity": 96, "duration": 145}, {"note": 75, "velocity": 99, "duration": 600}, {"note": 71, "velocity": 104, "duration": 360}, {"note": 70, "velocity": 101, "duration": 360}, {"note": 68, "velocity": 101, "duration": 240}, {"note": 66, "velocity": 101, "duration": 1920}, {"note": 0, "velocity": 0, "duration": 15240}, {"note": 70, "velocity": 91, "duration": 240}, {"note": 73, "velocity": 93, "duration": 359}, {"note": 73, "velocity": 90, "duration": 240}, {"note": 70, "velocity": 87, "duration": 240}, {"note": 73, "velocity": 99, "duration": 161}, {"note": 75, "velocity": 90, "duration": 240}, {"note": 73, "velocity": 99, "duration": 600}, {"note": 66, "velocity": 97, "duration": 119}, {"note": 66, "velocity": 93, "duration": 239}, {"note": 66, "velocity": 92, "duration": 119}, {"note": 66, "velocity": 93, "duration": 239}, {"note": 66, "velocity": 94, "duration": 120}, {"note": 68, "velocity": 85, "duration": 128}, {"note": 70, "velocity": 84, "duration": 139}, {"note": 71, "velocity": 91, "duration": 240}, {"note": 70, "velocity": 100, "duration": 600}, {"note": 63, "velocity": 95, "duration": 240}, {"note": 66, "velocity": 91, "duration": 119}, {"note": 66, "velocity": 94, "duration": 600}, {"note": 71, "velocity": 98, "duration": 240}, {"note": 70, "velocity": 90, "duration": 240}, {"note": 68, "velocity": 95, "duration": 120}, {"note": 66, "velocity": 85, "duration": 360}, {"note": 68, "velocity": 94, "duration": 1920}, {"note": 70, "velocity": 79, "duration": 147}, {"note": 73, "velocity": 84, "duration": 359}, {"note": 73, "velocity": 99, "duration": 240}, {"note": 70, "velocity": 85, "duration": 240}, {"note": 73, "velocity": 96, "duration": 144}, {"note": 75, "velocity": 93, "duration": 240}, {"note": 73, "velocity": 98, "duration": 600}, {"note": 66, "velocity": 90, "duration": 119}, {"note": 66, "velocity": 86, "duration": 239}, {"note": 66, "velocity": 66, "duration": 119}, {"note": 66, "velocity": 72, "duration": 240}, {"note": 68, "velocity": 79, "duration": 253}, {"note": 70, "velocity": 85, "duration": 139}, {"note": 71, "velocity": 89, "duration": 240}, {"note": 70, "velocity": 96, "duration": 600}, {"note": 63, "velocity": 90, "duration": 136}, {"note": 66, "velocity": 83, "duration": 239}, {"note": 66, "velocity": 92, "duration": 239}, {"note": 66, "velocity": 92, "duration": 240}, {"note": 68, "velocity": 86, "duration": 147}, {"note": 70, "velocity": 93, "duration": 188}, {"note": 66, "velocity": 76, "duration": 839}, {"note": 66, "velocity": 94, "duration": 479}, {"note": 66, "velocity": 94, "duration": 255}, {"note": 63, "velocity": 84, "duration": 242}, {"note": 68, "velocity": 97, "duration": 1920}, {"note": 75, "velocity": 109, "duration": 239}, {"note": 75, "velocity": 100, "duration": 119}, {"note": 75, "velocity": 97, "duration": 394}, {"note": 77, "velocity": 97, "duration": 274}, {"note": 78, "velocity": 105, "duration": 369}, {"note": 73, "velocity": 98, "duration": 600}, {"note": 71, "velocity": 98, "duration": 239}, {"note": 71, "velocity": 95, "duration": 119}, {"note": 71, "velocity": 96, "duration": 360}, {"note": 73, "velocity": 95, "duration": 253}, {"note": 75, "velocity": 96, "duration": 387}, {"note": 70, "velocity": 91, "duration": 600}, {"note": 75, "velocity": 106, "duration": 239}, {"note": 75, "velocity": 97, "duration": 119}, {"note": 75, "velocity": 98, "duration": 360}, {"note": 77, "velocity": 99, "duration": 269}, {"note": 78, "velocity": 99, "duration": 406}, {"note": 73, "velocity": 99, "duration": 600}, {"note": 71, "velocity": 100, "duration": 119}, {"note": 71, "velocity": 93, "duration": 119}, {"note": 71, "velocity": 86, "duration": 119}, {"note": 71, "velocity": 97, "duration": 1080}, {"note": 70, "velocity": 93, "duration": 244}, {"note": 68, "velocity": 77, "duration": 243}, {"note": 66, "velocity": 66, "duration": 1920}, {"note": 73, "velocity": 96, "duration": 247}, {"note": 75, "velocity": 87, "duration": 120}, {"note": 78, "velocity": 87, "duration": 119}, {"note": 78, "velocity": 84, "duration": 240}, {"note": 73, "velocity": 87, "duration": 240}, {"note": 75, "velocity": 87, "duration": 240}, {"note": 70, "velocity": 73, "duration": 126}, {"note": 73, "velocity": 87, "duration": 600}, {"note": 78, "velocity": 105, "duration": 119}, {"note": 78, "velocity": 92, "duration": 239}, {"note": 78, "velocity": 95, "duration": 119}, {"note": 78, "velocity": 97, "duration": 240}, {"note": 73, "velocity": 96, "duration": 240}, {"note": 75, "velocity": 98, "duration": 120}, {"note": 70, "velocity": 91, "duration": 240}, {"note": 68, "velocity": 94, "duration": 599}, {"note": 68, "velocity": 99, "duration": 240}, {"note": 70, "velocity": 99, "duration": 146}, {"note": 71, "velocity": 93, "duration": 359}, {"note": 71, "velocity": 93, "duration": 148}, {"note": 73, "velocity": 93, "duration": 120}, {"note": 75, "velocity": 85, "duration": 280}, {"note": 73, "velocity": 100, "duration": 255}, {"note": 75, "velocity": 97, "duration": 240}, {"note": 73, "velocity": 94, "duration": 120}, {"note": 70, "velocity": 92, "duration": 2040}, {"note": 73, "velocity": 98, "duration": 242}, {"note": 75, "velocity": 81, "duration": 120}, {"note": 78, "velocity": 87, "duration": 119}, {"note": 78, "velocity": 90, "duration": 240}, {"note": 73, "velocity": 97, "duration": 240}, {"note": 75, "velocity": 97, "duration": 216}, {"note": 70, "velocity": 81, "duration": 126}, {"note": 73, "velocity": 95, "duration": 600}, {"note": 78, "velocity": 103, "duration": 239}, {"note": 78, "velocity": 97, "duration": 119}, {"note": 78, "velocity": 93, "duration": 119}, {"note": 78, "velocity": 99, "duration": 240}, {"note": 73, "velocity": 90, "duration": 119}, {"note": 73, "velocity": 93, "duration": 120}, {"note": 75, "velocity": 99, "duration": 120}, {"note": 70, "velocity": 87, "duration": 239}, {"note": 70, "velocity": 94, "duration": 120}, {"note": 68, "velocity": 100, "duration": 599}, {"note": 68, "velocity": 97, "duration": 240}, {"note": 70, "velocity": 100, "duration": 150}, {"note": 71, "velocity": 99, "duration": 480}, {"note": 63, "velocity": 109, "duration": 240}, {"note": 65, "velocity": 96, "duration": 135}, {"note": 63, "velocity": 94, "duration": 120}, {"note": 61, "velocity": 95, "duration": 240}, {"note": 60, "velocity": 104, "duration": 153}, {"note": 68, "velocity": 99, "duration": 360}, {"note": 66, "velocity": 79, "duration": 1800}, {"note": 73, "velocity": 111, "duration": 240}, {"note": 75, "velocity": 98, "duration": 120}, {"note": 78, "velocity": 98, "duration": 119}, {"note": 78, "velocity": 93, "duration": 240}, {"note": 73, "velocity": 106, "duration": 240}, {"note": 75, "velocity": 105, "duration": 240}, {"note": 70, "velocity": 93, "duration": 120}, {"note": 73, "velocity": 98, "duration": 600}, {"note": 78, "velocity": 106, "duration": 119}, {"note": 78, "velocity": 101, "duration": 239}, {"note": 78, "velocity": 103, "duration": 119}, {"note": 78, "velocity": 103, "duration": 240}, {"note": 73, "velocity": 101, "duration": 240}, {"note": 75, "velocity": 103, "duration": 240}, {"note": 70, "velocity": 98, "duration": 120}, {"note": 68, "velocity": 96, "duration": 599}, {"note": 68, "velocity": 101, "duration": 240}, {"note": 70, "velocity": 93, "duration": 143}, {"note": 71, "velocity": 89, "duration": 359}, {"note": 71, "velocity": 96, "duration": 120}, {"note": 73, "velocity": 95, "duration": 120}, {"note": 75, "velocity": 91, "duration": 240}, {"note": 73, "velocity": 100, "duration": 240}, {"note": 75, "velocity": 91, "duration": 240}, {"note": 73, "velocity": 95, "duration": 120}, {"note": 70, "velocity": 93, "duration": 2040}, {"note": 73, "velocity": 109, "duration": 240}, {"note": 75, "velocity": 99, "duration": 120}, {"note": 78, "velocity": 90, "duration": 119}, {"note": 78, "velocity": 93, "duration": 240}, {"note": 73, "velocity": 97, "duration": 240}, {"note": 75, "velocity": 99, "duration": 240}, {"note": 70, "velocity": 93, "duration": 120}, {"note": 73, "velocity": 100, "duration": 600}, {"note": 78, "velocity": 103, "duration": 239}, {"note": 78, "velocity": 100, "duration": 119}, {"note": 78, "velocity": 98, "duration": 119}, {"note": 78, "velocity": 97, "duration": 240}, {"note": 73, "velocity": 97, "duration": 119}, {"note": 73, "velocity": 91, "duration": 120}, {"note": 75, "velocity": 93, "duration": 120}, {"note": 70, "velocity": 96, "duration": 239}, {"note": 70, "velocity": 99, "duration": 120}, {"note": 68, "velocity": 96, "duration": 479}, {"note": 68, "velocity": 98, "duration": 240}, {"note": 70, "velocity": 98, "duration": 138}, {"note": 71, "velocity": 96, "duration": 599}, {"note": 71, "velocity": 107, "duration": 240}, {"note": 73, "velocity": 96, "duration": 145}, {"note": 75, "velocity": 99, "duration": 600}, {"note": 71, "velocity": 104, "duration": 360}, {"note": 70, "velocity": 101, "duration": 360}, {"note": 68, "velocity": 101, "duration": 240}, {"note": 66, "velocity": 101, "duration": 1920}, {"note": 73, "velocity": 98, "duration": 242}, {"note": 75, "velocity": 81, "duration": 120}, {"note": 78, "velocity": 87, "duration": 119}, {"note": 78, "velocity": 90, "duration": 240}, {"note": 73, "velocity": 97, "duration": 240}, {"note": 75, "velocity": 97, "duration": 240}, {"note": 70, "velocity": 81, "duration": 126}, {"note": 73, "velocity": 95, "duration": 600}, {"note": 78, "velocity": 103, "duration": 119}, {"note": 78, "velocity": 97, "duration": 239}, {"note": 78, "velocity": 93, "duration": 119}, {"note": 78, "velocity": 99, "duration": 240}, {"note": 73, "velocity": 90, "duration": 119}, {"note": 73, "velocity": 93, "duration": 120}, {"note": 75, "velocity": 99, "duration": 120}, {"note": 70, "velocity": 87, "duration": 239}, {"note": 70, "velocity": 94, "duration": 120}, {"note": 68, "velocity": 100, "duration": 479}, {"note": 68, "velocity": 97, "duration": 240}, {"note": 70, "velocity": 100, "duration": 150}, {"note": 71, "velocity": 99, "duration": 359}, {"note": 71, "velocity": 100, "duration": 120}, {"note": 73, "velocity": 100, "duration": 238}, {"note": 75, "velocity": 96, "duration": 360}, {"note": 73, "velocity": 94, "duration": 245}, {"note": 75, "velocity": 95, "duration": 169}, {"note": 73, "velocity": 104, "duration": 289}, {"note": 70, "velocity": 99, "duration": 1920}, {"note": 73, "velocity": 111, "duration": 240}, {"note": 75, "velocity": 98, "duration": 120}, {"note": 78, "velocity": 98, "duration": 119}, {"note": 78, "velocity": 93, "duration": 240}, {"note": 73, "velocity": 106, "duration": 240}, {"note": 75, "velocity": 105, "duration": 240}, {"note": 70, "velocity": 93, "duration": 120}, {"note": 73, "velocity": 98, "duration": 600}, {"note": 78, "velocity": 106, "duration": 119}, {"note": 78, "velocity": 101, "duration": 239}, {"note": 78, "velocity": 103, "duration": 119}, {"note": 78, "velocity": 103, "duration": 240}, {"note": 73, "velocity": 101, "duration": 119}, {"note": 73, "velocity": 100, "duration": 150}, {"note": 75, "velocity": 103, "duration": 120}, {"note": 70, "velocity": 100, "duration": 239}, {"note": 70, "velocity": 98, "duration": 120}, {"note": 68, "velocity": 96, "duration": 479}, {"note": 68, "velocity": 101, "duration": 240}, {"note": 70, "velocity": 93, "duration": 143}, {"note": 71, "velocity": 89, "duration": 479}, {"note": 71, "velocity": 99, "duration": 240}, {"note": 73, "velocity": 92, "duration": 158}, {"note": 75, "velocity": 97, "duration": 1680}, {"note": 71, "velocity": 104, "duration": 360}, {"note": 70, "velocity": 109, "duration": 360}, {"note": 68, "velocity": 97, "duration": 360}, {"note": 66, "velocity": 99, "duration": 1800}]]