[[{"note": 81, "velocity": 78, "duration": 116}, {"note": 84, "velocity": 72, "duration": 116}, {"note": 79, "velocity": 73, "duration": 116}, {"note": 81, "velocity": 69, "duration": 116}, {"note": 77, "velocity": 91, "duration": 116}, {"note": 76, "velocity": 88, "duration": 116}, {"note": 74, "velocity": 69, "duration": 116}, {"note": 72, "velocity": 60, "duration": 116}, {"note": 74, "velocity": 54, "duration": 116}, {"note": 77, "velocity": 72, "duration": 836}, {"note": 86, "velocity": 99, "duration": 116}, {"note": 86, "velocity": 76, "duration": 116}, {"note": 86, "velocity": 80, "duration": 116}, {"note": 89, "velocity": 64, "duration": 116}, {"note": 86, "velocity": 64, "duration": 116}, {"note": 84, "velocity": 64, "duration": 116}, {"note": 84, "velocity": 64, "duration": 116}, {"note": 81, "velocity": 64, "duration": 116}, {"note": 79, "velocity": 64, "duration": 956}, {"note": 84, "velocity": 93, "duration": 236}, {"note": 81, "velocity": 97, "duration": 116}, {"note": 84, "velocity": 91, "duration": 116}, {"note": 86, "velocity": 95, "duration": 116}, {"note": 84, "velocity": 82, "duration": 116}, {"note": 84, "velocity": 95, "duration": 116}, {"note": 81, "velocity": 95, "duration": 116}, {"note": 79, "velocity": 95, "duration": 356}, {"note": 81, "velocity": 99, "duration": 116}, {"note": 84, "velocity": 70, "duration": 236}, {"note": 84, "velocity": 78, "duration": 116}, {"note": 76, "velocity": 80, "duration": 116}, {"note": 74, "velocity": 69, "duration": 116}, {"note": 76, "velocity": 47, "duration": 116}, {"note": 74, "velocity": 61, "duration": 116}, {"note": 72, "velocity": 78, "duration": 116}, {"note": 74, "velocity": 67, "duration": 116}, {"note": 79, "velocity": 75, "duration": 116}, {"note": 76, "velocity": 82, "duration": 116}, {"note": 74, "velocity": 75, "duration": 116}, {"note": 76, "velocity": 95, "duration": 116}, {"note": 77, "velocity": 67, "duration": 116}, {"note": 72, "velocity": 67, "duration": 836}, {"note": 77, "velocity": 106, "duration": 116}, {"note": 77, "velocity": 99, "duration": 116}, {"note": 77, "velocity": 99, "duration": 116}, {"note": 77, "velocity": 95, "duration": 116}, {"note": 77, "velocity": 95, "duration": 116}, {"note": 79, "velocity": 95, "duration": 116}, {"note": 79, "velocity": 95, "duration": 116}, {"note": 76, "velocity": 95, "duration": 116}, {"note": 74, "velocity": 95, "duration": 116}, {"note": 76, "velocity": 88, "duration": 116}, {"note": 72, "velocity": 73, "duration": 236}, {"note": 74, "velocity": 78, "duration": 356}, {"note": 74, "velocity": 103, "duration": 116}, {"note": 81, "velocity": 95, "duration": 116}, {"note": 81, "velocity": 95, "duration": 236}, {"note": 84, "velocity": 86, "duration": 116}, {"note": 79, "velocity": 99, "duration": 116}, {"note": 81, "velocity": 66, "duration": 116}, {"note": 79, "velocity": 66, "duration": 116}, {"note": 76, "velocity": 69, "duration": 116}, {"note": 74, "velocity": 82, "duration": 116}, {"note": 76, "velocity": 66, "duration": 116}, {"note": 74, "velocity": 91, "duration": 116}, {"note": 72, "velocity": 91, "duration": 236}, {"note": 74, "velocity": 91, "duration": 476}, {"note": 77, "velocity": 62, "duration": 236}, {"note": 77, "velocity": 63, "duration": 116}, {"note": 77, "velocity": 66, "duration": 116}, {"note": 74, "velocity": 70, "duration": 116}, {"note": 77, "velocity": 69, "duration": 116}, {"note": 77, "velocity": 72, "duration": 236}, {"note": 79, "velocity": 66, "duration": 116}, {"note": 81, "velocity": 73, "duration": 236}, {"note": 84, "velocity": 60, "duration": 116}, {"note": 81, "velocity": 58, "duration": 116}, {"note": 79, "velocity": 61, "duration": 116}, {"note": 81, "velocity": 72, "duration": 236}, {"note": 79, "velocity": 62, "duration": 116}, {"note": 81, "velocity": 59, "duration": 116}, {"note": 84, "velocity": 60, "duration": 116}, {"note": 84, "velocity": 67, "duration": 116}, {"note": 84, "velocity": 73, "duration": 116}, {"note": 84, "velocity": 70, "duration": 116}, {"note": 86, "velocity": 63, "duration": 116}, {"note": 84, "velocity": 57, "duration": 116}, {"note": 81, "velocity": 82, "duration": 116}, {"note": 84, "velocity": 80, "duration": 116}, {"note": 86, "velocity": 73, "duration": 716}, {"note": 84, "velocity": 73, "duration": 116}, {"note": 86, "velocity": 69, "duration": 116}, {"note": 89, "velocity": 78, "duration": 356}, {"note": 88, "velocity": 66, "duration": 116}, {"note": 86, "velocity": 66, "duration": 236}, {"note": 84, "velocity": 72, "duration": 236}, {"note": 89, "velocity": 66, "duration": 116}, {"note": 89, "velocity": 69, "duration": 236}, {"note": 88, "velocity": 78, "duration": 116}, {"note": 86, "velocity": 60, "duration": 236}, {"note": 84, "velocity": 72, "duration": 236}, {"note": 81, "velocity": 80, "duration": 116}, {"note": 81, "velocity": 76, "duration": 236}, {"note": 91, "velocity": 67, "duration": 116}, {"note": 89, "velocity": 76, "duration": 116}, {"note": 88, "velocity": 58, "duration": 116}, {"note": 86, "velocity": 72, "duration": 236}, {"note": 84, "velocity": 66, "duration": 920}, {"note": 79, "velocity": 56, "duration": 385}, {"note": 81, "velocity": 58, "duration": 132}, {"note": 84, "velocity": 80, "duration": 324}, {"note": 76, "velocity": 64, "duration": 126}, {"note": 74, "velocity": 73, "duration": 223}, {"note": 72, "velocity": 61, "duration": 123}, {"note": 74, "velocity": 59, "duration": 137}, {"note": 77, "velocity": 67, "duration": 240}, {"note": 77, "velocity": 75, "duration": 227}, {"note": 74, "velocity": 72, "duration": 236}, {"note": 72, "velocity": 67, "duration": 116}, {"note": 74, "velocity": 52, "duration": 116}, {"note": 79, "velocity": 69, "duration": 116}, {"note": 76, "velocity": 69, "duration": 116}, {"note": 74, "velocity": 31, "duration": 116}, {"note": 76, "velocity": 56, "duration": 236}, {"note": 77, "velocity": 61, "duration": 236}, {"note": 72, "velocity": 61, "duration": 596}, {"note": 0, "velocity": 0, "duration": 7684}, {"note": 81, "velocity": 78, "duration": 116}, {"note": 84, "velocity": 72, "duration": 116}, {"note": 79, "velocity": 73, "duration": 116}, {"note": 81, "velocity": 69, "duration": 116}, {"note": 77, "velocity": 91, "duration": 116}, {"note": 76, "velocity": 88, "duration": 116}, {"note": 74, "velocity": 69, "duration": 116}, {"note": 72, "velocity": 60, "duration": 116}, {"note": 74, "velocity": 54, "duration": 116}, {"note": 77, "velocity": 72, "duration": 836}, {"note": 86, "velocity": 99, "duration": 116}, {"note": 86, "velocity": 76, "duration": 116}, {"note": 86, "velocity": 80, "duration": 116}, {"note": 89, "velocity": 64, "duration": 116}, {"note": 86, "velocity": 64, "duration": 116}, {"note": 84, "velocity": 64, "duration": 116}, {"note": 84, "velocity": 64, "duration": 116}, {"note": 81, "velocity": 64, "duration": 116}, {"note": 79, "velocity": 64, "duration": 956}, {"note": 84, "velocity": 93, "duration": 236}, {"note": 81, "velocity": 97, "duration": 116}, {"note": 84, "velocity": 91, "duration": 116}, {"note": 86, "velocity": 95, "duration": 116}, {"note": 84, "velocity": 82, "duration": 116}, {"note": 84, "velocity": 95, "duration": 116}, {"note": 81, "velocity": 95, "duration": 116}, {"note": 79, "velocity": 95, "duration": 356}, {"note": 81, "velocity": 99, "duration": 116}, {"note": 84, "velocity": 70, "duration": 236}, {"note": 84, "velocity": 78, "duration": 116}, {"note": 76, "velocity": 80, "duration": 116}, {"note": 74, "velocity": 69, "duration": 116}, {"note": 76, "velocity": 47, "duration": 116}, {"note": 74, "velocity": 61, "duration": 116}, {"note": 72, "velocity": 78, "duration": 116}, {"note": 74, "velocity": 67, "duration": 116}, {"note": 79, "velocity": 75, "duration": 116}, {"note": 76, "velocity": 82, "duration": 116}, {"note": 74, "velocity": 75, "duration": 116}, {"note": 76, "velocity": 95, "duration": 116}, {"note": 77, "velocity": 67, "duration": 116}, {"note": 72, "velocity": 67, "duration": 836}, {"note": 77, "velocity": 106, "duration": 116}, {"note": 77, "velocity": 99, "duration": 116}, {"note": 0, "velocity": 0, "duration": 124}, {"note": 77, "velocity": 95, "duration": 116}, {"note": 77, "velocity": 91, "duration": 55}, {"note": 0, "velocity": 0, "duration": 65}, {"note": 79, "velocity": 95, "duration": 116}, {"note": 79, "velocity": 91, "duration": 55}, {"note": 0, "velocity": 0, "duration": 65}, {"note": 76, "velocity": 95, "duration": 116}, {"note": 74, "velocity": 95, "duration": 116}, {"note": 76, "velocity": 88, "duration": 116}, {"note": 72, "velocity": 73, "duration": 236}, {"note": 74, "velocity": 78, "duration": 356}, {"note": 74, "velocity": 103, "duration": 116}, {"note": 81, "velocity": 95, "duration": 116}, {"note": 81, "velocity": 95, "duration": 120}, {"note": 81, "velocity": 95, "duration": 120}, {"note": 84, "velocity": 86, "duration": 116}, {"note": 79, "velocity": 99, "duration": 116}, {"note": 81, "velocity": 66, "duration": 116}, {"note": 79, "velocity": 66, "duration": 116}, {"note": 76, "velocity": 69, "duration": 116}, {"note": 74, "velocity": 82, "duration": 116}, {"note": 76, "velocity": 66, "duration": 116}, {"note": 74, "velocity": 91, "duration": 116}, {"note": 72, "velocity": 91, "duration": 236}, {"note": 74, "velocity": 91, "duration": 476}, {"note": 77, "velocity": 62, "duration": 107}, {"note": 0, "velocity": 0, "duration": 73}, {"note": 77, "velocity": 62, "duration": 107}, {"note": 77, "velocity": 63, "duration": 47}, {"note": 77, "velocity": 66, "duration": 47}, {"note": 0, "velocity": 0, "duration": 73}, {"note": 74, "velocity": 70, "duration": 116}, {"note": 77, "velocity": 69, "duration": 116}, {"note": 77, "velocity": 72, "duration": 236}, {"note": 79, "velocity": 66, "duration": 116}, {"note": 81, "velocity": 73, "duration": 236}, {"note": 84, "velocity": 60, "duration": 116}, {"note": 81, "velocity": 58, "duration": 116}, {"note": 79, "velocity": 61, "duration": 116}, {"note": 81, "velocity": 72, "duration": 236}, {"note": 79, "velocity": 62, "duration": 116}, {"note": 81, "velocity": 59, "duration": 116}, {"note": 84, "velocity": 60, "duration": 116}, {"note": 84, "velocity": 67, "duration": 116}, {"note": 84, "velocity": 73, "duration": 116}, {"note": 84, "velocity": 70, "duration": 116}, {"note": 86, "velocity": 63, "duration": 116}, {"note": 84, "velocity": 57, "duration": 116}, {"note": 81, "velocity": 82, "duration": 116}, {"note": 84, "velocity": 80, "duration": 116}, {"note": 86, "velocity": 73, "duration": 716}, {"note": 84, "velocity": 73, "duration": 116}, {"note": 86, "velocity": 69, "duration": 116}, {"note": 89, "velocity": 78, "duration": 356}, {"note": 88, "velocity": 66, "duration": 116}, {"note": 86, "velocity": 66, "duration": 236}, {"note": 84, "velocity": 72, "duration": 236}, {"note": 89, "velocity": 66, "duration": 116}, {"note": 89, "velocity": 69, "duration": 236}, {"note": 88, "velocity": 78, "duration": 116}, {"note": 86, "velocity": 60, "duration": 236}, {"note": 84, "velocity": 72, "duration": 236}, {"note": 81, "velocity": 80, "duration": 116}, {"note": 81, "velocity": 76, "duration": 236}, {"note": 91, "velocity": 67, "duration": 116}, {"note": 89, "velocity": 76, "duration": 116}, {"note": 88, "velocity": 58, "duration": 116}, {"note": 86, "velocity": 72, "duration": 236}, {"note": 84, "velocity": 66, "duration": 920}, {"note": 79, "velocity": 56, "duration": 120}, {"note": 79, "velocity": 56, "duration": 120}, {"note": 0, "velocity": 0, "duration": 120}, {"note": 81, "velocity": 58, "duration": 132}, {"note": 84, "velocity": 80, "duration": 240}, {"note": 84, "velocity": 80, "duration": 240}, {"note": 76, "velocity": 64, "duration": 126}, {"note": 74, "velocity": 73, "duration": 223}, {"note": 72, "velocity": 61, "duration": 123}, {"note": 74, "velocity": 59, "duration": 137}, {"note": 77, "velocity": 67, "duration": 240}, {"note": 77, "velocity": 75, "duration": 227}, {"note": 74, "velocity": 72, "duration": 236}, {"note": 72, "velocity": 67, "duration": 116}, {"note": 74, "velocity": 52, "duration": 116}, {"note": 79, "velocity": 69, "duration": 116}, {"note": 76, "velocity": 69, "duration": 116}, {"note": 74, "velocity": 31, "duration": 116}, {"note": 76, "velocity": 56, "duration": 236}, {"note": 77, "velocity": 61, "duration": 236}, {"note": 72, "velocity": 61, "duration": 596}, {"note": 79, "velocity": 72, "duration": 149}, {"note": 81, "velocity": 66, "duration": 107}, {"note": 84, "velocity": 72, "duration": 273}, {"note": 0, "velocity": 0, "duration": 87}, {"note": 86, "velocity": 69, "duration": 70}, {"note": 84, "velocity": 49, "duration": 75}, {"note": 81, "velocity": 58, "duration": 121}, {"note": 79, "velocity": 67, "duration": 141}, {"note": 81, "velocity": 64, "duration": 85}, {"note": 84, "velocity": 66, "duration": 111}, {"note": 86, "velocity": 95, "duration": 340}, {"note": 84, "velocity": 60, "duration": 83}, {"note": 86, "velocity": 75, "duration": 192}, {"note": 89, "velocity": 88, "duration": 259}, {"note": 91, "velocity": 72, "duration": 1054}, {"note": 0, "velocity": 0, "duration": 386}, {"note": 88, "velocity": 55, "duration": 194}, {"note": 0, "velocity": 0, "duration": 286}, {"note": 86, "velocity": 55, "duration": 194}, {"note": 86, "velocity": 55, "duration": 194}, {"note": 0, "velocity": 0, "duration": 286}, {"note": 84, "velocity": 55, "duration": 192}, {"note": 86, "velocity": 55, "duration": 192}, {"note": 0, "velocity": 0, "duration": 168}, {"note": 91, "velocity": 55, "duration": 192}, {"note": 88, "velocity": 55, "duration": 192}, {"note": 0, "velocity": 0, "duration": 168}, {"note": 86, "velocity": 55, "duration": 192}, {"note": 0, "velocity": 0, "duration": 258}, {"note": 89, "velocity": 55, "duration": 192}, {"note": 0, "velocity": 0, "duration": 568}, {"note": 89, "velocity": 55, "duration": 540}, {"note": 84, "velocity": 55, "duration": 1208}]]