[[{"note": 56, "velocity": 73, "duration": 236}, {"note": 58, "velocity": 66, "duration": 236}, {"note": 60, "velocity": 90, "duration": 476}, {"note": 60, "velocity": 94, "duration": 476}, {"note": 58, "velocity": 83, "duration": 476}, {"note": 60, "velocity": 77, "duration": 476}, {"note": 58, "velocity": 79, "duration": 236}, {"note": 56, "velocity": 66, "duration": 236}, {"note": 56, "velocity": 63, "duration": 236}, {"note": 53, "velocity": 66, "duration": 716}, {"note": 48, "velocity": 86, "duration": 236}, {"note": 53, "velocity": 84, "duration": 236}, {"note": 51, "velocity": 82, "duration": 716}, {"note": 53, "velocity": 87, "duration": 236}, {"note": 55, "velocity": 79, "duration": 356}, {"note": 53, "velocity": 86, "duration": 356}, {"note": 51, "velocity": 85, "duration": 236}, {"note": 53, "velocity": 94, "duration": 956}, {"note": 56, "velocity": 100, "duration": 236}, {"note": 55, "velocity": 87, "duration": 236}, {"note": 53, "velocity": 86, "duration": 236}, {"note": 55, "velocity": 85, "duration": 236}, {"note": 53, "velocity": 90, "duration": 2636}, {"note": 0, "velocity": 0, "duration": 244}, {"note": 56, "velocity": 76, "duration": 236}, {"note": 55, "velocity": 67, "duration": 236}, {"note": 53, "velocity": 66, "duration": 236}, {"note": 55, "velocity": 80, "duration": 476}, {"note": 53, "velocity": 76, "duration": 3116}, {"note": 56, "velocity": 95, "duration": 236}, {"note": 58, "velocity": 84, "duration": 236}, {"note": 60, "velocity": 97, "duration": 956}, {"note": 58, "velocity": 93, "duration": 476}, {"note": 60, "velocity": 91, "duration": 476}, {"note": 58, "velocity": 92, "duration": 236}, {"note": 60, "velocity": 76, "duration": 236}, {"note": 63, "velocity": 87, "duration": 236}, {"note": 56, "velocity": 89, "duration": 956}, {"note": 60, "velocity": 99, "duration": 236}, {"note": 58, "velocity": 97, "duration": 476}, {"note": 58, "velocity": 96, "duration": 476}, {"note": 58, "velocity": 93, "duration": 236}, {"note": 56, "velocity": 73, "duration": 236}, {"note": 55, "velocity": 66, "duration": 360}, {"note": 56, "velocity": 73, "duration": 956}, {"note": 56, "velocity": 97, "duration": 236}, {"note": 56, "velocity": 91, "duration": 236}, {"note": 55, "velocity": 90, "duration": 236}, {"note": 53, "velocity": 72, "duration": 236}, {"note": 55, "velocity": 79, "duration": 236}, {"note": 56, "velocity": 91, "duration": 476}, {"note": 53, "velocity": 86, "duration": 2156}, {"note": 44, "velocity": 53, "duration": 236}, {"note": 55, "velocity": 66, "duration": 236}, {"note": 55, "velocity": 66, "duration": 236}, {"note": 53, "velocity": 74, "duration": 236}, {"note": 51, "velocity": 79, "duration": 236}, {"note": 53, "velocity": 93, "duration": 236}, {"note": 55, "velocity": 85, "duration": 476}, {"note": 53, "velocity": 91, "duration": 3836}, {"note": 51, "velocity": 65, "duration": 236}, {"note": 60, "velocity": 72, "duration": 476}, {"note": 58, "velocity": 91, "duration": 236}, {"note": 56, "velocity": 81, "duration": 236}, {"note": 58, "velocity": 92, "duration": 476}, {"note": 60, "velocity": 82, "duration": 236}, {"note": 58, "velocity": 91, "duration": 476}, {"note": 51, "velocity": 87, "duration": 956}, {"note": 56, "velocity": 62, "duration": 236}, {"note": 53, "velocity": 65, "duration": 236}, {"note": 55, "velocity": 61, "duration": 236}, {"note": 56, "velocity": 61, "duration": 236}, {"note": 65, "velocity": 47, "duration": 236}, {"note": 63, "velocity": 68, "duration": 236}, {"note": 56, "velocity": 63, "duration": 236}, {"note": 60, "velocity": 92, "duration": 1196}, {"note": 60, "velocity": 98, "duration": 236}, {"note": 58, "velocity": 90, "duration": 236}, {"note": 60, "velocity": 93, "duration": 236}, {"note": 61, "velocity": 92, "duration": 1916}, {"note": 58, "velocity": 94, "duration": 716}, {"note": 60, "velocity": 91, "duration": 716}, {"note": 61, "velocity": 95, "duration": 476}, {"note": 60, "velocity": 100, "duration": 2636}, {"note": 56, "velocity": 91, "duration": 236}, {"note": 58, "velocity": 87, "duration": 236}, {"note": 63, "velocity": 91, "duration": 716}, {"note": 60, "velocity": 101, "duration": 716}, {"note": 60, "velocity": 98, "duration": 476}, {"note": 61, "velocity": 95, "duration": 236}, {"note": 63, "velocity": 91, "duration": 236}, {"note": 65, "velocity": 87, "duration": 236}, {"note": 58, "velocity": 91, "duration": 716}, {"note": 58, "velocity": 91, "duration": 476}, {"note": 61, "velocity": 99, "duration": 236}, {"note": 60, "velocity": 90, "duration": 236}, {"note": 58, "velocity": 86, "duration": 236}, {"note": 56, "velocity": 93, "duration": 716}, {"note": 48, "velocity": 79, "duration": 476}, {"note": 58, "velocity": 81, "duration": 236}, {"note": 56, "velocity": 92, "duration": 236}, {"note": 55, "velocity": 82, "duration": 236}, {"note": 55, "velocity": 94, "duration": 476}, {"note": 53, "velocity": 85, "duration": 716}, {"note": 56, "velocity": 97, "duration": 236}, {"note": 55, "velocity": 92, "duration": 236}, {"note": 53, "velocity": 73, "duration": 236}, {"note": 55, "velocity": 91, "duration": 476}, {"note": 61, "velocity": 100, "duration": 236}, {"note": 60, "velocity": 85, "duration": 236}, {"note": 58, "velocity": 90, "duration": 476}, {"note": 55, "velocity": 79, "duration": 236}, {"note": 56, "velocity": 94, "duration": 1436}, {"note": 56, "velocity": 91, "duration": 236}, {"note": 58, "velocity": 84, "duration": 236}, {"note": 60, "velocity": 92, "duration": 236}, {"note": 65, "velocity": 91, "duration": 716}, {"note": 60, "velocity": 92, "duration": 236}, {"note": 61, "velocity": 101, "duration": 476}, {"note": 63, "velocity": 87, "duration": 236}, {"note": 60, "velocity": 79, "duration": 476}, {"note": 58, "velocity": 85, "duration": 476}, {"note": 56, "velocity": 94, "duration": 236}, {"note": 58, "velocity": 86, "duration": 236}, {"note": 63, "velocity": 87, "duration": 716}, {"note": 60, "velocity": 105, "duration": 716}, {"note": 60, "velocity": 98, "duration": 380}, {"note": 0, "velocity": 0, "duration": 100}, {"note": 61, "velocity": 98, "duration": 380}, {"note": 63, "velocity": 95, "duration": 356}, {"note": 65, "velocity": 95, "duration": 276}, {"note": 58, "velocity": 96, "duration": 596}, {"note": 0, "velocity": 0, "duration": 124}, {"note": 58, "velocity": 99, "duration": 476}, {"note": 61, "velocity": 97, "duration": 236}, {"note": 60, "velocity": 90, "duration": 236}, {"note": 58, "velocity": 87, "duration": 236}, {"note": 56, "velocity": 97, "duration": 836}, {"note": 48, "velocity": 83, "duration": 356}, {"note": 58, "velocity": 84, "duration": 356}, {"note": 0, "velocity": 0, "duration": 124}, {"note": 56, "velocity": 95, "duration": 236}, {"note": 55, "velocity": 91, "duration": 236}, {"note": 56, "velocity": 91, "duration": 356}, {"note": 53, "velocity": 91, "duration": 836}, {"note": 56, "velocity": 101, "duration": 236}, {"note": 55, "velocity": 90, "duration": 236}, {"note": 53, "velocity": 76, "duration": 236}, {"note": 55, "velocity": 91, "duration": 476}, {"note": 61, "velocity": 91, "duration": 236}, {"note": 60, "velocity": 87, "duration": 236}, {"note": 58, "velocity": 99, "duration": 476}, {"note": 60, "velocity": 95, "duration": 236}, {"note": 58, "velocity": 95, "duration": 476}, {"note": 56, "velocity": 87, "duration": 956}, {"note": 56, "velocity": 84, "duration": 236}, {"note": 58, "velocity": 87, "duration": 236}, {"note": 60, "velocity": 91, "duration": 236}, {"note": 65, "velocity": 90, "duration": 596}, {"note": 0, "velocity": 0, "duration": 124}, {"note": 63, "velocity": 95, "duration": 236}, {"note": 60, "velocity": 90, "duration": 476}, {"note": 56, "velocity": 87, "duration": 356}, {"note": 58, "velocity": 93, "duration": 1676}, {"note": 56, "velocity": 101, "duration": 236}, {"note": 55, "velocity": 90, "duration": 236}, {"note": 56, "velocity": 103, "duration": 2760}, {"note": 0, "velocity": 0, "duration": 21000}, {"note": 51, "velocity": 65, "duration": 236}, {"note": 60, "velocity": 72, "duration": 476}, {"note": 58, "velocity": 91, "duration": 236}, {"note": 56, "velocity": 81, "duration": 236}, {"note": 58, "velocity": 92, "duration": 476}, {"note": 60, "velocity": 82, "duration": 236}, {"note": 58, "velocity": 91, "duration": 476}, {"note": 51, "velocity": 87, "duration": 956}, {"note": 56, "velocity": 62, "duration": 116}, {"note": 0, "velocity": 0, "duration": 124}, {"note": 53, "velocity": 65, "duration": 236}, {"note": 55, "velocity": 61, "duration": 236}, {"note": 56, "velocity": 61, "duration": 236}, {"note": 65, "velocity": 47, "duration": 236}, {"note": 63, "velocity": 68, "duration": 236}, {"note": 56, "velocity": 63, "duration": 236}, {"note": 60, "velocity": 92, "duration": 1316}, {"note": 60, "velocity": 98, "duration": 116}, {"note": 0, "velocity": 0, "duration": 124}, {"note": 58, "velocity": 90, "duration": 236}, {"note": 60, "velocity": 93, "duration": 236}, {"note": 61, "velocity": 92, "duration": 1916}, {"note": 58, "velocity": 94, "duration": 716}, {"note": 60, "velocity": 91, "duration": 596}, {"note": 0, "velocity": 0, "duration": 124}, {"note": 61, "velocity": 95, "duration": 476}, {"note": 60, "velocity": 100, "duration": 2756}, {"note": 56, "velocity": 91, "duration": 116}, {"note": 0, "velocity": 0, "duration": 124}, {"note": 58, "velocity": 87, "duration": 236}, {"note": 63, "velocity": 91, "duration": 716}, {"note": 60, "velocity": 101, "duration": 836}, {"note": 60, "velocity": 98, "duration": 116}, {"note": 0, "velocity": 0, "duration": 364}, {"note": 61, "velocity": 95, "duration": 236}, {"note": 63, "velocity": 91, "duration": 236}, {"note": 65, "velocity": 87, "duration": 236}, {"note": 58, "velocity": 91, "duration": 716}, {"note": 58, "velocity": 91, "duration": 476}, {"note": 61, "velocity": 99, "duration": 236}, {"note": 60, "velocity": 90, "duration": 116}, {"note": 0, "velocity": 0, "duration": 124}, {"note": 58, "velocity": 86, "duration": 236}, {"note": 56, "velocity": 93, "duration": 716}, {"note": 48, "velocity": 79, "duration": 476}, {"note": 58, "velocity": 81, "duration": 236}, {"note": 56, "velocity": 92, "duration": 236}, {"note": 55, "velocity": 82, "duration": 236}, {"note": 55, "velocity": 94, "duration": 476}, {"note": 53, "velocity": 85, "duration": 716}, {"note": 56, "velocity": 97, "duration": 236}, {"note": 55, "velocity": 92, "duration": 236}, {"note": 53, "velocity": 73, "duration": 236}, {"note": 55, "velocity": 91, "duration": 476}, {"note": 61, "velocity": 100, "duration": 236}, {"note": 60, "velocity": 85, "duration": 236}, {"note": 58, "velocity": 90, "duration": 476}, {"note": 55, "velocity": 79, "duration": 236}, {"note": 56, "velocity": 94, "duration": 1556}, {"note": 56, "velocity": 91, "duration": 116}, {"note": 0, "velocity": 0, "duration": 124}, {"note": 58, "velocity": 84, "duration": 236}, {"note": 60, "velocity": 92, "duration": 236}, {"note": 65, "velocity": 91, "duration": 716}, {"note": 60, "velocity": 92, "duration": 356}, {"note": 61, "velocity": 101, "duration": 476}, {"note": 63, "velocity": 87, "duration": 236}, {"note": 60, "velocity": 79, "duration": 476}, {"note": 58, "velocity": 85, "duration": 476}, {"note": 56, "velocity": 94, "duration": 236}, {"note": 58, "velocity": 86, "duration": 236}, {"note": 63, "velocity": 87, "duration": 716}, {"note": 60, "velocity": 105, "duration": 716}, {"note": 60, "velocity": 98, "duration": 356}, {"note": 0, "velocity": 0, "duration": 124}, {"note": 61, "velocity": 95, "duration": 236}, {"note": 63, "velocity": 84, "duration": 236}, {"note": 65, "velocity": 87, "duration": 236}, {"note": 58, "velocity": 96, "duration": 716}, {"note": 58, "velocity": 99, "duration": 476}, {"note": 61, "velocity": 97, "duration": 236}, {"note": 60, "velocity": 90, "duration": 236}, {"note": 58, "velocity": 87, "duration": 236}, {"note": 56, "velocity": 97, "duration": 716}, {"note": 48, "velocity": 83, "duration": 476}, {"note": 58, "velocity": 84, "duration": 236}, {"note": 56, "velocity": 95, "duration": 236}, {"note": 55, "velocity": 91, "duration": 236}, {"note": 56, "velocity": 91, "duration": 476}, {"note": 53, "velocity": 91, "duration": 836}, {"note": 56, "velocity": 101, "duration": 236}, {"note": 55, "velocity": 90, "duration": 236}, {"note": 53, "velocity": 76, "duration": 236}, {"note": 55, "velocity": 91, "duration": 476}, {"note": 61, "velocity": 91, "duration": 236}, {"note": 60, "velocity": 87, "duration": 236}, {"note": 58, "velocity": 99, "duration": 476}, {"note": 60, "velocity": 95, "duration": 236}, {"note": 58, "velocity": 95, "duration": 476}, {"note": 56, "velocity": 87, "duration": 956}, {"note": 56, "velocity": 84, "duration": 236}, {"note": 58, "velocity": 87, "duration": 236}, {"note": 60, "velocity": 91, "duration": 236}, {"note": 65, "velocity": 90, "duration": 596}, {"note": 0, "velocity": 0, "duration": 124}, {"note": 63, "velocity": 95, "duration": 236}, {"note": 60, "velocity": 90, "duration": 476}, {"note": 56, "velocity": 87, "duration": 236}, {"note": 58, "velocity": 93, "duration": 1676}, {"note": 56, "velocity": 101, "duration": 236}, {"note": 55, "velocity": 90, "duration": 236}, {"note": 56, "velocity": 103, "duration": 3840}, {"note": 0, "velocity": 0, "duration": 1440}, {"note": 56, "velocity": 72, "duration": 236}, {"note": 58, "velocity": 75, "duration": 236}, {"note": 60, "velocity": 82, "duration": 476}, {"note": 60, "velocity": 87, "duration": 476}, {"note": 58, "velocity": 77, "duration": 476}, {"note": 60, "velocity": 87, "duration": 476}, {"note": 58, "velocity": 71, "duration": 236}, {"note": 60, "velocity": 81, "duration": 236}, {"note": 63, "velocity": 83, "duration": 236}, {"note": 56, "velocity": 66, "duration": 836}, {"note": 0, "velocity": 0, "duration": 124}, {"note": 60, "velocity": 99, "duration": 236}, {"note": 58, "velocity": 95, "duration": 596}, {"note": 58, "velocity": 91, "duration": 116}, {"note": 0, "velocity": 0, "duration": 364}, {"note": 58, "velocity": 93, "duration": 236}, {"note": 56, "velocity": 71, "duration": 236}, {"note": 55, "velocity": 72, "duration": 236}, {"note": 56, "velocity": 86, "duration": 956}, {"note": 48, "velocity": 60, "duration": 236}, {"note": 56, "velocity": 66, "duration": 236}, {"note": 55, "velocity": 59, "duration": 236}, {"note": 53, "velocity": 68, "duration": 236}, {"note": 55, "velocity": 69, "duration": 236}, {"note": 53, "velocity": 80, "duration": 2636}, {"note": 51, "velocity": 66, "duration": 236}, {"note": 60, "velocity": 75, "duration": 236}, {"note": 58, "velocity": 62, "duration": 236}, {"note": 56, "velocity": 80, "duration": 236}, {"note": 58, "velocity": 82, "duration": 236}, {"note": 56, "velocity": 95, "duration": 3836}]]