[[{"note": 75, "velocity": 66, "duration": 450}, {"note": 77, "velocity": 66, "duration": 507}, {"note": 80, "velocity": 93, "duration": 504}, {"note": 82, "velocity": 85, "duration": 472}, {"note": 77, "velocity": 96, "duration": 1109}, {"note": 0, "velocity": 0, "duration": 811}, {"note": 84, "velocity": 97, "duration": 275}, {"note": 0, "velocity": 0, "duration": 205}, {"note": 84, "velocity": 97, "duration": 301}, {"note": 0, "velocity": 0, "duration": 179}, {"note": 84, "velocity": 90, "duration": 252}, {"note": 82, "velocity": 62, "duration": 283}, {"note": 80, "velocity": 75, "duration": 226}, {"note": 75, "velocity": 63, "duration": 221}, {"note": 77, "velocity": 66, "duration": 1321}, {"note": 0, "velocity": 0, "duration": 599}, {"note": 75, "velocity": 87, "duration": 527}, {"note": 77, "velocity": 90, "duration": 465}, {"note": 80, "velocity": 91, "duration": 524}, {"note": 82, "velocity": 72, "duration": 472}, {"note": 77, "velocity": 76, "duration": 1123}, {"note": 0, "velocity": 0, "duration": 917}, {"note": 84, "velocity": 95, "duration": 401}, {"note": 82, "velocity": 85, "duration": 441}, {"note": 84, "velocity": 90, "duration": 303}, {"note": 82, "velocity": 64, "duration": 288}, {"note": 80, "velocity": 66, "duration": 207}, {"note": 75, "velocity": 66, "duration": 242}, {"note": 77, "velocity": 73, "duration": 1380}, {"note": 0, "velocity": 0, "duration": 2460}, {"note": 72, "velocity": 77, "duration": 391}, {"note": 0, "velocity": 0, "duration": 89}, {"note": 72, "velocity": 81, "duration": 471}, {"note": 75, "velocity": 79, "duration": 477}, {"note": 72, "velocity": 65, "duration": 450}, {"note": 77, "velocity": 84, "duration": 1000}, {"note": 80, "velocity": 101, "duration": 531}, {"note": 0, "velocity": 0, "duration": 429}, {"note": 77, "velocity": 100, "duration": 353}, {"note": 0, "velocity": 0, "duration": 127}, {"note": 77, "velocity": 92, "duration": 494}, {"note": 80, "velocity": 103, "duration": 501}, {"note": 77, "velocity": 89, "duration": 244}, {"note": 80, "velocity": 95, "duration": 267}, {"note": 82, "velocity": 93, "duration": 963}, {"note": 0, "velocity": 0, "duration": 957}, {"note": 75, "velocity": 96, "duration": 395}, {"note": 0, "velocity": 0, "duration": 85}, {"note": 77, "velocity": 90, "duration": 415}, {"note": 0, "velocity": 0, "duration": 65}, {"note": 80, "velocity": 83, "duration": 489}, {"note": 77, "velocity": 71, "duration": 330}, {"note": 0, "velocity": 0, "duration": 150}, {"note": 72, "velocity": 84, "duration": 240}, {"note": 70, "velocity": 65, "duration": 1017}, {"note": 72, "velocity": 96, "duration": 359}, {"note": 0, "velocity": 0, "duration": 121}, {"note": 72, "velocity": 89, "duration": 330}, {"note": 0, "velocity": 0, "duration": 150}, {"note": 75, "velocity": 94, "duration": 484}, {"note": 77, "velocity": 100, "duration": 440}, {"note": 80, "velocity": 101, "duration": 500}, {"note": 82, "velocity": 90, "duration": 223}, {"note": 75, "velocity": 90, "duration": 242}, {"note": 77, "velocity": 100, "duration": 1217}, {"note": 0, "velocity": 0, "duration": 1663}, {"note": 84, "velocity": 97, "duration": 356}, {"note": 0, "velocity": 0, "duration": 124}, {"note": 84, "velocity": 98, "duration": 480}, {"note": 82, "velocity": 99, "duration": 617}, {"note": 0, "velocity": 0, "duration": 343}, {"note": 82, "velocity": 105, "duration": 383}, {"note": 0, "velocity": 0, "duration": 97}, {"note": 84, "velocity": 105, "duration": 300}, {"note": 0, "velocity": 0, "duration": 180}, {"note": 80, "velocity": 103, "duration": 436}, {"note": 77, "velocity": 98, "duration": 339}, {"note": 0, "velocity": 0, "duration": 141}, {"note": 84, "velocity": 99, "duration": 373}, {"note": 0, "velocity": 0, "duration": 107}, {"note": 84, "velocity": 106, "duration": 465}, {"note": 82, "velocity": 105, "duration": 549}, {"note": 0, "velocity": 0, "duration": 411}, {"note": 82, "velocity": 108, "duration": 456}, {"note": 84, "velocity": 99, "duration": 478}, {"note": 80, "velocity": 108, "duration": 448}, {"note": 77, "velocity": 96, "duration": 1256}, {"note": 0, "velocity": 0, "duration": 8344}, {"note": 80, "velocity": 100, "duration": 398}, {"note": 0, "velocity": 0, "duration": 82}, {"note": 80, "velocity": 100, "duration": 521}, {"note": 77, "velocity": 95, "duration": 487}, {"note": 82, "velocity": 108, "duration": 793}, {"note": 0, "velocity": 0, "duration": 167}, {"note": 80, "velocity": 103, "duration": 246}, {"note": 82, "velocity": 97, "duration": 478}, {"note": 84, "velocity": 106, "duration": 817}, {"note": 0, "velocity": 0, "duration": 383}, {"note": 82, "velocity": 99, "duration": 370}, {"note": 0, "velocity": 0, "duration": 110}, {"note": 82, "velocity": 97, "duration": 406}, {"note": 0, "velocity": 0, "duration": 74}, {"note": 80, "velocity": 97, "duration": 285}, {"note": 0, "velocity": 0, "duration": 195}, {"note": 80, "velocity": 97, "duration": 104}, {"note": 0, "velocity": 0, "duration": 136}, {"note": 80, "velocity": 86, "duration": 265}, {"note": 82, "velocity": 86, "duration": 240}, {"note": 84, "velocity": 93, "duration": 303}, {"note": 82, "velocity": 93, "duration": 238}, {"note": 80, "velocity": 87, "duration": 273}, {"note": 84, "velocity": 103, "duration": 183}, {"note": 84, "velocity": 105, "duration": 681}, {"note": 84, "velocity": 105, "duration": 245}, {"note": 82, "velocity": 80, "duration": 252}, {"note": 80, "velocity": 90, "duration": 197}, {"note": 75, "velocity": 82, "duration": 204}, {"note": 77, "velocity": 93, "duration": 923}, {"note": 84, "velocity": 108, "duration": 276}, {"note": 82, "velocity": 94, "duration": 259}, {"note": 80, "velocity": 97, "duration": 224}, {"note": 75, "velocity": 89, "duration": 234}, {"note": 77, "velocity": 101, "duration": 624}, {"note": 0, "velocity": 0, "duration": 336}, {"note": 84, "velocity": 109, "duration": 226}, {"note": 82, "velocity": 91, "duration": 297}, {"note": 80, "velocity": 97, "duration": 183}, {"note": 75, "velocity": 87, "duration": 263}, {"note": 77, "velocity": 101, "duration": 1801}, {"note": 0, "velocity": 0, "duration": 7799}, {"note": 75, "velocity": 66, "duration": 450}, {"note": 77, "velocity": 66, "duration": 507}, {"note": 80, "velocity": 93, "duration": 503}, {"note": 82, "velocity": 85, "duration": 472}, {"note": 77, "velocity": 96, "duration": 1109}, {"note": 0, "velocity": 0, "duration": 811}, {"note": 84, "velocity": 97, "duration": 276}, {"note": 0, "velocity": 0, "duration": 204}, {"note": 84, "velocity": 97, "duration": 301}, {"note": 0, "velocity": 0, "duration": 179}, {"note": 84, "velocity": 90, "duration": 252}, {"note": 82, "velocity": 62, "duration": 283}, {"note": 80, "velocity": 75, "duration": 225}, {"note": 75, "velocity": 63, "duration": 221}, {"note": 77, "velocity": 66, "duration": 1322}, {"note": 0, "velocity": 0, "duration": 598}, {"note": 75, "velocity": 87, "duration": 526}, {"note": 77, "velocity": 90, "duration": 465}, {"note": 80, "velocity": 91, "duration": 525}, {"note": 82, "velocity": 72, "duration": 471}, {"note": 77, "velocity": 76, "duration": 1123}, {"note": 0, "velocity": 0, "duration": 797}, {"note": 84, "velocity": 95, "duration": 368}, {"note": 0, "velocity": 0, "duration": 112}, {"note": 82, "velocity": 85, "duration": 513}, {"note": 84, "velocity": 90, "duration": 303}, {"note": 82, "velocity": 64, "duration": 288}, {"note": 80, "velocity": 66, "duration": 207}, {"note": 75, "velocity": 66, "duration": 243}, {"note": 77, "velocity": 73, "duration": 1380}, {"note": 0, "velocity": 0, "duration": 1500}, {"note": 84, "velocity": 97, "duration": 356}, {"note": 0, "velocity": 0, "duration": 124}, {"note": 84, "velocity": 98, "duration": 480}, {"note": 82, "velocity": 99, "duration": 617}, {"note": 0, "velocity": 0, "duration": 343}, {"note": 82, "velocity": 105, "duration": 383}, {"note": 0, "velocity": 0, "duration": 97}, {"note": 84, "velocity": 105, "duration": 300}, {"note": 0, "velocity": 0, "duration": 180}, {"note": 80, "velocity": 103, "duration": 436}, {"note": 77, "velocity": 98, "duration": 339}, {"note": 0, "velocity": 0, "duration": 141}, {"note": 84, "velocity": 99, "duration": 373}, {"note": 0, "velocity": 0, "duration": 107}, {"note": 84, "velocity": 106, "duration": 465}, {"note": 82, "velocity": 105, "duration": 549}, {"note": 0, "velocity": 0, "duration": 411}, {"note": 82, "velocity": 108, "duration": 456}, {"note": 84, "velocity": 99, "duration": 478}, {"note": 80, "velocity": 108, "duration": 448}, {"note": 77, "velocity": 96, "duration": 1257}, {"note": 0, "velocity": 0, "duration": 8343}, {"note": 80, "velocity": 100, "duration": 398}, {"note": 0, "velocity": 0, "duration": 82}, {"note": 80, "velocity": 100, "duration": 521}, {"note": 77, "velocity": 95, "duration": 487}, {"note": 82, "velocity": 108, "duration": 793}, {"note": 0, "velocity": 0, "duration": 167}, {"note": 80, "velocity": 103, "duration": 246}, {"note": 82, "velocity": 97, "duration": 478}, {"note": 84, "velocity": 106, "duration": 817}, {"note": 0, "velocity": 0, "duration": 383}, {"note": 82, "velocity": 99, "duration": 348}, {"note": 0, "velocity": 0, "duration": 132}, {"note": 82, "velocity": 97, "duration": 407}, {"note": 0, "velocity": 0, "duration": 73}, {"note": 80, "velocity": 97, "duration": 285}, {"note": 0, "velocity": 0, "duration": 195}, {"note": 80, "velocity": 97, "duration": 104}, {"note": 0, "velocity": 0, "duration": 136}, {"note": 80, "velocity": 86, "duration": 265}, {"note": 82, "velocity": 86, "duration": 240}, {"note": 84, "velocity": 93, "duration": 303}, {"note": 82, "velocity": 93, "duration": 238}, {"note": 80, "velocity": 87, "duration": 273}, {"note": 84, "velocity": 103, "duration": 183}, {"note": 84, "velocity": 105, "duration": 681}, {"note": 84, "velocity": 105, "duration": 245}, {"note": 82, "velocity": 80, "duration": 252}, {"note": 80, "velocity": 90, "duration": 197}, {"note": 75, "velocity": 82, "duration": 204}, {"note": 77, "velocity": 93, "duration": 923}, {"note": 84, "velocity": 108, "duration": 276}, {"note": 82, "velocity": 94, "duration": 259}, {"note": 80, "velocity": 97, "duration": 224}, {"note": 75, "velocity": 89, "duration": 234}, {"note": 77, "velocity": 101, "duration": 624}, {"note": 0, "velocity": 0, "duration": 336}, {"note": 84, "velocity": 109, "duration": 226}, {"note": 82, "velocity": 91, "duration": 297}, {"note": 80, "velocity": 97, "duration": 183}, {"note": 75, "velocity": 87, "duration": 263}, {"note": 77, "velocity": 101, "duration": 1801}, {"note": 0, "velocity": 0, "duration": 7799}, {"note": 75, "velocity": 66, "duration": 450}, {"note": 77, "velocity": 66, "duration": 507}, {"note": 80, "velocity": 93, "duration": 504}, {"note": 82, "velocity": 85, "duration": 472}, {"note": 77, "velocity": 96, "duration": 1109}, {"note": 0, "velocity": 0, "duration": 811}, {"note": 84, "velocity": 97, "duration": 275}, {"note": 0, "velocity": 0, "duration": 205}, {"note": 84, "velocity": 97, "duration": 300}, {"note": 0, "velocity": 0, "duration": 180}, {"note": 84, "velocity": 90, "duration": 252}, {"note": 82, "velocity": 62, "duration": 284}, {"note": 80, "velocity": 75, "duration": 225}, {"note": 75, "velocity": 63, "duration": 221}, {"note": 77, "velocity": 66, "duration": 1322}, {"note": 0, "velocity": 0, "duration": 598}, {"note": 75, "velocity": 87, "duration": 526}, {"note": 77, "velocity": 90, "duration": 466}, {"note": 80, "velocity": 91, "duration": 524}, {"note": 82, "velocity": 72, "duration": 472}, {"note": 77, "velocity": 76, "duration": 1123}, {"note": 0, "velocity": 0, "duration": 797}, {"note": 84, "velocity": 95, "duration": 400}, {"note": 0, "velocity": 0, "duration": 80}, {"note": 82, "velocity": 85, "duration": 442}, {"note": 84, "velocity": 90, "duration": 303}, {"note": 82, "velocity": 64, "duration": 288}, {"note": 80, "velocity": 66, "duration": 207}, {"note": 75, "velocity": 66, "duration": 242}, {"note": 77, "velocity": 73, "duration": 1380}, {"note": 0, "velocity": 0, "duration": 540}, {"note": 75, "velocity": 87, "duration": 526}, {"note": 77, "velocity": 90, "duration": 466}, {"note": 80, "velocity": 91, "duration": 525}, {"note": 82, "velocity": 72, "duration": 472}, {"note": 77, "velocity": 76, "duration": 1122}, {"note": 0, "velocity": 0, "duration": 798}, {"note": 84, "velocity": 95, "duration": 401}, {"note": 0, "velocity": 0, "duration": 79}, {"note": 82, "velocity": 85, "duration": 442}, {"note": 84, "velocity": 90, "duration": 303}, {"note": 82, "velocity": 64, "duration": 287}, {"note": 80, "velocity": 66, "duration": 207}, {"note": 75, "velocity": 66, "duration": 242}, {"note": 77, "velocity": 73, "duration": 1380}]]