[[{"note": 61, "velocity": 63, "duration": 229}, {"note": 63, "velocity": 79, "duration": 288}, {"note": 70, "velocity": 90, "duration": 229}, {"note": 68, "velocity": 97, "duration": 241}, {"note": 66, "velocity": 92, "duration": 468}, {"note": 68, "velocity": 83, "duration": 268}, {"note": 63, "velocity": 93, "duration": 246}, {"note": 61, "velocity": 93, "duration": 785}, {"note": 0, "velocity": 0, "duration": 1135}, {"note": 66, "velocity": 91, "duration": 263}, {"note": 65, "velocity": 93, "duration": 253}, {"note": 63, "velocity": 89, "duration": 189}, {"note": 63, "velocity": 87, "duration": 253}, {"note": 61, "velocity": 90, "duration": 276}, {"note": 0, "velocity": 0, "duration": 204}, {"note": 54, "velocity": 90, "duration": 212}, {"note": 61, "velocity": 93, "duration": 260}, {"note": 58, "velocity": 84, "duration": 938}, {"note": 0, "velocity": 0, "duration": 982}, {"note": 58, "velocity": 84, "duration": 237}, {"note": 61, "velocity": 87, "duration": 221}, {"note": 63, "velocity": 87, "duration": 224}, {"note": 66, "velocity": 90, "duration": 142}, {"note": 0, "velocity": 0, "duration": 98}, {"note": 73, "velocity": 90, "duration": 400}, {"note": 0, "velocity": 0, "duration": 80}, {"note": 70, "velocity": 92, "duration": 261}, {"note": 68, "velocity": 88, "duration": 181}, {"note": 66, "velocity": 88, "duration": 181}, {"note": 68, "velocity": 96, "duration": 1253}, {"note": 0, "velocity": 0, "duration": 547}, {"note": 66, "velocity": 72, "duration": 214}, {"note": 68, "velocity": 87, "duration": 238}, {"note": 70, "velocity": 87, "duration": 253}, {"note": 70, "velocity": 84, "duration": 13}, {"note": 0, "velocity": 0, "duration": 107}, {"note": 68, "velocity": 57, "duration": 109}, {"note": 0, "velocity": 0, "duration": 131}, {"note": 66, "velocity": 79, "duration": 308}, {"note": 65, "velocity": 72, "duration": 255}, {"note": 68, "velocity": 97, "duration": 470}, {"note": 66, "velocity": 96, "duration": 1014}, {"note": 66, "velocity": 109, "duration": 54}, {"note": 0, "velocity": 0, "duration": 186}, {"note": 65, "velocity": 105, "duration": 234}, {"note": 63, "velocity": 108, "duration": 1154}, {"note": 61, "velocity": 90, "duration": 85}, {"note": 0, "velocity": 0, "duration": 155}, {"note": 58, "velocity": 95, "duration": 214}, {"note": 61, "velocity": 93, "duration": 243}, {"note": 63, "velocity": 103, "duration": 120}, {"note": 63, "velocity": 97, "duration": 85}, {"note": 0, "velocity": 0, "duration": 155}, {"note": 70, "velocity": 99, "duration": 216}, {"note": 68, "velocity": 101, "duration": 551}, {"note": 68, "velocity": 101, "duration": 71}, {"note": 0, "velocity": 0, "duration": 169}, {"note": 63, "velocity": 96, "duration": 214}, {"note": 68, "velocity": 100, "duration": 270}, {"note": 65, "velocity": 98, "duration": 452}, {"note": 63, "velocity": 99, "duration": 237}, {"note": 61, "velocity": 97, "duration": 1129}, {"note": 0, "velocity": 0, "duration": 311}, {"note": 61, "velocity": 91, "duration": 216}, {"note": 66, "velocity": 101, "duration": 229}, {"note": 70, "velocity": 106, "duration": 1028}, {"note": 70, "velocity": 105, "duration": 68}, {"note": 0, "velocity": 0, "duration": 172}, {"note": 68, "velocity": 97, "duration": 197}, {"note": 0, "velocity": 0, "duration": 283}, {"note": 66, "velocity": 90, "duration": 245}, {"note": 73, "velocity": 97, "duration": 199}, {"note": 0, "velocity": 0, "duration": 61}, {"note": 70, "velocity": 91, "duration": 851}, {"note": 0, "velocity": 0, "duration": 329}, {"note": 61, "velocity": 101, "duration": 211}, {"note": 58, "velocity": 90, "duration": 211}, {"note": 68, "velocity": 93, "duration": 632}, {"note": 0, "velocity": 0, "duration": 88}, {"note": 70, "velocity": 94, "duration": 238}, {"note": 68, "velocity": 94, "duration": 226}, {"note": 65, "velocity": 77, "duration": 486}, {"note": 63, "velocity": 90, "duration": 251}, {"note": 0, "velocity": 0, "duration": 109}, {"note": 61, "velocity": 85, "duration": 1158}, {"note": 0, "velocity": 0, "duration": 882}, {"note": 61, "velocity": 90, "duration": 211}, {"note": 63, "velocity": 91, "duration": 222}, {"note": 70, "velocity": 97, "duration": 231}, {"note": 68, "velocity": 99, "duration": 242}, {"note": 66, "velocity": 98, "duration": 458}, {"note": 68, "velocity": 99, "duration": 243}, {"note": 63, "velocity": 98, "duration": 254}, {"note": 61, "velocity": 90, "duration": 1124}, {"note": 0, "velocity": 0, "duration": 796}, {"note": 66, "velocity": 91, "duration": 263}, {"note": 65, "velocity": 93, "duration": 253}, {"note": 63, "velocity": 89, "duration": 189}, {"note": 63, "velocity": 87, "duration": 253}, {"note": 61, "velocity": 90, "duration": 276}, {"note": 0, "velocity": 0, "duration": 204}, {"note": 54, "velocity": 90, "duration": 212}, {"note": 61, "velocity": 93, "duration": 260}, {"note": 58, "velocity": 84, "duration": 938}, {"note": 0, "velocity": 0, "duration": 982}, {"note": 58, "velocity": 84, "duration": 238}, {"note": 61, "velocity": 87, "duration": 221}, {"note": 63, "velocity": 87, "duration": 224}, {"note": 66, "velocity": 90, "duration": 142}, {"note": 0, "velocity": 0, "duration": 98}, {"note": 73, "velocity": 90, "duration": 400}, {"note": 70, "velocity": 92, "duration": 261}, {"note": 0, "velocity": 0, "duration": 219}, {"note": 68, "velocity": 88, "duration": 180}, {"note": 66, "velocity": 88, "duration": 181}, {"note": 68, "velocity": 96, "duration": 1253}, {"note": 0, "velocity": 0, "duration": 667}, {"note": 66, "velocity": 72, "duration": 214}, {"note": 68, "velocity": 87, "duration": 238}, {"note": 70, "velocity": 87, "duration": 254}, {"note": 68, "velocity": 84, "duration": 223}, {"note": 70, "velocity": 57, "duration": 109}, {"note": 68, "velocity": 74, "duration": 114}, {"note": 66, "velocity": 79, "duration": 308}, {"note": 65, "velocity": 72, "duration": 255}, {"note": 68, "velocity": 97, "duration": 469}, {"note": 66, "velocity": 96, "duration": 1014}, {"note": 0, "velocity": 0, "duration": 16026}, {"note": 61, "velocity": 63, "duration": 229}, {"note": 63, "velocity": 79, "duration": 288}, {"note": 70, "velocity": 90, "duration": 229}, {"note": 68, "velocity": 97, "duration": 241}, {"note": 66, "velocity": 92, "duration": 468}, {"note": 68, "velocity": 83, "duration": 268}, {"note": 63, "velocity": 93, "duration": 246}, {"note": 61, "velocity": 93, "duration": 785}, {"note": 0, "velocity": 0, "duration": 1135}, {"note": 66, "velocity": 91, "duration": 263}, {"note": 65, "velocity": 93, "duration": 253}, {"note": 63, "velocity": 89, "duration": 189}, {"note": 63, "velocity": 87, "duration": 253}, {"note": 61, "velocity": 90, "duration": 276}, {"note": 0, "velocity": 0, "duration": 204}, {"note": 54, "velocity": 90, "duration": 212}, {"note": 61, "velocity": 93, "duration": 260}, {"note": 58, "velocity": 84, "duration": 938}, {"note": 0, "velocity": 0, "duration": 982}, {"note": 58, "velocity": 84, "duration": 237}, {"note": 61, "velocity": 87, "duration": 221}, {"note": 63, "velocity": 87, "duration": 224}, {"note": 66, "velocity": 90, "duration": 142}, {"note": 0, "velocity": 0, "duration": 98}, {"note": 73, "velocity": 90, "duration": 400}, {"note": 0, "velocity": 0, "duration": 80}, {"note": 70, "velocity": 92, "duration": 261}, {"note": 68, "velocity": 88, "duration": 181}, {"note": 66, "velocity": 88, "duration": 181}, {"note": 68, "velocity": 96, "duration": 1253}, {"note": 0, "velocity": 0, "duration": 547}, {"note": 66, "velocity": 72, "duration": 214}, {"note": 68, "velocity": 87, "duration": 238}, {"note": 70, "velocity": 87, "duration": 253}, {"note": 70, "velocity": 84, "duration": 13}, {"note": 0, "velocity": 0, "duration": 107}, {"note": 68, "velocity": 57, "duration": 109}, {"note": 0, "velocity": 0, "duration": 131}, {"note": 66, "velocity": 79, "duration": 308}, {"note": 65, "velocity": 72, "duration": 255}, {"note": 68, "velocity": 97, "duration": 470}, {"note": 66, "velocity": 96, "duration": 1014}, {"note": 66, "velocity": 109, "duration": 54}, {"note": 0, "velocity": 0, "duration": 186}, {"note": 65, "velocity": 105, "duration": 234}, {"note": 63, "velocity": 108, "duration": 1154}, {"note": 61, "velocity": 90, "duration": 85}, {"note": 0, "velocity": 0, "duration": 155}, {"note": 58, "velocity": 95, "duration": 214}, {"note": 61, "velocity": 93, "duration": 243}, {"note": 63, "velocity": 103, "duration": 120}, {"note": 63, "velocity": 97, "duration": 85}, {"note": 0, "velocity": 0, "duration": 155}, {"note": 70, "velocity": 99, "duration": 216}, {"note": 68, "velocity": 101, "duration": 551}, {"note": 68, "velocity": 101, "duration": 71}, {"note": 0, "velocity": 0, "duration": 169}, {"note": 63, "velocity": 96, "duration": 214}, {"note": 68, "velocity": 100, "duration": 270}, {"note": 65, "velocity": 98, "duration": 452}, {"note": 63, "velocity": 99, "duration": 237}, {"note": 61, "velocity": 97, "duration": 1129}, {"note": 0, "velocity": 0, "duration": 311}, {"note": 61, "velocity": 91, "duration": 216}, {"note": 66, "velocity": 101, "duration": 229}, {"note": 70, "velocity": 106, "duration": 1028}, {"note": 70, "velocity": 105, "duration": 68}, {"note": 0, "velocity": 0, "duration": 172}, {"note": 68, "velocity": 97, "duration": 197}, {"note": 0, "velocity": 0, "duration": 283}, {"note": 66, "velocity": 90, "duration": 245}, {"note": 73, "velocity": 97, "duration": 199}, {"note": 0, "velocity": 0, "duration": 61}, {"note": 70, "velocity": 91, "duration": 851}, {"note": 0, "velocity": 0, "duration": 329}, {"note": 61, "velocity": 101, "duration": 211}, {"note": 58, "velocity": 90, "duration": 211}, {"note": 68, "velocity": 93, "duration": 632}, {"note": 0, "velocity": 0, "duration": 88}, {"note": 70, "velocity": 94, "duration": 238}, {"note": 68, "velocity": 94, "duration": 226}, {"note": 65, "velocity": 77, "duration": 486}, {"note": 63, "velocity": 90, "duration": 251}, {"note": 0, "velocity": 0, "duration": 109}, {"note": 61, "velocity": 85, "duration": 1158}, {"note": 0, "velocity": 0, "duration": 882}, {"note": 61, "velocity": 90, "duration": 211}, {"note": 63, "velocity": 91, "duration": 222}, {"note": 70, "velocity": 97, "duration": 231}, {"note": 68, "velocity": 99, "duration": 242}, {"note": 66, "velocity": 98, "duration": 458}, {"note": 68, "velocity": 99, "duration": 243}, {"note": 63, "velocity": 98, "duration": 254}, {"note": 61, "velocity": 90, "duration": 1124}, {"note": 0, "velocity": 0, "duration": 796}, {"note": 66, "velocity": 91, "duration": 263}, {"note": 65, "velocity": 93, "duration": 253}, {"note": 63, "velocity": 89, "duration": 189}, {"note": 63, "velocity": 87, "duration": 253}, {"note": 61, "velocity": 90, "duration": 276}, {"note": 0, "velocity": 0, "duration": 204}, {"note": 54, "velocity": 90, "duration": 212}, {"note": 61, "velocity": 93, "duration": 260}, {"note": 58, "velocity": 84, "duration": 938}, {"note": 0, "velocity": 0, "duration": 982}, {"note": 58, "velocity": 84, "duration": 238}, {"note": 61, "velocity": 87, "duration": 221}, {"note": 63, "velocity": 87, "duration": 224}, {"note": 66, "velocity": 90, "duration": 142}, {"note": 0, "velocity": 0, "duration": 98}, {"note": 73, "velocity": 90, "duration": 400}, {"note": 70, "velocity": 92, "duration": 261}, {"note": 0, "velocity": 0, "duration": 219}, {"note": 68, "velocity": 88, "duration": 180}, {"note": 66, "velocity": 88, "duration": 181}, {"note": 68, "velocity": 96, "duration": 1253}, {"note": 0, "velocity": 0, "duration": 667}, {"note": 66, "velocity": 72, "duration": 214}, {"note": 68, "velocity": 87, "duration": 238}, {"note": 70, "velocity": 87, "duration": 254}, {"note": 68, "velocity": 84, "duration": 223}, {"note": 70, "velocity": 57, "duration": 109}, {"note": 68, "velocity": 74, "duration": 114}, {"note": 66, "velocity": 79, "duration": 308}, {"note": 65, "velocity": 72, "duration": 255}, {"note": 68, "velocity": 97, "duration": 469}, {"note": 66, "velocity": 96, "duration": 1014}]]