[[{"note": 65, "velocity": 64, "duration": 236}, {"note": 65, "velocity": 66, "duration": 236}, {"note": 67, "velocity": 74, "duration": 236}, {"note": 68, "velocity": 65, "duration": 236}, {"note": 72, "velocity": 83, "duration": 236}, {"note": 70, "velocity": 90, "duration": 236}, {"note": 68, "velocity": 89, "duration": 236}, {"note": 67, "velocity": 85, "duration": 1316}, {"note": 68, "velocity": 103, "duration": 356}, {"note": 67, "velocity": 97, "duration": 236}, {"note": 65, "velocity": 96, "duration": 956}, {"note": 63, "velocity": 92, "duration": 236}, {"note": 65, "velocity": 94, "duration": 476}, {"note": 65, "velocity": 99, "duration": 2396}, {"note": 65, "velocity": 82, "duration": 236}, {"note": 65, "velocity": 76, "duration": 236}, {"note": 67, "velocity": 66, "duration": 236}, {"note": 68, "velocity": 68, "duration": 236}, {"note": 72, "velocity": 79, "duration": 236}, {"note": 70, "velocity": 96, "duration": 236}, {"note": 68, "velocity": 84, "duration": 236}, {"note": 67, "velocity": 90, "duration": 1196}, {"note": 68, "velocity": 93, "duration": 476}, {"note": 67, "velocity": 83, "duration": 236}, {"note": 68, "velocity": 79, "duration": 476}, {"note": 65, "velocity": 80, "duration": 476}, {"note": 65, "velocity": 77, "duration": 236}, {"note": 63, "velocity": 80, "duration": 476}, {"note": 72, "velocity": 87, "duration": 2396}, {"note": 73, "velocity": 65, "duration": 236}, {"note": 73, "velocity": 87, "duration": 236}, {"note": 73, "velocity": 77, "duration": 236}, {"note": 73, "velocity": 89, "duration": 236}, {"note": 73, "velocity": 89, "duration": 236}, {"note": 73, "velocity": 92, "duration": 236}, {"note": 75, "velocity": 84, "duration": 236}, {"note": 72, "velocity": 76, "duration": 716}, {"note": 70, "velocity": 63, "duration": 716}, {"note": 68, "velocity": 90, "duration": 236}, {"note": 70, "velocity": 87, "duration": 236}, {"note": 77, "velocity": 90, "duration": 476}, {"note": 75, "velocity": 98, "duration": 476}, {"note": 70, "velocity": 97, "duration": 476}, {"note": 72, "velocity": 82, "duration": 236}, {"note": 70, "velocity": 90, "duration": 476}, {"note": 68, "velocity": 90, "duration": 1196}, {"note": 65, "velocity": 82, "duration": 236}, {"note": 67, "velocity": 81, "duration": 236}, {"note": 68, "velocity": 90, "duration": 716}, {"note": 65, "velocity": 68, "duration": 716}, {"note": 67, "velocity": 97, "duration": 236}, {"note": 68, "velocity": 86, "duration": 236}, {"note": 70, "velocity": 96, "duration": 476}, {"note": 68, "velocity": 90, "duration": 476}, {"note": 67, "velocity": 76, "duration": 236}, {"note": 70, "velocity": 100, "duration": 476}, {"note": 67, "velocity": 93, "duration": 476}, {"note": 68, "velocity": 62, "duration": 236}, {"note": 67, "velocity": 74, "duration": 3596}, {"note": 65, "velocity": 82, "duration": 236}, {"note": 65, "velocity": 90, "duration": 236}, {"note": 67, "velocity": 79, "duration": 236}, {"note": 68, "velocity": 76, "duration": 236}, {"note": 72, "velocity": 90, "duration": 236}, {"note": 70, "velocity": 96, "duration": 236}, {"note": 68, "velocity": 92, "duration": 236}, {"note": 67, "velocity": 101, "duration": 1436}, {"note": 68, "velocity": 103, "duration": 236}, {"note": 67, "velocity": 77, "duration": 236}, {"note": 65, "velocity": 93, "duration": 476}, {"note": 65, "velocity": 96, "duration": 476}, {"note": 63, "velocity": 94, "duration": 236}, {"note": 65, "velocity": 91, "duration": 476}, {"note": 65, "velocity": 95, "duration": 2396}, {"note": 65, "velocity": 93, "duration": 236}, {"note": 65, "velocity": 91, "duration": 236}, {"note": 67, "velocity": 71, "duration": 236}, {"note": 68, "velocity": 84, "duration": 236}, {"note": 72, "velocity": 86, "duration": 236}, {"note": 70, "velocity": 84, "duration": 236}, {"note": 68, "velocity": 72, "duration": 236}, {"note": 70, "velocity": 65, "duration": 116}, {"note": 68, "velocity": 68, "duration": 116}, {"note": 67, "velocity": 65, "duration": 956}, {"note": 68, "velocity": 100, "duration": 476}, {"note": 67, "velocity": 90, "duration": 236}, {"note": 68, "velocity": 91, "duration": 476}, {"note": 65, "velocity": 92, "duration": 476}, {"note": 65, "velocity": 91, "duration": 236}, {"note": 63, "velocity": 86, "duration": 476}, {"note": 72, "velocity": 103, "duration": 476}, {"note": 73, "velocity": 92, "duration": 236}, {"note": 72, "velocity": 96, "duration": 476}, {"note": 70, "velocity": 96, "duration": 236}, {"note": 68, "velocity": 90, "duration": 956}, {"note": 73, "velocity": 104, "duration": 236}, {"note": 73, "velocity": 97, "duration": 236}, {"note": 73, "velocity": 96, "duration": 236}, {"note": 73, "velocity": 96, "duration": 236}, {"note": 73, "velocity": 95, "duration": 236}, {"note": 73, "velocity": 92, "duration": 236}, {"note": 75, "velocity": 91, "duration": 236}, {"note": 72, "velocity": 99, "duration": 716}, {"note": 70, "velocity": 61, "duration": 716}, {"note": 68, "velocity": 91, "duration": 236}, {"note": 70, "velocity": 93, "duration": 236}, {"note": 77, "velocity": 90, "duration": 476}, {"note": 75, "velocity": 98, "duration": 476}, {"note": 70, "velocity": 91, "duration": 476}, {"note": 72, "velocity": 87, "duration": 236}, {"note": 70, "velocity": 93, "duration": 476}, {"note": 68, "velocity": 91, "duration": 1196}, {"note": 65, "velocity": 93, "duration": 236}, {"note": 67, "velocity": 93, "duration": 236}, {"note": 68, "velocity": 97, "duration": 716}, {"note": 65, "velocity": 84, "duration": 716}, {"note": 67, "velocity": 97, "duration": 236}, {"note": 68, "velocity": 91, "duration": 236}, {"note": 70, "velocity": 99, "duration": 476}, {"note": 68, "velocity": 87, "duration": 476}, {"note": 68, "velocity": 93, "duration": 236}, {"note": 70, "velocity": 93, "duration": 476}, {"note": 72, "velocity": 97, "duration": 476}, {"note": 73, "velocity": 96, "duration": 236}, {"note": 72, "velocity": 95, "duration": 2876}, {"note": 75, "velocity": 105, "duration": 236}, {"note": 72, "velocity": 84, "duration": 236}, {"note": 80, "velocity": 91, "duration": 596}, {"note": 77, "velocity": 106, "duration": 716}, {"note": 75, "velocity": 101, "duration": 236}, {"note": 77, "velocity": 97, "duration": 356}, {"note": 72, "velocity": 100, "duration": 716}, {"note": 70, "velocity": 87, "duration": 716}, {"note": 70, "velocity": 97, "duration": 236}, {"note": 72, "velocity": 85, "duration": 236}, {"note": 79, "velocity": 96, "duration": 716}, {"note": 75, "velocity": 100, "duration": 476}, {"note": 70, "velocity": 94, "duration": 236}, {"note": 70, "velocity": 94, "duration": 236}, {"note": 72, "velocity": 98, "duration": 236}, {"note": 70, "velocity": 99, "duration": 716}, {"note": 68, "velocity": 97, "duration": 716}, {"note": 65, "velocity": 91, "duration": 236}, {"note": 68, "velocity": 91, "duration": 236}, {"note": 72, "velocity": 103, "duration": 356}, {"note": 70, "velocity": 101, "duration": 356}, {"note": 68, "velocity": 92, "duration": 236}, {"note": 70, "velocity": 100, "duration": 236}, {"note": 68, "velocity": 101, "duration": 356}, {"note": 65, "velocity": 87, "duration": 356}, {"note": 77, "velocity": 81, "duration": 476}, {"note": 75, "velocity": 101, "duration": 476}, {"note": 75, "velocity": 103, "duration": 236}, {"note": 72, "velocity": 95, "duration": 476}, {"note": 63, "velocity": 91, "duration": 236}, {"note": 72, "velocity": 97, "duration": 3356}, {"note": 75, "velocity": 105, "duration": 236}, {"note": 72, "velocity": 94, "duration": 236}, {"note": 80, "velocity": 97, "duration": 716}, {"note": 77, "velocity": 109, "duration": 716}, {"note": 75, "velocity": 111, "duration": 236}, {"note": 77, "velocity": 90, "duration": 236}, {"note": 72, "velocity": 97, "duration": 716}, {"note": 70, "velocity": 108, "duration": 716}, {"note": 70, "velocity": 105, "duration": 236}, {"note": 72, "velocity": 93, "duration": 236}, {"note": 79, "velocity": 97, "duration": 716}, {"note": 75, "velocity": 105, "duration": 716}, {"note": 70, "velocity": 103, "duration": 236}, {"note": 72, "velocity": 90, "duration": 236}, {"note": 70, "velocity": 94, "duration": 716}, {"note": 68, "velocity": 103, "duration": 716}, {"note": 65, "velocity": 91, "duration": 236}, {"note": 68, "velocity": 82, "duration": 236}, {"note": 72, "velocity": 97, "duration": 236}, {"note": 70, "velocity": 90, "duration": 236}, {"note": 70, "velocity": 83, "duration": 236}, {"note": 68, "velocity": 87, "duration": 236}, {"note": 70, "velocity": 97, "duration": 476}, {"note": 68, "velocity": 97, "duration": 236}, {"note": 65, "velocity": 94, "duration": 236}, {"note": 77, "velocity": 90, "duration": 476}, {"note": 75, "velocity": 98, "duration": 476}, {"note": 72, "velocity": 109, "duration": 236}, {"note": 70, "velocity": 97, "duration": 236}, {"note": 68, "velocity": 97, "duration": 236}, {"note": 65, "velocity": 87, "duration": 236}, {"note": 68, "velocity": 87, "duration": 3840}, {"note": 0, "velocity": 0, "duration": 30960}, {"note": 65, "velocity": 64, "duration": 236}, {"note": 65, "velocity": 66, "duration": 236}, {"note": 67, "velocity": 74, "duration": 236}, {"note": 68, "velocity": 65, "duration": 236}, {"note": 72, "velocity": 83, "duration": 236}, {"note": 70, "velocity": 90, "duration": 236}, {"note": 68, "velocity": 89, "duration": 356}, {"note": 67, "velocity": 85, "duration": 1316}, {"note": 0, "velocity": 0, "duration": 124}, {"note": 68, "velocity": 103, "duration": 356}, {"note": 67, "velocity": 97, "duration": 236}, {"note": 65, "velocity": 96, "duration": 476}, {"note": 65, "velocity": 96, "duration": 476}, {"note": 63, "velocity": 92, "duration": 236}, {"note": 65, "velocity": 94, "duration": 476}, {"note": 65, "velocity": 99, "duration": 2396}, {"note": 65, "velocity": 82, "duration": 236}, {"note": 65, "velocity": 76, "duration": 236}, {"note": 67, "velocity": 66, "duration": 236}, {"note": 68, "velocity": 68, "duration": 236}, {"note": 72, "velocity": 79, "duration": 236}, {"note": 70, "velocity": 96, "duration": 236}, {"note": 68, "velocity": 84, "duration": 236}, {"note": 67, "velocity": 90, "duration": 1196}, {"note": 0, "velocity": 0, "duration": 124}, {"note": 68, "velocity": 93, "duration": 356}, {"note": 67, "velocity": 83, "duration": 236}, {"note": 68, "velocity": 79, "duration": 476}, {"note": 65, "velocity": 80, "duration": 476}, {"note": 65, "velocity": 77, "duration": 236}, {"note": 63, "velocity": 80, "duration": 476}, {"note": 72, "velocity": 87, "duration": 596}, {"note": 73, "velocity": 87, "duration": 236}, {"note": 72, "velocity": 87, "duration": 596}, {"note": 70, "velocity": 87, "duration": 236}, {"note": 68, "velocity": 87, "duration": 596}, {"note": 73, "velocity": 96, "duration": 476}, {"note": 73, "velocity": 98, "duration": 476}, {"note": 73, "velocity": 99, "duration": 476}, {"note": 72, "velocity": 101, "duration": 236}, {"note": 73, "velocity": 95, "duration": 236}, {"note": 72, "velocity": 93, "duration": 236}, {"note": 73, "velocity": 92, "duration": 236}, {"note": 72, "velocity": 85, "duration": 236}, {"note": 70, "velocity": 97, "duration": 596}, {"note": 0, "velocity": 0, "duration": 124}, {"note": 68, "velocity": 90, "duration": 236}, {"note": 70, "velocity": 87, "duration": 236}, {"note": 77, "velocity": 90, "duration": 476}, {"note": 75, "velocity": 98, "duration": 596}, {"note": 70, "velocity": 97, "duration": 476}, {"note": 72, "velocity": 82, "duration": 236}, {"note": 70, "velocity": 90, "duration": 476}, {"note": 68, "velocity": 90, "duration": 1076}, {"note": 0, "velocity": 0, "duration": 124}, {"note": 65, "velocity": 82, "duration": 236}, {"note": 67, "velocity": 81, "duration": 236}, {"note": 68, "velocity": 90, "duration": 836}, {"note": 65, "velocity": 68, "duration": 716}, {"note": 67, "velocity": 97, "duration": 236}, {"note": 68, "velocity": 86, "duration": 236}, {"note": 70, "velocity": 96, "duration": 476}, {"note": 68, "velocity": 90, "duration": 476}, {"note": 68, "velocity": 76, "duration": 236}, {"note": 70, "velocity": 100, "duration": 476}, {"note": 72, "velocity": 93, "duration": 356}, {"note": 73, "velocity": 62, "duration": 236}, {"note": 72, "velocity": 74, "duration": 2996}, {"note": 75, "velocity": 105, "duration": 236}, {"note": 72, "velocity": 84, "duration": 236}, {"note": 80, "velocity": 91, "duration": 596}, {"note": 0, "velocity": 0, "duration": 124}, {"note": 77, "velocity": 106, "duration": 716}, {"note": 75, "velocity": 101, "duration": 356}, {"note": 77, "velocity": 97, "duration": 236}, {"note": 72, "velocity": 100, "duration": 716}, {"note": 70, "velocity": 87, "duration": 716}, {"note": 70, "velocity": 97, "duration": 236}, {"note": 72, "velocity": 85, "duration": 236}, {"note": 79, "velocity": 96, "duration": 716}, {"note": 75, "velocity": 100, "duration": 476}, {"note": 70, "velocity": 94, "duration": 236}, {"note": 70, "velocity": 94, "duration": 236}, {"note": 72, "velocity": 98, "duration": 236}, {"note": 70, "velocity": 99, "duration": 716}, {"note": 68, "velocity": 97, "duration": 716}, {"note": 65, "velocity": 91, "duration": 236}, {"note": 68, "velocity": 91, "duration": 236}, {"note": 72, "velocity": 103, "duration": 356}, {"note": 70, "velocity": 101, "duration": 356}, {"note": 68, "velocity": 92, "duration": 236}, {"note": 70, "velocity": 100, "duration": 236}, {"note": 68, "velocity": 101, "duration": 356}, {"note": 65, "velocity": 87, "duration": 356}, {"note": 77, "velocity": 81, "duration": 356}, {"note": 0, "velocity": 0, "duration": 124}, {"note": 75, "velocity": 101, "duration": 596}, {"note": 75, "velocity": 103, "duration": 116}, {"note": 0, "velocity": 0, "duration": 244}, {"note": 72, "velocity": 95, "duration": 356}, {"note": 63, "velocity": 91, "duration": 236}, {"note": 72, "velocity": 97, "duration": 3356}, {"note": 75, "velocity": 105, "duration": 236}, {"note": 72, "velocity": 94, "duration": 236}, {"note": 80, "velocity": 97, "duration": 716}, {"note": 77, "velocity": 109, "duration": 716}, {"note": 75, "velocity": 111, "duration": 236}, {"note": 77, "velocity": 90, "duration": 236}, {"note": 72, "velocity": 97, "duration": 716}, {"note": 70, "velocity": 108, "duration": 716}, {"note": 70, "velocity": 105, "duration": 236}, {"note": 72, "velocity": 93, "duration": 236}, {"note": 79, "velocity": 97, "duration": 716}, {"note": 75, "velocity": 105, "duration": 716}, {"note": 70, "velocity": 103, "duration": 236}, {"note": 72, "velocity": 90, "duration": 236}, {"note": 70, "velocity": 94, "duration": 716}, {"note": 68, "velocity": 103, "duration": 716}, {"note": 65, "velocity": 91, "duration": 236}, {"note": 68, "velocity": 82, "duration": 236}, {"note": 72, "velocity": 97, "duration": 236}, {"note": 70, "velocity": 90, "duration": 236}, {"note": 70, "velocity": 83, "duration": 236}, {"note": 68, "velocity": 87, "duration": 236}, {"note": 70, "velocity": 97, "duration": 476}, {"note": 68, "velocity": 97, "duration": 236}, {"note": 65, "velocity": 94, "duration": 236}, {"note": 77, "velocity": 90, "duration": 476}, {"note": 75, "velocity": 98, "duration": 476}, {"note": 72, "velocity": 109, "duration": 236}, {"note": 68, "velocity": 97, "duration": 356}, {"note": 0, "velocity": 0, "duration": 124}, {"note": 65, "velocity": 87, "duration": 356}, {"note": 70, "velocity": 105, "duration": 236}, {"note": 68, "velocity": 105, "duration": 3116}, {"note": 75, "velocity": 105, "duration": 236}, {"note": 72, "velocity": 94, "duration": 236}, {"note": 80, "velocity": 97, "duration": 716}, {"note": 77, "velocity": 109, "duration": 716}, {"note": 75, "velocity": 111, "duration": 236}, {"note": 77, "velocity": 90, "duration": 236}, {"note": 72, "velocity": 97, "duration": 716}, {"note": 70, "velocity": 108, "duration": 716}, {"note": 70, "velocity": 105, "duration": 236}, {"note": 72, "velocity": 93, "duration": 236}, {"note": 79, "velocity": 97, "duration": 716}, {"note": 75, "velocity": 105, "duration": 476}, {"note": 70, "velocity": 100, "duration": 236}, {"note": 70, "velocity": 103, "duration": 236}, {"note": 72, "velocity": 90, "duration": 236}, {"note": 70, "velocity": 94, "duration": 716}, {"note": 68, "velocity": 103, "duration": 716}, {"note": 65, "velocity": 91, "duration": 236}, {"note": 68, "velocity": 82, "duration": 236}, {"note": 72, "velocity": 97, "duration": 236}, {"note": 70, "velocity": 90, "duration": 476}, {"note": 68, "velocity": 87, "duration": 236}, {"note": 70, "velocity": 97, "duration": 356}, {"note": 68, "velocity": 97, "duration": 356}, {"note": 65, "velocity": 94, "duration": 236}, {"note": 77, "velocity": 90, "duration": 476}, {"note": 75, "velocity": 98, "duration": 476}, {"note": 77, "velocity": 109, "duration": 236}, {"note": 75, "velocity": 97, "duration": 476}, {"note": 70, "velocity": 87, "duration": 596}, {"note": 72, "velocity": 105, "duration": 2996}, {"note": 75, "velocity": 105, "duration": 236}, {"note": 72, "velocity": 94, "duration": 236}, {"note": 80, "velocity": 97, "duration": 716}, {"note": 77, "velocity": 109, "duration": 716}, {"note": 75, "velocity": 111, "duration": 236}, {"note": 77, "velocity": 90, "duration": 236}, {"note": 72, "velocity": 97, "duration": 716}, {"note": 70, "velocity": 108, "duration": 716}, {"note": 70, "velocity": 105, "duration": 236}, {"note": 72, "velocity": 93, "duration": 236}, {"note": 79, "velocity": 97, "duration": 716}, {"note": 75, "velocity": 105, "duration": 476}, {"note": 70, "velocity": 100, "duration": 476}, {"note": 72, "velocity": 90, "duration": 236}, {"note": 70, "velocity": 94, "duration": 716}, {"note": 68, "velocity": 103, "duration": 716}, {"note": 65, "velocity": 91, "duration": 236}, {"note": 68, "velocity": 82, "duration": 236}, {"note": 72, "velocity": 97, "duration": 236}, {"note": 70, "velocity": 90, "duration": 476}, {"note": 68, "velocity": 87, "duration": 236}, {"note": 70, "velocity": 97, "duration": 356}, {"note": 68, "velocity": 97, "duration": 356}, {"note": 65, "velocity": 94, "duration": 236}, {"note": 77, "velocity": 90, "duration": 476}, {"note": 75, "velocity": 98, "duration": 476}, {"note": 72, "velocity": 109, "duration": 236}, {"note": 68, "velocity": 97, "duration": 476}, {"note": 65, "velocity": 87, "duration": 476}, {"note": 68, "velocity": 105, "duration": 1696}]]