[[{"note": 78, "velocity": 91, "duration": 80}, {"note": 0, "velocity": 0, "duration": 105}, {"note": 78, "velocity": 70, "duration": 84}, {"note": 0, "velocity": 0, "duration": 91}, {"note": 78, "velocity": 78, "duration": 65}, {"note": 78, "velocity": 72, "duration": 59}, {"note": 0, "velocity": 0, "duration": 61}, {"note": 75, "velocity": 91, "duration": 88}, {"note": 0, "velocity": 0, "duration": 141}, {"note": 78, "velocity": 49, "duration": 50}, {"note": 0, "velocity": 0, "duration": 62}, {"note": 78, "velocity": 67, "duration": 92}, {"note": 75, "velocity": 82, "duration": 87}, {"note": 0, "velocity": 0, "duration": 273}, {"note": 78, "velocity": 85, "duration": 51}, {"note": 0, "velocity": 0, "duration": 69}, {"note": 78, "velocity": 72, "duration": 50}, {"note": 0, "velocity": 0, "duration": 70}, {"note": 78, "velocity": 88, "duration": 37}, {"note": 78, "velocity": 78, "duration": 43}, {"note": 78, "velocity": 78, "duration": 40}, {"note": 0, "velocity": 0, "duration": 80}, {"note": 78, "velocity": 99, "duration": 46}, {"note": 0, "velocity": 0, "duration": 74}, {"note": 78, "velocity": 93, "duration": 69}, {"note": 0, "velocity": 0, "duration": 291}, {"note": 78, "velocity": 97, "duration": 51}, {"note": 0, "velocity": 0, "duration": 69}, {"note": 78, "velocity": 78, "duration": 53}, {"note": 0, "velocity": 0, "duration": 67}, {"note": 78, "velocity": 88, "duration": 56}, {"note": 0, "velocity": 0, "duration": 64}, {"note": 78, "velocity": 91, "duration": 52}, {"note": 0, "velocity": 0, "duration": 68}, {"note": 78, "velocity": 85, "duration": 58}, {"note": 0, "velocity": 0, "duration": 62}, {"note": 78, "velocity": 93, "duration": 108}, {"note": 0, "velocity": 0, "duration": 252}, {"note": 78, "velocity": 88, "duration": 52}, {"note": 0, "velocity": 0, "duration": 68}, {"note": 78, "velocity": 95, "duration": 45}, {"note": 0, "velocity": 0, "duration": 75}, {"note": 78, "velocity": 91, "duration": 36}, {"note": 78, "velocity": 91, "duration": 36}, {"note": 78, "velocity": 93, "duration": 33}, {"note": 78, "velocity": 82, "duration": 37}, {"note": 78, "velocity": 82, "duration": 36}, {"note": 0, "velocity": 0, "duration": 84}, {"note": 78, "velocity": 93, "duration": 51}, {"note": 0, "velocity": 0, "duration": 309}, {"note": 78, "velocity": 93, "duration": 52}, {"note": 0, "velocity": 0, "duration": 68}, {"note": 78, "velocity": 69, "duration": 48}, {"note": 0, "velocity": 0, "duration": 72}, {"note": 78, "velocity": 82, "duration": 53}, {"note": 0, "velocity": 0, "duration": 67}, {"note": 78, "velocity": 95, "duration": 59}, {"note": 0, "velocity": 0, "duration": 61}, {"note": 78, "velocity": 88, "duration": 57}, {"note": 0, "velocity": 0, "duration": 63}, {"note": 78, "velocity": 85, "duration": 59}, {"note": 0, "velocity": 0, "duration": 61}, {"note": 78, "velocity": 91, "duration": 116}, {"note": 78, "velocity": 82, "duration": 51}, {"note": 0, "velocity": 0, "duration": 69}, {"note": 78, "velocity": 82, "duration": 44}, {"note": 0, "velocity": 0, "duration": 76}, {"note": 78, "velocity": 82, "duration": 44}, {"note": 78, "velocity": 82, "duration": 44}, {"note": 78, "velocity": 82, "duration": 44}, {"note": 0, "velocity": 0, "duration": 76}, {"note": 78, "velocity": 82, "duration": 44}, {"note": 78, "velocity": 82, "duration": 44}, {"note": 78, "velocity": 82, "duration": 44}, {"note": 0, "velocity": 0, "duration": 76}, {"note": 78, "velocity": 82, "duration": 44}, {"note": 0, "velocity": 0, "duration": 316}, {"note": 78, "velocity": 66, "duration": 60}, {"note": 78, "velocity": 85, "duration": 56}, {"note": 0, "velocity": 0, "duration": 64}, {"note": 78, "velocity": 73, "duration": 60}, {"note": 78, "velocity": 80, "duration": 53}, {"note": 0, "velocity": 0, "duration": 67}, {"note": 78, "velocity": 72, "duration": 50}, {"note": 0, "velocity": 0, "duration": 70}, {"note": 78, "velocity": 93, "duration": 111}, {"note": 78, "velocity": 82, "duration": 44}, {"note": 0, "velocity": 0, "duration": 76}, {"note": 78, "velocity": 97, "duration": 34}, {"note": 78, "velocity": 75, "duration": 31}, {"note": 78, "velocity": 88, "duration": 39}, {"note": 78, "velocity": 82, "duration": 42}, {"note": 78, "velocity": 78, "duration": 39}, {"note": 78, "velocity": 85, "duration": 39}, {"note": 78, "velocity": 93, "duration": 41}, {"note": 78, "velocity": 85, "duration": 43}, {"note": 78, "velocity": 72, "duration": 52}, {"note": 78, "velocity": 82, "duration": 44}, {"note": 0, "velocity": 0, "duration": 196}, {"note": 78, "velocity": 99, "duration": 50}, {"note": 0, "velocity": 0, "duration": 70}, {"note": 78, "velocity": 53, "duration": 39}, {"note": 0, "velocity": 0, "duration": 81}, {"note": 78, "velocity": 93, "duration": 76}, {"note": 0, "velocity": 0, "duration": 164}, {"note": 78, "velocity": 75, "duration": 46}, {"note": 0, "velocity": 0, "duration": 74}, {"note": 78, "velocity": 88, "duration": 57}, {"note": 0, "velocity": 0, "duration": 63}, {"note": 78, "velocity": 97, "duration": 74}, {"note": 0, "velocity": 0, "duration": 286}, {"note": 78, "velocity": 85, "duration": 44}, {"note": 0, "velocity": 0, "duration": 76}, {"note": 78, "velocity": 75, "duration": 41}, {"note": 0, "velocity": 0, "duration": 79}, {"note": 78, "velocity": 95, "duration": 39}, {"note": 78, "velocity": 95, "duration": 38}, {"note": 78, "velocity": 95, "duration": 33}, {"note": 78, "velocity": 101, "duration": 33}, {"note": 0, "velocity": 0, "duration": 87}, {"note": 78, "velocity": 70, "duration": 91}, {"note": 78, "velocity": 106, "duration": 40}, {"note": 0, "velocity": 0, "duration": 320}, {"note": 78, "velocity": 85, "duration": 49}, {"note": 0, "velocity": 0, "duration": 71}, {"note": 78, "velocity": 76, "duration": 50}, {"note": 0, "velocity": 0, "duration": 70}, {"note": 78, "velocity": 78, "duration": 49}, {"note": 0, "velocity": 0, "duration": 71}, {"note": 78, "velocity": 95, "duration": 51}, {"note": 0, "velocity": 0, "duration": 69}, {"note": 78, "velocity": 88, "duration": 55}, {"note": 0, "velocity": 0, "duration": 65}, {"note": 78, "velocity": 97, "duration": 76}, {"note": 0, "velocity": 0, "duration": 164}, {"note": 78, "velocity": 99, "duration": 40}, {"note": 78, "velocity": 101, "duration": 34}, {"note": 78, "velocity": 85, "duration": 36}, {"note": 0, "velocity": 0, "duration": 84}, {"note": 78, "velocity": 99, "duration": 37}, {"note": 78, "velocity": 75, "duration": 37}, {"note": 78, "velocity": 75, "duration": 37}, {"note": 0, "velocity": 0, "duration": 83}, {"note": 78, "velocity": 91, "duration": 40}, {"note": 78, "velocity": 91, "duration": 36}, {"note": 78, "velocity": 61, "duration": 50}, {"note": 0, "velocity": 0, "duration": 70}, {"note": 78, "velocity": 91, "duration": 40}, {"note": 0, "velocity": 0, "duration": 320}, {"note": 78, "velocity": 88, "duration": 60}, {"note": 78, "velocity": 82, "duration": 62}, {"note": 78, "velocity": 101, "duration": 67}, {"note": 78, "velocity": 101, "duration": 67}, {"note": 0, "velocity": 0, "duration": 173}, {"note": 78, "velocity": 95, "duration": 60}, {"note": 78, "velocity": 78, "duration": 56}, {"note": 0, "velocity": 0, "duration": 64}, {"note": 78, "velocity": 91, "duration": 61}, {"note": 78, "velocity": 80, "duration": 58}, {"note": 0, "velocity": 0, "duration": 62}, {"note": 78, "velocity": 80, "duration": 61}, {"note": 75, "velocity": 76, "duration": 58}, {"note": 0, "velocity": 0, "duration": 62}, {"note": 78, "velocity": 88, "duration": 58}, {"note": 0, "velocity": 0, "duration": 62}, {"note": 75, "velocity": 91, "duration": 61}, {"note": 78, "velocity": 91, "duration": 61}, {"note": 80, "velocity": 91, "duration": 60}, {"note": 0, "velocity": 0, "duration": 230}, {"note": 75, "velocity": 73, "duration": 65}, {"note": 78, "velocity": 69, "duration": 77}, {"note": 75, "velocity": 78, "duration": 70}, {"note": 78, "velocity": 97, "duration": 79}, {"note": 0, "velocity": 0, "duration": 161}, {"note": 78, "velocity": 91, "duration": 51}, {"note": 0, "velocity": 0, "duration": 69}, {"note": 78, "velocity": 82, "duration": 47}, {"note": 0, "velocity": 0, "duration": 73}, {"note": 78, "velocity": 95, "duration": 50}, {"note": 0, "velocity": 0, "duration": 70}, {"note": 78, "velocity": 88, "duration": 50}, {"note": 0, "velocity": 0, "duration": 70}, {"note": 78, "velocity": 95, "duration": 49}, {"note": 0, "velocity": 0, "duration": 71}, {"note": 78, "velocity": 93, "duration": 59}, {"note": 0, "velocity": 0, "duration": 61}, {"note": 78, "velocity": 95, "duration": 66}, {"note": 78, "velocity": 75, "duration": 49}, {"note": 0, "velocity": 0, "duration": 71}, {"note": 78, "velocity": 88, "duration": 85}, {"note": 0, "velocity": 0, "duration": 395}, {"note": 75, "velocity": 89, "duration": 236}, {"note": 75, "velocity": 99, "duration": 236}, {"note": 75, "velocity": 99, "duration": 236}, {"note": 75, "velocity": 101, "duration": 236}, {"note": 68, "velocity": 93, "duration": 236}, {"note": 68, "velocity": 95, "duration": 116}, {"note": 70, "velocity": 95, "duration": 116}, {"note": 72, "velocity": 95, "duration": 236}, {"note": 75, "velocity": 95, "duration": 236}, {"note": 75, "velocity": 95, "duration": 236}, {"note": 75, "velocity": 78, "duration": 236}, {"note": 75, "velocity": 91, "duration": 236}, {"note": 75, "velocity": 85, "duration": 236}, {"note": 68, "velocity": 95, "duration": 236}, {"note": 68, "velocity": 88, "duration": 116}, {"note": 72, "velocity": 88, "duration": 236}, {"note": 73, "velocity": 88, "duration": 236}, {"note": 68, "velocity": 76, "duration": 356}, {"note": 75, "velocity": 89, "duration": 236}, {"note": 75, "velocity": 99, "duration": 236}, {"note": 75, "velocity": 99, "duration": 236}, {"note": 75, "velocity": 101, "duration": 236}, {"note": 68, "velocity": 93, "duration": 236}, {"note": 68, "velocity": 95, "duration": 116}, {"note": 70, "velocity": 95, "duration": 116}, {"note": 72, "velocity": 95, "duration": 236}, {"note": 77, "velocity": 95, "duration": 236}, {"note": 77, "velocity": 95, "duration": 236}, {"note": 77, "velocity": 78, "duration": 236}, {"note": 79, "velocity": 91, "duration": 236}, {"note": 77, "velocity": 85, "duration": 116}, {"note": 72, "velocity": 85, "duration": 116}, {"note": 70, "velocity": 85, "duration": 956}, {"note": 75, "velocity": 95, "duration": 236}, {"note": 75, "velocity": 88, "duration": 236}, {"note": 75, "velocity": 85, "duration": 236}, {"note": 75, "velocity": 88, "duration": 236}, {"note": 68, "velocity": 95, "duration": 236}, {"note": 68, "velocity": 76, "duration": 116}, {"note": 70, "velocity": 67, "duration": 116}, {"note": 72, "velocity": 99, "duration": 236}, {"note": 75, "velocity": 75, "duration": 236}, {"note": 75, "velocity": 85, "duration": 236}, {"note": 75, "velocity": 88, "duration": 236}, {"note": 75, "velocity": 85, "duration": 236}, {"note": 75, "velocity": 85, "duration": 116}, {"note": 72, "velocity": 91, "duration": 116}, {"note": 70, "velocity": 93, "duration": 956}, {"note": 75, "velocity": 99, "duration": 236}, {"note": 75, "velocity": 88, "duration": 236}, {"note": 75, "velocity": 82, "duration": 236}, {"note": 75, "velocity": 82, "duration": 236}, {"note": 63, "velocity": 97, "duration": 236}, {"note": 63, "velocity": 97, "duration": 236}, {"note": 63, "velocity": 95, "duration": 236}, {"note": 68, "velocity": 97, "duration": 236}, {"note": 68, "velocity": 91, "duration": 236}, {"note": 72, "velocity": 101, "duration": 236}, {"note": 70, "velocity": 101, "duration": 476}, {"note": 63, "velocity": 95, "duration": 236}, {"note": 70, "velocity": 101, "duration": 236}, {"note": 72, "velocity": 106, "duration": 236}, {"note": 77, "velocity": 109, "duration": 236}, {"note": 75, "velocity": 97, "duration": 116}, {"note": 75, "velocity": 78, "duration": 116}, {"note": 75, "velocity": 95, "duration": 716}, {"note": 72, "velocity": 99, "duration": 236}, {"note": 75, "velocity": 78, "duration": 116}, {"note": 72, "velocity": 95, "duration": 116}, {"note": 68, "velocity": 85, "duration": 236}, {"note": 72, "velocity": 103, "duration": 236}, {"note": 68, "velocity": 97, "duration": 116}, {"note": 68, "velocity": 99, "duration": 356}, {"note": 68, "velocity": 91, "duration": 116}, {"note": 70, "velocity": 95, "duration": 236}, {"note": 72, "velocity": 103, "duration": 356}, {"note": 70, "velocity": 97, "duration": 236}, {"note": 72, "velocity": 103, "duration": 236}, {"note": 77, "velocity": 103, "duration": 236}, {"note": 75, "velocity": 97, "duration": 116}, {"note": 75, "velocity": 101, "duration": 116}, {"note": 75, "velocity": 95, "duration": 716}, {"note": 72, "velocity": 109, "duration": 236}, {"note": 70, "velocity": 99, "duration": 116}, {"note": 72, "velocity": 101, "duration": 116}, {"note": 68, "velocity": 99, "duration": 236}, {"note": 72, "velocity": 103, "duration": 236}, {"note": 68, "velocity": 97, "duration": 116}, {"note": 68, "velocity": 99, "duration": 356}, {"note": 63, "velocity": 95, "duration": 116}, {"note": 72, "velocity": 101, "duration": 236}, {"note": 70, "velocity": 99, "duration": 356}, {"note": 68, "velocity": 97, "duration": 236}, {"note": 70, "velocity": 73, "duration": 236}, {"note": 72, "velocity": 103, "duration": 236}, {"note": 72, "velocity": 103, "duration": 236}, {"note": 72, "velocity": 103, "duration": 116}, {"note": 70, "velocity": 76, "duration": 116}, {"note": 72, "velocity": 97, "duration": 116}, {"note": 79, "velocity": 97, "duration": 356}, {"note": 79, "velocity": 97, "duration": 236}, {"note": 79, "velocity": 109, "duration": 116}, {"note": 77, "velocity": 99, "duration": 116}, {"note": 79, "velocity": 97, "duration": 116}, {"note": 80, "velocity": 97, "duration": 356}, {"note": 80, "velocity": 97, "duration": 236}, {"note": 80, "velocity": 95, "duration": 116}, {"note": 79, "velocity": 93, "duration": 116}, {"note": 80, "velocity": 95, "duration": 116}, {"note": 79, "velocity": 99, "duration": 236}, {"note": 77, "velocity": 99, "duration": 716}, {"note": 77, "velocity": 103, "duration": 116}, {"note": 75, "velocity": 91, "duration": 236}, {"note": 75, "velocity": 101, "duration": 236}, {"note": 75, "velocity": 95, "duration": 236}, {"note": 72, "velocity": 113, "duration": 236}, {"note": 72, "velocity": 109, "duration": 116}, {"note": 68, "velocity": 99, "duration": 236}, {"note": 68, "velocity": 93, "duration": 596}, {"note": 63, "velocity": 85, "duration": 125}, {"note": 75, "velocity": 93, "duration": 191}, {"note": 72, "velocity": 101, "duration": 170}, {"note": 0, "velocity": 0, "duration": 70}, {"note": 72, "velocity": 99, "duration": 146}, {"note": 0, "velocity": 0, "duration": 94}, {"note": 70, "velocity": 82, "duration": 55}, {"note": 0, "velocity": 0, "duration": 65}, {"note": 70, "velocity": 93, "duration": 221}, {"note": 0, "velocity": 0, "duration": 139}, {"note": 63, "velocity": 95, "duration": 236}, {"note": 70, "velocity": 101, "duration": 236}, {"note": 72, "velocity": 106, "duration": 236}, {"note": 77, "velocity": 109, "duration": 236}, {"note": 75, "velocity": 97, "duration": 116}, {"note": 75, "velocity": 78, "duration": 116}, {"note": 75, "velocity": 95, "duration": 716}, {"note": 72, "velocity": 99, "duration": 236}, {"note": 75, "velocity": 78, "duration": 116}, {"note": 72, "velocity": 95, "duration": 116}, {"note": 68, "velocity": 85, "duration": 236}, {"note": 72, "velocity": 103, "duration": 236}, {"note": 68, "velocity": 97, "duration": 116}, {"note": 68, "velocity": 99, "duration": 356}, {"note": 68, "velocity": 91, "duration": 116}, {"note": 70, "velocity": 95, "duration": 236}, {"note": 72, "velocity": 103, "duration": 356}, {"note": 70, "velocity": 97, "duration": 236}, {"note": 72, "velocity": 103, "duration": 236}, {"note": 77, "velocity": 103, "duration": 236}, {"note": 75, "velocity": 97, "duration": 116}, {"note": 75, "velocity": 101, "duration": 116}, {"note": 75, "velocity": 95, "duration": 716}, {"note": 72, "velocity": 109, "duration": 236}, {"note": 70, "velocity": 99, "duration": 116}, {"note": 72, "velocity": 101, "duration": 116}, {"note": 68, "velocity": 99, "duration": 236}, {"note": 72, "velocity": 103, "duration": 236}, {"note": 68, "velocity": 97, "duration": 116}, {"note": 68, "velocity": 99, "duration": 356}, {"note": 63, "velocity": 95, "duration": 116}, {"note": 72, "velocity": 101, "duration": 236}, {"note": 70, "velocity": 99, "duration": 356}, {"note": 68, "velocity": 97, "duration": 236}, {"note": 70, "velocity": 73, "duration": 236}, {"note": 72, "velocity": 103, "duration": 236}, {"note": 72, "velocity": 103, "duration": 236}, {"note": 72, "velocity": 103, "duration": 116}, {"note": 70, "velocity": 76, "duration": 116}, {"note": 72, "velocity": 97, "duration": 116}, {"note": 79, "velocity": 97, "duration": 356}, {"note": 79, "velocity": 97, "duration": 236}, {"note": 79, "velocity": 109, "duration": 116}, {"note": 77, "velocity": 99, "duration": 116}, {"note": 79, "velocity": 97, "duration": 116}, {"note": 80, "velocity": 97, "duration": 356}, {"note": 80, "velocity": 97, "duration": 236}, {"note": 80, "velocity": 95, "duration": 116}, {"note": 79, "velocity": 93, "duration": 116}, {"note": 80, "velocity": 95, "duration": 116}, {"note": 79, "velocity": 99, "duration": 236}, {"note": 77, "velocity": 99, "duration": 716}, {"note": 77, "velocity": 103, "duration": 116}, {"note": 75, "velocity": 91, "duration": 236}, {"note": 75, "velocity": 101, "duration": 236}, {"note": 75, "velocity": 95, "duration": 236}, {"note": 72, "velocity": 113, "duration": 236}, {"note": 72, "velocity": 109, "duration": 116}, {"note": 68, "velocity": 99, "duration": 236}, {"note": 68, "velocity": 93, "duration": 596}, {"note": 63, "velocity": 85, "duration": 125}, {"note": 75, "velocity": 93, "duration": 191}, {"note": 72, "velocity": 101, "duration": 170}, {"note": 0, "velocity": 0, "duration": 70}, {"note": 72, "velocity": 99, "duration": 146}, {"note": 0, "velocity": 0, "duration": 94}, {"note": 70, "velocity": 82, "duration": 55}, {"note": 0, "velocity": 0, "duration": 65}, {"note": 70, "velocity": 93, "duration": 221}, {"note": 0, "velocity": 0, "duration": 129}, {"note": 63, "velocity": 99, "duration": 145}, {"note": 0, "velocity": 0, "duration": 102}, {"note": 63, "velocity": 95, "duration": 214}, {"note": 70, "velocity": 82, "duration": 172}, {"note": 0, "velocity": 0, "duration": 77}, {"note": 70, "velocity": 95, "duration": 315}, {"note": 0, "velocity": 0, "duration": 62}, {"note": 68, "velocity": 82, "duration": 934}, {"note": 0, "velocity": 0, "duration": 6130}, {"note": 78, "velocity": 91, "duration": 80}, {"note": 78, "velocity": 70, "duration": 84}, {"note": 78, "velocity": 78, "duration": 65}, {"note": 78, "velocity": 72, "duration": 59}, {"note": 0, "velocity": 0, "duration": 61}, {"note": 75, "velocity": 91, "duration": 88}, {"note": 0, "velocity": 0, "duration": 152}, {"note": 78, "velocity": 49, "duration": 50}, {"note": 0, "velocity": 0, "duration": 70}, {"note": 78, "velocity": 67, "duration": 93}, {"note": 75, "velocity": 82, "duration": 87}, {"note": 0, "velocity": 0, "duration": 273}, {"note": 78, "velocity": 85, "duration": 51}, {"note": 0, "velocity": 0, "duration": 69}, {"note": 78, "velocity": 72, "duration": 50}, {"note": 0, "velocity": 0, "duration": 70}, {"note": 78, "velocity": 88, "duration": 37}, {"note": 0, "velocity": 0, "duration": 83}, {"note": 78, "velocity": 78, "duration": 40}, {"note": 78, "velocity": 78, "duration": 40}, {"note": 0, "velocity": 0, "duration": 80}, {"note": 78, "velocity": 99, "duration": 46}, {"note": 0, "velocity": 0, "duration": 74}, {"note": 78, "velocity": 93, "duration": 69}, {"note": 0, "velocity": 0, "duration": 291}, {"note": 78, "velocity": 97, "duration": 51}, {"note": 0, "velocity": 0, "duration": 69}, {"note": 78, "velocity": 78, "duration": 53}, {"note": 0, "velocity": 0, "duration": 67}, {"note": 78, "velocity": 88, "duration": 56}, {"note": 0, "velocity": 0, "duration": 64}, {"note": 78, "velocity": 91, "duration": 52}, {"note": 0, "velocity": 0, "duration": 68}, {"note": 78, "velocity": 85, "duration": 58}, {"note": 0, "velocity": 0, "duration": 62}, {"note": 78, "velocity": 93, "duration": 108}, {"note": 0, "velocity": 0, "duration": 252}, {"note": 78, "velocity": 88, "duration": 52}, {"note": 0, "velocity": 0, "duration": 68}, {"note": 78, "velocity": 95, "duration": 45}, {"note": 0, "velocity": 0, "duration": 75}, {"note": 78, "velocity": 91, "duration": 36}, {"note": 0, "velocity": 0, "duration": 84}, {"note": 78, "velocity": 82, "duration": 33}, {"note": 78, "velocity": 91, "duration": 33}, {"note": 78, "velocity": 93, "duration": 33}, {"note": 0, "velocity": 0, "duration": 87}, {"note": 78, "velocity": 82, "duration": 36}, {"note": 0, "velocity": 0, "duration": 84}, {"note": 78, "velocity": 93, "duration": 51}, {"note": 0, "velocity": 0, "duration": 309}, {"note": 78, "velocity": 93, "duration": 52}, {"note": 0, "velocity": 0, "duration": 68}, {"note": 78, "velocity": 69, "duration": 48}, {"note": 0, "velocity": 0, "duration": 72}, {"note": 78, "velocity": 82, "duration": 53}, {"note": 0, "velocity": 0, "duration": 67}, {"note": 78, "velocity": 95, "duration": 59}, {"note": 0, "velocity": 0, "duration": 61}, {"note": 78, "velocity": 88, "duration": 57}, {"note": 0, "velocity": 0, "duration": 63}, {"note": 78, "velocity": 85, "duration": 59}, {"note": 0, "velocity": 0, "duration": 61}, {"note": 78, "velocity": 91, "duration": 116}, {"note": 78, "velocity": 82, "duration": 51}, {"note": 0, "velocity": 0, "duration": 69}, {"note": 78, "velocity": 82, "duration": 44}, {"note": 0, "velocity": 0, "duration": 76}, {"note": 78, "velocity": 82, "duration": 44}, {"note": 0, "velocity": 0, "duration": 76}, {"note": 78, "velocity": 82, "duration": 44}, {"note": 78, "velocity": 82, "duration": 44}, {"note": 0, "velocity": 0, "duration": 76}, {"note": 78, "velocity": 82, "duration": 44}, {"note": 0, "velocity": 0, "duration": 76}, {"note": 78, "velocity": 82, "duration": 44}, {"note": 78, "velocity": 82, "duration": 44}, {"note": 0, "velocity": 0, "duration": 76}, {"note": 78, "velocity": 82, "duration": 44}, {"note": 0, "velocity": 0, "duration": 316}, {"note": 78, "velocity": 66, "duration": 60}, {"note": 78, "velocity": 85, "duration": 56}, {"note": 0, "velocity": 0, "duration": 64}, {"note": 78, "velocity": 73, "duration": 60}, {"note": 78, "velocity": 80, "duration": 53}, {"note": 0, "velocity": 0, "duration": 67}, {"note": 78, "velocity": 72, "duration": 50}, {"note": 0, "velocity": 0, "duration": 70}, {"note": 78, "velocity": 93, "duration": 111}, {"note": 78, "velocity": 82, "duration": 44}, {"note": 0, "velocity": 0, "duration": 76}, {"note": 78, "velocity": 97, "duration": 34}, {"note": 0, "velocity": 0, "duration": 86}, {"note": 78, "velocity": 75, "duration": 31}, {"note": 78, "velocity": 88, "duration": 31}, {"note": 0, "velocity": 0, "duration": 89}, {"note": 78, "velocity": 82, "duration": 42}, {"note": 0, "velocity": 0, "duration": 78}, {"note": 78, "velocity": 78, "duration": 39}, {"note": 78, "velocity": 85, "duration": 39}, {"note": 0, "velocity": 0, "duration": 81}, {"note": 78, "velocity": 93, "duration": 41}, {"note": 0, "velocity": 0, "duration": 79}, {"note": 78, "velocity": 72, "duration": 43}, {"note": 78, "velocity": 85, "duration": 43}, {"note": 0, "velocity": 0, "duration": 77}, {"note": 78, "velocity": 82, "duration": 44}, {"note": 0, "velocity": 0, "duration": 196}, {"note": 78, "velocity": 99, "duration": 50}, {"note": 0, "velocity": 0, "duration": 70}, {"note": 78, "velocity": 53, "duration": 39}, {"note": 0, "velocity": 0, "duration": 81}, {"note": 78, "velocity": 93, "duration": 76}, {"note": 0, "velocity": 0, "duration": 164}, {"note": 78, "velocity": 75, "duration": 46}, {"note": 0, "velocity": 0, "duration": 74}, {"note": 78, "velocity": 88, "duration": 57}, {"note": 0, "velocity": 0, "duration": 63}, {"note": 78, "velocity": 97, "duration": 74}, {"note": 0, "velocity": 0, "duration": 286}, {"note": 78, "velocity": 85, "duration": 44}, {"note": 0, "velocity": 0, "duration": 76}, {"note": 78, "velocity": 75, "duration": 41}, {"note": 0, "velocity": 0, "duration": 79}, {"note": 78, "velocity": 95, "duration": 39}, {"note": 78, "velocity": 95, "duration": 39}, {"note": 0, "velocity": 0, "duration": 81}, {"note": 78, "velocity": 95, "duration": 33}, {"note": 78, "velocity": 101, "duration": 33}, {"note": 0, "velocity": 0, "duration": 87}, {"note": 78, "velocity": 70, "duration": 91}, {"note": 78, "velocity": 106, "duration": 40}, {"note": 0, "velocity": 0, "duration": 320}, {"note": 78, "velocity": 85, "duration": 49}, {"note": 0, "velocity": 0, "duration": 71}, {"note": 78, "velocity": 76, "duration": 50}, {"note": 0, "velocity": 0, "duration": 70}, {"note": 78, "velocity": 78, "duration": 49}, {"note": 0, "velocity": 0, "duration": 71}, {"note": 78, "velocity": 95, "duration": 51}, {"note": 0, "velocity": 0, "duration": 69}, {"note": 78, "velocity": 88, "duration": 55}, {"note": 0, "velocity": 0, "duration": 65}, {"note": 78, "velocity": 97, "duration": 76}, {"note": 0, "velocity": 0, "duration": 164}, {"note": 78, "velocity": 99, "duration": 40}, {"note": 0, "velocity": 0, "duration": 80}, {"note": 78, "velocity": 85, "duration": 34}, {"note": 78, "velocity": 101, "duration": 34}, {"note": 0, "velocity": 0, "duration": 86}, {"note": 78, "velocity": 75, "duration": 37}, {"note": 78, "velocity": 99, "duration": 37}, {"note": 0, "velocity": 0, "duration": 83}, {"note": 78, "velocity": 75, "duration": 37}, {"note": 0, "velocity": 0, "duration": 83}, {"note": 78, "velocity": 91, "duration": 36}, {"note": 78, "velocity": 91, "duration": 36}, {"note": 0, "velocity": 0, "duration": 84}, {"note": 78, "velocity": 61, "duration": 50}, {"note": 0, "velocity": 0, "duration": 70}, {"note": 78, "velocity": 91, "duration": 40}, {"note": 0, "velocity": 0, "duration": 320}, {"note": 78, "velocity": 88, "duration": 60}, {"note": 78, "velocity": 82, "duration": 62}, {"note": 78, "velocity": 101, "duration": 67}, {"note": 78, "velocity": 101, "duration": 67}, {"note": 0, "velocity": 0, "duration": 173}, {"note": 78, "velocity": 95, "duration": 60}, {"note": 78, "velocity": 78, "duration": 56}, {"note": 0, "velocity": 0, "duration": 64}, {"note": 78, "velocity": 91, "duration": 61}, {"note": 78, "velocity": 80, "duration": 58}, {"note": 0, "velocity": 0, "duration": 62}, {"note": 78, "velocity": 80, "duration": 61}, {"note": 75, "velocity": 76, "duration": 58}, {"note": 0, "velocity": 0, "duration": 62}, {"note": 78, "velocity": 88, "duration": 58}, {"note": 0, "velocity": 0, "duration": 62}, {"note": 75, "velocity": 91, "duration": 61}, {"note": 78, "velocity": 91, "duration": 61}, {"note": 80, "velocity": 91, "duration": 61}, {"note": 0, "velocity": 0, "duration": 179}, {"note": 75, "velocity": 73, "duration": 65}, {"note": 78, "velocity": 69, "duration": 77}, {"note": 75, "velocity": 78, "duration": 70}, {"note": 78, "velocity": 97, "duration": 79}, {"note": 0, "velocity": 0, "duration": 161}, {"note": 78, "velocity": 91, "duration": 51}, {"note": 0, "velocity": 0, "duration": 69}, {"note": 78, "velocity": 82, "duration": 47}, {"note": 0, "velocity": 0, "duration": 73}, {"note": 78, "velocity": 95, "duration": 50}, {"note": 0, "velocity": 0, "duration": 70}, {"note": 78, "velocity": 88, "duration": 50}, {"note": 0, "velocity": 0, "duration": 70}, {"note": 78, "velocity": 95, "duration": 49}, {"note": 0, "velocity": 0, "duration": 71}, {"note": 78, "velocity": 93, "duration": 59}, {"note": 0, "velocity": 0, "duration": 61}, {"note": 78, "velocity": 95, "duration": 66}, {"note": 78, "velocity": 75, "duration": 49}, {"note": 0, "velocity": 0, "duration": 71}, {"note": 78, "velocity": 88, "duration": 85}, {"note": 0, "velocity": 0, "duration": 395}, {"note": 75, "velocity": 89, "duration": 236}, {"note": 75, "velocity": 99, "duration": 236}, {"note": 75, "velocity": 99, "duration": 236}, {"note": 75, "velocity": 101, "duration": 236}, {"note": 68, "velocity": 93, "duration": 236}, {"note": 68, "velocity": 95, "duration": 116}, {"note": 70, "velocity": 95, "duration": 116}, {"note": 72, "velocity": 95, "duration": 236}, {"note": 75, "velocity": 95, "duration": 236}, {"note": 75, "velocity": 95, "duration": 236}, {"note": 75, "velocity": 78, "duration": 236}, {"note": 75, "velocity": 91, "duration": 236}, {"note": 75, "velocity": 85, "duration": 236}, {"note": 68, "velocity": 95, "duration": 236}, {"note": 68, "velocity": 88, "duration": 116}, {"note": 72, "velocity": 88, "duration": 236}, {"note": 73, "velocity": 88, "duration": 236}, {"note": 68, "velocity": 76, "duration": 356}, {"note": 75, "velocity": 89, "duration": 236}, {"note": 75, "velocity": 99, "duration": 236}, {"note": 75, "velocity": 99, "duration": 236}, {"note": 75, "velocity": 101, "duration": 236}, {"note": 68, "velocity": 93, "duration": 236}, {"note": 68, "velocity": 95, "duration": 116}, {"note": 70, "velocity": 95, "duration": 116}, {"note": 72, "velocity": 95, "duration": 236}, {"note": 77, "velocity": 95, "duration": 236}, {"note": 77, "velocity": 95, "duration": 236}, {"note": 77, "velocity": 78, "duration": 236}, {"note": 79, "velocity": 91, "duration": 236}, {"note": 77, "velocity": 85, "duration": 116}, {"note": 72, "velocity": 85, "duration": 116}, {"note": 70, "velocity": 85, "duration": 956}, {"note": 75, "velocity": 95, "duration": 236}, {"note": 75, "velocity": 88, "duration": 236}, {"note": 75, "velocity": 85, "duration": 236}, {"note": 75, "velocity": 88, "duration": 236}, {"note": 68, "velocity": 95, "duration": 236}, {"note": 68, "velocity": 76, "duration": 116}, {"note": 70, "velocity": 67, "duration": 116}, {"note": 72, "velocity": 99, "duration": 236}, {"note": 75, "velocity": 75, "duration": 236}, {"note": 75, "velocity": 85, "duration": 236}, {"note": 75, "velocity": 88, "duration": 236}, {"note": 75, "velocity": 85, "duration": 236}, {"note": 75, "velocity": 85, "duration": 116}, {"note": 72, "velocity": 91, "duration": 116}, {"note": 70, "velocity": 93, "duration": 956}, {"note": 75, "velocity": 99, "duration": 236}, {"note": 75, "velocity": 88, "duration": 236}, {"note": 75, "velocity": 82, "duration": 236}, {"note": 75, "velocity": 82, "duration": 236}, {"note": 63, "velocity": 97, "duration": 236}, {"note": 63, "velocity": 97, "duration": 236}, {"note": 63, "velocity": 95, "duration": 236}, {"note": 68, "velocity": 97, "duration": 236}, {"note": 68, "velocity": 91, "duration": 236}, {"note": 72, "velocity": 101, "duration": 236}, {"note": 70, "velocity": 101, "duration": 476}, {"note": 63, "velocity": 95, "duration": 236}, {"note": 70, "velocity": 101, "duration": 236}, {"note": 72, "velocity": 106, "duration": 236}, {"note": 77, "velocity": 109, "duration": 236}, {"note": 75, "velocity": 97, "duration": 116}, {"note": 75, "velocity": 78, "duration": 116}, {"note": 75, "velocity": 95, "duration": 716}, {"note": 72, "velocity": 99, "duration": 236}, {"note": 75, "velocity": 78, "duration": 116}, {"note": 72, "velocity": 95, "duration": 116}, {"note": 68, "velocity": 85, "duration": 236}, {"note": 72, "velocity": 103, "duration": 236}, {"note": 68, "velocity": 97, "duration": 116}, {"note": 68, "velocity": 99, "duration": 356}, {"note": 68, "velocity": 91, "duration": 116}, {"note": 70, "velocity": 95, "duration": 236}, {"note": 72, "velocity": 103, "duration": 356}, {"note": 70, "velocity": 97, "duration": 236}, {"note": 72, "velocity": 103, "duration": 236}, {"note": 77, "velocity": 103, "duration": 236}, {"note": 75, "velocity": 97, "duration": 116}, {"note": 75, "velocity": 101, "duration": 116}, {"note": 75, "velocity": 95, "duration": 716}, {"note": 72, "velocity": 109, "duration": 236}, {"note": 70, "velocity": 99, "duration": 116}, {"note": 72, "velocity": 101, "duration": 116}, {"note": 68, "velocity": 99, "duration": 236}, {"note": 72, "velocity": 103, "duration": 236}, {"note": 68, "velocity": 97, "duration": 116}, {"note": 68, "velocity": 99, "duration": 356}, {"note": 63, "velocity": 95, "duration": 116}, {"note": 72, "velocity": 101, "duration": 236}, {"note": 70, "velocity": 99, "duration": 356}, {"note": 68, "velocity": 97, "duration": 236}, {"note": 70, "velocity": 73, "duration": 236}, {"note": 72, "velocity": 103, "duration": 236}, {"note": 72, "velocity": 103, "duration": 236}, {"note": 72, "velocity": 103, "duration": 116}, {"note": 70, "velocity": 76, "duration": 116}, {"note": 72, "velocity": 97, "duration": 116}, {"note": 79, "velocity": 97, "duration": 356}, {"note": 79, "velocity": 97, "duration": 236}, {"note": 79, "velocity": 109, "duration": 116}, {"note": 77, "velocity": 99, "duration": 116}, {"note": 79, "velocity": 97, "duration": 116}, {"note": 80, "velocity": 97, "duration": 356}, {"note": 80, "velocity": 97, "duration": 236}, {"note": 80, "velocity": 95, "duration": 116}, {"note": 79, "velocity": 93, "duration": 116}, {"note": 80, "velocity": 95, "duration": 116}, {"note": 79, "velocity": 99, "duration": 236}, {"note": 77, "velocity": 99, "duration": 716}, {"note": 77, "velocity": 103, "duration": 116}, {"note": 75, "velocity": 91, "duration": 236}, {"note": 75, "velocity": 101, "duration": 236}, {"note": 75, "velocity": 95, "duration": 236}, {"note": 72, "velocity": 113, "duration": 236}, {"note": 72, "velocity": 109, "duration": 116}, {"note": 68, "velocity": 99, "duration": 236}, {"note": 68, "velocity": 93, "duration": 596}, {"note": 63, "velocity": 85, "duration": 125}, {"note": 75, "velocity": 93, "duration": 191}, {"note": 72, "velocity": 101, "duration": 170}, {"note": 0, "velocity": 0, "duration": 70}, {"note": 72, "velocity": 99, "duration": 146}, {"note": 0, "velocity": 0, "duration": 94}, {"note": 70, "velocity": 82, "duration": 55}, {"note": 0, "velocity": 0, "duration": 65}, {"note": 70, "velocity": 93, "duration": 221}, {"note": 0, "velocity": 0, "duration": 139}, {"note": 64, "velocity": 95, "duration": 236}, {"note": 71, "velocity": 101, "duration": 236}, {"note": 73, "velocity": 106, "duration": 236}, {"note": 78, "velocity": 109, "duration": 236}, {"note": 76, "velocity": 97, "duration": 116}, {"note": 76, "velocity": 78, "duration": 116}, {"note": 76, "velocity": 95, "duration": 716}, {"note": 73, "velocity": 99, "duration": 236}, {"note": 76, "velocity": 78, "duration": 116}, {"note": 73, "velocity": 95, "duration": 116}, {"note": 69, "velocity": 85, "duration": 236}, {"note": 73, "velocity": 103, "duration": 236}, {"note": 69, "velocity": 97, "duration": 116}, {"note": 69, "velocity": 99, "duration": 356}, {"note": 69, "velocity": 91, "duration": 116}, {"note": 71, "velocity": 95, "duration": 236}, {"note": 73, "velocity": 103, "duration": 356}, {"note": 71, "velocity": 97, "duration": 236}, {"note": 73, "velocity": 103, "duration": 236}, {"note": 78, "velocity": 103, "duration": 236}, {"note": 76, "velocity": 97, "duration": 116}, {"note": 76, "velocity": 101, "duration": 116}, {"note": 76, "velocity": 95, "duration": 716}, {"note": 73, "velocity": 109, "duration": 236}, {"note": 71, "velocity": 99, "duration": 116}, {"note": 73, "velocity": 101, "duration": 116}, {"note": 69, "velocity": 99, "duration": 236}, {"note": 73, "velocity": 103, "duration": 236}, {"note": 69, "velocity": 97, "duration": 116}, {"note": 69, "velocity": 99, "duration": 356}, {"note": 64, "velocity": 95, "duration": 116}, {"note": 73, "velocity": 101, "duration": 236}, {"note": 71, "velocity": 99, "duration": 356}, {"note": 69, "velocity": 97, "duration": 236}, {"note": 71, "velocity": 73, "duration": 236}, {"note": 73, "velocity": 103, "duration": 236}, {"note": 73, "velocity": 103, "duration": 236}, {"note": 73, "velocity": 103, "duration": 116}, {"note": 71, "velocity": 76, "duration": 116}, {"note": 73, "velocity": 97, "duration": 116}, {"note": 80, "velocity": 97, "duration": 356}, {"note": 80, "velocity": 97, "duration": 236}, {"note": 80, "velocity": 109, "duration": 116}, {"note": 78, "velocity": 99, "duration": 116}, {"note": 80, "velocity": 97, "duration": 116}, {"note": 81, "velocity": 97, "duration": 356}, {"note": 81, "velocity": 97, "duration": 236}, {"note": 81, "velocity": 95, "duration": 116}, {"note": 80, "velocity": 93, "duration": 116}, {"note": 81, "velocity": 95, "duration": 116}, {"note": 80, "velocity": 99, "duration": 236}, {"note": 78, "velocity": 99, "duration": 716}, {"note": 78, "velocity": 103, "duration": 116}, {"note": 76, "velocity": 91, "duration": 236}, {"note": 76, "velocity": 101, "duration": 236}, {"note": 76, "velocity": 95, "duration": 236}, {"note": 73, "velocity": 113, "duration": 236}, {"note": 73, "velocity": 109, "duration": 116}, {"note": 69, "velocity": 99, "duration": 236}, {"note": 69, "velocity": 93, "duration": 596}, {"note": 64, "velocity": 85, "duration": 125}, {"note": 76, "velocity": 93, "duration": 191}, {"note": 73, "velocity": 101, "duration": 170}, {"note": 0, "velocity": 0, "duration": 70}, {"note": 73, "velocity": 99, "duration": 146}, {"note": 0, "velocity": 0, "duration": 94}, {"note": 71, "velocity": 82, "duration": 55}, {"note": 0, "velocity": 0, "duration": 65}, {"note": 71, "velocity": 93, "duration": 221}, {"note": 0, "velocity": 0, "duration": 139}, {"note": 64, "velocity": 99, "duration": 145}, {"note": 0, "velocity": 0, "duration": 95}, {"note": 71, "velocity": 101, "duration": 236}, {"note": 73, "velocity": 106, "duration": 236}, {"note": 78, "velocity": 109, "duration": 236}, {"note": 76, "velocity": 97, "duration": 116}, {"note": 76, "velocity": 78, "duration": 116}, {"note": 76, "velocity": 95, "duration": 716}, {"note": 73, "velocity": 99, "duration": 236}, {"note": 76, "velocity": 78, "duration": 116}, {"note": 73, "velocity": 95, "duration": 116}, {"note": 69, "velocity": 85, "duration": 236}, {"note": 73, "velocity": 103, "duration": 236}, {"note": 73, "velocity": 97, "duration": 116}, {"note": 73, "velocity": 99, "duration": 220}, {"note": 74, "velocity": 99, "duration": 240}, {"note": 73, "velocity": 91, "duration": 116}, {"note": 71, "velocity": 95, "duration": 236}, {"note": 69, "velocity": 103, "duration": 356}, {"note": 71, "velocity": 97, "duration": 236}, {"note": 73, "velocity": 103, "duration": 236}, {"note": 78, "velocity": 103, "duration": 236}, {"note": 78, "velocity": 97, "duration": 116}, {"note": 78, "velocity": 101, "duration": 116}, {"note": 0, "velocity": 0, "duration": 124}, {"note": 76, "velocity": 95, "duration": 716}, {"note": 73, "velocity": 109, "duration": 236}, {"note": 71, "velocity": 99, "duration": 116}, {"note": 73, "velocity": 101, "duration": 116}, {"note": 69, "velocity": 99, "duration": 236}, {"note": 73, "velocity": 103, "duration": 236}, {"note": 69, "velocity": 97, "duration": 116}, {"note": 69, "velocity": 99, "duration": 356}, {"note": 64, "velocity": 95, "duration": 116}, {"note": 73, "velocity": 101, "duration": 236}, {"note": 71, "velocity": 99, "duration": 356}, {"note": 69, "velocity": 97, "duration": 236}, {"note": 71, "velocity": 73, "duration": 236}, {"note": 73, "velocity": 103, "duration": 236}, {"note": 73, "velocity": 103, "duration": 236}, {"note": 73, "velocity": 103, "duration": 116}, {"note": 71, "velocity": 76, "duration": 116}, {"note": 73, "velocity": 97, "duration": 116}, {"note": 80, "velocity": 97, "duration": 356}, {"note": 80, "velocity": 97, "duration": 236}, {"note": 80, "velocity": 109, "duration": 116}, {"note": 78, "velocity": 99, "duration": 116}, {"note": 80, "velocity": 97, "duration": 116}, {"note": 81, "velocity": 97, "duration": 356}, {"note": 81, "velocity": 97, "duration": 236}, {"note": 81, "velocity": 95, "duration": 116}, {"note": 80, "velocity": 93, "duration": 116}, {"note": 81, "velocity": 95, "duration": 116}, {"note": 80, "velocity": 99, "duration": 236}, {"note": 78, "velocity": 99, "duration": 716}, {"note": 78, "velocity": 103, "duration": 116}, {"note": 76, "velocity": 91, "duration": 236}, {"note": 76, "velocity": 101, "duration": 236}, {"note": 76, "velocity": 95, "duration": 236}, {"note": 73, "velocity": 113, "duration": 236}, {"note": 73, "velocity": 109, "duration": 116}, {"note": 69, "velocity": 99, "duration": 236}, {"note": 69, "velocity": 93, "duration": 596}, {"note": 64, "velocity": 85, "duration": 125}, {"note": 76, "velocity": 93, "duration": 191}, {"note": 73, "velocity": 101, "duration": 170}, {"note": 73, "velocity": 99, "duration": 50}, {"note": 0, "velocity": 0, "duration": 310}, {"note": 71, "velocity": 82, "duration": 55}, {"note": 0, "velocity": 0, "duration": 65}, {"note": 71, "velocity": 93, "duration": 221}, {"note": 0, "velocity": 0, "duration": 379}, {"note": 64, "velocity": 95, "duration": 60}, {"note": 64, "velocity": 78, "duration": 53}, {"note": 0, "velocity": 0, "duration": 67}, {"note": 64, "velocity": 82, "duration": 87}, {"note": 71, "velocity": 82, "duration": 75}, {"note": 71, "velocity": 85, "duration": 195}, {"note": 69, "velocity": 99, "duration": 71}, {"note": 69, "velocity": 76, "duration": 569}]]