[[{"note": 74, "velocity": 99, "duration": 956}, {"note": 74, "velocity": 97, "duration": 236}, {"note": 75, "velocity": 91, "duration": 236}, {"note": 77, "velocity": 80, "duration": 476}, {"note": 70, "velocity": 95, "duration": 1916}, {"note": 70, "velocity": 93, "duration": 956}, {"note": 69, "velocity": 91, "duration": 236}, {"note": 70, "velocity": 85, "duration": 236}, {"note": 72, "velocity": 72, "duration": 236}, {"note": 74, "velocity": 82, "duration": 2036}, {"note": 0, "velocity": 0, "duration": 124}, {"note": 67, "velocity": 97, "duration": 596}, {"note": 69, "velocity": 91, "duration": 236}, {"note": 70, "velocity": 82, "duration": 236}, {"note": 72, "velocity": 99, "duration": 236}, {"note": 72, "velocity": 88, "duration": 236}, {"note": 74, "velocity": 95, "duration": 236}, {"note": 75, "velocity": 99, "duration": 236}, {"note": 77, "velocity": 95, "duration": 476}, {"note": 74, "velocity": 99, "duration": 476}, {"note": 70, "velocity": 80, "duration": 1196}, {"note": 67, "velocity": 88, "duration": 236}, {"note": 74, "velocity": 82, "duration": 236}, {"note": 70, "velocity": 70, "duration": 236}, {"note": 67, "velocity": 93, "duration": 476}, {"note": 74, "velocity": 95, "duration": 236}, {"note": 70, "velocity": 75, "duration": 236}, {"note": 72, "velocity": 82, "duration": 2156}, {"note": 74, "velocity": 82, "duration": 236}, {"note": 74, "velocity": 88, "duration": 236}, {"note": 74, "velocity": 88, "duration": 236}, {"note": 74, "velocity": 91, "duration": 236}, {"note": 75, "velocity": 85, "duration": 236}, {"note": 77, "velocity": 80, "duration": 476}, {"note": 70, "velocity": 95, "duration": 2156}, {"note": 70, "velocity": 88, "duration": 236}, {"note": 70, "velocity": 91, "duration": 236}, {"note": 70, "velocity": 88, "duration": 236}, {"note": 69, "velocity": 99, "duration": 236}, {"note": 70, "velocity": 88, "duration": 236}, {"note": 72, "velocity": 95, "duration": 476}, {"note": 72, "velocity": 91, "duration": 236}, {"note": 74, "velocity": 99, "duration": 1676}, {"note": 67, "velocity": 95, "duration": 476}, {"note": 69, "velocity": 97, "duration": 236}, {"note": 70, "velocity": 88, "duration": 236}, {"note": 72, "velocity": 99, "duration": 236}, {"note": 72, "velocity": 97, "duration": 236}, {"note": 74, "velocity": 103, "duration": 236}, {"note": 75, "velocity": 101, "duration": 236}, {"note": 74, "velocity": 91, "duration": 236}, {"note": 77, "velocity": 97, "duration": 236}, {"note": 77, "velocity": 103, "duration": 236}, {"note": 74, "velocity": 91, "duration": 236}, {"note": 70, "velocity": 95, "duration": 476}, {"note": 74, "velocity": 101, "duration": 236}, {"note": 70, "velocity": 85, "duration": 236}, {"note": 67, "velocity": 97, "duration": 236}, {"note": 75, "velocity": 85, "duration": 236}, {"note": 75, "velocity": 82, "duration": 236}, {"note": 67, "velocity": 95, "duration": 236}, {"note": 69, "velocity": 85, "duration": 476}, {"note": 72, "velocity": 99, "duration": 476}, {"note": 70, "velocity": 93, "duration": 956}, {"note": 70, "velocity": 99, "duration": 236}, {"note": 72, "velocity": 97, "duration": 236}, {"note": 74, "velocity": 99, "duration": 236}, {"note": 75, "velocity": 106, "duration": 236}, {"note": 77, "velocity": 103, "duration": 476}, {"note": 82, "velocity": 82, "duration": 236}, {"note": 81, "velocity": 101, "duration": 476}, {"note": 77, "velocity": 97, "duration": 716}, {"note": 77, "velocity": 103, "duration": 476}, {"note": 82, "velocity": 88, "duration": 236}, {"note": 81, "velocity": 103, "duration": 476}, {"note": 82, "velocity": 97, "duration": 476}, {"note": 77, "velocity": 91, "duration": 236}, {"note": 79, "velocity": 106, "duration": 236}, {"note": 79, "velocity": 91, "duration": 236}, {"note": 79, "velocity": 91, "duration": 236}, {"note": 70, "velocity": 97, "duration": 236}, {"note": 69, "velocity": 99, "duration": 236}, {"note": 79, "velocity": 82, "duration": 236}, {"note": 77, "velocity": 103, "duration": 356}, {"note": 75, "velocity": 91, "duration": 116}, {"note": 77, "velocity": 99, "duration": 1196}, {"note": 74, "velocity": 97, "duration": 236}, {"note": 74, "velocity": 99, "duration": 236}, {"note": 72, "velocity": 93, "duration": 236}, {"note": 74, "velocity": 101, "duration": 476}, {"note": 81, "velocity": 99, "duration": 236}, {"note": 81, "velocity": 97, "duration": 476}, {"note": 74, "velocity": 99, "duration": 716}, {"note": 74, "velocity": 95, "duration": 476}, {"note": 82, "velocity": 82, "duration": 236}, {"note": 81, "velocity": 101, "duration": 476}, {"note": 79, "velocity": 101, "duration": 476}, {"note": 77, "velocity": 93, "duration": 236}, {"note": 79, "velocity": 99, "duration": 236}, {"note": 79, "velocity": 101, "duration": 236}, {"note": 79, "velocity": 91, "duration": 236}, {"note": 79, "velocity": 91, "duration": 236}, {"note": 79, "velocity": 93, "duration": 236}, {"note": 81, "velocity": 93, "duration": 236}, {"note": 82, "velocity": 103, "duration": 476}, {"note": 79, "velocity": 97, "duration": 236}, {"note": 77, "velocity": 93, "duration": 716}, {"note": 70, "velocity": 99, "duration": 236}, {"note": 72, "velocity": 91, "duration": 236}, {"note": 74, "velocity": 91, "duration": 236}, {"note": 75, "velocity": 95, "duration": 236}, {"note": 77, "velocity": 88, "duration": 476}, {"note": 82, "velocity": 75, "duration": 236}, {"note": 81, "velocity": 103, "duration": 476}, {"note": 77, "velocity": 97, "duration": 716}, {"note": 77, "velocity": 99, "duration": 476}, {"note": 82, "velocity": 75, "duration": 236}, {"note": 81, "velocity": 103, "duration": 476}, {"note": 82, "velocity": 88, "duration": 476}, {"note": 77, "velocity": 93, "duration": 236}, {"note": 79, "velocity": 76, "duration": 236}, {"note": 79, "velocity": 88, "duration": 236}, {"note": 79, "velocity": 88, "duration": 236}, {"note": 79, "velocity": 88, "duration": 236}, {"note": 81, "velocity": 97, "duration": 236}, {"note": 82, "velocity": 93, "duration": 236}, {"note": 84, "velocity": 88, "duration": 476}, {"note": 77, "velocity": 99, "duration": 1196}, {"note": 74, "velocity": 82, "duration": 236}, {"note": 74, "velocity": 91, "duration": 236}, {"note": 72, "velocity": 76, "duration": 236}, {"note": 74, "velocity": 95, "duration": 476}, {"note": 81, "velocity": 95, "duration": 236}, {"note": 81, "velocity": 97, "duration": 476}, {"note": 74, "velocity": 97, "duration": 476}, {"note": 72, "velocity": 85, "duration": 236}, {"note": 74, "velocity": 82, "duration": 236}, {"note": 82, "velocity": 72, "duration": 236}, {"note": 82, "velocity": 73, "duration": 236}, {"note": 81, "velocity": 97, "duration": 356}, {"note": 82, "velocity": 75, "duration": 836}, {"note": 79, "velocity": 88, "duration": 476}, {"note": 70, "velocity": 97, "duration": 236}, {"note": 70, "velocity": 93, "duration": 476}, {"note": 79, "velocity": 80, "duration": 716}, {"note": 77, "velocity": 99, "duration": 956}, {"note": 75, "velocity": 78, "duration": 236}, {"note": 74, "velocity": 95, "duration": 236}, {"note": 75, "velocity": 46, "duration": 236}, {"note": 67, "velocity": 80, "duration": 236}, {"note": 70, "velocity": 69, "duration": 5276}, {"note": 74, "velocity": 82, "duration": 236}, {"note": 74, "velocity": 82, "duration": 236}, {"note": 74, "velocity": 78, "duration": 236}, {"note": 74, "velocity": 88, "duration": 236}, {"note": 75, "velocity": 80, "duration": 236}, {"note": 77, "velocity": 99, "duration": 476}, {"note": 70, "velocity": 93, "duration": 2156}, {"note": 70, "velocity": 88, "duration": 236}, {"note": 70, "velocity": 80, "duration": 236}, {"note": 70, "velocity": 85, "duration": 236}, {"note": 69, "velocity": 91, "duration": 236}, {"note": 70, "velocity": 70, "duration": 236}, {"note": 72, "velocity": 91, "duration": 476}, {"note": 72, "velocity": 99, "duration": 236}, {"note": 74, "velocity": 95, "duration": 1676}, {"note": 67, "velocity": 93, "duration": 476}, {"note": 69, "velocity": 85, "duration": 236}, {"note": 70, "velocity": 80, "duration": 236}, {"note": 72, "velocity": 95, "duration": 236}, {"note": 72, "velocity": 95, "duration": 236}, {"note": 74, "velocity": 95, "duration": 236}, {"note": 75, "velocity": 95, "duration": 236}, {"note": 74, "velocity": 85, "duration": 236}, {"note": 77, "velocity": 93, "duration": 236}, {"note": 77, "velocity": 91, "duration": 236}, {"note": 74, "velocity": 88, "duration": 236}, {"note": 70, "velocity": 91, "duration": 476}, {"note": 74, "velocity": 91, "duration": 236}, {"note": 70, "velocity": 82, "duration": 236}, {"note": 67, "velocity": 85, "duration": 236}, {"note": 75, "velocity": 72, "duration": 236}, {"note": 75, "velocity": 80, "duration": 236}, {"note": 67, "velocity": 91, "duration": 236}, {"note": 69, "velocity": 82, "duration": 476}, {"note": 72, "velocity": 97, "duration": 476}, {"note": 70, "velocity": 95, "duration": 956}, {"note": 70, "velocity": 99, "duration": 236}, {"note": 72, "velocity": 93, "duration": 236}, {"note": 74, "velocity": 85, "duration": 356}, {"note": 75, "velocity": 97, "duration": 236}, {"note": 77, "velocity": 78, "duration": 356}, {"note": 82, "velocity": 82, "duration": 236}, {"note": 81, "velocity": 101, "duration": 476}, {"note": 77, "velocity": 97, "duration": 716}, {"note": 77, "velocity": 103, "duration": 476}, {"note": 82, "velocity": 88, "duration": 236}, {"note": 81, "velocity": 103, "duration": 476}, {"note": 82, "velocity": 97, "duration": 476}, {"note": 77, "velocity": 91, "duration": 236}, {"note": 79, "velocity": 106, "duration": 236}, {"note": 79, "velocity": 91, "duration": 236}, {"note": 79, "velocity": 91, "duration": 236}, {"note": 70, "velocity": 97, "duration": 236}, {"note": 69, "velocity": 99, "duration": 236}, {"note": 79, "velocity": 82, "duration": 236}, {"note": 77, "velocity": 103, "duration": 356}, {"note": 75, "velocity": 91, "duration": 116}, {"note": 77, "velocity": 99, "duration": 1196}, {"note": 74, "velocity": 97, "duration": 236}, {"note": 74, "velocity": 99, "duration": 236}, {"note": 72, "velocity": 93, "duration": 236}, {"note": 74, "velocity": 101, "duration": 476}, {"note": 81, "velocity": 99, "duration": 236}, {"note": 81, "velocity": 97, "duration": 476}, {"note": 74, "velocity": 99, "duration": 716}, {"note": 74, "velocity": 95, "duration": 476}, {"note": 82, "velocity": 82, "duration": 236}, {"note": 81, "velocity": 101, "duration": 476}, {"note": 79, "velocity": 101, "duration": 476}, {"note": 77, "velocity": 93, "duration": 236}, {"note": 79, "velocity": 99, "duration": 236}, {"note": 79, "velocity": 101, "duration": 236}, {"note": 79, "velocity": 91, "duration": 236}, {"note": 79, "velocity": 91, "duration": 236}, {"note": 79, "velocity": 93, "duration": 236}, {"note": 81, "velocity": 93, "duration": 236}, {"note": 82, "velocity": 103, "duration": 476}, {"note": 79, "velocity": 97, "duration": 236}, {"note": 77, "velocity": 93, "duration": 716}, {"note": 70, "velocity": 99, "duration": 236}, {"note": 72, "velocity": 91, "duration": 236}, {"note": 74, "velocity": 91, "duration": 236}, {"note": 75, "velocity": 95, "duration": 236}, {"note": 77, "velocity": 88, "duration": 476}, {"note": 82, "velocity": 75, "duration": 236}, {"note": 81, "velocity": 103, "duration": 476}, {"note": 77, "velocity": 97, "duration": 716}, {"note": 77, "velocity": 99, "duration": 476}, {"note": 82, "velocity": 75, "duration": 236}, {"note": 81, "velocity": 103, "duration": 476}, {"note": 82, "velocity": 88, "duration": 476}, {"note": 77, "velocity": 93, "duration": 236}, {"note": 79, "velocity": 76, "duration": 236}, {"note": 79, "velocity": 88, "duration": 236}, {"note": 79, "velocity": 88, "duration": 236}, {"note": 79, "velocity": 88, "duration": 236}, {"note": 81, "velocity": 97, "duration": 236}, {"note": 82, "velocity": 93, "duration": 236}, {"note": 84, "velocity": 88, "duration": 476}, {"note": 77, "velocity": 99, "duration": 1196}, {"note": 74, "velocity": 82, "duration": 236}, {"note": 74, "velocity": 91, "duration": 236}, {"note": 72, "velocity": 76, "duration": 236}, {"note": 74, "velocity": 95, "duration": 476}, {"note": 81, "velocity": 95, "duration": 236}, {"note": 81, "velocity": 97, "duration": 476}, {"note": 74, "velocity": 97, "duration": 476}, {"note": 72, "velocity": 85, "duration": 236}, {"note": 74, "velocity": 82, "duration": 236}, {"note": 82, "velocity": 72, "duration": 236}, {"note": 82, "velocity": 73, "duration": 236}, {"note": 81, "velocity": 97, "duration": 356}, {"note": 82, "velocity": 75, "duration": 836}, {"note": 0, "velocity": 0, "duration": 964}, {"note": 79, "velocity": 88, "duration": 476}, {"note": 70, "velocity": 97, "duration": 236}, {"note": 70, "velocity": 93, "duration": 476}, {"note": 79, "velocity": 80, "duration": 716}, {"note": 77, "velocity": 99, "duration": 956}, {"note": 75, "velocity": 78, "duration": 236}, {"note": 74, "velocity": 95, "duration": 236}, {"note": 67, "velocity": 80, "duration": 236}, {"note": 70, "velocity": 69, "duration": 2156}, {"note": 0, "velocity": 0, "duration": 10324}, {"note": 70, "velocity": 99, "duration": 476}, {"note": 72, "velocity": 93, "duration": 236}, {"note": 74, "velocity": 85, "duration": 356}, {"note": 75, "velocity": 97, "duration": 236}, {"note": 0, "velocity": 0, "duration": 124}, {"note": 77, "velocity": 78, "duration": 356}, {"note": 0, "velocity": 0, "duration": 124}, {"note": 82, "velocity": 82, "duration": 236}, {"note": 81, "velocity": 101, "duration": 476}, {"note": 77, "velocity": 97, "duration": 716}, {"note": 77, "velocity": 103, "duration": 476}, {"note": 82, "velocity": 88, "duration": 236}, {"note": 81, "velocity": 103, "duration": 476}, {"note": 82, "velocity": 97, "duration": 476}, {"note": 77, "velocity": 91, "duration": 236}, {"note": 79, "velocity": 106, "duration": 236}, {"note": 79, "velocity": 91, "duration": 236}, {"note": 79, "velocity": 91, "duration": 236}, {"note": 70, "velocity": 97, "duration": 236}, {"note": 69, "velocity": 99, "duration": 236}, {"note": 79, "velocity": 82, "duration": 236}, {"note": 77, "velocity": 103, "duration": 356}, {"note": 75, "velocity": 91, "duration": 116}, {"note": 77, "velocity": 99, "duration": 1196}, {"note": 74, "velocity": 97, "duration": 236}, {"note": 74, "velocity": 99, "duration": 236}, {"note": 72, "velocity": 93, "duration": 236}, {"note": 74, "velocity": 101, "duration": 476}, {"note": 81, "velocity": 99, "duration": 236}, {"note": 81, "velocity": 97, "duration": 476}, {"note": 74, "velocity": 99, "duration": 716}, {"note": 74, "velocity": 95, "duration": 476}, {"note": 82, "velocity": 82, "duration": 236}, {"note": 81, "velocity": 101, "duration": 476}, {"note": 79, "velocity": 101, "duration": 476}, {"note": 77, "velocity": 93, "duration": 236}, {"note": 79, "velocity": 99, "duration": 236}, {"note": 79, "velocity": 101, "duration": 236}, {"note": 79, "velocity": 91, "duration": 236}, {"note": 79, "velocity": 91, "duration": 236}, {"note": 79, "velocity": 93, "duration": 236}, {"note": 81, "velocity": 93, "duration": 236}, {"note": 82, "velocity": 103, "duration": 476}, {"note": 79, "velocity": 97, "duration": 236}, {"note": 77, "velocity": 93, "duration": 716}, {"note": 70, "velocity": 99, "duration": 236}, {"note": 72, "velocity": 91, "duration": 236}, {"note": 74, "velocity": 91, "duration": 236}, {"note": 75, "velocity": 95, "duration": 236}, {"note": 77, "velocity": 88, "duration": 476}, {"note": 82, "velocity": 75, "duration": 236}, {"note": 81, "velocity": 103, "duration": 476}, {"note": 77, "velocity": 97, "duration": 716}, {"note": 77, "velocity": 99, "duration": 476}, {"note": 82, "velocity": 75, "duration": 236}, {"note": 81, "velocity": 103, "duration": 476}, {"note": 82, "velocity": 88, "duration": 476}, {"note": 77, "velocity": 93, "duration": 236}, {"note": 79, "velocity": 76, "duration": 236}, {"note": 79, "velocity": 88, "duration": 236}, {"note": 79, "velocity": 88, "duration": 236}, {"note": 79, "velocity": 88, "duration": 236}, {"note": 81, "velocity": 97, "duration": 236}, {"note": 82, "velocity": 93, "duration": 236}, {"note": 84, "velocity": 88, "duration": 476}, {"note": 77, "velocity": 99, "duration": 1196}, {"note": 74, "velocity": 82, "duration": 236}, {"note": 74, "velocity": 91, "duration": 236}, {"note": 72, "velocity": 76, "duration": 236}, {"note": 74, "velocity": 95, "duration": 476}, {"note": 81, "velocity": 95, "duration": 236}, {"note": 81, "velocity": 97, "duration": 476}, {"note": 74, "velocity": 97, "duration": 476}, {"note": 72, "velocity": 85, "duration": 236}, {"note": 74, "velocity": 82, "duration": 236}, {"note": 82, "velocity": 72, "duration": 236}, {"note": 82, "velocity": 73, "duration": 236}, {"note": 81, "velocity": 97, "duration": 356}, {"note": 84, "velocity": 85, "duration": 360}, {"note": 82, "velocity": 75, "duration": 836}, {"note": 0, "velocity": 0, "duration": 1924}, {"note": 79, "velocity": 88, "duration": 476}, {"note": 70, "velocity": 97, "duration": 236}, {"note": 70, "velocity": 93, "duration": 476}, {"note": 79, "velocity": 80, "duration": 716}, {"note": 77, "velocity": 99, "duration": 956}]]