[[{"note": 81, "velocity": 86, "duration": 130}, {"note": 81, "velocity": 84, "duration": 116}, {"note": 79, "velocity": 78, "duration": 116}, {"note": 81, "velocity": 84, "duration": 58}, {"note": 81, "velocity": 86, "duration": 236}, {"note": 86, "velocity": 83, "duration": 116}, {"note": 86, "velocity": 93, "duration": 116}, {"note": 79, "velocity": 86, "duration": 139}, {"note": 79, "velocity": 81, "duration": 224}, {"note": 79, "velocity": 90, "duration": 116}, {"note": 79, "velocity": 84, "duration": 116}, {"note": 84, "velocity": 95, "duration": 62}, {"note": 81, "velocity": 86, "duration": 47}, {"note": 84, "velocity": 84, "duration": 56}, {"note": 81, "velocity": 81, "duration": 956}, {"note": 81, "velocity": 84, "duration": 236}, {"note": 81, "velocity": 90, "duration": 116}, {"note": 79, "velocity": 86, "duration": 116}, {"note": 86, "velocity": 95, "duration": 1436}, {"note": 79, "velocity": 84, "duration": 236}, {"note": 79, "velocity": 84, "duration": 116}, {"note": 77, "velocity": 90, "duration": 116}, {"note": 79, "velocity": 90, "duration": 1436}, {"note": 79, "velocity": 86, "duration": 236}, {"note": 79, "velocity": 84, "duration": 116}, {"note": 79, "velocity": 83, "duration": 116}, {"note": 81, "velocity": 86, "duration": 476}, {"note": 74, "velocity": 86, "duration": 956}, {"note": 86, "velocity": 63, "duration": 1436}, {"note": 84, "velocity": 90, "duration": 116}, {"note": 86, "velocity": 82, "duration": 60}, {"note": 84, "velocity": 76, "duration": 52}, {"note": 81, "velocity": 83, "duration": 116}, {"note": 79, "velocity": 79, "duration": 116}, {"note": 81, "velocity": 90, "duration": 1916}, {"note": 86, "velocity": 79, "duration": 1436}, {"note": 84, "velocity": 91, "duration": 116}, {"note": 86, "velocity": 79, "duration": 64}, {"note": 84, "velocity": 72, "duration": 48}, {"note": 81, "velocity": 76, "duration": 116}, {"note": 79, "velocity": 68, "duration": 116}, {"note": 77, "velocity": 84, "duration": 1916}, {"note": 69, "velocity": 84, "duration": 116}, {"note": 69, "velocity": 82, "duration": 116}, {"note": 69, "velocity": 76, "duration": 116}, {"note": 72, "velocity": 79, "duration": 116}, {"note": 74, "velocity": 79, "duration": 236}, {"note": 81, "velocity": 84, "duration": 236}, {"note": 79, "velocity": 82, "duration": 116}, {"note": 81, "velocity": 73, "duration": 36}, {"note": 79, "velocity": 71, "duration": 76}, {"note": 77, "velocity": 84, "duration": 116}, {"note": 79, "velocity": 84, "duration": 116}, {"note": 77, "velocity": 81, "duration": 227}, {"note": 69, "velocity": 90, "duration": 111}, {"note": 72, "velocity": 86, "duration": 123}, {"note": 74, "velocity": 83, "duration": 1923}, {"note": 69, "velocity": 98, "duration": 116}, {"note": 74, "velocity": 84, "duration": 116}, {"note": 74, "velocity": 90, "duration": 116}, {"note": 72, "velocity": 93, "duration": 116}, {"note": 74, "velocity": 94, "duration": 236}, {"note": 77, "velocity": 101, "duration": 236}, {"note": 74, "velocity": 94, "duration": 236}, {"note": 74, "velocity": 94, "duration": 476}, {"note": 72, "velocity": 90, "duration": 116}, {"note": 69, "velocity": 82, "duration": 116}, {"note": 72, "velocity": 94, "duration": 116}, {"note": 69, "velocity": 82, "duration": 116}, {"note": 67, "velocity": 76, "duration": 116}, {"note": 69, "velocity": 79, "duration": 116}, {"note": 67, "velocity": 93, "duration": 236}, {"note": 62, "velocity": 84, "duration": 116}, {"note": 65, "velocity": 84, "duration": 116}, {"note": 72, "velocity": 84, "duration": 116}, {"note": 69, "velocity": 84, "duration": 836}, {"note": 69, "velocity": 100, "duration": 116}, {"note": 74, "velocity": 90, "duration": 116}, {"note": 74, "velocity": 90, "duration": 116}, {"note": 72, "velocity": 93, "duration": 116}, {"note": 74, "velocity": 95, "duration": 236}, {"note": 72, "velocity": 94, "duration": 116}, {"note": 74, "velocity": 82, "duration": 116}, {"note": 72, "velocity": 86, "duration": 116}, {"note": 67, "velocity": 94, "duration": 596}, {"note": 65, "velocity": 95, "duration": 116}, {"note": 67, "velocity": 91, "duration": 116}, {"note": 72, "velocity": 94, "duration": 116}, {"note": 69, "velocity": 84, "duration": 116}, {"note": 72, "velocity": 84, "duration": 116}, {"note": 69, "velocity": 84, "duration": 116}, {"note": 72, "velocity": 80, "duration": 236}, {"note": 67, "velocity": 73, "duration": 116}, {"note": 69, "velocity": 86, "duration": 236}, {"note": 62, "velocity": 91, "duration": 836}, {"note": 69, "velocity": 76, "duration": 116}, {"note": 74, "velocity": 90, "duration": 116}, {"note": 74, "velocity": 84, "duration": 116}, {"note": 72, "velocity": 90, "duration": 116}, {"note": 74, "velocity": 91, "duration": 236}, {"note": 77, "velocity": 95, "duration": 116}, {"note": 74, "velocity": 91, "duration": 116}, {"note": 77, "velocity": 95, "duration": 236}, {"note": 77, "velocity": 91, "duration": 476}, {"note": 74, "velocity": 84, "duration": 116}, {"note": 77, "velocity": 91, "duration": 116}, {"note": 77, "velocity": 95, "duration": 116}, {"note": 77, "velocity": 91, "duration": 116}, {"note": 74, "velocity": 86, "duration": 116}, {"note": 77, "velocity": 93, "duration": 116}, {"note": 74, "velocity": 95, "duration": 236}, {"note": 72, "velocity": 90, "duration": 116}, {"note": 74, "velocity": 86, "duration": 236}, {"note": 67, "velocity": 95, "duration": 836}, {"note": 62, "velocity": 98, "duration": 116}, {"note": 62, "velocity": 84, "duration": 116}, {"note": 62, "velocity": 84, "duration": 116}, {"note": 65, "velocity": 93, "duration": 116}, {"note": 69, "velocity": 95, "duration": 236}, {"note": 72, "velocity": 91, "duration": 116}, {"note": 74, "velocity": 90, "duration": 116}, {"note": 72, "velocity": 90, "duration": 236}, {"note": 67, "velocity": 90, "duration": 476}, {"note": 65, "velocity": 90, "duration": 116}, {"note": 67, "velocity": 86, "duration": 116}, {"note": 65, "velocity": 84, "duration": 116}, {"note": 62, "velocity": 94, "duration": 116}, {"note": 62, "velocity": 84, "duration": 116}, {"note": 67, "velocity": 90, "duration": 116}, {"note": 65, "velocity": 90, "duration": 116}, {"note": 67, "velocity": 90, "duration": 65}, {"note": 65, "velocity": 90, "duration": 65}, {"note": 62, "velocity": 90, "duration": 167}, {"note": 60, "velocity": 90, "duration": 116}, {"note": 62, "velocity": 90, "duration": 1916}, {"note": 74, "velocity": 90, "duration": 716}, {"note": 72, "velocity": 93, "duration": 116}, {"note": 74, "velocity": 84, "duration": 116}, {"note": 72, "velocity": 94, "duration": 116}, {"note": 69, "velocity": 104, "duration": 596}, {"note": 69, "velocity": 95, "duration": 116}, {"note": 72, "velocity": 95, "duration": 116}, {"note": 74, "velocity": 98, "duration": 596}, {"note": 77, "velocity": 95, "duration": 116}, {"note": 74, "velocity": 98, "duration": 116}, {"note": 77, "velocity": 93, "duration": 116}, {"note": 79, "velocity": 95, "duration": 956}, {"note": 74, "velocity": 98, "duration": 716}, {"note": 74, "velocity": 100, "duration": 116}, {"note": 77, "velocity": 95, "duration": 116}, {"note": 79, "velocity": 90, "duration": 716}, {"note": 79, "velocity": 86, "duration": 116}, {"note": 81, "velocity": 84, "duration": 116}, {"note": 74, "velocity": 98, "duration": 716}, {"note": 72, "velocity": 91, "duration": 116}, {"note": 74, "velocity": 84, "duration": 116}, {"note": 72, "velocity": 94, "duration": 116}, {"note": 69, "velocity": 77, "duration": 836}, {"note": 69, "velocity": 104, "duration": 116}, {"note": 74, "velocity": 91, "duration": 116}, {"note": 74, "velocity": 86, "duration": 116}, {"note": 72, "velocity": 95, "duration": 116}, {"note": 74, "velocity": 90, "duration": 236}, {"note": 77, "velocity": 95, "duration": 116}, {"note": 74, "velocity": 86, "duration": 116}, {"note": 74, "velocity": 84, "duration": 236}, {"note": 74, "velocity": 62, "duration": 476}, {"note": 72, "velocity": 86, "duration": 116}, {"note": 74, "velocity": 86, "duration": 116}, {"note": 74, "velocity": 86, "duration": 116}, {"note": 72, "velocity": 86, "duration": 116}, {"note": 72, "velocity": 86, "duration": 116}, {"note": 74, "velocity": 86, "duration": 116}, {"note": 72, "velocity": 91, "duration": 116}, {"note": 74, "velocity": 80, "duration": 44}, {"note": 72, "velocity": 80, "duration": 68}, {"note": 67, "velocity": 82, "duration": 116}, {"note": 72, "velocity": 69, "duration": 116}, {"note": 69, "velocity": 90, "duration": 956}, {"note": 62, "velocity": 79, "duration": 116}, {"note": 62, "velocity": 73, "duration": 116}, {"note": 62, "velocity": 76, "duration": 116}, {"note": 65, "velocity": 84, "duration": 116}, {"note": 69, "velocity": 80, "duration": 236}, {"note": 72, "velocity": 83, "duration": 116}, {"note": 74, "velocity": 83, "duration": 116}, {"note": 67, "velocity": 79, "duration": 236}, {"note": 67, "velocity": 79, "duration": 476}, {"note": 69, "velocity": 79, "duration": 236}, {"note": 72, "velocity": 100, "duration": 116}, {"note": 72, "velocity": 90, "duration": 116}, {"note": 72, "velocity": 93, "duration": 116}, {"note": 74, "velocity": 84, "duration": 116}, {"note": 79, "velocity": 90, "duration": 116}, {"note": 81, "velocity": 84, "duration": 116}, {"note": 77, "velocity": 91, "duration": 116}, {"note": 79, "velocity": 78, "duration": 116}, {"note": 74, "velocity": 98, "duration": 956}, {"note": 0, "velocity": 0, "duration": 964}, {"note": 86, "velocity": 63, "duration": 1436}, {"note": 84, "velocity": 90, "duration": 116}, {"note": 86, "velocity": 82, "duration": 60}, {"note": 84, "velocity": 76, "duration": 52}, {"note": 81, "velocity": 83, "duration": 116}, {"note": 79, "velocity": 79, "duration": 116}, {"note": 81, "velocity": 90, "duration": 1916}, {"note": 86, "velocity": 79, "duration": 1436}, {"note": 84, "velocity": 91, "duration": 116}, {"note": 86, "velocity": 79, "duration": 64}, {"note": 84, "velocity": 72, "duration": 48}, {"note": 81, "velocity": 76, "duration": 116}, {"note": 79, "velocity": 68, "duration": 116}, {"note": 77, "velocity": 84, "duration": 1916}, {"note": 69, "velocity": 84, "duration": 116}, {"note": 69, "velocity": 82, "duration": 116}, {"note": 69, "velocity": 76, "duration": 116}, {"note": 72, "velocity": 79, "duration": 116}, {"note": 74, "velocity": 79, "duration": 236}, {"note": 81, "velocity": 84, "duration": 236}, {"note": 79, "velocity": 82, "duration": 116}, {"note": 81, "velocity": 73, "duration": 36}, {"note": 79, "velocity": 71, "duration": 76}, {"note": 77, "velocity": 84, "duration": 116}, {"note": 79, "velocity": 84, "duration": 116}, {"note": 77, "velocity": 81, "duration": 227}, {"note": 69, "velocity": 90, "duration": 111}, {"note": 72, "velocity": 86, "duration": 123}, {"note": 74, "velocity": 83, "duration": 1923}, {"note": 69, "velocity": 98, "duration": 116}, {"note": 74, "velocity": 84, "duration": 116}, {"note": 74, "velocity": 90, "duration": 116}, {"note": 72, "velocity": 93, "duration": 116}, {"note": 74, "velocity": 94, "duration": 236}, {"note": 77, "velocity": 101, "duration": 236}, {"note": 74, "velocity": 94, "duration": 236}, {"note": 74, "velocity": 94, "duration": 476}, {"note": 72, "velocity": 90, "duration": 116}, {"note": 69, "velocity": 82, "duration": 116}, {"note": 72, "velocity": 94, "duration": 116}, {"note": 69, "velocity": 82, "duration": 116}, {"note": 67, "velocity": 76, "duration": 116}, {"note": 69, "velocity": 79, "duration": 116}, {"note": 67, "velocity": 93, "duration": 236}, {"note": 62, "velocity": 84, "duration": 116}, {"note": 65, "velocity": 84, "duration": 116}, {"note": 72, "velocity": 84, "duration": 116}, {"note": 69, "velocity": 84, "duration": 836}, {"note": 69, "velocity": 100, "duration": 116}, {"note": 74, "velocity": 90, "duration": 116}, {"note": 74, "velocity": 90, "duration": 116}, {"note": 72, "velocity": 93, "duration": 116}, {"note": 74, "velocity": 95, "duration": 236}, {"note": 72, "velocity": 94, "duration": 116}, {"note": 74, "velocity": 82, "duration": 116}, {"note": 72, "velocity": 86, "duration": 116}, {"note": 67, "velocity": 94, "duration": 596}, {"note": 65, "velocity": 95, "duration": 116}, {"note": 67, "velocity": 91, "duration": 116}, {"note": 72, "velocity": 94, "duration": 116}, {"note": 69, "velocity": 84, "duration": 116}, {"note": 72, "velocity": 84, "duration": 116}, {"note": 69, "velocity": 84, "duration": 116}, {"note": 72, "velocity": 80, "duration": 236}, {"note": 67, "velocity": 73, "duration": 116}, {"note": 69, "velocity": 86, "duration": 236}, {"note": 62, "velocity": 91, "duration": 836}, {"note": 69, "velocity": 76, "duration": 116}, {"note": 74, "velocity": 90, "duration": 116}, {"note": 74, "velocity": 84, "duration": 116}, {"note": 72, "velocity": 90, "duration": 116}, {"note": 74, "velocity": 91, "duration": 236}, {"note": 77, "velocity": 95, "duration": 116}, {"note": 74, "velocity": 91, "duration": 116}, {"note": 77, "velocity": 95, "duration": 236}, {"note": 77, "velocity": 91, "duration": 476}, {"note": 74, "velocity": 84, "duration": 116}, {"note": 77, "velocity": 91, "duration": 116}, {"note": 77, "velocity": 95, "duration": 116}, {"note": 77, "velocity": 91, "duration": 116}, {"note": 74, "velocity": 86, "duration": 116}, {"note": 77, "velocity": 93, "duration": 116}, {"note": 74, "velocity": 95, "duration": 236}, {"note": 0, "velocity": 0, "duration": 124}, {"note": 74, "velocity": 86, "duration": 236}, {"note": 67, "velocity": 95, "duration": 836}, {"note": 62, "velocity": 98, "duration": 116}, {"note": 62, "velocity": 84, "duration": 116}, {"note": 62, "velocity": 84, "duration": 116}, {"note": 65, "velocity": 93, "duration": 116}, {"note": 69, "velocity": 95, "duration": 236}, {"note": 72, "velocity": 91, "duration": 116}, {"note": 74, "velocity": 90, "duration": 116}, {"note": 72, "velocity": 90, "duration": 236}, {"note": 67, "velocity": 90, "duration": 476}, {"note": 65, "velocity": 90, "duration": 116}, {"note": 67, "velocity": 86, "duration": 116}, {"note": 65, "velocity": 84, "duration": 116}, {"note": 62, "velocity": 94, "duration": 116}, {"note": 62, "velocity": 84, "duration": 116}, {"note": 67, "velocity": 90, "duration": 116}, {"note": 65, "velocity": 90, "duration": 116}, {"note": 67, "velocity": 90, "duration": 65}, {"note": 62, "velocity": 90, "duration": 167}, {"note": 60, "velocity": 90, "duration": 116}, {"note": 62, "velocity": 90, "duration": 1916}, {"note": 74, "velocity": 90, "duration": 716}, {"note": 72, "velocity": 93, "duration": 116}, {"note": 74, "velocity": 84, "duration": 116}, {"note": 72, "velocity": 94, "duration": 116}, {"note": 69, "velocity": 104, "duration": 596}, {"note": 69, "velocity": 95, "duration": 116}, {"note": 72, "velocity": 95, "duration": 116}, {"note": 74, "velocity": 98, "duration": 596}, {"note": 77, "velocity": 95, "duration": 116}, {"note": 74, "velocity": 98, "duration": 116}, {"note": 77, "velocity": 93, "duration": 116}, {"note": 79, "velocity": 95, "duration": 956}, {"note": 74, "velocity": 98, "duration": 716}, {"note": 74, "velocity": 100, "duration": 116}, {"note": 77, "velocity": 95, "duration": 116}, {"note": 79, "velocity": 90, "duration": 716}, {"note": 79, "velocity": 86, "duration": 116}, {"note": 81, "velocity": 84, "duration": 116}, {"note": 74, "velocity": 98, "duration": 716}, {"note": 72, "velocity": 91, "duration": 116}, {"note": 74, "velocity": 84, "duration": 116}, {"note": 72, "velocity": 94, "duration": 116}, {"note": 69, "velocity": 77, "duration": 836}, {"note": 69, "velocity": 104, "duration": 116}, {"note": 74, "velocity": 91, "duration": 116}, {"note": 74, "velocity": 86, "duration": 116}, {"note": 72, "velocity": 95, "duration": 116}, {"note": 74, "velocity": 90, "duration": 236}, {"note": 77, "velocity": 95, "duration": 116}, {"note": 74, "velocity": 86, "duration": 116}, {"note": 74, "velocity": 84, "duration": 236}, {"note": 74, "velocity": 62, "duration": 476}, {"note": 72, "velocity": 86, "duration": 116}, {"note": 74, "velocity": 86, "duration": 116}, {"note": 74, "velocity": 86, "duration": 116}, {"note": 72, "velocity": 86, "duration": 116}, {"note": 72, "velocity": 86, "duration": 116}, {"note": 74, "velocity": 86, "duration": 116}, {"note": 72, "velocity": 91, "duration": 116}, {"note": 74, "velocity": 80, "duration": 44}, {"note": 72, "velocity": 80, "duration": 68}, {"note": 67, "velocity": 82, "duration": 116}, {"note": 72, "velocity": 69, "duration": 116}, {"note": 69, "velocity": 90, "duration": 956}, {"note": 62, "velocity": 79, "duration": 116}, {"note": 62, "velocity": 73, "duration": 116}, {"note": 62, "velocity": 76, "duration": 116}, {"note": 65, "velocity": 84, "duration": 116}, {"note": 69, "velocity": 80, "duration": 236}, {"note": 72, "velocity": 83, "duration": 116}, {"note": 74, "velocity": 83, "duration": 116}, {"note": 67, "velocity": 79, "duration": 236}, {"note": 67, "velocity": 79, "duration": 476}, {"note": 69, "velocity": 79, "duration": 236}, {"note": 72, "velocity": 100, "duration": 116}, {"note": 72, "velocity": 90, "duration": 116}, {"note": 72, "velocity": 93, "duration": 116}, {"note": 74, "velocity": 84, "duration": 116}, {"note": 79, "velocity": 90, "duration": 116}, {"note": 81, "velocity": 84, "duration": 116}, {"note": 77, "velocity": 91, "duration": 116}, {"note": 79, "velocity": 78, "duration": 116}, {"note": 74, "velocity": 98, "duration": 956}, {"note": 0, "velocity": 0, "duration": 964}, {"note": 69, "velocity": 84, "duration": 156}, {"note": 74, "velocity": 81, "duration": 55}, {"note": 0, "velocity": 0, "duration": 65}, {"note": 74, "velocity": 84, "duration": 89}, {"note": 72, "velocity": 83, "duration": 141}, {"note": 74, "velocity": 84, "duration": 167}, {"note": 0, "velocity": 0, "duration": 73}, {"note": 77, "velocity": 94, "duration": 87}, {"note": 74, "velocity": 93, "duration": 100}, {"note": 77, "velocity": 98, "duration": 210}, {"note": 77, "velocity": 93, "duration": 307}, {"note": 0, "velocity": 0, "duration": 173}, {"note": 74, "velocity": 95, "duration": 134}, {"note": 77, "velocity": 86, "duration": 64}, {"note": 77, "velocity": 94, "duration": 61}, {"note": 77, "velocity": 91, "duration": 109}, {"note": 74, "velocity": 93, "duration": 106}, {"note": 77, "velocity": 86, "duration": 86}, {"note": 74, "velocity": 91, "duration": 169}, {"note": 0, "velocity": 0, "duration": 71}, {"note": 72, "velocity": 83, "duration": 119}, {"note": 74, "velocity": 83, "duration": 85}, {"note": 69, "velocity": 86, "duration": 304}, {"note": 0, "velocity": 0, "duration": 656}, {"note": 62, "velocity": 83, "duration": 53}, {"note": 0, "velocity": 0, "duration": 67}, {"note": 62, "velocity": 83, "duration": 79}, {"note": 62, "velocity": 37, "duration": 171}, {"note": 65, "velocity": 82, "duration": 143}, {"note": 69, "velocity": 84, "duration": 157}, {"note": 0, "velocity": 0, "duration": 83}, {"note": 72, "velocity": 84, "duration": 111}, {"note": 74, "velocity": 84, "duration": 84}, {"note": 67, "velocity": 83, "duration": 189}, {"note": 67, "velocity": 80, "duration": 192}, {"note": 0, "velocity": 0, "duration": 288}, {"note": 69, "velocity": 84, "duration": 84}, {"note": 0, "velocity": 0, "duration": 156}, {"note": 72, "velocity": 95, "duration": 70}, {"note": 72, "velocity": 100, "duration": 65}, {"note": 72, "velocity": 90, "duration": 99}, {"note": 72, "velocity": 17, "duration": 38}, {"note": 74, "velocity": 80, "duration": 85}, {"note": 79, "velocity": 77, "duration": 129}, {"note": 81, "velocity": 86, "duration": 95}, {"note": 77, "velocity": 84, "duration": 92}, {"note": 79, "velocity": 79, "duration": 125}, {"note": 74, "velocity": 91, "duration": 885}, {"note": 0, "velocity": 0, "duration": 1035}, {"note": 86, "velocity": 98, "duration": 1357}, {"note": 0, "velocity": 0, "duration": 83}, {"note": 84, "velocity": 98, "duration": 115}, {"note": 86, "velocity": 80, "duration": 75}, {"note": 84, "velocity": 84, "duration": 87}, {"note": 81, "velocity": 95, "duration": 123}, {"note": 79, "velocity": 91, "duration": 164}, {"note": 81, "velocity": 91, "duration": 1342}, {"note": 0, "velocity": 0, "duration": 578}, {"note": 86, "velocity": 91, "duration": 1343}, {"note": 0, "velocity": 0, "duration": 97}, {"note": 84, "velocity": 84, "duration": 100}, {"note": 86, "velocity": 76, "duration": 74}, {"note": 84, "velocity": 83, "duration": 67}, {"note": 81, "velocity": 79, "duration": 117}, {"note": 79, "velocity": 77, "duration": 146}, {"note": 77, "velocity": 93, "duration": 488}, {"note": 0, "velocity": 0, "duration": 1432}, {"note": 72, "velocity": 82, "duration": 143}, {"note": 74, "velocity": 73, "duration": 70}, {"note": 72, "velocity": 71, "duration": 72}, {"note": 69, "velocity": 61, "duration": 152}, {"note": 72, "velocity": 82, "duration": 150}, {"note": 74, "velocity": 81, "duration": 269}, {"note": 81, "velocity": 80, "duration": 129}, {"note": 0, "velocity": 0, "duration": 111}, {"note": 79, "velocity": 79, "duration": 124}, {"note": 81, "velocity": 68, "duration": 79}, {"note": 79, "velocity": 67, "duration": 80}, {"note": 77, "velocity": 79, "duration": 105}, {"note": 79, "velocity": 79, "duration": 193}, {"note": 77, "velocity": 42, "duration": 92}, {"note": 0, "velocity": 0, "duration": 148}, {"note": 69, "velocity": 91, "duration": 118}, {"note": 72, "velocity": 84, "duration": 139}, {"note": 69, "velocity": 86, "duration": 603}, {"note": 0, "velocity": 0, "duration": 1317}, {"note": 86, "velocity": 98, "duration": 1357}, {"note": 0, "velocity": 0, "duration": 83}, {"note": 84, "velocity": 98, "duration": 115}, {"note": 86, "velocity": 80, "duration": 75}, {"note": 84, "velocity": 84, "duration": 87}, {"note": 81, "velocity": 95, "duration": 123}, {"note": 79, "velocity": 91, "duration": 164}, {"note": 77, "velocity": 91, "duration": 1342}, {"note": 0, "velocity": 0, "duration": 578}, {"note": 69, "velocity": 77, "duration": 76}, {"note": 69, "velocity": 61, "duration": 63}, {"note": 69, "velocity": 59, "duration": 167}, {"note": 72, "velocity": 76, "duration": 137}, {"note": 74, "velocity": 79, "duration": 137}, {"note": 0, "velocity": 0, "duration": 103}, {"note": 81, "velocity": 67, "duration": 155}, {"note": 0, "velocity": 0, "duration": 85}, {"note": 79, "velocity": 46, "duration": 94}, {"note": 81, "velocity": 58, "duration": 73}, {"note": 79, "velocity": 69, "duration": 79}, {"note": 77, "velocity": 73, "duration": 133}, {"note": 79, "velocity": 73, "duration": 108}, {"note": 77, "velocity": 73, "duration": 59}]]