[[{"note": 65, "velocity": 81, "duration": 236}, {"note": 65, "velocity": 81, "duration": 236}, {"note": 65, "velocity": 80, "duration": 236}, {"note": 61, "velocity": 83, "duration": 116}, {"note": 61, "velocity": 84, "duration": 116}, {"note": 65, "velocity": 82, "duration": 116}, {"note": 72, "velocity": 86, "duration": 236}, {"note": 70, "velocity": 84, "duration": 596}, {"note": 72, "velocity": 94, "duration": 356}, {"note": 67, "velocity": 95, "duration": 356}, {"note": 63, "velocity": 86, "duration": 476}, {"note": 68, "velocity": 98, "duration": 956}, {"note": 61, "velocity": 90, "duration": 90}, {"note": 61, "velocity": 81, "duration": 120}, {"note": 61, "velocity": 84, "duration": 165}, {"note": 61, "velocity": 84, "duration": 175}, {"note": 60, "velocity": 83, "duration": 150}, {"note": 58, "velocity": 75, "duration": 176}, {"note": 58, "velocity": 72, "duration": 150}, {"note": 58, "velocity": 82, "duration": 142}, {"note": 58, "velocity": 76, "duration": 236}, {"note": 63, "velocity": 81, "duration": 476}, {"note": 60, "velocity": 82, "duration": 1436}, {"note": 63, "velocity": 75, "duration": 116}, {"note": 63, "velocity": 83, "duration": 116}, {"note": 65, "velocity": 80, "duration": 236}, {"note": 65, "velocity": 84, "duration": 236}, {"note": 65, "velocity": 83, "duration": 236}, {"note": 61, "velocity": 90, "duration": 236}, {"note": 65, "velocity": 81, "duration": 116}, {"note": 72, "velocity": 80, "duration": 236}, {"note": 70, "velocity": 90, "duration": 356}, {"note": 68, "velocity": 84, "duration": 116}, {"note": 70, "velocity": 84, "duration": 116}, {"note": 72, "velocity": 81, "duration": 236}, {"note": 67, "velocity": 86, "duration": 81}, {"note": 67, "velocity": 82, "duration": 151}, {"note": 67, "velocity": 84, "duration": 236}, {"note": 63, "velocity": 79, "duration": 116}, {"note": 68, "velocity": 84, "duration": 836}, {"note": 61, "velocity": 84, "duration": 116}, {"note": 60, "velocity": 79, "duration": 116}, {"note": 61, "velocity": 84, "duration": 236}, {"note": 61, "velocity": 84, "duration": 596}, {"note": 56, "velocity": 83, "duration": 116}, {"note": 58, "velocity": 90, "duration": 116}, {"note": 58, "velocity": 90, "duration": 356}, {"note": 56, "velocity": 72, "duration": 236}, {"note": 55, "velocity": 82, "duration": 236}, {"note": 56, "velocity": 84, "duration": 1916}, {"note": 75, "velocity": 78, "duration": 236}, {"note": 72, "velocity": 94, "duration": 236}, {"note": 70, "velocity": 86, "duration": 236}, {"note": 68, "velocity": 93, "duration": 236}, {"note": 70, "velocity": 90, "duration": 236}, {"note": 70, "velocity": 90, "duration": 236}, {"note": 70, "velocity": 90, "duration": 181}, {"note": 70, "velocity": 93, "duration": 171}, {"note": 68, "velocity": 83, "duration": 121}, {"note": 68, "velocity": 91, "duration": 129}, {"note": 68, "velocity": 84, "duration": 1538}, {"note": 68, "velocity": 90, "duration": 116}, {"note": 68, "velocity": 83, "duration": 116}, {"note": 73, "velocity": 84, "duration": 116}, {"note": 73, "velocity": 84, "duration": 596}, {"note": 73, "velocity": 84, "duration": 116}, {"note": 72, "velocity": 79, "duration": 116}, {"note": 70, "velocity": 80, "duration": 116}, {"note": 70, "velocity": 83, "duration": 596}, {"note": 68, "velocity": 83, "duration": 116}, {"note": 72, "velocity": 76, "duration": 1796}, {"note": 63, "velocity": 76, "duration": 116}, {"note": 63, "velocity": 71, "duration": 116}, {"note": 75, "velocity": 78, "duration": 236}, {"note": 72, "velocity": 75, "duration": 236}, {"note": 70, "velocity": 82, "duration": 236}, {"note": 68, "velocity": 83, "duration": 236}, {"note": 70, "velocity": 80, "duration": 116}, {"note": 70, "velocity": 84, "duration": 716}, {"note": 68, "velocity": 75, "duration": 116}, {"note": 68, "velocity": 83, "duration": 116}, {"note": 68, "velocity": 84, "duration": 1556}, {"note": 68, "velocity": 95, "duration": 236}, {"note": 73, "velocity": 90, "duration": 716}, {"note": 73, "velocity": 86, "duration": 116}, {"note": 72, "velocity": 78, "duration": 116}, {"note": 70, "velocity": 78, "duration": 236}, {"note": 70, "velocity": 82, "duration": 236}, {"note": 70, "velocity": 84, "duration": 184}, {"note": 68, "velocity": 91, "duration": 146}, {"note": 67, "velocity": 79, "duration": 258}, {"note": 68, "velocity": 82, "duration": 1316}, {"note": 75, "velocity": 86, "duration": 116}, {"note": 75, "velocity": 84, "duration": 236}, {"note": 75, "velocity": 80, "duration": 116}, {"note": 77, "velocity": 86, "duration": 236}, {"note": 77, "velocity": 91, "duration": 236}, {"note": 77, "velocity": 86, "duration": 116}, {"note": 77, "velocity": 86, "duration": 116}, {"note": 77, "velocity": 93, "duration": 116}, {"note": 73, "velocity": 81, "duration": 116}, {"note": 77, "velocity": 84, "duration": 116}, {"note": 84, "velocity": 86, "duration": 236}, {"note": 82, "velocity": 84, "duration": 236}, {"note": 80, "velocity": 93, "duration": 116}, {"note": 80, "velocity": 86, "duration": 116}, {"note": 82, "velocity": 84, "duration": 116}, {"note": 84, "velocity": 95, "duration": 116}, {"note": 79, "velocity": 84, "duration": 236}, {"note": 79, "velocity": 86, "duration": 116}, {"note": 79, "velocity": 86, "duration": 236}, {"note": 75, "velocity": 72, "duration": 116}, {"note": 80, "velocity": 68, "duration": 1316}, {"note": 73, "velocity": 62, "duration": 116}, {"note": 73, "velocity": 76, "duration": 116}, {"note": 73, "velocity": 80, "duration": 236}, {"note": 72, "velocity": 86, "duration": 116}, {"note": 70, "velocity": 78, "duration": 236}, {"note": 70, "velocity": 77, "duration": 236}, {"note": 70, "velocity": 82, "duration": 116}, {"note": 70, "velocity": 82, "duration": 236}, {"note": 68, "velocity": 80, "duration": 116}, {"note": 75, "velocity": 80, "duration": 236}, {"note": 72, "velocity": 80, "duration": 1556}, {"note": 75, "velocity": 81, "duration": 116}, {"note": 75, "velocity": 77, "duration": 116}, {"note": 77, "velocity": 84, "duration": 236}, {"note": 77, "velocity": 91, "duration": 236}, {"note": 77, "velocity": 83, "duration": 116}, {"note": 77, "velocity": 80, "duration": 236}, {"note": 73, "velocity": 81, "duration": 116}, {"note": 77, "velocity": 84, "duration": 116}, {"note": 84, "velocity": 73, "duration": 236}, {"note": 82, "velocity": 73, "duration": 236}, {"note": 80, "velocity": 90, "duration": 116}, {"note": 80, "velocity": 86, "duration": 116}, {"note": 82, "velocity": 90, "duration": 116}, {"note": 84, "velocity": 98, "duration": 236}, {"note": 79, "velocity": 93, "duration": 116}, {"note": 79, "velocity": 86, "duration": 116}, {"note": 79, "velocity": 86, "duration": 236}, {"note": 75, "velocity": 75, "duration": 116}, {"note": 80, "velocity": 84, "duration": 836}, {"note": 73, "velocity": 90, "duration": 116}, {"note": 72, "velocity": 83, "duration": 116}, {"note": 73, "velocity": 90, "duration": 611}, {"note": 73, "velocity": 86, "duration": 216}, {"note": 72, "velocity": 81, "duration": 143}, {"note": 70, "velocity": 80, "duration": 703}, {"note": 67, "velocity": 90, "duration": 219}, {"note": 68, "velocity": 91, "duration": 1924}, {"note": 75, "velocity": 78, "duration": 236}, {"note": 72, "velocity": 94, "duration": 236}, {"note": 70, "velocity": 86, "duration": 236}, {"note": 68, "velocity": 93, "duration": 236}, {"note": 70, "velocity": 90, "duration": 236}, {"note": 70, "velocity": 90, "duration": 236}, {"note": 70, "velocity": 90, "duration": 181}, {"note": 70, "velocity": 93, "duration": 171}, {"note": 68, "velocity": 83, "duration": 121}, {"note": 68, "velocity": 91, "duration": 129}, {"note": 68, "velocity": 84, "duration": 1538}, {"note": 68, "velocity": 90, "duration": 116}, {"note": 68, "velocity": 83, "duration": 116}, {"note": 73, "velocity": 84, "duration": 116}, {"note": 73, "velocity": 84, "duration": 596}, {"note": 73, "velocity": 84, "duration": 116}, {"note": 72, "velocity": 79, "duration": 116}, {"note": 70, "velocity": 80, "duration": 236}, {"note": 70, "velocity": 83, "duration": 236}, {"note": 70, "velocity": 83, "duration": 236}, {"note": 68, "velocity": 83, "duration": 116}, {"note": 72, "velocity": 76, "duration": 1916}, {"note": 63, "velocity": 71, "duration": 116}, {"note": 75, "velocity": 78, "duration": 236}, {"note": 72, "velocity": 75, "duration": 236}, {"note": 70, "velocity": 82, "duration": 236}, {"note": 68, "velocity": 83, "duration": 116}, {"note": 70, "velocity": 80, "duration": 356}, {"note": 70, "velocity": 72, "duration": 236}, {"note": 70, "velocity": 83, "duration": 236}, {"note": 68, "velocity": 80, "duration": 116}, {"note": 70, "velocity": 82, "duration": 236}, {"note": 68, "velocity": 83, "duration": 1556}, {"note": 63, "velocity": 80, "duration": 236}, {"note": 73, "velocity": 90, "duration": 116}, {"note": 73, "velocity": 90, "duration": 596}, {"note": 68, "velocity": 80, "duration": 116}, {"note": 68, "velocity": 81, "duration": 116}, {"note": 70, "velocity": 79, "duration": 116}, {"note": 70, "velocity": 80, "duration": 596}, {"note": 70, "velocity": 82, "duration": 236}, {"note": 68, "velocity": 90, "duration": 1916}, {"note": 77, "velocity": 84, "duration": 236}, {"note": 77, "velocity": 86, "duration": 236}, {"note": 77, "velocity": 90, "duration": 236}, {"note": 73, "velocity": 79, "duration": 116}, {"note": 73, "velocity": 79, "duration": 116}, {"note": 77, "velocity": 80, "duration": 236}, {"note": 84, "velocity": 53, "duration": 116}, {"note": 82, "velocity": 84, "duration": 596}, {"note": 84, "velocity": 84, "duration": 356}, {"note": 79, "velocity": 81, "duration": 356}, {"note": 75, "velocity": 83, "duration": 476}, {"note": 80, "velocity": 83, "duration": 956}, {"note": 73, "velocity": 62, "duration": 116}, {"note": 73, "velocity": 76, "duration": 116}, {"note": 73, "velocity": 80, "duration": 176}, {"note": 72, "velocity": 86, "duration": 176}, {"note": 72, "velocity": 78, "duration": 116}, {"note": 70, "velocity": 78, "duration": 176}, {"note": 70, "velocity": 77, "duration": 176}, {"note": 70, "velocity": 82, "duration": 116}, {"note": 70, "velocity": 82, "duration": 236}, {"note": 75, "velocity": 80, "duration": 236}, {"note": 70, "velocity": 80, "duration": 236}, {"note": 72, "velocity": 80, "duration": 1436}, {"note": 75, "velocity": 81, "duration": 116}, {"note": 75, "velocity": 77, "duration": 116}, {"note": 77, "velocity": 84, "duration": 236}, {"note": 77, "velocity": 91, "duration": 236}, {"note": 77, "velocity": 83, "duration": 216}, {"note": 73, "velocity": 81, "duration": 256}, {"note": 77, "velocity": 84, "duration": 116}, {"note": 84, "velocity": 73, "duration": 236}, {"note": 82, "velocity": 73, "duration": 356}, {"note": 80, "velocity": 86, "duration": 116}, {"note": 82, "velocity": 90, "duration": 116}, {"note": 84, "velocity": 98, "duration": 236}, {"note": 79, "velocity": 93, "duration": 116}, {"note": 79, "velocity": 86, "duration": 116}, {"note": 79, "velocity": 86, "duration": 236}, {"note": 75, "velocity": 75, "duration": 116}, {"note": 80, "velocity": 84, "duration": 836}, {"note": 73, "velocity": 90, "duration": 116}, {"note": 72, "velocity": 83, "duration": 116}, {"note": 73, "velocity": 90, "duration": 236}, {"note": 73, "velocity": 90, "duration": 596}, {"note": 68, "velocity": 83, "duration": 116}, {"note": 70, "velocity": 83, "duration": 236}, {"note": 70, "velocity": 81, "duration": 236}, {"note": 68, "velocity": 80, "duration": 236}, {"note": 67, "velocity": 82, "duration": 236}, {"note": 67, "velocity": 90, "duration": 236}, {"note": 68, "velocity": 80, "duration": 1916}, {"note": 68, "velocity": 91, "duration": 1916}, {"note": 77, "velocity": 84, "duration": 236}, {"note": 77, "velocity": 86, "duration": 236}, {"note": 77, "velocity": 90, "duration": 236}, {"note": 73, "velocity": 79, "duration": 116}, {"note": 73, "velocity": 79, "duration": 116}, {"note": 77, "velocity": 80, "duration": 236}, {"note": 84, "velocity": 53, "duration": 116}, {"note": 82, "velocity": 84, "duration": 596}, {"note": 84, "velocity": 84, "duration": 356}, {"note": 79, "velocity": 81, "duration": 356}, {"note": 75, "velocity": 83, "duration": 476}, {"note": 80, "velocity": 83, "duration": 956}, {"note": 73, "velocity": 62, "duration": 116}, {"note": 73, "velocity": 76, "duration": 116}, {"note": 73, "velocity": 80, "duration": 236}, {"note": 72, "velocity": 86, "duration": 116}, {"note": 72, "velocity": 78, "duration": 116}, {"note": 70, "velocity": 78, "duration": 116}, {"note": 70, "velocity": 77, "duration": 236}, {"note": 70, "velocity": 82, "duration": 116}, {"note": 70, "velocity": 82, "duration": 236}, {"note": 75, "velocity": 80, "duration": 236}, {"note": 70, "velocity": 80, "duration": 116}, {"note": 0, "velocity": 0, "duration": 64}, {"note": 72, "velocity": 80, "duration": 1556}, {"note": 75, "velocity": 81, "duration": 116}, {"note": 75, "velocity": 77, "duration": 116}, {"note": 77, "velocity": 84, "duration": 236}, {"note": 77, "velocity": 91, "duration": 236}, {"note": 77, "velocity": 83, "duration": 216}, {"note": 73, "velocity": 81, "duration": 256}, {"note": 77, "velocity": 84, "duration": 116}, {"note": 84, "velocity": 73, "duration": 236}, {"note": 82, "velocity": 73, "duration": 356}, {"note": 80, "velocity": 86, "duration": 116}, {"note": 82, "velocity": 90, "duration": 116}, {"note": 84, "velocity": 98, "duration": 236}, {"note": 79, "velocity": 93, "duration": 116}, {"note": 79, "velocity": 86, "duration": 116}, {"note": 79, "velocity": 86, "duration": 236}, {"note": 75, "velocity": 75, "duration": 116}, {"note": 80, "velocity": 84, "duration": 836}, {"note": 73, "velocity": 90, "duration": 116}, {"note": 72, "velocity": 83, "duration": 116}, {"note": 73, "velocity": 90, "duration": 236}, {"note": 73, "velocity": 90, "duration": 596}, {"note": 68, "velocity": 83, "duration": 116}, {"note": 70, "velocity": 83, "duration": 236}, {"note": 70, "velocity": 81, "duration": 236}, {"note": 68, "velocity": 80, "duration": 236}, {"note": 67, "velocity": 82, "duration": 236}, {"note": 67, "velocity": 90, "duration": 236}, {"note": 68, "velocity": 80, "duration": 1676}, {"note": 68, "velocity": 91, "duration": 1676}, {"note": 72, "velocity": 82, "duration": 116}, {"note": 72, "velocity": 78, "duration": 116}, {"note": 73, "velocity": 82, "duration": 236}, {"note": 73, "velocity": 84, "duration": 476}, {"note": 68, "velocity": 71, "duration": 116}, {"note": 68, "velocity": 63, "duration": 116}, {"note": 70, "velocity": 82, "duration": 236}, {"note": 70, "velocity": 78, "duration": 716}, {"note": 68, "velocity": 83, "duration": 236}, {"note": 68, "velocity": 78, "duration": 1676}, {"note": 72, "velocity": 95, "duration": 476}, {"note": 75, "velocity": 90, "duration": 476}, {"note": 72, "velocity": 95, "duration": 956}, {"note": 72, "velocity": 98, "duration": 476}, {"note": 70, "velocity": 94, "duration": 236}, {"note": 68, "velocity": 93, "duration": 236}, {"note": 65, "velocity": 69, "duration": 956}, {"note": 68, "velocity": 93, "duration": 476}, {"note": 72, "velocity": 93, "duration": 476}, {"note": 70, "velocity": 83, "duration": 476}, {"note": 75, "velocity": 82, "duration": 476}, {"note": 73, "velocity": 90, "duration": 1916}, {"note": 72, "velocity": 99, "duration": 476}, {"note": 75, "velocity": 93, "duration": 476}, {"note": 72, "velocity": 86, "duration": 956}, {"note": 72, "velocity": 91, "duration": 476}, {"note": 70, "velocity": 90, "duration": 236}, {"note": 68, "velocity": 98, "duration": 236}, {"note": 65, "velocity": 93, "duration": 236}, {"note": 68, "velocity": 93, "duration": 716}, {"note": 68, "velocity": 94, "duration": 476}, {"note": 72, "velocity": 84, "duration": 476}, {"note": 70, "velocity": 84, "duration": 476}, {"note": 67, "velocity": 90, "duration": 476}, {"note": 68, "velocity": 99, "duration": 1916}, {"note": 72, "velocity": 95, "duration": 476}, {"note": 75, "velocity": 90, "duration": 476}, {"note": 72, "velocity": 95, "duration": 956}, {"note": 72, "velocity": 98, "duration": 476}, {"note": 70, "velocity": 94, "duration": 236}, {"note": 68, "velocity": 93, "duration": 236}, {"note": 65, "velocity": 69, "duration": 956}, {"note": 63, "velocity": 93, "duration": 476}, {"note": 68, "velocity": 93, "duration": 476}, {"note": 70, "velocity": 83, "duration": 476}, {"note": 75, "velocity": 82, "duration": 476}, {"note": 73, "velocity": 90, "duration": 1916}, {"note": 72, "velocity": 99, "duration": 476}, {"note": 75, "velocity": 93, "duration": 476}, {"note": 72, "velocity": 86, "duration": 956}, {"note": 72, "velocity": 91, "duration": 476}, {"note": 70, "velocity": 90, "duration": 236}, {"note": 68, "velocity": 98, "duration": 236}, {"note": 65, "velocity": 93, "duration": 956}, {"note": 63, "velocity": 94, "duration": 476}, {"note": 68, "velocity": 84, "duration": 476}, {"note": 67, "velocity": 84, "duration": 476}, {"note": 63, "velocity": 90, "duration": 476}, {"note": 68, "velocity": 99, "duration": 1916}, {"note": 68, "velocity": 84, "duration": 476}, {"note": 72, "velocity": 86, "duration": 476}, {"note": 70, "velocity": 83, "duration": 476}, {"note": 67, "velocity": 90, "duration": 476}, {"note": 68, "velocity": 90, "duration": 1916}]]