[[{"note": 68, "velocity": 90, "duration": 304}, {"note": 68, "velocity": 85, "duration": 303}, {"note": 68, "velocity": 80, "duration": 248}, {"note": 71, "velocity": 96, "duration": 291}, {"note": 0, "velocity": 0, "duration": 69}, {"note": 71, "velocity": 97, "duration": 944}, {"note": 66, "velocity": 84, "duration": 394}, {"note": 0, "velocity": 0, "duration": 86}, {"note": 66, "velocity": 83, "duration": 242}, {"note": 71, "velocity": 86, "duration": 308}, {"note": 71, "velocity": 93, "duration": 653}, {"note": 64, "velocity": 92, "duration": 431}, {"note": 64, "velocity": 86, "duration": 215}, {"note": 61, "velocity": 64, "duration": 253}, {"note": 64, "velocity": 72, "duration": 238}, {"note": 71, "velocity": 85, "duration": 477}, {"note": 68, "velocity": 95, "duration": 1921}, {"note": 59, "velocity": 68, "duration": 250}, {"note": 61, "velocity": 65, "duration": 228}, {"note": 61, "velocity": 61, "duration": 434}, {"note": 64, "velocity": 66, "duration": 466}, {"note": 64, "velocity": 74, "duration": 196}, {"note": 64, "velocity": 69, "duration": 270}, {"note": 61, "velocity": 51, "duration": 269}, {"note": 59, "velocity": 54, "duration": 211}, {"note": 59, "velocity": 66, "duration": 437}, {"note": 59, "velocity": 66, "duration": 247}, {"note": 68, "velocity": 75, "duration": 259}, {"note": 64, "velocity": 84, "duration": 655}, {"note": 0, "velocity": 0, "duration": 65}, {"note": 66, "velocity": 95, "duration": 235}, {"note": 64, "velocity": 69, "duration": 245}, {"note": 61, "velocity": 84, "duration": 484}, {"note": 68, "velocity": 90, "duration": 124}, {"note": 66, "velocity": 85, "duration": 2624}, {"note": 68, "velocity": 48, "duration": 230}, {"note": 68, "velocity": 57, "duration": 265}, {"note": 71, "velocity": 66, "duration": 256}, {"note": 73, "velocity": 66, "duration": 457}, {"note": 68, "velocity": 47, "duration": 276}, {"note": 66, "velocity": 47, "duration": 180}, {"note": 66, "velocity": 66, "duration": 223}, {"note": 66, "velocity": 65, "duration": 213}, {"note": 66, "velocity": 63, "duration": 250}, {"note": 71, "velocity": 58, "duration": 218}, {"note": 71, "velocity": 60, "duration": 243}, {"note": 71, "velocity": 64, "duration": 3}, {"note": 0, "velocity": 0, "duration": 181}, {"note": 71, "velocity": 62, "duration": 260}, {"note": 64, "velocity": 57, "duration": 653}, {"note": 0, "velocity": 0, "duration": 67}, {"note": 64, "velocity": 87, "duration": 470}, {"note": 61, "velocity": 64, "duration": 235}, {"note": 71, "velocity": 74, "duration": 257}, {"note": 68, "velocity": 84, "duration": 1926}, {"note": 59, "velocity": 58, "duration": 238}, {"note": 61, "velocity": 69, "duration": 216}, {"note": 61, "velocity": 66, "duration": 393}, {"note": 0, "velocity": 0, "duration": 87}, {"note": 61, "velocity": 66, "duration": 271}, {"note": 64, "velocity": 79, "duration": 248}, {"note": 66, "velocity": 64, "duration": 456}, {"note": 61, "velocity": 72, "duration": 251}, {"note": 59, "velocity": 56, "duration": 334}, {"note": 59, "velocity": 64, "duration": 314}, {"note": 59, "velocity": 64, "duration": 260}, {"note": 68, "velocity": 62, "duration": 292}, {"note": 64, "velocity": 68, "duration": 216}, {"note": 59, "velocity": 57, "duration": 90}, {"note": 66, "velocity": 84, "duration": 267}, {"note": 66, "velocity": 87, "duration": 703}, {"note": 66, "velocity": 85, "duration": 448}, {"note": 63, "velocity": 77, "duration": 517}, {"note": 64, "velocity": 97, "duration": 3609}, {"note": 68, "velocity": 48, "duration": 329}, {"note": 68, "velocity": 65, "duration": 315}, {"note": 68, "velocity": 63, "duration": 272}, {"note": 71, "velocity": 80, "duration": 316}, {"note": 73, "velocity": 59, "duration": 427}, {"note": 71, "velocity": 55, "duration": 511}, {"note": 66, "velocity": 64, "duration": 430}, {"note": 66, "velocity": 68, "duration": 254}, {"note": 71, "velocity": 77, "duration": 226}, {"note": 71, "velocity": 72, "duration": 653}, {"note": 0, "velocity": 0, "duration": 67}, {"note": 64, "velocity": 87, "duration": 506}, {"note": 64, "velocity": 81, "duration": 26}, {"note": 0, "velocity": 0, "duration": 214}, {"note": 61, "velocity": 66, "duration": 273}, {"note": 64, "velocity": 63, "duration": 248}, {"note": 71, "velocity": 77, "duration": 463}, {"note": 68, "velocity": 69, "duration": 1998}, {"note": 59, "velocity": 55, "duration": 238}, {"note": 61, "velocity": 61, "duration": 299}, {"note": 0, "velocity": 0, "duration": 61}, {"note": 61, "velocity": 69, "duration": 315}, {"note": 61, "velocity": 66, "duration": 234}, {"note": 64, "velocity": 65, "duration": 317}, {"note": 66, "velocity": 74, "duration": 531}, {"note": 61, "velocity": 62, "duration": 257}, {"note": 59, "velocity": 61, "duration": 317}, {"note": 59, "velocity": 56, "duration": 325}, {"note": 59, "velocity": 64, "duration": 298}, {"note": 68, "velocity": 64, "duration": 305}, {"note": 68, "velocity": 66, "duration": 370}, {"note": 64, "velocity": 72, "duration": 259}, {"note": 66, "velocity": 83, "duration": 328}, {"note": 66, "velocity": 71, "duration": 391}, {"note": 64, "velocity": 59, "duration": 256}, {"note": 61, "velocity": 59, "duration": 207}, {"note": 68, "velocity": 62, "duration": 489}, {"note": 66, "velocity": 65, "duration": 2645}, {"note": 68, "velocity": 66, "duration": 219}, {"note": 68, "velocity": 77, "duration": 254}, {"note": 71, "velocity": 92, "duration": 237}, {"note": 71, "velocity": 93, "duration": 476}, {"note": 68, "velocity": 75, "duration": 224}, {"note": 66, "velocity": 66, "duration": 240}, {"note": 66, "velocity": 64, "duration": 212}, {"note": 66, "velocity": 66, "duration": 230}, {"note": 66, "velocity": 63, "duration": 241}, {"note": 71, "velocity": 87, "duration": 230}, {"note": 0, "velocity": 0, "duration": 250}, {"note": 71, "velocity": 90, "duration": 214}, {"note": 71, "velocity": 82, "duration": 229}, {"note": 64, "velocity": 79, "duration": 231}, {"note": 64, "velocity": 84, "duration": 209}, {"note": 64, "velocity": 85, "duration": 228}, {"note": 61, "velocity": 76, "duration": 255}, {"note": 64, "velocity": 87, "duration": 229}, {"note": 71, "velocity": 87, "duration": 506}, {"note": 68, "velocity": 83, "duration": 2141}, {"note": 61, "velocity": 91, "duration": 333}, {"note": 61, "velocity": 90, "duration": 328}, {"note": 61, "velocity": 84, "duration": 252}, {"note": 64, "velocity": 79, "duration": 305}, {"note": 64, "velocity": 76, "duration": 671}, {"note": 59, "velocity": 89, "duration": 329}, {"note": 59, "velocity": 86, "duration": 302}, {"note": 59, "velocity": 75, "duration": 242}, {"note": 64, "velocity": 75, "duration": 341}, {"note": 64, "velocity": 78, "duration": 598}, {"note": 68, "velocity": 75, "duration": 485}, {"note": 66, "velocity": 72, "duration": 776}, {"note": 61, "velocity": 82, "duration": 217}, {"note": 64, "velocity": 77, "duration": 324}, {"note": 64, "velocity": 89, "duration": 3997}, {"note": 61, "velocity": 74, "duration": 952}, {"note": 64, "velocity": 89, "duration": 502}, {"note": 71, "velocity": 90, "duration": 231}, {"note": 68, "velocity": 97, "duration": 1901}, {"note": 59, "velocity": 60, "duration": 261}, {"note": 61, "velocity": 66, "duration": 254}, {"note": 64, "velocity": 65, "duration": 224}, {"note": 64, "velocity": 71, "duration": 222}, {"note": 64, "velocity": 66, "duration": 199}, {"note": 64, "velocity": 71, "duration": 252}, {"note": 61, "velocity": 58, "duration": 249}, {"note": 59, "velocity": 57, "duration": 237}, {"note": 71, "velocity": 61, "duration": 503}, {"note": 68, "velocity": 82, "duration": 1673}, {"note": 61, "velocity": 85, "duration": 884}, {"note": 0, "velocity": 0, "duration": 76}, {"note": 64, "velocity": 91, "duration": 515}, {"note": 71, "velocity": 85, "duration": 245}, {"note": 68, "velocity": 95, "duration": 1910}, {"note": 59, "velocity": 72, "duration": 262}, {"note": 61, "velocity": 79, "duration": 228}, {"note": 64, "velocity": 66, "duration": 232}, {"note": 64, "velocity": 85, "duration": 190}, {"note": 64, "velocity": 90, "duration": 176}, {"note": 0, "velocity": 0, "duration": 64}, {"note": 64, "velocity": 97, "duration": 1652}, {"note": 64, "velocity": 79, "duration": 216}, {"note": 64, "velocity": 96, "duration": 230}, {"note": 61, "velocity": 84, "duration": 248}, {"note": 68, "velocity": 87, "duration": 230}, {"note": 66, "velocity": 93, "duration": 4111}, {"note": 76, "velocity": 103, "duration": 714}, {"note": 71, "velocity": 98, "duration": 429}, {"note": 71, "velocity": 98, "duration": 452}, {"note": 71, "velocity": 97, "duration": 264}, {"note": 73, "velocity": 103, "duration": 703}, {"note": 71, "velocity": 98, "duration": 698}, {"note": 71, "velocity": 98, "duration": 191}, {"note": 71, "velocity": 97, "duration": 261}, {"note": 64, "velocity": 94, "duration": 466}, {"note": 64, "velocity": 87, "duration": 222}, {"note": 61, "velocity": 90, "duration": 243}, {"note": 64, "velocity": 84, "duration": 239}, {"note": 71, "velocity": 89, "duration": 485}, {"note": 68, "velocity": 97, "duration": 2863}, {"note": 59, "velocity": 98, "duration": 244}, {"note": 76, "velocity": 97, "duration": 238}, {"note": 71, "velocity": 87, "duration": 488}, {"note": 73, "velocity": 86, "duration": 484}, {"note": 71, "velocity": 97, "duration": 432}, {"note": 71, "velocity": 97, "duration": 664}, {"note": 71, "velocity": 81, "duration": 204}, {"note": 71, "velocity": 90, "duration": 269}, {"note": 61, "velocity": 84, "duration": 453}, {"note": 64, "velocity": 77, "duration": 470}, {"note": 64, "velocity": 81, "duration": 278}, {"note": 66, "velocity": 97, "duration": 488}, {"note": 64, "velocity": 94, "duration": 2165}, {"note": 61, "velocity": 83, "duration": 929}, {"note": 64, "velocity": 90, "duration": 488}, {"note": 71, "velocity": 90, "duration": 238}, {"note": 68, "velocity": 99, "duration": 1679}, {"note": 59, "velocity": 64, "duration": 189}, {"note": 59, "velocity": 66, "duration": 233}, {"note": 61, "velocity": 65, "duration": 236}, {"note": 64, "velocity": 62, "duration": 226}, {"note": 64, "velocity": 73, "duration": 222}, {"note": 61, "velocity": 63, "duration": 258}, {"note": 59, "velocity": 64, "duration": 237}, {"note": 71, "velocity": 77, "duration": 462}, {"note": 68, "velocity": 90, "duration": 220}, {"note": 61, "velocity": 90, "duration": 527}, {"note": 64, "velocity": 93, "duration": 504}, {"note": 71, "velocity": 91, "duration": 417}, {"note": 0, "velocity": 0, "duration": 63}, {"note": 68, "velocity": 84, "duration": 1727}, {"note": 59, "velocity": 90, "duration": 234}, {"note": 61, "velocity": 87, "duration": 226}, {"note": 64, "velocity": 81, "duration": 224}, {"note": 64, "velocity": 93, "duration": 203}, {"note": 64, "velocity": 92, "duration": 208}, {"note": 64, "velocity": 90, "duration": 226}, {"note": 64, "velocity": 90, "duration": 205}, {"note": 64, "velocity": 99, "duration": 1416}, {"note": 64, "velocity": 87, "duration": 211}, {"note": 61, "velocity": 64, "duration": 36}, {"note": 68, "velocity": 90, "duration": 248}, {"note": 66, "velocity": 97, "duration": 5925}, {"note": 0, "velocity": 0, "duration": 28901}, {"note": 68, "velocity": 77, "duration": 288}, {"note": 68, "velocity": 87, "duration": 418}, {"note": 0, "velocity": 0, "duration": 62}, {"note": 71, "velocity": 99, "duration": 371}, {"note": 0, "velocity": 0, "duration": 109}, {"note": 71, "velocity": 96, "duration": 333}, {"note": 68, "velocity": 83, "duration": 250}, {"note": 66, "velocity": 92, "duration": 335}, {"note": 66, "velocity": 84, "duration": 387}, {"note": 71, "velocity": 93, "duration": 464}, {"note": 71, "velocity": 95, "duration": 683}, {"note": 64, "velocity": 93, "duration": 442}, {"note": 64, "velocity": 91, "duration": 242}, {"note": 61, "velocity": 71, "duration": 266}, {"note": 64, "velocity": 81, "duration": 238}, {"note": 71, "velocity": 90, "duration": 494}, {"note": 68, "velocity": 99, "duration": 2130}, {"note": 61, "velocity": 79, "duration": 304}, {"note": 61, "velocity": 82, "duration": 329}, {"note": 61, "velocity": 81, "duration": 268}, {"note": 64, "velocity": 90, "duration": 303}, {"note": 66, "velocity": 96, "duration": 427}, {"note": 61, "velocity": 65, "duration": 241}, {"note": 59, "velocity": 74, "duration": 198}, {"note": 59, "velocity": 66, "duration": 476}, {"note": 68, "velocity": 90, "duration": 420}, {"note": 68, "velocity": 89, "duration": 242}, {"note": 66, "velocity": 93, "duration": 255}, {"note": 64, "velocity": 82, "duration": 285}, {"note": 66, "velocity": 98, "duration": 444}, {"note": 66, "velocity": 91, "duration": 311}, {"note": 64, "velocity": 52, "duration": 237}, {"note": 61, "velocity": 64, "duration": 282}, {"note": 68, "velocity": 84, "duration": 504}, {"note": 66, "velocity": 99, "duration": 1914}, {"note": 68, "velocity": 97, "duration": 285}, {"note": 0, "velocity": 0, "duration": 75}, {"note": 68, "velocity": 91, "duration": 295}, {"note": 0, "velocity": 0, "duration": 65}, {"note": 68, "velocity": 93, "duration": 263}, {"note": 71, "velocity": 99, "duration": 298}, {"note": 0, "velocity": 0, "duration": 62}, {"note": 71, "velocity": 99, "duration": 638}, {"note": 66, "velocity": 98, "duration": 438}, {"note": 66, "velocity": 97, "duration": 262}, {"note": 71, "velocity": 101, "duration": 455}, {"note": 71, "velocity": 108, "duration": 700}, {"note": 64, "velocity": 100, "duration": 435}, {"note": 64, "velocity": 98, "duration": 216}, {"note": 61, "velocity": 77, "duration": 274}, {"note": 64, "velocity": 90, "duration": 216}, {"note": 71, "velocity": 87, "duration": 477}, {"note": 68, "velocity": 106, "duration": 1928}, {"note": 59, "velocity": 64, "duration": 256}, {"note": 61, "velocity": 77, "duration": 305}, {"note": 61, "velocity": 76, "duration": 304}, {"note": 61, "velocity": 71, "duration": 254}, {"note": 64, "velocity": 94, "duration": 303}, {"note": 64, "velocity": 90, "duration": 371}, {"note": 61, "velocity": 85, "duration": 248}, {"note": 59, "velocity": 67, "duration": 451}, {"note": 59, "velocity": 64, "duration": 283}, {"note": 68, "velocity": 84, "duration": 467}, {"note": 64, "velocity": 89, "duration": 681}, {"note": 66, "velocity": 103, "duration": 432}, {"note": 66, "velocity": 96, "duration": 258}, {"note": 64, "velocity": 85, "duration": 252}, {"note": 61, "velocity": 80, "duration": 262}, {"note": 64, "velocity": 87, "duration": 371}, {"note": 0, "velocity": 0, "duration": 109}, {"note": 64, "velocity": 92, "duration": 2187}, {"note": 61, "velocity": 97, "duration": 943}, {"note": 64, "velocity": 101, "duration": 453}, {"note": 71, "velocity": 97, "duration": 461}, {"note": 68, "velocity": 109, "duration": 1719}, {"note": 59, "velocity": 62, "duration": 248}, {"note": 61, "velocity": 65, "duration": 238}, {"note": 64, "velocity": 67, "duration": 178}, {"note": 0, "velocity": 0, "duration": 62}, {"note": 64, "velocity": 63, "duration": 259}, {"note": 61, "velocity": 59, "duration": 267}, {"note": 59, "velocity": 58, "duration": 224}, {"note": 71, "velocity": 61, "duration": 473}, {"note": 68, "velocity": 91, "duration": 2181}, {"note": 61, "velocity": 95, "duration": 937}, {"note": 64, "velocity": 97, "duration": 489}, {"note": 71, "velocity": 97, "duration": 485}, {"note": 68, "velocity": 105, "duration": 1427}, {"note": 59, "velocity": 72, "duration": 184}, {"note": 59, "velocity": 76, "duration": 229}, {"note": 61, "velocity": 86, "duration": 228}, {"note": 64, "velocity": 93, "duration": 207}, {"note": 64, "velocity": 94, "duration": 227}, {"note": 64, "velocity": 95, "duration": 215}, {"note": 64, "velocity": 98, "duration": 241}, {"note": 64, "velocity": 96, "duration": 210}, {"note": 64, "velocity": 90, "duration": 235}, {"note": 64, "velocity": 84, "duration": 229}, {"note": 61, "velocity": 73, "duration": 256}, {"note": 68, "velocity": 93, "duration": 178}, {"note": 66, "velocity": 93, "duration": 2161}, {"note": 76, "velocity": 95, "duration": 724}, {"note": 71, "velocity": 99, "duration": 472}, {"note": 71, "velocity": 81, "duration": 471}, {"note": 71, "velocity": 79, "duration": 270}, {"note": 73, "velocity": 92, "duration": 711}, {"note": 71, "velocity": 84, "duration": 469}, {"note": 71, "velocity": 89, "duration": 236}, {"note": 71, "velocity": 87, "duration": 225}, {"note": 71, "velocity": 93, "duration": 244}, {"note": 64, "velocity": 87, "duration": 403}, {"note": 0, "velocity": 0, "duration": 77}, {"note": 64, "velocity": 79, "duration": 212}, {"note": 61, "velocity": 76, "duration": 238}, {"note": 64, "velocity": 79, "duration": 248}, {"note": 71, "velocity": 75, "duration": 501}, {"note": 68, "velocity": 97, "duration": 2873}, {"note": 59, "velocity": 54, "duration": 290}, {"note": 76, "velocity": 90, "duration": 237}, {"note": 71, "velocity": 79, "duration": 466}, {"note": 73, "velocity": 84, "duration": 499}, {"note": 71, "velocity": 72, "duration": 451}, {"note": 71, "velocity": 94, "duration": 233}, {"note": 71, "velocity": 90, "duration": 220}, {"note": 71, "velocity": 87, "duration": 196}, {"note": 71, "velocity": 90, "duration": 230}, {"note": 71, "velocity": 90, "duration": 268}, {"note": 61, "velocity": 87, "duration": 447}, {"note": 64, "velocity": 84, "duration": 422}, {"note": 64, "velocity": 85, "duration": 265}, {"note": 66, "velocity": 90, "duration": 475}, {"note": 64, "velocity": 90, "duration": 2268}, {"note": 61, "velocity": 77, "duration": 865}, {"note": 64, "velocity": 86, "duration": 493}, {"note": 71, "velocity": 87, "duration": 256}, {"note": 68, "velocity": 91, "duration": 2153}, {"note": 61, "velocity": 84, "duration": 967}, {"note": 64, "velocity": 96, "duration": 474}, {"note": 71, "velocity": 95, "duration": 377}, {"note": 68, "velocity": 90, "duration": 1248}, {"note": 66, "velocity": 94, "duration": 234}, {"note": 68, "velocity": 74, "duration": 278}, {"note": 66, "velocity": 77, "duration": 221}, {"note": 64, "velocity": 67, "duration": 263}, {"note": 61, "velocity": 81, "duration": 948}, {"note": 64, "velocity": 97, "duration": 287}, {"note": 71, "velocity": 84, "duration": 458}, {"note": 68, "velocity": 90, "duration": 2181}, {"note": 61, "velocity": 91, "duration": 935}, {"note": 64, "velocity": 98, "duration": 498}, {"note": 71, "velocity": 87, "duration": 264}, {"note": 68, "velocity": 86, "duration": 1160}, {"note": 66, "velocity": 79, "duration": 252}, {"note": 68, "velocity": 75, "duration": 290}, {"note": 66, "velocity": 65, "duration": 211}, {"note": 64, "velocity": 66, "duration": 265}, {"note": 61, "velocity": 73, "duration": 949}, {"note": 64, "velocity": 68, "duration": 469}, {"note": 71, "velocity": 83, "duration": 252}, {"note": 68, "velocity": 66, "duration": 2144}, {"note": 61, "velocity": 66, "duration": 973}, {"note": 64, "velocity": 64, "duration": 522}, {"note": 71, "velocity": 64, "duration": 278}, {"note": 68, "velocity": 61, "duration": 1199}, {"note": 66, "velocity": 56, "duration": 228}, {"note": 68, "velocity": 55, "duration": 295}, {"note": 66, "velocity": 51, "duration": 221}, {"note": 64, "velocity": 50, "duration": 249}, {"note": 61, "velocity": 61, "duration": 980}, {"note": 64, "velocity": 52, "duration": 505}, {"note": 71, "velocity": 61, "duration": 232}, {"note": 68, "velocity": 43, "duration": 2161}]]