[[{"note": 69, "velocity": 82, "duration": 496}, {"note": 76, "velocity": 93, "duration": 479}, {"note": 74, "velocity": 91, "duration": 781}, {"note": 72, "velocity": 93, "duration": 707}, {"note": 71, "velocity": 92, "duration": 493}, {"note": 69, "velocity": 91, "duration": 657}, {"note": 0, "velocity": 0, "duration": 63}, {"note": 69, "velocity": 90, "duration": 686}, {"note": 67, "velocity": 93, "duration": 498}, {"note": 64, "velocity": 80, "duration": 483}, {"note": 62, "velocity": 56, "duration": 2392}, {"note": 72, "velocity": 90, "duration": 477}, {"note": 79, "velocity": 93, "duration": 493}, {"note": 78, "velocity": 80, "duration": 774}, {"note": 76, "velocity": 87, "duration": 710}, {"note": 74, "velocity": 84, "duration": 499}, {"note": 76, "velocity": 98, "duration": 2856}, {"note": 76, "velocity": 92, "duration": 493}, {"note": 79, "velocity": 90, "duration": 263}, {"note": 81, "velocity": 100, "duration": 1191}, {"note": 79, "velocity": 100, "duration": 211}, {"note": 81, "velocity": 100, "duration": 258}, {"note": 79, "velocity": 100, "duration": 250}, {"note": 76, "velocity": 96, "duration": 233}, {"note": 74, "velocity": 97, "duration": 933}, {"note": 72, "velocity": 100, "duration": 497}, {"note": 74, "velocity": 93, "duration": 513}, {"note": 76, "velocity": 97, "duration": 482}, {"note": 74, "velocity": 80, "duration": 513}, {"note": 72, "velocity": 86, "duration": 243}, {"note": 74, "velocity": 86, "duration": 225}, {"note": 72, "velocity": 86, "duration": 228}, {"note": 69, "velocity": 100, "duration": 118}, {"note": 67, "velocity": 82, "duration": 123}, {"note": 69, "velocity": 91, "duration": 1427}, {"note": 67, "velocity": 94, "duration": 452}, {"note": 69, "velocity": 100, "duration": 1445}, {"note": 72, "velocity": 99, "duration": 476}, {"note": 71, "velocity": 95, "duration": 488}, {"note": 67, "velocity": 83, "duration": 252}, {"note": 64, "velocity": 68, "duration": 260}, {"note": 76, "velocity": 82, "duration": 451}, {"note": 72, "velocity": 87, "duration": 626}, {"note": 69, "velocity": 80, "duration": 3335}, {"note": 0, "velocity": 0, "duration": 5305}, {"note": 69, "velocity": 92, "duration": 449}, {"note": 76, "velocity": 96, "duration": 507}, {"note": 74, "velocity": 100, "duration": 826}, {"note": 72, "velocity": 101, "duration": 702}, {"note": 71, "velocity": 100, "duration": 468}, {"note": 69, "velocity": 100, "duration": 130}, {"note": 69, "velocity": 100, "duration": 640}, {"note": 0, "velocity": 0, "duration": 80}, {"note": 67, "velocity": 97, "duration": 462}, {"note": 64, "velocity": 97, "duration": 529}, {"note": 62, "velocity": 97, "duration": 2402}, {"note": 72, "velocity": 95, "duration": 484}, {"note": 79, "velocity": 99, "duration": 505}, {"note": 78, "velocity": 99, "duration": 713}, {"note": 76, "velocity": 97, "duration": 743}, {"note": 74, "velocity": 95, "duration": 475}, {"note": 76, "velocity": 98, "duration": 2419}, {"note": 0, "velocity": 0, "duration": 461}, {"note": 76, "velocity": 97, "duration": 500}, {"note": 79, "velocity": 79, "duration": 281}, {"note": 76, "velocity": 56, "duration": 167}, {"note": 79, "velocity": 64, "duration": 134}, {"note": 81, "velocity": 87, "duration": 989}, {"note": 79, "velocity": 91, "duration": 457}, {"note": 76, "velocity": 80, "duration": 518}, {"note": 74, "velocity": 83, "duration": 1007}, {"note": 72, "velocity": 111, "duration": 56}, {"note": 74, "velocity": 99, "duration": 471}, {"note": 76, "velocity": 105, "duration": 506}, {"note": 74, "velocity": 97, "duration": 507}, {"note": 72, "velocity": 99, "duration": 491}, {"note": 67, "velocity": 91, "duration": 518}, {"note": 69, "velocity": 99, "duration": 1383}, {"note": 67, "velocity": 94, "duration": 494}, {"note": 69, "velocity": 91, "duration": 209}, {"note": 67, "velocity": 62, "duration": 240}, {"note": 69, "velocity": 81, "duration": 978}, {"note": 72, "velocity": 100, "duration": 527}, {"note": 71, "velocity": 92, "duration": 445}, {"note": 67, "velocity": 77, "duration": 249}, {"note": 64, "velocity": 79, "duration": 249}, {"note": 76, "velocity": 66, "duration": 475}, {"note": 72, "velocity": 72, "duration": 678}, {"note": 72, "velocity": 68, "duration": 258}, {"note": 69, "velocity": 58, "duration": 2921}, {"note": 79, "velocity": 90, "duration": 468}, {"note": 81, "velocity": 98, "duration": 1674}, {"note": 83, "velocity": 62, "duration": 114}, {"note": 81, "velocity": 77, "duration": 155}, {"note": 79, "velocity": 86, "duration": 727}, {"note": 81, "velocity": 52, "duration": 111}, {"note": 79, "velocity": 71, "duration": 114}, {"note": 78, "velocity": 54, "duration": 496}, {"note": 76, "velocity": 68, "duration": 494}, {"note": 78, "velocity": 91, "duration": 470}, {"note": 76, "velocity": 45, "duration": 244}, {"note": 74, "velocity": 62, "duration": 343}, {"note": 69, "velocity": 59, "duration": 1423}, {"note": 0, "velocity": 0, "duration": 497}, {"note": 71, "velocity": 79, "duration": 456}, {"note": 73, "velocity": 86, "duration": 486}, {"note": 74, "velocity": 80, "duration": 111}, {"note": 79, "velocity": 73, "duration": 1506}, {"note": 81, "velocity": 64, "duration": 127}, {"note": 79, "velocity": 64, "duration": 145}, {"note": 78, "velocity": 80, "duration": 994}, {"note": 76, "velocity": 85, "duration": 485}, {"note": 74, "velocity": 77, "duration": 453}, {"note": 72, "velocity": 66, "duration": 266}, {"note": 74, "velocity": 69, "duration": 267}, {"note": 76, "velocity": 91, "duration": 2901}, {"note": 79, "velocity": 90, "duration": 441}, {"note": 81, "velocity": 100, "duration": 1727}, {"note": 83, "velocity": 61, "duration": 111}, {"note": 81, "velocity": 77, "duration": 142}, {"note": 79, "velocity": 72, "duration": 323}, {"note": 81, "velocity": 64, "duration": 120}, {"note": 79, "velocity": 59, "duration": 129}, {"note": 78, "velocity": 68, "duration": 483}, {"note": 76, "velocity": 67, "duration": 561}, {"note": 78, "velocity": 62, "duration": 507}, {"note": 76, "velocity": 40, "duration": 439}, {"note": 74, "velocity": 47, "duration": 1017}, {"note": 0, "velocity": 0, "duration": 94}, {"note": 74, "velocity": 90, "duration": 276}, {"note": 76, "velocity": 85, "duration": 280}, {"note": 74, "velocity": 66, "duration": 311}, {"note": 69, "velocity": 52, "duration": 192}, {"note": 69, "velocity": 79, "duration": 2329}, {"note": 0, "velocity": 0, "duration": 71}, {"note": 76, "velocity": 66, "duration": 263}, {"note": 74, "velocity": 91, "duration": 267}, {"note": 69, "velocity": 66, "duration": 122}, {"note": 71, "velocity": 56, "duration": 118}, {"note": 69, "velocity": 56, "duration": 480}, {"note": 67, "velocity": 85, "duration": 241}, {"note": 69, "velocity": 97, "duration": 8529}, {"note": 0, "velocity": 0, "duration": 111}, {"note": 69, "velocity": 82, "duration": 496}, {"note": 76, "velocity": 93, "duration": 479}, {"note": 74, "velocity": 91, "duration": 781}, {"note": 72, "velocity": 93, "duration": 707}, {"note": 71, "velocity": 92, "duration": 493}, {"note": 69, "velocity": 91, "duration": 658}, {"note": 0, "velocity": 0, "duration": 62}, {"note": 69, "velocity": 90, "duration": 686}, {"note": 67, "velocity": 93, "duration": 498}, {"note": 62, "velocity": 56, "duration": 2951}, {"note": 72, "velocity": 90, "duration": 477}, {"note": 79, "velocity": 93, "duration": 493}, {"note": 78, "velocity": 80, "duration": 774}, {"note": 76, "velocity": 87, "duration": 710}, {"note": 74, "velocity": 84, "duration": 499}, {"note": 76, "velocity": 98, "duration": 2856}, {"note": 76, "velocity": 92, "duration": 493}, {"note": 79, "velocity": 90, "duration": 238}, {"note": 76, "velocity": 100, "duration": 134}, {"note": 79, "velocity": 100, "duration": 118}, {"note": 81, "velocity": 100, "duration": 1261}, {"note": 79, "velocity": 100, "duration": 477}, {"note": 76, "velocity": 96, "duration": 476}, {"note": 74, "velocity": 97, "duration": 933}, {"note": 72, "velocity": 100, "duration": 497}, {"note": 74, "velocity": 93, "duration": 513}, {"note": 76, "velocity": 97, "duration": 482}, {"note": 74, "velocity": 80, "duration": 513}, {"note": 72, "velocity": 86, "duration": 465}, {"note": 67, "velocity": 82, "duration": 500}, {"note": 69, "velocity": 91, "duration": 4190}, {"note": 67, "velocity": 74, "duration": 571}, {"note": 69, "velocity": 91, "duration": 1491}, {"note": 72, "velocity": 90, "duration": 513}, {"note": 71, "velocity": 94, "duration": 591}, {"note": 67, "velocity": 87, "duration": 358}, {"note": 64, "velocity": 57, "duration": 564}, {"note": 76, "velocity": 58, "duration": 591}, {"note": 72, "velocity": 77, "duration": 372}, {"note": 69, "velocity": 77, "duration": 2814}, {"note": 0, "velocity": 0, "duration": 186}, {"note": 69, "velocity": 62, "duration": 5158}]]