[[{"note": 77, "velocity": 95, "duration": 430}, {"note": 77, "velocity": 90, "duration": 238}, {"note": 74, "velocity": 103, "duration": 229}, {"note": 79, "velocity": 94, "duration": 456}, {"note": 77, "velocity": 93, "duration": 572}, {"note": 74, "velocity": 91, "duration": 446}, {"note": 72, "velocity": 94, "duration": 202}, {"note": 70, "velocity": 95, "duration": 221}, {"note": 70, "velocity": 90, "duration": 989}, {"note": 65, "velocity": 90, "duration": 34}, {"note": 67, "velocity": 76, "duration": 438}, {"note": 67, "velocity": 90, "duration": 236}, {"note": 70, "velocity": 95, "duration": 236}, {"note": 70, "velocity": 95, "duration": 56}, {"note": 72, "velocity": 82, "duration": 176}, {"note": 72, "velocity": 61, "duration": 236}, {"note": 70, "velocity": 84, "duration": 236}, {"note": 67, "velocity": 86, "duration": 236}, {"note": 67, "velocity": 80, "duration": 716}, {"note": 65, "velocity": 80, "duration": 1196}, {"note": 67, "velocity": 100, "duration": 476}, {"note": 70, "velocity": 95, "duration": 476}, {"note": 70, "velocity": 101, "duration": 476}, {"note": 70, "velocity": 95, "duration": 236}, {"note": 72, "velocity": 95, "duration": 236}, {"note": 74, "velocity": 93, "duration": 476}, {"note": 77, "velocity": 84, "duration": 476}, {"note": 77, "velocity": 93, "duration": 956}, {"note": 82, "velocity": 95, "duration": 476}, {"note": 82, "velocity": 95, "duration": 236}, {"note": 82, "velocity": 95, "duration": 236}, {"note": 79, "velocity": 90, "duration": 236}, {"note": 77, "velocity": 82, "duration": 236}, {"note": 77, "velocity": 84, "duration": 236}, {"note": 74, "velocity": 91, "duration": 236}, {"note": 72, "velocity": 84, "duration": 1436}, {"note": 77, "velocity": 86, "duration": 236}, {"note": 77, "velocity": 90, "duration": 476}, {"note": 74, "velocity": 98, "duration": 236}, {"note": 79, "velocity": 91, "duration": 476}, {"note": 77, "velocity": 90, "duration": 476}, {"note": 70, "velocity": 101, "duration": 716}, {"note": 74, "velocity": 95, "duration": 236}, {"note": 74, "velocity": 100, "duration": 956}, {"note": 72, "velocity": 91, "duration": 476}, {"note": 72, "velocity": 93, "duration": 236}, {"note": 74, "velocity": 91, "duration": 236}, {"note": 72, "velocity": 95, "duration": 236}, {"note": 70, "velocity": 84, "duration": 236}, {"note": 70, "velocity": 91, "duration": 236}, {"note": 65, "velocity": 86, "duration": 236}, {"note": 65, "velocity": 84, "duration": 476}, {"note": 67, "velocity": 84, "duration": 1436}, {"note": 79, "velocity": 98, "duration": 236}, {"note": 0, "velocity": 0, "duration": 124}, {"note": 77, "velocity": 86, "duration": 236}, {"note": 77, "velocity": 93, "duration": 116}, {"note": 0, "velocity": 0, "duration": 364}, {"note": 74, "velocity": 98, "duration": 236}, {"note": 77, "velocity": 86, "duration": 476}, {"note": 74, "velocity": 93, "duration": 236}, {"note": 77, "velocity": 95, "duration": 716}, {"note": 74, "velocity": 98, "duration": 236}, {"note": 72, "velocity": 98, "duration": 476}, {"note": 72, "velocity": 91, "duration": 236}, {"note": 74, "velocity": 90, "duration": 236}, {"note": 72, "velocity": 93, "duration": 236}, {"note": 70, "velocity": 98, "duration": 236}, {"note": 72, "velocity": 101, "duration": 236}, {"note": 70, "velocity": 93, "duration": 236}, {"note": 67, "velocity": 94, "duration": 476}, {"note": 72, "velocity": 94, "duration": 236}, {"note": 74, "velocity": 94, "duration": 116}, {"note": 72, "velocity": 94, "duration": 356}, {"note": 70, "velocity": 94, "duration": 236}, {"note": 0, "velocity": 0, "duration": 1444}, {"note": 82, "velocity": 98, "duration": 236}, {"note": 82, "velocity": 98, "duration": 236}, {"note": 82, "velocity": 91, "duration": 236}, {"note": 79, "velocity": 95, "duration": 236}, {"note": 82, "velocity": 101, "duration": 476}, {"note": 84, "velocity": 94, "duration": 236}, {"note": 86, "velocity": 95, "duration": 236}, {"note": 84, "velocity": 95, "duration": 236}, {"note": 82, "velocity": 95, "duration": 236}, {"note": 82, "velocity": 94, "duration": 236}, {"note": 79, "velocity": 98, "duration": 236}, {"note": 77, "velocity": 95, "duration": 956}, {"note": 79, "velocity": 99, "duration": 236}, {"note": 79, "velocity": 90, "duration": 236}, {"note": 79, "velocity": 98, "duration": 236}, {"note": 77, "velocity": 91, "duration": 236}, {"note": 79, "velocity": 98, "duration": 476}, {"note": 82, "velocity": 95, "duration": 476}, {"note": 79, "velocity": 90, "duration": 236}, {"note": 77, "velocity": 83, "duration": 236}, {"note": 77, "velocity": 91, "duration": 236}, {"note": 74, "velocity": 95, "duration": 236}, {"note": 72, "velocity": 93, "duration": 956}, {"note": 77, "velocity": 95, "duration": 716}, {"note": 74, "velocity": 98, "duration": 236}, {"note": 77, "velocity": 91, "duration": 476}, {"note": 77, "velocity": 84, "duration": 236}, {"note": 74, "velocity": 93, "duration": 236}, {"note": 79, "velocity": 106, "duration": 476}, {"note": 79, "velocity": 98, "duration": 236}, {"note": 70, "velocity": 95, "duration": 236}, {"note": 72, "velocity": 98, "duration": 236}, {"note": 74, "velocity": 98, "duration": 716}, {"note": 72, "velocity": 95, "duration": 236}, {"note": 72, "velocity": 86, "duration": 476}, {"note": 70, "velocity": 98, "duration": 236}, {"note": 67, "velocity": 98, "duration": 476}, {"note": 72, "velocity": 84, "duration": 476}, {"note": 70, "velocity": 101, "duration": 2396}, {"note": 82, "velocity": 98, "duration": 236}, {"note": 82, "velocity": 98, "duration": 236}, {"note": 82, "velocity": 91, "duration": 236}, {"note": 79, "velocity": 95, "duration": 236}, {"note": 82, "velocity": 101, "duration": 476}, {"note": 84, "velocity": 94, "duration": 236}, {"note": 86, "velocity": 95, "duration": 236}, {"note": 84, "velocity": 95, "duration": 236}, {"note": 82, "velocity": 95, "duration": 236}, {"note": 82, "velocity": 94, "duration": 236}, {"note": 79, "velocity": 98, "duration": 236}, {"note": 77, "velocity": 95, "duration": 956}, {"note": 79, "velocity": 99, "duration": 236}, {"note": 79, "velocity": 90, "duration": 236}, {"note": 79, "velocity": 98, "duration": 236}, {"note": 77, "velocity": 91, "duration": 236}, {"note": 79, "velocity": 98, "duration": 476}, {"note": 82, "velocity": 95, "duration": 476}, {"note": 79, "velocity": 90, "duration": 236}, {"note": 77, "velocity": 83, "duration": 236}, {"note": 77, "velocity": 91, "duration": 236}, {"note": 74, "velocity": 95, "duration": 236}, {"note": 72, "velocity": 93, "duration": 956}, {"note": 77, "velocity": 95, "duration": 480}, {"note": 77, "velocity": 95, "duration": 213}, {"note": 74, "velocity": 98, "duration": 236}, {"note": 77, "velocity": 91, "duration": 476}, {"note": 77, "velocity": 84, "duration": 236}, {"note": 74, "velocity": 93, "duration": 236}, {"note": 79, "velocity": 106, "duration": 476}, {"note": 79, "velocity": 98, "duration": 236}, {"note": 70, "velocity": 95, "duration": 236}, {"note": 72, "velocity": 98, "duration": 236}, {"note": 74, "velocity": 98, "duration": 716}, {"note": 72, "velocity": 95, "duration": 236}, {"note": 72, "velocity": 86, "duration": 476}, {"note": 67, "velocity": 86, "duration": 281}, {"note": 74, "velocity": 93, "duration": 289}, {"note": 0, "velocity": 0, "duration": 191}, {"note": 74, "velocity": 95, "duration": 206}, {"note": 72, "velocity": 91, "duration": 160}, {"note": 0, "velocity": 0, "duration": 80}, {"note": 70, "velocity": 98, "duration": 321}, {"note": 0, "velocity": 0, "duration": 1599}, {"note": 82, "velocity": 104, "duration": 716}, {"note": 82, "velocity": 100, "duration": 236}, {"note": 82, "velocity": 106, "duration": 476}, {"note": 82, "velocity": 106, "duration": 476}, {"note": 84, "velocity": 106, "duration": 476}, {"note": 82, "velocity": 104, "duration": 236}, {"note": 79, "velocity": 101, "duration": 236}, {"note": 77, "velocity": 98, "duration": 956}, {"note": 82, "velocity": 100, "duration": 356}, {"note": 79, "velocity": 91, "duration": 116}, {"note": 79, "velocity": 91, "duration": 236}, {"note": 77, "velocity": 84, "duration": 236}, {"note": 74, "velocity": 100, "duration": 476}, {"note": 77, "velocity": 95, "duration": 476}, {"note": 74, "velocity": 91, "duration": 236}, {"note": 72, "velocity": 90, "duration": 236}, {"note": 70, "velocity": 98, "duration": 236}, {"note": 67, "velocity": 91, "duration": 236}, {"note": 72, "velocity": 98, "duration": 956}, {"note": 77, "velocity": 90, "duration": 356}, {"note": 77, "velocity": 90, "duration": 356}, {"note": 74, "velocity": 101, "duration": 236}, {"note": 77, "velocity": 94, "duration": 236}, {"note": 79, "velocity": 100, "duration": 236}, {"note": 77, "velocity": 98, "duration": 476}, {"note": 72, "velocity": 91, "duration": 236}, {"note": 72, "velocity": 98, "duration": 236}, {"note": 72, "velocity": 98, "duration": 236}, {"note": 70, "velocity": 106, "duration": 236}, {"note": 72, "velocity": 98, "duration": 236}, {"note": 74, "velocity": 100, "duration": 716}, {"note": 72, "velocity": 98, "duration": 356}, {"note": 72, "velocity": 103, "duration": 116}, {"note": 72, "velocity": 98, "duration": 236}, {"note": 70, "velocity": 98, "duration": 236}, {"note": 67, "velocity": 100, "duration": 476}, {"note": 70, "velocity": 103, "duration": 476}, {"note": 72, "velocity": 98, "duration": 1436}, {"note": 74, "velocity": 114, "duration": 476}, {"note": 77, "velocity": 104, "duration": 476}, {"note": 72, "velocity": 101, "duration": 1196}, {"note": 67, "velocity": 101, "duration": 716}, {"note": 72, "velocity": 103, "duration": 1916}, {"note": 70, "velocity": 104, "duration": 4316}]]