[[{"note": 73, "velocity": 93, "duration": 238}, {"note": 71, "velocity": 59, "duration": 238}, {"note": 73, "velocity": 62, "duration": 238}, {"note": 71, "velocity": 66, "duration": 478}, {"note": 69, "velocity": 54, "duration": 238}, {"note": 73, "velocity": 66, "duration": 238}, {"note": 76, "velocity": 65, "duration": 238}, {"note": 73, "velocity": 66, "duration": 238}, {"note": 76, "velocity": 76, "duration": 718}, {"note": 78, "velocity": 79, "duration": 238}, {"note": 80, "velocity": 61, "duration": 238}, {"note": 81, "velocity": 63, "duration": 238}, {"note": 80, "velocity": 67, "duration": 478}, {"note": 73, "velocity": 65, "duration": 246}, {"note": 76, "velocity": 68, "duration": 251}, {"note": 78, "velocity": 83, "duration": 478}, {"note": 76, "velocity": 73, "duration": 718}, {"note": 78, "velocity": 80, "duration": 238}, {"note": 80, "velocity": 66, "duration": 238}, {"note": 81, "velocity": 79, "duration": 263}, {"note": 80, "velocity": 91, "duration": 478}, {"note": 73, "velocity": 63, "duration": 238}, {"note": 76, "velocity": 75, "duration": 255}, {"note": 73, "velocity": 66, "duration": 238}, {"note": 71, "velocity": 72, "duration": 245}, {"note": 69, "velocity": 63, "duration": 478}, {"note": 66, "velocity": 63, "duration": 238}, {"note": 71, "velocity": 89, "duration": 263}, {"note": 73, "velocity": 87, "duration": 238}, {"note": 71, "velocity": 76, "duration": 255}, {"note": 69, "velocity": 75, "duration": 478}, {"note": 66, "velocity": 62, "duration": 243}, {"note": 73, "velocity": 96, "duration": 478}, {"note": 71, "velocity": 97, "duration": 958}, {"note": 73, "velocity": 99, "duration": 238}, {"note": 71, "velocity": 65, "duration": 250}, {"note": 73, "velocity": 73, "duration": 238}, {"note": 71, "velocity": 79, "duration": 478}, {"note": 69, "velocity": 71, "duration": 247}, {"note": 73, "velocity": 93, "duration": 238}, {"note": 76, "velocity": 85, "duration": 238}, {"note": 73, "velocity": 81, "duration": 238}, {"note": 76, "velocity": 86, "duration": 718}, {"note": 78, "velocity": 98, "duration": 269}, {"note": 80, "velocity": 80, "duration": 239}, {"note": 81, "velocity": 93, "duration": 261}, {"note": 80, "velocity": 93, "duration": 482}, {"note": 73, "velocity": 90, "duration": 265}, {"note": 76, "velocity": 84, "duration": 244}, {"note": 78, "velocity": 90, "duration": 559}, {"note": 76, "velocity": 100, "duration": 718}, {"note": 78, "velocity": 93, "duration": 246}, {"note": 80, "velocity": 87, "duration": 238}, {"note": 81, "velocity": 93, "duration": 259}, {"note": 80, "velocity": 87, "duration": 478}, {"note": 73, "velocity": 63, "duration": 238}, {"note": 76, "velocity": 97, "duration": 238}, {"note": 73, "velocity": 91, "duration": 238}, {"note": 71, "velocity": 66, "duration": 238}, {"note": 69, "velocity": 82, "duration": 478}, {"note": 66, "velocity": 87, "duration": 238}, {"note": 71, "velocity": 91, "duration": 270}, {"note": 73, "velocity": 77, "duration": 238}, {"note": 78, "velocity": 79, "duration": 266}, {"note": 76, "velocity": 87, "duration": 238}, {"note": 71, "velocity": 66, "duration": 478}, {"note": 73, "velocity": 87, "duration": 478}, {"note": 69, "velocity": 69, "duration": 958}, {"note": 78, "velocity": 97, "duration": 718}, {"note": 78, "velocity": 98, "duration": 287}, {"note": 76, "velocity": 92, "duration": 238}, {"note": 73, "velocity": 93, "duration": 238}, {"note": 76, "velocity": 95, "duration": 718}, {"note": 76, "velocity": 105, "duration": 238}, {"note": 73, "velocity": 90, "duration": 238}, {"note": 71, "velocity": 86, "duration": 271}, {"note": 73, "velocity": 90, "duration": 506}, {"note": 76, "velocity": 61, "duration": 247}, {"note": 73, "velocity": 93, "duration": 261}, {"note": 71, "velocity": 83, "duration": 478}, {"note": 69, "velocity": 66, "duration": 358}, {"note": 0, "velocity": 0, "duration": 122}, {"note": 66, "velocity": 71, "duration": 1078}, {"note": 66, "velocity": 72, "duration": 118}, {"note": 0, "velocity": 0, "duration": 122}, {"note": 69, "velocity": 66, "duration": 261}, {"note": 71, "velocity": 75, "duration": 238}, {"note": 69, "velocity": 74, "duration": 528}, {"note": 71, "velocity": 81, "duration": 266}, {"note": 73, "velocity": 68, "duration": 276}, {"note": 76, "velocity": 66, "duration": 238}, {"note": 78, "velocity": 66, "duration": 251}, {"note": 76, "velocity": 87, "duration": 478}, {"note": 73, "velocity": 90, "duration": 268}, {"note": 71, "velocity": 63, "duration": 240}, {"note": 73, "velocity": 64, "duration": 238}, {"note": 71, "velocity": 46, "duration": 238}, {"note": 69, "velocity": 72, "duration": 240}, {"note": 71, "velocity": 61, "duration": 271}, {"note": 73, "velocity": 75, "duration": 238}, {"note": 76, "velocity": 91, "duration": 1438}, {"note": 73, "velocity": 97, "duration": 238}, {"note": 71, "velocity": 76, "duration": 268}, {"note": 73, "velocity": 89, "duration": 245}, {"note": 71, "velocity": 84, "duration": 478}, {"note": 69, "velocity": 67, "duration": 283}, {"note": 73, "velocity": 87, "duration": 238}, {"note": 76, "velocity": 89, "duration": 254}, {"note": 73, "velocity": 91, "duration": 269}, {"note": 76, "velocity": 97, "duration": 718}, {"note": 78, "velocity": 93, "duration": 277}, {"note": 80, "velocity": 81, "duration": 238}, {"note": 81, "velocity": 91, "duration": 270}, {"note": 80, "velocity": 87, "duration": 478}, {"note": 73, "velocity": 77, "duration": 240}, {"note": 76, "velocity": 84, "duration": 269}, {"note": 78, "velocity": 93, "duration": 522}, {"note": 76, "velocity": 90, "duration": 718}, {"note": 78, "velocity": 92, "duration": 275}, {"note": 80, "velocity": 87, "duration": 256}, {"note": 81, "velocity": 90, "duration": 278}, {"note": 80, "velocity": 89, "duration": 478}, {"note": 73, "velocity": 85, "duration": 247}, {"note": 76, "velocity": 91, "duration": 244}, {"note": 73, "velocity": 82, "duration": 238}, {"note": 71, "velocity": 81, "duration": 238}, {"note": 69, "velocity": 91, "duration": 478}, {"note": 66, "velocity": 97, "duration": 238}, {"note": 71, "velocity": 91, "duration": 263}, {"note": 73, "velocity": 87, "duration": 241}, {"note": 78, "velocity": 90, "duration": 289}, {"note": 76, "velocity": 94, "duration": 238}, {"note": 71, "velocity": 93, "duration": 478}, {"note": 73, "velocity": 105, "duration": 478}, {"note": 69, "velocity": 105, "duration": 649}, {"note": 0, "velocity": 0, "duration": 26231}, {"note": 73, "velocity": 93, "duration": 238}, {"note": 71, "velocity": 59, "duration": 238}, {"note": 73, "velocity": 62, "duration": 238}, {"note": 71, "velocity": 66, "duration": 478}, {"note": 69, "velocity": 54, "duration": 238}, {"note": 73, "velocity": 66, "duration": 238}, {"note": 76, "velocity": 65, "duration": 238}, {"note": 73, "velocity": 66, "duration": 238}, {"note": 76, "velocity": 76, "duration": 718}, {"note": 78, "velocity": 79, "duration": 238}, {"note": 80, "velocity": 61, "duration": 238}, {"note": 81, "velocity": 63, "duration": 238}, {"note": 80, "velocity": 67, "duration": 478}, {"note": 73, "velocity": 65, "duration": 246}, {"note": 76, "velocity": 68, "duration": 251}, {"note": 78, "velocity": 83, "duration": 478}, {"note": 76, "velocity": 73, "duration": 718}, {"note": 78, "velocity": 80, "duration": 238}, {"note": 80, "velocity": 66, "duration": 238}, {"note": 81, "velocity": 79, "duration": 263}, {"note": 80, "velocity": 91, "duration": 478}, {"note": 73, "velocity": 63, "duration": 238}, {"note": 76, "velocity": 75, "duration": 255}, {"note": 73, "velocity": 66, "duration": 238}, {"note": 71, "velocity": 72, "duration": 245}, {"note": 69, "velocity": 63, "duration": 478}, {"note": 66, "velocity": 63, "duration": 238}, {"note": 71, "velocity": 89, "duration": 263}, {"note": 73, "velocity": 87, "duration": 238}, {"note": 71, "velocity": 76, "duration": 255}, {"note": 69, "velocity": 75, "duration": 238}, {"note": 66, "velocity": 62, "duration": 238}, {"note": 73, "velocity": 96, "duration": 478}, {"note": 71, "velocity": 97, "duration": 1198}, {"note": 73, "velocity": 99, "duration": 238}, {"note": 71, "velocity": 65, "duration": 250}, {"note": 73, "velocity": 73, "duration": 238}, {"note": 71, "velocity": 79, "duration": 478}, {"note": 69, "velocity": 71, "duration": 247}, {"note": 73, "velocity": 93, "duration": 238}, {"note": 76, "velocity": 85, "duration": 238}, {"note": 73, "velocity": 81, "duration": 238}, {"note": 76, "velocity": 86, "duration": 718}, {"note": 78, "velocity": 98, "duration": 269}, {"note": 80, "velocity": 80, "duration": 239}, {"note": 81, "velocity": 93, "duration": 261}, {"note": 80, "velocity": 93, "duration": 482}, {"note": 73, "velocity": 90, "duration": 265}, {"note": 76, "velocity": 84, "duration": 244}, {"note": 78, "velocity": 90, "duration": 478}, {"note": 76, "velocity": 100, "duration": 838}, {"note": 78, "velocity": 93, "duration": 246}, {"note": 80, "velocity": 87, "duration": 238}, {"note": 81, "velocity": 93, "duration": 259}, {"note": 80, "velocity": 87, "duration": 478}, {"note": 73, "velocity": 63, "duration": 238}, {"note": 76, "velocity": 97, "duration": 238}, {"note": 73, "velocity": 91, "duration": 238}, {"note": 71, "velocity": 66, "duration": 238}, {"note": 69, "velocity": 82, "duration": 478}, {"note": 66, "velocity": 87, "duration": 238}, {"note": 71, "velocity": 91, "duration": 270}, {"note": 73, "velocity": 77, "duration": 238}, {"note": 78, "velocity": 79, "duration": 266}, {"note": 76, "velocity": 87, "duration": 238}, {"note": 71, "velocity": 66, "duration": 478}, {"note": 73, "velocity": 87, "duration": 478}, {"note": 69, "velocity": 69, "duration": 958}, {"note": 78, "velocity": 97, "duration": 718}, {"note": 78, "velocity": 98, "duration": 287}, {"note": 76, "velocity": 92, "duration": 238}, {"note": 73, "velocity": 93, "duration": 238}, {"note": 76, "velocity": 95, "duration": 718}, {"note": 76, "velocity": 105, "duration": 238}, {"note": 73, "velocity": 90, "duration": 238}, {"note": 71, "velocity": 86, "duration": 271}, {"note": 73, "velocity": 90, "duration": 506}, {"note": 78, "velocity": 61, "duration": 247}, {"note": 73, "velocity": 93, "duration": 261}, {"note": 71, "velocity": 83, "duration": 478}, {"note": 69, "velocity": 66, "duration": 238}, {"note": 66, "velocity": 71, "duration": 1198}, {"note": 66, "velocity": 72, "duration": 245}, {"note": 69, "velocity": 66, "duration": 261}, {"note": 71, "velocity": 75, "duration": 238}, {"note": 69, "velocity": 74, "duration": 528}, {"note": 71, "velocity": 81, "duration": 266}, {"note": 73, "velocity": 68, "duration": 276}, {"note": 76, "velocity": 66, "duration": 238}, {"note": 78, "velocity": 66, "duration": 251}, {"note": 76, "velocity": 87, "duration": 478}, {"note": 73, "velocity": 90, "duration": 268}, {"note": 71, "velocity": 63, "duration": 240}, {"note": 73, "velocity": 64, "duration": 238}, {"note": 71, "velocity": 46, "duration": 238}, {"note": 69, "velocity": 72, "duration": 240}, {"note": 71, "velocity": 61, "duration": 271}, {"note": 73, "velocity": 75, "duration": 238}, {"note": 76, "velocity": 91, "duration": 1438}, {"note": 73, "velocity": 97, "duration": 238}, {"note": 71, "velocity": 76, "duration": 268}, {"note": 73, "velocity": 89, "duration": 245}, {"note": 71, "velocity": 84, "duration": 478}, {"note": 69, "velocity": 67, "duration": 283}, {"note": 73, "velocity": 87, "duration": 238}, {"note": 76, "velocity": 89, "duration": 254}, {"note": 73, "velocity": 91, "duration": 269}, {"note": 76, "velocity": 97, "duration": 718}, {"note": 78, "velocity": 93, "duration": 277}, {"note": 80, "velocity": 81, "duration": 238}, {"note": 81, "velocity": 91, "duration": 270}, {"note": 80, "velocity": 87, "duration": 478}, {"note": 73, "velocity": 77, "duration": 240}, {"note": 76, "velocity": 84, "duration": 269}, {"note": 78, "velocity": 93, "duration": 522}, {"note": 76, "velocity": 90, "duration": 718}, {"note": 78, "velocity": 92, "duration": 275}, {"note": 80, "velocity": 87, "duration": 256}, {"note": 81, "velocity": 90, "duration": 278}, {"note": 80, "velocity": 89, "duration": 478}, {"note": 73, "velocity": 85, "duration": 247}, {"note": 76, "velocity": 91, "duration": 244}, {"note": 73, "velocity": 82, "duration": 238}, {"note": 71, "velocity": 81, "duration": 238}, {"note": 69, "velocity": 91, "duration": 478}, {"note": 66, "velocity": 97, "duration": 238}, {"note": 71, "velocity": 91, "duration": 263}, {"note": 73, "velocity": 87, "duration": 241}, {"note": 78, "velocity": 90, "duration": 289}, {"note": 76, "velocity": 94, "duration": 358}, {"note": 71, "velocity": 93, "duration": 358}, {"note": 73, "velocity": 105, "duration": 358}, {"note": 69, "velocity": 105, "duration": 769}, {"note": 0, "velocity": 0, "duration": 311}, {"note": 78, "velocity": 97, "duration": 718}, {"note": 78, "velocity": 98, "duration": 287}, {"note": 76, "velocity": 92, "duration": 238}, {"note": 73, "velocity": 93, "duration": 238}, {"note": 76, "velocity": 95, "duration": 718}, {"note": 76, "velocity": 105, "duration": 238}, {"note": 73, "velocity": 90, "duration": 238}, {"note": 71, "velocity": 86, "duration": 271}, {"note": 73, "velocity": 90, "duration": 506}, {"note": 78, "velocity": 61, "duration": 247}, {"note": 73, "velocity": 93, "duration": 261}, {"note": 71, "velocity": 83, "duration": 478}, {"note": 69, "velocity": 66, "duration": 238}, {"note": 66, "velocity": 71, "duration": 1198}, {"note": 66, "velocity": 72, "duration": 245}, {"note": 69, "velocity": 66, "duration": 261}, {"note": 71, "velocity": 75, "duration": 238}, {"note": 69, "velocity": 74, "duration": 528}, {"note": 71, "velocity": 81, "duration": 266}, {"note": 73, "velocity": 68, "duration": 276}, {"note": 76, "velocity": 66, "duration": 238}, {"note": 78, "velocity": 66, "duration": 251}, {"note": 76, "velocity": 87, "duration": 478}, {"note": 73, "velocity": 90, "duration": 268}, {"note": 71, "velocity": 63, "duration": 238}, {"note": 73, "velocity": 64, "duration": 238}, {"note": 71, "velocity": 46, "duration": 238}, {"note": 69, "velocity": 72, "duration": 240}, {"note": 71, "velocity": 61, "duration": 271}, {"note": 73, "velocity": 75, "duration": 238}, {"note": 76, "velocity": 91, "duration": 1438}, {"note": 73, "velocity": 97, "duration": 238}, {"note": 71, "velocity": 76, "duration": 268}, {"note": 73, "velocity": 89, "duration": 245}, {"note": 71, "velocity": 84, "duration": 478}, {"note": 69, "velocity": 67, "duration": 283}, {"note": 73, "velocity": 87, "duration": 238}, {"note": 76, "velocity": 89, "duration": 254}, {"note": 73, "velocity": 91, "duration": 269}, {"note": 76, "velocity": 97, "duration": 718}, {"note": 78, "velocity": 93, "duration": 277}, {"note": 80, "velocity": 81, "duration": 238}, {"note": 81, "velocity": 91, "duration": 270}, {"note": 80, "velocity": 87, "duration": 478}, {"note": 73, "velocity": 77, "duration": 240}, {"note": 76, "velocity": 84, "duration": 269}, {"note": 78, "velocity": 93, "duration": 478}, {"note": 76, "velocity": 90, "duration": 718}, {"note": 78, "velocity": 92, "duration": 275}, {"note": 80, "velocity": 87, "duration": 256}, {"note": 81, "velocity": 90, "duration": 278}, {"note": 80, "velocity": 89, "duration": 478}, {"note": 73, "velocity": 85, "duration": 247}, {"note": 76, "velocity": 91, "duration": 244}, {"note": 73, "velocity": 82, "duration": 238}, {"note": 71, "velocity": 81, "duration": 238}, {"note": 69, "velocity": 91, "duration": 478}, {"note": 66, "velocity": 97, "duration": 238}, {"note": 71, "velocity": 91, "duration": 263}, {"note": 73, "velocity": 87, "duration": 238}, {"note": 78, "velocity": 90, "duration": 238}, {"note": 76, "velocity": 94, "duration": 238}, {"note": 71, "velocity": 93, "duration": 358}, {"note": 73, "velocity": 105, "duration": 478}, {"note": 69, "velocity": 105, "duration": 769}, {"note": 0, "velocity": 0, "duration": 311}, {"note": 73, "velocity": 93, "duration": 238}, {"note": 71, "velocity": 59, "duration": 238}, {"note": 73, "velocity": 62, "duration": 238}, {"note": 71, "velocity": 66, "duration": 478}, {"note": 69, "velocity": 54, "duration": 358}, {"note": 73, "velocity": 66, "duration": 238}, {"note": 76, "velocity": 65, "duration": 238}, {"note": 73, "velocity": 66, "duration": 238}, {"note": 76, "velocity": 76, "duration": 598}, {"note": 0, "velocity": 0, "duration": 122}, {"note": 78, "velocity": 79, "duration": 238}, {"note": 80, "velocity": 61, "duration": 238}, {"note": 81, "velocity": 63, "duration": 238}, {"note": 80, "velocity": 67, "duration": 478}, {"note": 73, "velocity": 65, "duration": 246}, {"note": 76, "velocity": 68, "duration": 251}, {"note": 78, "velocity": 83, "duration": 478}, {"note": 76, "velocity": 73, "duration": 718}, {"note": 78, "velocity": 80, "duration": 238}, {"note": 80, "velocity": 66, "duration": 238}, {"note": 81, "velocity": 79, "duration": 263}, {"note": 80, "velocity": 91, "duration": 478}, {"note": 73, "velocity": 63, "duration": 238}, {"note": 76, "velocity": 75, "duration": 255}, {"note": 73, "velocity": 66, "duration": 238}, {"note": 71, "velocity": 72, "duration": 245}, {"note": 69, "velocity": 63, "duration": 598}, {"note": 66, "velocity": 63, "duration": 238}, {"note": 71, "velocity": 89, "duration": 238}, {"note": 73, "velocity": 87, "duration": 238}, {"note": 78, "velocity": 76, "duration": 238}, {"note": 76, "velocity": 75, "duration": 238}, {"note": 71, "velocity": 62, "duration": 358}, {"note": 73, "velocity": 96, "duration": 358}]]