[[{"note": 74, "velocity": 66, "duration": 282}, {"note": 72, "velocity": 59, "duration": 240}, {"note": 70, "velocity": 45, "duration": 283}, {"note": 72, "velocity": 62, "duration": 239}, {"note": 72, "velocity": 56, "duration": 960}, {"note": 77, "velocity": 63, "duration": 480}, {"note": 70, "velocity": 77, "duration": 1440}, {"note": 74, "velocity": 66, "duration": 240}, {"note": 72, "velocity": 60, "duration": 246}, {"note": 70, "velocity": 63, "duration": 277}, {"note": 72, "velocity": 67, "duration": 239}, {"note": 72, "velocity": 53, "duration": 239}, {"note": 72, "velocity": 57, "duration": 479}, {"note": 72, "velocity": 56, "duration": 272}, {"note": 77, "velocity": 55, "duration": 720}, {"note": 79, "velocity": 79, "duration": 480}, {"note": 77, "velocity": 63, "duration": 247}, {"note": 70, "velocity": 66, "duration": 479}, {"note": 70, "velocity": 87, "duration": 239}, {"note": 70, "velocity": 86, "duration": 239}, {"note": 70, "velocity": 67, "duration": 240}, {"note": 79, "velocity": 98, "duration": 480}, {"note": 77, "velocity": 77, "duration": 268}, {"note": 79, "velocity": 93, "duration": 480}, {"note": 82, "velocity": 97, "duration": 1199}, {"note": 82, "velocity": 92, "duration": 239}, {"note": 82, "velocity": 95, "duration": 239}, {"note": 82, "velocity": 92, "duration": 720}, {"note": 70, "velocity": 97, "duration": 481}, {"note": 74, "velocity": 99, "duration": 480}, {"note": 72, "velocity": 81, "duration": 2405}, {"note": 74, "velocity": 66, "duration": 342}, {"note": 72, "velocity": 67, "duration": 309}, {"note": 70, "velocity": 67, "duration": 311}, {"note": 72, "velocity": 74, "duration": 518}, {"note": 72, "velocity": 86, "duration": 38}, {"note": 0, "velocity": 0, "duration": 442}, {"note": 72, "velocity": 79, "duration": 242}, {"note": 77, "velocity": 79, "duration": 480}, {"note": 72, "velocity": 74, "duration": 480}, {"note": 70, "velocity": 83, "duration": 960}, {"note": 74, "velocity": 87, "duration": 255}, {"note": 72, "velocity": 75, "duration": 240}, {"note": 70, "velocity": 67, "duration": 284}, {"note": 72, "velocity": 71, "duration": 239}, {"note": 72, "velocity": 71, "duration": 239}, {"note": 72, "velocity": 65, "duration": 240}, {"note": 70, "velocity": 66, "duration": 274}, {"note": 72, "velocity": 74, "duration": 275}, {"note": 77, "velocity": 66, "duration": 479}, {"note": 77, "velocity": 79, "duration": 398}, {"note": 79, "velocity": 66, "duration": 485}, {"note": 82, "velocity": 72, "duration": 240}, {"note": 79, "velocity": 90, "duration": 479}, {"note": 79, "velocity": 90, "duration": 239}, {"note": 79, "velocity": 90, "duration": 245}, {"note": 77, "velocity": 90, "duration": 259}, {"note": 82, "velocity": 97, "duration": 479}, {"note": 82, "velocity": 93, "duration": 240}, {"note": 79, "velocity": 106, "duration": 1558}, {"note": 82, "velocity": 97, "duration": 240}, {"note": 82, "velocity": 95, "duration": 239}, {"note": 82, "velocity": 94, "duration": 239}, {"note": 82, "velocity": 77, "duration": 240}, {"note": 79, "velocity": 86, "duration": 239}, {"note": 79, "velocity": 86, "duration": 240}, {"note": 82, "velocity": 66, "duration": 240}, {"note": 79, "velocity": 90, "duration": 240}, {"note": 77, "velocity": 77, "duration": 2879}, {"note": 77, "velocity": 91, "duration": 257}, {"note": 79, "velocity": 91, "duration": 251}, {"note": 82, "velocity": 106, "duration": 2153}, {"note": 82, "velocity": 109, "duration": 239}, {"note": 82, "velocity": 103, "duration": 479}, {"note": 82, "velocity": 99, "duration": 239}, {"note": 82, "velocity": 100, "duration": 480}, {"note": 79, "velocity": 105, "duration": 480}, {"note": 82, "velocity": 108, "duration": 3120}, {"note": 74, "velocity": 85, "duration": 274}, {"note": 72, "velocity": 73, "duration": 240}, {"note": 70, "velocity": 82, "duration": 291}, {"note": 72, "velocity": 87, "duration": 480}, {"note": 70, "velocity": 86, "duration": 271}, {"note": 72, "velocity": 91, "duration": 515}, {"note": 74, "velocity": 86, "duration": 720}, {"note": 78, "velocity": 100, "duration": 479}, {"note": 78, "velocity": 95, "duration": 240}, {"note": 79, "velocity": 95, "duration": 467}, {"note": 81, "velocity": 93, "duration": 480}, {"note": 74, "velocity": 90, "duration": 240}, {"note": 84, "velocity": 92, "duration": 480}, {"note": 82, "velocity": 94, "duration": 239}, {"note": 82, "velocity": 96, "duration": 480}, {"note": 81, "velocity": 91, "duration": 239}, {"note": 81, "velocity": 93, "duration": 240}, {"note": 79, "velocity": 93, "duration": 240}, {"note": 81, "velocity": 90, "duration": 480}, {"note": 82, "velocity": 90, "duration": 240}, {"note": 74, "velocity": 87, "duration": 480}, {"note": 72, "velocity": 67, "duration": 251}, {"note": 70, "velocity": 65, "duration": 480}, {"note": 72, "velocity": 103, "duration": 239}, {"note": 72, "velocity": 87, "duration": 239}, {"note": 72, "velocity": 91, "duration": 240}, {"note": 70, "velocity": 87, "duration": 240}, {"note": 72, "velocity": 96, "duration": 240}, {"note": 70, "velocity": 90, "duration": 444}, {"note": 79, "velocity": 100, "duration": 240}, {"note": 77, "velocity": 98, "duration": 480}, {"note": 79, "velocity": 100, "duration": 508}, {"note": 77, "velocity": 105, "duration": 720}, {"note": 79, "velocity": 108, "duration": 240}, {"note": 82, "velocity": 94, "duration": 239}, {"note": 82, "velocity": 101, "duration": 240}, {"note": 79, "velocity": 99, "duration": 240}, {"note": 82, "velocity": 105, "duration": 240}, {"note": 79, "velocity": 91, "duration": 479}, {"note": 79, "velocity": 91, "duration": 240}, {"note": 86, "velocity": 95, "duration": 240}, {"note": 84, "velocity": 103, "duration": 480}, {"note": 77, "velocity": 90, "duration": 240}, {"note": 86, "velocity": 95, "duration": 240}, {"note": 84, "velocity": 92, "duration": 479}, {"note": 84, "velocity": 74, "duration": 239}, {"note": 84, "velocity": 82, "duration": 261}, {"note": 82, "velocity": 66, "duration": 239}, {"note": 82, "velocity": 66, "duration": 239}, {"note": 82, "velocity": 72, "duration": 240}, {"note": 79, "velocity": 51, "duration": 267}, {"note": 77, "velocity": 63, "duration": 480}, {"note": 78, "velocity": 89, "duration": 479}, {"note": 78, "velocity": 80, "duration": 239}, {"note": 78, "velocity": 89, "duration": 239}, {"note": 78, "velocity": 75, "duration": 240}, {"note": 79, "velocity": 87, "duration": 240}, {"note": 81, "velocity": 77, "duration": 480}, {"note": 74, "velocity": 83, "duration": 254}, {"note": 84, "velocity": 75, "duration": 242}, {"note": 82, "velocity": 90, "duration": 479}, {"note": 82, "velocity": 97, "duration": 480}, {"note": 81, "velocity": 95, "duration": 239}, {"note": 81, "velocity": 80, "duration": 240}, {"note": 79, "velocity": 69, "duration": 259}, {"note": 81, "velocity": 94, "duration": 485}, {"note": 82, "velocity": 93, "duration": 240}, {"note": 74, "velocity": 87, "duration": 480}, {"note": 72, "velocity": 90, "duration": 267}, {"note": 70, "velocity": 84, "duration": 480}, {"note": 72, "velocity": 97, "duration": 239}, {"note": 72, "velocity": 87, "duration": 239}, {"note": 72, "velocity": 92, "duration": 240}, {"note": 70, "velocity": 82, "duration": 240}, {"note": 72, "velocity": 94, "duration": 372}, {"note": 70, "velocity": 77, "duration": 600}, {"note": 79, "velocity": 98, "duration": 285}, {"note": 77, "velocity": 87, "duration": 480}, {"note": 79, "velocity": 87, "duration": 486}, {"note": 77, "velocity": 86, "duration": 720}, {"note": 79, "velocity": 90, "duration": 240}, {"note": 82, "velocity": 97, "duration": 239}, {"note": 82, "velocity": 99, "duration": 240}, {"note": 79, "velocity": 93, "duration": 240}, {"note": 82, "velocity": 101, "duration": 240}, {"note": 79, "velocity": 91, "duration": 1078}, {"note": 86, "velocity": 98, "duration": 480}, {"note": 84, "velocity": 90, "duration": 239}, {"note": 84, "velocity": 87, "duration": 358}, {"note": 82, "velocity": 95, "duration": 422}, {"note": 79, "velocity": 87, "duration": 240}, {"note": 84, "velocity": 93, "duration": 720}, {"note": 82, "velocity": 75, "duration": 3693}, {"note": 0, "velocity": 0, "duration": 33267}, {"note": 74, "velocity": 66, "duration": 282}, {"note": 72, "velocity": 59, "duration": 240}, {"note": 70, "velocity": 45, "duration": 283}, {"note": 72, "velocity": 62, "duration": 479}, {"note": 72, "velocity": 56, "duration": 720}, {"note": 77, "velocity": 63, "duration": 480}, {"note": 70, "velocity": 77, "duration": 1447}, {"note": 74, "velocity": 66, "duration": 240}, {"note": 72, "velocity": 60, "duration": 246}, {"note": 70, "velocity": 63, "duration": 277}, {"note": 72, "velocity": 67, "duration": 239}, {"note": 72, "velocity": 53, "duration": 239}, {"note": 72, "velocity": 57, "duration": 479}, {"note": 72, "velocity": 56, "duration": 272}, {"note": 77, "velocity": 55, "duration": 720}, {"note": 79, "velocity": 79, "duration": 266}, {"note": 77, "velocity": 63, "duration": 480}, {"note": 70, "velocity": 66, "duration": 479}, {"note": 70, "velocity": 87, "duration": 239}, {"note": 70, "velocity": 86, "duration": 239}, {"note": 70, "velocity": 67, "duration": 240}, {"note": 79, "velocity": 98, "duration": 480}, {"note": 77, "velocity": 77, "duration": 290}, {"note": 79, "velocity": 93, "duration": 480}, {"note": 82, "velocity": 97, "duration": 1199}, {"note": 82, "velocity": 92, "duration": 239}, {"note": 82, "velocity": 95, "duration": 239}, {"note": 82, "velocity": 92, "duration": 720}, {"note": 70, "velocity": 97, "duration": 741}, {"note": 74, "velocity": 99, "duration": 249}, {"note": 72, "velocity": 81, "duration": 2400}, {"note": 74, "velocity": 100, "duration": 240}, {"note": 72, "velocity": 67, "duration": 240}, {"note": 70, "velocity": 67, "duration": 240}, {"note": 72, "velocity": 74, "duration": 479}, {"note": 72, "velocity": 86, "duration": 479}, {"note": 72, "velocity": 79, "duration": 242}, {"note": 77, "velocity": 79, "duration": 480}, {"note": 72, "velocity": 74, "duration": 480}, {"note": 70, "velocity": 83, "duration": 960}, {"note": 74, "velocity": 87, "duration": 255}, {"note": 72, "velocity": 75, "duration": 240}, {"note": 70, "velocity": 67, "duration": 284}, {"note": 72, "velocity": 71, "duration": 239}, {"note": 72, "velocity": 71, "duration": 239}, {"note": 72, "velocity": 65, "duration": 240}, {"note": 70, "velocity": 66, "duration": 274}, {"note": 72, "velocity": 74, "duration": 275}, {"note": 77, "velocity": 66, "duration": 479}, {"note": 77, "velocity": 79, "duration": 240}, {"note": 79, "velocity": 66, "duration": 485}, {"note": 82, "velocity": 72, "duration": 240}, {"note": 79, "velocity": 90, "duration": 479}, {"note": 79, "velocity": 90, "duration": 239}, {"note": 79, "velocity": 90, "duration": 270}, {"note": 77, "velocity": 90, "duration": 275}, {"note": 82, "velocity": 97, "duration": 479}, {"note": 82, "velocity": 93, "duration": 240}, {"note": 79, "velocity": 106, "duration": 1560}, {"note": 82, "velocity": 97, "duration": 359}, {"note": 82, "velocity": 95, "duration": 239}, {"note": 82, "velocity": 94, "duration": 240}, {"note": 79, "velocity": 86, "duration": 239}, {"note": 79, "velocity": 86, "duration": 240}, {"note": 82, "velocity": 66, "duration": 240}, {"note": 79, "velocity": 90, "duration": 240}, {"note": 77, "velocity": 77, "duration": 2879}, {"note": 77, "velocity": 91, "duration": 303}, {"note": 79, "velocity": 91, "duration": 264}, {"note": 82, "velocity": 106, "duration": 2018}, {"note": 82, "velocity": 109, "duration": 239}, {"note": 82, "velocity": 103, "duration": 479}, {"note": 82, "velocity": 99, "duration": 239}, {"note": 82, "velocity": 100, "duration": 480}, {"note": 79, "velocity": 105, "duration": 480}, {"note": 82, "velocity": 108, "duration": 3120}, {"note": 74, "velocity": 85, "duration": 274}, {"note": 72, "velocity": 73, "duration": 240}, {"note": 70, "velocity": 82, "duration": 291}, {"note": 72, "velocity": 87, "duration": 480}, {"note": 70, "velocity": 86, "duration": 271}, {"note": 72, "velocity": 91, "duration": 515}, {"note": 74, "velocity": 86, "duration": 720}, {"note": 78, "velocity": 100, "duration": 479}, {"note": 78, "velocity": 95, "duration": 240}, {"note": 79, "velocity": 95, "duration": 480}, {"note": 81, "velocity": 93, "duration": 480}, {"note": 74, "velocity": 90, "duration": 240}, {"note": 84, "velocity": 92, "duration": 480}, {"note": 82, "velocity": 94, "duration": 239}, {"note": 82, "velocity": 96, "duration": 480}, {"note": 81, "velocity": 91, "duration": 239}, {"note": 81, "velocity": 93, "duration": 240}, {"note": 79, "velocity": 93, "duration": 240}, {"note": 81, "velocity": 90, "duration": 480}, {"note": 82, "velocity": 90, "duration": 240}, {"note": 74, "velocity": 87, "duration": 480}, {"note": 72, "velocity": 67, "duration": 251}, {"note": 70, "velocity": 65, "duration": 480}, {"note": 72, "velocity": 103, "duration": 239}, {"note": 72, "velocity": 87, "duration": 239}, {"note": 72, "velocity": 91, "duration": 240}, {"note": 70, "velocity": 87, "duration": 240}, {"note": 72, "velocity": 96, "duration": 240}, {"note": 70, "velocity": 90, "duration": 405}, {"note": 79, "velocity": 100, "duration": 240}, {"note": 77, "velocity": 98, "duration": 480}, {"note": 79, "velocity": 100, "duration": 508}, {"note": 77, "velocity": 105, "duration": 720}, {"note": 79, "velocity": 108, "duration": 240}, {"note": 82, "velocity": 94, "duration": 239}, {"note": 82, "velocity": 101, "duration": 240}, {"note": 79, "velocity": 99, "duration": 240}, {"note": 82, "velocity": 105, "duration": 240}, {"note": 79, "velocity": 91, "duration": 479}, {"note": 79, "velocity": 91, "duration": 240}, {"note": 86, "velocity": 95, "duration": 240}, {"note": 84, "velocity": 103, "duration": 480}, {"note": 77, "velocity": 90, "duration": 240}, {"note": 86, "velocity": 95, "duration": 240}, {"note": 84, "velocity": 92, "duration": 479}, {"note": 84, "velocity": 74, "duration": 239}, {"note": 84, "velocity": 82, "duration": 261}, {"note": 82, "velocity": 66, "duration": 239}, {"note": 82, "velocity": 66, "duration": 239}, {"note": 82, "velocity": 72, "duration": 240}, {"note": 79, "velocity": 51, "duration": 267}, {"note": 77, "velocity": 63, "duration": 480}, {"note": 78, "velocity": 89, "duration": 479}, {"note": 78, "velocity": 80, "duration": 239}, {"note": 78, "velocity": 89, "duration": 239}, {"note": 78, "velocity": 75, "duration": 240}, {"note": 79, "velocity": 87, "duration": 240}, {"note": 81, "velocity": 77, "duration": 480}, {"note": 74, "velocity": 83, "duration": 240}, {"note": 84, "velocity": 75, "duration": 320}, {"note": 82, "velocity": 90, "duration": 479}, {"note": 82, "velocity": 97, "duration": 480}, {"note": 81, "velocity": 95, "duration": 239}, {"note": 81, "velocity": 80, "duration": 240}, {"note": 79, "velocity": 69, "duration": 245}, {"note": 81, "velocity": 94, "duration": 485}, {"note": 82, "velocity": 93, "duration": 240}, {"note": 74, "velocity": 87, "duration": 480}, {"note": 72, "velocity": 90, "duration": 267}, {"note": 70, "velocity": 84, "duration": 480}, {"note": 72, "velocity": 97, "duration": 239}, {"note": 72, "velocity": 87, "duration": 239}, {"note": 72, "velocity": 92, "duration": 240}, {"note": 70, "velocity": 82, "duration": 240}, {"note": 72, "velocity": 94, "duration": 254}, {"note": 70, "velocity": 77, "duration": 720}, {"note": 79, "velocity": 98, "duration": 285}, {"note": 77, "velocity": 87, "duration": 480}, {"note": 79, "velocity": 87, "duration": 616}, {"note": 77, "velocity": 86, "duration": 720}, {"note": 79, "velocity": 90, "duration": 350}, {"note": 82, "velocity": 97, "duration": 239}, {"note": 82, "velocity": 99, "duration": 240}, {"note": 79, "velocity": 93, "duration": 240}, {"note": 82, "velocity": 101, "duration": 240}, {"note": 79, "velocity": 91, "duration": 960}, {"note": 86, "velocity": 98, "duration": 482}, {"note": 84, "velocity": 90, "duration": 239}, {"note": 84, "velocity": 87, "duration": 360}, {"note": 82, "velocity": 95, "duration": 265}, {"note": 79, "velocity": 87, "duration": 240}, {"note": 84, "velocity": 93, "duration": 720}, {"note": 82, "velocity": 75, "duration": 6240}, {"note": 84, "velocity": 91, "duration": 749}, {"note": 84, "velocity": 95, "duration": 29}, {"note": 0, "velocity": 0, "duration": 211}, {"note": 82, "velocity": 64, "duration": 239}, {"note": 82, "velocity": 79, "duration": 239}, {"note": 82, "velocity": 79, "duration": 248}, {"note": 79, "velocity": 71, "duration": 254}, {"note": 77, "velocity": 87, "duration": 480}, {"note": 78, "velocity": 96, "duration": 479}, {"note": 78, "velocity": 89, "duration": 239}, {"note": 78, "velocity": 89, "duration": 239}, {"note": 78, "velocity": 91, "duration": 257}, {"note": 79, "velocity": 83, "duration": 244}, {"note": 81, "velocity": 93, "duration": 510}, {"note": 74, "velocity": 87, "duration": 240}, {"note": 84, "velocity": 76, "duration": 255}, {"note": 82, "velocity": 94, "duration": 479}, {"note": 82, "velocity": 97, "duration": 504}, {"note": 81, "velocity": 93, "duration": 239}, {"note": 81, "velocity": 84, "duration": 240}, {"note": 79, "velocity": 81, "duration": 272}, {"note": 81, "velocity": 74, "duration": 480}, {"note": 82, "velocity": 81, "duration": 251}, {"note": 74, "velocity": 86, "duration": 498}, {"note": 72, "velocity": 83, "duration": 254}, {"note": 70, "velocity": 87, "duration": 495}, {"note": 72, "velocity": 105, "duration": 239}, {"note": 72, "velocity": 90, "duration": 240}, {"note": 72, "velocity": 91, "duration": 240}, {"note": 70, "velocity": 95, "duration": 266}, {"note": 72, "velocity": 91, "duration": 240}, {"note": 70, "velocity": 96, "duration": 740}, {"note": 79, "velocity": 98, "duration": 244}, {"note": 77, "velocity": 93, "duration": 480}, {"note": 79, "velocity": 100, "duration": 486}, {"note": 77, "velocity": 106, "duration": 720}, {"note": 79, "velocity": 101, "duration": 240}, {"note": 82, "velocity": 84, "duration": 239}, {"note": 82, "velocity": 98, "duration": 240}, {"note": 79, "velocity": 81, "duration": 264}, {"note": 82, "velocity": 94, "duration": 245}, {"note": 79, "velocity": 86, "duration": 493}, {"note": 79, "velocity": 90, "duration": 13}, {"note": 0, "velocity": 0, "duration": 227}, {"note": 86, "velocity": 93, "duration": 245}, {"note": 84, "velocity": 96, "duration": 480}, {"note": 77, "velocity": 94, "duration": 244}, {"note": 86, "velocity": 96, "duration": 242}, {"note": 84, "velocity": 106, "duration": 480}, {"note": 86, "velocity": 98, "duration": 239}, {"note": 86, "velocity": 99, "duration": 273}, {"note": 84, "velocity": 84, "duration": 242}, {"note": 84, "velocity": 90, "duration": 2}, {"note": 0, "velocity": 0, "duration": 238}, {"note": 84, "velocity": 89, "duration": 6}, {"note": 0, "velocity": 0, "duration": 234}, {"note": 81, "velocity": 93, "duration": 81}, {"note": 79, "velocity": 98, "duration": 357}, {"note": 80, "velocity": 107, "duration": 36}, {"note": 80, "velocity": 97, "duration": 239}, {"note": 80, "velocity": 93, "duration": 239}, {"note": 80, "velocity": 91, "duration": 250}, {"note": 81, "velocity": 89, "duration": 263}, {"note": 83, "velocity": 103, "duration": 513}, {"note": 76, "velocity": 93, "duration": 240}, {"note": 86, "velocity": 87, "duration": 240}, {"note": 84, "velocity": 95, "duration": 479}, {"note": 84, "velocity": 100, "duration": 513}, {"note": 83, "velocity": 97, "duration": 239}, {"note": 83, "velocity": 92, "duration": 240}, {"note": 81, "velocity": 87, "duration": 268}, {"note": 83, "velocity": 93, "duration": 510}, {"note": 84, "velocity": 90, "duration": 240}, {"note": 76, "velocity": 89, "duration": 492}, {"note": 74, "velocity": 87, "duration": 240}, {"note": 72, "velocity": 72, "duration": 501}, {"note": 74, "velocity": 91, "duration": 239}, {"note": 74, "velocity": 91, "duration": 239}, {"note": 74, "velocity": 93, "duration": 240}, {"note": 72, "velocity": 84, "duration": 303}, {"note": 74, "velocity": 93, "duration": 240}, {"note": 72, "velocity": 97, "duration": 797}, {"note": 81, "velocity": 100, "duration": 261}, {"note": 79, "velocity": 87, "duration": 480}, {"note": 81, "velocity": 100, "duration": 503}, {"note": 79, "velocity": 93, "duration": 720}, {"note": 81, "velocity": 108, "duration": 240}, {"note": 84, "velocity": 97, "duration": 239}, {"note": 84, "velocity": 100, "duration": 246}, {"note": 81, "velocity": 95, "duration": 249}, {"note": 84, "velocity": 109, "duration": 252}, {"note": 81, "velocity": 101, "duration": 960}, {"note": 88, "velocity": 98, "duration": 480}, {"note": 86, "velocity": 94, "duration": 262}, {"note": 86, "velocity": 93, "duration": 22}, {"note": 0, "velocity": 0, "duration": 338}, {"note": 84, "velocity": 94, "duration": 380}, {"note": 81, "velocity": 81, "duration": 240}, {"note": 86, "velocity": 96, "duration": 763}, {"note": 84, "velocity": 95, "duration": 4142}, {"note": 79, "velocity": 90, "duration": 723}, {"note": 81, "velocity": 99, "duration": 480}, {"note": 84, "velocity": 105, "duration": 1919}, {"note": 84, "velocity": 106, "duration": 479}, {"note": 84, "velocity": 98, "duration": 479}, {"note": 84, "velocity": 97, "duration": 479}, {"note": 84, "velocity": 99, "duration": 480}, {"note": 81, "velocity": 97, "duration": 450}, {"note": 84, "velocity": 100, "duration": 3933}]]