[[{"note": 67, "velocity": 91, "duration": 596}, {"note": 77, "velocity": 98, "duration": 476}, {"note": 77, "velocity": 95, "duration": 236}, {"note": 76, "velocity": 82, "duration": 236}, {"note": 76, "velocity": 86, "duration": 236}, {"note": 74, "velocity": 84, "duration": 236}, {"note": 72, "velocity": 86, "duration": 236}, {"note": 74, "velocity": 81, "duration": 116}, {"note": 76, "velocity": 86, "duration": 356}, {"note": 77, "velocity": 95, "duration": 236}, {"note": 77, "velocity": 91, "duration": 236}, {"note": 76, "velocity": 86, "duration": 236}, {"note": 76, "velocity": 93, "duration": 236}, {"note": 74, "velocity": 90, "duration": 236}, {"note": 72, "velocity": 90, "duration": 236}, {"note": 74, "velocity": 84, "duration": 116}, {"note": 76, "velocity": 83, "duration": 356}, {"note": 79, "velocity": 86, "duration": 236}, {"note": 79, "velocity": 86, "duration": 236}, {"note": 77, "velocity": 84, "duration": 236}, {"note": 76, "velocity": 84, "duration": 236}, {"note": 74, "velocity": 72, "duration": 236}, {"note": 72, "velocity": 84, "duration": 236}, {"note": 74, "velocity": 78, "duration": 236}, {"note": 76, "velocity": 80, "duration": 236}, {"note": 77, "velocity": 84, "duration": 116}, {"note": 77, "velocity": 84, "duration": 116}, {"note": 74, "velocity": 90, "duration": 956}, {"note": 67, "velocity": 84, "duration": 476}, {"note": 77, "velocity": 90, "duration": 476}, {"note": 77, "velocity": 80, "duration": 236}, {"note": 76, "velocity": 79, "duration": 236}, {"note": 76, "velocity": 82, "duration": 236}, {"note": 74, "velocity": 84, "duration": 236}, {"note": 72, "velocity": 83, "duration": 236}, {"note": 74, "velocity": 80, "duration": 116}, {"note": 76, "velocity": 84, "duration": 356}, {"note": 77, "velocity": 93, "duration": 236}, {"note": 77, "velocity": 86, "duration": 236}, {"note": 76, "velocity": 84, "duration": 236}, {"note": 76, "velocity": 90, "duration": 236}, {"note": 74, "velocity": 84, "duration": 236}, {"note": 72, "velocity": 93, "duration": 116}, {"note": 72, "velocity": 80, "duration": 116}, {"note": 74, "velocity": 79, "duration": 116}, {"note": 76, "velocity": 83, "duration": 356}, {"note": 79, "velocity": 84, "duration": 236}, {"note": 79, "velocity": 84, "duration": 236}, {"note": 77, "velocity": 86, "duration": 236}, {"note": 76, "velocity": 86, "duration": 236}, {"note": 74, "velocity": 84, "duration": 236}, {"note": 72, "velocity": 84, "duration": 476}, {"note": 71, "velocity": 86, "duration": 236}, {"note": 74, "velocity": 86, "duration": 476}, {"note": 72, "velocity": 90, "duration": 1676}, {"note": 67, "velocity": 83, "duration": 236}, {"note": 69, "velocity": 82, "duration": 236}, {"note": 72, "velocity": 90, "duration": 236}, {"note": 74, "velocity": 84, "duration": 236}, {"note": 76, "velocity": 84, "duration": 236}, {"note": 74, "velocity": 86, "duration": 236}, {"note": 72, "velocity": 90, "duration": 236}, {"note": 74, "velocity": 84, "duration": 236}, {"note": 76, "velocity": 90, "duration": 236}, {"note": 79, "velocity": 84, "duration": 236}, {"note": 76, "velocity": 79, "duration": 956}, {"note": 76, "velocity": 90, "duration": 236}, {"note": 74, "velocity": 86, "duration": 236}, {"note": 72, "velocity": 84, "duration": 236}, {"note": 69, "velocity": 80, "duration": 236}, {"note": 72, "velocity": 90, "duration": 236}, {"note": 74, "velocity": 80, "duration": 236}, {"note": 72, "velocity": 82, "duration": 236}, {"note": 67, "velocity": 81, "duration": 116}, {"note": 76, "velocity": 84, "duration": 476}, {"note": 76, "velocity": 86, "duration": 116}, {"note": 77, "velocity": 91, "duration": 236}, {"note": 76, "velocity": 82, "duration": 236}, {"note": 74, "velocity": 83, "duration": 236}, {"note": 72, "velocity": 93, "duration": 116}, {"note": 72, "velocity": 86, "duration": 116}, {"note": 74, "velocity": 84, "duration": 236}, {"note": 76, "velocity": 82, "duration": 236}, {"note": 74, "velocity": 83, "duration": 476}, {"note": 67, "velocity": 90, "duration": 287}, {"note": 69, "velocity": 83, "duration": 297}, {"note": 72, "velocity": 90, "duration": 203}, {"note": 74, "velocity": 86, "duration": 224}, {"note": 76, "velocity": 84, "duration": 217}, {"note": 74, "velocity": 81, "duration": 213}, {"note": 72, "velocity": 84, "duration": 216}, {"note": 74, "velocity": 90, "duration": 225}, {"note": 76, "velocity": 84, "duration": 292}, {"note": 79, "velocity": 83, "duration": 212}, {"note": 76, "velocity": 86, "duration": 500}, {"note": 0, "velocity": 0, "duration": 940}, {"note": 74, "velocity": 78, "duration": 1027}, {"note": 72, "velocity": 98, "duration": 508}, {"note": 71, "velocity": 91, "duration": 222}, {"note": 74, "velocity": 95, "duration": 977}, {"note": 72, "velocity": 93, "duration": 351}, {"note": 0, "velocity": 0, "duration": 463}, {"note": 72, "velocity": 90, "duration": 324}, {"note": 76, "velocity": 86, "duration": 207}, {"note": 79, "velocity": 83, "duration": 261}, {"note": 81, "velocity": 91, "duration": 724}, {"note": 79, "velocity": 80, "duration": 253}, {"note": 81, "velocity": 90, "duration": 203}, {"note": 81, "velocity": 43, "duration": 29}, {"note": 79, "velocity": 79, "duration": 236}, {"note": 76, "velocity": 94, "duration": 218}, {"note": 74, "velocity": 83, "duration": 246}, {"note": 76, "velocity": 90, "duration": 249}, {"note": 79, "velocity": 82, "duration": 258}, {"note": 76, "velocity": 83, "duration": 593}, {"note": 0, "velocity": 0, "duration": 127}, {"note": 74, "velocity": 63, "duration": 38}, {"note": 72, "velocity": 78, "duration": 305}, {"note": 76, "velocity": 86, "duration": 202}, {"note": 79, "velocity": 83, "duration": 227}, {"note": 81, "velocity": 90, "duration": 544}, {"note": 0, "velocity": 0, "duration": 176}, {"note": 79, "velocity": 83, "duration": 146}, {"note": 0, "velocity": 0, "duration": 94}, {"note": 81, "velocity": 95, "duration": 156}, {"note": 0, "velocity": 0, "duration": 84}, {"note": 79, "velocity": 83, "duration": 126}, {"note": 0, "velocity": 0, "duration": 114}, {"note": 76, "velocity": 98, "duration": 187}, {"note": 74, "velocity": 82, "duration": 118}, {"note": 76, "velocity": 84, "duration": 1152}, {"note": 0, "velocity": 0, "duration": 168}, {"note": 72, "velocity": 98, "duration": 267}, {"note": 76, "velocity": 86, "duration": 209}, {"note": 79, "velocity": 90, "duration": 228}, {"note": 81, "velocity": 90, "duration": 570}, {"note": 81, "velocity": 95, "duration": 90}, {"note": 0, "velocity": 0, "duration": 390}, {"note": 80, "velocity": 103, "duration": 180}, {"note": 76, "velocity": 90, "duration": 287}, {"note": 83, "velocity": 91, "duration": 188}, {"note": 84, "velocity": 83, "duration": 189}, {"note": 81, "velocity": 84, "duration": 76}, {"note": 83, "velocity": 81, "duration": 173}, {"note": 81, "velocity": 91, "duration": 145}, {"note": 0, "velocity": 0, "duration": 95}, {"note": 76, "velocity": 98, "duration": 195}, {"note": 74, "velocity": 98, "duration": 120}, {"note": 74, "velocity": 98, "duration": 120}, {"note": 0, "velocity": 0, "duration": 120}, {"note": 72, "velocity": 100, "duration": 189}, {"note": 0, "velocity": 0, "duration": 1851}, {"note": 69, "velocity": 84, "duration": 116}, {"note": 69, "velocity": 83, "duration": 116}, {"note": 76, "velocity": 86, "duration": 236}, {"note": 77, "velocity": 93, "duration": 236}, {"note": 79, "velocity": 84, "duration": 236}, {"note": 72, "velocity": 83, "duration": 236}, {"note": 72, "velocity": 86, "duration": 716}, {"note": 69, "velocity": 86, "duration": 116}, {"note": 69, "velocity": 80, "duration": 116}, {"note": 76, "velocity": 86, "duration": 236}, {"note": 77, "velocity": 84, "duration": 236}, {"note": 79, "velocity": 79, "duration": 236}, {"note": 72, "velocity": 82, "duration": 356}, {"note": 74, "velocity": 82, "duration": 236}, {"note": 72, "velocity": 86, "duration": 1076}, {"note": 0, "velocity": 0, "duration": 484}, {"note": 67, "velocity": 91, "duration": 596}, {"note": 77, "velocity": 98, "duration": 476}, {"note": 77, "velocity": 95, "duration": 236}, {"note": 76, "velocity": 82, "duration": 236}, {"note": 76, "velocity": 86, "duration": 236}, {"note": 74, "velocity": 84, "duration": 236}, {"note": 72, "velocity": 86, "duration": 236}, {"note": 74, "velocity": 81, "duration": 116}, {"note": 76, "velocity": 86, "duration": 356}, {"note": 77, "velocity": 95, "duration": 236}, {"note": 77, "velocity": 91, "duration": 236}, {"note": 76, "velocity": 86, "duration": 236}, {"note": 76, "velocity": 93, "duration": 236}, {"note": 74, "velocity": 90, "duration": 236}, {"note": 72, "velocity": 90, "duration": 236}, {"note": 74, "velocity": 84, "duration": 116}, {"note": 76, "velocity": 83, "duration": 356}, {"note": 79, "velocity": 86, "duration": 236}, {"note": 79, "velocity": 86, "duration": 236}, {"note": 77, "velocity": 84, "duration": 236}, {"note": 76, "velocity": 84, "duration": 236}, {"note": 74, "velocity": 72, "duration": 236}, {"note": 72, "velocity": 84, "duration": 236}, {"note": 74, "velocity": 78, "duration": 236}, {"note": 76, "velocity": 80, "duration": 236}, {"note": 77, "velocity": 84, "duration": 116}, {"note": 77, "velocity": 84, "duration": 116}, {"note": 74, "velocity": 90, "duration": 956}, {"note": 67, "velocity": 84, "duration": 476}, {"note": 77, "velocity": 90, "duration": 476}, {"note": 77, "velocity": 80, "duration": 236}, {"note": 76, "velocity": 79, "duration": 236}, {"note": 76, "velocity": 82, "duration": 236}, {"note": 74, "velocity": 84, "duration": 236}, {"note": 72, "velocity": 83, "duration": 236}, {"note": 74, "velocity": 80, "duration": 116}, {"note": 76, "velocity": 84, "duration": 356}, {"note": 77, "velocity": 93, "duration": 236}, {"note": 77, "velocity": 86, "duration": 236}, {"note": 76, "velocity": 84, "duration": 236}, {"note": 76, "velocity": 90, "duration": 236}, {"note": 74, "velocity": 84, "duration": 236}, {"note": 72, "velocity": 93, "duration": 116}, {"note": 72, "velocity": 80, "duration": 116}, {"note": 74, "velocity": 79, "duration": 116}, {"note": 76, "velocity": 83, "duration": 356}, {"note": 79, "velocity": 84, "duration": 236}, {"note": 79, "velocity": 84, "duration": 236}, {"note": 77, "velocity": 86, "duration": 236}, {"note": 76, "velocity": 86, "duration": 236}, {"note": 74, "velocity": 84, "duration": 236}, {"note": 72, "velocity": 84, "duration": 476}, {"note": 71, "velocity": 86, "duration": 236}, {"note": 74, "velocity": 86, "duration": 240}, {"note": 74, "velocity": 86, "duration": 240}, {"note": 0, "velocity": 0, "duration": 240}, {"note": 72, "velocity": 90, "duration": 1676}, {"note": 0, "velocity": 0, "duration": 15124}, {"note": 67, "velocity": 83, "duration": 236}, {"note": 69, "velocity": 82, "duration": 236}, {"note": 72, "velocity": 90, "duration": 236}, {"note": 74, "velocity": 84, "duration": 236}, {"note": 76, "velocity": 84, "duration": 236}, {"note": 74, "velocity": 86, "duration": 236}, {"note": 72, "velocity": 90, "duration": 236}, {"note": 74, "velocity": 84, "duration": 236}, {"note": 76, "velocity": 90, "duration": 236}, {"note": 79, "velocity": 84, "duration": 236}, {"note": 76, "velocity": 79, "duration": 956}, {"note": 76, "velocity": 90, "duration": 236}, {"note": 74, "velocity": 86, "duration": 236}, {"note": 72, "velocity": 84, "duration": 236}, {"note": 69, "velocity": 80, "duration": 236}, {"note": 72, "velocity": 90, "duration": 236}, {"note": 74, "velocity": 80, "duration": 236}, {"note": 72, "velocity": 82, "duration": 236}, {"note": 67, "velocity": 81, "duration": 116}, {"note": 76, "velocity": 84, "duration": 476}, {"note": 76, "velocity": 86, "duration": 116}, {"note": 77, "velocity": 91, "duration": 236}, {"note": 76, "velocity": 82, "duration": 236}, {"note": 74, "velocity": 83, "duration": 236}, {"note": 72, "velocity": 93, "duration": 116}, {"note": 72, "velocity": 86, "duration": 116}, {"note": 74, "velocity": 84, "duration": 236}, {"note": 76, "velocity": 82, "duration": 236}, {"note": 74, "velocity": 83, "duration": 476}, {"note": 67, "velocity": 90, "duration": 287}, {"note": 69, "velocity": 83, "duration": 297}, {"note": 72, "velocity": 90, "duration": 203}, {"note": 74, "velocity": 86, "duration": 224}, {"note": 76, "velocity": 84, "duration": 217}, {"note": 74, "velocity": 81, "duration": 213}, {"note": 72, "velocity": 84, "duration": 216}, {"note": 74, "velocity": 90, "duration": 225}, {"note": 76, "velocity": 84, "duration": 292}, {"note": 79, "velocity": 83, "duration": 212}, {"note": 76, "velocity": 86, "duration": 500}, {"note": 0, "velocity": 0, "duration": 940}, {"note": 74, "velocity": 78, "duration": 1027}, {"note": 72, "velocity": 98, "duration": 508}, {"note": 71, "velocity": 91, "duration": 222}, {"note": 74, "velocity": 95, "duration": 977}, {"note": 72, "velocity": 93, "duration": 351}, {"note": 0, "velocity": 0, "duration": 463}, {"note": 72, "velocity": 90, "duration": 324}, {"note": 76, "velocity": 86, "duration": 207}, {"note": 79, "velocity": 83, "duration": 261}, {"note": 81, "velocity": 91, "duration": 724}, {"note": 79, "velocity": 80, "duration": 253}, {"note": 81, "velocity": 90, "duration": 203}, {"note": 81, "velocity": 43, "duration": 29}, {"note": 79, "velocity": 79, "duration": 236}, {"note": 76, "velocity": 94, "duration": 218}, {"note": 74, "velocity": 83, "duration": 246}, {"note": 76, "velocity": 90, "duration": 249}, {"note": 79, "velocity": 82, "duration": 258}, {"note": 76, "velocity": 83, "duration": 593}, {"note": 0, "velocity": 0, "duration": 127}, {"note": 74, "velocity": 63, "duration": 38}, {"note": 72, "velocity": 78, "duration": 305}, {"note": 76, "velocity": 86, "duration": 202}, {"note": 79, "velocity": 83, "duration": 227}, {"note": 81, "velocity": 90, "duration": 544}, {"note": 0, "velocity": 0, "duration": 176}, {"note": 79, "velocity": 83, "duration": 146}, {"note": 0, "velocity": 0, "duration": 94}, {"note": 81, "velocity": 95, "duration": 156}, {"note": 0, "velocity": 0, "duration": 84}, {"note": 79, "velocity": 83, "duration": 126}, {"note": 0, "velocity": 0, "duration": 114}, {"note": 76, "velocity": 98, "duration": 187}, {"note": 74, "velocity": 82, "duration": 118}, {"note": 76, "velocity": 84, "duration": 1152}, {"note": 0, "velocity": 0, "duration": 168}, {"note": 72, "velocity": 98, "duration": 267}, {"note": 76, "velocity": 86, "duration": 209}, {"note": 79, "velocity": 90, "duration": 228}, {"note": 81, "velocity": 90, "duration": 570}, {"note": 81, "velocity": 95, "duration": 90}, {"note": 0, "velocity": 0, "duration": 390}, {"note": 80, "velocity": 103, "duration": 180}, {"note": 76, "velocity": 90, "duration": 287}, {"note": 83, "velocity": 91, "duration": 188}, {"note": 84, "velocity": 83, "duration": 189}, {"note": 81, "velocity": 84, "duration": 76}, {"note": 83, "velocity": 81, "duration": 173}, {"note": 81, "velocity": 91, "duration": 145}, {"note": 0, "velocity": 0, "duration": 95}, {"note": 76, "velocity": 98, "duration": 195}, {"note": 74, "velocity": 98, "duration": 120}, {"note": 74, "velocity": 98, "duration": 120}, {"note": 0, "velocity": 0, "duration": 120}, {"note": 72, "velocity": 100, "duration": 189}, {"note": 0, "velocity": 0, "duration": 2335}, {"note": 69, "velocity": 84, "duration": 116}, {"note": 69, "velocity": 83, "duration": 116}, {"note": 76, "velocity": 86, "duration": 236}, {"note": 77, "velocity": 93, "duration": 236}, {"note": 79, "velocity": 84, "duration": 236}, {"note": 72, "velocity": 83, "duration": 236}, {"note": 72, "velocity": 86, "duration": 716}, {"note": 69, "velocity": 86, "duration": 116}, {"note": 69, "velocity": 80, "duration": 116}, {"note": 76, "velocity": 86, "duration": 236}, {"note": 77, "velocity": 84, "duration": 236}, {"note": 79, "velocity": 79, "duration": 236}, {"note": 72, "velocity": 82, "duration": 356}, {"note": 74, "velocity": 82, "duration": 236}, {"note": 72, "velocity": 86, "duration": 1076}, {"note": 0, "velocity": 0, "duration": 484}, {"note": 67, "velocity": 91, "duration": 596}, {"note": 77, "velocity": 98, "duration": 476}, {"note": 77, "velocity": 95, "duration": 236}, {"note": 76, "velocity": 82, "duration": 236}, {"note": 76, "velocity": 86, "duration": 236}, {"note": 74, "velocity": 84, "duration": 236}, {"note": 72, "velocity": 86, "duration": 236}, {"note": 74, "velocity": 81, "duration": 116}, {"note": 76, "velocity": 86, "duration": 356}, {"note": 77, "velocity": 95, "duration": 236}, {"note": 77, "velocity": 91, "duration": 236}, {"note": 76, "velocity": 86, "duration": 236}, {"note": 76, "velocity": 93, "duration": 236}, {"note": 74, "velocity": 90, "duration": 236}, {"note": 72, "velocity": 90, "duration": 236}, {"note": 74, "velocity": 84, "duration": 116}, {"note": 76, "velocity": 83, "duration": 356}, {"note": 79, "velocity": 86, "duration": 236}, {"note": 79, "velocity": 86, "duration": 236}, {"note": 77, "velocity": 84, "duration": 236}, {"note": 76, "velocity": 84, "duration": 236}, {"note": 74, "velocity": 72, "duration": 236}, {"note": 72, "velocity": 84, "duration": 236}, {"note": 74, "velocity": 78, "duration": 236}, {"note": 76, "velocity": 80, "duration": 236}, {"note": 77, "velocity": 84, "duration": 116}, {"note": 77, "velocity": 84, "duration": 116}, {"note": 74, "velocity": 90, "duration": 956}, {"note": 67, "velocity": 84, "duration": 476}, {"note": 77, "velocity": 90, "duration": 476}, {"note": 77, "velocity": 80, "duration": 236}, {"note": 76, "velocity": 79, "duration": 236}, {"note": 76, "velocity": 82, "duration": 236}, {"note": 74, "velocity": 84, "duration": 236}, {"note": 72, "velocity": 83, "duration": 236}, {"note": 74, "velocity": 80, "duration": 116}, {"note": 76, "velocity": 84, "duration": 356}, {"note": 77, "velocity": 93, "duration": 236}, {"note": 77, "velocity": 86, "duration": 236}, {"note": 76, "velocity": 84, "duration": 236}, {"note": 76, "velocity": 90, "duration": 236}, {"note": 74, "velocity": 84, "duration": 236}, {"note": 72, "velocity": 93, "duration": 116}, {"note": 72, "velocity": 80, "duration": 116}, {"note": 74, "velocity": 79, "duration": 116}, {"note": 76, "velocity": 83, "duration": 356}, {"note": 79, "velocity": 84, "duration": 236}, {"note": 79, "velocity": 84, "duration": 236}, {"note": 77, "velocity": 86, "duration": 236}, {"note": 76, "velocity": 86, "duration": 236}, {"note": 74, "velocity": 84, "duration": 236}, {"note": 72, "velocity": 84, "duration": 476}, {"note": 71, "velocity": 86, "duration": 236}, {"note": 74, "velocity": 86, "duration": 240}, {"note": 74, "velocity": 86, "duration": 240}, {"note": 74, "velocity": 86, "duration": 94}, {"note": 0, "velocity": 0, "duration": 146}, {"note": 72, "velocity": 90, "duration": 1676}, {"note": 67, "velocity": 91, "duration": 596}, {"note": 77, "velocity": 98, "duration": 476}, {"note": 77, "velocity": 95, "duration": 236}, {"note": 76, "velocity": 82, "duration": 236}, {"note": 76, "velocity": 86, "duration": 236}, {"note": 74, "velocity": 84, "duration": 236}, {"note": 72, "velocity": 86, "duration": 236}, {"note": 74, "velocity": 81, "duration": 116}, {"note": 76, "velocity": 86, "duration": 356}, {"note": 77, "velocity": 95, "duration": 236}, {"note": 77, "velocity": 91, "duration": 236}, {"note": 76, "velocity": 86, "duration": 236}, {"note": 76, "velocity": 93, "duration": 236}, {"note": 74, "velocity": 90, "duration": 236}, {"note": 72, "velocity": 90, "duration": 236}, {"note": 74, "velocity": 84, "duration": 116}, {"note": 76, "velocity": 83, "duration": 356}, {"note": 79, "velocity": 86, "duration": 236}, {"note": 79, "velocity": 86, "duration": 236}, {"note": 77, "velocity": 84, "duration": 236}, {"note": 76, "velocity": 84, "duration": 236}, {"note": 74, "velocity": 72, "duration": 236}, {"note": 72, "velocity": 84, "duration": 236}, {"note": 74, "velocity": 78, "duration": 236}, {"note": 76, "velocity": 80, "duration": 236}, {"note": 77, "velocity": 84, "duration": 116}, {"note": 77, "velocity": 84, "duration": 116}, {"note": 74, "velocity": 90, "duration": 956}, {"note": 67, "velocity": 84, "duration": 476}, {"note": 77, "velocity": 90, "duration": 476}, {"note": 77, "velocity": 80, "duration": 236}, {"note": 76, "velocity": 79, "duration": 236}, {"note": 76, "velocity": 82, "duration": 236}, {"note": 74, "velocity": 84, "duration": 236}, {"note": 72, "velocity": 83, "duration": 236}, {"note": 74, "velocity": 80, "duration": 116}, {"note": 76, "velocity": 84, "duration": 356}, {"note": 77, "velocity": 93, "duration": 236}, {"note": 77, "velocity": 86, "duration": 236}, {"note": 76, "velocity": 84, "duration": 236}, {"note": 76, "velocity": 90, "duration": 236}, {"note": 74, "velocity": 84, "duration": 236}, {"note": 72, "velocity": 93, "duration": 116}, {"note": 72, "velocity": 80, "duration": 116}, {"note": 74, "velocity": 79, "duration": 116}, {"note": 76, "velocity": 83, "duration": 356}, {"note": 79, "velocity": 84, "duration": 236}, {"note": 79, "velocity": 84, "duration": 236}, {"note": 77, "velocity": 86, "duration": 236}, {"note": 76, "velocity": 86, "duration": 236}, {"note": 74, "velocity": 84, "duration": 236}, {"note": 72, "velocity": 84, "duration": 476}, {"note": 71, "velocity": 86, "duration": 236}, {"note": 74, "velocity": 86, "duration": 240}, {"note": 74, "velocity": 86, "duration": 240}, {"note": 74, "velocity": 86, "duration": 94}, {"note": 0, "velocity": 0, "duration": 146}, {"note": 72, "velocity": 90, "duration": 1676}]]