[[{"note": 67, "velocity": 87, "duration": 230}, {"note": 67, "velocity": 76, "duration": 230}, {"note": 67, "velocity": 79, "duration": 238}, {"note": 72, "velocity": 90, "duration": 91}, {"note": 70, "velocity": 87, "duration": 238}, {"note": 70, "velocity": 90, "duration": 262}, {"note": 68, "velocity": 60, "duration": 232}, {"note": 68, "velocity": 64, "duration": 216}, {"note": 68, "velocity": 86, "duration": 933}, {"note": 68, "velocity": 90, "duration": 255}, {"note": 70, "velocity": 96, "duration": 452}, {"note": 65, "velocity": 84, "duration": 219}, {"note": 65, "velocity": 87, "duration": 466}, {"note": 68, "velocity": 95, "duration": 500}, {"note": 67, "velocity": 97, "duration": 2594}, {"note": 63, "velocity": 77, "duration": 119}, {"note": 0, "velocity": 0, "duration": 121}, {"note": 63, "velocity": 68, "duration": 175}, {"note": 0, "velocity": 0, "duration": 65}, {"note": 63, "velocity": 74, "duration": 210}, {"note": 67, "velocity": 82, "duration": 373}, {"note": 0, "velocity": 0, "duration": 107}, {"note": 67, "velocity": 87, "duration": 206}, {"note": 67, "velocity": 89, "duration": 171}, {"note": 0, "velocity": 0, "duration": 69}, {"note": 65, "velocity": 64, "duration": 136}, {"note": 0, "velocity": 0, "duration": 104}, {"note": 65, "velocity": 80, "duration": 133}, {"note": 0, "velocity": 0, "duration": 107}, {"note": 65, "velocity": 83, "duration": 1014}, {"note": 0, "velocity": 0, "duration": 186}, {"note": 65, "velocity": 97, "duration": 404}, {"note": 0, "velocity": 0, "duration": 76}, {"note": 63, "velocity": 84, "duration": 236}, {"note": 65, "velocity": 90, "duration": 484}, {"note": 68, "velocity": 98, "duration": 497}, {"note": 67, "velocity": 98, "duration": 2600}, {"note": 67, "velocity": 85, "duration": 164}, {"note": 0, "velocity": 0, "duration": 76}, {"note": 67, "velocity": 80, "duration": 221}, {"note": 67, "velocity": 74, "duration": 244}, {"note": 72, "velocity": 86, "duration": 476}, {"note": 70, "velocity": 74, "duration": 220}, {"note": 70, "velocity": 87, "duration": 489}, {"note": 68, "velocity": 73, "duration": 185}, {"note": 68, "velocity": 80, "duration": 680}, {"note": 68, "velocity": 96, "duration": 209}, {"note": 68, "velocity": 89, "duration": 249}, {"note": 70, "velocity": 90, "duration": 463}, {"note": 65, "velocity": 65, "duration": 206}, {"note": 65, "velocity": 90, "duration": 476}, {"note": 68, "velocity": 95, "duration": 484}, {"note": 67, "velocity": 100, "duration": 2622}, {"note": 63, "velocity": 66, "duration": 222}, {"note": 63, "velocity": 63, "duration": 210}, {"note": 63, "velocity": 53, "duration": 231}, {"note": 63, "velocity": 56, "duration": 184}, {"note": 63, "velocity": 59, "duration": 235}, {"note": 72, "velocity": 79, "duration": 115}, {"note": 0, "velocity": 0, "duration": 125}, {"note": 72, "velocity": 72, "duration": 236}, {"note": 70, "velocity": 62, "duration": 228}, {"note": 67, "velocity": 58, "duration": 264}, {"note": 70, "velocity": 69, "duration": 895}, {"note": 0, "velocity": 0, "duration": 65}, {"note": 67, "velocity": 96, "duration": 231}, {"note": 75, "velocity": 90, "duration": 457}, {"note": 74, "velocity": 95, "duration": 230}, {"note": 74, "velocity": 95, "duration": 488}, {"note": 75, "velocity": 91, "duration": 472}, {"note": 74, "velocity": 93, "duration": 471}, {"note": 72, "velocity": 92, "duration": 971}, {"note": 0, "velocity": 0, "duration": 229}, {"note": 72, "velocity": 106, "duration": 269}, {"note": 74, "velocity": 93, "duration": 256}, {"note": 75, "velocity": 106, "duration": 419}, {"note": 0, "velocity": 0, "duration": 61}, {"note": 75, "velocity": 109, "duration": 431}, {"note": 75, "velocity": 103, "duration": 462}, {"note": 72, "velocity": 100, "duration": 240}, {"note": 74, "velocity": 90, "duration": 245}, {"note": 75, "velocity": 99, "duration": 456}, {"note": 75, "velocity": 99, "duration": 393}, {"note": 0, "velocity": 0, "duration": 87}, {"note": 75, "velocity": 91, "duration": 146}, {"note": 0, "velocity": 0, "duration": 94}, {"note": 75, "velocity": 93, "duration": 238}, {"note": 77, "velocity": 93, "duration": 262}, {"note": 75, "velocity": 91, "duration": 237}, {"note": 74, "velocity": 97, "duration": 425}, {"note": 74, "velocity": 92, "duration": 446}, {"note": 74, "velocity": 90, "duration": 967}, {"note": 72, "velocity": 103, "duration": 457}, {"note": 70, "velocity": 90, "duration": 241}, {"note": 74, "velocity": 105, "duration": 490}, {"note": 72, "velocity": 92, "duration": 237}, {"note": 70, "velocity": 97, "duration": 229}, {"note": 67, "velocity": 91, "duration": 230}, {"note": 72, "velocity": 103, "duration": 441}, {"note": 70, "velocity": 100, "duration": 280}, {"note": 72, "velocity": 105, "duration": 1163}, {"note": 72, "velocity": 90, "duration": 494}, {"note": 70, "velocity": 84, "duration": 446}, {"note": 67, "velocity": 87, "duration": 449}, {"note": 67, "velocity": 82, "duration": 257}, {"note": 65, "velocity": 63, "duration": 242}, {"note": 63, "velocity": 64, "duration": 257}, {"note": 65, "velocity": 79, "duration": 448}, {"note": 63, "velocity": 63, "duration": 302}, {"note": 65, "velocity": 68, "duration": 464}, {"note": 68, "velocity": 80, "duration": 415}, {"note": 0, "velocity": 0, "duration": 65}, {"note": 68, "velocity": 93, "duration": 502}, {"note": 67, "velocity": 91, "duration": 1116}, {"note": 72, "velocity": 98, "duration": 287}, {"note": 74, "velocity": 93, "duration": 287}, {"note": 0, "velocity": 0, "duration": 73}, {"note": 75, "velocity": 97, "duration": 453}, {"note": 75, "velocity": 99, "duration": 462}, {"note": 75, "velocity": 99, "duration": 447}, {"note": 72, "velocity": 98, "duration": 253}, {"note": 74, "velocity": 87, "duration": 266}, {"note": 75, "velocity": 91, "duration": 404}, {"note": 0, "velocity": 0, "duration": 76}, {"note": 75, "velocity": 101, "duration": 465}, {"note": 75, "velocity": 89, "duration": 162}, {"note": 0, "velocity": 0, "duration": 78}, {"note": 75, "velocity": 90, "duration": 242}, {"note": 77, "velocity": 95, "duration": 252}, {"note": 75, "velocity": 90, "duration": 237}, {"note": 74, "velocity": 97, "duration": 477}, {"note": 74, "velocity": 98, "duration": 477}, {"note": 74, "velocity": 103, "duration": 958}, {"note": 72, "velocity": 103, "duration": 478}, {"note": 70, "velocity": 77, "duration": 242}, {"note": 74, "velocity": 93, "duration": 380}, {"note": 72, "velocity": 95, "duration": 253}, {"note": 70, "velocity": 97, "duration": 526}, {"note": 0, "velocity": 0, "duration": 74}, {"note": 72, "velocity": 95, "duration": 473}, {"note": 70, "velocity": 93, "duration": 261}, {"note": 72, "velocity": 96, "duration": 1198}, {"note": 74, "velocity": 98, "duration": 477}, {"note": 74, "velocity": 94, "duration": 478}, {"note": 75, "velocity": 96, "duration": 497}, {"note": 74, "velocity": 79, "duration": 237}, {"note": 74, "velocity": 91, "duration": 29}, {"note": 75, "velocity": 55, "duration": 118}, {"note": 74, "velocity": 56, "duration": 123}, {"note": 72, "velocity": 67, "duration": 2271}, {"note": 0, "velocity": 0, "duration": 32289}, {"note": 67, "velocity": 87, "duration": 230}, {"note": 67, "velocity": 76, "duration": 230}, {"note": 67, "velocity": 79, "duration": 239}, {"note": 72, "velocity": 90, "duration": 135}, {"note": 70, "velocity": 87, "duration": 238}, {"note": 70, "velocity": 90, "duration": 239}, {"note": 68, "velocity": 60, "duration": 232}, {"note": 68, "velocity": 64, "duration": 217}, {"note": 68, "velocity": 86, "duration": 757}, {"note": 68, "velocity": 86, "duration": 37}, {"note": 0, "velocity": 0, "duration": 203}, {"note": 68, "velocity": 90, "duration": 255}, {"note": 70, "velocity": 96, "duration": 452}, {"note": 65, "velocity": 84, "duration": 219}, {"note": 65, "velocity": 87, "duration": 466}, {"note": 68, "velocity": 95, "duration": 500}, {"note": 67, "velocity": 97, "duration": 2595}, {"note": 63, "velocity": 66, "duration": 222}, {"note": 63, "velocity": 63, "duration": 210}, {"note": 63, "velocity": 53, "duration": 231}, {"note": 63, "velocity": 56, "duration": 183}, {"note": 63, "velocity": 59, "duration": 235}, {"note": 72, "velocity": 79, "duration": 115}, {"note": 0, "velocity": 0, "duration": 125}, {"note": 72, "velocity": 72, "duration": 236}, {"note": 70, "velocity": 62, "duration": 227}, {"note": 67, "velocity": 58, "duration": 264}, {"note": 70, "velocity": 69, "duration": 894}, {"note": 0, "velocity": 0, "duration": 66}, {"note": 67, "velocity": 96, "duration": 231}, {"note": 75, "velocity": 90, "duration": 457}, {"note": 74, "velocity": 95, "duration": 230}, {"note": 74, "velocity": 95, "duration": 488}, {"note": 75, "velocity": 91, "duration": 472}, {"note": 74, "velocity": 93, "duration": 470}, {"note": 72, "velocity": 92, "duration": 971}, {"note": 0, "velocity": 0, "duration": 229}, {"note": 72, "velocity": 106, "duration": 270}, {"note": 74, "velocity": 93, "duration": 255}, {"note": 75, "velocity": 106, "duration": 419}, {"note": 0, "velocity": 0, "duration": 61}, {"note": 75, "velocity": 109, "duration": 431}, {"note": 75, "velocity": 103, "duration": 478}, {"note": 72, "velocity": 100, "duration": 240}, {"note": 74, "velocity": 90, "duration": 245}, {"note": 75, "velocity": 99, "duration": 477}, {"note": 75, "velocity": 99, "duration": 474}, {"note": 75, "velocity": 91, "duration": 240}, {"note": 75, "velocity": 93, "duration": 238}, {"note": 77, "velocity": 93, "duration": 261}, {"note": 75, "velocity": 91, "duration": 238}, {"note": 74, "velocity": 97, "duration": 477}, {"note": 74, "velocity": 92, "duration": 477}, {"note": 74, "velocity": 90, "duration": 967}, {"note": 72, "velocity": 103, "duration": 70}, {"note": 70, "velocity": 90, "duration": 238}, {"note": 74, "velocity": 105, "duration": 418}, {"note": 0, "velocity": 0, "duration": 62}, {"note": 72, "velocity": 92, "duration": 295}, {"note": 70, "velocity": 97, "duration": 238}, {"note": 67, "velocity": 91, "duration": 241}, {"note": 72, "velocity": 103, "duration": 478}, {"note": 70, "velocity": 100, "duration": 238}, {"note": 72, "velocity": 105, "duration": 1197}, {"note": 72, "velocity": 90, "duration": 238}, {"note": 70, "velocity": 84, "duration": 478}, {"note": 67, "velocity": 87, "duration": 477}, {"note": 67, "velocity": 82, "duration": 238}, {"note": 65, "velocity": 63, "duration": 238}, {"note": 63, "velocity": 64, "duration": 238}, {"note": 65, "velocity": 79, "duration": 478}, {"note": 63, "velocity": 63, "duration": 238}, {"note": 65, "velocity": 68, "duration": 478}, {"note": 68, "velocity": 80, "duration": 477}, {"note": 68, "velocity": 93, "duration": 502}, {"note": 67, "velocity": 91, "duration": 1198}, {"note": 72, "velocity": 98, "duration": 240}, {"note": 74, "velocity": 93, "duration": 256}, {"note": 75, "velocity": 97, "duration": 477}, {"note": 75, "velocity": 99, "duration": 477}, {"note": 75, "velocity": 99, "duration": 478}, {"note": 72, "velocity": 98, "duration": 253}, {"note": 74, "velocity": 87, "duration": 266}, {"note": 75, "velocity": 91, "duration": 477}, {"note": 75, "velocity": 101, "duration": 477}, {"note": 75, "velocity": 89, "duration": 237}, {"note": 75, "velocity": 90, "duration": 242}, {"note": 77, "velocity": 95, "duration": 252}, {"note": 75, "velocity": 90, "duration": 238}, {"note": 74, "velocity": 97, "duration": 477}, {"note": 74, "velocity": 98, "duration": 477}, {"note": 74, "velocity": 103, "duration": 958}, {"note": 72, "velocity": 103, "duration": 478}, {"note": 70, "velocity": 77, "duration": 242}, {"note": 74, "velocity": 93, "duration": 380}, {"note": 0, "velocity": 0, "duration": 100}, {"note": 72, "velocity": 95, "duration": 243}, {"note": 70, "velocity": 97, "duration": 520}, {"note": 72, "velocity": 95, "duration": 473}, {"note": 70, "velocity": 93, "duration": 260}, {"note": 72, "velocity": 96, "duration": 1198}, {"note": 74, "velocity": 98, "duration": 442}, {"note": 74, "velocity": 94, "duration": 478}, {"note": 75, "velocity": 96, "duration": 497}, {"note": 74, "velocity": 79, "duration": 202}, {"note": 74, "velocity": 91, "duration": 95}, {"note": 75, "velocity": 55, "duration": 118}, {"note": 74, "velocity": 56, "duration": 123}, {"note": 72, "velocity": 67, "duration": 2270}, {"note": 0, "velocity": 0, "duration": 130}, {"note": 72, "velocity": 109, "duration": 428}, {"note": 74, "velocity": 100, "duration": 508}, {"note": 75, "velocity": 105, "duration": 722}, {"note": 0, "velocity": 0, "duration": 238}, {"note": 67, "velocity": 99, "duration": 238}, {"note": 72, "velocity": 99, "duration": 453}, {"note": 70, "velocity": 106, "duration": 1123}, {"note": 0, "velocity": 0, "duration": 557}, {"note": 70, "velocity": 99, "duration": 260}, {"note": 72, "velocity": 103, "duration": 288}, {"note": 74, "velocity": 106, "duration": 704}, {"note": 0, "velocity": 0, "duration": 256}, {"note": 67, "velocity": 100, "duration": 258}, {"note": 74, "velocity": 94, "duration": 741}, {"note": 72, "velocity": 101, "duration": 1187}, {"note": 0, "velocity": 0, "duration": 253}, {"note": 72, "velocity": 103, "duration": 191}, {"note": 75, "velocity": 79, "duration": 106}, {"note": 0, "velocity": 0, "duration": 134}, {"note": 77, "velocity": 98, "duration": 365}, {"note": 0, "velocity": 0, "duration": 115}, {"note": 77, "velocity": 97, "duration": 109}, {"note": 0, "velocity": 0, "duration": 131}, {"note": 77, "velocity": 98, "duration": 98}, {"note": 0, "velocity": 0, "duration": 142}, {"note": 77, "velocity": 99, "duration": 320}, {"note": 0, "velocity": 0, "duration": 160}, {"note": 75, "velocity": 96, "duration": 96}, {"note": 0, "velocity": 0, "duration": 144}, {"note": 74, "velocity": 101, "duration": 37}, {"note": 0, "velocity": 0, "duration": 158}, {"note": 74, "velocity": 100, "duration": 871}, {"note": 0, "velocity": 0, "duration": 329}, {"note": 72, "velocity": 97, "duration": 133}, {"note": 0, "velocity": 0, "duration": 107}, {"note": 74, "velocity": 94, "duration": 129}, {"note": 0, "velocity": 0, "duration": 111}, {"note": 75, "velocity": 100, "duration": 350}, {"note": 0, "velocity": 0, "duration": 130}, {"note": 75, "velocity": 98, "duration": 506}, {"note": 0, "velocity": 0, "duration": 214}, {"note": 77, "velocity": 98, "duration": 317}, {"note": 0, "velocity": 0, "duration": 163}, {"note": 80, "velocity": 97, "duration": 173}, {"note": 0, "velocity": 0, "duration": 67}, {"note": 79, "velocity": 103, "duration": 1658}, {"note": 0, "velocity": 0, "duration": 262}, {"note": 84, "velocity": 111, "duration": 967}, {"note": 0, "velocity": 0, "duration": 233}, {"note": 87, "velocity": 105, "duration": 294}, {"note": 0, "velocity": 0, "duration": 186}, {"note": 84, "velocity": 91, "duration": 131}, {"note": 0, "velocity": 0, "duration": 109}, {"note": 84, "velocity": 95, "duration": 245}, {"note": 0, "velocity": 0, "duration": 115}, {"note": 84, "velocity": 97, "duration": 221}, {"note": 0, "velocity": 0, "duration": 139}, {"note": 82, "velocity": 100, "duration": 631}, {"note": 0, "velocity": 0, "duration": 89}, {"note": 77, "velocity": 91, "duration": 229}, {"note": 79, "velocity": 94, "duration": 216}, {"note": 0, "velocity": 0, "duration": 144}, {"note": 79, "velocity": 94, "duration": 190}, {"note": 0, "velocity": 0, "duration": 170}, {"note": 79, "velocity": 97, "duration": 127}, {"note": 0, "velocity": 0, "duration": 113}, {"note": 79, "velocity": 99, "duration": 234}, {"note": 0, "velocity": 0, "duration": 126}, {"note": 79, "velocity": 98, "duration": 241}, {"note": 0, "velocity": 0, "duration": 119}, {"note": 77, "velocity": 91, "duration": 138}, {"note": 0, "velocity": 0, "duration": 102}, {"note": 77, "velocity": 100, "duration": 251}, {"note": 0, "velocity": 0, "duration": 109}, {"note": 79, "velocity": 105, "duration": 701}, {"note": 72, "velocity": 109, "duration": 5}, {"note": 79, "velocity": 111, "duration": 661}, {"note": 0, "velocity": 0, "duration": 587}, {"note": 75, "velocity": 106, "duration": 597}, {"note": 77, "velocity": 106, "duration": 256}, {"note": 0, "velocity": 0, "duration": 322}, {"note": 74, "velocity": 114, "duration": 303}, {"note": 0, "velocity": 0, "duration": 177}, {"note": 74, "velocity": 105, "duration": 307}, {"note": 75, "velocity": 56, "duration": 128}, {"note": 74, "velocity": 74, "duration": 129}, {"note": 72, "velocity": 58, "duration": 1566}, {"note": 0, "velocity": 0, "duration": 1194}, {"note": 72, "velocity": 106, "duration": 269}, {"note": 74, "velocity": 93, "duration": 255}, {"note": 75, "velocity": 106, "duration": 419}, {"note": 0, "velocity": 0, "duration": 61}, {"note": 75, "velocity": 109, "duration": 431}, {"note": 75, "velocity": 103, "duration": 462}, {"note": 72, "velocity": 100, "duration": 240}, {"note": 74, "velocity": 90, "duration": 245}, {"note": 75, "velocity": 99, "duration": 455}, {"note": 75, "velocity": 99, "duration": 393}, {"note": 0, "velocity": 0, "duration": 87}, {"note": 75, "velocity": 91, "duration": 146}, {"note": 0, "velocity": 0, "duration": 94}, {"note": 75, "velocity": 93, "duration": 238}, {"note": 77, "velocity": 93, "duration": 261}, {"note": 75, "velocity": 91, "duration": 237}, {"note": 74, "velocity": 97, "duration": 425}, {"note": 74, "velocity": 92, "duration": 446}, {"note": 74, "velocity": 90, "duration": 967}, {"note": 72, "velocity": 103, "duration": 457}, {"note": 70, "velocity": 90, "duration": 121}, {"note": 74, "velocity": 105, "duration": 490}, {"note": 72, "velocity": 92, "duration": 236}, {"note": 70, "velocity": 97, "duration": 291}, {"note": 0, "velocity": 0, "duration": 189}, {"note": 72, "velocity": 103, "duration": 440}, {"note": 70, "velocity": 100, "duration": 279}, {"note": 72, "velocity": 105, "duration": 1163}, {"note": 72, "velocity": 90, "duration": 228}, {"note": 70, "velocity": 84, "duration": 446}, {"note": 67, "velocity": 87, "duration": 448}, {"note": 67, "velocity": 82, "duration": 257}, {"note": 65, "velocity": 63, "duration": 241}, {"note": 63, "velocity": 64, "duration": 257}, {"note": 65, "velocity": 79, "duration": 447}, {"note": 63, "velocity": 63, "duration": 302}, {"note": 65, "velocity": 68, "duration": 464}, {"note": 68, "velocity": 80, "duration": 415}, {"note": 0, "velocity": 0, "duration": 65}, {"note": 68, "velocity": 93, "duration": 502}, {"note": 67, "velocity": 91, "duration": 1116}, {"note": 0, "velocity": 0, "duration": 84}, {"note": 72, "velocity": 98, "duration": 164}, {"note": 0, "velocity": 0, "duration": 76}, {"note": 74, "velocity": 93, "duration": 249}, {"note": 75, "velocity": 97, "duration": 452}, {"note": 75, "velocity": 99, "duration": 462}, {"note": 75, "velocity": 99, "duration": 447}, {"note": 72, "velocity": 98, "duration": 253}, {"note": 74, "velocity": 87, "duration": 266}, {"note": 75, "velocity": 91, "duration": 404}, {"note": 0, "velocity": 0, "duration": 76}, {"note": 75, "velocity": 101, "duration": 465}, {"note": 75, "velocity": 89, "duration": 162}, {"note": 0, "velocity": 0, "duration": 78}, {"note": 75, "velocity": 90, "duration": 242}, {"note": 77, "velocity": 95, "duration": 252}, {"note": 75, "velocity": 90, "duration": 237}, {"note": 74, "velocity": 97, "duration": 477}, {"note": 74, "velocity": 98, "duration": 477}, {"note": 74, "velocity": 103, "duration": 958}, {"note": 72, "velocity": 103, "duration": 478}, {"note": 70, "velocity": 77, "duration": 242}, {"note": 74, "velocity": 93, "duration": 404}, {"note": 0, "velocity": 0, "duration": 76}, {"note": 72, "velocity": 95, "duration": 234}, {"note": 70, "velocity": 97, "duration": 434}, {"note": 72, "velocity": 95, "duration": 473}, {"note": 70, "velocity": 93, "duration": 260}, {"note": 72, "velocity": 96, "duration": 1198}, {"note": 74, "velocity": 98, "duration": 477}, {"note": 74, "velocity": 94, "duration": 478}, {"note": 75, "velocity": 96, "duration": 496}, {"note": 74, "velocity": 79, "duration": 237}, {"note": 74, "velocity": 91, "duration": 497}, {"note": 75, "velocity": 55, "duration": 37}, {"note": 74, "velocity": 56, "duration": 123}, {"note": 72, "velocity": 67, "duration": 2270}, {"note": 0, "velocity": 0, "duration": 605}, {"note": 72, "velocity": 106, "duration": 249}, {"note": 70, "velocity": 93, "duration": 238}, {"note": 72, "velocity": 97, "duration": 356}, {"note": 0, "velocity": 0, "duration": 117}, {"note": 70, "velocity": 87, "duration": 245}, {"note": 72, "velocity": 95, "duration": 1196}, {"note": 74, "velocity": 103, "duration": 354}, {"note": 0, "velocity": 0, "duration": 126}, {"note": 74, "velocity": 96, "duration": 487}, {"note": 75, "velocity": 93, "duration": 382}, {"note": 0, "velocity": 0, "duration": 98}, {"note": 74, "velocity": 94, "duration": 274}, {"note": 74, "velocity": 99, "duration": 34}, {"note": 0, "velocity": 0, "duration": 446}, {"note": 75, "velocity": 91, "duration": 120}, {"note": 74, "velocity": 89, "duration": 119}, {"note": 72, "velocity": 88, "duration": 1311}]]