[[{"note": 71, "velocity": 90, "duration": 116}, {"note": 69, "velocity": 83, "duration": 116}, {"note": 71, "velocity": 90, "duration": 356}, {"note": 69, "velocity": 79, "duration": 116}, {"note": 71, "velocity": 90, "duration": 116}, {"note": 71, "velocity": 90, "duration": 356}, {"note": 69, "velocity": 93, "duration": 236}, {"note": 71, "velocity": 82, "duration": 116}, {"note": 64, "velocity": 80, "duration": 236}, {"note": 67, "velocity": 84, "duration": 2036}, {"note": 71, "velocity": 90, "duration": 116}, {"note": 71, "velocity": 90, "duration": 116}, {"note": 71, "velocity": 98, "duration": 236}, {"note": 71, "velocity": 93, "duration": 116}, {"note": 69, "velocity": 84, "duration": 236}, {"note": 69, "velocity": 75, "duration": 236}, {"note": 69, "velocity": 82, "duration": 116}, {"note": 67, "velocity": 83, "duration": 236}, {"note": 67, "velocity": 84, "duration": 116}, {"note": 64, "velocity": 83, "duration": 116}, {"note": 62, "velocity": 79, "duration": 2276}, {"note": 62, "velocity": 73, "duration": 116}, {"note": 71, "velocity": 84, "duration": 236}, {"note": 67, "velocity": 79, "duration": 116}, {"note": 71, "velocity": 86, "duration": 236}, {"note": 69, "velocity": 83, "duration": 236}, {"note": 67, "velocity": 84, "duration": 116}, {"note": 67, "velocity": 86, "duration": 116}, {"note": 67, "velocity": 86, "duration": 236}, {"note": 67, "velocity": 90, "duration": 116}, {"note": 64, "velocity": 84, "duration": 116}, {"note": 69, "velocity": 90, "duration": 2036}, {"note": 69, "velocity": 83, "duration": 116}, {"note": 69, "velocity": 90, "duration": 116}, {"note": 69, "velocity": 86, "duration": 236}, {"note": 62, "velocity": 78, "duration": 116}, {"note": 69, "velocity": 80, "duration": 236}, {"note": 71, "velocity": 86, "duration": 356}, {"note": 71, "velocity": 90, "duration": 236}, {"note": 69, "velocity": 84, "duration": 236}, {"note": 67, "velocity": 93, "duration": 2156}, {"note": 71, "velocity": 86, "duration": 116}, {"note": 71, "velocity": 86, "duration": 116}, {"note": 71, "velocity": 84, "duration": 236}, {"note": 67, "velocity": 83, "duration": 116}, {"note": 71, "velocity": 83, "duration": 236}, {"note": 69, "velocity": 80, "duration": 236}, {"note": 69, "velocity": 86, "duration": 116}, {"note": 67, "velocity": 90, "duration": 116}, {"note": 67, "velocity": 86, "duration": 236}, {"note": 67, "velocity": 83, "duration": 116}, {"note": 64, "velocity": 98, "duration": 236}, {"note": 67, "velocity": 84, "duration": 2036}, {"note": 62, "velocity": 59, "duration": 116}, {"note": 71, "velocity": 90, "duration": 236}, {"note": 67, "velocity": 82, "duration": 116}, {"note": 71, "velocity": 98, "duration": 236}, {"note": 69, "velocity": 95, "duration": 236}, {"note": 67, "velocity": 72, "duration": 236}, {"note": 67, "velocity": 80, "duration": 236}, {"note": 67, "velocity": 83, "duration": 116}, {"note": 64, "velocity": 81, "duration": 236}, {"note": 62, "velocity": 76, "duration": 2036}, {"note": 62, "velocity": 73, "duration": 116}, {"note": 71, "velocity": 84, "duration": 236}, {"note": 67, "velocity": 79, "duration": 116}, {"note": 71, "velocity": 86, "duration": 236}, {"note": 69, "velocity": 83, "duration": 356}, {"note": 67, "velocity": 86, "duration": 236}, {"note": 67, "velocity": 86, "duration": 116}, {"note": 64, "velocity": 84, "duration": 116}, {"note": 69, "velocity": 90, "duration": 2276}, {"note": 69, "velocity": 90, "duration": 116}, {"note": 69, "velocity": 86, "duration": 236}, {"note": 69, "velocity": 78, "duration": 116}, {"note": 69, "velocity": 80, "duration": 236}, {"note": 62, "velocity": 86, "duration": 356}, {"note": 69, "velocity": 90, "duration": 236}, {"note": 67, "velocity": 84, "duration": 116}, {"note": 67, "velocity": 93, "duration": 476}, {"note": 64, "velocity": 68, "duration": 1796}, {"note": 76, "velocity": 86, "duration": 116}, {"note": 76, "velocity": 86, "duration": 116}, {"note": 76, "velocity": 101, "duration": 236}, {"note": 76, "velocity": 100, "duration": 116}, {"note": 76, "velocity": 100, "duration": 356}, {"note": 74, "velocity": 94, "duration": 236}, {"note": 74, "velocity": 94, "duration": 236}, {"note": 74, "velocity": 94, "duration": 476}, {"note": 64, "velocity": 93, "duration": 1916}, {"note": 76, "velocity": 98, "duration": 116}, {"note": 76, "velocity": 94, "duration": 116}, {"note": 76, "velocity": 98, "duration": 236}, {"note": 76, "velocity": 98, "duration": 116}, {"note": 79, "velocity": 98, "duration": 356}, {"note": 76, "velocity": 95, "duration": 236}, {"note": 74, "velocity": 95, "duration": 236}, {"note": 74, "velocity": 95, "duration": 116}, {"note": 71, "velocity": 98, "duration": 2276}, {"note": 76, "velocity": 86, "duration": 116}, {"note": 74, "velocity": 86, "duration": 116}, {"note": 76, "velocity": 84, "duration": 236}, {"note": 74, "velocity": 84, "duration": 116}, {"note": 76, "velocity": 90, "duration": 356}, {"note": 74, "velocity": 94, "duration": 236}, {"note": 74, "velocity": 95, "duration": 236}, {"note": 67, "velocity": 79, "duration": 116}, {"note": 69, "velocity": 90, "duration": 836}, {"note": 67, "velocity": 86, "duration": 116}, {"note": 64, "velocity": 84, "duration": 1316}, {"note": 69, "velocity": 83, "duration": 116}, {"note": 69, "velocity": 90, "duration": 116}, {"note": 69, "velocity": 91, "duration": 236}, {"note": 69, "velocity": 95, "duration": 116}, {"note": 69, "velocity": 94, "duration": 476}, {"note": 71, "velocity": 95, "duration": 116}, {"note": 71, "velocity": 98, "duration": 236}, {"note": 69, "velocity": 98, "duration": 116}, {"note": 71, "velocity": 83, "duration": 56}, {"note": 69, "velocity": 76, "duration": 56}, {"note": 67, "velocity": 86, "duration": 1920}, {"note": 0, "velocity": 0, "duration": 15600}, {"note": 76, "velocity": 86, "duration": 116}, {"note": 76, "velocity": 86, "duration": 116}, {"note": 76, "velocity": 101, "duration": 236}, {"note": 76, "velocity": 100, "duration": 116}, {"note": 76, "velocity": 100, "duration": 356}, {"note": 74, "velocity": 94, "duration": 236}, {"note": 74, "velocity": 94, "duration": 236}, {"note": 74, "velocity": 94, "duration": 476}, {"note": 64, "velocity": 93, "duration": 1916}, {"note": 76, "velocity": 98, "duration": 116}, {"note": 76, "velocity": 94, "duration": 116}, {"note": 76, "velocity": 98, "duration": 236}, {"note": 76, "velocity": 98, "duration": 116}, {"note": 79, "velocity": 98, "duration": 356}, {"note": 76, "velocity": 95, "duration": 236}, {"note": 74, "velocity": 95, "duration": 236}, {"note": 74, "velocity": 95, "duration": 116}, {"note": 71, "velocity": 98, "duration": 2276}, {"note": 76, "velocity": 86, "duration": 116}, {"note": 74, "velocity": 86, "duration": 116}, {"note": 76, "velocity": 84, "duration": 236}, {"note": 74, "velocity": 84, "duration": 116}, {"note": 76, "velocity": 90, "duration": 356}, {"note": 74, "velocity": 94, "duration": 236}, {"note": 74, "velocity": 95, "duration": 236}, {"note": 67, "velocity": 79, "duration": 116}, {"note": 69, "velocity": 90, "duration": 836}, {"note": 67, "velocity": 86, "duration": 116}, {"note": 64, "velocity": 84, "duration": 1316}, {"note": 69, "velocity": 83, "duration": 116}, {"note": 69, "velocity": 90, "duration": 116}, {"note": 69, "velocity": 91, "duration": 236}, {"note": 69, "velocity": 95, "duration": 116}, {"note": 69, "velocity": 94, "duration": 476}, {"note": 71, "velocity": 95, "duration": 116}, {"note": 71, "velocity": 98, "duration": 236}, {"note": 69, "velocity": 98, "duration": 116}, {"note": 71, "velocity": 83, "duration": 56}, {"note": 69, "velocity": 76, "duration": 56}, {"note": 67, "velocity": 86, "duration": 2156}, {"note": 76, "velocity": 86, "duration": 116}, {"note": 76, "velocity": 86, "duration": 116}, {"note": 76, "velocity": 101, "duration": 236}, {"note": 76, "velocity": 100, "duration": 116}, {"note": 76, "velocity": 100, "duration": 356}, {"note": 74, "velocity": 94, "duration": 236}, {"note": 74, "velocity": 94, "duration": 236}, {"note": 74, "velocity": 94, "duration": 236}, {"note": 64, "velocity": 93, "duration": 2156}, {"note": 76, "velocity": 98, "duration": 116}, {"note": 76, "velocity": 94, "duration": 116}, {"note": 76, "velocity": 98, "duration": 236}, {"note": 76, "velocity": 98, "duration": 116}, {"note": 79, "velocity": 98, "duration": 356}, {"note": 76, "velocity": 95, "duration": 236}, {"note": 74, "velocity": 95, "duration": 236}, {"note": 74, "velocity": 95, "duration": 116}, {"note": 71, "velocity": 98, "duration": 2276}, {"note": 76, "velocity": 86, "duration": 116}, {"note": 76, "velocity": 86, "duration": 116}, {"note": 76, "velocity": 84, "duration": 236}, {"note": 74, "velocity": 84, "duration": 116}, {"note": 76, "velocity": 90, "duration": 356}, {"note": 74, "velocity": 94, "duration": 236}, {"note": 74, "velocity": 95, "duration": 156}, {"note": 74, "velocity": 95, "duration": 196}, {"note": 67, "velocity": 79, "duration": 116}, {"note": 69, "velocity": 90, "duration": 2156}, {"note": 69, "velocity": 83, "duration": 116}, {"note": 69, "velocity": 90, "duration": 116}, {"note": 69, "velocity": 91, "duration": 236}, {"note": 69, "velocity": 95, "duration": 116}, {"note": 69, "velocity": 94, "duration": 116}, {"note": 69, "velocity": 94, "duration": 356}, {"note": 71, "velocity": 95, "duration": 356}, {"note": 69, "velocity": 98, "duration": 116}, {"note": 71, "velocity": 83, "duration": 56}, {"note": 69, "velocity": 76, "duration": 56}, {"note": 67, "velocity": 86, "duration": 1916}]]