[[{"note": 73, "velocity": 109, "duration": 501}, {"note": 75, "velocity": 97, "duration": 215}, {"note": 75, "velocity": 101, "duration": 1172}, {"note": 73, "velocity": 101, "duration": 463}, {"note": 75, "velocity": 101, "duration": 248}, {"note": 78, "velocity": 99, "duration": 471}, {"note": 75, "velocity": 103, "duration": 704}, {"note": 73, "velocity": 109, "duration": 493}, {"note": 75, "velocity": 106, "duration": 232}, {"note": 75, "velocity": 106, "duration": 1145}, {"note": 73, "velocity": 98, "duration": 537}, {"note": 75, "velocity": 105, "duration": 95}, {"note": 80, "velocity": 106, "duration": 490}, {"note": 78, "velocity": 106, "duration": 99}, {"note": 75, "velocity": 108, "duration": 73}, {"note": 73, "velocity": 87, "duration": 160}, {"note": 71, "velocity": 92, "duration": 962}, {"note": 68, "velocity": 98, "duration": 190}, {"note": 71, "velocity": 99, "duration": 481}, {"note": 73, "velocity": 106, "duration": 218}, {"note": 73, "velocity": 108, "duration": 779}, {"note": 68, "velocity": 92, "duration": 221}, {"note": 71, "velocity": 101, "duration": 466}, {"note": 73, "velocity": 108, "duration": 1404}, {"note": 68, "velocity": 93, "duration": 241}, {"note": 71, "velocity": 101, "duration": 477}, {"note": 73, "velocity": 99, "duration": 248}, {"note": 75, "velocity": 105, "duration": 513}, {"note": 73, "velocity": 106, "duration": 677}, {"note": 73, "velocity": 114, "duration": 504}, {"note": 75, "velocity": 109, "duration": 236}, {"note": 75, "velocity": 105, "duration": 1162}, {"note": 73, "velocity": 109, "duration": 488}, {"note": 75, "velocity": 105, "duration": 256}, {"note": 78, "velocity": 91, "duration": 479}, {"note": 75, "velocity": 101, "duration": 720}, {"note": 73, "velocity": 111, "duration": 481}, {"note": 75, "velocity": 108, "duration": 193}, {"note": 75, "velocity": 108, "duration": 942}, {"note": 66, "velocity": 86, "duration": 224}, {"note": 73, "velocity": 91, "duration": 511}, {"note": 75, "velocity": 94, "duration": 239}, {"note": 80, "velocity": 90, "duration": 499}, {"note": 78, "velocity": 97, "duration": 491}, {"note": 75, "velocity": 98, "duration": 487}, {"note": 73, "velocity": 90, "duration": 209}, {"note": 71, "velocity": 82, "duration": 1234}, {"note": 68, "velocity": 92, "duration": 236}, {"note": 71, "velocity": 99, "duration": 505}, {"note": 73, "velocity": 98, "duration": 211}, {"note": 73, "velocity": 97, "duration": 753}, {"note": 68, "velocity": 90, "duration": 241}, {"note": 71, "velocity": 98, "duration": 687}, {"note": 73, "velocity": 91, "duration": 201}, {"note": 73, "velocity": 90, "duration": 527}, {"note": 75, "velocity": 93, "duration": 729}, {"note": 71, "velocity": 100, "duration": 469}, {"note": 73, "velocity": 97, "duration": 252}, {"note": 75, "velocity": 98, "duration": 484}, {"note": 73, "velocity": 91, "duration": 711}, {"note": 71, "velocity": 83, "duration": 13}, {"note": 68, "velocity": 99, "duration": 225}, {"note": 71, "velocity": 96, "duration": 238}, {"note": 68, "velocity": 95, "duration": 252}, {"note": 71, "velocity": 96, "duration": 675}, {"note": 68, "velocity": 91, "duration": 234}, {"note": 71, "velocity": 93, "duration": 734}, {"note": 73, "velocity": 94, "duration": 216}, {"note": 71, "velocity": 93, "duration": 1223}, {"note": 68, "velocity": 91, "duration": 198}, {"note": 71, "velocity": 90, "duration": 234}, {"note": 68, "velocity": 80, "duration": 236}, {"note": 71, "velocity": 91, "duration": 36}, {"note": 68, "velocity": 101, "duration": 59}, {"note": 71, "velocity": 97, "duration": 92}, {"note": 75, "velocity": 106, "duration": 309}, {"note": 71, "velocity": 98, "duration": 456}, {"note": 75, "velocity": 105, "duration": 396}, {"note": 0, "velocity": 0, "duration": 84}, {"note": 75, "velocity": 99, "duration": 433}, {"note": 75, "velocity": 99, "duration": 490}, {"note": 80, "velocity": 109, "duration": 462}, {"note": 78, "velocity": 106, "duration": 468}, {"note": 75, "velocity": 97, "duration": 197}, {"note": 75, "velocity": 93, "duration": 466}, {"note": 73, "velocity": 84, "duration": 2112}, {"note": 66, "velocity": 96, "duration": 487}, {"note": 73, "velocity": 97, "duration": 473}, {"note": 75, "velocity": 96, "duration": 228}, {"note": 75, "velocity": 106, "duration": 744}, {"note": 73, "velocity": 106, "duration": 230}, {"note": 75, "velocity": 98, "duration": 686}, {"note": 78, "velocity": 106, "duration": 254}, {"note": 80, "velocity": 109, "duration": 494}, {"note": 78, "velocity": 111, "duration": 746}, {"note": 71, "velocity": 108, "duration": 208}, {"note": 73, "velocity": 106, "duration": 68}, {"note": 75, "velocity": 101, "duration": 394}, {"note": 80, "velocity": 96, "duration": 517}, {"note": 78, "velocity": 98, "duration": 492}, {"note": 75, "velocity": 105, "duration": 228}, {"note": 78, "velocity": 101, "duration": 298}, {"note": 78, "velocity": 98, "duration": 241}, {"note": 80, "velocity": 99, "duration": 268}, {"note": 83, "velocity": 99, "duration": 913}, {"note": 80, "velocity": 103, "duration": 475}, {"note": 78, "velocity": 99, "duration": 501}, {"note": 75, "velocity": 97, "duration": 497}, {"note": 78, "velocity": 95, "duration": 226}, {"note": 75, "velocity": 98, "duration": 782}, {"note": 71, "velocity": 114, "duration": 237}, {"note": 73, "velocity": 98, "duration": 242}, {"note": 75, "velocity": 106, "duration": 490}, {"note": 71, "velocity": 106, "duration": 419}, {"note": 68, "velocity": 92, "duration": 478}, {"note": 75, "velocity": 101, "duration": 671}, {"note": 73, "velocity": 100, "duration": 923}, {"note": 66, "velocity": 92, "duration": 492}, {"note": 73, "velocity": 98, "duration": 514}, {"note": 75, "velocity": 96, "duration": 228}, {"note": 75, "velocity": 97, "duration": 765}, {"note": 73, "velocity": 99, "duration": 234}, {"note": 75, "velocity": 97, "duration": 710}, {"note": 78, "velocity": 105, "duration": 247}, {"note": 80, "velocity": 95, "duration": 444}, {"note": 78, "velocity": 103, "duration": 28}, {"note": 71, "velocity": 99, "duration": 145}, {"note": 73, "velocity": 95, "duration": 486}, {"note": 75, "velocity": 96, "duration": 488}, {"note": 80, "velocity": 91, "duration": 476}, {"note": 78, "velocity": 99, "duration": 470}, {"note": 75, "velocity": 91, "duration": 241}, {"note": 78, "velocity": 105, "duration": 1643}, {"note": 78, "velocity": 114, "duration": 232}, {"note": 80, "velocity": 100, "duration": 259}, {"note": 83, "velocity": 101, "duration": 945}, {"note": 80, "velocity": 105, "duration": 465}, {"note": 78, "velocity": 106, "duration": 475}, {"note": 75, "velocity": 98, "duration": 525}, {"note": 78, "velocity": 97, "duration": 240}, {"note": 75, "velocity": 105, "duration": 0}, {"note": 71, "velocity": 96, "duration": 251}, {"note": 68, "velocity": 99, "duration": 258}, {"note": 75, "velocity": 101, "duration": 41}, {"note": 73, "velocity": 108, "duration": 628}, {"note": 71, "velocity": 98, "duration": 223}, {"note": 71, "velocity": 103, "duration": 474}, {"note": 68, "velocity": 97, "duration": 484}, {"note": 71, "velocity": 105, "duration": 486}, {"note": 73, "velocity": 105, "duration": 230}, {"note": 63, "velocity": 78, "duration": 116}, {"note": 73, "velocity": 108, "duration": 485}, {"note": 63, "velocity": 82, "duration": 111}, {"note": 63, "velocity": 78, "duration": 102}, {"note": 71, "velocity": 98, "duration": 3598}, {"note": 63, "velocity": 97, "duration": 154}, {"note": 63, "velocity": 95, "duration": 91}, {"note": 63, "velocity": 91, "duration": 108}, {"note": 63, "velocity": 70, "duration": 214}, {"note": 63, "velocity": 93, "duration": 94}, {"note": 63, "velocity": 93, "duration": 180}, {"note": 63, "velocity": 93, "duration": 94}, {"note": 63, "velocity": 93, "duration": 93}, {"note": 63, "velocity": 93, "duration": 89}, {"note": 63, "velocity": 95, "duration": 93}, {"note": 63, "velocity": 99, "duration": 59}, {"note": 63, "velocity": 93, "duration": 180}, {"note": 63, "velocity": 97, "duration": 60}, {"note": 63, "velocity": 75, "duration": 118}, {"note": 0, "velocity": 0, "duration": 122}, {"note": 63, "velocity": 75, "duration": 110}, {"note": 0, "velocity": 0, "duration": 130}, {"note": 63, "velocity": 82, "duration": 115}, {"note": 0, "velocity": 0, "duration": 365}, {"note": 63, "velocity": 97, "duration": 104}, {"note": 0, "velocity": 0, "duration": 136}, {"note": 63, "velocity": 101, "duration": 104}, {"note": 0, "velocity": 0, "duration": 136}, {"note": 63, "velocity": 95, "duration": 101}, {"note": 0, "velocity": 0, "duration": 139}, {"note": 63, "velocity": 95, "duration": 101}, {"note": 0, "velocity": 0, "duration": 379}, {"note": 63, "velocity": 95, "duration": 101}, {"note": 0, "velocity": 0, "duration": 139}, {"note": 63, "velocity": 95, "duration": 101}, {"note": 0, "velocity": 0, "duration": 139}, {"note": 63, "velocity": 95, "duration": 101}, {"note": 0, "velocity": 0, "duration": 139}, {"note": 63, "velocity": 95, "duration": 101}, {"note": 0, "velocity": 0, "duration": 139}, {"note": 63, "velocity": 95, "duration": 101}, {"note": 0, "velocity": 0, "duration": 139}, {"note": 64, "velocity": 95, "duration": 101}, {"note": 0, "velocity": 0, "duration": 139}, {"note": 61, "velocity": 95, "duration": 101}, {"note": 0, "velocity": 0, "duration": 139}, {"note": 63, "velocity": 95, "duration": 101}, {"note": 0, "velocity": 0, "duration": 139}, {"note": 63, "velocity": 95, "duration": 101}, {"note": 0, "velocity": 0, "duration": 139}, {"note": 63, "velocity": 95, "duration": 101}, {"note": 0, "velocity": 0, "duration": 379}, {"note": 63, "velocity": 95, "duration": 101}, {"note": 0, "velocity": 0, "duration": 139}, {"note": 63, "velocity": 95, "duration": 101}, {"note": 63, "velocity": 95, "duration": 101}, {"note": 63, "velocity": 95, "duration": 101}, {"note": 0, "velocity": 0, "duration": 139}, {"note": 63, "velocity": 95, "duration": 100}, {"note": 0, "velocity": 0, "duration": 380}, {"note": 63, "velocity": 95, "duration": 100}, {"note": 0, "velocity": 0, "duration": 140}, {"note": 63, "velocity": 95, "duration": 100}, {"note": 0, "velocity": 0, "duration": 140}, {"note": 63, "velocity": 95, "duration": 100}, {"note": 0, "velocity": 0, "duration": 140}, {"note": 63, "velocity": 95, "duration": 100}, {"note": 61, "velocity": 95, "duration": 100}, {"note": 61, "velocity": 95, "duration": 100}, {"note": 59, "velocity": 95, "duration": 100}, {"note": 0, "velocity": 0, "duration": 500}, {"note": 63, "velocity": 95, "duration": 120}, {"note": 0, "velocity": 0, "duration": 120}, {"note": 63, "velocity": 95, "duration": 120}, {"note": 0, "velocity": 0, "duration": 120}, {"note": 63, "velocity": 95, "duration": 120}, {"note": 0, "velocity": 0, "duration": 360}, {"note": 63, "velocity": 95, "duration": 120}, {"note": 0, "velocity": 0, "duration": 120}, {"note": 63, "velocity": 95, "duration": 120}, {"note": 0, "velocity": 0, "duration": 120}, {"note": 63, "velocity": 95, "duration": 120}, {"note": 0, "velocity": 0, "duration": 120}, {"note": 63, "velocity": 95, "duration": 120}, {"note": 0, "velocity": 0, "duration": 120}, {"note": 63, "velocity": 95, "duration": 120}, {"note": 0, "velocity": 0, "duration": 1320}, {"note": 66, "velocity": 100, "duration": 477}, {"note": 73, "velocity": 109, "duration": 501}, {"note": 75, "velocity": 97, "duration": 216}, {"note": 75, "velocity": 101, "duration": 1173}, {"note": 73, "velocity": 101, "duration": 463}, {"note": 75, "velocity": 101, "duration": 248}, {"note": 78, "velocity": 99, "duration": 471}, {"note": 75, "velocity": 103, "duration": 704}, {"note": 73, "velocity": 109, "duration": 493}, {"note": 75, "velocity": 106, "duration": 232}, {"note": 75, "velocity": 106, "duration": 1145}, {"note": 73, "velocity": 98, "duration": 537}, {"note": 75, "velocity": 105, "duration": 92}, {"note": 80, "velocity": 106, "duration": 487}, {"note": 78, "velocity": 106, "duration": 90}, {"note": 75, "velocity": 108, "duration": 68}, {"note": 73, "velocity": 87, "duration": 158}, {"note": 71, "velocity": 92, "duration": 960}, {"note": 68, "velocity": 98, "duration": 191}, {"note": 71, "velocity": 99, "duration": 481}, {"note": 73, "velocity": 106, "duration": 219}, {"note": 73, "velocity": 108, "duration": 780}, {"note": 68, "velocity": 92, "duration": 222}, {"note": 71, "velocity": 101, "duration": 466}, {"note": 73, "velocity": 108, "duration": 1405}, {"note": 68, "velocity": 93, "duration": 242}, {"note": 71, "velocity": 101, "duration": 477}, {"note": 73, "velocity": 99, "duration": 249}, {"note": 75, "velocity": 105, "duration": 513}, {"note": 73, "velocity": 106, "duration": 677}, {"note": 73, "velocity": 114, "duration": 505}, {"note": 75, "velocity": 109, "duration": 236}, {"note": 75, "velocity": 105, "duration": 1163}, {"note": 73, "velocity": 109, "duration": 488}, {"note": 75, "velocity": 105, "duration": 256}, {"note": 78, "velocity": 91, "duration": 479}, {"note": 75, "velocity": 101, "duration": 720}, {"note": 73, "velocity": 111, "duration": 481}, {"note": 75, "velocity": 108, "duration": 193}, {"note": 75, "velocity": 108, "duration": 943}, {"note": 66, "velocity": 86, "duration": 224}, {"note": 73, "velocity": 91, "duration": 511}, {"note": 75, "velocity": 94, "duration": 240}, {"note": 80, "velocity": 90, "duration": 500}, {"note": 78, "velocity": 97, "duration": 492}, {"note": 75, "velocity": 98, "duration": 487}, {"note": 73, "velocity": 90, "duration": 210}, {"note": 71, "velocity": 82, "duration": 1235}, {"note": 68, "velocity": 92, "duration": 236}, {"note": 71, "velocity": 99, "duration": 506}, {"note": 73, "velocity": 98, "duration": 212}, {"note": 73, "velocity": 97, "duration": 753}, {"note": 68, "velocity": 90, "duration": 242}, {"note": 71, "velocity": 98, "duration": 688}, {"note": 73, "velocity": 91, "duration": 201}, {"note": 73, "velocity": 90, "duration": 527}, {"note": 75, "velocity": 93, "duration": 729}, {"note": 71, "velocity": 100, "duration": 470}, {"note": 73, "velocity": 97, "duration": 253}, {"note": 75, "velocity": 98, "duration": 485}, {"note": 73, "velocity": 91, "duration": 712}, {"note": 71, "velocity": 83, "duration": 10}, {"note": 68, "velocity": 99, "duration": 225}, {"note": 71, "velocity": 96, "duration": 239}, {"note": 68, "velocity": 95, "duration": 253}, {"note": 71, "velocity": 96, "duration": 674}, {"note": 68, "velocity": 91, "duration": 234}, {"note": 71, "velocity": 93, "duration": 734}, {"note": 73, "velocity": 94, "duration": 216}, {"note": 71, "velocity": 93, "duration": 1224}, {"note": 68, "velocity": 91, "duration": 198}, {"note": 71, "velocity": 90, "duration": 235}, {"note": 68, "velocity": 80, "duration": 236}, {"note": 71, "velocity": 91, "duration": 5}, {"note": 68, "velocity": 101, "duration": 29}, {"note": 71, "velocity": 97, "duration": 7}, {"note": 75, "velocity": 106, "duration": 262}, {"note": 71, "velocity": 98, "duration": 454}, {"note": 75, "velocity": 105, "duration": 397}, {"note": 0, "velocity": 0, "duration": 83}, {"note": 75, "velocity": 99, "duration": 434}, {"note": 75, "velocity": 99, "duration": 490}, {"note": 80, "velocity": 109, "duration": 238}, {"note": 78, "velocity": 106, "duration": 716}, {"note": 75, "velocity": 97, "duration": 197}, {"note": 75, "velocity": 93, "duration": 467}, {"note": 73, "velocity": 84, "duration": 2112}, {"note": 66, "velocity": 96, "duration": 487}, {"note": 73, "velocity": 97, "duration": 473}, {"note": 75, "velocity": 96, "duration": 229}, {"note": 75, "velocity": 106, "duration": 744}, {"note": 73, "velocity": 106, "duration": 230}, {"note": 75, "velocity": 98, "duration": 687}, {"note": 78, "velocity": 106, "duration": 255}, {"note": 80, "velocity": 109, "duration": 494}, {"note": 78, "velocity": 111, "duration": 747}, {"note": 71, "velocity": 108, "duration": 207}, {"note": 73, "velocity": 106, "duration": 66}, {"note": 75, "velocity": 101, "duration": 392}, {"note": 80, "velocity": 96, "duration": 518}, {"note": 78, "velocity": 98, "duration": 492}, {"note": 75, "velocity": 105, "duration": 229}, {"note": 78, "velocity": 101, "duration": 345}, {"note": 78, "velocity": 98, "duration": 241}, {"note": 80, "velocity": 99, "duration": 269}, {"note": 83, "velocity": 99, "duration": 721}, {"note": 80, "velocity": 99, "duration": 239}, {"note": 80, "velocity": 103, "duration": 475}, {"note": 78, "velocity": 99, "duration": 501}, {"note": 75, "velocity": 97, "duration": 498}, {"note": 78, "velocity": 95, "duration": 227}, {"note": 75, "velocity": 98, "duration": 782}, {"note": 71, "velocity": 114, "duration": 237}, {"note": 73, "velocity": 98, "duration": 242}, {"note": 75, "velocity": 106, "duration": 491}, {"note": 71, "velocity": 106, "duration": 419}, {"note": 68, "velocity": 92, "duration": 478}, {"note": 75, "velocity": 101, "duration": 671}, {"note": 73, "velocity": 100, "duration": 470}, {"note": 66, "velocity": 92, "duration": 492}, {"note": 73, "velocity": 98, "duration": 514}, {"note": 75, "velocity": 96, "duration": 237}, {"note": 75, "velocity": 97, "duration": 734}, {"note": 73, "velocity": 99, "duration": 238}, {"note": 75, "velocity": 97, "duration": 720}, {"note": 78, "velocity": 105, "duration": 247}, {"note": 80, "velocity": 95, "duration": 470}, {"note": 78, "velocity": 103, "duration": 27}, {"note": 71, "velocity": 99, "duration": 143}, {"note": 73, "velocity": 95, "duration": 486}, {"note": 75, "velocity": 96, "duration": 489}, {"note": 80, "velocity": 91, "duration": 477}, {"note": 78, "velocity": 99, "duration": 470}, {"note": 75, "velocity": 91, "duration": 242}, {"note": 78, "velocity": 105, "duration": 1643}, {"note": 78, "velocity": 114, "duration": 233}, {"note": 80, "velocity": 100, "duration": 260}, {"note": 83, "velocity": 101, "duration": 945}, {"note": 80, "velocity": 105, "duration": 465}, {"note": 78, "velocity": 106, "duration": 476}, {"note": 75, "velocity": 98, "duration": 526}, {"note": 78, "velocity": 97, "duration": 240}, {"note": 75, "velocity": 105, "duration": 6}, {"note": 71, "velocity": 96, "duration": 251}, {"note": 68, "velocity": 99, "duration": 256}, {"note": 75, "velocity": 101, "duration": 39}, {"note": 73, "velocity": 108, "duration": 626}, {"note": 71, "velocity": 98, "duration": 224}, {"note": 71, "velocity": 103, "duration": 474}, {"note": 68, "velocity": 97, "duration": 484}, {"note": 71, "velocity": 105, "duration": 487}, {"note": 73, "velocity": 105, "duration": 230}, {"note": 73, "velocity": 108, "duration": 486}, {"note": 71, "velocity": 99, "duration": 328}, {"note": 71, "velocity": 98, "duration": 103}, {"note": 0, "velocity": 0, "duration": 137}, {"note": 66, "velocity": 103, "duration": 279}, {"note": 0, "velocity": 0, "duration": 201}, {"note": 71, "velocity": 97, "duration": 103}, {"note": 0, "velocity": 0, "duration": 137}, {"note": 71, "velocity": 97, "duration": 81}, {"note": 71, "velocity": 72, "duration": 77}, {"note": 71, "velocity": 97, "duration": 115}, {"note": 66, "velocity": 97, "duration": 115}, {"note": 0, "velocity": 0, "duration": 546}, {"note": 71, "velocity": 101, "duration": 92}, {"note": 0, "velocity": 0, "duration": 120}, {"note": 71, "velocity": 99, "duration": 92}, {"note": 0, "velocity": 0, "duration": 115}, {"note": 71, "velocity": 101, "duration": 94}, {"note": 0, "velocity": 0, "duration": 146}, {"note": 71, "velocity": 101, "duration": 117}, {"note": 0, "velocity": 0, "duration": 123}, {"note": 75, "velocity": 82, "duration": 133}, {"note": 0, "velocity": 0, "duration": 107}, {"note": 73, "velocity": 109, "duration": 167}, {"note": 0, "velocity": 0, "duration": 73}, {"note": 71, "velocity": 103, "duration": 140}, {"note": 0, "velocity": 0, "duration": 340}, {"note": 71, "velocity": 103, "duration": 54}, {"note": 0, "velocity": 0, "duration": 66}, {"note": 71, "velocity": 93, "duration": 89}, {"note": 66, "velocity": 113, "duration": 197}, {"note": 0, "velocity": 0, "duration": 283}, {"note": 71, "velocity": 95, "duration": 100}, {"note": 0, "velocity": 0, "duration": 140}, {"note": 71, "velocity": 103, "duration": 99}, {"note": 0, "velocity": 0, "duration": 141}, {"note": 71, "velocity": 101, "duration": 104}, {"note": 0, "velocity": 0, "duration": 136}, {"note": 66, "velocity": 106, "duration": 113}, {"note": 0, "velocity": 0, "duration": 367}, {"note": 66, "velocity": 103, "duration": 88}, {"note": 0, "velocity": 0, "duration": 152}, {"note": 66, "velocity": 95, "duration": 97}, {"note": 0, "velocity": 0, "duration": 143}, {"note": 66, "velocity": 101, "duration": 91}, {"note": 0, "velocity": 0, "duration": 149}, {"note": 66, "velocity": 99, "duration": 91}, {"note": 0, "velocity": 0, "duration": 149}, {"note": 66, "velocity": 97, "duration": 101}, {"note": 0, "velocity": 0, "duration": 139}, {"note": 73, "velocity": 106, "duration": 143}, {"note": 0, "velocity": 0, "duration": 97}, {"note": 71, "velocity": 106, "duration": 256}, {"note": 66, "velocity": 106, "duration": 84}, {"note": 0, "velocity": 0, "duration": 156}, {"note": 66, "velocity": 103, "duration": 64}, {"note": 66, "velocity": 93, "duration": 71}, {"note": 71, "velocity": 103, "duration": 248}, {"note": 0, "velocity": 0, "duration": 232}, {"note": 66, "velocity": 106, "duration": 85}, {"note": 0, "velocity": 0, "duration": 155}, {"note": 66, "velocity": 106, "duration": 79}, {"note": 66, "velocity": 55, "duration": 61}, {"note": 66, "velocity": 109, "duration": 138}, {"note": 0, "velocity": 0, "duration": 102}, {"note": 71, "velocity": 101, "duration": 198}, {"note": 0, "velocity": 0, "duration": 282}, {"note": 76, "velocity": 62, "duration": 35}, {"note": 66, "velocity": 103, "duration": 95}, {"note": 0, "velocity": 0, "duration": 145}, {"note": 66, "velocity": 95, "duration": 93}, {"note": 0, "velocity": 0, "duration": 147}, {"note": 66, "velocity": 93, "duration": 102}, {"note": 0, "velocity": 0, "duration": 138}, {"note": 66, "velocity": 95, "duration": 104}, {"note": 0, "velocity": 0, "duration": 136}, {"note": 66, "velocity": 95, "duration": 115}, {"note": 0, "velocity": 0, "duration": 125}, {"note": 73, "velocity": 106, "duration": 134}, {"note": 0, "velocity": 0, "duration": 106}, {"note": 71, "velocity": 101, "duration": 306}, {"note": 0, "velocity": 0, "duration": 174}, {"note": 66, "velocity": 103, "duration": 68}, {"note": 66, "velocity": 78, "duration": 84}, {"note": 71, "velocity": 99, "duration": 333}, {"note": 0, "velocity": 0, "duration": 147}, {"note": 66, "velocity": 101, "duration": 82}, {"note": 0, "velocity": 0, "duration": 158}, {"note": 66, "velocity": 103, "duration": 92}, {"note": 0, "velocity": 0, "duration": 148}, {"note": 66, "velocity": 99, "duration": 102}, {"note": 0, "velocity": 0, "duration": 138}, {"note": 73, "velocity": 103, "duration": 454}, {"note": 0, "velocity": 0, "duration": 266}, {"note": 66, "velocity": 96, "duration": 486}, {"note": 73, "velocity": 97, "duration": 472}, {"note": 75, "velocity": 96, "duration": 228}, {"note": 75, "velocity": 106, "duration": 743}, {"note": 73, "velocity": 106, "duration": 229}, {"note": 75, "velocity": 98, "duration": 686}, {"note": 78, "velocity": 106, "duration": 254}, {"note": 80, "velocity": 109, "duration": 493}, {"note": 78, "velocity": 111, "duration": 746}, {"note": 71, "velocity": 108, "duration": 223}, {"note": 73, "velocity": 106, "duration": 65}, {"note": 75, "velocity": 101, "duration": 392}, {"note": 80, "velocity": 96, "duration": 478}, {"note": 78, "velocity": 98, "duration": 491}, {"note": 75, "velocity": 105, "duration": 228}, {"note": 78, "velocity": 101, "duration": 362}, {"note": 78, "velocity": 98, "duration": 240}, {"note": 80, "velocity": 99, "duration": 268}, {"note": 83, "velocity": 99, "duration": 720}, {"note": 80, "velocity": 99, "duration": 240}, {"note": 80, "velocity": 103, "duration": 475}, {"note": 78, "velocity": 99, "duration": 501}, {"note": 75, "velocity": 97, "duration": 497}, {"note": 78, "velocity": 95, "duration": 226}, {"note": 75, "velocity": 98, "duration": 782}, {"note": 71, "velocity": 114, "duration": 237}, {"note": 73, "velocity": 98, "duration": 241}, {"note": 75, "velocity": 106, "duration": 490}, {"note": 71, "velocity": 106, "duration": 418}, {"note": 68, "velocity": 92, "duration": 478}, {"note": 75, "velocity": 101, "duration": 670}, {"note": 73, "velocity": 100, "duration": 470}, {"note": 66, "velocity": 92, "duration": 492}, {"note": 73, "velocity": 98, "duration": 514}, {"note": 75, "velocity": 96, "duration": 237}, {"note": 75, "velocity": 97, "duration": 734}, {"note": 73, "velocity": 99, "duration": 238}, {"note": 75, "velocity": 97, "duration": 721}, {"note": 78, "velocity": 105, "duration": 246}, {"note": 80, "velocity": 95, "duration": 469}, {"note": 78, "velocity": 103, "duration": 43}, {"note": 71, "velocity": 99, "duration": 160}, {"note": 73, "velocity": 95, "duration": 486}, {"note": 75, "velocity": 96, "duration": 488}, {"note": 80, "velocity": 91, "duration": 476}, {"note": 78, "velocity": 99, "duration": 470}, {"note": 75, "velocity": 91, "duration": 241}, {"note": 80, "velocity": 105, "duration": 480}, {"note": 78, "velocity": 105, "duration": 1151}, {"note": 85, "velocity": 106, "duration": 478}, {"note": 87, "velocity": 103, "duration": 513}, {"note": 85, "velocity": 105, "duration": 492}, {"note": 83, "velocity": 105, "duration": 866}, {"note": 80, "velocity": 106, "duration": 478}, {"note": 78, "velocity": 95, "duration": 259}, {"note": 75, "velocity": 98, "duration": 503}, {"note": 78, "velocity": 97, "duration": 245}, {"note": 75, "velocity": 109, "duration": 958}, {"note": 71, "velocity": 109, "duration": 238}, {"note": 68, "velocity": 97, "duration": 478}, {"note": 75, "velocity": 99, "duration": 278}, {"note": 73, "velocity": 103, "duration": 958}, {"note": 71, "velocity": 119, "duration": 237}, {"note": 71, "velocity": 108, "duration": 478}, {"note": 68, "velocity": 93, "duration": 478}, {"note": 71, "velocity": 106, "duration": 527}, {"note": 73, "velocity": 100, "duration": 237}, {"note": 73, "velocity": 100, "duration": 1203}, {"note": 75, "velocity": 103, "duration": 243}, {"note": 73, "velocity": 100, "duration": 243}, {"note": 75, "velocity": 97, "duration": 302}, {"note": 0, "velocity": 0, "duration": 178}, {"note": 75, "velocity": 97, "duration": 255}, {"note": 73, "velocity": 95, "duration": 276}, {"note": 75, "velocity": 91, "duration": 372}, {"note": 0, "velocity": 0, "duration": 108}, {"note": 75, "velocity": 95, "duration": 259}, {"note": 73, "velocity": 92, "duration": 285}, {"note": 75, "velocity": 95, "duration": 221}, {"note": 78, "velocity": 89, "duration": 239}, {"note": 75, "velocity": 103, "duration": 311}, {"note": 0, "velocity": 0, "duration": 529}, {"note": 75, "velocity": 103, "duration": 274}, {"note": 73, "velocity": 94, "duration": 358}, {"note": 75, "velocity": 101, "duration": 477}, {"note": 75, "velocity": 97, "duration": 257}, {"note": 73, "velocity": 97, "duration": 293}, {"note": 75, "velocity": 98, "duration": 478}, {"note": 71, "velocity": 97, "duration": 252}, {"note": 73, "velocity": 93, "duration": 252}, {"note": 75, "velocity": 100, "duration": 485}, {"note": 71, "velocity": 97, "duration": 957}, {"note": 71, "velocity": 109, "duration": 243}, {"note": 73, "velocity": 106, "duration": 238}, {"note": 75, "velocity": 105, "duration": 496}, {"note": 68, "velocity": 114, "duration": 478}, {"note": 66, "velocity": 101, "duration": 718}, {"note": 68, "velocity": 98, "duration": 238}, {"note": 71, "velocity": 100, "duration": 478}, {"note": 73, "velocity": 100, "duration": 478}, {"note": 75, "velocity": 99, "duration": 477}, {"note": 75, "velocity": 99, "duration": 238}, {"note": 73, "velocity": 97, "duration": 238}, {"note": 75, "velocity": 105, "duration": 238}, {"note": 78, "velocity": 101, "duration": 238}, {"note": 71, "velocity": 99, "duration": 265}, {"note": 73, "velocity": 105, "duration": 268}, {"note": 75, "velocity": 108, "duration": 477}, {"note": 75, "velocity": 106, "duration": 238}, {"note": 73, "velocity": 99, "duration": 238}, {"note": 75, "velocity": 97, "duration": 478}, {"note": 71, "velocity": 100, "duration": 958}, {"note": 75, "velocity": 105, "duration": 238}, {"note": 73, "velocity": 99, "duration": 238}, {"note": 75, "velocity": 97, "duration": 477}, {"note": 75, "velocity": 105, "duration": 249}, {"note": 73, "velocity": 100, "duration": 297}, {"note": 75, "velocity": 100, "duration": 477}, {"note": 75, "velocity": 108, "duration": 238}, {"note": 73, "velocity": 101, "duration": 265}, {"note": 75, "velocity": 103, "duration": 238}, {"note": 78, "velocity": 91, "duration": 238}, {"note": 75, "velocity": 111, "duration": 957}, {"note": 75, "velocity": 106, "duration": 243}, {"note": 73, "velocity": 97, "duration": 238}, {"note": 75, "velocity": 97, "duration": 179}, {"note": 75, "velocity": 97, "duration": 269}, {"note": 73, "velocity": 94, "duration": 288}, {"note": 75, "velocity": 97, "duration": 478}, {"note": 71, "velocity": 97, "duration": 262}, {"note": 73, "velocity": 97, "duration": 265}, {"note": 75, "velocity": 100, "duration": 506}, {"note": 71, "velocity": 101, "duration": 957}, {"note": 71, "velocity": 122, "duration": 256}, {"note": 73, "velocity": 101, "duration": 238}, {"note": 75, "velocity": 106, "duration": 125}, {"note": 68, "velocity": 100, "duration": 489}, {"note": 66, "velocity": 99, "duration": 718}, {"note": 68, "velocity": 106, "duration": 238}, {"note": 71, "velocity": 106, "duration": 497}, {"note": 73, "velocity": 97, "duration": 478}, {"note": 75, "velocity": 109, "duration": 477}, {"note": 75, "velocity": 105, "duration": 238}, {"note": 73, "velocity": 93, "duration": 238}, {"note": 75, "velocity": 98, "duration": 238}, {"note": 78, "velocity": 90, "duration": 238}, {"note": 71, "velocity": 93, "duration": 288}, {"note": 73, "velocity": 105, "duration": 238}, {"note": 75, "velocity": 109, "duration": 470}, {"note": 75, "velocity": 103, "duration": 238}, {"note": 73, "velocity": 100, "duration": 282}, {"note": 75, "velocity": 105, "duration": 478}, {"note": 71, "velocity": 101, "duration": 604}]]