[[{"note": 75, "velocity": 95, "duration": 236}, {"note": 83, "velocity": 95, "duration": 836}, {"note": 75, "velocity": 86, "duration": 236}, {"note": 82, "velocity": 94, "duration": 716}, {"note": 78, "velocity": 84, "duration": 236}, {"note": 80, "velocity": 91, "duration": 236}, {"note": 78, "velocity": 93, "duration": 236}, {"note": 76, "velocity": 91, "duration": 236}, {"note": 78, "velocity": 95, "duration": 1196}, {"note": 76, "velocity": 95, "duration": 236}, {"note": 75, "velocity": 95, "duration": 236}, {"note": 76, "velocity": 90, "duration": 236}, {"note": 80, "velocity": 98, "duration": 956}, {"note": 78, "velocity": 86, "duration": 236}, {"note": 75, "velocity": 95, "duration": 1556}, {"note": 75, "velocity": 91, "duration": 356}, {"note": 83, "velocity": 95, "duration": 716}, {"note": 75, "velocity": 95, "duration": 236}, {"note": 82, "velocity": 98, "duration": 716}, {"note": 78, "velocity": 90, "duration": 236}, {"note": 80, "velocity": 91, "duration": 236}, {"note": 78, "velocity": 90, "duration": 236}, {"note": 76, "velocity": 98, "duration": 116}, {"note": 78, "velocity": 75, "duration": 116}, {"note": 78, "velocity": 93, "duration": 1196}, {"note": 80, "velocity": 84, "duration": 236}, {"note": 80, "velocity": 95, "duration": 236}, {"note": 80, "velocity": 98, "duration": 236}, {"note": 79, "velocity": 101, "duration": 716}, {"note": 80, "velocity": 94, "duration": 356}, {"note": 80, "velocity": 84, "duration": 1556}, {"note": 71, "velocity": 98, "duration": 236}, {"note": 73, "velocity": 94, "duration": 236}, {"note": 75, "velocity": 95, "duration": 236}, {"note": 75, "velocity": 98, "duration": 236}, {"note": 75, "velocity": 104, "duration": 236}, {"note": 75, "velocity": 103, "duration": 716}, {"note": 73, "velocity": 94, "duration": 236}, {"note": 0, "velocity": 0, "duration": 124}, {"note": 73, "velocity": 95, "duration": 1676}, {"note": 73, "velocity": 93, "duration": 116}, {"note": 0, "velocity": 0, "duration": 124}, {"note": 75, "velocity": 90, "duration": 236}, {"note": 76, "velocity": 98, "duration": 236}, {"note": 76, "velocity": 100, "duration": 236}, {"note": 76, "velocity": 101, "duration": 236}, {"note": 76, "velocity": 100, "duration": 476}, {"note": 75, "velocity": 90, "duration": 236}, {"note": 71, "velocity": 90, "duration": 236}, {"note": 75, "velocity": 84, "duration": 1916}, {"note": 71, "velocity": 90, "duration": 116}, {"note": 71, "velocity": 90, "duration": 116}, {"note": 80, "velocity": 94, "duration": 236}, {"note": 80, "velocity": 91, "duration": 236}, {"note": 80, "velocity": 95, "duration": 236}, {"note": 80, "velocity": 94, "duration": 476}, {"note": 78, "velocity": 84, "duration": 236}, {"note": 76, "velocity": 91, "duration": 236}, {"note": 78, "velocity": 84, "duration": 476}, {"note": 78, "velocity": 86, "duration": 236}, {"note": 76, "velocity": 98, "duration": 236}, {"note": 75, "velocity": 95, "duration": 1196}, {"note": 73, "velocity": 98, "duration": 236}, {"note": 73, "velocity": 95, "duration": 236}, {"note": 73, "velocity": 90, "duration": 236}, {"note": 73, "velocity": 98, "duration": 476}, {"note": 75, "velocity": 98, "duration": 236}, {"note": 76, "velocity": 94, "duration": 356}, {"note": 75, "velocity": 95, "duration": 1556}, {"note": 71, "velocity": 106, "duration": 236}, {"note": 73, "velocity": 95, "duration": 236}, {"note": 75, "velocity": 91, "duration": 236}, {"note": 75, "velocity": 104, "duration": 236}, {"note": 75, "velocity": 104, "duration": 236}, {"note": 75, "velocity": 108, "duration": 476}, {"note": 76, "velocity": 95, "duration": 236}, {"note": 78, "velocity": 84, "duration": 236}, {"note": 75, "velocity": 101, "duration": 236}, {"note": 73, "velocity": 95, "duration": 1436}, {"note": 73, "velocity": 84, "duration": 236}, {"note": 75, "velocity": 98, "duration": 236}, {"note": 76, "velocity": 101, "duration": 236}, {"note": 76, "velocity": 100, "duration": 236}, {"note": 76, "velocity": 101, "duration": 236}, {"note": 80, "velocity": 106, "duration": 476}, {"note": 82, "velocity": 90, "duration": 236}, {"note": 83, "velocity": 84, "duration": 236}, {"note": 82, "velocity": 94, "duration": 236}, {"note": 80, "velocity": 91, "duration": 1676}, {"note": 80, "velocity": 80, "duration": 116}, {"note": 82, "velocity": 82, "duration": 116}, {"note": 83, "velocity": 84, "duration": 236}, {"note": 83, "velocity": 83, "duration": 236}, {"note": 83, "velocity": 82, "duration": 236}, {"note": 83, "velocity": 84, "duration": 476}, {"note": 82, "velocity": 84, "duration": 236}, {"note": 80, "velocity": 84, "duration": 236}, {"note": 78, "velocity": 78, "duration": 476}, {"note": 78, "velocity": 80, "duration": 236}, {"note": 76, "velocity": 84, "duration": 236}, {"note": 75, "velocity": 82, "duration": 1076}, {"note": 71, "velocity": 79, "duration": 116}, {"note": 80, "velocity": 84, "duration": 236}, {"note": 80, "velocity": 78, "duration": 236}, {"note": 80, "velocity": 80, "duration": 236}, {"note": 80, "velocity": 82, "duration": 476}, {"note": 82, "velocity": 84, "duration": 236}, {"note": 83, "velocity": 86, "duration": 236}, {"note": 82, "velocity": 90, "duration": 2156}, {"note": 0, "velocity": 0, "duration": 18964}, {"note": 75, "velocity": 95, "duration": 236}, {"note": 83, "velocity": 95, "duration": 836}, {"note": 75, "velocity": 86, "duration": 236}, {"note": 82, "velocity": 94, "duration": 716}, {"note": 78, "velocity": 84, "duration": 236}, {"note": 80, "velocity": 91, "duration": 236}, {"note": 78, "velocity": 93, "duration": 236}, {"note": 76, "velocity": 91, "duration": 236}, {"note": 0, "velocity": 0, "duration": 124}, {"note": 78, "velocity": 95, "duration": 1196}, {"note": 76, "velocity": 95, "duration": 236}, {"note": 75, "velocity": 95, "duration": 236}, {"note": 76, "velocity": 90, "duration": 236}, {"note": 80, "velocity": 98, "duration": 956}, {"note": 78, "velocity": 86, "duration": 236}, {"note": 75, "velocity": 95, "duration": 1556}, {"note": 0, "velocity": 0, "duration": 364}, {"note": 75, "velocity": 91, "duration": 356}, {"note": 83, "velocity": 95, "duration": 716}, {"note": 85, "velocity": 95, "duration": 236}, {"note": 82, "velocity": 98, "duration": 716}, {"note": 78, "velocity": 90, "duration": 236}, {"note": 80, "velocity": 91, "duration": 236}, {"note": 78, "velocity": 90, "duration": 236}, {"note": 76, "velocity": 98, "duration": 116}, {"note": 78, "velocity": 75, "duration": 116}, {"note": 78, "velocity": 93, "duration": 1196}, {"note": 80, "velocity": 84, "duration": 236}, {"note": 80, "velocity": 95, "duration": 236}, {"note": 80, "velocity": 98, "duration": 236}, {"note": 79, "velocity": 101, "duration": 716}, {"note": 80, "velocity": 94, "duration": 356}, {"note": 80, "velocity": 84, "duration": 116}, {"note": 0, "velocity": 0, "duration": 1564}, {"note": 71, "velocity": 98, "duration": 236}, {"note": 73, "velocity": 94, "duration": 236}, {"note": 75, "velocity": 95, "duration": 236}, {"note": 75, "velocity": 98, "duration": 236}, {"note": 75, "velocity": 104, "duration": 236}, {"note": 75, "velocity": 103, "duration": 716}, {"note": 73, "velocity": 94, "duration": 236}, {"note": 0, "velocity": 0, "duration": 124}, {"note": 73, "velocity": 95, "duration": 1676}, {"note": 73, "velocity": 93, "duration": 116}, {"note": 0, "velocity": 0, "duration": 124}, {"note": 75, "velocity": 90, "duration": 236}, {"note": 76, "velocity": 98, "duration": 236}, {"note": 76, "velocity": 100, "duration": 236}, {"note": 76, "velocity": 101, "duration": 236}, {"note": 76, "velocity": 100, "duration": 476}, {"note": 75, "velocity": 90, "duration": 236}, {"note": 73, "velocity": 90, "duration": 236}, {"note": 75, "velocity": 84, "duration": 1916}, {"note": 71, "velocity": 90, "duration": 116}, {"note": 71, "velocity": 90, "duration": 116}, {"note": 80, "velocity": 94, "duration": 236}, {"note": 80, "velocity": 91, "duration": 236}, {"note": 80, "velocity": 95, "duration": 236}, {"note": 80, "velocity": 94, "duration": 476}, {"note": 78, "velocity": 84, "duration": 236}, {"note": 76, "velocity": 91, "duration": 236}, {"note": 78, "velocity": 84, "duration": 476}, {"note": 78, "velocity": 86, "duration": 236}, {"note": 76, "velocity": 98, "duration": 236}, {"note": 75, "velocity": 95, "duration": 1196}, {"note": 73, "velocity": 98, "duration": 236}, {"note": 73, "velocity": 95, "duration": 236}, {"note": 73, "velocity": 90, "duration": 236}, {"note": 73, "velocity": 98, "duration": 476}, {"note": 75, "velocity": 98, "duration": 236}, {"note": 76, "velocity": 94, "duration": 356}, {"note": 75, "velocity": 95, "duration": 1556}, {"note": 71, "velocity": 106, "duration": 236}, {"note": 73, "velocity": 95, "duration": 236}, {"note": 75, "velocity": 91, "duration": 236}, {"note": 75, "velocity": 104, "duration": 236}, {"note": 75, "velocity": 104, "duration": 236}, {"note": 75, "velocity": 108, "duration": 476}, {"note": 76, "velocity": 95, "duration": 236}, {"note": 78, "velocity": 84, "duration": 236}, {"note": 75, "velocity": 101, "duration": 236}, {"note": 73, "velocity": 95, "duration": 1436}, {"note": 73, "velocity": 84, "duration": 236}, {"note": 75, "velocity": 98, "duration": 236}, {"note": 76, "velocity": 101, "duration": 236}, {"note": 76, "velocity": 100, "duration": 236}, {"note": 76, "velocity": 101, "duration": 236}, {"note": 80, "velocity": 106, "duration": 476}, {"note": 82, "velocity": 90, "duration": 236}, {"note": 83, "velocity": 84, "duration": 236}, {"note": 82, "velocity": 94, "duration": 236}, {"note": 80, "velocity": 91, "duration": 1676}, {"note": 80, "velocity": 80, "duration": 116}, {"note": 82, "velocity": 82, "duration": 116}, {"note": 83, "velocity": 84, "duration": 236}, {"note": 83, "velocity": 83, "duration": 236}, {"note": 83, "velocity": 82, "duration": 236}, {"note": 83, "velocity": 84, "duration": 476}, {"note": 82, "velocity": 84, "duration": 236}, {"note": 80, "velocity": 84, "duration": 236}, {"note": 78, "velocity": 78, "duration": 476}, {"note": 78, "velocity": 80, "duration": 236}, {"note": 76, "velocity": 84, "duration": 236}, {"note": 75, "velocity": 82, "duration": 1076}, {"note": 71, "velocity": 79, "duration": 116}, {"note": 80, "velocity": 84, "duration": 236}, {"note": 80, "velocity": 78, "duration": 236}, {"note": 80, "velocity": 80, "duration": 236}, {"note": 80, "velocity": 82, "duration": 476}, {"note": 82, "velocity": 84, "duration": 236}, {"note": 83, "velocity": 86, "duration": 236}, {"note": 82, "velocity": 90, "duration": 2156}, {"note": 75, "velocity": 90, "duration": 206}, {"note": 76, "velocity": 86, "duration": 203}, {"note": 78, "velocity": 91, "duration": 186}, {"note": 78, "velocity": 84, "duration": 167}, {"note": 0, "velocity": 0, "duration": 73}, {"note": 78, "velocity": 91, "duration": 183}, {"note": 78, "velocity": 93, "duration": 395}, {"note": 0, "velocity": 0, "duration": 85}, {"note": 76, "velocity": 91, "duration": 185}, {"note": 75, "velocity": 86, "duration": 180}, {"note": 80, "velocity": 90, "duration": 261}, {"note": 78, "velocity": 84, "duration": 595}, {"note": 0, "velocity": 0, "duration": 845}, {"note": 75, "velocity": 94, "duration": 285}, {"note": 78, "velocity": 83, "duration": 229}, {"note": 80, "velocity": 90, "duration": 172}, {"note": 0, "velocity": 0, "duration": 68}, {"note": 80, "velocity": 95, "duration": 161}, {"note": 0, "velocity": 0, "duration": 79}, {"note": 80, "velocity": 91, "duration": 161}, {"note": 0, "velocity": 0, "duration": 79}, {"note": 80, "velocity": 98, "duration": 405}, {"note": 0, "velocity": 0, "duration": 75}, {"note": 82, "velocity": 90, "duration": 214}, {"note": 83, "velocity": 95, "duration": 397}, {"note": 0, "velocity": 0, "duration": 83}, {"note": 82, "velocity": 91, "duration": 224}, {"note": 80, "velocity": 94, "duration": 1184}, {"note": 0, "velocity": 0, "duration": 256}, {"note": 80, "velocity": 82, "duration": 156}, {"note": 82, "velocity": 82, "duration": 113}, {"note": 83, "velocity": 83, "duration": 159}, {"note": 0, "velocity": 0, "duration": 81}, {"note": 83, "velocity": 90, "duration": 147}, {"note": 0, "velocity": 0, "duration": 93}, {"note": 83, "velocity": 86, "duration": 146}, {"note": 0, "velocity": 0, "duration": 94}, {"note": 83, "velocity": 91, "duration": 407}, {"note": 0, "velocity": 0, "duration": 73}, {"note": 82, "velocity": 90, "duration": 191}, {"note": 80, "velocity": 84, "duration": 237}, {"note": 78, "velocity": 90, "duration": 623}, {"note": 78, "velocity": 83, "duration": 143}, {"note": 0, "velocity": 0, "duration": 97}, {"note": 80, "velocity": 90, "duration": 255}, {"note": 75, "velocity": 91, "duration": 1000}, {"note": 0, "velocity": 0, "duration": 200}, {"note": 80, "velocity": 83, "duration": 161}, {"note": 0, "velocity": 0, "duration": 79}, {"note": 80, "velocity": 90, "duration": 182}, {"note": 80, "velocity": 80, "duration": 153}, {"note": 0, "velocity": 0, "duration": 87}, {"note": 80, "velocity": 90, "duration": 453}, {"note": 82, "velocity": 91, "duration": 178}, {"note": 0, "velocity": 0, "duration": 62}, {"note": 83, "velocity": 91, "duration": 143}, {"note": 0, "velocity": 0, "duration": 97}, {"note": 82, "velocity": 98, "duration": 1682}, {"note": 0, "velocity": 0, "duration": 238}, {"note": 75, "velocity": 69, "duration": 305}, {"note": 83, "velocity": 82, "duration": 761}, {"note": 75, "velocity": 68, "duration": 282}, {"note": 82, "velocity": 84, "duration": 754}, {"note": 78, "velocity": 75, "duration": 213}, {"note": 80, "velocity": 73, "duration": 224}, {"note": 78, "velocity": 73, "duration": 222}, {"note": 76, "velocity": 78, "duration": 120}, {"note": 78, "velocity": 78, "duration": 120}, {"note": 78, "velocity": 73, "duration": 397}, {"note": 0, "velocity": 0, "duration": 803}, {"note": 80, "velocity": 80, "duration": 170}, {"note": 0, "velocity": 0, "duration": 70}, {"note": 80, "velocity": 79, "duration": 174}, {"note": 0, "velocity": 0, "duration": 66}, {"note": 80, "velocity": 80, "duration": 247}, {"note": 79, "velocity": 81, "duration": 651}, {"note": 0, "velocity": 0, "duration": 69}, {"note": 80, "velocity": 78, "duration": 177}, {"note": 0, "velocity": 0, "duration": 63}, {"note": 80, "velocity": 73, "duration": 1663}, {"note": 0, "velocity": 0, "duration": 497}, {"note": 80, "velocity": 61, "duration": 183}, {"note": 80, "velocity": 78, "duration": 177}, {"note": 0, "velocity": 0, "duration": 63}, {"note": 80, "velocity": 78, "duration": 261}, {"note": 79, "velocity": 81, "duration": 1341}, {"note": 0, "velocity": 0, "duration": 1299}, {"note": 80, "velocity": 61, "duration": 417}, {"note": 0, "velocity": 0, "duration": 63}, {"note": 80, "velocity": 60, "duration": 1852}]]