[[{"note": 74, "velocity": 79, "duration": 116}, {"note": 76, "velocity": 80, "duration": 116}, {"note": 78, "velocity": 77, "duration": 716}, {"note": 78, "velocity": 79, "duration": 236}, {"note": 78, "velocity": 75, "duration": 236}, {"note": 76, "velocity": 75, "duration": 356}, {"note": 74, "velocity": 78, "duration": 236}, {"note": 71, "velocity": 59, "duration": 116}, {"note": 74, "velocity": 79, "duration": 1676}, {"note": 74, "velocity": 78, "duration": 116}, {"note": 76, "velocity": 79, "duration": 116}, {"note": 78, "velocity": 80, "duration": 716}, {"note": 78, "velocity": 78, "duration": 236}, {"note": 78, "velocity": 75, "duration": 356}, {"note": 76, "velocity": 83, "duration": 236}, {"note": 74, "velocity": 84, "duration": 236}, {"note": 83, "velocity": 80, "duration": 476}, {"note": 81, "velocity": 76, "duration": 1296}, {"note": 78, "velocity": 78, "duration": 111}, {"note": 81, "velocity": 75, "duration": 141}, {"note": 83, "velocity": 77, "duration": 356}, {"note": 83, "velocity": 82, "duration": 356}, {"note": 83, "velocity": 82, "duration": 236}, {"note": 81, "velocity": 80, "duration": 716}, {"note": 78, "velocity": 84, "duration": 116}, {"note": 76, "velocity": 78, "duration": 116}, {"note": 78, "velocity": 82, "duration": 476}, {"note": 76, "velocity": 82, "duration": 476}, {"note": 74, "velocity": 84, "duration": 716}, {"note": 74, "velocity": 78, "duration": 116}, {"note": 76, "velocity": 82, "duration": 116}, {"note": 78, "velocity": 80, "duration": 716}, {"note": 78, "velocity": 76, "duration": 116}, {"note": 78, "velocity": 62, "duration": 116}, {"note": 78, "velocity": 72, "duration": 236}, {"note": 76, "velocity": 80, "duration": 476}, {"note": 74, "velocity": 78, "duration": 116}, {"note": 71, "velocity": 74, "duration": 116}, {"note": 74, "velocity": 81, "duration": 1676}, {"note": 74, "velocity": 79, "duration": 116}, {"note": 76, "velocity": 80, "duration": 116}, {"note": 78, "velocity": 77, "duration": 716}, {"note": 78, "velocity": 79, "duration": 236}, {"note": 78, "velocity": 75, "duration": 236}, {"note": 76, "velocity": 75, "duration": 356}, {"note": 74, "velocity": 78, "duration": 236}, {"note": 71, "velocity": 59, "duration": 116}, {"note": 74, "velocity": 79, "duration": 1676}, {"note": 74, "velocity": 78, "duration": 116}, {"note": 76, "velocity": 79, "duration": 116}, {"note": 78, "velocity": 80, "duration": 236}, {"note": 78, "velocity": 80, "duration": 476}, {"note": 78, "velocity": 78, "duration": 236}, {"note": 78, "velocity": 75, "duration": 356}, {"note": 76, "velocity": 83, "duration": 356}, {"note": 74, "velocity": 84, "duration": 116}, {"note": 83, "velocity": 80, "duration": 476}, {"note": 81, "velocity": 76, "duration": 1316}, {"note": 78, "velocity": 78, "duration": 116}, {"note": 81, "velocity": 75, "duration": 116}, {"note": 83, "velocity": 77, "duration": 236}, {"note": 83, "velocity": 82, "duration": 356}, {"note": 85, "velocity": 82, "duration": 236}, {"note": 86, "velocity": 82, "duration": 116}, {"note": 85, "velocity": 90, "duration": 236}, {"note": 85, "velocity": 90, "duration": 476}, {"note": 86, "velocity": 90, "duration": 116}, {"note": 88, "velocity": 79, "duration": 116}, {"note": 86, "velocity": 83, "duration": 476}, {"note": 85, "velocity": 83, "duration": 476}, {"note": 83, "velocity": 86, "duration": 716}, {"note": 78, "velocity": 84, "duration": 116}, {"note": 78, "velocity": 82, "duration": 116}, {"note": 76, "velocity": 83, "duration": 236}, {"note": 74, "velocity": 84, "duration": 356}, {"note": 74, "velocity": 78, "duration": 116}, {"note": 83, "velocity": 80, "duration": 116}, {"note": 83, "velocity": 73, "duration": 116}, {"note": 83, "velocity": 83, "duration": 236}, {"note": 83, "velocity": 84, "duration": 236}, {"note": 83, "velocity": 82, "duration": 116}, {"note": 83, "velocity": 86, "duration": 356}, {"note": 81, "velocity": 86, "duration": 1556}, {"note": 81, "velocity": 69, "duration": 116}, {"note": 81, "velocity": 71, "duration": 116}, {"note": 81, "velocity": 69, "duration": 116}, {"note": 91, "velocity": 95, "duration": 236}, {"note": 90, "velocity": 86, "duration": 236}, {"note": 88, "velocity": 83, "duration": 116}, {"note": 86, "velocity": 83, "duration": 236}, {"note": 81, "velocity": 73, "duration": 1076}, {"note": 88, "velocity": 90, "duration": 236}, {"note": 86, "velocity": 90, "duration": 236}, {"note": 85, "velocity": 80, "duration": 116}, {"note": 83, "velocity": 83, "duration": 236}, {"note": 78, "velocity": 91, "duration": 1076}, {"note": 83, "velocity": 90, "duration": 116}, {"note": 83, "velocity": 82, "duration": 116}, {"note": 83, "velocity": 84, "duration": 116}, {"note": 83, "velocity": 80, "duration": 116}, {"note": 83, "velocity": 83, "duration": 236}, {"note": 86, "velocity": 90, "duration": 116}, {"note": 81, "velocity": 82, "duration": 836}, {"note": 76, "velocity": 84, "duration": 116}, {"note": 78, "velocity": 79, "duration": 116}, {"note": 79, "velocity": 90, "duration": 116}, {"note": 79, "velocity": 86, "duration": 236}, {"note": 79, "velocity": 86, "duration": 116}, {"note": 79, "velocity": 90, "duration": 236}, {"note": 79, "velocity": 78, "duration": 116}, {"note": 81, "velocity": 78, "duration": 116}, {"note": 78, "velocity": 84, "duration": 236}, {"note": 76, "velocity": 80, "duration": 356}, {"note": 81, "velocity": 69, "duration": 116}, {"note": 81, "velocity": 71, "duration": 116}, {"note": 81, "velocity": 69, "duration": 116}, {"note": 91, "velocity": 95, "duration": 236}, {"note": 90, "velocity": 86, "duration": 236}, {"note": 88, "velocity": 83, "duration": 116}, {"note": 86, "velocity": 83, "duration": 236}, {"note": 81, "velocity": 73, "duration": 1076}, {"note": 88, "velocity": 90, "duration": 236}, {"note": 86, "velocity": 90, "duration": 236}, {"note": 85, "velocity": 80, "duration": 116}, {"note": 83, "velocity": 83, "duration": 236}, {"note": 78, "velocity": 91, "duration": 1076}, {"note": 83, "velocity": 90, "duration": 116}, {"note": 83, "velocity": 82, "duration": 116}, {"note": 83, "velocity": 84, "duration": 116}, {"note": 83, "velocity": 80, "duration": 116}, {"note": 83, "velocity": 83, "duration": 236}, {"note": 86, "velocity": 90, "duration": 116}, {"note": 81, "velocity": 82, "duration": 596}, {"note": 76, "velocity": 83, "duration": 116}, {"note": 78, "velocity": 77, "duration": 116}, {"note": 76, "velocity": 80, "duration": 236}, {"note": 74, "velocity": 84, "duration": 5756}, {"note": 0, "velocity": 0, "duration": 1684}, {"note": 74, "velocity": 79, "duration": 116}, {"note": 76, "velocity": 80, "duration": 116}, {"note": 78, "velocity": 77, "duration": 716}, {"note": 78, "velocity": 79, "duration": 236}, {"note": 78, "velocity": 75, "duration": 236}, {"note": 76, "velocity": 75, "duration": 356}, {"note": 74, "velocity": 78, "duration": 236}, {"note": 71, "velocity": 59, "duration": 116}, {"note": 74, "velocity": 79, "duration": 1676}, {"note": 74, "velocity": 78, "duration": 116}, {"note": 76, "velocity": 79, "duration": 116}, {"note": 78, "velocity": 80, "duration": 716}, {"note": 78, "velocity": 78, "duration": 236}, {"note": 78, "velocity": 75, "duration": 356}, {"note": 76, "velocity": 83, "duration": 236}, {"note": 74, "velocity": 84, "duration": 236}, {"note": 83, "velocity": 80, "duration": 476}, {"note": 81, "velocity": 76, "duration": 1296}, {"note": 78, "velocity": 78, "duration": 111}, {"note": 81, "velocity": 75, "duration": 141}, {"note": 83, "velocity": 77, "duration": 356}, {"note": 83, "velocity": 82, "duration": 356}, {"note": 83, "velocity": 82, "duration": 236}, {"note": 81, "velocity": 80, "duration": 596}, {"note": 78, "velocity": 84, "duration": 236}, {"note": 76, "velocity": 78, "duration": 116}, {"note": 78, "velocity": 82, "duration": 476}, {"note": 76, "velocity": 82, "duration": 476}, {"note": 74, "velocity": 84, "duration": 716}, {"note": 74, "velocity": 78, "duration": 116}, {"note": 76, "velocity": 82, "duration": 116}, {"note": 78, "velocity": 80, "duration": 716}, {"note": 78, "velocity": 76, "duration": 116}, {"note": 78, "velocity": 62, "duration": 116}, {"note": 78, "velocity": 72, "duration": 236}, {"note": 76, "velocity": 80, "duration": 476}, {"note": 74, "velocity": 78, "duration": 116}, {"note": 71, "velocity": 74, "duration": 116}, {"note": 74, "velocity": 81, "duration": 1556}, {"note": 74, "velocity": 79, "duration": 236}, {"note": 76, "velocity": 80, "duration": 116}, {"note": 78, "velocity": 77, "duration": 716}, {"note": 78, "velocity": 79, "duration": 236}, {"note": 78, "velocity": 75, "duration": 236}, {"note": 76, "velocity": 75, "duration": 356}, {"note": 74, "velocity": 78, "duration": 236}, {"note": 71, "velocity": 59, "duration": 116}, {"note": 74, "velocity": 79, "duration": 1676}, {"note": 74, "velocity": 78, "duration": 116}, {"note": 76, "velocity": 79, "duration": 116}, {"note": 78, "velocity": 80, "duration": 236}, {"note": 78, "velocity": 80, "duration": 476}, {"note": 78, "velocity": 78, "duration": 236}, {"note": 78, "velocity": 75, "duration": 356}, {"note": 76, "velocity": 83, "duration": 356}, {"note": 74, "velocity": 84, "duration": 116}, {"note": 83, "velocity": 80, "duration": 476}, {"note": 81, "velocity": 76, "duration": 1316}, {"note": 78, "velocity": 78, "duration": 116}, {"note": 81, "velocity": 75, "duration": 116}, {"note": 83, "velocity": 77, "duration": 236}, {"note": 83, "velocity": 82, "duration": 356}, {"note": 85, "velocity": 82, "duration": 236}, {"note": 86, "velocity": 82, "duration": 116}, {"note": 85, "velocity": 90, "duration": 236}, {"note": 85, "velocity": 90, "duration": 476}, {"note": 86, "velocity": 90, "duration": 116}, {"note": 88, "velocity": 79, "duration": 116}, {"note": 86, "velocity": 83, "duration": 476}, {"note": 85, "velocity": 83, "duration": 476}, {"note": 83, "velocity": 86, "duration": 716}, {"note": 78, "velocity": 84, "duration": 116}, {"note": 78, "velocity": 82, "duration": 116}, {"note": 76, "velocity": 83, "duration": 236}, {"note": 74, "velocity": 84, "duration": 356}, {"note": 74, "velocity": 78, "duration": 116}, {"note": 83, "velocity": 80, "duration": 116}, {"note": 83, "velocity": 73, "duration": 116}, {"note": 83, "velocity": 83, "duration": 236}, {"note": 83, "velocity": 84, "duration": 236}, {"note": 83, "velocity": 82, "duration": 116}, {"note": 83, "velocity": 86, "duration": 356}, {"note": 81, "velocity": 86, "duration": 1556}, {"note": 81, "velocity": 69, "duration": 116}, {"note": 81, "velocity": 71, "duration": 116}, {"note": 81, "velocity": 69, "duration": 116}, {"note": 91, "velocity": 95, "duration": 236}, {"note": 90, "velocity": 86, "duration": 236}, {"note": 88, "velocity": 83, "duration": 116}, {"note": 86, "velocity": 83, "duration": 236}, {"note": 81, "velocity": 73, "duration": 1076}, {"note": 88, "velocity": 90, "duration": 236}, {"note": 86, "velocity": 90, "duration": 236}, {"note": 85, "velocity": 80, "duration": 116}, {"note": 83, "velocity": 83, "duration": 236}, {"note": 78, "velocity": 91, "duration": 1076}, {"note": 83, "velocity": 90, "duration": 116}, {"note": 83, "velocity": 82, "duration": 116}, {"note": 83, "velocity": 84, "duration": 116}, {"note": 83, "velocity": 80, "duration": 116}, {"note": 83, "velocity": 83, "duration": 236}, {"note": 86, "velocity": 90, "duration": 116}, {"note": 81, "velocity": 82, "duration": 836}, {"note": 76, "velocity": 84, "duration": 116}, {"note": 78, "velocity": 79, "duration": 116}, {"note": 79, "velocity": 90, "duration": 116}, {"note": 79, "velocity": 86, "duration": 236}, {"note": 79, "velocity": 86, "duration": 116}, {"note": 79, "velocity": 90, "duration": 236}, {"note": 79, "velocity": 78, "duration": 116}, {"note": 81, "velocity": 78, "duration": 116}, {"note": 78, "velocity": 84, "duration": 236}, {"note": 76, "velocity": 80, "duration": 356}, {"note": 81, "velocity": 69, "duration": 116}, {"note": 81, "velocity": 71, "duration": 116}, {"note": 81, "velocity": 69, "duration": 116}, {"note": 91, "velocity": 95, "duration": 236}, {"note": 90, "velocity": 86, "duration": 236}, {"note": 88, "velocity": 83, "duration": 116}, {"note": 86, "velocity": 83, "duration": 236}, {"note": 81, "velocity": 73, "duration": 1076}, {"note": 88, "velocity": 90, "duration": 236}, {"note": 86, "velocity": 90, "duration": 236}, {"note": 85, "velocity": 80, "duration": 116}, {"note": 83, "velocity": 83, "duration": 236}, {"note": 78, "velocity": 91, "duration": 1076}, {"note": 83, "velocity": 90, "duration": 116}, {"note": 83, "velocity": 82, "duration": 116}, {"note": 83, "velocity": 84, "duration": 116}, {"note": 83, "velocity": 80, "duration": 116}, {"note": 83, "velocity": 83, "duration": 236}, {"note": 86, "velocity": 90, "duration": 116}, {"note": 81, "velocity": 82, "duration": 596}, {"note": 76, "velocity": 83, "duration": 116}, {"note": 78, "velocity": 77, "duration": 116}, {"note": 76, "velocity": 80, "duration": 236}, {"note": 74, "velocity": 84, "duration": 1916}, {"note": 0, "velocity": 0, "duration": 13084}, {"note": 81, "velocity": 69, "duration": 116}, {"note": 81, "velocity": 71, "duration": 116}, {"note": 81, "velocity": 69, "duration": 116}, {"note": 91, "velocity": 95, "duration": 236}, {"note": 90, "velocity": 86, "duration": 236}, {"note": 88, "velocity": 83, "duration": 116}, {"note": 86, "velocity": 83, "duration": 236}, {"note": 81, "velocity": 73, "duration": 1076}, {"note": 88, "velocity": 90, "duration": 236}, {"note": 86, "velocity": 90, "duration": 236}, {"note": 85, "velocity": 80, "duration": 116}, {"note": 83, "velocity": 83, "duration": 236}, {"note": 78, "velocity": 91, "duration": 1076}, {"note": 83, "velocity": 90, "duration": 116}, {"note": 83, "velocity": 82, "duration": 116}, {"note": 83, "velocity": 84, "duration": 116}, {"note": 83, "velocity": 80, "duration": 116}, {"note": 83, "velocity": 83, "duration": 236}, {"note": 86, "velocity": 90, "duration": 116}, {"note": 81, "velocity": 82, "duration": 836}, {"note": 76, "velocity": 84, "duration": 116}, {"note": 78, "velocity": 79, "duration": 116}, {"note": 79, "velocity": 90, "duration": 116}, {"note": 79, "velocity": 86, "duration": 236}, {"note": 79, "velocity": 86, "duration": 116}, {"note": 79, "velocity": 90, "duration": 236}, {"note": 79, "velocity": 78, "duration": 116}, {"note": 81, "velocity": 78, "duration": 116}, {"note": 78, "velocity": 84, "duration": 236}, {"note": 76, "velocity": 80, "duration": 356}, {"note": 81, "velocity": 69, "duration": 116}, {"note": 81, "velocity": 71, "duration": 116}, {"note": 81, "velocity": 69, "duration": 116}, {"note": 91, "velocity": 95, "duration": 236}, {"note": 90, "velocity": 86, "duration": 236}, {"note": 88, "velocity": 83, "duration": 116}, {"note": 86, "velocity": 83, "duration": 236}, {"note": 81, "velocity": 73, "duration": 1076}, {"note": 88, "velocity": 90, "duration": 236}, {"note": 86, "velocity": 90, "duration": 236}, {"note": 85, "velocity": 80, "duration": 116}, {"note": 83, "velocity": 83, "duration": 236}, {"note": 78, "velocity": 91, "duration": 1076}, {"note": 83, "velocity": 90, "duration": 116}, {"note": 83, "velocity": 82, "duration": 116}, {"note": 83, "velocity": 84, "duration": 116}, {"note": 83, "velocity": 80, "duration": 116}, {"note": 83, "velocity": 83, "duration": 236}, {"note": 86, "velocity": 90, "duration": 116}, {"note": 81, "velocity": 82, "duration": 596}, {"note": 76, "velocity": 83, "duration": 116}, {"note": 78, "velocity": 77, "duration": 116}, {"note": 76, "velocity": 80, "duration": 236}, {"note": 74, "velocity": 84, "duration": 1916}, {"note": 81, "velocity": 69, "duration": 116}, {"note": 81, "velocity": 71, "duration": 116}, {"note": 81, "velocity": 69, "duration": 116}, {"note": 91, "velocity": 95, "duration": 236}, {"note": 90, "velocity": 86, "duration": 236}, {"note": 88, "velocity": 83, "duration": 116}, {"note": 86, "velocity": 83, "duration": 236}, {"note": 81, "velocity": 73, "duration": 1076}, {"note": 88, "velocity": 90, "duration": 236}, {"note": 86, "velocity": 90, "duration": 236}, {"note": 85, "velocity": 80, "duration": 116}, {"note": 83, "velocity": 83, "duration": 236}, {"note": 78, "velocity": 91, "duration": 1076}, {"note": 83, "velocity": 90, "duration": 116}, {"note": 83, "velocity": 82, "duration": 116}, {"note": 83, "velocity": 84, "duration": 116}, {"note": 83, "velocity": 80, "duration": 116}, {"note": 83, "velocity": 83, "duration": 236}, {"note": 86, "velocity": 90, "duration": 116}, {"note": 81, "velocity": 82, "duration": 836}, {"note": 76, "velocity": 84, "duration": 116}, {"note": 78, "velocity": 79, "duration": 116}, {"note": 79, "velocity": 90, "duration": 116}, {"note": 79, "velocity": 86, "duration": 236}, {"note": 79, "velocity": 86, "duration": 116}, {"note": 79, "velocity": 90, "duration": 236}, {"note": 79, "velocity": 78, "duration": 116}, {"note": 81, "velocity": 78, "duration": 116}, {"note": 78, "velocity": 84, "duration": 236}, {"note": 76, "velocity": 80, "duration": 356}, {"note": 81, "velocity": 69, "duration": 116}, {"note": 81, "velocity": 71, "duration": 116}, {"note": 81, "velocity": 69, "duration": 116}, {"note": 91, "velocity": 95, "duration": 236}, {"note": 90, "velocity": 86, "duration": 236}, {"note": 88, "velocity": 83, "duration": 116}, {"note": 86, "velocity": 83, "duration": 236}, {"note": 81, "velocity": 73, "duration": 1076}, {"note": 88, "velocity": 90, "duration": 236}, {"note": 86, "velocity": 90, "duration": 236}, {"note": 85, "velocity": 80, "duration": 116}, {"note": 83, "velocity": 83, "duration": 236}, {"note": 78, "velocity": 91, "duration": 1076}, {"note": 83, "velocity": 90, "duration": 116}, {"note": 83, "velocity": 82, "duration": 116}, {"note": 83, "velocity": 84, "duration": 116}, {"note": 83, "velocity": 80, "duration": 116}, {"note": 83, "velocity": 83, "duration": 236}, {"note": 86, "velocity": 90, "duration": 116}, {"note": 81, "velocity": 82, "duration": 596}, {"note": 76, "velocity": 83, "duration": 116}, {"note": 78, "velocity": 77, "duration": 116}, {"note": 76, "velocity": 80, "duration": 236}, {"note": 74, "velocity": 84, "duration": 1916}, {"note": 81, "velocity": 69, "duration": 116}, {"note": 81, "velocity": 71, "duration": 116}, {"note": 81, "velocity": 69, "duration": 116}, {"note": 91, "velocity": 95, "duration": 236}, {"note": 90, "velocity": 86, "duration": 236}, {"note": 88, "velocity": 83, "duration": 116}, {"note": 86, "velocity": 83, "duration": 236}, {"note": 81, "velocity": 73, "duration": 1076}, {"note": 88, "velocity": 90, "duration": 236}, {"note": 86, "velocity": 90, "duration": 236}, {"note": 85, "velocity": 80, "duration": 116}, {"note": 83, "velocity": 83, "duration": 236}, {"note": 78, "velocity": 91, "duration": 1076}, {"note": 83, "velocity": 90, "duration": 116}, {"note": 83, "velocity": 82, "duration": 116}, {"note": 83, "velocity": 84, "duration": 116}, {"note": 83, "velocity": 80, "duration": 116}, {"note": 83, "velocity": 83, "duration": 236}, {"note": 86, "velocity": 90, "duration": 116}, {"note": 81, "velocity": 82, "duration": 836}, {"note": 76, "velocity": 84, "duration": 116}, {"note": 78, "velocity": 79, "duration": 116}, {"note": 79, "velocity": 90, "duration": 116}, {"note": 79, "velocity": 86, "duration": 236}, {"note": 79, "velocity": 86, "duration": 116}, {"note": 79, "velocity": 90, "duration": 236}, {"note": 79, "velocity": 78, "duration": 116}, {"note": 81, "velocity": 78, "duration": 116}, {"note": 78, "velocity": 84, "duration": 236}, {"note": 76, "velocity": 80, "duration": 356}]]