[[{"note": 71, "velocity": 56, "duration": 116}, {"note": 72, "velocity": 75, "duration": 116}, {"note": 74, "velocity": 76, "duration": 236}, {"note": 71, "velocity": 55, "duration": 236}, {"note": 74, "velocity": 76, "duration": 236}, {"note": 71, "velocity": 57, "duration": 236}, {"note": 74, "velocity": 77, "duration": 236}, {"note": 71, "velocity": 56, "duration": 236}, {"note": 74, "velocity": 61, "duration": 236}, {"note": 83, "velocity": 73, "duration": 236}, {"note": 81, "velocity": 56, "duration": 164}, {"note": 79, "velocity": 76, "duration": 188}, {"note": 76, "velocity": 62, "duration": 1076}, {"note": 76, "velocity": 60, "duration": 236}, {"note": 83, "velocity": 75, "duration": 236}, {"note": 0, "velocity": 0, "duration": 124}, {"note": 81, "velocity": 71, "duration": 236}, {"note": 79, "velocity": 61, "duration": 116}, {"note": 81, "velocity": 60, "duration": 476}, {"note": 74, "velocity": 62, "duration": 116}, {"note": 74, "velocity": 69, "duration": 236}, {"note": 71, "velocity": 72, "duration": 236}, {"note": 74, "velocity": 80, "duration": 116}, {"note": 81, "velocity": 72, "duration": 356}, {"note": 81, "velocity": 56, "duration": 236}, {"note": 78, "velocity": 60, "duration": 476}, {"note": 79, "velocity": 69, "duration": 716}, {"note": 79, "velocity": 63, "duration": 149}, {"note": 81, "velocity": 73, "duration": 156}, {"note": 83, "velocity": 79, "duration": 163}, {"note": 83, "velocity": 82, "duration": 356}, {"note": 76, "velocity": 73, "duration": 356}, {"note": 81, "velocity": 76, "duration": 716}, {"note": 79, "velocity": 38, "duration": 171}, {"note": 81, "velocity": 67, "duration": 121}, {"note": 83, "velocity": 76, "duration": 176}, {"note": 83, "velocity": 84, "duration": 476}, {"note": 74, "velocity": 60, "duration": 236}, {"note": 79, "velocity": 69, "duration": 716}, {"note": 79, "velocity": 62, "duration": 173}, {"note": 81, "velocity": 71, "duration": 143}, {"note": 83, "velocity": 72, "duration": 152}, {"note": 81, "velocity": 79, "duration": 356}, {"note": 76, "velocity": 60, "duration": 116}, {"note": 78, "velocity": 59, "duration": 236}, {"note": 79, "velocity": 71, "duration": 236}, {"note": 79, "velocity": 55, "duration": 234}, {"note": 78, "velocity": 64, "duration": 238}, {"note": 79, "velocity": 64, "duration": 236}, {"note": 81, "velocity": 64, "duration": 236}, {"note": 83, "velocity": 71, "duration": 246}, {"note": 81, "velocity": 62, "duration": 201}, {"note": 79, "velocity": 73, "duration": 267}, {"note": 74, "velocity": 62, "duration": 346}, {"note": 0, "velocity": 0, "duration": 614}, {"note": 71, "velocity": 56, "duration": 116}, {"note": 72, "velocity": 75, "duration": 116}, {"note": 74, "velocity": 76, "duration": 236}, {"note": 71, "velocity": 55, "duration": 236}, {"note": 74, "velocity": 76, "duration": 236}, {"note": 71, "velocity": 57, "duration": 236}, {"note": 74, "velocity": 77, "duration": 236}, {"note": 71, "velocity": 56, "duration": 236}, {"note": 74, "velocity": 61, "duration": 236}, {"note": 83, "velocity": 73, "duration": 236}, {"note": 81, "velocity": 56, "duration": 164}, {"note": 79, "velocity": 76, "duration": 188}, {"note": 76, "velocity": 62, "duration": 1076}, {"note": 76, "velocity": 60, "duration": 236}, {"note": 83, "velocity": 75, "duration": 236}, {"note": 81, "velocity": 71, "duration": 236}, {"note": 79, "velocity": 61, "duration": 116}, {"note": 81, "velocity": 60, "duration": 476}, {"note": 74, "velocity": 62, "duration": 116}, {"note": 74, "velocity": 69, "duration": 236}, {"note": 71, "velocity": 72, "duration": 236}, {"note": 74, "velocity": 80, "duration": 236}, {"note": 81, "velocity": 72, "duration": 236}, {"note": 81, "velocity": 56, "duration": 236}, {"note": 79, "velocity": 76, "duration": 236}, {"note": 81, "velocity": 61, "duration": 236}, {"note": 83, "velocity": 80, "duration": 716}, {"note": 83, "velocity": 63, "duration": 149}, {"note": 84, "velocity": 73, "duration": 156}, {"note": 86, "velocity": 79, "duration": 163}, {"note": 86, "velocity": 82, "duration": 476}, {"note": 79, "velocity": 73, "duration": 236}, {"note": 81, "velocity": 76, "duration": 716}, {"note": 83, "velocity": 67, "duration": 150}, {"note": 84, "velocity": 67, "duration": 134}, {"note": 86, "velocity": 76, "duration": 184}, {"note": 86, "velocity": 84, "duration": 242}, {"note": 78, "velocity": 71, "duration": 233}, {"note": 81, "velocity": 73, "duration": 214}, {"note": 78, "velocity": 68, "duration": 135}, {"note": 79, "velocity": 57, "duration": 596}, {"note": 83, "velocity": 78, "duration": 188}, {"note": 84, "velocity": 73, "duration": 131}, {"note": 86, "velocity": 76, "duration": 149}, {"note": 86, "velocity": 80, "duration": 236}, {"note": 79, "velocity": 73, "duration": 116}, {"note": 88, "velocity": 81, "duration": 236}, {"note": 86, "velocity": 79, "duration": 356}, {"note": 83, "velocity": 80, "duration": 236}, {"note": 84, "velocity": 76, "duration": 116}, {"note": 83, "velocity": 80, "duration": 476}, {"note": 79, "velocity": 63, "duration": 116}, {"note": 81, "velocity": 79, "duration": 1196}, {"note": 74, "velocity": 82, "duration": 236}, {"note": 88, "velocity": 95, "duration": 236}, {"note": 83, "velocity": 86, "duration": 236}, {"note": 83, "velocity": 84, "duration": 236}, {"note": 84, "velocity": 82, "duration": 476}, {"note": 86, "velocity": 86, "duration": 596}, {"note": 74, "velocity": 78, "duration": 116}, {"note": 88, "velocity": 93, "duration": 236}, {"note": 83, "velocity": 80, "duration": 236}, {"note": 83, "velocity": 83, "duration": 236}, {"note": 84, "velocity": 84, "duration": 476}, {"note": 83, "velocity": 82, "duration": 476}, {"note": 79, "velocity": 83, "duration": 146}, {"note": 79, "velocity": 90, "duration": 244}, {"note": 91, "velocity": 93, "duration": 318}, {"note": 90, "velocity": 103, "duration": 236}, {"note": 91, "velocity": 83, "duration": 116}, {"note": 90, "velocity": 78, "duration": 236}, {"note": 86, "velocity": 72, "duration": 236}, {"note": 86, "velocity": 71, "duration": 116}, {"note": 90, "velocity": 78, "duration": 236}, {"note": 91, "velocity": 82, "duration": 116}, {"note": 90, "velocity": 78, "duration": 356}, {"note": 81, "velocity": 76, "duration": 116}, {"note": 83, "velocity": 82, "duration": 1556}, {"note": 83, "velocity": 91, "duration": 236}, {"note": 84, "velocity": 95, "duration": 236}, {"note": 86, "velocity": 91, "duration": 236}, {"note": 84, "velocity": 93, "duration": 236}, {"note": 84, "velocity": 86, "duration": 236}, {"note": 83, "velocity": 61, "duration": 116}, {"note": 84, "velocity": 83, "duration": 236}, {"note": 74, "velocity": 61, "duration": 596}, {"note": 83, "velocity": 90, "duration": 116}, {"note": 81, "velocity": 82, "duration": 116}, {"note": 83, "velocity": 83, "duration": 236}, {"note": 81, "velocity": 83, "duration": 116}, {"note": 83, "velocity": 84, "duration": 236}, {"note": 89, "velocity": 91, "duration": 356}, {"note": 88, "velocity": 94, "duration": 716}, {"note": 88, "velocity": 82, "duration": 116}, {"note": 90, "velocity": 86, "duration": 116}, {"note": 91, "velocity": 90, "duration": 236}, {"note": 88, "velocity": 83, "duration": 116}, {"note": 88, "velocity": 84, "duration": 236}, {"note": 90, "velocity": 105, "duration": 236}, {"note": 91, "velocity": 83, "duration": 356}, {"note": 90, "velocity": 84, "duration": 236}, {"note": 88, "velocity": 90, "duration": 236}, {"note": 90, "velocity": 84, "duration": 236}, {"note": 88, "velocity": 84, "duration": 476}, {"note": 83, "velocity": 84, "duration": 236}, {"note": 86, "velocity": 84, "duration": 1196}, {"note": 74, "velocity": 82, "duration": 236}, {"note": 88, "velocity": 95, "duration": 236}, {"note": 83, "velocity": 86, "duration": 236}, {"note": 83, "velocity": 84, "duration": 236}, {"note": 84, "velocity": 82, "duration": 476}, {"note": 86, "velocity": 86, "duration": 596}, {"note": 74, "velocity": 78, "duration": 116}, {"note": 0, "velocity": 0, "duration": 124}, {"note": 88, "velocity": 93, "duration": 236}, {"note": 83, "velocity": 80, "duration": 236}, {"note": 83, "velocity": 83, "duration": 236}, {"note": 84, "velocity": 84, "duration": 476}, {"note": 83, "velocity": 82, "duration": 476}, {"note": 0, "velocity": 0, "duration": 124}, {"note": 79, "velocity": 83, "duration": 146}, {"note": 79, "velocity": 90, "duration": 26}, {"note": 0, "velocity": 0, "duration": 212}, {"note": 91, "velocity": 93, "duration": 318}, {"note": 90, "velocity": 103, "duration": 236}, {"note": 91, "velocity": 83, "duration": 116}, {"note": 90, "velocity": 78, "duration": 236}, {"note": 86, "velocity": 72, "duration": 236}, {"note": 86, "velocity": 71, "duration": 116}, {"note": 90, "velocity": 78, "duration": 236}, {"note": 91, "velocity": 82, "duration": 116}, {"note": 90, "velocity": 78, "duration": 356}, {"note": 0, "velocity": 0, "duration": 124}, {"note": 81, "velocity": 76, "duration": 116}, {"note": 83, "velocity": 82, "duration": 1436}, {"note": 83, "velocity": 91, "duration": 236}, {"note": 84, "velocity": 95, "duration": 116}, {"note": 86, "velocity": 91, "duration": 356}, {"note": 84, "velocity": 93, "duration": 116}, {"note": 83, "velocity": 86, "duration": 356}, {"note": 79, "velocity": 61, "duration": 116}, {"note": 81, "velocity": 83, "duration": 596}, {"note": 83, "velocity": 93, "duration": 236}, {"note": 84, "velocity": 84, "duration": 116}, {"note": 83, "velocity": 86, "duration": 356}, {"note": 84, "velocity": 90, "duration": 116}, {"note": 83, "velocity": 82, "duration": 356}, {"note": 78, "velocity": 83, "duration": 116}, {"note": 79, "velocity": 82, "duration": 596}, {"note": 83, "velocity": 84, "duration": 236}, {"note": 84, "velocity": 75, "duration": 236}, {"note": 86, "velocity": 83, "duration": 236}, {"note": 84, "velocity": 81, "duration": 236}, {"note": 84, "velocity": 56, "duration": 236}, {"note": 91, "velocity": 75, "duration": 236}, {"note": 90, "velocity": 75, "duration": 476}, {"note": 81, "velocity": 79, "duration": 236}, {"note": 84, "velocity": 83, "duration": 1796}, {"note": 83, "velocity": 81, "duration": 356}, {"note": 79, "velocity": 75, "duration": 1916}, {"note": 0, "velocity": 0, "duration": 3604}, {"note": 71, "velocity": 56, "duration": 116}, {"note": 72, "velocity": 75, "duration": 116}, {"note": 74, "velocity": 76, "duration": 236}, {"note": 71, "velocity": 55, "duration": 236}, {"note": 74, "velocity": 76, "duration": 236}, {"note": 71, "velocity": 57, "duration": 236}, {"note": 74, "velocity": 77, "duration": 236}, {"note": 71, "velocity": 56, "duration": 236}, {"note": 74, "velocity": 61, "duration": 236}, {"note": 83, "velocity": 73, "duration": 236}, {"note": 81, "velocity": 56, "duration": 236}, {"note": 79, "velocity": 76, "duration": 116}, {"note": 76, "velocity": 62, "duration": 1076}, {"note": 76, "velocity": 60, "duration": 236}, {"note": 83, "velocity": 75, "duration": 236}, {"note": 81, "velocity": 71, "duration": 236}, {"note": 79, "velocity": 61, "duration": 116}, {"note": 81, "velocity": 60, "duration": 476}, {"note": 74, "velocity": 62, "duration": 116}, {"note": 74, "velocity": 69, "duration": 236}, {"note": 71, "velocity": 72, "duration": 236}, {"note": 74, "velocity": 80, "duration": 116}, {"note": 81, "velocity": 72, "duration": 356}, {"note": 81, "velocity": 56, "duration": 236}, {"note": 78, "velocity": 60, "duration": 476}, {"note": 79, "velocity": 69, "duration": 716}, {"note": 79, "velocity": 63, "duration": 116}, {"note": 81, "velocity": 73, "duration": 236}, {"note": 83, "velocity": 79, "duration": 116}, {"note": 83, "velocity": 82, "duration": 356}, {"note": 76, "velocity": 73, "duration": 356}, {"note": 81, "velocity": 76, "duration": 716}, {"note": 79, "velocity": 38, "duration": 116}, {"note": 81, "velocity": 67, "duration": 116}, {"note": 83, "velocity": 76, "duration": 236}, {"note": 83, "velocity": 84, "duration": 476}, {"note": 74, "velocity": 60, "duration": 236}, {"note": 79, "velocity": 69, "duration": 716}, {"note": 79, "velocity": 62, "duration": 116}, {"note": 81, "velocity": 71, "duration": 236}, {"note": 83, "velocity": 72, "duration": 116}, {"note": 83, "velocity": 79, "duration": 356}, {"note": 76, "velocity": 60, "duration": 116}, {"note": 78, "velocity": 59, "duration": 236}, {"note": 79, "velocity": 71, "duration": 236}, {"note": 79, "velocity": 55, "duration": 236}, {"note": 78, "velocity": 64, "duration": 236}, {"note": 79, "velocity": 64, "duration": 236}, {"note": 81, "velocity": 64, "duration": 236}, {"note": 83, "velocity": 71, "duration": 236}, {"note": 81, "velocity": 62, "duration": 236}, {"note": 79, "velocity": 73, "duration": 236}, {"note": 74, "velocity": 62, "duration": 956}, {"note": 71, "velocity": 56, "duration": 116}, {"note": 72, "velocity": 75, "duration": 116}, {"note": 74, "velocity": 76, "duration": 236}, {"note": 71, "velocity": 55, "duration": 236}, {"note": 74, "velocity": 76, "duration": 236}, {"note": 71, "velocity": 57, "duration": 236}, {"note": 74, "velocity": 77, "duration": 236}, {"note": 71, "velocity": 56, "duration": 236}, {"note": 74, "velocity": 61, "duration": 236}, {"note": 83, "velocity": 73, "duration": 236}, {"note": 81, "velocity": 56, "duration": 236}, {"note": 79, "velocity": 76, "duration": 116}, {"note": 76, "velocity": 62, "duration": 1076}, {"note": 76, "velocity": 60, "duration": 236}, {"note": 83, "velocity": 75, "duration": 236}, {"note": 81, "velocity": 71, "duration": 236}, {"note": 79, "velocity": 61, "duration": 116}, {"note": 81, "velocity": 60, "duration": 476}, {"note": 74, "velocity": 62, "duration": 116}, {"note": 74, "velocity": 69, "duration": 236}, {"note": 71, "velocity": 72, "duration": 236}, {"note": 74, "velocity": 80, "duration": 236}, {"note": 81, "velocity": 72, "duration": 236}, {"note": 81, "velocity": 56, "duration": 236}, {"note": 79, "velocity": 76, "duration": 236}, {"note": 81, "velocity": 61, "duration": 236}, {"note": 83, "velocity": 80, "duration": 716}, {"note": 83, "velocity": 63, "duration": 116}, {"note": 84, "velocity": 73, "duration": 236}, {"note": 86, "velocity": 79, "duration": 116}, {"note": 86, "velocity": 82, "duration": 476}, {"note": 79, "velocity": 73, "duration": 236}, {"note": 81, "velocity": 76, "duration": 716}, {"note": 83, "velocity": 67, "duration": 116}, {"note": 84, "velocity": 67, "duration": 116}, {"note": 86, "velocity": 76, "duration": 236}, {"note": 86, "velocity": 84, "duration": 236}, {"note": 78, "velocity": 71, "duration": 236}, {"note": 81, "velocity": 73, "duration": 236}, {"note": 78, "velocity": 68, "duration": 116}, {"note": 79, "velocity": 57, "duration": 596}, {"note": 83, "velocity": 78, "duration": 236}, {"note": 84, "velocity": 73, "duration": 116}, {"note": 86, "velocity": 76, "duration": 116}, {"note": 86, "velocity": 80, "duration": 236}, {"note": 79, "velocity": 73, "duration": 116}, {"note": 88, "velocity": 81, "duration": 236}, {"note": 86, "velocity": 79, "duration": 356}, {"note": 83, "velocity": 80, "duration": 236}, {"note": 84, "velocity": 76, "duration": 116}, {"note": 83, "velocity": 80, "duration": 476}, {"note": 79, "velocity": 63, "duration": 116}, {"note": 81, "velocity": 79, "duration": 1196}, {"note": 74, "velocity": 82, "duration": 236}, {"note": 88, "velocity": 95, "duration": 236}, {"note": 83, "velocity": 86, "duration": 236}, {"note": 83, "velocity": 84, "duration": 236}, {"note": 84, "velocity": 82, "duration": 476}, {"note": 86, "velocity": 86, "duration": 596}, {"note": 74, "velocity": 78, "duration": 116}, {"note": 88, "velocity": 93, "duration": 236}, {"note": 83, "velocity": 80, "duration": 236}, {"note": 83, "velocity": 83, "duration": 236}, {"note": 84, "velocity": 84, "duration": 476}, {"note": 83, "velocity": 82, "duration": 476}, {"note": 79, "velocity": 83, "duration": 116}, {"note": 79, "velocity": 90, "duration": 236}, {"note": 91, "velocity": 93, "duration": 356}, {"note": 90, "velocity": 103, "duration": 236}, {"note": 91, "velocity": 83, "duration": 116}, {"note": 90, "velocity": 78, "duration": 236}, {"note": 86, "velocity": 72, "duration": 236}, {"note": 86, "velocity": 71, "duration": 116}, {"note": 90, "velocity": 78, "duration": 236}, {"note": 91, "velocity": 82, "duration": 116}, {"note": 90, "velocity": 78, "duration": 356}, {"note": 81, "velocity": 76, "duration": 116}, {"note": 83, "velocity": 82, "duration": 1556}, {"note": 83, "velocity": 91, "duration": 236}, {"note": 84, "velocity": 95, "duration": 116}, {"note": 86, "velocity": 91, "duration": 356}, {"note": 84, "velocity": 93, "duration": 116}, {"note": 84, "velocity": 86, "duration": 356}, {"note": 79, "velocity": 61, "duration": 116}, {"note": 81, "velocity": 83, "duration": 596}, {"note": 83, "velocity": 84, "duration": 236}, {"note": 84, "velocity": 86, "duration": 116}, {"note": 83, "velocity": 93, "duration": 356}, {"note": 84, "velocity": 90, "duration": 116}, {"note": 83, "velocity": 93, "duration": 356}, {"note": 78, "velocity": 79, "duration": 116}, {"note": 79, "velocity": 77, "duration": 596}, {"note": 83, "velocity": 91, "duration": 236}, {"note": 84, "velocity": 82, "duration": 116}, {"note": 86, "velocity": 83, "duration": 356}, {"note": 84, "velocity": 98, "duration": 116}, {"note": 84, "velocity": 98, "duration": 236}, {"note": 91, "velocity": 83, "duration": 356}, {"note": 90, "velocity": 105, "duration": 356}, {"note": 81, "velocity": 83, "duration": 116}, {"note": 0, "velocity": 0, "duration": 124}, {"note": 84, "velocity": 83, "duration": 476}, {"note": 83, "velocity": 95, "duration": 1916}, {"note": 79, "velocity": 83, "duration": 116}, {"note": 0, "velocity": 0, "duration": 5044}, {"note": 74, "velocity": 61, "duration": 242}, {"note": 88, "velocity": 83, "duration": 190}, {"note": 83, "velocity": 95, "duration": 176}, {"note": 0, "velocity": 0, "duration": 64}, {"note": 83, "velocity": 90, "duration": 206}, {"note": 84, "velocity": 86, "duration": 313}, {"note": 0, "velocity": 0, "duration": 167}, {"note": 86, "velocity": 80, "duration": 322}, {"note": 0, "velocity": 0, "duration": 278}, {"note": 74, "velocity": 71, "duration": 62}, {"note": 88, "velocity": 90, "duration": 307}, {"note": 83, "velocity": 82, "duration": 174}, {"note": 0, "velocity": 0, "duration": 66}, {"note": 83, "velocity": 84, "duration": 188}, {"note": 84, "velocity": 84, "duration": 357}, {"note": 0, "velocity": 0, "duration": 123}, {"note": 83, "velocity": 84, "duration": 374}, {"note": 0, "velocity": 0, "duration": 226}, {"note": 79, "velocity": 93, "duration": 52}, {"note": 0, "velocity": 0, "duration": 68}, {"note": 79, "velocity": 95, "duration": 212}, {"note": 91, "velocity": 90, "duration": 166}, {"note": 0, "velocity": 0, "duration": 74}, {"note": 90, "velocity": 106, "duration": 186}, {"note": 91, "velocity": 82, "duration": 67}, {"note": 90, "velocity": 83, "duration": 116}, {"note": 0, "velocity": 0, "duration": 124}, {"note": 86, "velocity": 93, "duration": 165}, {"note": 0, "velocity": 0, "duration": 75}, {"note": 86, "velocity": 83, "duration": 64}, {"note": 90, "velocity": 101, "duration": 162}, {"note": 0, "velocity": 0, "duration": 78}, {"note": 91, "velocity": 83, "duration": 80}, {"note": 90, "velocity": 110, "duration": 64}, {"note": 0, "velocity": 0, "duration": 416}, {"note": 81, "velocity": 86, "duration": 155}, {"note": 83, "velocity": 94, "duration": 421}, {"note": 86, "velocity": 100, "duration": 667}, {"note": 0, "velocity": 0, "duration": 293}, {"note": 83, "velocity": 100, "duration": 217}, {"note": 84, "velocity": 94, "duration": 183}, {"note": 86, "velocity": 93, "duration": 195}, {"note": 84, "velocity": 98, "duration": 60}, {"note": 0, "velocity": 0, "duration": 180}, {"note": 84, "velocity": 94, "duration": 313}, {"note": 83, "velocity": 95, "duration": 80}, {"note": 84, "velocity": 100, "duration": 287}, {"note": 0, "velocity": 0, "duration": 73}, {"note": 74, "velocity": 86, "duration": 69}, {"note": 0, "velocity": 0, "duration": 411}, {"note": 83, "velocity": 95, "duration": 120}, {"note": 81, "velocity": 90, "duration": 88}, {"note": 83, "velocity": 98, "duration": 193}, {"note": 81, "velocity": 86, "duration": 84}, {"note": 83, "velocity": 91, "duration": 108}, {"note": 0, "velocity": 0, "duration": 132}, {"note": 90, "velocity": 106, "duration": 290}, {"note": 0, "velocity": 0, "duration": 70}, {"note": 88, "velocity": 95, "duration": 367}, {"note": 0, "velocity": 0, "duration": 353}, {"note": 88, "velocity": 91, "duration": 83}, {"note": 90, "velocity": 98, "duration": 72}, {"note": 91, "velocity": 98, "duration": 229}, {"note": 88, "velocity": 93, "duration": 49}, {"note": 0, "velocity": 0, "duration": 71}, {"note": 88, "velocity": 98, "duration": 185}, {"note": 90, "velocity": 105, "duration": 160}, {"note": 0, "velocity": 0, "duration": 80}, {"note": 91, "velocity": 94, "duration": 262}, {"note": 0, "velocity": 0, "duration": 98}, {"note": 90, "velocity": 98, "duration": 207}, {"note": 88, "velocity": 93, "duration": 229}, {"note": 90, "velocity": 106, "duration": 221}, {"note": 88, "velocity": 98, "duration": 356}, {"note": 83, "velocity": 100, "duration": 332}, {"note": 86, "velocity": 90, "duration": 379}, {"note": 0, "velocity": 0, "duration": 101}, {"note": 74, "velocity": 61, "duration": 242}, {"note": 88, "velocity": 83, "duration": 190}, {"note": 83, "velocity": 95, "duration": 176}, {"note": 0, "velocity": 0, "duration": 64}, {"note": 83, "velocity": 90, "duration": 206}, {"note": 84, "velocity": 86, "duration": 313}, {"note": 0, "velocity": 0, "duration": 167}, {"note": 86, "velocity": 80, "duration": 322}, {"note": 0, "velocity": 0, "duration": 278}, {"note": 74, "velocity": 71, "duration": 62}, {"note": 88, "velocity": 90, "duration": 307}, {"note": 83, "velocity": 82, "duration": 174}, {"note": 0, "velocity": 0, "duration": 66}, {"note": 83, "velocity": 84, "duration": 188}, {"note": 84, "velocity": 84, "duration": 357}, {"note": 0, "velocity": 0, "duration": 123}, {"note": 83, "velocity": 84, "duration": 374}, {"note": 0, "velocity": 0, "duration": 226}, {"note": 79, "velocity": 93, "duration": 52}, {"note": 0, "velocity": 0, "duration": 68}, {"note": 79, "velocity": 95, "duration": 212}, {"note": 91, "velocity": 90, "duration": 166}, {"note": 0, "velocity": 0, "duration": 74}, {"note": 90, "velocity": 106, "duration": 186}, {"note": 91, "velocity": 82, "duration": 67}, {"note": 90, "velocity": 83, "duration": 116}, {"note": 0, "velocity": 0, "duration": 124}, {"note": 86, "velocity": 93, "duration": 165}, {"note": 0, "velocity": 0, "duration": 75}, {"note": 86, "velocity": 83, "duration": 64}, {"note": 90, "velocity": 101, "duration": 162}, {"note": 0, "velocity": 0, "duration": 78}, {"note": 91, "velocity": 83, "duration": 80}, {"note": 90, "velocity": 110, "duration": 64}, {"note": 0, "velocity": 0, "duration": 416}, {"note": 81, "velocity": 86, "duration": 155}, {"note": 83, "velocity": 94, "duration": 421}, {"note": 86, "velocity": 100, "duration": 667}, {"note": 0, "velocity": 0, "duration": 293}, {"note": 83, "velocity": 100, "duration": 217}, {"note": 84, "velocity": 94, "duration": 183}, {"note": 86, "velocity": 93, "duration": 195}, {"note": 0, "velocity": 0, "duration": 165}, {"note": 84, "velocity": 98, "duration": 60}, {"note": 83, "velocity": 94, "duration": 313}, {"note": 79, "velocity": 95, "duration": 80}, {"note": 81, "velocity": 100, "duration": 287}, {"note": 0, "velocity": 0, "duration": 313}, {"note": 83, "velocity": 100, "duration": 287}, {"note": 84, "velocity": 95, "duration": 121}, {"note": 0, "velocity": 0, "duration": 119}, {"note": 83, "velocity": 98, "duration": 193}, {"note": 84, "velocity": 86, "duration": 84}, {"note": 83, "velocity": 91, "duration": 108}, {"note": 0, "velocity": 0, "duration": 252}, {"note": 78, "velocity": 84, "duration": 88}, {"note": 79, "velocity": 90, "duration": 517}, {"note": 0, "velocity": 0, "duration": 83}, {"note": 83, "velocity": 98, "duration": 202}, {"note": 84, "velocity": 90, "duration": 147}, {"note": 86, "velocity": 84, "duration": 326}, {"note": 84, "velocity": 93, "duration": 98}, {"note": 84, "velocity": 90, "duration": 274}, {"note": 0, "velocity": 0, "duration": 86}, {"note": 90, "velocity": 78, "duration": 142}, {"note": 0, "velocity": 0, "duration": 98}, {"note": 90, "velocity": 91, "duration": 376}, {"note": 0, "velocity": 0, "duration": 104}, {"note": 81, "velocity": 86, "duration": 201}, {"note": 84, "velocity": 82, "duration": 533}, {"note": 0, "velocity": 0, "duration": 667}, {"note": 83, "velocity": 82, "duration": 234}, {"note": 0, "velocity": 0, "duration": 126}, {"note": 79, "velocity": 84, "duration": 596}]]