[[{"note": 71, "velocity": 86, "duration": 238}, {"note": 79, "velocity": 93, "duration": 477}, {"note": 79, "velocity": 95, "duration": 237}, {"note": 79, "velocity": 90, "duration": 718}, {"note": 78, "velocity": 100, "duration": 478}, {"note": 76, "velocity": 94, "duration": 478}, {"note": 79, "velocity": 99, "duration": 498}, {"note": 78, "velocity": 106, "duration": 727}, {"note": 74, "velocity": 85, "duration": 2638}, {"note": 71, "velocity": 90, "duration": 272}, {"note": 74, "velocity": 91, "duration": 275}, {"note": 76, "velocity": 100, "duration": 1917}, {"note": 76, "velocity": 100, "duration": 480}, {"note": 74, "velocity": 97, "duration": 282}, {"note": 72, "velocity": 71, "duration": 482}, {"note": 74, "velocity": 87, "duration": 478}, {"note": 71, "velocity": 92, "duration": 2176}, {"note": 0, "velocity": 0, "duration": 2624}, {"note": 71, "velocity": 90, "duration": 238}, {"note": 79, "velocity": 93, "duration": 477}, {"note": 79, "velocity": 99, "duration": 237}, {"note": 79, "velocity": 98, "duration": 740}, {"note": 0, "velocity": 0, "duration": 100}, {"note": 78, "velocity": 97, "duration": 485}, {"note": 76, "velocity": 90, "duration": 478}, {"note": 79, "velocity": 96, "duration": 478}, {"note": 78, "velocity": 100, "duration": 958}, {"note": 83, "velocity": 95, "duration": 469}, {"note": 78, "velocity": 100, "duration": 1878}, {"note": 71, "velocity": 87, "duration": 407}, {"note": 74, "velocity": 91, "duration": 361}, {"note": 76, "velocity": 100, "duration": 1490}, {"note": 0, "velocity": 0, "duration": 70}, {"note": 76, "velocity": 92, "duration": 373}, {"note": 79, "velocity": 89, "duration": 495}, {"note": 78, "velocity": 92, "duration": 238}, {"note": 76, "velocity": 93, "duration": 718}, {"note": 74, "velocity": 100, "duration": 520}, {"note": 76, "velocity": 106, "duration": 3331}, {"note": 74, "velocity": 111, "duration": 487}, {"note": 76, "velocity": 106, "duration": 739}, {"note": 83, "velocity": 108, "duration": 2158}, {"note": 81, "velocity": 108, "duration": 478}, {"note": 79, "velocity": 108, "duration": 514}, {"note": 81, "velocity": 101, "duration": 2878}, {"note": 79, "velocity": 109, "duration": 478}, {"note": 78, "velocity": 114, "duration": 478}, {"note": 76, "velocity": 114, "duration": 1438}, {"note": 79, "velocity": 101, "duration": 478}, {"note": 78, "velocity": 114, "duration": 1558}, {"note": 74, "velocity": 109, "duration": 794}, {"note": 0, "velocity": 0, "duration": 166}, {"note": 71, "velocity": 100, "duration": 2998}, {"note": 74, "velocity": 109, "duration": 478}, {"note": 76, "velocity": 109, "duration": 967}, {"note": 83, "velocity": 105, "duration": 1918}, {"note": 81, "velocity": 108, "duration": 478}, {"note": 79, "velocity": 100, "duration": 482}, {"note": 81, "velocity": 103, "duration": 958}, {"note": 86, "velocity": 109, "duration": 958}, {"note": 83, "velocity": 101, "duration": 1438}, {"note": 76, "velocity": 105, "duration": 265}, {"note": 78, "velocity": 93, "duration": 278}, {"note": 79, "velocity": 109, "duration": 1918}, {"note": 81, "velocity": 109, "duration": 746}, {"note": 79, "velocity": 101, "duration": 718}, {"note": 81, "velocity": 100, "duration": 482}, {"note": 83, "velocity": 108, "duration": 2830}, {"note": 76, "velocity": 100, "duration": 478}, {"note": 78, "velocity": 100, "duration": 526}, {"note": 79, "velocity": 97, "duration": 966}, {"note": 83, "velocity": 111, "duration": 958}, {"note": 81, "velocity": 109, "duration": 1918}, {"note": 79, "velocity": 108, "duration": 513}, {"note": 78, "velocity": 106, "duration": 478}, {"note": 79, "velocity": 97, "duration": 489}, {"note": 81, "velocity": 98, "duration": 494}, {"note": 79, "velocity": 108, "duration": 957}, {"note": 79, "velocity": 105, "duration": 504}, {"note": 78, "velocity": 103, "duration": 478}, {"note": 76, "velocity": 100, "duration": 958}, {"note": 79, "velocity": 106, "duration": 1025}, {"note": 78, "velocity": 101, "duration": 1438}, {"note": 74, "velocity": 97, "duration": 478}, {"note": 71, "velocity": 98, "duration": 2878}, {"note": 76, "velocity": 114, "duration": 478}, {"note": 78, "velocity": 103, "duration": 524}, {"note": 79, "velocity": 106, "duration": 958}, {"note": 83, "velocity": 97, "duration": 966}, {"note": 81, "velocity": 114, "duration": 1918}, {"note": 79, "velocity": 105, "duration": 478}, {"note": 78, "velocity": 106, "duration": 478}, {"note": 79, "velocity": 100, "duration": 520}, {"note": 81, "velocity": 105, "duration": 516}, {"note": 83, "velocity": 106, "duration": 1077}, {"note": 83, "velocity": 111, "duration": 117}, {"note": 0, "velocity": 0, "duration": 363}, {"note": 79, "velocity": 106, "duration": 478}, {"note": 76, "velocity": 101, "duration": 1438}, {"note": 79, "velocity": 109, "duration": 478}, {"note": 78, "velocity": 105, "duration": 1438}, {"note": 74, "velocity": 94, "duration": 982}, {"note": 76, "velocity": 101, "duration": 3361}, {"note": 0, "velocity": 0, "duration": 30239}, {"note": 74, "velocity": 111, "duration": 487}, {"note": 76, "velocity": 106, "duration": 739}, {"note": 0, "velocity": 0, "duration": 101}, {"note": 83, "velocity": 108, "duration": 2158}, {"note": 81, "velocity": 108, "duration": 478}, {"note": 79, "velocity": 108, "duration": 514}, {"note": 81, "velocity": 101, "duration": 2878}, {"note": 79, "velocity": 109, "duration": 478}, {"note": 78, "velocity": 114, "duration": 478}, {"note": 76, "velocity": 114, "duration": 1438}, {"note": 79, "velocity": 101, "duration": 478}, {"note": 78, "velocity": 114, "duration": 1438}, {"note": 74, "velocity": 109, "duration": 473}, {"note": 71, "velocity": 100, "duration": 1912}, {"note": 0, "velocity": 0, "duration": 1448}, {"note": 74, "velocity": 109, "duration": 478}, {"note": 76, "velocity": 109, "duration": 967}, {"note": 83, "velocity": 105, "duration": 1918}, {"note": 81, "velocity": 108, "duration": 478}, {"note": 79, "velocity": 100, "duration": 482}, {"note": 81, "velocity": 103, "duration": 958}, {"note": 86, "velocity": 109, "duration": 958}, {"note": 83, "velocity": 101, "duration": 1438}, {"note": 76, "velocity": 105, "duration": 265}, {"note": 78, "velocity": 93, "duration": 278}, {"note": 79, "velocity": 109, "duration": 1918}, {"note": 81, "velocity": 109, "duration": 746}, {"note": 79, "velocity": 101, "duration": 718}, {"note": 81, "velocity": 100, "duration": 482}, {"note": 83, "velocity": 108, "duration": 2878}, {"note": 76, "velocity": 100, "duration": 478}, {"note": 78, "velocity": 100, "duration": 526}, {"note": 79, "velocity": 97, "duration": 966}, {"note": 83, "velocity": 111, "duration": 958}, {"note": 81, "velocity": 109, "duration": 1918}, {"note": 79, "velocity": 108, "duration": 513}, {"note": 78, "velocity": 106, "duration": 478}, {"note": 79, "velocity": 97, "duration": 489}, {"note": 81, "velocity": 98, "duration": 494}, {"note": 79, "velocity": 108, "duration": 957}, {"note": 79, "velocity": 105, "duration": 504}, {"note": 78, "velocity": 103, "duration": 478}, {"note": 76, "velocity": 100, "duration": 958}, {"note": 79, "velocity": 106, "duration": 1025}, {"note": 78, "velocity": 101, "duration": 1438}, {"note": 74, "velocity": 97, "duration": 478}, {"note": 71, "velocity": 98, "duration": 2846}, {"note": 76, "velocity": 114, "duration": 478}, {"note": 78, "velocity": 103, "duration": 524}, {"note": 79, "velocity": 106, "duration": 958}, {"note": 83, "velocity": 97, "duration": 966}, {"note": 81, "velocity": 114, "duration": 1918}, {"note": 79, "velocity": 105, "duration": 478}, {"note": 78, "velocity": 106, "duration": 478}, {"note": 79, "velocity": 100, "duration": 520}, {"note": 81, "velocity": 105, "duration": 516}, {"note": 83, "velocity": 106, "duration": 961}, {"note": 83, "velocity": 111, "duration": 1}, {"note": 0, "velocity": 0, "duration": 479}, {"note": 79, "velocity": 106, "duration": 478}, {"note": 76, "velocity": 101, "duration": 1438}, {"note": 79, "velocity": 109, "duration": 478}, {"note": 78, "velocity": 105, "duration": 1438}, {"note": 74, "velocity": 94, "duration": 589}, {"note": 76, "velocity": 101, "duration": 3240}, {"note": 76, "velocity": 100, "duration": 480}, {"note": 78, "velocity": 100, "duration": 475}, {"note": 79, "velocity": 97, "duration": 966}, {"note": 83, "velocity": 111, "duration": 958}, {"note": 81, "velocity": 109, "duration": 1918}, {"note": 79, "velocity": 108, "duration": 513}, {"note": 78, "velocity": 106, "duration": 478}, {"note": 79, "velocity": 97, "duration": 489}, {"note": 81, "velocity": 98, "duration": 494}, {"note": 79, "velocity": 108, "duration": 957}, {"note": 79, "velocity": 105, "duration": 504}, {"note": 78, "velocity": 103, "duration": 478}, {"note": 76, "velocity": 100, "duration": 958}, {"note": 79, "velocity": 106, "duration": 956}, {"note": 78, "velocity": 101, "duration": 1438}, {"note": 86, "velocity": 97, "duration": 839}, {"note": 83, "velocity": 127, "duration": 2501}, {"note": 0, "velocity": 0, "duration": 499}, {"note": 76, "velocity": 114, "duration": 237}, {"note": 78, "velocity": 103, "duration": 243}, {"note": 79, "velocity": 106, "duration": 958}, {"note": 83, "velocity": 97, "duration": 966}, {"note": 81, "velocity": 114, "duration": 1918}, {"note": 79, "velocity": 105, "duration": 478}, {"note": 78, "velocity": 106, "duration": 478}, {"note": 79, "velocity": 100, "duration": 520}, {"note": 81, "velocity": 105, "duration": 516}, {"note": 83, "velocity": 106, "duration": 2970}, {"note": 0, "velocity": 0, "duration": 1710}, {"note": 83, "velocity": 98, "duration": 615}, {"note": 79, "velocity": 99, "duration": 511}, {"note": 76, "velocity": 105, "duration": 1438}, {"note": 79, "velocity": 77, "duration": 480}, {"note": 78, "velocity": 99, "duration": 1345}, {"note": 0, "velocity": 0, "duration": 95}, {"note": 74, "velocity": 98, "duration": 497}, {"note": 76, "velocity": 91, "duration": 2869}, {"note": 79, "velocity": 98, "duration": 467}, {"note": 78, "velocity": 99, "duration": 478}, {"note": 76, "velocity": 99, "duration": 958}, {"note": 79, "velocity": 101, "duration": 960}, {"note": 78, "velocity": 100, "duration": 718}, {"note": 0, "velocity": 0, "duration": 2642}, {"note": 74, "velocity": 92, "duration": 243}, {"note": 0, "velocity": 0, "duration": 237}, {"note": 76, "velocity": 92, "duration": 958}]]