[[{"note": 66, "velocity": 77, "duration": 356}, {"note": 61, "velocity": 91, "duration": 116}, {"note": 66, "velocity": 69, "duration": 116}, {"note": 68, "velocity": 79, "duration": 116}, {"note": 69, "velocity": 78, "duration": 116}, {"note": 71, "velocity": 99, "duration": 116}, {"note": 73, "velocity": 90, "duration": 716}, {"note": 73, "velocity": 103, "duration": 182}, {"note": 81, "velocity": 96, "duration": 356}, {"note": 73, "velocity": 85, "duration": 104}, {"note": 78, "velocity": 81, "duration": 356}, {"note": 73, "velocity": 91, "duration": 7}, {"note": 76, "velocity": 91, "duration": 396}, {"note": 66, "velocity": 78, "duration": 356}, {"note": 61, "velocity": 92, "duration": 116}, {"note": 66, "velocity": 72, "duration": 116}, {"note": 68, "velocity": 92, "duration": 116}, {"note": 69, "velocity": 90, "duration": 116}, {"note": 71, "velocity": 96, "duration": 116}, {"note": 73, "velocity": 86, "duration": 716}, {"note": 76, "velocity": 96, "duration": 236}, {"note": 71, "velocity": 82, "duration": 356}, {"note": 73, "velocity": 79, "duration": 116}, {"note": 71, "velocity": 81, "duration": 356}, {"note": 64, "velocity": 54, "duration": 116}, {"note": 66, "velocity": 54, "duration": 33}, {"note": 66, "velocity": 77, "duration": 356}, {"note": 61, "velocity": 91, "duration": 116}, {"note": 66, "velocity": 69, "duration": 116}, {"note": 68, "velocity": 79, "duration": 116}, {"note": 69, "velocity": 78, "duration": 116}, {"note": 71, "velocity": 99, "duration": 116}, {"note": 73, "velocity": 90, "duration": 62}, {"note": 73, "velocity": 103, "duration": 116}, {"note": 81, "velocity": 96, "duration": 356}, {"note": 73, "velocity": 85, "duration": 104}, {"note": 78, "velocity": 81, "duration": 356}, {"note": 73, "velocity": 91, "duration": 7}, {"note": 76, "velocity": 91, "duration": 396}, {"note": 66, "velocity": 78, "duration": 356}, {"note": 61, "velocity": 92, "duration": 116}, {"note": 66, "velocity": 72, "duration": 116}, {"note": 68, "velocity": 92, "duration": 116}, {"note": 69, "velocity": 90, "duration": 116}, {"note": 71, "velocity": 96, "duration": 116}, {"note": 73, "velocity": 86, "duration": 716}, {"note": 76, "velocity": 96, "duration": 236}, {"note": 71, "velocity": 82, "duration": 356}, {"note": 73, "velocity": 79, "duration": 116}, {"note": 71, "velocity": 81, "duration": 236}, {"note": 64, "velocity": 54, "duration": 116}, {"note": 66, "velocity": 54, "duration": 836}, {"note": 66, "velocity": 60, "duration": 116}, {"note": 69, "velocity": 82, "duration": 116}, {"note": 71, "velocity": 86, "duration": 236}, {"note": 71, "velocity": 92, "duration": 116}, {"note": 69, "velocity": 86, "duration": 116}, {"note": 66, "velocity": 94, "duration": 236}, {"note": 66, "velocity": 91, "duration": 116}, {"note": 69, "velocity": 78, "duration": 116}, {"note": 71, "velocity": 76, "duration": 236}, {"note": 71, "velocity": 86, "duration": 116}, {"note": 69, "velocity": 85, "duration": 116}, {"note": 66, "velocity": 91, "duration": 236}, {"note": 69, "velocity": 96, "duration": 116}, {"note": 71, "velocity": 85, "duration": 116}, {"note": 73, "velocity": 107, "duration": 356}, {"note": 76, "velocity": 85, "duration": 116}, {"note": 71, "velocity": 107, "duration": 236}, {"note": 76, "velocity": 92, "duration": 116}, {"note": 73, "velocity": 99, "duration": 836}, {"note": 66, "velocity": 60, "duration": 116}, {"note": 69, "velocity": 82, "duration": 116}, {"note": 71, "velocity": 86, "duration": 236}, {"note": 71, "velocity": 92, "duration": 116}, {"note": 69, "velocity": 86, "duration": 116}, {"note": 66, "velocity": 94, "duration": 236}, {"note": 66, "velocity": 91, "duration": 116}, {"note": 69, "velocity": 78, "duration": 116}, {"note": 71, "velocity": 76, "duration": 236}, {"note": 71, "velocity": 86, "duration": 116}, {"note": 69, "velocity": 85, "duration": 116}, {"note": 66, "velocity": 91, "duration": 236}, {"note": 69, "velocity": 96, "duration": 116}, {"note": 71, "velocity": 85, "duration": 116}, {"note": 73, "velocity": 107, "duration": 356}, {"note": 76, "velocity": 85, "duration": 116}, {"note": 71, "velocity": 107, "duration": 236}, {"note": 76, "velocity": 92, "duration": 116}, {"note": 73, "velocity": 99, "duration": 116}, {"note": 76, "velocity": 99, "duration": 956}, {"note": 78, "velocity": 94, "duration": 476}, {"note": 73, "velocity": 99, "duration": 116}, {"note": 78, "velocity": 99, "duration": 116}, {"note": 73, "velocity": 113, "duration": 116}, {"note": 78, "velocity": 92, "duration": 836}, {"note": 73, "velocity": 99, "duration": 236}, {"note": 80, "velocity": 107, "duration": 476}, {"note": 73, "velocity": 65, "duration": 116}, {"note": 80, "velocity": 94, "duration": 116}, {"note": 73, "velocity": 99, "duration": 116}, {"note": 80, "velocity": 99, "duration": 836}, {"note": 73, "velocity": 103, "duration": 236}, {"note": 81, "velocity": 113, "duration": 356}, {"note": 81, "velocity": 97, "duration": 116}, {"note": 83, "velocity": 88, "duration": 116}, {"note": 81, "velocity": 107, "duration": 116}, {"note": 78, "velocity": 96, "duration": 236}, {"note": 78, "velocity": 91, "duration": 236}, {"note": 76, "velocity": 91, "duration": 236}, {"note": 76, "velocity": 107, "duration": 236}, {"note": 71, "velocity": 107, "duration": 116}, {"note": 73, "velocity": 107, "duration": 716}, {"note": 71, "velocity": 92, "duration": 116}, {"note": 69, "velocity": 92, "duration": 116}, {"note": 71, "velocity": 78, "duration": 116}, {"note": 73, "velocity": 99, "duration": 956}, {"note": 78, "velocity": 65, "duration": 476}, {"note": 73, "velocity": 90, "duration": 116}, {"note": 78, "velocity": 94, "duration": 116}, {"note": 73, "velocity": 96, "duration": 116}, {"note": 78, "velocity": 92, "duration": 836}, {"note": 73, "velocity": 117, "duration": 236}, {"note": 80, "velocity": 124, "duration": 476}, {"note": 73, "velocity": 92, "duration": 116}, {"note": 80, "velocity": 92, "duration": 116}, {"note": 73, "velocity": 97, "duration": 116}, {"note": 80, "velocity": 106, "duration": 836}, {"note": 73, "velocity": 91, "duration": 236}, {"note": 81, "velocity": 111, "duration": 356}, {"note": 81, "velocity": 101, "duration": 116}, {"note": 81, "velocity": 99, "duration": 236}, {"note": 78, "velocity": 72, "duration": 236}, {"note": 78, "velocity": 103, "duration": 236}, {"note": 76, "velocity": 92, "duration": 236}, {"note": 76, "velocity": 92, "duration": 116}, {"note": 73, "velocity": 92, "duration": 236}, {"note": 73, "velocity": 78, "duration": 116}, {"note": 78, "velocity": 50, "duration": 1916}, {"note": 0, "velocity": 0, "duration": 5524}, {"note": 66, "velocity": 60, "duration": 116}, {"note": 69, "velocity": 82, "duration": 116}, {"note": 71, "velocity": 86, "duration": 236}, {"note": 71, "velocity": 92, "duration": 116}, {"note": 69, "velocity": 86, "duration": 116}, {"note": 66, "velocity": 94, "duration": 236}, {"note": 66, "velocity": 91, "duration": 116}, {"note": 69, "velocity": 78, "duration": 116}, {"note": 71, "velocity": 76, "duration": 236}, {"note": 71, "velocity": 86, "duration": 116}, {"note": 69, "velocity": 85, "duration": 116}, {"note": 66, "velocity": 91, "duration": 236}, {"note": 69, "velocity": 96, "duration": 116}, {"note": 71, "velocity": 85, "duration": 116}, {"note": 73, "velocity": 107, "duration": 356}, {"note": 76, "velocity": 85, "duration": 116}, {"note": 71, "velocity": 107, "duration": 236}, {"note": 76, "velocity": 92, "duration": 116}, {"note": 73, "velocity": 99, "duration": 836}, {"note": 66, "velocity": 60, "duration": 116}, {"note": 69, "velocity": 82, "duration": 116}, {"note": 71, "velocity": 86, "duration": 236}, {"note": 71, "velocity": 92, "duration": 116}, {"note": 69, "velocity": 86, "duration": 116}, {"note": 66, "velocity": 94, "duration": 236}, {"note": 66, "velocity": 91, "duration": 116}, {"note": 69, "velocity": 78, "duration": 116}, {"note": 71, "velocity": 76, "duration": 236}, {"note": 71, "velocity": 86, "duration": 116}, {"note": 69, "velocity": 85, "duration": 116}, {"note": 66, "velocity": 91, "duration": 236}, {"note": 69, "velocity": 96, "duration": 116}, {"note": 71, "velocity": 85, "duration": 116}, {"note": 73, "velocity": 107, "duration": 356}, {"note": 76, "velocity": 85, "duration": 116}, {"note": 71, "velocity": 107, "duration": 236}, {"note": 76, "velocity": 92, "duration": 116}, {"note": 73, "velocity": 99, "duration": 116}, {"note": 76, "velocity": 99, "duration": 956}, {"note": 78, "velocity": 94, "duration": 476}, {"note": 73, "velocity": 99, "duration": 116}, {"note": 78, "velocity": 99, "duration": 116}, {"note": 73, "velocity": 113, "duration": 116}, {"note": 78, "velocity": 92, "duration": 836}, {"note": 73, "velocity": 99, "duration": 236}, {"note": 80, "velocity": 107, "duration": 476}, {"note": 73, "velocity": 65, "duration": 116}, {"note": 80, "velocity": 94, "duration": 116}, {"note": 73, "velocity": 99, "duration": 116}, {"note": 80, "velocity": 99, "duration": 836}, {"note": 73, "velocity": 103, "duration": 236}, {"note": 81, "velocity": 113, "duration": 356}, {"note": 81, "velocity": 97, "duration": 116}, {"note": 83, "velocity": 88, "duration": 116}, {"note": 81, "velocity": 107, "duration": 116}, {"note": 78, "velocity": 96, "duration": 236}, {"note": 78, "velocity": 91, "duration": 236}, {"note": 76, "velocity": 91, "duration": 236}, {"note": 76, "velocity": 107, "duration": 236}, {"note": 71, "velocity": 107, "duration": 116}, {"note": 73, "velocity": 107, "duration": 716}, {"note": 71, "velocity": 92, "duration": 116}, {"note": 69, "velocity": 92, "duration": 116}, {"note": 71, "velocity": 78, "duration": 116}, {"note": 73, "velocity": 99, "duration": 956}, {"note": 78, "velocity": 65, "duration": 476}, {"note": 73, "velocity": 90, "duration": 116}, {"note": 78, "velocity": 94, "duration": 116}, {"note": 73, "velocity": 96, "duration": 116}, {"note": 78, "velocity": 92, "duration": 836}, {"note": 73, "velocity": 117, "duration": 236}, {"note": 80, "velocity": 124, "duration": 476}, {"note": 73, "velocity": 92, "duration": 116}, {"note": 80, "velocity": 92, "duration": 116}, {"note": 73, "velocity": 97, "duration": 116}, {"note": 80, "velocity": 106, "duration": 836}, {"note": 73, "velocity": 91, "duration": 236}, {"note": 81, "velocity": 111, "duration": 356}, {"note": 81, "velocity": 101, "duration": 116}, {"note": 81, "velocity": 99, "duration": 236}, {"note": 78, "velocity": 72, "duration": 236}, {"note": 78, "velocity": 103, "duration": 236}, {"note": 76, "velocity": 92, "duration": 236}, {"note": 76, "velocity": 92, "duration": 116}, {"note": 73, "velocity": 92, "duration": 236}, {"note": 73, "velocity": 78, "duration": 116}, {"note": 78, "velocity": 50, "duration": 1916}, {"note": 73, "velocity": 91, "duration": 236}, {"note": 81, "velocity": 111, "duration": 356}, {"note": 81, "velocity": 101, "duration": 116}, {"note": 93, "velocity": 99, "duration": 60}, {"note": 81, "velocity": 99, "duration": 180}, {"note": 78, "velocity": 72, "duration": 236}, {"note": 78, "velocity": 103, "duration": 236}, {"note": 76, "velocity": 92, "duration": 236}, {"note": 0, "velocity": 0, "duration": 244}, {"note": 76, "velocity": 92, "duration": 116}, {"note": 73, "velocity": 92, "duration": 116}, {"note": 0, "velocity": 0, "duration": 124}, {"note": 73, "velocity": 92, "duration": 236}, {"note": 73, "velocity": 78, "duration": 116}, {"note": 78, "velocity": 50, "duration": 1916}]]