[[{"note": 64, "velocity": 84, "duration": 116}, {"note": 66, "velocity": 94, "duration": 116}, {"note": 66, "velocity": 84, "duration": 116}, {"note": 68, "velocity": 65, "duration": 236}, {"note": 68, "velocity": 76, "duration": 356}, {"note": 64, "velocity": 65, "duration": 236}, {"note": 69, "velocity": 102, "duration": 476}, {"note": 68, "velocity": 72, "duration": 236}, {"note": 66, "velocity": 86, "duration": 116}, {"note": 0, "velocity": 0, "duration": 64}, {"note": 64, "velocity": 60, "duration": 116}, {"note": 66, "velocity": 84, "duration": 116}, {"note": 0, "velocity": 0, "duration": 64}, {"note": 68, "velocity": 70, "duration": 236}, {"note": 68, "velocity": 68, "duration": 56}, {"note": 0, "velocity": 0, "duration": 1264}, {"note": 64, "velocity": 54, "duration": 116}, {"note": 66, "velocity": 82, "duration": 116}, {"note": 66, "velocity": 68, "duration": 116}, {"note": 68, "velocity": 66, "duration": 236}, {"note": 68, "velocity": 63, "duration": 356}, {"note": 64, "velocity": 42, "duration": 236}, {"note": 69, "velocity": 50, "duration": 476}, {"note": 68, "velocity": 78, "duration": 236}, {"note": 66, "velocity": 94, "duration": 116}, {"note": 0, "velocity": 0, "duration": 64}, {"note": 64, "velocity": 57, "duration": 116}, {"note": 75, "velocity": 85, "duration": 236}, {"note": 73, "velocity": 68, "duration": 236}, {"note": 0, "velocity": 0, "duration": 84}, {"note": 71, "velocity": 68, "duration": 956}, {"note": 71, "velocity": 70, "duration": 236}, {"note": 69, "velocity": 84, "duration": 116}, {"note": 0, "velocity": 0, "duration": 84}, {"note": 68, "velocity": 72, "duration": 116}, {"note": 69, "velocity": 74, "duration": 236}, {"note": 61, "velocity": 60, "duration": 116}, {"note": 69, "velocity": 59, "duration": 956}, {"note": 69, "velocity": 76, "duration": 236}, {"note": 69, "velocity": 65, "duration": 116}, {"note": 68, "velocity": 76, "duration": 116}, {"note": 66, "velocity": 65, "duration": 116}, {"note": 68, "velocity": 65, "duration": 1316}, {"note": 59, "velocity": 54, "duration": 116}, {"note": 68, "velocity": 68, "duration": 236}, {"note": 66, "velocity": 71, "duration": 116}, {"note": 0, "velocity": 0, "duration": 64}, {"note": 64, "velocity": 69, "duration": 116}, {"note": 66, "velocity": 73, "duration": 476}, {"note": 68, "velocity": 82, "duration": 116}, {"note": 66, "velocity": 77, "duration": 236}, {"note": 64, "velocity": 59, "duration": 116}, {"note": 66, "velocity": 90, "duration": 476}, {"note": 66, "velocity": 77, "duration": 236}, {"note": 64, "velocity": 62, "duration": 236}, {"note": 71, "velocity": 82, "duration": 236}, {"note": 66, "velocity": 68, "duration": 1436}, {"note": 64, "velocity": 63, "duration": 116}, {"note": 66, "velocity": 84, "duration": 116}, {"note": 66, "velocity": 72, "duration": 116}, {"note": 68, "velocity": 77, "duration": 236}, {"note": 68, "velocity": 74, "duration": 356}, {"note": 64, "velocity": 51, "duration": 116}, {"note": 69, "velocity": 85, "duration": 596}, {"note": 68, "velocity": 68, "duration": 116}, {"note": 0, "velocity": 0, "duration": 64}, {"note": 66, "velocity": 79, "duration": 236}, {"note": 64, "velocity": 62, "duration": 116}, {"note": 66, "velocity": 86, "duration": 236}, {"note": 68, "velocity": 81, "duration": 116}, {"note": 68, "velocity": 72, "duration": 1316}, {"note": 64, "velocity": 94, "duration": 116}, {"note": 66, "velocity": 82, "duration": 116}, {"note": 66, "velocity": 85, "duration": 116}, {"note": 68, "velocity": 72, "duration": 236}, {"note": 68, "velocity": 74, "duration": 356}, {"note": 64, "velocity": 68, "duration": 116}, {"note": 69, "velocity": 102, "duration": 596}, {"note": 68, "velocity": 84, "duration": 116}, {"note": 0, "velocity": 0, "duration": 84}, {"note": 66, "velocity": 99, "duration": 236}, {"note": 64, "velocity": 76, "duration": 116}, {"note": 75, "velocity": 90, "duration": 356}, {"note": 71, "velocity": 82, "duration": 356}, {"note": 68, "velocity": 81, "duration": 116}, {"note": 71, "velocity": 76, "duration": 596}, {"note": 71, "velocity": 94, "duration": 236}, {"note": 69, "velocity": 84, "duration": 116}, {"note": 0, "velocity": 0, "duration": 73}, {"note": 68, "velocity": 72, "duration": 116}, {"note": 69, "velocity": 105, "duration": 236}, {"note": 61, "velocity": 57, "duration": 116}, {"note": 69, "velocity": 90, "duration": 1076}, {"note": 69, "velocity": 77, "duration": 116}, {"note": 68, "velocity": 68, "duration": 236}, {"note": 66, "velocity": 72, "duration": 116}, {"note": 68, "velocity": 65, "duration": 236}, {"note": 71, "velocity": 85, "duration": 236}, {"note": 66, "velocity": 77, "duration": 236}, {"note": 68, "velocity": 88, "duration": 236}, {"note": 64, "velocity": 63, "duration": 476}, {"note": 64, "velocity": 88, "duration": 116}, {"note": 0, "velocity": 0, "duration": 64}, {"note": 66, "velocity": 86, "duration": 236}, {"note": 68, "velocity": 77, "duration": 116}, {"note": 68, "velocity": 84, "duration": 116}, {"note": 69, "velocity": 74, "duration": 356}, {"note": 69, "velocity": 74, "duration": 236}, {"note": 68, "velocity": 65, "duration": 116}, {"note": 66, "velocity": 96, "duration": 596}, {"note": 68, "velocity": 88, "duration": 116}, {"note": 0, "velocity": 0, "duration": 64}, {"note": 66, "velocity": 72, "duration": 236}, {"note": 68, "velocity": 76, "duration": 116}, {"note": 66, "velocity": 76, "duration": 236}, {"note": 64, "velocity": 65, "duration": 1676}, {"note": 71, "velocity": 103, "duration": 1316}, {"note": 71, "velocity": 85, "duration": 116}, {"note": 78, "velocity": 96, "duration": 116}, {"note": 0, "velocity": 0, "duration": 74}, {"note": 76, "velocity": 85, "duration": 236}, {"note": 75, "velocity": 82, "duration": 116}, {"note": 76, "velocity": 92, "duration": 1436}, {"note": 68, "velocity": 86, "duration": 116}, {"note": 0, "velocity": 0, "duration": 64}, {"note": 69, "velocity": 90, "duration": 236}, {"note": 71, "velocity": 90, "duration": 116}, {"note": 73, "velocity": 82, "duration": 236}, {"note": 73, "velocity": 78, "duration": 116}, {"note": 73, "velocity": 76, "duration": 116}, {"note": 73, "velocity": 76, "duration": 116}, {"note": 0, "velocity": 0, "duration": 74}, {"note": 71, "velocity": 69, "duration": 236}, {"note": 73, "velocity": 78, "duration": 476}, {"note": 73, "velocity": 77, "duration": 116}, {"note": 73, "velocity": 79, "duration": 116}, {"note": 0, "velocity": 0, "duration": 64}, {"note": 75, "velocity": 86, "duration": 236}, {"note": 76, "velocity": 76, "duration": 116}, {"note": 78, "velocity": 90, "duration": 2156}, {"note": 75, "velocity": 88, "duration": 116}, {"note": 75, "velocity": 84, "duration": 116}, {"note": 75, "velocity": 90, "duration": 236}, {"note": 68, "velocity": 76, "duration": 116}, {"note": 71, "velocity": 72, "duration": 596}, {"note": 71, "velocity": 88, "duration": 236}, {"note": 68, "velocity": 84, "duration": 236}, {"note": 75, "velocity": 94, "duration": 116}, {"note": 0, "velocity": 0, "duration": 64}, {"note": 76, "velocity": 85, "duration": 236}, {"note": 75, "velocity": 70, "duration": 116}, {"note": 76, "velocity": 99, "duration": 956}, {"note": 76, "velocity": 103, "duration": 116}, {"note": 0, "velocity": 0, "duration": 64}, {"note": 78, "velocity": 84, "duration": 236}, {"note": 80, "velocity": 96, "duration": 116}, {"note": 73, "velocity": 88, "duration": 476}, {"note": 76, "velocity": 117, "duration": 116}, {"note": 78, "velocity": 91, "duration": 116}, {"note": 80, "velocity": 76, "duration": 236}, {"note": 73, "velocity": 86, "duration": 356}, {"note": 73, "velocity": 96, "duration": 116}, {"note": 80, "velocity": 97, "duration": 236}, {"note": 78, "velocity": 84, "duration": 116}, {"note": 76, "velocity": 90, "duration": 116}, {"note": 78, "velocity": 97, "duration": 1916}, {"note": 71, "velocity": 103, "duration": 1316}, {"note": 71, "velocity": 85, "duration": 116}, {"note": 78, "velocity": 96, "duration": 93}, {"note": 76, "velocity": 85, "duration": 236}, {"note": 75, "velocity": 82, "duration": 116}, {"note": 76, "velocity": 92, "duration": 1436}, {"note": 68, "velocity": 86, "duration": 116}, {"note": 69, "velocity": 90, "duration": 236}, {"note": 71, "velocity": 90, "duration": 116}, {"note": 73, "velocity": 82, "duration": 236}, {"note": 73, "velocity": 78, "duration": 116}, {"note": 73, "velocity": 76, "duration": 116}, {"note": 73, "velocity": 76, "duration": 116}, {"note": 71, "velocity": 69, "duration": 236}, {"note": 73, "velocity": 78, "duration": 476}, {"note": 73, "velocity": 77, "duration": 116}, {"note": 73, "velocity": 79, "duration": 116}, {"note": 75, "velocity": 86, "duration": 236}, {"note": 76, "velocity": 76, "duration": 116}, {"note": 78, "velocity": 90, "duration": 2156}, {"note": 75, "velocity": 88, "duration": 116}, {"note": 75, "velocity": 84, "duration": 116}, {"note": 75, "velocity": 90, "duration": 236}, {"note": 68, "velocity": 76, "duration": 116}, {"note": 71, "velocity": 72, "duration": 596}, {"note": 71, "velocity": 88, "duration": 236}, {"note": 68, "velocity": 84, "duration": 236}, {"note": 75, "velocity": 94, "duration": 116}, {"note": 76, "velocity": 85, "duration": 236}, {"note": 75, "velocity": 70, "duration": 116}, {"note": 76, "velocity": 99, "duration": 956}, {"note": 76, "velocity": 103, "duration": 116}, {"note": 78, "velocity": 84, "duration": 236}, {"note": 80, "velocity": 96, "duration": 116}, {"note": 73, "velocity": 88, "duration": 236}, {"note": 73, "velocity": 63, "duration": 116}, {"note": 71, "velocity": 79, "duration": 116}, {"note": 73, "velocity": 84, "duration": 116}, {"note": 75, "velocity": 96, "duration": 236}, {"note": 76, "velocity": 90, "duration": 476}, {"note": 71, "velocity": 84, "duration": 116}, {"note": 81, "velocity": 72, "duration": 116}, {"note": 0, "velocity": 0, "duration": 64}, {"note": 80, "velocity": 91, "duration": 236}, {"note": 76, "velocity": 77, "duration": 116}, {"note": 78, "velocity": 85, "duration": 356}, {"note": 76, "velocity": 78, "duration": 1430}, {"note": 0, "velocity": 0, "duration": 7570}, {"note": 64, "velocity": 63, "duration": 116}, {"note": 66, "velocity": 84, "duration": 116}, {"note": 66, "velocity": 72, "duration": 116}, {"note": 68, "velocity": 77, "duration": 236}, {"note": 68, "velocity": 74, "duration": 356}, {"note": 64, "velocity": 51, "duration": 116}, {"note": 69, "velocity": 85, "duration": 596}, {"note": 68, "velocity": 68, "duration": 116}, {"note": 0, "velocity": 0, "duration": 64}, {"note": 66, "velocity": 79, "duration": 236}, {"note": 64, "velocity": 62, "duration": 116}, {"note": 66, "velocity": 86, "duration": 236}, {"note": 68, "velocity": 81, "duration": 116}, {"note": 68, "velocity": 72, "duration": 1316}, {"note": 64, "velocity": 94, "duration": 116}, {"note": 66, "velocity": 82, "duration": 116}, {"note": 66, "velocity": 85, "duration": 116}, {"note": 68, "velocity": 72, "duration": 236}, {"note": 68, "velocity": 74, "duration": 356}, {"note": 64, "velocity": 68, "duration": 116}, {"note": 69, "velocity": 102, "duration": 596}, {"note": 68, "velocity": 84, "duration": 116}, {"note": 0, "velocity": 0, "duration": 84}, {"note": 66, "velocity": 99, "duration": 236}, {"note": 64, "velocity": 76, "duration": 116}, {"note": 75, "velocity": 90, "duration": 356}, {"note": 71, "velocity": 82, "duration": 356}, {"note": 68, "velocity": 81, "duration": 116}, {"note": 71, "velocity": 76, "duration": 596}, {"note": 71, "velocity": 94, "duration": 236}, {"note": 69, "velocity": 84, "duration": 116}, {"note": 0, "velocity": 0, "duration": 73}, {"note": 68, "velocity": 72, "duration": 116}, {"note": 69, "velocity": 105, "duration": 236}, {"note": 61, "velocity": 57, "duration": 116}, {"note": 69, "velocity": 90, "duration": 1076}, {"note": 69, "velocity": 77, "duration": 116}, {"note": 68, "velocity": 68, "duration": 236}, {"note": 66, "velocity": 72, "duration": 116}, {"note": 68, "velocity": 65, "duration": 236}, {"note": 71, "velocity": 85, "duration": 236}, {"note": 66, "velocity": 77, "duration": 236}, {"note": 68, "velocity": 88, "duration": 236}, {"note": 64, "velocity": 63, "duration": 476}, {"note": 64, "velocity": 88, "duration": 116}, {"note": 0, "velocity": 0, "duration": 64}, {"note": 66, "velocity": 86, "duration": 236}, {"note": 68, "velocity": 77, "duration": 116}, {"note": 68, "velocity": 84, "duration": 116}, {"note": 69, "velocity": 74, "duration": 356}, {"note": 69, "velocity": 74, "duration": 236}, {"note": 68, "velocity": 65, "duration": 116}, {"note": 66, "velocity": 96, "duration": 596}, {"note": 68, "velocity": 88, "duration": 116}, {"note": 0, "velocity": 0, "duration": 64}, {"note": 66, "velocity": 72, "duration": 236}, {"note": 68, "velocity": 76, "duration": 116}, {"note": 66, "velocity": 76, "duration": 236}, {"note": 64, "velocity": 65, "duration": 1676}, {"note": 71, "velocity": 103, "duration": 1306}, {"note": 71, "velocity": 85, "duration": 116}, {"note": 78, "velocity": 96, "duration": 116}, {"note": 0, "velocity": 0, "duration": 74}, {"note": 76, "velocity": 85, "duration": 236}, {"note": 75, "velocity": 82, "duration": 116}, {"note": 76, "velocity": 92, "duration": 1436}, {"note": 68, "velocity": 86, "duration": 116}, {"note": 0, "velocity": 0, "duration": 64}, {"note": 69, "velocity": 90, "duration": 236}, {"note": 71, "velocity": 90, "duration": 116}, {"note": 73, "velocity": 82, "duration": 236}, {"note": 73, "velocity": 78, "duration": 116}, {"note": 73, "velocity": 76, "duration": 116}, {"note": 73, "velocity": 76, "duration": 116}, {"note": 0, "velocity": 0, "duration": 74}, {"note": 71, "velocity": 69, "duration": 236}, {"note": 73, "velocity": 78, "duration": 476}, {"note": 73, "velocity": 77, "duration": 116}, {"note": 73, "velocity": 79, "duration": 116}, {"note": 0, "velocity": 0, "duration": 64}, {"note": 75, "velocity": 86, "duration": 236}, {"note": 76, "velocity": 76, "duration": 116}, {"note": 78, "velocity": 90, "duration": 2156}, {"note": 75, "velocity": 88, "duration": 116}, {"note": 75, "velocity": 84, "duration": 116}, {"note": 75, "velocity": 90, "duration": 236}, {"note": 68, "velocity": 76, "duration": 116}, {"note": 71, "velocity": 72, "duration": 596}, {"note": 71, "velocity": 88, "duration": 236}, {"note": 68, "velocity": 84, "duration": 236}, {"note": 0, "velocity": 0, "duration": 184}, {"note": 76, "velocity": 85, "duration": 236}, {"note": 75, "velocity": 70, "duration": 116}, {"note": 76, "velocity": 99, "duration": 956}, {"note": 76, "velocity": 103, "duration": 116}, {"note": 0, "velocity": 0, "duration": 64}, {"note": 78, "velocity": 84, "duration": 236}, {"note": 80, "velocity": 96, "duration": 116}, {"note": 73, "velocity": 88, "duration": 476}, {"note": 76, "velocity": 90, "duration": 116}, {"note": 78, "velocity": 91, "duration": 116}, {"note": 80, "velocity": 76, "duration": 236}, {"note": 73, "velocity": 86, "duration": 356}, {"note": 73, "velocity": 96, "duration": 116}, {"note": 80, "velocity": 97, "duration": 236}, {"note": 78, "velocity": 84, "duration": 116}, {"note": 76, "velocity": 90, "duration": 116}, {"note": 78, "velocity": 97, "duration": 1916}, {"note": 71, "velocity": 103, "duration": 1316}, {"note": 71, "velocity": 85, "duration": 116}, {"note": 78, "velocity": 96, "duration": 116}, {"note": 76, "velocity": 85, "duration": 236}, {"note": 75, "velocity": 82, "duration": 116}, {"note": 76, "velocity": 92, "duration": 1436}, {"note": 68, "velocity": 86, "duration": 116}, {"note": 69, "velocity": 90, "duration": 236}, {"note": 71, "velocity": 90, "duration": 116}, {"note": 73, "velocity": 82, "duration": 236}, {"note": 73, "velocity": 78, "duration": 116}, {"note": 73, "velocity": 76, "duration": 116}, {"note": 73, "velocity": 76, "duration": 116}, {"note": 71, "velocity": 69, "duration": 236}, {"note": 73, "velocity": 78, "duration": 476}, {"note": 73, "velocity": 77, "duration": 116}, {"note": 73, "velocity": 79, "duration": 116}, {"note": 75, "velocity": 86, "duration": 236}, {"note": 76, "velocity": 76, "duration": 116}, {"note": 78, "velocity": 90, "duration": 2156}, {"note": 75, "velocity": 88, "duration": 116}, {"note": 75, "velocity": 84, "duration": 116}, {"note": 75, "velocity": 90, "duration": 236}, {"note": 68, "velocity": 76, "duration": 116}, {"note": 71, "velocity": 72, "duration": 596}, {"note": 71, "velocity": 88, "duration": 236}, {"note": 68, "velocity": 84, "duration": 236}, {"note": 75, "velocity": 94, "duration": 116}, {"note": 76, "velocity": 85, "duration": 236}, {"note": 75, "velocity": 70, "duration": 116}, {"note": 76, "velocity": 99, "duration": 956}, {"note": 76, "velocity": 103, "duration": 116}, {"note": 78, "velocity": 84, "duration": 236}, {"note": 80, "velocity": 96, "duration": 116}, {"note": 73, "velocity": 88, "duration": 106}, {"note": 73, "velocity": 100, "duration": 136}, {"note": 71, "velocity": 79, "duration": 116}, {"note": 0, "velocity": 0, "duration": 83}, {"note": 73, "velocity": 84, "duration": 116}, {"note": 75, "velocity": 96, "duration": 236}, {"note": 76, "velocity": 90, "duration": 317}, {"note": 73, "velocity": 100, "duration": 85}, {"note": 71, "velocity": 100, "duration": 378}, {"note": 0, "velocity": 0, "duration": 141}, {"note": 71, "velocity": 84, "duration": 116}, {"note": 81, "velocity": 72, "duration": 116}, {"note": 80, "velocity": 91, "duration": 236}, {"note": 76, "velocity": 77, "duration": 116}, {"note": 78, "velocity": 85, "duration": 476}, {"note": 76, "velocity": 78, "duration": 1436}]]