[[{"note": 67, "velocity": 57, "duration": 236}, {"note": 72, "velocity": 55, "duration": 236}, {"note": 72, "velocity": 66, "duration": 236}, {"note": 72, "velocity": 84, "duration": 476}, {"note": 71, "velocity": 69, "duration": 236}, {"note": 72, "velocity": 77, "duration": 1436}, {"note": 74, "velocity": 91, "duration": 236}, {"note": 72, "velocity": 74, "duration": 236}, {"note": 71, "velocity": 66, "duration": 236}, {"note": 69, "velocity": 62, "duration": 236}, {"note": 67, "velocity": 64, "duration": 476}, {"note": 67, "velocity": 66, "duration": 236}, {"note": 69, "velocity": 80, "duration": 236}, {"note": 71, "velocity": 74, "duration": 3116}, {"note": 60, "velocity": 52, "duration": 236}, {"note": 69, "velocity": 61, "duration": 236}, {"note": 69, "velocity": 66, "duration": 236}, {"note": 69, "velocity": 63, "duration": 236}, {"note": 71, "velocity": 62, "duration": 716}, {"note": 72, "velocity": 62, "duration": 236}, {"note": 71, "velocity": 57, "duration": 356}, {"note": 67, "velocity": 41, "duration": 476}, {"note": 64, "velocity": 52, "duration": 596}, {"note": 64, "velocity": 75, "duration": 236}, {"note": 62, "velocity": 63, "duration": 236}, {"note": 60, "velocity": 59, "duration": 236}, {"note": 62, "velocity": 63, "duration": 236}, {"note": 60, "velocity": 47, "duration": 236}, {"note": 62, "velocity": 51, "duration": 236}, {"note": 60, "velocity": 54, "duration": 236}, {"note": 62, "velocity": 56, "duration": 236}, {"note": 64, "velocity": 64, "duration": 476}, {"note": 67, "velocity": 83, "duration": 2156}, {"note": 64, "velocity": 61, "duration": 236}, {"note": 64, "velocity": 66, "duration": 236}, {"note": 64, "velocity": 66, "duration": 476}, {"note": 66, "velocity": 54, "duration": 236}, {"note": 68, "velocity": 66, "duration": 716}, {"note": 68, "velocity": 84, "duration": 476}, {"note": 69, "velocity": 77, "duration": 236}, {"note": 71, "velocity": 66, "duration": 476}, {"note": 71, "velocity": 87, "duration": 236}, {"note": 71, "velocity": 87, "duration": 1436}, {"note": 69, "velocity": 68, "duration": 236}, {"note": 72, "velocity": 96, "duration": 1436}, {"note": 69, "velocity": 63, "duration": 236}, {"note": 69, "velocity": 63, "duration": 236}, {"note": 71, "velocity": 79, "duration": 236}, {"note": 72, "velocity": 89, "duration": 236}, {"note": 71, "velocity": 59, "duration": 236}, {"note": 69, "velocity": 57, "duration": 236}, {"note": 72, "velocity": 66, "duration": 956}, {"note": 72, "velocity": 90, "duration": 236}, {"note": 72, "velocity": 94, "duration": 476}, {"note": 71, "velocity": 89, "duration": 716}, {"note": 69, "velocity": 90, "duration": 476}, {"note": 64, "velocity": 87, "duration": 236}, {"note": 62, "velocity": 65, "duration": 4076}, {"note": 67, "velocity": 66, "duration": 236}, {"note": 72, "velocity": 83, "duration": 236}, {"note": 72, "velocity": 75, "duration": 236}, {"note": 72, "velocity": 90, "duration": 476}, {"note": 71, "velocity": 87, "duration": 236}, {"note": 72, "velocity": 93, "duration": 1196}, {"note": 74, "velocity": 96, "duration": 236}, {"note": 72, "velocity": 83, "duration": 236}, {"note": 71, "velocity": 82, "duration": 236}, {"note": 69, "velocity": 59, "duration": 476}, {"note": 71, "velocity": 81, "duration": 236}, {"note": 71, "velocity": 79, "duration": 476}, {"note": 76, "velocity": 84, "duration": 236}, {"note": 71, "velocity": 86, "duration": 2876}, {"note": 64, "velocity": 66, "duration": 236}, {"note": 69, "velocity": 75, "duration": 236}, {"note": 69, "velocity": 66, "duration": 236}, {"note": 69, "velocity": 89, "duration": 476}, {"note": 71, "velocity": 87, "duration": 236}, {"note": 72, "velocity": 83, "duration": 476}, {"note": 71, "velocity": 87, "duration": 476}, {"note": 69, "velocity": 81, "duration": 476}, {"note": 64, "velocity": 84, "duration": 476}, {"note": 64, "velocity": 87, "duration": 236}, {"note": 62, "velocity": 76, "duration": 236}, {"note": 60, "velocity": 64, "duration": 236}, {"note": 62, "velocity": 73, "duration": 236}, {"note": 60, "velocity": 62, "duration": 236}, {"note": 62, "velocity": 61, "duration": 236}, {"note": 60, "velocity": 64, "duration": 236}, {"note": 62, "velocity": 61, "duration": 236}, {"note": 64, "velocity": 65, "duration": 476}, {"note": 67, "velocity": 66, "duration": 1479}, {"note": 64, "velocity": 61, "duration": 236}, {"note": 64, "velocity": 66, "duration": 236}, {"note": 64, "velocity": 66, "duration": 476}, {"note": 66, "velocity": 54, "duration": 236}, {"note": 68, "velocity": 66, "duration": 716}, {"note": 68, "velocity": 84, "duration": 476}, {"note": 69, "velocity": 77, "duration": 236}, {"note": 71, "velocity": 66, "duration": 476}, {"note": 71, "velocity": 87, "duration": 236}, {"note": 71, "velocity": 87, "duration": 1436}, {"note": 69, "velocity": 68, "duration": 236}, {"note": 72, "velocity": 96, "duration": 1436}, {"note": 69, "velocity": 67, "duration": 236}, {"note": 69, "velocity": 68, "duration": 236}, {"note": 71, "velocity": 82, "duration": 236}, {"note": 72, "velocity": 80, "duration": 356}, {"note": 71, "velocity": 66, "duration": 356}, {"note": 69, "velocity": 57, "duration": 116}, {"note": 72, "velocity": 63, "duration": 116}, {"note": 72, "velocity": 64, "duration": 716}, {"note": 72, "velocity": 89, "duration": 236}, {"note": 72, "velocity": 92, "duration": 476}, {"note": 69, "velocity": 68, "duration": 476}, {"note": 76, "velocity": 97, "duration": 356}, {"note": 76, "velocity": 98, "duration": 356}, {"note": 72, "velocity": 93, "duration": 476}, {"note": 74, "velocity": 92, "duration": 2876}, {"note": 67, "velocity": 75, "duration": 236}, {"note": 69, "velocity": 68, "duration": 236}, {"note": 72, "velocity": 66, "duration": 236}, {"note": 74, "velocity": 68, "duration": 236}, {"note": 76, "velocity": 66, "duration": 236}, {"note": 76, "velocity": 67, "duration": 236}, {"note": 76, "velocity": 62, "duration": 236}, {"note": 76, "velocity": 66, "duration": 236}, {"note": 72, "velocity": 66, "duration": 236}, {"note": 74, "velocity": 65, "duration": 236}, {"note": 76, "velocity": 64, "duration": 1436}, {"note": 67, "velocity": 89, "duration": 236}, {"note": 69, "velocity": 66, "duration": 236}, {"note": 72, "velocity": 87, "duration": 236}, {"note": 74, "velocity": 75, "duration": 236}, {"note": 74, "velocity": 66, "duration": 236}, {"note": 74, "velocity": 65, "duration": 236}, {"note": 74, "velocity": 79, "duration": 236}, {"note": 74, "velocity": 86, "duration": 356}, {"note": 71, "velocity": 68, "duration": 356}, {"note": 72, "velocity": 84, "duration": 476}, {"note": 74, "velocity": 79, "duration": 402}, {"note": 69, "velocity": 81, "duration": 39}, {"note": 69, "velocity": 66, "duration": 101}, {"note": 71, "velocity": 82, "duration": 53}, {"note": 72, "velocity": 91, "duration": 191}, {"note": 72, "velocity": 90, "duration": 4}, {"note": 72, "velocity": 95, "duration": 59}, {"note": 64, "velocity": 72, "duration": 476}, {"note": 62, "velocity": 75, "duration": 716}, {"note": 69, "velocity": 91, "duration": 956}, {"note": 67, "velocity": 81, "duration": 236}, {"note": 67, "velocity": 92, "duration": 3116}, {"note": 76, "velocity": 100, "duration": 236}, {"note": 74, "velocity": 91, "duration": 236}, {"note": 72, "velocity": 90, "duration": 236}, {"note": 74, "velocity": 93, "duration": 236}, {"note": 76, "velocity": 97, "duration": 236}, {"note": 76, "velocity": 93, "duration": 236}, {"note": 76, "velocity": 95, "duration": 236}, {"note": 76, "velocity": 98, "duration": 356}, {"note": 72, "velocity": 90, "duration": 356}, {"note": 79, "velocity": 91, "duration": 236}, {"note": 76, "velocity": 100, "duration": 1196}, {"note": 67, "velocity": 90, "duration": 236}, {"note": 69, "velocity": 79, "duration": 236}, {"note": 72, "velocity": 87, "duration": 236}, {"note": 74, "velocity": 92, "duration": 236}, {"note": 74, "velocity": 90, "duration": 236}, {"note": 74, "velocity": 90, "duration": 236}, {"note": 74, "velocity": 81, "duration": 236}, {"note": 79, "velocity": 82, "duration": 356}, {"note": 79, "velocity": 91, "duration": 356}, {"note": 81, "velocity": 94, "duration": 236}, {"note": 76, "velocity": 77, "duration": 236}, {"note": 74, "velocity": 77, "duration": 956}, {"note": 69, "velocity": 87, "duration": 236}, {"note": 69, "velocity": 77, "duration": 236}, {"note": 71, "velocity": 96, "duration": 236}, {"note": 72, "velocity": 99, "duration": 356}, {"note": 72, "velocity": 98, "duration": 1076}, {"note": 69, "velocity": 93, "duration": 236}, {"note": 72, "velocity": 87, "duration": 236}, {"note": 76, "velocity": 93, "duration": 476}, {"note": 77, "velocity": 94, "duration": 476}, {"note": 76, "velocity": 99, "duration": 476}, {"note": 72, "velocity": 93, "duration": 236}, {"note": 74, "velocity": 98, "duration": 476}, {"note": 72, "velocity": 99, "duration": 2876}, {"note": 71, "velocity": 81, "duration": 236}, {"note": 71, "velocity": 77, "duration": 236}, {"note": 72, "velocity": 77, "duration": 236}, {"note": 74, "velocity": 69, "duration": 236}, {"note": 74, "velocity": 77, "duration": 236}, {"note": 72, "velocity": 67, "duration": 236}, {"note": 74, "velocity": 81, "duration": 236}, {"note": 67, "velocity": 81, "duration": 476}, {"note": 71, "velocity": 87, "duration": 236}, {"note": 72, "velocity": 87, "duration": 236}, {"note": 74, "velocity": 99, "duration": 1196}, {"note": 67, "velocity": 76, "duration": 236}, {"note": 76, "velocity": 96, "duration": 236}, {"note": 77, "velocity": 72, "duration": 236}, {"note": 74, "velocity": 82, "duration": 236}, {"note": 72, "velocity": 80, "duration": 236}, {"note": 72, "velocity": 75, "duration": 236}, {"note": 69, "velocity": 79, "duration": 236}, {"note": 72, "velocity": 92, "duration": 356}, {"note": 69, "velocity": 86, "duration": 356}, {"note": 67, "velocity": 96, "duration": 1436}, {"note": 69, "velocity": 93, "duration": 236}, {"note": 69, "velocity": 90, "duration": 236}, {"note": 71, "velocity": 80, "duration": 236}, {"note": 72, "velocity": 90, "duration": 236}, {"note": 71, "velocity": 79, "duration": 236}, {"note": 69, "velocity": 66, "duration": 236}, {"note": 71, "velocity": 83, "duration": 236}, {"note": 72, "velocity": 93, "duration": 356}, {"note": 72, "velocity": 93, "duration": 356}, {"note": 64, "velocity": 72, "duration": 236}, {"note": 67, "velocity": 91, "duration": 1196}, {"note": 67, "velocity": 95, "duration": 236}, {"note": 65, "velocity": 75, "duration": 236}, {"note": 64, "velocity": 69, "duration": 236}, {"note": 65, "velocity": 87, "duration": 236}, {"note": 64, "velocity": 74, "duration": 236}, {"note": 65, "velocity": 85, "duration": 236}, {"note": 64, "velocity": 66, "duration": 236}, {"note": 65, "velocity": 85, "duration": 236}, {"note": 72, "velocity": 90, "duration": 476}, {"note": 64, "velocity": 72, "duration": 236}, {"note": 65, "velocity": 81, "duration": 236}, {"note": 64, "velocity": 69, "duration": 236}, {"note": 65, "velocity": 84, "duration": 236}, {"note": 64, "velocity": 64, "duration": 236}, {"note": 65, "velocity": 87, "duration": 356}, {"note": 72, "velocity": 103, "duration": 356}, {"note": 74, "velocity": 90, "duration": 3356}, {"note": 67, "velocity": 87, "duration": 236}, {"note": 69, "velocity": 94, "duration": 356}, {"note": 72, "velocity": 84, "duration": 356}, {"note": 74, "velocity": 91, "duration": 236}, {"note": 76, "velocity": 86, "duration": 236}, {"note": 76, "velocity": 87, "duration": 236}, {"note": 76, "velocity": 87, "duration": 236}, {"note": 76, "velocity": 72, "duration": 236}, {"note": 72, "velocity": 83, "duration": 356}, {"note": 74, "velocity": 90, "duration": 356}, {"note": 76, "velocity": 92, "duration": 956}, {"note": 67, "velocity": 85, "duration": 236}, {"note": 69, "velocity": 90, "duration": 236}, {"note": 72, "velocity": 83, "duration": 236}, {"note": 72, "velocity": 98, "duration": 236}, {"note": 74, "velocity": 91, "duration": 236}, {"note": 74, "velocity": 90, "duration": 236}, {"note": 74, "velocity": 79, "duration": 236}, {"note": 74, "velocity": 95, "duration": 356}, {"note": 71, "velocity": 97, "duration": 356}, {"note": 72, "velocity": 95, "duration": 236}, {"note": 74, "velocity": 97, "duration": 1196}, {"note": 69, "velocity": 96, "duration": 236}, {"note": 69, "velocity": 90, "duration": 236}, {"note": 71, "velocity": 89, "duration": 236}, {"note": 72, "velocity": 98, "duration": 356}, {"note": 72, "velocity": 91, "duration": 596}, {"note": 72, "velocity": 103, "duration": 476}, {"note": 64, "velocity": 93, "duration": 476}, {"note": 62, "velocity": 97, "duration": 716}, {"note": 69, "velocity": 106, "duration": 1196}, {"note": 67, "velocity": 109, "duration": 356}, {"note": 67, "velocity": 109, "duration": 2756}, {"note": 76, "velocity": 103, "duration": 236}, {"note": 74, "velocity": 91, "duration": 236}, {"note": 72, "velocity": 92, "duration": 236}, {"note": 74, "velocity": 97, "duration": 236}, {"note": 76, "velocity": 97, "duration": 32}, {"note": 76, "velocity": 90, "duration": 116}, {"note": 76, "velocity": 65, "duration": 116}, {"note": 76, "velocity": 90, "duration": 356}, {"note": 72, "velocity": 103, "duration": 356}, {"note": 79, "velocity": 87, "duration": 356}, {"note": 76, "velocity": 99, "duration": 1076}, {"note": 67, "velocity": 98, "duration": 236}, {"note": 69, "velocity": 92, "duration": 236}, {"note": 72, "velocity": 93, "duration": 236}, {"note": 74, "velocity": 97, "duration": 236}, {"note": 74, "velocity": 99, "duration": 236}, {"note": 74, "velocity": 95, "duration": 236}, {"note": 74, "velocity": 91, "duration": 476}, {"note": 79, "velocity": 97, "duration": 356}, {"note": 79, "velocity": 101, "duration": 236}, {"note": 79, "velocity": 93, "duration": 236}, {"note": 76, "velocity": 95, "duration": 236}, {"note": 74, "velocity": 91, "duration": 836}, {"note": 69, "velocity": 93, "duration": 116}, {"note": 69, "velocity": 74, "duration": 116}, {"note": 69, "velocity": 91, "duration": 236}, {"note": 71, "velocity": 96, "duration": 236}, {"note": 72, "velocity": 103, "duration": 236}, {"note": 72, "velocity": 103, "duration": 1196}, {"note": 69, "velocity": 87, "duration": 236}, {"note": 72, "velocity": 89, "duration": 236}, {"note": 76, "velocity": 91, "duration": 356}, {"note": 77, "velocity": 100, "duration": 596}, {"note": 77, "velocity": 103, "duration": 356}, {"note": 72, "velocity": 97, "duration": 1436}, {"note": 74, "velocity": 103, "duration": 836}, {"note": 72, "velocity": 97, "duration": 4076}]]