[[{"note": 70, "velocity": 95, "duration": 234}, {"note": 75, "velocity": 86, "duration": 176}, {"note": 0, "velocity": 0, "duration": 64}, {"note": 75, "velocity": 93, "duration": 98}, {"note": 73, "velocity": 83, "duration": 108}, {"note": 75, "velocity": 84, "duration": 220}, {"note": 70, "velocity": 95, "duration": 243}, {"note": 77, "velocity": 83, "duration": 170}, {"note": 0, "velocity": 0, "duration": 70}, {"note": 77, "velocity": 86, "duration": 86}, {"note": 75, "velocity": 86, "duration": 85}, {"note": 77, "velocity": 86, "duration": 211}, {"note": 78, "velocity": 90, "duration": 172}, {"note": 0, "velocity": 0, "duration": 68}, {"note": 78, "velocity": 83, "duration": 182}, {"note": 78, "velocity": 82, "duration": 132}, {"note": 77, "velocity": 94, "duration": 66}, {"note": 75, "velocity": 86, "duration": 225}, {"note": 73, "velocity": 95, "duration": 826}, {"note": 0, "velocity": 0, "duration": 134}, {"note": 70, "velocity": 101, "duration": 210}, {"note": 75, "velocity": 86, "duration": 170}, {"note": 0, "velocity": 0, "duration": 70}, {"note": 75, "velocity": 94, "duration": 91}, {"note": 73, "velocity": 84, "duration": 101}, {"note": 75, "velocity": 95, "duration": 229}, {"note": 70, "velocity": 101, "duration": 271}, {"note": 77, "velocity": 94, "duration": 162}, {"note": 0, "velocity": 0, "duration": 78}, {"note": 77, "velocity": 103, "duration": 84}, {"note": 75, "velocity": 86, "duration": 81}, {"note": 77, "velocity": 105, "duration": 190}, {"note": 78, "velocity": 95, "duration": 160}, {"note": 0, "velocity": 0, "duration": 80}, {"note": 78, "velocity": 84, "duration": 165}, {"note": 0, "velocity": 0, "duration": 75}, {"note": 78, "velocity": 84, "duration": 116}, {"note": 77, "velocity": 83, "duration": 81}, {"note": 78, "velocity": 86, "duration": 211}, {"note": 80, "velocity": 94, "duration": 840}, {"note": 0, "velocity": 0, "duration": 120}, {"note": 80, "velocity": 98, "duration": 156}, {"note": 0, "velocity": 0, "duration": 84}, {"note": 80, "velocity": 90, "duration": 157}, {"note": 0, "velocity": 0, "duration": 83}, {"note": 80, "velocity": 91, "duration": 97}, {"note": 78, "velocity": 83, "duration": 156}, {"note": 80, "velocity": 86, "duration": 89}, {"note": 82, "velocity": 93, "duration": 163}, {"note": 80, "velocity": 94, "duration": 463}, {"note": 75, "velocity": 104, "duration": 502}, {"note": 80, "velocity": 76, "duration": 160}, {"note": 0, "velocity": 0, "duration": 80}, {"note": 82, "velocity": 91, "duration": 194}, {"note": 75, "velocity": 95, "duration": 103}, {"note": 73, "velocity": 86, "duration": 126}, {"note": 75, "velocity": 91, "duration": 217}, {"note": 70, "velocity": 101, "duration": 922}, {"note": 68, "velocity": 98, "duration": 352}, {"note": 75, "velocity": 103, "duration": 582}, {"note": 73, "velocity": 101, "duration": 247}, {"note": 77, "velocity": 98, "duration": 454}, {"note": 75, "velocity": 90, "duration": 103}, {"note": 73, "velocity": 93, "duration": 152}, {"note": 75, "velocity": 94, "duration": 1748}, {"note": 0, "velocity": 0, "duration": 172}, {"note": 70, "velocity": 94, "duration": 255}, {"note": 75, "velocity": 95, "duration": 187}, {"note": 75, "velocity": 93, "duration": 104}, {"note": 73, "velocity": 90, "duration": 128}, {"note": 75, "velocity": 98, "duration": 232}, {"note": 70, "velocity": 95, "duration": 246}, {"note": 77, "velocity": 103, "duration": 172}, {"note": 0, "velocity": 0, "duration": 68}, {"note": 77, "velocity": 98, "duration": 86}, {"note": 75, "velocity": 86, "duration": 139}, {"note": 77, "velocity": 103, "duration": 173}, {"note": 0, "velocity": 0, "duration": 67}, {"note": 78, "velocity": 93, "duration": 177}, {"note": 0, "velocity": 0, "duration": 63}, {"note": 78, "velocity": 90, "duration": 160}, {"note": 0, "velocity": 0, "duration": 80}, {"note": 78, "velocity": 86, "duration": 109}, {"note": 77, "velocity": 101, "duration": 82}, {"note": 75, "velocity": 93, "duration": 223}, {"note": 73, "velocity": 100, "duration": 912}, {"note": 70, "velocity": 103, "duration": 264}, {"note": 75, "velocity": 84, "duration": 196}, {"note": 75, "velocity": 95, "duration": 92}, {"note": 73, "velocity": 84, "duration": 125}, {"note": 75, "velocity": 91, "duration": 209}, {"note": 70, "velocity": 103, "duration": 245}, {"note": 77, "velocity": 105, "duration": 169}, {"note": 0, "velocity": 0, "duration": 71}, {"note": 77, "velocity": 98, "duration": 92}, {"note": 75, "velocity": 86, "duration": 140}, {"note": 77, "velocity": 103, "duration": 169}, {"note": 0, "velocity": 0, "duration": 71}, {"note": 78, "velocity": 93, "duration": 155}, {"note": 0, "velocity": 0, "duration": 85}, {"note": 78, "velocity": 86, "duration": 155}, {"note": 0, "velocity": 0, "duration": 85}, {"note": 78, "velocity": 93, "duration": 94}, {"note": 77, "velocity": 86, "duration": 77}, {"note": 78, "velocity": 95, "duration": 195}, {"note": 80, "velocity": 101, "duration": 867}, {"note": 0, "velocity": 0, "duration": 93}, {"note": 80, "velocity": 98, "duration": 154}, {"note": 0, "velocity": 0, "duration": 86}, {"note": 80, "velocity": 94, "duration": 154}, {"note": 0, "velocity": 0, "duration": 86}, {"note": 80, "velocity": 86, "duration": 104}, {"note": 78, "velocity": 83, "duration": 152}, {"note": 80, "velocity": 93, "duration": 107}, {"note": 82, "velocity": 95, "duration": 153}, {"note": 80, "velocity": 98, "duration": 465}, {"note": 75, "velocity": 104, "duration": 516}, {"note": 82, "velocity": 90, "duration": 158}, {"note": 0, "velocity": 0, "duration": 82}, {"note": 82, "velocity": 99, "duration": 199}, {"note": 75, "velocity": 93, "duration": 107}, {"note": 73, "velocity": 91, "duration": 125}, {"note": 75, "velocity": 95, "duration": 236}, {"note": 70, "velocity": 100, "duration": 908}, {"note": 68, "velocity": 104, "duration": 377}, {"note": 75, "velocity": 101, "duration": 583}, {"note": 73, "velocity": 90, "duration": 235}, {"note": 77, "velocity": 105, "duration": 414}, {"note": 0, "velocity": 0, "duration": 66}, {"note": 75, "velocity": 94, "duration": 87}, {"note": 73, "velocity": 90, "duration": 135}, {"note": 75, "velocity": 95, "duration": 1784}, {"note": 0, "velocity": 0, "duration": 136}, {"note": 78, "velocity": 93, "duration": 692}, {"note": 80, "velocity": 98, "duration": 213}, {"note": 82, "velocity": 98, "duration": 873}, {"note": 0, "velocity": 0, "duration": 87}, {"note": 83, "velocity": 98, "duration": 246}, {"note": 82, "velocity": 93, "duration": 215}, {"note": 80, "velocity": 95, "duration": 238}, {"note": 83, "velocity": 94, "duration": 229}, {"note": 82, "velocity": 98, "duration": 893}, {"note": 0, "velocity": 0, "duration": 67}, {"note": 78, "velocity": 84, "duration": 237}, {"note": 75, "velocity": 84, "duration": 59}, {"note": 0, "velocity": 0, "duration": 181}, {"note": 75, "velocity": 91, "duration": 379}, {"note": 78, "velocity": 83, "duration": 152}, {"note": 80, "velocity": 83, "duration": 274}, {"note": 0, "velocity": 0, "duration": 86}, {"note": 80, "velocity": 90, "duration": 178}, {"note": 0, "velocity": 0, "duration": 62}, {"note": 80, "velocity": 93, "duration": 206}, {"note": 73, "velocity": 90, "duration": 255}, {"note": 78, "velocity": 83, "duration": 749}, {"note": 80, "velocity": 91, "duration": 234}, {"note": 82, "velocity": 91, "duration": 879}, {"note": 0, "velocity": 0, "duration": 81}, {"note": 78, "velocity": 86, "duration": 654}, {"note": 0, "velocity": 0, "duration": 66}, {"note": 80, "velocity": 93, "duration": 187}, {"note": 82, "velocity": 90, "duration": 860}, {"note": 0, "velocity": 0, "duration": 100}, {"note": 83, "velocity": 86, "duration": 195}, {"note": 82, "velocity": 93, "duration": 231}, {"note": 80, "velocity": 90, "duration": 236}, {"note": 83, "velocity": 93, "duration": 211}, {"note": 82, "velocity": 91, "duration": 832}, {"note": 0, "velocity": 0, "duration": 128}, {"note": 78, "velocity": 84, "duration": 232}, {"note": 75, "velocity": 93, "duration": 162}, {"note": 0, "velocity": 0, "duration": 78}, {"note": 75, "velocity": 84, "duration": 278}, {"note": 78, "velocity": 81, "duration": 122}, {"note": 80, "velocity": 80, "duration": 304}, {"note": 80, "velocity": 84, "duration": 165}, {"note": 0, "velocity": 0, "duration": 75}, {"note": 80, "velocity": 84, "duration": 206}, {"note": 73, "velocity": 90, "duration": 253}, {"note": 78, "velocity": 84, "duration": 586}, {"note": 0, "velocity": 0, "duration": 134}, {"note": 80, "velocity": 91, "duration": 386}, {"note": 0, "velocity": 0, "duration": 94}, {"note": 73, "velocity": 90, "duration": 248}, {"note": 77, "velocity": 84, "duration": 161}, {"note": 0, "velocity": 0, "duration": 79}, {"note": 75, "velocity": 76, "duration": 138}, {"note": 73, "velocity": 76, "duration": 151}, {"note": 75, "velocity": 80, "duration": 714}, {"note": 0, "velocity": 0, "duration": 14646}, {"note": 70, "velocity": 95, "duration": 234}, {"note": 75, "velocity": 86, "duration": 176}, {"note": 0, "velocity": 0, "duration": 64}, {"note": 75, "velocity": 93, "duration": 98}, {"note": 73, "velocity": 83, "duration": 108}, {"note": 75, "velocity": 84, "duration": 220}, {"note": 70, "velocity": 95, "duration": 243}, {"note": 77, "velocity": 83, "duration": 170}, {"note": 0, "velocity": 0, "duration": 70}, {"note": 77, "velocity": 86, "duration": 86}, {"note": 75, "velocity": 86, "duration": 85}, {"note": 77, "velocity": 86, "duration": 211}, {"note": 78, "velocity": 90, "duration": 172}, {"note": 0, "velocity": 0, "duration": 68}, {"note": 78, "velocity": 83, "duration": 182}, {"note": 78, "velocity": 82, "duration": 132}, {"note": 77, "velocity": 94, "duration": 66}, {"note": 75, "velocity": 86, "duration": 225}, {"note": 73, "velocity": 95, "duration": 826}, {"note": 0, "velocity": 0, "duration": 134}, {"note": 70, "velocity": 101, "duration": 210}, {"note": 75, "velocity": 86, "duration": 170}, {"note": 0, "velocity": 0, "duration": 70}, {"note": 75, "velocity": 94, "duration": 91}, {"note": 73, "velocity": 84, "duration": 101}, {"note": 75, "velocity": 95, "duration": 229}, {"note": 70, "velocity": 101, "duration": 271}, {"note": 77, "velocity": 94, "duration": 162}, {"note": 0, "velocity": 0, "duration": 78}, {"note": 77, "velocity": 103, "duration": 84}, {"note": 75, "velocity": 86, "duration": 81}, {"note": 77, "velocity": 105, "duration": 190}, {"note": 78, "velocity": 95, "duration": 160}, {"note": 0, "velocity": 0, "duration": 80}, {"note": 78, "velocity": 84, "duration": 165}, {"note": 0, "velocity": 0, "duration": 75}, {"note": 78, "velocity": 84, "duration": 116}, {"note": 77, "velocity": 83, "duration": 81}, {"note": 78, "velocity": 86, "duration": 211}, {"note": 80, "velocity": 94, "duration": 840}, {"note": 0, "velocity": 0, "duration": 120}, {"note": 80, "velocity": 98, "duration": 156}, {"note": 0, "velocity": 0, "duration": 84}, {"note": 80, "velocity": 90, "duration": 157}, {"note": 0, "velocity": 0, "duration": 83}, {"note": 80, "velocity": 91, "duration": 97}, {"note": 78, "velocity": 83, "duration": 156}, {"note": 80, "velocity": 86, "duration": 89}, {"note": 82, "velocity": 93, "duration": 163}, {"note": 80, "velocity": 94, "duration": 463}, {"note": 75, "velocity": 104, "duration": 502}, {"note": 80, "velocity": 76, "duration": 160}, {"note": 0, "velocity": 0, "duration": 80}, {"note": 82, "velocity": 91, "duration": 194}, {"note": 75, "velocity": 95, "duration": 103}, {"note": 73, "velocity": 86, "duration": 126}, {"note": 75, "velocity": 91, "duration": 217}, {"note": 70, "velocity": 101, "duration": 922}, {"note": 68, "velocity": 98, "duration": 232}, {"note": 75, "velocity": 103, "duration": 707}, {"note": 73, "velocity": 101, "duration": 247}, {"note": 77, "velocity": 98, "duration": 454}, {"note": 75, "velocity": 90, "duration": 103}, {"note": 73, "velocity": 93, "duration": 152}, {"note": 75, "velocity": 94, "duration": 1748}, {"note": 0, "velocity": 0, "duration": 172}, {"note": 70, "velocity": 94, "duration": 255}, {"note": 75, "velocity": 95, "duration": 187}, {"note": 75, "velocity": 93, "duration": 104}, {"note": 73, "velocity": 90, "duration": 128}, {"note": 75, "velocity": 98, "duration": 232}, {"note": 70, "velocity": 95, "duration": 246}, {"note": 77, "velocity": 103, "duration": 172}, {"note": 0, "velocity": 0, "duration": 68}, {"note": 77, "velocity": 98, "duration": 86}, {"note": 75, "velocity": 86, "duration": 139}, {"note": 77, "velocity": 103, "duration": 173}, {"note": 0, "velocity": 0, "duration": 67}, {"note": 78, "velocity": 93, "duration": 177}, {"note": 0, "velocity": 0, "duration": 63}, {"note": 78, "velocity": 90, "duration": 160}, {"note": 0, "velocity": 0, "duration": 80}, {"note": 78, "velocity": 86, "duration": 109}, {"note": 77, "velocity": 101, "duration": 82}, {"note": 75, "velocity": 93, "duration": 223}, {"note": 73, "velocity": 100, "duration": 912}, {"note": 70, "velocity": 103, "duration": 264}, {"note": 75, "velocity": 84, "duration": 196}, {"note": 75, "velocity": 95, "duration": 92}, {"note": 73, "velocity": 84, "duration": 125}, {"note": 75, "velocity": 91, "duration": 209}, {"note": 70, "velocity": 103, "duration": 245}, {"note": 77, "velocity": 105, "duration": 169}, {"note": 0, "velocity": 0, "duration": 71}, {"note": 77, "velocity": 98, "duration": 92}, {"note": 75, "velocity": 86, "duration": 140}, {"note": 77, "velocity": 103, "duration": 169}, {"note": 0, "velocity": 0, "duration": 71}, {"note": 78, "velocity": 93, "duration": 155}, {"note": 0, "velocity": 0, "duration": 85}, {"note": 78, "velocity": 86, "duration": 155}, {"note": 0, "velocity": 0, "duration": 85}, {"note": 78, "velocity": 93, "duration": 94}, {"note": 77, "velocity": 86, "duration": 77}, {"note": 78, "velocity": 95, "duration": 195}, {"note": 80, "velocity": 101, "duration": 867}, {"note": 0, "velocity": 0, "duration": 93}, {"note": 80, "velocity": 98, "duration": 154}, {"note": 0, "velocity": 0, "duration": 86}, {"note": 80, "velocity": 94, "duration": 154}, {"note": 0, "velocity": 0, "duration": 86}, {"note": 80, "velocity": 86, "duration": 104}, {"note": 78, "velocity": 83, "duration": 152}, {"note": 80, "velocity": 93, "duration": 107}, {"note": 82, "velocity": 95, "duration": 153}, {"note": 80, "velocity": 98, "duration": 465}, {"note": 75, "velocity": 104, "duration": 516}, {"note": 82, "velocity": 90, "duration": 158}, {"note": 0, "velocity": 0, "duration": 82}, {"note": 82, "velocity": 99, "duration": 199}, {"note": 75, "velocity": 93, "duration": 107}, {"note": 73, "velocity": 91, "duration": 125}, {"note": 75, "velocity": 95, "duration": 236}, {"note": 70, "velocity": 100, "duration": 908}, {"note": 68, "velocity": 104, "duration": 377}, {"note": 75, "velocity": 101, "duration": 583}, {"note": 73, "velocity": 90, "duration": 235}, {"note": 77, "velocity": 105, "duration": 414}, {"note": 0, "velocity": 0, "duration": 66}, {"note": 75, "velocity": 94, "duration": 87}, {"note": 73, "velocity": 90, "duration": 135}, {"note": 75, "velocity": 95, "duration": 1784}, {"note": 0, "velocity": 0, "duration": 136}, {"note": 78, "velocity": 93, "duration": 692}, {"note": 80, "velocity": 98, "duration": 213}, {"note": 82, "velocity": 98, "duration": 873}, {"note": 0, "velocity": 0, "duration": 87}, {"note": 83, "velocity": 98, "duration": 246}, {"note": 82, "velocity": 93, "duration": 215}, {"note": 80, "velocity": 95, "duration": 238}, {"note": 83, "velocity": 94, "duration": 229}, {"note": 82, "velocity": 98, "duration": 893}, {"note": 0, "velocity": 0, "duration": 67}, {"note": 78, "velocity": 84, "duration": 237}, {"note": 75, "velocity": 84, "duration": 59}, {"note": 0, "velocity": 0, "duration": 181}, {"note": 75, "velocity": 91, "duration": 379}, {"note": 78, "velocity": 83, "duration": 152}, {"note": 80, "velocity": 83, "duration": 274}, {"note": 0, "velocity": 0, "duration": 86}, {"note": 80, "velocity": 90, "duration": 178}, {"note": 0, "velocity": 0, "duration": 62}, {"note": 80, "velocity": 93, "duration": 206}, {"note": 73, "velocity": 90, "duration": 255}, {"note": 78, "velocity": 83, "duration": 749}, {"note": 80, "velocity": 91, "duration": 234}, {"note": 82, "velocity": 91, "duration": 879}, {"note": 0, "velocity": 0, "duration": 81}, {"note": 78, "velocity": 86, "duration": 654}, {"note": 0, "velocity": 0, "duration": 66}, {"note": 80, "velocity": 93, "duration": 187}, {"note": 82, "velocity": 90, "duration": 860}, {"note": 0, "velocity": 0, "duration": 100}, {"note": 83, "velocity": 86, "duration": 195}, {"note": 82, "velocity": 93, "duration": 231}, {"note": 80, "velocity": 90, "duration": 236}, {"note": 83, "velocity": 93, "duration": 211}, {"note": 82, "velocity": 91, "duration": 832}, {"note": 0, "velocity": 0, "duration": 128}, {"note": 78, "velocity": 84, "duration": 232}, {"note": 75, "velocity": 93, "duration": 162}, {"note": 0, "velocity": 0, "duration": 78}, {"note": 75, "velocity": 84, "duration": 278}, {"note": 78, "velocity": 81, "duration": 209}, {"note": 80, "velocity": 80, "duration": 183}, {"note": 80, "velocity": 84, "duration": 165}, {"note": 0, "velocity": 0, "duration": 75}, {"note": 80, "velocity": 84, "duration": 206}, {"note": 73, "velocity": 90, "duration": 253}, {"note": 78, "velocity": 84, "duration": 586}, {"note": 0, "velocity": 0, "duration": 134}, {"note": 80, "velocity": 91, "duration": 386}, {"note": 0, "velocity": 0, "duration": 94}, {"note": 73, "velocity": 90, "duration": 248}, {"note": 77, "velocity": 84, "duration": 161}, {"note": 0, "velocity": 0, "duration": 79}, {"note": 75, "velocity": 76, "duration": 138}, {"note": 73, "velocity": 76, "duration": 151}, {"note": 75, "velocity": 80, "duration": 714}, {"note": 0, "velocity": 0, "duration": 1206}, {"note": 78, "velocity": 93, "duration": 692}, {"note": 80, "velocity": 98, "duration": 213}, {"note": 82, "velocity": 98, "duration": 873}, {"note": 0, "velocity": 0, "duration": 87}, {"note": 83, "velocity": 98, "duration": 246}, {"note": 82, "velocity": 93, "duration": 215}, {"note": 80, "velocity": 95, "duration": 238}, {"note": 83, "velocity": 94, "duration": 229}, {"note": 82, "velocity": 98, "duration": 893}, {"note": 0, "velocity": 0, "duration": 67}, {"note": 78, "velocity": 84, "duration": 237}, {"note": 75, "velocity": 84, "duration": 59}, {"note": 0, "velocity": 0, "duration": 181}, {"note": 75, "velocity": 91, "duration": 379}, {"note": 78, "velocity": 83, "duration": 152}, {"note": 80, "velocity": 83, "duration": 274}, {"note": 0, "velocity": 0, "duration": 86}, {"note": 80, "velocity": 90, "duration": 178}, {"note": 0, "velocity": 0, "duration": 62}, {"note": 80, "velocity": 93, "duration": 206}, {"note": 73, "velocity": 90, "duration": 255}, {"note": 78, "velocity": 83, "duration": 749}, {"note": 80, "velocity": 91, "duration": 234}, {"note": 82, "velocity": 91, "duration": 879}, {"note": 0, "velocity": 0, "duration": 81}, {"note": 78, "velocity": 86, "duration": 654}, {"note": 0, "velocity": 0, "duration": 66}, {"note": 80, "velocity": 93, "duration": 187}, {"note": 82, "velocity": 90, "duration": 860}, {"note": 0, "velocity": 0, "duration": 100}, {"note": 83, "velocity": 86, "duration": 195}, {"note": 82, "velocity": 93, "duration": 231}, {"note": 80, "velocity": 90, "duration": 236}, {"note": 83, "velocity": 93, "duration": 211}, {"note": 82, "velocity": 91, "duration": 832}, {"note": 0, "velocity": 0, "duration": 128}, {"note": 78, "velocity": 84, "duration": 232}, {"note": 75, "velocity": 93, "duration": 162}, {"note": 0, "velocity": 0, "duration": 78}, {"note": 75, "velocity": 84, "duration": 278}, {"note": 78, "velocity": 81, "duration": 209}, {"note": 80, "velocity": 80, "duration": 183}, {"note": 80, "velocity": 84, "duration": 165}, {"note": 0, "velocity": 0, "duration": 75}, {"note": 80, "velocity": 84, "duration": 206}, {"note": 73, "velocity": 90, "duration": 253}, {"note": 78, "velocity": 84, "duration": 586}, {"note": 0, "velocity": 0, "duration": 134}, {"note": 80, "velocity": 91, "duration": 386}, {"note": 0, "velocity": 0, "duration": 94}, {"note": 73, "velocity": 90, "duration": 248}, {"note": 77, "velocity": 84, "duration": 161}, {"note": 0, "velocity": 0, "duration": 799}, {"note": 75, "velocity": 76, "duration": 138}, {"note": 0, "velocity": 0, "duration": 342}, {"note": 73, "velocity": 76, "duration": 151}, {"note": 0, "velocity": 0, "duration": 89}, {"note": 75, "velocity": 80, "duration": 714}]]