[[{"note": 77, "velocity": 78, "duration": 236}, {"note": 77, "velocity": 80, "duration": 236}, {"note": 77, "velocity": 73, "duration": 236}, {"note": 77, "velocity": 75, "duration": 356}, {"note": 75, "velocity": 83, "duration": 356}, {"note": 74, "velocity": 78, "duration": 236}, {"note": 72, "velocity": 93, "duration": 356}, {"note": 74, "velocity": 84, "duration": 356}, {"note": 67, "velocity": 79, "duration": 1436}, {"note": 77, "velocity": 78, "duration": 236}, {"note": 77, "velocity": 80, "duration": 236}, {"note": 77, "velocity": 73, "duration": 236}, {"note": 77, "velocity": 75, "duration": 356}, {"note": 75, "velocity": 83, "duration": 356}, {"note": 74, "velocity": 78, "duration": 236}, {"note": 72, "velocity": 93, "duration": 356}, {"note": 74, "velocity": 84, "duration": 356}, {"note": 67, "velocity": 79, "duration": 1436}, {"note": 72, "velocity": 86, "duration": 236}, {"note": 72, "velocity": 83, "duration": 236}, {"note": 74, "velocity": 84, "duration": 236}, {"note": 77, "velocity": 84, "duration": 236}, {"note": 79, "velocity": 84, "duration": 476}, {"note": 77, "velocity": 78, "duration": 956}, {"note": 74, "velocity": 82, "duration": 236}, {"note": 74, "velocity": 83, "duration": 236}, {"note": 72, "velocity": 84, "duration": 236}, {"note": 70, "velocity": 82, "duration": 236}, {"note": 72, "velocity": 83, "duration": 476}, {"note": 70, "velocity": 63, "duration": 116}, {"note": 67, "velocity": 81, "duration": 3716}, {"note": 77, "velocity": 78, "duration": 236}, {"note": 77, "velocity": 80, "duration": 236}, {"note": 77, "velocity": 73, "duration": 236}, {"note": 77, "velocity": 75, "duration": 356}, {"note": 75, "velocity": 83, "duration": 356}, {"note": 74, "velocity": 78, "duration": 236}, {"note": 72, "velocity": 93, "duration": 356}, {"note": 74, "velocity": 84, "duration": 356}, {"note": 67, "velocity": 79, "duration": 1436}, {"note": 77, "velocity": 78, "duration": 236}, {"note": 77, "velocity": 80, "duration": 236}, {"note": 77, "velocity": 73, "duration": 236}, {"note": 77, "velocity": 75, "duration": 356}, {"note": 75, "velocity": 83, "duration": 356}, {"note": 74, "velocity": 78, "duration": 236}, {"note": 72, "velocity": 93, "duration": 356}, {"note": 74, "velocity": 84, "duration": 356}, {"note": 67, "velocity": 79, "duration": 1436}, {"note": 72, "velocity": 86, "duration": 236}, {"note": 72, "velocity": 83, "duration": 236}, {"note": 74, "velocity": 84, "duration": 236}, {"note": 77, "velocity": 84, "duration": 236}, {"note": 79, "velocity": 84, "duration": 476}, {"note": 77, "velocity": 78, "duration": 956}, {"note": 74, "velocity": 82, "duration": 236}, {"note": 74, "velocity": 83, "duration": 236}, {"note": 72, "velocity": 84, "duration": 236}, {"note": 70, "velocity": 82, "duration": 236}, {"note": 72, "velocity": 83, "duration": 476}, {"note": 70, "velocity": 63, "duration": 116}, {"note": 67, "velocity": 81, "duration": 1556}, {"note": 72, "velocity": 93, "duration": 476}, {"note": 74, "velocity": 98, "duration": 476}, {"note": 75, "velocity": 95, "duration": 476}, {"note": 77, "velocity": 90, "duration": 476}, {"note": 84, "velocity": 83, "duration": 236}, {"note": 84, "velocity": 83, "duration": 236}, {"note": 84, "velocity": 90, "duration": 236}, {"note": 82, "velocity": 90, "duration": 236}, {"note": 82, "velocity": 90, "duration": 716}, {"note": 82, "velocity": 93, "duration": 236}, {"note": 81, "velocity": 90, "duration": 236}, {"note": 81, "velocity": 98, "duration": 236}, {"note": 81, "velocity": 95, "duration": 236}, {"note": 81, "velocity": 95, "duration": 236}, {"note": 82, "velocity": 90, "duration": 476}, {"note": 81, "velocity": 93, "duration": 236}, {"note": 77, "velocity": 84, "duration": 236}, {"note": 79, "velocity": 84, "duration": 236}, {"note": 79, "velocity": 84, "duration": 236}, {"note": 79, "velocity": 84, "duration": 236}, {"note": 77, "velocity": 84, "duration": 236}, {"note": 79, "velocity": 72, "duration": 476}, {"note": 79, "velocity": 90, "duration": 236}, {"note": 77, "velocity": 83, "duration": 236}, {"note": 79, "velocity": 95, "duration": 236}, {"note": 79, "velocity": 98, "duration": 236}, {"note": 79, "velocity": 91, "duration": 236}, {"note": 86, "velocity": 95, "duration": 236}, {"note": 84, "velocity": 98, "duration": 716}, {"note": 82, "velocity": 72, "duration": 236}, {"note": 84, "velocity": 83, "duration": 236}, {"note": 84, "velocity": 83, "duration": 236}, {"note": 84, "velocity": 90, "duration": 236}, {"note": 82, "velocity": 90, "duration": 236}, {"note": 82, "velocity": 90, "duration": 716}, {"note": 82, "velocity": 93, "duration": 236}, {"note": 81, "velocity": 90, "duration": 236}, {"note": 81, "velocity": 98, "duration": 236}, {"note": 81, "velocity": 95, "duration": 236}, {"note": 81, "velocity": 95, "duration": 236}, {"note": 82, "velocity": 90, "duration": 476}, {"note": 82, "velocity": 93, "duration": 236}, {"note": 77, "velocity": 84, "duration": 236}, {"note": 79, "velocity": 84, "duration": 356}, {"note": 77, "velocity": 78, "duration": 116}, {"note": 70, "velocity": 90, "duration": 1196}, {"note": 72, "velocity": 84, "duration": 116}, {"note": 74, "velocity": 76, "duration": 116}, {"note": 75, "velocity": 83, "duration": 236}, {"note": 74, "velocity": 83, "duration": 236}, {"note": 70, "velocity": 90, "duration": 236}, {"note": 75, "velocity": 81, "duration": 476}, {"note": 74, "velocity": 86, "duration": 476}, {"note": 70, "velocity": 84, "duration": 236}, {"note": 70, "velocity": 82, "duration": 1916}, {"note": 0, "velocity": 0, "duration": 13684}, {"note": 77, "velocity": 78, "duration": 236}, {"note": 77, "velocity": 80, "duration": 236}, {"note": 77, "velocity": 73, "duration": 236}, {"note": 77, "velocity": 75, "duration": 356}, {"note": 75, "velocity": 83, "duration": 356}, {"note": 74, "velocity": 78, "duration": 236}, {"note": 72, "velocity": 93, "duration": 356}, {"note": 74, "velocity": 84, "duration": 356}, {"note": 67, "velocity": 79, "duration": 1436}, {"note": 77, "velocity": 78, "duration": 236}, {"note": 77, "velocity": 80, "duration": 236}, {"note": 77, "velocity": 73, "duration": 236}, {"note": 77, "velocity": 75, "duration": 356}, {"note": 75, "velocity": 83, "duration": 356}, {"note": 74, "velocity": 78, "duration": 236}, {"note": 72, "velocity": 93, "duration": 356}, {"note": 74, "velocity": 84, "duration": 356}, {"note": 67, "velocity": 79, "duration": 1436}, {"note": 72, "velocity": 86, "duration": 236}, {"note": 72, "velocity": 83, "duration": 236}, {"note": 74, "velocity": 84, "duration": 236}, {"note": 77, "velocity": 84, "duration": 236}, {"note": 79, "velocity": 84, "duration": 476}, {"note": 77, "velocity": 78, "duration": 956}, {"note": 74, "velocity": 82, "duration": 236}, {"note": 74, "velocity": 83, "duration": 236}, {"note": 72, "velocity": 84, "duration": 236}, {"note": 70, "velocity": 82, "duration": 236}, {"note": 72, "velocity": 83, "duration": 476}, {"note": 70, "velocity": 63, "duration": 116}, {"note": 67, "velocity": 81, "duration": 3716}, {"note": 77, "velocity": 78, "duration": 236}, {"note": 77, "velocity": 80, "duration": 236}, {"note": 77, "velocity": 73, "duration": 236}, {"note": 77, "velocity": 75, "duration": 356}, {"note": 75, "velocity": 83, "duration": 356}, {"note": 74, "velocity": 78, "duration": 236}, {"note": 72, "velocity": 93, "duration": 356}, {"note": 74, "velocity": 84, "duration": 356}, {"note": 67, "velocity": 79, "duration": 1436}, {"note": 77, "velocity": 78, "duration": 236}, {"note": 77, "velocity": 80, "duration": 236}, {"note": 77, "velocity": 73, "duration": 236}, {"note": 77, "velocity": 75, "duration": 356}, {"note": 75, "velocity": 83, "duration": 356}, {"note": 74, "velocity": 78, "duration": 236}, {"note": 72, "velocity": 93, "duration": 356}, {"note": 74, "velocity": 84, "duration": 356}, {"note": 67, "velocity": 79, "duration": 1436}, {"note": 72, "velocity": 86, "duration": 236}, {"note": 72, "velocity": 83, "duration": 236}, {"note": 74, "velocity": 84, "duration": 236}, {"note": 77, "velocity": 84, "duration": 236}, {"note": 79, "velocity": 84, "duration": 476}, {"note": 77, "velocity": 78, "duration": 956}, {"note": 74, "velocity": 82, "duration": 236}, {"note": 74, "velocity": 83, "duration": 236}, {"note": 72, "velocity": 84, "duration": 236}, {"note": 70, "velocity": 82, "duration": 236}, {"note": 72, "velocity": 83, "duration": 476}, {"note": 70, "velocity": 63, "duration": 116}, {"note": 67, "velocity": 81, "duration": 1556}, {"note": 72, "velocity": 93, "duration": 476}, {"note": 74, "velocity": 98, "duration": 476}, {"note": 75, "velocity": 95, "duration": 476}, {"note": 77, "velocity": 90, "duration": 476}, {"note": 84, "velocity": 83, "duration": 236}, {"note": 84, "velocity": 83, "duration": 236}, {"note": 84, "velocity": 90, "duration": 236}, {"note": 82, "velocity": 90, "duration": 236}, {"note": 82, "velocity": 90, "duration": 716}, {"note": 82, "velocity": 93, "duration": 236}, {"note": 81, "velocity": 90, "duration": 236}, {"note": 81, "velocity": 98, "duration": 236}, {"note": 81, "velocity": 95, "duration": 236}, {"note": 81, "velocity": 95, "duration": 236}, {"note": 82, "velocity": 90, "duration": 476}, {"note": 81, "velocity": 93, "duration": 236}, {"note": 77, "velocity": 84, "duration": 236}, {"note": 79, "velocity": 84, "duration": 236}, {"note": 79, "velocity": 84, "duration": 236}, {"note": 79, "velocity": 84, "duration": 236}, {"note": 77, "velocity": 84, "duration": 236}, {"note": 79, "velocity": 72, "duration": 476}, {"note": 79, "velocity": 90, "duration": 236}, {"note": 77, "velocity": 83, "duration": 236}, {"note": 79, "velocity": 95, "duration": 236}, {"note": 79, "velocity": 98, "duration": 236}, {"note": 79, "velocity": 91, "duration": 236}, {"note": 86, "velocity": 95, "duration": 236}, {"note": 84, "velocity": 98, "duration": 716}, {"note": 82, "velocity": 72, "duration": 236}, {"note": 84, "velocity": 83, "duration": 236}, {"note": 84, "velocity": 83, "duration": 236}, {"note": 84, "velocity": 90, "duration": 236}, {"note": 82, "velocity": 90, "duration": 236}, {"note": 82, "velocity": 90, "duration": 716}, {"note": 82, "velocity": 93, "duration": 236}, {"note": 81, "velocity": 90, "duration": 236}, {"note": 81, "velocity": 98, "duration": 236}, {"note": 81, "velocity": 95, "duration": 236}, {"note": 81, "velocity": 95, "duration": 236}, {"note": 82, "velocity": 90, "duration": 476}, {"note": 82, "velocity": 93, "duration": 236}, {"note": 77, "velocity": 84, "duration": 236}, {"note": 79, "velocity": 84, "duration": 356}, {"note": 77, "velocity": 78, "duration": 116}, {"note": 70, "velocity": 90, "duration": 1196}, {"note": 72, "velocity": 84, "duration": 116}, {"note": 74, "velocity": 76, "duration": 116}, {"note": 75, "velocity": 83, "duration": 236}, {"note": 74, "velocity": 83, "duration": 236}, {"note": 70, "velocity": 90, "duration": 236}, {"note": 75, "velocity": 81, "duration": 476}, {"note": 74, "velocity": 86, "duration": 476}, {"note": 70, "velocity": 84, "duration": 236}, {"note": 70, "velocity": 82, "duration": 1916}, {"note": 0, "velocity": 0, "duration": 1924}, {"note": 84, "velocity": 83, "duration": 236}, {"note": 84, "velocity": 83, "duration": 236}, {"note": 84, "velocity": 90, "duration": 236}, {"note": 82, "velocity": 90, "duration": 236}, {"note": 82, "velocity": 90, "duration": 716}, {"note": 82, "velocity": 93, "duration": 236}, {"note": 81, "velocity": 90, "duration": 236}, {"note": 81, "velocity": 98, "duration": 236}, {"note": 81, "velocity": 95, "duration": 236}, {"note": 81, "velocity": 95, "duration": 236}, {"note": 82, "velocity": 90, "duration": 476}, {"note": 81, "velocity": 93, "duration": 236}, {"note": 77, "velocity": 84, "duration": 236}, {"note": 79, "velocity": 84, "duration": 236}, {"note": 79, "velocity": 84, "duration": 236}, {"note": 79, "velocity": 84, "duration": 236}, {"note": 77, "velocity": 84, "duration": 236}, {"note": 79, "velocity": 72, "duration": 476}, {"note": 79, "velocity": 90, "duration": 236}, {"note": 77, "velocity": 83, "duration": 236}, {"note": 79, "velocity": 95, "duration": 236}, {"note": 79, "velocity": 98, "duration": 236}, {"note": 79, "velocity": 91, "duration": 236}, {"note": 86, "velocity": 95, "duration": 236}, {"note": 84, "velocity": 98, "duration": 716}, {"note": 82, "velocity": 72, "duration": 236}, {"note": 84, "velocity": 83, "duration": 236}, {"note": 84, "velocity": 83, "duration": 236}, {"note": 84, "velocity": 90, "duration": 236}, {"note": 82, "velocity": 90, "duration": 236}, {"note": 82, "velocity": 90, "duration": 716}, {"note": 82, "velocity": 93, "duration": 236}, {"note": 81, "velocity": 90, "duration": 236}, {"note": 81, "velocity": 98, "duration": 236}, {"note": 81, "velocity": 95, "duration": 236}, {"note": 81, "velocity": 95, "duration": 236}, {"note": 82, "velocity": 90, "duration": 476}, {"note": 82, "velocity": 93, "duration": 236}, {"note": 77, "velocity": 84, "duration": 236}, {"note": 79, "velocity": 84, "duration": 356}, {"note": 77, "velocity": 78, "duration": 116}, {"note": 70, "velocity": 90, "duration": 1196}, {"note": 72, "velocity": 84, "duration": 116}, {"note": 74, "velocity": 76, "duration": 116}, {"note": 75, "velocity": 83, "duration": 236}, {"note": 74, "velocity": 83, "duration": 236}, {"note": 70, "velocity": 90, "duration": 236}, {"note": 75, "velocity": 81, "duration": 476}, {"note": 74, "velocity": 86, "duration": 476}, {"note": 70, "velocity": 84, "duration": 236}, {"note": 0, "velocity": 0, "duration": 244}, {"note": 70, "velocity": 82, "duration": 1916}]]