[[{"note": 73, "velocity": 75, "duration": 477}, {"note": 73, "velocity": 87, "duration": 478}, {"note": 76, "velocity": 86, "duration": 478}, {"note": 75, "velocity": 86, "duration": 478}, {"note": 73, "velocity": 86, "duration": 477}, {"note": 73, "velocity": 75, "duration": 489}, {"note": 71, "velocity": 77, "duration": 478}, {"note": 68, "velocity": 83, "duration": 478}, {"note": 73, "velocity": 95, "duration": 478}, {"note": 80, "velocity": 95, "duration": 237}, {"note": 80, "velocity": 91, "duration": 219}, {"note": 75, "velocity": 66, "duration": 227}, {"note": 73, "velocity": 66, "duration": 228}, {"note": 71, "velocity": 75, "duration": 36}, {"note": 73, "velocity": 99, "duration": 1912}, {"note": 73, "velocity": 90, "duration": 477}, {"note": 73, "velocity": 89, "duration": 478}, {"note": 76, "velocity": 90, "duration": 519}, {"note": 75, "velocity": 90, "duration": 478}, {"note": 73, "velocity": 79, "duration": 477}, {"note": 73, "velocity": 76, "duration": 519}, {"note": 71, "velocity": 92, "duration": 478}, {"note": 68, "velocity": 65, "duration": 478}, {"note": 73, "velocity": 103, "duration": 1438}, {"note": 66, "velocity": 96, "duration": 478}, {"note": 68, "velocity": 101, "duration": 1921}, {"note": 71, "velocity": 101, "duration": 475}, {"note": 71, "velocity": 92, "duration": 238}, {"note": 73, "velocity": 83, "duration": 238}, {"note": 76, "velocity": 95, "duration": 492}, {"note": 75, "velocity": 101, "duration": 478}, {"note": 73, "velocity": 105, "duration": 477}, {"note": 73, "velocity": 106, "duration": 1438}, {"note": 71, "velocity": 97, "duration": 454}, {"note": 71, "velocity": 91, "duration": 116}, {"note": 73, "velocity": 83, "duration": 358}, {"note": 80, "velocity": 90, "duration": 478}, {"note": 75, "velocity": 90, "duration": 477}, {"note": 75, "velocity": 81, "duration": 255}, {"note": 73, "velocity": 90, "duration": 1678}, {"note": 78, "velocity": 100, "duration": 477}, {"note": 78, "velocity": 90, "duration": 83}, {"note": 76, "velocity": 93, "duration": 76}, {"note": 78, "velocity": 97, "duration": 261}, {"note": 78, "velocity": 100, "duration": 128}, {"note": 78, "velocity": 111, "duration": 713}, {"note": 76, "velocity": 91, "duration": 14}, {"note": 78, "velocity": 97, "duration": 223}, {"note": 78, "velocity": 100, "duration": 434}, {"note": 73, "velocity": 93, "duration": 465}, {"note": 83, "velocity": 90, "duration": 958}, {"note": 80, "velocity": 101, "duration": 478}, {"note": 78, "velocity": 106, "duration": 478}, {"note": 76, "velocity": 97, "duration": 914}, {"note": 75, "velocity": 91, "duration": 478}, {"note": 76, "velocity": 95, "duration": 1918}, {"note": 75, "velocity": 108, "duration": 718}, {"note": 80, "velocity": 97, "duration": 263}, {"note": 75, "velocity": 99, "duration": 478}, {"note": 80, "velocity": 99, "duration": 478}, {"note": 75, "velocity": 103, "duration": 19}, {"note": 73, "velocity": 103, "duration": 958}, {"note": 71, "velocity": 100, "duration": 478}, {"note": 73, "velocity": 116, "duration": 3838}, {"note": 80, "velocity": 111, "duration": 477}, {"note": 80, "velocity": 108, "duration": 478}, {"note": 83, "velocity": 98, "duration": 478}, {"note": 80, "velocity": 109, "duration": 516}, {"note": 78, "velocity": 106, "duration": 477}, {"note": 78, "velocity": 105, "duration": 1437}, {"note": 78, "velocity": 106, "duration": 477}, {"note": 78, "velocity": 97, "duration": 477}, {"note": 78, "velocity": 96, "duration": 478}, {"note": 75, "velocity": 96, "duration": 478}, {"note": 76, "velocity": 91, "duration": 244}, {"note": 75, "velocity": 61, "duration": 238}, {"note": 73, "velocity": 71, "duration": 1438}, {"note": 80, "velocity": 101, "duration": 477}, {"note": 80, "velocity": 98, "duration": 478}, {"note": 85, "velocity": 98, "duration": 478}, {"note": 80, "velocity": 99, "duration": 238}, {"note": 78, "velocity": 98, "duration": 238}, {"note": 80, "velocity": 105, "duration": 478}, {"note": 78, "velocity": 103, "duration": 1419}, {"note": 78, "velocity": 103, "duration": 453}, {"note": 78, "velocity": 101, "duration": 478}, {"note": 83, "velocity": 100, "duration": 478}, {"note": 80, "velocity": 105, "duration": 251}, {"note": 78, "velocity": 97, "duration": 238}, {"note": 80, "velocity": 109, "duration": 3838}, {"note": 83, "velocity": 105, "duration": 957}, {"note": 83, "velocity": 103, "duration": 958}, {"note": 80, "velocity": 101, "duration": 491}, {"note": 78, "velocity": 109, "duration": 958}, {"note": 75, "velocity": 109, "duration": 477}, {"note": 75, "velocity": 119, "duration": 337}, {"note": 73, "velocity": 106, "duration": 3467}, {"note": 0, "velocity": 0, "duration": 9602}, {"note": 73, "velocity": 75, "duration": 477}, {"note": 73, "velocity": 87, "duration": 478}, {"note": 76, "velocity": 86, "duration": 478}, {"note": 75, "velocity": 86, "duration": 478}, {"note": 73, "velocity": 86, "duration": 477}, {"note": 73, "velocity": 75, "duration": 479}, {"note": 71, "velocity": 77, "duration": 478}, {"note": 68, "velocity": 83, "duration": 478}, {"note": 73, "velocity": 95, "duration": 478}, {"note": 80, "velocity": 95, "duration": 237}, {"note": 80, "velocity": 91, "duration": 219}, {"note": 75, "velocity": 66, "duration": 227}, {"note": 73, "velocity": 66, "duration": 228}, {"note": 71, "velocity": 75, "duration": 31}, {"note": 73, "velocity": 99, "duration": 1912}, {"note": 73, "velocity": 90, "duration": 477}, {"note": 73, "velocity": 89, "duration": 478}, {"note": 76, "velocity": 90, "duration": 519}, {"note": 75, "velocity": 90, "duration": 478}, {"note": 73, "velocity": 79, "duration": 477}, {"note": 73, "velocity": 76, "duration": 519}, {"note": 71, "velocity": 92, "duration": 478}, {"note": 68, "velocity": 65, "duration": 478}, {"note": 73, "velocity": 103, "duration": 461}, {"note": 73, "velocity": 103, "duration": 491}, {"note": 64, "velocity": 103, "duration": 447}, {"note": 66, "velocity": 96, "duration": 478}, {"note": 68, "velocity": 101, "duration": 1921}, {"note": 71, "velocity": 101, "duration": 475}, {"note": 71, "velocity": 92, "duration": 238}, {"note": 73, "velocity": 83, "duration": 238}, {"note": 76, "velocity": 95, "duration": 492}, {"note": 75, "velocity": 101, "duration": 478}, {"note": 73, "velocity": 105, "duration": 477}, {"note": 73, "velocity": 106, "duration": 1438}, {"note": 71, "velocity": 97, "duration": 454}, {"note": 71, "velocity": 91, "duration": 241}, {"note": 73, "velocity": 83, "duration": 215}, {"note": 80, "velocity": 90, "duration": 478}, {"note": 75, "velocity": 90, "duration": 477}, {"note": 75, "velocity": 81, "duration": 255}, {"note": 73, "velocity": 90, "duration": 1678}, {"note": 78, "velocity": 100, "duration": 477}, {"note": 78, "velocity": 90, "duration": 78}, {"note": 76, "velocity": 93, "duration": 71}, {"note": 78, "velocity": 97, "duration": 257}, {"note": 78, "velocity": 100, "duration": 124}, {"note": 78, "velocity": 111, "duration": 709}, {"note": 76, "velocity": 91, "duration": 4}, {"note": 78, "velocity": 97, "duration": 213}, {"note": 78, "velocity": 100, "duration": 434}, {"note": 73, "velocity": 93, "duration": 465}, {"note": 83, "velocity": 90, "duration": 958}, {"note": 80, "velocity": 101, "duration": 478}, {"note": 78, "velocity": 106, "duration": 478}, {"note": 76, "velocity": 97, "duration": 914}, {"note": 75, "velocity": 91, "duration": 478}, {"note": 76, "velocity": 95, "duration": 1918}, {"note": 75, "velocity": 108, "duration": 718}, {"note": 80, "velocity": 97, "duration": 263}, {"note": 75, "velocity": 99, "duration": 478}, {"note": 80, "velocity": 99, "duration": 478}, {"note": 75, "velocity": 103, "duration": 14}, {"note": 73, "velocity": 103, "duration": 958}, {"note": 71, "velocity": 100, "duration": 478}, {"note": 73, "velocity": 116, "duration": 3838}, {"note": 80, "velocity": 111, "duration": 477}, {"note": 80, "velocity": 108, "duration": 478}, {"note": 83, "velocity": 98, "duration": 478}, {"note": 80, "velocity": 109, "duration": 516}, {"note": 78, "velocity": 106, "duration": 477}, {"note": 78, "velocity": 105, "duration": 1437}, {"note": 78, "velocity": 106, "duration": 477}, {"note": 78, "velocity": 97, "duration": 477}, {"note": 78, "velocity": 96, "duration": 478}, {"note": 75, "velocity": 96, "duration": 478}, {"note": 76, "velocity": 91, "duration": 244}, {"note": 75, "velocity": 61, "duration": 238}, {"note": 73, "velocity": 71, "duration": 1438}, {"note": 80, "velocity": 101, "duration": 477}, {"note": 80, "velocity": 98, "duration": 478}, {"note": 85, "velocity": 98, "duration": 478}, {"note": 80, "velocity": 99, "duration": 238}, {"note": 78, "velocity": 98, "duration": 238}, {"note": 80, "velocity": 105, "duration": 478}, {"note": 78, "velocity": 103, "duration": 955}, {"note": 78, "velocity": 103, "duration": 461}, {"note": 78, "velocity": 103, "duration": 453}, {"note": 78, "velocity": 101, "duration": 238}, {"note": 78, "velocity": 101, "duration": 229}, {"note": 83, "velocity": 100, "duration": 478}, {"note": 80, "velocity": 105, "duration": 251}, {"note": 78, "velocity": 97, "duration": 238}, {"note": 80, "velocity": 109, "duration": 3838}, {"note": 83, "velocity": 105, "duration": 957}, {"note": 83, "velocity": 103, "duration": 958}, {"note": 80, "velocity": 101, "duration": 491}, {"note": 78, "velocity": 109, "duration": 958}, {"note": 75, "velocity": 109, "duration": 477}, {"note": 75, "velocity": 119, "duration": 140}, {"note": 73, "velocity": 106, "duration": 3483}, {"note": 80, "velocity": 111, "duration": 477}, {"note": 80, "velocity": 108, "duration": 478}, {"note": 83, "velocity": 98, "duration": 478}, {"note": 80, "velocity": 109, "duration": 480}, {"note": 78, "velocity": 106, "duration": 477}, {"note": 78, "velocity": 105, "duration": 1437}, {"note": 78, "velocity": 106, "duration": 477}, {"note": 78, "velocity": 97, "duration": 477}, {"note": 78, "velocity": 96, "duration": 478}, {"note": 76, "velocity": 96, "duration": 230}, {"note": 75, "velocity": 96, "duration": 243}, {"note": 76, "velocity": 91, "duration": 244}, {"note": 75, "velocity": 61, "duration": 238}, {"note": 73, "velocity": 71, "duration": 1438}, {"note": 80, "velocity": 101, "duration": 477}, {"note": 80, "velocity": 98, "duration": 478}, {"note": 85, "velocity": 98, "duration": 478}, {"note": 80, "velocity": 99, "duration": 238}, {"note": 78, "velocity": 98, "duration": 238}, {"note": 80, "velocity": 105, "duration": 478}, {"note": 78, "velocity": 103, "duration": 955}, {"note": 78, "velocity": 103, "duration": 462}, {"note": 78, "velocity": 103, "duration": 453}, {"note": 78, "velocity": 101, "duration": 238}, {"note": 78, "velocity": 101, "duration": 229}, {"note": 83, "velocity": 100, "duration": 478}, {"note": 80, "velocity": 105, "duration": 251}, {"note": 78, "velocity": 97, "duration": 238}, {"note": 80, "velocity": 109, "duration": 3838}, {"note": 83, "velocity": 105, "duration": 957}, {"note": 83, "velocity": 103, "duration": 958}, {"note": 80, "velocity": 101, "duration": 491}, {"note": 78, "velocity": 109, "duration": 958}, {"note": 83, "velocity": 109, "duration": 10}, {"note": 85, "velocity": 106, "duration": 8280}]]