[[{"note": 73, "velocity": 78, "duration": 116}, {"note": 75, "velocity": 82, "duration": 116}, {"note": 77, "velocity": 81, "duration": 236}, {"note": 77, "velocity": 83, "duration": 236}, {"note": 77, "velocity": 83, "duration": 236}, {"note": 77, "velocity": 77, "duration": 236}, {"note": 77, "velocity": 79, "duration": 236}, {"note": 75, "velocity": 82, "duration": 236}, {"note": 73, "velocity": 73, "duration": 236}, {"note": 77, "velocity": 71, "duration": 236}, {"note": 75, "velocity": 79, "duration": 236}, {"note": 75, "velocity": 77, "duration": 236}, {"note": 72, "velocity": 80, "duration": 236}, {"note": 70, "velocity": 68, "duration": 116}, {"note": 68, "velocity": 79, "duration": 836}, {"note": 70, "velocity": 79, "duration": 116}, {"note": 72, "velocity": 84, "duration": 116}, {"note": 73, "velocity": 78, "duration": 236}, {"note": 73, "velocity": 82, "duration": 236}, {"note": 73, "velocity": 84, "duration": 236}, {"note": 73, "velocity": 69, "duration": 236}, {"note": 73, "velocity": 80, "duration": 236}, {"note": 72, "velocity": 77, "duration": 236}, {"note": 70, "velocity": 72, "duration": 236}, {"note": 73, "velocity": 79, "duration": 236}, {"note": 72, "velocity": 82, "duration": 476}, {"note": 72, "velocity": 79, "duration": 236}, {"note": 65, "velocity": 74, "duration": 236}, {"note": 68, "velocity": 77, "duration": 716}, {"note": 68, "velocity": 83, "duration": 236}, {"note": 70, "velocity": 82, "duration": 476}, {"note": 66, "velocity": 80, "duration": 236}, {"note": 65, "velocity": 80, "duration": 236}, {"note": 63, "velocity": 78, "duration": 716}, {"note": 70, "velocity": 61, "duration": 236}, {"note": 68, "velocity": 79, "duration": 476}, {"note": 65, "velocity": 78, "duration": 236}, {"note": 63, "velocity": 82, "duration": 236}, {"note": 61, "velocity": 84, "duration": 716}, {"note": 63, "velocity": 84, "duration": 116}, {"note": 65, "velocity": 79, "duration": 116}, {"note": 66, "velocity": 80, "duration": 236}, {"note": 66, "velocity": 83, "duration": 236}, {"note": 66, "velocity": 84, "duration": 236}, {"note": 65, "velocity": 79, "duration": 236}, {"note": 66, "velocity": 82, "duration": 236}, {"note": 68, "velocity": 79, "duration": 236}, {"note": 70, "velocity": 75, "duration": 236}, {"note": 73, "velocity": 93, "duration": 236}, {"note": 72, "velocity": 83, "duration": 716}, {"note": 70, "velocity": 78, "duration": 236}, {"note": 68, "velocity": 79, "duration": 716}, {"note": 73, "velocity": 78, "duration": 116}, {"note": 75, "velocity": 82, "duration": 116}, {"note": 77, "velocity": 81, "duration": 236}, {"note": 77, "velocity": 83, "duration": 236}, {"note": 77, "velocity": 83, "duration": 236}, {"note": 77, "velocity": 77, "duration": 236}, {"note": 77, "velocity": 79, "duration": 236}, {"note": 75, "velocity": 82, "duration": 236}, {"note": 73, "velocity": 73, "duration": 236}, {"note": 77, "velocity": 71, "duration": 236}, {"note": 75, "velocity": 79, "duration": 236}, {"note": 75, "velocity": 77, "duration": 236}, {"note": 72, "velocity": 80, "duration": 236}, {"note": 70, "velocity": 68, "duration": 116}, {"note": 68, "velocity": 79, "duration": 836}, {"note": 70, "velocity": 79, "duration": 116}, {"note": 72, "velocity": 84, "duration": 116}, {"note": 73, "velocity": 78, "duration": 236}, {"note": 73, "velocity": 82, "duration": 236}, {"note": 73, "velocity": 84, "duration": 236}, {"note": 73, "velocity": 69, "duration": 236}, {"note": 73, "velocity": 80, "duration": 236}, {"note": 72, "velocity": 77, "duration": 236}, {"note": 70, "velocity": 72, "duration": 236}, {"note": 73, "velocity": 79, "duration": 236}, {"note": 72, "velocity": 82, "duration": 476}, {"note": 72, "velocity": 79, "duration": 236}, {"note": 65, "velocity": 74, "duration": 236}, {"note": 68, "velocity": 77, "duration": 716}, {"note": 68, "velocity": 83, "duration": 236}, {"note": 70, "velocity": 82, "duration": 476}, {"note": 66, "velocity": 80, "duration": 236}, {"note": 65, "velocity": 80, "duration": 236}, {"note": 63, "velocity": 78, "duration": 716}, {"note": 70, "velocity": 61, "duration": 236}, {"note": 68, "velocity": 79, "duration": 476}, {"note": 72, "velocity": 90, "duration": 476}, {"note": 73, "velocity": 90, "duration": 596}, {"note": 70, "velocity": 82, "duration": 236}, {"note": 68, "velocity": 79, "duration": 116}, {"note": 70, "velocity": 79, "duration": 956}, {"note": 70, "velocity": 82, "duration": 236}, {"note": 72, "velocity": 84, "duration": 236}, {"note": 73, "velocity": 84, "duration": 236}, {"note": 70, "velocity": 83, "duration": 236}, {"note": 75, "velocity": 84, "duration": 1196}, {"note": 68, "velocity": 86, "duration": 236}, {"note": 68, "velocity": 83, "duration": 236}, {"note": 68, "velocity": 83, "duration": 236}, {"note": 77, "velocity": 80, "duration": 476}, {"note": 77, "velocity": 83, "duration": 716}, {"note": 77, "velocity": 84, "duration": 236}, {"note": 75, "velocity": 82, "duration": 236}, {"note": 73, "velocity": 91, "duration": 236}, {"note": 80, "velocity": 84, "duration": 476}, {"note": 75, "velocity": 86, "duration": 716}, {"note": 77, "velocity": 84, "duration": 236}, {"note": 75, "velocity": 84, "duration": 236}, {"note": 73, "velocity": 90, "duration": 236}, {"note": 73, "velocity": 46, "duration": 236}, {"note": 73, "velocity": 90, "duration": 236}, {"note": 73, "velocity": 93, "duration": 236}, {"note": 73, "velocity": 94, "duration": 236}, {"note": 85, "velocity": 86, "duration": 236}, {"note": 85, "velocity": 90, "duration": 236}, {"note": 84, "velocity": 86, "duration": 236}, {"note": 82, "velocity": 84, "duration": 236}, {"note": 80, "velocity": 50, "duration": 236}, {"note": 82, "velocity": 78, "duration": 236}, {"note": 80, "velocity": 81, "duration": 236}, {"note": 80, "velocity": 81, "duration": 716}, {"note": 73, "velocity": 98, "duration": 236}, {"note": 73, "velocity": 95, "duration": 236}, {"note": 73, "velocity": 86, "duration": 236}, {"note": 73, "velocity": 98, "duration": 476}, {"note": 82, "velocity": 94, "duration": 716}, {"note": 73, "velocity": 91, "duration": 236}, {"note": 73, "velocity": 91, "duration": 236}, {"note": 73, "velocity": 94, "duration": 236}, {"note": 73, "velocity": 98, "duration": 476}, {"note": 80, "velocity": 90, "duration": 716}, {"note": 73, "velocity": 98, "duration": 236}, {"note": 73, "velocity": 90, "duration": 236}, {"note": 73, "velocity": 83, "duration": 236}, {"note": 78, "velocity": 80, "duration": 236}, {"note": 78, "velocity": 90, "duration": 236}, {"note": 78, "velocity": 84, "duration": 236}, {"note": 80, "velocity": 78, "duration": 236}, {"note": 82, "velocity": 84, "duration": 356}, {"note": 85, "velocity": 83, "duration": 356}, {"note": 77, "velocity": 83, "duration": 236}, {"note": 75, "velocity": 83, "duration": 1196}, {"note": 68, "velocity": 82, "duration": 236}, {"note": 68, "velocity": 83, "duration": 236}, {"note": 68, "velocity": 83, "duration": 236}, {"note": 77, "velocity": 86, "duration": 476}, {"note": 77, "velocity": 91, "duration": 716}, {"note": 77, "velocity": 56, "duration": 236}, {"note": 75, "velocity": 86, "duration": 236}, {"note": 73, "velocity": 80, "duration": 236}, {"note": 80, "velocity": 86, "duration": 476}, {"note": 75, "velocity": 84, "duration": 716}, {"note": 77, "velocity": 90, "duration": 236}, {"note": 75, "velocity": 84, "duration": 236}, {"note": 73, "velocity": 84, "duration": 236}, {"note": 73, "velocity": 93, "duration": 236}, {"note": 73, "velocity": 90, "duration": 236}, {"note": 73, "velocity": 90, "duration": 236}, {"note": 85, "velocity": 90, "duration": 236}, {"note": 85, "velocity": 91, "duration": 236}, {"note": 84, "velocity": 79, "duration": 236}, {"note": 82, "velocity": 84, "duration": 236}, {"note": 80, "velocity": 84, "duration": 236}, {"note": 82, "velocity": 80, "duration": 236}, {"note": 80, "velocity": 84, "duration": 236}, {"note": 80, "velocity": 91, "duration": 716}, {"note": 72, "velocity": 98, "duration": 236}, {"note": 73, "velocity": 95, "duration": 236}, {"note": 72, "velocity": 90, "duration": 236}, {"note": 73, "velocity": 79, "duration": 476}, {"note": 82, "velocity": 79, "duration": 716}, {"note": 82, "velocity": 90, "duration": 236}, {"note": 84, "velocity": 90, "duration": 236}, {"note": 85, "velocity": 91, "duration": 236}, {"note": 85, "velocity": 98, "duration": 476}, {"note": 80, "velocity": 86, "duration": 716}, {"note": 73, "velocity": 94, "duration": 236}, {"note": 73, "velocity": 95, "duration": 236}, {"note": 73, "velocity": 91, "duration": 236}, {"note": 78, "velocity": 91, "duration": 236}, {"note": 78, "velocity": 91, "duration": 236}, {"note": 78, "velocity": 90, "duration": 236}, {"note": 80, "velocity": 82, "duration": 236}, {"note": 82, "velocity": 90, "duration": 356}, {"note": 85, "velocity": 93, "duration": 356}, {"note": 77, "velocity": 84, "duration": 236}, {"note": 75, "velocity": 98, "duration": 956}, {"note": 78, "velocity": 91, "duration": 236}, {"note": 77, "velocity": 90, "duration": 476}, {"note": 75, "velocity": 90, "duration": 116}, {"note": 73, "velocity": 83, "duration": 116}, {"note": 73, "velocity": 91, "duration": 1916}, {"note": 0, "velocity": 0, "duration": 17044}, {"note": 73, "velocity": 78, "duration": 116}, {"note": 75, "velocity": 82, "duration": 116}, {"note": 77, "velocity": 81, "duration": 236}, {"note": 77, "velocity": 83, "duration": 236}, {"note": 77, "velocity": 83, "duration": 236}, {"note": 77, "velocity": 77, "duration": 236}, {"note": 77, "velocity": 79, "duration": 236}, {"note": 75, "velocity": 82, "duration": 236}, {"note": 73, "velocity": 73, "duration": 236}, {"note": 77, "velocity": 71, "duration": 236}, {"note": 75, "velocity": 79, "duration": 236}, {"note": 75, "velocity": 77, "duration": 236}, {"note": 72, "velocity": 80, "duration": 236}, {"note": 70, "velocity": 68, "duration": 116}, {"note": 68, "velocity": 79, "duration": 836}, {"note": 70, "velocity": 79, "duration": 116}, {"note": 72, "velocity": 84, "duration": 116}, {"note": 73, "velocity": 78, "duration": 236}, {"note": 73, "velocity": 82, "duration": 236}, {"note": 73, "velocity": 84, "duration": 236}, {"note": 73, "velocity": 69, "duration": 236}, {"note": 73, "velocity": 80, "duration": 236}, {"note": 72, "velocity": 77, "duration": 236}, {"note": 70, "velocity": 72, "duration": 236}, {"note": 73, "velocity": 79, "duration": 236}, {"note": 72, "velocity": 82, "duration": 476}, {"note": 72, "velocity": 79, "duration": 236}, {"note": 65, "velocity": 74, "duration": 236}, {"note": 68, "velocity": 77, "duration": 716}, {"note": 68, "velocity": 83, "duration": 236}, {"note": 70, "velocity": 82, "duration": 476}, {"note": 66, "velocity": 80, "duration": 236}, {"note": 65, "velocity": 80, "duration": 236}, {"note": 63, "velocity": 78, "duration": 716}, {"note": 70, "velocity": 61, "duration": 236}, {"note": 68, "velocity": 79, "duration": 476}, {"note": 72, "velocity": 90, "duration": 476}, {"note": 73, "velocity": 90, "duration": 596}, {"note": 70, "velocity": 82, "duration": 236}, {"note": 68, "velocity": 79, "duration": 116}, {"note": 70, "velocity": 79, "duration": 956}, {"note": 70, "velocity": 82, "duration": 236}, {"note": 72, "velocity": 84, "duration": 236}, {"note": 73, "velocity": 84, "duration": 236}, {"note": 70, "velocity": 83, "duration": 236}, {"note": 75, "velocity": 84, "duration": 1196}, {"note": 68, "velocity": 86, "duration": 236}, {"note": 68, "velocity": 83, "duration": 236}, {"note": 68, "velocity": 83, "duration": 236}, {"note": 77, "velocity": 80, "duration": 476}, {"note": 77, "velocity": 83, "duration": 716}, {"note": 77, "velocity": 84, "duration": 236}, {"note": 75, "velocity": 82, "duration": 236}, {"note": 73, "velocity": 91, "duration": 236}, {"note": 80, "velocity": 84, "duration": 476}, {"note": 75, "velocity": 86, "duration": 716}, {"note": 77, "velocity": 84, "duration": 236}, {"note": 75, "velocity": 84, "duration": 236}, {"note": 73, "velocity": 90, "duration": 236}, {"note": 73, "velocity": 46, "duration": 236}, {"note": 73, "velocity": 90, "duration": 236}, {"note": 73, "velocity": 93, "duration": 236}, {"note": 73, "velocity": 94, "duration": 236}, {"note": 85, "velocity": 86, "duration": 236}, {"note": 85, "velocity": 90, "duration": 236}, {"note": 84, "velocity": 86, "duration": 236}, {"note": 82, "velocity": 84, "duration": 236}, {"note": 80, "velocity": 50, "duration": 236}, {"note": 82, "velocity": 78, "duration": 236}, {"note": 80, "velocity": 81, "duration": 236}, {"note": 80, "velocity": 81, "duration": 716}, {"note": 73, "velocity": 98, "duration": 236}, {"note": 73, "velocity": 95, "duration": 236}, {"note": 73, "velocity": 86, "duration": 236}, {"note": 73, "velocity": 98, "duration": 476}, {"note": 82, "velocity": 94, "duration": 716}, {"note": 73, "velocity": 91, "duration": 236}, {"note": 73, "velocity": 91, "duration": 236}, {"note": 73, "velocity": 94, "duration": 236}, {"note": 73, "velocity": 98, "duration": 476}, {"note": 80, "velocity": 90, "duration": 716}, {"note": 73, "velocity": 98, "duration": 236}, {"note": 73, "velocity": 90, "duration": 236}, {"note": 73, "velocity": 83, "duration": 236}, {"note": 78, "velocity": 80, "duration": 236}, {"note": 78, "velocity": 90, "duration": 236}, {"note": 78, "velocity": 84, "duration": 236}, {"note": 80, "velocity": 78, "duration": 236}, {"note": 82, "velocity": 84, "duration": 356}, {"note": 85, "velocity": 83, "duration": 356}, {"note": 77, "velocity": 83, "duration": 236}, {"note": 75, "velocity": 83, "duration": 1196}, {"note": 68, "velocity": 82, "duration": 236}, {"note": 68, "velocity": 83, "duration": 236}, {"note": 68, "velocity": 83, "duration": 236}, {"note": 77, "velocity": 86, "duration": 476}, {"note": 77, "velocity": 91, "duration": 716}, {"note": 77, "velocity": 56, "duration": 236}, {"note": 75, "velocity": 86, "duration": 236}, {"note": 73, "velocity": 80, "duration": 236}, {"note": 80, "velocity": 86, "duration": 476}, {"note": 75, "velocity": 84, "duration": 716}, {"note": 77, "velocity": 90, "duration": 236}, {"note": 75, "velocity": 84, "duration": 236}, {"note": 73, "velocity": 84, "duration": 236}, {"note": 73, "velocity": 93, "duration": 236}, {"note": 73, "velocity": 90, "duration": 236}, {"note": 73, "velocity": 90, "duration": 236}, {"note": 85, "velocity": 90, "duration": 236}, {"note": 85, "velocity": 91, "duration": 236}, {"note": 84, "velocity": 79, "duration": 236}, {"note": 82, "velocity": 84, "duration": 236}, {"note": 80, "velocity": 84, "duration": 236}, {"note": 82, "velocity": 80, "duration": 236}, {"note": 80, "velocity": 84, "duration": 236}, {"note": 80, "velocity": 91, "duration": 716}, {"note": 72, "velocity": 98, "duration": 236}, {"note": 73, "velocity": 95, "duration": 236}, {"note": 72, "velocity": 90, "duration": 236}, {"note": 73, "velocity": 79, "duration": 476}, {"note": 82, "velocity": 79, "duration": 716}, {"note": 82, "velocity": 90, "duration": 236}, {"note": 84, "velocity": 90, "duration": 236}, {"note": 85, "velocity": 91, "duration": 236}, {"note": 85, "velocity": 98, "duration": 476}, {"note": 80, "velocity": 86, "duration": 716}, {"note": 73, "velocity": 94, "duration": 236}, {"note": 73, "velocity": 95, "duration": 236}, {"note": 73, "velocity": 91, "duration": 236}, {"note": 78, "velocity": 91, "duration": 236}, {"note": 78, "velocity": 91, "duration": 236}, {"note": 78, "velocity": 90, "duration": 236}, {"note": 80, "velocity": 82, "duration": 236}, {"note": 82, "velocity": 90, "duration": 356}, {"note": 85, "velocity": 93, "duration": 356}, {"note": 77, "velocity": 84, "duration": 236}, {"note": 75, "velocity": 98, "duration": 956}, {"note": 0, "velocity": 0, "duration": 244}, {"note": 68, "velocity": 86, "duration": 236}, {"note": 68, "velocity": 83, "duration": 236}, {"note": 68, "velocity": 83, "duration": 236}, {"note": 77, "velocity": 80, "duration": 476}, {"note": 77, "velocity": 83, "duration": 716}, {"note": 77, "velocity": 84, "duration": 236}, {"note": 75, "velocity": 82, "duration": 236}, {"note": 73, "velocity": 91, "duration": 236}, {"note": 80, "velocity": 84, "duration": 476}, {"note": 75, "velocity": 86, "duration": 716}, {"note": 77, "velocity": 84, "duration": 236}, {"note": 75, "velocity": 84, "duration": 236}, {"note": 73, "velocity": 90, "duration": 236}, {"note": 73, "velocity": 46, "duration": 236}, {"note": 73, "velocity": 90, "duration": 236}, {"note": 73, "velocity": 93, "duration": 236}, {"note": 73, "velocity": 94, "duration": 236}, {"note": 85, "velocity": 86, "duration": 236}, {"note": 85, "velocity": 90, "duration": 236}, {"note": 84, "velocity": 86, "duration": 236}, {"note": 82, "velocity": 84, "duration": 236}, {"note": 80, "velocity": 50, "duration": 236}, {"note": 82, "velocity": 78, "duration": 236}, {"note": 80, "velocity": 81, "duration": 236}, {"note": 80, "velocity": 81, "duration": 716}, {"note": 73, "velocity": 98, "duration": 236}, {"note": 73, "velocity": 95, "duration": 236}, {"note": 73, "velocity": 86, "duration": 236}, {"note": 73, "velocity": 98, "duration": 476}, {"note": 82, "velocity": 94, "duration": 716}, {"note": 73, "velocity": 91, "duration": 236}, {"note": 73, "velocity": 91, "duration": 236}, {"note": 73, "velocity": 94, "duration": 236}, {"note": 73, "velocity": 98, "duration": 476}, {"note": 80, "velocity": 90, "duration": 716}, {"note": 73, "velocity": 98, "duration": 236}, {"note": 73, "velocity": 90, "duration": 236}, {"note": 73, "velocity": 83, "duration": 236}, {"note": 78, "velocity": 80, "duration": 236}, {"note": 78, "velocity": 90, "duration": 236}, {"note": 78, "velocity": 84, "duration": 236}, {"note": 80, "velocity": 78, "duration": 236}, {"note": 82, "velocity": 84, "duration": 356}, {"note": 85, "velocity": 83, "duration": 356}, {"note": 77, "velocity": 83, "duration": 236}, {"note": 75, "velocity": 83, "duration": 1196}, {"note": 68, "velocity": 82, "duration": 236}, {"note": 68, "velocity": 83, "duration": 236}, {"note": 68, "velocity": 83, "duration": 236}, {"note": 77, "velocity": 86, "duration": 476}, {"note": 77, "velocity": 91, "duration": 716}, {"note": 77, "velocity": 56, "duration": 236}, {"note": 75, "velocity": 86, "duration": 236}, {"note": 73, "velocity": 80, "duration": 236}, {"note": 80, "velocity": 86, "duration": 476}, {"note": 75, "velocity": 84, "duration": 716}, {"note": 77, "velocity": 90, "duration": 236}, {"note": 75, "velocity": 84, "duration": 236}, {"note": 73, "velocity": 84, "duration": 236}, {"note": 73, "velocity": 93, "duration": 236}, {"note": 73, "velocity": 90, "duration": 236}, {"note": 73, "velocity": 90, "duration": 236}, {"note": 85, "velocity": 90, "duration": 236}, {"note": 85, "velocity": 91, "duration": 236}, {"note": 84, "velocity": 79, "duration": 236}, {"note": 82, "velocity": 84, "duration": 236}, {"note": 80, "velocity": 84, "duration": 236}, {"note": 82, "velocity": 80, "duration": 236}, {"note": 80, "velocity": 84, "duration": 236}, {"note": 80, "velocity": 91, "duration": 716}, {"note": 72, "velocity": 98, "duration": 236}, {"note": 73, "velocity": 95, "duration": 236}, {"note": 72, "velocity": 90, "duration": 236}, {"note": 73, "velocity": 79, "duration": 476}, {"note": 82, "velocity": 79, "duration": 716}, {"note": 82, "velocity": 90, "duration": 236}, {"note": 84, "velocity": 90, "duration": 236}, {"note": 85, "velocity": 91, "duration": 236}, {"note": 85, "velocity": 98, "duration": 476}, {"note": 80, "velocity": 86, "duration": 716}, {"note": 73, "velocity": 94, "duration": 236}, {"note": 73, "velocity": 95, "duration": 236}, {"note": 73, "velocity": 91, "duration": 236}, {"note": 78, "velocity": 91, "duration": 236}, {"note": 78, "velocity": 91, "duration": 236}, {"note": 78, "velocity": 90, "duration": 236}, {"note": 80, "velocity": 82, "duration": 236}, {"note": 82, "velocity": 90, "duration": 356}, {"note": 85, "velocity": 93, "duration": 356}, {"note": 77, "velocity": 84, "duration": 236}, {"note": 75, "velocity": 98, "duration": 956}, {"note": 78, "velocity": 91, "duration": 236}, {"note": 77, "velocity": 90, "duration": 476}, {"note": 75, "velocity": 90, "duration": 116}, {"note": 73, "velocity": 83, "duration": 116}, {"note": 73, "velocity": 91, "duration": 1916}, {"note": 0, "velocity": 0, "duration": 748}, {"note": 68, "velocity": 80, "duration": 277}, {"note": 78, "velocity": 82, "duration": 368}, {"note": 77, "velocity": 83, "duration": 331}, {"note": 75, "velocity": 79, "duration": 281}, {"note": 77, "velocity": 78, "duration": 1588}, {"note": 0, "velocity": 0, "duration": 2032}, {"note": 73, "velocity": 78, "duration": 116}, {"note": 75, "velocity": 82, "duration": 116}, {"note": 77, "velocity": 81, "duration": 236}, {"note": 77, "velocity": 83, "duration": 236}, {"note": 77, "velocity": 83, "duration": 236}, {"note": 77, "velocity": 77, "duration": 236}, {"note": 77, "velocity": 79, "duration": 236}, {"note": 75, "velocity": 82, "duration": 236}, {"note": 73, "velocity": 73, "duration": 236}, {"note": 77, "velocity": 71, "duration": 236}, {"note": 75, "velocity": 79, "duration": 236}, {"note": 75, "velocity": 77, "duration": 236}, {"note": 72, "velocity": 80, "duration": 236}, {"note": 70, "velocity": 68, "duration": 116}, {"note": 68, "velocity": 79, "duration": 836}, {"note": 70, "velocity": 79, "duration": 116}, {"note": 72, "velocity": 84, "duration": 116}, {"note": 73, "velocity": 78, "duration": 236}, {"note": 73, "velocity": 82, "duration": 236}, {"note": 73, "velocity": 84, "duration": 236}, {"note": 73, "velocity": 69, "duration": 236}, {"note": 73, "velocity": 80, "duration": 236}, {"note": 72, "velocity": 77, "duration": 236}, {"note": 70, "velocity": 72, "duration": 236}, {"note": 73, "velocity": 79, "duration": 236}, {"note": 72, "velocity": 82, "duration": 476}, {"note": 72, "velocity": 79, "duration": 236}, {"note": 65, "velocity": 74, "duration": 236}, {"note": 68, "velocity": 77, "duration": 716}, {"note": 68, "velocity": 83, "duration": 236}, {"note": 70, "velocity": 82, "duration": 476}, {"note": 66, "velocity": 80, "duration": 236}, {"note": 65, "velocity": 80, "duration": 236}, {"note": 63, "velocity": 78, "duration": 716}, {"note": 70, "velocity": 61, "duration": 236}, {"note": 68, "velocity": 79, "duration": 476}, {"note": 65, "velocity": 78, "duration": 236}, {"note": 63, "velocity": 82, "duration": 236}, {"note": 61, "velocity": 84, "duration": 716}, {"note": 63, "velocity": 84, "duration": 116}, {"note": 65, "velocity": 79, "duration": 116}, {"note": 66, "velocity": 80, "duration": 236}, {"note": 66, "velocity": 83, "duration": 236}, {"note": 73, "velocity": 98, "duration": 160}, {"note": 0, "velocity": 0, "duration": 1040}, {"note": 63, "velocity": 79, "duration": 251}, {"note": 65, "velocity": 73, "duration": 171}, {"note": 66, "velocity": 79, "duration": 212}, {"note": 0, "velocity": 0, "duration": 268}, {"note": 75, "velocity": 86, "duration": 693}, {"note": 70, "velocity": 86, "duration": 693}, {"note": 72, "velocity": 86, "duration": 693}, {"note": 73, "velocity": 86, "duration": 693}]]