[[{"note": 65, "velocity": 86, "duration": 478}, {"note": 69, "velocity": 86, "duration": 478}, {"note": 72, "velocity": 74, "duration": 237}, {"note": 72, "velocity": 66, "duration": 237}, {"note": 72, "velocity": 66, "duration": 478}, {"note": 74, "velocity": 84, "duration": 238}, {"note": 72, "velocity": 71, "duration": 283}, {"note": 74, "velocity": 65, "duration": 238}, {"note": 77, "velocity": 64, "duration": 237}, {"note": 77, "velocity": 50, "duration": 263}, {"note": 72, "velocity": 62, "duration": 717}, {"note": 72, "velocity": 95, "duration": 477}, {"note": 72, "velocity": 94, "duration": 477}, {"note": 72, "velocity": 92, "duration": 238}, {"note": 69, "velocity": 83, "duration": 238}, {"note": 72, "velocity": 87, "duration": 478}, {"note": 70, "velocity": 80, "duration": 240}, {"note": 69, "velocity": 64, "duration": 238}, {"note": 67, "velocity": 63, "duration": 264}, {"note": 70, "velocity": 64, "duration": 281}, {"note": 67, "velocity": 72, "duration": 953}, {"note": 72, "velocity": 77, "duration": 478}, {"note": 72, "velocity": 90, "duration": 478}, {"note": 69, "velocity": 71, "duration": 238}, {"note": 72, "velocity": 66, "duration": 237}, {"note": 72, "velocity": 77, "duration": 478}, {"note": 74, "velocity": 87, "duration": 478}, {"note": 77, "velocity": 85, "duration": 478}, {"note": 79, "velocity": 90, "duration": 958}, {"note": 81, "velocity": 97, "duration": 238}, {"note": 72, "velocity": 85, "duration": 718}, {"note": 77, "velocity": 93, "duration": 241}, {"note": 74, "velocity": 71, "duration": 118}, {"note": 72, "velocity": 84, "duration": 597}, {"note": 72, "velocity": 90, "duration": 237}, {"note": 72, "velocity": 76, "duration": 238}, {"note": 81, "velocity": 91, "duration": 238}, {"note": 72, "velocity": 90, "duration": 1197}, {"note": 72, "velocity": 99, "duration": 477}, {"note": 72, "velocity": 97, "duration": 478}, {"note": 69, "velocity": 84, "duration": 238}, {"note": 70, "velocity": 86, "duration": 238}, {"note": 72, "velocity": 90, "duration": 478}, {"note": 74, "velocity": 95, "duration": 238}, {"note": 72, "velocity": 81, "duration": 238}, {"note": 74, "velocity": 77, "duration": 247}, {"note": 77, "velocity": 69, "duration": 233}, {"note": 77, "velocity": 85, "duration": 242}, {"note": 72, "velocity": 84, "duration": 688}, {"note": 72, "velocity": 80, "duration": 477}, {"note": 72, "velocity": 84, "duration": 478}, {"note": 69, "velocity": 81, "duration": 237}, {"note": 70, "velocity": 84, "duration": 229}, {"note": 72, "velocity": 79, "duration": 478}, {"note": 70, "velocity": 80, "duration": 238}, {"note": 69, "velocity": 77, "duration": 238}, {"note": 67, "velocity": 62, "duration": 268}, {"note": 70, "velocity": 64, "duration": 238}, {"note": 67, "velocity": 62, "duration": 958}, {"note": 72, "velocity": 79, "duration": 237}, {"note": 72, "velocity": 82, "duration": 237}, {"note": 72, "velocity": 82, "duration": 478}, {"note": 69, "velocity": 79, "duration": 238}, {"note": 70, "velocity": 76, "duration": 238}, {"note": 72, "velocity": 81, "duration": 478}, {"note": 74, "velocity": 82, "duration": 478}, {"note": 77, "velocity": 93, "duration": 478}, {"note": 79, "velocity": 97, "duration": 958}, {"note": 81, "velocity": 93, "duration": 237}, {"note": 81, "velocity": 95, "duration": 718}, {"note": 84, "velocity": 98, "duration": 237}, {"note": 84, "velocity": 98, "duration": 718}, {"note": 74, "velocity": 93, "duration": 238}, {"note": 77, "velocity": 86, "duration": 215}, {"note": 77, "velocity": 87, "duration": 233}, {"note": 77, "velocity": 89, "duration": 231}, {"note": 79, "velocity": 108, "duration": 958}, {"note": 81, "velocity": 105, "duration": 477}, {"note": 81, "velocity": 97, "duration": 478}, {"note": 77, "velocity": 96, "duration": 477}, {"note": 77, "velocity": 97, "duration": 478}, {"note": 72, "velocity": 98, "duration": 237}, {"note": 72, "velocity": 94, "duration": 477}, {"note": 72, "velocity": 96, "duration": 237}, {"note": 72, "velocity": 98, "duration": 958}, {"note": 81, "velocity": 98, "duration": 477}, {"note": 81, "velocity": 97, "duration": 478}, {"note": 79, "velocity": 90, "duration": 241}, {"note": 77, "velocity": 66, "duration": 237}, {"note": 77, "velocity": 66, "duration": 238}, {"note": 81, "velocity": 94, "duration": 1580}, {"note": 81, "velocity": 99, "duration": 24}, {"note": 81, "velocity": 95, "duration": 478}, {"note": 79, "velocity": 87, "duration": 238}, {"note": 77, "velocity": 64, "duration": 237}, {"note": 77, "velocity": 77, "duration": 478}, {"note": 72, "velocity": 95, "duration": 237}, {"note": 72, "velocity": 91, "duration": 477}, {"note": 72, "velocity": 94, "duration": 237}, {"note": 72, "velocity": 98, "duration": 958}, {"note": 79, "velocity": 94, "duration": 237}, {"note": 79, "velocity": 90, "duration": 237}, {"note": 79, "velocity": 84, "duration": 245}, {"note": 77, "velocity": 85, "duration": 210}, {"note": 74, "velocity": 77, "duration": 478}, {"note": 81, "velocity": 97, "duration": 478}, {"note": 79, "velocity": 99, "duration": 1918}, {"note": 81, "velocity": 100, "duration": 477}, {"note": 81, "velocity": 96, "duration": 478}, {"note": 79, "velocity": 87, "duration": 244}, {"note": 77, "velocity": 87, "duration": 232}, {"note": 77, "velocity": 90, "duration": 478}, {"note": 72, "velocity": 85, "duration": 237}, {"note": 72, "velocity": 77, "duration": 478}, {"note": 69, "velocity": 93, "duration": 238}, {"note": 72, "velocity": 93, "duration": 958}, {"note": 81, "velocity": 97, "duration": 477}, {"note": 81, "velocity": 97, "duration": 478}, {"note": 79, "velocity": 93, "duration": 242}, {"note": 77, "velocity": 69, "duration": 237}, {"note": 77, "velocity": 87, "duration": 238}, {"note": 81, "velocity": 98, "duration": 2157}, {"note": 81, "velocity": 101, "duration": 477}, {"note": 81, "velocity": 94, "duration": 478}, {"note": 79, "velocity": 87, "duration": 280}, {"note": 77, "velocity": 67, "duration": 237}, {"note": 77, "velocity": 79, "duration": 478}, {"note": 72, "velocity": 83, "duration": 237}, {"note": 72, "velocity": 81, "duration": 477}, {"note": 72, "velocity": 91, "duration": 237}, {"note": 72, "velocity": 86, "duration": 949}, {"note": 77, "velocity": 90, "duration": 233}, {"note": 79, "velocity": 87, "duration": 228}, {"note": 79, "velocity": 84, "duration": 242}, {"note": 77, "velocity": 64, "duration": 226}, {"note": 74, "velocity": 77, "duration": 478}, {"note": 76, "velocity": 91, "duration": 478}, {"note": 77, "velocity": 97, "duration": 1397}, {"note": 0, "velocity": 0, "duration": 15883}, {"note": 72, "velocity": 86, "duration": 459}, {"note": 72, "velocity": 86, "duration": 478}, {"note": 69, "velocity": 74, "duration": 237}, {"note": 70, "velocity": 66, "duration": 237}, {"note": 72, "velocity": 66, "duration": 478}, {"note": 74, "velocity": 84, "duration": 238}, {"note": 72, "velocity": 71, "duration": 284}, {"note": 74, "velocity": 65, "duration": 238}, {"note": 77, "velocity": 64, "duration": 237}, {"note": 77, "velocity": 50, "duration": 264}, {"note": 72, "velocity": 62, "duration": 717}, {"note": 72, "velocity": 95, "duration": 477}, {"note": 72, "velocity": 94, "duration": 477}, {"note": 72, "velocity": 92, "duration": 238}, {"note": 69, "velocity": 83, "duration": 238}, {"note": 72, "velocity": 87, "duration": 478}, {"note": 70, "velocity": 80, "duration": 240}, {"note": 69, "velocity": 64, "duration": 238}, {"note": 67, "velocity": 63, "duration": 264}, {"note": 70, "velocity": 64, "duration": 281}, {"note": 67, "velocity": 72, "duration": 953}, {"note": 72, "velocity": 77, "duration": 478}, {"note": 72, "velocity": 90, "duration": 478}, {"note": 69, "velocity": 71, "duration": 238}, {"note": 70, "velocity": 66, "duration": 237}, {"note": 72, "velocity": 77, "duration": 478}, {"note": 74, "velocity": 87, "duration": 478}, {"note": 77, "velocity": 85, "duration": 478}, {"note": 79, "velocity": 90, "duration": 958}, {"note": 81, "velocity": 97, "duration": 238}, {"note": 72, "velocity": 85, "duration": 718}, {"note": 77, "velocity": 93, "duration": 237}, {"note": 74, "velocity": 71, "duration": 216}, {"note": 72, "velocity": 84, "duration": 597}, {"note": 72, "velocity": 90, "duration": 237}, {"note": 72, "velocity": 76, "duration": 238}, {"note": 81, "velocity": 91, "duration": 238}, {"note": 72, "velocity": 90, "duration": 1197}, {"note": 72, "velocity": 99, "duration": 477}, {"note": 72, "velocity": 97, "duration": 478}, {"note": 69, "velocity": 84, "duration": 238}, {"note": 70, "velocity": 86, "duration": 238}, {"note": 72, "velocity": 90, "duration": 478}, {"note": 74, "velocity": 95, "duration": 238}, {"note": 72, "velocity": 81, "duration": 238}, {"note": 74, "velocity": 77, "duration": 248}, {"note": 77, "velocity": 69, "duration": 233}, {"note": 77, "velocity": 85, "duration": 242}, {"note": 72, "velocity": 84, "duration": 688}, {"note": 72, "velocity": 80, "duration": 477}, {"note": 72, "velocity": 84, "duration": 478}, {"note": 69, "velocity": 81, "duration": 238}, {"note": 70, "velocity": 84, "duration": 229}, {"note": 72, "velocity": 79, "duration": 478}, {"note": 70, "velocity": 80, "duration": 238}, {"note": 69, "velocity": 77, "duration": 238}, {"note": 67, "velocity": 62, "duration": 269}, {"note": 70, "velocity": 64, "duration": 238}, {"note": 67, "velocity": 62, "duration": 958}, {"note": 72, "velocity": 79, "duration": 237}, {"note": 72, "velocity": 82, "duration": 237}, {"note": 72, "velocity": 82, "duration": 478}, {"note": 69, "velocity": 79, "duration": 238}, {"note": 70, "velocity": 76, "duration": 238}, {"note": 72, "velocity": 81, "duration": 478}, {"note": 74, "velocity": 82, "duration": 478}, {"note": 77, "velocity": 93, "duration": 478}, {"note": 79, "velocity": 97, "duration": 958}, {"note": 81, "velocity": 93, "duration": 237}, {"note": 81, "velocity": 95, "duration": 718}, {"note": 84, "velocity": 98, "duration": 237}, {"note": 84, "velocity": 98, "duration": 718}, {"note": 74, "velocity": 93, "duration": 238}, {"note": 77, "velocity": 86, "duration": 215}, {"note": 77, "velocity": 87, "duration": 234}, {"note": 77, "velocity": 89, "duration": 232}, {"note": 79, "velocity": 108, "duration": 944}, {"note": 81, "velocity": 105, "duration": 477}, {"note": 81, "velocity": 97, "duration": 478}, {"note": 77, "velocity": 96, "duration": 477}, {"note": 77, "velocity": 97, "duration": 478}, {"note": 72, "velocity": 98, "duration": 237}, {"note": 72, "velocity": 94, "duration": 477}, {"note": 72, "velocity": 96, "duration": 237}, {"note": 72, "velocity": 98, "duration": 958}, {"note": 81, "velocity": 98, "duration": 477}, {"note": 81, "velocity": 97, "duration": 478}, {"note": 79, "velocity": 90, "duration": 241}, {"note": 77, "velocity": 66, "duration": 237}, {"note": 77, "velocity": 66, "duration": 238}, {"note": 81, "velocity": 94, "duration": 1584}, {"note": 81, "velocity": 99, "duration": 28}, {"note": 81, "velocity": 95, "duration": 478}, {"note": 79, "velocity": 87, "duration": 239}, {"note": 77, "velocity": 64, "duration": 237}, {"note": 77, "velocity": 77, "duration": 478}, {"note": 72, "velocity": 95, "duration": 237}, {"note": 72, "velocity": 91, "duration": 477}, {"note": 72, "velocity": 94, "duration": 237}, {"note": 72, "velocity": 98, "duration": 958}, {"note": 79, "velocity": 94, "duration": 237}, {"note": 79, "velocity": 90, "duration": 237}, {"note": 79, "velocity": 84, "duration": 245}, {"note": 77, "velocity": 85, "duration": 210}, {"note": 74, "velocity": 77, "duration": 478}, {"note": 81, "velocity": 97, "duration": 478}, {"note": 79, "velocity": 99, "duration": 1918}, {"note": 81, "velocity": 100, "duration": 477}, {"note": 81, "velocity": 96, "duration": 478}, {"note": 79, "velocity": 87, "duration": 244}, {"note": 77, "velocity": 87, "duration": 232}, {"note": 77, "velocity": 90, "duration": 478}, {"note": 72, "velocity": 85, "duration": 237}, {"note": 72, "velocity": 77, "duration": 478}, {"note": 69, "velocity": 93, "duration": 238}, {"note": 72, "velocity": 93, "duration": 958}, {"note": 81, "velocity": 97, "duration": 477}, {"note": 81, "velocity": 97, "duration": 478}, {"note": 79, "velocity": 93, "duration": 242}, {"note": 77, "velocity": 69, "duration": 237}, {"note": 77, "velocity": 87, "duration": 238}, {"note": 81, "velocity": 98, "duration": 2157}, {"note": 81, "velocity": 101, "duration": 477}, {"note": 81, "velocity": 94, "duration": 478}, {"note": 79, "velocity": 87, "duration": 280}, {"note": 77, "velocity": 67, "duration": 237}, {"note": 77, "velocity": 79, "duration": 478}, {"note": 72, "velocity": 83, "duration": 237}, {"note": 72, "velocity": 81, "duration": 477}, {"note": 72, "velocity": 91, "duration": 237}, {"note": 72, "velocity": 86, "duration": 950}, {"note": 77, "velocity": 90, "duration": 234}, {"note": 79, "velocity": 87, "duration": 228}, {"note": 79, "velocity": 84, "duration": 243}, {"note": 77, "velocity": 64, "duration": 226}, {"note": 74, "velocity": 77, "duration": 478}, {"note": 76, "velocity": 91, "duration": 478}, {"note": 77, "velocity": 97, "duration": 1397}, {"note": 0, "velocity": 0, "duration": 523}, {"note": 81, "velocity": 105, "duration": 477}, {"note": 81, "velocity": 97, "duration": 478}, {"note": 77, "velocity": 96, "duration": 477}, {"note": 77, "velocity": 97, "duration": 478}, {"note": 72, "velocity": 98, "duration": 237}, {"note": 72, "velocity": 94, "duration": 477}, {"note": 72, "velocity": 96, "duration": 237}, {"note": 72, "velocity": 98, "duration": 958}, {"note": 81, "velocity": 98, "duration": 477}, {"note": 81, "velocity": 97, "duration": 478}, {"note": 79, "velocity": 90, "duration": 241}, {"note": 77, "velocity": 66, "duration": 237}, {"note": 77, "velocity": 66, "duration": 238}, {"note": 81, "velocity": 94, "duration": 1620}, {"note": 81, "velocity": 99, "duration": 64}, {"note": 81, "velocity": 95, "duration": 478}, {"note": 79, "velocity": 87, "duration": 238}, {"note": 77, "velocity": 64, "duration": 237}, {"note": 77, "velocity": 77, "duration": 478}, {"note": 72, "velocity": 95, "duration": 237}, {"note": 72, "velocity": 91, "duration": 477}, {"note": 72, "velocity": 94, "duration": 237}, {"note": 72, "velocity": 98, "duration": 958}, {"note": 79, "velocity": 94, "duration": 237}, {"note": 79, "velocity": 90, "duration": 237}, {"note": 79, "velocity": 84, "duration": 245}, {"note": 77, "velocity": 85, "duration": 210}, {"note": 74, "velocity": 77, "duration": 478}, {"note": 76, "velocity": 97, "duration": 478}, {"note": 77, "velocity": 99, "duration": 1918}]]