[[{"note": 72, "velocity": 76, "duration": 477}, {"note": 72, "velocity": 72, "duration": 358}, {"note": 70, "velocity": 62, "duration": 143}, {"note": 72, "velocity": 76, "duration": 237}, {"note": 72, "velocity": 73, "duration": 478}, {"note": 70, "velocity": 63, "duration": 238}, {"note": 67, "velocity": 66, "duration": 477}, {"note": 67, "velocity": 57, "duration": 260}, {"note": 75, "velocity": 63, "duration": 238}, {"note": 72, "velocity": 56, "duration": 958}, {"note": 75, "velocity": 93, "duration": 478}, {"note": 72, "velocity": 90, "duration": 358}, {"note": 75, "velocity": 66, "duration": 169}, {"note": 72, "velocity": 79, "duration": 238}, {"note": 70, "velocity": 66, "duration": 718}, {"note": 72, "velocity": 85, "duration": 243}, {"note": 70, "velocity": 66, "duration": 478}, {"note": 65, "velocity": 56, "duration": 280}, {"note": 67, "velocity": 79, "duration": 958}, {"note": 65, "velocity": 92, "duration": 237}, {"note": 65, "velocity": 83, "duration": 478}, {"note": 67, "velocity": 87, "duration": 238}, {"note": 65, "velocity": 76, "duration": 478}, {"note": 63, "velocity": 75, "duration": 238}, {"note": 60, "velocity": 75, "duration": 238}, {"note": 72, "velocity": 77, "duration": 266}, {"note": 70, "velocity": 87, "duration": 358}, {"note": 67, "velocity": 68, "duration": 238}, {"note": 70, "velocity": 90, "duration": 958}, {"note": 75, "velocity": 97, "duration": 238}, {"note": 72, "velocity": 83, "duration": 255}, {"note": 75, "velocity": 93, "duration": 237}, {"note": 75, "velocity": 92, "duration": 238}, {"note": 72, "velocity": 71, "duration": 238}, {"note": 77, "velocity": 85, "duration": 478}, {"note": 70, "velocity": 90, "duration": 237}, {"note": 70, "velocity": 87, "duration": 238}, {"note": 67, "velocity": 74, "duration": 238}, {"note": 70, "velocity": 72, "duration": 267}, {"note": 72, "velocity": 76, "duration": 237}, {"note": 72, "velocity": 90, "duration": 2877}, {"note": 72, "velocity": 92, "duration": 477}, {"note": 72, "velocity": 89, "duration": 358}, {"note": 70, "velocity": 71, "duration": 156}, {"note": 72, "velocity": 86, "duration": 237}, {"note": 72, "velocity": 90, "duration": 478}, {"note": 70, "velocity": 85, "duration": 238}, {"note": 67, "velocity": 69, "duration": 477}, {"note": 67, "velocity": 65, "duration": 238}, {"note": 75, "velocity": 66, "duration": 250}, {"note": 72, "velocity": 84, "duration": 958}, {"note": 75, "velocity": 99, "duration": 237}, {"note": 75, "velocity": 84, "duration": 238}, {"note": 72, "velocity": 87, "duration": 238}, {"note": 75, "velocity": 92, "duration": 238}, {"note": 72, "velocity": 84, "duration": 238}, {"note": 75, "velocity": 93, "duration": 718}, {"note": 72, "velocity": 91, "duration": 238}, {"note": 70, "velocity": 87, "duration": 478}, {"note": 65, "velocity": 63, "duration": 238}, {"note": 70, "velocity": 65, "duration": 238}, {"note": 67, "velocity": 65, "duration": 718}, {"note": 65, "velocity": 85, "duration": 358}, {"note": 63, "velocity": 53, "duration": 118}, {"note": 65, "velocity": 66, "duration": 238}, {"note": 63, "velocity": 55, "duration": 268}, {"note": 65, "velocity": 63, "duration": 237}, {"note": 65, "velocity": 64, "duration": 478}, {"note": 67, "velocity": 79, "duration": 238}, {"note": 72, "velocity": 68, "duration": 238}, {"note": 70, "velocity": 65, "duration": 478}, {"note": 67, "velocity": 63, "duration": 238}, {"note": 72, "velocity": 65, "duration": 238}, {"note": 70, "velocity": 77, "duration": 718}, {"note": 75, "velocity": 87, "duration": 237}, {"note": 75, "velocity": 77, "duration": 237}, {"note": 75, "velocity": 79, "duration": 238}, {"note": 72, "velocity": 64, "duration": 242}, {"note": 77, "velocity": 91, "duration": 237}, {"note": 77, "velocity": 93, "duration": 718}, {"note": 70, "velocity": 90, "duration": 358}, {"note": 67, "velocity": 84, "duration": 358}, {"note": 75, "velocity": 90, "duration": 238}, {"note": 72, "velocity": 98, "duration": 2878}, {"note": 75, "velocity": 85, "duration": 478}, {"note": 72, "velocity": 64, "duration": 238}, {"note": 75, "velocity": 57, "duration": 238}, {"note": 72, "velocity": 62, "duration": 478}, {"note": 75, "velocity": 87, "duration": 477}, {"note": 75, "velocity": 79, "duration": 238}, {"note": 67, "velocity": 71, "duration": 480}, {"note": 75, "velocity": 90, "duration": 238}, {"note": 72, "velocity": 93, "duration": 958}, {"note": 75, "velocity": 90, "duration": 477}, {"note": 75, "velocity": 79, "duration": 477}, {"note": 75, "velocity": 71, "duration": 478}, {"note": 72, "velocity": 65, "duration": 238}, {"note": 70, "velocity": 66, "duration": 238}, {"note": 72, "velocity": 61, "duration": 238}, {"note": 70, "velocity": 64, "duration": 478}, {"note": 65, "velocity": 66, "duration": 238}, {"note": 67, "velocity": 66, "duration": 958}, {"note": 77, "velocity": 87, "duration": 477}, {"note": 77, "velocity": 86, "duration": 478}, {"note": 72, "velocity": 87, "duration": 478}, {"note": 77, "velocity": 84, "duration": 477}, {"note": 77, "velocity": 90, "duration": 237}, {"note": 77, "velocity": 87, "duration": 238}, {"note": 72, "velocity": 66, "duration": 238}, {"note": 79, "velocity": 77, "duration": 242}, {"note": 77, "velocity": 90, "duration": 958}, {"note": 70, "velocity": 87, "duration": 237}, {"note": 70, "velocity": 81, "duration": 237}, {"note": 70, "velocity": 87, "duration": 238}, {"note": 72, "velocity": 90, "duration": 238}, {"note": 74, "velocity": 90, "duration": 958}, {"note": 70, "velocity": 103, "duration": 238}, {"note": 67, "velocity": 84, "duration": 238}, {"note": 70, "velocity": 91, "duration": 242}, {"note": 72, "velocity": 90, "duration": 237}, {"note": 72, "velocity": 97, "duration": 958}, {"note": 75, "velocity": 93, "duration": 478}, {"note": 72, "velocity": 87, "duration": 238}, {"note": 75, "velocity": 90, "duration": 243}, {"note": 72, "velocity": 63, "duration": 478}, {"note": 75, "velocity": 95, "duration": 477}, {"note": 75, "velocity": 90, "duration": 238}, {"note": 67, "velocity": 69, "duration": 237}, {"note": 67, "velocity": 79, "duration": 238}, {"note": 75, "velocity": 91, "duration": 78}, {"note": 72, "velocity": 93, "duration": 891}, {"note": 75, "velocity": 84, "duration": 237}, {"note": 75, "velocity": 77, "duration": 238}, {"note": 75, "velocity": 87, "duration": 358}, {"note": 72, "velocity": 60, "duration": 238}, {"note": 75, "velocity": 66, "duration": 237}, {"note": 75, "velocity": 66, "duration": 718}, {"note": 72, "velocity": 91, "duration": 238}, {"note": 70, "velocity": 54, "duration": 238}, {"note": 65, "velocity": 63, "duration": 238}, {"note": 70, "velocity": 64, "duration": 238}, {"note": 67, "velocity": 66, "duration": 958}, {"note": 77, "velocity": 97, "duration": 477}, {"note": 77, "velocity": 93, "duration": 478}, {"note": 72, "velocity": 91, "duration": 478}, {"note": 77, "velocity": 98, "duration": 477}, {"note": 77, "velocity": 96, "duration": 237}, {"note": 77, "velocity": 95, "duration": 238}, {"note": 72, "velocity": 76, "duration": 238}, {"note": 79, "velocity": 98, "duration": 238}, {"note": 77, "velocity": 105, "duration": 958}, {"note": 70, "velocity": 103, "duration": 237}, {"note": 70, "velocity": 90, "duration": 478}, {"note": 72, "velocity": 98, "duration": 238}, {"note": 74, "velocity": 96, "duration": 477}, {"note": 74, "velocity": 100, "duration": 478}, {"note": 70, "velocity": 86, "duration": 478}, {"note": 67, "velocity": 86, "duration": 478}, {"note": 72, "velocity": 103, "duration": 1853}, {"note": 0, "velocity": 0, "duration": 29827}, {"note": 72, "velocity": 76, "duration": 477}, {"note": 72, "velocity": 72, "duration": 358}, {"note": 70, "velocity": 62, "duration": 143}, {"note": 72, "velocity": 76, "duration": 237}, {"note": 72, "velocity": 73, "duration": 478}, {"note": 70, "velocity": 63, "duration": 238}, {"note": 67, "velocity": 66, "duration": 477}, {"note": 67, "velocity": 57, "duration": 260}, {"note": 75, "velocity": 63, "duration": 238}, {"note": 72, "velocity": 56, "duration": 958}, {"note": 75, "velocity": 93, "duration": 238}, {"note": 75, "velocity": 93, "duration": 238}, {"note": 72, "velocity": 90, "duration": 238}, {"note": 75, "velocity": 66, "duration": 289}, {"note": 72, "velocity": 79, "duration": 238}, {"note": 75, "velocity": 66, "duration": 718}, {"note": 72, "velocity": 85, "duration": 243}, {"note": 70, "velocity": 66, "duration": 478}, {"note": 65, "velocity": 56, "duration": 280}, {"note": 70, "velocity": 79, "duration": 238}, {"note": 67, "velocity": 79, "duration": 718}, {"note": 65, "velocity": 85, "duration": 358}, {"note": 63, "velocity": 53, "duration": 118}, {"note": 65, "velocity": 66, "duration": 238}, {"note": 63, "velocity": 55, "duration": 268}, {"note": 65, "velocity": 63, "duration": 237}, {"note": 65, "velocity": 64, "duration": 478}, {"note": 67, "velocity": 79, "duration": 238}, {"note": 72, "velocity": 68, "duration": 238}, {"note": 70, "velocity": 65, "duration": 478}, {"note": 67, "velocity": 63, "duration": 238}, {"note": 72, "velocity": 65, "duration": 238}, {"note": 70, "velocity": 77, "duration": 718}, {"note": 75, "velocity": 87, "duration": 237}, {"note": 75, "velocity": 77, "duration": 237}, {"note": 75, "velocity": 79, "duration": 238}, {"note": 72, "velocity": 64, "duration": 242}, {"note": 77, "velocity": 91, "duration": 237}, {"note": 77, "velocity": 93, "duration": 718}, {"note": 70, "velocity": 90, "duration": 358}, {"note": 67, "velocity": 84, "duration": 358}, {"note": 75, "velocity": 90, "duration": 238}, {"note": 72, "velocity": 98, "duration": 2878}, {"note": 75, "velocity": 85, "duration": 478}, {"note": 72, "velocity": 64, "duration": 238}, {"note": 75, "velocity": 57, "duration": 238}, {"note": 72, "velocity": 62, "duration": 478}, {"note": 75, "velocity": 87, "duration": 477}, {"note": 75, "velocity": 79, "duration": 238}, {"note": 67, "velocity": 71, "duration": 480}, {"note": 75, "velocity": 90, "duration": 238}, {"note": 72, "velocity": 93, "duration": 958}, {"note": 75, "velocity": 90, "duration": 477}, {"note": 75, "velocity": 79, "duration": 477}, {"note": 75, "velocity": 71, "duration": 478}, {"note": 72, "velocity": 65, "duration": 238}, {"note": 70, "velocity": 66, "duration": 238}, {"note": 72, "velocity": 61, "duration": 238}, {"note": 70, "velocity": 64, "duration": 478}, {"note": 65, "velocity": 66, "duration": 238}, {"note": 67, "velocity": 66, "duration": 958}, {"note": 77, "velocity": 87, "duration": 477}, {"note": 77, "velocity": 86, "duration": 478}, {"note": 72, "velocity": 87, "duration": 478}, {"note": 77, "velocity": 84, "duration": 477}, {"note": 77, "velocity": 90, "duration": 237}, {"note": 77, "velocity": 87, "duration": 238}, {"note": 72, "velocity": 66, "duration": 238}, {"note": 79, "velocity": 77, "duration": 242}, {"note": 77, "velocity": 90, "duration": 958}, {"note": 70, "velocity": 87, "duration": 237}, {"note": 70, "velocity": 81, "duration": 237}, {"note": 70, "velocity": 87, "duration": 238}, {"note": 72, "velocity": 90, "duration": 238}, {"note": 74, "velocity": 90, "duration": 958}, {"note": 70, "velocity": 103, "duration": 238}, {"note": 67, "velocity": 84, "duration": 238}, {"note": 70, "velocity": 91, "duration": 242}, {"note": 72, "velocity": 90, "duration": 237}, {"note": 72, "velocity": 97, "duration": 958}, {"note": 75, "velocity": 93, "duration": 478}, {"note": 72, "velocity": 87, "duration": 238}, {"note": 75, "velocity": 90, "duration": 243}, {"note": 72, "velocity": 63, "duration": 478}, {"note": 75, "velocity": 95, "duration": 477}, {"note": 75, "velocity": 90, "duration": 238}, {"note": 67, "velocity": 69, "duration": 237}, {"note": 67, "velocity": 79, "duration": 238}, {"note": 75, "velocity": 91, "duration": 60}, {"note": 72, "velocity": 93, "duration": 874}, {"note": 75, "velocity": 84, "duration": 237}, {"note": 75, "velocity": 77, "duration": 238}, {"note": 75, "velocity": 87, "duration": 358}, {"note": 72, "velocity": 60, "duration": 238}, {"note": 75, "velocity": 66, "duration": 237}, {"note": 75, "velocity": 66, "duration": 718}, {"note": 72, "velocity": 91, "duration": 238}, {"note": 70, "velocity": 54, "duration": 238}, {"note": 65, "velocity": 63, "duration": 238}, {"note": 70, "velocity": 64, "duration": 238}, {"note": 67, "velocity": 66, "duration": 958}, {"note": 77, "velocity": 97, "duration": 477}, {"note": 77, "velocity": 93, "duration": 478}, {"note": 72, "velocity": 91, "duration": 478}, {"note": 77, "velocity": 98, "duration": 477}, {"note": 77, "velocity": 96, "duration": 237}, {"note": 77, "velocity": 95, "duration": 238}, {"note": 72, "velocity": 76, "duration": 238}, {"note": 79, "velocity": 98, "duration": 238}, {"note": 77, "velocity": 105, "duration": 958}, {"note": 70, "velocity": 103, "duration": 237}, {"note": 70, "velocity": 90, "duration": 478}, {"note": 72, "velocity": 98, "duration": 238}, {"note": 74, "velocity": 96, "duration": 477}, {"note": 74, "velocity": 100, "duration": 478}, {"note": 70, "velocity": 86, "duration": 478}, {"note": 67, "velocity": 86, "duration": 478}, {"note": 72, "velocity": 103, "duration": 1678}, {"note": 75, "velocity": 93, "duration": 478}, {"note": 72, "velocity": 87, "duration": 238}, {"note": 75, "velocity": 90, "duration": 243}, {"note": 72, "velocity": 63, "duration": 478}, {"note": 75, "velocity": 95, "duration": 477}, {"note": 75, "velocity": 90, "duration": 238}, {"note": 67, "velocity": 69, "duration": 237}, {"note": 67, "velocity": 79, "duration": 238}, {"note": 75, "velocity": 91, "duration": 59}, {"note": 72, "velocity": 93, "duration": 873}, {"note": 75, "velocity": 84, "duration": 478}, {"note": 75, "velocity": 87, "duration": 358}, {"note": 0, "velocity": 0, "duration": 122}, {"note": 75, "velocity": 66, "duration": 237}, {"note": 75, "velocity": 66, "duration": 238}, {"note": 72, "velocity": 66, "duration": 238}, {"note": 70, "velocity": 66, "duration": 238}, {"note": 72, "velocity": 91, "duration": 238}, {"note": 70, "velocity": 54, "duration": 358}, {"note": 0, "velocity": 0, "duration": 122}, {"note": 65, "velocity": 63, "duration": 238}, {"note": 67, "velocity": 66, "duration": 958}, {"note": 77, "velocity": 97, "duration": 477}, {"note": 77, "velocity": 93, "duration": 478}, {"note": 72, "velocity": 91, "duration": 478}, {"note": 77, "velocity": 98, "duration": 477}, {"note": 77, "velocity": 96, "duration": 237}, {"note": 77, "velocity": 95, "duration": 238}, {"note": 72, "velocity": 76, "duration": 238}, {"note": 79, "velocity": 98, "duration": 238}, {"note": 77, "velocity": 105, "duration": 958}, {"note": 70, "velocity": 103, "duration": 237}, {"note": 70, "velocity": 90, "duration": 238}, {"note": 70, "velocity": 90, "duration": 238}, {"note": 72, "velocity": 98, "duration": 238}, {"note": 74, "velocity": 96, "duration": 958}, {"note": 70, "velocity": 86, "duration": 238}, {"note": 67, "velocity": 86, "duration": 238}, {"note": 70, "velocity": 86, "duration": 238}, {"note": 72, "velocity": 86, "duration": 238}, {"note": 72, "velocity": 103, "duration": 958}, {"note": 75, "velocity": 93, "duration": 478}, {"note": 72, "velocity": 87, "duration": 238}, {"note": 75, "velocity": 90, "duration": 243}, {"note": 72, "velocity": 63, "duration": 478}, {"note": 75, "velocity": 95, "duration": 477}, {"note": 75, "velocity": 90, "duration": 238}, {"note": 67, "velocity": 69, "duration": 237}, {"note": 67, "velocity": 79, "duration": 238}, {"note": 75, "velocity": 91, "duration": 238}, {"note": 72, "velocity": 93, "duration": 958}, {"note": 75, "velocity": 84, "duration": 238}, {"note": 75, "velocity": 84, "duration": 238}, {"note": 75, "velocity": 87, "duration": 238}, {"note": 72, "velocity": 87, "duration": 118}, {"note": 0, "velocity": 0, "duration": 122}, {"note": 75, "velocity": 66, "duration": 237}, {"note": 75, "velocity": 66, "duration": 718}, {"note": 72, "velocity": 66, "duration": 238}, {"note": 70, "velocity": 66, "duration": 238}, {"note": 65, "velocity": 91, "duration": 238}, {"note": 70, "velocity": 54, "duration": 238}, {"note": 70, "velocity": 63, "duration": 238}, {"note": 67, "velocity": 63, "duration": 718}, {"note": 77, "velocity": 97, "duration": 477}, {"note": 77, "velocity": 93, "duration": 478}, {"note": 72, "velocity": 91, "duration": 478}, {"note": 77, "velocity": 98, "duration": 477}, {"note": 77, "velocity": 96, "duration": 237}, {"note": 77, "velocity": 95, "duration": 238}, {"note": 72, "velocity": 76, "duration": 238}, {"note": 79, "velocity": 98, "duration": 238}, {"note": 77, "velocity": 105, "duration": 958}, {"note": 70, "velocity": 90, "duration": 358}, {"note": 70, "velocity": 90, "duration": 358}, {"note": 72, "velocity": 98, "duration": 238}, {"note": 74, "velocity": 96, "duration": 478}, {"note": 74, "velocity": 96, "duration": 478}, {"note": 70, "velocity": 86, "duration": 478}, {"note": 67, "velocity": 86, "duration": 478}, {"note": 72, "velocity": 103, "duration": 958}, {"note": 70, "velocity": 90, "duration": 358}, {"note": 70, "velocity": 90, "duration": 351}, {"note": 72, "velocity": 98, "duration": 238}, {"note": 74, "velocity": 96, "duration": 478}, {"note": 74, "velocity": 96, "duration": 478}, {"note": 70, "velocity": 86, "duration": 478}, {"note": 67, "velocity": 86, "duration": 478}, {"note": 72, "velocity": 103, "duration": 1853}]]