[[{"note": 69, "velocity": 39, "duration": 477}, {"note": 69, "velocity": 62, "duration": 237}, {"note": 69, "velocity": 55, "duration": 717}, {"note": 69, "velocity": 72, "duration": 478}, {"note": 71, "velocity": 90, "duration": 48}, {"note": 69, "velocity": 84, "duration": 457}, {"note": 71, "velocity": 93, "duration": 478}, {"note": 74, "velocity": 98, "duration": 1918}, {"note": 78, "velocity": 93, "duration": 1918}, {"note": 76, "velocity": 90, "duration": 477}, {"note": 76, "velocity": 87, "duration": 477}, {"note": 76, "velocity": 90, "duration": 477}, {"note": 76, "velocity": 83, "duration": 249}, {"note": 74, "velocity": 68, "duration": 247}, {"note": 78, "velocity": 97, "duration": 498}, {"note": 74, "velocity": 87, "duration": 958}, {"note": 71, "velocity": 95, "duration": 478}, {"note": 69, "velocity": 97, "duration": 3838}, {"note": 71, "velocity": 97, "duration": 477}, {"note": 71, "velocity": 91, "duration": 237}, {"note": 71, "velocity": 93, "duration": 718}, {"note": 69, "velocity": 92, "duration": 238}, {"note": 71, "velocity": 101, "duration": 478}, {"note": 74, "velocity": 66, "duration": 1198}, {"note": 83, "velocity": 97, "duration": 88}, {"note": 81, "velocity": 98, "duration": 1438}, {"note": 83, "velocity": 99, "duration": 123}, {"note": 78, "velocity": 91, "duration": 960}, {"note": 78, "velocity": 83, "duration": 237}, {"note": 78, "velocity": 73, "duration": 478}, {"note": 74, "velocity": 71, "duration": 238}, {"note": 76, "velocity": 73, "duration": 238}, {"note": 71, "velocity": 63, "duration": 237}, {"note": 71, "velocity": 71, "duration": 237}, {"note": 71, "velocity": 69, "duration": 237}, {"note": 71, "velocity": 68, "duration": 238}, {"note": 74, "velocity": 86, "duration": 477}, {"note": 74, "velocity": 93, "duration": 1678}, {"note": 71, "velocity": 99, "duration": 958}, {"note": 76, "velocity": 101, "duration": 1243}, {"note": 78, "velocity": 99, "duration": 0}, {"note": 76, "velocity": 100, "duration": 459}, {"note": 74, "velocity": 97, "duration": 1305}, {"note": 81, "velocity": 105, "duration": 477}, {"note": 81, "velocity": 106, "duration": 1038}, {"note": 74, "velocity": 96, "duration": 88}, {"note": 76, "velocity": 98, "duration": 13}, {"note": 78, "velocity": 103, "duration": 898}, {"note": 83, "velocity": 103, "duration": 477}, {"note": 83, "velocity": 105, "duration": 472}, {"note": 78, "velocity": 93, "duration": 477}, {"note": 78, "velocity": 85, "duration": 478}, {"note": 76, "velocity": 64, "duration": 243}, {"note": 74, "velocity": 64, "duration": 477}, {"note": 74, "velocity": 84, "duration": 237}, {"note": 74, "velocity": 64, "duration": 478}, {"note": 71, "velocity": 61, "duration": 513}, {"note": 76, "velocity": 66, "duration": 500}, {"note": 74, "velocity": 61, "duration": 477}, {"note": 74, "velocity": 67, "duration": 478}, {"note": 71, "velocity": 62, "duration": 478}, {"note": 69, "velocity": 65, "duration": 2878}, {"note": 78, "velocity": 99, "duration": 496}, {"note": 76, "velocity": 99, "duration": 478}, {"note": 74, "velocity": 93, "duration": 872}, {"note": 81, "velocity": 105, "duration": 477}, {"note": 81, "velocity": 98, "duration": 1318}, {"note": 74, "velocity": 87, "duration": 358}, {"note": 76, "velocity": 82, "duration": 238}, {"note": 78, "velocity": 94, "duration": 1438}, {"note": 83, "velocity": 97, "duration": 477}, {"note": 83, "velocity": 105, "duration": 958}, {"note": 78, "velocity": 90, "duration": 477}, {"note": 78, "velocity": 84, "duration": 561}, {"note": 76, "velocity": 87, "duration": 270}, {"note": 74, "velocity": 83, "duration": 129}, {"note": 74, "velocity": 89, "duration": 237}, {"note": 74, "velocity": 79, "duration": 52}, {"note": 71, "velocity": 76, "duration": 504}, {"note": 76, "velocity": 95, "duration": 339}, {"note": 74, "velocity": 95, "duration": 237}, {"note": 74, "velocity": 91, "duration": 478}, {"note": 71, "velocity": 91, "duration": 766}, {"note": 74, "velocity": 76, "duration": 3358}, {"note": 69, "velocity": 93, "duration": 273}, {"note": 69, "velocity": 91, "duration": 237}, {"note": 69, "velocity": 96, "duration": 717}, {"note": 69, "velocity": 89, "duration": 482}, {"note": 71, "velocity": 93, "duration": 598}, {"note": 0, "velocity": 0, "duration": 122}, {"note": 69, "velocity": 87, "duration": 838}, {"note": 71, "velocity": 57, "duration": 478}, {"note": 74, "velocity": 81, "duration": 408}, {"note": 78, "velocity": 68, "duration": 2038}, {"note": 76, "velocity": 97, "duration": 478}, {"note": 76, "velocity": 85, "duration": 238}, {"note": 76, "velocity": 84, "duration": 238}, {"note": 76, "velocity": 93, "duration": 360}, {"note": 0, "velocity": 0, "duration": 120}, {"note": 74, "velocity": 72, "duration": 313}, {"note": 78, "velocity": 98, "duration": 734}, {"note": 74, "velocity": 98, "duration": 718}, {"note": 71, "velocity": 99, "duration": 478}, {"note": 69, "velocity": 97, "duration": 2717}, {"note": 71, "velocity": 98, "duration": 477}, {"note": 71, "velocity": 97, "duration": 237}, {"note": 71, "velocity": 95, "duration": 210}, {"note": 69, "velocity": 98, "duration": 238}, {"note": 71, "velocity": 98, "duration": 33}, {"note": 74, "velocity": 95, "duration": 1198}, {"note": 83, "velocity": 97, "duration": 478}, {"note": 81, "velocity": 97, "duration": 1438}, {"note": 83, "velocity": 101, "duration": 478}, {"note": 78, "velocity": 98, "duration": 957}, {"note": 78, "velocity": 93, "duration": 237}, {"note": 78, "velocity": 79, "duration": 478}, {"note": 74, "velocity": 79, "duration": 238}, {"note": 76, "velocity": 91, "duration": 238}, {"note": 71, "velocity": 84, "duration": 238}, {"note": 71, "velocity": 80, "duration": 238}, {"note": 71, "velocity": 80, "duration": 238}, {"note": 71, "velocity": 90, "duration": 358}, {"note": 74, "velocity": 94, "duration": 358}, {"note": 74, "velocity": 73, "duration": 1678}, {"note": 78, "velocity": 101, "duration": 478}, {"note": 76, "velocity": 83, "duration": 2878}, {"note": 78, "velocity": 91, "duration": 48}, {"note": 76, "velocity": 92, "duration": 492}, {"note": 74, "velocity": 98, "duration": 236}, {"note": 81, "velocity": 90, "duration": 28}, {"note": 81, "velocity": 85, "duration": 1438}, {"note": 74, "velocity": 81, "duration": 274}, {"note": 76, "velocity": 79, "duration": 258}, {"note": 78, "velocity": 93, "duration": 822}, {"note": 83, "velocity": 93, "duration": 477}, {"note": 83, "velocity": 96, "duration": 958}, {"note": 78, "velocity": 96, "duration": 477}, {"note": 78, "velocity": 94, "duration": 478}, {"note": 76, "velocity": 84, "duration": 238}, {"note": 74, "velocity": 82, "duration": 477}, {"note": 74, "velocity": 72, "duration": 237}, {"note": 74, "velocity": 90, "duration": 478}, {"note": 71, "velocity": 89, "duration": 478}, {"note": 76, "velocity": 88, "duration": 718}, {"note": 74, "velocity": 100, "duration": 237}, {"note": 74, "velocity": 96, "duration": 478}, {"note": 71, "velocity": 91, "duration": 982}, {"note": 74, "velocity": 101, "duration": 160}, {"note": 78, "velocity": 103, "duration": 478}, {"note": 69, "velocity": 90, "duration": 478}, {"note": 74, "velocity": 98, "duration": 478}, {"note": 78, "velocity": 105, "duration": 478}, {"note": 76, "velocity": 101, "duration": 367}, {"note": 81, "velocity": 101, "duration": 478}, {"note": 76, "velocity": 90, "duration": 505}, {"note": 74, "velocity": 100, "duration": 478}, {"note": 66, "velocity": 87, "duration": 524}, {"note": 71, "velocity": 96, "duration": 238}, {"note": 74, "velocity": 93, "duration": 718}, {"note": 73, "velocity": 90, "duration": 1918}, {"note": 71, "velocity": 87, "duration": 478}, {"note": 74, "velocity": 62, "duration": 477}, {"note": 74, "velocity": 77, "duration": 478}, {"note": 83, "velocity": 84, "duration": 496}, {"note": 81, "velocity": 94, "duration": 982}, {"note": 83, "velocity": 87, "duration": 1198}, {"note": 74, "velocity": 85, "duration": 598}, {"note": 0, "velocity": 0, "duration": 122}, {"note": 78, "velocity": 98, "duration": 2997}, {"note": 0, "velocity": 0, "duration": 123}, {"note": 78, "velocity": 100, "duration": 478}, {"note": 69, "velocity": 93, "duration": 478}, {"note": 74, "velocity": 103, "duration": 478}, {"note": 78, "velocity": 95, "duration": 492}, {"note": 76, "velocity": 101, "duration": 958}, {"note": 81, "velocity": 85, "duration": 477}, {"note": 81, "velocity": 91, "duration": 517}, {"note": 83, "velocity": 100, "duration": 1438}, {"note": 78, "velocity": 97, "duration": 238}, {"note": 76, "velocity": 82, "duration": 238}, {"note": 78, "velocity": 101, "duration": 1437}, {"note": 78, "velocity": 103, "duration": 478}, {"note": 76, "velocity": 100, "duration": 717}, {"note": 76, "velocity": 97, "duration": 237}, {"note": 76, "velocity": 94, "duration": 477}, {"note": 76, "velocity": 90, "duration": 478}, {"note": 78, "velocity": 100, "duration": 518}, {"note": 76, "velocity": 100, "duration": 958}, {"note": 74, "velocity": 99, "duration": 241}, {"note": 76, "velocity": 106, "duration": 15}, {"note": 78, "velocity": 103, "duration": 321}, {"note": 69, "velocity": 87, "duration": 478}, {"note": 74, "velocity": 99, "duration": 478}, {"note": 78, "velocity": 91, "duration": 478}, {"note": 76, "velocity": 99, "duration": 9}, {"note": 81, "velocity": 100, "duration": 41}, {"note": 76, "velocity": 99, "duration": 476}, {"note": 74, "velocity": 95, "duration": 478}, {"note": 66, "velocity": 90, "duration": 478}, {"note": 71, "velocity": 90, "duration": 238}, {"note": 74, "velocity": 96, "duration": 777}, {"note": 73, "velocity": 106, "duration": 1918}, {"note": 71, "velocity": 97, "duration": 478}, {"note": 74, "velocity": 103, "duration": 477}, {"note": 74, "velocity": 94, "duration": 478}, {"note": 83, "velocity": 95, "duration": 478}, {"note": 81, "velocity": 100, "duration": 988}, {"note": 83, "velocity": 103, "duration": 987}, {"note": 74, "velocity": 92, "duration": 720}, {"note": 78, "velocity": 97, "duration": 1318}, {"note": 0, "velocity": 0, "duration": 122}, {"note": 76, "velocity": 56, "duration": 238}, {"note": 74, "velocity": 62, "duration": 1438}, {"note": 78, "velocity": 101, "duration": 478}, {"note": 69, "velocity": 84, "duration": 478}, {"note": 74, "velocity": 103, "duration": 478}, {"note": 78, "velocity": 109, "duration": 478}, {"note": 76, "velocity": 106, "duration": 958}, {"note": 81, "velocity": 100, "duration": 477}, {"note": 81, "velocity": 94, "duration": 506}, {"note": 83, "velocity": 106, "duration": 1438}, {"note": 78, "velocity": 97, "duration": 238}, {"note": 76, "velocity": 91, "duration": 263}, {"note": 78, "velocity": 105, "duration": 1437}, {"note": 78, "velocity": 90, "duration": 478}, {"note": 76, "velocity": 96, "duration": 957}, {"note": 76, "velocity": 91, "duration": 477}, {"note": 76, "velocity": 72, "duration": 238}, {"note": 78, "velocity": 69, "duration": 718}, {"note": 74, "velocity": 64, "duration": 477}, {"note": 74, "velocity": 65, "duration": 973}, {"note": 71, "velocity": 66, "duration": 535}, {"note": 74, "velocity": 79, "duration": 1309}, {"note": 0, "velocity": 0, "duration": 6851}, {"note": 81, "velocity": 85, "duration": 2398}, {"note": 79, "velocity": 82, "duration": 237}, {"note": 79, "velocity": 73, "duration": 237}, {"note": 79, "velocity": 80, "duration": 478}, {"note": 78, "velocity": 84, "duration": 238}, {"note": 78, "velocity": 84, "duration": 238}, {"note": 78, "velocity": 84, "duration": 598}, {"note": 76, "velocity": 34, "duration": 238}, {"note": 74, "velocity": 60, "duration": 3958}, {"note": 0, "velocity": 0, "duration": 5762}, {"note": 86, "velocity": 98, "duration": 1438}, {"note": 85, "velocity": 77, "duration": 238}, {"note": 86, "velocity": 82, "duration": 267}, {"note": 83, "velocity": 75, "duration": 502}, {"note": 81, "velocity": 64, "duration": 2878}, {"note": 78, "velocity": 90, "duration": 237}, {"note": 78, "velocity": 91, "duration": 237}, {"note": 78, "velocity": 87, "duration": 478}, {"note": 76, "velocity": 97, "duration": 237}, {"note": 76, "velocity": 94, "duration": 1198}, {"note": 74, "velocity": 94, "duration": 237}, {"note": 76, "velocity": 86, "duration": 259}, {"note": 78, "velocity": 93, "duration": 1623}, {"note": 0, "velocity": 0, "duration": 3602}, {"note": 78, "velocity": 91, "duration": 237}, {"note": 78, "velocity": 91, "duration": 267}, {"note": 76, "velocity": 66, "duration": 237}, {"note": 76, "velocity": 73, "duration": 237}, {"note": 76, "velocity": 65, "duration": 237}, {"note": 76, "velocity": 71, "duration": 238}, {"note": 74, "velocity": 66, "duration": 237}, {"note": 74, "velocity": 79, "duration": 2398}, {"note": 0, "velocity": 0, "duration": 1922}, {"note": 69, "velocity": 39, "duration": 477}, {"note": 69, "velocity": 62, "duration": 237}, {"note": 69, "velocity": 55, "duration": 717}, {"note": 69, "velocity": 72, "duration": 478}, {"note": 71, "velocity": 90, "duration": 61}, {"note": 69, "velocity": 84, "duration": 470}, {"note": 71, "velocity": 93, "duration": 478}, {"note": 74, "velocity": 98, "duration": 1918}, {"note": 78, "velocity": 93, "duration": 1918}, {"note": 76, "velocity": 90, "duration": 478}, {"note": 76, "velocity": 87, "duration": 478}, {"note": 76, "velocity": 90, "duration": 478}, {"note": 76, "velocity": 83, "duration": 238}, {"note": 74, "velocity": 68, "duration": 238}, {"note": 78, "velocity": 97, "duration": 498}, {"note": 74, "velocity": 87, "duration": 958}, {"note": 71, "velocity": 95, "duration": 478}, {"note": 69, "velocity": 97, "duration": 3838}, {"note": 71, "velocity": 97, "duration": 477}, {"note": 71, "velocity": 91, "duration": 237}, {"note": 71, "velocity": 93, "duration": 718}, {"note": 69, "velocity": 92, "duration": 238}, {"note": 71, "velocity": 101, "duration": 478}, {"note": 74, "velocity": 66, "duration": 1198}, {"note": 83, "velocity": 97, "duration": 101}, {"note": 81, "velocity": 98, "duration": 1438}, {"note": 83, "velocity": 99, "duration": 135}, {"note": 78, "velocity": 91, "duration": 960}, {"note": 78, "velocity": 83, "duration": 237}, {"note": 78, "velocity": 73, "duration": 478}, {"note": 74, "velocity": 71, "duration": 238}, {"note": 76, "velocity": 73, "duration": 238}, {"note": 71, "velocity": 63, "duration": 237}, {"note": 71, "velocity": 71, "duration": 237}, {"note": 71, "velocity": 69, "duration": 237}, {"note": 71, "velocity": 68, "duration": 238}, {"note": 74, "velocity": 86, "duration": 477}, {"note": 74, "velocity": 93, "duration": 1678}, {"note": 71, "velocity": 99, "duration": 958}, {"note": 76, "velocity": 101, "duration": 1256}, {"note": 78, "velocity": 99, "duration": 12}, {"note": 76, "velocity": 100, "duration": 8}, {"note": 74, "velocity": 97, "duration": 1318}, {"note": 81, "velocity": 105, "duration": 477}, {"note": 81, "velocity": 106, "duration": 1050}, {"note": 74, "velocity": 96, "duration": 113}, {"note": 76, "velocity": 98, "duration": 37}, {"note": 78, "velocity": 103, "duration": 910}, {"note": 83, "velocity": 103, "duration": 477}, {"note": 83, "velocity": 105, "duration": 484}, {"note": 78, "velocity": 93, "duration": 477}, {"note": 78, "velocity": 85, "duration": 478}, {"note": 76, "velocity": 64, "duration": 243}, {"note": 74, "velocity": 64, "duration": 477}, {"note": 74, "velocity": 84, "duration": 237}, {"note": 74, "velocity": 64, "duration": 478}, {"note": 71, "velocity": 61, "duration": 513}, {"note": 76, "velocity": 66, "duration": 500}, {"note": 74, "velocity": 61, "duration": 477}, {"note": 74, "velocity": 67, "duration": 478}, {"note": 71, "velocity": 62, "duration": 718}, {"note": 74, "velocity": 65, "duration": 2638}, {"note": 0, "velocity": 0, "duration": 962}, {"note": 78, "velocity": 100, "duration": 358}, {"note": 0, "velocity": 0, "duration": 122}, {"note": 69, "velocity": 90, "duration": 514}, {"note": 74, "velocity": 98, "duration": 514}, {"note": 78, "velocity": 105, "duration": 514}, {"note": 76, "velocity": 101, "duration": 401}, {"note": 81, "velocity": 101, "duration": 514}, {"note": 76, "velocity": 90, "duration": 541}, {"note": 74, "velocity": 100, "duration": 514}, {"note": 66, "velocity": 87, "duration": 560}, {"note": 71, "velocity": 96, "duration": 274}, {"note": 74, "velocity": 93, "duration": 718}, {"note": 73, "velocity": 90, "duration": 1954}, {"note": 71, "velocity": 87, "duration": 514}, {"note": 74, "velocity": 62, "duration": 478}, {"note": 74, "velocity": 77, "duration": 514}, {"note": 83, "velocity": 84, "duration": 532}, {"note": 81, "velocity": 94, "duration": 1018}, {"note": 83, "velocity": 87, "duration": 1318}, {"note": 74, "velocity": 85, "duration": 478}, {"note": 78, "velocity": 98, "duration": 1318}, {"note": 76, "velocity": 98, "duration": 238}, {"note": 74, "velocity": 98, "duration": 1593}, {"note": 78, "velocity": 100, "duration": 514}, {"note": 69, "velocity": 93, "duration": 514}, {"note": 74, "velocity": 103, "duration": 514}, {"note": 78, "velocity": 95, "duration": 528}, {"note": 76, "velocity": 101, "duration": 994}, {"note": 81, "velocity": 85, "duration": 478}, {"note": 81, "velocity": 91, "duration": 553}, {"note": 83, "velocity": 100, "duration": 1438}, {"note": 78, "velocity": 97, "duration": 238}, {"note": 76, "velocity": 82, "duration": 238}, {"note": 78, "velocity": 101, "duration": 1438}, {"note": 78, "velocity": 103, "duration": 514}, {"note": 76, "velocity": 100, "duration": 718}, {"note": 76, "velocity": 97, "duration": 238}, {"note": 76, "velocity": 94, "duration": 478}, {"note": 76, "velocity": 90, "duration": 514}, {"note": 78, "velocity": 100, "duration": 554}, {"note": 76, "velocity": 100, "duration": 994}, {"note": 74, "velocity": 99, "duration": 275}, {"note": 76, "velocity": 106, "duration": 254}, {"note": 81, "velocity": 106, "duration": 958}, {"note": 79, "velocity": 106, "duration": 285}, {"note": 78, "velocity": 106, "duration": 718}, {"note": 76, "velocity": 100, "duration": 718}, {"note": 0, "velocity": 0, "duration": 362}, {"note": 74, "velocity": 91, "duration": 358}, {"note": 76, "velocity": 85, "duration": 309}, {"note": 78, "velocity": 93, "duration": 527}, {"note": 76, "velocity": 90, "duration": 247}, {"note": 74, "velocity": 90, "duration": 1678}, {"note": 73, "velocity": 101, "duration": 238}, {"note": 71, "velocity": 82, "duration": 314}, {"note": 73, "velocity": 93, "duration": 478}, {"note": 71, "velocity": 80, "duration": 265}, {"note": 69, "velocity": 87, "duration": 3118}, {"note": 83, "velocity": 105, "duration": 1438}, {"note": 81, "velocity": 94, "duration": 237}, {"note": 81, "velocity": 93, "duration": 718}, {"note": 78, "velocity": 87, "duration": 3357}, {"note": 78, "velocity": 90, "duration": 478}, {"note": 69, "velocity": 80, "duration": 478}, {"note": 74, "velocity": 96, "duration": 478}, {"note": 78, "velocity": 83, "duration": 491}, {"note": 76, "velocity": 91, "duration": 958}, {"note": 81, "velocity": 100, "duration": 477}, {"note": 81, "velocity": 98, "duration": 478}, {"note": 83, "velocity": 105, "duration": 1438}, {"note": 78, "velocity": 97, "duration": 238}, {"note": 76, "velocity": 65, "duration": 279}, {"note": 78, "velocity": 101, "duration": 1437}, {"note": 78, "velocity": 101, "duration": 478}, {"note": 76, "velocity": 100, "duration": 957}, {"note": 76, "velocity": 97, "duration": 477}, {"note": 76, "velocity": 84, "duration": 358}, {"note": 78, "velocity": 97, "duration": 598}, {"note": 74, "velocity": 83, "duration": 477}, {"note": 74, "velocity": 82, "duration": 958}, {"note": 71, "velocity": 89, "duration": 754}, {"note": 74, "velocity": 106, "duration": 4078}, {"note": 78, "velocity": 103, "duration": 974}, {"note": 81, "velocity": 108, "duration": 1438}, {"note": 78, "velocity": 92, "duration": 478}, {"note": 76, "velocity": 86, "duration": 4918}, {"note": 74, "velocity": 96, "duration": 358}, {"note": 71, "velocity": 77, "duration": 251}, {"note": 69, "velocity": 67, "duration": 1135}, {"note": 74, "velocity": 91, "duration": 4918}]]