[[{"note": 67, "velocity": 87, "duration": 238}, {"note": 70, "velocity": 96, "duration": 238}, {"note": 74, "velocity": 99, "duration": 478}, {"note": 72, "velocity": 89, "duration": 249}, {"note": 70, "velocity": 77, "duration": 252}, {"note": 72, "velocity": 83, "duration": 478}, {"note": 70, "velocity": 87, "duration": 238}, {"note": 67, "velocity": 76, "duration": 253}, {"note": 70, "velocity": 87, "duration": 478}, {"note": 70, "velocity": 65, "duration": 238}, {"note": 67, "velocity": 65, "duration": 238}, {"note": 62, "velocity": 72, "duration": 958}, {"note": 67, "velocity": 87, "duration": 237}, {"note": 67, "velocity": 75, "duration": 238}, {"note": 67, "velocity": 81, "duration": 238}, {"note": 70, "velocity": 68, "duration": 238}, {"note": 69, "velocity": 76, "duration": 238}, {"note": 67, "velocity": 72, "duration": 238}, {"note": 65, "velocity": 66, "duration": 238}, {"note": 67, "velocity": 81, "duration": 478}, {"note": 65, "velocity": 85, "duration": 240}, {"note": 62, "velocity": 66, "duration": 960}, {"note": 67, "velocity": 86, "duration": 258}, {"note": 70, "velocity": 86, "duration": 238}, {"note": 74, "velocity": 100, "duration": 478}, {"note": 72, "velocity": 89, "duration": 257}, {"note": 70, "velocity": 84, "duration": 254}, {"note": 72, "velocity": 90, "duration": 495}, {"note": 70, "velocity": 82, "duration": 238}, {"note": 67, "velocity": 68, "duration": 240}, {"note": 70, "velocity": 80, "duration": 477}, {"note": 69, "velocity": 82, "duration": 240}, {"note": 67, "velocity": 55, "duration": 309}, {"note": 62, "velocity": 65, "duration": 958}, {"note": 67, "velocity": 99, "duration": 237}, {"note": 67, "velocity": 90, "duration": 237}, {"note": 67, "velocity": 87, "duration": 238}, {"note": 70, "velocity": 98, "duration": 237}, {"note": 70, "velocity": 93, "duration": 239}, {"note": 67, "velocity": 77, "duration": 238}, {"note": 65, "velocity": 87, "duration": 478}, {"note": 67, "velocity": 103, "duration": 1437}, {"note": 67, "velocity": 90, "duration": 238}, {"note": 70, "velocity": 93, "duration": 238}, {"note": 74, "velocity": 99, "duration": 478}, {"note": 72, "velocity": 90, "duration": 238}, {"note": 70, "velocity": 90, "duration": 238}, {"note": 72, "velocity": 92, "duration": 478}, {"note": 70, "velocity": 86, "duration": 238}, {"note": 67, "velocity": 75, "duration": 238}, {"note": 70, "velocity": 90, "duration": 478}, {"note": 70, "velocity": 79, "duration": 238}, {"note": 67, "velocity": 79, "duration": 286}, {"note": 62, "velocity": 91, "duration": 958}, {"note": 67, "velocity": 97, "duration": 237}, {"note": 67, "velocity": 87, "duration": 237}, {"note": 67, "velocity": 91, "duration": 238}, {"note": 70, "velocity": 99, "duration": 238}, {"note": 69, "velocity": 82, "duration": 238}, {"note": 67, "velocity": 84, "duration": 238}, {"note": 65, "velocity": 68, "duration": 238}, {"note": 67, "velocity": 87, "duration": 478}, {"note": 62, "velocity": 80, "duration": 478}, {"note": 62, "velocity": 67, "duration": 718}, {"note": 67, "velocity": 90, "duration": 238}, {"note": 70, "velocity": 91, "duration": 238}, {"note": 74, "velocity": 86, "duration": 478}, {"note": 72, "velocity": 93, "duration": 238}, {"note": 70, "velocity": 87, "duration": 238}, {"note": 72, "velocity": 96, "duration": 478}, {"note": 70, "velocity": 84, "duration": 238}, {"note": 67, "velocity": 68, "duration": 238}, {"note": 70, "velocity": 87, "duration": 478}, {"note": 67, "velocity": 84, "duration": 238}, {"note": 70, "velocity": 84, "duration": 238}, {"note": 62, "velocity": 72, "duration": 717}, {"note": 62, "velocity": 79, "duration": 238}, {"note": 67, "velocity": 77, "duration": 237}, {"note": 67, "velocity": 81, "duration": 237}, {"note": 67, "velocity": 81, "duration": 238}, {"note": 70, "velocity": 66, "duration": 237}, {"note": 70, "velocity": 61, "duration": 238}, {"note": 65, "velocity": 89, "duration": 237}, {"note": 65, "velocity": 68, "duration": 238}, {"note": 62, "velocity": 66, "duration": 240}, {"note": 67, "velocity": 87, "duration": 1318}, {"note": 0, "velocity": 0, "duration": 122}, {"note": 74, "velocity": 66, "duration": 238}, {"note": 77, "velocity": 91, "duration": 145}, {"note": 0, "velocity": 0, "duration": 95}, {"note": 79, "velocity": 100, "duration": 238}, {"note": 79, "velocity": 97, "duration": 238}, {"note": 79, "velocity": 99, "duration": 238}, {"note": 79, "velocity": 98, "duration": 238}, {"note": 79, "velocity": 97, "duration": 238}, {"note": 77, "velocity": 66, "duration": 238}, {"note": 77, "velocity": 90, "duration": 238}, {"note": 74, "velocity": 87, "duration": 238}, {"note": 77, "velocity": 98, "duration": 238}, {"note": 74, "velocity": 91, "duration": 238}, {"note": 72, "velocity": 95, "duration": 492}, {"note": 74, "velocity": 106, "duration": 478}, {"note": 67, "velocity": 90, "duration": 238}, {"note": 70, "velocity": 94, "duration": 238}, {"note": 72, "velocity": 94, "duration": 260}, {"note": 74, "velocity": 93, "duration": 251}, {"note": 72, "velocity": 97, "duration": 286}, {"note": 74, "velocity": 93, "duration": 238}, {"note": 77, "velocity": 90, "duration": 478}, {"note": 72, "velocity": 103, "duration": 480}, {"note": 74, "velocity": 105, "duration": 1437}, {"note": 74, "velocity": 89, "duration": 238}, {"note": 77, "velocity": 99, "duration": 238}, {"note": 79, "velocity": 99, "duration": 237}, {"note": 79, "velocity": 95, "duration": 237}, {"note": 79, "velocity": 93, "duration": 237}, {"note": 79, "velocity": 97, "duration": 237}, {"note": 79, "velocity": 95, "duration": 238}, {"note": 77, "velocity": 83, "duration": 237}, {"note": 77, "velocity": 92, "duration": 238}, {"note": 74, "velocity": 87, "duration": 238}, {"note": 77, "velocity": 93, "duration": 238}, {"note": 74, "velocity": 96, "duration": 238}, {"note": 72, "velocity": 94, "duration": 478}, {"note": 74, "velocity": 108, "duration": 478}, {"note": 67, "velocity": 87, "duration": 261}, {"note": 70, "velocity": 87, "duration": 238}, {"note": 72, "velocity": 90, "duration": 249}, {"note": 74, "velocity": 81, "duration": 299}, {"note": 72, "velocity": 86, "duration": 245}, {"note": 70, "velocity": 66, "duration": 252}, {"note": 67, "velocity": 72, "duration": 257}, {"note": 70, "velocity": 61, "duration": 119}, {"note": 67, "velocity": 64, "duration": 170}, {"note": 65, "velocity": 79, "duration": 478}, {"note": 67, "velocity": 91, "duration": 1438}, {"note": 74, "velocity": 100, "duration": 238}, {"note": 77, "velocity": 95, "duration": 238}, {"note": 79, "velocity": 99, "duration": 237}, {"note": 79, "velocity": 97, "duration": 237}, {"note": 79, "velocity": 93, "duration": 237}, {"note": 79, "velocity": 97, "duration": 237}, {"note": 79, "velocity": 95, "duration": 248}, {"note": 77, "velocity": 87, "duration": 237}, {"note": 77, "velocity": 87, "duration": 238}, {"note": 74, "velocity": 80, "duration": 238}, {"note": 77, "velocity": 95, "duration": 238}, {"note": 74, "velocity": 86, "duration": 238}, {"note": 72, "velocity": 97, "duration": 478}, {"note": 74, "velocity": 103, "duration": 478}, {"note": 67, "velocity": 91, "duration": 238}, {"note": 70, "velocity": 95, "duration": 238}, {"note": 72, "velocity": 98, "duration": 238}, {"note": 74, "velocity": 93, "duration": 238}, {"note": 72, "velocity": 92, "duration": 289}, {"note": 74, "velocity": 87, "duration": 238}, {"note": 77, "velocity": 83, "duration": 480}, {"note": 72, "velocity": 87, "duration": 478}, {"note": 74, "velocity": 94, "duration": 1437}, {"note": 74, "velocity": 99, "duration": 238}, {"note": 77, "velocity": 95, "duration": 238}, {"note": 79, "velocity": 101, "duration": 477}, {"note": 79, "velocity": 103, "duration": 477}, {"note": 79, "velocity": 100, "duration": 238}, {"note": 77, "velocity": 90, "duration": 237}, {"note": 77, "velocity": 85, "duration": 238}, {"note": 74, "velocity": 86, "duration": 238}, {"note": 77, "velocity": 92, "duration": 238}, {"note": 74, "velocity": 87, "duration": 237}, {"note": 74, "velocity": 87, "duration": 237}, {"note": 74, "velocity": 91, "duration": 238}, {"note": 67, "velocity": 92, "duration": 478}, {"note": 67, "velocity": 91, "duration": 238}, {"note": 70, "velocity": 91, "duration": 238}, {"note": 72, "velocity": 93, "duration": 246}, {"note": 74, "velocity": 92, "duration": 281}, {"note": 72, "velocity": 86, "duration": 238}, {"note": 70, "velocity": 81, "duration": 238}, {"note": 67, "velocity": 74, "duration": 238}, {"note": 70, "velocity": 56, "duration": 133}, {"note": 67, "velocity": 67, "duration": 168}, {"note": 65, "velocity": 79, "duration": 478}, {"note": 67, "velocity": 98, "duration": 1259}, {"note": 0, "velocity": 0, "duration": 901}, {"note": 74, "velocity": 75, "duration": 109}, {"note": 0, "velocity": 0, "duration": 131}, {"note": 74, "velocity": 79, "duration": 135}, {"note": 0, "velocity": 0, "duration": 105}, {"note": 74, "velocity": 84, "duration": 125}, {"note": 0, "velocity": 0, "duration": 115}, {"note": 74, "velocity": 90, "duration": 178}, {"note": 0, "velocity": 0, "duration": 302}, {"note": 72, "velocity": 83, "duration": 198}, {"note": 70, "velocity": 95, "duration": 194}, {"note": 72, "velocity": 86, "duration": 183}, {"note": 70, "velocity": 83, "duration": 201}, {"note": 72, "velocity": 84, "duration": 183}, {"note": 70, "velocity": 84, "duration": 200}, {"note": 72, "velocity": 93, "duration": 170}, {"note": 0, "velocity": 0, "duration": 310}, {"note": 72, "velocity": 84, "duration": 108}, {"note": 74, "velocity": 83, "duration": 318}, {"note": 0, "velocity": 0, "duration": 282}, {"note": 74, "velocity": 90, "duration": 111}, {"note": 0, "velocity": 0, "duration": 129}, {"note": 74, "velocity": 93, "duration": 107}, {"note": 0, "velocity": 0, "duration": 133}, {"note": 74, "velocity": 90, "duration": 139}, {"note": 0, "velocity": 0, "duration": 101}, {"note": 72, "velocity": 98, "duration": 181}, {"note": 0, "velocity": 0, "duration": 539}, {"note": 69, "velocity": 91, "duration": 270}, {"note": 70, "velocity": 84, "duration": 189}, {"note": 69, "velocity": 83, "duration": 196}, {"note": 70, "velocity": 84, "duration": 228}, {"note": 65, "velocity": 83, "duration": 245}, {"note": 62, "velocity": 86, "duration": 295}, {"note": 0, "velocity": 0, "duration": 905}, {"note": 74, "velocity": 86, "duration": 109}, {"note": 0, "velocity": 0, "duration": 131}, {"note": 74, "velocity": 83, "duration": 113}, {"note": 0, "velocity": 0, "duration": 127}, {"note": 74, "velocity": 84, "duration": 125}, {"note": 0, "velocity": 0, "duration": 115}, {"note": 74, "velocity": 83, "duration": 130}, {"note": 0, "velocity": 0, "duration": 110}, {"note": 74, "velocity": 84, "duration": 121}, {"note": 0, "velocity": 0, "duration": 119}, {"note": 74, "velocity": 84, "duration": 120}, {"note": 0, "velocity": 0, "duration": 120}, {"note": 70, "velocity": 82, "duration": 141}, {"note": 0, "velocity": 0, "duration": 99}, {"note": 72, "velocity": 84, "duration": 211}, {"note": 72, "velocity": 91, "duration": 91}, {"note": 70, "velocity": 83, "duration": 159}, {"note": 0, "velocity": 0, "duration": 81}, {"note": 72, "velocity": 84, "duration": 176}, {"note": 0, "velocity": 0, "duration": 64}, {"note": 70, "velocity": 95, "duration": 166}, {"note": 0, "velocity": 0, "duration": 74}, {"note": 72, "velocity": 95, "duration": 159}, {"note": 0, "velocity": 0, "duration": 321}, {"note": 74, "velocity": 91, "duration": 144}, {"note": 0, "velocity": 0, "duration": 696}, {"note": 74, "velocity": 82, "duration": 111}, {"note": 0, "velocity": 0, "duration": 129}, {"note": 74, "velocity": 86, "duration": 103}, {"note": 74, "velocity": 86, "duration": 151}, {"note": 0, "velocity": 0, "duration": 89}, {"note": 72, "velocity": 95, "duration": 129}, {"note": 0, "velocity": 0, "duration": 111}, {"note": 70, "velocity": 90, "duration": 181}, {"note": 69, "velocity": 98, "duration": 437}, {"note": 67, "velocity": 100, "duration": 828}, {"note": 0, "velocity": 0, "duration": 612}, {"note": 67, "velocity": 87, "duration": 238}, {"note": 70, "velocity": 96, "duration": 238}, {"note": 74, "velocity": 99, "duration": 478}, {"note": 72, "velocity": 89, "duration": 249}, {"note": 70, "velocity": 77, "duration": 252}, {"note": 72, "velocity": 83, "duration": 478}, {"note": 70, "velocity": 87, "duration": 238}, {"note": 67, "velocity": 76, "duration": 253}, {"note": 70, "velocity": 87, "duration": 478}, {"note": 70, "velocity": 65, "duration": 238}, {"note": 67, "velocity": 65, "duration": 238}, {"note": 62, "velocity": 72, "duration": 958}, {"note": 67, "velocity": 87, "duration": 237}, {"note": 67, "velocity": 75, "duration": 238}, {"note": 67, "velocity": 81, "duration": 238}, {"note": 70, "velocity": 68, "duration": 238}, {"note": 69, "velocity": 76, "duration": 238}, {"note": 67, "velocity": 72, "duration": 238}, {"note": 65, "velocity": 66, "duration": 238}, {"note": 67, "velocity": 81, "duration": 478}, {"note": 62, "velocity": 85, "duration": 478}, {"note": 62, "velocity": 66, "duration": 718}, {"note": 67, "velocity": 86, "duration": 258}, {"note": 70, "velocity": 86, "duration": 238}, {"note": 74, "velocity": 100, "duration": 478}, {"note": 72, "velocity": 89, "duration": 257}, {"note": 70, "velocity": 84, "duration": 254}, {"note": 72, "velocity": 90, "duration": 495}, {"note": 70, "velocity": 82, "duration": 238}, {"note": 67, "velocity": 68, "duration": 308}, {"note": 70, "velocity": 80, "duration": 477}, {"note": 70, "velocity": 82, "duration": 238}, {"note": 67, "velocity": 55, "duration": 309}, {"note": 62, "velocity": 65, "duration": 718}, {"note": 62, "velocity": 65, "duration": 238}, {"note": 67, "velocity": 99, "duration": 237}, {"note": 67, "velocity": 90, "duration": 237}, {"note": 67, "velocity": 87, "duration": 238}, {"note": 70, "velocity": 98, "duration": 237}, {"note": 69, "velocity": 93, "duration": 118}, {"note": 70, "velocity": 93, "duration": 119}, {"note": 67, "velocity": 77, "duration": 238}, {"note": 65, "velocity": 87, "duration": 238}, {"note": 62, "velocity": 87, "duration": 478}, {"note": 67, "velocity": 103, "duration": 1198}, {"note": 74, "velocity": 66, "duration": 238}, {"note": 77, "velocity": 91, "duration": 145}, {"note": 0, "velocity": 0, "duration": 95}, {"note": 79, "velocity": 100, "duration": 238}, {"note": 79, "velocity": 97, "duration": 238}, {"note": 79, "velocity": 99, "duration": 238}, {"note": 79, "velocity": 98, "duration": 238}, {"note": 79, "velocity": 97, "duration": 238}, {"note": 77, "velocity": 66, "duration": 238}, {"note": 77, "velocity": 90, "duration": 238}, {"note": 74, "velocity": 87, "duration": 238}, {"note": 77, "velocity": 98, "duration": 238}, {"note": 74, "velocity": 91, "duration": 238}, {"note": 72, "velocity": 95, "duration": 492}, {"note": 74, "velocity": 106, "duration": 478}, {"note": 67, "velocity": 90, "duration": 238}, {"note": 70, "velocity": 94, "duration": 238}, {"note": 72, "velocity": 94, "duration": 260}, {"note": 74, "velocity": 93, "duration": 251}, {"note": 72, "velocity": 97, "duration": 286}, {"note": 74, "velocity": 93, "duration": 238}, {"note": 77, "velocity": 90, "duration": 478}, {"note": 72, "velocity": 103, "duration": 529}, {"note": 74, "velocity": 105, "duration": 1437}, {"note": 74, "velocity": 89, "duration": 238}, {"note": 77, "velocity": 99, "duration": 238}, {"note": 79, "velocity": 99, "duration": 237}, {"note": 79, "velocity": 95, "duration": 237}, {"note": 79, "velocity": 93, "duration": 237}, {"note": 79, "velocity": 97, "duration": 237}, {"note": 79, "velocity": 95, "duration": 238}, {"note": 77, "velocity": 83, "duration": 237}, {"note": 77, "velocity": 92, "duration": 238}, {"note": 74, "velocity": 87, "duration": 238}, {"note": 77, "velocity": 93, "duration": 238}, {"note": 74, "velocity": 96, "duration": 238}, {"note": 72, "velocity": 94, "duration": 478}, {"note": 74, "velocity": 108, "duration": 478}, {"note": 67, "velocity": 87, "duration": 261}, {"note": 70, "velocity": 87, "duration": 238}, {"note": 72, "velocity": 90, "duration": 249}, {"note": 74, "velocity": 81, "duration": 299}, {"note": 72, "velocity": 86, "duration": 245}, {"note": 70, "velocity": 66, "duration": 252}, {"note": 0, "velocity": 0, "duration": 228}, {"note": 70, "velocity": 61, "duration": 119}, {"note": 67, "velocity": 64, "duration": 170}, {"note": 65, "velocity": 79, "duration": 478}, {"note": 67, "velocity": 91, "duration": 1438}, {"note": 74, "velocity": 100, "duration": 238}, {"note": 77, "velocity": 95, "duration": 238}, {"note": 79, "velocity": 99, "duration": 237}, {"note": 79, "velocity": 97, "duration": 237}, {"note": 79, "velocity": 93, "duration": 237}, {"note": 79, "velocity": 97, "duration": 237}, {"note": 79, "velocity": 95, "duration": 248}, {"note": 77, "velocity": 87, "duration": 237}, {"note": 77, "velocity": 87, "duration": 238}, {"note": 74, "velocity": 80, "duration": 238}, {"note": 77, "velocity": 95, "duration": 238}, {"note": 74, "velocity": 86, "duration": 238}, {"note": 72, "velocity": 97, "duration": 478}, {"note": 74, "velocity": 103, "duration": 478}, {"note": 67, "velocity": 91, "duration": 238}, {"note": 70, "velocity": 95, "duration": 238}, {"note": 72, "velocity": 98, "duration": 238}, {"note": 74, "velocity": 93, "duration": 238}, {"note": 72, "velocity": 92, "duration": 289}, {"note": 74, "velocity": 87, "duration": 238}, {"note": 77, "velocity": 83, "duration": 718}, {"note": 72, "velocity": 87, "duration": 478}, {"note": 74, "velocity": 94, "duration": 1197}, {"note": 74, "velocity": 99, "duration": 238}, {"note": 77, "velocity": 95, "duration": 238}, {"note": 79, "velocity": 101, "duration": 477}, {"note": 79, "velocity": 103, "duration": 477}, {"note": 79, "velocity": 100, "duration": 238}, {"note": 77, "velocity": 90, "duration": 237}, {"note": 77, "velocity": 85, "duration": 238}, {"note": 74, "velocity": 86, "duration": 238}, {"note": 77, "velocity": 92, "duration": 238}, {"note": 74, "velocity": 87, "duration": 237}, {"note": 74, "velocity": 87, "duration": 237}, {"note": 72, "velocity": 91, "duration": 118}, {"note": 74, "velocity": 91, "duration": 118}, {"note": 67, "velocity": 92, "duration": 478}, {"note": 67, "velocity": 91, "duration": 238}, {"note": 70, "velocity": 91, "duration": 238}, {"note": 72, "velocity": 93, "duration": 246}, {"note": 74, "velocity": 92, "duration": 281}, {"note": 72, "velocity": 86, "duration": 238}, {"note": 70, "velocity": 81, "duration": 238}, {"note": 67, "velocity": 74, "duration": 720}, {"note": 0, "velocity": 0, "duration": 240}, {"note": 65, "velocity": 79, "duration": 358}, {"note": 67, "velocity": 98, "duration": 1379}, {"note": 0, "velocity": 0, "duration": 3541}, {"note": 75, "velocity": 66, "duration": 238}, {"note": 78, "velocity": 91, "duration": 145}, {"note": 0, "velocity": 0, "duration": 95}, {"note": 80, "velocity": 100, "duration": 238}, {"note": 80, "velocity": 97, "duration": 238}, {"note": 80, "velocity": 99, "duration": 238}, {"note": 80, "velocity": 98, "duration": 238}, {"note": 80, "velocity": 97, "duration": 238}, {"note": 78, "velocity": 66, "duration": 238}, {"note": 78, "velocity": 90, "duration": 238}, {"note": 75, "velocity": 87, "duration": 238}, {"note": 78, "velocity": 98, "duration": 238}, {"note": 75, "velocity": 91, "duration": 238}, {"note": 73, "velocity": 95, "duration": 492}, {"note": 75, "velocity": 106, "duration": 478}, {"note": 68, "velocity": 90, "duration": 238}, {"note": 71, "velocity": 94, "duration": 238}, {"note": 73, "velocity": 94, "duration": 260}, {"note": 75, "velocity": 93, "duration": 251}, {"note": 73, "velocity": 97, "duration": 286}, {"note": 75, "velocity": 93, "duration": 238}, {"note": 78, "velocity": 90, "duration": 478}, {"note": 73, "velocity": 103, "duration": 529}, {"note": 75, "velocity": 105, "duration": 1437}, {"note": 75, "velocity": 89, "duration": 238}, {"note": 78, "velocity": 99, "duration": 238}, {"note": 80, "velocity": 99, "duration": 237}, {"note": 80, "velocity": 95, "duration": 237}, {"note": 80, "velocity": 93, "duration": 237}, {"note": 80, "velocity": 97, "duration": 237}, {"note": 80, "velocity": 95, "duration": 238}, {"note": 78, "velocity": 83, "duration": 237}, {"note": 78, "velocity": 92, "duration": 238}, {"note": 75, "velocity": 87, "duration": 238}, {"note": 78, "velocity": 93, "duration": 238}, {"note": 75, "velocity": 96, "duration": 238}, {"note": 73, "velocity": 94, "duration": 478}, {"note": 75, "velocity": 108, "duration": 478}, {"note": 68, "velocity": 87, "duration": 261}, {"note": 71, "velocity": 87, "duration": 238}, {"note": 73, "velocity": 90, "duration": 249}, {"note": 75, "velocity": 81, "duration": 299}, {"note": 73, "velocity": 86, "duration": 245}, {"note": 71, "velocity": 66, "duration": 252}, {"note": 68, "velocity": 72, "duration": 257}, {"note": 71, "velocity": 61, "duration": 119}, {"note": 68, "velocity": 64, "duration": 170}, {"note": 66, "velocity": 79, "duration": 478}, {"note": 68, "velocity": 91, "duration": 1438}, {"note": 75, "velocity": 100, "duration": 238}, {"note": 78, "velocity": 95, "duration": 238}, {"note": 80, "velocity": 99, "duration": 237}, {"note": 80, "velocity": 97, "duration": 237}, {"note": 80, "velocity": 93, "duration": 237}, {"note": 80, "velocity": 97, "duration": 237}, {"note": 80, "velocity": 95, "duration": 248}, {"note": 78, "velocity": 87, "duration": 237}, {"note": 78, "velocity": 87, "duration": 238}, {"note": 75, "velocity": 80, "duration": 238}, {"note": 78, "velocity": 95, "duration": 238}, {"note": 75, "velocity": 86, "duration": 238}, {"note": 73, "velocity": 97, "duration": 478}, {"note": 75, "velocity": 103, "duration": 478}, {"note": 68, "velocity": 91, "duration": 238}, {"note": 71, "velocity": 95, "duration": 238}, {"note": 73, "velocity": 98, "duration": 238}, {"note": 75, "velocity": 93, "duration": 238}, {"note": 73, "velocity": 92, "duration": 289}, {"note": 75, "velocity": 87, "duration": 238}, {"note": 78, "velocity": 83, "duration": 478}, {"note": 73, "velocity": 87, "duration": 478}, {"note": 75, "velocity": 94, "duration": 1437}, {"note": 75, "velocity": 99, "duration": 238}, {"note": 78, "velocity": 95, "duration": 238}, {"note": 80, "velocity": 101, "duration": 477}, {"note": 80, "velocity": 103, "duration": 477}, {"note": 80, "velocity": 100, "duration": 238}, {"note": 78, "velocity": 90, "duration": 237}, {"note": 78, "velocity": 85, "duration": 238}, {"note": 75, "velocity": 86, "duration": 238}, {"note": 78, "velocity": 92, "duration": 238}, {"note": 75, "velocity": 87, "duration": 237}, {"note": 75, "velocity": 87, "duration": 237}, {"note": 73, "velocity": 91, "duration": 118}, {"note": 75, "velocity": 91, "duration": 118}, {"note": 68, "velocity": 92, "duration": 478}, {"note": 68, "velocity": 91, "duration": 238}, {"note": 71, "velocity": 91, "duration": 238}, {"note": 73, "velocity": 93, "duration": 246}, {"note": 75, "velocity": 92, "duration": 281}, {"note": 73, "velocity": 86, "duration": 238}, {"note": 71, "velocity": 81, "duration": 238}, {"note": 68, "velocity": 74, "duration": 238}, {"note": 0, "velocity": 0, "duration": 242}, {"note": 66, "velocity": 79, "duration": 478}, {"note": 68, "velocity": 98, "duration": 1379}, {"note": 0, "velocity": 0, "duration": 781}, {"note": 75, "velocity": 75, "duration": 109}, {"note": 0, "velocity": 0, "duration": 131}, {"note": 75, "velocity": 79, "duration": 135}, {"note": 0, "velocity": 0, "duration": 105}, {"note": 75, "velocity": 84, "duration": 125}, {"note": 0, "velocity": 0, "duration": 115}, {"note": 75, "velocity": 90, "duration": 178}, {"note": 0, "velocity": 0, "duration": 302}, {"note": 73, "velocity": 83, "duration": 198}, {"note": 71, "velocity": 95, "duration": 194}, {"note": 73, "velocity": 86, "duration": 183}, {"note": 71, "velocity": 83, "duration": 201}, {"note": 73, "velocity": 84, "duration": 183}, {"note": 71, "velocity": 84, "duration": 200}, {"note": 73, "velocity": 93, "duration": 170}, {"note": 0, "velocity": 0, "duration": 310}, {"note": 73, "velocity": 84, "duration": 108}, {"note": 75, "velocity": 83, "duration": 318}, {"note": 0, "velocity": 0, "duration": 282}, {"note": 75, "velocity": 90, "duration": 111}, {"note": 0, "velocity": 0, "duration": 129}, {"note": 75, "velocity": 93, "duration": 107}, {"note": 0, "velocity": 0, "duration": 133}, {"note": 75, "velocity": 90, "duration": 139}, {"note": 0, "velocity": 0, "duration": 101}, {"note": 73, "velocity": 98, "duration": 181}, {"note": 0, "velocity": 0, "duration": 539}, {"note": 70, "velocity": 91, "duration": 270}, {"note": 71, "velocity": 84, "duration": 189}, {"note": 70, "velocity": 83, "duration": 196}, {"note": 71, "velocity": 84, "duration": 228}, {"note": 66, "velocity": 83, "duration": 245}, {"note": 63, "velocity": 86, "duration": 295}, {"note": 0, "velocity": 0, "duration": 905}, {"note": 75, "velocity": 86, "duration": 109}, {"note": 0, "velocity": 0, "duration": 131}, {"note": 75, "velocity": 83, "duration": 113}, {"note": 0, "velocity": 0, "duration": 127}, {"note": 75, "velocity": 84, "duration": 125}, {"note": 0, "velocity": 0, "duration": 115}, {"note": 75, "velocity": 83, "duration": 130}, {"note": 0, "velocity": 0, "duration": 110}, {"note": 75, "velocity": 84, "duration": 121}, {"note": 0, "velocity": 0, "duration": 119}, {"note": 75, "velocity": 84, "duration": 120}, {"note": 0, "velocity": 0, "duration": 120}, {"note": 71, "velocity": 82, "duration": 141}, {"note": 0, "velocity": 0, "duration": 99}, {"note": 73, "velocity": 84, "duration": 211}, {"note": 73, "velocity": 91, "duration": 91}, {"note": 71, "velocity": 83, "duration": 159}, {"note": 0, "velocity": 0, "duration": 81}, {"note": 73, "velocity": 84, "duration": 176}, {"note": 0, "velocity": 0, "duration": 64}, {"note": 71, "velocity": 95, "duration": 166}, {"note": 0, "velocity": 0, "duration": 74}, {"note": 73, "velocity": 95, "duration": 159}, {"note": 0, "velocity": 0, "duration": 321}, {"note": 75, "velocity": 91, "duration": 144}, {"note": 0, "velocity": 0, "duration": 696}, {"note": 75, "velocity": 82, "duration": 111}, {"note": 0, "velocity": 0, "duration": 129}, {"note": 75, "velocity": 86, "duration": 103}, {"note": 75, "velocity": 86, "duration": 151}, {"note": 0, "velocity": 0, "duration": 89}, {"note": 73, "velocity": 95, "duration": 129}, {"note": 0, "velocity": 0, "duration": 111}, {"note": 71, "velocity": 90, "duration": 181}, {"note": 70, "velocity": 98, "duration": 437}, {"note": 68, "velocity": 100, "duration": 828}, {"note": 0, "velocity": 0, "duration": 612}, {"note": 68, "velocity": 87, "duration": 238}, {"note": 71, "velocity": 96, "duration": 238}, {"note": 0, "velocity": 0, "duration": 242}, {"note": 75, "velocity": 75, "duration": 109}, {"note": 0, "velocity": 0, "duration": 131}, {"note": 75, "velocity": 79, "duration": 135}, {"note": 0, "velocity": 0, "duration": 105}, {"note": 75, "velocity": 84, "duration": 125}, {"note": 0, "velocity": 0, "duration": 115}, {"note": 75, "velocity": 90, "duration": 178}, {"note": 0, "velocity": 0, "duration": 302}, {"note": 73, "velocity": 83, "duration": 198}, {"note": 71, "velocity": 95, "duration": 194}, {"note": 73, "velocity": 86, "duration": 183}, {"note": 71, "velocity": 83, "duration": 201}, {"note": 73, "velocity": 84, "duration": 183}, {"note": 71, "velocity": 84, "duration": 200}, {"note": 73, "velocity": 93, "duration": 170}, {"note": 0, "velocity": 0, "duration": 310}, {"note": 73, "velocity": 84, "duration": 108}, {"note": 75, "velocity": 83, "duration": 318}, {"note": 0, "velocity": 0, "duration": 282}, {"note": 75, "velocity": 90, "duration": 111}, {"note": 0, "velocity": 0, "duration": 129}, {"note": 75, "velocity": 93, "duration": 107}, {"note": 0, "velocity": 0, "duration": 133}, {"note": 75, "velocity": 90, "duration": 139}, {"note": 0, "velocity": 0, "duration": 101}, {"note": 73, "velocity": 98, "duration": 181}, {"note": 0, "velocity": 0, "duration": 539}, {"note": 70, "velocity": 91, "duration": 270}, {"note": 71, "velocity": 84, "duration": 189}, {"note": 70, "velocity": 83, "duration": 196}, {"note": 71, "velocity": 84, "duration": 228}, {"note": 66, "velocity": 83, "duration": 245}, {"note": 63, "velocity": 86, "duration": 295}, {"note": 0, "velocity": 0, "duration": 905}, {"note": 75, "velocity": 86, "duration": 109}, {"note": 0, "velocity": 0, "duration": 131}, {"note": 75, "velocity": 83, "duration": 113}, {"note": 0, "velocity": 0, "duration": 127}, {"note": 75, "velocity": 84, "duration": 125}, {"note": 0, "velocity": 0, "duration": 115}, {"note": 75, "velocity": 83, "duration": 130}, {"note": 0, "velocity": 0, "duration": 110}, {"note": 75, "velocity": 84, "duration": 121}, {"note": 0, "velocity": 0, "duration": 119}, {"note": 75, "velocity": 84, "duration": 120}, {"note": 0, "velocity": 0, "duration": 120}, {"note": 71, "velocity": 82, "duration": 141}, {"note": 0, "velocity": 0, "duration": 99}, {"note": 73, "velocity": 84, "duration": 211}, {"note": 73, "velocity": 91, "duration": 91}, {"note": 71, "velocity": 83, "duration": 159}, {"note": 0, "velocity": 0, "duration": 81}, {"note": 73, "velocity": 84, "duration": 176}, {"note": 0, "velocity": 0, "duration": 64}, {"note": 71, "velocity": 95, "duration": 166}, {"note": 0, "velocity": 0, "duration": 74}, {"note": 73, "velocity": 95, "duration": 159}, {"note": 0, "velocity": 0, "duration": 321}, {"note": 75, "velocity": 91, "duration": 144}, {"note": 0, "velocity": 0, "duration": 696}, {"note": 75, "velocity": 82, "duration": 111}, {"note": 0, "velocity": 0, "duration": 129}, {"note": 75, "velocity": 86, "duration": 103}, {"note": 75, "velocity": 86, "duration": 151}, {"note": 0, "velocity": 0, "duration": 89}, {"note": 73, "velocity": 95, "duration": 129}, {"note": 0, "velocity": 0, "duration": 111}, {"note": 71, "velocity": 90, "duration": 181}, {"note": 70, "velocity": 98, "duration": 437}, {"note": 68, "velocity": 100, "duration": 828}, {"note": 0, "velocity": 0, "duration": 612}, {"note": 68, "velocity": 87, "duration": 238}, {"note": 71, "velocity": 96, "duration": 238}]]