[[{"note": 72, "velocity": 84, "duration": 420}, {"note": 70, "velocity": 79, "duration": 242}, {"note": 0, "velocity": 0, "duration": 238}, {"note": 67, "velocity": 79, "duration": 324}, {"note": 70, "velocity": 84, "duration": 261}, {"note": 72, "velocity": 80, "duration": 1566}, {"note": 70, "velocity": 90, "duration": 361}, {"note": 0, "velocity": 0, "duration": 119}, {"note": 70, "velocity": 93, "duration": 876}, {"note": 0, "velocity": 0, "duration": 84}, {"note": 68, "velocity": 90, "duration": 714}, {"note": 0, "velocity": 0, "duration": 246}, {"note": 63, "velocity": 62, "duration": 1154}, {"note": 0, "velocity": 0, "duration": 3646}, {"note": 67, "velocity": 56, "duration": 478}, {"note": 70, "velocity": 80, "duration": 508}, {"note": 72, "velocity": 98, "duration": 478}, {"note": 70, "velocity": 66, "duration": 528}, {"note": 72, "velocity": 93, "duration": 497}, {"note": 74, "velocity": 83, "duration": 488}, {"note": 67, "velocity": 84, "duration": 477}, {"note": 67, "velocity": 96, "duration": 958}, {"note": 70, "velocity": 103, "duration": 850}, {"note": 70, "velocity": 99, "duration": 477}, {"note": 70, "velocity": 99, "duration": 477}, {"note": 70, "velocity": 99, "duration": 490}, {"note": 68, "velocity": 96, "duration": 477}, {"note": 68, "velocity": 96, "duration": 718}, {"note": 58, "velocity": 75, "duration": 238}, {"note": 68, "velocity": 77, "duration": 478}, {"note": 67, "velocity": 66, "duration": 478}, {"note": 65, "velocity": 69, "duration": 358}, {"note": 63, "velocity": 43, "duration": 598}, {"note": 67, "velocity": 55, "duration": 4798}, {"note": 68, "velocity": 96, "duration": 401}, {"note": 68, "velocity": 74, "duration": 477}, {"note": 68, "velocity": 80, "duration": 478}, {"note": 67, "velocity": 77, "duration": 238}, {"note": 65, "velocity": 77, "duration": 321}, {"note": 63, "velocity": 65, "duration": 238}, {"note": 67, "velocity": 80, "duration": 2158}, {"note": 63, "velocity": 99, "duration": 478}, {"note": 65, "velocity": 93, "duration": 478}, {"note": 63, "velocity": 69, "duration": 43}, {"note": 67, "velocity": 99, "duration": 51}, {"note": 0, "velocity": 0, "duration": 85}, {"note": 65, "velocity": 89, "duration": 739}, {"note": 67, "velocity": 94, "duration": 511}, {"note": 65, "velocity": 96, "duration": 478}, {"note": 63, "velocity": 75, "duration": 539}, {"note": 65, "velocity": 94, "duration": 5278}, {"note": 67, "velocity": 90, "duration": 272}, {"note": 70, "velocity": 97, "duration": 718}, {"note": 72, "velocity": 105, "duration": 478}, {"note": 70, "velocity": 86, "duration": 478}, {"note": 72, "velocity": 100, "duration": 523}, {"note": 74, "velocity": 99, "duration": 516}, {"note": 67, "velocity": 84, "duration": 477}, {"note": 67, "velocity": 93, "duration": 958}, {"note": 70, "velocity": 98, "duration": 1437}, {"note": 70, "velocity": 108, "duration": 477}, {"note": 70, "velocity": 105, "duration": 477}, {"note": 70, "velocity": 106, "duration": 533}, {"note": 68, "velocity": 91, "duration": 477}, {"note": 68, "velocity": 95, "duration": 838}, {"note": 58, "velocity": 83, "duration": 238}, {"note": 0, "velocity": 0, "duration": 122}, {"note": 68, "velocity": 76, "duration": 478}, {"note": 67, "velocity": 86, "duration": 438}, {"note": 65, "velocity": 87, "duration": 478}, {"note": 63, "velocity": 66, "duration": 478}, {"note": 67, "velocity": 66, "duration": 282}, {"note": 65, "velocity": 55, "duration": 239}, {"note": 67, "velocity": 65, "duration": 4318}, {"note": 68, "velocity": 96, "duration": 477}, {"note": 68, "velocity": 80, "duration": 477}, {"note": 68, "velocity": 86, "duration": 478}, {"note": 67, "velocity": 82, "duration": 478}, {"note": 65, "velocity": 89, "duration": 478}, {"note": 63, "velocity": 67, "duration": 480}, {"note": 67, "velocity": 87, "duration": 478}, {"note": 70, "velocity": 81, "duration": 958}, {"note": 75, "velocity": 108, "duration": 958}, {"note": 77, "velocity": 106, "duration": 478}, {"note": 79, "velocity": 92, "duration": 511}, {"note": 75, "velocity": 106, "duration": 478}, {"note": 72, "velocity": 98, "duration": 1918}, {"note": 79, "velocity": 111, "duration": 192}, {"note": 77, "velocity": 106, "duration": 478}, {"note": 75, "velocity": 101, "duration": 238}, {"note": 77, "velocity": 101, "duration": 189}, {"note": 77, "velocity": 93, "duration": 299}, {"note": 79, "velocity": 98, "duration": 1437}, {"note": 79, "velocity": 101, "duration": 958}, {"note": 77, "velocity": 106, "duration": 958}, {"note": 75, "velocity": 105, "duration": 477}, {"note": 75, "velocity": 99, "duration": 477}, {"note": 75, "velocity": 99, "duration": 478}, {"note": 70, "velocity": 93, "duration": 147}, {"note": 75, "velocity": 100, "duration": 478}, {"note": 77, "velocity": 101, "duration": 238}, {"note": 79, "velocity": 108, "duration": 858}, {"note": 74, "velocity": 111, "duration": 477}, {"note": 74, "velocity": 92, "duration": 477}, {"note": 74, "velocity": 96, "duration": 478}, {"note": 70, "velocity": 101, "duration": 478}, {"note": 74, "velocity": 108, "duration": 491}, {"note": 75, "velocity": 103, "duration": 247}, {"note": 77, "velocity": 108, "duration": 2158}, {"note": 79, "velocity": 114, "duration": 477}, {"note": 79, "velocity": 100, "duration": 23}, {"note": 80, "velocity": 98, "duration": 253}, {"note": 79, "velocity": 91, "duration": 247}, {"note": 75, "velocity": 87, "duration": 487}, {"note": 77, "velocity": 99, "duration": 958}, {"note": 79, "velocity": 106, "duration": 961}, {"note": 79, "velocity": 98, "duration": 241}, {"note": 77, "velocity": 99, "duration": 958}, {"note": 75, "velocity": 109, "duration": 63}, {"note": 75, "velocity": 95, "duration": 453}, {"note": 75, "velocity": 99, "duration": 159}, {"note": 70, "velocity": 96, "duration": 367}, {"note": 75, "velocity": 103, "duration": 516}, {"note": 77, "velocity": 108, "duration": 238}, {"note": 79, "velocity": 109, "duration": 916}, {"note": 74, "velocity": 101, "duration": 477}, {"note": 74, "velocity": 103, "duration": 477}, {"note": 74, "velocity": 98, "duration": 478}, {"note": 70, "velocity": 93, "duration": 285}, {"note": 74, "velocity": 101, "duration": 478}, {"note": 75, "velocity": 101, "duration": 478}, {"note": 77, "velocity": 90, "duration": 238}, {"note": 79, "velocity": 79, "duration": 718}, {"note": 75, "velocity": 97, "duration": 478}, {"note": 72, "velocity": 90, "duration": 1198}, {"note": 70, "velocity": 98, "duration": 238}, {"note": 80, "velocity": 95, "duration": 478}, {"note": 79, "velocity": 96, "duration": 478}, {"note": 75, "velocity": 96, "duration": 478}, {"note": 72, "velocity": 98, "duration": 478}, {"note": 70, "velocity": 93, "duration": 1239}, {"note": 79, "velocity": 108, "duration": 958}, {"note": 77, "velocity": 109, "duration": 958}, {"note": 75, "velocity": 108, "duration": 477}, {"note": 75, "velocity": 99, "duration": 477}, {"note": 75, "velocity": 98, "duration": 477}, {"note": 75, "velocity": 97, "duration": 478}, {"note": 74, "velocity": 100, "duration": 528}, {"note": 75, "velocity": 97, "duration": 238}, {"note": 70, "velocity": 90, "duration": 1198}, {"note": 67, "velocity": 90, "duration": 518}, {"note": 72, "velocity": 103, "duration": 4318}, {"note": 67, "velocity": 90, "duration": 272}, {"note": 70, "velocity": 97, "duration": 718}, {"note": 72, "velocity": 105, "duration": 478}, {"note": 70, "velocity": 86, "duration": 478}, {"note": 72, "velocity": 100, "duration": 523}, {"note": 74, "velocity": 99, "duration": 516}, {"note": 67, "velocity": 84, "duration": 477}, {"note": 67, "velocity": 93, "duration": 958}, {"note": 70, "velocity": 98, "duration": 1437}, {"note": 70, "velocity": 108, "duration": 477}, {"note": 70, "velocity": 105, "duration": 238}, {"note": 70, "velocity": 106, "duration": 718}, {"note": 68, "velocity": 91, "duration": 238}, {"note": 68, "velocity": 95, "duration": 958}, {"note": 58, "velocity": 83, "duration": 238}, {"note": 68, "velocity": 76, "duration": 478}, {"note": 67, "velocity": 86, "duration": 478}, {"note": 65, "velocity": 87, "duration": 478}, {"note": 63, "velocity": 66, "duration": 478}, {"note": 67, "velocity": 66, "duration": 282}, {"note": 65, "velocity": 55, "duration": 239}, {"note": 67, "velocity": 65, "duration": 4318}, {"note": 68, "velocity": 104, "duration": 478}, {"note": 68, "velocity": 96, "duration": 478}, {"note": 70, "velocity": 100, "duration": 957}, {"note": 70, "velocity": 93, "duration": 478}, {"note": 74, "velocity": 101, "duration": 478}, {"note": 75, "velocity": 105, "duration": 492}, {"note": 77, "velocity": 98, "duration": 958}, {"note": 79, "velocity": 106, "duration": 917}, {"note": 77, "velocity": 97, "duration": 495}, {"note": 75, "velocity": 97, "duration": 598}, {"note": 79, "velocity": 108, "duration": 517}, {"note": 75, "velocity": 108, "duration": 238}, {"note": 77, "velocity": 108, "duration": 1678}, {"note": 79, "velocity": 94, "duration": 478}, {"note": 80, "velocity": 96, "duration": 478}, {"note": 82, "velocity": 97, "duration": 478}, {"note": 79, "velocity": 90, "duration": 238}, {"note": 82, "velocity": 105, "duration": 3118}, {"note": 84, "velocity": 108, "duration": 958}, {"note": 82, "velocity": 108, "duration": 1919}, {"note": 82, "velocity": 101, "duration": 358}, {"note": 0, "velocity": 0, "duration": 122}, {"note": 80, "velocity": 100, "duration": 358}, {"note": 0, "velocity": 0, "duration": 122}, {"note": 79, "velocity": 90, "duration": 358}, {"note": 75, "velocity": 74, "duration": 478}, {"note": 77, "velocity": 95, "duration": 407}, {"note": 75, "velocity": 109, "duration": 46}, {"note": 75, "velocity": 95, "duration": 436}, {"note": 75, "velocity": 99, "duration": 142}, {"note": 70, "velocity": 96, "duration": 349}, {"note": 75, "velocity": 103, "duration": 478}, {"note": 77, "velocity": 108, "duration": 238}, {"note": 79, "velocity": 109, "duration": 899}, {"note": 74, "velocity": 101, "duration": 477}, {"note": 74, "velocity": 103, "duration": 477}, {"note": 74, "velocity": 98, "duration": 478}, {"note": 70, "velocity": 93, "duration": 268}, {"note": 74, "velocity": 101, "duration": 478}, {"note": 75, "velocity": 101, "duration": 238}, {"note": 77, "velocity": 90, "duration": 2158}, {"note": 79, "velocity": 97, "duration": 477}, {"note": 79, "velocity": 99, "duration": 478}, {"note": 80, "velocity": 98, "duration": 238}, {"note": 79, "velocity": 99, "duration": 123}, {"note": 75, "velocity": 97, "duration": 26}, {"note": 77, "velocity": 108, "duration": 87}, {"note": 79, "velocity": 63, "duration": 1437}, {"note": 79, "velocity": 96, "duration": 720}, {"note": 77, "velocity": 96, "duration": 958}, {"note": 75, "velocity": 105, "duration": 477}, {"note": 75, "velocity": 94, "duration": 477}, {"note": 75, "velocity": 99, "duration": 109}, {"note": 70, "velocity": 87, "duration": 164}, {"note": 75, "velocity": 103, "duration": 82}, {"note": 77, "velocity": 105, "duration": 238}, {"note": 79, "velocity": 105, "duration": 816}, {"note": 74, "velocity": 103, "duration": 477}, {"note": 74, "velocity": 97, "duration": 477}, {"note": 74, "velocity": 99, "duration": 478}, {"note": 70, "velocity": 99, "duration": 478}, {"note": 74, "velocity": 103, "duration": 500}, {"note": 75, "velocity": 99, "duration": 477}, {"note": 75, "velocity": 97, "duration": 238}, {"note": 77, "velocity": 100, "duration": 747}, {"note": 75, "velocity": 93, "duration": 496}, {"note": 72, "velocity": 91, "duration": 240}, {"note": 70, "velocity": 91, "duration": 238}, {"note": 68, "velocity": 91, "duration": 718}, {"note": 70, "velocity": 66, "duration": 238}, {"note": 80, "velocity": 87, "duration": 478}, {"note": 79, "velocity": 91, "duration": 457}, {"note": 75, "velocity": 90, "duration": 478}, {"note": 70, "velocity": 91, "duration": 2398}, {"note": 79, "velocity": 109, "duration": 967}, {"note": 77, "velocity": 100, "duration": 958}, {"note": 75, "velocity": 100, "duration": 478}, {"note": 75, "velocity": 98, "duration": 477}, {"note": 75, "velocity": 96, "duration": 477}, {"note": 75, "velocity": 96, "duration": 478}, {"note": 74, "velocity": 98, "duration": 478}, {"note": 75, "velocity": 97, "duration": 478}, {"note": 70, "velocity": 75, "duration": 958}, {"note": 67, "velocity": 96, "duration": 328}, {"note": 0, "velocity": 0, "duration": 152}, {"note": 72, "velocity": 101, "duration": 1678}, {"note": 79, "velocity": 106, "duration": 1044}, {"note": 77, "velocity": 97, "duration": 958}, {"note": 75, "velocity": 97, "duration": 478}, {"note": 75, "velocity": 97, "duration": 478}, {"note": 75, "velocity": 90, "duration": 477}, {"note": 75, "velocity": 91, "duration": 478}, {"note": 74, "velocity": 90, "duration": 508}, {"note": 75, "velocity": 66, "duration": 478}, {"note": 70, "velocity": 61, "duration": 958}, {"note": 67, "velocity": 96, "duration": 609}, {"note": 72, "velocity": 105, "duration": 2998}, {"note": 0, "velocity": 0, "duration": 13802}, {"note": 79, "velocity": 99, "duration": 958}, {"note": 77, "velocity": 106, "duration": 958}, {"note": 75, "velocity": 109, "duration": 38}, {"note": 75, "velocity": 95, "duration": 478}, {"note": 75, "velocity": 99, "duration": 223}, {"note": 70, "velocity": 96, "duration": 431}, {"note": 75, "velocity": 103, "duration": 478}, {"note": 77, "velocity": 108, "duration": 20}, {"note": 79, "velocity": 109, "duration": 958}, {"note": 74, "velocity": 101, "duration": 477}, {"note": 74, "velocity": 103, "duration": 478}, {"note": 74, "velocity": 98, "duration": 478}, {"note": 70, "velocity": 93, "duration": 349}, {"note": 74, "velocity": 101, "duration": 478}, {"note": 75, "velocity": 101, "duration": 238}, {"note": 77, "velocity": 90, "duration": 2158}, {"note": 79, "velocity": 105, "duration": 395}, {"note": 79, "velocity": 99, "duration": 478}, {"note": 80, "velocity": 97, "duration": 147}, {"note": 79, "velocity": 100, "duration": 478}, {"note": 75, "velocity": 103, "duration": 494}, {"note": 77, "velocity": 109, "duration": 718}, {"note": 79, "velocity": 100, "duration": 1677}, {"note": 79, "velocity": 109, "duration": 911}, {"note": 77, "velocity": 109, "duration": 958}, {"note": 79, "velocity": 106, "duration": 478}, {"note": 75, "velocity": 93, "duration": 477}, {"note": 75, "velocity": 89, "duration": 478}, {"note": 70, "velocity": 101, "duration": 478}, {"note": 75, "velocity": 109, "duration": 7}, {"note": 77, "velocity": 103, "duration": 478}, {"note": 79, "velocity": 98, "duration": 958}, {"note": 74, "velocity": 109, "duration": 357}, {"note": 74, "velocity": 98, "duration": 597}, {"note": 74, "velocity": 100, "duration": 478}, {"note": 70, "velocity": 100, "duration": 478}, {"note": 79, "velocity": 103, "duration": 478}, {"note": 77, "velocity": 99, "duration": 478}, {"note": 79, "velocity": 106, "duration": 478}, {"note": 82, "velocity": 97, "duration": 477}, {"note": 82, "velocity": 97, "duration": 744}, {"note": 75, "velocity": 90, "duration": 1038}, {"note": 70, "velocity": 84, "duration": 190}, {"note": 84, "velocity": 92, "duration": 478}, {"note": 82, "velocity": 93, "duration": 477}, {"note": 82, "velocity": 97, "duration": 488}, {"note": 79, "velocity": 93, "duration": 490}, {"note": 82, "velocity": 106, "duration": 1917}, {"note": 82, "velocity": 111, "duration": 2037}, {"note": 82, "velocity": 96, "duration": 451}, {"note": 80, "velocity": 86, "duration": 477}, {"note": 80, "velocity": 79, "duration": 477}, {"note": 80, "velocity": 69, "duration": 477}, {"note": 80, "velocity": 78, "duration": 478}, {"note": 79, "velocity": 77, "duration": 493}, {"note": 77, "velocity": 66, "duration": 598}, {"note": 75, "velocity": 57, "duration": 1318}, {"note": 79, "velocity": 79, "duration": 144}, {"note": 75, "velocity": 53, "duration": 358}, {"note": 77, "velocity": 63, "duration": 3044}]]