[[{"note": 64, "velocity": 79, "duration": 238}, {"note": 69, "velocity": 80, "duration": 238}, {"note": 72, "velocity": 84, "duration": 260}, {"note": 71, "velocity": 86, "duration": 238}, {"note": 67, "velocity": 66, "duration": 238}, {"note": 62, "velocity": 57, "duration": 258}, {"note": 64, "velocity": 64, "duration": 2397}, {"note": 64, "velocity": 72, "duration": 99}, {"note": 69, "velocity": 65, "duration": 238}, {"note": 72, "velocity": 77, "duration": 9}, {"note": 71, "velocity": 90, "duration": 211}, {"note": 67, "velocity": 80, "duration": 118}, {"note": 64, "velocity": 65, "duration": 43}, {"note": 71, "velocity": 86, "duration": 74}, {"note": 69, "velocity": 86, "duration": 1677}, {"note": 69, "velocity": 58, "duration": 148}, {"note": 74, "velocity": 91, "duration": 118}, {"note": 76, "velocity": 87, "duration": 238}, {"note": 69, "velocity": 72, "duration": 118}, {"note": 74, "velocity": 86, "duration": 118}, {"note": 76, "velocity": 90, "duration": 238}, {"note": 69, "velocity": 79, "duration": 134}, {"note": 74, "velocity": 93, "duration": 118}, {"note": 76, "velocity": 92, "duration": 238}, {"note": 69, "velocity": 64, "duration": 133}, {"note": 74, "velocity": 90, "duration": 478}, {"note": 72, "velocity": 101, "duration": 118}, {"note": 74, "velocity": 93, "duration": 238}, {"note": 64, "velocity": 82, "duration": 118}, {"note": 72, "velocity": 89, "duration": 184}, {"note": 74, "velocity": 92, "duration": 238}, {"note": 64, "velocity": 74, "duration": 118}, {"note": 72, "velocity": 90, "duration": 188}, {"note": 74, "velocity": 93, "duration": 238}, {"note": 64, "velocity": 81, "duration": 238}, {"note": 72, "velocity": 96, "duration": 598}, {"note": 64, "velocity": 82, "duration": 238}, {"note": 69, "velocity": 84, "duration": 238}, {"note": 72, "velocity": 90, "duration": 238}, {"note": 71, "velocity": 94, "duration": 238}, {"note": 67, "velocity": 79, "duration": 238}, {"note": 64, "velocity": 79, "duration": 244}, {"note": 71, "velocity": 93, "duration": 358}, {"note": 69, "velocity": 93, "duration": 2038}, {"note": 64, "velocity": 77, "duration": 244}, {"note": 69, "velocity": 86, "duration": 238}, {"note": 72, "velocity": 80, "duration": 255}, {"note": 71, "velocity": 91, "duration": 249}, {"note": 67, "velocity": 69, "duration": 238}, {"note": 62, "velocity": 62, "duration": 238}, {"note": 64, "velocity": 77, "duration": 2397}, {"note": 64, "velocity": 81, "duration": 238}, {"note": 69, "velocity": 80, "duration": 238}, {"note": 72, "velocity": 87, "duration": 241}, {"note": 71, "velocity": 91, "duration": 246}, {"note": 67, "velocity": 82, "duration": 238}, {"note": 64, "velocity": 65, "duration": 256}, {"note": 71, "velocity": 89, "duration": 358}, {"note": 69, "velocity": 84, "duration": 1677}, {"note": 69, "velocity": 75, "duration": 133}, {"note": 74, "velocity": 90, "duration": 118}, {"note": 76, "velocity": 91, "duration": 238}, {"note": 69, "velocity": 66, "duration": 124}, {"note": 74, "velocity": 90, "duration": 118}, {"note": 76, "velocity": 90, "duration": 238}, {"note": 69, "velocity": 77, "duration": 144}, {"note": 74, "velocity": 89, "duration": 118}, {"note": 76, "velocity": 97, "duration": 238}, {"note": 69, "velocity": 77, "duration": 118}, {"note": 74, "velocity": 86, "duration": 478}, {"note": 72, "velocity": 98, "duration": 118}, {"note": 74, "velocity": 91, "duration": 254}, {"note": 64, "velocity": 87, "duration": 118}, {"note": 72, "velocity": 90, "duration": 118}, {"note": 74, "velocity": 98, "duration": 238}, {"note": 64, "velocity": 85, "duration": 118}, {"note": 72, "velocity": 93, "duration": 118}, {"note": 74, "velocity": 98, "duration": 238}, {"note": 64, "velocity": 90, "duration": 238}, {"note": 72, "velocity": 99, "duration": 598}, {"note": 65, "velocity": 77, "duration": 238}, {"note": 69, "velocity": 68, "duration": 238}, {"note": 76, "velocity": 83, "duration": 238}, {"note": 74, "velocity": 90, "duration": 238}, {"note": 71, "velocity": 84, "duration": 238}, {"note": 67, "velocity": 81, "duration": 249}, {"note": 71, "velocity": 98, "duration": 478}, {"note": 69, "velocity": 94, "duration": 2997}, {"note": 69, "velocity": 82, "duration": 118}, {"note": 81, "velocity": 90, "duration": 238}, {"note": 79, "velocity": 99, "duration": 238}, {"note": 76, "velocity": 93, "duration": 145}, {"note": 75, "velocity": 59, "duration": 94}, {"note": 76, "velocity": 65, "duration": 149}, {"note": 75, "velocity": 52, "duration": 37}, {"note": 76, "velocity": 73, "duration": 116}, {"note": 75, "velocity": 89, "duration": 118}, {"note": 76, "velocity": 84, "duration": 238}, {"note": 75, "velocity": 54, "duration": 118}, {"note": 76, "velocity": 66, "duration": 237}, {"note": 76, "velocity": 71, "duration": 358}, {"note": 72, "velocity": 90, "duration": 118}, {"note": 74, "velocity": 79, "duration": 180}, {"note": 72, "velocity": 66, "duration": 118}, {"note": 74, "velocity": 84, "duration": 144}, {"note": 72, "velocity": 66, "duration": 118}, {"note": 74, "velocity": 87, "duration": 238}, {"note": 76, "velocity": 98, "duration": 118}, {"note": 74, "velocity": 94, "duration": 238}, {"note": 72, "velocity": 91, "duration": 118}, {"note": 69, "velocity": 91, "duration": 237}, {"note": 69, "velocity": 94, "duration": 358}, {"note": 72, "velocity": 90, "duration": 118}, {"note": 74, "velocity": 98, "duration": 163}, {"note": 72, "velocity": 89, "duration": 118}, {"note": 74, "velocity": 94, "duration": 237}, {"note": 74, "velocity": 105, "duration": 358}, {"note": 76, "velocity": 91, "duration": 118}, {"note": 74, "velocity": 97, "duration": 149}, {"note": 72, "velocity": 90, "duration": 118}, {"note": 69, "velocity": 94, "duration": 238}, {"note": 76, "velocity": 94, "duration": 357}, {"note": 76, "velocity": 101, "duration": 118}, {"note": 74, "velocity": 98, "duration": 247}, {"note": 76, "velocity": 77, "duration": 147}, {"note": 74, "velocity": 90, "duration": 238}, {"note": 69, "velocity": 89, "duration": 251}, {"note": 71, "velocity": 96, "duration": 598}, {"note": 81, "velocity": 109, "duration": 288}, {"note": 79, "velocity": 101, "duration": 238}, {"note": 76, "velocity": 93, "duration": 128}, {"note": 75, "velocity": 59, "duration": 101}, {"note": 76, "velocity": 65, "duration": 149}, {"note": 75, "velocity": 52, "duration": 43}, {"note": 76, "velocity": 73, "duration": 148}, {"note": 75, "velocity": 89, "duration": 118}, {"note": 76, "velocity": 84, "duration": 238}, {"note": 75, "velocity": 54, "duration": 118}, {"note": 76, "velocity": 66, "duration": 237}, {"note": 76, "velocity": 71, "duration": 357}, {"note": 76, "velocity": 54, "duration": 118}, {"note": 81, "velocity": 87, "duration": 137}, {"note": 80, "velocity": 54, "duration": 118}, {"note": 81, "velocity": 66, "duration": 176}, {"note": 80, "velocity": 59, "duration": 118}, {"note": 81, "velocity": 66, "duration": 238}, {"note": 76, "velocity": 58, "duration": 161}, {"note": 74, "velocity": 74, "duration": 238}, {"note": 72, "velocity": 65, "duration": 130}, {"note": 69, "velocity": 64, "duration": 237}, {"note": 69, "velocity": 93, "duration": 358}, {"note": 72, "velocity": 91, "duration": 118}, {"note": 74, "velocity": 89, "duration": 160}, {"note": 72, "velocity": 66, "duration": 118}, {"note": 74, "velocity": 87, "duration": 237}, {"note": 74, "velocity": 93, "duration": 358}, {"note": 76, "velocity": 89, "duration": 118}, {"note": 74, "velocity": 79, "duration": 160}, {"note": 72, "velocity": 81, "duration": 118}, {"note": 69, "velocity": 80, "duration": 238}, {"note": 76, "velocity": 87, "duration": 358}, {"note": 74, "velocity": 98, "duration": 118}, {"note": 76, "velocity": 97, "duration": 238}, {"note": 74, "velocity": 98, "duration": 238}, {"note": 72, "velocity": 98, "duration": 52}, {"note": 71, "velocity": 91, "duration": 478}, {"note": 69, "velocity": 96, "duration": 3838}, {"note": 64, "velocity": 79, "duration": 238}, {"note": 69, "velocity": 80, "duration": 238}, {"note": 72, "velocity": 84, "duration": 260}, {"note": 71, "velocity": 86, "duration": 238}, {"note": 67, "velocity": 66, "duration": 238}, {"note": 62, "velocity": 57, "duration": 258}, {"note": 64, "velocity": 64, "duration": 2397}, {"note": 64, "velocity": 72, "duration": 88}, {"note": 69, "velocity": 65, "duration": 238}, {"note": 72, "velocity": 77, "duration": 8}, {"note": 71, "velocity": 90, "duration": 200}, {"note": 67, "velocity": 80, "duration": 107}, {"note": 64, "velocity": 65, "duration": 33}, {"note": 71, "velocity": 86, "duration": 63}, {"note": 69, "velocity": 86, "duration": 1677}, {"note": 69, "velocity": 58, "duration": 148}, {"note": 74, "velocity": 91, "duration": 118}, {"note": 76, "velocity": 87, "duration": 238}, {"note": 69, "velocity": 72, "duration": 118}, {"note": 74, "velocity": 86, "duration": 118}, {"note": 76, "velocity": 90, "duration": 238}, {"note": 69, "velocity": 79, "duration": 134}, {"note": 74, "velocity": 93, "duration": 118}, {"note": 76, "velocity": 92, "duration": 238}, {"note": 69, "velocity": 64, "duration": 133}, {"note": 74, "velocity": 90, "duration": 478}, {"note": 72, "velocity": 101, "duration": 118}, {"note": 74, "velocity": 93, "duration": 238}, {"note": 64, "velocity": 82, "duration": 118}, {"note": 72, "velocity": 89, "duration": 184}, {"note": 74, "velocity": 92, "duration": 238}, {"note": 64, "velocity": 74, "duration": 118}, {"note": 72, "velocity": 90, "duration": 188}, {"note": 74, "velocity": 93, "duration": 238}, {"note": 64, "velocity": 81, "duration": 238}, {"note": 72, "velocity": 96, "duration": 598}, {"note": 64, "velocity": 82, "duration": 238}, {"note": 69, "velocity": 84, "duration": 238}, {"note": 76, "velocity": 90, "duration": 238}, {"note": 74, "velocity": 94, "duration": 238}, {"note": 71, "velocity": 79, "duration": 238}, {"note": 67, "velocity": 79, "duration": 244}, {"note": 71, "velocity": 93, "duration": 358}, {"note": 69, "velocity": 93, "duration": 3117}, {"note": 69, "velocity": 82, "duration": 118}, {"note": 81, "velocity": 90, "duration": 238}, {"note": 79, "velocity": 99, "duration": 238}, {"note": 76, "velocity": 93, "duration": 126}, {"note": 75, "velocity": 59, "duration": 99}, {"note": 76, "velocity": 65, "duration": 149}, {"note": 75, "velocity": 52, "duration": 41}, {"note": 76, "velocity": 73, "duration": 146}, {"note": 75, "velocity": 89, "duration": 118}, {"note": 76, "velocity": 84, "duration": 238}, {"note": 75, "velocity": 54, "duration": 118}, {"note": 76, "velocity": 66, "duration": 237}, {"note": 76, "velocity": 71, "duration": 358}, {"note": 72, "velocity": 90, "duration": 118}, {"note": 74, "velocity": 79, "duration": 180}, {"note": 72, "velocity": 66, "duration": 118}, {"note": 74, "velocity": 84, "duration": 144}, {"note": 72, "velocity": 66, "duration": 118}, {"note": 74, "velocity": 87, "duration": 238}, {"note": 76, "velocity": 98, "duration": 118}, {"note": 74, "velocity": 94, "duration": 238}, {"note": 72, "velocity": 91, "duration": 118}, {"note": 69, "velocity": 91, "duration": 237}, {"note": 69, "velocity": 94, "duration": 358}, {"note": 72, "velocity": 90, "duration": 118}, {"note": 74, "velocity": 98, "duration": 163}, {"note": 72, "velocity": 89, "duration": 118}, {"note": 74, "velocity": 94, "duration": 237}, {"note": 74, "velocity": 105, "duration": 358}, {"note": 76, "velocity": 91, "duration": 118}, {"note": 74, "velocity": 97, "duration": 149}, {"note": 72, "velocity": 90, "duration": 118}, {"note": 69, "velocity": 94, "duration": 238}, {"note": 76, "velocity": 94, "duration": 357}, {"note": 76, "velocity": 101, "duration": 118}, {"note": 74, "velocity": 98, "duration": 247}, {"note": 76, "velocity": 77, "duration": 147}, {"note": 74, "velocity": 90, "duration": 238}, {"note": 69, "velocity": 89, "duration": 251}, {"note": 71, "velocity": 96, "duration": 598}, {"note": 81, "velocity": 109, "duration": 288}, {"note": 79, "velocity": 101, "duration": 238}, {"note": 76, "velocity": 93, "duration": 38}, {"note": 75, "velocity": 59, "duration": 118}, {"note": 76, "velocity": 65, "duration": 149}, {"note": 75, "velocity": 52, "duration": 73}, {"note": 76, "velocity": 73, "duration": 178}, {"note": 75, "velocity": 89, "duration": 118}, {"note": 76, "velocity": 84, "duration": 238}, {"note": 75, "velocity": 54, "duration": 118}, {"note": 76, "velocity": 66, "duration": 237}, {"note": 76, "velocity": 71, "duration": 357}, {"note": 76, "velocity": 54, "duration": 118}, {"note": 81, "velocity": 87, "duration": 137}, {"note": 80, "velocity": 54, "duration": 118}, {"note": 81, "velocity": 66, "duration": 118}, {"note": 80, "velocity": 59, "duration": 118}, {"note": 81, "velocity": 66, "duration": 238}, {"note": 76, "velocity": 58, "duration": 161}, {"note": 74, "velocity": 74, "duration": 238}, {"note": 72, "velocity": 65, "duration": 130}, {"note": 69, "velocity": 64, "duration": 237}, {"note": 69, "velocity": 93, "duration": 358}, {"note": 72, "velocity": 91, "duration": 118}, {"note": 74, "velocity": 89, "duration": 160}, {"note": 72, "velocity": 66, "duration": 118}, {"note": 74, "velocity": 87, "duration": 237}, {"note": 74, "velocity": 93, "duration": 358}, {"note": 76, "velocity": 89, "duration": 118}, {"note": 74, "velocity": 79, "duration": 160}, {"note": 72, "velocity": 81, "duration": 118}, {"note": 69, "velocity": 80, "duration": 238}, {"note": 76, "velocity": 87, "duration": 358}, {"note": 74, "velocity": 98, "duration": 118}, {"note": 76, "velocity": 97, "duration": 238}, {"note": 74, "velocity": 98, "duration": 238}, {"note": 72, "velocity": 98, "duration": 82}, {"note": 71, "velocity": 91, "duration": 478}, {"note": 69, "velocity": 96, "duration": 1558}, {"note": 67, "velocity": 96, "duration": 118}, {"note": 64, "velocity": 96, "duration": 9838}, {"note": 76, "velocity": 64, "duration": 239}, {"note": 74, "velocity": 77, "duration": 258}, {"note": 76, "velocity": 89, "duration": 238}, {"note": 74, "velocity": 65, "duration": 257}, {"note": 76, "velocity": 84, "duration": 86}, {"note": 74, "velocity": 79, "duration": 238}, {"note": 72, "velocity": 77, "duration": 121}, {"note": 69, "velocity": 72, "duration": 124}, {"note": 67, "velocity": 62, "duration": 118}, {"note": 69, "velocity": 79, "duration": 238}, {"note": 76, "velocity": 86, "duration": 259}, {"note": 74, "velocity": 93, "duration": 238}, {"note": 76, "velocity": 91, "duration": 238}, {"note": 74, "velocity": 80, "duration": 238}, {"note": 76, "velocity": 69, "duration": 118}, {"note": 74, "velocity": 77, "duration": 238}, {"note": 72, "velocity": 66, "duration": 118}, {"note": 69, "velocity": 65, "duration": 154}, {"note": 67, "velocity": 63, "duration": 118}, {"note": 69, "velocity": 65, "duration": 238}, {"note": 76, "velocity": 64, "duration": 239}, {"note": 74, "velocity": 77, "duration": 258}, {"note": 76, "velocity": 89, "duration": 238}, {"note": 74, "velocity": 65, "duration": 257}, {"note": 76, "velocity": 84, "duration": 124}, {"note": 74, "velocity": 79, "duration": 207}, {"note": 72, "velocity": 77, "duration": 121}, {"note": 69, "velocity": 72, "duration": 124}, {"note": 67, "velocity": 62, "duration": 118}, {"note": 69, "velocity": 79, "duration": 238}, {"note": 76, "velocity": 86, "duration": 259}, {"note": 74, "velocity": 93, "duration": 238}, {"note": 76, "velocity": 91, "duration": 238}, {"note": 74, "velocity": 80, "duration": 238}, {"note": 76, "velocity": 69, "duration": 118}, {"note": 74, "velocity": 77, "duration": 238}, {"note": 72, "velocity": 66, "duration": 118}, {"note": 69, "velocity": 65, "duration": 154}, {"note": 67, "velocity": 63, "duration": 118}, {"note": 69, "velocity": 65, "duration": 238}, {"note": 76, "velocity": 85, "duration": 238}, {"note": 74, "velocity": 96, "duration": 238}, {"note": 76, "velocity": 97, "duration": 238}, {"note": 74, "velocity": 83, "duration": 246}, {"note": 76, "velocity": 90, "duration": 123}, {"note": 74, "velocity": 85, "duration": 238}, {"note": 72, "velocity": 64, "duration": 133}, {"note": 69, "velocity": 79, "duration": 238}, {"note": 76, "velocity": 116, "duration": 237}, {"note": 76, "velocity": 98, "duration": 237}, {"note": 76, "velocity": 101, "duration": 237}, {"note": 76, "velocity": 109, "duration": 237}, {"note": 76, "velocity": 109, "duration": 958}, {"note": 77, "velocity": 98, "duration": 237}, {"note": 77, "velocity": 97, "duration": 237}, {"note": 77, "velocity": 108, "duration": 237}, {"note": 77, "velocity": 103, "duration": 237}, {"note": 77, "velocity": 108, "duration": 397}, {"note": 70, "velocity": 82, "duration": 118}, {"note": 82, "velocity": 90, "duration": 238}, {"note": 80, "velocity": 99, "duration": 238}, {"note": 77, "velocity": 93, "duration": 145}, {"note": 76, "velocity": 59, "duration": 67}, {"note": 77, "velocity": 65, "duration": 149}, {"note": 76, "velocity": 52, "duration": 118}, {"note": 77, "velocity": 73, "duration": 89}, {"note": 76, "velocity": 89, "duration": 118}, {"note": 77, "velocity": 84, "duration": 238}, {"note": 76, "velocity": 54, "duration": 118}, {"note": 77, "velocity": 66, "duration": 237}, {"note": 77, "velocity": 71, "duration": 358}, {"note": 77, "velocity": 90, "duration": 118}, {"note": 82, "velocity": 79, "duration": 118}, {"note": 81, "velocity": 66, "duration": 118}, {"note": 82, "velocity": 84, "duration": 118}, {"note": 81, "velocity": 66, "duration": 118}, {"note": 82, "velocity": 87, "duration": 238}, {"note": 77, "velocity": 98, "duration": 118}, {"note": 75, "velocity": 94, "duration": 238}, {"note": 73, "velocity": 91, "duration": 118}, {"note": 70, "velocity": 91, "duration": 237}, {"note": 70, "velocity": 94, "duration": 358}, {"note": 73, "velocity": 90, "duration": 118}, {"note": 75, "velocity": 98, "duration": 163}, {"note": 73, "velocity": 89, "duration": 118}, {"note": 75, "velocity": 94, "duration": 237}, {"note": 75, "velocity": 105, "duration": 358}, {"note": 77, "velocity": 91, "duration": 118}, {"note": 75, "velocity": 97, "duration": 149}, {"note": 73, "velocity": 90, "duration": 118}, {"note": 70, "velocity": 94, "duration": 238}, {"note": 77, "velocity": 94, "duration": 358}, {"note": 75, "velocity": 97, "duration": 121}, {"note": 77, "velocity": 99, "duration": 478}, {"note": 75, "velocity": 110, "duration": 478}, {"note": 73, "velocity": 105, "duration": 478}, {"note": 72, "velocity": 108, "duration": 478}, {"note": 70, "velocity": 107, "duration": 1942}]]