[[{"note": 70, "velocity": 84, "duration": 476}, {"note": 71, "velocity": 90, "duration": 236}, {"note": 73, "velocity": 91, "duration": 1916}, {"note": 78, "velocity": 80, "duration": 236}, {"note": 77, "velocity": 82, "duration": 476}, {"note": 70, "velocity": 84, "duration": 236}, {"note": 75, "velocity": 72, "duration": 716}, {"note": 73, "velocity": 83, "duration": 716}, {"note": 70, "velocity": 80, "duration": 956}, {"note": 68, "velocity": 73, "duration": 236}, {"note": 70, "velocity": 77, "duration": 236}, {"note": 71, "velocity": 83, "duration": 1916}, {"note": 71, "velocity": 79, "duration": 236}, {"note": 70, "velocity": 80, "duration": 476}, {"note": 66, "velocity": 72, "duration": 236}, {"note": 70, "velocity": 78, "duration": 1196}, {"note": 68, "velocity": 73, "duration": 236}, {"note": 68, "velocity": 78, "duration": 956}, {"note": 70, "velocity": 83, "duration": 236}, {"note": 71, "velocity": 82, "duration": 236}, {"note": 73, "velocity": 83, "duration": 1916}, {"note": 78, "velocity": 83, "duration": 236}, {"note": 77, "velocity": 78, "duration": 476}, {"note": 70, "velocity": 73, "duration": 236}, {"note": 73, "velocity": 82, "duration": 956}, {"note": 77, "velocity": 78, "duration": 476}, {"note": 75, "velocity": 83, "duration": 1076}, {"note": 75, "velocity": 69, "duration": 116}, {"note": 77, "velocity": 79, "duration": 236}, {"note": 78, "velocity": 82, "duration": 1196}, {"note": 70, "velocity": 82, "duration": 236}, {"note": 71, "velocity": 90, "duration": 476}, {"note": 78, "velocity": 82, "duration": 236}, {"note": 77, "velocity": 80, "duration": 716}, {"note": 75, "velocity": 90, "duration": 476}, {"note": 73, "velocity": 90, "duration": 1676}, {"note": 70, "velocity": 84, "duration": 476}, {"note": 71, "velocity": 73, "duration": 236}, {"note": 73, "velocity": 90, "duration": 1916}, {"note": 78, "velocity": 86, "duration": 236}, {"note": 77, "velocity": 78, "duration": 356}, {"note": 70, "velocity": 63, "duration": 356}, {"note": 75, "velocity": 79, "duration": 716}, {"note": 73, "velocity": 83, "duration": 716}, {"note": 70, "velocity": 78, "duration": 956}, {"note": 68, "velocity": 84, "duration": 236}, {"note": 70, "velocity": 82, "duration": 236}, {"note": 71, "velocity": 90, "duration": 1916}, {"note": 71, "velocity": 79, "duration": 236}, {"note": 70, "velocity": 82, "duration": 476}, {"note": 66, "velocity": 83, "duration": 236}, {"note": 70, "velocity": 84, "duration": 1196}, {"note": 71, "velocity": 81, "duration": 236}, {"note": 68, "velocity": 84, "duration": 956}, {"note": 70, "velocity": 82, "duration": 236}, {"note": 71, "velocity": 84, "duration": 236}, {"note": 73, "velocity": 86, "duration": 1916}, {"note": 78, "velocity": 93, "duration": 236}, {"note": 77, "velocity": 84, "duration": 476}, {"note": 70, "velocity": 86, "duration": 236}, {"note": 73, "velocity": 84, "duration": 956}, {"note": 77, "velocity": 98, "duration": 476}, {"note": 75, "velocity": 95, "duration": 956}, {"note": 75, "velocity": 90, "duration": 236}, {"note": 77, "velocity": 84, "duration": 236}, {"note": 78, "velocity": 90, "duration": 1196}, {"note": 70, "velocity": 83, "duration": 236}, {"note": 71, "velocity": 98, "duration": 476}, {"note": 78, "velocity": 90, "duration": 476}, {"note": 75, "velocity": 76, "duration": 236}, {"note": 77, "velocity": 80, "duration": 236}, {"note": 78, "velocity": 86, "duration": 5036}, {"note": 73, "velocity": 94, "duration": 236}, {"note": 78, "velocity": 84, "duration": 236}, {"note": 80, "velocity": 82, "duration": 236}, {"note": 82, "velocity": 93, "duration": 476}, {"note": 75, "velocity": 94, "duration": 476}, {"note": 82, "velocity": 94, "duration": 236}, {"note": 75, "velocity": 79, "duration": 236}, {"note": 80, "velocity": 91, "duration": 716}, {"note": 77, "velocity": 84, "duration": 236}, {"note": 78, "velocity": 82, "duration": 236}, {"note": 80, "velocity": 82, "duration": 236}, {"note": 80, "velocity": 84, "duration": 716}, {"note": 73, "velocity": 101, "duration": 476}, {"note": 73, "velocity": 98, "duration": 236}, {"note": 80, "velocity": 84, "duration": 476}, {"note": 78, "velocity": 84, "duration": 476}, {"note": 77, "velocity": 84, "duration": 236}, {"note": 78, "velocity": 80, "duration": 236}, {"note": 71, "velocity": 90, "duration": 716}, {"note": 78, "velocity": 95, "duration": 236}, {"note": 77, "velocity": 90, "duration": 236}, {"note": 78, "velocity": 86, "duration": 236}, {"note": 80, "velocity": 83, "duration": 716}, {"note": 73, "velocity": 91, "duration": 236}, {"note": 78, "velocity": 84, "duration": 236}, {"note": 80, "velocity": 76, "duration": 236}, {"note": 83, "velocity": 91, "duration": 236}, {"note": 82, "velocity": 82, "duration": 236}, {"note": 80, "velocity": 79, "duration": 236}, {"note": 83, "velocity": 94, "duration": 236}, {"note": 82, "velocity": 83, "duration": 236}, {"note": 80, "velocity": 82, "duration": 236}, {"note": 82, "velocity": 90, "duration": 716}, {"note": 82, "velocity": 95, "duration": 236}, {"note": 80, "velocity": 80, "duration": 236}, {"note": 78, "velocity": 83, "duration": 236}, {"note": 82, "velocity": 91, "duration": 476}, {"note": 87, "velocity": 75, "duration": 476}, {"note": 82, "velocity": 84, "duration": 236}, {"note": 78, "velocity": 86, "duration": 236}, {"note": 80, "velocity": 81, "duration": 716}, {"note": 77, "velocity": 101, "duration": 236}, {"note": 78, "velocity": 86, "duration": 236}, {"note": 80, "velocity": 83, "duration": 236}, {"note": 80, "velocity": 84, "duration": 476}, {"note": 85, "velocity": 91, "duration": 236}, {"note": 83, "velocity": 90, "duration": 236}, {"note": 82, "velocity": 90, "duration": 236}, {"note": 80, "velocity": 81, "duration": 236}, {"note": 78, "velocity": 98, "duration": 716}, {"note": 75, "velocity": 86, "duration": 236}, {"note": 77, "velocity": 81, "duration": 236}, {"note": 78, "velocity": 80, "duration": 236}, {"note": 71, "velocity": 83, "duration": 716}, {"note": 77, "velocity": 90, "duration": 236}, {"note": 78, "velocity": 83, "duration": 236}, {"note": 80, "velocity": 79, "duration": 236}, {"note": 82, "velocity": 79, "duration": 236}, {"note": 80, "velocity": 71, "duration": 236}, {"note": 78, "velocity": 79, "duration": 236}, {"note": 77, "velocity": 80, "duration": 356}, {"note": 78, "velocity": 75, "duration": 236}, {"note": 80, "velocity": 73, "duration": 356}, {"note": 78, "velocity": 78, "duration": 1196}, {"note": 0, "velocity": 0, "duration": 12244}, {"note": 70, "velocity": 84, "duration": 476}, {"note": 71, "velocity": 73, "duration": 236}, {"note": 73, "velocity": 90, "duration": 1916}, {"note": 78, "velocity": 86, "duration": 236}, {"note": 77, "velocity": 78, "duration": 356}, {"note": 70, "velocity": 63, "duration": 356}, {"note": 75, "velocity": 79, "duration": 716}, {"note": 73, "velocity": 83, "duration": 716}, {"note": 70, "velocity": 78, "duration": 956}, {"note": 68, "velocity": 84, "duration": 236}, {"note": 70, "velocity": 82, "duration": 236}, {"note": 71, "velocity": 90, "duration": 1916}, {"note": 71, "velocity": 79, "duration": 236}, {"note": 70, "velocity": 82, "duration": 476}, {"note": 66, "velocity": 83, "duration": 236}, {"note": 70, "velocity": 84, "duration": 1196}, {"note": 71, "velocity": 81, "duration": 236}, {"note": 68, "velocity": 84, "duration": 956}, {"note": 70, "velocity": 82, "duration": 236}, {"note": 71, "velocity": 84, "duration": 236}, {"note": 73, "velocity": 86, "duration": 1916}, {"note": 78, "velocity": 93, "duration": 236}, {"note": 77, "velocity": 84, "duration": 476}, {"note": 70, "velocity": 86, "duration": 236}, {"note": 73, "velocity": 84, "duration": 956}, {"note": 77, "velocity": 98, "duration": 476}, {"note": 78, "velocity": 95, "duration": 956}, {"note": 75, "velocity": 90, "duration": 236}, {"note": 77, "velocity": 84, "duration": 236}, {"note": 78, "velocity": 90, "duration": 716}, {"note": 82, "velocity": 90, "duration": 716}, {"note": 78, "velocity": 90, "duration": 476}, {"note": 75, "velocity": 90, "duration": 716}, {"note": 77, "velocity": 80, "duration": 236}, {"note": 78, "velocity": 86, "duration": 5036}, {"note": 0, "velocity": 0, "duration": 5764}, {"note": 73, "velocity": 94, "duration": 236}, {"note": 78, "velocity": 84, "duration": 236}, {"note": 80, "velocity": 82, "duration": 236}, {"note": 82, "velocity": 93, "duration": 476}, {"note": 75, "velocity": 94, "duration": 476}, {"note": 82, "velocity": 94, "duration": 236}, {"note": 78, "velocity": 79, "duration": 236}, {"note": 80, "velocity": 91, "duration": 716}, {"note": 77, "velocity": 84, "duration": 236}, {"note": 78, "velocity": 82, "duration": 236}, {"note": 80, "velocity": 82, "duration": 236}, {"note": 80, "velocity": 84, "duration": 716}, {"note": 73, "velocity": 101, "duration": 476}, {"note": 0, "velocity": 0, "duration": 244}, {"note": 73, "velocity": 98, "duration": 236}, {"note": 80, "velocity": 84, "duration": 476}, {"note": 78, "velocity": 84, "duration": 476}, {"note": 77, "velocity": 84, "duration": 236}, {"note": 78, "velocity": 80, "duration": 236}, {"note": 71, "velocity": 90, "duration": 716}, {"note": 78, "velocity": 95, "duration": 236}, {"note": 77, "velocity": 90, "duration": 236}, {"note": 78, "velocity": 86, "duration": 236}, {"note": 80, "velocity": 83, "duration": 716}, {"note": 73, "velocity": 91, "duration": 236}, {"note": 78, "velocity": 84, "duration": 236}, {"note": 80, "velocity": 76, "duration": 236}, {"note": 83, "velocity": 91, "duration": 236}, {"note": 82, "velocity": 82, "duration": 236}, {"note": 80, "velocity": 79, "duration": 236}, {"note": 83, "velocity": 94, "duration": 236}, {"note": 82, "velocity": 83, "duration": 236}, {"note": 80, "velocity": 82, "duration": 236}, {"note": 82, "velocity": 90, "duration": 716}, {"note": 82, "velocity": 95, "duration": 236}, {"note": 80, "velocity": 80, "duration": 236}, {"note": 78, "velocity": 83, "duration": 236}, {"note": 82, "velocity": 91, "duration": 476}, {"note": 87, "velocity": 75, "duration": 476}, {"note": 82, "velocity": 84, "duration": 236}, {"note": 78, "velocity": 86, "duration": 236}, {"note": 80, "velocity": 81, "duration": 716}, {"note": 77, "velocity": 101, "duration": 236}, {"note": 78, "velocity": 86, "duration": 236}, {"note": 80, "velocity": 83, "duration": 236}, {"note": 80, "velocity": 84, "duration": 476}, {"note": 85, "velocity": 91, "duration": 236}, {"note": 83, "velocity": 90, "duration": 236}, {"note": 82, "velocity": 90, "duration": 236}, {"note": 80, "velocity": 81, "duration": 236}, {"note": 78, "velocity": 98, "duration": 716}, {"note": 75, "velocity": 86, "duration": 236}, {"note": 77, "velocity": 81, "duration": 236}, {"note": 78, "velocity": 80, "duration": 236}, {"note": 71, "velocity": 83, "duration": 716}, {"note": 77, "velocity": 90, "duration": 236}, {"note": 78, "velocity": 83, "duration": 236}, {"note": 80, "velocity": 79, "duration": 236}, {"note": 82, "velocity": 79, "duration": 236}, {"note": 80, "velocity": 71, "duration": 236}, {"note": 78, "velocity": 79, "duration": 236}, {"note": 77, "velocity": 80, "duration": 356}, {"note": 78, "velocity": 75, "duration": 236}, {"note": 80, "velocity": 73, "duration": 356}, {"note": 78, "velocity": 78, "duration": 1196}, {"note": 0, "velocity": 0, "duration": 10084}, {"note": 83, "velocity": 103, "duration": 434}, {"note": 0, "velocity": 0, "duration": 166}, {"note": 82, "velocity": 78, "duration": 171}, {"note": 83, "velocity": 94, "duration": 444}, {"note": 0, "velocity": 0, "duration": 156}, {"note": 82, "velocity": 76, "duration": 165}, {"note": 83, "velocity": 83, "duration": 454}, {"note": 0, "velocity": 0, "duration": 146}, {"note": 82, "velocity": 82, "duration": 197}, {"note": 83, "velocity": 82, "duration": 282}, {"note": 85, "velocity": 83, "duration": 208}, {"note": 80, "velocity": 84, "duration": 161}, {"note": 0, "velocity": 0, "duration": 79}, {"note": 82, "velocity": 90, "duration": 574}, {"note": 0, "velocity": 0, "duration": 359}, {"note": 85, "velocity": 94, "duration": 248}, {"note": 89, "velocity": 99, "duration": 301}, {"note": 87, "velocity": 100, "duration": 803}, {"note": 82, "velocity": 100, "duration": 610}, {"note": 0, "velocity": 0, "duration": 5159}, {"note": 74, "velocity": 94, "duration": 236}, {"note": 79, "velocity": 84, "duration": 236}, {"note": 81, "velocity": 82, "duration": 236}, {"note": 0, "velocity": 0, "duration": 724}, {"note": 83, "velocity": 93, "duration": 476}, {"note": 76, "velocity": 94, "duration": 476}, {"note": 0, "velocity": 0, "duration": 244}, {"note": 83, "velocity": 94, "duration": 236}, {"note": 79, "velocity": 79, "duration": 236}, {"note": 81, "velocity": 91, "duration": 716}, {"note": 78, "velocity": 84, "duration": 236}, {"note": 79, "velocity": 82, "duration": 236}, {"note": 81, "velocity": 82, "duration": 236}, {"note": 81, "velocity": 84, "duration": 716}, {"note": 74, "velocity": 101, "duration": 476}, {"note": 0, "velocity": 0, "duration": 244}, {"note": 74, "velocity": 98, "duration": 236}, {"note": 84, "velocity": 84, "duration": 476}, {"note": 83, "velocity": 84, "duration": 476}, {"note": 78, "velocity": 84, "duration": 236}, {"note": 79, "velocity": 80, "duration": 236}, {"note": 72, "velocity": 90, "duration": 716}, {"note": 79, "velocity": 95, "duration": 236}, {"note": 78, "velocity": 90, "duration": 236}, {"note": 79, "velocity": 86, "duration": 236}, {"note": 81, "velocity": 83, "duration": 716}, {"note": 74, "velocity": 91, "duration": 236}, {"note": 79, "velocity": 84, "duration": 236}, {"note": 81, "velocity": 76, "duration": 236}, {"note": 84, "velocity": 91, "duration": 236}, {"note": 83, "velocity": 82, "duration": 236}, {"note": 82, "velocity": 79, "duration": 236}, {"note": 83, "velocity": 94, "duration": 236}, {"note": 86, "velocity": 83, "duration": 236}, {"note": 81, "velocity": 82, "duration": 236}, {"note": 83, "velocity": 90, "duration": 716}, {"note": 83, "velocity": 95, "duration": 236}, {"note": 81, "velocity": 80, "duration": 236}, {"note": 79, "velocity": 83, "duration": 236}, {"note": 83, "velocity": 91, "duration": 476}, {"note": 88, "velocity": 75, "duration": 476}, {"note": 83, "velocity": 84, "duration": 236}, {"note": 79, "velocity": 86, "duration": 236}, {"note": 81, "velocity": 81, "duration": 716}, {"note": 81, "velocity": 101, "duration": 236}, {"note": 83, "velocity": 86, "duration": 236}, {"note": 84, "velocity": 83, "duration": 236}, {"note": 83, "velocity": 84, "duration": 476}, {"note": 86, "velocity": 91, "duration": 236}, {"note": 86, "velocity": 90, "duration": 236}, {"note": 78, "velocity": 90, "duration": 236}, {"note": 81, "velocity": 81, "duration": 236}, {"note": 0, "velocity": 0, "duration": 244}, {"note": 79, "velocity": 98, "duration": 716}, {"note": 78, "velocity": 81, "duration": 236}, {"note": 0, "velocity": 0, "duration": 244}, {"note": 79, "velocity": 80, "duration": 236}, {"note": 72, "velocity": 83, "duration": 716}, {"note": 78, "velocity": 90, "duration": 236}, {"note": 79, "velocity": 83, "duration": 236}, {"note": 81, "velocity": 79, "duration": 236}, {"note": 84, "velocity": 79, "duration": 236}, {"note": 83, "velocity": 71, "duration": 236}, {"note": 79, "velocity": 79, "duration": 236}, {"note": 78, "velocity": 80, "duration": 356}, {"note": 79, "velocity": 75, "duration": 236}, {"note": 81, "velocity": 73, "duration": 356}, {"note": 0, "velocity": 0, "duration": 124}, {"note": 83, "velocity": 78, "duration": 1196}, {"note": 0, "velocity": 0, "duration": 3724}, {"note": 78, "velocity": 98, "duration": 526}, {"note": 0, "velocity": 0, "duration": 314}, {"note": 79, "velocity": 75, "duration": 826}, {"note": 72, "velocity": 93, "duration": 361}, {"note": 0, "velocity": 0, "duration": 1439}, {"note": 78, "velocity": 79, "duration": 236}, {"note": 79, "velocity": 75, "duration": 236}, {"note": 81, "velocity": 79, "duration": 356}, {"note": 83, "velocity": 91, "duration": 236}, {"note": 81, "velocity": 78, "duration": 256}, {"note": 79, "velocity": 78, "duration": 576}, {"note": 78, "velocity": 86, "duration": 356}, {"note": 79, "velocity": 73, "duration": 716}, {"note": 81, "velocity": 86, "duration": 716}, {"note": 79, "velocity": 86, "duration": 236}]]