[[{"note": 85, "velocity": 91, "duration": 385}, {"note": 0, "velocity": 0, "duration": 95}, {"note": 81, "velocity": 91, "duration": 263}, {"note": 78, "velocity": 91, "duration": 622}, {"note": 0, "velocity": 0, "duration": 5618}, {"note": 81, "velocity": 86, "duration": 488}, {"note": 83, "velocity": 88, "duration": 1341}, {"note": 0, "velocity": 0, "duration": 579}, {"note": 71, "velocity": 89, "duration": 478}, {"note": 78, "velocity": 94, "duration": 477}, {"note": 78, "velocity": 97, "duration": 144}, {"note": 76, "velocity": 96, "duration": 206}, {"note": 74, "velocity": 93, "duration": 238}, {"note": 76, "velocity": 100, "duration": 148}, {"note": 76, "velocity": 92, "duration": 237}, {"note": 76, "velocity": 100, "duration": 244}, {"note": 78, "velocity": 103, "duration": 238}, {"note": 76, "velocity": 98, "duration": 478}, {"note": 74, "velocity": 66, "duration": 11}, {"note": 73, "velocity": 81, "duration": 98}, {"note": 71, "velocity": 91, "duration": 150}, {"note": 74, "velocity": 90, "duration": 196}, {"note": 76, "velocity": 90, "duration": 238}, {"note": 78, "velocity": 84, "duration": 238}, {"note": 81, "velocity": 90, "duration": 238}, {"note": 76, "velocity": 77, "duration": 238}, {"note": 78, "velocity": 95, "duration": 1438}, {"note": 78, "velocity": 91, "duration": 282}, {"note": 81, "velocity": 86, "duration": 236}, {"note": 76, "velocity": 93, "duration": 76}, {"note": 74, "velocity": 99, "duration": 238}, {"note": 76, "velocity": 98, "duration": 957}, {"note": 76, "velocity": 90, "duration": 245}, {"note": 78, "velocity": 99, "duration": 238}, {"note": 74, "velocity": 97, "duration": 245}, {"note": 73, "velocity": 96, "duration": 243}, {"note": 71, "velocity": 100, "duration": 46}, {"note": 71, "velocity": 97, "duration": 209}, {"note": 69, "velocity": 97, "duration": 111}, {"note": 71, "velocity": 106, "duration": 316}, {"note": 74, "velocity": 100, "duration": 478}, {"note": 76, "velocity": 108, "duration": 75}, {"note": 78, "velocity": 96, "duration": 5}, {"note": 73, "velocity": 105, "duration": 238}, {"note": 69, "velocity": 93, "duration": 51}, {"note": 71, "velocity": 101, "duration": 1764}, {"note": 71, "velocity": 93, "duration": 478}, {"note": 78, "velocity": 99, "duration": 477}, {"note": 78, "velocity": 101, "duration": 478}, {"note": 76, "velocity": 97, "duration": 208}, {"note": 74, "velocity": 95, "duration": 238}, {"note": 76, "velocity": 96, "duration": 477}, {"note": 76, "velocity": 98, "duration": 262}, {"note": 78, "velocity": 99, "duration": 253}, {"note": 76, "velocity": 105, "duration": 478}, {"note": 74, "velocity": 101, "duration": 238}, {"note": 73, "velocity": 95, "duration": 238}, {"note": 71, "velocity": 93, "duration": 478}, {"note": 74, "velocity": 101, "duration": 478}, {"note": 76, "velocity": 100, "duration": 238}, {"note": 78, "velocity": 93, "duration": 238}, {"note": 81, "velocity": 90, "duration": 238}, {"note": 76, "velocity": 68, "duration": 238}, {"note": 78, "velocity": 105, "duration": 1438}, {"note": 83, "velocity": 108, "duration": 238}, {"note": 81, "velocity": 99, "duration": 238}, {"note": 76, "velocity": 100, "duration": 718}, {"note": 74, "velocity": 109, "duration": 238}, {"note": 76, "velocity": 106, "duration": 957}, {"note": 76, "velocity": 103, "duration": 238}, {"note": 78, "velocity": 100, "duration": 244}, {"note": 74, "velocity": 108, "duration": 238}, {"note": 73, "velocity": 99, "duration": 245}, {"note": 71, "velocity": 106, "duration": 477}, {"note": 71, "velocity": 100, "duration": 156}, {"note": 69, "velocity": 87, "duration": 176}, {"note": 71, "velocity": 94, "duration": 481}, {"note": 74, "velocity": 99, "duration": 478}, {"note": 76, "velocity": 103, "duration": 238}, {"note": 78, "velocity": 93, "duration": 256}, {"note": 73, "velocity": 90, "duration": 238}, {"note": 69, "velocity": 84, "duration": 247}, {"note": 71, "velocity": 108, "duration": 1438}, {"note": 74, "velocity": 105, "duration": 237}, {"note": 76, "velocity": 101, "duration": 238}, {"note": 78, "velocity": 103, "duration": 478}, {"note": 71, "velocity": 93, "duration": 238}, {"note": 78, "velocity": 106, "duration": 238}, {"note": 76, "velocity": 99, "duration": 958}, {"note": 81, "velocity": 106, "duration": 238}, {"note": 83, "velocity": 99, "duration": 247}, {"note": 85, "velocity": 97, "duration": 81}, {"note": 81, "velocity": 98, "duration": 111}, {"note": 78, "velocity": 99, "duration": 585}, {"note": 74, "velocity": 106, "duration": 238}, {"note": 71, "velocity": 94, "duration": 237}, {"note": 71, "velocity": 93, "duration": 238}, {"note": 74, "velocity": 97, "duration": 238}, {"note": 76, "velocity": 98, "duration": 238}, {"note": 78, "velocity": 90, "duration": 238}, {"note": 81, "velocity": 90, "duration": 238}, {"note": 76, "velocity": 95, "duration": 265}, {"note": 78, "velocity": 106, "duration": 1437}, {"note": 78, "velocity": 97, "duration": 238}, {"note": 81, "velocity": 98, "duration": 238}, {"note": 83, "velocity": 100, "duration": 478}, {"note": 81, "velocity": 108, "duration": 238}, {"note": 78, "velocity": 87, "duration": 238}, {"note": 76, "velocity": 94, "duration": 957}, {"note": 76, "velocity": 101, "duration": 238}, {"note": 78, "velocity": 97, "duration": 238}, {"note": 73, "velocity": 84, "duration": 238}, {"note": 76, "velocity": 87, "duration": 238}, {"note": 74, "velocity": 101, "duration": 958}, {"note": 71, "velocity": 95, "duration": 478}, {"note": 74, "velocity": 100, "duration": 238}, {"note": 78, "velocity": 103, "duration": 238}, {"note": 76, "velocity": 98, "duration": 238}, {"note": 74, "velocity": 93, "duration": 238}, {"note": 73, "velocity": 94, "duration": 238}, {"note": 69, "velocity": 89, "duration": 241}, {"note": 71, "velocity": 99, "duration": 1438}, {"note": 74, "velocity": 109, "duration": 240}, {"note": 76, "velocity": 93, "duration": 231}, {"note": 78, "velocity": 103, "duration": 48}, {"note": 71, "velocity": 97, "duration": 238}, {"note": 78, "velocity": 108, "duration": 155}, {"note": 76, "velocity": 108, "duration": 837}, {"note": 76, "velocity": 66, "duration": 118}, {"note": 81, "velocity": 97, "duration": 238}, {"note": 83, "velocity": 93, "duration": 238}, {"note": 85, "velocity": 90, "duration": 238}, {"note": 81, "velocity": 98, "duration": 238}, {"note": 78, "velocity": 109, "duration": 958}, {"note": 74, "velocity": 100, "duration": 38}, {"note": 71, "velocity": 90, "duration": 0}, {"note": 71, "velocity": 93, "duration": 228}, {"note": 74, "velocity": 94, "duration": 238}, {"note": 76, "velocity": 96, "duration": 238}, {"note": 78, "velocity": 92, "duration": 238}, {"note": 81, "velocity": 86, "duration": 238}, {"note": 76, "velocity": 99, "duration": 238}, {"note": 78, "velocity": 103, "duration": 432}, {"note": 78, "velocity": 95, "duration": 238}, {"note": 81, "velocity": 90, "duration": 238}, {"note": 83, "velocity": 103, "duration": 507}, {"note": 81, "velocity": 96, "duration": 238}, {"note": 78, "velocity": 85, "duration": 238}, {"note": 76, "velocity": 100, "duration": 837}, {"note": 76, "velocity": 95, "duration": 117}, {"note": 76, "velocity": 94, "duration": 238}, {"note": 78, "velocity": 100, "duration": 238}, {"note": 73, "velocity": 97, "duration": 238}, {"note": 76, "velocity": 100, "duration": 238}, {"note": 74, "velocity": 109, "duration": 958}, {"note": 71, "velocity": 97, "duration": 425}, {"note": 74, "velocity": 99, "duration": 238}, {"note": 78, "velocity": 96, "duration": 238}, {"note": 76, "velocity": 93, "duration": 238}, {"note": 74, "velocity": 90, "duration": 238}, {"note": 73, "velocity": 89, "duration": 238}, {"note": 69, "velocity": 93, "duration": 238}, {"note": 71, "velocity": 101, "duration": 958}, {"note": 0, "velocity": 0, "duration": 722}, {"note": 74, "velocity": 82, "duration": 116}, {"note": 76, "velocity": 80, "duration": 116}, {"note": 78, "velocity": 81, "duration": 956}, {"note": 76, "velocity": 82, "duration": 956}, {"note": 81, "velocity": 90, "duration": 236}, {"note": 83, "velocity": 98, "duration": 236}, {"note": 85, "velocity": 98, "duration": 236}, {"note": 81, "velocity": 94, "duration": 236}, {"note": 78, "velocity": 91, "duration": 956}, {"note": 74, "velocity": 101, "duration": 716}, {"note": 71, "velocity": 86, "duration": 236}, {"note": 76, "velocity": 95, "duration": 236}, {"note": 78, "velocity": 84, "duration": 236}, {"note": 81, "velocity": 86, "duration": 236}, {"note": 76, "velocity": 90, "duration": 236}, {"note": 78, "velocity": 95, "duration": 236}, {"note": 0, "velocity": 0, "duration": 6964}, {"note": 81, "velocity": 110, "duration": 424}, {"note": 83, "velocity": 97, "duration": 1277}, {"note": 0, "velocity": 0, "duration": 643}, {"note": 71, "velocity": 89, "duration": 478}, {"note": 78, "velocity": 94, "duration": 477}, {"note": 78, "velocity": 97, "duration": 153}, {"note": 76, "velocity": 96, "duration": 215}, {"note": 74, "velocity": 93, "duration": 238}, {"note": 76, "velocity": 100, "duration": 156}, {"note": 76, "velocity": 92, "duration": 237}, {"note": 76, "velocity": 100, "duration": 244}, {"note": 78, "velocity": 103, "duration": 238}, {"note": 76, "velocity": 98, "duration": 478}, {"note": 74, "velocity": 66, "duration": 19}, {"note": 73, "velocity": 81, "duration": 106}, {"note": 71, "velocity": 91, "duration": 158}, {"note": 74, "velocity": 90, "duration": 205}, {"note": 76, "velocity": 90, "duration": 238}, {"note": 78, "velocity": 84, "duration": 238}, {"note": 81, "velocity": 90, "duration": 238}, {"note": 76, "velocity": 77, "duration": 238}, {"note": 78, "velocity": 95, "duration": 1438}, {"note": 78, "velocity": 91, "duration": 51}, {"note": 81, "velocity": 86, "duration": 238}, {"note": 76, "velocity": 93, "duration": 84}, {"note": 74, "velocity": 99, "duration": 238}, {"note": 76, "velocity": 98, "duration": 957}, {"note": 76, "velocity": 90, "duration": 245}, {"note": 78, "velocity": 99, "duration": 238}, {"note": 74, "velocity": 97, "duration": 245}, {"note": 73, "velocity": 96, "duration": 243}, {"note": 71, "velocity": 100, "duration": 55}, {"note": 71, "velocity": 97, "duration": 217}, {"note": 69, "velocity": 97, "duration": 120}, {"note": 71, "velocity": 106, "duration": 324}, {"note": 74, "velocity": 100, "duration": 478}, {"note": 76, "velocity": 108, "duration": 83}, {"note": 78, "velocity": 96, "duration": 7}, {"note": 73, "velocity": 105, "duration": 238}, {"note": 69, "velocity": 93, "duration": 59}, {"note": 71, "velocity": 101, "duration": 1772}, {"note": 71, "velocity": 93, "duration": 478}, {"note": 78, "velocity": 99, "duration": 477}, {"note": 78, "velocity": 101, "duration": 478}, {"note": 76, "velocity": 97, "duration": 217}, {"note": 74, "velocity": 95, "duration": 238}, {"note": 76, "velocity": 96, "duration": 477}, {"note": 76, "velocity": 98, "duration": 262}, {"note": 78, "velocity": 99, "duration": 253}, {"note": 76, "velocity": 105, "duration": 478}, {"note": 74, "velocity": 101, "duration": 238}, {"note": 73, "velocity": 95, "duration": 238}, {"note": 71, "velocity": 93, "duration": 478}, {"note": 74, "velocity": 101, "duration": 478}, {"note": 76, "velocity": 100, "duration": 238}, {"note": 78, "velocity": 93, "duration": 238}, {"note": 81, "velocity": 90, "duration": 238}, {"note": 76, "velocity": 68, "duration": 238}, {"note": 78, "velocity": 105, "duration": 1438}, {"note": 83, "velocity": 108, "duration": 238}, {"note": 81, "velocity": 99, "duration": 238}, {"note": 76, "velocity": 100, "duration": 718}, {"note": 74, "velocity": 109, "duration": 238}, {"note": 76, "velocity": 106, "duration": 957}, {"note": 76, "velocity": 103, "duration": 238}, {"note": 78, "velocity": 100, "duration": 244}, {"note": 74, "velocity": 108, "duration": 238}, {"note": 73, "velocity": 99, "duration": 245}, {"note": 71, "velocity": 106, "duration": 477}, {"note": 71, "velocity": 100, "duration": 164}, {"note": 69, "velocity": 87, "duration": 184}, {"note": 71, "velocity": 94, "duration": 481}, {"note": 74, "velocity": 99, "duration": 478}, {"note": 76, "velocity": 103, "duration": 238}, {"note": 78, "velocity": 93, "duration": 256}, {"note": 73, "velocity": 90, "duration": 238}, {"note": 69, "velocity": 84, "duration": 247}, {"note": 71, "velocity": 108, "duration": 1438}, {"note": 74, "velocity": 105, "duration": 237}, {"note": 76, "velocity": 101, "duration": 238}, {"note": 78, "velocity": 103, "duration": 478}, {"note": 71, "velocity": 93, "duration": 238}, {"note": 78, "velocity": 106, "duration": 238}, {"note": 76, "velocity": 99, "duration": 958}, {"note": 81, "velocity": 106, "duration": 238}, {"note": 83, "velocity": 99, "duration": 247}, {"note": 85, "velocity": 97, "duration": 90}, {"note": 81, "velocity": 98, "duration": 119}, {"note": 78, "velocity": 99, "duration": 593}, {"note": 74, "velocity": 106, "duration": 238}, {"note": 71, "velocity": 94, "duration": 237}, {"note": 71, "velocity": 93, "duration": 238}, {"note": 74, "velocity": 97, "duration": 238}, {"note": 76, "velocity": 98, "duration": 238}, {"note": 78, "velocity": 90, "duration": 238}, {"note": 81, "velocity": 90, "duration": 238}, {"note": 76, "velocity": 95, "duration": 265}, {"note": 78, "velocity": 106, "duration": 1437}, {"note": 78, "velocity": 97, "duration": 238}, {"note": 81, "velocity": 98, "duration": 238}, {"note": 83, "velocity": 100, "duration": 478}, {"note": 81, "velocity": 108, "duration": 238}, {"note": 78, "velocity": 87, "duration": 238}, {"note": 76, "velocity": 94, "duration": 957}, {"note": 76, "velocity": 101, "duration": 238}, {"note": 78, "velocity": 97, "duration": 238}, {"note": 73, "velocity": 84, "duration": 238}, {"note": 76, "velocity": 87, "duration": 238}, {"note": 74, "velocity": 101, "duration": 958}, {"note": 71, "velocity": 95, "duration": 478}, {"note": 74, "velocity": 100, "duration": 238}, {"note": 78, "velocity": 103, "duration": 238}, {"note": 76, "velocity": 98, "duration": 238}, {"note": 74, "velocity": 93, "duration": 238}, {"note": 73, "velocity": 94, "duration": 238}, {"note": 69, "velocity": 89, "duration": 241}, {"note": 71, "velocity": 99, "duration": 1438}, {"note": 74, "velocity": 109, "duration": 249}, {"note": 76, "velocity": 93, "duration": 240}, {"note": 78, "velocity": 103, "duration": 56}, {"note": 71, "velocity": 97, "duration": 238}, {"note": 78, "velocity": 108, "duration": 163}, {"note": 76, "velocity": 108, "duration": 837}, {"note": 76, "velocity": 66, "duration": 118}, {"note": 81, "velocity": 97, "duration": 238}, {"note": 83, "velocity": 93, "duration": 238}, {"note": 85, "velocity": 90, "duration": 238}, {"note": 81, "velocity": 98, "duration": 238}, {"note": 78, "velocity": 109, "duration": 958}, {"note": 74, "velocity": 100, "duration": 46}, {"note": 71, "velocity": 90, "duration": 2}, {"note": 71, "velocity": 93, "duration": 236}, {"note": 74, "velocity": 94, "duration": 238}, {"note": 76, "velocity": 96, "duration": 238}, {"note": 78, "velocity": 92, "duration": 238}, {"note": 81, "velocity": 86, "duration": 238}, {"note": 76, "velocity": 99, "duration": 238}, {"note": 78, "velocity": 103, "duration": 440}, {"note": 78, "velocity": 95, "duration": 238}, {"note": 81, "velocity": 90, "duration": 238}, {"note": 83, "velocity": 103, "duration": 507}, {"note": 81, "velocity": 96, "duration": 238}, {"note": 78, "velocity": 85, "duration": 238}, {"note": 76, "velocity": 100, "duration": 837}, {"note": 76, "velocity": 95, "duration": 117}, {"note": 76, "velocity": 94, "duration": 238}, {"note": 78, "velocity": 100, "duration": 238}, {"note": 73, "velocity": 97, "duration": 238}, {"note": 76, "velocity": 100, "duration": 238}, {"note": 74, "velocity": 109, "duration": 958}, {"note": 71, "velocity": 97, "duration": 433}, {"note": 74, "velocity": 99, "duration": 238}, {"note": 78, "velocity": 96, "duration": 238}, {"note": 76, "velocity": 93, "duration": 238}, {"note": 74, "velocity": 90, "duration": 238}, {"note": 73, "velocity": 89, "duration": 238}, {"note": 69, "velocity": 93, "duration": 238}, {"note": 71, "velocity": 101, "duration": 958}, {"note": 0, "velocity": 0, "duration": 482}, {"note": 74, "velocity": 98, "duration": 238}, {"note": 71, "velocity": 93, "duration": 237}, {"note": 71, "velocity": 100, "duration": 718}, {"note": 74, "velocity": 106, "duration": 238}, {"note": 73, "velocity": 98, "duration": 241}, {"note": 71, "velocity": 87, "duration": 299}, {"note": 0, "velocity": 0, "duration": 61}, {"note": 69, "velocity": 87, "duration": 238}, {"note": 73, "velocity": 93, "duration": 2038}, {"note": 71, "velocity": 89, "duration": 2518}]]