[[{"note": 80, "velocity": 83, "duration": 116}, {"note": 82, "velocity": 80, "duration": 116}, {"note": 85, "velocity": 90, "duration": 116}, {"note": 82, "velocity": 82, "duration": 116}, {"note": 80, "velocity": 82, "duration": 116}, {"note": 82, "velocity": 80, "duration": 356}, {"note": 80, "velocity": 82, "duration": 236}, {"note": 77, "velocity": 76, "duration": 116}, {"note": 80, "velocity": 81, "duration": 596}, {"note": 75, "velocity": 83, "duration": 116}, {"note": 77, "velocity": 80, "duration": 116}, {"note": 80, "velocity": 86, "duration": 116}, {"note": 77, "velocity": 90, "duration": 116}, {"note": 75, "velocity": 86, "duration": 356}, {"note": 73, "velocity": 86, "duration": 356}, {"note": 70, "velocity": 69, "duration": 116}, {"note": 73, "velocity": 81, "duration": 596}, {"note": 75, "velocity": 91, "duration": 116}, {"note": 77, "velocity": 90, "duration": 116}, {"note": 80, "velocity": 82, "duration": 116}, {"note": 77, "velocity": 90, "duration": 116}, {"note": 75, "velocity": 93, "duration": 356}, {"note": 73, "velocity": 94, "duration": 356}, {"note": 75, "velocity": 84, "duration": 116}, {"note": 70, "velocity": 90, "duration": 116}, {"note": 68, "velocity": 86, "duration": 236}, {"note": 82, "velocity": 84, "duration": 236}, {"note": 80, "velocity": 80, "duration": 116}, {"note": 77, "velocity": 83, "duration": 356}, {"note": 75, "velocity": 86, "duration": 116}, {"note": 75, "velocity": 86, "duration": 116}, {"note": 75, "velocity": 90, "duration": 116}, {"note": 77, "velocity": 90, "duration": 116}, {"note": 75, "velocity": 95, "duration": 116}, {"note": 73, "velocity": 90, "duration": 236}, {"note": 70, "velocity": 83, "duration": 116}, {"note": 75, "velocity": 84, "duration": 476}, {"note": 80, "velocity": 93, "duration": 116}, {"note": 82, "velocity": 82, "duration": 116}, {"note": 85, "velocity": 94, "duration": 116}, {"note": 82, "velocity": 93, "duration": 116}, {"note": 80, "velocity": 84, "duration": 116}, {"note": 82, "velocity": 83, "duration": 236}, {"note": 80, "velocity": 84, "duration": 356}, {"note": 77, "velocity": 86, "duration": 116}, {"note": 80, "velocity": 86, "duration": 596}, {"note": 75, "velocity": 84, "duration": 116}, {"note": 77, "velocity": 86, "duration": 116}, {"note": 80, "velocity": 90, "duration": 116}, {"note": 77, "velocity": 95, "duration": 116}, {"note": 75, "velocity": 93, "duration": 356}, {"note": 73, "velocity": 86, "duration": 356}, {"note": 70, "velocity": 94, "duration": 116}, {"note": 73, "velocity": 91, "duration": 596}, {"note": 75, "velocity": 91, "duration": 116}, {"note": 77, "velocity": 84, "duration": 116}, {"note": 80, "velocity": 86, "duration": 116}, {"note": 77, "velocity": 90, "duration": 116}, {"note": 75, "velocity": 84, "duration": 356}, {"note": 73, "velocity": 91, "duration": 356}, {"note": 75, "velocity": 98, "duration": 116}, {"note": 70, "velocity": 84, "duration": 116}, {"note": 68, "velocity": 90, "duration": 236}, {"note": 80, "velocity": 83, "duration": 116}, {"note": 82, "velocity": 80, "duration": 116}, {"note": 80, "velocity": 82, "duration": 116}, {"note": 77, "velocity": 86, "duration": 236}, {"note": 77, "velocity": 94, "duration": 116}, {"note": 75, "velocity": 84, "duration": 116}, {"note": 75, "velocity": 86, "duration": 116}, {"note": 75, "velocity": 90, "duration": 116}, {"note": 77, "velocity": 90, "duration": 116}, {"note": 75, "velocity": 91, "duration": 116}, {"note": 73, "velocity": 91, "duration": 356}, {"note": 70, "velocity": 86, "duration": 236}, {"note": 73, "velocity": 84, "duration": 1076}, {"note": 73, "velocity": 94, "duration": 116}, {"note": 73, "velocity": 84, "duration": 116}, {"note": 73, "velocity": 95, "duration": 116}, {"note": 85, "velocity": 98, "duration": 116}, {"note": 84, "velocity": 95, "duration": 116}, {"note": 84, "velocity": 86, "duration": 116}, {"note": 82, "velocity": 86, "duration": 236}, {"note": 82, "velocity": 95, "duration": 116}, {"note": 82, "velocity": 93, "duration": 116}, {"note": 80, "velocity": 90, "duration": 116}, {"note": 82, "velocity": 91, "duration": 116}, {"note": 84, "velocity": 100, "duration": 236}, {"note": 77, "velocity": 104, "duration": 476}, {"note": 77, "velocity": 90, "duration": 116}, {"note": 77, "velocity": 84, "duration": 116}, {"note": 80, "velocity": 90, "duration": 116}, {"note": 82, "velocity": 86, "duration": 236}, {"note": 82, "velocity": 81, "duration": 116}, {"note": 82, "velocity": 84, "duration": 116}, {"note": 82, "velocity": 91, "duration": 116}, {"note": 80, "velocity": 90, "duration": 116}, {"note": 77, "velocity": 91, "duration": 116}, {"note": 75, "velocity": 86, "duration": 116}, {"note": 77, "velocity": 91, "duration": 356}, {"note": 77, "velocity": 84, "duration": 116}, {"note": 75, "velocity": 84, "duration": 116}, {"note": 77, "velocity": 80, "duration": 116}, {"note": 75, "velocity": 84, "duration": 116}, {"note": 70, "velocity": 86, "duration": 116}, {"note": 73, "velocity": 93, "duration": 356}, {"note": 77, "velocity": 98, "duration": 116}, {"note": 75, "velocity": 91, "duration": 116}, {"note": 77, "velocity": 84, "duration": 116}, {"note": 75, "velocity": 94, "duration": 116}, {"note": 70, "velocity": 94, "duration": 116}, {"note": 73, "velocity": 94, "duration": 356}, {"note": 77, "velocity": 93, "duration": 116}, {"note": 75, "velocity": 84, "duration": 116}, {"note": 77, "velocity": 84, "duration": 116}, {"note": 75, "velocity": 84, "duration": 116}, {"note": 70, "velocity": 82, "duration": 116}, {"note": 82, "velocity": 83, "duration": 116}, {"note": 80, "velocity": 90, "duration": 116}, {"note": 80, "velocity": 93, "duration": 116}, {"note": 80, "velocity": 90, "duration": 116}, {"note": 82, "velocity": 93, "duration": 116}, {"note": 80, "velocity": 86, "duration": 116}, {"note": 80, "velocity": 90, "duration": 116}, {"note": 77, "velocity": 86, "duration": 236}, {"note": 75, "velocity": 86, "duration": 236}, {"note": 80, "velocity": 93, "duration": 116}, {"note": 80, "velocity": 90, "duration": 116}, {"note": 80, "velocity": 84, "duration": 116}, {"note": 85, "velocity": 94, "duration": 116}, {"note": 84, "velocity": 98, "duration": 116}, {"note": 84, "velocity": 95, "duration": 116}, {"note": 82, "velocity": 93, "duration": 236}, {"note": 82, "velocity": 86, "duration": 116}, {"note": 82, "velocity": 98, "duration": 116}, {"note": 80, "velocity": 83, "duration": 116}, {"note": 82, "velocity": 90, "duration": 116}, {"note": 84, "velocity": 80, "duration": 236}, {"note": 77, "velocity": 98, "duration": 476}, {"note": 77, "velocity": 93, "duration": 116}, {"note": 77, "velocity": 84, "duration": 116}, {"note": 80, "velocity": 84, "duration": 116}, {"note": 82, "velocity": 84, "duration": 116}, {"note": 82, "velocity": 90, "duration": 236}, {"note": 82, "velocity": 84, "duration": 116}, {"note": 82, "velocity": 93, "duration": 116}, {"note": 80, "velocity": 84, "duration": 116}, {"note": 77, "velocity": 90, "duration": 116}, {"note": 75, "velocity": 84, "duration": 116}, {"note": 77, "velocity": 98, "duration": 356}, {"note": 77, "velocity": 84, "duration": 116}, {"note": 75, "velocity": 82, "duration": 116}, {"note": 77, "velocity": 76, "duration": 116}, {"note": 75, "velocity": 81, "duration": 116}, {"note": 70, "velocity": 83, "duration": 116}, {"note": 73, "velocity": 90, "duration": 356}, {"note": 77, "velocity": 93, "duration": 116}, {"note": 75, "velocity": 86, "duration": 116}, {"note": 77, "velocity": 80, "duration": 116}, {"note": 80, "velocity": 79, "duration": 116}, {"note": 77, "velocity": 86, "duration": 116}, {"note": 75, "velocity": 83, "duration": 116}, {"note": 73, "velocity": 98, "duration": 116}, {"note": 70, "velocity": 83, "duration": 956}, {"note": 82, "velocity": 93, "duration": 236}, {"note": 80, "velocity": 84, "duration": 356}, {"note": 77, "velocity": 86, "duration": 116}, {"note": 77, "velocity": 82, "duration": 236}, {"note": 75, "velocity": 83, "duration": 236}, {"note": 75, "velocity": 86, "duration": 116}, {"note": 77, "velocity": 86, "duration": 356}, {"note": 73, "velocity": 76, "duration": 836}, {"note": 0, "velocity": 0, "duration": 9244}, {"note": 80, "velocity": 93, "duration": 116}, {"note": 82, "velocity": 82, "duration": 116}, {"note": 85, "velocity": 94, "duration": 116}, {"note": 82, "velocity": 93, "duration": 116}, {"note": 80, "velocity": 84, "duration": 116}, {"note": 82, "velocity": 83, "duration": 236}, {"note": 80, "velocity": 84, "duration": 356}, {"note": 77, "velocity": 86, "duration": 116}, {"note": 80, "velocity": 86, "duration": 596}, {"note": 75, "velocity": 84, "duration": 116}, {"note": 77, "velocity": 86, "duration": 116}, {"note": 80, "velocity": 90, "duration": 116}, {"note": 77, "velocity": 95, "duration": 116}, {"note": 75, "velocity": 93, "duration": 356}, {"note": 73, "velocity": 86, "duration": 356}, {"note": 70, "velocity": 94, "duration": 116}, {"note": 73, "velocity": 91, "duration": 596}, {"note": 75, "velocity": 91, "duration": 116}, {"note": 77, "velocity": 84, "duration": 116}, {"note": 80, "velocity": 86, "duration": 116}, {"note": 77, "velocity": 90, "duration": 116}, {"note": 75, "velocity": 84, "duration": 356}, {"note": 73, "velocity": 91, "duration": 356}, {"note": 75, "velocity": 98, "duration": 116}, {"note": 70, "velocity": 84, "duration": 116}, {"note": 68, "velocity": 90, "duration": 236}, {"note": 80, "velocity": 83, "duration": 116}, {"note": 82, "velocity": 80, "duration": 116}, {"note": 80, "velocity": 82, "duration": 116}, {"note": 77, "velocity": 86, "duration": 236}, {"note": 0, "velocity": 0, "duration": 124}, {"note": 75, "velocity": 84, "duration": 116}, {"note": 75, "velocity": 86, "duration": 116}, {"note": 75, "velocity": 90, "duration": 116}, {"note": 77, "velocity": 90, "duration": 116}, {"note": 75, "velocity": 91, "duration": 116}, {"note": 0, "velocity": 0, "duration": 124}, {"note": 73, "velocity": 91, "duration": 356}, {"note": 70, "velocity": 86, "duration": 236}, {"note": 73, "velocity": 84, "duration": 116}, {"note": 0, "velocity": 0, "duration": 1204}, {"note": 73, "velocity": 94, "duration": 116}, {"note": 73, "velocity": 84, "duration": 116}, {"note": 73, "velocity": 95, "duration": 116}, {"note": 85, "velocity": 98, "duration": 116}, {"note": 84, "velocity": 95, "duration": 116}, {"note": 84, "velocity": 86, "duration": 116}, {"note": 82, "velocity": 86, "duration": 236}, {"note": 82, "velocity": 95, "duration": 116}, {"note": 82, "velocity": 93, "duration": 116}, {"note": 80, "velocity": 90, "duration": 116}, {"note": 82, "velocity": 91, "duration": 116}, {"note": 84, "velocity": 100, "duration": 236}, {"note": 77, "velocity": 104, "duration": 476}, {"note": 77, "velocity": 90, "duration": 116}, {"note": 77, "velocity": 84, "duration": 116}, {"note": 80, "velocity": 90, "duration": 116}, {"note": 82, "velocity": 86, "duration": 236}, {"note": 82, "velocity": 81, "duration": 116}, {"note": 82, "velocity": 84, "duration": 116}, {"note": 82, "velocity": 91, "duration": 116}, {"note": 80, "velocity": 90, "duration": 116}, {"note": 77, "velocity": 91, "duration": 116}, {"note": 75, "velocity": 86, "duration": 116}, {"note": 77, "velocity": 91, "duration": 356}, {"note": 77, "velocity": 84, "duration": 116}, {"note": 75, "velocity": 84, "duration": 116}, {"note": 77, "velocity": 80, "duration": 116}, {"note": 75, "velocity": 84, "duration": 116}, {"note": 70, "velocity": 86, "duration": 116}, {"note": 73, "velocity": 93, "duration": 356}, {"note": 77, "velocity": 98, "duration": 116}, {"note": 75, "velocity": 91, "duration": 116}, {"note": 77, "velocity": 84, "duration": 116}, {"note": 75, "velocity": 94, "duration": 116}, {"note": 70, "velocity": 94, "duration": 116}, {"note": 73, "velocity": 94, "duration": 356}, {"note": 77, "velocity": 93, "duration": 116}, {"note": 75, "velocity": 84, "duration": 116}, {"note": 77, "velocity": 84, "duration": 116}, {"note": 75, "velocity": 84, "duration": 116}, {"note": 70, "velocity": 82, "duration": 116}, {"note": 82, "velocity": 83, "duration": 116}, {"note": 80, "velocity": 90, "duration": 116}, {"note": 80, "velocity": 93, "duration": 116}, {"note": 80, "velocity": 90, "duration": 116}, {"note": 82, "velocity": 93, "duration": 116}, {"note": 80, "velocity": 86, "duration": 116}, {"note": 80, "velocity": 90, "duration": 116}, {"note": 77, "velocity": 86, "duration": 236}, {"note": 75, "velocity": 86, "duration": 236}, {"note": 80, "velocity": 93, "duration": 116}, {"note": 80, "velocity": 90, "duration": 116}, {"note": 80, "velocity": 84, "duration": 116}, {"note": 85, "velocity": 94, "duration": 116}, {"note": 84, "velocity": 98, "duration": 116}, {"note": 84, "velocity": 95, "duration": 116}, {"note": 82, "velocity": 93, "duration": 236}, {"note": 82, "velocity": 86, "duration": 116}, {"note": 82, "velocity": 98, "duration": 116}, {"note": 80, "velocity": 83, "duration": 116}, {"note": 82, "velocity": 90, "duration": 116}, {"note": 84, "velocity": 80, "duration": 236}, {"note": 77, "velocity": 98, "duration": 476}, {"note": 77, "velocity": 93, "duration": 116}, {"note": 77, "velocity": 84, "duration": 116}, {"note": 80, "velocity": 84, "duration": 116}, {"note": 82, "velocity": 84, "duration": 116}, {"note": 82, "velocity": 90, "duration": 236}, {"note": 82, "velocity": 84, "duration": 116}, {"note": 82, "velocity": 93, "duration": 116}, {"note": 80, "velocity": 84, "duration": 116}, {"note": 77, "velocity": 90, "duration": 116}, {"note": 75, "velocity": 84, "duration": 116}, {"note": 77, "velocity": 98, "duration": 356}, {"note": 77, "velocity": 84, "duration": 116}, {"note": 75, "velocity": 82, "duration": 116}, {"note": 77, "velocity": 76, "duration": 116}, {"note": 75, "velocity": 81, "duration": 116}, {"note": 70, "velocity": 83, "duration": 116}, {"note": 73, "velocity": 90, "duration": 356}, {"note": 77, "velocity": 93, "duration": 116}, {"note": 75, "velocity": 86, "duration": 116}, {"note": 77, "velocity": 80, "duration": 116}, {"note": 80, "velocity": 79, "duration": 116}, {"note": 77, "velocity": 86, "duration": 116}, {"note": 75, "velocity": 83, "duration": 116}, {"note": 73, "velocity": 98, "duration": 116}, {"note": 70, "velocity": 83, "duration": 956}, {"note": 82, "velocity": 93, "duration": 236}, {"note": 80, "velocity": 84, "duration": 356}, {"note": 77, "velocity": 86, "duration": 116}, {"note": 77, "velocity": 82, "duration": 236}, {"note": 75, "velocity": 83, "duration": 236}, {"note": 75, "velocity": 86, "duration": 116}, {"note": 77, "velocity": 86, "duration": 356}, {"note": 73, "velocity": 76, "duration": 836}, {"note": 0, "velocity": 0, "duration": 10084}, {"note": 86, "velocity": 94, "duration": 116}, {"note": 86, "velocity": 94, "duration": 116}, {"note": 85, "velocity": 90, "duration": 116}, {"note": 86, "velocity": 84, "duration": 116}, {"note": 85, "velocity": 93, "duration": 116}, {"note": 85, "velocity": 86, "duration": 116}, {"note": 83, "velocity": 86, "duration": 236}, {"note": 83, "velocity": 95, "duration": 116}, {"note": 83, "velocity": 93, "duration": 116}, {"note": 81, "velocity": 90, "duration": 116}, {"note": 83, "velocity": 91, "duration": 116}, {"note": 85, "velocity": 100, "duration": 236}, {"note": 78, "velocity": 104, "duration": 476}, {"note": 78, "velocity": 90, "duration": 116}, {"note": 78, "velocity": 84, "duration": 116}, {"note": 81, "velocity": 90, "duration": 116}, {"note": 83, "velocity": 86, "duration": 236}, {"note": 83, "velocity": 81, "duration": 116}, {"note": 83, "velocity": 84, "duration": 116}, {"note": 83, "velocity": 91, "duration": 116}, {"note": 81, "velocity": 90, "duration": 116}, {"note": 78, "velocity": 91, "duration": 116}, {"note": 76, "velocity": 86, "duration": 116}, {"note": 78, "velocity": 91, "duration": 356}, {"note": 78, "velocity": 84, "duration": 116}, {"note": 76, "velocity": 84, "duration": 116}, {"note": 78, "velocity": 80, "duration": 116}, {"note": 76, "velocity": 84, "duration": 116}, {"note": 71, "velocity": 86, "duration": 116}, {"note": 74, "velocity": 93, "duration": 356}, {"note": 78, "velocity": 98, "duration": 116}, {"note": 76, "velocity": 91, "duration": 116}, {"note": 78, "velocity": 84, "duration": 116}, {"note": 76, "velocity": 94, "duration": 116}, {"note": 71, "velocity": 94, "duration": 116}, {"note": 74, "velocity": 94, "duration": 356}, {"note": 78, "velocity": 93, "duration": 116}, {"note": 76, "velocity": 84, "duration": 116}, {"note": 78, "velocity": 84, "duration": 116}, {"note": 76, "velocity": 84, "duration": 116}, {"note": 71, "velocity": 82, "duration": 116}, {"note": 83, "velocity": 83, "duration": 116}, {"note": 81, "velocity": 90, "duration": 116}, {"note": 81, "velocity": 93, "duration": 116}, {"note": 81, "velocity": 90, "duration": 116}, {"note": 83, "velocity": 93, "duration": 116}, {"note": 81, "velocity": 86, "duration": 116}, {"note": 81, "velocity": 90, "duration": 116}, {"note": 78, "velocity": 86, "duration": 236}, {"note": 76, "velocity": 86, "duration": 236}, {"note": 86, "velocity": 93, "duration": 116}, {"note": 86, "velocity": 90, "duration": 116}, {"note": 85, "velocity": 84, "duration": 116}, {"note": 86, "velocity": 94, "duration": 116}, {"note": 85, "velocity": 98, "duration": 116}, {"note": 85, "velocity": 95, "duration": 116}, {"note": 83, "velocity": 93, "duration": 236}, {"note": 83, "velocity": 86, "duration": 116}, {"note": 83, "velocity": 98, "duration": 116}, {"note": 81, "velocity": 83, "duration": 116}, {"note": 83, "velocity": 90, "duration": 116}, {"note": 85, "velocity": 80, "duration": 236}, {"note": 78, "velocity": 98, "duration": 476}, {"note": 78, "velocity": 93, "duration": 116}, {"note": 78, "velocity": 84, "duration": 116}, {"note": 81, "velocity": 84, "duration": 116}, {"note": 83, "velocity": 84, "duration": 116}, {"note": 83, "velocity": 90, "duration": 236}, {"note": 83, "velocity": 84, "duration": 116}, {"note": 83, "velocity": 93, "duration": 116}, {"note": 81, "velocity": 84, "duration": 116}, {"note": 78, "velocity": 90, "duration": 116}, {"note": 76, "velocity": 84, "duration": 116}, {"note": 78, "velocity": 98, "duration": 356}, {"note": 78, "velocity": 84, "duration": 116}, {"note": 76, "velocity": 82, "duration": 116}, {"note": 78, "velocity": 76, "duration": 116}, {"note": 76, "velocity": 81, "duration": 116}, {"note": 71, "velocity": 83, "duration": 116}, {"note": 74, "velocity": 90, "duration": 356}, {"note": 78, "velocity": 93, "duration": 116}, {"note": 76, "velocity": 86, "duration": 116}, {"note": 78, "velocity": 80, "duration": 116}, {"note": 81, "velocity": 79, "duration": 116}, {"note": 78, "velocity": 86, "duration": 116}, {"note": 76, "velocity": 83, "duration": 116}, {"note": 74, "velocity": 98, "duration": 116}, {"note": 71, "velocity": 83, "duration": 956}, {"note": 0, "velocity": 0, "duration": 604}, {"note": 71, "velocity": 84, "duration": 92}, {"note": 69, "velocity": 73, "duration": 295}, {"note": 81, "velocity": 48, "duration": 107}, {"note": 83, "velocity": 84, "duration": 139}, {"note": 81, "velocity": 84, "duration": 392}, {"note": 78, "velocity": 84, "duration": 200}, {"note": 78, "velocity": 84, "duration": 80}, {"note": 0, "velocity": 0, "duration": 160}, {"note": 76, "velocity": 84, "duration": 340}, {"note": 76, "velocity": 83, "duration": 100}, {"note": 78, "velocity": 83, "duration": 108}, {"note": 0, "velocity": 0, "duration": 252}, {"note": 74, "velocity": 83, "duration": 108}, {"note": 74, "velocity": 83, "duration": 108}]]