[[{"note": 81, "velocity": 79, "duration": 476}, {"note": 79, "velocity": 76, "duration": 476}, {"note": 81, "velocity": 84, "duration": 476}, {"note": 84, "velocity": 86, "duration": 476}, {"note": 77, "velocity": 83, "duration": 716}, {"note": 74, "velocity": 79, "duration": 236}, {"note": 84, "velocity": 94, "duration": 476}, {"note": 81, "velocity": 84, "duration": 476}, {"note": 81, "velocity": 82, "duration": 476}, {"note": 79, "velocity": 61, "duration": 1436}, {"note": 77, "velocity": 93, "duration": 476}, {"note": 77, "velocity": 93, "duration": 236}, {"note": 74, "velocity": 95, "duration": 236}, {"note": 77, "velocity": 84, "duration": 476}, {"note": 79, "velocity": 83, "duration": 236}, {"note": 81, "velocity": 73, "duration": 236}, {"note": 77, "velocity": 83, "duration": 716}, {"note": 74, "velocity": 82, "duration": 236}, {"note": 72, "velocity": 82, "duration": 476}, {"note": 69, "velocity": 83, "duration": 476}, {"note": 72, "velocity": 93, "duration": 1916}, {"note": 74, "velocity": 93, "duration": 956}, {"note": 74, "velocity": 86, "duration": 236}, {"note": 77, "velocity": 95, "duration": 236}, {"note": 72, "velocity": 90, "duration": 476}, {"note": 74, "velocity": 90, "duration": 716}, {"note": 77, "velocity": 80, "duration": 236}, {"note": 79, "velocity": 80, "duration": 476}, {"note": 81, "velocity": 90, "duration": 476}, {"note": 79, "velocity": 82, "duration": 476}, {"note": 77, "velocity": 86, "duration": 476}, {"note": 74, "velocity": 84, "duration": 476}, {"note": 72, "velocity": 95, "duration": 476}, {"note": 74, "velocity": 86, "duration": 1916}, {"note": 74, "velocity": 91, "duration": 716}, {"note": 77, "velocity": 86, "duration": 236}, {"note": 79, "velocity": 82, "duration": 476}, {"note": 81, "velocity": 86, "duration": 476}, {"note": 79, "velocity": 82, "duration": 716}, {"note": 77, "velocity": 86, "duration": 236}, {"note": 74, "velocity": 83, "duration": 476}, {"note": 72, "velocity": 91, "duration": 476}, {"note": 69, "velocity": 90, "duration": 716}, {"note": 72, "velocity": 84, "duration": 236}, {"note": 79, "velocity": 56, "duration": 476}, {"note": 74, "velocity": 82, "duration": 476}, {"note": 72, "velocity": 90, "duration": 956}, {"note": 0, "velocity": 0, "duration": 6724}, {"note": 81, "velocity": 79, "duration": 476}, {"note": 79, "velocity": 76, "duration": 476}, {"note": 81, "velocity": 84, "duration": 476}, {"note": 84, "velocity": 86, "duration": 476}, {"note": 77, "velocity": 83, "duration": 716}, {"note": 74, "velocity": 79, "duration": 236}, {"note": 84, "velocity": 94, "duration": 476}, {"note": 81, "velocity": 84, "duration": 476}, {"note": 81, "velocity": 82, "duration": 476}, {"note": 79, "velocity": 61, "duration": 1436}, {"note": 77, "velocity": 93, "duration": 476}, {"note": 77, "velocity": 93, "duration": 236}, {"note": 74, "velocity": 95, "duration": 236}, {"note": 77, "velocity": 84, "duration": 476}, {"note": 79, "velocity": 83, "duration": 236}, {"note": 81, "velocity": 73, "duration": 236}, {"note": 77, "velocity": 83, "duration": 716}, {"note": 74, "velocity": 82, "duration": 236}, {"note": 72, "velocity": 82, "duration": 476}, {"note": 69, "velocity": 83, "duration": 476}, {"note": 72, "velocity": 93, "duration": 1916}, {"note": 74, "velocity": 93, "duration": 956}, {"note": 74, "velocity": 86, "duration": 236}, {"note": 77, "velocity": 95, "duration": 236}, {"note": 72, "velocity": 90, "duration": 476}, {"note": 74, "velocity": 90, "duration": 716}, {"note": 77, "velocity": 80, "duration": 236}, {"note": 79, "velocity": 80, "duration": 476}, {"note": 81, "velocity": 90, "duration": 476}, {"note": 79, "velocity": 82, "duration": 476}, {"note": 77, "velocity": 86, "duration": 476}, {"note": 74, "velocity": 84, "duration": 476}, {"note": 72, "velocity": 95, "duration": 476}, {"note": 74, "velocity": 86, "duration": 1916}, {"note": 74, "velocity": 91, "duration": 716}, {"note": 77, "velocity": 86, "duration": 236}, {"note": 79, "velocity": 82, "duration": 476}, {"note": 81, "velocity": 86, "duration": 476}, {"note": 79, "velocity": 82, "duration": 716}, {"note": 77, "velocity": 86, "duration": 236}, {"note": 74, "velocity": 83, "duration": 476}, {"note": 72, "velocity": 91, "duration": 476}, {"note": 69, "velocity": 90, "duration": 716}, {"note": 72, "velocity": 84, "duration": 236}, {"note": 79, "velocity": 56, "duration": 476}, {"note": 74, "velocity": 82, "duration": 476}, {"note": 72, "velocity": 90, "duration": 956}, {"note": 0, "velocity": 0, "duration": 6724}, {"note": 81, "velocity": 79, "duration": 476}, {"note": 79, "velocity": 76, "duration": 476}, {"note": 81, "velocity": 84, "duration": 476}, {"note": 84, "velocity": 86, "duration": 476}, {"note": 77, "velocity": 83, "duration": 716}, {"note": 74, "velocity": 79, "duration": 236}, {"note": 84, "velocity": 94, "duration": 476}, {"note": 81, "velocity": 84, "duration": 476}, {"note": 81, "velocity": 82, "duration": 476}, {"note": 79, "velocity": 61, "duration": 1436}, {"note": 77, "velocity": 93, "duration": 476}, {"note": 77, "velocity": 93, "duration": 236}, {"note": 74, "velocity": 95, "duration": 236}, {"note": 77, "velocity": 84, "duration": 476}, {"note": 79, "velocity": 83, "duration": 236}, {"note": 81, "velocity": 73, "duration": 236}, {"note": 77, "velocity": 83, "duration": 716}, {"note": 74, "velocity": 82, "duration": 236}, {"note": 72, "velocity": 82, "duration": 476}, {"note": 69, "velocity": 83, "duration": 476}, {"note": 72, "velocity": 93, "duration": 1916}, {"note": 74, "velocity": 93, "duration": 956}, {"note": 74, "velocity": 86, "duration": 236}, {"note": 77, "velocity": 95, "duration": 236}, {"note": 72, "velocity": 90, "duration": 476}, {"note": 74, "velocity": 90, "duration": 716}, {"note": 77, "velocity": 80, "duration": 236}, {"note": 79, "velocity": 80, "duration": 476}, {"note": 81, "velocity": 90, "duration": 476}, {"note": 79, "velocity": 82, "duration": 476}, {"note": 77, "velocity": 86, "duration": 476}, {"note": 74, "velocity": 84, "duration": 476}, {"note": 72, "velocity": 95, "duration": 476}, {"note": 74, "velocity": 86, "duration": 1916}, {"note": 74, "velocity": 91, "duration": 716}, {"note": 77, "velocity": 86, "duration": 236}, {"note": 79, "velocity": 82, "duration": 476}, {"note": 81, "velocity": 86, "duration": 476}, {"note": 79, "velocity": 82, "duration": 716}, {"note": 77, "velocity": 86, "duration": 236}, {"note": 74, "velocity": 83, "duration": 476}, {"note": 72, "velocity": 91, "duration": 476}, {"note": 69, "velocity": 90, "duration": 716}, {"note": 72, "velocity": 84, "duration": 236}, {"note": 79, "velocity": 56, "duration": 476}, {"note": 74, "velocity": 82, "duration": 476}, {"note": 72, "velocity": 90, "duration": 956}, {"note": 0, "velocity": 0, "duration": 6724}, {"note": 81, "velocity": 79, "duration": 476}, {"note": 79, "velocity": 76, "duration": 476}, {"note": 81, "velocity": 84, "duration": 476}, {"note": 84, "velocity": 86, "duration": 476}, {"note": 77, "velocity": 83, "duration": 716}, {"note": 74, "velocity": 79, "duration": 236}, {"note": 84, "velocity": 94, "duration": 476}, {"note": 81, "velocity": 84, "duration": 476}, {"note": 81, "velocity": 82, "duration": 476}, {"note": 79, "velocity": 61, "duration": 1436}, {"note": 77, "velocity": 93, "duration": 476}, {"note": 77, "velocity": 93, "duration": 236}, {"note": 74, "velocity": 95, "duration": 236}, {"note": 77, "velocity": 84, "duration": 476}, {"note": 79, "velocity": 83, "duration": 236}, {"note": 81, "velocity": 73, "duration": 236}, {"note": 77, "velocity": 83, "duration": 716}, {"note": 74, "velocity": 82, "duration": 236}, {"note": 72, "velocity": 82, "duration": 476}, {"note": 69, "velocity": 83, "duration": 476}, {"note": 72, "velocity": 93, "duration": 1916}, {"note": 74, "velocity": 93, "duration": 956}, {"note": 74, "velocity": 86, "duration": 236}, {"note": 77, "velocity": 95, "duration": 236}, {"note": 72, "velocity": 90, "duration": 476}, {"note": 74, "velocity": 90, "duration": 716}, {"note": 77, "velocity": 80, "duration": 236}, {"note": 79, "velocity": 80, "duration": 476}, {"note": 81, "velocity": 90, "duration": 476}, {"note": 79, "velocity": 82, "duration": 476}, {"note": 77, "velocity": 86, "duration": 476}, {"note": 74, "velocity": 84, "duration": 476}, {"note": 72, "velocity": 95, "duration": 476}, {"note": 74, "velocity": 86, "duration": 1916}, {"note": 74, "velocity": 91, "duration": 716}, {"note": 77, "velocity": 86, "duration": 236}, {"note": 79, "velocity": 82, "duration": 476}, {"note": 81, "velocity": 86, "duration": 476}, {"note": 79, "velocity": 82, "duration": 716}, {"note": 77, "velocity": 86, "duration": 236}, {"note": 74, "velocity": 83, "duration": 476}, {"note": 72, "velocity": 91, "duration": 476}, {"note": 69, "velocity": 90, "duration": 716}, {"note": 72, "velocity": 84, "duration": 236}, {"note": 79, "velocity": 56, "duration": 476}, {"note": 74, "velocity": 82, "duration": 476}, {"note": 72, "velocity": 90, "duration": 956}]]