[[{"note": 70, "velocity": 48, "duration": 239}, {"note": 72, "velocity": 62, "duration": 238}, {"note": 68, "velocity": 59, "duration": 478}, {"note": 65, "velocity": 61, "duration": 238}, {"note": 68, "velocity": 52, "duration": 718}, {"note": 70, "velocity": 72, "duration": 237}, {"note": 70, "velocity": 74, "duration": 1677}, {"note": 70, "velocity": 91, "duration": 238}, {"note": 72, "velocity": 66, "duration": 238}, {"note": 68, "velocity": 69, "duration": 478}, {"note": 65, "velocity": 61, "duration": 265}, {"note": 68, "velocity": 69, "duration": 718}, {"note": 72, "velocity": 86, "duration": 237}, {"note": 72, "velocity": 87, "duration": 1678}, {"note": 70, "velocity": 83, "duration": 238}, {"note": 72, "velocity": 62, "duration": 299}, {"note": 70, "velocity": 82, "duration": 238}, {"note": 68, "velocity": 61, "duration": 237}, {"note": 68, "velocity": 61, "duration": 477}, {"note": 68, "velocity": 65, "duration": 479}, {"note": 65, "velocity": 56, "duration": 478}, {"note": 63, "velocity": 54, "duration": 238}, {"note": 68, "velocity": 74, "duration": 477}, {"note": 68, "velocity": 71, "duration": 1198}, {"note": 72, "velocity": 89, "duration": 478}, {"note": 70, "velocity": 66, "duration": 237}, {"note": 70, "velocity": 85, "duration": 718}, {"note": 68, "velocity": 85, "duration": 250}, {"note": 70, "velocity": 94, "duration": 1078}, {"note": 0, "velocity": 0, "duration": 602}, {"note": 70, "velocity": 48, "duration": 238}, {"note": 72, "velocity": 62, "duration": 238}, {"note": 68, "velocity": 59, "duration": 478}, {"note": 65, "velocity": 61, "duration": 238}, {"note": 68, "velocity": 52, "duration": 598}, {"note": 0, "velocity": 0, "duration": 122}, {"note": 70, "velocity": 72, "duration": 238}, {"note": 70, "velocity": 74, "duration": 718}, {"note": 0, "velocity": 0, "duration": 962}, {"note": 70, "velocity": 91, "duration": 238}, {"note": 72, "velocity": 66, "duration": 238}, {"note": 68, "velocity": 69, "duration": 478}, {"note": 65, "velocity": 61, "duration": 265}, {"note": 68, "velocity": 69, "duration": 718}, {"note": 72, "velocity": 86, "duration": 237}, {"note": 72, "velocity": 87, "duration": 718}, {"note": 0, "velocity": 0, "duration": 962}, {"note": 70, "velocity": 97, "duration": 238}, {"note": 72, "velocity": 84, "duration": 248}, {"note": 70, "velocity": 82, "duration": 478}, {"note": 68, "velocity": 66, "duration": 237}, {"note": 68, "velocity": 67, "duration": 478}, {"note": 75, "velocity": 89, "duration": 477}, {"note": 75, "velocity": 77, "duration": 478}, {"note": 67, "velocity": 81, "duration": 478}, {"note": 68, "velocity": 79, "duration": 958}, {"note": 63, "velocity": 67, "duration": 246}, {"note": 72, "velocity": 72, "duration": 478}, {"note": 70, "velocity": 87, "duration": 237}, {"note": 70, "velocity": 94, "duration": 718}, {"note": 68, "velocity": 90, "duration": 295}, {"note": 70, "velocity": 98, "duration": 1198}, {"note": 0, "velocity": 0, "duration": 1682}, {"note": 75, "velocity": 91, "duration": 254}, {"note": 77, "velocity": 87, "duration": 268}, {"note": 75, "velocity": 83, "duration": 238}, {"note": 72, "velocity": 74, "duration": 238}, {"note": 70, "velocity": 68, "duration": 241}, {"note": 72, "velocity": 87, "duration": 718}, {"note": 75, "velocity": 92, "duration": 238}, {"note": 77, "velocity": 80, "duration": 275}, {"note": 75, "velocity": 91, "duration": 242}, {"note": 72, "velocity": 71, "duration": 238}, {"note": 68, "velocity": 66, "duration": 238}, {"note": 70, "velocity": 97, "duration": 718}, {"note": 75, "velocity": 76, "duration": 238}, {"note": 77, "velocity": 81, "duration": 379}, {"note": 75, "velocity": 76, "duration": 271}, {"note": 70, "velocity": 66, "duration": 238}, {"note": 67, "velocity": 62, "duration": 249}, {"note": 68, "velocity": 63, "duration": 238}, {"note": 67, "velocity": 49, "duration": 240}, {"note": 68, "velocity": 63, "duration": 238}, {"note": 70, "velocity": 65, "duration": 238}, {"note": 72, "velocity": 80, "duration": 249}, {"note": 70, "velocity": 66, "duration": 247}, {"note": 72, "velocity": 76, "duration": 238}, {"note": 73, "velocity": 74, "duration": 242}, {"note": 75, "velocity": 93, "duration": 717}, {"note": 75, "velocity": 90, "duration": 237}, {"note": 75, "velocity": 84, "duration": 238}, {"note": 77, "velocity": 85, "duration": 238}, {"note": 70, "velocity": 84, "duration": 238}, {"note": 72, "velocity": 79, "duration": 238}, {"note": 68, "velocity": 82, "duration": 718}, {"note": 75, "velocity": 95, "duration": 237}, {"note": 75, "velocity": 95, "duration": 238}, {"note": 77, "velocity": 89, "duration": 238}, {"note": 70, "velocity": 75, "duration": 238}, {"note": 72, "velocity": 89, "duration": 7}, {"note": 68, "velocity": 96, "duration": 718}, {"note": 72, "velocity": 90, "duration": 237}, {"note": 72, "velocity": 84, "duration": 237}, {"note": 72, "velocity": 87, "duration": 238}, {"note": 70, "velocity": 75, "duration": 238}, {"note": 68, "velocity": 64, "duration": 262}, {"note": 70, "velocity": 77, "duration": 237}, {"note": 70, "velocity": 83, "duration": 237}, {"note": 70, "velocity": 86, "duration": 238}, {"note": 72, "velocity": 64, "duration": 254}, {"note": 73, "velocity": 69, "duration": 238}, {"note": 72, "velocity": 77, "duration": 238}, {"note": 70, "velocity": 77, "duration": 238}, {"note": 68, "velocity": 66, "duration": 245}, {"note": 70, "velocity": 87, "duration": 718}, {"note": 75, "velocity": 96, "duration": 238}, {"note": 77, "velocity": 94, "duration": 264}, {"note": 75, "velocity": 100, "duration": 238}, {"note": 72, "velocity": 90, "duration": 238}, {"note": 70, "velocity": 91, "duration": 238}, {"note": 72, "velocity": 91, "duration": 718}, {"note": 75, "velocity": 97, "duration": 238}, {"note": 77, "velocity": 93, "duration": 265}, {"note": 75, "velocity": 93, "duration": 250}, {"note": 72, "velocity": 68, "duration": 238}, {"note": 68, "velocity": 62, "duration": 238}, {"note": 70, "velocity": 96, "duration": 718}, {"note": 75, "velocity": 97, "duration": 264}, {"note": 77, "velocity": 91, "duration": 238}, {"note": 75, "velocity": 80, "duration": 238}, {"note": 70, "velocity": 66, "duration": 238}, {"note": 67, "velocity": 62, "duration": 238}, {"note": 68, "velocity": 63, "duration": 238}, {"note": 67, "velocity": 62, "duration": 238}, {"note": 68, "velocity": 68, "duration": 263}, {"note": 70, "velocity": 83, "duration": 238}, {"note": 72, "velocity": 79, "duration": 238}, {"note": 70, "velocity": 67, "duration": 291}, {"note": 72, "velocity": 74, "duration": 238}, {"note": 79, "velocity": 66, "duration": 478}, {"note": 75, "velocity": 90, "duration": 477}, {"note": 75, "velocity": 100, "duration": 237}, {"note": 75, "velocity": 91, "duration": 244}, {"note": 77, "velocity": 95, "duration": 238}, {"note": 70, "velocity": 87, "duration": 253}, {"note": 72, "velocity": 85, "duration": 238}, {"note": 68, "velocity": 94, "duration": 718}, {"note": 75, "velocity": 90, "duration": 237}, {"note": 75, "velocity": 89, "duration": 237}, {"note": 75, "velocity": 86, "duration": 238}, {"note": 70, "velocity": 84, "duration": 238}, {"note": 72, "velocity": 93, "duration": 238}, {"note": 68, "velocity": 93, "duration": 718}, {"note": 72, "velocity": 73, "duration": 237}, {"note": 72, "velocity": 56, "duration": 237}, {"note": 72, "velocity": 84, "duration": 238}, {"note": 70, "velocity": 73, "duration": 238}, {"note": 68, "velocity": 66, "duration": 238}, {"note": 70, "velocity": 81, "duration": 477}, {"note": 70, "velocity": 91, "duration": 238}, {"note": 72, "velocity": 79, "duration": 238}, {"note": 73, "velocity": 80, "duration": 238}, {"note": 72, "velocity": 74, "duration": 238}, {"note": 70, "velocity": 69, "duration": 238}, {"note": 68, "velocity": 66, "duration": 238}, {"note": 70, "velocity": 90, "duration": 718}, {"note": 63, "velocity": 66, "duration": 238}, {"note": 72, "velocity": 91, "duration": 958}, {"note": 70, "velocity": 97, "duration": 478}, {"note": 68, "velocity": 93, "duration": 1678}, {"note": 0, "velocity": 0, "duration": 16562}, {"note": 70, "velocity": 48, "duration": 239}, {"note": 72, "velocity": 62, "duration": 238}, {"note": 68, "velocity": 59, "duration": 478}, {"note": 65, "velocity": 61, "duration": 238}, {"note": 68, "velocity": 52, "duration": 718}, {"note": 70, "velocity": 72, "duration": 237}, {"note": 70, "velocity": 74, "duration": 1677}, {"note": 70, "velocity": 91, "duration": 238}, {"note": 72, "velocity": 66, "duration": 238}, {"note": 68, "velocity": 69, "duration": 478}, {"note": 65, "velocity": 61, "duration": 265}, {"note": 68, "velocity": 69, "duration": 718}, {"note": 72, "velocity": 86, "duration": 237}, {"note": 72, "velocity": 87, "duration": 1678}, {"note": 70, "velocity": 83, "duration": 238}, {"note": 72, "velocity": 62, "duration": 299}, {"note": 70, "velocity": 82, "duration": 478}, {"note": 68, "velocity": 61, "duration": 238}, {"note": 68, "velocity": 61, "duration": 478}, {"note": 75, "velocity": 65, "duration": 477}, {"note": 75, "velocity": 56, "duration": 238}, {"note": 63, "velocity": 54, "duration": 238}, {"note": 72, "velocity": 74, "duration": 238}, {"note": 70, "velocity": 74, "duration": 238}, {"note": 68, "velocity": 71, "duration": 958}, {"note": 63, "velocity": 71, "duration": 238}, {"note": 72, "velocity": 89, "duration": 478}, {"note": 70, "velocity": 66, "duration": 237}, {"note": 70, "velocity": 85, "duration": 718}, {"note": 68, "velocity": 85, "duration": 250}, {"note": 70, "velocity": 94, "duration": 958}, {"note": 75, "velocity": 96, "duration": 238}, {"note": 77, "velocity": 94, "duration": 264}, {"note": 75, "velocity": 100, "duration": 238}, {"note": 72, "velocity": 90, "duration": 238}, {"note": 70, "velocity": 91, "duration": 238}, {"note": 72, "velocity": 91, "duration": 718}, {"note": 75, "velocity": 97, "duration": 238}, {"note": 77, "velocity": 93, "duration": 265}, {"note": 75, "velocity": 93, "duration": 250}, {"note": 72, "velocity": 68, "duration": 238}, {"note": 68, "velocity": 62, "duration": 238}, {"note": 70, "velocity": 96, "duration": 718}, {"note": 75, "velocity": 97, "duration": 264}, {"note": 77, "velocity": 91, "duration": 238}, {"note": 75, "velocity": 80, "duration": 238}, {"note": 70, "velocity": 66, "duration": 238}, {"note": 67, "velocity": 62, "duration": 238}, {"note": 68, "velocity": 63, "duration": 238}, {"note": 67, "velocity": 62, "duration": 238}, {"note": 68, "velocity": 68, "duration": 263}, {"note": 70, "velocity": 83, "duration": 238}, {"note": 72, "velocity": 79, "duration": 238}, {"note": 70, "velocity": 67, "duration": 291}, {"note": 72, "velocity": 74, "duration": 238}, {"note": 73, "velocity": 66, "duration": 238}, {"note": 75, "velocity": 90, "duration": 717}, {"note": 75, "velocity": 100, "duration": 237}, {"note": 75, "velocity": 91, "duration": 244}, {"note": 77, "velocity": 95, "duration": 238}, {"note": 70, "velocity": 87, "duration": 253}, {"note": 72, "velocity": 85, "duration": 238}, {"note": 68, "velocity": 94, "duration": 718}, {"note": 75, "velocity": 90, "duration": 237}, {"note": 75, "velocity": 89, "duration": 237}, {"note": 75, "velocity": 86, "duration": 238}, {"note": 70, "velocity": 84, "duration": 238}, {"note": 72, "velocity": 93, "duration": 238}, {"note": 68, "velocity": 93, "duration": 718}, {"note": 72, "velocity": 73, "duration": 237}, {"note": 72, "velocity": 56, "duration": 237}, {"note": 72, "velocity": 84, "duration": 238}, {"note": 70, "velocity": 73, "duration": 238}, {"note": 68, "velocity": 66, "duration": 238}, {"note": 70, "velocity": 81, "duration": 238}, {"note": 70, "velocity": 81, "duration": 238}, {"note": 70, "velocity": 91, "duration": 238}, {"note": 72, "velocity": 79, "duration": 238}, {"note": 73, "velocity": 80, "duration": 238}, {"note": 72, "velocity": 74, "duration": 238}, {"note": 70, "velocity": 69, "duration": 238}, {"note": 68, "velocity": 66, "duration": 238}, {"note": 70, "velocity": 90, "duration": 718}, {"note": 75, "velocity": 96, "duration": 238}, {"note": 77, "velocity": 94, "duration": 264}, {"note": 75, "velocity": 100, "duration": 238}, {"note": 72, "velocity": 90, "duration": 238}, {"note": 70, "velocity": 91, "duration": 238}, {"note": 72, "velocity": 91, "duration": 718}, {"note": 75, "velocity": 97, "duration": 238}, {"note": 77, "velocity": 93, "duration": 265}, {"note": 75, "velocity": 93, "duration": 250}, {"note": 72, "velocity": 68, "duration": 238}, {"note": 68, "velocity": 62, "duration": 238}, {"note": 70, "velocity": 96, "duration": 718}, {"note": 75, "velocity": 97, "duration": 264}, {"note": 77, "velocity": 91, "duration": 238}, {"note": 75, "velocity": 80, "duration": 238}, {"note": 70, "velocity": 66, "duration": 238}, {"note": 67, "velocity": 62, "duration": 238}, {"note": 68, "velocity": 63, "duration": 238}, {"note": 67, "velocity": 62, "duration": 238}, {"note": 68, "velocity": 68, "duration": 263}, {"note": 70, "velocity": 83, "duration": 238}, {"note": 72, "velocity": 79, "duration": 238}, {"note": 70, "velocity": 67, "duration": 291}, {"note": 72, "velocity": 74, "duration": 238}, {"note": 79, "velocity": 66, "duration": 478}, {"note": 75, "velocity": 90, "duration": 477}, {"note": 75, "velocity": 100, "duration": 237}, {"note": 75, "velocity": 91, "duration": 244}, {"note": 77, "velocity": 95, "duration": 238}, {"note": 70, "velocity": 87, "duration": 253}, {"note": 72, "velocity": 85, "duration": 238}, {"note": 68, "velocity": 94, "duration": 718}, {"note": 75, "velocity": 90, "duration": 237}, {"note": 75, "velocity": 89, "duration": 237}, {"note": 75, "velocity": 86, "duration": 238}, {"note": 70, "velocity": 84, "duration": 238}, {"note": 72, "velocity": 93, "duration": 238}, {"note": 68, "velocity": 93, "duration": 718}, {"note": 72, "velocity": 73, "duration": 237}, {"note": 72, "velocity": 56, "duration": 237}, {"note": 72, "velocity": 84, "duration": 238}, {"note": 70, "velocity": 73, "duration": 238}, {"note": 68, "velocity": 66, "duration": 238}, {"note": 70, "velocity": 81, "duration": 477}, {"note": 70, "velocity": 91, "duration": 238}, {"note": 72, "velocity": 79, "duration": 238}, {"note": 73, "velocity": 80, "duration": 238}, {"note": 72, "velocity": 74, "duration": 238}, {"note": 70, "velocity": 69, "duration": 238}, {"note": 68, "velocity": 66, "duration": 238}, {"note": 70, "velocity": 90, "duration": 718}, {"note": 63, "velocity": 66, "duration": 238}, {"note": 72, "velocity": 91, "duration": 718}, {"note": 70, "velocity": 97, "duration": 478}, {"note": 68, "velocity": 93, "duration": 1680}, {"note": 0, "velocity": 0, "duration": 12240}, {"note": 75, "velocity": 96, "duration": 238}, {"note": 77, "velocity": 94, "duration": 238}, {"note": 75, "velocity": 100, "duration": 238}, {"note": 72, "velocity": 90, "duration": 238}, {"note": 70, "velocity": 91, "duration": 238}, {"note": 72, "velocity": 91, "duration": 718}, {"note": 75, "velocity": 97, "duration": 238}, {"note": 77, "velocity": 93, "duration": 238}, {"note": 75, "velocity": 93, "duration": 238}, {"note": 72, "velocity": 68, "duration": 238}, {"note": 68, "velocity": 62, "duration": 238}, {"note": 70, "velocity": 96, "duration": 718}, {"note": 75, "velocity": 97, "duration": 238}, {"note": 77, "velocity": 91, "duration": 238}, {"note": 75, "velocity": 80, "duration": 238}, {"note": 70, "velocity": 66, "duration": 238}, {"note": 67, "velocity": 62, "duration": 238}, {"note": 68, "velocity": 63, "duration": 238}, {"note": 67, "velocity": 62, "duration": 238}, {"note": 68, "velocity": 68, "duration": 238}, {"note": 70, "velocity": 83, "duration": 238}, {"note": 72, "velocity": 79, "duration": 238}, {"note": 70, "velocity": 67, "duration": 238}, {"note": 72, "velocity": 74, "duration": 238}, {"note": 73, "velocity": 66, "duration": 238}, {"note": 75, "velocity": 90, "duration": 717}, {"note": 75, "velocity": 100, "duration": 237}, {"note": 75, "velocity": 91, "duration": 238}, {"note": 77, "velocity": 95, "duration": 238}, {"note": 70, "velocity": 87, "duration": 238}, {"note": 72, "velocity": 85, "duration": 238}, {"note": 68, "velocity": 94, "duration": 718}, {"note": 75, "velocity": 90, "duration": 237}, {"note": 75, "velocity": 89, "duration": 237}, {"note": 75, "velocity": 86, "duration": 238}, {"note": 70, "velocity": 84, "duration": 238}, {"note": 72, "velocity": 93, "duration": 238}, {"note": 68, "velocity": 93, "duration": 718}, {"note": 72, "velocity": 73, "duration": 237}, {"note": 72, "velocity": 56, "duration": 237}, {"note": 72, "velocity": 84, "duration": 238}, {"note": 70, "velocity": 73, "duration": 238}, {"note": 68, "velocity": 66, "duration": 238}, {"note": 70, "velocity": 81, "duration": 238}, {"note": 70, "velocity": 81, "duration": 237}, {"note": 70, "velocity": 91, "duration": 238}, {"note": 72, "velocity": 79, "duration": 238}, {"note": 73, "velocity": 80, "duration": 238}, {"note": 75, "velocity": 74, "duration": 238}, {"note": 72, "velocity": 69, "duration": 238}, {"note": 68, "velocity": 66, "duration": 238}, {"note": 70, "velocity": 90, "duration": 718}, {"note": 75, "velocity": 96, "duration": 238}, {"note": 77, "velocity": 94, "duration": 264}, {"note": 75, "velocity": 100, "duration": 238}, {"note": 72, "velocity": 90, "duration": 238}, {"note": 70, "velocity": 91, "duration": 238}, {"note": 72, "velocity": 91, "duration": 718}, {"note": 75, "velocity": 97, "duration": 238}, {"note": 77, "velocity": 93, "duration": 265}, {"note": 75, "velocity": 93, "duration": 250}, {"note": 72, "velocity": 68, "duration": 238}, {"note": 68, "velocity": 62, "duration": 238}, {"note": 70, "velocity": 96, "duration": 718}, {"note": 75, "velocity": 97, "duration": 264}, {"note": 77, "velocity": 91, "duration": 238}, {"note": 75, "velocity": 80, "duration": 238}, {"note": 70, "velocity": 66, "duration": 238}, {"note": 67, "velocity": 62, "duration": 238}, {"note": 68, "velocity": 63, "duration": 238}, {"note": 67, "velocity": 62, "duration": 238}, {"note": 68, "velocity": 68, "duration": 263}, {"note": 70, "velocity": 83, "duration": 238}, {"note": 72, "velocity": 79, "duration": 238}, {"note": 70, "velocity": 67, "duration": 291}, {"note": 72, "velocity": 74, "duration": 238}, {"note": 79, "velocity": 66, "duration": 478}, {"note": 75, "velocity": 90, "duration": 477}, {"note": 75, "velocity": 100, "duration": 237}, {"note": 75, "velocity": 91, "duration": 238}, {"note": 75, "velocity": 95, "duration": 238}, {"note": 70, "velocity": 87, "duration": 253}, {"note": 72, "velocity": 85, "duration": 238}, {"note": 68, "velocity": 94, "duration": 718}, {"note": 75, "velocity": 90, "duration": 237}, {"note": 75, "velocity": 89, "duration": 237}, {"note": 75, "velocity": 86, "duration": 238}, {"note": 70, "velocity": 84, "duration": 238}, {"note": 72, "velocity": 93, "duration": 238}, {"note": 68, "velocity": 93, "duration": 718}, {"note": 72, "velocity": 73, "duration": 237}, {"note": 72, "velocity": 56, "duration": 237}, {"note": 72, "velocity": 84, "duration": 238}, {"note": 70, "velocity": 73, "duration": 238}, {"note": 68, "velocity": 66, "duration": 238}, {"note": 70, "velocity": 81, "duration": 477}, {"note": 70, "velocity": 91, "duration": 238}, {"note": 72, "velocity": 79, "duration": 238}, {"note": 73, "velocity": 80, "duration": 238}, {"note": 72, "velocity": 74, "duration": 238}, {"note": 70, "velocity": 69, "duration": 238}, {"note": 68, "velocity": 66, "duration": 238}, {"note": 70, "velocity": 90, "duration": 718}, {"note": 63, "velocity": 66, "duration": 238}, {"note": 72, "velocity": 91, "duration": 958}, {"note": 70, "velocity": 97, "duration": 478}, {"note": 68, "velocity": 93, "duration": 1798}]]