[[{"note": 72, "velocity": 77, "duration": 238}, {"note": 74, "velocity": 64, "duration": 66}, {"note": 77, "velocity": 79, "duration": 13}, {"note": 74, "velocity": 62, "duration": 112}, {"note": 79, "velocity": 92, "duration": 223}, {"note": 81, "velocity": 97, "duration": 1324}, {"note": 72, "velocity": 47, "duration": 244}, {"note": 81, "velocity": 66, "duration": 238}, {"note": 79, "velocity": 62, "duration": 237}, {"note": 79, "velocity": 76, "duration": 238}, {"note": 77, "velocity": 54, "duration": 237}, {"note": 77, "velocity": 79, "duration": 479}, {"note": 74, "velocity": 50, "duration": 276}, {"note": 77, "velocity": 66, "duration": 2158}, {"note": 72, "velocity": 66, "duration": 265}, {"note": 74, "velocity": 52, "duration": 238}, {"note": 77, "velocity": 65, "duration": 267}, {"note": 74, "velocity": 58, "duration": 466}, {"note": 77, "velocity": 56, "duration": 238}, {"note": 79, "velocity": 66, "duration": 1924}, {"note": 72, "velocity": 71, "duration": 242}, {"note": 74, "velocity": 61, "duration": 55}, {"note": 77, "velocity": 79, "duration": 261}, {"note": 79, "velocity": 77, "duration": 238}, {"note": 81, "velocity": 77, "duration": 1437}, {"note": 81, "velocity": 93, "duration": 499}, {"note": 79, "velocity": 86, "duration": 958}, {"note": 72, "velocity": 65, "duration": 280}, {"note": 74, "velocity": 66, "duration": 238}, {"note": 77, "velocity": 90, "duration": 238}, {"note": 74, "velocity": 65, "duration": 239}, {"note": 79, "velocity": 90, "duration": 515}, {"note": 81, "velocity": 91, "duration": 2158}, {"note": 72, "velocity": 62, "duration": 251}, {"note": 81, "velocity": 66, "duration": 261}, {"note": 79, "velocity": 63, "duration": 237}, {"note": 79, "velocity": 66, "duration": 248}, {"note": 77, "velocity": 54, "duration": 237}, {"note": 77, "velocity": 68, "duration": 478}, {"note": 74, "velocity": 54, "duration": 247}, {"note": 77, "velocity": 67, "duration": 241}, {"note": 72, "velocity": 92, "duration": 196}, {"note": 74, "velocity": 65, "duration": 238}, {"note": 77, "velocity": 92, "duration": 238}, {"note": 74, "velocity": 86, "duration": 718}, {"note": 77, "velocity": 69, "duration": 148}, {"note": 79, "velocity": 90, "duration": 1918}, {"note": 72, "velocity": 66, "duration": 265}, {"note": 74, "velocity": 56, "duration": 238}, {"note": 77, "velocity": 65, "duration": 238}, {"note": 79, "velocity": 73, "duration": 238}, {"note": 81, "velocity": 81, "duration": 1437}, {"note": 81, "velocity": 80, "duration": 502}, {"note": 79, "velocity": 87, "duration": 958}, {"note": 72, "velocity": 77, "duration": 294}, {"note": 74, "velocity": 66, "duration": 246}, {"note": 77, "velocity": 95, "duration": 233}, {"note": 79, "velocity": 89, "duration": 511}, {"note": 81, "velocity": 90, "duration": 237}, {"note": 81, "velocity": 92, "duration": 958}, {"note": 81, "velocity": 100, "duration": 238}, {"note": 84, "velocity": 93, "duration": 285}, {"note": 86, "velocity": 96, "duration": 180}, {"note": 81, "velocity": 94, "duration": 678}, {"note": 81, "velocity": 92, "duration": 104}, {"note": 84, "velocity": 80, "duration": 113}, {"note": 86, "velocity": 90, "duration": 169}, {"note": 88, "velocity": 92, "duration": 243}, {"note": 86, "velocity": 90, "duration": 270}, {"note": 88, "velocity": 90, "duration": 288}, {"note": 86, "velocity": 91, "duration": 358}, {"note": 84, "velocity": 94, "duration": 55}, {"note": 84, "velocity": 89, "duration": 238}, {"note": 81, "velocity": 95, "duration": 1379}, {"note": 81, "velocity": 100, "duration": 238}, {"note": 79, "velocity": 79, "duration": 278}, {"note": 81, "velocity": 92, "duration": 478}, {"note": 84, "velocity": 87, "duration": 75}, {"note": 81, "velocity": 97, "duration": 478}, {"note": 79, "velocity": 91, "duration": 238}, {"note": 74, "velocity": 92, "duration": 148}, {"note": 77, "velocity": 91, "duration": 1077}, {"note": 77, "velocity": 84, "duration": 238}, {"note": 79, "velocity": 61, "duration": 238}, {"note": 81, "velocity": 66, "duration": 247}, {"note": 79, "velocity": 50, "duration": 237}, {"note": 79, "velocity": 55, "duration": 260}, {"note": 77, "velocity": 56, "duration": 237}, {"note": 77, "velocity": 60, "duration": 357}, {"note": 77, "velocity": 55, "duration": 358}, {"note": 74, "velocity": 57, "duration": 238}, {"note": 79, "velocity": 52, "duration": 958}, {"note": 72, "velocity": 90, "duration": 111}, {"note": 74, "velocity": 89, "duration": 63}, {"note": 77, "velocity": 100, "duration": 236}, {"note": 79, "velocity": 91, "duration": 488}, {"note": 81, "velocity": 93, "duration": 11}, {"note": 81, "velocity": 100, "duration": 40}, {"note": 81, "velocity": 98, "duration": 147}, {"note": 84, "velocity": 99, "duration": 396}, {"note": 86, "velocity": 90, "duration": 76}, {"note": 81, "velocity": 100, "duration": 273}, {"note": 81, "velocity": 97, "duration": 238}, {"note": 84, "velocity": 86, "duration": 238}, {"note": 86, "velocity": 84, "duration": 238}, {"note": 88, "velocity": 79, "duration": 104}, {"note": 86, "velocity": 84, "duration": 238}, {"note": 88, "velocity": 82, "duration": 516}, {"note": 86, "velocity": 87, "duration": 340}, {"note": 84, "velocity": 87, "duration": 105}, {"note": 84, "velocity": 90, "duration": 237}, {"note": 81, "velocity": 90, "duration": 1437}, {"note": 81, "velocity": 106, "duration": 247}, {"note": 79, "velocity": 92, "duration": 238}, {"note": 81, "velocity": 95, "duration": 87}, {"note": 84, "velocity": 90, "duration": 692}, {"note": 81, "velocity": 100, "duration": 478}, {"note": 79, "velocity": 96, "duration": 238}, {"note": 74, "velocity": 87, "duration": 358}, {"note": 77, "velocity": 96, "duration": 1078}, {"note": 74, "velocity": 99, "duration": 238}, {"note": 72, "velocity": 77, "duration": 291}, {"note": 74, "velocity": 89, "duration": 478}, {"note": 77, "velocity": 84, "duration": 477}, {"note": 77, "velocity": 90, "duration": 357}, {"note": 77, "velocity": 91, "duration": 358}, {"note": 81, "velocity": 91, "duration": 238}, {"note": 79, "velocity": 93, "duration": 718}, {"note": 74, "velocity": 64, "duration": 237}, {"note": 74, "velocity": 87, "duration": 358}, {"note": 77, "velocity": 98, "duration": 358}, {"note": 79, "velocity": 99, "duration": 73}, {"note": 77, "velocity": 103, "duration": 1139}, {"note": 0, "velocity": 0, "duration": 16322}, {"note": 72, "velocity": 89, "duration": 238}, {"note": 74, "velocity": 64, "duration": 15}, {"note": 77, "velocity": 79, "duration": 77}, {"note": 74, "velocity": 62, "duration": 51}, {"note": 79, "velocity": 92, "duration": 72}, {"note": 81, "velocity": 97, "duration": 1388}, {"note": 72, "velocity": 47, "duration": 238}, {"note": 81, "velocity": 66, "duration": 358}, {"note": 79, "velocity": 62, "duration": 237}, {"note": 79, "velocity": 76, "duration": 238}, {"note": 77, "velocity": 54, "duration": 237}, {"note": 77, "velocity": 79, "duration": 479}, {"note": 74, "velocity": 50, "duration": 238}, {"note": 77, "velocity": 66, "duration": 2158}, {"note": 72, "velocity": 66, "duration": 265}, {"note": 74, "velocity": 52, "duration": 238}, {"note": 77, "velocity": 65, "duration": 267}, {"note": 74, "velocity": 58, "duration": 531}, {"note": 77, "velocity": 56, "duration": 238}, {"note": 79, "velocity": 66, "duration": 2108}, {"note": 72, "velocity": 71, "duration": 121}, {"note": 74, "velocity": 61, "duration": 117}, {"note": 77, "velocity": 79, "duration": 261}, {"note": 79, "velocity": 77, "duration": 238}, {"note": 81, "velocity": 77, "duration": 1437}, {"note": 81, "velocity": 93, "duration": 499}, {"note": 79, "velocity": 86, "duration": 958}, {"note": 72, "velocity": 65, "duration": 280}, {"note": 74, "velocity": 66, "duration": 238}, {"note": 77, "velocity": 90, "duration": 238}, {"note": 74, "velocity": 65, "duration": 239}, {"note": 79, "velocity": 90, "duration": 515}, {"note": 81, "velocity": 91, "duration": 2158}, {"note": 72, "velocity": 62, "duration": 251}, {"note": 81, "velocity": 66, "duration": 261}, {"note": 79, "velocity": 63, "duration": 237}, {"note": 79, "velocity": 66, "duration": 248}, {"note": 77, "velocity": 54, "duration": 237}, {"note": 77, "velocity": 68, "duration": 478}, {"note": 74, "velocity": 54, "duration": 247}, {"note": 77, "velocity": 67, "duration": 27}, {"note": 72, "velocity": 92, "duration": 238}, {"note": 74, "velocity": 65, "duration": 238}, {"note": 77, "velocity": 92, "duration": 238}, {"note": 74, "velocity": 86, "duration": 718}, {"note": 77, "velocity": 69, "duration": 212}, {"note": 79, "velocity": 90, "duration": 1918}, {"note": 72, "velocity": 66, "duration": 265}, {"note": 74, "velocity": 56, "duration": 238}, {"note": 77, "velocity": 65, "duration": 238}, {"note": 79, "velocity": 73, "duration": 238}, {"note": 81, "velocity": 81, "duration": 1437}, {"note": 81, "velocity": 80, "duration": 502}, {"note": 79, "velocity": 87, "duration": 958}, {"note": 72, "velocity": 77, "duration": 294}, {"note": 74, "velocity": 66, "duration": 246}, {"note": 77, "velocity": 95, "duration": 297}, {"note": 79, "velocity": 89, "duration": 511}, {"note": 81, "velocity": 90, "duration": 237}, {"note": 81, "velocity": 92, "duration": 958}, {"note": 81, "velocity": 100, "duration": 4}, {"note": 84, "velocity": 93, "duration": 4}, {"note": 86, "velocity": 96, "duration": 23}, {"note": 81, "velocity": 94, "duration": 717}, {"note": 81, "velocity": 92, "duration": 169}, {"note": 84, "velocity": 80, "duration": 24}, {"note": 86, "velocity": 90, "duration": 60}, {"note": 88, "velocity": 92, "duration": 247}, {"note": 86, "velocity": 90, "duration": 270}, {"note": 88, "velocity": 90, "duration": 288}, {"note": 86, "velocity": 91, "duration": 358}, {"note": 84, "velocity": 94, "duration": 119}, {"note": 84, "velocity": 89, "duration": 4}, {"note": 81, "velocity": 95, "duration": 1437}, {"note": 81, "velocity": 100, "duration": 238}, {"note": 79, "velocity": 79, "duration": 238}, {"note": 81, "velocity": 92, "duration": 478}, {"note": 84, "velocity": 87, "duration": 139}, {"note": 81, "velocity": 97, "duration": 598}, {"note": 79, "velocity": 91, "duration": 133}, {"note": 74, "velocity": 92, "duration": 332}, {"note": 77, "velocity": 91, "duration": 957}, {"note": 0, "velocity": 0, "duration": 123}, {"note": 77, "velocity": 84, "duration": 238}, {"note": 79, "velocity": 61, "duration": 238}, {"note": 81, "velocity": 66, "duration": 118}, {"note": 79, "velocity": 50, "duration": 238}, {"note": 79, "velocity": 55, "duration": 260}, {"note": 77, "velocity": 56, "duration": 237}, {"note": 77, "velocity": 60, "duration": 358}, {"note": 77, "velocity": 55, "duration": 478}, {"note": 74, "velocity": 57, "duration": 238}, {"note": 79, "velocity": 52, "duration": 12}, {"note": 72, "velocity": 90, "duration": 1}, {"note": 74, "velocity": 89, "duration": 127}, {"note": 77, "velocity": 100, "duration": 300}, {"note": 79, "velocity": 91, "duration": 488}, {"note": 81, "velocity": 93, "duration": 76}, {"note": 81, "velocity": 100, "duration": 104}, {"note": 81, "velocity": 98, "duration": 9}, {"note": 84, "velocity": 99, "duration": 19}, {"note": 86, "velocity": 90, "duration": 86}, {"note": 81, "velocity": 100, "duration": 286}, {"note": 81, "velocity": 97, "duration": 238}, {"note": 84, "velocity": 86, "duration": 238}, {"note": 86, "velocity": 84, "duration": 238}, {"note": 88, "velocity": 79, "duration": 119}, {"note": 86, "velocity": 84, "duration": 238}, {"note": 88, "velocity": 82, "duration": 238}, {"note": 86, "velocity": 87, "duration": 340}, {"note": 84, "velocity": 87, "duration": 180}, {"note": 84, "velocity": 90, "duration": 117}, {"note": 0, "velocity": 0, "duration": 123}, {"note": 81, "velocity": 90, "duration": 1437}, {"note": 81, "velocity": 106, "duration": 247}, {"note": 79, "velocity": 92, "duration": 22}, {"note": 81, "velocity": 95, "duration": 36}, {"note": 84, "velocity": 90, "duration": 718}, {"note": 81, "velocity": 100, "duration": 478}, {"note": 79, "velocity": 96, "duration": 238}, {"note": 74, "velocity": 87, "duration": 478}, {"note": 77, "velocity": 96, "duration": 958}, {"note": 74, "velocity": 99, "duration": 238}, {"note": 72, "velocity": 77, "duration": 238}, {"note": 74, "velocity": 89, "duration": 598}, {"note": 77, "velocity": 84, "duration": 477}, {"note": 77, "velocity": 90, "duration": 117}, {"note": 0, "velocity": 0, "duration": 243}, {"note": 77, "velocity": 91, "duration": 358}, {"note": 81, "velocity": 91, "duration": 238}, {"note": 79, "velocity": 93, "duration": 718}, {"note": 74, "velocity": 64, "duration": 237}, {"note": 0, "velocity": 0, "duration": 123}, {"note": 74, "velocity": 87, "duration": 358}, {"note": 77, "velocity": 98, "duration": 238}, {"note": 79, "velocity": 99, "duration": 137}, {"note": 77, "velocity": 103, "duration": 3}, {"note": 79, "velocity": 103, "duration": 238}, {"note": 77, "velocity": 103, "duration": 958}, {"note": 73, "velocity": 90, "duration": 88}, {"note": 75, "velocity": 89, "duration": 30}, {"note": 78, "velocity": 100, "duration": 387}, {"note": 80, "velocity": 91, "duration": 488}, {"note": 82, "velocity": 93, "duration": 162}, {"note": 82, "velocity": 100, "duration": 57}, {"note": 82, "velocity": 98, "duration": 67}, {"note": 85, "velocity": 99, "duration": 105}, {"note": 87, "velocity": 90, "duration": 173}, {"note": 82, "velocity": 100, "duration": 372}, {"note": 82, "velocity": 97, "duration": 238}, {"note": 85, "velocity": 86, "duration": 238}, {"note": 87, "velocity": 84, "duration": 238}, {"note": 89, "velocity": 79, "duration": 205}, {"note": 87, "velocity": 84, "duration": 238}, {"note": 89, "velocity": 82, "duration": 238}, {"note": 87, "velocity": 87, "duration": 340}, {"note": 85, "velocity": 87, "duration": 267}, {"note": 85, "velocity": 90, "duration": 117}, {"note": 0, "velocity": 0, "duration": 123}, {"note": 82, "velocity": 90, "duration": 1198}, {"note": 82, "velocity": 106, "duration": 487}, {"note": 80, "velocity": 92, "duration": 109}, {"note": 82, "velocity": 95, "duration": 122}, {"note": 85, "velocity": 90, "duration": 718}, {"note": 82, "velocity": 100, "duration": 478}, {"note": 80, "velocity": 96, "duration": 238}, {"note": 75, "velocity": 87, "duration": 478}, {"note": 78, "velocity": 96, "duration": 958}, {"note": 78, "velocity": 99, "duration": 238}, {"note": 80, "velocity": 77, "duration": 238}, {"note": 82, "velocity": 89, "duration": 238}, {"note": 80, "velocity": 89, "duration": 238}, {"note": 80, "velocity": 89, "duration": 238}, {"note": 78, "velocity": 84, "duration": 238}, {"note": 87, "velocity": 90, "duration": 357}, {"note": 85, "velocity": 91, "duration": 358}, {"note": 78, "velocity": 91, "duration": 238}, {"note": 80, "velocity": 93, "duration": 718}, {"note": 0, "velocity": 0, "duration": 242}, {"note": 73, "velocity": 90, "duration": 238}, {"note": 75, "velocity": 89, "duration": 238}, {"note": 78, "velocity": 100, "duration": 478}, {"note": 80, "velocity": 91, "duration": 253}, {"note": 82, "velocity": 93, "duration": 96}, {"note": 82, "velocity": 100, "duration": 957}, {"note": 82, "velocity": 98, "duration": 238}, {"note": 85, "velocity": 99, "duration": 478}, {"note": 87, "velocity": 90, "duration": 238}, {"note": 82, "velocity": 100, "duration": 717}, {"note": 82, "velocity": 97, "duration": 238}, {"note": 85, "velocity": 86, "duration": 238}, {"note": 87, "velocity": 84, "duration": 238}, {"note": 89, "velocity": 79, "duration": 238}, {"note": 87, "velocity": 84, "duration": 238}, {"note": 89, "velocity": 82, "duration": 238}, {"note": 87, "velocity": 87, "duration": 340}, {"note": 85, "velocity": 87, "duration": 477}, {"note": 85, "velocity": 90, "duration": 117}, {"note": 0, "velocity": 0, "duration": 123}, {"note": 82, "velocity": 90, "duration": 1438}, {"note": 82, "velocity": 106, "duration": 247}, {"note": 80, "velocity": 92, "duration": 238}, {"note": 82, "velocity": 95, "duration": 478}, {"note": 85, "velocity": 90, "duration": 718}, {"note": 82, "velocity": 100, "duration": 478}, {"note": 80, "velocity": 96, "duration": 238}, {"note": 75, "velocity": 87, "duration": 238}, {"note": 78, "velocity": 96, "duration": 1198}, {"note": 75, "velocity": 99, "duration": 238}, {"note": 73, "velocity": 77, "duration": 238}, {"note": 75, "velocity": 89, "duration": 358}, {"note": 0, "velocity": 0, "duration": 122}, {"note": 78, "velocity": 89, "duration": 478}, {"note": 78, "velocity": 89, "duration": 358}, {"note": 78, "velocity": 100, "duration": 358}, {"note": 82, "velocity": 100, "duration": 238}, {"note": 80, "velocity": 100, "duration": 238}, {"note": 0, "velocity": 0, "duration": 482}, {"note": 75, "velocity": 100, "duration": 238}, {"note": 75, "velocity": 100, "duration": 478}, {"note": 78, "velocity": 100, "duration": 478}, {"note": 80, "velocity": 100, "duration": 478}, {"note": 78, "velocity": 100, "duration": 718}, {"note": 0, "velocity": 0, "duration": 2162}, {"note": 75, "velocity": 84, "duration": 238}, {"note": 73, "velocity": 79, "duration": 238}, {"note": 75, "velocity": 89, "duration": 478}, {"note": 78, "velocity": 89, "duration": 477}, {"note": 78, "velocity": 80, "duration": 358}, {"note": 78, "velocity": 80, "duration": 358}, {"note": 82, "velocity": 77, "duration": 478}, {"note": 80, "velocity": 89, "duration": 2638}, {"note": 0, "velocity": 0, "duration": 1082}, {"note": 75, "velocity": 91, "duration": 357}, {"note": 75, "velocity": 97, "duration": 358}, {"note": 78, "velocity": 104, "duration": 574}, {"note": 80, "velocity": 95, "duration": 258}, {"note": 78, "velocity": 91, "duration": 3598}]]