[[{"note": 68, "velocity": 73, "duration": 238}, {"note": 66, "velocity": 64, "duration": 238}, {"note": 68, "velocity": 66, "duration": 478}, {"note": 75, "velocity": 66, "duration": 477}, {"note": 75, "velocity": 64, "duration": 74}, {"note": 75, "velocity": 72, "duration": 238}, {"note": 73, "velocity": 75, "duration": 238}, {"note": 71, "velocity": 68, "duration": 238}, {"note": 73, "velocity": 84, "duration": 238}, {"note": 75, "velocity": 64, "duration": 718}, {"note": 73, "velocity": 85, "duration": 478}, {"note": 66, "velocity": 66, "duration": 237}, {"note": 66, "velocity": 64, "duration": 238}, {"note": 78, "velocity": 66, "duration": 237}, {"note": 78, "velocity": 66, "duration": 237}, {"note": 78, "velocity": 57, "duration": 237}, {"note": 78, "velocity": 59, "duration": 237}, {"note": 78, "velocity": 63, "duration": 237}, {"note": 78, "velocity": 54, "duration": 238}, {"note": 73, "velocity": 74, "duration": 478}, {"note": 75, "velocity": 93, "duration": 1365}, {"note": 73, "velocity": 84, "duration": 238}, {"note": 75, "velocity": 95, "duration": 238}, {"note": 76, "velocity": 94, "duration": 238}, {"note": 76, "velocity": 94, "duration": 237}, {"note": 76, "velocity": 93, "duration": 238}, {"note": 75, "velocity": 83, "duration": 238}, {"note": 76, "velocity": 90, "duration": 478}, {"note": 73, "velocity": 81, "duration": 237}, {"note": 73, "velocity": 63, "duration": 238}, {"note": 75, "velocity": 87, "duration": 477}, {"note": 75, "velocity": 89, "duration": 238}, {"note": 73, "velocity": 69, "duration": 238}, {"note": 71, "velocity": 92, "duration": 478}, {"note": 68, "velocity": 81, "duration": 238}, {"note": 70, "velocity": 57, "duration": 238}, {"note": 71, "velocity": 66, "duration": 237}, {"note": 71, "velocity": 69, "duration": 237}, {"note": 71, "velocity": 64, "duration": 237}, {"note": 71, "velocity": 66, "duration": 237}, {"note": 71, "velocity": 86, "duration": 478}, {"note": 73, "velocity": 90, "duration": 478}, {"note": 70, "velocity": 82, "duration": 287}, {"note": 66, "velocity": 72, "duration": 237}, {"note": 66, "velocity": 76, "duration": 238}, {"note": 68, "velocity": 69, "duration": 478}, {"note": 75, "velocity": 90, "duration": 477}, {"note": 75, "velocity": 92, "duration": 151}, {"note": 75, "velocity": 90, "duration": 210}, {"note": 73, "velocity": 87, "duration": 182}, {"note": 71, "velocity": 84, "duration": 94}, {"note": 73, "velocity": 87, "duration": 238}, {"note": 75, "velocity": 89, "duration": 113}, {"note": 73, "velocity": 87, "duration": 478}, {"note": 66, "velocity": 75, "duration": 237}, {"note": 66, "velocity": 65, "duration": 238}, {"note": 78, "velocity": 75, "duration": 237}, {"note": 78, "velocity": 68, "duration": 237}, {"note": 78, "velocity": 68, "duration": 237}, {"note": 78, "velocity": 64, "duration": 237}, {"note": 78, "velocity": 76, "duration": 478}, {"note": 80, "velocity": 77, "duration": 478}, {"note": 73, "velocity": 62, "duration": 238}, {"note": 75, "velocity": 64, "duration": 498}, {"note": 73, "velocity": 99, "duration": 238}, {"note": 75, "velocity": 74, "duration": 238}, {"note": 76, "velocity": 93, "duration": 237}, {"note": 76, "velocity": 92, "duration": 237}, {"note": 76, "velocity": 87, "duration": 237}, {"note": 76, "velocity": 91, "duration": 237}, {"note": 76, "velocity": 84, "duration": 478}, {"note": 80, "velocity": 77, "duration": 478}, {"note": 75, "velocity": 90, "duration": 357}, {"note": 75, "velocity": 93, "duration": 358}, {"note": 73, "velocity": 89, "duration": 238}, {"note": 71, "velocity": 96, "duration": 478}, {"note": 68, "velocity": 96, "duration": 238}, {"note": 70, "velocity": 85, "duration": 238}, {"note": 71, "velocity": 87, "duration": 357}, {"note": 71, "velocity": 85, "duration": 357}, {"note": 71, "velocity": 93, "duration": 238}, {"note": 73, "velocity": 95, "duration": 478}, {"note": 66, "velocity": 72, "duration": 478}, {"note": 68, "velocity": 96, "duration": 1438}, {"note": 66, "velocity": 90, "duration": 237}, {"note": 66, "velocity": 80, "duration": 238}, {"note": 68, "velocity": 81, "duration": 478}, {"note": 75, "velocity": 86, "duration": 477}, {"note": 75, "velocity": 80, "duration": 478}, {"note": 70, "velocity": 77, "duration": 238}, {"note": 68, "velocity": 65, "duration": 238}, {"note": 66, "velocity": 71, "duration": 478}, {"note": 70, "velocity": 94, "duration": 478}, {"note": 68, "velocity": 91, "duration": 477}, {"note": 68, "velocity": 91, "duration": 238}, {"note": 70, "velocity": 67, "duration": 238}, {"note": 71, "velocity": 87, "duration": 237}, {"note": 71, "velocity": 94, "duration": 237}, {"note": 71, "velocity": 95, "duration": 237}, {"note": 71, "velocity": 93, "duration": 237}, {"note": 71, "velocity": 97, "duration": 478}, {"note": 73, "velocity": 97, "duration": 478}, {"note": 75, "velocity": 93, "duration": 1438}, {"note": 73, "velocity": 87, "duration": 238}, {"note": 75, "velocity": 82, "duration": 238}, {"note": 76, "velocity": 94, "duration": 477}, {"note": 76, "velocity": 96, "duration": 238}, {"note": 75, "velocity": 91, "duration": 238}, {"note": 76, "velocity": 90, "duration": 477}, {"note": 76, "velocity": 95, "duration": 238}, {"note": 73, "velocity": 79, "duration": 238}, {"note": 75, "velocity": 87, "duration": 477}, {"note": 75, "velocity": 87, "duration": 238}, {"note": 73, "velocity": 82, "duration": 238}, {"note": 71, "velocity": 83, "duration": 478}, {"note": 68, "velocity": 93, "duration": 238}, {"note": 70, "velocity": 77, "duration": 238}, {"note": 71, "velocity": 91, "duration": 237}, {"note": 71, "velocity": 91, "duration": 237}, {"note": 71, "velocity": 87, "duration": 237}, {"note": 71, "velocity": 91, "duration": 237}, {"note": 71, "velocity": 93, "duration": 477}, {"note": 71, "velocity": 97, "duration": 478}, {"note": 68, "velocity": 91, "duration": 717}, {"note": 68, "velocity": 65, "duration": 237}, {"note": 68, "velocity": 90, "duration": 478}, {"note": 80, "velocity": 79, "duration": 478}, {"note": 78, "velocity": 95, "duration": 3358}, {"note": 71, "velocity": 90, "duration": 238}, {"note": 73, "velocity": 75, "duration": 238}, {"note": 75, "velocity": 91, "duration": 478}, {"note": 78, "velocity": 89, "duration": 477}, {"note": 78, "velocity": 84, "duration": 238}, {"note": 75, "velocity": 83, "duration": 238}, {"note": 78, "velocity": 84, "duration": 238}, {"note": 75, "velocity": 84, "duration": 237}, {"note": 75, "velocity": 83, "duration": 238}, {"note": 80, "velocity": 87, "duration": 478}, {"note": 78, "velocity": 89, "duration": 478}, {"note": 75, "velocity": 87, "duration": 237}, {"note": 75, "velocity": 77, "duration": 238}, {"note": 78, "velocity": 75, "duration": 238}, {"note": 83, "velocity": 87, "duration": 237}, {"note": 83, "velocity": 83, "duration": 237}, {"note": 83, "velocity": 77, "duration": 35}, {"note": 83, "velocity": 74, "duration": 237}, {"note": 83, "velocity": 90, "duration": 478}, {"note": 75, "velocity": 87, "duration": 478}, {"note": 78, "velocity": 100, "duration": 1197}, {"note": 78, "velocity": 85, "duration": 238}, {"note": 80, "velocity": 90, "duration": 238}, {"note": 78, "velocity": 64, "duration": 238}, {"note": 80, "velocity": 91, "duration": 478}, {"note": 83, "velocity": 83, "duration": 237}, {"note": 83, "velocity": 85, "duration": 478}, {"note": 78, "velocity": 87, "duration": 238}, {"note": 80, "velocity": 69, "duration": 238}, {"note": 78, "velocity": 61, "duration": 237}, {"note": 78, "velocity": 66, "duration": 478}, {"note": 80, "velocity": 66, "duration": 238}, {"note": 75, "velocity": 75, "duration": 478}, {"note": 68, "velocity": 80, "duration": 237}, {"note": 68, "velocity": 66, "duration": 238}, {"note": 71, "velocity": 63, "duration": 238}, {"note": 75, "velocity": 82, "duration": 238}, {"note": 73, "velocity": 77, "duration": 237}, {"note": 73, "velocity": 87, "duration": 237}, {"note": 73, "velocity": 84, "duration": 237}, {"note": 73, "velocity": 81, "duration": 478}, {"note": 71, "velocity": 92, "duration": 478}, {"note": 73, "velocity": 96, "duration": 1438}, {"note": 71, "velocity": 90, "duration": 238}, {"note": 73, "velocity": 66, "duration": 238}, {"note": 75, "velocity": 93, "duration": 478}, {"note": 78, "velocity": 90, "duration": 477}, {"note": 78, "velocity": 91, "duration": 238}, {"note": 75, "velocity": 86, "duration": 238}, {"note": 78, "velocity": 92, "duration": 238}, {"note": 75, "velocity": 90, "duration": 237}, {"note": 75, "velocity": 72, "duration": 238}, {"note": 80, "velocity": 90, "duration": 478}, {"note": 78, "velocity": 97, "duration": 478}, {"note": 75, "velocity": 67, "duration": 237}, {"note": 75, "velocity": 69, "duration": 238}, {"note": 78, "velocity": 72, "duration": 238}, {"note": 83, "velocity": 90, "duration": 237}, {"note": 83, "velocity": 94, "duration": 477}, {"note": 83, "velocity": 93, "duration": 237}, {"note": 83, "velocity": 93, "duration": 478}, {"note": 85, "velocity": 87, "duration": 478}, {"note": 78, "velocity": 93, "duration": 1197}, {"note": 78, "velocity": 93, "duration": 238}, {"note": 80, "velocity": 86, "duration": 238}, {"note": 78, "velocity": 72, "duration": 238}, {"note": 80, "velocity": 97, "duration": 478}, {"note": 83, "velocity": 93, "duration": 237}, {"note": 83, "velocity": 98, "duration": 367}, {"note": 78, "velocity": 91, "duration": 238}, {"note": 80, "velocity": 93, "duration": 238}, {"note": 78, "velocity": 80, "duration": 237}, {"note": 78, "velocity": 93, "duration": 64}, {"note": 80, "velocity": 91, "duration": 238}, {"note": 75, "velocity": 84, "duration": 478}, {"note": 68, "velocity": 84, "duration": 237}, {"note": 68, "velocity": 77, "duration": 5}, {"note": 71, "velocity": 84, "duration": 34}, {"note": 75, "velocity": 96, "duration": 265}, {"note": 73, "velocity": 84, "duration": 237}, {"note": 73, "velocity": 94, "duration": 237}, {"note": 73, "velocity": 82, "duration": 206}, {"note": 75, "velocity": 86, "duration": 478}, {"note": 78, "velocity": 90, "duration": 958}, {"note": 80, "velocity": 99, "duration": 958}, {"note": 71, "velocity": 95, "duration": 3838}, {"note": 0, "velocity": 0, "duration": 14882}, {"note": 68, "velocity": 73, "duration": 238}, {"note": 68, "velocity": 64, "duration": 238}, {"note": 68, "velocity": 66, "duration": 478}, {"note": 75, "velocity": 66, "duration": 20}, {"note": 75, "velocity": 64, "duration": 237}, {"note": 75, "velocity": 72, "duration": 238}, {"note": 73, "velocity": 75, "duration": 238}, {"note": 71, "velocity": 68, "duration": 238}, {"note": 73, "velocity": 84, "duration": 238}, {"note": 75, "velocity": 64, "duration": 718}, {"note": 73, "velocity": 85, "duration": 478}, {"note": 66, "velocity": 66, "duration": 237}, {"note": 66, "velocity": 64, "duration": 238}, {"note": 78, "velocity": 66, "duration": 237}, {"note": 78, "velocity": 66, "duration": 237}, {"note": 78, "velocity": 57, "duration": 237}, {"note": 78, "velocity": 59, "duration": 237}, {"note": 78, "velocity": 63, "duration": 237}, {"note": 78, "velocity": 54, "duration": 238}, {"note": 73, "velocity": 74, "duration": 112}, {"note": 75, "velocity": 93, "duration": 1438}, {"note": 73, "velocity": 84, "duration": 238}, {"note": 75, "velocity": 95, "duration": 238}, {"note": 76, "velocity": 94, "duration": 238}, {"note": 76, "velocity": 94, "duration": 237}, {"note": 76, "velocity": 93, "duration": 238}, {"note": 75, "velocity": 83, "duration": 238}, {"note": 76, "velocity": 90, "duration": 478}, {"note": 73, "velocity": 81, "duration": 237}, {"note": 73, "velocity": 63, "duration": 238}, {"note": 75, "velocity": 87, "duration": 477}, {"note": 75, "velocity": 89, "duration": 238}, {"note": 73, "velocity": 69, "duration": 238}, {"note": 71, "velocity": 92, "duration": 478}, {"note": 68, "velocity": 81, "duration": 238}, {"note": 70, "velocity": 57, "duration": 238}, {"note": 71, "velocity": 66, "duration": 237}, {"note": 71, "velocity": 69, "duration": 237}, {"note": 71, "velocity": 64, "duration": 237}, {"note": 71, "velocity": 66, "duration": 237}, {"note": 71, "velocity": 86, "duration": 478}, {"note": 73, "velocity": 90, "duration": 478}, {"note": 70, "velocity": 82, "duration": 474}, {"note": 66, "velocity": 72, "duration": 237}, {"note": 66, "velocity": 76, "duration": 238}, {"note": 68, "velocity": 69, "duration": 478}, {"note": 75, "velocity": 90, "duration": 98}, {"note": 75, "velocity": 92, "duration": 156}, {"note": 75, "velocity": 90, "duration": 129}, {"note": 73, "velocity": 87, "duration": 41}, {"note": 71, "velocity": 84, "duration": 238}, {"note": 73, "velocity": 87, "duration": 238}, {"note": 75, "velocity": 89, "duration": 300}, {"note": 73, "velocity": 87, "duration": 478}, {"note": 66, "velocity": 75, "duration": 237}, {"note": 66, "velocity": 65, "duration": 238}, {"note": 78, "velocity": 75, "duration": 237}, {"note": 78, "velocity": 68, "duration": 237}, {"note": 78, "velocity": 68, "duration": 237}, {"note": 78, "velocity": 64, "duration": 237}, {"note": 78, "velocity": 76, "duration": 478}, {"note": 80, "velocity": 77, "duration": 478}, {"note": 73, "velocity": 62, "duration": 238}, {"note": 75, "velocity": 64, "duration": 685}, {"note": 73, "velocity": 99, "duration": 238}, {"note": 75, "velocity": 74, "duration": 238}, {"note": 76, "velocity": 93, "duration": 237}, {"note": 76, "velocity": 92, "duration": 237}, {"note": 76, "velocity": 87, "duration": 237}, {"note": 76, "velocity": 91, "duration": 237}, {"note": 76, "velocity": 84, "duration": 478}, {"note": 80, "velocity": 77, "duration": 478}, {"note": 75, "velocity": 90, "duration": 357}, {"note": 75, "velocity": 93, "duration": 358}, {"note": 73, "velocity": 89, "duration": 238}, {"note": 71, "velocity": 96, "duration": 478}, {"note": 68, "velocity": 96, "duration": 238}, {"note": 70, "velocity": 85, "duration": 238}, {"note": 71, "velocity": 87, "duration": 357}, {"note": 71, "velocity": 85, "duration": 357}, {"note": 71, "velocity": 93, "duration": 238}, {"note": 73, "velocity": 95, "duration": 478}, {"note": 66, "velocity": 72, "duration": 478}, {"note": 68, "velocity": 96, "duration": 1438}, {"note": 66, "velocity": 90, "duration": 237}, {"note": 66, "velocity": 80, "duration": 238}, {"note": 68, "velocity": 81, "duration": 478}, {"note": 75, "velocity": 86, "duration": 477}, {"note": 75, "velocity": 80, "duration": 478}, {"note": 70, "velocity": 77, "duration": 238}, {"note": 68, "velocity": 65, "duration": 238}, {"note": 66, "velocity": 71, "duration": 478}, {"note": 70, "velocity": 94, "duration": 478}, {"note": 68, "velocity": 91, "duration": 477}, {"note": 68, "velocity": 91, "duration": 238}, {"note": 70, "velocity": 67, "duration": 238}, {"note": 71, "velocity": 87, "duration": 237}, {"note": 71, "velocity": 94, "duration": 237}, {"note": 71, "velocity": 95, "duration": 237}, {"note": 71, "velocity": 93, "duration": 237}, {"note": 71, "velocity": 97, "duration": 478}, {"note": 73, "velocity": 97, "duration": 478}, {"note": 75, "velocity": 93, "duration": 1438}, {"note": 73, "velocity": 87, "duration": 238}, {"note": 75, "velocity": 82, "duration": 238}, {"note": 76, "velocity": 94, "duration": 477}, {"note": 76, "velocity": 96, "duration": 238}, {"note": 75, "velocity": 91, "duration": 238}, {"note": 76, "velocity": 90, "duration": 477}, {"note": 76, "velocity": 95, "duration": 238}, {"note": 73, "velocity": 79, "duration": 238}, {"note": 75, "velocity": 87, "duration": 477}, {"note": 75, "velocity": 87, "duration": 238}, {"note": 73, "velocity": 82, "duration": 238}, {"note": 71, "velocity": 83, "duration": 478}, {"note": 68, "velocity": 93, "duration": 238}, {"note": 70, "velocity": 77, "duration": 238}, {"note": 71, "velocity": 91, "duration": 237}, {"note": 71, "velocity": 91, "duration": 237}, {"note": 71, "velocity": 87, "duration": 237}, {"note": 71, "velocity": 91, "duration": 237}, {"note": 71, "velocity": 93, "duration": 477}, {"note": 71, "velocity": 97, "duration": 478}, {"note": 68, "velocity": 91, "duration": 717}, {"note": 68, "velocity": 65, "duration": 237}, {"note": 68, "velocity": 90, "duration": 478}, {"note": 80, "velocity": 79, "duration": 478}, {"note": 78, "velocity": 95, "duration": 3358}, {"note": 71, "velocity": 90, "duration": 238}, {"note": 73, "velocity": 75, "duration": 238}, {"note": 75, "velocity": 91, "duration": 478}, {"note": 78, "velocity": 89, "duration": 477}, {"note": 78, "velocity": 84, "duration": 238}, {"note": 75, "velocity": 83, "duration": 238}, {"note": 78, "velocity": 84, "duration": 238}, {"note": 75, "velocity": 84, "duration": 237}, {"note": 75, "velocity": 83, "duration": 238}, {"note": 80, "velocity": 87, "duration": 478}, {"note": 78, "velocity": 89, "duration": 478}, {"note": 75, "velocity": 87, "duration": 237}, {"note": 75, "velocity": 77, "duration": 238}, {"note": 78, "velocity": 75, "duration": 238}, {"note": 83, "velocity": 87, "duration": 237}, {"note": 83, "velocity": 83, "duration": 21}, {"note": 83, "velocity": 77, "duration": 222}, {"note": 83, "velocity": 74, "duration": 237}, {"note": 83, "velocity": 90, "duration": 478}, {"note": 75, "velocity": 87, "duration": 478}, {"note": 78, "velocity": 100, "duration": 1197}, {"note": 78, "velocity": 85, "duration": 238}, {"note": 80, "velocity": 90, "duration": 238}, {"note": 78, "velocity": 64, "duration": 238}, {"note": 80, "velocity": 91, "duration": 478}, {"note": 83, "velocity": 83, "duration": 237}, {"note": 83, "velocity": 85, "duration": 478}, {"note": 78, "velocity": 87, "duration": 238}, {"note": 80, "velocity": 69, "duration": 238}, {"note": 78, "velocity": 61, "duration": 237}, {"note": 78, "velocity": 66, "duration": 478}, {"note": 80, "velocity": 66, "duration": 238}, {"note": 75, "velocity": 75, "duration": 478}, {"note": 68, "velocity": 80, "duration": 237}, {"note": 68, "velocity": 66, "duration": 238}, {"note": 71, "velocity": 63, "duration": 238}, {"note": 75, "velocity": 82, "duration": 238}, {"note": 73, "velocity": 77, "duration": 237}, {"note": 73, "velocity": 87, "duration": 237}, {"note": 73, "velocity": 84, "duration": 237}, {"note": 73, "velocity": 81, "duration": 478}, {"note": 71, "velocity": 92, "duration": 478}, {"note": 73, "velocity": 96, "duration": 1438}, {"note": 71, "velocity": 90, "duration": 238}, {"note": 73, "velocity": 66, "duration": 238}, {"note": 75, "velocity": 93, "duration": 478}, {"note": 78, "velocity": 90, "duration": 477}, {"note": 78, "velocity": 91, "duration": 238}, {"note": 75, "velocity": 86, "duration": 238}, {"note": 78, "velocity": 92, "duration": 238}, {"note": 75, "velocity": 90, "duration": 237}, {"note": 75, "velocity": 72, "duration": 238}, {"note": 80, "velocity": 90, "duration": 478}, {"note": 78, "velocity": 97, "duration": 478}, {"note": 75, "velocity": 67, "duration": 237}, {"note": 75, "velocity": 69, "duration": 238}, {"note": 78, "velocity": 72, "duration": 238}, {"note": 83, "velocity": 90, "duration": 237}, {"note": 83, "velocity": 94, "duration": 477}, {"note": 83, "velocity": 93, "duration": 237}, {"note": 83, "velocity": 93, "duration": 478}, {"note": 85, "velocity": 87, "duration": 478}, {"note": 78, "velocity": 93, "duration": 1197}, {"note": 78, "velocity": 93, "duration": 238}, {"note": 80, "velocity": 86, "duration": 238}, {"note": 78, "velocity": 72, "duration": 238}, {"note": 80, "velocity": 97, "duration": 478}, {"note": 83, "velocity": 93, "duration": 73}, {"note": 83, "velocity": 98, "duration": 478}, {"note": 78, "velocity": 91, "duration": 238}, {"note": 80, "velocity": 93, "duration": 238}, {"note": 78, "velocity": 80, "duration": 237}, {"note": 78, "velocity": 93, "duration": 251}, {"note": 80, "velocity": 91, "duration": 238}, {"note": 75, "velocity": 84, "duration": 478}, {"note": 68, "velocity": 84, "duration": 237}, {"note": 68, "velocity": 77, "duration": 192}, {"note": 71, "velocity": 84, "duration": 221}, {"note": 75, "velocity": 96, "duration": 452}, {"note": 73, "velocity": 84, "duration": 237}, {"note": 73, "velocity": 94, "duration": 237}, {"note": 73, "velocity": 82, "duration": 393}, {"note": 75, "velocity": 86, "duration": 478}, {"note": 78, "velocity": 90, "duration": 958}, {"note": 80, "velocity": 99, "duration": 958}, {"note": 71, "velocity": 95, "duration": 3358}, {"note": 71, "velocity": 90, "duration": 238}, {"note": 73, "velocity": 75, "duration": 238}, {"note": 75, "velocity": 91, "duration": 478}, {"note": 78, "velocity": 89, "duration": 477}, {"note": 78, "velocity": 84, "duration": 238}, {"note": 75, "velocity": 83, "duration": 238}, {"note": 78, "velocity": 84, "duration": 238}, {"note": 75, "velocity": 84, "duration": 237}, {"note": 75, "velocity": 83, "duration": 238}, {"note": 80, "velocity": 87, "duration": 478}, {"note": 78, "velocity": 89, "duration": 478}, {"note": 75, "velocity": 87, "duration": 237}, {"note": 75, "velocity": 77, "duration": 238}, {"note": 78, "velocity": 75, "duration": 238}, {"note": 83, "velocity": 87, "duration": 237}, {"note": 83, "velocity": 83, "duration": 237}, {"note": 83, "velocity": 77, "duration": 237}, {"note": 83, "velocity": 74, "duration": 237}, {"note": 83, "velocity": 90, "duration": 478}, {"note": 75, "velocity": 87, "duration": 478}, {"note": 78, "velocity": 100, "duration": 238}, {"note": 80, "velocity": 100, "duration": 238}, {"note": 78, "velocity": 100, "duration": 717}, {"note": 78, "velocity": 85, "duration": 238}, {"note": 80, "velocity": 90, "duration": 238}, {"note": 78, "velocity": 64, "duration": 238}, {"note": 80, "velocity": 91, "duration": 478}, {"note": 83, "velocity": 83, "duration": 237}, {"note": 83, "velocity": 85, "duration": 478}, {"note": 78, "velocity": 87, "duration": 238}, {"note": 80, "velocity": 69, "duration": 238}, {"note": 78, "velocity": 61, "duration": 237}, {"note": 78, "velocity": 66, "duration": 478}, {"note": 80, "velocity": 66, "duration": 238}, {"note": 75, "velocity": 75, "duration": 478}, {"note": 68, "velocity": 80, "duration": 237}, {"note": 68, "velocity": 66, "duration": 238}, {"note": 71, "velocity": 63, "duration": 238}, {"note": 75, "velocity": 82, "duration": 238}, {"note": 73, "velocity": 77, "duration": 237}, {"note": 73, "velocity": 87, "duration": 237}, {"note": 73, "velocity": 84, "duration": 237}, {"note": 73, "velocity": 81, "duration": 478}, {"note": 71, "velocity": 92, "duration": 478}, {"note": 78, "velocity": 96, "duration": 1438}, {"note": 71, "velocity": 90, "duration": 238}, {"note": 73, "velocity": 66, "duration": 238}, {"note": 75, "velocity": 93, "duration": 478}, {"note": 78, "velocity": 90, "duration": 477}, {"note": 78, "velocity": 91, "duration": 238}, {"note": 75, "velocity": 86, "duration": 238}, {"note": 78, "velocity": 92, "duration": 238}, {"note": 75, "velocity": 90, "duration": 237}, {"note": 75, "velocity": 72, "duration": 238}, {"note": 80, "velocity": 90, "duration": 478}, {"note": 78, "velocity": 97, "duration": 478}, {"note": 75, "velocity": 67, "duration": 237}, {"note": 75, "velocity": 69, "duration": 238}, {"note": 78, "velocity": 72, "duration": 238}, {"note": 83, "velocity": 90, "duration": 237}, {"note": 83, "velocity": 94, "duration": 477}, {"note": 83, "velocity": 93, "duration": 237}, {"note": 83, "velocity": 93, "duration": 478}, {"note": 85, "velocity": 87, "duration": 478}, {"note": 78, "velocity": 93, "duration": 1197}, {"note": 78, "velocity": 93, "duration": 238}, {"note": 80, "velocity": 86, "duration": 238}, {"note": 78, "velocity": 72, "duration": 238}, {"note": 80, "velocity": 97, "duration": 478}, {"note": 83, "velocity": 93, "duration": 237}, {"note": 83, "velocity": 98, "duration": 478}, {"note": 78, "velocity": 91, "duration": 238}, {"note": 80, "velocity": 93, "duration": 238}, {"note": 78, "velocity": 80, "duration": 237}, {"note": 78, "velocity": 93, "duration": 478}, {"note": 80, "velocity": 91, "duration": 238}, {"note": 75, "velocity": 84, "duration": 478}, {"note": 68, "velocity": 84, "duration": 237}, {"note": 68, "velocity": 77, "duration": 238}, {"note": 71, "velocity": 84, "duration": 238}, {"note": 75, "velocity": 96, "duration": 478}, {"note": 73, "velocity": 84, "duration": 237}, {"note": 73, "velocity": 94, "duration": 237}, {"note": 73, "velocity": 82, "duration": 478}, {"note": 75, "velocity": 86, "duration": 478}, {"note": 78, "velocity": 90, "duration": 958}, {"note": 80, "velocity": 99, "duration": 958}, {"note": 71, "velocity": 95, "duration": 2878}, {"note": 0, "velocity": 0, "duration": 242}, {"note": 78, "velocity": 93, "duration": 238}, {"note": 80, "velocity": 86, "duration": 238}, {"note": 78, "velocity": 72, "duration": 238}, {"note": 80, "velocity": 97, "duration": 478}, {"note": 83, "velocity": 93, "duration": 237}, {"note": 83, "velocity": 98, "duration": 478}, {"note": 78, "velocity": 91, "duration": 238}, {"note": 80, "velocity": 93, "duration": 238}, {"note": 78, "velocity": 80, "duration": 237}, {"note": 78, "velocity": 93, "duration": 478}, {"note": 80, "velocity": 91, "duration": 238}, {"note": 75, "velocity": 84, "duration": 478}, {"note": 0, "velocity": 0, "duration": 722}, {"note": 68, "velocity": 54, "duration": 238}, {"note": 68, "velocity": 68, "duration": 238}, {"note": 71, "velocity": 57, "duration": 238}, {"note": 75, "velocity": 56, "duration": 358}, {"note": 73, "velocity": 52, "duration": 358}, {"note": 73, "velocity": 53, "duration": 478}, {"note": 75, "velocity": 56, "duration": 478}, {"note": 78, "velocity": 63, "duration": 1918}, {"note": 68, "velocity": 64, "duration": 1198}, {"note": 71, "velocity": 64, "duration": 2158}]]