[[{"note": 74, "velocity": 76, "duration": 238}, {"note": 76, "velocity": 79, "duration": 238}, {"note": 78, "velocity": 90, "duration": 478}, {"note": 69, "velocity": 68, "duration": 478}, {"note": 74, "velocity": 64, "duration": 478}, {"note": 78, "velocity": 92, "duration": 277}, {"note": 76, "velocity": 87, "duration": 540}, {"note": 78, "velocity": 91, "duration": 1198}, {"note": 74, "velocity": 82, "duration": 238}, {"note": 73, "velocity": 87, "duration": 278}, {"note": 74, "velocity": 95, "duration": 478}, {"note": 71, "velocity": 85, "duration": 237}, {"note": 71, "velocity": 90, "duration": 2638}, {"note": 74, "velocity": 90, "duration": 238}, {"note": 76, "velocity": 87, "duration": 269}, {"note": 78, "velocity": 93, "duration": 478}, {"note": 69, "velocity": 74, "duration": 495}, {"note": 74, "velocity": 82, "duration": 478}, {"note": 78, "velocity": 58, "duration": 237}, {"note": 76, "velocity": 69, "duration": 478}, {"note": 78, "velocity": 87, "duration": 1198}, {"note": 74, "velocity": 98, "duration": 238}, {"note": 73, "velocity": 72, "duration": 238}, {"note": 74, "velocity": 90, "duration": 478}, {"note": 78, "velocity": 101, "duration": 2878}, {"note": 81, "velocity": 103, "duration": 238}, {"note": 78, "velocity": 97, "duration": 247}, {"note": 79, "velocity": 101, "duration": 477}, {"note": 79, "velocity": 89, "duration": 477}, {"note": 79, "velocity": 97, "duration": 478}, {"note": 78, "velocity": 101, "duration": 238}, {"note": 74, "velocity": 87, "duration": 1677}, {"note": 74, "velocity": 95, "duration": 478}, {"note": 79, "velocity": 105, "duration": 477}, {"note": 79, "velocity": 95, "duration": 477}, {"note": 79, "velocity": 99, "duration": 478}, {"note": 78, "velocity": 91, "duration": 266}, {"note": 79, "velocity": 93, "duration": 478}, {"note": 81, "velocity": 99, "duration": 1198}, {"note": 83, "velocity": 103, "duration": 478}, {"note": 81, "velocity": 114, "duration": 3838}, {"note": 0, "velocity": 0, "duration": 3362}, {"note": 74, "velocity": 76, "duration": 238}, {"note": 76, "velocity": 79, "duration": 238}, {"note": 78, "velocity": 90, "duration": 478}, {"note": 69, "velocity": 68, "duration": 478}, {"note": 74, "velocity": 64, "duration": 478}, {"note": 78, "velocity": 92, "duration": 277}, {"note": 76, "velocity": 87, "duration": 540}, {"note": 78, "velocity": 91, "duration": 1198}, {"note": 74, "velocity": 82, "duration": 238}, {"note": 73, "velocity": 87, "duration": 278}, {"note": 74, "velocity": 95, "duration": 478}, {"note": 71, "velocity": 85, "duration": 237}, {"note": 71, "velocity": 90, "duration": 2638}, {"note": 74, "velocity": 90, "duration": 238}, {"note": 76, "velocity": 87, "duration": 269}, {"note": 78, "velocity": 93, "duration": 478}, {"note": 69, "velocity": 74, "duration": 495}, {"note": 74, "velocity": 82, "duration": 478}, {"note": 78, "velocity": 58, "duration": 237}, {"note": 76, "velocity": 69, "duration": 478}, {"note": 78, "velocity": 87, "duration": 1198}, {"note": 74, "velocity": 98, "duration": 238}, {"note": 73, "velocity": 72, "duration": 238}, {"note": 74, "velocity": 90, "duration": 478}, {"note": 78, "velocity": 101, "duration": 2878}, {"note": 81, "velocity": 103, "duration": 238}, {"note": 78, "velocity": 97, "duration": 247}, {"note": 79, "velocity": 101, "duration": 477}, {"note": 79, "velocity": 89, "duration": 477}, {"note": 79, "velocity": 97, "duration": 478}, {"note": 78, "velocity": 101, "duration": 238}, {"note": 74, "velocity": 87, "duration": 1677}, {"note": 74, "velocity": 95, "duration": 478}, {"note": 79, "velocity": 105, "duration": 477}, {"note": 79, "velocity": 95, "duration": 477}, {"note": 79, "velocity": 99, "duration": 478}, {"note": 78, "velocity": 91, "duration": 266}, {"note": 79, "velocity": 93, "duration": 720}, {"note": 81, "velocity": 99, "duration": 962}, {"note": 83, "velocity": 103, "duration": 478}, {"note": 81, "velocity": 114, "duration": 3838}, {"note": 0, "velocity": 0, "duration": 2882}, {"note": 90, "velocity": 87, "duration": 478}, {"note": 88, "velocity": 100, "duration": 478}, {"note": 90, "velocity": 105, "duration": 958}, {"note": 88, "velocity": 106, "duration": 478}, {"note": 86, "velocity": 91, "duration": 238}, {"note": 88, "velocity": 106, "duration": 1198}, {"note": 86, "velocity": 103, "duration": 478}, {"note": 85, "velocity": 97, "duration": 478}, {"note": 86, "velocity": 93, "duration": 495}, {"note": 85, "velocity": 91, "duration": 478}, {"note": 83, "velocity": 90, "duration": 495}, {"note": 85, "velocity": 75, "duration": 238}, {"note": 78, "velocity": 77, "duration": 1678}, {"note": 83, "velocity": 99, "duration": 248}, {"note": 85, "velocity": 90, "duration": 266}, {"note": 86, "velocity": 99, "duration": 477}, {"note": 86, "velocity": 101, "duration": 237}, {"note": 86, "velocity": 101, "duration": 718}, {"note": 85, "velocity": 93, "duration": 238}, {"note": 86, "velocity": 90, "duration": 261}, {"note": 88, "velocity": 103, "duration": 477}, {"note": 88, "velocity": 93, "duration": 477}, {"note": 88, "velocity": 100, "duration": 358}, {"note": 86, "velocity": 92, "duration": 358}, {"note": 88, "velocity": 98, "duration": 285}, {"note": 90, "velocity": 105, "duration": 2877}, {"note": 90, "velocity": 94, "duration": 536}, {"note": 88, "velocity": 99, "duration": 478}, {"note": 90, "velocity": 103, "duration": 958}, {"note": 88, "velocity": 99, "duration": 478}, {"note": 86, "velocity": 84, "duration": 238}, {"note": 88, "velocity": 99, "duration": 1197}, {"note": 88, "velocity": 100, "duration": 478}, {"note": 90, "velocity": 99, "duration": 478}, {"note": 91, "velocity": 93, "duration": 478}, {"note": 90, "velocity": 97, "duration": 478}, {"note": 88, "velocity": 98, "duration": 478}, {"note": 91, "velocity": 90, "duration": 248}, {"note": 90, "velocity": 90, "duration": 478}, {"note": 83, "velocity": 93, "duration": 1197}, {"note": 83, "velocity": 89, "duration": 238}, {"note": 85, "velocity": 66, "duration": 243}, {"note": 86, "velocity": 68, "duration": 262}, {"note": 85, "velocity": 66, "duration": 255}, {"note": 83, "velocity": 62, "duration": 254}, {"note": 86, "velocity": 81, "duration": 498}, {"note": 85, "velocity": 53, "duration": 250}, {"note": 86, "velocity": 63, "duration": 486}, {"note": 88, "velocity": 92, "duration": 265}, {"note": 86, "velocity": 68, "duration": 256}, {"note": 85, "velocity": 62, "duration": 238}, {"note": 88, "velocity": 84, "duration": 510}, {"note": 86, "velocity": 92, "duration": 238}, {"note": 88, "velocity": 77, "duration": 478}, {"note": 86, "velocity": 95, "duration": 478}, {"note": 83, "velocity": 99, "duration": 237}, {"note": 83, "velocity": 91, "duration": 1439}, {"note": 0, "velocity": 0, "duration": 5041}, {"note": 74, "velocity": 76, "duration": 204}, {"note": 76, "velocity": 79, "duration": 204}, {"note": 78, "velocity": 90, "duration": 444}, {"note": 69, "velocity": 68, "duration": 444}, {"note": 74, "velocity": 64, "duration": 444}, {"note": 78, "velocity": 92, "duration": 243}, {"note": 76, "velocity": 87, "duration": 506}, {"note": 78, "velocity": 91, "duration": 1164}, {"note": 74, "velocity": 82, "duration": 204}, {"note": 73, "velocity": 87, "duration": 245}, {"note": 74, "velocity": 95, "duration": 444}, {"note": 71, "velocity": 85, "duration": 203}, {"note": 71, "velocity": 90, "duration": 2604}, {"note": 74, "velocity": 90, "duration": 204}, {"note": 76, "velocity": 87, "duration": 235}, {"note": 78, "velocity": 93, "duration": 444}, {"note": 69, "velocity": 74, "duration": 461}, {"note": 74, "velocity": 82, "duration": 444}, {"note": 81, "velocity": 58, "duration": 203}, {"note": 81, "velocity": 69, "duration": 444}, {"note": 78, "velocity": 87, "duration": 1164}, {"note": 74, "velocity": 98, "duration": 204}, {"note": 73, "velocity": 72, "duration": 204}, {"note": 74, "velocity": 90, "duration": 444}, {"note": 78, "velocity": 101, "duration": 2844}, {"note": 81, "velocity": 103, "duration": 204}, {"note": 78, "velocity": 97, "duration": 213}, {"note": 79, "velocity": 101, "duration": 443}, {"note": 79, "velocity": 89, "duration": 443}, {"note": 79, "velocity": 97, "duration": 444}, {"note": 78, "velocity": 101, "duration": 204}, {"note": 74, "velocity": 87, "duration": 1643}, {"note": 74, "velocity": 95, "duration": 444}, {"note": 79, "velocity": 105, "duration": 443}, {"note": 79, "velocity": 95, "duration": 443}, {"note": 79, "velocity": 99, "duration": 444}, {"note": 78, "velocity": 91, "duration": 233}, {"note": 79, "velocity": 93, "duration": 444}, {"note": 81, "velocity": 99, "duration": 1164}, {"note": 83, "velocity": 103, "duration": 444}, {"note": 81, "velocity": 114, "duration": 3804}, {"note": 0, "velocity": 0, "duration": 2916}, {"note": 90, "velocity": 87, "duration": 444}, {"note": 88, "velocity": 100, "duration": 444}, {"note": 90, "velocity": 105, "duration": 924}, {"note": 88, "velocity": 106, "duration": 444}, {"note": 86, "velocity": 91, "duration": 204}, {"note": 88, "velocity": 106, "duration": 1164}, {"note": 86, "velocity": 103, "duration": 444}, {"note": 85, "velocity": 97, "duration": 444}, {"note": 86, "velocity": 93, "duration": 461}, {"note": 85, "velocity": 91, "duration": 444}, {"note": 83, "velocity": 90, "duration": 462}, {"note": 85, "velocity": 75, "duration": 204}, {"note": 78, "velocity": 77, "duration": 1644}, {"note": 83, "velocity": 99, "duration": 214}, {"note": 85, "velocity": 90, "duration": 233}, {"note": 86, "velocity": 99, "duration": 443}, {"note": 86, "velocity": 101, "duration": 203}, {"note": 86, "velocity": 101, "duration": 684}, {"note": 85, "velocity": 93, "duration": 204}, {"note": 86, "velocity": 90, "duration": 227}, {"note": 88, "velocity": 103, "duration": 443}, {"note": 88, "velocity": 93, "duration": 443}, {"note": 88, "velocity": 100, "duration": 324}, {"note": 86, "velocity": 92, "duration": 324}, {"note": 88, "velocity": 98, "duration": 252}, {"note": 90, "velocity": 105, "duration": 1918}, {"note": 0, "velocity": 0, "duration": 962}, {"note": 90, "velocity": 94, "duration": 503}, {"note": 88, "velocity": 99, "duration": 444}, {"note": 90, "velocity": 103, "duration": 924}, {"note": 88, "velocity": 99, "duration": 444}, {"note": 86, "velocity": 84, "duration": 204}, {"note": 88, "velocity": 99, "duration": 1163}, {"note": 88, "velocity": 100, "duration": 444}, {"note": 90, "velocity": 99, "duration": 444}, {"note": 91, "velocity": 93, "duration": 444}, {"note": 90, "velocity": 97, "duration": 444}, {"note": 88, "velocity": 98, "duration": 444}, {"note": 91, "velocity": 90, "duration": 214}, {"note": 90, "velocity": 90, "duration": 444}, {"note": 83, "velocity": 93, "duration": 1163}, {"note": 83, "velocity": 89, "duration": 204}, {"note": 85, "velocity": 66, "duration": 209}, {"note": 86, "velocity": 68, "duration": 228}, {"note": 85, "velocity": 66, "duration": 222}, {"note": 83, "velocity": 62, "duration": 221}, {"note": 86, "velocity": 81, "duration": 464}, {"note": 85, "velocity": 53, "duration": 216}, {"note": 86, "velocity": 63, "duration": 452}, {"note": 88, "velocity": 92, "duration": 231}, {"note": 86, "velocity": 68, "duration": 222}, {"note": 85, "velocity": 62, "duration": 204}, {"note": 88, "velocity": 84, "duration": 477}, {"note": 86, "velocity": 92, "duration": 204}, {"note": 88, "velocity": 77, "duration": 444}, {"note": 86, "velocity": 95, "duration": 444}, {"note": 83, "velocity": 99, "duration": 203}, {"note": 83, "velocity": 91, "duration": 2638}, {"note": 0, "velocity": 0, "duration": 28322}, {"note": 90, "velocity": 87, "duration": 444}, {"note": 88, "velocity": 100, "duration": 444}, {"note": 90, "velocity": 105, "duration": 924}, {"note": 88, "velocity": 106, "duration": 444}, {"note": 86, "velocity": 91, "duration": 238}, {"note": 88, "velocity": 106, "duration": 1164}, {"note": 86, "velocity": 103, "duration": 444}, {"note": 85, "velocity": 97, "duration": 444}, {"note": 86, "velocity": 93, "duration": 461}, {"note": 85, "velocity": 91, "duration": 444}, {"note": 83, "velocity": 90, "duration": 462}, {"note": 85, "velocity": 75, "duration": 204}, {"note": 78, "velocity": 77, "duration": 1644}, {"note": 83, "velocity": 99, "duration": 214}, {"note": 85, "velocity": 90, "duration": 233}, {"note": 86, "velocity": 99, "duration": 443}, {"note": 86, "velocity": 101, "duration": 203}, {"note": 86, "velocity": 101, "duration": 684}, {"note": 85, "velocity": 93, "duration": 204}, {"note": 86, "velocity": 90, "duration": 227}, {"note": 88, "velocity": 103, "duration": 443}, {"note": 88, "velocity": 93, "duration": 443}, {"note": 88, "velocity": 100, "duration": 324}, {"note": 86, "velocity": 92, "duration": 324}, {"note": 88, "velocity": 98, "duration": 252}, {"note": 90, "velocity": 105, "duration": 1918}, {"note": 0, "velocity": 0, "duration": 962}, {"note": 90, "velocity": 94, "duration": 503}, {"note": 88, "velocity": 99, "duration": 444}, {"note": 90, "velocity": 103, "duration": 924}, {"note": 88, "velocity": 99, "duration": 444}, {"note": 86, "velocity": 84, "duration": 204}, {"note": 88, "velocity": 99, "duration": 1163}, {"note": 88, "velocity": 100, "duration": 444}, {"note": 90, "velocity": 99, "duration": 444}, {"note": 91, "velocity": 93, "duration": 444}, {"note": 90, "velocity": 97, "duration": 444}, {"note": 88, "velocity": 98, "duration": 444}, {"note": 91, "velocity": 90, "duration": 214}, {"note": 90, "velocity": 90, "duration": 444}, {"note": 83, "velocity": 93, "duration": 1163}, {"note": 83, "velocity": 89, "duration": 204}, {"note": 85, "velocity": 66, "duration": 209}, {"note": 86, "velocity": 68, "duration": 228}, {"note": 85, "velocity": 66, "duration": 222}, {"note": 83, "velocity": 62, "duration": 221}, {"note": 86, "velocity": 81, "duration": 464}, {"note": 85, "velocity": 53, "duration": 216}, {"note": 86, "velocity": 63, "duration": 452}, {"note": 88, "velocity": 92, "duration": 231}, {"note": 86, "velocity": 68, "duration": 222}, {"note": 85, "velocity": 62, "duration": 204}, {"note": 88, "velocity": 84, "duration": 477}, {"note": 86, "velocity": 92, "duration": 204}, {"note": 88, "velocity": 77, "duration": 444}, {"note": 86, "velocity": 95, "duration": 444}, {"note": 83, "velocity": 99, "duration": 203}, {"note": 83, "velocity": 91, "duration": 2038}, {"note": 0, "velocity": 0, "duration": 122}, {"note": 90, "velocity": 94, "duration": 503}, {"note": 88, "velocity": 99, "duration": 478}, {"note": 90, "velocity": 103, "duration": 924}, {"note": 88, "velocity": 99, "duration": 444}, {"note": 86, "velocity": 84, "duration": 204}, {"note": 88, "velocity": 99, "duration": 1163}, {"note": 88, "velocity": 100, "duration": 444}, {"note": 90, "velocity": 99, "duration": 444}, {"note": 91, "velocity": 93, "duration": 444}, {"note": 90, "velocity": 97, "duration": 444}, {"note": 88, "velocity": 98, "duration": 444}, {"note": 91, "velocity": 90, "duration": 214}, {"note": 90, "velocity": 90, "duration": 444}, {"note": 83, "velocity": 93, "duration": 1163}, {"note": 83, "velocity": 89, "duration": 204}, {"note": 85, "velocity": 66, "duration": 209}, {"note": 86, "velocity": 68, "duration": 228}, {"note": 85, "velocity": 66, "duration": 222}, {"note": 83, "velocity": 62, "duration": 221}, {"note": 86, "velocity": 81, "duration": 464}, {"note": 85, "velocity": 53, "duration": 216}, {"note": 86, "velocity": 63, "duration": 452}, {"note": 88, "velocity": 92, "duration": 231}, {"note": 86, "velocity": 68, "duration": 222}, {"note": 85, "velocity": 62, "duration": 204}, {"note": 88, "velocity": 84, "duration": 477}, {"note": 86, "velocity": 92, "duration": 204}, {"note": 88, "velocity": 77, "duration": 444}, {"note": 86, "velocity": 95, "duration": 444}, {"note": 83, "velocity": 99, "duration": 203}, {"note": 83, "velocity": 91, "duration": 2638}, {"note": 83, "velocity": 89, "duration": 204}, {"note": 85, "velocity": 66, "duration": 209}, {"note": 86, "velocity": 68, "duration": 228}, {"note": 85, "velocity": 66, "duration": 222}, {"note": 83, "velocity": 62, "duration": 221}, {"note": 86, "velocity": 81, "duration": 464}, {"note": 85, "velocity": 53, "duration": 216}, {"note": 86, "velocity": 63, "duration": 452}, {"note": 88, "velocity": 92, "duration": 231}, {"note": 86, "velocity": 68, "duration": 222}, {"note": 85, "velocity": 62, "duration": 204}, {"note": 88, "velocity": 84, "duration": 477}, {"note": 86, "velocity": 92, "duration": 204}, {"note": 88, "velocity": 77, "duration": 444}, {"note": 90, "velocity": 95, "duration": 958}, {"note": 81, "velocity": 99, "duration": 478}, {"note": 83, "velocity": 91, "duration": 3118}]]