[[{"note": 63, "velocity": 90, "duration": 256}, {"note": 65, "velocity": 84, "duration": 264}, {"note": 67, "velocity": 84, "duration": 718}, {"note": 70, "velocity": 77, "duration": 246}, {"note": 67, "velocity": 87, "duration": 240}, {"note": 65, "velocity": 72, "duration": 252}, {"note": 63, "velocity": 76, "duration": 238}, {"note": 58, "velocity": 66, "duration": 238}, {"note": 60, "velocity": 90, "duration": 1438}, {"note": 63, "velocity": 84, "duration": 249}, {"note": 65, "velocity": 67, "duration": 278}, {"note": 67, "velocity": 73, "duration": 478}, {"note": 67, "velocity": 84, "duration": 238}, {"note": 70, "velocity": 66, "duration": 32}, {"note": 67, "velocity": 80, "duration": 242}, {"note": 65, "velocity": 66, "duration": 238}, {"note": 65, "velocity": 77, "duration": 238}, {"note": 63, "velocity": 66, "duration": 238}, {"note": 65, "velocity": 87, "duration": 1438}, {"note": 65, "velocity": 83, "duration": 238}, {"note": 67, "velocity": 79, "duration": 238}, {"note": 63, "velocity": 79, "duration": 478}, {"note": 65, "velocity": 66, "duration": 244}, {"note": 63, "velocity": 66, "duration": 238}, {"note": 60, "velocity": 60, "duration": 478}, {"note": 60, "velocity": 87, "duration": 238}, {"note": 58, "velocity": 66, "duration": 240}, {"note": 67, "velocity": 84, "duration": 238}, {"note": 70, "velocity": 59, "duration": 238}, {"note": 72, "velocity": 75, "duration": 238}, {"note": 70, "velocity": 74, "duration": 238}, {"note": 67, "velocity": 85, "duration": 478}, {"note": 60, "velocity": 85, "duration": 238}, {"note": 67, "velocity": 91, "duration": 238}, {"note": 65, "velocity": 91, "duration": 477}, {"note": 65, "velocity": 87, "duration": 238}, {"note": 63, "velocity": 79, "duration": 250}, {"note": 65, "velocity": 91, "duration": 478}, {"note": 63, "velocity": 87, "duration": 238}, {"note": 67, "velocity": 97, "duration": 265}, {"note": 65, "velocity": 97, "duration": 1438}, {"note": 63, "velocity": 63, "duration": 238}, {"note": 65, "velocity": 72, "duration": 238}, {"note": 67, "velocity": 86, "duration": 478}, {"note": 67, "velocity": 93, "duration": 238}, {"note": 70, "velocity": 85, "duration": 238}, {"note": 67, "velocity": 81, "duration": 247}, {"note": 65, "velocity": 84, "duration": 251}, {"note": 63, "velocity": 82, "duration": 238}, {"note": 58, "velocity": 72, "duration": 238}, {"note": 60, "velocity": 95, "duration": 1438}, {"note": 63, "velocity": 90, "duration": 238}, {"note": 65, "velocity": 84, "duration": 250}, {"note": 67, "velocity": 93, "duration": 718}, {"note": 70, "velocity": 93, "duration": 238}, {"note": 67, "velocity": 93, "duration": 244}, {"note": 65, "velocity": 90, "duration": 211}, {"note": 65, "velocity": 92, "duration": 6}, {"note": 63, "velocity": 89, "duration": 250}, {"note": 65, "velocity": 97, "duration": 1437}, {"note": 65, "velocity": 79, "duration": 238}, {"note": 67, "velocity": 73, "duration": 238}, {"note": 63, "velocity": 73, "duration": 478}, {"note": 65, "velocity": 87, "duration": 238}, {"note": 63, "velocity": 66, "duration": 294}, {"note": 60, "velocity": 68, "duration": 477}, {"note": 60, "velocity": 74, "duration": 238}, {"note": 58, "velocity": 66, "duration": 238}, {"note": 67, "velocity": 67, "duration": 243}, {"note": 70, "velocity": 57, "duration": 238}, {"note": 72, "velocity": 64, "duration": 266}, {"note": 70, "velocity": 73, "duration": 238}, {"note": 67, "velocity": 84, "duration": 478}, {"note": 60, "velocity": 73, "duration": 238}, {"note": 67, "velocity": 62, "duration": 238}, {"note": 65, "velocity": 72, "duration": 478}, {"note": 65, "velocity": 83, "duration": 252}, {"note": 63, "velocity": 56, "duration": 255}, {"note": 60, "velocity": 52, "duration": 237}, {"note": 60, "velocity": 52, "duration": 255}, {"note": 58, "velocity": 54, "duration": 245}, {"note": 60, "velocity": 52, "duration": 253}, {"note": 63, "velocity": 60, "duration": 1438}, {"note": 67, "velocity": 87, "duration": 238}, {"note": 70, "velocity": 84, "duration": 238}, {"note": 72, "velocity": 97, "duration": 10}, {"note": 72, "velocity": 94, "duration": 237}, {"note": 72, "velocity": 92, "duration": 238}, {"note": 70, "velocity": 77, "duration": 243}, {"note": 72, "velocity": 87, "duration": 477}, {"note": 72, "velocity": 93, "duration": 238}, {"note": 67, "velocity": 80, "duration": 238}, {"note": 70, "velocity": 85, "duration": 237}, {"note": 70, "velocity": 84, "duration": 238}, {"note": 72, "velocity": 96, "duration": 238}, {"note": 70, "velocity": 87, "duration": 239}, {"note": 67, "velocity": 95, "duration": 477}, {"note": 67, "velocity": 83, "duration": 238}, {"note": 70, "velocity": 72, "duration": 238}, {"note": 72, "velocity": 87, "duration": 237}, {"note": 72, "velocity": 93, "duration": 237}, {"note": 72, "velocity": 95, "duration": 243}, {"note": 70, "velocity": 90, "duration": 257}, {"note": 72, "velocity": 99, "duration": 477}, {"note": 72, "velocity": 91, "duration": 238}, {"note": 67, "velocity": 82, "duration": 238}, {"note": 70, "velocity": 95, "duration": 1438}, {"note": 67, "velocity": 85, "duration": 238}, {"note": 70, "velocity": 79, "duration": 243}, {"note": 72, "velocity": 85, "duration": 237}, {"note": 72, "velocity": 87, "duration": 237}, {"note": 72, "velocity": 93, "duration": 238}, {"note": 70, "velocity": 90, "duration": 274}, {"note": 72, "velocity": 91, "duration": 477}, {"note": 72, "velocity": 96, "duration": 238}, {"note": 67, "velocity": 66, "duration": 238}, {"note": 70, "velocity": 86, "duration": 237}, {"note": 70, "velocity": 90, "duration": 238}, {"note": 72, "velocity": 95, "duration": 238}, {"note": 70, "velocity": 93, "duration": 238}, {"note": 67, "velocity": 95, "duration": 478}, {"note": 60, "velocity": 66, "duration": 253}, {"note": 67, "velocity": 72, "duration": 238}, {"note": 65, "velocity": 82, "duration": 477}, {"note": 65, "velocity": 86, "duration": 238}, {"note": 63, "velocity": 63, "duration": 243}, {"note": 60, "velocity": 64, "duration": 237}, {"note": 60, "velocity": 64, "duration": 238}, {"note": 58, "velocity": 66, "duration": 237}, {"note": 58, "velocity": 56, "duration": 238}, {"note": 60, "velocity": 68, "duration": 1250}, {"note": 0, "velocity": 0, "duration": 190}, {"note": 63, "velocity": 90, "duration": 220}, {"note": 65, "velocity": 84, "duration": 229}, {"note": 67, "velocity": 84, "duration": 682}, {"note": 70, "velocity": 77, "duration": 210}, {"note": 67, "velocity": 87, "duration": 205}, {"note": 65, "velocity": 72, "duration": 216}, {"note": 63, "velocity": 76, "duration": 202}, {"note": 58, "velocity": 66, "duration": 202}, {"note": 60, "velocity": 90, "duration": 1402}, {"note": 63, "velocity": 84, "duration": 213}, {"note": 65, "velocity": 67, "duration": 243}, {"note": 67, "velocity": 73, "duration": 441}, {"note": 67, "velocity": 84, "duration": 202}, {"note": 70, "velocity": 66, "duration": 32}, {"note": 67, "velocity": 80, "duration": 206}, {"note": 65, "velocity": 66, "duration": 201}, {"note": 65, "velocity": 77, "duration": 202}, {"note": 63, "velocity": 66, "duration": 202}, {"note": 65, "velocity": 87, "duration": 1401}, {"note": 65, "velocity": 83, "duration": 202}, {"note": 67, "velocity": 79, "duration": 202}, {"note": 63, "velocity": 79, "duration": 442}, {"note": 65, "velocity": 66, "duration": 208}, {"note": 63, "velocity": 66, "duration": 203}, {"note": 60, "velocity": 60, "duration": 441}, {"note": 60, "velocity": 87, "duration": 202}, {"note": 58, "velocity": 66, "duration": 205}, {"note": 67, "velocity": 84, "duration": 202}, {"note": 70, "velocity": 59, "duration": 202}, {"note": 72, "velocity": 75, "duration": 202}, {"note": 70, "velocity": 74, "duration": 202}, {"note": 67, "velocity": 85, "duration": 442}, {"note": 60, "velocity": 85, "duration": 202}, {"note": 67, "velocity": 91, "duration": 202}, {"note": 65, "velocity": 91, "duration": 441}, {"note": 65, "velocity": 87, "duration": 202}, {"note": 63, "velocity": 79, "duration": 215}, {"note": 60, "velocity": 91, "duration": 442}, {"note": 58, "velocity": 87, "duration": 202}, {"note": 60, "velocity": 97, "duration": 230}, {"note": 63, "velocity": 97, "duration": 1402}, {"note": 0, "velocity": 0, "duration": 15398}, {"note": 63, "velocity": 90, "duration": 220}, {"note": 65, "velocity": 84, "duration": 229}, {"note": 67, "velocity": 84, "duration": 682}, {"note": 70, "velocity": 77, "duration": 210}, {"note": 67, "velocity": 87, "duration": 205}, {"note": 65, "velocity": 72, "duration": 216}, {"note": 63, "velocity": 76, "duration": 202}, {"note": 58, "velocity": 66, "duration": 202}, {"note": 60, "velocity": 90, "duration": 1402}, {"note": 63, "velocity": 84, "duration": 213}, {"note": 65, "velocity": 67, "duration": 243}, {"note": 67, "velocity": 73, "duration": 441}, {"note": 67, "velocity": 84, "duration": 202}, {"note": 70, "velocity": 66, "duration": 223}, {"note": 67, "velocity": 80, "duration": 196}, {"note": 65, "velocity": 66, "duration": 201}, {"note": 65, "velocity": 77, "duration": 202}, {"note": 63, "velocity": 66, "duration": 202}, {"note": 65, "velocity": 87, "duration": 1401}, {"note": 65, "velocity": 83, "duration": 202}, {"note": 67, "velocity": 79, "duration": 202}, {"note": 63, "velocity": 79, "duration": 442}, {"note": 65, "velocity": 66, "duration": 208}, {"note": 63, "velocity": 66, "duration": 203}, {"note": 60, "velocity": 60, "duration": 441}, {"note": 60, "velocity": 87, "duration": 202}, {"note": 58, "velocity": 66, "duration": 205}, {"note": 67, "velocity": 84, "duration": 202}, {"note": 70, "velocity": 59, "duration": 202}, {"note": 72, "velocity": 75, "duration": 202}, {"note": 70, "velocity": 74, "duration": 202}, {"note": 67, "velocity": 85, "duration": 442}, {"note": 60, "velocity": 85, "duration": 202}, {"note": 67, "velocity": 91, "duration": 202}, {"note": 65, "velocity": 91, "duration": 441}, {"note": 65, "velocity": 87, "duration": 202}, {"note": 63, "velocity": 79, "duration": 215}, {"note": 60, "velocity": 91, "duration": 442}, {"note": 58, "velocity": 87, "duration": 202}, {"note": 60, "velocity": 97, "duration": 230}, {"note": 63, "velocity": 97, "duration": 1402}, {"note": 67, "velocity": 87, "duration": 238}, {"note": 70, "velocity": 84, "duration": 238}, {"note": 72, "velocity": 97, "duration": 6}, {"note": 72, "velocity": 94, "duration": 237}, {"note": 72, "velocity": 92, "duration": 238}, {"note": 70, "velocity": 77, "duration": 243}, {"note": 72, "velocity": 87, "duration": 477}, {"note": 72, "velocity": 93, "duration": 238}, {"note": 67, "velocity": 80, "duration": 238}, {"note": 70, "velocity": 85, "duration": 237}, {"note": 70, "velocity": 84, "duration": 238}, {"note": 72, "velocity": 96, "duration": 238}, {"note": 70, "velocity": 87, "duration": 239}, {"note": 67, "velocity": 95, "duration": 477}, {"note": 67, "velocity": 83, "duration": 238}, {"note": 70, "velocity": 72, "duration": 238}, {"note": 72, "velocity": 87, "duration": 237}, {"note": 72, "velocity": 93, "duration": 237}, {"note": 72, "velocity": 95, "duration": 243}, {"note": 70, "velocity": 90, "duration": 257}, {"note": 72, "velocity": 99, "duration": 477}, {"note": 72, "velocity": 91, "duration": 238}, {"note": 67, "velocity": 82, "duration": 238}, {"note": 70, "velocity": 95, "duration": 1438}, {"note": 67, "velocity": 85, "duration": 238}, {"note": 70, "velocity": 79, "duration": 243}, {"note": 72, "velocity": 85, "duration": 237}, {"note": 72, "velocity": 87, "duration": 237}, {"note": 72, "velocity": 93, "duration": 238}, {"note": 70, "velocity": 90, "duration": 274}, {"note": 72, "velocity": 91, "duration": 477}, {"note": 72, "velocity": 96, "duration": 238}, {"note": 67, "velocity": 66, "duration": 238}, {"note": 70, "velocity": 86, "duration": 237}, {"note": 70, "velocity": 90, "duration": 238}, {"note": 72, "velocity": 95, "duration": 238}, {"note": 70, "velocity": 93, "duration": 238}, {"note": 67, "velocity": 95, "duration": 478}, {"note": 60, "velocity": 66, "duration": 253}, {"note": 67, "velocity": 72, "duration": 238}, {"note": 65, "velocity": 82, "duration": 477}, {"note": 65, "velocity": 86, "duration": 238}, {"note": 63, "velocity": 63, "duration": 243}, {"note": 60, "velocity": 64, "duration": 237}, {"note": 60, "velocity": 64, "duration": 238}, {"note": 58, "velocity": 66, "duration": 237}, {"note": 58, "velocity": 56, "duration": 238}, {"note": 60, "velocity": 68, "duration": 1250}, {"note": 0, "velocity": 0, "duration": 190}, {"note": 63, "velocity": 63, "duration": 238}, {"note": 65, "velocity": 72, "duration": 238}, {"note": 67, "velocity": 86, "duration": 598}, {"note": 0, "velocity": 0, "duration": 122}, {"note": 70, "velocity": 85, "duration": 238}, {"note": 67, "velocity": 81, "duration": 247}, {"note": 65, "velocity": 84, "duration": 251}, {"note": 63, "velocity": 82, "duration": 238}, {"note": 58, "velocity": 72, "duration": 238}, {"note": 60, "velocity": 95, "duration": 1438}, {"note": 63, "velocity": 90, "duration": 238}, {"note": 65, "velocity": 84, "duration": 250}, {"note": 67, "velocity": 93, "duration": 478}, {"note": 67, "velocity": 93, "duration": 238}, {"note": 70, "velocity": 93, "duration": 41}, {"note": 67, "velocity": 93, "duration": 244}, {"note": 65, "velocity": 90, "duration": 237}, {"note": 65, "velocity": 92, "duration": 238}, {"note": 63, "velocity": 89, "duration": 250}, {"note": 65, "velocity": 97, "duration": 1437}, {"note": 65, "velocity": 79, "duration": 238}, {"note": 67, "velocity": 73, "duration": 238}, {"note": 63, "velocity": 73, "duration": 478}, {"note": 65, "velocity": 87, "duration": 238}, {"note": 63, "velocity": 66, "duration": 294}, {"note": 60, "velocity": 68, "duration": 477}, {"note": 60, "velocity": 74, "duration": 238}, {"note": 58, "velocity": 66, "duration": 238}, {"note": 67, "velocity": 67, "duration": 243}, {"note": 70, "velocity": 57, "duration": 238}, {"note": 72, "velocity": 64, "duration": 266}, {"note": 70, "velocity": 73, "duration": 238}, {"note": 67, "velocity": 84, "duration": 478}, {"note": 60, "velocity": 73, "duration": 238}, {"note": 67, "velocity": 62, "duration": 238}, {"note": 65, "velocity": 72, "duration": 477}, {"note": 65, "velocity": 83, "duration": 252}, {"note": 63, "velocity": 56, "duration": 255}, {"note": 60, "velocity": 52, "duration": 478}, {"note": 58, "velocity": 54, "duration": 245}, {"note": 60, "velocity": 52, "duration": 253}, {"note": 63, "velocity": 60, "duration": 1438}, {"note": 67, "velocity": 87, "duration": 249}, {"note": 70, "velocity": 84, "duration": 249}, {"note": 72, "velocity": 97, "duration": 238}, {"note": 72, "velocity": 94, "duration": 236}, {"note": 72, "velocity": 92, "duration": 249}, {"note": 70, "velocity": 77, "duration": 254}, {"note": 72, "velocity": 87, "duration": 478}, {"note": 72, "velocity": 93, "duration": 249}, {"note": 67, "velocity": 80, "duration": 249}, {"note": 70, "velocity": 85, "duration": 238}, {"note": 70, "velocity": 84, "duration": 249}, {"note": 72, "velocity": 96, "duration": 249}, {"note": 70, "velocity": 87, "duration": 250}, {"note": 67, "velocity": 95, "duration": 478}, {"note": 67, "velocity": 83, "duration": 249}, {"note": 70, "velocity": 72, "duration": 249}, {"note": 72, "velocity": 87, "duration": 238}, {"note": 72, "velocity": 93, "duration": 238}, {"note": 72, "velocity": 95, "duration": 254}, {"note": 70, "velocity": 90, "duration": 268}, {"note": 72, "velocity": 99, "duration": 488}, {"note": 72, "velocity": 91, "duration": 8}, {"note": 0, "velocity": 0, "duration": 232}, {"note": 67, "velocity": 82, "duration": 249}, {"note": 70, "velocity": 95, "duration": 1449}, {"note": 67, "velocity": 85, "duration": 249}, {"note": 70, "velocity": 79, "duration": 253}, {"note": 72, "velocity": 85, "duration": 238}, {"note": 72, "velocity": 87, "duration": 248}, {"note": 72, "velocity": 93, "duration": 8}, {"note": 0, "velocity": 0, "duration": 232}, {"note": 70, "velocity": 90, "duration": 284}, {"note": 72, "velocity": 91, "duration": 478}, {"note": 72, "velocity": 96, "duration": 249}, {"note": 67, "velocity": 66, "duration": 249}, {"note": 70, "velocity": 86, "duration": 238}, {"note": 70, "velocity": 90, "duration": 249}, {"note": 72, "velocity": 95, "duration": 249}, {"note": 70, "velocity": 93, "duration": 249}, {"note": 67, "velocity": 95, "duration": 489}, {"note": 60, "velocity": 66, "duration": 263}, {"note": 67, "velocity": 72, "duration": 249}, {"note": 65, "velocity": 82, "duration": 478}, {"note": 65, "velocity": 86, "duration": 249}, {"note": 63, "velocity": 63, "duration": 254}, {"note": 60, "velocity": 64, "duration": 248}, {"note": 60, "velocity": 64, "duration": 8}, {"note": 0, "velocity": 0, "duration": 232}, {"note": 58, "velocity": 66, "duration": 238}, {"note": 58, "velocity": 56, "duration": 249}, {"note": 60, "velocity": 68, "duration": 1261}, {"note": 0, "velocity": 0, "duration": 179}, {"note": 63, "velocity": 63, "duration": 270}, {"note": 65, "velocity": 72, "duration": 238}, {"note": 67, "velocity": 86, "duration": 718}, {"note": 70, "velocity": 85, "duration": 270}, {"note": 67, "velocity": 81, "duration": 279}, {"note": 65, "velocity": 84, "duration": 283}, {"note": 63, "velocity": 82, "duration": 270}, {"note": 58, "velocity": 72, "duration": 238}, {"note": 60, "velocity": 95, "duration": 1470}, {"note": 63, "velocity": 90, "duration": 270}, {"note": 65, "velocity": 84, "duration": 238}, {"note": 67, "velocity": 93, "duration": 478}, {"note": 67, "velocity": 93, "duration": 270}, {"note": 70, "velocity": 93, "duration": 251}, {"note": 67, "velocity": 93, "duration": 257}, {"note": 65, "velocity": 90, "duration": 238}, {"note": 65, "velocity": 92, "duration": 270}, {"note": 63, "velocity": 89, "duration": 282}, {"note": 65, "velocity": 97, "duration": 1438}, {"note": 65, "velocity": 79, "duration": 270}, {"note": 67, "velocity": 73, "duration": 270}, {"note": 63, "velocity": 73, "duration": 510}, {"note": 65, "velocity": 87, "duration": 270}, {"note": 63, "velocity": 66, "duration": 326}, {"note": 60, "velocity": 68, "duration": 478}, {"note": 60, "velocity": 74, "duration": 270}, {"note": 58, "velocity": 66, "duration": 270}, {"note": 67, "velocity": 67, "duration": 274}, {"note": 70, "velocity": 96, "duration": 270}, {"note": 72, "velocity": 64, "duration": 298}, {"note": 70, "velocity": 73, "duration": 270}, {"note": 67, "velocity": 84, "duration": 510}, {"note": 60, "velocity": 73, "duration": 270}, {"note": 67, "velocity": 62, "duration": 270}, {"note": 65, "velocity": 72, "duration": 478}, {"note": 65, "velocity": 83, "duration": 284}, {"note": 63, "velocity": 56, "duration": 287}, {"note": 60, "velocity": 52, "duration": 238}, {"note": 60, "velocity": 52, "duration": 287}, {"note": 58, "velocity": 54, "duration": 277}, {"note": 60, "velocity": 52, "duration": 285}, {"note": 63, "velocity": 60, "duration": 1470}]]