[[{"note": 72, "velocity": 50, "duration": 237}, {"note": 72, "velocity": 71, "duration": 238}, {"note": 74, "velocity": 63, "duration": 246}, {"note": 75, "velocity": 63, "duration": 237}, {"note": 75, "velocity": 66, "duration": 237}, {"note": 75, "velocity": 66, "duration": 238}, {"note": 72, "velocity": 64, "duration": 276}, {"note": 79, "velocity": 65, "duration": 478}, {"note": 77, "velocity": 67, "duration": 238}, {"note": 75, "velocity": 67, "duration": 478}, {"note": 77, "velocity": 79, "duration": 958}, {"note": 70, "velocity": 64, "duration": 237}, {"note": 70, "velocity": 66, "duration": 238}, {"note": 72, "velocity": 65, "duration": 238}, {"note": 74, "velocity": 75, "duration": 237}, {"note": 74, "velocity": 62, "duration": 237}, {"note": 74, "velocity": 65, "duration": 238}, {"note": 70, "velocity": 61, "duration": 270}, {"note": 80, "velocity": 68, "duration": 478}, {"note": 79, "velocity": 69, "duration": 238}, {"note": 77, "velocity": 64, "duration": 478}, {"note": 79, "velocity": 77, "duration": 958}, {"note": 77, "velocity": 64, "duration": 237}, {"note": 77, "velocity": 58, "duration": 238}, {"note": 79, "velocity": 66, "duration": 238}, {"note": 80, "velocity": 67, "duration": 237}, {"note": 80, "velocity": 66, "duration": 237}, {"note": 80, "velocity": 71, "duration": 238}, {"note": 77, "velocity": 65, "duration": 253}, {"note": 79, "velocity": 66, "duration": 478}, {"note": 77, "velocity": 66, "duration": 237}, {"note": 77, "velocity": 63, "duration": 478}, {"note": 75, "velocity": 65, "duration": 1198}, {"note": 72, "velocity": 86, "duration": 237}, {"note": 72, "velocity": 71, "duration": 237}, {"note": 72, "velocity": 80, "duration": 478}, {"note": 70, "velocity": 65, "duration": 238}, {"note": 72, "velocity": 81, "duration": 2158}, {"note": 0, "velocity": 0, "duration": 242}, {"note": 72, "velocity": 87, "duration": 237}, {"note": 72, "velocity": 74, "duration": 238}, {"note": 74, "velocity": 82, "duration": 238}, {"note": 75, "velocity": 80, "duration": 237}, {"note": 75, "velocity": 79, "duration": 237}, {"note": 75, "velocity": 79, "duration": 238}, {"note": 72, "velocity": 66, "duration": 262}, {"note": 79, "velocity": 72, "duration": 478}, {"note": 77, "velocity": 68, "duration": 10}, {"note": 75, "velocity": 72, "duration": 339}, {"note": 77, "velocity": 84, "duration": 464}, {"note": 70, "velocity": 61, "duration": 237}, {"note": 70, "velocity": 66, "duration": 238}, {"note": 72, "velocity": 65, "duration": 238}, {"note": 74, "velocity": 75, "duration": 237}, {"note": 74, "velocity": 68, "duration": 237}, {"note": 74, "velocity": 67, "duration": 238}, {"note": 70, "velocity": 77, "duration": 250}, {"note": 80, "velocity": 80, "duration": 478}, {"note": 79, "velocity": 86, "duration": 238}, {"note": 77, "velocity": 86, "duration": 478}, {"note": 79, "velocity": 91, "duration": 718}, {"note": 0, "velocity": 0, "duration": 242}, {"note": 77, "velocity": 63, "duration": 237}, {"note": 77, "velocity": 61, "duration": 238}, {"note": 79, "velocity": 66, "duration": 293}, {"note": 80, "velocity": 64, "duration": 237}, {"note": 80, "velocity": 60, "duration": 237}, {"note": 80, "velocity": 73, "duration": 238}, {"note": 77, "velocity": 63, "duration": 253}, {"note": 79, "velocity": 66, "duration": 478}, {"note": 77, "velocity": 73, "duration": 237}, {"note": 77, "velocity": 64, "duration": 478}, {"note": 75, "velocity": 65, "duration": 718}, {"note": 0, "velocity": 0, "duration": 482}, {"note": 72, "velocity": 74, "duration": 237}, {"note": 72, "velocity": 82, "duration": 237}, {"note": 72, "velocity": 84, "duration": 478}, {"note": 70, "velocity": 76, "duration": 238}, {"note": 72, "velocity": 80, "duration": 1678}, {"note": 0, "velocity": 0, "duration": 722}, {"note": 84, "velocity": 90, "duration": 237}, {"note": 84, "velocity": 68, "duration": 238}, {"note": 82, "velocity": 64, "duration": 237}, {"note": 82, "velocity": 64, "duration": 237}, {"note": 82, "velocity": 64, "duration": 237}, {"note": 82, "velocity": 89, "duration": 238}, {"note": 79, "velocity": 66, "duration": 238}, {"note": 77, "velocity": 61, "duration": 238}, {"note": 79, "velocity": 73, "duration": 478}, {"note": 77, "velocity": 57, "duration": 1198}, {"note": 84, "velocity": 98, "duration": 350}, {"note": 82, "velocity": 91, "duration": 358}, {"note": 79, "velocity": 77, "duration": 267}, {"note": 77, "velocity": 72, "duration": 358}, {"note": 82, "velocity": 89, "duration": 358}, {"note": 79, "velocity": 87, "duration": 1677}, {"note": 79, "velocity": 97, "duration": 276}, {"note": 77, "velocity": 90, "duration": 478}, {"note": 75, "velocity": 90, "duration": 192}, {"note": 75, "velocity": 91, "duration": 478}, {"note": 72, "velocity": 66, "duration": 238}, {"note": 77, "velocity": 90, "duration": 1918}, {"note": 72, "velocity": 73, "duration": 238}, {"note": 75, "velocity": 90, "duration": 477}, {"note": 75, "velocity": 76, "duration": 237}, {"note": 75, "velocity": 76, "duration": 478}, {"note": 79, "velocity": 93, "duration": 477}, {"note": 79, "velocity": 92, "duration": 2158}, {"note": 0, "velocity": 0, "duration": 242}, {"note": 84, "velocity": 92, "duration": 237}, {"note": 84, "velocity": 90, "duration": 238}, {"note": 82, "velocity": 89, "duration": 237}, {"note": 82, "velocity": 79, "duration": 237}, {"note": 82, "velocity": 79, "duration": 237}, {"note": 82, "velocity": 84, "duration": 238}, {"note": 79, "velocity": 65, "duration": 238}, {"note": 77, "velocity": 76, "duration": 238}, {"note": 79, "velocity": 83, "duration": 478}, {"note": 77, "velocity": 77, "duration": 1198}, {"note": 84, "velocity": 100, "duration": 240}, {"note": 82, "velocity": 93, "duration": 478}, {"note": 79, "velocity": 66, "duration": 256}, {"note": 82, "velocity": 68, "duration": 358}, {"note": 84, "velocity": 84, "duration": 358}, {"note": 79, "velocity": 91, "duration": 1677}, {"note": 79, "velocity": 96, "duration": 238}, {"note": 77, "velocity": 90, "duration": 478}, {"note": 75, "velocity": 90, "duration": 717}, {"note": 75, "velocity": 101, "duration": 478}, {"note": 72, "velocity": 81, "duration": 238}, {"note": 77, "velocity": 100, "duration": 1918}, {"note": 75, "velocity": 91, "duration": 238}, {"note": 77, "velocity": 91, "duration": 478}, {"note": 75, "velocity": 97, "duration": 238}, {"note": 77, "velocity": 90, "duration": 478}, {"note": 75, "velocity": 97, "duration": 478}, {"note": 72, "velocity": 87, "duration": 2158}, {"note": 0, "velocity": 0, "duration": 15602}, {"note": 72, "velocity": 50, "duration": 229}, {"note": 72, "velocity": 71, "duration": 230}, {"note": 74, "velocity": 63, "duration": 238}, {"note": 75, "velocity": 63, "duration": 229}, {"note": 75, "velocity": 66, "duration": 229}, {"note": 75, "velocity": 66, "duration": 230}, {"note": 72, "velocity": 64, "duration": 269}, {"note": 79, "velocity": 65, "duration": 470}, {"note": 77, "velocity": 67, "duration": 230}, {"note": 75, "velocity": 67, "duration": 470}, {"note": 77, "velocity": 79, "duration": 950}, {"note": 70, "velocity": 64, "duration": 229}, {"note": 70, "velocity": 66, "duration": 230}, {"note": 72, "velocity": 65, "duration": 230}, {"note": 74, "velocity": 75, "duration": 229}, {"note": 74, "velocity": 62, "duration": 229}, {"note": 74, "velocity": 65, "duration": 230}, {"note": 70, "velocity": 61, "duration": 262}, {"note": 80, "velocity": 68, "duration": 470}, {"note": 79, "velocity": 69, "duration": 230}, {"note": 77, "velocity": 64, "duration": 470}, {"note": 79, "velocity": 77, "duration": 950}, {"note": 77, "velocity": 64, "duration": 229}, {"note": 77, "velocity": 58, "duration": 230}, {"note": 79, "velocity": 66, "duration": 230}, {"note": 80, "velocity": 67, "duration": 229}, {"note": 80, "velocity": 66, "duration": 229}, {"note": 80, "velocity": 71, "duration": 230}, {"note": 77, "velocity": 65, "duration": 245}, {"note": 79, "velocity": 66, "duration": 470}, {"note": 77, "velocity": 66, "duration": 229}, {"note": 77, "velocity": 63, "duration": 470}, {"note": 75, "velocity": 65, "duration": 1190}, {"note": 72, "velocity": 86, "duration": 229}, {"note": 72, "velocity": 71, "duration": 229}, {"note": 72, "velocity": 80, "duration": 470}, {"note": 70, "velocity": 65, "duration": 230}, {"note": 72, "velocity": 81, "duration": 2150}, {"note": 0, "velocity": 0, "duration": 250}, {"note": 72, "velocity": 87, "duration": 229}, {"note": 72, "velocity": 74, "duration": 230}, {"note": 74, "velocity": 82, "duration": 230}, {"note": 75, "velocity": 80, "duration": 229}, {"note": 75, "velocity": 79, "duration": 229}, {"note": 75, "velocity": 79, "duration": 230}, {"note": 72, "velocity": 66, "duration": 254}, {"note": 79, "velocity": 72, "duration": 470}, {"note": 77, "velocity": 68, "duration": 10}, {"note": 75, "velocity": 72, "duration": 339}, {"note": 77, "velocity": 84, "duration": 463}, {"note": 70, "velocity": 61, "duration": 229}, {"note": 70, "velocity": 66, "duration": 230}, {"note": 72, "velocity": 65, "duration": 230}, {"note": 74, "velocity": 75, "duration": 229}, {"note": 74, "velocity": 68, "duration": 229}, {"note": 74, "velocity": 67, "duration": 230}, {"note": 70, "velocity": 77, "duration": 242}, {"note": 80, "velocity": 80, "duration": 470}, {"note": 79, "velocity": 86, "duration": 230}, {"note": 77, "velocity": 86, "duration": 470}, {"note": 79, "velocity": 91, "duration": 710}, {"note": 0, "velocity": 0, "duration": 250}, {"note": 77, "velocity": 63, "duration": 229}, {"note": 77, "velocity": 61, "duration": 230}, {"note": 79, "velocity": 66, "duration": 286}, {"note": 80, "velocity": 64, "duration": 229}, {"note": 80, "velocity": 60, "duration": 229}, {"note": 80, "velocity": 73, "duration": 230}, {"note": 77, "velocity": 63, "duration": 245}, {"note": 79, "velocity": 66, "duration": 470}, {"note": 77, "velocity": 73, "duration": 229}, {"note": 77, "velocity": 64, "duration": 470}, {"note": 75, "velocity": 65, "duration": 710}, {"note": 0, "velocity": 0, "duration": 490}, {"note": 72, "velocity": 74, "duration": 229}, {"note": 72, "velocity": 82, "duration": 229}, {"note": 72, "velocity": 84, "duration": 470}, {"note": 70, "velocity": 76, "duration": 230}, {"note": 72, "velocity": 80, "duration": 1670}, {"note": 0, "velocity": 0, "duration": 730}, {"note": 84, "velocity": 90, "duration": 229}, {"note": 84, "velocity": 68, "duration": 230}, {"note": 82, "velocity": 64, "duration": 229}, {"note": 82, "velocity": 64, "duration": 229}, {"note": 82, "velocity": 64, "duration": 229}, {"note": 82, "velocity": 89, "duration": 230}, {"note": 79, "velocity": 66, "duration": 230}, {"note": 77, "velocity": 61, "duration": 230}, {"note": 79, "velocity": 73, "duration": 470}, {"note": 77, "velocity": 57, "duration": 1190}, {"note": 84, "velocity": 98, "duration": 342}, {"note": 82, "velocity": 91, "duration": 350}, {"note": 79, "velocity": 77, "duration": 259}, {"note": 77, "velocity": 72, "duration": 350}, {"note": 82, "velocity": 89, "duration": 350}, {"note": 79, "velocity": 87, "duration": 1669}, {"note": 79, "velocity": 97, "duration": 268}, {"note": 77, "velocity": 90, "duration": 470}, {"note": 75, "velocity": 90, "duration": 192}, {"note": 75, "velocity": 91, "duration": 470}, {"note": 72, "velocity": 66, "duration": 230}, {"note": 77, "velocity": 90, "duration": 1910}, {"note": 72, "velocity": 73, "duration": 230}, {"note": 75, "velocity": 90, "duration": 469}, {"note": 75, "velocity": 76, "duration": 229}, {"note": 75, "velocity": 76, "duration": 470}, {"note": 79, "velocity": 93, "duration": 469}, {"note": 79, "velocity": 92, "duration": 2150}, {"note": 0, "velocity": 0, "duration": 250}, {"note": 84, "velocity": 92, "duration": 229}, {"note": 84, "velocity": 90, "duration": 230}, {"note": 82, "velocity": 89, "duration": 229}, {"note": 82, "velocity": 79, "duration": 229}, {"note": 82, "velocity": 79, "duration": 229}, {"note": 82, "velocity": 84, "duration": 230}, {"note": 79, "velocity": 65, "duration": 230}, {"note": 77, "velocity": 76, "duration": 230}, {"note": 79, "velocity": 83, "duration": 470}, {"note": 77, "velocity": 77, "duration": 1190}, {"note": 84, "velocity": 100, "duration": 232}, {"note": 82, "velocity": 93, "duration": 470}, {"note": 79, "velocity": 66, "duration": 248}, {"note": 82, "velocity": 68, "duration": 350}, {"note": 84, "velocity": 84, "duration": 350}, {"note": 79, "velocity": 91, "duration": 1669}, {"note": 79, "velocity": 96, "duration": 230}, {"note": 77, "velocity": 90, "duration": 470}, {"note": 75, "velocity": 90, "duration": 709}, {"note": 75, "velocity": 101, "duration": 470}, {"note": 72, "velocity": 81, "duration": 230}, {"note": 77, "velocity": 100, "duration": 1910}, {"note": 75, "velocity": 91, "duration": 230}, {"note": 77, "velocity": 91, "duration": 470}, {"note": 75, "velocity": 97, "duration": 230}, {"note": 77, "velocity": 90, "duration": 470}, {"note": 75, "velocity": 97, "duration": 470}, {"note": 72, "velocity": 87, "duration": 2150}, {"note": 0, "velocity": 0, "duration": 250}, {"note": 84, "velocity": 92, "duration": 229}, {"note": 84, "velocity": 90, "duration": 230}, {"note": 82, "velocity": 89, "duration": 229}, {"note": 82, "velocity": 79, "duration": 229}, {"note": 82, "velocity": 79, "duration": 229}, {"note": 82, "velocity": 84, "duration": 230}, {"note": 79, "velocity": 65, "duration": 230}, {"note": 77, "velocity": 76, "duration": 230}, {"note": 79, "velocity": 83, "duration": 470}, {"note": 77, "velocity": 77, "duration": 1190}, {"note": 84, "velocity": 100, "duration": 232}, {"note": 82, "velocity": 93, "duration": 470}, {"note": 79, "velocity": 66, "duration": 248}, {"note": 82, "velocity": 68, "duration": 350}, {"note": 84, "velocity": 84, "duration": 350}, {"note": 79, "velocity": 91, "duration": 1669}, {"note": 79, "velocity": 96, "duration": 230}, {"note": 77, "velocity": 90, "duration": 470}, {"note": 75, "velocity": 90, "duration": 709}, {"note": 75, "velocity": 101, "duration": 470}, {"note": 72, "velocity": 81, "duration": 230}, {"note": 77, "velocity": 100, "duration": 1910}, {"note": 72, "velocity": 91, "duration": 230}, {"note": 75, "velocity": 91, "duration": 470}, {"note": 75, "velocity": 97, "duration": 230}, {"note": 75, "velocity": 90, "duration": 470}, {"note": 79, "velocity": 97, "duration": 470}, {"note": 79, "velocity": 87, "duration": 2150}, {"note": 0, "velocity": 0, "duration": 250}, {"note": 84, "velocity": 92, "duration": 229}, {"note": 84, "velocity": 90, "duration": 230}, {"note": 82, "velocity": 89, "duration": 229}, {"note": 82, "velocity": 79, "duration": 229}, {"note": 82, "velocity": 79, "duration": 229}, {"note": 82, "velocity": 84, "duration": 230}, {"note": 79, "velocity": 65, "duration": 230}, {"note": 77, "velocity": 76, "duration": 230}, {"note": 79, "velocity": 83, "duration": 470}, {"note": 77, "velocity": 77, "duration": 1190}, {"note": 84, "velocity": 100, "duration": 232}, {"note": 82, "velocity": 93, "duration": 470}, {"note": 79, "velocity": 66, "duration": 248}, {"note": 82, "velocity": 68, "duration": 350}, {"note": 84, "velocity": 84, "duration": 350}, {"note": 79, "velocity": 91, "duration": 1669}, {"note": 79, "velocity": 96, "duration": 230}, {"note": 77, "velocity": 90, "duration": 470}, {"note": 75, "velocity": 90, "duration": 709}, {"note": 75, "velocity": 101, "duration": 470}, {"note": 72, "velocity": 81, "duration": 230}, {"note": 77, "velocity": 100, "duration": 1910}, {"note": 75, "velocity": 91, "duration": 230}, {"note": 77, "velocity": 91, "duration": 470}, {"note": 75, "velocity": 97, "duration": 230}, {"note": 77, "velocity": 90, "duration": 470}, {"note": 75, "velocity": 97, "duration": 470}, {"note": 72, "velocity": 87, "duration": 2150}]]