[[{"note": 74, "velocity": 90, "duration": 438}, {"note": 76, "velocity": 86, "duration": 706}, {"note": 69, "velocity": 78, "duration": 480}, {"note": 71, "velocity": 83, "duration": 1599}, {"note": 0, "velocity": 0, "duration": 321}, {"note": 71, "velocity": 76, "duration": 167}, {"note": 0, "velocity": 0, "duration": 73}, {"note": 71, "velocity": 83, "duration": 286}, {"note": 72, "velocity": 83, "duration": 241}, {"note": 74, "velocity": 84, "duration": 279}, {"note": 71, "velocity": 84, "duration": 231}, {"note": 69, "velocity": 76, "duration": 91}, {"note": 0, "velocity": 0, "duration": 149}, {"note": 67, "velocity": 86, "duration": 397}, {"note": 69, "velocity": 90, "duration": 194}, {"note": 71, "velocity": 80, "duration": 128}, {"note": 69, "velocity": 83, "duration": 750}, {"note": 0, "velocity": 0, "duration": 1050}, {"note": 69, "velocity": 94, "duration": 169}, {"note": 0, "velocity": 0, "duration": 71}, {"note": 69, "velocity": 86, "duration": 259}, {"note": 71, "velocity": 86, "duration": 240}, {"note": 74, "velocity": 94, "duration": 192}, {"note": 71, "velocity": 83, "duration": 234}, {"note": 69, "velocity": 83, "duration": 217}, {"note": 67, "velocity": 76, "duration": 475}, {"note": 69, "velocity": 82, "duration": 1782}, {"note": 0, "velocity": 0, "duration": 138}, {"note": 69, "velocity": 84, "duration": 148}, {"note": 0, "velocity": 0, "duration": 92}, {"note": 69, "velocity": 83, "duration": 193}, {"note": 71, "velocity": 83, "duration": 226}, {"note": 74, "velocity": 84, "duration": 217}, {"note": 76, "velocity": 83, "duration": 232}, {"note": 74, "velocity": 90, "duration": 180}, {"note": 71, "velocity": 82, "duration": 196}, {"note": 69, "velocity": 82, "duration": 546}, {"note": 0, "velocity": 0, "duration": 174}, {"note": 71, "velocity": 84, "duration": 457}, {"note": 64, "velocity": 83, "duration": 280}, {"note": 67, "velocity": 83, "duration": 176}, {"note": 0, "velocity": 0, "duration": 64}, {"note": 64, "velocity": 81, "duration": 480}, {"note": 62, "velocity": 86, "duration": 805}, {"note": 0, "velocity": 0, "duration": 1355}, {"note": 74, "velocity": 90, "duration": 527}, {"note": 76, "velocity": 91, "duration": 937}, {"note": 69, "velocity": 101, "duration": 317}, {"note": 71, "velocity": 82, "duration": 652}, {"note": 0, "velocity": 0, "duration": 1148}, {"note": 71, "velocity": 83, "duration": 159}, {"note": 0, "velocity": 0, "duration": 81}, {"note": 71, "velocity": 82, "duration": 265}, {"note": 72, "velocity": 81, "duration": 244}, {"note": 74, "velocity": 78, "duration": 172}, {"note": 0, "velocity": 0, "duration": 68}, {"note": 71, "velocity": 82, "duration": 66}, {"note": 72, "velocity": 81, "duration": 77}, {"note": 71, "velocity": 46, "duration": 98}, {"note": 69, "velocity": 90, "duration": 272}, {"note": 67, "velocity": 93, "duration": 216}, {"note": 69, "velocity": 82, "duration": 213}, {"note": 71, "velocity": 80, "duration": 178}, {"note": 69, "velocity": 80, "duration": 952}, {"note": 0, "velocity": 0, "duration": 848}, {"note": 69, "velocity": 90, "duration": 144}, {"note": 0, "velocity": 0, "duration": 96}, {"note": 69, "velocity": 83, "duration": 212}, {"note": 71, "velocity": 90, "duration": 232}, {"note": 74, "velocity": 93, "duration": 179}, {"note": 0, "velocity": 0, "duration": 61}, {"note": 71, "velocity": 86, "duration": 183}, {"note": 69, "velocity": 81, "duration": 227}, {"note": 67, "velocity": 84, "duration": 258}, {"note": 69, "velocity": 84, "duration": 188}, {"note": 71, "velocity": 82, "duration": 149}, {"note": 69, "velocity": 80, "duration": 1121}, {"note": 0, "velocity": 0, "duration": 679}, {"note": 69, "velocity": 76, "duration": 153}, {"note": 0, "velocity": 0, "duration": 87}, {"note": 69, "velocity": 82, "duration": 283}, {"note": 71, "velocity": 86, "duration": 243}, {"note": 74, "velocity": 83, "duration": 171}, {"note": 0, "velocity": 0, "duration": 69}, {"note": 76, "velocity": 83, "duration": 164}, {"note": 0, "velocity": 0, "duration": 76}, {"note": 74, "velocity": 95, "duration": 134}, {"note": 0, "velocity": 0, "duration": 106}, {"note": 71, "velocity": 84, "duration": 214}, {"note": 69, "velocity": 86, "duration": 224}, {"note": 0, "velocity": 0, "duration": 496}, {"note": 71, "velocity": 83, "duration": 226}, {"note": 69, "velocity": 86, "duration": 292}, {"note": 0, "velocity": 0, "duration": 68}, {"note": 67, "velocity": 84, "duration": 307}, {"note": 76, "velocity": 90, "duration": 411}, {"note": 0, "velocity": 0, "duration": 69}, {"note": 74, "velocity": 95, "duration": 1913}, {"note": 0, "velocity": 0, "duration": 247}, {"note": 74, "velocity": 99, "duration": 516}, {"note": 76, "velocity": 100, "duration": 453}, {"note": 78, "velocity": 98, "duration": 322}, {"note": 79, "velocity": 96, "duration": 919}, {"note": 79, "velocity": 98, "duration": 79}, {"note": 0, "velocity": 0, "duration": 161}, {"note": 79, "velocity": 99, "duration": 254}, {"note": 0, "velocity": 0, "duration": 106}, {"note": 78, "velocity": 98, "duration": 370}, {"note": 71, "velocity": 98, "duration": 303}, {"note": 74, "velocity": 100, "duration": 1002}, {"note": 0, "velocity": 0, "duration": 918}, {"note": 76, "velocity": 93, "duration": 364}, {"note": 74, "velocity": 94, "duration": 309}, {"note": 72, "velocity": 98, "duration": 241}, {"note": 69, "velocity": 90, "duration": 392}, {"note": 0, "velocity": 0, "duration": 328}, {"note": 71, "velocity": 91, "duration": 142}, {"note": 72, "velocity": 91, "duration": 115}, {"note": 74, "velocity": 86, "duration": 319}, {"note": 71, "velocity": 96, "duration": 317}, {"note": 69, "velocity": 80, "duration": 256}, {"note": 67, "velocity": 91, "duration": 483}, {"note": 67, "velocity": 98, "duration": 3}, {"note": 0, "velocity": 0, "duration": 117}, {"note": 79, "velocity": 100, "duration": 348}, {"note": 76, "velocity": 95, "duration": 287}, {"note": 0, "velocity": 0, "duration": 1153}, {"note": 79, "velocity": 98, "duration": 109}, {"note": 81, "velocity": 95, "duration": 317}, {"note": 74, "velocity": 104, "duration": 1202}, {"note": 74, "velocity": 101, "duration": 2}, {"note": 0, "velocity": 0, "duration": 238}, {"note": 76, "velocity": 98, "duration": 216}, {"note": 78, "velocity": 100, "duration": 183}, {"note": 79, "velocity": 95, "duration": 75}, {"note": 81, "velocity": 90, "duration": 109}, {"note": 79, "velocity": 98, "duration": 644}, {"note": 79, "velocity": 98, "duration": 44}, {"note": 0, "velocity": 0, "duration": 196}, {"note": 79, "velocity": 98, "duration": 307}, {"note": 78, "velocity": 91, "duration": 329}, {"note": 71, "velocity": 100, "duration": 295}, {"note": 74, "velocity": 98, "duration": 847}, {"note": 0, "velocity": 0, "duration": 1073}, {"note": 76, "velocity": 90, "duration": 304}, {"note": 74, "velocity": 84, "duration": 354}, {"note": 72, "velocity": 106, "duration": 250}, {"note": 69, "velocity": 98, "duration": 404}, {"note": 0, "velocity": 0, "duration": 316}, {"note": 71, "velocity": 90, "duration": 162}, {"note": 72, "velocity": 90, "duration": 141}, {"note": 74, "velocity": 86, "duration": 315}, {"note": 71, "velocity": 84, "duration": 399}, {"note": 78, "velocity": 95, "duration": 304}, {"note": 76, "velocity": 98, "duration": 423}, {"note": 76, "velocity": 95, "duration": 261}, {"note": 78, "velocity": 99, "duration": 221}, {"note": 79, "velocity": 101, "duration": 1287}, {"note": 0, "velocity": 0, "duration": 153}, {"note": 79, "velocity": 101, "duration": 91}, {"note": 81, "velocity": 93, "duration": 364}, {"note": 76, "velocity": 80, "duration": 18}, {"note": 0, "velocity": 0, "duration": 102}, {"note": 74, "velocity": 83, "duration": 1792}, {"note": 0, "velocity": 0, "duration": 1208}, {"note": 74, "velocity": 90, "duration": 318}, {"note": 72, "velocity": 98, "duration": 455}, {"note": 71, "velocity": 93, "duration": 575}, {"note": 0, "velocity": 0, "duration": 745}, {"note": 71, "velocity": 83, "duration": 214}, {"note": 72, "velocity": 84, "duration": 133}, {"note": 71, "velocity": 80, "duration": 2371}, {"note": 0, "velocity": 0, "duration": 15029}, {"note": 74, "velocity": 90, "duration": 527}, {"note": 76, "velocity": 91, "duration": 937}, {"note": 69, "velocity": 101, "duration": 317}, {"note": 71, "velocity": 82, "duration": 652}, {"note": 0, "velocity": 0, "duration": 1148}, {"note": 71, "velocity": 83, "duration": 159}, {"note": 0, "velocity": 0, "duration": 81}, {"note": 71, "velocity": 82, "duration": 265}, {"note": 72, "velocity": 81, "duration": 244}, {"note": 74, "velocity": 78, "duration": 172}, {"note": 0, "velocity": 0, "duration": 68}, {"note": 72, "velocity": 81, "duration": 77}, {"note": 71, "velocity": 46, "duration": 98}, {"note": 69, "velocity": 90, "duration": 272}, {"note": 67, "velocity": 93, "duration": 216}, {"note": 69, "velocity": 82, "duration": 213}, {"note": 71, "velocity": 80, "duration": 178}, {"note": 69, "velocity": 80, "duration": 952}, {"note": 0, "velocity": 0, "duration": 848}, {"note": 69, "velocity": 90, "duration": 144}, {"note": 0, "velocity": 0, "duration": 96}, {"note": 69, "velocity": 83, "duration": 212}, {"note": 71, "velocity": 90, "duration": 232}, {"note": 74, "velocity": 93, "duration": 179}, {"note": 0, "velocity": 0, "duration": 61}, {"note": 71, "velocity": 86, "duration": 183}, {"note": 69, "velocity": 81, "duration": 227}, {"note": 67, "velocity": 84, "duration": 258}, {"note": 69, "velocity": 84, "duration": 188}, {"note": 71, "velocity": 82, "duration": 149}, {"note": 69, "velocity": 80, "duration": 1121}, {"note": 0, "velocity": 0, "duration": 679}, {"note": 69, "velocity": 76, "duration": 153}, {"note": 0, "velocity": 0, "duration": 87}, {"note": 69, "velocity": 82, "duration": 283}, {"note": 71, "velocity": 86, "duration": 243}, {"note": 74, "velocity": 83, "duration": 171}, {"note": 0, "velocity": 0, "duration": 69}, {"note": 76, "velocity": 83, "duration": 164}, {"note": 0, "velocity": 0, "duration": 76}, {"note": 74, "velocity": 95, "duration": 134}, {"note": 0, "velocity": 0, "duration": 106}, {"note": 71, "velocity": 84, "duration": 214}, {"note": 69, "velocity": 86, "duration": 224}, {"note": 0, "velocity": 0, "duration": 496}, {"note": 71, "velocity": 83, "duration": 226}, {"note": 69, "velocity": 86, "duration": 292}, {"note": 0, "velocity": 0, "duration": 68}, {"note": 67, "velocity": 84, "duration": 307}, {"note": 76, "velocity": 90, "duration": 411}, {"note": 0, "velocity": 0, "duration": 69}, {"note": 74, "velocity": 95, "duration": 1913}, {"note": 0, "velocity": 0, "duration": 247}, {"note": 74, "velocity": 99, "duration": 516}, {"note": 76, "velocity": 100, "duration": 453}, {"note": 78, "velocity": 98, "duration": 322}, {"note": 79, "velocity": 96, "duration": 919}, {"note": 79, "velocity": 98, "duration": 79}, {"note": 0, "velocity": 0, "duration": 161}, {"note": 79, "velocity": 99, "duration": 254}, {"note": 0, "velocity": 0, "duration": 106}, {"note": 78, "velocity": 98, "duration": 370}, {"note": 71, "velocity": 98, "duration": 303}, {"note": 74, "velocity": 100, "duration": 1002}, {"note": 0, "velocity": 0, "duration": 918}, {"note": 76, "velocity": 93, "duration": 364}, {"note": 74, "velocity": 94, "duration": 309}, {"note": 72, "velocity": 98, "duration": 241}, {"note": 69, "velocity": 90, "duration": 392}, {"note": 0, "velocity": 0, "duration": 328}, {"note": 71, "velocity": 91, "duration": 142}, {"note": 72, "velocity": 91, "duration": 115}, {"note": 74, "velocity": 86, "duration": 319}, {"note": 71, "velocity": 96, "duration": 317}, {"note": 69, "velocity": 80, "duration": 256}, {"note": 67, "velocity": 91, "duration": 483}, {"note": 67, "velocity": 98, "duration": 3}, {"note": 0, "velocity": 0, "duration": 117}, {"note": 79, "velocity": 100, "duration": 348}, {"note": 76, "velocity": 95, "duration": 287}, {"note": 0, "velocity": 0, "duration": 1153}, {"note": 79, "velocity": 98, "duration": 109}, {"note": 81, "velocity": 95, "duration": 317}, {"note": 74, "velocity": 104, "duration": 1202}, {"note": 74, "velocity": 101, "duration": 2}, {"note": 0, "velocity": 0, "duration": 358}, {"note": 76, "velocity": 98, "duration": 216}, {"note": 0, "velocity": 0, "duration": 264}, {"note": 78, "velocity": 100, "duration": 183}, {"note": 79, "velocity": 95, "duration": 75}, {"note": 81, "velocity": 90, "duration": 109}, {"note": 79, "velocity": 98, "duration": 644}, {"note": 0, "velocity": 0, "duration": 76}, {"note": 79, "velocity": 98, "duration": 126}, {"note": 0, "velocity": 0, "duration": 114}, {"note": 79, "velocity": 98, "duration": 307}, {"note": 78, "velocity": 91, "duration": 329}, {"note": 71, "velocity": 100, "duration": 295}, {"note": 74, "velocity": 98, "duration": 847}, {"note": 0, "velocity": 0, "duration": 1073}, {"note": 76, "velocity": 90, "duration": 304}, {"note": 74, "velocity": 84, "duration": 354}, {"note": 72, "velocity": 106, "duration": 250}, {"note": 69, "velocity": 98, "duration": 404}, {"note": 0, "velocity": 0, "duration": 316}, {"note": 71, "velocity": 90, "duration": 162}, {"note": 72, "velocity": 90, "duration": 141}, {"note": 74, "velocity": 86, "duration": 315}, {"note": 71, "velocity": 84, "duration": 399}, {"note": 78, "velocity": 95, "duration": 304}, {"note": 76, "velocity": 98, "duration": 423}, {"note": 76, "velocity": 95, "duration": 261}, {"note": 78, "velocity": 99, "duration": 221}, {"note": 79, "velocity": 101, "duration": 1287}, {"note": 0, "velocity": 0, "duration": 153}, {"note": 79, "velocity": 101, "duration": 91}, {"note": 81, "velocity": 93, "duration": 364}, {"note": 74, "velocity": 83, "duration": 1912}, {"note": 0, "velocity": 0, "duration": 968}, {"note": 76, "velocity": 95, "duration": 529}, {"note": 78, "velocity": 98, "duration": 451}, {"note": 79, "velocity": 104, "duration": 2571}]]