[[{"note": 73, "velocity": 84, "duration": 237}, {"note": 73, "velocity": 74, "duration": 238}, {"note": 75, "velocity": 62, "duration": 280}, {"note": 77, "velocity": 77, "duration": 477}, {"note": 77, "velocity": 90, "duration": 238}, {"note": 75, "velocity": 63, "duration": 268}, {"note": 77, "velocity": 79, "duration": 238}, {"note": 82, "velocity": 79, "duration": 478}, {"note": 75, "velocity": 96, "duration": 1438}, {"note": 73, "velocity": 80, "duration": 238}, {"note": 72, "velocity": 74, "duration": 240}, {"note": 73, "velocity": 87, "duration": 238}, {"note": 75, "velocity": 93, "duration": 477}, {"note": 75, "velocity": 95, "duration": 238}, {"note": 73, "velocity": 66, "duration": 297}, {"note": 75, "velocity": 87, "duration": 238}, {"note": 80, "velocity": 86, "duration": 478}, {"note": 73, "velocity": 96, "duration": 1437}, {"note": 73, "velocity": 90, "duration": 237}, {"note": 73, "velocity": 87, "duration": 238}, {"note": 75, "velocity": 84, "duration": 255}, {"note": 77, "velocity": 97, "duration": 477}, {"note": 77, "velocity": 96, "duration": 238}, {"note": 75, "velocity": 73, "duration": 255}, {"note": 77, "velocity": 84, "duration": 238}, {"note": 82, "velocity": 85, "duration": 478}, {"note": 75, "velocity": 100, "duration": 1235}, {"note": 72, "velocity": 90, "duration": 237}, {"note": 72, "velocity": 87, "duration": 238}, {"note": 73, "velocity": 86, "duration": 238}, {"note": 75, "velocity": 90, "duration": 477}, {"note": 75, "velocity": 98, "duration": 238}, {"note": 73, "velocity": 76, "duration": 264}, {"note": 75, "velocity": 79, "duration": 238}, {"note": 80, "velocity": 89, "duration": 478}, {"note": 73, "velocity": 85, "duration": 1620}, {"note": 77, "velocity": 90, "duration": 237}, {"note": 77, "velocity": 89, "duration": 237}, {"note": 77, "velocity": 87, "duration": 237}, {"note": 77, "velocity": 87, "duration": 237}, {"note": 77, "velocity": 90, "duration": 238}, {"note": 73, "velocity": 85, "duration": 478}, {"note": 75, "velocity": 97, "duration": 1438}, {"note": 72, "velocity": 84, "duration": 237}, {"note": 72, "velocity": 86, "duration": 238}, {"note": 73, "velocity": 66, "duration": 240}, {"note": 75, "velocity": 84, "duration": 237}, {"note": 75, "velocity": 84, "duration": 237}, {"note": 75, "velocity": 72, "duration": 237}, {"note": 75, "velocity": 66, "duration": 237}, {"note": 75, "velocity": 82, "duration": 238}, {"note": 72, "velocity": 72, "duration": 478}, {"note": 73, "velocity": 92, "duration": 2158}, {"note": 77, "velocity": 94, "duration": 237}, {"note": 77, "velocity": 89, "duration": 237}, {"note": 77, "velocity": 86, "duration": 237}, {"note": 77, "velocity": 84, "duration": 237}, {"note": 77, "velocity": 85, "duration": 238}, {"note": 73, "velocity": 90, "duration": 478}, {"note": 75, "velocity": 100, "duration": 477}, {"note": 72, "velocity": 97, "duration": 237}, {"note": 72, "velocity": 93, "duration": 238}, {"note": 73, "velocity": 93, "duration": 256}, {"note": 75, "velocity": 99, "duration": 237}, {"note": 75, "velocity": 91, "duration": 237}, {"note": 75, "velocity": 90, "duration": 237}, {"note": 75, "velocity": 90, "duration": 237}, {"note": 75, "velocity": 93, "duration": 238}, {"note": 72, "velocity": 92, "duration": 246}, {"note": 73, "velocity": 105, "duration": 1677}, {"note": 73, "velocity": 98, "duration": 238}, {"note": 75, "velocity": 87, "duration": 238}, {"note": 77, "velocity": 94, "duration": 478}, {"note": 73, "velocity": 98, "duration": 478}, {"note": 70, "velocity": 86, "duration": 478}, {"note": 77, "velocity": 100, "duration": 237}, {"note": 77, "velocity": 97, "duration": 478}, {"note": 75, "velocity": 101, "duration": 1198}, {"note": 72, "velocity": 93, "duration": 258}, {"note": 73, "velocity": 73, "duration": 259}, {"note": 75, "velocity": 94, "duration": 477}, {"note": 75, "velocity": 93, "duration": 477}, {"note": 75, "velocity": 83, "duration": 478}, {"note": 72, "velocity": 87, "duration": 238}, {"note": 75, "velocity": 99, "duration": 478}, {"note": 73, "velocity": 95, "duration": 1197}, {"note": 73, "velocity": 94, "duration": 261}, {"note": 75, "velocity": 79, "duration": 246}, {"note": 77, "velocity": 93, "duration": 478}, {"note": 73, "velocity": 96, "duration": 478}, {"note": 70, "velocity": 84, "duration": 478}, {"note": 77, "velocity": 105, "duration": 237}, {"note": 77, "velocity": 101, "duration": 478}, {"note": 75, "velocity": 100, "duration": 1198}, {"note": 72, "velocity": 94, "duration": 238}, {"note": 73, "velocity": 77, "duration": 260}, {"note": 75, "velocity": 76, "duration": 237}, {"note": 75, "velocity": 73, "duration": 237}, {"note": 75, "velocity": 81, "duration": 237}, {"note": 75, "velocity": 86, "duration": 237}, {"note": 75, "velocity": 79, "duration": 478}, {"note": 80, "velocity": 87, "duration": 238}, {"note": 78, "velocity": 91, "duration": 718}, {"note": 77, "velocity": 96, "duration": 237}, {"note": 77, "velocity": 97, "duration": 591}, {"note": 73, "velocity": 89, "duration": 237}, {"note": 73, "velocity": 87, "duration": 247}, {"note": 75, "velocity": 80, "duration": 238}, {"note": 77, "velocity": 90, "duration": 477}, {"note": 77, "velocity": 92, "duration": 238}, {"note": 75, "velocity": 71, "duration": 249}, {"note": 77, "velocity": 80, "duration": 238}, {"note": 82, "velocity": 90, "duration": 478}, {"note": 75, "velocity": 90, "duration": 1438}, {"note": 73, "velocity": 93, "duration": 238}, {"note": 72, "velocity": 84, "duration": 261}, {"note": 73, "velocity": 89, "duration": 280}, {"note": 75, "velocity": 92, "duration": 477}, {"note": 75, "velocity": 97, "duration": 238}, {"note": 73, "velocity": 71, "duration": 255}, {"note": 75, "velocity": 76, "duration": 238}, {"note": 80, "velocity": 86, "duration": 478}, {"note": 73, "velocity": 100, "duration": 1437}, {"note": 73, "velocity": 99, "duration": 237}, {"note": 73, "velocity": 93, "duration": 245}, {"note": 75, "velocity": 87, "duration": 252}, {"note": 77, "velocity": 98, "duration": 477}, {"note": 77, "velocity": 99, "duration": 238}, {"note": 75, "velocity": 87, "duration": 238}, {"note": 77, "velocity": 92, "duration": 238}, {"note": 82, "velocity": 90, "duration": 478}, {"note": 75, "velocity": 97, "duration": 1438}, {"note": 73, "velocity": 95, "duration": 238}, {"note": 72, "velocity": 64, "duration": 238}, {"note": 73, "velocity": 84, "duration": 238}, {"note": 75, "velocity": 90, "duration": 477}, {"note": 75, "velocity": 93, "duration": 238}, {"note": 73, "velocity": 66, "duration": 270}, {"note": 75, "velocity": 90, "duration": 238}, {"note": 80, "velocity": 79, "duration": 478}, {"note": 73, "velocity": 91, "duration": 1075}, {"note": 0, "velocity": 0, "duration": 16685}, {"note": 77, "velocity": 89, "duration": 237}, {"note": 77, "velocity": 87, "duration": 237}, {"note": 77, "velocity": 87, "duration": 237}, {"note": 77, "velocity": 90, "duration": 238}, {"note": 73, "velocity": 85, "duration": 478}, {"note": 75, "velocity": 97, "duration": 1438}, {"note": 72, "velocity": 84, "duration": 237}, {"note": 72, "velocity": 86, "duration": 238}, {"note": 73, "velocity": 66, "duration": 240}, {"note": 75, "velocity": 84, "duration": 237}, {"note": 75, "velocity": 84, "duration": 237}, {"note": 75, "velocity": 72, "duration": 237}, {"note": 75, "velocity": 66, "duration": 237}, {"note": 75, "velocity": 82, "duration": 238}, {"note": 72, "velocity": 72, "duration": 478}, {"note": 73, "velocity": 92, "duration": 1233}, {"note": 0, "velocity": 0, "duration": 927}, {"note": 77, "velocity": 94, "duration": 237}, {"note": 77, "velocity": 89, "duration": 237}, {"note": 77, "velocity": 86, "duration": 237}, {"note": 77, "velocity": 84, "duration": 237}, {"note": 77, "velocity": 85, "duration": 238}, {"note": 73, "velocity": 90, "duration": 478}, {"note": 75, "velocity": 100, "duration": 50}, {"note": 0, "velocity": 0, "duration": 452}, {"note": 72, "velocity": 97, "duration": 237}, {"note": 72, "velocity": 93, "duration": 238}, {"note": 73, "velocity": 93, "duration": 256}, {"note": 75, "velocity": 99, "duration": 237}, {"note": 75, "velocity": 91, "duration": 237}, {"note": 75, "velocity": 90, "duration": 237}, {"note": 75, "velocity": 90, "duration": 237}, {"note": 75, "velocity": 93, "duration": 238}, {"note": 72, "velocity": 92, "duration": 220}, {"note": 73, "velocity": 105, "duration": 752}, {"note": 0, "velocity": 0, "duration": 928}, {"note": 73, "velocity": 98, "duration": 238}, {"note": 75, "velocity": 87, "duration": 238}, {"note": 77, "velocity": 94, "duration": 478}, {"note": 73, "velocity": 98, "duration": 478}, {"note": 70, "velocity": 86, "duration": 478}, {"note": 77, "velocity": 100, "duration": 237}, {"note": 77, "velocity": 97, "duration": 478}, {"note": 75, "velocity": 101, "duration": 692}, {"note": 0, "velocity": 0, "duration": 508}, {"note": 72, "velocity": 93, "duration": 258}, {"note": 73, "velocity": 73, "duration": 259}, {"note": 75, "velocity": 94, "duration": 477}, {"note": 75, "velocity": 93, "duration": 477}, {"note": 75, "velocity": 83, "duration": 478}, {"note": 72, "velocity": 87, "duration": 238}, {"note": 75, "velocity": 99, "duration": 478}, {"note": 73, "velocity": 95, "duration": 1197}, {"note": 73, "velocity": 94, "duration": 261}, {"note": 75, "velocity": 79, "duration": 246}, {"note": 77, "velocity": 93, "duration": 478}, {"note": 73, "velocity": 96, "duration": 478}, {"note": 70, "velocity": 84, "duration": 478}, {"note": 77, "velocity": 105, "duration": 237}, {"note": 77, "velocity": 101, "duration": 238}, {"note": 75, "velocity": 100, "duration": 1438}, {"note": 72, "velocity": 94, "duration": 238}, {"note": 73, "velocity": 77, "duration": 260}, {"note": 75, "velocity": 76, "duration": 237}, {"note": 75, "velocity": 73, "duration": 237}, {"note": 75, "velocity": 81, "duration": 237}, {"note": 75, "velocity": 86, "duration": 237}, {"note": 75, "velocity": 79, "duration": 478}, {"note": 80, "velocity": 87, "duration": 238}, {"note": 78, "velocity": 91, "duration": 718}, {"note": 77, "velocity": 96, "duration": 237}, {"note": 77, "velocity": 97, "duration": 1678}, {"note": 0, "velocity": 0, "duration": 722}, {"note": 73, "velocity": 89, "duration": 237}, {"note": 73, "velocity": 87, "duration": 247}, {"note": 75, "velocity": 80, "duration": 238}, {"note": 77, "velocity": 90, "duration": 477}, {"note": 77, "velocity": 92, "duration": 238}, {"note": 75, "velocity": 71, "duration": 249}, {"note": 77, "velocity": 80, "duration": 238}, {"note": 82, "velocity": 90, "duration": 478}, {"note": 75, "velocity": 90, "duration": 1438}, {"note": 73, "velocity": 93, "duration": 238}, {"note": 72, "velocity": 84, "duration": 261}, {"note": 73, "velocity": 89, "duration": 280}, {"note": 75, "velocity": 92, "duration": 477}, {"note": 75, "velocity": 97, "duration": 238}, {"note": 73, "velocity": 71, "duration": 255}, {"note": 75, "velocity": 76, "duration": 238}, {"note": 80, "velocity": 86, "duration": 478}, {"note": 73, "velocity": 100, "duration": 1437}, {"note": 73, "velocity": 99, "duration": 237}, {"note": 73, "velocity": 93, "duration": 245}, {"note": 75, "velocity": 87, "duration": 252}, {"note": 77, "velocity": 98, "duration": 477}, {"note": 77, "velocity": 99, "duration": 238}, {"note": 75, "velocity": 87, "duration": 238}, {"note": 77, "velocity": 92, "duration": 238}, {"note": 82, "velocity": 90, "duration": 478}, {"note": 75, "velocity": 97, "duration": 1438}, {"note": 73, "velocity": 95, "duration": 238}, {"note": 72, "velocity": 64, "duration": 238}, {"note": 73, "velocity": 84, "duration": 238}, {"note": 75, "velocity": 90, "duration": 477}, {"note": 75, "velocity": 93, "duration": 238}, {"note": 73, "velocity": 66, "duration": 270}, {"note": 75, "velocity": 90, "duration": 238}, {"note": 80, "velocity": 79, "duration": 478}, {"note": 73, "velocity": 91, "duration": 1075}, {"note": 0, "velocity": 0, "duration": 15725}, {"note": 73, "velocity": 89, "duration": 237}, {"note": 73, "velocity": 87, "duration": 247}, {"note": 75, "velocity": 80, "duration": 238}, {"note": 77, "velocity": 90, "duration": 477}, {"note": 77, "velocity": 92, "duration": 238}, {"note": 75, "velocity": 71, "duration": 249}, {"note": 77, "velocity": 80, "duration": 238}, {"note": 82, "velocity": 90, "duration": 478}, {"note": 75, "velocity": 90, "duration": 1438}, {"note": 73, "velocity": 93, "duration": 238}, {"note": 72, "velocity": 84, "duration": 261}, {"note": 73, "velocity": 89, "duration": 280}, {"note": 75, "velocity": 92, "duration": 477}, {"note": 75, "velocity": 97, "duration": 238}, {"note": 73, "velocity": 71, "duration": 255}, {"note": 75, "velocity": 76, "duration": 238}, {"note": 80, "velocity": 86, "duration": 478}, {"note": 73, "velocity": 100, "duration": 1437}, {"note": 73, "velocity": 99, "duration": 237}, {"note": 73, "velocity": 93, "duration": 245}, {"note": 75, "velocity": 87, "duration": 252}, {"note": 77, "velocity": 98, "duration": 477}, {"note": 77, "velocity": 99, "duration": 238}, {"note": 75, "velocity": 87, "duration": 238}, {"note": 77, "velocity": 92, "duration": 238}, {"note": 82, "velocity": 90, "duration": 478}, {"note": 75, "velocity": 97, "duration": 1438}, {"note": 73, "velocity": 95, "duration": 238}, {"note": 72, "velocity": 64, "duration": 238}, {"note": 73, "velocity": 84, "duration": 238}, {"note": 75, "velocity": 90, "duration": 477}, {"note": 75, "velocity": 93, "duration": 238}, {"note": 73, "velocity": 66, "duration": 270}, {"note": 75, "velocity": 90, "duration": 238}, {"note": 80, "velocity": 79, "duration": 478}, {"note": 73, "velocity": 91, "duration": 1075}, {"note": 0, "velocity": 0, "duration": 365}, {"note": 73, "velocity": 89, "duration": 237}, {"note": 73, "velocity": 87, "duration": 247}, {"note": 75, "velocity": 80, "duration": 238}, {"note": 77, "velocity": 90, "duration": 477}, {"note": 77, "velocity": 92, "duration": 238}, {"note": 75, "velocity": 71, "duration": 249}, {"note": 77, "velocity": 80, "duration": 238}, {"note": 82, "velocity": 90, "duration": 478}, {"note": 75, "velocity": 90, "duration": 1438}, {"note": 73, "velocity": 93, "duration": 238}, {"note": 72, "velocity": 84, "duration": 261}, {"note": 73, "velocity": 89, "duration": 280}, {"note": 75, "velocity": 92, "duration": 477}, {"note": 75, "velocity": 97, "duration": 238}, {"note": 73, "velocity": 71, "duration": 255}, {"note": 75, "velocity": 76, "duration": 238}, {"note": 80, "velocity": 86, "duration": 478}, {"note": 73, "velocity": 100, "duration": 1437}, {"note": 73, "velocity": 99, "duration": 237}, {"note": 73, "velocity": 93, "duration": 245}, {"note": 75, "velocity": 87, "duration": 252}, {"note": 77, "velocity": 98, "duration": 477}, {"note": 77, "velocity": 99, "duration": 238}, {"note": 75, "velocity": 87, "duration": 238}, {"note": 77, "velocity": 92, "duration": 238}, {"note": 82, "velocity": 90, "duration": 478}, {"note": 75, "velocity": 97, "duration": 1438}, {"note": 73, "velocity": 95, "duration": 238}, {"note": 72, "velocity": 64, "duration": 238}, {"note": 73, "velocity": 84, "duration": 238}, {"note": 75, "velocity": 90, "duration": 477}, {"note": 75, "velocity": 93, "duration": 238}, {"note": 73, "velocity": 66, "duration": 270}, {"note": 75, "velocity": 90, "duration": 238}, {"note": 80, "velocity": 79, "duration": 478}, {"note": 73, "velocity": 91, "duration": 1075}, {"note": 0, "velocity": 0, "duration": 365}, {"note": 73, "velocity": 89, "duration": 237}, {"note": 73, "velocity": 87, "duration": 247}, {"note": 75, "velocity": 80, "duration": 238}, {"note": 77, "velocity": 90, "duration": 477}, {"note": 77, "velocity": 92, "duration": 238}, {"note": 75, "velocity": 71, "duration": 249}, {"note": 77, "velocity": 80, "duration": 238}, {"note": 82, "velocity": 90, "duration": 478}, {"note": 75, "velocity": 90, "duration": 1438}, {"note": 73, "velocity": 93, "duration": 238}, {"note": 72, "velocity": 84, "duration": 261}, {"note": 73, "velocity": 89, "duration": 280}, {"note": 75, "velocity": 92, "duration": 477}, {"note": 75, "velocity": 97, "duration": 238}, {"note": 73, "velocity": 71, "duration": 255}, {"note": 75, "velocity": 76, "duration": 238}, {"note": 80, "velocity": 86, "duration": 478}, {"note": 73, "velocity": 100, "duration": 1437}, {"note": 73, "velocity": 99, "duration": 237}, {"note": 73, "velocity": 93, "duration": 245}, {"note": 75, "velocity": 87, "duration": 252}, {"note": 77, "velocity": 98, "duration": 477}, {"note": 77, "velocity": 99, "duration": 238}, {"note": 75, "velocity": 87, "duration": 238}, {"note": 77, "velocity": 92, "duration": 238}, {"note": 82, "velocity": 90, "duration": 478}, {"note": 75, "velocity": 97, "duration": 1438}, {"note": 73, "velocity": 95, "duration": 238}, {"note": 72, "velocity": 64, "duration": 238}, {"note": 73, "velocity": 84, "duration": 238}, {"note": 75, "velocity": 90, "duration": 477}, {"note": 75, "velocity": 93, "duration": 238}, {"note": 73, "velocity": 66, "duration": 270}, {"note": 75, "velocity": 90, "duration": 238}, {"note": 80, "velocity": 79, "duration": 478}, {"note": 73, "velocity": 91, "duration": 1075}]]