[[{"note": 66, "velocity": 93, "duration": 510}, {"note": 69, "velocity": 84, "duration": 446}, {"note": 71, "velocity": 86, "duration": 457}, {"note": 69, "velocity": 95, "duration": 229}, {"note": 68, "velocity": 90, "duration": 258}, {"note": 66, "velocity": 84, "duration": 349}, {"note": 0, "velocity": 0, "duration": 131}, {"note": 69, "velocity": 93, "duration": 381}, {"note": 0, "velocity": 0, "duration": 99}, {"note": 71, "velocity": 90, "duration": 1405}, {"note": 69, "velocity": 84, "duration": 196}, {"note": 68, "velocity": 81, "duration": 233}, {"note": 66, "velocity": 84, "duration": 354}, {"note": 0, "velocity": 0, "duration": 126}, {"note": 69, "velocity": 73, "duration": 66}, {"note": 0, "velocity": 0, "duration": 414}, {"note": 69, "velocity": 83, "duration": 386}, {"note": 0, "velocity": 0, "duration": 94}, {"note": 68, "velocity": 79, "duration": 246}, {"note": 0, "velocity": 0, "duration": 234}, {"note": 66, "velocity": 84, "duration": 407}, {"note": 0, "velocity": 0, "duration": 1513}, {"note": 66, "velocity": 106, "duration": 335}, {"note": 0, "velocity": 0, "duration": 145}, {"note": 69, "velocity": 98, "duration": 349}, {"note": 0, "velocity": 0, "duration": 131}, {"note": 71, "velocity": 91, "duration": 311}, {"note": 0, "velocity": 0, "duration": 169}, {"note": 69, "velocity": 83, "duration": 183}, {"note": 66, "velocity": 98, "duration": 149}, {"note": 0, "velocity": 0, "duration": 91}, {"note": 64, "velocity": 90, "duration": 285}, {"note": 0, "velocity": 0, "duration": 195}, {"note": 66, "velocity": 95, "duration": 428}, {"note": 62, "velocity": 94, "duration": 365}, {"note": 0, "velocity": 0, "duration": 115}, {"note": 64, "velocity": 90, "duration": 373}, {"note": 0, "velocity": 0, "duration": 107}, {"note": 66, "velocity": 86, "duration": 421}, {"note": 69, "velocity": 90, "duration": 540}, {"note": 62, "velocity": 98, "duration": 539}, {"note": 64, "velocity": 90, "duration": 512}, {"note": 66, "velocity": 90, "duration": 423}, {"note": 64, "velocity": 84, "duration": 198}, {"note": 62, "velocity": 84, "duration": 225}, {"note": 61, "velocity": 90, "duration": 450}, {"note": 0, "velocity": 0, "duration": 510}, {"note": 59, "velocity": 90, "duration": 250}, {"note": 0, "velocity": 0, "duration": 2630}, {"note": 66, "velocity": 93, "duration": 476}, {"note": 69, "velocity": 84, "duration": 476}, {"note": 71, "velocity": 86, "duration": 476}, {"note": 69, "velocity": 95, "duration": 236}, {"note": 68, "velocity": 90, "duration": 236}, {"note": 66, "velocity": 84, "duration": 476}, {"note": 69, "velocity": 93, "duration": 476}, {"note": 71, "velocity": 90, "duration": 1436}, {"note": 69, "velocity": 84, "duration": 236}, {"note": 68, "velocity": 81, "duration": 236}, {"note": 66, "velocity": 84, "duration": 476}, {"note": 69, "velocity": 73, "duration": 476}, {"note": 69, "velocity": 83, "duration": 476}, {"note": 68, "velocity": 79, "duration": 476}, {"note": 66, "velocity": 84, "duration": 1916}, {"note": 66, "velocity": 106, "duration": 476}, {"note": 69, "velocity": 98, "duration": 476}, {"note": 71, "velocity": 91, "duration": 476}, {"note": 69, "velocity": 83, "duration": 236}, {"note": 66, "velocity": 98, "duration": 236}, {"note": 64, "velocity": 90, "duration": 476}, {"note": 66, "velocity": 95, "duration": 476}, {"note": 62, "velocity": 94, "duration": 476}, {"note": 64, "velocity": 90, "duration": 476}, {"note": 66, "velocity": 86, "duration": 476}, {"note": 69, "velocity": 90, "duration": 476}, {"note": 62, "velocity": 98, "duration": 476}, {"note": 64, "velocity": 90, "duration": 476}, {"note": 66, "velocity": 90, "duration": 476}, {"note": 64, "velocity": 84, "duration": 236}, {"note": 62, "velocity": 84, "duration": 236}, {"note": 61, "velocity": 90, "duration": 956}, {"note": 59, "velocity": 90, "duration": 2844}, {"note": 0, "velocity": 0, "duration": 17316}, {"note": 66, "velocity": 93, "duration": 510}, {"note": 69, "velocity": 84, "duration": 446}, {"note": 71, "velocity": 86, "duration": 457}, {"note": 69, "velocity": 95, "duration": 229}, {"note": 68, "velocity": 90, "duration": 258}, {"note": 66, "velocity": 84, "duration": 349}, {"note": 0, "velocity": 0, "duration": 131}, {"note": 69, "velocity": 93, "duration": 381}, {"note": 0, "velocity": 0, "duration": 99}, {"note": 71, "velocity": 90, "duration": 1405}, {"note": 69, "velocity": 84, "duration": 196}, {"note": 68, "velocity": 81, "duration": 233}, {"note": 66, "velocity": 84, "duration": 354}, {"note": 0, "velocity": 0, "duration": 126}, {"note": 69, "velocity": 73, "duration": 66}, {"note": 0, "velocity": 0, "duration": 414}, {"note": 69, "velocity": 83, "duration": 386}, {"note": 0, "velocity": 0, "duration": 94}, {"note": 68, "velocity": 79, "duration": 246}, {"note": 0, "velocity": 0, "duration": 234}, {"note": 66, "velocity": 84, "duration": 407}, {"note": 0, "velocity": 0, "duration": 1513}, {"note": 66, "velocity": 106, "duration": 335}, {"note": 0, "velocity": 0, "duration": 145}, {"note": 69, "velocity": 98, "duration": 349}, {"note": 0, "velocity": 0, "duration": 131}, {"note": 71, "velocity": 91, "duration": 311}, {"note": 0, "velocity": 0, "duration": 169}, {"note": 69, "velocity": 83, "duration": 183}, {"note": 66, "velocity": 98, "duration": 149}, {"note": 0, "velocity": 0, "duration": 91}, {"note": 64, "velocity": 90, "duration": 285}, {"note": 0, "velocity": 0, "duration": 195}, {"note": 66, "velocity": 95, "duration": 428}, {"note": 62, "velocity": 94, "duration": 365}, {"note": 0, "velocity": 0, "duration": 115}, {"note": 64, "velocity": 90, "duration": 373}, {"note": 0, "velocity": 0, "duration": 107}, {"note": 66, "velocity": 86, "duration": 421}, {"note": 69, "velocity": 90, "duration": 540}, {"note": 62, "velocity": 98, "duration": 539}, {"note": 64, "velocity": 90, "duration": 512}, {"note": 66, "velocity": 90, "duration": 423}, {"note": 64, "velocity": 84, "duration": 198}, {"note": 62, "velocity": 84, "duration": 225}, {"note": 61, "velocity": 90, "duration": 450}, {"note": 0, "velocity": 0, "duration": 510}, {"note": 59, "velocity": 90, "duration": 250}, {"note": 0, "velocity": 0, "duration": 2630}, {"note": 66, "velocity": 93, "duration": 476}, {"note": 69, "velocity": 84, "duration": 476}, {"note": 71, "velocity": 86, "duration": 476}, {"note": 69, "velocity": 95, "duration": 236}, {"note": 68, "velocity": 90, "duration": 236}, {"note": 66, "velocity": 84, "duration": 476}, {"note": 69, "velocity": 93, "duration": 476}, {"note": 71, "velocity": 90, "duration": 1436}, {"note": 69, "velocity": 84, "duration": 236}, {"note": 68, "velocity": 81, "duration": 236}, {"note": 66, "velocity": 84, "duration": 476}, {"note": 69, "velocity": 73, "duration": 476}, {"note": 69, "velocity": 83, "duration": 476}, {"note": 68, "velocity": 79, "duration": 476}, {"note": 66, "velocity": 84, "duration": 1916}, {"note": 66, "velocity": 106, "duration": 476}, {"note": 69, "velocity": 98, "duration": 476}, {"note": 71, "velocity": 91, "duration": 476}, {"note": 69, "velocity": 83, "duration": 236}, {"note": 66, "velocity": 98, "duration": 236}, {"note": 64, "velocity": 90, "duration": 476}, {"note": 66, "velocity": 95, "duration": 476}, {"note": 62, "velocity": 94, "duration": 476}, {"note": 64, "velocity": 90, "duration": 476}, {"note": 66, "velocity": 86, "duration": 476}, {"note": 69, "velocity": 90, "duration": 476}, {"note": 62, "velocity": 98, "duration": 476}, {"note": 64, "velocity": 90, "duration": 476}, {"note": 66, "velocity": 90, "duration": 476}, {"note": 64, "velocity": 84, "duration": 236}, {"note": 62, "velocity": 84, "duration": 236}, {"note": 61, "velocity": 90, "duration": 956}, {"note": 59, "velocity": 90, "duration": 2844}, {"note": 0, "velocity": 0, "duration": 19236}, {"note": 66, "velocity": 93, "duration": 476}, {"note": 69, "velocity": 84, "duration": 476}, {"note": 71, "velocity": 86, "duration": 476}, {"note": 69, "velocity": 95, "duration": 236}, {"note": 68, "velocity": 90, "duration": 236}, {"note": 66, "velocity": 84, "duration": 476}, {"note": 69, "velocity": 93, "duration": 476}, {"note": 71, "velocity": 90, "duration": 1436}, {"note": 69, "velocity": 84, "duration": 236}, {"note": 68, "velocity": 81, "duration": 236}, {"note": 66, "velocity": 84, "duration": 476}, {"note": 69, "velocity": 73, "duration": 476}, {"note": 69, "velocity": 83, "duration": 476}, {"note": 68, "velocity": 79, "duration": 476}, {"note": 66, "velocity": 84, "duration": 1916}, {"note": 66, "velocity": 106, "duration": 476}, {"note": 69, "velocity": 98, "duration": 476}, {"note": 71, "velocity": 91, "duration": 476}, {"note": 69, "velocity": 83, "duration": 236}, {"note": 66, "velocity": 98, "duration": 236}, {"note": 64, "velocity": 90, "duration": 476}, {"note": 66, "velocity": 95, "duration": 476}, {"note": 62, "velocity": 94, "duration": 476}, {"note": 64, "velocity": 90, "duration": 476}, {"note": 66, "velocity": 86, "duration": 476}, {"note": 69, "velocity": 90, "duration": 476}, {"note": 62, "velocity": 98, "duration": 476}, {"note": 64, "velocity": 90, "duration": 476}, {"note": 66, "velocity": 90, "duration": 476}, {"note": 64, "velocity": 84, "duration": 236}, {"note": 62, "velocity": 84, "duration": 236}, {"note": 61, "velocity": 90, "duration": 956}, {"note": 59, "velocity": 90, "duration": 2844}, {"note": 0, "velocity": 0, "duration": 996}, {"note": 66, "velocity": 106, "duration": 476}, {"note": 69, "velocity": 98, "duration": 476}, {"note": 71, "velocity": 91, "duration": 476}, {"note": 69, "velocity": 83, "duration": 236}, {"note": 66, "velocity": 98, "duration": 236}, {"note": 64, "velocity": 90, "duration": 476}, {"note": 66, "velocity": 95, "duration": 476}, {"note": 62, "velocity": 94, "duration": 476}, {"note": 64, "velocity": 90, "duration": 476}, {"note": 66, "velocity": 86, "duration": 476}, {"note": 69, "velocity": 90, "duration": 476}, {"note": 62, "velocity": 98, "duration": 476}, {"note": 64, "velocity": 90, "duration": 476}, {"note": 66, "velocity": 90, "duration": 476}, {"note": 64, "velocity": 84, "duration": 236}, {"note": 62, "velocity": 84, "duration": 236}, {"note": 61, "velocity": 90, "duration": 956}, {"note": 59, "velocity": 90, "duration": 2844}, {"note": 0, "velocity": 0, "duration": 996}, {"note": 66, "velocity": 106, "duration": 476}, {"note": 69, "velocity": 98, "duration": 476}, {"note": 71, "velocity": 91, "duration": 476}, {"note": 69, "velocity": 83, "duration": 236}, {"note": 66, "velocity": 98, "duration": 236}, {"note": 64, "velocity": 90, "duration": 476}, {"note": 66, "velocity": 95, "duration": 476}, {"note": 62, "velocity": 94, "duration": 476}, {"note": 64, "velocity": 90, "duration": 476}, {"note": 66, "velocity": 86, "duration": 476}, {"note": 69, "velocity": 90, "duration": 476}, {"note": 62, "velocity": 98, "duration": 476}, {"note": 64, "velocity": 90, "duration": 476}, {"note": 66, "velocity": 90, "duration": 476}, {"note": 64, "velocity": 84, "duration": 236}, {"note": 62, "velocity": 84, "duration": 236}, {"note": 61, "velocity": 90, "duration": 956}, {"note": 59, "velocity": 90, "duration": 2844}, {"note": 0, "velocity": 0, "duration": 996}, {"note": 66, "velocity": 106, "duration": 476}, {"note": 69, "velocity": 98, "duration": 476}, {"note": 71, "velocity": 91, "duration": 476}, {"note": 69, "velocity": 83, "duration": 236}, {"note": 66, "velocity": 98, "duration": 236}, {"note": 64, "velocity": 90, "duration": 476}, {"note": 66, "velocity": 95, "duration": 476}, {"note": 62, "velocity": 94, "duration": 476}, {"note": 64, "velocity": 90, "duration": 476}, {"note": 66, "velocity": 86, "duration": 476}, {"note": 69, "velocity": 90, "duration": 476}, {"note": 62, "velocity": 98, "duration": 476}, {"note": 64, "velocity": 90, "duration": 476}, {"note": 66, "velocity": 90, "duration": 476}, {"note": 64, "velocity": 84, "duration": 236}, {"note": 62, "velocity": 84, "duration": 236}, {"note": 61, "velocity": 90, "duration": 956}, {"note": 59, "velocity": 90, "duration": 2844}]]