[[{"note": 64, "velocity": 110, "duration": 420}, {"note": 69, "velocity": 113, "duration": 420}, {"note": 71, "velocity": 114, "duration": 240}, {"note": 69, "velocity": 88, "duration": 134}, {"note": 71, "velocity": 110, "duration": 279}, {"note": 73, "velocity": 91, "duration": 360}, {"note": 71, "velocity": 104, "duration": 240}, {"note": 69, "velocity": 84, "duration": 120}, {"note": 73, "velocity": 109, "duration": 600}, {"note": 68, "velocity": 113, "duration": 240}, {"note": 66, "velocity": 97, "duration": 120}, {"note": 68, "velocity": 106, "duration": 240}, {"note": 69, "velocity": 96, "duration": 240}, {"note": 66, "velocity": 100, "duration": 599}, {"note": 66, "velocity": 113, "duration": 249}, {"note": 71, "velocity": 102, "duration": 240}, {"note": 73, "velocity": 106, "duration": 240}, {"note": 71, "velocity": 91, "duration": 120}, {"note": 73, "velocity": 103, "duration": 240}, {"note": 74, "velocity": 100, "duration": 360}, {"note": 73, "velocity": 116, "duration": 240}, {"note": 71, "velocity": 91, "duration": 120}, {"note": 74, "velocity": 107, "duration": 600}, {"note": 69, "velocity": 110, "duration": 240}, {"note": 68, "velocity": 93, "duration": 120}, {"note": 69, "velocity": 113, "duration": 240}, {"note": 71, "velocity": 94, "duration": 240}, {"note": 68, "velocity": 97, "duration": 600}, {"note": 64, "velocity": 102, "duration": 241}, {"note": 69, "velocity": 89, "duration": 274}, {"note": 71, "velocity": 92, "duration": 240}, {"note": 69, "velocity": 85, "duration": 133}, {"note": 71, "velocity": 94, "duration": 240}, {"note": 73, "velocity": 97, "duration": 360}, {"note": 71, "velocity": 98, "duration": 240}, {"note": 69, "velocity": 87, "duration": 120}, {"note": 73, "velocity": 100, "duration": 600}, {"note": 68, "velocity": 113, "duration": 240}, {"note": 66, "velocity": 100, "duration": 120}, {"note": 68, "velocity": 113, "duration": 240}, {"note": 69, "velocity": 114, "duration": 240}, {"note": 66, "velocity": 109, "duration": 599}, {"note": 66, "velocity": 91, "duration": 240}, {"note": 71, "velocity": 89, "duration": 240}, {"note": 73, "velocity": 95, "duration": 240}, {"note": 71, "velocity": 89, "duration": 120}, {"note": 73, "velocity": 95, "duration": 240}, {"note": 74, "velocity": 104, "duration": 360}, {"note": 73, "velocity": 103, "duration": 240}, {"note": 71, "velocity": 94, "duration": 120}, {"note": 74, "velocity": 108, "duration": 600}, {"note": 69, "velocity": 107, "duration": 240}, {"note": 68, "velocity": 93, "duration": 120}, {"note": 69, "velocity": 107, "duration": 240}, {"note": 71, "velocity": 107, "duration": 240}, {"note": 68, "velocity": 106, "duration": 600}, {"note": 73, "velocity": 116, "duration": 240}, {"note": 74, "velocity": 108, "duration": 240}, {"note": 76, "velocity": 113, "duration": 1439}, {"note": 76, "velocity": 107, "duration": 240}, {"note": 68, "velocity": 103, "duration": 240}, {"note": 69, "velocity": 98, "duration": 1440}, {"note": 71, "velocity": 108, "duration": 252}, {"note": 73, "velocity": 106, "duration": 253}, {"note": 74, "velocity": 110, "duration": 120}, {"note": 71, "velocity": 91, "duration": 120}, {"note": 66, "velocity": 97, "duration": 122}, {"note": 74, "velocity": 93, "duration": 240}, {"note": 71, "velocity": 93, "duration": 239}, {"note": 71, "velocity": 91, "duration": 120}, {"note": 74, "velocity": 90, "duration": 121}, {"note": 71, "velocity": 88, "duration": 120}, {"note": 66, "velocity": 87, "duration": 139}, {"note": 74, "velocity": 91, "duration": 240}, {"note": 73, "velocity": 113, "duration": 119}, {"note": 73, "velocity": 109, "duration": 120}, {"note": 74, "velocity": 107, "duration": 120}, {"note": 73, "velocity": 106, "duration": 120}, {"note": 71, "velocity": 100, "duration": 119}, {"note": 71, "velocity": 107, "duration": 119}, {"note": 71, "velocity": 88, "duration": 119}, {"note": 71, "velocity": 92, "duration": 120}, {"note": 69, "velocity": 92, "duration": 240}, {"note": 71, "velocity": 94, "duration": 600}, {"note": 73, "velocity": 116, "duration": 240}, {"note": 74, "velocity": 108, "duration": 240}, {"note": 76, "velocity": 113, "duration": 1439}, {"note": 76, "velocity": 108, "duration": 240}, {"note": 68, "velocity": 109, "duration": 240}, {"note": 69, "velocity": 110, "duration": 720}, {"note": 71, "velocity": 107, "duration": 264}, {"note": 73, "velocity": 97, "duration": 720}, {"note": 71, "velocity": 110, "duration": 120}, {"note": 73, "velocity": 93, "duration": 120}, {"note": 74, "velocity": 113, "duration": 120}, {"note": 71, "velocity": 91, "duration": 121}, {"note": 66, "velocity": 91, "duration": 120}, {"note": 74, "velocity": 91, "duration": 240}, {"note": 71, "velocity": 96, "duration": 239}, {"note": 71, "velocity": 88, "duration": 120}, {"note": 74, "velocity": 91, "duration": 123}, {"note": 71, "velocity": 87, "duration": 124}, {"note": 66, "velocity": 87, "duration": 133}, {"note": 74, "velocity": 88, "duration": 241}, {"note": 73, "velocity": 86, "duration": 119}, {"note": 73, "velocity": 93, "duration": 120}, {"note": 74, "velocity": 93, "duration": 120}, {"note": 76, "velocity": 104, "duration": 119}, {"note": 76, "velocity": 88, "duration": 119}, {"note": 76, "velocity": 91, "duration": 119}, {"note": 76, "velocity": 90, "duration": 119}, {"note": 76, "velocity": 98, "duration": 120}, {"note": 78, "velocity": 109, "duration": 360}, {"note": 76, "velocity": 107, "duration": 479}, {"note": 76, "velocity": 114, "duration": 240}, {"note": 81, "velocity": 114, "duration": 240}, {"note": 78, "velocity": 109, "duration": 360}, {"note": 76, "velocity": 107, "duration": 959}, {"note": 76, "velocity": 104, "duration": 240}, {"note": 73, "velocity": 116, "duration": 120}, {"note": 71, "velocity": 104, "duration": 120}, {"note": 69, "velocity": 92, "duration": 120}, {"note": 71, "velocity": 114, "duration": 130}, {"note": 69, "velocity": 96, "duration": 122}, {"note": 68, "velocity": 109, "duration": 120}, {"note": 69, "velocity": 110, "duration": 120}, {"note": 68, "velocity": 97, "duration": 120}, {"note": 69, "velocity": 102, "duration": 138}, {"note": 68, "velocity": 100, "duration": 120}, {"note": 69, "velocity": 110, "duration": 120}, {"note": 73, "velocity": 97, "duration": 148}, {"note": 68, "velocity": 93, "duration": 240}, {"note": 69, "velocity": 102, "duration": 360}, {"note": 81, "velocity": 110, "duration": 239}, {"note": 81, "velocity": 113, "duration": 360}, {"note": 78, "velocity": 113, "duration": 959}, {"note": 78, "velocity": 109, "duration": 240}, {"note": 73, "velocity": 113, "duration": 120}, {"note": 71, "velocity": 113, "duration": 134}, {"note": 69, "velocity": 94, "duration": 123}, {"note": 71, "velocity": 110, "duration": 120}, {"note": 73, "velocity": 100, "duration": 120}, {"note": 71, "velocity": 110, "duration": 123}, {"note": 73, "velocity": 100, "duration": 121}, {"note": 71, "velocity": 93, "duration": 120}, {"note": 73, "velocity": 103, "duration": 122}, {"note": 71, "velocity": 107, "duration": 120}, {"note": 73, "velocity": 100, "duration": 120}, {"note": 76, "velocity": 113, "duration": 146}, {"note": 78, "velocity": 109, "duration": 240}, {"note": 76, "velocity": 114, "duration": 360}, {"note": 81, "velocity": 114, "duration": 240}, {"note": 78, "velocity": 109, "duration": 360}, {"note": 76, "velocity": 107, "duration": 959}, {"note": 76, "velocity": 104, "duration": 240}, {"note": 73, "velocity": 116, "duration": 120}, {"note": 71, "velocity": 104, "duration": 120}, {"note": 69, "velocity": 92, "duration": 120}, {"note": 71, "velocity": 114, "duration": 130}, {"note": 69, "velocity": 96, "duration": 122}, {"note": 68, "velocity": 109, "duration": 120}, {"note": 69, "velocity": 110, "duration": 120}, {"note": 68, "velocity": 97, "duration": 120}, {"note": 69, "velocity": 102, "duration": 138}, {"note": 68, "velocity": 100, "duration": 120}, {"note": 69, "velocity": 110, "duration": 120}, {"note": 73, "velocity": 97, "duration": 148}, {"note": 68, "velocity": 93, "duration": 240}, {"note": 69, "velocity": 102, "duration": 360}, {"note": 81, "velocity": 110, "duration": 239}, {"note": 81, "velocity": 113, "duration": 360}, {"note": 78, "velocity": 113, "duration": 1079}, {"note": 78, "velocity": 119, "duration": 240}, {"note": 81, "velocity": 114, "duration": 240}, {"note": 78, "velocity": 116, "duration": 366}, {"note": 76, "velocity": 113, "duration": 600}, {"note": 78, "velocity": 119, "duration": 479}, {"note": 78, "velocity": 119, "duration": 240}, {"note": 83, "velocity": 114, "duration": 240}, {"note": 82, "velocity": 123, "duration": 360}, {"note": 78, "velocity": 119, "duration": 959}, {"note": 78, "velocity": 119, "duration": 240}, {"note": 75, "velocity": 119, "duration": 120}, {"note": 73, "velocity": 116, "duration": 120}, {"note": 71, "velocity": 98, "duration": 120}, {"note": 70, "velocity": 106, "duration": 120}, {"note": 71, "velocity": 91, "duration": 127}, {"note": 70, "velocity": 103, "duration": 135}, {"note": 71, "velocity": 108, "duration": 125}, {"note": 70, "velocity": 106, "duration": 131}, {"note": 71, "velocity": 96, "duration": 120}, {"note": 70, "velocity": 103, "duration": 120}, {"note": 71, "velocity": 94, "duration": 120}, {"note": 75, "velocity": 119, "duration": 120}, {"note": 70, "velocity": 91, "duration": 240}, {"note": 71, "velocity": 100, "duration": 360}, {"note": 83, "velocity": 98, "duration": 239}, {"note": 83, "velocity": 116, "duration": 360}, {"note": 80, "velocity": 116, "duration": 240}, {"note": 78, "velocity": 97, "duration": 120}, {"note": 76, "velocity": 107, "duration": 600}, {"note": 80, "velocity": 119, "duration": 240}, {"note": 75, "velocity": 116, "duration": 120}, {"note": 73, "velocity": 119, "duration": 120}, {"note": 71, "velocity": 113, "duration": 120}, {"note": 73, "velocity": 116, "duration": 120}, {"note": 75, "velocity": 116, "duration": 126}, {"note": 73, "velocity": 113, "duration": 120}, {"note": 75, "velocity": 109, "duration": 120}, {"note": 73, "velocity": 113, "duration": 120}, {"note": 75, "velocity": 91, "duration": 120}, {"note": 73, "velocity": 106, "duration": 120}, {"note": 75, "velocity": 116, "duration": 120}, {"note": 76, "velocity": 117, "duration": 120}, {"note": 78, "velocity": 116, "duration": 120}, {"note": 76, "velocity": 116, "duration": 120}, {"note": 78, "velocity": 116, "duration": 120}, {"note": 76, "velocity": 113, "duration": 120}, {"note": 78, "velocity": 116, "duration": 120}, {"note": 76, "velocity": 117, "duration": 120}, {"note": 78, "velocity": 97, "duration": 119}, {"note": 78, "velocity": 113, "duration": 1319}, {"note": 78, "velocity": 119, "duration": 240}, {"note": 75, "velocity": 116, "duration": 120}, {"note": 73, "velocity": 119, "duration": 120}, {"note": 71, "velocity": 114, "duration": 120}, {"note": 70, "velocity": 113, "duration": 120}, {"note": 71, "velocity": 104, "duration": 123}, {"note": 70, "velocity": 113, "duration": 125}, {"note": 71, "velocity": 107, "duration": 127}, {"note": 70, "velocity": 113, "duration": 126}, {"note": 71, "velocity": 104, "duration": 120}, {"note": 70, "velocity": 113, "duration": 120}, {"note": 71, "velocity": 91, "duration": 120}, {"note": 75, "velocity": 119, "duration": 120}, {"note": 70, "velocity": 119, "duration": 240}, {"note": 71, "velocity": 114, "duration": 600}, {"note": 83, "velocity": 116, "duration": 720}, {"note": 86, "velocity": 116, "duration": 120}, {"note": 85, "velocity": 113, "duration": 240}, {"note": 83, "velocity": 117, "duration": 480}, {"note": 80, "velocity": 97, "duration": 120}, {"note": 78, "velocity": 109, "duration": 480}, {"note": 80, "velocity": 103, "duration": 120}, {"note": 78, "velocity": 95, "duration": 360}, {"note": 75, "velocity": 116, "duration": 120}, {"note": 73, "velocity": 116, "duration": 1342}, {"note": 0, "velocity": 0, "duration": 1658}, {"note": 78, "velocity": 100, "duration": 480}, {"note": 83, "velocity": 94, "duration": 480}, {"note": 85, "velocity": 103, "duration": 240}, {"note": 83, "velocity": 88, "duration": 137}, {"note": 85, "velocity": 97, "duration": 240}, {"note": 87, "velocity": 103, "duration": 360}, {"note": 85, "velocity": 106, "duration": 240}, {"note": 83, "velocity": 88, "duration": 120}, {"note": 87, "velocity": 97, "duration": 600}, {"note": 82, "velocity": 116, "duration": 240}, {"note": 80, "velocity": 95, "duration": 120}, {"note": 82, "velocity": 97, "duration": 240}, {"note": 83, "velocity": 107, "duration": 240}, {"note": 80, "velocity": 106, "duration": 599}, {"note": 80, "velocity": 116, "duration": 240}, {"note": 85, "velocity": 109, "duration": 240}, {"note": 87, "velocity": 116, "duration": 240}, {"note": 85, "velocity": 100, "duration": 120}, {"note": 87, "velocity": 109, "duration": 240}, {"note": 88, "velocity": 110, "duration": 360}, {"note": 87, "velocity": 116, "duration": 240}, {"note": 85, "velocity": 103, "duration": 120}, {"note": 88, "velocity": 114, "duration": 600}, {"note": 83, "velocity": 98, "duration": 243}, {"note": 82, "velocity": 106, "duration": 240}, {"note": 83, "velocity": 104, "duration": 240}, {"note": 85, "velocity": 103, "duration": 240}, {"note": 82, "velocity": 109, "duration": 1221}]]