[[{"note": 63, "velocity": 88, "duration": 119}, {"note": 63, "velocity": 87, "duration": 119}, {"note": 63, "velocity": 87, "duration": 119}, {"note": 63, "velocity": 85, "duration": 119}, {"note": 63, "velocity": 87, "duration": 120}, {"note": 65, "velocity": 91, "duration": 126}, {"note": 63, "velocity": 89, "duration": 240}, {"note": 62, "velocity": 87, "duration": 119}, {"note": 62, "velocity": 88, "duration": 839}, {"note": 62, "velocity": 88, "duration": 119}, {"note": 62, "velocity": 93, "duration": 239}, {"note": 62, "velocity": 88, "duration": 119}, {"note": 62, "velocity": 88, "duration": 120}, {"note": 63, "velocity": 88, "duration": 120}, {"note": 62, "velocity": 89, "duration": 120}, {"note": 60, "velocity": 86, "duration": 239}, {"note": 60, "velocity": 92, "duration": 839}, {"note": 60, "velocity": 93, "duration": 119}, {"note": 60, "velocity": 88, "duration": 119}, {"note": 60, "velocity": 93, "duration": 119}, {"note": 60, "velocity": 100, "duration": 240}, {"note": 59, "velocity": 100, "duration": 360}, {"note": 60, "velocity": 104, "duration": 120}, {"note": 59, "velocity": 90, "duration": 120}, {"note": 60, "velocity": 94, "duration": 120}, {"note": 55, "velocity": 96, "duration": 239}, {"note": 55, "velocity": 102, "duration": 2280}, {"note": 63, "velocity": 87, "duration": 119}, {"note": 63, "velocity": 86, "duration": 119}, {"note": 63, "velocity": 91, "duration": 119}, {"note": 63, "velocity": 92, "duration": 240}, {"note": 65, "velocity": 100, "duration": 120}, {"note": 63, "velocity": 88, "duration": 120}, {"note": 62, "velocity": 88, "duration": 119}, {"note": 62, "velocity": 89, "duration": 119}, {"note": 62, "velocity": 98, "duration": 839}, {"note": 62, "velocity": 90, "duration": 119}, {"note": 62, "velocity": 88, "duration": 119}, {"note": 62, "velocity": 87, "duration": 119}, {"note": 62, "velocity": 89, "duration": 240}, {"note": 63, "velocity": 88, "duration": 122}, {"note": 67, "velocity": 86, "duration": 120}, {"note": 60, "velocity": 91, "duration": 119}, {"note": 60, "velocity": 88, "duration": 119}, {"note": 60, "velocity": 98, "duration": 839}, {"note": 60, "velocity": 104, "duration": 119}, {"note": 60, "velocity": 96, "duration": 119}, {"note": 60, "velocity": 96, "duration": 119}, {"note": 60, "velocity": 110, "duration": 239}, {"note": 60, "velocity": 88, "duration": 136}, {"note": 59, "velocity": 91, "duration": 359}, {"note": 59, "velocity": 93, "duration": 119}, {"note": 59, "velocity": 95, "duration": 120}, {"note": 60, "velocity": 104, "duration": 239}, {"note": 60, "velocity": 110, "duration": 1560}, {"note": 70, "velocity": 119, "duration": 120}, {"note": 68, "velocity": 106, "duration": 120}, {"note": 67, "velocity": 104, "duration": 120}, {"note": 65, "velocity": 102, "duration": 120}, {"note": 67, "velocity": 114, "duration": 240}, {"note": 60, "velocity": 93, "duration": 240}, {"note": 67, "velocity": 114, "duration": 240}, {"note": 68, "velocity": 109, "duration": 120}, {"note": 67, "velocity": 113, "duration": 240}, {"note": 65, "velocity": 108, "duration": 360}, {"note": 70, "velocity": 113, "duration": 140}, {"note": 68, "velocity": 109, "duration": 129}, {"note": 67, "velocity": 107, "duration": 120}, {"note": 65, "velocity": 107, "duration": 127}, {"note": 67, "velocity": 113, "duration": 240}, {"note": 58, "velocity": 107, "duration": 240}, {"note": 65, "velocity": 117, "duration": 240}, {"note": 67, "velocity": 110, "duration": 120}, {"note": 65, "velocity": 114, "duration": 240}, {"note": 63, "velocity": 119, "duration": 479}, {"note": 63, "velocity": 90, "duration": 119}, {"note": 63, "velocity": 94, "duration": 120}, {"note": 65, "velocity": 114, "duration": 360}, {"note": 63, "velocity": 104, "duration": 119}, {"note": 63, "velocity": 116, "duration": 360}, {"note": 62, "velocity": 114, "duration": 120}, {"note": 60, "velocity": 104, "duration": 240}, {"note": 59, "velocity": 113, "duration": 240}, {"note": 60, "velocity": 83, "duration": 240}, {"note": 62, "velocity": 110, "duration": 240}, {"note": 63, "velocity": 94, "duration": 239}, {"note": 63, "velocity": 91, "duration": 119}, {"note": 63, "velocity": 98, "duration": 119}, {"note": 63, "velocity": 104, "duration": 119}, {"note": 63, "velocity": 102, "duration": 120}, {"note": 65, "velocity": 114, "duration": 240}, {"note": 67, "velocity": 117, "duration": 600}, {"note": 70, "velocity": 117, "duration": 120}, {"note": 68, "velocity": 113, "duration": 120}, {"note": 67, "velocity": 114, "duration": 120}, {"note": 65, "velocity": 104, "duration": 120}, {"note": 67, "velocity": 119, "duration": 240}, {"note": 60, "velocity": 119, "duration": 240}, {"note": 67, "velocity": 117, "duration": 240}, {"note": 68, "velocity": 113, "duration": 120}, {"note": 67, "velocity": 110, "duration": 240}, {"note": 65, "velocity": 108, "duration": 360}, {"note": 70, "velocity": 116, "duration": 120}, {"note": 68, "velocity": 113, "duration": 140}, {"note": 67, "velocity": 110, "duration": 120}, {"note": 65, "velocity": 98, "duration": 123}, {"note": 67, "velocity": 108, "duration": 240}, {"note": 58, "velocity": 114, "duration": 240}, {"note": 65, "velocity": 117, "duration": 240}, {"note": 67, "velocity": 114, "duration": 120}, {"note": 65, "velocity": 114, "duration": 240}, {"note": 63, "velocity": 113, "duration": 599}, {"note": 63, "velocity": 110, "duration": 119}, {"note": 63, "velocity": 100, "duration": 120}, {"note": 65, "velocity": 114, "duration": 240}, {"note": 63, "velocity": 96, "duration": 119}, {"note": 63, "velocity": 100, "duration": 360}, {"note": 62, "velocity": 110, "duration": 121}, {"note": 60, "velocity": 107, "duration": 240}, {"note": 59, "velocity": 113, "duration": 119}, {"note": 59, "velocity": 113, "duration": 120}, {"note": 60, "velocity": 108, "duration": 240}, {"note": 62, "velocity": 110, "duration": 359}, {"note": 62, "velocity": 119, "duration": 1017}, {"note": 60, "velocity": 114, "duration": 960}, {"note": 0, "velocity": 0, "duration": 7920}, {"note": 63, "velocity": 87, "duration": 46}, {"note": 0, "velocity": 0, "duration": 74}, {"note": 63, "velocity": 86, "duration": 44}, {"note": 0, "velocity": 0, "duration": 76}, {"note": 63, "velocity": 91, "duration": 57}, {"note": 0, "velocity": 0, "duration": 63}, {"note": 63, "velocity": 92, "duration": 48}, {"note": 0, "velocity": 0, "duration": 192}, {"note": 65, "velocity": 100, "duration": 109}, {"note": 63, "velocity": 88, "duration": 100}, {"note": 62, "velocity": 88, "duration": 77}, {"note": 62, "velocity": 89, "duration": 49}, {"note": 0, "velocity": 0, "duration": 71}, {"note": 62, "velocity": 98, "duration": 142}, {"note": 0, "velocity": 0, "duration": 698}, {"note": 62, "velocity": 90, "duration": 69}, {"note": 62, "velocity": 88, "duration": 69}, {"note": 62, "velocity": 87, "duration": 62}, {"note": 62, "velocity": 89, "duration": 122}, {"note": 0, "velocity": 0, "duration": 118}, {"note": 63, "velocity": 88, "duration": 122}, {"note": 67, "velocity": 86, "duration": 97}, {"note": 60, "velocity": 91, "duration": 63}, {"note": 60, "velocity": 88, "duration": 52}, {"note": 0, "velocity": 0, "duration": 68}, {"note": 60, "velocity": 98, "duration": 119}, {"note": 0, "velocity": 0, "duration": 721}, {"note": 60, "velocity": 104, "duration": 49}, {"note": 0, "velocity": 0, "duration": 71}, {"note": 60, "velocity": 96, "duration": 53}, {"note": 0, "velocity": 0, "duration": 67}, {"note": 60, "velocity": 96, "duration": 48}, {"note": 0, "velocity": 0, "duration": 72}, {"note": 60, "velocity": 110, "duration": 106}, {"note": 0, "velocity": 0, "duration": 134}, {"note": 60, "velocity": 88, "duration": 136}, {"note": 59, "velocity": 91, "duration": 140}, {"note": 0, "velocity": 0, "duration": 220}, {"note": 59, "velocity": 93, "duration": 55}, {"note": 0, "velocity": 0, "duration": 65}, {"note": 59, "velocity": 95, "duration": 78}, {"note": 60, "velocity": 104, "duration": 127}, {"note": 0, "velocity": 0, "duration": 113}, {"note": 60, "velocity": 110, "duration": 154}, {"note": 0, "velocity": 0, "duration": 1406}, {"note": 70, "velocity": 119, "duration": 91}, {"note": 68, "velocity": 106, "duration": 104}, {"note": 67, "velocity": 104, "duration": 112}, {"note": 65, "velocity": 102, "duration": 113}, {"note": 67, "velocity": 114, "duration": 127}, {"note": 0, "velocity": 0, "duration": 113}, {"note": 60, "velocity": 93, "duration": 149}, {"note": 0, "velocity": 0, "duration": 91}, {"note": 67, "velocity": 114, "duration": 159}, {"note": 0, "velocity": 0, "duration": 81}, {"note": 68, "velocity": 109, "duration": 85}, {"note": 67, "velocity": 113, "duration": 130}, {"note": 0, "velocity": 0, "duration": 110}, {"note": 65, "velocity": 108, "duration": 121}, {"note": 0, "velocity": 0, "duration": 239}, {"note": 70, "velocity": 113, "duration": 140}, {"note": 68, "velocity": 109, "duration": 129}, {"note": 67, "velocity": 107, "duration": 119}, {"note": 65, "velocity": 107, "duration": 127}, {"note": 67, "velocity": 113, "duration": 114}, {"note": 0, "velocity": 0, "duration": 126}, {"note": 58, "velocity": 107, "duration": 152}, {"note": 0, "velocity": 0, "duration": 88}, {"note": 65, "velocity": 117, "duration": 146}, {"note": 0, "velocity": 0, "duration": 94}, {"note": 67, "velocity": 110, "duration": 89}, {"note": 65, "velocity": 114, "duration": 151}, {"note": 0, "velocity": 0, "duration": 89}, {"note": 63, "velocity": 119, "duration": 139}, {"note": 0, "velocity": 0, "duration": 341}, {"note": 63, "velocity": 90, "duration": 68}, {"note": 63, "velocity": 94, "duration": 58}, {"note": 0, "velocity": 0, "duration": 62}, {"note": 65, "velocity": 114, "duration": 151}, {"note": 0, "velocity": 0, "duration": 209}, {"note": 63, "velocity": 104, "duration": 54}, {"note": 0, "velocity": 0, "duration": 66}, {"note": 63, "velocity": 116, "duration": 122}, {"note": 0, "velocity": 0, "duration": 238}, {"note": 62, "velocity": 114, "duration": 110}, {"note": 60, "velocity": 104, "duration": 180}, {"note": 59, "velocity": 113, "duration": 128}, {"note": 0, "velocity": 0, "duration": 112}, {"note": 60, "velocity": 83, "duration": 211}, {"note": 62, "velocity": 110, "duration": 123}, {"note": 0, "velocity": 0, "duration": 117}, {"note": 63, "velocity": 94, "duration": 167}, {"note": 0, "velocity": 0, "duration": 73}, {"note": 63, "velocity": 91, "duration": 56}, {"note": 0, "velocity": 0, "duration": 64}, {"note": 63, "velocity": 98, "duration": 52}, {"note": 0, "velocity": 0, "duration": 68}, {"note": 63, "velocity": 104, "duration": 50}, {"note": 0, "velocity": 0, "duration": 70}, {"note": 63, "velocity": 102, "duration": 53}, {"note": 0, "velocity": 0, "duration": 67}, {"note": 65, "velocity": 114, "duration": 163}, {"note": 0, "velocity": 0, "duration": 77}, {"note": 67, "velocity": 117, "duration": 145}, {"note": 0, "velocity": 0, "duration": 455}, {"note": 70, "velocity": 117, "duration": 119}, {"note": 68, "velocity": 113, "duration": 118}, {"note": 67, "velocity": 114, "duration": 105}, {"note": 65, "velocity": 104, "duration": 101}, {"note": 67, "velocity": 119, "duration": 138}, {"note": 0, "velocity": 0, "duration": 102}, {"note": 60, "velocity": 119, "duration": 152}, {"note": 0, "velocity": 0, "duration": 88}, {"note": 67, "velocity": 117, "duration": 203}, {"note": 68, "velocity": 113, "duration": 119}, {"note": 67, "velocity": 110, "duration": 234}, {"note": 65, "velocity": 108, "duration": 178}, {"note": 0, "velocity": 0, "duration": 182}, {"note": 70, "velocity": 116, "duration": 110}, {"note": 68, "velocity": 113, "duration": 140}, {"note": 67, "velocity": 110, "duration": 109}, {"note": 65, "velocity": 98, "duration": 123}, {"note": 67, "velocity": 108, "duration": 127}, {"note": 0, "velocity": 0, "duration": 113}, {"note": 58, "velocity": 114, "duration": 163}, {"note": 0, "velocity": 0, "duration": 77}, {"note": 65, "velocity": 117, "duration": 198}, {"note": 67, "velocity": 114, "duration": 113}, {"note": 65, "velocity": 114, "duration": 233}, {"note": 63, "velocity": 113, "duration": 161}, {"note": 0, "velocity": 0, "duration": 439}, {"note": 63, "velocity": 110, "duration": 40}, {"note": 0, "velocity": 0, "duration": 80}, {"note": 63, "velocity": 100, "duration": 43}, {"note": 0, "velocity": 0, "duration": 77}, {"note": 65, "velocity": 114, "duration": 147}, {"note": 0, "velocity": 0, "duration": 93}, {"note": 63, "velocity": 96, "duration": 38}, {"note": 0, "velocity": 0, "duration": 82}, {"note": 63, "velocity": 100, "duration": 81}, {"note": 0, "velocity": 0, "duration": 279}, {"note": 62, "velocity": 110, "duration": 121}, {"note": 60, "velocity": 107, "duration": 228}, {"note": 59, "velocity": 113, "duration": 60}, {"note": 59, "velocity": 113, "duration": 60}, {"note": 60, "velocity": 108, "duration": 232}, {"note": 62, "velocity": 110, "duration": 108}, {"note": 0, "velocity": 0, "duration": 252}, {"note": 62, "velocity": 119, "duration": 1017}, {"note": 60, "velocity": 114, "duration": 183}, {"note": 0, "velocity": 0, "duration": 297}, {"note": 70, "velocity": 119, "duration": 91}, {"note": 68, "velocity": 106, "duration": 104}, {"note": 67, "velocity": 104, "duration": 112}, {"note": 65, "velocity": 102, "duration": 113}, {"note": 67, "velocity": 114, "duration": 127}, {"note": 0, "velocity": 0, "duration": 113}, {"note": 60, "velocity": 93, "duration": 149}, {"note": 0, "velocity": 0, "duration": 91}, {"note": 67, "velocity": 114, "duration": 159}, {"note": 0, "velocity": 0, "duration": 81}, {"note": 68, "velocity": 109, "duration": 85}, {"note": 67, "velocity": 113, "duration": 130}, {"note": 0, "velocity": 0, "duration": 110}, {"note": 65, "velocity": 108, "duration": 121}, {"note": 0, "velocity": 0, "duration": 239}, {"note": 70, "velocity": 113, "duration": 140}, {"note": 68, "velocity": 109, "duration": 129}, {"note": 67, "velocity": 107, "duration": 119}, {"note": 65, "velocity": 107, "duration": 127}, {"note": 67, "velocity": 113, "duration": 114}, {"note": 0, "velocity": 0, "duration": 126}, {"note": 58, "velocity": 107, "duration": 152}, {"note": 0, "velocity": 0, "duration": 88}, {"note": 65, "velocity": 117, "duration": 146}, {"note": 0, "velocity": 0, "duration": 94}, {"note": 67, "velocity": 110, "duration": 89}, {"note": 65, "velocity": 114, "duration": 151}, {"note": 0, "velocity": 0, "duration": 89}, {"note": 63, "velocity": 119, "duration": 139}, {"note": 0, "velocity": 0, "duration": 341}, {"note": 63, "velocity": 90, "duration": 68}, {"note": 63, "velocity": 94, "duration": 58}, {"note": 0, "velocity": 0, "duration": 62}, {"note": 65, "velocity": 114, "duration": 151}, {"note": 0, "velocity": 0, "duration": 209}, {"note": 63, "velocity": 104, "duration": 54}, {"note": 0, "velocity": 0, "duration": 66}, {"note": 63, "velocity": 116, "duration": 122}, {"note": 0, "velocity": 0, "duration": 238}, {"note": 62, "velocity": 114, "duration": 110}, {"note": 60, "velocity": 104, "duration": 180}, {"note": 59, "velocity": 113, "duration": 128}, {"note": 0, "velocity": 0, "duration": 112}, {"note": 60, "velocity": 83, "duration": 211}, {"note": 62, "velocity": 110, "duration": 123}, {"note": 0, "velocity": 0, "duration": 237}, {"note": 63, "velocity": 94, "duration": 60}, {"note": 0, "velocity": 0, "duration": 100}, {"note": 63, "velocity": 102, "duration": 107}, {"note": 63, "velocity": 104, "duration": 80}, {"note": 0, "velocity": 0, "duration": 80}, {"note": 63, "velocity": 113, "duration": 105}, {"note": 65, "velocity": 113, "duration": 113}, {"note": 63, "velocity": 108, "duration": 78}, {"note": 0, "velocity": 0, "duration": 82}, {"note": 67, "velocity": 117, "duration": 159}, {"note": 0, "velocity": 0, "duration": 321}, {"note": 70, "velocity": 117, "duration": 119}, {"note": 68, "velocity": 113, "duration": 118}, {"note": 67, "velocity": 114, "duration": 105}, {"note": 65, "velocity": 104, "duration": 101}, {"note": 67, "velocity": 119, "duration": 138}, {"note": 0, "velocity": 0, "duration": 102}, {"note": 60, "velocity": 119, "duration": 152}, {"note": 0, "velocity": 0, "duration": 88}, {"note": 67, "velocity": 117, "duration": 203}, {"note": 68, "velocity": 113, "duration": 119}, {"note": 67, "velocity": 110, "duration": 234}, {"note": 65, "velocity": 108, "duration": 178}, {"note": 0, "velocity": 0, "duration": 182}, {"note": 70, "velocity": 116, "duration": 110}, {"note": 68, "velocity": 113, "duration": 140}, {"note": 67, "velocity": 110, "duration": 109}, {"note": 65, "velocity": 98, "duration": 123}, {"note": 67, "velocity": 108, "duration": 127}, {"note": 0, "velocity": 0, "duration": 113}, {"note": 58, "velocity": 114, "duration": 163}, {"note": 0, "velocity": 0, "duration": 77}, {"note": 65, "velocity": 117, "duration": 198}, {"note": 67, "velocity": 114, "duration": 113}, {"note": 65, "velocity": 114, "duration": 233}, {"note": 63, "velocity": 113, "duration": 161}, {"note": 0, "velocity": 0, "duration": 439}, {"note": 63, "velocity": 110, "duration": 40}, {"note": 0, "velocity": 0, "duration": 80}, {"note": 63, "velocity": 100, "duration": 43}, {"note": 0, "velocity": 0, "duration": 77}, {"note": 65, "velocity": 114, "duration": 147}, {"note": 0, "velocity": 0, "duration": 93}, {"note": 63, "velocity": 96, "duration": 38}, {"note": 0, "velocity": 0, "duration": 82}, {"note": 63, "velocity": 100, "duration": 81}, {"note": 0, "velocity": 0, "duration": 279}, {"note": 62, "velocity": 110, "duration": 121}, {"note": 60, "velocity": 107, "duration": 228}, {"note": 59, "velocity": 113, "duration": 60}, {"note": 59, "velocity": 113, "duration": 60}, {"note": 60, "velocity": 108, "duration": 232}, {"note": 62, "velocity": 110, "duration": 108}, {"note": 0, "velocity": 0, "duration": 252}, {"note": 62, "velocity": 119, "duration": 1017}, {"note": 60, "velocity": 114, "duration": 183}]]