[[{"note": 71, "velocity": 100, "duration": 239}, {"note": 71, "velocity": 102, "duration": 239}, {"note": 71, "velocity": 94, "duration": 240}, {"note": 74, "velocity": 96, "duration": 359}, {"note": 74, "velocity": 96, "duration": 360}, {"note": 72, "velocity": 104, "duration": 246}, {"note": 71, "velocity": 94, "duration": 1199}, {"note": 71, "velocity": 100, "duration": 239}, {"note": 71, "velocity": 98, "duration": 240}, {"note": 69, "velocity": 98, "duration": 240}, {"note": 67, "velocity": 98, "duration": 1200}, {"note": 69, "velocity": 87, "duration": 239}, {"note": 69, "velocity": 88, "duration": 240}, {"note": 67, "velocity": 87, "duration": 240}, {"note": 71, "velocity": 89, "duration": 2159}, {"note": 71, "velocity": 92, "duration": 239}, {"note": 71, "velocity": 94, "duration": 239}, {"note": 71, "velocity": 102, "duration": 240}, {"note": 74, "velocity": 102, "duration": 359}, {"note": 74, "velocity": 96, "duration": 360}, {"note": 76, "velocity": 96, "duration": 239}, {"note": 76, "velocity": 107, "duration": 1200}, {"note": 71, "velocity": 93, "duration": 239}, {"note": 71, "velocity": 96, "duration": 240}, {"note": 69, "velocity": 91, "duration": 127}, {"note": 67, "velocity": 89, "duration": 959}, {"note": 67, "velocity": 87, "duration": 126}, {"note": 69, "velocity": 90, "duration": 240}, {"note": 74, "velocity": 98, "duration": 240}, {"note": 71, "velocity": 91, "duration": 240}, {"note": 69, "velocity": 83, "duration": 134}, {"note": 67, "velocity": 85, "duration": 2280}, {"note": 72, "velocity": 102, "duration": 239}, {"note": 72, "velocity": 100, "duration": 239}, {"note": 72, "velocity": 87, "duration": 120}, {"note": 74, "velocity": 107, "duration": 359}, {"note": 74, "velocity": 107, "duration": 239}, {"note": 74, "velocity": 94, "duration": 120}, {"note": 76, "velocity": 96, "duration": 360}, {"note": 74, "velocity": 102, "duration": 2160}, {"note": 72, "velocity": 89, "duration": 239}, {"note": 72, "velocity": 94, "duration": 239}, {"note": 72, "velocity": 88, "duration": 120}, {"note": 74, "velocity": 93, "duration": 359}, {"note": 74, "velocity": 90, "duration": 239}, {"note": 74, "velocity": 92, "duration": 120}, {"note": 69, "velocity": 98, "duration": 360}, {"note": 71, "velocity": 89, "duration": 2160}, {"note": 72, "velocity": 88, "duration": 119}, {"note": 72, "velocity": 88, "duration": 119}, {"note": 72, "velocity": 88, "duration": 239}, {"note": 72, "velocity": 87, "duration": 240}, {"note": 74, "velocity": 102, "duration": 239}, {"note": 74, "velocity": 96, "duration": 239}, {"note": 74, "velocity": 108, "duration": 240}, {"note": 76, "velocity": 107, "duration": 240}, {"note": 74, "velocity": 108, "duration": 480}, {"note": 76, "velocity": 114, "duration": 480}, {"note": 71, "velocity": 102, "duration": 719}, {"note": 71, "velocity": 104, "duration": 240}, {"note": 69, "velocity": 96, "duration": 239}, {"note": 69, "velocity": 102, "duration": 239}, {"note": 69, "velocity": 104, "duration": 240}, {"note": 67, "velocity": 102, "duration": 240}, {"note": 69, "velocity": 102, "duration": 239}, {"note": 69, "velocity": 87, "duration": 119}, {"note": 69, "velocity": 88, "duration": 120}, {"note": 71, "velocity": 92, "duration": 239}, {"note": 71, "velocity": 94, "duration": 240}, {"note": 69, "velocity": 91, "duration": 2160}, {"note": 71, "velocity": 88, "duration": 119}, {"note": 71, "velocity": 88, "duration": 119}, {"note": 71, "velocity": 91, "duration": 239}, {"note": 71, "velocity": 89, "duration": 240}, {"note": 74, "velocity": 104, "duration": 239}, {"note": 74, "velocity": 93, "duration": 239}, {"note": 74, "velocity": 104, "duration": 120}, {"note": 72, "velocity": 100, "duration": 240}, {"note": 71, "velocity": 110, "duration": 1559}, {"note": 71, "velocity": 107, "duration": 240}, {"note": 69, "velocity": 92, "duration": 240}, {"note": 67, "velocity": 98, "duration": 719}, {"note": 67, "velocity": 94, "duration": 240}, {"note": 69, "velocity": 88, "duration": 239}, {"note": 69, "velocity": 88, "duration": 119}, {"note": 69, "velocity": 89, "duration": 360}, {"note": 67, "velocity": 87, "duration": 240}, {"note": 71, "velocity": 93, "duration": 2159}, {"note": 71, "velocity": 94, "duration": 239}, {"note": 71, "velocity": 98, "duration": 239}, {"note": 71, "velocity": 93, "duration": 240}, {"note": 74, "velocity": 100, "duration": 239}, {"note": 74, "velocity": 93, "duration": 239}, {"note": 74, "velocity": 93, "duration": 240}, {"note": 76, "velocity": 88, "duration": 119}, {"note": 76, "velocity": 92, "duration": 1560}, {"note": 71, "velocity": 100, "duration": 240}, {"note": 69, "velocity": 93, "duration": 240}, {"note": 67, "velocity": 98, "duration": 719}, {"note": 67, "velocity": 91, "duration": 119}, {"note": 67, "velocity": 89, "duration": 120}, {"note": 69, "velocity": 102, "duration": 240}, {"note": 74, "velocity": 108, "duration": 240}, {"note": 71, "velocity": 91, "duration": 240}, {"note": 69, "velocity": 86, "duration": 240}, {"note": 67, "velocity": 88, "duration": 1818}, {"note": 0, "velocity": 0, "duration": 15702}, {"note": 71, "velocity": 100, "duration": 239}, {"note": 71, "velocity": 102, "duration": 239}, {"note": 71, "velocity": 94, "duration": 240}, {"note": 74, "velocity": 96, "duration": 359}, {"note": 74, "velocity": 96, "duration": 360}, {"note": 72, "velocity": 104, "duration": 246}, {"note": 71, "velocity": 94, "duration": 1199}, {"note": 71, "velocity": 100, "duration": 239}, {"note": 71, "velocity": 98, "duration": 240}, {"note": 69, "velocity": 98, "duration": 240}, {"note": 67, "velocity": 98, "duration": 1200}, {"note": 69, "velocity": 87, "duration": 239}, {"note": 69, "velocity": 88, "duration": 240}, {"note": 67, "velocity": 87, "duration": 240}, {"note": 71, "velocity": 89, "duration": 2159}, {"note": 71, "velocity": 92, "duration": 239}, {"note": 71, "velocity": 94, "duration": 239}, {"note": 71, "velocity": 102, "duration": 240}, {"note": 74, "velocity": 102, "duration": 359}, {"note": 74, "velocity": 96, "duration": 360}, {"note": 76, "velocity": 96, "duration": 239}, {"note": 76, "velocity": 107, "duration": 1200}, {"note": 71, "velocity": 93, "duration": 239}, {"note": 71, "velocity": 96, "duration": 240}, {"note": 69, "velocity": 91, "duration": 127}, {"note": 67, "velocity": 89, "duration": 959}, {"note": 67, "velocity": 87, "duration": 126}, {"note": 69, "velocity": 90, "duration": 240}, {"note": 74, "velocity": 98, "duration": 240}, {"note": 71, "velocity": 91, "duration": 240}, {"note": 69, "velocity": 83, "duration": 134}, {"note": 67, "velocity": 85, "duration": 2040}, {"note": 0, "velocity": 0, "duration": 240}, {"note": 72, "velocity": 102, "duration": 239}, {"note": 72, "velocity": 100, "duration": 239}, {"note": 72, "velocity": 87, "duration": 120}, {"note": 74, "velocity": 107, "duration": 359}, {"note": 74, "velocity": 107, "duration": 239}, {"note": 74, "velocity": 94, "duration": 120}, {"note": 76, "velocity": 96, "duration": 360}, {"note": 74, "velocity": 102, "duration": 2160}, {"note": 72, "velocity": 89, "duration": 239}, {"note": 72, "velocity": 94, "duration": 239}, {"note": 72, "velocity": 88, "duration": 120}, {"note": 74, "velocity": 93, "duration": 359}, {"note": 74, "velocity": 90, "duration": 239}, {"note": 74, "velocity": 92, "duration": 120}, {"note": 69, "velocity": 98, "duration": 360}, {"note": 71, "velocity": 89, "duration": 2160}, {"note": 72, "velocity": 88, "duration": 119}, {"note": 72, "velocity": 88, "duration": 119}, {"note": 72, "velocity": 88, "duration": 239}, {"note": 72, "velocity": 87, "duration": 240}, {"note": 74, "velocity": 102, "duration": 239}, {"note": 74, "velocity": 96, "duration": 239}, {"note": 74, "velocity": 108, "duration": 240}, {"note": 76, "velocity": 107, "duration": 240}, {"note": 74, "velocity": 108, "duration": 480}, {"note": 76, "velocity": 114, "duration": 480}, {"note": 71, "velocity": 102, "duration": 719}, {"note": 71, "velocity": 104, "duration": 240}, {"note": 69, "velocity": 96, "duration": 239}, {"note": 69, "velocity": 102, "duration": 239}, {"note": 69, "velocity": 104, "duration": 240}, {"note": 67, "velocity": 102, "duration": 240}, {"note": 69, "velocity": 102, "duration": 239}, {"note": 69, "velocity": 87, "duration": 119}, {"note": 69, "velocity": 88, "duration": 120}, {"note": 71, "velocity": 92, "duration": 239}, {"note": 71, "velocity": 94, "duration": 240}, {"note": 69, "velocity": 91, "duration": 2160}, {"note": 71, "velocity": 88, "duration": 119}, {"note": 71, "velocity": 88, "duration": 119}, {"note": 71, "velocity": 91, "duration": 239}, {"note": 71, "velocity": 89, "duration": 240}, {"note": 74, "velocity": 104, "duration": 239}, {"note": 74, "velocity": 93, "duration": 239}, {"note": 74, "velocity": 104, "duration": 120}, {"note": 72, "velocity": 100, "duration": 240}, {"note": 71, "velocity": 110, "duration": 1559}, {"note": 71, "velocity": 107, "duration": 240}, {"note": 69, "velocity": 92, "duration": 240}, {"note": 67, "velocity": 98, "duration": 719}, {"note": 67, "velocity": 94, "duration": 240}, {"note": 69, "velocity": 88, "duration": 239}, {"note": 69, "velocity": 88, "duration": 119}, {"note": 69, "velocity": 89, "duration": 360}, {"note": 67, "velocity": 87, "duration": 240}, {"note": 71, "velocity": 93, "duration": 2159}, {"note": 71, "velocity": 94, "duration": 239}, {"note": 71, "velocity": 98, "duration": 239}, {"note": 71, "velocity": 93, "duration": 240}, {"note": 74, "velocity": 100, "duration": 239}, {"note": 74, "velocity": 93, "duration": 239}, {"note": 74, "velocity": 93, "duration": 240}, {"note": 76, "velocity": 88, "duration": 119}, {"note": 76, "velocity": 92, "duration": 1560}, {"note": 71, "velocity": 100, "duration": 240}, {"note": 69, "velocity": 93, "duration": 240}, {"note": 67, "velocity": 98, "duration": 719}, {"note": 67, "velocity": 91, "duration": 119}, {"note": 67, "velocity": 89, "duration": 120}, {"note": 69, "velocity": 102, "duration": 240}, {"note": 74, "velocity": 108, "duration": 240}, {"note": 71, "velocity": 91, "duration": 240}, {"note": 69, "velocity": 86, "duration": 240}, {"note": 67, "velocity": 88, "duration": 1920}, {"note": 0, "velocity": 0, "duration": 15657}, {"note": 72, "velocity": 102, "duration": 138}, {"note": 0, "velocity": 0, "duration": 102}, {"note": 72, "velocity": 100, "duration": 162}, {"note": 0, "velocity": 0, "duration": 78}, {"note": 72, "velocity": 87, "duration": 74}, {"note": 74, "velocity": 107, "duration": 161}, {"note": 0, "velocity": 0, "duration": 199}, {"note": 74, "velocity": 107, "duration": 133}, {"note": 0, "velocity": 0, "duration": 107}, {"note": 74, "velocity": 94, "duration": 109}, {"note": 76, "velocity": 96, "duration": 218}, {"note": 0, "velocity": 0, "duration": 142}, {"note": 74, "velocity": 102, "duration": 205}, {"note": 0, "velocity": 0, "duration": 1955}, {"note": 72, "velocity": 89, "duration": 137}, {"note": 0, "velocity": 0, "duration": 103}, {"note": 72, "velocity": 94, "duration": 162}, {"note": 0, "velocity": 0, "duration": 78}, {"note": 72, "velocity": 88, "duration": 75}, {"note": 74, "velocity": 93, "duration": 242}, {"note": 0, "velocity": 0, "duration": 118}, {"note": 74, "velocity": 90, "duration": 157}, {"note": 0, "velocity": 0, "duration": 83}, {"note": 74, "velocity": 92, "duration": 105}, {"note": 69, "velocity": 98, "duration": 176}, {"note": 0, "velocity": 0, "duration": 184}, {"note": 71, "velocity": 89, "duration": 144}, {"note": 0, "velocity": 0, "duration": 2016}, {"note": 72, "velocity": 88, "duration": 45}, {"note": 0, "velocity": 0, "duration": 75}, {"note": 72, "velocity": 88, "duration": 43}, {"note": 0, "velocity": 0, "duration": 77}, {"note": 72, "velocity": 88, "duration": 140}, {"note": 0, "velocity": 0, "duration": 100}, {"note": 72, "velocity": 87, "duration": 72}, {"note": 0, "velocity": 0, "duration": 168}, {"note": 74, "velocity": 102, "duration": 225}, {"note": 74, "velocity": 96, "duration": 145}, {"note": 0, "velocity": 0, "duration": 95}, {"note": 74, "velocity": 108, "duration": 157}, {"note": 0, "velocity": 0, "duration": 83}, {"note": 76, "velocity": 107, "duration": 171}, {"note": 0, "velocity": 0, "duration": 69}, {"note": 74, "velocity": 108, "duration": 157}, {"note": 0, "velocity": 0, "duration": 323}, {"note": 76, "velocity": 114, "duration": 344}, {"note": 0, "velocity": 0, "duration": 136}, {"note": 71, "velocity": 102, "duration": 227}, {"note": 0, "velocity": 0, "duration": 493}, {"note": 71, "velocity": 104, "duration": 220}, {"note": 69, "velocity": 96, "duration": 176}, {"note": 0, "velocity": 0, "duration": 64}, {"note": 69, "velocity": 102, "duration": 143}, {"note": 0, "velocity": 0, "duration": 97}, {"note": 69, "velocity": 104, "duration": 190}, {"note": 67, "velocity": 102, "duration": 157}, {"note": 0, "velocity": 0, "duration": 83}, {"note": 69, "velocity": 102, "duration": 141}, {"note": 0, "velocity": 0, "duration": 99}, {"note": 69, "velocity": 87, "duration": 44}, {"note": 0, "velocity": 0, "duration": 76}, {"note": 69, "velocity": 88, "duration": 66}, {"note": 71, "velocity": 92, "duration": 120}, {"note": 0, "velocity": 0, "duration": 120}, {"note": 71, "velocity": 94, "duration": 221}, {"note": 69, "velocity": 91, "duration": 177}, {"note": 0, "velocity": 0, "duration": 2103}, {"note": 71, "velocity": 88, "duration": 56}, {"note": 0, "velocity": 0, "duration": 64}, {"note": 71, "velocity": 88, "duration": 56}, {"note": 0, "velocity": 0, "duration": 64}, {"note": 71, "velocity": 91, "duration": 132}, {"note": 0, "velocity": 0, "duration": 108}, {"note": 71, "velocity": 89, "duration": 134}, {"note": 0, "velocity": 0, "duration": 106}, {"note": 74, "velocity": 104, "duration": 131}, {"note": 0, "velocity": 0, "duration": 109}, {"note": 74, "velocity": 93, "duration": 51}, {"note": 0, "velocity": 0, "duration": 189}, {"note": 74, "velocity": 104, "duration": 117}, {"note": 72, "velocity": 100, "duration": 188}, {"note": 71, "velocity": 110, "duration": 167}, {"note": 0, "velocity": 0, "duration": 1393}, {"note": 71, "velocity": 107, "duration": 197}, {"note": 69, "velocity": 92, "duration": 231}, {"note": 67, "velocity": 98, "duration": 204}, {"note": 0, "velocity": 0, "duration": 516}, {"note": 67, "velocity": 94, "duration": 133}, {"note": 0, "velocity": 0, "duration": 107}, {"note": 69, "velocity": 88, "duration": 134}, {"note": 0, "velocity": 0, "duration": 106}, {"note": 69, "velocity": 88, "duration": 46}, {"note": 0, "velocity": 0, "duration": 74}, {"note": 69, "velocity": 89, "duration": 303}, {"note": 67, "velocity": 87, "duration": 152}, {"note": 0, "velocity": 0, "duration": 88}, {"note": 71, "velocity": 93, "duration": 185}, {"note": 0, "velocity": 0, "duration": 1975}, {"note": 71, "velocity": 94, "duration": 86}, {"note": 0, "velocity": 0, "duration": 154}, {"note": 71, "velocity": 98, "duration": 115}, {"note": 0, "velocity": 0, "duration": 125}, {"note": 71, "velocity": 93, "duration": 109}, {"note": 0, "velocity": 0, "duration": 131}, {"note": 74, "velocity": 100, "duration": 134}, {"note": 0, "velocity": 0, "duration": 106}, {"note": 74, "velocity": 93, "duration": 108}, {"note": 0, "velocity": 0, "duration": 132}, {"note": 74, "velocity": 93, "duration": 147}, {"note": 0, "velocity": 0, "duration": 93}, {"note": 76, "velocity": 88, "duration": 62}, {"note": 76, "velocity": 92, "duration": 150}, {"note": 0, "velocity": 0, "duration": 1350}, {"note": 71, "velocity": 100, "duration": 196}, {"note": 69, "velocity": 93, "duration": 229}, {"note": 67, "velocity": 98, "duration": 209}, {"note": 0, "velocity": 0, "duration": 511}, {"note": 67, "velocity": 91, "duration": 58}, {"note": 0, "velocity": 0, "duration": 62}, {"note": 67, "velocity": 89, "duration": 64}, {"note": 69, "velocity": 102, "duration": 113}, {"note": 0, "velocity": 0, "duration": 127}, {"note": 74, "velocity": 108, "duration": 190}, {"note": 71, "velocity": 91, "duration": 235}, {"note": 69, "velocity": 86, "duration": 222}, {"note": 67, "velocity": 88, "duration": 176}, {"note": 0, "velocity": 0, "duration": 1264}, {"note": 71, "velocity": 100, "duration": 196}, {"note": 69, "velocity": 93, "duration": 229}, {"note": 67, "velocity": 98, "duration": 209}, {"note": 0, "velocity": 0, "duration": 511}, {"note": 67, "velocity": 91, "duration": 58}, {"note": 0, "velocity": 0, "duration": 62}, {"note": 67, "velocity": 89, "duration": 64}, {"note": 69, "velocity": 102, "duration": 113}, {"note": 0, "velocity": 0, "duration": 127}, {"note": 74, "velocity": 108, "duration": 190}, {"note": 71, "velocity": 91, "duration": 235}, {"note": 69, "velocity": 86, "duration": 222}, {"note": 67, "velocity": 88, "duration": 176}]]