[[{"note": 69, "velocity": 119, "duration": 720}, {"note": 76, "velocity": 113, "duration": 239}, {"note": 76, "velocity": 114, "duration": 480}, {"note": 74, "velocity": 113, "duration": 480}, {"note": 79, "velocity": 108, "duration": 240}, {"note": 76, "velocity": 108, "duration": 480}, {"note": 74, "velocity": 110, "duration": 240}, {"note": 76, "velocity": 113, "duration": 960}, {"note": 69, "velocity": 114, "duration": 720}, {"note": 74, "velocity": 107, "duration": 239}, {"note": 74, "velocity": 113, "duration": 480}, {"note": 72, "velocity": 110, "duration": 480}, {"note": 76, "velocity": 113, "duration": 266}, {"note": 74, "velocity": 104, "duration": 240}, {"note": 67, "velocity": 98, "duration": 240}, {"note": 72, "velocity": 104, "duration": 480}, {"note": 69, "velocity": 102, "duration": 720}, {"note": 76, "velocity": 108, "duration": 720}, {"note": 81, "velocity": 113, "duration": 239}, {"note": 81, "velocity": 116, "duration": 480}, {"note": 79, "velocity": 117, "duration": 480}, {"note": 84, "velocity": 114, "duration": 240}, {"note": 81, "velocity": 107, "duration": 240}, {"note": 79, "velocity": 102, "duration": 240}, {"note": 76, "velocity": 104, "duration": 240}, {"note": 79, "velocity": 116, "duration": 720}, {"note": 76, "velocity": 104, "duration": 121}, {"note": 79, "velocity": 89, "duration": 120}, {"note": 76, "velocity": 96, "duration": 240}, {"note": 74, "velocity": 87, "duration": 239}, {"note": 74, "velocity": 89, "duration": 240}, {"note": 69, "velocity": 91, "duration": 137}, {"note": 72, "velocity": 88, "duration": 120}, {"note": 76, "velocity": 93, "duration": 240}, {"note": 74, "velocity": 91, "duration": 119}, {"note": 74, "velocity": 98, "duration": 119}, {"note": 74, "velocity": 102, "duration": 240}, {"note": 69, "velocity": 98, "duration": 240}, {"note": 76, "velocity": 110, "duration": 240}, {"note": 74, "velocity": 102, "duration": 1680}, {"note": 69, "velocity": 119, "duration": 720}, {"note": 76, "velocity": 113, "duration": 239}, {"note": 76, "velocity": 114, "duration": 480}, {"note": 74, "velocity": 113, "duration": 480}, {"note": 79, "velocity": 108, "duration": 240}, {"note": 76, "velocity": 108, "duration": 480}, {"note": 74, "velocity": 110, "duration": 240}, {"note": 76, "velocity": 113, "duration": 960}, {"note": 69, "velocity": 114, "duration": 720}, {"note": 74, "velocity": 107, "duration": 239}, {"note": 74, "velocity": 113, "duration": 480}, {"note": 72, "velocity": 110, "duration": 480}, {"note": 76, "velocity": 113, "duration": 266}, {"note": 74, "velocity": 104, "duration": 240}, {"note": 67, "velocity": 98, "duration": 240}, {"note": 72, "velocity": 104, "duration": 480}, {"note": 69, "velocity": 102, "duration": 720}, {"note": 76, "velocity": 108, "duration": 720}, {"note": 81, "velocity": 113, "duration": 239}, {"note": 81, "velocity": 116, "duration": 480}, {"note": 79, "velocity": 117, "duration": 480}, {"note": 84, "velocity": 114, "duration": 240}, {"note": 81, "velocity": 107, "duration": 240}, {"note": 79, "velocity": 102, "duration": 240}, {"note": 76, "velocity": 104, "duration": 240}, {"note": 79, "velocity": 116, "duration": 720}, {"note": 76, "velocity": 104, "duration": 121}, {"note": 79, "velocity": 89, "duration": 120}, {"note": 76, "velocity": 96, "duration": 240}, {"note": 74, "velocity": 87, "duration": 239}, {"note": 74, "velocity": 89, "duration": 240}, {"note": 69, "velocity": 91, "duration": 137}, {"note": 72, "velocity": 88, "duration": 120}, {"note": 76, "velocity": 93, "duration": 240}, {"note": 74, "velocity": 91, "duration": 120}, {"note": 72, "velocity": 98, "duration": 119}, {"note": 72, "velocity": 102, "duration": 240}, {"note": 74, "velocity": 107, "duration": 255}, {"note": 72, "velocity": 107, "duration": 1920}, {"note": 81, "velocity": 116, "duration": 240}, {"note": 83, "velocity": 116, "duration": 480}, {"note": 84, "velocity": 117, "duration": 239}, {"note": 84, "velocity": 119, "duration": 239}, {"note": 84, "velocity": 108, "duration": 240}, {"note": 83, "velocity": 116, "duration": 266}, {"note": 81, "velocity": 116, "duration": 239}, {"note": 81, "velocity": 114, "duration": 240}, {"note": 79, "velocity": 114, "duration": 480}, {"note": 76, "velocity": 117, "duration": 240}, {"note": 79, "velocity": 120, "duration": 959}, {"note": 79, "velocity": 116, "duration": 240}, {"note": 81, "velocity": 116, "duration": 239}, {"note": 81, "velocity": 116, "duration": 239}, {"note": 81, "velocity": 116, "duration": 240}, {"note": 79, "velocity": 119, "duration": 240}, {"note": 81, "velocity": 114, "duration": 240}, {"note": 72, "velocity": 113, "duration": 240}, {"note": 74, "velocity": 113, "duration": 480}, {"note": 76, "velocity": 117, "duration": 1680}, {"note": 74, "velocity": 113, "duration": 239}, {"note": 74, "velocity": 116, "duration": 480}, {"note": 76, "velocity": 117, "duration": 240}, {"note": 74, "velocity": 117, "duration": 239}, {"note": 74, "velocity": 108, "duration": 240}, {"note": 69, "velocity": 104, "duration": 244}, {"note": 72, "velocity": 104, "duration": 240}, {"note": 81, "velocity": 114, "duration": 240}, {"note": 79, "velocity": 113, "duration": 240}, {"note": 76, "velocity": 110, "duration": 240}, {"note": 79, "velocity": 117, "duration": 1200}, {"note": 81, "velocity": 116, "duration": 240}, {"note": 83, "velocity": 114, "duration": 240}, {"note": 84, "velocity": 117, "duration": 240}, {"note": 81, "velocity": 116, "duration": 240}, {"note": 84, "velocity": 117, "duration": 239}, {"note": 84, "velocity": 114, "duration": 360}, {"note": 83, "velocity": 114, "duration": 240}, {"note": 81, "velocity": 114, "duration": 120}, {"note": 83, "velocity": 114, "duration": 240}, {"note": 81, "velocity": 92, "duration": 120}, {"note": 79, "velocity": 107, "duration": 1560}, {"note": 81, "velocity": 116, "duration": 240}, {"note": 83, "velocity": 116, "duration": 480}, {"note": 84, "velocity": 117, "duration": 239}, {"note": 84, "velocity": 119, "duration": 239}, {"note": 84, "velocity": 108, "duration": 240}, {"note": 83, "velocity": 116, "duration": 266}, {"note": 81, "velocity": 116, "duration": 239}, {"note": 81, "velocity": 114, "duration": 240}, {"note": 79, "velocity": 114, "duration": 480}, {"note": 76, "velocity": 117, "duration": 480}, {"note": 79, "velocity": 120, "duration": 719}, {"note": 79, "velocity": 116, "duration": 240}, {"note": 81, "velocity": 116, "duration": 239}, {"note": 81, "velocity": 116, "duration": 239}, {"note": 81, "velocity": 116, "duration": 240}, {"note": 79, "velocity": 119, "duration": 240}, {"note": 81, "velocity": 114, "duration": 240}, {"note": 72, "velocity": 113, "duration": 240}, {"note": 74, "velocity": 113, "duration": 480}, {"note": 76, "velocity": 117, "duration": 1680}, {"note": 74, "velocity": 113, "duration": 239}, {"note": 74, "velocity": 116, "duration": 480}, {"note": 76, "velocity": 117, "duration": 240}, {"note": 74, "velocity": 117, "duration": 239}, {"note": 74, "velocity": 108, "duration": 240}, {"note": 69, "velocity": 104, "duration": 244}, {"note": 72, "velocity": 104, "duration": 240}, {"note": 81, "velocity": 114, "duration": 240}, {"note": 79, "velocity": 113, "duration": 240}, {"note": 76, "velocity": 110, "duration": 240}, {"note": 79, "velocity": 117, "duration": 1200}, {"note": 81, "velocity": 116, "duration": 240}, {"note": 83, "velocity": 114, "duration": 240}, {"note": 84, "velocity": 117, "duration": 240}, {"note": 81, "velocity": 116, "duration": 240}, {"note": 79, "velocity": 117, "duration": 720}, {"note": 76, "velocity": 117, "duration": 240}, {"note": 81, "velocity": 119, "duration": 698}, {"note": 0, "velocity": 0, "duration": 8842}, {"note": 69, "velocity": 119, "duration": 720}, {"note": 76, "velocity": 113, "duration": 239}, {"note": 76, "velocity": 114, "duration": 480}, {"note": 74, "velocity": 113, "duration": 480}, {"note": 79, "velocity": 108, "duration": 240}, {"note": 76, "velocity": 108, "duration": 480}, {"note": 74, "velocity": 110, "duration": 240}, {"note": 76, "velocity": 113, "duration": 960}, {"note": 69, "velocity": 114, "duration": 720}, {"note": 74, "velocity": 107, "duration": 239}, {"note": 74, "velocity": 113, "duration": 480}, {"note": 72, "velocity": 110, "duration": 480}, {"note": 76, "velocity": 113, "duration": 266}, {"note": 74, "velocity": 104, "duration": 240}, {"note": 67, "velocity": 98, "duration": 240}, {"note": 72, "velocity": 104, "duration": 480}, {"note": 69, "velocity": 102, "duration": 720}, {"note": 76, "velocity": 108, "duration": 720}, {"note": 81, "velocity": 113, "duration": 239}, {"note": 81, "velocity": 116, "duration": 480}, {"note": 79, "velocity": 117, "duration": 480}, {"note": 84, "velocity": 114, "duration": 240}, {"note": 81, "velocity": 107, "duration": 240}, {"note": 79, "velocity": 102, "duration": 240}, {"note": 76, "velocity": 104, "duration": 240}, {"note": 79, "velocity": 116, "duration": 720}, {"note": 76, "velocity": 104, "duration": 121}, {"note": 79, "velocity": 89, "duration": 120}, {"note": 76, "velocity": 96, "duration": 240}, {"note": 74, "velocity": 87, "duration": 239}, {"note": 74, "velocity": 89, "duration": 240}, {"note": 69, "velocity": 91, "duration": 137}, {"note": 72, "velocity": 88, "duration": 120}, {"note": 76, "velocity": 93, "duration": 240}, {"note": 74, "velocity": 91, "duration": 120}, {"note": 72, "velocity": 98, "duration": 119}, {"note": 72, "velocity": 102, "duration": 240}, {"note": 74, "velocity": 107, "duration": 255}, {"note": 72, "velocity": 107, "duration": 1815}, {"note": 0, "velocity": 0, "duration": 105}, {"note": 81, "velocity": 116, "duration": 240}, {"note": 83, "velocity": 116, "duration": 480}, {"note": 84, "velocity": 117, "duration": 239}, {"note": 84, "velocity": 119, "duration": 239}, {"note": 84, "velocity": 108, "duration": 240}, {"note": 83, "velocity": 116, "duration": 266}, {"note": 81, "velocity": 116, "duration": 239}, {"note": 81, "velocity": 114, "duration": 240}, {"note": 79, "velocity": 114, "duration": 480}, {"note": 76, "velocity": 117, "duration": 240}, {"note": 79, "velocity": 120, "duration": 959}, {"note": 79, "velocity": 116, "duration": 240}, {"note": 81, "velocity": 116, "duration": 239}, {"note": 81, "velocity": 116, "duration": 239}, {"note": 81, "velocity": 116, "duration": 240}, {"note": 79, "velocity": 119, "duration": 240}, {"note": 81, "velocity": 114, "duration": 240}, {"note": 72, "velocity": 113, "duration": 240}, {"note": 74, "velocity": 113, "duration": 480}, {"note": 76, "velocity": 117, "duration": 1680}, {"note": 74, "velocity": 113, "duration": 239}, {"note": 74, "velocity": 116, "duration": 480}, {"note": 76, "velocity": 117, "duration": 240}, {"note": 74, "velocity": 117, "duration": 239}, {"note": 74, "velocity": 108, "duration": 240}, {"note": 69, "velocity": 104, "duration": 244}, {"note": 72, "velocity": 104, "duration": 240}, {"note": 81, "velocity": 114, "duration": 240}, {"note": 79, "velocity": 113, "duration": 240}, {"note": 76, "velocity": 110, "duration": 240}, {"note": 79, "velocity": 117, "duration": 1200}, {"note": 81, "velocity": 116, "duration": 240}, {"note": 83, "velocity": 114, "duration": 240}, {"note": 84, "velocity": 117, "duration": 240}, {"note": 81, "velocity": 116, "duration": 240}, {"note": 84, "velocity": 117, "duration": 239}, {"note": 84, "velocity": 114, "duration": 360}, {"note": 83, "velocity": 114, "duration": 240}, {"note": 81, "velocity": 114, "duration": 120}, {"note": 83, "velocity": 114, "duration": 240}, {"note": 81, "velocity": 92, "duration": 120}, {"note": 79, "velocity": 107, "duration": 1560}, {"note": 81, "velocity": 116, "duration": 240}, {"note": 83, "velocity": 116, "duration": 480}, {"note": 84, "velocity": 117, "duration": 239}, {"note": 84, "velocity": 119, "duration": 239}, {"note": 84, "velocity": 108, "duration": 240}, {"note": 83, "velocity": 116, "duration": 266}, {"note": 81, "velocity": 116, "duration": 239}, {"note": 81, "velocity": 114, "duration": 240}, {"note": 79, "velocity": 114, "duration": 480}, {"note": 76, "velocity": 117, "duration": 480}, {"note": 79, "velocity": 120, "duration": 719}, {"note": 79, "velocity": 116, "duration": 240}, {"note": 81, "velocity": 116, "duration": 239}, {"note": 81, "velocity": 116, "duration": 239}, {"note": 81, "velocity": 116, "duration": 240}, {"note": 79, "velocity": 119, "duration": 240}, {"note": 81, "velocity": 114, "duration": 240}, {"note": 72, "velocity": 113, "duration": 240}, {"note": 74, "velocity": 113, "duration": 480}, {"note": 76, "velocity": 117, "duration": 1680}, {"note": 74, "velocity": 113, "duration": 239}, {"note": 74, "velocity": 116, "duration": 480}, {"note": 76, "velocity": 117, "duration": 240}, {"note": 74, "velocity": 117, "duration": 239}, {"note": 74, "velocity": 108, "duration": 240}, {"note": 69, "velocity": 104, "duration": 244}, {"note": 72, "velocity": 104, "duration": 240}, {"note": 81, "velocity": 114, "duration": 240}, {"note": 79, "velocity": 113, "duration": 240}, {"note": 76, "velocity": 110, "duration": 240}, {"note": 79, "velocity": 117, "duration": 1200}, {"note": 81, "velocity": 116, "duration": 240}, {"note": 83, "velocity": 114, "duration": 240}, {"note": 84, "velocity": 117, "duration": 240}, {"note": 81, "velocity": 116, "duration": 240}, {"note": 79, "velocity": 117, "duration": 720}, {"note": 76, "velocity": 117, "duration": 240}, {"note": 81, "velocity": 119, "duration": 771}, {"note": 0, "velocity": 0, "duration": 1149}, {"note": 81, "velocity": 116, "duration": 240}, {"note": 83, "velocity": 116, "duration": 480}, {"note": 84, "velocity": 117, "duration": 239}, {"note": 84, "velocity": 119, "duration": 239}, {"note": 84, "velocity": 108, "duration": 240}, {"note": 83, "velocity": 116, "duration": 266}, {"note": 81, "velocity": 116, "duration": 239}, {"note": 81, "velocity": 114, "duration": 240}, {"note": 79, "velocity": 114, "duration": 480}, {"note": 76, "velocity": 117, "duration": 240}, {"note": 79, "velocity": 120, "duration": 959}, {"note": 79, "velocity": 116, "duration": 240}, {"note": 81, "velocity": 116, "duration": 239}, {"note": 81, "velocity": 116, "duration": 239}, {"note": 81, "velocity": 116, "duration": 240}, {"note": 79, "velocity": 119, "duration": 240}, {"note": 81, "velocity": 114, "duration": 240}, {"note": 72, "velocity": 113, "duration": 240}, {"note": 74, "velocity": 113, "duration": 480}, {"note": 76, "velocity": 117, "duration": 1680}, {"note": 74, "velocity": 113, "duration": 239}, {"note": 74, "velocity": 116, "duration": 480}, {"note": 76, "velocity": 117, "duration": 240}, {"note": 74, "velocity": 117, "duration": 239}, {"note": 74, "velocity": 108, "duration": 240}, {"note": 69, "velocity": 104, "duration": 244}, {"note": 72, "velocity": 104, "duration": 240}, {"note": 81, "velocity": 114, "duration": 240}, {"note": 79, "velocity": 113, "duration": 240}, {"note": 76, "velocity": 110, "duration": 240}, {"note": 79, "velocity": 117, "duration": 1200}, {"note": 81, "velocity": 116, "duration": 240}, {"note": 83, "velocity": 114, "duration": 240}, {"note": 84, "velocity": 117, "duration": 240}, {"note": 81, "velocity": 116, "duration": 240}, {"note": 79, "velocity": 116, "duration": 476}, {"note": 0, "velocity": 0, "duration": 244}, {"note": 76, "velocity": 110, "duration": 240}, {"note": 81, "velocity": 117, "duration": 1980}]]