[[{"note": 58, "velocity": 104, "duration": 360}, {"note": 63, "velocity": 91, "duration": 119}, {"note": 63, "velocity": 92, "duration": 239}, {"note": 63, "velocity": 93, "duration": 119}, {"note": 63, "velocity": 90, "duration": 120}, {"note": 66, "velocity": 98, "duration": 240}, {"note": 63, "velocity": 96, "duration": 240}, {"note": 61, "velocity": 98, "duration": 240}, {"note": 58, "velocity": 98, "duration": 240}, {"note": 63, "velocity": 104, "duration": 1679}, {"note": 63, "velocity": 80, "duration": 120}, {"note": 66, "velocity": 84, "duration": 120}, {"note": 68, "velocity": 86, "duration": 359}, {"note": 68, "velocity": 83, "duration": 155}, {"note": 68, "velocity": 86, "duration": 35}, {"note": 0, "velocity": 0, "duration": 205}, {"note": 66, "velocity": 84, "duration": 240}, {"note": 68, "velocity": 87, "duration": 480}, {"note": 73, "velocity": 100, "duration": 499}, {"note": 70, "velocity": 93, "duration": 1919}, {"note": 70, "velocity": 102, "duration": 240}, {"note": 75, "velocity": 107, "duration": 239}, {"note": 75, "velocity": 102, "duration": 240}, {"note": 73, "velocity": 98, "duration": 240}, {"note": 75, "velocity": 86, "duration": 240}, {"note": 78, "velocity": 100, "duration": 242}, {"note": 75, "velocity": 98, "duration": 247}, {"note": 73, "velocity": 90, "duration": 240}, {"note": 68, "velocity": 88, "duration": 239}, {"note": 68, "velocity": 100, "duration": 239}, {"note": 68, "velocity": 89, "duration": 240}, {"note": 66, "velocity": 91, "duration": 240}, {"note": 70, "velocity": 94, "duration": 240}, {"note": 68, "velocity": 92, "duration": 479}, {"note": 68, "velocity": 88, "duration": 129}, {"note": 70, "velocity": 87, "duration": 120}, {"note": 73, "velocity": 96, "duration": 360}, {"note": 75, "velocity": 86, "duration": 120}, {"note": 73, "velocity": 94, "duration": 240}, {"note": 70, "velocity": 88, "duration": 245}, {"note": 68, "velocity": 87, "duration": 240}, {"note": 70, "velocity": 93, "duration": 247}, {"note": 68, "velocity": 89, "duration": 240}, {"note": 66, "velocity": 93, "duration": 120}, {"note": 65, "velocity": 88, "duration": 120}, {"note": 63, "velocity": 94, "duration": 1920}, {"note": 58, "velocity": 104, "duration": 360}, {"note": 63, "velocity": 91, "duration": 119}, {"note": 63, "velocity": 92, "duration": 239}, {"note": 63, "velocity": 93, "duration": 119}, {"note": 63, "velocity": 90, "duration": 120}, {"note": 66, "velocity": 98, "duration": 240}, {"note": 63, "velocity": 96, "duration": 240}, {"note": 61, "velocity": 98, "duration": 240}, {"note": 58, "velocity": 98, "duration": 240}, {"note": 63, "velocity": 104, "duration": 1679}, {"note": 63, "velocity": 80, "duration": 120}, {"note": 66, "velocity": 84, "duration": 120}, {"note": 68, "velocity": 86, "duration": 359}, {"note": 68, "velocity": 83, "duration": 155}, {"note": 68, "velocity": 86, "duration": 35}, {"note": 0, "velocity": 0, "duration": 205}, {"note": 66, "velocity": 84, "duration": 240}, {"note": 68, "velocity": 87, "duration": 480}, {"note": 73, "velocity": 100, "duration": 499}, {"note": 70, "velocity": 93, "duration": 1919}, {"note": 70, "velocity": 102, "duration": 240}, {"note": 75, "velocity": 107, "duration": 239}, {"note": 75, "velocity": 102, "duration": 240}, {"note": 73, "velocity": 98, "duration": 240}, {"note": 75, "velocity": 86, "duration": 240}, {"note": 78, "velocity": 100, "duration": 242}, {"note": 75, "velocity": 98, "duration": 247}, {"note": 73, "velocity": 90, "duration": 240}, {"note": 68, "velocity": 88, "duration": 239}, {"note": 68, "velocity": 100, "duration": 239}, {"note": 68, "velocity": 89, "duration": 240}, {"note": 66, "velocity": 91, "duration": 240}, {"note": 70, "velocity": 94, "duration": 240}, {"note": 68, "velocity": 92, "duration": 479}, {"note": 68, "velocity": 88, "duration": 129}, {"note": 70, "velocity": 87, "duration": 120}, {"note": 73, "velocity": 96, "duration": 360}, {"note": 75, "velocity": 86, "duration": 120}, {"note": 73, "velocity": 94, "duration": 240}, {"note": 70, "velocity": 88, "duration": 245}, {"note": 68, "velocity": 87, "duration": 240}, {"note": 70, "velocity": 93, "duration": 247}, {"note": 68, "velocity": 89, "duration": 240}, {"note": 66, "velocity": 93, "duration": 120}, {"note": 65, "velocity": 88, "duration": 120}, {"note": 63, "velocity": 94, "duration": 1920}, {"note": 70, "velocity": 89, "duration": 240}, {"note": 75, "velocity": 91, "duration": 119}, {"note": 75, "velocity": 92, "duration": 119}, {"note": 75, "velocity": 107, "duration": 239}, {"note": 75, "velocity": 98, "duration": 120}, {"note": 78, "velocity": 94, "duration": 120}, {"note": 77, "velocity": 110, "duration": 240}, {"note": 75, "velocity": 102, "duration": 243}, {"note": 75, "velocity": 90, "duration": 3}, {"note": 0, "velocity": 0, "duration": 237}, {"note": 73, "velocity": 92, "duration": 119}, {"note": 73, "velocity": 93, "duration": 120}, {"note": 75, "velocity": 108, "duration": 1679}, {"note": 75, "velocity": 86, "duration": 119}, {"note": 75, "velocity": 87, "duration": 120}, {"note": 77, "velocity": 104, "duration": 359}, {"note": 77, "velocity": 91, "duration": 119}, {"note": 77, "velocity": 108, "duration": 239}, {"note": 77, "velocity": 107, "duration": 120}, {"note": 75, "velocity": 93, "duration": 120}, {"note": 73, "velocity": 107, "duration": 240}, {"note": 75, "velocity": 104, "duration": 239}, {"note": 75, "velocity": 108, "duration": 240}, {"note": 68, "velocity": 108, "duration": 240}, {"note": 70, "velocity": 104, "duration": 1919}, {"note": 70, "velocity": 102, "duration": 240}, {"note": 75, "velocity": 113, "duration": 480}, {"note": 77, "velocity": 110, "duration": 240}, {"note": 75, "velocity": 108, "duration": 239}, {"note": 78, "velocity": 83, "duration": 120}, {"note": 0, "velocity": 0, "duration": 120}, {"note": 75, "velocity": 86, "duration": 240}, {"note": 70, "velocity": 87, "duration": 122}, {"note": 70, "velocity": 85, "duration": 2}, {"note": 0, "velocity": 0, "duration": 118}, {"note": 68, "velocity": 86, "duration": 240}, {"note": 66, "velocity": 98, "duration": 480}, {"note": 70, "velocity": 96, "duration": 240}, {"note": 68, "velocity": 91, "duration": 840}, {"note": 70, "velocity": 89, "duration": 120}, {"note": 73, "velocity": 104, "duration": 360}, {"note": 75, "velocity": 100, "duration": 120}, {"note": 73, "velocity": 102, "duration": 240}, {"note": 70, "velocity": 108, "duration": 240}, {"note": 68, "velocity": 100, "duration": 239}, {"note": 68, "velocity": 89, "duration": 120}, {"note": 70, "velocity": 88, "duration": 120}, {"note": 65, "velocity": 89, "duration": 240}, {"note": 61, "velocity": 88, "duration": 120}, {"note": 65, "velocity": 84, "duration": 120}, {"note": 63, "velocity": 91, "duration": 1920}, {"note": 70, "velocity": 89, "duration": 240}, {"note": 75, "velocity": 91, "duration": 119}, {"note": 75, "velocity": 92, "duration": 119}, {"note": 75, "velocity": 107, "duration": 239}, {"note": 75, "velocity": 98, "duration": 120}, {"note": 78, "velocity": 94, "duration": 120}, {"note": 77, "velocity": 110, "duration": 240}, {"note": 75, "velocity": 102, "duration": 239}, {"note": 75, "velocity": 90, "duration": 240}, {"note": 73, "velocity": 92, "duration": 119}, {"note": 73, "velocity": 93, "duration": 120}, {"note": 75, "velocity": 108, "duration": 1679}, {"note": 75, "velocity": 86, "duration": 119}, {"note": 75, "velocity": 87, "duration": 120}, {"note": 77, "velocity": 104, "duration": 359}, {"note": 77, "velocity": 91, "duration": 119}, {"note": 77, "velocity": 108, "duration": 239}, {"note": 77, "velocity": 107, "duration": 120}, {"note": 75, "velocity": 93, "duration": 120}, {"note": 73, "velocity": 107, "duration": 240}, {"note": 75, "velocity": 104, "duration": 239}, {"note": 75, "velocity": 108, "duration": 240}, {"note": 68, "velocity": 108, "duration": 240}, {"note": 70, "velocity": 104, "duration": 1919}, {"note": 70, "velocity": 102, "duration": 240}, {"note": 75, "velocity": 113, "duration": 224}, {"note": 75, "velocity": 97, "duration": 204}, {"note": 77, "velocity": 110, "duration": 240}, {"note": 75, "velocity": 108, "duration": 239}, {"note": 78, "velocity": 85, "duration": 194}, {"note": 73, "velocity": 86, "duration": 240}, {"note": 70, "velocity": 87, "duration": 219}, {"note": 68, "velocity": 86, "duration": 240}, {"note": 66, "velocity": 98, "duration": 480}, {"note": 70, "velocity": 96, "duration": 240}, {"note": 68, "velocity": 91, "duration": 840}, {"note": 70, "velocity": 89, "duration": 120}, {"note": 73, "velocity": 104, "duration": 360}, {"note": 75, "velocity": 100, "duration": 120}, {"note": 73, "velocity": 102, "duration": 240}, {"note": 70, "velocity": 108, "duration": 240}, {"note": 68, "velocity": 100, "duration": 239}, {"note": 68, "velocity": 89, "duration": 120}, {"note": 70, "velocity": 88, "duration": 120}, {"note": 65, "velocity": 89, "duration": 240}, {"note": 61, "velocity": 88, "duration": 120}, {"note": 65, "velocity": 84, "duration": 120}, {"note": 63, "velocity": 91, "duration": 1920}, {"note": 0, "velocity": 0, "duration": 15360}, {"note": 58, "velocity": 104, "duration": 360}, {"note": 63, "velocity": 91, "duration": 119}, {"note": 63, "velocity": 92, "duration": 239}, {"note": 63, "velocity": 93, "duration": 119}, {"note": 63, "velocity": 90, "duration": 120}, {"note": 66, "velocity": 98, "duration": 240}, {"note": 63, "velocity": 96, "duration": 240}, {"note": 61, "velocity": 98, "duration": 240}, {"note": 58, "velocity": 98, "duration": 240}, {"note": 63, "velocity": 104, "duration": 1679}, {"note": 63, "velocity": 80, "duration": 120}, {"note": 66, "velocity": 84, "duration": 120}, {"note": 68, "velocity": 86, "duration": 359}, {"note": 68, "velocity": 83, "duration": 119}, {"note": 68, "velocity": 83, "duration": 240}, {"note": 66, "velocity": 84, "duration": 240}, {"note": 68, "velocity": 87, "duration": 480}, {"note": 73, "velocity": 100, "duration": 499}, {"note": 70, "velocity": 93, "duration": 1919}, {"note": 70, "velocity": 102, "duration": 240}, {"note": 75, "velocity": 107, "duration": 239}, {"note": 75, "velocity": 102, "duration": 240}, {"note": 73, "velocity": 98, "duration": 240}, {"note": 75, "velocity": 86, "duration": 240}, {"note": 78, "velocity": 100, "duration": 242}, {"note": 75, "velocity": 98, "duration": 247}, {"note": 73, "velocity": 90, "duration": 240}, {"note": 68, "velocity": 88, "duration": 239}, {"note": 68, "velocity": 100, "duration": 239}, {"note": 68, "velocity": 89, "duration": 240}, {"note": 66, "velocity": 91, "duration": 240}, {"note": 70, "velocity": 94, "duration": 240}, {"note": 68, "velocity": 92, "duration": 479}, {"note": 68, "velocity": 88, "duration": 129}, {"note": 70, "velocity": 87, "duration": 120}, {"note": 73, "velocity": 96, "duration": 360}, {"note": 75, "velocity": 86, "duration": 120}, {"note": 73, "velocity": 94, "duration": 240}, {"note": 70, "velocity": 88, "duration": 245}, {"note": 68, "velocity": 87, "duration": 240}, {"note": 70, "velocity": 93, "duration": 247}, {"note": 68, "velocity": 89, "duration": 240}, {"note": 66, "velocity": 93, "duration": 120}, {"note": 65, "velocity": 88, "duration": 120}, {"note": 63, "velocity": 94, "duration": 1920}, {"note": 70, "velocity": 104, "duration": 240}, {"note": 75, "velocity": 91, "duration": 119}, {"note": 75, "velocity": 91, "duration": 119}, {"note": 75, "velocity": 92, "duration": 239}, {"note": 75, "velocity": 93, "duration": 120}, {"note": 78, "velocity": 98, "duration": 120}, {"note": 77, "velocity": 98, "duration": 240}, {"note": 75, "velocity": 96, "duration": 239}, {"note": 75, "velocity": 98, "duration": 240}, {"note": 73, "velocity": 98, "duration": 119}, {"note": 73, "velocity": 98, "duration": 120}, {"note": 75, "velocity": 104, "duration": 1679}, {"note": 75, "velocity": 80, "duration": 119}, {"note": 75, "velocity": 84, "duration": 120}, {"note": 77, "velocity": 86, "duration": 359}, {"note": 77, "velocity": 83, "duration": 119}, {"note": 77, "velocity": 86, "duration": 239}, {"note": 77, "velocity": 84, "duration": 120}, {"note": 75, "velocity": 84, "duration": 120}, {"note": 73, "velocity": 97, "duration": 240}, {"note": 75, "velocity": 97, "duration": 239}, {"note": 75, "velocity": 97, "duration": 240}, {"note": 68, "velocity": 97, "duration": 240}, {"note": 70, "velocity": 97, "duration": 1919}, {"note": 70, "velocity": 102, "duration": 240}, {"note": 75, "velocity": 107, "duration": 239}, {"note": 75, "velocity": 102, "duration": 240}, {"note": 78, "velocity": 98, "duration": 240}, {"note": 75, "velocity": 86, "duration": 240}, {"note": 77, "velocity": 100, "duration": 121}, {"note": 75, "velocity": 100, "duration": 121}, {"note": 73, "velocity": 98, "duration": 239}, {"note": 73, "velocity": 90, "duration": 120}, {"note": 70, "velocity": 90, "duration": 120}, {"note": 68, "velocity": 88, "duration": 240}, {"note": 66, "velocity": 100, "duration": 480}, {"note": 70, "velocity": 91, "duration": 240}, {"note": 68, "velocity": 94, "duration": 719}, {"note": 68, "velocity": 88, "duration": 129}, {"note": 70, "velocity": 87, "duration": 120}, {"note": 73, "velocity": 96, "duration": 360}, {"note": 75, "velocity": 86, "duration": 120}, {"note": 73, "velocity": 94, "duration": 240}, {"note": 70, "velocity": 88, "duration": 245}, {"note": 68, "velocity": 87, "duration": 240}, {"note": 70, "velocity": 93, "duration": 247}, {"note": 68, "velocity": 89, "duration": 240}, {"note": 61, "velocity": 93, "duration": 120}, {"note": 65, "velocity": 88, "duration": 120}, {"note": 63, "velocity": 94, "duration": 1920}, {"note": 70, "velocity": 89, "duration": 240}, {"note": 75, "velocity": 91, "duration": 119}, {"note": 75, "velocity": 92, "duration": 119}, {"note": 75, "velocity": 107, "duration": 239}, {"note": 75, "velocity": 98, "duration": 120}, {"note": 78, "velocity": 94, "duration": 120}, {"note": 77, "velocity": 110, "duration": 240}, {"note": 75, "velocity": 102, "duration": 239}, {"note": 75, "velocity": 90, "duration": 240}, {"note": 73, "velocity": 92, "duration": 119}, {"note": 73, "velocity": 93, "duration": 120}, {"note": 75, "velocity": 108, "duration": 1679}, {"note": 75, "velocity": 86, "duration": 119}, {"note": 75, "velocity": 87, "duration": 120}, {"note": 77, "velocity": 104, "duration": 359}, {"note": 77, "velocity": 91, "duration": 119}, {"note": 77, "velocity": 108, "duration": 239}, {"note": 77, "velocity": 107, "duration": 120}, {"note": 75, "velocity": 93, "duration": 120}, {"note": 73, "velocity": 107, "duration": 240}, {"note": 75, "velocity": 104, "duration": 239}, {"note": 75, "velocity": 108, "duration": 240}, {"note": 68, "velocity": 108, "duration": 240}, {"note": 70, "velocity": 104, "duration": 1920}, {"note": 70, "velocity": 102, "duration": 240}, {"note": 75, "velocity": 113, "duration": 239}, {"note": 75, "velocity": 113, "duration": 240}, {"note": 78, "velocity": 110, "duration": 240}, {"note": 75, "velocity": 108, "duration": 240}, {"note": 78, "velocity": 83, "duration": 120}, {"note": 75, "velocity": 85, "duration": 129}, {"note": 73, "velocity": 86, "duration": 240}, {"note": 70, "velocity": 88, "duration": 240}, {"note": 68, "velocity": 86, "duration": 240}, {"note": 66, "velocity": 98, "duration": 480}, {"note": 70, "velocity": 96, "duration": 240}, {"note": 68, "velocity": 91, "duration": 840}, {"note": 63, "velocity": 89, "duration": 120}, {"note": 73, "velocity": 104, "duration": 360}, {"note": 75, "velocity": 100, "duration": 120}, {"note": 73, "velocity": 102, "duration": 239}, {"note": 73, "velocity": 108, "duration": 120}, {"note": 70, "velocity": 108, "duration": 120}, {"note": 68, "velocity": 100, "duration": 239}, {"note": 68, "velocity": 89, "duration": 120}, {"note": 70, "velocity": 88, "duration": 120}, {"note": 61, "velocity": 89, "duration": 240}, {"note": 65, "velocity": 88, "duration": 240}, {"note": 63, "velocity": 91, "duration": 1920}, {"note": 70, "velocity": 102, "duration": 240}, {"note": 75, "velocity": 113, "duration": 239}, {"note": 75, "velocity": 113, "duration": 240}, {"note": 78, "velocity": 110, "duration": 240}, {"note": 75, "velocity": 108, "duration": 240}, {"note": 78, "velocity": 83, "duration": 120}, {"note": 75, "velocity": 85, "duration": 129}, {"note": 73, "velocity": 86, "duration": 240}, {"note": 70, "velocity": 88, "duration": 240}, {"note": 68, "velocity": 86, "duration": 240}, {"note": 66, "velocity": 98, "duration": 480}, {"note": 70, "velocity": 96, "duration": 240}, {"note": 68, "velocity": 91, "duration": 840}, {"note": 63, "velocity": 89, "duration": 120}, {"note": 73, "velocity": 104, "duration": 360}, {"note": 75, "velocity": 100, "duration": 120}, {"note": 73, "velocity": 102, "duration": 239}, {"note": 73, "velocity": 108, "duration": 120}, {"note": 70, "velocity": 108, "duration": 120}, {"note": 68, "velocity": 100, "duration": 239}, {"note": 68, "velocity": 89, "duration": 240}, {"note": 61, "velocity": 89, "duration": 240}, {"note": 65, "velocity": 88, "duration": 240}, {"note": 63, "velocity": 91, "duration": 1920}, {"note": 70, "velocity": 107, "duration": 240}, {"note": 73, "velocity": 108, "duration": 239}, {"note": 73, "velocity": 104, "duration": 243}, {"note": 70, "velocity": 102, "duration": 240}, {"note": 68, "velocity": 107, "duration": 240}, {"note": 66, "velocity": 107, "duration": 480}, {"note": 61, "velocity": 102, "duration": 240}, {"note": 63, "velocity": 98, "duration": 1072}]]