[[{"note": 71, "velocity": 93, "duration": 142}, {"note": 0, "velocity": 0, "duration": 98}, {"note": 71, "velocity": 102, "duration": 142}, {"note": 0, "velocity": 0, "duration": 98}, {"note": 74, "velocity": 90, "duration": 126}, {"note": 0, "velocity": 0, "duration": 114}, {"note": 74, "velocity": 91, "duration": 166}, {"note": 0, "velocity": 0, "duration": 74}, {"note": 76, "velocity": 88, "duration": 58}, {"note": 0, "velocity": 0, "duration": 62}, {"note": 76, "velocity": 92, "duration": 168}, {"note": 0, "velocity": 0, "duration": 192}, {"note": 67, "velocity": 93, "duration": 120}, {"note": 0, "velocity": 0, "duration": 120}, {"note": 71, "velocity": 94, "duration": 163}, {"note": 0, "velocity": 0, "duration": 77}, {"note": 69, "velocity": 89, "duration": 181}, {"note": 69, "velocity": 93, "duration": 207}, {"note": 67, "velocity": 89, "duration": 177}, {"note": 0, "velocity": 0, "duration": 63}, {"note": 69, "velocity": 88, "duration": 147}, {"note": 0, "velocity": 0, "duration": 93}, {"note": 71, "velocity": 93, "duration": 120}, {"note": 71, "velocity": 92, "duration": 144}, {"note": 0, "velocity": 0, "duration": 696}, {"note": 71, "velocity": 93, "duration": 150}, {"note": 0, "velocity": 0, "duration": 90}, {"note": 71, "velocity": 96, "duration": 196}, {"note": 74, "velocity": 91, "duration": 156}, {"note": 0, "velocity": 0, "duration": 84}, {"note": 74, "velocity": 90, "duration": 172}, {"note": 0, "velocity": 0, "duration": 68}, {"note": 76, "velocity": 88, "duration": 70}, {"note": 76, "velocity": 88, "duration": 143}, {"note": 0, "velocity": 0, "duration": 337}, {"note": 67, "velocity": 84, "duration": 79}, {"note": 71, "velocity": 88, "duration": 145}, {"note": 0, "velocity": 0, "duration": 95}, {"note": 69, "velocity": 87, "duration": 117}, {"note": 0, "velocity": 0, "duration": 123}, {"note": 69, "velocity": 89, "duration": 176}, {"note": 0, "velocity": 0, "duration": 64}, {"note": 67, "velocity": 86, "duration": 61}, {"note": 67, "velocity": 86, "duration": 305}, {"note": 0, "velocity": 0, "duration": 1015}, {"note": 71, "velocity": 88, "duration": 131}, {"note": 0, "velocity": 0, "duration": 109}, {"note": 71, "velocity": 89, "duration": 148}, {"note": 0, "velocity": 0, "duration": 92}, {"note": 74, "velocity": 86, "duration": 128}, {"note": 0, "velocity": 0, "duration": 112}, {"note": 74, "velocity": 84, "duration": 166}, {"note": 0, "velocity": 0, "duration": 74}, {"note": 76, "velocity": 86, "duration": 53}, {"note": 0, "velocity": 0, "duration": 67}, {"note": 76, "velocity": 88, "duration": 308}, {"note": 0, "velocity": 0, "duration": 172}, {"note": 67, "velocity": 84, "duration": 82}, {"note": 71, "velocity": 90, "duration": 169}, {"note": 0, "velocity": 0, "duration": 71}, {"note": 69, "velocity": 85, "duration": 134}, {"note": 0, "velocity": 0, "duration": 106}, {"note": 69, "velocity": 86, "duration": 169}, {"note": 0, "velocity": 0, "duration": 71}, {"note": 72, "velocity": 87, "duration": 68}, {"note": 0, "velocity": 0, "duration": 412}, {"note": 71, "velocity": 92, "duration": 352}, {"note": 0, "velocity": 0, "duration": 608}, {"note": 71, "velocity": 100, "duration": 157}, {"note": 0, "velocity": 0, "duration": 83}, {"note": 71, "velocity": 93, "duration": 156}, {"note": 0, "velocity": 0, "duration": 84}, {"note": 74, "velocity": 87, "duration": 135}, {"note": 0, "velocity": 0, "duration": 105}, {"note": 74, "velocity": 88, "duration": 174}, {"note": 0, "velocity": 0, "duration": 66}, {"note": 76, "velocity": 87, "duration": 64}, {"note": 76, "velocity": 91, "duration": 158}, {"note": 0, "velocity": 0, "duration": 322}, {"note": 67, "velocity": 81, "duration": 77}, {"note": 71, "velocity": 86, "duration": 183}, {"note": 69, "velocity": 85, "duration": 134}, {"note": 0, "velocity": 0, "duration": 106}, {"note": 69, "velocity": 86, "duration": 155}, {"note": 0, "velocity": 0, "duration": 85}, {"note": 67, "velocity": 81, "duration": 84}, {"note": 69, "velocity": 85, "duration": 284}, {"note": 67, "velocity": 85, "duration": 236}, {"note": 0, "velocity": 0, "duration": 364}, {"note": 67, "velocity": 107, "duration": 182}, {"note": 76, "velocity": 113, "duration": 357}, {"note": 0, "velocity": 0, "duration": 123}, {"note": 79, "velocity": 113, "duration": 385}, {"note": 0, "velocity": 0, "duration": 95}, {"note": 78, "velocity": 113, "duration": 214}, {"note": 76, "velocity": 88, "duration": 118}, {"note": 74, "velocity": 93, "duration": 174}, {"note": 0, "velocity": 0, "duration": 306}, {"note": 71, "velocity": 98, "duration": 112}, {"note": 72, "velocity": 102, "duration": 251}, {"note": 71, "velocity": 100, "duration": 240}, {"note": 69, "velocity": 100, "duration": 238}, {"note": 67, "velocity": 88, "duration": 90}, {"note": 71, "velocity": 108, "duration": 186}, {"note": 0, "velocity": 0, "duration": 414}, {"note": 71, "velocity": 107, "duration": 240}, {"note": 69, "velocity": 94, "duration": 231}, {"note": 67, "velocity": 94, "duration": 309}, {"note": 0, "velocity": 0, "duration": 171}, {"note": 79, "velocity": 114, "duration": 392}, {"note": 0, "velocity": 0, "duration": 88}, {"note": 81, "velocity": 113, "duration": 197}, {"note": 78, "velocity": 97, "duration": 117}, {"note": 74, "velocity": 107, "duration": 186}, {"note": 0, "velocity": 0, "duration": 174}, {"note": 72, "velocity": 91, "duration": 103}, {"note": 71, "velocity": 88, "duration": 196}, {"note": 79, "velocity": 104, "duration": 201}, {"note": 0, "velocity": 0, "duration": 399}, {"note": 76, "velocity": 102, "duration": 135}, {"note": 78, "velocity": 89, "duration": 77}, {"note": 79, "velocity": 113, "duration": 273}, {"note": 0, "velocity": 0, "duration": 207}, {"note": 79, "velocity": 110, "duration": 168}, {"note": 0, "velocity": 0, "duration": 72}, {"note": 81, "velocity": 108, "duration": 60}, {"note": 81, "velocity": 114, "duration": 206}, {"note": 0, "velocity": 0, "duration": 1354}, {"note": 79, "velocity": 114, "duration": 268}, {"note": 78, "velocity": 113, "duration": 199}, {"note": 76, "velocity": 107, "duration": 231}, {"note": 71, "velocity": 107, "duration": 199}, {"note": 76, "velocity": 107, "duration": 119}, {"note": 0, "velocity": 0, "duration": 121}, {"note": 83, "velocity": 114, "duration": 168}, {"note": 0, "velocity": 0, "duration": 72}, {"note": 81, "velocity": 114, "duration": 184}, {"note": 79, "velocity": 96, "duration": 88}, {"note": 81, "velocity": 107, "duration": 159}, {"note": 0, "velocity": 0, "duration": 441}, {"note": 78, "velocity": 119, "duration": 218}, {"note": 74, "velocity": 114, "duration": 184}, {"note": 78, "velocity": 116, "duration": 130}, {"note": 0, "velocity": 0, "duration": 110}, {"note": 81, "velocity": 113, "duration": 60}, {"note": 81, "velocity": 102, "duration": 174}, {"note": 0, "velocity": 0, "duration": 66}, {"note": 79, "velocity": 102, "duration": 151}, {"note": 0, "velocity": 0, "duration": 209}, {"note": 79, "velocity": 114, "duration": 229}, {"note": 78, "velocity": 113, "duration": 207}, {"note": 76, "velocity": 107, "duration": 234}, {"note": 71, "velocity": 102, "duration": 120}, {"note": 76, "velocity": 113, "duration": 162}, {"note": 0, "velocity": 0, "duration": 198}, {"note": 83, "velocity": 110, "duration": 189}, {"note": 81, "velocity": 107, "duration": 217}, {"note": 79, "velocity": 100, "duration": 86}, {"note": 81, "velocity": 113, "duration": 206}, {"note": 0, "velocity": 0, "duration": 154}, {"note": 74, "velocity": 113, "duration": 163}, {"note": 0, "velocity": 0, "duration": 77}, {"note": 83, "velocity": 110, "duration": 120}, {"note": 0, "velocity": 0, "duration": 1320}, {"note": 79, "velocity": 114, "duration": 268}, {"note": 78, "velocity": 113, "duration": 199}, {"note": 76, "velocity": 107, "duration": 231}, {"note": 71, "velocity": 107, "duration": 199}, {"note": 76, "velocity": 107, "duration": 119}, {"note": 0, "velocity": 0, "duration": 121}, {"note": 83, "velocity": 114, "duration": 168}, {"note": 0, "velocity": 0, "duration": 72}, {"note": 81, "velocity": 114, "duration": 184}, {"note": 79, "velocity": 96, "duration": 88}, {"note": 81, "velocity": 107, "duration": 159}, {"note": 0, "velocity": 0, "duration": 441}, {"note": 83, "velocity": 113, "duration": 121}, {"note": 0, "velocity": 0, "duration": 119}, {"note": 86, "velocity": 113, "duration": 99}, {"note": 0, "velocity": 0, "duration": 141}, {"note": 86, "velocity": 110, "duration": 129}, {"note": 0, "velocity": 0, "duration": 111}, {"note": 78, "velocity": 103, "duration": 51}, {"note": 0, "velocity": 0, "duration": 69}, {"note": 81, "velocity": 108, "duration": 135}, {"note": 0, "velocity": 0, "duration": 105}, {"note": 79, "velocity": 114, "duration": 131}, {"note": 0, "velocity": 0, "duration": 229}, {"note": 79, "velocity": 116, "duration": 197}, {"note": 78, "velocity": 109, "duration": 152}, {"note": 0, "velocity": 0, "duration": 88}, {"note": 76, "velocity": 116, "duration": 153}, {"note": 0, "velocity": 0, "duration": 567}, {"note": 83, "velocity": 116, "duration": 147}, {"note": 0, "velocity": 0, "duration": 93}, {"note": 81, "velocity": 116, "duration": 164}, {"note": 0, "velocity": 0, "duration": 316}, {"note": 78, "velocity": 119, "duration": 215}, {"note": 74, "velocity": 114, "duration": 102}, {"note": 76, "velocity": 117, "duration": 351}, {"note": 0, "velocity": 0, "duration": 9609}, {"note": 71, "velocity": 93, "duration": 142}, {"note": 0, "velocity": 0, "duration": 98}, {"note": 71, "velocity": 102, "duration": 142}, {"note": 0, "velocity": 0, "duration": 98}, {"note": 74, "velocity": 90, "duration": 126}, {"note": 0, "velocity": 0, "duration": 114}, {"note": 74, "velocity": 91, "duration": 166}, {"note": 0, "velocity": 0, "duration": 74}, {"note": 76, "velocity": 88, "duration": 58}, {"note": 0, "velocity": 0, "duration": 62}, {"note": 76, "velocity": 92, "duration": 168}, {"note": 0, "velocity": 0, "duration": 192}, {"note": 67, "velocity": 93, "duration": 120}, {"note": 0, "velocity": 0, "duration": 120}, {"note": 71, "velocity": 94, "duration": 163}, {"note": 0, "velocity": 0, "duration": 77}, {"note": 69, "velocity": 89, "duration": 181}, {"note": 69, "velocity": 93, "duration": 207}, {"note": 67, "velocity": 89, "duration": 177}, {"note": 0, "velocity": 0, "duration": 63}, {"note": 69, "velocity": 88, "duration": 147}, {"note": 0, "velocity": 0, "duration": 93}, {"note": 71, "velocity": 93, "duration": 120}, {"note": 71, "velocity": 92, "duration": 144}, {"note": 0, "velocity": 0, "duration": 696}, {"note": 71, "velocity": 93, "duration": 150}, {"note": 0, "velocity": 0, "duration": 90}, {"note": 71, "velocity": 96, "duration": 196}, {"note": 74, "velocity": 91, "duration": 156}, {"note": 0, "velocity": 0, "duration": 84}, {"note": 74, "velocity": 90, "duration": 172}, {"note": 0, "velocity": 0, "duration": 68}, {"note": 76, "velocity": 88, "duration": 70}, {"note": 76, "velocity": 88, "duration": 143}, {"note": 0, "velocity": 0, "duration": 337}, {"note": 67, "velocity": 84, "duration": 79}, {"note": 71, "velocity": 88, "duration": 145}, {"note": 0, "velocity": 0, "duration": 95}, {"note": 69, "velocity": 87, "duration": 117}, {"note": 0, "velocity": 0, "duration": 123}, {"note": 69, "velocity": 89, "duration": 176}, {"note": 0, "velocity": 0, "duration": 64}, {"note": 67, "velocity": 86, "duration": 61}, {"note": 67, "velocity": 86, "duration": 167}, {"note": 0, "velocity": 0, "duration": 1153}, {"note": 71, "velocity": 88, "duration": 131}, {"note": 0, "velocity": 0, "duration": 109}, {"note": 71, "velocity": 89, "duration": 148}, {"note": 0, "velocity": 0, "duration": 92}, {"note": 74, "velocity": 86, "duration": 128}, {"note": 0, "velocity": 0, "duration": 112}, {"note": 74, "velocity": 84, "duration": 166}, {"note": 0, "velocity": 0, "duration": 74}, {"note": 76, "velocity": 86, "duration": 53}, {"note": 0, "velocity": 0, "duration": 67}, {"note": 76, "velocity": 88, "duration": 166}, {"note": 0, "velocity": 0, "duration": 314}, {"note": 67, "velocity": 84, "duration": 82}, {"note": 71, "velocity": 90, "duration": 169}, {"note": 0, "velocity": 0, "duration": 71}, {"note": 69, "velocity": 85, "duration": 134}, {"note": 0, "velocity": 0, "duration": 106}, {"note": 69, "velocity": 86, "duration": 169}, {"note": 0, "velocity": 0, "duration": 71}, {"note": 72, "velocity": 87, "duration": 68}, {"note": 0, "velocity": 0, "duration": 412}, {"note": 71, "velocity": 92, "duration": 209}, {"note": 0, "velocity": 0, "duration": 751}, {"note": 71, "velocity": 100, "duration": 157}, {"note": 0, "velocity": 0, "duration": 83}, {"note": 71, "velocity": 93, "duration": 156}, {"note": 0, "velocity": 0, "duration": 84}, {"note": 74, "velocity": 87, "duration": 135}, {"note": 0, "velocity": 0, "duration": 105}, {"note": 74, "velocity": 88, "duration": 174}, {"note": 0, "velocity": 0, "duration": 66}, {"note": 76, "velocity": 87, "duration": 64}, {"note": 76, "velocity": 91, "duration": 158}, {"note": 0, "velocity": 0, "duration": 322}, {"note": 67, "velocity": 81, "duration": 77}, {"note": 71, "velocity": 86, "duration": 183}, {"note": 69, "velocity": 85, "duration": 134}, {"note": 0, "velocity": 0, "duration": 106}, {"note": 69, "velocity": 86, "duration": 155}, {"note": 0, "velocity": 0, "duration": 85}, {"note": 67, "velocity": 81, "duration": 84}, {"note": 69, "velocity": 85, "duration": 284}, {"note": 67, "velocity": 85, "duration": 236}, {"note": 0, "velocity": 0, "duration": 364}, {"note": 67, "velocity": 107, "duration": 182}, {"note": 76, "velocity": 113, "duration": 357}, {"note": 0, "velocity": 0, "duration": 123}, {"note": 79, "velocity": 113, "duration": 385}, {"note": 0, "velocity": 0, "duration": 95}, {"note": 78, "velocity": 113, "duration": 214}, {"note": 76, "velocity": 88, "duration": 118}, {"note": 74, "velocity": 93, "duration": 174}, {"note": 0, "velocity": 0, "duration": 306}, {"note": 71, "velocity": 98, "duration": 112}, {"note": 72, "velocity": 102, "duration": 251}, {"note": 71, "velocity": 100, "duration": 240}, {"note": 69, "velocity": 100, "duration": 238}, {"note": 67, "velocity": 88, "duration": 90}, {"note": 71, "velocity": 108, "duration": 186}, {"note": 0, "velocity": 0, "duration": 414}, {"note": 71, "velocity": 107, "duration": 240}, {"note": 69, "velocity": 94, "duration": 231}, {"note": 67, "velocity": 94, "duration": 309}, {"note": 0, "velocity": 0, "duration": 171}, {"note": 79, "velocity": 114, "duration": 392}, {"note": 0, "velocity": 0, "duration": 88}, {"note": 81, "velocity": 113, "duration": 197}, {"note": 78, "velocity": 97, "duration": 117}, {"note": 74, "velocity": 107, "duration": 186}, {"note": 0, "velocity": 0, "duration": 174}, {"note": 72, "velocity": 91, "duration": 103}, {"note": 71, "velocity": 88, "duration": 196}, {"note": 79, "velocity": 104, "duration": 201}, {"note": 0, "velocity": 0, "duration": 399}, {"note": 76, "velocity": 102, "duration": 135}, {"note": 78, "velocity": 89, "duration": 77}, {"note": 79, "velocity": 113, "duration": 273}, {"note": 0, "velocity": 0, "duration": 207}, {"note": 79, "velocity": 110, "duration": 168}, {"note": 0, "velocity": 0, "duration": 72}, {"note": 81, "velocity": 108, "duration": 60}, {"note": 81, "velocity": 114, "duration": 206}, {"note": 0, "velocity": 0, "duration": 1354}, {"note": 79, "velocity": 114, "duration": 268}, {"note": 78, "velocity": 113, "duration": 199}, {"note": 76, "velocity": 107, "duration": 231}, {"note": 71, "velocity": 107, "duration": 199}, {"note": 76, "velocity": 107, "duration": 119}, {"note": 0, "velocity": 0, "duration": 121}, {"note": 83, "velocity": 114, "duration": 168}, {"note": 0, "velocity": 0, "duration": 72}, {"note": 81, "velocity": 114, "duration": 184}, {"note": 79, "velocity": 96, "duration": 88}, {"note": 81, "velocity": 107, "duration": 159}, {"note": 0, "velocity": 0, "duration": 441}, {"note": 78, "velocity": 119, "duration": 218}, {"note": 74, "velocity": 114, "duration": 184}, {"note": 78, "velocity": 116, "duration": 130}, {"note": 0, "velocity": 0, "duration": 110}, {"note": 81, "velocity": 113, "duration": 60}, {"note": 81, "velocity": 102, "duration": 174}, {"note": 0, "velocity": 0, "duration": 66}, {"note": 79, "velocity": 102, "duration": 151}, {"note": 0, "velocity": 0, "duration": 209}, {"note": 79, "velocity": 114, "duration": 229}, {"note": 78, "velocity": 113, "duration": 207}, {"note": 76, "velocity": 107, "duration": 234}, {"note": 71, "velocity": 102, "duration": 120}, {"note": 76, "velocity": 113, "duration": 162}, {"note": 0, "velocity": 0, "duration": 198}, {"note": 83, "velocity": 110, "duration": 189}, {"note": 81, "velocity": 107, "duration": 217}, {"note": 79, "velocity": 100, "duration": 86}, {"note": 81, "velocity": 113, "duration": 206}, {"note": 0, "velocity": 0, "duration": 154}, {"note": 74, "velocity": 113, "duration": 163}, {"note": 0, "velocity": 0, "duration": 77}, {"note": 83, "velocity": 110, "duration": 120}, {"note": 0, "velocity": 0, "duration": 1320}, {"note": 79, "velocity": 114, "duration": 268}, {"note": 78, "velocity": 113, "duration": 199}, {"note": 76, "velocity": 107, "duration": 231}, {"note": 71, "velocity": 107, "duration": 199}, {"note": 76, "velocity": 107, "duration": 119}, {"note": 0, "velocity": 0, "duration": 121}, {"note": 83, "velocity": 114, "duration": 168}, {"note": 0, "velocity": 0, "duration": 72}, {"note": 81, "velocity": 114, "duration": 184}, {"note": 79, "velocity": 96, "duration": 88}, {"note": 81, "velocity": 107, "duration": 159}, {"note": 0, "velocity": 0, "duration": 441}, {"note": 83, "velocity": 113, "duration": 121}, {"note": 0, "velocity": 0, "duration": 119}, {"note": 86, "velocity": 113, "duration": 99}, {"note": 0, "velocity": 0, "duration": 141}, {"note": 86, "velocity": 110, "duration": 129}, {"note": 0, "velocity": 0, "duration": 111}, {"note": 78, "velocity": 103, "duration": 51}, {"note": 0, "velocity": 0, "duration": 69}, {"note": 81, "velocity": 108, "duration": 135}, {"note": 0, "velocity": 0, "duration": 105}, {"note": 79, "velocity": 114, "duration": 131}, {"note": 0, "velocity": 0, "duration": 229}, {"note": 79, "velocity": 116, "duration": 197}, {"note": 78, "velocity": 109, "duration": 152}, {"note": 0, "velocity": 0, "duration": 88}, {"note": 76, "velocity": 116, "duration": 153}, {"note": 0, "velocity": 0, "duration": 567}, {"note": 83, "velocity": 116, "duration": 147}, {"note": 0, "velocity": 0, "duration": 93}, {"note": 81, "velocity": 116, "duration": 164}, {"note": 0, "velocity": 0, "duration": 316}, {"note": 78, "velocity": 119, "duration": 215}, {"note": 74, "velocity": 114, "duration": 102}, {"note": 76, "velocity": 117, "duration": 351}, {"note": 0, "velocity": 0, "duration": 1209}, {"note": 79, "velocity": 114, "duration": 268}, {"note": 78, "velocity": 113, "duration": 199}, {"note": 76, "velocity": 107, "duration": 231}, {"note": 71, "velocity": 107, "duration": 199}, {"note": 76, "velocity": 107, "duration": 119}, {"note": 0, "velocity": 0, "duration": 121}, {"note": 83, "velocity": 114, "duration": 168}, {"note": 0, "velocity": 0, "duration": 72}, {"note": 81, "velocity": 114, "duration": 184}, {"note": 79, "velocity": 96, "duration": 88}, {"note": 81, "velocity": 107, "duration": 159}, {"note": 0, "velocity": 0, "duration": 441}, {"note": 78, "velocity": 119, "duration": 218}, {"note": 74, "velocity": 114, "duration": 184}, {"note": 78, "velocity": 116, "duration": 130}, {"note": 0, "velocity": 0, "duration": 110}, {"note": 81, "velocity": 113, "duration": 60}, {"note": 81, "velocity": 102, "duration": 174}, {"note": 0, "velocity": 0, "duration": 66}, {"note": 79, "velocity": 102, "duration": 151}, {"note": 0, "velocity": 0, "duration": 209}, {"note": 79, "velocity": 114, "duration": 229}, {"note": 78, "velocity": 113, "duration": 207}, {"note": 76, "velocity": 107, "duration": 234}, {"note": 71, "velocity": 102, "duration": 120}, {"note": 76, "velocity": 113, "duration": 162}, {"note": 0, "velocity": 0, "duration": 198}, {"note": 83, "velocity": 110, "duration": 189}, {"note": 81, "velocity": 107, "duration": 217}, {"note": 79, "velocity": 100, "duration": 86}, {"note": 81, "velocity": 113, "duration": 206}, {"note": 0, "velocity": 0, "duration": 154}, {"note": 74, "velocity": 113, "duration": 163}, {"note": 0, "velocity": 0, "duration": 77}, {"note": 83, "velocity": 110, "duration": 120}, {"note": 0, "velocity": 0, "duration": 1320}, {"note": 79, "velocity": 114, "duration": 268}, {"note": 78, "velocity": 113, "duration": 199}, {"note": 76, "velocity": 107, "duration": 231}, {"note": 71, "velocity": 107, "duration": 199}, {"note": 76, "velocity": 107, "duration": 119}, {"note": 0, "velocity": 0, "duration": 121}, {"note": 83, "velocity": 114, "duration": 168}, {"note": 0, "velocity": 0, "duration": 72}, {"note": 81, "velocity": 114, "duration": 184}, {"note": 79, "velocity": 96, "duration": 88}, {"note": 81, "velocity": 107, "duration": 159}, {"note": 0, "velocity": 0, "duration": 441}, {"note": 83, "velocity": 113, "duration": 121}, {"note": 0, "velocity": 0, "duration": 119}, {"note": 86, "velocity": 113, "duration": 99}, {"note": 0, "velocity": 0, "duration": 141}, {"note": 86, "velocity": 110, "duration": 129}, {"note": 0, "velocity": 0, "duration": 111}, {"note": 78, "velocity": 103, "duration": 51}, {"note": 0, "velocity": 0, "duration": 69}, {"note": 81, "velocity": 108, "duration": 135}, {"note": 0, "velocity": 0, "duration": 105}, {"note": 79, "velocity": 114, "duration": 131}, {"note": 0, "velocity": 0, "duration": 229}, {"note": 79, "velocity": 116, "duration": 197}, {"note": 78, "velocity": 109, "duration": 152}, {"note": 0, "velocity": 0, "duration": 88}, {"note": 76, "velocity": 116, "duration": 153}, {"note": 0, "velocity": 0, "duration": 567}, {"note": 83, "velocity": 116, "duration": 147}, {"note": 0, "velocity": 0, "duration": 93}, {"note": 81, "velocity": 116, "duration": 164}, {"note": 0, "velocity": 0, "duration": 316}, {"note": 78, "velocity": 119, "duration": 215}, {"note": 74, "velocity": 114, "duration": 102}, {"note": 76, "velocity": 117, "duration": 351}]]