[[{"note": 69, "velocity": 107, "duration": 239}, {"note": 69, "velocity": 104, "duration": 119}, {"note": 69, "velocity": 93, "duration": 120}, {"note": 72, "velocity": 104, "duration": 240}, {"note": 69, "velocity": 102, "duration": 240}, {"note": 67, "velocity": 100, "duration": 480}, {"note": 65, "velocity": 98, "duration": 240}, {"note": 67, "velocity": 108, "duration": 240}, {"note": 65, "velocity": 113, "duration": 240}, {"note": 62, "velocity": 113, "duration": 1680}, {"note": 69, "velocity": 114, "duration": 239}, {"note": 69, "velocity": 113, "duration": 239}, {"note": 69, "velocity": 114, "duration": 240}, {"note": 72, "velocity": 108, "duration": 240}, {"note": 74, "velocity": 116, "duration": 240}, {"note": 77, "velocity": 113, "duration": 480}, {"note": 74, "velocity": 114, "duration": 269}, {"note": 72, "velocity": 108, "duration": 240}, {"note": 69, "velocity": 107, "duration": 1679}, {"note": 69, "velocity": 114, "duration": 240}, {"note": 74, "velocity": 110, "duration": 480}, {"note": 77, "velocity": 108, "duration": 240}, {"note": 74, "velocity": 110, "duration": 480}, {"note": 72, "velocity": 107, "duration": 240}, {"note": 69, "velocity": 96, "duration": 240}, {"note": 65, "velocity": 96, "duration": 360}, {"note": 67, "velocity": 100, "duration": 120}, {"note": 69, "velocity": 114, "duration": 240}, {"note": 67, "velocity": 100, "duration": 239}, {"note": 67, "velocity": 107, "duration": 959}, {"note": 67, "velocity": 107, "duration": 360}, {"note": 69, "velocity": 104, "duration": 120}, {"note": 72, "velocity": 107, "duration": 240}, {"note": 69, "velocity": 107, "duration": 240}, {"note": 67, "velocity": 108, "duration": 239}, {"note": 67, "velocity": 96, "duration": 134}, {"note": 69, "velocity": 92, "duration": 120}, {"note": 65, "velocity": 100, "duration": 251}, {"note": 67, "velocity": 87, "duration": 134}, {"note": 65, "velocity": 91, "duration": 120}, {"note": 62, "velocity": 94, "duration": 1920}, {"note": 69, "velocity": 107, "duration": 239}, {"note": 69, "velocity": 104, "duration": 119}, {"note": 69, "velocity": 93, "duration": 120}, {"note": 72, "velocity": 104, "duration": 240}, {"note": 69, "velocity": 102, "duration": 240}, {"note": 67, "velocity": 100, "duration": 480}, {"note": 65, "velocity": 98, "duration": 240}, {"note": 67, "velocity": 108, "duration": 240}, {"note": 65, "velocity": 113, "duration": 240}, {"note": 62, "velocity": 113, "duration": 1680}, {"note": 69, "velocity": 114, "duration": 239}, {"note": 69, "velocity": 113, "duration": 239}, {"note": 69, "velocity": 114, "duration": 240}, {"note": 72, "velocity": 108, "duration": 240}, {"note": 74, "velocity": 116, "duration": 240}, {"note": 77, "velocity": 113, "duration": 480}, {"note": 74, "velocity": 114, "duration": 269}, {"note": 72, "velocity": 108, "duration": 240}, {"note": 69, "velocity": 107, "duration": 1679}, {"note": 69, "velocity": 114, "duration": 240}, {"note": 74, "velocity": 110, "duration": 480}, {"note": 77, "velocity": 108, "duration": 240}, {"note": 74, "velocity": 110, "duration": 480}, {"note": 72, "velocity": 107, "duration": 240}, {"note": 69, "velocity": 96, "duration": 240}, {"note": 65, "velocity": 96, "duration": 360}, {"note": 67, "velocity": 100, "duration": 120}, {"note": 69, "velocity": 114, "duration": 240}, {"note": 67, "velocity": 100, "duration": 239}, {"note": 67, "velocity": 107, "duration": 959}, {"note": 67, "velocity": 107, "duration": 360}, {"note": 69, "velocity": 104, "duration": 120}, {"note": 72, "velocity": 107, "duration": 240}, {"note": 69, "velocity": 107, "duration": 240}, {"note": 67, "velocity": 108, "duration": 239}, {"note": 67, "velocity": 96, "duration": 134}, {"note": 69, "velocity": 92, "duration": 120}, {"note": 65, "velocity": 100, "duration": 251}, {"note": 67, "velocity": 87, "duration": 134}, {"note": 65, "velocity": 91, "duration": 120}, {"note": 62, "velocity": 94, "duration": 1920}, {"note": 74, "velocity": 116, "duration": 359}, {"note": 74, "velocity": 116, "duration": 360}, {"note": 69, "velocity": 98, "duration": 240}, {"note": 72, "velocity": 104, "duration": 240}, {"note": 74, "velocity": 110, "duration": 240}, {"note": 79, "velocity": 114, "duration": 240}, {"note": 77, "velocity": 108, "duration": 240}, {"note": 74, "velocity": 108, "duration": 1919}, {"note": 74, "velocity": 104, "duration": 359}, {"note": 74, "velocity": 96, "duration": 119}, {"note": 74, "velocity": 102, "duration": 240}, {"note": 77, "velocity": 113, "duration": 240}, {"note": 74, "velocity": 110, "duration": 239}, {"note": 74, "velocity": 113, "duration": 240}, {"note": 72, "velocity": 107, "duration": 240}, {"note": 74, "velocity": 110, "duration": 240}, {"note": 69, "velocity": 98, "duration": 150}, {"note": 72, "velocity": 88, "duration": 120}, {"note": 69, "velocity": 89, "duration": 1679}, {"note": 69, "velocity": 114, "duration": 240}, {"note": 74, "velocity": 113, "duration": 480}, {"note": 77, "velocity": 110, "duration": 240}, {"note": 74, "velocity": 110, "duration": 240}, {"note": 77, "velocity": 87, "duration": 138}, {"note": 74, "velocity": 84, "duration": 135}, {"note": 72, "velocity": 89, "duration": 240}, {"note": 69, "velocity": 102, "duration": 124}, {"note": 67, "velocity": 87, "duration": 124}, {"note": 65, "velocity": 98, "duration": 360}, {"note": 67, "velocity": 88, "duration": 152}, {"note": 69, "velocity": 100, "duration": 240}, {"note": 67, "velocity": 100, "duration": 239}, {"note": 67, "velocity": 107, "duration": 959}, {"note": 67, "velocity": 107, "duration": 360}, {"note": 69, "velocity": 102, "duration": 120}, {"note": 72, "velocity": 102, "duration": 240}, {"note": 69, "velocity": 108, "duration": 240}, {"note": 67, "velocity": 108, "duration": 239}, {"note": 67, "velocity": 85, "duration": 120}, {"note": 69, "velocity": 86, "duration": 124}, {"note": 65, "velocity": 88, "duration": 240}, {"note": 67, "velocity": 89, "duration": 120}, {"note": 65, "velocity": 84, "duration": 123}, {"note": 62, "velocity": 89, "duration": 1920}, {"note": 74, "velocity": 116, "duration": 359}, {"note": 74, "velocity": 116, "duration": 360}, {"note": 69, "velocity": 98, "duration": 240}, {"note": 72, "velocity": 104, "duration": 240}, {"note": 74, "velocity": 110, "duration": 240}, {"note": 79, "velocity": 114, "duration": 240}, {"note": 77, "velocity": 108, "duration": 240}, {"note": 74, "velocity": 108, "duration": 1919}, {"note": 74, "velocity": 104, "duration": 359}, {"note": 74, "velocity": 96, "duration": 119}, {"note": 74, "velocity": 102, "duration": 240}, {"note": 77, "velocity": 113, "duration": 240}, {"note": 74, "velocity": 110, "duration": 239}, {"note": 74, "velocity": 113, "duration": 240}, {"note": 72, "velocity": 107, "duration": 240}, {"note": 74, "velocity": 110, "duration": 240}, {"note": 69, "velocity": 98, "duration": 150}, {"note": 72, "velocity": 88, "duration": 120}, {"note": 69, "velocity": 89, "duration": 1679}, {"note": 69, "velocity": 114, "duration": 240}, {"note": 74, "velocity": 113, "duration": 480}, {"note": 77, "velocity": 110, "duration": 240}, {"note": 74, "velocity": 110, "duration": 240}, {"note": 77, "velocity": 87, "duration": 138}, {"note": 74, "velocity": 84, "duration": 135}, {"note": 72, "velocity": 89, "duration": 240}, {"note": 69, "velocity": 102, "duration": 124}, {"note": 67, "velocity": 87, "duration": 124}, {"note": 65, "velocity": 98, "duration": 360}, {"note": 67, "velocity": 88, "duration": 152}, {"note": 69, "velocity": 100, "duration": 240}, {"note": 67, "velocity": 100, "duration": 239}, {"note": 67, "velocity": 107, "duration": 959}, {"note": 67, "velocity": 107, "duration": 360}, {"note": 69, "velocity": 102, "duration": 120}, {"note": 72, "velocity": 102, "duration": 240}, {"note": 69, "velocity": 108, "duration": 240}, {"note": 67, "velocity": 108, "duration": 239}, {"note": 67, "velocity": 85, "duration": 120}, {"note": 69, "velocity": 86, "duration": 124}, {"note": 65, "velocity": 88, "duration": 240}, {"note": 67, "velocity": 89, "duration": 120}, {"note": 65, "velocity": 84, "duration": 123}, {"note": 62, "velocity": 89, "duration": 1920}, {"note": 67, "velocity": 104, "duration": 360}, {"note": 65, "velocity": 108, "duration": 143}, {"note": 67, "velocity": 108, "duration": 240}, {"note": 69, "velocity": 108, "duration": 240}, {"note": 72, "velocity": 110, "duration": 239}, {"note": 72, "velocity": 108, "duration": 240}, {"note": 69, "velocity": 96, "duration": 240}, {"note": 72, "velocity": 104, "duration": 240}, {"note": 74, "velocity": 110, "duration": 1920}, {"note": 0, "velocity": 0, "duration": 15360}, {"note": 69, "velocity": 107, "duration": 239}, {"note": 69, "velocity": 104, "duration": 119}, {"note": 69, "velocity": 93, "duration": 120}, {"note": 72, "velocity": 104, "duration": 240}, {"note": 69, "velocity": 102, "duration": 240}, {"note": 67, "velocity": 100, "duration": 480}, {"note": 65, "velocity": 98, "duration": 240}, {"note": 67, "velocity": 108, "duration": 240}, {"note": 65, "velocity": 113, "duration": 240}, {"note": 62, "velocity": 113, "duration": 1680}, {"note": 69, "velocity": 114, "duration": 239}, {"note": 69, "velocity": 113, "duration": 239}, {"note": 69, "velocity": 114, "duration": 240}, {"note": 72, "velocity": 108, "duration": 240}, {"note": 74, "velocity": 116, "duration": 240}, {"note": 77, "velocity": 113, "duration": 480}, {"note": 74, "velocity": 114, "duration": 269}, {"note": 72, "velocity": 108, "duration": 240}, {"note": 69, "velocity": 107, "duration": 1679}, {"note": 69, "velocity": 114, "duration": 240}, {"note": 74, "velocity": 110, "duration": 480}, {"note": 77, "velocity": 108, "duration": 240}, {"note": 74, "velocity": 110, "duration": 480}, {"note": 72, "velocity": 107, "duration": 240}, {"note": 69, "velocity": 96, "duration": 240}, {"note": 65, "velocity": 96, "duration": 360}, {"note": 67, "velocity": 100, "duration": 120}, {"note": 69, "velocity": 114, "duration": 240}, {"note": 67, "velocity": 100, "duration": 239}, {"note": 67, "velocity": 107, "duration": 959}, {"note": 67, "velocity": 107, "duration": 360}, {"note": 69, "velocity": 104, "duration": 120}, {"note": 72, "velocity": 107, "duration": 240}, {"note": 69, "velocity": 107, "duration": 240}, {"note": 67, "velocity": 108, "duration": 239}, {"note": 67, "velocity": 96, "duration": 134}, {"note": 69, "velocity": 92, "duration": 120}, {"note": 65, "velocity": 100, "duration": 251}, {"note": 67, "velocity": 87, "duration": 134}, {"note": 65, "velocity": 91, "duration": 120}, {"note": 62, "velocity": 94, "duration": 1920}, {"note": 74, "velocity": 116, "duration": 359}, {"note": 74, "velocity": 116, "duration": 360}, {"note": 69, "velocity": 98, "duration": 240}, {"note": 72, "velocity": 104, "duration": 240}, {"note": 74, "velocity": 110, "duration": 240}, {"note": 79, "velocity": 114, "duration": 240}, {"note": 77, "velocity": 108, "duration": 240}, {"note": 74, "velocity": 108, "duration": 1919}, {"note": 74, "velocity": 104, "duration": 359}, {"note": 74, "velocity": 96, "duration": 119}, {"note": 74, "velocity": 102, "duration": 240}, {"note": 77, "velocity": 113, "duration": 240}, {"note": 74, "velocity": 110, "duration": 239}, {"note": 74, "velocity": 113, "duration": 240}, {"note": 72, "velocity": 107, "duration": 240}, {"note": 74, "velocity": 110, "duration": 240}, {"note": 69, "velocity": 98, "duration": 150}, {"note": 72, "velocity": 88, "duration": 120}, {"note": 69, "velocity": 89, "duration": 1679}, {"note": 69, "velocity": 114, "duration": 240}, {"note": 74, "velocity": 113, "duration": 480}, {"note": 77, "velocity": 110, "duration": 240}, {"note": 74, "velocity": 110, "duration": 240}, {"note": 77, "velocity": 87, "duration": 138}, {"note": 74, "velocity": 84, "duration": 135}, {"note": 72, "velocity": 89, "duration": 240}, {"note": 69, "velocity": 102, "duration": 124}, {"note": 67, "velocity": 87, "duration": 124}, {"note": 65, "velocity": 98, "duration": 360}, {"note": 67, "velocity": 88, "duration": 152}, {"note": 69, "velocity": 100, "duration": 240}, {"note": 67, "velocity": 100, "duration": 239}, {"note": 67, "velocity": 107, "duration": 959}, {"note": 67, "velocity": 107, "duration": 360}, {"note": 69, "velocity": 102, "duration": 120}, {"note": 72, "velocity": 102, "duration": 240}, {"note": 69, "velocity": 108, "duration": 240}, {"note": 67, "velocity": 108, "duration": 239}, {"note": 67, "velocity": 85, "duration": 120}, {"note": 69, "velocity": 86, "duration": 124}, {"note": 65, "velocity": 88, "duration": 240}, {"note": 67, "velocity": 89, "duration": 120}, {"note": 65, "velocity": 84, "duration": 123}, {"note": 62, "velocity": 89, "duration": 1920}, {"note": 74, "velocity": 116, "duration": 359}, {"note": 74, "velocity": 116, "duration": 360}, {"note": 69, "velocity": 98, "duration": 240}, {"note": 72, "velocity": 104, "duration": 240}, {"note": 74, "velocity": 110, "duration": 240}, {"note": 79, "velocity": 114, "duration": 240}, {"note": 77, "velocity": 108, "duration": 240}, {"note": 74, "velocity": 108, "duration": 1919}, {"note": 74, "velocity": 104, "duration": 359}, {"note": 74, "velocity": 96, "duration": 119}, {"note": 74, "velocity": 102, "duration": 240}, {"note": 77, "velocity": 113, "duration": 240}, {"note": 74, "velocity": 110, "duration": 239}, {"note": 74, "velocity": 113, "duration": 240}, {"note": 72, "velocity": 107, "duration": 240}, {"note": 74, "velocity": 110, "duration": 240}, {"note": 69, "velocity": 98, "duration": 150}, {"note": 72, "velocity": 88, "duration": 120}, {"note": 69, "velocity": 89, "duration": 1679}, {"note": 69, "velocity": 114, "duration": 240}, {"note": 74, "velocity": 113, "duration": 480}, {"note": 77, "velocity": 110, "duration": 240}, {"note": 74, "velocity": 110, "duration": 240}, {"note": 77, "velocity": 87, "duration": 138}, {"note": 74, "velocity": 84, "duration": 135}, {"note": 72, "velocity": 89, "duration": 240}, {"note": 69, "velocity": 102, "duration": 124}, {"note": 67, "velocity": 87, "duration": 124}, {"note": 65, "velocity": 98, "duration": 360}, {"note": 67, "velocity": 88, "duration": 152}, {"note": 69, "velocity": 100, "duration": 240}, {"note": 67, "velocity": 100, "duration": 239}, {"note": 67, "velocity": 107, "duration": 959}, {"note": 67, "velocity": 107, "duration": 360}, {"note": 69, "velocity": 102, "duration": 120}, {"note": 72, "velocity": 102, "duration": 240}, {"note": 69, "velocity": 108, "duration": 240}, {"note": 67, "velocity": 108, "duration": 239}, {"note": 67, "velocity": 85, "duration": 120}, {"note": 69, "velocity": 86, "duration": 124}, {"note": 65, "velocity": 88, "duration": 240}, {"note": 67, "velocity": 89, "duration": 120}, {"note": 65, "velocity": 84, "duration": 123}, {"note": 62, "velocity": 89, "duration": 1920}, {"note": 67, "velocity": 104, "duration": 360}, {"note": 65, "velocity": 108, "duration": 143}, {"note": 67, "velocity": 108, "duration": 240}, {"note": 69, "velocity": 108, "duration": 240}, {"note": 72, "velocity": 110, "duration": 239}, {"note": 72, "velocity": 108, "duration": 240}, {"note": 69, "velocity": 96, "duration": 240}, {"note": 72, "velocity": 104, "duration": 240}, {"note": 74, "velocity": 110, "duration": 1920}, {"note": 67, "velocity": 100, "duration": 353}, {"note": 65, "velocity": 84, "duration": 166}, {"note": 67, "velocity": 91, "duration": 240}, {"note": 69, "velocity": 88, "duration": 252}, {"note": 72, "velocity": 83, "duration": 176}, {"note": 0, "velocity": 0, "duration": 94}, {"note": 72, "velocity": 86, "duration": 261}, {"note": 69, "velocity": 84, "duration": 273}, {"note": 72, "velocity": 87, "duration": 495}, {"note": 74, "velocity": 87, "duration": 809}]]