[[{"note": 63, "velocity": 114, "duration": 240}, {"note": 61, "velocity": 90, "duration": 269}, {"note": 63, "velocity": 102, "duration": 240}, {"note": 61, "velocity": 87, "duration": 286}, {"note": 63, "velocity": 93, "duration": 240}, {"note": 66, "velocity": 102, "duration": 239}, {"note": 66, "velocity": 107, "duration": 2160}, {"note": 56, "velocity": 104, "duration": 240}, {"note": 59, "velocity": 114, "duration": 720}, {"note": 61, "velocity": 113, "duration": 480}, {"note": 59, "velocity": 114, "duration": 2399}, {"note": 59, "velocity": 92, "duration": 239}, {"note": 59, "velocity": 102, "duration": 240}, {"note": 61, "velocity": 102, "duration": 240}, {"note": 63, "velocity": 104, "duration": 240}, {"note": 59, "velocity": 100, "duration": 960}, {"note": 56, "velocity": 91, "duration": 250}, {"note": 59, "velocity": 96, "duration": 261}, {"note": 61, "velocity": 96, "duration": 248}, {"note": 63, "velocity": 91, "duration": 254}, {"note": 59, "velocity": 94, "duration": 720}, {"note": 56, "velocity": 92, "duration": 480}, {"note": 61, "velocity": 91, "duration": 720}, {"note": 63, "velocity": 108, "duration": 2880}, {"note": 54, "velocity": 114, "duration": 240}, {"note": 63, "velocity": 114, "duration": 240}, {"note": 61, "velocity": 90, "duration": 299}, {"note": 63, "velocity": 107, "duration": 250}, {"note": 61, "velocity": 91, "duration": 240}, {"note": 63, "velocity": 94, "duration": 240}, {"note": 66, "velocity": 110, "duration": 239}, {"note": 66, "velocity": 114, "duration": 2160}, {"note": 54, "velocity": 91, "duration": 240}, {"note": 59, "velocity": 108, "duration": 720}, {"note": 61, "velocity": 113, "duration": 480}, {"note": 59, "velocity": 102, "duration": 2399}, {"note": 59, "velocity": 87, "duration": 239}, {"note": 59, "velocity": 102, "duration": 240}, {"note": 61, "velocity": 87, "duration": 258}, {"note": 63, "velocity": 90, "duration": 243}, {"note": 59, "velocity": 88, "duration": 960}, {"note": 54, "velocity": 93, "duration": 240}, {"note": 59, "velocity": 107, "duration": 245}, {"note": 61, "velocity": 94, "duration": 240}, {"note": 63, "velocity": 93, "duration": 268}, {"note": 59, "velocity": 98, "duration": 480}, {"note": 54, "velocity": 104, "duration": 480}, {"note": 66, "velocity": 96, "duration": 480}, {"note": 63, "velocity": 96, "duration": 1200}, {"note": 64, "velocity": 107, "duration": 480}, {"note": 66, "velocity": 113, "duration": 719}, {"note": 66, "velocity": 110, "duration": 240}, {"note": 75, "velocity": 114, "duration": 360}, {"note": 73, "velocity": 110, "duration": 360}, {"note": 71, "velocity": 113, "duration": 479}, {"note": 71, "velocity": 117, "duration": 479}, {"note": 71, "velocity": 110, "duration": 479}, {"note": 71, "velocity": 102, "duration": 240}, {"note": 68, "velocity": 94, "duration": 240}, {"note": 66, "velocity": 90, "duration": 240}, {"note": 78, "velocity": 113, "duration": 360}, {"note": 80, "velocity": 119, "duration": 359}, {"note": 80, "velocity": 120, "duration": 720}, {"note": 71, "velocity": 117, "duration": 240}, {"note": 73, "velocity": 110, "duration": 240}, {"note": 75, "velocity": 117, "duration": 240}, {"note": 78, "velocity": 119, "duration": 479}, {"note": 78, "velocity": 119, "duration": 480}, {"note": 71, "velocity": 119, "duration": 480}, {"note": 73, "velocity": 119, "duration": 2640}, {"note": 71, "velocity": 117, "duration": 239}, {"note": 71, "velocity": 110, "duration": 239}, {"note": 71, "velocity": 114, "duration": 239}, {"note": 71, "velocity": 116, "duration": 240}, {"note": 68, "velocity": 113, "duration": 240}, {"note": 66, "velocity": 110, "duration": 240}, {"note": 78, "velocity": 120, "duration": 360}, {"note": 80, "velocity": 120, "duration": 359}, {"note": 80, "velocity": 120, "duration": 480}, {"note": 71, "velocity": 110, "duration": 239}, {"note": 71, "velocity": 113, "duration": 240}, {"note": 73, "velocity": 107, "duration": 240}, {"note": 75, "velocity": 117, "duration": 240}, {"note": 78, "velocity": 116, "duration": 480}, {"note": 71, "velocity": 96, "duration": 240}, {"note": 78, "velocity": 114, "duration": 240}, {"note": 75, "velocity": 108, "duration": 240}, {"note": 73, "velocity": 107, "duration": 239}, {"note": 73, "velocity": 117, "duration": 1200}, {"note": 75, "velocity": 117, "duration": 240}, {"note": 73, "velocity": 116, "duration": 480}, {"note": 71, "velocity": 117, "duration": 719}, {"note": 71, "velocity": 114, "duration": 479}, {"note": 71, "velocity": 116, "duration": 239}, {"note": 71, "velocity": 110, "duration": 240}, {"note": 68, "velocity": 104, "duration": 240}, {"note": 66, "velocity": 113, "duration": 240}, {"note": 78, "velocity": 119, "duration": 240}, {"note": 80, "velocity": 119, "duration": 960}, {"note": 71, "velocity": 113, "duration": 239}, {"note": 71, "velocity": 114, "duration": 240}, {"note": 73, "velocity": 110, "duration": 240}, {"note": 75, "velocity": 117, "duration": 240}, {"note": 78, "velocity": 119, "duration": 479}, {"note": 78, "velocity": 119, "duration": 239}, {"note": 78, "velocity": 119, "duration": 480}, {"note": 71, "velocity": 114, "duration": 240}, {"note": 73, "velocity": 117, "duration": 1439}, {"note": 73, "velocity": 116, "duration": 240}, {"note": 75, "velocity": 108, "duration": 240}, {"note": 71, "velocity": 108, "duration": 719}, {"note": 71, "velocity": 119, "duration": 239}, {"note": 71, "velocity": 113, "duration": 239}, {"note": 71, "velocity": 117, "duration": 720}, {"note": 68, "velocity": 107, "duration": 240}, {"note": 78, "velocity": 117, "duration": 240}, {"note": 80, "velocity": 116, "duration": 479}, {"note": 80, "velocity": 119, "duration": 720}, {"note": 71, "velocity": 113, "duration": 240}, {"note": 75, "velocity": 114, "duration": 480}, {"note": 78, "velocity": 117, "duration": 479}, {"note": 78, "velocity": 119, "duration": 480}, {"note": 75, "velocity": 117, "duration": 480}, {"note": 73, "velocity": 119, "duration": 2160}, {"note": 0, "velocity": 0, "duration": 7680}, {"note": 63, "velocity": 114, "duration": 240}, {"note": 61, "velocity": 90, "duration": 269}, {"note": 63, "velocity": 102, "duration": 240}, {"note": 61, "velocity": 87, "duration": 286}, {"note": 63, "velocity": 93, "duration": 240}, {"note": 66, "velocity": 102, "duration": 239}, {"note": 66, "velocity": 107, "duration": 2160}, {"note": 56, "velocity": 104, "duration": 240}, {"note": 59, "velocity": 114, "duration": 720}, {"note": 61, "velocity": 113, "duration": 480}, {"note": 59, "velocity": 114, "duration": 2399}, {"note": 59, "velocity": 92, "duration": 239}, {"note": 59, "velocity": 102, "duration": 240}, {"note": 61, "velocity": 102, "duration": 240}, {"note": 63, "velocity": 104, "duration": 240}, {"note": 59, "velocity": 100, "duration": 960}, {"note": 56, "velocity": 91, "duration": 250}, {"note": 59, "velocity": 96, "duration": 261}, {"note": 61, "velocity": 96, "duration": 248}, {"note": 63, "velocity": 91, "duration": 254}, {"note": 59, "velocity": 94, "duration": 720}, {"note": 56, "velocity": 92, "duration": 480}, {"note": 61, "velocity": 91, "duration": 720}, {"note": 63, "velocity": 108, "duration": 2880}, {"note": 54, "velocity": 114, "duration": 240}, {"note": 63, "velocity": 114, "duration": 240}, {"note": 61, "velocity": 90, "duration": 299}, {"note": 63, "velocity": 107, "duration": 250}, {"note": 61, "velocity": 91, "duration": 240}, {"note": 63, "velocity": 94, "duration": 240}, {"note": 66, "velocity": 110, "duration": 239}, {"note": 66, "velocity": 114, "duration": 2160}, {"note": 54, "velocity": 91, "duration": 240}, {"note": 59, "velocity": 108, "duration": 720}, {"note": 61, "velocity": 113, "duration": 480}, {"note": 59, "velocity": 102, "duration": 2399}, {"note": 59, "velocity": 87, "duration": 239}, {"note": 59, "velocity": 102, "duration": 240}, {"note": 61, "velocity": 87, "duration": 258}, {"note": 63, "velocity": 90, "duration": 243}, {"note": 59, "velocity": 88, "duration": 960}, {"note": 54, "velocity": 93, "duration": 240}, {"note": 59, "velocity": 107, "duration": 245}, {"note": 61, "velocity": 94, "duration": 240}, {"note": 63, "velocity": 93, "duration": 268}, {"note": 59, "velocity": 98, "duration": 480}, {"note": 66, "velocity": 104, "duration": 480}, {"note": 63, "velocity": 96, "duration": 2880}, {"note": 66, "velocity": 110, "duration": 240}, {"note": 75, "velocity": 114, "duration": 360}, {"note": 73, "velocity": 110, "duration": 360}, {"note": 71, "velocity": 113, "duration": 479}, {"note": 71, "velocity": 117, "duration": 479}, {"note": 71, "velocity": 110, "duration": 479}, {"note": 71, "velocity": 102, "duration": 240}, {"note": 68, "velocity": 94, "duration": 240}, {"note": 66, "velocity": 90, "duration": 240}, {"note": 78, "velocity": 113, "duration": 360}, {"note": 80, "velocity": 119, "duration": 359}, {"note": 80, "velocity": 120, "duration": 720}, {"note": 71, "velocity": 117, "duration": 240}, {"note": 73, "velocity": 110, "duration": 240}, {"note": 75, "velocity": 117, "duration": 240}, {"note": 78, "velocity": 119, "duration": 479}, {"note": 78, "velocity": 119, "duration": 239}, {"note": 78, "velocity": 119, "duration": 240}, {"note": 71, "velocity": 119, "duration": 480}, {"note": 73, "velocity": 119, "duration": 2640}, {"note": 71, "velocity": 117, "duration": 239}, {"note": 71, "velocity": 110, "duration": 239}, {"note": 71, "velocity": 114, "duration": 239}, {"note": 71, "velocity": 116, "duration": 240}, {"note": 68, "velocity": 113, "duration": 240}, {"note": 66, "velocity": 110, "duration": 240}, {"note": 78, "velocity": 120, "duration": 360}, {"note": 80, "velocity": 120, "duration": 359}, {"note": 80, "velocity": 120, "duration": 480}, {"note": 71, "velocity": 110, "duration": 239}, {"note": 71, "velocity": 113, "duration": 240}, {"note": 73, "velocity": 107, "duration": 240}, {"note": 75, "velocity": 117, "duration": 240}, {"note": 78, "velocity": 116, "duration": 480}, {"note": 71, "velocity": 96, "duration": 240}, {"note": 78, "velocity": 114, "duration": 240}, {"note": 75, "velocity": 108, "duration": 240}, {"note": 73, "velocity": 107, "duration": 239}, {"note": 73, "velocity": 117, "duration": 1200}, {"note": 75, "velocity": 117, "duration": 240}, {"note": 73, "velocity": 116, "duration": 480}, {"note": 71, "velocity": 117, "duration": 719}, {"note": 71, "velocity": 114, "duration": 479}, {"note": 71, "velocity": 116, "duration": 239}, {"note": 71, "velocity": 110, "duration": 240}, {"note": 68, "velocity": 104, "duration": 240}, {"note": 66, "velocity": 113, "duration": 240}, {"note": 78, "velocity": 119, "duration": 240}, {"note": 80, "velocity": 119, "duration": 960}, {"note": 71, "velocity": 113, "duration": 239}, {"note": 71, "velocity": 114, "duration": 240}, {"note": 73, "velocity": 110, "duration": 240}, {"note": 75, "velocity": 117, "duration": 240}, {"note": 78, "velocity": 119, "duration": 479}, {"note": 78, "velocity": 119, "duration": 239}, {"note": 78, "velocity": 119, "duration": 480}, {"note": 71, "velocity": 114, "duration": 240}, {"note": 73, "velocity": 117, "duration": 1439}, {"note": 73, "velocity": 116, "duration": 240}, {"note": 75, "velocity": 108, "duration": 240}, {"note": 71, "velocity": 108, "duration": 719}, {"note": 71, "velocity": 119, "duration": 239}, {"note": 71, "velocity": 113, "duration": 239}, {"note": 71, "velocity": 117, "duration": 720}, {"note": 68, "velocity": 107, "duration": 240}, {"note": 78, "velocity": 117, "duration": 240}, {"note": 80, "velocity": 116, "duration": 479}, {"note": 80, "velocity": 119, "duration": 720}, {"note": 71, "velocity": 113, "duration": 240}, {"note": 75, "velocity": 114, "duration": 480}, {"note": 78, "velocity": 117, "duration": 479}, {"note": 78, "velocity": 119, "duration": 480}, {"note": 75, "velocity": 117, "duration": 480}, {"note": 73, "velocity": 119, "duration": 3000}, {"note": 0, "velocity": 0, "duration": 13320}, {"note": 66, "velocity": 110, "duration": 240}, {"note": 75, "velocity": 114, "duration": 360}, {"note": 73, "velocity": 110, "duration": 360}, {"note": 71, "velocity": 113, "duration": 479}, {"note": 71, "velocity": 117, "duration": 479}, {"note": 71, "velocity": 110, "duration": 479}, {"note": 71, "velocity": 102, "duration": 240}, {"note": 68, "velocity": 94, "duration": 240}, {"note": 66, "velocity": 90, "duration": 240}, {"note": 78, "velocity": 113, "duration": 360}, {"note": 80, "velocity": 119, "duration": 359}, {"note": 80, "velocity": 120, "duration": 720}, {"note": 71, "velocity": 117, "duration": 240}, {"note": 73, "velocity": 110, "duration": 240}, {"note": 75, "velocity": 117, "duration": 240}, {"note": 78, "velocity": 119, "duration": 479}, {"note": 78, "velocity": 119, "duration": 480}, {"note": 71, "velocity": 119, "duration": 480}, {"note": 73, "velocity": 119, "duration": 2640}, {"note": 71, "velocity": 117, "duration": 239}, {"note": 71, "velocity": 110, "duration": 239}, {"note": 71, "velocity": 114, "duration": 239}, {"note": 71, "velocity": 116, "duration": 240}, {"note": 68, "velocity": 113, "duration": 240}, {"note": 66, "velocity": 110, "duration": 240}, {"note": 78, "velocity": 120, "duration": 360}, {"note": 80, "velocity": 120, "duration": 359}, {"note": 80, "velocity": 120, "duration": 480}, {"note": 71, "velocity": 110, "duration": 239}, {"note": 71, "velocity": 113, "duration": 240}, {"note": 73, "velocity": 107, "duration": 240}, {"note": 75, "velocity": 117, "duration": 240}, {"note": 78, "velocity": 116, "duration": 480}, {"note": 71, "velocity": 96, "duration": 240}, {"note": 78, "velocity": 114, "duration": 240}, {"note": 75, "velocity": 108, "duration": 240}, {"note": 73, "velocity": 107, "duration": 239}, {"note": 73, "velocity": 117, "duration": 1200}, {"note": 75, "velocity": 117, "duration": 240}, {"note": 73, "velocity": 116, "duration": 480}, {"note": 71, "velocity": 117, "duration": 719}, {"note": 71, "velocity": 114, "duration": 479}, {"note": 71, "velocity": 116, "duration": 239}, {"note": 71, "velocity": 110, "duration": 240}, {"note": 68, "velocity": 104, "duration": 240}, {"note": 66, "velocity": 113, "duration": 240}, {"note": 78, "velocity": 119, "duration": 240}, {"note": 80, "velocity": 119, "duration": 960}, {"note": 71, "velocity": 113, "duration": 239}, {"note": 71, "velocity": 114, "duration": 240}, {"note": 73, "velocity": 110, "duration": 240}, {"note": 75, "velocity": 117, "duration": 240}, {"note": 78, "velocity": 119, "duration": 479}, {"note": 78, "velocity": 119, "duration": 239}, {"note": 78, "velocity": 119, "duration": 480}, {"note": 71, "velocity": 114, "duration": 240}, {"note": 73, "velocity": 117, "duration": 1439}, {"note": 73, "velocity": 116, "duration": 240}, {"note": 75, "velocity": 108, "duration": 240}, {"note": 71, "velocity": 108, "duration": 719}, {"note": 71, "velocity": 119, "duration": 239}, {"note": 71, "velocity": 113, "duration": 239}, {"note": 71, "velocity": 117, "duration": 720}, {"note": 68, "velocity": 107, "duration": 240}, {"note": 78, "velocity": 117, "duration": 240}, {"note": 80, "velocity": 116, "duration": 479}, {"note": 80, "velocity": 119, "duration": 480}, {"note": 71, "velocity": 113, "duration": 480}, {"note": 73, "velocity": 114, "duration": 240}, {"note": 75, "velocity": 114, "duration": 240}, {"note": 78, "velocity": 117, "duration": 479}, {"note": 78, "velocity": 119, "duration": 480}, {"note": 75, "velocity": 117, "duration": 480}, {"note": 73, "velocity": 119, "duration": 2160}, {"note": 0, "velocity": 0, "duration": 7680}, {"note": 63, "velocity": 114, "duration": 240}, {"note": 61, "velocity": 90, "duration": 269}, {"note": 63, "velocity": 102, "duration": 240}, {"note": 61, "velocity": 87, "duration": 286}, {"note": 63, "velocity": 93, "duration": 240}, {"note": 66, "velocity": 102, "duration": 239}, {"note": 66, "velocity": 107, "duration": 2160}, {"note": 56, "velocity": 104, "duration": 240}, {"note": 59, "velocity": 114, "duration": 720}, {"note": 61, "velocity": 113, "duration": 480}, {"note": 59, "velocity": 114, "duration": 2399}, {"note": 59, "velocity": 92, "duration": 239}, {"note": 59, "velocity": 102, "duration": 240}, {"note": 61, "velocity": 102, "duration": 240}, {"note": 63, "velocity": 104, "duration": 240}, {"note": 59, "velocity": 100, "duration": 960}, {"note": 56, "velocity": 91, "duration": 250}, {"note": 59, "velocity": 96, "duration": 261}, {"note": 61, "velocity": 96, "duration": 248}, {"note": 63, "velocity": 91, "duration": 254}, {"note": 59, "velocity": 94, "duration": 720}, {"note": 56, "velocity": 92, "duration": 480}, {"note": 61, "velocity": 91, "duration": 720}, {"note": 63, "velocity": 108, "duration": 1200}]]