[[{"note": 74, "velocity": 104, "duration": 153}, {"note": 71, "velocity": 90, "duration": 57}, {"note": 74, "velocity": 90, "duration": 134}, {"note": 71, "velocity": 89, "duration": 52}, {"note": 74, "velocity": 88, "duration": 123}, {"note": 71, "velocity": 87, "duration": 46}, {"note": 74, "velocity": 91, "duration": 97}, {"note": 0, "velocity": 0, "duration": 83}, {"note": 71, "velocity": 87, "duration": 55}, {"note": 74, "velocity": 89, "duration": 64}, {"note": 0, "velocity": 0, "duration": 116}, {"note": 71, "velocity": 90, "duration": 59}, {"note": 74, "velocity": 89, "duration": 124}, {"note": 71, "velocity": 88, "duration": 48}, {"note": 74, "velocity": 90, "duration": 101}, {"note": 76, "velocity": 102, "duration": 130}, {"note": 0, "velocity": 0, "duration": 230}, {"note": 73, "velocity": 106, "duration": 142}, {"note": 71, "velocity": 91, "duration": 65}, {"note": 73, "velocity": 87, "duration": 137}, {"note": 71, "velocity": 90, "duration": 60}, {"note": 73, "velocity": 88, "duration": 145}, {"note": 71, "velocity": 88, "duration": 61}, {"note": 73, "velocity": 87, "duration": 157}, {"note": 71, "velocity": 90, "duration": 63}, {"note": 73, "velocity": 86, "duration": 141}, {"note": 71, "velocity": 87, "duration": 66}, {"note": 73, "velocity": 85, "duration": 148}, {"note": 71, "velocity": 87, "duration": 93}, {"note": 76, "velocity": 88, "duration": 109}, {"note": 74, "velocity": 98, "duration": 79}, {"note": 0, "velocity": 0, "duration": 281}, {"note": 74, "velocity": 107, "duration": 146}, {"note": 71, "velocity": 87, "duration": 59}, {"note": 74, "velocity": 94, "duration": 148}, {"note": 71, "velocity": 91, "duration": 60}, {"note": 74, "velocity": 91, "duration": 154}, {"note": 71, "velocity": 88, "duration": 50}, {"note": 74, "velocity": 92, "duration": 151}, {"note": 71, "velocity": 86, "duration": 57}, {"note": 74, "velocity": 100, "duration": 107}, {"note": 0, "velocity": 0, "duration": 73}, {"note": 71, "velocity": 91, "duration": 58}, {"note": 74, "velocity": 89, "duration": 107}, {"note": 0, "velocity": 0, "duration": 73}, {"note": 74, "velocity": 89, "duration": 40}, {"note": 74, "velocity": 96, "duration": 80}, {"note": 76, "velocity": 94, "duration": 111}, {"note": 0, "velocity": 0, "duration": 129}, {"note": 71, "velocity": 91, "duration": 83}, {"note": 78, "velocity": 113, "duration": 141}, {"note": 0, "velocity": 0, "duration": 99}, {"note": 71, "velocity": 92, "duration": 69}, {"note": 78, "velocity": 116, "duration": 132}, {"note": 0, "velocity": 0, "duration": 228}, {"note": 71, "velocity": 104, "duration": 71}, {"note": 78, "velocity": 116, "duration": 196}, {"note": 0, "velocity": 0, "duration": 164}, {"note": 71, "velocity": 98, "duration": 82}, {"note": 78, "velocity": 116, "duration": 167}, {"note": 0, "velocity": 0, "duration": 433}, {"note": 74, "velocity": 104, "duration": 153}, {"note": 71, "velocity": 90, "duration": 57}, {"note": 74, "velocity": 90, "duration": 134}, {"note": 71, "velocity": 89, "duration": 52}, {"note": 74, "velocity": 88, "duration": 123}, {"note": 71, "velocity": 87, "duration": 46}, {"note": 74, "velocity": 91, "duration": 97}, {"note": 0, "velocity": 0, "duration": 83}, {"note": 71, "velocity": 87, "duration": 55}, {"note": 74, "velocity": 89, "duration": 64}, {"note": 0, "velocity": 0, "duration": 116}, {"note": 71, "velocity": 90, "duration": 59}, {"note": 74, "velocity": 89, "duration": 124}, {"note": 71, "velocity": 88, "duration": 48}, {"note": 74, "velocity": 90, "duration": 101}, {"note": 76, "velocity": 102, "duration": 130}, {"note": 0, "velocity": 0, "duration": 230}, {"note": 73, "velocity": 106, "duration": 142}, {"note": 71, "velocity": 91, "duration": 65}, {"note": 73, "velocity": 87, "duration": 137}, {"note": 71, "velocity": 90, "duration": 60}, {"note": 73, "velocity": 88, "duration": 145}, {"note": 71, "velocity": 88, "duration": 61}, {"note": 73, "velocity": 87, "duration": 157}, {"note": 71, "velocity": 90, "duration": 63}, {"note": 73, "velocity": 86, "duration": 141}, {"note": 71, "velocity": 87, "duration": 66}, {"note": 73, "velocity": 85, "duration": 148}, {"note": 71, "velocity": 87, "duration": 93}, {"note": 76, "velocity": 88, "duration": 109}, {"note": 74, "velocity": 98, "duration": 79}, {"note": 0, "velocity": 0, "duration": 281}, {"note": 74, "velocity": 107, "duration": 146}, {"note": 71, "velocity": 87, "duration": 59}, {"note": 74, "velocity": 94, "duration": 148}, {"note": 71, "velocity": 91, "duration": 60}, {"note": 74, "velocity": 91, "duration": 154}, {"note": 71, "velocity": 88, "duration": 50}, {"note": 74, "velocity": 92, "duration": 151}, {"note": 71, "velocity": 86, "duration": 57}, {"note": 74, "velocity": 100, "duration": 107}, {"note": 0, "velocity": 0, "duration": 73}, {"note": 71, "velocity": 91, "duration": 58}, {"note": 74, "velocity": 89, "duration": 107}, {"note": 0, "velocity": 0, "duration": 73}, {"note": 74, "velocity": 89, "duration": 40}, {"note": 74, "velocity": 96, "duration": 80}, {"note": 76, "velocity": 94, "duration": 111}, {"note": 0, "velocity": 0, "duration": 129}, {"note": 71, "velocity": 91, "duration": 83}, {"note": 78, "velocity": 113, "duration": 141}, {"note": 0, "velocity": 0, "duration": 99}, {"note": 71, "velocity": 92, "duration": 69}, {"note": 78, "velocity": 116, "duration": 132}, {"note": 0, "velocity": 0, "duration": 228}, {"note": 71, "velocity": 104, "duration": 71}, {"note": 78, "velocity": 116, "duration": 196}, {"note": 0, "velocity": 0, "duration": 164}, {"note": 71, "velocity": 98, "duration": 82}, {"note": 78, "velocity": 116, "duration": 167}, {"note": 0, "velocity": 0, "duration": 433}, {"note": 67, "velocity": 119, "duration": 131}, {"note": 0, "velocity": 0, "duration": 109}, {"note": 67, "velocity": 107, "duration": 47}, {"note": 0, "velocity": 0, "duration": 73}, {"note": 67, "velocity": 94, "duration": 67}, {"note": 69, "velocity": 117, "duration": 152}, {"note": 0, "velocity": 0, "duration": 88}, {"note": 62, "velocity": 104, "duration": 73}, {"note": 64, "velocity": 114, "duration": 189}, {"note": 0, "velocity": 0, "duration": 891}, {"note": 66, "velocity": 113, "duration": 118}, {"note": 0, "velocity": 0, "duration": 62}, {"note": 66, "velocity": 100, "duration": 89}, {"note": 0, "velocity": 0, "duration": 91}, {"note": 66, "velocity": 103, "duration": 112}, {"note": 69, "velocity": 110, "duration": 128}, {"note": 0, "velocity": 0, "duration": 112}, {"note": 61, "velocity": 103, "duration": 94}, {"note": 62, "velocity": 110, "duration": 138}, {"note": 0, "velocity": 0, "duration": 942}, {"note": 67, "velocity": 113, "duration": 147}, {"note": 0, "velocity": 0, "duration": 93}, {"note": 67, "velocity": 107, "duration": 46}, {"note": 0, "velocity": 0, "duration": 74}, {"note": 67, "velocity": 98, "duration": 77}, {"note": 69, "velocity": 117, "duration": 164}, {"note": 0, "velocity": 0, "duration": 76}, {"note": 62, "velocity": 108, "duration": 110}, {"note": 64, "velocity": 113, "duration": 142}, {"note": 0, "velocity": 0, "duration": 458}, {"note": 64, "velocity": 116, "duration": 161}, {"note": 57, "velocity": 100, "duration": 130}, {"note": 57, "velocity": 113, "duration": 113}, {"note": 66, "velocity": 119, "duration": 140}, {"note": 0, "velocity": 0, "duration": 100}, {"note": 66, "velocity": 109, "duration": 186}, {"note": 0, "velocity": 0, "duration": 1494}, {"note": 67, "velocity": 119, "duration": 131}, {"note": 0, "velocity": 0, "duration": 109}, {"note": 67, "velocity": 107, "duration": 47}, {"note": 0, "velocity": 0, "duration": 73}, {"note": 67, "velocity": 94, "duration": 67}, {"note": 69, "velocity": 117, "duration": 152}, {"note": 0, "velocity": 0, "duration": 88}, {"note": 62, "velocity": 104, "duration": 73}, {"note": 64, "velocity": 114, "duration": 189}, {"note": 0, "velocity": 0, "duration": 891}, {"note": 66, "velocity": 113, "duration": 118}, {"note": 0, "velocity": 0, "duration": 62}, {"note": 66, "velocity": 100, "duration": 89}, {"note": 0, "velocity": 0, "duration": 91}, {"note": 66, "velocity": 103, "duration": 112}, {"note": 69, "velocity": 110, "duration": 128}, {"note": 0, "velocity": 0, "duration": 112}, {"note": 61, "velocity": 103, "duration": 94}, {"note": 62, "velocity": 110, "duration": 138}, {"note": 0, "velocity": 0, "duration": 942}, {"note": 67, "velocity": 113, "duration": 147}, {"note": 0, "velocity": 0, "duration": 93}, {"note": 67, "velocity": 107, "duration": 46}, {"note": 0, "velocity": 0, "duration": 74}, {"note": 67, "velocity": 98, "duration": 77}, {"note": 69, "velocity": 117, "duration": 164}, {"note": 0, "velocity": 0, "duration": 76}, {"note": 62, "velocity": 108, "duration": 110}, {"note": 64, "velocity": 113, "duration": 142}, {"note": 0, "velocity": 0, "duration": 338}, {"note": 57, "velocity": 93, "duration": 64}, {"note": 57, "velocity": 98, "duration": 141}, {"note": 0, "velocity": 0, "duration": 99}, {"note": 57, "velocity": 98, "duration": 124}, {"note": 0, "velocity": 0, "duration": 116}, {"note": 64, "velocity": 107, "duration": 213}, {"note": 62, "velocity": 98, "duration": 195}, {"note": 0, "velocity": 0, "duration": 1485}, {"note": 62, "velocity": 104, "duration": 153}, {"note": 59, "velocity": 90, "duration": 57}, {"note": 62, "velocity": 90, "duration": 134}, {"note": 59, "velocity": 89, "duration": 52}, {"note": 62, "velocity": 88, "duration": 123}, {"note": 59, "velocity": 87, "duration": 46}, {"note": 62, "velocity": 91, "duration": 97}, {"note": 0, "velocity": 0, "duration": 83}, {"note": 59, "velocity": 87, "duration": 55}, {"note": 62, "velocity": 89, "duration": 64}, {"note": 0, "velocity": 0, "duration": 116}, {"note": 59, "velocity": 90, "duration": 59}, {"note": 62, "velocity": 89, "duration": 124}, {"note": 59, "velocity": 88, "duration": 48}, {"note": 62, "velocity": 90, "duration": 101}, {"note": 64, "velocity": 102, "duration": 130}, {"note": 0, "velocity": 0, "duration": 230}, {"note": 61, "velocity": 106, "duration": 142}, {"note": 59, "velocity": 91, "duration": 65}, {"note": 61, "velocity": 87, "duration": 137}, {"note": 59, "velocity": 90, "duration": 60}, {"note": 61, "velocity": 88, "duration": 145}, {"note": 59, "velocity": 88, "duration": 61}, {"note": 61, "velocity": 87, "duration": 157}, {"note": 59, "velocity": 90, "duration": 63}, {"note": 61, "velocity": 86, "duration": 141}, {"note": 59, "velocity": 87, "duration": 66}, {"note": 61, "velocity": 85, "duration": 148}, {"note": 59, "velocity": 87, "duration": 93}, {"note": 64, "velocity": 88, "duration": 109}, {"note": 62, "velocity": 98, "duration": 79}, {"note": 0, "velocity": 0, "duration": 281}, {"note": 62, "velocity": 107, "duration": 146}, {"note": 59, "velocity": 87, "duration": 59}, {"note": 62, "velocity": 94, "duration": 148}, {"note": 59, "velocity": 91, "duration": 60}, {"note": 62, "velocity": 91, "duration": 154}, {"note": 59, "velocity": 88, "duration": 50}, {"note": 62, "velocity": 92, "duration": 151}, {"note": 59, "velocity": 86, "duration": 57}, {"note": 62, "velocity": 100, "duration": 107}, {"note": 0, "velocity": 0, "duration": 73}, {"note": 59, "velocity": 91, "duration": 58}, {"note": 62, "velocity": 89, "duration": 107}, {"note": 0, "velocity": 0, "duration": 73}, {"note": 62, "velocity": 89, "duration": 40}, {"note": 62, "velocity": 96, "duration": 80}, {"note": 64, "velocity": 94, "duration": 111}, {"note": 0, "velocity": 0, "duration": 129}, {"note": 59, "velocity": 91, "duration": 83}, {"note": 66, "velocity": 113, "duration": 141}, {"note": 0, "velocity": 0, "duration": 99}, {"note": 59, "velocity": 92, "duration": 69}, {"note": 66, "velocity": 116, "duration": 132}, {"note": 0, "velocity": 0, "duration": 228}, {"note": 59, "velocity": 104, "duration": 71}, {"note": 66, "velocity": 116, "duration": 196}, {"note": 0, "velocity": 0, "duration": 164}, {"note": 59, "velocity": 98, "duration": 82}, {"note": 66, "velocity": 116, "duration": 167}, {"note": 0, "velocity": 0, "duration": 15793}, {"note": 67, "velocity": 119, "duration": 131}, {"note": 0, "velocity": 0, "duration": 109}, {"note": 67, "velocity": 107, "duration": 47}, {"note": 0, "velocity": 0, "duration": 73}, {"note": 67, "velocity": 94, "duration": 67}, {"note": 69, "velocity": 117, "duration": 152}, {"note": 0, "velocity": 0, "duration": 88}, {"note": 62, "velocity": 104, "duration": 73}, {"note": 64, "velocity": 114, "duration": 189}, {"note": 0, "velocity": 0, "duration": 891}, {"note": 66, "velocity": 113, "duration": 118}, {"note": 0, "velocity": 0, "duration": 62}, {"note": 66, "velocity": 100, "duration": 89}, {"note": 0, "velocity": 0, "duration": 91}, {"note": 66, "velocity": 103, "duration": 112}, {"note": 69, "velocity": 110, "duration": 128}, {"note": 0, "velocity": 0, "duration": 112}, {"note": 61, "velocity": 103, "duration": 94}, {"note": 62, "velocity": 110, "duration": 138}, {"note": 0, "velocity": 0, "duration": 942}, {"note": 67, "velocity": 113, "duration": 147}, {"note": 0, "velocity": 0, "duration": 93}, {"note": 67, "velocity": 107, "duration": 46}, {"note": 0, "velocity": 0, "duration": 74}, {"note": 67, "velocity": 98, "duration": 77}, {"note": 69, "velocity": 117, "duration": 164}, {"note": 0, "velocity": 0, "duration": 76}, {"note": 62, "velocity": 108, "duration": 110}, {"note": 64, "velocity": 113, "duration": 142}, {"note": 0, "velocity": 0, "duration": 458}, {"note": 64, "velocity": 116, "duration": 161}, {"note": 57, "velocity": 100, "duration": 130}, {"note": 57, "velocity": 113, "duration": 113}, {"note": 66, "velocity": 119, "duration": 140}, {"note": 0, "velocity": 0, "duration": 100}, {"note": 66, "velocity": 109, "duration": 186}, {"note": 0, "velocity": 0, "duration": 1494}, {"note": 67, "velocity": 119, "duration": 131}, {"note": 0, "velocity": 0, "duration": 109}, {"note": 67, "velocity": 107, "duration": 47}, {"note": 0, "velocity": 0, "duration": 73}, {"note": 67, "velocity": 94, "duration": 67}, {"note": 69, "velocity": 117, "duration": 152}, {"note": 0, "velocity": 0, "duration": 88}, {"note": 62, "velocity": 104, "duration": 73}, {"note": 64, "velocity": 114, "duration": 189}, {"note": 0, "velocity": 0, "duration": 891}, {"note": 66, "velocity": 113, "duration": 118}, {"note": 0, "velocity": 0, "duration": 62}, {"note": 66, "velocity": 100, "duration": 89}, {"note": 0, "velocity": 0, "duration": 91}, {"note": 66, "velocity": 103, "duration": 112}, {"note": 69, "velocity": 110, "duration": 128}, {"note": 0, "velocity": 0, "duration": 112}, {"note": 61, "velocity": 103, "duration": 94}, {"note": 62, "velocity": 110, "duration": 138}, {"note": 0, "velocity": 0, "duration": 942}, {"note": 67, "velocity": 113, "duration": 147}, {"note": 0, "velocity": 0, "duration": 93}, {"note": 67, "velocity": 107, "duration": 46}, {"note": 0, "velocity": 0, "duration": 74}, {"note": 67, "velocity": 98, "duration": 77}, {"note": 69, "velocity": 117, "duration": 164}, {"note": 0, "velocity": 0, "duration": 76}, {"note": 62, "velocity": 108, "duration": 110}, {"note": 64, "velocity": 113, "duration": 142}, {"note": 0, "velocity": 0, "duration": 338}, {"note": 57, "velocity": 93, "duration": 64}, {"note": 57, "velocity": 98, "duration": 141}, {"note": 0, "velocity": 0, "duration": 99}, {"note": 57, "velocity": 98, "duration": 124}, {"note": 0, "velocity": 0, "duration": 116}, {"note": 64, "velocity": 107, "duration": 213}, {"note": 62, "velocity": 98, "duration": 195}, {"note": 0, "velocity": 0, "duration": 1485}, {"note": 67, "velocity": 119, "duration": 131}, {"note": 0, "velocity": 0, "duration": 109}, {"note": 67, "velocity": 107, "duration": 47}, {"note": 0, "velocity": 0, "duration": 73}, {"note": 67, "velocity": 94, "duration": 67}, {"note": 69, "velocity": 117, "duration": 152}, {"note": 0, "velocity": 0, "duration": 88}, {"note": 62, "velocity": 104, "duration": 73}, {"note": 64, "velocity": 114, "duration": 189}, {"note": 0, "velocity": 0, "duration": 891}, {"note": 66, "velocity": 113, "duration": 118}, {"note": 0, "velocity": 0, "duration": 62}, {"note": 66, "velocity": 100, "duration": 89}, {"note": 0, "velocity": 0, "duration": 91}, {"note": 66, "velocity": 103, "duration": 112}, {"note": 69, "velocity": 110, "duration": 128}, {"note": 0, "velocity": 0, "duration": 112}, {"note": 61, "velocity": 103, "duration": 94}, {"note": 62, "velocity": 110, "duration": 138}, {"note": 0, "velocity": 0, "duration": 942}, {"note": 67, "velocity": 113, "duration": 147}, {"note": 0, "velocity": 0, "duration": 93}, {"note": 67, "velocity": 107, "duration": 46}, {"note": 0, "velocity": 0, "duration": 74}, {"note": 67, "velocity": 98, "duration": 77}, {"note": 69, "velocity": 117, "duration": 164}, {"note": 0, "velocity": 0, "duration": 76}, {"note": 62, "velocity": 108, "duration": 110}, {"note": 64, "velocity": 113, "duration": 142}, {"note": 0, "velocity": 0, "duration": 458}, {"note": 64, "velocity": 116, "duration": 161}, {"note": 57, "velocity": 100, "duration": 130}, {"note": 57, "velocity": 113, "duration": 113}, {"note": 66, "velocity": 119, "duration": 140}, {"note": 0, "velocity": 0, "duration": 100}, {"note": 66, "velocity": 109, "duration": 186}, {"note": 0, "velocity": 0, "duration": 1494}, {"note": 67, "velocity": 119, "duration": 131}, {"note": 0, "velocity": 0, "duration": 109}, {"note": 67, "velocity": 107, "duration": 47}, {"note": 0, "velocity": 0, "duration": 73}, {"note": 67, "velocity": 94, "duration": 67}, {"note": 69, "velocity": 117, "duration": 152}, {"note": 0, "velocity": 0, "duration": 88}, {"note": 62, "velocity": 104, "duration": 73}, {"note": 64, "velocity": 114, "duration": 189}, {"note": 0, "velocity": 0, "duration": 891}, {"note": 66, "velocity": 113, "duration": 118}, {"note": 0, "velocity": 0, "duration": 62}, {"note": 66, "velocity": 100, "duration": 89}, {"note": 0, "velocity": 0, "duration": 91}, {"note": 66, "velocity": 103, "duration": 112}, {"note": 69, "velocity": 110, "duration": 128}, {"note": 0, "velocity": 0, "duration": 112}, {"note": 61, "velocity": 103, "duration": 94}, {"note": 62, "velocity": 110, "duration": 138}, {"note": 0, "velocity": 0, "duration": 942}, {"note": 67, "velocity": 113, "duration": 147}, {"note": 0, "velocity": 0, "duration": 93}, {"note": 67, "velocity": 107, "duration": 46}, {"note": 0, "velocity": 0, "duration": 74}, {"note": 67, "velocity": 98, "duration": 77}, {"note": 69, "velocity": 117, "duration": 164}, {"note": 0, "velocity": 0, "duration": 76}, {"note": 62, "velocity": 108, "duration": 110}, {"note": 64, "velocity": 113, "duration": 142}, {"note": 0, "velocity": 0, "duration": 938}, {"note": 64, "velocity": 107, "duration": 155}, {"note": 0, "velocity": 0, "duration": 85}, {"note": 64, "velocity": 96, "duration": 66}, {"note": 64, "velocity": 98, "duration": 142}, {"note": 62, "velocity": 102, "duration": 215}, {"note": 59, "velocity": 100, "duration": 162}, {"note": 0, "velocity": 0, "duration": 78}, {"note": 62, "velocity": 100, "duration": 270}, {"note": 0, "velocity": 0, "duration": 690}, {"note": 67, "velocity": 113, "duration": 119}, {"note": 0, "velocity": 0, "duration": 121}, {"note": 67, "velocity": 100, "duration": 49}, {"note": 0, "velocity": 0, "duration": 71}, {"note": 67, "velocity": 100, "duration": 73}, {"note": 69, "velocity": 110, "duration": 184}, {"note": 62, "velocity": 93, "duration": 143}, {"note": 0, "velocity": 0, "duration": 97}, {"note": 64, "velocity": 102, "duration": 311}, {"note": 0, "velocity": 0, "duration": 649}, {"note": 66, "velocity": 109, "duration": 141}, {"note": 0, "velocity": 0, "duration": 99}, {"note": 66, "velocity": 93, "duration": 54}, {"note": 0, "velocity": 0, "duration": 66}, {"note": 66, "velocity": 90, "duration": 77}, {"note": 69, "velocity": 108, "duration": 140}, {"note": 0, "velocity": 0, "duration": 100}, {"note": 61, "velocity": 109, "duration": 223}, {"note": 62, "velocity": 104, "duration": 148}, {"note": 0, "velocity": 0, "duration": 812}, {"note": 67, "velocity": 107, "duration": 143}, {"note": 0, "velocity": 0, "duration": 97}, {"note": 67, "velocity": 93, "duration": 46}, {"note": 0, "velocity": 0, "duration": 74}, {"note": 67, "velocity": 92, "duration": 99}, {"note": 69, "velocity": 98, "duration": 152}, {"note": 0, "velocity": 0, "duration": 88}, {"note": 62, "velocity": 90, "duration": 143}, {"note": 0, "velocity": 0, "duration": 97}, {"note": 64, "velocity": 86, "duration": 140}, {"note": 0, "velocity": 0, "duration": 820}, {"note": 64, "velocity": 86, "duration": 184}, {"note": 64, "velocity": 88, "duration": 161}, {"note": 0, "velocity": 0, "duration": 79}, {"note": 57, "velocity": 84, "duration": 159}, {"note": 0, "velocity": 0, "duration": 81}, {"note": 59, "velocity": 84, "duration": 138}, {"note": 62, "velocity": 88, "duration": 173}]]