[[{"note": 64, "velocity": 87, "duration": 120}, {"note": 67, "velocity": 102, "duration": 120}, {"note": 71, "velocity": 113, "duration": 239}, {"note": 71, "velocity": 108, "duration": 239}, {"note": 71, "velocity": 116, "duration": 143}, {"note": 69, "velocity": 96, "duration": 120}, {"note": 67, "velocity": 92, "duration": 120}, {"note": 71, "velocity": 119, "duration": 840}, {"note": 69, "velocity": 104, "duration": 130}, {"note": 67, "velocity": 96, "duration": 120}, {"note": 69, "velocity": 110, "duration": 239}, {"note": 69, "velocity": 104, "duration": 240}, {"note": 62, "velocity": 102, "duration": 119}, {"note": 62, "velocity": 93, "duration": 120}, {"note": 67, "velocity": 110, "duration": 120}, {"note": 64, "velocity": 100, "duration": 1080}, {"note": 67, "velocity": 116, "duration": 119}, {"note": 67, "velocity": 100, "duration": 119}, {"note": 67, "velocity": 102, "duration": 126}, {"note": 66, "velocity": 97, "duration": 120}, {"note": 64, "velocity": 93, "duration": 120}, {"note": 67, "velocity": 107, "duration": 239}, {"note": 67, "velocity": 87, "duration": 120}, {"note": 71, "velocity": 93, "duration": 119}, {"note": 71, "velocity": 98, "duration": 119}, {"note": 71, "velocity": 102, "duration": 119}, {"note": 71, "velocity": 98, "duration": 120}, {"note": 74, "velocity": 93, "duration": 138}, {"note": 71, "velocity": 91, "duration": 360}, {"note": 69, "velocity": 92, "duration": 337}, {"note": 71, "velocity": 91, "duration": 360}, {"note": 69, "velocity": 97, "duration": 120}, {"note": 71, "velocity": 97, "duration": 960}, {"note": 64, "velocity": 87, "duration": 120}, {"note": 67, "velocity": 102, "duration": 120}, {"note": 71, "velocity": 113, "duration": 239}, {"note": 71, "velocity": 108, "duration": 239}, {"note": 71, "velocity": 116, "duration": 143}, {"note": 69, "velocity": 96, "duration": 120}, {"note": 67, "velocity": 92, "duration": 120}, {"note": 71, "velocity": 119, "duration": 840}, {"note": 69, "velocity": 104, "duration": 130}, {"note": 67, "velocity": 96, "duration": 120}, {"note": 69, "velocity": 110, "duration": 119}, {"note": 69, "velocity": 104, "duration": 360}, {"note": 62, "velocity": 102, "duration": 119}, {"note": 62, "velocity": 93, "duration": 120}, {"note": 67, "velocity": 110, "duration": 120}, {"note": 64, "velocity": 100, "duration": 1080}, {"note": 67, "velocity": 116, "duration": 119}, {"note": 67, "velocity": 100, "duration": 119}, {"note": 67, "velocity": 102, "duration": 126}, {"note": 66, "velocity": 97, "duration": 120}, {"note": 64, "velocity": 93, "duration": 120}, {"note": 67, "velocity": 107, "duration": 119}, {"note": 67, "velocity": 87, "duration": 240}, {"note": 71, "velocity": 93, "duration": 119}, {"note": 71, "velocity": 98, "duration": 119}, {"note": 71, "velocity": 102, "duration": 119}, {"note": 71, "velocity": 98, "duration": 120}, {"note": 74, "velocity": 93, "duration": 138}, {"note": 71, "velocity": 91, "duration": 240}, {"note": 69, "velocity": 86, "duration": 120}, {"note": 67, "velocity": 98, "duration": 240}, {"note": 69, "velocity": 107, "duration": 127}, {"note": 67, "velocity": 88, "duration": 127}, {"note": 66, "velocity": 95, "duration": 240}, {"note": 62, "velocity": 100, "duration": 135}, {"note": 64, "velocity": 100, "duration": 1080}, {"note": 69, "velocity": 114, "duration": 119}, {"note": 69, "velocity": 93, "duration": 119}, {"note": 69, "velocity": 94, "duration": 119}, {"note": 69, "velocity": 94, "duration": 120}, {"note": 64, "velocity": 91, "duration": 120}, {"note": 69, "velocity": 110, "duration": 240}, {"note": 67, "velocity": 108, "duration": 1080}, {"note": 66, "velocity": 119, "duration": 119}, {"note": 66, "velocity": 100, "duration": 119}, {"note": 66, "velocity": 91, "duration": 119}, {"note": 66, "velocity": 93, "duration": 119}, {"note": 66, "velocity": 109, "duration": 120}, {"note": 62, "velocity": 102, "duration": 240}, {"note": 64, "velocity": 102, "duration": 1080}, {"note": 69, "velocity": 102, "duration": 119}, {"note": 69, "velocity": 108, "duration": 119}, {"note": 69, "velocity": 89, "duration": 119}, {"note": 69, "velocity": 96, "duration": 120}, {"note": 64, "velocity": 104, "duration": 120}, {"note": 69, "velocity": 110, "duration": 240}, {"note": 67, "velocity": 108, "duration": 239}, {"note": 67, "velocity": 100, "duration": 119}, {"note": 67, "velocity": 96, "duration": 119}, {"note": 67, "velocity": 94, "duration": 120}, {"note": 69, "velocity": 108, "duration": 120}, {"note": 67, "velocity": 100, "duration": 240}, {"note": 69, "velocity": 89, "duration": 120}, {"note": 71, "velocity": 113, "duration": 1560}, {"note": 74, "velocity": 116, "duration": 120}, {"note": 71, "velocity": 98, "duration": 119}, {"note": 71, "velocity": 108, "duration": 120}, {"note": 76, "velocity": 119, "duration": 239}, {"note": 76, "velocity": 89, "duration": 240}, {"note": 71, "velocity": 110, "duration": 120}, {"note": 76, "velocity": 113, "duration": 360}, {"note": 74, "velocity": 116, "duration": 600}, {"note": 71, "velocity": 113, "duration": 119}, {"note": 71, "velocity": 110, "duration": 120}, {"note": 74, "velocity": 108, "duration": 120}, {"note": 78, "velocity": 119, "duration": 239}, {"note": 78, "velocity": 119, "duration": 239}, {"note": 78, "velocity": 119, "duration": 120}, {"note": 74, "velocity": 113, "duration": 240}, {"note": 71, "velocity": 116, "duration": 960}, {"note": 72, "velocity": 114, "duration": 239}, {"note": 72, "velocity": 108, "duration": 119}, {"note": 72, "velocity": 113, "duration": 120}, {"note": 71, "velocity": 108, "duration": 120}, {"note": 69, "velocity": 100, "duration": 120}, {"note": 72, "velocity": 117, "duration": 240}, {"note": 71, "velocity": 108, "duration": 239}, {"note": 71, "velocity": 100, "duration": 119}, {"note": 71, "velocity": 107, "duration": 120}, {"note": 69, "velocity": 100, "duration": 119}, {"note": 69, "velocity": 98, "duration": 120}, {"note": 67, "velocity": 104, "duration": 239}, {"note": 67, "velocity": 113, "duration": 120}, {"note": 76, "velocity": 114, "duration": 480}, {"note": 74, "velocity": 116, "duration": 240}, {"note": 71, "velocity": 108, "duration": 136}, {"note": 69, "velocity": 113, "duration": 720}, {"note": 74, "velocity": 116, "duration": 120}, {"note": 71, "velocity": 98, "duration": 119}, {"note": 71, "velocity": 108, "duration": 120}, {"note": 76, "velocity": 119, "duration": 239}, {"note": 76, "velocity": 89, "duration": 240}, {"note": 71, "velocity": 110, "duration": 120}, {"note": 76, "velocity": 113, "duration": 360}, {"note": 74, "velocity": 116, "duration": 600}, {"note": 71, "velocity": 113, "duration": 119}, {"note": 71, "velocity": 110, "duration": 120}, {"note": 74, "velocity": 108, "duration": 120}, {"note": 78, "velocity": 119, "duration": 239}, {"note": 78, "velocity": 119, "duration": 239}, {"note": 78, "velocity": 119, "duration": 120}, {"note": 74, "velocity": 113, "duration": 240}, {"note": 71, "velocity": 116, "duration": 960}, {"note": 72, "velocity": 114, "duration": 239}, {"note": 72, "velocity": 108, "duration": 119}, {"note": 72, "velocity": 113, "duration": 120}, {"note": 71, "velocity": 108, "duration": 120}, {"note": 69, "velocity": 100, "duration": 120}, {"note": 72, "velocity": 117, "duration": 240}, {"note": 71, "velocity": 108, "duration": 239}, {"note": 71, "velocity": 100, "duration": 119}, {"note": 71, "velocity": 107, "duration": 120}, {"note": 69, "velocity": 100, "duration": 119}, {"note": 69, "velocity": 98, "duration": 120}, {"note": 67, "velocity": 104, "duration": 239}, {"note": 67, "velocity": 113, "duration": 120}, {"note": 76, "velocity": 114, "duration": 359}, {"note": 76, "velocity": 113, "duration": 120}, {"note": 74, "velocity": 107, "duration": 120}, {"note": 71, "velocity": 110, "duration": 240}, {"note": 76, "velocity": 116, "duration": 1320}, {"note": 0, "velocity": 0, "duration": 15798}, {"note": 64, "velocity": 87, "duration": 120}, {"note": 67, "velocity": 102, "duration": 120}, {"note": 71, "velocity": 113, "duration": 239}, {"note": 71, "velocity": 108, "duration": 239}, {"note": 71, "velocity": 116, "duration": 143}, {"note": 69, "velocity": 96, "duration": 120}, {"note": 67, "velocity": 92, "duration": 120}, {"note": 71, "velocity": 119, "duration": 840}, {"note": 69, "velocity": 104, "duration": 130}, {"note": 67, "velocity": 96, "duration": 120}, {"note": 69, "velocity": 110, "duration": 119}, {"note": 69, "velocity": 104, "duration": 360}, {"note": 62, "velocity": 102, "duration": 119}, {"note": 62, "velocity": 93, "duration": 120}, {"note": 67, "velocity": 110, "duration": 120}, {"note": 64, "velocity": 100, "duration": 1080}, {"note": 67, "velocity": 116, "duration": 119}, {"note": 67, "velocity": 100, "duration": 119}, {"note": 67, "velocity": 102, "duration": 127}, {"note": 66, "velocity": 97, "duration": 120}, {"note": 64, "velocity": 93, "duration": 120}, {"note": 67, "velocity": 107, "duration": 119}, {"note": 67, "velocity": 87, "duration": 240}, {"note": 71, "velocity": 93, "duration": 119}, {"note": 71, "velocity": 98, "duration": 119}, {"note": 71, "velocity": 102, "duration": 119}, {"note": 71, "velocity": 98, "duration": 120}, {"note": 74, "velocity": 93, "duration": 138}, {"note": 71, "velocity": 91, "duration": 240}, {"note": 69, "velocity": 86, "duration": 120}, {"note": 67, "velocity": 98, "duration": 240}, {"note": 69, "velocity": 107, "duration": 128}, {"note": 67, "velocity": 88, "duration": 128}, {"note": 66, "velocity": 95, "duration": 240}, {"note": 62, "velocity": 100, "duration": 135}, {"note": 64, "velocity": 100, "duration": 1080}, {"note": 69, "velocity": 114, "duration": 119}, {"note": 69, "velocity": 93, "duration": 119}, {"note": 69, "velocity": 94, "duration": 119}, {"note": 69, "velocity": 94, "duration": 120}, {"note": 64, "velocity": 91, "duration": 120}, {"note": 69, "velocity": 110, "duration": 240}, {"note": 67, "velocity": 108, "duration": 1080}, {"note": 66, "velocity": 119, "duration": 119}, {"note": 66, "velocity": 100, "duration": 119}, {"note": 66, "velocity": 91, "duration": 119}, {"note": 66, "velocity": 93, "duration": 119}, {"note": 66, "velocity": 109, "duration": 120}, {"note": 62, "velocity": 102, "duration": 240}, {"note": 64, "velocity": 102, "duration": 1080}, {"note": 69, "velocity": 102, "duration": 119}, {"note": 69, "velocity": 108, "duration": 119}, {"note": 69, "velocity": 89, "duration": 119}, {"note": 69, "velocity": 96, "duration": 120}, {"note": 64, "velocity": 104, "duration": 120}, {"note": 69, "velocity": 110, "duration": 240}, {"note": 67, "velocity": 108, "duration": 239}, {"note": 67, "velocity": 100, "duration": 119}, {"note": 67, "velocity": 96, "duration": 119}, {"note": 67, "velocity": 94, "duration": 120}, {"note": 69, "velocity": 108, "duration": 120}, {"note": 67, "velocity": 100, "duration": 240}, {"note": 69, "velocity": 89, "duration": 120}, {"note": 71, "velocity": 113, "duration": 1573}, {"note": 74, "velocity": 116, "duration": 120}, {"note": 71, "velocity": 98, "duration": 119}, {"note": 71, "velocity": 108, "duration": 120}, {"note": 76, "velocity": 119, "duration": 239}, {"note": 76, "velocity": 89, "duration": 240}, {"note": 71, "velocity": 110, "duration": 120}, {"note": 76, "velocity": 113, "duration": 360}, {"note": 74, "velocity": 116, "duration": 600}, {"note": 71, "velocity": 113, "duration": 119}, {"note": 71, "velocity": 110, "duration": 120}, {"note": 74, "velocity": 108, "duration": 120}, {"note": 78, "velocity": 119, "duration": 239}, {"note": 78, "velocity": 119, "duration": 239}, {"note": 78, "velocity": 119, "duration": 120}, {"note": 74, "velocity": 113, "duration": 240}, {"note": 71, "velocity": 116, "duration": 960}, {"note": 72, "velocity": 114, "duration": 239}, {"note": 72, "velocity": 108, "duration": 119}, {"note": 72, "velocity": 113, "duration": 120}, {"note": 71, "velocity": 108, "duration": 120}, {"note": 69, "velocity": 100, "duration": 120}, {"note": 72, "velocity": 117, "duration": 240}, {"note": 71, "velocity": 108, "duration": 239}, {"note": 71, "velocity": 100, "duration": 119}, {"note": 71, "velocity": 107, "duration": 120}, {"note": 69, "velocity": 100, "duration": 119}, {"note": 69, "velocity": 98, "duration": 120}, {"note": 67, "velocity": 104, "duration": 239}, {"note": 67, "velocity": 113, "duration": 120}, {"note": 76, "velocity": 114, "duration": 480}, {"note": 74, "velocity": 116, "duration": 240}, {"note": 71, "velocity": 108, "duration": 136}, {"note": 69, "velocity": 113, "duration": 720}, {"note": 74, "velocity": 116, "duration": 120}, {"note": 71, "velocity": 98, "duration": 119}, {"note": 71, "velocity": 108, "duration": 120}, {"note": 76, "velocity": 119, "duration": 239}, {"note": 76, "velocity": 89, "duration": 240}, {"note": 71, "velocity": 110, "duration": 120}, {"note": 76, "velocity": 113, "duration": 360}, {"note": 74, "velocity": 116, "duration": 600}, {"note": 71, "velocity": 113, "duration": 119}, {"note": 71, "velocity": 110, "duration": 120}, {"note": 74, "velocity": 108, "duration": 120}, {"note": 78, "velocity": 119, "duration": 239}, {"note": 78, "velocity": 119, "duration": 239}, {"note": 78, "velocity": 119, "duration": 120}, {"note": 74, "velocity": 113, "duration": 240}, {"note": 71, "velocity": 116, "duration": 960}, {"note": 72, "velocity": 114, "duration": 239}, {"note": 72, "velocity": 108, "duration": 119}, {"note": 72, "velocity": 113, "duration": 120}, {"note": 71, "velocity": 108, "duration": 120}, {"note": 69, "velocity": 100, "duration": 120}, {"note": 72, "velocity": 117, "duration": 240}, {"note": 71, "velocity": 108, "duration": 239}, {"note": 71, "velocity": 100, "duration": 119}, {"note": 71, "velocity": 107, "duration": 120}, {"note": 69, "velocity": 100, "duration": 119}, {"note": 69, "velocity": 98, "duration": 120}, {"note": 67, "velocity": 104, "duration": 239}, {"note": 67, "velocity": 113, "duration": 120}, {"note": 76, "velocity": 114, "duration": 359}, {"note": 76, "velocity": 113, "duration": 120}, {"note": 74, "velocity": 107, "duration": 120}, {"note": 71, "velocity": 110, "duration": 240}, {"note": 76, "velocity": 116, "duration": 713}, {"note": 74, "velocity": 116, "duration": 120}, {"note": 71, "velocity": 98, "duration": 119}, {"note": 71, "velocity": 108, "duration": 120}, {"note": 76, "velocity": 119, "duration": 239}, {"note": 76, "velocity": 89, "duration": 240}, {"note": 71, "velocity": 110, "duration": 120}, {"note": 76, "velocity": 113, "duration": 360}, {"note": 74, "velocity": 116, "duration": 600}, {"note": 71, "velocity": 113, "duration": 119}, {"note": 71, "velocity": 110, "duration": 120}, {"note": 74, "velocity": 108, "duration": 120}, {"note": 78, "velocity": 119, "duration": 239}, {"note": 78, "velocity": 119, "duration": 239}, {"note": 78, "velocity": 119, "duration": 120}, {"note": 74, "velocity": 113, "duration": 240}, {"note": 71, "velocity": 116, "duration": 960}, {"note": 72, "velocity": 114, "duration": 239}, {"note": 72, "velocity": 108, "duration": 119}, {"note": 72, "velocity": 113, "duration": 120}, {"note": 71, "velocity": 108, "duration": 120}, {"note": 69, "velocity": 100, "duration": 120}, {"note": 72, "velocity": 117, "duration": 240}, {"note": 71, "velocity": 108, "duration": 239}, {"note": 71, "velocity": 100, "duration": 119}, {"note": 71, "velocity": 107, "duration": 120}, {"note": 69, "velocity": 100, "duration": 119}, {"note": 69, "velocity": 98, "duration": 120}, {"note": 67, "velocity": 104, "duration": 239}, {"note": 67, "velocity": 113, "duration": 120}, {"note": 76, "velocity": 114, "duration": 480}, {"note": 74, "velocity": 116, "duration": 240}, {"note": 71, "velocity": 108, "duration": 137}, {"note": 69, "velocity": 113, "duration": 720}, {"note": 74, "velocity": 116, "duration": 120}, {"note": 71, "velocity": 98, "duration": 119}, {"note": 71, "velocity": 108, "duration": 120}, {"note": 76, "velocity": 119, "duration": 239}, {"note": 76, "velocity": 89, "duration": 240}, {"note": 71, "velocity": 110, "duration": 120}, {"note": 76, "velocity": 113, "duration": 360}, {"note": 74, "velocity": 116, "duration": 600}, {"note": 71, "velocity": 113, "duration": 119}, {"note": 71, "velocity": 110, "duration": 120}, {"note": 74, "velocity": 108, "duration": 120}, {"note": 78, "velocity": 119, "duration": 239}, {"note": 78, "velocity": 119, "duration": 239}, {"note": 78, "velocity": 119, "duration": 120}, {"note": 74, "velocity": 113, "duration": 240}, {"note": 71, "velocity": 116, "duration": 960}, {"note": 72, "velocity": 114, "duration": 239}, {"note": 72, "velocity": 108, "duration": 119}, {"note": 72, "velocity": 113, "duration": 120}, {"note": 71, "velocity": 108, "duration": 120}, {"note": 69, "velocity": 100, "duration": 120}, {"note": 72, "velocity": 117, "duration": 240}, {"note": 71, "velocity": 108, "duration": 239}, {"note": 71, "velocity": 100, "duration": 119}, {"note": 71, "velocity": 107, "duration": 120}, {"note": 69, "velocity": 100, "duration": 119}, {"note": 69, "velocity": 98, "duration": 120}, {"note": 67, "velocity": 104, "duration": 239}, {"note": 67, "velocity": 113, "duration": 120}, {"note": 76, "velocity": 114, "duration": 359}, {"note": 76, "velocity": 113, "duration": 120}, {"note": 74, "velocity": 107, "duration": 120}, {"note": 71, "velocity": 110, "duration": 240}, {"note": 76, "velocity": 116, "duration": 2016}, {"note": 72, "velocity": 107, "duration": 239}, {"note": 72, "velocity": 102, "duration": 119}, {"note": 72, "velocity": 102, "duration": 120}, {"note": 71, "velocity": 96, "duration": 120}, {"note": 69, "velocity": 91, "duration": 120}, {"note": 72, "velocity": 113, "duration": 240}, {"note": 71, "velocity": 107, "duration": 239}, {"note": 71, "velocity": 98, "duration": 119}, {"note": 71, "velocity": 102, "duration": 119}, {"note": 71, "velocity": 91, "duration": 120}, {"note": 69, "velocity": 91, "duration": 120}, {"note": 67, "velocity": 94, "duration": 180}, {"note": 71, "velocity": 88, "duration": 120}, {"note": 76, "velocity": 116, "duration": 359}, {"note": 76, "velocity": 113, "duration": 120}, {"note": 74, "velocity": 113, "duration": 240}, {"note": 71, "velocity": 100, "duration": 120}, {"note": 76, "velocity": 116, "duration": 424}]]