[[{"note": 65, "velocity": 110, "duration": 240}, {"note": 67, "velocity": 100, "duration": 240}, {"note": 70, "velocity": 116, "duration": 359}, {"note": 70, "velocity": 100, "duration": 359}, {"note": 70, "velocity": 106, "duration": 239}, {"note": 70, "velocity": 113, "duration": 480}, {"note": 67, "velocity": 110, "duration": 240}, {"note": 65, "velocity": 98, "duration": 240}, {"note": 70, "velocity": 113, "duration": 359}, {"note": 70, "velocity": 113, "duration": 360}, {"note": 72, "velocity": 110, "duration": 292}, {"note": 70, "velocity": 119, "duration": 480}, {"note": 67, "velocity": 102, "duration": 240}, {"note": 70, "velocity": 100, "duration": 240}, {"note": 72, "velocity": 102, "duration": 359}, {"note": 72, "velocity": 107, "duration": 359}, {"note": 72, "velocity": 104, "duration": 239}, {"note": 72, "velocity": 107, "duration": 480}, {"note": 70, "velocity": 113, "duration": 246}, {"note": 67, "velocity": 98, "duration": 240}, {"note": 72, "velocity": 108, "duration": 359}, {"note": 72, "velocity": 107, "duration": 360}, {"note": 74, "velocity": 110, "duration": 240}, {"note": 72, "velocity": 110, "duration": 480}, {"note": 74, "velocity": 104, "duration": 240}, {"note": 77, "velocity": 108, "duration": 240}, {"note": 79, "velocity": 116, "duration": 359}, {"note": 79, "velocity": 114, "duration": 360}, {"note": 77, "velocity": 113, "duration": 240}, {"note": 79, "velocity": 116, "duration": 480}, {"note": 77, "velocity": 110, "duration": 240}, {"note": 74, "velocity": 98, "duration": 240}, {"note": 72, "velocity": 107, "duration": 240}, {"note": 74, "velocity": 110, "duration": 240}, {"note": 72, "velocity": 107, "duration": 256}, {"note": 70, "velocity": 103, "duration": 240}, {"note": 67, "velocity": 91, "duration": 480}, {"note": 65, "velocity": 110, "duration": 240}, {"note": 67, "velocity": 102, "duration": 240}, {"note": 70, "velocity": 113, "duration": 359}, {"note": 70, "velocity": 113, "duration": 359}, {"note": 70, "velocity": 113, "duration": 239}, {"note": 70, "velocity": 116, "duration": 480}, {"note": 67, "velocity": 110, "duration": 480}, {"note": 70, "velocity": 116, "duration": 1440}, {"note": 65, "velocity": 110, "duration": 240}, {"note": 67, "velocity": 100, "duration": 240}, {"note": 70, "velocity": 116, "duration": 359}, {"note": 70, "velocity": 100, "duration": 359}, {"note": 70, "velocity": 106, "duration": 239}, {"note": 70, "velocity": 113, "duration": 480}, {"note": 67, "velocity": 110, "duration": 240}, {"note": 65, "velocity": 98, "duration": 240}, {"note": 70, "velocity": 113, "duration": 359}, {"note": 70, "velocity": 113, "duration": 360}, {"note": 72, "velocity": 110, "duration": 292}, {"note": 70, "velocity": 119, "duration": 480}, {"note": 67, "velocity": 102, "duration": 240}, {"note": 70, "velocity": 100, "duration": 240}, {"note": 72, "velocity": 102, "duration": 359}, {"note": 72, "velocity": 107, "duration": 359}, {"note": 72, "velocity": 104, "duration": 239}, {"note": 72, "velocity": 107, "duration": 480}, {"note": 70, "velocity": 113, "duration": 246}, {"note": 67, "velocity": 98, "duration": 240}, {"note": 72, "velocity": 108, "duration": 359}, {"note": 72, "velocity": 107, "duration": 360}, {"note": 74, "velocity": 110, "duration": 240}, {"note": 72, "velocity": 110, "duration": 480}, {"note": 74, "velocity": 104, "duration": 240}, {"note": 77, "velocity": 108, "duration": 240}, {"note": 79, "velocity": 116, "duration": 359}, {"note": 79, "velocity": 114, "duration": 360}, {"note": 77, "velocity": 113, "duration": 240}, {"note": 79, "velocity": 116, "duration": 480}, {"note": 82, "velocity": 116, "duration": 240}, {"note": 79, "velocity": 114, "duration": 240}, {"note": 77, "velocity": 110, "duration": 240}, {"note": 74, "velocity": 110, "duration": 240}, {"note": 72, "velocity": 107, "duration": 256}, {"note": 70, "velocity": 103, "duration": 240}, {"note": 67, "velocity": 91, "duration": 480}, {"note": 65, "velocity": 110, "duration": 240}, {"note": 67, "velocity": 102, "duration": 240}, {"note": 70, "velocity": 113, "duration": 359}, {"note": 70, "velocity": 113, "duration": 359}, {"note": 70, "velocity": 113, "duration": 239}, {"note": 70, "velocity": 116, "duration": 480}, {"note": 72, "velocity": 110, "duration": 480}, {"note": 70, "velocity": 116, "duration": 1440}, {"note": 74, "velocity": 116, "duration": 240}, {"note": 77, "velocity": 108, "duration": 240}, {"note": 79, "velocity": 114, "duration": 359}, {"note": 79, "velocity": 114, "duration": 359}, {"note": 79, "velocity": 116, "duration": 239}, {"note": 79, "velocity": 116, "duration": 480}, {"note": 82, "velocity": 108, "duration": 240}, {"note": 79, "velocity": 104, "duration": 240}, {"note": 77, "velocity": 114, "duration": 239}, {"note": 77, "velocity": 104, "duration": 480}, {"note": 79, "velocity": 104, "duration": 240}, {"note": 77, "velocity": 114, "duration": 480}, {"note": 74, "velocity": 113, "duration": 240}, {"note": 72, "velocity": 108, "duration": 240}, {"note": 70, "velocity": 113, "duration": 359}, {"note": 70, "velocity": 123, "duration": 359}, {"note": 70, "velocity": 116, "duration": 239}, {"note": 70, "velocity": 119, "duration": 480}, {"note": 72, "velocity": 114, "duration": 480}, {"note": 74, "velocity": 117, "duration": 1439}, {"note": 74, "velocity": 114, "duration": 240}, {"note": 72, "velocity": 104, "duration": 240}, {"note": 70, "velocity": 113, "duration": 359}, {"note": 70, "velocity": 116, "duration": 359}, {"note": 70, "velocity": 116, "duration": 239}, {"note": 70, "velocity": 119, "duration": 480}, {"note": 82, "velocity": 119, "duration": 240}, {"note": 79, "velocity": 110, "duration": 240}, {"note": 77, "velocity": 117, "duration": 359}, {"note": 77, "velocity": 113, "duration": 360}, {"note": 79, "velocity": 113, "duration": 240}, {"note": 77, "velocity": 117, "duration": 480}, {"note": 74, "velocity": 117, "duration": 240}, {"note": 77, "velocity": 114, "duration": 240}, {"note": 79, "velocity": 116, "duration": 720}, {"note": 82, "velocity": 119, "duration": 239}, {"note": 82, "velocity": 119, "duration": 480}, {"note": 79, "velocity": 119, "duration": 480}, {"note": 77, "velocity": 120, "duration": 1440}, {"note": 74, "velocity": 116, "duration": 240}, {"note": 77, "velocity": 108, "duration": 240}, {"note": 79, "velocity": 114, "duration": 359}, {"note": 79, "velocity": 114, "duration": 359}, {"note": 79, "velocity": 116, "duration": 239}, {"note": 79, "velocity": 116, "duration": 480}, {"note": 82, "velocity": 108, "duration": 240}, {"note": 79, "velocity": 104, "duration": 240}, {"note": 77, "velocity": 114, "duration": 239}, {"note": 77, "velocity": 104, "duration": 480}, {"note": 79, "velocity": 104, "duration": 240}, {"note": 77, "velocity": 114, "duration": 480}, {"note": 74, "velocity": 113, "duration": 240}, {"note": 72, "velocity": 108, "duration": 240}, {"note": 70, "velocity": 113, "duration": 359}, {"note": 70, "velocity": 123, "duration": 359}, {"note": 70, "velocity": 116, "duration": 239}, {"note": 70, "velocity": 119, "duration": 480}, {"note": 77, "velocity": 114, "duration": 480}, {"note": 74, "velocity": 117, "duration": 1439}, {"note": 74, "velocity": 114, "duration": 240}, {"note": 72, "velocity": 104, "duration": 240}, {"note": 70, "velocity": 113, "duration": 359}, {"note": 70, "velocity": 116, "duration": 359}, {"note": 70, "velocity": 116, "duration": 239}, {"note": 70, "velocity": 119, "duration": 479}, {"note": 70, "velocity": 119, "duration": 240}, {"note": 74, "velocity": 110, "duration": 240}, {"note": 77, "velocity": 117, "duration": 359}, {"note": 77, "velocity": 113, "duration": 360}, {"note": 74, "velocity": 113, "duration": 240}, {"note": 77, "velocity": 117, "duration": 480}, {"note": 74, "velocity": 117, "duration": 240}, {"note": 77, "velocity": 114, "duration": 240}, {"note": 79, "velocity": 116, "duration": 2640}, {"note": 65, "velocity": 100, "duration": 240}, {"note": 74, "velocity": 110, "duration": 360}, {"note": 72, "velocity": 94, "duration": 360}, {"note": 70, "velocity": 113, "duration": 239}, {"note": 70, "velocity": 119, "duration": 1824}, {"note": 0, "velocity": 0, "duration": 16896}, {"note": 65, "velocity": 110, "duration": 240}, {"note": 67, "velocity": 100, "duration": 240}, {"note": 70, "velocity": 116, "duration": 359}, {"note": 70, "velocity": 100, "duration": 359}, {"note": 70, "velocity": 106, "duration": 239}, {"note": 70, "velocity": 113, "duration": 480}, {"note": 67, "velocity": 110, "duration": 240}, {"note": 65, "velocity": 98, "duration": 240}, {"note": 70, "velocity": 113, "duration": 359}, {"note": 70, "velocity": 113, "duration": 360}, {"note": 72, "velocity": 110, "duration": 292}, {"note": 70, "velocity": 119, "duration": 480}, {"note": 67, "velocity": 102, "duration": 240}, {"note": 70, "velocity": 100, "duration": 240}, {"note": 72, "velocity": 102, "duration": 359}, {"note": 72, "velocity": 107, "duration": 359}, {"note": 72, "velocity": 104, "duration": 239}, {"note": 72, "velocity": 107, "duration": 480}, {"note": 70, "velocity": 113, "duration": 246}, {"note": 67, "velocity": 98, "duration": 240}, {"note": 72, "velocity": 108, "duration": 359}, {"note": 72, "velocity": 107, "duration": 360}, {"note": 74, "velocity": 110, "duration": 240}, {"note": 72, "velocity": 110, "duration": 480}, {"note": 74, "velocity": 104, "duration": 240}, {"note": 77, "velocity": 108, "duration": 240}, {"note": 79, "velocity": 116, "duration": 359}, {"note": 79, "velocity": 114, "duration": 360}, {"note": 77, "velocity": 113, "duration": 240}, {"note": 79, "velocity": 116, "duration": 480}, {"note": 82, "velocity": 116, "duration": 240}, {"note": 79, "velocity": 114, "duration": 240}, {"note": 77, "velocity": 110, "duration": 240}, {"note": 74, "velocity": 110, "duration": 240}, {"note": 72, "velocity": 107, "duration": 256}, {"note": 70, "velocity": 103, "duration": 240}, {"note": 67, "velocity": 91, "duration": 480}, {"note": 65, "velocity": 110, "duration": 240}, {"note": 67, "velocity": 102, "duration": 240}, {"note": 70, "velocity": 113, "duration": 359}, {"note": 70, "velocity": 113, "duration": 359}, {"note": 70, "velocity": 113, "duration": 239}, {"note": 70, "velocity": 116, "duration": 480}, {"note": 72, "velocity": 110, "duration": 480}, {"note": 70, "velocity": 116, "duration": 960}, {"note": 0, "velocity": 0, "duration": 480}, {"note": 74, "velocity": 116, "duration": 240}, {"note": 77, "velocity": 108, "duration": 240}, {"note": 79, "velocity": 114, "duration": 359}, {"note": 79, "velocity": 114, "duration": 359}, {"note": 79, "velocity": 116, "duration": 239}, {"note": 79, "velocity": 116, "duration": 480}, {"note": 82, "velocity": 108, "duration": 240}, {"note": 79, "velocity": 104, "duration": 240}, {"note": 77, "velocity": 114, "duration": 239}, {"note": 77, "velocity": 104, "duration": 480}, {"note": 79, "velocity": 104, "duration": 240}, {"note": 77, "velocity": 114, "duration": 480}, {"note": 74, "velocity": 113, "duration": 240}, {"note": 72, "velocity": 108, "duration": 240}, {"note": 70, "velocity": 113, "duration": 359}, {"note": 70, "velocity": 123, "duration": 359}, {"note": 70, "velocity": 116, "duration": 239}, {"note": 70, "velocity": 119, "duration": 480}, {"note": 72, "velocity": 114, "duration": 480}, {"note": 74, "velocity": 117, "duration": 1439}, {"note": 74, "velocity": 114, "duration": 240}, {"note": 72, "velocity": 104, "duration": 240}, {"note": 70, "velocity": 113, "duration": 359}, {"note": 70, "velocity": 116, "duration": 359}, {"note": 70, "velocity": 116, "duration": 239}, {"note": 70, "velocity": 119, "duration": 480}, {"note": 82, "velocity": 119, "duration": 240}, {"note": 79, "velocity": 110, "duration": 240}, {"note": 77, "velocity": 117, "duration": 359}, {"note": 77, "velocity": 113, "duration": 360}, {"note": 79, "velocity": 113, "duration": 240}, {"note": 77, "velocity": 117, "duration": 480}, {"note": 74, "velocity": 117, "duration": 240}, {"note": 77, "velocity": 114, "duration": 240}, {"note": 79, "velocity": 116, "duration": 720}, {"note": 82, "velocity": 119, "duration": 239}, {"note": 82, "velocity": 119, "duration": 480}, {"note": 79, "velocity": 119, "duration": 480}, {"note": 77, "velocity": 120, "duration": 1440}, {"note": 74, "velocity": 116, "duration": 240}, {"note": 77, "velocity": 108, "duration": 240}, {"note": 79, "velocity": 114, "duration": 359}, {"note": 79, "velocity": 114, "duration": 359}, {"note": 79, "velocity": 116, "duration": 239}, {"note": 79, "velocity": 116, "duration": 480}, {"note": 82, "velocity": 108, "duration": 240}, {"note": 79, "velocity": 104, "duration": 240}, {"note": 77, "velocity": 114, "duration": 239}, {"note": 77, "velocity": 104, "duration": 480}, {"note": 79, "velocity": 104, "duration": 240}, {"note": 77, "velocity": 114, "duration": 480}, {"note": 74, "velocity": 113, "duration": 240}, {"note": 72, "velocity": 108, "duration": 240}, {"note": 70, "velocity": 113, "duration": 359}, {"note": 70, "velocity": 123, "duration": 359}, {"note": 70, "velocity": 116, "duration": 239}, {"note": 70, "velocity": 119, "duration": 480}, {"note": 0, "velocity": 0, "duration": 480}, {"note": 74, "velocity": 117, "duration": 1439}, {"note": 74, "velocity": 114, "duration": 240}, {"note": 72, "velocity": 104, "duration": 240}, {"note": 70, "velocity": 113, "duration": 359}, {"note": 70, "velocity": 116, "duration": 359}, {"note": 70, "velocity": 116, "duration": 239}, {"note": 70, "velocity": 119, "duration": 479}, {"note": 70, "velocity": 119, "duration": 240}, {"note": 74, "velocity": 110, "duration": 240}, {"note": 77, "velocity": 117, "duration": 359}, {"note": 77, "velocity": 113, "duration": 360}, {"note": 74, "velocity": 113, "duration": 240}, {"note": 77, "velocity": 117, "duration": 480}, {"note": 74, "velocity": 117, "duration": 240}, {"note": 77, "velocity": 114, "duration": 240}, {"note": 79, "velocity": 116, "duration": 2640}, {"note": 65, "velocity": 100, "duration": 240}, {"note": 74, "velocity": 110, "duration": 360}, {"note": 72, "velocity": 94, "duration": 360}, {"note": 70, "velocity": 113, "duration": 239}, {"note": 70, "velocity": 119, "duration": 1824}, {"note": 74, "velocity": 116, "duration": 240}, {"note": 77, "velocity": 108, "duration": 240}, {"note": 79, "velocity": 114, "duration": 359}, {"note": 79, "velocity": 114, "duration": 359}, {"note": 79, "velocity": 116, "duration": 239}, {"note": 79, "velocity": 116, "duration": 480}, {"note": 82, "velocity": 108, "duration": 240}, {"note": 79, "velocity": 104, "duration": 240}, {"note": 77, "velocity": 114, "duration": 239}, {"note": 77, "velocity": 104, "duration": 480}, {"note": 79, "velocity": 104, "duration": 240}, {"note": 77, "velocity": 114, "duration": 480}, {"note": 74, "velocity": 113, "duration": 240}, {"note": 72, "velocity": 108, "duration": 240}, {"note": 70, "velocity": 113, "duration": 359}, {"note": 70, "velocity": 123, "duration": 359}, {"note": 70, "velocity": 116, "duration": 239}, {"note": 70, "velocity": 119, "duration": 480}, {"note": 72, "velocity": 114, "duration": 480}, {"note": 74, "velocity": 117, "duration": 1439}, {"note": 74, "velocity": 114, "duration": 240}, {"note": 72, "velocity": 104, "duration": 240}, {"note": 70, "velocity": 113, "duration": 359}, {"note": 70, "velocity": 116, "duration": 359}, {"note": 70, "velocity": 116, "duration": 239}, {"note": 70, "velocity": 119, "duration": 480}, {"note": 82, "velocity": 119, "duration": 240}, {"note": 79, "velocity": 110, "duration": 240}, {"note": 77, "velocity": 117, "duration": 359}, {"note": 77, "velocity": 113, "duration": 360}, {"note": 79, "velocity": 113, "duration": 240}, {"note": 77, "velocity": 117, "duration": 480}, {"note": 74, "velocity": 117, "duration": 240}, {"note": 77, "velocity": 114, "duration": 240}, {"note": 79, "velocity": 116, "duration": 720}, {"note": 82, "velocity": 119, "duration": 239}, {"note": 82, "velocity": 119, "duration": 480}, {"note": 79, "velocity": 119, "duration": 480}, {"note": 77, "velocity": 120, "duration": 1440}, {"note": 74, "velocity": 116, "duration": 240}, {"note": 77, "velocity": 108, "duration": 240}, {"note": 79, "velocity": 114, "duration": 359}, {"note": 79, "velocity": 114, "duration": 359}, {"note": 79, "velocity": 116, "duration": 239}, {"note": 79, "velocity": 116, "duration": 480}, {"note": 82, "velocity": 108, "duration": 240}, {"note": 79, "velocity": 104, "duration": 240}, {"note": 77, "velocity": 114, "duration": 239}, {"note": 77, "velocity": 104, "duration": 480}, {"note": 79, "velocity": 104, "duration": 240}, {"note": 77, "velocity": 114, "duration": 480}, {"note": 74, "velocity": 113, "duration": 240}, {"note": 72, "velocity": 108, "duration": 240}, {"note": 70, "velocity": 113, "duration": 359}, {"note": 70, "velocity": 123, "duration": 359}, {"note": 70, "velocity": 116, "duration": 239}, {"note": 70, "velocity": 119, "duration": 480}, {"note": 77, "velocity": 114, "duration": 480}, {"note": 74, "velocity": 117, "duration": 1439}, {"note": 74, "velocity": 114, "duration": 240}, {"note": 72, "velocity": 104, "duration": 240}, {"note": 70, "velocity": 113, "duration": 359}, {"note": 70, "velocity": 116, "duration": 359}, {"note": 70, "velocity": 116, "duration": 239}, {"note": 70, "velocity": 119, "duration": 479}, {"note": 70, "velocity": 119, "duration": 240}, {"note": 74, "velocity": 110, "duration": 240}, {"note": 77, "velocity": 117, "duration": 359}, {"note": 77, "velocity": 113, "duration": 360}, {"note": 74, "velocity": 113, "duration": 240}, {"note": 77, "velocity": 117, "duration": 480}, {"note": 74, "velocity": 117, "duration": 240}, {"note": 77, "velocity": 114, "duration": 240}, {"note": 79, "velocity": 116, "duration": 1720}, {"note": 0, "velocity": 0, "duration": 1191}, {"note": 65, "velocity": 100, "duration": 275}, {"note": 0, "velocity": 0, "duration": 85}, {"note": 74, "velocity": 113, "duration": 465}, {"note": 72, "velocity": 117, "duration": 401}, {"note": 0, "velocity": 0, "duration": 79}, {"note": 74, "velocity": 117, "duration": 825}, {"note": 72, "velocity": 100, "duration": 522}, {"note": 0, "velocity": 0, "duration": 78}, {"note": 70, "velocity": 104, "duration": 1539}]]