[[{"note": 69, "velocity": 110, "duration": 360}, {"note": 72, "velocity": 108, "duration": 360}, {"note": 69, "velocity": 113, "duration": 720}, {"note": 79, "velocity": 102, "duration": 760}, {"note": 76, "velocity": 108, "duration": 736}, {"note": 76, "velocity": 114, "duration": 1200}, {"note": 0, "velocity": 0, "duration": 7383}, {"note": 79, "velocity": 114, "duration": 239}, {"note": 79, "velocity": 110, "duration": 239}, {"note": 79, "velocity": 110, "duration": 239}, {"note": 79, "velocity": 113, "duration": 240}, {"note": 81, "velocity": 116, "duration": 480}, {"note": 76, "velocity": 117, "duration": 480}, {"note": 79, "velocity": 117, "duration": 1920}, {"note": 81, "velocity": 116, "duration": 360}, {"note": 79, "velocity": 96, "duration": 289}, {"note": 76, "velocity": 102, "duration": 240}, {"note": 74, "velocity": 100, "duration": 240}, {"note": 76, "velocity": 100, "duration": 480}, {"note": 69, "velocity": 108, "duration": 480}, {"note": 72, "velocity": 108, "duration": 1920}, {"note": 81, "velocity": 114, "duration": 720}, {"note": 84, "velocity": 110, "duration": 240}, {"note": 81, "velocity": 107, "duration": 480}, {"note": 79, "velocity": 110, "duration": 486}, {"note": 81, "velocity": 110, "duration": 720}, {"note": 84, "velocity": 100, "duration": 240}, {"note": 81, "velocity": 94, "duration": 480}, {"note": 79, "velocity": 108, "duration": 239}, {"note": 79, "velocity": 104, "duration": 240}, {"note": 81, "velocity": 98, "duration": 240}, {"note": 79, "velocity": 107, "duration": 239}, {"note": 79, "velocity": 110, "duration": 239}, {"note": 79, "velocity": 110, "duration": 240}, {"note": 72, "velocity": 100, "duration": 506}, {"note": 76, "velocity": 90, "duration": 480}, {"note": 74, "velocity": 91, "duration": 1920}, {"note": 79, "velocity": 114, "duration": 239}, {"note": 79, "velocity": 110, "duration": 239}, {"note": 79, "velocity": 110, "duration": 239}, {"note": 79, "velocity": 113, "duration": 240}, {"note": 81, "velocity": 116, "duration": 480}, {"note": 76, "velocity": 117, "duration": 480}, {"note": 79, "velocity": 117, "duration": 1679}, {"note": 79, "velocity": 94, "duration": 240}, {"note": 81, "velocity": 100, "duration": 239}, {"note": 81, "velocity": 104, "duration": 480}, {"note": 79, "velocity": 102, "duration": 240}, {"note": 81, "velocity": 113, "duration": 480}, {"note": 76, "velocity": 107, "duration": 240}, {"note": 74, "velocity": 92, "duration": 269}, {"note": 76, "velocity": 93, "duration": 306}, {"note": 69, "velocity": 97, "duration": 240}, {"note": 72, "velocity": 104, "duration": 1440}, {"note": 81, "velocity": 116, "duration": 720}, {"note": 84, "velocity": 110, "duration": 240}, {"note": 81, "velocity": 116, "duration": 480}, {"note": 79, "velocity": 114, "duration": 480}, {"note": 81, "velocity": 114, "duration": 239}, {"note": 81, "velocity": 110, "duration": 480}, {"note": 84, "velocity": 113, "duration": 240}, {"note": 81, "velocity": 110, "duration": 960}, {"note": 91, "velocity": 114, "duration": 239}, {"note": 91, "velocity": 102, "duration": 239}, {"note": 91, "velocity": 100, "duration": 239}, {"note": 91, "velocity": 110, "duration": 240}, {"note": 81, "velocity": 117, "duration": 480}, {"note": 86, "velocity": 117, "duration": 480}, {"note": 84, "velocity": 116, "duration": 3840}, {"note": 81, "velocity": 110, "duration": 240}, {"note": 84, "velocity": 92, "duration": 243}, {"note": 81, "velocity": 96, "duration": 240}, {"note": 79, "velocity": 98, "duration": 251}, {"note": 91, "velocity": 116, "duration": 480}, {"note": 88, "velocity": 119, "duration": 479}, {"note": 88, "velocity": 113, "duration": 1920}, {"note": 81, "velocity": 117, "duration": 240}, {"note": 76, "velocity": 104, "duration": 240}, {"note": 84, "velocity": 110, "duration": 240}, {"note": 81, "velocity": 94, "duration": 240}, {"note": 84, "velocity": 113, "duration": 480}, {"note": 81, "velocity": 116, "duration": 479}, {"note": 81, "velocity": 116, "duration": 240}, {"note": 79, "velocity": 102, "duration": 1680}, {"note": 81, "velocity": 119, "duration": 239}, {"note": 81, "velocity": 114, "duration": 240}, {"note": 79, "velocity": 114, "duration": 240}, {"note": 81, "velocity": 110, "duration": 240}, {"note": 76, "velocity": 114, "duration": 240}, {"note": 79, "velocity": 114, "duration": 720}, {"note": 81, "velocity": 113, "duration": 239}, {"note": 81, "velocity": 113, "duration": 240}, {"note": 79, "velocity": 110, "duration": 240}, {"note": 81, "velocity": 113, "duration": 240}, {"note": 91, "velocity": 110, "duration": 480}, {"note": 88, "velocity": 117, "duration": 480}, {"note": 86, "velocity": 119, "duration": 239}, {"note": 86, "velocity": 113, "duration": 239}, {"note": 86, "velocity": 110, "duration": 240}, {"note": 84, "velocity": 110, "duration": 240}, {"note": 91, "velocity": 113, "duration": 479}, {"note": 91, "velocity": 110, "duration": 480}, {"note": 88, "velocity": 110, "duration": 240}, {"note": 86, "velocity": 107, "duration": 1680}, {"note": 81, "velocity": 110, "duration": 240}, {"note": 84, "velocity": 92, "duration": 243}, {"note": 81, "velocity": 96, "duration": 240}, {"note": 79, "velocity": 98, "duration": 251}, {"note": 91, "velocity": 116, "duration": 480}, {"note": 88, "velocity": 119, "duration": 479}, {"note": 88, "velocity": 113, "duration": 1920}, {"note": 81, "velocity": 117, "duration": 240}, {"note": 76, "velocity": 104, "duration": 240}, {"note": 84, "velocity": 110, "duration": 240}, {"note": 81, "velocity": 94, "duration": 240}, {"note": 84, "velocity": 113, "duration": 480}, {"note": 81, "velocity": 116, "duration": 479}, {"note": 81, "velocity": 116, "duration": 240}, {"note": 79, "velocity": 102, "duration": 1680}, {"note": 81, "velocity": 119, "duration": 239}, {"note": 81, "velocity": 114, "duration": 240}, {"note": 79, "velocity": 114, "duration": 240}, {"note": 81, "velocity": 110, "duration": 240}, {"note": 76, "velocity": 114, "duration": 240}, {"note": 79, "velocity": 114, "duration": 720}, {"note": 81, "velocity": 113, "duration": 239}, {"note": 81, "velocity": 113, "duration": 240}, {"note": 79, "velocity": 110, "duration": 240}, {"note": 81, "velocity": 113, "duration": 240}, {"note": 91, "velocity": 110, "duration": 480}, {"note": 88, "velocity": 117, "duration": 480}, {"note": 86, "velocity": 119, "duration": 239}, {"note": 86, "velocity": 113, "duration": 239}, {"note": 86, "velocity": 110, "duration": 240}, {"note": 84, "velocity": 110, "duration": 240}, {"note": 88, "velocity": 114, "duration": 479}, {"note": 88, "velocity": 113, "duration": 240}, {"note": 86, "velocity": 104, "duration": 240}, {"note": 84, "velocity": 108, "duration": 1080}, {"note": 0, "velocity": 0, "duration": 8520}, {"note": 79, "velocity": 114, "duration": 239}, {"note": 79, "velocity": 110, "duration": 239}, {"note": 79, "velocity": 110, "duration": 239}, {"note": 79, "velocity": 113, "duration": 240}, {"note": 81, "velocity": 116, "duration": 480}, {"note": 76, "velocity": 117, "duration": 480}, {"note": 79, "velocity": 117, "duration": 1920}, {"note": 81, "velocity": 116, "duration": 360}, {"note": 79, "velocity": 96, "duration": 289}, {"note": 76, "velocity": 102, "duration": 240}, {"note": 74, "velocity": 100, "duration": 240}, {"note": 76, "velocity": 100, "duration": 480}, {"note": 69, "velocity": 108, "duration": 480}, {"note": 72, "velocity": 108, "duration": 1920}, {"note": 81, "velocity": 114, "duration": 720}, {"note": 84, "velocity": 110, "duration": 240}, {"note": 81, "velocity": 107, "duration": 480}, {"note": 79, "velocity": 110, "duration": 486}, {"note": 81, "velocity": 110, "duration": 720}, {"note": 84, "velocity": 100, "duration": 240}, {"note": 81, "velocity": 94, "duration": 480}, {"note": 79, "velocity": 108, "duration": 239}, {"note": 79, "velocity": 104, "duration": 240}, {"note": 81, "velocity": 98, "duration": 240}, {"note": 79, "velocity": 107, "duration": 239}, {"note": 79, "velocity": 110, "duration": 239}, {"note": 79, "velocity": 110, "duration": 240}, {"note": 72, "velocity": 100, "duration": 506}, {"note": 76, "velocity": 90, "duration": 480}, {"note": 74, "velocity": 91, "duration": 1920}, {"note": 79, "velocity": 114, "duration": 239}, {"note": 79, "velocity": 110, "duration": 239}, {"note": 79, "velocity": 110, "duration": 239}, {"note": 79, "velocity": 113, "duration": 240}, {"note": 81, "velocity": 116, "duration": 480}, {"note": 76, "velocity": 117, "duration": 480}, {"note": 79, "velocity": 117, "duration": 1679}, {"note": 79, "velocity": 94, "duration": 240}, {"note": 81, "velocity": 100, "duration": 239}, {"note": 81, "velocity": 104, "duration": 480}, {"note": 79, "velocity": 102, "duration": 240}, {"note": 81, "velocity": 113, "duration": 480}, {"note": 76, "velocity": 107, "duration": 240}, {"note": 74, "velocity": 92, "duration": 269}, {"note": 76, "velocity": 93, "duration": 306}, {"note": 72, "velocity": 104, "duration": 1680}, {"note": 81, "velocity": 116, "duration": 720}, {"note": 84, "velocity": 110, "duration": 240}, {"note": 81, "velocity": 116, "duration": 480}, {"note": 79, "velocity": 114, "duration": 480}, {"note": 81, "velocity": 114, "duration": 239}, {"note": 81, "velocity": 110, "duration": 480}, {"note": 84, "velocity": 113, "duration": 240}, {"note": 81, "velocity": 110, "duration": 960}, {"note": 91, "velocity": 114, "duration": 239}, {"note": 91, "velocity": 102, "duration": 239}, {"note": 91, "velocity": 100, "duration": 239}, {"note": 91, "velocity": 110, "duration": 240}, {"note": 81, "velocity": 117, "duration": 480}, {"note": 86, "velocity": 117, "duration": 480}, {"note": 84, "velocity": 116, "duration": 3840}, {"note": 81, "velocity": 110, "duration": 240}, {"note": 84, "velocity": 92, "duration": 243}, {"note": 81, "velocity": 96, "duration": 240}, {"note": 79, "velocity": 98, "duration": 251}, {"note": 91, "velocity": 116, "duration": 480}, {"note": 88, "velocity": 119, "duration": 479}, {"note": 88, "velocity": 113, "duration": 1920}, {"note": 81, "velocity": 117, "duration": 240}, {"note": 76, "velocity": 104, "duration": 240}, {"note": 84, "velocity": 110, "duration": 240}, {"note": 81, "velocity": 94, "duration": 240}, {"note": 84, "velocity": 113, "duration": 480}, {"note": 81, "velocity": 116, "duration": 479}, {"note": 81, "velocity": 116, "duration": 240}, {"note": 79, "velocity": 102, "duration": 1680}, {"note": 81, "velocity": 119, "duration": 239}, {"note": 81, "velocity": 114, "duration": 240}, {"note": 79, "velocity": 114, "duration": 240}, {"note": 81, "velocity": 110, "duration": 240}, {"note": 76, "velocity": 114, "duration": 240}, {"note": 79, "velocity": 114, "duration": 720}, {"note": 81, "velocity": 113, "duration": 239}, {"note": 81, "velocity": 113, "duration": 240}, {"note": 79, "velocity": 110, "duration": 240}, {"note": 81, "velocity": 113, "duration": 240}, {"note": 91, "velocity": 110, "duration": 480}, {"note": 88, "velocity": 117, "duration": 480}, {"note": 86, "velocity": 119, "duration": 239}, {"note": 86, "velocity": 113, "duration": 239}, {"note": 86, "velocity": 110, "duration": 240}, {"note": 84, "velocity": 110, "duration": 240}, {"note": 91, "velocity": 113, "duration": 479}, {"note": 91, "velocity": 110, "duration": 480}, {"note": 88, "velocity": 110, "duration": 240}, {"note": 86, "velocity": 107, "duration": 1680}, {"note": 81, "velocity": 110, "duration": 240}, {"note": 84, "velocity": 92, "duration": 243}, {"note": 81, "velocity": 96, "duration": 240}, {"note": 79, "velocity": 98, "duration": 251}, {"note": 91, "velocity": 116, "duration": 480}, {"note": 88, "velocity": 119, "duration": 479}, {"note": 88, "velocity": 113, "duration": 1920}, {"note": 81, "velocity": 117, "duration": 240}, {"note": 76, "velocity": 104, "duration": 240}, {"note": 84, "velocity": 110, "duration": 240}, {"note": 81, "velocity": 94, "duration": 240}, {"note": 84, "velocity": 113, "duration": 480}, {"note": 81, "velocity": 116, "duration": 479}, {"note": 81, "velocity": 116, "duration": 240}, {"note": 79, "velocity": 102, "duration": 1680}, {"note": 81, "velocity": 119, "duration": 239}, {"note": 81, "velocity": 114, "duration": 240}, {"note": 79, "velocity": 114, "duration": 240}, {"note": 81, "velocity": 110, "duration": 240}, {"note": 76, "velocity": 114, "duration": 240}, {"note": 79, "velocity": 114, "duration": 720}, {"note": 81, "velocity": 113, "duration": 239}, {"note": 81, "velocity": 113, "duration": 240}, {"note": 79, "velocity": 110, "duration": 240}, {"note": 81, "velocity": 113, "duration": 240}, {"note": 91, "velocity": 110, "duration": 480}, {"note": 88, "velocity": 117, "duration": 480}, {"note": 86, "velocity": 119, "duration": 239}, {"note": 86, "velocity": 113, "duration": 239}, {"note": 86, "velocity": 110, "duration": 240}, {"note": 84, "velocity": 110, "duration": 240}, {"note": 88, "velocity": 114, "duration": 479}, {"note": 88, "velocity": 113, "duration": 240}, {"note": 86, "velocity": 104, "duration": 240}, {"note": 84, "velocity": 108, "duration": 2580}, {"note": 0, "velocity": 0, "duration": 14700}, {"note": 81, "velocity": 110, "duration": 240}, {"note": 84, "velocity": 92, "duration": 243}, {"note": 81, "velocity": 96, "duration": 240}, {"note": 79, "velocity": 98, "duration": 251}, {"note": 91, "velocity": 116, "duration": 480}, {"note": 88, "velocity": 119, "duration": 479}, {"note": 88, "velocity": 113, "duration": 1920}, {"note": 81, "velocity": 117, "duration": 240}, {"note": 76, "velocity": 104, "duration": 240}, {"note": 84, "velocity": 110, "duration": 240}, {"note": 81, "velocity": 94, "duration": 240}, {"note": 84, "velocity": 113, "duration": 480}, {"note": 81, "velocity": 116, "duration": 479}, {"note": 81, "velocity": 116, "duration": 240}, {"note": 79, "velocity": 102, "duration": 1680}, {"note": 81, "velocity": 119, "duration": 239}, {"note": 81, "velocity": 114, "duration": 240}, {"note": 79, "velocity": 114, "duration": 240}, {"note": 81, "velocity": 110, "duration": 240}, {"note": 76, "velocity": 114, "duration": 240}, {"note": 79, "velocity": 114, "duration": 720}, {"note": 81, "velocity": 113, "duration": 239}, {"note": 81, "velocity": 113, "duration": 240}, {"note": 79, "velocity": 110, "duration": 240}, {"note": 81, "velocity": 113, "duration": 240}, {"note": 91, "velocity": 110, "duration": 480}, {"note": 88, "velocity": 117, "duration": 480}, {"note": 86, "velocity": 119, "duration": 239}, {"note": 86, "velocity": 113, "duration": 239}, {"note": 86, "velocity": 110, "duration": 240}, {"note": 84, "velocity": 110, "duration": 240}, {"note": 91, "velocity": 113, "duration": 479}, {"note": 91, "velocity": 110, "duration": 480}, {"note": 88, "velocity": 110, "duration": 240}, {"note": 86, "velocity": 107, "duration": 1680}, {"note": 81, "velocity": 110, "duration": 240}, {"note": 84, "velocity": 92, "duration": 243}, {"note": 81, "velocity": 96, "duration": 240}, {"note": 79, "velocity": 98, "duration": 251}, {"note": 91, "velocity": 116, "duration": 480}, {"note": 88, "velocity": 119, "duration": 479}, {"note": 88, "velocity": 113, "duration": 1920}, {"note": 81, "velocity": 117, "duration": 240}, {"note": 76, "velocity": 104, "duration": 240}, {"note": 84, "velocity": 110, "duration": 240}, {"note": 81, "velocity": 94, "duration": 240}, {"note": 84, "velocity": 113, "duration": 480}, {"note": 81, "velocity": 116, "duration": 479}, {"note": 81, "velocity": 116, "duration": 240}, {"note": 79, "velocity": 102, "duration": 1680}, {"note": 81, "velocity": 119, "duration": 239}, {"note": 81, "velocity": 114, "duration": 240}, {"note": 79, "velocity": 114, "duration": 240}, {"note": 81, "velocity": 110, "duration": 240}, {"note": 76, "velocity": 114, "duration": 240}, {"note": 79, "velocity": 114, "duration": 720}, {"note": 81, "velocity": 113, "duration": 239}, {"note": 81, "velocity": 113, "duration": 240}, {"note": 79, "velocity": 110, "duration": 240}, {"note": 81, "velocity": 113, "duration": 240}, {"note": 91, "velocity": 110, "duration": 480}, {"note": 88, "velocity": 117, "duration": 480}, {"note": 86, "velocity": 119, "duration": 239}, {"note": 86, "velocity": 113, "duration": 239}, {"note": 86, "velocity": 110, "duration": 240}, {"note": 84, "velocity": 110, "duration": 240}, {"note": 88, "velocity": 114, "duration": 479}, {"note": 88, "velocity": 113, "duration": 240}, {"note": 86, "velocity": 104, "duration": 240}, {"note": 84, "velocity": 108, "duration": 1920}, {"note": 81, "velocity": 110, "duration": 240}, {"note": 84, "velocity": 92, "duration": 243}, {"note": 81, "velocity": 96, "duration": 240}, {"note": 79, "velocity": 98, "duration": 251}, {"note": 91, "velocity": 116, "duration": 480}, {"note": 88, "velocity": 119, "duration": 479}, {"note": 88, "velocity": 113, "duration": 1920}, {"note": 81, "velocity": 117, "duration": 240}, {"note": 76, "velocity": 104, "duration": 240}, {"note": 84, "velocity": 110, "duration": 240}, {"note": 81, "velocity": 94, "duration": 240}, {"note": 84, "velocity": 113, "duration": 480}, {"note": 81, "velocity": 116, "duration": 479}, {"note": 81, "velocity": 116, "duration": 240}, {"note": 79, "velocity": 102, "duration": 1680}, {"note": 81, "velocity": 119, "duration": 239}, {"note": 81, "velocity": 114, "duration": 240}, {"note": 79, "velocity": 114, "duration": 240}, {"note": 81, "velocity": 110, "duration": 240}, {"note": 76, "velocity": 114, "duration": 240}, {"note": 79, "velocity": 114, "duration": 720}, {"note": 81, "velocity": 113, "duration": 239}, {"note": 81, "velocity": 113, "duration": 240}, {"note": 79, "velocity": 110, "duration": 240}, {"note": 81, "velocity": 113, "duration": 240}, {"note": 91, "velocity": 110, "duration": 480}, {"note": 88, "velocity": 117, "duration": 480}, {"note": 86, "velocity": 119, "duration": 239}, {"note": 86, "velocity": 113, "duration": 239}, {"note": 86, "velocity": 110, "duration": 240}, {"note": 84, "velocity": 110, "duration": 240}, {"note": 91, "velocity": 113, "duration": 479}, {"note": 91, "velocity": 110, "duration": 480}, {"note": 88, "velocity": 110, "duration": 240}, {"note": 86, "velocity": 107, "duration": 1680}, {"note": 81, "velocity": 110, "duration": 240}, {"note": 84, "velocity": 92, "duration": 243}, {"note": 81, "velocity": 96, "duration": 240}, {"note": 79, "velocity": 98, "duration": 251}, {"note": 91, "velocity": 116, "duration": 480}, {"note": 88, "velocity": 119, "duration": 479}, {"note": 88, "velocity": 113, "duration": 1920}, {"note": 81, "velocity": 117, "duration": 240}, {"note": 76, "velocity": 104, "duration": 240}, {"note": 84, "velocity": 110, "duration": 240}, {"note": 81, "velocity": 94, "duration": 240}, {"note": 84, "velocity": 113, "duration": 480}, {"note": 81, "velocity": 116, "duration": 479}, {"note": 81, "velocity": 116, "duration": 240}, {"note": 79, "velocity": 102, "duration": 1680}, {"note": 81, "velocity": 119, "duration": 239}, {"note": 81, "velocity": 114, "duration": 240}, {"note": 79, "velocity": 114, "duration": 240}, {"note": 81, "velocity": 110, "duration": 240}, {"note": 76, "velocity": 114, "duration": 240}, {"note": 79, "velocity": 114, "duration": 720}, {"note": 81, "velocity": 113, "duration": 239}, {"note": 81, "velocity": 113, "duration": 240}, {"note": 79, "velocity": 110, "duration": 240}, {"note": 81, "velocity": 113, "duration": 240}, {"note": 91, "velocity": 110, "duration": 480}, {"note": 88, "velocity": 117, "duration": 480}, {"note": 86, "velocity": 119, "duration": 239}, {"note": 86, "velocity": 113, "duration": 239}, {"note": 86, "velocity": 110, "duration": 240}, {"note": 84, "velocity": 110, "duration": 240}, {"note": 88, "velocity": 114, "duration": 479}, {"note": 88, "velocity": 113, "duration": 240}, {"note": 86, "velocity": 104, "duration": 240}, {"note": 84, "velocity": 108, "duration": 1920}]]