[[{"note": 70, "velocity": 114, "duration": 240}, {"note": 73, "velocity": 110, "duration": 239}, {"note": 73, "velocity": 110, "duration": 240}, {"note": 75, "velocity": 110, "duration": 239}, {"note": 75, "velocity": 110, "duration": 240}, {"note": 77, "velocity": 104, "duration": 239}, {"note": 77, "velocity": 114, "duration": 240}, {"note": 82, "velocity": 110, "duration": 240}, {"note": 80, "velocity": 113, "duration": 720}, {"note": 77, "velocity": 108, "duration": 240}, {"note": 75, "velocity": 104, "duration": 960}, {"note": 70, "velocity": 110, "duration": 240}, {"note": 73, "velocity": 98, "duration": 239}, {"note": 73, "velocity": 96, "duration": 240}, {"note": 75, "velocity": 108, "duration": 239}, {"note": 75, "velocity": 107, "duration": 240}, {"note": 77, "velocity": 102, "duration": 239}, {"note": 77, "velocity": 107, "duration": 480}, {"note": 70, "velocity": 113, "duration": 480}, {"note": 68, "velocity": 104, "duration": 1440}, {"note": 70, "velocity": 113, "duration": 240}, {"note": 73, "velocity": 110, "duration": 239}, {"note": 73, "velocity": 110, "duration": 240}, {"note": 75, "velocity": 107, "duration": 239}, {"note": 75, "velocity": 110, "duration": 240}, {"note": 77, "velocity": 104, "duration": 239}, {"note": 77, "velocity": 107, "duration": 240}, {"note": 82, "velocity": 108, "duration": 240}, {"note": 80, "velocity": 113, "duration": 720}, {"note": 77, "velocity": 114, "duration": 240}, {"note": 75, "velocity": 113, "duration": 959}, {"note": 75, "velocity": 113, "duration": 240}, {"note": 77, "velocity": 88, "duration": 240}, {"note": 70, "velocity": 93, "duration": 480}, {"note": 75, "velocity": 110, "duration": 240}, {"note": 77, "velocity": 91, "duration": 240}, {"note": 70, "velocity": 94, "duration": 240}, {"note": 68, "velocity": 102, "duration": 240}, {"note": 70, "velocity": 92, "duration": 1439}, {"note": 70, "velocity": 108, "duration": 252}, {"note": 73, "velocity": 98, "duration": 240}, {"note": 75, "velocity": 107, "duration": 720}, {"note": 73, "velocity": 108, "duration": 240}, {"note": 70, "velocity": 107, "duration": 480}, {"note": 70, "velocity": 113, "duration": 254}, {"note": 73, "velocity": 98, "duration": 240}, {"note": 75, "velocity": 108, "duration": 720}, {"note": 73, "velocity": 94, "duration": 240}, {"note": 77, "velocity": 102, "duration": 479}, {"note": 77, "velocity": 110, "duration": 240}, {"note": 80, "velocity": 107, "duration": 240}, {"note": 82, "velocity": 110, "duration": 479}, {"note": 82, "velocity": 110, "duration": 240}, {"note": 80, "velocity": 102, "duration": 240}, {"note": 77, "velocity": 107, "duration": 246}, {"note": 75, "velocity": 100, "duration": 243}, {"note": 73, "velocity": 100, "duration": 480}, {"note": 75, "velocity": 108, "duration": 480}, {"note": 77, "velocity": 98, "duration": 960}, {"note": 70, "velocity": 104, "duration": 240}, {"note": 73, "velocity": 104, "duration": 240}, {"note": 75, "velocity": 107, "duration": 720}, {"note": 73, "velocity": 104, "duration": 240}, {"note": 70, "velocity": 92, "duration": 479}, {"note": 70, "velocity": 110, "duration": 246}, {"note": 73, "velocity": 102, "duration": 240}, {"note": 75, "velocity": 107, "duration": 480}, {"note": 73, "velocity": 107, "duration": 480}, {"note": 77, "velocity": 108, "duration": 960}, {"note": 75, "velocity": 113, "duration": 240}, {"note": 77, "velocity": 90, "duration": 240}, {"note": 70, "velocity": 104, "duration": 480}, {"note": 75, "velocity": 114, "duration": 240}, {"note": 77, "velocity": 88, "duration": 240}, {"note": 70, "velocity": 98, "duration": 240}, {"note": 68, "velocity": 89, "duration": 243}, {"note": 70, "velocity": 94, "duration": 1440}, {"note": 77, "velocity": 117, "duration": 262}, {"note": 80, "velocity": 119, "duration": 240}, {"note": 85, "velocity": 114, "duration": 720}, {"note": 84, "velocity": 108, "duration": 240}, {"note": 77, "velocity": 108, "duration": 479}, {"note": 77, "velocity": 110, "duration": 240}, {"note": 75, "velocity": 110, "duration": 240}, {"note": 73, "velocity": 110, "duration": 479}, {"note": 73, "velocity": 110, "duration": 260}, {"note": 75, "velocity": 108, "duration": 266}, {"note": 77, "velocity": 110, "duration": 479}, {"note": 77, "velocity": 108, "duration": 240}, {"note": 75, "velocity": 108, "duration": 256}, {"note": 73, "velocity": 110, "duration": 480}, {"note": 82, "velocity": 110, "duration": 240}, {"note": 85, "velocity": 114, "duration": 269}, {"note": 84, "velocity": 110, "duration": 240}, {"note": 82, "velocity": 113, "duration": 276}, {"note": 80, "velocity": 114, "duration": 240}, {"note": 75, "velocity": 114, "duration": 240}, {"note": 77, "velocity": 107, "duration": 1439}, {"note": 77, "velocity": 104, "duration": 240}, {"note": 80, "velocity": 114, "duration": 240}, {"note": 85, "velocity": 113, "duration": 720}, {"note": 84, "velocity": 117, "duration": 240}, {"note": 77, "velocity": 114, "duration": 479}, {"note": 77, "velocity": 107, "duration": 240}, {"note": 75, "velocity": 104, "duration": 244}, {"note": 73, "velocity": 107, "duration": 479}, {"note": 73, "velocity": 108, "duration": 248}, {"note": 75, "velocity": 104, "duration": 240}, {"note": 77, "velocity": 108, "duration": 960}, {"note": 75, "velocity": 113, "duration": 240}, {"note": 77, "velocity": 102, "duration": 240}, {"note": 70, "velocity": 104, "duration": 480}, {"note": 75, "velocity": 110, "duration": 240}, {"note": 77, "velocity": 88, "duration": 262}, {"note": 70, "velocity": 100, "duration": 252}, {"note": 68, "velocity": 96, "duration": 240}, {"note": 70, "velocity": 100, "duration": 1861}, {"note": 0, "velocity": 0, "duration": 7739}, {"note": 70, "velocity": 114, "duration": 234}, {"note": 73, "velocity": 110, "duration": 139}, {"note": 0, "velocity": 0, "duration": 101}, {"note": 73, "velocity": 110, "duration": 213}, {"note": 75, "velocity": 110, "duration": 164}, {"note": 0, "velocity": 0, "duration": 76}, {"note": 75, "velocity": 110, "duration": 186}, {"note": 77, "velocity": 104, "duration": 154}, {"note": 0, "velocity": 0, "duration": 86}, {"note": 77, "velocity": 114, "duration": 182}, {"note": 82, "velocity": 110, "duration": 179}, {"note": 0, "velocity": 0, "duration": 61}, {"note": 80, "velocity": 113, "duration": 583}, {"note": 0, "velocity": 0, "duration": 137}, {"note": 77, "velocity": 108, "duration": 231}, {"note": 75, "velocity": 104, "duration": 303}, {"note": 0, "velocity": 0, "duration": 657}, {"note": 70, "velocity": 110, "duration": 193}, {"note": 73, "velocity": 98, "duration": 142}, {"note": 0, "velocity": 0, "duration": 98}, {"note": 73, "velocity": 96, "duration": 199}, {"note": 75, "velocity": 108, "duration": 151}, {"note": 0, "velocity": 0, "duration": 89}, {"note": 75, "velocity": 107, "duration": 173}, {"note": 0, "velocity": 0, "duration": 67}, {"note": 77, "velocity": 102, "duration": 142}, {"note": 0, "velocity": 0, "duration": 98}, {"note": 77, "velocity": 107, "duration": 226}, {"note": 0, "velocity": 0, "duration": 254}, {"note": 70, "velocity": 113, "duration": 196}, {"note": 0, "velocity": 0, "duration": 284}, {"note": 68, "velocity": 104, "duration": 163}, {"note": 0, "velocity": 0, "duration": 1277}, {"note": 70, "velocity": 113, "duration": 200}, {"note": 73, "velocity": 110, "duration": 130}, {"note": 0, "velocity": 0, "duration": 110}, {"note": 73, "velocity": 110, "duration": 183}, {"note": 75, "velocity": 107, "duration": 170}, {"note": 0, "velocity": 0, "duration": 70}, {"note": 75, "velocity": 110, "duration": 186}, {"note": 77, "velocity": 104, "duration": 148}, {"note": 0, "velocity": 0, "duration": 92}, {"note": 77, "velocity": 107, "duration": 158}, {"note": 0, "velocity": 0, "duration": 82}, {"note": 82, "velocity": 108, "duration": 164}, {"note": 0, "velocity": 0, "duration": 76}, {"note": 80, "velocity": 113, "duration": 273}, {"note": 0, "velocity": 0, "duration": 447}, {"note": 77, "velocity": 114, "duration": 227}, {"note": 75, "velocity": 113, "duration": 234}, {"note": 0, "velocity": 0, "duration": 726}, {"note": 75, "velocity": 113, "duration": 230}, {"note": 77, "velocity": 88, "duration": 217}, {"note": 70, "velocity": 93, "duration": 286}, {"note": 0, "velocity": 0, "duration": 194}, {"note": 75, "velocity": 110, "duration": 188}, {"note": 77, "velocity": 91, "duration": 187}, {"note": 70, "velocity": 94, "duration": 110}, {"note": 0, "velocity": 0, "duration": 130}, {"note": 68, "velocity": 102, "duration": 95}, {"note": 0, "velocity": 0, "duration": 145}, {"note": 70, "velocity": 92, "duration": 205}, {"note": 0, "velocity": 0, "duration": 1235}, {"note": 70, "velocity": 108, "duration": 252}, {"note": 73, "velocity": 98, "duration": 221}, {"note": 75, "velocity": 107, "duration": 563}, {"note": 0, "velocity": 0, "duration": 157}, {"note": 73, "velocity": 108, "duration": 236}, {"note": 70, "velocity": 107, "duration": 203}, {"note": 0, "velocity": 0, "duration": 277}, {"note": 70, "velocity": 113, "duration": 254}, {"note": 73, "velocity": 98, "duration": 208}, {"note": 75, "velocity": 108, "duration": 438}, {"note": 0, "velocity": 0, "duration": 282}, {"note": 73, "velocity": 94, "duration": 181}, {"note": 77, "velocity": 102, "duration": 268}, {"note": 0, "velocity": 0, "duration": 212}, {"note": 77, "velocity": 110, "duration": 203}, {"note": 80, "velocity": 107, "duration": 177}, {"note": 0, "velocity": 0, "duration": 63}, {"note": 82, "velocity": 110, "duration": 326}, {"note": 0, "velocity": 0, "duration": 154}, {"note": 82, "velocity": 110, "duration": 215}, {"note": 80, "velocity": 102, "duration": 235}, {"note": 77, "velocity": 107, "duration": 246}, {"note": 75, "velocity": 100, "duration": 243}, {"note": 73, "velocity": 100, "duration": 340}, {"note": 0, "velocity": 0, "duration": 140}, {"note": 75, "velocity": 108, "duration": 425}, {"note": 77, "velocity": 98, "duration": 219}, {"note": 0, "velocity": 0, "duration": 741}, {"note": 70, "velocity": 104, "duration": 237}, {"note": 73, "velocity": 104, "duration": 221}, {"note": 75, "velocity": 107, "duration": 658}, {"note": 0, "velocity": 0, "duration": 62}, {"note": 73, "velocity": 104, "duration": 236}, {"note": 70, "velocity": 92, "duration": 204}, {"note": 0, "velocity": 0, "duration": 276}, {"note": 70, "velocity": 110, "duration": 246}, {"note": 73, "velocity": 102, "duration": 197}, {"note": 75, "velocity": 107, "duration": 477}, {"note": 73, "velocity": 107, "duration": 336}, {"note": 0, "velocity": 0, "duration": 144}, {"note": 77, "velocity": 108, "duration": 254}, {"note": 0, "velocity": 0, "duration": 706}, {"note": 75, "velocity": 113, "duration": 215}, {"note": 77, "velocity": 90, "duration": 222}, {"note": 70, "velocity": 104, "duration": 224}, {"note": 0, "velocity": 0, "duration": 256}, {"note": 75, "velocity": 114, "duration": 194}, {"note": 77, "velocity": 88, "duration": 216}, {"note": 70, "velocity": 98, "duration": 205}, {"note": 68, "velocity": 89, "duration": 243}, {"note": 70, "velocity": 94, "duration": 390}, {"note": 0, "velocity": 0, "duration": 1050}, {"note": 77, "velocity": 117, "duration": 262}, {"note": 80, "velocity": 119, "duration": 221}, {"note": 85, "velocity": 114, "duration": 455}, {"note": 0, "velocity": 0, "duration": 265}, {"note": 84, "velocity": 108, "duration": 213}, {"note": 77, "velocity": 108, "duration": 213}, {"note": 0, "velocity": 0, "duration": 267}, {"note": 77, "velocity": 110, "duration": 224}, {"note": 75, "velocity": 110, "duration": 226}, {"note": 73, "velocity": 110, "duration": 357}, {"note": 0, "velocity": 0, "duration": 123}, {"note": 73, "velocity": 110, "duration": 260}, {"note": 75, "velocity": 108, "duration": 266}, {"note": 77, "velocity": 110, "duration": 194}, {"note": 0, "velocity": 0, "duration": 286}, {"note": 77, "velocity": 108, "duration": 208}, {"note": 75, "velocity": 108, "duration": 256}, {"note": 73, "velocity": 110, "duration": 222}, {"note": 0, "velocity": 0, "duration": 258}, {"note": 82, "velocity": 110, "duration": 204}, {"note": 85, "velocity": 114, "duration": 269}, {"note": 84, "velocity": 110, "duration": 238}, {"note": 82, "velocity": 113, "duration": 276}, {"note": 80, "velocity": 114, "duration": 231}, {"note": 75, "velocity": 114, "duration": 229}, {"note": 77, "velocity": 107, "duration": 295}, {"note": 0, "velocity": 0, "duration": 1145}, {"note": 77, "velocity": 104, "duration": 175}, {"note": 0, "velocity": 0, "duration": 65}, {"note": 80, "velocity": 114, "duration": 187}, {"note": 85, "velocity": 113, "duration": 588}, {"note": 0, "velocity": 0, "duration": 132}, {"note": 84, "velocity": 117, "duration": 210}, {"note": 77, "velocity": 114, "duration": 165}, {"note": 0, "velocity": 0, "duration": 315}, {"note": 77, "velocity": 107, "duration": 210}, {"note": 75, "velocity": 104, "duration": 244}, {"note": 73, "velocity": 107, "duration": 326}, {"note": 0, "velocity": 0, "duration": 154}, {"note": 73, "velocity": 108, "duration": 248}, {"note": 75, "velocity": 104, "duration": 221}, {"note": 77, "velocity": 108, "duration": 220}, {"note": 0, "velocity": 0, "duration": 740}, {"note": 75, "velocity": 113, "duration": 221}, {"note": 77, "velocity": 102, "duration": 237}, {"note": 70, "velocity": 104, "duration": 303}, {"note": 0, "velocity": 0, "duration": 177}, {"note": 75, "velocity": 110, "duration": 218}, {"note": 77, "velocity": 88, "duration": 262}, {"note": 70, "velocity": 100, "duration": 252}, {"note": 68, "velocity": 96, "duration": 224}, {"note": 70, "velocity": 100, "duration": 270}, {"note": 0, "velocity": 0, "duration": 15570}, {"note": 77, "velocity": 114, "duration": 240}, {"note": 80, "velocity": 110, "duration": 245}, {"note": 82, "velocity": 113, "duration": 480}, {"note": 84, "velocity": 108, "duration": 240}, {"note": 80, "velocity": 107, "duration": 252}, {"note": 82, "velocity": 113, "duration": 720}, {"note": 80, "velocity": 107, "duration": 250}, {"note": 77, "velocity": 107, "duration": 480}, {"note": 82, "velocity": 119, "duration": 489}, {"note": 80, "velocity": 119, "duration": 480}, {"note": 77, "velocity": 117, "duration": 479}, {"note": 77, "velocity": 116, "duration": 240}, {"note": 80, "velocity": 113, "duration": 240}, {"note": 82, "velocity": 116, "duration": 487}, {"note": 84, "velocity": 98, "duration": 240}, {"note": 80, "velocity": 113, "duration": 241}, {"note": 82, "velocity": 113, "duration": 488}, {"note": 84, "velocity": 116, "duration": 480}, {"note": 85, "velocity": 116, "duration": 1440}, {"note": 82, "velocity": 116, "duration": 240}, {"note": 89, "velocity": 116, "duration": 245}, {"note": 87, "velocity": 116, "duration": 563}, {"note": 82, "velocity": 116, "duration": 240}, {"note": 89, "velocity": 116, "duration": 240}, {"note": 87, "velocity": 116, "duration": 960}, {"note": 84, "velocity": 108, "duration": 481}, {"note": 80, "velocity": 116, "duration": 480}, {"note": 77, "velocity": 117, "duration": 960}, {"note": 87, "velocity": 119, "duration": 240}, {"note": 89, "velocity": 107, "duration": 240}, {"note": 82, "velocity": 114, "duration": 480}, {"note": 87, "velocity": 120, "duration": 240}, {"note": 89, "velocity": 108, "duration": 244}, {"note": 82, "velocity": 114, "duration": 480}, {"note": 80, "velocity": 108, "duration": 545}, {"note": 82, "velocity": 88, "duration": 938}]]