[[{"note": 72, "velocity": 107, "duration": 480}, {"note": 70, "velocity": 107, "duration": 960}, {"note": 72, "velocity": 110, "duration": 240}, {"note": 75, "velocity": 102, "duration": 240}, {"note": 72, "velocity": 104, "duration": 480}, {"note": 70, "velocity": 104, "duration": 480}, {"note": 75, "velocity": 110, "duration": 240}, {"note": 77, "velocity": 100, "duration": 240}, {"note": 79, "velocity": 113, "duration": 720}, {"note": 77, "velocity": 102, "duration": 240}, {"note": 75, "velocity": 107, "duration": 240}, {"note": 72, "velocity": 92, "duration": 240}, {"note": 75, "velocity": 107, "duration": 960}, {"note": 72, "velocity": 100, "duration": 480}, {"note": 70, "velocity": 98, "duration": 960}, {"note": 72, "velocity": 107, "duration": 240}, {"note": 75, "velocity": 94, "duration": 240}, {"note": 77, "velocity": 100, "duration": 240}, {"note": 79, "velocity": 102, "duration": 254}, {"note": 77, "velocity": 107, "duration": 960}, {"note": 75, "velocity": 91, "duration": 240}, {"note": 77, "velocity": 94, "duration": 2160}, {"note": 72, "velocity": 110, "duration": 481}, {"note": 70, "velocity": 104, "duration": 960}, {"note": 72, "velocity": 104, "duration": 240}, {"note": 75, "velocity": 104, "duration": 240}, {"note": 72, "velocity": 104, "duration": 480}, {"note": 70, "velocity": 104, "duration": 480}, {"note": 75, "velocity": 92, "duration": 240}, {"note": 77, "velocity": 89, "duration": 240}, {"note": 79, "velocity": 100, "duration": 720}, {"note": 77, "velocity": 104, "duration": 240}, {"note": 75, "velocity": 98, "duration": 240}, {"note": 72, "velocity": 89, "duration": 240}, {"note": 75, "velocity": 107, "duration": 960}, {"note": 72, "velocity": 104, "duration": 480}, {"note": 70, "velocity": 100, "duration": 960}, {"note": 72, "velocity": 98, "duration": 240}, {"note": 75, "velocity": 98, "duration": 240}, {"note": 77, "velocity": 108, "duration": 240}, {"note": 79, "velocity": 96, "duration": 241}, {"note": 77, "velocity": 102, "duration": 720}, {"note": 75, "velocity": 93, "duration": 239}, {"note": 75, "velocity": 100, "duration": 2400}, {"note": 72, "velocity": 107, "duration": 480}, {"note": 70, "velocity": 107, "duration": 960}, {"note": 72, "velocity": 110, "duration": 240}, {"note": 75, "velocity": 102, "duration": 240}, {"note": 72, "velocity": 104, "duration": 480}, {"note": 70, "velocity": 104, "duration": 480}, {"note": 75, "velocity": 110, "duration": 240}, {"note": 77, "velocity": 100, "duration": 240}, {"note": 79, "velocity": 113, "duration": 720}, {"note": 77, "velocity": 102, "duration": 240}, {"note": 75, "velocity": 107, "duration": 240}, {"note": 72, "velocity": 92, "duration": 240}, {"note": 75, "velocity": 107, "duration": 960}, {"note": 72, "velocity": 100, "duration": 480}, {"note": 70, "velocity": 98, "duration": 960}, {"note": 72, "velocity": 107, "duration": 240}, {"note": 75, "velocity": 94, "duration": 240}, {"note": 77, "velocity": 100, "duration": 240}, {"note": 79, "velocity": 102, "duration": 254}, {"note": 77, "velocity": 107, "duration": 960}, {"note": 75, "velocity": 91, "duration": 240}, {"note": 77, "velocity": 94, "duration": 2160}, {"note": 72, "velocity": 110, "duration": 481}, {"note": 70, "velocity": 104, "duration": 960}, {"note": 72, "velocity": 104, "duration": 240}, {"note": 75, "velocity": 104, "duration": 240}, {"note": 72, "velocity": 104, "duration": 480}, {"note": 70, "velocity": 104, "duration": 480}, {"note": 75, "velocity": 92, "duration": 240}, {"note": 77, "velocity": 89, "duration": 240}, {"note": 79, "velocity": 100, "duration": 720}, {"note": 77, "velocity": 104, "duration": 240}, {"note": 75, "velocity": 98, "duration": 240}, {"note": 72, "velocity": 89, "duration": 240}, {"note": 75, "velocity": 107, "duration": 960}, {"note": 72, "velocity": 104, "duration": 480}, {"note": 70, "velocity": 100, "duration": 1080}, {"note": 72, "velocity": 98, "duration": 240}, {"note": 75, "velocity": 98, "duration": 240}, {"note": 77, "velocity": 108, "duration": 240}, {"note": 79, "velocity": 96, "duration": 241}, {"note": 77, "velocity": 102, "duration": 960}, {"note": 75, "velocity": 93, "duration": 359}, {"note": 75, "velocity": 100, "duration": 2040}, {"note": 79, "velocity": 113, "duration": 240}, {"note": 82, "velocity": 113, "duration": 239}, {"note": 82, "velocity": 117, "duration": 840}, {"note": 79, "velocity": 110, "duration": 240}, {"note": 82, "velocity": 114, "duration": 240}, {"note": 84, "velocity": 117, "duration": 240}, {"note": 87, "velocity": 87, "duration": 240}, {"note": 84, "velocity": 100, "duration": 720}, {"note": 79, "velocity": 100, "duration": 240}, {"note": 82, "velocity": 116, "duration": 480}, {"note": 79, "velocity": 114, "duration": 480}, {"note": 77, "velocity": 116, "duration": 480}, {"note": 75, "velocity": 114, "duration": 960}, {"note": 79, "velocity": 113, "duration": 240}, {"note": 82, "velocity": 113, "duration": 239}, {"note": 82, "velocity": 116, "duration": 960}, {"note": 79, "velocity": 110, "duration": 240}, {"note": 82, "velocity": 113, "duration": 240}, {"note": 84, "velocity": 114, "duration": 240}, {"note": 87, "velocity": 113, "duration": 240}, {"note": 84, "velocity": 114, "duration": 480}, {"note": 79, "velocity": 114, "duration": 487}, {"note": 77, "velocity": 116, "duration": 2400}, {"note": 79, "velocity": 113, "duration": 240}, {"note": 82, "velocity": 113, "duration": 239}, {"note": 82, "velocity": 117, "duration": 960}, {"note": 79, "velocity": 110, "duration": 240}, {"note": 82, "velocity": 114, "duration": 240}, {"note": 84, "velocity": 117, "duration": 240}, {"note": 87, "velocity": 87, "duration": 240}, {"note": 84, "velocity": 100, "duration": 720}, {"note": 79, "velocity": 100, "duration": 240}, {"note": 82, "velocity": 116, "duration": 480}, {"note": 79, "velocity": 114, "duration": 480}, {"note": 77, "velocity": 116, "duration": 480}, {"note": 75, "velocity": 114, "duration": 1200}, {"note": 72, "velocity": 113, "duration": 240}, {"note": 70, "velocity": 114, "duration": 960}, {"note": 72, "velocity": 117, "duration": 240}, {"note": 75, "velocity": 113, "duration": 240}, {"note": 77, "velocity": 117, "duration": 240}, {"note": 79, "velocity": 117, "duration": 240}, {"note": 77, "velocity": 119, "duration": 960}, {"note": 75, "velocity": 116, "duration": 239}, {"note": 75, "velocity": 120, "duration": 1200}, {"note": 0, "velocity": 0, "duration": 26640}, {"note": 72, "velocity": 107, "duration": 480}, {"note": 70, "velocity": 107, "duration": 960}, {"note": 72, "velocity": 110, "duration": 240}, {"note": 75, "velocity": 102, "duration": 240}, {"note": 72, "velocity": 104, "duration": 480}, {"note": 70, "velocity": 104, "duration": 480}, {"note": 75, "velocity": 110, "duration": 240}, {"note": 77, "velocity": 100, "duration": 240}, {"note": 79, "velocity": 113, "duration": 720}, {"note": 77, "velocity": 102, "duration": 240}, {"note": 75, "velocity": 107, "duration": 240}, {"note": 72, "velocity": 92, "duration": 240}, {"note": 75, "velocity": 107, "duration": 960}, {"note": 72, "velocity": 100, "duration": 480}, {"note": 70, "velocity": 98, "duration": 960}, {"note": 72, "velocity": 107, "duration": 240}, {"note": 75, "velocity": 94, "duration": 240}, {"note": 77, "velocity": 100, "duration": 240}, {"note": 79, "velocity": 102, "duration": 254}, {"note": 77, "velocity": 107, "duration": 960}, {"note": 75, "velocity": 91, "duration": 240}, {"note": 77, "velocity": 94, "duration": 2400}, {"note": 72, "velocity": 110, "duration": 481}, {"note": 70, "velocity": 104, "duration": 960}, {"note": 72, "velocity": 104, "duration": 240}, {"note": 75, "velocity": 104, "duration": 240}, {"note": 72, "velocity": 104, "duration": 480}, {"note": 70, "velocity": 104, "duration": 480}, {"note": 75, "velocity": 92, "duration": 240}, {"note": 77, "velocity": 89, "duration": 240}, {"note": 79, "velocity": 100, "duration": 720}, {"note": 77, "velocity": 104, "duration": 240}, {"note": 75, "velocity": 98, "duration": 240}, {"note": 72, "velocity": 89, "duration": 240}, {"note": 75, "velocity": 107, "duration": 960}, {"note": 72, "velocity": 104, "duration": 480}, {"note": 70, "velocity": 100, "duration": 960}, {"note": 72, "velocity": 98, "duration": 240}, {"note": 75, "velocity": 98, "duration": 240}, {"note": 77, "velocity": 108, "duration": 240}, {"note": 79, "velocity": 96, "duration": 241}, {"note": 77, "velocity": 102, "duration": 840}, {"note": 75, "velocity": 93, "duration": 239}, {"note": 75, "velocity": 100, "duration": 2280}, {"note": 79, "velocity": 113, "duration": 240}, {"note": 82, "velocity": 113, "duration": 239}, {"note": 82, "velocity": 117, "duration": 960}, {"note": 79, "velocity": 110, "duration": 240}, {"note": 82, "velocity": 114, "duration": 240}, {"note": 84, "velocity": 117, "duration": 240}, {"note": 87, "velocity": 87, "duration": 240}, {"note": 84, "velocity": 100, "duration": 720}, {"note": 79, "velocity": 100, "duration": 240}, {"note": 82, "velocity": 116, "duration": 480}, {"note": 79, "velocity": 114, "duration": 480}, {"note": 77, "velocity": 116, "duration": 480}, {"note": 75, "velocity": 114, "duration": 960}, {"note": 79, "velocity": 113, "duration": 240}, {"note": 82, "velocity": 113, "duration": 239}, {"note": 82, "velocity": 116, "duration": 960}, {"note": 79, "velocity": 110, "duration": 240}, {"note": 82, "velocity": 113, "duration": 240}, {"note": 84, "velocity": 114, "duration": 240}, {"note": 87, "velocity": 113, "duration": 240}, {"note": 84, "velocity": 114, "duration": 480}, {"note": 79, "velocity": 114, "duration": 487}, {"note": 77, "velocity": 116, "duration": 2400}, {"note": 79, "velocity": 113, "duration": 240}, {"note": 82, "velocity": 113, "duration": 239}, {"note": 82, "velocity": 117, "duration": 720}, {"note": 79, "velocity": 110, "duration": 240}, {"note": 82, "velocity": 114, "duration": 240}, {"note": 84, "velocity": 117, "duration": 240}, {"note": 87, "velocity": 87, "duration": 240}, {"note": 84, "velocity": 100, "duration": 720}, {"note": 79, "velocity": 100, "duration": 240}, {"note": 82, "velocity": 116, "duration": 480}, {"note": 79, "velocity": 114, "duration": 480}, {"note": 77, "velocity": 116, "duration": 480}, {"note": 75, "velocity": 114, "duration": 1200}, {"note": 72, "velocity": 113, "duration": 240}, {"note": 70, "velocity": 114, "duration": 960}, {"note": 72, "velocity": 117, "duration": 240}, {"note": 75, "velocity": 113, "duration": 240}, {"note": 77, "velocity": 117, "duration": 240}, {"note": 79, "velocity": 117, "duration": 240}, {"note": 77, "velocity": 119, "duration": 840}, {"note": 75, "velocity": 116, "duration": 359}, {"note": 75, "velocity": 120, "duration": 2640}, {"note": 79, "velocity": 113, "duration": 240}, {"note": 82, "velocity": 113, "duration": 239}, {"note": 82, "velocity": 117, "duration": 960}, {"note": 79, "velocity": 110, "duration": 240}, {"note": 82, "velocity": 114, "duration": 240}, {"note": 84, "velocity": 117, "duration": 240}, {"note": 87, "velocity": 87, "duration": 240}, {"note": 84, "velocity": 100, "duration": 720}, {"note": 79, "velocity": 100, "duration": 240}, {"note": 82, "velocity": 116, "duration": 480}, {"note": 79, "velocity": 114, "duration": 480}, {"note": 77, "velocity": 116, "duration": 480}, {"note": 75, "velocity": 114, "duration": 960}, {"note": 79, "velocity": 113, "duration": 240}, {"note": 82, "velocity": 113, "duration": 239}, {"note": 82, "velocity": 116, "duration": 960}, {"note": 79, "velocity": 110, "duration": 240}, {"note": 82, "velocity": 113, "duration": 240}, {"note": 84, "velocity": 114, "duration": 240}, {"note": 87, "velocity": 113, "duration": 240}, {"note": 84, "velocity": 114, "duration": 480}, {"note": 79, "velocity": 114, "duration": 487}, {"note": 77, "velocity": 116, "duration": 2400}, {"note": 79, "velocity": 113, "duration": 480}, {"note": 82, "velocity": 113, "duration": 239}, {"note": 82, "velocity": 117, "duration": 720}, {"note": 79, "velocity": 110, "duration": 240}, {"note": 82, "velocity": 114, "duration": 240}, {"note": 84, "velocity": 117, "duration": 240}, {"note": 87, "velocity": 87, "duration": 240}, {"note": 84, "velocity": 100, "duration": 720}, {"note": 79, "velocity": 100, "duration": 240}, {"note": 82, "velocity": 116, "duration": 480}, {"note": 79, "velocity": 114, "duration": 480}, {"note": 77, "velocity": 116, "duration": 480}, {"note": 75, "velocity": 114, "duration": 1320}, {"note": 72, "velocity": 113, "duration": 240}, {"note": 70, "velocity": 114, "duration": 840}, {"note": 72, "velocity": 117, "duration": 240}, {"note": 75, "velocity": 113, "duration": 240}, {"note": 77, "velocity": 117, "duration": 240}, {"note": 79, "velocity": 117, "duration": 240}, {"note": 77, "velocity": 119, "duration": 720}, {"note": 75, "velocity": 116, "duration": 239}, {"note": 75, "velocity": 120, "duration": 2520}, {"note": 72, "velocity": 113, "duration": 600}, {"note": 70, "velocity": 114, "duration": 1200}, {"note": 72, "velocity": 109, "duration": 240}, {"note": 75, "velocity": 88, "duration": 240}, {"note": 77, "velocity": 96, "duration": 240}, {"note": 79, "velocity": 109, "duration": 240}, {"note": 77, "velocity": 113, "duration": 1560}, {"note": 75, "velocity": 104, "duration": 239}, {"note": 75, "velocity": 107, "duration": 1517}]]