[[{"note": 64, "velocity": 96, "duration": 56}, {"note": 0, "velocity": 0, "duration": 64}, {"note": 64, "velocity": 89, "duration": 56}, {"note": 0, "velocity": 0, "duration": 64}, {"note": 69, "velocity": 108, "duration": 122}, {"note": 0, "velocity": 0, "duration": 118}, {"note": 67, "velocity": 96, "duration": 66}, {"note": 69, "velocity": 108, "duration": 121}, {"note": 0, "velocity": 0, "duration": 119}, {"note": 69, "velocity": 113, "duration": 185}, {"note": 0, "velocity": 0, "duration": 895}, {"note": 64, "velocity": 94, "duration": 64}, {"note": 64, "velocity": 89, "duration": 65}, {"note": 67, "velocity": 104, "duration": 136}, {"note": 0, "velocity": 0, "duration": 104}, {"note": 64, "velocity": 94, "duration": 72}, {"note": 67, "velocity": 107, "duration": 119}, {"note": 0, "velocity": 0, "duration": 121}, {"note": 67, "velocity": 113, "duration": 146}, {"note": 0, "velocity": 0, "duration": 934}, {"note": 64, "velocity": 92, "duration": 60}, {"note": 64, "velocity": 96, "duration": 65}, {"note": 69, "velocity": 114, "duration": 142}, {"note": 0, "velocity": 0, "duration": 98}, {"note": 67, "velocity": 104, "duration": 65}, {"note": 69, "velocity": 110, "duration": 139}, {"note": 0, "velocity": 0, "duration": 101}, {"note": 69, "velocity": 114, "duration": 192}, {"note": 0, "velocity": 0, "duration": 888}, {"note": 64, "velocity": 104, "duration": 59}, {"note": 0, "velocity": 0, "duration": 61}, {"note": 64, "velocity": 91, "duration": 66}, {"note": 67, "velocity": 107, "duration": 116}, {"note": 0, "velocity": 0, "duration": 124}, {"note": 69, "velocity": 100, "duration": 74}, {"note": 69, "velocity": 104, "duration": 151}, {"note": 0, "velocity": 0, "duration": 89}, {"note": 67, "velocity": 108, "duration": 200}, {"note": 0, "velocity": 0, "duration": 760}, {"note": 67, "velocity": 108, "duration": 44}, {"note": 0, "velocity": 0, "duration": 76}, {"note": 67, "velocity": 104, "duration": 47}, {"note": 0, "velocity": 0, "duration": 73}, {"note": 67, "velocity": 93, "duration": 46}, {"note": 0, "velocity": 0, "duration": 74}, {"note": 67, "velocity": 102, "duration": 123}, {"note": 0, "velocity": 0, "duration": 117}, {"note": 65, "velocity": 92, "duration": 53}, {"note": 0, "velocity": 0, "duration": 67}, {"note": 65, "velocity": 102, "duration": 150}, {"note": 0, "velocity": 0, "duration": 90}, {"note": 65, "velocity": 102, "duration": 150}, {"note": 0, "velocity": 0, "duration": 330}, {"note": 65, "velocity": 94, "duration": 187}, {"note": 0, "velocity": 0, "duration": 173}, {"note": 67, "velocity": 102, "duration": 162}, {"note": 0, "velocity": 0, "duration": 78}, {"note": 69, "velocity": 93, "duration": 76}, {"note": 69, "velocity": 104, "duration": 131}, {"note": 0, "velocity": 0, "duration": 229}, {"note": 64, "velocity": 96, "duration": 135}, {"note": 0, "velocity": 0, "duration": 1185}, {"note": 64, "velocity": 108, "duration": 50}, {"note": 0, "velocity": 0, "duration": 70}, {"note": 64, "velocity": 98, "duration": 51}, {"note": 0, "velocity": 0, "duration": 69}, {"note": 64, "velocity": 98, "duration": 56}, {"note": 0, "velocity": 0, "duration": 64}, {"note": 62, "velocity": 94, "duration": 55}, {"note": 0, "velocity": 0, "duration": 125}, {"note": 62, "velocity": 98, "duration": 54}, {"note": 0, "velocity": 0, "duration": 126}, {"note": 62, "velocity": 102, "duration": 115}, {"note": 0, "velocity": 0, "duration": 125}, {"note": 62, "velocity": 107, "duration": 135}, {"note": 0, "velocity": 0, "duration": 705}, {"note": 62, "velocity": 102, "duration": 158}, {"note": 64, "velocity": 96, "duration": 112}, {"note": 0, "velocity": 0, "duration": 128}, {"note": 65, "velocity": 92, "duration": 89}, {"note": 0, "velocity": 0, "duration": 271}, {"note": 64, "velocity": 107, "duration": 551}, {"note": 0, "velocity": 0, "duration": 889}, {"note": 64, "velocity": 100, "duration": 65}, {"note": 64, "velocity": 91, "duration": 63}, {"note": 69, "velocity": 116, "duration": 131}, {"note": 0, "velocity": 0, "duration": 109}, {"note": 67, "velocity": 107, "duration": 58}, {"note": 0, "velocity": 0, "duration": 62}, {"note": 69, "velocity": 116, "duration": 144}, {"note": 0, "velocity": 0, "duration": 96}, {"note": 69, "velocity": 116, "duration": 261}, {"note": 0, "velocity": 0, "duration": 339}, {"note": 69, "velocity": 108, "duration": 148}, {"note": 0, "velocity": 0, "duration": 92}, {"note": 69, "velocity": 108, "duration": 167}, {"note": 0, "velocity": 0, "duration": 73}, {"note": 64, "velocity": 90, "duration": 10}, {"note": 0, "velocity": 0, "duration": 110}, {"note": 64, "velocity": 93, "duration": 61}, {"note": 67, "velocity": 108, "duration": 136}, {"note": 0, "velocity": 0, "duration": 104}, {"note": 69, "velocity": 100, "duration": 59}, {"note": 0, "velocity": 0, "duration": 61}, {"note": 69, "velocity": 102, "duration": 140}, {"note": 0, "velocity": 0, "duration": 100}, {"note": 67, "velocity": 107, "duration": 180}, {"note": 0, "velocity": 0, "duration": 900}, {"note": 64, "velocity": 104, "duration": 58}, {"note": 0, "velocity": 0, "duration": 62}, {"note": 64, "velocity": 93, "duration": 56}, {"note": 0, "velocity": 0, "duration": 64}, {"note": 69, "velocity": 116, "duration": 131}, {"note": 0, "velocity": 0, "duration": 109}, {"note": 67, "velocity": 107, "duration": 47}, {"note": 0, "velocity": 0, "duration": 73}, {"note": 69, "velocity": 114, "duration": 122}, {"note": 0, "velocity": 0, "duration": 118}, {"note": 69, "velocity": 116, "duration": 166}, {"note": 0, "velocity": 0, "duration": 434}, {"note": 69, "velocity": 113, "duration": 115}, {"note": 0, "velocity": 0, "duration": 125}, {"note": 69, "velocity": 108, "duration": 125}, {"note": 0, "velocity": 0, "duration": 115}, {"note": 64, "velocity": 100, "duration": 48}, {"note": 0, "velocity": 0, "duration": 192}, {"note": 67, "velocity": 102, "duration": 152}, {"note": 0, "velocity": 0, "duration": 88}, {"note": 69, "velocity": 89, "duration": 53}, {"note": 0, "velocity": 0, "duration": 67}, {"note": 69, "velocity": 98, "duration": 52}, {"note": 0, "velocity": 0, "duration": 68}, {"note": 69, "velocity": 108, "duration": 134}, {"note": 0, "velocity": 0, "duration": 106}, {"note": 67, "velocity": 104, "duration": 160}, {"note": 0, "velocity": 0, "duration": 680}, {"note": 67, "velocity": 93, "duration": 49}, {"note": 0, "velocity": 0, "duration": 71}, {"note": 67, "velocity": 89, "duration": 48}, {"note": 0, "velocity": 0, "duration": 72}, {"note": 67, "velocity": 94, "duration": 51}, {"note": 0, "velocity": 0, "duration": 69}, {"note": 67, "velocity": 108, "duration": 132}, {"note": 0, "velocity": 0, "duration": 108}, {"note": 65, "velocity": 104, "duration": 68}, {"note": 0, "velocity": 0, "duration": 892}, {"note": 65, "velocity": 87, "duration": 225}, {"note": 67, "velocity": 98, "duration": 198}, {"note": 69, "velocity": 92, "duration": 57}, {"note": 0, "velocity": 0, "duration": 63}, {"note": 69, "velocity": 107, "duration": 215}, {"note": 0, "velocity": 0, "duration": 145}, {"note": 64, "velocity": 102, "duration": 283}, {"note": 0, "velocity": 0, "duration": 1157}, {"note": 64, "velocity": 104, "duration": 70}, {"note": 72, "velocity": 107, "duration": 55}, {"note": 0, "velocity": 0, "duration": 65}, {"note": 72, "velocity": 110, "duration": 144}, {"note": 0, "velocity": 0, "duration": 96}, {"note": 71, "velocity": 114, "duration": 199}, {"note": 0, "velocity": 0, "duration": 1241}, {"note": 64, "velocity": 107, "duration": 78}, {"note": 71, "velocity": 107, "duration": 57}, {"note": 0, "velocity": 0, "duration": 63}, {"note": 71, "velocity": 108, "duration": 136}, {"note": 0, "velocity": 0, "duration": 104}, {"note": 69, "velocity": 110, "duration": 209}, {"note": 0, "velocity": 0, "duration": 1111}, {"note": 69, "velocity": 114, "duration": 105}, {"note": 71, "velocity": 107, "duration": 76}, {"note": 72, "velocity": 113, "duration": 60}, {"note": 74, "velocity": 120, "duration": 124}, {"note": 0, "velocity": 0, "duration": 116}, {"note": 74, "velocity": 107, "duration": 53}, {"note": 0, "velocity": 0, "duration": 67}, {"note": 74, "velocity": 113, "duration": 118}, {"note": 0, "velocity": 0, "duration": 122}, {"note": 74, "velocity": 113, "duration": 196}, {"note": 74, "velocity": 104, "duration": 42}, {"note": 0, "velocity": 0, "duration": 78}, {"note": 74, "velocity": 113, "duration": 45}, {"note": 0, "velocity": 0, "duration": 75}, {"note": 74, "velocity": 104, "duration": 100}, {"note": 72, "velocity": 96, "duration": 114}, {"note": 69, "velocity": 104, "duration": 139}, {"note": 0, "velocity": 0, "duration": 221}, {"note": 69, "velocity": 114, "duration": 133}, {"note": 71, "velocity": 107, "duration": 81}, {"note": 72, "velocity": 116, "duration": 117}, {"note": 72, "velocity": 114, "duration": 99}, {"note": 0, "velocity": 0, "duration": 141}, {"note": 72, "velocity": 114, "duration": 60}, {"note": 72, "velocity": 116, "duration": 104}, {"note": 0, "velocity": 0, "duration": 136}, {"note": 72, "velocity": 104, "duration": 52}, {"note": 0, "velocity": 0, "duration": 68}, {"note": 72, "velocity": 107, "duration": 62}, {"note": 72, "velocity": 108, "duration": 114}, {"note": 0, "velocity": 0, "duration": 126}, {"note": 71, "velocity": 114, "duration": 130}, {"note": 69, "velocity": 113, "duration": 115}, {"note": 0, "velocity": 0, "duration": 245}, {"note": 69, "velocity": 113, "duration": 115}, {"note": 72, "velocity": 102, "duration": 97}, {"note": 71, "velocity": 116, "duration": 160}, {"note": 0, "velocity": 0, "duration": 80}, {"note": 71, "velocity": 113, "duration": 63}, {"note": 71, "velocity": 114, "duration": 130}, {"note": 0, "velocity": 0, "duration": 230}, {"note": 71, "velocity": 110, "duration": 48}, {"note": 0, "velocity": 0, "duration": 72}, {"note": 71, "velocity": 107, "duration": 54}, {"note": 0, "velocity": 0, "duration": 66}, {"note": 71, "velocity": 113, "duration": 118}, {"note": 0, "velocity": 0, "duration": 122}, {"note": 69, "velocity": 108, "duration": 63}, {"note": 69, "velocity": 113, "duration": 142}, {"note": 0, "velocity": 0, "duration": 98}, {"note": 67, "velocity": 114, "duration": 235}, {"note": 0, "velocity": 0, "duration": 125}, {"note": 64, "velocity": 114, "duration": 194}, {"note": 0, "velocity": 0, "duration": 1366}, {"note": 69, "velocity": 114, "duration": 156}, {"note": 71, "velocity": 107, "duration": 135}, {"note": 72, "velocity": 108, "duration": 73}, {"note": 74, "velocity": 117, "duration": 149}, {"note": 0, "velocity": 0, "duration": 91}, {"note": 74, "velocity": 117, "duration": 154}, {"note": 0, "velocity": 0, "duration": 86}, {"note": 74, "velocity": 116, "duration": 145}, {"note": 0, "velocity": 0, "duration": 95}, {"note": 74, "velocity": 116, "duration": 127}, {"note": 0, "velocity": 0, "duration": 113}, {"note": 74, "velocity": 116, "duration": 83}, {"note": 0, "velocity": 0, "duration": 157}, {"note": 72, "velocity": 114, "duration": 109}, {"note": 69, "velocity": 116, "duration": 118}, {"note": 0, "velocity": 0, "duration": 242}, {"note": 69, "velocity": 110, "duration": 93}, {"note": 71, "velocity": 110, "duration": 65}, {"note": 72, "velocity": 116, "duration": 136}, {"note": 0, "velocity": 0, "duration": 104}, {"note": 72, "velocity": 114, "duration": 60}, {"note": 72, "velocity": 108, "duration": 56}, {"note": 0, "velocity": 0, "duration": 64}, {"note": 72, "velocity": 114, "duration": 114}, {"note": 0, "velocity": 0, "duration": 126}, {"note": 72, "velocity": 110, "duration": 135}, {"note": 0, "velocity": 0, "duration": 105}, {"note": 72, "velocity": 116, "duration": 125}, {"note": 0, "velocity": 0, "duration": 115}, {"note": 72, "velocity": 110, "duration": 105}, {"note": 69, "velocity": 114, "duration": 109}, {"note": 0, "velocity": 0, "duration": 251}, {"note": 69, "velocity": 113, "duration": 114}, {"note": 72, "velocity": 113, "duration": 104}, {"note": 71, "velocity": 117, "duration": 127}, {"note": 0, "velocity": 0, "duration": 113}, {"note": 71, "velocity": 114, "duration": 60}, {"note": 71, "velocity": 108, "duration": 58}, {"note": 0, "velocity": 0, "duration": 62}, {"note": 71, "velocity": 116, "duration": 105}, {"note": 0, "velocity": 0, "duration": 375}, {"note": 71, "velocity": 110, "duration": 188}, {"note": 72, "velocity": 100, "duration": 161}, {"note": 0, "velocity": 0, "duration": 79}, {"note": 71, "velocity": 107, "duration": 218}, {"note": 69, "velocity": 104, "duration": 206}, {"note": 67, "velocity": 108, "duration": 194}, {"note": 0, "velocity": 0, "duration": 1246}, {"note": 71, "velocity": 110, "duration": 239}, {"note": 0, "velocity": 0, "duration": 241}, {"note": 71, "velocity": 110, "duration": 242}, {"note": 0, "velocity": 0, "duration": 478}, {"note": 69, "velocity": 108, "duration": 184}, {"note": 0, "velocity": 0, "duration": 6536}, {"note": 64, "velocity": 100, "duration": 65}, {"note": 64, "velocity": 91, "duration": 63}, {"note": 69, "velocity": 116, "duration": 131}, {"note": 0, "velocity": 0, "duration": 109}, {"note": 67, "velocity": 107, "duration": 58}, {"note": 0, "velocity": 0, "duration": 62}, {"note": 69, "velocity": 116, "duration": 144}, {"note": 0, "velocity": 0, "duration": 96}, {"note": 69, "velocity": 116, "duration": 261}, {"note": 0, "velocity": 0, "duration": 819}, {"note": 64, "velocity": 90, "duration": 10}, {"note": 0, "velocity": 0, "duration": 110}, {"note": 64, "velocity": 93, "duration": 61}, {"note": 67, "velocity": 108, "duration": 136}, {"note": 0, "velocity": 0, "duration": 104}, {"note": 64, "velocity": 100, "duration": 59}, {"note": 0, "velocity": 0, "duration": 61}, {"note": 64, "velocity": 102, "duration": 140}, {"note": 0, "velocity": 0, "duration": 100}, {"note": 67, "velocity": 107, "duration": 180}, {"note": 0, "velocity": 0, "duration": 900}, {"note": 64, "velocity": 104, "duration": 58}, {"note": 0, "velocity": 0, "duration": 62}, {"note": 64, "velocity": 93, "duration": 56}, {"note": 0, "velocity": 0, "duration": 64}, {"note": 69, "velocity": 116, "duration": 131}, {"note": 0, "velocity": 0, "duration": 109}, {"note": 67, "velocity": 107, "duration": 47}, {"note": 0, "velocity": 0, "duration": 73}, {"note": 69, "velocity": 114, "duration": 122}, {"note": 0, "velocity": 0, "duration": 118}, {"note": 69, "velocity": 116, "duration": 166}, {"note": 0, "velocity": 0, "duration": 914}, {"note": 64, "velocity": 100, "duration": 48}, {"note": 0, "velocity": 0, "duration": 192}, {"note": 67, "velocity": 102, "duration": 152}, {"note": 0, "velocity": 0, "duration": 88}, {"note": 69, "velocity": 89, "duration": 53}, {"note": 0, "velocity": 0, "duration": 67}, {"note": 67, "velocity": 98, "duration": 52}, {"note": 0, "velocity": 0, "duration": 1148}, {"note": 67, "velocity": 93, "duration": 49}, {"note": 0, "velocity": 0, "duration": 71}, {"note": 67, "velocity": 89, "duration": 48}, {"note": 0, "velocity": 0, "duration": 72}, {"note": 67, "velocity": 94, "duration": 51}, {"note": 0, "velocity": 0, "duration": 69}, {"note": 67, "velocity": 108, "duration": 132}, {"note": 0, "velocity": 0, "duration": 108}, {"note": 65, "velocity": 104, "duration": 68}, {"note": 65, "velocity": 104, "duration": 68}, {"note": 0, "velocity": 0, "duration": 772}, {"note": 65, "velocity": 87, "duration": 225}, {"note": 67, "velocity": 98, "duration": 198}, {"note": 69, "velocity": 92, "duration": 57}, {"note": 0, "velocity": 0, "duration": 63}, {"note": 69, "velocity": 107, "duration": 215}, {"note": 0, "velocity": 0, "duration": 145}, {"note": 64, "velocity": 102, "duration": 283}, {"note": 0, "velocity": 0, "duration": 1037}, {"note": 64, "velocity": 104, "duration": 70}, {"note": 64, "velocity": 104, "duration": 70}, {"note": 72, "velocity": 107, "duration": 55}, {"note": 0, "velocity": 0, "duration": 65}, {"note": 72, "velocity": 110, "duration": 144}, {"note": 71, "velocity": 114, "duration": 199}, {"note": 0, "velocity": 0, "duration": 1361}, {"note": 64, "velocity": 107, "duration": 78}, {"note": 71, "velocity": 107, "duration": 57}, {"note": 0, "velocity": 0, "duration": 63}, {"note": 71, "velocity": 108, "duration": 136}, {"note": 0, "velocity": 0, "duration": 104}, {"note": 69, "velocity": 110, "duration": 209}, {"note": 0, "velocity": 0, "duration": 1111}, {"note": 69, "velocity": 114, "duration": 105}, {"note": 71, "velocity": 107, "duration": 76}, {"note": 72, "velocity": 113, "duration": 60}, {"note": 74, "velocity": 120, "duration": 124}, {"note": 0, "velocity": 0, "duration": 116}, {"note": 74, "velocity": 107, "duration": 53}, {"note": 0, "velocity": 0, "duration": 67}, {"note": 74, "velocity": 113, "duration": 118}, {"note": 0, "velocity": 0, "duration": 122}, {"note": 74, "velocity": 113, "duration": 196}, {"note": 74, "velocity": 104, "duration": 42}, {"note": 0, "velocity": 0, "duration": 78}, {"note": 74, "velocity": 113, "duration": 45}, {"note": 0, "velocity": 0, "duration": 75}, {"note": 74, "velocity": 104, "duration": 100}, {"note": 72, "velocity": 96, "duration": 114}, {"note": 69, "velocity": 104, "duration": 139}, {"note": 0, "velocity": 0, "duration": 221}, {"note": 69, "velocity": 114, "duration": 133}, {"note": 71, "velocity": 107, "duration": 81}, {"note": 72, "velocity": 116, "duration": 117}, {"note": 72, "velocity": 114, "duration": 99}, {"note": 0, "velocity": 0, "duration": 141}, {"note": 72, "velocity": 114, "duration": 60}, {"note": 72, "velocity": 116, "duration": 104}, {"note": 0, "velocity": 0, "duration": 136}, {"note": 72, "velocity": 104, "duration": 52}, {"note": 0, "velocity": 0, "duration": 68}, {"note": 72, "velocity": 107, "duration": 62}, {"note": 72, "velocity": 108, "duration": 114}, {"note": 0, "velocity": 0, "duration": 126}, {"note": 71, "velocity": 114, "duration": 130}, {"note": 69, "velocity": 113, "duration": 115}, {"note": 0, "velocity": 0, "duration": 245}, {"note": 69, "velocity": 113, "duration": 115}, {"note": 72, "velocity": 102, "duration": 97}, {"note": 71, "velocity": 116, "duration": 160}, {"note": 0, "velocity": 0, "duration": 80}, {"note": 71, "velocity": 113, "duration": 63}, {"note": 71, "velocity": 114, "duration": 130}, {"note": 0, "velocity": 0, "duration": 110}, {"note": 71, "velocity": 110, "duration": 48}, {"note": 0, "velocity": 0, "duration": 72}, {"note": 71, "velocity": 110, "duration": 48}, {"note": 0, "velocity": 0, "duration": 72}, {"note": 71, "velocity": 107, "duration": 54}, {"note": 0, "velocity": 0, "duration": 66}, {"note": 71, "velocity": 113, "duration": 118}, {"note": 0, "velocity": 0, "duration": 122}, {"note": 69, "velocity": 108, "duration": 63}, {"note": 69, "velocity": 113, "duration": 142}, {"note": 0, "velocity": 0, "duration": 98}, {"note": 67, "velocity": 114, "duration": 235}, {"note": 0, "velocity": 0, "duration": 125}, {"note": 64, "velocity": 114, "duration": 194}, {"note": 0, "velocity": 0, "duration": 1366}, {"note": 69, "velocity": 114, "duration": 156}, {"note": 71, "velocity": 107, "duration": 135}, {"note": 72, "velocity": 108, "duration": 73}, {"note": 74, "velocity": 117, "duration": 149}, {"note": 0, "velocity": 0, "duration": 91}, {"note": 74, "velocity": 117, "duration": 154}, {"note": 0, "velocity": 0, "duration": 86}, {"note": 74, "velocity": 116, "duration": 145}, {"note": 0, "velocity": 0, "duration": 95}, {"note": 74, "velocity": 116, "duration": 127}, {"note": 0, "velocity": 0, "duration": 113}, {"note": 74, "velocity": 116, "duration": 83}, {"note": 0, "velocity": 0, "duration": 157}, {"note": 72, "velocity": 114, "duration": 109}, {"note": 69, "velocity": 116, "duration": 118}, {"note": 0, "velocity": 0, "duration": 242}, {"note": 69, "velocity": 110, "duration": 93}, {"note": 71, "velocity": 110, "duration": 65}, {"note": 72, "velocity": 116, "duration": 136}, {"note": 0, "velocity": 0, "duration": 104}, {"note": 72, "velocity": 114, "duration": 60}, {"note": 72, "velocity": 108, "duration": 56}, {"note": 0, "velocity": 0, "duration": 64}, {"note": 72, "velocity": 114, "duration": 114}, {"note": 0, "velocity": 0, "duration": 126}, {"note": 72, "velocity": 110, "duration": 135}, {"note": 0, "velocity": 0, "duration": 105}, {"note": 72, "velocity": 116, "duration": 125}, {"note": 0, "velocity": 0, "duration": 115}, {"note": 72, "velocity": 110, "duration": 105}, {"note": 69, "velocity": 114, "duration": 109}, {"note": 0, "velocity": 0, "duration": 251}, {"note": 69, "velocity": 113, "duration": 114}, {"note": 72, "velocity": 113, "duration": 104}, {"note": 71, "velocity": 117, "duration": 127}, {"note": 0, "velocity": 0, "duration": 113}, {"note": 71, "velocity": 114, "duration": 60}, {"note": 71, "velocity": 108, "duration": 58}, {"note": 0, "velocity": 0, "duration": 62}, {"note": 71, "velocity": 116, "duration": 105}, {"note": 0, "velocity": 0, "duration": 1095}, {"note": 71, "velocity": 117, "duration": 129}, {"note": 0, "velocity": 0, "duration": 111}, {"note": 71, "velocity": 117, "duration": 169}, {"note": 0, "velocity": 0, "duration": 71}, {"note": 69, "velocity": 116, "duration": 230}, {"note": 0, "velocity": 0, "duration": 1090}, {"note": 69, "velocity": 114, "duration": 105}, {"note": 71, "velocity": 107, "duration": 76}, {"note": 72, "velocity": 113, "duration": 60}, {"note": 74, "velocity": 120, "duration": 124}, {"note": 0, "velocity": 0, "duration": 116}, {"note": 74, "velocity": 107, "duration": 53}, {"note": 0, "velocity": 0, "duration": 67}, {"note": 74, "velocity": 113, "duration": 118}, {"note": 0, "velocity": 0, "duration": 122}, {"note": 74, "velocity": 113, "duration": 196}, {"note": 74, "velocity": 104, "duration": 42}, {"note": 0, "velocity": 0, "duration": 78}, {"note": 74, "velocity": 113, "duration": 45}, {"note": 0, "velocity": 0, "duration": 75}, {"note": 74, "velocity": 104, "duration": 100}, {"note": 72, "velocity": 96, "duration": 114}, {"note": 69, "velocity": 104, "duration": 139}, {"note": 0, "velocity": 0, "duration": 221}, {"note": 69, "velocity": 114, "duration": 133}, {"note": 71, "velocity": 107, "duration": 81}, {"note": 72, "velocity": 116, "duration": 117}, {"note": 72, "velocity": 114, "duration": 99}, {"note": 0, "velocity": 0, "duration": 141}, {"note": 72, "velocity": 114, "duration": 60}, {"note": 72, "velocity": 116, "duration": 104}, {"note": 0, "velocity": 0, "duration": 136}, {"note": 72, "velocity": 104, "duration": 52}, {"note": 0, "velocity": 0, "duration": 68}, {"note": 72, "velocity": 107, "duration": 62}, {"note": 72, "velocity": 108, "duration": 114}, {"note": 0, "velocity": 0, "duration": 126}, {"note": 71, "velocity": 114, "duration": 130}, {"note": 69, "velocity": 113, "duration": 115}, {"note": 0, "velocity": 0, "duration": 245}, {"note": 69, "velocity": 113, "duration": 115}, {"note": 72, "velocity": 102, "duration": 97}, {"note": 71, "velocity": 116, "duration": 160}, {"note": 0, "velocity": 0, "duration": 80}, {"note": 71, "velocity": 113, "duration": 63}, {"note": 71, "velocity": 114, "duration": 130}, {"note": 0, "velocity": 0, "duration": 110}, {"note": 71, "velocity": 110, "duration": 48}, {"note": 0, "velocity": 0, "duration": 72}, {"note": 71, "velocity": 110, "duration": 48}, {"note": 0, "velocity": 0, "duration": 72}, {"note": 71, "velocity": 107, "duration": 54}, {"note": 0, "velocity": 0, "duration": 66}, {"note": 71, "velocity": 113, "duration": 118}, {"note": 0, "velocity": 0, "duration": 122}, {"note": 69, "velocity": 108, "duration": 63}, {"note": 69, "velocity": 113, "duration": 142}, {"note": 0, "velocity": 0, "duration": 98}, {"note": 67, "velocity": 114, "duration": 235}, {"note": 0, "velocity": 0, "duration": 125}, {"note": 64, "velocity": 114, "duration": 194}, {"note": 0, "velocity": 0, "duration": 1366}, {"note": 69, "velocity": 114, "duration": 156}, {"note": 71, "velocity": 107, "duration": 135}, {"note": 72, "velocity": 108, "duration": 73}, {"note": 74, "velocity": 117, "duration": 149}, {"note": 0, "velocity": 0, "duration": 91}, {"note": 74, "velocity": 117, "duration": 154}, {"note": 0, "velocity": 0, "duration": 86}, {"note": 74, "velocity": 116, "duration": 145}, {"note": 0, "velocity": 0, "duration": 95}, {"note": 74, "velocity": 116, "duration": 127}, {"note": 0, "velocity": 0, "duration": 113}, {"note": 74, "velocity": 116, "duration": 83}, {"note": 0, "velocity": 0, "duration": 157}, {"note": 72, "velocity": 114, "duration": 109}, {"note": 69, "velocity": 116, "duration": 118}, {"note": 0, "velocity": 0, "duration": 242}, {"note": 69, "velocity": 110, "duration": 93}, {"note": 71, "velocity": 110, "duration": 65}, {"note": 72, "velocity": 116, "duration": 136}, {"note": 0, "velocity": 0, "duration": 104}, {"note": 72, "velocity": 114, "duration": 60}, {"note": 72, "velocity": 108, "duration": 56}, {"note": 0, "velocity": 0, "duration": 64}, {"note": 72, "velocity": 114, "duration": 114}, {"note": 0, "velocity": 0, "duration": 126}, {"note": 72, "velocity": 110, "duration": 135}, {"note": 0, "velocity": 0, "duration": 105}, {"note": 72, "velocity": 116, "duration": 125}, {"note": 0, "velocity": 0, "duration": 115}, {"note": 72, "velocity": 110, "duration": 105}, {"note": 69, "velocity": 114, "duration": 109}, {"note": 0, "velocity": 0, "duration": 251}, {"note": 69, "velocity": 113, "duration": 114}, {"note": 72, "velocity": 113, "duration": 104}, {"note": 71, "velocity": 117, "duration": 127}, {"note": 0, "velocity": 0, "duration": 113}, {"note": 71, "velocity": 114, "duration": 60}, {"note": 71, "velocity": 108, "duration": 58}, {"note": 0, "velocity": 0, "duration": 62}, {"note": 71, "velocity": 116, "duration": 105}, {"note": 0, "velocity": 0, "duration": 375}, {"note": 71, "velocity": 114, "duration": 210}, {"note": 72, "velocity": 102, "duration": 143}, {"note": 71, "velocity": 92, "duration": 251}, {"note": 0, "velocity": 0, "duration": 109}, {"note": 67, "velocity": 107, "duration": 276}, {"note": 0, "velocity": 0, "duration": 1404}, {"note": 71, "velocity": 114, "duration": 218}, {"note": 0, "velocity": 0, "duration": 262}, {"note": 71, "velocity": 108, "duration": 292}, {"note": 0, "velocity": 0, "duration": 188}, {"note": 69, "velocity": 114, "duration": 260}]]