[[{"note": 57, "velocity": 89, "duration": 239}, {"note": 57, "velocity": 91, "duration": 240}, {"note": 66, "velocity": 86, "duration": 240}, {"note": 64, "velocity": 87, "duration": 240}, {"note": 66, "velocity": 84, "duration": 129}, {"note": 64, "velocity": 85, "duration": 240}, {"note": 62, "velocity": 88, "duration": 600}, {"note": 57, "velocity": 91, "duration": 239}, {"note": 57, "velocity": 88, "duration": 240}, {"note": 66, "velocity": 86, "duration": 240}, {"note": 64, "velocity": 90, "duration": 240}, {"note": 66, "velocity": 84, "duration": 120}, {"note": 64, "velocity": 88, "duration": 240}, {"note": 62, "velocity": 91, "duration": 600}, {"note": 67, "velocity": 100, "duration": 239}, {"note": 67, "velocity": 96, "duration": 240}, {"note": 66, "velocity": 91, "duration": 240}, {"note": 64, "velocity": 93, "duration": 240}, {"note": 66, "velocity": 86, "duration": 120}, {"note": 64, "velocity": 92, "duration": 360}, {"note": 62, "velocity": 88, "duration": 240}, {"note": 64, "velocity": 92, "duration": 2160}, {"note": 57, "velocity": 88, "duration": 239}, {"note": 57, "velocity": 91, "duration": 240}, {"note": 66, "velocity": 89, "duration": 240}, {"note": 64, "velocity": 88, "duration": 240}, {"note": 66, "velocity": 83, "duration": 145}, {"note": 64, "velocity": 86, "duration": 240}, {"note": 62, "velocity": 91, "duration": 600}, {"note": 57, "velocity": 88, "duration": 239}, {"note": 57, "velocity": 94, "duration": 240}, {"note": 66, "velocity": 103, "duration": 240}, {"note": 69, "velocity": 92, "duration": 240}, {"note": 66, "velocity": 86, "duration": 120}, {"note": 64, "velocity": 91, "duration": 240}, {"note": 62, "velocity": 89, "duration": 600}, {"note": 67, "velocity": 106, "duration": 239}, {"note": 67, "velocity": 110, "duration": 240}, {"note": 66, "velocity": 106, "duration": 240}, {"note": 64, "velocity": 98, "duration": 240}, {"note": 66, "velocity": 91, "duration": 120}, {"note": 64, "velocity": 93, "duration": 240}, {"note": 62, "velocity": 88, "duration": 360}, {"note": 69, "velocity": 108, "duration": 1560}, {"note": 74, "velocity": 114, "duration": 240}, {"note": 73, "velocity": 95, "duration": 120}, {"note": 71, "velocity": 102, "duration": 239}, {"note": 71, "velocity": 100, "duration": 240}, {"note": 73, "velocity": 103, "duration": 240}, {"note": 71, "velocity": 94, "duration": 119}, {"note": 71, "velocity": 96, "duration": 240}, {"note": 66, "velocity": 95, "duration": 479}, {"note": 66, "velocity": 97, "duration": 240}, {"note": 69, "velocity": 89, "duration": 120}, {"note": 71, "velocity": 93, "duration": 239}, {"note": 71, "velocity": 96, "duration": 240}, {"note": 62, "velocity": 98, "duration": 240}, {"note": 64, "velocity": 98, "duration": 240}, {"note": 66, "velocity": 91, "duration": 599}, {"note": 66, "velocity": 86, "duration": 119}, {"note": 66, "velocity": 84, "duration": 132}, {"note": 69, "velocity": 88, "duration": 126}, {"note": 71, "velocity": 91, "duration": 126}, {"note": 69, "velocity": 87, "duration": 135}, {"note": 71, "velocity": 88, "duration": 132}, {"note": 69, "velocity": 87, "duration": 141}, {"note": 71, "velocity": 91, "duration": 240}, {"note": 69, "velocity": 107, "duration": 120}, {"note": 71, "velocity": 113, "duration": 719}, {"note": 71, "velocity": 110, "duration": 240}, {"note": 74, "velocity": 100, "duration": 120}, {"note": 76, "velocity": 110, "duration": 120}, {"note": 74, "velocity": 92, "duration": 124}, {"note": 76, "velocity": 98, "duration": 120}, {"note": 74, "velocity": 91, "duration": 120}, {"note": 78, "velocity": 113, "duration": 240}, {"note": 74, "velocity": 110, "duration": 120}, {"note": 76, "velocity": 119, "duration": 1320}, {"note": 74, "velocity": 116, "duration": 239}, {"note": 74, "velocity": 117, "duration": 240}, {"note": 69, "velocity": 114, "duration": 240}, {"note": 76, "velocity": 119, "duration": 240}, {"note": 74, "velocity": 108, "duration": 138}, {"note": 73, "velocity": 113, "duration": 240}, {"note": 74, "velocity": 113, "duration": 240}, {"note": 71, "velocity": 102, "duration": 480}, {"note": 74, "velocity": 100, "duration": 119}, {"note": 74, "velocity": 108, "duration": 120}, {"note": 69, "velocity": 107, "duration": 360}, {"note": 76, "velocity": 108, "duration": 240}, {"note": 74, "velocity": 102, "duration": 140}, {"note": 73, "velocity": 100, "duration": 240}, {"note": 74, "velocity": 102, "duration": 240}, {"note": 71, "velocity": 110, "duration": 480}, {"note": 74, "velocity": 107, "duration": 119}, {"note": 74, "velocity": 107, "duration": 120}, {"note": 69, "velocity": 102, "duration": 360}, {"note": 76, "velocity": 119, "duration": 240}, {"note": 74, "velocity": 110, "duration": 120}, {"note": 76, "velocity": 116, "duration": 240}, {"note": 78, "velocity": 116, "duration": 360}, {"note": 79, "velocity": 123, "duration": 240}, {"note": 78, "velocity": 113, "duration": 120}, {"note": 74, "velocity": 116, "duration": 240}, {"note": 76, "velocity": 110, "duration": 360}, {"note": 79, "velocity": 116, "duration": 240}, {"note": 78, "velocity": 106, "duration": 134}, {"note": 74, "velocity": 114, "duration": 240}, {"note": 76, "velocity": 114, "duration": 600}, {"note": 74, "velocity": 116, "duration": 239}, {"note": 74, "velocity": 117, "duration": 240}, {"note": 69, "velocity": 114, "duration": 240}, {"note": 76, "velocity": 119, "duration": 240}, {"note": 74, "velocity": 108, "duration": 138}, {"note": 73, "velocity": 113, "duration": 240}, {"note": 74, "velocity": 113, "duration": 240}, {"note": 71, "velocity": 102, "duration": 480}, {"note": 74, "velocity": 100, "duration": 119}, {"note": 74, "velocity": 108, "duration": 120}, {"note": 69, "velocity": 107, "duration": 360}, {"note": 76, "velocity": 116, "duration": 240}, {"note": 74, "velocity": 107, "duration": 120}, {"note": 76, "velocity": 110, "duration": 240}, {"note": 78, "velocity": 119, "duration": 360}, {"note": 79, "velocity": 116, "duration": 124}, {"note": 78, "velocity": 116, "duration": 240}, {"note": 74, "velocity": 116, "duration": 600}, {"note": 79, "velocity": 116, "duration": 162}, {"note": 78, "velocity": 116, "duration": 240}, {"note": 74, "velocity": 116, "duration": 480}, {"note": 69, "velocity": 100, "duration": 120}, {"note": 79, "velocity": 110, "duration": 126}, {"note": 78, "velocity": 109, "duration": 240}, {"note": 74, "velocity": 114, "duration": 240}, {"note": 76, "velocity": 110, "duration": 240}, {"note": 74, "velocity": 110, "duration": 120}, {"note": 76, "velocity": 116, "duration": 240}, {"note": 78, "velocity": 116, "duration": 240}, {"note": 74, "velocity": 119, "duration": 240}, {"note": 73, "velocity": 116, "duration": 240}, {"note": 74, "velocity": 113, "duration": 1058}, {"note": 0, "velocity": 0, "duration": 6842}, {"note": 57, "velocity": 89, "duration": 239}, {"note": 57, "velocity": 91, "duration": 240}, {"note": 66, "velocity": 86, "duration": 240}, {"note": 64, "velocity": 87, "duration": 240}, {"note": 66, "velocity": 84, "duration": 129}, {"note": 64, "velocity": 85, "duration": 240}, {"note": 62, "velocity": 88, "duration": 600}, {"note": 57, "velocity": 91, "duration": 239}, {"note": 57, "velocity": 88, "duration": 240}, {"note": 66, "velocity": 86, "duration": 240}, {"note": 64, "velocity": 90, "duration": 240}, {"note": 66, "velocity": 84, "duration": 120}, {"note": 64, "velocity": 88, "duration": 240}, {"note": 62, "velocity": 91, "duration": 600}, {"note": 67, "velocity": 100, "duration": 239}, {"note": 67, "velocity": 96, "duration": 240}, {"note": 66, "velocity": 91, "duration": 240}, {"note": 64, "velocity": 93, "duration": 240}, {"note": 66, "velocity": 86, "duration": 120}, {"note": 64, "velocity": 92, "duration": 360}, {"note": 62, "velocity": 88, "duration": 240}, {"note": 64, "velocity": 92, "duration": 2160}, {"note": 57, "velocity": 88, "duration": 239}, {"note": 57, "velocity": 91, "duration": 240}, {"note": 66, "velocity": 89, "duration": 240}, {"note": 64, "velocity": 88, "duration": 240}, {"note": 66, "velocity": 83, "duration": 146}, {"note": 64, "velocity": 86, "duration": 240}, {"note": 62, "velocity": 91, "duration": 600}, {"note": 57, "velocity": 88, "duration": 239}, {"note": 57, "velocity": 94, "duration": 240}, {"note": 66, "velocity": 103, "duration": 240}, {"note": 69, "velocity": 92, "duration": 240}, {"note": 66, "velocity": 86, "duration": 120}, {"note": 64, "velocity": 91, "duration": 240}, {"note": 62, "velocity": 89, "duration": 600}, {"note": 67, "velocity": 106, "duration": 239}, {"note": 67, "velocity": 110, "duration": 240}, {"note": 66, "velocity": 106, "duration": 240}, {"note": 64, "velocity": 98, "duration": 240}, {"note": 66, "velocity": 91, "duration": 120}, {"note": 64, "velocity": 93, "duration": 240}, {"note": 62, "velocity": 88, "duration": 360}, {"note": 69, "velocity": 108, "duration": 1560}, {"note": 74, "velocity": 114, "duration": 240}, {"note": 73, "velocity": 95, "duration": 120}, {"note": 71, "velocity": 102, "duration": 239}, {"note": 71, "velocity": 100, "duration": 240}, {"note": 73, "velocity": 103, "duration": 240}, {"note": 71, "velocity": 94, "duration": 119}, {"note": 71, "velocity": 96, "duration": 240}, {"note": 66, "velocity": 95, "duration": 479}, {"note": 66, "velocity": 97, "duration": 240}, {"note": 69, "velocity": 89, "duration": 120}, {"note": 71, "velocity": 93, "duration": 239}, {"note": 71, "velocity": 96, "duration": 240}, {"note": 62, "velocity": 98, "duration": 240}, {"note": 64, "velocity": 98, "duration": 240}, {"note": 66, "velocity": 91, "duration": 599}, {"note": 66, "velocity": 86, "duration": 119}, {"note": 66, "velocity": 84, "duration": 132}, {"note": 69, "velocity": 88, "duration": 126}, {"note": 71, "velocity": 91, "duration": 126}, {"note": 69, "velocity": 87, "duration": 136}, {"note": 71, "velocity": 88, "duration": 132}, {"note": 69, "velocity": 87, "duration": 142}, {"note": 71, "velocity": 91, "duration": 240}, {"note": 69, "velocity": 107, "duration": 120}, {"note": 71, "velocity": 113, "duration": 719}, {"note": 71, "velocity": 110, "duration": 240}, {"note": 74, "velocity": 100, "duration": 120}, {"note": 76, "velocity": 110, "duration": 120}, {"note": 74, "velocity": 92, "duration": 125}, {"note": 76, "velocity": 98, "duration": 120}, {"note": 74, "velocity": 91, "duration": 120}, {"note": 78, "velocity": 113, "duration": 240}, {"note": 74, "velocity": 110, "duration": 120}, {"note": 76, "velocity": 119, "duration": 1320}, {"note": 74, "velocity": 116, "duration": 239}, {"note": 74, "velocity": 117, "duration": 240}, {"note": 69, "velocity": 114, "duration": 240}, {"note": 76, "velocity": 119, "duration": 240}, {"note": 74, "velocity": 108, "duration": 139}, {"note": 73, "velocity": 113, "duration": 240}, {"note": 74, "velocity": 113, "duration": 240}, {"note": 71, "velocity": 102, "duration": 480}, {"note": 74, "velocity": 100, "duration": 119}, {"note": 74, "velocity": 108, "duration": 120}, {"note": 69, "velocity": 107, "duration": 360}, {"note": 76, "velocity": 108, "duration": 240}, {"note": 74, "velocity": 102, "duration": 141}, {"note": 73, "velocity": 100, "duration": 240}, {"note": 74, "velocity": 102, "duration": 240}, {"note": 71, "velocity": 110, "duration": 480}, {"note": 74, "velocity": 107, "duration": 119}, {"note": 74, "velocity": 107, "duration": 120}, {"note": 69, "velocity": 102, "duration": 360}, {"note": 76, "velocity": 119, "duration": 240}, {"note": 74, "velocity": 110, "duration": 120}, {"note": 76, "velocity": 116, "duration": 240}, {"note": 78, "velocity": 116, "duration": 360}, {"note": 79, "velocity": 123, "duration": 240}, {"note": 78, "velocity": 113, "duration": 120}, {"note": 74, "velocity": 116, "duration": 240}, {"note": 76, "velocity": 110, "duration": 360}, {"note": 79, "velocity": 116, "duration": 240}, {"note": 78, "velocity": 106, "duration": 135}, {"note": 74, "velocity": 114, "duration": 240}, {"note": 76, "velocity": 114, "duration": 600}, {"note": 74, "velocity": 116, "duration": 239}, {"note": 74, "velocity": 117, "duration": 240}, {"note": 69, "velocity": 114, "duration": 240}, {"note": 76, "velocity": 119, "duration": 240}, {"note": 74, "velocity": 108, "duration": 139}, {"note": 73, "velocity": 113, "duration": 240}, {"note": 74, "velocity": 113, "duration": 240}, {"note": 71, "velocity": 102, "duration": 480}, {"note": 74, "velocity": 100, "duration": 119}, {"note": 74, "velocity": 108, "duration": 120}, {"note": 69, "velocity": 107, "duration": 360}, {"note": 76, "velocity": 116, "duration": 240}, {"note": 74, "velocity": 107, "duration": 120}, {"note": 76, "velocity": 110, "duration": 240}, {"note": 78, "velocity": 119, "duration": 360}, {"note": 79, "velocity": 116, "duration": 124}, {"note": 78, "velocity": 116, "duration": 240}, {"note": 74, "velocity": 116, "duration": 600}, {"note": 79, "velocity": 116, "duration": 163}, {"note": 78, "velocity": 116, "duration": 240}, {"note": 74, "velocity": 116, "duration": 480}, {"note": 69, "velocity": 100, "duration": 120}, {"note": 79, "velocity": 110, "duration": 127}, {"note": 78, "velocity": 109, "duration": 240}, {"note": 74, "velocity": 114, "duration": 240}, {"note": 76, "velocity": 110, "duration": 240}, {"note": 74, "velocity": 110, "duration": 120}, {"note": 76, "velocity": 116, "duration": 240}, {"note": 78, "velocity": 116, "duration": 240}, {"note": 74, "velocity": 119, "duration": 240}, {"note": 73, "velocity": 116, "duration": 240}, {"note": 74, "velocity": 113, "duration": 941}, {"note": 0, "velocity": 0, "duration": 7239}, {"note": 74, "velocity": 116, "duration": 239}, {"note": 74, "velocity": 117, "duration": 240}, {"note": 69, "velocity": 114, "duration": 240}, {"note": 76, "velocity": 119, "duration": 240}, {"note": 74, "velocity": 108, "duration": 138}, {"note": 73, "velocity": 113, "duration": 240}, {"note": 74, "velocity": 113, "duration": 240}, {"note": 71, "velocity": 102, "duration": 480}, {"note": 74, "velocity": 100, "duration": 119}, {"note": 74, "velocity": 108, "duration": 120}, {"note": 69, "velocity": 107, "duration": 360}, {"note": 76, "velocity": 108, "duration": 240}, {"note": 74, "velocity": 102, "duration": 140}, {"note": 73, "velocity": 100, "duration": 240}, {"note": 74, "velocity": 102, "duration": 240}, {"note": 71, "velocity": 110, "duration": 480}, {"note": 74, "velocity": 107, "duration": 119}, {"note": 74, "velocity": 107, "duration": 120}, {"note": 69, "velocity": 102, "duration": 360}, {"note": 76, "velocity": 119, "duration": 240}, {"note": 74, "velocity": 110, "duration": 120}, {"note": 76, "velocity": 116, "duration": 240}, {"note": 78, "velocity": 116, "duration": 360}, {"note": 79, "velocity": 123, "duration": 240}, {"note": 78, "velocity": 113, "duration": 120}, {"note": 74, "velocity": 116, "duration": 240}, {"note": 76, "velocity": 110, "duration": 360}, {"note": 79, "velocity": 116, "duration": 240}, {"note": 78, "velocity": 106, "duration": 134}, {"note": 74, "velocity": 114, "duration": 240}, {"note": 76, "velocity": 114, "duration": 600}, {"note": 74, "velocity": 116, "duration": 239}, {"note": 74, "velocity": 117, "duration": 240}, {"note": 69, "velocity": 114, "duration": 240}, {"note": 76, "velocity": 119, "duration": 240}, {"note": 74, "velocity": 108, "duration": 138}, {"note": 73, "velocity": 113, "duration": 240}, {"note": 74, "velocity": 113, "duration": 240}, {"note": 71, "velocity": 102, "duration": 480}, {"note": 74, "velocity": 100, "duration": 119}, {"note": 74, "velocity": 108, "duration": 120}, {"note": 69, "velocity": 107, "duration": 360}, {"note": 76, "velocity": 116, "duration": 240}, {"note": 74, "velocity": 107, "duration": 120}, {"note": 76, "velocity": 110, "duration": 240}, {"note": 78, "velocity": 119, "duration": 360}, {"note": 79, "velocity": 116, "duration": 124}, {"note": 78, "velocity": 116, "duration": 240}, {"note": 74, "velocity": 116, "duration": 600}, {"note": 79, "velocity": 116, "duration": 162}, {"note": 78, "velocity": 116, "duration": 240}, {"note": 74, "velocity": 116, "duration": 480}, {"note": 69, "velocity": 100, "duration": 120}, {"note": 79, "velocity": 110, "duration": 126}, {"note": 78, "velocity": 109, "duration": 240}, {"note": 74, "velocity": 114, "duration": 240}, {"note": 76, "velocity": 110, "duration": 240}, {"note": 74, "velocity": 110, "duration": 120}, {"note": 76, "velocity": 116, "duration": 240}, {"note": 78, "velocity": 116, "duration": 240}, {"note": 74, "velocity": 119, "duration": 240}, {"note": 73, "velocity": 116, "duration": 240}, {"note": 74, "velocity": 113, "duration": 796}, {"note": 0, "velocity": 0, "duration": 1334}, {"note": 74, "velocity": 116, "duration": 239}, {"note": 74, "velocity": 117, "duration": 240}, {"note": 69, "velocity": 114, "duration": 240}, {"note": 76, "velocity": 119, "duration": 240}, {"note": 74, "velocity": 108, "duration": 138}, {"note": 73, "velocity": 113, "duration": 240}, {"note": 74, "velocity": 113, "duration": 240}, {"note": 71, "velocity": 102, "duration": 480}, {"note": 74, "velocity": 100, "duration": 119}, {"note": 74, "velocity": 108, "duration": 120}, {"note": 69, "velocity": 107, "duration": 360}, {"note": 76, "velocity": 108, "duration": 240}, {"note": 74, "velocity": 102, "duration": 140}, {"note": 73, "velocity": 100, "duration": 240}, {"note": 74, "velocity": 102, "duration": 240}, {"note": 71, "velocity": 110, "duration": 480}, {"note": 74, "velocity": 107, "duration": 119}, {"note": 74, "velocity": 107, "duration": 120}, {"note": 69, "velocity": 102, "duration": 360}, {"note": 76, "velocity": 119, "duration": 240}, {"note": 74, "velocity": 110, "duration": 120}, {"note": 76, "velocity": 116, "duration": 240}, {"note": 78, "velocity": 116, "duration": 360}, {"note": 79, "velocity": 123, "duration": 240}, {"note": 78, "velocity": 113, "duration": 120}, {"note": 74, "velocity": 116, "duration": 240}, {"note": 76, "velocity": 110, "duration": 360}, {"note": 79, "velocity": 116, "duration": 240}, {"note": 78, "velocity": 106, "duration": 134}, {"note": 74, "velocity": 114, "duration": 240}, {"note": 76, "velocity": 114, "duration": 600}, {"note": 74, "velocity": 116, "duration": 239}, {"note": 74, "velocity": 117, "duration": 240}, {"note": 69, "velocity": 114, "duration": 240}, {"note": 76, "velocity": 119, "duration": 240}, {"note": 74, "velocity": 108, "duration": 138}, {"note": 73, "velocity": 113, "duration": 240}, {"note": 74, "velocity": 113, "duration": 240}, {"note": 71, "velocity": 102, "duration": 480}, {"note": 74, "velocity": 100, "duration": 119}, {"note": 74, "velocity": 108, "duration": 120}, {"note": 69, "velocity": 107, "duration": 360}, {"note": 76, "velocity": 116, "duration": 240}, {"note": 74, "velocity": 107, "duration": 120}, {"note": 76, "velocity": 110, "duration": 240}, {"note": 78, "velocity": 119, "duration": 360}, {"note": 79, "velocity": 116, "duration": 124}, {"note": 78, "velocity": 116, "duration": 240}, {"note": 74, "velocity": 116, "duration": 600}, {"note": 79, "velocity": 116, "duration": 162}, {"note": 78, "velocity": 116, "duration": 240}, {"note": 74, "velocity": 116, "duration": 480}, {"note": 69, "velocity": 100, "duration": 120}, {"note": 79, "velocity": 110, "duration": 126}, {"note": 78, "velocity": 109, "duration": 240}, {"note": 74, "velocity": 114, "duration": 240}, {"note": 76, "velocity": 110, "duration": 240}, {"note": 74, "velocity": 110, "duration": 120}, {"note": 76, "velocity": 116, "duration": 240}, {"note": 78, "velocity": 116, "duration": 240}, {"note": 74, "velocity": 119, "duration": 240}, {"note": 73, "velocity": 116, "duration": 240}, {"note": 74, "velocity": 113, "duration": 1462}]]