[[{"note": 67, "velocity": 116, "duration": 285}, {"note": 66, "velocity": 106, "duration": 240}, {"note": 67, "velocity": 100, "duration": 240}, {"note": 64, "velocity": 94, "duration": 240}, {"note": 66, "velocity": 103, "duration": 343}, {"note": 64, "velocity": 86, "duration": 119}, {"note": 64, "velocity": 90, "duration": 360}, {"note": 62, "velocity": 88, "duration": 480}, {"note": 64, "velocity": 96, "duration": 1679}, {"note": 64, "velocity": 93, "duration": 245}, {"note": 62, "velocity": 91, "duration": 249}, {"note": 64, "velocity": 89, "duration": 240}, {"note": 67, "velocity": 89, "duration": 252}, {"note": 66, "velocity": 88, "duration": 240}, {"note": 64, "velocity": 89, "duration": 119}, {"note": 64, "velocity": 87, "duration": 360}, {"note": 62, "velocity": 87, "duration": 482}, {"note": 59, "velocity": 83, "duration": 1439}, {"note": 59, "velocity": 107, "duration": 240}, {"note": 60, "velocity": 104, "duration": 240}, {"note": 59, "velocity": 90, "duration": 155}, {"note": 60, "velocity": 98, "duration": 360}, {"note": 71, "velocity": 110, "duration": 240}, {"note": 69, "velocity": 114, "duration": 720}, {"note": 62, "velocity": 107, "duration": 240}, {"note": 69, "velocity": 102, "duration": 240}, {"note": 67, "velocity": 93, "duration": 120}, {"note": 69, "velocity": 108, "duration": 360}, {"note": 74, "velocity": 114, "duration": 240}, {"note": 71, "velocity": 110, "duration": 479}, {"note": 71, "velocity": 113, "duration": 240}, {"note": 67, "velocity": 102, "duration": 256}, {"note": 64, "velocity": 98, "duration": 479}, {"note": 64, "velocity": 102, "duration": 240}, {"note": 71, "velocity": 108, "duration": 240}, {"note": 69, "velocity": 100, "duration": 480}, {"note": 66, "velocity": 113, "duration": 480}, {"note": 64, "velocity": 98, "duration": 1920}, {"note": 67, "velocity": 116, "duration": 285}, {"note": 66, "velocity": 106, "duration": 240}, {"note": 67, "velocity": 100, "duration": 240}, {"note": 64, "velocity": 94, "duration": 240}, {"note": 66, "velocity": 103, "duration": 343}, {"note": 64, "velocity": 86, "duration": 119}, {"note": 64, "velocity": 90, "duration": 360}, {"note": 62, "velocity": 88, "duration": 480}, {"note": 64, "velocity": 96, "duration": 1679}, {"note": 64, "velocity": 93, "duration": 245}, {"note": 62, "velocity": 91, "duration": 249}, {"note": 64, "velocity": 89, "duration": 240}, {"note": 67, "velocity": 89, "duration": 252}, {"note": 66, "velocity": 88, "duration": 240}, {"note": 64, "velocity": 89, "duration": 119}, {"note": 64, "velocity": 87, "duration": 360}, {"note": 62, "velocity": 87, "duration": 482}, {"note": 59, "velocity": 83, "duration": 1439}, {"note": 59, "velocity": 107, "duration": 240}, {"note": 60, "velocity": 104, "duration": 240}, {"note": 59, "velocity": 90, "duration": 155}, {"note": 60, "velocity": 98, "duration": 360}, {"note": 71, "velocity": 110, "duration": 240}, {"note": 69, "velocity": 114, "duration": 720}, {"note": 62, "velocity": 107, "duration": 240}, {"note": 69, "velocity": 102, "duration": 240}, {"note": 67, "velocity": 93, "duration": 120}, {"note": 69, "velocity": 108, "duration": 360}, {"note": 74, "velocity": 114, "duration": 240}, {"note": 71, "velocity": 110, "duration": 479}, {"note": 71, "velocity": 113, "duration": 240}, {"note": 67, "velocity": 102, "duration": 256}, {"note": 64, "velocity": 98, "duration": 479}, {"note": 64, "velocity": 102, "duration": 240}, {"note": 71, "velocity": 108, "duration": 240}, {"note": 69, "velocity": 100, "duration": 480}, {"note": 66, "velocity": 113, "duration": 480}, {"note": 64, "velocity": 98, "duration": 1440}, {"note": 71, "velocity": 91, "duration": 240}, {"note": 74, "velocity": 98, "duration": 240}, {"note": 76, "velocity": 93, "duration": 240}, {"note": 74, "velocity": 88, "duration": 120}, {"note": 76, "velocity": 87, "duration": 240}, {"note": 71, "velocity": 91, "duration": 360}, {"note": 69, "velocity": 88, "duration": 960}, {"note": 74, "velocity": 90, "duration": 240}, {"note": 71, "velocity": 89, "duration": 180}, {"note": 74, "velocity": 89, "duration": 240}, {"note": 69, "velocity": 87, "duration": 360}, {"note": 67, "velocity": 89, "duration": 960}, {"note": 71, "velocity": 104, "duration": 240}, {"note": 69, "velocity": 91, "duration": 120}, {"note": 71, "velocity": 88, "duration": 360}, {"note": 64, "velocity": 93, "duration": 240}, {"note": 69, "velocity": 104, "duration": 240}, {"note": 67, "velocity": 88, "duration": 161}, {"note": 69, "velocity": 88, "duration": 360}, {"note": 74, "velocity": 98, "duration": 480}, {"note": 71, "velocity": 96, "duration": 1199}, {"note": 71, "velocity": 91, "duration": 240}, {"note": 74, "velocity": 98, "duration": 240}, {"note": 76, "velocity": 93, "duration": 240}, {"note": 74, "velocity": 88, "duration": 120}, {"note": 76, "velocity": 87, "duration": 240}, {"note": 71, "velocity": 91, "duration": 360}, {"note": 69, "velocity": 88, "duration": 960}, {"note": 74, "velocity": 90, "duration": 240}, {"note": 71, "velocity": 89, "duration": 180}, {"note": 74, "velocity": 89, "duration": 240}, {"note": 69, "velocity": 87, "duration": 360}, {"note": 67, "velocity": 89, "duration": 480}, {"note": 64, "velocity": 102, "duration": 240}, {"note": 67, "velocity": 102, "duration": 240}, {"note": 71, "velocity": 116, "duration": 240}, {"note": 69, "velocity": 100, "duration": 120}, {"note": 71, "velocity": 110, "duration": 360}, {"note": 64, "velocity": 104, "duration": 240}, {"note": 69, "velocity": 113, "duration": 240}, {"note": 67, "velocity": 88, "duration": 120}, {"note": 69, "velocity": 93, "duration": 360}, {"note": 66, "velocity": 100, "duration": 480}, {"note": 64, "velocity": 94, "duration": 743}, {"note": 0, "velocity": 0, "duration": 8617}, {"note": 67, "velocity": 116, "duration": 285}, {"note": 66, "velocity": 106, "duration": 240}, {"note": 67, "velocity": 100, "duration": 240}, {"note": 64, "velocity": 94, "duration": 240}, {"note": 66, "velocity": 103, "duration": 343}, {"note": 64, "velocity": 86, "duration": 119}, {"note": 64, "velocity": 90, "duration": 360}, {"note": 62, "velocity": 88, "duration": 480}, {"note": 64, "velocity": 96, "duration": 1679}, {"note": 64, "velocity": 93, "duration": 245}, {"note": 62, "velocity": 91, "duration": 249}, {"note": 64, "velocity": 89, "duration": 240}, {"note": 67, "velocity": 89, "duration": 252}, {"note": 66, "velocity": 88, "duration": 240}, {"note": 64, "velocity": 89, "duration": 119}, {"note": 64, "velocity": 87, "duration": 360}, {"note": 62, "velocity": 87, "duration": 482}, {"note": 59, "velocity": 83, "duration": 1439}, {"note": 59, "velocity": 107, "duration": 240}, {"note": 60, "velocity": 104, "duration": 240}, {"note": 59, "velocity": 90, "duration": 155}, {"note": 60, "velocity": 98, "duration": 360}, {"note": 71, "velocity": 110, "duration": 240}, {"note": 69, "velocity": 114, "duration": 720}, {"note": 62, "velocity": 107, "duration": 240}, {"note": 69, "velocity": 102, "duration": 240}, {"note": 67, "velocity": 93, "duration": 120}, {"note": 69, "velocity": 108, "duration": 360}, {"note": 74, "velocity": 114, "duration": 240}, {"note": 71, "velocity": 110, "duration": 479}, {"note": 71, "velocity": 113, "duration": 240}, {"note": 67, "velocity": 102, "duration": 256}, {"note": 64, "velocity": 98, "duration": 479}, {"note": 64, "velocity": 102, "duration": 240}, {"note": 71, "velocity": 108, "duration": 240}, {"note": 69, "velocity": 100, "duration": 480}, {"note": 66, "velocity": 113, "duration": 480}, {"note": 64, "velocity": 98, "duration": 1440}, {"note": 71, "velocity": 91, "duration": 240}, {"note": 74, "velocity": 98, "duration": 240}, {"note": 76, "velocity": 93, "duration": 240}, {"note": 74, "velocity": 88, "duration": 120}, {"note": 76, "velocity": 87, "duration": 240}, {"note": 71, "velocity": 91, "duration": 360}, {"note": 69, "velocity": 88, "duration": 960}, {"note": 74, "velocity": 90, "duration": 240}, {"note": 71, "velocity": 89, "duration": 180}, {"note": 74, "velocity": 89, "duration": 240}, {"note": 69, "velocity": 87, "duration": 360}, {"note": 67, "velocity": 89, "duration": 960}, {"note": 71, "velocity": 104, "duration": 240}, {"note": 69, "velocity": 91, "duration": 120}, {"note": 71, "velocity": 88, "duration": 360}, {"note": 64, "velocity": 93, "duration": 240}, {"note": 69, "velocity": 104, "duration": 240}, {"note": 67, "velocity": 88, "duration": 161}, {"note": 69, "velocity": 88, "duration": 360}, {"note": 74, "velocity": 98, "duration": 480}, {"note": 71, "velocity": 96, "duration": 1199}, {"note": 71, "velocity": 91, "duration": 240}, {"note": 74, "velocity": 98, "duration": 240}, {"note": 76, "velocity": 93, "duration": 240}, {"note": 74, "velocity": 88, "duration": 120}, {"note": 76, "velocity": 87, "duration": 240}, {"note": 71, "velocity": 91, "duration": 360}, {"note": 69, "velocity": 88, "duration": 960}, {"note": 74, "velocity": 90, "duration": 240}, {"note": 71, "velocity": 89, "duration": 180}, {"note": 74, "velocity": 89, "duration": 240}, {"note": 69, "velocity": 87, "duration": 360}, {"note": 67, "velocity": 89, "duration": 480}, {"note": 64, "velocity": 102, "duration": 240}, {"note": 67, "velocity": 102, "duration": 240}, {"note": 71, "velocity": 116, "duration": 240}, {"note": 69, "velocity": 100, "duration": 120}, {"note": 71, "velocity": 110, "duration": 360}, {"note": 64, "velocity": 104, "duration": 240}, {"note": 69, "velocity": 113, "duration": 240}, {"note": 67, "velocity": 88, "duration": 120}, {"note": 69, "velocity": 93, "duration": 360}, {"note": 66, "velocity": 100, "duration": 480}, {"note": 64, "velocity": 94, "duration": 912}, {"note": 0, "velocity": 0, "duration": 15648}, {"note": 71, "velocity": 91, "duration": 240}, {"note": 74, "velocity": 98, "duration": 240}, {"note": 76, "velocity": 93, "duration": 240}, {"note": 74, "velocity": 88, "duration": 120}, {"note": 76, "velocity": 87, "duration": 240}, {"note": 71, "velocity": 91, "duration": 360}, {"note": 69, "velocity": 88, "duration": 960}, {"note": 74, "velocity": 90, "duration": 240}, {"note": 71, "velocity": 89, "duration": 180}, {"note": 74, "velocity": 89, "duration": 240}, {"note": 69, "velocity": 87, "duration": 360}, {"note": 67, "velocity": 89, "duration": 960}, {"note": 71, "velocity": 104, "duration": 240}, {"note": 69, "velocity": 91, "duration": 120}, {"note": 71, "velocity": 88, "duration": 360}, {"note": 64, "velocity": 93, "duration": 240}, {"note": 69, "velocity": 104, "duration": 240}, {"note": 67, "velocity": 88, "duration": 161}, {"note": 69, "velocity": 88, "duration": 360}, {"note": 74, "velocity": 98, "duration": 480}, {"note": 71, "velocity": 96, "duration": 1199}, {"note": 71, "velocity": 91, "duration": 240}, {"note": 74, "velocity": 98, "duration": 240}, {"note": 76, "velocity": 93, "duration": 240}, {"note": 74, "velocity": 88, "duration": 120}, {"note": 76, "velocity": 87, "duration": 240}, {"note": 71, "velocity": 91, "duration": 360}, {"note": 69, "velocity": 88, "duration": 960}, {"note": 74, "velocity": 90, "duration": 240}, {"note": 71, "velocity": 89, "duration": 180}, {"note": 74, "velocity": 89, "duration": 240}, {"note": 69, "velocity": 87, "duration": 360}, {"note": 67, "velocity": 89, "duration": 480}, {"note": 64, "velocity": 102, "duration": 240}, {"note": 67, "velocity": 102, "duration": 240}, {"note": 71, "velocity": 116, "duration": 240}, {"note": 69, "velocity": 100, "duration": 120}, {"note": 71, "velocity": 110, "duration": 360}, {"note": 64, "velocity": 104, "duration": 240}, {"note": 69, "velocity": 113, "duration": 240}, {"note": 67, "velocity": 88, "duration": 120}, {"note": 69, "velocity": 93, "duration": 360}, {"note": 66, "velocity": 100, "duration": 480}, {"note": 64, "velocity": 94, "duration": 1199}, {"note": 64, "velocity": 113, "duration": 240}, {"note": 67, "velocity": 108, "duration": 240}, {"note": 71, "velocity": 108, "duration": 275}, {"note": 69, "velocity": 100, "duration": 120}, {"note": 71, "velocity": 96, "duration": 360}, {"note": 64, "velocity": 104, "duration": 240}, {"note": 69, "velocity": 113, "duration": 240}, {"note": 67, "velocity": 94, "duration": 120}, {"note": 69, "velocity": 94, "duration": 2520}, {"note": 66, "velocity": 109, "duration": 480}, {"note": 64, "velocity": 96, "duration": 723}]]