[[{"note": 69, "velocity": 108, "duration": 418}, {"note": 0, "velocity": 0, "duration": 302}, {"note": 62, "velocity": 98, "duration": 130}, {"note": 0, "velocity": 0, "duration": 110}, {"note": 65, "velocity": 113, "duration": 277}, {"note": 0, "velocity": 0, "duration": 203}, {"note": 69, "velocity": 102, "duration": 287}, {"note": 0, "velocity": 0, "duration": 193}, {"note": 65, "velocity": 110, "duration": 295}, {"note": 0, "velocity": 0, "duration": 185}, {"note": 67, "velocity": 110, "duration": 203}, {"note": 65, "velocity": 104, "duration": 217}, {"note": 62, "velocity": 107, "duration": 314}, {"note": 0, "velocity": 0, "duration": 646}, {"note": 62, "velocity": 116, "duration": 140}, {"note": 0, "velocity": 0, "duration": 100}, {"note": 74, "velocity": 92, "duration": 101}, {"note": 0, "velocity": 0, "duration": 139}, {"note": 74, "velocity": 107, "duration": 161}, {"note": 0, "velocity": 0, "duration": 79}, {"note": 72, "velocity": 108, "duration": 248}, {"note": 67, "velocity": 108, "duration": 352}, {"note": 0, "velocity": 0, "duration": 128}, {"note": 65, "velocity": 113, "duration": 199}, {"note": 67, "velocity": 108, "duration": 263}, {"note": 69, "velocity": 104, "duration": 336}, {"note": 0, "velocity": 0, "duration": 1584}, {"note": 69, "velocity": 113, "duration": 599}, {"note": 0, "velocity": 0, "duration": 121}, {"note": 77, "velocity": 113, "duration": 180}, {"note": 74, "velocity": 110, "duration": 516}, {"note": 72, "velocity": 108, "duration": 431}, {"note": 74, "velocity": 107, "duration": 395}, {"note": 0, "velocity": 0, "duration": 85}, {"note": 62, "velocity": 113, "duration": 129}, {"note": 0, "velocity": 0, "duration": 111}, {"note": 69, "velocity": 107, "duration": 226}, {"note": 67, "velocity": 100, "duration": 273}, {"note": 0, "velocity": 0, "duration": 687}, {"note": 67, "velocity": 113, "duration": 240}, {"note": 69, "velocity": 102, "duration": 231}, {"note": 67, "velocity": 91, "duration": 259}, {"note": 65, "velocity": 100, "duration": 233}, {"note": 72, "velocity": 102, "duration": 437}, {"note": 69, "velocity": 107, "duration": 222}, {"note": 67, "velocity": 96, "duration": 290}, {"note": 69, "velocity": 110, "duration": 328}, {"note": 0, "velocity": 0, "duration": 1592}, {"note": 69, "velocity": 108, "duration": 418}, {"note": 0, "velocity": 0, "duration": 302}, {"note": 62, "velocity": 98, "duration": 130}, {"note": 0, "velocity": 0, "duration": 110}, {"note": 65, "velocity": 113, "duration": 277}, {"note": 0, "velocity": 0, "duration": 203}, {"note": 67, "velocity": 98, "duration": 258}, {"note": 69, "velocity": 104, "duration": 172}, {"note": 0, "velocity": 0, "duration": 68}, {"note": 65, "velocity": 110, "duration": 295}, {"note": 0, "velocity": 0, "duration": 185}, {"note": 67, "velocity": 110, "duration": 203}, {"note": 65, "velocity": 104, "duration": 217}, {"note": 62, "velocity": 107, "duration": 314}, {"note": 0, "velocity": 0, "duration": 646}, {"note": 62, "velocity": 116, "duration": 140}, {"note": 0, "velocity": 0, "duration": 100}, {"note": 74, "velocity": 92, "duration": 101}, {"note": 0, "velocity": 0, "duration": 139}, {"note": 74, "velocity": 107, "duration": 161}, {"note": 0, "velocity": 0, "duration": 79}, {"note": 72, "velocity": 108, "duration": 248}, {"note": 67, "velocity": 108, "duration": 352}, {"note": 0, "velocity": 0, "duration": 128}, {"note": 65, "velocity": 113, "duration": 199}, {"note": 67, "velocity": 108, "duration": 263}, {"note": 69, "velocity": 104, "duration": 336}, {"note": 0, "velocity": 0, "duration": 1584}, {"note": 69, "velocity": 113, "duration": 599}, {"note": 0, "velocity": 0, "duration": 121}, {"note": 77, "velocity": 113, "duration": 180}, {"note": 74, "velocity": 110, "duration": 516}, {"note": 72, "velocity": 108, "duration": 431}, {"note": 62, "velocity": 107, "duration": 395}, {"note": 0, "velocity": 0, "duration": 85}, {"note": 65, "velocity": 113, "duration": 129}, {"note": 0, "velocity": 0, "duration": 111}, {"note": 69, "velocity": 107, "duration": 226}, {"note": 67, "velocity": 100, "duration": 273}, {"note": 0, "velocity": 0, "duration": 687}, {"note": 67, "velocity": 113, "duration": 240}, {"note": 69, "velocity": 102, "duration": 231}, {"note": 67, "velocity": 91, "duration": 259}, {"note": 67, "velocity": 100, "duration": 19}, {"note": 0, "velocity": 0, "duration": 221}, {"note": 72, "velocity": 102, "duration": 437}, {"note": 60, "velocity": 104, "duration": 160}, {"note": 0, "velocity": 0, "duration": 80}, {"note": 60, "velocity": 102, "duration": 281}, {"note": 0, "velocity": 0, "duration": 199}, {"note": 62, "velocity": 110, "duration": 272}, {"note": 0, "velocity": 0, "duration": 1408}, {"note": 74, "velocity": 117, "duration": 631}, {"note": 0, "velocity": 0, "duration": 89}, {"note": 69, "velocity": 114, "duration": 154}, {"note": 0, "velocity": 0, "duration": 86}, {"note": 77, "velocity": 116, "duration": 411}, {"note": 0, "velocity": 0, "duration": 69}, {"note": 74, "velocity": 116, "duration": 420}, {"note": 72, "velocity": 113, "duration": 409}, {"note": 0, "velocity": 0, "duration": 71}, {"note": 67, "velocity": 113, "duration": 232}, {"note": 72, "velocity": 113, "duration": 219}, {"note": 69, "velocity": 110, "duration": 243}, {"note": 0, "velocity": 0, "duration": 717}, {"note": 67, "velocity": 114, "duration": 246}, {"note": 69, "velocity": 107, "duration": 242}, {"note": 67, "velocity": 96, "duration": 257}, {"note": 69, "velocity": 98, "duration": 230}, {"note": 67, "velocity": 107, "duration": 256}, {"note": 65, "velocity": 107, "duration": 161}, {"note": 0, "velocity": 0, "duration": 79}, {"note": 65, "velocity": 107, "duration": 230}, {"note": 67, "velocity": 104, "duration": 285}, {"note": 69, "velocity": 104, "duration": 271}, {"note": 0, "velocity": 0, "duration": 1649}, {"note": 74, "velocity": 108, "duration": 501}, {"note": 0, "velocity": 0, "duration": 219}, {"note": 69, "velocity": 114, "duration": 244}, {"note": 67, "velocity": 114, "duration": 269}, {"note": 0, "velocity": 0, "duration": 211}, {"note": 67, "velocity": 114, "duration": 276}, {"note": 69, "velocity": 107, "duration": 205}, {"note": 72, "velocity": 110, "duration": 419}, {"note": 0, "velocity": 0, "duration": 61}, {"note": 69, "velocity": 108, "duration": 188}, {"note": 72, "velocity": 113, "duration": 210}, {"note": 74, "velocity": 108, "duration": 233}, {"note": 0, "velocity": 0, "duration": 727}, {"note": 74, "velocity": 108, "duration": 138}, {"note": 0, "velocity": 0, "duration": 102}, {"note": 74, "velocity": 100, "duration": 120}, {"note": 0, "velocity": 0, "duration": 120}, {"note": 74, "velocity": 100, "duration": 148}, {"note": 0, "velocity": 0, "duration": 92}, {"note": 77, "velocity": 108, "duration": 272}, {"note": 76, "velocity": 116, "duration": 247}, {"note": 0, "velocity": 0, "duration": 233}, {"note": 74, "velocity": 110, "duration": 232}, {"note": 72, "velocity": 104, "duration": 161}, {"note": 0, "velocity": 0, "duration": 79}, {"note": 72, "velocity": 107, "duration": 403}, {"note": 0, "velocity": 0, "duration": 1517}, {"note": 74, "velocity": 117, "duration": 631}, {"note": 0, "velocity": 0, "duration": 89}, {"note": 69, "velocity": 114, "duration": 154}, {"note": 0, "velocity": 0, "duration": 86}, {"note": 77, "velocity": 116, "duration": 411}, {"note": 0, "velocity": 0, "duration": 69}, {"note": 74, "velocity": 116, "duration": 420}, {"note": 72, "velocity": 113, "duration": 409}, {"note": 0, "velocity": 0, "duration": 71}, {"note": 67, "velocity": 113, "duration": 232}, {"note": 72, "velocity": 113, "duration": 219}, {"note": 69, "velocity": 110, "duration": 243}, {"note": 0, "velocity": 0, "duration": 717}, {"note": 67, "velocity": 114, "duration": 246}, {"note": 69, "velocity": 107, "duration": 242}, {"note": 67, "velocity": 96, "duration": 257}, {"note": 69, "velocity": 98, "duration": 230}, {"note": 67, "velocity": 107, "duration": 256}, {"note": 65, "velocity": 107, "duration": 161}, {"note": 0, "velocity": 0, "duration": 79}, {"note": 65, "velocity": 107, "duration": 230}, {"note": 67, "velocity": 104, "duration": 285}, {"note": 69, "velocity": 104, "duration": 271}, {"note": 0, "velocity": 0, "duration": 1649}, {"note": 74, "velocity": 108, "duration": 501}, {"note": 0, "velocity": 0, "duration": 219}, {"note": 69, "velocity": 114, "duration": 244}, {"note": 67, "velocity": 114, "duration": 269}, {"note": 0, "velocity": 0, "duration": 211}, {"note": 67, "velocity": 114, "duration": 276}, {"note": 69, "velocity": 107, "duration": 205}, {"note": 72, "velocity": 110, "duration": 419}, {"note": 0, "velocity": 0, "duration": 61}, {"note": 69, "velocity": 108, "duration": 188}, {"note": 72, "velocity": 113, "duration": 210}, {"note": 74, "velocity": 108, "duration": 233}, {"note": 0, "velocity": 0, "duration": 727}, {"note": 74, "velocity": 108, "duration": 138}, {"note": 0, "velocity": 0, "duration": 102}, {"note": 74, "velocity": 100, "duration": 120}, {"note": 0, "velocity": 0, "duration": 120}, {"note": 74, "velocity": 100, "duration": 148}, {"note": 0, "velocity": 0, "duration": 92}, {"note": 77, "velocity": 108, "duration": 272}, {"note": 76, "velocity": 116, "duration": 247}, {"note": 0, "velocity": 0, "duration": 233}, {"note": 74, "velocity": 110, "duration": 232}, {"note": 72, "velocity": 104, "duration": 161}, {"note": 0, "velocity": 0, "duration": 79}, {"note": 74, "velocity": 107, "duration": 403}, {"note": 0, "velocity": 0, "duration": 16874}, {"note": 69, "velocity": 108, "duration": 417}, {"note": 0, "velocity": 0, "duration": 303}, {"note": 62, "velocity": 98, "duration": 129}, {"note": 0, "velocity": 0, "duration": 111}, {"note": 65, "velocity": 113, "duration": 277}, {"note": 0, "velocity": 0, "duration": 203}, {"note": 69, "velocity": 102, "duration": 286}, {"note": 0, "velocity": 0, "duration": 194}, {"note": 65, "velocity": 110, "duration": 294}, {"note": 0, "velocity": 0, "duration": 186}, {"note": 67, "velocity": 110, "duration": 202}, {"note": 65, "velocity": 104, "duration": 217}, {"note": 62, "velocity": 107, "duration": 314}, {"note": 0, "velocity": 0, "duration": 646}, {"note": 62, "velocity": 116, "duration": 140}, {"note": 0, "velocity": 0, "duration": 100}, {"note": 74, "velocity": 92, "duration": 100}, {"note": 0, "velocity": 0, "duration": 140}, {"note": 74, "velocity": 107, "duration": 160}, {"note": 0, "velocity": 0, "duration": 80}, {"note": 72, "velocity": 108, "duration": 247}, {"note": 67, "velocity": 108, "duration": 352}, {"note": 0, "velocity": 0, "duration": 128}, {"note": 65, "velocity": 113, "duration": 199}, {"note": 67, "velocity": 108, "duration": 262}, {"note": 69, "velocity": 104, "duration": 336}, {"note": 0, "velocity": 0, "duration": 1584}, {"note": 69, "velocity": 113, "duration": 599}, {"note": 0, "velocity": 0, "duration": 121}, {"note": 77, "velocity": 113, "duration": 180}, {"note": 74, "velocity": 110, "duration": 516}, {"note": 72, "velocity": 108, "duration": 431}, {"note": 74, "velocity": 107, "duration": 394}, {"note": 0, "velocity": 0, "duration": 86}, {"note": 62, "velocity": 113, "duration": 129}, {"note": 0, "velocity": 0, "duration": 111}, {"note": 69, "velocity": 107, "duration": 226}, {"note": 67, "velocity": 100, "duration": 272}, {"note": 0, "velocity": 0, "duration": 688}, {"note": 67, "velocity": 113, "duration": 239}, {"note": 69, "velocity": 102, "duration": 231}, {"note": 67, "velocity": 91, "duration": 259}, {"note": 65, "velocity": 100, "duration": 232}, {"note": 72, "velocity": 102, "duration": 437}, {"note": 69, "velocity": 107, "duration": 221}, {"note": 67, "velocity": 96, "duration": 290}, {"note": 69, "velocity": 110, "duration": 327}, {"note": 0, "velocity": 0, "duration": 1593}, {"note": 69, "velocity": 108, "duration": 417}, {"note": 0, "velocity": 0, "duration": 303}, {"note": 62, "velocity": 98, "duration": 129}, {"note": 0, "velocity": 0, "duration": 111}, {"note": 65, "velocity": 113, "duration": 277}, {"note": 0, "velocity": 0, "duration": 203}, {"note": 67, "velocity": 98, "duration": 257}, {"note": 69, "velocity": 104, "duration": 172}, {"note": 0, "velocity": 0, "duration": 68}, {"note": 65, "velocity": 110, "duration": 294}, {"note": 0, "velocity": 0, "duration": 186}, {"note": 67, "velocity": 110, "duration": 202}, {"note": 65, "velocity": 104, "duration": 217}, {"note": 62, "velocity": 107, "duration": 314}, {"note": 0, "velocity": 0, "duration": 646}, {"note": 62, "velocity": 116, "duration": 140}, {"note": 0, "velocity": 0, "duration": 100}, {"note": 74, "velocity": 92, "duration": 100}, {"note": 0, "velocity": 0, "duration": 140}, {"note": 74, "velocity": 107, "duration": 160}, {"note": 0, "velocity": 0, "duration": 80}, {"note": 72, "velocity": 108, "duration": 247}, {"note": 67, "velocity": 108, "duration": 352}, {"note": 0, "velocity": 0, "duration": 128}, {"note": 65, "velocity": 113, "duration": 199}, {"note": 67, "velocity": 108, "duration": 262}, {"note": 69, "velocity": 104, "duration": 336}, {"note": 0, "velocity": 0, "duration": 1584}, {"note": 69, "velocity": 113, "duration": 599}, {"note": 0, "velocity": 0, "duration": 121}, {"note": 77, "velocity": 113, "duration": 180}, {"note": 74, "velocity": 110, "duration": 516}, {"note": 72, "velocity": 108, "duration": 431}, {"note": 62, "velocity": 107, "duration": 394}, {"note": 0, "velocity": 0, "duration": 86}, {"note": 65, "velocity": 113, "duration": 129}, {"note": 0, "velocity": 0, "duration": 111}, {"note": 69, "velocity": 107, "duration": 226}, {"note": 67, "velocity": 100, "duration": 272}, {"note": 0, "velocity": 0, "duration": 688}, {"note": 67, "velocity": 113, "duration": 239}, {"note": 69, "velocity": 102, "duration": 231}, {"note": 67, "velocity": 91, "duration": 259}, {"note": 67, "velocity": 100, "duration": 19}, {"note": 0, "velocity": 0, "duration": 221}, {"note": 72, "velocity": 102, "duration": 437}, {"note": 60, "velocity": 104, "duration": 160}, {"note": 0, "velocity": 0, "duration": 80}, {"note": 60, "velocity": 102, "duration": 281}, {"note": 0, "velocity": 0, "duration": 199}, {"note": 62, "velocity": 110, "duration": 272}, {"note": 0, "velocity": 0, "duration": 1411}, {"note": 74, "velocity": 117, "duration": 631}, {"note": 0, "velocity": 0, "duration": 86}, {"note": 69, "velocity": 114, "duration": 154}, {"note": 0, "velocity": 0, "duration": 86}, {"note": 77, "velocity": 116, "duration": 411}, {"note": 0, "velocity": 0, "duration": 69}, {"note": 74, "velocity": 116, "duration": 420}, {"note": 72, "velocity": 113, "duration": 409}, {"note": 0, "velocity": 0, "duration": 71}, {"note": 67, "velocity": 113, "duration": 231}, {"note": 72, "velocity": 113, "duration": 218}, {"note": 69, "velocity": 110, "duration": 243}, {"note": 0, "velocity": 0, "duration": 717}, {"note": 67, "velocity": 114, "duration": 246}, {"note": 69, "velocity": 107, "duration": 242}, {"note": 67, "velocity": 96, "duration": 257}, {"note": 69, "velocity": 98, "duration": 230}, {"note": 67, "velocity": 107, "duration": 256}, {"note": 65, "velocity": 107, "duration": 161}, {"note": 0, "velocity": 0, "duration": 79}, {"note": 65, "velocity": 107, "duration": 230}, {"note": 67, "velocity": 104, "duration": 284}, {"note": 69, "velocity": 104, "duration": 270}, {"note": 0, "velocity": 0, "duration": 1650}, {"note": 74, "velocity": 108, "duration": 500}, {"note": 0, "velocity": 0, "duration": 220}, {"note": 69, "velocity": 114, "duration": 243}, {"note": 67, "velocity": 114, "duration": 269}, {"note": 0, "velocity": 0, "duration": 211}, {"note": 67, "velocity": 114, "duration": 276}, {"note": 69, "velocity": 107, "duration": 204}, {"note": 72, "velocity": 110, "duration": 418}, {"note": 0, "velocity": 0, "duration": 62}, {"note": 69, "velocity": 108, "duration": 188}, {"note": 72, "velocity": 113, "duration": 210}, {"note": 74, "velocity": 108, "duration": 233}, {"note": 0, "velocity": 0, "duration": 727}, {"note": 74, "velocity": 108, "duration": 138}, {"note": 0, "velocity": 0, "duration": 102}, {"note": 74, "velocity": 100, "duration": 120}, {"note": 0, "velocity": 0, "duration": 120}, {"note": 74, "velocity": 100, "duration": 147}, {"note": 0, "velocity": 0, "duration": 93}, {"note": 77, "velocity": 108, "duration": 271}, {"note": 76, "velocity": 116, "duration": 247}, {"note": 0, "velocity": 0, "duration": 233}, {"note": 74, "velocity": 110, "duration": 232}, {"note": 72, "velocity": 104, "duration": 161}, {"note": 0, "velocity": 0, "duration": 79}, {"note": 72, "velocity": 107, "duration": 402}, {"note": 0, "velocity": 0, "duration": 1518}, {"note": 74, "velocity": 117, "duration": 631}, {"note": 0, "velocity": 0, "duration": 89}, {"note": 69, "velocity": 114, "duration": 154}, {"note": 0, "velocity": 0, "duration": 86}, {"note": 77, "velocity": 116, "duration": 411}, {"note": 0, "velocity": 0, "duration": 69}, {"note": 74, "velocity": 116, "duration": 420}, {"note": 72, "velocity": 113, "duration": 409}, {"note": 0, "velocity": 0, "duration": 71}, {"note": 67, "velocity": 113, "duration": 231}, {"note": 72, "velocity": 113, "duration": 218}, {"note": 69, "velocity": 110, "duration": 243}, {"note": 0, "velocity": 0, "duration": 717}, {"note": 67, "velocity": 114, "duration": 246}, {"note": 69, "velocity": 107, "duration": 242}, {"note": 67, "velocity": 96, "duration": 257}, {"note": 69, "velocity": 98, "duration": 230}, {"note": 67, "velocity": 107, "duration": 256}, {"note": 65, "velocity": 107, "duration": 161}, {"note": 0, "velocity": 0, "duration": 79}, {"note": 65, "velocity": 107, "duration": 230}, {"note": 67, "velocity": 104, "duration": 284}, {"note": 69, "velocity": 104, "duration": 270}, {"note": 0, "velocity": 0, "duration": 1650}, {"note": 74, "velocity": 108, "duration": 500}, {"note": 0, "velocity": 0, "duration": 220}, {"note": 69, "velocity": 114, "duration": 243}, {"note": 67, "velocity": 114, "duration": 269}, {"note": 0, "velocity": 0, "duration": 211}, {"note": 67, "velocity": 114, "duration": 276}, {"note": 69, "velocity": 107, "duration": 204}, {"note": 72, "velocity": 110, "duration": 418}, {"note": 0, "velocity": 0, "duration": 62}, {"note": 69, "velocity": 108, "duration": 188}, {"note": 72, "velocity": 113, "duration": 210}, {"note": 74, "velocity": 108, "duration": 233}, {"note": 0, "velocity": 0, "duration": 727}, {"note": 74, "velocity": 108, "duration": 138}, {"note": 0, "velocity": 0, "duration": 102}, {"note": 74, "velocity": 100, "duration": 120}, {"note": 0, "velocity": 0, "duration": 120}, {"note": 74, "velocity": 100, "duration": 147}, {"note": 0, "velocity": 0, "duration": 93}, {"note": 77, "velocity": 108, "duration": 271}, {"note": 76, "velocity": 116, "duration": 247}, {"note": 0, "velocity": 0, "duration": 233}, {"note": 74, "velocity": 110, "duration": 232}, {"note": 72, "velocity": 104, "duration": 161}, {"note": 0, "velocity": 0, "duration": 79}, {"note": 74, "velocity": 107, "duration": 402}, {"note": 0, "velocity": 0, "duration": 1521}, {"note": 74, "velocity": 117, "duration": 631}, {"note": 0, "velocity": 0, "duration": 86}, {"note": 69, "velocity": 114, "duration": 154}, {"note": 0, "velocity": 0, "duration": 86}, {"note": 77, "velocity": 116, "duration": 411}, {"note": 0, "velocity": 0, "duration": 69}, {"note": 74, "velocity": 116, "duration": 420}, {"note": 72, "velocity": 113, "duration": 409}, {"note": 0, "velocity": 0, "duration": 71}, {"note": 67, "velocity": 113, "duration": 231}, {"note": 72, "velocity": 113, "duration": 218}, {"note": 69, "velocity": 110, "duration": 243}, {"note": 0, "velocity": 0, "duration": 720}, {"note": 67, "velocity": 114, "duration": 240}, {"note": 67, "velocity": 107, "duration": 240}, {"note": 67, "velocity": 96, "duration": 257}, {"note": 69, "velocity": 98, "duration": 230}, {"note": 67, "velocity": 107, "duration": 256}, {"note": 65, "velocity": 107, "duration": 161}, {"note": 0, "velocity": 0, "duration": 79}, {"note": 65, "velocity": 107, "duration": 230}, {"note": 72, "velocity": 104, "duration": 480}, {"note": 69, "velocity": 104, "duration": 271}, {"note": 0, "velocity": 0, "duration": 1406}, {"note": 74, "velocity": 108, "duration": 500}, {"note": 0, "velocity": 0, "duration": 220}, {"note": 69, "velocity": 114, "duration": 243}, {"note": 67, "velocity": 114, "duration": 269}, {"note": 0, "velocity": 0, "duration": 211}, {"note": 67, "velocity": 114, "duration": 276}, {"note": 69, "velocity": 107, "duration": 204}, {"note": 72, "velocity": 110, "duration": 418}, {"note": 0, "velocity": 0, "duration": 62}, {"note": 69, "velocity": 108, "duration": 188}, {"note": 72, "velocity": 113, "duration": 210}, {"note": 74, "velocity": 108, "duration": 233}, {"note": 0, "velocity": 0, "duration": 727}, {"note": 74, "velocity": 108, "duration": 138}, {"note": 0, "velocity": 0, "duration": 102}, {"note": 74, "velocity": 100, "duration": 120}, {"note": 0, "velocity": 0, "duration": 120}, {"note": 74, "velocity": 100, "duration": 147}, {"note": 0, "velocity": 0, "duration": 93}, {"note": 77, "velocity": 108, "duration": 271}, {"note": 76, "velocity": 116, "duration": 247}, {"note": 0, "velocity": 0, "duration": 233}, {"note": 74, "velocity": 110, "duration": 232}, {"note": 72, "velocity": 104, "duration": 161}, {"note": 0, "velocity": 0, "duration": 79}, {"note": 72, "velocity": 107, "duration": 402}, {"note": 0, "velocity": 0, "duration": 1518}, {"note": 74, "velocity": 117, "duration": 631}, {"note": 0, "velocity": 0, "duration": 89}, {"note": 69, "velocity": 114, "duration": 154}, {"note": 0, "velocity": 0, "duration": 86}, {"note": 77, "velocity": 116, "duration": 411}, {"note": 0, "velocity": 0, "duration": 69}, {"note": 74, "velocity": 116, "duration": 420}, {"note": 72, "velocity": 113, "duration": 409}, {"note": 0, "velocity": 0, "duration": 71}, {"note": 67, "velocity": 113, "duration": 231}, {"note": 72, "velocity": 113, "duration": 218}, {"note": 69, "velocity": 110, "duration": 243}, {"note": 0, "velocity": 0, "duration": 480}, {"note": 65, "velocity": 114, "duration": 246}, {"note": 67, "velocity": 107, "duration": 242}, {"note": 67, "velocity": 96, "duration": 2}, {"note": 0, "velocity": 0, "duration": 478}, {"note": 69, "velocity": 97, "duration": 240}, {"note": 67, "velocity": 107, "duration": 256}, {"note": 65, "velocity": 107, "duration": 480}, {"note": 72, "velocity": 104, "duration": 285}, {"note": 0, "velocity": 0, "duration": 195}, {"note": 69, "velocity": 104, "duration": 271}, {"note": 0, "velocity": 0, "duration": 1406}, {"note": 74, "velocity": 108, "duration": 500}, {"note": 0, "velocity": 0, "duration": 220}, {"note": 69, "velocity": 114, "duration": 243}, {"note": 67, "velocity": 114, "duration": 269}, {"note": 0, "velocity": 0, "duration": 211}, {"note": 67, "velocity": 114, "duration": 276}, {"note": 69, "velocity": 107, "duration": 204}, {"note": 72, "velocity": 110, "duration": 418}, {"note": 0, "velocity": 0, "duration": 62}, {"note": 69, "velocity": 108, "duration": 188}, {"note": 72, "velocity": 113, "duration": 210}, {"note": 74, "velocity": 108, "duration": 233}, {"note": 0, "velocity": 0, "duration": 727}, {"note": 74, "velocity": 108, "duration": 138}, {"note": 0, "velocity": 0, "duration": 102}, {"note": 74, "velocity": 100, "duration": 120}, {"note": 0, "velocity": 0, "duration": 120}, {"note": 74, "velocity": 100, "duration": 147}, {"note": 0, "velocity": 0, "duration": 93}, {"note": 77, "velocity": 108, "duration": 271}, {"note": 76, "velocity": 116, "duration": 247}, {"note": 74, "velocity": 110, "duration": 480}, {"note": 72, "velocity": 104, "duration": 161}, {"note": 0, "velocity": 0, "duration": 79}, {"note": 74, "velocity": 107, "duration": 402}, {"note": 0, "velocity": 0, "duration": 1521}, {"note": 74, "velocity": 108, "duration": 138}, {"note": 0, "velocity": 0, "duration": 102}, {"note": 74, "velocity": 100, "duration": 120}, {"note": 0, "velocity": 0, "duration": 120}, {"note": 74, "velocity": 100, "duration": 148}, {"note": 0, "velocity": 0, "duration": 92}, {"note": 77, "velocity": 108, "duration": 272}, {"note": 76, "velocity": 116, "duration": 247}, {"note": 0, "velocity": 0, "duration": 113}, {"note": 74, "velocity": 110, "duration": 363}, {"note": 72, "velocity": 104, "duration": 2040}, {"note": 0, "velocity": 0, "duration": 120}, {"note": 74, "velocity": 114, "duration": 3000}]]