[[{"note": 72, "velocity": 110, "duration": 240}, {"note": 74, "velocity": 110, "duration": 240}, {"note": 76, "velocity": 98, "duration": 719}, {"note": 76, "velocity": 88, "duration": 119}, {"note": 76, "velocity": 88, "duration": 119}, {"note": 76, "velocity": 89, "duration": 240}, {"note": 74, "velocity": 91, "duration": 239}, {"note": 74, "velocity": 89, "duration": 240}, {"note": 76, "velocity": 91, "duration": 239}, {"note": 76, "velocity": 90, "duration": 1439}, {"note": 76, "velocity": 102, "duration": 240}, {"note": 79, "velocity": 108, "duration": 240}, {"note": 81, "velocity": 113, "duration": 719}, {"note": 81, "velocity": 92, "duration": 119}, {"note": 81, "velocity": 92, "duration": 120}, {"note": 84, "velocity": 100, "duration": 240}, {"note": 81, "velocity": 94, "duration": 239}, {"note": 81, "velocity": 107, "duration": 240}, {"note": 76, "velocity": 108, "duration": 240}, {"note": 79, "velocity": 107, "duration": 1440}, {"note": 76, "velocity": 94, "duration": 284}, {"note": 79, "velocity": 98, "duration": 240}, {"note": 81, "velocity": 104, "duration": 719}, {"note": 81, "velocity": 107, "duration": 119}, {"note": 81, "velocity": 96, "duration": 120}, {"note": 86, "velocity": 113, "duration": 240}, {"note": 84, "velocity": 94, "duration": 239}, {"note": 84, "velocity": 104, "duration": 240}, {"note": 81, "velocity": 104, "duration": 240}, {"note": 79, "velocity": 110, "duration": 360}, {"note": 81, "velocity": 96, "duration": 120}, {"note": 76, "velocity": 98, "duration": 240}, {"note": 74, "velocity": 98, "duration": 240}, {"note": 72, "velocity": 91, "duration": 479}, {"note": 72, "velocity": 108, "duration": 240}, {"note": 74, "velocity": 100, "duration": 240}, {"note": 76, "velocity": 104, "duration": 719}, {"note": 76, "velocity": 98, "duration": 123}, {"note": 81, "velocity": 93, "duration": 120}, {"note": 79, "velocity": 96, "duration": 240}, {"note": 76, "velocity": 93, "duration": 240}, {"note": 74, "velocity": 93, "duration": 360}, {"note": 72, "velocity": 88, "duration": 119}, {"note": 72, "velocity": 93, "duration": 1439}, {"note": 72, "velocity": 104, "duration": 240}, {"note": 71, "velocity": 104, "duration": 240}, {"note": 69, "velocity": 104, "duration": 480}, {"note": 72, "velocity": 113, "duration": 240}, {"note": 74, "velocity": 94, "duration": 134}, {"note": 76, "velocity": 113, "duration": 599}, {"note": 76, "velocity": 91, "duration": 240}, {"note": 81, "velocity": 94, "duration": 119}, {"note": 81, "velocity": 98, "duration": 240}, {"note": 79, "velocity": 91, "duration": 119}, {"note": 79, "velocity": 90, "duration": 119}, {"note": 79, "velocity": 92, "duration": 119}, {"note": 79, "velocity": 102, "duration": 120}, {"note": 76, "velocity": 91, "duration": 240}, {"note": 79, "velocity": 100, "duration": 480}, {"note": 76, "velocity": 93, "duration": 144}, {"note": 79, "velocity": 107, "duration": 240}, {"note": 81, "velocity": 92, "duration": 120}, {"note": 84, "velocity": 108, "duration": 599}, {"note": 84, "velocity": 108, "duration": 240}, {"note": 81, "velocity": 98, "duration": 120}, {"note": 84, "velocity": 107, "duration": 480}, {"note": 79, "velocity": 107, "duration": 120}, {"note": 81, "velocity": 104, "duration": 240}, {"note": 84, "velocity": 107, "duration": 240}, {"note": 86, "velocity": 107, "duration": 119}, {"note": 86, "velocity": 107, "duration": 119}, {"note": 86, "velocity": 102, "duration": 119}, {"note": 86, "velocity": 100, "duration": 119}, {"note": 86, "velocity": 119, "duration": 240}, {"note": 84, "velocity": 107, "duration": 120}, {"note": 86, "velocity": 120, "duration": 1440}, {"note": 79, "velocity": 113, "duration": 120}, {"note": 84, "velocity": 113, "duration": 240}, {"note": 86, "velocity": 113, "duration": 240}, {"note": 88, "velocity": 108, "duration": 119}, {"note": 88, "velocity": 104, "duration": 119}, {"note": 88, "velocity": 104, "duration": 119}, {"note": 88, "velocity": 102, "duration": 120}, {"note": 86, "velocity": 114, "duration": 240}, {"note": 84, "velocity": 110, "duration": 240}, {"note": 88, "velocity": 113, "duration": 119}, {"note": 88, "velocity": 108, "duration": 119}, {"note": 88, "velocity": 104, "duration": 119}, {"note": 88, "velocity": 110, "duration": 120}, {"note": 86, "velocity": 116, "duration": 240}, {"note": 84, "velocity": 114, "duration": 239}, {"note": 84, "velocity": 107, "duration": 240}, {"note": 81, "velocity": 113, "duration": 240}, {"note": 84, "velocity": 114, "duration": 240}, {"note": 86, "velocity": 117, "duration": 120}, {"note": 88, "velocity": 120, "duration": 600}, {"note": 79, "velocity": 114, "duration": 240}, {"note": 81, "velocity": 113, "duration": 240}, {"note": 86, "velocity": 110, "duration": 119}, {"note": 86, "velocity": 104, "duration": 119}, {"note": 86, "velocity": 108, "duration": 119}, {"note": 86, "velocity": 107, "duration": 120}, {"note": 84, "velocity": 114, "duration": 240}, {"note": 81, "velocity": 113, "duration": 240}, {"note": 86, "velocity": 110, "duration": 119}, {"note": 86, "velocity": 108, "duration": 119}, {"note": 86, "velocity": 102, "duration": 119}, {"note": 86, "velocity": 102, "duration": 120}, {"note": 84, "velocity": 114, "duration": 240}, {"note": 81, "velocity": 114, "duration": 240}, {"note": 84, "velocity": 114, "duration": 240}, {"note": 81, "velocity": 114, "duration": 240}, {"note": 76, "velocity": 108, "duration": 240}, {"note": 81, "velocity": 110, "duration": 120}, {"note": 79, "velocity": 114, "duration": 479}, {"note": 79, "velocity": 113, "duration": 120}, {"note": 84, "velocity": 113, "duration": 240}, {"note": 86, "velocity": 113, "duration": 240}, {"note": 88, "velocity": 108, "duration": 119}, {"note": 88, "velocity": 104, "duration": 119}, {"note": 88, "velocity": 104, "duration": 119}, {"note": 88, "velocity": 102, "duration": 120}, {"note": 86, "velocity": 114, "duration": 240}, {"note": 84, "velocity": 110, "duration": 240}, {"note": 88, "velocity": 113, "duration": 119}, {"note": 88, "velocity": 108, "duration": 119}, {"note": 88, "velocity": 104, "duration": 119}, {"note": 88, "velocity": 110, "duration": 120}, {"note": 86, "velocity": 116, "duration": 240}, {"note": 84, "velocity": 114, "duration": 239}, {"note": 84, "velocity": 107, "duration": 240}, {"note": 81, "velocity": 113, "duration": 240}, {"note": 84, "velocity": 114, "duration": 240}, {"note": 86, "velocity": 117, "duration": 120}, {"note": 88, "velocity": 120, "duration": 1080}, {"note": 86, "velocity": 119, "duration": 240}, {"note": 84, "velocity": 110, "duration": 240}, {"note": 86, "velocity": 110, "duration": 240}, {"note": 84, "velocity": 104, "duration": 120}, {"note": 86, "velocity": 117, "duration": 360}, {"note": 88, "velocity": 117, "duration": 240}, {"note": 86, "velocity": 113, "duration": 240}, {"note": 84, "velocity": 110, "duration": 239}, {"note": 84, "velocity": 116, "duration": 960}, {"note": 0, "velocity": 0, "duration": 4320}, {"note": 72, "velocity": 110, "duration": 240}, {"note": 74, "velocity": 110, "duration": 240}, {"note": 76, "velocity": 98, "duration": 719}, {"note": 76, "velocity": 88, "duration": 119}, {"note": 76, "velocity": 88, "duration": 119}, {"note": 76, "velocity": 89, "duration": 240}, {"note": 74, "velocity": 91, "duration": 239}, {"note": 74, "velocity": 89, "duration": 240}, {"note": 76, "velocity": 91, "duration": 239}, {"note": 76, "velocity": 90, "duration": 1439}, {"note": 76, "velocity": 102, "duration": 240}, {"note": 79, "velocity": 108, "duration": 240}, {"note": 81, "velocity": 113, "duration": 719}, {"note": 81, "velocity": 92, "duration": 119}, {"note": 81, "velocity": 92, "duration": 120}, {"note": 84, "velocity": 100, "duration": 240}, {"note": 81, "velocity": 94, "duration": 239}, {"note": 81, "velocity": 107, "duration": 240}, {"note": 76, "velocity": 108, "duration": 240}, {"note": 79, "velocity": 107, "duration": 1440}, {"note": 76, "velocity": 94, "duration": 284}, {"note": 79, "velocity": 98, "duration": 240}, {"note": 81, "velocity": 104, "duration": 719}, {"note": 81, "velocity": 107, "duration": 119}, {"note": 81, "velocity": 96, "duration": 120}, {"note": 86, "velocity": 113, "duration": 240}, {"note": 84, "velocity": 94, "duration": 239}, {"note": 84, "velocity": 104, "duration": 240}, {"note": 81, "velocity": 104, "duration": 240}, {"note": 79, "velocity": 110, "duration": 360}, {"note": 81, "velocity": 96, "duration": 120}, {"note": 76, "velocity": 98, "duration": 240}, {"note": 74, "velocity": 98, "duration": 240}, {"note": 72, "velocity": 91, "duration": 479}, {"note": 72, "velocity": 108, "duration": 240}, {"note": 74, "velocity": 100, "duration": 240}, {"note": 76, "velocity": 104, "duration": 719}, {"note": 76, "velocity": 98, "duration": 123}, {"note": 81, "velocity": 93, "duration": 120}, {"note": 79, "velocity": 96, "duration": 240}, {"note": 76, "velocity": 93, "duration": 240}, {"note": 74, "velocity": 93, "duration": 360}, {"note": 72, "velocity": 88, "duration": 119}, {"note": 72, "velocity": 93, "duration": 1439}, {"note": 72, "velocity": 104, "duration": 240}, {"note": 71, "velocity": 104, "duration": 240}, {"note": 69, "velocity": 104, "duration": 480}, {"note": 72, "velocity": 113, "duration": 240}, {"note": 74, "velocity": 94, "duration": 134}, {"note": 76, "velocity": 113, "duration": 599}, {"note": 76, "velocity": 91, "duration": 240}, {"note": 81, "velocity": 94, "duration": 119}, {"note": 81, "velocity": 98, "duration": 240}, {"note": 79, "velocity": 91, "duration": 119}, {"note": 79, "velocity": 90, "duration": 119}, {"note": 79, "velocity": 92, "duration": 119}, {"note": 79, "velocity": 102, "duration": 120}, {"note": 76, "velocity": 91, "duration": 240}, {"note": 79, "velocity": 100, "duration": 480}, {"note": 76, "velocity": 93, "duration": 144}, {"note": 79, "velocity": 107, "duration": 240}, {"note": 81, "velocity": 92, "duration": 120}, {"note": 84, "velocity": 108, "duration": 599}, {"note": 84, "velocity": 108, "duration": 240}, {"note": 81, "velocity": 98, "duration": 120}, {"note": 84, "velocity": 107, "duration": 480}, {"note": 79, "velocity": 107, "duration": 120}, {"note": 81, "velocity": 104, "duration": 240}, {"note": 84, "velocity": 107, "duration": 240}, {"note": 86, "velocity": 107, "duration": 119}, {"note": 86, "velocity": 107, "duration": 119}, {"note": 86, "velocity": 102, "duration": 119}, {"note": 86, "velocity": 100, "duration": 119}, {"note": 86, "velocity": 119, "duration": 240}, {"note": 84, "velocity": 107, "duration": 120}, {"note": 86, "velocity": 120, "duration": 1080}, {"note": 0, "velocity": 0, "duration": 360}, {"note": 79, "velocity": 113, "duration": 120}, {"note": 84, "velocity": 113, "duration": 240}, {"note": 86, "velocity": 113, "duration": 240}, {"note": 88, "velocity": 108, "duration": 119}, {"note": 88, "velocity": 104, "duration": 119}, {"note": 88, "velocity": 104, "duration": 119}, {"note": 88, "velocity": 102, "duration": 120}, {"note": 86, "velocity": 114, "duration": 240}, {"note": 84, "velocity": 110, "duration": 240}, {"note": 88, "velocity": 113, "duration": 119}, {"note": 88, "velocity": 108, "duration": 119}, {"note": 88, "velocity": 104, "duration": 119}, {"note": 88, "velocity": 110, "duration": 120}, {"note": 86, "velocity": 116, "duration": 240}, {"note": 84, "velocity": 114, "duration": 239}, {"note": 84, "velocity": 107, "duration": 240}, {"note": 81, "velocity": 113, "duration": 240}, {"note": 84, "velocity": 114, "duration": 240}, {"note": 86, "velocity": 117, "duration": 120}, {"note": 88, "velocity": 120, "duration": 600}, {"note": 79, "velocity": 114, "duration": 240}, {"note": 81, "velocity": 113, "duration": 240}, {"note": 86, "velocity": 110, "duration": 119}, {"note": 86, "velocity": 104, "duration": 119}, {"note": 86, "velocity": 108, "duration": 119}, {"note": 86, "velocity": 107, "duration": 120}, {"note": 84, "velocity": 114, "duration": 240}, {"note": 81, "velocity": 113, "duration": 240}, {"note": 86, "velocity": 110, "duration": 119}, {"note": 86, "velocity": 108, "duration": 119}, {"note": 86, "velocity": 102, "duration": 119}, {"note": 86, "velocity": 102, "duration": 120}, {"note": 84, "velocity": 114, "duration": 240}, {"note": 81, "velocity": 114, "duration": 240}, {"note": 84, "velocity": 114, "duration": 240}, {"note": 81, "velocity": 114, "duration": 240}, {"note": 76, "velocity": 108, "duration": 240}, {"note": 81, "velocity": 110, "duration": 120}, {"note": 79, "velocity": 114, "duration": 479}, {"note": 79, "velocity": 113, "duration": 120}, {"note": 84, "velocity": 113, "duration": 240}, {"note": 86, "velocity": 113, "duration": 240}, {"note": 88, "velocity": 108, "duration": 119}, {"note": 88, "velocity": 104, "duration": 119}, {"note": 88, "velocity": 104, "duration": 119}, {"note": 88, "velocity": 102, "duration": 120}, {"note": 86, "velocity": 114, "duration": 240}, {"note": 84, "velocity": 110, "duration": 240}, {"note": 88, "velocity": 113, "duration": 119}, {"note": 88, "velocity": 108, "duration": 119}, {"note": 88, "velocity": 104, "duration": 119}, {"note": 88, "velocity": 110, "duration": 120}, {"note": 86, "velocity": 116, "duration": 240}, {"note": 84, "velocity": 114, "duration": 239}, {"note": 84, "velocity": 107, "duration": 240}, {"note": 81, "velocity": 113, "duration": 240}, {"note": 84, "velocity": 114, "duration": 240}, {"note": 86, "velocity": 117, "duration": 120}, {"note": 88, "velocity": 120, "duration": 1080}, {"note": 86, "velocity": 119, "duration": 240}, {"note": 84, "velocity": 110, "duration": 240}, {"note": 86, "velocity": 110, "duration": 240}, {"note": 84, "velocity": 104, "duration": 120}, {"note": 86, "velocity": 117, "duration": 360}, {"note": 88, "velocity": 117, "duration": 240}, {"note": 86, "velocity": 113, "duration": 240}, {"note": 84, "velocity": 110, "duration": 239}, {"note": 84, "velocity": 116, "duration": 960}, {"note": 0, "velocity": 0, "duration": 2400}, {"note": 67, "velocity": 114, "duration": 282}, {"note": 69, "velocity": 113, "duration": 185}, {"note": 74, "velocity": 117, "duration": 316}, {"note": 76, "velocity": 117, "duration": 941}, {"note": 0, "velocity": 0, "duration": 139}, {"note": 74, "velocity": 113, "duration": 267}, {"note": 72, "velocity": 104, "duration": 224}, {"note": 74, "velocity": 89, "duration": 346}, {"note": 71, "velocity": 110, "duration": 926}, {"note": 0, "velocity": 0, "duration": 154}, {"note": 67, "velocity": 113, "duration": 238}, {"note": 69, "velocity": 108, "duration": 208}, {"note": 74, "velocity": 116, "duration": 276}, {"note": 0, "velocity": 0, "duration": 84}, {"note": 76, "velocity": 116, "duration": 778}, {"note": 0, "velocity": 0, "duration": 302}, {"note": 74, "velocity": 114, "duration": 266}, {"note": 72, "velocity": 113, "duration": 247}, {"note": 71, "velocity": 113, "duration": 362}, {"note": 69, "velocity": 114, "duration": 673}, {"note": 73, "velocity": 123, "duration": 311}, {"note": 74, "velocity": 119, "duration": 240}, {"note": 76, "velocity": 113, "duration": 360}, {"note": 76, "velocity": 116, "duration": 838}, {"note": 0, "velocity": 0, "duration": 6242}, {"note": 80, "velocity": 113, "duration": 120}, {"note": 85, "velocity": 113, "duration": 240}, {"note": 87, "velocity": 113, "duration": 240}, {"note": 89, "velocity": 108, "duration": 119}, {"note": 89, "velocity": 104, "duration": 119}, {"note": 89, "velocity": 104, "duration": 119}, {"note": 89, "velocity": 102, "duration": 120}, {"note": 87, "velocity": 114, "duration": 240}, {"note": 85, "velocity": 110, "duration": 240}, {"note": 89, "velocity": 113, "duration": 119}, {"note": 89, "velocity": 108, "duration": 119}, {"note": 89, "velocity": 104, "duration": 119}, {"note": 89, "velocity": 110, "duration": 120}, {"note": 87, "velocity": 116, "duration": 240}, {"note": 85, "velocity": 114, "duration": 239}, {"note": 85, "velocity": 107, "duration": 240}, {"note": 82, "velocity": 113, "duration": 240}, {"note": 85, "velocity": 114, "duration": 240}, {"note": 87, "velocity": 117, "duration": 120}, {"note": 89, "velocity": 120, "duration": 600}, {"note": 80, "velocity": 114, "duration": 240}, {"note": 82, "velocity": 113, "duration": 240}, {"note": 87, "velocity": 110, "duration": 119}, {"note": 87, "velocity": 104, "duration": 119}, {"note": 87, "velocity": 108, "duration": 119}, {"note": 87, "velocity": 107, "duration": 120}, {"note": 85, "velocity": 114, "duration": 240}, {"note": 82, "velocity": 113, "duration": 240}, {"note": 87, "velocity": 110, "duration": 119}, {"note": 87, "velocity": 108, "duration": 119}, {"note": 87, "velocity": 102, "duration": 119}, {"note": 87, "velocity": 102, "duration": 120}, {"note": 85, "velocity": 114, "duration": 240}, {"note": 82, "velocity": 114, "duration": 240}, {"note": 85, "velocity": 114, "duration": 240}, {"note": 82, "velocity": 114, "duration": 240}, {"note": 77, "velocity": 108, "duration": 240}, {"note": 82, "velocity": 110, "duration": 120}, {"note": 80, "velocity": 114, "duration": 479}, {"note": 80, "velocity": 113, "duration": 120}, {"note": 85, "velocity": 113, "duration": 240}, {"note": 87, "velocity": 113, "duration": 240}, {"note": 89, "velocity": 108, "duration": 119}, {"note": 89, "velocity": 104, "duration": 119}, {"note": 89, "velocity": 104, "duration": 119}, {"note": 89, "velocity": 102, "duration": 120}, {"note": 87, "velocity": 114, "duration": 240}, {"note": 85, "velocity": 110, "duration": 240}, {"note": 89, "velocity": 113, "duration": 119}, {"note": 89, "velocity": 108, "duration": 119}, {"note": 89, "velocity": 104, "duration": 119}, {"note": 89, "velocity": 110, "duration": 120}, {"note": 87, "velocity": 116, "duration": 240}, {"note": 85, "velocity": 114, "duration": 239}, {"note": 85, "velocity": 107, "duration": 240}, {"note": 82, "velocity": 113, "duration": 240}, {"note": 85, "velocity": 114, "duration": 240}, {"note": 87, "velocity": 117, "duration": 120}, {"note": 89, "velocity": 120, "duration": 1080}, {"note": 87, "velocity": 119, "duration": 240}, {"note": 85, "velocity": 110, "duration": 240}, {"note": 87, "velocity": 110, "duration": 240}, {"note": 85, "velocity": 104, "duration": 120}, {"note": 87, "velocity": 117, "duration": 360}, {"note": 89, "velocity": 117, "duration": 240}, {"note": 87, "velocity": 113, "duration": 240}, {"note": 85, "velocity": 110, "duration": 239}, {"note": 85, "velocity": 116, "duration": 960}, {"note": 0, "velocity": 0, "duration": 960}, {"note": 75, "velocity": 114, "duration": 241}, {"note": 73, "velocity": 108, "duration": 240}, {"note": 75, "velocity": 113, "duration": 360}, {"note": 73, "velocity": 108, "duration": 120}, {"note": 75, "velocity": 110, "duration": 360}, {"note": 77, "velocity": 110, "duration": 1320}, {"note": 75, "velocity": 113, "duration": 731}, {"note": 73, "velocity": 114, "duration": 479}, {"note": 73, "velocity": 110, "duration": 1920}]]