[[{"note": 67, "velocity": 108, "duration": 495}, {"note": 69, "velocity": 108, "duration": 248}, {"note": 71, "velocity": 110, "duration": 240}, {"note": 74, "velocity": 110, "duration": 960}, {"note": 67, "velocity": 107, "duration": 240}, {"note": 71, "velocity": 110, "duration": 240}, {"note": 64, "velocity": 102, "duration": 240}, {"note": 67, "velocity": 107, "duration": 240}, {"note": 62, "velocity": 96, "duration": 960}, {"note": 59, "velocity": 93, "duration": 484}, {"note": 62, "velocity": 96, "duration": 248}, {"note": 64, "velocity": 94, "duration": 240}, {"note": 67, "velocity": 93, "duration": 240}, {"note": 69, "velocity": 96, "duration": 122}, {"note": 71, "velocity": 94, "duration": 120}, {"note": 76, "velocity": 100, "duration": 265}, {"note": 74, "velocity": 107, "duration": 240}, {"note": 69, "velocity": 98, "duration": 1920}, {"note": 71, "velocity": 92, "duration": 480}, {"note": 74, "velocity": 108, "duration": 240}, {"note": 76, "velocity": 108, "duration": 122}, {"note": 79, "velocity": 98, "duration": 120}, {"note": 74, "velocity": 110, "duration": 960}, {"note": 64, "velocity": 104, "duration": 240}, {"note": 67, "velocity": 92, "duration": 239}, {"note": 67, "velocity": 98, "duration": 240}, {"note": 69, "velocity": 92, "duration": 120}, {"note": 74, "velocity": 91, "duration": 120}, {"note": 71, "velocity": 93, "duration": 1200}, {"note": 69, "velocity": 104, "duration": 240}, {"note": 71, "velocity": 107, "duration": 240}, {"note": 74, "velocity": 100, "duration": 240}, {"note": 64, "velocity": 98, "duration": 240}, {"note": 69, "velocity": 102, "duration": 359}, {"note": 69, "velocity": 88, "duration": 119}, {"note": 69, "velocity": 91, "duration": 127}, {"note": 71, "velocity": 92, "duration": 127}, {"note": 67, "velocity": 91, "duration": 1919}, {"note": 67, "velocity": 107, "duration": 240}, {"note": 69, "velocity": 108, "duration": 240}, {"note": 71, "velocity": 110, "duration": 240}, {"note": 79, "velocity": 113, "duration": 266}, {"note": 76, "velocity": 116, "duration": 960}, {"note": 67, "velocity": 113, "duration": 248}, {"note": 69, "velocity": 102, "duration": 240}, {"note": 71, "velocity": 104, "duration": 251}, {"note": 76, "velocity": 94, "duration": 240}, {"note": 74, "velocity": 100, "duration": 960}, {"note": 64, "velocity": 108, "duration": 240}, {"note": 67, "velocity": 102, "duration": 239}, {"note": 67, "velocity": 96, "duration": 240}, {"note": 76, "velocity": 100, "duration": 240}, {"note": 74, "velocity": 110, "duration": 240}, {"note": 67, "velocity": 102, "duration": 119}, {"note": 67, "velocity": 96, "duration": 120}, {"note": 71, "velocity": 107, "duration": 239}, {"note": 71, "velocity": 104, "duration": 125}, {"note": 74, "velocity": 96, "duration": 120}, {"note": 69, "velocity": 102, "duration": 720}, {"note": 71, "velocity": 110, "duration": 240}, {"note": 69, "velocity": 93, "duration": 960}, {"note": 67, "velocity": 107, "duration": 240}, {"note": 69, "velocity": 108, "duration": 240}, {"note": 71, "velocity": 110, "duration": 240}, {"note": 79, "velocity": 113, "duration": 266}, {"note": 76, "velocity": 116, "duration": 960}, {"note": 67, "velocity": 113, "duration": 248}, {"note": 69, "velocity": 102, "duration": 240}, {"note": 71, "velocity": 104, "duration": 251}, {"note": 76, "velocity": 94, "duration": 240}, {"note": 74, "velocity": 100, "duration": 960}, {"note": 64, "velocity": 108, "duration": 240}, {"note": 67, "velocity": 102, "duration": 239}, {"note": 67, "velocity": 96, "duration": 240}, {"note": 76, "velocity": 100, "duration": 240}, {"note": 74, "velocity": 110, "duration": 240}, {"note": 67, "velocity": 102, "duration": 119}, {"note": 67, "velocity": 96, "duration": 120}, {"note": 71, "velocity": 107, "duration": 239}, {"note": 71, "velocity": 104, "duration": 125}, {"note": 74, "velocity": 96, "duration": 120}, {"note": 69, "velocity": 102, "duration": 720}, {"note": 71, "velocity": 110, "duration": 240}, {"note": 74, "velocity": 107, "duration": 1440}, {"note": 62, "velocity": 98, "duration": 250}, {"note": 64, "velocity": 98, "duration": 240}, {"note": 67, "velocity": 102, "duration": 960}, {"note": 0, "velocity": 0, "duration": 2880}, {"note": 67, "velocity": 108, "duration": 495}, {"note": 69, "velocity": 108, "duration": 248}, {"note": 71, "velocity": 110, "duration": 240}, {"note": 74, "velocity": 110, "duration": 960}, {"note": 67, "velocity": 107, "duration": 240}, {"note": 71, "velocity": 110, "duration": 240}, {"note": 64, "velocity": 102, "duration": 240}, {"note": 67, "velocity": 107, "duration": 240}, {"note": 62, "velocity": 96, "duration": 960}, {"note": 59, "velocity": 93, "duration": 484}, {"note": 62, "velocity": 96, "duration": 248}, {"note": 64, "velocity": 94, "duration": 240}, {"note": 67, "velocity": 93, "duration": 240}, {"note": 69, "velocity": 96, "duration": 122}, {"note": 71, "velocity": 94, "duration": 120}, {"note": 76, "velocity": 100, "duration": 265}, {"note": 74, "velocity": 107, "duration": 240}, {"note": 69, "velocity": 98, "duration": 1920}, {"note": 71, "velocity": 92, "duration": 480}, {"note": 74, "velocity": 108, "duration": 240}, {"note": 76, "velocity": 108, "duration": 122}, {"note": 79, "velocity": 98, "duration": 120}, {"note": 74, "velocity": 110, "duration": 960}, {"note": 64, "velocity": 104, "duration": 240}, {"note": 67, "velocity": 92, "duration": 239}, {"note": 67, "velocity": 98, "duration": 240}, {"note": 69, "velocity": 92, "duration": 120}, {"note": 74, "velocity": 91, "duration": 120}, {"note": 71, "velocity": 93, "duration": 1200}, {"note": 69, "velocity": 104, "duration": 240}, {"note": 71, "velocity": 107, "duration": 240}, {"note": 74, "velocity": 100, "duration": 240}, {"note": 64, "velocity": 98, "duration": 240}, {"note": 69, "velocity": 102, "duration": 359}, {"note": 69, "velocity": 88, "duration": 119}, {"note": 69, "velocity": 91, "duration": 127}, {"note": 71, "velocity": 92, "duration": 127}, {"note": 67, "velocity": 91, "duration": 1919}, {"note": 67, "velocity": 107, "duration": 240}, {"note": 69, "velocity": 108, "duration": 240}, {"note": 71, "velocity": 110, "duration": 240}, {"note": 79, "velocity": 113, "duration": 266}, {"note": 76, "velocity": 116, "duration": 960}, {"note": 67, "velocity": 113, "duration": 248}, {"note": 69, "velocity": 102, "duration": 240}, {"note": 71, "velocity": 104, "duration": 251}, {"note": 76, "velocity": 94, "duration": 240}, {"note": 74, "velocity": 100, "duration": 960}, {"note": 64, "velocity": 108, "duration": 240}, {"note": 67, "velocity": 102, "duration": 239}, {"note": 67, "velocity": 96, "duration": 240}, {"note": 76, "velocity": 100, "duration": 240}, {"note": 74, "velocity": 110, "duration": 240}, {"note": 67, "velocity": 102, "duration": 119}, {"note": 67, "velocity": 96, "duration": 120}, {"note": 71, "velocity": 107, "duration": 239}, {"note": 71, "velocity": 104, "duration": 125}, {"note": 74, "velocity": 96, "duration": 120}, {"note": 69, "velocity": 102, "duration": 720}, {"note": 71, "velocity": 110, "duration": 240}, {"note": 69, "velocity": 93, "duration": 960}, {"note": 67, "velocity": 107, "duration": 240}, {"note": 69, "velocity": 108, "duration": 240}, {"note": 71, "velocity": 110, "duration": 240}, {"note": 79, "velocity": 113, "duration": 266}, {"note": 76, "velocity": 116, "duration": 960}, {"note": 67, "velocity": 113, "duration": 248}, {"note": 69, "velocity": 102, "duration": 240}, {"note": 71, "velocity": 104, "duration": 251}, {"note": 76, "velocity": 94, "duration": 240}, {"note": 74, "velocity": 100, "duration": 960}, {"note": 64, "velocity": 108, "duration": 240}, {"note": 67, "velocity": 102, "duration": 239}, {"note": 67, "velocity": 96, "duration": 240}, {"note": 76, "velocity": 100, "duration": 240}, {"note": 74, "velocity": 110, "duration": 240}, {"note": 67, "velocity": 102, "duration": 119}, {"note": 67, "velocity": 96, "duration": 120}, {"note": 71, "velocity": 107, "duration": 239}, {"note": 71, "velocity": 104, "duration": 125}, {"note": 74, "velocity": 96, "duration": 120}, {"note": 69, "velocity": 102, "duration": 720}, {"note": 71, "velocity": 110, "duration": 240}, {"note": 74, "velocity": 107, "duration": 1440}, {"note": 62, "velocity": 98, "duration": 250}, {"note": 64, "velocity": 98, "duration": 240}, {"note": 67, "velocity": 102, "duration": 960}, {"note": 0, "velocity": 0, "duration": 16320}, {"note": 67, "velocity": 107, "duration": 240}, {"note": 69, "velocity": 108, "duration": 240}, {"note": 71, "velocity": 110, "duration": 240}, {"note": 79, "velocity": 113, "duration": 266}, {"note": 76, "velocity": 116, "duration": 960}, {"note": 67, "velocity": 113, "duration": 248}, {"note": 69, "velocity": 102, "duration": 240}, {"note": 71, "velocity": 104, "duration": 251}, {"note": 76, "velocity": 94, "duration": 240}, {"note": 74, "velocity": 100, "duration": 960}, {"note": 64, "velocity": 108, "duration": 240}, {"note": 67, "velocity": 102, "duration": 239}, {"note": 67, "velocity": 96, "duration": 240}, {"note": 76, "velocity": 100, "duration": 240}, {"note": 74, "velocity": 110, "duration": 240}, {"note": 67, "velocity": 102, "duration": 119}, {"note": 67, "velocity": 96, "duration": 120}, {"note": 71, "velocity": 107, "duration": 239}, {"note": 71, "velocity": 104, "duration": 125}, {"note": 74, "velocity": 96, "duration": 120}, {"note": 69, "velocity": 102, "duration": 720}, {"note": 71, "velocity": 110, "duration": 240}, {"note": 69, "velocity": 93, "duration": 960}, {"note": 67, "velocity": 107, "duration": 240}, {"note": 69, "velocity": 108, "duration": 240}, {"note": 71, "velocity": 110, "duration": 240}, {"note": 79, "velocity": 113, "duration": 266}, {"note": 76, "velocity": 116, "duration": 960}, {"note": 67, "velocity": 113, "duration": 248}, {"note": 69, "velocity": 102, "duration": 240}, {"note": 71, "velocity": 104, "duration": 251}, {"note": 76, "velocity": 94, "duration": 240}, {"note": 74, "velocity": 100, "duration": 960}, {"note": 64, "velocity": 108, "duration": 240}, {"note": 67, "velocity": 102, "duration": 239}, {"note": 67, "velocity": 96, "duration": 240}, {"note": 76, "velocity": 100, "duration": 240}, {"note": 74, "velocity": 110, "duration": 240}, {"note": 67, "velocity": 102, "duration": 119}, {"note": 67, "velocity": 96, "duration": 120}, {"note": 71, "velocity": 107, "duration": 239}, {"note": 71, "velocity": 104, "duration": 125}, {"note": 74, "velocity": 96, "duration": 120}, {"note": 69, "velocity": 102, "duration": 720}, {"note": 71, "velocity": 110, "duration": 240}, {"note": 74, "velocity": 107, "duration": 1440}, {"note": 62, "velocity": 98, "duration": 250}, {"note": 64, "velocity": 98, "duration": 240}, {"note": 67, "velocity": 102, "duration": 960}]]