[[{"note": 63, "velocity": 89, "duration": 119}, {"note": 63, "velocity": 89, "duration": 119}, {"note": 63, "velocity": 102, "duration": 240}, {"note": 64, "velocity": 94, "duration": 120}, {"note": 63, "velocity": 96, "duration": 1319}, {"note": 63, "velocity": 108, "duration": 130}, {"note": 64, "velocity": 104, "duration": 120}, {"note": 66, "velocity": 116, "duration": 239}, {"note": 66, "velocity": 110, "duration": 120}, {"note": 68, "velocity": 116, "duration": 360}, {"note": 66, "velocity": 114, "duration": 960}, {"note": 68, "velocity": 110, "duration": 120}, {"note": 70, "velocity": 94, "duration": 120}, {"note": 71, "velocity": 114, "duration": 720}, {"note": 63, "velocity": 113, "duration": 120}, {"note": 71, "velocity": 108, "duration": 120}, {"note": 70, "velocity": 114, "duration": 240}, {"note": 68, "velocity": 93, "duration": 240}, {"note": 66, "velocity": 108, "duration": 240}, {"note": 68, "velocity": 110, "duration": 1919}, {"note": 68, "velocity": 110, "duration": 120}, {"note": 66, "velocity": 92, "duration": 124}, {"note": 64, "velocity": 107, "duration": 240}, {"note": 63, "velocity": 100, "duration": 240}, {"note": 64, "velocity": 107, "duration": 240}, {"note": 66, "velocity": 98, "duration": 240}, {"note": 68, "velocity": 116, "duration": 240}, {"note": 66, "velocity": 102, "duration": 119}, {"note": 66, "velocity": 108, "duration": 360}, {"note": 71, "velocity": 104, "duration": 120}, {"note": 73, "velocity": 88, "duration": 146}, {"note": 75, "velocity": 107, "duration": 240}, {"note": 73, "velocity": 107, "duration": 239}, {"note": 73, "velocity": 108, "duration": 240}, {"note": 71, "velocity": 104, "duration": 150}, {"note": 68, "velocity": 110, "duration": 360}, {"note": 66, "velocity": 96, "duration": 480}, {"note": 71, "velocity": 108, "duration": 120}, {"note": 73, "velocity": 110, "duration": 149}, {"note": 75, "velocity": 113, "duration": 240}, {"note": 73, "velocity": 107, "duration": 239}, {"note": 73, "velocity": 107, "duration": 240}, {"note": 71, "velocity": 102, "duration": 239}, {"note": 71, "velocity": 104, "duration": 360}, {"note": 68, "velocity": 114, "duration": 480}, {"note": 71, "velocity": 114, "duration": 178}, {"note": 73, "velocity": 117, "duration": 1680}, {"note": 63, "velocity": 110, "duration": 131}, {"note": 64, "velocity": 92, "duration": 128}, {"note": 63, "velocity": 108, "duration": 240}, {"note": 64, "velocity": 102, "duration": 120}, {"note": 63, "velocity": 107, "duration": 1319}, {"note": 63, "velocity": 98, "duration": 144}, {"note": 64, "velocity": 98, "duration": 132}, {"note": 66, "velocity": 107, "duration": 239}, {"note": 66, "velocity": 108, "duration": 120}, {"note": 68, "velocity": 108, "duration": 491}, {"note": 66, "velocity": 113, "duration": 840}, {"note": 68, "velocity": 104, "duration": 120}, {"note": 70, "velocity": 102, "duration": 145}, {"note": 71, "velocity": 113, "duration": 720}, {"note": 70, "velocity": 104, "duration": 142}, {"note": 71, "velocity": 96, "duration": 120}, {"note": 70, "velocity": 100, "duration": 240}, {"note": 68, "velocity": 110, "duration": 240}, {"note": 66, "velocity": 110, "duration": 240}, {"note": 68, "velocity": 114, "duration": 1919}, {"note": 68, "velocity": 107, "duration": 133}, {"note": 66, "velocity": 93, "duration": 121}, {"note": 64, "velocity": 100, "duration": 240}, {"note": 63, "velocity": 100, "duration": 240}, {"note": 64, "velocity": 107, "duration": 240}, {"note": 66, "velocity": 113, "duration": 240}, {"note": 68, "velocity": 114, "duration": 240}, {"note": 66, "velocity": 107, "duration": 119}, {"note": 66, "velocity": 110, "duration": 360}, {"note": 71, "velocity": 104, "duration": 122}, {"note": 73, "velocity": 96, "duration": 120}, {"note": 75, "velocity": 108, "duration": 240}, {"note": 73, "velocity": 102, "duration": 239}, {"note": 73, "velocity": 107, "duration": 243}, {"note": 71, "velocity": 96, "duration": 120}, {"note": 68, "velocity": 94, "duration": 360}, {"note": 66, "velocity": 92, "duration": 480}, {"note": 71, "velocity": 108, "duration": 120}, {"note": 73, "velocity": 107, "duration": 120}, {"note": 75, "velocity": 116, "duration": 240}, {"note": 73, "velocity": 108, "duration": 239}, {"note": 73, "velocity": 104, "duration": 240}, {"note": 71, "velocity": 102, "duration": 239}, {"note": 71, "velocity": 108, "duration": 360}, {"note": 68, "velocity": 117, "duration": 360}, {"note": 80, "velocity": 120, "duration": 479}, {"note": 80, "velocity": 123, "duration": 720}, {"note": 78, "velocity": 117, "duration": 1320}, {"note": 68, "velocity": 116, "duration": 120}, {"note": 83, "velocity": 113, "duration": 239}, {"note": 83, "velocity": 119, "duration": 119}, {"note": 83, "velocity": 107, "duration": 120}, {"note": 82, "velocity": 113, "duration": 240}, {"note": 80, "velocity": 117, "duration": 240}, {"note": 78, "velocity": 114, "duration": 240}, {"note": 73, "velocity": 117, "duration": 240}, {"note": 75, "velocity": 116, "duration": 720}, {"note": 76, "velocity": 116, "duration": 240}, {"note": 78, "velocity": 117, "duration": 1320}, {"note": 68, "velocity": 108, "duration": 120}, {"note": 80, "velocity": 116, "duration": 119}, {"note": 80, "velocity": 116, "duration": 239}, {"note": 80, "velocity": 114, "duration": 120}, {"note": 78, "velocity": 116, "duration": 240}, {"note": 73, "velocity": 113, "duration": 119}, {"note": 73, "velocity": 116, "duration": 240}, {"note": 76, "velocity": 113, "duration": 360}, {"note": 75, "velocity": 117, "duration": 120}, {"note": 73, "velocity": 100, "duration": 121}, {"note": 71, "velocity": 113, "duration": 2040}, {"note": 68, "velocity": 110, "duration": 120}, {"note": 80, "velocity": 116, "duration": 128}, {"note": 82, "velocity": 116, "duration": 240}, {"note": 83, "velocity": 120, "duration": 119}, {"note": 83, "velocity": 119, "duration": 240}, {"note": 82, "velocity": 113, "duration": 240}, {"note": 80, "velocity": 116, "duration": 240}, {"note": 78, "velocity": 117, "duration": 240}, {"note": 75, "velocity": 119, "duration": 480}, {"note": 73, "velocity": 114, "duration": 240}, {"note": 78, "velocity": 116, "duration": 240}, {"note": 71, "velocity": 117, "duration": 1440}, {"note": 76, "velocity": 116, "duration": 153}, {"note": 75, "velocity": 114, "duration": 240}, {"note": 76, "velocity": 107, "duration": 120}, {"note": 75, "velocity": 116, "duration": 242}, {"note": 73, "velocity": 110, "duration": 127}, {"note": 73, "velocity": 114, "duration": 7}, {"note": 0, "velocity": 0, "duration": 113}, {"note": 73, "velocity": 116, "duration": 21}, {"note": 0, "velocity": 0, "duration": 219}, {"note": 71, "velocity": 117, "duration": 239}, {"note": 71, "velocity": 116, "duration": 1920}, {"note": 0, "velocity": 0, "duration": 7440}, {"note": 66, "velocity": 89, "duration": 120}, {"note": 64, "velocity": 89, "duration": 120}, {"note": 63, "velocity": 102, "duration": 240}, {"note": 64, "velocity": 94, "duration": 120}, {"note": 63, "velocity": 96, "duration": 1319}, {"note": 63, "velocity": 108, "duration": 130}, {"note": 64, "velocity": 104, "duration": 120}, {"note": 66, "velocity": 116, "duration": 239}, {"note": 66, "velocity": 110, "duration": 120}, {"note": 68, "velocity": 116, "duration": 360}, {"note": 66, "velocity": 114, "duration": 960}, {"note": 68, "velocity": 110, "duration": 120}, {"note": 70, "velocity": 94, "duration": 120}, {"note": 71, "velocity": 114, "duration": 720}, {"note": 63, "velocity": 113, "duration": 120}, {"note": 71, "velocity": 108, "duration": 120}, {"note": 70, "velocity": 114, "duration": 240}, {"note": 68, "velocity": 93, "duration": 240}, {"note": 66, "velocity": 108, "duration": 240}, {"note": 68, "velocity": 110, "duration": 1919}, {"note": 68, "velocity": 110, "duration": 120}, {"note": 66, "velocity": 92, "duration": 124}, {"note": 64, "velocity": 107, "duration": 240}, {"note": 63, "velocity": 100, "duration": 240}, {"note": 64, "velocity": 107, "duration": 240}, {"note": 66, "velocity": 98, "duration": 240}, {"note": 68, "velocity": 116, "duration": 240}, {"note": 66, "velocity": 102, "duration": 119}, {"note": 66, "velocity": 108, "duration": 360}, {"note": 71, "velocity": 104, "duration": 120}, {"note": 73, "velocity": 88, "duration": 146}, {"note": 75, "velocity": 107, "duration": 240}, {"note": 73, "velocity": 107, "duration": 239}, {"note": 73, "velocity": 108, "duration": 240}, {"note": 71, "velocity": 104, "duration": 150}, {"note": 68, "velocity": 110, "duration": 360}, {"note": 66, "velocity": 96, "duration": 480}, {"note": 71, "velocity": 108, "duration": 120}, {"note": 73, "velocity": 110, "duration": 149}, {"note": 75, "velocity": 113, "duration": 240}, {"note": 73, "velocity": 107, "duration": 239}, {"note": 73, "velocity": 107, "duration": 240}, {"note": 71, "velocity": 102, "duration": 239}, {"note": 71, "velocity": 104, "duration": 360}, {"note": 68, "velocity": 114, "duration": 480}, {"note": 71, "velocity": 114, "duration": 178}, {"note": 73, "velocity": 117, "duration": 1680}, {"note": 63, "velocity": 110, "duration": 131}, {"note": 64, "velocity": 92, "duration": 128}, {"note": 63, "velocity": 108, "duration": 240}, {"note": 64, "velocity": 102, "duration": 120}, {"note": 63, "velocity": 107, "duration": 1319}, {"note": 63, "velocity": 98, "duration": 144}, {"note": 64, "velocity": 98, "duration": 132}, {"note": 66, "velocity": 107, "duration": 239}, {"note": 66, "velocity": 108, "duration": 120}, {"note": 68, "velocity": 108, "duration": 491}, {"note": 66, "velocity": 113, "duration": 840}, {"note": 68, "velocity": 104, "duration": 120}, {"note": 70, "velocity": 102, "duration": 145}, {"note": 71, "velocity": 113, "duration": 720}, {"note": 70, "velocity": 104, "duration": 142}, {"note": 71, "velocity": 96, "duration": 120}, {"note": 70, "velocity": 100, "duration": 240}, {"note": 68, "velocity": 110, "duration": 240}, {"note": 66, "velocity": 110, "duration": 240}, {"note": 68, "velocity": 114, "duration": 1919}, {"note": 68, "velocity": 107, "duration": 133}, {"note": 66, "velocity": 93, "duration": 121}, {"note": 64, "velocity": 100, "duration": 240}, {"note": 63, "velocity": 100, "duration": 240}, {"note": 64, "velocity": 107, "duration": 240}, {"note": 66, "velocity": 113, "duration": 240}, {"note": 68, "velocity": 114, "duration": 240}, {"note": 66, "velocity": 107, "duration": 119}, {"note": 66, "velocity": 110, "duration": 360}, {"note": 71, "velocity": 104, "duration": 122}, {"note": 73, "velocity": 96, "duration": 120}, {"note": 75, "velocity": 108, "duration": 240}, {"note": 73, "velocity": 102, "duration": 239}, {"note": 73, "velocity": 107, "duration": 243}, {"note": 71, "velocity": 96, "duration": 120}, {"note": 68, "velocity": 94, "duration": 360}, {"note": 66, "velocity": 92, "duration": 480}, {"note": 71, "velocity": 108, "duration": 120}, {"note": 73, "velocity": 107, "duration": 120}, {"note": 75, "velocity": 116, "duration": 240}, {"note": 73, "velocity": 108, "duration": 239}, {"note": 73, "velocity": 104, "duration": 240}, {"note": 71, "velocity": 102, "duration": 239}, {"note": 71, "velocity": 108, "duration": 360}, {"note": 68, "velocity": 117, "duration": 360}, {"note": 80, "velocity": 120, "duration": 479}, {"note": 80, "velocity": 123, "duration": 720}, {"note": 78, "velocity": 117, "duration": 1320}, {"note": 68, "velocity": 116, "duration": 120}, {"note": 83, "velocity": 113, "duration": 239}, {"note": 83, "velocity": 119, "duration": 119}, {"note": 83, "velocity": 107, "duration": 120}, {"note": 82, "velocity": 113, "duration": 240}, {"note": 80, "velocity": 117, "duration": 240}, {"note": 78, "velocity": 114, "duration": 240}, {"note": 73, "velocity": 117, "duration": 240}, {"note": 75, "velocity": 116, "duration": 720}, {"note": 76, "velocity": 116, "duration": 240}, {"note": 78, "velocity": 117, "duration": 1320}, {"note": 68, "velocity": 108, "duration": 120}, {"note": 80, "velocity": 116, "duration": 119}, {"note": 80, "velocity": 116, "duration": 239}, {"note": 80, "velocity": 114, "duration": 120}, {"note": 78, "velocity": 116, "duration": 240}, {"note": 73, "velocity": 113, "duration": 119}, {"note": 73, "velocity": 116, "duration": 240}, {"note": 76, "velocity": 113, "duration": 360}, {"note": 75, "velocity": 117, "duration": 120}, {"note": 73, "velocity": 100, "duration": 121}, {"note": 71, "velocity": 113, "duration": 2040}, {"note": 68, "velocity": 110, "duration": 120}, {"note": 80, "velocity": 116, "duration": 128}, {"note": 82, "velocity": 116, "duration": 240}, {"note": 83, "velocity": 120, "duration": 119}, {"note": 83, "velocity": 119, "duration": 240}, {"note": 82, "velocity": 113, "duration": 240}, {"note": 80, "velocity": 116, "duration": 240}, {"note": 78, "velocity": 117, "duration": 240}, {"note": 75, "velocity": 119, "duration": 480}, {"note": 73, "velocity": 114, "duration": 240}, {"note": 78, "velocity": 116, "duration": 240}, {"note": 71, "velocity": 117, "duration": 1440}, {"note": 76, "velocity": 116, "duration": 153}, {"note": 75, "velocity": 114, "duration": 240}, {"note": 76, "velocity": 107, "duration": 120}, {"note": 75, "velocity": 116, "duration": 242}, {"note": 73, "velocity": 110, "duration": 127}, {"note": 73, "velocity": 114, "duration": 7}, {"note": 0, "velocity": 0, "duration": 113}, {"note": 73, "velocity": 116, "duration": 21}, {"note": 0, "velocity": 0, "duration": 219}, {"note": 71, "velocity": 117, "duration": 239}, {"note": 71, "velocity": 116, "duration": 1920}, {"note": 0, "velocity": 0, "duration": 13920}, {"note": 76, "velocity": 116, "duration": 239}, {"note": 76, "velocity": 116, "duration": 479}, {"note": 76, "velocity": 117, "duration": 240}, {"note": 78, "velocity": 114, "duration": 240}, {"note": 80, "velocity": 116, "duration": 239}, {"note": 80, "velocity": 116, "duration": 240}, {"note": 78, "velocity": 113, "duration": 239}, {"note": 78, "velocity": 116, "duration": 240}, {"note": 76, "velocity": 114, "duration": 240}, {"note": 78, "velocity": 116, "duration": 240}, {"note": 76, "velocity": 110, "duration": 120}, {"note": 73, "velocity": 116, "duration": 1080}, {"note": 76, "velocity": 117, "duration": 239}, {"note": 76, "velocity": 116, "duration": 239}, {"note": 76, "velocity": 116, "duration": 239}, {"note": 76, "velocity": 114, "duration": 240}, {"note": 78, "velocity": 116, "duration": 240}, {"note": 80, "velocity": 116, "duration": 239}, {"note": 80, "velocity": 116, "duration": 480}, {"note": 78, "velocity": 116, "duration": 480}, {"note": 80, "velocity": 120, "duration": 480}, {"note": 78, "velocity": 120, "duration": 960}, {"note": 76, "velocity": 116, "duration": 240}, {"note": 78, "velocity": 114, "duration": 240}, {"note": 80, "velocity": 107, "duration": 239}, {"note": 80, "velocity": 114, "duration": 244}, {"note": 78, "velocity": 113, "duration": 240}, {"note": 76, "velocity": 114, "duration": 240}, {"note": 75, "velocity": 114, "duration": 240}, {"note": 78, "velocity": 116, "duration": 119}, {"note": 78, "velocity": 113, "duration": 2040}, {"note": 80, "velocity": 116, "duration": 239}, {"note": 80, "velocity": 116, "duration": 239}, {"note": 80, "velocity": 117, "duration": 239}, {"note": 80, "velocity": 114, "duration": 240}, {"note": 82, "velocity": 119, "duration": 240}, {"note": 83, "velocity": 116, "duration": 239}, {"note": 83, "velocity": 113, "duration": 960}, {"note": 82, "velocity": 119, "duration": 1320}, {"note": 71, "velocity": 108, "duration": 120}, {"note": 83, "velocity": 116, "duration": 122}, {"note": 83, "velocity": 114, "duration": 2}, {"note": 0, "velocity": 0, "duration": 238}, {"note": 83, "velocity": 114, "duration": 120}, {"note": 82, "velocity": 117, "duration": 240}, {"note": 80, "velocity": 108, "duration": 240}, {"note": 78, "velocity": 113, "duration": 240}, {"note": 73, "velocity": 108, "duration": 240}, {"note": 75, "velocity": 114, "duration": 720}, {"note": 76, "velocity": 116, "duration": 240}, {"note": 80, "velocity": 117, "duration": 480}, {"note": 78, "velocity": 117, "duration": 840}, {"note": 71, "velocity": 107, "duration": 120}, {"note": 80, "velocity": 117, "duration": 119}, {"note": 80, "velocity": 117, "duration": 239}, {"note": 80, "velocity": 116, "duration": 120}, {"note": 78, "velocity": 119, "duration": 240}, {"note": 73, "velocity": 116, "duration": 119}, {"note": 73, "velocity": 116, "duration": 240}, {"note": 76, "velocity": 108, "duration": 360}, {"note": 75, "velocity": 116, "duration": 240}, {"note": 73, "velocity": 108, "duration": 240}, {"note": 71, "velocity": 102, "duration": 1799}, {"note": 71, "velocity": 113, "duration": 120}, {"note": 80, "velocity": 117, "duration": 121}, {"note": 82, "velocity": 116, "duration": 240}, {"note": 83, "velocity": 117, "duration": 120}, {"note": 82, "velocity": 117, "duration": 239}, {"note": 82, "velocity": 113, "duration": 240}, {"note": 80, "velocity": 113, "duration": 240}, {"note": 78, "velocity": 116, "duration": 240}, {"note": 75, "velocity": 119, "duration": 480}, {"note": 73, "velocity": 117, "duration": 240}, {"note": 78, "velocity": 88, "duration": 240}, {"note": 71, "velocity": 113, "duration": 1440}, {"note": 76, "velocity": 116, "duration": 199}, {"note": 75, "velocity": 107, "duration": 240}, {"note": 76, "velocity": 107, "duration": 151}, {"note": 75, "velocity": 108, "duration": 240}, {"note": 73, "velocity": 114, "duration": 147}, {"note": 73, "velocity": 110, "duration": 27}, {"note": 0, "velocity": 0, "duration": 93}, {"note": 73, "velocity": 110, "duration": 240}, {"note": 71, "velocity": 116, "duration": 239}, {"note": 71, "velocity": 117, "duration": 2400}, {"note": 76, "velocity": 113, "duration": 240}, {"note": 75, "velocity": 102, "duration": 240}, {"note": 76, "velocity": 104, "duration": 240}, {"note": 75, "velocity": 107, "duration": 316}, {"note": 73, "velocity": 110, "duration": 239}, {"note": 73, "velocity": 110, "duration": 1323}, {"note": 70, "velocity": 117, "duration": 511}, {"note": 71, "velocity": 114, "duration": 2650}]]