[[{"note": 77, "velocity": 107, "duration": 239}, {"note": 77, "velocity": 113, "duration": 239}, {"note": 77, "velocity": 107, "duration": 239}, {"note": 77, "velocity": 113, "duration": 240}, {"note": 75, "velocity": 109, "duration": 240}, {"note": 74, "velocity": 107, "duration": 240}, {"note": 70, "velocity": 109, "duration": 240}, {"note": 72, "velocity": 108, "duration": 480}, {"note": 74, "velocity": 98, "duration": 240}, {"note": 72, "velocity": 114, "duration": 479}, {"note": 72, "velocity": 107, "duration": 240}, {"note": 74, "velocity": 107, "duration": 240}, {"note": 75, "velocity": 95, "duration": 240}, {"note": 74, "velocity": 107, "duration": 719}, {"note": 74, "velocity": 113, "duration": 120}, {"note": 75, "velocity": 88, "duration": 120}, {"note": 74, "velocity": 108, "duration": 240}, {"note": 72, "velocity": 100, "duration": 240}, {"note": 70, "velocity": 109, "duration": 240}, {"note": 72, "velocity": 100, "duration": 241}, {"note": 67, "velocity": 107, "duration": 1439}, {"note": 67, "velocity": 107, "duration": 240}, {"note": 69, "velocity": 107, "duration": 240}, {"note": 70, "velocity": 106, "duration": 480}, {"note": 69, "velocity": 104, "duration": 256}, {"note": 67, "velocity": 104, "duration": 480}, {"note": 74, "velocity": 104, "duration": 720}, {"note": 72, "velocity": 98, "duration": 480}, {"note": 77, "velocity": 110, "duration": 240}, {"note": 72, "velocity": 100, "duration": 479}, {"note": 72, "velocity": 113, "duration": 240}, {"note": 74, "velocity": 110, "duration": 240}, {"note": 75, "velocity": 100, "duration": 240}, {"note": 74, "velocity": 114, "duration": 4080}, {"note": 77, "velocity": 114, "duration": 239}, {"note": 77, "velocity": 110, "duration": 239}, {"note": 77, "velocity": 108, "duration": 239}, {"note": 77, "velocity": 113, "duration": 240}, {"note": 75, "velocity": 103, "duration": 240}, {"note": 74, "velocity": 110, "duration": 240}, {"note": 70, "velocity": 113, "duration": 240}, {"note": 72, "velocity": 113, "duration": 480}, {"note": 74, "velocity": 114, "duration": 240}, {"note": 72, "velocity": 108, "duration": 479}, {"note": 72, "velocity": 116, "duration": 240}, {"note": 74, "velocity": 113, "duration": 240}, {"note": 75, "velocity": 106, "duration": 240}, {"note": 74, "velocity": 116, "duration": 719}, {"note": 74, "velocity": 114, "duration": 120}, {"note": 75, "velocity": 86, "duration": 120}, {"note": 74, "velocity": 108, "duration": 240}, {"note": 72, "velocity": 98, "duration": 240}, {"note": 70, "velocity": 95, "duration": 240}, {"note": 72, "velocity": 113, "duration": 240}, {"note": 67, "velocity": 113, "duration": 1439}, {"note": 67, "velocity": 102, "duration": 261}, {"note": 69, "velocity": 110, "duration": 240}, {"note": 70, "velocity": 119, "duration": 480}, {"note": 69, "velocity": 113, "duration": 240}, {"note": 67, "velocity": 114, "duration": 480}, {"note": 74, "velocity": 116, "duration": 720}, {"note": 72, "velocity": 119, "duration": 480}, {"note": 77, "velocity": 113, "duration": 240}, {"note": 72, "velocity": 110, "duration": 479}, {"note": 72, "velocity": 94, "duration": 719}, {"note": 72, "velocity": 113, "duration": 244}, {"note": 74, "velocity": 113, "duration": 272}, {"note": 75, "velocity": 106, "duration": 240}, {"note": 74, "velocity": 116, "duration": 2160}, {"note": 82, "velocity": 119, "duration": 240}, {"note": 81, "velocity": 113, "duration": 240}, {"note": 82, "velocity": 106, "duration": 240}, {"note": 81, "velocity": 116, "duration": 241}, {"note": 74, "velocity": 108, "duration": 960}, {"note": 82, "velocity": 119, "duration": 240}, {"note": 81, "velocity": 110, "duration": 202}, {"note": 82, "velocity": 106, "duration": 360}, {"note": 81, "velocity": 110, "duration": 240}, {"note": 72, "velocity": 117, "duration": 1200}, {"note": 77, "velocity": 116, "duration": 240}, {"note": 82, "velocity": 123, "duration": 240}, {"note": 81, "velocity": 113, "duration": 240}, {"note": 79, "velocity": 116, "duration": 479}, {"note": 79, "velocity": 114, "duration": 240}, {"note": 77, "velocity": 113, "duration": 240}, {"note": 79, "velocity": 114, "duration": 240}, {"note": 81, "velocity": 110, "duration": 240}, {"note": 79, "velocity": 113, "duration": 255}, {"note": 77, "velocity": 108, "duration": 480}, {"note": 74, "velocity": 117, "duration": 1199}, {"note": 74, "velocity": 119, "duration": 240}, {"note": 77, "velocity": 114, "duration": 240}, {"note": 79, "velocity": 116, "duration": 480}, {"note": 77, "velocity": 114, "duration": 240}, {"note": 79, "velocity": 116, "duration": 480}, {"note": 74, "velocity": 114, "duration": 480}, {"note": 77, "velocity": 116, "duration": 1680}, {"note": 79, "velocity": 116, "duration": 240}, {"note": 81, "velocity": 117, "duration": 240}, {"note": 82, "velocity": 119, "duration": 480}, {"note": 81, "velocity": 117, "duration": 240}, {"note": 79, "velocity": 116, "duration": 480}, {"note": 86, "velocity": 119, "duration": 720}, {"note": 84, "velocity": 119, "duration": 960}, {"note": 82, "velocity": 119, "duration": 240}, {"note": 81, "velocity": 116, "duration": 240}, {"note": 82, "velocity": 109, "duration": 240}, {"note": 81, "velocity": 116, "duration": 240}, {"note": 74, "velocity": 117, "duration": 960}, {"note": 82, "velocity": 123, "duration": 240}, {"note": 81, "velocity": 114, "duration": 240}, {"note": 82, "velocity": 113, "duration": 240}, {"note": 81, "velocity": 116, "duration": 480}, {"note": 72, "velocity": 117, "duration": 960}, {"note": 79, "velocity": 116, "duration": 240}, {"note": 82, "velocity": 116, "duration": 240}, {"note": 81, "velocity": 114, "duration": 240}, {"note": 79, "velocity": 117, "duration": 479}, {"note": 79, "velocity": 114, "duration": 240}, {"note": 77, "velocity": 113, "duration": 240}, {"note": 79, "velocity": 113, "duration": 240}, {"note": 81, "velocity": 116, "duration": 240}, {"note": 79, "velocity": 104, "duration": 240}, {"note": 77, "velocity": 116, "duration": 480}, {"note": 74, "velocity": 114, "duration": 1199}, {"note": 74, "velocity": 116, "duration": 240}, {"note": 77, "velocity": 113, "duration": 240}, {"note": 79, "velocity": 117, "duration": 480}, {"note": 77, "velocity": 114, "duration": 240}, {"note": 79, "velocity": 117, "duration": 480}, {"note": 74, "velocity": 116, "duration": 480}, {"note": 77, "velocity": 119, "duration": 1680}, {"note": 79, "velocity": 116, "duration": 240}, {"note": 81, "velocity": 116, "duration": 240}, {"note": 82, "velocity": 119, "duration": 480}, {"note": 81, "velocity": 117, "duration": 240}, {"note": 79, "velocity": 116, "duration": 480}, {"note": 86, "velocity": 120, "duration": 720}, {"note": 84, "velocity": 117, "duration": 960}, {"note": 82, "velocity": 119, "duration": 240}, {"note": 81, "velocity": 113, "duration": 240}, {"note": 79, "velocity": 110, "duration": 240}, {"note": 77, "velocity": 110, "duration": 600}, {"note": 79, "velocity": 114, "duration": 1560}, {"note": 0, "velocity": 0, "duration": 17520}, {"note": 77, "velocity": 114, "duration": 239}, {"note": 77, "velocity": 110, "duration": 239}, {"note": 77, "velocity": 108, "duration": 239}, {"note": 77, "velocity": 113, "duration": 240}, {"note": 75, "velocity": 103, "duration": 240}, {"note": 74, "velocity": 110, "duration": 240}, {"note": 70, "velocity": 113, "duration": 240}, {"note": 72, "velocity": 113, "duration": 480}, {"note": 74, "velocity": 114, "duration": 240}, {"note": 72, "velocity": 108, "duration": 479}, {"note": 72, "velocity": 116, "duration": 240}, {"note": 74, "velocity": 113, "duration": 240}, {"note": 75, "velocity": 106, "duration": 240}, {"note": 74, "velocity": 116, "duration": 719}, {"note": 74, "velocity": 114, "duration": 120}, {"note": 75, "velocity": 86, "duration": 120}, {"note": 74, "velocity": 108, "duration": 240}, {"note": 72, "velocity": 98, "duration": 240}, {"note": 70, "velocity": 95, "duration": 240}, {"note": 72, "velocity": 113, "duration": 240}, {"note": 67, "velocity": 113, "duration": 1439}, {"note": 67, "velocity": 102, "duration": 261}, {"note": 69, "velocity": 110, "duration": 240}, {"note": 70, "velocity": 119, "duration": 480}, {"note": 69, "velocity": 113, "duration": 240}, {"note": 67, "velocity": 114, "duration": 480}, {"note": 74, "velocity": 116, "duration": 720}, {"note": 72, "velocity": 119, "duration": 480}, {"note": 77, "velocity": 113, "duration": 240}, {"note": 72, "velocity": 110, "duration": 479}, {"note": 72, "velocity": 94, "duration": 719}, {"note": 72, "velocity": 113, "duration": 244}, {"note": 74, "velocity": 113, "duration": 272}, {"note": 75, "velocity": 106, "duration": 240}, {"note": 74, "velocity": 116, "duration": 1200}, {"note": 0, "velocity": 0, "duration": 960}, {"note": 82, "velocity": 119, "duration": 240}, {"note": 81, "velocity": 113, "duration": 240}, {"note": 82, "velocity": 106, "duration": 240}, {"note": 81, "velocity": 116, "duration": 241}, {"note": 74, "velocity": 108, "duration": 960}, {"note": 82, "velocity": 119, "duration": 240}, {"note": 81, "velocity": 110, "duration": 202}, {"note": 82, "velocity": 106, "duration": 360}, {"note": 81, "velocity": 110, "duration": 240}, {"note": 72, "velocity": 117, "duration": 1200}, {"note": 77, "velocity": 116, "duration": 240}, {"note": 82, "velocity": 123, "duration": 240}, {"note": 81, "velocity": 113, "duration": 240}, {"note": 79, "velocity": 116, "duration": 479}, {"note": 79, "velocity": 114, "duration": 240}, {"note": 77, "velocity": 113, "duration": 240}, {"note": 79, "velocity": 114, "duration": 240}, {"note": 81, "velocity": 110, "duration": 240}, {"note": 79, "velocity": 113, "duration": 255}, {"note": 77, "velocity": 108, "duration": 480}, {"note": 74, "velocity": 117, "duration": 1199}, {"note": 74, "velocity": 119, "duration": 240}, {"note": 77, "velocity": 114, "duration": 240}, {"note": 79, "velocity": 116, "duration": 480}, {"note": 77, "velocity": 114, "duration": 240}, {"note": 79, "velocity": 116, "duration": 480}, {"note": 74, "velocity": 114, "duration": 480}, {"note": 77, "velocity": 116, "duration": 1680}, {"note": 79, "velocity": 116, "duration": 240}, {"note": 81, "velocity": 117, "duration": 240}, {"note": 82, "velocity": 119, "duration": 480}, {"note": 81, "velocity": 117, "duration": 240}, {"note": 79, "velocity": 116, "duration": 480}, {"note": 86, "velocity": 119, "duration": 720}, {"note": 84, "velocity": 119, "duration": 960}, {"note": 82, "velocity": 119, "duration": 240}, {"note": 81, "velocity": 116, "duration": 240}, {"note": 82, "velocity": 109, "duration": 240}, {"note": 81, "velocity": 116, "duration": 240}, {"note": 74, "velocity": 117, "duration": 960}, {"note": 82, "velocity": 123, "duration": 240}, {"note": 81, "velocity": 114, "duration": 240}, {"note": 82, "velocity": 113, "duration": 240}, {"note": 81, "velocity": 116, "duration": 480}, {"note": 72, "velocity": 117, "duration": 960}, {"note": 79, "velocity": 116, "duration": 240}, {"note": 82, "velocity": 116, "duration": 240}, {"note": 81, "velocity": 114, "duration": 240}, {"note": 79, "velocity": 117, "duration": 479}, {"note": 79, "velocity": 114, "duration": 240}, {"note": 77, "velocity": 113, "duration": 240}, {"note": 79, "velocity": 113, "duration": 240}, {"note": 81, "velocity": 116, "duration": 240}, {"note": 79, "velocity": 104, "duration": 240}, {"note": 77, "velocity": 116, "duration": 480}, {"note": 74, "velocity": 114, "duration": 1199}, {"note": 74, "velocity": 116, "duration": 240}, {"note": 77, "velocity": 113, "duration": 240}, {"note": 79, "velocity": 117, "duration": 480}, {"note": 77, "velocity": 114, "duration": 240}, {"note": 79, "velocity": 117, "duration": 480}, {"note": 74, "velocity": 116, "duration": 480}, {"note": 77, "velocity": 119, "duration": 1680}, {"note": 79, "velocity": 116, "duration": 240}, {"note": 81, "velocity": 116, "duration": 240}, {"note": 82, "velocity": 119, "duration": 480}, {"note": 81, "velocity": 117, "duration": 240}, {"note": 79, "velocity": 116, "duration": 480}, {"note": 86, "velocity": 120, "duration": 720}, {"note": 84, "velocity": 117, "duration": 960}, {"note": 82, "velocity": 119, "duration": 240}, {"note": 81, "velocity": 113, "duration": 240}, {"note": 79, "velocity": 110, "duration": 240}, {"note": 77, "velocity": 110, "duration": 600}, {"note": 79, "velocity": 114, "duration": 1611}, {"note": 0, "velocity": 0, "duration": 909}, {"note": 82, "velocity": 119, "duration": 240}, {"note": 81, "velocity": 113, "duration": 240}, {"note": 82, "velocity": 106, "duration": 240}, {"note": 81, "velocity": 116, "duration": 241}, {"note": 74, "velocity": 108, "duration": 960}, {"note": 82, "velocity": 119, "duration": 240}, {"note": 81, "velocity": 110, "duration": 202}, {"note": 82, "velocity": 106, "duration": 360}, {"note": 81, "velocity": 110, "duration": 240}, {"note": 72, "velocity": 117, "duration": 1200}, {"note": 77, "velocity": 116, "duration": 240}, {"note": 82, "velocity": 123, "duration": 240}, {"note": 81, "velocity": 113, "duration": 240}, {"note": 79, "velocity": 116, "duration": 479}, {"note": 79, "velocity": 114, "duration": 240}, {"note": 77, "velocity": 113, "duration": 240}, {"note": 79, "velocity": 114, "duration": 240}, {"note": 81, "velocity": 110, "duration": 240}, {"note": 79, "velocity": 113, "duration": 255}, {"note": 77, "velocity": 108, "duration": 480}, {"note": 74, "velocity": 117, "duration": 1199}, {"note": 74, "velocity": 119, "duration": 240}, {"note": 77, "velocity": 114, "duration": 240}, {"note": 79, "velocity": 116, "duration": 480}, {"note": 77, "velocity": 114, "duration": 240}, {"note": 79, "velocity": 116, "duration": 480}, {"note": 74, "velocity": 114, "duration": 480}, {"note": 77, "velocity": 116, "duration": 1680}, {"note": 79, "velocity": 116, "duration": 240}, {"note": 81, "velocity": 117, "duration": 240}, {"note": 82, "velocity": 119, "duration": 480}, {"note": 81, "velocity": 117, "duration": 240}, {"note": 79, "velocity": 116, "duration": 480}, {"note": 86, "velocity": 119, "duration": 720}, {"note": 84, "velocity": 119, "duration": 960}, {"note": 82, "velocity": 119, "duration": 240}, {"note": 81, "velocity": 116, "duration": 240}, {"note": 82, "velocity": 109, "duration": 240}, {"note": 81, "velocity": 116, "duration": 240}, {"note": 74, "velocity": 117, "duration": 960}, {"note": 82, "velocity": 123, "duration": 240}, {"note": 81, "velocity": 114, "duration": 240}, {"note": 82, "velocity": 113, "duration": 240}, {"note": 81, "velocity": 116, "duration": 480}, {"note": 72, "velocity": 117, "duration": 960}, {"note": 79, "velocity": 116, "duration": 240}, {"note": 82, "velocity": 116, "duration": 240}, {"note": 81, "velocity": 114, "duration": 240}, {"note": 79, "velocity": 117, "duration": 479}, {"note": 79, "velocity": 114, "duration": 240}, {"note": 77, "velocity": 113, "duration": 240}, {"note": 79, "velocity": 113, "duration": 240}, {"note": 81, "velocity": 116, "duration": 240}, {"note": 79, "velocity": 104, "duration": 240}, {"note": 77, "velocity": 116, "duration": 480}, {"note": 74, "velocity": 114, "duration": 1199}, {"note": 74, "velocity": 116, "duration": 240}, {"note": 77, "velocity": 113, "duration": 240}, {"note": 79, "velocity": 117, "duration": 480}, {"note": 77, "velocity": 114, "duration": 240}, {"note": 79, "velocity": 117, "duration": 480}, {"note": 74, "velocity": 116, "duration": 480}, {"note": 77, "velocity": 119, "duration": 1680}, {"note": 79, "velocity": 116, "duration": 240}, {"note": 81, "velocity": 116, "duration": 240}, {"note": 82, "velocity": 119, "duration": 480}, {"note": 81, "velocity": 117, "duration": 240}, {"note": 79, "velocity": 116, "duration": 480}, {"note": 86, "velocity": 120, "duration": 720}, {"note": 84, "velocity": 117, "duration": 960}, {"note": 82, "velocity": 119, "duration": 240}, {"note": 81, "velocity": 113, "duration": 240}, {"note": 79, "velocity": 110, "duration": 240}, {"note": 77, "velocity": 110, "duration": 600}, {"note": 79, "velocity": 114, "duration": 1611}]]