[[{"note": 61, "velocity": 60, "duration": 176}, {"note": 63, "velocity": 58, "duration": 221}, {"note": 61, "velocity": 59, "duration": 174}, {"note": 73, "velocity": 60, "duration": 218}, {"note": 70, "velocity": 54, "duration": 923}, {"note": 0, "velocity": 0, "duration": 166}, {"note": 68, "velocity": 46, "duration": 89}, {"note": 68, "velocity": 51, "duration": 86}, {"note": 68, "velocity": 55, "duration": 401}, {"note": 70, "velocity": 56, "duration": 140}, {"note": 68, "velocity": 56, "duration": 224}, {"note": 66, "velocity": 54, "duration": 898}, {"note": 0, "velocity": 0, "duration": 278}, {"note": 66, "velocity": 60, "duration": 145}, {"note": 68, "velocity": 58, "duration": 202}, {"note": 66, "velocity": 59, "duration": 201}, {"note": 78, "velocity": 59, "duration": 189}, {"note": 75, "velocity": 60, "duration": 698}, {"note": 0, "velocity": 0, "duration": 169}, {"note": 75, "velocity": 56, "duration": 76}, {"note": 0, "velocity": 0, "duration": 67}, {"note": 75, "velocity": 60, "duration": 83}, {"note": 75, "velocity": 62, "duration": 99}, {"note": 75, "velocity": 62, "duration": 394}, {"note": 78, "velocity": 53, "duration": 140}, {"note": 75, "velocity": 60, "duration": 232}, {"note": 73, "velocity": 54, "duration": 907}, {"note": 0, "velocity": 0, "duration": 200}, {"note": 66, "velocity": 59, "duration": 143}, {"note": 68, "velocity": 57, "duration": 220}, {"note": 66, "velocity": 60, "duration": 302}, {"note": 78, "velocity": 59, "duration": 141}, {"note": 75, "velocity": 58, "duration": 801}, {"note": 75, "velocity": 58, "duration": 114}, {"note": 75, "velocity": 60, "duration": 97}, {"note": 75, "velocity": 59, "duration": 126}, {"note": 75, "velocity": 60, "duration": 182}, {"note": 70, "velocity": 49, "duration": 158}, {"note": 73, "velocity": 59, "duration": 253}, {"note": 75, "velocity": 51, "duration": 187}, {"note": 0, "velocity": 0, "duration": 98}, {"note": 70, "velocity": 57, "duration": 206}, {"note": 68, "velocity": 48, "duration": 182}, {"note": 66, "velocity": 54, "duration": 440}, {"note": 0, "velocity": 0, "duration": 81}, {"note": 66, "velocity": 63, "duration": 173}, {"note": 68, "velocity": 55, "duration": 186}, {"note": 70, "velocity": 51, "duration": 166}, {"note": 63, "velocity": 54, "duration": 529}, {"note": 66, "velocity": 58, "duration": 132}, {"note": 68, "velocity": 53, "duration": 144}, {"note": 70, "velocity": 52, "duration": 148}, {"note": 63, "velocity": 58, "duration": 279}, {"note": 0, "velocity": 0, "duration": 189}, {"note": 70, "velocity": 59, "duration": 189}, {"note": 68, "velocity": 53, "duration": 292}, {"note": 66, "velocity": 55, "duration": 226}, {"note": 68, "velocity": 52, "duration": 997}, {"note": 0, "velocity": 0, "duration": 167}, {"note": 61, "velocity": 59, "duration": 91}, {"note": 61, "velocity": 59, "duration": 210}, {"note": 63, "velocity": 56, "duration": 127}, {"note": 61, "velocity": 59, "duration": 311}, {"note": 73, "velocity": 59, "duration": 167}, {"note": 70, "velocity": 58, "duration": 834}, {"note": 0, "velocity": 0, "duration": 135}, {"note": 68, "velocity": 47, "duration": 97}, {"note": 68, "velocity": 58, "duration": 135}, {"note": 68, "velocity": 58, "duration": 218}, {"note": 70, "velocity": 54, "duration": 151}, {"note": 68, "velocity": 53, "duration": 226}, {"note": 66, "velocity": 54, "duration": 940}, {"note": 0, "velocity": 0, "duration": 248}, {"note": 66, "velocity": 62, "duration": 189}, {"note": 68, "velocity": 58, "duration": 242}, {"note": 66, "velocity": 62, "duration": 325}, {"note": 78, "velocity": 58, "duration": 155}, {"note": 75, "velocity": 60, "duration": 587}, {"note": 0, "velocity": 0, "duration": 150}, {"note": 75, "velocity": 59, "duration": 67}, {"note": 75, "velocity": 61, "duration": 75}, {"note": 75, "velocity": 64, "duration": 80}, {"note": 75, "velocity": 65, "duration": 190}, {"note": 75, "velocity": 60, "duration": 135}, {"note": 78, "velocity": 59, "duration": 149}, {"note": 75, "velocity": 61, "duration": 223}, {"note": 73, "velocity": 52, "duration": 913}, {"note": 0, "velocity": 0, "duration": 254}, {"note": 66, "velocity": 59, "duration": 192}, {"note": 68, "velocity": 58, "duration": 187}, {"note": 66, "velocity": 59, "duration": 293}, {"note": 78, "velocity": 59, "duration": 156}, {"note": 75, "velocity": 60, "duration": 548}, {"note": 0, "velocity": 0, "duration": 177}, {"note": 75, "velocity": 58, "duration": 78}, {"note": 75, "velocity": 59, "duration": 75}, {"note": 75, "velocity": 59, "duration": 82}, {"note": 75, "velocity": 59, "duration": 75}, {"note": 75, "velocity": 60, "duration": 73}, {"note": 75, "velocity": 59, "duration": 96}, {"note": 70, "velocity": 54, "duration": 105}, {"note": 73, "velocity": 58, "duration": 227}, {"note": 75, "velocity": 59, "duration": 383}, {"note": 70, "velocity": 59, "duration": 172}, {"note": 68, "velocity": 51, "duration": 168}, {"note": 66, "velocity": 58, "duration": 360}, {"note": 0, "velocity": 0, "duration": 139}, {"note": 66, "velocity": 59, "duration": 177}, {"note": 68, "velocity": 54, "duration": 182}, {"note": 70, "velocity": 52, "duration": 153}, {"note": 63, "velocity": 57, "duration": 402}, {"note": 66, "velocity": 56, "duration": 189}, {"note": 68, "velocity": 55, "duration": 191}, {"note": 70, "velocity": 58, "duration": 171}, {"note": 62, "velocity": 58, "duration": 399}, {"note": 0, "velocity": 0, "duration": 90}, {"note": 70, "velocity": 56, "duration": 256}, {"note": 68, "velocity": 50, "duration": 166}, {"note": 66, "velocity": 50, "duration": 175}, {"note": 66, "velocity": 53, "duration": 1084}, {"note": 0, "velocity": 0, "duration": 187}, {"note": 78, "velocity": 58, "duration": 216}, {"note": 77, "velocity": 62, "duration": 272}, {"note": 75, "velocity": 62, "duration": 121}, {"note": 73, "velocity": 58, "duration": 80}, {"note": 73, "velocity": 54, "duration": 124}, {"note": 70, "velocity": 44, "duration": 118}, {"note": 73, "velocity": 59, "duration": 72}, {"note": 73, "velocity": 59, "duration": 61}, {"note": 73, "velocity": 64, "duration": 85}, {"note": 70, "velocity": 59, "duration": 125}, {"note": 73, "velocity": 63, "duration": 224}, {"note": 75, "velocity": 58, "duration": 145}, {"note": 73, "velocity": 59, "duration": 245}, {"note": 0, "velocity": 0, "duration": 63}, {"note": 78, "velocity": 59, "duration": 189}, {"note": 77, "velocity": 58, "duration": 149}, {"note": 75, "velocity": 64, "duration": 112}, {"note": 73, "velocity": 52, "duration": 71}, {"note": 73, "velocity": 57, "duration": 89}, {"note": 70, "velocity": 56, "duration": 109}, {"note": 73, "velocity": 50, "duration": 100}, {"note": 0, "velocity": 0, "duration": 73}, {"note": 73, "velocity": 59, "duration": 159}, {"note": 70, "velocity": 54, "duration": 110}, {"note": 75, "velocity": 58, "duration": 183}, {"note": 70, "velocity": 60, "duration": 103}, {"note": 68, "velocity": 58, "duration": 140}, {"note": 66, "velocity": 44, "duration": 152}, {"note": 0, "velocity": 0, "duration": 77}, {"note": 66, "velocity": 59, "duration": 105}, {"note": 68, "velocity": 56, "duration": 106}, {"note": 70, "velocity": 59, "duration": 129}, {"note": 68, "velocity": 59, "duration": 134}, {"note": 66, "velocity": 54, "duration": 99}, {"note": 66, "velocity": 58, "duration": 144}, {"note": 0, "velocity": 0, "duration": 104}, {"note": 66, "velocity": 59, "duration": 119}, {"note": 75, "velocity": 62, "duration": 112}, {"note": 73, "velocity": 59, "duration": 87}, {"note": 70, "velocity": 58, "duration": 103}, {"note": 68, "velocity": 56, "duration": 124}, {"note": 66, "velocity": 53, "duration": 293}, {"note": 0, "velocity": 0, "duration": 76}, {"note": 66, "velocity": 56, "duration": 127}, {"note": 68, "velocity": 57, "duration": 88}, {"note": 70, "velocity": 59, "duration": 99}, {"note": 68, "velocity": 52, "duration": 70}, {"note": 68, "velocity": 58, "duration": 105}, {"note": 66, "velocity": 58, "duration": 75}, {"note": 66, "velocity": 59, "duration": 146}, {"note": 63, "velocity": 62, "duration": 63}, {"note": 63, "velocity": 59, "duration": 89}, {"note": 66, "velocity": 59, "duration": 87}, {"note": 0, "velocity": 0, "duration": 62}, {"note": 75, "velocity": 69, "duration": 198}, {"note": 77, "velocity": 58, "duration": 107}, {"note": 73, "velocity": 60, "duration": 203}, {"note": 78, "velocity": 59, "duration": 234}, {"note": 77, "velocity": 62, "duration": 140}, {"note": 75, "velocity": 62, "duration": 102}, {"note": 73, "velocity": 51, "duration": 72}, {"note": 73, "velocity": 56, "duration": 89}, {"note": 70, "velocity": 59, "duration": 94}, {"note": 73, "velocity": 59, "duration": 75}, {"note": 73, "velocity": 54, "duration": 72}, {"note": 73, "velocity": 59, "duration": 97}, {"note": 70, "velocity": 58, "duration": 94}, {"note": 73, "velocity": 60, "duration": 147}, {"note": 75, "velocity": 62, "duration": 164}, {"note": 73, "velocity": 59, "duration": 236}, {"note": 78, "velocity": 61, "duration": 132}, {"note": 80, "velocity": 65, "duration": 83}, {"note": 77, "velocity": 69, "duration": 77}, {"note": 73, "velocity": 62, "duration": 60}, {"note": 73, "velocity": 62, "duration": 75}, {"note": 70, "velocity": 59, "duration": 77}, {"note": 73, "velocity": 54, "duration": 156}, {"note": 75, "velocity": 62, "duration": 141}, {"note": 78, "velocity": 60, "duration": 89}, {"note": 80, "velocity": 60, "duration": 194}, {"note": 75, "velocity": 62, "duration": 104}, {"note": 78, "velocity": 60, "duration": 259}, {"note": 0, "velocity": 0, "duration": 93}, {"note": 78, "velocity": 59, "duration": 72}, {"note": 80, "velocity": 65, "duration": 75}, {"note": 82, "velocity": 61, "duration": 119}, {"note": 80, "velocity": 54, "duration": 102}, {"note": 78, "velocity": 60, "duration": 85}, {"note": 75, "velocity": 65, "duration": 169}, {"note": 0, "velocity": 0, "duration": 68}, {"note": 78, "velocity": 59, "duration": 77}, {"note": 80, "velocity": 59, "duration": 73}, {"note": 77, "velocity": 60, "duration": 153}, {"note": 73, "velocity": 59, "duration": 136}, {"note": 70, "velocity": 60, "duration": 92}, {"note": 78, "velocity": 59, "duration": 169}, {"note": 0, "velocity": 0, "duration": 66}, {"note": 73, "velocity": 65, "duration": 61}, {"note": 75, "velocity": 65, "duration": 68}, {"note": 78, "velocity": 63, "duration": 88}, {"note": 75, "velocity": 63, "duration": 54}, {"note": 75, "velocity": 65, "duration": 75}, {"note": 73, "velocity": 59, "duration": 80}, {"note": 75, "velocity": 69, "duration": 96}, {"note": 78, "velocity": 64, "duration": 305}, {"note": 82, "velocity": 59, "duration": 223}, {"note": 80, "velocity": 62, "duration": 251}, {"note": 78, "velocity": 60, "duration": 118}, {"note": 78, "velocity": 58, "duration": 162}, {"note": 80, "velocity": 59, "duration": 207}, {"note": 78, "velocity": 60, "duration": 1940}, {"note": 0, "velocity": 0, "duration": 10627}, {"note": 61, "velocity": 58, "duration": 144}, {"note": 61, "velocity": 59, "duration": 17}, {"note": 0, "velocity": 0, "duration": 178}, {"note": 63, "velocity": 58, "duration": 164}, {"note": 61, "velocity": 58, "duration": 169}, {"note": 73, "velocity": 58, "duration": 215}, {"note": 70, "velocity": 58, "duration": 635}, {"note": 0, "velocity": 0, "duration": 319}, {"note": 68, "velocity": 53, "duration": 96}, {"note": 68, "velocity": 56, "duration": 139}, {"note": 68, "velocity": 58, "duration": 127}, {"note": 70, "velocity": 57, "duration": 117}, {"note": 68, "velocity": 53, "duration": 212}, {"note": 66, "velocity": 58, "duration": 917}, {"note": 0, "velocity": 0, "duration": 252}, {"note": 66, "velocity": 65, "duration": 122}, {"note": 68, "velocity": 65, "duration": 139}, {"note": 66, "velocity": 64, "duration": 140}, {"note": 78, "velocity": 67, "duration": 232}, {"note": 75, "velocity": 60, "duration": 656}, {"note": 0, "velocity": 0, "duration": 124}, {"note": 75, "velocity": 64, "duration": 70}, {"note": 75, "velocity": 64, "duration": 90}, {"note": 73, "velocity": 59, "duration": 93}, {"note": 75, "velocity": 65, "duration": 143}, {"note": 75, "velocity": 63, "duration": 129}, {"note": 78, "velocity": 61, "duration": 124}, {"note": 75, "velocity": 65, "duration": 212}, {"note": 73, "velocity": 58, "duration": 729}, {"note": 0, "velocity": 0, "duration": 417}, {"note": 66, "velocity": 58, "duration": 159}, {"note": 68, "velocity": 59, "duration": 162}, {"note": 66, "velocity": 62, "duration": 306}, {"note": 78, "velocity": 59, "duration": 154}, {"note": 75, "velocity": 60, "duration": 642}, {"note": 0, "velocity": 0, "duration": 121}, {"note": 75, "velocity": 57, "duration": 50}, {"note": 75, "velocity": 60, "duration": 56}, {"note": 75, "velocity": 60, "duration": 72}, {"note": 75, "velocity": 64, "duration": 131}, {"note": 75, "velocity": 63, "duration": 131}, {"note": 70, "velocity": 59, "duration": 110}, {"note": 73, "velocity": 59, "duration": 200}, {"note": 75, "velocity": 60, "duration": 339}, {"note": 70, "velocity": 59, "duration": 193}, {"note": 68, "velocity": 54, "duration": 135}, {"note": 66, "velocity": 56, "duration": 382}, {"note": 0, "velocity": 0, "duration": 105}, {"note": 66, "velocity": 60, "duration": 132}, {"note": 68, "velocity": 59, "duration": 111}, {"note": 70, "velocity": 60, "duration": 115}, {"note": 63, "velocity": 59, "duration": 397}, {"note": 66, "velocity": 58, "duration": 159}, {"note": 68, "velocity": 57, "duration": 183}, {"note": 70, "velocity": 52, "duration": 161}, {"note": 62, "velocity": 57, "duration": 397}, {"note": 0, "velocity": 0, "duration": 89}, {"note": 70, "velocity": 59, "duration": 223}, {"note": 68, "velocity": 59, "duration": 227}, {"note": 66, "velocity": 57, "duration": 151}, {"note": 68, "velocity": 50, "duration": 350}, {"note": 66, "velocity": 58, "duration": 852}, {"note": 78, "velocity": 64, "duration": 216}, {"note": 77, "velocity": 64, "duration": 248}, {"note": 75, "velocity": 64, "duration": 114}, {"note": 73, "velocity": 58, "duration": 69}, {"note": 73, "velocity": 58, "duration": 100}, {"note": 70, "velocity": 57, "duration": 102}, {"note": 73, "velocity": 64, "duration": 74}, {"note": 73, "velocity": 57, "duration": 72}, {"note": 73, "velocity": 59, "duration": 94}, {"note": 70, "velocity": 59, "duration": 95}, {"note": 73, "velocity": 65, "duration": 159}, {"note": 75, "velocity": 62, "duration": 186}, {"note": 73, "velocity": 62, "duration": 188}, {"note": 78, "velocity": 60, "duration": 208}, {"note": 77, "velocity": 61, "duration": 127}, {"note": 75, "velocity": 63, "duration": 112}, {"note": 73, "velocity": 56, "duration": 71}, {"note": 73, "velocity": 60, "duration": 92}, {"note": 70, "velocity": 57, "duration": 95}, {"note": 73, "velocity": 64, "duration": 139}, {"note": 73, "velocity": 59, "duration": 117}, {"note": 0, "velocity": 0, "duration": 71}, {"note": 70, "velocity": 59, "duration": 108}, {"note": 73, "velocity": 62, "duration": 164}, {"note": 70, "velocity": 58, "duration": 112}, {"note": 68, "velocity": 53, "duration": 103}, {"note": 66, "velocity": 57, "duration": 188}, {"note": 0, "velocity": 0, "duration": 67}, {"note": 66, "velocity": 62, "duration": 100}, {"note": 68, "velocity": 53, "duration": 126}, {"note": 70, "velocity": 60, "duration": 232}, {"note": 68, "velocity": 59, "duration": 125}, {"note": 66, "velocity": 54, "duration": 89}, {"note": 66, "velocity": 62, "duration": 180}, {"note": 66, "velocity": 60, "duration": 64}, {"note": 75, "velocity": 59, "duration": 71}, {"note": 73, "velocity": 62, "duration": 124}, {"note": 70, "velocity": 58, "duration": 92}, {"note": 68, "velocity": 54, "duration": 96}, {"note": 66, "velocity": 60, "duration": 231}, {"note": 0, "velocity": 0, "duration": 113}, {"note": 66, "velocity": 57, "duration": 75}, {"note": 68, "velocity": 59, "duration": 75}, {"note": 70, "velocity": 59, "duration": 97}, {"note": 68, "velocity": 43, "duration": 67}, {"note": 68, "velocity": 54, "duration": 97}, {"note": 66, "velocity": 60, "duration": 82}, {"note": 66, "velocity": 60, "duration": 86}, {"note": 63, "velocity": 60, "duration": 80}, {"note": 63, "velocity": 62, "duration": 89}, {"note": 66, "velocity": 61, "duration": 86}, {"note": 75, "velocity": 63, "duration": 171}, {"note": 77, "velocity": 60, "duration": 94}, {"note": 73, "velocity": 59, "duration": 208}, {"note": 78, "velocity": 62, "duration": 177}, {"note": 77, "velocity": 63, "duration": 109}, {"note": 75, "velocity": 64, "duration": 110}, {"note": 73, "velocity": 61, "duration": 65}, {"note": 73, "velocity": 60, "duration": 115}, {"note": 70, "velocity": 55, "duration": 91}, {"note": 73, "velocity": 62, "duration": 65}, {"note": 73, "velocity": 54, "duration": 63}, {"note": 73, "velocity": 59, "duration": 82}, {"note": 70, "velocity": 59, "duration": 84}, {"note": 73, "velocity": 61, "duration": 131}, {"note": 75, "velocity": 60, "duration": 134}, {"note": 73, "velocity": 61, "duration": 147}, {"note": 0, "velocity": 0, "duration": 104}, {"note": 78, "velocity": 62, "duration": 173}, {"note": 80, "velocity": 64, "duration": 80}, {"note": 77, "velocity": 62, "duration": 102}, {"note": 73, "velocity": 58, "duration": 65}, {"note": 73, "velocity": 61, "duration": 88}, {"note": 70, "velocity": 53, "duration": 87}, {"note": 73, "velocity": 61, "duration": 129}, {"note": 75, "velocity": 65, "duration": 141}, {"note": 78, "velocity": 58, "duration": 102}, {"note": 80, "velocity": 58, "duration": 230}, {"note": 75, "velocity": 61, "duration": 102}, {"note": 78, "velocity": 60, "duration": 178}, {"note": 0, "velocity": 0, "duration": 157}, {"note": 78, "velocity": 60, "duration": 74}, {"note": 80, "velocity": 61, "duration": 98}, {"note": 82, "velocity": 60, "duration": 140}, {"note": 80, "velocity": 55, "duration": 134}, {"note": 78, "velocity": 63, "duration": 125}, {"note": 75, "velocity": 69, "duration": 178}, {"note": 78, "velocity": 62, "duration": 112}, {"note": 80, "velocity": 58, "duration": 92}, {"note": 77, "velocity": 69, "duration": 218}, {"note": 73, "velocity": 62, "duration": 142}, {"note": 70, "velocity": 60, "duration": 126}, {"note": 78, "velocity": 60, "duration": 169}, {"note": 73, "velocity": 61, "duration": 57}, {"note": 75, "velocity": 69, "duration": 95}, {"note": 78, "velocity": 64, "duration": 96}, {"note": 75, "velocity": 65, "duration": 65}, {"note": 75, "velocity": 65, "duration": 85}, {"note": 73, "velocity": 58, "duration": 90}, {"note": 75, "velocity": 65, "duration": 115}, {"note": 78, "velocity": 63, "duration": 238}, {"note": 0, "velocity": 0, "duration": 109}, {"note": 82, "velocity": 53, "duration": 224}, {"note": 80, "velocity": 58, "duration": 116}, {"note": 78, "velocity": 53, "duration": 90}, {"note": 78, "velocity": 58, "duration": 124}, {"note": 78, "velocity": 60, "duration": 118}, {"note": 80, "velocity": 59, "duration": 255}, {"note": 78, "velocity": 59, "duration": 1259}, {"note": 0, "velocity": 0, "duration": 163}, {"note": 79, "velocity": 64, "duration": 377}, {"note": 78, "velocity": 63, "duration": 385}, {"note": 76, "velocity": 65, "duration": 103}, {"note": 74, "velocity": 65, "duration": 70}, {"note": 74, "velocity": 60, "duration": 79}, {"note": 71, "velocity": 59, "duration": 98}, {"note": 74, "velocity": 72, "duration": 75}, {"note": 74, "velocity": 69, "duration": 64}, {"note": 74, "velocity": 62, "duration": 81}, {"note": 71, "velocity": 59, "duration": 95}, {"note": 74, "velocity": 74, "duration": 108}, {"note": 76, "velocity": 59, "duration": 203}, {"note": 74, "velocity": 62, "duration": 197}, {"note": 79, "velocity": 59, "duration": 181}, {"note": 78, "velocity": 60, "duration": 132}, {"note": 76, "velocity": 60, "duration": 102}, {"note": 74, "velocity": 60, "duration": 73}, {"note": 74, "velocity": 63, "duration": 70}, {"note": 71, "velocity": 58, "duration": 89}, {"note": 74, "velocity": 65, "duration": 75}, {"note": 0, "velocity": 0, "duration": 106}, {"note": 74, "velocity": 60, "duration": 125}, {"note": 71, "velocity": 59, "duration": 102}, {"note": 76, "velocity": 65, "duration": 205}, {"note": 71, "velocity": 59, "duration": 107}, {"note": 69, "velocity": 59, "duration": 131}, {"note": 67, "velocity": 54, "duration": 174}, {"note": 0, "velocity": 0, "duration": 74}, {"note": 67, "velocity": 60, "duration": 100}, {"note": 69, "velocity": 59, "duration": 98}, {"note": 71, "velocity": 60, "duration": 201}, {"note": 69, "velocity": 60, "duration": 104}, {"note": 67, "velocity": 56, "duration": 92}, {"note": 67, "velocity": 56, "duration": 142}, {"note": 0, "velocity": 0, "duration": 67}, {"note": 67, "velocity": 59, "duration": 85}, {"note": 76, "velocity": 61, "duration": 87}, {"note": 74, "velocity": 65, "duration": 100}, {"note": 71, "velocity": 58, "duration": 84}, {"note": 69, "velocity": 60, "duration": 79}, {"note": 67, "velocity": 61, "duration": 209}, {"note": 0, "velocity": 0, "duration": 128}, {"note": 67, "velocity": 60, "duration": 75}, {"note": 69, "velocity": 59, "duration": 85}, {"note": 71, "velocity": 59, "duration": 106}, {"note": 69, "velocity": 58, "duration": 65}, {"note": 69, "velocity": 59, "duration": 86}, {"note": 67, "velocity": 60, "duration": 60}, {"note": 67, "velocity": 60, "duration": 57}, {"note": 64, "velocity": 64, "duration": 68}, {"note": 64, "velocity": 64, "duration": 73}, {"note": 67, "velocity": 60, "duration": 75}, {"note": 76, "velocity": 62, "duration": 182}, {"note": 78, "velocity": 60, "duration": 98}, {"note": 74, "velocity": 65, "duration": 174}, {"note": 79, "velocity": 64, "duration": 160}, {"note": 78, "velocity": 61, "duration": 109}, {"note": 76, "velocity": 62, "duration": 104}, {"note": 74, "velocity": 59, "duration": 70}, {"note": 74, "velocity": 62, "duration": 72}, {"note": 71, "velocity": 54, "duration": 84}, {"note": 74, "velocity": 65, "duration": 85}, {"note": 74, "velocity": 63, "duration": 118}, {"note": 74, "velocity": 63, "duration": 118}, {"note": 71, "velocity": 59, "duration": 84}, {"note": 74, "velocity": 72, "duration": 85}, {"note": 76, "velocity": 62, "duration": 175}, {"note": 74, "velocity": 75, "duration": 174}, {"note": 0, "velocity": 0, "duration": 71}, {"note": 79, "velocity": 61, "duration": 194}, {"note": 81, "velocity": 59, "duration": 83}, {"note": 78, "velocity": 62, "duration": 85}, {"note": 74, "velocity": 65, "duration": 60}, {"note": 0, "velocity": 0, "duration": 64}, {"note": 74, "velocity": 69, "duration": 68}, {"note": 71, "velocity": 63, "duration": 72}, {"note": 74, "velocity": 67, "duration": 134}, {"note": 76, "velocity": 64, "duration": 100}, {"note": 79, "velocity": 60, "duration": 98}, {"note": 81, "velocity": 60, "duration": 213}, {"note": 76, "velocity": 62, "duration": 103}, {"note": 79, "velocity": 59, "duration": 248}, {"note": 0, "velocity": 0, "duration": 93}, {"note": 79, "velocity": 62, "duration": 72}, {"note": 81, "velocity": 59, "duration": 90}, {"note": 83, "velocity": 59, "duration": 204}, {"note": 81, "velocity": 53, "duration": 96}, {"note": 79, "velocity": 57, "duration": 116}, {"note": 76, "velocity": 56, "duration": 166}, {"note": 0, "velocity": 0, "duration": 65}, {"note": 79, "velocity": 58, "duration": 84}, {"note": 81, "velocity": 59, "duration": 106}, {"note": 78, "velocity": 62, "duration": 210}, {"note": 74, "velocity": 58, "duration": 88}, {"note": 0, "velocity": 0, "duration": 75}, {"note": 71, "velocity": 61, "duration": 101}, {"note": 79, "velocity": 55, "duration": 1203}, {"note": 0, "velocity": 0, "duration": 276}, {"note": 74, "velocity": 65, "duration": 88}, {"note": 76, "velocity": 58, "duration": 104}, {"note": 79, "velocity": 58, "duration": 105}, {"note": 76, "velocity": 59, "duration": 100}, {"note": 0, "velocity": 0, "duration": 67}, {"note": 76, "velocity": 59, "duration": 115}, {"note": 74, "velocity": 59, "duration": 105}, {"note": 76, "velocity": 55, "duration": 147}, {"note": 79, "velocity": 58, "duration": 232}, {"note": 0, "velocity": 0, "duration": 294}, {"note": 83, "velocity": 52, "duration": 273}, {"note": 81, "velocity": 53, "duration": 206}, {"note": 79, "velocity": 56, "duration": 209}, {"note": 0, "velocity": 0, "duration": 72}, {"note": 79, "velocity": 49, "duration": 265}, {"note": 81, "velocity": 59, "duration": 658}, {"note": 79, "velocity": 55, "duration": 1640}]]