[[{"note": 61, "velocity": 104, "duration": 240}, {"note": 58, "velocity": 89, "duration": 240}, {"note": 66, "velocity": 98, "duration": 719}, {"note": 66, "velocity": 93, "duration": 119}, {"note": 66, "velocity": 86, "duration": 120}, {"note": 65, "velocity": 90, "duration": 239}, {"note": 65, "velocity": 88, "duration": 240}, {"note": 66, "velocity": 108, "duration": 239}, {"note": 66, "velocity": 108, "duration": 1440}, {"note": 61, "velocity": 93, "duration": 239}, {"note": 61, "velocity": 98, "duration": 240}, {"note": 58, "velocity": 87, "duration": 135}, {"note": 66, "velocity": 102, "duration": 839}, {"note": 66, "velocity": 88, "duration": 119}, {"note": 66, "velocity": 89, "duration": 120}, {"note": 68, "velocity": 96, "duration": 239}, {"note": 68, "velocity": 102, "duration": 240}, {"note": 70, "velocity": 94, "duration": 239}, {"note": 70, "velocity": 96, "duration": 1680}, {"note": 66, "velocity": 113, "duration": 240}, {"note": 68, "velocity": 108, "duration": 240}, {"note": 70, "velocity": 108, "duration": 239}, {"note": 70, "velocity": 107, "duration": 239}, {"note": 70, "velocity": 110, "duration": 240}, {"note": 71, "velocity": 109, "duration": 120}, {"note": 68, "velocity": 110, "duration": 960}, {"note": 61, "velocity": 102, "duration": 120}, {"note": 73, "velocity": 110, "duration": 240}, {"note": 71, "velocity": 113, "duration": 239}, {"note": 71, "velocity": 110, "duration": 240}, {"note": 70, "velocity": 91, "duration": 119}, {"note": 70, "velocity": 91, "duration": 960}, {"note": 61, "velocity": 88, "duration": 120}, {"note": 70, "velocity": 107, "duration": 240}, {"note": 68, "velocity": 94, "duration": 239}, {"note": 68, "velocity": 102, "duration": 240}, {"note": 66, "velocity": 93, "duration": 239}, {"note": 66, "velocity": 107, "duration": 240}, {"note": 63, "velocity": 107, "duration": 240}, {"note": 66, "velocity": 108, "duration": 360}, {"note": 68, "velocity": 108, "duration": 1560}, {"note": 61, "velocity": 104, "duration": 240}, {"note": 58, "velocity": 89, "duration": 240}, {"note": 66, "velocity": 98, "duration": 719}, {"note": 66, "velocity": 93, "duration": 119}, {"note": 66, "velocity": 86, "duration": 120}, {"note": 65, "velocity": 90, "duration": 239}, {"note": 65, "velocity": 88, "duration": 240}, {"note": 66, "velocity": 108, "duration": 239}, {"note": 66, "velocity": 108, "duration": 1440}, {"note": 61, "velocity": 93, "duration": 120}, {"note": 61, "velocity": 93, "duration": 120}, {"note": 61, "velocity": 98, "duration": 240}, {"note": 58, "velocity": 87, "duration": 240}, {"note": 66, "velocity": 102, "duration": 839}, {"note": 66, "velocity": 88, "duration": 120}, {"note": 68, "velocity": 96, "duration": 239}, {"note": 68, "velocity": 102, "duration": 119}, {"note": 68, "velocity": 102, "duration": 120}, {"note": 70, "velocity": 94, "duration": 239}, {"note": 70, "velocity": 96, "duration": 1680}, {"note": 66, "velocity": 113, "duration": 240}, {"note": 68, "velocity": 108, "duration": 240}, {"note": 70, "velocity": 108, "duration": 239}, {"note": 70, "velocity": 107, "duration": 239}, {"note": 70, "velocity": 110, "duration": 240}, {"note": 71, "velocity": 109, "duration": 120}, {"note": 68, "velocity": 110, "duration": 960}, {"note": 61, "velocity": 102, "duration": 120}, {"note": 73, "velocity": 110, "duration": 240}, {"note": 71, "velocity": 113, "duration": 239}, {"note": 71, "velocity": 110, "duration": 240}, {"note": 70, "velocity": 91, "duration": 119}, {"note": 70, "velocity": 91, "duration": 960}, {"note": 61, "velocity": 88, "duration": 120}, {"note": 70, "velocity": 107, "duration": 240}, {"note": 68, "velocity": 94, "duration": 239}, {"note": 68, "velocity": 102, "duration": 240}, {"note": 66, "velocity": 93, "duration": 239}, {"note": 66, "velocity": 107, "duration": 240}, {"note": 63, "velocity": 107, "duration": 119}, {"note": 63, "velocity": 107, "duration": 120}, {"note": 75, "velocity": 108, "duration": 240}, {"note": 73, "velocity": 108, "duration": 2039}, {"note": 73, "velocity": 102, "duration": 120}, {"note": 78, "velocity": 117, "duration": 239}, {"note": 78, "velocity": 113, "duration": 239}, {"note": 78, "velocity": 114, "duration": 239}, {"note": 78, "velocity": 110, "duration": 240}, {"note": 77, "velocity": 110, "duration": 240}, {"note": 78, "velocity": 117, "duration": 240}, {"note": 80, "velocity": 114, "duration": 240}, {"note": 78, "velocity": 119, "duration": 1920}, {"note": 73, "velocity": 89, "duration": 119}, {"note": 73, "velocity": 89, "duration": 120}, {"note": 75, "velocity": 104, "duration": 239}, {"note": 75, "velocity": 100, "duration": 239}, {"note": 75, "velocity": 100, "duration": 239}, {"note": 75, "velocity": 107, "duration": 240}, {"note": 73, "velocity": 110, "duration": 240}, {"note": 75, "velocity": 113, "duration": 240}, {"note": 73, "velocity": 102, "duration": 480}, {"note": 70, "velocity": 113, "duration": 1800}, {"note": 73, "velocity": 87, "duration": 120}, {"note": 78, "velocity": 114, "duration": 239}, {"note": 78, "velocity": 113, "duration": 239}, {"note": 78, "velocity": 110, "duration": 239}, {"note": 78, "velocity": 108, "duration": 119}, {"note": 78, "velocity": 108, "duration": 120}, {"note": 82, "velocity": 113, "duration": 240}, {"note": 80, "velocity": 114, "duration": 240}, {"note": 82, "velocity": 113, "duration": 240}, {"note": 80, "velocity": 116, "duration": 240}, {"note": 78, "velocity": 113, "duration": 1680}, {"note": 73, "velocity": 110, "duration": 119}, {"note": 73, "velocity": 102, "duration": 120}, {"note": 75, "velocity": 113, "duration": 239}, {"note": 75, "velocity": 107, "duration": 239}, {"note": 75, "velocity": 114, "duration": 239}, {"note": 75, "velocity": 113, "duration": 240}, {"note": 73, "velocity": 107, "duration": 240}, {"note": 78, "velocity": 113, "duration": 240}, {"note": 77, "velocity": 113, "duration": 240}, {"note": 78, "velocity": 116, "duration": 240}, {"note": 0, "velocity": 0, "duration": 7200}, {"note": 61, "velocity": 104, "duration": 240}, {"note": 58, "velocity": 89, "duration": 240}, {"note": 66, "velocity": 98, "duration": 719}, {"note": 66, "velocity": 93, "duration": 119}, {"note": 66, "velocity": 86, "duration": 120}, {"note": 65, "velocity": 90, "duration": 239}, {"note": 65, "velocity": 88, "duration": 240}, {"note": 66, "velocity": 108, "duration": 239}, {"note": 66, "velocity": 108, "duration": 1440}, {"note": 61, "velocity": 93, "duration": 119}, {"note": 61, "velocity": 93, "duration": 119}, {"note": 61, "velocity": 98, "duration": 240}, {"note": 58, "velocity": 87, "duration": 135}, {"note": 66, "velocity": 102, "duration": 959}, {"note": 66, "velocity": 89, "duration": 120}, {"note": 68, "velocity": 96, "duration": 239}, {"note": 68, "velocity": 102, "duration": 119}, {"note": 68, "velocity": 102, "duration": 120}, {"note": 70, "velocity": 94, "duration": 239}, {"note": 70, "velocity": 96, "duration": 1680}, {"note": 66, "velocity": 113, "duration": 240}, {"note": 68, "velocity": 108, "duration": 120}, {"note": 70, "velocity": 108, "duration": 359}, {"note": 70, "velocity": 107, "duration": 239}, {"note": 70, "velocity": 110, "duration": 240}, {"note": 71, "velocity": 109, "duration": 120}, {"note": 68, "velocity": 110, "duration": 960}, {"note": 61, "velocity": 102, "duration": 120}, {"note": 73, "velocity": 110, "duration": 240}, {"note": 71, "velocity": 113, "duration": 119}, {"note": 71, "velocity": 110, "duration": 360}, {"note": 70, "velocity": 91, "duration": 138}, {"note": 70, "velocity": 91, "duration": 18}, {"note": 0, "velocity": 0, "duration": 942}, {"note": 61, "velocity": 88, "duration": 120}, {"note": 70, "velocity": 107, "duration": 240}, {"note": 68, "velocity": 94, "duration": 119}, {"note": 68, "velocity": 102, "duration": 360}, {"note": 66, "velocity": 93, "duration": 239}, {"note": 66, "velocity": 107, "duration": 240}, {"note": 63, "velocity": 107, "duration": 119}, {"note": 63, "velocity": 107, "duration": 120}, {"note": 75, "velocity": 108, "duration": 240}, {"note": 73, "velocity": 108, "duration": 2039}, {"note": 73, "velocity": 102, "duration": 120}, {"note": 78, "velocity": 117, "duration": 239}, {"note": 78, "velocity": 113, "duration": 239}, {"note": 78, "velocity": 114, "duration": 239}, {"note": 78, "velocity": 110, "duration": 240}, {"note": 77, "velocity": 110, "duration": 240}, {"note": 78, "velocity": 117, "duration": 240}, {"note": 80, "velocity": 114, "duration": 240}, {"note": 78, "velocity": 119, "duration": 1920}, {"note": 73, "velocity": 89, "duration": 119}, {"note": 73, "velocity": 89, "duration": 120}, {"note": 75, "velocity": 104, "duration": 239}, {"note": 75, "velocity": 100, "duration": 239}, {"note": 75, "velocity": 100, "duration": 239}, {"note": 75, "velocity": 107, "duration": 240}, {"note": 73, "velocity": 110, "duration": 240}, {"note": 75, "velocity": 113, "duration": 240}, {"note": 73, "velocity": 102, "duration": 360}, {"note": 70, "velocity": 113, "duration": 1920}, {"note": 73, "velocity": 87, "duration": 120}, {"note": 78, "velocity": 114, "duration": 239}, {"note": 78, "velocity": 113, "duration": 239}, {"note": 78, "velocity": 110, "duration": 239}, {"note": 78, "velocity": 108, "duration": 119}, {"note": 78, "velocity": 108, "duration": 120}, {"note": 82, "velocity": 113, "duration": 240}, {"note": 80, "velocity": 114, "duration": 240}, {"note": 82, "velocity": 113, "duration": 240}, {"note": 80, "velocity": 116, "duration": 240}, {"note": 78, "velocity": 113, "duration": 1680}, {"note": 73, "velocity": 110, "duration": 119}, {"note": 73, "velocity": 102, "duration": 120}, {"note": 75, "velocity": 113, "duration": 239}, {"note": 75, "velocity": 107, "duration": 239}, {"note": 75, "velocity": 114, "duration": 239}, {"note": 75, "velocity": 113, "duration": 240}, {"note": 73, "velocity": 107, "duration": 240}, {"note": 78, "velocity": 113, "duration": 240}, {"note": 77, "velocity": 113, "duration": 240}, {"note": 78, "velocity": 116, "duration": 2040}, {"note": 73, "velocity": 102, "duration": 120}, {"note": 78, "velocity": 117, "duration": 239}, {"note": 78, "velocity": 113, "duration": 239}, {"note": 78, "velocity": 114, "duration": 239}, {"note": 78, "velocity": 110, "duration": 240}, {"note": 77, "velocity": 110, "duration": 240}, {"note": 78, "velocity": 117, "duration": 240}, {"note": 80, "velocity": 114, "duration": 240}, {"note": 78, "velocity": 119, "duration": 1920}, {"note": 73, "velocity": 89, "duration": 119}, {"note": 73, "velocity": 89, "duration": 120}, {"note": 75, "velocity": 104, "duration": 239}, {"note": 75, "velocity": 100, "duration": 239}, {"note": 75, "velocity": 100, "duration": 239}, {"note": 75, "velocity": 107, "duration": 240}, {"note": 73, "velocity": 110, "duration": 240}, {"note": 75, "velocity": 113, "duration": 240}, {"note": 73, "velocity": 102, "duration": 240}, {"note": 70, "velocity": 113, "duration": 2040}, {"note": 73, "velocity": 87, "duration": 120}, {"note": 78, "velocity": 114, "duration": 239}, {"note": 78, "velocity": 113, "duration": 239}, {"note": 78, "velocity": 110, "duration": 239}, {"note": 78, "velocity": 108, "duration": 119}, {"note": 78, "velocity": 108, "duration": 120}, {"note": 82, "velocity": 113, "duration": 240}, {"note": 80, "velocity": 114, "duration": 240}, {"note": 82, "velocity": 113, "duration": 240}, {"note": 80, "velocity": 116, "duration": 240}, {"note": 78, "velocity": 113, "duration": 1680}, {"note": 73, "velocity": 110, "duration": 119}, {"note": 73, "velocity": 102, "duration": 120}, {"note": 75, "velocity": 113, "duration": 239}, {"note": 75, "velocity": 107, "duration": 239}, {"note": 75, "velocity": 114, "duration": 239}, {"note": 75, "velocity": 113, "duration": 240}, {"note": 73, "velocity": 107, "duration": 240}, {"note": 78, "velocity": 113, "duration": 240}, {"note": 77, "velocity": 113, "duration": 240}, {"note": 78, "velocity": 116, "duration": 240}, {"note": 0, "velocity": 0, "duration": 1680}, {"note": 73, "velocity": 98, "duration": 119}, {"note": 73, "velocity": 104, "duration": 120}, {"note": 75, "velocity": 113, "duration": 239}, {"note": 75, "velocity": 100, "duration": 239}, {"note": 75, "velocity": 100, "duration": 239}, {"note": 75, "velocity": 100, "duration": 240}, {"note": 73, "velocity": 107, "duration": 258}, {"note": 68, "velocity": 89, "duration": 240}, {"note": 70, "velocity": 104, "duration": 480}, {"note": 66, "velocity": 100, "duration": 960}]]