[[{"note": 71, "velocity": 96, "duration": 240}, {"note": 73, "velocity": 108, "duration": 720}, {"note": 76, "velocity": 113, "duration": 240}, {"note": 78, "velocity": 98, "duration": 240}, {"note": 81, "velocity": 113, "duration": 240}, {"note": 78, "velocity": 92, "duration": 240}, {"note": 76, "velocity": 89, "duration": 244}, {"note": 78, "velocity": 94, "duration": 240}, {"note": 76, "velocity": 89, "duration": 272}, {"note": 73, "velocity": 94, "duration": 250}, {"note": 71, "velocity": 88, "duration": 243}, {"note": 73, "velocity": 96, "duration": 720}, {"note": 69, "velocity": 103, "duration": 240}, {"note": 71, "velocity": 102, "duration": 479}, {"note": 71, "velocity": 108, "duration": 240}, {"note": 73, "velocity": 104, "duration": 240}, {"note": 71, "velocity": 102, "duration": 240}, {"note": 69, "velocity": 93, "duration": 241}, {"note": 66, "velocity": 91, "duration": 480}, {"note": 64, "velocity": 91, "duration": 1200}, {"note": 0, "velocity": 0, "duration": 480}, {"note": 66, "velocity": 100, "duration": 244}, {"note": 69, "velocity": 106, "duration": 720}, {"note": 71, "velocity": 92, "duration": 240}, {"note": 73, "velocity": 96, "duration": 279}, {"note": 71, "velocity": 91, "duration": 240}, {"note": 73, "velocity": 93, "duration": 261}, {"note": 76, "velocity": 89, "duration": 240}, {"note": 78, "velocity": 92, "duration": 240}, {"note": 76, "velocity": 94, "duration": 240}, {"note": 73, "velocity": 89, "duration": 240}, {"note": 71, "velocity": 89, "duration": 269}, {"note": 73, "velocity": 91, "duration": 720}, {"note": 69, "velocity": 100, "duration": 240}, {"note": 71, "velocity": 108, "duration": 720}, {"note": 73, "velocity": 96, "duration": 268}, {"note": 76, "velocity": 94, "duration": 240}, {"note": 78, "velocity": 88, "duration": 240}, {"note": 76, "velocity": 93, "duration": 240}, {"note": 73, "velocity": 93, "duration": 248}, {"note": 71, "velocity": 93, "duration": 1140}, {"note": 0, "velocity": 0, "duration": 540}, {"note": 71, "velocity": 96, "duration": 240}, {"note": 73, "velocity": 108, "duration": 720}, {"note": 76, "velocity": 113, "duration": 240}, {"note": 78, "velocity": 98, "duration": 240}, {"note": 81, "velocity": 113, "duration": 240}, {"note": 78, "velocity": 92, "duration": 240}, {"note": 76, "velocity": 89, "duration": 244}, {"note": 78, "velocity": 94, "duration": 240}, {"note": 76, "velocity": 89, "duration": 272}, {"note": 73, "velocity": 94, "duration": 250}, {"note": 71, "velocity": 88, "duration": 243}, {"note": 73, "velocity": 96, "duration": 720}, {"note": 69, "velocity": 103, "duration": 240}, {"note": 71, "velocity": 102, "duration": 479}, {"note": 71, "velocity": 108, "duration": 240}, {"note": 73, "velocity": 104, "duration": 240}, {"note": 71, "velocity": 102, "duration": 240}, {"note": 69, "velocity": 93, "duration": 241}, {"note": 66, "velocity": 91, "duration": 480}, {"note": 64, "velocity": 91, "duration": 1680}, {"note": 66, "velocity": 100, "duration": 244}, {"note": 69, "velocity": 106, "duration": 720}, {"note": 71, "velocity": 92, "duration": 240}, {"note": 73, "velocity": 96, "duration": 279}, {"note": 71, "velocity": 91, "duration": 240}, {"note": 73, "velocity": 93, "duration": 261}, {"note": 76, "velocity": 89, "duration": 240}, {"note": 81, "velocity": 116, "duration": 240}, {"note": 80, "velocity": 102, "duration": 240}, {"note": 78, "velocity": 107, "duration": 240}, {"note": 76, "velocity": 110, "duration": 240}, {"note": 78, "velocity": 114, "duration": 480}, {"note": 76, "velocity": 108, "duration": 240}, {"note": 73, "velocity": 102, "duration": 240}, {"note": 71, "velocity": 107, "duration": 479}, {"note": 71, "velocity": 114, "duration": 246}, {"note": 69, "velocity": 113, "duration": 240}, {"note": 66, "velocity": 108, "duration": 480}, {"note": 64, "velocity": 92, "duration": 257}, {"note": 66, "velocity": 91, "duration": 480}, {"note": 69, "velocity": 95, "duration": 3120}, {"note": 76, "velocity": 107, "duration": 269}, {"note": 78, "velocity": 113, "duration": 245}, {"note": 81, "velocity": 119, "duration": 720}, {"note": 83, "velocity": 113, "duration": 240}, {"note": 85, "velocity": 113, "duration": 240}, {"note": 83, "velocity": 107, "duration": 240}, {"note": 81, "velocity": 116, "duration": 240}, {"note": 78, "velocity": 108, "duration": 240}, {"note": 81, "velocity": 116, "duration": 1440}, {"note": 76, "velocity": 116, "duration": 240}, {"note": 78, "velocity": 107, "duration": 240}, {"note": 81, "velocity": 116, "duration": 720}, {"note": 85, "velocity": 110, "duration": 240}, {"note": 83, "velocity": 110, "duration": 240}, {"note": 81, "velocity": 106, "duration": 240}, {"note": 78, "velocity": 104, "duration": 240}, {"note": 81, "velocity": 84, "duration": 240}, {"note": 76, "velocity": 102, "duration": 1440}, {"note": 73, "velocity": 113, "duration": 240}, {"note": 76, "velocity": 113, "duration": 240}, {"note": 78, "velocity": 113, "duration": 720}, {"note": 81, "velocity": 116, "duration": 240}, {"note": 83, "velocity": 107, "duration": 240}, {"note": 81, "velocity": 113, "duration": 240}, {"note": 78, "velocity": 113, "duration": 239}, {"note": 78, "velocity": 94, "duration": 240}, {"note": 76, "velocity": 104, "duration": 239}, {"note": 76, "velocity": 104, "duration": 240}, {"note": 73, "velocity": 96, "duration": 246}, {"note": 71, "velocity": 98, "duration": 247}, {"note": 69, "velocity": 100, "duration": 480}, {"note": 66, "velocity": 116, "duration": 250}, {"note": 69, "velocity": 109, "duration": 240}, {"note": 71, "velocity": 113, "duration": 720}, {"note": 73, "velocity": 116, "duration": 240}, {"note": 83, "velocity": 110, "duration": 244}, {"note": 81, "velocity": 109, "duration": 240}, {"note": 78, "velocity": 93, "duration": 240}, {"note": 81, "velocity": 116, "duration": 240}, {"note": 76, "velocity": 114, "duration": 1439}, {"note": 76, "velocity": 107, "duration": 269}, {"note": 78, "velocity": 113, "duration": 245}, {"note": 81, "velocity": 119, "duration": 720}, {"note": 83, "velocity": 113, "duration": 240}, {"note": 85, "velocity": 113, "duration": 240}, {"note": 83, "velocity": 107, "duration": 240}, {"note": 81, "velocity": 116, "duration": 240}, {"note": 78, "velocity": 108, "duration": 240}, {"note": 81, "velocity": 116, "duration": 1440}, {"note": 76, "velocity": 116, "duration": 240}, {"note": 78, "velocity": 107, "duration": 240}, {"note": 81, "velocity": 116, "duration": 720}, {"note": 85, "velocity": 110, "duration": 240}, {"note": 83, "velocity": 110, "duration": 240}, {"note": 81, "velocity": 106, "duration": 240}, {"note": 78, "velocity": 104, "duration": 240}, {"note": 81, "velocity": 84, "duration": 240}, {"note": 76, "velocity": 102, "duration": 1440}, {"note": 73, "velocity": 113, "duration": 240}, {"note": 76, "velocity": 113, "duration": 240}, {"note": 78, "velocity": 113, "duration": 720}, {"note": 81, "velocity": 116, "duration": 240}, {"note": 83, "velocity": 107, "duration": 240}, {"note": 81, "velocity": 113, "duration": 240}, {"note": 78, "velocity": 113, "duration": 239}, {"note": 78, "velocity": 94, "duration": 240}, {"note": 76, "velocity": 104, "duration": 240}, {"note": 85, "velocity": 110, "duration": 239}, {"note": 85, "velocity": 116, "duration": 240}, {"note": 83, "velocity": 113, "duration": 240}, {"note": 81, "velocity": 113, "duration": 480}, {"note": 78, "velocity": 110, "duration": 240}, {"note": 81, "velocity": 109, "duration": 240}, {"note": 83, "velocity": 114, "duration": 479}, {"note": 83, "velocity": 116, "duration": 240}, {"note": 81, "velocity": 109, "duration": 240}, {"note": 78, "velocity": 110, "duration": 240}, {"note": 81, "velocity": 113, "duration": 240}, {"note": 76, "velocity": 107, "duration": 240}, {"note": 78, "velocity": 100, "duration": 480}, {"note": 81, "velocity": 119, "duration": 1500}, {"note": 0, "velocity": 0, "duration": 7620}, {"note": 71, "velocity": 96, "duration": 240}, {"note": 73, "velocity": 108, "duration": 720}, {"note": 76, "velocity": 113, "duration": 240}, {"note": 78, "velocity": 98, "duration": 240}, {"note": 81, "velocity": 113, "duration": 240}, {"note": 78, "velocity": 92, "duration": 240}, {"note": 76, "velocity": 89, "duration": 244}, {"note": 78, "velocity": 94, "duration": 240}, {"note": 76, "velocity": 89, "duration": 272}, {"note": 73, "velocity": 94, "duration": 250}, {"note": 71, "velocity": 88, "duration": 243}, {"note": 73, "velocity": 96, "duration": 720}, {"note": 69, "velocity": 103, "duration": 240}, {"note": 71, "velocity": 102, "duration": 479}, {"note": 71, "velocity": 108, "duration": 240}, {"note": 73, "velocity": 104, "duration": 240}, {"note": 71, "velocity": 102, "duration": 240}, {"note": 69, "velocity": 93, "duration": 241}, {"note": 66, "velocity": 91, "duration": 480}, {"note": 64, "velocity": 91, "duration": 1200}, {"note": 0, "velocity": 0, "duration": 480}, {"note": 66, "velocity": 100, "duration": 244}, {"note": 69, "velocity": 106, "duration": 720}, {"note": 71, "velocity": 92, "duration": 240}, {"note": 73, "velocity": 96, "duration": 279}, {"note": 71, "velocity": 91, "duration": 240}, {"note": 73, "velocity": 93, "duration": 261}, {"note": 76, "velocity": 89, "duration": 240}, {"note": 78, "velocity": 92, "duration": 240}, {"note": 76, "velocity": 94, "duration": 240}, {"note": 73, "velocity": 89, "duration": 240}, {"note": 71, "velocity": 89, "duration": 269}, {"note": 73, "velocity": 91, "duration": 720}, {"note": 69, "velocity": 100, "duration": 240}, {"note": 71, "velocity": 108, "duration": 720}, {"note": 73, "velocity": 96, "duration": 268}, {"note": 76, "velocity": 94, "duration": 240}, {"note": 78, "velocity": 88, "duration": 240}, {"note": 76, "velocity": 93, "duration": 240}, {"note": 73, "velocity": 93, "duration": 248}, {"note": 71, "velocity": 93, "duration": 780}, {"note": 0, "velocity": 0, "duration": 900}, {"note": 71, "velocity": 96, "duration": 240}, {"note": 73, "velocity": 108, "duration": 720}, {"note": 76, "velocity": 113, "duration": 240}, {"note": 78, "velocity": 98, "duration": 240}, {"note": 81, "velocity": 113, "duration": 240}, {"note": 78, "velocity": 92, "duration": 240}, {"note": 76, "velocity": 89, "duration": 244}, {"note": 78, "velocity": 94, "duration": 240}, {"note": 76, "velocity": 89, "duration": 272}, {"note": 73, "velocity": 94, "duration": 250}, {"note": 71, "velocity": 88, "duration": 243}, {"note": 73, "velocity": 96, "duration": 720}, {"note": 69, "velocity": 103, "duration": 240}, {"note": 71, "velocity": 102, "duration": 479}, {"note": 71, "velocity": 108, "duration": 240}, {"note": 73, "velocity": 104, "duration": 240}, {"note": 71, "velocity": 102, "duration": 240}, {"note": 69, "velocity": 93, "duration": 241}, {"note": 66, "velocity": 91, "duration": 480}, {"note": 64, "velocity": 91, "duration": 1200}, {"note": 0, "velocity": 0, "duration": 480}, {"note": 66, "velocity": 100, "duration": 244}, {"note": 69, "velocity": 106, "duration": 720}, {"note": 71, "velocity": 92, "duration": 240}, {"note": 73, "velocity": 96, "duration": 279}, {"note": 71, "velocity": 91, "duration": 240}, {"note": 73, "velocity": 93, "duration": 261}, {"note": 76, "velocity": 89, "duration": 240}, {"note": 81, "velocity": 116, "duration": 240}, {"note": 80, "velocity": 102, "duration": 240}, {"note": 78, "velocity": 107, "duration": 240}, {"note": 76, "velocity": 110, "duration": 240}, {"note": 78, "velocity": 114, "duration": 480}, {"note": 76, "velocity": 108, "duration": 240}, {"note": 73, "velocity": 102, "duration": 240}, {"note": 71, "velocity": 107, "duration": 479}, {"note": 71, "velocity": 114, "duration": 246}, {"note": 69, "velocity": 113, "duration": 240}, {"note": 66, "velocity": 108, "duration": 480}, {"note": 64, "velocity": 92, "duration": 257}, {"note": 66, "velocity": 91, "duration": 257}, {"note": 69, "velocity": 95, "duration": 840}, {"note": 0, "velocity": 0, "duration": 2520}, {"note": 76, "velocity": 107, "duration": 269}, {"note": 78, "velocity": 113, "duration": 245}, {"note": 81, "velocity": 119, "duration": 720}, {"note": 83, "velocity": 113, "duration": 240}, {"note": 85, "velocity": 113, "duration": 240}, {"note": 83, "velocity": 107, "duration": 240}, {"note": 81, "velocity": 116, "duration": 240}, {"note": 78, "velocity": 108, "duration": 240}, {"note": 81, "velocity": 116, "duration": 1440}, {"note": 76, "velocity": 116, "duration": 240}, {"note": 78, "velocity": 107, "duration": 240}, {"note": 81, "velocity": 116, "duration": 720}, {"note": 85, "velocity": 110, "duration": 240}, {"note": 83, "velocity": 110, "duration": 240}, {"note": 81, "velocity": 106, "duration": 240}, {"note": 78, "velocity": 104, "duration": 240}, {"note": 81, "velocity": 84, "duration": 240}, {"note": 76, "velocity": 102, "duration": 1440}, {"note": 73, "velocity": 113, "duration": 240}, {"note": 76, "velocity": 113, "duration": 240}, {"note": 78, "velocity": 113, "duration": 720}, {"note": 81, "velocity": 116, "duration": 240}, {"note": 83, "velocity": 107, "duration": 240}, {"note": 81, "velocity": 113, "duration": 240}, {"note": 78, "velocity": 113, "duration": 239}, {"note": 78, "velocity": 94, "duration": 240}, {"note": 76, "velocity": 104, "duration": 240}, {"note": 85, "velocity": 110, "duration": 239}, {"note": 85, "velocity": 116, "duration": 240}, {"note": 83, "velocity": 113, "duration": 240}, {"note": 81, "velocity": 113, "duration": 480}, {"note": 78, "velocity": 110, "duration": 240}, {"note": 81, "velocity": 109, "duration": 240}, {"note": 83, "velocity": 114, "duration": 720}, {"note": 76, "velocity": 114, "duration": 240}, {"note": 83, "velocity": 114, "duration": 240}, {"note": 81, "velocity": 113, "duration": 259}, {"note": 78, "velocity": 119, "duration": 240}, {"note": 83, "velocity": 113, "duration": 240}, {"note": 76, "velocity": 110, "duration": 1439}, {"note": 76, "velocity": 107, "duration": 269}, {"note": 78, "velocity": 113, "duration": 245}, {"note": 81, "velocity": 119, "duration": 720}, {"note": 83, "velocity": 113, "duration": 240}, {"note": 85, "velocity": 113, "duration": 240}, {"note": 83, "velocity": 107, "duration": 240}, {"note": 81, "velocity": 116, "duration": 240}, {"note": 78, "velocity": 108, "duration": 240}, {"note": 81, "velocity": 116, "duration": 1440}, {"note": 76, "velocity": 116, "duration": 240}, {"note": 78, "velocity": 107, "duration": 240}, {"note": 81, "velocity": 116, "duration": 720}, {"note": 85, "velocity": 110, "duration": 240}, {"note": 83, "velocity": 110, "duration": 240}, {"note": 81, "velocity": 106, "duration": 240}, {"note": 78, "velocity": 104, "duration": 240}, {"note": 81, "velocity": 84, "duration": 240}, {"note": 76, "velocity": 102, "duration": 1440}, {"note": 73, "velocity": 113, "duration": 240}, {"note": 76, "velocity": 113, "duration": 240}, {"note": 78, "velocity": 113, "duration": 720}, {"note": 81, "velocity": 116, "duration": 240}, {"note": 83, "velocity": 107, "duration": 240}, {"note": 81, "velocity": 113, "duration": 240}, {"note": 78, "velocity": 113, "duration": 239}, {"note": 78, "velocity": 94, "duration": 240}, {"note": 76, "velocity": 104, "duration": 240}, {"note": 85, "velocity": 110, "duration": 239}, {"note": 85, "velocity": 116, "duration": 240}, {"note": 83, "velocity": 113, "duration": 240}, {"note": 81, "velocity": 113, "duration": 480}, {"note": 78, "velocity": 110, "duration": 240}, {"note": 81, "velocity": 109, "duration": 240}, {"note": 83, "velocity": 114, "duration": 479}, {"note": 83, "velocity": 116, "duration": 240}, {"note": 81, "velocity": 109, "duration": 240}, {"note": 78, "velocity": 110, "duration": 240}, {"note": 81, "velocity": 113, "duration": 240}, {"note": 76, "velocity": 107, "duration": 240}, {"note": 78, "velocity": 100, "duration": 240}, {"note": 81, "velocity": 119, "duration": 1440}, {"note": 76, "velocity": 116, "duration": 240}, {"note": 78, "velocity": 114, "duration": 240}, {"note": 83, "velocity": 119, "duration": 479}, {"note": 83, "velocity": 110, "duration": 247}, {"note": 81, "velocity": 104, "duration": 255}, {"note": 78, "velocity": 96, "duration": 359}, {"note": 78, "velocity": 113, "duration": 1680}, {"note": 76, "velocity": 102, "duration": 600}, {"note": 78, "velocity": 110, "duration": 480}, {"note": 81, "velocity": 114, "duration": 868}]]