[[{"note": 77, "velocity": 100, "duration": 49}, {"note": 0, "velocity": 0, "duration": 71}, {"note": 77, "velocity": 96, "duration": 60}, {"note": 77, "velocity": 110, "duration": 169}, {"note": 0, "velocity": 0, "duration": 71}, {"note": 72, "velocity": 107, "duration": 109}, {"note": 0, "velocity": 0, "duration": 131}, {"note": 77, "velocity": 110, "duration": 49}, {"note": 0, "velocity": 0, "duration": 71}, {"note": 77, "velocity": 96, "duration": 49}, {"note": 0, "velocity": 0, "duration": 71}, {"note": 72, "velocity": 100, "duration": 44}, {"note": 0, "velocity": 0, "duration": 196}, {"note": 77, "velocity": 108, "duration": 46}, {"note": 0, "velocity": 0, "duration": 74}, {"note": 77, "velocity": 102, "duration": 49}, {"note": 0, "velocity": 0, "duration": 71}, {"note": 77, "velocity": 100, "duration": 50}, {"note": 0, "velocity": 0, "duration": 70}, {"note": 77, "velocity": 102, "duration": 52}, {"note": 0, "velocity": 0, "duration": 68}, {"note": 77, "velocity": 114, "duration": 110}, {"note": 0, "velocity": 0, "duration": 130}, {"note": 72, "velocity": 96, "duration": 151}, {"note": 0, "velocity": 0, "duration": 89}, {"note": 77, "velocity": 108, "duration": 129}, {"note": 0, "velocity": 0, "duration": 111}, {"note": 77, "velocity": 108, "duration": 123}, {"note": 0, "velocity": 0, "duration": 117}, {"note": 77, "velocity": 110, "duration": 196}, {"note": 72, "velocity": 108, "duration": 142}, {"note": 0, "velocity": 0, "duration": 98}, {"note": 77, "velocity": 108, "duration": 47}, {"note": 0, "velocity": 0, "duration": 73}, {"note": 77, "velocity": 98, "duration": 48}, {"note": 0, "velocity": 0, "duration": 72}, {"note": 77, "velocity": 98, "duration": 47}, {"note": 0, "velocity": 0, "duration": 73}, {"note": 76, "velocity": 107, "duration": 60}, {"note": 77, "velocity": 108, "duration": 127}, {"note": 0, "velocity": 0, "duration": 113}, {"note": 72, "velocity": 110, "duration": 122}, {"note": 0, "velocity": 0, "duration": 358}, {"note": 77, "velocity": 110, "duration": 49}, {"note": 0, "velocity": 0, "duration": 71}, {"note": 77, "velocity": 98, "duration": 72}, {"note": 72, "velocity": 108, "duration": 122}, {"note": 0, "velocity": 0, "duration": 118}, {"note": 77, "velocity": 100, "duration": 50}, {"note": 0, "velocity": 0, "duration": 70}, {"note": 77, "velocity": 94, "duration": 67}, {"note": 76, "velocity": 114, "duration": 174}, {"note": 0, "velocity": 0, "duration": 66}, {"note": 76, "velocity": 114, "duration": 174}, {"note": 0, "velocity": 0, "duration": 66}, {"note": 77, "velocity": 113, "duration": 137}, {"note": 0, "velocity": 0, "duration": 103}, {"note": 76, "velocity": 116, "duration": 153}, {"note": 0, "velocity": 0, "duration": 87}, {"note": 77, "velocity": 108, "duration": 46}, {"note": 0, "velocity": 0, "duration": 74}, {"note": 77, "velocity": 100, "duration": 73}, {"note": 72, "velocity": 108, "duration": 105}, {"note": 0, "velocity": 0, "duration": 135}, {"note": 77, "velocity": 108, "duration": 47}, {"note": 0, "velocity": 0, "duration": 73}, {"note": 77, "velocity": 100, "duration": 48}, {"note": 0, "velocity": 0, "duration": 72}, {"note": 77, "velocity": 98, "duration": 47}, {"note": 0, "velocity": 0, "duration": 73}, {"note": 77, "velocity": 98, "duration": 45}, {"note": 0, "velocity": 0, "duration": 75}, {"note": 77, "velocity": 110, "duration": 142}, {"note": 0, "velocity": 0, "duration": 98}, {"note": 72, "velocity": 113, "duration": 85}, {"note": 0, "velocity": 0, "duration": 155}, {"note": 77, "velocity": 108, "duration": 193}, {"note": 72, "velocity": 107, "duration": 103}, {"note": 0, "velocity": 0, "duration": 257}, {"note": 77, "velocity": 91, "duration": 54}, {"note": 0, "velocity": 0, "duration": 66}, {"note": 77, "velocity": 94, "duration": 55}, {"note": 0, "velocity": 0, "duration": 65}, {"note": 77, "velocity": 90, "duration": 54}, {"note": 0, "velocity": 0, "duration": 66}, {"note": 77, "velocity": 96, "duration": 54}, {"note": 0, "velocity": 0, "duration": 66}, {"note": 77, "velocity": 91, "duration": 49}, {"note": 0, "velocity": 0, "duration": 71}, {"note": 77, "velocity": 91, "duration": 49}, {"note": 0, "velocity": 0, "duration": 71}, {"note": 77, "velocity": 96, "duration": 52}, {"note": 0, "velocity": 0, "duration": 68}, {"note": 77, "velocity": 116, "duration": 91}, {"note": 0, "velocity": 0, "duration": 149}, {"note": 72, "velocity": 104, "duration": 155}, {"note": 0, "velocity": 0, "duration": 85}, {"note": 77, "velocity": 93, "duration": 53}, {"note": 0, "velocity": 0, "duration": 67}, {"note": 77, "velocity": 93, "duration": 52}, {"note": 0, "velocity": 0, "duration": 68}, {"note": 77, "velocity": 91, "duration": 50}, {"note": 0, "velocity": 0, "duration": 70}, {"note": 77, "velocity": 91, "duration": 111}, {"note": 77, "velocity": 110, "duration": 98}, {"note": 0, "velocity": 0, "duration": 142}, {"note": 72, "velocity": 107, "duration": 159}, {"note": 0, "velocity": 0, "duration": 81}, {"note": 77, "velocity": 102, "duration": 48}, {"note": 0, "velocity": 0, "duration": 72}, {"note": 77, "velocity": 93, "duration": 50}, {"note": 0, "velocity": 0, "duration": 70}, {"note": 77, "velocity": 89, "duration": 53}, {"note": 0, "velocity": 0, "duration": 67}, {"note": 77, "velocity": 92, "duration": 70}, {"note": 77, "velocity": 108, "duration": 111}, {"note": 77, "velocity": 94, "duration": 104}, {"note": 72, "velocity": 102, "duration": 113}, {"note": 0, "velocity": 0, "duration": 127}, {"note": 77, "velocity": 104, "duration": 207}, {"note": 72, "velocity": 108, "duration": 140}, {"note": 0, "velocity": 0, "duration": 220}, {"note": 77, "velocity": 100, "duration": 51}, {"note": 0, "velocity": 0, "duration": 69}, {"note": 77, "velocity": 100, "duration": 51}, {"note": 0, "velocity": 0, "duration": 69}, {"note": 77, "velocity": 98, "duration": 52}, {"note": 0, "velocity": 0, "duration": 68}, {"note": 77, "velocity": 116, "duration": 82}, {"note": 77, "velocity": 100, "duration": 55}, {"note": 0, "velocity": 0, "duration": 65}, {"note": 77, "velocity": 91, "duration": 48}, {"note": 0, "velocity": 0, "duration": 72}, {"note": 77, "velocity": 93, "duration": 55}, {"note": 0, "velocity": 0, "duration": 65}, {"note": 77, "velocity": 116, "duration": 78}, {"note": 77, "velocity": 88, "duration": 48}, {"note": 0, "velocity": 0, "duration": 72}, {"note": 77, "velocity": 90, "duration": 48}, {"note": 0, "velocity": 0, "duration": 72}, {"note": 77, "velocity": 88, "duration": 54}, {"note": 0, "velocity": 0, "duration": 66}, {"note": 77, "velocity": 88, "duration": 52}, {"note": 0, "velocity": 0, "duration": 68}, {"note": 77, "velocity": 88, "duration": 57}, {"note": 0, "velocity": 0, "duration": 63}, {"note": 77, "velocity": 107, "duration": 92}, {"note": 79, "velocity": 108, "duration": 76}, {"note": 79, "velocity": 107, "duration": 75}, {"note": 0, "velocity": 0, "duration": 165}, {"note": 77, "velocity": 107, "duration": 138}, {"note": 0, "velocity": 0, "duration": 1302}, {"note": 72, "velocity": 116, "duration": 134}, {"note": 0, "velocity": 0, "duration": 106}, {"note": 72, "velocity": 110, "duration": 135}, {"note": 0, "velocity": 0, "duration": 105}, {"note": 77, "velocity": 108, "duration": 45}, {"note": 0, "velocity": 0, "duration": 75}, {"note": 77, "velocity": 98, "duration": 49}, {"note": 0, "velocity": 0, "duration": 71}, {"note": 77, "velocity": 90, "duration": 48}, {"note": 0, "velocity": 0, "duration": 72}, {"note": 77, "velocity": 90, "duration": 51}, {"note": 0, "velocity": 0, "duration": 69}, {"note": 72, "velocity": 88, "duration": 49}, {"note": 0, "velocity": 0, "duration": 191}, {"note": 77, "velocity": 113, "duration": 48}, {"note": 0, "velocity": 0, "duration": 72}, {"note": 77, "velocity": 104, "duration": 55}, {"note": 0, "velocity": 0, "duration": 65}, {"note": 72, "velocity": 104, "duration": 51}, {"note": 0, "velocity": 0, "duration": 69}, {"note": 72, "velocity": 94, "duration": 72}, {"note": 77, "velocity": 117, "duration": 109}, {"note": 0, "velocity": 0, "duration": 131}, {"note": 72, "velocity": 104, "duration": 110}, {"note": 72, "velocity": 107, "duration": 137}, {"note": 72, "velocity": 102, "duration": 17}, {"note": 0, "velocity": 0, "duration": 223}, {"note": 77, "velocity": 107, "duration": 39}, {"note": 0, "velocity": 0, "duration": 81}, {"note": 77, "velocity": 100, "duration": 45}, {"note": 0, "velocity": 0, "duration": 75}, {"note": 77, "velocity": 96, "duration": 47}, {"note": 0, "velocity": 0, "duration": 73}, {"note": 77, "velocity": 102, "duration": 75}, {"note": 72, "velocity": 113, "duration": 91}, {"note": 0, "velocity": 0, "duration": 149}, {"note": 77, "velocity": 94, "duration": 72}, {"note": 72, "velocity": 94, "duration": 59}, {"note": 0, "velocity": 0, "duration": 61}, {"note": 72, "velocity": 88, "duration": 47}, {"note": 0, "velocity": 0, "duration": 73}, {"note": 72, "velocity": 88, "duration": 73}, {"note": 77, "velocity": 113, "duration": 127}, {"note": 0, "velocity": 0, "duration": 113}, {"note": 77, "velocity": 104, "duration": 44}, {"note": 0, "velocity": 0, "duration": 76}, {"note": 77, "velocity": 94, "duration": 49}, {"note": 0, "velocity": 0, "duration": 71}, {"note": 77, "velocity": 113, "duration": 136}, {"note": 0, "velocity": 0, "duration": 104}, {"note": 77, "velocity": 108, "duration": 49}, {"note": 0, "velocity": 0, "duration": 71}, {"note": 77, "velocity": 100, "duration": 54}, {"note": 0, "velocity": 0, "duration": 66}, {"note": 77, "velocity": 110, "duration": 94}, {"note": 77, "velocity": 91, "duration": 54}, {"note": 0, "velocity": 0, "duration": 66}, {"note": 77, "velocity": 94, "duration": 54}, {"note": 0, "velocity": 0, "duration": 66}, {"note": 77, "velocity": 98, "duration": 60}, {"note": 77, "velocity": 113, "duration": 89}, {"note": 77, "velocity": 113, "duration": 89}, {"note": 77, "velocity": 91, "duration": 50}, {"note": 0, "velocity": 0, "duration": 70}, {"note": 77, "velocity": 90, "duration": 49}, {"note": 0, "velocity": 0, "duration": 71}, {"note": 77, "velocity": 89, "duration": 50}, {"note": 0, "velocity": 0, "duration": 70}, {"note": 77, "velocity": 87, "duration": 49}, {"note": 0, "velocity": 0, "duration": 71}, {"note": 77, "velocity": 89, "duration": 117}, {"note": 0, "velocity": 0, "duration": 123}, {"note": 72, "velocity": 94, "duration": 121}, {"note": 0, "velocity": 0, "duration": 119}, {"note": 77, "velocity": 104, "duration": 52}, {"note": 0, "velocity": 0, "duration": 68}, {"note": 77, "velocity": 100, "duration": 54}, {"note": 0, "velocity": 0, "duration": 66}, {"note": 77, "velocity": 96, "duration": 55}, {"note": 0, "velocity": 0, "duration": 65}, {"note": 77, "velocity": 90, "duration": 52}, {"note": 0, "velocity": 0, "duration": 68}, {"note": 77, "velocity": 94, "duration": 54}, {"note": 0, "velocity": 0, "duration": 66}, {"note": 77, "velocity": 93, "duration": 58}, {"note": 0, "velocity": 0, "duration": 62}, {"note": 77, "velocity": 96, "duration": 49}, {"note": 0, "velocity": 0, "duration": 71}, {"note": 77, "velocity": 90, "duration": 50}, {"note": 0, "velocity": 0, "duration": 70}, {"note": 72, "velocity": 91, "duration": 49}, {"note": 0, "velocity": 0, "duration": 71}, {"note": 72, "velocity": 89, "duration": 71}, {"note": 77, "velocity": 90, "duration": 50}, {"note": 0, "velocity": 0, "duration": 190}, {"note": 77, "velocity": 110, "duration": 91}, {"note": 0, "velocity": 0, "duration": 149}, {"note": 77, "velocity": 110, "duration": 91}, {"note": 0, "velocity": 0, "duration": 149}, {"note": 80, "velocity": 103, "duration": 45}, {"note": 0, "velocity": 0, "duration": 75}, {"note": 80, "velocity": 97, "duration": 54}, {"note": 0, "velocity": 0, "duration": 66}, {"note": 77, "velocity": 91, "duration": 62}, {"note": 77, "velocity": 91, "duration": 66}, {"note": 77, "velocity": 109, "duration": 44}, {"note": 0, "velocity": 0, "duration": 76}, {"note": 77, "velocity": 90, "duration": 64}, {"note": 77, "velocity": 108, "duration": 83}, {"note": 0, "velocity": 0, "duration": 157}, {"note": 80, "velocity": 109, "duration": 130}, {"note": 0, "velocity": 0, "duration": 110}, {"note": 77, "velocity": 98, "duration": 64}, {"note": 77, "velocity": 89, "duration": 54}, {"note": 0, "velocity": 0, "duration": 66}, {"note": 77, "velocity": 90, "duration": 83}, {"note": 80, "velocity": 116, "duration": 137}, {"note": 0, "velocity": 0, "duration": 103}, {"note": 77, "velocity": 108, "duration": 69}, {"note": 77, "velocity": 91, "duration": 61}, {"note": 77, "velocity": 91, "duration": 59}, {"note": 0, "velocity": 0, "duration": 61}, {"note": 77, "velocity": 114, "duration": 87}, {"note": 77, "velocity": 96, "duration": 96}, {"note": 72, "velocity": 104, "duration": 85}, {"note": 0, "velocity": 0, "duration": 155}, {"note": 77, "velocity": 92, "duration": 67}, {"note": 75, "velocity": 87, "duration": 86}, {"note": 77, "velocity": 74, "duration": 60}, {"note": 75, "velocity": 100, "duration": 91}, {"note": 77, "velocity": 78, "duration": 70}, {"note": 75, "velocity": 97, "duration": 71}, {"note": 77, "velocity": 113, "duration": 176}, {"note": 0, "velocity": 0, "duration": 64}, {"note": 72, "velocity": 113, "duration": 166}, {"note": 0, "velocity": 0, "duration": 74}, {"note": 75, "velocity": 116, "duration": 173}, {"note": 0, "velocity": 0, "duration": 67}, {"note": 77, "velocity": 108, "duration": 46}, {"note": 0, "velocity": 0, "duration": 74}, {"note": 77, "velocity": 91, "duration": 50}, {"note": 0, "velocity": 0, "duration": 70}, {"note": 72, "velocity": 91, "duration": 47}, {"note": 0, "velocity": 0, "duration": 73}, {"note": 72, "velocity": 88, "duration": 68}, {"note": 77, "velocity": 100, "duration": 73}, {"note": 0, "velocity": 0, "duration": 167}, {"note": 77, "velocity": 113, "duration": 48}, {"note": 0, "velocity": 0, "duration": 72}, {"note": 77, "velocity": 102, "duration": 51}, {"note": 0, "velocity": 0, "duration": 69}, {"note": 77, "velocity": 104, "duration": 58}, {"note": 0, "velocity": 0, "duration": 62}, {"note": 77, "velocity": 100, "duration": 65}, {"note": 72, "velocity": 102, "duration": 55}, {"note": 0, "velocity": 0, "duration": 65}, {"note": 72, "velocity": 104, "duration": 71}, {"note": 77, "velocity": 119, "duration": 118}, {"note": 0, "velocity": 0, "duration": 122}, {"note": 77, "velocity": 113, "duration": 51}, {"note": 0, "velocity": 0, "duration": 69}, {"note": 77, "velocity": 113, "duration": 51}, {"note": 0, "velocity": 0, "duration": 69}, {"note": 72, "velocity": 98, "duration": 49}, {"note": 0, "velocity": 0, "duration": 71}, {"note": 72, "velocity": 98, "duration": 58}, {"note": 0, "velocity": 0, "duration": 62}, {"note": 77, "velocity": 114, "duration": 95}, {"note": 0, "velocity": 0, "duration": 145}, {"note": 77, "velocity": 119, "duration": 93}, {"note": 0, "velocity": 0, "duration": 867}, {"note": 77, "velocity": 110, "duration": 154}, {"note": 79, "velocity": 108, "duration": 81}, {"note": 80, "velocity": 116, "duration": 140}, {"note": 0, "velocity": 0, "duration": 100}, {"note": 80, "velocity": 116, "duration": 112}, {"note": 80, "velocity": 113, "duration": 113}, {"note": 0, "velocity": 0, "duration": 127}, {"note": 80, "velocity": 119, "duration": 123}, {"note": 0, "velocity": 0, "duration": 237}, {"note": 79, "velocity": 114, "duration": 119}, {"note": 0, "velocity": 0, "duration": 121}, {"note": 84, "velocity": 108, "duration": 45}, {"note": 0, "velocity": 0, "duration": 75}, {"note": 84, "velocity": 116, "duration": 80}, {"note": 0, "velocity": 0, "duration": 520}, {"note": 89, "velocity": 116, "duration": 131}, {"note": 0, "velocity": 0, "duration": 109}, {"note": 89, "velocity": 113, "duration": 57}, {"note": 0, "velocity": 0, "duration": 63}, {"note": 89, "velocity": 114, "duration": 175}, {"note": 0, "velocity": 0, "duration": 65}, {"note": 87, "velocity": 116, "duration": 142}, {"note": 0, "velocity": 0, "duration": 97}, {"note": 85, "velocity": 109, "duration": 62}, {"note": 87, "velocity": 119, "duration": 114}, {"note": 0, "velocity": 0, "duration": 126}, {"note": 80, "velocity": 116, "duration": 56}, {"note": 0, "velocity": 0, "duration": 64}, {"note": 80, "velocity": 119, "duration": 112}, {"note": 0, "velocity": 0, "duration": 488}, {"note": 85, "velocity": 116, "duration": 138}, {"note": 0, "velocity": 0, "duration": 102}, {"note": 85, "velocity": 106, "duration": 44}, {"note": 0, "velocity": 0, "duration": 76}, {"note": 85, "velocity": 109, "duration": 130}, {"note": 0, "velocity": 0, "duration": 110}, {"note": 87, "velocity": 119, "duration": 171}, {"note": 0, "velocity": 0, "duration": 189}, {"note": 82, "velocity": 119, "duration": 187}, {"note": 80, "velocity": 103, "duration": 61}, {"note": 84, "velocity": 108, "duration": 144}, {"note": 0, "velocity": 0, "duration": 96}, {"note": 82, "velocity": 109, "duration": 197}, {"note": 0, "velocity": 0, "duration": 163}, {"note": 82, "velocity": 119, "duration": 211}, {"note": 80, "velocity": 95, "duration": 64}, {"note": 79, "velocity": 102, "duration": 182}, {"note": 80, "velocity": 109, "duration": 225}, {"note": 0, "velocity": 0, "duration": 135}, {"note": 80, "velocity": 114, "duration": 212}, {"note": 0, "velocity": 0, "duration": 268}, {"note": 79, "velocity": 116, "duration": 159}, {"note": 0, "velocity": 0, "duration": 321}, {"note": 80, "velocity": 116, "duration": 140}, {"note": 0, "velocity": 0, "duration": 100}, {"note": 80, "velocity": 116, "duration": 112}, {"note": 80, "velocity": 113, "duration": 113}, {"note": 0, "velocity": 0, "duration": 127}, {"note": 80, "velocity": 119, "duration": 123}, {"note": 0, "velocity": 0, "duration": 237}, {"note": 79, "velocity": 114, "duration": 119}, {"note": 0, "velocity": 0, "duration": 121}, {"note": 84, "velocity": 108, "duration": 45}, {"note": 0, "velocity": 0, "duration": 75}, {"note": 84, "velocity": 116, "duration": 80}, {"note": 0, "velocity": 0, "duration": 520}, {"note": 89, "velocity": 116, "duration": 131}, {"note": 0, "velocity": 0, "duration": 109}, {"note": 89, "velocity": 113, "duration": 57}, {"note": 0, "velocity": 0, "duration": 63}, {"note": 89, "velocity": 114, "duration": 175}, {"note": 0, "velocity": 0, "duration": 65}, {"note": 87, "velocity": 116, "duration": 142}, {"note": 0, "velocity": 0, "duration": 98}, {"note": 85, "velocity": 109, "duration": 62}, {"note": 87, "velocity": 119, "duration": 114}, {"note": 0, "velocity": 0, "duration": 126}, {"note": 80, "velocity": 116, "duration": 56}, {"note": 0, "velocity": 0, "duration": 64}, {"note": 80, "velocity": 119, "duration": 112}, {"note": 0, "velocity": 0, "duration": 488}, {"note": 85, "velocity": 116, "duration": 138}, {"note": 0, "velocity": 0, "duration": 102}, {"note": 85, "velocity": 106, "duration": 44}, {"note": 0, "velocity": 0, "duration": 76}, {"note": 85, "velocity": 109, "duration": 130}, {"note": 0, "velocity": 0, "duration": 110}, {"note": 85, "velocity": 119, "duration": 171}, {"note": 0, "velocity": 0, "duration": 189}, {"note": 84, "velocity": 119, "duration": 191}, {"note": 82, "velocity": 97, "duration": 98}, {"note": 80, "velocity": 113, "duration": 120}, {"note": 79, "velocity": 97, "duration": 120}, {"note": 80, "velocity": 119, "duration": 180}, {"note": 0, "velocity": 0, "duration": 180}, {"note": 77, "velocity": 116, "duration": 280}, {"note": 0, "velocity": 0, "duration": 680}, {"note": 77, "velocity": 110, "duration": 154}, {"note": 0, "velocity": 0, "duration": 326}, {"note": 79, "velocity": 108, "duration": 81}, {"note": 0, "velocity": 0, "duration": 399}, {"note": 80, "velocity": 116, "duration": 190}, {"note": 80, "velocity": 116, "duration": 162}, {"note": 80, "velocity": 113, "duration": 42}, {"note": 0, "velocity": 0, "duration": 198}, {"note": 80, "velocity": 119, "duration": 174}, {"note": 0, "velocity": 0, "duration": 186}, {"note": 79, "velocity": 114, "duration": 169}, {"note": 0, "velocity": 0, "duration": 71}, {"note": 84, "velocity": 108, "duration": 96}, {"note": 84, "velocity": 116, "duration": 130}, {"note": 0, "velocity": 0, "duration": 470}, {"note": 89, "velocity": 116, "duration": 181}, {"note": 89, "velocity": 113, "duration": 108}, {"note": 89, "velocity": 114, "duration": 226}, {"note": 87, "velocity": 116, "duration": 192}, {"note": 85, "velocity": 109, "duration": 113}, {"note": 87, "velocity": 119, "duration": 164}, {"note": 0, "velocity": 0, "duration": 76}, {"note": 80, "velocity": 116, "duration": 107}, {"note": 80, "velocity": 119, "duration": 162}, {"note": 0, "velocity": 0, "duration": 438}, {"note": 85, "velocity": 116, "duration": 189}, {"note": 85, "velocity": 106, "duration": 94}, {"note": 85, "velocity": 109, "duration": 181}, {"note": 87, "velocity": 119, "duration": 222}, {"note": 0, "velocity": 0, "duration": 138}, {"note": 82, "velocity": 119, "duration": 237}, {"note": 80, "velocity": 103, "duration": 111}, {"note": 84, "velocity": 108, "duration": 195}, {"note": 82, "velocity": 109, "duration": 248}, {"note": 0, "velocity": 0, "duration": 112}, {"note": 82, "velocity": 119, "duration": 261}, {"note": 80, "velocity": 95, "duration": 114}, {"note": 79, "velocity": 102, "duration": 232}, {"note": 80, "velocity": 109, "duration": 275}, {"note": 0, "velocity": 0, "duration": 85}, {"note": 80, "velocity": 114, "duration": 263}, {"note": 0, "velocity": 0, "duration": 217}, {"note": 79, "velocity": 116, "duration": 210}, {"note": 0, "velocity": 0, "duration": 270}, {"note": 80, "velocity": 116, "duration": 190}, {"note": 80, "velocity": 116, "duration": 162}, {"note": 80, "velocity": 113, "duration": 42}, {"note": 0, "velocity": 0, "duration": 198}, {"note": 80, "velocity": 119, "duration": 174}, {"note": 0, "velocity": 0, "duration": 186}, {"note": 79, "velocity": 114, "duration": 169}, {"note": 0, "velocity": 0, "duration": 71}, {"note": 84, "velocity": 108, "duration": 96}, {"note": 84, "velocity": 116, "duration": 130}, {"note": 0, "velocity": 0, "duration": 470}, {"note": 89, "velocity": 116, "duration": 181}, {"note": 89, "velocity": 113, "duration": 108}, {"note": 89, "velocity": 114, "duration": 226}, {"note": 87, "velocity": 116, "duration": 192}, {"note": 85, "velocity": 109, "duration": 113}, {"note": 87, "velocity": 119, "duration": 164}, {"note": 0, "velocity": 0, "duration": 76}, {"note": 80, "velocity": 116, "duration": 107}, {"note": 80, "velocity": 119, "duration": 162}, {"note": 0, "velocity": 0, "duration": 438}, {"note": 85, "velocity": 116, "duration": 189}, {"note": 85, "velocity": 106, "duration": 94}, {"note": 85, "velocity": 109, "duration": 181}, {"note": 85, "velocity": 119, "duration": 222}, {"note": 0, "velocity": 0, "duration": 138}, {"note": 84, "velocity": 119, "duration": 241}, {"note": 82, "velocity": 97, "duration": 149}, {"note": 80, "velocity": 113, "duration": 180}, {"note": 79, "velocity": 97, "duration": 120}, {"note": 80, "velocity": 119, "duration": 300}, {"note": 77, "velocity": 116, "duration": 330}, {"note": 0, "velocity": 0, "duration": 16710}, {"note": 77, "velocity": 110, "duration": 120}, {"note": 75, "velocity": 97, "duration": 96}, {"note": 77, "velocity": 107, "duration": 150}, {"note": 0, "velocity": 0, "duration": 90}, {"note": 77, "velocity": 113, "duration": 116}, {"note": 0, "velocity": 0, "duration": 124}, {"note": 77, "velocity": 108, "duration": 51}, {"note": 0, "velocity": 0, "duration": 69}, {"note": 77, "velocity": 102, "duration": 78}, {"note": 75, "velocity": 113, "duration": 103}, {"note": 0, "velocity": 0, "duration": 137}, {"note": 75, "velocity": 107, "duration": 60}, {"note": 75, "velocity": 89, "duration": 107}, {"note": 77, "velocity": 84, "duration": 126}, {"note": 75, "velocity": 86, "duration": 103}, {"note": 77, "velocity": 94, "duration": 103}, {"note": 0, "velocity": 0, "duration": 137}, {"note": 75, "velocity": 93, "duration": 116}, {"note": 0, "velocity": 0, "duration": 124}, {"note": 77, "velocity": 108, "duration": 77}, {"note": 0, "velocity": 0, "duration": 163}, {"note": 75, "velocity": 102, "duration": 52}, {"note": 0, "velocity": 0, "duration": 68}, {"note": 77, "velocity": 93, "duration": 88}, {"note": 75, "velocity": 116, "duration": 118}, {"note": 0, "velocity": 0, "duration": 122}, {"note": 77, "velocity": 110, "duration": 93}, {"note": 0, "velocity": 0, "duration": 147}, {"note": 77, "velocity": 110, "duration": 51}, {"note": 0, "velocity": 0, "duration": 69}, {"note": 75, "velocity": 90, "duration": 58}, {"note": 0, "velocity": 0, "duration": 62}, {"note": 77, "velocity": 113, "duration": 92}, {"note": 75, "velocity": 87, "duration": 110}, {"note": 77, "velocity": 107, "duration": 161}, {"note": 0, "velocity": 0, "duration": 79}, {"note": 75, "velocity": 116, "duration": 168}, {"note": 0, "velocity": 0, "duration": 312}, {"note": 77, "velocity": 98, "duration": 51}, {"note": 0, "velocity": 0, "duration": 69}, {"note": 77, "velocity": 90, "duration": 89}, {"note": 72, "velocity": 104, "duration": 114}, {"note": 0, "velocity": 0, "duration": 126}, {"note": 77, "velocity": 102, "duration": 49}, {"note": 0, "velocity": 0, "duration": 71}, {"note": 77, "velocity": 94, "duration": 52}, {"note": 0, "velocity": 0, "duration": 68}, {"note": 77, "velocity": 110, "duration": 112}, {"note": 0, "velocity": 0, "duration": 128}, {"note": 72, "velocity": 114, "duration": 140}, {"note": 0, "velocity": 0, "duration": 100}, {"note": 77, "velocity": 113, "duration": 202}, {"note": 72, "velocity": 108, "duration": 138}, {"note": 0, "velocity": 0, "duration": 102}, {"note": 77, "velocity": 110, "duration": 46}, {"note": 0, "velocity": 0, "duration": 74}, {"note": 77, "velocity": 96, "duration": 75}, {"note": 72, "velocity": 108, "duration": 127}, {"note": 0, "velocity": 0, "duration": 113}, {"note": 77, "velocity": 108, "duration": 47}, {"note": 0, "velocity": 0, "duration": 73}, {"note": 77, "velocity": 94, "duration": 48}, {"note": 0, "velocity": 0, "duration": 72}, {"note": 77, "velocity": 93, "duration": 54}, {"note": 0, "velocity": 0, "duration": 66}, {"note": 77, "velocity": 108, "duration": 60}, {"note": 77, "velocity": 110, "duration": 57}, {"note": 0, "velocity": 0, "duration": 183}, {"note": 72, "velocity": 104, "duration": 174}, {"note": 0, "velocity": 0, "duration": 66}, {"note": 77, "velocity": 113, "duration": 184}, {"note": 72, "velocity": 104, "duration": 159}, {"note": 0, "velocity": 0, "duration": 201}, {"note": 77, "velocity": 94, "duration": 54}, {"note": 0, "velocity": 0, "duration": 66}, {"note": 77, "velocity": 94, "duration": 52}, {"note": 0, "velocity": 0, "duration": 68}, {"note": 77, "velocity": 91, "duration": 58}, {"note": 0, "velocity": 0, "duration": 62}, {"note": 77, "velocity": 98, "duration": 55}, {"note": 0, "velocity": 0, "duration": 65}, {"note": 77, "velocity": 96, "duration": 57}, {"note": 0, "velocity": 0, "duration": 63}, {"note": 77, "velocity": 90, "duration": 55}, {"note": 0, "velocity": 0, "duration": 65}, {"note": 77, "velocity": 91, "duration": 52}, {"note": 0, "velocity": 0, "duration": 68}, {"note": 77, "velocity": 94, "duration": 54}, {"note": 0, "velocity": 0, "duration": 186}, {"note": 72, "velocity": 89, "duration": 48}, {"note": 0, "velocity": 0, "duration": 192}, {"note": 77, "velocity": 110, "duration": 52}, {"note": 0, "velocity": 0, "duration": 68}, {"note": 77, "velocity": 92, "duration": 51}, {"note": 0, "velocity": 0, "duration": 69}, {"note": 77, "velocity": 93, "duration": 51}, {"note": 0, "velocity": 0, "duration": 69}, {"note": 77, "velocity": 96, "duration": 53}, {"note": 0, "velocity": 0, "duration": 67}, {"note": 77, "velocity": 116, "duration": 103}, {"note": 0, "velocity": 0, "duration": 137}, {"note": 72, "velocity": 113, "duration": 155}, {"note": 0, "velocity": 0, "duration": 85}, {"note": 77, "velocity": 107, "duration": 42}, {"note": 0, "velocity": 0, "duration": 78}, {"note": 77, "velocity": 100, "duration": 46}, {"note": 0, "velocity": 0, "duration": 74}, {"note": 77, "velocity": 94, "duration": 45}, {"note": 0, "velocity": 0, "duration": 75}, {"note": 77, "velocity": 91, "duration": 49}, {"note": 0, "velocity": 0, "duration": 71}, {"note": 77, "velocity": 113, "duration": 91}, {"note": 77, "velocity": 91, "duration": 58}, {"note": 0, "velocity": 0, "duration": 62}, {"note": 72, "velocity": 110, "duration": 138}, {"note": 0, "velocity": 0, "duration": 102}, {"note": 77, "velocity": 100, "duration": 216}, {"note": 72, "velocity": 113, "duration": 162}, {"note": 0, "velocity": 0, "duration": 198}, {"note": 77, "velocity": 102, "duration": 49}, {"note": 0, "velocity": 0, "duration": 71}, {"note": 77, "velocity": 93, "duration": 49}, {"note": 0, "velocity": 0, "duration": 71}, {"note": 77, "velocity": 94, "duration": 59}, {"note": 0, "velocity": 0, "duration": 61}, {"note": 77, "velocity": 116, "duration": 129}, {"note": 77, "velocity": 90, "duration": 9}, {"note": 0, "velocity": 0, "duration": 111}, {"note": 77, "velocity": 92, "duration": 55}, {"note": 0, "velocity": 0, "duration": 65}, {"note": 77, "velocity": 92, "duration": 60}, {"note": 77, "velocity": 116, "duration": 113}, {"note": 77, "velocity": 91, "duration": 54}, {"note": 0, "velocity": 0, "duration": 66}, {"note": 77, "velocity": 93, "duration": 59}, {"note": 0, "velocity": 0, "duration": 61}, {"note": 77, "velocity": 93, "duration": 61}, {"note": 77, "velocity": 110, "duration": 95}, {"note": 77, "velocity": 90, "duration": 56}, {"note": 0, "velocity": 0, "duration": 64}, {"note": 77, "velocity": 96, "duration": 55}, {"note": 0, "velocity": 0, "duration": 65}, {"note": 79, "velocity": 113, "duration": 40}, {"note": 0, "velocity": 0, "duration": 80}, {"note": 79, "velocity": 108, "duration": 149}, {"note": 0, "velocity": 0, "duration": 91}, {"note": 77, "velocity": 114, "duration": 157}, {"note": 0, "velocity": 0, "duration": 1283}, {"note": 77, "velocity": 110, "duration": 154}, {"note": 79, "velocity": 108, "duration": 81}, {"note": 80, "velocity": 116, "duration": 140}, {"note": 0, "velocity": 0, "duration": 100}, {"note": 80, "velocity": 116, "duration": 112}, {"note": 80, "velocity": 113, "duration": 113}, {"note": 0, "velocity": 0, "duration": 127}, {"note": 80, "velocity": 119, "duration": 123}, {"note": 0, "velocity": 0, "duration": 237}, {"note": 79, "velocity": 114, "duration": 119}, {"note": 0, "velocity": 0, "duration": 121}, {"note": 84, "velocity": 108, "duration": 45}, {"note": 0, "velocity": 0, "duration": 75}, {"note": 84, "velocity": 116, "duration": 80}, {"note": 0, "velocity": 0, "duration": 520}, {"note": 89, "velocity": 116, "duration": 131}, {"note": 0, "velocity": 0, "duration": 109}, {"note": 89, "velocity": 113, "duration": 57}, {"note": 0, "velocity": 0, "duration": 63}, {"note": 89, "velocity": 114, "duration": 175}, {"note": 0, "velocity": 0, "duration": 65}, {"note": 87, "velocity": 116, "duration": 142}, {"note": 0, "velocity": 0, "duration": 98}, {"note": 85, "velocity": 109, "duration": 62}, {"note": 87, "velocity": 119, "duration": 114}, {"note": 0, "velocity": 0, "duration": 126}, {"note": 80, "velocity": 116, "duration": 56}, {"note": 0, "velocity": 0, "duration": 64}, {"note": 80, "velocity": 119, "duration": 112}, {"note": 0, "velocity": 0, "duration": 488}, {"note": 85, "velocity": 116, "duration": 138}, {"note": 0, "velocity": 0, "duration": 102}, {"note": 85, "velocity": 106, "duration": 44}, {"note": 0, "velocity": 0, "duration": 76}, {"note": 85, "velocity": 109, "duration": 130}, {"note": 0, "velocity": 0, "duration": 110}, {"note": 87, "velocity": 119, "duration": 171}, {"note": 0, "velocity": 0, "duration": 189}, {"note": 82, "velocity": 119, "duration": 187}, {"note": 80, "velocity": 103, "duration": 61}, {"note": 84, "velocity": 108, "duration": 144}, {"note": 0, "velocity": 0, "duration": 96}, {"note": 82, "velocity": 109, "duration": 197}, {"note": 0, "velocity": 0, "duration": 163}, {"note": 82, "velocity": 119, "duration": 211}, {"note": 80, "velocity": 95, "duration": 64}, {"note": 79, "velocity": 102, "duration": 182}, {"note": 80, "velocity": 109, "duration": 240}, {"note": 0, "velocity": 0, "duration": 120}, {"note": 80, "velocity": 114, "duration": 212}, {"note": 0, "velocity": 0, "duration": 268}, {"note": 79, "velocity": 116, "duration": 159}, {"note": 0, "velocity": 0, "duration": 321}, {"note": 80, "velocity": 116, "duration": 140}, {"note": 0, "velocity": 0, "duration": 100}, {"note": 80, "velocity": 116, "duration": 112}, {"note": 80, "velocity": 113, "duration": 113}, {"note": 0, "velocity": 0, "duration": 127}, {"note": 80, "velocity": 119, "duration": 123}, {"note": 0, "velocity": 0, "duration": 237}, {"note": 79, "velocity": 114, "duration": 119}, {"note": 0, "velocity": 0, "duration": 121}, {"note": 84, "velocity": 108, "duration": 45}, {"note": 0, "velocity": 0, "duration": 75}, {"note": 84, "velocity": 116, "duration": 80}, {"note": 0, "velocity": 0, "duration": 520}, {"note": 89, "velocity": 116, "duration": 131}, {"note": 0, "velocity": 0, "duration": 109}, {"note": 89, "velocity": 113, "duration": 57}, {"note": 0, "velocity": 0, "duration": 63}, {"note": 89, "velocity": 114, "duration": 175}, {"note": 0, "velocity": 0, "duration": 65}, {"note": 87, "velocity": 116, "duration": 142}, {"note": 0, "velocity": 0, "duration": 98}, {"note": 85, "velocity": 109, "duration": 62}, {"note": 87, "velocity": 119, "duration": 114}, {"note": 0, "velocity": 0, "duration": 126}, {"note": 80, "velocity": 116, "duration": 56}, {"note": 0, "velocity": 0, "duration": 64}, {"note": 80, "velocity": 119, "duration": 112}, {"note": 0, "velocity": 0, "duration": 488}, {"note": 85, "velocity": 116, "duration": 138}, {"note": 0, "velocity": 0, "duration": 102}, {"note": 85, "velocity": 106, "duration": 44}, {"note": 0, "velocity": 0, "duration": 76}, {"note": 85, "velocity": 109, "duration": 130}, {"note": 0, "velocity": 0, "duration": 110}, {"note": 85, "velocity": 119, "duration": 171}, {"note": 0, "velocity": 0, "duration": 189}, {"note": 82, "velocity": 119, "duration": 191}, {"note": 80, "velocity": 97, "duration": 98}, {"note": 79, "velocity": 113, "duration": 199}, {"note": 80, "velocity": 119, "duration": 249}, {"note": 0, "velocity": 0, "duration": 111}, {"note": 77, "velocity": 116, "duration": 280}, {"note": 0, "velocity": 0, "duration": 680}, {"note": 77, "velocity": 110, "duration": 154}, {"note": 0, "velocity": 0, "duration": 326}, {"note": 79, "velocity": 108, "duration": 81}, {"note": 0, "velocity": 0, "duration": 399}, {"note": 80, "velocity": 116, "duration": 190}, {"note": 80, "velocity": 116, "duration": 162}, {"note": 80, "velocity": 113, "duration": 42}, {"note": 0, "velocity": 0, "duration": 198}, {"note": 80, "velocity": 119, "duration": 174}, {"note": 0, "velocity": 0, "duration": 186}, {"note": 79, "velocity": 114, "duration": 169}, {"note": 0, "velocity": 0, "duration": 71}, {"note": 84, "velocity": 108, "duration": 96}, {"note": 84, "velocity": 116, "duration": 130}, {"note": 0, "velocity": 0, "duration": 470}, {"note": 89, "velocity": 116, "duration": 181}, {"note": 89, "velocity": 113, "duration": 108}, {"note": 89, "velocity": 114, "duration": 226}, {"note": 87, "velocity": 116, "duration": 192}, {"note": 85, "velocity": 109, "duration": 113}, {"note": 87, "velocity": 119, "duration": 164}, {"note": 0, "velocity": 0, "duration": 76}, {"note": 80, "velocity": 116, "duration": 107}, {"note": 80, "velocity": 119, "duration": 162}, {"note": 0, "velocity": 0, "duration": 438}, {"note": 85, "velocity": 116, "duration": 189}, {"note": 85, "velocity": 106, "duration": 94}, {"note": 85, "velocity": 109, "duration": 181}, {"note": 87, "velocity": 119, "duration": 222}, {"note": 0, "velocity": 0, "duration": 138}, {"note": 82, "velocity": 119, "duration": 237}, {"note": 80, "velocity": 103, "duration": 111}, {"note": 84, "velocity": 108, "duration": 195}, {"note": 82, "velocity": 109, "duration": 248}, {"note": 0, "velocity": 0, "duration": 112}, {"note": 82, "velocity": 119, "duration": 261}, {"note": 80, "velocity": 95, "duration": 114}, {"note": 79, "velocity": 102, "duration": 232}, {"note": 80, "velocity": 109, "duration": 275}, {"note": 0, "velocity": 0, "duration": 85}, {"note": 80, "velocity": 114, "duration": 263}, {"note": 0, "velocity": 0, "duration": 217}, {"note": 79, "velocity": 116, "duration": 210}, {"note": 0, "velocity": 0, "duration": 270}, {"note": 80, "velocity": 116, "duration": 190}, {"note": 80, "velocity": 116, "duration": 162}, {"note": 80, "velocity": 113, "duration": 42}, {"note": 0, "velocity": 0, "duration": 198}, {"note": 80, "velocity": 119, "duration": 174}, {"note": 0, "velocity": 0, "duration": 186}, {"note": 79, "velocity": 114, "duration": 169}, {"note": 0, "velocity": 0, "duration": 71}, {"note": 84, "velocity": 108, "duration": 96}, {"note": 84, "velocity": 116, "duration": 130}, {"note": 0, "velocity": 0, "duration": 470}, {"note": 89, "velocity": 116, "duration": 181}, {"note": 89, "velocity": 113, "duration": 108}, {"note": 89, "velocity": 114, "duration": 226}, {"note": 87, "velocity": 116, "duration": 192}, {"note": 85, "velocity": 109, "duration": 113}, {"note": 87, "velocity": 119, "duration": 164}, {"note": 0, "velocity": 0, "duration": 76}, {"note": 80, "velocity": 116, "duration": 107}, {"note": 80, "velocity": 119, "duration": 162}, {"note": 0, "velocity": 0, "duration": 438}, {"note": 85, "velocity": 116, "duration": 189}, {"note": 85, "velocity": 106, "duration": 94}, {"note": 85, "velocity": 109, "duration": 181}, {"note": 85, "velocity": 119, "duration": 222}, {"note": 0, "velocity": 0, "duration": 138}, {"note": 82, "velocity": 119, "duration": 241}, {"note": 80, "velocity": 97, "duration": 149}, {"note": 79, "velocity": 113, "duration": 250}, {"note": 80, "velocity": 119, "duration": 300}, {"note": 77, "velocity": 116, "duration": 330}, {"note": 0, "velocity": 0, "duration": 1350}, {"note": 77, "velocity": 100, "duration": 49}, {"note": 0, "velocity": 0, "duration": 71}, {"note": 77, "velocity": 96, "duration": 60}, {"note": 77, "velocity": 110, "duration": 169}, {"note": 0, "velocity": 0, "duration": 71}, {"note": 72, "velocity": 107, "duration": 109}, {"note": 0, "velocity": 0, "duration": 131}, {"note": 77, "velocity": 110, "duration": 49}, {"note": 0, "velocity": 0, "duration": 71}, {"note": 77, "velocity": 96, "duration": 49}, {"note": 0, "velocity": 0, "duration": 71}, {"note": 72, "velocity": 100, "duration": 44}, {"note": 0, "velocity": 0, "duration": 196}, {"note": 77, "velocity": 108, "duration": 46}, {"note": 0, "velocity": 0, "duration": 74}, {"note": 77, "velocity": 102, "duration": 49}, {"note": 0, "velocity": 0, "duration": 71}, {"note": 77, "velocity": 100, "duration": 50}, {"note": 0, "velocity": 0, "duration": 70}, {"note": 77, "velocity": 102, "duration": 52}, {"note": 0, "velocity": 0, "duration": 68}, {"note": 77, "velocity": 114, "duration": 110}, {"note": 0, "velocity": 0, "duration": 130}, {"note": 72, "velocity": 96, "duration": 151}, {"note": 0, "velocity": 0, "duration": 89}, {"note": 77, "velocity": 108, "duration": 129}, {"note": 0, "velocity": 0, "duration": 111}, {"note": 77, "velocity": 108, "duration": 123}, {"note": 0, "velocity": 0, "duration": 117}, {"note": 77, "velocity": 110, "duration": 196}, {"note": 72, "velocity": 108, "duration": 142}, {"note": 0, "velocity": 0, "duration": 98}, {"note": 77, "velocity": 108, "duration": 47}, {"note": 0, "velocity": 0, "duration": 73}, {"note": 77, "velocity": 98, "duration": 48}, {"note": 0, "velocity": 0, "duration": 72}, {"note": 77, "velocity": 98, "duration": 47}, {"note": 0, "velocity": 0, "duration": 73}, {"note": 76, "velocity": 107, "duration": 60}, {"note": 77, "velocity": 108, "duration": 127}, {"note": 0, "velocity": 0, "duration": 113}, {"note": 72, "velocity": 110, "duration": 122}, {"note": 0, "velocity": 0, "duration": 358}, {"note": 77, "velocity": 110, "duration": 49}, {"note": 0, "velocity": 0, "duration": 71}, {"note": 77, "velocity": 98, "duration": 72}, {"note": 72, "velocity": 108, "duration": 122}, {"note": 0, "velocity": 0, "duration": 118}, {"note": 77, "velocity": 100, "duration": 50}, {"note": 0, "velocity": 0, "duration": 70}, {"note": 77, "velocity": 94, "duration": 67}, {"note": 76, "velocity": 114, "duration": 174}, {"note": 0, "velocity": 0, "duration": 66}, {"note": 76, "velocity": 114, "duration": 174}, {"note": 0, "velocity": 0, "duration": 66}, {"note": 77, "velocity": 113, "duration": 137}, {"note": 0, "velocity": 0, "duration": 103}, {"note": 76, "velocity": 116, "duration": 153}, {"note": 0, "velocity": 0, "duration": 87}, {"note": 77, "velocity": 108, "duration": 46}, {"note": 0, "velocity": 0, "duration": 74}, {"note": 77, "velocity": 100, "duration": 73}, {"note": 72, "velocity": 108, "duration": 105}, {"note": 0, "velocity": 0, "duration": 135}, {"note": 77, "velocity": 108, "duration": 47}, {"note": 0, "velocity": 0, "duration": 73}, {"note": 77, "velocity": 100, "duration": 48}, {"note": 0, "velocity": 0, "duration": 72}, {"note": 77, "velocity": 98, "duration": 47}, {"note": 0, "velocity": 0, "duration": 73}, {"note": 77, "velocity": 98, "duration": 45}, {"note": 0, "velocity": 0, "duration": 75}, {"note": 77, "velocity": 110, "duration": 142}, {"note": 0, "velocity": 0, "duration": 98}, {"note": 72, "velocity": 113, "duration": 85}, {"note": 0, "velocity": 0, "duration": 155}, {"note": 77, "velocity": 108, "duration": 193}, {"note": 72, "velocity": 107, "duration": 103}, {"note": 0, "velocity": 0, "duration": 257}, {"note": 77, "velocity": 91, "duration": 54}, {"note": 0, "velocity": 0, "duration": 66}, {"note": 77, "velocity": 94, "duration": 55}, {"note": 0, "velocity": 0, "duration": 65}, {"note": 77, "velocity": 90, "duration": 54}, {"note": 0, "velocity": 0, "duration": 66}, {"note": 77, "velocity": 96, "duration": 54}, {"note": 0, "velocity": 0, "duration": 66}, {"note": 77, "velocity": 91, "duration": 49}, {"note": 0, "velocity": 0, "duration": 71}, {"note": 77, "velocity": 91, "duration": 49}, {"note": 0, "velocity": 0, "duration": 71}, {"note": 77, "velocity": 96, "duration": 52}, {"note": 0, "velocity": 0, "duration": 68}, {"note": 77, "velocity": 116, "duration": 91}, {"note": 0, "velocity": 0, "duration": 149}, {"note": 72, "velocity": 104, "duration": 155}, {"note": 0, "velocity": 0, "duration": 85}, {"note": 77, "velocity": 93, "duration": 53}, {"note": 0, "velocity": 0, "duration": 67}, {"note": 77, "velocity": 93, "duration": 52}, {"note": 0, "velocity": 0, "duration": 68}, {"note": 77, "velocity": 91, "duration": 50}, {"note": 0, "velocity": 0, "duration": 70}, {"note": 77, "velocity": 91, "duration": 111}, {"note": 77, "velocity": 110, "duration": 98}, {"note": 0, "velocity": 0, "duration": 142}, {"note": 72, "velocity": 107, "duration": 159}, {"note": 0, "velocity": 0, "duration": 81}, {"note": 77, "velocity": 102, "duration": 48}, {"note": 0, "velocity": 0, "duration": 72}, {"note": 77, "velocity": 93, "duration": 50}, {"note": 0, "velocity": 0, "duration": 70}, {"note": 77, "velocity": 89, "duration": 53}, {"note": 0, "velocity": 0, "duration": 67}, {"note": 77, "velocity": 92, "duration": 70}, {"note": 77, "velocity": 108, "duration": 111}, {"note": 77, "velocity": 94, "duration": 104}, {"note": 72, "velocity": 102, "duration": 113}, {"note": 0, "velocity": 0, "duration": 127}, {"note": 77, "velocity": 104, "duration": 207}, {"note": 72, "velocity": 108, "duration": 140}, {"note": 0, "velocity": 0, "duration": 220}, {"note": 77, "velocity": 100, "duration": 51}, {"note": 0, "velocity": 0, "duration": 69}, {"note": 77, "velocity": 100, "duration": 51}, {"note": 0, "velocity": 0, "duration": 69}, {"note": 77, "velocity": 98, "duration": 52}, {"note": 0, "velocity": 0, "duration": 68}, {"note": 77, "velocity": 116, "duration": 82}, {"note": 77, "velocity": 100, "duration": 55}, {"note": 0, "velocity": 0, "duration": 65}, {"note": 77, "velocity": 91, "duration": 48}, {"note": 0, "velocity": 0, "duration": 72}, {"note": 77, "velocity": 93, "duration": 55}, {"note": 0, "velocity": 0, "duration": 65}, {"note": 77, "velocity": 116, "duration": 78}, {"note": 77, "velocity": 88, "duration": 48}, {"note": 0, "velocity": 0, "duration": 72}, {"note": 77, "velocity": 90, "duration": 48}, {"note": 0, "velocity": 0, "duration": 72}, {"note": 77, "velocity": 88, "duration": 54}, {"note": 0, "velocity": 0, "duration": 66}, {"note": 77, "velocity": 88, "duration": 52}, {"note": 0, "velocity": 0, "duration": 68}, {"note": 77, "velocity": 88, "duration": 57}, {"note": 0, "velocity": 0, "duration": 63}, {"note": 77, "velocity": 107, "duration": 92}, {"note": 79, "velocity": 108, "duration": 76}, {"note": 79, "velocity": 107, "duration": 75}, {"note": 0, "velocity": 0, "duration": 165}, {"note": 77, "velocity": 107, "duration": 138}]]