[[{"note": 67, "velocity": 87, "duration": 143}, {"note": 69, "velocity": 87, "duration": 85}, {"note": 79, "velocity": 98, "duration": 114}, {"note": 76, "velocity": 83, "duration": 66}, {"note": 76, "velocity": 86, "duration": 103}, {"note": 74, "velocity": 84, "duration": 84}, {"note": 74, "velocity": 89, "duration": 60}, {"note": 72, "velocity": 86, "duration": 108}, {"note": 0, "velocity": 0, "duration": 132}, {"note": 69, "velocity": 86, "duration": 108}, {"note": 76, "velocity": 104, "duration": 166}, {"note": 0, "velocity": 0, "duration": 554}, {"note": 67, "velocity": 90, "duration": 127}, {"note": 69, "velocity": 93, "duration": 38}, {"note": 0, "velocity": 0, "duration": 82}, {"note": 79, "velocity": 104, "duration": 89}, {"note": 79, "velocity": 96, "duration": 41}, {"note": 0, "velocity": 0, "duration": 79}, {"note": 79, "velocity": 98, "duration": 89}, {"note": 81, "velocity": 100, "duration": 116}, {"note": 79, "velocity": 104, "duration": 149}, {"note": 76, "velocity": 94, "duration": 118}, {"note": 74, "velocity": 91, "duration": 109}, {"note": 72, "velocity": 89, "duration": 138}, {"note": 74, "velocity": 91, "duration": 158}, {"note": 0, "velocity": 0, "duration": 682}, {"note": 74, "velocity": 100, "duration": 114}, {"note": 76, "velocity": 100, "duration": 107}, {"note": 74, "velocity": 93, "duration": 102}, {"note": 76, "velocity": 94, "duration": 102}, {"note": 79, "velocity": 104, "duration": 157}, {"note": 0, "velocity": 0, "duration": 443}, {"note": 81, "velocity": 104, "duration": 114}, {"note": 79, "velocity": 93, "duration": 88}, {"note": 76, "velocity": 92, "duration": 101}, {"note": 79, "velocity": 87, "duration": 124}, {"note": 72, "velocity": 89, "duration": 175}, {"note": 0, "velocity": 0, "duration": 305}, {"note": 69, "velocity": 104, "duration": 95}, {"note": 67, "velocity": 89, "duration": 131}, {"note": 69, "velocity": 89, "duration": 91}, {"note": 76, "velocity": 88, "duration": 83}, {"note": 76, "velocity": 98, "duration": 108}, {"note": 74, "velocity": 94, "duration": 113}, {"note": 72, "velocity": 89, "duration": 110}, {"note": 69, "velocity": 94, "duration": 165}, {"note": 0, "velocity": 0, "duration": 75}, {"note": 74, "velocity": 96, "duration": 190}, {"note": 0, "velocity": 0, "duration": 410}, {"note": 67, "velocity": 87, "duration": 143}, {"note": 69, "velocity": 87, "duration": 85}, {"note": 79, "velocity": 98, "duration": 114}, {"note": 76, "velocity": 83, "duration": 66}, {"note": 76, "velocity": 86, "duration": 103}, {"note": 74, "velocity": 84, "duration": 84}, {"note": 74, "velocity": 89, "duration": 60}, {"note": 72, "velocity": 86, "duration": 108}, {"note": 0, "velocity": 0, "duration": 132}, {"note": 69, "velocity": 86, "duration": 108}, {"note": 76, "velocity": 104, "duration": 166}, {"note": 0, "velocity": 0, "duration": 554}, {"note": 67, "velocity": 90, "duration": 127}, {"note": 69, "velocity": 93, "duration": 38}, {"note": 0, "velocity": 0, "duration": 82}, {"note": 79, "velocity": 104, "duration": 89}, {"note": 79, "velocity": 96, "duration": 41}, {"note": 0, "velocity": 0, "duration": 79}, {"note": 79, "velocity": 98, "duration": 89}, {"note": 81, "velocity": 100, "duration": 116}, {"note": 79, "velocity": 104, "duration": 149}, {"note": 76, "velocity": 94, "duration": 118}, {"note": 74, "velocity": 91, "duration": 109}, {"note": 72, "velocity": 89, "duration": 138}, {"note": 74, "velocity": 91, "duration": 158}, {"note": 0, "velocity": 0, "duration": 682}, {"note": 74, "velocity": 100, "duration": 114}, {"note": 76, "velocity": 100, "duration": 107}, {"note": 74, "velocity": 93, "duration": 102}, {"note": 76, "velocity": 94, "duration": 102}, {"note": 79, "velocity": 104, "duration": 157}, {"note": 0, "velocity": 0, "duration": 443}, {"note": 81, "velocity": 104, "duration": 114}, {"note": 79, "velocity": 93, "duration": 88}, {"note": 76, "velocity": 92, "duration": 101}, {"note": 79, "velocity": 87, "duration": 124}, {"note": 72, "velocity": 89, "duration": 175}, {"note": 0, "velocity": 0, "duration": 305}, {"note": 69, "velocity": 104, "duration": 95}, {"note": 67, "velocity": 89, "duration": 131}, {"note": 69, "velocity": 89, "duration": 91}, {"note": 76, "velocity": 107, "duration": 87}, {"note": 74, "velocity": 113, "duration": 125}, {"note": 76, "velocity": 108, "duration": 169}, {"note": 0, "velocity": 0, "duration": 71}, {"note": 74, "velocity": 94, "duration": 62}, {"note": 74, "velocity": 104, "duration": 150}, {"note": 0, "velocity": 0, "duration": 90}, {"note": 72, "velocity": 102, "duration": 144}, {"note": 0, "velocity": 0, "duration": 1296}, {"note": 72, "velocity": 102, "duration": 132}, {"note": 74, "velocity": 100, "duration": 78}, {"note": 76, "velocity": 110, "duration": 131}, {"note": 0, "velocity": 0, "duration": 109}, {"note": 79, "velocity": 107, "duration": 63}, {"note": 79, "velocity": 110, "duration": 135}, {"note": 0, "velocity": 0, "duration": 345}, {"note": 76, "velocity": 104, "duration": 81}, {"note": 81, "velocity": 114, "duration": 159}, {"note": 0, "velocity": 0, "duration": 81}, {"note": 79, "velocity": 114, "duration": 119}, {"note": 76, "velocity": 114, "duration": 103}, {"note": 0, "velocity": 0, "duration": 497}, {"note": 74, "velocity": 110, "duration": 95}, {"note": 76, "velocity": 91, "duration": 137}, {"note": 74, "velocity": 104, "duration": 102}, {"note": 72, "velocity": 93, "duration": 121}, {"note": 74, "velocity": 110, "duration": 133}, {"note": 0, "velocity": 0, "duration": 227}, {"note": 76, "velocity": 92, "duration": 56}, {"note": 0, "velocity": 0, "duration": 64}, {"note": 76, "velocity": 108, "duration": 159}, {"note": 0, "velocity": 0, "duration": 81}, {"note": 67, "velocity": 107, "duration": 148}, {"note": 0, "velocity": 0, "duration": 332}, {"note": 72, "velocity": 113, "duration": 110}, {"note": 74, "velocity": 91, "duration": 68}, {"note": 76, "velocity": 108, "duration": 160}, {"note": 0, "velocity": 0, "duration": 80}, {"note": 79, "velocity": 113, "duration": 65}, {"note": 79, "velocity": 116, "duration": 118}, {"note": 0, "velocity": 0, "duration": 482}, {"note": 81, "velocity": 116, "duration": 140}, {"note": 0, "velocity": 0, "duration": 100}, {"note": 84, "velocity": 114, "duration": 86}, {"note": 81, "velocity": 116, "duration": 143}, {"note": 0, "velocity": 0, "duration": 217}, {"note": 79, "velocity": 107, "duration": 120}, {"note": 76, "velocity": 104, "duration": 116}, {"note": 74, "velocity": 110, "duration": 138}, {"note": 0, "velocity": 0, "duration": 222}, {"note": 76, "velocity": 108, "duration": 120}, {"note": 74, "velocity": 113, "duration": 220}, {"note": 72, "velocity": 108, "duration": 209}, {"note": 74, "velocity": 113, "duration": 164}, {"note": 0, "velocity": 0, "duration": 556}, {"note": 72, "velocity": 108, "duration": 102}, {"note": 74, "velocity": 104, "duration": 65}, {"note": 76, "velocity": 114, "duration": 123}, {"note": 0, "velocity": 0, "duration": 117}, {"note": 79, "velocity": 113, "duration": 61}, {"note": 79, "velocity": 113, "duration": 156}, {"note": 0, "velocity": 0, "duration": 204}, {"note": 79, "velocity": 114, "duration": 112}, {"note": 76, "velocity": 108, "duration": 78}, {"note": 81, "velocity": 107, "duration": 149}, {"note": 0, "velocity": 0, "duration": 91}, {"note": 79, "velocity": 114, "duration": 114}, {"note": 76, "velocity": 114, "duration": 111}, {"note": 0, "velocity": 0, "duration": 489}, {"note": 74, "velocity": 114, "duration": 109}, {"note": 76, "velocity": 102, "duration": 105}, {"note": 74, "velocity": 108, "duration": 98}, {"note": 72, "velocity": 108, "duration": 110}, {"note": 74, "velocity": 116, "duration": 135}, {"note": 0, "velocity": 0, "duration": 225}, {"note": 76, "velocity": 107, "duration": 56}, {"note": 0, "velocity": 0, "duration": 64}, {"note": 76, "velocity": 114, "duration": 140}, {"note": 0, "velocity": 0, "duration": 100}, {"note": 79, "velocity": 108, "duration": 112}, {"note": 67, "velocity": 108, "duration": 122}, {"note": 0, "velocity": 0, "duration": 238}, {"note": 67, "velocity": 94, "duration": 139}, {"note": 69, "velocity": 107, "duration": 71}, {"note": 72, "velocity": 114, "duration": 137}, {"note": 0, "velocity": 0, "duration": 103}, {"note": 69, "velocity": 108, "duration": 66}, {"note": 0, "velocity": 0, "duration": 414}, {"note": 81, "velocity": 113, "duration": 96}, {"note": 79, "velocity": 113, "duration": 120}, {"note": 76, "velocity": 116, "duration": 129}, {"note": 0, "velocity": 0, "duration": 111}, {"note": 76, "velocity": 113, "duration": 92}, {"note": 79, "velocity": 107, "duration": 85}, {"note": 74, "velocity": 116, "duration": 144}, {"note": 0, "velocity": 0, "duration": 96}, {"note": 72, "velocity": 107, "duration": 119}, {"note": 69, "velocity": 108, "duration": 103}, {"note": 72, "velocity": 113, "duration": 127}, {"note": 74, "velocity": 102, "duration": 120}, {"note": 72, "velocity": 96, "duration": 149}, {"note": 0, "velocity": 0, "duration": 1291}, {"note": 72, "velocity": 102, "duration": 132}, {"note": 74, "velocity": 100, "duration": 78}, {"note": 76, "velocity": 110, "duration": 131}, {"note": 0, "velocity": 0, "duration": 109}, {"note": 79, "velocity": 107, "duration": 63}, {"note": 79, "velocity": 110, "duration": 135}, {"note": 0, "velocity": 0, "duration": 345}, {"note": 76, "velocity": 104, "duration": 81}, {"note": 81, "velocity": 114, "duration": 159}, {"note": 0, "velocity": 0, "duration": 81}, {"note": 79, "velocity": 114, "duration": 119}, {"note": 76, "velocity": 114, "duration": 103}, {"note": 0, "velocity": 0, "duration": 497}, {"note": 74, "velocity": 110, "duration": 95}, {"note": 76, "velocity": 91, "duration": 137}, {"note": 74, "velocity": 104, "duration": 102}, {"note": 72, "velocity": 93, "duration": 121}, {"note": 74, "velocity": 110, "duration": 133}, {"note": 0, "velocity": 0, "duration": 227}, {"note": 76, "velocity": 92, "duration": 56}, {"note": 0, "velocity": 0, "duration": 64}, {"note": 76, "velocity": 108, "duration": 159}, {"note": 0, "velocity": 0, "duration": 81}, {"note": 67, "velocity": 107, "duration": 148}, {"note": 0, "velocity": 0, "duration": 332}, {"note": 72, "velocity": 113, "duration": 110}, {"note": 74, "velocity": 91, "duration": 68}, {"note": 76, "velocity": 108, "duration": 160}, {"note": 0, "velocity": 0, "duration": 80}, {"note": 79, "velocity": 113, "duration": 65}, {"note": 79, "velocity": 116, "duration": 118}, {"note": 0, "velocity": 0, "duration": 482}, {"note": 81, "velocity": 116, "duration": 140}, {"note": 0, "velocity": 0, "duration": 100}, {"note": 84, "velocity": 114, "duration": 86}, {"note": 81, "velocity": 116, "duration": 143}, {"note": 0, "velocity": 0, "duration": 217}, {"note": 79, "velocity": 107, "duration": 120}, {"note": 76, "velocity": 104, "duration": 116}, {"note": 74, "velocity": 110, "duration": 138}, {"note": 0, "velocity": 0, "duration": 222}, {"note": 76, "velocity": 108, "duration": 120}, {"note": 74, "velocity": 113, "duration": 220}, {"note": 72, "velocity": 108, "duration": 209}, {"note": 74, "velocity": 113, "duration": 164}, {"note": 0, "velocity": 0, "duration": 556}, {"note": 72, "velocity": 108, "duration": 102}, {"note": 74, "velocity": 104, "duration": 65}, {"note": 76, "velocity": 114, "duration": 123}, {"note": 0, "velocity": 0, "duration": 117}, {"note": 79, "velocity": 113, "duration": 61}, {"note": 79, "velocity": 113, "duration": 156}, {"note": 0, "velocity": 0, "duration": 204}, {"note": 79, "velocity": 114, "duration": 112}, {"note": 76, "velocity": 108, "duration": 78}, {"note": 81, "velocity": 107, "duration": 149}, {"note": 0, "velocity": 0, "duration": 91}, {"note": 79, "velocity": 114, "duration": 114}, {"note": 76, "velocity": 114, "duration": 111}, {"note": 0, "velocity": 0, "duration": 489}, {"note": 74, "velocity": 114, "duration": 109}, {"note": 76, "velocity": 102, "duration": 105}, {"note": 74, "velocity": 108, "duration": 98}, {"note": 72, "velocity": 108, "duration": 110}, {"note": 74, "velocity": 116, "duration": 135}, {"note": 0, "velocity": 0, "duration": 225}, {"note": 76, "velocity": 107, "duration": 56}, {"note": 0, "velocity": 0, "duration": 64}, {"note": 76, "velocity": 114, "duration": 140}, {"note": 0, "velocity": 0, "duration": 100}, {"note": 79, "velocity": 108, "duration": 112}, {"note": 67, "velocity": 108, "duration": 122}, {"note": 0, "velocity": 0, "duration": 238}, {"note": 72, "velocity": 107, "duration": 140}, {"note": 74, "velocity": 107, "duration": 80}, {"note": 76, "velocity": 113, "duration": 142}, {"note": 0, "velocity": 0, "duration": 98}, {"note": 79, "velocity": 110, "duration": 57}, {"note": 0, "velocity": 0, "duration": 63}, {"note": 79, "velocity": 114, "duration": 126}, {"note": 0, "velocity": 0, "duration": 234}, {"note": 79, "velocity": 110, "duration": 111}, {"note": 76, "velocity": 108, "duration": 84}, {"note": 81, "velocity": 114, "duration": 129}, {"note": 0, "velocity": 0, "duration": 111}, {"note": 81, "velocity": 114, "duration": 103}, {"note": 79, "velocity": 108, "duration": 114}, {"note": 76, "velocity": 117, "duration": 118}, {"note": 0, "velocity": 0, "duration": 362}, {"note": 74, "velocity": 107, "duration": 160}, {"note": 76, "velocity": 104, "duration": 98}, {"note": 79, "velocity": 107, "duration": 99}, {"note": 81, "velocity": 107, "duration": 99}, {"note": 0, "velocity": 0, "duration": 261}, {"note": 69, "velocity": 104, "duration": 175}, {"note": 0, "velocity": 0, "duration": 65}, {"note": 72, "velocity": 110, "duration": 223}, {"note": 0, "velocity": 0, "duration": 8177}, {"note": 67, "velocity": 87, "duration": 143}, {"note": 69, "velocity": 87, "duration": 85}, {"note": 79, "velocity": 98, "duration": 114}, {"note": 76, "velocity": 83, "duration": 66}, {"note": 76, "velocity": 86, "duration": 103}, {"note": 74, "velocity": 84, "duration": 84}, {"note": 74, "velocity": 89, "duration": 60}, {"note": 72, "velocity": 86, "duration": 108}, {"note": 0, "velocity": 0, "duration": 132}, {"note": 69, "velocity": 86, "duration": 108}, {"note": 76, "velocity": 104, "duration": 166}, {"note": 0, "velocity": 0, "duration": 554}, {"note": 67, "velocity": 90, "duration": 127}, {"note": 69, "velocity": 93, "duration": 38}, {"note": 0, "velocity": 0, "duration": 82}, {"note": 79, "velocity": 104, "duration": 89}, {"note": 79, "velocity": 96, "duration": 41}, {"note": 0, "velocity": 0, "duration": 79}, {"note": 79, "velocity": 98, "duration": 89}, {"note": 81, "velocity": 100, "duration": 116}, {"note": 79, "velocity": 104, "duration": 149}, {"note": 76, "velocity": 94, "duration": 118}, {"note": 74, "velocity": 91, "duration": 109}, {"note": 72, "velocity": 89, "duration": 138}, {"note": 74, "velocity": 91, "duration": 158}, {"note": 0, "velocity": 0, "duration": 682}, {"note": 74, "velocity": 100, "duration": 114}, {"note": 76, "velocity": 100, "duration": 107}, {"note": 74, "velocity": 93, "duration": 102}, {"note": 76, "velocity": 94, "duration": 102}, {"note": 79, "velocity": 104, "duration": 157}, {"note": 0, "velocity": 0, "duration": 443}, {"note": 81, "velocity": 104, "duration": 114}, {"note": 79, "velocity": 93, "duration": 88}, {"note": 76, "velocity": 92, "duration": 101}, {"note": 79, "velocity": 87, "duration": 124}, {"note": 72, "velocity": 89, "duration": 175}, {"note": 0, "velocity": 0, "duration": 305}, {"note": 69, "velocity": 104, "duration": 95}, {"note": 67, "velocity": 89, "duration": 131}, {"note": 69, "velocity": 89, "duration": 91}, {"note": 76, "velocity": 107, "duration": 87}, {"note": 74, "velocity": 113, "duration": 125}, {"note": 76, "velocity": 108, "duration": 169}, {"note": 0, "velocity": 0, "duration": 71}, {"note": 74, "velocity": 94, "duration": 62}, {"note": 74, "velocity": 104, "duration": 150}, {"note": 0, "velocity": 0, "duration": 90}, {"note": 72, "velocity": 102, "duration": 144}, {"note": 0, "velocity": 0, "duration": 1296}, {"note": 72, "velocity": 102, "duration": 132}, {"note": 74, "velocity": 100, "duration": 78}, {"note": 76, "velocity": 110, "duration": 131}, {"note": 0, "velocity": 0, "duration": 109}, {"note": 79, "velocity": 107, "duration": 63}, {"note": 79, "velocity": 110, "duration": 135}, {"note": 0, "velocity": 0, "duration": 345}, {"note": 76, "velocity": 104, "duration": 81}, {"note": 81, "velocity": 114, "duration": 159}, {"note": 0, "velocity": 0, "duration": 81}, {"note": 79, "velocity": 114, "duration": 119}, {"note": 76, "velocity": 114, "duration": 103}, {"note": 0, "velocity": 0, "duration": 497}, {"note": 74, "velocity": 110, "duration": 95}, {"note": 76, "velocity": 91, "duration": 137}, {"note": 74, "velocity": 104, "duration": 102}, {"note": 72, "velocity": 93, "duration": 121}, {"note": 74, "velocity": 110, "duration": 133}, {"note": 0, "velocity": 0, "duration": 227}, {"note": 76, "velocity": 92, "duration": 56}, {"note": 0, "velocity": 0, "duration": 64}, {"note": 76, "velocity": 108, "duration": 159}, {"note": 0, "velocity": 0, "duration": 81}, {"note": 67, "velocity": 107, "duration": 148}, {"note": 0, "velocity": 0, "duration": 332}, {"note": 72, "velocity": 113, "duration": 110}, {"note": 74, "velocity": 91, "duration": 68}, {"note": 76, "velocity": 108, "duration": 160}, {"note": 0, "velocity": 0, "duration": 80}, {"note": 79, "velocity": 113, "duration": 65}, {"note": 79, "velocity": 116, "duration": 118}, {"note": 0, "velocity": 0, "duration": 482}, {"note": 81, "velocity": 116, "duration": 140}, {"note": 0, "velocity": 0, "duration": 100}, {"note": 84, "velocity": 114, "duration": 86}, {"note": 81, "velocity": 116, "duration": 143}, {"note": 0, "velocity": 0, "duration": 217}, {"note": 79, "velocity": 107, "duration": 120}, {"note": 76, "velocity": 104, "duration": 116}, {"note": 74, "velocity": 110, "duration": 138}, {"note": 0, "velocity": 0, "duration": 222}, {"note": 76, "velocity": 108, "duration": 120}, {"note": 74, "velocity": 113, "duration": 220}, {"note": 72, "velocity": 108, "duration": 209}, {"note": 74, "velocity": 113, "duration": 164}, {"note": 0, "velocity": 0, "duration": 556}, {"note": 72, "velocity": 108, "duration": 102}, {"note": 74, "velocity": 104, "duration": 65}, {"note": 76, "velocity": 114, "duration": 123}, {"note": 0, "velocity": 0, "duration": 117}, {"note": 79, "velocity": 113, "duration": 61}, {"note": 79, "velocity": 113, "duration": 156}, {"note": 0, "velocity": 0, "duration": 204}, {"note": 79, "velocity": 114, "duration": 112}, {"note": 76, "velocity": 108, "duration": 78}, {"note": 81, "velocity": 107, "duration": 149}, {"note": 0, "velocity": 0, "duration": 91}, {"note": 79, "velocity": 114, "duration": 114}, {"note": 76, "velocity": 114, "duration": 111}, {"note": 0, "velocity": 0, "duration": 489}, {"note": 74, "velocity": 114, "duration": 109}, {"note": 76, "velocity": 102, "duration": 105}, {"note": 74, "velocity": 108, "duration": 98}, {"note": 72, "velocity": 108, "duration": 110}, {"note": 74, "velocity": 116, "duration": 135}, {"note": 0, "velocity": 0, "duration": 225}, {"note": 76, "velocity": 107, "duration": 56}, {"note": 0, "velocity": 0, "duration": 64}, {"note": 76, "velocity": 114, "duration": 140}, {"note": 0, "velocity": 0, "duration": 100}, {"note": 79, "velocity": 108, "duration": 112}, {"note": 67, "velocity": 108, "duration": 122}, {"note": 0, "velocity": 0, "duration": 238}, {"note": 67, "velocity": 94, "duration": 139}, {"note": 69, "velocity": 107, "duration": 71}, {"note": 72, "velocity": 114, "duration": 137}, {"note": 0, "velocity": 0, "duration": 103}, {"note": 69, "velocity": 108, "duration": 66}, {"note": 0, "velocity": 0, "duration": 414}, {"note": 81, "velocity": 113, "duration": 96}, {"note": 79, "velocity": 113, "duration": 120}, {"note": 76, "velocity": 116, "duration": 129}, {"note": 0, "velocity": 0, "duration": 111}, {"note": 76, "velocity": 113, "duration": 92}, {"note": 79, "velocity": 107, "duration": 85}, {"note": 74, "velocity": 116, "duration": 144}, {"note": 0, "velocity": 0, "duration": 96}, {"note": 72, "velocity": 107, "duration": 119}, {"note": 69, "velocity": 108, "duration": 103}, {"note": 72, "velocity": 113, "duration": 127}, {"note": 74, "velocity": 102, "duration": 120}, {"note": 72, "velocity": 96, "duration": 149}, {"note": 0, "velocity": 0, "duration": 1291}, {"note": 72, "velocity": 102, "duration": 132}, {"note": 74, "velocity": 100, "duration": 78}, {"note": 76, "velocity": 110, "duration": 131}, {"note": 0, "velocity": 0, "duration": 109}, {"note": 79, "velocity": 107, "duration": 63}, {"note": 79, "velocity": 110, "duration": 135}, {"note": 0, "velocity": 0, "duration": 345}, {"note": 76, "velocity": 104, "duration": 81}, {"note": 81, "velocity": 114, "duration": 159}, {"note": 0, "velocity": 0, "duration": 81}, {"note": 79, "velocity": 114, "duration": 119}, {"note": 76, "velocity": 114, "duration": 103}, {"note": 0, "velocity": 0, "duration": 497}, {"note": 74, "velocity": 110, "duration": 95}, {"note": 76, "velocity": 91, "duration": 137}, {"note": 74, "velocity": 104, "duration": 102}, {"note": 72, "velocity": 93, "duration": 121}, {"note": 74, "velocity": 110, "duration": 133}, {"note": 0, "velocity": 0, "duration": 227}, {"note": 76, "velocity": 92, "duration": 56}, {"note": 0, "velocity": 0, "duration": 64}, {"note": 76, "velocity": 108, "duration": 159}, {"note": 0, "velocity": 0, "duration": 81}, {"note": 67, "velocity": 107, "duration": 148}, {"note": 0, "velocity": 0, "duration": 332}, {"note": 72, "velocity": 113, "duration": 110}, {"note": 74, "velocity": 91, "duration": 68}, {"note": 76, "velocity": 108, "duration": 160}, {"note": 0, "velocity": 0, "duration": 80}, {"note": 79, "velocity": 113, "duration": 65}, {"note": 79, "velocity": 116, "duration": 118}, {"note": 0, "velocity": 0, "duration": 482}, {"note": 81, "velocity": 116, "duration": 140}, {"note": 0, "velocity": 0, "duration": 100}, {"note": 84, "velocity": 114, "duration": 86}, {"note": 81, "velocity": 116, "duration": 143}, {"note": 0, "velocity": 0, "duration": 217}, {"note": 79, "velocity": 107, "duration": 120}, {"note": 76, "velocity": 104, "duration": 116}, {"note": 74, "velocity": 110, "duration": 138}, {"note": 0, "velocity": 0, "duration": 222}, {"note": 76, "velocity": 108, "duration": 120}, {"note": 74, "velocity": 113, "duration": 220}, {"note": 72, "velocity": 108, "duration": 209}, {"note": 74, "velocity": 113, "duration": 164}, {"note": 0, "velocity": 0, "duration": 556}, {"note": 72, "velocity": 108, "duration": 102}, {"note": 74, "velocity": 104, "duration": 65}, {"note": 76, "velocity": 114, "duration": 123}, {"note": 0, "velocity": 0, "duration": 117}, {"note": 79, "velocity": 113, "duration": 61}, {"note": 79, "velocity": 113, "duration": 156}, {"note": 0, "velocity": 0, "duration": 204}, {"note": 79, "velocity": 114, "duration": 112}, {"note": 76, "velocity": 108, "duration": 78}, {"note": 81, "velocity": 107, "duration": 149}, {"note": 0, "velocity": 0, "duration": 91}, {"note": 79, "velocity": 114, "duration": 114}, {"note": 76, "velocity": 114, "duration": 111}, {"note": 0, "velocity": 0, "duration": 489}, {"note": 74, "velocity": 114, "duration": 109}, {"note": 76, "velocity": 102, "duration": 105}, {"note": 74, "velocity": 108, "duration": 98}, {"note": 72, "velocity": 108, "duration": 110}, {"note": 74, "velocity": 116, "duration": 135}, {"note": 0, "velocity": 0, "duration": 225}, {"note": 76, "velocity": 107, "duration": 56}, {"note": 0, "velocity": 0, "duration": 64}, {"note": 76, "velocity": 114, "duration": 140}, {"note": 0, "velocity": 0, "duration": 100}, {"note": 79, "velocity": 108, "duration": 112}, {"note": 67, "velocity": 108, "duration": 122}, {"note": 0, "velocity": 0, "duration": 238}, {"note": 72, "velocity": 107, "duration": 140}, {"note": 74, "velocity": 107, "duration": 80}, {"note": 76, "velocity": 113, "duration": 142}, {"note": 0, "velocity": 0, "duration": 98}, {"note": 79, "velocity": 110, "duration": 57}, {"note": 0, "velocity": 0, "duration": 63}, {"note": 79, "velocity": 114, "duration": 126}, {"note": 0, "velocity": 0, "duration": 234}, {"note": 79, "velocity": 110, "duration": 111}, {"note": 76, "velocity": 108, "duration": 84}, {"note": 81, "velocity": 114, "duration": 129}, {"note": 0, "velocity": 0, "duration": 111}, {"note": 81, "velocity": 114, "duration": 103}, {"note": 79, "velocity": 108, "duration": 114}, {"note": 76, "velocity": 117, "duration": 118}, {"note": 0, "velocity": 0, "duration": 362}, {"note": 74, "velocity": 107, "duration": 160}, {"note": 76, "velocity": 104, "duration": 98}, {"note": 79, "velocity": 107, "duration": 99}, {"note": 81, "velocity": 107, "duration": 99}, {"note": 0, "velocity": 0, "duration": 261}, {"note": 69, "velocity": 104, "duration": 175}, {"note": 0, "velocity": 0, "duration": 65}, {"note": 72, "velocity": 110, "duration": 223}, {"note": 0, "velocity": 0, "duration": 497}, {"note": 72, "velocity": 96, "duration": 140}, {"note": 74, "velocity": 93, "duration": 99}, {"note": 76, "velocity": 102, "duration": 154}, {"note": 0, "velocity": 0, "duration": 86}, {"note": 79, "velocity": 100, "duration": 76}, {"note": 79, "velocity": 108, "duration": 144}, {"note": 0, "velocity": 0, "duration": 227}, {"note": 79, "velocity": 113, "duration": 121}, {"note": 76, "velocity": 104, "duration": 104}, {"note": 81, "velocity": 114, "duration": 135}, {"note": 0, "velocity": 0, "duration": 109}, {"note": 81, "velocity": 110, "duration": 135}, {"note": 79, "velocity": 102, "duration": 138}, {"note": 76, "velocity": 113, "duration": 218}, {"note": 0, "velocity": 0, "duration": 313}, {"note": 74, "velocity": 110, "duration": 179}, {"note": 76, "velocity": 98, "duration": 190}, {"note": 79, "velocity": 94, "duration": 184}, {"note": 81, "velocity": 107, "duration": 264}, {"note": 0, "velocity": 0, "duration": 456}, {"note": 69, "velocity": 116, "duration": 471}, {"note": 72, "velocity": 116, "duration": 266}]]