[[{"note": 70, "velocity": 107, "duration": 244}, {"note": 72, "velocity": 104, "duration": 240}, {"note": 75, "velocity": 108, "duration": 720}, {"note": 77, "velocity": 108, "duration": 240}, {"note": 79, "velocity": 100, "duration": 240}, {"note": 74, "velocity": 102, "duration": 239}, {"note": 74, "velocity": 102, "duration": 120}, {"note": 72, "velocity": 89, "duration": 120}, {"note": 70, "velocity": 100, "duration": 240}, {"note": 72, "velocity": 108, "duration": 1440}, {"note": 75, "velocity": 113, "duration": 240}, {"note": 77, "velocity": 107, "duration": 240}, {"note": 79, "velocity": 107, "duration": 720}, {"note": 82, "velocity": 110, "duration": 240}, {"note": 84, "velocity": 108, "duration": 240}, {"note": 75, "velocity": 116, "duration": 240}, {"note": 77, "velocity": 107, "duration": 137}, {"note": 79, "velocity": 91, "duration": 120}, {"note": 80, "velocity": 86, "duration": 240}, {"note": 79, "velocity": 92, "duration": 1439}, {"note": 79, "velocity": 113, "duration": 240}, {"note": 82, "velocity": 92, "duration": 240}, {"note": 84, "velocity": 108, "duration": 720}, {"note": 82, "velocity": 116, "duration": 240}, {"note": 84, "velocity": 114, "duration": 480}, {"note": 72, "velocity": 116, "duration": 240}, {"note": 79, "velocity": 113, "duration": 240}, {"note": 77, "velocity": 114, "duration": 720}, {"note": 75, "velocity": 113, "duration": 240}, {"note": 77, "velocity": 107, "duration": 480}, {"note": 77, "velocity": 113, "duration": 240}, {"note": 79, "velocity": 108, "duration": 240}, {"note": 70, "velocity": 110, "duration": 720}, {"note": 72, "velocity": 113, "duration": 240}, {"note": 74, "velocity": 102, "duration": 248}, {"note": 77, "velocity": 107, "duration": 240}, {"note": 79, "velocity": 94, "duration": 124}, {"note": 77, "velocity": 91, "duration": 120}, {"note": 72, "velocity": 87, "duration": 240}, {"note": 75, "velocity": 110, "duration": 2160}, {"note": 82, "velocity": 110, "duration": 239}, {"note": 82, "velocity": 119, "duration": 240}, {"note": 84, "velocity": 117, "duration": 240}, {"note": 87, "velocity": 120, "duration": 240}, {"note": 86, "velocity": 120, "duration": 360}, {"note": 84, "velocity": 117, "duration": 240}, {"note": 82, "velocity": 114, "duration": 138}, {"note": 84, "velocity": 117, "duration": 2160}, {"note": 82, "velocity": 113, "duration": 239}, {"note": 82, "velocity": 113, "duration": 240}, {"note": 84, "velocity": 117, "duration": 240}, {"note": 87, "velocity": 110, "duration": 240}, {"note": 86, "velocity": 114, "duration": 480}, {"note": 84, "velocity": 108, "duration": 120}, {"note": 82, "velocity": 113, "duration": 360}, {"note": 79, "velocity": 113, "duration": 1200}, {"note": 70, "velocity": 116, "duration": 240}, {"note": 72, "velocity": 113, "duration": 240}, {"note": 75, "velocity": 114, "duration": 720}, {"note": 77, "velocity": 113, "duration": 240}, {"note": 79, "velocity": 108, "duration": 240}, {"note": 74, "velocity": 104, "duration": 239}, {"note": 74, "velocity": 107, "duration": 120}, {"note": 72, "velocity": 93, "duration": 120}, {"note": 70, "velocity": 100, "duration": 240}, {"note": 72, "velocity": 107, "duration": 1440}, {"note": 75, "velocity": 114, "duration": 240}, {"note": 77, "velocity": 107, "duration": 240}, {"note": 79, "velocity": 113, "duration": 720}, {"note": 82, "velocity": 113, "duration": 240}, {"note": 84, "velocity": 110, "duration": 240}, {"note": 75, "velocity": 113, "duration": 251}, {"note": 77, "velocity": 102, "duration": 128}, {"note": 79, "velocity": 102, "duration": 120}, {"note": 80, "velocity": 97, "duration": 240}, {"note": 79, "velocity": 107, "duration": 1439}, {"note": 79, "velocity": 113, "duration": 240}, {"note": 82, "velocity": 113, "duration": 240}, {"note": 84, "velocity": 117, "duration": 720}, {"note": 82, "velocity": 116, "duration": 240}, {"note": 84, "velocity": 116, "duration": 480}, {"note": 72, "velocity": 116, "duration": 240}, {"note": 79, "velocity": 116, "duration": 240}, {"note": 77, "velocity": 119, "duration": 720}, {"note": 75, "velocity": 116, "duration": 240}, {"note": 77, "velocity": 114, "duration": 480}, {"note": 77, "velocity": 116, "duration": 240}, {"note": 79, "velocity": 113, "duration": 240}, {"note": 70, "velocity": 116, "duration": 720}, {"note": 72, "velocity": 114, "duration": 240}, {"note": 74, "velocity": 110, "duration": 249}, {"note": 77, "velocity": 113, "duration": 240}, {"note": 79, "velocity": 104, "duration": 240}, {"note": 72, "velocity": 116, "duration": 240}, {"note": 75, "velocity": 116, "duration": 1958}, {"note": 0, "velocity": 0, "duration": 14842}, {"note": 70, "velocity": 107, "duration": 244}, {"note": 72, "velocity": 104, "duration": 240}, {"note": 75, "velocity": 108, "duration": 720}, {"note": 77, "velocity": 108, "duration": 240}, {"note": 79, "velocity": 100, "duration": 240}, {"note": 74, "velocity": 102, "duration": 239}, {"note": 74, "velocity": 102, "duration": 120}, {"note": 72, "velocity": 89, "duration": 120}, {"note": 70, "velocity": 100, "duration": 240}, {"note": 72, "velocity": 108, "duration": 1440}, {"note": 75, "velocity": 113, "duration": 240}, {"note": 77, "velocity": 107, "duration": 240}, {"note": 79, "velocity": 107, "duration": 720}, {"note": 82, "velocity": 110, "duration": 240}, {"note": 84, "velocity": 108, "duration": 240}, {"note": 75, "velocity": 116, "duration": 240}, {"note": 77, "velocity": 107, "duration": 137}, {"note": 79, "velocity": 91, "duration": 120}, {"note": 80, "velocity": 86, "duration": 240}, {"note": 79, "velocity": 92, "duration": 1439}, {"note": 79, "velocity": 113, "duration": 240}, {"note": 82, "velocity": 92, "duration": 240}, {"note": 84, "velocity": 108, "duration": 720}, {"note": 82, "velocity": 116, "duration": 240}, {"note": 84, "velocity": 114, "duration": 480}, {"note": 72, "velocity": 116, "duration": 240}, {"note": 79, "velocity": 113, "duration": 240}, {"note": 77, "velocity": 114, "duration": 720}, {"note": 75, "velocity": 113, "duration": 240}, {"note": 77, "velocity": 107, "duration": 480}, {"note": 77, "velocity": 113, "duration": 240}, {"note": 79, "velocity": 108, "duration": 240}, {"note": 70, "velocity": 110, "duration": 720}, {"note": 72, "velocity": 113, "duration": 240}, {"note": 74, "velocity": 102, "duration": 248}, {"note": 77, "velocity": 107, "duration": 240}, {"note": 79, "velocity": 94, "duration": 124}, {"note": 77, "velocity": 91, "duration": 120}, {"note": 72, "velocity": 87, "duration": 240}, {"note": 75, "velocity": 110, "duration": 1920}, {"note": 0, "velocity": 0, "duration": 240}, {"note": 82, "velocity": 110, "duration": 239}, {"note": 82, "velocity": 119, "duration": 240}, {"note": 84, "velocity": 117, "duration": 240}, {"note": 87, "velocity": 120, "duration": 240}, {"note": 86, "velocity": 120, "duration": 480}, {"note": 84, "velocity": 117, "duration": 120}, {"note": 82, "velocity": 114, "duration": 138}, {"note": 84, "velocity": 117, "duration": 2160}, {"note": 82, "velocity": 113, "duration": 239}, {"note": 82, "velocity": 113, "duration": 240}, {"note": 84, "velocity": 117, "duration": 240}, {"note": 87, "velocity": 110, "duration": 240}, {"note": 86, "velocity": 114, "duration": 480}, {"note": 84, "velocity": 108, "duration": 120}, {"note": 82, "velocity": 113, "duration": 360}, {"note": 79, "velocity": 113, "duration": 1200}, {"note": 70, "velocity": 116, "duration": 240}, {"note": 72, "velocity": 113, "duration": 240}, {"note": 75, "velocity": 114, "duration": 720}, {"note": 77, "velocity": 113, "duration": 240}, {"note": 79, "velocity": 108, "duration": 240}, {"note": 74, "velocity": 104, "duration": 239}, {"note": 74, "velocity": 107, "duration": 120}, {"note": 72, "velocity": 93, "duration": 120}, {"note": 70, "velocity": 100, "duration": 240}, {"note": 72, "velocity": 107, "duration": 1440}, {"note": 75, "velocity": 114, "duration": 240}, {"note": 77, "velocity": 107, "duration": 240}, {"note": 79, "velocity": 113, "duration": 720}, {"note": 82, "velocity": 113, "duration": 240}, {"note": 84, "velocity": 110, "duration": 240}, {"note": 75, "velocity": 113, "duration": 251}, {"note": 77, "velocity": 102, "duration": 128}, {"note": 79, "velocity": 102, "duration": 120}, {"note": 80, "velocity": 97, "duration": 240}, {"note": 79, "velocity": 107, "duration": 1439}, {"note": 79, "velocity": 113, "duration": 240}, {"note": 82, "velocity": 113, "duration": 240}, {"note": 84, "velocity": 117, "duration": 720}, {"note": 82, "velocity": 116, "duration": 240}, {"note": 84, "velocity": 116, "duration": 480}, {"note": 72, "velocity": 116, "duration": 240}, {"note": 79, "velocity": 116, "duration": 240}, {"note": 77, "velocity": 119, "duration": 720}, {"note": 75, "velocity": 116, "duration": 240}, {"note": 77, "velocity": 114, "duration": 480}, {"note": 77, "velocity": 116, "duration": 240}, {"note": 79, "velocity": 113, "duration": 240}, {"note": 70, "velocity": 116, "duration": 720}, {"note": 72, "velocity": 114, "duration": 240}, {"note": 74, "velocity": 110, "duration": 249}, {"note": 77, "velocity": 113, "duration": 240}, {"note": 79, "velocity": 104, "duration": 240}, {"note": 72, "velocity": 116, "duration": 240}, {"note": 75, "velocity": 116, "duration": 1958}, {"note": 0, "velocity": 0, "duration": 240}, {"note": 82, "velocity": 110, "duration": 239}, {"note": 82, "velocity": 119, "duration": 240}, {"note": 84, "velocity": 117, "duration": 240}, {"note": 87, "velocity": 120, "duration": 240}, {"note": 86, "velocity": 120, "duration": 360}, {"note": 84, "velocity": 117, "duration": 240}, {"note": 82, "velocity": 114, "duration": 138}, {"note": 84, "velocity": 117, "duration": 2160}, {"note": 82, "velocity": 113, "duration": 239}, {"note": 82, "velocity": 113, "duration": 240}, {"note": 84, "velocity": 117, "duration": 240}, {"note": 87, "velocity": 110, "duration": 240}, {"note": 86, "velocity": 114, "duration": 480}, {"note": 84, "velocity": 108, "duration": 120}, {"note": 82, "velocity": 113, "duration": 360}, {"note": 79, "velocity": 113, "duration": 1200}, {"note": 70, "velocity": 116, "duration": 240}, {"note": 72, "velocity": 113, "duration": 240}, {"note": 75, "velocity": 114, "duration": 720}, {"note": 77, "velocity": 113, "duration": 240}, {"note": 79, "velocity": 108, "duration": 240}, {"note": 74, "velocity": 104, "duration": 239}, {"note": 74, "velocity": 107, "duration": 120}, {"note": 72, "velocity": 93, "duration": 120}, {"note": 70, "velocity": 100, "duration": 240}, {"note": 72, "velocity": 107, "duration": 1440}, {"note": 75, "velocity": 114, "duration": 240}, {"note": 77, "velocity": 107, "duration": 240}, {"note": 79, "velocity": 113, "duration": 720}, {"note": 82, "velocity": 113, "duration": 240}, {"note": 84, "velocity": 110, "duration": 240}, {"note": 75, "velocity": 113, "duration": 251}, {"note": 77, "velocity": 102, "duration": 128}, {"note": 79, "velocity": 102, "duration": 120}, {"note": 80, "velocity": 97, "duration": 240}, {"note": 79, "velocity": 107, "duration": 1439}, {"note": 79, "velocity": 113, "duration": 240}, {"note": 82, "velocity": 113, "duration": 240}, {"note": 84, "velocity": 117, "duration": 720}, {"note": 82, "velocity": 116, "duration": 240}, {"note": 84, "velocity": 116, "duration": 480}, {"note": 72, "velocity": 116, "duration": 240}, {"note": 79, "velocity": 116, "duration": 240}, {"note": 77, "velocity": 119, "duration": 720}, {"note": 75, "velocity": 116, "duration": 240}, {"note": 77, "velocity": 114, "duration": 480}, {"note": 77, "velocity": 116, "duration": 240}, {"note": 79, "velocity": 113, "duration": 240}, {"note": 70, "velocity": 116, "duration": 720}, {"note": 72, "velocity": 114, "duration": 240}, {"note": 74, "velocity": 110, "duration": 248}, {"note": 77, "velocity": 113, "duration": 240}, {"note": 79, "velocity": 104, "duration": 240}, {"note": 72, "velocity": 116, "duration": 240}, {"note": 75, "velocity": 116, "duration": 1957}, {"note": 79, "velocity": 104, "duration": 430}, {"note": 70, "velocity": 116, "duration": 709}, {"note": 72, "velocity": 104, "duration": 238}, {"note": 74, "velocity": 108, "duration": 243}, {"note": 77, "velocity": 100, "duration": 237}, {"note": 79, "velocity": 110, "duration": 249}, {"note": 72, "velocity": 88, "duration": 241}, {"note": 75, "velocity": 108, "duration": 1899}, {"note": 74, "velocity": 117, "duration": 918}, {"note": 79, "velocity": 114, "duration": 1207}, {"note": 75, "velocity": 108, "duration": 1366}]]