[[{"note": 74, "velocity": 84, "duration": 139}, {"note": 72, "velocity": 79, "duration": 80}, {"note": 72, "velocity": 82, "duration": 225}, {"note": 74, "velocity": 81, "duration": 106}, {"note": 69, "velocity": 83, "duration": 476}, {"note": 0, "velocity": 0, "duration": 124}, {"note": 67, "velocity": 83, "duration": 260}, {"note": 65, "velocity": 82, "duration": 139}, {"note": 69, "velocity": 83, "duration": 1103}, {"note": 0, "velocity": 0, "duration": 1177}, {"note": 74, "velocity": 86, "duration": 71}, {"note": 74, "velocity": 85, "duration": 86}, {"note": 74, "velocity": 89, "duration": 242}, {"note": 76, "velocity": 81, "duration": 141}, {"note": 74, "velocity": 93, "duration": 248}, {"note": 72, "velocity": 82, "duration": 264}, {"note": 0, "velocity": 0, "duration": 96}, {"note": 72, "velocity": 87, "duration": 247}, {"note": 74, "velocity": 83, "duration": 130}, {"note": 69, "velocity": 83, "duration": 1113}, {"note": 0, "velocity": 0, "duration": 807}, {"note": 69, "velocity": 83, "duration": 112}, {"note": 67, "velocity": 75, "duration": 107}, {"note": 65, "velocity": 83, "duration": 71}, {"note": 65, "velocity": 82, "duration": 105}, {"note": 62, "velocity": 67, "duration": 121}, {"note": 65, "velocity": 83, "duration": 251}, {"note": 62, "velocity": 79, "duration": 118}, {"note": 65, "velocity": 82, "duration": 551}, {"note": 62, "velocity": 83, "duration": 226}, {"note": 65, "velocity": 78, "duration": 262}, {"note": 69, "velocity": 86, "duration": 117}, {"note": 67, "velocity": 71, "duration": 73}, {"note": 67, "velocity": 78, "duration": 92}, {"note": 65, "velocity": 80, "duration": 79}, {"note": 67, "velocity": 81, "duration": 254}, {"note": 69, "velocity": 74, "duration": 121}, {"note": 67, "velocity": 82, "duration": 517}, {"note": 0, "velocity": 0, "duration": 83}, {"note": 69, "velocity": 83, "duration": 123}, {"note": 67, "velocity": 82, "duration": 132}, {"note": 65, "velocity": 83, "duration": 121}, {"note": 69, "velocity": 80, "duration": 1755}, {"note": 0, "velocity": 0, "duration": 525}, {"note": 74, "velocity": 84, "duration": 139}, {"note": 72, "velocity": 79, "duration": 80}, {"note": 72, "velocity": 82, "duration": 225}, {"note": 74, "velocity": 81, "duration": 106}, {"note": 69, "velocity": 83, "duration": 476}, {"note": 0, "velocity": 0, "duration": 124}, {"note": 67, "velocity": 83, "duration": 260}, {"note": 65, "velocity": 82, "duration": 139}, {"note": 69, "velocity": 83, "duration": 1103}, {"note": 0, "velocity": 0, "duration": 1177}, {"note": 74, "velocity": 86, "duration": 71}, {"note": 74, "velocity": 85, "duration": 86}, {"note": 74, "velocity": 89, "duration": 242}, {"note": 76, "velocity": 81, "duration": 141}, {"note": 74, "velocity": 93, "duration": 248}, {"note": 72, "velocity": 82, "duration": 264}, {"note": 0, "velocity": 0, "duration": 96}, {"note": 72, "velocity": 87, "duration": 247}, {"note": 74, "velocity": 83, "duration": 130}, {"note": 69, "velocity": 83, "duration": 1113}, {"note": 0, "velocity": 0, "duration": 807}, {"note": 69, "velocity": 83, "duration": 112}, {"note": 67, "velocity": 75, "duration": 107}, {"note": 65, "velocity": 83, "duration": 71}, {"note": 65, "velocity": 82, "duration": 105}, {"note": 62, "velocity": 67, "duration": 121}, {"note": 65, "velocity": 83, "duration": 251}, {"note": 62, "velocity": 79, "duration": 118}, {"note": 65, "velocity": 82, "duration": 551}, {"note": 62, "velocity": 83, "duration": 226}, {"note": 65, "velocity": 78, "duration": 262}, {"note": 69, "velocity": 86, "duration": 117}, {"note": 67, "velocity": 71, "duration": 73}, {"note": 67, "velocity": 78, "duration": 92}, {"note": 65, "velocity": 80, "duration": 79}, {"note": 67, "velocity": 81, "duration": 254}, {"note": 69, "velocity": 74, "duration": 121}, {"note": 67, "velocity": 82, "duration": 517}, {"note": 0, "velocity": 0, "duration": 83}, {"note": 69, "velocity": 83, "duration": 123}, {"note": 72, "velocity": 82, "duration": 132}, {"note": 69, "velocity": 83, "duration": 121}, {"note": 74, "velocity": 80, "duration": 1755}, {"note": 0, "velocity": 0, "duration": 525}, {"note": 74, "velocity": 91, "duration": 70}, {"note": 74, "velocity": 86, "duration": 71}, {"note": 74, "velocity": 93, "duration": 188}, {"note": 74, "velocity": 87, "duration": 94}, {"note": 76, "velocity": 87, "duration": 343}, {"note": 76, "velocity": 84, "duration": 147}, {"note": 0, "velocity": 0, "duration": 62}, {"note": 74, "velocity": 89, "duration": 117}, {"note": 76, "velocity": 84, "duration": 251}, {"note": 74, "velocity": 88, "duration": 117}, {"note": 72, "velocity": 83, "duration": 718}, {"note": 69, "velocity": 84, "duration": 148}, {"note": 74, "velocity": 91, "duration": 1090}, {"note": 0, "velocity": 0, "duration": 230}, {"note": 74, "velocity": 88, "duration": 65}, {"note": 74, "velocity": 86, "duration": 68}, {"note": 74, "velocity": 96, "duration": 233}, {"note": 77, "velocity": 78, "duration": 125}, {"note": 79, "velocity": 83, "duration": 310}, {"note": 76, "velocity": 82, "duration": 217}, {"note": 74, "velocity": 79, "duration": 92}, {"note": 76, "velocity": 84, "duration": 200}, {"note": 74, "velocity": 77, "duration": 120}, {"note": 72, "velocity": 84, "duration": 1200}, {"note": 0, "velocity": 0, "duration": 600}, {"note": 69, "velocity": 78, "duration": 123}, {"note": 70, "velocity": 83, "duration": 131}, {"note": 69, "velocity": 82, "duration": 135}, {"note": 70, "velocity": 83, "duration": 136}, {"note": 69, "velocity": 86, "duration": 144}, {"note": 70, "velocity": 85, "duration": 280}, {"note": 69, "velocity": 83, "duration": 134}, {"note": 72, "velocity": 86, "duration": 379}, {"note": 70, "velocity": 86, "duration": 345}, {"note": 0, "velocity": 0, "duration": 135}, {"note": 73, "velocity": 86, "duration": 130}, {"note": 74, "velocity": 83, "duration": 147}, {"note": 76, "velocity": 78, "duration": 245}, {"note": 69, "velocity": 76, "duration": 288}, {"note": 79, "velocity": 86, "duration": 240}, {"note": 76, "velocity": 82, "duration": 144}, {"note": 77, "velocity": 83, "duration": 360}, {"note": 74, "velocity": 89, "duration": 390}, {"note": 0, "velocity": 0, "duration": 90}, {"note": 74, "velocity": 87, "duration": 105}, {"note": 72, "velocity": 85, "duration": 148}, {"note": 74, "velocity": 87, "duration": 164}, {"note": 0, "velocity": 0, "duration": 76}, {"note": 74, "velocity": 86, "duration": 89}, {"note": 72, "velocity": 82, "duration": 89}, {"note": 74, "velocity": 96, "duration": 228}, {"note": 72, "velocity": 85, "duration": 97}, {"note": 74, "velocity": 98, "duration": 310}, {"note": 74, "velocity": 91, "duration": 248}, {"note": 76, "velocity": 84, "duration": 144}, {"note": 77, "velocity": 83, "duration": 363}, {"note": 76, "velocity": 82, "duration": 1815}, {"note": 0, "velocity": 0, "duration": 345}, {"note": 77, "velocity": 89, "duration": 68}, {"note": 77, "velocity": 83, "duration": 65}, {"note": 77, "velocity": 86, "duration": 174}, {"note": 0, "velocity": 0, "duration": 66}, {"note": 77, "velocity": 83, "duration": 86}, {"note": 79, "velocity": 85, "duration": 318}, {"note": 76, "velocity": 84, "duration": 234}, {"note": 74, "velocity": 86, "duration": 240}, {"note": 72, "velocity": 83, "duration": 131}, {"note": 74, "velocity": 87, "duration": 306}, {"note": 74, "velocity": 86, "duration": 199}, {"note": 72, "velocity": 82, "duration": 231}, {"note": 70, "velocity": 83, "duration": 107}, {"note": 72, "velocity": 83, "duration": 908}, {"note": 0, "velocity": 0, "duration": 412}, {"note": 77, "velocity": 88, "duration": 75}, {"note": 77, "velocity": 85, "duration": 65}, {"note": 77, "velocity": 86, "duration": 202}, {"note": 79, "velocity": 83, "duration": 97}, {"note": 76, "velocity": 88, "duration": 295}, {"note": 0, "velocity": 0, "duration": 65}, {"note": 76, "velocity": 86, "duration": 211}, {"note": 74, "velocity": 93, "duration": 225}, {"note": 72, "velocity": 83, "duration": 179}, {"note": 0, "velocity": 0, "duration": 61}, {"note": 74, "velocity": 93, "duration": 94}, {"note": 77, "velocity": 86, "duration": 70}, {"note": 77, "velocity": 80, "duration": 64}, {"note": 77, "velocity": 80, "duration": 74}, {"note": 77, "velocity": 88, "duration": 253}, {"note": 74, "velocity": 84, "duration": 109}, {"note": 79, "velocity": 83, "duration": 1060}, {"note": 0, "velocity": 0, "duration": 260}, {"note": 77, "velocity": 89, "duration": 68}, {"note": 77, "velocity": 83, "duration": 65}, {"note": 77, "velocity": 86, "duration": 174}, {"note": 0, "velocity": 0, "duration": 66}, {"note": 77, "velocity": 83, "duration": 86}, {"note": 79, "velocity": 85, "duration": 318}, {"note": 76, "velocity": 84, "duration": 234}, {"note": 74, "velocity": 86, "duration": 240}, {"note": 72, "velocity": 83, "duration": 131}, {"note": 74, "velocity": 87, "duration": 306}, {"note": 74, "velocity": 86, "duration": 199}, {"note": 72, "velocity": 82, "duration": 231}, {"note": 70, "velocity": 83, "duration": 107}, {"note": 72, "velocity": 83, "duration": 908}, {"note": 0, "velocity": 0, "duration": 412}, {"note": 77, "velocity": 88, "duration": 75}, {"note": 77, "velocity": 85, "duration": 65}, {"note": 77, "velocity": 86, "duration": 202}, {"note": 79, "velocity": 83, "duration": 97}, {"note": 76, "velocity": 88, "duration": 295}, {"note": 0, "velocity": 0, "duration": 65}, {"note": 76, "velocity": 86, "duration": 211}, {"note": 74, "velocity": 93, "duration": 225}, {"note": 72, "velocity": 83, "duration": 179}, {"note": 0, "velocity": 0, "duration": 61}, {"note": 74, "velocity": 93, "duration": 94}, {"note": 77, "velocity": 86, "duration": 70}, {"note": 77, "velocity": 80, "duration": 64}, {"note": 77, "velocity": 80, "duration": 74}, {"note": 77, "velocity": 88, "duration": 253}, {"note": 74, "velocity": 84, "duration": 109}, {"note": 79, "velocity": 83, "duration": 1060}, {"note": 0, "velocity": 0, "duration": 740}, {"note": 77, "velocity": 83, "duration": 118}, {"note": 76, "velocity": 86, "duration": 132}, {"note": 77, "velocity": 82, "duration": 1604}, {"note": 0, "velocity": 0, "duration": 21676}, {"note": 74, "velocity": 84, "duration": 139}, {"note": 72, "velocity": 79, "duration": 80}, {"note": 72, "velocity": 82, "duration": 225}, {"note": 74, "velocity": 81, "duration": 106}, {"note": 69, "velocity": 83, "duration": 476}, {"note": 0, "velocity": 0, "duration": 124}, {"note": 67, "velocity": 83, "duration": 260}, {"note": 65, "velocity": 82, "duration": 139}, {"note": 69, "velocity": 83, "duration": 1103}, {"note": 0, "velocity": 0, "duration": 1177}, {"note": 74, "velocity": 86, "duration": 71}, {"note": 74, "velocity": 85, "duration": 86}, {"note": 74, "velocity": 89, "duration": 242}, {"note": 76, "velocity": 81, "duration": 141}, {"note": 74, "velocity": 93, "duration": 248}, {"note": 72, "velocity": 82, "duration": 264}, {"note": 0, "velocity": 0, "duration": 96}, {"note": 72, "velocity": 87, "duration": 247}, {"note": 74, "velocity": 83, "duration": 130}, {"note": 69, "velocity": 83, "duration": 1113}, {"note": 0, "velocity": 0, "duration": 807}, {"note": 69, "velocity": 83, "duration": 112}, {"note": 67, "velocity": 75, "duration": 107}, {"note": 65, "velocity": 83, "duration": 71}, {"note": 65, "velocity": 82, "duration": 105}, {"note": 62, "velocity": 67, "duration": 121}, {"note": 65, "velocity": 83, "duration": 251}, {"note": 62, "velocity": 79, "duration": 118}, {"note": 65, "velocity": 82, "duration": 551}, {"note": 62, "velocity": 83, "duration": 226}, {"note": 65, "velocity": 78, "duration": 262}, {"note": 69, "velocity": 86, "duration": 117}, {"note": 67, "velocity": 71, "duration": 73}, {"note": 67, "velocity": 78, "duration": 92}, {"note": 65, "velocity": 80, "duration": 79}, {"note": 67, "velocity": 81, "duration": 254}, {"note": 69, "velocity": 74, "duration": 121}, {"note": 67, "velocity": 82, "duration": 517}, {"note": 0, "velocity": 0, "duration": 83}, {"note": 69, "velocity": 83, "duration": 123}, {"note": 72, "velocity": 82, "duration": 132}, {"note": 69, "velocity": 83, "duration": 121}, {"note": 74, "velocity": 80, "duration": 1755}, {"note": 0, "velocity": 0, "duration": 525}, {"note": 74, "velocity": 91, "duration": 70}, {"note": 74, "velocity": 86, "duration": 71}, {"note": 74, "velocity": 93, "duration": 188}, {"note": 74, "velocity": 87, "duration": 94}, {"note": 76, "velocity": 87, "duration": 343}, {"note": 76, "velocity": 84, "duration": 147}, {"note": 0, "velocity": 0, "duration": 62}, {"note": 74, "velocity": 89, "duration": 117}, {"note": 76, "velocity": 84, "duration": 251}, {"note": 74, "velocity": 88, "duration": 117}, {"note": 72, "velocity": 83, "duration": 718}, {"note": 69, "velocity": 84, "duration": 148}, {"note": 74, "velocity": 91, "duration": 1090}, {"note": 0, "velocity": 0, "duration": 230}, {"note": 74, "velocity": 88, "duration": 65}, {"note": 74, "velocity": 86, "duration": 68}, {"note": 74, "velocity": 96, "duration": 233}, {"note": 77, "velocity": 78, "duration": 125}, {"note": 79, "velocity": 83, "duration": 310}, {"note": 76, "velocity": 82, "duration": 217}, {"note": 74, "velocity": 79, "duration": 92}, {"note": 76, "velocity": 84, "duration": 200}, {"note": 74, "velocity": 77, "duration": 120}, {"note": 72, "velocity": 84, "duration": 1200}, {"note": 0, "velocity": 0, "duration": 600}, {"note": 69, "velocity": 78, "duration": 123}, {"note": 70, "velocity": 83, "duration": 131}, {"note": 69, "velocity": 82, "duration": 135}, {"note": 70, "velocity": 83, "duration": 136}, {"note": 69, "velocity": 86, "duration": 144}, {"note": 70, "velocity": 85, "duration": 280}, {"note": 69, "velocity": 83, "duration": 134}, {"note": 72, "velocity": 86, "duration": 379}, {"note": 70, "velocity": 86, "duration": 345}, {"note": 0, "velocity": 0, "duration": 135}, {"note": 73, "velocity": 86, "duration": 130}, {"note": 74, "velocity": 83, "duration": 147}, {"note": 76, "velocity": 78, "duration": 245}, {"note": 69, "velocity": 76, "duration": 288}, {"note": 79, "velocity": 86, "duration": 240}, {"note": 76, "velocity": 82, "duration": 144}, {"note": 77, "velocity": 83, "duration": 360}, {"note": 74, "velocity": 89, "duration": 390}, {"note": 0, "velocity": 0, "duration": 90}, {"note": 74, "velocity": 87, "duration": 105}, {"note": 72, "velocity": 85, "duration": 148}, {"note": 74, "velocity": 87, "duration": 164}, {"note": 0, "velocity": 0, "duration": 76}, {"note": 74, "velocity": 86, "duration": 89}, {"note": 72, "velocity": 82, "duration": 89}, {"note": 74, "velocity": 96, "duration": 228}, {"note": 72, "velocity": 85, "duration": 97}, {"note": 74, "velocity": 98, "duration": 310}, {"note": 74, "velocity": 91, "duration": 248}, {"note": 76, "velocity": 84, "duration": 144}, {"note": 77, "velocity": 83, "duration": 363}, {"note": 76, "velocity": 82, "duration": 1815}, {"note": 0, "velocity": 0, "duration": 345}, {"note": 77, "velocity": 89, "duration": 68}, {"note": 77, "velocity": 83, "duration": 65}, {"note": 77, "velocity": 86, "duration": 174}, {"note": 0, "velocity": 0, "duration": 66}, {"note": 77, "velocity": 83, "duration": 86}, {"note": 79, "velocity": 85, "duration": 318}, {"note": 76, "velocity": 84, "duration": 234}, {"note": 74, "velocity": 86, "duration": 240}, {"note": 72, "velocity": 83, "duration": 131}, {"note": 74, "velocity": 87, "duration": 306}, {"note": 74, "velocity": 86, "duration": 199}, {"note": 72, "velocity": 82, "duration": 231}, {"note": 70, "velocity": 83, "duration": 107}, {"note": 72, "velocity": 83, "duration": 908}, {"note": 0, "velocity": 0, "duration": 412}, {"note": 77, "velocity": 88, "duration": 75}, {"note": 77, "velocity": 85, "duration": 65}, {"note": 77, "velocity": 86, "duration": 202}, {"note": 79, "velocity": 83, "duration": 97}, {"note": 76, "velocity": 88, "duration": 295}, {"note": 0, "velocity": 0, "duration": 65}, {"note": 76, "velocity": 86, "duration": 211}, {"note": 74, "velocity": 93, "duration": 225}, {"note": 72, "velocity": 83, "duration": 179}, {"note": 0, "velocity": 0, "duration": 61}, {"note": 74, "velocity": 93, "duration": 94}, {"note": 77, "velocity": 86, "duration": 70}, {"note": 77, "velocity": 80, "duration": 64}, {"note": 77, "velocity": 80, "duration": 74}, {"note": 77, "velocity": 88, "duration": 253}, {"note": 74, "velocity": 84, "duration": 109}, {"note": 79, "velocity": 83, "duration": 1060}, {"note": 0, "velocity": 0, "duration": 260}, {"note": 77, "velocity": 89, "duration": 68}, {"note": 77, "velocity": 83, "duration": 65}, {"note": 77, "velocity": 86, "duration": 174}, {"note": 0, "velocity": 0, "duration": 66}, {"note": 77, "velocity": 83, "duration": 86}, {"note": 79, "velocity": 85, "duration": 318}, {"note": 76, "velocity": 84, "duration": 234}, {"note": 74, "velocity": 86, "duration": 240}, {"note": 72, "velocity": 83, "duration": 131}, {"note": 74, "velocity": 87, "duration": 306}, {"note": 74, "velocity": 86, "duration": 199}, {"note": 72, "velocity": 82, "duration": 231}, {"note": 70, "velocity": 83, "duration": 107}, {"note": 72, "velocity": 83, "duration": 908}, {"note": 0, "velocity": 0, "duration": 412}, {"note": 77, "velocity": 88, "duration": 75}, {"note": 77, "velocity": 85, "duration": 65}, {"note": 77, "velocity": 86, "duration": 202}, {"note": 79, "velocity": 83, "duration": 97}, {"note": 76, "velocity": 88, "duration": 295}, {"note": 0, "velocity": 0, "duration": 65}, {"note": 76, "velocity": 86, "duration": 211}, {"note": 74, "velocity": 93, "duration": 225}, {"note": 72, "velocity": 83, "duration": 179}, {"note": 0, "velocity": 0, "duration": 61}, {"note": 74, "velocity": 93, "duration": 94}, {"note": 77, "velocity": 86, "duration": 70}, {"note": 77, "velocity": 80, "duration": 64}, {"note": 77, "velocity": 80, "duration": 74}, {"note": 77, "velocity": 88, "duration": 253}, {"note": 74, "velocity": 84, "duration": 109}, {"note": 79, "velocity": 83, "duration": 1060}, {"note": 0, "velocity": 0, "duration": 260}, {"note": 77, "velocity": 89, "duration": 68}, {"note": 77, "velocity": 83, "duration": 65}, {"note": 77, "velocity": 86, "duration": 174}, {"note": 0, "velocity": 0, "duration": 66}, {"note": 77, "velocity": 83, "duration": 86}, {"note": 79, "velocity": 85, "duration": 318}, {"note": 76, "velocity": 84, "duration": 234}, {"note": 74, "velocity": 86, "duration": 240}, {"note": 72, "velocity": 83, "duration": 131}, {"note": 74, "velocity": 87, "duration": 306}, {"note": 74, "velocity": 86, "duration": 199}, {"note": 72, "velocity": 82, "duration": 231}, {"note": 70, "velocity": 83, "duration": 107}, {"note": 72, "velocity": 83, "duration": 908}, {"note": 0, "velocity": 0, "duration": 412}, {"note": 77, "velocity": 88, "duration": 75}, {"note": 77, "velocity": 85, "duration": 65}, {"note": 77, "velocity": 86, "duration": 202}, {"note": 79, "velocity": 83, "duration": 97}, {"note": 76, "velocity": 88, "duration": 295}, {"note": 0, "velocity": 0, "duration": 65}, {"note": 76, "velocity": 86, "duration": 211}, {"note": 74, "velocity": 93, "duration": 225}, {"note": 72, "velocity": 83, "duration": 179}, {"note": 0, "velocity": 0, "duration": 61}, {"note": 74, "velocity": 93, "duration": 94}, {"note": 77, "velocity": 86, "duration": 70}, {"note": 77, "velocity": 80, "duration": 64}, {"note": 77, "velocity": 80, "duration": 74}, {"note": 77, "velocity": 88, "duration": 253}, {"note": 74, "velocity": 84, "duration": 109}, {"note": 79, "velocity": 83, "duration": 1060}, {"note": 0, "velocity": 0, "duration": 260}, {"note": 77, "velocity": 89, "duration": 68}, {"note": 77, "velocity": 83, "duration": 65}, {"note": 77, "velocity": 86, "duration": 174}, {"note": 0, "velocity": 0, "duration": 66}, {"note": 77, "velocity": 83, "duration": 86}, {"note": 79, "velocity": 85, "duration": 318}, {"note": 76, "velocity": 84, "duration": 234}, {"note": 74, "velocity": 86, "duration": 240}, {"note": 72, "velocity": 83, "duration": 131}, {"note": 74, "velocity": 87, "duration": 306}, {"note": 74, "velocity": 86, "duration": 199}, {"note": 72, "velocity": 82, "duration": 231}, {"note": 70, "velocity": 83, "duration": 107}, {"note": 72, "velocity": 83, "duration": 908}, {"note": 0, "velocity": 0, "duration": 412}, {"note": 77, "velocity": 88, "duration": 75}, {"note": 77, "velocity": 85, "duration": 65}, {"note": 77, "velocity": 86, "duration": 202}, {"note": 79, "velocity": 83, "duration": 97}, {"note": 76, "velocity": 88, "duration": 295}, {"note": 0, "velocity": 0, "duration": 65}, {"note": 76, "velocity": 86, "duration": 211}, {"note": 74, "velocity": 93, "duration": 225}, {"note": 72, "velocity": 83, "duration": 179}, {"note": 0, "velocity": 0, "duration": 61}, {"note": 74, "velocity": 93, "duration": 94}, {"note": 77, "velocity": 86, "duration": 70}, {"note": 77, "velocity": 80, "duration": 64}, {"note": 77, "velocity": 80, "duration": 74}, {"note": 77, "velocity": 88, "duration": 253}, {"note": 74, "velocity": 84, "duration": 109}, {"note": 79, "velocity": 83, "duration": 1060}, {"note": 0, "velocity": 0, "duration": 740}, {"note": 77, "velocity": 83, "duration": 118}, {"note": 76, "velocity": 86, "duration": 132}, {"note": 77, "velocity": 82, "duration": 1604}]]