[[{"note": 77, "velocity": 117, "duration": 124}, {"note": 78, "velocity": 87, "duration": 141}, {"note": 77, "velocity": 102, "duration": 123}, {"note": 70, "velocity": 100, "duration": 120}, {"note": 73, "velocity": 100, "duration": 251}, {"note": 75, "velocity": 113, "duration": 240}, {"note": 72, "velocity": 110, "duration": 840}, {"note": 68, "velocity": 102, "duration": 120}, {"note": 75, "velocity": 114, "duration": 120}, {"note": 77, "velocity": 100, "duration": 120}, {"note": 75, "velocity": 102, "duration": 120}, {"note": 68, "velocity": 88, "duration": 120}, {"note": 72, "velocity": 102, "duration": 240}, {"note": 73, "velocity": 98, "duration": 240}, {"note": 70, "velocity": 102, "duration": 839}, {"note": 70, "velocity": 96, "duration": 120}, {"note": 77, "velocity": 110, "duration": 240}, {"note": 75, "velocity": 102, "duration": 120}, {"note": 77, "velocity": 108, "duration": 240}, {"note": 70, "velocity": 96, "duration": 360}, {"note": 77, "velocity": 113, "duration": 240}, {"note": 75, "velocity": 104, "duration": 120}, {"note": 77, "velocity": 107, "duration": 240}, {"note": 70, "velocity": 102, "duration": 359}, {"note": 68, "velocity": 89, "duration": 120}, {"note": 0, "velocity": 0, "duration": 120}, {"note": 77, "velocity": 107, "duration": 1799}, {"note": 77, "velocity": 116, "duration": 119}, {"note": 78, "velocity": 91, "duration": 133}, {"note": 77, "velocity": 104, "duration": 120}, {"note": 70, "velocity": 102, "duration": 120}, {"note": 73, "velocity": 86, "duration": 219}, {"note": 77, "velocity": 110, "duration": 121}, {"note": 72, "velocity": 107, "duration": 961}, {"note": 68, "velocity": 90, "duration": 120}, {"note": 75, "velocity": 98, "duration": 120}, {"note": 77, "velocity": 88, "duration": 132}, {"note": 75, "velocity": 98, "duration": 120}, {"note": 68, "velocity": 98, "duration": 121}, {"note": 72, "velocity": 87, "duration": 240}, {"note": 73, "velocity": 89, "duration": 240}, {"note": 70, "velocity": 89, "duration": 719}, {"note": 70, "velocity": 107, "duration": 121}, {"note": 73, "velocity": 91, "duration": 120}, {"note": 77, "velocity": 113, "duration": 240}, {"note": 75, "velocity": 98, "duration": 120}, {"note": 77, "velocity": 117, "duration": 240}, {"note": 70, "velocity": 108, "duration": 360}, {"note": 77, "velocity": 107, "duration": 240}, {"note": 75, "velocity": 102, "duration": 120}, {"note": 77, "velocity": 91, "duration": 240}, {"note": 80, "velocity": 107, "duration": 360}, {"note": 77, "velocity": 108, "duration": 1679}, {"note": 77, "velocity": 113, "duration": 120}, {"note": 78, "velocity": 100, "duration": 120}, {"note": 80, "velocity": 113, "duration": 239}, {"note": 80, "velocity": 108, "duration": 143}, {"note": 78, "velocity": 110, "duration": 245}, {"note": 77, "velocity": 107, "duration": 240}, {"note": 75, "velocity": 104, "duration": 840}, {"note": 73, "velocity": 107, "duration": 127}, {"note": 75, "velocity": 94, "duration": 120}, {"note": 77, "velocity": 108, "duration": 240}, {"note": 80, "velocity": 107, "duration": 119}, {"note": 80, "velocity": 107, "duration": 240}, {"note": 72, "velocity": 113, "duration": 240}, {"note": 70, "velocity": 114, "duration": 839}, {"note": 70, "velocity": 114, "duration": 120}, {"note": 77, "velocity": 110, "duration": 120}, {"note": 75, "velocity": 113, "duration": 240}, {"note": 73, "velocity": 104, "duration": 120}, {"note": 75, "velocity": 114, "duration": 480}, {"note": 73, "velocity": 94, "duration": 120}, {"note": 75, "velocity": 113, "duration": 240}, {"note": 73, "velocity": 100, "duration": 120}, {"note": 75, "velocity": 113, "duration": 240}, {"note": 77, "velocity": 113, "duration": 240}, {"note": 80, "velocity": 116, "duration": 1920}, {"note": 68, "velocity": 114, "duration": 120}, {"note": 82, "velocity": 104, "duration": 120}, {"note": 80, "velocity": 91, "duration": 119}, {"note": 80, "velocity": 102, "duration": 120}, {"note": 77, "velocity": 102, "duration": 120}, {"note": 80, "velocity": 117, "duration": 240}, {"note": 77, "velocity": 113, "duration": 120}, {"note": 80, "velocity": 117, "duration": 240}, {"note": 77, "velocity": 113, "duration": 120}, {"note": 80, "velocity": 117, "duration": 125}, {"note": 77, "velocity": 110, "duration": 480}, {"note": 68, "velocity": 108, "duration": 120}, {"note": 82, "velocity": 94, "duration": 120}, {"note": 80, "velocity": 85, "duration": 119}, {"note": 80, "velocity": 110, "duration": 120}, {"note": 77, "velocity": 100, "duration": 120}, {"note": 80, "velocity": 119, "duration": 240}, {"note": 84, "velocity": 116, "duration": 240}, {"note": 80, "velocity": 116, "duration": 240}, {"note": 77, "velocity": 113, "duration": 599}, {"note": 77, "velocity": 113, "duration": 120}, {"note": 80, "velocity": 113, "duration": 239}, {"note": 80, "velocity": 110, "duration": 120}, {"note": 73, "velocity": 116, "duration": 480}, {"note": 68, "velocity": 92, "duration": 120}, {"note": 80, "velocity": 107, "duration": 239}, {"note": 80, "velocity": 104, "duration": 120}, {"note": 73, "velocity": 107, "duration": 480}, {"note": 68, "velocity": 110, "duration": 120}, {"note": 78, "velocity": 113, "duration": 480}, {"note": 77, "velocity": 117, "duration": 480}, {"note": 75, "velocity": 119, "duration": 840}, {"note": 68, "velocity": 114, "duration": 120}, {"note": 82, "velocity": 104, "duration": 120}, {"note": 80, "velocity": 91, "duration": 119}, {"note": 80, "velocity": 102, "duration": 120}, {"note": 77, "velocity": 102, "duration": 120}, {"note": 80, "velocity": 117, "duration": 240}, {"note": 77, "velocity": 113, "duration": 120}, {"note": 80, "velocity": 117, "duration": 240}, {"note": 77, "velocity": 113, "duration": 120}, {"note": 80, "velocity": 117, "duration": 125}, {"note": 77, "velocity": 110, "duration": 480}, {"note": 68, "velocity": 108, "duration": 120}, {"note": 82, "velocity": 94, "duration": 120}, {"note": 80, "velocity": 85, "duration": 119}, {"note": 80, "velocity": 110, "duration": 120}, {"note": 77, "velocity": 100, "duration": 120}, {"note": 80, "velocity": 119, "duration": 240}, {"note": 84, "velocity": 116, "duration": 240}, {"note": 80, "velocity": 116, "duration": 157}, {"note": 77, "velocity": 113, "duration": 599}, {"note": 77, "velocity": 114, "duration": 133}, {"note": 78, "velocity": 107, "duration": 120}, {"note": 80, "velocity": 108, "duration": 120}, {"note": 82, "velocity": 108, "duration": 120}, {"note": 80, "velocity": 104, "duration": 120}, {"note": 77, "velocity": 108, "duration": 120}, {"note": 80, "velocity": 117, "duration": 359}, {"note": 80, "velocity": 116, "duration": 240}, {"note": 82, "velocity": 114, "duration": 120}, {"note": 80, "velocity": 114, "duration": 120}, {"note": 77, "velocity": 108, "duration": 120}, {"note": 80, "velocity": 119, "duration": 240}, {"note": 77, "velocity": 113, "duration": 240}, {"note": 75, "velocity": 113, "duration": 720}, {"note": 70, "velocity": 114, "duration": 240}, {"note": 77, "velocity": 114, "duration": 480}, {"note": 75, "velocity": 113, "duration": 480}, {"note": 73, "velocity": 113, "duration": 383}, {"note": 0, "velocity": 0, "duration": 7297}, {"note": 77, "velocity": 117, "duration": 124}, {"note": 78, "velocity": 87, "duration": 141}, {"note": 77, "velocity": 102, "duration": 123}, {"note": 70, "velocity": 100, "duration": 120}, {"note": 73, "velocity": 100, "duration": 240}, {"note": 75, "velocity": 113, "duration": 240}, {"note": 72, "velocity": 110, "duration": 840}, {"note": 68, "velocity": 102, "duration": 120}, {"note": 75, "velocity": 114, "duration": 120}, {"note": 77, "velocity": 100, "duration": 120}, {"note": 75, "velocity": 102, "duration": 120}, {"note": 68, "velocity": 88, "duration": 120}, {"note": 72, "velocity": 102, "duration": 240}, {"note": 73, "velocity": 98, "duration": 240}, {"note": 70, "velocity": 102, "duration": 839}, {"note": 70, "velocity": 96, "duration": 120}, {"note": 77, "velocity": 110, "duration": 240}, {"note": 75, "velocity": 102, "duration": 120}, {"note": 77, "velocity": 108, "duration": 240}, {"note": 70, "velocity": 96, "duration": 360}, {"note": 77, "velocity": 113, "duration": 240}, {"note": 75, "velocity": 104, "duration": 120}, {"note": 77, "velocity": 107, "duration": 240}, {"note": 70, "velocity": 102, "duration": 240}, {"note": 68, "velocity": 89, "duration": 120}, {"note": 77, "velocity": 107, "duration": 1919}, {"note": 77, "velocity": 116, "duration": 129}, {"note": 78, "velocity": 91, "duration": 133}, {"note": 77, "velocity": 104, "duration": 120}, {"note": 70, "velocity": 102, "duration": 120}, {"note": 73, "velocity": 86, "duration": 240}, {"note": 75, "velocity": 110, "duration": 240}, {"note": 72, "velocity": 107, "duration": 840}, {"note": 68, "velocity": 90, "duration": 120}, {"note": 75, "velocity": 98, "duration": 120}, {"note": 77, "velocity": 88, "duration": 132}, {"note": 75, "velocity": 98, "duration": 120}, {"note": 68, "velocity": 98, "duration": 121}, {"note": 72, "velocity": 87, "duration": 240}, {"note": 73, "velocity": 89, "duration": 240}, {"note": 70, "velocity": 89, "duration": 719}, {"note": 70, "velocity": 107, "duration": 121}, {"note": 73, "velocity": 91, "duration": 120}, {"note": 77, "velocity": 113, "duration": 240}, {"note": 75, "velocity": 98, "duration": 120}, {"note": 77, "velocity": 117, "duration": 240}, {"note": 70, "velocity": 108, "duration": 360}, {"note": 77, "velocity": 107, "duration": 240}, {"note": 75, "velocity": 102, "duration": 120}, {"note": 77, "velocity": 91, "duration": 240}, {"note": 80, "velocity": 107, "duration": 360}, {"note": 77, "velocity": 108, "duration": 1679}, {"note": 77, "velocity": 113, "duration": 120}, {"note": 78, "velocity": 100, "duration": 120}, {"note": 80, "velocity": 113, "duration": 239}, {"note": 80, "velocity": 108, "duration": 143}, {"note": 78, "velocity": 110, "duration": 245}, {"note": 77, "velocity": 107, "duration": 240}, {"note": 75, "velocity": 104, "duration": 840}, {"note": 73, "velocity": 107, "duration": 127}, {"note": 75, "velocity": 94, "duration": 120}, {"note": 77, "velocity": 108, "duration": 240}, {"note": 80, "velocity": 107, "duration": 119}, {"note": 80, "velocity": 107, "duration": 240}, {"note": 72, "velocity": 113, "duration": 240}, {"note": 70, "velocity": 114, "duration": 839}, {"note": 70, "velocity": 114, "duration": 120}, {"note": 77, "velocity": 110, "duration": 120}, {"note": 75, "velocity": 113, "duration": 240}, {"note": 73, "velocity": 104, "duration": 120}, {"note": 75, "velocity": 114, "duration": 480}, {"note": 73, "velocity": 94, "duration": 120}, {"note": 75, "velocity": 113, "duration": 240}, {"note": 73, "velocity": 100, "duration": 120}, {"note": 75, "velocity": 113, "duration": 240}, {"note": 77, "velocity": 113, "duration": 240}, {"note": 80, "velocity": 116, "duration": 1920}, {"note": 68, "velocity": 114, "duration": 120}, {"note": 82, "velocity": 104, "duration": 120}, {"note": 80, "velocity": 91, "duration": 119}, {"note": 80, "velocity": 102, "duration": 120}, {"note": 77, "velocity": 102, "duration": 120}, {"note": 80, "velocity": 117, "duration": 240}, {"note": 77, "velocity": 113, "duration": 120}, {"note": 80, "velocity": 117, "duration": 240}, {"note": 77, "velocity": 113, "duration": 120}, {"note": 80, "velocity": 117, "duration": 125}, {"note": 77, "velocity": 110, "duration": 480}, {"note": 68, "velocity": 108, "duration": 120}, {"note": 82, "velocity": 94, "duration": 120}, {"note": 80, "velocity": 85, "duration": 119}, {"note": 80, "velocity": 110, "duration": 120}, {"note": 77, "velocity": 100, "duration": 120}, {"note": 80, "velocity": 119, "duration": 240}, {"note": 84, "velocity": 116, "duration": 240}, {"note": 80, "velocity": 116, "duration": 240}, {"note": 77, "velocity": 113, "duration": 599}, {"note": 77, "velocity": 113, "duration": 120}, {"note": 80, "velocity": 113, "duration": 239}, {"note": 80, "velocity": 110, "duration": 120}, {"note": 73, "velocity": 116, "duration": 480}, {"note": 68, "velocity": 92, "duration": 120}, {"note": 80, "velocity": 107, "duration": 239}, {"note": 80, "velocity": 104, "duration": 120}, {"note": 73, "velocity": 107, "duration": 480}, {"note": 68, "velocity": 110, "duration": 120}, {"note": 78, "velocity": 113, "duration": 480}, {"note": 77, "velocity": 117, "duration": 480}, {"note": 75, "velocity": 119, "duration": 840}, {"note": 68, "velocity": 114, "duration": 120}, {"note": 82, "velocity": 104, "duration": 120}, {"note": 80, "velocity": 91, "duration": 119}, {"note": 80, "velocity": 102, "duration": 120}, {"note": 77, "velocity": 102, "duration": 120}, {"note": 80, "velocity": 117, "duration": 240}, {"note": 77, "velocity": 113, "duration": 120}, {"note": 80, "velocity": 117, "duration": 240}, {"note": 77, "velocity": 113, "duration": 120}, {"note": 80, "velocity": 117, "duration": 125}, {"note": 77, "velocity": 110, "duration": 480}, {"note": 68, "velocity": 108, "duration": 120}, {"note": 82, "velocity": 94, "duration": 120}, {"note": 80, "velocity": 85, "duration": 119}, {"note": 80, "velocity": 110, "duration": 120}, {"note": 77, "velocity": 100, "duration": 120}, {"note": 80, "velocity": 119, "duration": 240}, {"note": 84, "velocity": 116, "duration": 240}, {"note": 80, "velocity": 116, "duration": 157}, {"note": 77, "velocity": 113, "duration": 599}, {"note": 77, "velocity": 114, "duration": 133}, {"note": 78, "velocity": 107, "duration": 120}, {"note": 80, "velocity": 108, "duration": 120}, {"note": 82, "velocity": 108, "duration": 120}, {"note": 80, "velocity": 104, "duration": 120}, {"note": 77, "velocity": 108, "duration": 120}, {"note": 80, "velocity": 117, "duration": 359}, {"note": 80, "velocity": 116, "duration": 240}, {"note": 82, "velocity": 114, "duration": 120}, {"note": 80, "velocity": 114, "duration": 120}, {"note": 77, "velocity": 108, "duration": 120}, {"note": 80, "velocity": 119, "duration": 240}, {"note": 77, "velocity": 113, "duration": 240}, {"note": 75, "velocity": 113, "duration": 720}, {"note": 70, "velocity": 114, "duration": 240}, {"note": 77, "velocity": 114, "duration": 480}, {"note": 75, "velocity": 113, "duration": 480}, {"note": 0, "velocity": 0, "duration": 480}, {"note": 73, "velocity": 100, "duration": 269}]]