[[{"note": 79, "velocity": 113, "duration": 479}, {"note": 0, "velocity": 0, "duration": 241}, {"note": 81, "velocity": 110, "duration": 152}, {"note": 79, "velocity": 92, "duration": 116}, {"note": 77, "velocity": 113, "duration": 486}, {"note": 74, "velocity": 110, "duration": 238}, {"note": 77, "velocity": 93, "duration": 202}, {"note": 72, "velocity": 100, "duration": 390}, {"note": 0, "velocity": 0, "duration": 90}, {"note": 69, "velocity": 104, "duration": 203}, {"note": 72, "velocity": 94, "duration": 157}, {"note": 0, "velocity": 0, "duration": 83}, {"note": 77, "velocity": 102, "duration": 176}, {"note": 0, "velocity": 0, "duration": 784}, {"note": 74, "velocity": 113, "duration": 656}, {"note": 0, "velocity": 0, "duration": 64}, {"note": 77, "velocity": 110, "duration": 201}, {"note": 84, "velocity": 114, "duration": 276}, {"note": 86, "velocity": 104, "duration": 343}, {"note": 0, "velocity": 0, "duration": 137}, {"note": 81, "velocity": 117, "duration": 259}, {"note": 79, "velocity": 113, "duration": 262}, {"note": 0, "velocity": 0, "duration": 1658}, {"note": 81, "velocity": 119, "duration": 448}, {"note": 79, "velocity": 116, "duration": 190}, {"note": 81, "velocity": 113, "duration": 185}, {"note": 84, "velocity": 114, "duration": 383}, {"note": 0, "velocity": 0, "duration": 97}, {"note": 81, "velocity": 110, "duration": 188}, {"note": 0, "velocity": 0, "duration": 292}, {"note": 72, "velocity": 108, "duration": 227}, {"note": 69, "velocity": 102, "duration": 241}, {"note": 72, "velocity": 100, "duration": 198}, {"note": 74, "velocity": 110, "duration": 198}, {"note": 77, "velocity": 108, "duration": 210}, {"note": 0, "velocity": 0, "duration": 750}, {"note": 74, "velocity": 113, "duration": 393}, {"note": 0, "velocity": 0, "duration": 327}, {"note": 77, "velocity": 104, "duration": 166}, {"note": 0, "velocity": 0, "duration": 74}, {"note": 74, "velocity": 110, "duration": 202}, {"note": 72, "velocity": 107, "duration": 351}, {"note": 0, "velocity": 0, "duration": 129}, {"note": 69, "velocity": 107, "duration": 162}, {"note": 0, "velocity": 0, "duration": 78}, {"note": 72, "velocity": 107, "duration": 224}, {"note": 0, "velocity": 0, "duration": 1696}, {"note": 79, "velocity": 113, "duration": 479}, {"note": 0, "velocity": 0, "duration": 241}, {"note": 81, "velocity": 110, "duration": 152}, {"note": 79, "velocity": 92, "duration": 116}, {"note": 77, "velocity": 113, "duration": 486}, {"note": 74, "velocity": 110, "duration": 238}, {"note": 77, "velocity": 93, "duration": 202}, {"note": 72, "velocity": 100, "duration": 390}, {"note": 0, "velocity": 0, "duration": 90}, {"note": 69, "velocity": 104, "duration": 203}, {"note": 72, "velocity": 94, "duration": 157}, {"note": 0, "velocity": 0, "duration": 83}, {"note": 77, "velocity": 102, "duration": 176}, {"note": 0, "velocity": 0, "duration": 784}, {"note": 74, "velocity": 113, "duration": 656}, {"note": 0, "velocity": 0, "duration": 64}, {"note": 77, "velocity": 110, "duration": 201}, {"note": 84, "velocity": 114, "duration": 276}, {"note": 86, "velocity": 104, "duration": 343}, {"note": 0, "velocity": 0, "duration": 137}, {"note": 81, "velocity": 117, "duration": 259}, {"note": 79, "velocity": 113, "duration": 262}, {"note": 0, "velocity": 0, "duration": 1658}, {"note": 81, "velocity": 119, "duration": 448}, {"note": 79, "velocity": 116, "duration": 190}, {"note": 81, "velocity": 113, "duration": 185}, {"note": 84, "velocity": 114, "duration": 383}, {"note": 0, "velocity": 0, "duration": 97}, {"note": 81, "velocity": 110, "duration": 188}, {"note": 0, "velocity": 0, "duration": 292}, {"note": 72, "velocity": 108, "duration": 227}, {"note": 69, "velocity": 102, "duration": 241}, {"note": 72, "velocity": 100, "duration": 198}, {"note": 74, "velocity": 110, "duration": 198}, {"note": 77, "velocity": 108, "duration": 210}, {"note": 0, "velocity": 0, "duration": 750}, {"note": 74, "velocity": 113, "duration": 393}, {"note": 0, "velocity": 0, "duration": 327}, {"note": 77, "velocity": 104, "duration": 166}, {"note": 0, "velocity": 0, "duration": 74}, {"note": 74, "velocity": 110, "duration": 202}, {"note": 72, "velocity": 107, "duration": 351}, {"note": 0, "velocity": 0, "duration": 129}, {"note": 69, "velocity": 107, "duration": 162}, {"note": 0, "velocity": 0, "duration": 78}, {"note": 72, "velocity": 107, "duration": 224}, {"note": 0, "velocity": 0, "duration": 1696}, {"note": 79, "velocity": 116, "duration": 371}, {"note": 0, "velocity": 0, "duration": 109}, {"note": 79, "velocity": 117, "duration": 172}, {"note": 0, "velocity": 0, "duration": 68}, {"note": 81, "velocity": 114, "duration": 154}, {"note": 0, "velocity": 0, "duration": 86}, {"note": 84, "velocity": 117, "duration": 402}, {"note": 0, "velocity": 0, "duration": 78}, {"note": 86, "velocity": 116, "duration": 238}, {"note": 84, "velocity": 110, "duration": 204}, {"note": 82, "velocity": 119, "duration": 381}, {"note": 0, "velocity": 0, "duration": 339}, {"note": 84, "velocity": 117, "duration": 157}, {"note": 0, "velocity": 0, "duration": 83}, {"note": 84, "velocity": 120, "duration": 194}, {"note": 0, "velocity": 0, "duration": 766}, {"note": 84, "velocity": 117, "duration": 218}, {"note": 86, "velocity": 102, "duration": 189}, {"note": 84, "velocity": 113, "duration": 208}, {"note": 81, "velocity": 116, "duration": 236}, {"note": 79, "velocity": 117, "duration": 205}, {"note": 81, "velocity": 104, "duration": 202}, {"note": 77, "velocity": 108, "duration": 237}, {"note": 74, "velocity": 100, "duration": 173}, {"note": 0, "velocity": 0, "duration": 67}, {"note": 79, "velocity": 114, "duration": 218}, {"note": 0, "velocity": 0, "duration": 1702}, {"note": 81, "velocity": 114, "duration": 424}, {"note": 79, "velocity": 110, "duration": 184}, {"note": 81, "velocity": 117, "duration": 143}, {"note": 0, "velocity": 0, "duration": 97}, {"note": 84, "velocity": 114, "duration": 171}, {"note": 0, "velocity": 0, "duration": 309}, {"note": 81, "velocity": 113, "duration": 200}, {"note": 0, "velocity": 0, "duration": 280}, {"note": 72, "velocity": 113, "duration": 230}, {"note": 69, "velocity": 107, "duration": 219}, {"note": 72, "velocity": 113, "duration": 216}, {"note": 74, "velocity": 113, "duration": 230}, {"note": 77, "velocity": 116, "duration": 230}, {"note": 0, "velocity": 0, "duration": 730}, {"note": 74, "velocity": 117, "duration": 250}, {"note": 0, "velocity": 0, "duration": 470}, {"note": 77, "velocity": 117, "duration": 141}, {"note": 0, "velocity": 0, "duration": 99}, {"note": 79, "velocity": 119, "duration": 170}, {"note": 0, "velocity": 0, "duration": 70}, {"note": 74, "velocity": 96, "duration": 121}, {"note": 0, "velocity": 0, "duration": 119}, {"note": 77, "velocity": 104, "duration": 146}, {"note": 0, "velocity": 0, "duration": 94}, {"note": 81, "velocity": 108, "duration": 162}, {"note": 0, "velocity": 0, "duration": 78}, {"note": 79, "velocity": 116, "duration": 168}, {"note": 0, "velocity": 0, "duration": 1752}, {"note": 79, "velocity": 116, "duration": 371}, {"note": 0, "velocity": 0, "duration": 109}, {"note": 79, "velocity": 117, "duration": 172}, {"note": 0, "velocity": 0, "duration": 68}, {"note": 81, "velocity": 114, "duration": 154}, {"note": 0, "velocity": 0, "duration": 86}, {"note": 84, "velocity": 117, "duration": 402}, {"note": 0, "velocity": 0, "duration": 78}, {"note": 86, "velocity": 116, "duration": 238}, {"note": 84, "velocity": 110, "duration": 204}, {"note": 82, "velocity": 119, "duration": 381}, {"note": 0, "velocity": 0, "duration": 339}, {"note": 84, "velocity": 117, "duration": 157}, {"note": 0, "velocity": 0, "duration": 83}, {"note": 84, "velocity": 120, "duration": 194}, {"note": 0, "velocity": 0, "duration": 766}, {"note": 84, "velocity": 117, "duration": 218}, {"note": 86, "velocity": 102, "duration": 189}, {"note": 84, "velocity": 113, "duration": 208}, {"note": 81, "velocity": 116, "duration": 236}, {"note": 79, "velocity": 117, "duration": 205}, {"note": 81, "velocity": 104, "duration": 202}, {"note": 77, "velocity": 108, "duration": 237}, {"note": 74, "velocity": 100, "duration": 173}, {"note": 0, "velocity": 0, "duration": 67}, {"note": 79, "velocity": 114, "duration": 218}, {"note": 0, "velocity": 0, "duration": 1702}, {"note": 81, "velocity": 114, "duration": 424}, {"note": 79, "velocity": 110, "duration": 184}, {"note": 81, "velocity": 117, "duration": 143}, {"note": 0, "velocity": 0, "duration": 97}, {"note": 84, "velocity": 114, "duration": 171}, {"note": 0, "velocity": 0, "duration": 309}, {"note": 81, "velocity": 113, "duration": 200}, {"note": 0, "velocity": 0, "duration": 280}, {"note": 72, "velocity": 113, "duration": 230}, {"note": 69, "velocity": 107, "duration": 219}, {"note": 72, "velocity": 113, "duration": 216}, {"note": 74, "velocity": 113, "duration": 230}, {"note": 77, "velocity": 116, "duration": 230}, {"note": 0, "velocity": 0, "duration": 730}, {"note": 74, "velocity": 117, "duration": 250}, {"note": 0, "velocity": 0, "duration": 470}, {"note": 77, "velocity": 117, "duration": 141}, {"note": 0, "velocity": 0, "duration": 99}, {"note": 79, "velocity": 119, "duration": 170}, {"note": 0, "velocity": 0, "duration": 70}, {"note": 74, "velocity": 96, "duration": 121}, {"note": 0, "velocity": 0, "duration": 119}, {"note": 77, "velocity": 104, "duration": 146}, {"note": 0, "velocity": 0, "duration": 94}, {"note": 81, "velocity": 108, "duration": 162}, {"note": 0, "velocity": 0, "duration": 78}, {"note": 79, "velocity": 116, "duration": 168}, {"note": 0, "velocity": 0, "duration": 17112}, {"note": 79, "velocity": 113, "duration": 479}, {"note": 0, "velocity": 0, "duration": 241}, {"note": 81, "velocity": 110, "duration": 152}, {"note": 79, "velocity": 92, "duration": 116}, {"note": 77, "velocity": 113, "duration": 486}, {"note": 74, "velocity": 110, "duration": 238}, {"note": 77, "velocity": 93, "duration": 202}, {"note": 72, "velocity": 100, "duration": 390}, {"note": 0, "velocity": 0, "duration": 90}, {"note": 69, "velocity": 104, "duration": 203}, {"note": 72, "velocity": 94, "duration": 157}, {"note": 0, "velocity": 0, "duration": 83}, {"note": 77, "velocity": 102, "duration": 176}, {"note": 0, "velocity": 0, "duration": 784}, {"note": 74, "velocity": 113, "duration": 656}, {"note": 0, "velocity": 0, "duration": 64}, {"note": 77, "velocity": 110, "duration": 201}, {"note": 84, "velocity": 114, "duration": 276}, {"note": 86, "velocity": 104, "duration": 343}, {"note": 0, "velocity": 0, "duration": 137}, {"note": 81, "velocity": 117, "duration": 259}, {"note": 79, "velocity": 113, "duration": 262}, {"note": 0, "velocity": 0, "duration": 1658}, {"note": 81, "velocity": 119, "duration": 448}, {"note": 79, "velocity": 116, "duration": 190}, {"note": 81, "velocity": 113, "duration": 185}, {"note": 84, "velocity": 114, "duration": 383}, {"note": 0, "velocity": 0, "duration": 97}, {"note": 81, "velocity": 110, "duration": 188}, {"note": 0, "velocity": 0, "duration": 292}, {"note": 72, "velocity": 108, "duration": 227}, {"note": 69, "velocity": 102, "duration": 241}, {"note": 72, "velocity": 100, "duration": 198}, {"note": 74, "velocity": 110, "duration": 198}, {"note": 77, "velocity": 108, "duration": 210}, {"note": 0, "velocity": 0, "duration": 750}, {"note": 74, "velocity": 113, "duration": 393}, {"note": 0, "velocity": 0, "duration": 327}, {"note": 77, "velocity": 104, "duration": 166}, {"note": 0, "velocity": 0, "duration": 74}, {"note": 74, "velocity": 110, "duration": 202}, {"note": 72, "velocity": 107, "duration": 351}, {"note": 0, "velocity": 0, "duration": 129}, {"note": 69, "velocity": 107, "duration": 162}, {"note": 0, "velocity": 0, "duration": 78}, {"note": 72, "velocity": 107, "duration": 224}, {"note": 0, "velocity": 0, "duration": 1696}, {"note": 79, "velocity": 116, "duration": 371}, {"note": 0, "velocity": 0, "duration": 109}, {"note": 79, "velocity": 117, "duration": 172}, {"note": 0, "velocity": 0, "duration": 68}, {"note": 81, "velocity": 114, "duration": 154}, {"note": 0, "velocity": 0, "duration": 86}, {"note": 84, "velocity": 117, "duration": 402}, {"note": 0, "velocity": 0, "duration": 78}, {"note": 86, "velocity": 116, "duration": 238}, {"note": 84, "velocity": 110, "duration": 204}, {"note": 82, "velocity": 119, "duration": 381}, {"note": 0, "velocity": 0, "duration": 339}, {"note": 84, "velocity": 117, "duration": 157}, {"note": 0, "velocity": 0, "duration": 83}, {"note": 84, "velocity": 120, "duration": 194}, {"note": 0, "velocity": 0, "duration": 766}, {"note": 84, "velocity": 117, "duration": 218}, {"note": 86, "velocity": 102, "duration": 189}, {"note": 84, "velocity": 113, "duration": 208}, {"note": 81, "velocity": 116, "duration": 236}, {"note": 79, "velocity": 117, "duration": 205}, {"note": 81, "velocity": 104, "duration": 202}, {"note": 77, "velocity": 108, "duration": 237}, {"note": 74, "velocity": 100, "duration": 173}, {"note": 0, "velocity": 0, "duration": 67}, {"note": 79, "velocity": 114, "duration": 218}, {"note": 0, "velocity": 0, "duration": 1702}, {"note": 81, "velocity": 114, "duration": 424}, {"note": 79, "velocity": 110, "duration": 184}, {"note": 81, "velocity": 117, "duration": 143}, {"note": 0, "velocity": 0, "duration": 97}, {"note": 84, "velocity": 114, "duration": 171}, {"note": 0, "velocity": 0, "duration": 309}, {"note": 81, "velocity": 113, "duration": 200}, {"note": 0, "velocity": 0, "duration": 280}, {"note": 72, "velocity": 113, "duration": 230}, {"note": 69, "velocity": 107, "duration": 219}, {"note": 72, "velocity": 113, "duration": 216}, {"note": 74, "velocity": 113, "duration": 230}, {"note": 77, "velocity": 116, "duration": 230}, {"note": 0, "velocity": 0, "duration": 730}, {"note": 74, "velocity": 117, "duration": 250}, {"note": 0, "velocity": 0, "duration": 470}, {"note": 77, "velocity": 117, "duration": 141}, {"note": 0, "velocity": 0, "duration": 99}, {"note": 79, "velocity": 119, "duration": 170}, {"note": 0, "velocity": 0, "duration": 70}, {"note": 74, "velocity": 96, "duration": 121}, {"note": 0, "velocity": 0, "duration": 119}, {"note": 77, "velocity": 104, "duration": 146}, {"note": 0, "velocity": 0, "duration": 94}, {"note": 81, "velocity": 108, "duration": 162}, {"note": 0, "velocity": 0, "duration": 78}, {"note": 79, "velocity": 116, "duration": 168}, {"note": 0, "velocity": 0, "duration": 1752}, {"note": 79, "velocity": 116, "duration": 371}, {"note": 0, "velocity": 0, "duration": 109}, {"note": 79, "velocity": 117, "duration": 172}, {"note": 0, "velocity": 0, "duration": 68}, {"note": 81, "velocity": 114, "duration": 154}, {"note": 0, "velocity": 0, "duration": 86}, {"note": 84, "velocity": 117, "duration": 402}, {"note": 0, "velocity": 0, "duration": 78}, {"note": 86, "velocity": 116, "duration": 238}, {"note": 84, "velocity": 110, "duration": 204}, {"note": 82, "velocity": 119, "duration": 381}, {"note": 0, "velocity": 0, "duration": 339}, {"note": 84, "velocity": 117, "duration": 157}, {"note": 0, "velocity": 0, "duration": 83}, {"note": 84, "velocity": 120, "duration": 194}, {"note": 0, "velocity": 0, "duration": 766}, {"note": 84, "velocity": 117, "duration": 218}, {"note": 86, "velocity": 102, "duration": 189}, {"note": 84, "velocity": 113, "duration": 208}, {"note": 81, "velocity": 116, "duration": 236}, {"note": 79, "velocity": 117, "duration": 205}, {"note": 81, "velocity": 104, "duration": 202}, {"note": 77, "velocity": 108, "duration": 237}, {"note": 74, "velocity": 100, "duration": 173}, {"note": 0, "velocity": 0, "duration": 67}, {"note": 79, "velocity": 114, "duration": 218}, {"note": 0, "velocity": 0, "duration": 1702}, {"note": 81, "velocity": 114, "duration": 424}, {"note": 79, "velocity": 110, "duration": 184}, {"note": 81, "velocity": 117, "duration": 143}, {"note": 0, "velocity": 0, "duration": 97}, {"note": 84, "velocity": 114, "duration": 171}, {"note": 0, "velocity": 0, "duration": 309}, {"note": 81, "velocity": 113, "duration": 200}, {"note": 0, "velocity": 0, "duration": 280}, {"note": 72, "velocity": 113, "duration": 230}, {"note": 69, "velocity": 107, "duration": 219}, {"note": 72, "velocity": 113, "duration": 216}, {"note": 74, "velocity": 113, "duration": 230}, {"note": 77, "velocity": 116, "duration": 230}, {"note": 0, "velocity": 0, "duration": 730}, {"note": 74, "velocity": 117, "duration": 250}, {"note": 0, "velocity": 0, "duration": 470}, {"note": 77, "velocity": 117, "duration": 141}, {"note": 0, "velocity": 0, "duration": 99}, {"note": 79, "velocity": 119, "duration": 170}, {"note": 0, "velocity": 0, "duration": 70}, {"note": 74, "velocity": 96, "duration": 121}, {"note": 0, "velocity": 0, "duration": 119}, {"note": 77, "velocity": 104, "duration": 146}, {"note": 0, "velocity": 0, "duration": 94}, {"note": 81, "velocity": 108, "duration": 162}, {"note": 0, "velocity": 0, "duration": 1038}, {"note": 79, "velocity": 116, "duration": 168}]]