[[{"note": 68, "velocity": 113, "duration": 239}, {"note": 68, "velocity": 104, "duration": 240}, {"note": 77, "velocity": 108, "duration": 479}, {"note": 77, "velocity": 110, "duration": 960}, {"note": 73, "velocity": 91, "duration": 263}, {"note": 75, "velocity": 91, "duration": 240}, {"note": 80, "velocity": 104, "duration": 479}, {"note": 80, "velocity": 104, "duration": 959}, {"note": 80, "velocity": 100, "duration": 240}, {"note": 72, "velocity": 96, "duration": 239}, {"note": 72, "velocity": 100, "duration": 480}, {"note": 73, "velocity": 96, "duration": 959}, {"note": 73, "velocity": 93, "duration": 359}, {"note": 73, "velocity": 83, "duration": 120}, {"note": 72, "velocity": 93, "duration": 480}, {"note": 77, "velocity": 107, "duration": 960}, {"note": 68, "velocity": 107, "duration": 480}, {"note": 70, "velocity": 104, "duration": 960}, {"note": 72, "velocity": 104, "duration": 960}, {"note": 80, "velocity": 107, "duration": 480}, {"note": 77, "velocity": 110, "duration": 480}, {"note": 73, "velocity": 107, "duration": 719}, {"note": 73, "velocity": 107, "duration": 240}, {"note": 70, "velocity": 107, "duration": 1440}, {"note": 73, "velocity": 104, "duration": 480}, {"note": 75, "velocity": 110, "duration": 1440}, {"note": 68, "velocity": 113, "duration": 239}, {"note": 68, "velocity": 104, "duration": 240}, {"note": 77, "velocity": 108, "duration": 479}, {"note": 77, "velocity": 110, "duration": 960}, {"note": 73, "velocity": 91, "duration": 263}, {"note": 75, "velocity": 91, "duration": 240}, {"note": 80, "velocity": 104, "duration": 479}, {"note": 80, "velocity": 104, "duration": 959}, {"note": 80, "velocity": 100, "duration": 240}, {"note": 72, "velocity": 96, "duration": 239}, {"note": 72, "velocity": 100, "duration": 480}, {"note": 73, "velocity": 96, "duration": 959}, {"note": 73, "velocity": 93, "duration": 359}, {"note": 73, "velocity": 83, "duration": 120}, {"note": 72, "velocity": 93, "duration": 480}, {"note": 77, "velocity": 107, "duration": 960}, {"note": 68, "velocity": 107, "duration": 480}, {"note": 70, "velocity": 104, "duration": 960}, {"note": 72, "velocity": 104, "duration": 960}, {"note": 80, "velocity": 107, "duration": 480}, {"note": 77, "velocity": 110, "duration": 480}, {"note": 73, "velocity": 107, "duration": 719}, {"note": 73, "velocity": 107, "duration": 240}, {"note": 70, "velocity": 107, "duration": 1440}, {"note": 72, "velocity": 104, "duration": 480}, {"note": 73, "velocity": 110, "duration": 1439}, {"note": 73, "velocity": 113, "duration": 287}, {"note": 75, "velocity": 108, "duration": 240}, {"note": 77, "velocity": 104, "duration": 480}, {"note": 80, "velocity": 110, "duration": 480}, {"note": 75, "velocity": 108, "duration": 480}, {"note": 77, "velocity": 107, "duration": 480}, {"note": 73, "velocity": 100, "duration": 240}, {"note": 70, "velocity": 94, "duration": 480}, {"note": 73, "velocity": 113, "duration": 720}, {"note": 75, "velocity": 108, "duration": 240}, {"note": 77, "velocity": 104, "duration": 240}, {"note": 78, "velocity": 107, "duration": 480}, {"note": 82, "velocity": 114, "duration": 480}, {"note": 77, "velocity": 114, "duration": 480}, {"note": 78, "velocity": 108, "duration": 480}, {"note": 77, "velocity": 108, "duration": 252}, {"note": 75, "velocity": 107, "duration": 479}, {"note": 75, "velocity": 114, "duration": 720}, {"note": 73, "velocity": 108, "duration": 240}, {"note": 75, "velocity": 108, "duration": 240}, {"note": 77, "velocity": 104, "duration": 480}, {"note": 80, "velocity": 113, "duration": 480}, {"note": 75, "velocity": 110, "duration": 480}, {"note": 77, "velocity": 116, "duration": 480}, {"note": 75, "velocity": 108, "duration": 240}, {"note": 70, "velocity": 93, "duration": 480}, {"note": 73, "velocity": 104, "duration": 720}, {"note": 75, "velocity": 110, "duration": 240}, {"note": 77, "velocity": 107, "duration": 240}, {"note": 78, "velocity": 116, "duration": 480}, {"note": 77, "velocity": 117, "duration": 480}, {"note": 73, "velocity": 114, "duration": 480}, {"note": 75, "velocity": 108, "duration": 480}, {"note": 73, "velocity": 108, "duration": 1920}, {"note": 0, "velocity": 0, "duration": 14880}, {"note": 68, "velocity": 113, "duration": 239}, {"note": 68, "velocity": 104, "duration": 240}, {"note": 77, "velocity": 108, "duration": 479}, {"note": 77, "velocity": 110, "duration": 960}, {"note": 73, "velocity": 91, "duration": 263}, {"note": 75, "velocity": 91, "duration": 240}, {"note": 80, "velocity": 104, "duration": 479}, {"note": 80, "velocity": 104, "duration": 959}, {"note": 80, "velocity": 100, "duration": 240}, {"note": 72, "velocity": 96, "duration": 239}, {"note": 72, "velocity": 100, "duration": 480}, {"note": 73, "velocity": 96, "duration": 959}, {"note": 73, "velocity": 93, "duration": 359}, {"note": 73, "velocity": 83, "duration": 120}, {"note": 72, "velocity": 93, "duration": 480}, {"note": 77, "velocity": 107, "duration": 960}, {"note": 68, "velocity": 107, "duration": 480}, {"note": 70, "velocity": 104, "duration": 960}, {"note": 72, "velocity": 104, "duration": 960}, {"note": 80, "velocity": 107, "duration": 480}, {"note": 77, "velocity": 110, "duration": 480}, {"note": 73, "velocity": 107, "duration": 719}, {"note": 73, "velocity": 107, "duration": 240}, {"note": 70, "velocity": 107, "duration": 1440}, {"note": 73, "velocity": 104, "duration": 480}, {"note": 75, "velocity": 110, "duration": 1440}, {"note": 68, "velocity": 113, "duration": 239}, {"note": 68, "velocity": 104, "duration": 240}, {"note": 77, "velocity": 108, "duration": 479}, {"note": 77, "velocity": 110, "duration": 960}, {"note": 73, "velocity": 91, "duration": 263}, {"note": 75, "velocity": 91, "duration": 240}, {"note": 80, "velocity": 104, "duration": 479}, {"note": 80, "velocity": 104, "duration": 959}, {"note": 80, "velocity": 100, "duration": 240}, {"note": 72, "velocity": 96, "duration": 239}, {"note": 72, "velocity": 100, "duration": 480}, {"note": 73, "velocity": 96, "duration": 959}, {"note": 73, "velocity": 93, "duration": 359}, {"note": 73, "velocity": 83, "duration": 120}, {"note": 72, "velocity": 93, "duration": 480}, {"note": 77, "velocity": 107, "duration": 960}, {"note": 68, "velocity": 107, "duration": 480}, {"note": 70, "velocity": 104, "duration": 960}, {"note": 72, "velocity": 104, "duration": 960}, {"note": 80, "velocity": 107, "duration": 480}, {"note": 77, "velocity": 110, "duration": 480}, {"note": 73, "velocity": 107, "duration": 719}, {"note": 73, "velocity": 107, "duration": 240}, {"note": 70, "velocity": 107, "duration": 1440}, {"note": 72, "velocity": 104, "duration": 480}, {"note": 73, "velocity": 110, "duration": 960}, {"note": 0, "velocity": 0, "duration": 480}, {"note": 73, "velocity": 113, "duration": 287}, {"note": 75, "velocity": 108, "duration": 240}, {"note": 77, "velocity": 104, "duration": 480}, {"note": 80, "velocity": 110, "duration": 480}, {"note": 75, "velocity": 108, "duration": 480}, {"note": 77, "velocity": 107, "duration": 480}, {"note": 73, "velocity": 100, "duration": 240}, {"note": 70, "velocity": 94, "duration": 480}, {"note": 73, "velocity": 113, "duration": 720}, {"note": 75, "velocity": 108, "duration": 240}, {"note": 77, "velocity": 104, "duration": 240}, {"note": 78, "velocity": 107, "duration": 480}, {"note": 82, "velocity": 114, "duration": 480}, {"note": 77, "velocity": 114, "duration": 480}, {"note": 78, "velocity": 108, "duration": 480}, {"note": 77, "velocity": 108, "duration": 252}, {"note": 75, "velocity": 107, "duration": 479}, {"note": 75, "velocity": 114, "duration": 720}, {"note": 73, "velocity": 108, "duration": 240}, {"note": 75, "velocity": 108, "duration": 240}, {"note": 77, "velocity": 104, "duration": 480}, {"note": 80, "velocity": 113, "duration": 480}, {"note": 75, "velocity": 110, "duration": 480}, {"note": 77, "velocity": 116, "duration": 480}, {"note": 75, "velocity": 108, "duration": 240}, {"note": 70, "velocity": 93, "duration": 480}, {"note": 73, "velocity": 104, "duration": 720}, {"note": 75, "velocity": 110, "duration": 240}, {"note": 77, "velocity": 107, "duration": 240}, {"note": 78, "velocity": 116, "duration": 480}, {"note": 77, "velocity": 117, "duration": 480}, {"note": 73, "velocity": 114, "duration": 480}, {"note": 75, "velocity": 108, "duration": 480}, {"note": 73, "velocity": 108, "duration": 1727}, {"note": 73, "velocity": 113, "duration": 287}, {"note": 75, "velocity": 108, "duration": 240}, {"note": 77, "velocity": 104, "duration": 480}, {"note": 80, "velocity": 110, "duration": 480}, {"note": 75, "velocity": 108, "duration": 480}, {"note": 77, "velocity": 107, "duration": 480}, {"note": 73, "velocity": 100, "duration": 240}, {"note": 70, "velocity": 94, "duration": 480}, {"note": 73, "velocity": 113, "duration": 720}, {"note": 75, "velocity": 108, "duration": 240}, {"note": 77, "velocity": 104, "duration": 240}, {"note": 78, "velocity": 107, "duration": 480}, {"note": 82, "velocity": 114, "duration": 480}, {"note": 77, "velocity": 114, "duration": 480}, {"note": 78, "velocity": 108, "duration": 480}, {"note": 77, "velocity": 108, "duration": 252}, {"note": 75, "velocity": 107, "duration": 479}, {"note": 75, "velocity": 114, "duration": 720}, {"note": 73, "velocity": 108, "duration": 240}, {"note": 75, "velocity": 108, "duration": 240}, {"note": 77, "velocity": 104, "duration": 480}, {"note": 80, "velocity": 113, "duration": 480}, {"note": 75, "velocity": 110, "duration": 480}, {"note": 77, "velocity": 116, "duration": 480}, {"note": 75, "velocity": 108, "duration": 240}, {"note": 70, "velocity": 93, "duration": 480}, {"note": 73, "velocity": 104, "duration": 720}, {"note": 75, "velocity": 110, "duration": 240}, {"note": 77, "velocity": 107, "duration": 240}, {"note": 78, "velocity": 116, "duration": 480}, {"note": 77, "velocity": 117, "duration": 480}, {"note": 73, "velocity": 114, "duration": 480}, {"note": 75, "velocity": 108, "duration": 480}, {"note": 77, "velocity": 108, "duration": 1541}, {"note": 0, "velocity": 0, "duration": 86}, {"note": 75, "velocity": 113, "duration": 287}, {"note": 77, "velocity": 108, "duration": 221}, {"note": 79, "velocity": 104, "duration": 308}, {"note": 0, "velocity": 0, "duration": 172}, {"note": 82, "velocity": 110, "duration": 296}, {"note": 0, "velocity": 0, "duration": 184}, {"note": 77, "velocity": 108, "duration": 312}, {"note": 0, "velocity": 0, "duration": 168}, {"note": 79, "velocity": 107, "duration": 311}, {"note": 0, "velocity": 0, "duration": 169}, {"note": 75, "velocity": 100, "duration": 222}, {"note": 72, "velocity": 94, "duration": 171}, {"note": 0, "velocity": 0, "duration": 309}, {"note": 75, "velocity": 113, "duration": 233}, {"note": 0, "velocity": 0, "duration": 487}, {"note": 77, "velocity": 108, "duration": 223}, {"note": 79, "velocity": 104, "duration": 210}, {"note": 80, "velocity": 107, "duration": 313}, {"note": 0, "velocity": 0, "duration": 167}, {"note": 84, "velocity": 114, "duration": 273}, {"note": 0, "velocity": 0, "duration": 207}, {"note": 79, "velocity": 114, "duration": 291}, {"note": 0, "velocity": 0, "duration": 189}, {"note": 80, "velocity": 108, "duration": 359}, {"note": 0, "velocity": 0, "duration": 121}, {"note": 79, "velocity": 108, "duration": 252}, {"note": 77, "velocity": 107, "duration": 274}, {"note": 0, "velocity": 0, "duration": 206}, {"note": 77, "velocity": 114, "duration": 220}, {"note": 0, "velocity": 0, "duration": 500}, {"note": 75, "velocity": 108, "duration": 228}, {"note": 77, "velocity": 108, "duration": 184}, {"note": 79, "velocity": 104, "duration": 281}, {"note": 0, "velocity": 0, "duration": 199}, {"note": 82, "velocity": 113, "duration": 272}, {"note": 0, "velocity": 0, "duration": 208}, {"note": 77, "velocity": 110, "duration": 313}, {"note": 0, "velocity": 0, "duration": 167}, {"note": 79, "velocity": 116, "duration": 297}, {"note": 0, "velocity": 0, "duration": 183}, {"note": 77, "velocity": 108, "duration": 166}, {"note": 0, "velocity": 0, "duration": 74}, {"note": 72, "velocity": 93, "duration": 212}, {"note": 0, "velocity": 0, "duration": 268}, {"note": 75, "velocity": 104, "duration": 191}, {"note": 0, "velocity": 0, "duration": 529}, {"note": 77, "velocity": 110, "duration": 154}, {"note": 0, "velocity": 0, "duration": 86}, {"note": 79, "velocity": 107, "duration": 149}, {"note": 0, "velocity": 0, "duration": 91}, {"note": 80, "velocity": 116, "duration": 285}, {"note": 0, "velocity": 0, "duration": 195}, {"note": 79, "velocity": 117, "duration": 276}, {"note": 0, "velocity": 0, "duration": 1218}, {"note": 80, "velocity": 108, "duration": 211}, {"note": 0, "velocity": 0, "duration": 269}, {"note": 79, "velocity": 108, "duration": 264}, {"note": 0, "velocity": 0, "duration": 929}, {"note": 79, "velocity": 119, "duration": 169}, {"note": 0, "velocity": 0, "duration": 71}, {"note": 80, "velocity": 117, "duration": 267}, {"note": 0, "velocity": 0, "duration": 213}, {"note": 79, "velocity": 123, "duration": 231}, {"note": 0, "velocity": 0, "duration": 249}, {"note": 75, "velocity": 116, "duration": 294}, {"note": 0, "velocity": 0, "duration": 186}, {"note": 77, "velocity": 119, "duration": 278}, {"note": 0, "velocity": 0, "duration": 202}, {"note": 75, "velocity": 117, "duration": 334}]]