[[{"note": 75, "velocity": 114, "duration": 120}, {"note": 73, "velocity": 108, "duration": 143}, {"note": 72, "velocity": 109, "duration": 240}, {"note": 75, "velocity": 100, "duration": 240}, {"note": 80, "velocity": 110, "duration": 120}, {"note": 80, "velocity": 110, "duration": 240}, {"note": 84, "velocity": 109, "duration": 119}, {"note": 84, "velocity": 116, "duration": 120}, {"note": 85, "velocity": 116, "duration": 600}, {"note": 82, "velocity": 110, "duration": 120}, {"note": 80, "velocity": 93, "duration": 120}, {"note": 82, "velocity": 107, "duration": 119}, {"note": 82, "velocity": 107, "duration": 240}, {"note": 75, "velocity": 92, "duration": 119}, {"note": 75, "velocity": 100, "duration": 240}, {"note": 82, "velocity": 98, "duration": 119}, {"note": 82, "velocity": 91, "duration": 120}, {"note": 85, "velocity": 110, "duration": 120}, {"note": 84, "velocity": 116, "duration": 1080}, {"note": 80, "velocity": 110, "duration": 119}, {"note": 80, "velocity": 98, "duration": 119}, {"note": 80, "velocity": 110, "duration": 239}, {"note": 80, "velocity": 107, "duration": 119}, {"note": 80, "velocity": 107, "duration": 840}, {"note": 84, "velocity": 119, "duration": 240}, {"note": 82, "velocity": 116, "duration": 1680}, {"note": 75, "velocity": 114, "duration": 120}, {"note": 73, "velocity": 108, "duration": 143}, {"note": 72, "velocity": 109, "duration": 240}, {"note": 75, "velocity": 100, "duration": 240}, {"note": 80, "velocity": 110, "duration": 120}, {"note": 80, "velocity": 110, "duration": 240}, {"note": 84, "velocity": 109, "duration": 119}, {"note": 84, "velocity": 116, "duration": 120}, {"note": 85, "velocity": 116, "duration": 600}, {"note": 82, "velocity": 110, "duration": 120}, {"note": 80, "velocity": 93, "duration": 120}, {"note": 82, "velocity": 107, "duration": 119}, {"note": 82, "velocity": 107, "duration": 240}, {"note": 75, "velocity": 92, "duration": 120}, {"note": 79, "velocity": 100, "duration": 240}, {"note": 82, "velocity": 98, "duration": 119}, {"note": 82, "velocity": 91, "duration": 120}, {"note": 85, "velocity": 110, "duration": 120}, {"note": 84, "velocity": 116, "duration": 1080}, {"note": 80, "velocity": 108, "duration": 120}, {"note": 82, "velocity": 104, "duration": 120}, {"note": 84, "velocity": 113, "duration": 240}, {"note": 85, "velocity": 113, "duration": 127}, {"note": 84, "velocity": 113, "duration": 600}, {"note": 80, "velocity": 116, "duration": 120}, {"note": 89, "velocity": 119, "duration": 360}, {"note": 87, "velocity": 119, "duration": 1920}, {"note": 84, "velocity": 123, "duration": 359}, {"note": 84, "velocity": 116, "duration": 240}, {"note": 87, "velocity": 117, "duration": 360}, {"note": 77, "velocity": 119, "duration": 960}, {"note": 82, "velocity": 114, "duration": 359}, {"note": 82, "velocity": 114, "duration": 360}, {"note": 85, "velocity": 116, "duration": 266}, {"note": 84, "velocity": 119, "duration": 1200}, {"note": 80, "velocity": 110, "duration": 119}, {"note": 80, "velocity": 107, "duration": 138}, {"note": 79, "velocity": 116, "duration": 120}, {"note": 80, "velocity": 114, "duration": 360}, {"note": 89, "velocity": 116, "duration": 240}, {"note": 84, "velocity": 119, "duration": 240}, {"note": 82, "velocity": 116, "duration": 240}, {"note": 80, "velocity": 114, "duration": 121}, {"note": 82, "velocity": 119, "duration": 1800}, {"note": 84, "velocity": 119, "duration": 120}, {"note": 82, "velocity": 110, "duration": 120}, {"note": 80, "velocity": 113, "duration": 359}, {"note": 80, "velocity": 113, "duration": 360}, {"note": 77, "velocity": 116, "duration": 240}, {"note": 75, "velocity": 116, "duration": 720}, {"note": 84, "velocity": 116, "duration": 120}, {"note": 82, "velocity": 104, "duration": 120}, {"note": 80, "velocity": 114, "duration": 359}, {"note": 80, "velocity": 117, "duration": 240}, {"note": 89, "velocity": 116, "duration": 360}, {"note": 87, "velocity": 114, "duration": 720}, {"note": 80, "velocity": 113, "duration": 120}, {"note": 82, "velocity": 108, "duration": 120}, {"note": 84, "velocity": 116, "duration": 240}, {"note": 80, "velocity": 107, "duration": 119}, {"note": 80, "velocity": 107, "duration": 239}, {"note": 80, "velocity": 117, "duration": 240}, {"note": 89, "velocity": 116, "duration": 120}, {"note": 87, "velocity": 116, "duration": 240}, {"note": 80, "velocity": 116, "duration": 119}, {"note": 80, "velocity": 117, "duration": 359}, {"note": 80, "velocity": 113, "duration": 134}, {"note": 72, "velocity": 106, "duration": 120}, {"note": 73, "velocity": 102, "duration": 155}, {"note": 80, "velocity": 113, "duration": 239}, {"note": 80, "velocity": 114, "duration": 480}, {"note": 75, "velocity": 104, "duration": 120}, {"note": 84, "velocity": 116, "duration": 256}, {"note": 82, "velocity": 104, "duration": 120}, {"note": 80, "velocity": 104, "duration": 360}, {"note": 82, "velocity": 113, "duration": 240}, {"note": 80, "velocity": 114, "duration": 767}, {"note": 0, "velocity": 0, "duration": 6673}, {"note": 75, "velocity": 114, "duration": 120}, {"note": 73, "velocity": 108, "duration": 143}, {"note": 72, "velocity": 109, "duration": 240}, {"note": 75, "velocity": 100, "duration": 240}, {"note": 80, "velocity": 110, "duration": 120}, {"note": 80, "velocity": 110, "duration": 240}, {"note": 84, "velocity": 109, "duration": 119}, {"note": 84, "velocity": 116, "duration": 120}, {"note": 85, "velocity": 116, "duration": 600}, {"note": 82, "velocity": 110, "duration": 120}, {"note": 80, "velocity": 93, "duration": 120}, {"note": 82, "velocity": 107, "duration": 119}, {"note": 82, "velocity": 107, "duration": 240}, {"note": 75, "velocity": 92, "duration": 120}, {"note": 79, "velocity": 100, "duration": 240}, {"note": 82, "velocity": 98, "duration": 119}, {"note": 82, "velocity": 91, "duration": 120}, {"note": 85, "velocity": 110, "duration": 120}, {"note": 84, "velocity": 116, "duration": 1080}, {"note": 80, "velocity": 108, "duration": 120}, {"note": 82, "velocity": 104, "duration": 120}, {"note": 84, "velocity": 113, "duration": 479}, {"note": 84, "velocity": 119, "duration": 240}, {"note": 82, "velocity": 110, "duration": 239}, {"note": 82, "velocity": 113, "duration": 120}, {"note": 77, "velocity": 113, "duration": 360}, {"note": 82, "velocity": 116, "duration": 1920}, {"note": 84, "velocity": 123, "duration": 359}, {"note": 84, "velocity": 116, "duration": 240}, {"note": 87, "velocity": 117, "duration": 360}, {"note": 77, "velocity": 119, "duration": 960}, {"note": 82, "velocity": 114, "duration": 359}, {"note": 82, "velocity": 114, "duration": 360}, {"note": 85, "velocity": 116, "duration": 266}, {"note": 84, "velocity": 119, "duration": 1200}, {"note": 80, "velocity": 110, "duration": 119}, {"note": 80, "velocity": 107, "duration": 138}, {"note": 79, "velocity": 116, "duration": 120}, {"note": 80, "velocity": 114, "duration": 360}, {"note": 89, "velocity": 116, "duration": 240}, {"note": 84, "velocity": 119, "duration": 240}, {"note": 82, "velocity": 116, "duration": 240}, {"note": 80, "velocity": 114, "duration": 121}, {"note": 82, "velocity": 119, "duration": 1800}, {"note": 84, "velocity": 119, "duration": 120}, {"note": 82, "velocity": 110, "duration": 120}, {"note": 80, "velocity": 113, "duration": 359}, {"note": 80, "velocity": 113, "duration": 360}, {"note": 77, "velocity": 116, "duration": 240}, {"note": 75, "velocity": 116, "duration": 720}, {"note": 84, "velocity": 116, "duration": 120}, {"note": 82, "velocity": 104, "duration": 120}, {"note": 80, "velocity": 114, "duration": 359}, {"note": 80, "velocity": 117, "duration": 240}, {"note": 89, "velocity": 116, "duration": 360}, {"note": 87, "velocity": 114, "duration": 720}, {"note": 80, "velocity": 113, "duration": 120}, {"note": 82, "velocity": 108, "duration": 120}, {"note": 84, "velocity": 116, "duration": 240}, {"note": 80, "velocity": 107, "duration": 119}, {"note": 80, "velocity": 107, "duration": 239}, {"note": 80, "velocity": 117, "duration": 240}, {"note": 89, "velocity": 116, "duration": 120}, {"note": 87, "velocity": 116, "duration": 240}, {"note": 80, "velocity": 116, "duration": 119}, {"note": 80, "velocity": 117, "duration": 359}, {"note": 80, "velocity": 113, "duration": 134}, {"note": 72, "velocity": 106, "duration": 120}, {"note": 73, "velocity": 102, "duration": 155}, {"note": 80, "velocity": 113, "duration": 239}, {"note": 80, "velocity": 114, "duration": 480}, {"note": 75, "velocity": 104, "duration": 120}, {"note": 84, "velocity": 116, "duration": 256}, {"note": 82, "velocity": 104, "duration": 120}, {"note": 80, "velocity": 104, "duration": 360}, {"note": 82, "velocity": 113, "duration": 240}, {"note": 80, "velocity": 114, "duration": 480}, {"note": 0, "velocity": 0, "duration": 3360}, {"note": 84, "velocity": 123, "duration": 359}, {"note": 84, "velocity": 116, "duration": 240}, {"note": 87, "velocity": 117, "duration": 360}, {"note": 77, "velocity": 119, "duration": 960}, {"note": 82, "velocity": 114, "duration": 359}, {"note": 82, "velocity": 114, "duration": 360}, {"note": 85, "velocity": 116, "duration": 266}, {"note": 84, "velocity": 119, "duration": 1200}, {"note": 80, "velocity": 110, "duration": 119}, {"note": 80, "velocity": 107, "duration": 138}, {"note": 79, "velocity": 116, "duration": 120}, {"note": 80, "velocity": 114, "duration": 360}, {"note": 89, "velocity": 116, "duration": 240}, {"note": 84, "velocity": 119, "duration": 240}, {"note": 82, "velocity": 116, "duration": 240}, {"note": 80, "velocity": 114, "duration": 121}, {"note": 82, "velocity": 119, "duration": 1800}, {"note": 84, "velocity": 119, "duration": 120}, {"note": 82, "velocity": 110, "duration": 120}, {"note": 80, "velocity": 113, "duration": 359}, {"note": 80, "velocity": 113, "duration": 360}, {"note": 77, "velocity": 116, "duration": 240}, {"note": 75, "velocity": 116, "duration": 720}, {"note": 84, "velocity": 116, "duration": 120}, {"note": 82, "velocity": 104, "duration": 120}, {"note": 80, "velocity": 114, "duration": 359}, {"note": 80, "velocity": 117, "duration": 240}, {"note": 89, "velocity": 116, "duration": 360}, {"note": 87, "velocity": 114, "duration": 720}, {"note": 80, "velocity": 113, "duration": 120}, {"note": 82, "velocity": 108, "duration": 120}, {"note": 84, "velocity": 116, "duration": 240}, {"note": 80, "velocity": 107, "duration": 119}, {"note": 80, "velocity": 107, "duration": 239}, {"note": 80, "velocity": 117, "duration": 240}, {"note": 89, "velocity": 116, "duration": 120}, {"note": 87, "velocity": 116, "duration": 240}, {"note": 80, "velocity": 116, "duration": 119}, {"note": 80, "velocity": 117, "duration": 359}, {"note": 80, "velocity": 113, "duration": 134}, {"note": 72, "velocity": 106, "duration": 120}, {"note": 73, "velocity": 102, "duration": 155}, {"note": 80, "velocity": 113, "duration": 239}, {"note": 80, "velocity": 114, "duration": 480}, {"note": 75, "velocity": 104, "duration": 120}, {"note": 0, "velocity": 0, "duration": 1800}, {"note": 63, "velocity": 90, "duration": 120}, {"note": 72, "velocity": 119, "duration": 240}, {"note": 70, "velocity": 93, "duration": 134}, {"note": 68, "velocity": 102, "duration": 360}, {"note": 70, "velocity": 113, "duration": 360}, {"note": 68, "velocity": 113, "duration": 840}]]