[[{"note": 75, "velocity": 119, "duration": 219}, {"note": 73, "velocity": 117, "duration": 207}, {"note": 68, "velocity": 119, "duration": 214}, {"note": 64, "velocity": 113, "duration": 130}, {"note": 63, "velocity": 113, "duration": 151}, {"note": 0, "velocity": 0, "duration": 209}, {"note": 61, "velocity": 102, "duration": 110}, {"note": 63, "velocity": 108, "duration": 177}, {"note": 0, "velocity": 0, "duration": 63}, {"note": 64, "velocity": 113, "duration": 174}, {"note": 0, "velocity": 0, "duration": 66}, {"note": 66, "velocity": 114, "duration": 212}, {"note": 0, "velocity": 0, "duration": 148}, {"note": 66, "velocity": 100, "duration": 56}, {"note": 0, "velocity": 0, "duration": 64}, {"note": 66, "velocity": 100, "duration": 186}, {"note": 64, "velocity": 100, "duration": 71}, {"note": 68, "velocity": 113, "duration": 151}, {"note": 0, "velocity": 0, "duration": 89}, {"note": 66, "velocity": 110, "duration": 175}, {"note": 0, "velocity": 0, "duration": 785}, {"note": 75, "velocity": 114, "duration": 197}, {"note": 73, "velocity": 114, "duration": 237}, {"note": 68, "velocity": 117, "duration": 210}, {"note": 64, "velocity": 102, "duration": 83}, {"note": 63, "velocity": 108, "duration": 217}, {"note": 0, "velocity": 0, "duration": 143}, {"note": 61, "velocity": 93, "duration": 153}, {"note": 63, "velocity": 93, "duration": 224}, {"note": 64, "velocity": 104, "duration": 133}, {"note": 0, "velocity": 0, "duration": 227}, {"note": 66, "velocity": 113, "duration": 153}, {"note": 0, "velocity": 0, "duration": 87}, {"note": 66, "velocity": 100, "duration": 60}, {"note": 66, "velocity": 102, "duration": 155}, {"note": 0, "velocity": 0, "duration": 85}, {"note": 68, "velocity": 110, "duration": 82}, {"note": 69, "velocity": 113, "duration": 170}, {"note": 0, "velocity": 0, "duration": 70}, {"note": 68, "velocity": 114, "duration": 148}, {"note": 0, "velocity": 0, "duration": 572}, {"note": 68, "velocity": 113, "duration": 64}, {"note": 68, "velocity": 110, "duration": 53}, {"note": 0, "velocity": 0, "duration": 67}, {"note": 68, "velocity": 110, "duration": 132}, {"note": 0, "velocity": 0, "duration": 108}, {"note": 66, "velocity": 104, "duration": 67}, {"note": 66, "velocity": 108, "duration": 166}, {"note": 0, "velocity": 0, "duration": 314}, {"note": 68, "velocity": 114, "duration": 66}, {"note": 75, "velocity": 117, "duration": 127}, {"note": 0, "velocity": 0, "duration": 113}, {"note": 75, "velocity": 117, "duration": 60}, {"note": 0, "velocity": 0, "duration": 180}, {"note": 73, "velocity": 114, "duration": 113}, {"note": 75, "velocity": 116, "duration": 147}, {"note": 0, "velocity": 0, "duration": 93}, {"note": 73, "velocity": 114, "duration": 116}, {"note": 71, "velocity": 117, "duration": 150}, {"note": 0, "velocity": 0, "duration": 90}, {"note": 68, "velocity": 110, "duration": 159}, {"note": 0, "velocity": 0, "duration": 81}, {"note": 71, "velocity": 113, "duration": 95}, {"note": 73, "velocity": 114, "duration": 183}, {"note": 0, "velocity": 0, "duration": 177}, {"note": 64, "velocity": 117, "duration": 191}, {"note": 0, "velocity": 0, "duration": 529}, {"note": 68, "velocity": 114, "duration": 69}, {"note": 68, "velocity": 114, "duration": 53}, {"note": 0, "velocity": 0, "duration": 67}, {"note": 68, "velocity": 114, "duration": 117}, {"note": 0, "velocity": 0, "duration": 123}, {"note": 66, "velocity": 114, "duration": 62}, {"note": 66, "velocity": 116, "duration": 155}, {"note": 0, "velocity": 0, "duration": 325}, {"note": 66, "velocity": 116, "duration": 62}, {"note": 68, "velocity": 119, "duration": 148}, {"note": 0, "velocity": 0, "duration": 92}, {"note": 66, "velocity": 110, "duration": 69}, {"note": 71, "velocity": 119, "duration": 235}, {"note": 0, "velocity": 0, "duration": 125}, {"note": 69, "velocity": 119, "duration": 145}, {"note": 0, "velocity": 0, "duration": 95}, {"note": 68, "velocity": 119, "duration": 201}, {"note": 0, "velocity": 0, "duration": 1719}, {"note": 75, "velocity": 119, "duration": 219}, {"note": 73, "velocity": 117, "duration": 207}, {"note": 68, "velocity": 119, "duration": 214}, {"note": 64, "velocity": 113, "duration": 130}, {"note": 63, "velocity": 113, "duration": 151}, {"note": 0, "velocity": 0, "duration": 209}, {"note": 61, "velocity": 102, "duration": 110}, {"note": 63, "velocity": 108, "duration": 177}, {"note": 0, "velocity": 0, "duration": 63}, {"note": 64, "velocity": 113, "duration": 174}, {"note": 0, "velocity": 0, "duration": 66}, {"note": 66, "velocity": 114, "duration": 212}, {"note": 0, "velocity": 0, "duration": 148}, {"note": 66, "velocity": 100, "duration": 56}, {"note": 0, "velocity": 0, "duration": 64}, {"note": 66, "velocity": 100, "duration": 186}, {"note": 64, "velocity": 100, "duration": 71}, {"note": 68, "velocity": 113, "duration": 151}, {"note": 0, "velocity": 0, "duration": 89}, {"note": 66, "velocity": 110, "duration": 175}, {"note": 0, "velocity": 0, "duration": 785}, {"note": 75, "velocity": 114, "duration": 197}, {"note": 73, "velocity": 114, "duration": 237}, {"note": 68, "velocity": 117, "duration": 210}, {"note": 64, "velocity": 102, "duration": 83}, {"note": 63, "velocity": 108, "duration": 217}, {"note": 0, "velocity": 0, "duration": 143}, {"note": 61, "velocity": 93, "duration": 153}, {"note": 63, "velocity": 93, "duration": 224}, {"note": 64, "velocity": 104, "duration": 133}, {"note": 0, "velocity": 0, "duration": 227}, {"note": 66, "velocity": 113, "duration": 153}, {"note": 0, "velocity": 0, "duration": 87}, {"note": 66, "velocity": 100, "duration": 60}, {"note": 66, "velocity": 102, "duration": 155}, {"note": 0, "velocity": 0, "duration": 85}, {"note": 68, "velocity": 110, "duration": 82}, {"note": 69, "velocity": 113, "duration": 170}, {"note": 0, "velocity": 0, "duration": 70}, {"note": 68, "velocity": 114, "duration": 148}, {"note": 0, "velocity": 0, "duration": 572}, {"note": 68, "velocity": 113, "duration": 64}, {"note": 68, "velocity": 110, "duration": 53}, {"note": 0, "velocity": 0, "duration": 67}, {"note": 68, "velocity": 110, "duration": 132}, {"note": 0, "velocity": 0, "duration": 108}, {"note": 66, "velocity": 104, "duration": 67}, {"note": 66, "velocity": 108, "duration": 166}, {"note": 0, "velocity": 0, "duration": 314}, {"note": 68, "velocity": 114, "duration": 66}, {"note": 75, "velocity": 117, "duration": 127}, {"note": 0, "velocity": 0, "duration": 113}, {"note": 75, "velocity": 117, "duration": 60}, {"note": 0, "velocity": 0, "duration": 180}, {"note": 73, "velocity": 114, "duration": 113}, {"note": 75, "velocity": 116, "duration": 147}, {"note": 0, "velocity": 0, "duration": 93}, {"note": 73, "velocity": 114, "duration": 116}, {"note": 71, "velocity": 117, "duration": 150}, {"note": 0, "velocity": 0, "duration": 90}, {"note": 71, "velocity": 110, "duration": 94}, {"note": 68, "velocity": 113, "duration": 95}, {"note": 71, "velocity": 114, "duration": 131}, {"note": 73, "velocity": 114, "duration": 183}, {"note": 0, "velocity": 0, "duration": 177}, {"note": 64, "velocity": 117, "duration": 191}, {"note": 0, "velocity": 0, "duration": 529}, {"note": 68, "velocity": 114, "duration": 69}, {"note": 68, "velocity": 114, "duration": 53}, {"note": 0, "velocity": 0, "duration": 67}, {"note": 68, "velocity": 114, "duration": 117}, {"note": 0, "velocity": 0, "duration": 123}, {"note": 66, "velocity": 114, "duration": 62}, {"note": 66, "velocity": 116, "duration": 155}, {"note": 0, "velocity": 0, "duration": 325}, {"note": 66, "velocity": 116, "duration": 62}, {"note": 68, "velocity": 119, "duration": 148}, {"note": 0, "velocity": 0, "duration": 92}, {"note": 66, "velocity": 110, "duration": 69}, {"note": 0, "velocity": 0, "duration": 171}, {"note": 71, "velocity": 119, "duration": 235}, {"note": 69, "velocity": 119, "duration": 87}, {"note": 69, "velocity": 119, "duration": 94}, {"note": 0, "velocity": 0, "duration": 146}, {"note": 68, "velocity": 119, "duration": 94}, {"note": 0, "velocity": 0, "duration": 986}, {"note": 68, "velocity": 120, "duration": 155}, {"note": 0, "velocity": 0, "duration": 85}, {"note": 80, "velocity": 117, "duration": 166}, {"note": 0, "velocity": 0, "duration": 74}, {"note": 76, "velocity": 120, "duration": 164}, {"note": 0, "velocity": 0, "duration": 316}, {"note": 73, "velocity": 114, "duration": 100}, {"note": 0, "velocity": 0, "duration": 140}, {"note": 75, "velocity": 117, "duration": 143}, {"note": 0, "velocity": 0, "duration": 97}, {"note": 73, "velocity": 116, "duration": 167}, {"note": 0, "velocity": 0, "duration": 73}, {"note": 75, "velocity": 116, "duration": 110}, {"note": 0, "velocity": 0, "duration": 130}, {"note": 73, "velocity": 113, "duration": 112}, {"note": 75, "velocity": 114, "duration": 156}, {"note": 0, "velocity": 0, "duration": 204}, {"note": 76, "velocity": 116, "duration": 151}, {"note": 0, "velocity": 0, "duration": 89}, {"note": 76, "velocity": 110, "duration": 189}, {"note": 73, "velocity": 110, "duration": 123}, {"note": 0, "velocity": 0, "duration": 117}, {"note": 73, "velocity": 116, "duration": 127}, {"note": 0, "velocity": 0, "duration": 113}, {"note": 71, "velocity": 110, "duration": 100}, {"note": 73, "velocity": 110, "duration": 155}, {"note": 0, "velocity": 0, "duration": 205}, {"note": 66, "velocity": 117, "duration": 125}, {"note": 0, "velocity": 0, "duration": 115}, {"note": 78, "velocity": 114, "duration": 171}, {"note": 0, "velocity": 0, "duration": 69}, {"note": 76, "velocity": 116, "duration": 148}, {"note": 0, "velocity": 0, "duration": 92}, {"note": 76, "velocity": 114, "duration": 135}, {"note": 0, "velocity": 0, "duration": 105}, {"note": 75, "velocity": 116, "duration": 105}, {"note": 75, "velocity": 117, "duration": 112}, {"note": 0, "velocity": 0, "duration": 248}, {"note": 73, "velocity": 114, "duration": 145}, {"note": 0, "velocity": 0, "duration": 95}, {"note": 73, "velocity": 110, "duration": 146}, {"note": 0, "velocity": 0, "duration": 94}, {"note": 71, "velocity": 108, "duration": 68}, {"note": 71, "velocity": 114, "duration": 120}, {"note": 0, "velocity": 0, "duration": 240}, {"note": 69, "velocity": 116, "duration": 52}, {"note": 0, "velocity": 0, "duration": 68}, {"note": 69, "velocity": 103, "duration": 49}, {"note": 0, "velocity": 0, "duration": 71}, {"note": 69, "velocity": 116, "duration": 182}, {"note": 68, "velocity": 116, "duration": 146}, {"note": 0, "velocity": 0, "duration": 94}, {"note": 66, "velocity": 110, "duration": 167}, {"note": 0, "velocity": 0, "duration": 73}, {"note": 69, "velocity": 113, "duration": 89}, {"note": 68, "velocity": 119, "duration": 144}, {"note": 0, "velocity": 0, "duration": 216}, {"note": 68, "velocity": 117, "duration": 122}, {"note": 0, "velocity": 0, "duration": 118}, {"note": 80, "velocity": 114, "duration": 198}, {"note": 76, "velocity": 116, "duration": 265}, {"note": 75, "velocity": 117, "duration": 175}, {"note": 0, "velocity": 0, "duration": 65}, {"note": 73, "velocity": 113, "duration": 87}, {"note": 75, "velocity": 114, "duration": 185}, {"note": 0, "velocity": 0, "duration": 175}, {"note": 73, "velocity": 113, "duration": 123}, {"note": 0, "velocity": 0, "duration": 117}, {"note": 75, "velocity": 91, "duration": 226}, {"note": 73, "velocity": 114, "duration": 105}, {"note": 75, "velocity": 116, "duration": 136}, {"note": 0, "velocity": 0, "duration": 104}, {"note": 76, "velocity": 114, "duration": 144}, {"note": 0, "velocity": 0, "duration": 216}, {"note": 76, "velocity": 116, "duration": 208}, {"note": 73, "velocity": 116, "duration": 118}, {"note": 0, "velocity": 0, "duration": 122}, {"note": 73, "velocity": 117, "duration": 130}, {"note": 0, "velocity": 0, "duration": 110}, {"note": 71, "velocity": 116, "duration": 79}, {"note": 73, "velocity": 117, "duration": 150}, {"note": 0, "velocity": 0, "duration": 570}, {"note": 76, "velocity": 114, "duration": 61}, {"note": 76, "velocity": 108, "duration": 52}, {"note": 0, "velocity": 0, "duration": 68}, {"note": 76, "velocity": 110, "duration": 58}, {"note": 0, "velocity": 0, "duration": 62}, {"note": 76, "velocity": 116, "duration": 132}, {"note": 0, "velocity": 0, "duration": 108}, {"note": 75, "velocity": 113, "duration": 52}, {"note": 0, "velocity": 0, "duration": 68}, {"note": 75, "velocity": 114, "duration": 51}, {"note": 0, "velocity": 0, "duration": 69}, {"note": 75, "velocity": 119, "duration": 133}, {"note": 0, "velocity": 0, "duration": 107}, {"note": 73, "velocity": 116, "duration": 51}, {"note": 0, "velocity": 0, "duration": 69}, {"note": 73, "velocity": 113, "duration": 52}, {"note": 0, "velocity": 0, "duration": 68}, {"note": 73, "velocity": 117, "duration": 130}, {"note": 0, "velocity": 0, "duration": 110}, {"note": 71, "velocity": 114, "duration": 161}, {"note": 0, "velocity": 0, "duration": 79}, {"note": 76, "velocity": 117, "duration": 165}, {"note": 0, "velocity": 0, "duration": 75}, {"note": 75, "velocity": 110, "duration": 127}, {"note": 0, "velocity": 0, "duration": 113}, {"note": 75, "velocity": 117, "duration": 116}, {"note": 73, "velocity": 117, "duration": 168}, {"note": 0, "velocity": 0, "duration": 16998}, {"note": 75, "velocity": 119, "duration": 219}, {"note": 73, "velocity": 117, "duration": 207}, {"note": 68, "velocity": 119, "duration": 214}, {"note": 64, "velocity": 113, "duration": 130}, {"note": 63, "velocity": 113, "duration": 151}, {"note": 0, "velocity": 0, "duration": 209}, {"note": 61, "velocity": 102, "duration": 110}, {"note": 63, "velocity": 108, "duration": 177}, {"note": 0, "velocity": 0, "duration": 63}, {"note": 64, "velocity": 113, "duration": 174}, {"note": 0, "velocity": 0, "duration": 66}, {"note": 66, "velocity": 114, "duration": 212}, {"note": 0, "velocity": 0, "duration": 148}, {"note": 66, "velocity": 100, "duration": 56}, {"note": 0, "velocity": 0, "duration": 64}, {"note": 66, "velocity": 100, "duration": 186}, {"note": 64, "velocity": 100, "duration": 71}, {"note": 68, "velocity": 113, "duration": 151}, {"note": 0, "velocity": 0, "duration": 89}, {"note": 66, "velocity": 110, "duration": 175}, {"note": 0, "velocity": 0, "duration": 785}, {"note": 75, "velocity": 114, "duration": 197}, {"note": 73, "velocity": 114, "duration": 237}, {"note": 68, "velocity": 117, "duration": 210}, {"note": 64, "velocity": 102, "duration": 83}, {"note": 63, "velocity": 108, "duration": 217}, {"note": 0, "velocity": 0, "duration": 143}, {"note": 61, "velocity": 93, "duration": 153}, {"note": 63, "velocity": 93, "duration": 224}, {"note": 64, "velocity": 104, "duration": 133}, {"note": 0, "velocity": 0, "duration": 227}, {"note": 66, "velocity": 113, "duration": 153}, {"note": 0, "velocity": 0, "duration": 87}, {"note": 66, "velocity": 100, "duration": 60}, {"note": 66, "velocity": 102, "duration": 155}, {"note": 0, "velocity": 0, "duration": 85}, {"note": 68, "velocity": 110, "duration": 82}, {"note": 69, "velocity": 113, "duration": 170}, {"note": 0, "velocity": 0, "duration": 70}, {"note": 68, "velocity": 114, "duration": 148}, {"note": 0, "velocity": 0, "duration": 572}, {"note": 68, "velocity": 113, "duration": 64}, {"note": 68, "velocity": 110, "duration": 53}, {"note": 0, "velocity": 0, "duration": 67}, {"note": 68, "velocity": 110, "duration": 132}, {"note": 0, "velocity": 0, "duration": 108}, {"note": 66, "velocity": 104, "duration": 67}, {"note": 66, "velocity": 108, "duration": 166}, {"note": 0, "velocity": 0, "duration": 314}, {"note": 68, "velocity": 114, "duration": 66}, {"note": 75, "velocity": 117, "duration": 127}, {"note": 0, "velocity": 0, "duration": 113}, {"note": 75, "velocity": 117, "duration": 60}, {"note": 0, "velocity": 0, "duration": 180}, {"note": 73, "velocity": 114, "duration": 113}, {"note": 75, "velocity": 116, "duration": 147}, {"note": 0, "velocity": 0, "duration": 93}, {"note": 73, "velocity": 114, "duration": 116}, {"note": 71, "velocity": 117, "duration": 150}, {"note": 0, "velocity": 0, "duration": 90}, {"note": 68, "velocity": 110, "duration": 159}, {"note": 0, "velocity": 0, "duration": 81}, {"note": 71, "velocity": 113, "duration": 95}, {"note": 73, "velocity": 114, "duration": 183}, {"note": 0, "velocity": 0, "duration": 177}, {"note": 64, "velocity": 117, "duration": 191}, {"note": 0, "velocity": 0, "duration": 529}, {"note": 68, "velocity": 114, "duration": 69}, {"note": 68, "velocity": 114, "duration": 53}, {"note": 0, "velocity": 0, "duration": 67}, {"note": 68, "velocity": 114, "duration": 117}, {"note": 0, "velocity": 0, "duration": 123}, {"note": 66, "velocity": 114, "duration": 62}, {"note": 66, "velocity": 116, "duration": 155}, {"note": 0, "velocity": 0, "duration": 325}, {"note": 66, "velocity": 116, "duration": 62}, {"note": 68, "velocity": 119, "duration": 148}, {"note": 0, "velocity": 0, "duration": 92}, {"note": 66, "velocity": 110, "duration": 69}, {"note": 71, "velocity": 119, "duration": 235}, {"note": 0, "velocity": 0, "duration": 125}, {"note": 69, "velocity": 119, "duration": 145}, {"note": 0, "velocity": 0, "duration": 95}, {"note": 68, "velocity": 119, "duration": 201}, {"note": 0, "velocity": 0, "duration": 1719}, {"note": 75, "velocity": 119, "duration": 219}, {"note": 73, "velocity": 117, "duration": 207}, {"note": 68, "velocity": 119, "duration": 214}, {"note": 64, "velocity": 113, "duration": 130}, {"note": 63, "velocity": 113, "duration": 151}, {"note": 0, "velocity": 0, "duration": 209}, {"note": 61, "velocity": 102, "duration": 110}, {"note": 63, "velocity": 108, "duration": 177}, {"note": 0, "velocity": 0, "duration": 63}, {"note": 64, "velocity": 113, "duration": 174}, {"note": 0, "velocity": 0, "duration": 66}, {"note": 66, "velocity": 114, "duration": 212}, {"note": 0, "velocity": 0, "duration": 148}, {"note": 66, "velocity": 100, "duration": 56}, {"note": 0, "velocity": 0, "duration": 64}, {"note": 66, "velocity": 100, "duration": 186}, {"note": 64, "velocity": 100, "duration": 71}, {"note": 68, "velocity": 113, "duration": 151}, {"note": 0, "velocity": 0, "duration": 89}, {"note": 66, "velocity": 110, "duration": 175}, {"note": 0, "velocity": 0, "duration": 785}, {"note": 75, "velocity": 114, "duration": 197}, {"note": 73, "velocity": 114, "duration": 237}, {"note": 68, "velocity": 117, "duration": 210}, {"note": 64, "velocity": 102, "duration": 83}, {"note": 63, "velocity": 108, "duration": 217}, {"note": 0, "velocity": 0, "duration": 143}, {"note": 61, "velocity": 93, "duration": 153}, {"note": 63, "velocity": 93, "duration": 224}, {"note": 64, "velocity": 104, "duration": 133}, {"note": 0, "velocity": 0, "duration": 227}, {"note": 66, "velocity": 113, "duration": 153}, {"note": 0, "velocity": 0, "duration": 87}, {"note": 66, "velocity": 100, "duration": 60}, {"note": 66, "velocity": 102, "duration": 155}, {"note": 0, "velocity": 0, "duration": 85}, {"note": 68, "velocity": 110, "duration": 82}, {"note": 69, "velocity": 113, "duration": 170}, {"note": 0, "velocity": 0, "duration": 70}, {"note": 68, "velocity": 114, "duration": 148}, {"note": 0, "velocity": 0, "duration": 572}, {"note": 68, "velocity": 113, "duration": 64}, {"note": 68, "velocity": 110, "duration": 53}, {"note": 0, "velocity": 0, "duration": 67}, {"note": 68, "velocity": 110, "duration": 132}, {"note": 0, "velocity": 0, "duration": 108}, {"note": 66, "velocity": 104, "duration": 67}, {"note": 66, "velocity": 108, "duration": 166}, {"note": 0, "velocity": 0, "duration": 314}, {"note": 68, "velocity": 114, "duration": 66}, {"note": 75, "velocity": 117, "duration": 127}, {"note": 0, "velocity": 0, "duration": 113}, {"note": 75, "velocity": 117, "duration": 60}, {"note": 0, "velocity": 0, "duration": 180}, {"note": 73, "velocity": 114, "duration": 113}, {"note": 75, "velocity": 116, "duration": 147}, {"note": 0, "velocity": 0, "duration": 93}, {"note": 73, "velocity": 114, "duration": 116}, {"note": 71, "velocity": 117, "duration": 150}, {"note": 0, "velocity": 0, "duration": 90}, {"note": 71, "velocity": 110, "duration": 94}, {"note": 68, "velocity": 113, "duration": 95}, {"note": 71, "velocity": 114, "duration": 131}, {"note": 73, "velocity": 114, "duration": 183}, {"note": 0, "velocity": 0, "duration": 177}, {"note": 64, "velocity": 117, "duration": 191}, {"note": 0, "velocity": 0, "duration": 529}, {"note": 68, "velocity": 114, "duration": 69}, {"note": 68, "velocity": 114, "duration": 53}, {"note": 0, "velocity": 0, "duration": 67}, {"note": 68, "velocity": 114, "duration": 117}, {"note": 0, "velocity": 0, "duration": 123}, {"note": 66, "velocity": 114, "duration": 62}, {"note": 66, "velocity": 116, "duration": 155}, {"note": 0, "velocity": 0, "duration": 325}, {"note": 66, "velocity": 116, "duration": 62}, {"note": 68, "velocity": 119, "duration": 148}, {"note": 0, "velocity": 0, "duration": 92}, {"note": 66, "velocity": 110, "duration": 69}, {"note": 0, "velocity": 0, "duration": 171}, {"note": 71, "velocity": 119, "duration": 235}, {"note": 69, "velocity": 119, "duration": 87}, {"note": 69, "velocity": 119, "duration": 94}, {"note": 0, "velocity": 0, "duration": 146}, {"note": 68, "velocity": 119, "duration": 94}, {"note": 0, "velocity": 0, "duration": 986}, {"note": 68, "velocity": 120, "duration": 155}, {"note": 0, "velocity": 0, "duration": 85}, {"note": 80, "velocity": 117, "duration": 166}, {"note": 0, "velocity": 0, "duration": 74}, {"note": 76, "velocity": 120, "duration": 164}, {"note": 0, "velocity": 0, "duration": 76}, {"note": 75, "velocity": 120, "duration": 164}, {"note": 0, "velocity": 0, "duration": 76}, {"note": 73, "velocity": 114, "duration": 100}, {"note": 0, "velocity": 0, "duration": 140}, {"note": 75, "velocity": 117, "duration": 143}, {"note": 0, "velocity": 0, "duration": 97}, {"note": 73, "velocity": 116, "duration": 167}, {"note": 0, "velocity": 0, "duration": 73}, {"note": 75, "velocity": 116, "duration": 110}, {"note": 0, "velocity": 0, "duration": 130}, {"note": 73, "velocity": 113, "duration": 112}, {"note": 75, "velocity": 114, "duration": 156}, {"note": 0, "velocity": 0, "duration": 204}, {"note": 76, "velocity": 116, "duration": 151}, {"note": 0, "velocity": 0, "duration": 89}, {"note": 76, "velocity": 110, "duration": 189}, {"note": 73, "velocity": 110, "duration": 123}, {"note": 0, "velocity": 0, "duration": 117}, {"note": 73, "velocity": 116, "duration": 127}, {"note": 0, "velocity": 0, "duration": 113}, {"note": 71, "velocity": 110, "duration": 100}, {"note": 73, "velocity": 110, "duration": 155}, {"note": 0, "velocity": 0, "duration": 205}, {"note": 66, "velocity": 117, "duration": 125}, {"note": 0, "velocity": 0, "duration": 115}, {"note": 78, "velocity": 114, "duration": 171}, {"note": 0, "velocity": 0, "duration": 69}, {"note": 76, "velocity": 116, "duration": 148}, {"note": 0, "velocity": 0, "duration": 92}, {"note": 76, "velocity": 114, "duration": 135}, {"note": 0, "velocity": 0, "duration": 105}, {"note": 75, "velocity": 116, "duration": 105}, {"note": 75, "velocity": 117, "duration": 112}, {"note": 0, "velocity": 0, "duration": 248}, {"note": 73, "velocity": 114, "duration": 145}, {"note": 0, "velocity": 0, "duration": 95}, {"note": 73, "velocity": 110, "duration": 146}, {"note": 0, "velocity": 0, "duration": 94}, {"note": 71, "velocity": 108, "duration": 68}, {"note": 71, "velocity": 114, "duration": 120}, {"note": 0, "velocity": 0, "duration": 240}, {"note": 69, "velocity": 116, "duration": 52}, {"note": 0, "velocity": 0, "duration": 68}, {"note": 69, "velocity": 103, "duration": 49}, {"note": 0, "velocity": 0, "duration": 71}, {"note": 69, "velocity": 116, "duration": 182}, {"note": 68, "velocity": 116, "duration": 146}, {"note": 0, "velocity": 0, "duration": 94}, {"note": 66, "velocity": 110, "duration": 167}, {"note": 0, "velocity": 0, "duration": 73}, {"note": 69, "velocity": 113, "duration": 89}, {"note": 68, "velocity": 119, "duration": 144}, {"note": 0, "velocity": 0, "duration": 216}, {"note": 68, "velocity": 117, "duration": 122}, {"note": 0, "velocity": 0, "duration": 118}, {"note": 80, "velocity": 114, "duration": 198}, {"note": 76, "velocity": 116, "duration": 265}, {"note": 75, "velocity": 117, "duration": 175}, {"note": 0, "velocity": 0, "duration": 65}, {"note": 73, "velocity": 113, "duration": 87}, {"note": 75, "velocity": 114, "duration": 185}, {"note": 0, "velocity": 0, "duration": 175}, {"note": 73, "velocity": 113, "duration": 123}, {"note": 0, "velocity": 0, "duration": 117}, {"note": 75, "velocity": 91, "duration": 226}, {"note": 73, "velocity": 114, "duration": 105}, {"note": 75, "velocity": 116, "duration": 136}, {"note": 0, "velocity": 0, "duration": 104}, {"note": 76, "velocity": 114, "duration": 144}, {"note": 0, "velocity": 0, "duration": 216}, {"note": 76, "velocity": 116, "duration": 208}, {"note": 73, "velocity": 116, "duration": 118}, {"note": 0, "velocity": 0, "duration": 122}, {"note": 73, "velocity": 117, "duration": 130}, {"note": 0, "velocity": 0, "duration": 110}, {"note": 71, "velocity": 116, "duration": 79}, {"note": 73, "velocity": 117, "duration": 150}, {"note": 0, "velocity": 0, "duration": 570}, {"note": 76, "velocity": 114, "duration": 61}, {"note": 76, "velocity": 108, "duration": 52}, {"note": 0, "velocity": 0, "duration": 68}, {"note": 76, "velocity": 110, "duration": 58}, {"note": 0, "velocity": 0, "duration": 62}, {"note": 76, "velocity": 116, "duration": 132}, {"note": 0, "velocity": 0, "duration": 108}, {"note": 75, "velocity": 113, "duration": 52}, {"note": 0, "velocity": 0, "duration": 68}, {"note": 75, "velocity": 114, "duration": 51}, {"note": 0, "velocity": 0, "duration": 69}, {"note": 75, "velocity": 119, "duration": 133}, {"note": 0, "velocity": 0, "duration": 107}, {"note": 73, "velocity": 116, "duration": 51}, {"note": 0, "velocity": 0, "duration": 69}, {"note": 73, "velocity": 113, "duration": 52}, {"note": 0, "velocity": 0, "duration": 68}, {"note": 73, "velocity": 117, "duration": 130}, {"note": 0, "velocity": 0, "duration": 110}, {"note": 71, "velocity": 114, "duration": 161}, {"note": 0, "velocity": 0, "duration": 79}, {"note": 76, "velocity": 117, "duration": 165}, {"note": 0, "velocity": 0, "duration": 75}, {"note": 75, "velocity": 110, "duration": 127}, {"note": 0, "velocity": 0, "duration": 113}, {"note": 75, "velocity": 117, "duration": 116}, {"note": 73, "velocity": 117, "duration": 168}, {"note": 0, "velocity": 0, "duration": 912}, {"note": 68, "velocity": 120, "duration": 155}, {"note": 0, "velocity": 0, "duration": 85}, {"note": 80, "velocity": 117, "duration": 166}, {"note": 0, "velocity": 0, "duration": 74}, {"note": 76, "velocity": 120, "duration": 164}, {"note": 0, "velocity": 0, "duration": 76}, {"note": 75, "velocity": 120, "duration": 164}, {"note": 0, "velocity": 0, "duration": 76}, {"note": 73, "velocity": 114, "duration": 100}, {"note": 0, "velocity": 0, "duration": 140}, {"note": 75, "velocity": 117, "duration": 143}, {"note": 0, "velocity": 0, "duration": 97}, {"note": 73, "velocity": 116, "duration": 167}, {"note": 0, "velocity": 0, "duration": 73}, {"note": 75, "velocity": 116, "duration": 110}, {"note": 0, "velocity": 0, "duration": 130}, {"note": 73, "velocity": 113, "duration": 112}, {"note": 75, "velocity": 114, "duration": 156}, {"note": 0, "velocity": 0, "duration": 204}, {"note": 76, "velocity": 116, "duration": 151}, {"note": 0, "velocity": 0, "duration": 89}, {"note": 76, "velocity": 110, "duration": 189}, {"note": 73, "velocity": 110, "duration": 123}, {"note": 0, "velocity": 0, "duration": 117}, {"note": 73, "velocity": 116, "duration": 127}, {"note": 0, "velocity": 0, "duration": 113}, {"note": 71, "velocity": 110, "duration": 100}, {"note": 73, "velocity": 110, "duration": 155}, {"note": 0, "velocity": 0, "duration": 205}, {"note": 66, "velocity": 117, "duration": 125}, {"note": 0, "velocity": 0, "duration": 115}, {"note": 78, "velocity": 114, "duration": 171}, {"note": 0, "velocity": 0, "duration": 69}, {"note": 76, "velocity": 116, "duration": 148}, {"note": 0, "velocity": 0, "duration": 92}, {"note": 76, "velocity": 114, "duration": 135}, {"note": 0, "velocity": 0, "duration": 105}, {"note": 75, "velocity": 116, "duration": 105}, {"note": 75, "velocity": 117, "duration": 112}, {"note": 0, "velocity": 0, "duration": 248}, {"note": 73, "velocity": 114, "duration": 145}, {"note": 0, "velocity": 0, "duration": 95}, {"note": 73, "velocity": 110, "duration": 146}, {"note": 0, "velocity": 0, "duration": 94}, {"note": 71, "velocity": 108, "duration": 68}, {"note": 71, "velocity": 114, "duration": 120}, {"note": 0, "velocity": 0, "duration": 240}, {"note": 69, "velocity": 116, "duration": 52}, {"note": 0, "velocity": 0, "duration": 68}, {"note": 69, "velocity": 103, "duration": 49}, {"note": 0, "velocity": 0, "duration": 71}, {"note": 69, "velocity": 116, "duration": 182}, {"note": 68, "velocity": 116, "duration": 146}, {"note": 0, "velocity": 0, "duration": 94}, {"note": 66, "velocity": 110, "duration": 167}, {"note": 0, "velocity": 0, "duration": 73}, {"note": 69, "velocity": 113, "duration": 89}, {"note": 68, "velocity": 119, "duration": 144}, {"note": 0, "velocity": 0, "duration": 216}, {"note": 68, "velocity": 117, "duration": 122}, {"note": 0, "velocity": 0, "duration": 118}, {"note": 80, "velocity": 114, "duration": 198}, {"note": 76, "velocity": 116, "duration": 265}, {"note": 75, "velocity": 117, "duration": 175}, {"note": 0, "velocity": 0, "duration": 65}, {"note": 73, "velocity": 113, "duration": 87}, {"note": 75, "velocity": 114, "duration": 185}, {"note": 0, "velocity": 0, "duration": 175}, {"note": 73, "velocity": 113, "duration": 123}, {"note": 0, "velocity": 0, "duration": 117}, {"note": 75, "velocity": 91, "duration": 226}, {"note": 73, "velocity": 114, "duration": 105}, {"note": 75, "velocity": 116, "duration": 136}, {"note": 0, "velocity": 0, "duration": 104}, {"note": 76, "velocity": 114, "duration": 144}, {"note": 0, "velocity": 0, "duration": 216}, {"note": 76, "velocity": 116, "duration": 208}, {"note": 73, "velocity": 116, "duration": 118}, {"note": 0, "velocity": 0, "duration": 122}, {"note": 73, "velocity": 117, "duration": 130}, {"note": 0, "velocity": 0, "duration": 110}, {"note": 71, "velocity": 116, "duration": 79}, {"note": 73, "velocity": 117, "duration": 150}, {"note": 0, "velocity": 0, "duration": 570}, {"note": 76, "velocity": 114, "duration": 61}, {"note": 76, "velocity": 108, "duration": 52}, {"note": 0, "velocity": 0, "duration": 68}, {"note": 76, "velocity": 110, "duration": 58}, {"note": 0, "velocity": 0, "duration": 62}, {"note": 76, "velocity": 116, "duration": 132}, {"note": 0, "velocity": 0, "duration": 108}, {"note": 75, "velocity": 113, "duration": 52}, {"note": 0, "velocity": 0, "duration": 68}, {"note": 75, "velocity": 114, "duration": 51}, {"note": 0, "velocity": 0, "duration": 69}, {"note": 75, "velocity": 119, "duration": 133}, {"note": 0, "velocity": 0, "duration": 107}, {"note": 73, "velocity": 116, "duration": 51}, {"note": 0, "velocity": 0, "duration": 69}, {"note": 73, "velocity": 113, "duration": 52}, {"note": 0, "velocity": 0, "duration": 68}, {"note": 73, "velocity": 117, "duration": 130}, {"note": 0, "velocity": 0, "duration": 110}, {"note": 71, "velocity": 114, "duration": 161}, {"note": 0, "velocity": 0, "duration": 79}, {"note": 76, "velocity": 117, "duration": 165}, {"note": 0, "velocity": 0, "duration": 75}, {"note": 75, "velocity": 110, "duration": 127}, {"note": 0, "velocity": 0, "duration": 113}, {"note": 75, "velocity": 117, "duration": 116}, {"note": 73, "velocity": 117, "duration": 168}]]