[[{"note": 70, "velocity": 88, "duration": 88}, {"note": 72, "velocity": 87, "duration": 69}, {"note": 72, "velocity": 92, "duration": 172}, {"note": 0, "velocity": 0, "duration": 68}, {"note": 70, "velocity": 92, "duration": 36}, {"note": 0, "velocity": 0, "duration": 204}, {"note": 72, "velocity": 86, "duration": 153}, {"note": 0, "velocity": 0, "duration": 87}, {"note": 70, "velocity": 84, "duration": 49}, {"note": 0, "velocity": 0, "duration": 71}, {"note": 72, "velocity": 90, "duration": 131}, {"note": 0, "velocity": 0, "duration": 109}, {"note": 74, "velocity": 91, "duration": 134}, {"note": 0, "velocity": 0, "duration": 586}, {"note": 70, "velocity": 87, "duration": 104}, {"note": 77, "velocity": 104, "duration": 195}, {"note": 69, "velocity": 87, "duration": 66}, {"note": 69, "velocity": 87, "duration": 293}, {"note": 0, "velocity": 0, "duration": 67}, {"note": 70, "velocity": 89, "duration": 187}, {"note": 72, "velocity": 90, "duration": 177}, {"note": 0, "velocity": 0, "duration": 63}, {"note": 70, "velocity": 91, "duration": 138}, {"note": 0, "velocity": 0, "duration": 702}, {"note": 74, "velocity": 102, "duration": 166}, {"note": 0, "velocity": 0, "duration": 74}, {"note": 72, "velocity": 87, "duration": 71}, {"note": 74, "velocity": 94, "duration": 161}, {"note": 0, "velocity": 0, "duration": 199}, {"note": 72, "velocity": 88, "duration": 65}, {"note": 74, "velocity": 100, "duration": 114}, {"note": 0, "velocity": 0, "duration": 246}, {"note": 72, "velocity": 87, "duration": 110}, {"note": 67, "velocity": 84, "duration": 125}, {"note": 0, "velocity": 0, "duration": 355}, {"note": 67, "velocity": 87, "duration": 60}, {"note": 74, "velocity": 93, "duration": 130}, {"note": 0, "velocity": 0, "duration": 110}, {"note": 72, "velocity": 82, "duration": 49}, {"note": 0, "velocity": 0, "duration": 71}, {"note": 74, "velocity": 94, "duration": 139}, {"note": 0, "velocity": 0, "duration": 221}, {"note": 72, "velocity": 84, "duration": 46}, {"note": 0, "velocity": 0, "duration": 74}, {"note": 74, "velocity": 91, "duration": 120}, {"note": 0, "velocity": 0, "duration": 240}, {"note": 67, "velocity": 84, "duration": 67}, {"note": 70, "velocity": 88, "duration": 123}, {"note": 0, "velocity": 0, "duration": 117}, {"note": 72, "velocity": 81, "duration": 146}, {"note": 0, "velocity": 0, "duration": 94}, {"note": 67, "velocity": 73, "duration": 33}, {"note": 0, "velocity": 0, "duration": 87}, {"note": 72, "velocity": 100, "duration": 146}, {"note": 0, "velocity": 0, "duration": 94}, {"note": 70, "velocity": 83, "duration": 49}, {"note": 0, "velocity": 0, "duration": 71}, {"note": 72, "velocity": 93, "duration": 68}, {"note": 0, "velocity": 0, "duration": 412}, {"note": 70, "velocity": 86, "duration": 58}, {"note": 0, "velocity": 0, "duration": 62}, {"note": 72, "velocity": 93, "duration": 93}, {"note": 74, "velocity": 96, "duration": 138}, {"note": 0, "velocity": 0, "duration": 582}, {"note": 70, "velocity": 83, "duration": 121}, {"note": 77, "velocity": 91, "duration": 172}, {"note": 0, "velocity": 0, "duration": 68}, {"note": 69, "velocity": 83, "duration": 59}, {"note": 0, "velocity": 0, "duration": 61}, {"note": 69, "velocity": 87, "duration": 211}, {"note": 0, "velocity": 0, "duration": 149}, {"note": 70, "velocity": 83, "duration": 75}, {"note": 72, "velocity": 87, "duration": 125}, {"note": 0, "velocity": 0, "duration": 235}, {"note": 70, "velocity": 81, "duration": 93}, {"note": 0, "velocity": 0, "duration": 507}, {"note": 67, "velocity": 82, "duration": 85}, {"note": 74, "velocity": 94, "duration": 143}, {"note": 0, "velocity": 0, "duration": 97}, {"note": 72, "velocity": 88, "duration": 84}, {"note": 74, "velocity": 92, "duration": 139}, {"note": 0, "velocity": 0, "duration": 221}, {"note": 72, "velocity": 81, "duration": 82}, {"note": 74, "velocity": 86, "duration": 122}, {"note": 0, "velocity": 0, "duration": 238}, {"note": 72, "velocity": 87, "duration": 105}, {"note": 67, "velocity": 83, "duration": 128}, {"note": 0, "velocity": 0, "duration": 352}, {"note": 67, "velocity": 86, "duration": 54}, {"note": 0, "velocity": 0, "duration": 66}, {"note": 74, "velocity": 108, "duration": 135}, {"note": 0, "velocity": 0, "duration": 105}, {"note": 72, "velocity": 89, "duration": 67}, {"note": 74, "velocity": 113, "duration": 134}, {"note": 0, "velocity": 0, "duration": 226}, {"note": 72, "velocity": 91, "duration": 61}, {"note": 74, "velocity": 98, "duration": 142}, {"note": 0, "velocity": 0, "duration": 98}, {"note": 75, "velocity": 87, "duration": 127}, {"note": 0, "velocity": 0, "duration": 113}, {"note": 75, "velocity": 100, "duration": 121}, {"note": 0, "velocity": 0, "duration": 239}, {"note": 77, "velocity": 96, "duration": 109}, {"note": 79, "velocity": 92, "duration": 64}, {"note": 81, "velocity": 110, "duration": 137}, {"note": 0, "velocity": 0, "duration": 103}, {"note": 81, "velocity": 102, "duration": 46}, {"note": 0, "velocity": 0, "duration": 74}, {"note": 81, "velocity": 113, "duration": 142}, {"note": 0, "velocity": 0, "duration": 218}, {"note": 82, "velocity": 109, "duration": 66}, {"note": 81, "velocity": 108, "duration": 145}, {"note": 0, "velocity": 0, "duration": 95}, {"note": 77, "velocity": 110, "duration": 157}, {"note": 0, "velocity": 0, "duration": 443}, {"note": 74, "velocity": 104, "duration": 66}, {"note": 81, "velocity": 102, "duration": 55}, {"note": 0, "velocity": 0, "duration": 65}, {"note": 81, "velocity": 113, "duration": 130}, {"note": 0, "velocity": 0, "duration": 110}, {"note": 82, "velocity": 109, "duration": 121}, {"note": 0, "velocity": 0, "duration": 119}, {"note": 82, "velocity": 116, "duration": 115}, {"note": 0, "velocity": 0, "duration": 125}, {"note": 81, "velocity": 102, "duration": 47}, {"note": 0, "velocity": 0, "duration": 73}, {"note": 81, "velocity": 108, "duration": 128}, {"note": 0, "velocity": 0, "duration": 112}, {"note": 79, "velocity": 104, "duration": 137}, {"note": 0, "velocity": 0, "duration": 463}, {"note": 79, "velocity": 113, "duration": 110}, {"note": 81, "velocity": 110, "duration": 62}, {"note": 82, "velocity": 113, "duration": 127}, {"note": 0, "velocity": 0, "duration": 113}, {"note": 82, "velocity": 109, "duration": 45}, {"note": 0, "velocity": 0, "duration": 75}, {"note": 82, "velocity": 116, "duration": 145}, {"note": 0, "velocity": 0, "duration": 215}, {"note": 79, "velocity": 114, "duration": 175}, {"note": 0, "velocity": 0, "duration": 65}, {"note": 75, "velocity": 109, "duration": 166}, {"note": 0, "velocity": 0, "duration": 194}, {"note": 70, "velocity": 91, "duration": 93}, {"note": 77, "velocity": 87, "duration": 96}, {"note": 79, "velocity": 104, "duration": 197}, {"note": 0, "velocity": 0, "duration": 163}, {"note": 77, "velocity": 113, "duration": 191}, {"note": 0, "velocity": 0, "duration": 1009}, {"note": 70, "velocity": 116, "duration": 220}, {"note": 72, "velocity": 102, "duration": 166}, {"note": 0, "velocity": 0, "duration": 74}, {"note": 75, "velocity": 116, "duration": 144}, {"note": 0, "velocity": 0, "duration": 96}, {"note": 75, "velocity": 116, "duration": 145}, {"note": 0, "velocity": 0, "duration": 95}, {"note": 74, "velocity": 107, "duration": 44}, {"note": 0, "velocity": 0, "duration": 76}, {"note": 74, "velocity": 116, "duration": 193}, {"note": 0, "velocity": 0, "duration": 647}, {"note": 74, "velocity": 114, "duration": 239}, {"note": 77, "velocity": 113, "duration": 247}, {"note": 82, "velocity": 116, "duration": 135}, {"note": 0, "velocity": 0, "duration": 105}, {"note": 84, "velocity": 116, "duration": 157}, {"note": 0, "velocity": 0, "duration": 83}, {"note": 82, "velocity": 116, "duration": 64}, {"note": 82, "velocity": 119, "duration": 183}, {"note": 0, "velocity": 0, "duration": 657}, {"note": 82, "velocity": 106, "duration": 122}, {"note": 0, "velocity": 0, "duration": 118}, {"note": 82, "velocity": 119, "duration": 148}, {"note": 0, "velocity": 0, "duration": 92}, {"note": 84, "velocity": 117, "duration": 120}, {"note": 0, "velocity": 0, "duration": 120}, {"note": 86, "velocity": 120, "duration": 133}, {"note": 0, "velocity": 0, "duration": 107}, {"note": 86, "velocity": 117, "duration": 46}, {"note": 0, "velocity": 0, "duration": 74}, {"note": 86, "velocity": 123, "duration": 185}, {"note": 0, "velocity": 0, "duration": 415}, {"note": 86, "velocity": 114, "duration": 155}, {"note": 0, "velocity": 0, "duration": 85}, {"note": 84, "velocity": 116, "duration": 53}, {"note": 0, "velocity": 0, "duration": 67}, {"note": 84, "velocity": 117, "duration": 161}, {"note": 0, "velocity": 0, "duration": 199}, {"note": 79, "velocity": 110, "duration": 147}, {"note": 0, "velocity": 0, "duration": 93}, {"note": 82, "velocity": 119, "duration": 133}, {"note": 0, "velocity": 0, "duration": 107}, {"note": 82, "velocity": 116, "duration": 128}, {"note": 0, "velocity": 0, "duration": 112}, {"note": 82, "velocity": 119, "duration": 143}, {"note": 84, "velocity": 104, "duration": 190}, {"note": 0, "velocity": 0, "duration": 170}, {"note": 81, "velocity": 117, "duration": 173}, {"note": 0, "velocity": 0, "duration": 307}, {"note": 81, "velocity": 117, "duration": 100}, {"note": 79, "velocity": 104, "duration": 119}, {"note": 77, "velocity": 110, "duration": 106}, {"note": 79, "velocity": 110, "duration": 80}, {"note": 81, "velocity": 119, "duration": 153}, {"note": 0, "velocity": 0, "duration": 87}, {"note": 81, "velocity": 96, "duration": 83}, {"note": 0, "velocity": 0, "duration": 157}, {"note": 81, "velocity": 119, "duration": 166}, {"note": 0, "velocity": 0, "duration": 74}, {"note": 82, "velocity": 116, "duration": 78}, {"note": 81, "velocity": 116, "duration": 141}, {"note": 0, "velocity": 0, "duration": 99}, {"note": 77, "velocity": 117, "duration": 118}, {"note": 0, "velocity": 0, "duration": 482}, {"note": 74, "velocity": 113, "duration": 81}, {"note": 81, "velocity": 114, "duration": 57}, {"note": 0, "velocity": 0, "duration": 63}, {"note": 81, "velocity": 116, "duration": 71}, {"note": 82, "velocity": 119, "duration": 123}, {"note": 0, "velocity": 0, "duration": 117}, {"note": 82, "velocity": 119, "duration": 139}, {"note": 0, "velocity": 0, "duration": 221}, {"note": 84, "velocity": 110, "duration": 127}, {"note": 0, "velocity": 0, "duration": 113}, {"note": 84, "velocity": 116, "duration": 148}, {"note": 0, "velocity": 0, "duration": 92}, {"note": 82, "velocity": 116, "duration": 149}, {"note": 0, "velocity": 0, "duration": 331}, {"note": 74, "velocity": 113, "duration": 76}, {"note": 77, "velocity": 113, "duration": 44}, {"note": 0, "velocity": 0, "duration": 76}, {"note": 77, "velocity": 107, "duration": 67}, {"note": 79, "velocity": 114, "duration": 118}, {"note": 0, "velocity": 0, "duration": 122}, {"note": 79, "velocity": 116, "duration": 143}, {"note": 0, "velocity": 0, "duration": 457}, {"note": 79, "velocity": 117, "duration": 157}, {"note": 0, "velocity": 0, "duration": 83}, {"note": 82, "velocity": 123, "duration": 58}, {"note": 0, "velocity": 0, "duration": 62}, {"note": 82, "velocity": 123, "duration": 133}, {"note": 0, "velocity": 0, "duration": 467}, {"note": 82, "velocity": 119, "duration": 128}, {"note": 0, "velocity": 0, "duration": 112}, {"note": 84, "velocity": 114, "duration": 56}, {"note": 0, "velocity": 0, "duration": 64}, {"note": 84, "velocity": 119, "duration": 156}, {"note": 0, "velocity": 0, "duration": 204}, {"note": 82, "velocity": 119, "duration": 146}, {"note": 0, "velocity": 0, "duration": 94}, {"note": 77, "velocity": 114, "duration": 221}, {"note": 70, "velocity": 116, "duration": 220}, {"note": 72, "velocity": 102, "duration": 166}, {"note": 0, "velocity": 0, "duration": 74}, {"note": 75, "velocity": 116, "duration": 144}, {"note": 0, "velocity": 0, "duration": 96}, {"note": 75, "velocity": 116, "duration": 145}, {"note": 0, "velocity": 0, "duration": 95}, {"note": 74, "velocity": 107, "duration": 44}, {"note": 0, "velocity": 0, "duration": 76}, {"note": 74, "velocity": 116, "duration": 193}, {"note": 0, "velocity": 0, "duration": 647}, {"note": 74, "velocity": 114, "duration": 239}, {"note": 77, "velocity": 113, "duration": 247}, {"note": 82, "velocity": 116, "duration": 135}, {"note": 0, "velocity": 0, "duration": 105}, {"note": 84, "velocity": 116, "duration": 157}, {"note": 0, "velocity": 0, "duration": 83}, {"note": 82, "velocity": 116, "duration": 64}, {"note": 82, "velocity": 119, "duration": 183}, {"note": 0, "velocity": 0, "duration": 657}, {"note": 82, "velocity": 106, "duration": 122}, {"note": 0, "velocity": 0, "duration": 118}, {"note": 82, "velocity": 119, "duration": 148}, {"note": 0, "velocity": 0, "duration": 92}, {"note": 84, "velocity": 117, "duration": 120}, {"note": 0, "velocity": 0, "duration": 120}, {"note": 86, "velocity": 120, "duration": 133}, {"note": 0, "velocity": 0, "duration": 107}, {"note": 86, "velocity": 117, "duration": 46}, {"note": 0, "velocity": 0, "duration": 74}, {"note": 86, "velocity": 123, "duration": 185}, {"note": 0, "velocity": 0, "duration": 415}, {"note": 86, "velocity": 114, "duration": 155}, {"note": 0, "velocity": 0, "duration": 85}, {"note": 84, "velocity": 116, "duration": 53}, {"note": 0, "velocity": 0, "duration": 67}, {"note": 84, "velocity": 117, "duration": 161}, {"note": 0, "velocity": 0, "duration": 199}, {"note": 79, "velocity": 110, "duration": 147}, {"note": 0, "velocity": 0, "duration": 93}, {"note": 82, "velocity": 119, "duration": 133}, {"note": 0, "velocity": 0, "duration": 107}, {"note": 82, "velocity": 116, "duration": 128}, {"note": 0, "velocity": 0, "duration": 112}, {"note": 82, "velocity": 119, "duration": 143}, {"note": 84, "velocity": 104, "duration": 190}, {"note": 0, "velocity": 0, "duration": 170}, {"note": 81, "velocity": 117, "duration": 173}, {"note": 0, "velocity": 0, "duration": 307}, {"note": 81, "velocity": 117, "duration": 100}, {"note": 79, "velocity": 104, "duration": 119}, {"note": 77, "velocity": 110, "duration": 106}, {"note": 79, "velocity": 110, "duration": 80}, {"note": 81, "velocity": 119, "duration": 153}, {"note": 0, "velocity": 0, "duration": 87}, {"note": 81, "velocity": 96, "duration": 83}, {"note": 0, "velocity": 0, "duration": 157}, {"note": 81, "velocity": 119, "duration": 166}, {"note": 0, "velocity": 0, "duration": 74}, {"note": 82, "velocity": 116, "duration": 78}, {"note": 81, "velocity": 116, "duration": 141}, {"note": 0, "velocity": 0, "duration": 99}, {"note": 77, "velocity": 117, "duration": 118}, {"note": 0, "velocity": 0, "duration": 482}, {"note": 74, "velocity": 113, "duration": 81}, {"note": 81, "velocity": 114, "duration": 57}, {"note": 0, "velocity": 0, "duration": 63}, {"note": 81, "velocity": 116, "duration": 71}, {"note": 82, "velocity": 119, "duration": 123}, {"note": 0, "velocity": 0, "duration": 117}, {"note": 82, "velocity": 119, "duration": 139}, {"note": 0, "velocity": 0, "duration": 221}, {"note": 81, "velocity": 110, "duration": 55}, {"note": 0, "velocity": 0, "duration": 65}, {"note": 84, "velocity": 116, "duration": 128}, {"note": 0, "velocity": 0, "duration": 112}, {"note": 82, "velocity": 119, "duration": 134}, {"note": 0, "velocity": 0, "duration": 346}, {"note": 77, "velocity": 113, "duration": 43}, {"note": 0, "velocity": 0, "duration": 77}, {"note": 77, "velocity": 107, "duration": 46}, {"note": 0, "velocity": 0, "duration": 74}, {"note": 77, "velocity": 98, "duration": 39}, {"note": 0, "velocity": 0, "duration": 81}, {"note": 77, "velocity": 113, "duration": 145}, {"note": 0, "velocity": 0, "duration": 95}, {"note": 75, "velocity": 100, "duration": 37}, {"note": 0, "velocity": 0, "duration": 83}, {"note": 75, "velocity": 109, "duration": 113}, {"note": 0, "velocity": 0, "duration": 1087}, {"note": 75, "velocity": 86, "duration": 101}, {"note": 74, "velocity": 85, "duration": 117}, {"note": 72, "velocity": 84, "duration": 72}, {"note": 72, "velocity": 92, "duration": 272}, {"note": 70, "velocity": 86, "duration": 209}, {"note": 0, "velocity": 0, "duration": 7111}, {"note": 67, "velocity": 73, "duration": 33}, {"note": 0, "velocity": 0, "duration": 87}, {"note": 72, "velocity": 100, "duration": 146}, {"note": 0, "velocity": 0, "duration": 94}, {"note": 70, "velocity": 83, "duration": 49}, {"note": 0, "velocity": 0, "duration": 71}, {"note": 72, "velocity": 93, "duration": 68}, {"note": 0, "velocity": 0, "duration": 412}, {"note": 70, "velocity": 86, "duration": 58}, {"note": 0, "velocity": 0, "duration": 62}, {"note": 72, "velocity": 93, "duration": 93}, {"note": 74, "velocity": 96, "duration": 138}, {"note": 0, "velocity": 0, "duration": 582}, {"note": 70, "velocity": 83, "duration": 121}, {"note": 77, "velocity": 91, "duration": 172}, {"note": 0, "velocity": 0, "duration": 68}, {"note": 69, "velocity": 83, "duration": 59}, {"note": 0, "velocity": 0, "duration": 61}, {"note": 69, "velocity": 87, "duration": 211}, {"note": 0, "velocity": 0, "duration": 149}, {"note": 70, "velocity": 83, "duration": 75}, {"note": 72, "velocity": 87, "duration": 125}, {"note": 0, "velocity": 0, "duration": 235}, {"note": 70, "velocity": 81, "duration": 93}, {"note": 0, "velocity": 0, "duration": 507}, {"note": 67, "velocity": 82, "duration": 85}, {"note": 74, "velocity": 94, "duration": 143}, {"note": 0, "velocity": 0, "duration": 97}, {"note": 72, "velocity": 88, "duration": 84}, {"note": 74, "velocity": 92, "duration": 139}, {"note": 0, "velocity": 0, "duration": 221}, {"note": 72, "velocity": 81, "duration": 82}, {"note": 74, "velocity": 86, "duration": 122}, {"note": 0, "velocity": 0, "duration": 238}, {"note": 72, "velocity": 87, "duration": 105}, {"note": 67, "velocity": 83, "duration": 128}, {"note": 0, "velocity": 0, "duration": 352}, {"note": 67, "velocity": 86, "duration": 54}, {"note": 0, "velocity": 0, "duration": 66}, {"note": 74, "velocity": 108, "duration": 135}, {"note": 0, "velocity": 0, "duration": 105}, {"note": 72, "velocity": 89, "duration": 67}, {"note": 74, "velocity": 113, "duration": 134}, {"note": 0, "velocity": 0, "duration": 226}, {"note": 72, "velocity": 91, "duration": 61}, {"note": 74, "velocity": 98, "duration": 142}, {"note": 0, "velocity": 0, "duration": 98}, {"note": 75, "velocity": 87, "duration": 127}, {"note": 0, "velocity": 0, "duration": 113}, {"note": 75, "velocity": 100, "duration": 121}, {"note": 0, "velocity": 0, "duration": 239}, {"note": 77, "velocity": 96, "duration": 109}, {"note": 79, "velocity": 92, "duration": 64}, {"note": 81, "velocity": 110, "duration": 137}, {"note": 0, "velocity": 0, "duration": 103}, {"note": 81, "velocity": 102, "duration": 46}, {"note": 0, "velocity": 0, "duration": 74}, {"note": 81, "velocity": 113, "duration": 142}, {"note": 0, "velocity": 0, "duration": 218}, {"note": 82, "velocity": 109, "duration": 66}, {"note": 81, "velocity": 108, "duration": 145}, {"note": 0, "velocity": 0, "duration": 95}, {"note": 77, "velocity": 110, "duration": 157}, {"note": 0, "velocity": 0, "duration": 443}, {"note": 74, "velocity": 104, "duration": 66}, {"note": 81, "velocity": 102, "duration": 55}, {"note": 0, "velocity": 0, "duration": 65}, {"note": 81, "velocity": 113, "duration": 130}, {"note": 0, "velocity": 0, "duration": 110}, {"note": 82, "velocity": 109, "duration": 121}, {"note": 0, "velocity": 0, "duration": 119}, {"note": 82, "velocity": 116, "duration": 115}, {"note": 0, "velocity": 0, "duration": 125}, {"note": 81, "velocity": 102, "duration": 47}, {"note": 0, "velocity": 0, "duration": 73}, {"note": 81, "velocity": 108, "duration": 128}, {"note": 0, "velocity": 0, "duration": 112}, {"note": 79, "velocity": 104, "duration": 137}, {"note": 0, "velocity": 0, "duration": 463}, {"note": 79, "velocity": 113, "duration": 110}, {"note": 81, "velocity": 110, "duration": 62}, {"note": 82, "velocity": 113, "duration": 127}, {"note": 0, "velocity": 0, "duration": 113}, {"note": 82, "velocity": 109, "duration": 45}, {"note": 0, "velocity": 0, "duration": 75}, {"note": 82, "velocity": 116, "duration": 145}, {"note": 0, "velocity": 0, "duration": 215}, {"note": 79, "velocity": 114, "duration": 175}, {"note": 0, "velocity": 0, "duration": 65}, {"note": 75, "velocity": 109, "duration": 166}, {"note": 0, "velocity": 0, "duration": 194}, {"note": 70, "velocity": 91, "duration": 93}, {"note": 77, "velocity": 87, "duration": 96}, {"note": 79, "velocity": 104, "duration": 197}, {"note": 0, "velocity": 0, "duration": 163}, {"note": 77, "velocity": 113, "duration": 191}, {"note": 0, "velocity": 0, "duration": 1009}, {"note": 70, "velocity": 116, "duration": 220}, {"note": 72, "velocity": 102, "duration": 166}, {"note": 0, "velocity": 0, "duration": 74}, {"note": 75, "velocity": 116, "duration": 144}, {"note": 0, "velocity": 0, "duration": 96}, {"note": 75, "velocity": 116, "duration": 145}, {"note": 0, "velocity": 0, "duration": 95}, {"note": 74, "velocity": 107, "duration": 44}, {"note": 0, "velocity": 0, "duration": 76}, {"note": 74, "velocity": 116, "duration": 193}, {"note": 0, "velocity": 0, "duration": 647}, {"note": 74, "velocity": 114, "duration": 239}, {"note": 77, "velocity": 113, "duration": 247}, {"note": 82, "velocity": 116, "duration": 135}, {"note": 0, "velocity": 0, "duration": 105}, {"note": 84, "velocity": 116, "duration": 157}, {"note": 0, "velocity": 0, "duration": 83}, {"note": 82, "velocity": 116, "duration": 64}, {"note": 82, "velocity": 119, "duration": 183}, {"note": 0, "velocity": 0, "duration": 657}, {"note": 82, "velocity": 106, "duration": 122}, {"note": 0, "velocity": 0, "duration": 118}, {"note": 82, "velocity": 119, "duration": 148}, {"note": 0, "velocity": 0, "duration": 92}, {"note": 84, "velocity": 117, "duration": 120}, {"note": 0, "velocity": 0, "duration": 120}, {"note": 86, "velocity": 120, "duration": 133}, {"note": 0, "velocity": 0, "duration": 107}, {"note": 86, "velocity": 117, "duration": 46}, {"note": 0, "velocity": 0, "duration": 74}, {"note": 86, "velocity": 123, "duration": 185}, {"note": 0, "velocity": 0, "duration": 415}, {"note": 86, "velocity": 114, "duration": 155}, {"note": 0, "velocity": 0, "duration": 85}, {"note": 84, "velocity": 116, "duration": 53}, {"note": 0, "velocity": 0, "duration": 67}, {"note": 84, "velocity": 117, "duration": 161}, {"note": 0, "velocity": 0, "duration": 199}, {"note": 79, "velocity": 110, "duration": 147}, {"note": 0, "velocity": 0, "duration": 93}, {"note": 82, "velocity": 119, "duration": 133}, {"note": 0, "velocity": 0, "duration": 107}, {"note": 82, "velocity": 116, "duration": 128}, {"note": 0, "velocity": 0, "duration": 112}, {"note": 82, "velocity": 119, "duration": 143}, {"note": 84, "velocity": 104, "duration": 190}, {"note": 0, "velocity": 0, "duration": 170}, {"note": 81, "velocity": 117, "duration": 173}, {"note": 0, "velocity": 0, "duration": 307}, {"note": 81, "velocity": 117, "duration": 100}, {"note": 79, "velocity": 104, "duration": 119}, {"note": 77, "velocity": 110, "duration": 106}, {"note": 79, "velocity": 110, "duration": 80}, {"note": 81, "velocity": 119, "duration": 153}, {"note": 0, "velocity": 0, "duration": 87}, {"note": 81, "velocity": 96, "duration": 83}, {"note": 0, "velocity": 0, "duration": 157}, {"note": 81, "velocity": 119, "duration": 166}, {"note": 0, "velocity": 0, "duration": 74}, {"note": 82, "velocity": 116, "duration": 78}, {"note": 81, "velocity": 116, "duration": 141}, {"note": 0, "velocity": 0, "duration": 99}, {"note": 77, "velocity": 117, "duration": 118}, {"note": 0, "velocity": 0, "duration": 482}, {"note": 74, "velocity": 113, "duration": 81}, {"note": 81, "velocity": 114, "duration": 57}, {"note": 0, "velocity": 0, "duration": 63}, {"note": 81, "velocity": 116, "duration": 71}, {"note": 82, "velocity": 119, "duration": 123}, {"note": 0, "velocity": 0, "duration": 117}, {"note": 82, "velocity": 119, "duration": 139}, {"note": 0, "velocity": 0, "duration": 221}, {"note": 84, "velocity": 110, "duration": 127}, {"note": 0, "velocity": 0, "duration": 113}, {"note": 84, "velocity": 116, "duration": 148}, {"note": 0, "velocity": 0, "duration": 92}, {"note": 82, "velocity": 116, "duration": 149}, {"note": 0, "velocity": 0, "duration": 331}, {"note": 74, "velocity": 113, "duration": 76}, {"note": 77, "velocity": 113, "duration": 44}, {"note": 0, "velocity": 0, "duration": 76}, {"note": 77, "velocity": 107, "duration": 67}, {"note": 79, "velocity": 114, "duration": 118}, {"note": 0, "velocity": 0, "duration": 122}, {"note": 79, "velocity": 116, "duration": 143}, {"note": 0, "velocity": 0, "duration": 457}, {"note": 79, "velocity": 117, "duration": 157}, {"note": 0, "velocity": 0, "duration": 83}, {"note": 82, "velocity": 123, "duration": 58}, {"note": 0, "velocity": 0, "duration": 62}, {"note": 82, "velocity": 123, "duration": 133}, {"note": 0, "velocity": 0, "duration": 467}, {"note": 82, "velocity": 119, "duration": 128}, {"note": 0, "velocity": 0, "duration": 112}, {"note": 84, "velocity": 114, "duration": 56}, {"note": 0, "velocity": 0, "duration": 64}, {"note": 84, "velocity": 119, "duration": 156}, {"note": 0, "velocity": 0, "duration": 204}, {"note": 82, "velocity": 119, "duration": 146}, {"note": 0, "velocity": 0, "duration": 94}, {"note": 77, "velocity": 114, "duration": 221}, {"note": 70, "velocity": 116, "duration": 220}, {"note": 72, "velocity": 102, "duration": 166}, {"note": 0, "velocity": 0, "duration": 74}, {"note": 75, "velocity": 116, "duration": 144}, {"note": 0, "velocity": 0, "duration": 96}, {"note": 75, "velocity": 116, "duration": 145}, {"note": 0, "velocity": 0, "duration": 95}, {"note": 74, "velocity": 107, "duration": 44}, {"note": 0, "velocity": 0, "duration": 76}, {"note": 74, "velocity": 116, "duration": 193}, {"note": 0, "velocity": 0, "duration": 647}, {"note": 74, "velocity": 114, "duration": 239}, {"note": 77, "velocity": 113, "duration": 247}, {"note": 82, "velocity": 116, "duration": 135}, {"note": 0, "velocity": 0, "duration": 105}, {"note": 84, "velocity": 116, "duration": 157}, {"note": 0, "velocity": 0, "duration": 83}, {"note": 82, "velocity": 116, "duration": 64}, {"note": 82, "velocity": 119, "duration": 183}, {"note": 0, "velocity": 0, "duration": 657}, {"note": 82, "velocity": 106, "duration": 122}, {"note": 0, "velocity": 0, "duration": 118}, {"note": 82, "velocity": 119, "duration": 148}, {"note": 0, "velocity": 0, "duration": 92}, {"note": 84, "velocity": 117, "duration": 120}, {"note": 0, "velocity": 0, "duration": 120}, {"note": 86, "velocity": 120, "duration": 133}, {"note": 0, "velocity": 0, "duration": 107}, {"note": 86, "velocity": 117, "duration": 46}, {"note": 0, "velocity": 0, "duration": 74}, {"note": 86, "velocity": 123, "duration": 185}, {"note": 0, "velocity": 0, "duration": 415}, {"note": 86, "velocity": 114, "duration": 155}, {"note": 0, "velocity": 0, "duration": 85}, {"note": 84, "velocity": 116, "duration": 53}, {"note": 0, "velocity": 0, "duration": 67}, {"note": 84, "velocity": 117, "duration": 161}, {"note": 0, "velocity": 0, "duration": 199}, {"note": 79, "velocity": 110, "duration": 147}, {"note": 0, "velocity": 0, "duration": 93}, {"note": 82, "velocity": 119, "duration": 133}, {"note": 0, "velocity": 0, "duration": 107}, {"note": 82, "velocity": 116, "duration": 128}, {"note": 0, "velocity": 0, "duration": 112}, {"note": 82, "velocity": 119, "duration": 143}, {"note": 84, "velocity": 104, "duration": 190}, {"note": 0, "velocity": 0, "duration": 170}, {"note": 81, "velocity": 117, "duration": 173}, {"note": 0, "velocity": 0, "duration": 307}, {"note": 81, "velocity": 117, "duration": 100}, {"note": 79, "velocity": 104, "duration": 119}, {"note": 77, "velocity": 110, "duration": 106}, {"note": 79, "velocity": 110, "duration": 80}, {"note": 81, "velocity": 119, "duration": 153}, {"note": 0, "velocity": 0, "duration": 87}, {"note": 81, "velocity": 96, "duration": 83}, {"note": 0, "velocity": 0, "duration": 157}, {"note": 81, "velocity": 119, "duration": 166}, {"note": 0, "velocity": 0, "duration": 74}, {"note": 82, "velocity": 116, "duration": 78}, {"note": 81, "velocity": 116, "duration": 141}, {"note": 0, "velocity": 0, "duration": 99}, {"note": 77, "velocity": 117, "duration": 118}, {"note": 0, "velocity": 0, "duration": 482}, {"note": 74, "velocity": 113, "duration": 81}, {"note": 81, "velocity": 114, "duration": 57}, {"note": 0, "velocity": 0, "duration": 63}, {"note": 81, "velocity": 116, "duration": 71}, {"note": 82, "velocity": 119, "duration": 123}, {"note": 0, "velocity": 0, "duration": 117}, {"note": 82, "velocity": 119, "duration": 139}, {"note": 0, "velocity": 0, "duration": 221}, {"note": 81, "velocity": 110, "duration": 55}, {"note": 0, "velocity": 0, "duration": 65}, {"note": 84, "velocity": 116, "duration": 128}, {"note": 0, "velocity": 0, "duration": 112}, {"note": 82, "velocity": 119, "duration": 134}, {"note": 0, "velocity": 0, "duration": 346}, {"note": 77, "velocity": 113, "duration": 43}, {"note": 0, "velocity": 0, "duration": 77}, {"note": 77, "velocity": 107, "duration": 46}, {"note": 0, "velocity": 0, "duration": 74}, {"note": 77, "velocity": 98, "duration": 39}, {"note": 0, "velocity": 0, "duration": 81}, {"note": 77, "velocity": 113, "duration": 145}, {"note": 0, "velocity": 0, "duration": 95}, {"note": 79, "velocity": 100, "duration": 37}, {"note": 0, "velocity": 0, "duration": 83}, {"note": 79, "velocity": 109, "duration": 113}, {"note": 0, "velocity": 0, "duration": 1087}, {"note": 86, "velocity": 110, "duration": 120}, {"note": 84, "velocity": 104, "duration": 116}, {"note": 82, "velocity": 108, "duration": 104}, {"note": 84, "velocity": 113, "duration": 164}, {"note": 0, "velocity": 0, "duration": 76}, {"note": 86, "velocity": 119, "duration": 480}, {"note": 82, "velocity": 116, "duration": 254}, {"note": 0, "velocity": 0, "duration": 2146}, {"note": 70, "velocity": 116, "duration": 220}, {"note": 72, "velocity": 102, "duration": 166}, {"note": 0, "velocity": 0, "duration": 74}, {"note": 75, "velocity": 116, "duration": 144}, {"note": 0, "velocity": 0, "duration": 96}, {"note": 75, "velocity": 116, "duration": 145}, {"note": 0, "velocity": 0, "duration": 95}, {"note": 74, "velocity": 107, "duration": 44}, {"note": 0, "velocity": 0, "duration": 76}, {"note": 74, "velocity": 116, "duration": 193}, {"note": 0, "velocity": 0, "duration": 647}, {"note": 74, "velocity": 114, "duration": 239}, {"note": 77, "velocity": 113, "duration": 247}, {"note": 82, "velocity": 116, "duration": 135}, {"note": 0, "velocity": 0, "duration": 105}, {"note": 84, "velocity": 116, "duration": 157}, {"note": 0, "velocity": 0, "duration": 83}, {"note": 82, "velocity": 116, "duration": 64}, {"note": 82, "velocity": 119, "duration": 183}, {"note": 0, "velocity": 0, "duration": 657}, {"note": 82, "velocity": 106, "duration": 122}, {"note": 0, "velocity": 0, "duration": 118}, {"note": 82, "velocity": 119, "duration": 148}, {"note": 0, "velocity": 0, "duration": 92}, {"note": 84, "velocity": 117, "duration": 120}, {"note": 0, "velocity": 0, "duration": 120}, {"note": 86, "velocity": 120, "duration": 133}, {"note": 0, "velocity": 0, "duration": 107}, {"note": 86, "velocity": 117, "duration": 46}, {"note": 0, "velocity": 0, "duration": 74}, {"note": 86, "velocity": 123, "duration": 185}, {"note": 0, "velocity": 0, "duration": 415}, {"note": 86, "velocity": 114, "duration": 155}, {"note": 0, "velocity": 0, "duration": 85}, {"note": 84, "velocity": 116, "duration": 53}, {"note": 0, "velocity": 0, "duration": 67}, {"note": 84, "velocity": 117, "duration": 161}, {"note": 0, "velocity": 0, "duration": 199}, {"note": 79, "velocity": 110, "duration": 147}, {"note": 0, "velocity": 0, "duration": 93}, {"note": 82, "velocity": 119, "duration": 133}, {"note": 0, "velocity": 0, "duration": 107}, {"note": 82, "velocity": 116, "duration": 128}, {"note": 0, "velocity": 0, "duration": 112}, {"note": 82, "velocity": 119, "duration": 143}, {"note": 84, "velocity": 104, "duration": 190}, {"note": 0, "velocity": 0, "duration": 170}, {"note": 81, "velocity": 117, "duration": 173}, {"note": 0, "velocity": 0, "duration": 307}, {"note": 81, "velocity": 117, "duration": 100}, {"note": 79, "velocity": 104, "duration": 119}, {"note": 77, "velocity": 110, "duration": 106}, {"note": 79, "velocity": 110, "duration": 80}, {"note": 81, "velocity": 119, "duration": 153}, {"note": 0, "velocity": 0, "duration": 87}, {"note": 81, "velocity": 96, "duration": 83}, {"note": 0, "velocity": 0, "duration": 157}, {"note": 81, "velocity": 119, "duration": 166}, {"note": 0, "velocity": 0, "duration": 74}, {"note": 82, "velocity": 116, "duration": 78}, {"note": 81, "velocity": 116, "duration": 141}, {"note": 0, "velocity": 0, "duration": 99}, {"note": 77, "velocity": 117, "duration": 118}, {"note": 0, "velocity": 0, "duration": 482}, {"note": 74, "velocity": 113, "duration": 81}, {"note": 81, "velocity": 114, "duration": 57}, {"note": 0, "velocity": 0, "duration": 63}, {"note": 81, "velocity": 116, "duration": 71}, {"note": 82, "velocity": 119, "duration": 123}, {"note": 0, "velocity": 0, "duration": 117}, {"note": 82, "velocity": 119, "duration": 139}, {"note": 0, "velocity": 0, "duration": 221}, {"note": 84, "velocity": 110, "duration": 127}, {"note": 0, "velocity": 0, "duration": 113}, {"note": 84, "velocity": 116, "duration": 148}, {"note": 0, "velocity": 0, "duration": 92}, {"note": 82, "velocity": 116, "duration": 149}, {"note": 0, "velocity": 0, "duration": 211}, {"note": 77, "velocity": 104, "duration": 52}, {"note": 0, "velocity": 0, "duration": 68}, {"note": 77, "velocity": 108, "duration": 50}, {"note": 0, "velocity": 0, "duration": 70}, {"note": 77, "velocity": 107, "duration": 46}, {"note": 0, "velocity": 0, "duration": 74}, {"note": 77, "velocity": 117, "duration": 148}, {"note": 0, "velocity": 0, "duration": 92}, {"note": 75, "velocity": 110, "duration": 48}, {"note": 0, "velocity": 0, "duration": 72}, {"note": 75, "velocity": 116, "duration": 620}, {"note": 0, "velocity": 0, "duration": 580}, {"note": 75, "velocity": 102, "duration": 104}, {"note": 74, "velocity": 87, "duration": 102}, {"note": 70, "velocity": 89, "duration": 89}, {"note": 72, "velocity": 92, "duration": 180}, {"note": 72, "velocity": 87, "duration": 157}, {"note": 0, "velocity": 0, "duration": 83}, {"note": 74, "velocity": 88, "duration": 227}, {"note": 70, "velocity": 89, "duration": 210}, {"note": 0, "velocity": 0, "duration": 630}, {"note": 70, "velocity": 88, "duration": 145}, {"note": 72, "velocity": 87, "duration": 84}, {"note": 74, "velocity": 88, "duration": 76}, {"note": 74, "velocity": 94, "duration": 165}, {"note": 0, "velocity": 0, "duration": 75}, {"note": 75, "velocity": 88, "duration": 144}, {"note": 0, "velocity": 0, "duration": 96}, {"note": 75, "velocity": 91, "duration": 320}, {"note": 0, "velocity": 0, "duration": 1240}, {"note": 74, "velocity": 84, "duration": 160}, {"note": 0, "velocity": 0, "duration": 80}, {"note": 72, "velocity": 86, "duration": 149}, {"note": 0, "velocity": 0, "duration": 91}, {"note": 70, "velocity": 87, "duration": 252}, {"note": 72, "velocity": 85, "duration": 265}, {"note": 0, "velocity": 0, "duration": 575}, {"note": 70, "velocity": 87, "duration": 134}, {"note": 0, "velocity": 0, "duration": 106}, {"note": 70, "velocity": 84, "duration": 244}]]