[[{"note": 72, "velocity": 108, "duration": 119}, {"note": 72, "velocity": 102, "duration": 119}, {"note": 72, "velocity": 108, "duration": 359}, {"note": 72, "velocity": 117, "duration": 120}, {"note": 70, "velocity": 110, "duration": 240}, {"note": 68, "velocity": 104, "duration": 120}, {"note": 72, "velocity": 119, "duration": 840}, {"note": 70, "velocity": 104, "duration": 119}, {"note": 70, "velocity": 100, "duration": 119}, {"note": 70, "velocity": 107, "duration": 360}, {"note": 72, "velocity": 114, "duration": 120}, {"note": 70, "velocity": 108, "duration": 240}, {"note": 68, "velocity": 100, "duration": 120}, {"note": 65, "velocity": 100, "duration": 840}, {"note": 63, "velocity": 91, "duration": 119}, {"note": 63, "velocity": 94, "duration": 119}, {"note": 63, "velocity": 98, "duration": 240}, {"note": 65, "velocity": 96, "duration": 120}, {"note": 67, "velocity": 97, "duration": 359}, {"note": 67, "velocity": 100, "duration": 240}, {"note": 65, "velocity": 96, "duration": 240}, {"note": 63, "velocity": 88, "duration": 120}, {"note": 65, "velocity": 92, "duration": 2280}, {"note": 72, "velocity": 108, "duration": 119}, {"note": 72, "velocity": 100, "duration": 119}, {"note": 72, "velocity": 107, "duration": 359}, {"note": 72, "velocity": 110, "duration": 120}, {"note": 70, "velocity": 107, "duration": 240}, {"note": 68, "velocity": 100, "duration": 120}, {"note": 72, "velocity": 113, "duration": 840}, {"note": 70, "velocity": 107, "duration": 119}, {"note": 70, "velocity": 100, "duration": 119}, {"note": 70, "velocity": 104, "duration": 360}, {"note": 72, "velocity": 96, "duration": 120}, {"note": 70, "velocity": 102, "duration": 240}, {"note": 68, "velocity": 93, "duration": 124}, {"note": 65, "velocity": 92, "duration": 840}, {"note": 63, "velocity": 100, "duration": 119}, {"note": 63, "velocity": 102, "duration": 119}, {"note": 63, "velocity": 104, "duration": 240}, {"note": 65, "velocity": 100, "duration": 120}, {"note": 67, "velocity": 113, "duration": 359}, {"note": 67, "velocity": 116, "duration": 480}, {"note": 68, "velocity": 108, "duration": 120}, {"note": 67, "velocity": 90, "duration": 119}, {"note": 67, "velocity": 106, "duration": 359}, {"note": 67, "velocity": 102, "duration": 1320}, {"note": 68, "velocity": 110, "duration": 142}, {"note": 70, "velocity": 110, "duration": 120}, {"note": 72, "velocity": 114, "duration": 240}, {"note": 75, "velocity": 114, "duration": 239}, {"note": 75, "velocity": 116, "duration": 240}, {"note": 72, "velocity": 102, "duration": 120}, {"note": 75, "velocity": 116, "duration": 720}, {"note": 72, "velocity": 116, "duration": 119}, {"note": 72, "velocity": 110, "duration": 120}, {"note": 73, "velocity": 113, "duration": 120}, {"note": 72, "velocity": 113, "duration": 240}, {"note": 70, "velocity": 110, "duration": 119}, {"note": 70, "velocity": 110, "duration": 1320}, {"note": 72, "velocity": 116, "duration": 240}, {"note": 70, "velocity": 110, "duration": 240}, {"note": 68, "velocity": 116, "duration": 120}, {"note": 65, "velocity": 108, "duration": 1320}, {"note": 68, "velocity": 107, "duration": 137}, {"note": 70, "velocity": 108, "duration": 124}, {"note": 72, "velocity": 110, "duration": 239}, {"note": 72, "velocity": 113, "duration": 240}, {"note": 73, "velocity": 113, "duration": 240}, {"note": 72, "velocity": 104, "duration": 119}, {"note": 72, "velocity": 110, "duration": 360}, {"note": 70, "velocity": 104, "duration": 480}, {"note": 68, "velocity": 107, "duration": 120}, {"note": 70, "velocity": 100, "duration": 120}, {"note": 72, "velocity": 114, "duration": 240}, {"note": 75, "velocity": 114, "duration": 239}, {"note": 75, "velocity": 114, "duration": 240}, {"note": 72, "velocity": 100, "duration": 120}, {"note": 77, "velocity": 117, "duration": 239}, {"note": 77, "velocity": 117, "duration": 120}, {"note": 75, "velocity": 114, "duration": 360}, {"note": 72, "velocity": 98, "duration": 119}, {"note": 72, "velocity": 107, "duration": 120}, {"note": 73, "velocity": 104, "duration": 120}, {"note": 72, "velocity": 114, "duration": 240}, {"note": 70, "velocity": 113, "duration": 119}, {"note": 70, "velocity": 114, "duration": 1319}, {"note": 70, "velocity": 113, "duration": 120}, {"note": 72, "velocity": 91, "duration": 120}, {"note": 70, "velocity": 114, "duration": 240}, {"note": 68, "velocity": 114, "duration": 120}, {"note": 65, "velocity": 110, "duration": 840}, {"note": 67, "velocity": 119, "duration": 120}, {"note": 68, "velocity": 91, "duration": 159}, {"note": 67, "velocity": 116, "duration": 240}, {"note": 63, "velocity": 110, "duration": 120}, {"note": 65, "velocity": 113, "duration": 203}, {"note": 0, "velocity": 0, "duration": 7837}, {"note": 72, "velocity": 108, "duration": 119}, {"note": 72, "velocity": 102, "duration": 119}, {"note": 72, "velocity": 108, "duration": 359}, {"note": 72, "velocity": 117, "duration": 120}, {"note": 70, "velocity": 110, "duration": 240}, {"note": 68, "velocity": 104, "duration": 120}, {"note": 72, "velocity": 119, "duration": 840}, {"note": 70, "velocity": 104, "duration": 119}, {"note": 70, "velocity": 100, "duration": 119}, {"note": 70, "velocity": 107, "duration": 360}, {"note": 72, "velocity": 114, "duration": 120}, {"note": 70, "velocity": 108, "duration": 240}, {"note": 68, "velocity": 100, "duration": 120}, {"note": 65, "velocity": 100, "duration": 840}, {"note": 63, "velocity": 91, "duration": 119}, {"note": 63, "velocity": 94, "duration": 119}, {"note": 63, "velocity": 98, "duration": 240}, {"note": 65, "velocity": 96, "duration": 120}, {"note": 67, "velocity": 97, "duration": 359}, {"note": 67, "velocity": 100, "duration": 240}, {"note": 65, "velocity": 96, "duration": 240}, {"note": 63, "velocity": 88, "duration": 120}, {"note": 65, "velocity": 92, "duration": 2280}, {"note": 72, "velocity": 108, "duration": 119}, {"note": 72, "velocity": 100, "duration": 119}, {"note": 72, "velocity": 107, "duration": 359}, {"note": 72, "velocity": 110, "duration": 120}, {"note": 70, "velocity": 107, "duration": 240}, {"note": 68, "velocity": 100, "duration": 120}, {"note": 72, "velocity": 113, "duration": 840}, {"note": 70, "velocity": 107, "duration": 119}, {"note": 70, "velocity": 100, "duration": 119}, {"note": 70, "velocity": 104, "duration": 360}, {"note": 72, "velocity": 96, "duration": 120}, {"note": 70, "velocity": 102, "duration": 240}, {"note": 68, "velocity": 93, "duration": 124}, {"note": 65, "velocity": 92, "duration": 840}, {"note": 63, "velocity": 100, "duration": 119}, {"note": 63, "velocity": 102, "duration": 119}, {"note": 63, "velocity": 104, "duration": 240}, {"note": 65, "velocity": 100, "duration": 120}, {"note": 67, "velocity": 113, "duration": 359}, {"note": 67, "velocity": 116, "duration": 480}, {"note": 68, "velocity": 108, "duration": 120}, {"note": 67, "velocity": 90, "duration": 119}, {"note": 67, "velocity": 106, "duration": 359}, {"note": 67, "velocity": 102, "duration": 1320}, {"note": 68, "velocity": 110, "duration": 142}, {"note": 70, "velocity": 110, "duration": 120}, {"note": 72, "velocity": 114, "duration": 240}, {"note": 75, "velocity": 114, "duration": 239}, {"note": 75, "velocity": 116, "duration": 240}, {"note": 72, "velocity": 102, "duration": 120}, {"note": 75, "velocity": 116, "duration": 720}, {"note": 72, "velocity": 116, "duration": 119}, {"note": 72, "velocity": 110, "duration": 120}, {"note": 73, "velocity": 113, "duration": 120}, {"note": 72, "velocity": 113, "duration": 240}, {"note": 70, "velocity": 110, "duration": 119}, {"note": 70, "velocity": 110, "duration": 1320}, {"note": 72, "velocity": 116, "duration": 240}, {"note": 70, "velocity": 110, "duration": 240}, {"note": 68, "velocity": 116, "duration": 120}, {"note": 65, "velocity": 108, "duration": 1320}, {"note": 68, "velocity": 107, "duration": 137}, {"note": 70, "velocity": 108, "duration": 124}, {"note": 72, "velocity": 110, "duration": 239}, {"note": 72, "velocity": 113, "duration": 240}, {"note": 73, "velocity": 113, "duration": 240}, {"note": 72, "velocity": 104, "duration": 119}, {"note": 72, "velocity": 110, "duration": 360}, {"note": 70, "velocity": 104, "duration": 480}, {"note": 68, "velocity": 107, "duration": 120}, {"note": 70, "velocity": 100, "duration": 120}, {"note": 72, "velocity": 114, "duration": 240}, {"note": 75, "velocity": 114, "duration": 239}, {"note": 75, "velocity": 114, "duration": 240}, {"note": 72, "velocity": 100, "duration": 120}, {"note": 77, "velocity": 117, "duration": 239}, {"note": 77, "velocity": 117, "duration": 120}, {"note": 75, "velocity": 114, "duration": 360}, {"note": 72, "velocity": 98, "duration": 119}, {"note": 72, "velocity": 107, "duration": 120}, {"note": 73, "velocity": 104, "duration": 120}, {"note": 72, "velocity": 114, "duration": 240}, {"note": 70, "velocity": 113, "duration": 119}, {"note": 70, "velocity": 114, "duration": 1319}, {"note": 70, "velocity": 113, "duration": 120}, {"note": 72, "velocity": 91, "duration": 120}, {"note": 70, "velocity": 114, "duration": 240}, {"note": 68, "velocity": 114, "duration": 120}, {"note": 65, "velocity": 110, "duration": 840}, {"note": 67, "velocity": 119, "duration": 120}, {"note": 68, "velocity": 91, "duration": 159}, {"note": 67, "velocity": 116, "duration": 240}, {"note": 63, "velocity": 110, "duration": 120}, {"note": 65, "velocity": 113, "duration": 203}, {"note": 0, "velocity": 0, "duration": 30457}, {"note": 68, "velocity": 110, "duration": 142}, {"note": 70, "velocity": 110, "duration": 120}, {"note": 72, "velocity": 114, "duration": 240}, {"note": 75, "velocity": 114, "duration": 239}, {"note": 75, "velocity": 116, "duration": 240}, {"note": 72, "velocity": 102, "duration": 120}, {"note": 75, "velocity": 116, "duration": 720}, {"note": 72, "velocity": 116, "duration": 119}, {"note": 72, "velocity": 110, "duration": 120}, {"note": 73, "velocity": 113, "duration": 120}, {"note": 72, "velocity": 113, "duration": 240}, {"note": 70, "velocity": 110, "duration": 119}, {"note": 70, "velocity": 110, "duration": 1320}, {"note": 72, "velocity": 116, "duration": 240}, {"note": 70, "velocity": 110, "duration": 240}, {"note": 68, "velocity": 116, "duration": 120}, {"note": 65, "velocity": 108, "duration": 1320}, {"note": 68, "velocity": 107, "duration": 137}, {"note": 70, "velocity": 108, "duration": 124}, {"note": 72, "velocity": 110, "duration": 239}, {"note": 72, "velocity": 113, "duration": 240}, {"note": 73, "velocity": 113, "duration": 240}, {"note": 72, "velocity": 104, "duration": 119}, {"note": 72, "velocity": 110, "duration": 360}, {"note": 70, "velocity": 104, "duration": 480}, {"note": 68, "velocity": 107, "duration": 120}, {"note": 70, "velocity": 100, "duration": 120}, {"note": 72, "velocity": 114, "duration": 240}, {"note": 75, "velocity": 114, "duration": 239}, {"note": 75, "velocity": 114, "duration": 240}, {"note": 72, "velocity": 100, "duration": 120}, {"note": 77, "velocity": 117, "duration": 239}, {"note": 77, "velocity": 117, "duration": 120}, {"note": 75, "velocity": 114, "duration": 360}, {"note": 72, "velocity": 98, "duration": 119}, {"note": 72, "velocity": 107, "duration": 120}, {"note": 73, "velocity": 104, "duration": 120}, {"note": 72, "velocity": 114, "duration": 240}, {"note": 70, "velocity": 113, "duration": 119}, {"note": 70, "velocity": 114, "duration": 1319}, {"note": 70, "velocity": 113, "duration": 120}, {"note": 72, "velocity": 91, "duration": 120}, {"note": 70, "velocity": 114, "duration": 240}, {"note": 68, "velocity": 114, "duration": 120}, {"note": 65, "velocity": 110, "duration": 840}, {"note": 67, "velocity": 119, "duration": 120}, {"note": 68, "velocity": 91, "duration": 159}, {"note": 67, "velocity": 116, "duration": 240}, {"note": 63, "velocity": 110, "duration": 120}, {"note": 65, "velocity": 113, "duration": 1980}, {"note": 68, "velocity": 110, "duration": 142}, {"note": 70, "velocity": 110, "duration": 120}, {"note": 72, "velocity": 114, "duration": 240}, {"note": 75, "velocity": 114, "duration": 239}, {"note": 75, "velocity": 116, "duration": 240}, {"note": 72, "velocity": 102, "duration": 120}, {"note": 75, "velocity": 116, "duration": 720}, {"note": 72, "velocity": 116, "duration": 119}, {"note": 72, "velocity": 110, "duration": 120}, {"note": 73, "velocity": 113, "duration": 120}, {"note": 72, "velocity": 113, "duration": 240}, {"note": 70, "velocity": 110, "duration": 119}, {"note": 70, "velocity": 110, "duration": 1320}, {"note": 72, "velocity": 116, "duration": 240}, {"note": 70, "velocity": 110, "duration": 240}, {"note": 68, "velocity": 116, "duration": 120}, {"note": 65, "velocity": 108, "duration": 1320}, {"note": 68, "velocity": 107, "duration": 137}, {"note": 70, "velocity": 108, "duration": 124}, {"note": 72, "velocity": 110, "duration": 239}, {"note": 72, "velocity": 113, "duration": 240}, {"note": 73, "velocity": 113, "duration": 240}, {"note": 72, "velocity": 104, "duration": 119}, {"note": 72, "velocity": 110, "duration": 360}, {"note": 70, "velocity": 104, "duration": 480}, {"note": 68, "velocity": 107, "duration": 120}, {"note": 70, "velocity": 100, "duration": 120}, {"note": 72, "velocity": 114, "duration": 240}, {"note": 75, "velocity": 114, "duration": 239}, {"note": 75, "velocity": 114, "duration": 240}, {"note": 72, "velocity": 100, "duration": 120}, {"note": 77, "velocity": 117, "duration": 239}, {"note": 77, "velocity": 117, "duration": 120}, {"note": 75, "velocity": 114, "duration": 360}, {"note": 72, "velocity": 98, "duration": 119}, {"note": 72, "velocity": 107, "duration": 120}, {"note": 73, "velocity": 104, "duration": 120}, {"note": 72, "velocity": 114, "duration": 240}, {"note": 70, "velocity": 113, "duration": 119}, {"note": 70, "velocity": 114, "duration": 1319}, {"note": 70, "velocity": 113, "duration": 120}, {"note": 72, "velocity": 91, "duration": 120}, {"note": 70, "velocity": 114, "duration": 240}, {"note": 68, "velocity": 114, "duration": 120}, {"note": 65, "velocity": 110, "duration": 840}, {"note": 67, "velocity": 119, "duration": 120}, {"note": 68, "velocity": 91, "duration": 159}, {"note": 67, "velocity": 116, "duration": 240}, {"note": 63, "velocity": 110, "duration": 120}, {"note": 65, "velocity": 113, "duration": 540}]]