[[{"note": 77, "velocity": 104, "duration": 240}, {"note": 80, "velocity": 94, "duration": 239}, {"note": 80, "velocity": 102, "duration": 720}, {"note": 77, "velocity": 113, "duration": 240}, {"note": 78, "velocity": 104, "duration": 245}, {"note": 77, "velocity": 102, "duration": 247}, {"note": 75, "velocity": 91, "duration": 240}, {"note": 77, "velocity": 89, "duration": 240}, {"note": 73, "velocity": 89, "duration": 1199}, {"note": 73, "velocity": 88, "duration": 240}, {"note": 77, "velocity": 102, "duration": 240}, {"note": 80, "velocity": 104, "duration": 240}, {"note": 82, "velocity": 89, "duration": 479}, {"note": 82, "velocity": 108, "duration": 240}, {"note": 80, "velocity": 96, "duration": 239}, {"note": 80, "velocity": 96, "duration": 240}, {"note": 73, "velocity": 91, "duration": 239}, {"note": 73, "velocity": 98, "duration": 240}, {"note": 77, "velocity": 96, "duration": 239}, {"note": 77, "velocity": 100, "duration": 272}, {"note": 75, "velocity": 94, "duration": 1200}, {"note": 77, "velocity": 89, "duration": 240}, {"note": 78, "velocity": 93, "duration": 240}, {"note": 80, "velocity": 102, "duration": 719}, {"note": 80, "velocity": 113, "duration": 240}, {"note": 81, "velocity": 116, "duration": 240}, {"note": 77, "velocity": 113, "duration": 240}, {"note": 84, "velocity": 114, "duration": 480}, {"note": 75, "velocity": 114, "duration": 240}, {"note": 73, "velocity": 113, "duration": 1439}, {"note": 73, "velocity": 110, "duration": 126}, {"note": 72, "velocity": 93, "duration": 120}, {"note": 70, "velocity": 108, "duration": 240}, {"note": 82, "velocity": 113, "duration": 239}, {"note": 82, "velocity": 114, "duration": 240}, {"note": 80, "velocity": 113, "duration": 240}, {"note": 75, "velocity": 110, "duration": 240}, {"note": 77, "velocity": 100, "duration": 120}, {"note": 75, "velocity": 104, "duration": 360}, {"note": 70, "velocity": 104, "duration": 240}, {"note": 73, "velocity": 108, "duration": 1440}, {"note": 77, "velocity": 104, "duration": 240}, {"note": 80, "velocity": 94, "duration": 239}, {"note": 80, "velocity": 102, "duration": 720}, {"note": 77, "velocity": 113, "duration": 240}, {"note": 78, "velocity": 104, "duration": 245}, {"note": 77, "velocity": 102, "duration": 247}, {"note": 75, "velocity": 91, "duration": 240}, {"note": 77, "velocity": 89, "duration": 240}, {"note": 73, "velocity": 89, "duration": 1199}, {"note": 73, "velocity": 88, "duration": 240}, {"note": 77, "velocity": 102, "duration": 240}, {"note": 80, "velocity": 104, "duration": 240}, {"note": 82, "velocity": 89, "duration": 479}, {"note": 82, "velocity": 108, "duration": 240}, {"note": 80, "velocity": 96, "duration": 239}, {"note": 80, "velocity": 96, "duration": 240}, {"note": 73, "velocity": 91, "duration": 239}, {"note": 73, "velocity": 98, "duration": 240}, {"note": 77, "velocity": 96, "duration": 239}, {"note": 77, "velocity": 100, "duration": 272}, {"note": 75, "velocity": 94, "duration": 1200}, {"note": 77, "velocity": 89, "duration": 240}, {"note": 78, "velocity": 93, "duration": 240}, {"note": 80, "velocity": 102, "duration": 719}, {"note": 80, "velocity": 113, "duration": 240}, {"note": 81, "velocity": 116, "duration": 240}, {"note": 77, "velocity": 113, "duration": 240}, {"note": 75, "velocity": 114, "duration": 240}, {"note": 77, "velocity": 102, "duration": 240}, {"note": 75, "velocity": 102, "duration": 240}, {"note": 73, "velocity": 100, "duration": 119}, {"note": 73, "velocity": 104, "duration": 360}, {"note": 70, "velocity": 104, "duration": 240}, {"note": 75, "velocity": 110, "duration": 120}, {"note": 73, "velocity": 110, "duration": 720}, {"note": 70, "velocity": 114, "duration": 120}, {"note": 82, "velocity": 114, "duration": 239}, {"note": 82, "velocity": 113, "duration": 239}, {"note": 82, "velocity": 114, "duration": 240}, {"note": 80, "velocity": 113, "duration": 240}, {"note": 75, "velocity": 110, "duration": 240}, {"note": 77, "velocity": 100, "duration": 120}, {"note": 75, "velocity": 104, "duration": 360}, {"note": 70, "velocity": 104, "duration": 240}, {"note": 73, "velocity": 108, "duration": 1920}, {"note": 85, "velocity": 119, "duration": 240}, {"note": 82, "velocity": 114, "duration": 239}, {"note": 82, "velocity": 114, "duration": 480}, {"note": 84, "velocity": 117, "duration": 240}, {"note": 80, "velocity": 116, "duration": 239}, {"note": 80, "velocity": 119, "duration": 479}, {"note": 80, "velocity": 114, "duration": 240}, {"note": 77, "velocity": 116, "duration": 239}, {"note": 77, "velocity": 114, "duration": 479}, {"note": 77, "velocity": 114, "duration": 240}, {"note": 73, "velocity": 110, "duration": 239}, {"note": 73, "velocity": 113, "duration": 480}, {"note": 75, "velocity": 116, "duration": 240}, {"note": 77, "velocity": 110, "duration": 240}, {"note": 75, "velocity": 114, "duration": 240}, {"note": 77, "velocity": 110, "duration": 240}, {"note": 80, "velocity": 114, "duration": 240}, {"note": 82, "velocity": 102, "duration": 240}, {"note": 80, "velocity": 98, "duration": 240}, {"note": 75, "velocity": 114, "duration": 240}, {"note": 77, "velocity": 108, "duration": 1920}, {"note": 85, "velocity": 116, "duration": 240}, {"note": 82, "velocity": 114, "duration": 239}, {"note": 82, "velocity": 117, "duration": 480}, {"note": 84, "velocity": 117, "duration": 240}, {"note": 80, "velocity": 117, "duration": 239}, {"note": 80, "velocity": 117, "duration": 479}, {"note": 80, "velocity": 116, "duration": 240}, {"note": 77, "velocity": 113, "duration": 239}, {"note": 77, "velocity": 114, "duration": 479}, {"note": 77, "velocity": 117, "duration": 240}, {"note": 74, "velocity": 113, "duration": 359}, {"note": 74, "velocity": 116, "duration": 1320}, {"note": 75, "velocity": 114, "duration": 240}, {"note": 77, "velocity": 107, "duration": 240}, {"note": 75, "velocity": 108, "duration": 240}, {"note": 77, "velocity": 114, "duration": 240}, {"note": 80, "velocity": 116, "duration": 240}, {"note": 82, "velocity": 114, "duration": 240}, {"note": 80, "velocity": 114, "duration": 240}, {"note": 82, "velocity": 107, "duration": 239}, {"note": 82, "velocity": 113, "duration": 240}, {"note": 80, "velocity": 114, "duration": 1679}, {"note": 80, "velocity": 123, "duration": 480}, {"note": 77, "velocity": 119, "duration": 240}, {"note": 80, "velocity": 117, "duration": 240}, {"note": 82, "velocity": 119, "duration": 240}, {"note": 80, "velocity": 117, "duration": 240}, {"note": 77, "velocity": 117, "duration": 240}, {"note": 75, "velocity": 116, "duration": 240}, {"note": 73, "velocity": 117, "duration": 480}, {"note": 70, "velocity": 113, "duration": 240}, {"note": 73, "velocity": 114, "duration": 240}, {"note": 68, "velocity": 116, "duration": 960}, {"note": 70, "velocity": 116, "duration": 240}, {"note": 73, "velocity": 114, "duration": 240}, {"note": 75, "velocity": 114, "duration": 240}, {"note": 77, "velocity": 116, "duration": 240}, {"note": 80, "velocity": 119, "duration": 480}, {"note": 77, "velocity": 117, "duration": 480}, {"note": 75, "velocity": 117, "duration": 240}, {"note": 73, "velocity": 113, "duration": 240}, {"note": 70, "velocity": 117, "duration": 240}, {"note": 77, "velocity": 119, "duration": 240}, {"note": 75, "velocity": 119, "duration": 960}, {"note": 80, "velocity": 120, "duration": 480}, {"note": 77, "velocity": 117, "duration": 240}, {"note": 80, "velocity": 116, "duration": 240}, {"note": 82, "velocity": 114, "duration": 240}, {"note": 80, "velocity": 114, "duration": 240}, {"note": 77, "velocity": 116, "duration": 240}, {"note": 75, "velocity": 110, "duration": 240}, {"note": 73, "velocity": 114, "duration": 346}, {"note": 73, "velocity": 114, "duration": 106}, {"note": 0, "velocity": 0, "duration": 134}, {"note": 70, "velocity": 114, "duration": 240}, {"note": 73, "velocity": 114, "duration": 240}, {"note": 68, "velocity": 113, "duration": 719}, {"note": 68, "velocity": 116, "duration": 240}, {"note": 70, "velocity": 114, "duration": 240}, {"note": 73, "velocity": 110, "duration": 240}, {"note": 75, "velocity": 114, "duration": 240}, {"note": 77, "velocity": 114, "duration": 240}, {"note": 80, "velocity": 114, "duration": 480}, {"note": 77, "velocity": 114, "duration": 359}, {"note": 77, "velocity": 107, "duration": 144}, {"note": 75, "velocity": 107, "duration": 240}, {"note": 73, "velocity": 113, "duration": 244}, {"note": 70, "velocity": 114, "duration": 240}, {"note": 75, "velocity": 116, "duration": 240}, {"note": 73, "velocity": 116, "duration": 351}, {"note": 0, "velocity": 0, "duration": 16449}, {"note": 77, "velocity": 104, "duration": 240}, {"note": 80, "velocity": 94, "duration": 239}, {"note": 80, "velocity": 102, "duration": 720}, {"note": 77, "velocity": 113, "duration": 240}, {"note": 78, "velocity": 104, "duration": 245}, {"note": 77, "velocity": 102, "duration": 247}, {"note": 75, "velocity": 91, "duration": 240}, {"note": 77, "velocity": 89, "duration": 240}, {"note": 73, "velocity": 89, "duration": 1199}, {"note": 73, "velocity": 88, "duration": 240}, {"note": 77, "velocity": 102, "duration": 240}, {"note": 80, "velocity": 104, "duration": 240}, {"note": 82, "velocity": 89, "duration": 479}, {"note": 82, "velocity": 108, "duration": 240}, {"note": 80, "velocity": 96, "duration": 239}, {"note": 80, "velocity": 96, "duration": 240}, {"note": 73, "velocity": 91, "duration": 239}, {"note": 73, "velocity": 98, "duration": 240}, {"note": 77, "velocity": 96, "duration": 239}, {"note": 77, "velocity": 100, "duration": 272}, {"note": 75, "velocity": 94, "duration": 1200}, {"note": 77, "velocity": 89, "duration": 240}, {"note": 78, "velocity": 93, "duration": 240}, {"note": 80, "velocity": 102, "duration": 719}, {"note": 80, "velocity": 113, "duration": 240}, {"note": 81, "velocity": 116, "duration": 240}, {"note": 77, "velocity": 113, "duration": 240}, {"note": 75, "velocity": 114, "duration": 240}, {"note": 77, "velocity": 102, "duration": 240}, {"note": 75, "velocity": 102, "duration": 240}, {"note": 73, "velocity": 100, "duration": 119}, {"note": 73, "velocity": 104, "duration": 360}, {"note": 70, "velocity": 104, "duration": 240}, {"note": 75, "velocity": 110, "duration": 120}, {"note": 73, "velocity": 110, "duration": 720}, {"note": 70, "velocity": 114, "duration": 120}, {"note": 82, "velocity": 114, "duration": 239}, {"note": 82, "velocity": 113, "duration": 239}, {"note": 82, "velocity": 114, "duration": 240}, {"note": 80, "velocity": 113, "duration": 240}, {"note": 75, "velocity": 110, "duration": 240}, {"note": 77, "velocity": 100, "duration": 120}, {"note": 75, "velocity": 104, "duration": 360}, {"note": 70, "velocity": 104, "duration": 240}, {"note": 73, "velocity": 108, "duration": 1920}, {"note": 85, "velocity": 119, "duration": 240}, {"note": 82, "velocity": 114, "duration": 239}, {"note": 82, "velocity": 114, "duration": 480}, {"note": 84, "velocity": 117, "duration": 240}, {"note": 80, "velocity": 116, "duration": 239}, {"note": 80, "velocity": 119, "duration": 479}, {"note": 80, "velocity": 114, "duration": 240}, {"note": 77, "velocity": 116, "duration": 239}, {"note": 77, "velocity": 114, "duration": 479}, {"note": 77, "velocity": 114, "duration": 240}, {"note": 73, "velocity": 110, "duration": 239}, {"note": 73, "velocity": 113, "duration": 480}, {"note": 75, "velocity": 116, "duration": 240}, {"note": 77, "velocity": 110, "duration": 240}, {"note": 75, "velocity": 114, "duration": 240}, {"note": 77, "velocity": 110, "duration": 240}, {"note": 80, "velocity": 114, "duration": 240}, {"note": 82, "velocity": 102, "duration": 240}, {"note": 80, "velocity": 98, "duration": 240}, {"note": 75, "velocity": 114, "duration": 240}, {"note": 77, "velocity": 108, "duration": 1920}, {"note": 85, "velocity": 116, "duration": 240}, {"note": 82, "velocity": 114, "duration": 239}, {"note": 82, "velocity": 117, "duration": 480}, {"note": 84, "velocity": 117, "duration": 240}, {"note": 80, "velocity": 117, "duration": 239}, {"note": 80, "velocity": 117, "duration": 479}, {"note": 80, "velocity": 116, "duration": 240}, {"note": 77, "velocity": 113, "duration": 239}, {"note": 77, "velocity": 114, "duration": 479}, {"note": 77, "velocity": 117, "duration": 240}, {"note": 74, "velocity": 113, "duration": 239}, {"note": 74, "velocity": 116, "duration": 480}, {"note": 75, "velocity": 114, "duration": 240}, {"note": 77, "velocity": 107, "duration": 240}, {"note": 75, "velocity": 108, "duration": 240}, {"note": 77, "velocity": 114, "duration": 240}, {"note": 80, "velocity": 116, "duration": 240}, {"note": 82, "velocity": 114, "duration": 240}, {"note": 80, "velocity": 114, "duration": 240}, {"note": 82, "velocity": 107, "duration": 239}, {"note": 82, "velocity": 113, "duration": 240}, {"note": 80, "velocity": 114, "duration": 1680}, {"note": 80, "velocity": 123, "duration": 480}, {"note": 77, "velocity": 119, "duration": 240}, {"note": 80, "velocity": 117, "duration": 240}, {"note": 82, "velocity": 119, "duration": 240}, {"note": 80, "velocity": 117, "duration": 240}, {"note": 77, "velocity": 117, "duration": 240}, {"note": 75, "velocity": 116, "duration": 240}, {"note": 73, "velocity": 117, "duration": 480}, {"note": 70, "velocity": 113, "duration": 240}, {"note": 73, "velocity": 114, "duration": 240}, {"note": 68, "velocity": 116, "duration": 960}, {"note": 70, "velocity": 116, "duration": 240}, {"note": 73, "velocity": 114, "duration": 240}, {"note": 75, "velocity": 114, "duration": 240}, {"note": 77, "velocity": 116, "duration": 240}, {"note": 80, "velocity": 119, "duration": 480}, {"note": 77, "velocity": 117, "duration": 480}, {"note": 75, "velocity": 117, "duration": 240}, {"note": 73, "velocity": 113, "duration": 240}, {"note": 70, "velocity": 117, "duration": 240}, {"note": 77, "velocity": 119, "duration": 240}, {"note": 75, "velocity": 119, "duration": 960}, {"note": 80, "velocity": 120, "duration": 480}, {"note": 77, "velocity": 117, "duration": 240}, {"note": 80, "velocity": 116, "duration": 240}, {"note": 82, "velocity": 114, "duration": 240}, {"note": 80, "velocity": 114, "duration": 240}, {"note": 77, "velocity": 116, "duration": 240}, {"note": 75, "velocity": 110, "duration": 240}, {"note": 73, "velocity": 114, "duration": 346}, {"note": 73, "velocity": 114, "duration": 106}, {"note": 0, "velocity": 0, "duration": 134}, {"note": 70, "velocity": 114, "duration": 240}, {"note": 73, "velocity": 114, "duration": 240}, {"note": 68, "velocity": 113, "duration": 719}, {"note": 68, "velocity": 116, "duration": 240}, {"note": 70, "velocity": 114, "duration": 240}, {"note": 73, "velocity": 110, "duration": 240}, {"note": 75, "velocity": 114, "duration": 240}, {"note": 77, "velocity": 114, "duration": 240}, {"note": 80, "velocity": 114, "duration": 480}, {"note": 77, "velocity": 114, "duration": 359}, {"note": 77, "velocity": 107, "duration": 144}, {"note": 75, "velocity": 107, "duration": 240}, {"note": 73, "velocity": 113, "duration": 244}, {"note": 70, "velocity": 114, "duration": 240}, {"note": 75, "velocity": 116, "duration": 240}, {"note": 73, "velocity": 116, "duration": 960}, {"note": 80, "velocity": 123, "duration": 480}, {"note": 77, "velocity": 119, "duration": 240}, {"note": 80, "velocity": 117, "duration": 240}, {"note": 82, "velocity": 119, "duration": 240}, {"note": 80, "velocity": 117, "duration": 240}, {"note": 77, "velocity": 117, "duration": 240}, {"note": 75, "velocity": 116, "duration": 240}, {"note": 73, "velocity": 117, "duration": 480}, {"note": 70, "velocity": 113, "duration": 240}, {"note": 73, "velocity": 114, "duration": 240}, {"note": 68, "velocity": 116, "duration": 960}, {"note": 70, "velocity": 116, "duration": 240}, {"note": 73, "velocity": 114, "duration": 240}, {"note": 75, "velocity": 114, "duration": 240}, {"note": 77, "velocity": 116, "duration": 240}, {"note": 80, "velocity": 119, "duration": 480}, {"note": 77, "velocity": 117, "duration": 480}, {"note": 75, "velocity": 117, "duration": 240}, {"note": 73, "velocity": 113, "duration": 240}, {"note": 70, "velocity": 117, "duration": 240}, {"note": 77, "velocity": 119, "duration": 240}, {"note": 75, "velocity": 119, "duration": 960}, {"note": 80, "velocity": 120, "duration": 480}, {"note": 77, "velocity": 117, "duration": 240}, {"note": 80, "velocity": 116, "duration": 240}, {"note": 82, "velocity": 114, "duration": 240}, {"note": 80, "velocity": 114, "duration": 240}, {"note": 77, "velocity": 116, "duration": 240}, {"note": 75, "velocity": 110, "duration": 240}, {"note": 73, "velocity": 114, "duration": 346}, {"note": 73, "velocity": 114, "duration": 106}, {"note": 0, "velocity": 0, "duration": 134}, {"note": 70, "velocity": 114, "duration": 240}, {"note": 73, "velocity": 114, "duration": 240}, {"note": 68, "velocity": 113, "duration": 719}, {"note": 68, "velocity": 116, "duration": 240}, {"note": 70, "velocity": 114, "duration": 240}, {"note": 73, "velocity": 110, "duration": 240}, {"note": 75, "velocity": 114, "duration": 240}, {"note": 77, "velocity": 114, "duration": 240}, {"note": 80, "velocity": 114, "duration": 480}, {"note": 77, "velocity": 114, "duration": 359}, {"note": 77, "velocity": 107, "duration": 144}, {"note": 75, "velocity": 107, "duration": 240}, {"note": 73, "velocity": 113, "duration": 244}, {"note": 70, "velocity": 114, "duration": 240}, {"note": 75, "velocity": 116, "duration": 240}, {"note": 73, "velocity": 116, "duration": 960}, {"note": 0, "velocity": 0, "duration": 15360}, {"note": 80, "velocity": 123, "duration": 480}, {"note": 77, "velocity": 119, "duration": 240}, {"note": 80, "velocity": 117, "duration": 240}, {"note": 82, "velocity": 119, "duration": 240}, {"note": 80, "velocity": 117, "duration": 240}, {"note": 77, "velocity": 117, "duration": 240}, {"note": 75, "velocity": 116, "duration": 240}, {"note": 73, "velocity": 117, "duration": 480}, {"note": 70, "velocity": 113, "duration": 240}, {"note": 73, "velocity": 114, "duration": 240}, {"note": 77, "velocity": 116, "duration": 239}, {"note": 77, "velocity": 116, "duration": 720}, {"note": 70, "velocity": 116, "duration": 240}, {"note": 73, "velocity": 114, "duration": 240}, {"note": 75, "velocity": 114, "duration": 240}, {"note": 77, "velocity": 116, "duration": 240}, {"note": 80, "velocity": 119, "duration": 480}, {"note": 77, "velocity": 117, "duration": 480}, {"note": 82, "velocity": 117, "duration": 120}, {"note": 80, "velocity": 113, "duration": 360}, {"note": 73, "velocity": 117, "duration": 240}, {"note": 77, "velocity": 119, "duration": 240}, {"note": 75, "velocity": 119, "duration": 960}, {"note": 80, "velocity": 120, "duration": 480}, {"note": 77, "velocity": 117, "duration": 240}, {"note": 80, "velocity": 116, "duration": 240}, {"note": 82, "velocity": 114, "duration": 240}, {"note": 80, "velocity": 114, "duration": 240}, {"note": 77, "velocity": 116, "duration": 240}, {"note": 75, "velocity": 110, "duration": 240}, {"note": 73, "velocity": 114, "duration": 346}, {"note": 73, "velocity": 114, "duration": 106}, {"note": 0, "velocity": 0, "duration": 134}, {"note": 70, "velocity": 114, "duration": 240}, {"note": 73, "velocity": 114, "duration": 240}, {"note": 77, "velocity": 113, "duration": 239}, {"note": 77, "velocity": 113, "duration": 480}, {"note": 68, "velocity": 116, "duration": 240}, {"note": 70, "velocity": 114, "duration": 240}, {"note": 73, "velocity": 110, "duration": 240}, {"note": 75, "velocity": 114, "duration": 240}, {"note": 77, "velocity": 114, "duration": 240}, {"note": 80, "velocity": 114, "duration": 480}, {"note": 77, "velocity": 114, "duration": 359}, {"note": 77, "velocity": 107, "duration": 144}, {"note": 75, "velocity": 107, "duration": 240}, {"note": 73, "velocity": 113, "duration": 244}, {"note": 70, "velocity": 114, "duration": 240}, {"note": 75, "velocity": 116, "duration": 240}, {"note": 73, "velocity": 116, "duration": 960}]]