[[{"note": 73, "velocity": 113, "duration": 35}, {"note": 0, "velocity": 0, "duration": 85}, {"note": 73, "velocity": 107, "duration": 37}, {"note": 0, "velocity": 0, "duration": 83}, {"note": 73, "velocity": 107, "duration": 104}, {"note": 0, "velocity": 0, "duration": 136}, {"note": 75, "velocity": 102, "duration": 102}, {"note": 72, "velocity": 107, "duration": 132}, {"note": 0, "velocity": 0, "duration": 588}, {"note": 73, "velocity": 108, "duration": 130}, {"note": 72, "velocity": 98, "duration": 125}, {"note": 68, "velocity": 98, "duration": 135}, {"note": 0, "velocity": 0, "duration": 105}, {"note": 68, "velocity": 88, "duration": 137}, {"note": 0, "velocity": 0, "duration": 103}, {"note": 68, "velocity": 89, "duration": 142}, {"note": 0, "velocity": 0, "duration": 1538}, {"note": 73, "velocity": 90, "duration": 41}, {"note": 0, "velocity": 0, "duration": 79}, {"note": 73, "velocity": 104, "duration": 38}, {"note": 0, "velocity": 0, "duration": 82}, {"note": 73, "velocity": 100, "duration": 39}, {"note": 0, "velocity": 0, "duration": 81}, {"note": 73, "velocity": 107, "duration": 94}, {"note": 73, "velocity": 90, "duration": 76}, {"note": 77, "velocity": 107, "duration": 135}, {"note": 0, "velocity": 0, "duration": 105}, {"note": 72, "velocity": 108, "duration": 134}, {"note": 72, "velocity": 91, "duration": 14}, {"note": 0, "velocity": 0, "duration": 106}, {"note": 72, "velocity": 91, "duration": 40}, {"note": 0, "velocity": 0, "duration": 80}, {"note": 72, "velocity": 92, "duration": 40}, {"note": 0, "velocity": 0, "duration": 80}, {"note": 73, "velocity": 104, "duration": 128}, {"note": 72, "velocity": 93, "duration": 119}, {"note": 0, "velocity": 0, "duration": 121}, {"note": 68, "velocity": 100, "duration": 140}, {"note": 68, "velocity": 100, "duration": 20}, {"note": 0, "velocity": 0, "duration": 220}, {"note": 70, "velocity": 102, "duration": 112}, {"note": 0, "velocity": 0, "duration": 1088}, {"note": 70, "velocity": 102, "duration": 150}, {"note": 73, "velocity": 91, "duration": 118}, {"note": 77, "velocity": 98, "duration": 105}, {"note": 75, "velocity": 107, "duration": 159}, {"note": 0, "velocity": 0, "duration": 681}, {"note": 72, "velocity": 104, "duration": 96}, {"note": 73, "velocity": 102, "duration": 86}, {"note": 75, "velocity": 110, "duration": 139}, {"note": 0, "velocity": 0, "duration": 581}, {"note": 73, "velocity": 108, "duration": 143}, {"note": 0, "velocity": 0, "duration": 97}, {"note": 70, "velocity": 108, "duration": 254}, {"note": 0, "velocity": 0, "duration": 1906}, {"note": 73, "velocity": 110, "duration": 50}, {"note": 0, "velocity": 0, "duration": 70}, {"note": 73, "velocity": 107, "duration": 46}, {"note": 0, "velocity": 0, "duration": 74}, {"note": 73, "velocity": 104, "duration": 93}, {"note": 75, "velocity": 110, "duration": 126}, {"note": 77, "velocity": 93, "duration": 118}, {"note": 0, "velocity": 0, "duration": 122}, {"note": 72, "velocity": 108, "duration": 148}, {"note": 0, "velocity": 0, "duration": 452}, {"note": 73, "velocity": 104, "duration": 219}, {"note": 72, "velocity": 98, "duration": 180}, {"note": 68, "velocity": 92, "duration": 140}, {"note": 0, "velocity": 0, "duration": 100}, {"note": 70, "velocity": 104, "duration": 172}, {"note": 0, "velocity": 0, "duration": 1508}, {"note": 73, "velocity": 93, "duration": 45}, {"note": 0, "velocity": 0, "duration": 75}, {"note": 73, "velocity": 91, "duration": 44}, {"note": 0, "velocity": 0, "duration": 76}, {"note": 73, "velocity": 91, "duration": 51}, {"note": 0, "velocity": 0, "duration": 69}, {"note": 73, "velocity": 93, "duration": 44}, {"note": 0, "velocity": 0, "duration": 76}, {"note": 73, "velocity": 91, "duration": 70}, {"note": 77, "velocity": 104, "duration": 156}, {"note": 0, "velocity": 0, "duration": 84}, {"note": 72, "velocity": 108, "duration": 60}, {"note": 72, "velocity": 100, "duration": 52}, {"note": 0, "velocity": 0, "duration": 68}, {"note": 72, "velocity": 91, "duration": 48}, {"note": 0, "velocity": 0, "duration": 72}, {"note": 72, "velocity": 96, "duration": 72}, {"note": 73, "velocity": 93, "duration": 112}, {"note": 72, "velocity": 96, "duration": 117}, {"note": 0, "velocity": 0, "duration": 123}, {"note": 68, "velocity": 93, "duration": 50}, {"note": 0, "velocity": 0, "duration": 70}, {"note": 68, "velocity": 102, "duration": 99}, {"note": 70, "velocity": 102, "duration": 140}, {"note": 0, "velocity": 0, "duration": 1180}, {"note": 70, "velocity": 108, "duration": 140}, {"note": 73, "velocity": 96, "duration": 100}, {"note": 77, "velocity": 100, "duration": 84}, {"note": 75, "velocity": 102, "duration": 158}, {"note": 0, "velocity": 0, "duration": 682}, {"note": 72, "velocity": 110, "duration": 122}, {"note": 73, "velocity": 100, "duration": 74}, {"note": 75, "velocity": 113, "duration": 159}, {"note": 0, "velocity": 0, "duration": 561}, {"note": 72, "velocity": 113, "duration": 162}, {"note": 0, "velocity": 0, "duration": 78}, {"note": 70, "velocity": 107, "duration": 180}, {"note": 0, "velocity": 0, "duration": 900}, {"note": 77, "velocity": 113, "duration": 46}, {"note": 0, "velocity": 0, "duration": 74}, {"note": 77, "velocity": 110, "duration": 42}, {"note": 0, "velocity": 0, "duration": 78}, {"note": 77, "velocity": 107, "duration": 44}, {"note": 0, "velocity": 0, "duration": 76}, {"note": 77, "velocity": 108, "duration": 68}, {"note": 80, "velocity": 113, "duration": 55}, {"note": 0, "velocity": 0, "duration": 65}, {"note": 80, "velocity": 116, "duration": 89}, {"note": 78, "velocity": 116, "duration": 62}, {"note": 82, "velocity": 117, "duration": 150}, {"note": 0, "velocity": 0, "duration": 90}, {"note": 82, "velocity": 117, "duration": 90}, {"note": 80, "velocity": 113, "duration": 56}, {"note": 0, "velocity": 0, "duration": 64}, {"note": 82, "velocity": 116, "duration": 95}, {"note": 0, "velocity": 0, "duration": 145}, {"note": 82, "velocity": 110, "duration": 102}, {"note": 80, "velocity": 104, "duration": 77}, {"note": 84, "velocity": 110, "duration": 114}, {"note": 0, "velocity": 0, "duration": 246}, {"note": 84, "velocity": 116, "duration": 40}, {"note": 0, "velocity": 0, "duration": 80}, {"note": 84, "velocity": 113, "duration": 88}, {"note": 82, "velocity": 113, "duration": 120}, {"note": 80, "velocity": 110, "duration": 116}, {"note": 75, "velocity": 107, "duration": 83}, {"note": 77, "velocity": 116, "duration": 115}, {"note": 0, "velocity": 0, "duration": 365}, {"note": 77, "velocity": 113, "duration": 55}, {"note": 0, "velocity": 0, "duration": 65}, {"note": 77, "velocity": 107, "duration": 85}, {"note": 75, "velocity": 110, "duration": 66}, {"note": 77, "velocity": 114, "duration": 123}, {"note": 0, "velocity": 0, "duration": 477}, {"note": 77, "velocity": 114, "duration": 97}, {"note": 80, "velocity": 89, "duration": 107}, {"note": 78, "velocity": 100, "duration": 105}, {"note": 77, "velocity": 102, "duration": 123}, {"note": 75, "velocity": 113, "duration": 123}, {"note": 0, "velocity": 0, "duration": 117}, {"note": 73, "velocity": 104, "duration": 110}, {"note": 75, "velocity": 113, "duration": 123}, {"note": 0, "velocity": 0, "duration": 237}, {"note": 75, "velocity": 113, "duration": 110}, {"note": 73, "velocity": 102, "duration": 74}, {"note": 75, "velocity": 116, "duration": 112}, {"note": 0, "velocity": 0, "duration": 128}, {"note": 73, "velocity": 110, "duration": 98}, {"note": 75, "velocity": 117, "duration": 105}, {"note": 0, "velocity": 0, "duration": 255}, {"note": 73, "velocity": 102, "duration": 103}, {"note": 75, "velocity": 107, "duration": 131}, {"note": 77, "velocity": 104, "duration": 76}, {"note": 77, "velocity": 100, "duration": 61}, {"note": 77, "velocity": 102, "duration": 50}, {"note": 0, "velocity": 0, "duration": 70}, {"note": 77, "velocity": 98, "duration": 54}, {"note": 0, "velocity": 0, "duration": 66}, {"note": 77, "velocity": 113, "duration": 102}, {"note": 77, "velocity": 92, "duration": 98}, {"note": 75, "velocity": 107, "duration": 91}, {"note": 77, "velocity": 114, "duration": 108}, {"note": 0, "velocity": 0, "duration": 132}, {"note": 77, "velocity": 113, "duration": 46}, {"note": 0, "velocity": 0, "duration": 74}, {"note": 77, "velocity": 110, "duration": 42}, {"note": 0, "velocity": 0, "duration": 78}, {"note": 77, "velocity": 107, "duration": 44}, {"note": 0, "velocity": 0, "duration": 76}, {"note": 77, "velocity": 108, "duration": 68}, {"note": 80, "velocity": 113, "duration": 55}, {"note": 0, "velocity": 0, "duration": 65}, {"note": 80, "velocity": 116, "duration": 89}, {"note": 78, "velocity": 116, "duration": 62}, {"note": 82, "velocity": 117, "duration": 150}, {"note": 0, "velocity": 0, "duration": 90}, {"note": 82, "velocity": 117, "duration": 90}, {"note": 80, "velocity": 113, "duration": 56}, {"note": 0, "velocity": 0, "duration": 64}, {"note": 82, "velocity": 116, "duration": 95}, {"note": 0, "velocity": 0, "duration": 145}, {"note": 82, "velocity": 110, "duration": 102}, {"note": 80, "velocity": 104, "duration": 77}, {"note": 84, "velocity": 110, "duration": 114}, {"note": 0, "velocity": 0, "duration": 246}, {"note": 84, "velocity": 116, "duration": 40}, {"note": 0, "velocity": 0, "duration": 80}, {"note": 84, "velocity": 113, "duration": 88}, {"note": 82, "velocity": 113, "duration": 120}, {"note": 80, "velocity": 110, "duration": 116}, {"note": 75, "velocity": 107, "duration": 83}, {"note": 77, "velocity": 116, "duration": 115}, {"note": 0, "velocity": 0, "duration": 365}, {"note": 77, "velocity": 113, "duration": 55}, {"note": 0, "velocity": 0, "duration": 65}, {"note": 77, "velocity": 107, "duration": 85}, {"note": 75, "velocity": 110, "duration": 66}, {"note": 77, "velocity": 114, "duration": 123}, {"note": 0, "velocity": 0, "duration": 477}, {"note": 77, "velocity": 114, "duration": 97}, {"note": 80, "velocity": 89, "duration": 107}, {"note": 78, "velocity": 100, "duration": 105}, {"note": 77, "velocity": 102, "duration": 123}, {"note": 75, "velocity": 113, "duration": 123}, {"note": 0, "velocity": 0, "duration": 117}, {"note": 73, "velocity": 104, "duration": 110}, {"note": 75, "velocity": 113, "duration": 123}, {"note": 0, "velocity": 0, "duration": 237}, {"note": 75, "velocity": 113, "duration": 110}, {"note": 73, "velocity": 102, "duration": 74}, {"note": 75, "velocity": 116, "duration": 112}, {"note": 0, "velocity": 0, "duration": 128}, {"note": 73, "velocity": 110, "duration": 98}, {"note": 75, "velocity": 117, "duration": 105}, {"note": 0, "velocity": 0, "duration": 255}, {"note": 73, "velocity": 102, "duration": 103}, {"note": 75, "velocity": 107, "duration": 131}, {"note": 77, "velocity": 104, "duration": 76}, {"note": 77, "velocity": 100, "duration": 61}, {"note": 77, "velocity": 102, "duration": 50}, {"note": 0, "velocity": 0, "duration": 70}, {"note": 77, "velocity": 98, "duration": 54}, {"note": 0, "velocity": 0, "duration": 66}, {"note": 77, "velocity": 113, "duration": 102}, {"note": 77, "velocity": 92, "duration": 98}, {"note": 75, "velocity": 107, "duration": 91}, {"note": 77, "velocity": 114, "duration": 108}, {"note": 0, "velocity": 0, "duration": 8892}, {"note": 73, "velocity": 110, "duration": 50}, {"note": 0, "velocity": 0, "duration": 70}, {"note": 73, "velocity": 107, "duration": 46}, {"note": 0, "velocity": 0, "duration": 74}, {"note": 73, "velocity": 104, "duration": 93}, {"note": 75, "velocity": 110, "duration": 126}, {"note": 77, "velocity": 93, "duration": 118}, {"note": 0, "velocity": 0, "duration": 122}, {"note": 72, "velocity": 108, "duration": 148}, {"note": 0, "velocity": 0, "duration": 452}, {"note": 73, "velocity": 104, "duration": 219}, {"note": 72, "velocity": 98, "duration": 180}, {"note": 68, "velocity": 92, "duration": 140}, {"note": 0, "velocity": 0, "duration": 100}, {"note": 70, "velocity": 104, "duration": 172}, {"note": 0, "velocity": 0, "duration": 1508}, {"note": 73, "velocity": 93, "duration": 45}, {"note": 0, "velocity": 0, "duration": 75}, {"note": 73, "velocity": 91, "duration": 44}, {"note": 0, "velocity": 0, "duration": 76}, {"note": 73, "velocity": 91, "duration": 51}, {"note": 0, "velocity": 0, "duration": 69}, {"note": 73, "velocity": 93, "duration": 44}, {"note": 0, "velocity": 0, "duration": 76}, {"note": 73, "velocity": 91, "duration": 70}, {"note": 77, "velocity": 104, "duration": 156}, {"note": 0, "velocity": 0, "duration": 84}, {"note": 72, "velocity": 108, "duration": 60}, {"note": 72, "velocity": 100, "duration": 52}, {"note": 0, "velocity": 0, "duration": 68}, {"note": 72, "velocity": 91, "duration": 48}, {"note": 0, "velocity": 0, "duration": 72}, {"note": 72, "velocity": 96, "duration": 72}, {"note": 73, "velocity": 93, "duration": 112}, {"note": 72, "velocity": 96, "duration": 117}, {"note": 0, "velocity": 0, "duration": 123}, {"note": 68, "velocity": 93, "duration": 50}, {"note": 0, "velocity": 0, "duration": 70}, {"note": 68, "velocity": 102, "duration": 99}, {"note": 70, "velocity": 102, "duration": 140}, {"note": 0, "velocity": 0, "duration": 1180}, {"note": 70, "velocity": 108, "duration": 140}, {"note": 73, "velocity": 96, "duration": 100}, {"note": 77, "velocity": 100, "duration": 84}, {"note": 75, "velocity": 102, "duration": 158}, {"note": 0, "velocity": 0, "duration": 682}, {"note": 72, "velocity": 110, "duration": 122}, {"note": 73, "velocity": 100, "duration": 74}, {"note": 75, "velocity": 113, "duration": 159}, {"note": 0, "velocity": 0, "duration": 561}, {"note": 72, "velocity": 113, "duration": 162}, {"note": 0, "velocity": 0, "duration": 78}, {"note": 70, "velocity": 107, "duration": 180}, {"note": 0, "velocity": 0, "duration": 900}, {"note": 77, "velocity": 113, "duration": 46}, {"note": 0, "velocity": 0, "duration": 74}, {"note": 77, "velocity": 110, "duration": 42}, {"note": 0, "velocity": 0, "duration": 78}, {"note": 77, "velocity": 107, "duration": 44}, {"note": 0, "velocity": 0, "duration": 76}, {"note": 77, "velocity": 108, "duration": 68}, {"note": 80, "velocity": 113, "duration": 55}, {"note": 0, "velocity": 0, "duration": 65}, {"note": 80, "velocity": 116, "duration": 89}, {"note": 78, "velocity": 116, "duration": 62}, {"note": 82, "velocity": 117, "duration": 150}, {"note": 0, "velocity": 0, "duration": 90}, {"note": 82, "velocity": 117, "duration": 90}, {"note": 80, "velocity": 113, "duration": 56}, {"note": 0, "velocity": 0, "duration": 64}, {"note": 82, "velocity": 116, "duration": 95}, {"note": 0, "velocity": 0, "duration": 145}, {"note": 82, "velocity": 110, "duration": 102}, {"note": 80, "velocity": 104, "duration": 77}, {"note": 84, "velocity": 110, "duration": 114}, {"note": 0, "velocity": 0, "duration": 246}, {"note": 84, "velocity": 116, "duration": 40}, {"note": 0, "velocity": 0, "duration": 80}, {"note": 84, "velocity": 113, "duration": 88}, {"note": 82, "velocity": 113, "duration": 120}, {"note": 80, "velocity": 110, "duration": 116}, {"note": 75, "velocity": 107, "duration": 83}, {"note": 77, "velocity": 116, "duration": 115}, {"note": 0, "velocity": 0, "duration": 365}, {"note": 77, "velocity": 113, "duration": 55}, {"note": 0, "velocity": 0, "duration": 65}, {"note": 77, "velocity": 107, "duration": 85}, {"note": 75, "velocity": 110, "duration": 66}, {"note": 77, "velocity": 114, "duration": 123}, {"note": 0, "velocity": 0, "duration": 477}, {"note": 77, "velocity": 114, "duration": 97}, {"note": 80, "velocity": 89, "duration": 107}, {"note": 78, "velocity": 100, "duration": 105}, {"note": 77, "velocity": 102, "duration": 123}, {"note": 75, "velocity": 113, "duration": 123}, {"note": 0, "velocity": 0, "duration": 117}, {"note": 73, "velocity": 104, "duration": 110}, {"note": 75, "velocity": 113, "duration": 123}, {"note": 0, "velocity": 0, "duration": 237}, {"note": 75, "velocity": 113, "duration": 110}, {"note": 73, "velocity": 102, "duration": 74}, {"note": 75, "velocity": 116, "duration": 112}, {"note": 0, "velocity": 0, "duration": 128}, {"note": 73, "velocity": 110, "duration": 98}, {"note": 75, "velocity": 117, "duration": 105}, {"note": 0, "velocity": 0, "duration": 255}, {"note": 73, "velocity": 102, "duration": 103}, {"note": 75, "velocity": 107, "duration": 131}, {"note": 77, "velocity": 104, "duration": 76}, {"note": 77, "velocity": 100, "duration": 61}, {"note": 77, "velocity": 102, "duration": 50}, {"note": 0, "velocity": 0, "duration": 70}, {"note": 77, "velocity": 98, "duration": 54}, {"note": 0, "velocity": 0, "duration": 66}, {"note": 77, "velocity": 113, "duration": 102}, {"note": 77, "velocity": 92, "duration": 98}, {"note": 75, "velocity": 107, "duration": 91}, {"note": 77, "velocity": 114, "duration": 108}, {"note": 0, "velocity": 0, "duration": 132}, {"note": 77, "velocity": 113, "duration": 46}, {"note": 0, "velocity": 0, "duration": 74}, {"note": 76, "velocity": 110, "duration": 42}, {"note": 0, "velocity": 0, "duration": 78}, {"note": 77, "velocity": 107, "duration": 44}, {"note": 0, "velocity": 0, "duration": 76}, {"note": 77, "velocity": 108, "duration": 68}, {"note": 80, "velocity": 113, "duration": 55}, {"note": 0, "velocity": 0, "duration": 65}, {"note": 80, "velocity": 116, "duration": 89}, {"note": 78, "velocity": 116, "duration": 62}, {"note": 82, "velocity": 117, "duration": 150}, {"note": 0, "velocity": 0, "duration": 90}, {"note": 82, "velocity": 117, "duration": 90}, {"note": 80, "velocity": 113, "duration": 56}, {"note": 0, "velocity": 0, "duration": 64}, {"note": 82, "velocity": 116, "duration": 95}, {"note": 0, "velocity": 0, "duration": 145}, {"note": 82, "velocity": 110, "duration": 102}, {"note": 80, "velocity": 104, "duration": 77}, {"note": 84, "velocity": 110, "duration": 114}, {"note": 0, "velocity": 0, "duration": 246}, {"note": 84, "velocity": 116, "duration": 40}, {"note": 0, "velocity": 0, "duration": 80}, {"note": 84, "velocity": 113, "duration": 88}, {"note": 82, "velocity": 113, "duration": 120}, {"note": 80, "velocity": 110, "duration": 116}, {"note": 75, "velocity": 107, "duration": 83}, {"note": 77, "velocity": 116, "duration": 115}, {"note": 0, "velocity": 0, "duration": 365}, {"note": 77, "velocity": 113, "duration": 55}, {"note": 0, "velocity": 0, "duration": 65}, {"note": 77, "velocity": 107, "duration": 85}, {"note": 75, "velocity": 110, "duration": 66}, {"note": 77, "velocity": 114, "duration": 123}, {"note": 0, "velocity": 0, "duration": 477}, {"note": 77, "velocity": 114, "duration": 97}, {"note": 80, "velocity": 89, "duration": 107}, {"note": 78, "velocity": 100, "duration": 105}, {"note": 77, "velocity": 102, "duration": 123}, {"note": 75, "velocity": 113, "duration": 123}, {"note": 0, "velocity": 0, "duration": 117}, {"note": 73, "velocity": 104, "duration": 110}, {"note": 75, "velocity": 113, "duration": 123}, {"note": 0, "velocity": 0, "duration": 237}, {"note": 75, "velocity": 113, "duration": 110}, {"note": 73, "velocity": 102, "duration": 74}, {"note": 75, "velocity": 116, "duration": 112}, {"note": 0, "velocity": 0, "duration": 128}, {"note": 73, "velocity": 110, "duration": 98}, {"note": 75, "velocity": 117, "duration": 105}, {"note": 0, "velocity": 0, "duration": 255}, {"note": 73, "velocity": 102, "duration": 103}, {"note": 75, "velocity": 107, "duration": 131}, {"note": 77, "velocity": 104, "duration": 328}, {"note": 77, "velocity": 98, "duration": 54}, {"note": 0, "velocity": 0, "duration": 66}, {"note": 77, "velocity": 113, "duration": 102}, {"note": 77, "velocity": 92, "duration": 98}, {"note": 75, "velocity": 107, "duration": 91}, {"note": 77, "velocity": 114, "duration": 1048}, {"note": 0, "velocity": 0, "duration": 992}, {"note": 82, "velocity": 120, "duration": 782}, {"note": 0, "velocity": 0, "duration": 178}, {"note": 80, "velocity": 119, "duration": 473}, {"note": 0, "velocity": 0, "duration": 967}, {"note": 77, "velocity": 117, "duration": 141}, {"note": 0, "velocity": 0, "duration": 99}, {"note": 78, "velocity": 116, "duration": 100}, {"note": 77, "velocity": 113, "duration": 156}, {"note": 0, "velocity": 0, "duration": 84}, {"note": 75, "velocity": 114, "duration": 179}, {"note": 0, "velocity": 0, "duration": 781}, {"note": 73, "velocity": 102, "duration": 85}, {"note": 72, "velocity": 93, "duration": 128}, {"note": 0, "velocity": 0, "duration": 472}, {"note": 70, "velocity": 88, "duration": 84}, {"note": 72, "velocity": 89, "duration": 78}, {"note": 73, "velocity": 89, "duration": 344}]]