[[{"note": 63, "velocity": 92, "duration": 230}, {"note": 63, "velocity": 92, "duration": 230}, {"note": 65, "velocity": 100, "duration": 200}, {"note": 68, "velocity": 107, "duration": 147}, {"note": 0, "velocity": 0, "duration": 93}, {"note": 72, "velocity": 110, "duration": 274}, {"note": 0, "velocity": 0, "duration": 1406}, {"note": 70, "velocity": 93, "duration": 70}, {"note": 68, "velocity": 88, "duration": 75}, {"note": 72, "velocity": 108, "duration": 171}, {"note": 0, "velocity": 0, "duration": 309}, {"note": 70, "velocity": 108, "duration": 207}, {"note": 0, "velocity": 0, "duration": 273}, {"note": 63, "velocity": 107, "duration": 128}, {"note": 0, "velocity": 0, "duration": 112}, {"note": 63, "velocity": 113, "duration": 181}, {"note": 65, "velocity": 113, "duration": 186}, {"note": 68, "velocity": 114, "duration": 135}, {"note": 0, "velocity": 0, "duration": 105}, {"note": 72, "velocity": 120, "duration": 262}, {"note": 0, "velocity": 0, "duration": 1418}, {"note": 70, "velocity": 104, "duration": 87}, {"note": 68, "velocity": 98, "duration": 58}, {"note": 0, "velocity": 0, "duration": 62}, {"note": 72, "velocity": 113, "duration": 133}, {"note": 0, "velocity": 0, "duration": 347}, {"note": 70, "velocity": 116, "duration": 248}, {"note": 0, "velocity": 0, "duration": 232}, {"note": 75, "velocity": 100, "duration": 117}, {"note": 0, "velocity": 0, "duration": 123}, {"note": 75, "velocity": 107, "duration": 101}, {"note": 0, "velocity": 0, "duration": 139}, {"note": 75, "velocity": 104, "duration": 101}, {"note": 0, "velocity": 0, "duration": 139}, {"note": 75, "velocity": 113, "duration": 138}, {"note": 0, "velocity": 0, "duration": 102}, {"note": 77, "velocity": 116, "duration": 240}, {"note": 0, "velocity": 0, "duration": 1440}, {"note": 72, "velocity": 107, "duration": 108}, {"note": 0, "velocity": 0, "duration": 132}, {"note": 75, "velocity": 98, "duration": 78}, {"note": 0, "velocity": 0, "duration": 162}, {"note": 77, "velocity": 113, "duration": 148}, {"note": 0, "velocity": 0, "duration": 92}, {"note": 75, "velocity": 110, "duration": 54}, {"note": 0, "velocity": 0, "duration": 66}, {"note": 75, "velocity": 113, "duration": 147}, {"note": 0, "velocity": 0, "duration": 93}, {"note": 72, "velocity": 98, "duration": 60}, {"note": 72, "velocity": 108, "duration": 173}, {"note": 0, "velocity": 0, "duration": 547}, {"note": 68, "velocity": 98, "duration": 84}, {"note": 72, "velocity": 108, "duration": 178}, {"note": 0, "velocity": 0, "duration": 182}, {"note": 70, "velocity": 113, "duration": 109}, {"note": 68, "velocity": 104, "duration": 86}, {"note": 65, "velocity": 94, "duration": 196}, {"note": 0, "velocity": 0, "duration": 284}, {"note": 70, "velocity": 108, "duration": 124}, {"note": 0, "velocity": 0, "duration": 116}, {"note": 70, "velocity": 107, "duration": 132}, {"note": 0, "velocity": 0, "duration": 108}, {"note": 68, "velocity": 100, "duration": 128}, {"note": 0, "velocity": 0, "duration": 112}, {"note": 72, "velocity": 113, "duration": 186}, {"note": 70, "velocity": 114, "duration": 166}, {"note": 0, "velocity": 0, "duration": 794}, {"note": 63, "velocity": 92, "duration": 230}, {"note": 63, "velocity": 92, "duration": 230}, {"note": 65, "velocity": 100, "duration": 200}, {"note": 68, "velocity": 107, "duration": 147}, {"note": 0, "velocity": 0, "duration": 93}, {"note": 72, "velocity": 110, "duration": 274}, {"note": 0, "velocity": 0, "duration": 1166}, {"note": 72, "velocity": 93, "duration": 70}, {"note": 0, "velocity": 0, "duration": 170}, {"note": 70, "velocity": 93, "duration": 70}, {"note": 68, "velocity": 88, "duration": 75}, {"note": 72, "velocity": 108, "duration": 171}, {"note": 0, "velocity": 0, "duration": 309}, {"note": 70, "velocity": 108, "duration": 207}, {"note": 0, "velocity": 0, "duration": 273}, {"note": 75, "velocity": 110, "duration": 46}, {"note": 0, "velocity": 0, "duration": 74}, {"note": 75, "velocity": 100, "duration": 54}, {"note": 0, "velocity": 0, "duration": 66}, {"note": 77, "velocity": 116, "duration": 120}, {"note": 0, "velocity": 0, "duration": 120}, {"note": 75, "velocity": 108, "duration": 97}, {"note": 75, "velocity": 102, "duration": 118}, {"note": 0, "velocity": 0, "duration": 122}, {"note": 72, "velocity": 100, "duration": 57}, {"note": 0, "velocity": 0, "duration": 63}, {"note": 72, "velocity": 110, "duration": 105}, {"note": 0, "velocity": 0, "duration": 1335}, {"note": 70, "velocity": 104, "duration": 87}, {"note": 0, "velocity": 0, "duration": 153}, {"note": 70, "velocity": 104, "duration": 87}, {"note": 68, "velocity": 98, "duration": 58}, {"note": 0, "velocity": 0, "duration": 62}, {"note": 72, "velocity": 113, "duration": 133}, {"note": 0, "velocity": 0, "duration": 347}, {"note": 75, "velocity": 116, "duration": 248}, {"note": 0, "velocity": 0, "duration": 232}, {"note": 75, "velocity": 100, "duration": 117}, {"note": 0, "velocity": 0, "duration": 123}, {"note": 75, "velocity": 107, "duration": 101}, {"note": 0, "velocity": 0, "duration": 139}, {"note": 75, "velocity": 104, "duration": 101}, {"note": 0, "velocity": 0, "duration": 139}, {"note": 75, "velocity": 113, "duration": 138}, {"note": 0, "velocity": 0, "duration": 102}, {"note": 77, "velocity": 116, "duration": 240}, {"note": 0, "velocity": 0, "duration": 960}, {"note": 77, "velocity": 108, "duration": 125}, {"note": 0, "velocity": 0, "duration": 115}, {"note": 77, "velocity": 104, "duration": 144}, {"note": 0, "velocity": 0, "duration": 96}, {"note": 80, "velocity": 113, "duration": 127}, {"note": 0, "velocity": 0, "duration": 113}, {"note": 79, "velocity": 119, "duration": 186}, {"note": 0, "velocity": 0, "duration": 294}, {"note": 75, "velocity": 104, "duration": 217}, {"note": 0, "velocity": 0, "duration": 263}, {"note": 75, "velocity": 110, "duration": 317}, {"note": 0, "velocity": 0, "duration": 163}, {"note": 79, "velocity": 119, "duration": 273}, {"note": 0, "velocity": 0, "duration": 207}, {"note": 80, "velocity": 117, "duration": 249}, {"note": 0, "velocity": 0, "duration": 951}, {"note": 77, "velocity": 116, "duration": 148}, {"note": 0, "velocity": 0, "duration": 92}, {"note": 80, "velocity": 116, "duration": 187}, {"note": 0, "velocity": 0, "duration": 293}, {"note": 82, "velocity": 117, "duration": 228}, {"note": 0, "velocity": 0, "duration": 732}, {"note": 75, "velocity": 100, "duration": 139}, {"note": 0, "velocity": 0, "duration": 101}, {"note": 75, "velocity": 108, "duration": 180}, {"note": 75, "velocity": 108, "duration": 155}, {"note": 0, "velocity": 0, "duration": 85}, {"note": 77, "velocity": 114, "duration": 173}, {"note": 0, "velocity": 0, "duration": 67}, {"note": 75, "velocity": 117, "duration": 132}, {"note": 0, "velocity": 0, "duration": 108}, {"note": 84, "velocity": 116, "duration": 219}, {"note": 0, "velocity": 0, "duration": 261}, {"note": 75, "velocity": 117, "duration": 201}, {"note": 0, "velocity": 0, "duration": 279}, {"note": 75, "velocity": 116, "duration": 97}, {"note": 0, "velocity": 0, "duration": 143}, {"note": 75, "velocity": 114, "duration": 168}, {"note": 0, "velocity": 0, "duration": 72}, {"note": 77, "velocity": 114, "duration": 164}, {"note": 0, "velocity": 0, "duration": 76}, {"note": 75, "velocity": 116, "duration": 119}, {"note": 0, "velocity": 0, "duration": 121}, {"note": 82, "velocity": 120, "duration": 271}, {"note": 0, "velocity": 0, "duration": 209}, {"note": 75, "velocity": 100, "duration": 202}, {"note": 0, "velocity": 0, "duration": 278}, {"note": 75, "velocity": 114, "duration": 114}, {"note": 0, "velocity": 0, "duration": 126}, {"note": 75, "velocity": 108, "duration": 135}, {"note": 0, "velocity": 0, "duration": 105}, {"note": 77, "velocity": 113, "duration": 152}, {"note": 0, "velocity": 0, "duration": 88}, {"note": 75, "velocity": 114, "duration": 124}, {"note": 0, "velocity": 0, "duration": 116}, {"note": 80, "velocity": 117, "duration": 314}, {"note": 0, "velocity": 0, "duration": 166}, {"note": 72, "velocity": 116, "duration": 210}, {"note": 0, "velocity": 0, "duration": 270}, {"note": 80, "velocity": 117, "duration": 197}, {"note": 79, "velocity": 113, "duration": 193}, {"note": 77, "velocity": 116, "duration": 119}, {"note": 0, "velocity": 0, "duration": 121}, {"note": 77, "velocity": 119, "duration": 204}, {"note": 0, "velocity": 0, "duration": 276}, {"note": 75, "velocity": 116, "duration": 216}, {"note": 0, "velocity": 0, "duration": 264}, {"note": 75, "velocity": 108, "duration": 146}, {"note": 0, "velocity": 0, "duration": 94}, {"note": 75, "velocity": 108, "duration": 123}, {"note": 0, "velocity": 0, "duration": 117}, {"note": 75, "velocity": 108, "duration": 111}, {"note": 0, "velocity": 0, "duration": 129}, {"note": 75, "velocity": 107, "duration": 106}, {"note": 0, "velocity": 0, "duration": 134}, {"note": 75, "velocity": 104, "duration": 97}, {"note": 0, "velocity": 0, "duration": 143}, {"note": 77, "velocity": 114, "duration": 171}, {"note": 0, "velocity": 0, "duration": 189}, {"note": 68, "velocity": 114, "duration": 176}, {"note": 0, "velocity": 0, "duration": 184}, {"note": 68, "velocity": 104, "duration": 162}, {"note": 0, "velocity": 0, "duration": 78}, {"note": 68, "velocity": 104, "duration": 159}, {"note": 0, "velocity": 0, "duration": 81}, {"note": 68, "velocity": 110, "duration": 145}, {"note": 0, "velocity": 0, "duration": 95}, {"note": 68, "velocity": 113, "duration": 154}, {"note": 0, "velocity": 0, "duration": 86}, {"note": 68, "velocity": 92, "duration": 178}, {"note": 0, "velocity": 0, "duration": 62}, {"note": 75, "velocity": 110, "duration": 175}, {"note": 0, "velocity": 0, "duration": 185}, {"note": 72, "velocity": 102, "duration": 156}, {"note": 0, "velocity": 0, "duration": 204}, {"note": 75, "velocity": 104, "duration": 135}, {"note": 0, "velocity": 0, "duration": 105}, {"note": 75, "velocity": 110, "duration": 125}, {"note": 0, "velocity": 0, "duration": 115}, {"note": 75, "velocity": 108, "duration": 121}, {"note": 0, "velocity": 0, "duration": 119}, {"note": 75, "velocity": 108, "duration": 109}, {"note": 0, "velocity": 0, "duration": 131}, {"note": 77, "velocity": 110, "duration": 134}, {"note": 0, "velocity": 0, "duration": 346}, {"note": 80, "velocity": 114, "duration": 154}, {"note": 0, "velocity": 0, "duration": 326}, {"note": 80, "velocity": 114, "duration": 136}, {"note": 0, "velocity": 0, "duration": 104}, {"note": 80, "velocity": 114, "duration": 224}, {"note": 77, "velocity": 116, "duration": 181}, {"note": 80, "velocity": 114, "duration": 146}, {"note": 0, "velocity": 0, "duration": 94}, {"note": 82, "velocity": 117, "duration": 193}, {"note": 0, "velocity": 0, "duration": 767}, {"note": 75, "velocity": 100, "duration": 139}, {"note": 0, "velocity": 0, "duration": 101}, {"note": 75, "velocity": 108, "duration": 180}, {"note": 75, "velocity": 108, "duration": 155}, {"note": 0, "velocity": 0, "duration": 85}, {"note": 77, "velocity": 114, "duration": 173}, {"note": 0, "velocity": 0, "duration": 67}, {"note": 75, "velocity": 117, "duration": 132}, {"note": 0, "velocity": 0, "duration": 108}, {"note": 84, "velocity": 116, "duration": 219}, {"note": 0, "velocity": 0, "duration": 261}, {"note": 75, "velocity": 117, "duration": 201}, {"note": 0, "velocity": 0, "duration": 279}, {"note": 75, "velocity": 116, "duration": 97}, {"note": 0, "velocity": 0, "duration": 143}, {"note": 75, "velocity": 114, "duration": 168}, {"note": 0, "velocity": 0, "duration": 72}, {"note": 77, "velocity": 114, "duration": 164}, {"note": 0, "velocity": 0, "duration": 76}, {"note": 75, "velocity": 116, "duration": 119}, {"note": 0, "velocity": 0, "duration": 121}, {"note": 82, "velocity": 120, "duration": 271}, {"note": 0, "velocity": 0, "duration": 209}, {"note": 75, "velocity": 100, "duration": 202}, {"note": 0, "velocity": 0, "duration": 278}, {"note": 75, "velocity": 114, "duration": 114}, {"note": 0, "velocity": 0, "duration": 126}, {"note": 75, "velocity": 108, "duration": 135}, {"note": 0, "velocity": 0, "duration": 105}, {"note": 77, "velocity": 113, "duration": 152}, {"note": 0, "velocity": 0, "duration": 88}, {"note": 75, "velocity": 114, "duration": 124}, {"note": 0, "velocity": 0, "duration": 116}, {"note": 80, "velocity": 117, "duration": 314}, {"note": 0, "velocity": 0, "duration": 166}, {"note": 72, "velocity": 116, "duration": 210}, {"note": 0, "velocity": 0, "duration": 270}, {"note": 80, "velocity": 117, "duration": 197}, {"note": 79, "velocity": 113, "duration": 193}, {"note": 77, "velocity": 116, "duration": 119}, {"note": 0, "velocity": 0, "duration": 121}, {"note": 77, "velocity": 119, "duration": 204}, {"note": 0, "velocity": 0, "duration": 276}, {"note": 75, "velocity": 116, "duration": 216}, {"note": 0, "velocity": 0, "duration": 264}, {"note": 75, "velocity": 108, "duration": 146}, {"note": 0, "velocity": 0, "duration": 94}, {"note": 75, "velocity": 108, "duration": 123}, {"note": 0, "velocity": 0, "duration": 117}, {"note": 75, "velocity": 108, "duration": 111}, {"note": 0, "velocity": 0, "duration": 129}, {"note": 75, "velocity": 107, "duration": 106}, {"note": 0, "velocity": 0, "duration": 134}, {"note": 75, "velocity": 104, "duration": 97}, {"note": 0, "velocity": 0, "duration": 143}, {"note": 77, "velocity": 114, "duration": 171}, {"note": 0, "velocity": 0, "duration": 69}, {"note": 80, "velocity": 110, "duration": 193}, {"note": 0, "velocity": 0, "duration": 287}, {"note": 75, "velocity": 110, "duration": 111}, {"note": 0, "velocity": 0, "duration": 129}, {"note": 75, "velocity": 110, "duration": 112}, {"note": 0, "velocity": 0, "duration": 128}, {"note": 75, "velocity": 110, "duration": 141}, {"note": 0, "velocity": 0, "duration": 99}, {"note": 75, "velocity": 108, "duration": 148}, {"note": 0, "velocity": 0, "duration": 92}, {"note": 75, "velocity": 110, "duration": 118}, {"note": 0, "velocity": 0, "duration": 122}, {"note": 77, "velocity": 110, "duration": 229}, {"note": 0, "velocity": 0, "duration": 131}, {"note": 80, "velocity": 116, "duration": 138}, {"note": 0, "velocity": 0, "duration": 222}, {"note": 75, "velocity": 113, "duration": 119}, {"note": 0, "velocity": 0, "duration": 121}, {"note": 75, "velocity": 107, "duration": 112}, {"note": 0, "velocity": 0, "duration": 128}, {"note": 75, "velocity": 108, "duration": 107}, {"note": 0, "velocity": 0, "duration": 133}, {"note": 84, "velocity": 113, "duration": 156}, {"note": 0, "velocity": 0, "duration": 84}, {"note": 82, "velocity": 119, "duration": 328}, {"note": 0, "velocity": 0, "duration": 152}, {"note": 80, "velocity": 119, "duration": 157}, {"note": 0, "velocity": 0, "duration": 323}, {"note": 80, "velocity": 117, "duration": 128}, {"note": 0, "velocity": 0, "duration": 112}, {"note": 80, "velocity": 114, "duration": 176}, {"note": 0, "velocity": 0, "duration": 64}, {"note": 77, "velocity": 116, "duration": 158}, {"note": 0, "velocity": 0, "duration": 82}, {"note": 80, "velocity": 114, "duration": 121}, {"note": 0, "velocity": 0, "duration": 119}, {"note": 82, "velocity": 117, "duration": 182}, {"note": 0, "velocity": 0, "duration": 778}, {"note": 75, "velocity": 114, "duration": 313}, {"note": 0, "velocity": 0, "duration": 167}, {"note": 82, "velocity": 116, "duration": 374}, {"note": 0, "velocity": 0, "duration": 106}, {"note": 80, "velocity": 119, "duration": 221}, {"note": 0, "velocity": 0, "duration": 2659}, {"note": 63, "velocity": 92, "duration": 230}, {"note": 63, "velocity": 92, "duration": 230}, {"note": 65, "velocity": 100, "duration": 200}, {"note": 68, "velocity": 107, "duration": 147}, {"note": 0, "velocity": 0, "duration": 93}, {"note": 72, "velocity": 110, "duration": 274}, {"note": 0, "velocity": 0, "duration": 1406}, {"note": 70, "velocity": 93, "duration": 70}, {"note": 68, "velocity": 88, "duration": 75}, {"note": 72, "velocity": 108, "duration": 171}, {"note": 0, "velocity": 0, "duration": 309}, {"note": 70, "velocity": 108, "duration": 207}, {"note": 0, "velocity": 0, "duration": 273}, {"note": 63, "velocity": 107, "duration": 128}, {"note": 0, "velocity": 0, "duration": 112}, {"note": 63, "velocity": 113, "duration": 181}, {"note": 65, "velocity": 113, "duration": 186}, {"note": 68, "velocity": 114, "duration": 135}, {"note": 0, "velocity": 0, "duration": 105}, {"note": 72, "velocity": 120, "duration": 262}, {"note": 0, "velocity": 0, "duration": 1418}, {"note": 70, "velocity": 104, "duration": 87}, {"note": 68, "velocity": 98, "duration": 58}, {"note": 0, "velocity": 0, "duration": 62}, {"note": 72, "velocity": 113, "duration": 133}, {"note": 0, "velocity": 0, "duration": 347}, {"note": 70, "velocity": 116, "duration": 248}, {"note": 0, "velocity": 0, "duration": 232}, {"note": 75, "velocity": 100, "duration": 117}, {"note": 0, "velocity": 0, "duration": 123}, {"note": 75, "velocity": 107, "duration": 101}, {"note": 0, "velocity": 0, "duration": 139}, {"note": 75, "velocity": 104, "duration": 101}, {"note": 0, "velocity": 0, "duration": 139}, {"note": 75, "velocity": 113, "duration": 138}, {"note": 0, "velocity": 0, "duration": 102}, {"note": 77, "velocity": 116, "duration": 240}, {"note": 0, "velocity": 0, "duration": 1440}, {"note": 72, "velocity": 107, "duration": 108}, {"note": 0, "velocity": 0, "duration": 132}, {"note": 75, "velocity": 98, "duration": 78}, {"note": 0, "velocity": 0, "duration": 162}, {"note": 77, "velocity": 113, "duration": 148}, {"note": 0, "velocity": 0, "duration": 92}, {"note": 75, "velocity": 110, "duration": 54}, {"note": 0, "velocity": 0, "duration": 66}, {"note": 75, "velocity": 113, "duration": 147}, {"note": 0, "velocity": 0, "duration": 93}, {"note": 72, "velocity": 98, "duration": 60}, {"note": 72, "velocity": 108, "duration": 173}, {"note": 0, "velocity": 0, "duration": 547}, {"note": 68, "velocity": 98, "duration": 84}, {"note": 72, "velocity": 108, "duration": 178}, {"note": 0, "velocity": 0, "duration": 182}, {"note": 70, "velocity": 113, "duration": 109}, {"note": 68, "velocity": 104, "duration": 86}, {"note": 65, "velocity": 94, "duration": 196}, {"note": 0, "velocity": 0, "duration": 284}, {"note": 70, "velocity": 108, "duration": 124}, {"note": 0, "velocity": 0, "duration": 116}, {"note": 70, "velocity": 107, "duration": 132}, {"note": 0, "velocity": 0, "duration": 108}, {"note": 68, "velocity": 100, "duration": 128}, {"note": 0, "velocity": 0, "duration": 112}, {"note": 72, "velocity": 113, "duration": 186}, {"note": 70, "velocity": 114, "duration": 166}, {"note": 0, "velocity": 0, "duration": 794}, {"note": 63, "velocity": 92, "duration": 230}, {"note": 63, "velocity": 92, "duration": 230}, {"note": 65, "velocity": 100, "duration": 200}, {"note": 68, "velocity": 107, "duration": 147}, {"note": 0, "velocity": 0, "duration": 93}, {"note": 72, "velocity": 110, "duration": 274}, {"note": 0, "velocity": 0, "duration": 1166}, {"note": 72, "velocity": 93, "duration": 70}, {"note": 0, "velocity": 0, "duration": 170}, {"note": 70, "velocity": 93, "duration": 70}, {"note": 68, "velocity": 88, "duration": 75}, {"note": 72, "velocity": 108, "duration": 171}, {"note": 0, "velocity": 0, "duration": 309}, {"note": 70, "velocity": 108, "duration": 207}, {"note": 0, "velocity": 0, "duration": 273}, {"note": 75, "velocity": 110, "duration": 46}, {"note": 0, "velocity": 0, "duration": 74}, {"note": 75, "velocity": 100, "duration": 54}, {"note": 0, "velocity": 0, "duration": 66}, {"note": 77, "velocity": 116, "duration": 120}, {"note": 0, "velocity": 0, "duration": 120}, {"note": 75, "velocity": 108, "duration": 97}, {"note": 75, "velocity": 102, "duration": 118}, {"note": 0, "velocity": 0, "duration": 122}, {"note": 72, "velocity": 100, "duration": 57}, {"note": 0, "velocity": 0, "duration": 63}, {"note": 72, "velocity": 110, "duration": 105}, {"note": 0, "velocity": 0, "duration": 1335}, {"note": 70, "velocity": 104, "duration": 87}, {"note": 0, "velocity": 0, "duration": 153}, {"note": 70, "velocity": 104, "duration": 87}, {"note": 68, "velocity": 98, "duration": 58}, {"note": 0, "velocity": 0, "duration": 62}, {"note": 72, "velocity": 113, "duration": 133}, {"note": 0, "velocity": 0, "duration": 347}, {"note": 75, "velocity": 116, "duration": 248}, {"note": 0, "velocity": 0, "duration": 232}, {"note": 75, "velocity": 100, "duration": 117}, {"note": 0, "velocity": 0, "duration": 123}, {"note": 75, "velocity": 107, "duration": 101}, {"note": 0, "velocity": 0, "duration": 139}, {"note": 75, "velocity": 104, "duration": 101}, {"note": 0, "velocity": 0, "duration": 139}, {"note": 75, "velocity": 113, "duration": 138}, {"note": 0, "velocity": 0, "duration": 102}, {"note": 77, "velocity": 116, "duration": 240}, {"note": 0, "velocity": 0, "duration": 960}, {"note": 77, "velocity": 108, "duration": 125}, {"note": 0, "velocity": 0, "duration": 115}, {"note": 77, "velocity": 104, "duration": 144}, {"note": 0, "velocity": 0, "duration": 96}, {"note": 80, "velocity": 113, "duration": 127}, {"note": 0, "velocity": 0, "duration": 113}, {"note": 79, "velocity": 119, "duration": 186}, {"note": 0, "velocity": 0, "duration": 294}, {"note": 75, "velocity": 104, "duration": 217}, {"note": 0, "velocity": 0, "duration": 263}, {"note": 75, "velocity": 110, "duration": 317}, {"note": 0, "velocity": 0, "duration": 163}, {"note": 79, "velocity": 119, "duration": 273}, {"note": 0, "velocity": 0, "duration": 207}, {"note": 80, "velocity": 117, "duration": 249}, {"note": 0, "velocity": 0, "duration": 951}, {"note": 77, "velocity": 116, "duration": 148}, {"note": 0, "velocity": 0, "duration": 92}, {"note": 80, "velocity": 116, "duration": 187}, {"note": 0, "velocity": 0, "duration": 293}, {"note": 82, "velocity": 117, "duration": 228}, {"note": 0, "velocity": 0, "duration": 732}, {"note": 75, "velocity": 100, "duration": 139}, {"note": 0, "velocity": 0, "duration": 101}, {"note": 75, "velocity": 108, "duration": 180}, {"note": 75, "velocity": 108, "duration": 155}, {"note": 0, "velocity": 0, "duration": 85}, {"note": 77, "velocity": 114, "duration": 173}, {"note": 0, "velocity": 0, "duration": 67}, {"note": 75, "velocity": 117, "duration": 132}, {"note": 0, "velocity": 0, "duration": 108}, {"note": 84, "velocity": 116, "duration": 219}, {"note": 0, "velocity": 0, "duration": 261}, {"note": 75, "velocity": 117, "duration": 201}, {"note": 0, "velocity": 0, "duration": 279}, {"note": 75, "velocity": 116, "duration": 97}, {"note": 0, "velocity": 0, "duration": 143}, {"note": 75, "velocity": 114, "duration": 168}, {"note": 0, "velocity": 0, "duration": 72}, {"note": 77, "velocity": 114, "duration": 164}, {"note": 0, "velocity": 0, "duration": 76}, {"note": 75, "velocity": 116, "duration": 119}, {"note": 0, "velocity": 0, "duration": 121}, {"note": 82, "velocity": 120, "duration": 271}, {"note": 0, "velocity": 0, "duration": 209}, {"note": 75, "velocity": 100, "duration": 202}, {"note": 0, "velocity": 0, "duration": 278}, {"note": 75, "velocity": 114, "duration": 114}, {"note": 0, "velocity": 0, "duration": 126}, {"note": 75, "velocity": 108, "duration": 135}, {"note": 0, "velocity": 0, "duration": 105}, {"note": 77, "velocity": 113, "duration": 152}, {"note": 0, "velocity": 0, "duration": 88}, {"note": 75, "velocity": 114, "duration": 124}, {"note": 0, "velocity": 0, "duration": 116}, {"note": 80, "velocity": 117, "duration": 314}, {"note": 0, "velocity": 0, "duration": 166}, {"note": 72, "velocity": 116, "duration": 210}, {"note": 0, "velocity": 0, "duration": 270}, {"note": 80, "velocity": 117, "duration": 197}, {"note": 79, "velocity": 113, "duration": 193}, {"note": 77, "velocity": 116, "duration": 119}, {"note": 0, "velocity": 0, "duration": 121}, {"note": 77, "velocity": 119, "duration": 204}, {"note": 0, "velocity": 0, "duration": 276}, {"note": 75, "velocity": 116, "duration": 216}, {"note": 0, "velocity": 0, "duration": 264}, {"note": 75, "velocity": 108, "duration": 146}, {"note": 0, "velocity": 0, "duration": 94}, {"note": 75, "velocity": 108, "duration": 123}, {"note": 0, "velocity": 0, "duration": 117}, {"note": 75, "velocity": 108, "duration": 111}, {"note": 0, "velocity": 0, "duration": 129}, {"note": 75, "velocity": 107, "duration": 106}, {"note": 0, "velocity": 0, "duration": 134}, {"note": 75, "velocity": 104, "duration": 97}, {"note": 0, "velocity": 0, "duration": 143}, {"note": 77, "velocity": 114, "duration": 171}, {"note": 0, "velocity": 0, "duration": 189}, {"note": 68, "velocity": 114, "duration": 176}, {"note": 0, "velocity": 0, "duration": 184}, {"note": 68, "velocity": 104, "duration": 162}, {"note": 0, "velocity": 0, "duration": 78}, {"note": 68, "velocity": 104, "duration": 159}, {"note": 0, "velocity": 0, "duration": 81}, {"note": 68, "velocity": 110, "duration": 145}, {"note": 0, "velocity": 0, "duration": 95}, {"note": 68, "velocity": 113, "duration": 154}, {"note": 0, "velocity": 0, "duration": 86}, {"note": 68, "velocity": 92, "duration": 178}, {"note": 0, "velocity": 0, "duration": 62}, {"note": 75, "velocity": 110, "duration": 175}, {"note": 0, "velocity": 0, "duration": 185}, {"note": 72, "velocity": 102, "duration": 156}, {"note": 0, "velocity": 0, "duration": 204}, {"note": 75, "velocity": 104, "duration": 135}, {"note": 0, "velocity": 0, "duration": 105}, {"note": 75, "velocity": 110, "duration": 125}, {"note": 0, "velocity": 0, "duration": 115}, {"note": 75, "velocity": 108, "duration": 121}, {"note": 0, "velocity": 0, "duration": 119}, {"note": 75, "velocity": 108, "duration": 109}, {"note": 0, "velocity": 0, "duration": 131}, {"note": 77, "velocity": 110, "duration": 134}, {"note": 0, "velocity": 0, "duration": 346}, {"note": 80, "velocity": 114, "duration": 154}, {"note": 0, "velocity": 0, "duration": 326}, {"note": 80, "velocity": 114, "duration": 136}, {"note": 0, "velocity": 0, "duration": 104}, {"note": 80, "velocity": 114, "duration": 224}, {"note": 77, "velocity": 116, "duration": 181}, {"note": 80, "velocity": 114, "duration": 146}, {"note": 0, "velocity": 0, "duration": 94}, {"note": 82, "velocity": 117, "duration": 193}, {"note": 0, "velocity": 0, "duration": 767}, {"note": 75, "velocity": 100, "duration": 139}, {"note": 0, "velocity": 0, "duration": 101}, {"note": 75, "velocity": 108, "duration": 180}, {"note": 75, "velocity": 108, "duration": 155}, {"note": 0, "velocity": 0, "duration": 85}, {"note": 77, "velocity": 114, "duration": 173}, {"note": 0, "velocity": 0, "duration": 67}, {"note": 75, "velocity": 117, "duration": 132}, {"note": 0, "velocity": 0, "duration": 108}, {"note": 84, "velocity": 116, "duration": 219}, {"note": 0, "velocity": 0, "duration": 261}, {"note": 75, "velocity": 117, "duration": 201}, {"note": 0, "velocity": 0, "duration": 279}, {"note": 75, "velocity": 116, "duration": 97}, {"note": 0, "velocity": 0, "duration": 143}, {"note": 75, "velocity": 114, "duration": 168}, {"note": 0, "velocity": 0, "duration": 72}, {"note": 77, "velocity": 114, "duration": 164}, {"note": 0, "velocity": 0, "duration": 76}, {"note": 75, "velocity": 116, "duration": 119}, {"note": 0, "velocity": 0, "duration": 121}, {"note": 82, "velocity": 120, "duration": 271}, {"note": 0, "velocity": 0, "duration": 209}, {"note": 75, "velocity": 100, "duration": 202}, {"note": 0, "velocity": 0, "duration": 278}, {"note": 75, "velocity": 114, "duration": 114}, {"note": 0, "velocity": 0, "duration": 126}, {"note": 75, "velocity": 108, "duration": 135}, {"note": 0, "velocity": 0, "duration": 105}, {"note": 77, "velocity": 113, "duration": 152}, {"note": 0, "velocity": 0, "duration": 88}, {"note": 75, "velocity": 114, "duration": 124}, {"note": 0, "velocity": 0, "duration": 116}, {"note": 80, "velocity": 117, "duration": 314}, {"note": 0, "velocity": 0, "duration": 166}, {"note": 72, "velocity": 116, "duration": 210}, {"note": 0, "velocity": 0, "duration": 270}, {"note": 80, "velocity": 117, "duration": 197}, {"note": 79, "velocity": 113, "duration": 193}, {"note": 77, "velocity": 116, "duration": 119}, {"note": 0, "velocity": 0, "duration": 121}, {"note": 77, "velocity": 119, "duration": 204}, {"note": 0, "velocity": 0, "duration": 276}, {"note": 75, "velocity": 116, "duration": 216}, {"note": 0, "velocity": 0, "duration": 264}, {"note": 75, "velocity": 108, "duration": 146}, {"note": 0, "velocity": 0, "duration": 94}, {"note": 75, "velocity": 108, "duration": 123}, {"note": 0, "velocity": 0, "duration": 117}, {"note": 75, "velocity": 108, "duration": 111}, {"note": 0, "velocity": 0, "duration": 129}, {"note": 75, "velocity": 107, "duration": 106}, {"note": 0, "velocity": 0, "duration": 134}, {"note": 75, "velocity": 104, "duration": 97}, {"note": 0, "velocity": 0, "duration": 143}, {"note": 77, "velocity": 114, "duration": 171}, {"note": 0, "velocity": 0, "duration": 69}, {"note": 80, "velocity": 110, "duration": 193}, {"note": 0, "velocity": 0, "duration": 287}, {"note": 75, "velocity": 110, "duration": 111}, {"note": 0, "velocity": 0, "duration": 129}, {"note": 75, "velocity": 110, "duration": 112}, {"note": 0, "velocity": 0, "duration": 128}, {"note": 75, "velocity": 110, "duration": 141}, {"note": 0, "velocity": 0, "duration": 99}, {"note": 75, "velocity": 108, "duration": 148}, {"note": 0, "velocity": 0, "duration": 92}, {"note": 75, "velocity": 110, "duration": 118}, {"note": 0, "velocity": 0, "duration": 122}, {"note": 77, "velocity": 110, "duration": 229}, {"note": 0, "velocity": 0, "duration": 131}, {"note": 80, "velocity": 116, "duration": 138}, {"note": 0, "velocity": 0, "duration": 222}, {"note": 75, "velocity": 113, "duration": 119}, {"note": 0, "velocity": 0, "duration": 121}, {"note": 75, "velocity": 107, "duration": 112}, {"note": 0, "velocity": 0, "duration": 128}, {"note": 75, "velocity": 108, "duration": 107}, {"note": 0, "velocity": 0, "duration": 133}, {"note": 84, "velocity": 113, "duration": 156}, {"note": 0, "velocity": 0, "duration": 84}, {"note": 82, "velocity": 119, "duration": 328}, {"note": 0, "velocity": 0, "duration": 152}, {"note": 80, "velocity": 119, "duration": 157}, {"note": 0, "velocity": 0, "duration": 323}, {"note": 80, "velocity": 117, "duration": 128}, {"note": 0, "velocity": 0, "duration": 112}, {"note": 80, "velocity": 114, "duration": 176}, {"note": 0, "velocity": 0, "duration": 64}, {"note": 77, "velocity": 116, "duration": 158}, {"note": 0, "velocity": 0, "duration": 82}, {"note": 80, "velocity": 114, "duration": 121}, {"note": 0, "velocity": 0, "duration": 119}, {"note": 82, "velocity": 117, "duration": 182}, {"note": 0, "velocity": 0, "duration": 778}, {"note": 75, "velocity": 114, "duration": 313}, {"note": 0, "velocity": 0, "duration": 167}, {"note": 80, "velocity": 117, "duration": 180}, {"note": 79, "velocity": 106, "duration": 134}, {"note": 0, "velocity": 0, "duration": 106}, {"note": 82, "velocity": 117, "duration": 1780}, {"note": 0, "velocity": 0, "duration": 5900}, {"note": 75, "velocity": 100, "duration": 139}, {"note": 0, "velocity": 0, "duration": 101}, {"note": 75, "velocity": 108, "duration": 180}, {"note": 75, "velocity": 108, "duration": 155}, {"note": 0, "velocity": 0, "duration": 85}, {"note": 77, "velocity": 114, "duration": 173}, {"note": 0, "velocity": 0, "duration": 67}, {"note": 75, "velocity": 117, "duration": 132}, {"note": 0, "velocity": 0, "duration": 108}, {"note": 84, "velocity": 116, "duration": 219}, {"note": 0, "velocity": 0, "duration": 261}, {"note": 75, "velocity": 117, "duration": 201}, {"note": 0, "velocity": 0, "duration": 279}, {"note": 75, "velocity": 116, "duration": 97}, {"note": 0, "velocity": 0, "duration": 143}, {"note": 75, "velocity": 114, "duration": 168}, {"note": 0, "velocity": 0, "duration": 72}, {"note": 77, "velocity": 114, "duration": 164}, {"note": 0, "velocity": 0, "duration": 76}, {"note": 75, "velocity": 116, "duration": 119}, {"note": 0, "velocity": 0, "duration": 121}, {"note": 82, "velocity": 120, "duration": 271}, {"note": 0, "velocity": 0, "duration": 209}, {"note": 75, "velocity": 100, "duration": 202}, {"note": 0, "velocity": 0, "duration": 278}, {"note": 75, "velocity": 114, "duration": 114}, {"note": 0, "velocity": 0, "duration": 126}, {"note": 75, "velocity": 108, "duration": 135}, {"note": 0, "velocity": 0, "duration": 105}, {"note": 77, "velocity": 113, "duration": 152}, {"note": 0, "velocity": 0, "duration": 88}, {"note": 75, "velocity": 114, "duration": 124}, {"note": 0, "velocity": 0, "duration": 116}, {"note": 80, "velocity": 117, "duration": 314}, {"note": 0, "velocity": 0, "duration": 166}, {"note": 72, "velocity": 116, "duration": 210}, {"note": 0, "velocity": 0, "duration": 270}, {"note": 80, "velocity": 117, "duration": 197}, {"note": 79, "velocity": 113, "duration": 193}, {"note": 77, "velocity": 116, "duration": 119}, {"note": 0, "velocity": 0, "duration": 121}, {"note": 77, "velocity": 119, "duration": 204}, {"note": 0, "velocity": 0, "duration": 276}, {"note": 75, "velocity": 116, "duration": 216}, {"note": 0, "velocity": 0, "duration": 264}, {"note": 75, "velocity": 108, "duration": 146}, {"note": 0, "velocity": 0, "duration": 94}, {"note": 75, "velocity": 108, "duration": 123}, {"note": 0, "velocity": 0, "duration": 117}, {"note": 75, "velocity": 108, "duration": 111}, {"note": 0, "velocity": 0, "duration": 129}, {"note": 75, "velocity": 107, "duration": 106}, {"note": 0, "velocity": 0, "duration": 134}, {"note": 75, "velocity": 104, "duration": 97}, {"note": 0, "velocity": 0, "duration": 143}, {"note": 77, "velocity": 114, "duration": 171}, {"note": 0, "velocity": 0, "duration": 69}, {"note": 80, "velocity": 110, "duration": 193}, {"note": 0, "velocity": 0, "duration": 287}, {"note": 75, "velocity": 110, "duration": 111}, {"note": 0, "velocity": 0, "duration": 129}, {"note": 75, "velocity": 110, "duration": 112}, {"note": 0, "velocity": 0, "duration": 128}, {"note": 75, "velocity": 110, "duration": 141}, {"note": 0, "velocity": 0, "duration": 99}, {"note": 75, "velocity": 108, "duration": 148}, {"note": 0, "velocity": 0, "duration": 92}, {"note": 75, "velocity": 110, "duration": 118}, {"note": 0, "velocity": 0, "duration": 122}, {"note": 77, "velocity": 110, "duration": 229}, {"note": 0, "velocity": 0, "duration": 131}, {"note": 80, "velocity": 116, "duration": 138}, {"note": 0, "velocity": 0, "duration": 222}, {"note": 75, "velocity": 113, "duration": 119}, {"note": 0, "velocity": 0, "duration": 121}, {"note": 75, "velocity": 107, "duration": 112}, {"note": 0, "velocity": 0, "duration": 128}, {"note": 75, "velocity": 108, "duration": 107}, {"note": 0, "velocity": 0, "duration": 133}, {"note": 84, "velocity": 113, "duration": 156}, {"note": 0, "velocity": 0, "duration": 84}, {"note": 82, "velocity": 119, "duration": 328}, {"note": 0, "velocity": 0, "duration": 152}, {"note": 80, "velocity": 119, "duration": 157}, {"note": 0, "velocity": 0, "duration": 323}, {"note": 80, "velocity": 117, "duration": 128}, {"note": 0, "velocity": 0, "duration": 112}, {"note": 80, "velocity": 114, "duration": 176}, {"note": 0, "velocity": 0, "duration": 64}, {"note": 77, "velocity": 116, "duration": 158}, {"note": 0, "velocity": 0, "duration": 82}, {"note": 80, "velocity": 114, "duration": 121}, {"note": 0, "velocity": 0, "duration": 119}, {"note": 82, "velocity": 117, "duration": 182}, {"note": 0, "velocity": 0, "duration": 778}, {"note": 75, "velocity": 114, "duration": 313}, {"note": 0, "velocity": 0, "duration": 167}, {"note": 80, "velocity": 117, "duration": 180}, {"note": 79, "velocity": 106, "duration": 134}, {"note": 0, "velocity": 0, "duration": 106}, {"note": 82, "velocity": 117, "duration": 1780}]]