[[{"note": 66, "velocity": 116, "duration": 240}, {"note": 64, "velocity": 90, "duration": 239}, {"note": 64, "velocity": 98, "duration": 240}, {"note": 62, "velocity": 94, "duration": 239}, {"note": 62, "velocity": 96, "duration": 240}, {"note": 61, "velocity": 108, "duration": 480}, {"note": 59, "velocity": 108, "duration": 1199}, {"note": 59, "velocity": 107, "duration": 240}, {"note": 61, "velocity": 91, "duration": 240}, {"note": 62, "velocity": 96, "duration": 240}, {"note": 57, "velocity": 92, "duration": 240}, {"note": 55, "velocity": 94, "duration": 3600}, {"note": 43, "velocity": 93, "duration": 240}, {"note": 42, "velocity": 108, "duration": 540}, {"note": 46, "velocity": 113, "duration": 240}, {"note": 49, "velocity": 102, "duration": 300}, {"note": 54, "velocity": 107, "duration": 480}, {"note": 50, "velocity": 100, "duration": 240}, {"note": 49, "velocity": 113, "duration": 1199}, {"note": 49, "velocity": 108, "duration": 246}, {"note": 50, "velocity": 104, "duration": 480}, {"note": 52, "velocity": 110, "duration": 250}, {"note": 54, "velocity": 108, "duration": 3840}, {"note": 71, "velocity": 117, "duration": 240}, {"note": 69, "velocity": 110, "duration": 239}, {"note": 69, "velocity": 113, "duration": 240}, {"note": 67, "velocity": 108, "duration": 239}, {"note": 67, "velocity": 117, "duration": 240}, {"note": 66, "velocity": 110, "duration": 480}, {"note": 61, "velocity": 102, "duration": 1199}, {"note": 61, "velocity": 113, "duration": 360}, {"note": 62, "velocity": 102, "duration": 360}, {"note": 64, "velocity": 104, "duration": 240}, {"note": 67, "velocity": 114, "duration": 720}, {"note": 66, "velocity": 108, "duration": 960}, {"note": 54, "velocity": 91, "duration": 240}, {"note": 64, "velocity": 108, "duration": 720}, {"note": 62, "velocity": 104, "duration": 720}, {"note": 61, "velocity": 108, "duration": 240}, {"note": 59, "velocity": 91, "duration": 259}, {"note": 62, "velocity": 107, "duration": 720}, {"note": 55, "velocity": 102, "duration": 2160}, {"note": 54, "velocity": 88, "duration": 267}, {"note": 58, "velocity": 85, "duration": 251}, {"note": 61, "velocity": 86, "duration": 246}, {"note": 58, "velocity": 87, "duration": 245}, {"note": 59, "velocity": 88, "duration": 2880}, {"note": 66, "velocity": 113, "duration": 480}, {"note": 69, "velocity": 116, "duration": 480}, {"note": 71, "velocity": 113, "duration": 479}, {"note": 71, "velocity": 113, "duration": 479}, {"note": 71, "velocity": 113, "duration": 240}, {"note": 74, "velocity": 116, "duration": 479}, {"note": 74, "velocity": 116, "duration": 1199}, {"note": 74, "velocity": 116, "duration": 480}, {"note": 71, "velocity": 110, "duration": 480}, {"note": 73, "velocity": 116, "duration": 480}, {"note": 74, "velocity": 113, "duration": 480}, {"note": 73, "velocity": 110, "duration": 240}, {"note": 69, "velocity": 108, "duration": 480}, {"note": 66, "velocity": 116, "duration": 1200}, {"note": 71, "velocity": 117, "duration": 480}, {"note": 69, "velocity": 114, "duration": 480}, {"note": 71, "velocity": 116, "duration": 261}, {"note": 69, "velocity": 114, "duration": 239}, {"note": 69, "velocity": 114, "duration": 240}, {"note": 62, "velocity": 113, "duration": 959}, {"note": 62, "velocity": 93, "duration": 240}, {"note": 67, "velocity": 113, "duration": 480}, {"note": 66, "velocity": 108, "duration": 240}, {"note": 64, "velocity": 114, "duration": 480}, {"note": 62, "velocity": 94, "duration": 240}, {"note": 64, "velocity": 104, "duration": 240}, {"note": 66, "velocity": 110, "duration": 3119}, {"note": 66, "velocity": 113, "duration": 480}, {"note": 69, "velocity": 116, "duration": 480}, {"note": 71, "velocity": 113, "duration": 479}, {"note": 71, "velocity": 113, "duration": 479}, {"note": 71, "velocity": 113, "duration": 240}, {"note": 74, "velocity": 116, "duration": 479}, {"note": 74, "velocity": 116, "duration": 1199}, {"note": 74, "velocity": 116, "duration": 480}, {"note": 71, "velocity": 110, "duration": 480}, {"note": 73, "velocity": 116, "duration": 480}, {"note": 74, "velocity": 113, "duration": 480}, {"note": 73, "velocity": 110, "duration": 240}, {"note": 69, "velocity": 108, "duration": 480}, {"note": 66, "velocity": 116, "duration": 1200}, {"note": 71, "velocity": 117, "duration": 480}, {"note": 69, "velocity": 114, "duration": 480}, {"note": 71, "velocity": 116, "duration": 261}, {"note": 69, "velocity": 114, "duration": 239}, {"note": 69, "velocity": 114, "duration": 240}, {"note": 62, "velocity": 113, "duration": 959}, {"note": 62, "velocity": 93, "duration": 240}, {"note": 67, "velocity": 113, "duration": 480}, {"note": 66, "velocity": 108, "duration": 240}, {"note": 64, "velocity": 114, "duration": 480}, {"note": 62, "velocity": 94, "duration": 240}, {"note": 64, "velocity": 104, "duration": 240}, {"note": 66, "velocity": 110, "duration": 315}, {"note": 0, "velocity": 0, "duration": 3765}, {"note": 66, "velocity": 116, "duration": 240}, {"note": 64, "velocity": 90, "duration": 239}, {"note": 64, "velocity": 98, "duration": 240}, {"note": 62, "velocity": 94, "duration": 239}, {"note": 62, "velocity": 96, "duration": 240}, {"note": 61, "velocity": 108, "duration": 480}, {"note": 59, "velocity": 108, "duration": 1199}, {"note": 59, "velocity": 107, "duration": 240}, {"note": 61, "velocity": 91, "duration": 240}, {"note": 62, "velocity": 96, "duration": 240}, {"note": 57, "velocity": 92, "duration": 240}, {"note": 55, "velocity": 94, "duration": 3600}, {"note": 43, "velocity": 93, "duration": 240}, {"note": 42, "velocity": 108, "duration": 540}, {"note": 46, "velocity": 113, "duration": 240}, {"note": 49, "velocity": 102, "duration": 300}, {"note": 54, "velocity": 107, "duration": 480}, {"note": 50, "velocity": 100, "duration": 240}, {"note": 49, "velocity": 113, "duration": 1199}, {"note": 49, "velocity": 108, "duration": 246}, {"note": 50, "velocity": 104, "duration": 480}, {"note": 52, "velocity": 110, "duration": 250}, {"note": 54, "velocity": 108, "duration": 3840}, {"note": 71, "velocity": 117, "duration": 240}, {"note": 69, "velocity": 110, "duration": 239}, {"note": 69, "velocity": 113, "duration": 240}, {"note": 67, "velocity": 108, "duration": 239}, {"note": 67, "velocity": 117, "duration": 240}, {"note": 66, "velocity": 110, "duration": 480}, {"note": 61, "velocity": 102, "duration": 1199}, {"note": 61, "velocity": 113, "duration": 360}, {"note": 62, "velocity": 102, "duration": 360}, {"note": 64, "velocity": 104, "duration": 240}, {"note": 67, "velocity": 114, "duration": 720}, {"note": 66, "velocity": 108, "duration": 960}, {"note": 54, "velocity": 91, "duration": 240}, {"note": 64, "velocity": 108, "duration": 720}, {"note": 62, "velocity": 104, "duration": 720}, {"note": 61, "velocity": 108, "duration": 240}, {"note": 59, "velocity": 91, "duration": 259}, {"note": 62, "velocity": 107, "duration": 720}, {"note": 55, "velocity": 102, "duration": 2160}, {"note": 54, "velocity": 88, "duration": 267}, {"note": 58, "velocity": 85, "duration": 251}, {"note": 61, "velocity": 86, "duration": 246}, {"note": 58, "velocity": 87, "duration": 245}, {"note": 59, "velocity": 88, "duration": 1920}, {"note": 0, "velocity": 0, "duration": 17280}, {"note": 71, "velocity": 114, "duration": 479}, {"note": 71, "velocity": 108, "duration": 239}, {"note": 71, "velocity": 113, "duration": 480}, {"note": 74, "velocity": 119, "duration": 719}, {"note": 74, "velocity": 117, "duration": 480}, {"note": 73, "velocity": 116, "duration": 480}, {"note": 69, "velocity": 107, "duration": 251}, {"note": 64, "velocity": 113, "duration": 720}, {"note": 69, "velocity": 119, "duration": 479}, {"note": 69, "velocity": 113, "duration": 239}, {"note": 69, "velocity": 114, "duration": 480}, {"note": 73, "velocity": 120, "duration": 719}, {"note": 73, "velocity": 119, "duration": 480}, {"note": 76, "velocity": 113, "duration": 480}, {"note": 74, "velocity": 116, "duration": 239}, {"note": 74, "velocity": 117, "duration": 720}, {"note": 71, "velocity": 113, "duration": 480}, {"note": 67, "velocity": 104, "duration": 240}, {"note": 71, "velocity": 117, "duration": 480}, {"note": 74, "velocity": 113, "duration": 239}, {"note": 74, "velocity": 110, "duration": 239}, {"note": 74, "velocity": 116, "duration": 1199}, {"note": 74, "velocity": 114, "duration": 240}, {"note": 73, "velocity": 113, "duration": 480}, {"note": 71, "velocity": 113, "duration": 240}, {"note": 73, "velocity": 119, "duration": 2160}, {"note": 0, "velocity": 0, "duration": 720}, {"note": 66, "velocity": 113, "duration": 480}, {"note": 69, "velocity": 116, "duration": 480}, {"note": 71, "velocity": 113, "duration": 479}, {"note": 71, "velocity": 113, "duration": 479}, {"note": 71, "velocity": 113, "duration": 240}, {"note": 74, "velocity": 116, "duration": 479}, {"note": 74, "velocity": 116, "duration": 1199}, {"note": 74, "velocity": 116, "duration": 480}, {"note": 71, "velocity": 110, "duration": 480}, {"note": 73, "velocity": 116, "duration": 480}, {"note": 74, "velocity": 113, "duration": 480}, {"note": 73, "velocity": 110, "duration": 240}, {"note": 69, "velocity": 108, "duration": 480}, {"note": 66, "velocity": 116, "duration": 1200}, {"note": 71, "velocity": 117, "duration": 480}, {"note": 69, "velocity": 114, "duration": 480}, {"note": 71, "velocity": 116, "duration": 261}, {"note": 69, "velocity": 114, "duration": 239}, {"note": 69, "velocity": 114, "duration": 240}, {"note": 62, "velocity": 113, "duration": 959}, {"note": 62, "velocity": 93, "duration": 240}, {"note": 67, "velocity": 113, "duration": 480}, {"note": 66, "velocity": 108, "duration": 240}, {"note": 64, "velocity": 114, "duration": 480}, {"note": 62, "velocity": 94, "duration": 240}, {"note": 64, "velocity": 104, "duration": 240}, {"note": 66, "velocity": 110, "duration": 3119}, {"note": 66, "velocity": 113, "duration": 480}, {"note": 69, "velocity": 116, "duration": 480}, {"note": 71, "velocity": 113, "duration": 479}, {"note": 71, "velocity": 113, "duration": 479}, {"note": 71, "velocity": 113, "duration": 240}, {"note": 74, "velocity": 116, "duration": 479}, {"note": 74, "velocity": 116, "duration": 1199}, {"note": 74, "velocity": 116, "duration": 480}, {"note": 71, "velocity": 110, "duration": 480}, {"note": 73, "velocity": 116, "duration": 480}, {"note": 74, "velocity": 113, "duration": 480}, {"note": 73, "velocity": 110, "duration": 240}, {"note": 69, "velocity": 108, "duration": 480}, {"note": 66, "velocity": 116, "duration": 1200}, {"note": 71, "velocity": 117, "duration": 480}, {"note": 69, "velocity": 114, "duration": 480}, {"note": 71, "velocity": 116, "duration": 261}, {"note": 69, "velocity": 114, "duration": 239}, {"note": 69, "velocity": 114, "duration": 240}, {"note": 62, "velocity": 113, "duration": 959}, {"note": 62, "velocity": 93, "duration": 240}, {"note": 67, "velocity": 113, "duration": 480}, {"note": 66, "velocity": 108, "duration": 240}, {"note": 64, "velocity": 114, "duration": 480}, {"note": 62, "velocity": 94, "duration": 240}, {"note": 64, "velocity": 104, "duration": 240}, {"note": 66, "velocity": 110, "duration": 1680}]]