[[{"note": 68, "velocity": 84, "duration": 240}, {"note": 71, "velocity": 89, "duration": 240}, {"note": 73, "velocity": 108, "duration": 239}, {"note": 73, "velocity": 104, "duration": 239}, {"note": 73, "velocity": 110, "duration": 240}, {"note": 76, "velocity": 108, "duration": 240}, {"note": 75, "velocity": 110, "duration": 240}, {"note": 71, "velocity": 110, "duration": 240}, {"note": 73, "velocity": 116, "duration": 960}, {"note": 68, "velocity": 110, "duration": 240}, {"note": 71, "velocity": 108, "duration": 240}, {"note": 73, "velocity": 113, "duration": 239}, {"note": 73, "velocity": 104, "duration": 239}, {"note": 73, "velocity": 108, "duration": 240}, {"note": 76, "velocity": 116, "duration": 240}, {"note": 75, "velocity": 113, "duration": 240}, {"note": 71, "velocity": 110, "duration": 240}, {"note": 68, "velocity": 100, "duration": 960}, {"note": 61, "velocity": 107, "duration": 240}, {"note": 64, "velocity": 94, "duration": 240}, {"note": 66, "velocity": 107, "duration": 239}, {"note": 66, "velocity": 93, "duration": 239}, {"note": 66, "velocity": 102, "duration": 240}, {"note": 68, "velocity": 108, "duration": 240}, {"note": 66, "velocity": 104, "duration": 240}, {"note": 64, "velocity": 102, "duration": 270}, {"note": 66, "velocity": 110, "duration": 959}, {"note": 66, "velocity": 107, "duration": 256}, {"note": 68, "velocity": 108, "duration": 240}, {"note": 71, "velocity": 108, "duration": 239}, {"note": 71, "velocity": 98, "duration": 239}, {"note": 71, "velocity": 107, "duration": 240}, {"note": 73, "velocity": 107, "duration": 240}, {"note": 75, "velocity": 110, "duration": 240}, {"note": 71, "velocity": 108, "duration": 240}, {"note": 68, "velocity": 107, "duration": 959}, {"note": 68, "velocity": 119, "duration": 240}, {"note": 71, "velocity": 110, "duration": 240}, {"note": 73, "velocity": 117, "duration": 239}, {"note": 73, "velocity": 116, "duration": 239}, {"note": 73, "velocity": 114, "duration": 240}, {"note": 76, "velocity": 113, "duration": 240}, {"note": 75, "velocity": 119, "duration": 240}, {"note": 71, "velocity": 113, "duration": 240}, {"note": 73, "velocity": 119, "duration": 960}, {"note": 68, "velocity": 116, "duration": 240}, {"note": 71, "velocity": 110, "duration": 240}, {"note": 73, "velocity": 116, "duration": 239}, {"note": 73, "velocity": 114, "duration": 239}, {"note": 73, "velocity": 116, "duration": 240}, {"note": 76, "velocity": 116, "duration": 240}, {"note": 75, "velocity": 117, "duration": 240}, {"note": 71, "velocity": 110, "duration": 240}, {"note": 68, "velocity": 114, "duration": 960}, {"note": 61, "velocity": 116, "duration": 240}, {"note": 64, "velocity": 104, "duration": 240}, {"note": 66, "velocity": 113, "duration": 239}, {"note": 66, "velocity": 102, "duration": 239}, {"note": 66, "velocity": 110, "duration": 246}, {"note": 68, "velocity": 114, "duration": 240}, {"note": 66, "velocity": 108, "duration": 240}, {"note": 64, "velocity": 108, "duration": 240}, {"note": 66, "velocity": 116, "duration": 959}, {"note": 66, "velocity": 113, "duration": 247}, {"note": 68, "velocity": 114, "duration": 240}, {"note": 71, "velocity": 114, "duration": 239}, {"note": 71, "velocity": 107, "duration": 239}, {"note": 71, "velocity": 108, "duration": 240}, {"note": 68, "velocity": 114, "duration": 240}, {"note": 66, "velocity": 108, "duration": 240}, {"note": 59, "velocity": 96, "duration": 240}, {"note": 61, "velocity": 113, "duration": 2880}, {"note": 73, "velocity": 119, "duration": 960}, {"note": 76, "velocity": 120, "duration": 480}, {"note": 78, "velocity": 120, "duration": 1439}, {"note": 78, "velocity": 120, "duration": 720}, {"note": 80, "velocity": 116, "duration": 240}, {"note": 73, "velocity": 116, "duration": 251}, {"note": 71, "velocity": 108, "duration": 240}, {"note": 68, "velocity": 114, "duration": 1440}, {"note": 64, "velocity": 116, "duration": 239}, {"note": 64, "velocity": 108, "duration": 239}, {"note": 64, "velocity": 110, "duration": 240}, {"note": 66, "velocity": 108, "duration": 240}, {"note": 68, "velocity": 116, "duration": 240}, {"note": 71, "velocity": 113, "duration": 240}, {"note": 66, "velocity": 116, "duration": 959}, {"note": 66, "velocity": 113, "duration": 240}, {"note": 68, "velocity": 108, "duration": 240}, {"note": 71, "velocity": 110, "duration": 239}, {"note": 71, "velocity": 102, "duration": 239}, {"note": 71, "velocity": 107, "duration": 240}, {"note": 73, "velocity": 110, "duration": 240}, {"note": 75, "velocity": 116, "duration": 240}, {"note": 71, "velocity": 108, "duration": 240}, {"note": 68, "velocity": 117, "duration": 1440}, {"note": 73, "velocity": 116, "duration": 960}, {"note": 76, "velocity": 119, "duration": 480}, {"note": 78, "velocity": 119, "duration": 1439}, {"note": 78, "velocity": 119, "duration": 720}, {"note": 80, "velocity": 110, "duration": 240}, {"note": 73, "velocity": 114, "duration": 240}, {"note": 71, "velocity": 110, "duration": 240}, {"note": 68, "velocity": 113, "duration": 1440}, {"note": 64, "velocity": 102, "duration": 239}, {"note": 64, "velocity": 96, "duration": 239}, {"note": 64, "velocity": 93, "duration": 240}, {"note": 66, "velocity": 114, "duration": 240}, {"note": 68, "velocity": 116, "duration": 240}, {"note": 71, "velocity": 113, "duration": 240}, {"note": 66, "velocity": 117, "duration": 959}, {"note": 66, "velocity": 114, "duration": 270}, {"note": 68, "velocity": 113, "duration": 240}, {"note": 78, "velocity": 116, "duration": 239}, {"note": 78, "velocity": 114, "duration": 239}, {"note": 78, "velocity": 114, "duration": 240}, {"note": 71, "velocity": 108, "duration": 239}, {"note": 71, "velocity": 104, "duration": 240}, {"note": 73, "velocity": 108, "duration": 239}, {"note": 73, "velocity": 114, "duration": 1440}, {"note": 0, "velocity": 0, "duration": 11040}, {"note": 68, "velocity": 84, "duration": 240}, {"note": 71, "velocity": 89, "duration": 240}, {"note": 73, "velocity": 108, "duration": 239}, {"note": 73, "velocity": 104, "duration": 239}, {"note": 73, "velocity": 110, "duration": 240}, {"note": 76, "velocity": 108, "duration": 240}, {"note": 75, "velocity": 110, "duration": 240}, {"note": 71, "velocity": 110, "duration": 240}, {"note": 73, "velocity": 116, "duration": 960}, {"note": 68, "velocity": 110, "duration": 240}, {"note": 71, "velocity": 108, "duration": 240}, {"note": 73, "velocity": 113, "duration": 239}, {"note": 73, "velocity": 104, "duration": 239}, {"note": 73, "velocity": 108, "duration": 240}, {"note": 76, "velocity": 116, "duration": 240}, {"note": 75, "velocity": 113, "duration": 240}, {"note": 71, "velocity": 110, "duration": 241}, {"note": 68, "velocity": 100, "duration": 960}, {"note": 61, "velocity": 107, "duration": 240}, {"note": 64, "velocity": 94, "duration": 240}, {"note": 66, "velocity": 107, "duration": 239}, {"note": 66, "velocity": 93, "duration": 239}, {"note": 66, "velocity": 102, "duration": 240}, {"note": 68, "velocity": 108, "duration": 240}, {"note": 66, "velocity": 104, "duration": 240}, {"note": 64, "velocity": 102, "duration": 270}, {"note": 66, "velocity": 110, "duration": 959}, {"note": 66, "velocity": 107, "duration": 256}, {"note": 68, "velocity": 108, "duration": 240}, {"note": 71, "velocity": 108, "duration": 239}, {"note": 71, "velocity": 98, "duration": 239}, {"note": 71, "velocity": 107, "duration": 240}, {"note": 73, "velocity": 107, "duration": 240}, {"note": 75, "velocity": 110, "duration": 240}, {"note": 71, "velocity": 108, "duration": 240}, {"note": 68, "velocity": 107, "duration": 959}, {"note": 68, "velocity": 119, "duration": 240}, {"note": 71, "velocity": 110, "duration": 240}, {"note": 73, "velocity": 117, "duration": 239}, {"note": 73, "velocity": 116, "duration": 239}, {"note": 73, "velocity": 114, "duration": 240}, {"note": 76, "velocity": 113, "duration": 240}, {"note": 75, "velocity": 119, "duration": 240}, {"note": 71, "velocity": 113, "duration": 240}, {"note": 73, "velocity": 119, "duration": 960}, {"note": 68, "velocity": 116, "duration": 240}, {"note": 71, "velocity": 110, "duration": 240}, {"note": 73, "velocity": 116, "duration": 239}, {"note": 73, "velocity": 114, "duration": 239}, {"note": 73, "velocity": 116, "duration": 240}, {"note": 76, "velocity": 116, "duration": 240}, {"note": 75, "velocity": 117, "duration": 240}, {"note": 71, "velocity": 110, "duration": 240}, {"note": 68, "velocity": 114, "duration": 960}, {"note": 61, "velocity": 116, "duration": 240}, {"note": 64, "velocity": 104, "duration": 240}, {"note": 66, "velocity": 113, "duration": 239}, {"note": 66, "velocity": 102, "duration": 239}, {"note": 66, "velocity": 110, "duration": 247}, {"note": 68, "velocity": 114, "duration": 240}, {"note": 66, "velocity": 108, "duration": 240}, {"note": 64, "velocity": 108, "duration": 240}, {"note": 66, "velocity": 116, "duration": 959}, {"note": 66, "velocity": 113, "duration": 247}, {"note": 68, "velocity": 114, "duration": 240}, {"note": 71, "velocity": 114, "duration": 239}, {"note": 71, "velocity": 107, "duration": 239}, {"note": 71, "velocity": 108, "duration": 240}, {"note": 68, "velocity": 114, "duration": 240}, {"note": 66, "velocity": 108, "duration": 240}, {"note": 59, "velocity": 96, "duration": 240}, {"note": 61, "velocity": 113, "duration": 2880}, {"note": 73, "velocity": 119, "duration": 960}, {"note": 76, "velocity": 120, "duration": 480}, {"note": 78, "velocity": 120, "duration": 1439}, {"note": 78, "velocity": 120, "duration": 720}, {"note": 80, "velocity": 116, "duration": 240}, {"note": 73, "velocity": 116, "duration": 251}, {"note": 71, "velocity": 108, "duration": 240}, {"note": 68, "velocity": 114, "duration": 1440}, {"note": 64, "velocity": 116, "duration": 239}, {"note": 64, "velocity": 108, "duration": 239}, {"note": 64, "velocity": 110, "duration": 240}, {"note": 66, "velocity": 108, "duration": 240}, {"note": 68, "velocity": 116, "duration": 240}, {"note": 71, "velocity": 113, "duration": 240}, {"note": 66, "velocity": 116, "duration": 959}, {"note": 66, "velocity": 113, "duration": 240}, {"note": 68, "velocity": 108, "duration": 240}, {"note": 71, "velocity": 110, "duration": 239}, {"note": 71, "velocity": 102, "duration": 239}, {"note": 71, "velocity": 107, "duration": 240}, {"note": 73, "velocity": 110, "duration": 240}, {"note": 75, "velocity": 116, "duration": 240}, {"note": 71, "velocity": 108, "duration": 240}, {"note": 68, "velocity": 117, "duration": 1440}, {"note": 73, "velocity": 116, "duration": 960}, {"note": 76, "velocity": 119, "duration": 480}, {"note": 78, "velocity": 119, "duration": 1439}, {"note": 78, "velocity": 119, "duration": 720}, {"note": 80, "velocity": 110, "duration": 240}, {"note": 73, "velocity": 114, "duration": 240}, {"note": 71, "velocity": 110, "duration": 240}, {"note": 68, "velocity": 113, "duration": 1440}, {"note": 64, "velocity": 102, "duration": 239}, {"note": 64, "velocity": 96, "duration": 239}, {"note": 64, "velocity": 93, "duration": 240}, {"note": 66, "velocity": 114, "duration": 240}, {"note": 68, "velocity": 116, "duration": 240}, {"note": 71, "velocity": 113, "duration": 240}, {"note": 66, "velocity": 117, "duration": 959}, {"note": 66, "velocity": 114, "duration": 270}, {"note": 68, "velocity": 113, "duration": 240}, {"note": 78, "velocity": 116, "duration": 239}, {"note": 78, "velocity": 114, "duration": 239}, {"note": 78, "velocity": 114, "duration": 240}, {"note": 71, "velocity": 108, "duration": 239}, {"note": 71, "velocity": 104, "duration": 240}, {"note": 73, "velocity": 108, "duration": 239}, {"note": 73, "velocity": 114, "duration": 1440}, {"note": 0, "velocity": 0, "duration": 2880}, {"note": 68, "velocity": 100, "duration": 960}, {"note": 61, "velocity": 107, "duration": 240}, {"note": 64, "velocity": 94, "duration": 240}, {"note": 66, "velocity": 107, "duration": 239}, {"note": 66, "velocity": 93, "duration": 239}, {"note": 66, "velocity": 102, "duration": 240}, {"note": 68, "velocity": 108, "duration": 240}, {"note": 66, "velocity": 104, "duration": 240}, {"note": 64, "velocity": 102, "duration": 270}, {"note": 66, "velocity": 110, "duration": 959}, {"note": 66, "velocity": 107, "duration": 256}, {"note": 68, "velocity": 108, "duration": 240}, {"note": 71, "velocity": 108, "duration": 239}, {"note": 71, "velocity": 98, "duration": 239}, {"note": 71, "velocity": 107, "duration": 240}, {"note": 73, "velocity": 107, "duration": 240}, {"note": 75, "velocity": 110, "duration": 240}, {"note": 71, "velocity": 108, "duration": 240}, {"note": 68, "velocity": 107, "duration": 959}, {"note": 68, "velocity": 119, "duration": 240}, {"note": 71, "velocity": 110, "duration": 240}, {"note": 73, "velocity": 117, "duration": 239}, {"note": 73, "velocity": 116, "duration": 239}, {"note": 73, "velocity": 114, "duration": 240}, {"note": 76, "velocity": 113, "duration": 240}, {"note": 75, "velocity": 119, "duration": 240}, {"note": 71, "velocity": 113, "duration": 240}, {"note": 73, "velocity": 119, "duration": 960}, {"note": 68, "velocity": 116, "duration": 240}, {"note": 71, "velocity": 110, "duration": 240}, {"note": 73, "velocity": 116, "duration": 239}, {"note": 73, "velocity": 114, "duration": 239}, {"note": 73, "velocity": 116, "duration": 240}, {"note": 76, "velocity": 116, "duration": 240}, {"note": 75, "velocity": 117, "duration": 240}, {"note": 71, "velocity": 110, "duration": 240}, {"note": 68, "velocity": 114, "duration": 960}, {"note": 61, "velocity": 116, "duration": 240}, {"note": 64, "velocity": 104, "duration": 240}, {"note": 66, "velocity": 113, "duration": 239}, {"note": 66, "velocity": 102, "duration": 239}, {"note": 66, "velocity": 110, "duration": 247}, {"note": 68, "velocity": 114, "duration": 240}, {"note": 66, "velocity": 108, "duration": 240}, {"note": 64, "velocity": 108, "duration": 240}, {"note": 66, "velocity": 116, "duration": 959}, {"note": 66, "velocity": 113, "duration": 247}, {"note": 68, "velocity": 114, "duration": 240}, {"note": 71, "velocity": 114, "duration": 239}, {"note": 71, "velocity": 107, "duration": 239}, {"note": 71, "velocity": 108, "duration": 240}, {"note": 68, "velocity": 114, "duration": 240}, {"note": 66, "velocity": 108, "duration": 240}, {"note": 59, "velocity": 96, "duration": 240}, {"note": 61, "velocity": 113, "duration": 2880}, {"note": 73, "velocity": 119, "duration": 960}, {"note": 76, "velocity": 120, "duration": 480}, {"note": 78, "velocity": 120, "duration": 1439}, {"note": 78, "velocity": 120, "duration": 720}, {"note": 80, "velocity": 116, "duration": 240}, {"note": 73, "velocity": 116, "duration": 251}, {"note": 71, "velocity": 108, "duration": 240}, {"note": 68, "velocity": 114, "duration": 1440}, {"note": 64, "velocity": 116, "duration": 239}, {"note": 64, "velocity": 108, "duration": 239}, {"note": 64, "velocity": 110, "duration": 240}, {"note": 66, "velocity": 108, "duration": 240}, {"note": 68, "velocity": 116, "duration": 240}, {"note": 71, "velocity": 113, "duration": 240}, {"note": 66, "velocity": 116, "duration": 959}, {"note": 66, "velocity": 113, "duration": 240}, {"note": 68, "velocity": 108, "duration": 240}, {"note": 71, "velocity": 110, "duration": 239}, {"note": 71, "velocity": 102, "duration": 239}, {"note": 71, "velocity": 107, "duration": 240}, {"note": 73, "velocity": 110, "duration": 240}, {"note": 75, "velocity": 116, "duration": 240}, {"note": 71, "velocity": 108, "duration": 240}, {"note": 68, "velocity": 117, "duration": 1440}, {"note": 73, "velocity": 116, "duration": 960}, {"note": 76, "velocity": 119, "duration": 480}, {"note": 78, "velocity": 119, "duration": 1439}, {"note": 78, "velocity": 119, "duration": 720}, {"note": 80, "velocity": 110, "duration": 240}, {"note": 73, "velocity": 114, "duration": 240}, {"note": 71, "velocity": 110, "duration": 240}, {"note": 68, "velocity": 113, "duration": 1440}, {"note": 64, "velocity": 102, "duration": 239}, {"note": 64, "velocity": 96, "duration": 239}, {"note": 64, "velocity": 93, "duration": 240}, {"note": 66, "velocity": 114, "duration": 240}, {"note": 68, "velocity": 116, "duration": 240}, {"note": 71, "velocity": 113, "duration": 240}, {"note": 66, "velocity": 117, "duration": 959}, {"note": 66, "velocity": 114, "duration": 270}, {"note": 68, "velocity": 113, "duration": 240}, {"note": 78, "velocity": 116, "duration": 239}, {"note": 78, "velocity": 114, "duration": 239}, {"note": 78, "velocity": 114, "duration": 240}, {"note": 71, "velocity": 108, "duration": 239}, {"note": 71, "velocity": 104, "duration": 240}, {"note": 73, "velocity": 108, "duration": 239}, {"note": 73, "velocity": 114, "duration": 1440}, {"note": 0, "velocity": 0, "duration": 960}, {"note": 68, "velocity": 84, "duration": 240}, {"note": 71, "velocity": 89, "duration": 240}, {"note": 73, "velocity": 108, "duration": 239}, {"note": 73, "velocity": 104, "duration": 239}, {"note": 73, "velocity": 110, "duration": 240}, {"note": 76, "velocity": 108, "duration": 240}, {"note": 75, "velocity": 110, "duration": 240}, {"note": 71, "velocity": 110, "duration": 240}, {"note": 73, "velocity": 116, "duration": 960}, {"note": 68, "velocity": 110, "duration": 240}, {"note": 71, "velocity": 108, "duration": 240}, {"note": 73, "velocity": 113, "duration": 239}, {"note": 73, "velocity": 104, "duration": 239}, {"note": 73, "velocity": 108, "duration": 240}, {"note": 76, "velocity": 116, "duration": 240}, {"note": 75, "velocity": 113, "duration": 240}, {"note": 71, "velocity": 110, "duration": 240}, {"note": 68, "velocity": 100, "duration": 960}, {"note": 61, "velocity": 107, "duration": 240}, {"note": 64, "velocity": 94, "duration": 240}, {"note": 66, "velocity": 107, "duration": 239}, {"note": 66, "velocity": 93, "duration": 239}, {"note": 66, "velocity": 102, "duration": 240}, {"note": 68, "velocity": 108, "duration": 240}, {"note": 66, "velocity": 104, "duration": 240}, {"note": 64, "velocity": 102, "duration": 270}, {"note": 66, "velocity": 110, "duration": 959}, {"note": 66, "velocity": 107, "duration": 256}, {"note": 68, "velocity": 108, "duration": 240}, {"note": 71, "velocity": 108, "duration": 239}, {"note": 71, "velocity": 98, "duration": 479}, {"note": 71, "velocity": 107, "duration": 240}, {"note": 68, "velocity": 108, "duration": 480}, {"note": 66, "velocity": 107, "duration": 960}, {"note": 59, "velocity": 107, "duration": 1680}, {"note": 61, "velocity": 114, "duration": 1315}]]