[[{"note": 73, "velocity": 104, "duration": 72}, {"note": 0, "velocity": 0, "duration": 168}, {"note": 73, "velocity": 108, "duration": 92}, {"note": 75, "velocity": 114, "duration": 102}, {"note": 77, "velocity": 117, "duration": 159}, {"note": 0, "velocity": 0, "duration": 81}, {"note": 77, "velocity": 114, "duration": 95}, {"note": 75, "velocity": 113, "duration": 113}, {"note": 73, "velocity": 114, "duration": 223}, {"note": 70, "velocity": 117, "duration": 235}, {"note": 68, "velocity": 116, "duration": 195}, {"note": 0, "velocity": 0, "duration": 285}, {"note": 73, "velocity": 113, "duration": 265}, {"note": 0, "velocity": 0, "duration": 95}, {"note": 75, "velocity": 110, "duration": 76}, {"note": 77, "velocity": 116, "duration": 199}, {"note": 75, "velocity": 113, "duration": 104}, {"note": 73, "velocity": 114, "duration": 88}, {"note": 75, "velocity": 120, "duration": 200}, {"note": 0, "velocity": 0, "duration": 760}, {"note": 73, "velocity": 110, "duration": 141}, {"note": 0, "velocity": 0, "duration": 99}, {"note": 73, "velocity": 110, "duration": 99}, {"note": 75, "velocity": 114, "duration": 82}, {"note": 77, "velocity": 114, "duration": 140}, {"note": 0, "velocity": 0, "duration": 100}, {"note": 77, "velocity": 116, "duration": 94}, {"note": 75, "velocity": 113, "duration": 98}, {"note": 77, "velocity": 114, "duration": 154}, {"note": 0, "velocity": 0, "duration": 86}, {"note": 75, "velocity": 114, "duration": 100}, {"note": 73, "velocity": 102, "duration": 100}, {"note": 70, "velocity": 116, "duration": 173}, {"note": 0, "velocity": 0, "duration": 187}, {"note": 70, "velocity": 114, "duration": 77}, {"note": 75, "velocity": 119, "duration": 136}, {"note": 0, "velocity": 0, "duration": 224}, {"note": 73, "velocity": 114, "duration": 115}, {"note": 70, "velocity": 117, "duration": 153}, {"note": 73, "velocity": 86, "duration": 117}, {"note": 70, "velocity": 113, "duration": 226}, {"note": 68, "velocity": 117, "duration": 231}, {"note": 0, "velocity": 0, "duration": 729}, {"note": 68, "velocity": 116, "duration": 151}, {"note": 0, "velocity": 0, "duration": 89}, {"note": 68, "velocity": 110, "duration": 123}, {"note": 70, "velocity": 107, "duration": 76}, {"note": 73, "velocity": 117, "duration": 146}, {"note": 0, "velocity": 0, "duration": 94}, {"note": 73, "velocity": 113, "duration": 166}, {"note": 0, "velocity": 0, "duration": 74}, {"note": 75, "velocity": 116, "duration": 160}, {"note": 0, "velocity": 0, "duration": 80}, {"note": 75, "velocity": 113, "duration": 135}, {"note": 73, "velocity": 100, "duration": 116}, {"note": 70, "velocity": 116, "duration": 179}, {"note": 0, "velocity": 0, "duration": 301}, {"note": 73, "velocity": 116, "duration": 329}, {"note": 77, "velocity": 117, "duration": 100}, {"note": 75, "velocity": 117, "duration": 139}, {"note": 0, "velocity": 0, "duration": 221}, {"note": 73, "velocity": 113, "duration": 56}, {"note": 0, "velocity": 0, "duration": 64}, {"note": 75, "velocity": 117, "duration": 180}, {"note": 70, "velocity": 98, "duration": 115}, {"note": 68, "velocity": 102, "duration": 148}, {"note": 70, "velocity": 119, "duration": 137}, {"note": 0, "velocity": 0, "duration": 343}, {"note": 68, "velocity": 117, "duration": 235}, {"note": 0, "velocity": 0, "duration": 125}, {"note": 70, "velocity": 113, "duration": 64}, {"note": 73, "velocity": 119, "duration": 128}, {"note": 0, "velocity": 0, "duration": 112}, {"note": 75, "velocity": 114, "duration": 112}, {"note": 77, "velocity": 114, "duration": 70}, {"note": 80, "velocity": 117, "duration": 116}, {"note": 0, "velocity": 0, "duration": 124}, {"note": 77, "velocity": 113, "duration": 163}, {"note": 0, "velocity": 0, "duration": 77}, {"note": 73, "velocity": 114, "duration": 102}, {"note": 75, "velocity": 92, "duration": 60}, {"note": 73, "velocity": 104, "duration": 48}, {"note": 70, "velocity": 117, "duration": 145}, {"note": 0, "velocity": 0, "duration": 95}, {"note": 70, "velocity": 107, "duration": 276}, {"note": 0, "velocity": 0, "duration": 84}, {"note": 75, "velocity": 108, "duration": 56}, {"note": 0, "velocity": 0, "duration": 64}, {"note": 75, "velocity": 117, "duration": 100}, {"note": 0, "velocity": 0, "duration": 140}, {"note": 73, "velocity": 116, "duration": 107}, {"note": 70, "velocity": 113, "duration": 118}, {"note": 68, "velocity": 117, "duration": 215}, {"note": 0, "velocity": 0, "duration": 745}, {"note": 80, "velocity": 120, "duration": 57}, {"note": 0, "velocity": 0, "duration": 63}, {"note": 80, "velocity": 120, "duration": 123}, {"note": 0, "velocity": 0, "duration": 117}, {"note": 80, "velocity": 120, "duration": 43}, {"note": 0, "velocity": 0, "duration": 77}, {"note": 80, "velocity": 120, "duration": 120}, {"note": 0, "velocity": 0, "duration": 120}, {"note": 77, "velocity": 119, "duration": 84}, {"note": 80, "velocity": 117, "duration": 62}, {"note": 82, "velocity": 120, "duration": 99}, {"note": 0, "velocity": 0, "duration": 261}, {"note": 82, "velocity": 116, "duration": 43}, {"note": 0, "velocity": 0, "duration": 77}, {"note": 82, "velocity": 117, "duration": 108}, {"note": 80, "velocity": 116, "duration": 118}, {"note": 77, "velocity": 117, "duration": 134}, {"note": 0, "velocity": 0, "duration": 106}, {"note": 82, "velocity": 119, "duration": 62}, {"note": 82, "velocity": 117, "duration": 57}, {"note": 0, "velocity": 0, "duration": 63}, {"note": 82, "velocity": 116, "duration": 52}, {"note": 0, "velocity": 0, "duration": 68}, {"note": 82, "velocity": 116, "duration": 50}, {"note": 0, "velocity": 0, "duration": 70}, {"note": 82, "velocity": 120, "duration": 108}, {"note": 0, "velocity": 0, "duration": 132}, {"note": 80, "velocity": 114, "duration": 102}, {"note": 77, "velocity": 98, "duration": 62}, {"note": 77, "velocity": 107, "duration": 217}, {"note": 75, "velocity": 108, "duration": 209}, {"note": 0, "velocity": 0, "duration": 511}, {"note": 82, "velocity": 119, "duration": 154}, {"note": 0, "velocity": 0, "duration": 86}, {"note": 80, "velocity": 116, "duration": 79}, {"note": 82, "velocity": 116, "duration": 94}, {"note": 80, "velocity": 120, "duration": 136}, {"note": 0, "velocity": 0, "duration": 104}, {"note": 77, "velocity": 116, "duration": 238}, {"note": 75, "velocity": 119, "duration": 151}, {"note": 0, "velocity": 0, "duration": 89}, {"note": 75, "velocity": 113, "duration": 129}, {"note": 73, "velocity": 104, "duration": 117}, {"note": 70, "velocity": 116, "duration": 120}, {"note": 73, "velocity": 114, "duration": 113}, {"note": 70, "velocity": 116, "duration": 125}, {"note": 0, "velocity": 0, "duration": 115}, {"note": 75, "velocity": 117, "duration": 50}, {"note": 0, "velocity": 0, "duration": 70}, {"note": 75, "velocity": 110, "duration": 49}, {"note": 0, "velocity": 0, "duration": 71}, {"note": 75, "velocity": 113, "duration": 69}, {"note": 77, "velocity": 116, "duration": 103}, {"note": 75, "velocity": 117, "duration": 98}, {"note": 0, "velocity": 0, "duration": 142}, {"note": 73, "velocity": 116, "duration": 110}, {"note": 70, "velocity": 108, "duration": 126}, {"note": 68, "velocity": 110, "duration": 216}, {"note": 0, "velocity": 0, "duration": 8454}, {"note": 73, "velocity": 104, "duration": 72}, {"note": 0, "velocity": 0, "duration": 168}, {"note": 73, "velocity": 108, "duration": 92}, {"note": 75, "velocity": 114, "duration": 102}, {"note": 77, "velocity": 117, "duration": 159}, {"note": 0, "velocity": 0, "duration": 81}, {"note": 77, "velocity": 114, "duration": 95}, {"note": 75, "velocity": 113, "duration": 113}, {"note": 73, "velocity": 114, "duration": 223}, {"note": 70, "velocity": 117, "duration": 235}, {"note": 68, "velocity": 116, "duration": 195}, {"note": 0, "velocity": 0, "duration": 285}, {"note": 73, "velocity": 113, "duration": 265}, {"note": 0, "velocity": 0, "duration": 95}, {"note": 75, "velocity": 110, "duration": 76}, {"note": 77, "velocity": 116, "duration": 199}, {"note": 75, "velocity": 113, "duration": 104}, {"note": 73, "velocity": 114, "duration": 88}, {"note": 75, "velocity": 120, "duration": 200}, {"note": 0, "velocity": 0, "duration": 760}, {"note": 73, "velocity": 110, "duration": 141}, {"note": 0, "velocity": 0, "duration": 99}, {"note": 73, "velocity": 110, "duration": 99}, {"note": 75, "velocity": 114, "duration": 82}, {"note": 77, "velocity": 114, "duration": 140}, {"note": 0, "velocity": 0, "duration": 100}, {"note": 77, "velocity": 116, "duration": 94}, {"note": 75, "velocity": 113, "duration": 98}, {"note": 77, "velocity": 114, "duration": 154}, {"note": 0, "velocity": 0, "duration": 86}, {"note": 75, "velocity": 114, "duration": 100}, {"note": 73, "velocity": 102, "duration": 100}, {"note": 70, "velocity": 116, "duration": 173}, {"note": 0, "velocity": 0, "duration": 187}, {"note": 70, "velocity": 114, "duration": 77}, {"note": 75, "velocity": 119, "duration": 136}, {"note": 0, "velocity": 0, "duration": 224}, {"note": 73, "velocity": 114, "duration": 115}, {"note": 70, "velocity": 117, "duration": 153}, {"note": 73, "velocity": 86, "duration": 117}, {"note": 70, "velocity": 113, "duration": 226}, {"note": 68, "velocity": 117, "duration": 231}, {"note": 0, "velocity": 0, "duration": 729}, {"note": 68, "velocity": 116, "duration": 151}, {"note": 0, "velocity": 0, "duration": 89}, {"note": 68, "velocity": 110, "duration": 123}, {"note": 70, "velocity": 107, "duration": 76}, {"note": 73, "velocity": 117, "duration": 146}, {"note": 0, "velocity": 0, "duration": 94}, {"note": 73, "velocity": 113, "duration": 166}, {"note": 0, "velocity": 0, "duration": 74}, {"note": 75, "velocity": 116, "duration": 160}, {"note": 0, "velocity": 0, "duration": 80}, {"note": 75, "velocity": 113, "duration": 135}, {"note": 73, "velocity": 100, "duration": 116}, {"note": 70, "velocity": 116, "duration": 179}, {"note": 0, "velocity": 0, "duration": 301}, {"note": 73, "velocity": 116, "duration": 329}, {"note": 77, "velocity": 117, "duration": 100}, {"note": 75, "velocity": 117, "duration": 139}, {"note": 0, "velocity": 0, "duration": 221}, {"note": 73, "velocity": 113, "duration": 56}, {"note": 0, "velocity": 0, "duration": 64}, {"note": 75, "velocity": 117, "duration": 180}, {"note": 70, "velocity": 98, "duration": 115}, {"note": 68, "velocity": 102, "duration": 148}, {"note": 70, "velocity": 119, "duration": 137}, {"note": 0, "velocity": 0, "duration": 343}, {"note": 68, "velocity": 117, "duration": 235}, {"note": 0, "velocity": 0, "duration": 125}, {"note": 70, "velocity": 113, "duration": 64}, {"note": 73, "velocity": 119, "duration": 128}, {"note": 0, "velocity": 0, "duration": 112}, {"note": 75, "velocity": 114, "duration": 112}, {"note": 77, "velocity": 114, "duration": 70}, {"note": 80, "velocity": 117, "duration": 116}, {"note": 0, "velocity": 0, "duration": 124}, {"note": 77, "velocity": 113, "duration": 163}, {"note": 0, "velocity": 0, "duration": 77}, {"note": 73, "velocity": 114, "duration": 102}, {"note": 75, "velocity": 92, "duration": 60}, {"note": 73, "velocity": 104, "duration": 48}, {"note": 70, "velocity": 117, "duration": 145}, {"note": 0, "velocity": 0, "duration": 95}, {"note": 70, "velocity": 107, "duration": 276}, {"note": 0, "velocity": 0, "duration": 84}, {"note": 75, "velocity": 108, "duration": 56}, {"note": 0, "velocity": 0, "duration": 64}, {"note": 75, "velocity": 117, "duration": 100}, {"note": 0, "velocity": 0, "duration": 140}, {"note": 73, "velocity": 116, "duration": 107}, {"note": 70, "velocity": 113, "duration": 118}, {"note": 68, "velocity": 117, "duration": 215}, {"note": 0, "velocity": 0, "duration": 745}, {"note": 80, "velocity": 120, "duration": 57}, {"note": 0, "velocity": 0, "duration": 63}, {"note": 80, "velocity": 120, "duration": 123}, {"note": 0, "velocity": 0, "duration": 117}, {"note": 80, "velocity": 120, "duration": 43}, {"note": 0, "velocity": 0, "duration": 77}, {"note": 80, "velocity": 120, "duration": 120}, {"note": 0, "velocity": 0, "duration": 120}, {"note": 77, "velocity": 119, "duration": 84}, {"note": 80, "velocity": 117, "duration": 62}, {"note": 82, "velocity": 120, "duration": 99}, {"note": 0, "velocity": 0, "duration": 261}, {"note": 82, "velocity": 116, "duration": 43}, {"note": 0, "velocity": 0, "duration": 77}, {"note": 82, "velocity": 117, "duration": 108}, {"note": 80, "velocity": 116, "duration": 118}, {"note": 77, "velocity": 117, "duration": 134}, {"note": 0, "velocity": 0, "duration": 106}, {"note": 82, "velocity": 119, "duration": 62}, {"note": 82, "velocity": 117, "duration": 57}, {"note": 0, "velocity": 0, "duration": 63}, {"note": 82, "velocity": 116, "duration": 52}, {"note": 0, "velocity": 0, "duration": 68}, {"note": 82, "velocity": 116, "duration": 50}, {"note": 0, "velocity": 0, "duration": 70}, {"note": 82, "velocity": 120, "duration": 108}, {"note": 0, "velocity": 0, "duration": 132}, {"note": 80, "velocity": 114, "duration": 102}, {"note": 77, "velocity": 98, "duration": 62}, {"note": 77, "velocity": 107, "duration": 217}, {"note": 75, "velocity": 108, "duration": 209}, {"note": 0, "velocity": 0, "duration": 511}, {"note": 82, "velocity": 119, "duration": 154}, {"note": 0, "velocity": 0, "duration": 86}, {"note": 80, "velocity": 116, "duration": 79}, {"note": 82, "velocity": 116, "duration": 94}, {"note": 80, "velocity": 120, "duration": 136}, {"note": 0, "velocity": 0, "duration": 104}, {"note": 77, "velocity": 116, "duration": 238}, {"note": 75, "velocity": 119, "duration": 151}, {"note": 0, "velocity": 0, "duration": 89}, {"note": 75, "velocity": 113, "duration": 129}, {"note": 73, "velocity": 104, "duration": 117}, {"note": 70, "velocity": 116, "duration": 120}, {"note": 73, "velocity": 114, "duration": 113}, {"note": 70, "velocity": 116, "duration": 125}, {"note": 0, "velocity": 0, "duration": 115}, {"note": 75, "velocity": 117, "duration": 50}, {"note": 0, "velocity": 0, "duration": 70}, {"note": 75, "velocity": 110, "duration": 49}, {"note": 0, "velocity": 0, "duration": 71}, {"note": 75, "velocity": 113, "duration": 69}, {"note": 77, "velocity": 116, "duration": 103}, {"note": 75, "velocity": 117, "duration": 98}, {"note": 0, "velocity": 0, "duration": 142}, {"note": 73, "velocity": 116, "duration": 110}, {"note": 70, "velocity": 108, "duration": 126}, {"note": 68, "velocity": 110, "duration": 216}, {"note": 0, "velocity": 0, "duration": 744}, {"note": 82, "velocity": 117, "duration": 165}, {"note": 0, "velocity": 0, "duration": 75}, {"note": 80, "velocity": 117, "duration": 76}, {"note": 82, "velocity": 116, "duration": 75}, {"note": 80, "velocity": 119, "duration": 129}, {"note": 0, "velocity": 0, "duration": 111}, {"note": 77, "velocity": 116, "duration": 173}, {"note": 0, "velocity": 0, "duration": 67}, {"note": 75, "velocity": 119, "duration": 121}, {"note": 0, "velocity": 0, "duration": 119}, {"note": 75, "velocity": 116, "duration": 105}, {"note": 73, "velocity": 110, "duration": 76}, {"note": 73, "velocity": 119, "duration": 148}, {"note": 0, "velocity": 0, "duration": 92}, {"note": 70, "velocity": 119, "duration": 137}, {"note": 0, "velocity": 0, "duration": 103}, {"note": 75, "velocity": 117, "duration": 141}, {"note": 0, "velocity": 0, "duration": 99}, {"note": 75, "velocity": 119, "duration": 47}, {"note": 0, "velocity": 0, "duration": 73}, {"note": 75, "velocity": 117, "duration": 49}, {"note": 0, "velocity": 0, "duration": 71}, {"note": 75, "velocity": 120, "duration": 100}, {"note": 0, "velocity": 0, "duration": 140}, {"note": 73, "velocity": 119, "duration": 205}, {"note": 70, "velocity": 117, "duration": 434}, {"note": 0, "velocity": 0, "duration": 526}, {"note": 80, "velocity": 123, "duration": 436}]]