[[{"note": 77, "velocity": 74, "duration": 136}, {"note": 0, "velocity": 0, "duration": 104}, {"note": 77, "velocity": 78, "duration": 134}, {"note": 0, "velocity": 0, "duration": 106}, {"note": 77, "velocity": 77, "duration": 139}, {"note": 0, "velocity": 0, "duration": 101}, {"note": 77, "velocity": 79, "duration": 154}, {"note": 0, "velocity": 0, "duration": 86}, {"note": 77, "velocity": 79, "duration": 168}, {"note": 0, "velocity": 0, "duration": 72}, {"note": 72, "velocity": 78, "duration": 159}, {"note": 0, "velocity": 0, "duration": 81}, {"note": 72, "velocity": 78, "duration": 169}, {"note": 0, "velocity": 0, "duration": 71}, {"note": 77, "velocity": 79, "duration": 150}, {"note": 0, "velocity": 0, "duration": 90}, {"note": 75, "velocity": 82, "duration": 134}, {"note": 0, "velocity": 0, "duration": 106}, {"note": 75, "velocity": 79, "duration": 120}, {"note": 0, "velocity": 0, "duration": 120}, {"note": 75, "velocity": 78, "duration": 140}, {"note": 0, "velocity": 0, "duration": 100}, {"note": 75, "velocity": 80, "duration": 145}, {"note": 0, "velocity": 0, "duration": 95}, {"note": 75, "velocity": 80, "duration": 134}, {"note": 0, "velocity": 0, "duration": 101}, {"note": 75, "velocity": 74, "duration": 130}, {"note": 0, "velocity": 0, "duration": 115}, {"note": 72, "velocity": 73, "duration": 167}, {"note": 0, "velocity": 0, "duration": 73}, {"note": 68, "velocity": 71, "duration": 203}, {"note": 70, "velocity": 76, "duration": 240}, {"note": 70, "velocity": 70, "duration": 26}, {"note": 0, "velocity": 0, "duration": 223}, {"note": 70, "velocity": 78, "duration": 149}, {"note": 0, "velocity": 0, "duration": 89}, {"note": 70, "velocity": 76, "duration": 154}, {"note": 0, "velocity": 0, "duration": 100}, {"note": 70, "velocity": 80, "duration": 142}, {"note": 0, "velocity": 0, "duration": 104}, {"note": 70, "velocity": 80, "duration": 399}, {"note": 0, "velocity": 0, "duration": 88}, {"note": 68, "velocity": 74, "duration": 156}, {"note": 70, "velocity": 79, "duration": 160}, {"note": 0, "velocity": 0, "duration": 69}, {"note": 72, "velocity": 78, "duration": 162}, {"note": 0, "velocity": 0, "duration": 106}, {"note": 75, "velocity": 78, "duration": 480}, {"note": 72, "velocity": 78, "duration": 789}, {"note": 0, "velocity": 0, "duration": 171}, {"note": 77, "velocity": 73, "duration": 135}, {"note": 0, "velocity": 0, "duration": 105}, {"note": 77, "velocity": 78, "duration": 144}, {"note": 0, "velocity": 0, "duration": 96}, {"note": 77, "velocity": 78, "duration": 146}, {"note": 0, "velocity": 0, "duration": 94}, {"note": 77, "velocity": 78, "duration": 149}, {"note": 0, "velocity": 0, "duration": 91}, {"note": 77, "velocity": 79, "duration": 200}, {"note": 72, "velocity": 80, "duration": 159}, {"note": 0, "velocity": 0, "duration": 81}, {"note": 72, "velocity": 78, "duration": 193}, {"note": 77, "velocity": 78, "duration": 184}, {"note": 75, "velocity": 79, "duration": 168}, {"note": 0, "velocity": 0, "duration": 72}, {"note": 77, "velocity": 78, "duration": 393}, {"note": 0, "velocity": 0, "duration": 87}, {"note": 75, "velocity": 82, "duration": 240}, {"note": 75, "velocity": 82, "duration": 240}, {"note": 72, "velocity": 79, "duration": 253}, {"note": 75, "velocity": 79, "duration": 306}, {"note": 0, "velocity": 0, "duration": 174}, {"note": 70, "velocity": 75, "duration": 146}, {"note": 0, "velocity": 0, "duration": 94}, {"note": 70, "velocity": 73, "duration": 146}, {"note": 0, "velocity": 0, "duration": 94}, {"note": 70, "velocity": 78, "duration": 135}, {"note": 0, "velocity": 0, "duration": 105}, {"note": 70, "velocity": 76, "duration": 164}, {"note": 0, "velocity": 0, "duration": 76}, {"note": 70, "velocity": 79, "duration": 376}, {"note": 0, "velocity": 0, "duration": 104}, {"note": 70, "velocity": 78, "duration": 184}, {"note": 68, "velocity": 76, "duration": 164}, {"note": 0, "velocity": 0, "duration": 76}, {"note": 70, "velocity": 78, "duration": 469}, {"note": 72, "velocity": 73, "duration": 409}, {"note": 0, "velocity": 0, "duration": 71}, {"note": 72, "velocity": 77, "duration": 851}, {"note": 0, "velocity": 0, "duration": 109}, {"note": 65, "velocity": 81, "duration": 220}, {"note": 72, "velocity": 79, "duration": 149}, {"note": 0, "velocity": 0, "duration": 91}, {"note": 72, "velocity": 78, "duration": 134}, {"note": 0, "velocity": 0, "duration": 106}, {"note": 72, "velocity": 79, "duration": 149}, {"note": 0, "velocity": 0, "duration": 91}, {"note": 72, "velocity": 79, "duration": 169}, {"note": 0, "velocity": 0, "duration": 71}, {"note": 70, "velocity": 77, "duration": 203}, {"note": 65, "velocity": 80, "duration": 189}, {"note": 72, "velocity": 72, "duration": 206}, {"note": 70, "velocity": 74, "duration": 408}, {"note": 0, "velocity": 0, "duration": 72}, {"note": 72, "velocity": 76, "duration": 471}, {"note": 70, "velocity": 73, "duration": 499}, {"note": 0, "velocity": 0, "duration": 221}, {"note": 72, "velocity": 79, "duration": 241}, {"note": 77, "velocity": 79, "duration": 371}, {"note": 0, "velocity": 0, "duration": 109}, {"note": 77, "velocity": 80, "duration": 140}, {"note": 0, "velocity": 0, "duration": 100}, {"note": 77, "velocity": 79, "duration": 152}, {"note": 0, "velocity": 0, "duration": 88}, {"note": 77, "velocity": 79, "duration": 174}, {"note": 0, "velocity": 0, "duration": 66}, {"note": 75, "velocity": 85, "duration": 149}, {"note": 0, "velocity": 0, "duration": 91}, {"note": 72, "velocity": 82, "duration": 170}, {"note": 0, "velocity": 0, "duration": 70}, {"note": 77, "velocity": 80, "duration": 184}, {"note": 75, "velocity": 81, "duration": 385}, {"note": 0, "velocity": 0, "duration": 95}, {"note": 72, "velocity": 78, "duration": 399}, {"note": 0, "velocity": 0, "duration": 81}, {"note": 75, "velocity": 80, "duration": 2138}, {"note": 0, "velocity": 0, "duration": 742}, {"note": 77, "velocity": 74, "duration": 136}, {"note": 0, "velocity": 0, "duration": 104}, {"note": 77, "velocity": 78, "duration": 134}, {"note": 0, "velocity": 0, "duration": 106}, {"note": 77, "velocity": 77, "duration": 139}, {"note": 0, "velocity": 0, "duration": 101}, {"note": 77, "velocity": 79, "duration": 154}, {"note": 0, "velocity": 0, "duration": 86}, {"note": 77, "velocity": 79, "duration": 168}, {"note": 0, "velocity": 0, "duration": 72}, {"note": 72, "velocity": 78, "duration": 159}, {"note": 0, "velocity": 0, "duration": 81}, {"note": 72, "velocity": 78, "duration": 169}, {"note": 0, "velocity": 0, "duration": 71}, {"note": 77, "velocity": 79, "duration": 150}, {"note": 0, "velocity": 0, "duration": 90}, {"note": 75, "velocity": 82, "duration": 134}, {"note": 0, "velocity": 0, "duration": 106}, {"note": 75, "velocity": 79, "duration": 240}, {"note": 0, "velocity": 0, "duration": 240}, {"note": 75, "velocity": 80, "duration": 145}, {"note": 0, "velocity": 0, "duration": 95}, {"note": 75, "velocity": 80, "duration": 134}, {"note": 0, "velocity": 0, "duration": 101}, {"note": 75, "velocity": 74, "duration": 130}, {"note": 0, "velocity": 0, "duration": 115}, {"note": 72, "velocity": 73, "duration": 167}, {"note": 0, "velocity": 0, "duration": 313}, {"note": 70, "velocity": 76, "duration": 240}, {"note": 70, "velocity": 70, "duration": 26}, {"note": 0, "velocity": 0, "duration": 223}, {"note": 70, "velocity": 78, "duration": 149}, {"note": 0, "velocity": 0, "duration": 89}, {"note": 70, "velocity": 76, "duration": 154}, {"note": 0, "velocity": 0, "duration": 100}, {"note": 70, "velocity": 80, "duration": 480}, {"note": 70, "velocity": 79, "duration": 240}, {"note": 68, "velocity": 74, "duration": 156}, {"note": 70, "velocity": 79, "duration": 160}, {"note": 0, "velocity": 0, "duration": 69}, {"note": 72, "velocity": 78, "duration": 162}, {"note": 0, "velocity": 0, "duration": 106}, {"note": 75, "velocity": 78, "duration": 240}, {"note": 75, "velocity": 78, "duration": 240}, {"note": 72, "velocity": 78, "duration": 789}, {"note": 0, "velocity": 0, "duration": 171}, {"note": 77, "velocity": 73, "duration": 135}, {"note": 0, "velocity": 0, "duration": 105}, {"note": 77, "velocity": 78, "duration": 144}, {"note": 0, "velocity": 0, "duration": 96}, {"note": 77, "velocity": 78, "duration": 146}, {"note": 0, "velocity": 0, "duration": 94}, {"note": 77, "velocity": 78, "duration": 149}, {"note": 0, "velocity": 0, "duration": 91}, {"note": 77, "velocity": 79, "duration": 200}, {"note": 72, "velocity": 80, "duration": 240}, {"note": 0, "velocity": 0, "duration": 240}, {"note": 77, "velocity": 78, "duration": 184}, {"note": 75, "velocity": 79, "duration": 168}, {"note": 0, "velocity": 0, "duration": 72}, {"note": 77, "velocity": 78, "duration": 393}, {"note": 0, "velocity": 0, "duration": 87}, {"note": 75, "velocity": 82, "duration": 240}, {"note": 75, "velocity": 82, "duration": 240}, {"note": 72, "velocity": 79, "duration": 253}, {"note": 75, "velocity": 79, "duration": 306}, {"note": 0, "velocity": 0, "duration": 174}, {"note": 70, "velocity": 75, "duration": 146}, {"note": 0, "velocity": 0, "duration": 94}, {"note": 70, "velocity": 73, "duration": 146}, {"note": 0, "velocity": 0, "duration": 94}, {"note": 70, "velocity": 78, "duration": 135}, {"note": 0, "velocity": 0, "duration": 105}, {"note": 70, "velocity": 76, "duration": 164}, {"note": 0, "velocity": 0, "duration": 76}, {"note": 70, "velocity": 79, "duration": 376}, {"note": 0, "velocity": 0, "duration": 104}, {"note": 70, "velocity": 78, "duration": 184}, {"note": 68, "velocity": 76, "duration": 164}, {"note": 0, "velocity": 0, "duration": 76}, {"note": 70, "velocity": 78, "duration": 469}, {"note": 72, "velocity": 73, "duration": 409}, {"note": 0, "velocity": 0, "duration": 71}, {"note": 72, "velocity": 77, "duration": 851}, {"note": 0, "velocity": 0, "duration": 109}, {"note": 65, "velocity": 81, "duration": 220}, {"note": 72, "velocity": 79, "duration": 149}, {"note": 0, "velocity": 0, "duration": 91}, {"note": 72, "velocity": 78, "duration": 134}, {"note": 0, "velocity": 0, "duration": 106}, {"note": 72, "velocity": 79, "duration": 149}, {"note": 0, "velocity": 0, "duration": 91}, {"note": 72, "velocity": 79, "duration": 169}, {"note": 0, "velocity": 0, "duration": 71}, {"note": 70, "velocity": 77, "duration": 203}, {"note": 65, "velocity": 80, "duration": 189}, {"note": 72, "velocity": 72, "duration": 206}, {"note": 70, "velocity": 74, "duration": 408}, {"note": 0, "velocity": 0, "duration": 72}, {"note": 72, "velocity": 76, "duration": 471}, {"note": 70, "velocity": 73, "duration": 499}, {"note": 0, "velocity": 0, "duration": 221}, {"note": 72, "velocity": 79, "duration": 241}, {"note": 77, "velocity": 79, "duration": 371}, {"note": 0, "velocity": 0, "duration": 109}, {"note": 77, "velocity": 80, "duration": 140}, {"note": 0, "velocity": 0, "duration": 100}, {"note": 77, "velocity": 79, "duration": 152}, {"note": 0, "velocity": 0, "duration": 88}, {"note": 77, "velocity": 79, "duration": 174}, {"note": 0, "velocity": 0, "duration": 66}, {"note": 75, "velocity": 85, "duration": 149}, {"note": 0, "velocity": 0, "duration": 91}, {"note": 72, "velocity": 82, "duration": 170}, {"note": 0, "velocity": 0, "duration": 70}, {"note": 77, "velocity": 80, "duration": 184}, {"note": 75, "velocity": 81, "duration": 385}, {"note": 0, "velocity": 0, "duration": 95}, {"note": 77, "velocity": 78, "duration": 240}, {"note": 75, "velocity": 80, "duration": 2138}, {"note": 0, "velocity": 0, "duration": 982}, {"note": 77, "velocity": 82, "duration": 438}, {"note": 72, "velocity": 82, "duration": 212}, {"note": 80, "velocity": 79, "duration": 598}, {"note": 0, "velocity": 0, "duration": 122}, {"note": 77, "velocity": 80, "duration": 449}, {"note": 70, "velocity": 80, "duration": 432}, {"note": 72, "velocity": 79, "duration": 480}, {"note": 70, "velocity": 78, "duration": 489}, {"note": 68, "velocity": 78, "duration": 473}, {"note": 70, "velocity": 81, "duration": 367}, {"note": 0, "velocity": 0, "duration": 113}, {"note": 72, "velocity": 77, "duration": 189}, {"note": 75, "velocity": 82, "duration": 639}, {"note": 0, "velocity": 0, "duration": 81}, {"note": 77, "velocity": 82, "duration": 487}, {"note": 72, "velocity": 81, "duration": 1433}, {"note": 0, "velocity": 0, "duration": 487}, {"note": 72, "velocity": 79, "duration": 405}, {"note": 0, "velocity": 0, "duration": 75}, {"note": 70, "velocity": 74, "duration": 146}, {"note": 0, "velocity": 0, "duration": 94}, {"note": 72, "velocity": 79, "duration": 649}, {"note": 0, "velocity": 0, "duration": 71}, {"note": 68, "velocity": 78, "duration": 491}, {"note": 70, "velocity": 79, "duration": 513}, {"note": 68, "velocity": 78, "duration": 535}, {"note": 67, "velocity": 79, "duration": 473}, {"note": 68, "velocity": 79, "duration": 480}, {"note": 68, "velocity": 78, "duration": 366}, {"note": 0, "velocity": 0, "duration": 114}, {"note": 67, "velocity": 87, "duration": 438}, {"note": 68, "velocity": 74, "duration": 437}, {"note": 70, "velocity": 73, "duration": 502}, {"note": 72, "velocity": 79, "duration": 1846}, {"note": 0, "velocity": 0, "duration": 74}, {"note": 77, "velocity": 80, "duration": 535}, {"note": 72, "velocity": 80, "duration": 233}, {"note": 80, "velocity": 78, "duration": 723}, {"note": 77, "velocity": 79, "duration": 468}, {"note": 70, "velocity": 79, "duration": 523}, {"note": 72, "velocity": 79, "duration": 240}, {"note": 70, "velocity": 79, "duration": 524}, {"note": 0, "velocity": 0, "duration": 196}, {"note": 68, "velocity": 78, "duration": 418}, {"note": 0, "velocity": 0, "duration": 62}, {"note": 77, "velocity": 80, "duration": 372}, {"note": 0, "velocity": 0, "duration": 108}, {"note": 75, "velocity": 83, "duration": 452}, {"note": 72, "velocity": 84, "duration": 443}, {"note": 70, "velocity": 76, "duration": 493}, {"note": 72, "velocity": 78, "duration": 1726}, {"note": 0, "velocity": 0, "duration": 194}, {"note": 72, "velocity": 79, "duration": 421}, {"note": 70, "velocity": 77, "duration": 236}, {"note": 72, "velocity": 74, "duration": 705}, {"note": 68, "velocity": 78, "duration": 474}, {"note": 70, "velocity": 79, "duration": 458}, {"note": 68, "velocity": 78, "duration": 520}, {"note": 67, "velocity": 78, "duration": 240}, {"note": 68, "velocity": 79, "duration": 720}, {"note": 67, "velocity": 70, "duration": 330}, {"note": 0, "velocity": 0, "duration": 150}, {"note": 68, "velocity": 78, "duration": 214}, {"note": 67, "velocity": 84, "duration": 604}, {"note": 0, "velocity": 0, "duration": 116}, {"note": 63, "velocity": 81, "duration": 487}, {"note": 65, "velocity": 82, "duration": 1920}, {"note": 0, "velocity": 0, "duration": 15360}, {"note": 77, "velocity": 74, "duration": 136}, {"note": 0, "velocity": 0, "duration": 104}, {"note": 77, "velocity": 78, "duration": 134}, {"note": 0, "velocity": 0, "duration": 106}, {"note": 77, "velocity": 77, "duration": 139}, {"note": 0, "velocity": 0, "duration": 101}, {"note": 77, "velocity": 79, "duration": 154}, {"note": 0, "velocity": 0, "duration": 86}, {"note": 77, "velocity": 79, "duration": 168}, {"note": 0, "velocity": 0, "duration": 72}, {"note": 72, "velocity": 78, "duration": 159}, {"note": 0, "velocity": 0, "duration": 81}, {"note": 72, "velocity": 78, "duration": 169}, {"note": 0, "velocity": 0, "duration": 71}, {"note": 77, "velocity": 79, "duration": 150}, {"note": 0, "velocity": 0, "duration": 90}, {"note": 75, "velocity": 82, "duration": 134}, {"note": 0, "velocity": 0, "duration": 106}, {"note": 75, "velocity": 79, "duration": 240}, {"note": 0, "velocity": 0, "duration": 240}, {"note": 75, "velocity": 80, "duration": 145}, {"note": 0, "velocity": 0, "duration": 95}, {"note": 75, "velocity": 80, "duration": 134}, {"note": 0, "velocity": 0, "duration": 101}, {"note": 75, "velocity": 74, "duration": 130}, {"note": 0, "velocity": 0, "duration": 115}, {"note": 72, "velocity": 73, "duration": 167}, {"note": 0, "velocity": 0, "duration": 313}, {"note": 70, "velocity": 76, "duration": 240}, {"note": 70, "velocity": 70, "duration": 26}, {"note": 0, "velocity": 0, "duration": 223}, {"note": 70, "velocity": 78, "duration": 149}, {"note": 0, "velocity": 0, "duration": 89}, {"note": 70, "velocity": 76, "duration": 154}, {"note": 0, "velocity": 0, "duration": 100}, {"note": 70, "velocity": 80, "duration": 480}, {"note": 70, "velocity": 79, "duration": 240}, {"note": 68, "velocity": 74, "duration": 156}, {"note": 70, "velocity": 79, "duration": 160}, {"note": 0, "velocity": 0, "duration": 69}, {"note": 72, "velocity": 78, "duration": 162}, {"note": 0, "velocity": 0, "duration": 106}, {"note": 75, "velocity": 78, "duration": 240}, {"note": 75, "velocity": 78, "duration": 240}, {"note": 72, "velocity": 78, "duration": 789}, {"note": 0, "velocity": 0, "duration": 171}, {"note": 77, "velocity": 73, "duration": 135}, {"note": 0, "velocity": 0, "duration": 105}, {"note": 77, "velocity": 78, "duration": 144}, {"note": 0, "velocity": 0, "duration": 96}, {"note": 77, "velocity": 78, "duration": 146}, {"note": 0, "velocity": 0, "duration": 94}, {"note": 77, "velocity": 78, "duration": 149}, {"note": 0, "velocity": 0, "duration": 91}, {"note": 77, "velocity": 79, "duration": 200}, {"note": 72, "velocity": 80, "duration": 240}, {"note": 0, "velocity": 0, "duration": 240}, {"note": 77, "velocity": 78, "duration": 184}, {"note": 75, "velocity": 79, "duration": 168}, {"note": 0, "velocity": 0, "duration": 72}, {"note": 77, "velocity": 78, "duration": 393}, {"note": 0, "velocity": 0, "duration": 87}, {"note": 75, "velocity": 82, "duration": 240}, {"note": 75, "velocity": 82, "duration": 240}, {"note": 72, "velocity": 79, "duration": 253}, {"note": 75, "velocity": 79, "duration": 306}, {"note": 0, "velocity": 0, "duration": 174}, {"note": 70, "velocity": 75, "duration": 146}, {"note": 0, "velocity": 0, "duration": 94}, {"note": 70, "velocity": 73, "duration": 146}, {"note": 0, "velocity": 0, "duration": 94}, {"note": 70, "velocity": 78, "duration": 135}, {"note": 0, "velocity": 0, "duration": 105}, {"note": 70, "velocity": 76, "duration": 164}, {"note": 0, "velocity": 0, "duration": 76}, {"note": 70, "velocity": 79, "duration": 376}, {"note": 0, "velocity": 0, "duration": 104}, {"note": 70, "velocity": 78, "duration": 184}, {"note": 68, "velocity": 76, "duration": 164}, {"note": 0, "velocity": 0, "duration": 76}, {"note": 70, "velocity": 78, "duration": 469}, {"note": 72, "velocity": 73, "duration": 409}, {"note": 0, "velocity": 0, "duration": 71}, {"note": 72, "velocity": 77, "duration": 851}, {"note": 0, "velocity": 0, "duration": 109}, {"note": 65, "velocity": 81, "duration": 220}, {"note": 72, "velocity": 79, "duration": 149}, {"note": 0, "velocity": 0, "duration": 91}, {"note": 72, "velocity": 78, "duration": 134}, {"note": 0, "velocity": 0, "duration": 106}, {"note": 72, "velocity": 79, "duration": 149}, {"note": 0, "velocity": 0, "duration": 91}, {"note": 72, "velocity": 79, "duration": 169}, {"note": 0, "velocity": 0, "duration": 71}, {"note": 70, "velocity": 77, "duration": 203}, {"note": 65, "velocity": 80, "duration": 189}, {"note": 72, "velocity": 72, "duration": 206}, {"note": 70, "velocity": 74, "duration": 408}, {"note": 0, "velocity": 0, "duration": 72}, {"note": 72, "velocity": 76, "duration": 471}, {"note": 70, "velocity": 73, "duration": 499}, {"note": 0, "velocity": 0, "duration": 221}, {"note": 72, "velocity": 79, "duration": 241}, {"note": 77, "velocity": 79, "duration": 371}, {"note": 0, "velocity": 0, "duration": 109}, {"note": 77, "velocity": 80, "duration": 140}, {"note": 0, "velocity": 0, "duration": 100}, {"note": 77, "velocity": 79, "duration": 152}, {"note": 0, "velocity": 0, "duration": 88}, {"note": 77, "velocity": 79, "duration": 174}, {"note": 0, "velocity": 0, "duration": 66}, {"note": 75, "velocity": 85, "duration": 149}, {"note": 0, "velocity": 0, "duration": 91}, {"note": 72, "velocity": 82, "duration": 170}, {"note": 0, "velocity": 0, "duration": 70}, {"note": 77, "velocity": 80, "duration": 184}, {"note": 75, "velocity": 81, "duration": 385}, {"note": 0, "velocity": 0, "duration": 95}, {"note": 77, "velocity": 78, "duration": 240}, {"note": 75, "velocity": 80, "duration": 2138}, {"note": 0, "velocity": 0, "duration": 982}, {"note": 77, "velocity": 82, "duration": 438}, {"note": 72, "velocity": 82, "duration": 212}, {"note": 80, "velocity": 79, "duration": 598}, {"note": 0, "velocity": 0, "duration": 122}, {"note": 77, "velocity": 80, "duration": 449}, {"note": 70, "velocity": 80, "duration": 432}, {"note": 72, "velocity": 79, "duration": 480}, {"note": 70, "velocity": 78, "duration": 489}, {"note": 68, "velocity": 78, "duration": 473}, {"note": 70, "velocity": 81, "duration": 367}, {"note": 0, "velocity": 0, "duration": 113}, {"note": 72, "velocity": 77, "duration": 189}, {"note": 75, "velocity": 82, "duration": 639}, {"note": 0, "velocity": 0, "duration": 81}, {"note": 77, "velocity": 82, "duration": 487}, {"note": 72, "velocity": 81, "duration": 1433}, {"note": 0, "velocity": 0, "duration": 487}, {"note": 72, "velocity": 79, "duration": 405}, {"note": 0, "velocity": 0, "duration": 75}, {"note": 70, "velocity": 74, "duration": 146}, {"note": 0, "velocity": 0, "duration": 94}, {"note": 72, "velocity": 79, "duration": 649}, {"note": 0, "velocity": 0, "duration": 71}, {"note": 68, "velocity": 78, "duration": 491}, {"note": 70, "velocity": 79, "duration": 513}, {"note": 68, "velocity": 78, "duration": 535}, {"note": 67, "velocity": 79, "duration": 473}, {"note": 68, "velocity": 79, "duration": 480}, {"note": 68, "velocity": 78, "duration": 366}, {"note": 0, "velocity": 0, "duration": 114}, {"note": 67, "velocity": 87, "duration": 438}, {"note": 68, "velocity": 74, "duration": 437}, {"note": 70, "velocity": 73, "duration": 502}, {"note": 72, "velocity": 79, "duration": 1846}, {"note": 0, "velocity": 0, "duration": 74}, {"note": 77, "velocity": 80, "duration": 535}, {"note": 72, "velocity": 80, "duration": 233}, {"note": 80, "velocity": 78, "duration": 723}, {"note": 77, "velocity": 79, "duration": 468}, {"note": 70, "velocity": 79, "duration": 523}, {"note": 72, "velocity": 79, "duration": 240}, {"note": 70, "velocity": 79, "duration": 524}, {"note": 0, "velocity": 0, "duration": 196}, {"note": 68, "velocity": 78, "duration": 418}, {"note": 0, "velocity": 0, "duration": 62}, {"note": 77, "velocity": 80, "duration": 372}, {"note": 0, "velocity": 0, "duration": 108}, {"note": 75, "velocity": 83, "duration": 452}, {"note": 72, "velocity": 84, "duration": 443}, {"note": 70, "velocity": 76, "duration": 493}, {"note": 72, "velocity": 78, "duration": 1726}, {"note": 0, "velocity": 0, "duration": 194}, {"note": 72, "velocity": 79, "duration": 421}, {"note": 70, "velocity": 77, "duration": 236}, {"note": 72, "velocity": 74, "duration": 705}, {"note": 68, "velocity": 78, "duration": 474}, {"note": 70, "velocity": 79, "duration": 458}, {"note": 68, "velocity": 78, "duration": 520}, {"note": 67, "velocity": 78, "duration": 240}, {"note": 68, "velocity": 79, "duration": 720}, {"note": 67, "velocity": 70, "duration": 330}, {"note": 0, "velocity": 0, "duration": 150}, {"note": 68, "velocity": 78, "duration": 214}, {"note": 67, "velocity": 84, "duration": 604}, {"note": 0, "velocity": 0, "duration": 116}, {"note": 63, "velocity": 81, "duration": 487}, {"note": 65, "velocity": 82, "duration": 1920}, {"note": 77, "velocity": 82, "duration": 438}, {"note": 72, "velocity": 82, "duration": 212}, {"note": 80, "velocity": 79, "duration": 598}, {"note": 0, "velocity": 0, "duration": 122}, {"note": 77, "velocity": 80, "duration": 449}, {"note": 70, "velocity": 80, "duration": 432}, {"note": 72, "velocity": 79, "duration": 480}, {"note": 70, "velocity": 78, "duration": 489}, {"note": 68, "velocity": 78, "duration": 473}, {"note": 70, "velocity": 81, "duration": 367}, {"note": 0, "velocity": 0, "duration": 113}, {"note": 72, "velocity": 77, "duration": 189}, {"note": 75, "velocity": 82, "duration": 639}, {"note": 0, "velocity": 0, "duration": 81}, {"note": 77, "velocity": 82, "duration": 487}, {"note": 72, "velocity": 81, "duration": 1433}, {"note": 0, "velocity": 0, "duration": 487}, {"note": 72, "velocity": 79, "duration": 405}, {"note": 0, "velocity": 0, "duration": 75}, {"note": 70, "velocity": 74, "duration": 146}, {"note": 0, "velocity": 0, "duration": 94}, {"note": 72, "velocity": 79, "duration": 649}, {"note": 0, "velocity": 0, "duration": 71}, {"note": 68, "velocity": 78, "duration": 491}, {"note": 70, "velocity": 79, "duration": 513}, {"note": 68, "velocity": 78, "duration": 535}, {"note": 67, "velocity": 79, "duration": 473}, {"note": 68, "velocity": 79, "duration": 480}, {"note": 68, "velocity": 78, "duration": 366}, {"note": 0, "velocity": 0, "duration": 114}, {"note": 67, "velocity": 87, "duration": 438}, {"note": 68, "velocity": 74, "duration": 437}, {"note": 70, "velocity": 73, "duration": 502}, {"note": 72, "velocity": 79, "duration": 1846}, {"note": 0, "velocity": 0, "duration": 74}, {"note": 77, "velocity": 80, "duration": 535}, {"note": 72, "velocity": 80, "duration": 233}, {"note": 80, "velocity": 78, "duration": 723}, {"note": 77, "velocity": 79, "duration": 468}, {"note": 70, "velocity": 79, "duration": 523}, {"note": 72, "velocity": 79, "duration": 240}, {"note": 70, "velocity": 79, "duration": 524}, {"note": 0, "velocity": 0, "duration": 196}, {"note": 68, "velocity": 78, "duration": 418}, {"note": 0, "velocity": 0, "duration": 62}, {"note": 77, "velocity": 80, "duration": 372}, {"note": 0, "velocity": 0, "duration": 108}, {"note": 75, "velocity": 83, "duration": 452}, {"note": 72, "velocity": 84, "duration": 443}, {"note": 70, "velocity": 76, "duration": 493}, {"note": 72, "velocity": 78, "duration": 1726}, {"note": 0, "velocity": 0, "duration": 194}, {"note": 72, "velocity": 79, "duration": 421}, {"note": 70, "velocity": 77, "duration": 236}, {"note": 72, "velocity": 74, "duration": 705}, {"note": 68, "velocity": 78, "duration": 474}, {"note": 70, "velocity": 79, "duration": 458}, {"note": 68, "velocity": 78, "duration": 520}, {"note": 67, "velocity": 78, "duration": 240}, {"note": 68, "velocity": 79, "duration": 720}, {"note": 67, "velocity": 70, "duration": 330}, {"note": 0, "velocity": 0, "duration": 150}, {"note": 68, "velocity": 78, "duration": 214}, {"note": 67, "velocity": 84, "duration": 604}, {"note": 0, "velocity": 0, "duration": 116}, {"note": 63, "velocity": 81, "duration": 487}, {"note": 65, "velocity": 82, "duration": 1920}, {"note": 72, "velocity": 81, "duration": 516}, {"note": 65, "velocity": 80, "duration": 493}, {"note": 68, "velocity": 75, "duration": 218}, {"note": 72, "velocity": 74, "duration": 573}, {"note": 0, "velocity": 0, "duration": 89}, {"note": 70, "velocity": 74, "duration": 539}, {"note": 68, "velocity": 71, "duration": 369}, {"note": 0, "velocity": 0, "duration": 110}, {"note": 67, "velocity": 78, "duration": 337}, {"note": 68, "velocity": 72, "duration": 939}, {"note": 67, "velocity": 72, "duration": 518}, {"note": 68, "velocity": 73, "duration": 314}, {"note": 67, "velocity": 79, "duration": 1588}, {"note": 0, "velocity": 0, "duration": 499}, {"note": 63, "velocity": 70, "duration": 576}, {"note": 65, "velocity": 77, "duration": 2653}]]