[[{"note": 82, "velocity": 119, "duration": 247}, {"note": 81, "velocity": 116, "duration": 240}, {"note": 82, "velocity": 113, "duration": 288}, {"note": 81, "velocity": 113, "duration": 240}, {"note": 79, "velocity": 114, "duration": 240}, {"note": 77, "velocity": 113, "duration": 240}, {"note": 79, "velocity": 116, "duration": 2400}, {"note": 74, "velocity": 113, "duration": 240}, {"note": 77, "velocity": 114, "duration": 240}, {"note": 79, "velocity": 110, "duration": 296}, {"note": 77, "velocity": 110, "duration": 241}, {"note": 74, "velocity": 108, "duration": 240}, {"note": 72, "velocity": 104, "duration": 240}, {"note": 77, "velocity": 114, "duration": 304}, {"note": 74, "velocity": 100, "duration": 2160}, {"note": 77, "velocity": 110, "duration": 240}, {"note": 74, "velocity": 110, "duration": 240}, {"note": 77, "velocity": 102, "duration": 250}, {"note": 74, "velocity": 108, "duration": 240}, {"note": 72, "velocity": 107, "duration": 240}, {"note": 70, "velocity": 96, "duration": 267}, {"note": 74, "velocity": 104, "duration": 240}, {"note": 72, "velocity": 91, "duration": 2160}, {"note": 70, "velocity": 107, "duration": 240}, {"note": 74, "velocity": 113, "duration": 273}, {"note": 72, "velocity": 108, "duration": 240}, {"note": 74, "velocity": 100, "duration": 240}, {"note": 70, "velocity": 110, "duration": 240}, {"note": 72, "velocity": 93, "duration": 240}, {"note": 74, "velocity": 110, "duration": 2160}, {"note": 70, "velocity": 108, "duration": 240}, {"note": 82, "velocity": 110, "duration": 240}, {"note": 81, "velocity": 110, "duration": 240}, {"note": 82, "velocity": 104, "duration": 240}, {"note": 81, "velocity": 96, "duration": 240}, {"note": 79, "velocity": 114, "duration": 240}, {"note": 77, "velocity": 107, "duration": 272}, {"note": 79, "velocity": 114, "duration": 2399}, {"note": 79, "velocity": 110, "duration": 257}, {"note": 77, "velocity": 107, "duration": 240}, {"note": 79, "velocity": 100, "duration": 289}, {"note": 77, "velocity": 98, "duration": 240}, {"note": 74, "velocity": 113, "duration": 247}, {"note": 72, "velocity": 107, "duration": 240}, {"note": 77, "velocity": 116, "duration": 240}, {"note": 74, "velocity": 104, "duration": 2160}, {"note": 77, "velocity": 113, "duration": 240}, {"note": 74, "velocity": 107, "duration": 240}, {"note": 77, "velocity": 104, "duration": 244}, {"note": 74, "velocity": 107, "duration": 240}, {"note": 72, "velocity": 107, "duration": 240}, {"note": 70, "velocity": 98, "duration": 240}, {"note": 72, "velocity": 108, "duration": 2400}, {"note": 70, "velocity": 102, "duration": 240}, {"note": 74, "velocity": 107, "duration": 308}, {"note": 72, "velocity": 110, "duration": 275}, {"note": 70, "velocity": 104, "duration": 240}, {"note": 67, "velocity": 107, "duration": 259}, {"note": 65, "velocity": 98, "duration": 240}, {"note": 67, "velocity": 102, "duration": 2400}, {"note": 77, "velocity": 90, "duration": 239}, {"note": 77, "velocity": 104, "duration": 240}, {"note": 82, "velocity": 104, "duration": 240}, {"note": 81, "velocity": 94, "duration": 240}, {"note": 79, "velocity": 102, "duration": 240}, {"note": 77, "velocity": 110, "duration": 239}, {"note": 77, "velocity": 110, "duration": 479}, {"note": 77, "velocity": 116, "duration": 240}, {"note": 74, "velocity": 104, "duration": 240}, {"note": 79, "velocity": 116, "duration": 479}, {"note": 79, "velocity": 114, "duration": 240}, {"note": 77, "velocity": 108, "duration": 240}, {"note": 79, "velocity": 114, "duration": 479}, {"note": 79, "velocity": 116, "duration": 240}, {"note": 77, "velocity": 96, "duration": 240}, {"note": 82, "velocity": 113, "duration": 239}, {"note": 82, "velocity": 113, "duration": 240}, {"note": 81, "velocity": 110, "duration": 240}, {"note": 79, "velocity": 110, "duration": 240}, {"note": 77, "velocity": 114, "duration": 479}, {"note": 77, "velocity": 117, "duration": 240}, {"note": 74, "velocity": 113, "duration": 240}, {"note": 79, "velocity": 120, "duration": 479}, {"note": 79, "velocity": 116, "duration": 240}, {"note": 77, "velocity": 102, "duration": 240}, {"note": 79, "velocity": 117, "duration": 479}, {"note": 79, "velocity": 114, "duration": 240}, {"note": 77, "velocity": 110, "duration": 240}, {"note": 82, "velocity": 116, "duration": 239}, {"note": 82, "velocity": 113, "duration": 243}, {"note": 81, "velocity": 114, "duration": 240}, {"note": 79, "velocity": 98, "duration": 240}, {"note": 77, "velocity": 114, "duration": 480}, {"note": 82, "velocity": 107, "duration": 480}, {"note": 74, "velocity": 117, "duration": 240}, {"note": 75, "velocity": 114, "duration": 240}, {"note": 77, "velocity": 117, "duration": 480}, {"note": 75, "velocity": 113, "duration": 480}, {"note": 77, "velocity": 113, "duration": 240}, {"note": 79, "velocity": 114, "duration": 240}, {"note": 69, "velocity": 113, "duration": 240}, {"note": 70, "velocity": 108, "duration": 240}, {"note": 72, "velocity": 110, "duration": 240}, {"note": 74, "velocity": 110, "duration": 240}, {"note": 72, "velocity": 113, "duration": 242}, {"note": 70, "velocity": 102, "duration": 2160}, {"note": 77, "velocity": 90, "duration": 239}, {"note": 77, "velocity": 104, "duration": 240}, {"note": 82, "velocity": 104, "duration": 240}, {"note": 81, "velocity": 94, "duration": 240}, {"note": 79, "velocity": 102, "duration": 240}, {"note": 77, "velocity": 110, "duration": 239}, {"note": 77, "velocity": 110, "duration": 479}, {"note": 77, "velocity": 116, "duration": 240}, {"note": 74, "velocity": 104, "duration": 240}, {"note": 79, "velocity": 116, "duration": 479}, {"note": 79, "velocity": 114, "duration": 240}, {"note": 77, "velocity": 108, "duration": 240}, {"note": 79, "velocity": 114, "duration": 479}, {"note": 79, "velocity": 116, "duration": 240}, {"note": 77, "velocity": 96, "duration": 240}, {"note": 82, "velocity": 113, "duration": 239}, {"note": 82, "velocity": 113, "duration": 240}, {"note": 81, "velocity": 110, "duration": 240}, {"note": 79, "velocity": 110, "duration": 240}, {"note": 77, "velocity": 114, "duration": 479}, {"note": 77, "velocity": 117, "duration": 240}, {"note": 74, "velocity": 113, "duration": 240}, {"note": 79, "velocity": 120, "duration": 479}, {"note": 79, "velocity": 116, "duration": 240}, {"note": 77, "velocity": 102, "duration": 240}, {"note": 79, "velocity": 117, "duration": 479}, {"note": 79, "velocity": 114, "duration": 240}, {"note": 77, "velocity": 110, "duration": 240}, {"note": 82, "velocity": 116, "duration": 239}, {"note": 82, "velocity": 113, "duration": 243}, {"note": 81, "velocity": 114, "duration": 240}, {"note": 79, "velocity": 98, "duration": 240}, {"note": 77, "velocity": 114, "duration": 480}, {"note": 82, "velocity": 107, "duration": 480}, {"note": 74, "velocity": 117, "duration": 240}, {"note": 75, "velocity": 114, "duration": 240}, {"note": 77, "velocity": 117, "duration": 480}, {"note": 75, "velocity": 113, "duration": 480}, {"note": 77, "velocity": 113, "duration": 240}, {"note": 79, "velocity": 114, "duration": 240}, {"note": 69, "velocity": 113, "duration": 240}, {"note": 70, "velocity": 108, "duration": 240}, {"note": 72, "velocity": 110, "duration": 240}, {"note": 74, "velocity": 110, "duration": 240}, {"note": 72, "velocity": 113, "duration": 242}, {"note": 70, "velocity": 102, "duration": 720}, {"note": 0, "velocity": 0, "duration": 9124}, {"note": 82, "velocity": 119, "duration": 294}, {"note": 81, "velocity": 116, "duration": 240}, {"note": 82, "velocity": 113, "duration": 288}, {"note": 81, "velocity": 113, "duration": 240}, {"note": 79, "velocity": 114, "duration": 240}, {"note": 77, "velocity": 113, "duration": 240}, {"note": 79, "velocity": 116, "duration": 2400}, {"note": 74, "velocity": 113, "duration": 240}, {"note": 77, "velocity": 114, "duration": 240}, {"note": 79, "velocity": 110, "duration": 296}, {"note": 77, "velocity": 110, "duration": 241}, {"note": 74, "velocity": 108, "duration": 240}, {"note": 72, "velocity": 104, "duration": 240}, {"note": 77, "velocity": 114, "duration": 304}, {"note": 74, "velocity": 100, "duration": 2160}, {"note": 77, "velocity": 110, "duration": 240}, {"note": 74, "velocity": 110, "duration": 240}, {"note": 77, "velocity": 102, "duration": 251}, {"note": 74, "velocity": 108, "duration": 240}, {"note": 72, "velocity": 107, "duration": 240}, {"note": 70, "velocity": 96, "duration": 267}, {"note": 74, "velocity": 104, "duration": 240}, {"note": 72, "velocity": 91, "duration": 2160}, {"note": 70, "velocity": 107, "duration": 240}, {"note": 74, "velocity": 113, "duration": 274}, {"note": 72, "velocity": 108, "duration": 240}, {"note": 74, "velocity": 100, "duration": 240}, {"note": 70, "velocity": 110, "duration": 240}, {"note": 72, "velocity": 93, "duration": 240}, {"note": 74, "velocity": 110, "duration": 2160}, {"note": 70, "velocity": 108, "duration": 240}, {"note": 82, "velocity": 110, "duration": 240}, {"note": 81, "velocity": 110, "duration": 240}, {"note": 82, "velocity": 104, "duration": 240}, {"note": 81, "velocity": 96, "duration": 240}, {"note": 79, "velocity": 114, "duration": 240}, {"note": 77, "velocity": 107, "duration": 272}, {"note": 79, "velocity": 114, "duration": 2399}, {"note": 79, "velocity": 110, "duration": 257}, {"note": 77, "velocity": 107, "duration": 240}, {"note": 79, "velocity": 100, "duration": 290}, {"note": 77, "velocity": 98, "duration": 240}, {"note": 74, "velocity": 113, "duration": 247}, {"note": 72, "velocity": 107, "duration": 240}, {"note": 77, "velocity": 116, "duration": 240}, {"note": 74, "velocity": 104, "duration": 2160}, {"note": 77, "velocity": 113, "duration": 240}, {"note": 74, "velocity": 107, "duration": 240}, {"note": 77, "velocity": 104, "duration": 245}, {"note": 74, "velocity": 107, "duration": 240}, {"note": 72, "velocity": 107, "duration": 240}, {"note": 70, "velocity": 98, "duration": 240}, {"note": 72, "velocity": 108, "duration": 2400}, {"note": 70, "velocity": 102, "duration": 240}, {"note": 74, "velocity": 107, "duration": 309}, {"note": 72, "velocity": 110, "duration": 275}, {"note": 70, "velocity": 104, "duration": 240}, {"note": 67, "velocity": 107, "duration": 259}, {"note": 65, "velocity": 98, "duration": 240}, {"note": 67, "velocity": 102, "duration": 2400}, {"note": 77, "velocity": 90, "duration": 239}, {"note": 77, "velocity": 104, "duration": 240}, {"note": 82, "velocity": 104, "duration": 240}, {"note": 81, "velocity": 94, "duration": 240}, {"note": 79, "velocity": 102, "duration": 240}, {"note": 77, "velocity": 110, "duration": 239}, {"note": 77, "velocity": 110, "duration": 479}, {"note": 77, "velocity": 116, "duration": 240}, {"note": 74, "velocity": 104, "duration": 240}, {"note": 79, "velocity": 116, "duration": 479}, {"note": 79, "velocity": 114, "duration": 240}, {"note": 77, "velocity": 108, "duration": 240}, {"note": 79, "velocity": 114, "duration": 479}, {"note": 79, "velocity": 116, "duration": 240}, {"note": 77, "velocity": 96, "duration": 240}, {"note": 82, "velocity": 113, "duration": 239}, {"note": 82, "velocity": 113, "duration": 240}, {"note": 81, "velocity": 110, "duration": 240}, {"note": 79, "velocity": 110, "duration": 240}, {"note": 77, "velocity": 114, "duration": 479}, {"note": 77, "velocity": 117, "duration": 240}, {"note": 74, "velocity": 113, "duration": 240}, {"note": 79, "velocity": 120, "duration": 479}, {"note": 79, "velocity": 116, "duration": 240}, {"note": 77, "velocity": 102, "duration": 240}, {"note": 79, "velocity": 117, "duration": 479}, {"note": 79, "velocity": 114, "duration": 240}, {"note": 77, "velocity": 110, "duration": 240}, {"note": 82, "velocity": 116, "duration": 239}, {"note": 82, "velocity": 113, "duration": 243}, {"note": 81, "velocity": 114, "duration": 240}, {"note": 79, "velocity": 98, "duration": 240}, {"note": 77, "velocity": 114, "duration": 480}, {"note": 82, "velocity": 107, "duration": 480}, {"note": 74, "velocity": 117, "duration": 240}, {"note": 75, "velocity": 114, "duration": 240}, {"note": 77, "velocity": 117, "duration": 480}, {"note": 75, "velocity": 113, "duration": 480}, {"note": 77, "velocity": 113, "duration": 240}, {"note": 79, "velocity": 114, "duration": 240}, {"note": 69, "velocity": 113, "duration": 240}, {"note": 70, "velocity": 108, "duration": 240}, {"note": 72, "velocity": 110, "duration": 240}, {"note": 74, "velocity": 110, "duration": 240}, {"note": 72, "velocity": 113, "duration": 242}, {"note": 70, "velocity": 102, "duration": 2160}, {"note": 77, "velocity": 90, "duration": 239}, {"note": 77, "velocity": 104, "duration": 240}, {"note": 82, "velocity": 104, "duration": 240}, {"note": 81, "velocity": 94, "duration": 240}, {"note": 79, "velocity": 102, "duration": 240}, {"note": 77, "velocity": 110, "duration": 239}, {"note": 77, "velocity": 110, "duration": 479}, {"note": 77, "velocity": 116, "duration": 240}, {"note": 74, "velocity": 104, "duration": 240}, {"note": 79, "velocity": 116, "duration": 479}, {"note": 79, "velocity": 114, "duration": 240}, {"note": 77, "velocity": 108, "duration": 240}, {"note": 79, "velocity": 114, "duration": 479}, {"note": 79, "velocity": 116, "duration": 240}, {"note": 77, "velocity": 96, "duration": 240}, {"note": 82, "velocity": 113, "duration": 239}, {"note": 82, "velocity": 113, "duration": 240}, {"note": 81, "velocity": 110, "duration": 240}, {"note": 79, "velocity": 110, "duration": 240}, {"note": 77, "velocity": 114, "duration": 479}, {"note": 77, "velocity": 117, "duration": 240}, {"note": 74, "velocity": 113, "duration": 240}, {"note": 79, "velocity": 120, "duration": 479}, {"note": 79, "velocity": 116, "duration": 240}, {"note": 77, "velocity": 102, "duration": 240}, {"note": 79, "velocity": 117, "duration": 479}, {"note": 79, "velocity": 114, "duration": 240}, {"note": 77, "velocity": 110, "duration": 240}, {"note": 82, "velocity": 116, "duration": 239}, {"note": 82, "velocity": 113, "duration": 243}, {"note": 81, "velocity": 114, "duration": 240}, {"note": 79, "velocity": 98, "duration": 240}, {"note": 77, "velocity": 114, "duration": 480}, {"note": 82, "velocity": 107, "duration": 480}, {"note": 74, "velocity": 117, "duration": 240}, {"note": 75, "velocity": 114, "duration": 240}, {"note": 77, "velocity": 117, "duration": 480}, {"note": 75, "velocity": 113, "duration": 480}, {"note": 77, "velocity": 113, "duration": 240}, {"note": 79, "velocity": 114, "duration": 240}, {"note": 69, "velocity": 113, "duration": 240}, {"note": 70, "velocity": 108, "duration": 240}, {"note": 72, "velocity": 110, "duration": 240}, {"note": 74, "velocity": 110, "duration": 240}, {"note": 72, "velocity": 113, "duration": 242}, {"note": 70, "velocity": 102, "duration": 720}, {"note": 0, "velocity": 0, "duration": 30596}, {"note": 82, "velocity": 90, "duration": 239}, {"note": 82, "velocity": 104, "duration": 239}, {"note": 82, "velocity": 104, "duration": 240}, {"note": 81, "velocity": 94, "duration": 240}, {"note": 79, "velocity": 102, "duration": 240}, {"note": 77, "velocity": 110, "duration": 239}, {"note": 77, "velocity": 110, "duration": 479}, {"note": 77, "velocity": 116, "duration": 240}, {"note": 74, "velocity": 104, "duration": 240}, {"note": 79, "velocity": 116, "duration": 479}, {"note": 79, "velocity": 114, "duration": 240}, {"note": 77, "velocity": 108, "duration": 240}, {"note": 79, "velocity": 114, "duration": 479}, {"note": 79, "velocity": 116, "duration": 240}, {"note": 77, "velocity": 96, "duration": 240}, {"note": 82, "velocity": 113, "duration": 239}, {"note": 82, "velocity": 113, "duration": 240}, {"note": 81, "velocity": 110, "duration": 240}, {"note": 79, "velocity": 110, "duration": 240}, {"note": 77, "velocity": 114, "duration": 479}, {"note": 77, "velocity": 117, "duration": 240}, {"note": 74, "velocity": 113, "duration": 240}, {"note": 79, "velocity": 120, "duration": 479}, {"note": 79, "velocity": 116, "duration": 240}, {"note": 77, "velocity": 102, "duration": 240}, {"note": 79, "velocity": 117, "duration": 479}, {"note": 79, "velocity": 114, "duration": 240}, {"note": 77, "velocity": 110, "duration": 240}, {"note": 82, "velocity": 116, "duration": 239}, {"note": 82, "velocity": 113, "duration": 243}, {"note": 81, "velocity": 114, "duration": 240}, {"note": 79, "velocity": 98, "duration": 240}, {"note": 77, "velocity": 114, "duration": 480}, {"note": 82, "velocity": 107, "duration": 480}, {"note": 74, "velocity": 117, "duration": 240}, {"note": 75, "velocity": 114, "duration": 240}, {"note": 77, "velocity": 117, "duration": 480}, {"note": 75, "velocity": 113, "duration": 480}, {"note": 77, "velocity": 113, "duration": 240}, {"note": 79, "velocity": 114, "duration": 240}, {"note": 69, "velocity": 113, "duration": 240}, {"note": 70, "velocity": 108, "duration": 240}, {"note": 72, "velocity": 110, "duration": 240}, {"note": 74, "velocity": 110, "duration": 240}, {"note": 72, "velocity": 113, "duration": 242}, {"note": 70, "velocity": 102, "duration": 2160}, {"note": 82, "velocity": 90, "duration": 239}, {"note": 82, "velocity": 104, "duration": 239}, {"note": 82, "velocity": 104, "duration": 240}, {"note": 81, "velocity": 94, "duration": 240}, {"note": 79, "velocity": 102, "duration": 240}, {"note": 77, "velocity": 110, "duration": 239}, {"note": 77, "velocity": 110, "duration": 479}, {"note": 77, "velocity": 116, "duration": 240}, {"note": 74, "velocity": 104, "duration": 240}, {"note": 79, "velocity": 116, "duration": 479}, {"note": 79, "velocity": 114, "duration": 240}, {"note": 77, "velocity": 108, "duration": 240}, {"note": 79, "velocity": 114, "duration": 479}, {"note": 79, "velocity": 116, "duration": 240}, {"note": 77, "velocity": 96, "duration": 240}, {"note": 82, "velocity": 113, "duration": 239}, {"note": 82, "velocity": 113, "duration": 240}, {"note": 81, "velocity": 110, "duration": 240}, {"note": 79, "velocity": 110, "duration": 240}, {"note": 77, "velocity": 114, "duration": 479}, {"note": 77, "velocity": 117, "duration": 240}, {"note": 74, "velocity": 113, "duration": 240}, {"note": 79, "velocity": 120, "duration": 479}, {"note": 79, "velocity": 116, "duration": 240}, {"note": 77, "velocity": 102, "duration": 240}, {"note": 79, "velocity": 117, "duration": 479}, {"note": 79, "velocity": 114, "duration": 240}, {"note": 77, "velocity": 110, "duration": 240}, {"note": 82, "velocity": 116, "duration": 239}, {"note": 82, "velocity": 113, "duration": 243}, {"note": 81, "velocity": 114, "duration": 240}, {"note": 79, "velocity": 98, "duration": 240}, {"note": 77, "velocity": 114, "duration": 480}, {"note": 82, "velocity": 107, "duration": 480}, {"note": 74, "velocity": 117, "duration": 240}, {"note": 75, "velocity": 114, "duration": 240}, {"note": 77, "velocity": 117, "duration": 480}, {"note": 75, "velocity": 113, "duration": 480}, {"note": 77, "velocity": 113, "duration": 240}, {"note": 79, "velocity": 114, "duration": 240}, {"note": 69, "velocity": 113, "duration": 240}, {"note": 70, "velocity": 108, "duration": 240}, {"note": 72, "velocity": 110, "duration": 240}, {"note": 74, "velocity": 110, "duration": 240}, {"note": 72, "velocity": 113, "duration": 242}, {"note": 70, "velocity": 102, "duration": 3600}, {"note": 77, "velocity": 107, "duration": 480}, {"note": 82, "velocity": 107, "duration": 480}, {"note": 74, "velocity": 117, "duration": 240}, {"note": 75, "velocity": 114, "duration": 240}, {"note": 77, "velocity": 117, "duration": 480}, {"note": 75, "velocity": 113, "duration": 480}, {"note": 77, "velocity": 113, "duration": 240}, {"note": 79, "velocity": 114, "duration": 240}, {"note": 69, "velocity": 113, "duration": 240}, {"note": 70, "velocity": 108, "duration": 240}, {"note": 72, "velocity": 110, "duration": 240}, {"note": 74, "velocity": 110, "duration": 240}, {"note": 72, "velocity": 113, "duration": 242}, {"note": 70, "velocity": 102, "duration": 3600}, {"note": 77, "velocity": 107, "duration": 480}, {"note": 82, "velocity": 107, "duration": 480}, {"note": 74, "velocity": 117, "duration": 240}, {"note": 75, "velocity": 114, "duration": 240}, {"note": 77, "velocity": 117, "duration": 480}, {"note": 75, "velocity": 113, "duration": 480}, {"note": 77, "velocity": 113, "duration": 240}, {"note": 79, "velocity": 114, "duration": 240}, {"note": 69, "velocity": 113, "duration": 240}, {"note": 70, "velocity": 108, "duration": 240}, {"note": 72, "velocity": 110, "duration": 240}, {"note": 74, "velocity": 110, "duration": 240}, {"note": 72, "velocity": 113, "duration": 242}, {"note": 70, "velocity": 102, "duration": 1680}, {"note": 75, "velocity": 113, "duration": 480}, {"note": 77, "velocity": 113, "duration": 240}, {"note": 79, "velocity": 114, "duration": 240}, {"note": 69, "velocity": 113, "duration": 240}, {"note": 70, "velocity": 108, "duration": 240}, {"note": 72, "velocity": 110, "duration": 240}, {"note": 74, "velocity": 110, "duration": 2160}, {"note": 72, "velocity": 110, "duration": 363}, {"note": 70, "velocity": 110, "duration": 6420}]]