[[{"note": 71, "velocity": 116, "duration": 160}, {"note": 73, "velocity": 114, "duration": 1760}, {"note": 71, "velocity": 116, "duration": 160}, {"note": 73, "velocity": 96, "duration": 159}, {"note": 73, "velocity": 104, "duration": 160}, {"note": 78, "velocity": 114, "duration": 159}, {"note": 78, "velocity": 113, "duration": 160}, {"note": 73, "velocity": 107, "duration": 159}, {"note": 73, "velocity": 113, "duration": 960}, {"note": 71, "velocity": 114, "duration": 159}, {"note": 71, "velocity": 108, "duration": 160}, {"note": 69, "velocity": 107, "duration": 160}, {"note": 71, "velocity": 116, "duration": 480}, {"note": 75, "velocity": 119, "duration": 159}, {"note": 75, "velocity": 113, "duration": 160}, {"note": 73, "velocity": 113, "duration": 160}, {"note": 71, "velocity": 116, "duration": 320}, {"note": 75, "velocity": 119, "duration": 160}, {"note": 73, "velocity": 116, "duration": 1760}, {"note": 71, "velocity": 107, "duration": 160}, {"note": 73, "velocity": 114, "duration": 159}, {"note": 73, "velocity": 113, "duration": 1280}, {"note": 71, "velocity": 104, "duration": 160}, {"note": 73, "velocity": 107, "duration": 160}, {"note": 78, "velocity": 113, "duration": 320}, {"note": 71, "velocity": 98, "duration": 159}, {"note": 71, "velocity": 110, "duration": 1439}, {"note": 71, "velocity": 107, "duration": 160}, {"note": 73, "velocity": 113, "duration": 479}, {"note": 73, "velocity": 116, "duration": 480}, {"note": 77, "velocity": 119, "duration": 479}, {"note": 77, "velocity": 119, "duration": 159}, {"note": 77, "velocity": 116, "duration": 159}, {"note": 77, "velocity": 113, "duration": 160}, {"note": 78, "velocity": 119, "duration": 1920}, {"note": 81, "velocity": 116, "duration": 175}, {"note": 80, "velocity": 113, "duration": 160}, {"note": 78, "velocity": 114, "duration": 159}, {"note": 78, "velocity": 119, "duration": 331}, {"note": 81, "velocity": 119, "duration": 639}, {"note": 81, "velocity": 117, "duration": 168}, {"note": 80, "velocity": 113, "duration": 160}, {"note": 78, "velocity": 114, "duration": 159}, {"note": 78, "velocity": 114, "duration": 170}, {"note": 73, "velocity": 117, "duration": 1599}, {"note": 73, "velocity": 114, "duration": 160}, {"note": 81, "velocity": 116, "duration": 160}, {"note": 80, "velocity": 110, "duration": 160}, {"note": 78, "velocity": 113, "duration": 160}, {"note": 81, "velocity": 117, "duration": 959}, {"note": 81, "velocity": 116, "duration": 160}, {"note": 80, "velocity": 113, "duration": 160}, {"note": 78, "velocity": 113, "duration": 160}, {"note": 80, "velocity": 116, "duration": 160}, {"note": 73, "velocity": 110, "duration": 159}, {"note": 73, "velocity": 117, "duration": 1440}, {"note": 66, "velocity": 114, "duration": 160}, {"note": 75, "velocity": 119, "duration": 479}, {"note": 75, "velocity": 119, "duration": 320}, {"note": 71, "velocity": 110, "duration": 160}, {"note": 75, "velocity": 116, "duration": 479}, {"note": 75, "velocity": 123, "duration": 159}, {"note": 75, "velocity": 116, "duration": 160}, {"note": 76, "velocity": 102, "duration": 160}, {"note": 75, "velocity": 116, "duration": 169}, {"note": 73, "velocity": 114, "duration": 1600}, {"note": 66, "velocity": 108, "duration": 160}, {"note": 75, "velocity": 119, "duration": 479}, {"note": 75, "velocity": 116, "duration": 320}, {"note": 71, "velocity": 110, "duration": 160}, {"note": 75, "velocity": 119, "duration": 479}, {"note": 75, "velocity": 123, "duration": 159}, {"note": 75, "velocity": 104, "duration": 160}, {"note": 76, "velocity": 113, "duration": 160}, {"note": 78, "velocity": 116, "duration": 159}, {"note": 78, "velocity": 117, "duration": 185}, {"note": 76, "velocity": 113, "duration": 160}, {"note": 73, "velocity": 114, "duration": 1280}, {"note": 78, "velocity": 117, "duration": 160}, {"note": 83, "velocity": 119, "duration": 479}, {"note": 83, "velocity": 119, "duration": 320}, {"note": 78, "velocity": 117, "duration": 160}, {"note": 83, "velocity": 120, "duration": 159}, {"note": 83, "velocity": 113, "duration": 160}, {"note": 85, "velocity": 116, "duration": 159}, {"note": 85, "velocity": 120, "duration": 320}, {"note": 83, "velocity": 117, "duration": 160}, {"note": 85, "velocity": 117, "duration": 960}, {"note": 80, "velocity": 120, "duration": 159}, {"note": 80, "velocity": 110, "duration": 159}, {"note": 80, "velocity": 114, "duration": 159}, {"note": 80, "velocity": 119, "duration": 320}, {"note": 76, "velocity": 117, "duration": 160}, {"note": 78, "velocity": 116, "duration": 960}, {"note": 76, "velocity": 116, "duration": 159}, {"note": 76, "velocity": 114, "duration": 159}, {"note": 76, "velocity": 113, "duration": 159}, {"note": 76, "velocity": 117, "duration": 480}, {"note": 83, "velocity": 120, "duration": 159}, {"note": 83, "velocity": 120, "duration": 159}, {"note": 83, "velocity": 119, "duration": 159}, {"note": 83, "velocity": 123, "duration": 320}, {"note": 80, "velocity": 114, "duration": 160}, {"note": 78, "velocity": 119, "duration": 1920}, {"note": 81, "velocity": 120, "duration": 159}, {"note": 81, "velocity": 119, "duration": 159}, {"note": 81, "velocity": 116, "duration": 159}, {"note": 81, "velocity": 117, "duration": 319}, {"note": 81, "velocity": 117, "duration": 159}, {"note": 81, "velocity": 119, "duration": 160}, {"note": 80, "velocity": 116, "duration": 160}, {"note": 78, "velocity": 117, "duration": 160}, {"note": 81, "velocity": 119, "duration": 480}, {"note": 83, "velocity": 119, "duration": 159}, {"note": 83, "velocity": 117, "duration": 160}, {"note": 78, "velocity": 116, "duration": 160}, {"note": 83, "velocity": 119, "duration": 159}, {"note": 83, "velocity": 120, "duration": 160}, {"note": 78, "velocity": 116, "duration": 160}, {"note": 83, "velocity": 119, "duration": 159}, {"note": 83, "velocity": 116, "duration": 160}, {"note": 85, "velocity": 108, "duration": 160}, {"note": 83, "velocity": 114, "duration": 480}, {"note": 80, "velocity": 117, "duration": 159}, {"note": 80, "velocity": 116, "duration": 160}, {"note": 78, "velocity": 114, "duration": 160}, {"note": 80, "velocity": 117, "duration": 319}, {"note": 80, "velocity": 116, "duration": 160}, {"note": 76, "velocity": 116, "duration": 160}, {"note": 78, "velocity": 114, "duration": 160}, {"note": 80, "velocity": 114, "duration": 160}, {"note": 73, "velocity": 117, "duration": 480}, {"note": 76, "velocity": 119, "duration": 159}, {"note": 76, "velocity": 116, "duration": 160}, {"note": 78, "velocity": 116, "duration": 160}, {"note": 80, "velocity": 120, "duration": 159}, {"note": 80, "velocity": 117, "duration": 160}, {"note": 81, "velocity": 114, "duration": 160}, {"note": 80, "velocity": 119, "duration": 960}, {"note": 81, "velocity": 117, "duration": 159}, {"note": 81, "velocity": 113, "duration": 159}, {"note": 81, "velocity": 113, "duration": 159}, {"note": 81, "velocity": 117, "duration": 160}, {"note": 80, "velocity": 113, "duration": 160}, {"note": 78, "velocity": 113, "duration": 160}, {"note": 81, "velocity": 117, "duration": 311}, {"note": 78, "velocity": 110, "duration": 169}, {"note": 81, "velocity": 110, "duration": 480}, {"note": 83, "velocity": 119, "duration": 159}, {"note": 83, "velocity": 117, "duration": 160}, {"note": 78, "velocity": 116, "duration": 160}, {"note": 83, "velocity": 119, "duration": 159}, {"note": 83, "velocity": 120, "duration": 160}, {"note": 78, "velocity": 116, "duration": 160}, {"note": 83, "velocity": 119, "duration": 159}, {"note": 83, "velocity": 116, "duration": 160}, {"note": 85, "velocity": 108, "duration": 160}, {"note": 83, "velocity": 114, "duration": 480}, {"note": 80, "velocity": 117, "duration": 159}, {"note": 80, "velocity": 116, "duration": 160}, {"note": 78, "velocity": 114, "duration": 160}, {"note": 80, "velocity": 117, "duration": 319}, {"note": 80, "velocity": 116, "duration": 160}, {"note": 76, "velocity": 116, "duration": 160}, {"note": 78, "velocity": 114, "duration": 160}, {"note": 80, "velocity": 114, "duration": 160}, {"note": 73, "velocity": 117, "duration": 480}, {"note": 76, "velocity": 119, "duration": 159}, {"note": 76, "velocity": 116, "duration": 160}, {"note": 78, "velocity": 116, "duration": 160}, {"note": 80, "velocity": 120, "duration": 160}, {"note": 81, "velocity": 117, "duration": 320}, {"note": 80, "velocity": 119, "duration": 320}, {"note": 0, "velocity": 0, "duration": 11200}, {"note": 81, "velocity": 116, "duration": 175}, {"note": 80, "velocity": 113, "duration": 160}, {"note": 78, "velocity": 114, "duration": 159}, {"note": 78, "velocity": 119, "duration": 331}, {"note": 81, "velocity": 119, "duration": 639}, {"note": 81, "velocity": 117, "duration": 168}, {"note": 80, "velocity": 113, "duration": 160}, {"note": 78, "velocity": 114, "duration": 159}, {"note": 78, "velocity": 114, "duration": 170}, {"note": 73, "velocity": 117, "duration": 1599}, {"note": 73, "velocity": 114, "duration": 160}, {"note": 81, "velocity": 116, "duration": 160}, {"note": 80, "velocity": 110, "duration": 160}, {"note": 78, "velocity": 113, "duration": 160}, {"note": 81, "velocity": 117, "duration": 959}, {"note": 81, "velocity": 116, "duration": 160}, {"note": 80, "velocity": 113, "duration": 160}, {"note": 78, "velocity": 113, "duration": 160}, {"note": 80, "velocity": 116, "duration": 160}, {"note": 73, "velocity": 110, "duration": 159}, {"note": 73, "velocity": 117, "duration": 1440}, {"note": 66, "velocity": 114, "duration": 160}, {"note": 75, "velocity": 119, "duration": 479}, {"note": 75, "velocity": 119, "duration": 320}, {"note": 71, "velocity": 110, "duration": 160}, {"note": 75, "velocity": 116, "duration": 479}, {"note": 75, "velocity": 123, "duration": 159}, {"note": 75, "velocity": 116, "duration": 160}, {"note": 76, "velocity": 102, "duration": 160}, {"note": 75, "velocity": 116, "duration": 169}, {"note": 73, "velocity": 114, "duration": 1600}, {"note": 66, "velocity": 108, "duration": 160}, {"note": 75, "velocity": 119, "duration": 479}, {"note": 75, "velocity": 116, "duration": 320}, {"note": 71, "velocity": 110, "duration": 160}, {"note": 75, "velocity": 119, "duration": 479}, {"note": 75, "velocity": 123, "duration": 159}, {"note": 75, "velocity": 104, "duration": 160}, {"note": 76, "velocity": 113, "duration": 160}, {"note": 78, "velocity": 116, "duration": 159}, {"note": 78, "velocity": 117, "duration": 185}, {"note": 76, "velocity": 113, "duration": 160}, {"note": 73, "velocity": 114, "duration": 1280}, {"note": 78, "velocity": 117, "duration": 160}, {"note": 83, "velocity": 119, "duration": 479}, {"note": 83, "velocity": 119, "duration": 320}, {"note": 78, "velocity": 117, "duration": 160}, {"note": 83, "velocity": 120, "duration": 159}, {"note": 83, "velocity": 113, "duration": 160}, {"note": 85, "velocity": 116, "duration": 159}, {"note": 85, "velocity": 120, "duration": 320}, {"note": 83, "velocity": 117, "duration": 160}, {"note": 85, "velocity": 117, "duration": 960}, {"note": 80, "velocity": 120, "duration": 159}, {"note": 80, "velocity": 110, "duration": 159}, {"note": 80, "velocity": 114, "duration": 159}, {"note": 80, "velocity": 119, "duration": 320}, {"note": 76, "velocity": 117, "duration": 160}, {"note": 78, "velocity": 116, "duration": 960}, {"note": 76, "velocity": 116, "duration": 159}, {"note": 76, "velocity": 114, "duration": 159}, {"note": 76, "velocity": 113, "duration": 159}, {"note": 76, "velocity": 117, "duration": 480}, {"note": 83, "velocity": 120, "duration": 159}, {"note": 83, "velocity": 120, "duration": 159}, {"note": 83, "velocity": 119, "duration": 159}, {"note": 83, "velocity": 123, "duration": 320}, {"note": 80, "velocity": 114, "duration": 160}, {"note": 78, "velocity": 119, "duration": 1920}, {"note": 81, "velocity": 120, "duration": 159}, {"note": 81, "velocity": 119, "duration": 159}, {"note": 81, "velocity": 116, "duration": 159}, {"note": 81, "velocity": 117, "duration": 319}, {"note": 81, "velocity": 117, "duration": 159}, {"note": 81, "velocity": 119, "duration": 160}, {"note": 80, "velocity": 116, "duration": 160}, {"note": 78, "velocity": 117, "duration": 160}, {"note": 81, "velocity": 119, "duration": 480}, {"note": 83, "velocity": 119, "duration": 159}, {"note": 83, "velocity": 117, "duration": 160}, {"note": 78, "velocity": 116, "duration": 160}, {"note": 83, "velocity": 119, "duration": 159}, {"note": 83, "velocity": 120, "duration": 160}, {"note": 78, "velocity": 116, "duration": 160}, {"note": 83, "velocity": 119, "duration": 159}, {"note": 83, "velocity": 116, "duration": 160}, {"note": 85, "velocity": 108, "duration": 160}, {"note": 83, "velocity": 114, "duration": 480}, {"note": 80, "velocity": 117, "duration": 159}, {"note": 80, "velocity": 116, "duration": 160}, {"note": 78, "velocity": 114, "duration": 160}, {"note": 80, "velocity": 117, "duration": 319}, {"note": 80, "velocity": 116, "duration": 160}, {"note": 76, "velocity": 116, "duration": 160}, {"note": 78, "velocity": 114, "duration": 160}, {"note": 80, "velocity": 114, "duration": 160}, {"note": 73, "velocity": 117, "duration": 480}, {"note": 76, "velocity": 119, "duration": 159}, {"note": 76, "velocity": 116, "duration": 160}, {"note": 78, "velocity": 116, "duration": 160}, {"note": 80, "velocity": 120, "duration": 159}, {"note": 80, "velocity": 117, "duration": 160}, {"note": 81, "velocity": 114, "duration": 160}, {"note": 80, "velocity": 119, "duration": 960}, {"note": 81, "velocity": 117, "duration": 159}, {"note": 81, "velocity": 113, "duration": 159}, {"note": 81, "velocity": 113, "duration": 159}, {"note": 81, "velocity": 117, "duration": 160}, {"note": 80, "velocity": 113, "duration": 160}, {"note": 78, "velocity": 113, "duration": 160}, {"note": 81, "velocity": 117, "duration": 320}, {"note": 78, "velocity": 110, "duration": 160}, {"note": 81, "velocity": 110, "duration": 480}, {"note": 83, "velocity": 119, "duration": 159}, {"note": 83, "velocity": 117, "duration": 160}, {"note": 78, "velocity": 116, "duration": 160}, {"note": 83, "velocity": 119, "duration": 159}, {"note": 83, "velocity": 120, "duration": 160}, {"note": 78, "velocity": 116, "duration": 160}, {"note": 83, "velocity": 119, "duration": 159}, {"note": 83, "velocity": 116, "duration": 160}, {"note": 85, "velocity": 108, "duration": 160}, {"note": 83, "velocity": 114, "duration": 480}, {"note": 80, "velocity": 117, "duration": 159}, {"note": 80, "velocity": 116, "duration": 160}, {"note": 78, "velocity": 114, "duration": 160}, {"note": 80, "velocity": 117, "duration": 319}, {"note": 80, "velocity": 116, "duration": 160}, {"note": 76, "velocity": 116, "duration": 160}, {"note": 78, "velocity": 114, "duration": 160}, {"note": 80, "velocity": 114, "duration": 160}, {"note": 73, "velocity": 117, "duration": 480}, {"note": 76, "velocity": 119, "duration": 159}, {"note": 76, "velocity": 116, "duration": 160}, {"note": 78, "velocity": 116, "duration": 160}, {"note": 80, "velocity": 120, "duration": 160}, {"note": 81, "velocity": 117, "duration": 320}, {"note": 80, "velocity": 119, "duration": 366}, {"note": 0, "velocity": 0, "duration": 594}, {"note": 81, "velocity": 120, "duration": 159}, {"note": 81, "velocity": 119, "duration": 159}, {"note": 81, "velocity": 116, "duration": 159}, {"note": 81, "velocity": 117, "duration": 319}, {"note": 81, "velocity": 117, "duration": 159}, {"note": 81, "velocity": 119, "duration": 160}, {"note": 80, "velocity": 116, "duration": 160}, {"note": 78, "velocity": 117, "duration": 160}, {"note": 81, "velocity": 119, "duration": 480}, {"note": 83, "velocity": 119, "duration": 159}, {"note": 83, "velocity": 117, "duration": 160}, {"note": 78, "velocity": 116, "duration": 160}, {"note": 83, "velocity": 119, "duration": 159}, {"note": 83, "velocity": 120, "duration": 160}, {"note": 78, "velocity": 116, "duration": 160}, {"note": 83, "velocity": 119, "duration": 159}, {"note": 83, "velocity": 116, "duration": 160}, {"note": 85, "velocity": 108, "duration": 160}, {"note": 83, "velocity": 114, "duration": 480}, {"note": 80, "velocity": 117, "duration": 159}, {"note": 80, "velocity": 116, "duration": 160}, {"note": 78, "velocity": 114, "duration": 160}, {"note": 80, "velocity": 117, "duration": 319}, {"note": 80, "velocity": 116, "duration": 160}, {"note": 76, "velocity": 116, "duration": 160}, {"note": 78, "velocity": 114, "duration": 160}, {"note": 80, "velocity": 114, "duration": 160}, {"note": 73, "velocity": 117, "duration": 480}, {"note": 76, "velocity": 119, "duration": 159}, {"note": 76, "velocity": 116, "duration": 160}, {"note": 78, "velocity": 116, "duration": 160}, {"note": 80, "velocity": 120, "duration": 159}, {"note": 80, "velocity": 117, "duration": 160}, {"note": 81, "velocity": 114, "duration": 160}, {"note": 80, "velocity": 119, "duration": 960}, {"note": 81, "velocity": 117, "duration": 159}, {"note": 81, "velocity": 113, "duration": 159}, {"note": 81, "velocity": 113, "duration": 159}, {"note": 81, "velocity": 117, "duration": 160}, {"note": 80, "velocity": 113, "duration": 160}, {"note": 78, "velocity": 113, "duration": 160}, {"note": 81, "velocity": 117, "duration": 320}, {"note": 78, "velocity": 110, "duration": 160}, {"note": 81, "velocity": 110, "duration": 480}, {"note": 83, "velocity": 119, "duration": 159}, {"note": 83, "velocity": 117, "duration": 160}, {"note": 78, "velocity": 116, "duration": 160}, {"note": 83, "velocity": 119, "duration": 159}, {"note": 83, "velocity": 120, "duration": 160}, {"note": 78, "velocity": 116, "duration": 160}, {"note": 83, "velocity": 119, "duration": 159}, {"note": 83, "velocity": 116, "duration": 160}, {"note": 85, "velocity": 108, "duration": 160}, {"note": 83, "velocity": 114, "duration": 480}, {"note": 80, "velocity": 117, "duration": 159}, {"note": 80, "velocity": 116, "duration": 160}, {"note": 78, "velocity": 114, "duration": 160}, {"note": 80, "velocity": 117, "duration": 319}, {"note": 80, "velocity": 116, "duration": 160}, {"note": 76, "velocity": 116, "duration": 160}, {"note": 78, "velocity": 114, "duration": 160}, {"note": 80, "velocity": 114, "duration": 160}, {"note": 73, "velocity": 117, "duration": 480}, {"note": 76, "velocity": 119, "duration": 159}, {"note": 76, "velocity": 116, "duration": 160}, {"note": 78, "velocity": 116, "duration": 160}, {"note": 80, "velocity": 120, "duration": 160}, {"note": 81, "velocity": 117, "duration": 320}, {"note": 80, "velocity": 119, "duration": 366}, {"note": 0, "velocity": 0, "duration": 594}, {"note": 81, "velocity": 117, "duration": 159}, {"note": 81, "velocity": 113, "duration": 159}, {"note": 81, "velocity": 113, "duration": 159}, {"note": 81, "velocity": 117, "duration": 320}, {"note": 78, "velocity": 113, "duration": 160}, {"note": 81, "velocity": 117, "duration": 161}, {"note": 80, "velocity": 117, "duration": 159}, {"note": 78, "velocity": 110, "duration": 160}, {"note": 81, "velocity": 110, "duration": 480}, {"note": 83, "velocity": 119, "duration": 159}, {"note": 83, "velocity": 117, "duration": 160}, {"note": 78, "velocity": 116, "duration": 160}, {"note": 83, "velocity": 119, "duration": 159}, {"note": 83, "velocity": 120, "duration": 160}, {"note": 78, "velocity": 116, "duration": 160}, {"note": 83, "velocity": 119, "duration": 159}, {"note": 83, "velocity": 116, "duration": 160}, {"note": 85, "velocity": 108, "duration": 160}, {"note": 83, "velocity": 114, "duration": 480}, {"note": 80, "velocity": 117, "duration": 159}, {"note": 80, "velocity": 116, "duration": 160}, {"note": 78, "velocity": 114, "duration": 160}, {"note": 80, "velocity": 117, "duration": 319}, {"note": 80, "velocity": 116, "duration": 160}, {"note": 76, "velocity": 116, "duration": 160}, {"note": 78, "velocity": 114, "duration": 160}, {"note": 80, "velocity": 114, "duration": 160}, {"note": 73, "velocity": 117, "duration": 480}, {"note": 76, "velocity": 119, "duration": 159}, {"note": 76, "velocity": 116, "duration": 160}, {"note": 78, "velocity": 116, "duration": 160}, {"note": 80, "velocity": 120, "duration": 160}, {"note": 85, "velocity": 117, "duration": 1760}, {"note": 83, "velocity": 108, "duration": 160}, {"note": 81, "velocity": 107, "duration": 160}, {"note": 78, "velocity": 107, "duration": 496}]]