[[{"note": 64, "velocity": 107, "duration": 239}, {"note": 64, "velocity": 110, "duration": 239}, {"note": 64, "velocity": 104, "duration": 239}, {"note": 64, "velocity": 114, "duration": 240}, {"note": 65, "velocity": 110, "duration": 240}, {"note": 67, "velocity": 117, "duration": 239}, {"note": 67, "velocity": 117, "duration": 720}, {"note": 69, "velocity": 108, "duration": 240}, {"note": 60, "velocity": 107, "duration": 480}, {"note": 62, "velocity": 110, "duration": 1200}, {"note": 64, "velocity": 114, "duration": 239}, {"note": 64, "velocity": 108, "duration": 239}, {"note": 64, "velocity": 107, "duration": 240}, {"note": 65, "velocity": 114, "duration": 240}, {"note": 67, "velocity": 110, "duration": 479}, {"note": 67, "velocity": 114, "duration": 480}, {"note": 72, "velocity": 114, "duration": 240}, {"note": 71, "velocity": 116, "duration": 480}, {"note": 67, "velocity": 116, "duration": 720}, {"note": 69, "velocity": 113, "duration": 960}, {"note": 65, "velocity": 113, "duration": 260}, {"note": 64, "velocity": 93, "duration": 240}, {"note": 62, "velocity": 98, "duration": 240}, {"note": 69, "velocity": 114, "duration": 240}, {"note": 67, "velocity": 114, "duration": 719}, {"note": 67, "velocity": 114, "duration": 240}, {"note": 60, "velocity": 114, "duration": 720}, {"note": 67, "velocity": 113, "duration": 239}, {"note": 67, "velocity": 110, "duration": 240}, {"note": 65, "velocity": 107, "duration": 239}, {"note": 65, "velocity": 113, "duration": 240}, {"note": 64, "velocity": 110, "duration": 240}, {"note": 65, "velocity": 116, "duration": 240}, {"note": 72, "velocity": 108, "duration": 239}, {"note": 72, "velocity": 88, "duration": 480}, {"note": 64, "velocity": 104, "duration": 240}, {"note": 62, "velocity": 98, "duration": 1920}, {"note": 64, "velocity": 107, "duration": 239}, {"note": 64, "velocity": 110, "duration": 239}, {"note": 64, "velocity": 104, "duration": 239}, {"note": 64, "velocity": 114, "duration": 240}, {"note": 65, "velocity": 110, "duration": 240}, {"note": 67, "velocity": 117, "duration": 239}, {"note": 67, "velocity": 117, "duration": 720}, {"note": 69, "velocity": 108, "duration": 240}, {"note": 60, "velocity": 107, "duration": 480}, {"note": 62, "velocity": 110, "duration": 1200}, {"note": 64, "velocity": 114, "duration": 239}, {"note": 64, "velocity": 108, "duration": 239}, {"note": 64, "velocity": 107, "duration": 240}, {"note": 65, "velocity": 114, "duration": 240}, {"note": 67, "velocity": 110, "duration": 479}, {"note": 67, "velocity": 114, "duration": 480}, {"note": 72, "velocity": 114, "duration": 240}, {"note": 71, "velocity": 116, "duration": 480}, {"note": 67, "velocity": 116, "duration": 720}, {"note": 69, "velocity": 113, "duration": 960}, {"note": 65, "velocity": 113, "duration": 260}, {"note": 64, "velocity": 93, "duration": 240}, {"note": 62, "velocity": 98, "duration": 240}, {"note": 69, "velocity": 114, "duration": 240}, {"note": 67, "velocity": 114, "duration": 479}, {"note": 67, "velocity": 116, "duration": 240}, {"note": 74, "velocity": 119, "duration": 480}, {"note": 72, "velocity": 120, "duration": 480}, {"note": 64, "velocity": 110, "duration": 240}, {"note": 67, "velocity": 114, "duration": 240}, {"note": 65, "velocity": 110, "duration": 239}, {"note": 65, "velocity": 114, "duration": 240}, {"note": 64, "velocity": 113, "duration": 240}, {"note": 65, "velocity": 114, "duration": 240}, {"note": 67, "velocity": 108, "duration": 239}, {"note": 67, "velocity": 113, "duration": 240}, {"note": 69, "velocity": 119, "duration": 239}, {"note": 69, "velocity": 119, "duration": 240}, {"note": 67, "velocity": 100, "duration": 239}, {"note": 67, "velocity": 117, "duration": 240}, {"note": 74, "velocity": 114, "duration": 239}, {"note": 74, "velocity": 116, "duration": 480}, {"note": 72, "velocity": 114, "duration": 240}, {"note": 74, "velocity": 116, "duration": 240}, {"note": 76, "velocity": 117, "duration": 240}, {"note": 67, "velocity": 113, "duration": 240}, {"note": 72, "velocity": 113, "duration": 240}, {"note": 76, "velocity": 116, "duration": 240}, {"note": 74, "velocity": 116, "duration": 240}, {"note": 67, "velocity": 113, "duration": 240}, {"note": 71, "velocity": 113, "duration": 240}, {"note": 74, "velocity": 114, "duration": 240}, {"note": 72, "velocity": 116, "duration": 359}, {"note": 72, "velocity": 114, "duration": 359}, {"note": 72, "velocity": 108, "duration": 239}, {"note": 72, "velocity": 114, "duration": 479}, {"note": 72, "velocity": 114, "duration": 240}, {"note": 67, "velocity": 114, "duration": 247}, {"note": 69, "velocity": 114, "duration": 240}, {"note": 72, "velocity": 108, "duration": 239}, {"note": 72, "velocity": 108, "duration": 240}, {"note": 69, "velocity": 102, "duration": 240}, {"note": 67, "velocity": 116, "duration": 239}, {"note": 67, "velocity": 114, "duration": 240}, {"note": 72, "velocity": 110, "duration": 240}, {"note": 76, "velocity": 116, "duration": 240}, {"note": 77, "velocity": 114, "duration": 240}, {"note": 76, "velocity": 110, "duration": 262}, {"note": 74, "velocity": 116, "duration": 240}, {"note": 72, "velocity": 108, "duration": 240}, {"note": 74, "velocity": 119, "duration": 480}, {"note": 72, "velocity": 110, "duration": 240}, {"note": 74, "velocity": 104, "duration": 240}, {"note": 76, "velocity": 116, "duration": 239}, {"note": 76, "velocity": 110, "duration": 239}, {"note": 76, "velocity": 116, "duration": 240}, {"note": 68, "velocity": 119, "duration": 239}, {"note": 68, "velocity": 116, "duration": 239}, {"note": 68, "velocity": 116, "duration": 240}, {"note": 69, "velocity": 108, "duration": 240}, {"note": 71, "velocity": 107, "duration": 240}, {"note": 74, "velocity": 117, "duration": 360}, {"note": 76, "velocity": 116, "duration": 360}, {"note": 74, "velocity": 113, "duration": 240}, {"note": 72, "velocity": 114, "duration": 479}, {"note": 72, "velocity": 114, "duration": 240}, {"note": 79, "velocity": 116, "duration": 239}, {"note": 79, "velocity": 119, "duration": 360}, {"note": 77, "velocity": 116, "duration": 360}, {"note": 76, "velocity": 114, "duration": 240}, {"note": 72, "velocity": 116, "duration": 480}, {"note": 69, "velocity": 114, "duration": 240}, {"note": 76, "velocity": 116, "duration": 240}, {"note": 77, "velocity": 117, "duration": 240}, {"note": 76, "velocity": 117, "duration": 240}, {"note": 74, "velocity": 113, "duration": 240}, {"note": 72, "velocity": 114, "duration": 240}, {"note": 74, "velocity": 116, "duration": 480}, {"note": 72, "velocity": 114, "duration": 240}, {"note": 74, "velocity": 116, "duration": 240}, {"note": 76, "velocity": 117, "duration": 240}, {"note": 67, "velocity": 113, "duration": 240}, {"note": 72, "velocity": 113, "duration": 240}, {"note": 76, "velocity": 116, "duration": 240}, {"note": 74, "velocity": 116, "duration": 240}, {"note": 67, "velocity": 113, "duration": 240}, {"note": 71, "velocity": 113, "duration": 240}, {"note": 74, "velocity": 114, "duration": 240}, {"note": 72, "velocity": 116, "duration": 359}, {"note": 72, "velocity": 114, "duration": 359}, {"note": 72, "velocity": 108, "duration": 239}, {"note": 72, "velocity": 114, "duration": 479}, {"note": 72, "velocity": 114, "duration": 240}, {"note": 67, "velocity": 114, "duration": 247}, {"note": 69, "velocity": 114, "duration": 240}, {"note": 72, "velocity": 108, "duration": 239}, {"note": 72, "velocity": 108, "duration": 240}, {"note": 69, "velocity": 102, "duration": 240}, {"note": 67, "velocity": 116, "duration": 239}, {"note": 67, "velocity": 114, "duration": 240}, {"note": 72, "velocity": 110, "duration": 240}, {"note": 76, "velocity": 116, "duration": 240}, {"note": 77, "velocity": 114, "duration": 240}, {"note": 76, "velocity": 110, "duration": 262}, {"note": 74, "velocity": 116, "duration": 240}, {"note": 72, "velocity": 108, "duration": 240}, {"note": 74, "velocity": 119, "duration": 480}, {"note": 72, "velocity": 110, "duration": 240}, {"note": 74, "velocity": 104, "duration": 240}, {"note": 76, "velocity": 116, "duration": 239}, {"note": 76, "velocity": 110, "duration": 239}, {"note": 76, "velocity": 116, "duration": 240}, {"note": 68, "velocity": 119, "duration": 239}, {"note": 68, "velocity": 116, "duration": 239}, {"note": 68, "velocity": 116, "duration": 240}, {"note": 69, "velocity": 108, "duration": 240}, {"note": 71, "velocity": 107, "duration": 240}, {"note": 74, "velocity": 117, "duration": 360}, {"note": 76, "velocity": 116, "duration": 360}, {"note": 74, "velocity": 113, "duration": 240}, {"note": 72, "velocity": 114, "duration": 479}, {"note": 72, "velocity": 114, "duration": 240}, {"note": 79, "velocity": 116, "duration": 239}, {"note": 79, "velocity": 119, "duration": 360}, {"note": 77, "velocity": 116, "duration": 360}, {"note": 76, "velocity": 114, "duration": 240}, {"note": 72, "velocity": 116, "duration": 720}, {"note": 67, "velocity": 110, "duration": 240}, {"note": 79, "velocity": 114, "duration": 244}, {"note": 77, "velocity": 114, "duration": 239}, {"note": 77, "velocity": 110, "duration": 240}, {"note": 76, "velocity": 116, "duration": 240}, {"note": 72, "velocity": 117, "duration": 360}, {"note": 67, "velocity": 117, "duration": 360}, {"note": 74, "velocity": 116, "duration": 480}, {"note": 72, "velocity": 117, "duration": 414}, {"note": 0, "velocity": 0, "duration": 7266}, {"note": 64, "velocity": 107, "duration": 239}, {"note": 64, "velocity": 110, "duration": 239}, {"note": 64, "velocity": 104, "duration": 239}, {"note": 64, "velocity": 114, "duration": 240}, {"note": 65, "velocity": 110, "duration": 240}, {"note": 67, "velocity": 117, "duration": 239}, {"note": 67, "velocity": 117, "duration": 720}, {"note": 69, "velocity": 108, "duration": 240}, {"note": 60, "velocity": 107, "duration": 480}, {"note": 62, "velocity": 110, "duration": 1200}, {"note": 64, "velocity": 114, "duration": 239}, {"note": 64, "velocity": 108, "duration": 239}, {"note": 64, "velocity": 107, "duration": 240}, {"note": 65, "velocity": 114, "duration": 240}, {"note": 67, "velocity": 110, "duration": 479}, {"note": 67, "velocity": 114, "duration": 480}, {"note": 72, "velocity": 114, "duration": 240}, {"note": 71, "velocity": 116, "duration": 480}, {"note": 67, "velocity": 116, "duration": 720}, {"note": 69, "velocity": 113, "duration": 960}, {"note": 65, "velocity": 113, "duration": 260}, {"note": 64, "velocity": 93, "duration": 240}, {"note": 62, "velocity": 98, "duration": 240}, {"note": 69, "velocity": 114, "duration": 240}, {"note": 67, "velocity": 114, "duration": 479}, {"note": 67, "velocity": 116, "duration": 240}, {"note": 74, "velocity": 119, "duration": 480}, {"note": 72, "velocity": 120, "duration": 480}, {"note": 64, "velocity": 110, "duration": 240}, {"note": 67, "velocity": 114, "duration": 240}, {"note": 65, "velocity": 110, "duration": 239}, {"note": 65, "velocity": 114, "duration": 240}, {"note": 64, "velocity": 113, "duration": 240}, {"note": 65, "velocity": 114, "duration": 240}, {"note": 67, "velocity": 108, "duration": 239}, {"note": 67, "velocity": 113, "duration": 240}, {"note": 69, "velocity": 119, "duration": 239}, {"note": 69, "velocity": 119, "duration": 240}, {"note": 67, "velocity": 100, "duration": 239}, {"note": 67, "velocity": 117, "duration": 240}, {"note": 74, "velocity": 114, "duration": 239}, {"note": 74, "velocity": 116, "duration": 480}, {"note": 72, "velocity": 114, "duration": 240}, {"note": 74, "velocity": 116, "duration": 240}, {"note": 76, "velocity": 117, "duration": 240}, {"note": 67, "velocity": 113, "duration": 240}, {"note": 72, "velocity": 113, "duration": 240}, {"note": 76, "velocity": 116, "duration": 240}, {"note": 74, "velocity": 116, "duration": 240}, {"note": 67, "velocity": 113, "duration": 240}, {"note": 71, "velocity": 113, "duration": 240}, {"note": 74, "velocity": 114, "duration": 240}, {"note": 72, "velocity": 116, "duration": 359}, {"note": 72, "velocity": 114, "duration": 359}, {"note": 72, "velocity": 108, "duration": 239}, {"note": 72, "velocity": 114, "duration": 479}, {"note": 72, "velocity": 114, "duration": 240}, {"note": 67, "velocity": 114, "duration": 247}, {"note": 69, "velocity": 114, "duration": 240}, {"note": 72, "velocity": 108, "duration": 239}, {"note": 72, "velocity": 108, "duration": 240}, {"note": 69, "velocity": 102, "duration": 240}, {"note": 67, "velocity": 116, "duration": 239}, {"note": 67, "velocity": 114, "duration": 240}, {"note": 72, "velocity": 110, "duration": 240}, {"note": 76, "velocity": 116, "duration": 240}, {"note": 77, "velocity": 114, "duration": 240}, {"note": 76, "velocity": 110, "duration": 262}, {"note": 74, "velocity": 116, "duration": 240}, {"note": 72, "velocity": 108, "duration": 240}, {"note": 74, "velocity": 119, "duration": 480}, {"note": 72, "velocity": 110, "duration": 240}, {"note": 74, "velocity": 104, "duration": 240}, {"note": 76, "velocity": 116, "duration": 239}, {"note": 76, "velocity": 110, "duration": 239}, {"note": 76, "velocity": 116, "duration": 240}, {"note": 68, "velocity": 119, "duration": 239}, {"note": 68, "velocity": 116, "duration": 239}, {"note": 68, "velocity": 116, "duration": 240}, {"note": 69, "velocity": 108, "duration": 240}, {"note": 71, "velocity": 107, "duration": 240}, {"note": 74, "velocity": 117, "duration": 360}, {"note": 76, "velocity": 116, "duration": 360}, {"note": 74, "velocity": 113, "duration": 240}, {"note": 72, "velocity": 114, "duration": 479}, {"note": 72, "velocity": 114, "duration": 240}, {"note": 79, "velocity": 116, "duration": 239}, {"note": 79, "velocity": 119, "duration": 360}, {"note": 77, "velocity": 116, "duration": 360}, {"note": 76, "velocity": 114, "duration": 240}, {"note": 72, "velocity": 116, "duration": 480}, {"note": 69, "velocity": 114, "duration": 240}, {"note": 76, "velocity": 116, "duration": 240}, {"note": 77, "velocity": 117, "duration": 240}, {"note": 76, "velocity": 117, "duration": 240}, {"note": 74, "velocity": 113, "duration": 240}, {"note": 72, "velocity": 114, "duration": 240}, {"note": 74, "velocity": 116, "duration": 480}, {"note": 72, "velocity": 114, "duration": 240}, {"note": 74, "velocity": 116, "duration": 240}, {"note": 76, "velocity": 117, "duration": 240}, {"note": 67, "velocity": 113, "duration": 240}, {"note": 72, "velocity": 113, "duration": 240}, {"note": 76, "velocity": 116, "duration": 240}, {"note": 74, "velocity": 116, "duration": 240}, {"note": 67, "velocity": 113, "duration": 240}, {"note": 71, "velocity": 113, "duration": 240}, {"note": 74, "velocity": 114, "duration": 240}, {"note": 72, "velocity": 116, "duration": 359}, {"note": 72, "velocity": 114, "duration": 359}, {"note": 72, "velocity": 108, "duration": 239}, {"note": 72, "velocity": 114, "duration": 479}, {"note": 72, "velocity": 114, "duration": 240}, {"note": 67, "velocity": 114, "duration": 247}, {"note": 69, "velocity": 114, "duration": 240}, {"note": 72, "velocity": 108, "duration": 239}, {"note": 72, "velocity": 108, "duration": 240}, {"note": 69, "velocity": 102, "duration": 240}, {"note": 67, "velocity": 116, "duration": 239}, {"note": 67, "velocity": 114, "duration": 240}, {"note": 72, "velocity": 110, "duration": 240}, {"note": 76, "velocity": 116, "duration": 240}, {"note": 77, "velocity": 114, "duration": 240}, {"note": 76, "velocity": 110, "duration": 262}, {"note": 74, "velocity": 116, "duration": 240}, {"note": 72, "velocity": 108, "duration": 240}, {"note": 74, "velocity": 119, "duration": 480}, {"note": 72, "velocity": 110, "duration": 240}, {"note": 74, "velocity": 104, "duration": 240}, {"note": 76, "velocity": 116, "duration": 239}, {"note": 76, "velocity": 110, "duration": 239}, {"note": 76, "velocity": 116, "duration": 240}, {"note": 68, "velocity": 119, "duration": 239}, {"note": 68, "velocity": 116, "duration": 239}, {"note": 68, "velocity": 116, "duration": 240}, {"note": 69, "velocity": 108, "duration": 240}, {"note": 71, "velocity": 107, "duration": 240}, {"note": 74, "velocity": 117, "duration": 360}, {"note": 76, "velocity": 116, "duration": 360}, {"note": 74, "velocity": 113, "duration": 240}, {"note": 72, "velocity": 114, "duration": 479}, {"note": 72, "velocity": 114, "duration": 240}, {"note": 79, "velocity": 116, "duration": 239}, {"note": 79, "velocity": 119, "duration": 360}, {"note": 77, "velocity": 116, "duration": 360}, {"note": 76, "velocity": 114, "duration": 240}, {"note": 72, "velocity": 116, "duration": 720}, {"note": 67, "velocity": 110, "duration": 240}, {"note": 79, "velocity": 114, "duration": 244}, {"note": 77, "velocity": 114, "duration": 239}, {"note": 77, "velocity": 110, "duration": 240}, {"note": 76, "velocity": 116, "duration": 240}, {"note": 72, "velocity": 117, "duration": 360}, {"note": 67, "velocity": 117, "duration": 360}, {"note": 74, "velocity": 116, "duration": 480}, {"note": 72, "velocity": 117, "duration": 414}, {"note": 0, "velocity": 0, "duration": 10386}, {"note": 72, "velocity": 114, "duration": 240}, {"note": 74, "velocity": 116, "duration": 240}, {"note": 76, "velocity": 117, "duration": 240}, {"note": 67, "velocity": 113, "duration": 240}, {"note": 72, "velocity": 113, "duration": 240}, {"note": 76, "velocity": 116, "duration": 240}, {"note": 74, "velocity": 116, "duration": 240}, {"note": 67, "velocity": 113, "duration": 240}, {"note": 71, "velocity": 113, "duration": 240}, {"note": 74, "velocity": 114, "duration": 240}, {"note": 72, "velocity": 116, "duration": 359}, {"note": 72, "velocity": 114, "duration": 359}, {"note": 72, "velocity": 108, "duration": 239}, {"note": 72, "velocity": 114, "duration": 479}, {"note": 72, "velocity": 114, "duration": 240}, {"note": 67, "velocity": 114, "duration": 247}, {"note": 69, "velocity": 114, "duration": 240}, {"note": 72, "velocity": 108, "duration": 239}, {"note": 72, "velocity": 108, "duration": 240}, {"note": 69, "velocity": 102, "duration": 240}, {"note": 67, "velocity": 116, "duration": 239}, {"note": 67, "velocity": 114, "duration": 240}, {"note": 72, "velocity": 110, "duration": 240}, {"note": 76, "velocity": 116, "duration": 240}, {"note": 77, "velocity": 114, "duration": 239}, {"note": 77, "velocity": 110, "duration": 240}, {"note": 79, "velocity": 116, "duration": 240}, {"note": 76, "velocity": 108, "duration": 240}, {"note": 74, "velocity": 119, "duration": 480}, {"note": 72, "velocity": 110, "duration": 240}, {"note": 74, "velocity": 104, "duration": 240}, {"note": 76, "velocity": 116, "duration": 239}, {"note": 76, "velocity": 110, "duration": 239}, {"note": 76, "velocity": 116, "duration": 240}, {"note": 68, "velocity": 119, "duration": 239}, {"note": 68, "velocity": 116, "duration": 239}, {"note": 68, "velocity": 116, "duration": 240}, {"note": 69, "velocity": 108, "duration": 240}, {"note": 71, "velocity": 107, "duration": 240}, {"note": 74, "velocity": 117, "duration": 360}, {"note": 76, "velocity": 116, "duration": 360}, {"note": 74, "velocity": 113, "duration": 240}, {"note": 72, "velocity": 114, "duration": 479}, {"note": 72, "velocity": 114, "duration": 240}, {"note": 79, "velocity": 116, "duration": 239}, {"note": 79, "velocity": 119, "duration": 360}, {"note": 77, "velocity": 116, "duration": 360}, {"note": 76, "velocity": 114, "duration": 240}, {"note": 72, "velocity": 116, "duration": 480}, {"note": 69, "velocity": 114, "duration": 240}, {"note": 76, "velocity": 116, "duration": 240}, {"note": 77, "velocity": 117, "duration": 240}, {"note": 76, "velocity": 117, "duration": 240}, {"note": 74, "velocity": 113, "duration": 240}, {"note": 72, "velocity": 114, "duration": 240}, {"note": 74, "velocity": 116, "duration": 480}, {"note": 72, "velocity": 114, "duration": 240}, {"note": 74, "velocity": 116, "duration": 240}, {"note": 76, "velocity": 117, "duration": 240}, {"note": 67, "velocity": 113, "duration": 240}, {"note": 72, "velocity": 113, "duration": 240}, {"note": 76, "velocity": 116, "duration": 240}, {"note": 74, "velocity": 116, "duration": 240}, {"note": 67, "velocity": 113, "duration": 240}, {"note": 71, "velocity": 113, "duration": 240}, {"note": 74, "velocity": 114, "duration": 240}, {"note": 72, "velocity": 116, "duration": 359}, {"note": 72, "velocity": 114, "duration": 359}, {"note": 72, "velocity": 108, "duration": 239}, {"note": 72, "velocity": 114, "duration": 479}, {"note": 72, "velocity": 114, "duration": 240}, {"note": 67, "velocity": 114, "duration": 247}, {"note": 69, "velocity": 114, "duration": 240}, {"note": 72, "velocity": 108, "duration": 239}, {"note": 72, "velocity": 108, "duration": 240}, {"note": 69, "velocity": 102, "duration": 240}, {"note": 67, "velocity": 116, "duration": 239}, {"note": 67, "velocity": 114, "duration": 240}, {"note": 72, "velocity": 110, "duration": 240}, {"note": 76, "velocity": 116, "duration": 240}, {"note": 77, "velocity": 114, "duration": 240}, {"note": 76, "velocity": 110, "duration": 262}, {"note": 74, "velocity": 116, "duration": 240}, {"note": 72, "velocity": 108, "duration": 240}, {"note": 74, "velocity": 119, "duration": 480}, {"note": 72, "velocity": 110, "duration": 240}, {"note": 74, "velocity": 104, "duration": 240}, {"note": 76, "velocity": 116, "duration": 239}, {"note": 76, "velocity": 110, "duration": 239}, {"note": 76, "velocity": 116, "duration": 240}, {"note": 68, "velocity": 119, "duration": 239}, {"note": 68, "velocity": 116, "duration": 239}, {"note": 68, "velocity": 116, "duration": 240}, {"note": 69, "velocity": 108, "duration": 240}, {"note": 71, "velocity": 107, "duration": 240}, {"note": 74, "velocity": 117, "duration": 360}, {"note": 76, "velocity": 116, "duration": 360}, {"note": 74, "velocity": 113, "duration": 240}, {"note": 72, "velocity": 114, "duration": 479}, {"note": 72, "velocity": 114, "duration": 240}, {"note": 79, "velocity": 116, "duration": 239}, {"note": 79, "velocity": 119, "duration": 360}, {"note": 77, "velocity": 116, "duration": 360}, {"note": 76, "velocity": 114, "duration": 240}, {"note": 72, "velocity": 116, "duration": 720}, {"note": 67, "velocity": 110, "duration": 240}, {"note": 79, "velocity": 114, "duration": 244}, {"note": 77, "velocity": 114, "duration": 239}, {"note": 77, "velocity": 110, "duration": 240}, {"note": 76, "velocity": 116, "duration": 240}, {"note": 72, "velocity": 117, "duration": 360}, {"note": 67, "velocity": 117, "duration": 360}, {"note": 74, "velocity": 116, "duration": 480}, {"note": 72, "velocity": 117, "duration": 414}]]