[[{"note": 73, "velocity": 114, "duration": 120}, {"note": 72, "velocity": 92, "duration": 120}, {"note": 73, "velocity": 92, "duration": 130}, {"note": 72, "velocity": 93, "duration": 147}, {"note": 73, "velocity": 96, "duration": 240}, {"note": 70, "velocity": 102, "duration": 121}, {"note": 73, "velocity": 110, "duration": 600}, {"note": 75, "velocity": 113, "duration": 240}, {"note": 73, "velocity": 102, "duration": 240}, {"note": 72, "velocity": 102, "duration": 171}, {"note": 70, "velocity": 89, "duration": 120}, {"note": 72, "velocity": 96, "duration": 122}, {"note": 70, "velocity": 91, "duration": 140}, {"note": 72, "velocity": 108, "duration": 240}, {"note": 68, "velocity": 102, "duration": 135}, {"note": 72, "velocity": 110, "duration": 1080}, {"note": 73, "velocity": 107, "duration": 120}, {"note": 72, "velocity": 91, "duration": 131}, {"note": 73, "velocity": 96, "duration": 120}, {"note": 72, "velocity": 96, "duration": 151}, {"note": 73, "velocity": 107, "duration": 240}, {"note": 70, "velocity": 94, "duration": 120}, {"note": 73, "velocity": 107, "duration": 600}, {"note": 75, "velocity": 107, "duration": 240}, {"note": 73, "velocity": 96, "duration": 240}, {"note": 72, "velocity": 108, "duration": 120}, {"note": 70, "velocity": 89, "duration": 139}, {"note": 72, "velocity": 92, "duration": 129}, {"note": 70, "velocity": 90, "duration": 137}, {"note": 72, "velocity": 104, "duration": 240}, {"note": 68, "velocity": 91, "duration": 240}, {"note": 77, "velocity": 93, "duration": 960}, {"note": 78, "velocity": 110, "duration": 120}, {"note": 77, "velocity": 93, "duration": 120}, {"note": 78, "velocity": 94, "duration": 120}, {"note": 77, "velocity": 92, "duration": 128}, {"note": 78, "velocity": 104, "duration": 240}, {"note": 70, "velocity": 84, "duration": 120}, {"note": 77, "velocity": 107, "duration": 240}, {"note": 75, "velocity": 102, "duration": 840}, {"note": 77, "velocity": 107, "duration": 120}, {"note": 75, "velocity": 91, "duration": 128}, {"note": 77, "velocity": 96, "duration": 120}, {"note": 75, "velocity": 92, "duration": 131}, {"note": 77, "velocity": 108, "duration": 240}, {"note": 75, "velocity": 98, "duration": 119}, {"note": 75, "velocity": 104, "duration": 240}, {"note": 73, "velocity": 96, "duration": 840}, {"note": 75, "velocity": 108, "duration": 120}, {"note": 73, "velocity": 87, "duration": 127}, {"note": 75, "velocity": 96, "duration": 120}, {"note": 73, "velocity": 87, "duration": 120}, {"note": 75, "velocity": 102, "duration": 240}, {"note": 77, "velocity": 92, "duration": 120}, {"note": 75, "velocity": 96, "duration": 240}, {"note": 72, "velocity": 94, "duration": 359}, {"note": 72, "velocity": 102, "duration": 240}, {"note": 68, "velocity": 89, "duration": 120}, {"note": 70, "velocity": 96, "duration": 2040}, {"note": 73, "velocity": 114, "duration": 120}, {"note": 72, "velocity": 92, "duration": 120}, {"note": 73, "velocity": 92, "duration": 130}, {"note": 72, "velocity": 93, "duration": 147}, {"note": 73, "velocity": 96, "duration": 240}, {"note": 70, "velocity": 102, "duration": 121}, {"note": 73, "velocity": 110, "duration": 600}, {"note": 75, "velocity": 113, "duration": 240}, {"note": 73, "velocity": 102, "duration": 240}, {"note": 72, "velocity": 102, "duration": 171}, {"note": 70, "velocity": 89, "duration": 120}, {"note": 72, "velocity": 96, "duration": 122}, {"note": 70, "velocity": 91, "duration": 140}, {"note": 72, "velocity": 108, "duration": 240}, {"note": 68, "velocity": 102, "duration": 135}, {"note": 72, "velocity": 110, "duration": 1080}, {"note": 73, "velocity": 107, "duration": 120}, {"note": 72, "velocity": 91, "duration": 131}, {"note": 73, "velocity": 96, "duration": 120}, {"note": 72, "velocity": 96, "duration": 151}, {"note": 73, "velocity": 107, "duration": 240}, {"note": 70, "velocity": 94, "duration": 120}, {"note": 73, "velocity": 107, "duration": 600}, {"note": 75, "velocity": 107, "duration": 240}, {"note": 73, "velocity": 96, "duration": 240}, {"note": 72, "velocity": 108, "duration": 120}, {"note": 70, "velocity": 89, "duration": 139}, {"note": 72, "velocity": 92, "duration": 129}, {"note": 70, "velocity": 90, "duration": 137}, {"note": 72, "velocity": 104, "duration": 240}, {"note": 68, "velocity": 91, "duration": 240}, {"note": 77, "velocity": 93, "duration": 960}, {"note": 78, "velocity": 110, "duration": 120}, {"note": 77, "velocity": 93, "duration": 120}, {"note": 78, "velocity": 94, "duration": 120}, {"note": 77, "velocity": 92, "duration": 128}, {"note": 78, "velocity": 104, "duration": 240}, {"note": 70, "velocity": 84, "duration": 120}, {"note": 77, "velocity": 107, "duration": 240}, {"note": 75, "velocity": 102, "duration": 840}, {"note": 77, "velocity": 107, "duration": 120}, {"note": 75, "velocity": 91, "duration": 128}, {"note": 77, "velocity": 96, "duration": 120}, {"note": 75, "velocity": 92, "duration": 131}, {"note": 77, "velocity": 108, "duration": 240}, {"note": 75, "velocity": 98, "duration": 119}, {"note": 75, "velocity": 104, "duration": 240}, {"note": 73, "velocity": 96, "duration": 840}, {"note": 75, "velocity": 108, "duration": 120}, {"note": 73, "velocity": 87, "duration": 127}, {"note": 75, "velocity": 96, "duration": 120}, {"note": 73, "velocity": 87, "duration": 120}, {"note": 75, "velocity": 102, "duration": 240}, {"note": 77, "velocity": 92, "duration": 120}, {"note": 75, "velocity": 96, "duration": 240}, {"note": 72, "velocity": 94, "duration": 359}, {"note": 72, "velocity": 102, "duration": 240}, {"note": 68, "velocity": 89, "duration": 120}, {"note": 70, "velocity": 96, "duration": 1559}, {"note": 70, "velocity": 117, "duration": 129}, {"note": 72, "velocity": 108, "duration": 120}, {"note": 73, "velocity": 104, "duration": 120}, {"note": 77, "velocity": 114, "duration": 120}, {"note": 82, "velocity": 120, "duration": 480}, {"note": 77, "velocity": 116, "duration": 480}, {"note": 78, "velocity": 113, "duration": 122}, {"note": 80, "velocity": 110, "duration": 240}, {"note": 75, "velocity": 114, "duration": 600}, {"note": 84, "velocity": 114, "duration": 120}, {"note": 82, "velocity": 98, "duration": 135}, {"note": 84, "velocity": 108, "duration": 120}, {"note": 82, "velocity": 100, "duration": 143}, {"note": 84, "velocity": 119, "duration": 128}, {"note": 80, "velocity": 114, "duration": 240}, {"note": 75, "velocity": 104, "duration": 120}, {"note": 78, "velocity": 114, "duration": 281}, {"note": 77, "velocity": 110, "duration": 480}, {"note": 82, "velocity": 110, "duration": 174}, {"note": 80, "velocity": 100, "duration": 120}, {"note": 82, "velocity": 116, "duration": 240}, {"note": 80, "velocity": 102, "duration": 120}, {"note": 82, "velocity": 114, "duration": 360}, {"note": 73, "velocity": 110, "duration": 240}, {"note": 75, "velocity": 114, "duration": 240}, {"note": 77, "velocity": 108, "duration": 127}, {"note": 75, "velocity": 113, "duration": 360}, {"note": 77, "velocity": 114, "duration": 120}, {"note": 75, "velocity": 104, "duration": 120}, {"note": 77, "velocity": 117, "duration": 239}, {"note": 77, "velocity": 107, "duration": 119}, {"note": 77, "velocity": 113, "duration": 360}, {"note": 75, "velocity": 110, "duration": 120}, {"note": 77, "velocity": 114, "duration": 600}, {"note": 70, "velocity": 117, "duration": 129}, {"note": 72, "velocity": 108, "duration": 120}, {"note": 73, "velocity": 104, "duration": 120}, {"note": 77, "velocity": 114, "duration": 120}, {"note": 82, "velocity": 120, "duration": 480}, {"note": 77, "velocity": 116, "duration": 480}, {"note": 78, "velocity": 113, "duration": 122}, {"note": 80, "velocity": 110, "duration": 240}, {"note": 75, "velocity": 114, "duration": 600}, {"note": 84, "velocity": 114, "duration": 120}, {"note": 82, "velocity": 98, "duration": 135}, {"note": 84, "velocity": 108, "duration": 120}, {"note": 82, "velocity": 100, "duration": 143}, {"note": 84, "velocity": 119, "duration": 128}, {"note": 80, "velocity": 114, "duration": 240}, {"note": 75, "velocity": 104, "duration": 120}, {"note": 78, "velocity": 114, "duration": 281}, {"note": 77, "velocity": 110, "duration": 480}, {"note": 82, "velocity": 110, "duration": 174}, {"note": 80, "velocity": 100, "duration": 120}, {"note": 82, "velocity": 116, "duration": 240}, {"note": 80, "velocity": 102, "duration": 120}, {"note": 82, "velocity": 114, "duration": 360}, {"note": 73, "velocity": 110, "duration": 240}, {"note": 75, "velocity": 114, "duration": 240}, {"note": 77, "velocity": 108, "duration": 127}, {"note": 75, "velocity": 113, "duration": 360}, {"note": 77, "velocity": 114, "duration": 120}, {"note": 75, "velocity": 104, "duration": 120}, {"note": 77, "velocity": 117, "duration": 240}, {"note": 75, "velocity": 107, "duration": 120}, {"note": 77, "velocity": 113, "duration": 480}, {"note": 75, "velocity": 104, "duration": 120}, {"note": 77, "velocity": 113, "duration": 240}, {"note": 75, "velocity": 108, "duration": 132}, {"note": 73, "velocity": 108, "duration": 240}, {"note": 75, "velocity": 117, "duration": 360}, {"note": 70, "velocity": 104, "duration": 358}, {"note": 0, "velocity": 0, "duration": 1562}, {"note": 73, "velocity": 114, "duration": 120}, {"note": 72, "velocity": 92, "duration": 120}, {"note": 73, "velocity": 92, "duration": 130}, {"note": 72, "velocity": 93, "duration": 147}, {"note": 73, "velocity": 96, "duration": 240}, {"note": 70, "velocity": 102, "duration": 121}, {"note": 73, "velocity": 110, "duration": 600}, {"note": 75, "velocity": 113, "duration": 240}, {"note": 73, "velocity": 102, "duration": 240}, {"note": 72, "velocity": 102, "duration": 171}, {"note": 70, "velocity": 89, "duration": 120}, {"note": 72, "velocity": 96, "duration": 122}, {"note": 70, "velocity": 91, "duration": 140}, {"note": 72, "velocity": 108, "duration": 240}, {"note": 68, "velocity": 102, "duration": 135}, {"note": 72, "velocity": 110, "duration": 1080}, {"note": 73, "velocity": 107, "duration": 120}, {"note": 72, "velocity": 91, "duration": 131}, {"note": 73, "velocity": 96, "duration": 120}, {"note": 72, "velocity": 96, "duration": 151}, {"note": 73, "velocity": 107, "duration": 240}, {"note": 70, "velocity": 94, "duration": 120}, {"note": 73, "velocity": 107, "duration": 600}, {"note": 75, "velocity": 107, "duration": 240}, {"note": 73, "velocity": 96, "duration": 240}, {"note": 72, "velocity": 108, "duration": 120}, {"note": 70, "velocity": 89, "duration": 139}, {"note": 72, "velocity": 92, "duration": 129}, {"note": 70, "velocity": 90, "duration": 137}, {"note": 72, "velocity": 104, "duration": 240}, {"note": 68, "velocity": 91, "duration": 240}, {"note": 77, "velocity": 93, "duration": 960}, {"note": 78, "velocity": 110, "duration": 120}, {"note": 77, "velocity": 93, "duration": 120}, {"note": 78, "velocity": 94, "duration": 120}, {"note": 77, "velocity": 92, "duration": 128}, {"note": 78, "velocity": 104, "duration": 240}, {"note": 70, "velocity": 84, "duration": 120}, {"note": 77, "velocity": 107, "duration": 240}, {"note": 75, "velocity": 102, "duration": 840}, {"note": 77, "velocity": 107, "duration": 120}, {"note": 75, "velocity": 91, "duration": 128}, {"note": 77, "velocity": 96, "duration": 120}, {"note": 75, "velocity": 92, "duration": 131}, {"note": 77, "velocity": 108, "duration": 240}, {"note": 75, "velocity": 98, "duration": 119}, {"note": 75, "velocity": 104, "duration": 240}, {"note": 73, "velocity": 96, "duration": 840}, {"note": 75, "velocity": 108, "duration": 120}, {"note": 73, "velocity": 87, "duration": 127}, {"note": 75, "velocity": 96, "duration": 120}, {"note": 73, "velocity": 87, "duration": 120}, {"note": 75, "velocity": 102, "duration": 240}, {"note": 77, "velocity": 92, "duration": 120}, {"note": 75, "velocity": 96, "duration": 360}, {"note": 72, "velocity": 94, "duration": 239}, {"note": 72, "velocity": 102, "duration": 136}, {"note": 73, "velocity": 89, "duration": 240}, {"note": 72, "velocity": 96, "duration": 152}, {"note": 70, "velocity": 96, "duration": 480}, {"note": 0, "velocity": 0, "duration": 960}, {"note": 70, "velocity": 117, "duration": 129}, {"note": 72, "velocity": 108, "duration": 120}, {"note": 73, "velocity": 104, "duration": 120}, {"note": 77, "velocity": 114, "duration": 120}, {"note": 82, "velocity": 120, "duration": 480}, {"note": 77, "velocity": 116, "duration": 480}, {"note": 78, "velocity": 113, "duration": 122}, {"note": 80, "velocity": 110, "duration": 240}, {"note": 75, "velocity": 114, "duration": 600}, {"note": 84, "velocity": 114, "duration": 120}, {"note": 82, "velocity": 98, "duration": 135}, {"note": 84, "velocity": 108, "duration": 120}, {"note": 82, "velocity": 100, "duration": 143}, {"note": 84, "velocity": 119, "duration": 128}, {"note": 80, "velocity": 114, "duration": 240}, {"note": 75, "velocity": 104, "duration": 120}, {"note": 78, "velocity": 114, "duration": 281}, {"note": 77, "velocity": 110, "duration": 480}, {"note": 82, "velocity": 110, "duration": 174}, {"note": 80, "velocity": 100, "duration": 120}, {"note": 82, "velocity": 116, "duration": 240}, {"note": 80, "velocity": 102, "duration": 120}, {"note": 82, "velocity": 114, "duration": 360}, {"note": 73, "velocity": 110, "duration": 240}, {"note": 75, "velocity": 114, "duration": 240}, {"note": 77, "velocity": 108, "duration": 127}, {"note": 75, "velocity": 113, "duration": 360}, {"note": 77, "velocity": 114, "duration": 120}, {"note": 75, "velocity": 104, "duration": 120}, {"note": 77, "velocity": 117, "duration": 239}, {"note": 77, "velocity": 107, "duration": 119}, {"note": 77, "velocity": 113, "duration": 360}, {"note": 75, "velocity": 110, "duration": 120}, {"note": 77, "velocity": 114, "duration": 600}, {"note": 70, "velocity": 117, "duration": 129}, {"note": 72, "velocity": 108, "duration": 120}, {"note": 73, "velocity": 104, "duration": 120}, {"note": 77, "velocity": 114, "duration": 120}, {"note": 82, "velocity": 120, "duration": 480}, {"note": 77, "velocity": 116, "duration": 480}, {"note": 78, "velocity": 113, "duration": 122}, {"note": 80, "velocity": 110, "duration": 240}, {"note": 75, "velocity": 114, "duration": 600}, {"note": 84, "velocity": 114, "duration": 120}, {"note": 82, "velocity": 98, "duration": 135}, {"note": 84, "velocity": 108, "duration": 120}, {"note": 82, "velocity": 100, "duration": 143}, {"note": 84, "velocity": 119, "duration": 128}, {"note": 80, "velocity": 114, "duration": 240}, {"note": 75, "velocity": 104, "duration": 120}, {"note": 78, "velocity": 114, "duration": 281}, {"note": 77, "velocity": 110, "duration": 480}, {"note": 82, "velocity": 110, "duration": 174}, {"note": 80, "velocity": 100, "duration": 120}, {"note": 82, "velocity": 116, "duration": 240}, {"note": 80, "velocity": 102, "duration": 120}, {"note": 82, "velocity": 114, "duration": 360}, {"note": 73, "velocity": 110, "duration": 240}, {"note": 75, "velocity": 114, "duration": 125}, {"note": 77, "velocity": 108, "duration": 240}, {"note": 75, "velocity": 113, "duration": 360}, {"note": 77, "velocity": 114, "duration": 120}, {"note": 75, "velocity": 104, "duration": 120}, {"note": 77, "velocity": 117, "duration": 240}, {"note": 75, "velocity": 107, "duration": 120}, {"note": 77, "velocity": 113, "duration": 480}, {"note": 75, "velocity": 104, "duration": 120}, {"note": 77, "velocity": 113, "duration": 240}, {"note": 75, "velocity": 108, "duration": 132}, {"note": 73, "velocity": 108, "duration": 240}, {"note": 75, "velocity": 117, "duration": 360}, {"note": 70, "velocity": 104, "duration": 358}, {"note": 0, "velocity": 0, "duration": 1082}, {"note": 70, "velocity": 117, "duration": 129}, {"note": 72, "velocity": 108, "duration": 120}, {"note": 73, "velocity": 104, "duration": 120}, {"note": 77, "velocity": 114, "duration": 120}, {"note": 82, "velocity": 120, "duration": 480}, {"note": 77, "velocity": 116, "duration": 480}, {"note": 78, "velocity": 113, "duration": 122}, {"note": 80, "velocity": 110, "duration": 240}, {"note": 75, "velocity": 114, "duration": 600}, {"note": 84, "velocity": 114, "duration": 120}, {"note": 82, "velocity": 98, "duration": 135}, {"note": 84, "velocity": 108, "duration": 120}, {"note": 82, "velocity": 100, "duration": 143}, {"note": 84, "velocity": 119, "duration": 128}, {"note": 80, "velocity": 114, "duration": 240}, {"note": 75, "velocity": 104, "duration": 120}, {"note": 78, "velocity": 114, "duration": 281}, {"note": 77, "velocity": 110, "duration": 480}, {"note": 82, "velocity": 110, "duration": 174}, {"note": 80, "velocity": 100, "duration": 120}, {"note": 82, "velocity": 116, "duration": 240}, {"note": 80, "velocity": 102, "duration": 120}, {"note": 82, "velocity": 114, "duration": 360}, {"note": 73, "velocity": 110, "duration": 240}, {"note": 75, "velocity": 114, "duration": 125}, {"note": 77, "velocity": 108, "duration": 240}, {"note": 75, "velocity": 113, "duration": 360}, {"note": 77, "velocity": 114, "duration": 120}, {"note": 75, "velocity": 104, "duration": 120}, {"note": 77, "velocity": 117, "duration": 239}, {"note": 77, "velocity": 107, "duration": 119}, {"note": 77, "velocity": 113, "duration": 360}, {"note": 75, "velocity": 110, "duration": 120}, {"note": 77, "velocity": 114, "duration": 600}, {"note": 70, "velocity": 117, "duration": 129}, {"note": 72, "velocity": 108, "duration": 120}, {"note": 73, "velocity": 104, "duration": 120}, {"note": 77, "velocity": 114, "duration": 120}, {"note": 82, "velocity": 120, "duration": 480}, {"note": 77, "velocity": 116, "duration": 480}, {"note": 78, "velocity": 113, "duration": 122}, {"note": 80, "velocity": 110, "duration": 240}, {"note": 75, "velocity": 114, "duration": 600}, {"note": 84, "velocity": 114, "duration": 120}, {"note": 82, "velocity": 98, "duration": 135}, {"note": 84, "velocity": 108, "duration": 120}, {"note": 82, "velocity": 100, "duration": 143}, {"note": 84, "velocity": 119, "duration": 128}, {"note": 80, "velocity": 114, "duration": 240}, {"note": 75, "velocity": 104, "duration": 120}, {"note": 78, "velocity": 114, "duration": 281}, {"note": 77, "velocity": 110, "duration": 480}, {"note": 82, "velocity": 110, "duration": 174}, {"note": 80, "velocity": 100, "duration": 120}, {"note": 82, "velocity": 116, "duration": 240}, {"note": 80, "velocity": 102, "duration": 120}, {"note": 82, "velocity": 114, "duration": 360}, {"note": 73, "velocity": 110, "duration": 240}, {"note": 75, "velocity": 114, "duration": 125}, {"note": 77, "velocity": 108, "duration": 240}, {"note": 75, "velocity": 113, "duration": 360}, {"note": 77, "velocity": 114, "duration": 120}, {"note": 75, "velocity": 104, "duration": 120}, {"note": 77, "velocity": 117, "duration": 240}, {"note": 75, "velocity": 107, "duration": 120}, {"note": 77, "velocity": 113, "duration": 480}, {"note": 75, "velocity": 104, "duration": 120}, {"note": 77, "velocity": 113, "duration": 240}, {"note": 75, "velocity": 108, "duration": 132}, {"note": 73, "velocity": 108, "duration": 240}, {"note": 75, "velocity": 117, "duration": 360}, {"note": 70, "velocity": 104, "duration": 358}]]