[[{"note": 67, "velocity": 114, "duration": 239}, {"note": 67, "velocity": 102, "duration": 119}, {"note": 67, "velocity": 116, "duration": 480}, {"note": 58, "velocity": 96, "duration": 120}, {"note": 67, "velocity": 113, "duration": 240}, {"note": 65, "velocity": 98, "duration": 119}, {"note": 65, "velocity": 117, "duration": 359}, {"note": 65, "velocity": 113, "duration": 120}, {"note": 67, "velocity": 110, "duration": 120}, {"note": 65, "velocity": 113, "duration": 149}, {"note": 63, "velocity": 107, "duration": 1800}, {"note": 72, "velocity": 113, "duration": 239}, {"note": 72, "velocity": 110, "duration": 119}, {"note": 72, "velocity": 114, "duration": 480}, {"note": 63, "velocity": 107, "duration": 120}, {"note": 72, "velocity": 113, "duration": 240}, {"note": 70, "velocity": 113, "duration": 119}, {"note": 70, "velocity": 117, "duration": 360}, {"note": 72, "velocity": 113, "duration": 240}, {"note": 70, "velocity": 107, "duration": 120}, {"note": 67, "velocity": 110, "duration": 1440}, {"note": 63, "velocity": 91, "duration": 120}, {"note": 65, "velocity": 91, "duration": 120}, {"note": 63, "velocity": 93, "duration": 120}, {"note": 72, "velocity": 104, "duration": 239}, {"note": 72, "velocity": 108, "duration": 119}, {"note": 72, "velocity": 116, "duration": 240}, {"note": 70, "velocity": 108, "duration": 120}, {"note": 72, "velocity": 104, "duration": 120}, {"note": 70, "velocity": 107, "duration": 120}, {"note": 75, "velocity": 117, "duration": 240}, {"note": 77, "velocity": 108, "duration": 120}, {"note": 74, "velocity": 116, "duration": 240}, {"note": 72, "velocity": 113, "duration": 360}, {"note": 70, "velocity": 114, "duration": 240}, {"note": 72, "velocity": 96, "duration": 120}, {"note": 67, "velocity": 110, "duration": 360}, {"note": 65, "velocity": 114, "duration": 300}, {"note": 63, "velocity": 113, "duration": 360}, {"note": 58, "velocity": 90, "duration": 120}, {"note": 67, "velocity": 107, "duration": 240}, {"note": 65, "velocity": 96, "duration": 137}, {"note": 63, "velocity": 93, "duration": 132}, {"note": 65, "velocity": 93, "duration": 239}, {"note": 65, "velocity": 92, "duration": 1080}, {"note": 67, "velocity": 91, "duration": 122}, {"note": 65, "velocity": 88, "duration": 154}, {"note": 63, "velocity": 88, "duration": 122}, {"note": 60, "velocity": 89, "duration": 125}, {"note": 58, "velocity": 74, "duration": 120}, {"note": 65, "velocity": 98, "duration": 360}, {"note": 63, "velocity": 90, "duration": 1560}, {"note": 67, "velocity": 114, "duration": 239}, {"note": 67, "velocity": 102, "duration": 119}, {"note": 67, "velocity": 116, "duration": 480}, {"note": 58, "velocity": 96, "duration": 120}, {"note": 67, "velocity": 113, "duration": 240}, {"note": 65, "velocity": 98, "duration": 119}, {"note": 65, "velocity": 117, "duration": 359}, {"note": 65, "velocity": 113, "duration": 120}, {"note": 67, "velocity": 110, "duration": 120}, {"note": 65, "velocity": 113, "duration": 149}, {"note": 63, "velocity": 107, "duration": 1800}, {"note": 72, "velocity": 113, "duration": 239}, {"note": 72, "velocity": 110, "duration": 119}, {"note": 72, "velocity": 114, "duration": 480}, {"note": 63, "velocity": 107, "duration": 120}, {"note": 72, "velocity": 113, "duration": 240}, {"note": 70, "velocity": 113, "duration": 119}, {"note": 70, "velocity": 117, "duration": 360}, {"note": 72, "velocity": 113, "duration": 240}, {"note": 70, "velocity": 107, "duration": 120}, {"note": 67, "velocity": 110, "duration": 1440}, {"note": 63, "velocity": 91, "duration": 120}, {"note": 65, "velocity": 91, "duration": 120}, {"note": 63, "velocity": 93, "duration": 120}, {"note": 72, "velocity": 104, "duration": 239}, {"note": 72, "velocity": 108, "duration": 119}, {"note": 72, "velocity": 116, "duration": 240}, {"note": 70, "velocity": 108, "duration": 120}, {"note": 72, "velocity": 104, "duration": 120}, {"note": 70, "velocity": 107, "duration": 120}, {"note": 75, "velocity": 117, "duration": 240}, {"note": 77, "velocity": 108, "duration": 120}, {"note": 74, "velocity": 116, "duration": 240}, {"note": 72, "velocity": 113, "duration": 360}, {"note": 70, "velocity": 114, "duration": 240}, {"note": 72, "velocity": 96, "duration": 120}, {"note": 67, "velocity": 110, "duration": 360}, {"note": 65, "velocity": 114, "duration": 300}, {"note": 63, "velocity": 113, "duration": 360}, {"note": 58, "velocity": 90, "duration": 120}, {"note": 67, "velocity": 107, "duration": 240}, {"note": 65, "velocity": 96, "duration": 137}, {"note": 63, "velocity": 93, "duration": 132}, {"note": 65, "velocity": 93, "duration": 239}, {"note": 65, "velocity": 92, "duration": 1080}, {"note": 67, "velocity": 91, "duration": 122}, {"note": 65, "velocity": 88, "duration": 154}, {"note": 63, "velocity": 88, "duration": 122}, {"note": 60, "velocity": 89, "duration": 125}, {"note": 58, "velocity": 74, "duration": 120}, {"note": 65, "velocity": 98, "duration": 360}, {"note": 63, "velocity": 90, "duration": 1560}, {"note": 75, "velocity": 117, "duration": 119}, {"note": 75, "velocity": 107, "duration": 119}, {"note": 75, "velocity": 108, "duration": 119}, {"note": 75, "velocity": 110, "duration": 119}, {"note": 75, "velocity": 110, "duration": 119}, {"note": 75, "velocity": 117, "duration": 240}, {"note": 70, "velocity": 108, "duration": 120}, {"note": 77, "velocity": 114, "duration": 119}, {"note": 77, "velocity": 98, "duration": 119}, {"note": 77, "velocity": 110, "duration": 120}, {"note": 74, "velocity": 110, "duration": 120}, {"note": 72, "velocity": 107, "duration": 120}, {"note": 70, "velocity": 108, "duration": 360}, {"note": 72, "velocity": 116, "duration": 120}, {"note": 75, "velocity": 116, "duration": 119}, {"note": 75, "velocity": 108, "duration": 119}, {"note": 75, "velocity": 114, "duration": 119}, {"note": 75, "velocity": 119, "duration": 239}, {"note": 75, "velocity": 108, "duration": 120}, {"note": 67, "velocity": 114, "duration": 240}, {"note": 70, "velocity": 113, "duration": 479}, {"note": 70, "velocity": 114, "duration": 119}, {"note": 70, "velocity": 102, "duration": 119}, {"note": 70, "velocity": 108, "duration": 120}, {"note": 72, "velocity": 114, "duration": 120}, {"note": 75, "velocity": 113, "duration": 239}, {"note": 75, "velocity": 116, "duration": 151}, {"note": 75, "velocity": 114, "duration": 31}, {"note": 0, "velocity": 0, "duration": 209}, {"note": 72, "velocity": 116, "duration": 240}, {"note": 70, "velocity": 117, "duration": 599}, {"note": 70, "velocity": 114, "duration": 120}, {"note": 72, "velocity": 110, "duration": 120}, {"note": 70, "velocity": 113, "duration": 120}, {"note": 72, "velocity": 113, "duration": 120}, {"note": 75, "velocity": 116, "duration": 239}, {"note": 75, "velocity": 116, "duration": 119}, {"note": 75, "velocity": 113, "duration": 240}, {"note": 79, "velocity": 119, "duration": 240}, {"note": 77, "velocity": 117, "duration": 960}, {"note": 75, "velocity": 117, "duration": 119}, {"note": 75, "velocity": 107, "duration": 119}, {"note": 75, "velocity": 108, "duration": 119}, {"note": 75, "velocity": 110, "duration": 119}, {"note": 75, "velocity": 110, "duration": 119}, {"note": 75, "velocity": 117, "duration": 240}, {"note": 70, "velocity": 108, "duration": 120}, {"note": 77, "velocity": 114, "duration": 119}, {"note": 77, "velocity": 98, "duration": 119}, {"note": 77, "velocity": 110, "duration": 120}, {"note": 74, "velocity": 110, "duration": 120}, {"note": 72, "velocity": 107, "duration": 120}, {"note": 70, "velocity": 108, "duration": 360}, {"note": 72, "velocity": 116, "duration": 120}, {"note": 75, "velocity": 116, "duration": 119}, {"note": 75, "velocity": 108, "duration": 119}, {"note": 75, "velocity": 114, "duration": 119}, {"note": 75, "velocity": 119, "duration": 239}, {"note": 75, "velocity": 108, "duration": 120}, {"note": 67, "velocity": 114, "duration": 240}, {"note": 70, "velocity": 113, "duration": 479}, {"note": 70, "velocity": 114, "duration": 119}, {"note": 70, "velocity": 102, "duration": 119}, {"note": 70, "velocity": 108, "duration": 120}, {"note": 72, "velocity": 114, "duration": 120}, {"note": 75, "velocity": 113, "duration": 239}, {"note": 75, "velocity": 116, "duration": 151}, {"note": 75, "velocity": 114, "duration": 31}, {"note": 0, "velocity": 0, "duration": 209}, {"note": 72, "velocity": 116, "duration": 240}, {"note": 70, "velocity": 117, "duration": 599}, {"note": 70, "velocity": 114, "duration": 120}, {"note": 72, "velocity": 110, "duration": 120}, {"note": 70, "velocity": 113, "duration": 120}, {"note": 72, "velocity": 113, "duration": 120}, {"note": 75, "velocity": 116, "duration": 239}, {"note": 75, "velocity": 116, "duration": 120}, {"note": 79, "velocity": 117, "duration": 240}, {"note": 77, "velocity": 113, "duration": 240}, {"note": 75, "velocity": 114, "duration": 240}, {"note": 0, "velocity": 0, "duration": 9360}, {"note": 67, "velocity": 114, "duration": 239}, {"note": 67, "velocity": 102, "duration": 119}, {"note": 67, "velocity": 116, "duration": 480}, {"note": 58, "velocity": 96, "duration": 120}, {"note": 67, "velocity": 113, "duration": 240}, {"note": 65, "velocity": 98, "duration": 119}, {"note": 65, "velocity": 117, "duration": 359}, {"note": 65, "velocity": 113, "duration": 120}, {"note": 67, "velocity": 110, "duration": 120}, {"note": 65, "velocity": 113, "duration": 149}, {"note": 63, "velocity": 107, "duration": 1800}, {"note": 72, "velocity": 113, "duration": 239}, {"note": 72, "velocity": 110, "duration": 119}, {"note": 72, "velocity": 114, "duration": 480}, {"note": 63, "velocity": 107, "duration": 120}, {"note": 72, "velocity": 113, "duration": 240}, {"note": 70, "velocity": 113, "duration": 119}, {"note": 70, "velocity": 117, "duration": 360}, {"note": 72, "velocity": 113, "duration": 240}, {"note": 70, "velocity": 107, "duration": 120}, {"note": 67, "velocity": 110, "duration": 1440}, {"note": 63, "velocity": 91, "duration": 120}, {"note": 65, "velocity": 91, "duration": 120}, {"note": 63, "velocity": 93, "duration": 120}, {"note": 72, "velocity": 104, "duration": 239}, {"note": 72, "velocity": 108, "duration": 119}, {"note": 72, "velocity": 116, "duration": 240}, {"note": 70, "velocity": 108, "duration": 120}, {"note": 72, "velocity": 104, "duration": 120}, {"note": 70, "velocity": 107, "duration": 120}, {"note": 75, "velocity": 117, "duration": 240}, {"note": 77, "velocity": 108, "duration": 120}, {"note": 74, "velocity": 116, "duration": 240}, {"note": 72, "velocity": 113, "duration": 360}, {"note": 70, "velocity": 114, "duration": 240}, {"note": 72, "velocity": 96, "duration": 120}, {"note": 67, "velocity": 110, "duration": 360}, {"note": 65, "velocity": 114, "duration": 300}, {"note": 63, "velocity": 113, "duration": 360}, {"note": 58, "velocity": 90, "duration": 120}, {"note": 67, "velocity": 107, "duration": 240}, {"note": 65, "velocity": 96, "duration": 137}, {"note": 63, "velocity": 93, "duration": 132}, {"note": 65, "velocity": 93, "duration": 239}, {"note": 65, "velocity": 92, "duration": 1080}, {"note": 67, "velocity": 91, "duration": 122}, {"note": 65, "velocity": 88, "duration": 154}, {"note": 63, "velocity": 88, "duration": 122}, {"note": 60, "velocity": 89, "duration": 125}, {"note": 58, "velocity": 74, "duration": 120}, {"note": 65, "velocity": 98, "duration": 360}, {"note": 63, "velocity": 90, "duration": 600}, {"note": 0, "velocity": 0, "duration": 960}, {"note": 75, "velocity": 117, "duration": 119}, {"note": 75, "velocity": 107, "duration": 119}, {"note": 75, "velocity": 108, "duration": 119}, {"note": 75, "velocity": 110, "duration": 119}, {"note": 75, "velocity": 110, "duration": 119}, {"note": 75, "velocity": 117, "duration": 240}, {"note": 70, "velocity": 108, "duration": 120}, {"note": 77, "velocity": 114, "duration": 119}, {"note": 77, "velocity": 98, "duration": 119}, {"note": 77, "velocity": 110, "duration": 120}, {"note": 74, "velocity": 110, "duration": 120}, {"note": 72, "velocity": 107, "duration": 120}, {"note": 70, "velocity": 108, "duration": 360}, {"note": 72, "velocity": 116, "duration": 120}, {"note": 75, "velocity": 116, "duration": 119}, {"note": 75, "velocity": 108, "duration": 119}, {"note": 75, "velocity": 114, "duration": 119}, {"note": 75, "velocity": 119, "duration": 239}, {"note": 75, "velocity": 108, "duration": 120}, {"note": 67, "velocity": 114, "duration": 240}, {"note": 70, "velocity": 113, "duration": 479}, {"note": 70, "velocity": 114, "duration": 119}, {"note": 70, "velocity": 102, "duration": 119}, {"note": 70, "velocity": 108, "duration": 120}, {"note": 72, "velocity": 114, "duration": 120}, {"note": 75, "velocity": 113, "duration": 239}, {"note": 75, "velocity": 116, "duration": 151}, {"note": 75, "velocity": 114, "duration": 31}, {"note": 0, "velocity": 0, "duration": 209}, {"note": 72, "velocity": 116, "duration": 240}, {"note": 70, "velocity": 117, "duration": 599}, {"note": 70, "velocity": 114, "duration": 120}, {"note": 72, "velocity": 110, "duration": 120}, {"note": 70, "velocity": 113, "duration": 120}, {"note": 72, "velocity": 113, "duration": 120}, {"note": 75, "velocity": 116, "duration": 239}, {"note": 75, "velocity": 116, "duration": 119}, {"note": 75, "velocity": 113, "duration": 240}, {"note": 79, "velocity": 119, "duration": 240}, {"note": 77, "velocity": 117, "duration": 960}, {"note": 75, "velocity": 117, "duration": 119}, {"note": 75, "velocity": 107, "duration": 119}, {"note": 75, "velocity": 108, "duration": 119}, {"note": 75, "velocity": 110, "duration": 119}, {"note": 75, "velocity": 110, "duration": 119}, {"note": 75, "velocity": 117, "duration": 240}, {"note": 70, "velocity": 108, "duration": 120}, {"note": 77, "velocity": 114, "duration": 119}, {"note": 77, "velocity": 98, "duration": 119}, {"note": 77, "velocity": 110, "duration": 120}, {"note": 74, "velocity": 110, "duration": 120}, {"note": 72, "velocity": 107, "duration": 120}, {"note": 70, "velocity": 108, "duration": 360}, {"note": 72, "velocity": 116, "duration": 120}, {"note": 75, "velocity": 116, "duration": 119}, {"note": 75, "velocity": 108, "duration": 119}, {"note": 75, "velocity": 114, "duration": 119}, {"note": 75, "velocity": 119, "duration": 239}, {"note": 75, "velocity": 108, "duration": 120}, {"note": 67, "velocity": 114, "duration": 240}, {"note": 70, "velocity": 113, "duration": 479}, {"note": 70, "velocity": 114, "duration": 119}, {"note": 70, "velocity": 102, "duration": 119}, {"note": 70, "velocity": 108, "duration": 120}, {"note": 72, "velocity": 114, "duration": 120}, {"note": 75, "velocity": 113, "duration": 239}, {"note": 75, "velocity": 116, "duration": 151}, {"note": 75, "velocity": 114, "duration": 31}, {"note": 0, "velocity": 0, "duration": 209}, {"note": 72, "velocity": 116, "duration": 240}, {"note": 70, "velocity": 117, "duration": 599}, {"note": 70, "velocity": 114, "duration": 120}, {"note": 72, "velocity": 110, "duration": 120}, {"note": 70, "velocity": 113, "duration": 120}, {"note": 72, "velocity": 113, "duration": 120}, {"note": 75, "velocity": 116, "duration": 239}, {"note": 75, "velocity": 116, "duration": 120}, {"note": 79, "velocity": 117, "duration": 240}, {"note": 77, "velocity": 113, "duration": 240}, {"note": 75, "velocity": 114, "duration": 240}, {"note": 0, "velocity": 0, "duration": 4560}, {"note": 76, "velocity": 117, "duration": 119}, {"note": 76, "velocity": 107, "duration": 119}, {"note": 76, "velocity": 108, "duration": 119}, {"note": 76, "velocity": 110, "duration": 119}, {"note": 76, "velocity": 110, "duration": 119}, {"note": 76, "velocity": 117, "duration": 240}, {"note": 71, "velocity": 108, "duration": 120}, {"note": 78, "velocity": 114, "duration": 119}, {"note": 78, "velocity": 98, "duration": 119}, {"note": 78, "velocity": 110, "duration": 120}, {"note": 75, "velocity": 110, "duration": 120}, {"note": 73, "velocity": 107, "duration": 120}, {"note": 71, "velocity": 108, "duration": 360}, {"note": 73, "velocity": 116, "duration": 120}, {"note": 76, "velocity": 116, "duration": 119}, {"note": 76, "velocity": 108, "duration": 119}, {"note": 76, "velocity": 114, "duration": 119}, {"note": 76, "velocity": 119, "duration": 239}, {"note": 76, "velocity": 108, "duration": 120}, {"note": 68, "velocity": 114, "duration": 240}, {"note": 71, "velocity": 113, "duration": 479}, {"note": 71, "velocity": 114, "duration": 119}, {"note": 71, "velocity": 102, "duration": 119}, {"note": 71, "velocity": 108, "duration": 120}, {"note": 73, "velocity": 114, "duration": 120}, {"note": 76, "velocity": 113, "duration": 239}, {"note": 76, "velocity": 116, "duration": 151}, {"note": 76, "velocity": 114, "duration": 31}, {"note": 0, "velocity": 0, "duration": 209}, {"note": 73, "velocity": 116, "duration": 240}, {"note": 71, "velocity": 117, "duration": 599}, {"note": 71, "velocity": 114, "duration": 120}, {"note": 73, "velocity": 110, "duration": 120}, {"note": 71, "velocity": 113, "duration": 120}, {"note": 73, "velocity": 113, "duration": 120}, {"note": 76, "velocity": 116, "duration": 239}, {"note": 76, "velocity": 116, "duration": 119}, {"note": 76, "velocity": 113, "duration": 240}, {"note": 80, "velocity": 119, "duration": 240}, {"note": 78, "velocity": 117, "duration": 960}, {"note": 76, "velocity": 117, "duration": 119}, {"note": 76, "velocity": 107, "duration": 119}, {"note": 76, "velocity": 108, "duration": 119}, {"note": 76, "velocity": 110, "duration": 119}, {"note": 76, "velocity": 110, "duration": 119}, {"note": 76, "velocity": 117, "duration": 240}, {"note": 71, "velocity": 108, "duration": 120}, {"note": 78, "velocity": 114, "duration": 119}, {"note": 78, "velocity": 98, "duration": 119}, {"note": 78, "velocity": 110, "duration": 120}, {"note": 75, "velocity": 110, "duration": 120}, {"note": 73, "velocity": 107, "duration": 120}, {"note": 71, "velocity": 108, "duration": 360}, {"note": 73, "velocity": 116, "duration": 120}, {"note": 76, "velocity": 116, "duration": 119}, {"note": 76, "velocity": 108, "duration": 119}, {"note": 76, "velocity": 114, "duration": 119}, {"note": 76, "velocity": 119, "duration": 239}, {"note": 76, "velocity": 108, "duration": 120}, {"note": 68, "velocity": 114, "duration": 240}, {"note": 71, "velocity": 113, "duration": 479}, {"note": 71, "velocity": 114, "duration": 119}, {"note": 71, "velocity": 102, "duration": 119}, {"note": 71, "velocity": 108, "duration": 120}, {"note": 73, "velocity": 114, "duration": 120}, {"note": 76, "velocity": 113, "duration": 239}, {"note": 76, "velocity": 116, "duration": 151}, {"note": 76, "velocity": 114, "duration": 31}, {"note": 0, "velocity": 0, "duration": 209}, {"note": 73, "velocity": 116, "duration": 240}, {"note": 71, "velocity": 117, "duration": 599}, {"note": 71, "velocity": 114, "duration": 120}, {"note": 73, "velocity": 110, "duration": 120}, {"note": 71, "velocity": 113, "duration": 120}, {"note": 73, "velocity": 113, "duration": 120}, {"note": 76, "velocity": 116, "duration": 239}, {"note": 76, "velocity": 116, "duration": 120}, {"note": 80, "velocity": 117, "duration": 240}, {"note": 78, "velocity": 113, "duration": 240}, {"note": 76, "velocity": 114, "duration": 240}]]