[[{"note": 68, "velocity": 108, "duration": 133}, {"note": 70, "velocity": 93, "duration": 119}, {"note": 70, "velocity": 98, "duration": 120}, {"note": 68, "velocity": 98, "duration": 120}, {"note": 70, "velocity": 107, "duration": 239}, {"note": 70, "velocity": 94, "duration": 120}, {"note": 68, "velocity": 102, "duration": 119}, {"note": 68, "velocity": 87, "duration": 120}, {"note": 70, "velocity": 89, "duration": 119}, {"note": 70, "velocity": 100, "duration": 120}, {"note": 68, "velocity": 98, "duration": 240}, {"note": 70, "velocity": 110, "duration": 2280}, {"note": 68, "velocity": 93, "duration": 121}, {"note": 70, "velocity": 89, "duration": 119}, {"note": 70, "velocity": 91, "duration": 120}, {"note": 68, "velocity": 85, "duration": 119}, {"note": 68, "velocity": 89, "duration": 120}, {"note": 70, "velocity": 89, "duration": 119}, {"note": 70, "velocity": 92, "duration": 120}, {"note": 68, "velocity": 88, "duration": 119}, {"note": 68, "velocity": 100, "duration": 125}, {"note": 70, "velocity": 93, "duration": 119}, {"note": 70, "velocity": 91, "duration": 120}, {"note": 68, "velocity": 91, "duration": 240}, {"note": 70, "velocity": 96, "duration": 1680}, {"note": 66, "velocity": 92, "duration": 120}, {"note": 73, "velocity": 110, "duration": 239}, {"note": 73, "velocity": 108, "duration": 119}, {"note": 73, "velocity": 110, "duration": 360}, {"note": 66, "velocity": 107, "duration": 135}, {"note": 70, "velocity": 113, "duration": 360}, {"note": 68, "velocity": 104, "duration": 120}, {"note": 70, "velocity": 113, "duration": 240}, {"note": 71, "velocity": 116, "duration": 360}, {"note": 73, "velocity": 116, "duration": 239}, {"note": 73, "velocity": 110, "duration": 119}, {"note": 73, "velocity": 116, "duration": 360}, {"note": 70, "velocity": 110, "duration": 119}, {"note": 70, "velocity": 110, "duration": 360}, {"note": 68, "velocity": 104, "duration": 120}, {"note": 70, "velocity": 113, "duration": 240}, {"note": 73, "velocity": 114, "duration": 360}, {"note": 75, "velocity": 117, "duration": 239}, {"note": 75, "velocity": 114, "duration": 119}, {"note": 75, "velocity": 119, "duration": 360}, {"note": 71, "velocity": 116, "duration": 120}, {"note": 70, "velocity": 113, "duration": 360}, {"note": 68, "velocity": 110, "duration": 120}, {"note": 70, "velocity": 114, "duration": 240}, {"note": 71, "velocity": 123, "duration": 360}, {"note": 75, "velocity": 117, "duration": 239}, {"note": 75, "velocity": 113, "duration": 119}, {"note": 75, "velocity": 113, "duration": 360}, {"note": 73, "velocity": 110, "duration": 119}, {"note": 73, "velocity": 116, "duration": 2040}, {"note": 70, "velocity": 114, "duration": 240}, {"note": 73, "velocity": 113, "duration": 240}, {"note": 70, "velocity": 119, "duration": 240}, {"note": 73, "velocity": 114, "duration": 240}, {"note": 80, "velocity": 117, "duration": 960}, {"note": 77, "velocity": 117, "duration": 240}, {"note": 78, "velocity": 114, "duration": 240}, {"note": 77, "velocity": 119, "duration": 240}, {"note": 78, "velocity": 116, "duration": 240}, {"note": 73, "velocity": 117, "duration": 959}, {"note": 73, "velocity": 114, "duration": 135}, {"note": 71, "velocity": 106, "duration": 119}, {"note": 71, "velocity": 116, "duration": 120}, {"note": 70, "velocity": 108, "duration": 120}, {"note": 71, "velocity": 119, "duration": 141}, {"note": 73, "velocity": 114, "duration": 239}, {"note": 73, "velocity": 116, "duration": 240}, {"note": 71, "velocity": 113, "duration": 119}, {"note": 71, "velocity": 113, "duration": 120}, {"note": 70, "velocity": 113, "duration": 120}, {"note": 71, "velocity": 119, "duration": 120}, {"note": 73, "velocity": 113, "duration": 840}, {"note": 75, "velocity": 116, "duration": 157}, {"note": 73, "velocity": 114, "duration": 240}, {"note": 66, "velocity": 114, "duration": 240}, {"note": 68, "velocity": 116, "duration": 840}, {"note": 70, "velocity": 114, "duration": 240}, {"note": 73, "velocity": 113, "duration": 240}, {"note": 70, "velocity": 119, "duration": 240}, {"note": 73, "velocity": 114, "duration": 240}, {"note": 80, "velocity": 117, "duration": 960}, {"note": 77, "velocity": 117, "duration": 240}, {"note": 78, "velocity": 114, "duration": 240}, {"note": 77, "velocity": 119, "duration": 240}, {"note": 78, "velocity": 116, "duration": 240}, {"note": 80, "velocity": 117, "duration": 480}, {"note": 78, "velocity": 117, "duration": 480}, {"note": 82, "velocity": 120, "duration": 960}, {"note": 78, "velocity": 119, "duration": 258}, {"note": 75, "velocity": 113, "duration": 150}, {"note": 73, "velocity": 117, "duration": 360}, {"note": 70, "velocity": 110, "duration": 240}, {"note": 68, "velocity": 114, "duration": 960}, {"note": 70, "velocity": 116, "duration": 240}, {"note": 68, "velocity": 114, "duration": 240}, {"note": 66, "velocity": 114, "duration": 480}, {"note": 65, "velocity": 113, "duration": 240}, {"note": 66, "velocity": 114, "duration": 5040}, {"note": 68, "velocity": 108, "duration": 133}, {"note": 70, "velocity": 93, "duration": 119}, {"note": 70, "velocity": 98, "duration": 120}, {"note": 68, "velocity": 98, "duration": 119}, {"note": 68, "velocity": 107, "duration": 125}, {"note": 70, "velocity": 107, "duration": 125}, {"note": 70, "velocity": 94, "duration": 5}, {"note": 0, "velocity": 0, "duration": 115}, {"note": 68, "velocity": 102, "duration": 119}, {"note": 68, "velocity": 87, "duration": 120}, {"note": 70, "velocity": 89, "duration": 119}, {"note": 70, "velocity": 100, "duration": 120}, {"note": 68, "velocity": 98, "duration": 120}, {"note": 70, "velocity": 110, "duration": 2400}, {"note": 68, "velocity": 93, "duration": 121}, {"note": 70, "velocity": 89, "duration": 119}, {"note": 70, "velocity": 91, "duration": 120}, {"note": 68, "velocity": 85, "duration": 119}, {"note": 68, "velocity": 89, "duration": 120}, {"note": 70, "velocity": 89, "duration": 119}, {"note": 70, "velocity": 92, "duration": 120}, {"note": 73, "velocity": 88, "duration": 120}, {"note": 78, "velocity": 100, "duration": 125}, {"note": 77, "velocity": 93, "duration": 120}, {"note": 75, "velocity": 91, "duration": 120}, {"note": 73, "velocity": 91, "duration": 137}, {"note": 75, "velocity": 96, "duration": 1800}, {"note": 66, "velocity": 92, "duration": 120}, {"note": 73, "velocity": 110, "duration": 239}, {"note": 73, "velocity": 108, "duration": 119}, {"note": 73, "velocity": 110, "duration": 360}, {"note": 66, "velocity": 107, "duration": 135}, {"note": 70, "velocity": 113, "duration": 360}, {"note": 68, "velocity": 104, "duration": 120}, {"note": 70, "velocity": 113, "duration": 240}, {"note": 71, "velocity": 116, "duration": 360}, {"note": 73, "velocity": 116, "duration": 239}, {"note": 73, "velocity": 110, "duration": 119}, {"note": 73, "velocity": 116, "duration": 360}, {"note": 70, "velocity": 110, "duration": 119}, {"note": 70, "velocity": 110, "duration": 360}, {"note": 68, "velocity": 104, "duration": 120}, {"note": 70, "velocity": 113, "duration": 240}, {"note": 73, "velocity": 114, "duration": 360}, {"note": 75, "velocity": 117, "duration": 239}, {"note": 75, "velocity": 114, "duration": 119}, {"note": 75, "velocity": 119, "duration": 360}, {"note": 71, "velocity": 116, "duration": 120}, {"note": 70, "velocity": 113, "duration": 360}, {"note": 68, "velocity": 110, "duration": 120}, {"note": 70, "velocity": 114, "duration": 240}, {"note": 71, "velocity": 123, "duration": 360}, {"note": 78, "velocity": 117, "duration": 239}, {"note": 78, "velocity": 113, "duration": 120}, {"note": 80, "velocity": 113, "duration": 240}, {"note": 77, "velocity": 102, "duration": 120}, {"note": 75, "velocity": 100, "duration": 240}, {"note": 73, "velocity": 113, "duration": 960}, {"note": 70, "velocity": 114, "duration": 240}, {"note": 73, "velocity": 113, "duration": 240}, {"note": 70, "velocity": 119, "duration": 240}, {"note": 73, "velocity": 114, "duration": 240}, {"note": 80, "velocity": 117, "duration": 960}, {"note": 77, "velocity": 117, "duration": 240}, {"note": 78, "velocity": 114, "duration": 240}, {"note": 77, "velocity": 119, "duration": 240}, {"note": 78, "velocity": 116, "duration": 240}, {"note": 73, "velocity": 117, "duration": 959}, {"note": 73, "velocity": 114, "duration": 135}, {"note": 71, "velocity": 106, "duration": 119}, {"note": 71, "velocity": 116, "duration": 120}, {"note": 70, "velocity": 108, "duration": 120}, {"note": 71, "velocity": 119, "duration": 141}, {"note": 73, "velocity": 114, "duration": 239}, {"note": 73, "velocity": 116, "duration": 240}, {"note": 71, "velocity": 113, "duration": 119}, {"note": 71, "velocity": 113, "duration": 120}, {"note": 70, "velocity": 113, "duration": 120}, {"note": 71, "velocity": 119, "duration": 120}, {"note": 73, "velocity": 113, "duration": 840}, {"note": 75, "velocity": 116, "duration": 157}, {"note": 73, "velocity": 114, "duration": 240}, {"note": 66, "velocity": 114, "duration": 240}, {"note": 68, "velocity": 116, "duration": 840}, {"note": 70, "velocity": 114, "duration": 240}, {"note": 73, "velocity": 113, "duration": 240}, {"note": 70, "velocity": 119, "duration": 240}, {"note": 73, "velocity": 114, "duration": 240}, {"note": 80, "velocity": 117, "duration": 960}, {"note": 77, "velocity": 117, "duration": 240}, {"note": 78, "velocity": 114, "duration": 240}, {"note": 77, "velocity": 119, "duration": 240}, {"note": 78, "velocity": 116, "duration": 240}, {"note": 80, "velocity": 117, "duration": 719}, {"note": 80, "velocity": 114, "duration": 240}, {"note": 78, "velocity": 116, "duration": 480}, {"note": 85, "velocity": 116, "duration": 480}, {"note": 78, "velocity": 117, "duration": 960}, {"note": 82, "velocity": 116, "duration": 240}, {"note": 80, "velocity": 108, "duration": 119}, {"note": 80, "velocity": 114, "duration": 360}, {"note": 78, "velocity": 113, "duration": 120}, {"note": 75, "velocity": 113, "duration": 360}, {"note": 73, "velocity": 104, "duration": 959}, {"note": 73, "velocity": 107, "duration": 240}, {"note": 78, "velocity": 117, "duration": 1680}, {"note": 75, "velocity": 114, "duration": 120}, {"note": 77, "velocity": 116, "duration": 240}, {"note": 78, "velocity": 116, "duration": 239}, {"note": 78, "velocity": 114, "duration": 360}, {"note": 77, "velocity": 114, "duration": 120}, {"note": 78, "velocity": 114, "duration": 240}, {"note": 80, "velocity": 117, "duration": 600}, {"note": 70, "velocity": 96, "duration": 120}, {"note": 73, "velocity": 110, "duration": 239}, {"note": 73, "velocity": 107, "duration": 240}, {"note": 77, "velocity": 117, "duration": 360}, {"note": 78, "velocity": 120, "duration": 128}, {"note": 77, "velocity": 108, "duration": 240}, {"note": 73, "velocity": 114, "duration": 600}, {"note": 75, "velocity": 113, "duration": 120}, {"note": 77, "velocity": 114, "duration": 240}, {"note": 78, "velocity": 117, "duration": 600}, {"note": 75, "velocity": 108, "duration": 120}, {"note": 77, "velocity": 113, "duration": 240}, {"note": 78, "velocity": 114, "duration": 240}, {"note": 73, "velocity": 94, "duration": 120}, {"note": 82, "velocity": 116, "duration": 600}, {"note": 83, "velocity": 116, "duration": 120}, {"note": 82, "velocity": 110, "duration": 240}, {"note": 80, "velocity": 116, "duration": 3360}, {"note": 72, "velocity": 114, "duration": 240}, {"note": 75, "velocity": 113, "duration": 240}, {"note": 72, "velocity": 119, "duration": 240}, {"note": 75, "velocity": 114, "duration": 240}, {"note": 82, "velocity": 117, "duration": 960}, {"note": 79, "velocity": 117, "duration": 240}, {"note": 80, "velocity": 114, "duration": 240}, {"note": 79, "velocity": 119, "duration": 240}, {"note": 80, "velocity": 116, "duration": 240}, {"note": 75, "velocity": 117, "duration": 959}, {"note": 75, "velocity": 114, "duration": 135}, {"note": 73, "velocity": 106, "duration": 119}, {"note": 73, "velocity": 116, "duration": 120}, {"note": 72, "velocity": 108, "duration": 120}, {"note": 73, "velocity": 119, "duration": 141}, {"note": 75, "velocity": 114, "duration": 239}, {"note": 75, "velocity": 116, "duration": 240}, {"note": 73, "velocity": 113, "duration": 119}, {"note": 73, "velocity": 113, "duration": 120}, {"note": 72, "velocity": 113, "duration": 120}, {"note": 73, "velocity": 119, "duration": 120}, {"note": 75, "velocity": 113, "duration": 840}, {"note": 77, "velocity": 116, "duration": 157}, {"note": 75, "velocity": 114, "duration": 240}, {"note": 68, "velocity": 114, "duration": 240}, {"note": 70, "velocity": 116, "duration": 840}, {"note": 72, "velocity": 114, "duration": 240}, {"note": 75, "velocity": 113, "duration": 240}, {"note": 72, "velocity": 119, "duration": 240}, {"note": 75, "velocity": 114, "duration": 240}, {"note": 82, "velocity": 117, "duration": 960}, {"note": 79, "velocity": 117, "duration": 240}, {"note": 80, "velocity": 114, "duration": 240}, {"note": 79, "velocity": 119, "duration": 240}, {"note": 80, "velocity": 116, "duration": 240}, {"note": 82, "velocity": 117, "duration": 719}, {"note": 82, "velocity": 114, "duration": 240}, {"note": 80, "velocity": 116, "duration": 480}, {"note": 87, "velocity": 116, "duration": 480}, {"note": 80, "velocity": 117, "duration": 960}, {"note": 84, "velocity": 116, "duration": 240}, {"note": 82, "velocity": 108, "duration": 119}, {"note": 82, "velocity": 114, "duration": 360}, {"note": 80, "velocity": 113, "duration": 120}, {"note": 77, "velocity": 113, "duration": 360}, {"note": 75, "velocity": 104, "duration": 2640}, {"note": 84, "velocity": 114, "duration": 240}, {"note": 87, "velocity": 110, "duration": 119}, {"note": 87, "velocity": 85, "duration": 119}, {"note": 87, "velocity": 110, "duration": 120}, {"note": 85, "velocity": 102, "duration": 120}, {"note": 84, "velocity": 93, "duration": 571}]]