[[{"note": 80, "velocity": 127, "duration": 268}, {"note": 78, "velocity": 119, "duration": 248}, {"note": 77, "velocity": 114, "duration": 1642}, {"note": 80, "velocity": 127, "duration": 245}, {"note": 78, "velocity": 127, "duration": 1330}, {"note": 0, "velocity": 0, "duration": 110}, {"note": 80, "velocity": 109, "duration": 331}, {"note": 0, "velocity": 0, "duration": 1589}, {"note": 80, "velocity": 99, "duration": 219}, {"note": 78, "velocity": 127, "duration": 1166}, {"note": 0, "velocity": 0, "duration": 514}, {"note": 78, "velocity": 121, "duration": 232}, {"note": 80, "velocity": 108, "duration": 226}, {"note": 77, "velocity": 104, "duration": 729}, {"note": 0, "velocity": 0, "duration": 711}, {"note": 80, "velocity": 127, "duration": 262}, {"note": 78, "velocity": 123, "duration": 969}, {"note": 0, "velocity": 0, "duration": 1191}, {"note": 77, "velocity": 116, "duration": 480}, {"note": 68, "velocity": 116, "duration": 480}, {"note": 70, "velocity": 114, "duration": 240}, {"note": 73, "velocity": 108, "duration": 239}, {"note": 73, "velocity": 110, "duration": 480}, {"note": 77, "velocity": 116, "duration": 239}, {"note": 77, "velocity": 113, "duration": 239}, {"note": 77, "velocity": 116, "duration": 239}, {"note": 77, "velocity": 113, "duration": 240}, {"note": 75, "velocity": 96, "duration": 245}, {"note": 73, "velocity": 107, "duration": 239}, {"note": 73, "velocity": 110, "duration": 480}, {"note": 68, "velocity": 98, "duration": 480}, {"note": 65, "velocity": 113, "duration": 240}, {"note": 68, "velocity": 108, "duration": 240}, {"note": 70, "velocity": 107, "duration": 240}, {"note": 73, "velocity": 108, "duration": 239}, {"note": 73, "velocity": 110, "duration": 480}, {"note": 70, "velocity": 114, "duration": 119}, {"note": 70, "velocity": 110, "duration": 240}, {"note": 73, "velocity": 114, "duration": 120}, {"note": 70, "velocity": 114, "duration": 240}, {"note": 68, "velocity": 108, "duration": 240}, {"note": 80, "velocity": 110, "duration": 1200}, {"note": 77, "velocity": 113, "duration": 239}, {"note": 77, "velocity": 114, "duration": 240}, {"note": 75, "velocity": 108, "duration": 240}, {"note": 73, "velocity": 114, "duration": 240}, {"note": 75, "velocity": 108, "duration": 240}, {"note": 77, "velocity": 114, "duration": 240}, {"note": 70, "velocity": 110, "duration": 240}, {"note": 68, "velocity": 114, "duration": 599}, {"note": 68, "velocity": 88, "duration": 120}, {"note": 70, "velocity": 91, "duration": 120}, {"note": 68, "velocity": 87, "duration": 120}, {"note": 70, "velocity": 104, "duration": 240}, {"note": 73, "velocity": 108, "duration": 239}, {"note": 73, "velocity": 114, "duration": 240}, {"note": 70, "velocity": 113, "duration": 240}, {"note": 75, "velocity": 114, "duration": 960}, {"note": 68, "velocity": 116, "duration": 240}, {"note": 70, "velocity": 113, "duration": 240}, {"note": 73, "velocity": 114, "duration": 240}, {"note": 75, "velocity": 110, "duration": 240}, {"note": 77, "velocity": 116, "duration": 240}, {"note": 80, "velocity": 108, "duration": 239}, {"note": 80, "velocity": 108, "duration": 240}, {"note": 82, "velocity": 96, "duration": 240}, {"note": 77, "velocity": 104, "duration": 240}, {"note": 75, "velocity": 107, "duration": 1199}, {"note": 75, "velocity": 117, "duration": 240}, {"note": 70, "velocity": 113, "duration": 240}, {"note": 73, "velocity": 116, "duration": 6720}, {"note": 0, "velocity": 0, "duration": 960}, {"note": 77, "velocity": 116, "duration": 480}, {"note": 68, "velocity": 116, "duration": 480}, {"note": 70, "velocity": 114, "duration": 240}, {"note": 73, "velocity": 108, "duration": 239}, {"note": 73, "velocity": 110, "duration": 480}, {"note": 77, "velocity": 116, "duration": 239}, {"note": 77, "velocity": 113, "duration": 239}, {"note": 77, "velocity": 116, "duration": 239}, {"note": 77, "velocity": 113, "duration": 240}, {"note": 75, "velocity": 96, "duration": 245}, {"note": 73, "velocity": 107, "duration": 239}, {"note": 73, "velocity": 110, "duration": 480}, {"note": 68, "velocity": 98, "duration": 480}, {"note": 65, "velocity": 113, "duration": 240}, {"note": 68, "velocity": 108, "duration": 240}, {"note": 70, "velocity": 107, "duration": 240}, {"note": 73, "velocity": 108, "duration": 239}, {"note": 73, "velocity": 110, "duration": 480}, {"note": 70, "velocity": 114, "duration": 119}, {"note": 70, "velocity": 110, "duration": 240}, {"note": 73, "velocity": 114, "duration": 120}, {"note": 70, "velocity": 114, "duration": 240}, {"note": 68, "velocity": 108, "duration": 240}, {"note": 80, "velocity": 110, "duration": 1200}, {"note": 77, "velocity": 113, "duration": 239}, {"note": 77, "velocity": 114, "duration": 240}, {"note": 75, "velocity": 108, "duration": 240}, {"note": 73, "velocity": 114, "duration": 240}, {"note": 75, "velocity": 108, "duration": 240}, {"note": 77, "velocity": 114, "duration": 240}, {"note": 70, "velocity": 110, "duration": 240}, {"note": 68, "velocity": 114, "duration": 599}, {"note": 68, "velocity": 88, "duration": 120}, {"note": 70, "velocity": 91, "duration": 120}, {"note": 68, "velocity": 87, "duration": 120}, {"note": 70, "velocity": 104, "duration": 240}, {"note": 73, "velocity": 108, "duration": 239}, {"note": 73, "velocity": 114, "duration": 240}, {"note": 70, "velocity": 113, "duration": 240}, {"note": 75, "velocity": 114, "duration": 960}, {"note": 68, "velocity": 116, "duration": 240}, {"note": 70, "velocity": 113, "duration": 240}, {"note": 73, "velocity": 114, "duration": 240}, {"note": 75, "velocity": 110, "duration": 240}, {"note": 77, "velocity": 116, "duration": 240}, {"note": 80, "velocity": 108, "duration": 239}, {"note": 80, "velocity": 108, "duration": 240}, {"note": 82, "velocity": 96, "duration": 240}, {"note": 77, "velocity": 104, "duration": 240}, {"note": 75, "velocity": 107, "duration": 1199}, {"note": 75, "velocity": 117, "duration": 240}, {"note": 70, "velocity": 113, "duration": 240}, {"note": 73, "velocity": 116, "duration": 1920}, {"note": 0, "velocity": 0, "duration": 1920}, {"note": 77, "velocity": 113, "duration": 480}, {"note": 68, "velocity": 113, "duration": 239}, {"note": 68, "velocity": 110, "duration": 240}, {"note": 75, "velocity": 116, "duration": 480}, {"note": 68, "velocity": 114, "duration": 480}, {"note": 73, "velocity": 108, "duration": 479}, {"note": 73, "velocity": 108, "duration": 240}, {"note": 75, "velocity": 107, "duration": 240}, {"note": 77, "velocity": 113, "duration": 480}, {"note": 68, "velocity": 104, "duration": 480}, {"note": 66, "velocity": 108, "duration": 261}, {"note": 68, "velocity": 94, "duration": 240}, {"note": 70, "velocity": 110, "duration": 240}, {"note": 72, "velocity": 108, "duration": 240}, {"note": 73, "velocity": 113, "duration": 960}, {"note": 70, "velocity": 110, "duration": 247}, {"note": 72, "velocity": 102, "duration": 240}, {"note": 73, "velocity": 108, "duration": 240}, {"note": 75, "velocity": 110, "duration": 239}, {"note": 75, "velocity": 113, "duration": 960}, {"note": 77, "velocity": 110, "duration": 480}, {"note": 68, "velocity": 114, "duration": 239}, {"note": 68, "velocity": 108, "duration": 240}, {"note": 75, "velocity": 116, "duration": 480}, {"note": 68, "velocity": 107, "duration": 480}, {"note": 73, "velocity": 102, "duration": 479}, {"note": 73, "velocity": 114, "duration": 240}, {"note": 75, "velocity": 107, "duration": 240}, {"note": 77, "velocity": 113, "duration": 480}, {"note": 68, "velocity": 113, "duration": 1440}, {"note": 66, "velocity": 104, "duration": 240}, {"note": 68, "velocity": 94, "duration": 252}, {"note": 70, "velocity": 107, "duration": 277}, {"note": 72, "velocity": 107, "duration": 240}, {"note": 73, "velocity": 113, "duration": 960}, {"note": 70, "velocity": 114, "duration": 480}, {"note": 72, "velocity": 116, "duration": 480}, {"note": 73, "velocity": 116, "duration": 480}, {"note": 75, "velocity": 117, "duration": 480}, {"note": 73, "velocity": 117, "duration": 639}, {"note": 0, "velocity": 0, "duration": 3201}, {"note": 80, "velocity": 116, "duration": 480}, {"note": 71, "velocity": 116, "duration": 480}, {"note": 73, "velocity": 114, "duration": 240}, {"note": 76, "velocity": 108, "duration": 239}, {"note": 76, "velocity": 110, "duration": 480}, {"note": 80, "velocity": 116, "duration": 239}, {"note": 80, "velocity": 113, "duration": 239}, {"note": 80, "velocity": 116, "duration": 239}, {"note": 80, "velocity": 113, "duration": 240}, {"note": 78, "velocity": 96, "duration": 245}, {"note": 76, "velocity": 107, "duration": 239}, {"note": 76, "velocity": 110, "duration": 480}, {"note": 71, "velocity": 98, "duration": 480}, {"note": 68, "velocity": 113, "duration": 240}, {"note": 71, "velocity": 108, "duration": 240}, {"note": 73, "velocity": 107, "duration": 240}, {"note": 76, "velocity": 108, "duration": 239}, {"note": 76, "velocity": 110, "duration": 480}, {"note": 73, "velocity": 114, "duration": 119}, {"note": 73, "velocity": 110, "duration": 240}, {"note": 76, "velocity": 114, "duration": 120}, {"note": 73, "velocity": 114, "duration": 240}, {"note": 71, "velocity": 108, "duration": 240}, {"note": 83, "velocity": 110, "duration": 1200}, {"note": 80, "velocity": 113, "duration": 239}, {"note": 80, "velocity": 114, "duration": 240}, {"note": 78, "velocity": 108, "duration": 240}, {"note": 76, "velocity": 114, "duration": 240}, {"note": 78, "velocity": 108, "duration": 240}, {"note": 80, "velocity": 114, "duration": 240}, {"note": 73, "velocity": 110, "duration": 240}, {"note": 71, "velocity": 114, "duration": 599}, {"note": 71, "velocity": 88, "duration": 120}, {"note": 73, "velocity": 91, "duration": 120}, {"note": 71, "velocity": 87, "duration": 120}, {"note": 73, "velocity": 104, "duration": 240}, {"note": 76, "velocity": 108, "duration": 239}, {"note": 76, "velocity": 114, "duration": 240}, {"note": 73, "velocity": 113, "duration": 240}, {"note": 78, "velocity": 114, "duration": 960}, {"note": 71, "velocity": 116, "duration": 240}, {"note": 73, "velocity": 113, "duration": 240}, {"note": 76, "velocity": 114, "duration": 240}, {"note": 78, "velocity": 110, "duration": 240}, {"note": 80, "velocity": 116, "duration": 240}, {"note": 83, "velocity": 108, "duration": 239}, {"note": 83, "velocity": 108, "duration": 240}, {"note": 85, "velocity": 96, "duration": 240}, {"note": 80, "velocity": 104, "duration": 240}, {"note": 78, "velocity": 107, "duration": 1199}, {"note": 78, "velocity": 117, "duration": 240}, {"note": 73, "velocity": 113, "duration": 240}, {"note": 76, "velocity": 116, "duration": 2160}, {"note": 71, "velocity": 119, "duration": 240}, {"note": 73, "velocity": 113, "duration": 243}, {"note": 75, "velocity": 114, "duration": 209}, {"note": 76, "velocity": 113, "duration": 240}, {"note": 78, "velocity": 113, "duration": 240}, {"note": 80, "velocity": 113, "duration": 240}, {"note": 81, "velocity": 116, "duration": 240}, {"note": 83, "velocity": 116, "duration": 2160}, {"note": 71, "velocity": 119, "duration": 240}, {"note": 73, "velocity": 113, "duration": 273}, {"note": 75, "velocity": 108, "duration": 269}, {"note": 76, "velocity": 106, "duration": 240}, {"note": 78, "velocity": 114, "duration": 276}, {"note": 80, "velocity": 116, "duration": 240}, {"note": 81, "velocity": 113, "duration": 240}, {"note": 83, "velocity": 119, "duration": 1200}, {"note": 81, "velocity": 119, "duration": 252}, {"note": 80, "velocity": 116, "duration": 240}, {"note": 78, "velocity": 117, "duration": 240}, {"note": 80, "velocity": 113, "duration": 480}, {"note": 71, "velocity": 113, "duration": 239}, {"note": 71, "velocity": 110, "duration": 240}, {"note": 78, "velocity": 116, "duration": 480}, {"note": 71, "velocity": 114, "duration": 480}, {"note": 76, "velocity": 108, "duration": 479}, {"note": 76, "velocity": 108, "duration": 240}, {"note": 78, "velocity": 107, "duration": 240}, {"note": 80, "velocity": 113, "duration": 480}, {"note": 71, "velocity": 104, "duration": 480}, {"note": 69, "velocity": 108, "duration": 261}, {"note": 71, "velocity": 94, "duration": 240}, {"note": 73, "velocity": 110, "duration": 240}, {"note": 75, "velocity": 108, "duration": 240}, {"note": 76, "velocity": 113, "duration": 960}, {"note": 73, "velocity": 110, "duration": 247}, {"note": 75, "velocity": 102, "duration": 240}, {"note": 76, "velocity": 108, "duration": 240}, {"note": 78, "velocity": 110, "duration": 239}, {"note": 78, "velocity": 113, "duration": 960}, {"note": 80, "velocity": 110, "duration": 480}, {"note": 71, "velocity": 114, "duration": 239}, {"note": 71, "velocity": 108, "duration": 240}, {"note": 78, "velocity": 116, "duration": 480}, {"note": 71, "velocity": 107, "duration": 480}, {"note": 76, "velocity": 102, "duration": 479}, {"note": 76, "velocity": 114, "duration": 240}, {"note": 78, "velocity": 107, "duration": 240}, {"note": 80, "velocity": 113, "duration": 480}, {"note": 71, "velocity": 113, "duration": 6210}, {"note": 69, "velocity": 104, "duration": 240}, {"note": 71, "velocity": 94, "duration": 252}, {"note": 73, "velocity": 107, "duration": 277}, {"note": 75, "velocity": 107, "duration": 240}, {"note": 76, "velocity": 113, "duration": 960}, {"note": 73, "velocity": 114, "duration": 510}, {"note": 75, "velocity": 116, "duration": 540}, {"note": 76, "velocity": 116, "duration": 510}, {"note": 78, "velocity": 117, "duration": 780}, {"note": 76, "velocity": 117, "duration": 930}]]