[[{"note": 71, "velocity": 107, "duration": 120}, {"note": 69, "velocity": 92, "duration": 132}, {"note": 71, "velocity": 102, "duration": 119}, {"note": 71, "velocity": 104, "duration": 120}, {"note": 69, "velocity": 104, "duration": 130}, {"note": 71, "velocity": 107, "duration": 120}, {"note": 69, "velocity": 107, "duration": 480}, {"note": 71, "velocity": 119, "duration": 240}, {"note": 69, "velocity": 113, "duration": 240}, {"note": 67, "velocity": 119, "duration": 154}, {"note": 64, "velocity": 114, "duration": 1560}, {"note": 74, "velocity": 110, "duration": 119}, {"note": 74, "velocity": 102, "duration": 120}, {"note": 76, "velocity": 113, "duration": 240}, {"note": 74, "velocity": 104, "duration": 120}, {"note": 76, "velocity": 110, "duration": 240}, {"note": 74, "velocity": 108, "duration": 600}, {"note": 69, "velocity": 102, "duration": 239}, {"note": 69, "velocity": 102, "duration": 240}, {"note": 74, "velocity": 96, "duration": 479}, {"note": 74, "velocity": 102, "duration": 141}, {"note": 71, "velocity": 100, "duration": 1799}, {"note": 71, "velocity": 100, "duration": 120}, {"note": 69, "velocity": 87, "duration": 120}, {"note": 71, "velocity": 88, "duration": 120}, {"note": 69, "velocity": 92, "duration": 119}, {"note": 69, "velocity": 88, "duration": 120}, {"note": 71, "velocity": 107, "duration": 240}, {"note": 69, "velocity": 98, "duration": 360}, {"note": 71, "velocity": 104, "duration": 240}, {"note": 69, "velocity": 102, "duration": 120}, {"note": 67, "velocity": 94, "duration": 240}, {"note": 64, "velocity": 102, "duration": 1560}, {"note": 69, "velocity": 96, "duration": 119}, {"note": 69, "velocity": 94, "duration": 120}, {"note": 71, "velocity": 107, "duration": 240}, {"note": 69, "velocity": 108, "duration": 120}, {"note": 67, "velocity": 91, "duration": 120}, {"note": 69, "velocity": 107, "duration": 120}, {"note": 67, "velocity": 104, "duration": 720}, {"note": 64, "velocity": 88, "duration": 120}, {"note": 69, "velocity": 102, "duration": 240}, {"note": 67, "velocity": 102, "duration": 119}, {"note": 67, "velocity": 85, "duration": 120}, {"note": 64, "velocity": 96, "duration": 120}, {"note": 67, "velocity": 104, "duration": 1320}, {"note": 0, "velocity": 0, "duration": 240}, {"note": 62, "velocity": 102, "duration": 119}, {"note": 62, "velocity": 96, "duration": 120}, {"note": 67, "velocity": 113, "duration": 719}, {"note": 67, "velocity": 113, "duration": 119}, {"note": 67, "velocity": 102, "duration": 120}, {"note": 69, "velocity": 119, "duration": 240}, {"note": 64, "velocity": 117, "duration": 479}, {"note": 64, "velocity": 113, "duration": 119}, {"note": 64, "velocity": 107, "duration": 120}, {"note": 71, "velocity": 120, "duration": 240}, {"note": 66, "velocity": 119, "duration": 239}, {"note": 66, "velocity": 119, "duration": 240}, {"note": 64, "velocity": 94, "duration": 119}, {"note": 64, "velocity": 117, "duration": 119}, {"note": 64, "velocity": 117, "duration": 240}, {"note": 62, "velocity": 100, "duration": 120}, {"note": 64, "velocity": 113, "duration": 479}, {"note": 64, "velocity": 113, "duration": 120}, {"note": 62, "velocity": 107, "duration": 120}, {"note": 64, "velocity": 116, "duration": 240}, {"note": 62, "velocity": 107, "duration": 120}, {"note": 67, "velocity": 117, "duration": 480}, {"note": 62, "velocity": 108, "duration": 120}, {"note": 67, "velocity": 117, "duration": 120}, {"note": 69, "velocity": 114, "duration": 239}, {"note": 69, "velocity": 117, "duration": 119}, {"note": 69, "velocity": 119, "duration": 240}, {"note": 71, "velocity": 119, "duration": 480}, {"note": 62, "velocity": 113, "duration": 120}, {"note": 59, "velocity": 107, "duration": 1320}, {"note": 62, "velocity": 91, "duration": 119}, {"note": 62, "velocity": 110, "duration": 120}, {"note": 67, "velocity": 120, "duration": 479}, {"note": 67, "velocity": 119, "duration": 124}, {"note": 64, "velocity": 114, "duration": 239}, {"note": 64, "velocity": 114, "duration": 120}, {"note": 69, "velocity": 120, "duration": 119}, {"note": 69, "velocity": 110, "duration": 240}, {"note": 64, "velocity": 113, "duration": 119}, {"note": 64, "velocity": 117, "duration": 239}, {"note": 64, "velocity": 113, "duration": 240}, {"note": 71, "velocity": 108, "duration": 240}, {"note": 66, "velocity": 123, "duration": 239}, {"note": 66, "velocity": 123, "duration": 240}, {"note": 64, "velocity": 119, "duration": 148}, {"note": 62, "velocity": 100, "duration": 240}, {"note": 64, "velocity": 116, "duration": 599}, {"note": 64, "velocity": 114, "duration": 120}, {"note": 62, "velocity": 110, "duration": 120}, {"note": 64, "velocity": 117, "duration": 240}, {"note": 62, "velocity": 107, "duration": 120}, {"note": 67, "velocity": 116, "duration": 240}, {"note": 64, "velocity": 110, "duration": 239}, {"note": 64, "velocity": 108, "duration": 600}, {"note": 57, "velocity": 113, "duration": 239}, {"note": 57, "velocity": 108, "duration": 120}, {"note": 55, "velocity": 104, "duration": 2280}, {"note": 71, "velocity": 113, "duration": 120}, {"note": 69, "velocity": 94, "duration": 120}, {"note": 71, "velocity": 117, "duration": 239}, {"note": 71, "velocity": 108, "duration": 119}, {"note": 71, "velocity": 117, "duration": 240}, {"note": 69, "velocity": 117, "duration": 360}, {"note": 71, "velocity": 116, "duration": 240}, {"note": 69, "velocity": 114, "duration": 240}, {"note": 67, "velocity": 119, "duration": 240}, {"note": 64, "velocity": 114, "duration": 1440}, {"note": 74, "velocity": 94, "duration": 120}, {"note": 76, "velocity": 113, "duration": 240}, {"note": 74, "velocity": 110, "duration": 240}, {"note": 76, "velocity": 116, "duration": 239}, {"note": 76, "velocity": 110, "duration": 240}, {"note": 74, "velocity": 113, "duration": 599}, {"note": 74, "velocity": 117, "duration": 239}, {"note": 74, "velocity": 114, "duration": 240}, {"note": 76, "velocity": 117, "duration": 240}, {"note": 71, "velocity": 119, "duration": 1919}, {"note": 71, "velocity": 108, "duration": 120}, {"note": 69, "velocity": 92, "duration": 120}, {"note": 71, "velocity": 113, "duration": 239}, {"note": 71, "velocity": 107, "duration": 119}, {"note": 71, "velocity": 107, "duration": 240}, {"note": 69, "velocity": 104, "duration": 360}, {"note": 71, "velocity": 107, "duration": 240}, {"note": 69, "velocity": 104, "duration": 120}, {"note": 67, "velocity": 98, "duration": 119}, {"note": 67, "velocity": 107, "duration": 239}, {"note": 67, "velocity": 104, "duration": 1319}, {"note": 67, "velocity": 87, "duration": 119}, {"note": 67, "velocity": 102, "duration": 240}, {"note": 69, "velocity": 113, "duration": 120}, {"note": 67, "velocity": 108, "duration": 1080}, {"note": 64, "velocity": 93, "duration": 121}, {"note": 62, "velocity": 86, "duration": 120}, {"note": 69, "velocity": 107, "duration": 240}, {"note": 64, "velocity": 93, "duration": 120}, {"note": 67, "velocity": 110, "duration": 229}, {"note": 0, "velocity": 0, "duration": 16931}, {"note": 62, "velocity": 102, "duration": 119}, {"note": 62, "velocity": 96, "duration": 120}, {"note": 67, "velocity": 113, "duration": 719}, {"note": 67, "velocity": 113, "duration": 119}, {"note": 67, "velocity": 102, "duration": 120}, {"note": 69, "velocity": 119, "duration": 240}, {"note": 64, "velocity": 117, "duration": 479}, {"note": 64, "velocity": 113, "duration": 119}, {"note": 64, "velocity": 107, "duration": 120}, {"note": 71, "velocity": 120, "duration": 240}, {"note": 66, "velocity": 119, "duration": 239}, {"note": 66, "velocity": 119, "duration": 240}, {"note": 64, "velocity": 94, "duration": 119}, {"note": 64, "velocity": 117, "duration": 119}, {"note": 64, "velocity": 117, "duration": 240}, {"note": 62, "velocity": 100, "duration": 120}, {"note": 64, "velocity": 113, "duration": 479}, {"note": 64, "velocity": 113, "duration": 120}, {"note": 62, "velocity": 107, "duration": 120}, {"note": 64, "velocity": 116, "duration": 240}, {"note": 62, "velocity": 107, "duration": 120}, {"note": 67, "velocity": 117, "duration": 480}, {"note": 62, "velocity": 108, "duration": 120}, {"note": 67, "velocity": 117, "duration": 120}, {"note": 69, "velocity": 114, "duration": 239}, {"note": 69, "velocity": 117, "duration": 119}, {"note": 69, "velocity": 119, "duration": 240}, {"note": 71, "velocity": 119, "duration": 480}, {"note": 62, "velocity": 113, "duration": 120}, {"note": 59, "velocity": 107, "duration": 1320}, {"note": 62, "velocity": 91, "duration": 119}, {"note": 62, "velocity": 110, "duration": 120}, {"note": 67, "velocity": 120, "duration": 479}, {"note": 67, "velocity": 119, "duration": 124}, {"note": 64, "velocity": 114, "duration": 239}, {"note": 64, "velocity": 114, "duration": 120}, {"note": 69, "velocity": 120, "duration": 119}, {"note": 69, "velocity": 110, "duration": 240}, {"note": 64, "velocity": 113, "duration": 119}, {"note": 64, "velocity": 117, "duration": 239}, {"note": 64, "velocity": 113, "duration": 240}, {"note": 71, "velocity": 108, "duration": 240}, {"note": 66, "velocity": 123, "duration": 239}, {"note": 66, "velocity": 123, "duration": 240}, {"note": 64, "velocity": 119, "duration": 148}, {"note": 62, "velocity": 100, "duration": 240}, {"note": 64, "velocity": 116, "duration": 599}, {"note": 64, "velocity": 114, "duration": 120}, {"note": 62, "velocity": 110, "duration": 120}, {"note": 64, "velocity": 117, "duration": 240}, {"note": 62, "velocity": 107, "duration": 120}, {"note": 67, "velocity": 116, "duration": 240}, {"note": 64, "velocity": 110, "duration": 239}, {"note": 64, "velocity": 108, "duration": 600}, {"note": 57, "velocity": 113, "duration": 239}, {"note": 57, "velocity": 108, "duration": 120}, {"note": 55, "velocity": 104, "duration": 600}, {"note": 0, "velocity": 0, "duration": 1200}, {"note": 62, "velocity": 102, "duration": 119}, {"note": 62, "velocity": 96, "duration": 120}, {"note": 67, "velocity": 113, "duration": 719}, {"note": 67, "velocity": 113, "duration": 119}, {"note": 67, "velocity": 102, "duration": 120}, {"note": 69, "velocity": 119, "duration": 240}, {"note": 64, "velocity": 117, "duration": 479}, {"note": 64, "velocity": 113, "duration": 119}, {"note": 64, "velocity": 107, "duration": 120}, {"note": 71, "velocity": 120, "duration": 240}, {"note": 66, "velocity": 119, "duration": 239}, {"note": 66, "velocity": 119, "duration": 240}, {"note": 64, "velocity": 117, "duration": 119}, {"note": 64, "velocity": 117, "duration": 240}, {"note": 62, "velocity": 100, "duration": 120}, {"note": 64, "velocity": 113, "duration": 479}, {"note": 64, "velocity": 113, "duration": 120}, {"note": 62, "velocity": 107, "duration": 120}, {"note": 64, "velocity": 116, "duration": 240}, {"note": 62, "velocity": 107, "duration": 240}, {"note": 64, "velocity": 117, "duration": 239}, {"note": 64, "velocity": 94, "duration": 120}, {"note": 67, "velocity": 114, "duration": 599}, {"note": 67, "velocity": 119, "duration": 240}, {"note": 69, "velocity": 119, "duration": 480}, {"note": 62, "velocity": 113, "duration": 120}, {"note": 59, "velocity": 107, "duration": 1320}, {"note": 62, "velocity": 91, "duration": 119}, {"note": 62, "velocity": 110, "duration": 120}, {"note": 67, "velocity": 120, "duration": 719}, {"note": 67, "velocity": 108, "duration": 119}, {"note": 67, "velocity": 107, "duration": 120}, {"note": 69, "velocity": 119, "duration": 240}, {"note": 64, "velocity": 110, "duration": 479}, {"note": 64, "velocity": 114, "duration": 119}, {"note": 64, "velocity": 114, "duration": 120}, {"note": 71, "velocity": 108, "duration": 240}, {"note": 66, "velocity": 123, "duration": 239}, {"note": 66, "velocity": 123, "duration": 240}, {"note": 64, "velocity": 119, "duration": 148}, {"note": 62, "velocity": 100, "duration": 240}, {"note": 64, "velocity": 116, "duration": 599}, {"note": 64, "velocity": 114, "duration": 120}, {"note": 62, "velocity": 110, "duration": 120}, {"note": 64, "velocity": 117, "duration": 240}, {"note": 62, "velocity": 107, "duration": 1200}, {"note": 57, "velocity": 113, "duration": 240}, {"note": 55, "velocity": 113, "duration": 240}, {"note": 52, "velocity": 104, "duration": 1920}]]