[[{"note": 57, "velocity": 85, "duration": 120}, {"note": 66, "velocity": 119, "duration": 239}, {"note": 66, "velocity": 119, "duration": 720}, {"note": 64, "velocity": 113, "duration": 240}, {"note": 62, "velocity": 107, "duration": 240}, {"note": 61, "velocity": 106, "duration": 360}, {"note": 62, "velocity": 108, "duration": 120}, {"note": 57, "velocity": 104, "duration": 1800}, {"note": 67, "velocity": 110, "duration": 119}, {"note": 67, "velocity": 116, "duration": 240}, {"note": 66, "velocity": 119, "duration": 720}, {"note": 64, "velocity": 110, "duration": 240}, {"note": 62, "velocity": 107, "duration": 240}, {"note": 61, "velocity": 116, "duration": 240}, {"note": 62, "velocity": 110, "duration": 240}, {"note": 69, "velocity": 116, "duration": 1680}, {"note": 66, "velocity": 106, "duration": 120}, {"note": 69, "velocity": 107, "duration": 119}, {"note": 69, "velocity": 113, "duration": 240}, {"note": 67, "velocity": 110, "duration": 119}, {"note": 67, "velocity": 104, "duration": 360}, {"note": 66, "velocity": 113, "duration": 122}, {"note": 64, "velocity": 114, "duration": 1080}, {"note": 69, "velocity": 114, "duration": 240}, {"note": 67, "velocity": 102, "duration": 119}, {"note": 67, "velocity": 113, "duration": 360}, {"note": 57, "velocity": 96, "duration": 120}, {"note": 66, "velocity": 113, "duration": 960}, {"note": 67, "velocity": 108, "duration": 120}, {"note": 66, "velocity": 116, "duration": 240}, {"note": 59, "velocity": 113, "duration": 720}, {"note": 67, "velocity": 108, "duration": 239}, {"note": 67, "velocity": 104, "duration": 120}, {"note": 66, "velocity": 106, "duration": 480}, {"note": 67, "velocity": 107, "duration": 120}, {"note": 65, "velocity": 108, "duration": 1200}, {"note": 57, "velocity": 114, "duration": 239}, {"note": 57, "velocity": 116, "duration": 239}, {"note": 57, "velocity": 108, "duration": 120}, {"note": 67, "velocity": 116, "duration": 245}, {"note": 66, "velocity": 116, "duration": 840}, {"note": 64, "velocity": 110, "duration": 240}, {"note": 62, "velocity": 100, "duration": 147}, {"note": 61, "velocity": 106, "duration": 240}, {"note": 62, "velocity": 116, "duration": 360}, {"note": 57, "velocity": 108, "duration": 1439}, {"note": 57, "velocity": 108, "duration": 119}, {"note": 57, "velocity": 108, "duration": 239}, {"note": 57, "velocity": 102, "duration": 120}, {"note": 67, "velocity": 114, "duration": 240}, {"note": 66, "velocity": 119, "duration": 599}, {"note": 66, "velocity": 116, "duration": 120}, {"note": 64, "velocity": 102, "duration": 240}, {"note": 62, "velocity": 102, "duration": 145}, {"note": 61, "velocity": 103, "duration": 240}, {"note": 62, "velocity": 110, "duration": 240}, {"note": 69, "velocity": 114, "duration": 1560}, {"note": 66, "velocity": 116, "duration": 240}, {"note": 69, "velocity": 119, "duration": 239}, {"note": 69, "velocity": 117, "duration": 240}, {"note": 71, "velocity": 107, "duration": 240}, {"note": 67, "velocity": 110, "duration": 240}, {"note": 69, "velocity": 114, "duration": 240}, {"note": 64, "velocity": 113, "duration": 840}, {"note": 69, "velocity": 100, "duration": 119}, {"note": 69, "velocity": 113, "duration": 240}, {"note": 67, "velocity": 110, "duration": 119}, {"note": 67, "velocity": 113, "duration": 360}, {"note": 69, "velocity": 107, "duration": 120}, {"note": 66, "velocity": 116, "duration": 599}, {"note": 66, "velocity": 116, "duration": 240}, {"note": 67, "velocity": 113, "duration": 240}, {"note": 69, "velocity": 116, "duration": 240}, {"note": 59, "velocity": 114, "duration": 239}, {"note": 59, "velocity": 110, "duration": 240}, {"note": 61, "velocity": 106, "duration": 240}, {"note": 62, "velocity": 113, "duration": 240}, {"note": 64, "velocity": 100, "duration": 120}, {"note": 66, "velocity": 119, "duration": 600}, {"note": 61, "velocity": 116, "duration": 240}, {"note": 62, "velocity": 117, "duration": 1680}, {"note": 69, "velocity": 119, "duration": 240}, {"note": 74, "velocity": 117, "duration": 240}, {"note": 73, "velocity": 123, "duration": 240}, {"note": 74, "velocity": 117, "duration": 240}, {"note": 73, "velocity": 119, "duration": 240}, {"note": 69, "velocity": 117, "duration": 240}, {"note": 66, "velocity": 119, "duration": 480}, {"note": 69, "velocity": 119, "duration": 160}, {"note": 66, "velocity": 116, "duration": 1800}, {"note": 69, "velocity": 119, "duration": 240}, {"note": 74, "velocity": 116, "duration": 240}, {"note": 73, "velocity": 119, "duration": 240}, {"note": 74, "velocity": 117, "duration": 240}, {"note": 73, "velocity": 116, "duration": 240}, {"note": 69, "velocity": 114, "duration": 240}, {"note": 66, "velocity": 119, "duration": 240}, {"note": 69, "velocity": 116, "duration": 239}, {"note": 69, "velocity": 119, "duration": 1440}, {"note": 71, "velocity": 117, "duration": 240}, {"note": 73, "velocity": 116, "duration": 240}, {"note": 74, "velocity": 119, "duration": 360}, {"note": 71, "velocity": 113, "duration": 120}, {"note": 69, "velocity": 117, "duration": 120}, {"note": 71, "velocity": 117, "duration": 360}, {"note": 69, "velocity": 119, "duration": 719}, {"note": 69, "velocity": 116, "duration": 120}, {"note": 67, "velocity": 114, "duration": 120}, {"note": 66, "velocity": 116, "duration": 137}, {"note": 69, "velocity": 114, "duration": 240}, {"note": 73, "velocity": 116, "duration": 360}, {"note": 71, "velocity": 114, "duration": 240}, {"note": 74, "velocity": 116, "duration": 480}, {"note": 66, "velocity": 116, "duration": 240}, {"note": 67, "velocity": 114, "duration": 120}, {"note": 69, "velocity": 117, "duration": 360}, {"note": 67, "velocity": 114, "duration": 240}, {"note": 66, "velocity": 123, "duration": 240}, {"note": 67, "velocity": 117, "duration": 120}, {"note": 69, "velocity": 119, "duration": 359}, {"note": 69, "velocity": 116, "duration": 239}, {"note": 69, "velocity": 116, "duration": 480}, {"note": 62, "velocity": 119, "duration": 240}, {"note": 64, "velocity": 117, "duration": 906}, {"note": 0, "velocity": 0, "duration": 774}, {"note": 69, "velocity": 119, "duration": 240}, {"note": 74, "velocity": 117, "duration": 240}, {"note": 73, "velocity": 123, "duration": 240}, {"note": 74, "velocity": 117, "duration": 240}, {"note": 73, "velocity": 119, "duration": 240}, {"note": 69, "velocity": 117, "duration": 240}, {"note": 66, "velocity": 119, "duration": 480}, {"note": 69, "velocity": 119, "duration": 160}, {"note": 66, "velocity": 116, "duration": 1800}, {"note": 69, "velocity": 119, "duration": 240}, {"note": 74, "velocity": 116, "duration": 240}, {"note": 73, "velocity": 119, "duration": 240}, {"note": 74, "velocity": 117, "duration": 240}, {"note": 73, "velocity": 116, "duration": 240}, {"note": 69, "velocity": 114, "duration": 240}, {"note": 66, "velocity": 119, "duration": 240}, {"note": 69, "velocity": 116, "duration": 239}, {"note": 69, "velocity": 119, "duration": 1440}, {"note": 71, "velocity": 117, "duration": 240}, {"note": 73, "velocity": 116, "duration": 240}, {"note": 74, "velocity": 119, "duration": 360}, {"note": 71, "velocity": 113, "duration": 120}, {"note": 69, "velocity": 117, "duration": 120}, {"note": 71, "velocity": 117, "duration": 360}, {"note": 69, "velocity": 119, "duration": 719}, {"note": 69, "velocity": 116, "duration": 120}, {"note": 67, "velocity": 114, "duration": 120}, {"note": 66, "velocity": 116, "duration": 137}, {"note": 69, "velocity": 114, "duration": 240}, {"note": 73, "velocity": 116, "duration": 360}, {"note": 71, "velocity": 114, "duration": 240}, {"note": 74, "velocity": 116, "duration": 720}, {"note": 66, "velocity": 113, "duration": 120}, {"note": 67, "velocity": 110, "duration": 120}, {"note": 69, "velocity": 116, "duration": 239}, {"note": 69, "velocity": 107, "duration": 119}, {"note": 69, "velocity": 114, "duration": 360}, {"note": 67, "velocity": 117, "duration": 240}, {"note": 66, "velocity": 116, "duration": 240}, {"note": 64, "velocity": 107, "duration": 130}, {"note": 62, "velocity": 93, "duration": 479}, {"note": 62, "velocity": 113, "duration": 126}, {"note": 64, "velocity": 116, "duration": 257}, {"note": 62, "velocity": 108, "duration": 626}, {"note": 0, "velocity": 0, "duration": 1054}, {"note": 70, "velocity": 119, "duration": 240}, {"note": 75, "velocity": 117, "duration": 240}, {"note": 74, "velocity": 123, "duration": 240}, {"note": 75, "velocity": 117, "duration": 240}, {"note": 74, "velocity": 119, "duration": 240}, {"note": 70, "velocity": 117, "duration": 240}, {"note": 67, "velocity": 119, "duration": 480}, {"note": 70, "velocity": 119, "duration": 160}, {"note": 67, "velocity": 116, "duration": 1800}, {"note": 70, "velocity": 119, "duration": 240}, {"note": 75, "velocity": 116, "duration": 240}, {"note": 74, "velocity": 119, "duration": 240}, {"note": 75, "velocity": 117, "duration": 240}, {"note": 77, "velocity": 116, "duration": 240}, {"note": 75, "velocity": 114, "duration": 240}, {"note": 74, "velocity": 119, "duration": 240}, {"note": 67, "velocity": 119, "duration": 240}, {"note": 72, "velocity": 117, "duration": 120}, {"note": 70, "velocity": 119, "duration": 1320}, {"note": 72, "velocity": 117, "duration": 240}, {"note": 74, "velocity": 116, "duration": 240}, {"note": 75, "velocity": 119, "duration": 240}, {"note": 74, "velocity": 116, "duration": 120}, {"note": 75, "velocity": 117, "duration": 240}, {"note": 77, "velocity": 117, "duration": 240}, {"note": 75, "velocity": 120, "duration": 840}, {"note": 70, "velocity": 116, "duration": 120}, {"note": 68, "velocity": 114, "duration": 120}, {"note": 67, "velocity": 116, "duration": 137}, {"note": 70, "velocity": 114, "duration": 240}, {"note": 74, "velocity": 116, "duration": 360}, {"note": 72, "velocity": 114, "duration": 240}, {"note": 77, "velocity": 116, "duration": 240}, {"note": 75, "velocity": 116, "duration": 3540}, {"note": 67, "velocity": 109, "duration": 240}, {"note": 68, "velocity": 113, "duration": 240}, {"note": 70, "velocity": 114, "duration": 156}, {"note": 70, "velocity": 116, "duration": 36}, {"note": 0, "velocity": 0, "duration": 204}, {"note": 70, "velocity": 108, "duration": 240}, {"note": 68, "velocity": 114, "duration": 600}, {"note": 67, "velocity": 116, "duration": 240}, {"note": 65, "velocity": 104, "duration": 240}, {"note": 63, "velocity": 92, "duration": 960}, {"note": 62, "velocity": 106, "duration": 360}, {"note": 65, "velocity": 100, "duration": 120}, {"note": 63, "velocity": 98, "duration": 357}, {"note": 0, "velocity": 0, "duration": 2043}, {"note": 67, "velocity": 109, "duration": 120}, {"note": 68, "velocity": 100, "duration": 145}, {"note": 67, "velocity": 109, "duration": 360}, {"note": 68, "velocity": 110, "duration": 240}, {"note": 67, "velocity": 116, "duration": 251}, {"note": 68, "velocity": 102, "duration": 279}, {"note": 67, "velocity": 106, "duration": 274}, {"note": 65, "velocity": 92, "duration": 166}, {"note": 63, "velocity": 90, "duration": 1554}, {"note": 62, "velocity": 95, "duration": 207}, {"note": 63, "velocity": 98, "duration": 903}]]