[[{"note": 76, "velocity": 116, "duration": 239}, {"note": 76, "velocity": 117, "duration": 239}, {"note": 76, "velocity": 116, "duration": 239}, {"note": 76, "velocity": 117, "duration": 240}, {"note": 74, "velocity": 116, "duration": 240}, {"note": 72, "velocity": 117, "duration": 240}, {"note": 71, "velocity": 117, "duration": 240}, {"note": 74, "velocity": 116, "duration": 239}, {"note": 74, "velocity": 116, "duration": 239}, {"note": 74, "velocity": 108, "duration": 240}, {"note": 72, "velocity": 113, "duration": 720}, {"note": 76, "velocity": 108, "duration": 152}, {"note": 74, "velocity": 98, "duration": 120}, {"note": 72, "velocity": 114, "duration": 239}, {"note": 72, "velocity": 113, "duration": 239}, {"note": 72, "velocity": 108, "duration": 120}, {"note": 69, "velocity": 107, "duration": 120}, {"note": 72, "velocity": 108, "duration": 120}, {"note": 69, "velocity": 104, "duration": 120}, {"note": 72, "velocity": 116, "duration": 240}, {"note": 69, "velocity": 113, "duration": 480}, {"note": 76, "velocity": 116, "duration": 123}, {"note": 74, "velocity": 102, "duration": 120}, {"note": 72, "velocity": 113, "duration": 239}, {"note": 72, "velocity": 114, "duration": 239}, {"note": 72, "velocity": 113, "duration": 120}, {"note": 67, "velocity": 98, "duration": 120}, {"note": 72, "velocity": 110, "duration": 120}, {"note": 69, "velocity": 104, "duration": 120}, {"note": 72, "velocity": 110, "duration": 240}, {"note": 74, "velocity": 117, "duration": 1200}, {"note": 76, "velocity": 104, "duration": 239}, {"note": 76, "velocity": 108, "duration": 239}, {"note": 76, "velocity": 110, "duration": 239}, {"note": 76, "velocity": 110, "duration": 247}, {"note": 74, "velocity": 108, "duration": 240}, {"note": 72, "velocity": 113, "duration": 240}, {"note": 74, "velocity": 114, "duration": 260}, {"note": 76, "velocity": 114, "duration": 239}, {"note": 76, "velocity": 116, "duration": 240}, {"note": 77, "velocity": 114, "duration": 360}, {"note": 76, "velocity": 114, "duration": 600}, {"note": 74, "velocity": 116, "duration": 240}, {"note": 76, "velocity": 116, "duration": 240}, {"note": 77, "velocity": 114, "duration": 240}, {"note": 76, "velocity": 113, "duration": 239}, {"note": 76, "velocity": 113, "duration": 240}, {"note": 74, "velocity": 114, "duration": 719}, {"note": 74, "velocity": 114, "duration": 240}, {"note": 76, "velocity": 113, "duration": 240}, {"note": 77, "velocity": 113, "duration": 240}, {"note": 79, "velocity": 114, "duration": 240}, {"note": 76, "velocity": 108, "duration": 240}, {"note": 74, "velocity": 116, "duration": 1199}, {"note": 74, "velocity": 113, "duration": 119}, {"note": 74, "velocity": 108, "duration": 120}, {"note": 72, "velocity": 114, "duration": 240}, {"note": 74, "velocity": 117, "duration": 119}, {"note": 74, "velocity": 114, "duration": 120}, {"note": 72, "velocity": 114, "duration": 240}, {"note": 74, "velocity": 113, "duration": 119}, {"note": 74, "velocity": 110, "duration": 120}, {"note": 72, "velocity": 100, "duration": 240}, {"note": 74, "velocity": 117, "duration": 119}, {"note": 74, "velocity": 110, "duration": 120}, {"note": 72, "velocity": 113, "duration": 240}, {"note": 74, "velocity": 113, "duration": 119}, {"note": 74, "velocity": 108, "duration": 120}, {"note": 72, "velocity": 108, "duration": 240}, {"note": 74, "velocity": 117, "duration": 119}, {"note": 74, "velocity": 110, "duration": 120}, {"note": 72, "velocity": 114, "duration": 120}, {"note": 76, "velocity": 116, "duration": 240}, {"note": 74, "velocity": 116, "duration": 120}, {"note": 72, "velocity": 108, "duration": 120}, {"note": 76, "velocity": 113, "duration": 120}, {"note": 74, "velocity": 114, "duration": 240}, {"note": 72, "velocity": 117, "duration": 480}, {"note": 77, "velocity": 119, "duration": 239}, {"note": 77, "velocity": 119, "duration": 240}, {"note": 79, "velocity": 117, "duration": 240}, {"note": 76, "velocity": 120, "duration": 240}, {"note": 72, "velocity": 114, "duration": 120}, {"note": 74, "velocity": 114, "duration": 240}, {"note": 76, "velocity": 116, "duration": 360}, {"note": 77, "velocity": 117, "duration": 239}, {"note": 77, "velocity": 117, "duration": 119}, {"note": 77, "velocity": 119, "duration": 240}, {"note": 79, "velocity": 116, "duration": 360}, {"note": 76, "velocity": 116, "duration": 240}, {"note": 72, "velocity": 96, "duration": 120}, {"note": 69, "velocity": 113, "duration": 240}, {"note": 72, "velocity": 116, "duration": 840}, {"note": 76, "velocity": 104, "duration": 240}, {"note": 77, "velocity": 110, "duration": 240}, {"note": 79, "velocity": 116, "duration": 240}, {"note": 77, "velocity": 110, "duration": 240}, {"note": 76, "velocity": 108, "duration": 240}, {"note": 79, "velocity": 117, "duration": 479}, {"note": 79, "velocity": 119, "duration": 239}, {"note": 79, "velocity": 117, "duration": 239}, {"note": 79, "velocity": 117, "duration": 239}, {"note": 79, "velocity": 119, "duration": 240}, {"note": 81, "velocity": 117, "duration": 240}, {"note": 83, "velocity": 116, "duration": 240}, {"note": 84, "velocity": 119, "duration": 479}, {"note": 84, "velocity": 117, "duration": 239}, {"note": 84, "velocity": 116, "duration": 240}, {"note": 83, "velocity": 117, "duration": 119}, {"note": 83, "velocity": 116, "duration": 240}, {"note": 81, "velocity": 120, "duration": 359}, {"note": 81, "velocity": 114, "duration": 240}, {"note": 83, "velocity": 116, "duration": 240}, {"note": 81, "velocity": 114, "duration": 240}, {"note": 79, "velocity": 116, "duration": 120}, {"note": 76, "velocity": 116, "duration": 240}, {"note": 81, "velocity": 116, "duration": 360}, {"note": 79, "velocity": 120, "duration": 1200}, {"note": 81, "velocity": 119, "duration": 239}, {"note": 81, "velocity": 113, "duration": 240}, {"note": 77, "velocity": 114, "duration": 120}, {"note": 76, "velocity": 114, "duration": 360}, {"note": 74, "velocity": 116, "duration": 120}, {"note": 76, "velocity": 114, "duration": 240}, {"note": 77, "velocity": 116, "duration": 600}, {"note": 79, "velocity": 113, "duration": 239}, {"note": 79, "velocity": 114, "duration": 240}, {"note": 76, "velocity": 114, "duration": 120}, {"note": 74, "velocity": 113, "duration": 360}, {"note": 72, "velocity": 107, "duration": 120}, {"note": 74, "velocity": 110, "duration": 240}, {"note": 76, "velocity": 116, "duration": 360}, {"note": 77, "velocity": 114, "duration": 240}, {"note": 76, "velocity": 110, "duration": 120}, {"note": 77, "velocity": 117, "duration": 240}, {"note": 79, "velocity": 116, "duration": 360}, {"note": 76, "velocity": 117, "duration": 240}, {"note": 72, "velocity": 107, "duration": 120}, {"note": 69, "velocity": 107, "duration": 240}, {"note": 72, "velocity": 114, "duration": 360}, {"note": 81, "velocity": 113, "duration": 239}, {"note": 81, "velocity": 108, "duration": 119}, {"note": 81, "velocity": 110, "duration": 240}, {"note": 79, "velocity": 116, "duration": 239}, {"note": 79, "velocity": 114, "duration": 240}, {"note": 76, "velocity": 114, "duration": 240}, {"note": 74, "velocity": 119, "duration": 240}, {"note": 72, "velocity": 117, "duration": 599}, {"note": 72, "velocity": 114, "duration": 240}, {"note": 76, "velocity": 116, "duration": 256}, {"note": 77, "velocity": 117, "duration": 240}, {"note": 79, "velocity": 119, "duration": 240}, {"note": 77, "velocity": 114, "duration": 240}, {"note": 76, "velocity": 114, "duration": 240}, {"note": 79, "velocity": 117, "duration": 479}, {"note": 79, "velocity": 117, "duration": 239}, {"note": 79, "velocity": 119, "duration": 239}, {"note": 79, "velocity": 117, "duration": 239}, {"note": 79, "velocity": 119, "duration": 240}, {"note": 81, "velocity": 113, "duration": 120}, {"note": 83, "velocity": 116, "duration": 240}, {"note": 84, "velocity": 119, "duration": 599}, {"note": 84, "velocity": 116, "duration": 239}, {"note": 84, "velocity": 114, "duration": 240}, {"note": 83, "velocity": 117, "duration": 119}, {"note": 83, "velocity": 120, "duration": 240}, {"note": 81, "velocity": 120, "duration": 359}, {"note": 81, "velocity": 119, "duration": 240}, {"note": 83, "velocity": 119, "duration": 240}, {"note": 81, "velocity": 116, "duration": 240}, {"note": 79, "velocity": 119, "duration": 137}, {"note": 76, "velocity": 114, "duration": 240}, {"note": 81, "velocity": 116, "duration": 360}, {"note": 79, "velocity": 120, "duration": 1200}, {"note": 81, "velocity": 113, "duration": 239}, {"note": 81, "velocity": 114, "duration": 240}, {"note": 77, "velocity": 113, "duration": 126}, {"note": 76, "velocity": 117, "duration": 360}, {"note": 74, "velocity": 117, "duration": 151}, {"note": 76, "velocity": 110, "duration": 240}, {"note": 77, "velocity": 117, "duration": 360}, {"note": 79, "velocity": 119, "duration": 239}, {"note": 79, "velocity": 117, "duration": 239}, {"note": 79, "velocity": 120, "duration": 239}, {"note": 79, "velocity": 117, "duration": 120}, {"note": 86, "velocity": 119, "duration": 240}, {"note": 84, "velocity": 120, "duration": 840}, {"note": 77, "velocity": 116, "duration": 239}, {"note": 77, "velocity": 114, "duration": 119}, {"note": 77, "velocity": 113, "duration": 240}, {"note": 79, "velocity": 119, "duration": 360}, {"note": 76, "velocity": 116, "duration": 240}, {"note": 72, "velocity": 117, "duration": 240}, {"note": 69, "velocity": 117, "duration": 152}, {"note": 72, "velocity": 116, "duration": 600}, {"note": 77, "velocity": 117, "duration": 240}, {"note": 76, "velocity": 116, "duration": 240}, {"note": 74, "velocity": 119, "duration": 240}, {"note": 72, "velocity": 119, "duration": 240}, {"note": 69, "velocity": 116, "duration": 240}, {"note": 71, "velocity": 113, "duration": 240}, {"note": 72, "velocity": 117, "duration": 250}, {"note": 0, "velocity": 0, "duration": 15590}, {"note": 76, "velocity": 116, "duration": 239}, {"note": 76, "velocity": 117, "duration": 239}, {"note": 76, "velocity": 116, "duration": 239}, {"note": 76, "velocity": 117, "duration": 240}, {"note": 74, "velocity": 116, "duration": 240}, {"note": 72, "velocity": 117, "duration": 240}, {"note": 71, "velocity": 117, "duration": 240}, {"note": 74, "velocity": 116, "duration": 239}, {"note": 74, "velocity": 116, "duration": 239}, {"note": 74, "velocity": 108, "duration": 240}, {"note": 72, "velocity": 113, "duration": 720}, {"note": 76, "velocity": 108, "duration": 152}, {"note": 74, "velocity": 98, "duration": 120}, {"note": 72, "velocity": 114, "duration": 239}, {"note": 72, "velocity": 113, "duration": 239}, {"note": 72, "velocity": 108, "duration": 120}, {"note": 69, "velocity": 107, "duration": 120}, {"note": 72, "velocity": 108, "duration": 120}, {"note": 69, "velocity": 104, "duration": 120}, {"note": 72, "velocity": 116, "duration": 240}, {"note": 69, "velocity": 113, "duration": 480}, {"note": 76, "velocity": 116, "duration": 123}, {"note": 74, "velocity": 102, "duration": 120}, {"note": 72, "velocity": 113, "duration": 239}, {"note": 72, "velocity": 114, "duration": 239}, {"note": 72, "velocity": 113, "duration": 120}, {"note": 67, "velocity": 98, "duration": 120}, {"note": 72, "velocity": 110, "duration": 120}, {"note": 69, "velocity": 104, "duration": 120}, {"note": 72, "velocity": 110, "duration": 240}, {"note": 74, "velocity": 117, "duration": 1200}, {"note": 76, "velocity": 104, "duration": 239}, {"note": 76, "velocity": 108, "duration": 239}, {"note": 76, "velocity": 110, "duration": 239}, {"note": 76, "velocity": 110, "duration": 247}, {"note": 74, "velocity": 108, "duration": 240}, {"note": 72, "velocity": 113, "duration": 240}, {"note": 74, "velocity": 114, "duration": 260}, {"note": 76, "velocity": 114, "duration": 239}, {"note": 76, "velocity": 116, "duration": 240}, {"note": 77, "velocity": 114, "duration": 360}, {"note": 76, "velocity": 114, "duration": 600}, {"note": 74, "velocity": 116, "duration": 240}, {"note": 76, "velocity": 116, "duration": 240}, {"note": 77, "velocity": 114, "duration": 240}, {"note": 76, "velocity": 113, "duration": 239}, {"note": 76, "velocity": 113, "duration": 240}, {"note": 74, "velocity": 114, "duration": 719}, {"note": 74, "velocity": 114, "duration": 240}, {"note": 76, "velocity": 113, "duration": 240}, {"note": 77, "velocity": 113, "duration": 240}, {"note": 79, "velocity": 114, "duration": 240}, {"note": 76, "velocity": 108, "duration": 240}, {"note": 74, "velocity": 116, "duration": 1199}, {"note": 74, "velocity": 113, "duration": 119}, {"note": 74, "velocity": 108, "duration": 120}, {"note": 72, "velocity": 114, "duration": 240}, {"note": 74, "velocity": 117, "duration": 119}, {"note": 74, "velocity": 114, "duration": 120}, {"note": 72, "velocity": 114, "duration": 240}, {"note": 74, "velocity": 113, "duration": 119}, {"note": 74, "velocity": 110, "duration": 120}, {"note": 72, "velocity": 100, "duration": 240}, {"note": 74, "velocity": 117, "duration": 119}, {"note": 74, "velocity": 110, "duration": 120}, {"note": 72, "velocity": 113, "duration": 240}, {"note": 74, "velocity": 113, "duration": 119}, {"note": 74, "velocity": 108, "duration": 120}, {"note": 72, "velocity": 108, "duration": 240}, {"note": 74, "velocity": 117, "duration": 119}, {"note": 74, "velocity": 110, "duration": 120}, {"note": 72, "velocity": 114, "duration": 120}, {"note": 76, "velocity": 116, "duration": 240}, {"note": 74, "velocity": 116, "duration": 120}, {"note": 72, "velocity": 108, "duration": 120}, {"note": 76, "velocity": 113, "duration": 120}, {"note": 74, "velocity": 114, "duration": 240}, {"note": 72, "velocity": 117, "duration": 480}, {"note": 77, "velocity": 119, "duration": 239}, {"note": 77, "velocity": 119, "duration": 240}, {"note": 79, "velocity": 117, "duration": 240}, {"note": 76, "velocity": 120, "duration": 240}, {"note": 72, "velocity": 114, "duration": 120}, {"note": 74, "velocity": 114, "duration": 240}, {"note": 76, "velocity": 116, "duration": 360}, {"note": 77, "velocity": 117, "duration": 239}, {"note": 77, "velocity": 117, "duration": 119}, {"note": 77, "velocity": 119, "duration": 240}, {"note": 79, "velocity": 116, "duration": 360}, {"note": 76, "velocity": 116, "duration": 240}, {"note": 72, "velocity": 96, "duration": 120}, {"note": 69, "velocity": 113, "duration": 240}, {"note": 72, "velocity": 116, "duration": 840}, {"note": 76, "velocity": 104, "duration": 240}, {"note": 77, "velocity": 110, "duration": 240}, {"note": 79, "velocity": 116, "duration": 240}, {"note": 77, "velocity": 110, "duration": 240}, {"note": 76, "velocity": 108, "duration": 240}, {"note": 79, "velocity": 117, "duration": 479}, {"note": 79, "velocity": 119, "duration": 239}, {"note": 79, "velocity": 117, "duration": 239}, {"note": 79, "velocity": 117, "duration": 239}, {"note": 79, "velocity": 119, "duration": 240}, {"note": 81, "velocity": 117, "duration": 240}, {"note": 83, "velocity": 116, "duration": 240}, {"note": 84, "velocity": 119, "duration": 479}, {"note": 84, "velocity": 117, "duration": 239}, {"note": 84, "velocity": 116, "duration": 240}, {"note": 83, "velocity": 117, "duration": 119}, {"note": 83, "velocity": 116, "duration": 240}, {"note": 81, "velocity": 120, "duration": 359}, {"note": 81, "velocity": 114, "duration": 240}, {"note": 83, "velocity": 116, "duration": 240}, {"note": 81, "velocity": 114, "duration": 240}, {"note": 79, "velocity": 116, "duration": 120}, {"note": 76, "velocity": 116, "duration": 240}, {"note": 81, "velocity": 116, "duration": 360}, {"note": 79, "velocity": 120, "duration": 1200}, {"note": 81, "velocity": 119, "duration": 239}, {"note": 81, "velocity": 113, "duration": 240}, {"note": 77, "velocity": 114, "duration": 120}, {"note": 76, "velocity": 114, "duration": 360}, {"note": 74, "velocity": 116, "duration": 120}, {"note": 76, "velocity": 114, "duration": 240}, {"note": 77, "velocity": 116, "duration": 600}, {"note": 79, "velocity": 113, "duration": 239}, {"note": 79, "velocity": 114, "duration": 240}, {"note": 76, "velocity": 114, "duration": 120}, {"note": 74, "velocity": 113, "duration": 360}, {"note": 72, "velocity": 107, "duration": 120}, {"note": 74, "velocity": 110, "duration": 240}, {"note": 76, "velocity": 116, "duration": 360}, {"note": 77, "velocity": 114, "duration": 240}, {"note": 76, "velocity": 110, "duration": 120}, {"note": 77, "velocity": 117, "duration": 240}, {"note": 79, "velocity": 116, "duration": 360}, {"note": 76, "velocity": 117, "duration": 240}, {"note": 72, "velocity": 107, "duration": 120}, {"note": 69, "velocity": 107, "duration": 240}, {"note": 72, "velocity": 114, "duration": 360}, {"note": 81, "velocity": 113, "duration": 239}, {"note": 81, "velocity": 108, "duration": 119}, {"note": 81, "velocity": 110, "duration": 240}, {"note": 79, "velocity": 116, "duration": 239}, {"note": 79, "velocity": 114, "duration": 240}, {"note": 76, "velocity": 114, "duration": 240}, {"note": 74, "velocity": 119, "duration": 240}, {"note": 72, "velocity": 117, "duration": 599}, {"note": 72, "velocity": 114, "duration": 240}, {"note": 76, "velocity": 116, "duration": 256}, {"note": 77, "velocity": 117, "duration": 240}, {"note": 79, "velocity": 119, "duration": 240}, {"note": 77, "velocity": 114, "duration": 240}, {"note": 76, "velocity": 114, "duration": 240}, {"note": 79, "velocity": 117, "duration": 479}, {"note": 79, "velocity": 117, "duration": 239}, {"note": 79, "velocity": 119, "duration": 239}, {"note": 79, "velocity": 117, "duration": 239}, {"note": 79, "velocity": 119, "duration": 240}, {"note": 81, "velocity": 113, "duration": 120}, {"note": 83, "velocity": 116, "duration": 240}, {"note": 84, "velocity": 119, "duration": 599}, {"note": 84, "velocity": 116, "duration": 239}, {"note": 84, "velocity": 114, "duration": 240}, {"note": 83, "velocity": 117, "duration": 119}, {"note": 83, "velocity": 120, "duration": 240}, {"note": 81, "velocity": 120, "duration": 359}, {"note": 81, "velocity": 119, "duration": 240}, {"note": 83, "velocity": 119, "duration": 240}, {"note": 81, "velocity": 116, "duration": 240}, {"note": 79, "velocity": 119, "duration": 137}, {"note": 76, "velocity": 114, "duration": 240}, {"note": 81, "velocity": 116, "duration": 360}, {"note": 79, "velocity": 120, "duration": 1200}, {"note": 81, "velocity": 113, "duration": 239}, {"note": 81, "velocity": 114, "duration": 240}, {"note": 77, "velocity": 113, "duration": 126}, {"note": 76, "velocity": 117, "duration": 360}, {"note": 74, "velocity": 117, "duration": 151}, {"note": 76, "velocity": 110, "duration": 240}, {"note": 77, "velocity": 117, "duration": 360}, {"note": 79, "velocity": 119, "duration": 239}, {"note": 79, "velocity": 117, "duration": 239}, {"note": 79, "velocity": 120, "duration": 239}, {"note": 79, "velocity": 117, "duration": 120}, {"note": 86, "velocity": 119, "duration": 240}, {"note": 84, "velocity": 120, "duration": 840}, {"note": 77, "velocity": 116, "duration": 239}, {"note": 77, "velocity": 114, "duration": 119}, {"note": 77, "velocity": 113, "duration": 240}, {"note": 79, "velocity": 119, "duration": 360}, {"note": 76, "velocity": 116, "duration": 240}, {"note": 72, "velocity": 117, "duration": 240}, {"note": 69, "velocity": 117, "duration": 152}, {"note": 72, "velocity": 116, "duration": 600}, {"note": 77, "velocity": 117, "duration": 240}, {"note": 76, "velocity": 116, "duration": 240}, {"note": 74, "velocity": 119, "duration": 240}, {"note": 72, "velocity": 119, "duration": 240}, {"note": 69, "velocity": 116, "duration": 240}, {"note": 71, "velocity": 113, "duration": 240}, {"note": 72, "velocity": 117, "duration": 250}]]