[[{"note": 67, "velocity": 76, "duration": 132}, {"note": 0, "velocity": 0, "duration": 108}, {"note": 69, "velocity": 81, "duration": 171}, {"note": 0, "velocity": 0, "duration": 69}, {"note": 74, "velocity": 85, "duration": 382}, {"note": 0, "velocity": 0, "duration": 98}, {"note": 72, "velocity": 74, "duration": 256}, {"note": 0, "velocity": 0, "duration": 224}, {"note": 74, "velocity": 82, "duration": 392}, {"note": 0, "velocity": 0, "duration": 88}, {"note": 72, "velocity": 76, "duration": 306}, {"note": 0, "velocity": 0, "duration": 174}, {"note": 74, "velocity": 85, "duration": 96}, {"note": 0, "velocity": 0, "duration": 144}, {"note": 79, "velocity": 82, "duration": 120}, {"note": 0, "velocity": 0, "duration": 120}, {"note": 74, "velocity": 74, "duration": 227}, {"note": 72, "velocity": 81, "duration": 141}, {"note": 0, "velocity": 0, "duration": 99}, {"note": 74, "velocity": 80, "duration": 399}, {"note": 0, "velocity": 0, "duration": 81}, {"note": 67, "velocity": 78, "duration": 391}, {"note": 0, "velocity": 0, "duration": 89}, {"note": 76, "velocity": 81, "duration": 372}, {"note": 0, "velocity": 0, "duration": 108}, {"note": 69, "velocity": 76, "duration": 346}, {"note": 0, "velocity": 0, "duration": 134}, {"note": 69, "velocity": 81, "duration": 411}, {"note": 0, "velocity": 0, "duration": 69}, {"note": 76, "velocity": 81, "duration": 359}, {"note": 0, "velocity": 0, "duration": 121}, {"note": 74, "velocity": 81, "duration": 473}, {"note": 67, "velocity": 77, "duration": 413}, {"note": 0, "velocity": 0, "duration": 67}, {"note": 74, "velocity": 83, "duration": 483}, {"note": 67, "velocity": 77, "duration": 116}, {"note": 0, "velocity": 0, "duration": 124}, {"note": 69, "velocity": 79, "duration": 161}, {"note": 0, "velocity": 0, "duration": 79}, {"note": 74, "velocity": 84, "duration": 397}, {"note": 0, "velocity": 0, "duration": 83}, {"note": 67, "velocity": 74, "duration": 208}, {"note": 0, "velocity": 0, "duration": 272}, {"note": 74, "velocity": 81, "duration": 378}, {"note": 0, "velocity": 0, "duration": 102}, {"note": 67, "velocity": 75, "duration": 347}, {"note": 0, "velocity": 0, "duration": 133}, {"note": 74, "velocity": 80, "duration": 143}, {"note": 0, "velocity": 0, "duration": 97}, {"note": 79, "velocity": 80, "duration": 151}, {"note": 0, "velocity": 0, "duration": 89}, {"note": 74, "velocity": 76, "duration": 137}, {"note": 0, "velocity": 0, "duration": 103}, {"note": 72, "velocity": 79, "duration": 178}, {"note": 0, "velocity": 0, "duration": 62}, {"note": 74, "velocity": 81, "duration": 357}, {"note": 0, "velocity": 0, "duration": 123}, {"note": 67, "velocity": 74, "duration": 240}, {"note": 0, "velocity": 0, "duration": 245}, {"note": 76, "velocity": 77, "duration": 375}, {"note": 0, "velocity": 0, "duration": 100}, {"note": 69, "velocity": 81, "duration": 359}, {"note": 0, "velocity": 0, "duration": 121}, {"note": 69, "velocity": 80, "duration": 392}, {"note": 0, "velocity": 0, "duration": 88}, {"note": 76, "velocity": 81, "duration": 365}, {"note": 0, "velocity": 0, "duration": 115}, {"note": 74, "velocity": 80, "duration": 266}, {"note": 0, "velocity": 0, "duration": 214}, {"note": 79, "velocity": 74, "duration": 375}, {"note": 0, "velocity": 0, "duration": 105}, {"note": 74, "velocity": 82, "duration": 512}, {"note": 72, "velocity": 81, "duration": 190}, {"note": 74, "velocity": 81, "duration": 157}, {"note": 0, "velocity": 0, "duration": 83}, {"note": 79, "velocity": 81, "duration": 349}, {"note": 0, "velocity": 0, "duration": 131}, {"note": 76, "velocity": 82, "duration": 382}, {"note": 0, "velocity": 0, "duration": 98}, {"note": 74, "velocity": 82, "duration": 382}, {"note": 0, "velocity": 0, "duration": 98}, {"note": 76, "velocity": 80, "duration": 424}, {"note": 74, "velocity": 82, "duration": 191}, {"note": 72, "velocity": 73, "duration": 220}, {"note": 69, "velocity": 75, "duration": 507}, {"note": 72, "velocity": 81, "duration": 389}, {"note": 0, "velocity": 0, "duration": 91}, {"note": 67, "velocity": 81, "duration": 136}, {"note": 0, "velocity": 0, "duration": 104}, {"note": 69, "velocity": 79, "duration": 156}, {"note": 0, "velocity": 0, "duration": 84}, {"note": 76, "velocity": 82, "duration": 422}, {"note": 74, "velocity": 86, "duration": 384}, {"note": 0, "velocity": 0, "duration": 96}, {"note": 79, "velocity": 81, "duration": 482}, {"note": 81, "velocity": 76, "duration": 156}, {"note": 0, "velocity": 0, "duration": 84}, {"note": 76, "velocity": 74, "duration": 960}, {"note": 74, "velocity": 81, "duration": 604}, {"note": 0, "velocity": 0, "duration": 116}, {"note": 72, "velocity": 80, "duration": 116}, {"note": 0, "velocity": 0, "duration": 124}, {"note": 74, "velocity": 82, "duration": 217}, {"note": 79, "velocity": 82, "duration": 375}, {"note": 0, "velocity": 0, "duration": 105}, {"note": 76, "velocity": 78, "duration": 438}, {"note": 74, "velocity": 81, "duration": 412}, {"note": 0, "velocity": 0, "duration": 68}, {"note": 76, "velocity": 79, "duration": 437}, {"note": 74, "velocity": 80, "duration": 154}, {"note": 0, "velocity": 0, "duration": 86}, {"note": 72, "velocity": 80, "duration": 220}, {"note": 69, "velocity": 80, "duration": 418}, {"note": 0, "velocity": 0, "duration": 62}, {"note": 72, "velocity": 78, "duration": 400}, {"note": 0, "velocity": 0, "duration": 80}, {"note": 67, "velocity": 79, "duration": 150}, {"note": 0, "velocity": 0, "duration": 90}, {"note": 69, "velocity": 80, "duration": 195}, {"note": 76, "velocity": 74, "duration": 397}, {"note": 0, "velocity": 0, "duration": 83}, {"note": 72, "velocity": 75, "duration": 479}, {"note": 69, "velocity": 76, "duration": 497}, {"note": 76, "velocity": 81, "duration": 502}, {"note": 72, "velocity": 76, "duration": 1468}, {"note": 0, "velocity": 0, "duration": 1892}, {"note": 67, "velocity": 76, "duration": 132}, {"note": 0, "velocity": 0, "duration": 108}, {"note": 69, "velocity": 81, "duration": 171}, {"note": 0, "velocity": 0, "duration": 69}, {"note": 74, "velocity": 85, "duration": 382}, {"note": 0, "velocity": 0, "duration": 98}, {"note": 72, "velocity": 74, "duration": 256}, {"note": 0, "velocity": 0, "duration": 224}, {"note": 74, "velocity": 82, "duration": 392}, {"note": 0, "velocity": 0, "duration": 88}, {"note": 72, "velocity": 76, "duration": 306}, {"note": 0, "velocity": 0, "duration": 174}, {"note": 74, "velocity": 85, "duration": 96}, {"note": 0, "velocity": 0, "duration": 144}, {"note": 79, "velocity": 82, "duration": 120}, {"note": 0, "velocity": 0, "duration": 120}, {"note": 74, "velocity": 74, "duration": 227}, {"note": 72, "velocity": 81, "duration": 141}, {"note": 0, "velocity": 0, "duration": 99}, {"note": 74, "velocity": 80, "duration": 399}, {"note": 0, "velocity": 0, "duration": 81}, {"note": 67, "velocity": 78, "duration": 391}, {"note": 0, "velocity": 0, "duration": 89}, {"note": 76, "velocity": 81, "duration": 372}, {"note": 0, "velocity": 0, "duration": 108}, {"note": 69, "velocity": 76, "duration": 346}, {"note": 0, "velocity": 0, "duration": 134}, {"note": 69, "velocity": 81, "duration": 411}, {"note": 0, "velocity": 0, "duration": 69}, {"note": 76, "velocity": 81, "duration": 359}, {"note": 0, "velocity": 0, "duration": 121}, {"note": 74, "velocity": 81, "duration": 473}, {"note": 67, "velocity": 77, "duration": 413}, {"note": 0, "velocity": 0, "duration": 67}, {"note": 74, "velocity": 83, "duration": 483}, {"note": 67, "velocity": 77, "duration": 116}, {"note": 0, "velocity": 0, "duration": 124}, {"note": 69, "velocity": 79, "duration": 161}, {"note": 0, "velocity": 0, "duration": 79}, {"note": 74, "velocity": 84, "duration": 397}, {"note": 0, "velocity": 0, "duration": 83}, {"note": 67, "velocity": 74, "duration": 208}, {"note": 0, "velocity": 0, "duration": 272}, {"note": 74, "velocity": 81, "duration": 378}, {"note": 0, "velocity": 0, "duration": 102}, {"note": 67, "velocity": 75, "duration": 347}, {"note": 0, "velocity": 0, "duration": 133}, {"note": 74, "velocity": 80, "duration": 143}, {"note": 0, "velocity": 0, "duration": 97}, {"note": 79, "velocity": 80, "duration": 151}, {"note": 0, "velocity": 0, "duration": 89}, {"note": 74, "velocity": 76, "duration": 137}, {"note": 0, "velocity": 0, "duration": 103}, {"note": 72, "velocity": 79, "duration": 178}, {"note": 0, "velocity": 0, "duration": 62}, {"note": 74, "velocity": 81, "duration": 357}, {"note": 0, "velocity": 0, "duration": 123}, {"note": 67, "velocity": 74, "duration": 240}, {"note": 0, "velocity": 0, "duration": 245}, {"note": 76, "velocity": 77, "duration": 375}, {"note": 0, "velocity": 0, "duration": 100}, {"note": 69, "velocity": 81, "duration": 359}, {"note": 0, "velocity": 0, "duration": 121}, {"note": 69, "velocity": 80, "duration": 392}, {"note": 0, "velocity": 0, "duration": 88}, {"note": 76, "velocity": 81, "duration": 365}, {"note": 0, "velocity": 0, "duration": 115}, {"note": 74, "velocity": 80, "duration": 240}, {"note": 79, "velocity": 74, "duration": 375}, {"note": 0, "velocity": 0, "duration": 105}, {"note": 79, "velocity": 82, "duration": 512}, {"note": 74, "velocity": 81, "duration": 240}, {"note": 72, "velocity": 81, "duration": 190}, {"note": 74, "velocity": 81, "duration": 157}, {"note": 0, "velocity": 0, "duration": 83}, {"note": 79, "velocity": 81, "duration": 349}, {"note": 0, "velocity": 0, "duration": 131}, {"note": 76, "velocity": 82, "duration": 382}, {"note": 0, "velocity": 0, "duration": 98}, {"note": 74, "velocity": 82, "duration": 382}, {"note": 0, "velocity": 0, "duration": 98}, {"note": 76, "velocity": 80, "duration": 424}, {"note": 74, "velocity": 82, "duration": 191}, {"note": 72, "velocity": 73, "duration": 220}, {"note": 69, "velocity": 75, "duration": 507}, {"note": 72, "velocity": 81, "duration": 389}, {"note": 0, "velocity": 0, "duration": 91}, {"note": 67, "velocity": 81, "duration": 136}, {"note": 0, "velocity": 0, "duration": 104}, {"note": 69, "velocity": 79, "duration": 156}, {"note": 0, "velocity": 0, "duration": 84}, {"note": 76, "velocity": 82, "duration": 422}, {"note": 74, "velocity": 86, "duration": 384}, {"note": 0, "velocity": 0, "duration": 96}, {"note": 79, "velocity": 81, "duration": 482}, {"note": 81, "velocity": 76, "duration": 156}, {"note": 0, "velocity": 0, "duration": 84}, {"note": 76, "velocity": 74, "duration": 960}, {"note": 74, "velocity": 81, "duration": 604}, {"note": 0, "velocity": 0, "duration": 116}, {"note": 72, "velocity": 80, "duration": 116}, {"note": 0, "velocity": 0, "duration": 124}, {"note": 74, "velocity": 82, "duration": 217}, {"note": 79, "velocity": 82, "duration": 375}, {"note": 0, "velocity": 0, "duration": 105}, {"note": 76, "velocity": 78, "duration": 438}, {"note": 74, "velocity": 81, "duration": 412}, {"note": 0, "velocity": 0, "duration": 68}, {"note": 76, "velocity": 79, "duration": 437}, {"note": 74, "velocity": 80, "duration": 154}, {"note": 0, "velocity": 0, "duration": 86}, {"note": 72, "velocity": 80, "duration": 220}, {"note": 69, "velocity": 80, "duration": 418}, {"note": 0, "velocity": 0, "duration": 62}, {"note": 72, "velocity": 78, "duration": 400}, {"note": 0, "velocity": 0, "duration": 80}, {"note": 67, "velocity": 79, "duration": 150}, {"note": 0, "velocity": 0, "duration": 90}, {"note": 69, "velocity": 80, "duration": 195}, {"note": 76, "velocity": 74, "duration": 397}, {"note": 0, "velocity": 0, "duration": 83}, {"note": 72, "velocity": 75, "duration": 479}, {"note": 69, "velocity": 76, "duration": 497}, {"note": 76, "velocity": 81, "duration": 502}, {"note": 72, "velocity": 76, "duration": 1468}, {"note": 0, "velocity": 0, "duration": 1892}, {"note": 72, "velocity": 81, "duration": 190}, {"note": 74, "velocity": 81, "duration": 157}, {"note": 0, "velocity": 0, "duration": 83}, {"note": 79, "velocity": 81, "duration": 349}, {"note": 0, "velocity": 0, "duration": 131}, {"note": 76, "velocity": 82, "duration": 382}, {"note": 0, "velocity": 0, "duration": 98}, {"note": 74, "velocity": 82, "duration": 382}, {"note": 0, "velocity": 0, "duration": 98}, {"note": 76, "velocity": 80, "duration": 424}, {"note": 74, "velocity": 82, "duration": 191}, {"note": 72, "velocity": 73, "duration": 220}, {"note": 69, "velocity": 75, "duration": 507}, {"note": 72, "velocity": 81, "duration": 389}, {"note": 0, "velocity": 0, "duration": 91}, {"note": 67, "velocity": 81, "duration": 136}, {"note": 0, "velocity": 0, "duration": 104}, {"note": 69, "velocity": 79, "duration": 156}, {"note": 0, "velocity": 0, "duration": 84}, {"note": 76, "velocity": 82, "duration": 422}, {"note": 74, "velocity": 86, "duration": 384}, {"note": 0, "velocity": 0, "duration": 96}, {"note": 79, "velocity": 81, "duration": 482}, {"note": 81, "velocity": 76, "duration": 156}, {"note": 0, "velocity": 0, "duration": 84}, {"note": 76, "velocity": 74, "duration": 720}, {"note": 69, "velocity": 81, "duration": 240}, {"note": 74, "velocity": 81, "duration": 604}, {"note": 0, "velocity": 0, "duration": 116}, {"note": 72, "velocity": 80, "duration": 116}, {"note": 0, "velocity": 0, "duration": 124}, {"note": 74, "velocity": 82, "duration": 217}, {"note": 79, "velocity": 82, "duration": 375}, {"note": 0, "velocity": 0, "duration": 105}, {"note": 76, "velocity": 78, "duration": 438}, {"note": 74, "velocity": 81, "duration": 412}, {"note": 0, "velocity": 0, "duration": 68}, {"note": 76, "velocity": 79, "duration": 437}, {"note": 77, "velocity": 80, "duration": 154}, {"note": 0, "velocity": 0, "duration": 86}, {"note": 76, "velocity": 80, "duration": 220}, {"note": 74, "velocity": 80, "duration": 418}, {"note": 0, "velocity": 0, "duration": 62}, {"note": 72, "velocity": 78, "duration": 400}, {"note": 0, "velocity": 0, "duration": 80}, {"note": 67, "velocity": 79, "duration": 150}, {"note": 0, "velocity": 0, "duration": 90}, {"note": 69, "velocity": 80, "duration": 195}, {"note": 76, "velocity": 74, "duration": 397}, {"note": 0, "velocity": 0, "duration": 83}, {"note": 72, "velocity": 75, "duration": 479}, {"note": 69, "velocity": 76, "duration": 497}, {"note": 76, "velocity": 81, "duration": 502}, {"note": 72, "velocity": 76, "duration": 1468}, {"note": 0, "velocity": 0, "duration": 1892}, {"note": 72, "velocity": 79, "duration": 182}, {"note": 74, "velocity": 81, "duration": 246}, {"note": 76, "velocity": 82, "duration": 736}, {"note": 79, "velocity": 80, "duration": 751}, {"note": 81, "velocity": 79, "duration": 468}, {"note": 74, "velocity": 82, "duration": 796}, {"note": 76, "velocity": 79, "duration": 765}, {"note": 77, "velocity": 82, "duration": 250}, {"note": 76, "velocity": 81, "duration": 480}, {"note": 72, "velocity": 75, "duration": 1505}, {"note": 0, "velocity": 0, "duration": 175}, {"note": 76, "velocity": 81, "duration": 510}, {"note": 79, "velocity": 80, "duration": 265}, {"note": 76, "velocity": 82, "duration": 731}, {"note": 74, "velocity": 81, "duration": 506}, {"note": 76, "velocity": 79, "duration": 1852}, {"note": 0, "velocity": 0, "duration": 1268}, {"note": 76, "velocity": 76, "duration": 320}, {"note": 69, "velocity": 75, "duration": 245}, {"note": 72, "velocity": 73, "duration": 1124}, {"note": 0, "velocity": 0, "duration": 2476}, {"note": 72, "velocity": 81, "duration": 190}, {"note": 74, "velocity": 81, "duration": 157}, {"note": 0, "velocity": 0, "duration": 83}, {"note": 79, "velocity": 81, "duration": 349}, {"note": 0, "velocity": 0, "duration": 131}, {"note": 76, "velocity": 82, "duration": 382}, {"note": 0, "velocity": 0, "duration": 98}, {"note": 74, "velocity": 82, "duration": 382}, {"note": 0, "velocity": 0, "duration": 98}, {"note": 76, "velocity": 80, "duration": 424}, {"note": 74, "velocity": 82, "duration": 191}, {"note": 72, "velocity": 73, "duration": 220}, {"note": 69, "velocity": 75, "duration": 507}, {"note": 72, "velocity": 81, "duration": 389}, {"note": 0, "velocity": 0, "duration": 91}, {"note": 67, "velocity": 81, "duration": 136}, {"note": 0, "velocity": 0, "duration": 104}, {"note": 69, "velocity": 79, "duration": 156}, {"note": 0, "velocity": 0, "duration": 84}, {"note": 76, "velocity": 82, "duration": 422}, {"note": 74, "velocity": 86, "duration": 384}, {"note": 0, "velocity": 0, "duration": 96}, {"note": 79, "velocity": 81, "duration": 482}, {"note": 81, "velocity": 76, "duration": 156}, {"note": 0, "velocity": 0, "duration": 84}, {"note": 76, "velocity": 74, "duration": 720}, {"note": 69, "velocity": 81, "duration": 240}, {"note": 74, "velocity": 81, "duration": 604}, {"note": 0, "velocity": 0, "duration": 116}, {"note": 72, "velocity": 80, "duration": 116}, {"note": 0, "velocity": 0, "duration": 124}, {"note": 74, "velocity": 82, "duration": 217}, {"note": 79, "velocity": 82, "duration": 375}, {"note": 0, "velocity": 0, "duration": 105}, {"note": 76, "velocity": 78, "duration": 438}, {"note": 74, "velocity": 81, "duration": 412}, {"note": 0, "velocity": 0, "duration": 68}, {"note": 76, "velocity": 79, "duration": 437}, {"note": 77, "velocity": 80, "duration": 154}, {"note": 0, "velocity": 0, "duration": 86}, {"note": 76, "velocity": 80, "duration": 220}, {"note": 74, "velocity": 80, "duration": 418}, {"note": 0, "velocity": 0, "duration": 62}, {"note": 72, "velocity": 78, "duration": 400}, {"note": 0, "velocity": 0, "duration": 80}, {"note": 67, "velocity": 79, "duration": 150}, {"note": 0, "velocity": 0, "duration": 90}, {"note": 69, "velocity": 80, "duration": 195}, {"note": 76, "velocity": 74, "duration": 397}, {"note": 0, "velocity": 0, "duration": 83}, {"note": 72, "velocity": 75, "duration": 479}, {"note": 69, "velocity": 76, "duration": 497}, {"note": 76, "velocity": 81, "duration": 502}, {"note": 72, "velocity": 76, "duration": 1468}, {"note": 0, "velocity": 0, "duration": 1902}, {"note": 67, "velocity": 80, "duration": 297}, {"note": 69, "velocity": 81, "duration": 287}, {"note": 76, "velocity": 81, "duration": 506}, {"note": 72, "velocity": 74, "duration": 536}, {"note": 77, "velocity": 80, "duration": 626}, {"note": 76, "velocity": 80, "duration": 603}, {"note": 72, "velocity": 74, "duration": 1458}]]