[[{"note": 67, "velocity": 116, "duration": 240}, {"note": 69, "velocity": 114, "duration": 240}, {"note": 72, "velocity": 117, "duration": 239}, {"note": 72, "velocity": 116, "duration": 239}, {"note": 72, "velocity": 117, "duration": 240}, {"note": 74, "velocity": 114, "duration": 240}, {"note": 76, "velocity": 117, "duration": 719}, {"note": 76, "velocity": 108, "duration": 120}, {"note": 79, "velocity": 104, "duration": 120}, {"note": 81, "velocity": 116, "duration": 239}, {"note": 81, "velocity": 114, "duration": 240}, {"note": 84, "velocity": 110, "duration": 240}, {"note": 81, "velocity": 104, "duration": 240}, {"note": 79, "velocity": 114, "duration": 240}, {"note": 76, "velocity": 116, "duration": 479}, {"note": 76, "velocity": 108, "duration": 240}, {"note": 74, "velocity": 113, "duration": 479}, {"note": 74, "velocity": 110, "duration": 135}, {"note": 72, "velocity": 96, "duration": 126}, {"note": 69, "velocity": 110, "duration": 120}, {"note": 67, "velocity": 107, "duration": 240}, {"note": 69, "velocity": 110, "duration": 600}, {"note": 67, "velocity": 110, "duration": 240}, {"note": 72, "velocity": 114, "duration": 239}, {"note": 72, "velocity": 110, "duration": 239}, {"note": 72, "velocity": 107, "duration": 239}, {"note": 72, "velocity": 108, "duration": 240}, {"note": 74, "velocity": 113, "duration": 720}, {"note": 67, "velocity": 107, "duration": 132}, {"note": 69, "velocity": 102, "duration": 120}, {"note": 72, "velocity": 116, "duration": 239}, {"note": 72, "velocity": 110, "duration": 239}, {"note": 72, "velocity": 110, "duration": 240}, {"note": 74, "velocity": 110, "duration": 240}, {"note": 76, "velocity": 114, "duration": 719}, {"note": 76, "velocity": 110, "duration": 120}, {"note": 79, "velocity": 108, "duration": 120}, {"note": 81, "velocity": 116, "duration": 239}, {"note": 81, "velocity": 114, "duration": 240}, {"note": 83, "velocity": 108, "duration": 240}, {"note": 81, "velocity": 114, "duration": 240}, {"note": 79, "velocity": 117, "duration": 240}, {"note": 76, "velocity": 116, "duration": 479}, {"note": 76, "velocity": 113, "duration": 240}, {"note": 74, "velocity": 114, "duration": 479}, {"note": 74, "velocity": 114, "duration": 132}, {"note": 72, "velocity": 108, "duration": 120}, {"note": 69, "velocity": 110, "duration": 134}, {"note": 67, "velocity": 107, "duration": 240}, {"note": 69, "velocity": 110, "duration": 600}, {"note": 72, "velocity": 108, "duration": 240}, {"note": 71, "velocity": 114, "duration": 480}, {"note": 69, "velocity": 114, "duration": 240}, {"note": 67, "velocity": 108, "duration": 240}, {"note": 69, "velocity": 114, "duration": 480}, {"note": 72, "velocity": 116, "duration": 240}, {"note": 74, "velocity": 117, "duration": 240}, {"note": 76, "velocity": 117, "duration": 240}, {"note": 79, "velocity": 113, "duration": 240}, {"note": 76, "velocity": 113, "duration": 120}, {"note": 74, "velocity": 100, "duration": 123}, {"note": 72, "velocity": 107, "duration": 120}, {"note": 74, "velocity": 104, "duration": 120}, {"note": 76, "velocity": 116, "duration": 240}, {"note": 81, "velocity": 110, "duration": 240}, {"note": 76, "velocity": 113, "duration": 120}, {"note": 74, "velocity": 93, "duration": 120}, {"note": 72, "velocity": 93, "duration": 120}, {"note": 74, "velocity": 107, "duration": 120}, {"note": 76, "velocity": 114, "duration": 240}, {"note": 83, "velocity": 113, "duration": 239}, {"note": 83, "velocity": 113, "duration": 240}, {"note": 79, "velocity": 116, "duration": 240}, {"note": 81, "velocity": 117, "duration": 479}, {"note": 81, "velocity": 114, "duration": 240}, {"note": 79, "velocity": 116, "duration": 240}, {"note": 81, "velocity": 116, "duration": 240}, {"note": 79, "velocity": 117, "duration": 240}, {"note": 81, "velocity": 113, "duration": 122}, {"note": 79, "velocity": 104, "duration": 120}, {"note": 76, "velocity": 110, "duration": 120}, {"note": 74, "velocity": 108, "duration": 120}, {"note": 76, "velocity": 113, "duration": 240}, {"note": 79, "velocity": 107, "duration": 240}, {"note": 76, "velocity": 110, "duration": 239}, {"note": 76, "velocity": 108, "duration": 240}, {"note": 74, "velocity": 110, "duration": 480}, {"note": 72, "velocity": 110, "duration": 240}, {"note": 74, "velocity": 113, "duration": 240}, {"note": 76, "velocity": 114, "duration": 480}, {"note": 72, "velocity": 110, "duration": 240}, {"note": 74, "velocity": 110, "duration": 240}, {"note": 76, "velocity": 116, "duration": 240}, {"note": 79, "velocity": 114, "duration": 240}, {"note": 76, "velocity": 114, "duration": 120}, {"note": 74, "velocity": 102, "duration": 120}, {"note": 72, "velocity": 108, "duration": 120}, {"note": 74, "velocity": 104, "duration": 120}, {"note": 76, "velocity": 114, "duration": 240}, {"note": 81, "velocity": 116, "duration": 240}, {"note": 76, "velocity": 113, "duration": 120}, {"note": 74, "velocity": 87, "duration": 120}, {"note": 72, "velocity": 107, "duration": 120}, {"note": 74, "velocity": 96, "duration": 120}, {"note": 76, "velocity": 107, "duration": 240}, {"note": 83, "velocity": 114, "duration": 239}, {"note": 83, "velocity": 110, "duration": 240}, {"note": 79, "velocity": 116, "duration": 240}, {"note": 81, "velocity": 119, "duration": 479}, {"note": 81, "velocity": 116, "duration": 240}, {"note": 79, "velocity": 117, "duration": 240}, {"note": 81, "velocity": 119, "duration": 720}, {"note": 79, "velocity": 116, "duration": 240}, {"note": 81, "velocity": 116, "duration": 240}, {"note": 84, "velocity": 114, "duration": 480}, {"note": 81, "velocity": 110, "duration": 240}, {"note": 76, "velocity": 117, "duration": 360}, {"note": 79, "velocity": 117, "duration": 1320}, {"note": 67, "velocity": 104, "duration": 133}, {"note": 69, "velocity": 107, "duration": 120}, {"note": 72, "velocity": 113, "duration": 239}, {"note": 72, "velocity": 107, "duration": 239}, {"note": 72, "velocity": 110, "duration": 240}, {"note": 74, "velocity": 113, "duration": 240}, {"note": 76, "velocity": 114, "duration": 719}, {"note": 76, "velocity": 114, "duration": 120}, {"note": 79, "velocity": 102, "duration": 120}, {"note": 81, "velocity": 114, "duration": 239}, {"note": 81, "velocity": 116, "duration": 240}, {"note": 83, "velocity": 114, "duration": 240}, {"note": 81, "velocity": 114, "duration": 240}, {"note": 79, "velocity": 117, "duration": 240}, {"note": 76, "velocity": 116, "duration": 479}, {"note": 76, "velocity": 116, "duration": 240}, {"note": 74, "velocity": 116, "duration": 479}, {"note": 74, "velocity": 114, "duration": 156}, {"note": 72, "velocity": 108, "duration": 120}, {"note": 69, "velocity": 114, "duration": 120}, {"note": 67, "velocity": 108, "duration": 240}, {"note": 69, "velocity": 116, "duration": 600}, {"note": 72, "velocity": 116, "duration": 240}, {"note": 71, "velocity": 116, "duration": 480}, {"note": 69, "velocity": 114, "duration": 240}, {"note": 67, "velocity": 108, "duration": 240}, {"note": 69, "velocity": 116, "duration": 325}, {"note": 0, "velocity": 0, "duration": 15515}, {"note": 67, "velocity": 116, "duration": 240}, {"note": 69, "velocity": 114, "duration": 240}, {"note": 72, "velocity": 117, "duration": 239}, {"note": 72, "velocity": 116, "duration": 239}, {"note": 72, "velocity": 117, "duration": 240}, {"note": 74, "velocity": 114, "duration": 240}, {"note": 76, "velocity": 117, "duration": 719}, {"note": 76, "velocity": 108, "duration": 120}, {"note": 79, "velocity": 104, "duration": 120}, {"note": 81, "velocity": 116, "duration": 239}, {"note": 81, "velocity": 114, "duration": 240}, {"note": 84, "velocity": 110, "duration": 240}, {"note": 81, "velocity": 104, "duration": 240}, {"note": 79, "velocity": 114, "duration": 240}, {"note": 76, "velocity": 116, "duration": 479}, {"note": 76, "velocity": 108, "duration": 240}, {"note": 74, "velocity": 113, "duration": 479}, {"note": 74, "velocity": 110, "duration": 135}, {"note": 72, "velocity": 96, "duration": 126}, {"note": 69, "velocity": 110, "duration": 120}, {"note": 67, "velocity": 107, "duration": 240}, {"note": 69, "velocity": 110, "duration": 600}, {"note": 67, "velocity": 110, "duration": 240}, {"note": 72, "velocity": 114, "duration": 239}, {"note": 72, "velocity": 110, "duration": 239}, {"note": 72, "velocity": 107, "duration": 239}, {"note": 72, "velocity": 108, "duration": 240}, {"note": 74, "velocity": 113, "duration": 720}, {"note": 67, "velocity": 107, "duration": 132}, {"note": 69, "velocity": 102, "duration": 120}, {"note": 72, "velocity": 116, "duration": 239}, {"note": 72, "velocity": 110, "duration": 239}, {"note": 72, "velocity": 110, "duration": 240}, {"note": 74, "velocity": 110, "duration": 240}, {"note": 76, "velocity": 114, "duration": 719}, {"note": 76, "velocity": 110, "duration": 120}, {"note": 79, "velocity": 108, "duration": 120}, {"note": 81, "velocity": 116, "duration": 239}, {"note": 81, "velocity": 114, "duration": 240}, {"note": 83, "velocity": 108, "duration": 240}, {"note": 81, "velocity": 114, "duration": 240}, {"note": 79, "velocity": 117, "duration": 240}, {"note": 76, "velocity": 116, "duration": 479}, {"note": 76, "velocity": 113, "duration": 240}, {"note": 74, "velocity": 114, "duration": 479}, {"note": 74, "velocity": 114, "duration": 132}, {"note": 72, "velocity": 108, "duration": 120}, {"note": 69, "velocity": 110, "duration": 134}, {"note": 67, "velocity": 107, "duration": 240}, {"note": 69, "velocity": 110, "duration": 600}, {"note": 72, "velocity": 108, "duration": 240}, {"note": 71, "velocity": 114, "duration": 480}, {"note": 69, "velocity": 114, "duration": 240}, {"note": 67, "velocity": 108, "duration": 240}, {"note": 69, "velocity": 114, "duration": 480}, {"note": 72, "velocity": 116, "duration": 240}, {"note": 74, "velocity": 117, "duration": 240}, {"note": 76, "velocity": 117, "duration": 240}, {"note": 79, "velocity": 113, "duration": 240}, {"note": 76, "velocity": 113, "duration": 120}, {"note": 74, "velocity": 100, "duration": 123}, {"note": 72, "velocity": 107, "duration": 120}, {"note": 74, "velocity": 104, "duration": 120}, {"note": 76, "velocity": 116, "duration": 240}, {"note": 81, "velocity": 110, "duration": 240}, {"note": 76, "velocity": 113, "duration": 120}, {"note": 74, "velocity": 93, "duration": 120}, {"note": 72, "velocity": 93, "duration": 120}, {"note": 74, "velocity": 107, "duration": 120}, {"note": 76, "velocity": 114, "duration": 240}, {"note": 83, "velocity": 113, "duration": 239}, {"note": 83, "velocity": 113, "duration": 240}, {"note": 79, "velocity": 116, "duration": 240}, {"note": 81, "velocity": 117, "duration": 479}, {"note": 81, "velocity": 114, "duration": 240}, {"note": 79, "velocity": 116, "duration": 240}, {"note": 81, "velocity": 116, "duration": 240}, {"note": 79, "velocity": 117, "duration": 240}, {"note": 81, "velocity": 113, "duration": 122}, {"note": 79, "velocity": 104, "duration": 120}, {"note": 76, "velocity": 110, "duration": 120}, {"note": 74, "velocity": 108, "duration": 120}, {"note": 76, "velocity": 113, "duration": 240}, {"note": 79, "velocity": 107, "duration": 240}, {"note": 76, "velocity": 110, "duration": 239}, {"note": 76, "velocity": 108, "duration": 240}, {"note": 74, "velocity": 110, "duration": 480}, {"note": 72, "velocity": 110, "duration": 240}, {"note": 74, "velocity": 113, "duration": 240}, {"note": 76, "velocity": 114, "duration": 480}, {"note": 72, "velocity": 110, "duration": 240}, {"note": 74, "velocity": 110, "duration": 240}, {"note": 76, "velocity": 116, "duration": 240}, {"note": 79, "velocity": 114, "duration": 240}, {"note": 76, "velocity": 114, "duration": 120}, {"note": 74, "velocity": 102, "duration": 120}, {"note": 72, "velocity": 108, "duration": 120}, {"note": 74, "velocity": 104, "duration": 120}, {"note": 76, "velocity": 114, "duration": 240}, {"note": 81, "velocity": 116, "duration": 240}, {"note": 76, "velocity": 113, "duration": 120}, {"note": 74, "velocity": 87, "duration": 120}, {"note": 72, "velocity": 107, "duration": 120}, {"note": 74, "velocity": 96, "duration": 120}, {"note": 76, "velocity": 107, "duration": 240}, {"note": 83, "velocity": 114, "duration": 239}, {"note": 83, "velocity": 110, "duration": 240}, {"note": 79, "velocity": 116, "duration": 240}, {"note": 81, "velocity": 119, "duration": 479}, {"note": 81, "velocity": 116, "duration": 240}, {"note": 79, "velocity": 117, "duration": 240}, {"note": 81, "velocity": 119, "duration": 720}, {"note": 79, "velocity": 116, "duration": 240}, {"note": 81, "velocity": 116, "duration": 240}, {"note": 84, "velocity": 114, "duration": 480}, {"note": 81, "velocity": 110, "duration": 240}, {"note": 76, "velocity": 117, "duration": 360}, {"note": 79, "velocity": 117, "duration": 1320}, {"note": 67, "velocity": 104, "duration": 133}, {"note": 69, "velocity": 107, "duration": 120}, {"note": 72, "velocity": 113, "duration": 239}, {"note": 72, "velocity": 107, "duration": 239}, {"note": 72, "velocity": 110, "duration": 240}, {"note": 74, "velocity": 113, "duration": 240}, {"note": 76, "velocity": 114, "duration": 719}, {"note": 76, "velocity": 114, "duration": 120}, {"note": 79, "velocity": 102, "duration": 120}, {"note": 81, "velocity": 114, "duration": 239}, {"note": 81, "velocity": 116, "duration": 240}, {"note": 83, "velocity": 114, "duration": 240}, {"note": 81, "velocity": 114, "duration": 240}, {"note": 79, "velocity": 117, "duration": 240}, {"note": 76, "velocity": 116, "duration": 479}, {"note": 76, "velocity": 116, "duration": 240}, {"note": 74, "velocity": 116, "duration": 479}, {"note": 74, "velocity": 114, "duration": 156}, {"note": 72, "velocity": 108, "duration": 120}, {"note": 69, "velocity": 114, "duration": 120}, {"note": 67, "velocity": 108, "duration": 240}, {"note": 69, "velocity": 116, "duration": 600}, {"note": 72, "velocity": 116, "duration": 240}, {"note": 71, "velocity": 116, "duration": 480}, {"note": 69, "velocity": 114, "duration": 240}, {"note": 67, "velocity": 108, "duration": 240}, {"note": 69, "velocity": 116, "duration": 325}, {"note": 0, "velocity": 0, "duration": 155}, {"note": 72, "velocity": 116, "duration": 240}, {"note": 74, "velocity": 117, "duration": 240}, {"note": 76, "velocity": 117, "duration": 240}, {"note": 79, "velocity": 113, "duration": 240}, {"note": 76, "velocity": 113, "duration": 120}, {"note": 74, "velocity": 100, "duration": 123}, {"note": 72, "velocity": 107, "duration": 120}, {"note": 74, "velocity": 104, "duration": 120}, {"note": 76, "velocity": 116, "duration": 240}, {"note": 81, "velocity": 110, "duration": 240}, {"note": 76, "velocity": 113, "duration": 120}, {"note": 74, "velocity": 93, "duration": 120}, {"note": 72, "velocity": 93, "duration": 120}, {"note": 74, "velocity": 107, "duration": 120}, {"note": 76, "velocity": 114, "duration": 240}, {"note": 83, "velocity": 113, "duration": 239}, {"note": 83, "velocity": 113, "duration": 240}, {"note": 79, "velocity": 116, "duration": 240}, {"note": 81, "velocity": 117, "duration": 479}, {"note": 81, "velocity": 114, "duration": 240}, {"note": 79, "velocity": 116, "duration": 240}, {"note": 81, "velocity": 116, "duration": 240}, {"note": 79, "velocity": 117, "duration": 240}, {"note": 81, "velocity": 113, "duration": 122}, {"note": 79, "velocity": 104, "duration": 120}, {"note": 76, "velocity": 110, "duration": 120}, {"note": 74, "velocity": 108, "duration": 120}, {"note": 76, "velocity": 113, "duration": 240}, {"note": 79, "velocity": 107, "duration": 240}, {"note": 76, "velocity": 110, "duration": 239}, {"note": 76, "velocity": 108, "duration": 240}, {"note": 74, "velocity": 110, "duration": 480}, {"note": 72, "velocity": 110, "duration": 240}, {"note": 74, "velocity": 113, "duration": 240}, {"note": 76, "velocity": 114, "duration": 480}, {"note": 72, "velocity": 110, "duration": 240}, {"note": 74, "velocity": 110, "duration": 240}, {"note": 76, "velocity": 116, "duration": 240}, {"note": 79, "velocity": 114, "duration": 240}, {"note": 76, "velocity": 114, "duration": 120}, {"note": 74, "velocity": 102, "duration": 120}, {"note": 72, "velocity": 108, "duration": 120}, {"note": 74, "velocity": 104, "duration": 120}, {"note": 76, "velocity": 114, "duration": 240}, {"note": 81, "velocity": 116, "duration": 240}, {"note": 76, "velocity": 113, "duration": 120}, {"note": 74, "velocity": 87, "duration": 120}, {"note": 72, "velocity": 107, "duration": 120}, {"note": 74, "velocity": 96, "duration": 120}, {"note": 76, "velocity": 107, "duration": 240}, {"note": 83, "velocity": 114, "duration": 239}, {"note": 83, "velocity": 110, "duration": 240}, {"note": 79, "velocity": 116, "duration": 240}, {"note": 81, "velocity": 119, "duration": 479}, {"note": 81, "velocity": 116, "duration": 240}, {"note": 79, "velocity": 117, "duration": 240}, {"note": 81, "velocity": 119, "duration": 720}, {"note": 84, "velocity": 116, "duration": 239}, {"note": 84, "velocity": 116, "duration": 239}, {"note": 84, "velocity": 114, "duration": 480}, {"note": 81, "velocity": 110, "duration": 240}, {"note": 76, "velocity": 117, "duration": 360}, {"note": 79, "velocity": 117, "duration": 1320}, {"note": 67, "velocity": 104, "duration": 133}, {"note": 69, "velocity": 107, "duration": 120}, {"note": 72, "velocity": 113, "duration": 239}, {"note": 72, "velocity": 107, "duration": 239}, {"note": 72, "velocity": 110, "duration": 240}, {"note": 74, "velocity": 113, "duration": 240}, {"note": 76, "velocity": 114, "duration": 719}, {"note": 76, "velocity": 114, "duration": 120}, {"note": 79, "velocity": 102, "duration": 120}, {"note": 81, "velocity": 114, "duration": 239}, {"note": 81, "velocity": 116, "duration": 240}, {"note": 83, "velocity": 114, "duration": 240}, {"note": 81, "velocity": 114, "duration": 240}, {"note": 79, "velocity": 117, "duration": 240}, {"note": 76, "velocity": 116, "duration": 479}, {"note": 76, "velocity": 116, "duration": 240}, {"note": 74, "velocity": 116, "duration": 479}, {"note": 74, "velocity": 114, "duration": 156}, {"note": 72, "velocity": 108, "duration": 120}, {"note": 69, "velocity": 114, "duration": 120}, {"note": 67, "velocity": 108, "duration": 240}, {"note": 69, "velocity": 116, "duration": 600}, {"note": 72, "velocity": 116, "duration": 240}, {"note": 71, "velocity": 116, "duration": 480}, {"note": 69, "velocity": 114, "duration": 240}, {"note": 67, "velocity": 108, "duration": 240}, {"note": 69, "velocity": 116, "duration": 325}]]