[[{"note": 67, "velocity": 114, "duration": 239}, {"note": 67, "velocity": 108, "duration": 240}, {"note": 69, "velocity": 117, "duration": 240}, {"note": 71, "velocity": 114, "duration": 239}, {"note": 71, "velocity": 116, "duration": 120}, {"note": 69, "velocity": 114, "duration": 239}, {"note": 69, "velocity": 119, "duration": 359}, {"note": 69, "velocity": 117, "duration": 120}, {"note": 71, "velocity": 110, "duration": 120}, {"note": 74, "velocity": 117, "duration": 119}, {"note": 74, "velocity": 114, "duration": 240}, {"note": 71, "velocity": 114, "duration": 120}, {"note": 74, "velocity": 116, "duration": 240}, {"note": 76, "velocity": 117, "duration": 128}, {"note": 67, "velocity": 116, "duration": 1080}, {"note": 74, "velocity": 116, "duration": 119}, {"note": 74, "velocity": 117, "duration": 240}, {"note": 71, "velocity": 117, "duration": 120}, {"note": 74, "velocity": 116, "duration": 240}, {"note": 76, "velocity": 116, "duration": 120}, {"note": 67, "velocity": 113, "duration": 360}, {"note": 64, "velocity": 108, "duration": 120}, {"note": 67, "velocity": 117, "duration": 240}, {"note": 71, "velocity": 110, "duration": 240}, {"note": 69, "velocity": 116, "duration": 2040}, {"note": 71, "velocity": 110, "duration": 119}, {"note": 71, "velocity": 116, "duration": 239}, {"note": 71, "velocity": 114, "duration": 119}, {"note": 71, "velocity": 113, "duration": 240}, {"note": 69, "velocity": 108, "duration": 120}, {"note": 71, "velocity": 114, "duration": 120}, {"note": 74, "velocity": 116, "duration": 119}, {"note": 74, "velocity": 114, "duration": 239}, {"note": 74, "velocity": 116, "duration": 119}, {"note": 74, "velocity": 114, "duration": 239}, {"note": 74, "velocity": 113, "duration": 119}, {"note": 74, "velocity": 114, "duration": 120}, {"note": 71, "velocity": 110, "duration": 126}, {"note": 71, "velocity": 110, "duration": 6}, {"note": 0, "velocity": 0, "duration": 234}, {"note": 71, "velocity": 113, "duration": 119}, {"note": 71, "velocity": 113, "duration": 240}, {"note": 78, "velocity": 116, "duration": 120}, {"note": 79, "velocity": 116, "duration": 240}, {"note": 76, "velocity": 113, "duration": 599}, {"note": 76, "velocity": 110, "duration": 120}, {"note": 78, "velocity": 109, "duration": 120}, {"note": 79, "velocity": 116, "duration": 123}, {"note": 78, "velocity": 116, "duration": 240}, {"note": 76, "velocity": 107, "duration": 119}, {"note": 76, "velocity": 116, "duration": 120}, {"note": 74, "velocity": 110, "duration": 240}, {"note": 71, "velocity": 113, "duration": 120}, {"note": 69, "velocity": 107, "duration": 140}, {"note": 71, "velocity": 114, "duration": 240}, {"note": 74, "velocity": 114, "duration": 600}, {"note": 69, "velocity": 114, "duration": 240}, {"note": 67, "velocity": 102, "duration": 239}, {"note": 67, "velocity": 114, "duration": 239}, {"note": 67, "velocity": 110, "duration": 157}, {"note": 64, "velocity": 102, "duration": 240}, {"note": 67, "velocity": 113, "duration": 2520}, {"note": 71, "velocity": 116, "duration": 240}, {"note": 76, "velocity": 114, "duration": 120}, {"note": 74, "velocity": 104, "duration": 119}, {"note": 74, "velocity": 110, "duration": 120}, {"note": 71, "velocity": 108, "duration": 119}, {"note": 71, "velocity": 114, "duration": 120}, {"note": 69, "velocity": 107, "duration": 120}, {"note": 71, "velocity": 108, "duration": 120}, {"note": 74, "velocity": 113, "duration": 120}, {"note": 76, "velocity": 116, "duration": 120}, {"note": 74, "velocity": 108, "duration": 120}, {"note": 71, "velocity": 102, "duration": 120}, {"note": 74, "velocity": 110, "duration": 360}, {"note": 71, "velocity": 116, "duration": 240}, {"note": 79, "velocity": 114, "duration": 119}, {"note": 79, "velocity": 110, "duration": 119}, {"note": 79, "velocity": 110, "duration": 119}, {"note": 79, "velocity": 113, "duration": 120}, {"note": 76, "velocity": 116, "duration": 240}, {"note": 74, "velocity": 110, "duration": 120}, {"note": 71, "velocity": 114, "duration": 959}, {"note": 71, "velocity": 104, "duration": 120}, {"note": 79, "velocity": 116, "duration": 119}, {"note": 79, "velocity": 113, "duration": 119}, {"note": 79, "velocity": 108, "duration": 120}, {"note": 76, "velocity": 114, "duration": 120}, {"note": 81, "velocity": 119, "duration": 120}, {"note": 79, "velocity": 114, "duration": 240}, {"note": 74, "velocity": 98, "duration": 239}, {"note": 74, "velocity": 107, "duration": 119}, {"note": 74, "velocity": 108, "duration": 120}, {"note": 71, "velocity": 116, "duration": 120}, {"note": 76, "velocity": 116, "duration": 120}, {"note": 74, "velocity": 116, "duration": 360}, {"note": 69, "velocity": 117, "duration": 120}, {"note": 67, "velocity": 110, "duration": 122}, {"note": 69, "velocity": 107, "duration": 123}, {"note": 67, "velocity": 108, "duration": 120}, {"note": 69, "velocity": 110, "duration": 240}, {"note": 67, "velocity": 117, "duration": 120}, {"note": 69, "velocity": 116, "duration": 840}, {"note": 71, "velocity": 116, "duration": 240}, {"note": 76, "velocity": 114, "duration": 120}, {"note": 74, "velocity": 104, "duration": 119}, {"note": 74, "velocity": 110, "duration": 120}, {"note": 71, "velocity": 108, "duration": 119}, {"note": 71, "velocity": 114, "duration": 120}, {"note": 69, "velocity": 107, "duration": 120}, {"note": 71, "velocity": 108, "duration": 120}, {"note": 74, "velocity": 113, "duration": 120}, {"note": 76, "velocity": 116, "duration": 120}, {"note": 74, "velocity": 108, "duration": 120}, {"note": 71, "velocity": 102, "duration": 120}, {"note": 74, "velocity": 110, "duration": 360}, {"note": 71, "velocity": 116, "duration": 119}, {"note": 71, "velocity": 116, "duration": 120}, {"note": 79, "velocity": 114, "duration": 119}, {"note": 79, "velocity": 110, "duration": 119}, {"note": 79, "velocity": 110, "duration": 119}, {"note": 79, "velocity": 113, "duration": 120}, {"note": 81, "velocity": 110, "duration": 120}, {"note": 79, "velocity": 98, "duration": 120}, {"note": 76, "velocity": 108, "duration": 133}, {"note": 71, "velocity": 89, "duration": 120}, {"note": 74, "velocity": 104, "duration": 840}, {"note": 71, "velocity": 104, "duration": 120}, {"note": 79, "velocity": 116, "duration": 119}, {"note": 79, "velocity": 113, "duration": 119}, {"note": 79, "velocity": 108, "duration": 120}, {"note": 76, "velocity": 114, "duration": 120}, {"note": 81, "velocity": 119, "duration": 120}, {"note": 79, "velocity": 114, "duration": 120}, {"note": 76, "velocity": 108, "duration": 120}, {"note": 79, "velocity": 110, "duration": 120}, {"note": 76, "velocity": 110, "duration": 120}, {"note": 74, "velocity": 107, "duration": 120}, {"note": 71, "velocity": 113, "duration": 120}, {"note": 74, "velocity": 108, "duration": 120}, {"note": 71, "velocity": 116, "duration": 480}, {"note": 69, "velocity": 113, "duration": 120}, {"note": 71, "velocity": 114, "duration": 120}, {"note": 74, "velocity": 113, "duration": 120}, {"note": 71, "velocity": 114, "duration": 120}, {"note": 69, "velocity": 117, "duration": 120}, {"note": 67, "velocity": 113, "duration": 120}, {"note": 64, "velocity": 100, "duration": 120}, {"note": 67, "velocity": 116, "duration": 119}, {"note": 67, "velocity": 116, "duration": 4799}, {"note": 67, "velocity": 114, "duration": 239}, {"note": 67, "velocity": 108, "duration": 240}, {"note": 69, "velocity": 117, "duration": 240}, {"note": 71, "velocity": 114, "duration": 239}, {"note": 71, "velocity": 116, "duration": 120}, {"note": 69, "velocity": 114, "duration": 239}, {"note": 69, "velocity": 119, "duration": 359}, {"note": 69, "velocity": 117, "duration": 120}, {"note": 71, "velocity": 110, "duration": 120}, {"note": 74, "velocity": 117, "duration": 119}, {"note": 74, "velocity": 114, "duration": 240}, {"note": 71, "velocity": 114, "duration": 120}, {"note": 74, "velocity": 116, "duration": 240}, {"note": 76, "velocity": 117, "duration": 128}, {"note": 67, "velocity": 116, "duration": 1080}, {"note": 74, "velocity": 116, "duration": 119}, {"note": 74, "velocity": 117, "duration": 240}, {"note": 71, "velocity": 117, "duration": 120}, {"note": 74, "velocity": 116, "duration": 240}, {"note": 76, "velocity": 116, "duration": 120}, {"note": 67, "velocity": 113, "duration": 360}, {"note": 64, "velocity": 108, "duration": 120}, {"note": 67, "velocity": 117, "duration": 240}, {"note": 71, "velocity": 110, "duration": 240}, {"note": 69, "velocity": 116, "duration": 2040}, {"note": 71, "velocity": 110, "duration": 119}, {"note": 71, "velocity": 116, "duration": 239}, {"note": 71, "velocity": 114, "duration": 119}, {"note": 71, "velocity": 113, "duration": 240}, {"note": 69, "velocity": 108, "duration": 120}, {"note": 71, "velocity": 114, "duration": 120}, {"note": 74, "velocity": 116, "duration": 119}, {"note": 74, "velocity": 114, "duration": 239}, {"note": 74, "velocity": 116, "duration": 119}, {"note": 74, "velocity": 114, "duration": 239}, {"note": 74, "velocity": 113, "duration": 119}, {"note": 74, "velocity": 114, "duration": 120}, {"note": 71, "velocity": 110, "duration": 126}, {"note": 71, "velocity": 110, "duration": 6}, {"note": 0, "velocity": 0, "duration": 234}, {"note": 71, "velocity": 113, "duration": 119}, {"note": 71, "velocity": 113, "duration": 240}, {"note": 78, "velocity": 116, "duration": 120}, {"note": 79, "velocity": 116, "duration": 240}, {"note": 76, "velocity": 113, "duration": 599}, {"note": 76, "velocity": 110, "duration": 120}, {"note": 78, "velocity": 109, "duration": 120}, {"note": 79, "velocity": 116, "duration": 123}, {"note": 78, "velocity": 116, "duration": 240}, {"note": 76, "velocity": 107, "duration": 119}, {"note": 76, "velocity": 116, "duration": 120}, {"note": 74, "velocity": 110, "duration": 240}, {"note": 71, "velocity": 113, "duration": 120}, {"note": 69, "velocity": 107, "duration": 140}, {"note": 71, "velocity": 114, "duration": 240}, {"note": 74, "velocity": 114, "duration": 600}, {"note": 69, "velocity": 114, "duration": 240}, {"note": 67, "velocity": 102, "duration": 239}, {"note": 67, "velocity": 114, "duration": 239}, {"note": 67, "velocity": 110, "duration": 157}, {"note": 64, "velocity": 102, "duration": 240}, {"note": 67, "velocity": 113, "duration": 2520}, {"note": 71, "velocity": 116, "duration": 240}, {"note": 76, "velocity": 114, "duration": 120}, {"note": 74, "velocity": 104, "duration": 119}, {"note": 74, "velocity": 110, "duration": 120}, {"note": 71, "velocity": 108, "duration": 119}, {"note": 71, "velocity": 114, "duration": 120}, {"note": 69, "velocity": 107, "duration": 120}, {"note": 71, "velocity": 108, "duration": 120}, {"note": 74, "velocity": 113, "duration": 120}, {"note": 76, "velocity": 116, "duration": 120}, {"note": 74, "velocity": 108, "duration": 120}, {"note": 71, "velocity": 102, "duration": 120}, {"note": 74, "velocity": 110, "duration": 360}, {"note": 71, "velocity": 116, "duration": 240}, {"note": 79, "velocity": 114, "duration": 119}, {"note": 79, "velocity": 110, "duration": 119}, {"note": 79, "velocity": 110, "duration": 119}, {"note": 79, "velocity": 113, "duration": 120}, {"note": 76, "velocity": 116, "duration": 240}, {"note": 74, "velocity": 110, "duration": 120}, {"note": 71, "velocity": 114, "duration": 959}, {"note": 71, "velocity": 104, "duration": 120}, {"note": 79, "velocity": 116, "duration": 119}, {"note": 79, "velocity": 113, "duration": 119}, {"note": 79, "velocity": 108, "duration": 120}, {"note": 76, "velocity": 114, "duration": 120}, {"note": 81, "velocity": 119, "duration": 120}, {"note": 79, "velocity": 114, "duration": 240}, {"note": 74, "velocity": 98, "duration": 239}, {"note": 74, "velocity": 107, "duration": 119}, {"note": 74, "velocity": 108, "duration": 120}, {"note": 71, "velocity": 116, "duration": 120}, {"note": 76, "velocity": 116, "duration": 120}, {"note": 74, "velocity": 116, "duration": 360}, {"note": 69, "velocity": 117, "duration": 120}, {"note": 67, "velocity": 110, "duration": 122}, {"note": 69, "velocity": 107, "duration": 123}, {"note": 67, "velocity": 108, "duration": 120}, {"note": 69, "velocity": 110, "duration": 240}, {"note": 67, "velocity": 117, "duration": 120}, {"note": 69, "velocity": 116, "duration": 840}, {"note": 71, "velocity": 116, "duration": 240}, {"note": 76, "velocity": 114, "duration": 120}, {"note": 74, "velocity": 104, "duration": 119}, {"note": 74, "velocity": 110, "duration": 120}, {"note": 71, "velocity": 108, "duration": 119}, {"note": 71, "velocity": 114, "duration": 120}, {"note": 69, "velocity": 107, "duration": 120}, {"note": 71, "velocity": 108, "duration": 120}, {"note": 74, "velocity": 113, "duration": 120}, {"note": 76, "velocity": 116, "duration": 120}, {"note": 74, "velocity": 108, "duration": 120}, {"note": 71, "velocity": 102, "duration": 120}, {"note": 74, "velocity": 110, "duration": 360}, {"note": 71, "velocity": 116, "duration": 119}, {"note": 71, "velocity": 116, "duration": 120}, {"note": 79, "velocity": 114, "duration": 119}, {"note": 79, "velocity": 110, "duration": 119}, {"note": 79, "velocity": 110, "duration": 119}, {"note": 79, "velocity": 113, "duration": 120}, {"note": 81, "velocity": 110, "duration": 120}, {"note": 79, "velocity": 98, "duration": 120}, {"note": 76, "velocity": 108, "duration": 133}, {"note": 71, "velocity": 89, "duration": 120}, {"note": 74, "velocity": 104, "duration": 840}, {"note": 71, "velocity": 104, "duration": 120}, {"note": 79, "velocity": 116, "duration": 119}, {"note": 79, "velocity": 113, "duration": 119}, {"note": 79, "velocity": 108, "duration": 120}, {"note": 76, "velocity": 114, "duration": 120}, {"note": 81, "velocity": 119, "duration": 120}, {"note": 79, "velocity": 114, "duration": 120}, {"note": 76, "velocity": 108, "duration": 120}, {"note": 79, "velocity": 110, "duration": 120}, {"note": 76, "velocity": 110, "duration": 120}, {"note": 74, "velocity": 107, "duration": 120}, {"note": 71, "velocity": 113, "duration": 120}, {"note": 74, "velocity": 108, "duration": 120}, {"note": 71, "velocity": 116, "duration": 480}, {"note": 69, "velocity": 113, "duration": 120}, {"note": 71, "velocity": 114, "duration": 120}, {"note": 74, "velocity": 113, "duration": 120}, {"note": 71, "velocity": 114, "duration": 120}, {"note": 69, "velocity": 117, "duration": 120}, {"note": 67, "velocity": 113, "duration": 120}, {"note": 64, "velocity": 100, "duration": 120}, {"note": 67, "velocity": 116, "duration": 119}, {"note": 67, "velocity": 116, "duration": 14160}, {"note": 71, "velocity": 116, "duration": 240}, {"note": 76, "velocity": 114, "duration": 120}, {"note": 74, "velocity": 104, "duration": 119}, {"note": 74, "velocity": 110, "duration": 120}, {"note": 71, "velocity": 108, "duration": 119}, {"note": 71, "velocity": 114, "duration": 120}, {"note": 69, "velocity": 107, "duration": 120}, {"note": 71, "velocity": 108, "duration": 120}, {"note": 74, "velocity": 113, "duration": 120}, {"note": 76, "velocity": 116, "duration": 120}, {"note": 74, "velocity": 108, "duration": 120}, {"note": 71, "velocity": 102, "duration": 120}, {"note": 74, "velocity": 110, "duration": 360}, {"note": 71, "velocity": 116, "duration": 240}, {"note": 79, "velocity": 114, "duration": 119}, {"note": 79, "velocity": 110, "duration": 119}, {"note": 79, "velocity": 110, "duration": 119}, {"note": 79, "velocity": 113, "duration": 120}, {"note": 76, "velocity": 116, "duration": 240}, {"note": 74, "velocity": 110, "duration": 120}, {"note": 71, "velocity": 114, "duration": 959}, {"note": 71, "velocity": 104, "duration": 120}, {"note": 79, "velocity": 116, "duration": 119}, {"note": 79, "velocity": 113, "duration": 119}, {"note": 79, "velocity": 108, "duration": 120}, {"note": 76, "velocity": 114, "duration": 120}, {"note": 81, "velocity": 119, "duration": 120}, {"note": 79, "velocity": 114, "duration": 240}, {"note": 74, "velocity": 98, "duration": 239}, {"note": 74, "velocity": 107, "duration": 119}, {"note": 74, "velocity": 108, "duration": 120}, {"note": 71, "velocity": 116, "duration": 120}, {"note": 76, "velocity": 116, "duration": 120}, {"note": 74, "velocity": 116, "duration": 360}, {"note": 69, "velocity": 117, "duration": 120}, {"note": 67, "velocity": 110, "duration": 122}, {"note": 69, "velocity": 107, "duration": 123}, {"note": 67, "velocity": 108, "duration": 120}, {"note": 69, "velocity": 110, "duration": 240}, {"note": 67, "velocity": 117, "duration": 120}, {"note": 69, "velocity": 116, "duration": 840}, {"note": 71, "velocity": 116, "duration": 240}, {"note": 76, "velocity": 114, "duration": 120}, {"note": 74, "velocity": 104, "duration": 119}, {"note": 74, "velocity": 110, "duration": 120}, {"note": 71, "velocity": 108, "duration": 119}, {"note": 71, "velocity": 114, "duration": 120}, {"note": 69, "velocity": 107, "duration": 120}, {"note": 71, "velocity": 108, "duration": 120}, {"note": 74, "velocity": 113, "duration": 120}, {"note": 76, "velocity": 116, "duration": 120}, {"note": 74, "velocity": 108, "duration": 120}, {"note": 71, "velocity": 102, "duration": 120}, {"note": 74, "velocity": 110, "duration": 360}, {"note": 71, "velocity": 116, "duration": 119}, {"note": 71, "velocity": 116, "duration": 120}, {"note": 79, "velocity": 114, "duration": 119}, {"note": 79, "velocity": 110, "duration": 119}, {"note": 79, "velocity": 110, "duration": 119}, {"note": 79, "velocity": 113, "duration": 120}, {"note": 81, "velocity": 110, "duration": 120}, {"note": 79, "velocity": 98, "duration": 120}, {"note": 76, "velocity": 108, "duration": 133}, {"note": 71, "velocity": 89, "duration": 120}, {"note": 74, "velocity": 104, "duration": 840}, {"note": 71, "velocity": 104, "duration": 120}, {"note": 79, "velocity": 116, "duration": 119}, {"note": 79, "velocity": 113, "duration": 119}, {"note": 79, "velocity": 108, "duration": 120}, {"note": 76, "velocity": 114, "duration": 120}, {"note": 81, "velocity": 119, "duration": 120}, {"note": 79, "velocity": 114, "duration": 120}, {"note": 76, "velocity": 108, "duration": 120}, {"note": 79, "velocity": 110, "duration": 120}, {"note": 76, "velocity": 110, "duration": 120}, {"note": 74, "velocity": 107, "duration": 120}, {"note": 71, "velocity": 113, "duration": 120}, {"note": 74, "velocity": 108, "duration": 120}, {"note": 71, "velocity": 116, "duration": 480}, {"note": 69, "velocity": 113, "duration": 120}, {"note": 71, "velocity": 114, "duration": 120}, {"note": 74, "velocity": 113, "duration": 120}, {"note": 71, "velocity": 114, "duration": 120}, {"note": 69, "velocity": 117, "duration": 120}, {"note": 67, "velocity": 113, "duration": 120}, {"note": 64, "velocity": 100, "duration": 120}, {"note": 67, "velocity": 116, "duration": 119}, {"note": 67, "velocity": 116, "duration": 840}, {"note": 71, "velocity": 104, "duration": 120}, {"note": 79, "velocity": 116, "duration": 119}, {"note": 79, "velocity": 113, "duration": 119}, {"note": 79, "velocity": 108, "duration": 120}, {"note": 76, "velocity": 114, "duration": 120}, {"note": 81, "velocity": 119, "duration": 120}, {"note": 79, "velocity": 114, "duration": 120}, {"note": 76, "velocity": 108, "duration": 120}, {"note": 79, "velocity": 110, "duration": 120}, {"note": 76, "velocity": 110, "duration": 120}, {"note": 74, "velocity": 107, "duration": 120}, {"note": 71, "velocity": 113, "duration": 120}, {"note": 74, "velocity": 108, "duration": 120}, {"note": 71, "velocity": 116, "duration": 480}, {"note": 69, "velocity": 113, "duration": 120}, {"note": 71, "velocity": 114, "duration": 120}, {"note": 74, "velocity": 113, "duration": 120}, {"note": 71, "velocity": 114, "duration": 120}, {"note": 69, "velocity": 117, "duration": 120}, {"note": 67, "velocity": 113, "duration": 120}, {"note": 64, "velocity": 100, "duration": 120}, {"note": 67, "velocity": 116, "duration": 119}, {"note": 67, "velocity": 116, "duration": 2160}]]