[[{"note": 68, "velocity": 110, "duration": 119}, {"note": 68, "velocity": 107, "duration": 120}, {"note": 75, "velocity": 119, "duration": 239}, {"note": 75, "velocity": 117, "duration": 239}, {"note": 75, "velocity": 116, "duration": 120}, {"note": 73, "velocity": 92, "duration": 120}, {"note": 71, "velocity": 90, "duration": 120}, {"note": 75, "velocity": 110, "duration": 240}, {"note": 78, "velocity": 113, "duration": 240}, {"note": 75, "velocity": 113, "duration": 359}, {"note": 75, "velocity": 108, "duration": 120}, {"note": 78, "velocity": 107, "duration": 120}, {"note": 80, "velocity": 113, "duration": 239}, {"note": 80, "velocity": 110, "duration": 240}, {"note": 78, "velocity": 113, "duration": 127}, {"note": 80, "velocity": 113, "duration": 240}, {"note": 78, "velocity": 96, "duration": 119}, {"note": 78, "velocity": 114, "duration": 240}, {"note": 75, "velocity": 110, "duration": 479}, {"note": 75, "velocity": 114, "duration": 120}, {"note": 78, "velocity": 98, "duration": 120}, {"note": 73, "velocity": 108, "duration": 239}, {"note": 73, "velocity": 108, "duration": 239}, {"note": 73, "velocity": 113, "duration": 120}, {"note": 71, "velocity": 104, "duration": 119}, {"note": 71, "velocity": 102, "duration": 140}, {"note": 73, "velocity": 94, "duration": 120}, {"note": 75, "velocity": 114, "duration": 240}, {"note": 78, "velocity": 104, "duration": 120}, {"note": 75, "velocity": 110, "duration": 360}, {"note": 68, "velocity": 108, "duration": 134}, {"note": 70, "velocity": 107, "duration": 120}, {"note": 71, "velocity": 110, "duration": 240}, {"note": 73, "velocity": 110, "duration": 240}, {"note": 70, "velocity": 108, "duration": 140}, {"note": 68, "velocity": 102, "duration": 120}, {"note": 66, "velocity": 100, "duration": 120}, {"note": 68, "velocity": 100, "duration": 119}, {"note": 68, "velocity": 113, "duration": 719}, {"note": 68, "velocity": 113, "duration": 119}, {"note": 68, "velocity": 108, "duration": 120}, {"note": 75, "velocity": 96, "duration": 239}, {"note": 75, "velocity": 113, "duration": 239}, {"note": 75, "velocity": 108, "duration": 120}, {"note": 73, "velocity": 102, "duration": 123}, {"note": 71, "velocity": 108, "duration": 120}, {"note": 73, "velocity": 98, "duration": 120}, {"note": 75, "velocity": 113, "duration": 120}, {"note": 78, "velocity": 113, "duration": 240}, {"note": 75, "velocity": 114, "duration": 359}, {"note": 75, "velocity": 114, "duration": 120}, {"note": 78, "velocity": 104, "duration": 120}, {"note": 80, "velocity": 113, "duration": 239}, {"note": 80, "velocity": 114, "duration": 240}, {"note": 78, "velocity": 110, "duration": 120}, {"note": 80, "velocity": 108, "duration": 240}, {"note": 78, "velocity": 98, "duration": 119}, {"note": 78, "velocity": 116, "duration": 240}, {"note": 75, "velocity": 116, "duration": 479}, {"note": 75, "velocity": 113, "duration": 129}, {"note": 78, "velocity": 102, "duration": 121}, {"note": 73, "velocity": 110, "duration": 239}, {"note": 73, "velocity": 110, "duration": 239}, {"note": 73, "velocity": 110, "duration": 120}, {"note": 71, "velocity": 102, "duration": 119}, {"note": 71, "velocity": 107, "duration": 120}, {"note": 73, "velocity": 102, "duration": 120}, {"note": 75, "velocity": 113, "duration": 120}, {"note": 78, "velocity": 100, "duration": 240}, {"note": 75, "velocity": 110, "duration": 360}, {"note": 68, "velocity": 107, "duration": 133}, {"note": 70, "velocity": 104, "duration": 120}, {"note": 71, "velocity": 110, "duration": 480}, {"note": 70, "velocity": 110, "duration": 240}, {"note": 66, "velocity": 114, "duration": 240}, {"note": 68, "velocity": 114, "duration": 720}, {"note": 75, "velocity": 116, "duration": 119}, {"note": 75, "velocity": 108, "duration": 120}, {"note": 80, "velocity": 113, "duration": 239}, {"note": 80, "velocity": 114, "duration": 240}, {"note": 78, "velocity": 108, "duration": 120}, {"note": 80, "velocity": 102, "duration": 240}, {"note": 78, "velocity": 107, "duration": 119}, {"note": 78, "velocity": 113, "duration": 240}, {"note": 75, "velocity": 117, "duration": 479}, {"note": 75, "velocity": 104, "duration": 119}, {"note": 75, "velocity": 104, "duration": 120}, {"note": 80, "velocity": 113, "duration": 239}, {"note": 80, "velocity": 113, "duration": 240}, {"note": 78, "velocity": 114, "duration": 120}, {"note": 80, "velocity": 98, "duration": 240}, {"note": 78, "velocity": 114, "duration": 119}, {"note": 78, "velocity": 116, "duration": 240}, {"note": 75, "velocity": 117, "duration": 360}, {"note": 73, "velocity": 116, "duration": 119}, {"note": 73, "velocity": 110, "duration": 120}, {"note": 71, "velocity": 110, "duration": 120}, {"note": 73, "velocity": 114, "duration": 479}, {"note": 73, "velocity": 117, "duration": 240}, {"note": 71, "velocity": 113, "duration": 120}, {"note": 73, "velocity": 117, "duration": 600}, {"note": 78, "velocity": 117, "duration": 240}, {"note": 80, "velocity": 116, "duration": 240}, {"note": 75, "velocity": 117, "duration": 1679}, {"note": 75, "velocity": 110, "duration": 119}, {"note": 75, "velocity": 113, "duration": 120}, {"note": 80, "velocity": 119, "duration": 239}, {"note": 80, "velocity": 116, "duration": 240}, {"note": 78, "velocity": 116, "duration": 120}, {"note": 80, "velocity": 113, "duration": 240}, {"note": 78, "velocity": 117, "duration": 119}, {"note": 78, "velocity": 119, "duration": 240}, {"note": 75, "velocity": 116, "duration": 479}, {"note": 75, "velocity": 117, "duration": 120}, {"note": 78, "velocity": 104, "duration": 120}, {"note": 73, "velocity": 117, "duration": 239}, {"note": 73, "velocity": 110, "duration": 239}, {"note": 73, "velocity": 113, "duration": 133}, {"note": 71, "velocity": 102, "duration": 240}, {"note": 73, "velocity": 113, "duration": 120}, {"note": 75, "velocity": 102, "duration": 120}, {"note": 78, "velocity": 116, "duration": 120}, {"note": 75, "velocity": 110, "duration": 480}, {"note": 68, "velocity": 113, "duration": 120}, {"note": 70, "velocity": 110, "duration": 120}, {"note": 71, "velocity": 114, "duration": 479}, {"note": 71, "velocity": 114, "duration": 134}, {"note": 73, "velocity": 96, "duration": 240}, {"note": 70, "velocity": 110, "duration": 599}, {"note": 70, "velocity": 116, "duration": 119}, {"note": 70, "velocity": 113, "duration": 240}, {"note": 66, "velocity": 107, "duration": 120}, {"note": 70, "velocity": 116, "duration": 240}, {"note": 68, "velocity": 117, "duration": 720}, {"note": 0, "velocity": 0, "duration": 16080}, {"note": 68, "velocity": 110, "duration": 119}, {"note": 68, "velocity": 107, "duration": 120}, {"note": 75, "velocity": 119, "duration": 239}, {"note": 75, "velocity": 117, "duration": 239}, {"note": 75, "velocity": 116, "duration": 120}, {"note": 73, "velocity": 92, "duration": 120}, {"note": 71, "velocity": 90, "duration": 120}, {"note": 75, "velocity": 110, "duration": 240}, {"note": 78, "velocity": 113, "duration": 240}, {"note": 75, "velocity": 113, "duration": 359}, {"note": 75, "velocity": 108, "duration": 120}, {"note": 78, "velocity": 107, "duration": 120}, {"note": 80, "velocity": 113, "duration": 239}, {"note": 80, "velocity": 110, "duration": 240}, {"note": 78, "velocity": 113, "duration": 127}, {"note": 80, "velocity": 113, "duration": 240}, {"note": 78, "velocity": 96, "duration": 119}, {"note": 78, "velocity": 114, "duration": 240}, {"note": 75, "velocity": 110, "duration": 479}, {"note": 75, "velocity": 114, "duration": 120}, {"note": 78, "velocity": 98, "duration": 120}, {"note": 73, "velocity": 108, "duration": 239}, {"note": 73, "velocity": 108, "duration": 239}, {"note": 73, "velocity": 113, "duration": 120}, {"note": 71, "velocity": 104, "duration": 119}, {"note": 71, "velocity": 102, "duration": 140}, {"note": 73, "velocity": 94, "duration": 120}, {"note": 75, "velocity": 114, "duration": 240}, {"note": 78, "velocity": 104, "duration": 120}, {"note": 75, "velocity": 110, "duration": 360}, {"note": 68, "velocity": 108, "duration": 134}, {"note": 70, "velocity": 107, "duration": 120}, {"note": 71, "velocity": 110, "duration": 240}, {"note": 73, "velocity": 110, "duration": 240}, {"note": 70, "velocity": 108, "duration": 140}, {"note": 68, "velocity": 102, "duration": 120}, {"note": 66, "velocity": 100, "duration": 120}, {"note": 68, "velocity": 100, "duration": 119}, {"note": 68, "velocity": 113, "duration": 719}, {"note": 68, "velocity": 113, "duration": 119}, {"note": 68, "velocity": 108, "duration": 120}, {"note": 75, "velocity": 96, "duration": 239}, {"note": 75, "velocity": 113, "duration": 239}, {"note": 75, "velocity": 108, "duration": 120}, {"note": 73, "velocity": 102, "duration": 123}, {"note": 71, "velocity": 108, "duration": 120}, {"note": 73, "velocity": 98, "duration": 120}, {"note": 75, "velocity": 113, "duration": 120}, {"note": 78, "velocity": 113, "duration": 240}, {"note": 75, "velocity": 114, "duration": 359}, {"note": 75, "velocity": 114, "duration": 120}, {"note": 78, "velocity": 104, "duration": 120}, {"note": 80, "velocity": 113, "duration": 239}, {"note": 80, "velocity": 114, "duration": 240}, {"note": 78, "velocity": 110, "duration": 120}, {"note": 80, "velocity": 108, "duration": 240}, {"note": 78, "velocity": 98, "duration": 119}, {"note": 78, "velocity": 116, "duration": 240}, {"note": 75, "velocity": 116, "duration": 479}, {"note": 75, "velocity": 113, "duration": 129}, {"note": 78, "velocity": 102, "duration": 121}, {"note": 73, "velocity": 110, "duration": 239}, {"note": 73, "velocity": 110, "duration": 239}, {"note": 73, "velocity": 110, "duration": 120}, {"note": 71, "velocity": 102, "duration": 119}, {"note": 71, "velocity": 107, "duration": 120}, {"note": 73, "velocity": 102, "duration": 120}, {"note": 75, "velocity": 113, "duration": 120}, {"note": 78, "velocity": 100, "duration": 240}, {"note": 75, "velocity": 110, "duration": 360}, {"note": 68, "velocity": 107, "duration": 133}, {"note": 70, "velocity": 104, "duration": 120}, {"note": 71, "velocity": 110, "duration": 480}, {"note": 70, "velocity": 110, "duration": 240}, {"note": 66, "velocity": 114, "duration": 240}, {"note": 68, "velocity": 114, "duration": 480}, {"note": 0, "velocity": 0, "duration": 240}, {"note": 75, "velocity": 116, "duration": 119}, {"note": 75, "velocity": 108, "duration": 120}, {"note": 80, "velocity": 113, "duration": 239}, {"note": 80, "velocity": 114, "duration": 240}, {"note": 78, "velocity": 108, "duration": 120}, {"note": 80, "velocity": 102, "duration": 240}, {"note": 78, "velocity": 107, "duration": 119}, {"note": 78, "velocity": 113, "duration": 240}, {"note": 75, "velocity": 117, "duration": 479}, {"note": 75, "velocity": 104, "duration": 119}, {"note": 75, "velocity": 104, "duration": 120}, {"note": 80, "velocity": 113, "duration": 239}, {"note": 80, "velocity": 113, "duration": 240}, {"note": 78, "velocity": 114, "duration": 120}, {"note": 80, "velocity": 98, "duration": 240}, {"note": 78, "velocity": 114, "duration": 119}, {"note": 78, "velocity": 116, "duration": 240}, {"note": 75, "velocity": 117, "duration": 360}, {"note": 73, "velocity": 116, "duration": 119}, {"note": 73, "velocity": 110, "duration": 120}, {"note": 71, "velocity": 110, "duration": 120}, {"note": 73, "velocity": 114, "duration": 479}, {"note": 73, "velocity": 117, "duration": 240}, {"note": 71, "velocity": 113, "duration": 120}, {"note": 73, "velocity": 117, "duration": 600}, {"note": 78, "velocity": 117, "duration": 240}, {"note": 80, "velocity": 116, "duration": 240}, {"note": 75, "velocity": 117, "duration": 1679}, {"note": 75, "velocity": 110, "duration": 119}, {"note": 75, "velocity": 113, "duration": 120}, {"note": 80, "velocity": 119, "duration": 239}, {"note": 80, "velocity": 116, "duration": 240}, {"note": 78, "velocity": 116, "duration": 120}, {"note": 80, "velocity": 113, "duration": 240}, {"note": 78, "velocity": 117, "duration": 119}, {"note": 78, "velocity": 119, "duration": 240}, {"note": 75, "velocity": 116, "duration": 479}, {"note": 75, "velocity": 117, "duration": 120}, {"note": 78, "velocity": 104, "duration": 120}, {"note": 73, "velocity": 117, "duration": 239}, {"note": 73, "velocity": 110, "duration": 239}, {"note": 73, "velocity": 113, "duration": 133}, {"note": 71, "velocity": 102, "duration": 240}, {"note": 73, "velocity": 113, "duration": 120}, {"note": 75, "velocity": 102, "duration": 120}, {"note": 78, "velocity": 116, "duration": 120}, {"note": 75, "velocity": 110, "duration": 480}, {"note": 68, "velocity": 113, "duration": 120}, {"note": 70, "velocity": 110, "duration": 120}, {"note": 71, "velocity": 114, "duration": 479}, {"note": 71, "velocity": 114, "duration": 134}, {"note": 73, "velocity": 96, "duration": 240}, {"note": 70, "velocity": 110, "duration": 599}, {"note": 70, "velocity": 116, "duration": 119}, {"note": 70, "velocity": 113, "duration": 240}, {"note": 66, "velocity": 107, "duration": 120}, {"note": 70, "velocity": 116, "duration": 240}, {"note": 68, "velocity": 117, "duration": 720}, {"note": 0, "velocity": 0, "duration": 720}, {"note": 75, "velocity": 116, "duration": 119}, {"note": 75, "velocity": 108, "duration": 120}, {"note": 80, "velocity": 113, "duration": 239}, {"note": 80, "velocity": 114, "duration": 240}, {"note": 78, "velocity": 108, "duration": 120}, {"note": 80, "velocity": 102, "duration": 240}, {"note": 78, "velocity": 107, "duration": 119}, {"note": 78, "velocity": 113, "duration": 240}, {"note": 75, "velocity": 117, "duration": 479}, {"note": 75, "velocity": 104, "duration": 119}, {"note": 75, "velocity": 104, "duration": 120}, {"note": 80, "velocity": 113, "duration": 239}, {"note": 80, "velocity": 113, "duration": 240}, {"note": 78, "velocity": 114, "duration": 120}, {"note": 80, "velocity": 98, "duration": 240}, {"note": 78, "velocity": 114, "duration": 119}, {"note": 78, "velocity": 116, "duration": 240}, {"note": 75, "velocity": 117, "duration": 360}, {"note": 73, "velocity": 116, "duration": 119}, {"note": 73, "velocity": 110, "duration": 120}, {"note": 71, "velocity": 110, "duration": 120}, {"note": 73, "velocity": 114, "duration": 479}, {"note": 73, "velocity": 117, "duration": 240}, {"note": 71, "velocity": 113, "duration": 120}, {"note": 73, "velocity": 117, "duration": 600}, {"note": 78, "velocity": 117, "duration": 240}, {"note": 80, "velocity": 116, "duration": 240}, {"note": 75, "velocity": 117, "duration": 1679}, {"note": 75, "velocity": 110, "duration": 119}, {"note": 75, "velocity": 113, "duration": 120}, {"note": 80, "velocity": 119, "duration": 239}, {"note": 80, "velocity": 116, "duration": 240}, {"note": 78, "velocity": 116, "duration": 120}, {"note": 80, "velocity": 113, "duration": 240}, {"note": 78, "velocity": 117, "duration": 119}, {"note": 78, "velocity": 119, "duration": 240}, {"note": 75, "velocity": 116, "duration": 479}, {"note": 75, "velocity": 117, "duration": 120}, {"note": 78, "velocity": 104, "duration": 120}, {"note": 73, "velocity": 117, "duration": 239}, {"note": 73, "velocity": 110, "duration": 239}, {"note": 73, "velocity": 113, "duration": 133}, {"note": 71, "velocity": 102, "duration": 240}, {"note": 73, "velocity": 113, "duration": 120}, {"note": 75, "velocity": 102, "duration": 120}, {"note": 78, "velocity": 116, "duration": 120}, {"note": 75, "velocity": 110, "duration": 480}, {"note": 68, "velocity": 113, "duration": 120}, {"note": 70, "velocity": 110, "duration": 120}, {"note": 71, "velocity": 114, "duration": 479}, {"note": 71, "velocity": 114, "duration": 134}, {"note": 73, "velocity": 96, "duration": 240}, {"note": 70, "velocity": 110, "duration": 599}, {"note": 70, "velocity": 116, "duration": 119}, {"note": 70, "velocity": 113, "duration": 240}, {"note": 66, "velocity": 107, "duration": 120}, {"note": 70, "velocity": 116, "duration": 240}, {"note": 68, "velocity": 117, "duration": 1439}, {"note": 68, "velocity": 98, "duration": 125}, {"note": 70, "velocity": 76, "duration": 120}, {"note": 71, "velocity": 107, "duration": 479}, {"note": 71, "velocity": 100, "duration": 120}, {"note": 73, "velocity": 89, "duration": 360}, {"note": 70, "velocity": 100, "duration": 480}, {"note": 82, "velocity": 116, "duration": 119}, {"note": 82, "velocity": 117, "duration": 240}, {"note": 78, "velocity": 114, "duration": 180}, {"note": 82, "velocity": 117, "duration": 420}, {"note": 80, "velocity": 116, "duration": 1440}]]