[[{"note": 65, "velocity": 117, "duration": 240}, {"note": 68, "velocity": 116, "duration": 240}, {"note": 70, "velocity": 119, "duration": 479}, {"note": 70, "velocity": 110, "duration": 239}, {"note": 70, "velocity": 110, "duration": 240}, {"note": 68, "velocity": 117, "duration": 479}, {"note": 68, "velocity": 114, "duration": 240}, {"note": 65, "velocity": 113, "duration": 1679}, {"note": 65, "velocity": 114, "duration": 239}, {"note": 65, "velocity": 114, "duration": 240}, {"note": 63, "velocity": 116, "duration": 480}, {"note": 61, "velocity": 100, "duration": 239}, {"note": 61, "velocity": 108, "duration": 720}, {"note": 63, "velocity": 108, "duration": 240}, {"note": 65, "velocity": 113, "duration": 1679}, {"note": 65, "velocity": 110, "duration": 240}, {"note": 68, "velocity": 110, "duration": 240}, {"note": 70, "velocity": 116, "duration": 479}, {"note": 70, "velocity": 116, "duration": 239}, {"note": 70, "velocity": 114, "duration": 240}, {"note": 68, "velocity": 116, "duration": 239}, {"note": 68, "velocity": 114, "duration": 240}, {"note": 72, "velocity": 116, "duration": 240}, {"note": 73, "velocity": 116, "duration": 720}, {"note": 72, "velocity": 113, "duration": 240}, {"note": 70, "velocity": 114, "duration": 719}, {"note": 70, "velocity": 114, "duration": 239}, {"note": 70, "velocity": 113, "duration": 240}, {"note": 68, "velocity": 119, "duration": 480}, {"note": 72, "velocity": 116, "duration": 240}, {"note": 73, "velocity": 116, "duration": 2639}, {"note": 73, "velocity": 116, "duration": 240}, {"note": 72, "velocity": 113, "duration": 120}, {"note": 73, "velocity": 110, "duration": 599}, {"note": 73, "velocity": 117, "duration": 240}, {"note": 75, "velocity": 116, "duration": 240}, {"note": 72, "velocity": 119, "duration": 480}, {"note": 70, "velocity": 117, "duration": 240}, {"note": 68, "velocity": 116, "duration": 960}, {"note": 65, "velocity": 107, "duration": 120}, {"note": 68, "velocity": 100, "duration": 120}, {"note": 70, "velocity": 116, "duration": 480}, {"note": 68, "velocity": 113, "duration": 239}, {"note": 68, "velocity": 113, "duration": 480}, {"note": 66, "velocity": 116, "duration": 240}, {"note": 65, "velocity": 113, "duration": 239}, {"note": 65, "velocity": 113, "duration": 480}, {"note": 63, "velocity": 113, "duration": 1200}, {"note": 65, "velocity": 104, "duration": 240}, {"note": 63, "velocity": 108, "duration": 240}, {"note": 61, "velocity": 113, "duration": 480}, {"note": 73, "velocity": 119, "duration": 240}, {"note": 72, "velocity": 113, "duration": 120}, {"note": 73, "velocity": 114, "duration": 600}, {"note": 77, "velocity": 117, "duration": 240}, {"note": 75, "velocity": 110, "duration": 123}, {"note": 73, "velocity": 104, "duration": 120}, {"note": 72, "velocity": 114, "duration": 480}, {"note": 70, "velocity": 116, "duration": 240}, {"note": 68, "velocity": 116, "duration": 960}, {"note": 66, "velocity": 110, "duration": 120}, {"note": 68, "velocity": 108, "duration": 120}, {"note": 70, "velocity": 116, "duration": 240}, {"note": 72, "velocity": 116, "duration": 240}, {"note": 73, "velocity": 117, "duration": 240}, {"note": 68, "velocity": 117, "duration": 480}, {"note": 66, "velocity": 117, "duration": 240}, {"note": 65, "velocity": 117, "duration": 239}, {"note": 65, "velocity": 114, "duration": 240}, {"note": 63, "velocity": 108, "duration": 3600}, {"note": 68, "velocity": 117, "duration": 240}, {"note": 73, "velocity": 117, "duration": 240}, {"note": 75, "velocity": 117, "duration": 240}, {"note": 77, "velocity": 120, "duration": 240}, {"note": 75, "velocity": 119, "duration": 480}, {"note": 73, "velocity": 114, "duration": 240}, {"note": 72, "velocity": 117, "duration": 240}, {"note": 73, "velocity": 114, "duration": 1920}, {"note": 68, "velocity": 114, "duration": 240}, {"note": 70, "velocity": 119, "duration": 240}, {"note": 72, "velocity": 116, "duration": 240}, {"note": 73, "velocity": 117, "duration": 240}, {"note": 68, "velocity": 114, "duration": 480}, {"note": 73, "velocity": 119, "duration": 480}, {"note": 66, "velocity": 117, "duration": 720}, {"note": 70, "velocity": 119, "duration": 240}, {"note": 68, "velocity": 114, "duration": 959}, {"note": 68, "velocity": 117, "duration": 240}, {"note": 73, "velocity": 116, "duration": 240}, {"note": 75, "velocity": 114, "duration": 240}, {"note": 77, "velocity": 119, "duration": 240}, {"note": 80, "velocity": 120, "duration": 480}, {"note": 75, "velocity": 113, "duration": 240}, {"note": 77, "velocity": 114, "duration": 240}, {"note": 75, "velocity": 116, "duration": 240}, {"note": 73, "velocity": 110, "duration": 1680}, {"note": 68, "velocity": 100, "duration": 119}, {"note": 68, "velocity": 104, "duration": 120}, {"note": 70, "velocity": 114, "duration": 240}, {"note": 72, "velocity": 114, "duration": 240}, {"note": 73, "velocity": 114, "duration": 240}, {"note": 68, "velocity": 117, "duration": 480}, {"note": 73, "velocity": 100, "duration": 239}, {"note": 73, "velocity": 116, "duration": 239}, {"note": 73, "velocity": 117, "duration": 240}, {"note": 0, "velocity": 0, "duration": 2400}, {"note": 65, "velocity": 117, "duration": 240}, {"note": 68, "velocity": 116, "duration": 240}, {"note": 70, "velocity": 119, "duration": 479}, {"note": 70, "velocity": 110, "duration": 239}, {"note": 70, "velocity": 110, "duration": 240}, {"note": 68, "velocity": 117, "duration": 479}, {"note": 68, "velocity": 114, "duration": 240}, {"note": 65, "velocity": 113, "duration": 1679}, {"note": 65, "velocity": 114, "duration": 239}, {"note": 65, "velocity": 114, "duration": 240}, {"note": 63, "velocity": 116, "duration": 480}, {"note": 61, "velocity": 100, "duration": 239}, {"note": 61, "velocity": 108, "duration": 720}, {"note": 63, "velocity": 108, "duration": 240}, {"note": 65, "velocity": 113, "duration": 1679}, {"note": 65, "velocity": 110, "duration": 240}, {"note": 68, "velocity": 110, "duration": 240}, {"note": 70, "velocity": 116, "duration": 479}, {"note": 70, "velocity": 116, "duration": 239}, {"note": 70, "velocity": 114, "duration": 240}, {"note": 68, "velocity": 116, "duration": 239}, {"note": 68, "velocity": 114, "duration": 240}, {"note": 72, "velocity": 116, "duration": 240}, {"note": 73, "velocity": 116, "duration": 720}, {"note": 72, "velocity": 113, "duration": 240}, {"note": 70, "velocity": 114, "duration": 719}, {"note": 70, "velocity": 114, "duration": 239}, {"note": 70, "velocity": 113, "duration": 240}, {"note": 68, "velocity": 119, "duration": 480}, {"note": 72, "velocity": 116, "duration": 240}, {"note": 73, "velocity": 116, "duration": 2639}, {"note": 73, "velocity": 116, "duration": 240}, {"note": 72, "velocity": 113, "duration": 120}, {"note": 73, "velocity": 110, "duration": 599}, {"note": 73, "velocity": 117, "duration": 240}, {"note": 75, "velocity": 116, "duration": 240}, {"note": 72, "velocity": 119, "duration": 480}, {"note": 70, "velocity": 117, "duration": 240}, {"note": 68, "velocity": 116, "duration": 960}, {"note": 65, "velocity": 107, "duration": 120}, {"note": 68, "velocity": 100, "duration": 120}, {"note": 70, "velocity": 116, "duration": 480}, {"note": 68, "velocity": 113, "duration": 239}, {"note": 68, "velocity": 113, "duration": 480}, {"note": 66, "velocity": 116, "duration": 240}, {"note": 65, "velocity": 113, "duration": 239}, {"note": 65, "velocity": 113, "duration": 480}, {"note": 63, "velocity": 113, "duration": 1200}, {"note": 65, "velocity": 104, "duration": 240}, {"note": 63, "velocity": 108, "duration": 240}, {"note": 61, "velocity": 113, "duration": 480}, {"note": 73, "velocity": 119, "duration": 240}, {"note": 72, "velocity": 113, "duration": 120}, {"note": 73, "velocity": 114, "duration": 600}, {"note": 77, "velocity": 117, "duration": 240}, {"note": 75, "velocity": 110, "duration": 123}, {"note": 73, "velocity": 104, "duration": 120}, {"note": 72, "velocity": 114, "duration": 480}, {"note": 70, "velocity": 116, "duration": 240}, {"note": 68, "velocity": 116, "duration": 960}, {"note": 66, "velocity": 110, "duration": 120}, {"note": 68, "velocity": 108, "duration": 120}, {"note": 70, "velocity": 116, "duration": 240}, {"note": 72, "velocity": 116, "duration": 240}, {"note": 73, "velocity": 117, "duration": 240}, {"note": 68, "velocity": 117, "duration": 480}, {"note": 66, "velocity": 117, "duration": 240}, {"note": 65, "velocity": 117, "duration": 239}, {"note": 65, "velocity": 114, "duration": 240}, {"note": 63, "velocity": 108, "duration": 1680}, {"note": 68, "velocity": 117, "duration": 240}, {"note": 73, "velocity": 117, "duration": 240}, {"note": 75, "velocity": 117, "duration": 240}, {"note": 77, "velocity": 120, "duration": 240}, {"note": 75, "velocity": 119, "duration": 480}, {"note": 73, "velocity": 114, "duration": 240}, {"note": 72, "velocity": 117, "duration": 240}, {"note": 73, "velocity": 114, "duration": 1920}, {"note": 68, "velocity": 114, "duration": 240}, {"note": 70, "velocity": 119, "duration": 240}, {"note": 72, "velocity": 116, "duration": 240}, {"note": 73, "velocity": 117, "duration": 240}, {"note": 68, "velocity": 114, "duration": 480}, {"note": 73, "velocity": 119, "duration": 480}, {"note": 66, "velocity": 117, "duration": 720}, {"note": 70, "velocity": 119, "duration": 240}, {"note": 68, "velocity": 114, "duration": 959}, {"note": 68, "velocity": 117, "duration": 240}, {"note": 73, "velocity": 116, "duration": 240}, {"note": 75, "velocity": 114, "duration": 240}, {"note": 77, "velocity": 119, "duration": 240}, {"note": 80, "velocity": 120, "duration": 480}, {"note": 75, "velocity": 113, "duration": 240}, {"note": 77, "velocity": 114, "duration": 240}, {"note": 75, "velocity": 116, "duration": 240}, {"note": 73, "velocity": 110, "duration": 1680}, {"note": 68, "velocity": 100, "duration": 119}, {"note": 68, "velocity": 104, "duration": 120}, {"note": 70, "velocity": 114, "duration": 240}, {"note": 72, "velocity": 114, "duration": 240}, {"note": 73, "velocity": 114, "duration": 240}, {"note": 68, "velocity": 117, "duration": 480}, {"note": 73, "velocity": 100, "duration": 239}, {"note": 73, "velocity": 116, "duration": 239}, {"note": 73, "velocity": 117, "duration": 2194}, {"note": 0, "velocity": 0, "duration": 446}, {"note": 65, "velocity": 117, "duration": 240}, {"note": 68, "velocity": 116, "duration": 240}, {"note": 70, "velocity": 119, "duration": 479}, {"note": 70, "velocity": 110, "duration": 239}, {"note": 70, "velocity": 110, "duration": 240}, {"note": 68, "velocity": 117, "duration": 479}, {"note": 68, "velocity": 114, "duration": 240}, {"note": 65, "velocity": 113, "duration": 1679}, {"note": 65, "velocity": 114, "duration": 239}, {"note": 65, "velocity": 114, "duration": 240}, {"note": 63, "velocity": 116, "duration": 480}, {"note": 61, "velocity": 100, "duration": 239}, {"note": 61, "velocity": 108, "duration": 720}, {"note": 63, "velocity": 108, "duration": 240}, {"note": 65, "velocity": 113, "duration": 1679}, {"note": 65, "velocity": 110, "duration": 240}, {"note": 68, "velocity": 110, "duration": 240}, {"note": 70, "velocity": 116, "duration": 479}, {"note": 70, "velocity": 116, "duration": 239}, {"note": 70, "velocity": 114, "duration": 240}, {"note": 68, "velocity": 116, "duration": 239}, {"note": 68, "velocity": 114, "duration": 240}, {"note": 72, "velocity": 116, "duration": 240}, {"note": 73, "velocity": 116, "duration": 960}, {"note": 68, "velocity": 104, "duration": 119}, {"note": 68, "velocity": 100, "duration": 120}, {"note": 70, "velocity": 116, "duration": 240}, {"note": 72, "velocity": 88, "duration": 240}, {"note": 73, "velocity": 108, "duration": 240}, {"note": 68, "velocity": 114, "duration": 480}, {"note": 73, "velocity": 113, "duration": 239}, {"note": 73, "velocity": 116, "duration": 239}, {"note": 73, "velocity": 117, "duration": 1920}, {"note": 68, "velocity": 104, "duration": 119}, {"note": 68, "velocity": 102, "duration": 120}, {"note": 70, "velocity": 114, "duration": 240}, {"note": 72, "velocity": 110, "duration": 242}, {"note": 73, "velocity": 108, "duration": 240}, {"note": 68, "velocity": 113, "duration": 480}, {"note": 73, "velocity": 104, "duration": 239}, {"note": 73, "velocity": 98, "duration": 239}, {"note": 73, "velocity": 107, "duration": 2160}, {"note": 68, "velocity": 107, "duration": 240}, {"note": 70, "velocity": 113, "duration": 360}, {"note": 72, "velocity": 108, "duration": 360}, {"note": 73, "velocity": 108, "duration": 360}, {"note": 68, "velocity": 113, "duration": 2040}, {"note": 65, "velocity": 96, "duration": 196}, {"note": 63, "velocity": 86, "duration": 120}, {"note": 61, "velocity": 88, "duration": 1075}]]