[[{"note": 70, "velocity": 117, "duration": 161}, {"note": 71, "velocity": 114, "duration": 279}, {"note": 73, "velocity": 113, "duration": 190}, {"note": 75, "velocity": 116, "duration": 220}, {"note": 73, "velocity": 113, "duration": 218}, {"note": 70, "velocity": 113, "duration": 299}, {"note": 0, "velocity": 0, "duration": 301}, {"note": 66, "velocity": 119, "duration": 237}, {"note": 63, "velocity": 116, "duration": 256}, {"note": 73, "velocity": 119, "duration": 297}, {"note": 71, "velocity": 117, "duration": 302}, {"note": 70, "velocity": 123, "duration": 288}, {"note": 71, "velocity": 117, "duration": 441}, {"note": 68, "velocity": 119, "duration": 321}, {"note": 0, "velocity": 0, "duration": 759}, {"note": 68, "velocity": 116, "duration": 229}, {"note": 75, "velocity": 119, "duration": 282}, {"note": 73, "velocity": 119, "duration": 235}, {"note": 70, "velocity": 119, "duration": 401}, {"note": 66, "velocity": 116, "duration": 521}, {"note": 0, "velocity": 0, "duration": 79}, {"note": 70, "velocity": 123, "duration": 361}, {"note": 66, "velocity": 119, "duration": 259}, {"note": 0, "velocity": 0, "duration": 101}, {"note": 76, "velocity": 114, "duration": 300}, {"note": 75, "velocity": 119, "duration": 861}, {"note": 0, "velocity": 0, "duration": 819}, {"note": 75, "velocity": 106, "duration": 178}, {"note": 75, "velocity": 100, "duration": 58}, {"note": 0, "velocity": 0, "duration": 62}, {"note": 73, "velocity": 113, "duration": 250}, {"note": 78, "velocity": 119, "duration": 721}, {"note": 0, "velocity": 0, "duration": 479}, {"note": 78, "velocity": 103, "duration": 245}, {"note": 73, "velocity": 103, "duration": 211}, {"note": 75, "velocity": 106, "duration": 203}, {"note": 76, "velocity": 107, "duration": 1041}, {"note": 0, "velocity": 0, "duration": 399}, {"note": 76, "velocity": 113, "duration": 266}, {"note": 75, "velocity": 116, "duration": 293}, {"note": 73, "velocity": 106, "duration": 256}, {"note": 71, "velocity": 102, "duration": 280}, {"note": 73, "velocity": 116, "duration": 239}, {"note": 68, "velocity": 113, "duration": 312}, {"note": 0, "velocity": 0, "duration": 288}, {"note": 75, "velocity": 119, "duration": 244}, {"note": 68, "velocity": 116, "duration": 261}, {"note": 75, "velocity": 113, "duration": 236}, {"note": 75, "velocity": 116, "duration": 194}, {"note": 75, "velocity": 116, "duration": 74}, {"note": 73, "velocity": 113, "duration": 561}, {"note": 0, "velocity": 0, "duration": 999}, {"note": 71, "velocity": 98, "duration": 191}, {"note": 71, "velocity": 94, "duration": 71}, {"note": 73, "velocity": 109, "duration": 226}, {"note": 75, "velocity": 109, "duration": 227}, {"note": 76, "velocity": 100, "duration": 282}, {"note": 75, "velocity": 109, "duration": 245}, {"note": 70, "velocity": 113, "duration": 378}, {"note": 0, "velocity": 0, "duration": 102}, {"note": 66, "velocity": 119, "duration": 237}, {"note": 63, "velocity": 116, "duration": 256}, {"note": 73, "velocity": 119, "duration": 297}, {"note": 71, "velocity": 117, "duration": 302}, {"note": 70, "velocity": 123, "duration": 288}, {"note": 71, "velocity": 117, "duration": 333}, {"note": 68, "velocity": 119, "duration": 681}, {"note": 0, "velocity": 0, "duration": 399}, {"note": 68, "velocity": 116, "duration": 229}, {"note": 75, "velocity": 119, "duration": 282}, {"note": 73, "velocity": 119, "duration": 235}, {"note": 70, "velocity": 119, "duration": 312}, {"note": 66, "velocity": 116, "duration": 270}, {"note": 0, "velocity": 0, "duration": 330}, {"note": 70, "velocity": 123, "duration": 361}, {"note": 66, "velocity": 119, "duration": 259}, {"note": 0, "velocity": 0, "duration": 101}, {"note": 76, "velocity": 114, "duration": 300}, {"note": 75, "velocity": 119, "duration": 1281}, {"note": 0, "velocity": 0, "duration": 399}, {"note": 75, "velocity": 106, "duration": 178}, {"note": 75, "velocity": 100, "duration": 58}, {"note": 0, "velocity": 0, "duration": 62}, {"note": 73, "velocity": 113, "duration": 250}, {"note": 78, "velocity": 119, "duration": 981}, {"note": 0, "velocity": 0, "duration": 219}, {"note": 78, "velocity": 103, "duration": 245}, {"note": 73, "velocity": 103, "duration": 211}, {"note": 75, "velocity": 106, "duration": 203}, {"note": 76, "velocity": 107, "duration": 1041}, {"note": 0, "velocity": 0, "duration": 399}, {"note": 76, "velocity": 116, "duration": 272}, {"note": 78, "velocity": 113, "duration": 226}, {"note": 76, "velocity": 110, "duration": 240}, {"note": 75, "velocity": 119, "duration": 264}, {"note": 76, "velocity": 113, "duration": 219}, {"note": 76, "velocity": 117, "duration": 99}, {"note": 0, "velocity": 0, "duration": 501}, {"note": 76, "velocity": 104, "duration": 311}, {"note": 70, "velocity": 116, "duration": 293}, {"note": 71, "velocity": 110, "duration": 248}, {"note": 73, "velocity": 116, "duration": 381}, {"note": 71, "velocity": 116, "duration": 1121}, {"note": 0, "velocity": 0, "duration": 559}, {"note": 75, "velocity": 114, "duration": 266}, {"note": 76, "velocity": 110, "duration": 211}, {"note": 78, "velocity": 116, "duration": 291}, {"note": 78, "velocity": 113, "duration": 51}, {"note": 0, "velocity": 0, "duration": 189}, {"note": 76, "velocity": 114, "duration": 300}, {"note": 75, "velocity": 117, "duration": 283}, {"note": 73, "velocity": 119, "duration": 441}, {"note": 76, "velocity": 117, "duration": 306}, {"note": 75, "velocity": 116, "duration": 1601}, {"note": 0, "velocity": 0, "duration": 319}, {"note": 76, "velocity": 113, "duration": 275}, {"note": 78, "velocity": 114, "duration": 235}, {"note": 80, "velocity": 117, "duration": 304}, {"note": 80, "velocity": 117, "duration": 64}, {"note": 0, "velocity": 0, "duration": 176}, {"note": 78, "velocity": 117, "duration": 392}, {"note": 76, "velocity": 117, "duration": 347}, {"note": 75, "velocity": 117, "duration": 291}, {"note": 0, "velocity": 0, "duration": 69}, {"note": 66, "velocity": 108, "duration": 233}, {"note": 76, "velocity": 113, "duration": 237}, {"note": 75, "velocity": 114, "duration": 317}, {"note": 73, "velocity": 117, "duration": 1041}, {"note": 0, "velocity": 0, "duration": 639}, {"note": 75, "velocity": 116, "duration": 240}, {"note": 73, "velocity": 114, "duration": 250}, {"note": 71, "velocity": 114, "duration": 309}, {"note": 73, "velocity": 116, "duration": 181}, {"note": 73, "velocity": 114, "duration": 61}, {"note": 75, "velocity": 119, "duration": 321}, {"note": 80, "velocity": 119, "duration": 293}, {"note": 0, "velocity": 0, "duration": 67}, {"note": 79, "velocity": 123, "duration": 233}, {"note": 75, "velocity": 113, "duration": 183}, {"note": 75, "velocity": 116, "duration": 63}, {"note": 73, "velocity": 114, "duration": 275}, {"note": 75, "velocity": 116, "duration": 271}, {"note": 0, "velocity": 0, "duration": 329}, {"note": 71, "velocity": 114, "duration": 181}, {"note": 71, "velocity": 114, "duration": 61}, {"note": 0, "velocity": 0, "duration": 179}, {"note": 80, "velocity": 117, "duration": 354}, {"note": 78, "velocity": 119, "duration": 861}, {"note": 0, "velocity": 0, "duration": 99}, {"note": 76, "velocity": 116, "duration": 331}, {"note": 75, "velocity": 117, "duration": 203}, {"note": 76, "velocity": 116, "duration": 260}, {"note": 78, "velocity": 119, "duration": 265}, {"note": 76, "velocity": 117, "duration": 295}, {"note": 0, "velocity": 0, "duration": 65}, {"note": 68, "velocity": 114, "duration": 364}, {"note": 75, "velocity": 117, "duration": 262}, {"note": 75, "velocity": 116, "duration": 22}, {"note": 0, "velocity": 0, "duration": 218}, {"note": 73, "velocity": 117, "duration": 1041}, {"note": 0, "velocity": 0, "duration": 399}, {"note": 75, "velocity": 114, "duration": 266}, {"note": 76, "velocity": 110, "duration": 211}, {"note": 78, "velocity": 116, "duration": 291}, {"note": 78, "velocity": 113, "duration": 51}, {"note": 0, "velocity": 0, "duration": 189}, {"note": 76, "velocity": 114, "duration": 300}, {"note": 75, "velocity": 117, "duration": 283}, {"note": 73, "velocity": 119, "duration": 501}, {"note": 76, "velocity": 117, "duration": 306}, {"note": 75, "velocity": 116, "duration": 1281}, {"note": 0, "velocity": 0, "duration": 639}, {"note": 76, "velocity": 113, "duration": 275}, {"note": 78, "velocity": 114, "duration": 235}, {"note": 80, "velocity": 117, "duration": 304}, {"note": 80, "velocity": 117, "duration": 64}, {"note": 0, "velocity": 0, "duration": 176}, {"note": 78, "velocity": 117, "duration": 392}, {"note": 76, "velocity": 117, "duration": 347}, {"note": 75, "velocity": 117, "duration": 291}, {"note": 0, "velocity": 0, "duration": 69}, {"note": 66, "velocity": 108, "duration": 233}, {"note": 76, "velocity": 113, "duration": 237}, {"note": 75, "velocity": 114, "duration": 441}, {"note": 73, "velocity": 117, "duration": 1281}, {"note": 0, "velocity": 0, "duration": 399}, {"note": 75, "velocity": 116, "duration": 240}, {"note": 73, "velocity": 114, "duration": 250}, {"note": 71, "velocity": 114, "duration": 309}, {"note": 73, "velocity": 116, "duration": 181}, {"note": 73, "velocity": 114, "duration": 61}, {"note": 75, "velocity": 119, "duration": 245}, {"note": 80, "velocity": 119, "duration": 293}, {"note": 0, "velocity": 0, "duration": 67}, {"note": 79, "velocity": 123, "duration": 233}, {"note": 75, "velocity": 113, "duration": 183}, {"note": 75, "velocity": 116, "duration": 63}, {"note": 73, "velocity": 114, "duration": 275}, {"note": 75, "velocity": 116, "duration": 271}, {"note": 0, "velocity": 0, "duration": 329}, {"note": 71, "velocity": 113, "duration": 192}, {"note": 80, "velocity": 117, "duration": 226}, {"note": 80, "velocity": 113, "duration": 106}, {"note": 0, "velocity": 0, "duration": 134}, {"note": 78, "velocity": 116, "duration": 224}, {"note": 80, "velocity": 119, "duration": 265}, {"note": 78, "velocity": 110, "duration": 232}, {"note": 75, "velocity": 113, "duration": 286}, {"note": 0, "velocity": 0, "duration": 74}, {"note": 78, "velocity": 116, "duration": 305}, {"note": 75, "velocity": 116, "duration": 681}, {"note": 70, "velocity": 119, "duration": 561}, {"note": 0, "velocity": 0, "duration": 159}, {"note": 73, "velocity": 116, "duration": 351}, {"note": 71, "velocity": 116, "duration": 1201}, {"note": 0, "velocity": 0, "duration": 719}, {"note": 71, "velocity": 114, "duration": 233}, {"note": 73, "velocity": 108, "duration": 197}, {"note": 75, "velocity": 117, "duration": 317}, {"note": 70, "velocity": 119, "duration": 359}, {"note": 71, "velocity": 116, "duration": 341}, {"note": 73, "velocity": 117, "duration": 241}, {"note": 0, "velocity": 0, "duration": 719}, {"note": 70, "velocity": 117, "duration": 198}, {"note": 70, "velocity": 104, "duration": 78}, {"note": 71, "velocity": 117, "duration": 641}, {"note": 0, "velocity": 0, "duration": 1039}, {"note": 73, "velocity": 117, "duration": 238}, {"note": 75, "velocity": 114, "duration": 227}, {"note": 76, "velocity": 117, "duration": 341}, {"note": 73, "velocity": 117, "duration": 294}, {"note": 75, "velocity": 116, "duration": 292}, {"note": 76, "velocity": 119, "duration": 294}, {"note": 0, "velocity": 0, "duration": 426}, {"note": 66, "velocity": 117, "duration": 481}, {"note": 75, "velocity": 113, "duration": 299}, {"note": 73, "velocity": 117, "duration": 1161}, {"note": 0, "velocity": 0, "duration": 279}, {"note": 75, "velocity": 116, "duration": 262}, {"note": 76, "velocity": 104, "duration": 215}, {"note": 78, "velocity": 119, "duration": 284}, {"note": 75, "velocity": 117, "duration": 281}, {"note": 76, "velocity": 117, "duration": 285}, {"note": 78, "velocity": 117, "duration": 441}, {"note": 0, "velocity": 0, "duration": 279}, {"note": 68, "velocity": 120, "duration": 299}, {"note": 0, "velocity": 0, "duration": 61}, {"note": 78, "velocity": 116, "duration": 209}, {"note": 78, "velocity": 116, "duration": 89}, {"note": 76, "velocity": 119, "duration": 1241}, {"note": 0, "velocity": 0, "duration": 199}, {"note": 76, "velocity": 110, "duration": 235}, {"note": 73, "velocity": 114, "duration": 229}, {"note": 75, "velocity": 114, "duration": 209}, {"note": 76, "velocity": 117, "duration": 338}, {"note": 0, "velocity": 0, "duration": 142}, {"note": 78, "velocity": 116, "duration": 286}, {"note": 76, "velocity": 117, "duration": 354}, {"note": 0, "velocity": 0, "duration": 126}, {"note": 76, "velocity": 114, "duration": 299}, {"note": 79, "velocity": 123, "duration": 468}, {"note": 78, "velocity": 123, "duration": 1581}, {"note": 0, "velocity": 0, "duration": 99}, {"note": 75, "velocity": 114, "duration": 266}, {"note": 76, "velocity": 110, "duration": 211}, {"note": 78, "velocity": 116, "duration": 291}, {"note": 78, "velocity": 113, "duration": 51}, {"note": 0, "velocity": 0, "duration": 189}, {"note": 76, "velocity": 114, "duration": 300}, {"note": 75, "velocity": 117, "duration": 283}, {"note": 73, "velocity": 119, "duration": 353}, {"note": 0, "velocity": 0, "duration": 127}, {"note": 76, "velocity": 117, "duration": 306}, {"note": 75, "velocity": 116, "duration": 1641}, {"note": 0, "velocity": 0, "duration": 279}, {"note": 76, "velocity": 113, "duration": 275}, {"note": 78, "velocity": 114, "duration": 235}, {"note": 80, "velocity": 117, "duration": 304}, {"note": 80, "velocity": 117, "duration": 64}, {"note": 0, "velocity": 0, "duration": 176}, {"note": 78, "velocity": 117, "duration": 392}, {"note": 76, "velocity": 117, "duration": 347}, {"note": 75, "velocity": 117, "duration": 291}, {"note": 0, "velocity": 0, "duration": 69}, {"note": 66, "velocity": 108, "duration": 233}, {"note": 76, "velocity": 113, "duration": 237}, {"note": 75, "velocity": 114, "duration": 317}, {"note": 73, "velocity": 117, "duration": 1521}, {"note": 0, "velocity": 0, "duration": 159}, {"note": 75, "velocity": 116, "duration": 240}, {"note": 73, "velocity": 114, "duration": 250}, {"note": 71, "velocity": 114, "duration": 309}, {"note": 73, "velocity": 116, "duration": 181}, {"note": 73, "velocity": 114, "duration": 61}, {"note": 75, "velocity": 119, "duration": 245}, {"note": 80, "velocity": 119, "duration": 293}, {"note": 0, "velocity": 0, "duration": 67}, {"note": 79, "velocity": 123, "duration": 233}, {"note": 75, "velocity": 113, "duration": 183}, {"note": 75, "velocity": 116, "duration": 63}, {"note": 73, "velocity": 114, "duration": 275}, {"note": 75, "velocity": 116, "duration": 271}, {"note": 0, "velocity": 0, "duration": 329}, {"note": 71, "velocity": 114, "duration": 181}, {"note": 71, "velocity": 114, "duration": 61}, {"note": 0, "velocity": 0, "duration": 179}, {"note": 80, "velocity": 117, "duration": 354}, {"note": 78, "velocity": 119, "duration": 801}, {"note": 0, "velocity": 0, "duration": 159}, {"note": 76, "velocity": 116, "duration": 331}, {"note": 75, "velocity": 117, "duration": 203}, {"note": 76, "velocity": 116, "duration": 260}, {"note": 78, "velocity": 119, "duration": 265}, {"note": 76, "velocity": 117, "duration": 295}, {"note": 0, "velocity": 0, "duration": 65}, {"note": 68, "velocity": 114, "duration": 364}, {"note": 75, "velocity": 117, "duration": 262}, {"note": 75, "velocity": 116, "duration": 22}, {"note": 0, "velocity": 0, "duration": 218}, {"note": 73, "velocity": 117, "duration": 1161}, {"note": 0, "velocity": 0, "duration": 279}, {"note": 75, "velocity": 114, "duration": 266}, {"note": 76, "velocity": 110, "duration": 211}, {"note": 78, "velocity": 116, "duration": 291}, {"note": 78, "velocity": 113, "duration": 51}, {"note": 0, "velocity": 0, "duration": 189}, {"note": 76, "velocity": 114, "duration": 300}, {"note": 75, "velocity": 117, "duration": 283}, {"note": 73, "velocity": 119, "duration": 561}, {"note": 76, "velocity": 117, "duration": 306}, {"note": 75, "velocity": 116, "duration": 1161}, {"note": 0, "velocity": 0, "duration": 759}, {"note": 76, "velocity": 113, "duration": 275}, {"note": 78, "velocity": 114, "duration": 235}, {"note": 80, "velocity": 117, "duration": 304}, {"note": 80, "velocity": 117, "duration": 64}, {"note": 0, "velocity": 0, "duration": 176}, {"note": 78, "velocity": 117, "duration": 392}, {"note": 76, "velocity": 117, "duration": 347}, {"note": 75, "velocity": 117, "duration": 291}, {"note": 0, "velocity": 0, "duration": 69}, {"note": 66, "velocity": 108, "duration": 233}, {"note": 76, "velocity": 113, "duration": 237}, {"note": 75, "velocity": 114, "duration": 317}, {"note": 73, "velocity": 117, "duration": 1161}, {"note": 0, "velocity": 0, "duration": 519}, {"note": 75, "velocity": 116, "duration": 240}, {"note": 73, "velocity": 114, "duration": 250}, {"note": 71, "velocity": 114, "duration": 309}, {"note": 73, "velocity": 116, "duration": 181}, {"note": 73, "velocity": 114, "duration": 61}, {"note": 75, "velocity": 119, "duration": 245}, {"note": 80, "velocity": 119, "duration": 321}, {"note": 79, "velocity": 123, "duration": 233}, {"note": 75, "velocity": 113, "duration": 183}, {"note": 75, "velocity": 116, "duration": 63}, {"note": 73, "velocity": 114, "duration": 275}, {"note": 75, "velocity": 116, "duration": 441}, {"note": 0, "velocity": 0, "duration": 159}, {"note": 71, "velocity": 113, "duration": 215}, {"note": 80, "velocity": 117, "duration": 215}, {"note": 80, "velocity": 116, "duration": 95}, {"note": 0, "velocity": 0, "duration": 145}, {"note": 78, "velocity": 117, "duration": 215}, {"note": 80, "velocity": 117, "duration": 290}, {"note": 78, "velocity": 113, "duration": 232}, {"note": 75, "velocity": 116, "duration": 441}, {"note": 78, "velocity": 116, "duration": 342}, {"note": 75, "velocity": 119, "duration": 721}, {"note": 70, "velocity": 119, "duration": 362}, {"note": 0, "velocity": 0, "duration": 358}, {"note": 75, "velocity": 116, "duration": 312}, {"note": 71, "velocity": 110, "duration": 1321}]]