[[{"note": 67, "velocity": 119, "duration": 240}, {"note": 72, "velocity": 113, "duration": 120}, {"note": 69, "velocity": 114, "duration": 120}, {"note": 67, "velocity": 117, "duration": 239}, {"note": 67, "velocity": 117, "duration": 240}, {"note": 64, "velocity": 113, "duration": 120}, {"note": 67, "velocity": 108, "duration": 120}, {"note": 69, "velocity": 114, "duration": 120}, {"note": 72, "velocity": 100, "duration": 120}, {"note": 67, "velocity": 119, "duration": 239}, {"note": 67, "velocity": 117, "duration": 240}, {"note": 69, "velocity": 117, "duration": 240}, {"note": 67, "velocity": 94, "duration": 120}, {"note": 64, "velocity": 100, "duration": 120}, {"note": 62, "velocity": 114, "duration": 239}, {"note": 62, "velocity": 113, "duration": 240}, {"note": 64, "velocity": 114, "duration": 240}, {"note": 67, "velocity": 108, "duration": 120}, {"note": 64, "velocity": 110, "duration": 120}, {"note": 62, "velocity": 113, "duration": 240}, {"note": 60, "velocity": 116, "duration": 240}, {"note": 69, "velocity": 116, "duration": 240}, {"note": 67, "velocity": 119, "duration": 240}, {"note": 69, "velocity": 119, "duration": 240}, {"note": 67, "velocity": 116, "duration": 240}, {"note": 64, "velocity": 114, "duration": 240}, {"note": 69, "velocity": 116, "duration": 240}, {"note": 67, "velocity": 119, "duration": 479}, {"note": 67, "velocity": 116, "duration": 119}, {"note": 67, "velocity": 110, "duration": 120}, {"note": 64, "velocity": 114, "duration": 120}, {"note": 62, "velocity": 108, "duration": 120}, {"note": 60, "velocity": 104, "duration": 479}, {"note": 60, "velocity": 108, "duration": 119}, {"note": 60, "velocity": 102, "duration": 120}, {"note": 62, "velocity": 107, "duration": 120}, {"note": 64, "velocity": 113, "duration": 120}, {"note": 60, "velocity": 113, "duration": 495}, {"note": 0, "velocity": 0, "duration": 3780}, {"note": 67, "velocity": 119, "duration": 240}, {"note": 72, "velocity": 113, "duration": 120}, {"note": 69, "velocity": 114, "duration": 120}, {"note": 67, "velocity": 117, "duration": 239}, {"note": 67, "velocity": 117, "duration": 240}, {"note": 64, "velocity": 113, "duration": 120}, {"note": 67, "velocity": 108, "duration": 120}, {"note": 69, "velocity": 114, "duration": 120}, {"note": 72, "velocity": 100, "duration": 120}, {"note": 67, "velocity": 119, "duration": 239}, {"note": 67, "velocity": 117, "duration": 240}, {"note": 69, "velocity": 117, "duration": 240}, {"note": 67, "velocity": 94, "duration": 120}, {"note": 64, "velocity": 100, "duration": 120}, {"note": 62, "velocity": 114, "duration": 239}, {"note": 62, "velocity": 113, "duration": 240}, {"note": 64, "velocity": 114, "duration": 240}, {"note": 67, "velocity": 108, "duration": 120}, {"note": 64, "velocity": 110, "duration": 120}, {"note": 62, "velocity": 113, "duration": 240}, {"note": 60, "velocity": 116, "duration": 240}, {"note": 69, "velocity": 116, "duration": 240}, {"note": 67, "velocity": 119, "duration": 240}, {"note": 69, "velocity": 119, "duration": 240}, {"note": 67, "velocity": 116, "duration": 240}, {"note": 64, "velocity": 114, "duration": 240}, {"note": 69, "velocity": 116, "duration": 240}, {"note": 67, "velocity": 119, "duration": 479}, {"note": 67, "velocity": 116, "duration": 119}, {"note": 67, "velocity": 110, "duration": 120}, {"note": 64, "velocity": 114, "duration": 120}, {"note": 62, "velocity": 108, "duration": 120}, {"note": 60, "velocity": 104, "duration": 479}, {"note": 60, "velocity": 108, "duration": 119}, {"note": 60, "velocity": 102, "duration": 120}, {"note": 62, "velocity": 107, "duration": 120}, {"note": 64, "velocity": 113, "duration": 120}, {"note": 60, "velocity": 113, "duration": 540}, {"note": 0, "velocity": 0, "duration": 3780}, {"note": 67, "velocity": 119, "duration": 240}, {"note": 72, "velocity": 113, "duration": 120}, {"note": 69, "velocity": 114, "duration": 120}, {"note": 67, "velocity": 117, "duration": 239}, {"note": 67, "velocity": 117, "duration": 240}, {"note": 64, "velocity": 113, "duration": 120}, {"note": 67, "velocity": 108, "duration": 120}, {"note": 69, "velocity": 114, "duration": 120}, {"note": 72, "velocity": 100, "duration": 120}, {"note": 67, "velocity": 119, "duration": 239}, {"note": 67, "velocity": 117, "duration": 240}, {"note": 69, "velocity": 117, "duration": 240}, {"note": 67, "velocity": 94, "duration": 120}, {"note": 64, "velocity": 100, "duration": 120}, {"note": 62, "velocity": 114, "duration": 239}, {"note": 62, "velocity": 113, "duration": 240}, {"note": 64, "velocity": 114, "duration": 240}, {"note": 67, "velocity": 108, "duration": 120}, {"note": 64, "velocity": 110, "duration": 120}, {"note": 62, "velocity": 113, "duration": 240}, {"note": 60, "velocity": 116, "duration": 180}, {"note": 0, "velocity": 0, "duration": 90}, {"note": 69, "velocity": 116, "duration": 240}, {"note": 67, "velocity": 119, "duration": 240}, {"note": 69, "velocity": 119, "duration": 240}, {"note": 67, "velocity": 116, "duration": 240}, {"note": 64, "velocity": 114, "duration": 240}, {"note": 69, "velocity": 116, "duration": 240}, {"note": 67, "velocity": 119, "duration": 479}, {"note": 67, "velocity": 116, "duration": 119}, {"note": 67, "velocity": 110, "duration": 120}, {"note": 64, "velocity": 114, "duration": 120}, {"note": 62, "velocity": 108, "duration": 120}, {"note": 60, "velocity": 104, "duration": 479}, {"note": 60, "velocity": 108, "duration": 119}, {"note": 60, "velocity": 102, "duration": 120}, {"note": 62, "velocity": 107, "duration": 120}, {"note": 64, "velocity": 113, "duration": 120}, {"note": 60, "velocity": 113, "duration": 510}, {"note": 0, "velocity": 0, "duration": 3840}, {"note": 67, "velocity": 119, "duration": 240}, {"note": 72, "velocity": 113, "duration": 120}, {"note": 69, "velocity": 114, "duration": 120}, {"note": 67, "velocity": 117, "duration": 239}, {"note": 67, "velocity": 117, "duration": 240}, {"note": 64, "velocity": 113, "duration": 120}, {"note": 67, "velocity": 108, "duration": 120}, {"note": 69, "velocity": 114, "duration": 120}, {"note": 72, "velocity": 100, "duration": 120}, {"note": 67, "velocity": 119, "duration": 239}, {"note": 67, "velocity": 117, "duration": 240}, {"note": 69, "velocity": 117, "duration": 240}, {"note": 67, "velocity": 94, "duration": 120}, {"note": 64, "velocity": 100, "duration": 120}, {"note": 62, "velocity": 114, "duration": 239}, {"note": 62, "velocity": 113, "duration": 240}, {"note": 64, "velocity": 114, "duration": 240}, {"note": 67, "velocity": 108, "duration": 120}, {"note": 64, "velocity": 110, "duration": 120}, {"note": 62, "velocity": 113, "duration": 240}, {"note": 60, "velocity": 116, "duration": 240}, {"note": 69, "velocity": 116, "duration": 240}, {"note": 67, "velocity": 119, "duration": 240}, {"note": 69, "velocity": 119, "duration": 240}, {"note": 67, "velocity": 116, "duration": 240}, {"note": 64, "velocity": 114, "duration": 240}, {"note": 69, "velocity": 116, "duration": 240}, {"note": 67, "velocity": 119, "duration": 479}, {"note": 67, "velocity": 116, "duration": 119}, {"note": 67, "velocity": 110, "duration": 120}, {"note": 64, "velocity": 114, "duration": 120}, {"note": 62, "velocity": 108, "duration": 120}, {"note": 60, "velocity": 104, "duration": 465}, {"note": 60, "velocity": 108, "duration": 119}, {"note": 60, "velocity": 102, "duration": 120}, {"note": 62, "velocity": 107, "duration": 120}, {"note": 64, "velocity": 113, "duration": 120}, {"note": 60, "velocity": 113, "duration": 435}]]