[[{"note": 71, "velocity": 117, "duration": 278}, {"note": 0, "velocity": 0, "duration": 202}, {"note": 78, "velocity": 119, "duration": 112}, {"note": 0, "velocity": 0, "duration": 128}, {"note": 78, "velocity": 116, "duration": 109}, {"note": 0, "velocity": 0, "duration": 131}, {"note": 78, "velocity": 117, "duration": 274}, {"note": 0, "velocity": 0, "duration": 206}, {"note": 71, "velocity": 117, "duration": 298}, {"note": 0, "velocity": 0, "duration": 182}, {"note": 69, "velocity": 117, "duration": 288}, {"note": 0, "velocity": 0, "duration": 192}, {"note": 76, "velocity": 117, "duration": 93}, {"note": 0, "velocity": 0, "duration": 147}, {"note": 76, "velocity": 119, "duration": 379}, {"note": 0, "velocity": 0, "duration": 821}, {"note": 71, "velocity": 116, "duration": 328}, {"note": 0, "velocity": 0, "duration": 152}, {"note": 74, "velocity": 114, "duration": 291}, {"note": 0, "velocity": 0, "duration": 189}, {"note": 74, "velocity": 116, "duration": 301}, {"note": 0, "velocity": 0, "duration": 179}, {"note": 71, "velocity": 107, "duration": 267}, {"note": 0, "velocity": 0, "duration": 213}, {"note": 73, "velocity": 116, "duration": 407}, {"note": 0, "velocity": 0, "duration": 1513}, {"note": 71, "velocity": 113, "duration": 254}, {"note": 0, "velocity": 0, "duration": 226}, {"note": 78, "velocity": 116, "duration": 93}, {"note": 0, "velocity": 0, "duration": 147}, {"note": 78, "velocity": 114, "duration": 103}, {"note": 0, "velocity": 0, "duration": 137}, {"note": 78, "velocity": 116, "duration": 285}, {"note": 0, "velocity": 0, "duration": 195}, {"note": 83, "velocity": 116, "duration": 322}, {"note": 0, "velocity": 0, "duration": 158}, {"note": 81, "velocity": 114, "duration": 296}, {"note": 0, "velocity": 0, "duration": 184}, {"note": 78, "velocity": 108, "duration": 118}, {"note": 0, "velocity": 0, "duration": 122}, {"note": 78, "velocity": 113, "duration": 301}, {"note": 0, "velocity": 0, "duration": 899}, {"note": 71, "velocity": 117, "duration": 280}, {"note": 0, "velocity": 0, "duration": 200}, {"note": 74, "velocity": 116, "duration": 246}, {"note": 0, "velocity": 0, "duration": 234}, {"note": 74, "velocity": 114, "duration": 270}, {"note": 0, "velocity": 0, "duration": 210}, {"note": 76, "velocity": 116, "duration": 284}, {"note": 0, "velocity": 0, "duration": 196}, {"note": 73, "velocity": 119, "duration": 414}, {"note": 0, "velocity": 0, "duration": 1506}, {"note": 71, "velocity": 117, "duration": 278}, {"note": 0, "velocity": 0, "duration": 202}, {"note": 78, "velocity": 119, "duration": 112}, {"note": 0, "velocity": 0, "duration": 128}, {"note": 78, "velocity": 116, "duration": 109}, {"note": 0, "velocity": 0, "duration": 131}, {"note": 78, "velocity": 117, "duration": 274}, {"note": 0, "velocity": 0, "duration": 206}, {"note": 71, "velocity": 117, "duration": 298}, {"note": 0, "velocity": 0, "duration": 182}, {"note": 69, "velocity": 117, "duration": 288}, {"note": 0, "velocity": 0, "duration": 192}, {"note": 76, "velocity": 117, "duration": 93}, {"note": 0, "velocity": 0, "duration": 147}, {"note": 76, "velocity": 119, "duration": 379}, {"note": 0, "velocity": 0, "duration": 821}, {"note": 71, "velocity": 116, "duration": 328}, {"note": 0, "velocity": 0, "duration": 152}, {"note": 74, "velocity": 114, "duration": 172}, {"note": 0, "velocity": 0, "duration": 68}, {"note": 74, "velocity": 114, "duration": 172}, {"note": 0, "velocity": 0, "duration": 68}, {"note": 74, "velocity": 116, "duration": 301}, {"note": 0, "velocity": 0, "duration": 179}, {"note": 78, "velocity": 107, "duration": 267}, {"note": 0, "velocity": 0, "duration": 213}, {"note": 73, "velocity": 116, "duration": 407}, {"note": 0, "velocity": 0, "duration": 1513}, {"note": 71, "velocity": 113, "duration": 254}, {"note": 0, "velocity": 0, "duration": 226}, {"note": 78, "velocity": 116, "duration": 93}, {"note": 0, "velocity": 0, "duration": 147}, {"note": 78, "velocity": 114, "duration": 103}, {"note": 0, "velocity": 0, "duration": 137}, {"note": 78, "velocity": 116, "duration": 285}, {"note": 0, "velocity": 0, "duration": 195}, {"note": 83, "velocity": 116, "duration": 322}, {"note": 0, "velocity": 0, "duration": 158}, {"note": 81, "velocity": 114, "duration": 296}, {"note": 0, "velocity": 0, "duration": 184}, {"note": 78, "velocity": 108, "duration": 118}, {"note": 0, "velocity": 0, "duration": 122}, {"note": 78, "velocity": 113, "duration": 301}, {"note": 0, "velocity": 0, "duration": 899}, {"note": 71, "velocity": 117, "duration": 280}, {"note": 0, "velocity": 0, "duration": 200}, {"note": 74, "velocity": 116, "duration": 908}, {"note": 0, "velocity": 0, "duration": 532}, {"note": 73, "velocity": 119, "duration": 414}, {"note": 0, "velocity": 0, "duration": 546}, {"note": 71, "velocity": 104, "duration": 428}, {"note": 69, "velocity": 110, "duration": 324}, {"note": 0, "velocity": 0, "duration": 156}, {"note": 71, "velocity": 117, "duration": 278}, {"note": 0, "velocity": 0, "duration": 202}, {"note": 78, "velocity": 119, "duration": 112}, {"note": 0, "velocity": 0, "duration": 128}, {"note": 78, "velocity": 116, "duration": 109}, {"note": 0, "velocity": 0, "duration": 131}, {"note": 78, "velocity": 117, "duration": 274}, {"note": 0, "velocity": 0, "duration": 206}, {"note": 71, "velocity": 117, "duration": 298}, {"note": 0, "velocity": 0, "duration": 182}, {"note": 69, "velocity": 117, "duration": 288}, {"note": 0, "velocity": 0, "duration": 192}, {"note": 76, "velocity": 117, "duration": 93}, {"note": 0, "velocity": 0, "duration": 147}, {"note": 76, "velocity": 119, "duration": 379}, {"note": 0, "velocity": 0, "duration": 821}, {"note": 71, "velocity": 116, "duration": 328}, {"note": 0, "velocity": 0, "duration": 152}, {"note": 74, "velocity": 114, "duration": 172}, {"note": 0, "velocity": 0, "duration": 308}, {"note": 74, "velocity": 116, "duration": 301}, {"note": 0, "velocity": 0, "duration": 179}, {"note": 71, "velocity": 107, "duration": 267}, {"note": 0, "velocity": 0, "duration": 213}, {"note": 73, "velocity": 116, "duration": 407}, {"note": 0, "velocity": 0, "duration": 1513}, {"note": 71, "velocity": 116, "duration": 267}, {"note": 0, "velocity": 0, "duration": 213}, {"note": 78, "velocity": 110, "duration": 105}, {"note": 0, "velocity": 0, "duration": 135}, {"note": 78, "velocity": 107, "duration": 127}, {"note": 0, "velocity": 0, "duration": 113}, {"note": 78, "velocity": 110, "duration": 241}, {"note": 0, "velocity": 0, "duration": 239}, {"note": 83, "velocity": 119, "duration": 319}, {"note": 0, "velocity": 0, "duration": 161}, {"note": 81, "velocity": 110, "duration": 341}, {"note": 0, "velocity": 0, "duration": 139}, {"note": 78, "velocity": 107, "duration": 108}, {"note": 0, "velocity": 0, "duration": 132}, {"note": 78, "velocity": 113, "duration": 898}, {"note": 0, "velocity": 0, "duration": 302}, {"note": 71, "velocity": 113, "duration": 290}, {"note": 0, "velocity": 0, "duration": 190}, {"note": 74, "velocity": 117, "duration": 1455}, {"note": 73, "velocity": 120, "duration": 706}, {"note": 0, "velocity": 0, "duration": 254}, {"note": 69, "velocity": 113, "duration": 278}, {"note": 0, "velocity": 0, "duration": 682}, {"note": 71, "velocity": 119, "duration": 259}, {"note": 0, "velocity": 0, "duration": 17021}, {"note": 71, "velocity": 117, "duration": 278}, {"note": 0, "velocity": 0, "duration": 202}, {"note": 78, "velocity": 119, "duration": 112}, {"note": 0, "velocity": 0, "duration": 128}, {"note": 78, "velocity": 116, "duration": 109}, {"note": 0, "velocity": 0, "duration": 131}, {"note": 78, "velocity": 117, "duration": 274}, {"note": 0, "velocity": 0, "duration": 206}, {"note": 71, "velocity": 117, "duration": 298}, {"note": 0, "velocity": 0, "duration": 182}, {"note": 69, "velocity": 117, "duration": 288}, {"note": 0, "velocity": 0, "duration": 192}, {"note": 76, "velocity": 117, "duration": 93}, {"note": 0, "velocity": 0, "duration": 147}, {"note": 76, "velocity": 119, "duration": 379}, {"note": 0, "velocity": 0, "duration": 821}, {"note": 71, "velocity": 116, "duration": 328}, {"note": 0, "velocity": 0, "duration": 152}, {"note": 74, "velocity": 114, "duration": 291}, {"note": 0, "velocity": 0, "duration": 189}, {"note": 74, "velocity": 116, "duration": 301}, {"note": 0, "velocity": 0, "duration": 179}, {"note": 71, "velocity": 107, "duration": 267}, {"note": 0, "velocity": 0, "duration": 213}, {"note": 73, "velocity": 116, "duration": 407}, {"note": 0, "velocity": 0, "duration": 1513}, {"note": 71, "velocity": 113, "duration": 254}, {"note": 0, "velocity": 0, "duration": 226}, {"note": 78, "velocity": 116, "duration": 93}, {"note": 0, "velocity": 0, "duration": 147}, {"note": 78, "velocity": 114, "duration": 103}, {"note": 0, "velocity": 0, "duration": 137}, {"note": 78, "velocity": 116, "duration": 285}, {"note": 0, "velocity": 0, "duration": 195}, {"note": 83, "velocity": 116, "duration": 322}, {"note": 0, "velocity": 0, "duration": 158}, {"note": 81, "velocity": 114, "duration": 296}, {"note": 0, "velocity": 0, "duration": 184}, {"note": 78, "velocity": 108, "duration": 118}, {"note": 0, "velocity": 0, "duration": 122}, {"note": 78, "velocity": 113, "duration": 301}, {"note": 0, "velocity": 0, "duration": 899}, {"note": 71, "velocity": 117, "duration": 280}, {"note": 0, "velocity": 0, "duration": 200}, {"note": 74, "velocity": 116, "duration": 246}, {"note": 0, "velocity": 0, "duration": 234}, {"note": 74, "velocity": 114, "duration": 270}, {"note": 0, "velocity": 0, "duration": 210}, {"note": 76, "velocity": 116, "duration": 284}, {"note": 0, "velocity": 0, "duration": 196}, {"note": 73, "velocity": 119, "duration": 414}, {"note": 0, "velocity": 0, "duration": 1506}, {"note": 71, "velocity": 117, "duration": 278}, {"note": 0, "velocity": 0, "duration": 202}, {"note": 78, "velocity": 119, "duration": 112}, {"note": 0, "velocity": 0, "duration": 128}, {"note": 78, "velocity": 116, "duration": 109}, {"note": 0, "velocity": 0, "duration": 131}, {"note": 78, "velocity": 117, "duration": 274}, {"note": 0, "velocity": 0, "duration": 206}, {"note": 71, "velocity": 117, "duration": 298}, {"note": 0, "velocity": 0, "duration": 182}, {"note": 69, "velocity": 117, "duration": 288}, {"note": 0, "velocity": 0, "duration": 192}, {"note": 76, "velocity": 117, "duration": 93}, {"note": 0, "velocity": 0, "duration": 147}, {"note": 76, "velocity": 119, "duration": 379}, {"note": 0, "velocity": 0, "duration": 821}, {"note": 71, "velocity": 116, "duration": 328}, {"note": 0, "velocity": 0, "duration": 152}, {"note": 74, "velocity": 114, "duration": 172}, {"note": 0, "velocity": 0, "duration": 68}, {"note": 74, "velocity": 114, "duration": 172}, {"note": 0, "velocity": 0, "duration": 68}, {"note": 74, "velocity": 116, "duration": 301}, {"note": 0, "velocity": 0, "duration": 179}, {"note": 78, "velocity": 107, "duration": 267}, {"note": 0, "velocity": 0, "duration": 213}, {"note": 73, "velocity": 116, "duration": 407}, {"note": 0, "velocity": 0, "duration": 1513}, {"note": 71, "velocity": 113, "duration": 254}, {"note": 0, "velocity": 0, "duration": 226}, {"note": 78, "velocity": 116, "duration": 93}, {"note": 0, "velocity": 0, "duration": 147}, {"note": 78, "velocity": 114, "duration": 103}, {"note": 0, "velocity": 0, "duration": 137}, {"note": 78, "velocity": 116, "duration": 285}, {"note": 0, "velocity": 0, "duration": 195}, {"note": 83, "velocity": 116, "duration": 322}, {"note": 0, "velocity": 0, "duration": 158}, {"note": 81, "velocity": 114, "duration": 296}, {"note": 0, "velocity": 0, "duration": 184}, {"note": 78, "velocity": 108, "duration": 118}, {"note": 0, "velocity": 0, "duration": 122}, {"note": 78, "velocity": 113, "duration": 301}, {"note": 0, "velocity": 0, "duration": 899}, {"note": 71, "velocity": 117, "duration": 280}, {"note": 0, "velocity": 0, "duration": 200}, {"note": 74, "velocity": 116, "duration": 908}, {"note": 0, "velocity": 0, "duration": 532}, {"note": 73, "velocity": 119, "duration": 414}, {"note": 0, "velocity": 0, "duration": 546}, {"note": 71, "velocity": 104, "duration": 428}, {"note": 69, "velocity": 110, "duration": 324}, {"note": 0, "velocity": 0, "duration": 156}, {"note": 71, "velocity": 117, "duration": 278}, {"note": 0, "velocity": 0, "duration": 202}, {"note": 78, "velocity": 119, "duration": 112}, {"note": 0, "velocity": 0, "duration": 128}, {"note": 78, "velocity": 116, "duration": 109}, {"note": 0, "velocity": 0, "duration": 131}, {"note": 78, "velocity": 117, "duration": 274}, {"note": 0, "velocity": 0, "duration": 206}, {"note": 71, "velocity": 117, "duration": 298}, {"note": 0, "velocity": 0, "duration": 182}, {"note": 69, "velocity": 117, "duration": 288}, {"note": 0, "velocity": 0, "duration": 192}, {"note": 76, "velocity": 117, "duration": 93}, {"note": 0, "velocity": 0, "duration": 147}, {"note": 76, "velocity": 119, "duration": 379}, {"note": 0, "velocity": 0, "duration": 821}, {"note": 71, "velocity": 116, "duration": 328}, {"note": 0, "velocity": 0, "duration": 152}, {"note": 74, "velocity": 114, "duration": 172}, {"note": 0, "velocity": 0, "duration": 308}, {"note": 74, "velocity": 116, "duration": 301}, {"note": 0, "velocity": 0, "duration": 179}, {"note": 71, "velocity": 107, "duration": 267}, {"note": 0, "velocity": 0, "duration": 213}, {"note": 73, "velocity": 116, "duration": 407}, {"note": 0, "velocity": 0, "duration": 1513}, {"note": 71, "velocity": 116, "duration": 267}, {"note": 0, "velocity": 0, "duration": 213}, {"note": 78, "velocity": 110, "duration": 105}, {"note": 0, "velocity": 0, "duration": 135}, {"note": 78, "velocity": 107, "duration": 127}, {"note": 0, "velocity": 0, "duration": 113}, {"note": 78, "velocity": 110, "duration": 241}, {"note": 0, "velocity": 0, "duration": 239}, {"note": 83, "velocity": 119, "duration": 319}, {"note": 0, "velocity": 0, "duration": 161}, {"note": 81, "velocity": 110, "duration": 341}, {"note": 0, "velocity": 0, "duration": 139}, {"note": 78, "velocity": 107, "duration": 108}, {"note": 0, "velocity": 0, "duration": 132}, {"note": 78, "velocity": 113, "duration": 898}, {"note": 0, "velocity": 0, "duration": 302}, {"note": 71, "velocity": 113, "duration": 290}, {"note": 0, "velocity": 0, "duration": 190}, {"note": 74, "velocity": 117, "duration": 1455}, {"note": 73, "velocity": 120, "duration": 706}, {"note": 0, "velocity": 0, "duration": 254}, {"note": 69, "velocity": 113, "duration": 278}, {"note": 0, "velocity": 0, "duration": 682}, {"note": 71, "velocity": 119, "duration": 259}, {"note": 0, "velocity": 0, "duration": 30461}, {"note": 71, "velocity": 114, "duration": 345}, {"note": 0, "velocity": 0, "duration": 135}, {"note": 78, "velocity": 113, "duration": 103}, {"note": 0, "velocity": 0, "duration": 137}, {"note": 78, "velocity": 108, "duration": 113}, {"note": 0, "velocity": 0, "duration": 127}, {"note": 78, "velocity": 114, "duration": 324}, {"note": 0, "velocity": 0, "duration": 156}, {"note": 71, "velocity": 110, "duration": 356}, {"note": 0, "velocity": 0, "duration": 124}, {"note": 69, "velocity": 100, "duration": 293}, {"note": 0, "velocity": 0, "duration": 187}, {"note": 76, "velocity": 108, "duration": 106}, {"note": 0, "velocity": 0, "duration": 134}, {"note": 76, "velocity": 110, "duration": 528}, {"note": 0, "velocity": 0, "duration": 672}, {"note": 71, "velocity": 113, "duration": 339}, {"note": 0, "velocity": 0, "duration": 141}, {"note": 74, "velocity": 107, "duration": 283}, {"note": 0, "velocity": 0, "duration": 197}, {"note": 74, "velocity": 108, "duration": 297}, {"note": 0, "velocity": 0, "duration": 183}, {"note": 71, "velocity": 114, "duration": 274}, {"note": 0, "velocity": 0, "duration": 206}, {"note": 73, "velocity": 116, "duration": 783}, {"note": 0, "velocity": 0, "duration": 1137}, {"note": 71, "velocity": 114, "duration": 281}, {"note": 0, "velocity": 0, "duration": 199}, {"note": 78, "velocity": 110, "duration": 93}, {"note": 0, "velocity": 0, "duration": 147}, {"note": 78, "velocity": 108, "duration": 109}, {"note": 0, "velocity": 0, "duration": 131}, {"note": 78, "velocity": 116, "duration": 286}, {"note": 0, "velocity": 0, "duration": 194}, {"note": 83, "velocity": 114, "duration": 308}, {"note": 0, "velocity": 0, "duration": 172}, {"note": 81, "velocity": 108, "duration": 310}, {"note": 0, "velocity": 0, "duration": 170}, {"note": 78, "velocity": 107, "duration": 117}, {"note": 0, "velocity": 0, "duration": 123}, {"note": 78, "velocity": 108, "duration": 410}, {"note": 0, "velocity": 0, "duration": 790}, {"note": 71, "velocity": 104, "duration": 314}, {"note": 0, "velocity": 0, "duration": 166}, {"note": 74, "velocity": 108, "duration": 1279}, {"note": 0, "velocity": 0, "duration": 161}, {"note": 73, "velocity": 116, "duration": 698}, {"note": 0, "velocity": 0, "duration": 262}, {"note": 69, "velocity": 108, "duration": 607}, {"note": 0, "velocity": 0, "duration": 353}, {"note": 71, "velocity": 113, "duration": 444}]]