[[{"note": 75, "velocity": 114, "duration": 240}, {"note": 77, "velocity": 116, "duration": 240}, {"note": 75, "velocity": 114, "duration": 240}, {"note": 74, "velocity": 114, "duration": 240}, {"note": 72, "velocity": 116, "duration": 239}, {"note": 72, "velocity": 108, "duration": 240}, {"note": 74, "velocity": 107, "duration": 240}, {"note": 70, "velocity": 102, "duration": 1200}, {"note": 72, "velocity": 113, "duration": 239}, {"note": 72, "velocity": 107, "duration": 240}, {"note": 74, "velocity": 113, "duration": 240}, {"note": 75, "velocity": 114, "duration": 240}, {"note": 77, "velocity": 104, "duration": 239}, {"note": 77, "velocity": 113, "duration": 240}, {"note": 79, "velocity": 116, "duration": 239}, {"note": 79, "velocity": 119, "duration": 1200}, {"note": 77, "velocity": 113, "duration": 239}, {"note": 77, "velocity": 114, "duration": 240}, {"note": 79, "velocity": 114, "duration": 240}, {"note": 72, "velocity": 116, "duration": 719}, {"note": 72, "velocity": 116, "duration": 239}, {"note": 72, "velocity": 113, "duration": 240}, {"note": 74, "velocity": 113, "duration": 240}, {"note": 70, "velocity": 108, "duration": 720}, {"note": 72, "velocity": 104, "duration": 239}, {"note": 72, "velocity": 113, "duration": 240}, {"note": 74, "velocity": 108, "duration": 240}, {"note": 72, "velocity": 108, "duration": 240}, {"note": 70, "velocity": 107, "duration": 240}, {"note": 67, "velocity": 107, "duration": 1680}, {"note": 75, "velocity": 114, "duration": 240}, {"note": 77, "velocity": 116, "duration": 240}, {"note": 75, "velocity": 114, "duration": 240}, {"note": 74, "velocity": 114, "duration": 240}, {"note": 72, "velocity": 116, "duration": 239}, {"note": 72, "velocity": 108, "duration": 240}, {"note": 74, "velocity": 107, "duration": 240}, {"note": 70, "velocity": 102, "duration": 1200}, {"note": 72, "velocity": 113, "duration": 239}, {"note": 72, "velocity": 107, "duration": 240}, {"note": 74, "velocity": 113, "duration": 240}, {"note": 75, "velocity": 114, "duration": 240}, {"note": 77, "velocity": 104, "duration": 239}, {"note": 77, "velocity": 113, "duration": 240}, {"note": 79, "velocity": 116, "duration": 239}, {"note": 79, "velocity": 119, "duration": 1200}, {"note": 77, "velocity": 113, "duration": 239}, {"note": 77, "velocity": 114, "duration": 240}, {"note": 79, "velocity": 114, "duration": 240}, {"note": 72, "velocity": 116, "duration": 719}, {"note": 72, "velocity": 116, "duration": 239}, {"note": 72, "velocity": 113, "duration": 240}, {"note": 74, "velocity": 113, "duration": 240}, {"note": 70, "velocity": 108, "duration": 480}, {"note": 72, "velocity": 110, "duration": 479}, {"note": 72, "velocity": 113, "duration": 480}, {"note": 70, "velocity": 114, "duration": 480}, {"note": 72, "velocity": 116, "duration": 1680}, {"note": 79, "velocity": 119, "duration": 239}, {"note": 79, "velocity": 120, "duration": 240}, {"note": 77, "velocity": 114, "duration": 239}, {"note": 77, "velocity": 116, "duration": 240}, {"note": 75, "velocity": 117, "duration": 239}, {"note": 75, "velocity": 117, "duration": 240}, {"note": 74, "velocity": 113, "duration": 239}, {"note": 74, "velocity": 116, "duration": 1200}, {"note": 77, "velocity": 116, "duration": 239}, {"note": 77, "velocity": 114, "duration": 240}, {"note": 75, "velocity": 114, "duration": 239}, {"note": 75, "velocity": 117, "duration": 240}, {"note": 74, "velocity": 114, "duration": 239}, {"note": 74, "velocity": 116, "duration": 240}, {"note": 75, "velocity": 113, "duration": 240}, {"note": 79, "velocity": 117, "duration": 960}, {"note": 77, "velocity": 117, "duration": 480}, {"note": 72, "velocity": 117, "duration": 480}, {"note": 77, "velocity": 119, "duration": 480}, {"note": 79, "velocity": 120, "duration": 960}, {"note": 77, "velocity": 114, "duration": 240}, {"note": 79, "velocity": 117, "duration": 240}, {"note": 80, "velocity": 119, "duration": 480}, {"note": 79, "velocity": 120, "duration": 1920}, {"note": 72, "velocity": 113, "duration": 240}, {"note": 74, "velocity": 108, "duration": 244}, {"note": 75, "velocity": 110, "duration": 240}, {"note": 77, "velocity": 107, "duration": 248}, {"note": 79, "velocity": 110, "duration": 240}, {"note": 82, "velocity": 108, "duration": 240}, {"note": 84, "velocity": 108, "duration": 240}, {"note": 86, "velocity": 107, "duration": 240}, {"note": 84, "velocity": 114, "duration": 240}, {"note": 82, "velocity": 113, "duration": 240}, {"note": 79, "velocity": 116, "duration": 960}, {"note": 84, "velocity": 110, "duration": 240}, {"note": 86, "velocity": 110, "duration": 240}, {"note": 84, "velocity": 100, "duration": 240}, {"note": 82, "velocity": 108, "duration": 240}, {"note": 79, "velocity": 114, "duration": 240}, {"note": 77, "velocity": 100, "duration": 240}, {"note": 79, "velocity": 113, "duration": 240}, {"note": 82, "velocity": 114, "duration": 240}, {"note": 79, "velocity": 113, "duration": 960}, {"note": 77, "velocity": 113, "duration": 240}, {"note": 79, "velocity": 104, "duration": 265}, {"note": 77, "velocity": 102, "duration": 240}, {"note": 75, "velocity": 108, "duration": 240}, {"note": 72, "velocity": 108, "duration": 240}, {"note": 75, "velocity": 100, "duration": 240}, {"note": 77, "velocity": 91, "duration": 240}, {"note": 79, "velocity": 100, "duration": 240}, {"note": 82, "velocity": 110, "duration": 960}, {"note": 77, "velocity": 116, "duration": 240}, {"note": 79, "velocity": 114, "duration": 240}, {"note": 77, "velocity": 113, "duration": 240}, {"note": 75, "velocity": 110, "duration": 240}, {"note": 72, "velocity": 107, "duration": 240}, {"note": 75, "velocity": 91, "duration": 240}, {"note": 74, "velocity": 110, "duration": 240}, {"note": 72, "velocity": 100, "duration": 240}, {"note": 74, "velocity": 107, "duration": 719}, {"note": 74, "velocity": 108, "duration": 244}, {"note": 75, "velocity": 110, "duration": 240}, {"note": 77, "velocity": 107, "duration": 248}, {"note": 79, "velocity": 110, "duration": 240}, {"note": 82, "velocity": 108, "duration": 240}, {"note": 84, "velocity": 108, "duration": 240}, {"note": 86, "velocity": 107, "duration": 240}, {"note": 84, "velocity": 114, "duration": 240}, {"note": 82, "velocity": 113, "duration": 240}, {"note": 79, "velocity": 116, "duration": 960}, {"note": 84, "velocity": 110, "duration": 240}, {"note": 86, "velocity": 110, "duration": 240}, {"note": 84, "velocity": 100, "duration": 240}, {"note": 82, "velocity": 108, "duration": 240}, {"note": 79, "velocity": 114, "duration": 240}, {"note": 77, "velocity": 100, "duration": 240}, {"note": 79, "velocity": 113, "duration": 240}, {"note": 82, "velocity": 114, "duration": 240}, {"note": 79, "velocity": 113, "duration": 960}, {"note": 77, "velocity": 113, "duration": 240}, {"note": 79, "velocity": 104, "duration": 265}, {"note": 77, "velocity": 102, "duration": 240}, {"note": 75, "velocity": 108, "duration": 240}, {"note": 72, "velocity": 108, "duration": 240}, {"note": 75, "velocity": 100, "duration": 240}, {"note": 77, "velocity": 91, "duration": 240}, {"note": 79, "velocity": 100, "duration": 240}, {"note": 82, "velocity": 110, "duration": 960}, {"note": 77, "velocity": 116, "duration": 240}, {"note": 79, "velocity": 114, "duration": 240}, {"note": 77, "velocity": 113, "duration": 240}, {"note": 75, "velocity": 110, "duration": 240}, {"note": 72, "velocity": 107, "duration": 240}, {"note": 70, "velocity": 107, "duration": 240}, {"note": 72, "velocity": 108, "duration": 960}, {"note": 0, "velocity": 0, "duration": 28080}, {"note": 75, "velocity": 114, "duration": 240}, {"note": 77, "velocity": 116, "duration": 240}, {"note": 75, "velocity": 114, "duration": 240}, {"note": 74, "velocity": 114, "duration": 240}, {"note": 72, "velocity": 116, "duration": 239}, {"note": 72, "velocity": 108, "duration": 240}, {"note": 74, "velocity": 107, "duration": 240}, {"note": 70, "velocity": 102, "duration": 1200}, {"note": 72, "velocity": 113, "duration": 239}, {"note": 72, "velocity": 107, "duration": 240}, {"note": 74, "velocity": 113, "duration": 240}, {"note": 75, "velocity": 114, "duration": 240}, {"note": 77, "velocity": 104, "duration": 239}, {"note": 77, "velocity": 113, "duration": 240}, {"note": 79, "velocity": 116, "duration": 239}, {"note": 79, "velocity": 119, "duration": 1200}, {"note": 77, "velocity": 113, "duration": 239}, {"note": 77, "velocity": 114, "duration": 240}, {"note": 79, "velocity": 114, "duration": 240}, {"note": 72, "velocity": 116, "duration": 719}, {"note": 72, "velocity": 116, "duration": 239}, {"note": 72, "velocity": 113, "duration": 240}, {"note": 74, "velocity": 113, "duration": 240}, {"note": 70, "velocity": 108, "duration": 720}, {"note": 72, "velocity": 104, "duration": 239}, {"note": 72, "velocity": 113, "duration": 240}, {"note": 74, "velocity": 108, "duration": 240}, {"note": 72, "velocity": 108, "duration": 240}, {"note": 70, "velocity": 107, "duration": 240}, {"note": 67, "velocity": 107, "duration": 1680}, {"note": 75, "velocity": 114, "duration": 240}, {"note": 77, "velocity": 116, "duration": 240}, {"note": 75, "velocity": 114, "duration": 240}, {"note": 74, "velocity": 114, "duration": 240}, {"note": 72, "velocity": 116, "duration": 239}, {"note": 72, "velocity": 108, "duration": 240}, {"note": 74, "velocity": 107, "duration": 240}, {"note": 70, "velocity": 102, "duration": 1200}, {"note": 72, "velocity": 113, "duration": 239}, {"note": 72, "velocity": 107, "duration": 240}, {"note": 74, "velocity": 113, "duration": 240}, {"note": 75, "velocity": 114, "duration": 240}, {"note": 77, "velocity": 104, "duration": 239}, {"note": 77, "velocity": 113, "duration": 240}, {"note": 79, "velocity": 116, "duration": 239}, {"note": 79, "velocity": 119, "duration": 1200}, {"note": 77, "velocity": 113, "duration": 239}, {"note": 77, "velocity": 114, "duration": 240}, {"note": 79, "velocity": 114, "duration": 240}, {"note": 72, "velocity": 116, "duration": 719}, {"note": 72, "velocity": 116, "duration": 239}, {"note": 72, "velocity": 113, "duration": 240}, {"note": 74, "velocity": 113, "duration": 240}, {"note": 70, "velocity": 108, "duration": 480}, {"note": 72, "velocity": 110, "duration": 479}, {"note": 72, "velocity": 113, "duration": 480}, {"note": 70, "velocity": 114, "duration": 480}, {"note": 72, "velocity": 116, "duration": 1680}, {"note": 79, "velocity": 119, "duration": 239}, {"note": 79, "velocity": 120, "duration": 240}, {"note": 77, "velocity": 114, "duration": 239}, {"note": 77, "velocity": 116, "duration": 240}, {"note": 75, "velocity": 117, "duration": 239}, {"note": 75, "velocity": 117, "duration": 240}, {"note": 74, "velocity": 113, "duration": 239}, {"note": 74, "velocity": 116, "duration": 1200}, {"note": 77, "velocity": 116, "duration": 239}, {"note": 77, "velocity": 114, "duration": 240}, {"note": 75, "velocity": 114, "duration": 239}, {"note": 75, "velocity": 117, "duration": 240}, {"note": 74, "velocity": 114, "duration": 239}, {"note": 74, "velocity": 116, "duration": 240}, {"note": 75, "velocity": 113, "duration": 240}, {"note": 79, "velocity": 117, "duration": 960}, {"note": 77, "velocity": 117, "duration": 480}, {"note": 72, "velocity": 117, "duration": 480}, {"note": 77, "velocity": 119, "duration": 480}, {"note": 79, "velocity": 120, "duration": 960}, {"note": 77, "velocity": 114, "duration": 240}, {"note": 79, "velocity": 117, "duration": 240}, {"note": 80, "velocity": 119, "duration": 480}, {"note": 79, "velocity": 120, "duration": 960}, {"note": 0, "velocity": 0, "duration": 960}, {"note": 72, "velocity": 113, "duration": 240}, {"note": 74, "velocity": 108, "duration": 244}, {"note": 75, "velocity": 110, "duration": 240}, {"note": 77, "velocity": 107, "duration": 248}, {"note": 79, "velocity": 110, "duration": 240}, {"note": 82, "velocity": 108, "duration": 240}, {"note": 84, "velocity": 108, "duration": 240}, {"note": 86, "velocity": 107, "duration": 240}, {"note": 84, "velocity": 114, "duration": 240}, {"note": 82, "velocity": 113, "duration": 240}, {"note": 79, "velocity": 116, "duration": 960}, {"note": 84, "velocity": 110, "duration": 240}, {"note": 86, "velocity": 110, "duration": 240}, {"note": 84, "velocity": 100, "duration": 240}, {"note": 82, "velocity": 108, "duration": 240}, {"note": 79, "velocity": 114, "duration": 240}, {"note": 77, "velocity": 100, "duration": 240}, {"note": 79, "velocity": 113, "duration": 240}, {"note": 82, "velocity": 114, "duration": 240}, {"note": 79, "velocity": 113, "duration": 960}, {"note": 77, "velocity": 113, "duration": 240}, {"note": 79, "velocity": 104, "duration": 265}, {"note": 77, "velocity": 102, "duration": 240}, {"note": 75, "velocity": 108, "duration": 240}, {"note": 72, "velocity": 108, "duration": 240}, {"note": 75, "velocity": 100, "duration": 240}, {"note": 77, "velocity": 91, "duration": 240}, {"note": 79, "velocity": 100, "duration": 240}, {"note": 82, "velocity": 110, "duration": 960}, {"note": 77, "velocity": 116, "duration": 240}, {"note": 79, "velocity": 114, "duration": 240}, {"note": 77, "velocity": 113, "duration": 240}, {"note": 75, "velocity": 110, "duration": 240}, {"note": 72, "velocity": 107, "duration": 240}, {"note": 75, "velocity": 91, "duration": 240}, {"note": 74, "velocity": 110, "duration": 240}, {"note": 72, "velocity": 100, "duration": 240}, {"note": 74, "velocity": 107, "duration": 719}, {"note": 74, "velocity": 108, "duration": 244}, {"note": 75, "velocity": 110, "duration": 240}, {"note": 77, "velocity": 107, "duration": 248}, {"note": 79, "velocity": 110, "duration": 240}, {"note": 82, "velocity": 108, "duration": 240}, {"note": 84, "velocity": 108, "duration": 240}, {"note": 86, "velocity": 107, "duration": 240}, {"note": 84, "velocity": 114, "duration": 240}, {"note": 82, "velocity": 113, "duration": 240}, {"note": 79, "velocity": 116, "duration": 960}, {"note": 84, "velocity": 110, "duration": 240}, {"note": 86, "velocity": 110, "duration": 240}, {"note": 84, "velocity": 100, "duration": 240}, {"note": 82, "velocity": 108, "duration": 240}, {"note": 79, "velocity": 114, "duration": 240}, {"note": 77, "velocity": 100, "duration": 240}, {"note": 79, "velocity": 113, "duration": 240}, {"note": 82, "velocity": 114, "duration": 240}, {"note": 79, "velocity": 113, "duration": 960}, {"note": 77, "velocity": 113, "duration": 240}, {"note": 79, "velocity": 104, "duration": 265}, {"note": 77, "velocity": 102, "duration": 240}, {"note": 75, "velocity": 108, "duration": 240}, {"note": 72, "velocity": 108, "duration": 240}, {"note": 75, "velocity": 100, "duration": 240}, {"note": 77, "velocity": 91, "duration": 240}, {"note": 79, "velocity": 100, "duration": 240}, {"note": 82, "velocity": 110, "duration": 960}, {"note": 77, "velocity": 116, "duration": 240}, {"note": 79, "velocity": 114, "duration": 240}, {"note": 77, "velocity": 113, "duration": 240}, {"note": 75, "velocity": 110, "duration": 240}, {"note": 72, "velocity": 107, "duration": 240}, {"note": 70, "velocity": 107, "duration": 240}, {"note": 72, "velocity": 108, "duration": 960}, {"note": 0, "velocity": 0, "duration": 2880}, {"note": 73, "velocity": 113, "duration": 240}, {"note": 75, "velocity": 108, "duration": 244}, {"note": 76, "velocity": 110, "duration": 240}, {"note": 78, "velocity": 107, "duration": 248}, {"note": 80, "velocity": 110, "duration": 240}, {"note": 83, "velocity": 108, "duration": 240}, {"note": 85, "velocity": 108, "duration": 240}, {"note": 87, "velocity": 107, "duration": 240}, {"note": 85, "velocity": 114, "duration": 240}, {"note": 83, "velocity": 113, "duration": 240}, {"note": 80, "velocity": 116, "duration": 960}, {"note": 85, "velocity": 110, "duration": 240}, {"note": 87, "velocity": 110, "duration": 240}, {"note": 85, "velocity": 100, "duration": 240}, {"note": 83, "velocity": 108, "duration": 240}, {"note": 80, "velocity": 114, "duration": 240}, {"note": 78, "velocity": 100, "duration": 240}, {"note": 80, "velocity": 113, "duration": 240}, {"note": 83, "velocity": 114, "duration": 240}, {"note": 80, "velocity": 113, "duration": 960}, {"note": 78, "velocity": 113, "duration": 240}, {"note": 80, "velocity": 104, "duration": 265}, {"note": 78, "velocity": 102, "duration": 240}, {"note": 76, "velocity": 108, "duration": 240}, {"note": 73, "velocity": 108, "duration": 240}, {"note": 76, "velocity": 100, "duration": 240}, {"note": 78, "velocity": 91, "duration": 240}, {"note": 80, "velocity": 100, "duration": 240}, {"note": 83, "velocity": 110, "duration": 960}, {"note": 78, "velocity": 116, "duration": 240}, {"note": 80, "velocity": 114, "duration": 240}, {"note": 78, "velocity": 113, "duration": 240}, {"note": 76, "velocity": 110, "duration": 240}, {"note": 73, "velocity": 107, "duration": 240}, {"note": 76, "velocity": 91, "duration": 240}, {"note": 75, "velocity": 110, "duration": 240}, {"note": 73, "velocity": 100, "duration": 240}, {"note": 75, "velocity": 107, "duration": 719}, {"note": 75, "velocity": 108, "duration": 244}, {"note": 76, "velocity": 110, "duration": 240}, {"note": 78, "velocity": 107, "duration": 248}, {"note": 80, "velocity": 110, "duration": 240}, {"note": 83, "velocity": 108, "duration": 240}, {"note": 85, "velocity": 108, "duration": 240}, {"note": 87, "velocity": 107, "duration": 240}, {"note": 85, "velocity": 114, "duration": 240}, {"note": 83, "velocity": 113, "duration": 240}, {"note": 80, "velocity": 116, "duration": 960}, {"note": 85, "velocity": 110, "duration": 240}, {"note": 87, "velocity": 110, "duration": 240}, {"note": 85, "velocity": 100, "duration": 240}, {"note": 83, "velocity": 108, "duration": 240}, {"note": 80, "velocity": 114, "duration": 240}, {"note": 78, "velocity": 100, "duration": 240}, {"note": 80, "velocity": 113, "duration": 240}, {"note": 83, "velocity": 114, "duration": 240}, {"note": 80, "velocity": 113, "duration": 960}, {"note": 78, "velocity": 113, "duration": 240}, {"note": 80, "velocity": 104, "duration": 265}, {"note": 78, "velocity": 102, "duration": 240}, {"note": 76, "velocity": 108, "duration": 240}, {"note": 73, "velocity": 108, "duration": 240}, {"note": 76, "velocity": 100, "duration": 240}, {"note": 78, "velocity": 91, "duration": 240}, {"note": 80, "velocity": 100, "duration": 240}, {"note": 83, "velocity": 110, "duration": 960}, {"note": 78, "velocity": 116, "duration": 240}, {"note": 80, "velocity": 114, "duration": 240}, {"note": 78, "velocity": 113, "duration": 240}, {"note": 76, "velocity": 110, "duration": 240}, {"note": 73, "velocity": 107, "duration": 480}, {"note": 71, "velocity": 107, "duration": 240}, {"note": 73, "velocity": 108, "duration": 720}]]