[[{"note": 65, "velocity": 114, "duration": 140}, {"note": 67, "velocity": 108, "duration": 120}, {"note": 69, "velocity": 117, "duration": 120}, {"note": 67, "velocity": 98, "duration": 120}, {"note": 69, "velocity": 108, "duration": 120}, {"note": 67, "velocity": 96, "duration": 120}, {"note": 69, "velocity": 114, "duration": 138}, {"note": 72, "velocity": 110, "duration": 240}, {"note": 67, "velocity": 113, "duration": 480}, {"note": 69, "velocity": 114, "duration": 120}, {"note": 67, "velocity": 116, "duration": 240}, {"note": 69, "velocity": 116, "duration": 240}, {"note": 67, "velocity": 114, "duration": 240}, {"note": 65, "velocity": 110, "duration": 720}, {"note": 0, "velocity": 0, "duration": 720}, {"note": 69, "velocity": 114, "duration": 120}, {"note": 72, "velocity": 100, "duration": 124}, {"note": 74, "velocity": 113, "duration": 120}, {"note": 72, "velocity": 98, "duration": 120}, {"note": 74, "velocity": 108, "duration": 120}, {"note": 72, "velocity": 100, "duration": 120}, {"note": 74, "velocity": 114, "duration": 130}, {"note": 77, "velocity": 104, "duration": 240}, {"note": 74, "velocity": 113, "duration": 360}, {"note": 0, "velocity": 0, "duration": 120}, {"note": 74, "velocity": 108, "duration": 119}, {"note": 74, "velocity": 113, "duration": 119}, {"note": 74, "velocity": 114, "duration": 240}, {"note": 69, "velocity": 108, "duration": 148}, {"note": 72, "velocity": 113, "duration": 480}, {"note": 0, "velocity": 0, "duration": 1200}, {"note": 69, "velocity": 117, "duration": 120}, {"note": 72, "velocity": 102, "duration": 120}, {"note": 74, "velocity": 110, "duration": 120}, {"note": 72, "velocity": 100, "duration": 120}, {"note": 74, "velocity": 104, "duration": 120}, {"note": 72, "velocity": 102, "duration": 120}, {"note": 74, "velocity": 108, "duration": 120}, {"note": 77, "velocity": 110, "duration": 240}, {"note": 74, "velocity": 110, "duration": 360}, {"note": 0, "velocity": 0, "duration": 120}, {"note": 77, "velocity": 102, "duration": 119}, {"note": 77, "velocity": 113, "duration": 119}, {"note": 77, "velocity": 108, "duration": 240}, {"note": 74, "velocity": 107, "duration": 134}, {"note": 72, "velocity": 102, "duration": 360}, {"note": 69, "velocity": 104, "duration": 119}, {"note": 69, "velocity": 107, "duration": 119}, {"note": 69, "velocity": 104, "duration": 240}, {"note": 67, "velocity": 108, "duration": 240}, {"note": 65, "velocity": 98, "duration": 600}, {"note": 0, "velocity": 0, "duration": 600}, {"note": 67, "velocity": 107, "duration": 119}, {"note": 67, "velocity": 100, "duration": 119}, {"note": 67, "velocity": 91, "duration": 359}, {"note": 67, "velocity": 108, "duration": 239}, {"note": 67, "velocity": 91, "duration": 120}, {"note": 65, "velocity": 110, "duration": 359}, {"note": 65, "velocity": 104, "duration": 120}, {"note": 67, "velocity": 108, "duration": 600}, {"note": 0, "velocity": 0, "duration": 1200}, {"note": 65, "velocity": 114, "duration": 140}, {"note": 67, "velocity": 108, "duration": 120}, {"note": 69, "velocity": 117, "duration": 120}, {"note": 67, "velocity": 98, "duration": 120}, {"note": 69, "velocity": 108, "duration": 120}, {"note": 67, "velocity": 96, "duration": 120}, {"note": 69, "velocity": 114, "duration": 138}, {"note": 72, "velocity": 110, "duration": 240}, {"note": 67, "velocity": 113, "duration": 240}, {"note": 0, "velocity": 0, "duration": 240}, {"note": 69, "velocity": 114, "duration": 120}, {"note": 67, "velocity": 116, "duration": 240}, {"note": 69, "velocity": 116, "duration": 240}, {"note": 67, "velocity": 114, "duration": 240}, {"note": 65, "velocity": 110, "duration": 720}, {"note": 0, "velocity": 0, "duration": 720}, {"note": 69, "velocity": 114, "duration": 120}, {"note": 72, "velocity": 100, "duration": 124}, {"note": 74, "velocity": 113, "duration": 120}, {"note": 72, "velocity": 98, "duration": 120}, {"note": 74, "velocity": 108, "duration": 120}, {"note": 72, "velocity": 100, "duration": 120}, {"note": 74, "velocity": 114, "duration": 130}, {"note": 77, "velocity": 104, "duration": 240}, {"note": 74, "velocity": 113, "duration": 360}, {"note": 0, "velocity": 0, "duration": 120}, {"note": 74, "velocity": 108, "duration": 119}, {"note": 74, "velocity": 113, "duration": 119}, {"note": 74, "velocity": 114, "duration": 240}, {"note": 69, "velocity": 108, "duration": 148}, {"note": 72, "velocity": 113, "duration": 600}, {"note": 0, "velocity": 0, "duration": 1080}, {"note": 69, "velocity": 117, "duration": 120}, {"note": 72, "velocity": 102, "duration": 120}, {"note": 74, "velocity": 110, "duration": 120}, {"note": 72, "velocity": 100, "duration": 120}, {"note": 74, "velocity": 104, "duration": 120}, {"note": 72, "velocity": 102, "duration": 120}, {"note": 74, "velocity": 108, "duration": 120}, {"note": 77, "velocity": 110, "duration": 240}, {"note": 74, "velocity": 110, "duration": 480}, {"note": 77, "velocity": 102, "duration": 119}, {"note": 77, "velocity": 113, "duration": 119}, {"note": 77, "velocity": 108, "duration": 240}, {"note": 74, "velocity": 107, "duration": 134}, {"note": 72, "velocity": 102, "duration": 360}, {"note": 69, "velocity": 104, "duration": 119}, {"note": 69, "velocity": 107, "duration": 119}, {"note": 69, "velocity": 104, "duration": 240}, {"note": 67, "velocity": 108, "duration": 240}, {"note": 65, "velocity": 98, "duration": 480}, {"note": 0, "velocity": 0, "duration": 720}, {"note": 67, "velocity": 107, "duration": 119}, {"note": 67, "velocity": 100, "duration": 119}, {"note": 67, "velocity": 91, "duration": 360}, {"note": 69, "velocity": 102, "duration": 239}, {"note": 69, "velocity": 102, "duration": 120}, {"note": 67, "velocity": 108, "duration": 360}, {"note": 65, "velocity": 100, "duration": 119}, {"note": 65, "velocity": 104, "duration": 480}, {"note": 0, "velocity": 0, "duration": 1080}, {"note": 77, "velocity": 119, "duration": 240}, {"note": 76, "velocity": 113, "duration": 240}, {"note": 74, "velocity": 113, "duration": 360}, {"note": 72, "velocity": 100, "duration": 132}, {"note": 69, "velocity": 96, "duration": 240}, {"note": 74, "velocity": 110, "duration": 240}, {"note": 72, "velocity": 110, "duration": 480}, {"note": 0, "velocity": 0, "duration": 240}, {"note": 69, "velocity": 102, "duration": 120}, {"note": 72, "velocity": 102, "duration": 120}, {"note": 74, "velocity": 104, "duration": 120}, {"note": 72, "velocity": 91, "duration": 126}, {"note": 74, "velocity": 102, "duration": 120}, {"note": 72, "velocity": 86, "duration": 127}, {"note": 69, "velocity": 94, "duration": 159}, {"note": 67, "velocity": 93, "duration": 240}, {"note": 69, "velocity": 102, "duration": 600}, {"note": 0, "velocity": 0, "duration": 240}, {"note": 69, "velocity": 110, "duration": 120}, {"note": 67, "velocity": 93, "duration": 123}, {"note": 65, "velocity": 104, "duration": 480}, {"note": 77, "velocity": 113, "duration": 359}, {"note": 77, "velocity": 108, "duration": 120}, {"note": 76, "velocity": 114, "duration": 240}, {"note": 72, "velocity": 110, "duration": 239}, {"note": 72, "velocity": 110, "duration": 240}, {"note": 69, "velocity": 110, "duration": 120}, {"note": 74, "velocity": 116, "duration": 480}, {"note": 0, "velocity": 0, "duration": 480}, {"note": 72, "velocity": 110, "duration": 120}, {"note": 74, "velocity": 117, "duration": 240}, {"note": 72, "velocity": 114, "duration": 240}, {"note": 74, "velocity": 119, "duration": 240}, {"note": 79, "velocity": 117, "duration": 840}, {"note": 0, "velocity": 0, "duration": 960}, {"note": 72, "velocity": 108, "duration": 135}, {"note": 74, "velocity": 110, "duration": 120}, {"note": 77, "velocity": 107, "duration": 120}, {"note": 81, "velocity": 110, "duration": 239}, {"note": 81, "velocity": 114, "duration": 119}, {"note": 81, "velocity": 113, "duration": 119}, {"note": 81, "velocity": 119, "duration": 240}, {"note": 79, "velocity": 108, "duration": 120}, {"note": 77, "velocity": 102, "duration": 120}, {"note": 81, "velocity": 117, "duration": 239}, {"note": 81, "velocity": 113, "duration": 119}, {"note": 81, "velocity": 110, "duration": 119}, {"note": 81, "velocity": 116, "duration": 240}, {"note": 79, "velocity": 113, "duration": 120}, {"note": 77, "velocity": 110, "duration": 120}, {"note": 79, "velocity": 119, "duration": 239}, {"note": 79, "velocity": 110, "duration": 120}, {"note": 81, "velocity": 108, "duration": 120}, {"note": 79, "velocity": 110, "duration": 240}, {"note": 77, "velocity": 113, "duration": 124}, {"note": 74, "velocity": 114, "duration": 240}, {"note": 72, "velocity": 113, "duration": 480}, {"note": 0, "velocity": 0, "duration": 360}, {"note": 77, "velocity": 110, "duration": 119}, {"note": 77, "velocity": 113, "duration": 239}, {"note": 77, "velocity": 104, "duration": 119}, {"note": 77, "velocity": 114, "duration": 239}, {"note": 77, "velocity": 116, "duration": 120}, {"note": 74, "velocity": 110, "duration": 120}, {"note": 72, "velocity": 100, "duration": 120}, {"note": 81, "velocity": 117, "duration": 239}, {"note": 81, "velocity": 114, "duration": 240}, {"note": 79, "velocity": 117, "duration": 240}, {"note": 77, "velocity": 116, "duration": 120}, {"note": 79, "velocity": 116, "duration": 134}, {"note": 79, "velocity": 104, "duration": 14}, {"note": 0, "velocity": 0, "duration": 226}, {"note": 81, "velocity": 108, "duration": 120}, {"note": 79, "velocity": 113, "duration": 128}, {"note": 77, "velocity": 98, "duration": 240}, {"note": 74, "velocity": 114, "duration": 120}, {"note": 79, "velocity": 117, "duration": 480}, {"note": 0, "velocity": 0, "duration": 120}, {"note": 72, "velocity": 108, "duration": 135}, {"note": 74, "velocity": 110, "duration": 120}, {"note": 77, "velocity": 107, "duration": 120}, {"note": 81, "velocity": 110, "duration": 239}, {"note": 81, "velocity": 114, "duration": 119}, {"note": 81, "velocity": 113, "duration": 119}, {"note": 81, "velocity": 119, "duration": 240}, {"note": 79, "velocity": 108, "duration": 120}, {"note": 77, "velocity": 102, "duration": 120}, {"note": 81, "velocity": 117, "duration": 239}, {"note": 81, "velocity": 113, "duration": 119}, {"note": 81, "velocity": 110, "duration": 119}, {"note": 81, "velocity": 116, "duration": 240}, {"note": 79, "velocity": 113, "duration": 120}, {"note": 77, "velocity": 110, "duration": 120}, {"note": 79, "velocity": 119, "duration": 239}, {"note": 79, "velocity": 110, "duration": 120}, {"note": 81, "velocity": 108, "duration": 120}, {"note": 79, "velocity": 110, "duration": 240}, {"note": 77, "velocity": 113, "duration": 124}, {"note": 74, "velocity": 114, "duration": 240}, {"note": 72, "velocity": 113, "duration": 480}, {"note": 0, "velocity": 0, "duration": 360}, {"note": 77, "velocity": 110, "duration": 119}, {"note": 77, "velocity": 113, "duration": 239}, {"note": 77, "velocity": 104, "duration": 119}, {"note": 77, "velocity": 114, "duration": 239}, {"note": 77, "velocity": 116, "duration": 120}, {"note": 74, "velocity": 110, "duration": 120}, {"note": 72, "velocity": 100, "duration": 120}, {"note": 81, "velocity": 117, "duration": 239}, {"note": 81, "velocity": 114, "duration": 119}, {"note": 81, "velocity": 114, "duration": 120}, {"note": 79, "velocity": 117, "duration": 240}, {"note": 77, "velocity": 116, "duration": 120}, {"note": 79, "velocity": 116, "duration": 119}, {"note": 79, "velocity": 104, "duration": 119}, {"note": 79, "velocity": 104, "duration": 120}, {"note": 81, "velocity": 108, "duration": 120}, {"note": 79, "velocity": 113, "duration": 128}, {"note": 77, "velocity": 98, "duration": 239}, {"note": 77, "velocity": 108, "duration": 840}, {"note": 0, "velocity": 0, "duration": 4800}, {"note": 65, "velocity": 114, "duration": 140}, {"note": 67, "velocity": 108, "duration": 120}, {"note": 69, "velocity": 117, "duration": 120}, {"note": 67, "velocity": 98, "duration": 120}, {"note": 69, "velocity": 108, "duration": 120}, {"note": 67, "velocity": 96, "duration": 120}, {"note": 69, "velocity": 114, "duration": 138}, {"note": 72, "velocity": 110, "duration": 240}, {"note": 67, "velocity": 113, "duration": 480}, {"note": 69, "velocity": 114, "duration": 120}, {"note": 67, "velocity": 116, "duration": 240}, {"note": 69, "velocity": 116, "duration": 240}, {"note": 67, "velocity": 114, "duration": 240}, {"note": 65, "velocity": 110, "duration": 600}, {"note": 0, "velocity": 0, "duration": 840}, {"note": 69, "velocity": 114, "duration": 120}, {"note": 72, "velocity": 100, "duration": 124}, {"note": 74, "velocity": 113, "duration": 120}, {"note": 72, "velocity": 98, "duration": 120}, {"note": 74, "velocity": 108, "duration": 120}, {"note": 72, "velocity": 100, "duration": 120}, {"note": 74, "velocity": 114, "duration": 130}, {"note": 77, "velocity": 104, "duration": 240}, {"note": 74, "velocity": 113, "duration": 360}, {"note": 0, "velocity": 0, "duration": 120}, {"note": 74, "velocity": 108, "duration": 119}, {"note": 74, "velocity": 113, "duration": 119}, {"note": 74, "velocity": 114, "duration": 240}, {"note": 69, "velocity": 108, "duration": 148}, {"note": 72, "velocity": 113, "duration": 600}, {"note": 0, "velocity": 0, "duration": 1080}, {"note": 69, "velocity": 117, "duration": 120}, {"note": 72, "velocity": 102, "duration": 120}, {"note": 74, "velocity": 110, "duration": 120}, {"note": 72, "velocity": 100, "duration": 120}, {"note": 74, "velocity": 104, "duration": 120}, {"note": 72, "velocity": 102, "duration": 120}, {"note": 74, "velocity": 108, "duration": 120}, {"note": 77, "velocity": 110, "duration": 240}, {"note": 74, "velocity": 110, "duration": 480}, {"note": 77, "velocity": 102, "duration": 119}, {"note": 77, "velocity": 113, "duration": 119}, {"note": 77, "velocity": 108, "duration": 240}, {"note": 74, "velocity": 107, "duration": 134}, {"note": 72, "velocity": 102, "duration": 360}, {"note": 69, "velocity": 104, "duration": 119}, {"note": 69, "velocity": 107, "duration": 119}, {"note": 69, "velocity": 104, "duration": 240}, {"note": 67, "velocity": 108, "duration": 240}, {"note": 65, "velocity": 98, "duration": 600}, {"note": 0, "velocity": 0, "duration": 600}, {"note": 67, "velocity": 107, "duration": 119}, {"note": 67, "velocity": 100, "duration": 119}, {"note": 67, "velocity": 91, "duration": 360}, {"note": 69, "velocity": 102, "duration": 239}, {"note": 69, "velocity": 102, "duration": 120}, {"note": 67, "velocity": 108, "duration": 360}, {"note": 65, "velocity": 100, "duration": 119}, {"note": 65, "velocity": 104, "duration": 600}, {"note": 0, "velocity": 0, "duration": 960}, {"note": 77, "velocity": 119, "duration": 240}, {"note": 76, "velocity": 113, "duration": 240}, {"note": 74, "velocity": 113, "duration": 360}, {"note": 72, "velocity": 100, "duration": 132}, {"note": 69, "velocity": 96, "duration": 240}, {"note": 74, "velocity": 110, "duration": 240}, {"note": 72, "velocity": 110, "duration": 480}, {"note": 0, "velocity": 0, "duration": 240}, {"note": 69, "velocity": 102, "duration": 120}, {"note": 72, "velocity": 102, "duration": 120}, {"note": 74, "velocity": 104, "duration": 120}, {"note": 72, "velocity": 91, "duration": 126}, {"note": 74, "velocity": 102, "duration": 120}, {"note": 72, "velocity": 86, "duration": 127}, {"note": 69, "velocity": 94, "duration": 159}, {"note": 67, "velocity": 93, "duration": 240}, {"note": 69, "velocity": 102, "duration": 720}, {"note": 0, "velocity": 0, "duration": 120}, {"note": 69, "velocity": 110, "duration": 120}, {"note": 67, "velocity": 93, "duration": 123}, {"note": 65, "velocity": 104, "duration": 480}, {"note": 77, "velocity": 113, "duration": 359}, {"note": 77, "velocity": 108, "duration": 120}, {"note": 76, "velocity": 114, "duration": 240}, {"note": 72, "velocity": 110, "duration": 239}, {"note": 72, "velocity": 110, "duration": 240}, {"note": 69, "velocity": 110, "duration": 120}, {"note": 74, "velocity": 116, "duration": 480}, {"note": 0, "velocity": 0, "duration": 480}, {"note": 72, "velocity": 110, "duration": 120}, {"note": 74, "velocity": 117, "duration": 240}, {"note": 72, "velocity": 114, "duration": 240}, {"note": 74, "velocity": 119, "duration": 240}, {"note": 79, "velocity": 117, "duration": 480}, {"note": 0, "velocity": 0, "duration": 1320}, {"note": 72, "velocity": 108, "duration": 135}, {"note": 74, "velocity": 110, "duration": 120}, {"note": 77, "velocity": 107, "duration": 120}, {"note": 81, "velocity": 110, "duration": 239}, {"note": 81, "velocity": 114, "duration": 119}, {"note": 81, "velocity": 113, "duration": 119}, {"note": 81, "velocity": 119, "duration": 240}, {"note": 79, "velocity": 108, "duration": 120}, {"note": 77, "velocity": 102, "duration": 120}, {"note": 81, "velocity": 117, "duration": 239}, {"note": 81, "velocity": 113, "duration": 119}, {"note": 81, "velocity": 110, "duration": 119}, {"note": 81, "velocity": 116, "duration": 240}, {"note": 79, "velocity": 113, "duration": 120}, {"note": 77, "velocity": 110, "duration": 120}, {"note": 79, "velocity": 119, "duration": 239}, {"note": 79, "velocity": 110, "duration": 120}, {"note": 81, "velocity": 108, "duration": 120}, {"note": 79, "velocity": 110, "duration": 240}, {"note": 77, "velocity": 113, "duration": 124}, {"note": 74, "velocity": 114, "duration": 240}, {"note": 72, "velocity": 113, "duration": 480}, {"note": 0, "velocity": 0, "duration": 360}, {"note": 77, "velocity": 110, "duration": 119}, {"note": 77, "velocity": 113, "duration": 239}, {"note": 77, "velocity": 104, "duration": 119}, {"note": 77, "velocity": 114, "duration": 239}, {"note": 77, "velocity": 116, "duration": 120}, {"note": 74, "velocity": 110, "duration": 120}, {"note": 72, "velocity": 100, "duration": 120}, {"note": 81, "velocity": 117, "duration": 239}, {"note": 81, "velocity": 114, "duration": 240}, {"note": 79, "velocity": 117, "duration": 240}, {"note": 77, "velocity": 116, "duration": 120}, {"note": 79, "velocity": 116, "duration": 134}, {"note": 79, "velocity": 104, "duration": 14}, {"note": 0, "velocity": 0, "duration": 226}, {"note": 81, "velocity": 108, "duration": 120}, {"note": 79, "velocity": 113, "duration": 128}, {"note": 77, "velocity": 98, "duration": 240}, {"note": 74, "velocity": 114, "duration": 120}, {"note": 79, "velocity": 117, "duration": 480}, {"note": 0, "velocity": 0, "duration": 120}, {"note": 72, "velocity": 108, "duration": 135}, {"note": 74, "velocity": 110, "duration": 120}, {"note": 77, "velocity": 107, "duration": 120}, {"note": 81, "velocity": 110, "duration": 239}, {"note": 81, "velocity": 114, "duration": 119}, {"note": 81, "velocity": 113, "duration": 119}, {"note": 81, "velocity": 119, "duration": 240}, {"note": 79, "velocity": 108, "duration": 120}, {"note": 77, "velocity": 102, "duration": 120}, {"note": 81, "velocity": 117, "duration": 239}, {"note": 81, "velocity": 113, "duration": 119}, {"note": 81, "velocity": 110, "duration": 119}, {"note": 81, "velocity": 116, "duration": 240}, {"note": 79, "velocity": 113, "duration": 120}, {"note": 77, "velocity": 110, "duration": 120}, {"note": 79, "velocity": 119, "duration": 239}, {"note": 79, "velocity": 110, "duration": 120}, {"note": 81, "velocity": 108, "duration": 120}, {"note": 79, "velocity": 110, "duration": 240}, {"note": 77, "velocity": 113, "duration": 124}, {"note": 74, "velocity": 114, "duration": 240}, {"note": 72, "velocity": 113, "duration": 840}, {"note": 77, "velocity": 110, "duration": 119}, {"note": 77, "velocity": 113, "duration": 239}, {"note": 77, "velocity": 104, "duration": 119}, {"note": 77, "velocity": 114, "duration": 239}, {"note": 77, "velocity": 116, "duration": 120}, {"note": 74, "velocity": 110, "duration": 120}, {"note": 72, "velocity": 100, "duration": 120}, {"note": 81, "velocity": 117, "duration": 239}, {"note": 81, "velocity": 114, "duration": 119}, {"note": 81, "velocity": 114, "duration": 120}, {"note": 79, "velocity": 117, "duration": 240}, {"note": 77, "velocity": 116, "duration": 120}, {"note": 79, "velocity": 116, "duration": 119}, {"note": 79, "velocity": 104, "duration": 119}, {"note": 79, "velocity": 104, "duration": 120}, {"note": 81, "velocity": 108, "duration": 120}, {"note": 79, "velocity": 113, "duration": 128}, {"note": 77, "velocity": 98, "duration": 239}, {"note": 77, "velocity": 108, "duration": 720}, {"note": 0, "velocity": 0, "duration": 360}, {"note": 77, "velocity": 114, "duration": 119}, {"note": 77, "velocity": 110, "duration": 239}, {"note": 77, "velocity": 110, "duration": 119}, {"note": 77, "velocity": 113, "duration": 119}, {"note": 77, "velocity": 114, "duration": 240}, {"note": 74, "velocity": 104, "duration": 120}, {"note": 72, "velocity": 108, "duration": 120}, {"note": 81, "velocity": 114, "duration": 239}, {"note": 81, "velocity": 114, "duration": 119}, {"note": 81, "velocity": 117, "duration": 120}, {"note": 79, "velocity": 110, "duration": 240}, {"note": 77, "velocity": 110, "duration": 120}, {"note": 79, "velocity": 114, "duration": 119}, {"note": 79, "velocity": 94, "duration": 119}, {"note": 79, "velocity": 108, "duration": 120}, {"note": 81, "velocity": 107, "duration": 120}, {"note": 79, "velocity": 116, "duration": 240}, {"note": 77, "velocity": 100, "duration": 479}, {"note": 77, "velocity": 107, "duration": 960}, {"note": 0, "velocity": 0, "duration": 7080}, {"note": 72, "velocity": 108, "duration": 135}, {"note": 74, "velocity": 110, "duration": 120}, {"note": 77, "velocity": 107, "duration": 120}, {"note": 81, "velocity": 110, "duration": 239}, {"note": 81, "velocity": 114, "duration": 119}, {"note": 81, "velocity": 113, "duration": 119}, {"note": 81, "velocity": 119, "duration": 240}, {"note": 79, "velocity": 108, "duration": 120}, {"note": 77, "velocity": 102, "duration": 120}, {"note": 81, "velocity": 117, "duration": 239}, {"note": 81, "velocity": 113, "duration": 119}, {"note": 81, "velocity": 110, "duration": 119}, {"note": 81, "velocity": 116, "duration": 240}, {"note": 79, "velocity": 113, "duration": 120}, {"note": 77, "velocity": 110, "duration": 120}, {"note": 79, "velocity": 119, "duration": 239}, {"note": 79, "velocity": 110, "duration": 120}, {"note": 81, "velocity": 108, "duration": 120}, {"note": 79, "velocity": 110, "duration": 240}, {"note": 77, "velocity": 113, "duration": 124}, {"note": 74, "velocity": 114, "duration": 240}, {"note": 72, "velocity": 113, "duration": 360}, {"note": 0, "velocity": 0, "duration": 480}, {"note": 77, "velocity": 110, "duration": 119}, {"note": 77, "velocity": 113, "duration": 239}, {"note": 77, "velocity": 104, "duration": 119}, {"note": 77, "velocity": 114, "duration": 239}, {"note": 77, "velocity": 116, "duration": 120}, {"note": 74, "velocity": 110, "duration": 120}, {"note": 72, "velocity": 100, "duration": 120}, {"note": 81, "velocity": 117, "duration": 239}, {"note": 81, "velocity": 114, "duration": 240}, {"note": 79, "velocity": 117, "duration": 240}, {"note": 77, "velocity": 116, "duration": 120}, {"note": 79, "velocity": 116, "duration": 119}, {"note": 79, "velocity": 104, "duration": 119}, {"note": 79, "velocity": 104, "duration": 120}, {"note": 81, "velocity": 108, "duration": 120}, {"note": 79, "velocity": 113, "duration": 128}, {"note": 77, "velocity": 98, "duration": 240}, {"note": 74, "velocity": 114, "duration": 120}, {"note": 79, "velocity": 117, "duration": 600}, {"note": 72, "velocity": 108, "duration": 135}, {"note": 74, "velocity": 110, "duration": 120}, {"note": 77, "velocity": 107, "duration": 120}, {"note": 81, "velocity": 110, "duration": 239}, {"note": 81, "velocity": 114, "duration": 119}, {"note": 81, "velocity": 113, "duration": 119}, {"note": 81, "velocity": 119, "duration": 240}, {"note": 79, "velocity": 108, "duration": 120}, {"note": 77, "velocity": 102, "duration": 120}, {"note": 81, "velocity": 117, "duration": 239}, {"note": 81, "velocity": 113, "duration": 119}, {"note": 81, "velocity": 110, "duration": 119}, {"note": 81, "velocity": 116, "duration": 240}, {"note": 79, "velocity": 113, "duration": 120}, {"note": 77, "velocity": 110, "duration": 120}, {"note": 79, "velocity": 119, "duration": 119}, {"note": 79, "velocity": 119, "duration": 119}, {"note": 79, "velocity": 110, "duration": 120}, {"note": 81, "velocity": 108, "duration": 120}, {"note": 79, "velocity": 110, "duration": 240}, {"note": 77, "velocity": 113, "duration": 124}, {"note": 74, "velocity": 114, "duration": 240}, {"note": 72, "velocity": 113, "duration": 360}, {"note": 0, "velocity": 0, "duration": 480}, {"note": 77, "velocity": 110, "duration": 119}, {"note": 77, "velocity": 113, "duration": 239}, {"note": 77, "velocity": 104, "duration": 119}, {"note": 77, "velocity": 114, "duration": 239}, {"note": 77, "velocity": 116, "duration": 120}, {"note": 74, "velocity": 110, "duration": 120}, {"note": 72, "velocity": 100, "duration": 120}, {"note": 81, "velocity": 117, "duration": 239}, {"note": 81, "velocity": 114, "duration": 119}, {"note": 81, "velocity": 114, "duration": 120}, {"note": 79, "velocity": 117, "duration": 240}, {"note": 77, "velocity": 116, "duration": 120}, {"note": 79, "velocity": 116, "duration": 119}, {"note": 79, "velocity": 104, "duration": 119}, {"note": 79, "velocity": 104, "duration": 120}, {"note": 81, "velocity": 108, "duration": 120}, {"note": 79, "velocity": 113, "duration": 128}, {"note": 77, "velocity": 98, "duration": 239}, {"note": 77, "velocity": 108, "duration": 480}, {"note": 0, "velocity": 0, "duration": 600}, {"note": 77, "velocity": 114, "duration": 119}, {"note": 77, "velocity": 110, "duration": 239}, {"note": 77, "velocity": 110, "duration": 119}, {"note": 77, "velocity": 113, "duration": 119}, {"note": 77, "velocity": 114, "duration": 240}, {"note": 74, "velocity": 104, "duration": 120}, {"note": 72, "velocity": 108, "duration": 120}, {"note": 81, "velocity": 114, "duration": 239}, {"note": 81, "velocity": 114, "duration": 119}, {"note": 81, "velocity": 117, "duration": 120}, {"note": 79, "velocity": 110, "duration": 240}, {"note": 77, "velocity": 110, "duration": 120}, {"note": 79, "velocity": 114, "duration": 119}, {"note": 79, "velocity": 94, "duration": 119}, {"note": 79, "velocity": 108, "duration": 120}, {"note": 81, "velocity": 107, "duration": 120}, {"note": 79, "velocity": 116, "duration": 240}, {"note": 77, "velocity": 100, "duration": 479}, {"note": 77, "velocity": 107, "duration": 181}]]