[[{"note": 57, "velocity": 98, "duration": 118}, {"note": 0, "velocity": 0, "duration": 122}, {"note": 57, "velocity": 98, "duration": 166}, {"note": 0, "velocity": 0, "duration": 74}, {"note": 60, "velocity": 102, "duration": 155}, {"note": 0, "velocity": 0, "duration": 85}, {"note": 60, "velocity": 100, "duration": 111}, {"note": 0, "velocity": 0, "duration": 129}, {"note": 65, "velocity": 107, "duration": 135}, {"note": 0, "velocity": 0, "duration": 105}, {"note": 65, "velocity": 102, "duration": 234}, {"note": 64, "velocity": 98, "duration": 129}, {"note": 0, "velocity": 0, "duration": 111}, {"note": 64, "velocity": 107, "duration": 179}, {"note": 0, "velocity": 0, "duration": 61}, {"note": 62, "velocity": 100, "duration": 137}, {"note": 0, "velocity": 0, "duration": 103}, {"note": 57, "velocity": 89, "duration": 159}, {"note": 0, "velocity": 0, "duration": 81}, {"note": 62, "velocity": 100, "duration": 256}, {"note": 0, "velocity": 0, "duration": 1184}, {"note": 62, "velocity": 96, "duration": 145}, {"note": 0, "velocity": 0, "duration": 95}, {"note": 62, "velocity": 100, "duration": 166}, {"note": 0, "velocity": 0, "duration": 74}, {"note": 64, "velocity": 104, "duration": 167}, {"note": 0, "velocity": 0, "duration": 73}, {"note": 64, "velocity": 102, "duration": 146}, {"note": 0, "velocity": 0, "duration": 94}, {"note": 69, "velocity": 113, "duration": 129}, {"note": 0, "velocity": 0, "duration": 111}, {"note": 69, "velocity": 113, "duration": 140}, {"note": 0, "velocity": 0, "duration": 100}, {"note": 64, "velocity": 110, "duration": 130}, {"note": 0, "velocity": 0, "duration": 110}, {"note": 64, "velocity": 107, "duration": 138}, {"note": 0, "velocity": 0, "duration": 102}, {"note": 60, "velocity": 100, "duration": 201}, {"note": 57, "velocity": 100, "duration": 167}, {"note": 0, "velocity": 0, "duration": 73}, {"note": 60, "velocity": 104, "duration": 217}, {"note": 0, "velocity": 0, "duration": 1223}, {"note": 57, "velocity": 96, "duration": 151}, {"note": 0, "velocity": 0, "duration": 89}, {"note": 57, "velocity": 104, "duration": 150}, {"note": 0, "velocity": 0, "duration": 90}, {"note": 60, "velocity": 98, "duration": 125}, {"note": 0, "velocity": 0, "duration": 115}, {"note": 60, "velocity": 98, "duration": 118}, {"note": 0, "velocity": 0, "duration": 122}, {"note": 65, "velocity": 104, "duration": 133}, {"note": 0, "velocity": 0, "duration": 107}, {"note": 65, "velocity": 107, "duration": 131}, {"note": 0, "velocity": 0, "duration": 109}, {"note": 64, "velocity": 100, "duration": 126}, {"note": 0, "velocity": 0, "duration": 114}, {"note": 64, "velocity": 107, "duration": 162}, {"note": 0, "velocity": 0, "duration": 78}, {"note": 62, "velocity": 108, "duration": 135}, {"note": 0, "velocity": 0, "duration": 105}, {"note": 57, "velocity": 94, "duration": 127}, {"note": 0, "velocity": 0, "duration": 113}, {"note": 62, "velocity": 108, "duration": 228}, {"note": 0, "velocity": 0, "duration": 492}, {"note": 62, "velocity": 93, "duration": 128}, {"note": 0, "velocity": 0, "duration": 112}, {"note": 64, "velocity": 107, "duration": 173}, {"note": 0, "velocity": 0, "duration": 307}, {"note": 63, "velocity": 109, "duration": 195}, {"note": 64, "velocity": 107, "duration": 187}, {"note": 69, "velocity": 110, "duration": 266}, {"note": 0, "velocity": 0, "duration": 214}, {"note": 67, "velocity": 113, "duration": 326}, {"note": 0, "velocity": 0, "duration": 154}, {"note": 65, "velocity": 110, "duration": 302}, {"note": 0, "velocity": 0, "duration": 2098}, {"note": 57, "velocity": 98, "duration": 118}, {"note": 0, "velocity": 0, "duration": 122}, {"note": 57, "velocity": 98, "duration": 166}, {"note": 0, "velocity": 0, "duration": 74}, {"note": 60, "velocity": 102, "duration": 155}, {"note": 0, "velocity": 0, "duration": 85}, {"note": 60, "velocity": 100, "duration": 111}, {"note": 0, "velocity": 0, "duration": 129}, {"note": 65, "velocity": 107, "duration": 135}, {"note": 0, "velocity": 0, "duration": 105}, {"note": 65, "velocity": 102, "duration": 234}, {"note": 64, "velocity": 98, "duration": 129}, {"note": 0, "velocity": 0, "duration": 111}, {"note": 64, "velocity": 107, "duration": 179}, {"note": 0, "velocity": 0, "duration": 61}, {"note": 62, "velocity": 100, "duration": 137}, {"note": 0, "velocity": 0, "duration": 103}, {"note": 57, "velocity": 89, "duration": 159}, {"note": 0, "velocity": 0, "duration": 81}, {"note": 62, "velocity": 100, "duration": 256}, {"note": 0, "velocity": 0, "duration": 1184}, {"note": 62, "velocity": 96, "duration": 145}, {"note": 0, "velocity": 0, "duration": 95}, {"note": 62, "velocity": 100, "duration": 166}, {"note": 0, "velocity": 0, "duration": 74}, {"note": 64, "velocity": 104, "duration": 167}, {"note": 0, "velocity": 0, "duration": 73}, {"note": 64, "velocity": 102, "duration": 146}, {"note": 0, "velocity": 0, "duration": 94}, {"note": 69, "velocity": 113, "duration": 129}, {"note": 0, "velocity": 0, "duration": 111}, {"note": 69, "velocity": 113, "duration": 140}, {"note": 0, "velocity": 0, "duration": 100}, {"note": 64, "velocity": 110, "duration": 130}, {"note": 0, "velocity": 0, "duration": 110}, {"note": 64, "velocity": 107, "duration": 138}, {"note": 0, "velocity": 0, "duration": 342}, {"note": 57, "velocity": 100, "duration": 167}, {"note": 0, "velocity": 0, "duration": 73}, {"note": 60, "velocity": 104, "duration": 217}, {"note": 0, "velocity": 0, "duration": 1223}, {"note": 57, "velocity": 96, "duration": 151}, {"note": 0, "velocity": 0, "duration": 89}, {"note": 57, "velocity": 104, "duration": 150}, {"note": 0, "velocity": 0, "duration": 90}, {"note": 60, "velocity": 98, "duration": 125}, {"note": 0, "velocity": 0, "duration": 115}, {"note": 60, "velocity": 98, "duration": 118}, {"note": 0, "velocity": 0, "duration": 122}, {"note": 65, "velocity": 104, "duration": 133}, {"note": 0, "velocity": 0, "duration": 107}, {"note": 65, "velocity": 107, "duration": 131}, {"note": 0, "velocity": 0, "duration": 109}, {"note": 64, "velocity": 100, "duration": 126}, {"note": 0, "velocity": 0, "duration": 114}, {"note": 64, "velocity": 107, "duration": 162}, {"note": 0, "velocity": 0, "duration": 78}, {"note": 65, "velocity": 108, "duration": 135}, {"note": 0, "velocity": 0, "duration": 105}, {"note": 57, "velocity": 94, "duration": 127}, {"note": 0, "velocity": 0, "duration": 113}, {"note": 62, "velocity": 108, "duration": 228}, {"note": 0, "velocity": 0, "duration": 252}, {"note": 62, "velocity": 93, "duration": 128}, {"note": 0, "velocity": 0, "duration": 112}, {"note": 65, "velocity": 107, "duration": 173}, {"note": 0, "velocity": 0, "duration": 67}, {"note": 64, "velocity": 107, "duration": 173}, {"note": 0, "velocity": 0, "duration": 307}, {"note": 63, "velocity": 109, "duration": 195}, {"note": 64, "velocity": 107, "duration": 187}, {"note": 69, "velocity": 110, "duration": 266}, {"note": 0, "velocity": 0, "duration": 214}, {"note": 67, "velocity": 113, "duration": 326}, {"note": 0, "velocity": 0, "duration": 154}, {"note": 65, "velocity": 110, "duration": 302}, {"note": 0, "velocity": 0, "duration": 898}, {"note": 69, "velocity": 114, "duration": 168}, {"note": 0, "velocity": 0, "duration": 72}, {"note": 67, "velocity": 96, "duration": 142}, {"note": 65, "velocity": 98, "duration": 239}, {"note": 0, "velocity": 0, "duration": 121}, {"note": 64, "velocity": 108, "duration": 168}, {"note": 0, "velocity": 0, "duration": 72}, {"note": 62, "velocity": 102, "duration": 108}, {"note": 0, "velocity": 0, "duration": 132}, {"note": 62, "velocity": 96, "duration": 131}, {"note": 0, "velocity": 0, "duration": 109}, {"note": 62, "velocity": 96, "duration": 128}, {"note": 0, "velocity": 0, "duration": 112}, {"note": 62, "velocity": 102, "duration": 153}, {"note": 0, "velocity": 0, "duration": 87}, {"note": 62, "velocity": 96, "duration": 165}, {"note": 0, "velocity": 0, "duration": 75}, {"note": 69, "velocity": 110, "duration": 287}, {"note": 0, "velocity": 0, "duration": 193}, {"note": 67, "velocity": 114, "duration": 220}, {"note": 0, "velocity": 0, "duration": 980}, {"note": 67, "velocity": 114, "duration": 213}, {"note": 64, "velocity": 102, "duration": 56}, {"note": 0, "velocity": 0, "duration": 64}, {"note": 64, "velocity": 104, "duration": 174}, {"note": 0, "velocity": 0, "duration": 186}, {"note": 62, "velocity": 102, "duration": 246}, {"note": 60, "velocity": 98, "duration": 181}, {"note": 60, "velocity": 110, "duration": 92}, {"note": 0, "velocity": 0, "duration": 148}, {"note": 60, "velocity": 108, "duration": 163}, {"note": 0, "velocity": 0, "duration": 77}, {"note": 57, "velocity": 98, "duration": 148}, {"note": 0, "velocity": 0, "duration": 92}, {"note": 60, "velocity": 110, "duration": 125}, {"note": 0, "velocity": 0, "duration": 115}, {"note": 67, "velocity": 113, "duration": 265}, {"note": 0, "velocity": 0, "duration": 215}, {"note": 65, "velocity": 113, "duration": 196}, {"note": 0, "velocity": 0, "duration": 764}, {"note": 65, "velocity": 100, "duration": 158}, {"note": 0, "velocity": 0, "duration": 82}, {"note": 65, "velocity": 108, "duration": 209}, {"note": 60, "velocity": 100, "duration": 170}, {"note": 0, "velocity": 0, "duration": 70}, {"note": 60, "velocity": 104, "duration": 162}, {"note": 0, "velocity": 0, "duration": 78}, {"note": 53, "velocity": 104, "duration": 160}, {"note": 0, "velocity": 0, "duration": 80}, {"note": 57, "velocity": 102, "duration": 93}, {"note": 0, "velocity": 0, "duration": 147}, {"note": 55, "velocity": 91, "duration": 163}, {"note": 0, "velocity": 0, "duration": 77}, {"note": 55, "velocity": 102, "duration": 123}, {"note": 0, "velocity": 0, "duration": 117}, {"note": 62, "velocity": 108, "duration": 246}, {"note": 0, "velocity": 0, "duration": 714}, {"note": 62, "velocity": 108, "duration": 328}, {"note": 0, "velocity": 0, "duration": 152}, {"note": 62, "velocity": 108, "duration": 93}, {"note": 0, "velocity": 0, "duration": 147}, {"note": 62, "velocity": 110, "duration": 103}, {"note": 0, "velocity": 0, "duration": 137}, {"note": 62, "velocity": 110, "duration": 111}, {"note": 0, "velocity": 0, "duration": 129}, {"note": 65, "velocity": 116, "duration": 114}, {"note": 0, "velocity": 0, "duration": 126}, {"note": 62, "velocity": 113, "duration": 155}, {"note": 0, "velocity": 0, "duration": 85}, {"note": 65, "velocity": 116, "duration": 170}, {"note": 0, "velocity": 0, "duration": 70}, {"note": 62, "velocity": 113, "duration": 133}, {"note": 0, "velocity": 0, "duration": 107}, {"note": 65, "velocity": 113, "duration": 111}, {"note": 0, "velocity": 0, "duration": 129}, {"note": 65, "velocity": 114, "duration": 102}, {"note": 0, "velocity": 0, "duration": 138}, {"note": 65, "velocity": 117, "duration": 145}, {"note": 0, "velocity": 0, "duration": 95}, {"note": 65, "velocity": 107, "duration": 156}, {"note": 0, "velocity": 0, "duration": 84}, {"note": 69, "velocity": 114, "duration": 166}, {"note": 0, "velocity": 0, "duration": 74}, {"note": 67, "velocity": 91, "duration": 254}, {"note": 0, "velocity": 0, "duration": 226}, {"note": 67, "velocity": 114, "duration": 210}, {"note": 0, "velocity": 0, "duration": 750}, {"note": 60, "velocity": 108, "duration": 154}, {"note": 0, "velocity": 0, "duration": 86}, {"note": 69, "velocity": 114, "duration": 159}, {"note": 0, "velocity": 0, "duration": 81}, {"note": 67, "velocity": 116, "duration": 139}, {"note": 0, "velocity": 0, "duration": 101}, {"note": 65, "velocity": 107, "duration": 103}, {"note": 0, "velocity": 0, "duration": 137}, {"note": 67, "velocity": 116, "duration": 135}, {"note": 0, "velocity": 0, "duration": 105}, {"note": 69, "velocity": 117, "duration": 196}, {"note": 60, "velocity": 107, "duration": 182}, {"note": 67, "velocity": 113, "duration": 176}, {"note": 0, "velocity": 0, "duration": 64}, {"note": 69, "velocity": 116, "duration": 163}, {"note": 0, "velocity": 0, "duration": 317}, {"note": 60, "velocity": 107, "duration": 171}, {"note": 0, "velocity": 0, "duration": 69}, {"note": 67, "velocity": 116, "duration": 149}, {"note": 0, "velocity": 0, "duration": 91}, {"note": 69, "velocity": 119, "duration": 188}, {"note": 0, "velocity": 0, "duration": 292}, {"note": 67, "velocity": 113, "duration": 118}, {"note": 0, "velocity": 0, "duration": 122}, {"note": 67, "velocity": 113, "duration": 107}, {"note": 0, "velocity": 0, "duration": 133}, {"note": 69, "velocity": 110, "duration": 60}, {"note": 70, "velocity": 116, "duration": 143}, {"note": 0, "velocity": 0, "duration": 217}, {"note": 69, "velocity": 117, "duration": 204}, {"note": 67, "velocity": 114, "duration": 205}, {"note": 64, "velocity": 114, "duration": 157}, {"note": 0, "velocity": 0, "duration": 83}, {"note": 65, "velocity": 114, "duration": 136}, {"note": 0, "velocity": 0, "duration": 104}, {"note": 57, "velocity": 107, "duration": 141}, {"note": 0, "velocity": 0, "duration": 99}, {"note": 62, "velocity": 110, "duration": 150}, {"note": 0, "velocity": 0, "duration": 90}, {"note": 65, "velocity": 113, "duration": 131}, {"note": 0, "velocity": 0, "duration": 349}, {"note": 57, "velocity": 110, "duration": 143}, {"note": 0, "velocity": 0, "duration": 97}, {"note": 62, "velocity": 114, "duration": 123}, {"note": 0, "velocity": 0, "duration": 117}, {"note": 64, "velocity": 119, "duration": 176}, {"note": 0, "velocity": 0, "duration": 304}, {"note": 64, "velocity": 114, "duration": 131}, {"note": 0, "velocity": 0, "duration": 109}, {"note": 64, "velocity": 110, "duration": 110}, {"note": 0, "velocity": 0, "duration": 130}, {"note": 69, "velocity": 113, "duration": 60}, {"note": 72, "velocity": 116, "duration": 196}, {"note": 0, "velocity": 0, "duration": 164}, {"note": 69, "velocity": 114, "duration": 188}, {"note": 65, "velocity": 114, "duration": 237}, {"note": 64, "velocity": 108, "duration": 210}, {"note": 62, "velocity": 117, "duration": 181}, {"note": 70, "velocity": 116, "duration": 62}, {"note": 70, "velocity": 119, "duration": 181}, {"note": 0, "velocity": 0, "duration": 659}, {"note": 72, "velocity": 114, "duration": 272}, {"note": 70, "velocity": 119, "duration": 189}, {"note": 69, "velocity": 116, "duration": 107}, {"note": 0, "velocity": 0, "duration": 133}, {"note": 60, "velocity": 116, "duration": 147}, {"note": 0, "velocity": 0, "duration": 93}, {"note": 69, "velocity": 114, "duration": 70}, {"note": 69, "velocity": 117, "duration": 191}, {"note": 0, "velocity": 0, "duration": 649}, {"note": 70, "velocity": 119, "duration": 197}, {"note": 69, "velocity": 114, "duration": 189}, {"note": 65, "velocity": 113, "duration": 152}, {"note": 0, "velocity": 0, "duration": 88}, {"note": 59, "velocity": 110, "duration": 119}, {"note": 0, "velocity": 0, "duration": 121}, {"note": 67, "velocity": 114, "duration": 57}, {"note": 0, "velocity": 0, "duration": 63}, {"note": 67, "velocity": 114, "duration": 132}, {"note": 0, "velocity": 0, "duration": 708}, {"note": 67, "velocity": 119, "duration": 212}, {"note": 65, "velocity": 114, "duration": 134}, {"note": 0, "velocity": 0, "duration": 106}, {"note": 69, "velocity": 119, "duration": 160}, {"note": 0, "velocity": 0, "duration": 320}, {"note": 67, "velocity": 113, "duration": 161}, {"note": 0, "velocity": 0, "duration": 79}, {"note": 65, "velocity": 114, "duration": 129}, {"note": 0, "velocity": 0, "duration": 111}, {"note": 69, "velocity": 117, "duration": 171}, {"note": 0, "velocity": 0, "duration": 309}, {"note": 67, "velocity": 116, "duration": 245}, {"note": 0, "velocity": 0, "duration": 235}, {"note": 65, "velocity": 116, "duration": 248}, {"note": 0, "velocity": 0, "duration": 232}, {"note": 60, "velocity": 114, "duration": 141}, {"note": 0, "velocity": 0, "duration": 99}, {"note": 67, "velocity": 113, "duration": 167}, {"note": 0, "velocity": 0, "duration": 73}, {"note": 69, "velocity": 116, "duration": 181}, {"note": 0, "velocity": 0, "duration": 299}, {"note": 60, "velocity": 114, "duration": 124}, {"note": 0, "velocity": 0, "duration": 116}, {"note": 67, "velocity": 116, "duration": 138}, {"note": 0, "velocity": 0, "duration": 102}, {"note": 69, "velocity": 114, "duration": 163}, {"note": 0, "velocity": 0, "duration": 317}, {"note": 67, "velocity": 113, "duration": 105}, {"note": 0, "velocity": 0, "duration": 135}, {"note": 67, "velocity": 116, "duration": 128}, {"note": 0, "velocity": 0, "duration": 112}, {"note": 69, "velocity": 114, "duration": 114}, {"note": 0, "velocity": 0, "duration": 126}, {"note": 70, "velocity": 119, "duration": 126}, {"note": 0, "velocity": 0, "duration": 114}, {"note": 72, "velocity": 116, "duration": 177}, {"note": 0, "velocity": 0, "duration": 63}, {"note": 67, "velocity": 107, "duration": 191}, {"note": 65, "velocity": 114, "duration": 158}, {"note": 0, "velocity": 0, "duration": 82}, {"note": 65, "velocity": 114, "duration": 153}, {"note": 0, "velocity": 0, "duration": 87}, {"note": 57, "velocity": 102, "duration": 217}, {"note": 62, "velocity": 108, "duration": 160}, {"note": 0, "velocity": 0, "duration": 80}, {"note": 65, "velocity": 117, "duration": 191}, {"note": 0, "velocity": 0, "duration": 289}, {"note": 57, "velocity": 110, "duration": 158}, {"note": 0, "velocity": 0, "duration": 82}, {"note": 62, "velocity": 116, "duration": 137}, {"note": 0, "velocity": 0, "duration": 103}, {"note": 65, "velocity": 116, "duration": 129}, {"note": 0, "velocity": 0, "duration": 351}, {"note": 64, "velocity": 114, "duration": 146}, {"note": 0, "velocity": 0, "duration": 94}, {"note": 64, "velocity": 117, "duration": 148}, {"note": 0, "velocity": 0, "duration": 92}, {"note": 69, "velocity": 114, "duration": 84}, {"note": 72, "velocity": 113, "duration": 121}, {"note": 0, "velocity": 0, "duration": 239}, {"note": 69, "velocity": 114, "duration": 224}, {"note": 65, "velocity": 116, "duration": 245}, {"note": 64, "velocity": 113, "duration": 212}, {"note": 62, "velocity": 116, "duration": 138}, {"note": 0, "velocity": 0, "duration": 102}, {"note": 70, "velocity": 116, "duration": 60}, {"note": 70, "velocity": 113, "duration": 221}, {"note": 0, "velocity": 0, "duration": 619}, {"note": 72, "velocity": 110, "duration": 231}, {"note": 70, "velocity": 119, "duration": 196}, {"note": 69, "velocity": 113, "duration": 130}, {"note": 0, "velocity": 0, "duration": 110}, {"note": 60, "velocity": 110, "duration": 158}, {"note": 0, "velocity": 0, "duration": 82}, {"note": 69, "velocity": 110, "duration": 64}, {"note": 69, "velocity": 114, "duration": 129}, {"note": 0, "velocity": 0, "duration": 711}, {"note": 70, "velocity": 113, "duration": 203}, {"note": 69, "velocity": 114, "duration": 243}, {"note": 65, "velocity": 116, "duration": 154}, {"note": 0, "velocity": 0, "duration": 86}, {"note": 59, "velocity": 113, "duration": 140}, {"note": 0, "velocity": 0, "duration": 100}, {"note": 67, "velocity": 116, "duration": 123}, {"note": 67, "velocity": 116, "duration": 3}, {"note": 0, "velocity": 0, "duration": 1797}, {"note": 69, "velocity": 113, "duration": 207}, {"note": 65, "velocity": 114, "duration": 147}, {"note": 0, "velocity": 0, "duration": 93}, {"note": 65, "velocity": 114, "duration": 127}, {"note": 0, "velocity": 0, "duration": 113}, {"note": 69, "velocity": 117, "duration": 310}, {"note": 0, "velocity": 0, "duration": 170}, {"note": 67, "velocity": 116, "duration": 293}, {"note": 0, "velocity": 0, "duration": 187}, {"note": 65, "velocity": 119, "duration": 225}, {"note": 0, "velocity": 0, "duration": 7695}, {"note": 57, "velocity": 98, "duration": 118}, {"note": 0, "velocity": 0, "duration": 122}, {"note": 57, "velocity": 98, "duration": 166}, {"note": 0, "velocity": 0, "duration": 74}, {"note": 60, "velocity": 102, "duration": 89}, {"note": 60, "velocity": 100, "duration": 111}, {"note": 0, "velocity": 0, "duration": 249}, {"note": 65, "velocity": 107, "duration": 135}, {"note": 0, "velocity": 0, "duration": 105}, {"note": 65, "velocity": 102, "duration": 234}, {"note": 64, "velocity": 98, "duration": 129}, {"note": 0, "velocity": 0, "duration": 111}, {"note": 64, "velocity": 107, "duration": 179}, {"note": 0, "velocity": 0, "duration": 61}, {"note": 62, "velocity": 100, "duration": 137}, {"note": 0, "velocity": 0, "duration": 103}, {"note": 57, "velocity": 89, "duration": 159}, {"note": 0, "velocity": 0, "duration": 81}, {"note": 62, "velocity": 100, "duration": 256}, {"note": 0, "velocity": 0, "duration": 1184}, {"note": 62, "velocity": 96, "duration": 145}, {"note": 0, "velocity": 0, "duration": 95}, {"note": 62, "velocity": 100, "duration": 166}, {"note": 0, "velocity": 0, "duration": 74}, {"note": 64, "velocity": 104, "duration": 167}, {"note": 0, "velocity": 0, "duration": 73}, {"note": 64, "velocity": 102, "duration": 146}, {"note": 0, "velocity": 0, "duration": 94}, {"note": 69, "velocity": 113, "duration": 129}, {"note": 0, "velocity": 0, "duration": 111}, {"note": 69, "velocity": 113, "duration": 140}, {"note": 0, "velocity": 0, "duration": 100}, {"note": 64, "velocity": 110, "duration": 130}, {"note": 0, "velocity": 0, "duration": 110}, {"note": 64, "velocity": 107, "duration": 138}, {"note": 0, "velocity": 0, "duration": 102}, {"note": 60, "velocity": 100, "duration": 201}, {"note": 57, "velocity": 100, "duration": 167}, {"note": 0, "velocity": 0, "duration": 73}, {"note": 60, "velocity": 104, "duration": 217}, {"note": 0, "velocity": 0, "duration": 1223}, {"note": 57, "velocity": 96, "duration": 151}, {"note": 0, "velocity": 0, "duration": 89}, {"note": 57, "velocity": 104, "duration": 150}, {"note": 0, "velocity": 0, "duration": 90}, {"note": 60, "velocity": 98, "duration": 82}, {"note": 60, "velocity": 98, "duration": 118}, {"note": 0, "velocity": 0, "duration": 242}, {"note": 65, "velocity": 104, "duration": 133}, {"note": 0, "velocity": 0, "duration": 107}, {"note": 65, "velocity": 107, "duration": 131}, {"note": 0, "velocity": 0, "duration": 109}, {"note": 67, "velocity": 100, "duration": 126}, {"note": 0, "velocity": 0, "duration": 114}, {"note": 64, "velocity": 107, "duration": 162}, {"note": 0, "velocity": 0, "duration": 78}, {"note": 65, "velocity": 108, "duration": 135}, {"note": 0, "velocity": 0, "duration": 105}, {"note": 57, "velocity": 94, "duration": 127}, {"note": 0, "velocity": 0, "duration": 113}, {"note": 62, "velocity": 108, "duration": 228}, {"note": 0, "velocity": 0, "duration": 252}, {"note": 62, "velocity": 93, "duration": 128}, {"note": 0, "velocity": 0, "duration": 112}, {"note": 65, "velocity": 93, "duration": 128}, {"note": 0, "velocity": 0, "duration": 112}, {"note": 64, "velocity": 107, "duration": 173}, {"note": 0, "velocity": 0, "duration": 307}, {"note": 63, "velocity": 109, "duration": 195}, {"note": 64, "velocity": 107, "duration": 187}, {"note": 69, "velocity": 110, "duration": 266}, {"note": 0, "velocity": 0, "duration": 214}, {"note": 67, "velocity": 113, "duration": 326}, {"note": 0, "velocity": 0, "duration": 154}, {"note": 65, "velocity": 110, "duration": 302}, {"note": 0, "velocity": 0, "duration": 898}, {"note": 69, "velocity": 114, "duration": 168}, {"note": 0, "velocity": 0, "duration": 72}, {"note": 67, "velocity": 96, "duration": 142}, {"note": 65, "velocity": 98, "duration": 165}, {"note": 0, "velocity": 0, "duration": 195}, {"note": 64, "velocity": 108, "duration": 168}, {"note": 0, "velocity": 0, "duration": 72}, {"note": 62, "velocity": 102, "duration": 108}, {"note": 0, "velocity": 0, "duration": 132}, {"note": 62, "velocity": 96, "duration": 131}, {"note": 0, "velocity": 0, "duration": 109}, {"note": 62, "velocity": 96, "duration": 128}, {"note": 0, "velocity": 0, "duration": 112}, {"note": 62, "velocity": 102, "duration": 153}, {"note": 0, "velocity": 0, "duration": 87}, {"note": 62, "velocity": 96, "duration": 165}, {"note": 0, "velocity": 0, "duration": 75}, {"note": 69, "velocity": 110, "duration": 287}, {"note": 0, "velocity": 0, "duration": 193}, {"note": 67, "velocity": 114, "duration": 220}, {"note": 0, "velocity": 0, "duration": 980}, {"note": 67, "velocity": 114, "duration": 213}, {"note": 64, "velocity": 102, "duration": 56}, {"note": 0, "velocity": 0, "duration": 64}, {"note": 64, "velocity": 104, "duration": 174}, {"note": 0, "velocity": 0, "duration": 186}, {"note": 62, "velocity": 102, "duration": 246}, {"note": 60, "velocity": 98, "duration": 181}, {"note": 60, "velocity": 110, "duration": 92}, {"note": 0, "velocity": 0, "duration": 148}, {"note": 60, "velocity": 108, "duration": 163}, {"note": 0, "velocity": 0, "duration": 77}, {"note": 57, "velocity": 98, "duration": 148}, {"note": 0, "velocity": 0, "duration": 92}, {"note": 60, "velocity": 110, "duration": 125}, {"note": 0, "velocity": 0, "duration": 115}, {"note": 67, "velocity": 113, "duration": 265}, {"note": 0, "velocity": 0, "duration": 215}, {"note": 65, "velocity": 113, "duration": 196}, {"note": 0, "velocity": 0, "duration": 764}, {"note": 65, "velocity": 100, "duration": 158}, {"note": 0, "velocity": 0, "duration": 82}, {"note": 65, "velocity": 108, "duration": 209}, {"note": 60, "velocity": 100, "duration": 170}, {"note": 0, "velocity": 0, "duration": 70}, {"note": 60, "velocity": 104, "duration": 162}, {"note": 0, "velocity": 0, "duration": 78}, {"note": 53, "velocity": 104, "duration": 160}, {"note": 0, "velocity": 0, "duration": 80}, {"note": 57, "velocity": 102, "duration": 93}, {"note": 0, "velocity": 0, "duration": 147}, {"note": 55, "velocity": 91, "duration": 163}, {"note": 0, "velocity": 0, "duration": 77}, {"note": 55, "velocity": 102, "duration": 123}, {"note": 0, "velocity": 0, "duration": 117}, {"note": 62, "velocity": 108, "duration": 246}, {"note": 0, "velocity": 0, "duration": 714}, {"note": 62, "velocity": 108, "duration": 328}, {"note": 0, "velocity": 0, "duration": 152}, {"note": 62, "velocity": 108, "duration": 93}, {"note": 0, "velocity": 0, "duration": 147}, {"note": 62, "velocity": 110, "duration": 103}, {"note": 0, "velocity": 0, "duration": 137}, {"note": 62, "velocity": 110, "duration": 111}, {"note": 0, "velocity": 0, "duration": 129}, {"note": 65, "velocity": 116, "duration": 114}, {"note": 0, "velocity": 0, "duration": 126}, {"note": 62, "velocity": 113, "duration": 155}, {"note": 0, "velocity": 0, "duration": 85}, {"note": 65, "velocity": 116, "duration": 170}, {"note": 0, "velocity": 0, "duration": 70}, {"note": 62, "velocity": 113, "duration": 133}, {"note": 0, "velocity": 0, "duration": 107}, {"note": 65, "velocity": 113, "duration": 111}, {"note": 0, "velocity": 0, "duration": 129}, {"note": 65, "velocity": 114, "duration": 102}, {"note": 0, "velocity": 0, "duration": 138}, {"note": 65, "velocity": 117, "duration": 145}, {"note": 0, "velocity": 0, "duration": 95}, {"note": 65, "velocity": 107, "duration": 156}, {"note": 0, "velocity": 0, "duration": 84}, {"note": 69, "velocity": 114, "duration": 166}, {"note": 0, "velocity": 0, "duration": 74}, {"note": 67, "velocity": 91, "duration": 254}, {"note": 0, "velocity": 0, "duration": 226}, {"note": 67, "velocity": 114, "duration": 210}, {"note": 0, "velocity": 0, "duration": 750}, {"note": 60, "velocity": 108, "duration": 154}, {"note": 0, "velocity": 0, "duration": 86}, {"note": 69, "velocity": 114, "duration": 159}, {"note": 0, "velocity": 0, "duration": 81}, {"note": 67, "velocity": 116, "duration": 139}, {"note": 0, "velocity": 0, "duration": 101}, {"note": 65, "velocity": 107, "duration": 103}, {"note": 0, "velocity": 0, "duration": 137}, {"note": 67, "velocity": 116, "duration": 135}, {"note": 0, "velocity": 0, "duration": 105}, {"note": 69, "velocity": 117, "duration": 196}, {"note": 60, "velocity": 107, "duration": 182}, {"note": 67, "velocity": 113, "duration": 176}, {"note": 0, "velocity": 0, "duration": 64}, {"note": 69, "velocity": 116, "duration": 163}, {"note": 0, "velocity": 0, "duration": 317}, {"note": 60, "velocity": 107, "duration": 171}, {"note": 0, "velocity": 0, "duration": 69}, {"note": 67, "velocity": 116, "duration": 149}, {"note": 0, "velocity": 0, "duration": 91}, {"note": 69, "velocity": 119, "duration": 188}, {"note": 0, "velocity": 0, "duration": 292}, {"note": 67, "velocity": 113, "duration": 118}, {"note": 0, "velocity": 0, "duration": 122}, {"note": 67, "velocity": 113, "duration": 107}, {"note": 0, "velocity": 0, "duration": 133}, {"note": 69, "velocity": 110, "duration": 60}, {"note": 70, "velocity": 116, "duration": 143}, {"note": 0, "velocity": 0, "duration": 217}, {"note": 69, "velocity": 117, "duration": 204}, {"note": 67, "velocity": 114, "duration": 205}, {"note": 64, "velocity": 114, "duration": 157}, {"note": 0, "velocity": 0, "duration": 83}, {"note": 65, "velocity": 114, "duration": 136}, {"note": 0, "velocity": 0, "duration": 104}, {"note": 57, "velocity": 107, "duration": 141}, {"note": 0, "velocity": 0, "duration": 99}, {"note": 62, "velocity": 110, "duration": 150}, {"note": 0, "velocity": 0, "duration": 90}, {"note": 65, "velocity": 113, "duration": 131}, {"note": 0, "velocity": 0, "duration": 349}, {"note": 57, "velocity": 110, "duration": 143}, {"note": 0, "velocity": 0, "duration": 97}, {"note": 62, "velocity": 114, "duration": 123}, {"note": 0, "velocity": 0, "duration": 117}, {"note": 64, "velocity": 119, "duration": 176}, {"note": 0, "velocity": 0, "duration": 304}, {"note": 64, "velocity": 114, "duration": 131}, {"note": 0, "velocity": 0, "duration": 109}, {"note": 64, "velocity": 110, "duration": 110}, {"note": 0, "velocity": 0, "duration": 130}, {"note": 69, "velocity": 113, "duration": 60}, {"note": 72, "velocity": 116, "duration": 196}, {"note": 0, "velocity": 0, "duration": 164}, {"note": 69, "velocity": 114, "duration": 188}, {"note": 65, "velocity": 114, "duration": 237}, {"note": 64, "velocity": 108, "duration": 210}, {"note": 62, "velocity": 117, "duration": 181}, {"note": 70, "velocity": 116, "duration": 62}, {"note": 70, "velocity": 119, "duration": 181}, {"note": 0, "velocity": 0, "duration": 659}, {"note": 72, "velocity": 114, "duration": 272}, {"note": 70, "velocity": 119, "duration": 189}, {"note": 69, "velocity": 116, "duration": 107}, {"note": 0, "velocity": 0, "duration": 133}, {"note": 60, "velocity": 116, "duration": 147}, {"note": 0, "velocity": 0, "duration": 93}, {"note": 69, "velocity": 114, "duration": 70}, {"note": 69, "velocity": 117, "duration": 191}, {"note": 0, "velocity": 0, "duration": 649}, {"note": 70, "velocity": 119, "duration": 197}, {"note": 69, "velocity": 114, "duration": 189}, {"note": 65, "velocity": 113, "duration": 152}, {"note": 0, "velocity": 0, "duration": 88}, {"note": 59, "velocity": 110, "duration": 119}, {"note": 0, "velocity": 0, "duration": 121}, {"note": 67, "velocity": 114, "duration": 57}, {"note": 0, "velocity": 0, "duration": 63}, {"note": 67, "velocity": 114, "duration": 132}, {"note": 0, "velocity": 0, "duration": 708}, {"note": 67, "velocity": 119, "duration": 212}, {"note": 65, "velocity": 114, "duration": 134}, {"note": 0, "velocity": 0, "duration": 106}, {"note": 69, "velocity": 119, "duration": 160}, {"note": 0, "velocity": 0, "duration": 320}, {"note": 67, "velocity": 113, "duration": 161}, {"note": 0, "velocity": 0, "duration": 79}, {"note": 65, "velocity": 114, "duration": 129}, {"note": 0, "velocity": 0, "duration": 111}, {"note": 69, "velocity": 117, "duration": 171}, {"note": 0, "velocity": 0, "duration": 309}, {"note": 67, "velocity": 116, "duration": 245}, {"note": 0, "velocity": 0, "duration": 235}, {"note": 65, "velocity": 116, "duration": 248}, {"note": 69, "velocity": 116, "duration": 248}, {"note": 60, "velocity": 114, "duration": 141}, {"note": 0, "velocity": 0, "duration": 99}, {"note": 67, "velocity": 113, "duration": 167}, {"note": 0, "velocity": 0, "duration": 73}, {"note": 69, "velocity": 116, "duration": 181}, {"note": 0, "velocity": 0, "duration": 299}, {"note": 60, "velocity": 114, "duration": 124}, {"note": 0, "velocity": 0, "duration": 116}, {"note": 67, "velocity": 116, "duration": 138}, {"note": 0, "velocity": 0, "duration": 102}, {"note": 69, "velocity": 114, "duration": 163}, {"note": 0, "velocity": 0, "duration": 317}, {"note": 67, "velocity": 113, "duration": 105}, {"note": 0, "velocity": 0, "duration": 135}, {"note": 67, "velocity": 116, "duration": 128}, {"note": 0, "velocity": 0, "duration": 112}, {"note": 69, "velocity": 114, "duration": 114}, {"note": 0, "velocity": 0, "duration": 126}, {"note": 70, "velocity": 119, "duration": 126}, {"note": 0, "velocity": 0, "duration": 114}, {"note": 72, "velocity": 116, "duration": 177}, {"note": 0, "velocity": 0, "duration": 63}, {"note": 67, "velocity": 107, "duration": 191}, {"note": 65, "velocity": 114, "duration": 158}, {"note": 0, "velocity": 0, "duration": 82}, {"note": 65, "velocity": 114, "duration": 153}, {"note": 0, "velocity": 0, "duration": 87}, {"note": 57, "velocity": 102, "duration": 217}, {"note": 62, "velocity": 108, "duration": 160}, {"note": 0, "velocity": 0, "duration": 80}, {"note": 65, "velocity": 117, "duration": 191}, {"note": 0, "velocity": 0, "duration": 289}, {"note": 57, "velocity": 110, "duration": 158}, {"note": 0, "velocity": 0, "duration": 82}, {"note": 65, "velocity": 116, "duration": 137}, {"note": 0, "velocity": 0, "duration": 103}, {"note": 64, "velocity": 116, "duration": 129}, {"note": 0, "velocity": 0, "duration": 351}, {"note": 64, "velocity": 114, "duration": 146}, {"note": 0, "velocity": 0, "duration": 94}, {"note": 64, "velocity": 117, "duration": 148}, {"note": 0, "velocity": 0, "duration": 92}, {"note": 69, "velocity": 114, "duration": 84}, {"note": 72, "velocity": 113, "duration": 121}, {"note": 0, "velocity": 0, "duration": 239}, {"note": 69, "velocity": 114, "duration": 224}, {"note": 65, "velocity": 116, "duration": 245}, {"note": 64, "velocity": 113, "duration": 212}, {"note": 0, "velocity": 0, "duration": 148}, {"note": 62, "velocity": 116, "duration": 138}, {"note": 0, "velocity": 0, "duration": 102}, {"note": 70, "velocity": 116, "duration": 60}, {"note": 70, "velocity": 113, "duration": 221}, {"note": 0, "velocity": 0, "duration": 619}, {"note": 72, "velocity": 110, "duration": 231}, {"note": 70, "velocity": 119, "duration": 196}, {"note": 69, "velocity": 113, "duration": 130}, {"note": 0, "velocity": 0, "duration": 110}, {"note": 60, "velocity": 110, "duration": 158}, {"note": 0, "velocity": 0, "duration": 82}, {"note": 69, "velocity": 110, "duration": 64}, {"note": 69, "velocity": 114, "duration": 129}, {"note": 0, "velocity": 0, "duration": 711}, {"note": 70, "velocity": 113, "duration": 203}, {"note": 69, "velocity": 114, "duration": 243}, {"note": 65, "velocity": 116, "duration": 154}, {"note": 0, "velocity": 0, "duration": 86}, {"note": 59, "velocity": 113, "duration": 140}, {"note": 0, "velocity": 0, "duration": 100}, {"note": 67, "velocity": 116, "duration": 57}, {"note": 0, "velocity": 0, "duration": 63}, {"note": 67, "velocity": 116, "duration": 156}, {"note": 0, "velocity": 0, "duration": 924}, {"note": 69, "velocity": 113, "duration": 207}, {"note": 65, "velocity": 113, "duration": 207}, {"note": 0, "velocity": 0, "duration": 2193}, {"note": 69, "velocity": 108, "duration": 155}, {"note": 0, "velocity": 0, "duration": 85}, {"note": 65, "velocity": 104, "duration": 152}, {"note": 0, "velocity": 0, "duration": 88}, {"note": 65, "velocity": 104, "duration": 185}, {"note": 69, "velocity": 116, "duration": 223}, {"note": 0, "velocity": 0, "duration": 257}, {"note": 67, "velocity": 113, "duration": 315}, {"note": 0, "velocity": 0, "duration": 165}, {"note": 65, "velocity": 104, "duration": 313}]]