[[{"note": 72, "velocity": 114, "duration": 296}, {"note": 0, "velocity": 0, "duration": 184}, {"note": 72, "velocity": 116, "duration": 244}, {"note": 0, "velocity": 0, "duration": 236}, {"note": 79, "velocity": 116, "duration": 252}, {"note": 0, "velocity": 0, "duration": 228}, {"note": 79, "velocity": 114, "duration": 284}, {"note": 0, "velocity": 0, "duration": 196}, {"note": 81, "velocity": 116, "duration": 249}, {"note": 0, "velocity": 0, "duration": 231}, {"note": 81, "velocity": 119, "duration": 261}, {"note": 0, "velocity": 0, "duration": 219}, {"note": 79, "velocity": 119, "duration": 447}, {"note": 0, "velocity": 0, "duration": 513}, {"note": 77, "velocity": 116, "duration": 277}, {"note": 0, "velocity": 0, "duration": 203}, {"note": 77, "velocity": 114, "duration": 284}, {"note": 0, "velocity": 0, "duration": 196}, {"note": 76, "velocity": 116, "duration": 227}, {"note": 0, "velocity": 0, "duration": 253}, {"note": 76, "velocity": 113, "duration": 309}, {"note": 0, "velocity": 0, "duration": 171}, {"note": 74, "velocity": 114, "duration": 223}, {"note": 0, "velocity": 0, "duration": 257}, {"note": 74, "velocity": 116, "duration": 332}, {"note": 0, "velocity": 0, "duration": 148}, {"note": 72, "velocity": 114, "duration": 463}, {"note": 0, "velocity": 0, "duration": 497}, {"note": 79, "velocity": 116, "duration": 248}, {"note": 0, "velocity": 0, "duration": 232}, {"note": 79, "velocity": 114, "duration": 274}, {"note": 0, "velocity": 0, "duration": 206}, {"note": 77, "velocity": 114, "duration": 240}, {"note": 0, "velocity": 0, "duration": 240}, {"note": 77, "velocity": 116, "duration": 288}, {"note": 0, "velocity": 0, "duration": 192}, {"note": 76, "velocity": 116, "duration": 233}, {"note": 0, "velocity": 0, "duration": 247}, {"note": 76, "velocity": 114, "duration": 263}, {"note": 0, "velocity": 0, "duration": 217}, {"note": 74, "velocity": 116, "duration": 497}, {"note": 0, "velocity": 0, "duration": 463}, {"note": 79, "velocity": 117, "duration": 216}, {"note": 0, "velocity": 0, "duration": 264}, {"note": 79, "velocity": 117, "duration": 264}, {"note": 0, "velocity": 0, "duration": 216}, {"note": 77, "velocity": 114, "duration": 270}, {"note": 0, "velocity": 0, "duration": 210}, {"note": 77, "velocity": 114, "duration": 288}, {"note": 0, "velocity": 0, "duration": 192}, {"note": 76, "velocity": 116, "duration": 262}, {"note": 0, "velocity": 0, "duration": 218}, {"note": 76, "velocity": 116, "duration": 332}, {"note": 0, "velocity": 0, "duration": 148}, {"note": 74, "velocity": 117, "duration": 701}, {"note": 0, "velocity": 0, "duration": 259}, {"note": 72, "velocity": 102, "duration": 291}, {"note": 0, "velocity": 0, "duration": 189}, {"note": 72, "velocity": 114, "duration": 294}, {"note": 0, "velocity": 0, "duration": 186}, {"note": 79, "velocity": 117, "duration": 231}, {"note": 0, "velocity": 0, "duration": 249}, {"note": 79, "velocity": 114, "duration": 204}, {"note": 0, "velocity": 0, "duration": 276}, {"note": 81, "velocity": 117, "duration": 264}, {"note": 0, "velocity": 0, "duration": 216}, {"note": 81, "velocity": 110, "duration": 267}, {"note": 0, "velocity": 0, "duration": 213}, {"note": 79, "velocity": 117, "duration": 506}, {"note": 0, "velocity": 0, "duration": 454}, {"note": 77, "velocity": 116, "duration": 227}, {"note": 0, "velocity": 0, "duration": 253}, {"note": 77, "velocity": 114, "duration": 258}, {"note": 0, "velocity": 0, "duration": 222}, {"note": 76, "velocity": 116, "duration": 233}, {"note": 0, "velocity": 0, "duration": 247}, {"note": 76, "velocity": 116, "duration": 244}, {"note": 0, "velocity": 0, "duration": 236}, {"note": 74, "velocity": 116, "duration": 247}, {"note": 0, "velocity": 0, "duration": 233}, {"note": 74, "velocity": 114, "duration": 268}, {"note": 0, "velocity": 0, "duration": 212}, {"note": 72, "velocity": 119, "duration": 470}, {"note": 0, "velocity": 0, "duration": 490}, {"note": 79, "velocity": 113, "duration": 251}, {"note": 0, "velocity": 0, "duration": 229}, {"note": 79, "velocity": 116, "duration": 276}, {"note": 0, "velocity": 0, "duration": 204}, {"note": 77, "velocity": 116, "duration": 270}, {"note": 0, "velocity": 0, "duration": 210}, {"note": 77, "velocity": 116, "duration": 275}, {"note": 0, "velocity": 0, "duration": 205}, {"note": 76, "velocity": 110, "duration": 249}, {"note": 0, "velocity": 0, "duration": 231}, {"note": 76, "velocity": 114, "duration": 295}, {"note": 0, "velocity": 0, "duration": 185}, {"note": 74, "velocity": 116, "duration": 435}, {"note": 0, "velocity": 0, "duration": 525}, {"note": 79, "velocity": 113, "duration": 249}, {"note": 0, "velocity": 0, "duration": 231}, {"note": 79, "velocity": 108, "duration": 301}, {"note": 0, "velocity": 0, "duration": 179}, {"note": 77, "velocity": 117, "duration": 246}, {"note": 0, "velocity": 0, "duration": 234}, {"note": 77, "velocity": 116, "duration": 236}, {"note": 0, "velocity": 0, "duration": 244}, {"note": 76, "velocity": 114, "duration": 242}, {"note": 0, "velocity": 0, "duration": 238}, {"note": 76, "velocity": 114, "duration": 249}, {"note": 0, "velocity": 0, "duration": 231}, {"note": 74, "velocity": 117, "duration": 522}, {"note": 0, "velocity": 0, "duration": 488}, {"note": 72, "velocity": 116, "duration": 238}, {"note": 0, "velocity": 0, "duration": 242}, {"note": 72, "velocity": 114, "duration": 220}, {"note": 0, "velocity": 0, "duration": 260}, {"note": 79, "velocity": 116, "duration": 249}, {"note": 0, "velocity": 0, "duration": 231}, {"note": 79, "velocity": 116, "duration": 233}, {"note": 0, "velocity": 0, "duration": 247}, {"note": 81, "velocity": 116, "duration": 212}, {"note": 0, "velocity": 0, "duration": 268}, {"note": 81, "velocity": 114, "duration": 230}, {"note": 0, "velocity": 0, "duration": 250}, {"note": 79, "velocity": 120, "duration": 456}, {"note": 0, "velocity": 0, "duration": 504}, {"note": 77, "velocity": 116, "duration": 234}, {"note": 0, "velocity": 0, "duration": 246}, {"note": 77, "velocity": 116, "duration": 275}, {"note": 0, "velocity": 0, "duration": 205}, {"note": 76, "velocity": 117, "duration": 244}, {"note": 0, "velocity": 0, "duration": 236}, {"note": 76, "velocity": 114, "duration": 243}, {"note": 0, "velocity": 0, "duration": 237}, {"note": 74, "velocity": 116, "duration": 269}, {"note": 0, "velocity": 0, "duration": 211}, {"note": 74, "velocity": 117, "duration": 304}, {"note": 0, "velocity": 0, "duration": 176}, {"note": 72, "velocity": 117, "duration": 498}]]