[[{"note": 73, "velocity": 116, "duration": 239}, {"note": 73, "velocity": 108, "duration": 239}, {"note": 73, "velocity": 114, "duration": 240}, {"note": 77, "velocity": 114, "duration": 240}, {"note": 80, "velocity": 116, "duration": 239}, {"note": 80, "velocity": 114, "duration": 239}, {"note": 80, "velocity": 117, "duration": 239}, {"note": 80, "velocity": 117, "duration": 240}, {"note": 82, "velocity": 117, "duration": 239}, {"note": 82, "velocity": 117, "duration": 239}, {"note": 82, "velocity": 117, "duration": 240}, {"note": 85, "velocity": 114, "duration": 240}, {"note": 80, "velocity": 119, "duration": 960}, {"note": 78, "velocity": 114, "duration": 239}, {"note": 78, "velocity": 113, "duration": 239}, {"note": 78, "velocity": 113, "duration": 240}, {"note": 82, "velocity": 113, "duration": 240}, {"note": 77, "velocity": 110, "duration": 239}, {"note": 77, "velocity": 114, "duration": 239}, {"note": 77, "velocity": 116, "duration": 239}, {"note": 77, "velocity": 110, "duration": 240}, {"note": 75, "velocity": 107, "duration": 239}, {"note": 75, "velocity": 108, "duration": 239}, {"note": 75, "velocity": 110, "duration": 239}, {"note": 75, "velocity": 113, "duration": 240}, {"note": 80, "velocity": 108, "duration": 720}, {"note": 73, "velocity": 108, "duration": 239}, {"note": 73, "velocity": 102, "duration": 239}, {"note": 73, "velocity": 100, "duration": 239}, {"note": 73, "velocity": 110, "duration": 240}, {"note": 77, "velocity": 114, "duration": 240}, {"note": 80, "velocity": 113, "duration": 239}, {"note": 80, "velocity": 107, "duration": 239}, {"note": 80, "velocity": 104, "duration": 239}, {"note": 80, "velocity": 102, "duration": 240}, {"note": 82, "velocity": 110, "duration": 239}, {"note": 82, "velocity": 116, "duration": 239}, {"note": 82, "velocity": 113, "duration": 240}, {"note": 85, "velocity": 113, "duration": 240}, {"note": 80, "velocity": 114, "duration": 960}, {"note": 78, "velocity": 113, "duration": 239}, {"note": 78, "velocity": 110, "duration": 239}, {"note": 78, "velocity": 102, "duration": 240}, {"note": 82, "velocity": 104, "duration": 240}, {"note": 77, "velocity": 113, "duration": 119}, {"note": 77, "velocity": 91, "duration": 119}, {"note": 77, "velocity": 94, "duration": 119}, {"note": 77, "velocity": 93, "duration": 119}, {"note": 77, "velocity": 119, "duration": 239}, {"note": 77, "velocity": 108, "duration": 240}, {"note": 75, "velocity": 113, "duration": 239}, {"note": 75, "velocity": 114, "duration": 239}, {"note": 75, "velocity": 116, "duration": 240}, {"note": 77, "velocity": 113, "duration": 240}, {"note": 73, "velocity": 117, "duration": 463}, {"note": 0, "velocity": 0, "duration": 8177}, {"note": 73, "velocity": 116, "duration": 239}, {"note": 73, "velocity": 108, "duration": 239}, {"note": 73, "velocity": 114, "duration": 240}, {"note": 77, "velocity": 114, "duration": 240}, {"note": 80, "velocity": 116, "duration": 239}, {"note": 80, "velocity": 114, "duration": 239}, {"note": 80, "velocity": 117, "duration": 239}, {"note": 80, "velocity": 117, "duration": 240}, {"note": 82, "velocity": 117, "duration": 239}, {"note": 82, "velocity": 117, "duration": 239}, {"note": 82, "velocity": 117, "duration": 240}, {"note": 85, "velocity": 114, "duration": 240}, {"note": 80, "velocity": 119, "duration": 960}, {"note": 78, "velocity": 114, "duration": 239}, {"note": 78, "velocity": 113, "duration": 239}, {"note": 78, "velocity": 113, "duration": 240}, {"note": 82, "velocity": 113, "duration": 240}, {"note": 77, "velocity": 110, "duration": 239}, {"note": 77, "velocity": 114, "duration": 239}, {"note": 77, "velocity": 116, "duration": 239}, {"note": 77, "velocity": 110, "duration": 240}, {"note": 75, "velocity": 107, "duration": 239}, {"note": 75, "velocity": 108, "duration": 239}, {"note": 75, "velocity": 110, "duration": 239}, {"note": 75, "velocity": 113, "duration": 240}, {"note": 80, "velocity": 108, "duration": 720}, {"note": 73, "velocity": 108, "duration": 239}, {"note": 73, "velocity": 102, "duration": 239}, {"note": 73, "velocity": 100, "duration": 239}, {"note": 73, "velocity": 110, "duration": 240}, {"note": 77, "velocity": 114, "duration": 240}, {"note": 80, "velocity": 113, "duration": 239}, {"note": 80, "velocity": 107, "duration": 239}, {"note": 80, "velocity": 104, "duration": 239}, {"note": 80, "velocity": 102, "duration": 240}, {"note": 82, "velocity": 110, "duration": 239}, {"note": 82, "velocity": 116, "duration": 239}, {"note": 82, "velocity": 113, "duration": 240}, {"note": 85, "velocity": 113, "duration": 240}, {"note": 80, "velocity": 114, "duration": 960}, {"note": 78, "velocity": 113, "duration": 239}, {"note": 78, "velocity": 110, "duration": 239}, {"note": 78, "velocity": 102, "duration": 240}, {"note": 82, "velocity": 104, "duration": 240}, {"note": 77, "velocity": 113, "duration": 119}, {"note": 77, "velocity": 91, "duration": 119}, {"note": 77, "velocity": 94, "duration": 119}, {"note": 77, "velocity": 93, "duration": 119}, {"note": 77, "velocity": 119, "duration": 239}, {"note": 77, "velocity": 108, "duration": 240}, {"note": 75, "velocity": 113, "duration": 239}, {"note": 75, "velocity": 114, "duration": 239}, {"note": 75, "velocity": 116, "duration": 240}, {"note": 77, "velocity": 113, "duration": 240}, {"note": 73, "velocity": 117, "duration": 463}, {"note": 0, "velocity": 0, "duration": 15857}, {"note": 73, "velocity": 116, "duration": 239}, {"note": 73, "velocity": 108, "duration": 239}, {"note": 73, "velocity": 114, "duration": 240}, {"note": 77, "velocity": 114, "duration": 240}, {"note": 80, "velocity": 116, "duration": 239}, {"note": 80, "velocity": 114, "duration": 239}, {"note": 80, "velocity": 117, "duration": 239}, {"note": 80, "velocity": 117, "duration": 240}, {"note": 82, "velocity": 117, "duration": 239}, {"note": 82, "velocity": 117, "duration": 239}, {"note": 82, "velocity": 117, "duration": 240}, {"note": 85, "velocity": 114, "duration": 240}, {"note": 80, "velocity": 119, "duration": 960}, {"note": 78, "velocity": 114, "duration": 239}, {"note": 78, "velocity": 113, "duration": 239}, {"note": 78, "velocity": 113, "duration": 240}, {"note": 82, "velocity": 113, "duration": 240}, {"note": 77, "velocity": 110, "duration": 239}, {"note": 77, "velocity": 114, "duration": 239}, {"note": 77, "velocity": 116, "duration": 239}, {"note": 77, "velocity": 110, "duration": 240}, {"note": 75, "velocity": 107, "duration": 239}, {"note": 75, "velocity": 108, "duration": 239}, {"note": 75, "velocity": 110, "duration": 239}, {"note": 75, "velocity": 113, "duration": 240}, {"note": 80, "velocity": 108, "duration": 720}, {"note": 73, "velocity": 108, "duration": 239}, {"note": 73, "velocity": 102, "duration": 239}, {"note": 73, "velocity": 100, "duration": 239}, {"note": 73, "velocity": 110, "duration": 240}, {"note": 77, "velocity": 114, "duration": 240}, {"note": 80, "velocity": 113, "duration": 239}, {"note": 80, "velocity": 107, "duration": 239}, {"note": 80, "velocity": 104, "duration": 239}, {"note": 80, "velocity": 102, "duration": 240}, {"note": 82, "velocity": 110, "duration": 239}, {"note": 82, "velocity": 116, "duration": 239}, {"note": 82, "velocity": 113, "duration": 240}, {"note": 85, "velocity": 113, "duration": 240}, {"note": 80, "velocity": 114, "duration": 960}, {"note": 78, "velocity": 113, "duration": 239}, {"note": 78, "velocity": 110, "duration": 239}, {"note": 78, "velocity": 102, "duration": 240}, {"note": 82, "velocity": 104, "duration": 240}, {"note": 77, "velocity": 113, "duration": 119}, {"note": 77, "velocity": 91, "duration": 119}, {"note": 77, "velocity": 94, "duration": 119}, {"note": 77, "velocity": 93, "duration": 119}, {"note": 77, "velocity": 119, "duration": 239}, {"note": 77, "velocity": 108, "duration": 240}, {"note": 75, "velocity": 113, "duration": 239}, {"note": 75, "velocity": 114, "duration": 239}, {"note": 75, "velocity": 116, "duration": 240}, {"note": 77, "velocity": 113, "duration": 240}, {"note": 73, "velocity": 117, "duration": 463}, {"note": 0, "velocity": 0, "duration": 8177}, {"note": 73, "velocity": 116, "duration": 239}, {"note": 73, "velocity": 108, "duration": 239}, {"note": 73, "velocity": 114, "duration": 240}, {"note": 77, "velocity": 114, "duration": 240}, {"note": 80, "velocity": 116, "duration": 239}, {"note": 80, "velocity": 114, "duration": 239}, {"note": 80, "velocity": 117, "duration": 239}, {"note": 80, "velocity": 117, "duration": 240}, {"note": 82, "velocity": 117, "duration": 239}, {"note": 82, "velocity": 117, "duration": 239}, {"note": 82, "velocity": 117, "duration": 240}, {"note": 85, "velocity": 114, "duration": 240}, {"note": 80, "velocity": 119, "duration": 960}, {"note": 78, "velocity": 114, "duration": 239}, {"note": 78, "velocity": 113, "duration": 239}, {"note": 78, "velocity": 113, "duration": 240}, {"note": 82, "velocity": 113, "duration": 240}, {"note": 77, "velocity": 110, "duration": 239}, {"note": 77, "velocity": 114, "duration": 239}, {"note": 77, "velocity": 116, "duration": 239}, {"note": 77, "velocity": 110, "duration": 240}, {"note": 75, "velocity": 107, "duration": 239}, {"note": 75, "velocity": 108, "duration": 239}, {"note": 75, "velocity": 110, "duration": 239}, {"note": 75, "velocity": 113, "duration": 240}, {"note": 80, "velocity": 108, "duration": 720}, {"note": 73, "velocity": 108, "duration": 239}, {"note": 73, "velocity": 102, "duration": 239}, {"note": 73, "velocity": 100, "duration": 239}, {"note": 73, "velocity": 110, "duration": 240}, {"note": 77, "velocity": 114, "duration": 240}, {"note": 80, "velocity": 113, "duration": 239}, {"note": 80, "velocity": 107, "duration": 239}, {"note": 80, "velocity": 104, "duration": 239}, {"note": 80, "velocity": 102, "duration": 240}, {"note": 82, "velocity": 110, "duration": 239}, {"note": 82, "velocity": 116, "duration": 239}, {"note": 82, "velocity": 113, "duration": 240}, {"note": 85, "velocity": 113, "duration": 240}, {"note": 80, "velocity": 114, "duration": 960}, {"note": 78, "velocity": 113, "duration": 239}, {"note": 78, "velocity": 110, "duration": 239}, {"note": 78, "velocity": 102, "duration": 240}, {"note": 82, "velocity": 104, "duration": 240}, {"note": 77, "velocity": 113, "duration": 119}, {"note": 77, "velocity": 91, "duration": 119}, {"note": 77, "velocity": 94, "duration": 119}, {"note": 77, "velocity": 93, "duration": 119}, {"note": 77, "velocity": 119, "duration": 239}, {"note": 77, "velocity": 108, "duration": 240}, {"note": 75, "velocity": 113, "duration": 239}, {"note": 75, "velocity": 114, "duration": 239}, {"note": 75, "velocity": 116, "duration": 240}, {"note": 77, "velocity": 113, "duration": 240}, {"note": 73, "velocity": 117, "duration": 463}]]