[[{"note": 62, "velocity": 74, "duration": 249}, {"note": 65, "velocity": 77, "duration": 254}, {"note": 70, "velocity": 75, "duration": 279}, {"note": 67, "velocity": 75, "duration": 252}, {"note": 65, "velocity": 77, "duration": 792}, {"note": 0, "velocity": 0, "duration": 168}, {"note": 62, "velocity": 75, "duration": 242}, {"note": 65, "velocity": 75, "duration": 259}, {"note": 67, "velocity": 75, "duration": 248}, {"note": 70, "velocity": 76, "duration": 245}, {"note": 65, "velocity": 75, "duration": 833}, {"note": 0, "velocity": 0, "duration": 127}, {"note": 70, "velocity": 74, "duration": 661}, {"note": 74, "velocity": 75, "duration": 183}, {"note": 72, "velocity": 75, "duration": 385}, {"note": 0, "velocity": 0, "duration": 95}, {"note": 70, "velocity": 74, "duration": 408}, {"note": 0, "velocity": 0, "duration": 72}, {"note": 72, "velocity": 72, "duration": 215}, {"note": 70, "velocity": 75, "duration": 208}, {"note": 67, "velocity": 73, "duration": 264}, {"note": 70, "velocity": 76, "duration": 228}, {"note": 65, "velocity": 72, "duration": 813}, {"note": 0, "velocity": 0, "duration": 147}, {"note": 62, "velocity": 76, "duration": 619}, {"note": 0, "velocity": 0, "duration": 101}, {"note": 65, "velocity": 72, "duration": 181}, {"note": 67, "velocity": 70, "duration": 444}, {"note": 65, "velocity": 73, "duration": 173}, {"note": 0, "velocity": 0, "duration": 67}, {"note": 67, "velocity": 74, "duration": 182}, {"note": 70, "velocity": 75, "duration": 393}, {"note": 0, "velocity": 0, "duration": 87}, {"note": 72, "velocity": 68, "duration": 228}, {"note": 65, "velocity": 76, "duration": 201}, {"note": 67, "velocity": 69, "duration": 755}, {"note": 0, "velocity": 0, "duration": 205}, {"note": 62, "velocity": 76, "duration": 219}, {"note": 60, "velocity": 70, "duration": 244}, {"note": 58, "velocity": 72, "duration": 486}, {"note": 60, "velocity": 70, "duration": 802}, {"note": 0, "velocity": 0, "duration": 158}, {"note": 60, "velocity": 75, "duration": 405}, {"note": 0, "velocity": 0, "duration": 75}, {"note": 60, "velocity": 73, "duration": 202}, {"note": 62, "velocity": 70, "duration": 185}, {"note": 65, "velocity": 74, "duration": 401}, {"note": 0, "velocity": 0, "duration": 79}, {"note": 65, "velocity": 70, "duration": 353}, {"note": 0, "velocity": 0, "duration": 127}, {"note": 70, "velocity": 76, "duration": 378}, {"note": 0, "velocity": 0, "duration": 102}, {"note": 60, "velocity": 73, "duration": 202}, {"note": 62, "velocity": 69, "duration": 198}, {"note": 65, "velocity": 72, "duration": 823}, {"note": 0, "velocity": 0, "duration": 137}, {"note": 62, "velocity": 74, "duration": 249}, {"note": 65, "velocity": 77, "duration": 254}, {"note": 70, "velocity": 75, "duration": 279}, {"note": 67, "velocity": 75, "duration": 252}, {"note": 65, "velocity": 77, "duration": 792}, {"note": 0, "velocity": 0, "duration": 168}, {"note": 62, "velocity": 75, "duration": 242}, {"note": 65, "velocity": 75, "duration": 259}, {"note": 67, "velocity": 75, "duration": 248}, {"note": 70, "velocity": 76, "duration": 245}, {"note": 65, "velocity": 75, "duration": 833}, {"note": 0, "velocity": 0, "duration": 127}, {"note": 70, "velocity": 74, "duration": 661}, {"note": 74, "velocity": 75, "duration": 183}, {"note": 72, "velocity": 75, "duration": 385}, {"note": 0, "velocity": 0, "duration": 95}, {"note": 70, "velocity": 74, "duration": 408}, {"note": 0, "velocity": 0, "duration": 72}, {"note": 72, "velocity": 72, "duration": 215}, {"note": 70, "velocity": 75, "duration": 208}, {"note": 67, "velocity": 73, "duration": 264}, {"note": 70, "velocity": 76, "duration": 228}, {"note": 65, "velocity": 72, "duration": 813}, {"note": 0, "velocity": 0, "duration": 147}, {"note": 62, "velocity": 76, "duration": 619}, {"note": 0, "velocity": 0, "duration": 101}, {"note": 65, "velocity": 72, "duration": 181}, {"note": 67, "velocity": 70, "duration": 444}, {"note": 65, "velocity": 73, "duration": 173}, {"note": 0, "velocity": 0, "duration": 67}, {"note": 67, "velocity": 74, "duration": 182}, {"note": 70, "velocity": 75, "duration": 393}, {"note": 0, "velocity": 0, "duration": 87}, {"note": 72, "velocity": 68, "duration": 228}, {"note": 65, "velocity": 76, "duration": 201}, {"note": 67, "velocity": 69, "duration": 755}, {"note": 0, "velocity": 0, "duration": 205}, {"note": 62, "velocity": 76, "duration": 646}, {"note": 0, "velocity": 0, "duration": 74}, {"note": 70, "velocity": 75, "duration": 178}, {"note": 0, "velocity": 0, "duration": 62}, {"note": 67, "velocity": 74, "duration": 374}, {"note": 0, "velocity": 0, "duration": 106}, {"note": 65, "velocity": 72, "duration": 416}, {"note": 0, "velocity": 0, "duration": 64}, {"note": 62, "velocity": 74, "duration": 249}, {"note": 60, "velocity": 74, "duration": 253}, {"note": 58, "velocity": 68, "duration": 270}, {"note": 62, "velocity": 63, "duration": 274}, {"note": 60, "velocity": 73, "duration": 839}, {"note": 0, "velocity": 0, "duration": 121}, {"note": 60, "velocity": 75, "duration": 618}, {"note": 0, "velocity": 0, "duration": 102}, {"note": 62, "velocity": 74, "duration": 219}, {"note": 65, "velocity": 76, "duration": 455}, {"note": 67, "velocity": 67, "duration": 408}, {"note": 0, "velocity": 0, "duration": 72}, {"note": 70, "velocity": 74, "duration": 497}, {"note": 72, "velocity": 74, "duration": 239}, {"note": 74, "velocity": 74, "duration": 264}, {"note": 72, "velocity": 76, "duration": 405}, {"note": 0, "velocity": 0, "duration": 75}, {"note": 70, "velocity": 75, "duration": 416}, {"note": 0, "velocity": 0, "duration": 64}, {"note": 72, "velocity": 74, "duration": 194}, {"note": 70, "velocity": 74, "duration": 201}, {"note": 65, "velocity": 75, "duration": 202}, {"note": 67, "velocity": 70, "duration": 207}, {"note": 70, "velocity": 74, "duration": 1534}, {"note": 0, "velocity": 0, "duration": 386}, {"note": 62, "velocity": 74, "duration": 249}, {"note": 65, "velocity": 77, "duration": 254}, {"note": 70, "velocity": 75, "duration": 279}, {"note": 67, "velocity": 75, "duration": 252}, {"note": 65, "velocity": 77, "duration": 792}, {"note": 0, "velocity": 0, "duration": 168}, {"note": 62, "velocity": 75, "duration": 242}, {"note": 65, "velocity": 75, "duration": 259}, {"note": 67, "velocity": 75, "duration": 248}, {"note": 70, "velocity": 76, "duration": 245}, {"note": 65, "velocity": 75, "duration": 833}, {"note": 0, "velocity": 0, "duration": 127}, {"note": 70, "velocity": 74, "duration": 661}, {"note": 74, "velocity": 75, "duration": 183}, {"note": 72, "velocity": 75, "duration": 385}, {"note": 0, "velocity": 0, "duration": 95}, {"note": 70, "velocity": 74, "duration": 408}, {"note": 0, "velocity": 0, "duration": 72}, {"note": 72, "velocity": 72, "duration": 215}, {"note": 70, "velocity": 75, "duration": 208}, {"note": 67, "velocity": 73, "duration": 264}, {"note": 70, "velocity": 76, "duration": 228}, {"note": 65, "velocity": 72, "duration": 813}, {"note": 0, "velocity": 0, "duration": 147}, {"note": 62, "velocity": 76, "duration": 619}, {"note": 0, "velocity": 0, "duration": 101}, {"note": 65, "velocity": 72, "duration": 181}, {"note": 67, "velocity": 70, "duration": 444}, {"note": 65, "velocity": 73, "duration": 173}, {"note": 0, "velocity": 0, "duration": 67}, {"note": 67, "velocity": 74, "duration": 182}, {"note": 70, "velocity": 75, "duration": 393}, {"note": 0, "velocity": 0, "duration": 87}, {"note": 72, "velocity": 68, "duration": 228}, {"note": 65, "velocity": 76, "duration": 201}, {"note": 67, "velocity": 69, "duration": 755}, {"note": 0, "velocity": 0, "duration": 205}, {"note": 62, "velocity": 76, "duration": 219}, {"note": 60, "velocity": 70, "duration": 244}, {"note": 58, "velocity": 72, "duration": 486}, {"note": 60, "velocity": 70, "duration": 802}, {"note": 0, "velocity": 0, "duration": 158}, {"note": 60, "velocity": 75, "duration": 405}, {"note": 0, "velocity": 0, "duration": 75}, {"note": 60, "velocity": 73, "duration": 202}, {"note": 62, "velocity": 70, "duration": 185}, {"note": 65, "velocity": 74, "duration": 401}, {"note": 0, "velocity": 0, "duration": 79}, {"note": 65, "velocity": 70, "duration": 353}, {"note": 0, "velocity": 0, "duration": 127}, {"note": 70, "velocity": 76, "duration": 378}, {"note": 0, "velocity": 0, "duration": 102}, {"note": 60, "velocity": 73, "duration": 202}, {"note": 62, "velocity": 69, "duration": 198}, {"note": 65, "velocity": 72, "duration": 823}, {"note": 0, "velocity": 0, "duration": 137}, {"note": 62, "velocity": 74, "duration": 249}, {"note": 65, "velocity": 77, "duration": 254}, {"note": 70, "velocity": 75, "duration": 279}, {"note": 67, "velocity": 75, "duration": 252}, {"note": 65, "velocity": 77, "duration": 792}, {"note": 0, "velocity": 0, "duration": 168}, {"note": 62, "velocity": 75, "duration": 242}, {"note": 65, "velocity": 75, "duration": 259}, {"note": 67, "velocity": 75, "duration": 248}, {"note": 70, "velocity": 76, "duration": 245}, {"note": 65, "velocity": 75, "duration": 833}, {"note": 0, "velocity": 0, "duration": 127}, {"note": 70, "velocity": 74, "duration": 661}, {"note": 74, "velocity": 75, "duration": 183}, {"note": 72, "velocity": 75, "duration": 385}, {"note": 0, "velocity": 0, "duration": 95}, {"note": 70, "velocity": 74, "duration": 408}, {"note": 0, "velocity": 0, "duration": 72}, {"note": 72, "velocity": 72, "duration": 215}, {"note": 70, "velocity": 75, "duration": 208}, {"note": 67, "velocity": 73, "duration": 264}, {"note": 70, "velocity": 76, "duration": 228}, {"note": 65, "velocity": 72, "duration": 813}, {"note": 0, "velocity": 0, "duration": 147}, {"note": 62, "velocity": 76, "duration": 619}, {"note": 0, "velocity": 0, "duration": 101}, {"note": 65, "velocity": 72, "duration": 181}, {"note": 67, "velocity": 70, "duration": 444}, {"note": 65, "velocity": 73, "duration": 173}, {"note": 0, "velocity": 0, "duration": 67}, {"note": 67, "velocity": 74, "duration": 182}, {"note": 70, "velocity": 75, "duration": 393}, {"note": 0, "velocity": 0, "duration": 87}, {"note": 72, "velocity": 68, "duration": 228}, {"note": 65, "velocity": 76, "duration": 201}, {"note": 67, "velocity": 69, "duration": 755}, {"note": 0, "velocity": 0, "duration": 205}, {"note": 62, "velocity": 76, "duration": 646}, {"note": 0, "velocity": 0, "duration": 74}, {"note": 70, "velocity": 75, "duration": 178}, {"note": 0, "velocity": 0, "duration": 62}, {"note": 67, "velocity": 74, "duration": 374}, {"note": 0, "velocity": 0, "duration": 106}, {"note": 65, "velocity": 72, "duration": 416}, {"note": 0, "velocity": 0, "duration": 64}, {"note": 62, "velocity": 74, "duration": 249}, {"note": 60, "velocity": 74, "duration": 253}, {"note": 58, "velocity": 68, "duration": 270}, {"note": 62, "velocity": 63, "duration": 274}, {"note": 60, "velocity": 73, "duration": 839}, {"note": 0, "velocity": 0, "duration": 121}, {"note": 60, "velocity": 75, "duration": 618}, {"note": 0, "velocity": 0, "duration": 102}, {"note": 62, "velocity": 74, "duration": 219}, {"note": 65, "velocity": 76, "duration": 455}, {"note": 67, "velocity": 67, "duration": 408}, {"note": 0, "velocity": 0, "duration": 72}, {"note": 70, "velocity": 74, "duration": 497}, {"note": 72, "velocity": 74, "duration": 239}, {"note": 74, "velocity": 74, "duration": 264}, {"note": 72, "velocity": 76, "duration": 405}, {"note": 0, "velocity": 0, "duration": 75}, {"note": 70, "velocity": 75, "duration": 416}, {"note": 0, "velocity": 0, "duration": 64}, {"note": 72, "velocity": 74, "duration": 194}, {"note": 70, "velocity": 74, "duration": 201}, {"note": 65, "velocity": 75, "duration": 202}, {"note": 67, "velocity": 70, "duration": 207}, {"note": 70, "velocity": 74, "duration": 1534}, {"note": 0, "velocity": 0, "duration": 17666}, {"note": 62, "velocity": 74, "duration": 249}, {"note": 65, "velocity": 77, "duration": 254}, {"note": 70, "velocity": 75, "duration": 279}, {"note": 67, "velocity": 75, "duration": 252}, {"note": 65, "velocity": 77, "duration": 792}, {"note": 0, "velocity": 0, "duration": 168}, {"note": 62, "velocity": 75, "duration": 242}, {"note": 65, "velocity": 75, "duration": 259}, {"note": 67, "velocity": 75, "duration": 248}, {"note": 70, "velocity": 76, "duration": 245}, {"note": 65, "velocity": 75, "duration": 833}, {"note": 0, "velocity": 0, "duration": 127}, {"note": 70, "velocity": 74, "duration": 661}, {"note": 74, "velocity": 75, "duration": 183}, {"note": 72, "velocity": 75, "duration": 385}, {"note": 0, "velocity": 0, "duration": 95}, {"note": 70, "velocity": 74, "duration": 408}, {"note": 0, "velocity": 0, "duration": 72}, {"note": 72, "velocity": 72, "duration": 215}, {"note": 70, "velocity": 75, "duration": 208}, {"note": 67, "velocity": 73, "duration": 264}, {"note": 70, "velocity": 76, "duration": 228}, {"note": 65, "velocity": 72, "duration": 813}, {"note": 0, "velocity": 0, "duration": 147}, {"note": 62, "velocity": 76, "duration": 619}, {"note": 0, "velocity": 0, "duration": 101}, {"note": 65, "velocity": 72, "duration": 181}, {"note": 67, "velocity": 70, "duration": 444}, {"note": 65, "velocity": 73, "duration": 173}, {"note": 0, "velocity": 0, "duration": 67}, {"note": 67, "velocity": 74, "duration": 182}, {"note": 70, "velocity": 75, "duration": 393}, {"note": 0, "velocity": 0, "duration": 87}, {"note": 72, "velocity": 68, "duration": 228}, {"note": 65, "velocity": 76, "duration": 201}, {"note": 67, "velocity": 69, "duration": 755}, {"note": 0, "velocity": 0, "duration": 205}, {"note": 62, "velocity": 76, "duration": 646}, {"note": 0, "velocity": 0, "duration": 74}, {"note": 70, "velocity": 75, "duration": 178}, {"note": 0, "velocity": 0, "duration": 62}, {"note": 67, "velocity": 74, "duration": 374}, {"note": 0, "velocity": 0, "duration": 106}, {"note": 65, "velocity": 72, "duration": 416}, {"note": 0, "velocity": 0, "duration": 64}, {"note": 62, "velocity": 74, "duration": 249}, {"note": 60, "velocity": 74, "duration": 253}, {"note": 58, "velocity": 68, "duration": 270}, {"note": 62, "velocity": 63, "duration": 274}, {"note": 60, "velocity": 73, "duration": 839}, {"note": 0, "velocity": 0, "duration": 121}, {"note": 60, "velocity": 75, "duration": 618}, {"note": 0, "velocity": 0, "duration": 102}, {"note": 62, "velocity": 74, "duration": 219}, {"note": 65, "velocity": 76, "duration": 455}, {"note": 67, "velocity": 67, "duration": 408}, {"note": 0, "velocity": 0, "duration": 123}, {"note": 70, "velocity": 76, "duration": 504}, {"note": 72, "velocity": 75, "duration": 279}, {"note": 74, "velocity": 69, "duration": 293}, {"note": 72, "velocity": 75, "duration": 661}, {"note": 70, "velocity": 76, "duration": 467}, {"note": 0, "velocity": 0, "duration": 235}, {"note": 72, "velocity": 74, "duration": 385}, {"note": 70, "velocity": 76, "duration": 387}, {"note": 65, "velocity": 76, "duration": 456}, {"note": 67, "velocity": 76, "duration": 444}, {"note": 70, "velocity": 74, "duration": 1394}]]