[[{"note": 72, "velocity": 116, "duration": 120}, {"note": 75, "velocity": 90, "duration": 240}, {"note": 72, "velocity": 100, "duration": 128}, {"note": 70, "velocity": 104, "duration": 359}, {"note": 70, "velocity": 104, "duration": 120}, {"note": 72, "velocity": 107, "duration": 127}, {"note": 70, "velocity": 92, "duration": 120}, {"note": 67, "velocity": 98, "duration": 136}, {"note": 65, "velocity": 89, "duration": 134}, {"note": 63, "velocity": 92, "duration": 480}, {"note": 67, "velocity": 100, "duration": 360}, {"note": 70, "velocity": 108, "duration": 120}, {"note": 75, "velocity": 108, "duration": 240}, {"note": 72, "velocity": 114, "duration": 240}, {"note": 70, "velocity": 114, "duration": 960}, {"note": 75, "velocity": 108, "duration": 120}, {"note": 77, "velocity": 86, "duration": 70}, {"note": 75, "velocity": 84, "duration": 60}, {"note": 72, "velocity": 102, "duration": 120}, {"note": 70, "velocity": 89, "duration": 120}, {"note": 72, "velocity": 108, "duration": 479}, {"note": 72, "velocity": 113, "duration": 240}, {"note": 70, "velocity": 91, "duration": 130}, {"note": 72, "velocity": 100, "duration": 129}, {"note": 70, "velocity": 98, "duration": 120}, {"note": 67, "velocity": 89, "duration": 360}, {"note": 70, "velocity": 108, "duration": 239}, {"note": 70, "velocity": 104, "duration": 120}, {"note": 72, "velocity": 108, "duration": 121}, {"note": 70, "velocity": 108, "duration": 240}, {"note": 67, "velocity": 102, "duration": 120}, {"note": 65, "velocity": 89, "duration": 119}, {"note": 65, "velocity": 93, "duration": 960}, {"note": 67, "velocity": 114, "duration": 360}, {"note": 70, "velocity": 88, "duration": 130}, {"note": 72, "velocity": 110, "duration": 240}, {"note": 70, "velocity": 94, "duration": 120}, {"note": 67, "velocity": 93, "duration": 120}, {"note": 65, "velocity": 102, "duration": 241}, {"note": 63, "velocity": 102, "duration": 479}, {"note": 63, "velocity": 102, "duration": 129}, {"note": 65, "velocity": 98, "duration": 122}, {"note": 67, "velocity": 104, "duration": 360}, {"note": 70, "velocity": 93, "duration": 120}, {"note": 75, "velocity": 110, "duration": 120}, {"note": 77, "velocity": 102, "duration": 120}, {"note": 75, "velocity": 96, "duration": 120}, {"note": 70, "velocity": 87, "duration": 120}, {"note": 72, "velocity": 104, "duration": 239}, {"note": 72, "velocity": 104, "duration": 122}, {"note": 70, "velocity": 102, "duration": 120}, {"note": 67, "velocity": 113, "duration": 480}, {"note": 75, "velocity": 120, "duration": 120}, {"note": 79, "velocity": 108, "duration": 120}, {"note": 72, "velocity": 90, "duration": 120}, {"note": 70, "velocity": 104, "duration": 120}, {"note": 72, "velocity": 116, "duration": 479}, {"note": 72, "velocity": 114, "duration": 256}, {"note": 70, "velocity": 102, "duration": 120}, {"note": 67, "velocity": 98, "duration": 120}, {"note": 65, "velocity": 108, "duration": 480}, {"note": 70, "velocity": 113, "duration": 360}, {"note": 72, "velocity": 113, "duration": 133}, {"note": 70, "velocity": 114, "duration": 240}, {"note": 67, "velocity": 108, "duration": 127}, {"note": 65, "velocity": 91, "duration": 120}, {"note": 63, "velocity": 104, "duration": 960}, {"note": 79, "velocity": 117, "duration": 762}, {"note": 77, "velocity": 114, "duration": 120}, {"note": 75, "velocity": 116, "duration": 120}, {"note": 77, "velocity": 117, "duration": 719}, {"note": 77, "velocity": 119, "duration": 120}, {"note": 79, "velocity": 110, "duration": 120}, {"note": 67, "velocity": 116, "duration": 360}, {"note": 70, "velocity": 107, "duration": 120}, {"note": 75, "velocity": 113, "duration": 120}, {"note": 77, "velocity": 100, "duration": 120}, {"note": 75, "velocity": 100, "duration": 120}, {"note": 72, "velocity": 108, "duration": 128}, {"note": 70, "velocity": 113, "duration": 960}, {"note": 75, "velocity": 114, "duration": 120}, {"note": 77, "velocity": 88, "duration": 69}, {"note": 75, "velocity": 86, "duration": 71}, {"note": 72, "velocity": 110, "duration": 120}, {"note": 70, "velocity": 104, "duration": 120}, {"note": 72, "velocity": 113, "duration": 479}, {"note": 72, "velocity": 113, "duration": 240}, {"note": 70, "velocity": 113, "duration": 120}, {"note": 72, "velocity": 113, "duration": 128}, {"note": 70, "velocity": 110, "duration": 133}, {"note": 67, "velocity": 114, "duration": 360}, {"note": 70, "velocity": 107, "duration": 360}, {"note": 72, "velocity": 113, "duration": 120}, {"note": 70, "velocity": 113, "duration": 240}, {"note": 67, "velocity": 108, "duration": 130}, {"note": 65, "velocity": 90, "duration": 119}, {"note": 65, "velocity": 104, "duration": 960}, {"note": 70, "velocity": 110, "duration": 119}, {"note": 70, "velocity": 108, "duration": 240}, {"note": 72, "velocity": 116, "duration": 120}, {"note": 70, "velocity": 117, "duration": 240}, {"note": 67, "velocity": 113, "duration": 128}, {"note": 65, "velocity": 102, "duration": 129}, {"note": 63, "velocity": 116, "duration": 960}, {"note": 0, "velocity": 0, "duration": 7710}, {"note": 72, "velocity": 116, "duration": 120}, {"note": 75, "velocity": 90, "duration": 240}, {"note": 72, "velocity": 100, "duration": 128}, {"note": 70, "velocity": 104, "duration": 359}, {"note": 70, "velocity": 104, "duration": 120}, {"note": 72, "velocity": 107, "duration": 127}, {"note": 70, "velocity": 92, "duration": 120}, {"note": 67, "velocity": 98, "duration": 136}, {"note": 65, "velocity": 89, "duration": 134}, {"note": 63, "velocity": 92, "duration": 480}, {"note": 67, "velocity": 100, "duration": 360}, {"note": 70, "velocity": 108, "duration": 120}, {"note": 75, "velocity": 108, "duration": 240}, {"note": 72, "velocity": 114, "duration": 240}, {"note": 70, "velocity": 114, "duration": 960}, {"note": 75, "velocity": 108, "duration": 120}, {"note": 77, "velocity": 86, "duration": 70}, {"note": 75, "velocity": 84, "duration": 60}, {"note": 72, "velocity": 102, "duration": 120}, {"note": 70, "velocity": 89, "duration": 120}, {"note": 72, "velocity": 108, "duration": 479}, {"note": 72, "velocity": 113, "duration": 240}, {"note": 70, "velocity": 91, "duration": 130}, {"note": 72, "velocity": 100, "duration": 129}, {"note": 70, "velocity": 98, "duration": 120}, {"note": 67, "velocity": 89, "duration": 360}, {"note": 70, "velocity": 108, "duration": 239}, {"note": 70, "velocity": 104, "duration": 120}, {"note": 72, "velocity": 108, "duration": 121}, {"note": 70, "velocity": 108, "duration": 240}, {"note": 67, "velocity": 102, "duration": 120}, {"note": 65, "velocity": 89, "duration": 119}, {"note": 65, "velocity": 93, "duration": 960}, {"note": 67, "velocity": 114, "duration": 360}, {"note": 70, "velocity": 88, "duration": 130}, {"note": 72, "velocity": 110, "duration": 240}, {"note": 70, "velocity": 94, "duration": 120}, {"note": 67, "velocity": 93, "duration": 120}, {"note": 65, "velocity": 102, "duration": 241}, {"note": 63, "velocity": 102, "duration": 479}, {"note": 63, "velocity": 102, "duration": 129}, {"note": 65, "velocity": 98, "duration": 122}, {"note": 67, "velocity": 104, "duration": 360}, {"note": 70, "velocity": 93, "duration": 120}, {"note": 75, "velocity": 110, "duration": 120}, {"note": 77, "velocity": 102, "duration": 120}, {"note": 75, "velocity": 96, "duration": 120}, {"note": 70, "velocity": 87, "duration": 120}, {"note": 72, "velocity": 104, "duration": 239}, {"note": 72, "velocity": 104, "duration": 122}, {"note": 70, "velocity": 102, "duration": 120}, {"note": 67, "velocity": 113, "duration": 480}, {"note": 75, "velocity": 120, "duration": 120}, {"note": 79, "velocity": 108, "duration": 120}, {"note": 72, "velocity": 90, "duration": 120}, {"note": 70, "velocity": 104, "duration": 120}, {"note": 72, "velocity": 116, "duration": 479}, {"note": 72, "velocity": 114, "duration": 256}, {"note": 70, "velocity": 102, "duration": 120}, {"note": 67, "velocity": 98, "duration": 120}, {"note": 65, "velocity": 108, "duration": 480}, {"note": 70, "velocity": 113, "duration": 360}, {"note": 72, "velocity": 113, "duration": 133}, {"note": 70, "velocity": 114, "duration": 240}, {"note": 67, "velocity": 108, "duration": 127}, {"note": 65, "velocity": 91, "duration": 120}, {"note": 63, "velocity": 104, "duration": 930}, {"note": 79, "velocity": 117, "duration": 762}, {"note": 77, "velocity": 114, "duration": 120}, {"note": 75, "velocity": 116, "duration": 120}, {"note": 77, "velocity": 117, "duration": 719}, {"note": 77, "velocity": 119, "duration": 120}, {"note": 79, "velocity": 110, "duration": 120}, {"note": 67, "velocity": 116, "duration": 360}, {"note": 70, "velocity": 107, "duration": 120}, {"note": 75, "velocity": 113, "duration": 120}, {"note": 77, "velocity": 100, "duration": 120}, {"note": 75, "velocity": 100, "duration": 120}, {"note": 72, "velocity": 108, "duration": 128}, {"note": 70, "velocity": 113, "duration": 960}, {"note": 75, "velocity": 114, "duration": 120}, {"note": 77, "velocity": 88, "duration": 69}, {"note": 75, "velocity": 86, "duration": 61}, {"note": 72, "velocity": 110, "duration": 120}, {"note": 70, "velocity": 104, "duration": 120}, {"note": 72, "velocity": 113, "duration": 479}, {"note": 72, "velocity": 113, "duration": 240}, {"note": 70, "velocity": 113, "duration": 120}, {"note": 72, "velocity": 113, "duration": 128}, {"note": 70, "velocity": 110, "duration": 133}, {"note": 67, "velocity": 114, "duration": 360}, {"note": 70, "velocity": 107, "duration": 360}, {"note": 72, "velocity": 113, "duration": 120}, {"note": 70, "velocity": 113, "duration": 240}, {"note": 67, "velocity": 108, "duration": 130}, {"note": 65, "velocity": 90, "duration": 119}, {"note": 65, "velocity": 104, "duration": 960}, {"note": 70, "velocity": 110, "duration": 119}, {"note": 70, "velocity": 108, "duration": 240}, {"note": 72, "velocity": 116, "duration": 120}, {"note": 70, "velocity": 117, "duration": 240}, {"note": 67, "velocity": 113, "duration": 128}, {"note": 65, "velocity": 102, "duration": 129}, {"note": 63, "velocity": 116, "duration": 930}, {"note": 79, "velocity": 117, "duration": 762}, {"note": 77, "velocity": 114, "duration": 120}, {"note": 75, "velocity": 116, "duration": 120}, {"note": 77, "velocity": 117, "duration": 719}, {"note": 77, "velocity": 119, "duration": 120}, {"note": 79, "velocity": 110, "duration": 120}, {"note": 67, "velocity": 116, "duration": 360}, {"note": 70, "velocity": 107, "duration": 120}, {"note": 75, "velocity": 113, "duration": 120}, {"note": 77, "velocity": 100, "duration": 120}, {"note": 75, "velocity": 100, "duration": 120}, {"note": 72, "velocity": 108, "duration": 128}, {"note": 70, "velocity": 113, "duration": 960}, {"note": 75, "velocity": 114, "duration": 120}, {"note": 77, "velocity": 88, "duration": 69}, {"note": 75, "velocity": 86, "duration": 61}, {"note": 72, "velocity": 110, "duration": 120}, {"note": 70, "velocity": 104, "duration": 120}, {"note": 72, "velocity": 113, "duration": 479}, {"note": 72, "velocity": 113, "duration": 240}, {"note": 70, "velocity": 113, "duration": 120}, {"note": 72, "velocity": 113, "duration": 128}, {"note": 70, "velocity": 110, "duration": 133}, {"note": 67, "velocity": 114, "duration": 360}, {"note": 70, "velocity": 107, "duration": 360}, {"note": 72, "velocity": 113, "duration": 120}, {"note": 70, "velocity": 113, "duration": 240}, {"note": 67, "velocity": 108, "duration": 130}, {"note": 65, "velocity": 90, "duration": 119}, {"note": 65, "velocity": 104, "duration": 1020}, {"note": 77, "velocity": 119, "duration": 690}, {"note": 79, "velocity": 119, "duration": 300}, {"note": 70, "velocity": 108, "duration": 480}, {"note": 72, "velocity": 116, "duration": 180}, {"note": 75, "velocity": 116, "duration": 150}, {"note": 77, "velocity": 100, "duration": 180}, {"note": 72, "velocity": 117, "duration": 960}, {"note": 75, "velocity": 117, "duration": 1436}]]