[[{"note": 74, "velocity": 93, "duration": 84}, {"note": 67, "velocity": 83, "duration": 53}, {"note": 0, "velocity": 0, "duration": 67}, {"note": 67, "velocity": 72, "duration": 56}, {"note": 0, "velocity": 0, "duration": 64}, {"note": 67, "velocity": 80, "duration": 67}, {"note": 67, "velocity": 87, "duration": 162}, {"note": 0, "velocity": 0, "duration": 78}, {"note": 74, "velocity": 93, "duration": 160}, {"note": 0, "velocity": 0, "duration": 80}, {"note": 74, "velocity": 102, "duration": 160}, {"note": 0, "velocity": 0, "duration": 80}, {"note": 67, "velocity": 93, "duration": 167}, {"note": 0, "velocity": 0, "duration": 73}, {"note": 72, "velocity": 87, "duration": 328}, {"note": 0, "velocity": 0, "duration": 152}, {"note": 72, "velocity": 87, "duration": 176}, {"note": 0, "velocity": 0, "duration": 64}, {"note": 67, "velocity": 85, "duration": 63}, {"note": 67, "velocity": 87, "duration": 262}, {"note": 0, "velocity": 0, "duration": 98}, {"note": 72, "velocity": 80, "duration": 133}, {"note": 0, "velocity": 0, "duration": 107}, {"note": 72, "velocity": 87, "duration": 185}, {"note": 67, "velocity": 83, "duration": 167}, {"note": 0, "velocity": 0, "duration": 73}, {"note": 70, "velocity": 87, "duration": 312}, {"note": 0, "velocity": 0, "duration": 168}, {"note": 70, "velocity": 95, "duration": 181}, {"note": 62, "velocity": 80, "duration": 66}, {"note": 62, "velocity": 83, "duration": 295}, {"note": 0, "velocity": 0, "duration": 65}, {"note": 70, "velocity": 87, "duration": 70}, {"note": 70, "velocity": 87, "duration": 58}, {"note": 0, "velocity": 0, "duration": 62}, {"note": 70, "velocity": 87, "duration": 152}, {"note": 0, "velocity": 0, "duration": 88}, {"note": 62, "velocity": 85, "duration": 163}, {"note": 0, "velocity": 0, "duration": 77}, {"note": 69, "velocity": 93, "duration": 327}, {"note": 0, "velocity": 0, "duration": 153}, {"note": 69, "velocity": 95, "duration": 195}, {"note": 65, "velocity": 87, "duration": 184}, {"note": 67, "velocity": 83, "duration": 186}, {"note": 69, "velocity": 93, "duration": 169}, {"note": 0, "velocity": 0, "duration": 71}, {"note": 67, "velocity": 87, "duration": 1318}, {"note": 0, "velocity": 0, "duration": 602}, {"note": 74, "velocity": 93, "duration": 74}, {"note": 67, "velocity": 87, "duration": 57}, {"note": 0, "velocity": 0, "duration": 63}, {"note": 67, "velocity": 83, "duration": 62}, {"note": 67, "velocity": 87, "duration": 280}, {"note": 0, "velocity": 0, "duration": 80}, {"note": 74, "velocity": 83, "duration": 67}, {"note": 74, "velocity": 90, "duration": 62}, {"note": 74, "velocity": 102, "duration": 69}, {"note": 74, "velocity": 93, "duration": 57}, {"note": 0, "velocity": 0, "duration": 63}, {"note": 67, "velocity": 93, "duration": 167}, {"note": 0, "velocity": 0, "duration": 73}, {"note": 72, "velocity": 80, "duration": 291}, {"note": 0, "velocity": 0, "duration": 189}, {"note": 72, "velocity": 65, "duration": 178}, {"note": 0, "velocity": 0, "duration": 62}, {"note": 67, "velocity": 74, "duration": 71}, {"note": 67, "velocity": 72, "duration": 66}, {"note": 67, "velocity": 93, "duration": 176}, {"note": 0, "velocity": 0, "duration": 64}, {"note": 72, "velocity": 85, "duration": 165}, {"note": 0, "velocity": 0, "duration": 75}, {"note": 72, "velocity": 93, "duration": 162}, {"note": 0, "velocity": 0, "duration": 78}, {"note": 67, "velocity": 80, "duration": 170}, {"note": 0, "velocity": 0, "duration": 70}, {"note": 70, "velocity": 87, "duration": 300}, {"note": 0, "velocity": 0, "duration": 180}, {"note": 70, "velocity": 80, "duration": 166}, {"note": 0, "velocity": 0, "duration": 74}, {"note": 62, "velocity": 87, "duration": 61}, {"note": 62, "velocity": 87, "duration": 293}, {"note": 0, "velocity": 0, "duration": 67}, {"note": 70, "velocity": 95, "duration": 147}, {"note": 0, "velocity": 0, "duration": 93}, {"note": 70, "velocity": 87, "duration": 152}, {"note": 0, "velocity": 0, "duration": 88}, {"note": 62, "velocity": 93, "duration": 142}, {"note": 0, "velocity": 0, "duration": 98}, {"note": 69, "velocity": 95, "duration": 286}, {"note": 0, "velocity": 0, "duration": 194}, {"note": 69, "velocity": 87, "duration": 178}, {"note": 0, "velocity": 0, "duration": 62}, {"note": 65, "velocity": 80, "duration": 160}, {"note": 0, "velocity": 0, "duration": 80}, {"note": 67, "velocity": 80, "duration": 193}, {"note": 69, "velocity": 93, "duration": 182}, {"note": 67, "velocity": 83, "duration": 1313}, {"note": 0, "velocity": 0, "duration": 2527}, {"note": 77, "velocity": 95, "duration": 80}, {"note": 74, "velocity": 102, "duration": 133}, {"note": 0, "velocity": 0, "duration": 107}, {"note": 74, "velocity": 93, "duration": 488}, {"note": 0, "velocity": 0, "duration": 112}, {"note": 74, "velocity": 93, "duration": 79}, {"note": 67, "velocity": 83, "duration": 60}, {"note": 67, "velocity": 74, "duration": 79}, {"note": 70, "velocity": 74, "duration": 598}, {"note": 0, "velocity": 0, "duration": 122}, {"note": 72, "velocity": 80, "duration": 56}, {"note": 0, "velocity": 0, "duration": 64}, {"note": 72, "velocity": 83, "duration": 60}, {"note": 72, "velocity": 83, "duration": 54}, {"note": 0, "velocity": 0, "duration": 66}, {"note": 72, "velocity": 87, "duration": 238}, {"note": 0, "velocity": 0, "duration": 122}, {"note": 67, "velocity": 71, "duration": 75}, {"note": 70, "velocity": 80, "duration": 186}, {"note": 72, "velocity": 80, "duration": 82}, {"note": 74, "velocity": 85, "duration": 59}, {"note": 0, "velocity": 0, "duration": 61}, {"note": 74, "velocity": 93, "duration": 340}, {"note": 0, "velocity": 0, "duration": 140}, {"note": 77, "velocity": 93, "duration": 71}, {"note": 74, "velocity": 102, "duration": 159}, {"note": 0, "velocity": 0, "duration": 81}, {"note": 74, "velocity": 93, "duration": 378}, {"note": 0, "velocity": 0, "duration": 102}, {"note": 72, "velocity": 80, "duration": 74}, {"note": 74, "velocity": 83, "duration": 118}, {"note": 67, "velocity": 72, "duration": 118}, {"note": 67, "velocity": 72, "duration": 118}, {"note": 70, "velocity": 72, "duration": 184}, {"note": 0, "velocity": 0, "duration": 416}, {"note": 72, "velocity": 90, "duration": 61}, {"note": 72, "velocity": 85, "duration": 63}, {"note": 72, "velocity": 80, "duration": 65}, {"note": 67, "velocity": 87, "duration": 67}, {"note": 70, "velocity": 80, "duration": 63}, {"note": 70, "velocity": 80, "duration": 66}, {"note": 69, "velocity": 93, "duration": 223}, {"note": 67, "velocity": 80, "duration": 1099}, {"note": 0, "velocity": 0, "duration": 821}, {"note": 79, "velocity": 102, "duration": 57}, {"note": 0, "velocity": 0, "duration": 63}, {"note": 79, "velocity": 93, "duration": 47}, {"note": 0, "velocity": 0, "duration": 73}, {"note": 79, "velocity": 93, "duration": 68}, {"note": 77, "velocity": 87, "duration": 66}, {"note": 74, "velocity": 90, "duration": 60}, {"note": 74, "velocity": 83, "duration": 58}, {"note": 0, "velocity": 0, "duration": 62}, {"note": 74, "velocity": 93, "duration": 63}, {"note": 77, "velocity": 103, "duration": 46}, {"note": 0, "velocity": 0, "duration": 74}, {"note": 79, "velocity": 93, "duration": 46}, {"note": 0, "velocity": 0, "duration": 74}, {"note": 79, "velocity": 93, "duration": 61}, {"note": 79, "velocity": 87, "duration": 64}, {"note": 76, "velocity": 95, "duration": 58}, {"note": 0, "velocity": 0, "duration": 62}, {"note": 74, "velocity": 102, "duration": 331}, {"note": 0, "velocity": 0, "duration": 269}, {"note": 72, "velocity": 80, "duration": 60}, {"note": 72, "velocity": 83, "duration": 51}, {"note": 0, "velocity": 0, "duration": 69}, {"note": 72, "velocity": 74, "duration": 56}, {"note": 0, "velocity": 0, "duration": 64}, {"note": 72, "velocity": 80, "duration": 176}, {"note": 0, "velocity": 0, "duration": 64}, {"note": 70, "velocity": 93, "duration": 41}, {"note": 0, "velocity": 0, "duration": 79}, {"note": 67, "velocity": 90, "duration": 50}, {"note": 0, "velocity": 0, "duration": 70}, {"note": 70, "velocity": 87, "duration": 49}, {"note": 0, "velocity": 0, "duration": 71}, {"note": 70, "velocity": 74, "duration": 52}, {"note": 0, "velocity": 0, "duration": 68}, {"note": 72, "velocity": 83, "duration": 176}, {"note": 0, "velocity": 0, "duration": 64}, {"note": 74, "velocity": 102, "duration": 336}, {"note": 0, "velocity": 0, "duration": 144}, {"note": 79, "velocity": 93, "duration": 61}, {"note": 79, "velocity": 93, "duration": 60}, {"note": 79, "velocity": 93, "duration": 74}, {"note": 77, "velocity": 80, "duration": 63}, {"note": 74, "velocity": 95, "duration": 57}, {"note": 0, "velocity": 0, "duration": 63}, {"note": 74, "velocity": 83, "duration": 57}, {"note": 0, "velocity": 0, "duration": 63}, {"note": 74, "velocity": 95, "duration": 57}, {"note": 0, "velocity": 0, "duration": 63}, {"note": 77, "velocity": 102, "duration": 55}, {"note": 0, "velocity": 0, "duration": 65}, {"note": 79, "velocity": 90, "duration": 53}, {"note": 0, "velocity": 0, "duration": 67}, {"note": 79, "velocity": 85, "duration": 68}, {"note": 79, "velocity": 87, "duration": 59}, {"note": 0, "velocity": 0, "duration": 61}, {"note": 76, "velocity": 87, "duration": 59}, {"note": 0, "velocity": 0, "duration": 61}, {"note": 74, "velocity": 93, "duration": 315}, {"note": 72, "velocity": 85, "duration": 59}, {"note": 0, "velocity": 0, "duration": 61}, {"note": 70, "velocity": 102, "duration": 45}, {"note": 0, "velocity": 0, "duration": 75}, {"note": 70, "velocity": 72, "duration": 292}, {"note": 0, "velocity": 0, "duration": 68}, {"note": 69, "velocity": 93, "duration": 57}, {"note": 0, "velocity": 0, "duration": 63}, {"note": 69, "velocity": 93, "duration": 350}, {"note": 67, "velocity": 85, "duration": 958}, {"note": 0, "velocity": 0, "duration": 7682}, {"note": 74, "velocity": 93, "duration": 74}, {"note": 67, "velocity": 87, "duration": 57}, {"note": 0, "velocity": 0, "duration": 63}, {"note": 67, "velocity": 83, "duration": 62}, {"note": 67, "velocity": 87, "duration": 280}, {"note": 0, "velocity": 0, "duration": 80}, {"note": 74, "velocity": 83, "duration": 67}, {"note": 74, "velocity": 90, "duration": 62}, {"note": 74, "velocity": 102, "duration": 69}, {"note": 74, "velocity": 93, "duration": 57}, {"note": 0, "velocity": 0, "duration": 63}, {"note": 67, "velocity": 93, "duration": 167}, {"note": 0, "velocity": 0, "duration": 73}, {"note": 72, "velocity": 80, "duration": 291}, {"note": 0, "velocity": 0, "duration": 189}, {"note": 72, "velocity": 65, "duration": 178}, {"note": 0, "velocity": 0, "duration": 62}, {"note": 67, "velocity": 74, "duration": 71}, {"note": 67, "velocity": 72, "duration": 66}, {"note": 67, "velocity": 93, "duration": 176}, {"note": 0, "velocity": 0, "duration": 64}, {"note": 72, "velocity": 85, "duration": 165}, {"note": 0, "velocity": 0, "duration": 75}, {"note": 72, "velocity": 93, "duration": 162}, {"note": 0, "velocity": 0, "duration": 78}, {"note": 67, "velocity": 80, "duration": 170}, {"note": 0, "velocity": 0, "duration": 70}, {"note": 70, "velocity": 87, "duration": 300}, {"note": 0, "velocity": 0, "duration": 180}, {"note": 70, "velocity": 80, "duration": 166}, {"note": 0, "velocity": 0, "duration": 74}, {"note": 62, "velocity": 87, "duration": 61}, {"note": 62, "velocity": 87, "duration": 293}, {"note": 0, "velocity": 0, "duration": 67}, {"note": 70, "velocity": 95, "duration": 147}, {"note": 0, "velocity": 0, "duration": 93}, {"note": 70, "velocity": 87, "duration": 152}, {"note": 0, "velocity": 0, "duration": 88}, {"note": 62, "velocity": 93, "duration": 142}, {"note": 0, "velocity": 0, "duration": 98}, {"note": 69, "velocity": 95, "duration": 286}, {"note": 0, "velocity": 0, "duration": 194}, {"note": 69, "velocity": 87, "duration": 178}, {"note": 0, "velocity": 0, "duration": 62}, {"note": 65, "velocity": 80, "duration": 160}, {"note": 0, "velocity": 0, "duration": 80}, {"note": 67, "velocity": 80, "duration": 193}, {"note": 69, "velocity": 93, "duration": 182}, {"note": 67, "velocity": 83, "duration": 1313}, {"note": 0, "velocity": 0, "duration": 2527}, {"note": 77, "velocity": 95, "duration": 80}, {"note": 74, "velocity": 102, "duration": 133}, {"note": 0, "velocity": 0, "duration": 107}, {"note": 74, "velocity": 93, "duration": 488}, {"note": 0, "velocity": 0, "duration": 112}, {"note": 74, "velocity": 93, "duration": 79}, {"note": 67, "velocity": 83, "duration": 60}, {"note": 67, "velocity": 74, "duration": 79}, {"note": 70, "velocity": 74, "duration": 598}, {"note": 0, "velocity": 0, "duration": 122}, {"note": 72, "velocity": 80, "duration": 56}, {"note": 0, "velocity": 0, "duration": 64}, {"note": 72, "velocity": 83, "duration": 60}, {"note": 72, "velocity": 83, "duration": 54}, {"note": 0, "velocity": 0, "duration": 66}, {"note": 72, "velocity": 87, "duration": 238}, {"note": 0, "velocity": 0, "duration": 122}, {"note": 67, "velocity": 71, "duration": 75}, {"note": 70, "velocity": 80, "duration": 186}, {"note": 72, "velocity": 80, "duration": 82}, {"note": 74, "velocity": 85, "duration": 59}, {"note": 0, "velocity": 0, "duration": 61}, {"note": 74, "velocity": 93, "duration": 340}, {"note": 0, "velocity": 0, "duration": 140}, {"note": 77, "velocity": 93, "duration": 71}, {"note": 74, "velocity": 102, "duration": 159}, {"note": 0, "velocity": 0, "duration": 81}, {"note": 74, "velocity": 93, "duration": 378}, {"note": 0, "velocity": 0, "duration": 102}, {"note": 72, "velocity": 80, "duration": 74}, {"note": 74, "velocity": 83, "duration": 118}, {"note": 67, "velocity": 72, "duration": 118}, {"note": 67, "velocity": 72, "duration": 118}, {"note": 70, "velocity": 72, "duration": 184}, {"note": 0, "velocity": 0, "duration": 416}, {"note": 72, "velocity": 90, "duration": 61}, {"note": 72, "velocity": 85, "duration": 63}, {"note": 72, "velocity": 80, "duration": 65}, {"note": 67, "velocity": 87, "duration": 67}, {"note": 70, "velocity": 80, "duration": 63}, {"note": 70, "velocity": 80, "duration": 66}, {"note": 69, "velocity": 93, "duration": 223}, {"note": 67, "velocity": 80, "duration": 1099}, {"note": 0, "velocity": 0, "duration": 821}, {"note": 79, "velocity": 102, "duration": 57}, {"note": 0, "velocity": 0, "duration": 63}, {"note": 79, "velocity": 93, "duration": 47}, {"note": 0, "velocity": 0, "duration": 73}, {"note": 79, "velocity": 93, "duration": 68}, {"note": 77, "velocity": 87, "duration": 66}, {"note": 74, "velocity": 90, "duration": 60}, {"note": 74, "velocity": 83, "duration": 58}, {"note": 0, "velocity": 0, "duration": 62}, {"note": 74, "velocity": 93, "duration": 63}, {"note": 77, "velocity": 103, "duration": 46}, {"note": 0, "velocity": 0, "duration": 74}, {"note": 79, "velocity": 93, "duration": 46}, {"note": 0, "velocity": 0, "duration": 74}, {"note": 79, "velocity": 93, "duration": 61}, {"note": 79, "velocity": 87, "duration": 64}, {"note": 76, "velocity": 95, "duration": 58}, {"note": 0, "velocity": 0, "duration": 62}, {"note": 74, "velocity": 102, "duration": 331}, {"note": 0, "velocity": 0, "duration": 269}, {"note": 72, "velocity": 80, "duration": 60}, {"note": 72, "velocity": 83, "duration": 51}, {"note": 0, "velocity": 0, "duration": 69}, {"note": 72, "velocity": 74, "duration": 56}, {"note": 0, "velocity": 0, "duration": 64}, {"note": 72, "velocity": 80, "duration": 176}, {"note": 0, "velocity": 0, "duration": 64}, {"note": 70, "velocity": 93, "duration": 41}, {"note": 0, "velocity": 0, "duration": 79}, {"note": 67, "velocity": 90, "duration": 50}, {"note": 0, "velocity": 0, "duration": 70}, {"note": 70, "velocity": 87, "duration": 49}, {"note": 0, "velocity": 0, "duration": 71}, {"note": 70, "velocity": 74, "duration": 52}, {"note": 0, "velocity": 0, "duration": 68}, {"note": 72, "velocity": 83, "duration": 176}, {"note": 0, "velocity": 0, "duration": 64}, {"note": 74, "velocity": 102, "duration": 336}, {"note": 0, "velocity": 0, "duration": 144}, {"note": 79, "velocity": 93, "duration": 61}, {"note": 79, "velocity": 93, "duration": 60}, {"note": 79, "velocity": 93, "duration": 74}, {"note": 77, "velocity": 80, "duration": 63}, {"note": 74, "velocity": 95, "duration": 57}, {"note": 0, "velocity": 0, "duration": 63}, {"note": 74, "velocity": 83, "duration": 57}, {"note": 0, "velocity": 0, "duration": 63}, {"note": 74, "velocity": 95, "duration": 57}, {"note": 0, "velocity": 0, "duration": 63}, {"note": 77, "velocity": 102, "duration": 55}, {"note": 0, "velocity": 0, "duration": 65}, {"note": 79, "velocity": 90, "duration": 53}, {"note": 0, "velocity": 0, "duration": 67}, {"note": 79, "velocity": 85, "duration": 68}, {"note": 79, "velocity": 87, "duration": 59}, {"note": 0, "velocity": 0, "duration": 61}, {"note": 76, "velocity": 87, "duration": 59}, {"note": 0, "velocity": 0, "duration": 61}, {"note": 74, "velocity": 93, "duration": 315}, {"note": 72, "velocity": 85, "duration": 59}, {"note": 0, "velocity": 0, "duration": 61}, {"note": 70, "velocity": 102, "duration": 45}, {"note": 0, "velocity": 0, "duration": 75}, {"note": 70, "velocity": 72, "duration": 292}, {"note": 0, "velocity": 0, "duration": 68}, {"note": 69, "velocity": 93, "duration": 57}, {"note": 0, "velocity": 0, "duration": 63}, {"note": 69, "velocity": 93, "duration": 350}, {"note": 67, "velocity": 85, "duration": 958}, {"note": 0, "velocity": 0, "duration": 9602}, {"note": 77, "velocity": 95, "duration": 80}, {"note": 74, "velocity": 102, "duration": 133}, {"note": 0, "velocity": 0, "duration": 107}, {"note": 74, "velocity": 93, "duration": 488}, {"note": 0, "velocity": 0, "duration": 112}, {"note": 74, "velocity": 93, "duration": 79}, {"note": 67, "velocity": 83, "duration": 60}, {"note": 67, "velocity": 74, "duration": 79}, {"note": 70, "velocity": 74, "duration": 598}, {"note": 0, "velocity": 0, "duration": 122}, {"note": 72, "velocity": 80, "duration": 56}, {"note": 0, "velocity": 0, "duration": 64}, {"note": 72, "velocity": 83, "duration": 60}, {"note": 72, "velocity": 83, "duration": 54}, {"note": 0, "velocity": 0, "duration": 66}, {"note": 72, "velocity": 87, "duration": 238}, {"note": 0, "velocity": 0, "duration": 122}, {"note": 67, "velocity": 71, "duration": 75}, {"note": 70, "velocity": 80, "duration": 186}, {"note": 72, "velocity": 80, "duration": 82}, {"note": 74, "velocity": 85, "duration": 59}, {"note": 0, "velocity": 0, "duration": 61}, {"note": 74, "velocity": 93, "duration": 340}, {"note": 0, "velocity": 0, "duration": 140}, {"note": 77, "velocity": 93, "duration": 71}, {"note": 74, "velocity": 102, "duration": 159}, {"note": 0, "velocity": 0, "duration": 81}, {"note": 74, "velocity": 93, "duration": 378}, {"note": 0, "velocity": 0, "duration": 102}, {"note": 72, "velocity": 80, "duration": 74}, {"note": 74, "velocity": 83, "duration": 118}, {"note": 67, "velocity": 72, "duration": 118}, {"note": 67, "velocity": 72, "duration": 118}, {"note": 70, "velocity": 72, "duration": 184}, {"note": 0, "velocity": 0, "duration": 416}, {"note": 72, "velocity": 90, "duration": 61}, {"note": 72, "velocity": 85, "duration": 63}, {"note": 72, "velocity": 80, "duration": 65}, {"note": 67, "velocity": 87, "duration": 67}, {"note": 70, "velocity": 80, "duration": 63}, {"note": 70, "velocity": 80, "duration": 66}, {"note": 69, "velocity": 93, "duration": 223}, {"note": 67, "velocity": 80, "duration": 958}, {"note": 77, "velocity": 95, "duration": 80}, {"note": 74, "velocity": 102, "duration": 133}, {"note": 0, "velocity": 0, "duration": 107}, {"note": 74, "velocity": 93, "duration": 488}, {"note": 0, "velocity": 0, "duration": 112}, {"note": 74, "velocity": 93, "duration": 79}, {"note": 67, "velocity": 83, "duration": 60}, {"note": 67, "velocity": 74, "duration": 79}, {"note": 70, "velocity": 74, "duration": 598}, {"note": 0, "velocity": 0, "duration": 122}, {"note": 72, "velocity": 80, "duration": 56}, {"note": 0, "velocity": 0, "duration": 64}, {"note": 72, "velocity": 83, "duration": 60}, {"note": 72, "velocity": 83, "duration": 54}, {"note": 0, "velocity": 0, "duration": 66}, {"note": 72, "velocity": 87, "duration": 238}, {"note": 0, "velocity": 0, "duration": 122}, {"note": 67, "velocity": 71, "duration": 75}, {"note": 70, "velocity": 80, "duration": 186}, {"note": 72, "velocity": 80, "duration": 82}, {"note": 74, "velocity": 85, "duration": 59}, {"note": 0, "velocity": 0, "duration": 61}, {"note": 74, "velocity": 93, "duration": 340}, {"note": 0, "velocity": 0, "duration": 140}, {"note": 77, "velocity": 93, "duration": 71}, {"note": 74, "velocity": 102, "duration": 159}, {"note": 0, "velocity": 0, "duration": 81}, {"note": 74, "velocity": 93, "duration": 378}, {"note": 0, "velocity": 0, "duration": 102}, {"note": 72, "velocity": 80, "duration": 74}, {"note": 74, "velocity": 83, "duration": 118}, {"note": 67, "velocity": 72, "duration": 118}, {"note": 67, "velocity": 72, "duration": 118}, {"note": 70, "velocity": 72, "duration": 184}, {"note": 0, "velocity": 0, "duration": 416}, {"note": 72, "velocity": 90, "duration": 61}, {"note": 72, "velocity": 85, "duration": 63}, {"note": 72, "velocity": 80, "duration": 65}, {"note": 67, "velocity": 87, "duration": 67}, {"note": 70, "velocity": 80, "duration": 63}, {"note": 70, "velocity": 80, "duration": 66}, {"note": 69, "velocity": 93, "duration": 223}, {"note": 67, "velocity": 80, "duration": 1099}, {"note": 0, "velocity": 0, "duration": 821}, {"note": 77, "velocity": 95, "duration": 80}, {"note": 74, "velocity": 102, "duration": 133}, {"note": 0, "velocity": 0, "duration": 107}, {"note": 74, "velocity": 93, "duration": 488}, {"note": 0, "velocity": 0, "duration": 112}, {"note": 74, "velocity": 93, "duration": 79}, {"note": 67, "velocity": 83, "duration": 60}, {"note": 67, "velocity": 74, "duration": 79}, {"note": 70, "velocity": 74, "duration": 598}, {"note": 0, "velocity": 0, "duration": 122}, {"note": 72, "velocity": 80, "duration": 56}, {"note": 0, "velocity": 0, "duration": 64}, {"note": 72, "velocity": 83, "duration": 60}, {"note": 72, "velocity": 83, "duration": 54}, {"note": 0, "velocity": 0, "duration": 66}, {"note": 72, "velocity": 87, "duration": 238}, {"note": 0, "velocity": 0, "duration": 122}, {"note": 67, "velocity": 71, "duration": 75}, {"note": 70, "velocity": 80, "duration": 186}, {"note": 72, "velocity": 80, "duration": 82}, {"note": 74, "velocity": 85, "duration": 59}, {"note": 0, "velocity": 0, "duration": 61}, {"note": 74, "velocity": 93, "duration": 340}, {"note": 0, "velocity": 0, "duration": 140}, {"note": 77, "velocity": 93, "duration": 71}, {"note": 74, "velocity": 102, "duration": 159}, {"note": 0, "velocity": 0, "duration": 81}, {"note": 74, "velocity": 93, "duration": 378}, {"note": 0, "velocity": 0, "duration": 102}, {"note": 72, "velocity": 80, "duration": 74}, {"note": 74, "velocity": 83, "duration": 118}, {"note": 67, "velocity": 72, "duration": 118}, {"note": 67, "velocity": 72, "duration": 118}, {"note": 70, "velocity": 72, "duration": 184}, {"note": 0, "velocity": 0, "duration": 416}, {"note": 72, "velocity": 90, "duration": 61}, {"note": 72, "velocity": 85, "duration": 63}, {"note": 72, "velocity": 80, "duration": 65}, {"note": 67, "velocity": 87, "duration": 67}, {"note": 70, "velocity": 80, "duration": 63}, {"note": 70, "velocity": 80, "duration": 66}, {"note": 69, "velocity": 93, "duration": 223}, {"note": 67, "velocity": 80, "duration": 958}, {"note": 77, "velocity": 95, "duration": 80}, {"note": 74, "velocity": 102, "duration": 133}, {"note": 0, "velocity": 0, "duration": 107}, {"note": 74, "velocity": 93, "duration": 488}, {"note": 0, "velocity": 0, "duration": 112}, {"note": 74, "velocity": 93, "duration": 79}, {"note": 67, "velocity": 83, "duration": 60}, {"note": 67, "velocity": 74, "duration": 79}, {"note": 70, "velocity": 74, "duration": 598}, {"note": 0, "velocity": 0, "duration": 122}, {"note": 72, "velocity": 80, "duration": 56}, {"note": 0, "velocity": 0, "duration": 64}, {"note": 72, "velocity": 83, "duration": 60}, {"note": 72, "velocity": 83, "duration": 54}, {"note": 0, "velocity": 0, "duration": 66}, {"note": 72, "velocity": 87, "duration": 238}, {"note": 0, "velocity": 0, "duration": 122}, {"note": 67, "velocity": 71, "duration": 75}, {"note": 70, "velocity": 85, "duration": 186}, {"note": 72, "velocity": 80, "duration": 82}, {"note": 74, "velocity": 77, "duration": 59}, {"note": 0, "velocity": 0, "duration": 61}, {"note": 74, "velocity": 74, "duration": 340}, {"note": 0, "velocity": 0, "duration": 140}, {"note": 77, "velocity": 63, "duration": 71}, {"note": 74, "velocity": 60, "duration": 159}, {"note": 0, "velocity": 0, "duration": 81}, {"note": 74, "velocity": 55, "duration": 378}, {"note": 0, "velocity": 0, "duration": 102}, {"note": 72, "velocity": 44, "duration": 74}, {"note": 74, "velocity": 41, "duration": 118}, {"note": 67, "velocity": 38, "duration": 118}, {"note": 67, "velocity": 35, "duration": 118}, {"note": 70, "velocity": 33, "duration": 184}, {"note": 0, "velocity": 0, "duration": 416}, {"note": 72, "velocity": 19, "duration": 61}, {"note": 72, "velocity": 16, "duration": 63}, {"note": 72, "velocity": 13, "duration": 65}, {"note": 67, "velocity": 11, "duration": 67}, {"note": 70, "velocity": 8, "duration": 63}, {"note": 70, "velocity": 5, "duration": 66}, {"note": 69, "velocity": 2, "duration": 223}, {"note": 67, "velocity": 1, "duration": 1099}]]