[[{"note": 70, "velocity": 119, "duration": 101}, {"note": 0, "velocity": 0, "duration": 139}, {"note": 70, "velocity": 109, "duration": 88}, {"note": 0, "velocity": 0, "duration": 152}, {"note": 70, "velocity": 116, "duration": 90}, {"note": 0, "velocity": 0, "duration": 150}, {"note": 70, "velocity": 113, "duration": 92}, {"note": 0, "velocity": 0, "duration": 148}, {"note": 70, "velocity": 113, "duration": 85}, {"note": 0, "velocity": 0, "duration": 155}, {"note": 70, "velocity": 113, "duration": 84}, {"note": 0, "velocity": 0, "duration": 156}, {"note": 70, "velocity": 123, "duration": 143}, {"note": 0, "velocity": 0, "duration": 97}, {"note": 67, "velocity": 89, "duration": 153}, {"note": 0, "velocity": 0, "duration": 87}, {"note": 70, "velocity": 116, "duration": 127}, {"note": 0, "velocity": 0, "duration": 113}, {"note": 70, "velocity": 109, "duration": 99}, {"note": 0, "velocity": 0, "duration": 141}, {"note": 70, "velocity": 106, "duration": 98}, {"note": 0, "velocity": 0, "duration": 142}, {"note": 70, "velocity": 109, "duration": 102}, {"note": 0, "velocity": 0, "duration": 138}, {"note": 70, "velocity": 106, "duration": 89}, {"note": 0, "velocity": 0, "duration": 151}, {"note": 70, "velocity": 109, "duration": 90}, {"note": 0, "velocity": 0, "duration": 150}, {"note": 70, "velocity": 116, "duration": 220}, {"note": 65, "velocity": 110, "duration": 203}, {"note": 65, "velocity": 113, "duration": 106}, {"note": 0, "velocity": 0, "duration": 134}, {"note": 65, "velocity": 107, "duration": 100}, {"note": 0, "velocity": 0, "duration": 140}, {"note": 65, "velocity": 100, "duration": 96}, {"note": 0, "velocity": 0, "duration": 144}, {"note": 65, "velocity": 98, "duration": 103}, {"note": 0, "velocity": 0, "duration": 137}, {"note": 65, "velocity": 102, "duration": 202}, {"note": 67, "velocity": 108, "duration": 216}, {"note": 65, "velocity": 113, "duration": 252}, {"note": 67, "velocity": 110, "duration": 297}, {"note": 0, "velocity": 0, "duration": 1863}, {"note": 70, "velocity": 116, "duration": 110}, {"note": 0, "velocity": 0, "duration": 130}, {"note": 70, "velocity": 109, "duration": 91}, {"note": 0, "velocity": 0, "duration": 149}, {"note": 70, "velocity": 113, "duration": 103}, {"note": 0, "velocity": 0, "duration": 137}, {"note": 70, "velocity": 113, "duration": 95}, {"note": 0, "velocity": 0, "duration": 145}, {"note": 70, "velocity": 103, "duration": 100}, {"note": 0, "velocity": 0, "duration": 140}, {"note": 70, "velocity": 100, "duration": 105}, {"note": 0, "velocity": 0, "duration": 135}, {"note": 70, "velocity": 109, "duration": 192}, {"note": 67, "velocity": 96, "duration": 137}, {"note": 0, "velocity": 0, "duration": 103}, {"note": 70, "velocity": 116, "duration": 97}, {"note": 0, "velocity": 0, "duration": 143}, {"note": 70, "velocity": 109, "duration": 89}, {"note": 0, "velocity": 0, "duration": 151}, {"note": 70, "velocity": 109, "duration": 84}, {"note": 0, "velocity": 0, "duration": 156}, {"note": 70, "velocity": 106, "duration": 81}, {"note": 0, "velocity": 0, "duration": 159}, {"note": 70, "velocity": 103, "duration": 93}, {"note": 0, "velocity": 0, "duration": 147}, {"note": 70, "velocity": 109, "duration": 88}, {"note": 0, "velocity": 0, "duration": 152}, {"note": 70, "velocity": 113, "duration": 212}, {"note": 65, "velocity": 91, "duration": 118}, {"note": 0, "velocity": 0, "duration": 122}, {"note": 65, "velocity": 110, "duration": 104}, {"note": 0, "velocity": 0, "duration": 136}, {"note": 65, "velocity": 102, "duration": 94}, {"note": 0, "velocity": 0, "duration": 146}, {"note": 65, "velocity": 98, "duration": 100}, {"note": 0, "velocity": 0, "duration": 140}, {"note": 65, "velocity": 91, "duration": 97}, {"note": 0, "velocity": 0, "duration": 143}, {"note": 65, "velocity": 100, "duration": 110}, {"note": 0, "velocity": 0, "duration": 130}, {"note": 67, "velocity": 100, "duration": 110}, {"note": 0, "velocity": 0, "duration": 130}, {"note": 65, "velocity": 102, "duration": 96}, {"note": 0, "velocity": 0, "duration": 144}, {"note": 67, "velocity": 108, "duration": 232}, {"note": 0, "velocity": 0, "duration": 1928}, {"note": 67, "velocity": 116, "duration": 137}, {"note": 0, "velocity": 0, "duration": 103}, {"note": 67, "velocity": 107, "duration": 112}, {"note": 0, "velocity": 0, "duration": 128}, {"note": 67, "velocity": 92, "duration": 94}, {"note": 0, "velocity": 0, "duration": 146}, {"note": 69, "velocity": 108, "duration": 267}, {"note": 70, "velocity": 106, "duration": 138}, {"note": 0, "velocity": 0, "duration": 102}, {"note": 74, "velocity": 110, "duration": 137}, {"note": 0, "velocity": 0, "duration": 103}, {"note": 72, "velocity": 108, "duration": 193}, {"note": 70, "velocity": 113, "duration": 203}, {"note": 69, "velocity": 108, "duration": 253}, {"note": 67, "velocity": 100, "duration": 136}, {"note": 0, "velocity": 0, "duration": 104}, {"note": 69, "velocity": 110, "duration": 190}, {"note": 67, "velocity": 104, "duration": 118}, {"note": 69, "velocity": 110, "duration": 266}, {"note": 0, "velocity": 0, "duration": 814}, {"note": 65, "velocity": 114, "duration": 113}, {"note": 0, "velocity": 0, "duration": 127}, {"note": 65, "velocity": 102, "duration": 107}, {"note": 0, "velocity": 0, "duration": 133}, {"note": 65, "velocity": 98, "duration": 116}, {"note": 0, "velocity": 0, "duration": 124}, {"note": 67, "velocity": 116, "duration": 97}, {"note": 0, "velocity": 0, "duration": 143}, {"note": 69, "velocity": 108, "duration": 118}, {"note": 0, "velocity": 0, "duration": 122}, {"note": 72, "velocity": 109, "duration": 137}, {"note": 0, "velocity": 0, "duration": 103}, {"note": 70, "velocity": 116, "duration": 220}, {"note": 69, "velocity": 108, "duration": 223}, {"note": 67, "velocity": 93, "duration": 136}, {"note": 0, "velocity": 0, "duration": 104}, {"note": 65, "velocity": 108, "duration": 170}, {"note": 0, "velocity": 0, "duration": 70}, {"note": 67, "velocity": 107, "duration": 121}, {"note": 0, "velocity": 0, "duration": 119}, {"note": 65, "velocity": 108, "duration": 142}, {"note": 0, "velocity": 0, "duration": 98}, {"note": 67, "velocity": 110, "duration": 174}, {"note": 0, "velocity": 0, "duration": 786}, {"note": 67, "velocity": 113, "duration": 112}, {"note": 0, "velocity": 0, "duration": 128}, {"note": 67, "velocity": 108, "duration": 100}, {"note": 0, "velocity": 0, "duration": 140}, {"note": 67, "velocity": 107, "duration": 139}, {"note": 0, "velocity": 0, "duration": 101}, {"note": 69, "velocity": 108, "duration": 203}, {"note": 70, "velocity": 103, "duration": 138}, {"note": 0, "velocity": 0, "duration": 102}, {"note": 74, "velocity": 110, "duration": 166}, {"note": 0, "velocity": 0, "duration": 74}, {"note": 72, "velocity": 102, "duration": 227}, {"note": 70, "velocity": 109, "duration": 231}, {"note": 69, "velocity": 102, "duration": 212}, {"note": 67, "velocity": 88, "duration": 156}, {"note": 0, "velocity": 0, "duration": 84}, {"note": 69, "velocity": 108, "duration": 102}, {"note": 0, "velocity": 0, "duration": 138}, {"note": 69, "velocity": 113, "duration": 214}, {"note": 0, "velocity": 0, "duration": 986}, {"note": 65, "velocity": 113, "duration": 115}, {"note": 0, "velocity": 0, "duration": 125}, {"note": 65, "velocity": 108, "duration": 116}, {"note": 0, "velocity": 0, "duration": 124}, {"note": 65, "velocity": 107, "duration": 130}, {"note": 0, "velocity": 0, "duration": 110}, {"note": 67, "velocity": 107, "duration": 144}, {"note": 0, "velocity": 0, "duration": 96}, {"note": 69, "velocity": 107, "duration": 107}, {"note": 0, "velocity": 0, "duration": 133}, {"note": 72, "velocity": 104, "duration": 157}, {"note": 0, "velocity": 0, "duration": 83}, {"note": 70, "velocity": 103, "duration": 171}, {"note": 0, "velocity": 0, "duration": 69}, {"note": 69, "velocity": 98, "duration": 195}, {"note": 67, "velocity": 108, "duration": 264}, {"note": 0, "velocity": 0, "duration": 1656}, {"note": 74, "velocity": 117, "duration": 322}, {"note": 0, "velocity": 0, "duration": 158}, {"note": 70, "velocity": 116, "duration": 276}, {"note": 0, "velocity": 0, "duration": 204}, {"note": 72, "velocity": 113, "duration": 318}, {"note": 0, "velocity": 0, "duration": 162}, {"note": 67, "velocity": 107, "duration": 223}, {"note": 0, "velocity": 0, "duration": 257}, {"note": 74, "velocity": 113, "duration": 191}, {"note": 72, "velocity": 113, "duration": 232}, {"note": 70, "velocity": 116, "duration": 224}, {"note": 72, "velocity": 107, "duration": 231}, {"note": 67, "velocity": 113, "duration": 292}, {"note": 0, "velocity": 0, "duration": 668}, {"note": 74, "velocity": 93, "duration": 510}, {"note": 70, "velocity": 119, "duration": 318}, {"note": 0, "velocity": 0, "duration": 162}, {"note": 72, "velocity": 120, "duration": 336}, {"note": 0, "velocity": 0, "duration": 144}, {"note": 72, "velocity": 117, "duration": 198}, {"note": 0, "velocity": 0, "duration": 282}, {"note": 77, "velocity": 108, "duration": 259}, {"note": 74, "velocity": 110, "duration": 268}, {"note": 69, "velocity": 113, "duration": 339}, {"note": 0, "velocity": 0, "duration": 141}, {"note": 70, "velocity": 119, "duration": 261}, {"note": 0, "velocity": 0, "duration": 219}, {"note": 70, "velocity": 123, "duration": 208}, {"note": 69, "velocity": 108, "duration": 239}, {"note": 67, "velocity": 114, "duration": 405}, {"note": 0, "velocity": 0, "duration": 75}, {"note": 69, "velocity": 113, "duration": 219}, {"note": 70, "velocity": 113, "duration": 168}, {"note": 0, "velocity": 0, "duration": 72}, {"note": 72, "velocity": 117, "duration": 267}, {"note": 0, "velocity": 0, "duration": 213}, {"note": 65, "velocity": 116, "duration": 272}, {"note": 0, "velocity": 0, "duration": 208}, {"note": 79, "velocity": 120, "duration": 301}, {"note": 77, "velocity": 116, "duration": 208}, {"note": 74, "velocity": 117, "duration": 286}, {"note": 0, "velocity": 0, "duration": 194}, {"note": 74, "velocity": 119, "duration": 293}, {"note": 0, "velocity": 0, "duration": 427}, {"note": 72, "velocity": 108, "duration": 235}, {"note": 70, "velocity": 119, "duration": 249}, {"note": 0, "velocity": 0, "duration": 231}, {"note": 74, "velocity": 119, "duration": 312}, {"note": 0, "velocity": 0, "duration": 168}, {"note": 72, "velocity": 117, "duration": 217}, {"note": 74, "velocity": 114, "duration": 229}, {"note": 72, "velocity": 110, "duration": 109}, {"note": 0, "velocity": 0, "duration": 131}, {"note": 77, "velocity": 116, "duration": 395}, {"note": 0, "velocity": 0, "duration": 325}, {"note": 77, "velocity": 117, "duration": 87}, {"note": 0, "velocity": 0, "duration": 153}, {"note": 77, "velocity": 113, "duration": 76}, {"note": 0, "velocity": 0, "duration": 164}, {"note": 77, "velocity": 114, "duration": 77}, {"note": 0, "velocity": 0, "duration": 163}, {"note": 77, "velocity": 114, "duration": 80}, {"note": 0, "velocity": 0, "duration": 160}, {"note": 77, "velocity": 116, "duration": 168}, {"note": 0, "velocity": 0, "duration": 312}, {"note": 74, "velocity": 117, "duration": 322}, {"note": 0, "velocity": 0, "duration": 158}, {"note": 70, "velocity": 116, "duration": 276}, {"note": 0, "velocity": 0, "duration": 204}, {"note": 72, "velocity": 113, "duration": 318}, {"note": 0, "velocity": 0, "duration": 162}, {"note": 67, "velocity": 107, "duration": 223}, {"note": 0, "velocity": 0, "duration": 257}, {"note": 74, "velocity": 113, "duration": 191}, {"note": 72, "velocity": 113, "duration": 232}, {"note": 70, "velocity": 116, "duration": 224}, {"note": 72, "velocity": 107, "duration": 231}, {"note": 67, "velocity": 113, "duration": 292}, {"note": 0, "velocity": 0, "duration": 668}, {"note": 74, "velocity": 93, "duration": 510}, {"note": 70, "velocity": 119, "duration": 318}, {"note": 0, "velocity": 0, "duration": 162}, {"note": 72, "velocity": 120, "duration": 336}, {"note": 0, "velocity": 0, "duration": 144}, {"note": 72, "velocity": 117, "duration": 198}, {"note": 0, "velocity": 0, "duration": 282}, {"note": 77, "velocity": 108, "duration": 259}, {"note": 74, "velocity": 110, "duration": 268}, {"note": 69, "velocity": 113, "duration": 339}, {"note": 0, "velocity": 0, "duration": 141}, {"note": 70, "velocity": 119, "duration": 261}, {"note": 0, "velocity": 0, "duration": 219}, {"note": 70, "velocity": 123, "duration": 208}, {"note": 69, "velocity": 108, "duration": 239}, {"note": 67, "velocity": 114, "duration": 405}, {"note": 0, "velocity": 0, "duration": 75}, {"note": 69, "velocity": 113, "duration": 219}, {"note": 70, "velocity": 113, "duration": 168}, {"note": 0, "velocity": 0, "duration": 72}, {"note": 72, "velocity": 117, "duration": 267}, {"note": 0, "velocity": 0, "duration": 213}, {"note": 65, "velocity": 116, "duration": 272}, {"note": 0, "velocity": 0, "duration": 208}, {"note": 79, "velocity": 120, "duration": 301}, {"note": 77, "velocity": 116, "duration": 208}, {"note": 74, "velocity": 117, "duration": 286}, {"note": 0, "velocity": 0, "duration": 194}, {"note": 74, "velocity": 119, "duration": 293}, {"note": 0, "velocity": 0, "duration": 427}, {"note": 72, "velocity": 108, "duration": 235}, {"note": 70, "velocity": 119, "duration": 249}, {"note": 0, "velocity": 0, "duration": 231}, {"note": 74, "velocity": 119, "duration": 312}, {"note": 0, "velocity": 0, "duration": 168}, {"note": 72, "velocity": 117, "duration": 217}, {"note": 0, "velocity": 0, "duration": 263}, {"note": 65, "velocity": 116, "duration": 328}, {"note": 0, "velocity": 0, "duration": 152}, {"note": 67, "velocity": 114, "duration": 297}, {"note": 0, "velocity": 0, "duration": 183}, {"note": 70, "velocity": 119, "duration": 297}, {"note": 0, "velocity": 0, "duration": 183}, {"note": 67, "velocity": 117, "duration": 321}, {"note": 0, "velocity": 0, "duration": 15999}, {"note": 70, "velocity": 119, "duration": 101}, {"note": 0, "velocity": 0, "duration": 139}, {"note": 70, "velocity": 109, "duration": 88}, {"note": 0, "velocity": 0, "duration": 152}, {"note": 70, "velocity": 116, "duration": 90}, {"note": 0, "velocity": 0, "duration": 150}, {"note": 70, "velocity": 113, "duration": 92}, {"note": 0, "velocity": 0, "duration": 148}, {"note": 70, "velocity": 113, "duration": 85}, {"note": 0, "velocity": 0, "duration": 155}, {"note": 70, "velocity": 113, "duration": 84}, {"note": 0, "velocity": 0, "duration": 156}, {"note": 70, "velocity": 123, "duration": 143}, {"note": 0, "velocity": 0, "duration": 97}, {"note": 67, "velocity": 89, "duration": 153}, {"note": 0, "velocity": 0, "duration": 87}, {"note": 70, "velocity": 116, "duration": 127}, {"note": 0, "velocity": 0, "duration": 113}, {"note": 70, "velocity": 109, "duration": 99}, {"note": 0, "velocity": 0, "duration": 141}, {"note": 70, "velocity": 106, "duration": 98}, {"note": 0, "velocity": 0, "duration": 142}, {"note": 70, "velocity": 109, "duration": 102}, {"note": 0, "velocity": 0, "duration": 138}, {"note": 70, "velocity": 106, "duration": 89}, {"note": 0, "velocity": 0, "duration": 151}, {"note": 70, "velocity": 109, "duration": 90}, {"note": 0, "velocity": 0, "duration": 150}, {"note": 70, "velocity": 116, "duration": 220}, {"note": 65, "velocity": 110, "duration": 203}, {"note": 65, "velocity": 113, "duration": 106}, {"note": 0, "velocity": 0, "duration": 134}, {"note": 65, "velocity": 107, "duration": 100}, {"note": 0, "velocity": 0, "duration": 140}, {"note": 65, "velocity": 100, "duration": 96}, {"note": 0, "velocity": 0, "duration": 144}, {"note": 65, "velocity": 98, "duration": 103}, {"note": 0, "velocity": 0, "duration": 137}, {"note": 65, "velocity": 102, "duration": 202}, {"note": 67, "velocity": 108, "duration": 216}, {"note": 65, "velocity": 113, "duration": 252}, {"note": 67, "velocity": 110, "duration": 297}, {"note": 0, "velocity": 0, "duration": 1863}, {"note": 70, "velocity": 116, "duration": 110}, {"note": 0, "velocity": 0, "duration": 130}, {"note": 70, "velocity": 109, "duration": 91}, {"note": 0, "velocity": 0, "duration": 149}, {"note": 70, "velocity": 113, "duration": 103}, {"note": 0, "velocity": 0, "duration": 137}, {"note": 70, "velocity": 113, "duration": 95}, {"note": 0, "velocity": 0, "duration": 145}, {"note": 70, "velocity": 103, "duration": 100}, {"note": 0, "velocity": 0, "duration": 140}, {"note": 70, "velocity": 100, "duration": 105}, {"note": 0, "velocity": 0, "duration": 135}, {"note": 70, "velocity": 109, "duration": 192}, {"note": 67, "velocity": 96, "duration": 137}, {"note": 0, "velocity": 0, "duration": 103}, {"note": 70, "velocity": 116, "duration": 97}, {"note": 0, "velocity": 0, "duration": 143}, {"note": 70, "velocity": 109, "duration": 89}, {"note": 0, "velocity": 0, "duration": 151}, {"note": 70, "velocity": 109, "duration": 84}, {"note": 0, "velocity": 0, "duration": 156}, {"note": 70, "velocity": 106, "duration": 81}, {"note": 0, "velocity": 0, "duration": 159}, {"note": 70, "velocity": 103, "duration": 93}, {"note": 0, "velocity": 0, "duration": 147}, {"note": 70, "velocity": 109, "duration": 88}, {"note": 0, "velocity": 0, "duration": 152}, {"note": 70, "velocity": 113, "duration": 212}, {"note": 65, "velocity": 91, "duration": 118}, {"note": 0, "velocity": 0, "duration": 122}, {"note": 65, "velocity": 110, "duration": 104}, {"note": 0, "velocity": 0, "duration": 136}, {"note": 65, "velocity": 102, "duration": 94}, {"note": 0, "velocity": 0, "duration": 146}, {"note": 65, "velocity": 98, "duration": 100}, {"note": 0, "velocity": 0, "duration": 140}, {"note": 65, "velocity": 91, "duration": 97}, {"note": 0, "velocity": 0, "duration": 143}, {"note": 65, "velocity": 100, "duration": 110}, {"note": 0, "velocity": 0, "duration": 130}, {"note": 67, "velocity": 100, "duration": 110}, {"note": 0, "velocity": 0, "duration": 130}, {"note": 65, "velocity": 102, "duration": 96}, {"note": 0, "velocity": 0, "duration": 144}, {"note": 67, "velocity": 108, "duration": 232}, {"note": 0, "velocity": 0, "duration": 1928}, {"note": 67, "velocity": 116, "duration": 137}, {"note": 0, "velocity": 0, "duration": 103}, {"note": 67, "velocity": 107, "duration": 112}, {"note": 0, "velocity": 0, "duration": 128}, {"note": 67, "velocity": 92, "duration": 94}, {"note": 0, "velocity": 0, "duration": 146}, {"note": 69, "velocity": 108, "duration": 267}, {"note": 70, "velocity": 106, "duration": 138}, {"note": 0, "velocity": 0, "duration": 102}, {"note": 74, "velocity": 110, "duration": 137}, {"note": 0, "velocity": 0, "duration": 103}, {"note": 72, "velocity": 108, "duration": 193}, {"note": 70, "velocity": 113, "duration": 203}, {"note": 69, "velocity": 108, "duration": 253}, {"note": 67, "velocity": 100, "duration": 136}, {"note": 0, "velocity": 0, "duration": 104}, {"note": 69, "velocity": 110, "duration": 190}, {"note": 67, "velocity": 104, "duration": 118}, {"note": 0, "velocity": 0, "duration": 122}, {"note": 69, "velocity": 110, "duration": 266}, {"note": 0, "velocity": 0, "duration": 694}, {"note": 65, "velocity": 114, "duration": 113}, {"note": 0, "velocity": 0, "duration": 127}, {"note": 65, "velocity": 102, "duration": 107}, {"note": 0, "velocity": 0, "duration": 133}, {"note": 65, "velocity": 98, "duration": 116}, {"note": 0, "velocity": 0, "duration": 124}, {"note": 67, "velocity": 116, "duration": 97}, {"note": 0, "velocity": 0, "duration": 143}, {"note": 69, "velocity": 108, "duration": 118}, {"note": 0, "velocity": 0, "duration": 122}, {"note": 72, "velocity": 109, "duration": 137}, {"note": 0, "velocity": 0, "duration": 103}, {"note": 70, "velocity": 116, "duration": 220}, {"note": 69, "velocity": 108, "duration": 223}, {"note": 67, "velocity": 93, "duration": 136}, {"note": 0, "velocity": 0, "duration": 104}, {"note": 65, "velocity": 108, "duration": 170}, {"note": 0, "velocity": 0, "duration": 70}, {"note": 67, "velocity": 107, "duration": 121}, {"note": 0, "velocity": 0, "duration": 119}, {"note": 65, "velocity": 108, "duration": 142}, {"note": 0, "velocity": 0, "duration": 98}, {"note": 67, "velocity": 110, "duration": 174}, {"note": 0, "velocity": 0, "duration": 786}, {"note": 67, "velocity": 113, "duration": 112}, {"note": 0, "velocity": 0, "duration": 128}, {"note": 67, "velocity": 108, "duration": 100}, {"note": 0, "velocity": 0, "duration": 140}, {"note": 67, "velocity": 107, "duration": 139}, {"note": 0, "velocity": 0, "duration": 101}, {"note": 69, "velocity": 108, "duration": 203}, {"note": 70, "velocity": 103, "duration": 138}, {"note": 0, "velocity": 0, "duration": 102}, {"note": 74, "velocity": 110, "duration": 166}, {"note": 0, "velocity": 0, "duration": 74}, {"note": 72, "velocity": 102, "duration": 227}, {"note": 70, "velocity": 109, "duration": 231}, {"note": 69, "velocity": 102, "duration": 212}, {"note": 67, "velocity": 88, "duration": 156}, {"note": 0, "velocity": 0, "duration": 84}, {"note": 69, "velocity": 108, "duration": 102}, {"note": 0, "velocity": 0, "duration": 138}, {"note": 67, "velocity": 113, "duration": 214}, {"note": 69, "velocity": 113, "duration": 214}, {"note": 0, "velocity": 0, "duration": 746}, {"note": 65, "velocity": 113, "duration": 115}, {"note": 0, "velocity": 0, "duration": 125}, {"note": 65, "velocity": 108, "duration": 116}, {"note": 0, "velocity": 0, "duration": 124}, {"note": 65, "velocity": 107, "duration": 130}, {"note": 0, "velocity": 0, "duration": 110}, {"note": 67, "velocity": 107, "duration": 144}, {"note": 0, "velocity": 0, "duration": 96}, {"note": 69, "velocity": 107, "duration": 107}, {"note": 0, "velocity": 0, "duration": 133}, {"note": 72, "velocity": 104, "duration": 157}, {"note": 0, "velocity": 0, "duration": 83}, {"note": 70, "velocity": 103, "duration": 171}, {"note": 0, "velocity": 0, "duration": 69}, {"note": 69, "velocity": 98, "duration": 195}, {"note": 67, "velocity": 108, "duration": 264}, {"note": 0, "velocity": 0, "duration": 1656}, {"note": 74, "velocity": 117, "duration": 322}, {"note": 0, "velocity": 0, "duration": 158}, {"note": 70, "velocity": 116, "duration": 276}, {"note": 0, "velocity": 0, "duration": 204}, {"note": 72, "velocity": 113, "duration": 318}, {"note": 0, "velocity": 0, "duration": 162}, {"note": 67, "velocity": 107, "duration": 223}, {"note": 0, "velocity": 0, "duration": 257}, {"note": 74, "velocity": 113, "duration": 191}, {"note": 72, "velocity": 113, "duration": 232}, {"note": 70, "velocity": 116, "duration": 224}, {"note": 72, "velocity": 107, "duration": 231}, {"note": 67, "velocity": 113, "duration": 292}, {"note": 0, "velocity": 0, "duration": 668}, {"note": 74, "velocity": 93, "duration": 510}, {"note": 70, "velocity": 119, "duration": 318}, {"note": 0, "velocity": 0, "duration": 162}, {"note": 72, "velocity": 120, "duration": 336}, {"note": 0, "velocity": 0, "duration": 144}, {"note": 72, "velocity": 117, "duration": 198}, {"note": 0, "velocity": 0, "duration": 282}, {"note": 77, "velocity": 108, "duration": 259}, {"note": 74, "velocity": 110, "duration": 268}, {"note": 69, "velocity": 113, "duration": 339}, {"note": 0, "velocity": 0, "duration": 141}, {"note": 70, "velocity": 119, "duration": 261}, {"note": 0, "velocity": 0, "duration": 219}, {"note": 70, "velocity": 123, "duration": 208}, {"note": 69, "velocity": 108, "duration": 239}, {"note": 67, "velocity": 114, "duration": 405}, {"note": 0, "velocity": 0, "duration": 75}, {"note": 69, "velocity": 113, "duration": 219}, {"note": 70, "velocity": 113, "duration": 168}, {"note": 0, "velocity": 0, "duration": 72}, {"note": 72, "velocity": 117, "duration": 267}, {"note": 0, "velocity": 0, "duration": 213}, {"note": 65, "velocity": 116, "duration": 272}, {"note": 0, "velocity": 0, "duration": 208}, {"note": 79, "velocity": 120, "duration": 301}, {"note": 77, "velocity": 116, "duration": 208}, {"note": 74, "velocity": 117, "duration": 286}, {"note": 0, "velocity": 0, "duration": 194}, {"note": 74, "velocity": 119, "duration": 293}, {"note": 0, "velocity": 0, "duration": 427}, {"note": 72, "velocity": 108, "duration": 235}, {"note": 70, "velocity": 119, "duration": 249}, {"note": 0, "velocity": 0, "duration": 231}, {"note": 74, "velocity": 119, "duration": 312}, {"note": 0, "velocity": 0, "duration": 168}, {"note": 72, "velocity": 117, "duration": 217}, {"note": 74, "velocity": 114, "duration": 229}, {"note": 72, "velocity": 110, "duration": 109}, {"note": 0, "velocity": 0, "duration": 131}, {"note": 77, "velocity": 116, "duration": 395}, {"note": 0, "velocity": 0, "duration": 325}, {"note": 77, "velocity": 117, "duration": 87}, {"note": 0, "velocity": 0, "duration": 153}, {"note": 77, "velocity": 113, "duration": 76}, {"note": 0, "velocity": 0, "duration": 164}, {"note": 77, "velocity": 114, "duration": 77}, {"note": 0, "velocity": 0, "duration": 163}, {"note": 77, "velocity": 114, "duration": 80}, {"note": 0, "velocity": 0, "duration": 160}, {"note": 77, "velocity": 116, "duration": 168}, {"note": 0, "velocity": 0, "duration": 312}, {"note": 74, "velocity": 117, "duration": 322}, {"note": 0, "velocity": 0, "duration": 158}, {"note": 70, "velocity": 116, "duration": 276}, {"note": 0, "velocity": 0, "duration": 204}, {"note": 72, "velocity": 113, "duration": 318}, {"note": 0, "velocity": 0, "duration": 162}, {"note": 67, "velocity": 107, "duration": 223}, {"note": 0, "velocity": 0, "duration": 257}, {"note": 74, "velocity": 113, "duration": 191}, {"note": 72, "velocity": 113, "duration": 232}, {"note": 70, "velocity": 116, "duration": 224}, {"note": 72, "velocity": 107, "duration": 231}, {"note": 67, "velocity": 113, "duration": 292}, {"note": 0, "velocity": 0, "duration": 668}, {"note": 74, "velocity": 93, "duration": 510}, {"note": 70, "velocity": 119, "duration": 318}, {"note": 0, "velocity": 0, "duration": 162}, {"note": 72, "velocity": 120, "duration": 336}, {"note": 0, "velocity": 0, "duration": 144}, {"note": 72, "velocity": 117, "duration": 198}, {"note": 0, "velocity": 0, "duration": 282}, {"note": 77, "velocity": 108, "duration": 259}, {"note": 74, "velocity": 110, "duration": 268}, {"note": 69, "velocity": 113, "duration": 339}, {"note": 0, "velocity": 0, "duration": 141}, {"note": 70, "velocity": 119, "duration": 261}, {"note": 0, "velocity": 0, "duration": 219}, {"note": 70, "velocity": 123, "duration": 208}, {"note": 69, "velocity": 108, "duration": 239}, {"note": 67, "velocity": 114, "duration": 405}, {"note": 0, "velocity": 0, "duration": 75}, {"note": 69, "velocity": 113, "duration": 219}, {"note": 70, "velocity": 113, "duration": 168}, {"note": 0, "velocity": 0, "duration": 72}, {"note": 72, "velocity": 117, "duration": 267}, {"note": 0, "velocity": 0, "duration": 213}, {"note": 65, "velocity": 116, "duration": 272}, {"note": 0, "velocity": 0, "duration": 208}, {"note": 79, "velocity": 120, "duration": 301}, {"note": 77, "velocity": 116, "duration": 208}, {"note": 74, "velocity": 117, "duration": 286}, {"note": 0, "velocity": 0, "duration": 194}, {"note": 74, "velocity": 119, "duration": 293}, {"note": 0, "velocity": 0, "duration": 427}, {"note": 72, "velocity": 108, "duration": 235}, {"note": 70, "velocity": 119, "duration": 249}, {"note": 0, "velocity": 0, "duration": 231}, {"note": 74, "velocity": 119, "duration": 312}, {"note": 0, "velocity": 0, "duration": 168}, {"note": 72, "velocity": 117, "duration": 217}, {"note": 0, "velocity": 0, "duration": 263}, {"note": 65, "velocity": 116, "duration": 328}, {"note": 0, "velocity": 0, "duration": 152}, {"note": 67, "velocity": 114, "duration": 297}, {"note": 0, "velocity": 0, "duration": 183}, {"note": 70, "velocity": 119, "duration": 297}, {"note": 0, "velocity": 0, "duration": 183}, {"note": 67, "velocity": 117, "duration": 321}, {"note": 0, "velocity": 0, "duration": 15999}, {"note": 74, "velocity": 117, "duration": 322}, {"note": 0, "velocity": 0, "duration": 158}, {"note": 70, "velocity": 116, "duration": 276}, {"note": 0, "velocity": 0, "duration": 204}, {"note": 72, "velocity": 113, "duration": 318}, {"note": 0, "velocity": 0, "duration": 162}, {"note": 67, "velocity": 107, "duration": 223}, {"note": 0, "velocity": 0, "duration": 257}, {"note": 74, "velocity": 113, "duration": 191}, {"note": 72, "velocity": 113, "duration": 232}, {"note": 70, "velocity": 116, "duration": 224}, {"note": 72, "velocity": 107, "duration": 231}, {"note": 67, "velocity": 113, "duration": 292}, {"note": 0, "velocity": 0, "duration": 668}, {"note": 74, "velocity": 93, "duration": 510}, {"note": 70, "velocity": 119, "duration": 318}, {"note": 0, "velocity": 0, "duration": 162}, {"note": 72, "velocity": 120, "duration": 336}, {"note": 0, "velocity": 0, "duration": 144}, {"note": 72, "velocity": 117, "duration": 198}, {"note": 0, "velocity": 0, "duration": 282}, {"note": 77, "velocity": 108, "duration": 259}, {"note": 74, "velocity": 110, "duration": 268}, {"note": 69, "velocity": 113, "duration": 339}, {"note": 0, "velocity": 0, "duration": 141}, {"note": 70, "velocity": 119, "duration": 261}, {"note": 0, "velocity": 0, "duration": 219}, {"note": 70, "velocity": 123, "duration": 208}, {"note": 69, "velocity": 108, "duration": 239}, {"note": 67, "velocity": 114, "duration": 405}, {"note": 0, "velocity": 0, "duration": 75}, {"note": 69, "velocity": 113, "duration": 219}, {"note": 70, "velocity": 113, "duration": 168}, {"note": 0, "velocity": 0, "duration": 72}, {"note": 72, "velocity": 117, "duration": 267}, {"note": 0, "velocity": 0, "duration": 213}, {"note": 65, "velocity": 116, "duration": 272}, {"note": 0, "velocity": 0, "duration": 208}, {"note": 79, "velocity": 120, "duration": 301}, {"note": 77, "velocity": 116, "duration": 208}, {"note": 74, "velocity": 117, "duration": 286}, {"note": 0, "velocity": 0, "duration": 194}, {"note": 74, "velocity": 119, "duration": 293}, {"note": 0, "velocity": 0, "duration": 427}, {"note": 72, "velocity": 108, "duration": 235}, {"note": 70, "velocity": 119, "duration": 249}, {"note": 0, "velocity": 0, "duration": 231}, {"note": 74, "velocity": 119, "duration": 312}, {"note": 0, "velocity": 0, "duration": 168}, {"note": 72, "velocity": 117, "duration": 217}, {"note": 74, "velocity": 114, "duration": 229}, {"note": 72, "velocity": 110, "duration": 109}, {"note": 0, "velocity": 0, "duration": 131}, {"note": 77, "velocity": 116, "duration": 395}, {"note": 0, "velocity": 0, "duration": 325}, {"note": 77, "velocity": 117, "duration": 87}, {"note": 0, "velocity": 0, "duration": 153}, {"note": 77, "velocity": 113, "duration": 76}, {"note": 0, "velocity": 0, "duration": 164}, {"note": 77, "velocity": 114, "duration": 77}, {"note": 0, "velocity": 0, "duration": 163}, {"note": 77, "velocity": 114, "duration": 80}, {"note": 0, "velocity": 0, "duration": 160}, {"note": 77, "velocity": 116, "duration": 168}, {"note": 0, "velocity": 0, "duration": 312}, {"note": 74, "velocity": 117, "duration": 322}, {"note": 0, "velocity": 0, "duration": 158}, {"note": 70, "velocity": 116, "duration": 276}, {"note": 0, "velocity": 0, "duration": 204}, {"note": 72, "velocity": 113, "duration": 318}, {"note": 0, "velocity": 0, "duration": 162}, {"note": 67, "velocity": 107, "duration": 223}, {"note": 0, "velocity": 0, "duration": 257}, {"note": 74, "velocity": 113, "duration": 191}, {"note": 72, "velocity": 113, "duration": 232}, {"note": 70, "velocity": 116, "duration": 224}, {"note": 72, "velocity": 107, "duration": 231}, {"note": 67, "velocity": 113, "duration": 292}, {"note": 0, "velocity": 0, "duration": 668}, {"note": 74, "velocity": 93, "duration": 510}, {"note": 70, "velocity": 119, "duration": 318}, {"note": 0, "velocity": 0, "duration": 162}, {"note": 72, "velocity": 120, "duration": 336}, {"note": 0, "velocity": 0, "duration": 144}, {"note": 72, "velocity": 117, "duration": 198}, {"note": 0, "velocity": 0, "duration": 282}, {"note": 77, "velocity": 108, "duration": 259}, {"note": 74, "velocity": 110, "duration": 268}, {"note": 69, "velocity": 113, "duration": 339}, {"note": 0, "velocity": 0, "duration": 141}, {"note": 70, "velocity": 119, "duration": 261}, {"note": 0, "velocity": 0, "duration": 219}, {"note": 70, "velocity": 123, "duration": 208}, {"note": 69, "velocity": 108, "duration": 239}, {"note": 67, "velocity": 114, "duration": 405}, {"note": 0, "velocity": 0, "duration": 75}, {"note": 69, "velocity": 113, "duration": 219}, {"note": 70, "velocity": 113, "duration": 168}, {"note": 0, "velocity": 0, "duration": 72}, {"note": 72, "velocity": 117, "duration": 267}, {"note": 0, "velocity": 0, "duration": 213}, {"note": 65, "velocity": 116, "duration": 272}, {"note": 0, "velocity": 0, "duration": 208}, {"note": 79, "velocity": 120, "duration": 301}, {"note": 77, "velocity": 116, "duration": 208}, {"note": 74, "velocity": 117, "duration": 286}, {"note": 0, "velocity": 0, "duration": 194}, {"note": 74, "velocity": 119, "duration": 293}, {"note": 0, "velocity": 0, "duration": 427}, {"note": 72, "velocity": 108, "duration": 235}, {"note": 70, "velocity": 119, "duration": 249}, {"note": 0, "velocity": 0, "duration": 231}, {"note": 74, "velocity": 119, "duration": 312}, {"note": 0, "velocity": 0, "duration": 168}, {"note": 72, "velocity": 117, "duration": 217}, {"note": 0, "velocity": 0, "duration": 263}, {"note": 65, "velocity": 116, "duration": 328}, {"note": 0, "velocity": 0, "duration": 152}, {"note": 67, "velocity": 114, "duration": 297}, {"note": 0, "velocity": 0, "duration": 183}, {"note": 70, "velocity": 119, "duration": 297}, {"note": 0, "velocity": 0, "duration": 183}, {"note": 67, "velocity": 117, "duration": 321}]]