[[{"note": 61, "velocity": 117, "duration": 239}, {"note": 61, "velocity": 117, "duration": 240}, {"note": 64, "velocity": 119, "duration": 240}, {"note": 63, "velocity": 119, "duration": 240}, {"note": 61, "velocity": 119, "duration": 959}, {"note": 61, "velocity": 120, "duration": 239}, {"note": 61, "velocity": 116, "duration": 240}, {"note": 68, "velocity": 120, "duration": 240}, {"note": 66, "velocity": 119, "duration": 240}, {"note": 68, "velocity": 119, "duration": 959}, {"note": 68, "velocity": 119, "duration": 239}, {"note": 68, "velocity": 119, "duration": 240}, {"note": 71, "velocity": 114, "duration": 240}, {"note": 68, "velocity": 116, "duration": 240}, {"note": 66, "velocity": 117, "duration": 242}, {"note": 66, "velocity": 113, "duration": 2}, {"note": 0, "velocity": 0, "duration": 238}, {"note": 66, "velocity": 116, "duration": 240}, {"note": 64, "velocity": 113, "duration": 130}, {"note": 63, "velocity": 107, "duration": 120}, {"note": 61, "velocity": 116, "duration": 720}, {"note": 59, "velocity": 104, "duration": 240}, {"note": 56, "velocity": 107, "duration": 960}, {"note": 61, "velocity": 102, "duration": 239}, {"note": 61, "velocity": 94, "duration": 240}, {"note": 64, "velocity": 113, "duration": 240}, {"note": 63, "velocity": 104, "duration": 240}, {"note": 61, "velocity": 104, "duration": 959}, {"note": 61, "velocity": 107, "duration": 239}, {"note": 61, "velocity": 104, "duration": 240}, {"note": 68, "velocity": 113, "duration": 240}, {"note": 66, "velocity": 114, "duration": 240}, {"note": 68, "velocity": 117, "duration": 959}, {"note": 68, "velocity": 114, "duration": 239}, {"note": 68, "velocity": 114, "duration": 240}, {"note": 71, "velocity": 110, "duration": 240}, {"note": 68, "velocity": 116, "duration": 240}, {"note": 66, "velocity": 116, "duration": 239}, {"note": 66, "velocity": 110, "duration": 239}, {"note": 66, "velocity": 110, "duration": 240}, {"note": 64, "velocity": 110, "duration": 240}, {"note": 63, "velocity": 114, "duration": 240}, {"note": 61, "velocity": 108, "duration": 239}, {"note": 61, "velocity": 113, "duration": 240}, {"note": 59, "velocity": 107, "duration": 240}, {"note": 61, "velocity": 113, "duration": 960}, {"note": 75, "velocity": 116, "duration": 240}, {"note": 73, "velocity": 117, "duration": 480}, {"note": 68, "velocity": 116, "duration": 240}, {"note": 75, "velocity": 117, "duration": 240}, {"note": 73, "velocity": 117, "duration": 480}, {"note": 68, "velocity": 107, "duration": 240}, {"note": 71, "velocity": 113, "duration": 240}, {"note": 73, "velocity": 113, "duration": 239}, {"note": 73, "velocity": 108, "duration": 240}, {"note": 70, "velocity": 110, "duration": 240}, {"note": 68, "velocity": 113, "duration": 960}, {"note": 75, "velocity": 117, "duration": 240}, {"note": 73, "velocity": 116, "duration": 480}, {"note": 68, "velocity": 114, "duration": 240}, {"note": 75, "velocity": 116, "duration": 240}, {"note": 73, "velocity": 117, "duration": 480}, {"note": 68, "velocity": 108, "duration": 240}, {"note": 71, "velocity": 108, "duration": 240}, {"note": 73, "velocity": 117, "duration": 239}, {"note": 73, "velocity": 114, "duration": 240}, {"note": 70, "velocity": 113, "duration": 240}, {"note": 68, "velocity": 116, "duration": 960}, {"note": 66, "velocity": 114, "duration": 239}, {"note": 66, "velocity": 108, "duration": 480}, {"note": 61, "velocity": 113, "duration": 240}, {"note": 66, "velocity": 116, "duration": 239}, {"note": 66, "velocity": 116, "duration": 480}, {"note": 69, "velocity": 119, "duration": 240}, {"note": 68, "velocity": 114, "duration": 240}, {"note": 66, "velocity": 113, "duration": 239}, {"note": 66, "velocity": 113, "duration": 240}, {"note": 64, "velocity": 116, "duration": 240}, {"note": 66, "velocity": 116, "duration": 959}, {"note": 66, "velocity": 114, "duration": 239}, {"note": 66, "velocity": 110, "duration": 480}, {"note": 61, "velocity": 102, "duration": 240}, {"note": 64, "velocity": 116, "duration": 239}, {"note": 64, "velocity": 116, "duration": 480}, {"note": 66, "velocity": 113, "duration": 240}, {"note": 63, "velocity": 114, "duration": 240}, {"note": 61, "velocity": 108, "duration": 239}, {"note": 61, "velocity": 113, "duration": 240}, {"note": 59, "velocity": 113, "duration": 240}, {"note": 61, "velocity": 114, "duration": 960}, {"note": 75, "velocity": 116, "duration": 240}, {"note": 73, "velocity": 117, "duration": 480}, {"note": 68, "velocity": 116, "duration": 240}, {"note": 75, "velocity": 117, "duration": 240}, {"note": 73, "velocity": 117, "duration": 480}, {"note": 68, "velocity": 107, "duration": 240}, {"note": 71, "velocity": 113, "duration": 240}, {"note": 73, "velocity": 113, "duration": 239}, {"note": 73, "velocity": 108, "duration": 240}, {"note": 70, "velocity": 110, "duration": 240}, {"note": 68, "velocity": 113, "duration": 960}, {"note": 75, "velocity": 117, "duration": 240}, {"note": 73, "velocity": 116, "duration": 480}, {"note": 68, "velocity": 114, "duration": 240}, {"note": 75, "velocity": 116, "duration": 240}, {"note": 73, "velocity": 117, "duration": 480}, {"note": 68, "velocity": 108, "duration": 240}, {"note": 71, "velocity": 108, "duration": 240}, {"note": 73, "velocity": 117, "duration": 239}, {"note": 73, "velocity": 114, "duration": 240}, {"note": 70, "velocity": 113, "duration": 240}, {"note": 68, "velocity": 116, "duration": 960}, {"note": 66, "velocity": 114, "duration": 239}, {"note": 66, "velocity": 108, "duration": 480}, {"note": 61, "velocity": 113, "duration": 240}, {"note": 66, "velocity": 116, "duration": 239}, {"note": 66, "velocity": 116, "duration": 480}, {"note": 69, "velocity": 119, "duration": 240}, {"note": 68, "velocity": 114, "duration": 240}, {"note": 66, "velocity": 113, "duration": 239}, {"note": 66, "velocity": 113, "duration": 240}, {"note": 64, "velocity": 116, "duration": 240}, {"note": 66, "velocity": 116, "duration": 959}, {"note": 66, "velocity": 114, "duration": 239}, {"note": 66, "velocity": 110, "duration": 480}, {"note": 61, "velocity": 102, "duration": 240}, {"note": 64, "velocity": 116, "duration": 239}, {"note": 64, "velocity": 116, "duration": 480}, {"note": 66, "velocity": 113, "duration": 240}, {"note": 63, "velocity": 114, "duration": 240}, {"note": 61, "velocity": 108, "duration": 239}, {"note": 61, "velocity": 113, "duration": 240}, {"note": 59, "velocity": 113, "duration": 240}, {"note": 61, "velocity": 114, "duration": 480}, {"note": 0, "velocity": 0, "duration": 16800}, {"note": 61, "velocity": 117, "duration": 239}, {"note": 61, "velocity": 117, "duration": 240}, {"note": 64, "velocity": 119, "duration": 240}, {"note": 63, "velocity": 119, "duration": 240}, {"note": 61, "velocity": 119, "duration": 959}, {"note": 61, "velocity": 120, "duration": 239}, {"note": 61, "velocity": 116, "duration": 240}, {"note": 68, "velocity": 120, "duration": 240}, {"note": 66, "velocity": 119, "duration": 240}, {"note": 68, "velocity": 119, "duration": 959}, {"note": 68, "velocity": 119, "duration": 239}, {"note": 68, "velocity": 119, "duration": 240}, {"note": 71, "velocity": 114, "duration": 240}, {"note": 68, "velocity": 116, "duration": 240}, {"note": 66, "velocity": 117, "duration": 242}, {"note": 66, "velocity": 113, "duration": 2}, {"note": 0, "velocity": 0, "duration": 238}, {"note": 66, "velocity": 116, "duration": 240}, {"note": 64, "velocity": 113, "duration": 130}, {"note": 63, "velocity": 107, "duration": 120}, {"note": 61, "velocity": 116, "duration": 720}, {"note": 59, "velocity": 104, "duration": 240}, {"note": 56, "velocity": 107, "duration": 960}, {"note": 61, "velocity": 102, "duration": 239}, {"note": 61, "velocity": 94, "duration": 240}, {"note": 64, "velocity": 113, "duration": 240}, {"note": 63, "velocity": 104, "duration": 240}, {"note": 61, "velocity": 104, "duration": 959}, {"note": 61, "velocity": 107, "duration": 239}, {"note": 61, "velocity": 104, "duration": 240}, {"note": 68, "velocity": 113, "duration": 240}, {"note": 66, "velocity": 114, "duration": 240}, {"note": 68, "velocity": 117, "duration": 959}, {"note": 68, "velocity": 114, "duration": 239}, {"note": 68, "velocity": 114, "duration": 240}, {"note": 71, "velocity": 110, "duration": 240}, {"note": 68, "velocity": 116, "duration": 240}, {"note": 66, "velocity": 116, "duration": 239}, {"note": 66, "velocity": 110, "duration": 239}, {"note": 66, "velocity": 110, "duration": 240}, {"note": 64, "velocity": 110, "duration": 240}, {"note": 63, "velocity": 114, "duration": 240}, {"note": 61, "velocity": 108, "duration": 239}, {"note": 61, "velocity": 113, "duration": 240}, {"note": 59, "velocity": 107, "duration": 240}, {"note": 61, "velocity": 113, "duration": 960}, {"note": 75, "velocity": 116, "duration": 240}, {"note": 73, "velocity": 117, "duration": 480}, {"note": 68, "velocity": 116, "duration": 240}, {"note": 75, "velocity": 117, "duration": 240}, {"note": 73, "velocity": 117, "duration": 480}, {"note": 68, "velocity": 107, "duration": 240}, {"note": 71, "velocity": 113, "duration": 240}, {"note": 73, "velocity": 113, "duration": 239}, {"note": 73, "velocity": 108, "duration": 240}, {"note": 70, "velocity": 110, "duration": 240}, {"note": 68, "velocity": 113, "duration": 960}, {"note": 75, "velocity": 117, "duration": 240}, {"note": 73, "velocity": 116, "duration": 480}, {"note": 68, "velocity": 114, "duration": 240}, {"note": 75, "velocity": 116, "duration": 240}, {"note": 73, "velocity": 117, "duration": 480}, {"note": 68, "velocity": 108, "duration": 240}, {"note": 71, "velocity": 108, "duration": 240}, {"note": 73, "velocity": 117, "duration": 239}, {"note": 73, "velocity": 114, "duration": 240}, {"note": 70, "velocity": 113, "duration": 240}, {"note": 68, "velocity": 116, "duration": 960}, {"note": 66, "velocity": 114, "duration": 239}, {"note": 66, "velocity": 108, "duration": 480}, {"note": 61, "velocity": 113, "duration": 240}, {"note": 66, "velocity": 116, "duration": 239}, {"note": 66, "velocity": 116, "duration": 480}, {"note": 69, "velocity": 119, "duration": 240}, {"note": 68, "velocity": 114, "duration": 240}, {"note": 66, "velocity": 113, "duration": 239}, {"note": 66, "velocity": 113, "duration": 240}, {"note": 64, "velocity": 116, "duration": 240}, {"note": 66, "velocity": 116, "duration": 959}, {"note": 66, "velocity": 114, "duration": 239}, {"note": 66, "velocity": 110, "duration": 480}, {"note": 61, "velocity": 102, "duration": 240}, {"note": 64, "velocity": 116, "duration": 239}, {"note": 64, "velocity": 116, "duration": 480}, {"note": 66, "velocity": 113, "duration": 240}, {"note": 63, "velocity": 114, "duration": 240}, {"note": 61, "velocity": 108, "duration": 239}, {"note": 61, "velocity": 113, "duration": 240}, {"note": 59, "velocity": 113, "duration": 240}, {"note": 61, "velocity": 114, "duration": 960}, {"note": 75, "velocity": 116, "duration": 240}, {"note": 73, "velocity": 117, "duration": 480}, {"note": 68, "velocity": 116, "duration": 240}, {"note": 75, "velocity": 117, "duration": 240}, {"note": 73, "velocity": 117, "duration": 480}, {"note": 68, "velocity": 107, "duration": 240}, {"note": 71, "velocity": 113, "duration": 240}, {"note": 73, "velocity": 113, "duration": 239}, {"note": 73, "velocity": 108, "duration": 240}, {"note": 70, "velocity": 110, "duration": 240}, {"note": 68, "velocity": 113, "duration": 960}, {"note": 75, "velocity": 117, "duration": 240}, {"note": 73, "velocity": 116, "duration": 480}, {"note": 68, "velocity": 114, "duration": 240}, {"note": 75, "velocity": 116, "duration": 240}, {"note": 73, "velocity": 117, "duration": 480}, {"note": 68, "velocity": 108, "duration": 240}, {"note": 71, "velocity": 108, "duration": 240}, {"note": 73, "velocity": 117, "duration": 239}, {"note": 73, "velocity": 114, "duration": 240}, {"note": 70, "velocity": 113, "duration": 240}, {"note": 68, "velocity": 116, "duration": 960}, {"note": 66, "velocity": 114, "duration": 239}, {"note": 66, "velocity": 108, "duration": 480}, {"note": 61, "velocity": 113, "duration": 240}, {"note": 66, "velocity": 116, "duration": 239}, {"note": 66, "velocity": 116, "duration": 480}, {"note": 69, "velocity": 119, "duration": 240}, {"note": 68, "velocity": 114, "duration": 240}, {"note": 66, "velocity": 113, "duration": 239}, {"note": 66, "velocity": 113, "duration": 240}, {"note": 64, "velocity": 116, "duration": 240}, {"note": 66, "velocity": 116, "duration": 959}, {"note": 66, "velocity": 114, "duration": 239}, {"note": 66, "velocity": 110, "duration": 480}, {"note": 61, "velocity": 102, "duration": 240}, {"note": 64, "velocity": 116, "duration": 239}, {"note": 64, "velocity": 116, "duration": 480}, {"note": 66, "velocity": 113, "duration": 240}, {"note": 63, "velocity": 114, "duration": 240}, {"note": 61, "velocity": 108, "duration": 239}, {"note": 61, "velocity": 113, "duration": 240}, {"note": 59, "velocity": 113, "duration": 240}, {"note": 61, "velocity": 114, "duration": 480}]]