[[{"note": 74, "velocity": 114, "duration": 239}, {"note": 74, "velocity": 114, "duration": 239}, {"note": 74, "velocity": 114, "duration": 239}, {"note": 74, "velocity": 114, "duration": 239}, {"note": 74, "velocity": 113, "duration": 239}, {"note": 74, "velocity": 114, "duration": 240}, {"note": 71, "velocity": 110, "duration": 240}, {"note": 76, "velocity": 119, "duration": 2159}, {"note": 76, "velocity": 113, "duration": 239}, {"note": 76, "velocity": 110, "duration": 239}, {"note": 76, "velocity": 108, "duration": 239}, {"note": 76, "velocity": 108, "duration": 240}, {"note": 74, "velocity": 113, "duration": 239}, {"note": 74, "velocity": 113, "duration": 240}, {"note": 71, "velocity": 107, "duration": 120}, {"note": 74, "velocity": 94, "duration": 2280}, {"note": 69, "velocity": 89, "duration": 240}, {"note": 71, "velocity": 100, "duration": 258}, {"note": 74, "velocity": 110, "duration": 240}, {"note": 78, "velocity": 113, "duration": 240}, {"note": 76, "velocity": 107, "duration": 240}, {"note": 74, "velocity": 107, "duration": 240}, {"note": 71, "velocity": 108, "duration": 240}, {"note": 76, "velocity": 114, "duration": 2159}, {"note": 76, "velocity": 89, "duration": 239}, {"note": 76, "velocity": 110, "duration": 239}, {"note": 76, "velocity": 108, "duration": 239}, {"note": 76, "velocity": 108, "duration": 240}, {"note": 74, "velocity": 110, "duration": 240}, {"note": 71, "velocity": 104, "duration": 240}, {"note": 76, "velocity": 108, "duration": 240}, {"note": 74, "velocity": 114, "duration": 2159}, {"note": 74, "velocity": 110, "duration": 239}, {"note": 74, "velocity": 113, "duration": 240}, {"note": 71, "velocity": 87, "duration": 240}, {"note": 74, "velocity": 114, "duration": 240}, {"note": 71, "velocity": 104, "duration": 240}, {"note": 74, "velocity": 114, "duration": 240}, {"note": 76, "velocity": 113, "duration": 239}, {"note": 76, "velocity": 114, "duration": 2159}, {"note": 76, "velocity": 107, "duration": 239}, {"note": 76, "velocity": 108, "duration": 240}, {"note": 78, "velocity": 109, "duration": 240}, {"note": 83, "velocity": 113, "duration": 240}, {"note": 81, "velocity": 114, "duration": 240}, {"note": 83, "velocity": 108, "duration": 240}, {"note": 76, "velocity": 94, "duration": 240}, {"note": 78, "velocity": 114, "duration": 2160}, {"note": 81, "velocity": 93, "duration": 239}, {"note": 81, "velocity": 107, "duration": 239}, {"note": 81, "velocity": 110, "duration": 239}, {"note": 81, "velocity": 110, "duration": 240}, {"note": 78, "velocity": 113, "duration": 240}, {"note": 76, "velocity": 108, "duration": 240}, {"note": 74, "velocity": 113, "duration": 240}, {"note": 76, "velocity": 114, "duration": 720}, {"note": 71, "velocity": 113, "duration": 240}, {"note": 76, "velocity": 114, "duration": 240}, {"note": 74, "velocity": 113, "duration": 240}, {"note": 71, "velocity": 110, "duration": 240}, {"note": 76, "velocity": 119, "duration": 479}, {"note": 76, "velocity": 114, "duration": 239}, {"note": 76, "velocity": 113, "duration": 239}, {"note": 76, "velocity": 110, "duration": 239}, {"note": 76, "velocity": 114, "duration": 240}, {"note": 74, "velocity": 113, "duration": 240}, {"note": 71, "velocity": 114, "duration": 240}, {"note": 76, "velocity": 113, "duration": 240}, {"note": 74, "velocity": 116, "duration": 2159}, {"note": 74, "velocity": 113, "duration": 239}, {"note": 74, "velocity": 113, "duration": 239}, {"note": 74, "velocity": 107, "duration": 239}, {"note": 74, "velocity": 113, "duration": 239}, {"note": 74, "velocity": 113, "duration": 240}, {"note": 83, "velocity": 119, "duration": 240}, {"note": 81, "velocity": 116, "duration": 240}, {"note": 83, "velocity": 120, "duration": 2159}, {"note": 83, "velocity": 116, "duration": 480}, {"note": 85, "velocity": 116, "duration": 240}, {"note": 86, "velocity": 113, "duration": 240}, {"note": 85, "velocity": 116, "duration": 240}, {"note": 83, "velocity": 116, "duration": 240}, {"note": 81, "velocity": 110, "duration": 240}, {"note": 78, "velocity": 117, "duration": 720}, {"note": 76, "velocity": 114, "duration": 240}, {"note": 74, "velocity": 117, "duration": 480}, {"note": 76, "velocity": 114, "duration": 240}, {"note": 78, "velocity": 116, "duration": 479}, {"note": 78, "velocity": 116, "duration": 720}, {"note": 83, "velocity": 117, "duration": 240}, {"note": 81, "velocity": 113, "duration": 240}, {"note": 76, "velocity": 108, "duration": 240}, {"note": 74, "velocity": 114, "duration": 240}, {"note": 76, "velocity": 114, "duration": 960}, {"note": 83, "velocity": 114, "duration": 239}, {"note": 81, "velocity": 107, "duration": 240}, {"note": 83, "velocity": 86, "duration": 240}, {"note": 76, "velocity": 116, "duration": 240}, {"note": 74, "velocity": 108, "duration": 240}, {"note": 76, "velocity": 113, "duration": 720}, {"note": 69, "velocity": 114, "duration": 240}, {"note": 83, "velocity": 114, "duration": 240}, {"note": 81, "velocity": 116, "duration": 240}, {"note": 83, "velocity": 113, "duration": 240}, {"note": 76, "velocity": 116, "duration": 480}, {"note": 78, "velocity": 119, "duration": 1920}, {"note": 74, "velocity": 113, "duration": 239}, {"note": 74, "velocity": 113, "duration": 239}, {"note": 74, "velocity": 107, "duration": 240}, {"note": 76, "velocity": 113, "duration": 240}, {"note": 74, "velocity": 113, "duration": 240}, {"note": 81, "velocity": 119, "duration": 240}, {"note": 83, "velocity": 116, "duration": 239}, {"note": 83, "velocity": 120, "duration": 2159}, {"note": 83, "velocity": 116, "duration": 239}, {"note": 83, "velocity": 116, "duration": 239}, {"note": 83, "velocity": 116, "duration": 239}, {"note": 83, "velocity": 110, "duration": 240}, {"note": 81, "velocity": 113, "duration": 239}, {"note": 81, "velocity": 114, "duration": 241}, {"note": 78, "velocity": 113, "duration": 240}, {"note": 81, "velocity": 107, "duration": 720}, {"note": 78, "velocity": 116, "duration": 240}, {"note": 76, "velocity": 113, "duration": 240}, {"note": 81, "velocity": 117, "duration": 480}, {"note": 78, "velocity": 119, "duration": 1200}, {"note": 83, "velocity": 117, "duration": 240}, {"note": 81, "velocity": 108, "duration": 240}, {"note": 78, "velocity": 116, "duration": 240}, {"note": 74, "velocity": 116, "duration": 240}, {"note": 76, "velocity": 119, "duration": 960}, {"note": 83, "velocity": 116, "duration": 256}, {"note": 81, "velocity": 114, "duration": 245}, {"note": 78, "velocity": 106, "duration": 240}, {"note": 81, "velocity": 113, "duration": 480}, {"note": 76, "velocity": 110, "duration": 719}, {"note": 76, "velocity": 114, "duration": 253}, {"note": 74, "velocity": 110, "duration": 240}, {"note": 71, "velocity": 108, "duration": 240}, {"note": 74, "velocity": 116, "duration": 2160}, {"note": 0, "velocity": 0, "duration": 15600}, {"note": 74, "velocity": 110, "duration": 239}, {"note": 74, "velocity": 113, "duration": 240}, {"note": 71, "velocity": 87, "duration": 240}, {"note": 74, "velocity": 114, "duration": 240}, {"note": 71, "velocity": 104, "duration": 240}, {"note": 74, "velocity": 114, "duration": 240}, {"note": 76, "velocity": 113, "duration": 239}, {"note": 76, "velocity": 114, "duration": 2159}, {"note": 76, "velocity": 107, "duration": 239}, {"note": 76, "velocity": 108, "duration": 240}, {"note": 78, "velocity": 109, "duration": 240}, {"note": 83, "velocity": 113, "duration": 240}, {"note": 81, "velocity": 114, "duration": 240}, {"note": 83, "velocity": 108, "duration": 240}, {"note": 76, "velocity": 94, "duration": 240}, {"note": 78, "velocity": 114, "duration": 2160}, {"note": 81, "velocity": 93, "duration": 239}, {"note": 81, "velocity": 107, "duration": 239}, {"note": 81, "velocity": 110, "duration": 239}, {"note": 81, "velocity": 110, "duration": 240}, {"note": 78, "velocity": 113, "duration": 240}, {"note": 76, "velocity": 108, "duration": 240}, {"note": 74, "velocity": 113, "duration": 240}, {"note": 76, "velocity": 114, "duration": 720}, {"note": 71, "velocity": 113, "duration": 240}, {"note": 76, "velocity": 114, "duration": 240}, {"note": 74, "velocity": 113, "duration": 240}, {"note": 71, "velocity": 110, "duration": 240}, {"note": 76, "velocity": 119, "duration": 479}, {"note": 76, "velocity": 114, "duration": 239}, {"note": 76, "velocity": 113, "duration": 239}, {"note": 76, "velocity": 110, "duration": 239}, {"note": 76, "velocity": 114, "duration": 240}, {"note": 74, "velocity": 113, "duration": 240}, {"note": 71, "velocity": 114, "duration": 240}, {"note": 76, "velocity": 113, "duration": 240}, {"note": 74, "velocity": 116, "duration": 1920}, {"note": 0, "velocity": 0, "duration": 240}, {"note": 74, "velocity": 113, "duration": 239}, {"note": 74, "velocity": 113, "duration": 239}, {"note": 74, "velocity": 107, "duration": 239}, {"note": 74, "velocity": 113, "duration": 239}, {"note": 74, "velocity": 113, "duration": 240}, {"note": 83, "velocity": 119, "duration": 240}, {"note": 86, "velocity": 116, "duration": 240}, {"note": 83, "velocity": 120, "duration": 2159}, {"note": 83, "velocity": 116, "duration": 480}, {"note": 85, "velocity": 116, "duration": 240}, {"note": 86, "velocity": 113, "duration": 240}, {"note": 85, "velocity": 116, "duration": 240}, {"note": 83, "velocity": 116, "duration": 240}, {"note": 81, "velocity": 110, "duration": 240}, {"note": 78, "velocity": 117, "duration": 720}, {"note": 76, "velocity": 114, "duration": 240}, {"note": 74, "velocity": 117, "duration": 480}, {"note": 76, "velocity": 114, "duration": 240}, {"note": 78, "velocity": 116, "duration": 479}, {"note": 78, "velocity": 116, "duration": 720}, {"note": 83, "velocity": 117, "duration": 240}, {"note": 81, "velocity": 113, "duration": 240}, {"note": 76, "velocity": 108, "duration": 240}, {"note": 74, "velocity": 114, "duration": 240}, {"note": 76, "velocity": 114, "duration": 960}, {"note": 83, "velocity": 114, "duration": 239}, {"note": 81, "velocity": 107, "duration": 240}, {"note": 83, "velocity": 86, "duration": 240}, {"note": 76, "velocity": 116, "duration": 240}, {"note": 74, "velocity": 108, "duration": 240}, {"note": 76, "velocity": 113, "duration": 720}, {"note": 69, "velocity": 114, "duration": 240}, {"note": 83, "velocity": 114, "duration": 240}, {"note": 81, "velocity": 116, "duration": 240}, {"note": 83, "velocity": 113, "duration": 240}, {"note": 76, "velocity": 116, "duration": 480}, {"note": 78, "velocity": 119, "duration": 1920}, {"note": 74, "velocity": 113, "duration": 239}, {"note": 74, "velocity": 113, "duration": 239}, {"note": 74, "velocity": 107, "duration": 240}, {"note": 76, "velocity": 113, "duration": 240}, {"note": 74, "velocity": 113, "duration": 240}, {"note": 81, "velocity": 119, "duration": 240}, {"note": 83, "velocity": 116, "duration": 239}, {"note": 83, "velocity": 120, "duration": 2159}, {"note": 83, "velocity": 116, "duration": 239}, {"note": 83, "velocity": 116, "duration": 239}, {"note": 83, "velocity": 116, "duration": 239}, {"note": 83, "velocity": 110, "duration": 240}, {"note": 81, "velocity": 113, "duration": 239}, {"note": 81, "velocity": 114, "duration": 241}, {"note": 78, "velocity": 113, "duration": 240}, {"note": 81, "velocity": 107, "duration": 720}, {"note": 78, "velocity": 116, "duration": 240}, {"note": 76, "velocity": 113, "duration": 240}, {"note": 78, "velocity": 117, "duration": 480}, {"note": 81, "velocity": 119, "duration": 480}, {"note": 78, "velocity": 119, "duration": 720}, {"note": 83, "velocity": 117, "duration": 240}, {"note": 81, "velocity": 108, "duration": 240}, {"note": 78, "velocity": 116, "duration": 240}, {"note": 74, "velocity": 116, "duration": 240}, {"note": 76, "velocity": 119, "duration": 720}, {"note": 71, "velocity": 119, "duration": 240}, {"note": 83, "velocity": 116, "duration": 256}, {"note": 81, "velocity": 114, "duration": 245}, {"note": 78, "velocity": 106, "duration": 240}, {"note": 81, "velocity": 113, "duration": 480}, {"note": 76, "velocity": 110, "duration": 480}, {"note": 69, "velocity": 114, "duration": 253}, {"note": 78, "velocity": 114, "duration": 253}, {"note": 76, "velocity": 104, "duration": 480}, {"note": 78, "velocity": 106, "duration": 480}, {"note": 76, "velocity": 104, "duration": 240}, {"note": 74, "velocity": 110, "duration": 240}, {"note": 71, "velocity": 102, "duration": 240}, {"note": 74, "velocity": 104, "duration": 1680}, {"note": 76, "velocity": 96, "duration": 120}, {"note": 74, "velocity": 88, "duration": 120}, {"note": 78, "velocity": 103, "duration": 239}, {"note": 78, "velocity": 102, "duration": 239}, {"note": 78, "velocity": 100, "duration": 240}, {"note": 76, "velocity": 107, "duration": 240}, {"note": 78, "velocity": 106, "duration": 144}, {"note": 76, "velocity": 98, "duration": 120}, {"note": 78, "velocity": 89, "duration": 2400}, {"note": 71, "velocity": 102, "duration": 240}, {"note": 78, "velocity": 109, "duration": 240}, {"note": 76, "velocity": 102, "duration": 240}, {"note": 78, "velocity": 103, "duration": 240}, {"note": 79, "velocity": 96, "duration": 242}, {"note": 78, "velocity": 106, "duration": 120}, {"note": 76, "velocity": 104, "duration": 2520}, {"note": 74, "velocity": 107, "duration": 240}, {"note": 76, "velocity": 100, "duration": 240}, {"note": 74, "velocity": 100, "duration": 240}, {"note": 76, "velocity": 107, "duration": 240}, {"note": 78, "velocity": 100, "duration": 239}, {"note": 78, "velocity": 100, "duration": 240}, {"note": 76, "velocity": 100, "duration": 389}, {"note": 0, "velocity": 0, "duration": 1531}, {"note": 74, "velocity": 113, "duration": 239}, {"note": 74, "velocity": 113, "duration": 239}, {"note": 74, "velocity": 107, "duration": 239}, {"note": 74, "velocity": 113, "duration": 239}, {"note": 74, "velocity": 113, "duration": 240}, {"note": 83, "velocity": 119, "duration": 240}, {"note": 81, "velocity": 116, "duration": 240}, {"note": 83, "velocity": 120, "duration": 2159}, {"note": 83, "velocity": 116, "duration": 480}, {"note": 85, "velocity": 116, "duration": 240}, {"note": 86, "velocity": 113, "duration": 240}, {"note": 85, "velocity": 116, "duration": 240}, {"note": 83, "velocity": 116, "duration": 240}, {"note": 81, "velocity": 110, "duration": 240}, {"note": 78, "velocity": 117, "duration": 720}, {"note": 76, "velocity": 114, "duration": 240}, {"note": 74, "velocity": 117, "duration": 480}, {"note": 76, "velocity": 114, "duration": 240}, {"note": 78, "velocity": 116, "duration": 479}, {"note": 78, "velocity": 116, "duration": 720}, {"note": 83, "velocity": 117, "duration": 240}, {"note": 81, "velocity": 113, "duration": 240}, {"note": 76, "velocity": 108, "duration": 240}, {"note": 74, "velocity": 114, "duration": 240}, {"note": 76, "velocity": 114, "duration": 960}, {"note": 83, "velocity": 114, "duration": 239}, {"note": 81, "velocity": 107, "duration": 240}, {"note": 83, "velocity": 86, "duration": 240}, {"note": 76, "velocity": 116, "duration": 240}, {"note": 74, "velocity": 108, "duration": 240}, {"note": 76, "velocity": 113, "duration": 720}, {"note": 69, "velocity": 114, "duration": 240}, {"note": 83, "velocity": 114, "duration": 240}, {"note": 81, "velocity": 116, "duration": 240}, {"note": 83, "velocity": 113, "duration": 240}, {"note": 76, "velocity": 116, "duration": 480}, {"note": 78, "velocity": 119, "duration": 1920}, {"note": 74, "velocity": 113, "duration": 239}, {"note": 74, "velocity": 113, "duration": 239}, {"note": 74, "velocity": 107, "duration": 240}, {"note": 76, "velocity": 113, "duration": 240}, {"note": 74, "velocity": 113, "duration": 240}, {"note": 81, "velocity": 119, "duration": 240}, {"note": 83, "velocity": 116, "duration": 239}, {"note": 83, "velocity": 120, "duration": 2159}, {"note": 83, "velocity": 116, "duration": 239}, {"note": 83, "velocity": 116, "duration": 239}, {"note": 83, "velocity": 116, "duration": 239}, {"note": 83, "velocity": 110, "duration": 240}, {"note": 81, "velocity": 113, "duration": 239}, {"note": 81, "velocity": 114, "duration": 241}, {"note": 78, "velocity": 113, "duration": 240}, {"note": 81, "velocity": 107, "duration": 720}, {"note": 78, "velocity": 116, "duration": 240}, {"note": 76, "velocity": 113, "duration": 240}, {"note": 81, "velocity": 117, "duration": 480}, {"note": 78, "velocity": 119, "duration": 1200}, {"note": 83, "velocity": 117, "duration": 240}, {"note": 81, "velocity": 108, "duration": 240}, {"note": 78, "velocity": 116, "duration": 240}, {"note": 74, "velocity": 116, "duration": 240}, {"note": 76, "velocity": 119, "duration": 960}, {"note": 83, "velocity": 116, "duration": 256}, {"note": 81, "velocity": 114, "duration": 245}, {"note": 78, "velocity": 106, "duration": 240}, {"note": 81, "velocity": 113, "duration": 480}, {"note": 76, "velocity": 110, "duration": 719}, {"note": 76, "velocity": 114, "duration": 253}, {"note": 74, "velocity": 104, "duration": 264}, {"note": 71, "velocity": 106, "duration": 265}, {"note": 74, "velocity": 104, "duration": 3120}, {"note": 76, "velocity": 114, "duration": 240}, {"note": 74, "velocity": 102, "duration": 240}, {"note": 71, "velocity": 94, "duration": 240}, {"note": 74, "velocity": 113, "duration": 2160}, {"note": 0, "velocity": 0, "duration": 2880}, {"note": 78, "velocity": 113, "duration": 240}, {"note": 76, "velocity": 104, "duration": 239}, {"note": 76, "velocity": 104, "duration": 240}, {"note": 78, "velocity": 100, "duration": 240}, {"note": 74, "velocity": 98, "duration": 1920}, {"note": 0, "velocity": 0, "duration": 2880}, {"note": 76, "velocity": 96, "duration": 240}, {"note": 74, "velocity": 89, "duration": 240}, {"note": 71, "velocity": 92, "duration": 240}, {"note": 74, "velocity": 100, "duration": 2160}]]