[[{"note": 64, "velocity": 113, "duration": 68}, {"note": 0, "velocity": 0, "duration": 172}, {"note": 68, "velocity": 117, "duration": 195}, {"note": 66, "velocity": 113, "duration": 162}, {"note": 0, "velocity": 0, "duration": 78}, {"note": 69, "velocity": 119, "duration": 168}, {"note": 0, "velocity": 0, "duration": 72}, {"note": 69, "velocity": 116, "duration": 185}, {"note": 0, "velocity": 0, "duration": 295}, {"note": 68, "velocity": 91, "duration": 48}, {"note": 0, "velocity": 0, "duration": 192}, {"note": 66, "velocity": 110, "duration": 153}, {"note": 0, "velocity": 0, "duration": 87}, {"note": 71, "velocity": 113, "duration": 226}, {"note": 0, "velocity": 0, "duration": 974}, {"note": 75, "velocity": 116, "duration": 185}, {"note": 76, "velocity": 114, "duration": 139}, {"note": 0, "velocity": 0, "duration": 101}, {"note": 76, "velocity": 117, "duration": 173}, {"note": 0, "velocity": 0, "duration": 547}, {"note": 80, "velocity": 114, "duration": 182}, {"note": 75, "velocity": 113, "duration": 473}, {"note": 73, "velocity": 116, "duration": 427}, {"note": 71, "velocity": 117, "duration": 226}, {"note": 0, "velocity": 0, "duration": 1454}, {"note": 71, "velocity": 107, "duration": 142}, {"note": 0, "velocity": 0, "duration": 98}, {"note": 73, "velocity": 110, "duration": 215}, {"note": 76, "velocity": 91, "duration": 152}, {"note": 0, "velocity": 0, "duration": 88}, {"note": 76, "velocity": 114, "duration": 224}, {"note": 73, "velocity": 116, "duration": 228}, {"note": 78, "velocity": 117, "duration": 217}, {"note": 76, "velocity": 110, "duration": 210}, {"note": 75, "velocity": 117, "duration": 213}, {"note": 76, "velocity": 114, "duration": 213}, {"note": 71, "velocity": 117, "duration": 180}, {"note": 78, "velocity": 114, "duration": 141}, {"note": 0, "velocity": 0, "duration": 99}, {"note": 78, "velocity": 113, "duration": 191}, {"note": 0, "velocity": 0, "duration": 169}, {"note": 75, "velocity": 117, "duration": 73}, {"note": 76, "velocity": 116, "duration": 139}, {"note": 0, "velocity": 0, "duration": 821}, {"note": 73, "velocity": 91, "duration": 200}, {"note": 71, "velocity": 114, "duration": 164}, {"note": 0, "velocity": 0, "duration": 76}, {"note": 73, "velocity": 114, "duration": 142}, {"note": 0, "velocity": 0, "duration": 98}, {"note": 76, "velocity": 114, "duration": 163}, {"note": 0, "velocity": 0, "duration": 77}, {"note": 76, "velocity": 116, "duration": 170}, {"note": 0, "velocity": 0, "duration": 790}, {"note": 75, "velocity": 116, "duration": 339}, {"note": 0, "velocity": 0, "duration": 141}, {"note": 73, "velocity": 117, "duration": 352}, {"note": 0, "velocity": 0, "duration": 128}, {"note": 71, "velocity": 116, "duration": 344}, {"note": 0, "velocity": 0, "duration": 856}, {"note": 64, "velocity": 113, "duration": 68}, {"note": 0, "velocity": 0, "duration": 172}, {"note": 68, "velocity": 117, "duration": 195}, {"note": 66, "velocity": 113, "duration": 162}, {"note": 0, "velocity": 0, "duration": 78}, {"note": 69, "velocity": 119, "duration": 168}, {"note": 0, "velocity": 0, "duration": 72}, {"note": 69, "velocity": 116, "duration": 185}, {"note": 0, "velocity": 0, "duration": 295}, {"note": 68, "velocity": 91, "duration": 48}, {"note": 0, "velocity": 0, "duration": 192}, {"note": 66, "velocity": 110, "duration": 153}, {"note": 0, "velocity": 0, "duration": 87}, {"note": 71, "velocity": 113, "duration": 226}, {"note": 0, "velocity": 0, "duration": 974}, {"note": 75, "velocity": 116, "duration": 185}, {"note": 76, "velocity": 114, "duration": 139}, {"note": 0, "velocity": 0, "duration": 101}, {"note": 76, "velocity": 117, "duration": 173}, {"note": 0, "velocity": 0, "duration": 547}, {"note": 80, "velocity": 114, "duration": 182}, {"note": 75, "velocity": 113, "duration": 473}, {"note": 0, "velocity": 0, "duration": 247}, {"note": 73, "velocity": 116, "duration": 427}, {"note": 71, "velocity": 117, "duration": 226}, {"note": 0, "velocity": 0, "duration": 1214}, {"note": 71, "velocity": 107, "duration": 142}, {"note": 0, "velocity": 0, "duration": 98}, {"note": 73, "velocity": 110, "duration": 215}, {"note": 76, "velocity": 91, "duration": 152}, {"note": 0, "velocity": 0, "duration": 88}, {"note": 76, "velocity": 114, "duration": 224}, {"note": 73, "velocity": 116, "duration": 228}, {"note": 78, "velocity": 117, "duration": 217}, {"note": 76, "velocity": 110, "duration": 210}, {"note": 75, "velocity": 117, "duration": 213}, {"note": 76, "velocity": 114, "duration": 213}, {"note": 71, "velocity": 117, "duration": 180}, {"note": 78, "velocity": 114, "duration": 141}, {"note": 0, "velocity": 0, "duration": 99}, {"note": 78, "velocity": 113, "duration": 191}, {"note": 0, "velocity": 0, "duration": 169}, {"note": 75, "velocity": 117, "duration": 73}, {"note": 76, "velocity": 116, "duration": 139}, {"note": 0, "velocity": 0, "duration": 581}, {"note": 76, "velocity": 116, "duration": 193}, {"note": 80, "velocity": 119, "duration": 215}, {"note": 78, "velocity": 114, "duration": 240}, {"note": 80, "velocity": 114, "duration": 218}, {"note": 78, "velocity": 113, "duration": 251}, {"note": 80, "velocity": 116, "duration": 237}, {"note": 0, "velocity": 0, "duration": 123}, {"note": 81, "velocity": 107, "duration": 217}, {"note": 0, "velocity": 0, "duration": 143}, {"note": 80, "velocity": 113, "duration": 145}, {"note": 0, "velocity": 0, "duration": 215}, {"note": 78, "velocity": 114, "duration": 114}, {"note": 0, "velocity": 0, "duration": 126}, {"note": 78, "velocity": 113, "duration": 143}, {"note": 0, "velocity": 0, "duration": 1177}, {"note": 71, "velocity": 98, "duration": 198}, {"note": 71, "velocity": 117, "duration": 203}, {"note": 0, "velocity": 0, "duration": 277}, {"note": 80, "velocity": 117, "duration": 156}, {"note": 0, "velocity": 0, "duration": 84}, {"note": 78, "velocity": 119, "duration": 159}, {"note": 0, "velocity": 0, "duration": 81}, {"note": 81, "velocity": 123, "duration": 152}, {"note": 0, "velocity": 0, "duration": 88}, {"note": 80, "velocity": 116, "duration": 160}, {"note": 0, "velocity": 0, "duration": 80}, {"note": 76, "velocity": 119, "duration": 173}, {"note": 0, "velocity": 0, "duration": 67}, {"note": 78, "velocity": 114, "duration": 138}, {"note": 0, "velocity": 0, "duration": 102}, {"note": 80, "velocity": 119, "duration": 202}, {"note": 0, "velocity": 0, "duration": 518}, {"note": 78, "velocity": 116, "duration": 155}, {"note": 0, "velocity": 0, "duration": 85}, {"note": 78, "velocity": 117, "duration": 167}, {"note": 0, "velocity": 0, "duration": 793}, {"note": 71, "velocity": 116, "duration": 192}, {"note": 0, "velocity": 0, "duration": 288}, {"note": 80, "velocity": 116, "duration": 164}, {"note": 0, "velocity": 0, "duration": 76}, {"note": 78, "velocity": 114, "duration": 151}, {"note": 0, "velocity": 0, "duration": 89}, {"note": 81, "velocity": 113, "duration": 132}, {"note": 0, "velocity": 0, "duration": 108}, {"note": 80, "velocity": 113, "duration": 146}, {"note": 0, "velocity": 0, "duration": 94}, {"note": 76, "velocity": 113, "duration": 120}, {"note": 0, "velocity": 0, "duration": 120}, {"note": 78, "velocity": 113, "duration": 155}, {"note": 0, "velocity": 0, "duration": 85}, {"note": 80, "velocity": 117, "duration": 222}, {"note": 0, "velocity": 0, "duration": 498}, {"note": 78, "velocity": 116, "duration": 129}, {"note": 0, "velocity": 0, "duration": 111}, {"note": 78, "velocity": 116, "duration": 177}, {"note": 0, "velocity": 0, "duration": 303}, {"note": 76, "velocity": 110, "duration": 183}, {"note": 75, "velocity": 113, "duration": 146}, {"note": 0, "velocity": 0, "duration": 94}, {"note": 73, "velocity": 117, "duration": 267}, {"note": 0, "velocity": 0, "duration": 213}, {"note": 85, "velocity": 116, "duration": 136}, {"note": 0, "velocity": 0, "duration": 104}, {"note": 83, "velocity": 114, "duration": 129}, {"note": 0, "velocity": 0, "duration": 111}, {"note": 83, "velocity": 119, "duration": 161}, {"note": 0, "velocity": 0, "duration": 79}, {"note": 81, "velocity": 116, "duration": 211}, {"note": 80, "velocity": 116, "duration": 218}, {"note": 78, "velocity": 116, "duration": 191}, {"note": 83, "velocity": 119, "duration": 178}, {"note": 0, "velocity": 0, "duration": 62}, {"note": 81, "velocity": 119, "duration": 133}, {"note": 0, "velocity": 0, "duration": 107}, {"note": 81, "velocity": 119, "duration": 152}, {"note": 0, "velocity": 0, "duration": 88}, {"note": 80, "velocity": 117, "duration": 133}, {"note": 0, "velocity": 0, "duration": 107}, {"note": 80, "velocity": 117, "duration": 148}, {"note": 0, "velocity": 0, "duration": 332}, {"note": 80, "velocity": 116, "duration": 142}, {"note": 0, "velocity": 0, "duration": 98}, {"note": 80, "velocity": 114, "duration": 130}, {"note": 0, "velocity": 0, "duration": 110}, {"note": 78, "velocity": 119, "duration": 211}, {"note": 80, "velocity": 110, "duration": 150}, {"note": 0, "velocity": 0, "duration": 90}, {"note": 83, "velocity": 113, "duration": 172}, {"note": 0, "velocity": 0, "duration": 68}, {"note": 81, "velocity": 119, "duration": 152}, {"note": 0, "velocity": 0, "duration": 88}, {"note": 81, "velocity": 123, "duration": 161}, {"note": 0, "velocity": 0, "duration": 79}, {"note": 80, "velocity": 114, "duration": 316}, {"note": 0, "velocity": 0, "duration": 164}, {"note": 78, "velocity": 116, "duration": 142}, {"note": 0, "velocity": 0, "duration": 98}, {"note": 76, "velocity": 117, "duration": 145}, {"note": 0, "velocity": 0, "duration": 95}, {"note": 78, "velocity": 117, "duration": 217}, {"note": 0, "velocity": 0, "duration": 1223}, {"note": 71, "velocity": 98, "duration": 198}, {"note": 71, "velocity": 117, "duration": 203}, {"note": 0, "velocity": 0, "duration": 277}, {"note": 80, "velocity": 117, "duration": 156}, {"note": 0, "velocity": 0, "duration": 84}, {"note": 78, "velocity": 119, "duration": 159}, {"note": 0, "velocity": 0, "duration": 81}, {"note": 81, "velocity": 123, "duration": 152}, {"note": 0, "velocity": 0, "duration": 88}, {"note": 80, "velocity": 116, "duration": 160}, {"note": 0, "velocity": 0, "duration": 80}, {"note": 76, "velocity": 119, "duration": 173}, {"note": 0, "velocity": 0, "duration": 67}, {"note": 78, "velocity": 114, "duration": 138}, {"note": 0, "velocity": 0, "duration": 102}, {"note": 80, "velocity": 119, "duration": 202}, {"note": 0, "velocity": 0, "duration": 518}, {"note": 78, "velocity": 116, "duration": 155}, {"note": 0, "velocity": 0, "duration": 85}, {"note": 78, "velocity": 117, "duration": 167}, {"note": 0, "velocity": 0, "duration": 553}, {"note": 71, "velocity": 116, "duration": 192}, {"note": 71, "velocity": 116, "duration": 192}, {"note": 0, "velocity": 0, "duration": 288}, {"note": 80, "velocity": 116, "duration": 164}, {"note": 0, "velocity": 0, "duration": 76}, {"note": 78, "velocity": 114, "duration": 151}, {"note": 0, "velocity": 0, "duration": 89}, {"note": 81, "velocity": 113, "duration": 132}, {"note": 0, "velocity": 0, "duration": 108}, {"note": 80, "velocity": 113, "duration": 146}, {"note": 0, "velocity": 0, "duration": 94}, {"note": 76, "velocity": 113, "duration": 120}, {"note": 0, "velocity": 0, "duration": 120}, {"note": 78, "velocity": 113, "duration": 155}, {"note": 0, "velocity": 0, "duration": 85}, {"note": 80, "velocity": 117, "duration": 222}, {"note": 0, "velocity": 0, "duration": 498}, {"note": 78, "velocity": 116, "duration": 129}, {"note": 0, "velocity": 0, "duration": 111}, {"note": 78, "velocity": 116, "duration": 177}, {"note": 0, "velocity": 0, "duration": 303}, {"note": 76, "velocity": 110, "duration": 183}, {"note": 75, "velocity": 113, "duration": 146}, {"note": 0, "velocity": 0, "duration": 94}, {"note": 73, "velocity": 117, "duration": 267}, {"note": 0, "velocity": 0, "duration": 213}, {"note": 85, "velocity": 116, "duration": 136}, {"note": 0, "velocity": 0, "duration": 104}, {"note": 83, "velocity": 114, "duration": 129}, {"note": 0, "velocity": 0, "duration": 111}, {"note": 83, "velocity": 119, "duration": 161}, {"note": 0, "velocity": 0, "duration": 79}, {"note": 81, "velocity": 116, "duration": 211}, {"note": 80, "velocity": 116, "duration": 218}, {"note": 78, "velocity": 116, "duration": 191}, {"note": 83, "velocity": 119, "duration": 178}, {"note": 0, "velocity": 0, "duration": 62}, {"note": 81, "velocity": 119, "duration": 133}, {"note": 0, "velocity": 0, "duration": 107}, {"note": 81, "velocity": 119, "duration": 152}, {"note": 0, "velocity": 0, "duration": 88}, {"note": 80, "velocity": 117, "duration": 133}, {"note": 0, "velocity": 0, "duration": 107}, {"note": 80, "velocity": 117, "duration": 148}, {"note": 0, "velocity": 0, "duration": 332}, {"note": 80, "velocity": 116, "duration": 142}, {"note": 0, "velocity": 0, "duration": 98}, {"note": 80, "velocity": 114, "duration": 130}, {"note": 0, "velocity": 0, "duration": 110}, {"note": 78, "velocity": 119, "duration": 211}, {"note": 80, "velocity": 110, "duration": 150}, {"note": 0, "velocity": 0, "duration": 90}, {"note": 83, "velocity": 113, "duration": 172}, {"note": 0, "velocity": 0, "duration": 68}, {"note": 81, "velocity": 119, "duration": 152}, {"note": 0, "velocity": 0, "duration": 88}, {"note": 81, "velocity": 123, "duration": 161}, {"note": 0, "velocity": 0, "duration": 79}, {"note": 80, "velocity": 114, "duration": 316}, {"note": 0, "velocity": 0, "duration": 164}, {"note": 78, "velocity": 116, "duration": 142}, {"note": 0, "velocity": 0, "duration": 98}, {"note": 76, "velocity": 117, "duration": 145}, {"note": 0, "velocity": 0, "duration": 95}, {"note": 78, "velocity": 117, "duration": 217}, {"note": 0, "velocity": 0, "duration": 1223}, {"note": 76, "velocity": 113, "duration": 189}, {"note": 80, "velocity": 119, "duration": 209}, {"note": 76, "velocity": 114, "duration": 156}, {"note": 0, "velocity": 0, "duration": 84}, {"note": 76, "velocity": 116, "duration": 190}, {"note": 73, "velocity": 114, "duration": 158}, {"note": 0, "velocity": 0, "duration": 82}, {"note": 76, "velocity": 117, "duration": 190}, {"note": 0, "velocity": 0, "duration": 290}, {"note": 83, "velocity": 116, "duration": 194}, {"note": 85, "velocity": 114, "duration": 226}, {"note": 83, "velocity": 114, "duration": 188}, {"note": 83, "velocity": 114, "duration": 204}, {"note": 76, "velocity": 116, "duration": 303}, {"note": 0, "velocity": 0, "duration": 897}, {"note": 76, "velocity": 113, "duration": 187}, {"note": 80, "velocity": 116, "duration": 169}, {"note": 0, "velocity": 0, "duration": 71}, {"note": 76, "velocity": 114, "duration": 161}, {"note": 0, "velocity": 0, "duration": 79}, {"note": 76, "velocity": 114, "duration": 225}, {"note": 73, "velocity": 114, "duration": 179}, {"note": 0, "velocity": 0, "duration": 61}, {"note": 76, "velocity": 117, "duration": 211}, {"note": 0, "velocity": 0, "duration": 269}, {"note": 83, "velocity": 114, "duration": 184}, {"note": 85, "velocity": 114, "duration": 223}, {"note": 83, "velocity": 114, "duration": 167}, {"note": 0, "velocity": 0, "duration": 73}, {"note": 83, "velocity": 113, "duration": 161}, {"note": 0, "velocity": 0, "duration": 79}, {"note": 76, "velocity": 113, "duration": 281}, {"note": 0, "velocity": 0, "duration": 8119}, {"note": 64, "velocity": 113, "duration": 68}, {"note": 0, "velocity": 0, "duration": 172}, {"note": 68, "velocity": 117, "duration": 195}, {"note": 66, "velocity": 113, "duration": 162}, {"note": 0, "velocity": 0, "duration": 78}, {"note": 69, "velocity": 119, "duration": 168}, {"note": 0, "velocity": 0, "duration": 192}, {"note": 69, "velocity": 116, "duration": 185}, {"note": 0, "velocity": 0, "duration": 295}, {"note": 68, "velocity": 106, "duration": 48}, {"note": 0, "velocity": 0, "duration": 192}, {"note": 66, "velocity": 110, "duration": 153}, {"note": 0, "velocity": 0, "duration": 87}, {"note": 71, "velocity": 113, "duration": 226}, {"note": 0, "velocity": 0, "duration": 854}, {"note": 75, "velocity": 116, "duration": 185}, {"note": 76, "velocity": 114, "duration": 139}, {"note": 0, "velocity": 0, "duration": 101}, {"note": 76, "velocity": 117, "duration": 173}, {"note": 0, "velocity": 0, "duration": 307}, {"note": 80, "velocity": 114, "duration": 182}, {"note": 0, "velocity": 0, "duration": 298}, {"note": 75, "velocity": 113, "duration": 473}, {"note": 73, "velocity": 116, "duration": 427}, {"note": 71, "velocity": 117, "duration": 226}, {"note": 0, "velocity": 0, "duration": 1454}, {"note": 71, "velocity": 107, "duration": 142}, {"note": 0, "velocity": 0, "duration": 98}, {"note": 73, "velocity": 110, "duration": 215}, {"note": 76, "velocity": 91, "duration": 152}, {"note": 0, "velocity": 0, "duration": 88}, {"note": 76, "velocity": 114, "duration": 224}, {"note": 73, "velocity": 116, "duration": 228}, {"note": 78, "velocity": 117, "duration": 217}, {"note": 76, "velocity": 110, "duration": 210}, {"note": 75, "velocity": 117, "duration": 213}, {"note": 76, "velocity": 114, "duration": 213}, {"note": 71, "velocity": 117, "duration": 180}, {"note": 78, "velocity": 114, "duration": 141}, {"note": 0, "velocity": 0, "duration": 99}, {"note": 78, "velocity": 113, "duration": 191}, {"note": 0, "velocity": 0, "duration": 169}, {"note": 75, "velocity": 117, "duration": 73}, {"note": 76, "velocity": 116, "duration": 139}, {"note": 0, "velocity": 0, "duration": 581}, {"note": 76, "velocity": 116, "duration": 193}, {"note": 80, "velocity": 119, "duration": 215}, {"note": 78, "velocity": 114, "duration": 240}, {"note": 80, "velocity": 114, "duration": 218}, {"note": 78, "velocity": 113, "duration": 251}, {"note": 80, "velocity": 116, "duration": 237}, {"note": 0, "velocity": 0, "duration": 123}, {"note": 81, "velocity": 107, "duration": 217}, {"note": 0, "velocity": 0, "duration": 143}, {"note": 80, "velocity": 113, "duration": 145}, {"note": 0, "velocity": 0, "duration": 215}, {"note": 78, "velocity": 114, "duration": 114}, {"note": 78, "velocity": 113, "duration": 143}, {"note": 0, "velocity": 0, "duration": 1297}, {"note": 71, "velocity": 98, "duration": 198}, {"note": 71, "velocity": 117, "duration": 203}, {"note": 0, "velocity": 0, "duration": 277}, {"note": 80, "velocity": 117, "duration": 156}, {"note": 0, "velocity": 0, "duration": 84}, {"note": 78, "velocity": 119, "duration": 159}, {"note": 0, "velocity": 0, "duration": 81}, {"note": 81, "velocity": 123, "duration": 152}, {"note": 0, "velocity": 0, "duration": 88}, {"note": 80, "velocity": 116, "duration": 160}, {"note": 0, "velocity": 0, "duration": 80}, {"note": 76, "velocity": 119, "duration": 173}, {"note": 0, "velocity": 0, "duration": 67}, {"note": 78, "velocity": 114, "duration": 138}, {"note": 0, "velocity": 0, "duration": 102}, {"note": 80, "velocity": 119, "duration": 202}, {"note": 0, "velocity": 0, "duration": 518}, {"note": 78, "velocity": 116, "duration": 155}, {"note": 0, "velocity": 0, "duration": 85}, {"note": 78, "velocity": 117, "duration": 167}, {"note": 0, "velocity": 0, "duration": 793}, {"note": 71, "velocity": 116, "duration": 192}, {"note": 0, "velocity": 0, "duration": 288}, {"note": 80, "velocity": 116, "duration": 164}, {"note": 0, "velocity": 0, "duration": 76}, {"note": 78, "velocity": 114, "duration": 151}, {"note": 0, "velocity": 0, "duration": 89}, {"note": 81, "velocity": 113, "duration": 132}, {"note": 0, "velocity": 0, "duration": 108}, {"note": 80, "velocity": 113, "duration": 146}, {"note": 0, "velocity": 0, "duration": 94}, {"note": 76, "velocity": 113, "duration": 120}, {"note": 0, "velocity": 0, "duration": 120}, {"note": 78, "velocity": 113, "duration": 155}, {"note": 0, "velocity": 0, "duration": 85}, {"note": 80, "velocity": 117, "duration": 222}, {"note": 0, "velocity": 0, "duration": 498}, {"note": 78, "velocity": 116, "duration": 129}, {"note": 0, "velocity": 0, "duration": 111}, {"note": 78, "velocity": 116, "duration": 177}, {"note": 0, "velocity": 0, "duration": 303}, {"note": 76, "velocity": 110, "duration": 183}, {"note": 75, "velocity": 113, "duration": 146}, {"note": 0, "velocity": 0, "duration": 94}, {"note": 73, "velocity": 117, "duration": 267}, {"note": 0, "velocity": 0, "duration": 213}, {"note": 85, "velocity": 116, "duration": 136}, {"note": 0, "velocity": 0, "duration": 104}, {"note": 83, "velocity": 114, "duration": 129}, {"note": 0, "velocity": 0, "duration": 111}, {"note": 83, "velocity": 119, "duration": 161}, {"note": 0, "velocity": 0, "duration": 79}, {"note": 81, "velocity": 116, "duration": 211}, {"note": 80, "velocity": 116, "duration": 218}, {"note": 78, "velocity": 116, "duration": 191}, {"note": 83, "velocity": 119, "duration": 178}, {"note": 0, "velocity": 0, "duration": 62}, {"note": 81, "velocity": 119, "duration": 133}, {"note": 0, "velocity": 0, "duration": 107}, {"note": 81, "velocity": 119, "duration": 152}, {"note": 0, "velocity": 0, "duration": 88}, {"note": 80, "velocity": 117, "duration": 133}, {"note": 0, "velocity": 0, "duration": 107}, {"note": 80, "velocity": 117, "duration": 148}, {"note": 0, "velocity": 0, "duration": 332}, {"note": 80, "velocity": 116, "duration": 142}, {"note": 0, "velocity": 0, "duration": 98}, {"note": 80, "velocity": 114, "duration": 130}, {"note": 0, "velocity": 0, "duration": 110}, {"note": 78, "velocity": 119, "duration": 211}, {"note": 80, "velocity": 110, "duration": 150}, {"note": 0, "velocity": 0, "duration": 90}, {"note": 83, "velocity": 113, "duration": 172}, {"note": 0, "velocity": 0, "duration": 68}, {"note": 81, "velocity": 119, "duration": 152}, {"note": 0, "velocity": 0, "duration": 88}, {"note": 81, "velocity": 123, "duration": 161}, {"note": 0, "velocity": 0, "duration": 79}, {"note": 80, "velocity": 114, "duration": 316}, {"note": 0, "velocity": 0, "duration": 164}, {"note": 78, "velocity": 116, "duration": 142}, {"note": 0, "velocity": 0, "duration": 98}, {"note": 76, "velocity": 117, "duration": 145}, {"note": 0, "velocity": 0, "duration": 95}, {"note": 78, "velocity": 117, "duration": 217}, {"note": 0, "velocity": 0, "duration": 1223}, {"note": 71, "velocity": 98, "duration": 198}, {"note": 71, "velocity": 117, "duration": 203}, {"note": 0, "velocity": 0, "duration": 277}, {"note": 80, "velocity": 117, "duration": 156}, {"note": 0, "velocity": 0, "duration": 84}, {"note": 78, "velocity": 119, "duration": 159}, {"note": 0, "velocity": 0, "duration": 81}, {"note": 81, "velocity": 123, "duration": 152}, {"note": 0, "velocity": 0, "duration": 88}, {"note": 80, "velocity": 116, "duration": 160}, {"note": 0, "velocity": 0, "duration": 80}, {"note": 76, "velocity": 119, "duration": 173}, {"note": 0, "velocity": 0, "duration": 67}, {"note": 78, "velocity": 114, "duration": 138}, {"note": 0, "velocity": 0, "duration": 102}, {"note": 80, "velocity": 119, "duration": 202}, {"note": 0, "velocity": 0, "duration": 518}, {"note": 78, "velocity": 116, "duration": 155}, {"note": 0, "velocity": 0, "duration": 85}, {"note": 78, "velocity": 117, "duration": 167}, {"note": 0, "velocity": 0, "duration": 553}, {"note": 71, "velocity": 116, "duration": 192}, {"note": 71, "velocity": 116, "duration": 192}, {"note": 0, "velocity": 0, "duration": 288}, {"note": 80, "velocity": 116, "duration": 164}, {"note": 0, "velocity": 0, "duration": 76}, {"note": 78, "velocity": 114, "duration": 151}, {"note": 0, "velocity": 0, "duration": 89}, {"note": 81, "velocity": 113, "duration": 132}, {"note": 0, "velocity": 0, "duration": 108}, {"note": 80, "velocity": 113, "duration": 146}, {"note": 0, "velocity": 0, "duration": 94}, {"note": 76, "velocity": 113, "duration": 120}, {"note": 0, "velocity": 0, "duration": 120}, {"note": 78, "velocity": 113, "duration": 155}, {"note": 0, "velocity": 0, "duration": 85}, {"note": 80, "velocity": 117, "duration": 222}, {"note": 0, "velocity": 0, "duration": 498}, {"note": 78, "velocity": 116, "duration": 129}, {"note": 0, "velocity": 0, "duration": 111}, {"note": 78, "velocity": 116, "duration": 177}, {"note": 0, "velocity": 0, "duration": 303}, {"note": 76, "velocity": 110, "duration": 183}, {"note": 75, "velocity": 113, "duration": 146}, {"note": 0, "velocity": 0, "duration": 94}, {"note": 73, "velocity": 117, "duration": 267}, {"note": 0, "velocity": 0, "duration": 213}, {"note": 85, "velocity": 116, "duration": 136}, {"note": 0, "velocity": 0, "duration": 104}, {"note": 83, "velocity": 114, "duration": 129}, {"note": 0, "velocity": 0, "duration": 111}, {"note": 83, "velocity": 119, "duration": 161}, {"note": 0, "velocity": 0, "duration": 79}, {"note": 81, "velocity": 116, "duration": 211}, {"note": 80, "velocity": 116, "duration": 218}, {"note": 78, "velocity": 116, "duration": 191}, {"note": 83, "velocity": 119, "duration": 178}, {"note": 0, "velocity": 0, "duration": 62}, {"note": 81, "velocity": 119, "duration": 133}, {"note": 0, "velocity": 0, "duration": 107}, {"note": 81, "velocity": 119, "duration": 152}, {"note": 0, "velocity": 0, "duration": 88}, {"note": 80, "velocity": 117, "duration": 133}, {"note": 0, "velocity": 0, "duration": 107}, {"note": 80, "velocity": 117, "duration": 148}, {"note": 0, "velocity": 0, "duration": 332}, {"note": 80, "velocity": 116, "duration": 142}, {"note": 0, "velocity": 0, "duration": 98}, {"note": 80, "velocity": 114, "duration": 130}, {"note": 0, "velocity": 0, "duration": 110}, {"note": 78, "velocity": 119, "duration": 211}, {"note": 80, "velocity": 110, "duration": 150}, {"note": 0, "velocity": 0, "duration": 90}, {"note": 83, "velocity": 113, "duration": 172}, {"note": 0, "velocity": 0, "duration": 68}, {"note": 81, "velocity": 119, "duration": 152}, {"note": 0, "velocity": 0, "duration": 88}, {"note": 81, "velocity": 123, "duration": 161}, {"note": 0, "velocity": 0, "duration": 79}, {"note": 80, "velocity": 114, "duration": 316}, {"note": 0, "velocity": 0, "duration": 164}, {"note": 78, "velocity": 116, "duration": 142}, {"note": 0, "velocity": 0, "duration": 98}, {"note": 75, "velocity": 117, "duration": 145}, {"note": 0, "velocity": 0, "duration": 95}, {"note": 78, "velocity": 117, "duration": 217}, {"note": 0, "velocity": 0, "duration": 1223}, {"note": 76, "velocity": 113, "duration": 189}, {"note": 80, "velocity": 119, "duration": 209}, {"note": 76, "velocity": 114, "duration": 156}, {"note": 0, "velocity": 0, "duration": 84}, {"note": 76, "velocity": 116, "duration": 190}, {"note": 73, "velocity": 114, "duration": 158}, {"note": 0, "velocity": 0, "duration": 82}, {"note": 76, "velocity": 117, "duration": 190}, {"note": 0, "velocity": 0, "duration": 290}, {"note": 83, "velocity": 116, "duration": 194}, {"note": 85, "velocity": 114, "duration": 226}, {"note": 83, "velocity": 114, "duration": 188}, {"note": 83, "velocity": 114, "duration": 204}, {"note": 76, "velocity": 116, "duration": 303}, {"note": 0, "velocity": 0, "duration": 897}, {"note": 76, "velocity": 113, "duration": 187}, {"note": 80, "velocity": 116, "duration": 169}, {"note": 0, "velocity": 0, "duration": 71}, {"note": 76, "velocity": 114, "duration": 161}, {"note": 0, "velocity": 0, "duration": 79}, {"note": 76, "velocity": 114, "duration": 225}, {"note": 73, "velocity": 114, "duration": 179}, {"note": 0, "velocity": 0, "duration": 61}, {"note": 76, "velocity": 117, "duration": 211}, {"note": 0, "velocity": 0, "duration": 269}, {"note": 83, "velocity": 114, "duration": 184}, {"note": 85, "velocity": 114, "duration": 223}, {"note": 0, "velocity": 0, "duration": 137}, {"note": 83, "velocity": 114, "duration": 167}, {"note": 0, "velocity": 0, "duration": 73}, {"note": 83, "velocity": 113, "duration": 161}, {"note": 0, "velocity": 0, "duration": 79}, {"note": 76, "velocity": 113, "duration": 281}]]