[[{"note": 72, "velocity": 110, "duration": 240}, {"note": 75, "velocity": 91, "duration": 240}, {"note": 77, "velocity": 110, "duration": 479}, {"note": 77, "velocity": 116, "duration": 960}, {"note": 72, "velocity": 114, "duration": 240}, {"note": 75, "velocity": 102, "duration": 240}, {"note": 77, "velocity": 98, "duration": 239}, {"note": 77, "velocity": 113, "duration": 480}, {"note": 75, "velocity": 108, "duration": 720}, {"note": 72, "velocity": 114, "duration": 240}, {"note": 75, "velocity": 108, "duration": 240}, {"note": 77, "velocity": 108, "duration": 480}, {"note": 72, "velocity": 114, "duration": 959}, {"note": 72, "velocity": 114, "duration": 240}, {"note": 70, "velocity": 98, "duration": 240}, {"note": 75, "velocity": 102, "duration": 240}, {"note": 72, "velocity": 108, "duration": 1199}, {"note": 72, "velocity": 113, "duration": 246}, {"note": 70, "velocity": 94, "duration": 245}, {"note": 72, "velocity": 94, "duration": 245}, {"note": 70, "velocity": 98, "duration": 484}, {"note": 68, "velocity": 100, "duration": 960}, {"note": 72, "velocity": 110, "duration": 720}, {"note": 70, "velocity": 113, "duration": 1199}, {"note": 70, "velocity": 104, "duration": 239}, {"note": 70, "velocity": 94, "duration": 240}, {"note": 72, "velocity": 108, "duration": 479}, {"note": 72, "velocity": 113, "duration": 2639}, {"note": 72, "velocity": 114, "duration": 240}, {"note": 75, "velocity": 102, "duration": 240}, {"note": 77, "velocity": 113, "duration": 479}, {"note": 77, "velocity": 114, "duration": 960}, {"note": 72, "velocity": 108, "duration": 240}, {"note": 75, "velocity": 108, "duration": 240}, {"note": 77, "velocity": 104, "duration": 239}, {"note": 77, "velocity": 114, "duration": 480}, {"note": 75, "velocity": 107, "duration": 720}, {"note": 80, "velocity": 119, "duration": 240}, {"note": 79, "velocity": 108, "duration": 240}, {"note": 75, "velocity": 107, "duration": 240}, {"note": 72, "velocity": 100, "duration": 720}, {"note": 80, "velocity": 116, "duration": 239}, {"note": 80, "velocity": 116, "duration": 240}, {"note": 79, "velocity": 110, "duration": 240}, {"note": 75, "velocity": 110, "duration": 480}, {"note": 77, "velocity": 110, "duration": 1199}, {"note": 77, "velocity": 110, "duration": 240}, {"note": 75, "velocity": 102, "duration": 240}, {"note": 77, "velocity": 102, "duration": 240}, {"note": 70, "velocity": 102, "duration": 528}, {"note": 68, "velocity": 106, "duration": 960}, {"note": 72, "velocity": 117, "duration": 720}, {"note": 70, "velocity": 117, "duration": 960}, {"note": 72, "velocity": 116, "duration": 240}, {"note": 70, "velocity": 107, "duration": 255}, {"note": 68, "velocity": 109, "duration": 239}, {"note": 68, "velocity": 106, "duration": 480}, {"note": 65, "velocity": 102, "duration": 1200}, {"note": 0, "velocity": 0, "duration": 1200}, {"note": 84, "velocity": 114, "duration": 119}, {"note": 84, "velocity": 107, "duration": 119}, {"note": 84, "velocity": 116, "duration": 240}, {"note": 82, "velocity": 113, "duration": 240}, {"note": 80, "velocity": 108, "duration": 247}, {"note": 79, "velocity": 116, "duration": 240}, {"note": 77, "velocity": 117, "duration": 479}, {"note": 77, "velocity": 114, "duration": 240}, {"note": 72, "velocity": 108, "duration": 240}, {"note": 77, "velocity": 108, "duration": 240}, {"note": 84, "velocity": 104, "duration": 480}, {"note": 82, "velocity": 120, "duration": 959}, {"note": 82, "velocity": 114, "duration": 239}, {"note": 82, "velocity": 113, "duration": 240}, {"note": 80, "velocity": 113, "duration": 240}, {"note": 79, "velocity": 114, "duration": 240}, {"note": 77, "velocity": 113, "duration": 242}, {"note": 75, "velocity": 114, "duration": 479}, {"note": 75, "velocity": 117, "duration": 240}, {"note": 72, "velocity": 110, "duration": 240}, {"note": 75, "velocity": 108, "duration": 239}, {"note": 75, "velocity": 113, "duration": 240}, {"note": 82, "velocity": 113, "duration": 239}, {"note": 82, "velocity": 114, "duration": 480}, {"note": 80, "velocity": 116, "duration": 720}, {"note": 84, "velocity": 116, "duration": 240}, {"note": 82, "velocity": 116, "duration": 256}, {"note": 80, "velocity": 116, "duration": 240}, {"note": 79, "velocity": 108, "duration": 240}, {"note": 77, "velocity": 116, "duration": 480}, {"note": 72, "velocity": 100, "duration": 239}, {"note": 72, "velocity": 108, "duration": 239}, {"note": 72, "velocity": 108, "duration": 240}, {"note": 80, "velocity": 116, "duration": 240}, {"note": 79, "velocity": 108, "duration": 240}, {"note": 80, "velocity": 113, "duration": 480}, {"note": 79, "velocity": 117, "duration": 479}, {"note": 79, "velocity": 93, "duration": 119}, {"note": 79, "velocity": 94, "duration": 119}, {"note": 79, "velocity": 108, "duration": 240}, {"note": 80, "velocity": 109, "duration": 240}, {"note": 82, "velocity": 110, "duration": 240}, {"note": 79, "velocity": 116, "duration": 480}, {"note": 75, "velocity": 114, "duration": 2400}, {"note": 84, "velocity": 114, "duration": 119}, {"note": 84, "velocity": 107, "duration": 119}, {"note": 84, "velocity": 116, "duration": 240}, {"note": 82, "velocity": 113, "duration": 240}, {"note": 80, "velocity": 108, "duration": 247}, {"note": 79, "velocity": 116, "duration": 240}, {"note": 77, "velocity": 117, "duration": 479}, {"note": 77, "velocity": 114, "duration": 240}, {"note": 72, "velocity": 108, "duration": 240}, {"note": 77, "velocity": 108, "duration": 240}, {"note": 84, "velocity": 104, "duration": 480}, {"note": 82, "velocity": 120, "duration": 959}, {"note": 82, "velocity": 114, "duration": 119}, {"note": 82, "velocity": 114, "duration": 119}, {"note": 82, "velocity": 113, "duration": 240}, {"note": 80, "velocity": 113, "duration": 240}, {"note": 79, "velocity": 114, "duration": 240}, {"note": 77, "velocity": 113, "duration": 242}, {"note": 75, "velocity": 114, "duration": 479}, {"note": 75, "velocity": 117, "duration": 240}, {"note": 72, "velocity": 110, "duration": 240}, {"note": 75, "velocity": 108, "duration": 239}, {"note": 75, "velocity": 113, "duration": 240}, {"note": 82, "velocity": 113, "duration": 239}, {"note": 82, "velocity": 114, "duration": 480}, {"note": 80, "velocity": 116, "duration": 480}, {"note": 75, "velocity": 108, "duration": 120}, {"note": 77, "velocity": 98, "duration": 120}, {"note": 80, "velocity": 109, "duration": 239}, {"note": 80, "velocity": 113, "duration": 239}, {"note": 80, "velocity": 116, "duration": 239}, {"note": 80, "velocity": 119, "duration": 480}, {"note": 77, "velocity": 116, "duration": 479}, {"note": 77, "velocity": 96, "duration": 119}, {"note": 77, "velocity": 93, "duration": 119}, {"note": 77, "velocity": 113, "duration": 240}, {"note": 72, "velocity": 113, "duration": 240}, {"note": 80, "velocity": 119, "duration": 239}, {"note": 80, "velocity": 119, "duration": 480}, {"note": 79, "velocity": 119, "duration": 479}, {"note": 79, "velocity": 113, "duration": 239}, {"note": 79, "velocity": 114, "duration": 240}, {"note": 80, "velocity": 109, "duration": 240}, {"note": 82, "velocity": 114, "duration": 479}, {"note": 82, "velocity": 116, "duration": 256}, {"note": 80, "velocity": 93, "duration": 600}, {"note": 0, "velocity": 0, "duration": 2040}, {"note": 72, "velocity": 110, "duration": 240}, {"note": 75, "velocity": 91, "duration": 240}, {"note": 77, "velocity": 110, "duration": 479}, {"note": 77, "velocity": 116, "duration": 960}, {"note": 72, "velocity": 114, "duration": 240}, {"note": 75, "velocity": 102, "duration": 240}, {"note": 77, "velocity": 98, "duration": 239}, {"note": 77, "velocity": 113, "duration": 480}, {"note": 75, "velocity": 108, "duration": 720}, {"note": 72, "velocity": 114, "duration": 240}, {"note": 75, "velocity": 108, "duration": 240}, {"note": 77, "velocity": 108, "duration": 480}, {"note": 72, "velocity": 114, "duration": 959}, {"note": 72, "velocity": 114, "duration": 240}, {"note": 70, "velocity": 98, "duration": 240}, {"note": 75, "velocity": 102, "duration": 240}, {"note": 72, "velocity": 108, "duration": 1199}, {"note": 72, "velocity": 113, "duration": 246}, {"note": 70, "velocity": 94, "duration": 245}, {"note": 72, "velocity": 94, "duration": 245}, {"note": 70, "velocity": 98, "duration": 484}, {"note": 68, "velocity": 100, "duration": 960}, {"note": 72, "velocity": 110, "duration": 720}, {"note": 70, "velocity": 113, "duration": 1199}, {"note": 70, "velocity": 104, "duration": 239}, {"note": 70, "velocity": 94, "duration": 240}, {"note": 72, "velocity": 108, "duration": 479}, {"note": 72, "velocity": 113, "duration": 2639}, {"note": 72, "velocity": 114, "duration": 240}, {"note": 75, "velocity": 102, "duration": 240}, {"note": 77, "velocity": 113, "duration": 284}, {"note": 77, "velocity": 114, "duration": 44}, {"note": 0, "velocity": 0, "duration": 1156}, {"note": 72, "velocity": 108, "duration": 240}, {"note": 75, "velocity": 108, "duration": 240}, {"note": 77, "velocity": 104, "duration": 239}, {"note": 77, "velocity": 114, "duration": 480}, {"note": 75, "velocity": 107, "duration": 720}, {"note": 80, "velocity": 119, "duration": 240}, {"note": 79, "velocity": 108, "duration": 240}, {"note": 75, "velocity": 107, "duration": 240}, {"note": 72, "velocity": 100, "duration": 720}, {"note": 80, "velocity": 116, "duration": 239}, {"note": 80, "velocity": 116, "duration": 240}, {"note": 79, "velocity": 110, "duration": 240}, {"note": 75, "velocity": 110, "duration": 480}, {"note": 77, "velocity": 110, "duration": 1199}, {"note": 77, "velocity": 110, "duration": 240}, {"note": 75, "velocity": 102, "duration": 240}, {"note": 77, "velocity": 102, "duration": 240}, {"note": 70, "velocity": 102, "duration": 528}, {"note": 68, "velocity": 106, "duration": 960}, {"note": 72, "velocity": 117, "duration": 720}, {"note": 70, "velocity": 117, "duration": 960}, {"note": 72, "velocity": 116, "duration": 240}, {"note": 70, "velocity": 107, "duration": 255}, {"note": 68, "velocity": 109, "duration": 239}, {"note": 68, "velocity": 106, "duration": 480}, {"note": 65, "velocity": 102, "duration": 2400}, {"note": 84, "velocity": 114, "duration": 119}, {"note": 84, "velocity": 107, "duration": 119}, {"note": 84, "velocity": 116, "duration": 240}, {"note": 82, "velocity": 113, "duration": 240}, {"note": 80, "velocity": 108, "duration": 247}, {"note": 79, "velocity": 116, "duration": 240}, {"note": 77, "velocity": 117, "duration": 479}, {"note": 77, "velocity": 114, "duration": 240}, {"note": 72, "velocity": 108, "duration": 240}, {"note": 77, "velocity": 108, "duration": 240}, {"note": 84, "velocity": 104, "duration": 480}, {"note": 82, "velocity": 120, "duration": 959}, {"note": 82, "velocity": 114, "duration": 239}, {"note": 82, "velocity": 113, "duration": 240}, {"note": 80, "velocity": 113, "duration": 240}, {"note": 79, "velocity": 114, "duration": 240}, {"note": 77, "velocity": 113, "duration": 242}, {"note": 75, "velocity": 114, "duration": 479}, {"note": 75, "velocity": 117, "duration": 240}, {"note": 72, "velocity": 110, "duration": 240}, {"note": 75, "velocity": 108, "duration": 239}, {"note": 75, "velocity": 113, "duration": 240}, {"note": 82, "velocity": 113, "duration": 239}, {"note": 82, "velocity": 114, "duration": 480}, {"note": 80, "velocity": 116, "duration": 720}, {"note": 84, "velocity": 116, "duration": 240}, {"note": 82, "velocity": 116, "duration": 256}, {"note": 80, "velocity": 116, "duration": 240}, {"note": 79, "velocity": 108, "duration": 240}, {"note": 77, "velocity": 116, "duration": 480}, {"note": 72, "velocity": 100, "duration": 239}, {"note": 72, "velocity": 108, "duration": 239}, {"note": 72, "velocity": 108, "duration": 240}, {"note": 80, "velocity": 116, "duration": 240}, {"note": 79, "velocity": 108, "duration": 240}, {"note": 80, "velocity": 113, "duration": 480}, {"note": 79, "velocity": 117, "duration": 479}, {"note": 79, "velocity": 93, "duration": 119}, {"note": 79, "velocity": 94, "duration": 119}, {"note": 79, "velocity": 108, "duration": 240}, {"note": 80, "velocity": 109, "duration": 240}, {"note": 82, "velocity": 110, "duration": 240}, {"note": 79, "velocity": 116, "duration": 480}, {"note": 75, "velocity": 114, "duration": 1680}, {"note": 0, "velocity": 0, "duration": 16080}, {"note": 84, "velocity": 114, "duration": 119}, {"note": 84, "velocity": 107, "duration": 119}, {"note": 84, "velocity": 116, "duration": 240}, {"note": 82, "velocity": 113, "duration": 240}, {"note": 80, "velocity": 108, "duration": 247}, {"note": 79, "velocity": 116, "duration": 240}, {"note": 77, "velocity": 117, "duration": 479}, {"note": 77, "velocity": 114, "duration": 240}, {"note": 72, "velocity": 108, "duration": 240}, {"note": 77, "velocity": 108, "duration": 240}, {"note": 84, "velocity": 104, "duration": 480}, {"note": 82, "velocity": 120, "duration": 959}, {"note": 82, "velocity": 114, "duration": 119}, {"note": 82, "velocity": 114, "duration": 119}, {"note": 82, "velocity": 113, "duration": 240}, {"note": 80, "velocity": 113, "duration": 240}, {"note": 79, "velocity": 114, "duration": 240}, {"note": 77, "velocity": 113, "duration": 242}, {"note": 75, "velocity": 114, "duration": 479}, {"note": 75, "velocity": 117, "duration": 240}, {"note": 72, "velocity": 110, "duration": 240}, {"note": 75, "velocity": 108, "duration": 239}, {"note": 75, "velocity": 113, "duration": 240}, {"note": 82, "velocity": 113, "duration": 239}, {"note": 82, "velocity": 114, "duration": 480}, {"note": 80, "velocity": 116, "duration": 720}, {"note": 84, "velocity": 116, "duration": 240}, {"note": 82, "velocity": 116, "duration": 256}, {"note": 80, "velocity": 116, "duration": 240}, {"note": 79, "velocity": 108, "duration": 240}, {"note": 77, "velocity": 116, "duration": 480}, {"note": 72, "velocity": 100, "duration": 239}, {"note": 72, "velocity": 108, "duration": 239}, {"note": 72, "velocity": 108, "duration": 240}, {"note": 80, "velocity": 116, "duration": 240}, {"note": 79, "velocity": 108, "duration": 240}, {"note": 80, "velocity": 113, "duration": 480}, {"note": 79, "velocity": 117, "duration": 479}, {"note": 79, "velocity": 93, "duration": 119}, {"note": 79, "velocity": 94, "duration": 119}, {"note": 79, "velocity": 108, "duration": 240}, {"note": 80, "velocity": 109, "duration": 240}, {"note": 82, "velocity": 110, "duration": 240}, {"note": 79, "velocity": 116, "duration": 480}, {"note": 75, "velocity": 114, "duration": 2400}, {"note": 84, "velocity": 114, "duration": 119}, {"note": 84, "velocity": 107, "duration": 119}, {"note": 84, "velocity": 116, "duration": 240}, {"note": 82, "velocity": 113, "duration": 240}, {"note": 80, "velocity": 108, "duration": 247}, {"note": 79, "velocity": 116, "duration": 240}, {"note": 77, "velocity": 117, "duration": 479}, {"note": 77, "velocity": 114, "duration": 240}, {"note": 72, "velocity": 108, "duration": 240}, {"note": 77, "velocity": 108, "duration": 240}, {"note": 84, "velocity": 104, "duration": 480}, {"note": 82, "velocity": 120, "duration": 959}, {"note": 82, "velocity": 114, "duration": 119}, {"note": 82, "velocity": 114, "duration": 119}, {"note": 82, "velocity": 113, "duration": 240}, {"note": 80, "velocity": 113, "duration": 240}, {"note": 79, "velocity": 114, "duration": 240}, {"note": 77, "velocity": 113, "duration": 242}, {"note": 75, "velocity": 114, "duration": 479}, {"note": 75, "velocity": 117, "duration": 240}, {"note": 72, "velocity": 110, "duration": 240}, {"note": 75, "velocity": 108, "duration": 239}, {"note": 75, "velocity": 113, "duration": 240}, {"note": 82, "velocity": 113, "duration": 239}, {"note": 82, "velocity": 114, "duration": 480}, {"note": 80, "velocity": 116, "duration": 480}, {"note": 75, "velocity": 108, "duration": 120}, {"note": 77, "velocity": 98, "duration": 120}, {"note": 80, "velocity": 109, "duration": 239}, {"note": 80, "velocity": 113, "duration": 239}, {"note": 80, "velocity": 116, "duration": 239}, {"note": 80, "velocity": 119, "duration": 480}, {"note": 77, "velocity": 116, "duration": 479}, {"note": 77, "velocity": 96, "duration": 119}, {"note": 77, "velocity": 93, "duration": 119}, {"note": 77, "velocity": 113, "duration": 240}, {"note": 72, "velocity": 113, "duration": 240}, {"note": 80, "velocity": 119, "duration": 239}, {"note": 80, "velocity": 119, "duration": 480}, {"note": 79, "velocity": 119, "duration": 479}, {"note": 79, "velocity": 113, "duration": 239}, {"note": 79, "velocity": 114, "duration": 240}, {"note": 80, "velocity": 109, "duration": 240}, {"note": 82, "velocity": 114, "duration": 479}, {"note": 82, "velocity": 116, "duration": 256}, {"note": 80, "velocity": 93, "duration": 1680}]]