[[{"note": 75, "velocity": 110, "duration": 82}, {"note": 0, "velocity": 0, "duration": 158}, {"note": 77, "velocity": 90, "duration": 186}, {"note": 78, "velocity": 119, "duration": 204}, {"note": 77, "velocity": 113, "duration": 221}, {"note": 75, "velocity": 113, "duration": 248}, {"note": 77, "velocity": 110, "duration": 212}, {"note": 78, "velocity": 113, "duration": 261}, {"note": 80, "velocity": 108, "duration": 232}, {"note": 82, "velocity": 113, "duration": 224}, {"note": 78, "velocity": 113, "duration": 239}, {"note": 75, "velocity": 114, "duration": 305}, {"note": 0, "velocity": 0, "duration": 1135}, {"note": 78, "velocity": 113, "duration": 198}, {"note": 80, "velocity": 104, "duration": 205}, {"note": 82, "velocity": 113, "duration": 230}, {"note": 80, "velocity": 104, "duration": 195}, {"note": 78, "velocity": 108, "duration": 231}, {"note": 80, "velocity": 104, "duration": 263}, {"note": 82, "velocity": 108, "duration": 208}, {"note": 80, "velocity": 91, "duration": 241}, {"note": 78, "velocity": 104, "duration": 232}, {"note": 80, "velocity": 100, "duration": 224}, {"note": 82, "velocity": 113, "duration": 449}, {"note": 0, "velocity": 0, "duration": 991}, {"note": 82, "velocity": 114, "duration": 198}, {"note": 85, "velocity": 113, "duration": 215}, {"note": 87, "velocity": 113, "duration": 272}, {"note": 0, "velocity": 0, "duration": 208}, {"note": 78, "velocity": 107, "duration": 112}, {"note": 0, "velocity": 0, "duration": 128}, {"note": 82, "velocity": 102, "duration": 141}, {"note": 0, "velocity": 0, "duration": 99}, {"note": 80, "velocity": 107, "duration": 223}, {"note": 0, "velocity": 0, "duration": 257}, {"note": 80, "velocity": 107, "duration": 184}, {"note": 82, "velocity": 98, "duration": 234}, {"note": 85, "velocity": 108, "duration": 114}, {"note": 0, "velocity": 0, "duration": 126}, {"note": 73, "velocity": 87, "duration": 109}, {"note": 0, "velocity": 0, "duration": 131}, {"note": 73, "velocity": 93, "duration": 133}, {"note": 0, "velocity": 0, "duration": 107}, {"note": 80, "velocity": 104, "duration": 153}, {"note": 0, "velocity": 0, "duration": 87}, {"note": 78, "velocity": 102, "duration": 115}, {"note": 0, "velocity": 0, "duration": 365}, {"note": 75, "velocity": 110, "duration": 128}, {"note": 0, "velocity": 0, "duration": 112}, {"note": 82, "velocity": 113, "duration": 211}, {"note": 80, "velocity": 110, "duration": 222}, {"note": 75, "velocity": 104, "duration": 150}, {"note": 0, "velocity": 0, "duration": 90}, {"note": 80, "velocity": 108, "duration": 144}, {"note": 0, "velocity": 0, "duration": 96}, {"note": 82, "velocity": 113, "duration": 180}, {"note": 80, "velocity": 114, "duration": 118}, {"note": 0, "velocity": 0, "duration": 122}, {"note": 75, "velocity": 108, "duration": 154}, {"note": 0, "velocity": 0, "duration": 86}, {"note": 80, "velocity": 104, "duration": 206}, {"note": 78, "velocity": 104, "duration": 218}, {"note": 77, "velocity": 110, "duration": 320}, {"note": 0, "velocity": 0, "duration": 3040}, {"note": 75, "velocity": 110, "duration": 82}, {"note": 0, "velocity": 0, "duration": 158}, {"note": 77, "velocity": 90, "duration": 186}, {"note": 78, "velocity": 119, "duration": 204}, {"note": 77, "velocity": 113, "duration": 221}, {"note": 75, "velocity": 113, "duration": 248}, {"note": 77, "velocity": 110, "duration": 212}, {"note": 78, "velocity": 113, "duration": 261}, {"note": 80, "velocity": 108, "duration": 232}, {"note": 82, "velocity": 113, "duration": 224}, {"note": 78, "velocity": 113, "duration": 239}, {"note": 75, "velocity": 114, "duration": 305}, {"note": 0, "velocity": 0, "duration": 1135}, {"note": 78, "velocity": 113, "duration": 198}, {"note": 80, "velocity": 104, "duration": 205}, {"note": 82, "velocity": 113, "duration": 230}, {"note": 80, "velocity": 104, "duration": 195}, {"note": 78, "velocity": 108, "duration": 231}, {"note": 80, "velocity": 104, "duration": 263}, {"note": 82, "velocity": 108, "duration": 208}, {"note": 80, "velocity": 91, "duration": 241}, {"note": 78, "velocity": 104, "duration": 232}, {"note": 85, "velocity": 100, "duration": 224}, {"note": 85, "velocity": 113, "duration": 166}, {"note": 0, "velocity": 0, "duration": 314}, {"note": 82, "velocity": 113, "duration": 166}, {"note": 0, "velocity": 0, "duration": 794}, {"note": 82, "velocity": 114, "duration": 198}, {"note": 85, "velocity": 113, "duration": 215}, {"note": 87, "velocity": 113, "duration": 180}, {"note": 78, "velocity": 107, "duration": 112}, {"note": 0, "velocity": 0, "duration": 128}, {"note": 78, "velocity": 107, "duration": 112}, {"note": 0, "velocity": 0, "duration": 128}, {"note": 82, "velocity": 102, "duration": 141}, {"note": 0, "velocity": 0, "duration": 99}, {"note": 80, "velocity": 107, "duration": 223}, {"note": 0, "velocity": 0, "duration": 257}, {"note": 80, "velocity": 107, "duration": 184}, {"note": 82, "velocity": 98, "duration": 234}, {"note": 85, "velocity": 108, "duration": 114}, {"note": 0, "velocity": 0, "duration": 126}, {"note": 73, "velocity": 87, "duration": 109}, {"note": 0, "velocity": 0, "duration": 131}, {"note": 73, "velocity": 93, "duration": 133}, {"note": 0, "velocity": 0, "duration": 107}, {"note": 80, "velocity": 104, "duration": 153}, {"note": 0, "velocity": 0, "duration": 87}, {"note": 78, "velocity": 102, "duration": 115}, {"note": 0, "velocity": 0, "duration": 365}, {"note": 82, "velocity": 117, "duration": 136}, {"note": 0, "velocity": 0, "duration": 104}, {"note": 80, "velocity": 108, "duration": 166}, {"note": 0, "velocity": 0, "duration": 74}, {"note": 75, "velocity": 107, "duration": 145}, {"note": 0, "velocity": 0, "duration": 95}, {"note": 80, "velocity": 110, "duration": 111}, {"note": 0, "velocity": 0, "duration": 129}, {"note": 80, "velocity": 113, "duration": 148}, {"note": 0, "velocity": 0, "duration": 92}, {"note": 82, "velocity": 116, "duration": 177}, {"note": 0, "velocity": 0, "duration": 63}, {"note": 80, "velocity": 110, "duration": 228}, {"note": 78, "velocity": 110, "duration": 178}, {"note": 0, "velocity": 0, "duration": 62}, {"note": 70, "velocity": 108, "duration": 166}, {"note": 0, "velocity": 0, "duration": 74}, {"note": 78, "velocity": 102, "duration": 155}, {"note": 0, "velocity": 0, "duration": 85}, {"note": 78, "velocity": 100, "duration": 182}, {"note": 77, "velocity": 98, "duration": 213}, {"note": 75, "velocity": 108, "duration": 187}, {"note": 0, "velocity": 0, "duration": 773}, {"note": 90, "velocity": 119, "duration": 208}, {"note": 89, "velocity": 114, "duration": 223}, {"note": 87, "velocity": 117, "duration": 574}, {"note": 0, "velocity": 0, "duration": 146}, {"note": 85, "velocity": 113, "duration": 177}, {"note": 0, "velocity": 0, "duration": 63}, {"note": 87, "velocity": 117, "duration": 303}, {"note": 85, "velocity": 117, "duration": 223}, {"note": 82, "velocity": 117, "duration": 221}, {"note": 80, "velocity": 117, "duration": 202}, {"note": 82, "velocity": 120, "duration": 239}, {"note": 0, "velocity": 0, "duration": 1201}, {"note": 75, "velocity": 117, "duration": 162}, {"note": 0, "velocity": 0, "duration": 78}, {"note": 82, "velocity": 117, "duration": 188}, {"note": 80, "velocity": 120, "duration": 227}, {"note": 0, "velocity": 0, "duration": 493}, {"note": 78, "velocity": 116, "duration": 171}, {"note": 0, "velocity": 0, "duration": 69}, {"note": 80, "velocity": 117, "duration": 194}, {"note": 82, "velocity": 114, "duration": 158}, {"note": 0, "velocity": 0, "duration": 82}, {"note": 85, "velocity": 117, "duration": 155}, {"note": 0, "velocity": 0, "duration": 85}, {"note": 87, "velocity": 114, "duration": 163}, {"note": 0, "velocity": 0, "duration": 77}, {"note": 82, "velocity": 119, "duration": 297}, {"note": 0, "velocity": 0, "duration": 1143}, {"note": 90, "velocity": 119, "duration": 166}, {"note": 0, "velocity": 0, "duration": 74}, {"note": 89, "velocity": 113, "duration": 122}, {"note": 0, "velocity": 0, "duration": 118}, {"note": 87, "velocity": 120, "duration": 577}, {"note": 0, "velocity": 0, "duration": 143}, {"note": 85, "velocity": 117, "duration": 157}, {"note": 0, "velocity": 0, "duration": 83}, {"note": 87, "velocity": 114, "duration": 196}, {"note": 85, "velocity": 114, "duration": 226}, {"note": 75, "velocity": 116, "duration": 144}, {"note": 0, "velocity": 0, "duration": 96}, {"note": 82, "velocity": 117, "duration": 151}, {"note": 0, "velocity": 0, "duration": 89}, {"note": 82, "velocity": 117, "duration": 173}, {"note": 0, "velocity": 0, "duration": 67}, {"note": 80, "velocity": 116, "duration": 224}, {"note": 0, "velocity": 0, "duration": 976}, {"note": 75, "velocity": 117, "duration": 138}, {"note": 0, "velocity": 0, "duration": 102}, {"note": 82, "velocity": 117, "duration": 156}, {"note": 0, "velocity": 0, "duration": 84}, {"note": 80, "velocity": 120, "duration": 194}, {"note": 0, "velocity": 0, "duration": 526}, {"note": 78, "velocity": 116, "duration": 172}, {"note": 0, "velocity": 0, "duration": 68}, {"note": 80, "velocity": 114, "duration": 214}, {"note": 78, "velocity": 113, "duration": 235}, {"note": 75, "velocity": 116, "duration": 233}, {"note": 73, "velocity": 114, "duration": 227}, {"note": 75, "velocity": 114, "duration": 302}, {"note": 0, "velocity": 0, "duration": 18418}, {"note": 75, "velocity": 110, "duration": 82}, {"note": 0, "velocity": 0, "duration": 158}, {"note": 77, "velocity": 90, "duration": 186}, {"note": 78, "velocity": 119, "duration": 204}, {"note": 77, "velocity": 113, "duration": 221}, {"note": 75, "velocity": 113, "duration": 248}, {"note": 77, "velocity": 110, "duration": 212}, {"note": 78, "velocity": 113, "duration": 261}, {"note": 80, "velocity": 108, "duration": 232}, {"note": 82, "velocity": 113, "duration": 224}, {"note": 78, "velocity": 113, "duration": 239}, {"note": 75, "velocity": 114, "duration": 305}, {"note": 0, "velocity": 0, "duration": 1135}, {"note": 78, "velocity": 113, "duration": 198}, {"note": 80, "velocity": 104, "duration": 205}, {"note": 82, "velocity": 113, "duration": 230}, {"note": 80, "velocity": 104, "duration": 195}, {"note": 78, "velocity": 108, "duration": 231}, {"note": 80, "velocity": 104, "duration": 263}, {"note": 82, "velocity": 108, "duration": 208}, {"note": 80, "velocity": 91, "duration": 241}, {"note": 78, "velocity": 104, "duration": 232}, {"note": 80, "velocity": 100, "duration": 224}, {"note": 82, "velocity": 113, "duration": 166}, {"note": 0, "velocity": 0, "duration": 1274}, {"note": 82, "velocity": 114, "duration": 198}, {"note": 85, "velocity": 113, "duration": 215}, {"note": 75, "velocity": 113, "duration": 180}, {"note": 87, "velocity": 107, "duration": 112}, {"note": 0, "velocity": 0, "duration": 128}, {"note": 78, "velocity": 107, "duration": 112}, {"note": 0, "velocity": 0, "duration": 128}, {"note": 82, "velocity": 102, "duration": 141}, {"note": 0, "velocity": 0, "duration": 99}, {"note": 80, "velocity": 107, "duration": 223}, {"note": 0, "velocity": 0, "duration": 257}, {"note": 80, "velocity": 107, "duration": 184}, {"note": 82, "velocity": 98, "duration": 234}, {"note": 85, "velocity": 108, "duration": 114}, {"note": 0, "velocity": 0, "duration": 126}, {"note": 73, "velocity": 87, "duration": 109}, {"note": 0, "velocity": 0, "duration": 131}, {"note": 73, "velocity": 93, "duration": 133}, {"note": 0, "velocity": 0, "duration": 107}, {"note": 80, "velocity": 104, "duration": 153}, {"note": 0, "velocity": 0, "duration": 87}, {"note": 78, "velocity": 102, "duration": 115}, {"note": 0, "velocity": 0, "duration": 365}, {"note": 82, "velocity": 117, "duration": 136}, {"note": 0, "velocity": 0, "duration": 104}, {"note": 80, "velocity": 108, "duration": 166}, {"note": 0, "velocity": 0, "duration": 74}, {"note": 75, "velocity": 107, "duration": 145}, {"note": 0, "velocity": 0, "duration": 95}, {"note": 80, "velocity": 110, "duration": 111}, {"note": 0, "velocity": 0, "duration": 129}, {"note": 80, "velocity": 113, "duration": 148}, {"note": 0, "velocity": 0, "duration": 92}, {"note": 82, "velocity": 116, "duration": 177}, {"note": 0, "velocity": 0, "duration": 63}, {"note": 80, "velocity": 110, "duration": 228}, {"note": 78, "velocity": 110, "duration": 178}, {"note": 0, "velocity": 0, "duration": 62}, {"note": 70, "velocity": 108, "duration": 166}, {"note": 0, "velocity": 0, "duration": 74}, {"note": 78, "velocity": 102, "duration": 155}, {"note": 0, "velocity": 0, "duration": 85}, {"note": 78, "velocity": 100, "duration": 182}, {"note": 77, "velocity": 98, "duration": 213}, {"note": 75, "velocity": 108, "duration": 187}, {"note": 0, "velocity": 0, "duration": 773}, {"note": 90, "velocity": 119, "duration": 208}, {"note": 89, "velocity": 114, "duration": 223}, {"note": 87, "velocity": 117, "duration": 574}, {"note": 0, "velocity": 0, "duration": 146}, {"note": 85, "velocity": 113, "duration": 177}, {"note": 0, "velocity": 0, "duration": 63}, {"note": 87, "velocity": 117, "duration": 303}, {"note": 85, "velocity": 117, "duration": 223}, {"note": 82, "velocity": 117, "duration": 221}, {"note": 80, "velocity": 117, "duration": 202}, {"note": 82, "velocity": 120, "duration": 239}, {"note": 0, "velocity": 0, "duration": 1201}, {"note": 75, "velocity": 117, "duration": 162}, {"note": 0, "velocity": 0, "duration": 78}, {"note": 82, "velocity": 117, "duration": 188}, {"note": 80, "velocity": 120, "duration": 227}, {"note": 0, "velocity": 0, "duration": 493}, {"note": 78, "velocity": 116, "duration": 171}, {"note": 0, "velocity": 0, "duration": 69}, {"note": 80, "velocity": 117, "duration": 194}, {"note": 82, "velocity": 114, "duration": 158}, {"note": 0, "velocity": 0, "duration": 82}, {"note": 85, "velocity": 117, "duration": 155}, {"note": 0, "velocity": 0, "duration": 85}, {"note": 87, "velocity": 114, "duration": 163}, {"note": 0, "velocity": 0, "duration": 77}, {"note": 82, "velocity": 119, "duration": 297}, {"note": 0, "velocity": 0, "duration": 1143}, {"note": 90, "velocity": 119, "duration": 166}, {"note": 0, "velocity": 0, "duration": 74}, {"note": 89, "velocity": 113, "duration": 122}, {"note": 0, "velocity": 0, "duration": 118}, {"note": 87, "velocity": 120, "duration": 577}, {"note": 0, "velocity": 0, "duration": 143}, {"note": 85, "velocity": 117, "duration": 157}, {"note": 0, "velocity": 0, "duration": 83}, {"note": 87, "velocity": 114, "duration": 196}, {"note": 85, "velocity": 114, "duration": 226}, {"note": 75, "velocity": 116, "duration": 144}, {"note": 0, "velocity": 0, "duration": 96}, {"note": 82, "velocity": 117, "duration": 151}, {"note": 0, "velocity": 0, "duration": 89}, {"note": 82, "velocity": 117, "duration": 173}, {"note": 0, "velocity": 0, "duration": 67}, {"note": 80, "velocity": 116, "duration": 224}, {"note": 0, "velocity": 0, "duration": 976}, {"note": 75, "velocity": 117, "duration": 138}, {"note": 0, "velocity": 0, "duration": 102}, {"note": 82, "velocity": 117, "duration": 156}, {"note": 0, "velocity": 0, "duration": 84}, {"note": 80, "velocity": 120, "duration": 194}, {"note": 0, "velocity": 0, "duration": 526}, {"note": 78, "velocity": 116, "duration": 172}, {"note": 0, "velocity": 0, "duration": 68}, {"note": 80, "velocity": 114, "duration": 214}, {"note": 78, "velocity": 113, "duration": 235}, {"note": 75, "velocity": 116, "duration": 233}, {"note": 73, "velocity": 114, "duration": 227}, {"note": 75, "velocity": 114, "duration": 302}, {"note": 0, "velocity": 0, "duration": 18418}, {"note": 70, "velocity": 116, "duration": 207}, {"note": 73, "velocity": 110, "duration": 170}, {"note": 0, "velocity": 0, "duration": 70}, {"note": 78, "velocity": 117, "duration": 263}, {"note": 75, "velocity": 114, "duration": 335}, {"note": 0, "velocity": 0, "duration": 145}, {"note": 73, "velocity": 116, "duration": 159}, {"note": 0, "velocity": 0, "duration": 81}, {"note": 75, "velocity": 117, "duration": 214}, {"note": 73, "velocity": 116, "duration": 226}, {"note": 70, "velocity": 116, "duration": 232}, {"note": 68, "velocity": 116, "duration": 214}, {"note": 70, "velocity": 119, "duration": 294}, {"note": 0, "velocity": 0, "duration": 1146}, {"note": 63, "velocity": 113, "duration": 167}, {"note": 0, "velocity": 0, "duration": 73}, {"note": 70, "velocity": 117, "duration": 184}, {"note": 68, "velocity": 116, "duration": 376}, {"note": 0, "velocity": 0, "duration": 344}, {"note": 66, "velocity": 113, "duration": 182}, {"note": 68, "velocity": 113, "duration": 211}, {"note": 70, "velocity": 114, "duration": 188}, {"note": 73, "velocity": 116, "duration": 193}, {"note": 75, "velocity": 104, "duration": 193}, {"note": 70, "velocity": 114, "duration": 323}, {"note": 0, "velocity": 0, "duration": 1117}, {"note": 70, "velocity": 117, "duration": 224}, {"note": 73, "velocity": 113, "duration": 204}, {"note": 78, "velocity": 114, "duration": 210}, {"note": 75, "velocity": 117, "duration": 188}, {"note": 0, "velocity": 0, "duration": 292}, {"note": 73, "velocity": 116, "duration": 196}, {"note": 75, "velocity": 114, "duration": 216}, {"note": 73, "velocity": 110, "duration": 231}, {"note": 63, "velocity": 91, "duration": 111}, {"note": 0, "velocity": 0, "duration": 129}, {"note": 70, "velocity": 116, "duration": 161}, {"note": 0, "velocity": 0, "duration": 79}, {"note": 70, "velocity": 114, "duration": 195}, {"note": 68, "velocity": 116, "duration": 228}, {"note": 0, "velocity": 0, "duration": 972}, {"note": 63, "velocity": 116, "duration": 121}, {"note": 0, "velocity": 0, "duration": 119}, {"note": 70, "velocity": 117, "duration": 188}, {"note": 68, "velocity": 119, "duration": 500}, {"note": 0, "velocity": 0, "duration": 220}, {"note": 66, "velocity": 114, "duration": 169}, {"note": 0, "velocity": 0, "duration": 71}, {"note": 68, "velocity": 119, "duration": 219}, {"note": 66, "velocity": 117, "duration": 244}, {"note": 63, "velocity": 117, "duration": 233}, {"note": 61, "velocity": 108, "duration": 201}, {"note": 63, "velocity": 116, "duration": 329}, {"note": 0, "velocity": 0, "duration": 1111}, {"note": 90, "velocity": 119, "duration": 208}, {"note": 89, "velocity": 114, "duration": 223}, {"note": 87, "velocity": 117, "duration": 574}, {"note": 0, "velocity": 0, "duration": 146}, {"note": 85, "velocity": 113, "duration": 177}, {"note": 0, "velocity": 0, "duration": 63}, {"note": 87, "velocity": 117, "duration": 303}, {"note": 85, "velocity": 117, "duration": 223}, {"note": 82, "velocity": 117, "duration": 221}, {"note": 80, "velocity": 117, "duration": 202}, {"note": 82, "velocity": 120, "duration": 239}, {"note": 0, "velocity": 0, "duration": 1201}, {"note": 75, "velocity": 117, "duration": 162}, {"note": 0, "velocity": 0, "duration": 78}, {"note": 82, "velocity": 117, "duration": 188}, {"note": 80, "velocity": 120, "duration": 227}, {"note": 0, "velocity": 0, "duration": 253}, {"note": 80, "velocity": 116, "duration": 171}, {"note": 0, "velocity": 0, "duration": 69}, {"note": 78, "velocity": 116, "duration": 171}, {"note": 0, "velocity": 0, "duration": 69}, {"note": 80, "velocity": 117, "duration": 194}, {"note": 82, "velocity": 114, "duration": 158}, {"note": 0, "velocity": 0, "duration": 82}, {"note": 85, "velocity": 117, "duration": 155}, {"note": 0, "velocity": 0, "duration": 85}, {"note": 87, "velocity": 114, "duration": 163}, {"note": 0, "velocity": 0, "duration": 317}, {"note": 89, "velocity": 119, "duration": 297}, {"note": 0, "velocity": 0, "duration": 903}, {"note": 90, "velocity": 119, "duration": 166}, {"note": 0, "velocity": 0, "duration": 74}, {"note": 89, "velocity": 113, "duration": 122}, {"note": 0, "velocity": 0, "duration": 118}, {"note": 87, "velocity": 120, "duration": 577}, {"note": 0, "velocity": 0, "duration": 143}, {"note": 85, "velocity": 117, "duration": 157}, {"note": 0, "velocity": 0, "duration": 83}, {"note": 87, "velocity": 114, "duration": 196}, {"note": 85, "velocity": 114, "duration": 226}, {"note": 75, "velocity": 116, "duration": 144}, {"note": 0, "velocity": 0, "duration": 96}, {"note": 82, "velocity": 117, "duration": 151}, {"note": 0, "velocity": 0, "duration": 89}, {"note": 82, "velocity": 117, "duration": 173}, {"note": 0, "velocity": 0, "duration": 67}, {"note": 80, "velocity": 116, "duration": 224}, {"note": 0, "velocity": 0, "duration": 856}, {"note": 75, "velocity": 117, "duration": 138}, {"note": 82, "velocity": 117, "duration": 156}, {"note": 0, "velocity": 0, "duration": 324}, {"note": 80, "velocity": 120, "duration": 194}, {"note": 0, "velocity": 0, "duration": 286}, {"note": 80, "velocity": 120, "duration": 194}, {"note": 78, "velocity": 116, "duration": 172}, {"note": 0, "velocity": 0, "duration": 68}, {"note": 80, "velocity": 114, "duration": 214}, {"note": 78, "velocity": 113, "duration": 235}, {"note": 75, "velocity": 116, "duration": 233}, {"note": 73, "velocity": 114, "duration": 227}, {"note": 75, "velocity": 114, "duration": 302}, {"note": 0, "velocity": 0, "duration": 1138}, {"note": 75, "velocity": 113, "duration": 195}, {"note": 82, "velocity": 116, "duration": 185}, {"note": 80, "velocity": 117, "duration": 257}, {"note": 0, "velocity": 0, "duration": 463}, {"note": 78, "velocity": 113, "duration": 182}, {"note": 80, "velocity": 110, "duration": 194}, {"note": 78, "velocity": 110, "duration": 194}, {"note": 75, "velocity": 113, "duration": 171}, {"note": 0, "velocity": 0, "duration": 69}, {"note": 73, "velocity": 104, "duration": 197}, {"note": 0, "velocity": 0, "duration": 283}, {"note": 75, "velocity": 100, "duration": 242}, {"note": 0, "velocity": 0, "duration": 958}, {"note": 75, "velocity": 104, "duration": 170}, {"note": 0, "velocity": 0, "duration": 70}, {"note": 82, "velocity": 107, "duration": 198}, {"note": 80, "velocity": 102, "duration": 250}, {"note": 0, "velocity": 0, "duration": 470}, {"note": 78, "velocity": 92, "duration": 188}, {"note": 80, "velocity": 92, "duration": 208}, {"note": 78, "velocity": 93, "duration": 282}, {"note": 0, "velocity": 0, "duration": 78}, {"note": 75, "velocity": 98, "duration": 293}, {"note": 0, "velocity": 0, "duration": 67}, {"note": 73, "velocity": 87, "duration": 496}, {"note": 75, "velocity": 89, "duration": 394}]]