[[{"note": 67, "velocity": 107, "duration": 240}, {"note": 69, "velocity": 102, "duration": 240}, {"note": 71, "velocity": 110, "duration": 480}, {"note": 69, "velocity": 113, "duration": 480}, {"note": 71, "velocity": 114, "duration": 480}, {"note": 69, "velocity": 100, "duration": 480}, {"note": 71, "velocity": 102, "duration": 240}, {"note": 74, "velocity": 107, "duration": 479}, {"note": 74, "velocity": 104, "duration": 600}, {"note": 0, "velocity": 0, "duration": 120}, {"note": 67, "velocity": 98, "duration": 240}, {"note": 69, "velocity": 88, "duration": 240}, {"note": 71, "velocity": 102, "duration": 480}, {"note": 69, "velocity": 96, "duration": 480}, {"note": 71, "velocity": 102, "duration": 480}, {"note": 69, "velocity": 100, "duration": 480}, {"note": 71, "velocity": 96, "duration": 240}, {"note": 76, "velocity": 107, "duration": 480}, {"note": 74, "velocity": 114, "duration": 534}, {"note": 0, "velocity": 0, "duration": 186}, {"note": 67, "velocity": 98, "duration": 240}, {"note": 69, "velocity": 96, "duration": 240}, {"note": 71, "velocity": 93, "duration": 480}, {"note": 67, "velocity": 89, "duration": 479}, {"note": 67, "velocity": 98, "duration": 699}, {"note": 0, "velocity": 0, "duration": 261}, {"note": 71, "velocity": 113, "duration": 480}, {"note": 67, "velocity": 108, "duration": 479}, {"note": 67, "velocity": 110, "duration": 749}, {"note": 0, "velocity": 0, "duration": 211}, {"note": 71, "velocity": 113, "duration": 480}, {"note": 67, "velocity": 100, "duration": 479}, {"note": 67, "velocity": 107, "duration": 480}, {"note": 64, "velocity": 98, "duration": 480}, {"note": 69, "velocity": 113, "duration": 979}, {"note": 0, "velocity": 0, "duration": 461}, {"note": 67, "velocity": 107, "duration": 240}, {"note": 69, "velocity": 102, "duration": 240}, {"note": 71, "velocity": 110, "duration": 480}, {"note": 69, "velocity": 113, "duration": 480}, {"note": 71, "velocity": 114, "duration": 480}, {"note": 69, "velocity": 100, "duration": 480}, {"note": 71, "velocity": 102, "duration": 240}, {"note": 74, "velocity": 107, "duration": 479}, {"note": 74, "velocity": 104, "duration": 454}, {"note": 0, "velocity": 0, "duration": 266}, {"note": 67, "velocity": 98, "duration": 240}, {"note": 69, "velocity": 88, "duration": 240}, {"note": 71, "velocity": 102, "duration": 480}, {"note": 69, "velocity": 96, "duration": 480}, {"note": 71, "velocity": 102, "duration": 480}, {"note": 69, "velocity": 100, "duration": 480}, {"note": 71, "velocity": 96, "duration": 240}, {"note": 78, "velocity": 107, "duration": 479}, {"note": 78, "velocity": 114, "duration": 497}, {"note": 0, "velocity": 0, "duration": 223}, {"note": 74, "velocity": 107, "duration": 258}, {"note": 76, "velocity": 98, "duration": 240}, {"note": 78, "velocity": 116, "duration": 480}, {"note": 74, "velocity": 113, "duration": 480}, {"note": 76, "velocity": 113, "duration": 747}, {"note": 0, "velocity": 0, "duration": 213}, {"note": 76, "velocity": 114, "duration": 480}, {"note": 71, "velocity": 108, "duration": 480}, {"note": 74, "velocity": 113, "duration": 602}, {"note": 0, "velocity": 0, "duration": 358}, {"note": 76, "velocity": 113, "duration": 240}, {"note": 74, "velocity": 110, "duration": 240}, {"note": 76, "velocity": 108, "duration": 240}, {"note": 74, "velocity": 110, "duration": 240}, {"note": 76, "velocity": 116, "duration": 480}, {"note": 78, "velocity": 119, "duration": 479}, {"note": 78, "velocity": 119, "duration": 1124}, {"note": 0, "velocity": 0, "duration": 796}, {"note": 79, "velocity": 104, "duration": 960}, {"note": 81, "velocity": 114, "duration": 1012}, {"note": 0, "velocity": 0, "duration": 1148}, {"note": 74, "velocity": 98, "duration": 256}, {"note": 79, "velocity": 98, "duration": 303}, {"note": 78, "velocity": 103, "duration": 262}, {"note": 79, "velocity": 108, "duration": 253}, {"note": 78, "velocity": 93, "duration": 263}, {"note": 79, "velocity": 98, "duration": 279}, {"note": 78, "velocity": 89, "duration": 297}, {"note": 71, "velocity": 100, "duration": 480}, {"note": 69, "velocity": 107, "duration": 480}, {"note": 71, "velocity": 108, "duration": 240}, {"note": 74, "velocity": 108, "duration": 479}, {"note": 74, "velocity": 110, "duration": 479}, {"note": 74, "velocity": 102, "duration": 240}, {"note": 79, "velocity": 114, "duration": 240}, {"note": 78, "velocity": 103, "duration": 240}, {"note": 79, "velocity": 108, "duration": 480}, {"note": 69, "velocity": 108, "duration": 480}, {"note": 71, "velocity": 107, "duration": 406}, {"note": 74, "velocity": 107, "duration": 254}, {"note": 74, "velocity": 110, "duration": 802}, {"note": 0, "velocity": 0, "duration": 638}, {"note": 74, "velocity": 98, "duration": 240}, {"note": 76, "velocity": 94, "duration": 240}, {"note": 74, "velocity": 96, "duration": 257}, {"note": 76, "velocity": 100, "duration": 480}, {"note": 79, "velocity": 107, "duration": 527}, {"note": 0, "velocity": 0, "duration": 193}, {"note": 74, "velocity": 88, "duration": 300}, {"note": 76, "velocity": 86, "duration": 240}, {"note": 74, "velocity": 93, "duration": 248}, {"note": 76, "velocity": 92, "duration": 480}, {"note": 79, "velocity": 108, "duration": 570}, {"note": 0, "velocity": 0, "duration": 150}, {"note": 74, "velocity": 110, "duration": 267}, {"note": 76, "velocity": 102, "duration": 240}, {"note": 83, "velocity": 107, "duration": 480}, {"note": 74, "velocity": 104, "duration": 240}, {"note": 76, "velocity": 96, "duration": 240}, {"note": 83, "velocity": 102, "duration": 480}, {"note": 74, "velocity": 94, "duration": 240}, {"note": 76, "velocity": 100, "duration": 240}, {"note": 83, "velocity": 104, "duration": 240}, {"note": 79, "velocity": 100, "duration": 480}, {"note": 81, "velocity": 108, "duration": 720}, {"note": 74, "velocity": 98, "duration": 256}, {"note": 79, "velocity": 98, "duration": 303}, {"note": 78, "velocity": 103, "duration": 262}, {"note": 79, "velocity": 108, "duration": 253}, {"note": 78, "velocity": 93, "duration": 263}, {"note": 79, "velocity": 98, "duration": 279}, {"note": 78, "velocity": 89, "duration": 297}, {"note": 71, "velocity": 100, "duration": 480}, {"note": 69, "velocity": 107, "duration": 480}, {"note": 71, "velocity": 108, "duration": 240}, {"note": 74, "velocity": 108, "duration": 479}, {"note": 74, "velocity": 110, "duration": 479}, {"note": 74, "velocity": 102, "duration": 240}, {"note": 79, "velocity": 114, "duration": 240}, {"note": 78, "velocity": 103, "duration": 240}, {"note": 79, "velocity": 108, "duration": 478}, {"note": 0, "velocity": 0, "duration": 242}, {"note": 69, "velocity": 100, "duration": 240}, {"note": 71, "velocity": 104, "duration": 240}, {"note": 76, "velocity": 100, "duration": 621}, {"note": 0, "velocity": 0, "duration": 99}, {"note": 76, "velocity": 116, "duration": 259}, {"note": 74, "velocity": 94, "duration": 959}, {"note": 74, "velocity": 98, "duration": 240}, {"note": 76, "velocity": 94, "duration": 240}, {"note": 74, "velocity": 96, "duration": 257}, {"note": 76, "velocity": 100, "duration": 480}, {"note": 79, "velocity": 107, "duration": 472}, {"note": 0, "velocity": 0, "duration": 248}, {"note": 74, "velocity": 104, "duration": 240}, {"note": 76, "velocity": 108, "duration": 240}, {"note": 83, "velocity": 108, "duration": 240}, {"note": 81, "velocity": 116, "duration": 480}, {"note": 79, "velocity": 114, "duration": 465}, {"note": 0, "velocity": 0, "duration": 255}, {"note": 74, "velocity": 110, "duration": 267}, {"note": 76, "velocity": 102, "duration": 240}, {"note": 83, "velocity": 107, "duration": 480}, {"note": 74, "velocity": 104, "duration": 240}, {"note": 76, "velocity": 96, "duration": 240}, {"note": 83, "velocity": 102, "duration": 480}, {"note": 74, "velocity": 94, "duration": 240}, {"note": 76, "velocity": 100, "duration": 240}, {"note": 83, "velocity": 104, "duration": 240}, {"note": 79, "velocity": 100, "duration": 480}, {"note": 81, "velocity": 108, "duration": 480}, {"note": 79, "velocity": 113, "duration": 360}, {"note": 71, "velocity": 108, "duration": 359}, {"note": 71, "velocity": 98, "duration": 240}, {"note": 78, "velocity": 119, "duration": 840}, {"note": 79, "velocity": 107, "duration": 2385}, {"note": 0, "velocity": 0, "duration": 11655}, {"note": 67, "velocity": 107, "duration": 240}, {"note": 69, "velocity": 102, "duration": 240}, {"note": 71, "velocity": 110, "duration": 480}, {"note": 69, "velocity": 113, "duration": 480}, {"note": 71, "velocity": 114, "duration": 480}, {"note": 69, "velocity": 100, "duration": 480}, {"note": 71, "velocity": 102, "duration": 240}, {"note": 74, "velocity": 107, "duration": 479}, {"note": 74, "velocity": 104, "duration": 493}, {"note": 0, "velocity": 0, "duration": 227}, {"note": 67, "velocity": 98, "duration": 240}, {"note": 69, "velocity": 88, "duration": 240}, {"note": 71, "velocity": 102, "duration": 480}, {"note": 69, "velocity": 96, "duration": 480}, {"note": 71, "velocity": 102, "duration": 480}, {"note": 69, "velocity": 100, "duration": 480}, {"note": 71, "velocity": 96, "duration": 240}, {"note": 76, "velocity": 107, "duration": 480}, {"note": 74, "velocity": 114, "duration": 720}, {"note": 67, "velocity": 98, "duration": 240}, {"note": 69, "velocity": 96, "duration": 240}, {"note": 71, "velocity": 93, "duration": 480}, {"note": 67, "velocity": 89, "duration": 479}, {"note": 67, "velocity": 98, "duration": 511}, {"note": 0, "velocity": 0, "duration": 449}, {"note": 71, "velocity": 113, "duration": 480}, {"note": 67, "velocity": 108, "duration": 479}, {"note": 67, "velocity": 110, "duration": 623}, {"note": 0, "velocity": 0, "duration": 337}, {"note": 71, "velocity": 113, "duration": 480}, {"note": 67, "velocity": 100, "duration": 479}, {"note": 67, "velocity": 107, "duration": 480}, {"note": 64, "velocity": 98, "duration": 480}, {"note": 69, "velocity": 113, "duration": 634}, {"note": 0, "velocity": 0, "duration": 806}, {"note": 67, "velocity": 107, "duration": 240}, {"note": 69, "velocity": 102, "duration": 240}, {"note": 71, "velocity": 110, "duration": 480}, {"note": 69, "velocity": 113, "duration": 480}, {"note": 71, "velocity": 114, "duration": 480}, {"note": 69, "velocity": 100, "duration": 480}, {"note": 71, "velocity": 102, "duration": 240}, {"note": 74, "velocity": 107, "duration": 479}, {"note": 74, "velocity": 104, "duration": 470}, {"note": 0, "velocity": 0, "duration": 250}, {"note": 67, "velocity": 98, "duration": 240}, {"note": 69, "velocity": 88, "duration": 240}, {"note": 71, "velocity": 102, "duration": 480}, {"note": 69, "velocity": 96, "duration": 480}, {"note": 71, "velocity": 102, "duration": 480}, {"note": 69, "velocity": 100, "duration": 480}, {"note": 71, "velocity": 96, "duration": 240}, {"note": 78, "velocity": 107, "duration": 479}, {"note": 78, "velocity": 114, "duration": 479}, {"note": 0, "velocity": 0, "duration": 241}, {"note": 74, "velocity": 107, "duration": 258}, {"note": 76, "velocity": 98, "duration": 240}, {"note": 78, "velocity": 116, "duration": 480}, {"note": 74, "velocity": 113, "duration": 480}, {"note": 76, "velocity": 113, "duration": 664}, {"note": 0, "velocity": 0, "duration": 296}, {"note": 76, "velocity": 114, "duration": 480}, {"note": 71, "velocity": 108, "duration": 480}, {"note": 74, "velocity": 113, "duration": 960}, {"note": 76, "velocity": 113, "duration": 240}, {"note": 74, "velocity": 110, "duration": 240}, {"note": 76, "velocity": 108, "duration": 240}, {"note": 74, "velocity": 110, "duration": 240}, {"note": 76, "velocity": 116, "duration": 480}, {"note": 78, "velocity": 119, "duration": 479}, {"note": 78, "velocity": 119, "duration": 1002}, {"note": 0, "velocity": 0, "duration": 918}, {"note": 79, "velocity": 104, "duration": 960}, {"note": 81, "velocity": 114, "duration": 1131}, {"note": 0, "velocity": 0, "duration": 1029}, {"note": 74, "velocity": 98, "duration": 256}, {"note": 79, "velocity": 98, "duration": 303}, {"note": 78, "velocity": 103, "duration": 262}, {"note": 79, "velocity": 108, "duration": 253}, {"note": 78, "velocity": 93, "duration": 263}, {"note": 79, "velocity": 98, "duration": 279}, {"note": 78, "velocity": 89, "duration": 297}, {"note": 71, "velocity": 100, "duration": 480}, {"note": 69, "velocity": 107, "duration": 480}, {"note": 71, "velocity": 108, "duration": 240}, {"note": 74, "velocity": 108, "duration": 479}, {"note": 74, "velocity": 110, "duration": 479}, {"note": 74, "velocity": 102, "duration": 240}, {"note": 79, "velocity": 114, "duration": 240}, {"note": 78, "velocity": 103, "duration": 240}, {"note": 79, "velocity": 108, "duration": 480}, {"note": 69, "velocity": 108, "duration": 480}, {"note": 71, "velocity": 107, "duration": 432}, {"note": 74, "velocity": 107, "duration": 248}, {"note": 74, "velocity": 110, "duration": 851}, {"note": 0, "velocity": 0, "duration": 589}, {"note": 74, "velocity": 98, "duration": 240}, {"note": 76, "velocity": 94, "duration": 240}, {"note": 74, "velocity": 96, "duration": 257}, {"note": 76, "velocity": 100, "duration": 480}, {"note": 79, "velocity": 107, "duration": 496}, {"note": 0, "velocity": 0, "duration": 224}, {"note": 74, "velocity": 88, "duration": 300}, {"note": 76, "velocity": 86, "duration": 240}, {"note": 74, "velocity": 93, "duration": 248}, {"note": 76, "velocity": 92, "duration": 480}, {"note": 79, "velocity": 108, "duration": 436}, {"note": 0, "velocity": 0, "duration": 284}, {"note": 74, "velocity": 110, "duration": 267}, {"note": 76, "velocity": 102, "duration": 240}, {"note": 83, "velocity": 107, "duration": 480}, {"note": 74, "velocity": 104, "duration": 240}, {"note": 76, "velocity": 96, "duration": 240}, {"note": 83, "velocity": 102, "duration": 480}, {"note": 74, "velocity": 94, "duration": 240}, {"note": 76, "velocity": 100, "duration": 240}, {"note": 83, "velocity": 104, "duration": 240}, {"note": 79, "velocity": 100, "duration": 480}, {"note": 81, "velocity": 108, "duration": 452}, {"note": 0, "velocity": 0, "duration": 268}, {"note": 74, "velocity": 98, "duration": 256}, {"note": 79, "velocity": 98, "duration": 303}, {"note": 78, "velocity": 103, "duration": 262}, {"note": 79, "velocity": 108, "duration": 253}, {"note": 78, "velocity": 93, "duration": 263}, {"note": 79, "velocity": 98, "duration": 279}, {"note": 78, "velocity": 89, "duration": 297}, {"note": 71, "velocity": 100, "duration": 480}, {"note": 69, "velocity": 107, "duration": 480}, {"note": 71, "velocity": 108, "duration": 240}, {"note": 74, "velocity": 108, "duration": 479}, {"note": 74, "velocity": 110, "duration": 479}, {"note": 74, "velocity": 102, "duration": 240}, {"note": 79, "velocity": 114, "duration": 240}, {"note": 78, "velocity": 103, "duration": 240}, {"note": 79, "velocity": 108, "duration": 522}, {"note": 0, "velocity": 0, "duration": 198}, {"note": 69, "velocity": 100, "duration": 240}, {"note": 71, "velocity": 104, "duration": 240}, {"note": 76, "velocity": 100, "duration": 448}, {"note": 0, "velocity": 0, "duration": 272}, {"note": 76, "velocity": 116, "duration": 259}, {"note": 74, "velocity": 94, "duration": 613}, {"note": 0, "velocity": 0, "duration": 347}, {"note": 74, "velocity": 98, "duration": 240}, {"note": 76, "velocity": 94, "duration": 240}, {"note": 74, "velocity": 96, "duration": 257}, {"note": 76, "velocity": 100, "duration": 480}, {"note": 79, "velocity": 107, "duration": 493}, {"note": 0, "velocity": 0, "duration": 227}, {"note": 74, "velocity": 104, "duration": 240}, {"note": 76, "velocity": 108, "duration": 240}, {"note": 83, "velocity": 108, "duration": 240}, {"note": 81, "velocity": 116, "duration": 480}, {"note": 79, "velocity": 114, "duration": 495}, {"note": 0, "velocity": 0, "duration": 225}, {"note": 74, "velocity": 110, "duration": 267}, {"note": 76, "velocity": 102, "duration": 240}, {"note": 83, "velocity": 107, "duration": 480}, {"note": 74, "velocity": 104, "duration": 240}, {"note": 76, "velocity": 96, "duration": 240}, {"note": 83, "velocity": 102, "duration": 480}, {"note": 74, "velocity": 94, "duration": 240}, {"note": 76, "velocity": 100, "duration": 240}, {"note": 83, "velocity": 104, "duration": 240}, {"note": 79, "velocity": 100, "duration": 480}, {"note": 81, "velocity": 108, "duration": 480}, {"note": 79, "velocity": 113, "duration": 360}, {"note": 71, "velocity": 108, "duration": 359}, {"note": 71, "velocity": 98, "duration": 240}, {"note": 78, "velocity": 119, "duration": 840}, {"note": 79, "velocity": 107, "duration": 1761}, {"note": 0, "velocity": 0, "duration": 12039}, {"note": 74, "velocity": 98, "duration": 256}, {"note": 79, "velocity": 98, "duration": 303}, {"note": 78, "velocity": 103, "duration": 262}, {"note": 79, "velocity": 108, "duration": 253}, {"note": 78, "velocity": 93, "duration": 263}, {"note": 79, "velocity": 98, "duration": 279}, {"note": 78, "velocity": 89, "duration": 297}, {"note": 71, "velocity": 100, "duration": 453}, {"note": 69, "velocity": 107, "duration": 296}, {"note": 0, "velocity": 0, "duration": 184}, {"note": 71, "velocity": 108, "duration": 163}, {"note": 0, "velocity": 0, "duration": 77}, {"note": 74, "velocity": 108, "duration": 249}, {"note": 0, "velocity": 0, "duration": 231}, {"note": 74, "velocity": 110, "duration": 216}, {"note": 0, "velocity": 0, "duration": 264}, {"note": 74, "velocity": 102, "duration": 237}, {"note": 79, "velocity": 114, "duration": 227}, {"note": 78, "velocity": 103, "duration": 198}, {"note": 79, "velocity": 108, "duration": 153}, {"note": 0, "velocity": 0, "duration": 327}, {"note": 69, "velocity": 108, "duration": 293}, {"note": 0, "velocity": 0, "duration": 187}, {"note": 71, "velocity": 107, "duration": 215}, {"note": 74, "velocity": 107, "duration": 175}, {"note": 0, "velocity": 0, "duration": 305}, {"note": 74, "velocity": 110, "duration": 253}, {"note": 0, "velocity": 0, "duration": 1187}, {"note": 74, "velocity": 98, "duration": 231}, {"note": 76, "velocity": 94, "duration": 229}, {"note": 74, "velocity": 96, "duration": 257}, {"note": 76, "velocity": 100, "duration": 283}, {"note": 0, "velocity": 0, "duration": 197}, {"note": 79, "velocity": 107, "duration": 346}, {"note": 0, "velocity": 0, "duration": 374}, {"note": 74, "velocity": 88, "duration": 300}, {"note": 76, "velocity": 86, "duration": 210}, {"note": 74, "velocity": 93, "duration": 248}, {"note": 76, "velocity": 92, "duration": 278}, {"note": 0, "velocity": 0, "duration": 202}, {"note": 79, "velocity": 108, "duration": 284}, {"note": 0, "velocity": 0, "duration": 436}, {"note": 74, "velocity": 110, "duration": 267}, {"note": 76, "velocity": 102, "duration": 103}, {"note": 0, "velocity": 0, "duration": 137}, {"note": 83, "velocity": 107, "duration": 287}, {"note": 0, "velocity": 0, "duration": 193}, {"note": 74, "velocity": 104, "duration": 160}, {"note": 0, "velocity": 0, "duration": 80}, {"note": 76, "velocity": 96, "duration": 104}, {"note": 0, "velocity": 0, "duration": 136}, {"note": 83, "velocity": 102, "duration": 252}, {"note": 0, "velocity": 0, "duration": 228}, {"note": 74, "velocity": 94, "duration": 186}, {"note": 76, "velocity": 100, "duration": 117}, {"note": 0, "velocity": 0, "duration": 123}, {"note": 83, "velocity": 104, "duration": 183}, {"note": 79, "velocity": 100, "duration": 266}, {"note": 0, "velocity": 0, "duration": 214}, {"note": 81, "velocity": 108, "duration": 358}, {"note": 0, "velocity": 0, "duration": 362}, {"note": 74, "velocity": 98, "duration": 256}, {"note": 79, "velocity": 98, "duration": 303}, {"note": 78, "velocity": 103, "duration": 262}, {"note": 79, "velocity": 108, "duration": 253}, {"note": 78, "velocity": 93, "duration": 263}, {"note": 79, "velocity": 98, "duration": 279}, {"note": 78, "velocity": 89, "duration": 297}, {"note": 71, "velocity": 100, "duration": 453}, {"note": 69, "velocity": 107, "duration": 296}, {"note": 0, "velocity": 0, "duration": 184}, {"note": 71, "velocity": 108, "duration": 163}, {"note": 0, "velocity": 0, "duration": 77}, {"note": 74, "velocity": 108, "duration": 249}, {"note": 0, "velocity": 0, "duration": 231}, {"note": 74, "velocity": 110, "duration": 216}, {"note": 0, "velocity": 0, "duration": 264}, {"note": 74, "velocity": 102, "duration": 237}, {"note": 79, "velocity": 114, "duration": 227}, {"note": 78, "velocity": 103, "duration": 198}, {"note": 79, "velocity": 108, "duration": 153}, {"note": 0, "velocity": 0, "duration": 567}, {"note": 69, "velocity": 100, "duration": 218}, {"note": 71, "velocity": 104, "duration": 111}, {"note": 0, "velocity": 0, "duration": 129}, {"note": 76, "velocity": 100, "duration": 455}, {"note": 0, "velocity": 0, "duration": 265}, {"note": 76, "velocity": 116, "duration": 259}, {"note": 74, "velocity": 94, "duration": 281}, {"note": 0, "velocity": 0, "duration": 679}, {"note": 74, "velocity": 98, "duration": 231}, {"note": 76, "velocity": 94, "duration": 229}, {"note": 74, "velocity": 96, "duration": 257}, {"note": 76, "velocity": 100, "duration": 283}, {"note": 0, "velocity": 0, "duration": 197}, {"note": 79, "velocity": 107, "duration": 346}, {"note": 0, "velocity": 0, "duration": 374}, {"note": 74, "velocity": 104, "duration": 202}, {"note": 76, "velocity": 108, "duration": 93}, {"note": 0, "velocity": 0, "duration": 147}, {"note": 83, "velocity": 108, "duration": 144}, {"note": 0, "velocity": 0, "duration": 96}, {"note": 81, "velocity": 116, "duration": 298}, {"note": 0, "velocity": 0, "duration": 182}, {"note": 79, "velocity": 114, "duration": 293}, {"note": 0, "velocity": 0, "duration": 427}, {"note": 74, "velocity": 110, "duration": 267}, {"note": 76, "velocity": 102, "duration": 103}, {"note": 0, "velocity": 0, "duration": 137}, {"note": 83, "velocity": 107, "duration": 287}, {"note": 0, "velocity": 0, "duration": 193}, {"note": 74, "velocity": 104, "duration": 160}, {"note": 0, "velocity": 0, "duration": 80}, {"note": 76, "velocity": 96, "duration": 104}, {"note": 0, "velocity": 0, "duration": 136}, {"note": 83, "velocity": 102, "duration": 252}, {"note": 0, "velocity": 0, "duration": 228}, {"note": 74, "velocity": 94, "duration": 186}, {"note": 76, "velocity": 100, "duration": 117}, {"note": 0, "velocity": 0, "duration": 123}, {"note": 83, "velocity": 104, "duration": 183}, {"note": 79, "velocity": 100, "duration": 266}, {"note": 0, "velocity": 0, "duration": 214}, {"note": 81, "velocity": 108, "duration": 358}, {"note": 0, "velocity": 0, "duration": 2042}, {"note": 79, "velocity": 113, "duration": 276}, {"note": 0, "velocity": 0, "duration": 84}, {"note": 71, "velocity": 108, "duration": 242}, {"note": 0, "velocity": 0, "duration": 118}, {"note": 71, "velocity": 98, "duration": 204}, {"note": 79, "velocity": 119, "duration": 597}, {"note": 0, "velocity": 0, "duration": 243}, {"note": 79, "velocity": 107, "duration": 590}]]