[[{"note": 71, "velocity": 119, "duration": 240}, {"note": 70, "velocity": 119, "duration": 359}, {"note": 70, "velocity": 116, "duration": 119}, {"note": 70, "velocity": 116, "duration": 120}, {"note": 71, "velocity": 113, "duration": 120}, {"note": 73, "velocity": 110, "duration": 119}, {"note": 73, "velocity": 113, "duration": 360}, {"note": 68, "velocity": 98, "duration": 119}, {"note": 68, "velocity": 100, "duration": 240}, {"note": 73, "velocity": 116, "duration": 240}, {"note": 71, "velocity": 114, "duration": 479}, {"note": 71, "velocity": 100, "duration": 119}, {"note": 71, "velocity": 107, "duration": 120}, {"note": 73, "velocity": 108, "duration": 120}, {"note": 71, "velocity": 93, "duration": 119}, {"note": 71, "velocity": 107, "duration": 240}, {"note": 70, "velocity": 110, "duration": 600}, {"note": 66, "velocity": 113, "duration": 240}, {"note": 75, "velocity": 110, "duration": 359}, {"note": 75, "velocity": 114, "duration": 119}, {"note": 75, "velocity": 113, "duration": 120}, {"note": 73, "velocity": 108, "duration": 120}, {"note": 71, "velocity": 96, "duration": 120}, {"note": 73, "velocity": 116, "duration": 359}, {"note": 73, "velocity": 108, "duration": 120}, {"note": 66, "velocity": 96, "duration": 240}, {"note": 68, "velocity": 100, "duration": 120}, {"note": 70, "velocity": 98, "duration": 120}, {"note": 71, "velocity": 108, "duration": 599}, {"note": 71, "velocity": 114, "duration": 120}, {"note": 73, "velocity": 114, "duration": 240}, {"note": 71, "velocity": 102, "duration": 120}, {"note": 70, "velocity": 114, "duration": 240}, {"note": 68, "velocity": 107, "duration": 480}, {"note": 71, "velocity": 113, "duration": 240}, {"note": 70, "velocity": 110, "duration": 359}, {"note": 70, "velocity": 108, "duration": 119}, {"note": 70, "velocity": 113, "duration": 120}, {"note": 71, "velocity": 102, "duration": 120}, {"note": 73, "velocity": 107, "duration": 119}, {"note": 73, "velocity": 107, "duration": 360}, {"note": 68, "velocity": 96, "duration": 119}, {"note": 68, "velocity": 102, "duration": 240}, {"note": 73, "velocity": 107, "duration": 240}, {"note": 71, "velocity": 108, "duration": 479}, {"note": 71, "velocity": 104, "duration": 119}, {"note": 71, "velocity": 107, "duration": 120}, {"note": 73, "velocity": 108, "duration": 120}, {"note": 71, "velocity": 92, "duration": 119}, {"note": 71, "velocity": 114, "duration": 240}, {"note": 70, "velocity": 108, "duration": 600}, {"note": 66, "velocity": 108, "duration": 240}, {"note": 75, "velocity": 110, "duration": 359}, {"note": 75, "velocity": 104, "duration": 119}, {"note": 75, "velocity": 104, "duration": 120}, {"note": 73, "velocity": 91, "duration": 120}, {"note": 71, "velocity": 94, "duration": 120}, {"note": 73, "velocity": 113, "duration": 240}, {"note": 75, "velocity": 113, "duration": 120}, {"note": 77, "velocity": 116, "duration": 120}, {"note": 78, "velocity": 119, "duration": 240}, {"note": 80, "velocity": 114, "duration": 120}, {"note": 82, "velocity": 116, "duration": 120}, {"note": 83, "velocity": 120, "duration": 479}, {"note": 83, "velocity": 117, "duration": 119}, {"note": 83, "velocity": 116, "duration": 120}, {"note": 82, "velocity": 114, "duration": 240}, {"note": 78, "velocity": 114, "duration": 120}, {"note": 80, "velocity": 117, "duration": 1200}, {"note": 73, "velocity": 119, "duration": 240}, {"note": 83, "velocity": 117, "duration": 240}, {"note": 82, "velocity": 110, "duration": 119}, {"note": 82, "velocity": 116, "duration": 240}, {"note": 73, "velocity": 117, "duration": 239}, {"note": 73, "velocity": 114, "duration": 119}, {"note": 73, "velocity": 117, "duration": 120}, {"note": 70, "velocity": 114, "duration": 120}, {"note": 73, "velocity": 117, "duration": 120}, {"note": 80, "velocity": 114, "duration": 240}, {"note": 78, "velocity": 108, "duration": 240}, {"note": 83, "velocity": 107, "duration": 360}, {"note": 82, "velocity": 114, "duration": 119}, {"note": 82, "velocity": 114, "duration": 360}, {"note": 73, "velocity": 108, "duration": 119}, {"note": 73, "velocity": 110, "duration": 240}, {"note": 70, "velocity": 110, "duration": 120}, {"note": 73, "velocity": 108, "duration": 120}, {"note": 80, "velocity": 116, "duration": 240}, {"note": 78, "velocity": 117, "duration": 239}, {"note": 78, "velocity": 116, "duration": 240}, {"note": 73, "velocity": 116, "duration": 240}, {"note": 75, "velocity": 114, "duration": 479}, {"note": 75, "velocity": 107, "duration": 119}, {"note": 75, "velocity": 107, "duration": 122}, {"note": 77, "velocity": 106, "duration": 120}, {"note": 78, "velocity": 108, "duration": 120}, {"note": 80, "velocity": 114, "duration": 240}, {"note": 73, "velocity": 110, "duration": 120}, {"note": 80, "velocity": 116, "duration": 120}, {"note": 78, "velocity": 116, "duration": 239}, {"note": 78, "velocity": 114, "duration": 120}, {"note": 80, "velocity": 113, "duration": 120}, {"note": 82, "velocity": 113, "duration": 119}, {"note": 82, "velocity": 117, "duration": 240}, {"note": 80, "velocity": 116, "duration": 119}, {"note": 80, "velocity": 116, "duration": 240}, {"note": 78, "velocity": 113, "duration": 240}, {"note": 82, "velocity": 114, "duration": 240}, {"note": 83, "velocity": 117, "duration": 120}, {"note": 82, "velocity": 108, "duration": 120}, {"note": 80, "velocity": 117, "duration": 360}, {"note": 83, "velocity": 117, "duration": 240}, {"note": 82, "velocity": 119, "duration": 240}, {"note": 73, "velocity": 116, "duration": 119}, {"note": 73, "velocity": 116, "duration": 240}, {"note": 70, "velocity": 107, "duration": 120}, {"note": 73, "velocity": 110, "duration": 120}, {"note": 80, "velocity": 116, "duration": 240}, {"note": 78, "velocity": 114, "duration": 240}, {"note": 83, "velocity": 117, "duration": 360}, {"note": 82, "velocity": 116, "duration": 119}, {"note": 82, "velocity": 119, "duration": 360}, {"note": 73, "velocity": 116, "duration": 119}, {"note": 73, "velocity": 116, "duration": 240}, {"note": 70, "velocity": 114, "duration": 120}, {"note": 73, "velocity": 114, "duration": 120}, {"note": 80, "velocity": 116, "duration": 240}, {"note": 78, "velocity": 102, "duration": 119}, {"note": 78, "velocity": 110, "duration": 119}, {"note": 78, "velocity": 114, "duration": 119}, {"note": 78, "velocity": 114, "duration": 240}, {"note": 73, "velocity": 110, "duration": 120}, {"note": 75, "velocity": 116, "duration": 479}, {"note": 75, "velocity": 108, "duration": 119}, {"note": 75, "velocity": 113, "duration": 120}, {"note": 77, "velocity": 109, "duration": 120}, {"note": 78, "velocity": 114, "duration": 120}, {"note": 80, "velocity": 119, "duration": 240}, {"note": 73, "velocity": 114, "duration": 240}, {"note": 83, "velocity": 117, "duration": 240}, {"note": 82, "velocity": 117, "duration": 239}, {"note": 82, "velocity": 100, "duration": 120}, {"note": 80, "velocity": 113, "duration": 240}, {"note": 75, "velocity": 114, "duration": 1152}, {"note": 78, "velocity": 114, "duration": 288}, {"note": 77, "velocity": 113, "duration": 240}, {"note": 78, "velocity": 114, "duration": 265}, {"note": 0, "velocity": 0, "duration": 10055}, {"note": 71, "velocity": 119, "duration": 240}, {"note": 70, "velocity": 119, "duration": 359}, {"note": 70, "velocity": 116, "duration": 119}, {"note": 70, "velocity": 116, "duration": 120}, {"note": 71, "velocity": 113, "duration": 120}, {"note": 73, "velocity": 110, "duration": 119}, {"note": 73, "velocity": 113, "duration": 360}, {"note": 68, "velocity": 98, "duration": 119}, {"note": 68, "velocity": 100, "duration": 240}, {"note": 73, "velocity": 116, "duration": 240}, {"note": 71, "velocity": 114, "duration": 479}, {"note": 71, "velocity": 100, "duration": 119}, {"note": 71, "velocity": 107, "duration": 120}, {"note": 73, "velocity": 108, "duration": 120}, {"note": 71, "velocity": 93, "duration": 119}, {"note": 71, "velocity": 107, "duration": 240}, {"note": 70, "velocity": 110, "duration": 600}, {"note": 66, "velocity": 113, "duration": 240}, {"note": 75, "velocity": 110, "duration": 359}, {"note": 75, "velocity": 114, "duration": 119}, {"note": 75, "velocity": 113, "duration": 120}, {"note": 73, "velocity": 108, "duration": 120}, {"note": 71, "velocity": 96, "duration": 120}, {"note": 73, "velocity": 116, "duration": 359}, {"note": 73, "velocity": 108, "duration": 120}, {"note": 66, "velocity": 96, "duration": 240}, {"note": 68, "velocity": 100, "duration": 120}, {"note": 70, "velocity": 98, "duration": 120}, {"note": 71, "velocity": 108, "duration": 599}, {"note": 71, "velocity": 114, "duration": 120}, {"note": 73, "velocity": 114, "duration": 240}, {"note": 71, "velocity": 102, "duration": 120}, {"note": 70, "velocity": 114, "duration": 240}, {"note": 68, "velocity": 107, "duration": 480}, {"note": 71, "velocity": 113, "duration": 240}, {"note": 70, "velocity": 110, "duration": 359}, {"note": 70, "velocity": 108, "duration": 119}, {"note": 70, "velocity": 113, "duration": 120}, {"note": 71, "velocity": 102, "duration": 120}, {"note": 73, "velocity": 107, "duration": 119}, {"note": 73, "velocity": 107, "duration": 360}, {"note": 68, "velocity": 96, "duration": 119}, {"note": 68, "velocity": 102, "duration": 240}, {"note": 73, "velocity": 107, "duration": 240}, {"note": 71, "velocity": 108, "duration": 479}, {"note": 71, "velocity": 104, "duration": 119}, {"note": 71, "velocity": 107, "duration": 120}, {"note": 73, "velocity": 108, "duration": 120}, {"note": 71, "velocity": 92, "duration": 119}, {"note": 71, "velocity": 114, "duration": 240}, {"note": 70, "velocity": 108, "duration": 600}, {"note": 66, "velocity": 108, "duration": 240}, {"note": 75, "velocity": 110, "duration": 359}, {"note": 75, "velocity": 104, "duration": 119}, {"note": 75, "velocity": 104, "duration": 120}, {"note": 73, "velocity": 91, "duration": 120}, {"note": 71, "velocity": 94, "duration": 120}, {"note": 73, "velocity": 113, "duration": 240}, {"note": 75, "velocity": 113, "duration": 120}, {"note": 77, "velocity": 116, "duration": 120}, {"note": 78, "velocity": 119, "duration": 240}, {"note": 80, "velocity": 114, "duration": 120}, {"note": 82, "velocity": 116, "duration": 120}, {"note": 83, "velocity": 120, "duration": 479}, {"note": 83, "velocity": 117, "duration": 119}, {"note": 83, "velocity": 116, "duration": 120}, {"note": 82, "velocity": 114, "duration": 240}, {"note": 78, "velocity": 114, "duration": 120}, {"note": 80, "velocity": 117, "duration": 240}, {"note": 73, "velocity": 119, "duration": 240}, {"note": 83, "velocity": 117, "duration": 240}, {"note": 82, "velocity": 110, "duration": 119}, {"note": 82, "velocity": 116, "duration": 240}, {"note": 73, "velocity": 117, "duration": 239}, {"note": 73, "velocity": 114, "duration": 119}, {"note": 73, "velocity": 117, "duration": 120}, {"note": 70, "velocity": 114, "duration": 120}, {"note": 73, "velocity": 117, "duration": 120}, {"note": 80, "velocity": 114, "duration": 240}, {"note": 78, "velocity": 108, "duration": 240}, {"note": 83, "velocity": 107, "duration": 360}, {"note": 82, "velocity": 114, "duration": 119}, {"note": 82, "velocity": 114, "duration": 360}, {"note": 73, "velocity": 108, "duration": 119}, {"note": 73, "velocity": 110, "duration": 240}, {"note": 70, "velocity": 110, "duration": 120}, {"note": 73, "velocity": 108, "duration": 120}, {"note": 80, "velocity": 116, "duration": 240}, {"note": 78, "velocity": 117, "duration": 239}, {"note": 78, "velocity": 116, "duration": 240}, {"note": 73, "velocity": 116, "duration": 240}, {"note": 75, "velocity": 114, "duration": 479}, {"note": 75, "velocity": 107, "duration": 119}, {"note": 75, "velocity": 107, "duration": 122}, {"note": 77, "velocity": 106, "duration": 120}, {"note": 78, "velocity": 108, "duration": 120}, {"note": 80, "velocity": 114, "duration": 240}, {"note": 73, "velocity": 110, "duration": 120}, {"note": 80, "velocity": 116, "duration": 120}, {"note": 78, "velocity": 116, "duration": 239}, {"note": 78, "velocity": 114, "duration": 120}, {"note": 80, "velocity": 113, "duration": 120}, {"note": 82, "velocity": 113, "duration": 119}, {"note": 82, "velocity": 117, "duration": 240}, {"note": 80, "velocity": 116, "duration": 119}, {"note": 80, "velocity": 116, "duration": 240}, {"note": 78, "velocity": 113, "duration": 240}, {"note": 82, "velocity": 114, "duration": 240}, {"note": 83, "velocity": 117, "duration": 120}, {"note": 82, "velocity": 108, "duration": 120}, {"note": 80, "velocity": 117, "duration": 360}, {"note": 83, "velocity": 117, "duration": 240}, {"note": 82, "velocity": 119, "duration": 240}, {"note": 73, "velocity": 116, "duration": 119}, {"note": 73, "velocity": 116, "duration": 240}, {"note": 70, "velocity": 107, "duration": 120}, {"note": 73, "velocity": 110, "duration": 120}, {"note": 80, "velocity": 116, "duration": 240}, {"note": 78, "velocity": 114, "duration": 240}, {"note": 83, "velocity": 117, "duration": 360}, {"note": 82, "velocity": 116, "duration": 119}, {"note": 82, "velocity": 119, "duration": 360}, {"note": 73, "velocity": 116, "duration": 119}, {"note": 73, "velocity": 116, "duration": 240}, {"note": 70, "velocity": 114, "duration": 120}, {"note": 73, "velocity": 114, "duration": 120}, {"note": 80, "velocity": 116, "duration": 240}, {"note": 78, "velocity": 102, "duration": 119}, {"note": 78, "velocity": 110, "duration": 119}, {"note": 78, "velocity": 114, "duration": 119}, {"note": 78, "velocity": 114, "duration": 240}, {"note": 73, "velocity": 110, "duration": 120}, {"note": 75, "velocity": 116, "duration": 479}, {"note": 75, "velocity": 108, "duration": 119}, {"note": 75, "velocity": 113, "duration": 120}, {"note": 77, "velocity": 109, "duration": 120}, {"note": 78, "velocity": 114, "duration": 120}, {"note": 80, "velocity": 119, "duration": 240}, {"note": 73, "velocity": 114, "duration": 240}, {"note": 83, "velocity": 117, "duration": 240}, {"note": 82, "velocity": 117, "duration": 239}, {"note": 82, "velocity": 100, "duration": 120}, {"note": 80, "velocity": 113, "duration": 240}, {"note": 75, "velocity": 114, "duration": 240}, {"note": 78, "velocity": 116, "duration": 240}, {"note": 77, "velocity": 106, "duration": 120}, {"note": 78, "velocity": 117, "duration": 840}, {"note": 77, "velocity": 116, "duration": 120}, {"note": 78, "velocity": 110, "duration": 120}, {"note": 80, "velocity": 117, "duration": 239}, {"note": 80, "velocity": 116, "duration": 119}, {"note": 80, "velocity": 117, "duration": 600}, {"note": 78, "velocity": 117, "duration": 239}, {"note": 78, "velocity": 116, "duration": 120}, {"note": 80, "velocity": 114, "duration": 240}, {"note": 82, "velocity": 116, "duration": 1080}, {"note": 78, "velocity": 116, "duration": 120}, {"note": 77, "velocity": 113, "duration": 120}, {"note": 78, "velocity": 116, "duration": 239}, {"note": 78, "velocity": 114, "duration": 119}, {"note": 78, "velocity": 117, "duration": 600}, {"note": 80, "velocity": 116, "duration": 239}, {"note": 80, "velocity": 113, "duration": 119}, {"note": 80, "velocity": 116, "duration": 119}, {"note": 80, "velocity": 116, "duration": 240}, {"note": 78, "velocity": 113, "duration": 120}, {"note": 85, "velocity": 120, "duration": 240}, {"note": 82, "velocity": 119, "duration": 1560}, {"note": 78, "velocity": 114, "duration": 120}, {"note": 80, "velocity": 114, "duration": 120}, {"note": 81, "velocity": 119, "duration": 240}, {"note": 76, "velocity": 116, "duration": 119}, {"note": 76, "velocity": 116, "duration": 480}, {"note": 81, "velocity": 116, "duration": 120}, {"note": 83, "velocity": 119, "duration": 240}, {"note": 76, "velocity": 116, "duration": 119}, {"note": 76, "velocity": 113, "duration": 360}, {"note": 83, "velocity": 114, "duration": 120}, {"note": 85, "velocity": 108, "duration": 120}, {"note": 86, "velocity": 119, "duration": 239}, {"note": 86, "velocity": 116, "duration": 120}, {"note": 85, "velocity": 116, "duration": 240}, {"note": 83, "velocity": 117, "duration": 240}, {"note": 85, "velocity": 113, "duration": 240}, {"note": 81, "velocity": 116, "duration": 360}, {"note": 80, "velocity": 114, "duration": 240}, {"note": 81, "velocity": 116, "duration": 120}, {"note": 78, "velocity": 117, "duration": 1439}, {"note": 78, "velocity": 102, "duration": 120}, {"note": 85, "velocity": 120, "duration": 144}, {"note": 83, "velocity": 116, "duration": 240}, {"note": 81, "velocity": 113, "duration": 120}, {"note": 85, "velocity": 117, "duration": 600}, {"note": 83, "velocity": 114, "duration": 120}, {"note": 85, "velocity": 116, "duration": 120}, {"note": 86, "velocity": 123, "duration": 286}, {"note": 0, "velocity": 0, "duration": 1034}, {"note": 74, "velocity": 119, "duration": 240}, {"note": 84, "velocity": 117, "duration": 240}, {"note": 83, "velocity": 110, "duration": 119}, {"note": 83, "velocity": 116, "duration": 240}, {"note": 74, "velocity": 117, "duration": 239}, {"note": 74, "velocity": 114, "duration": 119}, {"note": 74, "velocity": 117, "duration": 120}, {"note": 71, "velocity": 114, "duration": 120}, {"note": 74, "velocity": 117, "duration": 120}, {"note": 81, "velocity": 114, "duration": 240}, {"note": 79, "velocity": 108, "duration": 240}, {"note": 84, "velocity": 107, "duration": 360}, {"note": 83, "velocity": 114, "duration": 119}, {"note": 83, "velocity": 114, "duration": 360}, {"note": 74, "velocity": 108, "duration": 119}, {"note": 74, "velocity": 110, "duration": 240}, {"note": 71, "velocity": 110, "duration": 120}, {"note": 74, "velocity": 108, "duration": 120}, {"note": 81, "velocity": 116, "duration": 240}, {"note": 79, "velocity": 117, "duration": 239}, {"note": 79, "velocity": 116, "duration": 240}, {"note": 74, "velocity": 116, "duration": 240}, {"note": 76, "velocity": 114, "duration": 479}, {"note": 76, "velocity": 107, "duration": 119}, {"note": 76, "velocity": 107, "duration": 122}, {"note": 78, "velocity": 106, "duration": 120}, {"note": 79, "velocity": 108, "duration": 120}, {"note": 81, "velocity": 114, "duration": 240}, {"note": 74, "velocity": 110, "duration": 120}, {"note": 81, "velocity": 116, "duration": 120}, {"note": 79, "velocity": 116, "duration": 239}, {"note": 79, "velocity": 114, "duration": 120}, {"note": 81, "velocity": 113, "duration": 120}, {"note": 83, "velocity": 113, "duration": 119}, {"note": 83, "velocity": 117, "duration": 240}, {"note": 81, "velocity": 116, "duration": 119}, {"note": 81, "velocity": 116, "duration": 240}, {"note": 79, "velocity": 113, "duration": 240}, {"note": 83, "velocity": 114, "duration": 240}, {"note": 84, "velocity": 117, "duration": 120}, {"note": 83, "velocity": 108, "duration": 120}, {"note": 81, "velocity": 117, "duration": 360}, {"note": 84, "velocity": 117, "duration": 240}, {"note": 83, "velocity": 119, "duration": 240}, {"note": 74, "velocity": 116, "duration": 119}, {"note": 74, "velocity": 116, "duration": 240}, {"note": 71, "velocity": 107, "duration": 120}, {"note": 74, "velocity": 110, "duration": 120}, {"note": 81, "velocity": 116, "duration": 240}, {"note": 79, "velocity": 114, "duration": 240}, {"note": 84, "velocity": 117, "duration": 360}, {"note": 83, "velocity": 116, "duration": 119}, {"note": 83, "velocity": 119, "duration": 360}, {"note": 74, "velocity": 116, "duration": 119}, {"note": 74, "velocity": 116, "duration": 240}, {"note": 71, "velocity": 114, "duration": 120}, {"note": 74, "velocity": 114, "duration": 120}, {"note": 81, "velocity": 116, "duration": 240}, {"note": 79, "velocity": 102, "duration": 119}, {"note": 79, "velocity": 110, "duration": 119}, {"note": 79, "velocity": 114, "duration": 119}, {"note": 79, "velocity": 114, "duration": 240}, {"note": 74, "velocity": 110, "duration": 120}, {"note": 76, "velocity": 116, "duration": 479}, {"note": 76, "velocity": 108, "duration": 119}, {"note": 76, "velocity": 113, "duration": 120}, {"note": 78, "velocity": 109, "duration": 120}, {"note": 79, "velocity": 114, "duration": 120}, {"note": 81, "velocity": 119, "duration": 240}, {"note": 74, "velocity": 114, "duration": 240}, {"note": 84, "velocity": 117, "duration": 240}, {"note": 83, "velocity": 117, "duration": 239}, {"note": 83, "velocity": 100, "duration": 120}, {"note": 81, "velocity": 113, "duration": 240}, {"note": 76, "velocity": 114, "duration": 1800}, {"note": 79, "velocity": 119, "duration": 600}, {"note": 78, "velocity": 117, "duration": 600}]]