[[{"note": 69, "velocity": 114, "duration": 263}, {"note": 67, "velocity": 100, "duration": 240}, {"note": 65, "velocity": 107, "duration": 240}, {"note": 72, "velocity": 108, "duration": 480}, {"note": 77, "velocity": 108, "duration": 240}, {"note": 76, "velocity": 107, "duration": 240}, {"note": 72, "velocity": 98, "duration": 130}, {"note": 69, "velocity": 98, "duration": 1080}, {"note": 74, "velocity": 110, "duration": 240}, {"note": 72, "velocity": 104, "duration": 240}, {"note": 67, "velocity": 108, "duration": 240}, {"note": 65, "velocity": 96, "duration": 960}, {"note": 74, "velocity": 100, "duration": 480}, {"note": 72, "velocity": 96, "duration": 240}, {"note": 69, "velocity": 98, "duration": 240}, {"note": 67, "velocity": 93, "duration": 2160}, {"note": 69, "velocity": 108, "duration": 240}, {"note": 67, "velocity": 93, "duration": 240}, {"note": 65, "velocity": 88, "duration": 240}, {"note": 72, "velocity": 94, "duration": 480}, {"note": 77, "velocity": 104, "duration": 240}, {"note": 76, "velocity": 102, "duration": 120}, {"note": 77, "velocity": 104, "duration": 239}, {"note": 77, "velocity": 110, "duration": 1080}, {"note": 69, "velocity": 110, "duration": 271}, {"note": 70, "velocity": 106, "duration": 240}, {"note": 72, "velocity": 108, "duration": 240}, {"note": 74, "velocity": 113, "duration": 959}, {"note": 74, "velocity": 88, "duration": 480}, {"note": 72, "velocity": 91, "duration": 240}, {"note": 67, "velocity": 90, "duration": 240}, {"note": 65, "velocity": 91, "duration": 1920}, {"note": 74, "velocity": 82, "duration": 120}, {"note": 76, "velocity": 87, "duration": 120}, {"note": 77, "velocity": 98, "duration": 246}, {"note": 76, "velocity": 90, "duration": 240}, {"note": 77, "velocity": 104, "duration": 240}, {"note": 79, "velocity": 113, "duration": 480}, {"note": 77, "velocity": 108, "duration": 240}, {"note": 81, "velocity": 114, "duration": 239}, {"note": 81, "velocity": 117, "duration": 1920}, {"note": 74, "velocity": 107, "duration": 120}, {"note": 76, "velocity": 107, "duration": 120}, {"note": 77, "velocity": 113, "duration": 240}, {"note": 76, "velocity": 113, "duration": 240}, {"note": 77, "velocity": 110, "duration": 240}, {"note": 79, "velocity": 116, "duration": 480}, {"note": 77, "velocity": 113, "duration": 240}, {"note": 81, "velocity": 116, "duration": 239}, {"note": 81, "velocity": 119, "duration": 960}, {"note": 77, "velocity": 117, "duration": 240}, {"note": 86, "velocity": 117, "duration": 240}, {"note": 84, "velocity": 117, "duration": 240}, {"note": 79, "velocity": 114, "duration": 240}, {"note": 77, "velocity": 114, "duration": 360}, {"note": 74, "velocity": 113, "duration": 120}, {"note": 77, "velocity": 108, "duration": 120}, {"note": 74, "velocity": 114, "duration": 120}, {"note": 77, "velocity": 113, "duration": 239}, {"note": 77, "velocity": 113, "duration": 120}, {"note": 79, "velocity": 117, "duration": 360}, {"note": 77, "velocity": 110, "duration": 120}, {"note": 79, "velocity": 114, "duration": 360}, {"note": 77, "velocity": 116, "duration": 240}, {"note": 81, "velocity": 120, "duration": 240}, {"note": 82, "velocity": 123, "duration": 240}, {"note": 84, "velocity": 116, "duration": 240}, {"note": 77, "velocity": 116, "duration": 480}, {"note": 76, "velocity": 113, "duration": 240}, {"note": 77, "velocity": 98, "duration": 120}, {"note": 76, "velocity": 88, "duration": 120}, {"note": 74, "velocity": 104, "duration": 959}, {"note": 74, "velocity": 114, "duration": 239}, {"note": 74, "velocity": 116, "duration": 240}, {"note": 76, "velocity": 114, "duration": 479}, {"note": 76, "velocity": 120, "duration": 1440}, {"note": 81, "velocity": 117, "duration": 240}, {"note": 79, "velocity": 116, "duration": 240}, {"note": 77, "velocity": 119, "duration": 959}, {"note": 77, "velocity": 117, "duration": 120}, {"note": 79, "velocity": 114, "duration": 360}, {"note": 77, "velocity": 116, "duration": 120}, {"note": 79, "velocity": 116, "duration": 240}, {"note": 77, "velocity": 113, "duration": 240}, {"note": 81, "velocity": 117, "duration": 1319}, {"note": 81, "velocity": 116, "duration": 240}, {"note": 79, "velocity": 114, "duration": 240}, {"note": 77, "velocity": 116, "duration": 840}, {"note": 74, "velocity": 113, "duration": 120}, {"note": 77, "velocity": 113, "duration": 120}, {"note": 74, "velocity": 110, "duration": 120}, {"note": 79, "velocity": 119, "duration": 240}, {"note": 77, "velocity": 114, "duration": 120}, {"note": 79, "velocity": 119, "duration": 240}, {"note": 82, "velocity": 119, "duration": 240}, {"note": 81, "velocity": 117, "duration": 1319}, {"note": 81, "velocity": 117, "duration": 240}, {"note": 79, "velocity": 116, "duration": 240}, {"note": 77, "velocity": 117, "duration": 360}, {"note": 74, "velocity": 107, "duration": 120}, {"note": 77, "velocity": 110, "duration": 120}, {"note": 74, "velocity": 108, "duration": 120}, {"note": 77, "velocity": 113, "duration": 239}, {"note": 77, "velocity": 113, "duration": 120}, {"note": 79, "velocity": 119, "duration": 360}, {"note": 77, "velocity": 108, "duration": 120}, {"note": 79, "velocity": 107, "duration": 240}, {"note": 77, "velocity": 110, "duration": 360}, {"note": 81, "velocity": 119, "duration": 240}, {"note": 79, "velocity": 114, "duration": 240}, {"note": 77, "velocity": 117, "duration": 240}, {"note": 86, "velocity": 123, "duration": 480}, {"note": 79, "velocity": 119, "duration": 480}, {"note": 77, "velocity": 119, "duration": 480}, {"note": 74, "velocity": 117, "duration": 240}, {"note": 77, "velocity": 117, "duration": 240}, {"note": 79, "velocity": 119, "duration": 480}, {"note": 81, "velocity": 110, "duration": 240}, {"note": 79, "velocity": 116, "duration": 240}, {"note": 77, "velocity": 117, "duration": 262}, {"note": 0, "velocity": 0, "duration": 7658}, {"note": 69, "velocity": 114, "duration": 263}, {"note": 67, "velocity": 100, "duration": 240}, {"note": 65, "velocity": 107, "duration": 240}, {"note": 72, "velocity": 108, "duration": 480}, {"note": 77, "velocity": 108, "duration": 240}, {"note": 76, "velocity": 107, "duration": 240}, {"note": 72, "velocity": 98, "duration": 130}, {"note": 69, "velocity": 98, "duration": 1080}, {"note": 74, "velocity": 110, "duration": 240}, {"note": 72, "velocity": 104, "duration": 240}, {"note": 67, "velocity": 108, "duration": 240}, {"note": 65, "velocity": 96, "duration": 960}, {"note": 74, "velocity": 100, "duration": 480}, {"note": 72, "velocity": 96, "duration": 240}, {"note": 69, "velocity": 98, "duration": 240}, {"note": 67, "velocity": 93, "duration": 2160}, {"note": 69, "velocity": 108, "duration": 240}, {"note": 67, "velocity": 93, "duration": 240}, {"note": 65, "velocity": 88, "duration": 240}, {"note": 72, "velocity": 94, "duration": 480}, {"note": 77, "velocity": 104, "duration": 240}, {"note": 76, "velocity": 102, "duration": 120}, {"note": 77, "velocity": 104, "duration": 239}, {"note": 77, "velocity": 110, "duration": 1080}, {"note": 69, "velocity": 110, "duration": 271}, {"note": 70, "velocity": 106, "duration": 240}, {"note": 72, "velocity": 108, "duration": 240}, {"note": 74, "velocity": 113, "duration": 959}, {"note": 74, "velocity": 88, "duration": 480}, {"note": 72, "velocity": 91, "duration": 240}, {"note": 67, "velocity": 90, "duration": 240}, {"note": 65, "velocity": 91, "duration": 1920}, {"note": 74, "velocity": 82, "duration": 120}, {"note": 76, "velocity": 87, "duration": 120}, {"note": 77, "velocity": 98, "duration": 246}, {"note": 76, "velocity": 90, "duration": 240}, {"note": 77, "velocity": 104, "duration": 240}, {"note": 79, "velocity": 113, "duration": 480}, {"note": 77, "velocity": 108, "duration": 240}, {"note": 81, "velocity": 114, "duration": 239}, {"note": 81, "velocity": 117, "duration": 1920}, {"note": 74, "velocity": 107, "duration": 120}, {"note": 76, "velocity": 107, "duration": 120}, {"note": 77, "velocity": 113, "duration": 240}, {"note": 76, "velocity": 113, "duration": 240}, {"note": 77, "velocity": 110, "duration": 240}, {"note": 79, "velocity": 116, "duration": 480}, {"note": 77, "velocity": 113, "duration": 240}, {"note": 81, "velocity": 116, "duration": 239}, {"note": 81, "velocity": 119, "duration": 960}, {"note": 77, "velocity": 117, "duration": 240}, {"note": 86, "velocity": 117, "duration": 240}, {"note": 84, "velocity": 117, "duration": 240}, {"note": 79, "velocity": 114, "duration": 240}, {"note": 77, "velocity": 114, "duration": 360}, {"note": 74, "velocity": 113, "duration": 120}, {"note": 77, "velocity": 108, "duration": 120}, {"note": 74, "velocity": 114, "duration": 120}, {"note": 77, "velocity": 113, "duration": 239}, {"note": 77, "velocity": 113, "duration": 120}, {"note": 79, "velocity": 117, "duration": 360}, {"note": 77, "velocity": 110, "duration": 120}, {"note": 79, "velocity": 114, "duration": 360}, {"note": 77, "velocity": 116, "duration": 240}, {"note": 81, "velocity": 120, "duration": 240}, {"note": 82, "velocity": 123, "duration": 240}, {"note": 84, "velocity": 116, "duration": 240}, {"note": 77, "velocity": 116, "duration": 480}, {"note": 76, "velocity": 113, "duration": 240}, {"note": 77, "velocity": 98, "duration": 120}, {"note": 76, "velocity": 88, "duration": 120}, {"note": 74, "velocity": 104, "duration": 959}, {"note": 74, "velocity": 114, "duration": 239}, {"note": 74, "velocity": 116, "duration": 240}, {"note": 76, "velocity": 114, "duration": 479}, {"note": 76, "velocity": 120, "duration": 720}, {"note": 0, "velocity": 0, "duration": 720}, {"note": 81, "velocity": 117, "duration": 240}, {"note": 79, "velocity": 116, "duration": 240}, {"note": 77, "velocity": 119, "duration": 959}, {"note": 77, "velocity": 117, "duration": 120}, {"note": 79, "velocity": 114, "duration": 360}, {"note": 77, "velocity": 116, "duration": 120}, {"note": 79, "velocity": 116, "duration": 240}, {"note": 77, "velocity": 113, "duration": 240}, {"note": 81, "velocity": 117, "duration": 1319}, {"note": 81, "velocity": 116, "duration": 240}, {"note": 79, "velocity": 114, "duration": 240}, {"note": 77, "velocity": 116, "duration": 840}, {"note": 74, "velocity": 113, "duration": 120}, {"note": 77, "velocity": 113, "duration": 120}, {"note": 74, "velocity": 110, "duration": 120}, {"note": 79, "velocity": 119, "duration": 240}, {"note": 77, "velocity": 114, "duration": 120}, {"note": 79, "velocity": 119, "duration": 240}, {"note": 82, "velocity": 119, "duration": 240}, {"note": 81, "velocity": 117, "duration": 1319}, {"note": 81, "velocity": 117, "duration": 240}, {"note": 79, "velocity": 116, "duration": 240}, {"note": 77, "velocity": 117, "duration": 360}, {"note": 74, "velocity": 107, "duration": 120}, {"note": 77, "velocity": 110, "duration": 120}, {"note": 74, "velocity": 108, "duration": 120}, {"note": 77, "velocity": 113, "duration": 239}, {"note": 77, "velocity": 113, "duration": 120}, {"note": 79, "velocity": 119, "duration": 360}, {"note": 77, "velocity": 108, "duration": 120}, {"note": 79, "velocity": 107, "duration": 240}, {"note": 77, "velocity": 110, "duration": 360}, {"note": 81, "velocity": 119, "duration": 240}, {"note": 79, "velocity": 114, "duration": 240}, {"note": 77, "velocity": 117, "duration": 240}, {"note": 86, "velocity": 123, "duration": 480}, {"note": 79, "velocity": 119, "duration": 480}, {"note": 77, "velocity": 119, "duration": 480}, {"note": 74, "velocity": 117, "duration": 240}, {"note": 77, "velocity": 117, "duration": 240}, {"note": 79, "velocity": 119, "duration": 480}, {"note": 81, "velocity": 110, "duration": 240}, {"note": 79, "velocity": 116, "duration": 240}, {"note": 77, "velocity": 117, "duration": 2160}, {"note": 74, "velocity": 117, "duration": 239}, {"note": 74, "velocity": 117, "duration": 239}, {"note": 74, "velocity": 119, "duration": 239}, {"note": 74, "velocity": 119, "duration": 239}, {"note": 74, "velocity": 119, "duration": 239}, {"note": 74, "velocity": 119, "duration": 239}, {"note": 74, "velocity": 119, "duration": 239}, {"note": 74, "velocity": 119, "duration": 240}, {"note": 76, "velocity": 116, "duration": 239}, {"note": 76, "velocity": 110, "duration": 239}, {"note": 76, "velocity": 110, "duration": 239}, {"note": 76, "velocity": 107, "duration": 239}, {"note": 76, "velocity": 102, "duration": 239}, {"note": 76, "velocity": 107, "duration": 239}, {"note": 76, "velocity": 100, "duration": 239}, {"note": 76, "velocity": 108, "duration": 240}, {"note": 77, "velocity": 114, "duration": 239}, {"note": 77, "velocity": 114, "duration": 239}, {"note": 77, "velocity": 113, "duration": 239}, {"note": 77, "velocity": 113, "duration": 239}, {"note": 77, "velocity": 114, "duration": 240}, {"note": 79, "velocity": 114, "duration": 240}, {"note": 81, "velocity": 116, "duration": 240}, {"note": 77, "velocity": 117, "duration": 2160}, {"note": 76, "velocity": 117, "duration": 239}, {"note": 76, "velocity": 114, "duration": 239}, {"note": 76, "velocity": 114, "duration": 239}, {"note": 76, "velocity": 114, "duration": 239}, {"note": 76, "velocity": 114, "duration": 239}, {"note": 76, "velocity": 113, "duration": 239}, {"note": 76, "velocity": 116, "duration": 239}, {"note": 76, "velocity": 114, "duration": 240}, {"note": 77, "velocity": 117, "duration": 239}, {"note": 77, "velocity": 117, "duration": 239}, {"note": 77, "velocity": 119, "duration": 239}, {"note": 77, "velocity": 116, "duration": 239}, {"note": 77, "velocity": 116, "duration": 240}, {"note": 79, "velocity": 113, "duration": 120}, {"note": 81, "velocity": 114, "duration": 240}, {"note": 77, "velocity": 117, "duration": 360}, {"note": 79, "velocity": 117, "duration": 239}, {"note": 79, "velocity": 117, "duration": 239}, {"note": 79, "velocity": 114, "duration": 239}, {"note": 79, "velocity": 113, "duration": 239}, {"note": 79, "velocity": 114, "duration": 240}, {"note": 81, "velocity": 113, "duration": 240}, {"note": 82, "velocity": 119, "duration": 240}, {"note": 81, "velocity": 119, "duration": 480}, {"note": 85, "velocity": 123, "duration": 1680}, {"note": 0, "velocity": 0, "duration": 1200}, {"note": 81, "velocity": 119, "duration": 240}, {"note": 79, "velocity": 114, "duration": 240}, {"note": 77, "velocity": 117, "duration": 959}, {"note": 77, "velocity": 100, "duration": 120}, {"note": 79, "velocity": 110, "duration": 360}, {"note": 77, "velocity": 108, "duration": 120}, {"note": 79, "velocity": 113, "duration": 240}, {"note": 77, "velocity": 113, "duration": 240}, {"note": 81, "velocity": 114, "duration": 1319}, {"note": 81, "velocity": 116, "duration": 240}, {"note": 79, "velocity": 114, "duration": 240}, {"note": 77, "velocity": 116, "duration": 840}, {"note": 74, "velocity": 113, "duration": 120}, {"note": 77, "velocity": 113, "duration": 120}, {"note": 74, "velocity": 110, "duration": 120}, {"note": 79, "velocity": 119, "duration": 240}, {"note": 77, "velocity": 114, "duration": 120}, {"note": 79, "velocity": 119, "duration": 240}, {"note": 82, "velocity": 119, "duration": 240}, {"note": 81, "velocity": 117, "duration": 1319}, {"note": 81, "velocity": 117, "duration": 240}, {"note": 79, "velocity": 116, "duration": 240}, {"note": 77, "velocity": 117, "duration": 360}, {"note": 74, "velocity": 107, "duration": 120}, {"note": 77, "velocity": 110, "duration": 120}, {"note": 74, "velocity": 108, "duration": 120}, {"note": 77, "velocity": 113, "duration": 239}, {"note": 77, "velocity": 113, "duration": 120}, {"note": 79, "velocity": 119, "duration": 360}, {"note": 77, "velocity": 108, "duration": 120}, {"note": 79, "velocity": 107, "duration": 240}, {"note": 77, "velocity": 110, "duration": 360}, {"note": 81, "velocity": 119, "duration": 240}, {"note": 79, "velocity": 114, "duration": 240}, {"note": 77, "velocity": 117, "duration": 240}, {"note": 86, "velocity": 123, "duration": 480}, {"note": 79, "velocity": 119, "duration": 480}, {"note": 77, "velocity": 119, "duration": 480}, {"note": 74, "velocity": 117, "duration": 240}, {"note": 77, "velocity": 117, "duration": 240}, {"note": 79, "velocity": 119, "duration": 480}, {"note": 81, "velocity": 110, "duration": 240}, {"note": 79, "velocity": 116, "duration": 240}, {"note": 77, "velocity": 117, "duration": 414}, {"note": 0, "velocity": 0, "duration": 1026}, {"note": 81, "velocity": 117, "duration": 240}, {"note": 79, "velocity": 116, "duration": 240}, {"note": 77, "velocity": 117, "duration": 360}, {"note": 74, "velocity": 107, "duration": 120}, {"note": 77, "velocity": 110, "duration": 120}, {"note": 74, "velocity": 108, "duration": 120}, {"note": 77, "velocity": 113, "duration": 239}, {"note": 77, "velocity": 113, "duration": 120}, {"note": 79, "velocity": 119, "duration": 360}, {"note": 77, "velocity": 108, "duration": 120}, {"note": 79, "velocity": 107, "duration": 240}, {"note": 77, "velocity": 110, "duration": 360}, {"note": 81, "velocity": 119, "duration": 240}, {"note": 79, "velocity": 114, "duration": 240}, {"note": 77, "velocity": 117, "duration": 240}, {"note": 86, "velocity": 123, "duration": 479}, {"note": 86, "velocity": 110, "duration": 480}, {"note": 81, "velocity": 108, "duration": 126}, {"note": 79, "velocity": 102, "duration": 120}, {"note": 77, "velocity": 113, "duration": 1920}, {"note": 0, "velocity": 0, "duration": 1440}, {"note": 81, "velocity": 114, "duration": 480}, {"note": 79, "velocity": 116, "duration": 257}, {"note": 77, "velocity": 113, "duration": 720}]]