[[{"note": 71, "velocity": 114, "duration": 1199}, {"note": 71, "velocity": 114, "duration": 240}, {"note": 72, "velocity": 107, "duration": 240}, {"note": 74, "velocity": 104, "duration": 119}, {"note": 74, "velocity": 104, "duration": 360}, {"note": 72, "velocity": 100, "duration": 239}, {"note": 72, "velocity": 98, "duration": 240}, {"note": 71, "velocity": 86, "duration": 119}, {"note": 71, "velocity": 91, "duration": 360}, {"note": 69, "velocity": 100, "duration": 720}, {"note": 71, "velocity": 107, "duration": 1199}, {"note": 71, "velocity": 102, "duration": 239}, {"note": 71, "velocity": 107, "duration": 240}, {"note": 76, "velocity": 108, "duration": 239}, {"note": 76, "velocity": 110, "duration": 240}, {"note": 74, "velocity": 108, "duration": 239}, {"note": 74, "velocity": 107, "duration": 240}, {"note": 71, "velocity": 102, "duration": 120}, {"note": 74, "velocity": 110, "duration": 1080}, {"note": 79, "velocity": 113, "duration": 1199}, {"note": 79, "velocity": 113, "duration": 239}, {"note": 79, "velocity": 107, "duration": 239}, {"note": 79, "velocity": 108, "duration": 240}, {"note": 76, "velocity": 107, "duration": 240}, {"note": 74, "velocity": 107, "duration": 480}, {"note": 71, "velocity": 110, "duration": 959}, {"note": 71, "velocity": 107, "duration": 239}, {"note": 71, "velocity": 113, "duration": 240}, {"note": 69, "velocity": 110, "duration": 239}, {"note": 69, "velocity": 110, "duration": 239}, {"note": 69, "velocity": 110, "duration": 480}, {"note": 67, "velocity": 110, "duration": 480}, {"note": 69, "velocity": 107, "duration": 1920}, {"note": 62, "velocity": 116, "duration": 240}, {"note": 71, "velocity": 114, "duration": 1199}, {"note": 71, "velocity": 110, "duration": 240}, {"note": 72, "velocity": 107, "duration": 240}, {"note": 74, "velocity": 107, "duration": 122}, {"note": 74, "velocity": 102, "duration": 2}, {"note": 0, "velocity": 0, "duration": 358}, {"note": 72, "velocity": 104, "duration": 239}, {"note": 72, "velocity": 108, "duration": 240}, {"note": 71, "velocity": 102, "duration": 119}, {"note": 71, "velocity": 104, "duration": 360}, {"note": 69, "velocity": 108, "duration": 239}, {"note": 69, "velocity": 107, "duration": 240}, {"note": 67, "velocity": 104, "duration": 240}, {"note": 71, "velocity": 113, "duration": 1199}, {"note": 71, "velocity": 113, "duration": 239}, {"note": 71, "velocity": 107, "duration": 240}, {"note": 76, "velocity": 107, "duration": 239}, {"note": 76, "velocity": 108, "duration": 240}, {"note": 74, "velocity": 108, "duration": 239}, {"note": 74, "velocity": 107, "duration": 240}, {"note": 71, "velocity": 98, "duration": 120}, {"note": 74, "velocity": 108, "duration": 1080}, {"note": 79, "velocity": 114, "duration": 1199}, {"note": 79, "velocity": 113, "duration": 239}, {"note": 79, "velocity": 110, "duration": 239}, {"note": 79, "velocity": 108, "duration": 240}, {"note": 78, "velocity": 116, "duration": 240}, {"note": 74, "velocity": 113, "duration": 239}, {"note": 74, "velocity": 113, "duration": 240}, {"note": 79, "velocity": 119, "duration": 959}, {"note": 79, "velocity": 116, "duration": 240}, {"note": 81, "velocity": 116, "duration": 240}, {"note": 79, "velocity": 116, "duration": 239}, {"note": 79, "velocity": 116, "duration": 240}, {"note": 76, "velocity": 107, "duration": 239}, {"note": 76, "velocity": 116, "duration": 240}, {"note": 79, "velocity": 117, "duration": 480}, {"note": 81, "velocity": 120, "duration": 1440}, {"note": 74, "velocity": 117, "duration": 239}, {"note": 74, "velocity": 117, "duration": 240}, {"note": 71, "velocity": 117, "duration": 240}, {"note": 81, "velocity": 116, "duration": 239}, {"note": 81, "velocity": 102, "duration": 239}, {"note": 81, "velocity": 117, "duration": 240}, {"note": 79, "velocity": 114, "duration": 120}, {"note": 81, "velocity": 117, "duration": 360}, {"note": 79, "velocity": 114, "duration": 480}, {"note": 86, "velocity": 119, "duration": 480}, {"note": 78, "velocity": 116, "duration": 239}, {"note": 78, "velocity": 116, "duration": 240}, {"note": 79, "velocity": 116, "duration": 480}, {"note": 74, "velocity": 114, "duration": 239}, {"note": 74, "velocity": 114, "duration": 240}, {"note": 76, "velocity": 113, "duration": 240}, {"note": 79, "velocity": 116, "duration": 239}, {"note": 79, "velocity": 98, "duration": 239}, {"note": 79, "velocity": 114, "duration": 239}, {"note": 79, "velocity": 110, "duration": 240}, {"note": 76, "velocity": 117, "duration": 240}, {"note": 74, "velocity": 110, "duration": 480}, {"note": 76, "velocity": 114, "duration": 480}, {"note": 74, "velocity": 116, "duration": 959}, {"note": 74, "velocity": 116, "duration": 239}, {"note": 74, "velocity": 114, "duration": 240}, {"note": 76, "velocity": 110, "duration": 240}, {"note": 79, "velocity": 113, "duration": 239}, {"note": 79, "velocity": 116, "duration": 239}, {"note": 79, "velocity": 116, "duration": 240}, {"note": 76, "velocity": 116, "duration": 480}, {"note": 74, "velocity": 114, "duration": 479}, {"note": 74, "velocity": 102, "duration": 240}, {"note": 76, "velocity": 113, "duration": 240}, {"note": 74, "velocity": 113, "duration": 239}, {"note": 74, "velocity": 110, "duration": 240}, {"note": 81, "velocity": 119, "duration": 480}, {"note": 83, "velocity": 114, "duration": 480}, {"note": 76, "velocity": 114, "duration": 240}, {"note": 79, "velocity": 117, "duration": 239}, {"note": 79, "velocity": 117, "duration": 479}, {"note": 79, "velocity": 114, "duration": 480}, {"note": 76, "velocity": 116, "duration": 480}, {"note": 79, "velocity": 113, "duration": 240}, {"note": 81, "velocity": 117, "duration": 1200}, {"note": 74, "velocity": 117, "duration": 239}, {"note": 74, "velocity": 117, "duration": 240}, {"note": 71, "velocity": 117, "duration": 240}, {"note": 81, "velocity": 116, "duration": 239}, {"note": 81, "velocity": 102, "duration": 239}, {"note": 81, "velocity": 117, "duration": 240}, {"note": 79, "velocity": 114, "duration": 120}, {"note": 81, "velocity": 117, "duration": 360}, {"note": 79, "velocity": 114, "duration": 480}, {"note": 86, "velocity": 119, "duration": 480}, {"note": 78, "velocity": 116, "duration": 239}, {"note": 78, "velocity": 116, "duration": 240}, {"note": 79, "velocity": 116, "duration": 119}, {"note": 79, "velocity": 116, "duration": 360}, {"note": 74, "velocity": 114, "duration": 239}, {"note": 74, "velocity": 114, "duration": 240}, {"note": 76, "velocity": 113, "duration": 240}, {"note": 79, "velocity": 116, "duration": 239}, {"note": 79, "velocity": 98, "duration": 239}, {"note": 79, "velocity": 114, "duration": 239}, {"note": 79, "velocity": 110, "duration": 240}, {"note": 76, "velocity": 117, "duration": 240}, {"note": 74, "velocity": 110, "duration": 480}, {"note": 76, "velocity": 114, "duration": 480}, {"note": 74, "velocity": 116, "duration": 959}, {"note": 74, "velocity": 116, "duration": 239}, {"note": 74, "velocity": 114, "duration": 240}, {"note": 76, "velocity": 110, "duration": 240}, {"note": 79, "velocity": 113, "duration": 239}, {"note": 79, "velocity": 116, "duration": 239}, {"note": 79, "velocity": 116, "duration": 240}, {"note": 76, "velocity": 116, "duration": 480}, {"note": 74, "velocity": 114, "duration": 479}, {"note": 74, "velocity": 102, "duration": 240}, {"note": 76, "velocity": 113, "duration": 240}, {"note": 74, "velocity": 113, "duration": 239}, {"note": 74, "velocity": 110, "duration": 240}, {"note": 81, "velocity": 119, "duration": 480}, {"note": 83, "velocity": 114, "duration": 480}, {"note": 76, "velocity": 114, "duration": 240}, {"note": 79, "velocity": 117, "duration": 239}, {"note": 79, "velocity": 117, "duration": 239}, {"note": 79, "velocity": 114, "duration": 286}, {"note": 76, "velocity": 108, "duration": 239}, {"note": 76, "velocity": 107, "duration": 240}, {"note": 79, "velocity": 116, "duration": 480}, {"note": 81, "velocity": 117, "duration": 480}, {"note": 79, "velocity": 119, "duration": 1680}, {"note": 0, "velocity": 0, "duration": 15120}, {"note": 62, "velocity": 116, "duration": 240}, {"note": 71, "velocity": 114, "duration": 1199}, {"note": 71, "velocity": 110, "duration": 240}, {"note": 72, "velocity": 107, "duration": 240}, {"note": 74, "velocity": 107, "duration": 122}, {"note": 74, "velocity": 102, "duration": 2}, {"note": 0, "velocity": 0, "duration": 358}, {"note": 72, "velocity": 104, "duration": 239}, {"note": 72, "velocity": 108, "duration": 240}, {"note": 71, "velocity": 102, "duration": 119}, {"note": 71, "velocity": 104, "duration": 360}, {"note": 69, "velocity": 108, "duration": 239}, {"note": 69, "velocity": 107, "duration": 240}, {"note": 67, "velocity": 104, "duration": 240}, {"note": 71, "velocity": 113, "duration": 1199}, {"note": 71, "velocity": 113, "duration": 239}, {"note": 71, "velocity": 107, "duration": 240}, {"note": 76, "velocity": 107, "duration": 239}, {"note": 76, "velocity": 108, "duration": 240}, {"note": 74, "velocity": 108, "duration": 239}, {"note": 74, "velocity": 107, "duration": 240}, {"note": 71, "velocity": 98, "duration": 120}, {"note": 74, "velocity": 108, "duration": 1080}, {"note": 79, "velocity": 114, "duration": 1199}, {"note": 79, "velocity": 113, "duration": 239}, {"note": 79, "velocity": 110, "duration": 239}, {"note": 79, "velocity": 108, "duration": 240}, {"note": 78, "velocity": 116, "duration": 240}, {"note": 74, "velocity": 113, "duration": 239}, {"note": 74, "velocity": 113, "duration": 240}, {"note": 79, "velocity": 119, "duration": 959}, {"note": 79, "velocity": 116, "duration": 240}, {"note": 81, "velocity": 116, "duration": 240}, {"note": 79, "velocity": 116, "duration": 239}, {"note": 79, "velocity": 116, "duration": 240}, {"note": 76, "velocity": 107, "duration": 239}, {"note": 76, "velocity": 116, "duration": 240}, {"note": 79, "velocity": 117, "duration": 480}, {"note": 81, "velocity": 120, "duration": 1440}, {"note": 74, "velocity": 117, "duration": 239}, {"note": 74, "velocity": 117, "duration": 240}, {"note": 71, "velocity": 117, "duration": 240}, {"note": 81, "velocity": 116, "duration": 239}, {"note": 81, "velocity": 102, "duration": 239}, {"note": 81, "velocity": 117, "duration": 240}, {"note": 79, "velocity": 114, "duration": 120}, {"note": 81, "velocity": 117, "duration": 360}, {"note": 79, "velocity": 114, "duration": 480}, {"note": 86, "velocity": 119, "duration": 480}, {"note": 78, "velocity": 116, "duration": 239}, {"note": 78, "velocity": 116, "duration": 240}, {"note": 79, "velocity": 116, "duration": 480}, {"note": 74, "velocity": 114, "duration": 239}, {"note": 74, "velocity": 114, "duration": 240}, {"note": 76, "velocity": 113, "duration": 240}, {"note": 79, "velocity": 116, "duration": 239}, {"note": 79, "velocity": 98, "duration": 239}, {"note": 79, "velocity": 114, "duration": 239}, {"note": 79, "velocity": 110, "duration": 240}, {"note": 76, "velocity": 117, "duration": 240}, {"note": 74, "velocity": 110, "duration": 480}, {"note": 76, "velocity": 114, "duration": 480}, {"note": 74, "velocity": 116, "duration": 959}, {"note": 74, "velocity": 116, "duration": 239}, {"note": 74, "velocity": 114, "duration": 240}, {"note": 76, "velocity": 110, "duration": 240}, {"note": 79, "velocity": 113, "duration": 239}, {"note": 79, "velocity": 116, "duration": 239}, {"note": 79, "velocity": 116, "duration": 240}, {"note": 76, "velocity": 116, "duration": 480}, {"note": 74, "velocity": 114, "duration": 479}, {"note": 74, "velocity": 102, "duration": 240}, {"note": 76, "velocity": 113, "duration": 240}, {"note": 74, "velocity": 113, "duration": 239}, {"note": 74, "velocity": 110, "duration": 240}, {"note": 81, "velocity": 119, "duration": 480}, {"note": 83, "velocity": 114, "duration": 480}, {"note": 76, "velocity": 114, "duration": 240}, {"note": 79, "velocity": 117, "duration": 239}, {"note": 79, "velocity": 117, "duration": 479}, {"note": 79, "velocity": 114, "duration": 480}, {"note": 76, "velocity": 116, "duration": 480}, {"note": 79, "velocity": 113, "duration": 240}, {"note": 81, "velocity": 117, "duration": 1200}, {"note": 74, "velocity": 117, "duration": 239}, {"note": 74, "velocity": 117, "duration": 240}, {"note": 71, "velocity": 117, "duration": 240}, {"note": 81, "velocity": 116, "duration": 239}, {"note": 81, "velocity": 102, "duration": 239}, {"note": 81, "velocity": 117, "duration": 240}, {"note": 79, "velocity": 114, "duration": 120}, {"note": 81, "velocity": 117, "duration": 360}, {"note": 79, "velocity": 114, "duration": 480}, {"note": 86, "velocity": 119, "duration": 480}, {"note": 78, "velocity": 116, "duration": 239}, {"note": 78, "velocity": 116, "duration": 240}, {"note": 79, "velocity": 116, "duration": 119}, {"note": 79, "velocity": 116, "duration": 360}, {"note": 74, "velocity": 114, "duration": 239}, {"note": 74, "velocity": 114, "duration": 240}, {"note": 76, "velocity": 113, "duration": 240}, {"note": 79, "velocity": 116, "duration": 239}, {"note": 79, "velocity": 98, "duration": 239}, {"note": 79, "velocity": 114, "duration": 239}, {"note": 79, "velocity": 110, "duration": 240}, {"note": 76, "velocity": 117, "duration": 240}, {"note": 74, "velocity": 110, "duration": 480}, {"note": 76, "velocity": 114, "duration": 480}, {"note": 74, "velocity": 116, "duration": 959}, {"note": 74, "velocity": 116, "duration": 239}, {"note": 74, "velocity": 114, "duration": 240}, {"note": 76, "velocity": 110, "duration": 240}, {"note": 79, "velocity": 113, "duration": 239}, {"note": 79, "velocity": 116, "duration": 239}, {"note": 79, "velocity": 116, "duration": 240}, {"note": 76, "velocity": 116, "duration": 480}, {"note": 74, "velocity": 114, "duration": 479}, {"note": 74, "velocity": 102, "duration": 240}, {"note": 76, "velocity": 113, "duration": 240}, {"note": 74, "velocity": 113, "duration": 239}, {"note": 74, "velocity": 110, "duration": 240}, {"note": 81, "velocity": 119, "duration": 480}, {"note": 83, "velocity": 114, "duration": 480}, {"note": 76, "velocity": 114, "duration": 240}, {"note": 79, "velocity": 117, "duration": 239}, {"note": 79, "velocity": 117, "duration": 239}, {"note": 79, "velocity": 114, "duration": 286}, {"note": 76, "velocity": 108, "duration": 239}, {"note": 76, "velocity": 107, "duration": 240}, {"note": 79, "velocity": 116, "duration": 480}, {"note": 81, "velocity": 117, "duration": 480}, {"note": 79, "velocity": 119, "duration": 1680}]]