[[{"note": 73, "velocity": 93, "duration": 239}, {"note": 73, "velocity": 100, "duration": 240}, {"note": 78, "velocity": 98, "duration": 119}, {"note": 78, "velocity": 100, "duration": 360}, {"note": 69, "velocity": 106, "duration": 240}, {"note": 71, "velocity": 100, "duration": 240}, {"note": 73, "velocity": 98, "duration": 119}, {"note": 73, "velocity": 110, "duration": 2279}, {"note": 73, "velocity": 104, "duration": 239}, {"note": 73, "velocity": 102, "duration": 240}, {"note": 78, "velocity": 94, "duration": 119}, {"note": 78, "velocity": 102, "duration": 480}, {"note": 76, "velocity": 87, "duration": 119}, {"note": 76, "velocity": 91, "duration": 360}, {"note": 74, "velocity": 87, "duration": 120}, {"note": 73, "velocity": 90, "duration": 2159}, {"note": 73, "velocity": 100, "duration": 239}, {"note": 73, "velocity": 100, "duration": 240}, {"note": 78, "velocity": 100, "duration": 480}, {"note": 69, "velocity": 97, "duration": 240}, {"note": 71, "velocity": 100, "duration": 240}, {"note": 73, "velocity": 104, "duration": 2399}, {"note": 73, "velocity": 91, "duration": 239}, {"note": 73, "velocity": 92, "duration": 240}, {"note": 69, "velocity": 93, "duration": 120}, {"note": 74, "velocity": 89, "duration": 359}, {"note": 74, "velocity": 91, "duration": 239}, {"note": 74, "velocity": 100, "duration": 240}, {"note": 73, "velocity": 91, "duration": 240}, {"note": 69, "velocity": 91, "duration": 2160}, {"note": 73, "velocity": 91, "duration": 239}, {"note": 73, "velocity": 88, "duration": 240}, {"note": 78, "velocity": 91, "duration": 119}, {"note": 78, "velocity": 94, "duration": 360}, {"note": 69, "velocity": 90, "duration": 240}, {"note": 71, "velocity": 88, "duration": 240}, {"note": 73, "velocity": 90, "duration": 119}, {"note": 73, "velocity": 91, "duration": 2279}, {"note": 73, "velocity": 96, "duration": 239}, {"note": 73, "velocity": 91, "duration": 240}, {"note": 78, "velocity": 96, "duration": 119}, {"note": 78, "velocity": 96, "duration": 480}, {"note": 76, "velocity": 92, "duration": 119}, {"note": 76, "velocity": 89, "duration": 360}, {"note": 74, "velocity": 90, "duration": 137}, {"note": 73, "velocity": 88, "duration": 2159}, {"note": 73, "velocity": 100, "duration": 239}, {"note": 73, "velocity": 91, "duration": 240}, {"note": 78, "velocity": 107, "duration": 480}, {"note": 69, "velocity": 103, "duration": 240}, {"note": 71, "velocity": 108, "duration": 240}, {"note": 73, "velocity": 108, "duration": 2399}, {"note": 73, "velocity": 102, "duration": 239}, {"note": 73, "velocity": 98, "duration": 240}, {"note": 69, "velocity": 100, "duration": 240}, {"note": 74, "velocity": 106, "duration": 239}, {"note": 74, "velocity": 103, "duration": 119}, {"note": 74, "velocity": 106, "duration": 360}, {"note": 73, "velocity": 100, "duration": 240}, {"note": 69, "velocity": 107, "duration": 1200}, {"note": 76, "velocity": 113, "duration": 240}, {"note": 78, "velocity": 104, "duration": 240}, {"note": 80, "velocity": 108, "duration": 240}, {"note": 81, "velocity": 113, "duration": 239}, {"note": 81, "velocity": 100, "duration": 119}, {"note": 81, "velocity": 100, "duration": 240}, {"note": 76, "velocity": 110, "duration": 120}, {"note": 78, "velocity": 102, "duration": 239}, {"note": 78, "velocity": 110, "duration": 480}, {"note": 76, "velocity": 107, "duration": 240}, {"note": 74, "velocity": 91, "duration": 120}, {"note": 73, "velocity": 96, "duration": 359}, {"note": 73, "velocity": 106, "duration": 239}, {"note": 73, "velocity": 108, "duration": 239}, {"note": 73, "velocity": 93, "duration": 120}, {"note": 71, "velocity": 92, "duration": 360}, {"note": 76, "velocity": 110, "duration": 240}, {"note": 78, "velocity": 104, "duration": 240}, {"note": 80, "velocity": 113, "duration": 240}, {"note": 81, "velocity": 109, "duration": 239}, {"note": 81, "velocity": 113, "duration": 119}, {"note": 81, "velocity": 113, "duration": 240}, {"note": 76, "velocity": 98, "duration": 120}, {"note": 78, "velocity": 107, "duration": 239}, {"note": 78, "velocity": 110, "duration": 479}, {"note": 78, "velocity": 108, "duration": 240}, {"note": 81, "velocity": 103, "duration": 119}, {"note": 81, "velocity": 109, "duration": 359}, {"note": 81, "velocity": 116, "duration": 239}, {"note": 81, "velocity": 116, "duration": 240}, {"note": 83, "velocity": 107, "duration": 119}, {"note": 83, "velocity": 114, "duration": 480}, {"note": 76, "velocity": 110, "duration": 120}, {"note": 78, "velocity": 110, "duration": 240}, {"note": 80, "velocity": 108, "duration": 240}, {"note": 81, "velocity": 113, "duration": 240}, {"note": 80, "velocity": 104, "duration": 128}, {"note": 81, "velocity": 103, "duration": 240}, {"note": 85, "velocity": 113, "duration": 360}, {"note": 90, "velocity": 117, "duration": 360}, {"note": 88, "velocity": 117, "duration": 360}, {"note": 86, "velocity": 119, "duration": 240}, {"note": 85, "velocity": 119, "duration": 479}, {"note": 85, "velocity": 116, "duration": 240}, {"note": 83, "velocity": 116, "duration": 720}, {"note": 78, "velocity": 116, "duration": 240}, {"note": 80, "velocity": 108, "duration": 240}, {"note": 81, "velocity": 113, "duration": 479}, {"note": 81, "velocity": 119, "duration": 240}, {"note": 83, "velocity": 113, "duration": 120}, {"note": 81, "velocity": 116, "duration": 479}, {"note": 81, "velocity": 113, "duration": 120}, {"note": 80, "velocity": 108, "duration": 240}, {"note": 81, "velocity": 109, "duration": 120}, {"note": 83, "velocity": 114, "duration": 596}, {"note": 81, "velocity": 113, "duration": 243}, {"note": 81, "velocity": 116, "duration": 568}, {"note": 0, "velocity": 0, "duration": 8552}, {"note": 73, "velocity": 93, "duration": 239}, {"note": 73, "velocity": 100, "duration": 240}, {"note": 78, "velocity": 98, "duration": 119}, {"note": 78, "velocity": 100, "duration": 360}, {"note": 69, "velocity": 106, "duration": 240}, {"note": 71, "velocity": 100, "duration": 240}, {"note": 73, "velocity": 98, "duration": 119}, {"note": 73, "velocity": 110, "duration": 2279}, {"note": 73, "velocity": 104, "duration": 239}, {"note": 73, "velocity": 102, "duration": 240}, {"note": 78, "velocity": 94, "duration": 119}, {"note": 78, "velocity": 102, "duration": 480}, {"note": 76, "velocity": 87, "duration": 119}, {"note": 76, "velocity": 91, "duration": 360}, {"note": 74, "velocity": 87, "duration": 120}, {"note": 73, "velocity": 90, "duration": 2159}, {"note": 73, "velocity": 100, "duration": 119}, {"note": 73, "velocity": 100, "duration": 119}, {"note": 73, "velocity": 100, "duration": 240}, {"note": 78, "velocity": 100, "duration": 480}, {"note": 69, "velocity": 97, "duration": 119}, {"note": 69, "velocity": 97, "duration": 120}, {"note": 71, "velocity": 100, "duration": 240}, {"note": 73, "velocity": 104, "duration": 2399}, {"note": 73, "velocity": 91, "duration": 239}, {"note": 73, "velocity": 92, "duration": 240}, {"note": 69, "velocity": 93, "duration": 240}, {"note": 74, "velocity": 89, "duration": 239}, {"note": 74, "velocity": 91, "duration": 119}, {"note": 74, "velocity": 100, "duration": 360}, {"note": 73, "velocity": 91, "duration": 240}, {"note": 69, "velocity": 91, "duration": 480}, {"note": 0, "velocity": 0, "duration": 720}, {"note": 76, "velocity": 113, "duration": 240}, {"note": 78, "velocity": 104, "duration": 240}, {"note": 80, "velocity": 108, "duration": 240}, {"note": 81, "velocity": 113, "duration": 239}, {"note": 81, "velocity": 100, "duration": 119}, {"note": 81, "velocity": 100, "duration": 240}, {"note": 76, "velocity": 110, "duration": 120}, {"note": 78, "velocity": 102, "duration": 239}, {"note": 78, "velocity": 110, "duration": 480}, {"note": 76, "velocity": 107, "duration": 240}, {"note": 74, "velocity": 91, "duration": 120}, {"note": 73, "velocity": 96, "duration": 359}, {"note": 73, "velocity": 106, "duration": 239}, {"note": 73, "velocity": 108, "duration": 239}, {"note": 73, "velocity": 93, "duration": 120}, {"note": 71, "velocity": 92, "duration": 360}, {"note": 76, "velocity": 110, "duration": 240}, {"note": 78, "velocity": 104, "duration": 240}, {"note": 80, "velocity": 113, "duration": 240}, {"note": 81, "velocity": 109, "duration": 239}, {"note": 81, "velocity": 113, "duration": 119}, {"note": 81, "velocity": 113, "duration": 240}, {"note": 76, "velocity": 98, "duration": 120}, {"note": 78, "velocity": 107, "duration": 239}, {"note": 78, "velocity": 110, "duration": 479}, {"note": 78, "velocity": 108, "duration": 240}, {"note": 81, "velocity": 103, "duration": 119}, {"note": 81, "velocity": 109, "duration": 359}, {"note": 81, "velocity": 116, "duration": 239}, {"note": 81, "velocity": 116, "duration": 240}, {"note": 83, "velocity": 107, "duration": 119}, {"note": 83, "velocity": 114, "duration": 480}, {"note": 76, "velocity": 110, "duration": 120}, {"note": 78, "velocity": 110, "duration": 240}, {"note": 80, "velocity": 108, "duration": 240}, {"note": 81, "velocity": 113, "duration": 240}, {"note": 80, "velocity": 104, "duration": 128}, {"note": 81, "velocity": 103, "duration": 240}, {"note": 85, "velocity": 113, "duration": 360}, {"note": 90, "velocity": 117, "duration": 360}, {"note": 88, "velocity": 117, "duration": 360}, {"note": 86, "velocity": 119, "duration": 240}, {"note": 85, "velocity": 119, "duration": 479}, {"note": 85, "velocity": 116, "duration": 240}, {"note": 83, "velocity": 116, "duration": 720}, {"note": 78, "velocity": 116, "duration": 240}, {"note": 80, "velocity": 108, "duration": 240}, {"note": 81, "velocity": 113, "duration": 359}, {"note": 81, "velocity": 119, "duration": 143}, {"note": 81, "velocity": 119, "duration": 23}, {"note": 0, "velocity": 0, "duration": 217}, {"note": 83, "velocity": 113, "duration": 240}, {"note": 81, "velocity": 116, "duration": 359}, {"note": 81, "velocity": 113, "duration": 120}, {"note": 80, "velocity": 108, "duration": 240}, {"note": 81, "velocity": 109, "duration": 120}, {"note": 83, "velocity": 114, "duration": 596}, {"note": 81, "velocity": 113, "duration": 244}, {"note": 80, "velocity": 116, "duration": 179}, {"note": 81, "velocity": 116, "duration": 1080}, {"note": 0, "velocity": 0, "duration": 30960}, {"note": 81, "velocity": 116, "duration": 239}, {"note": 81, "velocity": 109, "duration": 239}, {"note": 81, "velocity": 116, "duration": 479}, {"note": 81, "velocity": 116, "duration": 240}, {"note": 83, "velocity": 114, "duration": 240}, {"note": 81, "velocity": 116, "duration": 479}, {"note": 81, "velocity": 119, "duration": 239}, {"note": 81, "velocity": 119, "duration": 239}, {"note": 81, "velocity": 116, "duration": 240}, {"note": 80, "velocity": 119, "duration": 240}, {"note": 81, "velocity": 119, "duration": 240}, {"note": 80, "velocity": 113, "duration": 240}, {"note": 81, "velocity": 113, "duration": 479}, {"note": 81, "velocity": 116, "duration": 239}, {"note": 81, "velocity": 113, "duration": 239}, {"note": 81, "velocity": 116, "duration": 479}, {"note": 81, "velocity": 116, "duration": 240}, {"note": 83, "velocity": 113, "duration": 240}, {"note": 81, "velocity": 116, "duration": 479}, {"note": 81, "velocity": 116, "duration": 239}, {"note": 81, "velocity": 113, "duration": 239}, {"note": 81, "velocity": 113, "duration": 240}, {"note": 80, "velocity": 109, "duration": 240}, {"note": 81, "velocity": 109, "duration": 240}, {"note": 80, "velocity": 114, "duration": 240}, {"note": 81, "velocity": 119, "duration": 479}, {"note": 81, "velocity": 119, "duration": 239}, {"note": 81, "velocity": 116, "duration": 239}, {"note": 81, "velocity": 116, "duration": 479}, {"note": 81, "velocity": 119, "duration": 240}, {"note": 83, "velocity": 113, "duration": 240}, {"note": 81, "velocity": 119, "duration": 479}, {"note": 81, "velocity": 119, "duration": 239}, {"note": 81, "velocity": 119, "duration": 239}, {"note": 81, "velocity": 116, "duration": 240}, {"note": 80, "velocity": 100, "duration": 240}, {"note": 81, "velocity": 113, "duration": 240}, {"note": 80, "velocity": 113, "duration": 240}, {"note": 81, "velocity": 119, "duration": 479}, {"note": 81, "velocity": 119, "duration": 239}, {"note": 81, "velocity": 119, "duration": 239}, {"note": 81, "velocity": 119, "duration": 479}, {"note": 81, "velocity": 119, "duration": 240}, {"note": 83, "velocity": 117, "duration": 240}, {"note": 81, "velocity": 119, "duration": 479}, {"note": 81, "velocity": 119, "duration": 239}, {"note": 81, "velocity": 119, "duration": 239}, {"note": 81, "velocity": 119, "duration": 240}, {"note": 80, "velocity": 119, "duration": 240}, {"note": 76, "velocity": 113, "duration": 240}, {"note": 78, "velocity": 104, "duration": 240}, {"note": 80, "velocity": 108, "duration": 240}, {"note": 81, "velocity": 113, "duration": 239}, {"note": 81, "velocity": 100, "duration": 119}, {"note": 81, "velocity": 100, "duration": 240}, {"note": 76, "velocity": 110, "duration": 120}, {"note": 78, "velocity": 102, "duration": 239}, {"note": 78, "velocity": 110, "duration": 480}, {"note": 76, "velocity": 107, "duration": 240}, {"note": 74, "velocity": 91, "duration": 120}, {"note": 73, "velocity": 96, "duration": 359}, {"note": 73, "velocity": 106, "duration": 239}, {"note": 73, "velocity": 108, "duration": 239}, {"note": 73, "velocity": 93, "duration": 120}, {"note": 71, "velocity": 92, "duration": 360}, {"note": 76, "velocity": 110, "duration": 240}, {"note": 78, "velocity": 104, "duration": 240}, {"note": 80, "velocity": 113, "duration": 240}, {"note": 81, "velocity": 109, "duration": 239}, {"note": 81, "velocity": 113, "duration": 119}, {"note": 81, "velocity": 113, "duration": 240}, {"note": 76, "velocity": 98, "duration": 120}, {"note": 78, "velocity": 107, "duration": 239}, {"note": 78, "velocity": 110, "duration": 479}, {"note": 78, "velocity": 108, "duration": 240}, {"note": 81, "velocity": 103, "duration": 119}, {"note": 81, "velocity": 109, "duration": 359}, {"note": 81, "velocity": 116, "duration": 239}, {"note": 81, "velocity": 116, "duration": 240}, {"note": 83, "velocity": 107, "duration": 119}, {"note": 83, "velocity": 114, "duration": 360}, {"note": 76, "velocity": 110, "duration": 240}, {"note": 78, "velocity": 110, "duration": 240}, {"note": 80, "velocity": 108, "duration": 240}, {"note": 81, "velocity": 113, "duration": 240}, {"note": 80, "velocity": 104, "duration": 128}, {"note": 81, "velocity": 103, "duration": 240}, {"note": 85, "velocity": 113, "duration": 360}, {"note": 90, "velocity": 117, "duration": 360}, {"note": 88, "velocity": 117, "duration": 360}, {"note": 86, "velocity": 119, "duration": 240}, {"note": 85, "velocity": 119, "duration": 479}, {"note": 85, "velocity": 116, "duration": 240}, {"note": 83, "velocity": 116, "duration": 720}, {"note": 78, "velocity": 116, "duration": 240}, {"note": 80, "velocity": 108, "duration": 240}, {"note": 81, "velocity": 113, "duration": 359}, {"note": 81, "velocity": 119, "duration": 360}, {"note": 83, "velocity": 113, "duration": 120}, {"note": 81, "velocity": 116, "duration": 479}, {"note": 81, "velocity": 113, "duration": 120}, {"note": 80, "velocity": 108, "duration": 240}, {"note": 81, "velocity": 109, "duration": 120}, {"note": 83, "velocity": 114, "duration": 596}, {"note": 81, "velocity": 113, "duration": 244}, {"note": 80, "velocity": 116, "duration": 179}, {"note": 81, "velocity": 116, "duration": 1080}, {"note": 80, "velocity": 119, "duration": 240}, {"note": 76, "velocity": 113, "duration": 240}, {"note": 78, "velocity": 104, "duration": 240}, {"note": 80, "velocity": 108, "duration": 240}, {"note": 81, "velocity": 113, "duration": 239}, {"note": 81, "velocity": 100, "duration": 119}, {"note": 81, "velocity": 100, "duration": 240}, {"note": 76, "velocity": 110, "duration": 120}, {"note": 78, "velocity": 102, "duration": 239}, {"note": 78, "velocity": 110, "duration": 480}, {"note": 76, "velocity": 107, "duration": 240}, {"note": 74, "velocity": 91, "duration": 120}, {"note": 73, "velocity": 96, "duration": 359}, {"note": 73, "velocity": 106, "duration": 239}, {"note": 73, "velocity": 108, "duration": 239}, {"note": 73, "velocity": 93, "duration": 120}, {"note": 71, "velocity": 92, "duration": 360}, {"note": 76, "velocity": 110, "duration": 240}, {"note": 78, "velocity": 104, "duration": 240}, {"note": 80, "velocity": 113, "duration": 240}, {"note": 81, "velocity": 109, "duration": 239}, {"note": 81, "velocity": 113, "duration": 119}, {"note": 81, "velocity": 113, "duration": 240}, {"note": 76, "velocity": 98, "duration": 120}, {"note": 78, "velocity": 107, "duration": 239}, {"note": 78, "velocity": 110, "duration": 479}, {"note": 78, "velocity": 108, "duration": 240}, {"note": 81, "velocity": 103, "duration": 119}, {"note": 81, "velocity": 109, "duration": 359}, {"note": 81, "velocity": 116, "duration": 239}, {"note": 81, "velocity": 116, "duration": 240}, {"note": 83, "velocity": 107, "duration": 119}, {"note": 83, "velocity": 114, "duration": 360}, {"note": 76, "velocity": 110, "duration": 240}, {"note": 78, "velocity": 110, "duration": 240}, {"note": 80, "velocity": 108, "duration": 240}, {"note": 81, "velocity": 113, "duration": 240}, {"note": 80, "velocity": 104, "duration": 128}, {"note": 81, "velocity": 103, "duration": 240}, {"note": 85, "velocity": 113, "duration": 360}, {"note": 90, "velocity": 117, "duration": 360}, {"note": 88, "velocity": 117, "duration": 360}, {"note": 86, "velocity": 119, "duration": 240}, {"note": 85, "velocity": 119, "duration": 479}, {"note": 85, "velocity": 116, "duration": 240}, {"note": 83, "velocity": 116, "duration": 720}, {"note": 78, "velocity": 116, "duration": 240}, {"note": 80, "velocity": 108, "duration": 240}, {"note": 81, "velocity": 113, "duration": 359}, {"note": 81, "velocity": 119, "duration": 360}, {"note": 83, "velocity": 113, "duration": 120}, {"note": 81, "velocity": 116, "duration": 479}, {"note": 81, "velocity": 113, "duration": 120}, {"note": 80, "velocity": 108, "duration": 240}, {"note": 81, "velocity": 109, "duration": 120}, {"note": 83, "velocity": 114, "duration": 596}, {"note": 81, "velocity": 113, "duration": 244}, {"note": 80, "velocity": 116, "duration": 179}, {"note": 81, "velocity": 116, "duration": 1080}, {"note": 80, "velocity": 119, "duration": 240}, {"note": 76, "velocity": 113, "duration": 240}, {"note": 78, "velocity": 104, "duration": 240}, {"note": 80, "velocity": 108, "duration": 240}, {"note": 81, "velocity": 113, "duration": 239}, {"note": 81, "velocity": 100, "duration": 119}, {"note": 81, "velocity": 100, "duration": 240}, {"note": 76, "velocity": 110, "duration": 120}, {"note": 78, "velocity": 102, "duration": 239}, {"note": 78, "velocity": 110, "duration": 480}, {"note": 76, "velocity": 107, "duration": 240}, {"note": 74, "velocity": 91, "duration": 120}, {"note": 73, "velocity": 96, "duration": 359}, {"note": 73, "velocity": 106, "duration": 239}, {"note": 73, "velocity": 108, "duration": 239}, {"note": 73, "velocity": 93, "duration": 120}, {"note": 71, "velocity": 92, "duration": 360}, {"note": 76, "velocity": 110, "duration": 240}, {"note": 78, "velocity": 104, "duration": 240}, {"note": 80, "velocity": 113, "duration": 240}, {"note": 81, "velocity": 109, "duration": 239}, {"note": 81, "velocity": 113, "duration": 119}, {"note": 81, "velocity": 113, "duration": 240}, {"note": 76, "velocity": 98, "duration": 120}, {"note": 78, "velocity": 107, "duration": 239}, {"note": 78, "velocity": 110, "duration": 479}, {"note": 78, "velocity": 108, "duration": 240}, {"note": 81, "velocity": 103, "duration": 119}, {"note": 81, "velocity": 109, "duration": 359}, {"note": 81, "velocity": 116, "duration": 239}, {"note": 81, "velocity": 116, "duration": 240}, {"note": 83, "velocity": 107, "duration": 119}, {"note": 83, "velocity": 114, "duration": 360}, {"note": 76, "velocity": 110, "duration": 240}, {"note": 78, "velocity": 110, "duration": 240}, {"note": 80, "velocity": 108, "duration": 240}, {"note": 81, "velocity": 113, "duration": 240}, {"note": 80, "velocity": 104, "duration": 128}, {"note": 81, "velocity": 103, "duration": 240}, {"note": 85, "velocity": 113, "duration": 360}, {"note": 90, "velocity": 117, "duration": 360}, {"note": 88, "velocity": 117, "duration": 360}, {"note": 86, "velocity": 119, "duration": 240}, {"note": 85, "velocity": 119, "duration": 479}, {"note": 85, "velocity": 116, "duration": 240}, {"note": 83, "velocity": 116, "duration": 720}, {"note": 78, "velocity": 116, "duration": 240}, {"note": 80, "velocity": 108, "duration": 240}, {"note": 81, "velocity": 113, "duration": 359}, {"note": 81, "velocity": 119, "duration": 360}, {"note": 83, "velocity": 113, "duration": 120}, {"note": 81, "velocity": 116, "duration": 479}, {"note": 81, "velocity": 113, "duration": 120}, {"note": 80, "velocity": 108, "duration": 240}, {"note": 81, "velocity": 109, "duration": 120}, {"note": 83, "velocity": 114, "duration": 596}, {"note": 81, "velocity": 113, "duration": 244}, {"note": 80, "velocity": 116, "duration": 179}, {"note": 81, "velocity": 116, "duration": 1080}, {"note": 0, "velocity": 0, "duration": 240}, {"note": 73, "velocity": 93, "duration": 239}, {"note": 73, "velocity": 100, "duration": 240}, {"note": 78, "velocity": 98, "duration": 119}, {"note": 78, "velocity": 100, "duration": 360}, {"note": 69, "velocity": 106, "duration": 240}, {"note": 71, "velocity": 100, "duration": 240}, {"note": 73, "velocity": 98, "duration": 239}, {"note": 73, "velocity": 110, "duration": 2159}, {"note": 73, "velocity": 104, "duration": 239}, {"note": 73, "velocity": 102, "duration": 240}, {"note": 78, "velocity": 94, "duration": 239}, {"note": 78, "velocity": 102, "duration": 360}, {"note": 76, "velocity": 87, "duration": 119}, {"note": 76, "velocity": 91, "duration": 360}, {"note": 74, "velocity": 87, "duration": 120}, {"note": 73, "velocity": 90, "duration": 2159}, {"note": 73, "velocity": 100, "duration": 119}, {"note": 73, "velocity": 100, "duration": 119}, {"note": 73, "velocity": 100, "duration": 240}, {"note": 78, "velocity": 100, "duration": 480}, {"note": 69, "velocity": 97, "duration": 240}, {"note": 71, "velocity": 100, "duration": 240}, {"note": 73, "velocity": 104, "duration": 2399}, {"note": 73, "velocity": 91, "duration": 239}, {"note": 73, "velocity": 92, "duration": 240}, {"note": 69, "velocity": 93, "duration": 120}, {"note": 74, "velocity": 89, "duration": 359}, {"note": 74, "velocity": 91, "duration": 239}, {"note": 74, "velocity": 100, "duration": 240}, {"note": 73, "velocity": 91, "duration": 240}, {"note": 69, "velocity": 91, "duration": 2880}]]