[[{"note": 62, "velocity": 120, "duration": 239}, {"note": 62, "velocity": 117, "duration": 240}, {"note": 71, "velocity": 123, "duration": 959}, {"note": 71, "velocity": 116, "duration": 239}, {"note": 71, "velocity": 116, "duration": 239}, {"note": 71, "velocity": 116, "duration": 240}, {"note": 69, "velocity": 116, "duration": 120}, {"note": 71, "velocity": 119, "duration": 1560}, {"note": 62, "velocity": 116, "duration": 239}, {"note": 62, "velocity": 114, "duration": 240}, {"note": 71, "velocity": 116, "duration": 959}, {"note": 71, "velocity": 114, "duration": 240}, {"note": 69, "velocity": 114, "duration": 240}, {"note": 67, "velocity": 117, "duration": 240}, {"note": 69, "velocity": 116, "duration": 240}, {"note": 71, "velocity": 109, "duration": 480}, {"note": 66, "velocity": 116, "duration": 959}, {"note": 66, "velocity": 123, "duration": 240}, {"note": 67, "velocity": 117, "duration": 240}, {"note": 64, "velocity": 119, "duration": 720}, {"note": 67, "velocity": 108, "duration": 239}, {"note": 67, "velocity": 116, "duration": 239}, {"note": 67, "velocity": 114, "duration": 239}, {"note": 67, "velocity": 113, "duration": 240}, {"note": 62, "velocity": 110, "duration": 240}, {"note": 71, "velocity": 114, "duration": 1440}, {"note": 67, "velocity": 119, "duration": 239}, {"note": 67, "velocity": 119, "duration": 240}, {"note": 69, "velocity": 114, "duration": 719}, {"note": 69, "velocity": 117, "duration": 239}, {"note": 69, "velocity": 114, "duration": 240}, {"note": 67, "velocity": 117, "duration": 239}, {"note": 67, "velocity": 117, "duration": 240}, {"note": 74, "velocity": 120, "duration": 480}, {"note": 69, "velocity": 119, "duration": 1199}, {"note": 69, "velocity": 117, "duration": 240}, {"note": 67, "velocity": 116, "duration": 240}, {"note": 71, "velocity": 120, "duration": 720}, {"note": 69, "velocity": 119, "duration": 239}, {"note": 69, "velocity": 117, "duration": 239}, {"note": 69, "velocity": 114, "duration": 239}, {"note": 69, "velocity": 116, "duration": 240}, {"note": 67, "velocity": 114, "duration": 240}, {"note": 71, "velocity": 117, "duration": 1440}, {"note": 67, "velocity": 119, "duration": 240}, {"note": 69, "velocity": 116, "duration": 240}, {"note": 71, "velocity": 119, "duration": 719}, {"note": 71, "velocity": 117, "duration": 239}, {"note": 71, "velocity": 114, "duration": 240}, {"note": 69, "velocity": 116, "duration": 240}, {"note": 67, "velocity": 116, "duration": 240}, {"note": 69, "velocity": 113, "duration": 240}, {"note": 71, "velocity": 116, "duration": 240}, {"note": 66, "velocity": 116, "duration": 119}, {"note": 66, "velocity": 116, "duration": 1080}, {"note": 67, "velocity": 120, "duration": 240}, {"note": 66, "velocity": 119, "duration": 240}, {"note": 64, "velocity": 119, "duration": 479}, {"note": 64, "velocity": 113, "duration": 120}, {"note": 76, "velocity": 114, "duration": 360}, {"note": 74, "velocity": 117, "duration": 480}, {"note": 71, "velocity": 120, "duration": 240}, {"note": 72, "velocity": 114, "duration": 240}, {"note": 71, "velocity": 119, "duration": 479}, {"note": 71, "velocity": 119, "duration": 240}, {"note": 74, "velocity": 113, "duration": 120}, {"note": 67, "velocity": 117, "duration": 599}, {"note": 67, "velocity": 114, "duration": 240}, {"note": 66, "velocity": 116, "duration": 240}, {"note": 64, "velocity": 114, "duration": 1200}, {"note": 67, "velocity": 117, "duration": 239}, {"note": 67, "velocity": 114, "duration": 240}, {"note": 66, "velocity": 116, "duration": 240}, {"note": 63, "velocity": 123, "duration": 960}, {"note": 67, "velocity": 117, "duration": 239}, {"note": 67, "velocity": 117, "duration": 239}, {"note": 67, "velocity": 119, "duration": 240}, {"note": 69, "velocity": 117, "duration": 239}, {"note": 69, "velocity": 119, "duration": 240}, {"note": 67, "velocity": 117, "duration": 119}, {"note": 67, "velocity": 117, "duration": 2519}, {"note": 67, "velocity": 119, "duration": 240}, {"note": 69, "velocity": 117, "duration": 239}, {"note": 69, "velocity": 119, "duration": 240}, {"note": 67, "velocity": 119, "duration": 240}, {"note": 71, "velocity": 119, "duration": 239}, {"note": 71, "velocity": 116, "duration": 240}, {"note": 72, "velocity": 113, "duration": 240}, {"note": 74, "velocity": 117, "duration": 240}, {"note": 72, "velocity": 116, "duration": 240}, {"note": 71, "velocity": 117, "duration": 240}, {"note": 69, "velocity": 117, "duration": 240}, {"note": 67, "velocity": 117, "duration": 240}, {"note": 69, "velocity": 116, "duration": 240}, {"note": 74, "velocity": 117, "duration": 239}, {"note": 74, "velocity": 119, "duration": 240}, {"note": 71, "velocity": 110, "duration": 120}, {"note": 74, "velocity": 117, "duration": 359}, {"note": 74, "velocity": 116, "duration": 240}, {"note": 76, "velocity": 116, "duration": 240}, {"note": 78, "velocity": 113, "duration": 240}, {"note": 79, "velocity": 116, "duration": 239}, {"note": 79, "velocity": 119, "duration": 239}, {"note": 79, "velocity": 116, "duration": 240}, {"note": 78, "velocity": 119, "duration": 240}, {"note": 76, "velocity": 113, "duration": 240}, {"note": 74, "velocity": 116, "duration": 239}, {"note": 74, "velocity": 113, "duration": 240}, {"note": 76, "velocity": 114, "duration": 480}, {"note": 71, "velocity": 117, "duration": 719}, {"note": 71, "velocity": 119, "duration": 240}, {"note": 74, "velocity": 119, "duration": 239}, {"note": 74, "velocity": 116, "duration": 240}, {"note": 71, "velocity": 119, "duration": 240}, {"note": 76, "velocity": 120, "duration": 239}, {"note": 76, "velocity": 110, "duration": 239}, {"note": 76, "velocity": 117, "duration": 240}, {"note": 74, "velocity": 117, "duration": 239}, {"note": 74, "velocity": 117, "duration": 240}, {"note": 67, "velocity": 117, "duration": 119}, {"note": 67, "velocity": 113, "duration": 600}, {"note": 71, "velocity": 116, "duration": 239}, {"note": 71, "velocity": 117, "duration": 240}, {"note": 72, "velocity": 116, "duration": 240}, {"note": 74, "velocity": 117, "duration": 240}, {"note": 67, "velocity": 117, "duration": 240}, {"note": 64, "velocity": 116, "duration": 239}, {"note": 64, "velocity": 116, "duration": 240}, {"note": 67, "velocity": 116, "duration": 240}, {"note": 71, "velocity": 120, "duration": 240}, {"note": 69, "velocity": 117, "duration": 239}, {"note": 69, "velocity": 116, "duration": 240}, {"note": 67, "velocity": 119, "duration": 239}, {"note": 67, "velocity": 117, "duration": 240}, {"note": 64, "velocity": 116, "duration": 239}, {"note": 64, "velocity": 117, "duration": 240}, {"note": 76, "velocity": 114, "duration": 480}, {"note": 69, "velocity": 119, "duration": 720}, {"note": 67, "velocity": 119, "duration": 240}, {"note": 69, "velocity": 117, "duration": 239}, {"note": 69, "velocity": 119, "duration": 240}, {"note": 67, "velocity": 119, "duration": 240}, {"note": 71, "velocity": 119, "duration": 239}, {"note": 71, "velocity": 116, "duration": 240}, {"note": 72, "velocity": 113, "duration": 240}, {"note": 74, "velocity": 117, "duration": 240}, {"note": 72, "velocity": 116, "duration": 240}, {"note": 71, "velocity": 117, "duration": 240}, {"note": 69, "velocity": 117, "duration": 240}, {"note": 67, "velocity": 117, "duration": 240}, {"note": 69, "velocity": 116, "duration": 240}, {"note": 74, "velocity": 117, "duration": 239}, {"note": 74, "velocity": 119, "duration": 240}, {"note": 71, "velocity": 110, "duration": 120}, {"note": 74, "velocity": 117, "duration": 359}, {"note": 74, "velocity": 116, "duration": 240}, {"note": 76, "velocity": 116, "duration": 240}, {"note": 78, "velocity": 113, "duration": 240}, {"note": 79, "velocity": 116, "duration": 239}, {"note": 79, "velocity": 119, "duration": 239}, {"note": 79, "velocity": 116, "duration": 240}, {"note": 78, "velocity": 119, "duration": 240}, {"note": 76, "velocity": 113, "duration": 240}, {"note": 74, "velocity": 116, "duration": 239}, {"note": 74, "velocity": 113, "duration": 240}, {"note": 76, "velocity": 114, "duration": 480}, {"note": 74, "velocity": 117, "duration": 720}, {"note": 71, "velocity": 119, "duration": 240}, {"note": 74, "velocity": 119, "duration": 239}, {"note": 74, "velocity": 116, "duration": 240}, {"note": 71, "velocity": 119, "duration": 240}, {"note": 76, "velocity": 120, "duration": 239}, {"note": 76, "velocity": 110, "duration": 240}, {"note": 74, "velocity": 117, "duration": 240}, {"note": 76, "velocity": 117, "duration": 480}, {"note": 67, "velocity": 117, "duration": 239}, {"note": 67, "velocity": 113, "duration": 240}, {"note": 74, "velocity": 114, "duration": 239}, {"note": 74, "velocity": 114, "duration": 240}, {"note": 71, "velocity": 114, "duration": 239}, {"note": 71, "velocity": 114, "duration": 240}, {"note": 69, "velocity": 114, "duration": 123}, {"note": 67, "velocity": 114, "duration": 359}, {"note": 67, "velocity": 114, "duration": 239}, {"note": 67, "velocity": 113, "duration": 240}, {"note": 69, "velocity": 113, "duration": 240}, {"note": 71, "velocity": 116, "duration": 240}, {"note": 69, "velocity": 117, "duration": 239}, {"note": 69, "velocity": 116, "duration": 240}, {"note": 67, "velocity": 116, "duration": 239}, {"note": 67, "velocity": 119, "duration": 240}, {"note": 64, "velocity": 108, "duration": 239}, {"note": 64, "velocity": 110, "duration": 142}, {"note": 67, "velocity": 108, "duration": 240}, {"note": 69, "velocity": 110, "duration": 1800}, {"note": 67, "velocity": 116, "duration": 760}, {"note": 0, "velocity": 0, "duration": 8600}, {"note": 69, "velocity": 117, "duration": 240}, {"note": 67, "velocity": 116, "duration": 240}, {"note": 71, "velocity": 120, "duration": 840}, {"note": 62, "velocity": 113, "duration": 120}, {"note": 69, "velocity": 119, "duration": 239}, {"note": 69, "velocity": 116, "duration": 239}, {"note": 69, "velocity": 116, "duration": 240}, {"note": 67, "velocity": 110, "duration": 120}, {"note": 71, "velocity": 119, "duration": 1560}, {"note": 67, "velocity": 119, "duration": 240}, {"note": 69, "velocity": 116, "duration": 240}, {"note": 71, "velocity": 119, "duration": 719}, {"note": 71, "velocity": 117, "duration": 239}, {"note": 71, "velocity": 114, "duration": 240}, {"note": 69, "velocity": 116, "duration": 240}, {"note": 67, "velocity": 116, "duration": 240}, {"note": 69, "velocity": 113, "duration": 240}, {"note": 71, "velocity": 116, "duration": 240}, {"note": 66, "velocity": 116, "duration": 119}, {"note": 66, "velocity": 116, "duration": 1080}, {"note": 67, "velocity": 120, "duration": 240}, {"note": 66, "velocity": 119, "duration": 240}, {"note": 64, "velocity": 119, "duration": 479}, {"note": 64, "velocity": 113, "duration": 120}, {"note": 76, "velocity": 114, "duration": 360}, {"note": 74, "velocity": 117, "duration": 480}, {"note": 71, "velocity": 120, "duration": 240}, {"note": 72, "velocity": 114, "duration": 240}, {"note": 71, "velocity": 119, "duration": 479}, {"note": 71, "velocity": 119, "duration": 240}, {"note": 74, "velocity": 113, "duration": 120}, {"note": 67, "velocity": 117, "duration": 599}, {"note": 67, "velocity": 114, "duration": 240}, {"note": 66, "velocity": 116, "duration": 240}, {"note": 64, "velocity": 114, "duration": 1200}, {"note": 67, "velocity": 117, "duration": 239}, {"note": 67, "velocity": 114, "duration": 240}, {"note": 66, "velocity": 116, "duration": 240}, {"note": 63, "velocity": 123, "duration": 960}, {"note": 67, "velocity": 117, "duration": 239}, {"note": 67, "velocity": 117, "duration": 239}, {"note": 67, "velocity": 119, "duration": 240}, {"note": 69, "velocity": 117, "duration": 239}, {"note": 69, "velocity": 119, "duration": 240}, {"note": 67, "velocity": 117, "duration": 119}, {"note": 67, "velocity": 117, "duration": 2519}, {"note": 67, "velocity": 119, "duration": 240}, {"note": 69, "velocity": 117, "duration": 239}, {"note": 69, "velocity": 119, "duration": 240}, {"note": 67, "velocity": 119, "duration": 240}, {"note": 71, "velocity": 119, "duration": 239}, {"note": 71, "velocity": 116, "duration": 240}, {"note": 72, "velocity": 113, "duration": 240}, {"note": 74, "velocity": 117, "duration": 240}, {"note": 72, "velocity": 116, "duration": 240}, {"note": 71, "velocity": 117, "duration": 240}, {"note": 69, "velocity": 117, "duration": 240}, {"note": 67, "velocity": 117, "duration": 240}, {"note": 69, "velocity": 116, "duration": 240}, {"note": 74, "velocity": 117, "duration": 239}, {"note": 74, "velocity": 119, "duration": 240}, {"note": 71, "velocity": 110, "duration": 120}, {"note": 74, "velocity": 117, "duration": 359}, {"note": 74, "velocity": 116, "duration": 240}, {"note": 76, "velocity": 116, "duration": 240}, {"note": 78, "velocity": 113, "duration": 240}, {"note": 79, "velocity": 116, "duration": 239}, {"note": 79, "velocity": 119, "duration": 239}, {"note": 79, "velocity": 116, "duration": 240}, {"note": 78, "velocity": 119, "duration": 240}, {"note": 76, "velocity": 113, "duration": 240}, {"note": 74, "velocity": 116, "duration": 239}, {"note": 74, "velocity": 113, "duration": 240}, {"note": 76, "velocity": 114, "duration": 480}, {"note": 71, "velocity": 117, "duration": 719}, {"note": 71, "velocity": 119, "duration": 240}, {"note": 74, "velocity": 119, "duration": 239}, {"note": 74, "velocity": 116, "duration": 240}, {"note": 71, "velocity": 119, "duration": 240}, {"note": 76, "velocity": 120, "duration": 239}, {"note": 76, "velocity": 110, "duration": 239}, {"note": 76, "velocity": 117, "duration": 240}, {"note": 74, "velocity": 117, "duration": 239}, {"note": 74, "velocity": 117, "duration": 240}, {"note": 67, "velocity": 117, "duration": 119}, {"note": 67, "velocity": 113, "duration": 600}, {"note": 71, "velocity": 116, "duration": 239}, {"note": 71, "velocity": 117, "duration": 240}, {"note": 72, "velocity": 116, "duration": 240}, {"note": 74, "velocity": 117, "duration": 240}, {"note": 67, "velocity": 117, "duration": 240}, {"note": 64, "velocity": 116, "duration": 239}, {"note": 64, "velocity": 116, "duration": 240}, {"note": 67, "velocity": 116, "duration": 240}, {"note": 71, "velocity": 120, "duration": 240}, {"note": 69, "velocity": 117, "duration": 239}, {"note": 69, "velocity": 116, "duration": 240}, {"note": 67, "velocity": 119, "duration": 239}, {"note": 67, "velocity": 117, "duration": 240}, {"note": 64, "velocity": 116, "duration": 239}, {"note": 64, "velocity": 117, "duration": 240}, {"note": 76, "velocity": 114, "duration": 480}, {"note": 69, "velocity": 119, "duration": 720}, {"note": 67, "velocity": 119, "duration": 240}, {"note": 69, "velocity": 117, "duration": 239}, {"note": 69, "velocity": 119, "duration": 240}, {"note": 67, "velocity": 119, "duration": 240}, {"note": 71, "velocity": 119, "duration": 239}, {"note": 71, "velocity": 116, "duration": 240}, {"note": 72, "velocity": 113, "duration": 240}, {"note": 74, "velocity": 117, "duration": 240}, {"note": 72, "velocity": 116, "duration": 240}, {"note": 71, "velocity": 117, "duration": 240}, {"note": 69, "velocity": 117, "duration": 240}, {"note": 67, "velocity": 117, "duration": 240}, {"note": 69, "velocity": 116, "duration": 240}, {"note": 74, "velocity": 117, "duration": 239}, {"note": 74, "velocity": 119, "duration": 240}, {"note": 71, "velocity": 110, "duration": 120}, {"note": 74, "velocity": 117, "duration": 359}, {"note": 74, "velocity": 116, "duration": 240}, {"note": 76, "velocity": 116, "duration": 240}, {"note": 78, "velocity": 113, "duration": 240}, {"note": 79, "velocity": 116, "duration": 239}, {"note": 79, "velocity": 119, "duration": 239}, {"note": 79, "velocity": 116, "duration": 240}, {"note": 78, "velocity": 119, "duration": 240}, {"note": 76, "velocity": 113, "duration": 240}, {"note": 74, "velocity": 116, "duration": 239}, {"note": 74, "velocity": 113, "duration": 240}, {"note": 76, "velocity": 114, "duration": 480}, {"note": 74, "velocity": 117, "duration": 720}, {"note": 71, "velocity": 119, "duration": 240}, {"note": 74, "velocity": 119, "duration": 239}, {"note": 74, "velocity": 116, "duration": 240}, {"note": 71, "velocity": 119, "duration": 240}, {"note": 76, "velocity": 120, "duration": 239}, {"note": 76, "velocity": 110, "duration": 240}, {"note": 74, "velocity": 117, "duration": 240}, {"note": 76, "velocity": 117, "duration": 480}, {"note": 67, "velocity": 117, "duration": 239}, {"note": 67, "velocity": 113, "duration": 240}, {"note": 74, "velocity": 114, "duration": 239}, {"note": 74, "velocity": 114, "duration": 240}, {"note": 71, "velocity": 114, "duration": 239}, {"note": 71, "velocity": 114, "duration": 240}, {"note": 69, "velocity": 114, "duration": 123}, {"note": 67, "velocity": 114, "duration": 359}, {"note": 67, "velocity": 114, "duration": 239}, {"note": 67, "velocity": 113, "duration": 240}, {"note": 69, "velocity": 113, "duration": 240}, {"note": 71, "velocity": 116, "duration": 240}, {"note": 69, "velocity": 117, "duration": 239}, {"note": 69, "velocity": 116, "duration": 240}, {"note": 67, "velocity": 116, "duration": 239}, {"note": 67, "velocity": 119, "duration": 240}, {"note": 64, "velocity": 108, "duration": 239}, {"note": 64, "velocity": 110, "duration": 142}, {"note": 67, "velocity": 108, "duration": 240}, {"note": 69, "velocity": 110, "duration": 1800}, {"note": 67, "velocity": 116, "duration": 2160}]]