[[{"note": 61, "velocity": 90, "duration": 119}, {"note": 61, "velocity": 89, "duration": 120}, {"note": 63, "velocity": 96, "duration": 119}, {"note": 63, "velocity": 110, "duration": 151}, {"note": 65, "velocity": 92, "duration": 239}, {"note": 65, "velocity": 102, "duration": 959}, {"note": 65, "velocity": 91, "duration": 119}, {"note": 65, "velocity": 102, "duration": 146}, {"note": 63, "velocity": 86, "duration": 240}, {"note": 65, "velocity": 94, "duration": 120}, {"note": 63, "velocity": 104, "duration": 360}, {"note": 61, "velocity": 108, "duration": 959}, {"note": 61, "velocity": 98, "duration": 119}, {"note": 61, "velocity": 100, "duration": 120}, {"note": 63, "velocity": 96, "duration": 120}, {"note": 65, "velocity": 96, "duration": 120}, {"note": 68, "velocity": 102, "duration": 120}, {"note": 70, "velocity": 110, "duration": 240}, {"note": 68, "velocity": 104, "duration": 120}, {"note": 70, "velocity": 108, "duration": 839}, {"note": 70, "velocity": 113, "duration": 119}, {"note": 70, "velocity": 108, "duration": 119}, {"note": 70, "velocity": 110, "duration": 119}, {"note": 70, "velocity": 113, "duration": 240}, {"note": 65, "velocity": 104, "duration": 120}, {"note": 68, "velocity": 113, "duration": 120}, {"note": 70, "velocity": 91, "duration": 121}, {"note": 68, "velocity": 89, "duration": 1080}, {"note": 61, "velocity": 94, "duration": 119}, {"note": 61, "velocity": 96, "duration": 120}, {"note": 63, "velocity": 96, "duration": 120}, {"note": 65, "velocity": 100, "duration": 120}, {"note": 68, "velocity": 100, "duration": 120}, {"note": 70, "velocity": 114, "duration": 240}, {"note": 68, "velocity": 107, "duration": 120}, {"note": 70, "velocity": 113, "duration": 839}, {"note": 70, "velocity": 108, "duration": 119}, {"note": 70, "velocity": 108, "duration": 119}, {"note": 70, "velocity": 107, "duration": 240}, {"note": 65, "velocity": 110, "duration": 240}, {"note": 68, "velocity": 113, "duration": 240}, {"note": 65, "velocity": 98, "duration": 240}, {"note": 68, "velocity": 107, "duration": 240}, {"note": 70, "velocity": 108, "duration": 120}, {"note": 65, "velocity": 104, "duration": 599}, {"note": 65, "velocity": 108, "duration": 119}, {"note": 65, "velocity": 102, "duration": 240}, {"note": 61, "velocity": 90, "duration": 120}, {"note": 65, "velocity": 107, "duration": 240}, {"note": 63, "velocity": 104, "duration": 1200}, {"note": 65, "velocity": 104, "duration": 119}, {"note": 65, "velocity": 100, "duration": 240}, {"note": 61, "velocity": 91, "duration": 120}, {"note": 58, "velocity": 96, "duration": 240}, {"note": 65, "velocity": 98, "duration": 130}, {"note": 63, "velocity": 90, "duration": 1200}, {"note": 61, "velocity": 90, "duration": 119}, {"note": 61, "velocity": 89, "duration": 120}, {"note": 63, "velocity": 96, "duration": 119}, {"note": 63, "velocity": 110, "duration": 151}, {"note": 65, "velocity": 92, "duration": 239}, {"note": 65, "velocity": 102, "duration": 839}, {"note": 65, "velocity": 91, "duration": 119}, {"note": 65, "velocity": 91, "duration": 119}, {"note": 65, "velocity": 102, "duration": 146}, {"note": 63, "velocity": 86, "duration": 240}, {"note": 65, "velocity": 94, "duration": 120}, {"note": 63, "velocity": 104, "duration": 360}, {"note": 61, "velocity": 108, "duration": 959}, {"note": 61, "velocity": 98, "duration": 119}, {"note": 61, "velocity": 100, "duration": 120}, {"note": 63, "velocity": 96, "duration": 120}, {"note": 65, "velocity": 96, "duration": 120}, {"note": 68, "velocity": 102, "duration": 120}, {"note": 70, "velocity": 110, "duration": 240}, {"note": 68, "velocity": 104, "duration": 120}, {"note": 70, "velocity": 108, "duration": 839}, {"note": 70, "velocity": 113, "duration": 119}, {"note": 70, "velocity": 108, "duration": 119}, {"note": 70, "velocity": 110, "duration": 119}, {"note": 70, "velocity": 113, "duration": 240}, {"note": 65, "velocity": 104, "duration": 120}, {"note": 68, "velocity": 113, "duration": 120}, {"note": 70, "velocity": 91, "duration": 121}, {"note": 68, "velocity": 89, "duration": 1080}, {"note": 61, "velocity": 94, "duration": 119}, {"note": 61, "velocity": 96, "duration": 120}, {"note": 63, "velocity": 96, "duration": 120}, {"note": 65, "velocity": 100, "duration": 120}, {"note": 68, "velocity": 100, "duration": 120}, {"note": 70, "velocity": 114, "duration": 240}, {"note": 68, "velocity": 107, "duration": 120}, {"note": 70, "velocity": 113, "duration": 240}, {"note": 77, "velocity": 113, "duration": 600}, {"note": 70, "velocity": 108, "duration": 119}, {"note": 70, "velocity": 108, "duration": 119}, {"note": 70, "velocity": 107, "duration": 239}, {"note": 70, "velocity": 110, "duration": 122}, {"note": 65, "velocity": 110, "duration": 122}, {"note": 68, "velocity": 113, "duration": 240}, {"note": 65, "velocity": 98, "duration": 240}, {"note": 68, "velocity": 107, "duration": 130}, {"note": 70, "velocity": 108, "duration": 240}, {"note": 65, "velocity": 104, "duration": 600}, {"note": 58, "velocity": 108, "duration": 120}, {"note": 65, "velocity": 102, "duration": 239}, {"note": 65, "velocity": 90, "duration": 119}, {"note": 65, "velocity": 107, "duration": 179}, {"note": 63, "velocity": 104, "duration": 359}, {"note": 63, "velocity": 104, "duration": 253}, {"note": 61, "velocity": 104, "duration": 137}, {"note": 63, "velocity": 104, "duration": 600}, {"note": 65, "velocity": 104, "duration": 240}, {"note": 58, "velocity": 91, "duration": 120}, {"note": 63, "velocity": 96, "duration": 240}, {"note": 61, "velocity": 98, "duration": 1320}, {"note": 73, "velocity": 119, "duration": 240}, {"note": 75, "velocity": 117, "duration": 240}, {"note": 77, "velocity": 120, "duration": 120}, {"note": 73, "velocity": 116, "duration": 119}, {"note": 73, "velocity": 116, "duration": 120}, {"note": 70, "velocity": 116, "duration": 119}, {"note": 70, "velocity": 117, "duration": 120}, {"note": 66, "velocity": 110, "duration": 119}, {"note": 66, "velocity": 110, "duration": 120}, {"note": 77, "velocity": 113, "duration": 119}, {"note": 77, "velocity": 116, "duration": 120}, {"note": 78, "velocity": 114, "duration": 120}, {"note": 77, "velocity": 113, "duration": 120}, {"note": 75, "velocity": 116, "duration": 599}, {"note": 75, "velocity": 114, "duration": 120}, {"note": 72, "velocity": 113, "duration": 119}, {"note": 72, "velocity": 113, "duration": 120}, {"note": 68, "velocity": 114, "duration": 119}, {"note": 68, "velocity": 114, "duration": 120}, {"note": 65, "velocity": 108, "duration": 119}, {"note": 65, "velocity": 110, "duration": 120}, {"note": 75, "velocity": 113, "duration": 119}, {"note": 75, "velocity": 116, "duration": 120}, {"note": 73, "velocity": 104, "duration": 120}, {"note": 72, "velocity": 108, "duration": 120}, {"note": 73, "velocity": 117, "duration": 359}, {"note": 73, "velocity": 114, "duration": 120}, {"note": 75, "velocity": 113, "duration": 120}, {"note": 82, "velocity": 116, "duration": 240}, {"note": 77, "velocity": 113, "duration": 119}, {"note": 77, "velocity": 110, "duration": 120}, {"note": 75, "velocity": 113, "duration": 480}, {"note": 70, "velocity": 117, "duration": 240}, {"note": 72, "velocity": 107, "duration": 135}, {"note": 73, "velocity": 110, "duration": 240}, {"note": 75, "velocity": 116, "duration": 240}, {"note": 77, "velocity": 119, "duration": 1560}, {"note": 73, "velocity": 119, "duration": 240}, {"note": 75, "velocity": 117, "duration": 240}, {"note": 77, "velocity": 120, "duration": 120}, {"note": 73, "velocity": 116, "duration": 119}, {"note": 73, "velocity": 116, "duration": 120}, {"note": 70, "velocity": 116, "duration": 119}, {"note": 70, "velocity": 117, "duration": 120}, {"note": 66, "velocity": 110, "duration": 119}, {"note": 66, "velocity": 110, "duration": 120}, {"note": 77, "velocity": 113, "duration": 119}, {"note": 77, "velocity": 116, "duration": 120}, {"note": 78, "velocity": 114, "duration": 120}, {"note": 77, "velocity": 113, "duration": 120}, {"note": 75, "velocity": 116, "duration": 599}, {"note": 75, "velocity": 114, "duration": 120}, {"note": 72, "velocity": 113, "duration": 119}, {"note": 72, "velocity": 113, "duration": 120}, {"note": 68, "velocity": 114, "duration": 119}, {"note": 68, "velocity": 114, "duration": 120}, {"note": 65, "velocity": 108, "duration": 119}, {"note": 65, "velocity": 110, "duration": 120}, {"note": 75, "velocity": 113, "duration": 119}, {"note": 75, "velocity": 116, "duration": 120}, {"note": 73, "velocity": 104, "duration": 120}, {"note": 72, "velocity": 108, "duration": 120}, {"note": 73, "velocity": 117, "duration": 359}, {"note": 73, "velocity": 113, "duration": 120}, {"note": 65, "velocity": 113, "duration": 120}, {"note": 66, "velocity": 114, "duration": 240}, {"note": 73, "velocity": 114, "duration": 119}, {"note": 73, "velocity": 117, "duration": 599}, {"note": 73, "velocity": 114, "duration": 240}, {"note": 72, "velocity": 107, "duration": 240}, {"note": 70, "velocity": 113, "duration": 240}, {"note": 72, "velocity": 110, "duration": 258}, {"note": 73, "velocity": 113, "duration": 299}, {"note": 0, "velocity": 0, "duration": 8941}, {"note": 61, "velocity": 90, "duration": 119}, {"note": 61, "velocity": 89, "duration": 120}, {"note": 63, "velocity": 96, "duration": 119}, {"note": 63, "velocity": 110, "duration": 151}, {"note": 65, "velocity": 92, "duration": 239}, {"note": 65, "velocity": 102, "duration": 839}, {"note": 65, "velocity": 91, "duration": 119}, {"note": 65, "velocity": 91, "duration": 119}, {"note": 65, "velocity": 102, "duration": 146}, {"note": 63, "velocity": 86, "duration": 240}, {"note": 65, "velocity": 94, "duration": 120}, {"note": 63, "velocity": 104, "duration": 163}, {"note": 61, "velocity": 108, "duration": 1199}, {"note": 61, "velocity": 98, "duration": 119}, {"note": 61, "velocity": 100, "duration": 120}, {"note": 63, "velocity": 96, "duration": 120}, {"note": 65, "velocity": 96, "duration": 120}, {"note": 68, "velocity": 102, "duration": 120}, {"note": 70, "velocity": 110, "duration": 240}, {"note": 68, "velocity": 104, "duration": 120}, {"note": 70, "velocity": 108, "duration": 839}, {"note": 70, "velocity": 113, "duration": 119}, {"note": 70, "velocity": 108, "duration": 119}, {"note": 70, "velocity": 110, "duration": 119}, {"note": 70, "velocity": 113, "duration": 240}, {"note": 65, "velocity": 104, "duration": 120}, {"note": 68, "velocity": 113, "duration": 120}, {"note": 70, "velocity": 91, "duration": 121}, {"note": 68, "velocity": 89, "duration": 1080}, {"note": 61, "velocity": 94, "duration": 119}, {"note": 61, "velocity": 96, "duration": 120}, {"note": 63, "velocity": 96, "duration": 120}, {"note": 65, "velocity": 100, "duration": 120}, {"note": 68, "velocity": 100, "duration": 120}, {"note": 70, "velocity": 114, "duration": 240}, {"note": 68, "velocity": 107, "duration": 120}, {"note": 70, "velocity": 113, "duration": 240}, {"note": 77, "velocity": 113, "duration": 600}, {"note": 70, "velocity": 108, "duration": 119}, {"note": 70, "velocity": 108, "duration": 119}, {"note": 70, "velocity": 107, "duration": 239}, {"note": 70, "velocity": 110, "duration": 122}, {"note": 65, "velocity": 110, "duration": 122}, {"note": 68, "velocity": 113, "duration": 240}, {"note": 65, "velocity": 98, "duration": 240}, {"note": 68, "velocity": 107, "duration": 130}, {"note": 70, "velocity": 108, "duration": 240}, {"note": 65, "velocity": 104, "duration": 600}, {"note": 58, "velocity": 108, "duration": 120}, {"note": 65, "velocity": 102, "duration": 239}, {"note": 65, "velocity": 90, "duration": 119}, {"note": 65, "velocity": 107, "duration": 179}, {"note": 63, "velocity": 104, "duration": 359}, {"note": 63, "velocity": 104, "duration": 253}, {"note": 61, "velocity": 104, "duration": 137}, {"note": 63, "velocity": 104, "duration": 600}, {"note": 65, "velocity": 104, "duration": 240}, {"note": 58, "velocity": 91, "duration": 120}, {"note": 63, "velocity": 96, "duration": 240}, {"note": 61, "velocity": 98, "duration": 840}, {"note": 0, "velocity": 0, "duration": 480}, {"note": 73, "velocity": 119, "duration": 240}, {"note": 75, "velocity": 117, "duration": 240}, {"note": 77, "velocity": 120, "duration": 120}, {"note": 73, "velocity": 116, "duration": 119}, {"note": 73, "velocity": 116, "duration": 120}, {"note": 70, "velocity": 116, "duration": 119}, {"note": 70, "velocity": 117, "duration": 120}, {"note": 66, "velocity": 110, "duration": 119}, {"note": 66, "velocity": 110, "duration": 120}, {"note": 77, "velocity": 113, "duration": 119}, {"note": 77, "velocity": 116, "duration": 120}, {"note": 78, "velocity": 114, "duration": 120}, {"note": 77, "velocity": 113, "duration": 120}, {"note": 75, "velocity": 116, "duration": 599}, {"note": 75, "velocity": 114, "duration": 120}, {"note": 72, "velocity": 113, "duration": 119}, {"note": 72, "velocity": 113, "duration": 120}, {"note": 68, "velocity": 114, "duration": 119}, {"note": 68, "velocity": 114, "duration": 120}, {"note": 65, "velocity": 108, "duration": 119}, {"note": 65, "velocity": 110, "duration": 120}, {"note": 75, "velocity": 113, "duration": 119}, {"note": 75, "velocity": 116, "duration": 120}, {"note": 73, "velocity": 104, "duration": 120}, {"note": 72, "velocity": 108, "duration": 120}, {"note": 73, "velocity": 117, "duration": 359}, {"note": 73, "velocity": 114, "duration": 120}, {"note": 75, "velocity": 113, "duration": 120}, {"note": 82, "velocity": 116, "duration": 240}, {"note": 77, "velocity": 113, "duration": 119}, {"note": 77, "velocity": 110, "duration": 120}, {"note": 75, "velocity": 113, "duration": 480}, {"note": 70, "velocity": 117, "duration": 240}, {"note": 72, "velocity": 107, "duration": 135}, {"note": 73, "velocity": 110, "duration": 240}, {"note": 75, "velocity": 116, "duration": 240}, {"note": 77, "velocity": 119, "duration": 1560}, {"note": 73, "velocity": 119, "duration": 240}, {"note": 75, "velocity": 117, "duration": 240}, {"note": 77, "velocity": 120, "duration": 120}, {"note": 73, "velocity": 116, "duration": 119}, {"note": 73, "velocity": 116, "duration": 120}, {"note": 70, "velocity": 116, "duration": 119}, {"note": 70, "velocity": 117, "duration": 120}, {"note": 66, "velocity": 110, "duration": 119}, {"note": 66, "velocity": 110, "duration": 120}, {"note": 77, "velocity": 113, "duration": 119}, {"note": 77, "velocity": 116, "duration": 120}, {"note": 78, "velocity": 114, "duration": 120}, {"note": 77, "velocity": 113, "duration": 120}, {"note": 75, "velocity": 116, "duration": 599}, {"note": 75, "velocity": 114, "duration": 120}, {"note": 72, "velocity": 113, "duration": 119}, {"note": 72, "velocity": 113, "duration": 120}, {"note": 68, "velocity": 114, "duration": 119}, {"note": 68, "velocity": 114, "duration": 120}, {"note": 65, "velocity": 108, "duration": 119}, {"note": 65, "velocity": 110, "duration": 120}, {"note": 75, "velocity": 113, "duration": 119}, {"note": 75, "velocity": 116, "duration": 120}, {"note": 73, "velocity": 104, "duration": 120}, {"note": 72, "velocity": 108, "duration": 120}, {"note": 73, "velocity": 117, "duration": 359}, {"note": 73, "velocity": 113, "duration": 120}, {"note": 65, "velocity": 113, "duration": 120}, {"note": 66, "velocity": 114, "duration": 240}, {"note": 73, "velocity": 114, "duration": 119}, {"note": 73, "velocity": 117, "duration": 599}, {"note": 73, "velocity": 114, "duration": 240}, {"note": 72, "velocity": 107, "duration": 240}, {"note": 70, "velocity": 113, "duration": 240}, {"note": 72, "velocity": 110, "duration": 137}, {"note": 73, "velocity": 113, "duration": 419}, {"note": 0, "velocity": 0, "duration": 1141}, {"note": 73, "velocity": 119, "duration": 240}, {"note": 75, "velocity": 117, "duration": 240}, {"note": 77, "velocity": 120, "duration": 120}, {"note": 73, "velocity": 116, "duration": 119}, {"note": 73, "velocity": 116, "duration": 120}, {"note": 70, "velocity": 116, "duration": 119}, {"note": 70, "velocity": 117, "duration": 120}, {"note": 66, "velocity": 110, "duration": 119}, {"note": 66, "velocity": 110, "duration": 120}, {"note": 77, "velocity": 113, "duration": 119}, {"note": 77, "velocity": 116, "duration": 120}, {"note": 78, "velocity": 114, "duration": 120}, {"note": 77, "velocity": 113, "duration": 120}, {"note": 75, "velocity": 116, "duration": 600}, {"note": 0, "velocity": 0, "duration": 960}, {"note": 75, "velocity": 114, "duration": 120}, {"note": 72, "velocity": 113, "duration": 119}, {"note": 72, "velocity": 113, "duration": 120}, {"note": 68, "velocity": 114, "duration": 119}, {"note": 68, "velocity": 114, "duration": 120}, {"note": 65, "velocity": 108, "duration": 119}, {"note": 65, "velocity": 110, "duration": 120}, {"note": 75, "velocity": 113, "duration": 119}, {"note": 75, "velocity": 116, "duration": 120}, {"note": 73, "velocity": 104, "duration": 120}, {"note": 72, "velocity": 108, "duration": 120}, {"note": 73, "velocity": 117, "duration": 359}, {"note": 73, "velocity": 114, "duration": 120}, {"note": 75, "velocity": 113, "duration": 120}, {"note": 82, "velocity": 116, "duration": 240}, {"note": 77, "velocity": 113, "duration": 119}, {"note": 77, "velocity": 110, "duration": 120}, {"note": 75, "velocity": 113, "duration": 480}, {"note": 70, "velocity": 117, "duration": 240}, {"note": 72, "velocity": 107, "duration": 135}, {"note": 73, "velocity": 110, "duration": 240}, {"note": 80, "velocity": 116, "duration": 239}, {"note": 80, "velocity": 119, "duration": 240}, {"note": 75, "velocity": 119, "duration": 120}, {"note": 77, "velocity": 119, "duration": 1200}, {"note": 73, "velocity": 119, "duration": 240}, {"note": 75, "velocity": 117, "duration": 240}, {"note": 77, "velocity": 120, "duration": 120}, {"note": 73, "velocity": 116, "duration": 119}, {"note": 73, "velocity": 116, "duration": 120}, {"note": 70, "velocity": 116, "duration": 119}, {"note": 70, "velocity": 117, "duration": 120}, {"note": 66, "velocity": 110, "duration": 119}, {"note": 66, "velocity": 110, "duration": 120}, {"note": 77, "velocity": 113, "duration": 119}, {"note": 77, "velocity": 116, "duration": 120}, {"note": 78, "velocity": 114, "duration": 120}, {"note": 77, "velocity": 113, "duration": 120}, {"note": 75, "velocity": 116, "duration": 599}, {"note": 75, "velocity": 114, "duration": 120}, {"note": 72, "velocity": 113, "duration": 119}, {"note": 72, "velocity": 113, "duration": 120}, {"note": 68, "velocity": 114, "duration": 119}, {"note": 68, "velocity": 114, "duration": 120}, {"note": 65, "velocity": 108, "duration": 119}, {"note": 65, "velocity": 110, "duration": 120}, {"note": 75, "velocity": 113, "duration": 119}, {"note": 75, "velocity": 116, "duration": 120}, {"note": 73, "velocity": 104, "duration": 120}, {"note": 72, "velocity": 108, "duration": 120}, {"note": 73, "velocity": 117, "duration": 359}, {"note": 73, "velocity": 113, "duration": 120}, {"note": 65, "velocity": 113, "duration": 120}, {"note": 66, "velocity": 114, "duration": 240}, {"note": 73, "velocity": 114, "duration": 119}, {"note": 73, "velocity": 117, "duration": 599}, {"note": 73, "velocity": 114, "duration": 240}, {"note": 72, "velocity": 107, "duration": 240}, {"note": 70, "velocity": 113, "duration": 480}, {"note": 72, "velocity": 110, "duration": 240}, {"note": 73, "velocity": 113, "duration": 720}]]