[[{"note": 78, "velocity": 119, "duration": 239}, {"note": 78, "velocity": 113, "duration": 120}, {"note": 76, "velocity": 106, "duration": 239}, {"note": 76, "velocity": 104, "duration": 839}, {"note": 76, "velocity": 104, "duration": 119}, {"note": 76, "velocity": 96, "duration": 240}, {"note": 78, "velocity": 97, "duration": 120}, {"note": 74, "velocity": 96, "duration": 141}, {"note": 71, "velocity": 107, "duration": 1800}, {"note": 74, "velocity": 86, "duration": 239}, {"note": 74, "velocity": 90, "duration": 119}, {"note": 74, "velocity": 87, "duration": 119}, {"note": 74, "velocity": 91, "duration": 960}, {"note": 76, "velocity": 94, "duration": 167}, {"note": 74, "velocity": 93, "duration": 240}, {"note": 76, "velocity": 88, "duration": 119}, {"note": 76, "velocity": 91, "duration": 480}, {"note": 78, "velocity": 97, "duration": 480}, {"note": 0, "velocity": 0, "duration": 720}, {"note": 78, "velocity": 109, "duration": 120}, {"note": 81, "velocity": 110, "duration": 120}, {"note": 83, "velocity": 108, "duration": 119}, {"note": 83, "velocity": 102, "duration": 119}, {"note": 83, "velocity": 102, "duration": 119}, {"note": 83, "velocity": 102, "duration": 119}, {"note": 83, "velocity": 108, "duration": 120}, {"note": 81, "velocity": 91, "duration": 119}, {"note": 81, "velocity": 104, "duration": 240}, {"note": 76, "velocity": 114, "duration": 359}, {"note": 76, "velocity": 108, "duration": 120}, {"note": 74, "velocity": 91, "duration": 120}, {"note": 76, "velocity": 94, "duration": 120}, {"note": 74, "velocity": 102, "duration": 120}, {"note": 76, "velocity": 93, "duration": 120}, {"note": 81, "velocity": 117, "duration": 119}, {"note": 81, "velocity": 93, "duration": 119}, {"note": 81, "velocity": 110, "duration": 120}, {"note": 78, "velocity": 106, "duration": 120}, {"note": 81, "velocity": 116, "duration": 120}, {"note": 78, "velocity": 109, "duration": 120}, {"note": 76, "velocity": 95, "duration": 120}, {"note": 74, "velocity": 104, "duration": 119}, {"note": 74, "velocity": 90, "duration": 720}, {"note": 78, "velocity": 106, "duration": 120}, {"note": 81, "velocity": 98, "duration": 120}, {"note": 83, "velocity": 102, "duration": 119}, {"note": 83, "velocity": 93, "duration": 119}, {"note": 83, "velocity": 100, "duration": 120}, {"note": 81, "velocity": 102, "duration": 120}, {"note": 83, "velocity": 104, "duration": 239}, {"note": 83, "velocity": 113, "duration": 240}, {"note": 76, "velocity": 96, "duration": 480}, {"note": 74, "velocity": 104, "duration": 240}, {"note": 76, "velocity": 98, "duration": 120}, {"note": 78, "velocity": 113, "duration": 1799}, {"note": 78, "velocity": 116, "duration": 120}, {"note": 81, "velocity": 108, "duration": 120}, {"note": 83, "velocity": 107, "duration": 119}, {"note": 83, "velocity": 98, "duration": 119}, {"note": 83, "velocity": 102, "duration": 120}, {"note": 81, "velocity": 113, "duration": 120}, {"note": 83, "velocity": 107, "duration": 240}, {"note": 81, "velocity": 108, "duration": 240}, {"note": 76, "velocity": 110, "duration": 359}, {"note": 76, "velocity": 108, "duration": 120}, {"note": 74, "velocity": 104, "duration": 131}, {"note": 76, "velocity": 102, "duration": 120}, {"note": 74, "velocity": 104, "duration": 134}, {"note": 76, "velocity": 107, "duration": 120}, {"note": 78, "velocity": 116, "duration": 120}, {"note": 81, "velocity": 108, "duration": 119}, {"note": 81, "velocity": 108, "duration": 119}, {"note": 81, "velocity": 104, "duration": 119}, {"note": 81, "velocity": 116, "duration": 119}, {"note": 81, "velocity": 107, "duration": 120}, {"note": 86, "velocity": 113, "duration": 120}, {"note": 85, "velocity": 113, "duration": 240}, {"note": 83, "velocity": 108, "duration": 600}, {"note": 71, "velocity": 108, "duration": 134}, {"note": 74, "velocity": 107, "duration": 120}, {"note": 78, "velocity": 113, "duration": 120}, {"note": 76, "velocity": 110, "duration": 360}, {"note": 71, "velocity": 108, "duration": 121}, {"note": 74, "velocity": 93, "duration": 120}, {"note": 78, "velocity": 119, "duration": 119}, {"note": 78, "velocity": 113, "duration": 240}, {"note": 76, "velocity": 104, "duration": 240}, {"note": 78, "velocity": 113, "duration": 133}, {"note": 76, "velocity": 100, "duration": 120}, {"note": 74, "velocity": 104, "duration": 120}, {"note": 76, "velocity": 107, "duration": 240}, {"note": 74, "velocity": 108, "duration": 960}, {"note": 0, "velocity": 0, "duration": 16320}, {"note": 78, "velocity": 119, "duration": 239}, {"note": 78, "velocity": 113, "duration": 120}, {"note": 76, "velocity": 106, "duration": 239}, {"note": 76, "velocity": 104, "duration": 839}, {"note": 76, "velocity": 104, "duration": 119}, {"note": 76, "velocity": 96, "duration": 240}, {"note": 78, "velocity": 97, "duration": 120}, {"note": 74, "velocity": 96, "duration": 141}, {"note": 71, "velocity": 107, "duration": 1800}, {"note": 74, "velocity": 86, "duration": 239}, {"note": 74, "velocity": 90, "duration": 119}, {"note": 74, "velocity": 87, "duration": 119}, {"note": 74, "velocity": 91, "duration": 960}, {"note": 76, "velocity": 94, "duration": 167}, {"note": 74, "velocity": 93, "duration": 240}, {"note": 76, "velocity": 88, "duration": 119}, {"note": 76, "velocity": 91, "duration": 480}, {"note": 78, "velocity": 97, "duration": 1199}, {"note": 78, "velocity": 109, "duration": 120}, {"note": 81, "velocity": 110, "duration": 120}, {"note": 83, "velocity": 108, "duration": 119}, {"note": 83, "velocity": 102, "duration": 119}, {"note": 83, "velocity": 102, "duration": 119}, {"note": 83, "velocity": 102, "duration": 119}, {"note": 83, "velocity": 108, "duration": 120}, {"note": 81, "velocity": 91, "duration": 119}, {"note": 81, "velocity": 104, "duration": 240}, {"note": 76, "velocity": 114, "duration": 359}, {"note": 76, "velocity": 108, "duration": 120}, {"note": 74, "velocity": 91, "duration": 120}, {"note": 76, "velocity": 94, "duration": 120}, {"note": 74, "velocity": 102, "duration": 120}, {"note": 76, "velocity": 93, "duration": 120}, {"note": 81, "velocity": 117, "duration": 119}, {"note": 81, "velocity": 93, "duration": 119}, {"note": 81, "velocity": 110, "duration": 120}, {"note": 78, "velocity": 106, "duration": 120}, {"note": 81, "velocity": 116, "duration": 120}, {"note": 78, "velocity": 109, "duration": 120}, {"note": 76, "velocity": 95, "duration": 120}, {"note": 74, "velocity": 104, "duration": 119}, {"note": 74, "velocity": 90, "duration": 720}, {"note": 78, "velocity": 106, "duration": 120}, {"note": 81, "velocity": 98, "duration": 120}, {"note": 83, "velocity": 102, "duration": 119}, {"note": 83, "velocity": 93, "duration": 119}, {"note": 83, "velocity": 100, "duration": 120}, {"note": 81, "velocity": 102, "duration": 120}, {"note": 83, "velocity": 104, "duration": 239}, {"note": 83, "velocity": 113, "duration": 240}, {"note": 76, "velocity": 96, "duration": 480}, {"note": 74, "velocity": 104, "duration": 240}, {"note": 76, "velocity": 98, "duration": 120}, {"note": 78, "velocity": 113, "duration": 1799}, {"note": 78, "velocity": 116, "duration": 120}, {"note": 81, "velocity": 108, "duration": 120}, {"note": 83, "velocity": 107, "duration": 119}, {"note": 83, "velocity": 98, "duration": 119}, {"note": 83, "velocity": 102, "duration": 120}, {"note": 81, "velocity": 113, "duration": 120}, {"note": 83, "velocity": 107, "duration": 240}, {"note": 81, "velocity": 108, "duration": 240}, {"note": 76, "velocity": 110, "duration": 359}, {"note": 76, "velocity": 108, "duration": 120}, {"note": 74, "velocity": 104, "duration": 131}, {"note": 76, "velocity": 102, "duration": 120}, {"note": 74, "velocity": 104, "duration": 134}, {"note": 76, "velocity": 107, "duration": 120}, {"note": 78, "velocity": 116, "duration": 120}, {"note": 81, "velocity": 108, "duration": 119}, {"note": 81, "velocity": 108, "duration": 119}, {"note": 81, "velocity": 104, "duration": 119}, {"note": 81, "velocity": 116, "duration": 119}, {"note": 81, "velocity": 107, "duration": 120}, {"note": 86, "velocity": 113, "duration": 120}, {"note": 85, "velocity": 113, "duration": 240}, {"note": 83, "velocity": 108, "duration": 600}, {"note": 71, "velocity": 108, "duration": 134}, {"note": 74, "velocity": 107, "duration": 120}, {"note": 78, "velocity": 113, "duration": 120}, {"note": 76, "velocity": 110, "duration": 360}, {"note": 71, "velocity": 108, "duration": 121}, {"note": 74, "velocity": 93, "duration": 120}, {"note": 78, "velocity": 119, "duration": 119}, {"note": 78, "velocity": 113, "duration": 240}, {"note": 76, "velocity": 104, "duration": 240}, {"note": 78, "velocity": 113, "duration": 133}, {"note": 76, "velocity": 100, "duration": 120}, {"note": 74, "velocity": 104, "duration": 120}, {"note": 76, "velocity": 107, "duration": 240}, {"note": 74, "velocity": 108, "duration": 1920}, {"note": 81, "velocity": 113, "duration": 120}, {"note": 74, "velocity": 108, "duration": 239}, {"note": 74, "velocity": 114, "duration": 360}, {"note": 69, "velocity": 108, "duration": 119}, {"note": 69, "velocity": 113, "duration": 120}, {"note": 76, "velocity": 116, "duration": 119}, {"note": 76, "velocity": 116, "duration": 119}, {"note": 76, "velocity": 107, "duration": 120}, {"note": 74, "velocity": 104, "duration": 119}, {"note": 74, "velocity": 114, "duration": 239}, {"note": 74, "velocity": 117, "duration": 132}, {"note": 76, "velocity": 107, "duration": 120}, {"note": 78, "velocity": 116, "duration": 240}, {"note": 81, "velocity": 117, "duration": 480}, {"note": 83, "velocity": 117, "duration": 120}, {"note": 81, "velocity": 116, "duration": 240}, {"note": 78, "velocity": 113, "duration": 840}, {"note": 76, "velocity": 110, "duration": 240}, {"note": 78, "velocity": 116, "duration": 120}, {"note": 76, "velocity": 113, "duration": 240}, {"note": 74, "velocity": 117, "duration": 360}, {"note": 76, "velocity": 114, "duration": 119}, {"note": 76, "velocity": 108, "duration": 119}, {"note": 76, "velocity": 110, "duration": 120}, {"note": 74, "velocity": 116, "duration": 239}, {"note": 74, "velocity": 114, "duration": 120}, {"note": 78, "velocity": 106, "duration": 239}, {"note": 78, "velocity": 119, "duration": 1920}, {"note": 81, "velocity": 113, "duration": 120}, {"note": 74, "velocity": 108, "duration": 239}, {"note": 74, "velocity": 114, "duration": 360}, {"note": 69, "velocity": 108, "duration": 119}, {"note": 69, "velocity": 113, "duration": 120}, {"note": 76, "velocity": 116, "duration": 119}, {"note": 76, "velocity": 116, "duration": 239}, {"note": 76, "velocity": 104, "duration": 119}, {"note": 76, "velocity": 114, "duration": 120}, {"note": 74, "velocity": 117, "duration": 240}, {"note": 76, "velocity": 107, "duration": 120}, {"note": 78, "velocity": 116, "duration": 240}, {"note": 81, "velocity": 117, "duration": 239}, {"note": 81, "velocity": 116, "duration": 132}, {"note": 78, "velocity": 95, "duration": 240}, {"note": 85, "velocity": 119, "duration": 158}, {"note": 86, "velocity": 117, "duration": 959}, {"note": 86, "velocity": 117, "duration": 119}, {"note": 86, "velocity": 110, "duration": 120}, {"note": 83, "velocity": 110, "duration": 120}, {"note": 86, "velocity": 120, "duration": 359}, {"note": 86, "velocity": 117, "duration": 120}, {"note": 83, "velocity": 110, "duration": 120}, {"note": 86, "velocity": 120, "duration": 240}, {"note": 83, "velocity": 117, "duration": 240}, {"note": 81, "velocity": 119, "duration": 128}, {"note": 83, "velocity": 110, "duration": 239}, {"note": 83, "velocity": 117, "duration": 360}, {"note": 0, "velocity": 0, "duration": 1440}, {"note": 80, "velocity": 109, "duration": 120}, {"note": 83, "velocity": 110, "duration": 120}, {"note": 85, "velocity": 108, "duration": 119}, {"note": 85, "velocity": 102, "duration": 119}, {"note": 85, "velocity": 102, "duration": 119}, {"note": 85, "velocity": 102, "duration": 119}, {"note": 85, "velocity": 108, "duration": 120}, {"note": 83, "velocity": 91, "duration": 119}, {"note": 83, "velocity": 104, "duration": 240}, {"note": 78, "velocity": 114, "duration": 359}, {"note": 78, "velocity": 108, "duration": 120}, {"note": 76, "velocity": 91, "duration": 120}, {"note": 78, "velocity": 94, "duration": 120}, {"note": 76, "velocity": 102, "duration": 120}, {"note": 78, "velocity": 93, "duration": 120}, {"note": 83, "velocity": 117, "duration": 119}, {"note": 83, "velocity": 93, "duration": 119}, {"note": 83, "velocity": 110, "duration": 120}, {"note": 80, "velocity": 106, "duration": 120}, {"note": 83, "velocity": 116, "duration": 120}, {"note": 80, "velocity": 109, "duration": 120}, {"note": 78, "velocity": 95, "duration": 120}, {"note": 76, "velocity": 104, "duration": 119}, {"note": 76, "velocity": 90, "duration": 720}, {"note": 80, "velocity": 106, "duration": 120}, {"note": 83, "velocity": 98, "duration": 120}, {"note": 85, "velocity": 102, "duration": 119}, {"note": 85, "velocity": 93, "duration": 119}, {"note": 85, "velocity": 100, "duration": 120}, {"note": 83, "velocity": 102, "duration": 120}, {"note": 85, "velocity": 104, "duration": 239}, {"note": 85, "velocity": 113, "duration": 240}, {"note": 78, "velocity": 96, "duration": 480}, {"note": 76, "velocity": 104, "duration": 240}, {"note": 78, "velocity": 98, "duration": 120}, {"note": 80, "velocity": 113, "duration": 1799}, {"note": 80, "velocity": 116, "duration": 120}, {"note": 83, "velocity": 108, "duration": 120}, {"note": 85, "velocity": 107, "duration": 119}, {"note": 85, "velocity": 98, "duration": 119}, {"note": 85, "velocity": 102, "duration": 120}, {"note": 83, "velocity": 113, "duration": 120}, {"note": 85, "velocity": 107, "duration": 240}, {"note": 83, "velocity": 108, "duration": 240}, {"note": 78, "velocity": 110, "duration": 359}, {"note": 78, "velocity": 108, "duration": 120}, {"note": 76, "velocity": 104, "duration": 131}, {"note": 78, "velocity": 102, "duration": 120}, {"note": 76, "velocity": 104, "duration": 134}, {"note": 78, "velocity": 107, "duration": 120}, {"note": 80, "velocity": 116, "duration": 120}, {"note": 83, "velocity": 108, "duration": 119}, {"note": 83, "velocity": 108, "duration": 119}, {"note": 83, "velocity": 104, "duration": 119}, {"note": 83, "velocity": 116, "duration": 119}, {"note": 83, "velocity": 107, "duration": 120}, {"note": 88, "velocity": 113, "duration": 120}, {"note": 87, "velocity": 113, "duration": 240}, {"note": 85, "velocity": 108, "duration": 600}, {"note": 73, "velocity": 108, "duration": 134}, {"note": 76, "velocity": 107, "duration": 120}, {"note": 80, "velocity": 113, "duration": 120}, {"note": 78, "velocity": 110, "duration": 360}, {"note": 73, "velocity": 108, "duration": 121}, {"note": 76, "velocity": 93, "duration": 120}, {"note": 80, "velocity": 119, "duration": 119}, {"note": 80, "velocity": 113, "duration": 240}, {"note": 78, "velocity": 104, "duration": 240}, {"note": 80, "velocity": 113, "duration": 133}, {"note": 78, "velocity": 100, "duration": 120}, {"note": 76, "velocity": 104, "duration": 120}, {"note": 78, "velocity": 107, "duration": 240}, {"note": 76, "velocity": 108, "duration": 1374}, {"note": 0, "velocity": 0, "duration": 326}, {"note": 68, "velocity": 105, "duration": 66}, {"note": 68, "velocity": 104, "duration": 137}, {"note": 69, "velocity": 104, "duration": 72}, {"note": 69, "velocity": 102, "duration": 186}, {"note": 0, "velocity": 0, "duration": 83}, {"note": 69, "velocity": 102, "duration": 121}, {"note": 71, "velocity": 99, "duration": 170}, {"note": 68, "velocity": 96, "duration": 148}, {"note": 71, "velocity": 96, "duration": 66}, {"note": 0, "velocity": 0, "duration": 66}, {"note": 71, "velocity": 96, "duration": 289}, {"note": 71, "velocity": 96, "duration": 76}, {"note": 71, "velocity": 96, "duration": 125}, {"note": 64, "velocity": 94, "duration": 159}, {"note": 69, "velocity": 87, "duration": 321}, {"note": 68, "velocity": 79, "duration": 1306}]]