[[{"note": 64, "velocity": 113, "duration": 103}, {"note": 64, "velocity": 113, "duration": 114}, {"note": 67, "velocity": 110, "duration": 105}, {"note": 69, "velocity": 116, "duration": 147}, {"note": 67, "velocity": 110, "duration": 142}, {"note": 67, "velocity": 108, "duration": 107}, {"note": 67, "velocity": 116, "duration": 138}, {"note": 67, "velocity": 113, "duration": 144}, {"note": 64, "velocity": 110, "duration": 109}, {"note": 67, "velocity": 114, "duration": 114}, {"note": 0, "velocity": 0, "duration": 366}, {"note": 64, "velocity": 113, "duration": 85}, {"note": 0, "velocity": 0, "duration": 75}, {"note": 64, "velocity": 102, "duration": 124}, {"note": 67, "velocity": 108, "duration": 90}, {"note": 0, "velocity": 0, "duration": 70}, {"note": 71, "velocity": 119, "duration": 172}, {"note": 0, "velocity": 0, "duration": 148}, {"note": 69, "velocity": 116, "duration": 188}, {"note": 67, "velocity": 114, "duration": 153}, {"note": 64, "velocity": 110, "duration": 136}, {"note": 62, "velocity": 108, "duration": 146}, {"note": 64, "velocity": 116, "duration": 154}, {"note": 0, "velocity": 0, "duration": 326}, {"note": 64, "velocity": 116, "duration": 237}, {"note": 0, "velocity": 0, "duration": 83}, {"note": 62, "velocity": 110, "duration": 152}, {"note": 60, "velocity": 116, "duration": 155}, {"note": 0, "velocity": 0, "duration": 165}, {"note": 57, "velocity": 104, "duration": 70}, {"note": 0, "velocity": 0, "duration": 90}, {"note": 72, "velocity": 117, "duration": 161}, {"note": 0, "velocity": 0, "duration": 79}, {"note": 69, "velocity": 117, "duration": 149}, {"note": 0, "velocity": 0, "duration": 91}, {"note": 67, "velocity": 114, "duration": 145}, {"note": 69, "velocity": 110, "duration": 143}, {"note": 67, "velocity": 113, "duration": 179}, {"note": 64, "velocity": 117, "duration": 137}, {"note": 0, "velocity": 0, "duration": 183}, {"note": 64, "velocity": 110, "duration": 163}, {"note": 62, "velocity": 100, "duration": 146}, {"note": 60, "velocity": 102, "duration": 156}, {"note": 57, "velocity": 104, "duration": 138}, {"note": 60, "velocity": 113, "duration": 125}, {"note": 62, "velocity": 113, "duration": 111}, {"note": 64, "velocity": 116, "duration": 105}, {"note": 64, "velocity": 117, "duration": 177}, {"note": 0, "velocity": 0, "duration": 63}, {"note": 62, "velocity": 114, "duration": 142}, {"note": 0, "velocity": 0, "duration": 98}, {"note": 64, "velocity": 114, "duration": 79}, {"note": 0, "velocity": 0, "duration": 81}, {"note": 64, "velocity": 114, "duration": 120}, {"note": 67, "velocity": 113, "duration": 129}, {"note": 69, "velocity": 116, "duration": 138}, {"note": 67, "velocity": 114, "duration": 104}, {"note": 67, "velocity": 110, "duration": 103}, {"note": 67, "velocity": 113, "duration": 112}, {"note": 67, "velocity": 116, "duration": 134}, {"note": 64, "velocity": 110, "duration": 137}, {"note": 67, "velocity": 117, "duration": 143}, {"note": 0, "velocity": 0, "duration": 337}, {"note": 64, "velocity": 116, "duration": 90}, {"note": 0, "velocity": 0, "duration": 70}, {"note": 64, "velocity": 114, "duration": 94}, {"note": 0, "velocity": 0, "duration": 66}, {"note": 67, "velocity": 116, "duration": 77}, {"note": 0, "velocity": 0, "duration": 83}, {"note": 71, "velocity": 119, "duration": 83}, {"note": 0, "velocity": 0, "duration": 237}, {"note": 69, "velocity": 117, "duration": 81}, {"note": 0, "velocity": 0, "duration": 79}, {"note": 67, "velocity": 114, "duration": 100}, {"note": 64, "velocity": 116, "duration": 136}, {"note": 62, "velocity": 114, "duration": 130}, {"note": 64, "velocity": 116, "duration": 145}, {"note": 0, "velocity": 0, "duration": 335}, {"note": 64, "velocity": 117, "duration": 89}, {"note": 0, "velocity": 0, "duration": 71}, {"note": 64, "velocity": 116, "duration": 114}, {"note": 62, "velocity": 110, "duration": 115}, {"note": 60, "velocity": 116, "duration": 136}, {"note": 60, "velocity": 114, "duration": 170}, {"note": 57, "velocity": 110, "duration": 68}, {"note": 0, "velocity": 0, "duration": 92}, {"note": 72, "velocity": 110, "duration": 283}, {"note": 69, "velocity": 114, "duration": 142}, {"note": 67, "velocity": 116, "duration": 209}, {"note": 69, "velocity": 108, "duration": 144}, {"note": 67, "velocity": 107, "duration": 164}, {"note": 64, "velocity": 116, "duration": 135}, {"note": 0, "velocity": 0, "duration": 185}, {"note": 64, "velocity": 117, "duration": 147}, {"note": 62, "velocity": 107, "duration": 147}, {"note": 60, "velocity": 116, "duration": 158}, {"note": 57, "velocity": 110, "duration": 139}, {"note": 60, "velocity": 116, "duration": 126}, {"note": 62, "velocity": 114, "duration": 115}, {"note": 64, "velocity": 119, "duration": 120}, {"note": 62, "velocity": 117, "duration": 198}, {"note": 60, "velocity": 116, "duration": 137}, {"note": 0, "velocity": 0, "duration": 343}, {"note": 64, "velocity": 116, "duration": 136}, {"note": 67, "velocity": 114, "duration": 133}, {"note": 69, "velocity": 117, "duration": 105}, {"note": 69, "velocity": 110, "duration": 78}, {"note": 0, "velocity": 0, "duration": 82}, {"note": 69, "velocity": 114, "duration": 86}, {"note": 0, "velocity": 0, "duration": 74}, {"note": 69, "velocity": 116, "duration": 124}, {"note": 71, "velocity": 113, "duration": 138}, {"note": 69, "velocity": 116, "duration": 135}, {"note": 67, "velocity": 119, "duration": 183}, {"note": 0, "velocity": 0, "duration": 457}, {"note": 67, "velocity": 119, "duration": 131}, {"note": 69, "velocity": 116, "duration": 135}, {"note": 72, "velocity": 117, "duration": 93}, {"note": 0, "velocity": 0, "duration": 67}, {"note": 72, "velocity": 116, "duration": 76}, {"note": 0, "velocity": 0, "duration": 84}, {"note": 72, "velocity": 114, "duration": 90}, {"note": 0, "velocity": 0, "duration": 70}, {"note": 72, "velocity": 117, "duration": 155}, {"note": 69, "velocity": 117, "duration": 79}, {"note": 0, "velocity": 0, "duration": 81}, {"note": 79, "velocity": 114, "duration": 141}, {"note": 76, "velocity": 119, "duration": 129}, {"note": 0, "velocity": 0, "duration": 351}, {"note": 76, "velocity": 117, "duration": 147}, {"note": 74, "velocity": 113, "duration": 155}, {"note": 72, "velocity": 116, "duration": 120}, {"note": 74, "velocity": 114, "duration": 183}, {"note": 0, "velocity": 0, "duration": 297}, {"note": 76, "velocity": 119, "duration": 131}, {"note": 74, "velocity": 116, "duration": 134}, {"note": 72, "velocity": 113, "duration": 116}, {"note": 74, "velocity": 117, "duration": 151}, {"note": 0, "velocity": 0, "duration": 329}, {"note": 76, "velocity": 116, "duration": 146}, {"note": 74, "velocity": 113, "duration": 161}, {"note": 72, "velocity": 116, "duration": 116}, {"note": 74, "velocity": 116, "duration": 82}, {"note": 0, "velocity": 0, "duration": 78}, {"note": 74, "velocity": 117, "duration": 69}, {"note": 0, "velocity": 0, "duration": 91}, {"note": 74, "velocity": 117, "duration": 68}, {"note": 0, "velocity": 0, "duration": 92}, {"note": 74, "velocity": 119, "duration": 114}, {"note": 72, "velocity": 116, "duration": 111}, {"note": 81, "velocity": 113, "duration": 121}, {"note": 79, "velocity": 117, "duration": 108}, {"note": 0, "velocity": 0, "duration": 1332}, {"note": 74, "velocity": 120, "duration": 144}, {"note": 72, "velocity": 114, "duration": 122}, {"note": 74, "velocity": 117, "duration": 122}, {"note": 79, "velocity": 117, "duration": 157}, {"note": 0, "velocity": 0, "duration": 323}, {"note": 74, "velocity": 120, "duration": 163}, {"note": 72, "velocity": 114, "duration": 114}, {"note": 74, "velocity": 107, "duration": 129}, {"note": 79, "velocity": 114, "duration": 153}, {"note": 0, "velocity": 0, "duration": 327}, {"note": 74, "velocity": 116, "duration": 149}, {"note": 72, "velocity": 114, "duration": 124}, {"note": 74, "velocity": 113, "duration": 129}, {"note": 79, "velocity": 116, "duration": 149}, {"note": 79, "velocity": 110, "duration": 79}, {"note": 0, "velocity": 0, "duration": 81}, {"note": 79, "velocity": 114, "duration": 82}, {"note": 0, "velocity": 0, "duration": 78}, {"note": 79, "velocity": 117, "duration": 142}, {"note": 76, "velocity": 114, "duration": 142}, {"note": 74, "velocity": 116, "duration": 141}, {"note": 76, "velocity": 117, "duration": 146}, {"note": 0, "velocity": 0, "duration": 334}, {"note": 76, "velocity": 119, "duration": 128}, {"note": 74, "velocity": 113, "duration": 123}, {"note": 72, "velocity": 116, "duration": 152}, {"note": 69, "velocity": 119, "duration": 227}, {"note": 0, "velocity": 0, "duration": 253}, {"note": 76, "velocity": 119, "duration": 181}, {"note": 74, "velocity": 116, "duration": 144}, {"note": 72, "velocity": 114, "duration": 154}, {"note": 67, "velocity": 117, "duration": 137}, {"note": 0, "velocity": 0, "duration": 343}, {"note": 67, "velocity": 117, "duration": 142}, {"note": 69, "velocity": 116, "duration": 99}, {"note": 0, "velocity": 0, "duration": 61}, {"note": 72, "velocity": 116, "duration": 138}, {"note": 69, "velocity": 120, "duration": 109}, {"note": 69, "velocity": 117, "duration": 78}, {"note": 0, "velocity": 0, "duration": 82}, {"note": 69, "velocity": 117, "duration": 80}, {"note": 0, "velocity": 0, "duration": 80}, {"note": 79, "velocity": 119, "duration": 57}, {"note": 0, "velocity": 0, "duration": 103}, {"note": 79, "velocity": 110, "duration": 127}, {"note": 74, "velocity": 114, "duration": 67}, {"note": 72, "velocity": 104, "duration": 64}, {"note": 74, "velocity": 117, "duration": 118}, {"note": 0, "velocity": 0, "duration": 362}, {"note": 74, "velocity": 120, "duration": 144}, {"note": 72, "velocity": 114, "duration": 122}, {"note": 74, "velocity": 117, "duration": 122}, {"note": 79, "velocity": 117, "duration": 157}, {"note": 0, "velocity": 0, "duration": 323}, {"note": 74, "velocity": 120, "duration": 163}, {"note": 72, "velocity": 114, "duration": 114}, {"note": 74, "velocity": 107, "duration": 129}, {"note": 79, "velocity": 114, "duration": 153}, {"note": 0, "velocity": 0, "duration": 327}, {"note": 74, "velocity": 116, "duration": 149}, {"note": 72, "velocity": 114, "duration": 124}, {"note": 74, "velocity": 113, "duration": 129}, {"note": 79, "velocity": 116, "duration": 149}, {"note": 79, "velocity": 110, "duration": 79}, {"note": 0, "velocity": 0, "duration": 81}, {"note": 79, "velocity": 114, "duration": 82}, {"note": 0, "velocity": 0, "duration": 78}, {"note": 79, "velocity": 117, "duration": 142}, {"note": 76, "velocity": 114, "duration": 142}, {"note": 74, "velocity": 116, "duration": 141}, {"note": 76, "velocity": 117, "duration": 146}, {"note": 0, "velocity": 0, "duration": 334}, {"note": 76, "velocity": 119, "duration": 128}, {"note": 74, "velocity": 113, "duration": 123}, {"note": 72, "velocity": 116, "duration": 152}, {"note": 69, "velocity": 119, "duration": 227}, {"note": 0, "velocity": 0, "duration": 253}, {"note": 76, "velocity": 119, "duration": 181}, {"note": 74, "velocity": 116, "duration": 144}, {"note": 72, "velocity": 114, "duration": 154}, {"note": 67, "velocity": 117, "duration": 137}, {"note": 67, "velocity": 119, "duration": 131}, {"note": 76, "velocity": 114, "duration": 84}, {"note": 0, "velocity": 0, "duration": 76}, {"note": 76, "velocity": 116, "duration": 133}, {"note": 0, "velocity": 0, "duration": 187}, {"note": 76, "velocity": 117, "duration": 180}, {"note": 74, "velocity": 116, "duration": 175}, {"note": 72, "velocity": 114, "duration": 152}, {"note": 69, "velocity": 113, "duration": 124}, {"note": 72, "velocity": 119, "duration": 145}, {"note": 74, "velocity": 114, "duration": 138}, {"note": 69, "velocity": 113, "duration": 194}, {"note": 0, "velocity": 0, "duration": 126}, {"note": 72, "velocity": 116, "duration": 182}, {"note": 0, "velocity": 0, "duration": 8778}, {"note": 64, "velocity": 114, "duration": 79}, {"note": 0, "velocity": 0, "duration": 81}, {"note": 64, "velocity": 114, "duration": 120}, {"note": 67, "velocity": 113, "duration": 129}, {"note": 69, "velocity": 116, "duration": 138}, {"note": 67, "velocity": 114, "duration": 104}, {"note": 67, "velocity": 110, "duration": 103}, {"note": 67, "velocity": 113, "duration": 112}, {"note": 67, "velocity": 116, "duration": 134}, {"note": 64, "velocity": 110, "duration": 137}, {"note": 67, "velocity": 117, "duration": 143}, {"note": 0, "velocity": 0, "duration": 337}, {"note": 64, "velocity": 116, "duration": 90}, {"note": 0, "velocity": 0, "duration": 70}, {"note": 64, "velocity": 114, "duration": 94}, {"note": 0, "velocity": 0, "duration": 66}, {"note": 67, "velocity": 116, "duration": 77}, {"note": 0, "velocity": 0, "duration": 83}, {"note": 71, "velocity": 119, "duration": 83}, {"note": 0, "velocity": 0, "duration": 237}, {"note": 69, "velocity": 117, "duration": 81}, {"note": 0, "velocity": 0, "duration": 79}, {"note": 67, "velocity": 114, "duration": 100}, {"note": 64, "velocity": 116, "duration": 136}, {"note": 62, "velocity": 114, "duration": 130}, {"note": 64, "velocity": 116, "duration": 145}, {"note": 0, "velocity": 0, "duration": 335}, {"note": 64, "velocity": 117, "duration": 89}, {"note": 0, "velocity": 0, "duration": 71}, {"note": 64, "velocity": 116, "duration": 114}, {"note": 62, "velocity": 110, "duration": 115}, {"note": 60, "velocity": 116, "duration": 136}, {"note": 60, "velocity": 114, "duration": 170}, {"note": 57, "velocity": 110, "duration": 68}, {"note": 0, "velocity": 0, "duration": 92}, {"note": 72, "velocity": 110, "duration": 283}, {"note": 69, "velocity": 114, "duration": 142}, {"note": 67, "velocity": 116, "duration": 209}, {"note": 69, "velocity": 108, "duration": 144}, {"note": 67, "velocity": 107, "duration": 164}, {"note": 64, "velocity": 116, "duration": 135}, {"note": 0, "velocity": 0, "duration": 185}, {"note": 64, "velocity": 117, "duration": 147}, {"note": 62, "velocity": 107, "duration": 147}, {"note": 60, "velocity": 116, "duration": 158}, {"note": 57, "velocity": 110, "duration": 139}, {"note": 60, "velocity": 116, "duration": 126}, {"note": 62, "velocity": 114, "duration": 115}, {"note": 64, "velocity": 119, "duration": 120}, {"note": 62, "velocity": 117, "duration": 198}, {"note": 60, "velocity": 116, "duration": 137}, {"note": 0, "velocity": 0, "duration": 343}, {"note": 64, "velocity": 116, "duration": 136}, {"note": 67, "velocity": 114, "duration": 133}, {"note": 69, "velocity": 117, "duration": 105}, {"note": 69, "velocity": 110, "duration": 78}, {"note": 0, "velocity": 0, "duration": 82}, {"note": 69, "velocity": 114, "duration": 86}, {"note": 0, "velocity": 0, "duration": 74}, {"note": 69, "velocity": 116, "duration": 124}, {"note": 71, "velocity": 113, "duration": 138}, {"note": 69, "velocity": 116, "duration": 135}, {"note": 67, "velocity": 119, "duration": 183}, {"note": 0, "velocity": 0, "duration": 457}, {"note": 67, "velocity": 119, "duration": 131}, {"note": 69, "velocity": 116, "duration": 135}, {"note": 72, "velocity": 117, "duration": 93}, {"note": 0, "velocity": 0, "duration": 67}, {"note": 72, "velocity": 116, "duration": 76}, {"note": 0, "velocity": 0, "duration": 84}, {"note": 72, "velocity": 114, "duration": 90}, {"note": 0, "velocity": 0, "duration": 70}, {"note": 72, "velocity": 117, "duration": 155}, {"note": 69, "velocity": 117, "duration": 79}, {"note": 0, "velocity": 0, "duration": 81}, {"note": 79, "velocity": 114, "duration": 141}, {"note": 76, "velocity": 119, "duration": 129}, {"note": 0, "velocity": 0, "duration": 351}, {"note": 76, "velocity": 117, "duration": 147}, {"note": 74, "velocity": 113, "duration": 155}, {"note": 72, "velocity": 116, "duration": 120}, {"note": 74, "velocity": 114, "duration": 183}, {"note": 0, "velocity": 0, "duration": 297}, {"note": 76, "velocity": 119, "duration": 131}, {"note": 74, "velocity": 116, "duration": 134}, {"note": 72, "velocity": 113, "duration": 116}, {"note": 74, "velocity": 117, "duration": 151}, {"note": 0, "velocity": 0, "duration": 329}, {"note": 76, "velocity": 116, "duration": 146}, {"note": 74, "velocity": 113, "duration": 161}, {"note": 72, "velocity": 116, "duration": 116}, {"note": 74, "velocity": 116, "duration": 82}, {"note": 0, "velocity": 0, "duration": 78}, {"note": 74, "velocity": 117, "duration": 69}, {"note": 0, "velocity": 0, "duration": 91}, {"note": 74, "velocity": 117, "duration": 68}, {"note": 0, "velocity": 0, "duration": 92}, {"note": 74, "velocity": 119, "duration": 114}, {"note": 72, "velocity": 116, "duration": 111}, {"note": 81, "velocity": 113, "duration": 121}, {"note": 79, "velocity": 117, "duration": 108}, {"note": 0, "velocity": 0, "duration": 1332}, {"note": 74, "velocity": 120, "duration": 144}, {"note": 72, "velocity": 114, "duration": 122}, {"note": 74, "velocity": 117, "duration": 122}, {"note": 79, "velocity": 117, "duration": 157}, {"note": 0, "velocity": 0, "duration": 323}, {"note": 74, "velocity": 120, "duration": 163}, {"note": 72, "velocity": 114, "duration": 114}, {"note": 74, "velocity": 107, "duration": 129}, {"note": 79, "velocity": 114, "duration": 153}, {"note": 0, "velocity": 0, "duration": 327}, {"note": 74, "velocity": 116, "duration": 149}, {"note": 72, "velocity": 114, "duration": 124}, {"note": 74, "velocity": 113, "duration": 129}, {"note": 79, "velocity": 116, "duration": 149}, {"note": 79, "velocity": 110, "duration": 79}, {"note": 0, "velocity": 0, "duration": 81}, {"note": 79, "velocity": 114, "duration": 82}, {"note": 0, "velocity": 0, "duration": 78}, {"note": 79, "velocity": 117, "duration": 142}, {"note": 76, "velocity": 114, "duration": 142}, {"note": 74, "velocity": 116, "duration": 141}, {"note": 76, "velocity": 117, "duration": 146}, {"note": 0, "velocity": 0, "duration": 334}, {"note": 76, "velocity": 119, "duration": 128}, {"note": 74, "velocity": 113, "duration": 123}, {"note": 72, "velocity": 116, "duration": 152}, {"note": 69, "velocity": 119, "duration": 227}, {"note": 0, "velocity": 0, "duration": 253}, {"note": 76, "velocity": 119, "duration": 181}, {"note": 74, "velocity": 116, "duration": 144}, {"note": 72, "velocity": 114, "duration": 154}, {"note": 67, "velocity": 117, "duration": 137}, {"note": 0, "velocity": 0, "duration": 343}, {"note": 67, "velocity": 117, "duration": 142}, {"note": 69, "velocity": 116, "duration": 99}, {"note": 0, "velocity": 0, "duration": 61}, {"note": 72, "velocity": 116, "duration": 138}, {"note": 69, "velocity": 120, "duration": 109}, {"note": 69, "velocity": 117, "duration": 78}, {"note": 0, "velocity": 0, "duration": 82}, {"note": 69, "velocity": 117, "duration": 80}, {"note": 0, "velocity": 0, "duration": 80}, {"note": 79, "velocity": 119, "duration": 57}, {"note": 0, "velocity": 0, "duration": 103}, {"note": 79, "velocity": 110, "duration": 127}, {"note": 74, "velocity": 114, "duration": 67}, {"note": 72, "velocity": 104, "duration": 64}, {"note": 74, "velocity": 117, "duration": 118}, {"note": 0, "velocity": 0, "duration": 362}, {"note": 74, "velocity": 120, "duration": 144}, {"note": 72, "velocity": 114, "duration": 122}, {"note": 74, "velocity": 117, "duration": 122}, {"note": 79, "velocity": 117, "duration": 157}, {"note": 0, "velocity": 0, "duration": 323}, {"note": 74, "velocity": 120, "duration": 163}, {"note": 72, "velocity": 114, "duration": 114}, {"note": 74, "velocity": 107, "duration": 129}, {"note": 79, "velocity": 114, "duration": 153}, {"note": 0, "velocity": 0, "duration": 327}, {"note": 74, "velocity": 116, "duration": 149}, {"note": 72, "velocity": 114, "duration": 124}, {"note": 74, "velocity": 113, "duration": 129}, {"note": 79, "velocity": 116, "duration": 149}, {"note": 79, "velocity": 110, "duration": 79}, {"note": 0, "velocity": 0, "duration": 81}, {"note": 79, "velocity": 114, "duration": 82}, {"note": 0, "velocity": 0, "duration": 78}, {"note": 79, "velocity": 117, "duration": 142}, {"note": 76, "velocity": 114, "duration": 142}, {"note": 74, "velocity": 116, "duration": 141}, {"note": 76, "velocity": 117, "duration": 146}, {"note": 0, "velocity": 0, "duration": 334}, {"note": 76, "velocity": 119, "duration": 128}, {"note": 74, "velocity": 113, "duration": 123}, {"note": 72, "velocity": 116, "duration": 152}, {"note": 69, "velocity": 119, "duration": 227}, {"note": 0, "velocity": 0, "duration": 253}, {"note": 76, "velocity": 119, "duration": 181}, {"note": 74, "velocity": 116, "duration": 144}, {"note": 72, "velocity": 114, "duration": 154}, {"note": 67, "velocity": 117, "duration": 137}, {"note": 67, "velocity": 119, "duration": 131}, {"note": 76, "velocity": 114, "duration": 84}, {"note": 0, "velocity": 0, "duration": 76}, {"note": 76, "velocity": 116, "duration": 133}, {"note": 0, "velocity": 0, "duration": 187}, {"note": 76, "velocity": 117, "duration": 180}, {"note": 74, "velocity": 116, "duration": 175}, {"note": 72, "velocity": 114, "duration": 152}, {"note": 69, "velocity": 113, "duration": 124}, {"note": 72, "velocity": 119, "duration": 145}, {"note": 74, "velocity": 114, "duration": 138}, {"note": 69, "velocity": 113, "duration": 194}, {"note": 0, "velocity": 0, "duration": 126}, {"note": 72, "velocity": 116, "duration": 182}, {"note": 0, "velocity": 0, "duration": 1578}, {"note": 72, "velocity": 116, "duration": 119}, {"note": 72, "velocity": 113, "duration": 83}, {"note": 0, "velocity": 0, "duration": 77}, {"note": 72, "velocity": 113, "duration": 87}, {"note": 0, "velocity": 0, "duration": 73}, {"note": 72, "velocity": 116, "duration": 203}, {"note": 0, "velocity": 0, "duration": 117}, {"note": 69, "velocity": 110, "duration": 85}, {"note": 0, "velocity": 0, "duration": 75}, {"note": 76, "velocity": 117, "duration": 128}, {"note": 74, "velocity": 114, "duration": 115}, {"note": 72, "velocity": 110, "duration": 103}, {"note": 74, "velocity": 117, "duration": 175}, {"note": 0, "velocity": 0, "duration": 305}, {"note": 71, "velocity": 116, "duration": 62}, {"note": 0, "velocity": 0, "duration": 98}, {"note": 71, "velocity": 114, "duration": 71}, {"note": 0, "velocity": 0, "duration": 89}, {"note": 71, "velocity": 114, "duration": 102}, {"note": 71, "velocity": 119, "duration": 104}, {"note": 0, "velocity": 0, "duration": 216}, {"note": 67, "velocity": 110, "duration": 112}, {"note": 74, "velocity": 102, "duration": 119}, {"note": 72, "velocity": 107, "duration": 128}, {"note": 71, "velocity": 102, "duration": 87}, {"note": 0, "velocity": 0, "duration": 73}, {"note": 72, "velocity": 114, "duration": 122}, {"note": 0, "velocity": 0, "duration": 358}, {"note": 76, "velocity": 114, "duration": 139}, {"note": 74, "velocity": 113, "duration": 119}, {"note": 72, "velocity": 113, "duration": 86}, {"note": 0, "velocity": 0, "duration": 74}, {"note": 69, "velocity": 114, "duration": 110}, {"note": 0, "velocity": 0, "duration": 210}, {"note": 72, "velocity": 113, "duration": 111}, {"note": 76, "velocity": 110, "duration": 121}, {"note": 74, "velocity": 110, "duration": 192}, {"note": 72, "velocity": 113, "duration": 161}, {"note": 69, "velocity": 113, "duration": 149}, {"note": 0, "velocity": 0, "duration": 171}, {"note": 69, "velocity": 114, "duration": 97}, {"note": 0, "velocity": 0, "duration": 63}, {"note": 76, "velocity": 117, "duration": 126}, {"note": 74, "velocity": 114, "duration": 105}, {"note": 72, "velocity": 113, "duration": 87}, {"note": 0, "velocity": 0, "duration": 73}, {"note": 74, "velocity": 117, "duration": 92}, {"note": 0, "velocity": 0, "duration": 68}, {"note": 74, "velocity": 114, "duration": 119}, {"note": 81, "velocity": 116, "duration": 93}, {"note": 0, "velocity": 0, "duration": 67}, {"note": 81, "velocity": 116, "duration": 125}, {"note": 79, "velocity": 117, "duration": 160}, {"note": 0, "velocity": 0, "duration": 160}, {"note": 75, "velocity": 120, "duration": 144}, {"note": 73, "velocity": 114, "duration": 122}, {"note": 75, "velocity": 117, "duration": 122}, {"note": 80, "velocity": 117, "duration": 157}, {"note": 0, "velocity": 0, "duration": 323}, {"note": 75, "velocity": 120, "duration": 163}, {"note": 73, "velocity": 114, "duration": 114}, {"note": 75, "velocity": 107, "duration": 129}, {"note": 80, "velocity": 114, "duration": 153}, {"note": 0, "velocity": 0, "duration": 327}, {"note": 75, "velocity": 116, "duration": 149}, {"note": 73, "velocity": 114, "duration": 124}, {"note": 75, "velocity": 113, "duration": 129}, {"note": 80, "velocity": 116, "duration": 149}, {"note": 80, "velocity": 110, "duration": 79}, {"note": 0, "velocity": 0, "duration": 81}, {"note": 80, "velocity": 114, "duration": 82}, {"note": 0, "velocity": 0, "duration": 78}, {"note": 80, "velocity": 117, "duration": 142}, {"note": 77, "velocity": 114, "duration": 142}, {"note": 75, "velocity": 116, "duration": 141}, {"note": 77, "velocity": 117, "duration": 146}, {"note": 0, "velocity": 0, "duration": 334}, {"note": 77, "velocity": 119, "duration": 128}, {"note": 75, "velocity": 113, "duration": 123}, {"note": 73, "velocity": 116, "duration": 152}, {"note": 70, "velocity": 119, "duration": 227}, {"note": 0, "velocity": 0, "duration": 253}, {"note": 77, "velocity": 119, "duration": 181}, {"note": 75, "velocity": 116, "duration": 144}, {"note": 73, "velocity": 114, "duration": 154}, {"note": 68, "velocity": 117, "duration": 137}, {"note": 0, "velocity": 0, "duration": 343}, {"note": 68, "velocity": 117, "duration": 142}, {"note": 70, "velocity": 116, "duration": 99}, {"note": 0, "velocity": 0, "duration": 61}, {"note": 73, "velocity": 116, "duration": 138}, {"note": 70, "velocity": 120, "duration": 109}, {"note": 70, "velocity": 117, "duration": 78}, {"note": 0, "velocity": 0, "duration": 82}, {"note": 70, "velocity": 117, "duration": 80}, {"note": 0, "velocity": 0, "duration": 80}, {"note": 80, "velocity": 119, "duration": 57}, {"note": 0, "velocity": 0, "duration": 103}, {"note": 80, "velocity": 110, "duration": 127}, {"note": 75, "velocity": 114, "duration": 67}, {"note": 73, "velocity": 104, "duration": 64}, {"note": 75, "velocity": 117, "duration": 118}, {"note": 0, "velocity": 0, "duration": 362}, {"note": 75, "velocity": 120, "duration": 144}, {"note": 73, "velocity": 114, "duration": 122}, {"note": 75, "velocity": 117, "duration": 122}, {"note": 80, "velocity": 117, "duration": 157}, {"note": 0, "velocity": 0, "duration": 323}, {"note": 75, "velocity": 120, "duration": 163}, {"note": 73, "velocity": 114, "duration": 114}, {"note": 75, "velocity": 107, "duration": 129}, {"note": 80, "velocity": 114, "duration": 153}, {"note": 0, "velocity": 0, "duration": 327}, {"note": 75, "velocity": 116, "duration": 149}, {"note": 73, "velocity": 114, "duration": 124}, {"note": 75, "velocity": 113, "duration": 129}, {"note": 80, "velocity": 116, "duration": 149}, {"note": 80, "velocity": 110, "duration": 79}, {"note": 0, "velocity": 0, "duration": 81}, {"note": 80, "velocity": 114, "duration": 82}, {"note": 0, "velocity": 0, "duration": 78}, {"note": 80, "velocity": 117, "duration": 142}, {"note": 77, "velocity": 114, "duration": 142}, {"note": 75, "velocity": 116, "duration": 141}, {"note": 77, "velocity": 117, "duration": 146}, {"note": 0, "velocity": 0, "duration": 334}, {"note": 77, "velocity": 119, "duration": 128}, {"note": 75, "velocity": 113, "duration": 123}, {"note": 73, "velocity": 116, "duration": 152}, {"note": 70, "velocity": 119, "duration": 227}, {"note": 0, "velocity": 0, "duration": 253}, {"note": 77, "velocity": 119, "duration": 181}, {"note": 75, "velocity": 116, "duration": 144}, {"note": 73, "velocity": 114, "duration": 154}, {"note": 68, "velocity": 117, "duration": 137}, {"note": 68, "velocity": 119, "duration": 131}, {"note": 77, "velocity": 114, "duration": 84}, {"note": 0, "velocity": 0, "duration": 76}, {"note": 77, "velocity": 116, "duration": 133}, {"note": 0, "velocity": 0, "duration": 187}, {"note": 77, "velocity": 117, "duration": 180}, {"note": 75, "velocity": 116, "duration": 175}, {"note": 73, "velocity": 114, "duration": 152}, {"note": 70, "velocity": 113, "duration": 124}, {"note": 73, "velocity": 119, "duration": 145}, {"note": 75, "velocity": 114, "duration": 138}, {"note": 70, "velocity": 113, "duration": 194}, {"note": 0, "velocity": 0, "duration": 126}, {"note": 73, "velocity": 116, "duration": 182}]]