[[{"note": 64, "velocity": 122, "duration": 361}, {"note": 0, "velocity": 0, "duration": 119}, {"note": 67, "velocity": 117, "duration": 330}, {"note": 0, "velocity": 0, "duration": 150}, {"note": 69, "velocity": 122, "duration": 317}, {"note": 0, "velocity": 0, "duration": 163}, {"note": 69, "velocity": 117, "duration": 203}, {"note": 67, "velocity": 97, "duration": 209}, {"note": 69, "velocity": 117, "duration": 342}, {"note": 0, "velocity": 0, "duration": 138}, {"note": 64, "velocity": 107, "duration": 343}, {"note": 0, "velocity": 0, "duration": 137}, {"note": 62, "velocity": 107, "duration": 125}, {"note": 64, "velocity": 74, "duration": 119}, {"note": 62, "velocity": 93, "duration": 518}, {"note": 0, "velocity": 0, "duration": 202}, {"note": 64, "velocity": 102, "duration": 394}, {"note": 0, "velocity": 0, "duration": 86}, {"note": 67, "velocity": 102, "duration": 397}, {"note": 0, "velocity": 0, "duration": 83}, {"note": 69, "velocity": 102, "duration": 315}, {"note": 0, "velocity": 0, "duration": 165}, {"note": 69, "velocity": 122, "duration": 229}, {"note": 67, "velocity": 90, "duration": 283}, {"note": 69, "velocity": 102, "duration": 194}, {"note": 67, "velocity": 93, "duration": 123}, {"note": 0, "velocity": 0, "duration": 117}, {"note": 67, "velocity": 107, "duration": 444}, {"note": 64, "velocity": 117, "duration": 749}, {"note": 0, "velocity": 0, "duration": 211}, {"note": 64, "velocity": 112, "duration": 386}, {"note": 0, "velocity": 0, "duration": 94}, {"note": 67, "velocity": 122, "duration": 368}, {"note": 0, "velocity": 0, "duration": 112}, {"note": 69, "velocity": 117, "duration": 303}, {"note": 0, "velocity": 0, "duration": 177}, {"note": 69, "velocity": 117, "duration": 222}, {"note": 67, "velocity": 102, "duration": 267}, {"note": 69, "velocity": 107, "duration": 338}, {"note": 0, "velocity": 0, "duration": 142}, {"note": 64, "velocity": 112, "duration": 475}, {"note": 62, "velocity": 100, "duration": 794}, {"note": 0, "velocity": 0, "duration": 166}, {"note": 67, "velocity": 107, "duration": 232}, {"note": 0, "velocity": 0, "duration": 248}, {"note": 67, "velocity": 127, "duration": 213}, {"note": 64, "velocity": 100, "duration": 217}, {"note": 62, "velocity": 100, "duration": 303}, {"note": 64, "velocity": 117, "duration": 218}, {"note": 62, "velocity": 112, "duration": 211}, {"note": 60, "velocity": 97, "duration": 277}, {"note": 62, "velocity": 117, "duration": 239}, {"note": 60, "velocity": 90, "duration": 199}, {"note": 57, "velocity": 99, "duration": 1173}, {"note": 0, "velocity": 0, "duration": 267}, {"note": 57, "velocity": 102, "duration": 353}, {"note": 0, "velocity": 0, "duration": 127}, {"note": 62, "velocity": 112, "duration": 1235}, {"note": 0, "velocity": 0, "duration": 205}, {"note": 67, "velocity": 117, "duration": 464}, {"note": 64, "velocity": 107, "duration": 817}, {"note": 0, "velocity": 0, "duration": 623}, {"note": 64, "velocity": 127, "duration": 207}, {"note": 62, "velocity": 92, "duration": 273}, {"note": 60, "velocity": 89, "duration": 248}, {"note": 57, "velocity": 107, "duration": 989}, {"note": 0, "velocity": 0, "duration": 211}, {"note": 67, "velocity": 117, "duration": 400}, {"note": 0, "velocity": 0, "duration": 80}, {"note": 67, "velocity": 102, "duration": 240}, {"note": 64, "velocity": 99, "duration": 226}, {"note": 62, "velocity": 99, "duration": 274}, {"note": 64, "velocity": 95, "duration": 207}, {"note": 62, "velocity": 90, "duration": 222}, {"note": 60, "velocity": 76, "duration": 266}, {"note": 62, "velocity": 99, "duration": 194}, {"note": 60, "velocity": 93, "duration": 185}, {"note": 57, "velocity": 86, "duration": 1026}, {"note": 0, "velocity": 0, "duration": 11934}, {"note": 64, "velocity": 122, "duration": 361}, {"note": 0, "velocity": 0, "duration": 119}, {"note": 67, "velocity": 117, "duration": 330}, {"note": 0, "velocity": 0, "duration": 150}, {"note": 69, "velocity": 122, "duration": 317}, {"note": 0, "velocity": 0, "duration": 163}, {"note": 69, "velocity": 117, "duration": 203}, {"note": 67, "velocity": 97, "duration": 209}, {"note": 69, "velocity": 117, "duration": 342}, {"note": 0, "velocity": 0, "duration": 138}, {"note": 64, "velocity": 96, "duration": 387}, {"note": 0, "velocity": 0, "duration": 93}, {"note": 62, "velocity": 107, "duration": 133}, {"note": 64, "velocity": 62, "duration": 125}, {"note": 62, "velocity": 90, "duration": 535}, {"note": 0, "velocity": 0, "duration": 185}, {"note": 64, "velocity": 102, "duration": 394}, {"note": 0, "velocity": 0, "duration": 86}, {"note": 67, "velocity": 102, "duration": 397}, {"note": 0, "velocity": 0, "duration": 83}, {"note": 69, "velocity": 102, "duration": 315}, {"note": 0, "velocity": 0, "duration": 165}, {"note": 69, "velocity": 122, "duration": 229}, {"note": 67, "velocity": 90, "duration": 283}, {"note": 69, "velocity": 102, "duration": 194}, {"note": 67, "velocity": 93, "duration": 123}, {"note": 0, "velocity": 0, "duration": 117}, {"note": 67, "velocity": 107, "duration": 444}, {"note": 64, "velocity": 106, "duration": 749}, {"note": 0, "velocity": 0, "duration": 211}, {"note": 64, "velocity": 112, "duration": 386}, {"note": 0, "velocity": 0, "duration": 94}, {"note": 67, "velocity": 122, "duration": 368}, {"note": 0, "velocity": 0, "duration": 112}, {"note": 69, "velocity": 117, "duration": 303}, {"note": 0, "velocity": 0, "duration": 177}, {"note": 69, "velocity": 117, "duration": 222}, {"note": 67, "velocity": 102, "duration": 267}, {"note": 69, "velocity": 107, "duration": 338}, {"note": 0, "velocity": 0, "duration": 142}, {"note": 64, "velocity": 112, "duration": 475}, {"note": 62, "velocity": 100, "duration": 794}, {"note": 0, "velocity": 0, "duration": 166}, {"note": 67, "velocity": 107, "duration": 232}, {"note": 0, "velocity": 0, "duration": 248}, {"note": 67, "velocity": 115, "duration": 213}, {"note": 64, "velocity": 100, "duration": 217}, {"note": 62, "velocity": 100, "duration": 303}, {"note": 64, "velocity": 117, "duration": 218}, {"note": 62, "velocity": 112, "duration": 211}, {"note": 60, "velocity": 97, "duration": 277}, {"note": 62, "velocity": 117, "duration": 239}, {"note": 60, "velocity": 96, "duration": 199}, {"note": 57, "velocity": 99, "duration": 1173}, {"note": 0, "velocity": 0, "duration": 267}, {"note": 57, "velocity": 102, "duration": 353}, {"note": 0, "velocity": 0, "duration": 127}, {"note": 62, "velocity": 112, "duration": 1414}, {"note": 67, "velocity": 117, "duration": 464}, {"note": 64, "velocity": 107, "duration": 817}, {"note": 0, "velocity": 0, "duration": 623}, {"note": 64, "velocity": 127, "duration": 207}, {"note": 62, "velocity": 92, "duration": 273}, {"note": 60, "velocity": 89, "duration": 248}, {"note": 57, "velocity": 107, "duration": 989}, {"note": 0, "velocity": 0, "duration": 211}, {"note": 67, "velocity": 117, "duration": 400}, {"note": 0, "velocity": 0, "duration": 80}, {"note": 67, "velocity": 102, "duration": 240}, {"note": 64, "velocity": 99, "duration": 226}, {"note": 62, "velocity": 99, "duration": 274}, {"note": 64, "velocity": 95, "duration": 207}, {"note": 62, "velocity": 90, "duration": 222}, {"note": 60, "velocity": 76, "duration": 266}, {"note": 62, "velocity": 99, "duration": 194}, {"note": 60, "velocity": 93, "duration": 185}, {"note": 57, "velocity": 86, "duration": 1026}, {"note": 0, "velocity": 0, "duration": 19614}, {"note": 64, "velocity": 122, "duration": 361}, {"note": 0, "velocity": 0, "duration": 119}, {"note": 67, "velocity": 117, "duration": 330}, {"note": 0, "velocity": 0, "duration": 150}, {"note": 69, "velocity": 122, "duration": 317}, {"note": 0, "velocity": 0, "duration": 163}, {"note": 69, "velocity": 117, "duration": 203}, {"note": 67, "velocity": 97, "duration": 209}, {"note": 69, "velocity": 117, "duration": 342}, {"note": 0, "velocity": 0, "duration": 138}, {"note": 64, "velocity": 107, "duration": 343}, {"note": 0, "velocity": 0, "duration": 137}, {"note": 62, "velocity": 107, "duration": 125}, {"note": 64, "velocity": 74, "duration": 119}, {"note": 62, "velocity": 93, "duration": 518}, {"note": 0, "velocity": 0, "duration": 202}, {"note": 64, "velocity": 102, "duration": 394}, {"note": 0, "velocity": 0, "duration": 86}, {"note": 67, "velocity": 102, "duration": 397}, {"note": 0, "velocity": 0, "duration": 83}, {"note": 69, "velocity": 102, "duration": 315}, {"note": 0, "velocity": 0, "duration": 165}, {"note": 69, "velocity": 122, "duration": 229}, {"note": 67, "velocity": 90, "duration": 283}, {"note": 69, "velocity": 102, "duration": 194}, {"note": 67, "velocity": 93, "duration": 123}, {"note": 0, "velocity": 0, "duration": 117}, {"note": 67, "velocity": 107, "duration": 444}, {"note": 64, "velocity": 117, "duration": 749}, {"note": 0, "velocity": 0, "duration": 211}, {"note": 64, "velocity": 112, "duration": 386}, {"note": 0, "velocity": 0, "duration": 94}, {"note": 67, "velocity": 122, "duration": 368}, {"note": 0, "velocity": 0, "duration": 112}, {"note": 69, "velocity": 117, "duration": 303}, {"note": 0, "velocity": 0, "duration": 177}, {"note": 69, "velocity": 117, "duration": 222}, {"note": 67, "velocity": 102, "duration": 267}, {"note": 69, "velocity": 107, "duration": 338}, {"note": 0, "velocity": 0, "duration": 142}, {"note": 64, "velocity": 112, "duration": 475}, {"note": 62, "velocity": 100, "duration": 794}, {"note": 0, "velocity": 0, "duration": 166}, {"note": 67, "velocity": 107, "duration": 232}, {"note": 0, "velocity": 0, "duration": 248}, {"note": 67, "velocity": 127, "duration": 213}, {"note": 64, "velocity": 100, "duration": 217}, {"note": 62, "velocity": 100, "duration": 303}, {"note": 64, "velocity": 117, "duration": 218}, {"note": 62, "velocity": 112, "duration": 211}, {"note": 60, "velocity": 97, "duration": 277}, {"note": 62, "velocity": 117, "duration": 239}, {"note": 60, "velocity": 90, "duration": 199}, {"note": 57, "velocity": 99, "duration": 1173}, {"note": 0, "velocity": 0, "duration": 267}, {"note": 57, "velocity": 102, "duration": 353}, {"note": 0, "velocity": 0, "duration": 127}, {"note": 62, "velocity": 112, "duration": 1319}, {"note": 0, "velocity": 0, "duration": 121}, {"note": 67, "velocity": 117, "duration": 464}, {"note": 64, "velocity": 107, "duration": 817}, {"note": 0, "velocity": 0, "duration": 623}, {"note": 64, "velocity": 127, "duration": 207}, {"note": 62, "velocity": 92, "duration": 273}, {"note": 60, "velocity": 89, "duration": 248}, {"note": 57, "velocity": 107, "duration": 989}, {"note": 0, "velocity": 0, "duration": 211}, {"note": 67, "velocity": 117, "duration": 400}, {"note": 0, "velocity": 0, "duration": 80}, {"note": 67, "velocity": 102, "duration": 240}, {"note": 64, "velocity": 99, "duration": 226}, {"note": 62, "velocity": 99, "duration": 274}, {"note": 64, "velocity": 95, "duration": 207}, {"note": 62, "velocity": 90, "duration": 222}, {"note": 60, "velocity": 76, "duration": 266}, {"note": 62, "velocity": 99, "duration": 194}, {"note": 60, "velocity": 93, "duration": 185}, {"note": 57, "velocity": 86, "duration": 1026}, {"note": 0, "velocity": 0, "duration": 11934}, {"note": 64, "velocity": 122, "duration": 361}, {"note": 0, "velocity": 0, "duration": 119}, {"note": 67, "velocity": 117, "duration": 330}, {"note": 0, "velocity": 0, "duration": 150}, {"note": 69, "velocity": 122, "duration": 317}, {"note": 0, "velocity": 0, "duration": 163}, {"note": 69, "velocity": 117, "duration": 203}, {"note": 67, "velocity": 97, "duration": 209}, {"note": 69, "velocity": 117, "duration": 342}, {"note": 0, "velocity": 0, "duration": 138}, {"note": 64, "velocity": 96, "duration": 387}, {"note": 0, "velocity": 0, "duration": 93}, {"note": 62, "velocity": 107, "duration": 133}, {"note": 64, "velocity": 62, "duration": 125}, {"note": 62, "velocity": 90, "duration": 535}, {"note": 0, "velocity": 0, "duration": 185}, {"note": 64, "velocity": 102, "duration": 394}, {"note": 0, "velocity": 0, "duration": 86}, {"note": 67, "velocity": 102, "duration": 397}, {"note": 0, "velocity": 0, "duration": 83}, {"note": 69, "velocity": 102, "duration": 315}, {"note": 0, "velocity": 0, "duration": 165}, {"note": 69, "velocity": 122, "duration": 229}, {"note": 67, "velocity": 90, "duration": 283}, {"note": 69, "velocity": 102, "duration": 194}, {"note": 67, "velocity": 93, "duration": 123}, {"note": 0, "velocity": 0, "duration": 117}, {"note": 67, "velocity": 107, "duration": 444}, {"note": 64, "velocity": 106, "duration": 749}, {"note": 0, "velocity": 0, "duration": 211}, {"note": 64, "velocity": 112, "duration": 386}, {"note": 0, "velocity": 0, "duration": 94}, {"note": 67, "velocity": 122, "duration": 368}, {"note": 0, "velocity": 0, "duration": 112}, {"note": 69, "velocity": 117, "duration": 303}, {"note": 0, "velocity": 0, "duration": 177}, {"note": 69, "velocity": 117, "duration": 222}, {"note": 67, "velocity": 102, "duration": 267}, {"note": 69, "velocity": 107, "duration": 338}, {"note": 0, "velocity": 0, "duration": 142}, {"note": 64, "velocity": 112, "duration": 475}, {"note": 62, "velocity": 100, "duration": 794}, {"note": 0, "velocity": 0, "duration": 166}, {"note": 67, "velocity": 107, "duration": 232}, {"note": 0, "velocity": 0, "duration": 248}, {"note": 67, "velocity": 115, "duration": 213}, {"note": 64, "velocity": 100, "duration": 217}, {"note": 62, "velocity": 100, "duration": 303}, {"note": 64, "velocity": 117, "duration": 218}, {"note": 62, "velocity": 112, "duration": 211}, {"note": 60, "velocity": 97, "duration": 277}, {"note": 62, "velocity": 117, "duration": 239}, {"note": 60, "velocity": 96, "duration": 199}, {"note": 57, "velocity": 99, "duration": 1173}, {"note": 0, "velocity": 0, "duration": 267}, {"note": 57, "velocity": 102, "duration": 353}, {"note": 0, "velocity": 0, "duration": 127}, {"note": 62, "velocity": 112, "duration": 1301}, {"note": 0, "velocity": 0, "duration": 139}, {"note": 67, "velocity": 117, "duration": 464}, {"note": 64, "velocity": 107, "duration": 817}, {"note": 0, "velocity": 0, "duration": 623}, {"note": 64, "velocity": 127, "duration": 207}, {"note": 62, "velocity": 92, "duration": 273}, {"note": 60, "velocity": 89, "duration": 248}, {"note": 57, "velocity": 107, "duration": 989}, {"note": 0, "velocity": 0, "duration": 211}, {"note": 67, "velocity": 117, "duration": 400}, {"note": 0, "velocity": 0, "duration": 80}, {"note": 67, "velocity": 102, "duration": 240}, {"note": 64, "velocity": 99, "duration": 226}, {"note": 62, "velocity": 99, "duration": 274}, {"note": 64, "velocity": 95, "duration": 207}, {"note": 62, "velocity": 90, "duration": 222}, {"note": 60, "velocity": 76, "duration": 266}, {"note": 62, "velocity": 99, "duration": 194}, {"note": 60, "velocity": 93, "duration": 185}, {"note": 57, "velocity": 86, "duration": 1026}]]