[[{"note": 60, "velocity": 97, "duration": 256}, {"note": 63, "velocity": 100, "duration": 245}, {"note": 65, "velocity": 97, "duration": 720}, {"note": 63, "velocity": 93, "duration": 240}, {"note": 65, "velocity": 92, "duration": 240}, {"note": 72, "velocity": 102, "duration": 241}, {"note": 70, "velocity": 107, "duration": 240}, {"note": 68, "velocity": 107, "duration": 240}, {"note": 65, "velocity": 96, "duration": 267}, {"note": 63, "velocity": 97, "duration": 1200}, {"note": 60, "velocity": 99, "duration": 242}, {"note": 63, "velocity": 92, "duration": 242}, {"note": 65, "velocity": 93, "duration": 720}, {"note": 63, "velocity": 93, "duration": 247}, {"note": 65, "velocity": 82, "duration": 240}, {"note": 72, "velocity": 97, "duration": 266}, {"note": 70, "velocity": 102, "duration": 248}, {"note": 68, "velocity": 97, "duration": 289}, {"note": 70, "velocity": 92, "duration": 1440}, {"note": 68, "velocity": 102, "duration": 253}, {"note": 70, "velocity": 102, "duration": 265}, {"note": 72, "velocity": 97, "duration": 720}, {"note": 70, "velocity": 97, "duration": 239}, {"note": 70, "velocity": 97, "duration": 241}, {"note": 68, "velocity": 99, "duration": 583}, {"note": 65, "velocity": 93, "duration": 256}, {"note": 68, "velocity": 107, "duration": 720}, {"note": 70, "velocity": 107, "duration": 240}, {"note": 68, "velocity": 107, "duration": 123}, {"note": 70, "velocity": 112, "duration": 120}, {"note": 68, "velocity": 107, "duration": 240}, {"note": 65, "velocity": 95, "duration": 240}, {"note": 63, "velocity": 100, "duration": 240}, {"note": 60, "velocity": 89, "duration": 240}, {"note": 58, "velocity": 76, "duration": 240}, {"note": 60, "velocity": 90, "duration": 240}, {"note": 68, "velocity": 122, "duration": 240}, {"note": 65, "velocity": 97, "duration": 240}, {"note": 63, "velocity": 95, "duration": 239}, {"note": 63, "velocity": 97, "duration": 480}, {"note": 65, "velocity": 90, "duration": 240}, {"note": 63, "velocity": 76, "duration": 258}, {"note": 65, "velocity": 86, "duration": 240}, {"note": 63, "velocity": 97, "duration": 240}, {"note": 65, "velocity": 86, "duration": 720}, {"note": 60, "velocity": 102, "duration": 249}, {"note": 63, "velocity": 100, "duration": 1440}, {"note": 60, "velocity": 97, "duration": 256}, {"note": 63, "velocity": 100, "duration": 245}, {"note": 65, "velocity": 97, "duration": 720}, {"note": 63, "velocity": 93, "duration": 240}, {"note": 65, "velocity": 92, "duration": 240}, {"note": 72, "velocity": 102, "duration": 241}, {"note": 70, "velocity": 107, "duration": 240}, {"note": 68, "velocity": 107, "duration": 240}, {"note": 65, "velocity": 96, "duration": 267}, {"note": 63, "velocity": 97, "duration": 1200}, {"note": 60, "velocity": 99, "duration": 242}, {"note": 63, "velocity": 92, "duration": 242}, {"note": 65, "velocity": 93, "duration": 720}, {"note": 63, "velocity": 93, "duration": 247}, {"note": 65, "velocity": 82, "duration": 240}, {"note": 72, "velocity": 97, "duration": 266}, {"note": 70, "velocity": 102, "duration": 248}, {"note": 68, "velocity": 97, "duration": 289}, {"note": 70, "velocity": 92, "duration": 1440}, {"note": 68, "velocity": 102, "duration": 253}, {"note": 70, "velocity": 102, "duration": 265}, {"note": 72, "velocity": 97, "duration": 720}, {"note": 70, "velocity": 97, "duration": 239}, {"note": 70, "velocity": 97, "duration": 241}, {"note": 68, "velocity": 99, "duration": 583}, {"note": 65, "velocity": 93, "duration": 256}, {"note": 68, "velocity": 107, "duration": 720}, {"note": 70, "velocity": 107, "duration": 240}, {"note": 68, "velocity": 107, "duration": 123}, {"note": 70, "velocity": 112, "duration": 120}, {"note": 68, "velocity": 107, "duration": 240}, {"note": 65, "velocity": 95, "duration": 240}, {"note": 63, "velocity": 100, "duration": 240}, {"note": 60, "velocity": 89, "duration": 240}, {"note": 58, "velocity": 76, "duration": 240}, {"note": 60, "velocity": 90, "duration": 240}, {"note": 68, "velocity": 122, "duration": 240}, {"note": 65, "velocity": 97, "duration": 240}, {"note": 63, "velocity": 95, "duration": 239}, {"note": 63, "velocity": 97, "duration": 480}, {"note": 65, "velocity": 90, "duration": 240}, {"note": 63, "velocity": 76, "duration": 258}, {"note": 65, "velocity": 86, "duration": 240}, {"note": 63, "velocity": 97, "duration": 240}, {"note": 65, "velocity": 86, "duration": 719}, {"note": 65, "velocity": 99, "duration": 120}, {"note": 68, "velocity": 89, "duration": 135}, {"note": 70, "velocity": 117, "duration": 1440}, {"note": 68, "velocity": 122, "duration": 240}, {"note": 70, "velocity": 107, "duration": 240}, {"note": 72, "velocity": 102, "duration": 479}, {"note": 72, "velocity": 107, "duration": 240}, {"note": 70, "velocity": 112, "duration": 239}, {"note": 70, "velocity": 127, "duration": 480}, {"note": 68, "velocity": 127, "duration": 240}, {"note": 70, "velocity": 127, "duration": 240}, {"note": 72, "velocity": 117, "duration": 264}, {"note": 77, "velocity": 107, "duration": 240}, {"note": 72, "velocity": 102, "duration": 240}, {"note": 70, "velocity": 127, "duration": 239}, {"note": 70, "velocity": 122, "duration": 480}, {"note": 65, "velocity": 100, "duration": 240}, {"note": 67, "velocity": 102, "duration": 240}, {"note": 68, "velocity": 112, "duration": 479}, {"note": 68, "velocity": 122, "duration": 240}, {"note": 72, "velocity": 100, "duration": 240}, {"note": 70, "velocity": 112, "duration": 480}, {"note": 65, "velocity": 97, "duration": 240}, {"note": 67, "velocity": 102, "duration": 240}, {"note": 68, "velocity": 122, "duration": 119}, {"note": 68, "velocity": 122, "duration": 119}, {"note": 68, "velocity": 117, "duration": 120}, {"note": 65, "velocity": 90, "duration": 120}, {"note": 68, "velocity": 112, "duration": 240}, {"note": 72, "velocity": 112, "duration": 240}, {"note": 70, "velocity": 117, "duration": 480}, {"note": 68, "velocity": 122, "duration": 240}, {"note": 70, "velocity": 127, "duration": 240}, {"note": 72, "velocity": 127, "duration": 479}, {"note": 72, "velocity": 127, "duration": 240}, {"note": 70, "velocity": 117, "duration": 239}, {"note": 70, "velocity": 127, "duration": 480}, {"note": 68, "velocity": 127, "duration": 240}, {"note": 70, "velocity": 127, "duration": 240}, {"note": 72, "velocity": 117, "duration": 240}, {"note": 77, "velocity": 127, "duration": 240}, {"note": 72, "velocity": 107, "duration": 240}, {"note": 70, "velocity": 107, "duration": 239}, {"note": 70, "velocity": 107, "duration": 480}, {"note": 65, "velocity": 102, "duration": 240}, {"note": 67, "velocity": 127, "duration": 240}, {"note": 68, "velocity": 127, "duration": 360}, {"note": 65, "velocity": 99, "duration": 120}, {"note": 68, "velocity": 127, "duration": 240}, {"note": 72, "velocity": 127, "duration": 240}, {"note": 70, "velocity": 117, "duration": 720}, {"note": 65, "velocity": 95, "duration": 120}, {"note": 67, "velocity": 100, "duration": 126}, {"note": 68, "velocity": 112, "duration": 239}, {"note": 68, "velocity": 127, "duration": 242}, {"note": 67, "velocity": 99, "duration": 240}, {"note": 65, "velocity": 99, "duration": 720}, {"note": 63, "velocity": 102, "duration": 262}, {"note": 65, "velocity": 102, "duration": 170}, {"note": 67, "velocity": 93, "duration": 360}, {"note": 65, "velocity": 100, "duration": 1953}, {"note": 0, "velocity": 0, "duration": 14607}, {"note": 60, "velocity": 97, "duration": 256}, {"note": 63, "velocity": 100, "duration": 245}, {"note": 65, "velocity": 97, "duration": 720}, {"note": 63, "velocity": 93, "duration": 240}, {"note": 65, "velocity": 92, "duration": 240}, {"note": 72, "velocity": 102, "duration": 241}, {"note": 70, "velocity": 107, "duration": 240}, {"note": 68, "velocity": 107, "duration": 240}, {"note": 65, "velocity": 96, "duration": 267}, {"note": 63, "velocity": 97, "duration": 1200}, {"note": 60, "velocity": 99, "duration": 242}, {"note": 63, "velocity": 92, "duration": 242}, {"note": 65, "velocity": 93, "duration": 720}, {"note": 63, "velocity": 93, "duration": 247}, {"note": 65, "velocity": 82, "duration": 240}, {"note": 72, "velocity": 97, "duration": 266}, {"note": 70, "velocity": 102, "duration": 248}, {"note": 68, "velocity": 97, "duration": 289}, {"note": 70, "velocity": 92, "duration": 1440}, {"note": 68, "velocity": 102, "duration": 253}, {"note": 70, "velocity": 102, "duration": 265}, {"note": 72, "velocity": 97, "duration": 720}, {"note": 70, "velocity": 97, "duration": 239}, {"note": 70, "velocity": 97, "duration": 241}, {"note": 68, "velocity": 99, "duration": 583}, {"note": 65, "velocity": 93, "duration": 256}, {"note": 68, "velocity": 107, "duration": 720}, {"note": 70, "velocity": 107, "duration": 240}, {"note": 68, "velocity": 107, "duration": 123}, {"note": 70, "velocity": 112, "duration": 120}, {"note": 68, "velocity": 107, "duration": 240}, {"note": 65, "velocity": 95, "duration": 240}, {"note": 63, "velocity": 100, "duration": 240}, {"note": 60, "velocity": 89, "duration": 240}, {"note": 58, "velocity": 76, "duration": 240}, {"note": 60, "velocity": 90, "duration": 240}, {"note": 68, "velocity": 122, "duration": 240}, {"note": 65, "velocity": 97, "duration": 240}, {"note": 63, "velocity": 95, "duration": 239}, {"note": 63, "velocity": 97, "duration": 480}, {"note": 65, "velocity": 90, "duration": 240}, {"note": 63, "velocity": 76, "duration": 258}, {"note": 65, "velocity": 86, "duration": 240}, {"note": 63, "velocity": 97, "duration": 240}, {"note": 65, "velocity": 86, "duration": 720}, {"note": 60, "velocity": 102, "duration": 249}, {"note": 63, "velocity": 100, "duration": 1440}, {"note": 60, "velocity": 97, "duration": 256}, {"note": 63, "velocity": 100, "duration": 245}, {"note": 65, "velocity": 97, "duration": 720}, {"note": 63, "velocity": 93, "duration": 240}, {"note": 65, "velocity": 92, "duration": 240}, {"note": 72, "velocity": 102, "duration": 241}, {"note": 70, "velocity": 107, "duration": 240}, {"note": 68, "velocity": 107, "duration": 240}, {"note": 65, "velocity": 96, "duration": 267}, {"note": 63, "velocity": 97, "duration": 1200}, {"note": 60, "velocity": 99, "duration": 242}, {"note": 63, "velocity": 92, "duration": 242}, {"note": 65, "velocity": 93, "duration": 720}, {"note": 63, "velocity": 93, "duration": 247}, {"note": 65, "velocity": 82, "duration": 240}, {"note": 72, "velocity": 97, "duration": 266}, {"note": 70, "velocity": 102, "duration": 248}, {"note": 68, "velocity": 97, "duration": 289}, {"note": 70, "velocity": 92, "duration": 1440}, {"note": 68, "velocity": 102, "duration": 253}, {"note": 70, "velocity": 102, "duration": 265}, {"note": 72, "velocity": 97, "duration": 720}, {"note": 70, "velocity": 97, "duration": 239}, {"note": 70, "velocity": 97, "duration": 241}, {"note": 68, "velocity": 99, "duration": 583}, {"note": 65, "velocity": 93, "duration": 256}, {"note": 68, "velocity": 107, "duration": 720}, {"note": 70, "velocity": 107, "duration": 240}, {"note": 68, "velocity": 107, "duration": 123}, {"note": 70, "velocity": 112, "duration": 120}, {"note": 68, "velocity": 107, "duration": 240}, {"note": 65, "velocity": 95, "duration": 240}, {"note": 63, "velocity": 100, "duration": 240}, {"note": 60, "velocity": 89, "duration": 240}, {"note": 58, "velocity": 76, "duration": 240}, {"note": 60, "velocity": 90, "duration": 240}, {"note": 68, "velocity": 122, "duration": 240}, {"note": 65, "velocity": 97, "duration": 240}, {"note": 63, "velocity": 95, "duration": 239}, {"note": 63, "velocity": 97, "duration": 480}, {"note": 65, "velocity": 90, "duration": 240}, {"note": 63, "velocity": 76, "duration": 258}, {"note": 65, "velocity": 86, "duration": 240}, {"note": 63, "velocity": 97, "duration": 240}, {"note": 65, "velocity": 86, "duration": 719}, {"note": 65, "velocity": 99, "duration": 120}, {"note": 68, "velocity": 89, "duration": 135}, {"note": 70, "velocity": 117, "duration": 1440}, {"note": 68, "velocity": 122, "duration": 240}, {"note": 70, "velocity": 107, "duration": 240}, {"note": 72, "velocity": 102, "duration": 479}, {"note": 72, "velocity": 107, "duration": 240}, {"note": 70, "velocity": 112, "duration": 239}, {"note": 70, "velocity": 127, "duration": 480}, {"note": 68, "velocity": 127, "duration": 240}, {"note": 70, "velocity": 127, "duration": 240}, {"note": 72, "velocity": 117, "duration": 264}, {"note": 77, "velocity": 107, "duration": 240}, {"note": 72, "velocity": 102, "duration": 240}, {"note": 70, "velocity": 127, "duration": 239}, {"note": 70, "velocity": 122, "duration": 480}, {"note": 65, "velocity": 100, "duration": 240}, {"note": 67, "velocity": 102, "duration": 240}, {"note": 68, "velocity": 112, "duration": 479}, {"note": 68, "velocity": 122, "duration": 240}, {"note": 72, "velocity": 100, "duration": 240}, {"note": 70, "velocity": 112, "duration": 480}, {"note": 65, "velocity": 97, "duration": 240}, {"note": 67, "velocity": 102, "duration": 240}, {"note": 68, "velocity": 122, "duration": 119}, {"note": 68, "velocity": 122, "duration": 119}, {"note": 68, "velocity": 117, "duration": 120}, {"note": 65, "velocity": 90, "duration": 120}, {"note": 68, "velocity": 112, "duration": 240}, {"note": 72, "velocity": 112, "duration": 240}, {"note": 70, "velocity": 117, "duration": 480}, {"note": 68, "velocity": 122, "duration": 240}, {"note": 70, "velocity": 127, "duration": 240}, {"note": 72, "velocity": 127, "duration": 479}, {"note": 72, "velocity": 127, "duration": 240}, {"note": 70, "velocity": 117, "duration": 239}, {"note": 70, "velocity": 127, "duration": 480}, {"note": 68, "velocity": 127, "duration": 240}, {"note": 70, "velocity": 127, "duration": 240}, {"note": 72, "velocity": 117, "duration": 240}, {"note": 77, "velocity": 127, "duration": 240}, {"note": 72, "velocity": 107, "duration": 240}, {"note": 70, "velocity": 107, "duration": 239}, {"note": 70, "velocity": 107, "duration": 480}, {"note": 65, "velocity": 102, "duration": 240}, {"note": 67, "velocity": 127, "duration": 240}, {"note": 68, "velocity": 127, "duration": 360}, {"note": 65, "velocity": 99, "duration": 120}, {"note": 68, "velocity": 127, "duration": 240}, {"note": 72, "velocity": 127, "duration": 240}, {"note": 70, "velocity": 117, "duration": 720}, {"note": 65, "velocity": 95, "duration": 120}, {"note": 67, "velocity": 100, "duration": 126}, {"note": 68, "velocity": 112, "duration": 239}, {"note": 68, "velocity": 127, "duration": 242}, {"note": 67, "velocity": 99, "duration": 240}, {"note": 65, "velocity": 99, "duration": 720}, {"note": 63, "velocity": 102, "duration": 262}, {"note": 65, "velocity": 102, "duration": 170}, {"note": 67, "velocity": 93, "duration": 360}, {"note": 65, "velocity": 100, "duration": 1953}]]