[[{"note": 71, "velocity": 117, "duration": 167}, {"note": 0, "velocity": 0, "duration": 73}, {"note": 71, "velocity": 117, "duration": 73}, {"note": 0, "velocity": 0, "duration": 167}, {"note": 71, "velocity": 100, "duration": 94}, {"note": 0, "velocity": 0, "duration": 146}, {"note": 71, "velocity": 127, "duration": 120}, {"note": 0, "velocity": 0, "duration": 120}, {"note": 71, "velocity": 122, "duration": 92}, {"note": 69, "velocity": 88, "duration": 101}, {"note": 71, "velocity": 117, "duration": 108}, {"note": 0, "velocity": 0, "duration": 132}, {"note": 71, "velocity": 107, "duration": 45}, {"note": 0, "velocity": 0, "duration": 75}, {"note": 71, "velocity": 100, "duration": 106}, {"note": 0, "velocity": 0, "duration": 134}, {"note": 71, "velocity": 96, "duration": 88}, {"note": 0, "velocity": 0, "duration": 152}, {"note": 71, "velocity": 107, "duration": 80}, {"note": 0, "velocity": 0, "duration": 160}, {"note": 71, "velocity": 100, "duration": 48}, {"note": 0, "velocity": 0, "duration": 72}, {"note": 71, "velocity": 95, "duration": 59}, {"note": 0, "velocity": 0, "duration": 61}, {"note": 73, "velocity": 102, "duration": 83}, {"note": 71, "velocity": 100, "duration": 52}, {"note": 0, "velocity": 0, "duration": 68}, {"note": 71, "velocity": 97, "duration": 69}, {"note": 71, "velocity": 85, "duration": 65}, {"note": 73, "velocity": 100, "duration": 105}, {"note": 69, "velocity": 86, "duration": 169}, {"note": 0, "velocity": 0, "duration": 71}, {"note": 69, "velocity": 107, "duration": 138}, {"note": 0, "velocity": 0, "duration": 342}, {"note": 71, "velocity": 97, "duration": 104}, {"note": 0, "velocity": 0, "duration": 136}, {"note": 71, "velocity": 102, "duration": 93}, {"note": 0, "velocity": 0, "duration": 147}, {"note": 71, "velocity": 99, "duration": 101}, {"note": 0, "velocity": 0, "duration": 139}, {"note": 71, "velocity": 107, "duration": 72}, {"note": 0, "velocity": 0, "duration": 168}, {"note": 73, "velocity": 122, "duration": 111}, {"note": 69, "velocity": 92, "duration": 118}, {"note": 0, "velocity": 0, "duration": 242}, {"note": 69, "velocity": 95, "duration": 46}, {"note": 0, "velocity": 0, "duration": 74}, {"note": 69, "velocity": 89, "duration": 58}, {"note": 0, "velocity": 0, "duration": 62}, {"note": 71, "velocity": 96, "duration": 165}, {"note": 0, "velocity": 0, "duration": 75}, {"note": 71, "velocity": 79, "duration": 45}, {"note": 0, "velocity": 0, "duration": 75}, {"note": 71, "velocity": 99, "duration": 195}, {"note": 0, "velocity": 0, "duration": 165}, {"note": 73, "velocity": 122, "duration": 42}, {"note": 0, "velocity": 0, "duration": 78}, {"note": 69, "velocity": 96, "duration": 476}, {"note": 0, "velocity": 0, "duration": 844}, {"note": 71, "velocity": 99, "duration": 176}, {"note": 0, "velocity": 0, "duration": 64}, {"note": 71, "velocity": 93, "duration": 74}, {"note": 0, "velocity": 0, "duration": 166}, {"note": 71, "velocity": 99, "duration": 98}, {"note": 0, "velocity": 0, "duration": 142}, {"note": 71, "velocity": 112, "duration": 57}, {"note": 0, "velocity": 0, "duration": 183}, {"note": 71, "velocity": 107, "duration": 110}, {"note": 69, "velocity": 88, "duration": 113}, {"note": 71, "velocity": 112, "duration": 148}, {"note": 0, "velocity": 0, "duration": 92}, {"note": 71, "velocity": 97, "duration": 51}, {"note": 0, "velocity": 0, "duration": 69}, {"note": 71, "velocity": 100, "duration": 111}, {"note": 0, "velocity": 0, "duration": 129}, {"note": 71, "velocity": 99, "duration": 148}, {"note": 0, "velocity": 0, "duration": 92}, {"note": 71, "velocity": 99, "duration": 115}, {"note": 0, "velocity": 0, "duration": 125}, {"note": 71, "velocity": 86, "duration": 41}, {"note": 0, "velocity": 0, "duration": 79}, {"note": 71, "velocity": 99, "duration": 72}, {"note": 73, "velocity": 112, "duration": 100}, {"note": 71, "velocity": 93, "duration": 55}, {"note": 0, "velocity": 0, "duration": 65}, {"note": 71, "velocity": 97, "duration": 50}, {"note": 0, "velocity": 0, "duration": 70}, {"note": 71, "velocity": 99, "duration": 83}, {"note": 73, "velocity": 107, "duration": 76}, {"note": 69, "velocity": 102, "duration": 210}, {"note": 69, "velocity": 97, "duration": 107}, {"note": 0, "velocity": 0, "duration": 373}, {"note": 73, "velocity": 117, "duration": 169}, {"note": 0, "velocity": 0, "duration": 71}, {"note": 73, "velocity": 107, "duration": 132}, {"note": 0, "velocity": 0, "duration": 108}, {"note": 76, "velocity": 93, "duration": 129}, {"note": 0, "velocity": 0, "duration": 111}, {"note": 76, "velocity": 112, "duration": 104}, {"note": 0, "velocity": 0, "duration": 136}, {"note": 73, "velocity": 122, "duration": 44}, {"note": 0, "velocity": 0, "duration": 76}, {"note": 73, "velocity": 100, "duration": 119}, {"note": 0, "velocity": 0, "duration": 121}, {"note": 76, "velocity": 96, "duration": 139}, {"note": 0, "velocity": 0, "duration": 101}, {"note": 76, "velocity": 117, "duration": 104}, {"note": 0, "velocity": 0, "duration": 136}, {"note": 73, "velocity": 112, "duration": 224}, {"note": 69, "velocity": 99, "duration": 86}, {"note": 0, "velocity": 0, "duration": 154}, {"note": 64, "velocity": 97, "duration": 150}, {"note": 0, "velocity": 0, "duration": 90}, {"note": 69, "velocity": 117, "duration": 101}, {"note": 0, "velocity": 0, "duration": 139}, {"note": 69, "velocity": 112, "duration": 194}, {"note": 0, "velocity": 0, "duration": 646}, {"note": 73, "velocity": 112, "duration": 199}, {"note": 71, "velocity": 107, "duration": 136}, {"note": 0, "velocity": 0, "duration": 104}, {"note": 69, "velocity": 95, "duration": 175}, {"note": 0, "velocity": 0, "duration": 65}, {"note": 76, "velocity": 96, "duration": 235}, {"note": 73, "velocity": 117, "duration": 211}, {"note": 71, "velocity": 117, "duration": 239}, {"note": 69, "velocity": 95, "duration": 167}, {"note": 0, "velocity": 0, "duration": 73}, {"note": 69, "velocity": 99, "duration": 135}, {"note": 0, "velocity": 0, "duration": 105}, {"note": 69, "velocity": 107, "duration": 274}, {"note": 0, "velocity": 0, "duration": 926}, {"note": 69, "velocity": 102, "duration": 305}, {"note": 0, "velocity": 0, "duration": 415}, {"note": 73, "velocity": 127, "duration": 202}, {"note": 71, "velocity": 100, "duration": 161}, {"note": 0, "velocity": 0, "duration": 79}, {"note": 69, "velocity": 99, "duration": 133}, {"note": 0, "velocity": 0, "duration": 107}, {"note": 76, "velocity": 112, "duration": 282}, {"note": 73, "velocity": 127, "duration": 229}, {"note": 71, "velocity": 107, "duration": 158}, {"note": 0, "velocity": 0, "duration": 82}, {"note": 69, "velocity": 99, "duration": 149}, {"note": 0, "velocity": 0, "duration": 91}, {"note": 69, "velocity": 97, "duration": 161}, {"note": 0, "velocity": 0, "duration": 79}, {"note": 69, "velocity": 107, "duration": 186}, {"note": 0, "velocity": 0, "duration": 1614}, {"note": 64, "velocity": 92, "duration": 87}, {"note": 73, "velocity": 102, "duration": 193}, {"note": 71, "velocity": 107, "duration": 189}, {"note": 69, "velocity": 89, "duration": 164}, {"note": 0, "velocity": 0, "duration": 76}, {"note": 76, "velocity": 122, "duration": 202}, {"note": 73, "velocity": 107, "duration": 164}, {"note": 0, "velocity": 0, "duration": 76}, {"note": 71, "velocity": 95, "duration": 187}, {"note": 69, "velocity": 99, "duration": 164}, {"note": 0, "velocity": 0, "duration": 76}, {"note": 78, "velocity": 112, "duration": 235}, {"note": 78, "velocity": 127, "duration": 115}, {"note": 0, "velocity": 0, "duration": 245}, {"note": 76, "velocity": 97, "duration": 70}, {"note": 76, "velocity": 97, "duration": 243}, {"note": 0, "velocity": 0, "duration": 117}, {"note": 78, "velocity": 112, "duration": 76}, {"note": 76, "velocity": 117, "duration": 254}, {"note": 73, "velocity": 122, "duration": 350}, {"note": 0, "velocity": 0, "duration": 130}, {"note": 64, "velocity": 93, "duration": 133}, {"note": 73, "velocity": 107, "duration": 138}, {"note": 76, "velocity": 93, "duration": 154}, {"note": 78, "velocity": 117, "duration": 174}, {"note": 0, "velocity": 0, "duration": 66}, {"note": 78, "velocity": 122, "duration": 193}, {"note": 78, "velocity": 112, "duration": 163}, {"note": 0, "velocity": 0, "duration": 77}, {"note": 76, "velocity": 97, "duration": 52}, {"note": 0, "velocity": 0, "duration": 68}, {"note": 76, "velocity": 107, "duration": 319}, {"note": 73, "velocity": 112, "duration": 52}, {"note": 0, "velocity": 0, "duration": 68}, {"note": 73, "velocity": 112, "duration": 263}, {"note": 0, "velocity": 0, "duration": 97}, {"note": 76, "velocity": 99, "duration": 56}, {"note": 0, "velocity": 0, "duration": 64}, {"note": 76, "velocity": 117, "duration": 519}, {"note": 81, "velocity": 100, "duration": 57}, {"note": 81, "velocity": 107, "duration": 316}, {"note": 78, "velocity": 112, "duration": 463}, {"note": 76, "velocity": 112, "duration": 471}, {"note": 0, "velocity": 0, "duration": 129}, {"note": 66, "velocity": 117, "duration": 97}, {"note": 68, "velocity": 102, "duration": 76}, {"note": 69, "velocity": 100, "duration": 183}, {"note": 69, "velocity": 117, "duration": 153}, {"note": 0, "velocity": 0, "duration": 87}, {"note": 69, "velocity": 117, "duration": 148}, {"note": 0, "velocity": 0, "duration": 92}, {"note": 69, "velocity": 122, "duration": 141}, {"note": 0, "velocity": 0, "duration": 99}, {"note": 71, "velocity": 112, "duration": 183}, {"note": 71, "velocity": 93, "duration": 225}, {"note": 73, "velocity": 127, "duration": 156}, {"note": 0, "velocity": 0, "duration": 84}, {"note": 73, "velocity": 127, "duration": 183}, {"note": 0, "velocity": 0, "duration": 1017}, {"note": 71, "velocity": 117, "duration": 220}, {"note": 73, "velocity": 112, "duration": 181}, {"note": 74, "velocity": 107, "duration": 198}, {"note": 76, "velocity": 102, "duration": 225}, {"note": 69, "velocity": 102, "duration": 231}, {"note": 69, "velocity": 99, "duration": 160}, {"note": 0, "velocity": 0, "duration": 80}, {"note": 69, "velocity": 99, "duration": 147}, {"note": 0, "velocity": 0, "duration": 93}, {"note": 69, "velocity": 99, "duration": 220}, {"note": 71, "velocity": 102, "duration": 136}, {"note": 0, "velocity": 0, "duration": 104}, {"note": 71, "velocity": 112, "duration": 181}, {"note": 73, "velocity": 117, "duration": 155}, {"note": 0, "velocity": 0, "duration": 85}, {"note": 73, "velocity": 122, "duration": 653}, {"note": 0, "velocity": 0, "duration": 787}, {"note": 73, "velocity": 107, "duration": 217}, {"note": 76, "velocity": 93, "duration": 177}, {"note": 0, "velocity": 0, "duration": 63}, {"note": 80, "velocity": 99, "duration": 219}, {"note": 78, "velocity": 117, "duration": 194}, {"note": 80, "velocity": 127, "duration": 147}, {"note": 0, "velocity": 0, "duration": 93}, {"note": 80, "velocity": 117, "duration": 204}, {"note": 78, "velocity": 117, "duration": 239}, {"note": 78, "velocity": 127, "duration": 186}, {"note": 80, "velocity": 112, "duration": 147}, {"note": 0, "velocity": 0, "duration": 93}, {"note": 80, "velocity": 117, "duration": 177}, {"note": 0, "velocity": 0, "duration": 63}, {"note": 78, "velocity": 127, "duration": 160}, {"note": 0, "velocity": 0, "duration": 80}, {"note": 78, "velocity": 117, "duration": 149}, {"note": 0, "velocity": 0, "duration": 91}, {"note": 78, "velocity": 122, "duration": 153}, {"note": 0, "velocity": 0, "duration": 87}, {"note": 78, "velocity": 122, "duration": 160}, {"note": 0, "velocity": 0, "duration": 80}, {"note": 76, "velocity": 100, "duration": 351}, {"note": 0, "velocity": 0, "duration": 129}, {"note": 76, "velocity": 95, "duration": 107}, {"note": 0, "velocity": 0, "duration": 133}, {"note": 76, "velocity": 96, "duration": 146}, {"note": 0, "velocity": 0, "duration": 94}, {"note": 73, "velocity": 99, "duration": 177}, {"note": 0, "velocity": 0, "duration": 63}, {"note": 76, "velocity": 95, "duration": 161}, {"note": 0, "velocity": 0, "duration": 79}, {"note": 76, "velocity": 122, "duration": 174}, {"note": 0, "velocity": 0, "duration": 66}, {"note": 76, "velocity": 95, "duration": 142}, {"note": 0, "velocity": 0, "duration": 98}, {"note": 73, "velocity": 127, "duration": 179}, {"note": 0, "velocity": 0, "duration": 61}, {"note": 76, "velocity": 97, "duration": 147}, {"note": 0, "velocity": 0, "duration": 93}, {"note": 76, "velocity": 112, "duration": 167}, {"note": 0, "velocity": 0, "duration": 73}, {"note": 76, "velocity": 107, "duration": 173}, {"note": 0, "velocity": 0, "duration": 67}, {"note": 73, "velocity": 127, "duration": 156}, {"note": 0, "velocity": 0, "duration": 84}, {"note": 73, "velocity": 122, "duration": 187}, {"note": 71, "velocity": 99, "duration": 153}, {"note": 0, "velocity": 0, "duration": 87}, {"note": 69, "velocity": 100, "duration": 145}, {"note": 0, "velocity": 0, "duration": 95}, {"note": 71, "velocity": 112, "duration": 495}, {"note": 0, "velocity": 0, "duration": 225}, {"note": 66, "velocity": 117, "duration": 169}, {"note": 0, "velocity": 0, "duration": 71}, {"note": 68, "velocity": 102, "duration": 157}, {"note": 0, "velocity": 0, "duration": 83}, {"note": 69, "velocity": 112, "duration": 164}, {"note": 0, "velocity": 0, "duration": 76}, {"note": 69, "velocity": 100, "duration": 165}, {"note": 0, "velocity": 0, "duration": 75}, {"note": 69, "velocity": 112, "duration": 159}, {"note": 0, "velocity": 0, "duration": 81}, {"note": 69, "velocity": 102, "duration": 156}, {"note": 0, "velocity": 0, "duration": 84}, {"note": 71, "velocity": 100, "duration": 142}, {"note": 0, "velocity": 0, "duration": 98}, {"note": 71, "velocity": 107, "duration": 157}, {"note": 0, "velocity": 0, "duration": 83}, {"note": 73, "velocity": 127, "duration": 143}, {"note": 0, "velocity": 0, "duration": 97}, {"note": 73, "velocity": 127, "duration": 238}, {"note": 0, "velocity": 0, "duration": 962}, {"note": 71, "velocity": 100, "duration": 171}, {"note": 0, "velocity": 0, "duration": 69}, {"note": 73, "velocity": 112, "duration": 167}, {"note": 0, "velocity": 0, "duration": 73}, {"note": 74, "velocity": 97, "duration": 160}, {"note": 0, "velocity": 0, "duration": 80}, {"note": 76, "velocity": 112, "duration": 177}, {"note": 0, "velocity": 0, "duration": 63}, {"note": 69, "velocity": 95, "duration": 146}, {"note": 0, "velocity": 0, "duration": 94}, {"note": 69, "velocity": 107, "duration": 131}, {"note": 0, "velocity": 0, "duration": 109}, {"note": 69, "velocity": 100, "duration": 136}, {"note": 0, "velocity": 0, "duration": 104}, {"note": 69, "velocity": 107, "duration": 155}, {"note": 0, "velocity": 0, "duration": 85}, {"note": 71, "velocity": 117, "duration": 128}, {"note": 0, "velocity": 0, "duration": 112}, {"note": 71, "velocity": 112, "duration": 108}, {"note": 0, "velocity": 0, "duration": 132}, {"note": 73, "velocity": 112, "duration": 168}, {"note": 0, "velocity": 0, "duration": 72}, {"note": 73, "velocity": 127, "duration": 973}, {"note": 0, "velocity": 0, "duration": 467}, {"note": 73, "velocity": 112, "duration": 192}, {"note": 76, "velocity": 96, "duration": 128}, {"note": 0, "velocity": 0, "duration": 112}, {"note": 80, "velocity": 107, "duration": 172}, {"note": 0, "velocity": 0, "duration": 68}, {"note": 78, "velocity": 127, "duration": 212}, {"note": 80, "velocity": 117, "duration": 143}, {"note": 0, "velocity": 0, "duration": 97}, {"note": 80, "velocity": 122, "duration": 154}, {"note": 0, "velocity": 0, "duration": 86}, {"note": 78, "velocity": 127, "duration": 131}, {"note": 0, "velocity": 0, "duration": 109}, {"note": 78, "velocity": 127, "duration": 150}, {"note": 0, "velocity": 0, "duration": 90}, {"note": 80, "velocity": 127, "duration": 130}, {"note": 0, "velocity": 0, "duration": 110}, {"note": 80, "velocity": 122, "duration": 136}, {"note": 0, "velocity": 0, "duration": 104}, {"note": 78, "velocity": 122, "duration": 143}, {"note": 0, "velocity": 0, "duration": 97}, {"note": 78, "velocity": 127, "duration": 211}, {"note": 78, "velocity": 127, "duration": 154}, {"note": 0, "velocity": 0, "duration": 86}, {"note": 78, "velocity": 112, "duration": 146}, {"note": 0, "velocity": 0, "duration": 94}, {"note": 76, "velocity": 102, "duration": 298}, {"note": 0, "velocity": 0, "duration": 182}, {"note": 76, "velocity": 95, "duration": 155}, {"note": 0, "velocity": 0, "duration": 85}, {"note": 76, "velocity": 102, "duration": 145}, {"note": 0, "velocity": 0, "duration": 95}, {"note": 73, "velocity": 100, "duration": 175}, {"note": 0, "velocity": 0, "duration": 65}, {"note": 76, "velocity": 100, "duration": 155}, {"note": 0, "velocity": 0, "duration": 85}, {"note": 76, "velocity": 112, "duration": 141}, {"note": 0, "velocity": 0, "duration": 99}, {"note": 76, "velocity": 102, "duration": 140}, {"note": 0, "velocity": 0, "duration": 100}, {"note": 73, "velocity": 112, "duration": 162}, {"note": 0, "velocity": 0, "duration": 78}, {"note": 76, "velocity": 107, "duration": 154}, {"note": 0, "velocity": 0, "duration": 86}, {"note": 76, "velocity": 117, "duration": 141}, {"note": 0, "velocity": 0, "duration": 99}, {"note": 76, "velocity": 117, "duration": 151}, {"note": 0, "velocity": 0, "duration": 89}, {"note": 73, "velocity": 112, "duration": 193}, {"note": 73, "velocity": 127, "duration": 179}, {"note": 0, "velocity": 0, "duration": 61}, {"note": 71, "velocity": 97, "duration": 152}, {"note": 0, "velocity": 0, "duration": 88}, {"note": 69, "velocity": 99, "duration": 195}, {"note": 71, "velocity": 127, "duration": 332}, {"note": 0, "velocity": 0, "duration": 148}, {"note": 73, "velocity": 112, "duration": 245}, {"note": 71, "velocity": 99, "duration": 244}, {"note": 69, "velocity": 96, "duration": 1274}, {"note": 0, "velocity": 0, "duration": 14326}, {"note": 73, "velocity": 112, "duration": 199}, {"note": 71, "velocity": 107, "duration": 136}, {"note": 0, "velocity": 0, "duration": 104}, {"note": 69, "velocity": 95, "duration": 175}, {"note": 0, "velocity": 0, "duration": 65}, {"note": 76, "velocity": 96, "duration": 235}, {"note": 73, "velocity": 117, "duration": 211}, {"note": 71, "velocity": 117, "duration": 239}, {"note": 69, "velocity": 95, "duration": 167}, {"note": 0, "velocity": 0, "duration": 73}, {"note": 69, "velocity": 99, "duration": 135}, {"note": 0, "velocity": 0, "duration": 105}, {"note": 69, "velocity": 107, "duration": 274}, {"note": 0, "velocity": 0, "duration": 926}, {"note": 69, "velocity": 102, "duration": 305}, {"note": 0, "velocity": 0, "duration": 415}, {"note": 73, "velocity": 127, "duration": 202}, {"note": 71, "velocity": 100, "duration": 161}, {"note": 0, "velocity": 0, "duration": 79}, {"note": 69, "velocity": 99, "duration": 133}, {"note": 0, "velocity": 0, "duration": 107}, {"note": 76, "velocity": 112, "duration": 282}, {"note": 73, "velocity": 127, "duration": 229}, {"note": 71, "velocity": 107, "duration": 158}, {"note": 0, "velocity": 0, "duration": 82}, {"note": 69, "velocity": 99, "duration": 149}, {"note": 0, "velocity": 0, "duration": 91}, {"note": 69, "velocity": 97, "duration": 161}, {"note": 0, "velocity": 0, "duration": 79}, {"note": 69, "velocity": 107, "duration": 186}, {"note": 0, "velocity": 0, "duration": 1614}, {"note": 64, "velocity": 92, "duration": 87}, {"note": 73, "velocity": 102, "duration": 193}, {"note": 71, "velocity": 107, "duration": 189}, {"note": 69, "velocity": 89, "duration": 164}, {"note": 0, "velocity": 0, "duration": 76}, {"note": 76, "velocity": 122, "duration": 202}, {"note": 73, "velocity": 107, "duration": 164}, {"note": 0, "velocity": 0, "duration": 76}, {"note": 71, "velocity": 95, "duration": 187}, {"note": 69, "velocity": 99, "duration": 164}, {"note": 0, "velocity": 0, "duration": 76}, {"note": 78, "velocity": 112, "duration": 235}, {"note": 78, "velocity": 127, "duration": 115}, {"note": 0, "velocity": 0, "duration": 245}, {"note": 76, "velocity": 97, "duration": 70}, {"note": 76, "velocity": 97, "duration": 243}, {"note": 0, "velocity": 0, "duration": 117}, {"note": 78, "velocity": 112, "duration": 76}, {"note": 76, "velocity": 117, "duration": 254}, {"note": 73, "velocity": 122, "duration": 350}, {"note": 0, "velocity": 0, "duration": 130}, {"note": 64, "velocity": 93, "duration": 133}, {"note": 73, "velocity": 107, "duration": 138}, {"note": 76, "velocity": 93, "duration": 154}, {"note": 78, "velocity": 117, "duration": 174}, {"note": 0, "velocity": 0, "duration": 66}, {"note": 78, "velocity": 122, "duration": 193}, {"note": 78, "velocity": 112, "duration": 163}, {"note": 0, "velocity": 0, "duration": 77}, {"note": 76, "velocity": 97, "duration": 52}, {"note": 0, "velocity": 0, "duration": 68}, {"note": 76, "velocity": 107, "duration": 319}, {"note": 73, "velocity": 112, "duration": 52}, {"note": 0, "velocity": 0, "duration": 68}, {"note": 73, "velocity": 112, "duration": 263}, {"note": 0, "velocity": 0, "duration": 97}, {"note": 76, "velocity": 99, "duration": 56}, {"note": 0, "velocity": 0, "duration": 64}, {"note": 76, "velocity": 117, "duration": 519}, {"note": 81, "velocity": 100, "duration": 57}, {"note": 81, "velocity": 107, "duration": 316}, {"note": 78, "velocity": 112, "duration": 463}, {"note": 76, "velocity": 112, "duration": 471}, {"note": 0, "velocity": 0, "duration": 129}, {"note": 66, "velocity": 117, "duration": 97}, {"note": 68, "velocity": 102, "duration": 76}, {"note": 69, "velocity": 100, "duration": 183}, {"note": 69, "velocity": 117, "duration": 153}, {"note": 0, "velocity": 0, "duration": 87}, {"note": 69, "velocity": 117, "duration": 148}, {"note": 0, "velocity": 0, "duration": 92}, {"note": 69, "velocity": 122, "duration": 141}, {"note": 0, "velocity": 0, "duration": 99}, {"note": 71, "velocity": 112, "duration": 183}, {"note": 71, "velocity": 93, "duration": 225}, {"note": 73, "velocity": 127, "duration": 156}, {"note": 0, "velocity": 0, "duration": 84}, {"note": 73, "velocity": 127, "duration": 183}, {"note": 0, "velocity": 0, "duration": 1017}, {"note": 71, "velocity": 117, "duration": 220}, {"note": 73, "velocity": 112, "duration": 181}, {"note": 74, "velocity": 107, "duration": 198}, {"note": 76, "velocity": 102, "duration": 225}, {"note": 69, "velocity": 102, "duration": 231}, {"note": 69, "velocity": 99, "duration": 160}, {"note": 0, "velocity": 0, "duration": 80}, {"note": 69, "velocity": 99, "duration": 147}, {"note": 0, "velocity": 0, "duration": 93}, {"note": 69, "velocity": 99, "duration": 220}, {"note": 71, "velocity": 102, "duration": 136}, {"note": 0, "velocity": 0, "duration": 104}, {"note": 71, "velocity": 112, "duration": 181}, {"note": 73, "velocity": 117, "duration": 155}, {"note": 0, "velocity": 0, "duration": 85}, {"note": 73, "velocity": 122, "duration": 653}, {"note": 0, "velocity": 0, "duration": 787}, {"note": 73, "velocity": 107, "duration": 217}, {"note": 76, "velocity": 93, "duration": 177}, {"note": 0, "velocity": 0, "duration": 63}, {"note": 80, "velocity": 99, "duration": 219}, {"note": 78, "velocity": 117, "duration": 194}, {"note": 80, "velocity": 127, "duration": 147}, {"note": 0, "velocity": 0, "duration": 93}, {"note": 80, "velocity": 117, "duration": 204}, {"note": 78, "velocity": 117, "duration": 239}, {"note": 78, "velocity": 127, "duration": 186}, {"note": 80, "velocity": 112, "duration": 147}, {"note": 0, "velocity": 0, "duration": 93}, {"note": 80, "velocity": 117, "duration": 177}, {"note": 0, "velocity": 0, "duration": 63}, {"note": 78, "velocity": 127, "duration": 160}, {"note": 0, "velocity": 0, "duration": 80}, {"note": 78, "velocity": 117, "duration": 149}, {"note": 0, "velocity": 0, "duration": 91}, {"note": 78, "velocity": 122, "duration": 153}, {"note": 0, "velocity": 0, "duration": 87}, {"note": 78, "velocity": 122, "duration": 160}, {"note": 0, "velocity": 0, "duration": 80}, {"note": 76, "velocity": 100, "duration": 351}, {"note": 0, "velocity": 0, "duration": 129}, {"note": 76, "velocity": 95, "duration": 107}, {"note": 0, "velocity": 0, "duration": 133}, {"note": 76, "velocity": 96, "duration": 146}, {"note": 0, "velocity": 0, "duration": 94}, {"note": 73, "velocity": 99, "duration": 177}, {"note": 0, "velocity": 0, "duration": 63}, {"note": 76, "velocity": 95, "duration": 161}, {"note": 0, "velocity": 0, "duration": 79}, {"note": 76, "velocity": 122, "duration": 174}, {"note": 0, "velocity": 0, "duration": 66}, {"note": 76, "velocity": 95, "duration": 142}, {"note": 0, "velocity": 0, "duration": 98}, {"note": 73, "velocity": 127, "duration": 179}, {"note": 0, "velocity": 0, "duration": 61}, {"note": 76, "velocity": 97, "duration": 147}, {"note": 0, "velocity": 0, "duration": 93}, {"note": 76, "velocity": 112, "duration": 167}, {"note": 0, "velocity": 0, "duration": 73}, {"note": 76, "velocity": 107, "duration": 173}, {"note": 0, "velocity": 0, "duration": 67}, {"note": 73, "velocity": 127, "duration": 156}, {"note": 0, "velocity": 0, "duration": 84}, {"note": 73, "velocity": 122, "duration": 187}, {"note": 71, "velocity": 99, "duration": 153}, {"note": 0, "velocity": 0, "duration": 87}, {"note": 69, "velocity": 100, "duration": 145}, {"note": 0, "velocity": 0, "duration": 95}, {"note": 71, "velocity": 112, "duration": 495}, {"note": 0, "velocity": 0, "duration": 225}, {"note": 66, "velocity": 117, "duration": 169}, {"note": 0, "velocity": 0, "duration": 71}, {"note": 68, "velocity": 102, "duration": 157}, {"note": 0, "velocity": 0, "duration": 83}, {"note": 69, "velocity": 112, "duration": 164}, {"note": 0, "velocity": 0, "duration": 76}, {"note": 69, "velocity": 100, "duration": 165}, {"note": 0, "velocity": 0, "duration": 75}, {"note": 69, "velocity": 112, "duration": 159}, {"note": 0, "velocity": 0, "duration": 81}, {"note": 69, "velocity": 102, "duration": 156}, {"note": 0, "velocity": 0, "duration": 84}, {"note": 71, "velocity": 100, "duration": 142}, {"note": 0, "velocity": 0, "duration": 98}, {"note": 71, "velocity": 107, "duration": 157}, {"note": 0, "velocity": 0, "duration": 83}, {"note": 73, "velocity": 127, "duration": 143}, {"note": 0, "velocity": 0, "duration": 97}, {"note": 73, "velocity": 127, "duration": 238}, {"note": 0, "velocity": 0, "duration": 962}, {"note": 71, "velocity": 100, "duration": 171}, {"note": 0, "velocity": 0, "duration": 69}, {"note": 73, "velocity": 112, "duration": 167}, {"note": 0, "velocity": 0, "duration": 73}, {"note": 74, "velocity": 97, "duration": 160}, {"note": 0, "velocity": 0, "duration": 80}, {"note": 76, "velocity": 112, "duration": 177}, {"note": 0, "velocity": 0, "duration": 63}, {"note": 69, "velocity": 95, "duration": 146}, {"note": 0, "velocity": 0, "duration": 94}, {"note": 69, "velocity": 107, "duration": 131}, {"note": 0, "velocity": 0, "duration": 109}, {"note": 69, "velocity": 100, "duration": 136}, {"note": 0, "velocity": 0, "duration": 104}, {"note": 69, "velocity": 107, "duration": 155}, {"note": 0, "velocity": 0, "duration": 85}, {"note": 71, "velocity": 117, "duration": 128}, {"note": 0, "velocity": 0, "duration": 112}, {"note": 71, "velocity": 112, "duration": 108}, {"note": 0, "velocity": 0, "duration": 132}, {"note": 73, "velocity": 112, "duration": 168}, {"note": 0, "velocity": 0, "duration": 72}, {"note": 73, "velocity": 127, "duration": 973}, {"note": 0, "velocity": 0, "duration": 467}, {"note": 73, "velocity": 112, "duration": 192}, {"note": 76, "velocity": 96, "duration": 128}, {"note": 0, "velocity": 0, "duration": 112}, {"note": 80, "velocity": 107, "duration": 172}, {"note": 0, "velocity": 0, "duration": 68}, {"note": 78, "velocity": 127, "duration": 212}, {"note": 80, "velocity": 117, "duration": 143}, {"note": 0, "velocity": 0, "duration": 97}, {"note": 80, "velocity": 122, "duration": 154}, {"note": 0, "velocity": 0, "duration": 86}, {"note": 78, "velocity": 127, "duration": 131}, {"note": 0, "velocity": 0, "duration": 109}, {"note": 78, "velocity": 127, "duration": 150}, {"note": 0, "velocity": 0, "duration": 90}, {"note": 80, "velocity": 127, "duration": 130}, {"note": 0, "velocity": 0, "duration": 110}, {"note": 80, "velocity": 122, "duration": 136}, {"note": 0, "velocity": 0, "duration": 104}, {"note": 78, "velocity": 122, "duration": 143}, {"note": 0, "velocity": 0, "duration": 97}, {"note": 78, "velocity": 127, "duration": 211}, {"note": 78, "velocity": 127, "duration": 154}, {"note": 0, "velocity": 0, "duration": 86}, {"note": 78, "velocity": 112, "duration": 146}, {"note": 0, "velocity": 0, "duration": 94}, {"note": 76, "velocity": 102, "duration": 298}, {"note": 0, "velocity": 0, "duration": 182}, {"note": 76, "velocity": 95, "duration": 155}, {"note": 0, "velocity": 0, "duration": 85}, {"note": 76, "velocity": 102, "duration": 145}, {"note": 0, "velocity": 0, "duration": 95}, {"note": 73, "velocity": 100, "duration": 175}, {"note": 0, "velocity": 0, "duration": 65}, {"note": 76, "velocity": 100, "duration": 155}, {"note": 0, "velocity": 0, "duration": 85}, {"note": 76, "velocity": 112, "duration": 141}, {"note": 0, "velocity": 0, "duration": 99}, {"note": 76, "velocity": 102, "duration": 140}, {"note": 0, "velocity": 0, "duration": 100}, {"note": 73, "velocity": 112, "duration": 162}, {"note": 0, "velocity": 0, "duration": 78}, {"note": 76, "velocity": 107, "duration": 154}, {"note": 0, "velocity": 0, "duration": 86}, {"note": 76, "velocity": 117, "duration": 141}, {"note": 0, "velocity": 0, "duration": 99}, {"note": 76, "velocity": 117, "duration": 151}, {"note": 0, "velocity": 0, "duration": 89}, {"note": 73, "velocity": 112, "duration": 193}, {"note": 73, "velocity": 127, "duration": 179}, {"note": 0, "velocity": 0, "duration": 61}, {"note": 71, "velocity": 97, "duration": 152}, {"note": 0, "velocity": 0, "duration": 88}, {"note": 69, "velocity": 99, "duration": 195}, {"note": 71, "velocity": 127, "duration": 332}, {"note": 0, "velocity": 0, "duration": 652}, {"note": 69, "velocity": 112, "duration": 73}, {"note": 0, "velocity": 0, "duration": 64}, {"note": 69, "velocity": 102, "duration": 1672}, {"note": 0, "velocity": 0, "duration": 566}, {"note": 71, "velocity": 112, "duration": 145}, {"note": 69, "velocity": 78, "duration": 145}, {"note": 73, "velocity": 117, "duration": 265}, {"note": 71, "velocity": 107, "duration": 899}]]