[[{"note": 71, "velocity": 112, "duration": 119}, {"note": 71, "velocity": 89, "duration": 119}, {"note": 71, "velocity": 112, "duration": 359}, {"note": 71, "velocity": 99, "duration": 120}, {"note": 73, "velocity": 112, "duration": 240}, {"note": 75, "velocity": 107, "duration": 120}, {"note": 71, "velocity": 107, "duration": 479}, {"note": 71, "velocity": 95, "duration": 135}, {"note": 70, "velocity": 102, "duration": 240}, {"note": 78, "velocity": 100, "duration": 239}, {"note": 78, "velocity": 122, "duration": 240}, {"note": 73, "velocity": 122, "duration": 120}, {"note": 75, "velocity": 117, "duration": 719}, {"note": 75, "velocity": 127, "duration": 120}, {"note": 73, "velocity": 99, "duration": 120}, {"note": 75, "velocity": 117, "duration": 120}, {"note": 73, "velocity": 112, "duration": 240}, {"note": 71, "velocity": 89, "duration": 119}, {"note": 71, "velocity": 102, "duration": 840}, {"note": 76, "velocity": 107, "duration": 120}, {"note": 75, "velocity": 97, "duration": 120}, {"note": 71, "velocity": 95, "duration": 360}, {"note": 68, "velocity": 102, "duration": 251}, {"note": 66, "velocity": 96, "duration": 2040}, {"note": 71, "velocity": 112, "duration": 119}, {"note": 71, "velocity": 89, "duration": 119}, {"note": 71, "velocity": 112, "duration": 359}, {"note": 71, "velocity": 99, "duration": 120}, {"note": 73, "velocity": 112, "duration": 119}, {"note": 73, "velocity": 127, "duration": 120}, {"note": 75, "velocity": 107, "duration": 120}, {"note": 71, "velocity": 107, "duration": 479}, {"note": 71, "velocity": 95, "duration": 135}, {"note": 70, "velocity": 102, "duration": 240}, {"note": 78, "velocity": 100, "duration": 239}, {"note": 78, "velocity": 122, "duration": 240}, {"note": 75, "velocity": 122, "duration": 123}, {"note": 80, "velocity": 99, "duration": 240}, {"note": 78, "velocity": 99, "duration": 480}, {"note": 75, "velocity": 122, "duration": 119}, {"note": 75, "velocity": 107, "duration": 120}, {"note": 73, "velocity": 100, "duration": 120}, {"note": 71, "velocity": 99, "duration": 119}, {"note": 71, "velocity": 81, "duration": 120}, {"note": 80, "velocity": 112, "duration": 119}, {"note": 80, "velocity": 127, "duration": 480}, {"note": 71, "velocity": 89, "duration": 120}, {"note": 70, "velocity": 97, "duration": 240}, {"note": 78, "velocity": 96, "duration": 119}, {"note": 78, "velocity": 112, "duration": 479}, {"note": 78, "velocity": 127, "duration": 120}, {"note": 80, "velocity": 127, "duration": 120}, {"note": 83, "velocity": 96, "duration": 119}, {"note": 83, "velocity": 112, "duration": 119}, {"note": 83, "velocity": 127, "duration": 119}, {"note": 83, "velocity": 127, "duration": 240}, {"note": 78, "velocity": 117, "duration": 120}, {"note": 80, "velocity": 127, "duration": 240}, {"note": 78, "velocity": 107, "duration": 1199}, {"note": 78, "velocity": 117, "duration": 119}, {"note": 78, "velocity": 127, "duration": 120}, {"note": 76, "velocity": 88, "duration": 120}, {"note": 75, "velocity": 102, "duration": 120}, {"note": 76, "velocity": 90, "duration": 120}, {"note": 78, "velocity": 127, "duration": 251}, {"note": 80, "velocity": 79, "duration": 141}, {"note": 78, "velocity": 122, "duration": 240}, {"note": 75, "velocity": 117, "duration": 360}, {"note": 78, "velocity": 127, "duration": 240}, {"note": 80, "velocity": 112, "duration": 120}, {"note": 78, "velocity": 127, "duration": 240}, {"note": 73, "velocity": 122, "duration": 480}, {"note": 71, "velocity": 89, "duration": 120}, {"note": 83, "velocity": 95, "duration": 172}, {"note": 82, "velocity": 122, "duration": 120}, {"note": 80, "velocity": 122, "duration": 240}, {"note": 78, "velocity": 122, "duration": 120}, {"note": 75, "velocity": 112, "duration": 240}, {"note": 78, "velocity": 127, "duration": 960}, {"note": 71, "velocity": 92, "duration": 120}, {"note": 83, "velocity": 96, "duration": 120}, {"note": 82, "velocity": 100, "duration": 120}, {"note": 80, "velocity": 127, "duration": 120}, {"note": 78, "velocity": 127, "duration": 240}, {"note": 75, "velocity": 117, "duration": 120}, {"note": 78, "velocity": 127, "duration": 480}, {"note": 75, "velocity": 127, "duration": 120}, {"note": 73, "velocity": 122, "duration": 240}, {"note": 71, "velocity": 92, "duration": 120}, {"note": 73, "velocity": 127, "duration": 240}, {"note": 75, "velocity": 117, "duration": 120}, {"note": 80, "velocity": 127, "duration": 240}, {"note": 75, "velocity": 127, "duration": 360}, {"note": 73, "velocity": 127, "duration": 391}, {"note": 78, "velocity": 122, "duration": 119}, {"note": 78, "velocity": 127, "duration": 120}, {"note": 76, "velocity": 127, "duration": 120}, {"note": 75, "velocity": 117, "duration": 120}, {"note": 76, "velocity": 112, "duration": 120}, {"note": 78, "velocity": 127, "duration": 240}, {"note": 80, "velocity": 127, "duration": 120}, {"note": 78, "velocity": 127, "duration": 240}, {"note": 75, "velocity": 122, "duration": 360}, {"note": 78, "velocity": 127, "duration": 240}, {"note": 80, "velocity": 117, "duration": 120}, {"note": 78, "velocity": 127, "duration": 240}, {"note": 73, "velocity": 117, "duration": 480}, {"note": 71, "velocity": 96, "duration": 140}, {"note": 83, "velocity": 112, "duration": 120}, {"note": 85, "velocity": 127, "duration": 134}, {"note": 82, "velocity": 127, "duration": 120}, {"note": 78, "velocity": 122, "duration": 240}, {"note": 75, "velocity": 117, "duration": 240}, {"note": 80, "velocity": 122, "duration": 147}, {"note": 78, "velocity": 117, "duration": 840}, {"note": 71, "velocity": 93, "duration": 120}, {"note": 83, "velocity": 112, "duration": 120}, {"note": 82, "velocity": 127, "duration": 120}, {"note": 80, "velocity": 122, "duration": 130}, {"note": 78, "velocity": 127, "duration": 240}, {"note": 75, "velocity": 107, "duration": 121}, {"note": 78, "velocity": 127, "duration": 480}, {"note": 75, "velocity": 127, "duration": 240}, {"note": 73, "velocity": 127, "duration": 240}, {"note": 71, "velocity": 117, "duration": 240}, {"note": 73, "velocity": 127, "duration": 960}, {"note": 76, "velocity": 96, "duration": 134}, {"note": 75, "velocity": 102, "duration": 240}, {"note": 71, "velocity": 97, "duration": 480}, {"note": 68, "velocity": 96, "duration": 360}, {"note": 71, "velocity": 96, "duration": 2251}, {"note": 0, "velocity": 0, "duration": 6149}, {"note": 71, "velocity": 112, "duration": 119}, {"note": 71, "velocity": 89, "duration": 119}, {"note": 71, "velocity": 112, "duration": 359}, {"note": 71, "velocity": 99, "duration": 120}, {"note": 73, "velocity": 112, "duration": 240}, {"note": 75, "velocity": 107, "duration": 120}, {"note": 71, "velocity": 107, "duration": 479}, {"note": 71, "velocity": 95, "duration": 135}, {"note": 70, "velocity": 102, "duration": 240}, {"note": 78, "velocity": 100, "duration": 239}, {"note": 78, "velocity": 122, "duration": 240}, {"note": 73, "velocity": 122, "duration": 120}, {"note": 75, "velocity": 117, "duration": 719}, {"note": 75, "velocity": 127, "duration": 120}, {"note": 73, "velocity": 99, "duration": 120}, {"note": 75, "velocity": 117, "duration": 120}, {"note": 73, "velocity": 112, "duration": 240}, {"note": 71, "velocity": 89, "duration": 119}, {"note": 71, "velocity": 102, "duration": 840}, {"note": 76, "velocity": 107, "duration": 120}, {"note": 75, "velocity": 97, "duration": 120}, {"note": 71, "velocity": 95, "duration": 360}, {"note": 68, "velocity": 102, "duration": 251}, {"note": 66, "velocity": 96, "duration": 2040}, {"note": 71, "velocity": 112, "duration": 119}, {"note": 71, "velocity": 89, "duration": 119}, {"note": 71, "velocity": 112, "duration": 359}, {"note": 71, "velocity": 99, "duration": 120}, {"note": 73, "velocity": 112, "duration": 119}, {"note": 73, "velocity": 127, "duration": 120}, {"note": 75, "velocity": 107, "duration": 120}, {"note": 71, "velocity": 107, "duration": 479}, {"note": 71, "velocity": 95, "duration": 135}, {"note": 70, "velocity": 102, "duration": 240}, {"note": 78, "velocity": 100, "duration": 239}, {"note": 78, "velocity": 122, "duration": 240}, {"note": 75, "velocity": 122, "duration": 123}, {"note": 80, "velocity": 99, "duration": 240}, {"note": 78, "velocity": 99, "duration": 480}, {"note": 75, "velocity": 122, "duration": 119}, {"note": 75, "velocity": 107, "duration": 120}, {"note": 73, "velocity": 100, "duration": 120}, {"note": 71, "velocity": 99, "duration": 119}, {"note": 71, "velocity": 81, "duration": 120}, {"note": 80, "velocity": 112, "duration": 119}, {"note": 80, "velocity": 127, "duration": 480}, {"note": 71, "velocity": 89, "duration": 120}, {"note": 70, "velocity": 97, "duration": 240}, {"note": 78, "velocity": 96, "duration": 119}, {"note": 78, "velocity": 112, "duration": 479}, {"note": 78, "velocity": 127, "duration": 120}, {"note": 80, "velocity": 127, "duration": 120}, {"note": 83, "velocity": 96, "duration": 119}, {"note": 83, "velocity": 112, "duration": 119}, {"note": 83, "velocity": 127, "duration": 119}, {"note": 83, "velocity": 127, "duration": 240}, {"note": 78, "velocity": 117, "duration": 120}, {"note": 80, "velocity": 127, "duration": 240}, {"note": 78, "velocity": 107, "duration": 1199}, {"note": 78, "velocity": 117, "duration": 119}, {"note": 78, "velocity": 127, "duration": 120}, {"note": 76, "velocity": 88, "duration": 120}, {"note": 75, "velocity": 102, "duration": 120}, {"note": 76, "velocity": 90, "duration": 120}, {"note": 78, "velocity": 127, "duration": 251}, {"note": 80, "velocity": 79, "duration": 141}, {"note": 78, "velocity": 122, "duration": 240}, {"note": 75, "velocity": 117, "duration": 360}, {"note": 78, "velocity": 127, "duration": 240}, {"note": 80, "velocity": 112, "duration": 120}, {"note": 78, "velocity": 127, "duration": 240}, {"note": 73, "velocity": 122, "duration": 480}, {"note": 71, "velocity": 89, "duration": 120}, {"note": 83, "velocity": 95, "duration": 172}, {"note": 82, "velocity": 122, "duration": 120}, {"note": 80, "velocity": 122, "duration": 240}, {"note": 78, "velocity": 122, "duration": 120}, {"note": 75, "velocity": 112, "duration": 240}, {"note": 78, "velocity": 127, "duration": 960}, {"note": 71, "velocity": 92, "duration": 120}, {"note": 83, "velocity": 96, "duration": 120}, {"note": 82, "velocity": 100, "duration": 120}, {"note": 80, "velocity": 127, "duration": 120}, {"note": 78, "velocity": 127, "duration": 240}, {"note": 75, "velocity": 117, "duration": 120}, {"note": 78, "velocity": 127, "duration": 480}, {"note": 75, "velocity": 127, "duration": 120}, {"note": 73, "velocity": 122, "duration": 240}, {"note": 71, "velocity": 92, "duration": 120}, {"note": 73, "velocity": 127, "duration": 240}, {"note": 75, "velocity": 117, "duration": 120}, {"note": 80, "velocity": 127, "duration": 240}, {"note": 75, "velocity": 127, "duration": 360}, {"note": 73, "velocity": 127, "duration": 391}, {"note": 78, "velocity": 122, "duration": 119}, {"note": 78, "velocity": 127, "duration": 120}, {"note": 76, "velocity": 127, "duration": 120}, {"note": 75, "velocity": 117, "duration": 120}, {"note": 76, "velocity": 112, "duration": 120}, {"note": 78, "velocity": 127, "duration": 240}, {"note": 80, "velocity": 127, "duration": 120}, {"note": 78, "velocity": 127, "duration": 240}, {"note": 75, "velocity": 122, "duration": 360}, {"note": 78, "velocity": 127, "duration": 240}, {"note": 80, "velocity": 117, "duration": 120}, {"note": 78, "velocity": 127, "duration": 240}, {"note": 73, "velocity": 117, "duration": 480}, {"note": 71, "velocity": 96, "duration": 140}, {"note": 83, "velocity": 112, "duration": 120}, {"note": 85, "velocity": 127, "duration": 134}, {"note": 82, "velocity": 127, "duration": 120}, {"note": 78, "velocity": 122, "duration": 240}, {"note": 75, "velocity": 117, "duration": 240}, {"note": 80, "velocity": 122, "duration": 147}, {"note": 78, "velocity": 117, "duration": 840}, {"note": 71, "velocity": 93, "duration": 120}, {"note": 83, "velocity": 112, "duration": 120}, {"note": 82, "velocity": 127, "duration": 120}, {"note": 80, "velocity": 122, "duration": 130}, {"note": 78, "velocity": 127, "duration": 240}, {"note": 75, "velocity": 107, "duration": 121}, {"note": 78, "velocity": 127, "duration": 480}, {"note": 75, "velocity": 127, "duration": 240}, {"note": 73, "velocity": 127, "duration": 240}, {"note": 71, "velocity": 117, "duration": 240}, {"note": 73, "velocity": 112, "duration": 960}, {"note": 76, "velocity": 96, "duration": 134}, {"note": 75, "velocity": 102, "duration": 240}, {"note": 71, "velocity": 97, "duration": 360}, {"note": 68, "velocity": 96, "duration": 240}, {"note": 71, "velocity": 96, "duration": 1676}, {"note": 0, "velocity": 0, "duration": 1925}, {"note": 80, "velocity": 127, "duration": 2879}, {"note": 83, "velocity": 117, "duration": 128}, {"note": 85, "velocity": 117, "duration": 276}, {"note": 82, "velocity": 122, "duration": 120}, {"note": 80, "velocity": 117, "duration": 3031}, {"note": 0, "velocity": 0, "duration": 3449}, {"note": 80, "velocity": 127, "duration": 120}, {"note": 78, "velocity": 102, "duration": 360}, {"note": 80, "velocity": 127, "duration": 120}, {"note": 78, "velocity": 127, "duration": 240}, {"note": 80, "velocity": 127, "duration": 120}, {"note": 78, "velocity": 127, "duration": 119}, {"note": 78, "velocity": 127, "duration": 119}, {"note": 78, "velocity": 112, "duration": 120}, {"note": 76, "velocity": 107, "duration": 120}, {"note": 75, "velocity": 117, "duration": 120}, {"note": 76, "velocity": 112, "duration": 120}, {"note": 78, "velocity": 127, "duration": 251}, {"note": 80, "velocity": 79, "duration": 141}, {"note": 78, "velocity": 122, "duration": 240}, {"note": 75, "velocity": 117, "duration": 360}, {"note": 78, "velocity": 127, "duration": 240}, {"note": 80, "velocity": 112, "duration": 120}, {"note": 78, "velocity": 127, "duration": 240}, {"note": 73, "velocity": 122, "duration": 480}, {"note": 71, "velocity": 89, "duration": 120}, {"note": 83, "velocity": 95, "duration": 172}, {"note": 82, "velocity": 122, "duration": 120}, {"note": 80, "velocity": 122, "duration": 240}, {"note": 78, "velocity": 122, "duration": 120}, {"note": 75, "velocity": 112, "duration": 240}, {"note": 78, "velocity": 127, "duration": 960}, {"note": 71, "velocity": 92, "duration": 120}, {"note": 83, "velocity": 96, "duration": 120}, {"note": 82, "velocity": 100, "duration": 120}, {"note": 80, "velocity": 127, "duration": 120}, {"note": 78, "velocity": 127, "duration": 240}, {"note": 75, "velocity": 117, "duration": 120}, {"note": 78, "velocity": 127, "duration": 480}, {"note": 75, "velocity": 127, "duration": 120}, {"note": 73, "velocity": 122, "duration": 240}, {"note": 71, "velocity": 92, "duration": 120}, {"note": 73, "velocity": 127, "duration": 240}, {"note": 75, "velocity": 117, "duration": 120}, {"note": 80, "velocity": 127, "duration": 240}, {"note": 75, "velocity": 127, "duration": 360}, {"note": 73, "velocity": 127, "duration": 391}, {"note": 78, "velocity": 122, "duration": 119}, {"note": 78, "velocity": 127, "duration": 120}, {"note": 76, "velocity": 127, "duration": 120}, {"note": 75, "velocity": 117, "duration": 120}, {"note": 76, "velocity": 112, "duration": 120}, {"note": 78, "velocity": 127, "duration": 240}, {"note": 80, "velocity": 127, "duration": 120}, {"note": 78, "velocity": 127, "duration": 240}, {"note": 75, "velocity": 122, "duration": 360}, {"note": 78, "velocity": 127, "duration": 240}, {"note": 80, "velocity": 117, "duration": 120}, {"note": 78, "velocity": 127, "duration": 240}, {"note": 73, "velocity": 117, "duration": 480}, {"note": 71, "velocity": 96, "duration": 140}, {"note": 83, "velocity": 112, "duration": 120}, {"note": 85, "velocity": 127, "duration": 134}, {"note": 82, "velocity": 127, "duration": 120}, {"note": 78, "velocity": 122, "duration": 240}, {"note": 75, "velocity": 117, "duration": 240}, {"note": 80, "velocity": 122, "duration": 147}, {"note": 78, "velocity": 117, "duration": 840}, {"note": 71, "velocity": 93, "duration": 120}, {"note": 83, "velocity": 112, "duration": 120}, {"note": 82, "velocity": 127, "duration": 120}, {"note": 80, "velocity": 122, "duration": 130}, {"note": 78, "velocity": 127, "duration": 240}, {"note": 75, "velocity": 107, "duration": 121}, {"note": 78, "velocity": 127, "duration": 480}, {"note": 75, "velocity": 127, "duration": 240}, {"note": 73, "velocity": 127, "duration": 240}, {"note": 71, "velocity": 117, "duration": 240}, {"note": 73, "velocity": 112, "duration": 960}, {"note": 76, "velocity": 96, "duration": 134}, {"note": 75, "velocity": 102, "duration": 240}, {"note": 71, "velocity": 97, "duration": 720}, {"note": 68, "velocity": 107, "duration": 600}, {"note": 73, "velocity": 122, "duration": 169}, {"note": 71, "velocity": 95, "duration": 2728}]]