[[{"note": 55, "velocity": 96, "duration": 129}, {"note": 0, "velocity": 0, "duration": 111}, {"note": 55, "velocity": 99, "duration": 190}, {"note": 64, "velocity": 112, "duration": 122}, {"note": 0, "velocity": 0, "duration": 118}, {"note": 64, "velocity": 100, "duration": 121}, {"note": 0, "velocity": 0, "duration": 119}, {"note": 64, "velocity": 112, "duration": 113}, {"note": 0, "velocity": 0, "duration": 127}, {"note": 64, "velocity": 127, "duration": 113}, {"note": 0, "velocity": 0, "duration": 127}, {"note": 64, "velocity": 127, "duration": 363}, {"note": 0, "velocity": 0, "duration": 117}, {"note": 62, "velocity": 122, "duration": 347}, {"note": 0, "velocity": 0, "duration": 133}, {"note": 57, "velocity": 117, "duration": 729}, {"note": 0, "velocity": 0, "duration": 711}, {"note": 57, "velocity": 107, "duration": 125}, {"note": 0, "velocity": 0, "duration": 115}, {"note": 60, "velocity": 112, "duration": 94}, {"note": 0, "velocity": 0, "duration": 146}, {"note": 62, "velocity": 107, "duration": 85}, {"note": 0, "velocity": 0, "duration": 155}, {"note": 62, "velocity": 100, "duration": 81}, {"note": 0, "velocity": 0, "duration": 159}, {"note": 62, "velocity": 95, "duration": 74}, {"note": 0, "velocity": 0, "duration": 166}, {"note": 62, "velocity": 96, "duration": 80}, {"note": 0, "velocity": 0, "duration": 160}, {"note": 62, "velocity": 112, "duration": 357}, {"note": 0, "velocity": 0, "duration": 123}, {"note": 60, "velocity": 127, "duration": 208}, {"note": 57, "velocity": 100, "duration": 129}, {"note": 0, "velocity": 0, "duration": 111}, {"note": 55, "velocity": 122, "duration": 1153}, {"note": 0, "velocity": 0, "duration": 767}, {"note": 57, "velocity": 127, "duration": 119}, {"note": 0, "velocity": 0, "duration": 121}, {"note": 57, "velocity": 99, "duration": 286}, {"note": 0, "velocity": 0, "duration": 194}, {"note": 55, "velocity": 99, "duration": 138}, {"note": 0, "velocity": 0, "duration": 102}, {"note": 57, "velocity": 102, "duration": 263}, {"note": 0, "velocity": 0, "duration": 217}, {"note": 57, "velocity": 127, "duration": 167}, {"note": 0, "velocity": 0, "duration": 73}, {"note": 55, "velocity": 96, "duration": 121}, {"note": 0, "velocity": 0, "duration": 119}, {"note": 55, "velocity": 102, "duration": 183}, {"note": 69, "velocity": 112, "duration": 308}, {"note": 0, "velocity": 0, "duration": 172}, {"note": 67, "velocity": 112, "duration": 154}, {"note": 0, "velocity": 0, "duration": 86}, {"note": 64, "velocity": 122, "duration": 237}, {"note": 0, "velocity": 0, "duration": 243}, {"note": 57, "velocity": 122, "duration": 108}, {"note": 0, "velocity": 0, "duration": 132}, {"note": 60, "velocity": 107, "duration": 105}, {"note": 0, "velocity": 0, "duration": 135}, {"note": 62, "velocity": 127, "duration": 253}, {"note": 0, "velocity": 0, "duration": 227}, {"note": 62, "velocity": 122, "duration": 246}, {"note": 0, "velocity": 0, "duration": 234}, {"note": 62, "velocity": 117, "duration": 95}, {"note": 0, "velocity": 0, "duration": 145}, {"note": 60, "velocity": 107, "duration": 293}, {"note": 0, "velocity": 0, "duration": 187}, {"note": 64, "velocity": 117, "duration": 210}, {"note": 62, "velocity": 127, "duration": 223}, {"note": 0, "velocity": 0, "duration": 1217}, {"note": 55, "velocity": 96, "duration": 129}, {"note": 0, "velocity": 0, "duration": 111}, {"note": 55, "velocity": 99, "duration": 190}, {"note": 64, "velocity": 112, "duration": 122}, {"note": 0, "velocity": 0, "duration": 118}, {"note": 64, "velocity": 100, "duration": 121}, {"note": 0, "velocity": 0, "duration": 119}, {"note": 64, "velocity": 112, "duration": 113}, {"note": 0, "velocity": 0, "duration": 127}, {"note": 64, "velocity": 127, "duration": 113}, {"note": 0, "velocity": 0, "duration": 127}, {"note": 64, "velocity": 127, "duration": 363}, {"note": 0, "velocity": 0, "duration": 117}, {"note": 62, "velocity": 122, "duration": 208}, {"note": 60, "velocity": 127, "duration": 229}, {"note": 57, "velocity": 117, "duration": 729}, {"note": 0, "velocity": 0, "duration": 711}, {"note": 57, "velocity": 107, "duration": 125}, {"note": 0, "velocity": 0, "duration": 115}, {"note": 60, "velocity": 112, "duration": 94}, {"note": 0, "velocity": 0, "duration": 146}, {"note": 62, "velocity": 107, "duration": 85}, {"note": 0, "velocity": 0, "duration": 155}, {"note": 62, "velocity": 100, "duration": 81}, {"note": 0, "velocity": 0, "duration": 159}, {"note": 62, "velocity": 95, "duration": 74}, {"note": 0, "velocity": 0, "duration": 166}, {"note": 62, "velocity": 96, "duration": 80}, {"note": 0, "velocity": 0, "duration": 160}, {"note": 62, "velocity": 112, "duration": 357}, {"note": 0, "velocity": 0, "duration": 123}, {"note": 60, "velocity": 127, "duration": 208}, {"note": 57, "velocity": 100, "duration": 129}, {"note": 0, "velocity": 0, "duration": 111}, {"note": 55, "velocity": 122, "duration": 1153}, {"note": 0, "velocity": 0, "duration": 767}, {"note": 57, "velocity": 127, "duration": 119}, {"note": 0, "velocity": 0, "duration": 121}, {"note": 57, "velocity": 99, "duration": 286}, {"note": 0, "velocity": 0, "duration": 194}, {"note": 55, "velocity": 99, "duration": 138}, {"note": 0, "velocity": 0, "duration": 102}, {"note": 57, "velocity": 102, "duration": 263}, {"note": 0, "velocity": 0, "duration": 217}, {"note": 57, "velocity": 127, "duration": 167}, {"note": 0, "velocity": 0, "duration": 73}, {"note": 55, "velocity": 96, "duration": 121}, {"note": 0, "velocity": 0, "duration": 119}, {"note": 55, "velocity": 102, "duration": 183}, {"note": 69, "velocity": 112, "duration": 308}, {"note": 0, "velocity": 0, "duration": 172}, {"note": 67, "velocity": 112, "duration": 154}, {"note": 0, "velocity": 0, "duration": 86}, {"note": 64, "velocity": 122, "duration": 237}, {"note": 0, "velocity": 0, "duration": 243}, {"note": 57, "velocity": 122, "duration": 108}, {"note": 0, "velocity": 0, "duration": 132}, {"note": 60, "velocity": 107, "duration": 105}, {"note": 0, "velocity": 0, "duration": 135}, {"note": 62, "velocity": 127, "duration": 253}, {"note": 0, "velocity": 0, "duration": 107}, {"note": 62, "velocity": 107, "duration": 75}, {"note": 62, "velocity": 107, "duration": 102}, {"note": 0, "velocity": 0, "duration": 138}, {"note": 64, "velocity": 117, "duration": 117}, {"note": 0, "velocity": 0, "duration": 123}, {"note": 62, "velocity": 112, "duration": 166}, {"note": 0, "velocity": 0, "duration": 74}, {"note": 60, "velocity": 107, "duration": 248}, {"note": 0, "velocity": 0, "duration": 232}, {"note": 69, "velocity": 112, "duration": 189}, {"note": 67, "velocity": 127, "duration": 1676}, {"note": 0, "velocity": 0, "duration": 1684}, {"note": 64, "velocity": 112, "duration": 181}, {"note": 67, "velocity": 127, "duration": 182}, {"note": 72, "velocity": 122, "duration": 301}, {"note": 0, "velocity": 0, "duration": 179}, {"note": 71, "velocity": 127, "duration": 301}, {"note": 0, "velocity": 0, "duration": 179}, {"note": 69, "velocity": 127, "duration": 245}, {"note": 0, "velocity": 0, "duration": 235}, {"note": 67, "velocity": 127, "duration": 85}, {"note": 0, "velocity": 0, "duration": 155}, {"note": 69, "velocity": 122, "duration": 1467}, {"note": 0, "velocity": 0, "duration": 213}, {"note": 69, "velocity": 117, "duration": 151}, {"note": 0, "velocity": 0, "duration": 89}, {"note": 64, "velocity": 89, "duration": 109}, {"note": 0, "velocity": 0, "duration": 131}, {"note": 67, "velocity": 112, "duration": 348}, {"note": 0, "velocity": 0, "duration": 132}, {"note": 69, "velocity": 127, "duration": 332}, {"note": 0, "velocity": 0, "duration": 148}, {"note": 69, "velocity": 122, "duration": 269}, {"note": 0, "velocity": 0, "duration": 211}, {"note": 67, "velocity": 117, "duration": 218}, {"note": 64, "velocity": 97, "duration": 1030}, {"note": 0, "velocity": 0, "duration": 650}, {"note": 57, "velocity": 102, "duration": 142}, {"note": 0, "velocity": 0, "duration": 98}, {"note": 60, "velocity": 102, "duration": 136}, {"note": 0, "velocity": 0, "duration": 104}, {"note": 62, "velocity": 127, "duration": 323}, {"note": 0, "velocity": 0, "duration": 157}, {"note": 64, "velocity": 127, "duration": 353}, {"note": 0, "velocity": 0, "duration": 127}, {"note": 62, "velocity": 127, "duration": 235}, {"note": 0, "velocity": 0, "duration": 245}, {"note": 60, "velocity": 122, "duration": 187}, {"note": 57, "velocity": 112, "duration": 1087}, {"note": 0, "velocity": 0, "duration": 593}, {"note": 57, "velocity": 112, "duration": 148}, {"note": 0, "velocity": 0, "duration": 92}, {"note": 60, "velocity": 112, "duration": 182}, {"note": 62, "velocity": 117, "duration": 472}, {"note": 62, "velocity": 127, "duration": 232}, {"note": 60, "velocity": 102, "duration": 154}, {"note": 0, "velocity": 0, "duration": 86}, {"note": 60, "velocity": 112, "duration": 305}, {"note": 69, "velocity": 127, "duration": 667}, {"note": 67, "velocity": 122, "duration": 1188}, {"note": 0, "velocity": 0, "duration": 252}, {"note": 64, "velocity": 112, "duration": 181}, {"note": 67, "velocity": 127, "duration": 182}, {"note": 72, "velocity": 122, "duration": 301}, {"note": 0, "velocity": 0, "duration": 179}, {"note": 71, "velocity": 127, "duration": 301}, {"note": 0, "velocity": 0, "duration": 179}, {"note": 69, "velocity": 127, "duration": 245}, {"note": 0, "velocity": 0, "duration": 235}, {"note": 67, "velocity": 127, "duration": 85}, {"note": 0, "velocity": 0, "duration": 155}, {"note": 69, "velocity": 122, "duration": 1467}, {"note": 0, "velocity": 0, "duration": 213}, {"note": 69, "velocity": 117, "duration": 151}, {"note": 0, "velocity": 0, "duration": 89}, {"note": 64, "velocity": 89, "duration": 109}, {"note": 0, "velocity": 0, "duration": 131}, {"note": 67, "velocity": 112, "duration": 348}, {"note": 0, "velocity": 0, "duration": 132}, {"note": 69, "velocity": 127, "duration": 332}, {"note": 0, "velocity": 0, "duration": 148}, {"note": 69, "velocity": 122, "duration": 269}, {"note": 0, "velocity": 0, "duration": 211}, {"note": 67, "velocity": 117, "duration": 218}, {"note": 64, "velocity": 97, "duration": 1030}, {"note": 0, "velocity": 0, "duration": 650}, {"note": 57, "velocity": 102, "duration": 142}, {"note": 0, "velocity": 0, "duration": 98}, {"note": 60, "velocity": 102, "duration": 136}, {"note": 0, "velocity": 0, "duration": 104}, {"note": 62, "velocity": 127, "duration": 323}, {"note": 0, "velocity": 0, "duration": 157}, {"note": 62, "velocity": 112, "duration": 260}, {"note": 0, "velocity": 0, "duration": 220}, {"note": 62, "velocity": 122, "duration": 88}, {"note": 0, "velocity": 0, "duration": 152}, {"note": 62, "velocity": 107, "duration": 280}, {"note": 0, "velocity": 0, "duration": 200}, {"note": 64, "velocity": 117, "duration": 181}, {"note": 62, "velocity": 127, "duration": 1052}, {"note": 0, "velocity": 0, "duration": 388}, {"note": 57, "velocity": 102, "duration": 123}, {"note": 0, "velocity": 0, "duration": 117}, {"note": 60, "velocity": 122, "duration": 128}, {"note": 0, "velocity": 0, "duration": 112}, {"note": 62, "velocity": 117, "duration": 329}, {"note": 0, "velocity": 0, "duration": 151}, {"note": 64, "velocity": 99, "duration": 298}, {"note": 0, "velocity": 0, "duration": 182}, {"note": 55, "velocity": 117, "duration": 256}, {"note": 57, "velocity": 99, "duration": 658}, {"note": 0, "velocity": 0, "duration": 62}, {"note": 60, "velocity": 117, "duration": 2147}, {"note": 0, "velocity": 0, "duration": 30013}, {"note": 55, "velocity": 96, "duration": 129}, {"note": 0, "velocity": 0, "duration": 111}, {"note": 55, "velocity": 99, "duration": 190}, {"note": 64, "velocity": 112, "duration": 122}, {"note": 0, "velocity": 0, "duration": 118}, {"note": 64, "velocity": 100, "duration": 121}, {"note": 0, "velocity": 0, "duration": 119}, {"note": 64, "velocity": 112, "duration": 113}, {"note": 0, "velocity": 0, "duration": 127}, {"note": 64, "velocity": 127, "duration": 113}, {"note": 0, "velocity": 0, "duration": 127}, {"note": 64, "velocity": 127, "duration": 363}, {"note": 0, "velocity": 0, "duration": 117}, {"note": 62, "velocity": 122, "duration": 347}, {"note": 0, "velocity": 0, "duration": 133}, {"note": 57, "velocity": 117, "duration": 729}, {"note": 0, "velocity": 0, "duration": 711}, {"note": 57, "velocity": 107, "duration": 125}, {"note": 0, "velocity": 0, "duration": 115}, {"note": 60, "velocity": 112, "duration": 94}, {"note": 0, "velocity": 0, "duration": 146}, {"note": 62, "velocity": 107, "duration": 85}, {"note": 0, "velocity": 0, "duration": 155}, {"note": 62, "velocity": 100, "duration": 81}, {"note": 0, "velocity": 0, "duration": 159}, {"note": 62, "velocity": 95, "duration": 74}, {"note": 0, "velocity": 0, "duration": 166}, {"note": 62, "velocity": 96, "duration": 80}, {"note": 0, "velocity": 0, "duration": 160}, {"note": 62, "velocity": 112, "duration": 357}, {"note": 0, "velocity": 0, "duration": 123}, {"note": 60, "velocity": 127, "duration": 208}, {"note": 57, "velocity": 100, "duration": 129}, {"note": 0, "velocity": 0, "duration": 111}, {"note": 55, "velocity": 122, "duration": 1153}, {"note": 0, "velocity": 0, "duration": 767}, {"note": 57, "velocity": 127, "duration": 119}, {"note": 0, "velocity": 0, "duration": 121}, {"note": 57, "velocity": 99, "duration": 286}, {"note": 0, "velocity": 0, "duration": 194}, {"note": 55, "velocity": 99, "duration": 138}, {"note": 0, "velocity": 0, "duration": 102}, {"note": 57, "velocity": 102, "duration": 263}, {"note": 0, "velocity": 0, "duration": 217}, {"note": 57, "velocity": 127, "duration": 167}, {"note": 0, "velocity": 0, "duration": 73}, {"note": 55, "velocity": 96, "duration": 121}, {"note": 0, "velocity": 0, "duration": 119}, {"note": 55, "velocity": 102, "duration": 183}, {"note": 69, "velocity": 112, "duration": 308}, {"note": 0, "velocity": 0, "duration": 172}, {"note": 67, "velocity": 112, "duration": 154}, {"note": 0, "velocity": 0, "duration": 86}, {"note": 64, "velocity": 122, "duration": 237}, {"note": 0, "velocity": 0, "duration": 243}, {"note": 57, "velocity": 122, "duration": 108}, {"note": 0, "velocity": 0, "duration": 132}, {"note": 60, "velocity": 107, "duration": 105}, {"note": 0, "velocity": 0, "duration": 135}, {"note": 62, "velocity": 127, "duration": 253}, {"note": 0, "velocity": 0, "duration": 227}, {"note": 62, "velocity": 122, "duration": 246}, {"note": 0, "velocity": 0, "duration": 234}, {"note": 62, "velocity": 117, "duration": 95}, {"note": 0, "velocity": 0, "duration": 145}, {"note": 60, "velocity": 107, "duration": 293}, {"note": 0, "velocity": 0, "duration": 187}, {"note": 64, "velocity": 117, "duration": 210}, {"note": 62, "velocity": 127, "duration": 223}, {"note": 0, "velocity": 0, "duration": 1217}, {"note": 55, "velocity": 96, "duration": 129}, {"note": 0, "velocity": 0, "duration": 111}, {"note": 55, "velocity": 99, "duration": 190}, {"note": 64, "velocity": 112, "duration": 122}, {"note": 0, "velocity": 0, "duration": 118}, {"note": 64, "velocity": 100, "duration": 121}, {"note": 0, "velocity": 0, "duration": 119}, {"note": 64, "velocity": 112, "duration": 113}, {"note": 0, "velocity": 0, "duration": 127}, {"note": 64, "velocity": 127, "duration": 113}, {"note": 0, "velocity": 0, "duration": 127}, {"note": 64, "velocity": 127, "duration": 363}, {"note": 0, "velocity": 0, "duration": 117}, {"note": 62, "velocity": 122, "duration": 208}, {"note": 60, "velocity": 127, "duration": 229}, {"note": 57, "velocity": 117, "duration": 729}, {"note": 0, "velocity": 0, "duration": 711}, {"note": 57, "velocity": 107, "duration": 125}, {"note": 0, "velocity": 0, "duration": 115}, {"note": 60, "velocity": 112, "duration": 94}, {"note": 0, "velocity": 0, "duration": 146}, {"note": 62, "velocity": 107, "duration": 85}, {"note": 0, "velocity": 0, "duration": 155}, {"note": 62, "velocity": 100, "duration": 81}, {"note": 0, "velocity": 0, "duration": 159}, {"note": 62, "velocity": 95, "duration": 74}, {"note": 0, "velocity": 0, "duration": 166}, {"note": 62, "velocity": 96, "duration": 80}, {"note": 0, "velocity": 0, "duration": 160}, {"note": 62, "velocity": 112, "duration": 357}, {"note": 0, "velocity": 0, "duration": 123}, {"note": 60, "velocity": 127, "duration": 208}, {"note": 57, "velocity": 100, "duration": 129}, {"note": 0, "velocity": 0, "duration": 111}, {"note": 55, "velocity": 122, "duration": 1153}, {"note": 0, "velocity": 0, "duration": 767}, {"note": 57, "velocity": 127, "duration": 119}, {"note": 0, "velocity": 0, "duration": 121}, {"note": 57, "velocity": 99, "duration": 286}, {"note": 0, "velocity": 0, "duration": 194}, {"note": 55, "velocity": 99, "duration": 138}, {"note": 0, "velocity": 0, "duration": 102}, {"note": 57, "velocity": 102, "duration": 263}, {"note": 0, "velocity": 0, "duration": 217}, {"note": 57, "velocity": 127, "duration": 167}, {"note": 0, "velocity": 0, "duration": 73}, {"note": 55, "velocity": 96, "duration": 121}, {"note": 0, "velocity": 0, "duration": 119}, {"note": 55, "velocity": 102, "duration": 183}, {"note": 69, "velocity": 112, "duration": 308}, {"note": 0, "velocity": 0, "duration": 172}, {"note": 67, "velocity": 112, "duration": 154}, {"note": 0, "velocity": 0, "duration": 86}, {"note": 64, "velocity": 122, "duration": 237}, {"note": 0, "velocity": 0, "duration": 243}, {"note": 57, "velocity": 122, "duration": 108}, {"note": 0, "velocity": 0, "duration": 132}, {"note": 60, "velocity": 107, "duration": 105}, {"note": 0, "velocity": 0, "duration": 135}, {"note": 62, "velocity": 127, "duration": 253}, {"note": 0, "velocity": 0, "duration": 107}, {"note": 62, "velocity": 107, "duration": 75}, {"note": 62, "velocity": 107, "duration": 102}, {"note": 0, "velocity": 0, "duration": 138}, {"note": 64, "velocity": 117, "duration": 117}, {"note": 0, "velocity": 0, "duration": 123}, {"note": 62, "velocity": 112, "duration": 166}, {"note": 0, "velocity": 0, "duration": 74}, {"note": 60, "velocity": 107, "duration": 248}, {"note": 0, "velocity": 0, "duration": 232}, {"note": 69, "velocity": 112, "duration": 189}, {"note": 67, "velocity": 127, "duration": 1676}, {"note": 0, "velocity": 0, "duration": 1684}, {"note": 64, "velocity": 112, "duration": 181}, {"note": 67, "velocity": 127, "duration": 182}, {"note": 72, "velocity": 122, "duration": 301}, {"note": 0, "velocity": 0, "duration": 179}, {"note": 71, "velocity": 127, "duration": 301}, {"note": 0, "velocity": 0, "duration": 179}, {"note": 69, "velocity": 127, "duration": 245}, {"note": 0, "velocity": 0, "duration": 235}, {"note": 67, "velocity": 127, "duration": 85}, {"note": 0, "velocity": 0, "duration": 155}, {"note": 69, "velocity": 122, "duration": 1467}, {"note": 0, "velocity": 0, "duration": 213}, {"note": 69, "velocity": 117, "duration": 151}, {"note": 0, "velocity": 0, "duration": 89}, {"note": 64, "velocity": 89, "duration": 109}, {"note": 0, "velocity": 0, "duration": 131}, {"note": 67, "velocity": 112, "duration": 348}, {"note": 0, "velocity": 0, "duration": 132}, {"note": 69, "velocity": 127, "duration": 332}, {"note": 0, "velocity": 0, "duration": 148}, {"note": 69, "velocity": 122, "duration": 269}, {"note": 0, "velocity": 0, "duration": 211}, {"note": 67, "velocity": 117, "duration": 218}, {"note": 64, "velocity": 97, "duration": 1030}, {"note": 0, "velocity": 0, "duration": 650}, {"note": 57, "velocity": 102, "duration": 142}, {"note": 0, "velocity": 0, "duration": 98}, {"note": 60, "velocity": 102, "duration": 136}, {"note": 0, "velocity": 0, "duration": 104}, {"note": 62, "velocity": 127, "duration": 323}, {"note": 0, "velocity": 0, "duration": 157}, {"note": 64, "velocity": 127, "duration": 353}, {"note": 0, "velocity": 0, "duration": 127}, {"note": 62, "velocity": 127, "duration": 235}, {"note": 0, "velocity": 0, "duration": 245}, {"note": 60, "velocity": 122, "duration": 187}, {"note": 57, "velocity": 112, "duration": 1087}, {"note": 0, "velocity": 0, "duration": 593}, {"note": 57, "velocity": 112, "duration": 148}, {"note": 0, "velocity": 0, "duration": 92}, {"note": 60, "velocity": 112, "duration": 182}, {"note": 62, "velocity": 117, "duration": 472}, {"note": 62, "velocity": 127, "duration": 232}, {"note": 60, "velocity": 102, "duration": 154}, {"note": 0, "velocity": 0, "duration": 86}, {"note": 60, "velocity": 112, "duration": 305}, {"note": 69, "velocity": 127, "duration": 667}, {"note": 67, "velocity": 122, "duration": 1188}, {"note": 0, "velocity": 0, "duration": 252}, {"note": 64, "velocity": 112, "duration": 181}, {"note": 67, "velocity": 127, "duration": 182}, {"note": 72, "velocity": 122, "duration": 301}, {"note": 0, "velocity": 0, "duration": 179}, {"note": 71, "velocity": 127, "duration": 301}, {"note": 0, "velocity": 0, "duration": 179}, {"note": 69, "velocity": 127, "duration": 245}, {"note": 0, "velocity": 0, "duration": 235}, {"note": 67, "velocity": 127, "duration": 85}, {"note": 0, "velocity": 0, "duration": 155}, {"note": 69, "velocity": 122, "duration": 1467}, {"note": 0, "velocity": 0, "duration": 213}, {"note": 69, "velocity": 117, "duration": 151}, {"note": 0, "velocity": 0, "duration": 89}, {"note": 64, "velocity": 89, "duration": 109}, {"note": 0, "velocity": 0, "duration": 131}, {"note": 67, "velocity": 112, "duration": 348}, {"note": 0, "velocity": 0, "duration": 132}, {"note": 69, "velocity": 127, "duration": 332}, {"note": 0, "velocity": 0, "duration": 148}, {"note": 69, "velocity": 122, "duration": 269}, {"note": 0, "velocity": 0, "duration": 211}, {"note": 67, "velocity": 117, "duration": 218}, {"note": 64, "velocity": 97, "duration": 1030}, {"note": 0, "velocity": 0, "duration": 650}, {"note": 57, "velocity": 102, "duration": 142}, {"note": 0, "velocity": 0, "duration": 98}, {"note": 60, "velocity": 102, "duration": 136}, {"note": 0, "velocity": 0, "duration": 104}, {"note": 62, "velocity": 127, "duration": 323}, {"note": 0, "velocity": 0, "duration": 157}, {"note": 62, "velocity": 112, "duration": 260}, {"note": 0, "velocity": 0, "duration": 220}, {"note": 62, "velocity": 122, "duration": 88}, {"note": 0, "velocity": 0, "duration": 152}, {"note": 62, "velocity": 107, "duration": 280}, {"note": 0, "velocity": 0, "duration": 200}, {"note": 64, "velocity": 117, "duration": 181}, {"note": 62, "velocity": 127, "duration": 1052}, {"note": 0, "velocity": 0, "duration": 388}, {"note": 57, "velocity": 102, "duration": 123}, {"note": 0, "velocity": 0, "duration": 117}, {"note": 60, "velocity": 122, "duration": 128}, {"note": 0, "velocity": 0, "duration": 112}, {"note": 62, "velocity": 117, "duration": 329}, {"note": 0, "velocity": 0, "duration": 151}, {"note": 64, "velocity": 99, "duration": 298}, {"note": 0, "velocity": 0, "duration": 182}, {"note": 55, "velocity": 117, "duration": 256}, {"note": 57, "velocity": 99, "duration": 658}, {"note": 0, "velocity": 0, "duration": 62}, {"note": 60, "velocity": 117, "duration": 1440}, {"note": 64, "velocity": 112, "duration": 181}, {"note": 67, "velocity": 127, "duration": 182}, {"note": 72, "velocity": 122, "duration": 301}, {"note": 0, "velocity": 0, "duration": 179}, {"note": 71, "velocity": 127, "duration": 301}, {"note": 0, "velocity": 0, "duration": 179}, {"note": 69, "velocity": 127, "duration": 245}, {"note": 0, "velocity": 0, "duration": 235}, {"note": 67, "velocity": 127, "duration": 85}, {"note": 0, "velocity": 0, "duration": 155}, {"note": 69, "velocity": 122, "duration": 1467}, {"note": 0, "velocity": 0, "duration": 213}, {"note": 69, "velocity": 117, "duration": 151}, {"note": 0, "velocity": 0, "duration": 89}, {"note": 64, "velocity": 89, "duration": 109}, {"note": 0, "velocity": 0, "duration": 131}, {"note": 67, "velocity": 112, "duration": 348}, {"note": 0, "velocity": 0, "duration": 132}, {"note": 69, "velocity": 127, "duration": 332}, {"note": 0, "velocity": 0, "duration": 148}, {"note": 69, "velocity": 122, "duration": 269}, {"note": 0, "velocity": 0, "duration": 211}, {"note": 67, "velocity": 117, "duration": 218}, {"note": 64, "velocity": 97, "duration": 1030}, {"note": 0, "velocity": 0, "duration": 650}, {"note": 57, "velocity": 102, "duration": 142}, {"note": 0, "velocity": 0, "duration": 98}, {"note": 60, "velocity": 102, "duration": 136}, {"note": 0, "velocity": 0, "duration": 104}, {"note": 62, "velocity": 127, "duration": 323}, {"note": 0, "velocity": 0, "duration": 157}, {"note": 64, "velocity": 127, "duration": 353}, {"note": 0, "velocity": 0, "duration": 127}, {"note": 62, "velocity": 127, "duration": 235}, {"note": 0, "velocity": 0, "duration": 245}, {"note": 60, "velocity": 122, "duration": 187}, {"note": 57, "velocity": 112, "duration": 1087}, {"note": 0, "velocity": 0, "duration": 593}, {"note": 57, "velocity": 112, "duration": 148}, {"note": 0, "velocity": 0, "duration": 92}, {"note": 60, "velocity": 112, "duration": 182}, {"note": 62, "velocity": 117, "duration": 472}, {"note": 62, "velocity": 127, "duration": 232}, {"note": 60, "velocity": 102, "duration": 154}, {"note": 0, "velocity": 0, "duration": 86}, {"note": 60, "velocity": 112, "duration": 305}, {"note": 69, "velocity": 127, "duration": 667}, {"note": 67, "velocity": 122, "duration": 1188}, {"note": 0, "velocity": 0, "duration": 252}, {"note": 64, "velocity": 112, "duration": 181}, {"note": 67, "velocity": 127, "duration": 182}, {"note": 72, "velocity": 122, "duration": 301}, {"note": 0, "velocity": 0, "duration": 179}, {"note": 71, "velocity": 127, "duration": 301}, {"note": 0, "velocity": 0, "duration": 179}, {"note": 69, "velocity": 127, "duration": 245}, {"note": 0, "velocity": 0, "duration": 235}, {"note": 67, "velocity": 127, "duration": 85}, {"note": 0, "velocity": 0, "duration": 155}, {"note": 69, "velocity": 122, "duration": 1467}, {"note": 0, "velocity": 0, "duration": 213}, {"note": 69, "velocity": 117, "duration": 151}, {"note": 0, "velocity": 0, "duration": 89}, {"note": 64, "velocity": 89, "duration": 109}, {"note": 0, "velocity": 0, "duration": 131}, {"note": 67, "velocity": 112, "duration": 348}, {"note": 0, "velocity": 0, "duration": 132}, {"note": 69, "velocity": 127, "duration": 332}, {"note": 0, "velocity": 0, "duration": 148}, {"note": 69, "velocity": 122, "duration": 269}, {"note": 0, "velocity": 0, "duration": 211}, {"note": 67, "velocity": 117, "duration": 218}, {"note": 64, "velocity": 97, "duration": 1030}, {"note": 0, "velocity": 0, "duration": 650}, {"note": 57, "velocity": 102, "duration": 142}, {"note": 0, "velocity": 0, "duration": 98}, {"note": 60, "velocity": 102, "duration": 136}, {"note": 0, "velocity": 0, "duration": 104}, {"note": 62, "velocity": 127, "duration": 323}, {"note": 0, "velocity": 0, "duration": 157}, {"note": 62, "velocity": 112, "duration": 260}, {"note": 0, "velocity": 0, "duration": 220}, {"note": 62, "velocity": 122, "duration": 88}, {"note": 0, "velocity": 0, "duration": 152}, {"note": 62, "velocity": 107, "duration": 280}, {"note": 0, "velocity": 0, "duration": 200}, {"note": 64, "velocity": 117, "duration": 181}, {"note": 62, "velocity": 127, "duration": 1052}, {"note": 0, "velocity": 0, "duration": 388}, {"note": 57, "velocity": 102, "duration": 123}, {"note": 0, "velocity": 0, "duration": 117}, {"note": 60, "velocity": 122, "duration": 128}, {"note": 0, "velocity": 0, "duration": 112}, {"note": 62, "velocity": 117, "duration": 329}, {"note": 0, "velocity": 0, "duration": 151}, {"note": 64, "velocity": 99, "duration": 298}, {"note": 0, "velocity": 0, "duration": 182}, {"note": 55, "velocity": 117, "duration": 256}, {"note": 57, "velocity": 99, "duration": 658}, {"note": 0, "velocity": 0, "duration": 62}, {"note": 60, "velocity": 117, "duration": 960}, {"note": 0, "velocity": 0, "duration": 480}, {"note": 57, "velocity": 102, "duration": 142}, {"note": 0, "velocity": 0, "duration": 98}, {"note": 60, "velocity": 102, "duration": 136}, {"note": 0, "velocity": 0, "duration": 104}, {"note": 62, "velocity": 127, "duration": 323}, {"note": 0, "velocity": 0, "duration": 157}, {"note": 62, "velocity": 112, "duration": 260}, {"note": 0, "velocity": 0, "duration": 220}, {"note": 62, "velocity": 122, "duration": 88}, {"note": 0, "velocity": 0, "duration": 152}, {"note": 62, "velocity": 107, "duration": 280}, {"note": 0, "velocity": 0, "duration": 200}, {"note": 64, "velocity": 117, "duration": 181}, {"note": 62, "velocity": 127, "duration": 1052}, {"note": 0, "velocity": 0, "duration": 388}, {"note": 57, "velocity": 102, "duration": 123}, {"note": 0, "velocity": 0, "duration": 117}, {"note": 60, "velocity": 122, "duration": 128}, {"note": 0, "velocity": 0, "duration": 112}, {"note": 62, "velocity": 117, "duration": 329}, {"note": 0, "velocity": 0, "duration": 151}, {"note": 64, "velocity": 99, "duration": 298}, {"note": 0, "velocity": 0, "duration": 182}, {"note": 55, "velocity": 117, "duration": 256}, {"note": 57, "velocity": 99, "duration": 658}, {"note": 0, "velocity": 0, "duration": 62}, {"note": 60, "velocity": 117, "duration": 2147}]]