[[{"note": 73, "velocity": 127, "duration": 234}, {"note": 72, "velocity": 86, "duration": 122}, {"note": 68, "velocity": 96, "duration": 367}, {"note": 70, "velocity": 100, "duration": 262}, {"note": 72, "velocity": 97, "duration": 252}, {"note": 68, "velocity": 117, "duration": 56}, {"note": 0, "velocity": 0, "duration": 64}, {"note": 68, "velocity": 112, "duration": 500}, {"note": 0, "velocity": 0, "duration": 100}, {"note": 70, "velocity": 102, "duration": 189}, {"note": 70, "velocity": 97, "duration": 385}, {"note": 0, "velocity": 0, "duration": 95}, {"note": 68, "velocity": 107, "duration": 215}, {"note": 65, "velocity": 96, "duration": 813}, {"note": 0, "velocity": 0, "duration": 147}, {"note": 70, "velocity": 107, "duration": 179}, {"note": 0, "velocity": 0, "duration": 61}, {"note": 68, "velocity": 89, "duration": 73}, {"note": 68, "velocity": 100, "duration": 324}, {"note": 66, "velocity": 99, "duration": 260}, {"note": 68, "velocity": 107, "duration": 215}, {"note": 70, "velocity": 100, "duration": 125}, {"note": 68, "velocity": 95, "duration": 197}, {"note": 0, "velocity": 0, "duration": 163}, {"note": 65, "velocity": 93, "duration": 105}, {"note": 63, "velocity": 79, "duration": 113}, {"note": 65, "velocity": 92, "duration": 319}, {"note": 65, "velocity": 92, "duration": 79}, {"note": 0, "velocity": 0, "duration": 161}, {"note": 65, "velocity": 92, "duration": 88}, {"note": 63, "velocity": 86, "duration": 359}, {"note": 65, "velocity": 90, "duration": 927}, {"note": 73, "velocity": 122, "duration": 220}, {"note": 72, "velocity": 92, "duration": 121}, {"note": 68, "velocity": 96, "duration": 285}, {"note": 0, "velocity": 0, "duration": 75}, {"note": 70, "velocity": 107, "duration": 180}, {"note": 72, "velocity": 112, "duration": 234}, {"note": 68, "velocity": 89, "duration": 72}, {"note": 0, "velocity": 0, "duration": 168}, {"note": 68, "velocity": 102, "duration": 433}, {"note": 70, "velocity": 117, "duration": 145}, {"note": 0, "velocity": 0, "duration": 95}, {"note": 70, "velocity": 112, "duration": 110}, {"note": 68, "velocity": 99, "duration": 69}, {"note": 68, "velocity": 117, "duration": 209}, {"note": 72, "velocity": 93, "duration": 216}, {"note": 65, "velocity": 96, "duration": 826}, {"note": 0, "velocity": 0, "duration": 134}, {"note": 70, "velocity": 122, "duration": 213}, {"note": 68, "velocity": 97, "duration": 79}, {"note": 68, "velocity": 107, "duration": 289}, {"note": 0, "velocity": 0, "duration": 71}, {"note": 66, "velocity": 102, "duration": 195}, {"note": 68, "velocity": 122, "duration": 202}, {"note": 70, "velocity": 99, "duration": 250}, {"note": 68, "velocity": 102, "duration": 344}, {"note": 65, "velocity": 92, "duration": 120}, {"note": 63, "velocity": 89, "duration": 102}, {"note": 65, "velocity": 93, "duration": 171}, {"note": 0, "velocity": 0, "duration": 69}, {"note": 65, "velocity": 95, "duration": 139}, {"note": 0, "velocity": 0, "duration": 101}, {"note": 65, "velocity": 89, "duration": 108}, {"note": 63, "velocity": 85, "duration": 215}, {"note": 0, "velocity": 0, "duration": 145}, {"note": 65, "velocity": 95, "duration": 468}, {"note": 61, "velocity": 112, "duration": 219}, {"note": 63, "velocity": 99, "duration": 216}, {"note": 65, "velocity": 96, "duration": 651}, {"note": 0, "velocity": 0, "duration": 69}, {"note": 63, "velocity": 97, "duration": 241}, {"note": 65, "velocity": 95, "duration": 231}, {"note": 0, "velocity": 0, "duration": 249}, {"note": 61, "velocity": 97, "duration": 203}, {"note": 68, "velocity": 102, "duration": 217}, {"note": 65, "velocity": 99, "duration": 515}, {"note": 0, "velocity": 0, "duration": 205}, {"note": 63, "velocity": 96, "duration": 230}, {"note": 65, "velocity": 92, "duration": 333}, {"note": 0, "velocity": 0, "duration": 147}, {"note": 61, "velocity": 100, "duration": 213}, {"note": 73, "velocity": 100, "duration": 171}, {"note": 0, "velocity": 0, "duration": 69}, {"note": 73, "velocity": 107, "duration": 223}, {"note": 70, "velocity": 100, "duration": 186}, {"note": 70, "velocity": 112, "duration": 225}, {"note": 68, "velocity": 97, "duration": 188}, {"note": 70, "velocity": 117, "duration": 144}, {"note": 0, "velocity": 0, "duration": 96}, {"note": 70, "velocity": 117, "duration": 171}, {"note": 0, "velocity": 0, "duration": 69}, {"note": 70, "velocity": 117, "duration": 160}, {"note": 72, "velocity": 112, "duration": 320}, {"note": 68, "velocity": 96, "duration": 984}, {"note": 0, "velocity": 0, "duration": 936}, {"note": 77, "velocity": 102, "duration": 234}, {"note": 75, "velocity": 97, "duration": 199}, {"note": 77, "velocity": 99, "duration": 211}, {"note": 80, "velocity": 102, "duration": 250}, {"note": 77, "velocity": 122, "duration": 623}, {"note": 0, "velocity": 0, "duration": 337}, {"note": 77, "velocity": 127, "duration": 225}, {"note": 72, "velocity": 89, "duration": 220}, {"note": 73, "velocity": 117, "duration": 262}, {"note": 75, "velocity": 107, "duration": 258}, {"note": 73, "velocity": 112, "duration": 596}, {"note": 70, "velocity": 107, "duration": 578}, {"note": 0, "velocity": 0, "duration": 142}, {"note": 70, "velocity": 127, "duration": 223}, {"note": 78, "velocity": 127, "duration": 169}, {"note": 0, "velocity": 0, "duration": 71}, {"note": 78, "velocity": 122, "duration": 227}, {"note": 77, "velocity": 107, "duration": 217}, {"note": 75, "velocity": 122, "duration": 252}, {"note": 72, "velocity": 102, "duration": 216}, {"note": 73, "velocity": 107, "duration": 257}, {"note": 75, "velocity": 122, "duration": 214}, {"note": 75, "velocity": 122, "duration": 228}, {"note": 77, "velocity": 92, "duration": 60}, {"note": 77, "velocity": 102, "duration": 1302}, {"note": 0, "velocity": 0, "duration": 258}, {"note": 77, "velocity": 127, "duration": 199}, {"note": 75, "velocity": 107, "duration": 213}, {"note": 77, "velocity": 107, "duration": 211}, {"note": 80, "velocity": 122, "duration": 240}, {"note": 77, "velocity": 127, "duration": 642}, {"note": 0, "velocity": 0, "duration": 318}, {"note": 77, "velocity": 127, "duration": 201}, {"note": 72, "velocity": 100, "duration": 196}, {"note": 73, "velocity": 117, "duration": 51}, {"note": 0, "velocity": 0, "duration": 69}, {"note": 73, "velocity": 112, "duration": 98}, {"note": 75, "velocity": 107, "duration": 177}, {"note": 0, "velocity": 0, "duration": 63}, {"note": 70, "velocity": 122, "duration": 847}, {"note": 0, "velocity": 0, "duration": 113}, {"note": 70, "velocity": 117, "duration": 202}, {"note": 78, "velocity": 127, "duration": 79}, {"note": 78, "velocity": 96, "duration": 282}, {"note": 0, "velocity": 0, "duration": 78}, {"note": 77, "velocity": 122, "duration": 222}, {"note": 78, "velocity": 127, "duration": 227}, {"note": 77, "velocity": 112, "duration": 228}, {"note": 73, "velocity": 107, "duration": 206}, {"note": 73, "velocity": 122, "duration": 121}, {"note": 75, "velocity": 112, "duration": 124}, {"note": 73, "velocity": 127, "duration": 1231}, {"note": 0, "velocity": 0, "duration": 17969}, {"note": 73, "velocity": 127, "duration": 234}, {"note": 72, "velocity": 86, "duration": 122}, {"note": 68, "velocity": 96, "duration": 367}, {"note": 70, "velocity": 100, "duration": 262}, {"note": 72, "velocity": 97, "duration": 252}, {"note": 68, "velocity": 117, "duration": 56}, {"note": 0, "velocity": 0, "duration": 64}, {"note": 68, "velocity": 112, "duration": 500}, {"note": 0, "velocity": 0, "duration": 100}, {"note": 70, "velocity": 102, "duration": 189}, {"note": 70, "velocity": 97, "duration": 385}, {"note": 0, "velocity": 0, "duration": 95}, {"note": 68, "velocity": 107, "duration": 215}, {"note": 65, "velocity": 96, "duration": 813}, {"note": 0, "velocity": 0, "duration": 147}, {"note": 70, "velocity": 107, "duration": 179}, {"note": 0, "velocity": 0, "duration": 61}, {"note": 68, "velocity": 89, "duration": 73}, {"note": 68, "velocity": 100, "duration": 324}, {"note": 66, "velocity": 99, "duration": 260}, {"note": 68, "velocity": 107, "duration": 215}, {"note": 70, "velocity": 100, "duration": 125}, {"note": 68, "velocity": 95, "duration": 197}, {"note": 0, "velocity": 0, "duration": 163}, {"note": 65, "velocity": 93, "duration": 105}, {"note": 63, "velocity": 79, "duration": 113}, {"note": 65, "velocity": 92, "duration": 319}, {"note": 65, "velocity": 92, "duration": 79}, {"note": 0, "velocity": 0, "duration": 161}, {"note": 65, "velocity": 92, "duration": 88}, {"note": 63, "velocity": 86, "duration": 359}, {"note": 65, "velocity": 90, "duration": 927}, {"note": 73, "velocity": 122, "duration": 220}, {"note": 72, "velocity": 92, "duration": 121}, {"note": 68, "velocity": 96, "duration": 285}, {"note": 0, "velocity": 0, "duration": 75}, {"note": 70, "velocity": 107, "duration": 180}, {"note": 72, "velocity": 112, "duration": 234}, {"note": 68, "velocity": 89, "duration": 72}, {"note": 0, "velocity": 0, "duration": 168}, {"note": 68, "velocity": 102, "duration": 433}, {"note": 70, "velocity": 117, "duration": 145}, {"note": 0, "velocity": 0, "duration": 95}, {"note": 70, "velocity": 112, "duration": 110}, {"note": 68, "velocity": 99, "duration": 69}, {"note": 68, "velocity": 117, "duration": 209}, {"note": 72, "velocity": 93, "duration": 216}, {"note": 65, "velocity": 96, "duration": 826}, {"note": 0, "velocity": 0, "duration": 134}, {"note": 70, "velocity": 122, "duration": 213}, {"note": 68, "velocity": 97, "duration": 79}, {"note": 68, "velocity": 107, "duration": 289}, {"note": 0, "velocity": 0, "duration": 71}, {"note": 66, "velocity": 102, "duration": 195}, {"note": 68, "velocity": 122, "duration": 202}, {"note": 70, "velocity": 99, "duration": 250}, {"note": 68, "velocity": 102, "duration": 344}, {"note": 65, "velocity": 92, "duration": 120}, {"note": 63, "velocity": 89, "duration": 102}, {"note": 65, "velocity": 93, "duration": 171}, {"note": 0, "velocity": 0, "duration": 69}, {"note": 65, "velocity": 95, "duration": 139}, {"note": 0, "velocity": 0, "duration": 101}, {"note": 65, "velocity": 89, "duration": 108}, {"note": 63, "velocity": 85, "duration": 215}, {"note": 0, "velocity": 0, "duration": 145}, {"note": 65, "velocity": 95, "duration": 468}, {"note": 61, "velocity": 112, "duration": 219}, {"note": 63, "velocity": 99, "duration": 216}, {"note": 65, "velocity": 96, "duration": 651}, {"note": 0, "velocity": 0, "duration": 69}, {"note": 63, "velocity": 97, "duration": 241}, {"note": 65, "velocity": 95, "duration": 231}, {"note": 0, "velocity": 0, "duration": 249}, {"note": 61, "velocity": 97, "duration": 203}, {"note": 68, "velocity": 102, "duration": 217}, {"note": 65, "velocity": 99, "duration": 515}, {"note": 0, "velocity": 0, "duration": 205}, {"note": 63, "velocity": 96, "duration": 230}, {"note": 65, "velocity": 92, "duration": 333}, {"note": 0, "velocity": 0, "duration": 147}, {"note": 61, "velocity": 100, "duration": 213}, {"note": 73, "velocity": 100, "duration": 171}, {"note": 0, "velocity": 0, "duration": 69}, {"note": 73, "velocity": 107, "duration": 223}, {"note": 70, "velocity": 100, "duration": 186}, {"note": 70, "velocity": 112, "duration": 225}, {"note": 68, "velocity": 97, "duration": 188}, {"note": 70, "velocity": 117, "duration": 144}, {"note": 0, "velocity": 0, "duration": 96}, {"note": 70, "velocity": 117, "duration": 171}, {"note": 0, "velocity": 0, "duration": 69}, {"note": 70, "velocity": 117, "duration": 160}, {"note": 72, "velocity": 112, "duration": 320}, {"note": 68, "velocity": 96, "duration": 984}, {"note": 0, "velocity": 0, "duration": 936}, {"note": 77, "velocity": 102, "duration": 234}, {"note": 75, "velocity": 97, "duration": 199}, {"note": 77, "velocity": 99, "duration": 211}, {"note": 80, "velocity": 102, "duration": 250}, {"note": 77, "velocity": 122, "duration": 623}, {"note": 0, "velocity": 0, "duration": 337}, {"note": 77, "velocity": 127, "duration": 225}, {"note": 72, "velocity": 89, "duration": 220}, {"note": 73, "velocity": 117, "duration": 262}, {"note": 75, "velocity": 107, "duration": 258}, {"note": 73, "velocity": 112, "duration": 596}, {"note": 70, "velocity": 107, "duration": 578}, {"note": 0, "velocity": 0, "duration": 142}, {"note": 70, "velocity": 127, "duration": 223}, {"note": 78, "velocity": 127, "duration": 169}, {"note": 0, "velocity": 0, "duration": 71}, {"note": 78, "velocity": 122, "duration": 227}, {"note": 77, "velocity": 107, "duration": 217}, {"note": 75, "velocity": 122, "duration": 252}, {"note": 72, "velocity": 102, "duration": 216}, {"note": 73, "velocity": 107, "duration": 257}, {"note": 75, "velocity": 122, "duration": 214}, {"note": 75, "velocity": 122, "duration": 228}, {"note": 77, "velocity": 92, "duration": 60}, {"note": 77, "velocity": 102, "duration": 1302}, {"note": 0, "velocity": 0, "duration": 258}, {"note": 77, "velocity": 127, "duration": 199}, {"note": 75, "velocity": 107, "duration": 213}, {"note": 77, "velocity": 107, "duration": 211}, {"note": 80, "velocity": 122, "duration": 240}, {"note": 77, "velocity": 127, "duration": 642}, {"note": 0, "velocity": 0, "duration": 318}, {"note": 77, "velocity": 127, "duration": 201}, {"note": 72, "velocity": 100, "duration": 196}, {"note": 73, "velocity": 117, "duration": 51}, {"note": 0, "velocity": 0, "duration": 69}, {"note": 73, "velocity": 112, "duration": 98}, {"note": 75, "velocity": 107, "duration": 177}, {"note": 0, "velocity": 0, "duration": 63}, {"note": 70, "velocity": 122, "duration": 847}, {"note": 0, "velocity": 0, "duration": 113}, {"note": 70, "velocity": 117, "duration": 202}, {"note": 78, "velocity": 127, "duration": 79}, {"note": 78, "velocity": 96, "duration": 282}, {"note": 0, "velocity": 0, "duration": 78}, {"note": 77, "velocity": 122, "duration": 222}, {"note": 78, "velocity": 127, "duration": 227}, {"note": 77, "velocity": 112, "duration": 228}, {"note": 73, "velocity": 107, "duration": 206}, {"note": 73, "velocity": 122, "duration": 121}, {"note": 75, "velocity": 112, "duration": 124}, {"note": 73, "velocity": 127, "duration": 1231}, {"note": 0, "velocity": 0, "duration": 689}, {"note": 77, "velocity": 102, "duration": 234}, {"note": 75, "velocity": 97, "duration": 199}, {"note": 77, "velocity": 99, "duration": 211}, {"note": 80, "velocity": 102, "duration": 250}, {"note": 77, "velocity": 122, "duration": 623}, {"note": 0, "velocity": 0, "duration": 337}, {"note": 77, "velocity": 127, "duration": 225}, {"note": 72, "velocity": 89, "duration": 220}, {"note": 73, "velocity": 117, "duration": 262}, {"note": 75, "velocity": 107, "duration": 258}, {"note": 73, "velocity": 112, "duration": 596}, {"note": 70, "velocity": 107, "duration": 578}, {"note": 0, "velocity": 0, "duration": 142}, {"note": 70, "velocity": 127, "duration": 223}, {"note": 78, "velocity": 127, "duration": 169}, {"note": 0, "velocity": 0, "duration": 71}, {"note": 78, "velocity": 122, "duration": 227}, {"note": 77, "velocity": 107, "duration": 217}, {"note": 75, "velocity": 122, "duration": 252}, {"note": 72, "velocity": 102, "duration": 216}, {"note": 73, "velocity": 107, "duration": 257}, {"note": 75, "velocity": 122, "duration": 214}, {"note": 75, "velocity": 122, "duration": 228}, {"note": 77, "velocity": 92, "duration": 60}, {"note": 77, "velocity": 102, "duration": 1302}, {"note": 0, "velocity": 0, "duration": 258}, {"note": 77, "velocity": 127, "duration": 199}, {"note": 75, "velocity": 107, "duration": 213}, {"note": 77, "velocity": 107, "duration": 211}, {"note": 80, "velocity": 122, "duration": 240}, {"note": 77, "velocity": 127, "duration": 642}, {"note": 0, "velocity": 0, "duration": 318}, {"note": 77, "velocity": 127, "duration": 201}, {"note": 72, "velocity": 100, "duration": 196}, {"note": 73, "velocity": 117, "duration": 51}, {"note": 0, "velocity": 0, "duration": 69}, {"note": 73, "velocity": 112, "duration": 98}, {"note": 75, "velocity": 107, "duration": 177}, {"note": 0, "velocity": 0, "duration": 63}, {"note": 70, "velocity": 122, "duration": 847}, {"note": 0, "velocity": 0, "duration": 113}, {"note": 70, "velocity": 117, "duration": 202}, {"note": 78, "velocity": 127, "duration": 79}, {"note": 78, "velocity": 96, "duration": 282}, {"note": 0, "velocity": 0, "duration": 78}, {"note": 77, "velocity": 122, "duration": 222}, {"note": 78, "velocity": 127, "duration": 227}, {"note": 77, "velocity": 112, "duration": 228}, {"note": 73, "velocity": 107, "duration": 206}, {"note": 73, "velocity": 122, "duration": 121}, {"note": 75, "velocity": 112, "duration": 124}, {"note": 73, "velocity": 127, "duration": 1231}, {"note": 0, "velocity": 0, "duration": 689}, {"note": 70, "velocity": 117, "duration": 202}, {"note": 78, "velocity": 127, "duration": 79}, {"note": 78, "velocity": 96, "duration": 282}, {"note": 0, "velocity": 0, "duration": 78}, {"note": 77, "velocity": 122, "duration": 222}, {"note": 78, "velocity": 127, "duration": 227}, {"note": 77, "velocity": 112, "duration": 228}, {"note": 73, "velocity": 107, "duration": 206}, {"note": 73, "velocity": 122, "duration": 121}, {"note": 75, "velocity": 112, "duration": 124}, {"note": 73, "velocity": 127, "duration": 1231}, {"note": 0, "velocity": 0, "duration": 689}, {"note": 70, "velocity": 117, "duration": 202}, {"note": 78, "velocity": 127, "duration": 79}, {"note": 78, "velocity": 96, "duration": 282}, {"note": 0, "velocity": 0, "duration": 78}, {"note": 77, "velocity": 122, "duration": 222}, {"note": 78, "velocity": 127, "duration": 227}, {"note": 77, "velocity": 112, "duration": 228}, {"note": 73, "velocity": 117, "duration": 435}, {"note": 75, "velocity": 127, "duration": 1092}, {"note": 73, "velocity": 127, "duration": 3028}]]