[[{"note": 62, "velocity": 92, "duration": 149}, {"note": 0, "velocity": 0, "duration": 91}, {"note": 62, "velocity": 90, "duration": 129}, {"note": 0, "velocity": 0, "duration": 111}, {"note": 62, "velocity": 93, "duration": 156}, {"note": 0, "velocity": 0, "duration": 84}, {"note": 62, "velocity": 86, "duration": 78}, {"note": 65, "velocity": 96, "duration": 368}, {"note": 65, "velocity": 112, "duration": 8}, {"note": 0, "velocity": 0, "duration": 232}, {"note": 65, "velocity": 99, "duration": 64}, {"note": 63, "velocity": 102, "duration": 347}, {"note": 62, "velocity": 89, "duration": 355}, {"note": 0, "velocity": 0, "duration": 1565}, {"note": 58, "velocity": 100, "duration": 156}, {"note": 0, "velocity": 0, "duration": 84}, {"note": 58, "velocity": 95, "duration": 122}, {"note": 0, "velocity": 0, "duration": 118}, {"note": 58, "velocity": 93, "duration": 123}, {"note": 0, "velocity": 0, "duration": 117}, {"note": 58, "velocity": 99, "duration": 65}, {"note": 60, "velocity": 93, "duration": 347}, {"note": 60, "velocity": 90, "duration": 127}, {"note": 0, "velocity": 0, "duration": 113}, {"note": 58, "velocity": 99, "duration": 81}, {"note": 60, "velocity": 90, "duration": 327}, {"note": 62, "velocity": 99, "duration": 817}, {"note": 0, "velocity": 0, "duration": 1103}, {"note": 62, "velocity": 99, "duration": 148}, {"note": 0, "velocity": 0, "duration": 92}, {"note": 62, "velocity": 96, "duration": 144}, {"note": 0, "velocity": 0, "duration": 96}, {"note": 62, "velocity": 96, "duration": 142}, {"note": 0, "velocity": 0, "duration": 98}, {"note": 62, "velocity": 93, "duration": 182}, {"note": 65, "velocity": 93, "duration": 185}, {"note": 65, "velocity": 100, "duration": 95}, {"note": 0, "velocity": 0, "duration": 145}, {"note": 65, "velocity": 99, "duration": 73}, {"note": 0, "velocity": 0, "duration": 167}, {"note": 63, "velocity": 117, "duration": 111}, {"note": 62, "velocity": 90, "duration": 547}, {"note": 0, "velocity": 0, "duration": 1493}, {"note": 58, "velocity": 97, "duration": 145}, {"note": 0, "velocity": 0, "duration": 95}, {"note": 58, "velocity": 97, "duration": 134}, {"note": 0, "velocity": 0, "duration": 106}, {"note": 58, "velocity": 99, "duration": 123}, {"note": 0, "velocity": 0, "duration": 117}, {"note": 58, "velocity": 100, "duration": 64}, {"note": 60, "velocity": 93, "duration": 319}, {"note": 60, "velocity": 107, "duration": 245}, {"note": 0, "velocity": 0, "duration": 115}, {"note": 58, "velocity": 97, "duration": 95}, {"note": 57, "velocity": 92, "duration": 216}, {"note": 58, "velocity": 90, "duration": 1206}, {"note": 0, "velocity": 0, "duration": 714}, {"note": 62, "velocity": 97, "duration": 104}, {"note": 0, "velocity": 0, "duration": 136}, {"note": 62, "velocity": 89, "duration": 112}, {"note": 0, "velocity": 0, "duration": 128}, {"note": 62, "velocity": 88, "duration": 124}, {"note": 0, "velocity": 0, "duration": 116}, {"note": 62, "velocity": 97, "duration": 143}, {"note": 0, "velocity": 0, "duration": 97}, {"note": 65, "velocity": 100, "duration": 204}, {"note": 65, "velocity": 122, "duration": 165}, {"note": 0, "velocity": 0, "duration": 75}, {"note": 65, "velocity": 97, "duration": 183}, {"note": 65, "velocity": 107, "duration": 166}, {"note": 0, "velocity": 0, "duration": 74}, {"note": 67, "velocity": 122, "duration": 387}, {"note": 0, "velocity": 0, "duration": 333}, {"note": 65, "velocity": 100, "duration": 115}, {"note": 62, "velocity": 92, "duration": 529}, {"note": 0, "velocity": 0, "duration": 551}, {"note": 63, "velocity": 117, "duration": 158}, {"note": 0, "velocity": 0, "duration": 82}, {"note": 63, "velocity": 99, "duration": 164}, {"note": 0, "velocity": 0, "duration": 76}, {"note": 63, "velocity": 112, "duration": 170}, {"note": 0, "velocity": 0, "duration": 70}, {"note": 63, "velocity": 102, "duration": 189}, {"note": 65, "velocity": 99, "duration": 168}, {"note": 0, "velocity": 0, "duration": 72}, {"note": 65, "velocity": 99, "duration": 206}, {"note": 0, "velocity": 0, "duration": 154}, {"note": 60, "velocity": 93, "duration": 128}, {"note": 58, "velocity": 88, "duration": 218}, {"note": 60, "velocity": 86, "duration": 747}, {"note": 0, "velocity": 0, "duration": 1173}, {"note": 62, "velocity": 96, "duration": 156}, {"note": 0, "velocity": 0, "duration": 84}, {"note": 62, "velocity": 95, "duration": 163}, {"note": 0, "velocity": 0, "duration": 77}, {"note": 62, "velocity": 96, "duration": 155}, {"note": 0, "velocity": 0, "duration": 85}, {"note": 62, "velocity": 95, "duration": 176}, {"note": 0, "velocity": 0, "duration": 64}, {"note": 65, "velocity": 97, "duration": 169}, {"note": 0, "velocity": 0, "duration": 71}, {"note": 65, "velocity": 90, "duration": 145}, {"note": 0, "velocity": 0, "duration": 95}, {"note": 65, "velocity": 96, "duration": 119}, {"note": 0, "velocity": 0, "duration": 121}, {"note": 65, "velocity": 97, "duration": 192}, {"note": 67, "velocity": 102, "duration": 348}, {"note": 0, "velocity": 0, "duration": 492}, {"note": 65, "velocity": 77, "duration": 114}, {"note": 62, "velocity": 99, "duration": 279}, {"note": 0, "velocity": 0, "duration": 681}, {"note": 58, "velocity": 107, "duration": 155}, {"note": 0, "velocity": 0, "duration": 85}, {"note": 58, "velocity": 93, "duration": 128}, {"note": 0, "velocity": 0, "duration": 112}, {"note": 58, "velocity": 97, "duration": 153}, {"note": 0, "velocity": 0, "duration": 87}, {"note": 58, "velocity": 102, "duration": 167}, {"note": 0, "velocity": 0, "duration": 73}, {"note": 60, "velocity": 97, "duration": 224}, {"note": 60, "velocity": 95, "duration": 245}, {"note": 0, "velocity": 0, "duration": 115}, {"note": 58, "velocity": 89, "duration": 118}, {"note": 57, "velocity": 79, "duration": 210}, {"note": 58, "velocity": 93, "duration": 861}, {"note": 0, "velocity": 0, "duration": 339}, {"note": 58, "velocity": 95, "duration": 200}, {"note": 62, "velocity": 99, "duration": 222}, {"note": 65, "velocity": 100, "duration": 266}, {"note": 67, "velocity": 100, "duration": 574}, {"note": 67, "velocity": 93, "duration": 94}, {"note": 0, "velocity": 0, "duration": 146}, {"note": 67, "velocity": 99, "duration": 173}, {"note": 0, "velocity": 0, "duration": 67}, {"note": 67, "velocity": 99, "duration": 273}, {"note": 0, "velocity": 0, "duration": 207}, {"note": 67, "velocity": 107, "duration": 226}, {"note": 62, "velocity": 86, "duration": 219}, {"note": 65, "velocity": 92, "duration": 282}, {"note": 0, "velocity": 0, "duration": 198}, {"note": 62, "velocity": 102, "duration": 162}, {"note": 0, "velocity": 0, "duration": 78}, {"note": 60, "velocity": 76, "duration": 97}, {"note": 58, "velocity": 82, "duration": 348}, {"note": 0, "velocity": 0, "duration": 252}, {"note": 58, "velocity": 107, "duration": 159}, {"note": 0, "velocity": 0, "duration": 81}, {"note": 58, "velocity": 102, "duration": 75}, {"note": 60, "velocity": 99, "duration": 274}, {"note": 0, "velocity": 0, "duration": 326}, {"note": 60, "velocity": 93, "duration": 124}, {"note": 0, "velocity": 0, "duration": 116}, {"note": 60, "velocity": 78, "duration": 67}, {"note": 62, "velocity": 90, "duration": 372}, {"note": 60, "velocity": 88, "duration": 322}, {"note": 0, "velocity": 0, "duration": 158}, {"note": 60, "velocity": 100, "duration": 358}, {"note": 0, "velocity": 0, "duration": 122}, {"note": 60, "velocity": 99, "duration": 825}, {"note": 0, "velocity": 0, "duration": 135}, {"note": 58, "velocity": 96, "duration": 195}, {"note": 62, "velocity": 97, "duration": 254}, {"note": 65, "velocity": 95, "duration": 204}, {"note": 67, "velocity": 97, "duration": 313}, {"note": 0, "velocity": 0, "duration": 167}, {"note": 67, "velocity": 102, "duration": 169}, {"note": 0, "velocity": 0, "duration": 71}, {"note": 67, "velocity": 93, "duration": 143}, {"note": 0, "velocity": 0, "duration": 97}, {"note": 67, "velocity": 117, "duration": 347}, {"note": 0, "velocity": 0, "duration": 133}, {"note": 67, "velocity": 100, "duration": 182}, {"note": 62, "velocity": 96, "duration": 237}, {"note": 65, "velocity": 92, "duration": 311}, {"note": 0, "velocity": 0, "duration": 169}, {"note": 62, "velocity": 107, "duration": 201}, {"note": 60, "velocity": 83, "duration": 90}, {"note": 58, "velocity": 95, "duration": 418}, {"note": 0, "velocity": 0, "duration": 182}, {"note": 58, "velocity": 97, "duration": 166}, {"note": 0, "velocity": 0, "duration": 74}, {"note": 58, "velocity": 96, "duration": 76}, {"note": 60, "velocity": 92, "duration": 359}, {"note": 0, "velocity": 0, "duration": 241}, {"note": 60, "velocity": 93, "duration": 125}, {"note": 0, "velocity": 0, "duration": 115}, {"note": 60, "velocity": 85, "duration": 82}, {"note": 62, "velocity": 85, "duration": 332}, {"note": 60, "velocity": 90, "duration": 121}, {"note": 0, "velocity": 0, "duration": 239}, {"note": 62, "velocity": 81, "duration": 112}, {"note": 60, "velocity": 88, "duration": 235}, {"note": 0, "velocity": 0, "duration": 245}, {"note": 58, "velocity": 93, "duration": 1246}, {"note": 0, "velocity": 0, "duration": 15794}, {"note": 62, "velocity": 92, "duration": 149}, {"note": 0, "velocity": 0, "duration": 91}, {"note": 62, "velocity": 90, "duration": 129}, {"note": 0, "velocity": 0, "duration": 111}, {"note": 62, "velocity": 93, "duration": 156}, {"note": 0, "velocity": 0, "duration": 84}, {"note": 62, "velocity": 86, "duration": 78}, {"note": 65, "velocity": 96, "duration": 368}, {"note": 65, "velocity": 112, "duration": 8}, {"note": 0, "velocity": 0, "duration": 232}, {"note": 65, "velocity": 99, "duration": 64}, {"note": 63, "velocity": 102, "duration": 347}, {"note": 62, "velocity": 89, "duration": 355}, {"note": 0, "velocity": 0, "duration": 1565}, {"note": 58, "velocity": 100, "duration": 156}, {"note": 0, "velocity": 0, "duration": 84}, {"note": 58, "velocity": 95, "duration": 122}, {"note": 0, "velocity": 0, "duration": 118}, {"note": 58, "velocity": 93, "duration": 123}, {"note": 0, "velocity": 0, "duration": 117}, {"note": 58, "velocity": 99, "duration": 65}, {"note": 60, "velocity": 93, "duration": 347}, {"note": 60, "velocity": 90, "duration": 127}, {"note": 0, "velocity": 0, "duration": 113}, {"note": 58, "velocity": 99, "duration": 81}, {"note": 60, "velocity": 90, "duration": 327}, {"note": 62, "velocity": 99, "duration": 817}, {"note": 0, "velocity": 0, "duration": 1103}, {"note": 62, "velocity": 99, "duration": 148}, {"note": 0, "velocity": 0, "duration": 92}, {"note": 62, "velocity": 96, "duration": 144}, {"note": 0, "velocity": 0, "duration": 96}, {"note": 62, "velocity": 96, "duration": 142}, {"note": 0, "velocity": 0, "duration": 98}, {"note": 62, "velocity": 93, "duration": 182}, {"note": 65, "velocity": 93, "duration": 185}, {"note": 65, "velocity": 100, "duration": 95}, {"note": 0, "velocity": 0, "duration": 145}, {"note": 65, "velocity": 99, "duration": 73}, {"note": 0, "velocity": 0, "duration": 167}, {"note": 63, "velocity": 117, "duration": 111}, {"note": 62, "velocity": 90, "duration": 547}, {"note": 0, "velocity": 0, "duration": 1493}, {"note": 58, "velocity": 97, "duration": 145}, {"note": 0, "velocity": 0, "duration": 95}, {"note": 58, "velocity": 97, "duration": 134}, {"note": 0, "velocity": 0, "duration": 106}, {"note": 58, "velocity": 99, "duration": 123}, {"note": 0, "velocity": 0, "duration": 117}, {"note": 58, "velocity": 100, "duration": 64}, {"note": 60, "velocity": 93, "duration": 319}, {"note": 60, "velocity": 107, "duration": 245}, {"note": 0, "velocity": 0, "duration": 115}, {"note": 58, "velocity": 97, "duration": 95}, {"note": 57, "velocity": 92, "duration": 216}, {"note": 58, "velocity": 90, "duration": 1206}, {"note": 0, "velocity": 0, "duration": 714}, {"note": 62, "velocity": 97, "duration": 104}, {"note": 0, "velocity": 0, "duration": 136}, {"note": 62, "velocity": 89, "duration": 112}, {"note": 0, "velocity": 0, "duration": 128}, {"note": 62, "velocity": 88, "duration": 124}, {"note": 0, "velocity": 0, "duration": 116}, {"note": 62, "velocity": 97, "duration": 143}, {"note": 0, "velocity": 0, "duration": 97}, {"note": 65, "velocity": 100, "duration": 204}, {"note": 65, "velocity": 122, "duration": 165}, {"note": 0, "velocity": 0, "duration": 75}, {"note": 65, "velocity": 97, "duration": 183}, {"note": 65, "velocity": 107, "duration": 166}, {"note": 0, "velocity": 0, "duration": 74}, {"note": 67, "velocity": 122, "duration": 387}, {"note": 0, "velocity": 0, "duration": 333}, {"note": 65, "velocity": 100, "duration": 115}, {"note": 62, "velocity": 92, "duration": 529}, {"note": 0, "velocity": 0, "duration": 551}, {"note": 63, "velocity": 117, "duration": 158}, {"note": 0, "velocity": 0, "duration": 82}, {"note": 63, "velocity": 99, "duration": 164}, {"note": 0, "velocity": 0, "duration": 76}, {"note": 63, "velocity": 112, "duration": 170}, {"note": 0, "velocity": 0, "duration": 70}, {"note": 63, "velocity": 102, "duration": 189}, {"note": 65, "velocity": 99, "duration": 168}, {"note": 0, "velocity": 0, "duration": 72}, {"note": 65, "velocity": 99, "duration": 206}, {"note": 0, "velocity": 0, "duration": 154}, {"note": 60, "velocity": 93, "duration": 128}, {"note": 58, "velocity": 88, "duration": 218}, {"note": 60, "velocity": 86, "duration": 747}, {"note": 0, "velocity": 0, "duration": 1173}, {"note": 62, "velocity": 96, "duration": 156}, {"note": 0, "velocity": 0, "duration": 84}, {"note": 62, "velocity": 95, "duration": 163}, {"note": 0, "velocity": 0, "duration": 77}, {"note": 62, "velocity": 96, "duration": 155}, {"note": 0, "velocity": 0, "duration": 85}, {"note": 62, "velocity": 95, "duration": 176}, {"note": 0, "velocity": 0, "duration": 64}, {"note": 65, "velocity": 97, "duration": 169}, {"note": 0, "velocity": 0, "duration": 71}, {"note": 65, "velocity": 90, "duration": 145}, {"note": 0, "velocity": 0, "duration": 95}, {"note": 65, "velocity": 96, "duration": 119}, {"note": 0, "velocity": 0, "duration": 121}, {"note": 65, "velocity": 97, "duration": 192}, {"note": 67, "velocity": 102, "duration": 348}, {"note": 0, "velocity": 0, "duration": 492}, {"note": 65, "velocity": 77, "duration": 114}, {"note": 62, "velocity": 99, "duration": 279}, {"note": 0, "velocity": 0, "duration": 681}, {"note": 58, "velocity": 107, "duration": 155}, {"note": 0, "velocity": 0, "duration": 85}, {"note": 58, "velocity": 93, "duration": 128}, {"note": 0, "velocity": 0, "duration": 112}, {"note": 58, "velocity": 97, "duration": 153}, {"note": 0, "velocity": 0, "duration": 87}, {"note": 58, "velocity": 102, "duration": 167}, {"note": 0, "velocity": 0, "duration": 73}, {"note": 60, "velocity": 97, "duration": 224}, {"note": 60, "velocity": 95, "duration": 245}, {"note": 0, "velocity": 0, "duration": 115}, {"note": 58, "velocity": 89, "duration": 118}, {"note": 57, "velocity": 79, "duration": 210}, {"note": 58, "velocity": 93, "duration": 861}, {"note": 0, "velocity": 0, "duration": 339}, {"note": 58, "velocity": 95, "duration": 200}, {"note": 62, "velocity": 99, "duration": 222}, {"note": 65, "velocity": 100, "duration": 266}, {"note": 67, "velocity": 100, "duration": 574}, {"note": 67, "velocity": 93, "duration": 94}, {"note": 0, "velocity": 0, "duration": 146}, {"note": 67, "velocity": 99, "duration": 173}, {"note": 0, "velocity": 0, "duration": 67}, {"note": 67, "velocity": 99, "duration": 273}, {"note": 0, "velocity": 0, "duration": 207}, {"note": 67, "velocity": 107, "duration": 226}, {"note": 62, "velocity": 86, "duration": 219}, {"note": 65, "velocity": 92, "duration": 282}, {"note": 0, "velocity": 0, "duration": 198}, {"note": 62, "velocity": 102, "duration": 162}, {"note": 0, "velocity": 0, "duration": 78}, {"note": 60, "velocity": 76, "duration": 97}, {"note": 58, "velocity": 82, "duration": 348}, {"note": 0, "velocity": 0, "duration": 252}, {"note": 58, "velocity": 107, "duration": 159}, {"note": 0, "velocity": 0, "duration": 81}, {"note": 58, "velocity": 102, "duration": 75}, {"note": 60, "velocity": 99, "duration": 274}, {"note": 0, "velocity": 0, "duration": 326}, {"note": 60, "velocity": 93, "duration": 124}, {"note": 0, "velocity": 0, "duration": 116}, {"note": 60, "velocity": 78, "duration": 67}, {"note": 62, "velocity": 90, "duration": 372}, {"note": 60, "velocity": 88, "duration": 322}, {"note": 0, "velocity": 0, "duration": 158}, {"note": 60, "velocity": 100, "duration": 358}, {"note": 0, "velocity": 0, "duration": 122}, {"note": 60, "velocity": 99, "duration": 825}, {"note": 0, "velocity": 0, "duration": 135}, {"note": 58, "velocity": 96, "duration": 195}, {"note": 62, "velocity": 97, "duration": 254}, {"note": 65, "velocity": 95, "duration": 204}, {"note": 67, "velocity": 97, "duration": 313}, {"note": 0, "velocity": 0, "duration": 167}, {"note": 67, "velocity": 102, "duration": 169}, {"note": 0, "velocity": 0, "duration": 71}, {"note": 67, "velocity": 93, "duration": 143}, {"note": 0, "velocity": 0, "duration": 97}, {"note": 67, "velocity": 117, "duration": 347}, {"note": 0, "velocity": 0, "duration": 133}, {"note": 67, "velocity": 100, "duration": 182}, {"note": 62, "velocity": 96, "duration": 237}, {"note": 65, "velocity": 92, "duration": 311}, {"note": 0, "velocity": 0, "duration": 169}, {"note": 62, "velocity": 107, "duration": 201}, {"note": 60, "velocity": 83, "duration": 90}, {"note": 58, "velocity": 95, "duration": 418}, {"note": 0, "velocity": 0, "duration": 182}, {"note": 58, "velocity": 97, "duration": 166}, {"note": 0, "velocity": 0, "duration": 74}, {"note": 58, "velocity": 96, "duration": 76}, {"note": 60, "velocity": 92, "duration": 359}, {"note": 0, "velocity": 0, "duration": 241}, {"note": 60, "velocity": 93, "duration": 125}, {"note": 0, "velocity": 0, "duration": 115}, {"note": 60, "velocity": 85, "duration": 82}, {"note": 62, "velocity": 85, "duration": 332}, {"note": 60, "velocity": 90, "duration": 121}, {"note": 0, "velocity": 0, "duration": 239}, {"note": 62, "velocity": 81, "duration": 112}, {"note": 60, "velocity": 88, "duration": 235}, {"note": 0, "velocity": 0, "duration": 245}, {"note": 58, "velocity": 93, "duration": 720}, {"note": 0, "velocity": 0, "duration": 240}, {"note": 58, "velocity": 95, "duration": 200}, {"note": 62, "velocity": 99, "duration": 222}, {"note": 65, "velocity": 100, "duration": 266}, {"note": 67, "velocity": 100, "duration": 574}, {"note": 67, "velocity": 93, "duration": 94}, {"note": 0, "velocity": 0, "duration": 146}, {"note": 67, "velocity": 99, "duration": 173}, {"note": 0, "velocity": 0, "duration": 67}, {"note": 67, "velocity": 99, "duration": 273}, {"note": 0, "velocity": 0, "duration": 207}, {"note": 67, "velocity": 107, "duration": 226}, {"note": 62, "velocity": 86, "duration": 219}, {"note": 65, "velocity": 92, "duration": 282}, {"note": 0, "velocity": 0, "duration": 198}, {"note": 62, "velocity": 102, "duration": 162}, {"note": 0, "velocity": 0, "duration": 78}, {"note": 60, "velocity": 76, "duration": 97}, {"note": 58, "velocity": 82, "duration": 348}, {"note": 0, "velocity": 0, "duration": 252}, {"note": 58, "velocity": 107, "duration": 159}, {"note": 0, "velocity": 0, "duration": 81}, {"note": 58, "velocity": 102, "duration": 75}, {"note": 60, "velocity": 99, "duration": 274}, {"note": 0, "velocity": 0, "duration": 326}, {"note": 60, "velocity": 93, "duration": 124}, {"note": 0, "velocity": 0, "duration": 116}, {"note": 60, "velocity": 78, "duration": 67}, {"note": 62, "velocity": 90, "duration": 372}, {"note": 60, "velocity": 88, "duration": 322}, {"note": 0, "velocity": 0, "duration": 158}, {"note": 60, "velocity": 100, "duration": 358}, {"note": 0, "velocity": 0, "duration": 122}, {"note": 60, "velocity": 99, "duration": 825}, {"note": 0, "velocity": 0, "duration": 135}, {"note": 58, "velocity": 96, "duration": 195}, {"note": 62, "velocity": 97, "duration": 254}, {"note": 65, "velocity": 95, "duration": 204}, {"note": 67, "velocity": 97, "duration": 313}, {"note": 0, "velocity": 0, "duration": 167}, {"note": 67, "velocity": 102, "duration": 169}, {"note": 0, "velocity": 0, "duration": 71}, {"note": 67, "velocity": 93, "duration": 143}, {"note": 0, "velocity": 0, "duration": 97}, {"note": 67, "velocity": 117, "duration": 347}, {"note": 0, "velocity": 0, "duration": 133}, {"note": 67, "velocity": 100, "duration": 182}, {"note": 62, "velocity": 96, "duration": 237}, {"note": 65, "velocity": 92, "duration": 311}, {"note": 0, "velocity": 0, "duration": 169}, {"note": 62, "velocity": 107, "duration": 201}, {"note": 60, "velocity": 83, "duration": 90}, {"note": 58, "velocity": 95, "duration": 418}, {"note": 0, "velocity": 0, "duration": 182}, {"note": 58, "velocity": 97, "duration": 166}, {"note": 0, "velocity": 0, "duration": 74}, {"note": 58, "velocity": 96, "duration": 76}, {"note": 60, "velocity": 92, "duration": 359}, {"note": 0, "velocity": 0, "duration": 241}, {"note": 60, "velocity": 93, "duration": 125}, {"note": 0, "velocity": 0, "duration": 115}, {"note": 60, "velocity": 85, "duration": 82}, {"note": 62, "velocity": 85, "duration": 332}, {"note": 60, "velocity": 90, "duration": 121}, {"note": 0, "velocity": 0, "duration": 239}, {"note": 62, "velocity": 81, "duration": 112}, {"note": 60, "velocity": 88, "duration": 235}, {"note": 0, "velocity": 0, "duration": 245}, {"note": 58, "velocity": 93, "duration": 720}, {"note": 0, "velocity": 0, "duration": 240}, {"note": 58, "velocity": 95, "duration": 200}, {"note": 62, "velocity": 99, "duration": 222}, {"note": 65, "velocity": 100, "duration": 266}, {"note": 67, "velocity": 100, "duration": 574}, {"note": 67, "velocity": 93, "duration": 94}, {"note": 0, "velocity": 0, "duration": 146}, {"note": 67, "velocity": 99, "duration": 173}, {"note": 0, "velocity": 0, "duration": 67}, {"note": 67, "velocity": 99, "duration": 273}, {"note": 0, "velocity": 0, "duration": 207}, {"note": 67, "velocity": 107, "duration": 226}, {"note": 62, "velocity": 86, "duration": 219}, {"note": 65, "velocity": 92, "duration": 282}, {"note": 0, "velocity": 0, "duration": 198}, {"note": 62, "velocity": 102, "duration": 162}, {"note": 0, "velocity": 0, "duration": 78}, {"note": 60, "velocity": 76, "duration": 97}, {"note": 58, "velocity": 82, "duration": 348}, {"note": 0, "velocity": 0, "duration": 252}, {"note": 58, "velocity": 107, "duration": 159}, {"note": 0, "velocity": 0, "duration": 81}, {"note": 58, "velocity": 102, "duration": 75}, {"note": 60, "velocity": 99, "duration": 274}, {"note": 0, "velocity": 0, "duration": 326}, {"note": 60, "velocity": 93, "duration": 124}, {"note": 0, "velocity": 0, "duration": 116}, {"note": 60, "velocity": 78, "duration": 67}, {"note": 62, "velocity": 90, "duration": 372}, {"note": 60, "velocity": 88, "duration": 322}, {"note": 0, "velocity": 0, "duration": 158}, {"note": 60, "velocity": 100, "duration": 358}, {"note": 0, "velocity": 0, "duration": 122}, {"note": 60, "velocity": 99, "duration": 825}, {"note": 0, "velocity": 0, "duration": 135}, {"note": 58, "velocity": 96, "duration": 195}, {"note": 62, "velocity": 97, "duration": 254}, {"note": 65, "velocity": 95, "duration": 204}, {"note": 67, "velocity": 97, "duration": 313}, {"note": 0, "velocity": 0, "duration": 167}, {"note": 67, "velocity": 102, "duration": 169}, {"note": 0, "velocity": 0, "duration": 71}, {"note": 67, "velocity": 93, "duration": 143}, {"note": 0, "velocity": 0, "duration": 97}, {"note": 67, "velocity": 117, "duration": 347}, {"note": 0, "velocity": 0, "duration": 133}, {"note": 67, "velocity": 100, "duration": 182}, {"note": 62, "velocity": 96, "duration": 237}, {"note": 65, "velocity": 92, "duration": 311}, {"note": 0, "velocity": 0, "duration": 169}, {"note": 62, "velocity": 107, "duration": 201}, {"note": 60, "velocity": 83, "duration": 90}, {"note": 58, "velocity": 95, "duration": 418}, {"note": 0, "velocity": 0, "duration": 182}, {"note": 58, "velocity": 97, "duration": 166}, {"note": 0, "velocity": 0, "duration": 74}, {"note": 58, "velocity": 96, "duration": 76}, {"note": 60, "velocity": 92, "duration": 359}, {"note": 0, "velocity": 0, "duration": 241}, {"note": 60, "velocity": 93, "duration": 125}, {"note": 0, "velocity": 0, "duration": 115}, {"note": 60, "velocity": 85, "duration": 82}, {"note": 62, "velocity": 85, "duration": 332}, {"note": 60, "velocity": 90, "duration": 121}, {"note": 0, "velocity": 0, "duration": 1092}, {"note": 62, "velocity": 97, "duration": 181}, {"note": 60, "velocity": 81, "duration": 197}, {"note": 58, "velocity": 89, "duration": 1905}]]