[[{"note": 69, "velocity": 117, "duration": 106}, {"note": 67, "velocity": 89, "duration": 132}, {"note": 69, "velocity": 117, "duration": 146}, {"note": 72, "velocity": 107, "duration": 76}, {"note": 72, "velocity": 97, "duration": 66}, {"note": 72, "velocity": 102, "duration": 222}, {"note": 0, "velocity": 0, "duration": 138}, {"note": 67, "velocity": 112, "duration": 105}, {"note": 65, "velocity": 75, "duration": 86}, {"note": 67, "velocity": 95, "duration": 139}, {"note": 72, "velocity": 99, "duration": 76}, {"note": 72, "velocity": 100, "duration": 57}, {"note": 0, "velocity": 0, "duration": 63}, {"note": 72, "velocity": 102, "duration": 335}, {"note": 69, "velocity": 112, "duration": 34}, {"note": 0, "velocity": 0, "duration": 86}, {"note": 67, "velocity": 81, "duration": 109}, {"note": 69, "velocity": 74, "duration": 108}, {"note": 77, "velocity": 96, "duration": 62}, {"note": 77, "velocity": 96, "duration": 54}, {"note": 0, "velocity": 0, "duration": 66}, {"note": 77, "velocity": 117, "duration": 155}, {"note": 0, "velocity": 0, "duration": 205}, {"note": 76, "velocity": 127, "duration": 136}, {"note": 77, "velocity": 96, "duration": 92}, {"note": 76, "velocity": 112, "duration": 128}, {"note": 72, "velocity": 100, "duration": 122}, {"note": 69, "velocity": 92, "duration": 128}, {"note": 72, "velocity": 112, "duration": 423}, {"note": 74, "velocity": 107, "duration": 86}, {"note": 76, "velocity": 117, "duration": 67}, {"note": 77, "velocity": 122, "duration": 165}, {"note": 0, "velocity": 0, "duration": 75}, {"note": 70, "velocity": 107, "duration": 50}, {"note": 0, "velocity": 0, "duration": 70}, {"note": 70, "velocity": 112, "duration": 319}, {"note": 72, "velocity": 107, "duration": 53}, {"note": 0, "velocity": 0, "duration": 67}, {"note": 74, "velocity": 102, "duration": 59}, {"note": 0, "velocity": 0, "duration": 61}, {"note": 76, "velocity": 112, "duration": 212}, {"note": 69, "velocity": 93, "duration": 57}, {"note": 0, "velocity": 0, "duration": 63}, {"note": 69, "velocity": 93, "duration": 301}, {"note": 70, "velocity": 127, "duration": 70}, {"note": 72, "velocity": 107, "duration": 55}, {"note": 0, "velocity": 0, "duration": 65}, {"note": 74, "velocity": 127, "duration": 200}, {"note": 77, "velocity": 122, "duration": 50}, {"note": 0, "velocity": 0, "duration": 70}, {"note": 77, "velocity": 107, "duration": 51}, {"note": 0, "velocity": 0, "duration": 69}, {"note": 77, "velocity": 127, "duration": 145}, {"note": 0, "velocity": 0, "duration": 95}, {"note": 65, "velocity": 97, "duration": 149}, {"note": 67, "velocity": 102, "duration": 468}, {"note": 0, "velocity": 0, "duration": 372}, {"note": 69, "velocity": 127, "duration": 46}, {"note": 0, "velocity": 0, "duration": 74}, {"note": 67, "velocity": 93, "duration": 44}, {"note": 0, "velocity": 0, "duration": 76}, {"note": 69, "velocity": 127, "duration": 118}, {"note": 72, "velocity": 117, "duration": 63}, {"note": 72, "velocity": 112, "duration": 62}, {"note": 72, "velocity": 127, "duration": 102}, {"note": 0, "velocity": 0, "duration": 258}, {"note": 67, "velocity": 117, "duration": 44}, {"note": 0, "velocity": 0, "duration": 76}, {"note": 65, "velocity": 97, "duration": 74}, {"note": 67, "velocity": 117, "duration": 119}, {"note": 72, "velocity": 95, "duration": 80}, {"note": 72, "velocity": 112, "duration": 71}, {"note": 72, "velocity": 112, "duration": 207}, {"note": 0, "velocity": 0, "duration": 153}, {"note": 69, "velocity": 127, "duration": 36}, {"note": 0, "velocity": 0, "duration": 84}, {"note": 67, "velocity": 102, "duration": 105}, {"note": 69, "velocity": 122, "duration": 120}, {"note": 77, "velocity": 92, "duration": 88}, {"note": 77, "velocity": 90, "duration": 78}, {"note": 77, "velocity": 112, "duration": 285}, {"note": 0, "velocity": 0, "duration": 75}, {"note": 76, "velocity": 127, "duration": 95}, {"note": 77, "velocity": 100, "duration": 90}, {"note": 76, "velocity": 112, "duration": 130}, {"note": 72, "velocity": 99, "duration": 105}, {"note": 69, "velocity": 92, "duration": 127}, {"note": 72, "velocity": 127, "duration": 348}, {"note": 74, "velocity": 100, "duration": 82}, {"note": 76, "velocity": 122, "duration": 105}, {"note": 77, "velocity": 117, "duration": 182}, {"note": 70, "velocity": 100, "duration": 87}, {"note": 70, "velocity": 127, "duration": 321}, {"note": 72, "velocity": 100, "duration": 67}, {"note": 74, "velocity": 107, "duration": 59}, {"note": 0, "velocity": 0, "duration": 61}, {"note": 76, "velocity": 112, "duration": 251}, {"note": 69, "velocity": 89, "duration": 61}, {"note": 69, "velocity": 102, "duration": 259}, {"note": 0, "velocity": 0, "duration": 101}, {"note": 70, "velocity": 127, "duration": 91}, {"note": 72, "velocity": 102, "duration": 84}, {"note": 74, "velocity": 122, "duration": 252}, {"note": 77, "velocity": 127, "duration": 57}, {"note": 0, "velocity": 0, "duration": 63}, {"note": 77, "velocity": 117, "duration": 58}, {"note": 0, "velocity": 0, "duration": 62}, {"note": 77, "velocity": 112, "duration": 212}, {"note": 79, "velocity": 107, "duration": 50}, {"note": 0, "velocity": 0, "duration": 70}, {"note": 79, "velocity": 122, "duration": 921}, {"note": 0, "velocity": 0, "duration": 519}, {"note": 72, "velocity": 102, "duration": 64}, {"note": 72, "velocity": 117, "duration": 145}, {"note": 79, "velocity": 112, "duration": 96}, {"note": 84, "velocity": 122, "duration": 124}, {"note": 79, "velocity": 127, "duration": 100}, {"note": 81, "velocity": 127, "duration": 183}, {"note": 81, "velocity": 127, "duration": 52}, {"note": 0, "velocity": 0, "duration": 68}, {"note": 81, "velocity": 112, "duration": 57}, {"note": 0, "velocity": 0, "duration": 63}, {"note": 81, "velocity": 127, "duration": 116}, {"note": 82, "velocity": 127, "duration": 88}, {"note": 84, "velocity": 127, "duration": 91}, {"note": 79, "velocity": 127, "duration": 515}, {"note": 79, "velocity": 107, "duration": 35}, {"note": 0, "velocity": 0, "duration": 85}, {"note": 79, "velocity": 112, "duration": 74}, {"note": 81, "velocity": 127, "duration": 68}, {"note": 82, "velocity": 127, "duration": 90}, {"note": 81, "velocity": 122, "duration": 97}, {"note": 77, "velocity": 117, "duration": 183}, {"note": 77, "velocity": 127, "duration": 51}, {"note": 0, "velocity": 0, "duration": 69}, {"note": 77, "velocity": 112, "duration": 54}, {"note": 0, "velocity": 0, "duration": 66}, {"note": 79, "velocity": 127, "duration": 170}, {"note": 0, "velocity": 0, "duration": 70}, {"note": 81, "velocity": 117, "duration": 49}, {"note": 0, "velocity": 0, "duration": 71}, {"note": 76, "velocity": 112, "duration": 548}, {"note": 76, "velocity": 127, "duration": 92}, {"note": 77, "velocity": 107, "duration": 137}, {"note": 76, "velocity": 127, "duration": 107}, {"note": 72, "velocity": 102, "duration": 129}, {"note": 74, "velocity": 127, "duration": 161}, {"note": 0, "velocity": 0, "duration": 79}, {"note": 74, "velocity": 127, "duration": 48}, {"note": 0, "velocity": 0, "duration": 72}, {"note": 74, "velocity": 122, "duration": 80}, {"note": 76, "velocity": 127, "duration": 263}, {"note": 77, "velocity": 127, "duration": 101}, {"note": 72, "velocity": 112, "duration": 392}, {"note": 0, "velocity": 0, "duration": 208}, {"note": 72, "velocity": 127, "duration": 107}, {"note": 69, "velocity": 102, "duration": 143}, {"note": 72, "velocity": 122, "duration": 105}, {"note": 76, "velocity": 127, "duration": 91}, {"note": 77, "velocity": 127, "duration": 236}, {"note": 77, "velocity": 127, "duration": 74}, {"note": 74, "velocity": 99, "duration": 105}, {"note": 77, "velocity": 127, "duration": 198}, {"note": 79, "velocity": 117, "duration": 54}, {"note": 0, "velocity": 0, "duration": 66}, {"note": 79, "velocity": 127, "duration": 443}, {"note": 72, "velocity": 112, "duration": 69}, {"note": 72, "velocity": 112, "duration": 131}, {"note": 79, "velocity": 117, "duration": 98}, {"note": 84, "velocity": 117, "duration": 126}, {"note": 79, "velocity": 127, "duration": 100}, {"note": 81, "velocity": 127, "duration": 156}, {"note": 0, "velocity": 0, "duration": 84}, {"note": 81, "velocity": 127, "duration": 45}, {"note": 0, "velocity": 0, "duration": 75}, {"note": 81, "velocity": 127, "duration": 39}, {"note": 0, "velocity": 0, "duration": 81}, {"note": 81, "velocity": 127, "duration": 112}, {"note": 82, "velocity": 112, "duration": 133}, {"note": 84, "velocity": 112, "duration": 108}, {"note": 79, "velocity": 122, "duration": 448}, {"note": 79, "velocity": 117, "duration": 47}, {"note": 0, "velocity": 0, "duration": 73}, {"note": 79, "velocity": 112, "duration": 61}, {"note": 81, "velocity": 112, "duration": 56}, {"note": 0, "velocity": 0, "duration": 64}, {"note": 82, "velocity": 127, "duration": 107}, {"note": 81, "velocity": 127, "duration": 90}, {"note": 77, "velocity": 117, "duration": 173}, {"note": 0, "velocity": 0, "duration": 67}, {"note": 77, "velocity": 122, "duration": 47}, {"note": 0, "velocity": 0, "duration": 73}, {"note": 77, "velocity": 102, "duration": 68}, {"note": 79, "velocity": 127, "duration": 200}, {"note": 81, "velocity": 122, "duration": 55}, {"note": 0, "velocity": 0, "duration": 65}, {"note": 76, "velocity": 122, "duration": 405}, {"note": 0, "velocity": 0, "duration": 195}, {"note": 76, "velocity": 127, "duration": 89}, {"note": 77, "velocity": 112, "duration": 76}, {"note": 76, "velocity": 127, "duration": 99}, {"note": 72, "velocity": 99, "duration": 122}, {"note": 74, "velocity": 127, "duration": 146}, {"note": 0, "velocity": 0, "duration": 94}, {"note": 74, "velocity": 127, "duration": 50}, {"note": 0, "velocity": 0, "duration": 70}, {"note": 74, "velocity": 102, "duration": 69}, {"note": 76, "velocity": 127, "duration": 255}, {"note": 77, "velocity": 117, "duration": 92}, {"note": 72, "velocity": 112, "duration": 417}, {"note": 0, "velocity": 0, "duration": 183}, {"note": 72, "velocity": 127, "duration": 42}, {"note": 0, "velocity": 0, "duration": 78}, {"note": 69, "velocity": 100, "duration": 90}, {"note": 72, "velocity": 117, "duration": 119}, {"note": 76, "velocity": 112, "duration": 79}, {"note": 77, "velocity": 122, "duration": 159}, {"note": 0, "velocity": 0, "duration": 81}, {"note": 77, "velocity": 127, "duration": 86}, {"note": 74, "velocity": 122, "duration": 104}, {"note": 77, "velocity": 127, "duration": 213}, {"note": 79, "velocity": 127, "duration": 67}, {"note": 79, "velocity": 127, "duration": 470}, {"note": 0, "velocity": 0, "duration": 130}, {"note": 77, "velocity": 127, "duration": 189}, {"note": 76, "velocity": 127, "duration": 94}, {"note": 77, "velocity": 127, "duration": 1113}, {"note": 0, "velocity": 0, "duration": 6447}, {"note": 69, "velocity": 127, "duration": 46}, {"note": 0, "velocity": 0, "duration": 74}, {"note": 67, "velocity": 93, "duration": 44}, {"note": 0, "velocity": 0, "duration": 76}, {"note": 69, "velocity": 127, "duration": 118}, {"note": 72, "velocity": 117, "duration": 63}, {"note": 72, "velocity": 112, "duration": 62}, {"note": 72, "velocity": 127, "duration": 102}, {"note": 0, "velocity": 0, "duration": 258}, {"note": 67, "velocity": 117, "duration": 44}, {"note": 0, "velocity": 0, "duration": 76}, {"note": 65, "velocity": 97, "duration": 74}, {"note": 67, "velocity": 117, "duration": 119}, {"note": 72, "velocity": 95, "duration": 80}, {"note": 72, "velocity": 112, "duration": 71}, {"note": 72, "velocity": 112, "duration": 207}, {"note": 0, "velocity": 0, "duration": 153}, {"note": 69, "velocity": 127, "duration": 36}, {"note": 0, "velocity": 0, "duration": 84}, {"note": 67, "velocity": 102, "duration": 105}, {"note": 69, "velocity": 122, "duration": 120}, {"note": 77, "velocity": 92, "duration": 88}, {"note": 77, "velocity": 90, "duration": 78}, {"note": 77, "velocity": 112, "duration": 285}, {"note": 0, "velocity": 0, "duration": 75}, {"note": 76, "velocity": 127, "duration": 95}, {"note": 77, "velocity": 100, "duration": 90}, {"note": 76, "velocity": 112, "duration": 130}, {"note": 72, "velocity": 99, "duration": 105}, {"note": 69, "velocity": 92, "duration": 127}, {"note": 72, "velocity": 127, "duration": 348}, {"note": 74, "velocity": 100, "duration": 82}, {"note": 76, "velocity": 122, "duration": 105}, {"note": 77, "velocity": 117, "duration": 182}, {"note": 70, "velocity": 100, "duration": 87}, {"note": 70, "velocity": 127, "duration": 321}, {"note": 72, "velocity": 100, "duration": 67}, {"note": 74, "velocity": 107, "duration": 59}, {"note": 0, "velocity": 0, "duration": 61}, {"note": 76, "velocity": 112, "duration": 251}, {"note": 69, "velocity": 89, "duration": 61}, {"note": 69, "velocity": 102, "duration": 259}, {"note": 0, "velocity": 0, "duration": 101}, {"note": 70, "velocity": 127, "duration": 91}, {"note": 72, "velocity": 102, "duration": 84}, {"note": 74, "velocity": 122, "duration": 252}, {"note": 77, "velocity": 127, "duration": 57}, {"note": 0, "velocity": 0, "duration": 63}, {"note": 77, "velocity": 117, "duration": 58}, {"note": 0, "velocity": 0, "duration": 62}, {"note": 77, "velocity": 112, "duration": 212}, {"note": 79, "velocity": 107, "duration": 50}, {"note": 0, "velocity": 0, "duration": 70}, {"note": 79, "velocity": 122, "duration": 921}, {"note": 0, "velocity": 0, "duration": 519}, {"note": 72, "velocity": 102, "duration": 64}, {"note": 72, "velocity": 117, "duration": 145}, {"note": 79, "velocity": 112, "duration": 96}, {"note": 84, "velocity": 122, "duration": 124}, {"note": 79, "velocity": 127, "duration": 100}, {"note": 81, "velocity": 127, "duration": 183}, {"note": 81, "velocity": 127, "duration": 52}, {"note": 0, "velocity": 0, "duration": 68}, {"note": 81, "velocity": 112, "duration": 57}, {"note": 0, "velocity": 0, "duration": 63}, {"note": 81, "velocity": 127, "duration": 116}, {"note": 82, "velocity": 127, "duration": 88}, {"note": 84, "velocity": 127, "duration": 91}, {"note": 79, "velocity": 127, "duration": 515}, {"note": 79, "velocity": 107, "duration": 35}, {"note": 0, "velocity": 0, "duration": 85}, {"note": 79, "velocity": 112, "duration": 74}, {"note": 81, "velocity": 127, "duration": 68}, {"note": 82, "velocity": 127, "duration": 90}, {"note": 81, "velocity": 122, "duration": 97}, {"note": 77, "velocity": 117, "duration": 183}, {"note": 77, "velocity": 127, "duration": 51}, {"note": 0, "velocity": 0, "duration": 69}, {"note": 77, "velocity": 112, "duration": 54}, {"note": 0, "velocity": 0, "duration": 66}, {"note": 79, "velocity": 127, "duration": 170}, {"note": 0, "velocity": 0, "duration": 70}, {"note": 81, "velocity": 117, "duration": 49}, {"note": 0, "velocity": 0, "duration": 71}, {"note": 76, "velocity": 112, "duration": 548}, {"note": 76, "velocity": 127, "duration": 92}, {"note": 77, "velocity": 107, "duration": 137}, {"note": 76, "velocity": 127, "duration": 107}, {"note": 72, "velocity": 102, "duration": 129}, {"note": 74, "velocity": 127, "duration": 161}, {"note": 0, "velocity": 0, "duration": 79}, {"note": 74, "velocity": 127, "duration": 48}, {"note": 0, "velocity": 0, "duration": 72}, {"note": 74, "velocity": 122, "duration": 80}, {"note": 76, "velocity": 127, "duration": 263}, {"note": 77, "velocity": 127, "duration": 101}, {"note": 72, "velocity": 112, "duration": 392}, {"note": 0, "velocity": 0, "duration": 208}, {"note": 72, "velocity": 127, "duration": 107}, {"note": 69, "velocity": 102, "duration": 143}, {"note": 72, "velocity": 122, "duration": 105}, {"note": 76, "velocity": 127, "duration": 91}, {"note": 77, "velocity": 127, "duration": 236}, {"note": 77, "velocity": 127, "duration": 74}, {"note": 74, "velocity": 99, "duration": 105}, {"note": 77, "velocity": 127, "duration": 198}, {"note": 79, "velocity": 117, "duration": 54}, {"note": 0, "velocity": 0, "duration": 66}, {"note": 79, "velocity": 127, "duration": 443}, {"note": 72, "velocity": 112, "duration": 69}, {"note": 72, "velocity": 112, "duration": 131}, {"note": 79, "velocity": 117, "duration": 98}, {"note": 84, "velocity": 117, "duration": 126}, {"note": 79, "velocity": 127, "duration": 100}, {"note": 81, "velocity": 127, "duration": 156}, {"note": 0, "velocity": 0, "duration": 84}, {"note": 81, "velocity": 127, "duration": 45}, {"note": 0, "velocity": 0, "duration": 75}, {"note": 81, "velocity": 127, "duration": 39}, {"note": 0, "velocity": 0, "duration": 81}, {"note": 81, "velocity": 127, "duration": 112}, {"note": 82, "velocity": 112, "duration": 133}, {"note": 84, "velocity": 112, "duration": 108}, {"note": 79, "velocity": 122, "duration": 448}, {"note": 79, "velocity": 117, "duration": 47}, {"note": 0, "velocity": 0, "duration": 73}, {"note": 79, "velocity": 112, "duration": 61}, {"note": 81, "velocity": 112, "duration": 56}, {"note": 0, "velocity": 0, "duration": 64}, {"note": 82, "velocity": 127, "duration": 107}, {"note": 81, "velocity": 127, "duration": 90}, {"note": 77, "velocity": 117, "duration": 173}, {"note": 0, "velocity": 0, "duration": 67}, {"note": 77, "velocity": 122, "duration": 47}, {"note": 0, "velocity": 0, "duration": 73}, {"note": 77, "velocity": 102, "duration": 68}, {"note": 79, "velocity": 127, "duration": 200}, {"note": 81, "velocity": 122, "duration": 55}, {"note": 0, "velocity": 0, "duration": 65}, {"note": 76, "velocity": 122, "duration": 405}, {"note": 0, "velocity": 0, "duration": 195}, {"note": 76, "velocity": 127, "duration": 89}, {"note": 77, "velocity": 112, "duration": 76}, {"note": 76, "velocity": 127, "duration": 99}, {"note": 72, "velocity": 99, "duration": 122}, {"note": 74, "velocity": 127, "duration": 146}, {"note": 0, "velocity": 0, "duration": 94}, {"note": 74, "velocity": 127, "duration": 50}, {"note": 0, "velocity": 0, "duration": 70}, {"note": 74, "velocity": 102, "duration": 69}, {"note": 76, "velocity": 127, "duration": 255}, {"note": 77, "velocity": 117, "duration": 92}, {"note": 72, "velocity": 112, "duration": 417}, {"note": 0, "velocity": 0, "duration": 183}, {"note": 72, "velocity": 127, "duration": 42}, {"note": 0, "velocity": 0, "duration": 78}, {"note": 69, "velocity": 100, "duration": 90}, {"note": 72, "velocity": 117, "duration": 119}, {"note": 76, "velocity": 112, "duration": 79}, {"note": 77, "velocity": 122, "duration": 159}, {"note": 0, "velocity": 0, "duration": 81}, {"note": 77, "velocity": 127, "duration": 86}, {"note": 74, "velocity": 122, "duration": 104}, {"note": 77, "velocity": 127, "duration": 213}, {"note": 79, "velocity": 127, "duration": 67}, {"note": 79, "velocity": 127, "duration": 120}, {"note": 0, "velocity": 0, "duration": 360}, {"note": 72, "velocity": 102, "duration": 64}, {"note": 72, "velocity": 117, "duration": 145}, {"note": 79, "velocity": 112, "duration": 96}, {"note": 84, "velocity": 122, "duration": 124}, {"note": 79, "velocity": 127, "duration": 100}, {"note": 81, "velocity": 127, "duration": 183}, {"note": 81, "velocity": 127, "duration": 52}, {"note": 0, "velocity": 0, "duration": 68}, {"note": 81, "velocity": 112, "duration": 57}, {"note": 0, "velocity": 0, "duration": 63}, {"note": 81, "velocity": 127, "duration": 116}, {"note": 82, "velocity": 127, "duration": 88}, {"note": 84, "velocity": 127, "duration": 91}, {"note": 79, "velocity": 127, "duration": 515}, {"note": 79, "velocity": 107, "duration": 35}, {"note": 0, "velocity": 0, "duration": 85}, {"note": 79, "velocity": 112, "duration": 74}, {"note": 81, "velocity": 127, "duration": 68}, {"note": 82, "velocity": 127, "duration": 90}, {"note": 81, "velocity": 122, "duration": 97}, {"note": 77, "velocity": 117, "duration": 183}, {"note": 77, "velocity": 127, "duration": 51}, {"note": 0, "velocity": 0, "duration": 69}, {"note": 77, "velocity": 112, "duration": 54}, {"note": 0, "velocity": 0, "duration": 66}, {"note": 79, "velocity": 127, "duration": 170}, {"note": 0, "velocity": 0, "duration": 70}, {"note": 81, "velocity": 117, "duration": 49}, {"note": 0, "velocity": 0, "duration": 71}, {"note": 76, "velocity": 112, "duration": 548}, {"note": 76, "velocity": 127, "duration": 92}, {"note": 77, "velocity": 107, "duration": 137}, {"note": 76, "velocity": 127, "duration": 107}, {"note": 72, "velocity": 102, "duration": 129}, {"note": 74, "velocity": 127, "duration": 161}, {"note": 0, "velocity": 0, "duration": 79}, {"note": 74, "velocity": 127, "duration": 48}, {"note": 0, "velocity": 0, "duration": 72}, {"note": 74, "velocity": 122, "duration": 80}, {"note": 76, "velocity": 127, "duration": 263}, {"note": 77, "velocity": 127, "duration": 101}, {"note": 72, "velocity": 112, "duration": 392}, {"note": 0, "velocity": 0, "duration": 208}, {"note": 72, "velocity": 127, "duration": 107}, {"note": 69, "velocity": 102, "duration": 143}, {"note": 72, "velocity": 122, "duration": 105}, {"note": 76, "velocity": 127, "duration": 91}, {"note": 77, "velocity": 127, "duration": 236}, {"note": 77, "velocity": 127, "duration": 74}, {"note": 74, "velocity": 99, "duration": 105}, {"note": 77, "velocity": 127, "duration": 198}, {"note": 79, "velocity": 117, "duration": 54}, {"note": 0, "velocity": 0, "duration": 66}, {"note": 79, "velocity": 127, "duration": 443}, {"note": 72, "velocity": 112, "duration": 69}, {"note": 72, "velocity": 112, "duration": 131}, {"note": 79, "velocity": 117, "duration": 98}, {"note": 84, "velocity": 117, "duration": 126}, {"note": 79, "velocity": 127, "duration": 100}, {"note": 81, "velocity": 127, "duration": 156}, {"note": 0, "velocity": 0, "duration": 84}, {"note": 81, "velocity": 127, "duration": 45}, {"note": 0, "velocity": 0, "duration": 75}, {"note": 81, "velocity": 127, "duration": 39}, {"note": 0, "velocity": 0, "duration": 81}, {"note": 81, "velocity": 127, "duration": 112}, {"note": 82, "velocity": 112, "duration": 133}, {"note": 84, "velocity": 112, "duration": 108}, {"note": 79, "velocity": 122, "duration": 448}, {"note": 79, "velocity": 117, "duration": 47}, {"note": 0, "velocity": 0, "duration": 73}, {"note": 79, "velocity": 112, "duration": 61}, {"note": 81, "velocity": 112, "duration": 56}, {"note": 0, "velocity": 0, "duration": 64}, {"note": 82, "velocity": 127, "duration": 107}, {"note": 81, "velocity": 127, "duration": 90}, {"note": 77, "velocity": 117, "duration": 173}, {"note": 0, "velocity": 0, "duration": 67}, {"note": 77, "velocity": 122, "duration": 47}, {"note": 0, "velocity": 0, "duration": 73}, {"note": 77, "velocity": 102, "duration": 68}, {"note": 79, "velocity": 127, "duration": 200}, {"note": 81, "velocity": 122, "duration": 55}, {"note": 0, "velocity": 0, "duration": 65}, {"note": 76, "velocity": 122, "duration": 405}, {"note": 0, "velocity": 0, "duration": 195}, {"note": 76, "velocity": 127, "duration": 89}, {"note": 77, "velocity": 112, "duration": 76}, {"note": 76, "velocity": 127, "duration": 99}, {"note": 72, "velocity": 99, "duration": 122}, {"note": 74, "velocity": 127, "duration": 146}, {"note": 0, "velocity": 0, "duration": 94}, {"note": 74, "velocity": 127, "duration": 50}, {"note": 0, "velocity": 0, "duration": 70}, {"note": 74, "velocity": 102, "duration": 69}, {"note": 76, "velocity": 127, "duration": 255}, {"note": 77, "velocity": 117, "duration": 92}, {"note": 72, "velocity": 112, "duration": 417}, {"note": 0, "velocity": 0, "duration": 183}, {"note": 72, "velocity": 127, "duration": 42}, {"note": 0, "velocity": 0, "duration": 78}, {"note": 69, "velocity": 100, "duration": 90}, {"note": 72, "velocity": 117, "duration": 119}, {"note": 76, "velocity": 112, "duration": 79}, {"note": 77, "velocity": 122, "duration": 159}, {"note": 0, "velocity": 0, "duration": 81}, {"note": 77, "velocity": 127, "duration": 86}, {"note": 74, "velocity": 122, "duration": 104}, {"note": 77, "velocity": 127, "duration": 213}, {"note": 79, "velocity": 127, "duration": 67}, {"note": 79, "velocity": 127, "duration": 470}, {"note": 0, "velocity": 0, "duration": 130}, {"note": 77, "velocity": 127, "duration": 189}, {"note": 76, "velocity": 127, "duration": 94}, {"note": 77, "velocity": 127, "duration": 1113}]]