[[{"note": 72, "velocity": 127, "duration": 111}, {"note": 74, "velocity": 96, "duration": 58}, {"note": 0, "velocity": 0, "duration": 62}, {"note": 74, "velocity": 127, "duration": 108}, {"note": 76, "velocity": 95, "duration": 53}, {"note": 0, "velocity": 0, "duration": 67}, {"note": 76, "velocity": 127, "duration": 401}, {"note": 0, "velocity": 0, "duration": 79}, {"note": 76, "velocity": 127, "duration": 61}, {"note": 76, "velocity": 127, "duration": 136}, {"note": 0, "velocity": 0, "duration": 104}, {"note": 74, "velocity": 127, "duration": 153}, {"note": 0, "velocity": 0, "duration": 87}, {"note": 74, "velocity": 127, "duration": 180}, {"note": 72, "velocity": 127, "duration": 464}, {"note": 0, "velocity": 0, "duration": 616}, {"note": 72, "velocity": 122, "duration": 52}, {"note": 0, "velocity": 0, "duration": 68}, {"note": 72, "velocity": 112, "duration": 207}, {"note": 71, "velocity": 100, "duration": 183}, {"note": 71, "velocity": 100, "duration": 246}, {"note": 69, "velocity": 95, "duration": 416}, {"note": 0, "velocity": 0, "duration": 64}, {"note": 76, "velocity": 100, "duration": 171}, {"note": 0, "velocity": 0, "duration": 69}, {"note": 67, "velocity": 85, "duration": 617}, {"note": 0, "velocity": 0, "duration": 103}, {"note": 65, "velocity": 97, "duration": 106}, {"note": 64, "velocity": 69, "duration": 146}, {"note": 65, "velocity": 112, "duration": 308}, {"note": 76, "velocity": 117, "duration": 167}, {"note": 0, "velocity": 0, "duration": 73}, {"note": 76, "velocity": 112, "duration": 161}, {"note": 0, "velocity": 0, "duration": 79}, {"note": 77, "velocity": 127, "duration": 99}, {"note": 76, "velocity": 112, "duration": 63}, {"note": 76, "velocity": 112, "duration": 205}, {"note": 74, "velocity": 122, "duration": 448}, {"note": 0, "velocity": 0, "duration": 632}, {"note": 72, "velocity": 117, "duration": 113}, {"note": 74, "velocity": 112, "duration": 57}, {"note": 0, "velocity": 0, "duration": 63}, {"note": 74, "velocity": 112, "duration": 112}, {"note": 76, "velocity": 99, "duration": 52}, {"note": 0, "velocity": 0, "duration": 68}, {"note": 76, "velocity": 127, "duration": 246}, {"note": 0, "velocity": 0, "duration": 234}, {"note": 76, "velocity": 122, "duration": 79}, {"note": 76, "velocity": 117, "duration": 221}, {"note": 74, "velocity": 102, "duration": 160}, {"note": 0, "velocity": 0, "duration": 80}, {"note": 74, "velocity": 112, "duration": 243}, {"note": 72, "velocity": 107, "duration": 445}, {"note": 0, "velocity": 0, "duration": 635}, {"note": 72, "velocity": 127, "duration": 57}, {"note": 0, "velocity": 0, "duration": 63}, {"note": 72, "velocity": 127, "duration": 205}, {"note": 71, "velocity": 99, "duration": 157}, {"note": 0, "velocity": 0, "duration": 83}, {"note": 71, "velocity": 112, "duration": 181}, {"note": 69, "velocity": 117, "duration": 357}, {"note": 0, "velocity": 0, "duration": 123}, {"note": 76, "velocity": 112, "duration": 170}, {"note": 0, "velocity": 0, "duration": 70}, {"note": 67, "velocity": 107, "duration": 447}, {"note": 0, "velocity": 0, "duration": 273}, {"note": 65, "velocity": 127, "duration": 120}, {"note": 64, "velocity": 81, "duration": 128}, {"note": 65, "velocity": 100, "duration": 185}, {"note": 69, "velocity": 99, "duration": 170}, {"note": 0, "velocity": 0, "duration": 70}, {"note": 72, "velocity": 112, "duration": 175}, {"note": 0, "velocity": 0, "duration": 65}, {"note": 69, "velocity": 107, "duration": 148}, {"note": 0, "velocity": 0, "duration": 92}, {"note": 74, "velocity": 127, "duration": 191}, {"note": 74, "velocity": 122, "duration": 125}, {"note": 72, "velocity": 107, "duration": 136}, {"note": 74, "velocity": 112, "duration": 131}, {"note": 0, "velocity": 0, "duration": 109}, {"note": 74, "velocity": 127, "duration": 116}, {"note": 72, "velocity": 112, "duration": 57}, {"note": 0, "velocity": 0, "duration": 63}, {"note": 72, "velocity": 122, "duration": 614}, {"note": 0, "velocity": 0, "duration": 1426}, {"note": 79, "velocity": 127, "duration": 171}, {"note": 0, "velocity": 0, "duration": 69}, {"note": 72, "velocity": 127, "duration": 108}, {"note": 71, "velocity": 97, "duration": 117}, {"note": 72, "velocity": 127, "duration": 211}, {"note": 79, "velocity": 127, "duration": 135}, {"note": 0, "velocity": 0, "duration": 105}, {"note": 79, "velocity": 127, "duration": 164}, {"note": 0, "velocity": 0, "duration": 76}, {"note": 71, "velocity": 102, "duration": 130}, {"note": 0, "velocity": 0, "duration": 110}, {"note": 71, "velocity": 112, "duration": 346}, {"note": 0, "velocity": 0, "duration": 134}, {"note": 79, "velocity": 127, "duration": 150}, {"note": 0, "velocity": 0, "duration": 90}, {"note": 72, "velocity": 127, "duration": 122}, {"note": 71, "velocity": 97, "duration": 117}, {"note": 72, "velocity": 117, "duration": 196}, {"note": 79, "velocity": 127, "duration": 165}, {"note": 0, "velocity": 0, "duration": 75}, {"note": 79, "velocity": 127, "duration": 169}, {"note": 0, "velocity": 0, "duration": 71}, {"note": 71, "velocity": 112, "duration": 63}, {"note": 0, "velocity": 0, "duration": 177}, {"note": 71, "velocity": 127, "duration": 248}, {"note": 72, "velocity": 127, "duration": 74}, {"note": 0, "velocity": 0, "duration": 166}, {"note": 67, "velocity": 112, "duration": 162}, {"note": 0, "velocity": 0, "duration": 78}, {"note": 72, "velocity": 127, "duration": 84}, {"note": 71, "velocity": 100, "duration": 70}, {"note": 72, "velocity": 127, "duration": 132}, {"note": 0, "velocity": 0, "duration": 108}, {"note": 76, "velocity": 122, "duration": 238}, {"note": 0, "velocity": 0, "duration": 122}, {"note": 67, "velocity": 102, "duration": 72}, {"note": 72, "velocity": 102, "duration": 89}, {"note": 71, "velocity": 107, "duration": 70}, {"note": 72, "velocity": 127, "duration": 79}, {"note": 74, "velocity": 112, "duration": 66}, {"note": 76, "velocity": 117, "duration": 168}, {"note": 0, "velocity": 0, "duration": 72}, {"note": 76, "velocity": 122, "duration": 152}, {"note": 0, "velocity": 0, "duration": 88}, {"note": 72, "velocity": 107, "duration": 148}, {"note": 0, "velocity": 0, "duration": 92}, {"note": 76, "velocity": 127, "duration": 163}, {"note": 0, "velocity": 0, "duration": 77}, {"note": 72, "velocity": 117, "duration": 134}, {"note": 0, "velocity": 0, "duration": 226}, {"note": 72, "velocity": 117, "duration": 49}, {"note": 0, "velocity": 0, "duration": 71}, {"note": 72, "velocity": 122, "duration": 83}, {"note": 71, "velocity": 97, "duration": 64}, {"note": 72, "velocity": 122, "duration": 102}, {"note": 74, "velocity": 107, "duration": 47}, {"note": 0, "velocity": 0, "duration": 73}, {"note": 74, "velocity": 127, "duration": 162}, {"note": 0, "velocity": 0, "duration": 78}, {"note": 79, "velocity": 127, "duration": 171}, {"note": 0, "velocity": 0, "duration": 69}, {"note": 72, "velocity": 127, "duration": 108}, {"note": 71, "velocity": 97, "duration": 117}, {"note": 72, "velocity": 127, "duration": 211}, {"note": 79, "velocity": 127, "duration": 135}, {"note": 0, "velocity": 0, "duration": 105}, {"note": 79, "velocity": 127, "duration": 164}, {"note": 0, "velocity": 0, "duration": 76}, {"note": 71, "velocity": 102, "duration": 130}, {"note": 0, "velocity": 0, "duration": 110}, {"note": 71, "velocity": 112, "duration": 346}, {"note": 0, "velocity": 0, "duration": 134}, {"note": 79, "velocity": 127, "duration": 150}, {"note": 0, "velocity": 0, "duration": 90}, {"note": 72, "velocity": 127, "duration": 122}, {"note": 71, "velocity": 97, "duration": 117}, {"note": 72, "velocity": 117, "duration": 196}, {"note": 79, "velocity": 127, "duration": 165}, {"note": 0, "velocity": 0, "duration": 75}, {"note": 79, "velocity": 127, "duration": 169}, {"note": 0, "velocity": 0, "duration": 71}, {"note": 77, "velocity": 122, "duration": 235}, {"note": 76, "velocity": 112, "duration": 211}, {"note": 72, "velocity": 112, "duration": 117}, {"note": 0, "velocity": 0, "duration": 123}, {"note": 67, "velocity": 112, "duration": 162}, {"note": 0, "velocity": 0, "duration": 78}, {"note": 72, "velocity": 127, "duration": 84}, {"note": 71, "velocity": 100, "duration": 70}, {"note": 72, "velocity": 127, "duration": 132}, {"note": 0, "velocity": 0, "duration": 108}, {"note": 76, "velocity": 122, "duration": 238}, {"note": 0, "velocity": 0, "duration": 122}, {"note": 67, "velocity": 102, "duration": 72}, {"note": 72, "velocity": 102, "duration": 89}, {"note": 71, "velocity": 107, "duration": 70}, {"note": 72, "velocity": 127, "duration": 79}, {"note": 74, "velocity": 112, "duration": 66}, {"note": 76, "velocity": 117, "duration": 168}, {"note": 0, "velocity": 0, "duration": 72}, {"note": 77, "velocity": 127, "duration": 222}, {"note": 76, "velocity": 107, "duration": 156}, {"note": 0, "velocity": 0, "duration": 84}, {"note": 74, "velocity": 127, "duration": 231}, {"note": 72, "velocity": 122, "duration": 171}, {"note": 0, "velocity": 0, "duration": 309}, {"note": 76, "velocity": 127, "duration": 172}, {"note": 0, "velocity": 0, "duration": 68}, {"note": 74, "velocity": 127, "duration": 262}, {"note": 0, "velocity": 0, "duration": 98}, {"note": 72, "velocity": 117, "duration": 52}, {"note": 0, "velocity": 0, "duration": 68}, {"note": 72, "velocity": 117, "duration": 1219}, {"note": 0, "velocity": 0, "duration": 2861}, {"note": 72, "velocity": 127, "duration": 111}, {"note": 74, "velocity": 96, "duration": 58}, {"note": 0, "velocity": 0, "duration": 62}, {"note": 74, "velocity": 127, "duration": 108}, {"note": 76, "velocity": 95, "duration": 53}, {"note": 0, "velocity": 0, "duration": 67}, {"note": 76, "velocity": 127, "duration": 401}, {"note": 0, "velocity": 0, "duration": 79}, {"note": 76, "velocity": 127, "duration": 61}, {"note": 76, "velocity": 127, "duration": 136}, {"note": 0, "velocity": 0, "duration": 104}, {"note": 74, "velocity": 127, "duration": 153}, {"note": 0, "velocity": 0, "duration": 87}, {"note": 74, "velocity": 127, "duration": 180}, {"note": 72, "velocity": 127, "duration": 464}, {"note": 0, "velocity": 0, "duration": 616}, {"note": 72, "velocity": 122, "duration": 52}, {"note": 0, "velocity": 0, "duration": 68}, {"note": 72, "velocity": 112, "duration": 207}, {"note": 71, "velocity": 100, "duration": 183}, {"note": 71, "velocity": 100, "duration": 246}, {"note": 69, "velocity": 95, "duration": 416}, {"note": 0, "velocity": 0, "duration": 64}, {"note": 76, "velocity": 100, "duration": 171}, {"note": 0, "velocity": 0, "duration": 69}, {"note": 67, "velocity": 85, "duration": 617}, {"note": 0, "velocity": 0, "duration": 103}, {"note": 65, "velocity": 97, "duration": 106}, {"note": 64, "velocity": 69, "duration": 146}, {"note": 65, "velocity": 112, "duration": 308}, {"note": 76, "velocity": 117, "duration": 167}, {"note": 0, "velocity": 0, "duration": 73}, {"note": 76, "velocity": 112, "duration": 161}, {"note": 0, "velocity": 0, "duration": 79}, {"note": 77, "velocity": 127, "duration": 99}, {"note": 76, "velocity": 112, "duration": 63}, {"note": 76, "velocity": 112, "duration": 205}, {"note": 74, "velocity": 122, "duration": 448}, {"note": 0, "velocity": 0, "duration": 632}, {"note": 72, "velocity": 117, "duration": 113}, {"note": 74, "velocity": 112, "duration": 57}, {"note": 0, "velocity": 0, "duration": 63}, {"note": 74, "velocity": 112, "duration": 112}, {"note": 76, "velocity": 99, "duration": 52}, {"note": 0, "velocity": 0, "duration": 68}, {"note": 76, "velocity": 127, "duration": 246}, {"note": 0, "velocity": 0, "duration": 234}, {"note": 76, "velocity": 122, "duration": 79}, {"note": 76, "velocity": 117, "duration": 221}, {"note": 74, "velocity": 102, "duration": 160}, {"note": 0, "velocity": 0, "duration": 80}, {"note": 74, "velocity": 112, "duration": 243}, {"note": 72, "velocity": 107, "duration": 445}, {"note": 0, "velocity": 0, "duration": 635}, {"note": 72, "velocity": 127, "duration": 57}, {"note": 0, "velocity": 0, "duration": 63}, {"note": 72, "velocity": 127, "duration": 205}, {"note": 71, "velocity": 99, "duration": 157}, {"note": 0, "velocity": 0, "duration": 83}, {"note": 71, "velocity": 112, "duration": 181}, {"note": 69, "velocity": 117, "duration": 357}, {"note": 0, "velocity": 0, "duration": 123}, {"note": 76, "velocity": 112, "duration": 170}, {"note": 0, "velocity": 0, "duration": 70}, {"note": 67, "velocity": 107, "duration": 447}, {"note": 0, "velocity": 0, "duration": 273}, {"note": 65, "velocity": 127, "duration": 120}, {"note": 64, "velocity": 81, "duration": 128}, {"note": 65, "velocity": 100, "duration": 185}, {"note": 69, "velocity": 99, "duration": 170}, {"note": 0, "velocity": 0, "duration": 70}, {"note": 72, "velocity": 112, "duration": 175}, {"note": 0, "velocity": 0, "duration": 65}, {"note": 69, "velocity": 107, "duration": 148}, {"note": 0, "velocity": 0, "duration": 92}, {"note": 74, "velocity": 127, "duration": 191}, {"note": 74, "velocity": 122, "duration": 125}, {"note": 72, "velocity": 107, "duration": 136}, {"note": 74, "velocity": 112, "duration": 131}, {"note": 0, "velocity": 0, "duration": 109}, {"note": 74, "velocity": 127, "duration": 116}, {"note": 72, "velocity": 112, "duration": 57}, {"note": 0, "velocity": 0, "duration": 63}, {"note": 72, "velocity": 122, "duration": 614}, {"note": 0, "velocity": 0, "duration": 1426}, {"note": 79, "velocity": 127, "duration": 171}, {"note": 0, "velocity": 0, "duration": 69}, {"note": 72, "velocity": 127, "duration": 108}, {"note": 71, "velocity": 97, "duration": 117}, {"note": 72, "velocity": 127, "duration": 211}, {"note": 79, "velocity": 127, "duration": 135}, {"note": 0, "velocity": 0, "duration": 105}, {"note": 79, "velocity": 127, "duration": 164}, {"note": 0, "velocity": 0, "duration": 76}, {"note": 71, "velocity": 102, "duration": 130}, {"note": 0, "velocity": 0, "duration": 110}, {"note": 71, "velocity": 112, "duration": 346}, {"note": 0, "velocity": 0, "duration": 134}, {"note": 79, "velocity": 127, "duration": 150}, {"note": 0, "velocity": 0, "duration": 90}, {"note": 72, "velocity": 127, "duration": 122}, {"note": 71, "velocity": 97, "duration": 117}, {"note": 72, "velocity": 117, "duration": 196}, {"note": 79, "velocity": 127, "duration": 165}, {"note": 0, "velocity": 0, "duration": 75}, {"note": 79, "velocity": 127, "duration": 169}, {"note": 0, "velocity": 0, "duration": 71}, {"note": 71, "velocity": 112, "duration": 63}, {"note": 0, "velocity": 0, "duration": 177}, {"note": 71, "velocity": 127, "duration": 248}, {"note": 72, "velocity": 127, "duration": 74}, {"note": 0, "velocity": 0, "duration": 166}, {"note": 67, "velocity": 112, "duration": 162}, {"note": 0, "velocity": 0, "duration": 78}, {"note": 72, "velocity": 127, "duration": 84}, {"note": 71, "velocity": 100, "duration": 70}, {"note": 72, "velocity": 127, "duration": 132}, {"note": 0, "velocity": 0, "duration": 108}, {"note": 76, "velocity": 122, "duration": 238}, {"note": 0, "velocity": 0, "duration": 122}, {"note": 67, "velocity": 102, "duration": 72}, {"note": 72, "velocity": 102, "duration": 89}, {"note": 71, "velocity": 107, "duration": 70}, {"note": 72, "velocity": 127, "duration": 79}, {"note": 74, "velocity": 112, "duration": 66}, {"note": 76, "velocity": 117, "duration": 168}, {"note": 0, "velocity": 0, "duration": 72}, {"note": 76, "velocity": 122, "duration": 152}, {"note": 0, "velocity": 0, "duration": 88}, {"note": 72, "velocity": 107, "duration": 148}, {"note": 0, "velocity": 0, "duration": 92}, {"note": 76, "velocity": 127, "duration": 163}, {"note": 0, "velocity": 0, "duration": 77}, {"note": 72, "velocity": 117, "duration": 134}, {"note": 0, "velocity": 0, "duration": 226}, {"note": 72, "velocity": 117, "duration": 49}, {"note": 0, "velocity": 0, "duration": 71}, {"note": 72, "velocity": 122, "duration": 83}, {"note": 71, "velocity": 97, "duration": 64}, {"note": 72, "velocity": 122, "duration": 102}, {"note": 74, "velocity": 107, "duration": 47}, {"note": 0, "velocity": 0, "duration": 73}, {"note": 74, "velocity": 127, "duration": 162}, {"note": 0, "velocity": 0, "duration": 78}, {"note": 79, "velocity": 127, "duration": 171}, {"note": 0, "velocity": 0, "duration": 69}, {"note": 72, "velocity": 127, "duration": 108}, {"note": 71, "velocity": 97, "duration": 117}, {"note": 72, "velocity": 127, "duration": 211}, {"note": 79, "velocity": 127, "duration": 135}, {"note": 0, "velocity": 0, "duration": 105}, {"note": 79, "velocity": 127, "duration": 164}, {"note": 0, "velocity": 0, "duration": 76}, {"note": 71, "velocity": 102, "duration": 130}, {"note": 0, "velocity": 0, "duration": 110}, {"note": 71, "velocity": 112, "duration": 346}, {"note": 0, "velocity": 0, "duration": 134}, {"note": 79, "velocity": 127, "duration": 150}, {"note": 0, "velocity": 0, "duration": 90}, {"note": 72, "velocity": 127, "duration": 122}, {"note": 71, "velocity": 97, "duration": 117}, {"note": 72, "velocity": 117, "duration": 196}, {"note": 79, "velocity": 127, "duration": 165}, {"note": 0, "velocity": 0, "duration": 75}, {"note": 79, "velocity": 127, "duration": 169}, {"note": 0, "velocity": 0, "duration": 71}, {"note": 77, "velocity": 122, "duration": 235}, {"note": 76, "velocity": 112, "duration": 211}, {"note": 72, "velocity": 112, "duration": 117}, {"note": 0, "velocity": 0, "duration": 123}, {"note": 67, "velocity": 112, "duration": 162}, {"note": 0, "velocity": 0, "duration": 78}, {"note": 72, "velocity": 127, "duration": 84}, {"note": 71, "velocity": 100, "duration": 70}, {"note": 72, "velocity": 127, "duration": 132}, {"note": 0, "velocity": 0, "duration": 108}, {"note": 76, "velocity": 122, "duration": 238}, {"note": 0, "velocity": 0, "duration": 122}, {"note": 67, "velocity": 102, "duration": 72}, {"note": 72, "velocity": 102, "duration": 89}, {"note": 71, "velocity": 107, "duration": 70}, {"note": 72, "velocity": 127, "duration": 79}, {"note": 74, "velocity": 112, "duration": 66}, {"note": 76, "velocity": 117, "duration": 168}, {"note": 0, "velocity": 0, "duration": 72}, {"note": 77, "velocity": 127, "duration": 222}, {"note": 76, "velocity": 107, "duration": 156}, {"note": 0, "velocity": 0, "duration": 84}, {"note": 74, "velocity": 127, "duration": 231}, {"note": 72, "velocity": 122, "duration": 171}, {"note": 0, "velocity": 0, "duration": 309}, {"note": 76, "velocity": 127, "duration": 172}, {"note": 0, "velocity": 0, "duration": 68}, {"note": 74, "velocity": 127, "duration": 262}, {"note": 0, "velocity": 0, "duration": 98}, {"note": 72, "velocity": 117, "duration": 52}, {"note": 0, "velocity": 0, "duration": 68}, {"note": 72, "velocity": 117, "duration": 1219}, {"note": 0, "velocity": 0, "duration": 2021}, {"note": 76, "velocity": 122, "duration": 97}, {"note": 74, "velocity": 117, "duration": 125}, {"note": 72, "velocity": 96, "duration": 236}, {"note": 69, "velocity": 92, "duration": 132}, {"note": 72, "velocity": 127, "duration": 729}, {"note": 0, "velocity": 0, "duration": 3351}, {"note": 74, "velocity": 117, "duration": 56}, {"note": 0, "velocity": 0, "duration": 64}, {"note": 74, "velocity": 127, "duration": 47}, {"note": 0, "velocity": 0, "duration": 73}, {"note": 74, "velocity": 127, "duration": 111}, {"note": 74, "velocity": 127, "duration": 136}, {"note": 76, "velocity": 122, "duration": 101}, {"note": 77, "velocity": 122, "duration": 107}, {"note": 77, "velocity": 127, "duration": 145}, {"note": 0, "velocity": 0, "duration": 95}, {"note": 76, "velocity": 122, "duration": 49}, {"note": 0, "velocity": 0, "duration": 71}, {"note": 74, "velocity": 127, "duration": 183}, {"note": 72, "velocity": 127, "duration": 149}, {"note": 0, "velocity": 0, "duration": 451}, {"note": 72, "velocity": 100, "duration": 56}, {"note": 0, "velocity": 0, "duration": 64}, {"note": 72, "velocity": 112, "duration": 175}, {"note": 0, "velocity": 0, "duration": 65}, {"note": 79, "velocity": 127, "duration": 157}, {"note": 0, "velocity": 0, "duration": 83}, {"note": 79, "velocity": 127, "duration": 128}, {"note": 0, "velocity": 0, "duration": 112}, {"note": 77, "velocity": 127, "duration": 114}, {"note": 77, "velocity": 100, "duration": 135}, {"note": 0, "velocity": 0, "duration": 105}, {"note": 77, "velocity": 112, "duration": 386}, {"note": 0, "velocity": 0, "duration": 94}, {"note": 77, "velocity": 127, "duration": 157}, {"note": 0, "velocity": 0, "duration": 83}, {"note": 74, "velocity": 127, "duration": 107}, {"note": 72, "velocity": 93, "duration": 77}, {"note": 74, "velocity": 127, "duration": 213}, {"note": 77, "velocity": 127, "duration": 218}, {"note": 77, "velocity": 127, "duration": 137}, {"note": 0, "velocity": 0, "duration": 103}, {"note": 74, "velocity": 127, "duration": 113}, {"note": 72, "velocity": 107, "duration": 77}, {"note": 74, "velocity": 127, "duration": 213}, {"note": 77, "velocity": 127, "duration": 170}, {"note": 0, "velocity": 0, "duration": 310}, {"note": 76, "velocity": 127, "duration": 151}, {"note": 0, "velocity": 0, "duration": 89}, {"note": 76, "velocity": 127, "duration": 141}, {"note": 0, "velocity": 0, "duration": 99}, {"note": 77, "velocity": 127, "duration": 156}, {"note": 0, "velocity": 0, "duration": 84}, {"note": 76, "velocity": 127, "duration": 222}, {"note": 76, "velocity": 127, "duration": 232}, {"note": 78, "velocity": 127, "duration": 199}, {"note": 79, "velocity": 127, "duration": 194}, {"note": 81, "velocity": 127, "duration": 171}, {"note": 0, "velocity": 0, "duration": 69}, {"note": 74, "velocity": 127, "duration": 108}, {"note": 73, "velocity": 97, "duration": 117}, {"note": 74, "velocity": 127, "duration": 211}, {"note": 81, "velocity": 127, "duration": 135}, {"note": 0, "velocity": 0, "duration": 105}, {"note": 81, "velocity": 127, "duration": 164}, {"note": 0, "velocity": 0, "duration": 76}, {"note": 73, "velocity": 102, "duration": 130}, {"note": 0, "velocity": 0, "duration": 110}, {"note": 73, "velocity": 112, "duration": 346}, {"note": 0, "velocity": 0, "duration": 134}, {"note": 81, "velocity": 127, "duration": 150}, {"note": 0, "velocity": 0, "duration": 90}, {"note": 74, "velocity": 127, "duration": 122}, {"note": 73, "velocity": 97, "duration": 117}, {"note": 74, "velocity": 117, "duration": 196}, {"note": 81, "velocity": 127, "duration": 165}, {"note": 0, "velocity": 0, "duration": 75}, {"note": 81, "velocity": 127, "duration": 169}, {"note": 0, "velocity": 0, "duration": 71}, {"note": 73, "velocity": 112, "duration": 63}, {"note": 0, "velocity": 0, "duration": 177}, {"note": 73, "velocity": 127, "duration": 248}, {"note": 74, "velocity": 127, "duration": 74}, {"note": 0, "velocity": 0, "duration": 166}, {"note": 69, "velocity": 112, "duration": 162}, {"note": 0, "velocity": 0, "duration": 78}, {"note": 74, "velocity": 127, "duration": 84}, {"note": 73, "velocity": 100, "duration": 70}, {"note": 74, "velocity": 127, "duration": 132}, {"note": 0, "velocity": 0, "duration": 108}, {"note": 78, "velocity": 122, "duration": 238}, {"note": 0, "velocity": 0, "duration": 122}, {"note": 69, "velocity": 102, "duration": 72}, {"note": 74, "velocity": 102, "duration": 89}, {"note": 73, "velocity": 107, "duration": 70}, {"note": 74, "velocity": 127, "duration": 79}, {"note": 76, "velocity": 112, "duration": 66}, {"note": 78, "velocity": 117, "duration": 168}, {"note": 0, "velocity": 0, "duration": 72}, {"note": 78, "velocity": 122, "duration": 152}, {"note": 0, "velocity": 0, "duration": 88}, {"note": 74, "velocity": 107, "duration": 148}, {"note": 0, "velocity": 0, "duration": 92}, {"note": 78, "velocity": 127, "duration": 163}, {"note": 0, "velocity": 0, "duration": 77}, {"note": 74, "velocity": 117, "duration": 134}, {"note": 0, "velocity": 0, "duration": 226}, {"note": 74, "velocity": 117, "duration": 49}, {"note": 0, "velocity": 0, "duration": 71}, {"note": 74, "velocity": 122, "duration": 83}, {"note": 73, "velocity": 97, "duration": 64}, {"note": 74, "velocity": 122, "duration": 102}, {"note": 76, "velocity": 107, "duration": 47}, {"note": 0, "velocity": 0, "duration": 73}, {"note": 76, "velocity": 127, "duration": 162}, {"note": 0, "velocity": 0, "duration": 78}, {"note": 81, "velocity": 127, "duration": 171}, {"note": 0, "velocity": 0, "duration": 69}, {"note": 74, "velocity": 127, "duration": 108}, {"note": 73, "velocity": 97, "duration": 117}, {"note": 74, "velocity": 127, "duration": 211}, {"note": 81, "velocity": 127, "duration": 135}, {"note": 0, "velocity": 0, "duration": 105}, {"note": 81, "velocity": 127, "duration": 164}, {"note": 0, "velocity": 0, "duration": 76}, {"note": 73, "velocity": 102, "duration": 130}, {"note": 0, "velocity": 0, "duration": 110}, {"note": 73, "velocity": 112, "duration": 346}, {"note": 0, "velocity": 0, "duration": 134}, {"note": 81, "velocity": 127, "duration": 150}, {"note": 0, "velocity": 0, "duration": 90}, {"note": 74, "velocity": 127, "duration": 122}, {"note": 73, "velocity": 97, "duration": 117}, {"note": 74, "velocity": 117, "duration": 196}, {"note": 81, "velocity": 127, "duration": 165}, {"note": 0, "velocity": 0, "duration": 75}, {"note": 81, "velocity": 127, "duration": 169}, {"note": 0, "velocity": 0, "duration": 71}, {"note": 79, "velocity": 122, "duration": 235}, {"note": 78, "velocity": 112, "duration": 211}, {"note": 74, "velocity": 112, "duration": 117}, {"note": 0, "velocity": 0, "duration": 123}, {"note": 69, "velocity": 112, "duration": 162}, {"note": 0, "velocity": 0, "duration": 78}, {"note": 74, "velocity": 127, "duration": 84}, {"note": 73, "velocity": 100, "duration": 70}, {"note": 74, "velocity": 127, "duration": 132}, {"note": 0, "velocity": 0, "duration": 108}, {"note": 78, "velocity": 122, "duration": 238}, {"note": 0, "velocity": 0, "duration": 122}, {"note": 69, "velocity": 102, "duration": 72}, {"note": 74, "velocity": 102, "duration": 89}, {"note": 73, "velocity": 107, "duration": 70}, {"note": 74, "velocity": 127, "duration": 79}, {"note": 76, "velocity": 112, "duration": 66}, {"note": 78, "velocity": 117, "duration": 168}, {"note": 0, "velocity": 0, "duration": 72}, {"note": 79, "velocity": 127, "duration": 222}, {"note": 78, "velocity": 107, "duration": 156}, {"note": 0, "velocity": 0, "duration": 84}, {"note": 76, "velocity": 127, "duration": 231}, {"note": 74, "velocity": 122, "duration": 171}, {"note": 0, "velocity": 0, "duration": 309}, {"note": 78, "velocity": 127, "duration": 172}, {"note": 0, "velocity": 0, "duration": 68}, {"note": 76, "velocity": 127, "duration": 262}, {"note": 0, "velocity": 0, "duration": 98}, {"note": 74, "velocity": 117, "duration": 52}, {"note": 0, "velocity": 0, "duration": 68}, {"note": 74, "velocity": 117, "duration": 1219}, {"note": 0, "velocity": 0, "duration": 2621}, {"note": 69, "velocity": 112, "duration": 162}, {"note": 0, "velocity": 0, "duration": 78}, {"note": 74, "velocity": 127, "duration": 84}, {"note": 73, "velocity": 100, "duration": 70}, {"note": 74, "velocity": 127, "duration": 132}, {"note": 0, "velocity": 0, "duration": 108}, {"note": 78, "velocity": 122, "duration": 238}, {"note": 0, "velocity": 0, "duration": 122}, {"note": 69, "velocity": 102, "duration": 72}, {"note": 74, "velocity": 102, "duration": 89}, {"note": 73, "velocity": 107, "duration": 70}, {"note": 74, "velocity": 127, "duration": 79}, {"note": 76, "velocity": 112, "duration": 66}, {"note": 78, "velocity": 117, "duration": 168}, {"note": 0, "velocity": 0, "duration": 72}, {"note": 78, "velocity": 122, "duration": 152}, {"note": 0, "velocity": 0, "duration": 88}, {"note": 74, "velocity": 107, "duration": 148}, {"note": 0, "velocity": 0, "duration": 92}, {"note": 78, "velocity": 127, "duration": 163}, {"note": 0, "velocity": 0, "duration": 77}, {"note": 74, "velocity": 117, "duration": 134}, {"note": 0, "velocity": 0, "duration": 226}, {"note": 74, "velocity": 117, "duration": 49}, {"note": 0, "velocity": 0, "duration": 71}, {"note": 74, "velocity": 122, "duration": 83}, {"note": 73, "velocity": 97, "duration": 64}, {"note": 74, "velocity": 122, "duration": 102}, {"note": 76, "velocity": 107, "duration": 47}, {"note": 0, "velocity": 0, "duration": 73}, {"note": 76, "velocity": 127, "duration": 162}, {"note": 0, "velocity": 0, "duration": 78}, {"note": 81, "velocity": 127, "duration": 1818}, {"note": 0, "velocity": 0, "duration": 102}, {"note": 81, "velocity": 127, "duration": 135}, {"note": 0, "velocity": 0, "duration": 105}, {"note": 74, "velocity": 107, "duration": 127}, {"note": 73, "velocity": 112, "duration": 95}, {"note": 74, "velocity": 112, "duration": 188}, {"note": 83, "velocity": 127, "duration": 278}, {"note": 81, "velocity": 127, "duration": 810}, {"note": 0, "velocity": 0, "duration": 150}, {"note": 69, "velocity": 112, "duration": 162}, {"note": 0, "velocity": 0, "duration": 78}, {"note": 74, "velocity": 127, "duration": 84}, {"note": 73, "velocity": 100, "duration": 70}, {"note": 74, "velocity": 127, "duration": 132}, {"note": 0, "velocity": 0, "duration": 108}, {"note": 78, "velocity": 122, "duration": 238}, {"note": 0, "velocity": 0, "duration": 122}, {"note": 69, "velocity": 102, "duration": 72}, {"note": 74, "velocity": 102, "duration": 89}, {"note": 73, "velocity": 107, "duration": 70}, {"note": 74, "velocity": 127, "duration": 79}, {"note": 76, "velocity": 112, "duration": 66}, {"note": 78, "velocity": 117, "duration": 168}, {"note": 0, "velocity": 0, "duration": 72}, {"note": 79, "velocity": 127, "duration": 222}, {"note": 78, "velocity": 107, "duration": 156}, {"note": 0, "velocity": 0, "duration": 84}, {"note": 76, "velocity": 127, "duration": 231}, {"note": 74, "velocity": 122, "duration": 171}, {"note": 0, "velocity": 0, "duration": 309}, {"note": 78, "velocity": 127, "duration": 172}, {"note": 0, "velocity": 0, "duration": 68}, {"note": 76, "velocity": 127, "duration": 262}, {"note": 0, "velocity": 0, "duration": 98}, {"note": 74, "velocity": 117, "duration": 52}, {"note": 0, "velocity": 0, "duration": 68}, {"note": 74, "velocity": 117, "duration": 1219}, {"note": 0, "velocity": 0, "duration": 4181}, {"note": 78, "velocity": 127, "duration": 130}, {"note": 76, "velocity": 100, "duration": 119}, {"note": 74, "velocity": 95, "duration": 71}, {"note": 74, "velocity": 112, "duration": 2437}]]