[[{"note": 69, "velocity": 122, "duration": 320}, {"note": 66, "velocity": 122, "duration": 160}, {"note": 64, "velocity": 112, "duration": 240}, {"note": 66, "velocity": 112, "duration": 1200}, {"note": 62, "velocity": 107, "duration": 320}, {"note": 64, "velocity": 117, "duration": 166}, {"note": 69, "velocity": 117, "duration": 240}, {"note": 66, "velocity": 107, "duration": 1520}, {"note": 62, "velocity": 96, "duration": 172}, {"note": 59, "velocity": 97, "duration": 1440}, {"note": 69, "velocity": 112, "duration": 320}, {"note": 64, "velocity": 107, "duration": 1600}, {"note": 69, "velocity": 102, "duration": 320}, {"note": 66, "velocity": 99, "duration": 160}, {"note": 64, "velocity": 97, "duration": 205}, {"note": 66, "velocity": 100, "duration": 1280}, {"note": 62, "velocity": 96, "duration": 320}, {"note": 64, "velocity": 96, "duration": 160}, {"note": 69, "velocity": 100, "duration": 240}, {"note": 66, "velocity": 93, "duration": 1200}, {"note": 62, "velocity": 117, "duration": 159}, {"note": 62, "velocity": 92, "duration": 159}, {"note": 62, "velocity": 93, "duration": 159}, {"note": 62, "velocity": 99, "duration": 160}, {"note": 59, "velocity": 83, "duration": 1280}, {"note": 57, "velocity": 89, "duration": 181}, {"note": 59, "velocity": 77, "duration": 299}, {"note": 69, "velocity": 96, "duration": 408}, {"note": 64, "velocity": 70, "duration": 1680}, {"note": 71, "velocity": 127, "duration": 319}, {"note": 71, "velocity": 112, "duration": 159}, {"note": 71, "velocity": 122, "duration": 320}, {"note": 74, "velocity": 122, "duration": 160}, {"note": 73, "velocity": 112, "duration": 320}, {"note": 74, "velocity": 107, "duration": 160}, {"note": 73, "velocity": 127, "duration": 323}, {"note": 69, "velocity": 122, "duration": 160}, {"note": 67, "velocity": 117, "duration": 319}, {"note": 67, "velocity": 112, "duration": 159}, {"note": 67, "velocity": 122, "duration": 320}, {"note": 71, "velocity": 122, "duration": 160}, {"note": 69, "velocity": 127, "duration": 800}, {"note": 57, "velocity": 102, "duration": 160}, {"note": 67, "velocity": 112, "duration": 319}, {"note": 67, "velocity": 112, "duration": 159}, {"note": 67, "velocity": 117, "duration": 320}, {"note": 66, "velocity": 117, "duration": 160}, {"note": 64, "velocity": 122, "duration": 479}, {"note": 64, "velocity": 127, "duration": 160}, {"note": 62, "velocity": 107, "duration": 170}, {"note": 64, "velocity": 127, "duration": 160}, {"note": 66, "velocity": 127, "duration": 160}, {"note": 69, "velocity": 127, "duration": 1760}, {"note": 71, "velocity": 127, "duration": 319}, {"note": 71, "velocity": 112, "duration": 159}, {"note": 71, "velocity": 112, "duration": 320}, {"note": 74, "velocity": 117, "duration": 160}, {"note": 73, "velocity": 127, "duration": 320}, {"note": 74, "velocity": 112, "duration": 160}, {"note": 73, "velocity": 127, "duration": 320}, {"note": 69, "velocity": 112, "duration": 160}, {"note": 67, "velocity": 107, "duration": 319}, {"note": 67, "velocity": 112, "duration": 159}, {"note": 67, "velocity": 127, "duration": 320}, {"note": 71, "velocity": 117, "duration": 160}, {"note": 69, "velocity": 122, "duration": 800}, {"note": 59, "velocity": 112, "duration": 160}, {"note": 67, "velocity": 102, "duration": 319}, {"note": 67, "velocity": 117, "duration": 159}, {"note": 67, "velocity": 127, "duration": 320}, {"note": 66, "velocity": 117, "duration": 160}, {"note": 64, "velocity": 127, "duration": 319}, {"note": 64, "velocity": 102, "duration": 159}, {"note": 64, "velocity": 127, "duration": 319}, {"note": 64, "velocity": 107, "duration": 160}, {"note": 62, "velocity": 100, "duration": 1440}, {"note": 69, "velocity": 122, "duration": 320}, {"note": 66, "velocity": 122, "duration": 160}, {"note": 64, "velocity": 112, "duration": 240}, {"note": 66, "velocity": 112, "duration": 1200}, {"note": 62, "velocity": 107, "duration": 320}, {"note": 64, "velocity": 117, "duration": 166}, {"note": 69, "velocity": 117, "duration": 240}, {"note": 66, "velocity": 107, "duration": 1520}, {"note": 62, "velocity": 96, "duration": 172}, {"note": 59, "velocity": 97, "duration": 778}, {"note": 71, "velocity": 107, "duration": 185}, {"note": 69, "velocity": 127, "duration": 769}, {"note": 64, "velocity": 97, "duration": 172}, {"note": 69, "velocity": 122, "duration": 1455}, {"note": 69, "velocity": 102, "duration": 320}, {"note": 66, "velocity": 99, "duration": 160}, {"note": 64, "velocity": 97, "duration": 205}, {"note": 66, "velocity": 100, "duration": 1280}, {"note": 62, "velocity": 96, "duration": 320}, {"note": 64, "velocity": 96, "duration": 160}, {"note": 69, "velocity": 100, "duration": 240}, {"note": 66, "velocity": 93, "duration": 1520}, {"note": 62, "velocity": 99, "duration": 160}, {"note": 59, "velocity": 97, "duration": 800}, {"note": 71, "velocity": 117, "duration": 177}, {"note": 69, "velocity": 102, "duration": 480}, {"note": 64, "velocity": 99, "duration": 180}, {"note": 62, "velocity": 86, "duration": 160}, {"note": 59, "velocity": 93, "duration": 181}, {"note": 62, "velocity": 100, "duration": 996}, {"note": 0, "velocity": 0, "duration": 15804}, {"note": 69, "velocity": 122, "duration": 320}, {"note": 66, "velocity": 122, "duration": 160}, {"note": 64, "velocity": 112, "duration": 240}, {"note": 66, "velocity": 112, "duration": 1200}, {"note": 62, "velocity": 107, "duration": 320}, {"note": 64, "velocity": 117, "duration": 166}, {"note": 69, "velocity": 117, "duration": 240}, {"note": 66, "velocity": 107, "duration": 1520}, {"note": 62, "velocity": 96, "duration": 172}, {"note": 59, "velocity": 97, "duration": 1440}, {"note": 69, "velocity": 112, "duration": 320}, {"note": 64, "velocity": 107, "duration": 1600}, {"note": 69, "velocity": 102, "duration": 320}, {"note": 66, "velocity": 99, "duration": 160}, {"note": 64, "velocity": 97, "duration": 205}, {"note": 66, "velocity": 100, "duration": 1280}, {"note": 62, "velocity": 96, "duration": 320}, {"note": 64, "velocity": 96, "duration": 160}, {"note": 69, "velocity": 100, "duration": 240}, {"note": 66, "velocity": 93, "duration": 1200}, {"note": 62, "velocity": 117, "duration": 159}, {"note": 62, "velocity": 92, "duration": 159}, {"note": 62, "velocity": 93, "duration": 159}, {"note": 62, "velocity": 99, "duration": 160}, {"note": 59, "velocity": 83, "duration": 1280}, {"note": 57, "velocity": 89, "duration": 181}, {"note": 59, "velocity": 77, "duration": 299}, {"note": 69, "velocity": 96, "duration": 408}, {"note": 64, "velocity": 70, "duration": 1680}, {"note": 71, "velocity": 127, "duration": 319}, {"note": 71, "velocity": 112, "duration": 159}, {"note": 71, "velocity": 122, "duration": 320}, {"note": 74, "velocity": 122, "duration": 160}, {"note": 73, "velocity": 112, "duration": 320}, {"note": 74, "velocity": 107, "duration": 160}, {"note": 73, "velocity": 127, "duration": 323}, {"note": 69, "velocity": 122, "duration": 160}, {"note": 67, "velocity": 117, "duration": 319}, {"note": 67, "velocity": 112, "duration": 159}, {"note": 67, "velocity": 122, "duration": 320}, {"note": 71, "velocity": 122, "duration": 160}, {"note": 69, "velocity": 127, "duration": 800}, {"note": 57, "velocity": 102, "duration": 160}, {"note": 67, "velocity": 112, "duration": 319}, {"note": 67, "velocity": 112, "duration": 159}, {"note": 67, "velocity": 117, "duration": 320}, {"note": 66, "velocity": 117, "duration": 160}, {"note": 64, "velocity": 122, "duration": 479}, {"note": 64, "velocity": 127, "duration": 160}, {"note": 62, "velocity": 107, "duration": 170}, {"note": 64, "velocity": 127, "duration": 160}, {"note": 66, "velocity": 127, "duration": 160}, {"note": 69, "velocity": 127, "duration": 1760}, {"note": 71, "velocity": 127, "duration": 319}, {"note": 71, "velocity": 112, "duration": 159}, {"note": 71, "velocity": 112, "duration": 320}, {"note": 74, "velocity": 117, "duration": 160}, {"note": 73, "velocity": 127, "duration": 320}, {"note": 74, "velocity": 112, "duration": 160}, {"note": 73, "velocity": 127, "duration": 320}, {"note": 69, "velocity": 112, "duration": 160}, {"note": 67, "velocity": 107, "duration": 319}, {"note": 67, "velocity": 112, "duration": 159}, {"note": 67, "velocity": 127, "duration": 320}, {"note": 71, "velocity": 117, "duration": 160}, {"note": 69, "velocity": 122, "duration": 800}, {"note": 59, "velocity": 112, "duration": 160}, {"note": 67, "velocity": 102, "duration": 319}, {"note": 67, "velocity": 117, "duration": 159}, {"note": 67, "velocity": 127, "duration": 320}, {"note": 66, "velocity": 117, "duration": 160}, {"note": 64, "velocity": 127, "duration": 319}, {"note": 64, "velocity": 102, "duration": 159}, {"note": 64, "velocity": 127, "duration": 319}, {"note": 64, "velocity": 107, "duration": 160}, {"note": 62, "velocity": 100, "duration": 1440}, {"note": 69, "velocity": 122, "duration": 320}, {"note": 66, "velocity": 122, "duration": 160}, {"note": 64, "velocity": 112, "duration": 240}, {"note": 66, "velocity": 112, "duration": 1200}, {"note": 62, "velocity": 107, "duration": 320}, {"note": 64, "velocity": 117, "duration": 166}, {"note": 69, "velocity": 117, "duration": 240}, {"note": 66, "velocity": 107, "duration": 1520}, {"note": 62, "velocity": 96, "duration": 172}, {"note": 59, "velocity": 97, "duration": 778}, {"note": 71, "velocity": 107, "duration": 185}, {"note": 69, "velocity": 127, "duration": 769}, {"note": 64, "velocity": 97, "duration": 172}, {"note": 69, "velocity": 122, "duration": 1455}, {"note": 69, "velocity": 102, "duration": 320}, {"note": 66, "velocity": 99, "duration": 160}, {"note": 64, "velocity": 97, "duration": 205}, {"note": 66, "velocity": 100, "duration": 1280}, {"note": 62, "velocity": 96, "duration": 320}, {"note": 64, "velocity": 96, "duration": 160}, {"note": 69, "velocity": 100, "duration": 240}, {"note": 66, "velocity": 93, "duration": 1520}, {"note": 62, "velocity": 99, "duration": 160}, {"note": 59, "velocity": 97, "duration": 800}, {"note": 71, "velocity": 117, "duration": 177}, {"note": 69, "velocity": 102, "duration": 480}, {"note": 64, "velocity": 99, "duration": 180}, {"note": 62, "velocity": 86, "duration": 160}, {"note": 59, "velocity": 93, "duration": 181}, {"note": 62, "velocity": 100, "duration": 1440}, {"note": 69, "velocity": 102, "duration": 320}, {"note": 66, "velocity": 99, "duration": 160}, {"note": 64, "velocity": 97, "duration": 205}, {"note": 66, "velocity": 100, "duration": 1280}, {"note": 62, "velocity": 96, "duration": 320}, {"note": 64, "velocity": 96, "duration": 160}, {"note": 69, "velocity": 100, "duration": 240}, {"note": 66, "velocity": 93, "duration": 1520}, {"note": 62, "velocity": 99, "duration": 160}, {"note": 59, "velocity": 97, "duration": 800}, {"note": 71, "velocity": 117, "duration": 177}, {"note": 69, "velocity": 102, "duration": 480}, {"note": 64, "velocity": 99, "duration": 180}, {"note": 62, "velocity": 86, "duration": 160}, {"note": 59, "velocity": 93, "duration": 181}, {"note": 62, "velocity": 100, "duration": 996}]]