[[{"note": 59, "velocity": 96, "duration": 130}, {"note": 64, "velocity": 86, "duration": 57}, {"note": 0, "velocity": 0, "duration": 63}, {"note": 64, "velocity": 66, "duration": 53}, {"note": 0, "velocity": 0, "duration": 67}, {"note": 64, "velocity": 82, "duration": 62}, {"note": 66, "velocity": 92, "duration": 61}, {"note": 67, "velocity": 102, "duration": 175}, {"note": 67, "velocity": 96, "duration": 55}, {"note": 0, "velocity": 0, "duration": 65}, {"note": 67, "velocity": 83, "duration": 88}, {"note": 69, "velocity": 99, "duration": 77}, {"note": 66, "velocity": 127, "duration": 125}, {"note": 64, "velocity": 82, "duration": 113}, {"note": 62, "velocity": 82, "duration": 134}, {"note": 64, "velocity": 77, "duration": 415}, {"note": 0, "velocity": 0, "duration": 65}, {"note": 67, "velocity": 89, "duration": 99}, {"note": 69, "velocity": 85, "duration": 74}, {"note": 0, "velocity": 0, "duration": 166}, {"note": 69, "velocity": 96, "duration": 54}, {"note": 0, "velocity": 0, "duration": 66}, {"note": 69, "velocity": 93, "duration": 56}, {"note": 0, "velocity": 0, "duration": 64}, {"note": 69, "velocity": 100, "duration": 99}, {"note": 69, "velocity": 97, "duration": 99}, {"note": 67, "velocity": 92, "duration": 105}, {"note": 64, "velocity": 77, "duration": 128}, {"note": 67, "velocity": 88, "duration": 153}, {"note": 67, "velocity": 90, "duration": 33}, {"note": 0, "velocity": 0, "duration": 87}, {"note": 67, "velocity": 88, "duration": 78}, {"note": 69, "velocity": 96, "duration": 81}, {"note": 71, "velocity": 95, "duration": 439}, {"note": 69, "velocity": 100, "duration": 61}, {"note": 69, "velocity": 85, "duration": 54}, {"note": 0, "velocity": 0, "duration": 66}, {"note": 69, "velocity": 96, "duration": 58}, {"note": 0, "velocity": 0, "duration": 62}, {"note": 67, "velocity": 90, "duration": 46}, {"note": 0, "velocity": 0, "duration": 74}, {"note": 69, "velocity": 99, "duration": 230}, {"note": 0, "velocity": 0, "duration": 130}, {"note": 64, "velocity": 78, "duration": 31}, {"note": 0, "velocity": 0, "duration": 89}, {"note": 69, "velocity": 90, "duration": 54}, {"note": 0, "velocity": 0, "duration": 66}, {"note": 69, "velocity": 79, "duration": 56}, {"note": 0, "velocity": 0, "duration": 64}, {"note": 69, "velocity": 90, "duration": 67}, {"note": 67, "velocity": 89, "duration": 53}, {"note": 0, "velocity": 0, "duration": 67}, {"note": 69, "velocity": 96, "duration": 263}, {"note": 0, "velocity": 0, "duration": 217}, {"note": 67, "velocity": 99, "duration": 50}, {"note": 0, "velocity": 0, "duration": 70}, {"note": 67, "velocity": 89, "duration": 47}, {"note": 0, "velocity": 0, "duration": 73}, {"note": 67, "velocity": 89, "duration": 51}, {"note": 0, "velocity": 0, "duration": 69}, {"note": 67, "velocity": 92, "duration": 47}, {"note": 0, "velocity": 0, "duration": 73}, {"note": 67, "velocity": 93, "duration": 45}, {"note": 0, "velocity": 0, "duration": 75}, {"note": 69, "velocity": 97, "duration": 311}, {"note": 66, "velocity": 102, "duration": 798}, {"note": 59, "velocity": 89, "duration": 56}, {"note": 0, "velocity": 0, "duration": 64}, {"note": 64, "velocity": 89, "duration": 52}, {"note": 0, "velocity": 0, "duration": 68}, {"note": 64, "velocity": 83, "duration": 47}, {"note": 0, "velocity": 0, "duration": 73}, {"note": 64, "velocity": 90, "duration": 48}, {"note": 0, "velocity": 0, "duration": 72}, {"note": 66, "velocity": 97, "duration": 60}, {"note": 67, "velocity": 99, "duration": 120}, {"note": 67, "velocity": 90, "duration": 42}, {"note": 0, "velocity": 0, "duration": 78}, {"note": 67, "velocity": 95, "duration": 56}, {"note": 0, "velocity": 0, "duration": 64}, {"note": 69, "velocity": 96, "duration": 66}, {"note": 66, "velocity": 117, "duration": 101}, {"note": 64, "velocity": 79, "duration": 110}, {"note": 62, "velocity": 82, "duration": 119}, {"note": 64, "velocity": 92, "duration": 329}, {"note": 0, "velocity": 0, "duration": 151}, {"note": 67, "velocity": 86, "duration": 43}, {"note": 0, "velocity": 0, "duration": 77}, {"note": 69, "velocity": 102, "duration": 131}, {"note": 69, "velocity": 82, "duration": 11}, {"note": 0, "velocity": 0, "duration": 229}, {"note": 69, "velocity": 117, "duration": 55}, {"note": 0, "velocity": 0, "duration": 65}, {"note": 69, "velocity": 127, "duration": 75}, {"note": 69, "velocity": 102, "duration": 91}, {"note": 67, "velocity": 88, "duration": 86}, {"note": 64, "velocity": 90, "duration": 90}, {"note": 67, "velocity": 117, "duration": 121}, {"note": 67, "velocity": 89, "duration": 1}, {"note": 0, "velocity": 0, "duration": 119}, {"note": 67, "velocity": 102, "duration": 69}, {"note": 69, "velocity": 112, "duration": 54}, {"note": 0, "velocity": 0, "duration": 66}, {"note": 71, "velocity": 127, "duration": 256}, {"note": 0, "velocity": 0, "duration": 224}, {"note": 69, "velocity": 112, "duration": 46}, {"note": 0, "velocity": 0, "duration": 74}, {"note": 69, "velocity": 96, "duration": 45}, {"note": 0, "velocity": 0, "duration": 75}, {"note": 69, "velocity": 102, "duration": 48}, {"note": 0, "velocity": 0, "duration": 72}, {"note": 67, "velocity": 102, "duration": 45}, {"note": 0, "velocity": 0, "duration": 75}, {"note": 69, "velocity": 117, "duration": 185}, {"note": 0, "velocity": 0, "duration": 175}, {"note": 64, "velocity": 93, "duration": 69}, {"note": 69, "velocity": 93, "duration": 40}, {"note": 0, "velocity": 0, "duration": 80}, {"note": 69, "velocity": 93, "duration": 45}, {"note": 0, "velocity": 0, "duration": 75}, {"note": 69, "velocity": 100, "duration": 45}, {"note": 0, "velocity": 0, "duration": 75}, {"note": 67, "velocity": 90, "duration": 42}, {"note": 0, "velocity": 0, "duration": 78}, {"note": 69, "velocity": 107, "duration": 190}, {"note": 0, "velocity": 0, "duration": 290}, {"note": 67, "velocity": 107, "duration": 44}, {"note": 0, "velocity": 0, "duration": 76}, {"note": 67, "velocity": 86, "duration": 44}, {"note": 0, "velocity": 0, "duration": 76}, {"note": 67, "velocity": 88, "duration": 47}, {"note": 0, "velocity": 0, "duration": 73}, {"note": 67, "velocity": 86, "duration": 41}, {"note": 0, "velocity": 0, "duration": 79}, {"note": 67, "velocity": 93, "duration": 76}, {"note": 69, "velocity": 117, "duration": 264}, {"note": 0, "velocity": 0, "duration": 96}, {"note": 66, "velocity": 112, "duration": 108}, {"note": 64, "velocity": 77, "duration": 136}, {"note": 66, "velocity": 117, "duration": 648}, {"note": 64, "velocity": 107, "duration": 58}, {"note": 64, "velocity": 93, "duration": 58}, {"note": 0, "velocity": 0, "duration": 62}, {"note": 71, "velocity": 107, "duration": 60}, {"note": 71, "velocity": 117, "duration": 156}, {"note": 0, "velocity": 0, "duration": 84}, {"note": 71, "velocity": 112, "duration": 56}, {"note": 0, "velocity": 0, "duration": 64}, {"note": 69, "velocity": 102, "duration": 118}, {"note": 71, "velocity": 96, "duration": 160}, {"note": 0, "velocity": 0, "duration": 80}, {"note": 71, "velocity": 117, "duration": 41}, {"note": 0, "velocity": 0, "duration": 79}, {"note": 71, "velocity": 107, "duration": 161}, {"note": 0, "velocity": 0, "duration": 79}, {"note": 69, "velocity": 122, "duration": 115}, {"note": 67, "velocity": 100, "duration": 112}, {"note": 64, "velocity": 100, "duration": 268}, {"note": 0, "velocity": 0, "duration": 212}, {"note": 76, "velocity": 122, "duration": 55}, {"note": 0, "velocity": 0, "duration": 65}, {"note": 76, "velocity": 117, "duration": 185}, {"note": 76, "velocity": 122, "duration": 94}, {"note": 74, "velocity": 117, "duration": 140}, {"note": 0, "velocity": 0, "duration": 100}, {"note": 71, "velocity": 127, "duration": 108}, {"note": 69, "velocity": 89, "duration": 128}, {"note": 71, "velocity": 97, "duration": 494}, {"note": 0, "velocity": 0, "duration": 226}, {"note": 64, "velocity": 97, "duration": 61}, {"note": 64, "velocity": 97, "duration": 76}, {"note": 69, "velocity": 127, "duration": 66}, {"note": 69, "velocity": 127, "duration": 130}, {"note": 0, "velocity": 0, "duration": 110}, {"note": 69, "velocity": 127, "duration": 48}, {"note": 0, "velocity": 0, "duration": 72}, {"note": 67, "velocity": 122, "duration": 71}, {"note": 69, "velocity": 127, "duration": 137}, {"note": 0, "velocity": 0, "duration": 103}, {"note": 69, "velocity": 117, "duration": 45}, {"note": 0, "velocity": 0, "duration": 75}, {"note": 71, "velocity": 122, "duration": 118}, {"note": 69, "velocity": 112, "duration": 109}, {"note": 67, "velocity": 112, "duration": 120}, {"note": 66, "velocity": 112, "duration": 107}, {"note": 64, "velocity": 100, "duration": 224}, {"note": 0, "velocity": 0, "duration": 256}, {"note": 69, "velocity": 117, "duration": 61}, {"note": 69, "velocity": 122, "duration": 163}, {"note": 0, "velocity": 0, "duration": 77}, {"note": 67, "velocity": 107, "duration": 99}, {"note": 76, "velocity": 127, "duration": 207}, {"note": 74, "velocity": 122, "duration": 206}, {"note": 71, "velocity": 117, "duration": 649}, {"note": 0, "velocity": 0, "duration": 71}, {"note": 64, "velocity": 99, "duration": 54}, {"note": 0, "velocity": 0, "duration": 66}, {"note": 64, "velocity": 92, "duration": 106}, {"note": 71, "velocity": 127, "duration": 78}, {"note": 71, "velocity": 112, "duration": 176}, {"note": 0, "velocity": 0, "duration": 64}, {"note": 71, "velocity": 127, "duration": 81}, {"note": 69, "velocity": 112, "duration": 107}, {"note": 71, "velocity": 112, "duration": 110}, {"note": 0, "velocity": 0, "duration": 130}, {"note": 71, "velocity": 127, "duration": 99}, {"note": 69, "velocity": 122, "duration": 119}, {"note": 71, "velocity": 99, "duration": 111}, {"note": 67, "velocity": 95, "duration": 116}, {"note": 66, "velocity": 100, "duration": 109}, {"note": 64, "velocity": 100, "duration": 230}, {"note": 0, "velocity": 0, "duration": 250}, {"note": 76, "velocity": 117, "duration": 59}, {"note": 0, "velocity": 0, "duration": 61}, {"note": 76, "velocity": 96, "duration": 55}, {"note": 0, "velocity": 0, "duration": 65}, {"note": 76, "velocity": 95, "duration": 65}, {"note": 76, "velocity": 100, "duration": 74}, {"note": 78, "velocity": 127, "duration": 175}, {"note": 0, "velocity": 0, "duration": 65}, {"note": 74, "velocity": 122, "duration": 195}, {"note": 71, "velocity": 112, "duration": 475}, {"note": 0, "velocity": 0, "duration": 245}, {"note": 64, "velocity": 92, "duration": 55}, {"note": 0, "velocity": 0, "duration": 65}, {"note": 64, "velocity": 93, "duration": 92}, {"note": 69, "velocity": 117, "duration": 64}, {"note": 69, "velocity": 117, "duration": 134}, {"note": 0, "velocity": 0, "duration": 106}, {"note": 69, "velocity": 127, "duration": 61}, {"note": 67, "velocity": 112, "duration": 121}, {"note": 69, "velocity": 117, "duration": 125}, {"note": 0, "velocity": 0, "duration": 115}, {"note": 69, "velocity": 117, "duration": 45}, {"note": 0, "velocity": 0, "duration": 75}, {"note": 71, "velocity": 112, "duration": 117}, {"note": 69, "velocity": 112, "duration": 102}, {"note": 67, "velocity": 95, "duration": 103}, {"note": 66, "velocity": 102, "duration": 114}, {"note": 64, "velocity": 107, "duration": 261}, {"note": 0, "velocity": 0, "duration": 219}, {"note": 66, "velocity": 127, "duration": 58}, {"note": 0, "velocity": 0, "duration": 62}, {"note": 66, "velocity": 99, "duration": 129}, {"note": 0, "velocity": 0, "duration": 111}, {"note": 67, "velocity": 96, "duration": 102}, {"note": 66, "velocity": 117, "duration": 212}, {"note": 64, "velocity": 96, "duration": 123}, {"note": 66, "velocity": 112, "duration": 654}, {"note": 0, "velocity": 0, "duration": 186}, {"note": 67, "velocity": 112, "duration": 124}, {"note": 66, "velocity": 96, "duration": 126}, {"note": 64, "velocity": 112, "duration": 679}, {"note": 0, "velocity": 0, "duration": 6881}, {"note": 59, "velocity": 96, "duration": 130}, {"note": 64, "velocity": 86, "duration": 57}, {"note": 0, "velocity": 0, "duration": 63}, {"note": 64, "velocity": 66, "duration": 53}, {"note": 0, "velocity": 0, "duration": 67}, {"note": 64, "velocity": 82, "duration": 62}, {"note": 66, "velocity": 92, "duration": 61}, {"note": 67, "velocity": 102, "duration": 175}, {"note": 67, "velocity": 96, "duration": 55}, {"note": 0, "velocity": 0, "duration": 65}, {"note": 67, "velocity": 83, "duration": 88}, {"note": 69, "velocity": 99, "duration": 77}, {"note": 66, "velocity": 127, "duration": 125}, {"note": 64, "velocity": 82, "duration": 113}, {"note": 62, "velocity": 82, "duration": 134}, {"note": 64, "velocity": 77, "duration": 415}, {"note": 0, "velocity": 0, "duration": 65}, {"note": 67, "velocity": 89, "duration": 99}, {"note": 69, "velocity": 85, "duration": 74}, {"note": 0, "velocity": 0, "duration": 166}, {"note": 69, "velocity": 96, "duration": 54}, {"note": 0, "velocity": 0, "duration": 66}, {"note": 69, "velocity": 93, "duration": 56}, {"note": 0, "velocity": 0, "duration": 64}, {"note": 69, "velocity": 100, "duration": 99}, {"note": 69, "velocity": 97, "duration": 99}, {"note": 67, "velocity": 92, "duration": 105}, {"note": 64, "velocity": 77, "duration": 128}, {"note": 67, "velocity": 88, "duration": 153}, {"note": 67, "velocity": 90, "duration": 33}, {"note": 0, "velocity": 0, "duration": 87}, {"note": 67, "velocity": 88, "duration": 78}, {"note": 69, "velocity": 96, "duration": 81}, {"note": 71, "velocity": 95, "duration": 439}, {"note": 69, "velocity": 100, "duration": 61}, {"note": 69, "velocity": 85, "duration": 54}, {"note": 0, "velocity": 0, "duration": 66}, {"note": 69, "velocity": 96, "duration": 58}, {"note": 0, "velocity": 0, "duration": 62}, {"note": 67, "velocity": 90, "duration": 46}, {"note": 0, "velocity": 0, "duration": 74}, {"note": 69, "velocity": 99, "duration": 230}, {"note": 0, "velocity": 0, "duration": 130}, {"note": 64, "velocity": 78, "duration": 31}, {"note": 0, "velocity": 0, "duration": 89}, {"note": 69, "velocity": 90, "duration": 54}, {"note": 0, "velocity": 0, "duration": 66}, {"note": 69, "velocity": 79, "duration": 56}, {"note": 0, "velocity": 0, "duration": 64}, {"note": 69, "velocity": 90, "duration": 67}, {"note": 67, "velocity": 89, "duration": 53}, {"note": 0, "velocity": 0, "duration": 67}, {"note": 69, "velocity": 96, "duration": 263}, {"note": 0, "velocity": 0, "duration": 217}, {"note": 67, "velocity": 99, "duration": 50}, {"note": 0, "velocity": 0, "duration": 70}, {"note": 67, "velocity": 89, "duration": 47}, {"note": 0, "velocity": 0, "duration": 73}, {"note": 67, "velocity": 89, "duration": 51}, {"note": 0, "velocity": 0, "duration": 69}, {"note": 67, "velocity": 92, "duration": 47}, {"note": 0, "velocity": 0, "duration": 73}, {"note": 67, "velocity": 93, "duration": 45}, {"note": 0, "velocity": 0, "duration": 75}, {"note": 69, "velocity": 97, "duration": 311}, {"note": 66, "velocity": 102, "duration": 798}, {"note": 59, "velocity": 89, "duration": 56}, {"note": 0, "velocity": 0, "duration": 64}, {"note": 64, "velocity": 89, "duration": 52}, {"note": 0, "velocity": 0, "duration": 68}, {"note": 64, "velocity": 83, "duration": 47}, {"note": 0, "velocity": 0, "duration": 73}, {"note": 64, "velocity": 90, "duration": 48}, {"note": 0, "velocity": 0, "duration": 72}, {"note": 66, "velocity": 97, "duration": 60}, {"note": 67, "velocity": 99, "duration": 120}, {"note": 67, "velocity": 90, "duration": 42}, {"note": 0, "velocity": 0, "duration": 78}, {"note": 67, "velocity": 95, "duration": 56}, {"note": 0, "velocity": 0, "duration": 64}, {"note": 69, "velocity": 96, "duration": 66}, {"note": 66, "velocity": 117, "duration": 101}, {"note": 64, "velocity": 79, "duration": 110}, {"note": 62, "velocity": 82, "duration": 119}, {"note": 64, "velocity": 92, "duration": 329}, {"note": 0, "velocity": 0, "duration": 151}, {"note": 67, "velocity": 86, "duration": 43}, {"note": 0, "velocity": 0, "duration": 77}, {"note": 69, "velocity": 102, "duration": 131}, {"note": 69, "velocity": 82, "duration": 11}, {"note": 0, "velocity": 0, "duration": 229}, {"note": 69, "velocity": 117, "duration": 55}, {"note": 0, "velocity": 0, "duration": 65}, {"note": 69, "velocity": 127, "duration": 75}, {"note": 69, "velocity": 102, "duration": 91}, {"note": 67, "velocity": 88, "duration": 86}, {"note": 64, "velocity": 90, "duration": 90}, {"note": 67, "velocity": 117, "duration": 121}, {"note": 67, "velocity": 89, "duration": 1}, {"note": 0, "velocity": 0, "duration": 119}, {"note": 67, "velocity": 102, "duration": 69}, {"note": 69, "velocity": 112, "duration": 54}, {"note": 0, "velocity": 0, "duration": 66}, {"note": 71, "velocity": 127, "duration": 256}, {"note": 0, "velocity": 0, "duration": 224}, {"note": 69, "velocity": 112, "duration": 46}, {"note": 0, "velocity": 0, "duration": 74}, {"note": 69, "velocity": 96, "duration": 45}, {"note": 0, "velocity": 0, "duration": 75}, {"note": 69, "velocity": 102, "duration": 48}, {"note": 0, "velocity": 0, "duration": 72}, {"note": 67, "velocity": 102, "duration": 45}, {"note": 0, "velocity": 0, "duration": 75}, {"note": 69, "velocity": 117, "duration": 185}, {"note": 0, "velocity": 0, "duration": 175}, {"note": 64, "velocity": 93, "duration": 69}, {"note": 69, "velocity": 93, "duration": 40}, {"note": 0, "velocity": 0, "duration": 80}, {"note": 69, "velocity": 93, "duration": 45}, {"note": 0, "velocity": 0, "duration": 75}, {"note": 69, "velocity": 100, "duration": 45}, {"note": 0, "velocity": 0, "duration": 75}, {"note": 67, "velocity": 90, "duration": 42}, {"note": 0, "velocity": 0, "duration": 78}, {"note": 69, "velocity": 107, "duration": 190}, {"note": 0, "velocity": 0, "duration": 290}, {"note": 67, "velocity": 107, "duration": 44}, {"note": 0, "velocity": 0, "duration": 76}, {"note": 67, "velocity": 86, "duration": 44}, {"note": 0, "velocity": 0, "duration": 76}, {"note": 67, "velocity": 88, "duration": 47}, {"note": 0, "velocity": 0, "duration": 73}, {"note": 67, "velocity": 86, "duration": 41}, {"note": 0, "velocity": 0, "duration": 79}, {"note": 67, "velocity": 93, "duration": 76}, {"note": 69, "velocity": 117, "duration": 264}, {"note": 0, "velocity": 0, "duration": 96}, {"note": 66, "velocity": 112, "duration": 108}, {"note": 64, "velocity": 77, "duration": 136}, {"note": 66, "velocity": 117, "duration": 648}, {"note": 64, "velocity": 107, "duration": 58}, {"note": 64, "velocity": 93, "duration": 58}, {"note": 0, "velocity": 0, "duration": 62}, {"note": 71, "velocity": 107, "duration": 60}, {"note": 71, "velocity": 117, "duration": 156}, {"note": 0, "velocity": 0, "duration": 84}, {"note": 71, "velocity": 112, "duration": 56}, {"note": 0, "velocity": 0, "duration": 64}, {"note": 69, "velocity": 102, "duration": 118}, {"note": 71, "velocity": 96, "duration": 160}, {"note": 0, "velocity": 0, "duration": 80}, {"note": 71, "velocity": 117, "duration": 41}, {"note": 0, "velocity": 0, "duration": 79}, {"note": 71, "velocity": 107, "duration": 161}, {"note": 0, "velocity": 0, "duration": 79}, {"note": 69, "velocity": 122, "duration": 115}, {"note": 67, "velocity": 100, "duration": 112}, {"note": 64, "velocity": 100, "duration": 268}, {"note": 0, "velocity": 0, "duration": 212}, {"note": 76, "velocity": 122, "duration": 55}, {"note": 0, "velocity": 0, "duration": 65}, {"note": 76, "velocity": 117, "duration": 185}, {"note": 76, "velocity": 122, "duration": 94}, {"note": 74, "velocity": 117, "duration": 140}, {"note": 0, "velocity": 0, "duration": 100}, {"note": 71, "velocity": 127, "duration": 108}, {"note": 69, "velocity": 89, "duration": 128}, {"note": 71, "velocity": 97, "duration": 494}, {"note": 0, "velocity": 0, "duration": 226}, {"note": 64, "velocity": 97, "duration": 61}, {"note": 64, "velocity": 97, "duration": 76}, {"note": 69, "velocity": 127, "duration": 66}, {"note": 69, "velocity": 127, "duration": 130}, {"note": 0, "velocity": 0, "duration": 110}, {"note": 69, "velocity": 127, "duration": 48}, {"note": 0, "velocity": 0, "duration": 72}, {"note": 67, "velocity": 122, "duration": 71}, {"note": 69, "velocity": 127, "duration": 137}, {"note": 0, "velocity": 0, "duration": 103}, {"note": 69, "velocity": 117, "duration": 45}, {"note": 0, "velocity": 0, "duration": 75}, {"note": 71, "velocity": 122, "duration": 118}, {"note": 69, "velocity": 112, "duration": 109}, {"note": 67, "velocity": 112, "duration": 120}, {"note": 66, "velocity": 112, "duration": 107}, {"note": 64, "velocity": 100, "duration": 224}, {"note": 0, "velocity": 0, "duration": 256}, {"note": 69, "velocity": 117, "duration": 61}, {"note": 69, "velocity": 122, "duration": 163}, {"note": 0, "velocity": 0, "duration": 77}, {"note": 67, "velocity": 107, "duration": 99}, {"note": 76, "velocity": 127, "duration": 207}, {"note": 74, "velocity": 122, "duration": 206}, {"note": 71, "velocity": 117, "duration": 649}, {"note": 0, "velocity": 0, "duration": 71}, {"note": 64, "velocity": 99, "duration": 54}, {"note": 0, "velocity": 0, "duration": 66}, {"note": 64, "velocity": 92, "duration": 106}, {"note": 71, "velocity": 127, "duration": 78}, {"note": 71, "velocity": 112, "duration": 176}, {"note": 0, "velocity": 0, "duration": 64}, {"note": 71, "velocity": 127, "duration": 81}, {"note": 69, "velocity": 112, "duration": 107}, {"note": 71, "velocity": 112, "duration": 110}, {"note": 0, "velocity": 0, "duration": 130}, {"note": 71, "velocity": 127, "duration": 99}, {"note": 69, "velocity": 122, "duration": 119}, {"note": 71, "velocity": 99, "duration": 111}, {"note": 67, "velocity": 95, "duration": 116}, {"note": 66, "velocity": 100, "duration": 109}, {"note": 64, "velocity": 100, "duration": 230}, {"note": 0, "velocity": 0, "duration": 250}, {"note": 76, "velocity": 117, "duration": 59}, {"note": 0, "velocity": 0, "duration": 61}, {"note": 76, "velocity": 96, "duration": 55}, {"note": 0, "velocity": 0, "duration": 65}, {"note": 76, "velocity": 95, "duration": 65}, {"note": 76, "velocity": 100, "duration": 74}, {"note": 78, "velocity": 127, "duration": 175}, {"note": 0, "velocity": 0, "duration": 65}, {"note": 74, "velocity": 122, "duration": 195}, {"note": 71, "velocity": 112, "duration": 475}, {"note": 0, "velocity": 0, "duration": 245}, {"note": 64, "velocity": 92, "duration": 55}, {"note": 0, "velocity": 0, "duration": 65}, {"note": 64, "velocity": 93, "duration": 92}, {"note": 69, "velocity": 117, "duration": 64}, {"note": 69, "velocity": 117, "duration": 134}, {"note": 0, "velocity": 0, "duration": 106}, {"note": 69, "velocity": 127, "duration": 61}, {"note": 67, "velocity": 112, "duration": 121}, {"note": 69, "velocity": 117, "duration": 125}, {"note": 0, "velocity": 0, "duration": 115}, {"note": 69, "velocity": 117, "duration": 45}, {"note": 0, "velocity": 0, "duration": 75}, {"note": 71, "velocity": 112, "duration": 117}, {"note": 69, "velocity": 112, "duration": 102}, {"note": 67, "velocity": 95, "duration": 103}, {"note": 66, "velocity": 102, "duration": 114}, {"note": 64, "velocity": 107, "duration": 261}, {"note": 0, "velocity": 0, "duration": 219}, {"note": 66, "velocity": 127, "duration": 58}, {"note": 0, "velocity": 0, "duration": 62}, {"note": 66, "velocity": 99, "duration": 129}, {"note": 0, "velocity": 0, "duration": 111}, {"note": 67, "velocity": 96, "duration": 102}, {"note": 66, "velocity": 117, "duration": 212}, {"note": 64, "velocity": 96, "duration": 123}, {"note": 66, "velocity": 112, "duration": 654}, {"note": 0, "velocity": 0, "duration": 186}, {"note": 67, "velocity": 112, "duration": 124}, {"note": 66, "velocity": 96, "duration": 126}, {"note": 64, "velocity": 112, "duration": 679}, {"note": 0, "velocity": 0, "duration": 6761}, {"note": 64, "velocity": 102, "duration": 71}, {"note": 66, "velocity": 122, "duration": 44}, {"note": 0, "velocity": 0, "duration": 76}, {"note": 67, "velocity": 127, "duration": 325}, {"note": 0, "velocity": 0, "duration": 635}, {"note": 64, "velocity": 112, "duration": 757}, {"note": 0, "velocity": 0, "duration": 203}, {"note": 67, "velocity": 127, "duration": 347}, {"note": 0, "velocity": 0, "duration": 133}, {"note": 66, "velocity": 127, "duration": 351}, {"note": 0, "velocity": 0, "duration": 129}, {"note": 67, "velocity": 127, "duration": 712}, {"note": 71, "velocity": 112, "duration": 98}, {"note": 74, "velocity": 95, "duration": 45}, {"note": 0, "velocity": 0, "duration": 75}, {"note": 76, "velocity": 127, "duration": 407}, {"note": 0, "velocity": 0, "duration": 73}, {"note": 76, "velocity": 127, "duration": 277}, {"note": 0, "velocity": 0, "duration": 83}, {"note": 71, "velocity": 112, "duration": 47}, {"note": 0, "velocity": 0, "duration": 73}, {"note": 71, "velocity": 127, "duration": 253}, {"note": 69, "velocity": 107, "duration": 556}, {"note": 69, "velocity": 107, "duration": 76}, {"note": 71, "velocity": 112, "duration": 55}, {"note": 0, "velocity": 0, "duration": 65}, {"note": 72, "velocity": 127, "duration": 579}, {"note": 74, "velocity": 67, "duration": 111}, {"note": 71, "velocity": 100, "duration": 107}, {"note": 69, "velocity": 81, "duration": 130}, {"note": 71, "velocity": 107, "duration": 462}, {"note": 0, "velocity": 0, "duration": 258}, {"note": 66, "velocity": 107, "duration": 58}, {"note": 0, "velocity": 0, "duration": 62}, {"note": 66, "velocity": 93, "duration": 58}, {"note": 0, "velocity": 0, "duration": 62}, {"note": 73, "velocity": 107, "duration": 60}, {"note": 73, "velocity": 117, "duration": 156}, {"note": 0, "velocity": 0, "duration": 84}, {"note": 73, "velocity": 112, "duration": 56}, {"note": 0, "velocity": 0, "duration": 64}, {"note": 71, "velocity": 102, "duration": 118}, {"note": 73, "velocity": 96, "duration": 160}, {"note": 0, "velocity": 0, "duration": 80}, {"note": 73, "velocity": 117, "duration": 41}, {"note": 0, "velocity": 0, "duration": 79}, {"note": 73, "velocity": 107, "duration": 161}, {"note": 0, "velocity": 0, "duration": 79}, {"note": 71, "velocity": 122, "duration": 115}, {"note": 69, "velocity": 100, "duration": 112}, {"note": 66, "velocity": 100, "duration": 268}, {"note": 0, "velocity": 0, "duration": 212}, {"note": 78, "velocity": 122, "duration": 55}, {"note": 0, "velocity": 0, "duration": 65}, {"note": 78, "velocity": 117, "duration": 185}, {"note": 78, "velocity": 122, "duration": 94}, {"note": 76, "velocity": 117, "duration": 140}, {"note": 0, "velocity": 0, "duration": 100}, {"note": 73, "velocity": 127, "duration": 108}, {"note": 71, "velocity": 89, "duration": 128}, {"note": 73, "velocity": 97, "duration": 494}, {"note": 0, "velocity": 0, "duration": 226}, {"note": 66, "velocity": 97, "duration": 61}, {"note": 66, "velocity": 97, "duration": 76}, {"note": 71, "velocity": 127, "duration": 66}, {"note": 71, "velocity": 127, "duration": 130}, {"note": 0, "velocity": 0, "duration": 110}, {"note": 71, "velocity": 127, "duration": 48}, {"note": 0, "velocity": 0, "duration": 72}, {"note": 69, "velocity": 122, "duration": 71}, {"note": 71, "velocity": 127, "duration": 137}, {"note": 0, "velocity": 0, "duration": 103}, {"note": 71, "velocity": 117, "duration": 45}, {"note": 0, "velocity": 0, "duration": 75}, {"note": 73, "velocity": 122, "duration": 118}, {"note": 71, "velocity": 112, "duration": 109}, {"note": 69, "velocity": 112, "duration": 120}, {"note": 68, "velocity": 112, "duration": 107}, {"note": 66, "velocity": 100, "duration": 224}, {"note": 0, "velocity": 0, "duration": 256}, {"note": 71, "velocity": 117, "duration": 61}, {"note": 71, "velocity": 122, "duration": 163}, {"note": 0, "velocity": 0, "duration": 77}, {"note": 69, "velocity": 107, "duration": 99}, {"note": 78, "velocity": 127, "duration": 207}, {"note": 76, "velocity": 122, "duration": 206}, {"note": 73, "velocity": 117, "duration": 649}, {"note": 0, "velocity": 0, "duration": 71}, {"note": 66, "velocity": 99, "duration": 54}, {"note": 0, "velocity": 0, "duration": 66}, {"note": 66, "velocity": 92, "duration": 106}, {"note": 73, "velocity": 127, "duration": 78}, {"note": 73, "velocity": 112, "duration": 176}, {"note": 0, "velocity": 0, "duration": 64}, {"note": 73, "velocity": 127, "duration": 81}, {"note": 71, "velocity": 112, "duration": 107}, {"note": 73, "velocity": 112, "duration": 110}, {"note": 0, "velocity": 0, "duration": 130}, {"note": 73, "velocity": 127, "duration": 99}, {"note": 71, "velocity": 122, "duration": 119}, {"note": 73, "velocity": 99, "duration": 111}, {"note": 69, "velocity": 95, "duration": 116}, {"note": 68, "velocity": 100, "duration": 109}, {"note": 66, "velocity": 100, "duration": 230}, {"note": 0, "velocity": 0, "duration": 250}, {"note": 78, "velocity": 117, "duration": 59}, {"note": 0, "velocity": 0, "duration": 61}, {"note": 78, "velocity": 96, "duration": 55}, {"note": 0, "velocity": 0, "duration": 65}, {"note": 78, "velocity": 95, "duration": 65}, {"note": 78, "velocity": 100, "duration": 74}, {"note": 80, "velocity": 127, "duration": 175}, {"note": 0, "velocity": 0, "duration": 65}, {"note": 76, "velocity": 122, "duration": 195}, {"note": 73, "velocity": 112, "duration": 475}, {"note": 0, "velocity": 0, "duration": 245}, {"note": 66, "velocity": 92, "duration": 55}, {"note": 0, "velocity": 0, "duration": 65}, {"note": 66, "velocity": 93, "duration": 92}, {"note": 71, "velocity": 117, "duration": 64}, {"note": 71, "velocity": 117, "duration": 134}, {"note": 0, "velocity": 0, "duration": 106}, {"note": 71, "velocity": 127, "duration": 61}, {"note": 69, "velocity": 112, "duration": 121}, {"note": 71, "velocity": 117, "duration": 125}, {"note": 0, "velocity": 0, "duration": 115}, {"note": 71, "velocity": 117, "duration": 45}, {"note": 0, "velocity": 0, "duration": 75}, {"note": 73, "velocity": 112, "duration": 117}, {"note": 71, "velocity": 112, "duration": 102}, {"note": 69, "velocity": 95, "duration": 103}, {"note": 68, "velocity": 102, "duration": 114}, {"note": 66, "velocity": 107, "duration": 261}, {"note": 0, "velocity": 0, "duration": 219}, {"note": 68, "velocity": 127, "duration": 58}, {"note": 0, "velocity": 0, "duration": 62}, {"note": 68, "velocity": 99, "duration": 129}, {"note": 0, "velocity": 0, "duration": 111}, {"note": 69, "velocity": 96, "duration": 102}, {"note": 68, "velocity": 117, "duration": 212}, {"note": 66, "velocity": 96, "duration": 123}, {"note": 68, "velocity": 112, "duration": 654}, {"note": 0, "velocity": 0, "duration": 1626}, {"note": 69, "velocity": 99, "duration": 265}, {"note": 66, "velocity": 96, "duration": 956}]]