[[{"note": 71, "velocity": 85, "duration": 177}, {"note": 0, "velocity": 0, "duration": 63}, {"note": 73, "velocity": 87, "duration": 70}, {"note": 73, "velocity": 74, "duration": 57}, {"note": 0, "velocity": 0, "duration": 63}, {"note": 73, "velocity": 87, "duration": 64}, {"note": 73, "velocity": 95, "duration": 65}, {"note": 71, "velocity": 87, "duration": 57}, {"note": 0, "velocity": 0, "duration": 63}, {"note": 71, "velocity": 93, "duration": 57}, {"note": 0, "velocity": 0, "duration": 63}, {"note": 69, "velocity": 90, "duration": 158}, {"note": 0, "velocity": 0, "duration": 82}, {"note": 69, "velocity": 87, "duration": 336}, {"note": 0, "velocity": 0, "duration": 264}, {"note": 66, "velocity": 70, "duration": 72}, {"note": 64, "velocity": 87, "duration": 61}, {"note": 66, "velocity": 80, "duration": 64}, {"note": 69, "velocity": 74, "duration": 61}, {"note": 69, "velocity": 90, "duration": 54}, {"note": 0, "velocity": 0, "duration": 66}, {"note": 69, "velocity": 90, "duration": 59}, {"note": 0, "velocity": 0, "duration": 61}, {"note": 69, "velocity": 93, "duration": 64}, {"note": 66, "velocity": 74, "duration": 54}, {"note": 0, "velocity": 0, "duration": 66}, {"note": 66, "velocity": 67, "duration": 64}, {"note": 64, "velocity": 87, "duration": 607}, {"note": 0, "velocity": 0, "duration": 473}, {"note": 73, "velocity": 83, "duration": 89}, {"note": 76, "velocity": 87, "duration": 51}, {"note": 0, "velocity": 0, "duration": 69}, {"note": 76, "velocity": 87, "duration": 59}, {"note": 0, "velocity": 0, "duration": 61}, {"note": 76, "velocity": 93, "duration": 165}, {"note": 0, "velocity": 0, "duration": 75}, {"note": 76, "velocity": 87, "duration": 60}, {"note": 76, "velocity": 87, "duration": 61}, {"note": 78, "velocity": 93, "duration": 56}, {"note": 0, "velocity": 0, "duration": 64}, {"note": 76, "velocity": 87, "duration": 59}, {"note": 0, "velocity": 0, "duration": 61}, {"note": 73, "velocity": 87, "duration": 382}, {"note": 0, "velocity": 0, "duration": 338}, {"note": 64, "velocity": 90, "duration": 53}, {"note": 0, "velocity": 0, "duration": 67}, {"note": 66, "velocity": 87, "duration": 53}, {"note": 0, "velocity": 0, "duration": 67}, {"note": 69, "velocity": 93, "duration": 59}, {"note": 0, "velocity": 0, "duration": 61}, {"note": 69, "velocity": 93, "duration": 53}, {"note": 0, "velocity": 0, "duration": 67}, {"note": 69, "velocity": 93, "duration": 142}, {"note": 0, "velocity": 0, "duration": 98}, {"note": 66, "velocity": 74, "duration": 80}, {"note": 66, "velocity": 80, "duration": 71}, {"note": 71, "velocity": 83, "duration": 437}, {"note": 0, "velocity": 0, "duration": 643}, {"note": 73, "velocity": 74, "duration": 66}, {"note": 73, "velocity": 83, "duration": 61}, {"note": 73, "velocity": 87, "duration": 66}, {"note": 73, "velocity": 83, "duration": 71}, {"note": 71, "velocity": 87, "duration": 59}, {"note": 0, "velocity": 0, "duration": 61}, {"note": 69, "velocity": 93, "duration": 54}, {"note": 0, "velocity": 0, "duration": 66}, {"note": 66, "velocity": 70, "duration": 70}, {"note": 69, "velocity": 83, "duration": 406}, {"note": 0, "velocity": 0, "duration": 434}, {"note": 66, "velocity": 80, "duration": 80}, {"note": 64, "velocity": 87, "duration": 59}, {"note": 0, "velocity": 0, "duration": 61}, {"note": 66, "velocity": 87, "duration": 68}, {"note": 69, "velocity": 87, "duration": 58}, {"note": 0, "velocity": 0, "duration": 62}, {"note": 69, "velocity": 87, "duration": 55}, {"note": 0, "velocity": 0, "duration": 65}, {"note": 69, "velocity": 102, "duration": 137}, {"note": 0, "velocity": 0, "duration": 103}, {"note": 66, "velocity": 87, "duration": 56}, {"note": 0, "velocity": 0, "duration": 64}, {"note": 66, "velocity": 72, "duration": 66}, {"note": 64, "velocity": 93, "duration": 568}, {"note": 0, "velocity": 0, "duration": 512}, {"note": 73, "velocity": 102, "duration": 102}, {"note": 76, "velocity": 83, "duration": 55}, {"note": 0, "velocity": 0, "duration": 65}, {"note": 76, "velocity": 93, "duration": 58}, {"note": 0, "velocity": 0, "duration": 62}, {"note": 76, "velocity": 93, "duration": 122}, {"note": 0, "velocity": 0, "duration": 118}, {"note": 76, "velocity": 87, "duration": 54}, {"note": 0, "velocity": 0, "duration": 66}, {"note": 76, "velocity": 95, "duration": 60}, {"note": 78, "velocity": 80, "duration": 59}, {"note": 0, "velocity": 0, "duration": 61}, {"note": 76, "velocity": 80, "duration": 60}, {"note": 73, "velocity": 74, "duration": 384}, {"note": 0, "velocity": 0, "duration": 216}, {"note": 66, "velocity": 68, "duration": 82}, {"note": 64, "velocity": 74, "duration": 53}, {"note": 0, "velocity": 0, "duration": 67}, {"note": 66, "velocity": 80, "duration": 59}, {"note": 0, "velocity": 0, "duration": 61}, {"note": 69, "velocity": 80, "duration": 52}, {"note": 0, "velocity": 0, "duration": 68}, {"note": 69, "velocity": 93, "duration": 51}, {"note": 0, "velocity": 0, "duration": 69}, {"note": 69, "velocity": 87, "duration": 158}, {"note": 0, "velocity": 0, "duration": 82}, {"note": 66, "velocity": 68, "duration": 62}, {"note": 66, "velocity": 80, "duration": 76}, {"note": 71, "velocity": 83, "duration": 638}, {"note": 0, "velocity": 0, "duration": 1642}, {"note": 78, "velocity": 87, "duration": 85}, {"note": 76, "velocity": 93, "duration": 58}, {"note": 0, "velocity": 0, "duration": 62}, {"note": 78, "velocity": 90, "duration": 160}, {"note": 0, "velocity": 0, "duration": 80}, {"note": 78, "velocity": 87, "duration": 84}, {"note": 76, "velocity": 90, "duration": 416}, {"note": 0, "velocity": 0, "duration": 64}, {"note": 64, "velocity": 93, "duration": 80}, {"note": 76, "velocity": 95, "duration": 126}, {"note": 0, "velocity": 0, "duration": 114}, {"note": 73, "velocity": 87, "duration": 73}, {"note": 71, "velocity": 87, "duration": 206}, {"note": 69, "velocity": 87, "duration": 718}, {"note": 0, "velocity": 0, "duration": 1322}, {"note": 78, "velocity": 83, "duration": 74}, {"note": 76, "velocity": 74, "duration": 66}, {"note": 78, "velocity": 95, "duration": 156}, {"note": 0, "velocity": 0, "duration": 84}, {"note": 78, "velocity": 83, "duration": 84}, {"note": 76, "velocity": 87, "duration": 59}, {"note": 0, "velocity": 0, "duration": 61}, {"note": 78, "velocity": 93, "duration": 381}, {"note": 0, "velocity": 0, "duration": 219}, {"note": 76, "velocity": 102, "duration": 168}, {"note": 0, "velocity": 0, "duration": 72}, {"note": 73, "velocity": 69, "duration": 72}, {"note": 76, "velocity": 87, "duration": 153}, {"note": 0, "velocity": 0, "duration": 87}, {"note": 73, "velocity": 87, "duration": 923}, {"note": 0, "velocity": 0, "duration": 877}, {"note": 64, "velocity": 80, "duration": 55}, {"note": 0, "velocity": 0, "duration": 65}, {"note": 73, "velocity": 95, "duration": 44}, {"note": 0, "velocity": 0, "duration": 76}, {"note": 73, "velocity": 90, "duration": 57}, {"note": 0, "velocity": 0, "duration": 63}, {"note": 74, "velocity": 74, "duration": 84}, {"note": 74, "velocity": 93, "duration": 282}, {"note": 0, "velocity": 0, "duration": 558}, {"note": 78, "velocity": 93, "duration": 153}, {"note": 0, "velocity": 0, "duration": 87}, {"note": 76, "velocity": 93, "duration": 53}, {"note": 0, "velocity": 0, "duration": 67}, {"note": 73, "velocity": 80, "duration": 49}, {"note": 0, "velocity": 0, "duration": 71}, {"note": 76, "velocity": 93, "duration": 529}, {"note": 0, "velocity": 0, "duration": 191}, {"note": 73, "velocity": 80, "duration": 675}, {"note": 0, "velocity": 0, "duration": 285}, {"note": 66, "velocity": 74, "duration": 68}, {"note": 69, "velocity": 87, "duration": 53}, {"note": 0, "velocity": 0, "duration": 67}, {"note": 73, "velocity": 83, "duration": 189}, {"note": 71, "velocity": 80, "duration": 621}, {"note": 0, "velocity": 0, "duration": 579}, {"note": 66, "velocity": 80, "duration": 80}, {"note": 69, "velocity": 87, "duration": 285}, {"note": 0, "velocity": 0, "duration": 75}, {"note": 69, "velocity": 87, "duration": 1034}, {"note": 0, "velocity": 0, "duration": 656}, {"note": 69, "velocity": 80, "duration": 75}, {"note": 71, "velocity": 90, "duration": 57}, {"note": 0, "velocity": 0, "duration": 63}, {"note": 71, "velocity": 80, "duration": 86}, {"note": 73, "velocity": 70, "duration": 61}, {"note": 73, "velocity": 74, "duration": 56}, {"note": 0, "velocity": 0, "duration": 64}, {"note": 73, "velocity": 80, "duration": 58}, {"note": 0, "velocity": 0, "duration": 182}, {"note": 71, "velocity": 95, "duration": 118}, {"note": 71, "velocity": 70, "duration": 71}, {"note": 69, "velocity": 93, "duration": 478}, {"note": 0, "velocity": 0, "duration": 482}, {"note": 64, "velocity": 93, "duration": 75}, {"note": 66, "velocity": 85, "duration": 80}, {"note": 69, "velocity": 87, "duration": 65}, {"note": 69, "velocity": 95, "duration": 63}, {"note": 69, "velocity": 85, "duration": 123}, {"note": 0, "velocity": 0, "duration": 117}, {"note": 66, "velocity": 85, "duration": 65}, {"note": 66, "velocity": 72, "duration": 58}, {"note": 0, "velocity": 0, "duration": 62}, {"note": 66, "velocity": 90, "duration": 178}, {"note": 0, "velocity": 0, "duration": 62}, {"note": 64, "velocity": 74, "duration": 718}, {"note": 0, "velocity": 0, "duration": 122}, {"note": 73, "velocity": 85, "duration": 94}, {"note": 76, "velocity": 80, "duration": 65}, {"note": 76, "velocity": 102, "duration": 56}, {"note": 0, "velocity": 0, "duration": 64}, {"note": 76, "velocity": 102, "duration": 156}, {"note": 0, "velocity": 0, "duration": 84}, {"note": 76, "velocity": 72, "duration": 65}, {"note": 76, "velocity": 102, "duration": 59}, {"note": 0, "velocity": 0, "duration": 61}, {"note": 78, "velocity": 102, "duration": 60}, {"note": 76, "velocity": 93, "duration": 178}, {"note": 0, "velocity": 0, "duration": 62}, {"note": 73, "velocity": 93, "duration": 291}, {"note": 0, "velocity": 0, "duration": 309}, {"note": 64, "velocity": 87, "duration": 74}, {"note": 66, "velocity": 74, "duration": 71}, {"note": 69, "velocity": 87, "duration": 60}, {"note": 69, "velocity": 87, "duration": 61}, {"note": 69, "velocity": 102, "duration": 163}, {"note": 0, "velocity": 0, "duration": 77}, {"note": 66, "velocity": 83, "duration": 50}, {"note": 0, "velocity": 0, "duration": 70}, {"note": 73, "velocity": 93, "duration": 75}, {"note": 71, "velocity": 87, "duration": 682}, {"note": 0, "velocity": 0, "duration": 158}, {"note": 69, "velocity": 85, "duration": 84}, {"note": 71, "velocity": 87, "duration": 76}, {"note": 71, "velocity": 74, "duration": 72}, {"note": 73, "velocity": 80, "duration": 61}, {"note": 73, "velocity": 80, "duration": 56}, {"note": 0, "velocity": 0, "duration": 64}, {"note": 73, "velocity": 93, "duration": 149}, {"note": 0, "velocity": 0, "duration": 91}, {"note": 71, "velocity": 74, "duration": 60}, {"note": 71, "velocity": 95, "duration": 70}, {"note": 69, "velocity": 87, "duration": 598}, {"note": 0, "velocity": 0, "duration": 242}, {"note": 66, "velocity": 69, "duration": 59}, {"note": 0, "velocity": 0, "duration": 61}, {"note": 64, "velocity": 102, "duration": 58}, {"note": 0, "velocity": 0, "duration": 62}, {"note": 66, "velocity": 87, "duration": 65}, {"note": 69, "velocity": 87, "duration": 58}, {"note": 0, "velocity": 0, "duration": 62}, {"note": 69, "velocity": 80, "duration": 61}, {"note": 69, "velocity": 93, "duration": 145}, {"note": 0, "velocity": 0, "duration": 95}, {"note": 66, "velocity": 87, "duration": 55}, {"note": 0, "velocity": 0, "duration": 65}, {"note": 66, "velocity": 74, "duration": 100}, {"note": 64, "velocity": 93, "duration": 561}, {"note": 0, "velocity": 0, "duration": 519}, {"note": 73, "velocity": 83, "duration": 75}, {"note": 76, "velocity": 87, "duration": 54}, {"note": 0, "velocity": 0, "duration": 66}, {"note": 76, "velocity": 93, "duration": 52}, {"note": 0, "velocity": 0, "duration": 68}, {"note": 76, "velocity": 93, "duration": 59}, {"note": 0, "velocity": 0, "duration": 61}, {"note": 76, "velocity": 93, "duration": 58}, {"note": 0, "velocity": 0, "duration": 62}, {"note": 76, "velocity": 85, "duration": 46}, {"note": 0, "velocity": 0, "duration": 74}, {"note": 76, "velocity": 87, "duration": 76}, {"note": 78, "velocity": 93, "duration": 71}, {"note": 76, "velocity": 87, "duration": 57}, {"note": 0, "velocity": 0, "duration": 63}, {"note": 73, "velocity": 85, "duration": 409}, {"note": 0, "velocity": 0, "duration": 191}, {"note": 66, "velocity": 87, "duration": 63}, {"note": 64, "velocity": 80, "duration": 64}, {"note": 66, "velocity": 80, "duration": 69}, {"note": 69, "velocity": 87, "duration": 53}, {"note": 0, "velocity": 0, "duration": 67}, {"note": 69, "velocity": 87, "duration": 62}, {"note": 69, "velocity": 95, "duration": 162}, {"note": 0, "velocity": 0, "duration": 78}, {"note": 66, "velocity": 74, "duration": 69}, {"note": 66, "velocity": 69, "duration": 74}, {"note": 71, "velocity": 90, "duration": 2038}, {"note": 0, "velocity": 0, "duration": 242}, {"note": 78, "velocity": 87, "duration": 85}, {"note": 76, "velocity": 93, "duration": 58}, {"note": 0, "velocity": 0, "duration": 62}, {"note": 78, "velocity": 90, "duration": 160}, {"note": 0, "velocity": 0, "duration": 80}, {"note": 78, "velocity": 87, "duration": 84}, {"note": 76, "velocity": 90, "duration": 416}, {"note": 0, "velocity": 0, "duration": 64}, {"note": 64, "velocity": 93, "duration": 80}, {"note": 76, "velocity": 95, "duration": 126}, {"note": 0, "velocity": 0, "duration": 114}, {"note": 73, "velocity": 87, "duration": 73}, {"note": 71, "velocity": 87, "duration": 206}, {"note": 69, "velocity": 87, "duration": 718}, {"note": 0, "velocity": 0, "duration": 1322}, {"note": 78, "velocity": 83, "duration": 74}, {"note": 76, "velocity": 74, "duration": 66}, {"note": 78, "velocity": 95, "duration": 156}, {"note": 0, "velocity": 0, "duration": 84}, {"note": 78, "velocity": 83, "duration": 84}, {"note": 76, "velocity": 87, "duration": 59}, {"note": 0, "velocity": 0, "duration": 61}, {"note": 78, "velocity": 93, "duration": 381}, {"note": 0, "velocity": 0, "duration": 219}, {"note": 76, "velocity": 102, "duration": 168}, {"note": 0, "velocity": 0, "duration": 72}, {"note": 73, "velocity": 69, "duration": 72}, {"note": 76, "velocity": 87, "duration": 153}, {"note": 0, "velocity": 0, "duration": 87}, {"note": 73, "velocity": 87, "duration": 923}, {"note": 0, "velocity": 0, "duration": 877}, {"note": 64, "velocity": 80, "duration": 55}, {"note": 0, "velocity": 0, "duration": 65}, {"note": 73, "velocity": 95, "duration": 44}, {"note": 0, "velocity": 0, "duration": 76}, {"note": 73, "velocity": 90, "duration": 57}, {"note": 0, "velocity": 0, "duration": 63}, {"note": 74, "velocity": 74, "duration": 84}, {"note": 74, "velocity": 93, "duration": 282}, {"note": 0, "velocity": 0, "duration": 558}, {"note": 78, "velocity": 93, "duration": 153}, {"note": 0, "velocity": 0, "duration": 87}, {"note": 76, "velocity": 93, "duration": 53}, {"note": 0, "velocity": 0, "duration": 67}, {"note": 73, "velocity": 80, "duration": 49}, {"note": 0, "velocity": 0, "duration": 71}, {"note": 76, "velocity": 93, "duration": 529}, {"note": 0, "velocity": 0, "duration": 191}, {"note": 73, "velocity": 80, "duration": 675}, {"note": 0, "velocity": 0, "duration": 285}, {"note": 66, "velocity": 74, "duration": 68}, {"note": 69, "velocity": 87, "duration": 53}, {"note": 0, "velocity": 0, "duration": 67}, {"note": 73, "velocity": 83, "duration": 189}, {"note": 71, "velocity": 80, "duration": 621}, {"note": 0, "velocity": 0, "duration": 579}, {"note": 66, "velocity": 80, "duration": 80}, {"note": 69, "velocity": 87, "duration": 285}, {"note": 0, "velocity": 0, "duration": 75}, {"note": 69, "velocity": 87, "duration": 1034}, {"note": 0, "velocity": 0, "duration": 14566}, {"note": 78, "velocity": 87, "duration": 85}, {"note": 76, "velocity": 93, "duration": 58}, {"note": 0, "velocity": 0, "duration": 62}, {"note": 78, "velocity": 90, "duration": 160}, {"note": 0, "velocity": 0, "duration": 80}, {"note": 78, "velocity": 87, "duration": 84}, {"note": 76, "velocity": 90, "duration": 416}, {"note": 0, "velocity": 0, "duration": 64}, {"note": 64, "velocity": 93, "duration": 80}, {"note": 76, "velocity": 95, "duration": 126}, {"note": 0, "velocity": 0, "duration": 114}, {"note": 73, "velocity": 87, "duration": 73}, {"note": 71, "velocity": 87, "duration": 206}, {"note": 69, "velocity": 87, "duration": 718}, {"note": 0, "velocity": 0, "duration": 1322}, {"note": 78, "velocity": 83, "duration": 74}, {"note": 76, "velocity": 74, "duration": 66}, {"note": 78, "velocity": 95, "duration": 156}, {"note": 0, "velocity": 0, "duration": 84}, {"note": 78, "velocity": 83, "duration": 84}, {"note": 76, "velocity": 87, "duration": 59}, {"note": 0, "velocity": 0, "duration": 61}, {"note": 78, "velocity": 93, "duration": 381}, {"note": 0, "velocity": 0, "duration": 219}, {"note": 76, "velocity": 102, "duration": 168}, {"note": 0, "velocity": 0, "duration": 72}, {"note": 73, "velocity": 69, "duration": 72}, {"note": 76, "velocity": 87, "duration": 153}, {"note": 0, "velocity": 0, "duration": 87}, {"note": 73, "velocity": 87, "duration": 923}, {"note": 0, "velocity": 0, "duration": 877}, {"note": 64, "velocity": 80, "duration": 55}, {"note": 0, "velocity": 0, "duration": 65}, {"note": 73, "velocity": 95, "duration": 44}, {"note": 0, "velocity": 0, "duration": 76}, {"note": 73, "velocity": 90, "duration": 57}, {"note": 0, "velocity": 0, "duration": 63}, {"note": 74, "velocity": 74, "duration": 84}, {"note": 74, "velocity": 93, "duration": 282}, {"note": 0, "velocity": 0, "duration": 558}, {"note": 78, "velocity": 93, "duration": 153}, {"note": 0, "velocity": 0, "duration": 87}, {"note": 76, "velocity": 93, "duration": 53}, {"note": 0, "velocity": 0, "duration": 67}, {"note": 73, "velocity": 80, "duration": 49}, {"note": 0, "velocity": 0, "duration": 71}, {"note": 76, "velocity": 93, "duration": 529}, {"note": 0, "velocity": 0, "duration": 191}, {"note": 73, "velocity": 80, "duration": 675}, {"note": 0, "velocity": 0, "duration": 285}, {"note": 66, "velocity": 74, "duration": 68}, {"note": 69, "velocity": 87, "duration": 53}, {"note": 0, "velocity": 0, "duration": 67}, {"note": 73, "velocity": 83, "duration": 189}, {"note": 71, "velocity": 80, "duration": 621}, {"note": 0, "velocity": 0, "duration": 579}, {"note": 66, "velocity": 80, "duration": 80}, {"note": 69, "velocity": 87, "duration": 285}, {"note": 0, "velocity": 0, "duration": 75}, {"note": 69, "velocity": 87, "duration": 1034}, {"note": 0, "velocity": 0, "duration": 1126}, {"note": 78, "velocity": 87, "duration": 85}, {"note": 76, "velocity": 93, "duration": 58}, {"note": 0, "velocity": 0, "duration": 62}, {"note": 78, "velocity": 90, "duration": 160}, {"note": 0, "velocity": 0, "duration": 80}, {"note": 78, "velocity": 87, "duration": 84}, {"note": 76, "velocity": 90, "duration": 416}, {"note": 0, "velocity": 0, "duration": 64}, {"note": 64, "velocity": 93, "duration": 80}, {"note": 76, "velocity": 95, "duration": 126}, {"note": 0, "velocity": 0, "duration": 114}, {"note": 73, "velocity": 87, "duration": 73}, {"note": 71, "velocity": 87, "duration": 206}, {"note": 69, "velocity": 87, "duration": 718}, {"note": 0, "velocity": 0, "duration": 1322}, {"note": 78, "velocity": 83, "duration": 74}, {"note": 76, "velocity": 74, "duration": 66}, {"note": 78, "velocity": 95, "duration": 156}, {"note": 0, "velocity": 0, "duration": 84}, {"note": 78, "velocity": 83, "duration": 84}, {"note": 76, "velocity": 87, "duration": 59}, {"note": 0, "velocity": 0, "duration": 61}, {"note": 78, "velocity": 93, "duration": 381}, {"note": 0, "velocity": 0, "duration": 219}, {"note": 76, "velocity": 102, "duration": 168}, {"note": 0, "velocity": 0, "duration": 72}, {"note": 73, "velocity": 69, "duration": 72}, {"note": 76, "velocity": 87, "duration": 153}, {"note": 0, "velocity": 0, "duration": 87}, {"note": 73, "velocity": 87, "duration": 923}, {"note": 0, "velocity": 0, "duration": 877}, {"note": 64, "velocity": 80, "duration": 55}, {"note": 0, "velocity": 0, "duration": 65}, {"note": 73, "velocity": 95, "duration": 44}, {"note": 0, "velocity": 0, "duration": 76}, {"note": 73, "velocity": 90, "duration": 57}, {"note": 0, "velocity": 0, "duration": 63}, {"note": 74, "velocity": 74, "duration": 84}, {"note": 74, "velocity": 93, "duration": 282}, {"note": 0, "velocity": 0, "duration": 558}, {"note": 78, "velocity": 93, "duration": 153}, {"note": 0, "velocity": 0, "duration": 87}, {"note": 76, "velocity": 93, "duration": 53}, {"note": 0, "velocity": 0, "duration": 67}, {"note": 73, "velocity": 80, "duration": 49}, {"note": 0, "velocity": 0, "duration": 71}, {"note": 76, "velocity": 93, "duration": 529}, {"note": 0, "velocity": 0, "duration": 191}, {"note": 73, "velocity": 80, "duration": 675}, {"note": 0, "velocity": 0, "duration": 285}, {"note": 66, "velocity": 74, "duration": 68}, {"note": 69, "velocity": 87, "duration": 53}, {"note": 0, "velocity": 0, "duration": 67}, {"note": 73, "velocity": 83, "duration": 189}, {"note": 71, "velocity": 80, "duration": 621}, {"note": 0, "velocity": 0, "duration": 579}, {"note": 66, "velocity": 80, "duration": 80}, {"note": 69, "velocity": 87, "duration": 285}, {"note": 0, "velocity": 0, "duration": 75}, {"note": 69, "velocity": 87, "duration": 1034}, {"note": 0, "velocity": 0, "duration": 1126}, {"note": 74, "velocity": 83, "duration": 116}, {"note": 73, "velocity": 80, "duration": 82}, {"note": 74, "velocity": 80, "duration": 81}, {"note": 74, "velocity": 87, "duration": 693}, {"note": 0, "velocity": 0, "duration": 147}, {"note": 78, "velocity": 95, "duration": 188}, {"note": 76, "velocity": 87, "duration": 71}, {"note": 73, "velocity": 80, "duration": 61}, {"note": 76, "velocity": 93, "duration": 455}, {"note": 0, "velocity": 0, "duration": 265}, {"note": 73, "velocity": 87, "duration": 753}, {"note": 0, "velocity": 0, "duration": 207}, {"note": 66, "velocity": 69, "duration": 80}, {"note": 69, "velocity": 102, "duration": 74}, {"note": 73, "velocity": 93, "duration": 196}, {"note": 71, "velocity": 87, "duration": 1265}, {"note": 0, "velocity": 0, "duration": 895}, {"note": 66, "velocity": 83, "duration": 103}, {"note": 69, "velocity": 80, "duration": 254}, {"note": 0, "velocity": 0, "duration": 106}, {"note": 69, "velocity": 83, "duration": 1519}]]