[[{"note": 60, "velocity": 112, "duration": 353}, {"note": 58, "velocity": 93, "duration": 114}, {"note": 56, "velocity": 107, "duration": 610}, {"note": 0, "velocity": 0, "duration": 110}, {"note": 56, "velocity": 107, "duration": 208}, {"note": 56, "velocity": 117, "duration": 236}, {"note": 60, "velocity": 100, "duration": 207}, {"note": 63, "velocity": 117, "duration": 212}, {"note": 67, "velocity": 96, "duration": 253}, {"note": 63, "velocity": 107, "duration": 698}, {"note": 60, "velocity": 93, "duration": 180}, {"note": 63, "velocity": 127, "duration": 272}, {"note": 0, "velocity": 0, "duration": 448}, {"note": 63, "velocity": 102, "duration": 51}, {"note": 0, "velocity": 0, "duration": 69}, {"note": 63, "velocity": 93, "duration": 75}, {"note": 68, "velocity": 93, "duration": 102}, {"note": 65, "velocity": 99, "duration": 420}, {"note": 0, "velocity": 0, "duration": 300}, {"note": 63, "velocity": 102, "duration": 56}, {"note": 0, "velocity": 0, "duration": 64}, {"note": 63, "velocity": 107, "duration": 149}, {"note": 0, "velocity": 0, "duration": 91}, {"note": 60, "velocity": 96, "duration": 141}, {"note": 0, "velocity": 0, "duration": 99}, {"note": 58, "velocity": 102, "duration": 142}, {"note": 0, "velocity": 0, "duration": 98}, {"note": 56, "velocity": 95, "duration": 149}, {"note": 0, "velocity": 0, "duration": 91}, {"note": 58, "velocity": 102, "duration": 830}, {"note": 53, "velocity": 96, "duration": 158}, {"note": 0, "velocity": 0, "duration": 82}, {"note": 58, "velocity": 99, "duration": 552}, {"note": 0, "velocity": 0, "duration": 168}, {"note": 56, "velocity": 100, "duration": 85}, {"note": 65, "velocity": 89, "duration": 145}, {"note": 63, "velocity": 117, "duration": 170}, {"note": 0, "velocity": 0, "duration": 70}, {"note": 60, "velocity": 96, "duration": 186}, {"note": 58, "velocity": 96, "duration": 170}, {"note": 0, "velocity": 0, "duration": 70}, {"note": 56, "velocity": 93, "duration": 426}, {"note": 51, "velocity": 97, "duration": 80}, {"note": 53, "velocity": 88, "duration": 116}, {"note": 56, "velocity": 99, "duration": 138}, {"note": 0, "velocity": 0, "duration": 102}, {"note": 65, "velocity": 93, "duration": 201}, {"note": 63, "velocity": 102, "duration": 380}, {"note": 0, "velocity": 0, "duration": 100}, {"note": 58, "velocity": 99, "duration": 399}, {"note": 0, "velocity": 0, "duration": 81}, {"note": 60, "velocity": 95, "duration": 543}, {"note": 0, "velocity": 0, "duration": 177}, {"note": 58, "velocity": 107, "duration": 83}, {"note": 56, "velocity": 77, "duration": 80}, {"note": 58, "velocity": 96, "duration": 144}, {"note": 0, "velocity": 0, "duration": 96}, {"note": 60, "velocity": 96, "duration": 271}, {"note": 0, "velocity": 0, "duration": 209}, {"note": 58, "velocity": 117, "duration": 117}, {"note": 56, "velocity": 88, "duration": 99}, {"note": 53, "velocity": 97, "duration": 303}, {"note": 0, "velocity": 0, "duration": 417}, {"note": 58, "velocity": 100, "duration": 84}, {"note": 56, "velocity": 73, "duration": 88}, {"note": 58, "velocity": 93, "duration": 129}, {"note": 0, "velocity": 0, "duration": 111}, {"note": 60, "velocity": 95, "duration": 239}, {"note": 0, "velocity": 0, "duration": 121}, {"note": 58, "velocity": 107, "duration": 169}, {"note": 0, "velocity": 0, "duration": 71}, {"note": 56, "velocity": 107, "duration": 148}, {"note": 0, "velocity": 0, "duration": 92}, {"note": 51, "velocity": 92, "duration": 697}, {"note": 0, "velocity": 0, "duration": 383}, {"note": 63, "velocity": 112, "duration": 135}, {"note": 0, "velocity": 0, "duration": 105}, {"note": 56, "velocity": 100, "duration": 145}, {"note": 0, "velocity": 0, "duration": 95}, {"note": 56, "velocity": 100, "duration": 111}, {"note": 55, "velocity": 66, "duration": 91}, {"note": 56, "velocity": 93, "duration": 244}, {"note": 60, "velocity": 97, "duration": 229}, {"note": 63, "velocity": 117, "duration": 180}, {"note": 67, "velocity": 102, "duration": 188}, {"note": 63, "velocity": 100, "duration": 693}, {"note": 60, "velocity": 93, "duration": 180}, {"note": 63, "velocity": 127, "duration": 272}, {"note": 0, "velocity": 0, "duration": 448}, {"note": 63, "velocity": 102, "duration": 51}, {"note": 0, "velocity": 0, "duration": 69}, {"note": 63, "velocity": 93, "duration": 75}, {"note": 68, "velocity": 93, "duration": 102}, {"note": 65, "velocity": 99, "duration": 242}, {"note": 0, "velocity": 0, "duration": 118}, {"note": 65, "velocity": 100, "duration": 112}, {"note": 0, "velocity": 0, "duration": 128}, {"note": 63, "velocity": 112, "duration": 75}, {"note": 63, "velocity": 102, "duration": 56}, {"note": 0, "velocity": 0, "duration": 64}, {"note": 63, "velocity": 107, "duration": 149}, {"note": 0, "velocity": 0, "duration": 91}, {"note": 60, "velocity": 96, "duration": 141}, {"note": 0, "velocity": 0, "duration": 339}, {"note": 58, "velocity": 102, "duration": 142}, {"note": 56, "velocity": 95, "duration": 149}, {"note": 0, "velocity": 0, "duration": 91}, {"note": 58, "velocity": 102, "duration": 632}, {"note": 53, "velocity": 96, "duration": 158}, {"note": 0, "velocity": 0, "duration": 82}, {"note": 58, "velocity": 99, "duration": 552}, {"note": 0, "velocity": 0, "duration": 168}, {"note": 56, "velocity": 100, "duration": 85}, {"note": 65, "velocity": 89, "duration": 145}, {"note": 63, "velocity": 117, "duration": 170}, {"note": 0, "velocity": 0, "duration": 70}, {"note": 60, "velocity": 96, "duration": 186}, {"note": 58, "velocity": 96, "duration": 170}, {"note": 0, "velocity": 0, "duration": 70}, {"note": 56, "velocity": 93, "duration": 426}, {"note": 51, "velocity": 97, "duration": 80}, {"note": 53, "velocity": 88, "duration": 116}, {"note": 56, "velocity": 99, "duration": 138}, {"note": 0, "velocity": 0, "duration": 102}, {"note": 65, "velocity": 93, "duration": 201}, {"note": 63, "velocity": 102, "duration": 380}, {"note": 0, "velocity": 0, "duration": 100}, {"note": 67, "velocity": 107, "duration": 393}, {"note": 0, "velocity": 0, "duration": 87}, {"note": 68, "velocity": 127, "duration": 412}, {"note": 0, "velocity": 0, "duration": 188}, {"note": 63, "velocity": 92, "duration": 54}, {"note": 0, "velocity": 0, "duration": 66}, {"note": 63, "velocity": 79, "duration": 51}, {"note": 0, "velocity": 0, "duration": 69}, {"note": 63, "velocity": 95, "duration": 71}, {"note": 65, "velocity": 95, "duration": 217}, {"note": 63, "velocity": 97, "duration": 103}, {"note": 0, "velocity": 0, "duration": 137}, {"note": 63, "velocity": 117, "duration": 168}, {"note": 0, "velocity": 0, "duration": 72}, {"note": 61, "velocity": 117, "duration": 79}, {"note": 60, "velocity": 88, "duration": 136}, {"note": 58, "velocity": 96, "duration": 184}, {"note": 56, "velocity": 100, "duration": 118}, {"note": 0, "velocity": 0, "duration": 242}, {"note": 53, "velocity": 76, "duration": 117}, {"note": 56, "velocity": 97, "duration": 145}, {"note": 0, "velocity": 0, "duration": 95}, {"note": 56, "velocity": 117, "duration": 982}, {"note": 0, "velocity": 0, "duration": 458}, {"note": 68, "velocity": 127, "duration": 167}, {"note": 0, "velocity": 0, "duration": 73}, {"note": 67, "velocity": 83, "duration": 128}, {"note": 65, "velocity": 89, "duration": 136}, {"note": 60, "velocity": 122, "duration": 183}, {"note": 58, "velocity": 97, "duration": 181}, {"note": 60, "velocity": 107, "duration": 189}, {"note": 63, "velocity": 112, "duration": 144}, {"note": 0, "velocity": 0, "duration": 96}, {"note": 63, "velocity": 127, "duration": 122}, {"note": 0, "velocity": 0, "duration": 238}, {"note": 56, "velocity": 100, "duration": 68}, {"note": 56, "velocity": 127, "duration": 85}, {"note": 68, "velocity": 117, "duration": 122}, {"note": 0, "velocity": 0, "duration": 118}, {"note": 68, "velocity": 92, "duration": 99}, {"note": 65, "velocity": 100, "duration": 205}, {"note": 65, "velocity": 92, "duration": 104}, {"note": 63, "velocity": 100, "duration": 136}, {"note": 0, "velocity": 0, "duration": 104}, {"note": 65, "velocity": 102, "duration": 144}, {"note": 0, "velocity": 0, "duration": 96}, {"note": 63, "velocity": 107, "duration": 142}, {"note": 60, "velocity": 95, "duration": 322}, {"note": 0, "velocity": 0, "duration": 278}, {"note": 60, "velocity": 90, "duration": 85}, {"note": 65, "velocity": 90, "duration": 61}, {"note": 65, "velocity": 86, "duration": 64}, {"note": 65, "velocity": 96, "duration": 100}, {"note": 0, "velocity": 0, "duration": 140}, {"note": 63, "velocity": 97, "duration": 82}, {"note": 65, "velocity": 95, "duration": 165}, {"note": 0, "velocity": 0, "duration": 195}, {"note": 65, "velocity": 99, "duration": 143}, {"note": 63, "velocity": 95, "duration": 84}, {"note": 65, "velocity": 96, "duration": 136}, {"note": 0, "velocity": 0, "duration": 104}, {"note": 63, "velocity": 107, "duration": 131}, {"note": 60, "velocity": 83, "duration": 113}, {"note": 65, "velocity": 92, "duration": 167}, {"note": 0, "velocity": 0, "duration": 73}, {"note": 65, "velocity": 112, "duration": 98}, {"note": 63, "velocity": 112, "duration": 53}, {"note": 0, "velocity": 0, "duration": 67}, {"note": 65, "velocity": 99, "duration": 94}, {"note": 63, "velocity": 99, "duration": 55}, {"note": 0, "velocity": 0, "duration": 65}, {"note": 63, "velocity": 96, "duration": 56}, {"note": 0, "velocity": 0, "duration": 64}, {"note": 63, "velocity": 102, "duration": 51}, {"note": 0, "velocity": 0, "duration": 69}, {"note": 63, "velocity": 112, "duration": 131}, {"note": 0, "velocity": 0, "duration": 109}, {"note": 60, "velocity": 112, "duration": 168}, {"note": 0, "velocity": 0, "duration": 72}, {"note": 58, "velocity": 100, "duration": 375}, {"note": 0, "velocity": 0, "duration": 105}, {"note": 68, "velocity": 127, "duration": 167}, {"note": 0, "velocity": 0, "duration": 73}, {"note": 67, "velocity": 83, "duration": 128}, {"note": 65, "velocity": 89, "duration": 136}, {"note": 60, "velocity": 122, "duration": 183}, {"note": 58, "velocity": 97, "duration": 181}, {"note": 60, "velocity": 107, "duration": 189}, {"note": 63, "velocity": 112, "duration": 144}, {"note": 0, "velocity": 0, "duration": 96}, {"note": 63, "velocity": 127, "duration": 122}, {"note": 0, "velocity": 0, "duration": 238}, {"note": 56, "velocity": 100, "duration": 68}, {"note": 56, "velocity": 127, "duration": 85}, {"note": 68, "velocity": 117, "duration": 122}, {"note": 0, "velocity": 0, "duration": 118}, {"note": 68, "velocity": 92, "duration": 99}, {"note": 65, "velocity": 100, "duration": 205}, {"note": 65, "velocity": 122, "duration": 49}, {"note": 0, "velocity": 0, "duration": 71}, {"note": 65, "velocity": 95, "duration": 47}, {"note": 0, "velocity": 0, "duration": 73}, {"note": 65, "velocity": 100, "duration": 68}, {"note": 63, "velocity": 127, "duration": 116}, {"note": 0, "velocity": 0, "duration": 124}, {"note": 60, "velocity": 97, "duration": 83}, {"note": 65, "velocity": 117, "duration": 155}, {"note": 0, "velocity": 0, "duration": 565}, {"note": 60, "velocity": 107, "duration": 87}, {"note": 58, "velocity": 99, "duration": 60}, {"note": 60, "velocity": 97, "duration": 127}, {"note": 0, "velocity": 0, "duration": 113}, {"note": 65, "velocity": 107, "duration": 62}, {"note": 65, "velocity": 122, "duration": 191}, {"note": 0, "velocity": 0, "duration": 169}, {"note": 63, "velocity": 127, "duration": 54}, {"note": 0, "velocity": 0, "duration": 66}, {"note": 63, "velocity": 112, "duration": 91}, {"note": 65, "velocity": 102, "duration": 97}, {"note": 63, "velocity": 117, "duration": 61}, {"note": 63, "velocity": 97, "duration": 61}, {"note": 63, "velocity": 102, "duration": 52}, {"note": 0, "velocity": 0, "duration": 68}, {"note": 63, "velocity": 122, "duration": 134}, {"note": 60, "velocity": 107, "duration": 136}, {"note": 0, "velocity": 0, "duration": 104}, {"note": 58, "velocity": 112, "duration": 145}, {"note": 0, "velocity": 0, "duration": 95}, {"note": 56, "velocity": 107, "duration": 722}, {"note": 0, "velocity": 0, "duration": 8278}, {"note": 60, "velocity": 112, "duration": 353}, {"note": 58, "velocity": 93, "duration": 114}, {"note": 56, "velocity": 107, "duration": 610}, {"note": 0, "velocity": 0, "duration": 110}, {"note": 56, "velocity": 107, "duration": 208}, {"note": 56, "velocity": 117, "duration": 236}, {"note": 60, "velocity": 100, "duration": 207}, {"note": 63, "velocity": 117, "duration": 212}, {"note": 67, "velocity": 96, "duration": 253}, {"note": 63, "velocity": 107, "duration": 698}, {"note": 60, "velocity": 93, "duration": 180}, {"note": 63, "velocity": 127, "duration": 272}, {"note": 0, "velocity": 0, "duration": 448}, {"note": 63, "velocity": 102, "duration": 51}, {"note": 0, "velocity": 0, "duration": 69}, {"note": 63, "velocity": 93, "duration": 75}, {"note": 68, "velocity": 93, "duration": 102}, {"note": 65, "velocity": 99, "duration": 420}, {"note": 0, "velocity": 0, "duration": 300}, {"note": 63, "velocity": 102, "duration": 56}, {"note": 0, "velocity": 0, "duration": 64}, {"note": 63, "velocity": 107, "duration": 149}, {"note": 0, "velocity": 0, "duration": 91}, {"note": 60, "velocity": 96, "duration": 141}, {"note": 0, "velocity": 0, "duration": 99}, {"note": 58, "velocity": 102, "duration": 142}, {"note": 0, "velocity": 0, "duration": 98}, {"note": 56, "velocity": 95, "duration": 149}, {"note": 0, "velocity": 0, "duration": 91}, {"note": 58, "velocity": 102, "duration": 830}, {"note": 53, "velocity": 96, "duration": 158}, {"note": 0, "velocity": 0, "duration": 82}, {"note": 58, "velocity": 99, "duration": 552}, {"note": 0, "velocity": 0, "duration": 168}, {"note": 56, "velocity": 100, "duration": 85}, {"note": 65, "velocity": 89, "duration": 145}, {"note": 63, "velocity": 117, "duration": 170}, {"note": 0, "velocity": 0, "duration": 70}, {"note": 60, "velocity": 96, "duration": 186}, {"note": 58, "velocity": 96, "duration": 170}, {"note": 0, "velocity": 0, "duration": 70}, {"note": 56, "velocity": 93, "duration": 426}, {"note": 51, "velocity": 97, "duration": 80}, {"note": 53, "velocity": 88, "duration": 116}, {"note": 56, "velocity": 99, "duration": 138}, {"note": 0, "velocity": 0, "duration": 102}, {"note": 65, "velocity": 93, "duration": 201}, {"note": 63, "velocity": 102, "duration": 380}, {"note": 0, "velocity": 0, "duration": 100}, {"note": 58, "velocity": 99, "duration": 399}, {"note": 0, "velocity": 0, "duration": 81}, {"note": 60, "velocity": 95, "duration": 543}, {"note": 0, "velocity": 0, "duration": 177}, {"note": 58, "velocity": 107, "duration": 83}, {"note": 56, "velocity": 77, "duration": 80}, {"note": 58, "velocity": 96, "duration": 144}, {"note": 0, "velocity": 0, "duration": 96}, {"note": 60, "velocity": 96, "duration": 271}, {"note": 0, "velocity": 0, "duration": 209}, {"note": 58, "velocity": 117, "duration": 117}, {"note": 56, "velocity": 88, "duration": 99}, {"note": 53, "velocity": 97, "duration": 303}, {"note": 0, "velocity": 0, "duration": 417}, {"note": 58, "velocity": 100, "duration": 84}, {"note": 56, "velocity": 73, "duration": 88}, {"note": 58, "velocity": 93, "duration": 129}, {"note": 0, "velocity": 0, "duration": 111}, {"note": 60, "velocity": 95, "duration": 239}, {"note": 0, "velocity": 0, "duration": 121}, {"note": 58, "velocity": 107, "duration": 169}, {"note": 0, "velocity": 0, "duration": 71}, {"note": 56, "velocity": 107, "duration": 148}, {"note": 0, "velocity": 0, "duration": 92}, {"note": 51, "velocity": 92, "duration": 697}, {"note": 0, "velocity": 0, "duration": 383}, {"note": 63, "velocity": 112, "duration": 135}, {"note": 0, "velocity": 0, "duration": 105}, {"note": 56, "velocity": 100, "duration": 145}, {"note": 0, "velocity": 0, "duration": 95}, {"note": 56, "velocity": 100, "duration": 111}, {"note": 55, "velocity": 66, "duration": 91}, {"note": 56, "velocity": 93, "duration": 244}, {"note": 60, "velocity": 97, "duration": 229}, {"note": 63, "velocity": 117, "duration": 180}, {"note": 67, "velocity": 102, "duration": 188}, {"note": 63, "velocity": 100, "duration": 693}, {"note": 60, "velocity": 93, "duration": 180}, {"note": 63, "velocity": 127, "duration": 272}, {"note": 0, "velocity": 0, "duration": 448}, {"note": 63, "velocity": 102, "duration": 51}, {"note": 0, "velocity": 0, "duration": 69}, {"note": 63, "velocity": 93, "duration": 75}, {"note": 68, "velocity": 93, "duration": 102}, {"note": 65, "velocity": 99, "duration": 242}, {"note": 0, "velocity": 0, "duration": 118}, {"note": 65, "velocity": 100, "duration": 112}, {"note": 0, "velocity": 0, "duration": 128}, {"note": 63, "velocity": 112, "duration": 75}, {"note": 63, "velocity": 102, "duration": 56}, {"note": 0, "velocity": 0, "duration": 64}, {"note": 63, "velocity": 107, "duration": 149}, {"note": 0, "velocity": 0, "duration": 91}, {"note": 60, "velocity": 96, "duration": 141}, {"note": 0, "velocity": 0, "duration": 339}, {"note": 58, "velocity": 102, "duration": 142}, {"note": 56, "velocity": 95, "duration": 149}, {"note": 0, "velocity": 0, "duration": 91}, {"note": 58, "velocity": 102, "duration": 632}, {"note": 53, "velocity": 96, "duration": 158}, {"note": 0, "velocity": 0, "duration": 82}, {"note": 58, "velocity": 99, "duration": 552}, {"note": 0, "velocity": 0, "duration": 168}, {"note": 56, "velocity": 100, "duration": 85}, {"note": 65, "velocity": 89, "duration": 145}, {"note": 63, "velocity": 117, "duration": 170}, {"note": 0, "velocity": 0, "duration": 70}, {"note": 60, "velocity": 96, "duration": 186}, {"note": 58, "velocity": 96, "duration": 170}, {"note": 0, "velocity": 0, "duration": 70}, {"note": 56, "velocity": 93, "duration": 426}, {"note": 51, "velocity": 97, "duration": 80}, {"note": 53, "velocity": 88, "duration": 116}, {"note": 56, "velocity": 99, "duration": 138}, {"note": 0, "velocity": 0, "duration": 102}, {"note": 65, "velocity": 93, "duration": 201}, {"note": 63, "velocity": 102, "duration": 380}, {"note": 0, "velocity": 0, "duration": 100}, {"note": 67, "velocity": 107, "duration": 393}, {"note": 0, "velocity": 0, "duration": 87}, {"note": 68, "velocity": 127, "duration": 412}, {"note": 0, "velocity": 0, "duration": 188}, {"note": 63, "velocity": 92, "duration": 54}, {"note": 0, "velocity": 0, "duration": 66}, {"note": 63, "velocity": 79, "duration": 51}, {"note": 0, "velocity": 0, "duration": 69}, {"note": 63, "velocity": 95, "duration": 71}, {"note": 65, "velocity": 95, "duration": 217}, {"note": 63, "velocity": 97, "duration": 103}, {"note": 0, "velocity": 0, "duration": 137}, {"note": 63, "velocity": 117, "duration": 168}, {"note": 0, "velocity": 0, "duration": 72}, {"note": 61, "velocity": 117, "duration": 79}, {"note": 60, "velocity": 88, "duration": 136}, {"note": 58, "velocity": 96, "duration": 184}, {"note": 56, "velocity": 100, "duration": 118}, {"note": 0, "velocity": 0, "duration": 242}, {"note": 53, "velocity": 76, "duration": 117}, {"note": 56, "velocity": 97, "duration": 145}, {"note": 0, "velocity": 0, "duration": 95}, {"note": 56, "velocity": 117, "duration": 982}, {"note": 0, "velocity": 0, "duration": 458}, {"note": 68, "velocity": 127, "duration": 167}, {"note": 0, "velocity": 0, "duration": 73}, {"note": 67, "velocity": 83, "duration": 128}, {"note": 65, "velocity": 89, "duration": 136}, {"note": 60, "velocity": 122, "duration": 183}, {"note": 58, "velocity": 97, "duration": 181}, {"note": 60, "velocity": 107, "duration": 189}, {"note": 63, "velocity": 112, "duration": 144}, {"note": 0, "velocity": 0, "duration": 96}, {"note": 63, "velocity": 127, "duration": 122}, {"note": 0, "velocity": 0, "duration": 238}, {"note": 56, "velocity": 100, "duration": 68}, {"note": 56, "velocity": 127, "duration": 85}, {"note": 68, "velocity": 117, "duration": 122}, {"note": 0, "velocity": 0, "duration": 118}, {"note": 68, "velocity": 92, "duration": 99}, {"note": 65, "velocity": 100, "duration": 205}, {"note": 65, "velocity": 92, "duration": 104}, {"note": 63, "velocity": 100, "duration": 136}, {"note": 0, "velocity": 0, "duration": 104}, {"note": 65, "velocity": 102, "duration": 144}, {"note": 0, "velocity": 0, "duration": 96}, {"note": 63, "velocity": 107, "duration": 142}, {"note": 60, "velocity": 95, "duration": 322}, {"note": 0, "velocity": 0, "duration": 278}, {"note": 60, "velocity": 90, "duration": 85}, {"note": 65, "velocity": 90, "duration": 61}, {"note": 65, "velocity": 86, "duration": 64}, {"note": 65, "velocity": 96, "duration": 100}, {"note": 0, "velocity": 0, "duration": 140}, {"note": 63, "velocity": 97, "duration": 82}, {"note": 65, "velocity": 95, "duration": 165}, {"note": 0, "velocity": 0, "duration": 195}, {"note": 65, "velocity": 99, "duration": 143}, {"note": 63, "velocity": 95, "duration": 84}, {"note": 65, "velocity": 96, "duration": 136}, {"note": 0, "velocity": 0, "duration": 104}, {"note": 63, "velocity": 107, "duration": 131}, {"note": 60, "velocity": 83, "duration": 113}, {"note": 65, "velocity": 92, "duration": 167}, {"note": 0, "velocity": 0, "duration": 73}, {"note": 65, "velocity": 112, "duration": 98}, {"note": 63, "velocity": 112, "duration": 53}, {"note": 0, "velocity": 0, "duration": 67}, {"note": 65, "velocity": 99, "duration": 94}, {"note": 63, "velocity": 99, "duration": 55}, {"note": 0, "velocity": 0, "duration": 65}, {"note": 63, "velocity": 96, "duration": 56}, {"note": 0, "velocity": 0, "duration": 64}, {"note": 63, "velocity": 102, "duration": 51}, {"note": 0, "velocity": 0, "duration": 69}, {"note": 63, "velocity": 112, "duration": 131}, {"note": 0, "velocity": 0, "duration": 109}, {"note": 60, "velocity": 112, "duration": 168}, {"note": 0, "velocity": 0, "duration": 72}, {"note": 58, "velocity": 100, "duration": 375}, {"note": 0, "velocity": 0, "duration": 105}, {"note": 68, "velocity": 127, "duration": 167}, {"note": 0, "velocity": 0, "duration": 73}, {"note": 67, "velocity": 83, "duration": 128}, {"note": 65, "velocity": 89, "duration": 136}, {"note": 60, "velocity": 122, "duration": 183}, {"note": 58, "velocity": 97, "duration": 181}, {"note": 60, "velocity": 107, "duration": 189}, {"note": 63, "velocity": 112, "duration": 144}, {"note": 0, "velocity": 0, "duration": 96}, {"note": 63, "velocity": 127, "duration": 122}, {"note": 0, "velocity": 0, "duration": 238}, {"note": 56, "velocity": 100, "duration": 68}, {"note": 56, "velocity": 127, "duration": 85}, {"note": 68, "velocity": 117, "duration": 122}, {"note": 0, "velocity": 0, "duration": 118}, {"note": 68, "velocity": 92, "duration": 99}, {"note": 65, "velocity": 100, "duration": 205}, {"note": 65, "velocity": 122, "duration": 49}, {"note": 0, "velocity": 0, "duration": 71}, {"note": 65, "velocity": 95, "duration": 47}, {"note": 0, "velocity": 0, "duration": 73}, {"note": 65, "velocity": 100, "duration": 68}, {"note": 63, "velocity": 127, "duration": 116}, {"note": 0, "velocity": 0, "duration": 124}, {"note": 60, "velocity": 97, "duration": 83}, {"note": 65, "velocity": 117, "duration": 155}, {"note": 0, "velocity": 0, "duration": 565}, {"note": 60, "velocity": 107, "duration": 87}, {"note": 58, "velocity": 99, "duration": 60}, {"note": 60, "velocity": 97, "duration": 127}, {"note": 0, "velocity": 0, "duration": 113}, {"note": 65, "velocity": 107, "duration": 62}, {"note": 65, "velocity": 122, "duration": 191}, {"note": 0, "velocity": 0, "duration": 169}, {"note": 63, "velocity": 127, "duration": 54}, {"note": 0, "velocity": 0, "duration": 66}, {"note": 63, "velocity": 112, "duration": 91}, {"note": 65, "velocity": 102, "duration": 97}, {"note": 63, "velocity": 117, "duration": 61}, {"note": 63, "velocity": 97, "duration": 61}, {"note": 63, "velocity": 102, "duration": 52}, {"note": 0, "velocity": 0, "duration": 68}, {"note": 63, "velocity": 122, "duration": 134}, {"note": 60, "velocity": 107, "duration": 136}, {"note": 0, "velocity": 0, "duration": 104}, {"note": 58, "velocity": 112, "duration": 145}, {"note": 0, "velocity": 0, "duration": 95}, {"note": 56, "velocity": 107, "duration": 722}, {"note": 0, "velocity": 0, "duration": 598}, {"note": 68, "velocity": 127, "duration": 167}, {"note": 0, "velocity": 0, "duration": 73}, {"note": 67, "velocity": 83, "duration": 128}, {"note": 65, "velocity": 89, "duration": 136}, {"note": 60, "velocity": 122, "duration": 183}, {"note": 58, "velocity": 97, "duration": 181}, {"note": 60, "velocity": 107, "duration": 189}, {"note": 63, "velocity": 112, "duration": 144}, {"note": 0, "velocity": 0, "duration": 96}, {"note": 63, "velocity": 127, "duration": 122}, {"note": 0, "velocity": 0, "duration": 238}, {"note": 56, "velocity": 100, "duration": 68}, {"note": 56, "velocity": 127, "duration": 85}, {"note": 68, "velocity": 117, "duration": 122}, {"note": 0, "velocity": 0, "duration": 118}, {"note": 68, "velocity": 92, "duration": 99}, {"note": 65, "velocity": 100, "duration": 205}, {"note": 65, "velocity": 92, "duration": 104}, {"note": 63, "velocity": 100, "duration": 136}, {"note": 0, "velocity": 0, "duration": 104}, {"note": 65, "velocity": 102, "duration": 144}, {"note": 0, "velocity": 0, "duration": 96}, {"note": 63, "velocity": 107, "duration": 142}, {"note": 60, "velocity": 95, "duration": 322}, {"note": 0, "velocity": 0, "duration": 278}, {"note": 60, "velocity": 90, "duration": 85}, {"note": 65, "velocity": 90, "duration": 61}, {"note": 65, "velocity": 86, "duration": 64}, {"note": 65, "velocity": 96, "duration": 100}, {"note": 0, "velocity": 0, "duration": 140}, {"note": 63, "velocity": 97, "duration": 82}, {"note": 65, "velocity": 95, "duration": 165}, {"note": 0, "velocity": 0, "duration": 195}, {"note": 65, "velocity": 99, "duration": 143}, {"note": 63, "velocity": 95, "duration": 84}, {"note": 65, "velocity": 96, "duration": 136}, {"note": 0, "velocity": 0, "duration": 104}, {"note": 63, "velocity": 107, "duration": 131}, {"note": 60, "velocity": 83, "duration": 113}, {"note": 65, "velocity": 92, "duration": 167}, {"note": 0, "velocity": 0, "duration": 73}, {"note": 65, "velocity": 112, "duration": 98}, {"note": 63, "velocity": 112, "duration": 53}, {"note": 0, "velocity": 0, "duration": 67}, {"note": 65, "velocity": 99, "duration": 94}, {"note": 63, "velocity": 99, "duration": 55}, {"note": 0, "velocity": 0, "duration": 65}, {"note": 63, "velocity": 96, "duration": 56}, {"note": 0, "velocity": 0, "duration": 64}, {"note": 63, "velocity": 102, "duration": 51}, {"note": 0, "velocity": 0, "duration": 69}, {"note": 63, "velocity": 112, "duration": 131}, {"note": 0, "velocity": 0, "duration": 109}, {"note": 60, "velocity": 112, "duration": 168}, {"note": 0, "velocity": 0, "duration": 72}, {"note": 58, "velocity": 100, "duration": 375}, {"note": 0, "velocity": 0, "duration": 105}, {"note": 68, "velocity": 127, "duration": 167}, {"note": 0, "velocity": 0, "duration": 73}, {"note": 67, "velocity": 83, "duration": 128}, {"note": 65, "velocity": 89, "duration": 136}, {"note": 60, "velocity": 122, "duration": 183}, {"note": 58, "velocity": 97, "duration": 181}, {"note": 60, "velocity": 107, "duration": 189}, {"note": 63, "velocity": 112, "duration": 144}, {"note": 0, "velocity": 0, "duration": 96}, {"note": 63, "velocity": 127, "duration": 122}, {"note": 0, "velocity": 0, "duration": 238}, {"note": 56, "velocity": 100, "duration": 68}, {"note": 56, "velocity": 127, "duration": 85}, {"note": 68, "velocity": 117, "duration": 122}, {"note": 0, "velocity": 0, "duration": 118}, {"note": 68, "velocity": 92, "duration": 99}, {"note": 65, "velocity": 100, "duration": 205}, {"note": 65, "velocity": 122, "duration": 49}, {"note": 0, "velocity": 0, "duration": 71}, {"note": 65, "velocity": 95, "duration": 47}, {"note": 0, "velocity": 0, "duration": 73}, {"note": 65, "velocity": 100, "duration": 68}, {"note": 63, "velocity": 127, "duration": 116}, {"note": 0, "velocity": 0, "duration": 124}, {"note": 60, "velocity": 97, "duration": 83}, {"note": 65, "velocity": 117, "duration": 155}, {"note": 0, "velocity": 0, "duration": 565}, {"note": 60, "velocity": 107, "duration": 87}, {"note": 58, "velocity": 99, "duration": 60}, {"note": 60, "velocity": 97, "duration": 127}, {"note": 0, "velocity": 0, "duration": 113}, {"note": 65, "velocity": 107, "duration": 62}, {"note": 65, "velocity": 122, "duration": 191}, {"note": 0, "velocity": 0, "duration": 169}, {"note": 63, "velocity": 127, "duration": 54}, {"note": 0, "velocity": 0, "duration": 66}, {"note": 63, "velocity": 112, "duration": 91}, {"note": 65, "velocity": 102, "duration": 97}, {"note": 63, "velocity": 117, "duration": 61}, {"note": 63, "velocity": 97, "duration": 61}, {"note": 63, "velocity": 102, "duration": 52}, {"note": 0, "velocity": 0, "duration": 68}, {"note": 63, "velocity": 122, "duration": 134}, {"note": 60, "velocity": 107, "duration": 136}, {"note": 0, "velocity": 0, "duration": 104}, {"note": 58, "velocity": 112, "duration": 145}, {"note": 0, "velocity": 0, "duration": 95}, {"note": 56, "velocity": 107, "duration": 722}, {"note": 0, "velocity": 0, "duration": 838}, {"note": 60, "velocity": 92, "duration": 125}, {"note": 58, "velocity": 74, "duration": 66}, {"note": 60, "velocity": 93, "duration": 271}, {"note": 0, "velocity": 0, "duration": 89}, {"note": 65, "velocity": 99, "duration": 108}, {"note": 65, "velocity": 102, "duration": 708}, {"note": 63, "velocity": 100, "duration": 107}, {"note": 0, "velocity": 0, "duration": 133}, {"note": 63, "velocity": 86, "duration": 104}, {"note": 65, "velocity": 99, "duration": 189}, {"note": 63, "velocity": 107, "duration": 57}, {"note": 0, "velocity": 0, "duration": 63}, {"note": 63, "velocity": 127, "duration": 74}, {"note": 0, "velocity": 0, "duration": 166}, {"note": 63, "velocity": 127, "duration": 840}, {"note": 0, "velocity": 0, "duration": 287}, {"note": 63, "velocity": 102, "duration": 275}, {"note": 0, "velocity": 0, "duration": 100}, {"note": 60, "velocity": 102, "duration": 139}, {"note": 0, "velocity": 0, "duration": 96}, {"note": 58, "velocity": 112, "duration": 159}, {"note": 0, "velocity": 0, "duration": 104}, {"note": 56, "velocity": 112, "duration": 2502}]]