[[{"note": 60, "velocity": 100, "duration": 194}, {"note": 60, "velocity": 81, "duration": 64}, {"note": 60, "velocity": 85, "duration": 54}, {"note": 0, "velocity": 0, "duration": 66}, {"note": 60, "velocity": 93, "duration": 224}, {"note": 65, "velocity": 77, "duration": 306}, {"note": 60, "velocity": 92, "duration": 324}, {"note": 65, "velocity": 93, "duration": 156}, {"note": 0, "velocity": 0, "duration": 84}, {"note": 67, "velocity": 107, "duration": 86}, {"note": 69, "velocity": 90, "duration": 104}, {"note": 67, "velocity": 93, "duration": 105}, {"note": 64, "velocity": 95, "duration": 388}, {"note": 62, "velocity": 90, "duration": 59}, {"note": 0, "velocity": 0, "duration": 61}, {"note": 62, "velocity": 96, "duration": 138}, {"note": 60, "velocity": 69, "duration": 492}, {"note": 0, "velocity": 0, "duration": 708}, {"note": 60, "velocity": 95, "duration": 110}, {"note": 67, "velocity": 102, "duration": 165}, {"note": 0, "velocity": 0, "duration": 75}, {"note": 67, "velocity": 100, "duration": 71}, {"note": 67, "velocity": 127, "duration": 155}, {"note": 0, "velocity": 0, "duration": 85}, {"note": 67, "velocity": 92, "duration": 183}, {"note": 66, "velocity": 99, "duration": 415}, {"note": 0, "velocity": 0, "duration": 65}, {"note": 62, "velocity": 112, "duration": 123}, {"note": 0, "velocity": 0, "duration": 117}, {"note": 62, "velocity": 112, "duration": 120}, {"note": 60, "velocity": 92, "duration": 114}, {"note": 57, "velocity": 85, "duration": 113}, {"note": 60, "velocity": 93, "duration": 318}, {"note": 58, "velocity": 112, "duration": 631}, {"note": 0, "velocity": 0, "duration": 569}, {"note": 58, "velocity": 117, "duration": 166}, {"note": 0, "velocity": 0, "duration": 74}, {"note": 60, "velocity": 96, "duration": 156}, {"note": 0, "velocity": 0, "duration": 84}, {"note": 62, "velocity": 117, "duration": 270}, {"note": 0, "velocity": 0, "duration": 90}, {"note": 62, "velocity": 90, "duration": 106}, {"note": 64, "velocity": 89, "duration": 235}, {"note": 65, "velocity": 90, "duration": 250}, {"note": 64, "velocity": 97, "duration": 310}, {"note": 0, "velocity": 0, "duration": 410}, {"note": 62, "velocity": 97, "duration": 201}, {"note": 61, "velocity": 99, "duration": 267}, {"note": 61, "velocity": 99, "duration": 27}, {"note": 0, "velocity": 0, "duration": 213}, {"note": 61, "velocity": 107, "duration": 204}, {"note": 67, "velocity": 99, "duration": 264}, {"note": 65, "velocity": 102, "duration": 521}, {"note": 0, "velocity": 0, "duration": 79}, {"note": 62, "velocity": 95, "duration": 152}, {"note": 0, "velocity": 0, "duration": 88}, {"note": 64, "velocity": 93, "duration": 110}, {"note": 65, "velocity": 96, "duration": 401}, {"note": 65, "velocity": 78, "duration": 41}, {"note": 0, "velocity": 0, "duration": 79}, {"note": 65, "velocity": 92, "duration": 92}, {"note": 67, "velocity": 86, "duration": 131}, {"note": 69, "velocity": 96, "duration": 233}, {"note": 67, "velocity": 112, "duration": 344}, {"note": 67, "velocity": 96, "duration": 55}, {"note": 0, "velocity": 0, "duration": 65}, {"note": 67, "velocity": 96, "duration": 95}, {"note": 65, "velocity": 90, "duration": 90}, {"note": 64, "velocity": 93, "duration": 237}, {"note": 65, "velocity": 100, "duration": 1301}, {"note": 0, "velocity": 0, "duration": 619}, {"note": 60, "velocity": 99, "duration": 163}, {"note": 0, "velocity": 0, "duration": 77}, {"note": 60, "velocity": 92, "duration": 56}, {"note": 0, "velocity": 0, "duration": 64}, {"note": 60, "velocity": 82, "duration": 57}, {"note": 0, "velocity": 0, "duration": 63}, {"note": 60, "velocity": 95, "duration": 121}, {"note": 65, "velocity": 95, "duration": 309}, {"note": 60, "velocity": 83, "duration": 415}, {"note": 65, "velocity": 96, "duration": 173}, {"note": 0, "velocity": 0, "duration": 67}, {"note": 67, "velocity": 107, "duration": 105}, {"note": 69, "velocity": 85, "duration": 130}, {"note": 67, "velocity": 96, "duration": 126}, {"note": 64, "velocity": 100, "duration": 243}, {"note": 0, "velocity": 0, "duration": 117}, {"note": 62, "velocity": 93, "duration": 71}, {"note": 62, "velocity": 112, "duration": 95}, {"note": 64, "velocity": 73, "duration": 51}, {"note": 62, "velocity": 88, "duration": 72}, {"note": 60, "velocity": 92, "duration": 357}, {"note": 0, "velocity": 0, "duration": 723}, {"note": 60, "velocity": 89, "duration": 117}, {"note": 67, "velocity": 100, "duration": 179}, {"note": 0, "velocity": 0, "duration": 61}, {"note": 67, "velocity": 112, "duration": 54}, {"note": 0, "velocity": 0, "duration": 66}, {"note": 67, "velocity": 127, "duration": 228}, {"note": 67, "velocity": 107, "duration": 191}, {"note": 66, "velocity": 112, "duration": 340}, {"note": 62, "velocity": 122, "duration": 159}, {"note": 0, "velocity": 0, "duration": 81}, {"note": 62, "velocity": 112, "duration": 86}, {"note": 60, "velocity": 93, "duration": 110}, {"note": 57, "velocity": 97, "duration": 163}, {"note": 60, "velocity": 117, "duration": 262}, {"note": 62, "velocity": 69, "duration": 115}, {"note": 58, "velocity": 97, "duration": 660}, {"note": 0, "velocity": 0, "duration": 540}, {"note": 58, "velocity": 122, "duration": 201}, {"note": 60, "velocity": 99, "duration": 191}, {"note": 62, "velocity": 112, "duration": 347}, {"note": 62, "velocity": 97, "duration": 58}, {"note": 0, "velocity": 0, "duration": 62}, {"note": 62, "velocity": 99, "duration": 91}, {"note": 64, "velocity": 96, "duration": 102}, {"note": 65, "velocity": 102, "duration": 256}, {"note": 64, "velocity": 102, "duration": 380}, {"note": 0, "velocity": 0, "duration": 340}, {"note": 62, "velocity": 117, "duration": 204}, {"note": 61, "velocity": 127, "duration": 183}, {"note": 61, "velocity": 117, "duration": 52}, {"note": 0, "velocity": 0, "duration": 68}, {"note": 61, "velocity": 107, "duration": 49}, {"note": 0, "velocity": 0, "duration": 71}, {"note": 61, "velocity": 122, "duration": 136}, {"note": 67, "velocity": 100, "duration": 366}, {"note": 65, "velocity": 102, "duration": 492}, {"note": 0, "velocity": 0, "duration": 108}, {"note": 62, "velocity": 100, "duration": 146}, {"note": 0, "velocity": 0, "duration": 94}, {"note": 64, "velocity": 95, "duration": 78}, {"note": 65, "velocity": 100, "duration": 280}, {"note": 0, "velocity": 0, "duration": 80}, {"note": 65, "velocity": 100, "duration": 52}, {"note": 0, "velocity": 0, "duration": 68}, {"note": 65, "velocity": 102, "duration": 81}, {"note": 67, "velocity": 96, "duration": 107}, {"note": 69, "velocity": 112, "duration": 250}, {"note": 67, "velocity": 107, "duration": 281}, {"note": 0, "velocity": 0, "duration": 79}, {"note": 67, "velocity": 102, "duration": 52}, {"note": 0, "velocity": 0, "duration": 68}, {"note": 67, "velocity": 117, "duration": 89}, {"note": 65, "velocity": 112, "duration": 117}, {"note": 0, "velocity": 0, "duration": 123}, {"note": 64, "velocity": 117, "duration": 64}, {"note": 67, "velocity": 127, "duration": 359}, {"note": 65, "velocity": 127, "duration": 913}, {"note": 0, "velocity": 0, "duration": 167}, {"note": 60, "velocity": 117, "duration": 137}, {"note": 62, "velocity": 102, "duration": 88}, {"note": 65, "velocity": 127, "duration": 96}, {"note": 67, "velocity": 100, "duration": 68}, {"note": 69, "velocity": 112, "duration": 235}, {"note": 0, "velocity": 0, "duration": 125}, {"note": 69, "velocity": 127, "duration": 230}, {"note": 72, "velocity": 102, "duration": 106}, {"note": 69, "velocity": 117, "duration": 232}, {"note": 67, "velocity": 112, "duration": 308}, {"note": 67, "velocity": 107, "duration": 209}, {"note": 72, "velocity": 102, "duration": 129}, {"note": 67, "velocity": 112, "duration": 213}, {"note": 65, "velocity": 102, "duration": 206}, {"note": 0, "velocity": 0, "duration": 154}, {"note": 65, "velocity": 95, "duration": 49}, {"note": 0, "velocity": 0, "duration": 71}, {"note": 65, "velocity": 97, "duration": 59}, {"note": 0, "velocity": 0, "duration": 61}, {"note": 67, "velocity": 107, "duration": 70}, {"note": 69, "velocity": 102, "duration": 96}, {"note": 65, "velocity": 107, "duration": 102}, {"note": 62, "velocity": 107, "duration": 254}, {"note": 67, "velocity": 127, "duration": 103}, {"note": 64, "velocity": 95, "duration": 127}, {"note": 0, "velocity": 0, "duration": 113}, {"note": 64, "velocity": 97, "duration": 90}, {"note": 65, "velocity": 112, "duration": 650}, {"note": 0, "velocity": 0, "duration": 70}, {"note": 60, "velocity": 107, "duration": 98}, {"note": 62, "velocity": 95, "duration": 77}, {"note": 65, "velocity": 117, "duration": 121}, {"note": 67, "velocity": 97, "duration": 86}, {"note": 69, "velocity": 127, "duration": 269}, {"note": 0, "velocity": 0, "duration": 91}, {"note": 69, "velocity": 122, "duration": 222}, {"note": 72, "velocity": 99, "duration": 127}, {"note": 69, "velocity": 127, "duration": 215}, {"note": 67, "velocity": 100, "duration": 272}, {"note": 0, "velocity": 0, "duration": 88}, {"note": 67, "velocity": 112, "duration": 169}, {"note": 0, "velocity": 0, "duration": 71}, {"note": 72, "velocity": 107, "duration": 96}, {"note": 67, "velocity": 122, "duration": 222}, {"note": 65, "velocity": 102, "duration": 239}, {"note": 0, "velocity": 0, "duration": 601}, {"note": 62, "velocity": 95, "duration": 156}, {"note": 64, "velocity": 127, "duration": 334}, {"note": 65, "velocity": 107, "duration": 249}, {"note": 0, "velocity": 0, "duration": 111}, {"note": 65, "velocity": 127, "duration": 1181}, {"note": 0, "velocity": 0, "duration": 5779}, {"note": 60, "velocity": 99, "duration": 163}, {"note": 0, "velocity": 0, "duration": 77}, {"note": 60, "velocity": 92, "duration": 56}, {"note": 0, "velocity": 0, "duration": 64}, {"note": 60, "velocity": 82, "duration": 57}, {"note": 0, "velocity": 0, "duration": 63}, {"note": 60, "velocity": 95, "duration": 121}, {"note": 65, "velocity": 95, "duration": 309}, {"note": 60, "velocity": 83, "duration": 331}, {"note": 65, "velocity": 96, "duration": 173}, {"note": 0, "velocity": 0, "duration": 67}, {"note": 67, "velocity": 107, "duration": 105}, {"note": 69, "velocity": 85, "duration": 130}, {"note": 67, "velocity": 96, "duration": 126}, {"note": 64, "velocity": 100, "duration": 243}, {"note": 0, "velocity": 0, "duration": 117}, {"note": 62, "velocity": 93, "duration": 71}, {"note": 62, "velocity": 112, "duration": 95}, {"note": 64, "velocity": 73, "duration": 51}, {"note": 62, "velocity": 88, "duration": 72}, {"note": 60, "velocity": 92, "duration": 720}, {"note": 0, "velocity": 0, "duration": 360}, {"note": 60, "velocity": 89, "duration": 117}, {"note": 67, "velocity": 100, "duration": 179}, {"note": 0, "velocity": 0, "duration": 61}, {"note": 67, "velocity": 112, "duration": 54}, {"note": 0, "velocity": 0, "duration": 66}, {"note": 67, "velocity": 127, "duration": 228}, {"note": 67, "velocity": 107, "duration": 191}, {"note": 66, "velocity": 112, "duration": 340}, {"note": 62, "velocity": 122, "duration": 159}, {"note": 0, "velocity": 0, "duration": 81}, {"note": 62, "velocity": 112, "duration": 86}, {"note": 60, "velocity": 93, "duration": 110}, {"note": 57, "velocity": 97, "duration": 163}, {"note": 60, "velocity": 117, "duration": 262}, {"note": 62, "velocity": 69, "duration": 115}, {"note": 58, "velocity": 97, "duration": 660}, {"note": 0, "velocity": 0, "duration": 540}, {"note": 58, "velocity": 122, "duration": 201}, {"note": 60, "velocity": 99, "duration": 191}, {"note": 62, "velocity": 112, "duration": 347}, {"note": 62, "velocity": 97, "duration": 58}, {"note": 0, "velocity": 0, "duration": 62}, {"note": 62, "velocity": 99, "duration": 91}, {"note": 64, "velocity": 96, "duration": 102}, {"note": 65, "velocity": 102, "duration": 256}, {"note": 64, "velocity": 102, "duration": 380}, {"note": 0, "velocity": 0, "duration": 340}, {"note": 62, "velocity": 117, "duration": 204}, {"note": 61, "velocity": 127, "duration": 183}, {"note": 61, "velocity": 117, "duration": 52}, {"note": 0, "velocity": 0, "duration": 68}, {"note": 61, "velocity": 107, "duration": 49}, {"note": 0, "velocity": 0, "duration": 71}, {"note": 61, "velocity": 122, "duration": 136}, {"note": 67, "velocity": 100, "duration": 366}, {"note": 65, "velocity": 102, "duration": 492}, {"note": 0, "velocity": 0, "duration": 108}, {"note": 62, "velocity": 100, "duration": 146}, {"note": 0, "velocity": 0, "duration": 94}, {"note": 64, "velocity": 95, "duration": 78}, {"note": 65, "velocity": 100, "duration": 280}, {"note": 0, "velocity": 0, "duration": 80}, {"note": 65, "velocity": 100, "duration": 52}, {"note": 0, "velocity": 0, "duration": 68}, {"note": 65, "velocity": 102, "duration": 81}, {"note": 67, "velocity": 96, "duration": 107}, {"note": 69, "velocity": 112, "duration": 250}, {"note": 67, "velocity": 107, "duration": 281}, {"note": 0, "velocity": 0, "duration": 79}, {"note": 67, "velocity": 102, "duration": 52}, {"note": 0, "velocity": 0, "duration": 68}, {"note": 67, "velocity": 117, "duration": 89}, {"note": 65, "velocity": 112, "duration": 117}, {"note": 0, "velocity": 0, "duration": 123}, {"note": 64, "velocity": 117, "duration": 64}, {"note": 67, "velocity": 127, "duration": 359}, {"note": 65, "velocity": 127, "duration": 913}, {"note": 0, "velocity": 0, "duration": 167}, {"note": 60, "velocity": 117, "duration": 137}, {"note": 62, "velocity": 102, "duration": 88}, {"note": 65, "velocity": 127, "duration": 96}, {"note": 67, "velocity": 100, "duration": 68}, {"note": 69, "velocity": 112, "duration": 235}, {"note": 0, "velocity": 0, "duration": 125}, {"note": 69, "velocity": 127, "duration": 230}, {"note": 72, "velocity": 102, "duration": 106}, {"note": 69, "velocity": 117, "duration": 232}, {"note": 67, "velocity": 112, "duration": 308}, {"note": 67, "velocity": 107, "duration": 209}, {"note": 72, "velocity": 102, "duration": 129}, {"note": 67, "velocity": 112, "duration": 213}, {"note": 65, "velocity": 102, "duration": 206}, {"note": 0, "velocity": 0, "duration": 154}, {"note": 65, "velocity": 95, "duration": 49}, {"note": 0, "velocity": 0, "duration": 71}, {"note": 65, "velocity": 97, "duration": 59}, {"note": 0, "velocity": 0, "duration": 61}, {"note": 67, "velocity": 107, "duration": 70}, {"note": 69, "velocity": 102, "duration": 96}, {"note": 65, "velocity": 107, "duration": 102}, {"note": 62, "velocity": 107, "duration": 254}, {"note": 67, "velocity": 127, "duration": 103}, {"note": 64, "velocity": 95, "duration": 127}, {"note": 0, "velocity": 0, "duration": 113}, {"note": 64, "velocity": 97, "duration": 90}, {"note": 65, "velocity": 112, "duration": 650}, {"note": 0, "velocity": 0, "duration": 70}, {"note": 60, "velocity": 107, "duration": 98}, {"note": 62, "velocity": 95, "duration": 77}, {"note": 65, "velocity": 117, "duration": 121}, {"note": 67, "velocity": 97, "duration": 86}, {"note": 69, "velocity": 127, "duration": 269}, {"note": 0, "velocity": 0, "duration": 91}, {"note": 69, "velocity": 122, "duration": 222}, {"note": 72, "velocity": 99, "duration": 127}, {"note": 69, "velocity": 127, "duration": 215}, {"note": 67, "velocity": 100, "duration": 272}, {"note": 0, "velocity": 0, "duration": 88}, {"note": 67, "velocity": 112, "duration": 169}, {"note": 0, "velocity": 0, "duration": 71}, {"note": 72, "velocity": 107, "duration": 96}, {"note": 67, "velocity": 122, "duration": 222}, {"note": 65, "velocity": 102, "duration": 239}, {"note": 0, "velocity": 0, "duration": 601}, {"note": 62, "velocity": 95, "duration": 156}, {"note": 64, "velocity": 127, "duration": 334}, {"note": 65, "velocity": 107, "duration": 249}, {"note": 0, "velocity": 0, "duration": 111}, {"note": 65, "velocity": 127, "duration": 1181}, {"note": 0, "velocity": 0, "duration": 7699}, {"note": 69, "velocity": 127, "duration": 435}, {"note": 67, "velocity": 112, "duration": 181}, {"note": 72, "velocity": 127, "duration": 238}, {"note": 69, "velocity": 112, "duration": 247}, {"note": 0, "velocity": 0, "duration": 473}, {"note": 67, "velocity": 127, "duration": 219}, {"note": 65, "velocity": 127, "duration": 156}, {"note": 0, "velocity": 0, "duration": 84}, {"note": 62, "velocity": 112, "duration": 103}, {"note": 64, "velocity": 117, "duration": 92}, {"note": 65, "velocity": 127, "duration": 184}, {"note": 67, "velocity": 107, "duration": 199}, {"note": 60, "velocity": 107, "duration": 391}, {"note": 0, "velocity": 0, "duration": 569}, {"note": 69, "velocity": 127, "duration": 426}, {"note": 67, "velocity": 112, "duration": 193}, {"note": 72, "velocity": 127, "duration": 228}, {"note": 69, "velocity": 127, "duration": 533}, {"note": 0, "velocity": 0, "duration": 187}, {"note": 62, "velocity": 100, "duration": 105}, {"note": 64, "velocity": 97, "duration": 66}, {"note": 65, "velocity": 127, "duration": 681}, {"note": 0, "velocity": 0, "duration": 759}, {"note": 60, "velocity": 117, "duration": 137}, {"note": 62, "velocity": 102, "duration": 88}, {"note": 65, "velocity": 127, "duration": 96}, {"note": 67, "velocity": 100, "duration": 68}, {"note": 69, "velocity": 112, "duration": 235}, {"note": 0, "velocity": 0, "duration": 125}, {"note": 69, "velocity": 127, "duration": 230}, {"note": 72, "velocity": 102, "duration": 106}, {"note": 69, "velocity": 117, "duration": 232}, {"note": 67, "velocity": 112, "duration": 308}, {"note": 67, "velocity": 107, "duration": 209}, {"note": 72, "velocity": 102, "duration": 129}, {"note": 67, "velocity": 112, "duration": 213}, {"note": 65, "velocity": 102, "duration": 206}, {"note": 0, "velocity": 0, "duration": 154}, {"note": 65, "velocity": 95, "duration": 49}, {"note": 0, "velocity": 0, "duration": 71}, {"note": 65, "velocity": 97, "duration": 59}, {"note": 0, "velocity": 0, "duration": 61}, {"note": 67, "velocity": 107, "duration": 70}, {"note": 69, "velocity": 102, "duration": 96}, {"note": 65, "velocity": 107, "duration": 102}, {"note": 62, "velocity": 107, "duration": 254}, {"note": 67, "velocity": 127, "duration": 103}, {"note": 64, "velocity": 95, "duration": 127}, {"note": 0, "velocity": 0, "duration": 113}, {"note": 64, "velocity": 97, "duration": 90}, {"note": 65, "velocity": 112, "duration": 650}, {"note": 0, "velocity": 0, "duration": 70}, {"note": 60, "velocity": 107, "duration": 98}, {"note": 62, "velocity": 95, "duration": 77}, {"note": 65, "velocity": 117, "duration": 121}, {"note": 67, "velocity": 97, "duration": 86}, {"note": 69, "velocity": 127, "duration": 269}, {"note": 0, "velocity": 0, "duration": 91}, {"note": 69, "velocity": 122, "duration": 222}, {"note": 72, "velocity": 99, "duration": 127}, {"note": 69, "velocity": 127, "duration": 215}, {"note": 67, "velocity": 100, "duration": 272}, {"note": 0, "velocity": 0, "duration": 88}, {"note": 67, "velocity": 112, "duration": 169}, {"note": 0, "velocity": 0, "duration": 71}, {"note": 72, "velocity": 107, "duration": 96}, {"note": 67, "velocity": 122, "duration": 222}, {"note": 65, "velocity": 102, "duration": 239}, {"note": 0, "velocity": 0, "duration": 481}, {"note": 62, "velocity": 112, "duration": 114}, {"note": 64, "velocity": 122, "duration": 200}, {"note": 0, "velocity": 0, "duration": 100}, {"note": 65, "velocity": 112, "duration": 193}, {"note": 0, "velocity": 0, "duration": 107}, {"note": 65, "velocity": 127, "duration": 871}, {"note": 0, "velocity": 0, "duration": 929}, {"note": 67, "velocity": 107, "duration": 209}, {"note": 72, "velocity": 102, "duration": 129}, {"note": 67, "velocity": 112, "duration": 213}, {"note": 65, "velocity": 102, "duration": 206}, {"note": 0, "velocity": 0, "duration": 154}, {"note": 65, "velocity": 95, "duration": 49}, {"note": 0, "velocity": 0, "duration": 71}, {"note": 65, "velocity": 97, "duration": 59}, {"note": 0, "velocity": 0, "duration": 61}, {"note": 67, "velocity": 107, "duration": 70}, {"note": 69, "velocity": 102, "duration": 96}, {"note": 65, "velocity": 107, "duration": 102}, {"note": 62, "velocity": 107, "duration": 254}, {"note": 67, "velocity": 127, "duration": 103}, {"note": 64, "velocity": 95, "duration": 127}, {"note": 0, "velocity": 0, "duration": 113}, {"note": 64, "velocity": 97, "duration": 90}, {"note": 65, "velocity": 112, "duration": 650}, {"note": 0, "velocity": 0, "duration": 70}, {"note": 60, "velocity": 107, "duration": 98}, {"note": 62, "velocity": 95, "duration": 77}, {"note": 65, "velocity": 117, "duration": 121}, {"note": 67, "velocity": 97, "duration": 86}, {"note": 69, "velocity": 127, "duration": 269}, {"note": 0, "velocity": 0, "duration": 91}, {"note": 69, "velocity": 122, "duration": 222}, {"note": 72, "velocity": 99, "duration": 127}, {"note": 69, "velocity": 127, "duration": 215}, {"note": 67, "velocity": 100, "duration": 480}, {"note": 0, "velocity": 0, "duration": 240}, {"note": 62, "velocity": 100, "duration": 107}, {"note": 64, "velocity": 122, "duration": 333}, {"note": 65, "velocity": 102, "duration": 145}, {"note": 0, "velocity": 0, "duration": 95}, {"note": 65, "velocity": 127, "duration": 709}, {"note": 0, "velocity": 0, "duration": 1091}, {"note": 67, "velocity": 107, "duration": 209}, {"note": 72, "velocity": 102, "duration": 129}, {"note": 67, "velocity": 112, "duration": 213}, {"note": 65, "velocity": 102, "duration": 206}, {"note": 0, "velocity": 0, "duration": 154}, {"note": 65, "velocity": 95, "duration": 49}, {"note": 0, "velocity": 0, "duration": 71}, {"note": 65, "velocity": 97, "duration": 59}, {"note": 0, "velocity": 0, "duration": 61}, {"note": 67, "velocity": 107, "duration": 70}, {"note": 69, "velocity": 102, "duration": 96}, {"note": 65, "velocity": 107, "duration": 102}, {"note": 62, "velocity": 107, "duration": 254}, {"note": 67, "velocity": 127, "duration": 103}, {"note": 64, "velocity": 95, "duration": 127}, {"note": 0, "velocity": 0, "duration": 113}, {"note": 64, "velocity": 97, "duration": 90}, {"note": 65, "velocity": 112, "duration": 650}, {"note": 0, "velocity": 0, "duration": 70}, {"note": 60, "velocity": 107, "duration": 98}, {"note": 62, "velocity": 95, "duration": 77}, {"note": 65, "velocity": 117, "duration": 121}, {"note": 67, "velocity": 97, "duration": 86}, {"note": 69, "velocity": 127, "duration": 269}, {"note": 0, "velocity": 0, "duration": 91}, {"note": 69, "velocity": 122, "duration": 222}, {"note": 72, "velocity": 99, "duration": 127}, {"note": 69, "velocity": 127, "duration": 215}, {"note": 67, "velocity": 100, "duration": 272}, {"note": 0, "velocity": 0, "duration": 88}, {"note": 67, "velocity": 112, "duration": 169}, {"note": 0, "velocity": 0, "duration": 71}, {"note": 72, "velocity": 107, "duration": 96}, {"note": 67, "velocity": 122, "duration": 222}, {"note": 65, "velocity": 102, "duration": 239}, {"note": 0, "velocity": 0, "duration": 481}, {"note": 62, "velocity": 102, "duration": 59}, {"note": 0, "velocity": 0, "duration": 61}, {"note": 64, "velocity": 127, "duration": 350}, {"note": 65, "velocity": 107, "duration": 167}, {"note": 0, "velocity": 0, "duration": 73}, {"note": 65, "velocity": 127, "duration": 1074}, {"note": 0, "velocity": 0, "duration": 726}, {"note": 67, "velocity": 107, "duration": 209}, {"note": 72, "velocity": 102, "duration": 129}, {"note": 67, "velocity": 112, "duration": 213}, {"note": 65, "velocity": 102, "duration": 206}, {"note": 0, "velocity": 0, "duration": 154}, {"note": 65, "velocity": 95, "duration": 49}, {"note": 0, "velocity": 0, "duration": 71}, {"note": 65, "velocity": 97, "duration": 59}, {"note": 0, "velocity": 0, "duration": 61}, {"note": 67, "velocity": 107, "duration": 70}, {"note": 69, "velocity": 102, "duration": 96}, {"note": 65, "velocity": 107, "duration": 102}, {"note": 64, "velocity": 127, "duration": 49}, {"note": 0, "velocity": 0, "duration": 71}, {"note": 64, "velocity": 112, "duration": 82}, {"note": 65, "velocity": 100, "duration": 60}, {"note": 60, "velocity": 112, "duration": 120}, {"note": 0, "velocity": 0, "duration": 120}, {"note": 62, "velocity": 102, "duration": 120}, {"note": 65, "velocity": 107, "duration": 135}, {"note": 67, "velocity": 90, "duration": 142}, {"note": 69, "velocity": 102, "duration": 171}, {"note": 0, "velocity": 0, "duration": 189}, {"note": 69, "velocity": 117, "duration": 189}, {"note": 72, "velocity": 112, "duration": 120}, {"note": 69, "velocity": 127, "duration": 211}, {"note": 67, "velocity": 107, "duration": 242}, {"note": 0, "velocity": 0, "duration": 118}, {"note": 67, "velocity": 107, "duration": 192}, {"note": 72, "velocity": 107, "duration": 107}, {"note": 67, "velocity": 102, "duration": 234}, {"note": 0, "velocity": 0, "duration": 126}, {"note": 65, "velocity": 102, "duration": 412}, {"note": 0, "velocity": 0, "duration": 188}, {"note": 62, "velocity": 102, "duration": 87}, {"note": 64, "velocity": 127, "duration": 337}, {"note": 65, "velocity": 122, "duration": 293}, {"note": 0, "velocity": 0, "duration": 187}, {"note": 65, "velocity": 127, "duration": 1290}]]