[[{"note": 65, "velocity": 97, "duration": 117}, {"note": 72, "velocity": 112, "duration": 144}, {"note": 70, "velocity": 100, "duration": 89}, {"note": 70, "velocity": 97, "duration": 142}, {"note": 72, "velocity": 97, "duration": 139}, {"note": 70, "velocity": 122, "duration": 186}, {"note": 0, "velocity": 0, "duration": 174}, {"note": 72, "velocity": 95, "duration": 53}, {"note": 0, "velocity": 0, "duration": 67}, {"note": 72, "velocity": 97, "duration": 120}, {"note": 70, "velocity": 102, "duration": 132}, {"note": 68, "velocity": 95, "duration": 131}, {"note": 67, "velocity": 89, "duration": 145}, {"note": 65, "velocity": 88, "duration": 351}, {"note": 0, "velocity": 0, "duration": 129}, {"note": 63, "velocity": 117, "duration": 63}, {"note": 63, "velocity": 112, "duration": 53}, {"note": 0, "velocity": 0, "duration": 67}, {"note": 63, "velocity": 127, "duration": 87}, {"note": 65, "velocity": 100, "duration": 113}, {"note": 67, "velocity": 102, "duration": 146}, {"note": 67, "velocity": 97, "duration": 26}, {"note": 0, "velocity": 0, "duration": 94}, {"note": 67, "velocity": 99, "duration": 94}, {"note": 68, "velocity": 112, "duration": 68}, {"note": 68, "velocity": 112, "duration": 97}, {"note": 65, "velocity": 88, "duration": 69}, {"note": 65, "velocity": 79, "duration": 75}, {"note": 63, "velocity": 96, "duration": 76}, {"note": 65, "velocity": 95, "duration": 385}, {"note": 65, "velocity": 95, "duration": 25}, {"note": 0, "velocity": 0, "duration": 95}, {"note": 72, "velocity": 117, "duration": 105}, {"note": 70, "velocity": 95, "duration": 53}, {"note": 0, "velocity": 0, "duration": 67}, {"note": 70, "velocity": 117, "duration": 66}, {"note": 72, "velocity": 99, "duration": 73}, {"note": 70, "velocity": 117, "duration": 169}, {"note": 0, "velocity": 0, "duration": 71}, {"note": 77, "velocity": 117, "duration": 48}, {"note": 0, "velocity": 0, "duration": 72}, {"note": 77, "velocity": 96, "duration": 45}, {"note": 0, "velocity": 0, "duration": 75}, {"note": 77, "velocity": 112, "duration": 84}, {"note": 75, "velocity": 117, "duration": 57}, {"note": 0, "velocity": 0, "duration": 63}, {"note": 75, "velocity": 122, "duration": 79}, {"note": 70, "velocity": 102, "duration": 95}, {"note": 72, "velocity": 97, "duration": 324}, {"note": 0, "velocity": 0, "duration": 156}, {"note": 63, "velocity": 102, "duration": 47}, {"note": 0, "velocity": 0, "duration": 73}, {"note": 63, "velocity": 100, "duration": 52}, {"note": 0, "velocity": 0, "duration": 68}, {"note": 63, "velocity": 117, "duration": 68}, {"note": 65, "velocity": 93, "duration": 68}, {"note": 70, "velocity": 112, "duration": 155}, {"note": 70, "velocity": 117, "duration": 35}, {"note": 0, "velocity": 0, "duration": 85}, {"note": 70, "velocity": 127, "duration": 81}, {"note": 72, "velocity": 102, "duration": 106}, {"note": 68, "velocity": 127, "duration": 96}, {"note": 67, "velocity": 117, "duration": 90}, {"note": 65, "velocity": 96, "duration": 128}, {"note": 63, "velocity": 86, "duration": 124}, {"note": 65, "velocity": 93, "duration": 320}, {"note": 65, "velocity": 100, "duration": 80}, {"note": 68, "velocity": 122, "duration": 79}, {"note": 70, "velocity": 127, "duration": 58}, {"note": 0, "velocity": 0, "duration": 62}, {"note": 70, "velocity": 112, "duration": 52}, {"note": 0, "velocity": 0, "duration": 68}, {"note": 70, "velocity": 122, "duration": 53}, {"note": 0, "velocity": 0, "duration": 67}, {"note": 68, "velocity": 112, "duration": 50}, {"note": 0, "velocity": 0, "duration": 70}, {"note": 70, "velocity": 127, "duration": 203}, {"note": 70, "velocity": 127, "duration": 101}, {"note": 72, "velocity": 95, "duration": 55}, {"note": 0, "velocity": 0, "duration": 65}, {"note": 72, "velocity": 117, "duration": 100}, {"note": 70, "velocity": 127, "duration": 130}, {"note": 68, "velocity": 102, "duration": 117}, {"note": 67, "velocity": 99, "duration": 136}, {"note": 65, "velocity": 102, "duration": 224}, {"note": 65, "velocity": 97, "duration": 48}, {"note": 0, "velocity": 0, "duration": 72}, {"note": 68, "velocity": 127, "duration": 90}, {"note": 70, "velocity": 122, "duration": 54}, {"note": 0, "velocity": 0, "duration": 66}, {"note": 70, "velocity": 127, "duration": 52}, {"note": 0, "velocity": 0, "duration": 68}, {"note": 70, "velocity": 127, "duration": 61}, {"note": 77, "velocity": 122, "duration": 84}, {"note": 75, "velocity": 122, "duration": 111}, {"note": 77, "velocity": 107, "duration": 84}, {"note": 75, "velocity": 117, "duration": 88}, {"note": 70, "velocity": 99, "duration": 109}, {"note": 72, "velocity": 102, "duration": 677}, {"note": 65, "velocity": 102, "duration": 66}, {"note": 68, "velocity": 122, "duration": 122}, {"note": 70, "velocity": 117, "duration": 59}, {"note": 0, "velocity": 0, "duration": 61}, {"note": 70, "velocity": 127, "duration": 58}, {"note": 0, "velocity": 0, "duration": 62}, {"note": 70, "velocity": 117, "duration": 61}, {"note": 68, "velocity": 107, "duration": 59}, {"note": 0, "velocity": 0, "duration": 61}, {"note": 70, "velocity": 127, "duration": 131}, {"note": 0, "velocity": 0, "duration": 109}, {"note": 70, "velocity": 127, "duration": 85}, {"note": 72, "velocity": 93, "duration": 55}, {"note": 0, "velocity": 0, "duration": 65}, {"note": 72, "velocity": 112, "duration": 102}, {"note": 70, "velocity": 112, "duration": 142}, {"note": 68, "velocity": 102, "duration": 129}, {"note": 67, "velocity": 95, "duration": 99}, {"note": 65, "velocity": 117, "duration": 230}, {"note": 65, "velocity": 100, "duration": 146}, {"note": 68, "velocity": 112, "duration": 75}, {"note": 68, "velocity": 127, "duration": 118}, {"note": 0, "velocity": 0, "duration": 122}, {"note": 68, "velocity": 127, "duration": 72}, {"note": 70, "velocity": 93, "duration": 51}, {"note": 0, "velocity": 0, "duration": 69}, {"note": 67, "velocity": 117, "duration": 107}, {"note": 67, "velocity": 117, "duration": 128}, {"note": 0, "velocity": 0, "duration": 112}, {"note": 68, "velocity": 117, "duration": 87}, {"note": 67, "velocity": 122, "duration": 223}, {"note": 65, "velocity": 99, "duration": 848}, {"note": 0, "velocity": 0, "duration": 1432}, {"note": 72, "velocity": 122, "duration": 75}, {"note": 75, "velocity": 127, "duration": 97}, {"note": 72, "velocity": 102, "duration": 79}, {"note": 77, "velocity": 127, "duration": 55}, {"note": 0, "velocity": 0, "duration": 65}, {"note": 77, "velocity": 127, "duration": 51}, {"note": 0, "velocity": 0, "duration": 69}, {"note": 77, "velocity": 100, "duration": 93}, {"note": 75, "velocity": 117, "duration": 91}, {"note": 77, "velocity": 112, "duration": 169}, {"note": 0, "velocity": 0, "duration": 71}, {"note": 77, "velocity": 127, "duration": 108}, {"note": 80, "velocity": 122, "duration": 121}, {"note": 75, "velocity": 127, "duration": 58}, {"note": 0, "velocity": 0, "duration": 62}, {"note": 75, "velocity": 122, "duration": 56}, {"note": 0, "velocity": 0, "duration": 64}, {"note": 75, "velocity": 127, "duration": 92}, {"note": 72, "velocity": 97, "duration": 115}, {"note": 75, "velocity": 127, "duration": 190}, {"note": 0, "velocity": 0, "duration": 290}, {"note": 70, "velocity": 127, "duration": 52}, {"note": 0, "velocity": 0, "duration": 68}, {"note": 70, "velocity": 112, "duration": 51}, {"note": 0, "velocity": 0, "duration": 69}, {"note": 70, "velocity": 122, "duration": 66}, {"note": 77, "velocity": 127, "duration": 66}, {"note": 75, "velocity": 127, "duration": 93}, {"note": 77, "velocity": 112, "duration": 87}, {"note": 75, "velocity": 127, "duration": 112}, {"note": 72, "velocity": 99, "duration": 72}, {"note": 70, "velocity": 107, "duration": 76}, {"note": 72, "velocity": 112, "duration": 343}, {"note": 72, "velocity": 127, "duration": 103}, {"note": 0, "velocity": 0, "duration": 377}, {"note": 72, "velocity": 122, "duration": 18}, {"note": 0, "velocity": 0, "duration": 102}, {"note": 72, "velocity": 127, "duration": 85}, {"note": 70, "velocity": 117, "duration": 41}, {"note": 0, "velocity": 0, "duration": 79}, {"note": 70, "velocity": 122, "duration": 78}, {"note": 72, "velocity": 122, "duration": 48}, {"note": 0, "velocity": 0, "duration": 72}, {"note": 70, "velocity": 127, "duration": 204}, {"note": 0, "velocity": 0, "duration": 156}, {"note": 72, "velocity": 127, "duration": 44}, {"note": 0, "velocity": 0, "duration": 76}, {"note": 72, "velocity": 127, "duration": 87}, {"note": 70, "velocity": 112, "duration": 52}, {"note": 0, "velocity": 0, "duration": 68}, {"note": 70, "velocity": 127, "duration": 90}, {"note": 70, "velocity": 54, "duration": 19}, {"note": 72, "velocity": 96, "duration": 67}, {"note": 65, "velocity": 112, "duration": 231}, {"note": 0, "velocity": 0, "duration": 249}, {"note": 65, "velocity": 107, "duration": 63}, {"note": 67, "velocity": 112, "duration": 65}, {"note": 68, "velocity": 127, "duration": 97}, {"note": 77, "velocity": 122, "duration": 66}, {"note": 75, "velocity": 127, "duration": 102}, {"note": 77, "velocity": 112, "duration": 78}, {"note": 75, "velocity": 127, "duration": 51}, {"note": 0, "velocity": 0, "duration": 69}, {"note": 70, "velocity": 112, "duration": 120}, {"note": 72, "velocity": 102, "duration": 407}, {"note": 0, "velocity": 0, "duration": 193}, {"note": 72, "velocity": 122, "duration": 75}, {"note": 75, "velocity": 127, "duration": 97}, {"note": 72, "velocity": 102, "duration": 79}, {"note": 77, "velocity": 127, "duration": 55}, {"note": 0, "velocity": 0, "duration": 65}, {"note": 77, "velocity": 127, "duration": 51}, {"note": 0, "velocity": 0, "duration": 69}, {"note": 77, "velocity": 100, "duration": 93}, {"note": 75, "velocity": 117, "duration": 91}, {"note": 77, "velocity": 112, "duration": 169}, {"note": 0, "velocity": 0, "duration": 71}, {"note": 77, "velocity": 127, "duration": 108}, {"note": 80, "velocity": 122, "duration": 121}, {"note": 75, "velocity": 127, "duration": 58}, {"note": 0, "velocity": 0, "duration": 62}, {"note": 75, "velocity": 122, "duration": 56}, {"note": 0, "velocity": 0, "duration": 64}, {"note": 75, "velocity": 127, "duration": 92}, {"note": 72, "velocity": 97, "duration": 115}, {"note": 75, "velocity": 127, "duration": 190}, {"note": 0, "velocity": 0, "duration": 290}, {"note": 70, "velocity": 127, "duration": 52}, {"note": 0, "velocity": 0, "duration": 68}, {"note": 70, "velocity": 112, "duration": 51}, {"note": 0, "velocity": 0, "duration": 69}, {"note": 70, "velocity": 122, "duration": 66}, {"note": 77, "velocity": 127, "duration": 66}, {"note": 75, "velocity": 127, "duration": 93}, {"note": 77, "velocity": 112, "duration": 87}, {"note": 75, "velocity": 127, "duration": 112}, {"note": 72, "velocity": 99, "duration": 72}, {"note": 70, "velocity": 107, "duration": 76}, {"note": 72, "velocity": 112, "duration": 343}, {"note": 72, "velocity": 127, "duration": 103}, {"note": 0, "velocity": 0, "duration": 377}, {"note": 72, "velocity": 122, "duration": 18}, {"note": 0, "velocity": 0, "duration": 102}, {"note": 72, "velocity": 127, "duration": 85}, {"note": 70, "velocity": 117, "duration": 41}, {"note": 0, "velocity": 0, "duration": 79}, {"note": 70, "velocity": 122, "duration": 78}, {"note": 72, "velocity": 122, "duration": 48}, {"note": 0, "velocity": 0, "duration": 72}, {"note": 70, "velocity": 127, "duration": 204}, {"note": 0, "velocity": 0, "duration": 156}, {"note": 75, "velocity": 122, "duration": 50}, {"note": 0, "velocity": 0, "duration": 70}, {"note": 75, "velocity": 127, "duration": 55}, {"note": 0, "velocity": 0, "duration": 65}, {"note": 72, "velocity": 112, "duration": 54}, {"note": 0, "velocity": 0, "duration": 66}, {"note": 70, "velocity": 117, "duration": 70}, {"note": 72, "velocity": 107, "duration": 68}, {"note": 65, "velocity": 112, "duration": 231}, {"note": 0, "velocity": 0, "duration": 249}, {"note": 63, "velocity": 127, "duration": 51}, {"note": 0, "velocity": 0, "duration": 69}, {"note": 63, "velocity": 112, "duration": 48}, {"note": 0, "velocity": 0, "duration": 72}, {"note": 63, "velocity": 122, "duration": 82}, {"note": 65, "velocity": 97, "duration": 97}, {"note": 70, "velocity": 127, "duration": 110}, {"note": 70, "velocity": 127, "duration": 46}, {"note": 0, "velocity": 0, "duration": 74}, {"note": 70, "velocity": 127, "duration": 70}, {"note": 72, "velocity": 112, "duration": 84}, {"note": 68, "velocity": 127, "duration": 111}, {"note": 67, "velocity": 89, "duration": 118}, {"note": 65, "velocity": 99, "duration": 638}, {"note": 0, "velocity": 0, "duration": 7642}, {"note": 65, "velocity": 97, "duration": 117}, {"note": 72, "velocity": 112, "duration": 144}, {"note": 70, "velocity": 100, "duration": 89}, {"note": 70, "velocity": 97, "duration": 142}, {"note": 72, "velocity": 97, "duration": 139}, {"note": 70, "velocity": 122, "duration": 186}, {"note": 0, "velocity": 0, "duration": 174}, {"note": 72, "velocity": 95, "duration": 53}, {"note": 0, "velocity": 0, "duration": 67}, {"note": 72, "velocity": 97, "duration": 120}, {"note": 70, "velocity": 102, "duration": 132}, {"note": 68, "velocity": 95, "duration": 131}, {"note": 67, "velocity": 89, "duration": 145}, {"note": 65, "velocity": 88, "duration": 351}, {"note": 0, "velocity": 0, "duration": 129}, {"note": 63, "velocity": 117, "duration": 63}, {"note": 63, "velocity": 112, "duration": 53}, {"note": 0, "velocity": 0, "duration": 67}, {"note": 63, "velocity": 127, "duration": 87}, {"note": 65, "velocity": 100, "duration": 113}, {"note": 67, "velocity": 102, "duration": 146}, {"note": 67, "velocity": 97, "duration": 26}, {"note": 0, "velocity": 0, "duration": 94}, {"note": 67, "velocity": 99, "duration": 94}, {"note": 68, "velocity": 112, "duration": 68}, {"note": 68, "velocity": 112, "duration": 97}, {"note": 65, "velocity": 88, "duration": 69}, {"note": 65, "velocity": 79, "duration": 75}, {"note": 63, "velocity": 96, "duration": 76}, {"note": 65, "velocity": 95, "duration": 385}, {"note": 65, "velocity": 95, "duration": 25}, {"note": 0, "velocity": 0, "duration": 95}, {"note": 72, "velocity": 117, "duration": 105}, {"note": 70, "velocity": 95, "duration": 53}, {"note": 0, "velocity": 0, "duration": 67}, {"note": 70, "velocity": 117, "duration": 66}, {"note": 72, "velocity": 99, "duration": 73}, {"note": 70, "velocity": 117, "duration": 169}, {"note": 0, "velocity": 0, "duration": 71}, {"note": 77, "velocity": 117, "duration": 48}, {"note": 0, "velocity": 0, "duration": 72}, {"note": 77, "velocity": 96, "duration": 45}, {"note": 0, "velocity": 0, "duration": 75}, {"note": 77, "velocity": 112, "duration": 84}, {"note": 75, "velocity": 117, "duration": 57}, {"note": 0, "velocity": 0, "duration": 63}, {"note": 75, "velocity": 122, "duration": 79}, {"note": 70, "velocity": 102, "duration": 95}, {"note": 72, "velocity": 97, "duration": 324}, {"note": 0, "velocity": 0, "duration": 156}, {"note": 63, "velocity": 102, "duration": 47}, {"note": 0, "velocity": 0, "duration": 73}, {"note": 63, "velocity": 100, "duration": 52}, {"note": 0, "velocity": 0, "duration": 68}, {"note": 63, "velocity": 117, "duration": 68}, {"note": 65, "velocity": 93, "duration": 68}, {"note": 70, "velocity": 112, "duration": 155}, {"note": 70, "velocity": 117, "duration": 35}, {"note": 0, "velocity": 0, "duration": 85}, {"note": 70, "velocity": 127, "duration": 81}, {"note": 72, "velocity": 102, "duration": 106}, {"note": 68, "velocity": 127, "duration": 96}, {"note": 67, "velocity": 117, "duration": 90}, {"note": 65, "velocity": 96, "duration": 128}, {"note": 63, "velocity": 86, "duration": 124}, {"note": 65, "velocity": 93, "duration": 320}, {"note": 65, "velocity": 100, "duration": 80}, {"note": 68, "velocity": 122, "duration": 79}, {"note": 70, "velocity": 127, "duration": 58}, {"note": 0, "velocity": 0, "duration": 62}, {"note": 70, "velocity": 112, "duration": 52}, {"note": 0, "velocity": 0, "duration": 68}, {"note": 70, "velocity": 122, "duration": 53}, {"note": 0, "velocity": 0, "duration": 67}, {"note": 68, "velocity": 112, "duration": 50}, {"note": 0, "velocity": 0, "duration": 70}, {"note": 70, "velocity": 127, "duration": 203}, {"note": 70, "velocity": 127, "duration": 101}, {"note": 72, "velocity": 95, "duration": 55}, {"note": 0, "velocity": 0, "duration": 65}, {"note": 72, "velocity": 117, "duration": 100}, {"note": 70, "velocity": 127, "duration": 130}, {"note": 68, "velocity": 102, "duration": 117}, {"note": 67, "velocity": 99, "duration": 136}, {"note": 65, "velocity": 102, "duration": 224}, {"note": 65, "velocity": 97, "duration": 48}, {"note": 0, "velocity": 0, "duration": 72}, {"note": 68, "velocity": 127, "duration": 90}, {"note": 70, "velocity": 122, "duration": 54}, {"note": 0, "velocity": 0, "duration": 66}, {"note": 70, "velocity": 127, "duration": 52}, {"note": 0, "velocity": 0, "duration": 68}, {"note": 70, "velocity": 127, "duration": 61}, {"note": 77, "velocity": 122, "duration": 84}, {"note": 75, "velocity": 122, "duration": 111}, {"note": 77, "velocity": 107, "duration": 84}, {"note": 75, "velocity": 117, "duration": 88}, {"note": 70, "velocity": 99, "duration": 109}, {"note": 72, "velocity": 102, "duration": 677}, {"note": 65, "velocity": 102, "duration": 66}, {"note": 68, "velocity": 122, "duration": 122}, {"note": 70, "velocity": 117, "duration": 59}, {"note": 0, "velocity": 0, "duration": 61}, {"note": 70, "velocity": 127, "duration": 58}, {"note": 0, "velocity": 0, "duration": 62}, {"note": 70, "velocity": 117, "duration": 61}, {"note": 68, "velocity": 107, "duration": 59}, {"note": 0, "velocity": 0, "duration": 61}, {"note": 70, "velocity": 127, "duration": 131}, {"note": 0, "velocity": 0, "duration": 109}, {"note": 70, "velocity": 127, "duration": 85}, {"note": 72, "velocity": 93, "duration": 55}, {"note": 0, "velocity": 0, "duration": 65}, {"note": 72, "velocity": 112, "duration": 102}, {"note": 70, "velocity": 112, "duration": 142}, {"note": 68, "velocity": 102, "duration": 129}, {"note": 67, "velocity": 95, "duration": 99}, {"note": 65, "velocity": 117, "duration": 230}, {"note": 65, "velocity": 100, "duration": 146}, {"note": 68, "velocity": 112, "duration": 75}, {"note": 68, "velocity": 127, "duration": 118}, {"note": 0, "velocity": 0, "duration": 122}, {"note": 68, "velocity": 127, "duration": 72}, {"note": 70, "velocity": 93, "duration": 51}, {"note": 0, "velocity": 0, "duration": 69}, {"note": 67, "velocity": 117, "duration": 107}, {"note": 67, "velocity": 117, "duration": 128}, {"note": 0, "velocity": 0, "duration": 112}, {"note": 75, "velocity": 117, "duration": 87}, {"note": 75, "velocity": 122, "duration": 223}, {"note": 77, "velocity": 99, "duration": 848}, {"note": 0, "velocity": 0, "duration": 472}, {"note": 72, "velocity": 122, "duration": 75}, {"note": 75, "velocity": 127, "duration": 97}, {"note": 72, "velocity": 102, "duration": 79}, {"note": 77, "velocity": 127, "duration": 55}, {"note": 0, "velocity": 0, "duration": 65}, {"note": 77, "velocity": 127, "duration": 51}, {"note": 0, "velocity": 0, "duration": 69}, {"note": 77, "velocity": 100, "duration": 93}, {"note": 75, "velocity": 117, "duration": 91}, {"note": 77, "velocity": 112, "duration": 169}, {"note": 0, "velocity": 0, "duration": 71}, {"note": 77, "velocity": 127, "duration": 108}, {"note": 80, "velocity": 122, "duration": 121}, {"note": 75, "velocity": 127, "duration": 58}, {"note": 0, "velocity": 0, "duration": 62}, {"note": 75, "velocity": 122, "duration": 56}, {"note": 0, "velocity": 0, "duration": 64}, {"note": 75, "velocity": 127, "duration": 92}, {"note": 72, "velocity": 97, "duration": 115}, {"note": 75, "velocity": 127, "duration": 190}, {"note": 0, "velocity": 0, "duration": 290}, {"note": 70, "velocity": 127, "duration": 52}, {"note": 0, "velocity": 0, "duration": 68}, {"note": 70, "velocity": 112, "duration": 51}, {"note": 0, "velocity": 0, "duration": 69}, {"note": 70, "velocity": 122, "duration": 66}, {"note": 77, "velocity": 127, "duration": 66}, {"note": 75, "velocity": 127, "duration": 93}, {"note": 77, "velocity": 112, "duration": 87}, {"note": 75, "velocity": 127, "duration": 112}, {"note": 72, "velocity": 99, "duration": 72}, {"note": 70, "velocity": 107, "duration": 76}, {"note": 72, "velocity": 112, "duration": 343}, {"note": 72, "velocity": 127, "duration": 103}, {"note": 0, "velocity": 0, "duration": 377}, {"note": 72, "velocity": 122, "duration": 18}, {"note": 0, "velocity": 0, "duration": 102}, {"note": 72, "velocity": 127, "duration": 85}, {"note": 70, "velocity": 117, "duration": 41}, {"note": 0, "velocity": 0, "duration": 79}, {"note": 70, "velocity": 122, "duration": 78}, {"note": 72, "velocity": 122, "duration": 48}, {"note": 0, "velocity": 0, "duration": 72}, {"note": 70, "velocity": 127, "duration": 204}, {"note": 0, "velocity": 0, "duration": 156}, {"note": 72, "velocity": 127, "duration": 44}, {"note": 0, "velocity": 0, "duration": 76}, {"note": 72, "velocity": 127, "duration": 87}, {"note": 70, "velocity": 112, "duration": 52}, {"note": 0, "velocity": 0, "duration": 68}, {"note": 70, "velocity": 127, "duration": 90}, {"note": 70, "velocity": 54, "duration": 19}, {"note": 72, "velocity": 96, "duration": 67}, {"note": 65, "velocity": 112, "duration": 231}, {"note": 0, "velocity": 0, "duration": 249}, {"note": 65, "velocity": 107, "duration": 63}, {"note": 67, "velocity": 112, "duration": 65}, {"note": 68, "velocity": 127, "duration": 97}, {"note": 77, "velocity": 122, "duration": 66}, {"note": 75, "velocity": 127, "duration": 102}, {"note": 77, "velocity": 112, "duration": 78}, {"note": 75, "velocity": 127, "duration": 51}, {"note": 0, "velocity": 0, "duration": 69}, {"note": 70, "velocity": 112, "duration": 120}, {"note": 72, "velocity": 102, "duration": 407}, {"note": 0, "velocity": 0, "duration": 193}, {"note": 72, "velocity": 122, "duration": 75}, {"note": 75, "velocity": 127, "duration": 97}, {"note": 72, "velocity": 102, "duration": 79}, {"note": 77, "velocity": 127, "duration": 55}, {"note": 0, "velocity": 0, "duration": 65}, {"note": 77, "velocity": 127, "duration": 51}, {"note": 0, "velocity": 0, "duration": 69}, {"note": 77, "velocity": 100, "duration": 93}, {"note": 75, "velocity": 117, "duration": 91}, {"note": 77, "velocity": 112, "duration": 169}, {"note": 0, "velocity": 0, "duration": 71}, {"note": 77, "velocity": 127, "duration": 108}, {"note": 80, "velocity": 122, "duration": 121}, {"note": 75, "velocity": 127, "duration": 58}, {"note": 0, "velocity": 0, "duration": 62}, {"note": 75, "velocity": 122, "duration": 56}, {"note": 0, "velocity": 0, "duration": 64}, {"note": 75, "velocity": 127, "duration": 92}, {"note": 72, "velocity": 97, "duration": 115}, {"note": 75, "velocity": 127, "duration": 190}, {"note": 0, "velocity": 0, "duration": 290}, {"note": 70, "velocity": 127, "duration": 52}, {"note": 0, "velocity": 0, "duration": 68}, {"note": 70, "velocity": 112, "duration": 51}, {"note": 0, "velocity": 0, "duration": 69}, {"note": 70, "velocity": 122, "duration": 66}, {"note": 77, "velocity": 127, "duration": 66}, {"note": 75, "velocity": 127, "duration": 93}, {"note": 77, "velocity": 112, "duration": 87}, {"note": 75, "velocity": 127, "duration": 112}, {"note": 72, "velocity": 99, "duration": 72}, {"note": 70, "velocity": 107, "duration": 76}, {"note": 72, "velocity": 112, "duration": 343}, {"note": 72, "velocity": 127, "duration": 103}, {"note": 0, "velocity": 0, "duration": 377}, {"note": 72, "velocity": 122, "duration": 18}, {"note": 0, "velocity": 0, "duration": 102}, {"note": 72, "velocity": 127, "duration": 85}, {"note": 70, "velocity": 117, "duration": 41}, {"note": 0, "velocity": 0, "duration": 79}, {"note": 70, "velocity": 122, "duration": 78}, {"note": 72, "velocity": 122, "duration": 48}, {"note": 0, "velocity": 0, "duration": 72}, {"note": 70, "velocity": 127, "duration": 204}, {"note": 0, "velocity": 0, "duration": 156}, {"note": 75, "velocity": 122, "duration": 50}, {"note": 0, "velocity": 0, "duration": 70}, {"note": 75, "velocity": 127, "duration": 55}, {"note": 0, "velocity": 0, "duration": 65}, {"note": 72, "velocity": 112, "duration": 54}, {"note": 0, "velocity": 0, "duration": 66}, {"note": 70, "velocity": 117, "duration": 70}, {"note": 72, "velocity": 107, "duration": 68}, {"note": 65, "velocity": 112, "duration": 231}, {"note": 0, "velocity": 0, "duration": 249}, {"note": 63, "velocity": 127, "duration": 51}, {"note": 0, "velocity": 0, "duration": 69}, {"note": 63, "velocity": 112, "duration": 48}, {"note": 0, "velocity": 0, "duration": 72}, {"note": 63, "velocity": 122, "duration": 82}, {"note": 65, "velocity": 97, "duration": 97}, {"note": 70, "velocity": 127, "duration": 110}, {"note": 70, "velocity": 127, "duration": 46}, {"note": 0, "velocity": 0, "duration": 74}, {"note": 70, "velocity": 127, "duration": 70}, {"note": 72, "velocity": 112, "duration": 84}, {"note": 68, "velocity": 127, "duration": 111}, {"note": 67, "velocity": 89, "duration": 118}, {"note": 65, "velocity": 99, "duration": 638}, {"note": 0, "velocity": 0, "duration": 682}, {"note": 72, "velocity": 122, "duration": 75}, {"note": 75, "velocity": 127, "duration": 97}, {"note": 72, "velocity": 102, "duration": 79}, {"note": 77, "velocity": 127, "duration": 55}, {"note": 0, "velocity": 0, "duration": 65}, {"note": 77, "velocity": 127, "duration": 51}, {"note": 0, "velocity": 0, "duration": 69}, {"note": 77, "velocity": 100, "duration": 93}, {"note": 75, "velocity": 117, "duration": 91}, {"note": 77, "velocity": 112, "duration": 169}, {"note": 0, "velocity": 0, "duration": 71}, {"note": 77, "velocity": 127, "duration": 108}, {"note": 80, "velocity": 122, "duration": 121}, {"note": 75, "velocity": 127, "duration": 58}, {"note": 0, "velocity": 0, "duration": 62}, {"note": 75, "velocity": 122, "duration": 56}, {"note": 0, "velocity": 0, "duration": 64}, {"note": 75, "velocity": 127, "duration": 92}, {"note": 72, "velocity": 97, "duration": 115}, {"note": 75, "velocity": 127, "duration": 190}, {"note": 0, "velocity": 0, "duration": 290}, {"note": 70, "velocity": 127, "duration": 52}, {"note": 0, "velocity": 0, "duration": 68}, {"note": 70, "velocity": 112, "duration": 51}, {"note": 0, "velocity": 0, "duration": 69}, {"note": 70, "velocity": 122, "duration": 66}, {"note": 77, "velocity": 127, "duration": 66}, {"note": 75, "velocity": 127, "duration": 93}, {"note": 77, "velocity": 112, "duration": 87}, {"note": 75, "velocity": 127, "duration": 112}, {"note": 72, "velocity": 99, "duration": 72}, {"note": 70, "velocity": 107, "duration": 76}, {"note": 72, "velocity": 112, "duration": 343}, {"note": 72, "velocity": 127, "duration": 103}, {"note": 0, "velocity": 0, "duration": 377}, {"note": 72, "velocity": 122, "duration": 18}, {"note": 0, "velocity": 0, "duration": 102}, {"note": 72, "velocity": 127, "duration": 85}, {"note": 70, "velocity": 117, "duration": 41}, {"note": 0, "velocity": 0, "duration": 79}, {"note": 70, "velocity": 122, "duration": 78}, {"note": 72, "velocity": 122, "duration": 48}, {"note": 0, "velocity": 0, "duration": 72}, {"note": 70, "velocity": 127, "duration": 204}, {"note": 0, "velocity": 0, "duration": 156}, {"note": 72, "velocity": 127, "duration": 44}, {"note": 0, "velocity": 0, "duration": 76}, {"note": 72, "velocity": 127, "duration": 87}, {"note": 70, "velocity": 112, "duration": 52}, {"note": 0, "velocity": 0, "duration": 68}, {"note": 70, "velocity": 127, "duration": 90}, {"note": 70, "velocity": 54, "duration": 19}, {"note": 72, "velocity": 96, "duration": 67}, {"note": 65, "velocity": 112, "duration": 231}, {"note": 0, "velocity": 0, "duration": 249}, {"note": 65, "velocity": 107, "duration": 63}, {"note": 67, "velocity": 112, "duration": 65}, {"note": 68, "velocity": 127, "duration": 97}, {"note": 77, "velocity": 122, "duration": 66}, {"note": 75, "velocity": 127, "duration": 102}, {"note": 77, "velocity": 112, "duration": 78}, {"note": 75, "velocity": 127, "duration": 51}, {"note": 0, "velocity": 0, "duration": 69}, {"note": 70, "velocity": 112, "duration": 120}, {"note": 72, "velocity": 102, "duration": 407}, {"note": 0, "velocity": 0, "duration": 193}, {"note": 72, "velocity": 122, "duration": 75}, {"note": 75, "velocity": 127, "duration": 97}, {"note": 72, "velocity": 102, "duration": 79}, {"note": 77, "velocity": 127, "duration": 55}, {"note": 0, "velocity": 0, "duration": 65}, {"note": 77, "velocity": 127, "duration": 51}, {"note": 0, "velocity": 0, "duration": 69}, {"note": 77, "velocity": 100, "duration": 93}, {"note": 75, "velocity": 117, "duration": 91}, {"note": 77, "velocity": 112, "duration": 169}, {"note": 0, "velocity": 0, "duration": 71}, {"note": 77, "velocity": 127, "duration": 108}, {"note": 80, "velocity": 122, "duration": 121}, {"note": 75, "velocity": 127, "duration": 58}, {"note": 0, "velocity": 0, "duration": 62}, {"note": 75, "velocity": 122, "duration": 56}, {"note": 0, "velocity": 0, "duration": 64}, {"note": 75, "velocity": 127, "duration": 92}, {"note": 72, "velocity": 97, "duration": 115}, {"note": 75, "velocity": 127, "duration": 190}, {"note": 0, "velocity": 0, "duration": 290}, {"note": 70, "velocity": 127, "duration": 52}, {"note": 0, "velocity": 0, "duration": 68}, {"note": 70, "velocity": 112, "duration": 51}, {"note": 0, "velocity": 0, "duration": 69}, {"note": 70, "velocity": 122, "duration": 66}, {"note": 77, "velocity": 127, "duration": 66}, {"note": 75, "velocity": 127, "duration": 93}, {"note": 77, "velocity": 112, "duration": 87}, {"note": 75, "velocity": 127, "duration": 112}, {"note": 72, "velocity": 99, "duration": 72}, {"note": 70, "velocity": 107, "duration": 76}, {"note": 72, "velocity": 112, "duration": 343}, {"note": 72, "velocity": 127, "duration": 103}, {"note": 0, "velocity": 0, "duration": 377}, {"note": 72, "velocity": 122, "duration": 18}, {"note": 0, "velocity": 0, "duration": 102}, {"note": 72, "velocity": 127, "duration": 85}, {"note": 70, "velocity": 117, "duration": 41}, {"note": 0, "velocity": 0, "duration": 79}, {"note": 70, "velocity": 122, "duration": 78}, {"note": 72, "velocity": 122, "duration": 48}, {"note": 0, "velocity": 0, "duration": 72}, {"note": 70, "velocity": 127, "duration": 204}, {"note": 0, "velocity": 0, "duration": 156}, {"note": 75, "velocity": 122, "duration": 50}, {"note": 0, "velocity": 0, "duration": 70}, {"note": 75, "velocity": 127, "duration": 55}, {"note": 0, "velocity": 0, "duration": 65}, {"note": 72, "velocity": 112, "duration": 54}, {"note": 0, "velocity": 0, "duration": 66}, {"note": 70, "velocity": 117, "duration": 70}, {"note": 72, "velocity": 107, "duration": 68}, {"note": 65, "velocity": 112, "duration": 231}, {"note": 0, "velocity": 0, "duration": 249}, {"note": 63, "velocity": 127, "duration": 51}, {"note": 0, "velocity": 0, "duration": 69}, {"note": 63, "velocity": 112, "duration": 48}, {"note": 0, "velocity": 0, "duration": 72}, {"note": 63, "velocity": 122, "duration": 82}, {"note": 65, "velocity": 97, "duration": 97}, {"note": 70, "velocity": 127, "duration": 110}, {"note": 70, "velocity": 127, "duration": 46}, {"note": 0, "velocity": 0, "duration": 74}, {"note": 70, "velocity": 127, "duration": 70}, {"note": 72, "velocity": 112, "duration": 84}, {"note": 68, "velocity": 127, "duration": 111}, {"note": 67, "velocity": 89, "duration": 118}, {"note": 65, "velocity": 99, "duration": 638}, {"note": 72, "velocity": 127, "duration": 92}, {"note": 72, "velocity": 127, "duration": 85}, {"note": 70, "velocity": 117, "duration": 41}, {"note": 0, "velocity": 0, "duration": 79}, {"note": 70, "velocity": 122, "duration": 78}, {"note": 72, "velocity": 122, "duration": 48}, {"note": 0, "velocity": 0, "duration": 72}, {"note": 70, "velocity": 127, "duration": 204}, {"note": 0, "velocity": 0, "duration": 156}, {"note": 75, "velocity": 122, "duration": 50}, {"note": 0, "velocity": 0, "duration": 70}, {"note": 75, "velocity": 127, "duration": 55}, {"note": 0, "velocity": 0, "duration": 65}, {"note": 72, "velocity": 112, "duration": 54}, {"note": 0, "velocity": 0, "duration": 66}, {"note": 70, "velocity": 117, "duration": 70}, {"note": 72, "velocity": 107, "duration": 68}, {"note": 65, "velocity": 112, "duration": 231}, {"note": 0, "velocity": 0, "duration": 249}, {"note": 63, "velocity": 127, "duration": 51}, {"note": 0, "velocity": 0, "duration": 69}, {"note": 63, "velocity": 112, "duration": 48}, {"note": 0, "velocity": 0, "duration": 72}, {"note": 63, "velocity": 122, "duration": 82}, {"note": 65, "velocity": 97, "duration": 97}, {"note": 70, "velocity": 127, "duration": 102}, {"note": 70, "velocity": 127, "duration": 114}, {"note": 70, "velocity": 122, "duration": 170}, {"note": 0, "velocity": 0, "duration": 61}, {"note": 72, "velocity": 122, "duration": 764}, {"note": 0, "velocity": 0, "duration": 126}, {"note": 68, "velocity": 122, "duration": 302}, {"note": 67, "velocity": 95, "duration": 270}, {"note": 65, "velocity": 97, "duration": 1333}]]