[[{"note": 60, "velocity": 99, "duration": 328}, {"note": 0, "velocity": 0, "duration": 152}, {"note": 60, "velocity": 100, "duration": 307}, {"note": 0, "velocity": 0, "duration": 173}, {"note": 60, "velocity": 112, "duration": 206}, {"note": 60, "velocity": 112, "duration": 231}, {"note": 63, "velocity": 117, "duration": 204}, {"note": 65, "velocity": 96, "duration": 210}, {"note": 67, "velocity": 122, "duration": 1096}, {"note": 0, "velocity": 0, "duration": 344}, {"note": 67, "velocity": 112, "duration": 413}, {"note": 0, "velocity": 0, "duration": 67}, {"note": 65, "velocity": 112, "duration": 567}, {"note": 0, "velocity": 0, "duration": 153}, {"note": 63, "velocity": 122, "duration": 188}, {"note": 65, "velocity": 107, "duration": 347}, {"note": 65, "velocity": 107, "duration": 107}, {"note": 0, "velocity": 0, "duration": 373}, {"note": 70, "velocity": 127, "duration": 356}, {"note": 0, "velocity": 0, "duration": 124}, {"note": 67, "velocity": 112, "duration": 1018}, {"note": 0, "velocity": 0, "duration": 662}, {"note": 60, "velocity": 102, "duration": 282}, {"note": 0, "velocity": 0, "duration": 198}, {"note": 60, "velocity": 112, "duration": 218}, {"note": 60, "velocity": 97, "duration": 246}, {"note": 60, "velocity": 127, "duration": 6}, {"note": 0, "velocity": 0, "duration": 714}, {"note": 63, "velocity": 117, "duration": 248}, {"note": 65, "velocity": 97, "duration": 1010}, {"note": 0, "velocity": 0, "duration": 430}, {"note": 58, "velocity": 127, "duration": 187}, {"note": 60, "velocity": 96, "duration": 185}, {"note": 62, "velocity": 127, "duration": 396}, {"note": 0, "velocity": 0, "duration": 324}, {"note": 60, "velocity": 99, "duration": 142}, {"note": 0, "velocity": 0, "duration": 98}, {"note": 58, "velocity": 99, "duration": 118}, {"note": 0, "velocity": 0, "duration": 122}, {"note": 58, "velocity": 112, "duration": 357}, {"note": 0, "velocity": 0, "duration": 123}, {"note": 62, "velocity": 96, "duration": 221}, {"note": 60, "velocity": 107, "duration": 1594}, {"note": 0, "velocity": 0, "duration": 326}, {"note": 60, "velocity": 100, "duration": 292}, {"note": 0, "velocity": 0, "duration": 188}, {"note": 60, "velocity": 95, "duration": 318}, {"note": 0, "velocity": 0, "duration": 162}, {"note": 60, "velocity": 102, "duration": 117}, {"note": 0, "velocity": 0, "duration": 123}, {"note": 60, "velocity": 100, "duration": 173}, {"note": 0, "velocity": 0, "duration": 67}, {"note": 63, "velocity": 122, "duration": 238}, {"note": 65, "velocity": 99, "duration": 210}, {"note": 67, "velocity": 117, "duration": 1540}, {"note": 67, "velocity": 117, "duration": 100}, {"note": 0, "velocity": 0, "duration": 140}, {"note": 67, "velocity": 122, "duration": 154}, {"note": 0, "velocity": 0, "duration": 86}, {"note": 65, "velocity": 127, "duration": 505}, {"note": 0, "velocity": 0, "duration": 215}, {"note": 63, "velocity": 117, "duration": 192}, {"note": 65, "velocity": 117, "duration": 338}, {"note": 0, "velocity": 0, "duration": 382}, {"note": 70, "velocity": 127, "duration": 341}, {"note": 0, "velocity": 0, "duration": 139}, {"note": 67, "velocity": 112, "duration": 1160}, {"note": 0, "velocity": 0, "duration": 520}, {"note": 60, "velocity": 107, "duration": 301}, {"note": 0, "velocity": 0, "duration": 179}, {"note": 60, "velocity": 112, "duration": 107}, {"note": 0, "velocity": 0, "duration": 133}, {"note": 60, "velocity": 102, "duration": 114}, {"note": 0, "velocity": 0, "duration": 126}, {"note": 60, "velocity": 112, "duration": 613}, {"note": 0, "velocity": 0, "duration": 107}, {"note": 63, "velocity": 112, "duration": 210}, {"note": 65, "velocity": 117, "duration": 1228}, {"note": 0, "velocity": 0, "duration": 212}, {"note": 58, "velocity": 127, "duration": 160}, {"note": 0, "velocity": 0, "duration": 80}, {"note": 60, "velocity": 112, "duration": 145}, {"note": 0, "velocity": 0, "duration": 95}, {"note": 62, "velocity": 127, "duration": 763}, {"note": 60, "velocity": 97, "duration": 187}, {"note": 58, "velocity": 117, "duration": 123}, {"note": 0, "velocity": 0, "duration": 117}, {"note": 58, "velocity": 112, "duration": 327}, {"note": 0, "velocity": 0, "duration": 153}, {"note": 62, "velocity": 99, "duration": 351}, {"note": 0, "velocity": 0, "duration": 129}, {"note": 60, "velocity": 107, "duration": 1325}, {"note": 0, "velocity": 0, "duration": 355}, {"note": 67, "velocity": 97, "duration": 120}, {"note": 65, "velocity": 95, "duration": 140}, {"note": 67, "velocity": 99, "duration": 1031}, {"note": 0, "velocity": 0, "duration": 169}, {"note": 65, "velocity": 122, "duration": 442}, {"note": 67, "velocity": 112, "duration": 1289}, {"note": 0, "velocity": 0, "duration": 151}, {"note": 65, "velocity": 107, "duration": 198}, {"note": 67, "velocity": 102, "duration": 223}, {"note": 70, "velocity": 127, "duration": 494}, {"note": 0, "velocity": 0, "duration": 226}, {"note": 70, "velocity": 127, "duration": 105}, {"note": 0, "velocity": 0, "duration": 135}, {"note": 70, "velocity": 127, "duration": 299}, {"note": 0, "velocity": 0, "duration": 181}, {"note": 65, "velocity": 107, "duration": 119}, {"note": 0, "velocity": 0, "duration": 121}, {"note": 68, "velocity": 122, "duration": 435}, {"note": 0, "velocity": 0, "duration": 165}, {"note": 67, "velocity": 122, "duration": 1260}, {"note": 0, "velocity": 0, "duration": 300}, {"note": 65, "velocity": 127, "duration": 1269}, {"note": 0, "velocity": 0, "duration": 171}, {"note": 63, "velocity": 117, "duration": 406}, {"note": 0, "velocity": 0, "duration": 74}, {"note": 65, "velocity": 127, "duration": 1144}, {"note": 0, "velocity": 0, "duration": 296}, {"note": 58, "velocity": 127, "duration": 142}, {"note": 0, "velocity": 0, "duration": 98}, {"note": 60, "velocity": 99, "duration": 116}, {"note": 0, "velocity": 0, "duration": 124}, {"note": 62, "velocity": 127, "duration": 584}, {"note": 0, "velocity": 0, "duration": 136}, {"note": 60, "velocity": 122, "duration": 190}, {"note": 58, "velocity": 122, "duration": 492}, {"note": 58, "velocity": 127, "duration": 12}, {"note": 0, "velocity": 0, "duration": 468}, {"note": 62, "velocity": 107, "duration": 408}, {"note": 60, "velocity": 102, "duration": 1392}, {"note": 0, "velocity": 0, "duration": 168}, {"note": 60, "velocity": 99, "duration": 328}, {"note": 0, "velocity": 0, "duration": 152}, {"note": 60, "velocity": 100, "duration": 307}, {"note": 0, "velocity": 0, "duration": 173}, {"note": 60, "velocity": 112, "duration": 206}, {"note": 60, "velocity": 112, "duration": 231}, {"note": 63, "velocity": 117, "duration": 204}, {"note": 65, "velocity": 96, "duration": 210}, {"note": 67, "velocity": 122, "duration": 1096}, {"note": 0, "velocity": 0, "duration": 344}, {"note": 67, "velocity": 112, "duration": 62}, {"note": 0, "velocity": 0, "duration": 178}, {"note": 67, "velocity": 127, "duration": 169}, {"note": 0, "velocity": 0, "duration": 71}, {"note": 65, "velocity": 112, "duration": 567}, {"note": 0, "velocity": 0, "duration": 153}, {"note": 63, "velocity": 122, "duration": 188}, {"note": 65, "velocity": 107, "duration": 347}, {"note": 65, "velocity": 107, "duration": 107}, {"note": 0, "velocity": 0, "duration": 373}, {"note": 70, "velocity": 127, "duration": 356}, {"note": 0, "velocity": 0, "duration": 124}, {"note": 67, "velocity": 112, "duration": 1018}, {"note": 0, "velocity": 0, "duration": 662}, {"note": 60, "velocity": 102, "duration": 282}, {"note": 0, "velocity": 0, "duration": 198}, {"note": 60, "velocity": 112, "duration": 218}, {"note": 60, "velocity": 97, "duration": 246}, {"note": 60, "velocity": 127, "duration": 6}, {"note": 0, "velocity": 0, "duration": 234}, {"note": 60, "velocity": 99, "duration": 128}, {"note": 0, "velocity": 0, "duration": 112}, {"note": 60, "velocity": 100, "duration": 219}, {"note": 63, "velocity": 117, "duration": 248}, {"note": 65, "velocity": 97, "duration": 1010}, {"note": 0, "velocity": 0, "duration": 430}, {"note": 62, "velocity": 127, "duration": 220}, {"note": 60, "velocity": 90, "duration": 189}, {"note": 58, "velocity": 112, "duration": 533}, {"note": 0, "velocity": 0, "duration": 187}, {"note": 58, "velocity": 117, "duration": 118}, {"note": 0, "velocity": 0, "duration": 122}, {"note": 58, "velocity": 122, "duration": 480}, {"note": 58, "velocity": 127, "duration": 204}, {"note": 62, "velocity": 99, "duration": 226}, {"note": 60, "velocity": 99, "duration": 1888}, {"note": 0, "velocity": 0, "duration": 15392}, {"note": 60, "velocity": 99, "duration": 328}, {"note": 0, "velocity": 0, "duration": 152}, {"note": 60, "velocity": 100, "duration": 307}, {"note": 0, "velocity": 0, "duration": 173}, {"note": 60, "velocity": 112, "duration": 206}, {"note": 60, "velocity": 112, "duration": 231}, {"note": 63, "velocity": 117, "duration": 204}, {"note": 65, "velocity": 96, "duration": 210}, {"note": 67, "velocity": 122, "duration": 1096}, {"note": 0, "velocity": 0, "duration": 344}, {"note": 67, "velocity": 112, "duration": 413}, {"note": 0, "velocity": 0, "duration": 67}, {"note": 65, "velocity": 112, "duration": 567}, {"note": 0, "velocity": 0, "duration": 153}, {"note": 63, "velocity": 122, "duration": 188}, {"note": 65, "velocity": 107, "duration": 347}, {"note": 65, "velocity": 107, "duration": 107}, {"note": 0, "velocity": 0, "duration": 373}, {"note": 70, "velocity": 127, "duration": 356}, {"note": 0, "velocity": 0, "duration": 124}, {"note": 67, "velocity": 112, "duration": 1018}, {"note": 0, "velocity": 0, "duration": 662}, {"note": 60, "velocity": 102, "duration": 282}, {"note": 0, "velocity": 0, "duration": 198}, {"note": 60, "velocity": 112, "duration": 218}, {"note": 60, "velocity": 97, "duration": 246}, {"note": 60, "velocity": 127, "duration": 6}, {"note": 0, "velocity": 0, "duration": 714}, {"note": 63, "velocity": 117, "duration": 248}, {"note": 65, "velocity": 97, "duration": 1010}, {"note": 0, "velocity": 0, "duration": 430}, {"note": 58, "velocity": 127, "duration": 187}, {"note": 60, "velocity": 96, "duration": 185}, {"note": 62, "velocity": 127, "duration": 396}, {"note": 0, "velocity": 0, "duration": 324}, {"note": 60, "velocity": 99, "duration": 142}, {"note": 0, "velocity": 0, "duration": 98}, {"note": 58, "velocity": 99, "duration": 118}, {"note": 0, "velocity": 0, "duration": 122}, {"note": 58, "velocity": 112, "duration": 357}, {"note": 0, "velocity": 0, "duration": 123}, {"note": 62, "velocity": 96, "duration": 221}, {"note": 60, "velocity": 107, "duration": 1594}, {"note": 0, "velocity": 0, "duration": 326}, {"note": 60, "velocity": 100, "duration": 292}, {"note": 0, "velocity": 0, "duration": 188}, {"note": 60, "velocity": 95, "duration": 318}, {"note": 0, "velocity": 0, "duration": 162}, {"note": 60, "velocity": 102, "duration": 117}, {"note": 0, "velocity": 0, "duration": 123}, {"note": 60, "velocity": 100, "duration": 173}, {"note": 0, "velocity": 0, "duration": 67}, {"note": 63, "velocity": 122, "duration": 238}, {"note": 65, "velocity": 99, "duration": 210}, {"note": 67, "velocity": 117, "duration": 960}, {"note": 0, "velocity": 0, "duration": 480}, {"note": 67, "velocity": 117, "duration": 100}, {"note": 0, "velocity": 0, "duration": 140}, {"note": 67, "velocity": 122, "duration": 154}, {"note": 0, "velocity": 0, "duration": 86}, {"note": 65, "velocity": 127, "duration": 505}, {"note": 0, "velocity": 0, "duration": 215}, {"note": 63, "velocity": 117, "duration": 192}, {"note": 65, "velocity": 117, "duration": 338}, {"note": 0, "velocity": 0, "duration": 382}, {"note": 70, "velocity": 127, "duration": 341}, {"note": 0, "velocity": 0, "duration": 139}, {"note": 67, "velocity": 112, "duration": 1160}, {"note": 0, "velocity": 0, "duration": 520}, {"note": 60, "velocity": 107, "duration": 301}, {"note": 0, "velocity": 0, "duration": 179}, {"note": 60, "velocity": 112, "duration": 107}, {"note": 0, "velocity": 0, "duration": 133}, {"note": 60, "velocity": 102, "duration": 114}, {"note": 0, "velocity": 0, "duration": 126}, {"note": 60, "velocity": 112, "duration": 613}, {"note": 0, "velocity": 0, "duration": 107}, {"note": 63, "velocity": 112, "duration": 210}, {"note": 65, "velocity": 117, "duration": 1228}, {"note": 0, "velocity": 0, "duration": 212}, {"note": 58, "velocity": 127, "duration": 160}, {"note": 0, "velocity": 0, "duration": 80}, {"note": 60, "velocity": 112, "duration": 145}, {"note": 0, "velocity": 0, "duration": 95}, {"note": 62, "velocity": 127, "duration": 763}, {"note": 60, "velocity": 97, "duration": 187}, {"note": 58, "velocity": 117, "duration": 123}, {"note": 0, "velocity": 0, "duration": 117}, {"note": 58, "velocity": 112, "duration": 327}, {"note": 0, "velocity": 0, "duration": 153}, {"note": 62, "velocity": 99, "duration": 351}, {"note": 0, "velocity": 0, "duration": 129}, {"note": 60, "velocity": 107, "duration": 1325}, {"note": 0, "velocity": 0, "duration": 355}, {"note": 67, "velocity": 97, "duration": 120}, {"note": 65, "velocity": 95, "duration": 140}, {"note": 67, "velocity": 99, "duration": 1031}, {"note": 0, "velocity": 0, "duration": 169}, {"note": 65, "velocity": 122, "duration": 442}, {"note": 67, "velocity": 112, "duration": 1289}, {"note": 0, "velocity": 0, "duration": 151}, {"note": 65, "velocity": 107, "duration": 198}, {"note": 67, "velocity": 102, "duration": 223}, {"note": 70, "velocity": 127, "duration": 494}, {"note": 0, "velocity": 0, "duration": 226}, {"note": 70, "velocity": 127, "duration": 105}, {"note": 0, "velocity": 0, "duration": 135}, {"note": 70, "velocity": 127, "duration": 299}, {"note": 0, "velocity": 0, "duration": 181}, {"note": 65, "velocity": 107, "duration": 119}, {"note": 0, "velocity": 0, "duration": 121}, {"note": 68, "velocity": 122, "duration": 435}, {"note": 0, "velocity": 0, "duration": 165}, {"note": 67, "velocity": 122, "duration": 1260}, {"note": 0, "velocity": 0, "duration": 300}, {"note": 65, "velocity": 127, "duration": 1269}, {"note": 0, "velocity": 0, "duration": 171}, {"note": 63, "velocity": 117, "duration": 406}, {"note": 0, "velocity": 0, "duration": 74}, {"note": 65, "velocity": 127, "duration": 1144}, {"note": 0, "velocity": 0, "duration": 296}, {"note": 58, "velocity": 127, "duration": 142}, {"note": 0, "velocity": 0, "duration": 98}, {"note": 60, "velocity": 99, "duration": 116}, {"note": 0, "velocity": 0, "duration": 124}, {"note": 62, "velocity": 127, "duration": 584}, {"note": 0, "velocity": 0, "duration": 136}, {"note": 60, "velocity": 122, "duration": 190}, {"note": 58, "velocity": 122, "duration": 492}, {"note": 58, "velocity": 127, "duration": 12}, {"note": 0, "velocity": 0, "duration": 468}, {"note": 62, "velocity": 107, "duration": 408}, {"note": 60, "velocity": 102, "duration": 1392}, {"note": 0, "velocity": 0, "duration": 168}, {"note": 60, "velocity": 99, "duration": 328}, {"note": 0, "velocity": 0, "duration": 152}, {"note": 60, "velocity": 100, "duration": 307}, {"note": 0, "velocity": 0, "duration": 173}, {"note": 60, "velocity": 112, "duration": 206}, {"note": 60, "velocity": 112, "duration": 231}, {"note": 63, "velocity": 117, "duration": 204}, {"note": 65, "velocity": 96, "duration": 210}, {"note": 67, "velocity": 122, "duration": 1096}, {"note": 0, "velocity": 0, "duration": 344}, {"note": 67, "velocity": 112, "duration": 62}, {"note": 0, "velocity": 0, "duration": 178}, {"note": 67, "velocity": 127, "duration": 169}, {"note": 0, "velocity": 0, "duration": 71}, {"note": 65, "velocity": 112, "duration": 567}, {"note": 0, "velocity": 0, "duration": 153}, {"note": 63, "velocity": 122, "duration": 188}, {"note": 65, "velocity": 107, "duration": 347}, {"note": 65, "velocity": 107, "duration": 107}, {"note": 0, "velocity": 0, "duration": 373}, {"note": 70, "velocity": 127, "duration": 356}, {"note": 0, "velocity": 0, "duration": 124}, {"note": 67, "velocity": 112, "duration": 1018}, {"note": 0, "velocity": 0, "duration": 662}, {"note": 60, "velocity": 102, "duration": 282}, {"note": 0, "velocity": 0, "duration": 198}, {"note": 60, "velocity": 112, "duration": 218}, {"note": 60, "velocity": 97, "duration": 246}, {"note": 60, "velocity": 127, "duration": 6}, {"note": 0, "velocity": 0, "duration": 234}, {"note": 60, "velocity": 99, "duration": 128}, {"note": 0, "velocity": 0, "duration": 112}, {"note": 60, "velocity": 100, "duration": 219}, {"note": 63, "velocity": 117, "duration": 248}, {"note": 65, "velocity": 97, "duration": 1010}, {"note": 0, "velocity": 0, "duration": 430}, {"note": 62, "velocity": 127, "duration": 220}, {"note": 60, "velocity": 90, "duration": 189}, {"note": 58, "velocity": 112, "duration": 533}, {"note": 0, "velocity": 0, "duration": 187}, {"note": 58, "velocity": 117, "duration": 118}, {"note": 0, "velocity": 0, "duration": 122}, {"note": 58, "velocity": 122, "duration": 480}, {"note": 58, "velocity": 127, "duration": 204}, {"note": 62, "velocity": 99, "duration": 226}, {"note": 60, "velocity": 99, "duration": 1672}, {"note": 0, "velocity": 0, "duration": 248}, {"note": 60, "velocity": 102, "duration": 282}, {"note": 0, "velocity": 0, "duration": 198}, {"note": 60, "velocity": 112, "duration": 218}, {"note": 60, "velocity": 97, "duration": 246}, {"note": 60, "velocity": 127, "duration": 6}, {"note": 0, "velocity": 0, "duration": 234}, {"note": 60, "velocity": 99, "duration": 128}, {"note": 0, "velocity": 0, "duration": 112}, {"note": 60, "velocity": 100, "duration": 219}, {"note": 63, "velocity": 117, "duration": 248}, {"note": 65, "velocity": 97, "duration": 1010}, {"note": 0, "velocity": 0, "duration": 430}, {"note": 62, "velocity": 127, "duration": 220}, {"note": 60, "velocity": 90, "duration": 189}, {"note": 58, "velocity": 112, "duration": 533}, {"note": 0, "velocity": 0, "duration": 187}, {"note": 58, "velocity": 117, "duration": 118}, {"note": 0, "velocity": 0, "duration": 122}, {"note": 58, "velocity": 122, "duration": 480}, {"note": 58, "velocity": 127, "duration": 204}, {"note": 62, "velocity": 99, "duration": 226}, {"note": 60, "velocity": 99, "duration": 1440}, {"note": 0, "velocity": 0, "duration": 480}, {"note": 60, "velocity": 102, "duration": 282}, {"note": 0, "velocity": 0, "duration": 198}, {"note": 60, "velocity": 112, "duration": 218}, {"note": 60, "velocity": 97, "duration": 246}, {"note": 60, "velocity": 127, "duration": 6}, {"note": 0, "velocity": 0, "duration": 234}, {"note": 60, "velocity": 99, "duration": 128}, {"note": 0, "velocity": 0, "duration": 112}, {"note": 60, "velocity": 100, "duration": 219}, {"note": 63, "velocity": 117, "duration": 248}, {"note": 65, "velocity": 97, "duration": 1010}, {"note": 0, "velocity": 0, "duration": 430}, {"note": 62, "velocity": 127, "duration": 220}, {"note": 60, "velocity": 90, "duration": 189}, {"note": 58, "velocity": 112, "duration": 533}, {"note": 0, "velocity": 0, "duration": 187}, {"note": 58, "velocity": 117, "duration": 118}, {"note": 0, "velocity": 0, "duration": 122}, {"note": 58, "velocity": 122, "duration": 480}, {"note": 58, "velocity": 127, "duration": 204}, {"note": 62, "velocity": 99, "duration": 226}, {"note": 60, "velocity": 99, "duration": 1920}, {"note": 60, "velocity": 102, "duration": 282}, {"note": 0, "velocity": 0, "duration": 198}, {"note": 60, "velocity": 112, "duration": 218}, {"note": 60, "velocity": 97, "duration": 246}, {"note": 60, "velocity": 127, "duration": 6}, {"note": 0, "velocity": 0, "duration": 234}, {"note": 60, "velocity": 99, "duration": 128}, {"note": 0, "velocity": 0, "duration": 112}, {"note": 60, "velocity": 100, "duration": 219}, {"note": 63, "velocity": 117, "duration": 248}, {"note": 65, "velocity": 97, "duration": 1010}, {"note": 0, "velocity": 0, "duration": 430}, {"note": 62, "velocity": 127, "duration": 220}, {"note": 60, "velocity": 90, "duration": 189}, {"note": 58, "velocity": 112, "duration": 533}, {"note": 0, "velocity": 0, "duration": 187}, {"note": 58, "velocity": 117, "duration": 118}, {"note": 0, "velocity": 0, "duration": 122}, {"note": 58, "velocity": 122, "duration": 480}, {"note": 58, "velocity": 127, "duration": 204}, {"note": 62, "velocity": 99, "duration": 226}, {"note": 60, "velocity": 99, "duration": 19}, {"note": 60, "velocity": 102, "duration": 1}, {"note": 0, "velocity": 0, "duration": 99}, {"note": 60, "velocity": 112, "duration": 17}, {"note": 60, "velocity": 97, "duration": 85}, {"note": 60, "velocity": 127, "duration": 6}, {"note": 60, "velocity": 99, "duration": 47}, {"note": 60, "velocity": 100, "duration": 78}, {"note": 63, "velocity": 117, "duration": 47}, {"note": 65, "velocity": 97, "duration": 57}, {"note": 0, "velocity": 0, "duration": 79}, {"note": 62, "velocity": 127, "duration": 99}, {"note": 60, "velocity": 90, "duration": 8}, {"note": 58, "velocity": 112, "duration": 92}, {"note": 0, "velocity": 0, "duration": 79}, {"note": 58, "velocity": 117, "duration": 97}, {"note": 58, "velocity": 122, "duration": 99}, {"note": 58, "velocity": 127, "duration": 3}, {"note": 62, "velocity": 99, "duration": 65}, {"note": 60, "velocity": 99, "duration": 527}]]