[[{"note": 65, "velocity": 117, "duration": 58}, {"note": 0, "velocity": 0, "duration": 62}, {"note": 65, "velocity": 93, "duration": 62}, {"note": 65, "velocity": 127, "duration": 249}, {"note": 0, "velocity": 0, "duration": 111}, {"note": 61, "velocity": 102, "duration": 134}, {"note": 63, "velocity": 107, "duration": 161}, {"note": 0, "velocity": 0, "duration": 79}, {"note": 70, "velocity": 117, "duration": 100}, {"note": 68, "velocity": 122, "duration": 507}, {"note": 0, "velocity": 0, "duration": 213}, {"note": 70, "velocity": 122, "duration": 46}, {"note": 0, "velocity": 0, "duration": 74}, {"note": 70, "velocity": 112, "duration": 52}, {"note": 0, "velocity": 0, "duration": 68}, {"note": 70, "velocity": 102, "duration": 45}, {"note": 0, "velocity": 0, "duration": 75}, {"note": 70, "velocity": 127, "duration": 92}, {"note": 68, "velocity": 117, "duration": 114}, {"note": 66, "velocity": 102, "duration": 125}, {"note": 68, "velocity": 107, "duration": 790}, {"note": 68, "velocity": 127, "duration": 119}, {"note": 66, "velocity": 99, "duration": 116}, {"note": 65, "velocity": 102, "duration": 249}, {"note": 66, "velocity": 107, "duration": 64}, {"note": 66, "velocity": 122, "duration": 279}, {"note": 0, "velocity": 0, "duration": 81}, {"note": 68, "velocity": 122, "duration": 121}, {"note": 66, "velocity": 112, "duration": 81}, {"note": 65, "velocity": 102, "duration": 243}, {"note": 66, "velocity": 100, "duration": 54}, {"note": 0, "velocity": 0, "duration": 66}, {"note": 66, "velocity": 122, "duration": 297}, {"note": 0, "velocity": 0, "duration": 63}, {"note": 61, "velocity": 112, "duration": 91}, {"note": 63, "velocity": 102, "duration": 71}, {"note": 65, "velocity": 97, "duration": 171}, {"note": 0, "velocity": 0, "duration": 69}, {"note": 65, "velocity": 112, "duration": 178}, {"note": 0, "velocity": 0, "duration": 62}, {"note": 65, "velocity": 97, "duration": 103}, {"note": 63, "velocity": 112, "duration": 135}, {"note": 61, "velocity": 97, "duration": 76}, {"note": 65, "velocity": 95, "duration": 228}, {"note": 63, "velocity": 99, "duration": 783}, {"note": 0, "velocity": 0, "duration": 297}, {"note": 65, "velocity": 117, "duration": 58}, {"note": 0, "velocity": 0, "duration": 62}, {"note": 65, "velocity": 93, "duration": 62}, {"note": 65, "velocity": 127, "duration": 249}, {"note": 0, "velocity": 0, "duration": 111}, {"note": 61, "velocity": 102, "duration": 134}, {"note": 63, "velocity": 107, "duration": 161}, {"note": 0, "velocity": 0, "duration": 79}, {"note": 70, "velocity": 117, "duration": 100}, {"note": 68, "velocity": 122, "duration": 507}, {"note": 0, "velocity": 0, "duration": 213}, {"note": 70, "velocity": 122, "duration": 46}, {"note": 0, "velocity": 0, "duration": 74}, {"note": 70, "velocity": 112, "duration": 52}, {"note": 0, "velocity": 0, "duration": 68}, {"note": 70, "velocity": 102, "duration": 45}, {"note": 0, "velocity": 0, "duration": 75}, {"note": 70, "velocity": 127, "duration": 92}, {"note": 68, "velocity": 117, "duration": 114}, {"note": 66, "velocity": 102, "duration": 125}, {"note": 68, "velocity": 107, "duration": 790}, {"note": 68, "velocity": 127, "duration": 119}, {"note": 66, "velocity": 99, "duration": 116}, {"note": 65, "velocity": 102, "duration": 249}, {"note": 66, "velocity": 107, "duration": 64}, {"note": 66, "velocity": 122, "duration": 279}, {"note": 0, "velocity": 0, "duration": 81}, {"note": 68, "velocity": 122, "duration": 121}, {"note": 66, "velocity": 112, "duration": 81}, {"note": 65, "velocity": 102, "duration": 243}, {"note": 66, "velocity": 100, "duration": 54}, {"note": 0, "velocity": 0, "duration": 66}, {"note": 66, "velocity": 122, "duration": 297}, {"note": 0, "velocity": 0, "duration": 63}, {"note": 61, "velocity": 112, "duration": 91}, {"note": 63, "velocity": 102, "duration": 71}, {"note": 65, "velocity": 97, "duration": 171}, {"note": 0, "velocity": 0, "duration": 69}, {"note": 65, "velocity": 112, "duration": 62}, {"note": 65, "velocity": 122, "duration": 128}, {"note": 0, "velocity": 0, "duration": 112}, {"note": 66, "velocity": 127, "duration": 107}, {"note": 68, "velocity": 122, "duration": 98}, {"note": 65, "velocity": 102, "duration": 264}, {"note": 63, "velocity": 112, "duration": 532}, {"note": 61, "velocity": 117, "duration": 98}, {"note": 63, "velocity": 122, "duration": 360}, {"note": 61, "velocity": 127, "duration": 821}, {"note": 0, "velocity": 0, "duration": 739}, {"note": 70, "velocity": 127, "duration": 70}, {"note": 72, "velocity": 99, "duration": 120}, {"note": 73, "velocity": 127, "duration": 171}, {"note": 0, "velocity": 0, "duration": 69}, {"note": 73, "velocity": 127, "duration": 148}, {"note": 0, "velocity": 0, "duration": 92}, {"note": 73, "velocity": 127, "duration": 68}, {"note": 72, "velocity": 127, "duration": 105}, {"note": 70, "velocity": 107, "duration": 43}, {"note": 0, "velocity": 0, "duration": 77}, {"note": 70, "velocity": 127, "duration": 242}, {"note": 68, "velocity": 107, "duration": 437}, {"note": 0, "velocity": 0, "duration": 163}, {"note": 65, "velocity": 107, "duration": 75}, {"note": 68, "velocity": 127, "duration": 86}, {"note": 70, "velocity": 127, "duration": 143}, {"note": 0, "velocity": 0, "duration": 97}, {"note": 70, "velocity": 127, "duration": 171}, {"note": 0, "velocity": 0, "duration": 69}, {"note": 73, "velocity": 122, "duration": 112}, {"note": 68, "velocity": 102, "duration": 108}, {"note": 61, "velocity": 117, "duration": 121}, {"note": 63, "velocity": 112, "duration": 204}, {"note": 65, "velocity": 100, "duration": 536}, {"note": 0, "velocity": 0, "duration": 64}, {"note": 70, "velocity": 127, "duration": 80}, {"note": 72, "velocity": 100, "duration": 111}, {"note": 73, "velocity": 127, "duration": 164}, {"note": 0, "velocity": 0, "duration": 76}, {"note": 73, "velocity": 127, "duration": 134}, {"note": 0, "velocity": 0, "duration": 106}, {"note": 73, "velocity": 127, "duration": 72}, {"note": 73, "velocity": 127, "duration": 86}, {"note": 70, "velocity": 127, "duration": 65}, {"note": 70, "velocity": 127, "duration": 197}, {"note": 68, "velocity": 112, "duration": 391}, {"note": 0, "velocity": 0, "duration": 209}, {"note": 65, "velocity": 102, "duration": 111}, {"note": 68, "velocity": 112, "duration": 98}, {"note": 70, "velocity": 127, "duration": 142}, {"note": 0, "velocity": 0, "duration": 98}, {"note": 70, "velocity": 117, "duration": 48}, {"note": 0, "velocity": 0, "duration": 72}, {"note": 70, "velocity": 127, "duration": 42}, {"note": 0, "velocity": 0, "duration": 78}, {"note": 70, "velocity": 127, "duration": 46}, {"note": 0, "velocity": 0, "duration": 74}, {"note": 73, "velocity": 122, "duration": 183}, {"note": 0, "velocity": 0, "duration": 177}, {"note": 75, "velocity": 127, "duration": 659}, {"note": 0, "velocity": 0, "duration": 61}, {"note": 70, "velocity": 127, "duration": 70}, {"note": 72, "velocity": 99, "duration": 120}, {"note": 73, "velocity": 127, "duration": 171}, {"note": 0, "velocity": 0, "duration": 69}, {"note": 73, "velocity": 127, "duration": 148}, {"note": 0, "velocity": 0, "duration": 92}, {"note": 75, "velocity": 127, "duration": 68}, {"note": 73, "velocity": 127, "duration": 101}, {"note": 65, "velocity": 92, "duration": 97}, {"note": 70, "velocity": 127, "duration": 176}, {"note": 0, "velocity": 0, "duration": 64}, {"note": 68, "velocity": 107, "duration": 437}, {"note": 0, "velocity": 0, "duration": 163}, {"note": 65, "velocity": 107, "duration": 75}, {"note": 68, "velocity": 127, "duration": 86}, {"note": 70, "velocity": 127, "duration": 143}, {"note": 0, "velocity": 0, "duration": 97}, {"note": 70, "velocity": 127, "duration": 171}, {"note": 0, "velocity": 0, "duration": 69}, {"note": 73, "velocity": 122, "duration": 112}, {"note": 68, "velocity": 102, "duration": 108}, {"note": 61, "velocity": 117, "duration": 121}, {"note": 63, "velocity": 112, "duration": 204}, {"note": 65, "velocity": 100, "duration": 536}, {"note": 0, "velocity": 0, "duration": 64}, {"note": 70, "velocity": 127, "duration": 80}, {"note": 72, "velocity": 100, "duration": 111}, {"note": 73, "velocity": 127, "duration": 164}, {"note": 0, "velocity": 0, "duration": 76}, {"note": 73, "velocity": 127, "duration": 134}, {"note": 0, "velocity": 0, "duration": 106}, {"note": 73, "velocity": 127, "duration": 72}, {"note": 72, "velocity": 122, "duration": 82}, {"note": 73, "velocity": 127, "duration": 83}, {"note": 75, "velocity": 122, "duration": 159}, {"note": 0, "velocity": 0, "duration": 81}, {"note": 77, "velocity": 127, "duration": 423}, {"note": 0, "velocity": 0, "duration": 177}, {"note": 68, "velocity": 127, "duration": 44}, {"note": 0, "velocity": 0, "duration": 76}, {"note": 68, "velocity": 122, "duration": 45}, {"note": 0, "velocity": 0, "duration": 75}, {"note": 70, "velocity": 127, "duration": 125}, {"note": 73, "velocity": 127, "duration": 135}, {"note": 0, "velocity": 0, "duration": 105}, {"note": 73, "velocity": 127, "duration": 56}, {"note": 0, "velocity": 0, "duration": 64}, {"note": 73, "velocity": 127, "duration": 55}, {"note": 0, "velocity": 0, "duration": 65}, {"note": 75, "velocity": 127, "duration": 285}, {"note": 0, "velocity": 0, "duration": 75}, {"note": 73, "velocity": 127, "duration": 928}, {"note": 0, "velocity": 0, "duration": 7952}, {"note": 65, "velocity": 117, "duration": 58}, {"note": 0, "velocity": 0, "duration": 62}, {"note": 65, "velocity": 93, "duration": 62}, {"note": 65, "velocity": 127, "duration": 249}, {"note": 0, "velocity": 0, "duration": 111}, {"note": 61, "velocity": 102, "duration": 134}, {"note": 63, "velocity": 107, "duration": 161}, {"note": 0, "velocity": 0, "duration": 79}, {"note": 70, "velocity": 117, "duration": 100}, {"note": 68, "velocity": 122, "duration": 507}, {"note": 0, "velocity": 0, "duration": 213}, {"note": 70, "velocity": 122, "duration": 46}, {"note": 0, "velocity": 0, "duration": 74}, {"note": 70, "velocity": 112, "duration": 52}, {"note": 0, "velocity": 0, "duration": 68}, {"note": 70, "velocity": 102, "duration": 45}, {"note": 0, "velocity": 0, "duration": 75}, {"note": 70, "velocity": 127, "duration": 92}, {"note": 68, "velocity": 117, "duration": 114}, {"note": 66, "velocity": 102, "duration": 125}, {"note": 68, "velocity": 107, "duration": 790}, {"note": 68, "velocity": 127, "duration": 119}, {"note": 66, "velocity": 99, "duration": 116}, {"note": 65, "velocity": 102, "duration": 249}, {"note": 66, "velocity": 107, "duration": 64}, {"note": 66, "velocity": 122, "duration": 279}, {"note": 0, "velocity": 0, "duration": 81}, {"note": 68, "velocity": 122, "duration": 121}, {"note": 66, "velocity": 112, "duration": 81}, {"note": 65, "velocity": 102, "duration": 243}, {"note": 66, "velocity": 100, "duration": 54}, {"note": 0, "velocity": 0, "duration": 66}, {"note": 66, "velocity": 122, "duration": 297}, {"note": 0, "velocity": 0, "duration": 63}, {"note": 61, "velocity": 112, "duration": 91}, {"note": 63, "velocity": 102, "duration": 71}, {"note": 65, "velocity": 97, "duration": 171}, {"note": 0, "velocity": 0, "duration": 69}, {"note": 65, "velocity": 112, "duration": 178}, {"note": 0, "velocity": 0, "duration": 62}, {"note": 65, "velocity": 97, "duration": 103}, {"note": 63, "velocity": 112, "duration": 135}, {"note": 61, "velocity": 97, "duration": 76}, {"note": 65, "velocity": 95, "duration": 228}, {"note": 63, "velocity": 99, "duration": 783}, {"note": 0, "velocity": 0, "duration": 297}, {"note": 65, "velocity": 117, "duration": 58}, {"note": 0, "velocity": 0, "duration": 62}, {"note": 65, "velocity": 93, "duration": 62}, {"note": 65, "velocity": 127, "duration": 249}, {"note": 0, "velocity": 0, "duration": 111}, {"note": 61, "velocity": 102, "duration": 134}, {"note": 63, "velocity": 107, "duration": 161}, {"note": 0, "velocity": 0, "duration": 79}, {"note": 70, "velocity": 117, "duration": 100}, {"note": 68, "velocity": 122, "duration": 507}, {"note": 0, "velocity": 0, "duration": 213}, {"note": 70, "velocity": 122, "duration": 46}, {"note": 0, "velocity": 0, "duration": 74}, {"note": 70, "velocity": 112, "duration": 52}, {"note": 0, "velocity": 0, "duration": 68}, {"note": 70, "velocity": 102, "duration": 45}, {"note": 0, "velocity": 0, "duration": 75}, {"note": 70, "velocity": 127, "duration": 92}, {"note": 68, "velocity": 117, "duration": 114}, {"note": 66, "velocity": 102, "duration": 125}, {"note": 68, "velocity": 107, "duration": 790}, {"note": 68, "velocity": 127, "duration": 119}, {"note": 66, "velocity": 99, "duration": 116}, {"note": 65, "velocity": 102, "duration": 249}, {"note": 66, "velocity": 107, "duration": 64}, {"note": 66, "velocity": 122, "duration": 279}, {"note": 0, "velocity": 0, "duration": 81}, {"note": 68, "velocity": 122, "duration": 121}, {"note": 66, "velocity": 112, "duration": 81}, {"note": 65, "velocity": 102, "duration": 243}, {"note": 66, "velocity": 100, "duration": 54}, {"note": 0, "velocity": 0, "duration": 66}, {"note": 66, "velocity": 122, "duration": 297}, {"note": 0, "velocity": 0, "duration": 63}, {"note": 61, "velocity": 112, "duration": 91}, {"note": 63, "velocity": 102, "duration": 71}, {"note": 65, "velocity": 97, "duration": 171}, {"note": 0, "velocity": 0, "duration": 69}, {"note": 65, "velocity": 112, "duration": 62}, {"note": 65, "velocity": 122, "duration": 128}, {"note": 0, "velocity": 0, "duration": 112}, {"note": 66, "velocity": 127, "duration": 107}, {"note": 68, "velocity": 122, "duration": 98}, {"note": 65, "velocity": 102, "duration": 264}, {"note": 63, "velocity": 112, "duration": 532}, {"note": 61, "velocity": 117, "duration": 98}, {"note": 63, "velocity": 122, "duration": 360}, {"note": 61, "velocity": 127, "duration": 821}, {"note": 0, "velocity": 0, "duration": 739}, {"note": 70, "velocity": 127, "duration": 70}, {"note": 72, "velocity": 99, "duration": 120}, {"note": 73, "velocity": 127, "duration": 171}, {"note": 0, "velocity": 0, "duration": 69}, {"note": 73, "velocity": 127, "duration": 148}, {"note": 0, "velocity": 0, "duration": 92}, {"note": 73, "velocity": 127, "duration": 68}, {"note": 72, "velocity": 127, "duration": 105}, {"note": 70, "velocity": 107, "duration": 43}, {"note": 0, "velocity": 0, "duration": 77}, {"note": 70, "velocity": 127, "duration": 242}, {"note": 68, "velocity": 107, "duration": 437}, {"note": 0, "velocity": 0, "duration": 163}, {"note": 65, "velocity": 107, "duration": 75}, {"note": 68, "velocity": 127, "duration": 86}, {"note": 70, "velocity": 127, "duration": 143}, {"note": 0, "velocity": 0, "duration": 97}, {"note": 70, "velocity": 127, "duration": 171}, {"note": 0, "velocity": 0, "duration": 69}, {"note": 73, "velocity": 122, "duration": 112}, {"note": 68, "velocity": 102, "duration": 108}, {"note": 61, "velocity": 117, "duration": 121}, {"note": 63, "velocity": 112, "duration": 204}, {"note": 65, "velocity": 100, "duration": 536}, {"note": 0, "velocity": 0, "duration": 64}, {"note": 70, "velocity": 127, "duration": 80}, {"note": 72, "velocity": 100, "duration": 111}, {"note": 73, "velocity": 127, "duration": 164}, {"note": 0, "velocity": 0, "duration": 76}, {"note": 73, "velocity": 127, "duration": 134}, {"note": 0, "velocity": 0, "duration": 106}, {"note": 73, "velocity": 127, "duration": 72}, {"note": 73, "velocity": 127, "duration": 86}, {"note": 70, "velocity": 127, "duration": 65}, {"note": 70, "velocity": 127, "duration": 197}, {"note": 68, "velocity": 112, "duration": 391}, {"note": 0, "velocity": 0, "duration": 209}, {"note": 65, "velocity": 102, "duration": 111}, {"note": 68, "velocity": 112, "duration": 98}, {"note": 70, "velocity": 127, "duration": 142}, {"note": 0, "velocity": 0, "duration": 98}, {"note": 70, "velocity": 117, "duration": 48}, {"note": 0, "velocity": 0, "duration": 72}, {"note": 70, "velocity": 127, "duration": 42}, {"note": 0, "velocity": 0, "duration": 78}, {"note": 70, "velocity": 127, "duration": 46}, {"note": 0, "velocity": 0, "duration": 74}, {"note": 73, "velocity": 122, "duration": 183}, {"note": 0, "velocity": 0, "duration": 177}, {"note": 75, "velocity": 127, "duration": 659}, {"note": 0, "velocity": 0, "duration": 61}, {"note": 70, "velocity": 127, "duration": 70}, {"note": 72, "velocity": 99, "duration": 120}, {"note": 73, "velocity": 127, "duration": 171}, {"note": 0, "velocity": 0, "duration": 69}, {"note": 73, "velocity": 127, "duration": 148}, {"note": 0, "velocity": 0, "duration": 92}, {"note": 75, "velocity": 127, "duration": 68}, {"note": 73, "velocity": 127, "duration": 101}, {"note": 65, "velocity": 92, "duration": 97}, {"note": 70, "velocity": 127, "duration": 176}, {"note": 0, "velocity": 0, "duration": 64}, {"note": 68, "velocity": 107, "duration": 437}, {"note": 0, "velocity": 0, "duration": 163}, {"note": 65, "velocity": 107, "duration": 75}, {"note": 68, "velocity": 127, "duration": 86}, {"note": 70, "velocity": 127, "duration": 143}, {"note": 0, "velocity": 0, "duration": 97}, {"note": 70, "velocity": 127, "duration": 171}, {"note": 0, "velocity": 0, "duration": 69}, {"note": 73, "velocity": 122, "duration": 112}, {"note": 68, "velocity": 102, "duration": 108}, {"note": 61, "velocity": 117, "duration": 121}, {"note": 63, "velocity": 112, "duration": 204}, {"note": 65, "velocity": 100, "duration": 536}, {"note": 0, "velocity": 0, "duration": 64}, {"note": 70, "velocity": 127, "duration": 80}, {"note": 72, "velocity": 100, "duration": 111}, {"note": 73, "velocity": 127, "duration": 164}, {"note": 0, "velocity": 0, "duration": 76}, {"note": 73, "velocity": 127, "duration": 134}, {"note": 0, "velocity": 0, "duration": 106}, {"note": 73, "velocity": 127, "duration": 72}, {"note": 72, "velocity": 122, "duration": 82}, {"note": 73, "velocity": 127, "duration": 83}, {"note": 75, "velocity": 122, "duration": 159}, {"note": 0, "velocity": 0, "duration": 81}, {"note": 77, "velocity": 127, "duration": 423}, {"note": 0, "velocity": 0, "duration": 177}, {"note": 68, "velocity": 127, "duration": 44}, {"note": 0, "velocity": 0, "duration": 76}, {"note": 68, "velocity": 122, "duration": 45}, {"note": 0, "velocity": 0, "duration": 75}, {"note": 70, "velocity": 127, "duration": 125}, {"note": 73, "velocity": 127, "duration": 135}, {"note": 0, "velocity": 0, "duration": 105}, {"note": 73, "velocity": 122, "duration": 97}, {"note": 75, "velocity": 127, "duration": 89}, {"note": 73, "velocity": 127, "duration": 160}, {"note": 0, "velocity": 0, "duration": 80}, {"note": 73, "velocity": 127, "duration": 122}, {"note": 73, "velocity": 127, "duration": 2}, {"note": 0, "velocity": 0, "duration": 718}, {"note": 70, "velocity": 127, "duration": 70}, {"note": 72, "velocity": 99, "duration": 120}, {"note": 73, "velocity": 127, "duration": 171}, {"note": 0, "velocity": 0, "duration": 69}, {"note": 73, "velocity": 127, "duration": 148}, {"note": 0, "velocity": 0, "duration": 92}, {"note": 75, "velocity": 127, "duration": 68}, {"note": 73, "velocity": 127, "duration": 101}, {"note": 73, "velocity": 112, "duration": 82}, {"note": 75, "velocity": 102, "duration": 145}, {"note": 0, "velocity": 0, "duration": 95}, {"note": 77, "velocity": 127, "duration": 416}, {"note": 0, "velocity": 0, "duration": 184}, {"note": 77, "velocity": 112, "duration": 100}, {"note": 75, "velocity": 107, "duration": 95}, {"note": 73, "velocity": 127, "duration": 111}, {"note": 0, "velocity": 0, "duration": 129}, {"note": 73, "velocity": 127, "duration": 96}, {"note": 0, "velocity": 0, "duration": 144}, {"note": 73, "velocity": 122, "duration": 112}, {"note": 72, "velocity": 107, "duration": 100}, {"note": 70, "velocity": 102, "duration": 60}, {"note": 70, "velocity": 117, "duration": 152}, {"note": 0, "velocity": 0, "duration": 88}, {"note": 68, "velocity": 112, "duration": 356}, {"note": 0, "velocity": 0, "duration": 244}, {"note": 70, "velocity": 127, "duration": 80}, {"note": 72, "velocity": 100, "duration": 111}, {"note": 73, "velocity": 127, "duration": 164}, {"note": 0, "velocity": 0, "duration": 76}, {"note": 73, "velocity": 127, "duration": 134}, {"note": 0, "velocity": 0, "duration": 106}, {"note": 73, "velocity": 127, "duration": 72}, {"note": 72, "velocity": 122, "duration": 82}, {"note": 73, "velocity": 127, "duration": 83}, {"note": 75, "velocity": 122, "duration": 159}, {"note": 0, "velocity": 0, "duration": 81}, {"note": 77, "velocity": 127, "duration": 423}, {"note": 0, "velocity": 0, "duration": 177}, {"note": 68, "velocity": 127, "duration": 44}, {"note": 0, "velocity": 0, "duration": 76}, {"note": 68, "velocity": 122, "duration": 45}, {"note": 0, "velocity": 0, "duration": 75}, {"note": 70, "velocity": 127, "duration": 125}, {"note": 73, "velocity": 127, "duration": 135}, {"note": 0, "velocity": 0, "duration": 105}, {"note": 73, "velocity": 122, "duration": 97}, {"note": 73, "velocity": 122, "duration": 62}, {"note": 75, "velocity": 112, "duration": 362}, {"note": 73, "velocity": 117, "duration": 1334}]]