[[{"note": 64, "velocity": 50, "duration": 187}, {"note": 65, "velocity": 82, "duration": 147}, {"note": 69, "velocity": 78, "duration": 284}, {"note": 67, "velocity": 83, "duration": 480}, {"note": 64, "velocity": 75, "duration": 240}, {"note": 67, "velocity": 72, "duration": 2520}, {"note": 64, "velocity": 78, "duration": 133}, {"note": 65, "velocity": 71, "duration": 130}, {"note": 67, "velocity": 81, "duration": 240}, {"note": 64, "velocity": 81, "duration": 479}, {"note": 64, "velocity": 86, "duration": 360}, {"note": 71, "velocity": 93, "duration": 3240}, {"note": 69, "velocity": 90, "duration": 240}, {"note": 71, "velocity": 68, "duration": 240}, {"note": 72, "velocity": 89, "duration": 403}, {"note": 60, "velocity": 72, "duration": 239}, {"note": 60, "velocity": 83, "duration": 227}, {"note": 62, "velocity": 85, "duration": 2173}, {"note": 69, "velocity": 99, "duration": 480}, {"note": 67, "velocity": 97, "duration": 240}, {"note": 69, "velocity": 93, "duration": 480}, {"note": 67, "velocity": 92, "duration": 240}, {"note": 64, "velocity": 82, "duration": 2160}, {"note": 67, "velocity": 88, "duration": 119}, {"note": 67, "velocity": 66, "duration": 119}, {"note": 67, "velocity": 88, "duration": 240}, {"note": 65, "velocity": 90, "duration": 480}, {"note": 64, "velocity": 92, "duration": 240}, {"note": 67, "velocity": 97, "duration": 2639}, {"note": 67, "velocity": 89, "duration": 119}, {"note": 67, "velocity": 79, "duration": 119}, {"note": 67, "velocity": 83, "duration": 240}, {"note": 65, "velocity": 79, "duration": 480}, {"note": 64, "velocity": 93, "duration": 240}, {"note": 71, "velocity": 95, "duration": 3360}, {"note": 69, "velocity": 93, "duration": 240}, {"note": 71, "velocity": 92, "duration": 240}, {"note": 72, "velocity": 107, "duration": 294}, {"note": 60, "velocity": 72, "duration": 239}, {"note": 60, "velocity": 78, "duration": 240}, {"note": 62, "velocity": 88, "duration": 2160}, {"note": 64, "velocity": 92, "duration": 480}, {"note": 62, "velocity": 89, "duration": 240}, {"note": 64, "velocity": 97, "duration": 480}, {"note": 60, "velocity": 93, "duration": 2880}, {"note": 64, "velocity": 92, "duration": 240}, {"note": 69, "velocity": 107, "duration": 240}, {"note": 71, "velocity": 127, "duration": 240}, {"note": 72, "velocity": 127, "duration": 480}, {"note": 64, "velocity": 95, "duration": 240}, {"note": 72, "velocity": 112, "duration": 479}, {"note": 72, "velocity": 122, "duration": 479}, {"note": 72, "velocity": 102, "duration": 240}, {"note": 71, "velocity": 100, "duration": 360}, {"note": 69, "velocity": 97, "duration": 360}, {"note": 67, "velocity": 97, "duration": 959}, {"note": 67, "velocity": 97, "duration": 240}, {"note": 69, "velocity": 107, "duration": 240}, {"note": 67, "velocity": 93, "duration": 240}, {"note": 69, "velocity": 107, "duration": 240}, {"note": 72, "velocity": 127, "duration": 480}, {"note": 60, "velocity": 92, "duration": 480}, {"note": 67, "velocity": 97, "duration": 239}, {"note": 67, "velocity": 107, "duration": 372}, {"note": 64, "velocity": 89, "duration": 839}, {"note": 64, "velocity": 97, "duration": 240}, {"note": 69, "velocity": 102, "duration": 240}, {"note": 71, "velocity": 99, "duration": 240}, {"note": 72, "velocity": 100, "duration": 480}, {"note": 64, "velocity": 107, "duration": 240}, {"note": 72, "velocity": 127, "duration": 480}, {"note": 64, "velocity": 99, "duration": 420}, {"note": 72, "velocity": 127, "duration": 300}, {"note": 71, "velocity": 117, "duration": 300}, {"note": 69, "velocity": 96, "duration": 480}, {"note": 67, "velocity": 100, "duration": 959}, {"note": 67, "velocity": 93, "duration": 119}, {"note": 67, "velocity": 95, "duration": 120}, {"note": 69, "velocity": 107, "duration": 240}, {"note": 72, "velocity": 107, "duration": 239}, {"note": 72, "velocity": 102, "duration": 239}, {"note": 72, "velocity": 122, "duration": 479}, {"note": 72, "velocity": 122, "duration": 239}, {"note": 72, "velocity": 112, "duration": 240}, {"note": 69, "velocity": 107, "duration": 360}, {"note": 74, "velocity": 127, "duration": 600}, {"note": 67, "velocity": 102, "duration": 119}, {"note": 67, "velocity": 90, "duration": 120}, {"note": 72, "velocity": 122, "duration": 360}, {"note": 74, "velocity": 127, "duration": 289}, {"note": 72, "velocity": 107, "duration": 360}, {"note": 77, "velocity": 127, "duration": 720}, {"note": 76, "velocity": 127, "duration": 502}, {"note": 67, "velocity": 99, "duration": 1439}, {"note": 67, "velocity": 102, "duration": 119}, {"note": 67, "velocity": 90, "duration": 120}, {"note": 71, "velocity": 122, "duration": 360}, {"note": 74, "velocity": 122, "duration": 359}, {"note": 74, "velocity": 127, "duration": 240}, {"note": 72, "velocity": 127, "duration": 591}, {"note": 67, "velocity": 117, "duration": 242}, {"note": 64, "velocity": 93, "duration": 1920}, {"note": 60, "velocity": 107, "duration": 240}, {"note": 71, "velocity": 122, "duration": 240}, {"note": 72, "velocity": 117, "duration": 240}, {"note": 71, "velocity": 122, "duration": 240}, {"note": 67, "velocity": 102, "duration": 240}, {"note": 69, "velocity": 122, "duration": 480}, {"note": 76, "velocity": 127, "duration": 240}, {"note": 74, "velocity": 127, "duration": 960}, {"note": 72, "velocity": 102, "duration": 240}, {"note": 67, "velocity": 102, "duration": 480}, {"note": 76, "velocity": 127, "duration": 240}, {"note": 74, "velocity": 127, "duration": 960}, {"note": 72, "velocity": 100, "duration": 240}, {"note": 69, "velocity": 112, "duration": 720}, {"note": 76, "velocity": 127, "duration": 240}, {"note": 74, "velocity": 127, "duration": 480}, {"note": 72, "velocity": 127, "duration": 240}, {"note": 74, "velocity": 127, "duration": 960}, {"note": 67, "velocity": 117, "duration": 119}, {"note": 67, "velocity": 85, "duration": 120}, {"note": 72, "velocity": 100, "duration": 360}, {"note": 74, "velocity": 127, "duration": 240}, {"note": 72, "velocity": 127, "duration": 240}, {"note": 77, "velocity": 122, "duration": 720}, {"note": 76, "velocity": 127, "duration": 480}, {"note": 67, "velocity": 86, "duration": 1559}, {"note": 67, "velocity": 96, "duration": 119}, {"note": 67, "velocity": 88, "duration": 120}, {"note": 71, "velocity": 117, "duration": 360}, {"note": 74, "velocity": 102, "duration": 359}, {"note": 74, "velocity": 117, "duration": 240}, {"note": 72, "velocity": 127, "duration": 480}, {"note": 67, "velocity": 97, "duration": 245}, {"note": 64, "velocity": 86, "duration": 1920}, {"note": 60, "velocity": 93, "duration": 240}, {"note": 71, "velocity": 102, "duration": 240}, {"note": 72, "velocity": 100, "duration": 240}, {"note": 71, "velocity": 109, "duration": 240}, {"note": 67, "velocity": 93, "duration": 240}, {"note": 69, "velocity": 107, "duration": 428}, {"note": 76, "velocity": 97, "duration": 248}, {"note": 74, "velocity": 97, "duration": 1004}, {"note": 72, "velocity": 102, "duration": 240}, {"note": 67, "velocity": 100, "duration": 360}, {"note": 76, "velocity": 117, "duration": 360}, {"note": 74, "velocity": 122, "duration": 960}, {"note": 72, "velocity": 112, "duration": 240}, {"note": 69, "velocity": 107, "duration": 720}, {"note": 76, "velocity": 99, "duration": 240}, {"note": 74, "velocity": 100, "duration": 480}, {"note": 72, "velocity": 117, "duration": 240}, {"note": 74, "velocity": 127, "duration": 1167}, {"note": 67, "velocity": 95, "duration": 240}, {"note": 76, "velocity": 112, "duration": 263}, {"note": 74, "velocity": 107, "duration": 479}, {"note": 74, "velocity": 107, "duration": 360}, {"note": 72, "velocity": 97, "duration": 2133}, {"note": 0, "velocity": 0, "duration": 17667}, {"note": 67, "velocity": 88, "duration": 119}, {"note": 67, "velocity": 66, "duration": 119}, {"note": 67, "velocity": 88, "duration": 240}, {"note": 65, "velocity": 90, "duration": 480}, {"note": 64, "velocity": 92, "duration": 240}, {"note": 67, "velocity": 97, "duration": 2639}, {"note": 67, "velocity": 89, "duration": 119}, {"note": 67, "velocity": 79, "duration": 119}, {"note": 67, "velocity": 83, "duration": 240}, {"note": 65, "velocity": 79, "duration": 480}, {"note": 64, "velocity": 93, "duration": 240}, {"note": 71, "velocity": 95, "duration": 3360}, {"note": 69, "velocity": 93, "duration": 240}, {"note": 71, "velocity": 92, "duration": 240}, {"note": 72, "velocity": 107, "duration": 294}, {"note": 60, "velocity": 72, "duration": 239}, {"note": 60, "velocity": 78, "duration": 240}, {"note": 60, "velocity": 88, "duration": 2160}, {"note": 64, "velocity": 92, "duration": 480}, {"note": 62, "velocity": 89, "duration": 240}, {"note": 64, "velocity": 97, "duration": 480}, {"note": 60, "velocity": 93, "duration": 2880}, {"note": 64, "velocity": 92, "duration": 240}, {"note": 69, "velocity": 107, "duration": 240}, {"note": 71, "velocity": 127, "duration": 240}, {"note": 72, "velocity": 127, "duration": 480}, {"note": 64, "velocity": 95, "duration": 240}, {"note": 72, "velocity": 112, "duration": 479}, {"note": 72, "velocity": 122, "duration": 479}, {"note": 72, "velocity": 102, "duration": 240}, {"note": 71, "velocity": 100, "duration": 360}, {"note": 69, "velocity": 97, "duration": 360}, {"note": 67, "velocity": 97, "duration": 959}, {"note": 67, "velocity": 97, "duration": 240}, {"note": 69, "velocity": 107, "duration": 240}, {"note": 67, "velocity": 93, "duration": 240}, {"note": 69, "velocity": 107, "duration": 240}, {"note": 72, "velocity": 127, "duration": 480}, {"note": 60, "velocity": 92, "duration": 480}, {"note": 67, "velocity": 97, "duration": 239}, {"note": 67, "velocity": 107, "duration": 372}, {"note": 64, "velocity": 89, "duration": 839}, {"note": 64, "velocity": 97, "duration": 240}, {"note": 69, "velocity": 102, "duration": 240}, {"note": 71, "velocity": 99, "duration": 240}, {"note": 72, "velocity": 100, "duration": 480}, {"note": 64, "velocity": 107, "duration": 240}, {"note": 72, "velocity": 127, "duration": 480}, {"note": 64, "velocity": 99, "duration": 420}, {"note": 72, "velocity": 127, "duration": 300}, {"note": 71, "velocity": 117, "duration": 300}, {"note": 69, "velocity": 96, "duration": 480}, {"note": 67, "velocity": 100, "duration": 959}, {"note": 67, "velocity": 93, "duration": 119}, {"note": 67, "velocity": 95, "duration": 120}, {"note": 69, "velocity": 107, "duration": 240}, {"note": 72, "velocity": 107, "duration": 239}, {"note": 72, "velocity": 102, "duration": 239}, {"note": 72, "velocity": 122, "duration": 479}, {"note": 72, "velocity": 122, "duration": 239}, {"note": 72, "velocity": 112, "duration": 240}, {"note": 69, "velocity": 107, "duration": 360}, {"note": 74, "velocity": 127, "duration": 600}, {"note": 67, "velocity": 102, "duration": 119}, {"note": 67, "velocity": 90, "duration": 120}, {"note": 72, "velocity": 122, "duration": 360}, {"note": 74, "velocity": 127, "duration": 289}, {"note": 72, "velocity": 107, "duration": 360}, {"note": 77, "velocity": 127, "duration": 720}, {"note": 76, "velocity": 127, "duration": 502}, {"note": 67, "velocity": 99, "duration": 1439}, {"note": 67, "velocity": 102, "duration": 119}, {"note": 67, "velocity": 90, "duration": 120}, {"note": 71, "velocity": 122, "duration": 360}, {"note": 74, "velocity": 122, "duration": 359}, {"note": 74, "velocity": 127, "duration": 240}, {"note": 72, "velocity": 127, "duration": 591}, {"note": 67, "velocity": 117, "duration": 242}, {"note": 64, "velocity": 93, "duration": 1920}, {"note": 60, "velocity": 107, "duration": 240}, {"note": 71, "velocity": 122, "duration": 240}, {"note": 72, "velocity": 117, "duration": 240}, {"note": 71, "velocity": 122, "duration": 240}, {"note": 67, "velocity": 102, "duration": 240}, {"note": 69, "velocity": 122, "duration": 480}, {"note": 76, "velocity": 127, "duration": 240}, {"note": 74, "velocity": 127, "duration": 960}, {"note": 72, "velocity": 102, "duration": 240}, {"note": 67, "velocity": 102, "duration": 480}, {"note": 76, "velocity": 127, "duration": 240}, {"note": 74, "velocity": 127, "duration": 960}, {"note": 72, "velocity": 100, "duration": 240}, {"note": 69, "velocity": 112, "duration": 720}, {"note": 76, "velocity": 127, "duration": 240}, {"note": 74, "velocity": 127, "duration": 480}, {"note": 72, "velocity": 127, "duration": 240}, {"note": 74, "velocity": 127, "duration": 960}, {"note": 67, "velocity": 117, "duration": 119}, {"note": 67, "velocity": 85, "duration": 120}, {"note": 72, "velocity": 100, "duration": 360}, {"note": 74, "velocity": 127, "duration": 240}, {"note": 72, "velocity": 127, "duration": 240}, {"note": 77, "velocity": 122, "duration": 720}, {"note": 76, "velocity": 127, "duration": 480}, {"note": 67, "velocity": 86, "duration": 1559}, {"note": 67, "velocity": 96, "duration": 119}, {"note": 67, "velocity": 88, "duration": 120}, {"note": 71, "velocity": 117, "duration": 360}, {"note": 74, "velocity": 102, "duration": 359}, {"note": 74, "velocity": 117, "duration": 240}, {"note": 72, "velocity": 127, "duration": 480}, {"note": 67, "velocity": 97, "duration": 245}, {"note": 64, "velocity": 86, "duration": 1920}, {"note": 60, "velocity": 93, "duration": 240}, {"note": 71, "velocity": 102, "duration": 240}, {"note": 72, "velocity": 100, "duration": 240}, {"note": 71, "velocity": 122, "duration": 240}, {"note": 67, "velocity": 93, "duration": 240}, {"note": 69, "velocity": 127, "duration": 484}, {"note": 76, "velocity": 112, "duration": 258}, {"note": 74, "velocity": 103, "duration": 965}, {"note": 72, "velocity": 102, "duration": 240}, {"note": 69, "velocity": 100, "duration": 360}, {"note": 76, "velocity": 117, "duration": 360}, {"note": 74, "velocity": 122, "duration": 960}, {"note": 72, "velocity": 112, "duration": 240}, {"note": 69, "velocity": 107, "duration": 720}, {"note": 76, "velocity": 99, "duration": 240}, {"note": 74, "velocity": 100, "duration": 480}, {"note": 72, "velocity": 117, "duration": 240}, {"note": 74, "velocity": 127, "duration": 960}, {"note": 67, "velocity": 95, "duration": 240}, {"note": 76, "velocity": 112, "duration": 445}, {"note": 74, "velocity": 112, "duration": 561}, {"note": 74, "velocity": 127, "duration": 347}, {"note": 72, "velocity": 92, "duration": 459}, {"note": 72, "velocity": 127, "duration": 2383}]]