[[{"note": 62, "velocity": 100, "duration": 360}, {"note": 64, "velocity": 100, "duration": 360}, {"note": 66, "velocity": 100, "duration": 450}, {"note": 66, "velocity": 100, "duration": 240}, {"note": 64, "velocity": 100, "duration": 240}, {"note": 62, "velocity": 100, "duration": 500}, {"note": 66, "velocity": 100, "duration": 959}, {"note": 66, "velocity": 100, "duration": 341}, {"note": 59, "velocity": 100, "duration": 240}, {"note": 0, "velocity": 0, "duration": 98}, {"note": 62, "velocity": 100, "duration": 481}, {"note": 62, "velocity": 100, "duration": 479}, {"note": 62, "velocity": 100, "duration": 248}, {"note": 61, "velocity": 100, "duration": 248}, {"note": 59, "velocity": 100, "duration": 959}, {"note": 59, "velocity": 100, "duration": 240}, {"note": 62, "velocity": 100, "duration": 240}, {"note": 61, "velocity": 100, "duration": 479}, {"note": 61, "velocity": 100, "duration": 241}, {"note": 59, "velocity": 100, "duration": 240}, {"note": 57, "velocity": 100, "duration": 480}, {"note": 61, "velocity": 100, "duration": 959}, {"note": 61, "velocity": 100, "duration": 240}, {"note": 57, "velocity": 100, "duration": 260}, {"note": 59, "velocity": 100, "duration": 479}, {"note": 59, "velocity": 100, "duration": 240}, {"note": 62, "velocity": 100, "duration": 240}, {"note": 61, "velocity": 100, "duration": 510}, {"note": 59, "velocity": 100, "duration": 960}, {"note": 62, "velocity": 100, "duration": 240}, {"note": 64, "velocity": 100, "duration": 240}, {"note": 66, "velocity": 100, "duration": 479}, {"note": 66, "velocity": 100, "duration": 240}, {"note": 69, "velocity": 100, "duration": 239}, {"note": 69, "velocity": 100, "duration": 240}, {"note": 64, "velocity": 100, "duration": 240}, {"note": 66, "velocity": 100, "duration": 639}, {"note": 64, "velocity": 100, "duration": 480}, {"note": 61, "velocity": 100, "duration": 240}, {"note": 62, "velocity": 100, "duration": 240}, {"note": 64, "velocity": 100, "duration": 479}, {"note": 64, "velocity": 100, "duration": 240}, {"note": 66, "velocity": 100, "duration": 301}, {"note": 64, "velocity": 100, "duration": 240}, {"note": 62, "velocity": 100, "duration": 240}, {"note": 61, "velocity": 100, "duration": 264}, {"note": 62, "velocity": 100, "duration": 261}, {"note": 59, "velocity": 100, "duration": 479}, {"note": 59, "velocity": 100, "duration": 240}, {"note": 61, "velocity": 100, "duration": 240}, {"note": 62, "velocity": 100, "duration": 479}, {"note": 62, "velocity": 100, "duration": 240}, {"note": 61, "velocity": 100, "duration": 263}, {"note": 59, "velocity": 100, "duration": 493}, {"note": 61, "velocity": 100, "duration": 959}, {"note": 61, "velocity": 100, "duration": 204}, {"note": 57, "velocity": 100, "duration": 114}, {"note": 0, "velocity": 0, "duration": 126}, {"note": 59, "velocity": 100, "duration": 502}, {"note": 59, "velocity": 100, "duration": 20}, {"note": 0, "velocity": 0, "duration": 220}, {"note": 62, "velocity": 100, "duration": 260}, {"note": 61, "velocity": 100, "duration": 259}, {"note": 62, "velocity": 100, "duration": 244}, {"note": 59, "velocity": 100, "duration": 960}, {"note": 62, "velocity": 100, "duration": 240}, {"note": 64, "velocity": 100, "duration": 240}, {"note": 66, "velocity": 100, "duration": 960}, {"note": 67, "velocity": 100, "duration": 240}, {"note": 66, "velocity": 100, "duration": 240}, {"note": 64, "velocity": 100, "duration": 960}, {"note": 61, "velocity": 100, "duration": 240}, {"note": 62, "velocity": 100, "duration": 252}, {"note": 64, "velocity": 100, "duration": 959}, {"note": 64, "velocity": 100, "duration": 240}, {"note": 66, "velocity": 100, "duration": 240}, {"note": 62, "velocity": 100, "duration": 960}, {"note": 59, "velocity": 100, "duration": 248}, {"note": 61, "velocity": 100, "duration": 240}, {"note": 62, "velocity": 100, "duration": 479}, {"note": 62, "velocity": 100, "duration": 240}, {"note": 61, "velocity": 100, "duration": 240}, {"note": 59, "velocity": 100, "duration": 240}, {"note": 62, "velocity": 100, "duration": 240}, {"note": 61, "velocity": 100, "duration": 684}, {"note": 61, "velocity": 100, "duration": 204}, {"note": 0, "velocity": 0, "duration": 276}, {"note": 57, "velocity": 100, "duration": 480}, {"note": 66, "velocity": 100, "duration": 2400}, {"note": 62, "velocity": 100, "duration": 240}, {"note": 64, "velocity": 100, "duration": 240}, {"note": 66, "velocity": 100, "duration": 959}, {"note": 66, "velocity": 100, "duration": 240}, {"note": 69, "velocity": 100, "duration": 240}, {"note": 64, "velocity": 100, "duration": 960}, {"note": 61, "velocity": 100, "duration": 240}, {"note": 62, "velocity": 100, "duration": 240}, {"note": 64, "velocity": 100, "duration": 959}, {"note": 64, "velocity": 100, "duration": 240}, {"note": 66, "velocity": 100, "duration": 240}, {"note": 62, "velocity": 100, "duration": 960}, {"note": 59, "velocity": 100, "duration": 240}, {"note": 61, "velocity": 100, "duration": 240}, {"note": 62, "velocity": 100, "duration": 479}, {"note": 62, "velocity": 100, "duration": 188}, {"note": 61, "velocity": 100, "duration": 248}, {"note": 59, "velocity": 100, "duration": 225}, {"note": 62, "velocity": 100, "duration": 276}, {"note": 61, "velocity": 100, "duration": 732}, {"note": 61, "velocity": 100, "duration": 252}, {"note": 0, "velocity": 0, "duration": 228}, {"note": 57, "velocity": 100, "duration": 480}, {"note": 59, "velocity": 100, "duration": 2400}, {"note": 62, "velocity": 100, "duration": 251}, {"note": 64, "velocity": 100, "duration": 240}, {"note": 66, "velocity": 100, "duration": 479}, {"note": 66, "velocity": 100, "duration": 240}, {"note": 64, "velocity": 100, "duration": 240}, {"note": 62, "velocity": 100, "duration": 493}, {"note": 66, "velocity": 100, "duration": 960}, {"note": 64, "velocity": 100, "duration": 240}, {"note": 59, "velocity": 100, "duration": 240}, {"note": 62, "velocity": 100, "duration": 479}, {"note": 62, "velocity": 100, "duration": 240}, {"note": 64, "velocity": 100, "duration": 256}, {"note": 61, "velocity": 100, "duration": 480}, {"note": 59, "velocity": 100, "duration": 959}, {"note": 59, "velocity": 100, "duration": 240}, {"note": 62, "velocity": 100, "duration": 242}, {"note": 61, "velocity": 100, "duration": 479}, {"note": 61, "velocity": 100, "duration": 240}, {"note": 59, "velocity": 100, "duration": 240}, {"note": 57, "velocity": 100, "duration": 497}, {"note": 61, "velocity": 100, "duration": 959}, {"note": 61, "velocity": 100, "duration": 240}, {"note": 57, "velocity": 100, "duration": 240}, {"note": 59, "velocity": 100, "duration": 479}, {"note": 59, "velocity": 100, "duration": 240}, {"note": 62, "velocity": 100, "duration": 240}, {"note": 61, "velocity": 100, "duration": 294}, {"note": 62, "velocity": 100, "duration": 274}, {"note": 59, "velocity": 100, "duration": 960}, {"note": 62, "velocity": 100, "duration": 240}, {"note": 64, "velocity": 100, "duration": 240}, {"note": 66, "velocity": 100, "duration": 479}, {"note": 66, "velocity": 100, "duration": 240}, {"note": 69, "velocity": 100, "duration": 239}, {"note": 69, "velocity": 100, "duration": 240}, {"note": 64, "velocity": 100, "duration": 240}, {"note": 66, "velocity": 100, "duration": 480}, {"note": 64, "velocity": 100, "duration": 480}, {"note": 61, "velocity": 100, "duration": 240}, {"note": 62, "velocity": 100, "duration": 240}, {"note": 64, "velocity": 100, "duration": 479}, {"note": 64, "velocity": 100, "duration": 240}, {"note": 66, "velocity": 100, "duration": 240}, {"note": 64, "velocity": 100, "duration": 240}, {"note": 62, "velocity": 100, "duration": 240}, {"note": 61, "velocity": 100, "duration": 240}, {"note": 62, "velocity": 100, "duration": 240}, {"note": 59, "velocity": 100, "duration": 479}, {"note": 59, "velocity": 100, "duration": 1}, {"note": 0, "velocity": 0, "duration": 239}, {"note": 61, "velocity": 100, "duration": 242}, {"note": 62, "velocity": 100, "duration": 479}, {"note": 62, "velocity": 100, "duration": 240}, {"note": 61, "velocity": 100, "duration": 240}, {"note": 59, "velocity": 100, "duration": 480}, {"note": 61, "velocity": 100, "duration": 959}, {"note": 61, "velocity": 100, "duration": 240}, {"note": 57, "velocity": 100, "duration": 240}, {"note": 59, "velocity": 100, "duration": 479}, {"note": 59, "velocity": 100, "duration": 240}, {"note": 62, "velocity": 100, "duration": 270}, {"note": 61, "velocity": 100, "duration": 255}, {"note": 62, "velocity": 100, "duration": 242}, {"note": 59, "velocity": 100, "duration": 960}, {"note": 62, "velocity": 100, "duration": 240}, {"note": 64, "velocity": 100, "duration": 240}, {"note": 66, "velocity": 100, "duration": 960}, {"note": 67, "velocity": 100, "duration": 240}, {"note": 66, "velocity": 100, "duration": 240}, {"note": 64, "velocity": 100, "duration": 960}, {"note": 61, "velocity": 100, "duration": 240}, {"note": 62, "velocity": 100, "duration": 252}, {"note": 64, "velocity": 100, "duration": 959}, {"note": 64, "velocity": 100, "duration": 240}, {"note": 66, "velocity": 100, "duration": 240}, {"note": 62, "velocity": 100, "duration": 688}, {"note": 59, "velocity": 100, "duration": 248}, {"note": 61, "velocity": 100, "duration": 240}, {"note": 62, "velocity": 100, "duration": 712}, {"note": 62, "velocity": 100, "duration": 240}, {"note": 61, "velocity": 100, "duration": 284}, {"note": 59, "velocity": 100, "duration": 240}, {"note": 62, "velocity": 100, "duration": 240}, {"note": 61, "velocity": 100, "duration": 684}, {"note": 61, "velocity": 100, "duration": 202}, {"note": 0, "velocity": 0, "duration": 278}, {"note": 57, "velocity": 100, "duration": 480}, {"note": 66, "velocity": 100, "duration": 2400}, {"note": 62, "velocity": 100, "duration": 240}, {"note": 64, "velocity": 100, "duration": 240}, {"note": 66, "velocity": 100, "duration": 959}, {"note": 66, "velocity": 100, "duration": 240}, {"note": 69, "velocity": 100, "duration": 240}, {"note": 64, "velocity": 100, "duration": 960}, {"note": 61, "velocity": 100, "duration": 240}, {"note": 62, "velocity": 100, "duration": 240}, {"note": 64, "velocity": 100, "duration": 959}, {"note": 64, "velocity": 100, "duration": 240}, {"note": 66, "velocity": 100, "duration": 240}, {"note": 62, "velocity": 100, "duration": 960}, {"note": 59, "velocity": 100, "duration": 240}, {"note": 61, "velocity": 100, "duration": 240}, {"note": 62, "velocity": 100, "duration": 479}, {"note": 62, "velocity": 100, "duration": 188}, {"note": 61, "velocity": 100, "duration": 360}, {"note": 59, "velocity": 100, "duration": 225}, {"note": 62, "velocity": 100, "duration": 360}, {"note": 61, "velocity": 100, "duration": 732}, {"note": 61, "velocity": 100, "duration": 252}, {"note": 0, "velocity": 0, "duration": 228}, {"note": 57, "velocity": 100, "duration": 480}, {"note": 59, "velocity": 100, "duration": 2879}, {"note": 59, "velocity": 100, "duration": 240}, {"note": 61, "velocity": 100, "duration": 240}, {"note": 62, "velocity": 100, "duration": 240}, {"note": 59, "velocity": 100, "duration": 239}, {"note": 59, "velocity": 100, "duration": 240}, {"note": 62, "velocity": 100, "duration": 240}, {"note": 66, "velocity": 100, "duration": 611}, {"note": 66, "velocity": 100, "duration": 131}, {"note": 0, "velocity": 0, "duration": 349}, {"note": 67, "velocity": 100, "duration": 480}, {"note": 64, "velocity": 100, "duration": 558}, {"note": 64, "velocity": 100, "duration": 78}, {"note": 0, "velocity": 0, "duration": 642}, {"note": 66, "velocity": 100, "duration": 240}, {"note": 62, "velocity": 100, "duration": 359}, {"note": 62, "velocity": 100, "duration": 360}, {"note": 61, "velocity": 100, "duration": 240}, {"note": 59, "velocity": 100, "duration": 479}, {"note": 59, "velocity": 100, "duration": 240}, {"note": 61, "velocity": 100, "duration": 240}, {"note": 62, "velocity": 100, "duration": 240}, {"note": 59, "velocity": 100, "duration": 239}, {"note": 59, "velocity": 100, "duration": 240}, {"note": 62, "velocity": 100, "duration": 240}, {"note": 59, "velocity": 100, "duration": 480}, {"note": 66, "velocity": 100, "duration": 240}, {"note": 64, "velocity": 100, "duration": 239}, {"note": 64, "velocity": 100, "duration": 480}, {"note": 66, "velocity": 100, "duration": 2400}, {"note": 62, "velocity": 100, "duration": 240}, {"note": 64, "velocity": 100, "duration": 240}, {"note": 66, "velocity": 100, "duration": 959}, {"note": 66, "velocity": 100, "duration": 480}, {"note": 67, "velocity": 100, "duration": 480}, {"note": 64, "velocity": 100, "duration": 480}, {"note": 57, "velocity": 100, "duration": 480}, {"note": 64, "velocity": 100, "duration": 959}, {"note": 64, "velocity": 100, "duration": 1}, {"note": 0, "velocity": 0, "duration": 239}, {"note": 59, "velocity": 100, "duration": 241}, {"note": 59, "velocity": 100, "duration": 1}, {"note": 0, "velocity": 0, "duration": 481}, {"note": 59, "velocity": 100, "duration": 240}, {"note": 62, "velocity": 100, "duration": 240}, {"note": 59, "velocity": 100, "duration": 247}, {"note": 61, "velocity": 100, "duration": 242}, {"note": 62, "velocity": 100, "duration": 479}, {"note": 62, "velocity": 100, "duration": 240}, {"note": 64, "velocity": 100, "duration": 239}, {"note": 64, "velocity": 100, "duration": 240}, {"note": 62, "velocity": 100, "duration": 240}, {"note": 61, "velocity": 100, "duration": 479}, {"note": 61, "velocity": 100, "duration": 240}, {"note": 62, "velocity": 100, "duration": 240}, {"note": 64, "velocity": 100, "duration": 240}, {"note": 57, "velocity": 100, "duration": 240}, {"note": 62, "velocity": 100, "duration": 959}, {"note": 62, "velocity": 100, "duration": 240}, {"note": 64, "velocity": 100, "duration": 240}, {"note": 66, "velocity": 100, "duration": 960}, {"note": 62, "velocity": 100, "duration": 240}, {"note": 64, "velocity": 100, "duration": 240}, {"note": 66, "velocity": 100, "duration": 959}, {"note": 66, "velocity": 100, "duration": 480}, {"note": 67, "velocity": 100, "duration": 480}, {"note": 64, "velocity": 100, "duration": 480}, {"note": 57, "velocity": 100, "duration": 480}, {"note": 64, "velocity": 100, "duration": 959}, {"note": 64, "velocity": 100, "duration": 240}, {"note": 59, "velocity": 100, "duration": 239}, {"note": 59, "velocity": 100, "duration": 479}, {"note": 59, "velocity": 100, "duration": 201}, {"note": 61, "velocity": 100, "duration": 242}, {"note": 59, "velocity": 100, "duration": 211}, {"note": 61, "velocity": 100, "duration": 182}, {"note": 62, "velocity": 100, "duration": 479}, {"note": 62, "velocity": 100, "duration": 1}, {"note": 0, "velocity": 0, "duration": 239}, {"note": 64, "velocity": 100, "duration": 239}, {"note": 64, "velocity": 100, "duration": 240}, {"note": 62, "velocity": 100, "duration": 240}, {"note": 61, "velocity": 100, "duration": 595}, {"note": 61, "velocity": 100, "duration": 115}, {"note": 0, "velocity": 0, "duration": 125}, {"note": 62, "velocity": 100, "duration": 240}, {"note": 64, "velocity": 100, "duration": 240}, {"note": 57, "velocity": 100, "duration": 240}, {"note": 62, "velocity": 100, "duration": 960}, {"note": 61, "velocity": 100, "duration": 250}, {"note": 62, "velocity": 100, "duration": 242}, {"note": 59, "velocity": 100, "duration": 959}, {"note": 59, "velocity": 100, "duration": 240}, {"note": 61, "velocity": 100, "duration": 240}, {"note": 62, "velocity": 100, "duration": 619}, {"note": 62, "velocity": 100, "duration": 139}, {"note": 0, "velocity": 0, "duration": 101}, {"note": 64, "velocity": 100, "duration": 239}, {"note": 64, "velocity": 100, "duration": 240}, {"note": 62, "velocity": 100, "duration": 240}, {"note": 61, "velocity": 100, "duration": 590}, {"note": 61, "velocity": 100, "duration": 110}, {"note": 0, "velocity": 0, "duration": 130}, {"note": 62, "velocity": 100, "duration": 240}, {"note": 64, "velocity": 100, "duration": 240}, {"note": 57, "velocity": 100, "duration": 272}, {"note": 62, "velocity": 100, "duration": 2400}, {"note": 61, "velocity": 100, "duration": 284}, {"note": 62, "velocity": 100, "duration": 240}, {"note": 59, "velocity": 100, "duration": 3838}]]