[[{"note": 71, "velocity": 112, "duration": 83}, {"note": 73, "velocity": 127, "duration": 82}, {"note": 75, "velocity": 127, "duration": 54}, {"note": 0, "velocity": 0, "duration": 66}, {"note": 75, "velocity": 122, "duration": 49}, {"note": 0, "velocity": 0, "duration": 71}, {"note": 75, "velocity": 127, "duration": 45}, {"note": 0, "velocity": 0, "duration": 75}, {"note": 75, "velocity": 127, "duration": 40}, {"note": 0, "velocity": 0, "duration": 80}, {"note": 75, "velocity": 127, "duration": 105}, {"note": 0, "velocity": 0, "duration": 135}, {"note": 68, "velocity": 117, "duration": 96}, {"note": 78, "velocity": 117, "duration": 179}, {"note": 0, "velocity": 0, "duration": 61}, {"note": 78, "velocity": 127, "duration": 52}, {"note": 0, "velocity": 0, "duration": 68}, {"note": 78, "velocity": 122, "duration": 95}, {"note": 80, "velocity": 112, "duration": 94}, {"note": 76, "velocity": 117, "duration": 139}, {"note": 0, "velocity": 0, "duration": 101}, {"note": 76, "velocity": 117, "duration": 89}, {"note": 78, "velocity": 99, "duration": 86}, {"note": 73, "velocity": 127, "duration": 46}, {"note": 0, "velocity": 0, "duration": 74}, {"note": 73, "velocity": 112, "duration": 42}, {"note": 0, "velocity": 0, "duration": 78}, {"note": 73, "velocity": 102, "duration": 43}, {"note": 0, "velocity": 0, "duration": 77}, {"note": 73, "velocity": 112, "duration": 50}, {"note": 0, "velocity": 0, "duration": 70}, {"note": 73, "velocity": 127, "duration": 108}, {"note": 0, "velocity": 0, "duration": 132}, {"note": 66, "velocity": 117, "duration": 55}, {"note": 0, "velocity": 0, "duration": 65}, {"note": 76, "velocity": 122, "duration": 172}, {"note": 0, "velocity": 0, "duration": 68}, {"note": 76, "velocity": 112, "duration": 57}, {"note": 0, "velocity": 0, "duration": 63}, {"note": 76, "velocity": 107, "duration": 79}, {"note": 78, "velocity": 117, "duration": 92}, {"note": 75, "velocity": 127, "duration": 213}, {"note": 73, "velocity": 127, "duration": 110}, {"note": 71, "velocity": 99, "duration": 65}, {"note": 0, "velocity": 0, "duration": 7975}, {"note": 63, "velocity": 112, "duration": 192}, {"note": 71, "velocity": 107, "duration": 219}, {"note": 71, "velocity": 117, "duration": 154}, {"note": 73, "velocity": 112, "duration": 100}, {"note": 0, "velocity": 0, "duration": 140}, {"note": 70, "velocity": 127, "duration": 95}, {"note": 68, "velocity": 78, "duration": 120}, {"note": 66, "velocity": 95, "duration": 365}, {"note": 0, "velocity": 0, "duration": 115}, {"note": 59, "velocity": 96, "duration": 119}, {"note": 68, "velocity": 102, "duration": 56}, {"note": 0, "velocity": 0, "duration": 64}, {"note": 68, "velocity": 107, "duration": 52}, {"note": 0, "velocity": 0, "duration": 68}, {"note": 68, "velocity": 107, "duration": 49}, {"note": 0, "velocity": 0, "duration": 71}, {"note": 68, "velocity": 127, "duration": 66}, {"note": 68, "velocity": 127, "duration": 59}, {"note": 0, "velocity": 0, "duration": 61}, {"note": 68, "velocity": 117, "duration": 89}, {"note": 66, "velocity": 112, "duration": 114}, {"note": 68, "velocity": 100, "duration": 104}, {"note": 66, "velocity": 97, "duration": 204}, {"note": 63, "velocity": 107, "duration": 441}, {"note": 0, "velocity": 0, "duration": 519}, {"note": 61, "velocity": 100, "duration": 51}, {"note": 0, "velocity": 0, "duration": 69}, {"note": 61, "velocity": 97, "duration": 48}, {"note": 0, "velocity": 0, "duration": 72}, {"note": 61, "velocity": 102, "duration": 162}, {"note": 0, "velocity": 0, "duration": 78}, {"note": 63, "velocity": 107, "duration": 139}, {"note": 0, "velocity": 0, "duration": 101}, {"note": 66, "velocity": 112, "duration": 44}, {"note": 0, "velocity": 0, "duration": 76}, {"note": 66, "velocity": 102, "duration": 100}, {"note": 68, "velocity": 117, "duration": 120}, {"note": 66, "velocity": 112, "duration": 311}, {"note": 66, "velocity": 117, "duration": 37}, {"note": 0, "velocity": 0, "duration": 83}, {"note": 66, "velocity": 107, "duration": 39}, {"note": 0, "velocity": 0, "duration": 81}, {"note": 68, "velocity": 127, "duration": 87}, {"note": 66, "velocity": 117, "duration": 103}, {"note": 68, "velocity": 112, "duration": 56}, {"note": 0, "velocity": 0, "duration": 64}, {"note": 68, "velocity": 127, "duration": 77}, {"note": 68, "velocity": 122, "duration": 58}, {"note": 0, "velocity": 0, "duration": 62}, {"note": 68, "velocity": 112, "duration": 64}, {"note": 71, "velocity": 96, "duration": 88}, {"note": 68, "velocity": 107, "duration": 69}, {"note": 69, "velocity": 112, "duration": 696}, {"note": 0, "velocity": 0, "duration": 504}, {"note": 63, "velocity": 97, "duration": 43}, {"note": 0, "velocity": 0, "duration": 77}, {"note": 63, "velocity": 99, "duration": 59}, {"note": 0, "velocity": 0, "duration": 61}, {"note": 71, "velocity": 95, "duration": 157}, {"note": 0, "velocity": 0, "duration": 83}, {"note": 71, "velocity": 100, "duration": 93}, {"note": 73, "velocity": 112, "duration": 101}, {"note": 70, "velocity": 122, "duration": 51}, {"note": 0, "velocity": 0, "duration": 69}, {"note": 70, "velocity": 117, "duration": 90}, {"note": 68, "velocity": 112, "duration": 83}, {"note": 66, "velocity": 99, "duration": 289}, {"note": 0, "velocity": 0, "duration": 191}, {"note": 59, "velocity": 95, "duration": 68}, {"note": 68, "velocity": 107, "duration": 51}, {"note": 0, "velocity": 0, "duration": 69}, {"note": 68, "velocity": 122, "duration": 46}, {"note": 0, "velocity": 0, "duration": 74}, {"note": 68, "velocity": 117, "duration": 43}, {"note": 0, "velocity": 0, "duration": 77}, {"note": 68, "velocity": 102, "duration": 43}, {"note": 0, "velocity": 0, "duration": 77}, {"note": 68, "velocity": 112, "duration": 39}, {"note": 0, "velocity": 0, "duration": 81}, {"note": 68, "velocity": 122, "duration": 42}, {"note": 0, "velocity": 0, "duration": 78}, {"note": 66, "velocity": 117, "duration": 34}, {"note": 0, "velocity": 0, "duration": 86}, {"note": 68, "velocity": 127, "duration": 40}, {"note": 0, "velocity": 0, "duration": 80}, {"note": 66, "velocity": 122, "duration": 183}, {"note": 63, "velocity": 100, "duration": 187}, {"note": 0, "velocity": 0, "duration": 773}, {"note": 61, "velocity": 112, "duration": 39}, {"note": 0, "velocity": 0, "duration": 81}, {"note": 61, "velocity": 100, "duration": 50}, {"note": 0, "velocity": 0, "duration": 70}, {"note": 61, "velocity": 122, "duration": 177}, {"note": 0, "velocity": 0, "duration": 63}, {"note": 63, "velocity": 117, "duration": 124}, {"note": 0, "velocity": 0, "duration": 116}, {"note": 66, "velocity": 127, "duration": 55}, {"note": 0, "velocity": 0, "duration": 65}, {"note": 66, "velocity": 122, "duration": 49}, {"note": 0, "velocity": 0, "duration": 71}, {"note": 68, "velocity": 112, "duration": 76}, {"note": 66, "velocity": 127, "duration": 184}, {"note": 0, "velocity": 0, "duration": 416}, {"note": 71, "velocity": 127, "duration": 184}, {"note": 70, "velocity": 122, "duration": 162}, {"note": 0, "velocity": 0, "duration": 78}, {"note": 68, "velocity": 127, "duration": 170}, {"note": 0, "velocity": 0, "duration": 70}, {"note": 66, "velocity": 117, "duration": 132}, {"note": 68, "velocity": 112, "duration": 684}, {"note": 68, "velocity": 117, "duration": 75}, {"note": 71, "velocity": 102, "duration": 90}, {"note": 68, "velocity": 127, "duration": 81}, {"note": 73, "velocity": 122, "duration": 179}, {"note": 0, "velocity": 0, "duration": 61}, {"note": 73, "velocity": 127, "duration": 158}, {"note": 0, "velocity": 0, "duration": 82}, {"note": 73, "velocity": 127, "duration": 163}, {"note": 75, "velocity": 122, "duration": 118}, {"note": 0, "velocity": 0, "duration": 122}, {"note": 73, "velocity": 127, "duration": 649}, {"note": 0, "velocity": 0, "duration": 71}, {"note": 71, "velocity": 100, "duration": 118}, {"note": 75, "velocity": 127, "duration": 159}, {"note": 0, "velocity": 0, "duration": 81}, {"note": 75, "velocity": 127, "duration": 189}, {"note": 73, "velocity": 127, "duration": 175}, {"note": 0, "velocity": 0, "duration": 65}, {"note": 71, "velocity": 112, "duration": 187}, {"note": 70, "velocity": 112, "duration": 131}, {"note": 71, "velocity": 86, "duration": 117}, {"note": 70, "velocity": 100, "duration": 129}, {"note": 68, "velocity": 112, "duration": 466}, {"note": 0, "velocity": 0, "duration": 134}, {"note": 68, "velocity": 96, "duration": 91}, {"note": 71, "velocity": 100, "duration": 89}, {"note": 68, "velocity": 122, "duration": 113}, {"note": 73, "velocity": 117, "duration": 155}, {"note": 0, "velocity": 0, "duration": 85}, {"note": 73, "velocity": 127, "duration": 169}, {"note": 0, "velocity": 0, "duration": 71}, {"note": 73, "velocity": 127, "duration": 100}, {"note": 75, "velocity": 127, "duration": 156}, {"note": 0, "velocity": 0, "duration": 84}, {"note": 73, "velocity": 127, "duration": 635}, {"note": 76, "velocity": 102, "duration": 62}, {"note": 76, "velocity": 90, "duration": 98}, {"note": 78, "velocity": 127, "duration": 131}, {"note": 0, "velocity": 0, "duration": 109}, {"note": 73, "velocity": 117, "duration": 133}, {"note": 0, "velocity": 0, "duration": 107}, {"note": 75, "velocity": 127, "duration": 928}, {"note": 0, "velocity": 0, "duration": 392}, {"note": 71, "velocity": 122, "duration": 243}, {"note": 73, "velocity": 122, "duration": 210}, {"note": 75, "velocity": 127, "duration": 57}, {"note": 0, "velocity": 0, "duration": 63}, {"note": 75, "velocity": 102, "duration": 54}, {"note": 0, "velocity": 0, "duration": 66}, {"note": 75, "velocity": 127, "duration": 55}, {"note": 0, "velocity": 0, "duration": 65}, {"note": 75, "velocity": 127, "duration": 63}, {"note": 75, "velocity": 127, "duration": 88}, {"note": 68, "velocity": 112, "duration": 65}, {"note": 68, "velocity": 122, "duration": 73}, {"note": 78, "velocity": 127, "duration": 219}, {"note": 78, "velocity": 127, "duration": 55}, {"note": 0, "velocity": 0, "duration": 65}, {"note": 78, "velocity": 127, "duration": 102}, {"note": 80, "velocity": 112, "duration": 101}, {"note": 76, "velocity": 112, "duration": 198}, {"note": 76, "velocity": 127, "duration": 86}, {"note": 78, "velocity": 107, "duration": 90}, {"note": 73, "velocity": 122, "duration": 54}, {"note": 0, "velocity": 0, "duration": 66}, {"note": 73, "velocity": 127, "duration": 50}, {"note": 0, "velocity": 0, "duration": 70}, {"note": 73, "velocity": 122, "duration": 50}, {"note": 0, "velocity": 0, "duration": 70}, {"note": 73, "velocity": 117, "duration": 46}, {"note": 0, "velocity": 0, "duration": 74}, {"note": 73, "velocity": 127, "duration": 80}, {"note": 0, "velocity": 0, "duration": 160}, {"note": 66, "velocity": 112, "duration": 59}, {"note": 0, "velocity": 0, "duration": 61}, {"note": 76, "velocity": 112, "duration": 188}, {"note": 76, "velocity": 97, "duration": 57}, {"note": 0, "velocity": 0, "duration": 63}, {"note": 76, "velocity": 102, "duration": 88}, {"note": 78, "velocity": 112, "duration": 108}, {"note": 75, "velocity": 122, "duration": 164}, {"note": 0, "velocity": 0, "duration": 316}, {"note": 71, "velocity": 100, "duration": 52}, {"note": 0, "velocity": 0, "duration": 68}, {"note": 71, "velocity": 95, "duration": 51}, {"note": 0, "velocity": 0, "duration": 69}, {"note": 71, "velocity": 97, "duration": 50}, {"note": 0, "velocity": 0, "duration": 70}, {"note": 71, "velocity": 100, "duration": 52}, {"note": 0, "velocity": 0, "duration": 68}, {"note": 71, "velocity": 112, "duration": 177}, {"note": 0, "velocity": 0, "duration": 63}, {"note": 75, "velocity": 127, "duration": 183}, {"note": 75, "velocity": 127, "duration": 101}, {"note": 73, "velocity": 122, "duration": 59}, {"note": 0, "velocity": 0, "duration": 61}, {"note": 73, "velocity": 122, "duration": 54}, {"note": 0, "velocity": 0, "duration": 66}, {"note": 73, "velocity": 127, "duration": 261}, {"note": 0, "velocity": 0, "duration": 339}, {"note": 70, "velocity": 127, "duration": 140}, {"note": 0, "velocity": 0, "duration": 100}, {"note": 71, "velocity": 99, "duration": 81}, {"note": 73, "velocity": 117, "duration": 154}, {"note": 0, "velocity": 0, "duration": 86}, {"note": 76, "velocity": 127, "duration": 311}, {"note": 75, "velocity": 127, "duration": 589}, {"note": 0, "velocity": 0, "duration": 131}, {"note": 71, "velocity": 112, "duration": 83}, {"note": 73, "velocity": 127, "duration": 82}, {"note": 75, "velocity": 127, "duration": 54}, {"note": 0, "velocity": 0, "duration": 66}, {"note": 75, "velocity": 122, "duration": 49}, {"note": 0, "velocity": 0, "duration": 71}, {"note": 75, "velocity": 127, "duration": 45}, {"note": 0, "velocity": 0, "duration": 75}, {"note": 75, "velocity": 127, "duration": 40}, {"note": 0, "velocity": 0, "duration": 80}, {"note": 75, "velocity": 127, "duration": 105}, {"note": 0, "velocity": 0, "duration": 135}, {"note": 68, "velocity": 117, "duration": 96}, {"note": 78, "velocity": 117, "duration": 179}, {"note": 0, "velocity": 0, "duration": 61}, {"note": 78, "velocity": 127, "duration": 52}, {"note": 0, "velocity": 0, "duration": 68}, {"note": 78, "velocity": 122, "duration": 95}, {"note": 80, "velocity": 112, "duration": 94}, {"note": 76, "velocity": 117, "duration": 139}, {"note": 0, "velocity": 0, "duration": 101}, {"note": 76, "velocity": 117, "duration": 89}, {"note": 78, "velocity": 99, "duration": 86}, {"note": 73, "velocity": 127, "duration": 46}, {"note": 0, "velocity": 0, "duration": 74}, {"note": 73, "velocity": 112, "duration": 42}, {"note": 0, "velocity": 0, "duration": 78}, {"note": 73, "velocity": 102, "duration": 43}, {"note": 0, "velocity": 0, "duration": 77}, {"note": 73, "velocity": 112, "duration": 50}, {"note": 0, "velocity": 0, "duration": 70}, {"note": 73, "velocity": 127, "duration": 108}, {"note": 0, "velocity": 0, "duration": 132}, {"note": 66, "velocity": 117, "duration": 55}, {"note": 0, "velocity": 0, "duration": 65}, {"note": 76, "velocity": 122, "duration": 172}, {"note": 0, "velocity": 0, "duration": 68}, {"note": 76, "velocity": 112, "duration": 57}, {"note": 0, "velocity": 0, "duration": 63}, {"note": 76, "velocity": 107, "duration": 79}, {"note": 78, "velocity": 117, "duration": 92}, {"note": 75, "velocity": 127, "duration": 213}, {"note": 73, "velocity": 127, "duration": 110}, {"note": 71, "velocity": 99, "duration": 65}, {"note": 73, "velocity": 127, "duration": 98}, {"note": 71, "velocity": 96, "duration": 55}, {"note": 0, "velocity": 0, "duration": 65}, {"note": 71, "velocity": 99, "duration": 46}, {"note": 0, "velocity": 0, "duration": 74}, {"note": 71, "velocity": 112, "duration": 174}, {"note": 0, "velocity": 0, "duration": 66}, {"note": 75, "velocity": 117, "duration": 170}, {"note": 0, "velocity": 0, "duration": 70}, {"note": 75, "velocity": 127, "duration": 137}, {"note": 76, "velocity": 83, "duration": 123}, {"note": 75, "velocity": 102, "duration": 133}, {"note": 73, "velocity": 117, "duration": 349}, {"note": 70, "velocity": 122, "duration": 62}, {"note": 70, "velocity": 122, "duration": 73}, {"note": 71, "velocity": 100, "duration": 100}, {"note": 73, "velocity": 127, "duration": 138}, {"note": 0, "velocity": 0, "duration": 102}, {"note": 75, "velocity": 117, "duration": 78}, {"note": 70, "velocity": 127, "duration": 154}, {"note": 0, "velocity": 0, "duration": 86}, {"note": 71, "velocity": 100, "duration": 140}, {"note": 0, "velocity": 0, "duration": 82}, {"note": 70, "velocity": 122, "duration": 210}, {"note": 0, "velocity": 0, "duration": 63}, {"note": 71, "velocity": 112, "duration": 67}, {"note": 70, "velocity": 112, "duration": 60}, {"note": 68, "velocity": 127, "duration": 684}, {"note": 0, "velocity": 0, "duration": 7924}, {"note": 63, "velocity": 97, "duration": 43}, {"note": 0, "velocity": 0, "duration": 77}, {"note": 63, "velocity": 99, "duration": 59}, {"note": 0, "velocity": 0, "duration": 61}, {"note": 71, "velocity": 95, "duration": 157}, {"note": 0, "velocity": 0, "duration": 83}, {"note": 71, "velocity": 100, "duration": 93}, {"note": 73, "velocity": 112, "duration": 101}, {"note": 70, "velocity": 122, "duration": 51}, {"note": 0, "velocity": 0, "duration": 69}, {"note": 70, "velocity": 117, "duration": 90}, {"note": 68, "velocity": 112, "duration": 83}, {"note": 66, "velocity": 99, "duration": 289}, {"note": 0, "velocity": 0, "duration": 191}, {"note": 59, "velocity": 95, "duration": 68}, {"note": 68, "velocity": 107, "duration": 51}, {"note": 0, "velocity": 0, "duration": 69}, {"note": 68, "velocity": 122, "duration": 46}, {"note": 0, "velocity": 0, "duration": 74}, {"note": 68, "velocity": 117, "duration": 43}, {"note": 0, "velocity": 0, "duration": 77}, {"note": 68, "velocity": 102, "duration": 43}, {"note": 0, "velocity": 0, "duration": 77}, {"note": 68, "velocity": 112, "duration": 39}, {"note": 0, "velocity": 0, "duration": 81}, {"note": 68, "velocity": 122, "duration": 42}, {"note": 0, "velocity": 0, "duration": 78}, {"note": 66, "velocity": 117, "duration": 34}, {"note": 0, "velocity": 0, "duration": 86}, {"note": 68, "velocity": 127, "duration": 40}, {"note": 0, "velocity": 0, "duration": 80}, {"note": 66, "velocity": 122, "duration": 183}, {"note": 63, "velocity": 100, "duration": 187}, {"note": 0, "velocity": 0, "duration": 773}, {"note": 61, "velocity": 112, "duration": 39}, {"note": 0, "velocity": 0, "duration": 81}, {"note": 61, "velocity": 100, "duration": 50}, {"note": 0, "velocity": 0, "duration": 70}, {"note": 61, "velocity": 122, "duration": 177}, {"note": 0, "velocity": 0, "duration": 63}, {"note": 63, "velocity": 117, "duration": 124}, {"note": 0, "velocity": 0, "duration": 116}, {"note": 66, "velocity": 127, "duration": 55}, {"note": 0, "velocity": 0, "duration": 65}, {"note": 66, "velocity": 122, "duration": 49}, {"note": 0, "velocity": 0, "duration": 71}, {"note": 68, "velocity": 112, "duration": 76}, {"note": 66, "velocity": 127, "duration": 184}, {"note": 0, "velocity": 0, "duration": 416}, {"note": 71, "velocity": 127, "duration": 184}, {"note": 70, "velocity": 122, "duration": 162}, {"note": 0, "velocity": 0, "duration": 78}, {"note": 68, "velocity": 127, "duration": 170}, {"note": 0, "velocity": 0, "duration": 70}, {"note": 66, "velocity": 117, "duration": 132}, {"note": 68, "velocity": 112, "duration": 684}, {"note": 68, "velocity": 117, "duration": 75}, {"note": 71, "velocity": 102, "duration": 90}, {"note": 68, "velocity": 127, "duration": 81}, {"note": 73, "velocity": 122, "duration": 179}, {"note": 0, "velocity": 0, "duration": 61}, {"note": 73, "velocity": 127, "duration": 158}, {"note": 0, "velocity": 0, "duration": 82}, {"note": 73, "velocity": 127, "duration": 163}, {"note": 75, "velocity": 122, "duration": 118}, {"note": 0, "velocity": 0, "duration": 122}, {"note": 73, "velocity": 127, "duration": 649}, {"note": 0, "velocity": 0, "duration": 71}, {"note": 71, "velocity": 100, "duration": 118}, {"note": 75, "velocity": 127, "duration": 159}, {"note": 0, "velocity": 0, "duration": 81}, {"note": 75, "velocity": 127, "duration": 189}, {"note": 73, "velocity": 127, "duration": 175}, {"note": 0, "velocity": 0, "duration": 65}, {"note": 71, "velocity": 112, "duration": 187}, {"note": 70, "velocity": 112, "duration": 131}, {"note": 71, "velocity": 86, "duration": 117}, {"note": 70, "velocity": 100, "duration": 129}, {"note": 68, "velocity": 112, "duration": 466}, {"note": 0, "velocity": 0, "duration": 134}, {"note": 68, "velocity": 96, "duration": 91}, {"note": 71, "velocity": 100, "duration": 89}, {"note": 68, "velocity": 122, "duration": 113}, {"note": 73, "velocity": 117, "duration": 155}, {"note": 0, "velocity": 0, "duration": 85}, {"note": 73, "velocity": 127, "duration": 169}, {"note": 0, "velocity": 0, "duration": 71}, {"note": 73, "velocity": 127, "duration": 100}, {"note": 75, "velocity": 127, "duration": 156}, {"note": 0, "velocity": 0, "duration": 84}, {"note": 73, "velocity": 127, "duration": 635}, {"note": 76, "velocity": 102, "duration": 62}, {"note": 76, "velocity": 90, "duration": 98}, {"note": 78, "velocity": 127, "duration": 131}, {"note": 0, "velocity": 0, "duration": 109}, {"note": 73, "velocity": 117, "duration": 133}, {"note": 0, "velocity": 0, "duration": 107}, {"note": 75, "velocity": 127, "duration": 928}, {"note": 0, "velocity": 0, "duration": 392}, {"note": 71, "velocity": 122, "duration": 243}, {"note": 73, "velocity": 122, "duration": 210}, {"note": 75, "velocity": 127, "duration": 57}, {"note": 0, "velocity": 0, "duration": 63}, {"note": 75, "velocity": 102, "duration": 54}, {"note": 0, "velocity": 0, "duration": 66}, {"note": 75, "velocity": 127, "duration": 55}, {"note": 0, "velocity": 0, "duration": 65}, {"note": 75, "velocity": 127, "duration": 63}, {"note": 75, "velocity": 127, "duration": 88}, {"note": 68, "velocity": 112, "duration": 65}, {"note": 68, "velocity": 122, "duration": 73}, {"note": 78, "velocity": 127, "duration": 219}, {"note": 78, "velocity": 127, "duration": 55}, {"note": 0, "velocity": 0, "duration": 65}, {"note": 78, "velocity": 127, "duration": 102}, {"note": 80, "velocity": 112, "duration": 101}, {"note": 76, "velocity": 112, "duration": 198}, {"note": 76, "velocity": 127, "duration": 86}, {"note": 78, "velocity": 107, "duration": 90}, {"note": 73, "velocity": 122, "duration": 54}, {"note": 0, "velocity": 0, "duration": 66}, {"note": 73, "velocity": 127, "duration": 50}, {"note": 0, "velocity": 0, "duration": 70}, {"note": 73, "velocity": 122, "duration": 50}, {"note": 0, "velocity": 0, "duration": 70}, {"note": 73, "velocity": 117, "duration": 46}, {"note": 0, "velocity": 0, "duration": 74}, {"note": 73, "velocity": 127, "duration": 80}, {"note": 0, "velocity": 0, "duration": 160}, {"note": 66, "velocity": 112, "duration": 59}, {"note": 0, "velocity": 0, "duration": 61}, {"note": 76, "velocity": 112, "duration": 188}, {"note": 76, "velocity": 97, "duration": 57}, {"note": 0, "velocity": 0, "duration": 63}, {"note": 76, "velocity": 102, "duration": 88}, {"note": 78, "velocity": 112, "duration": 108}, {"note": 75, "velocity": 122, "duration": 164}, {"note": 0, "velocity": 0, "duration": 316}, {"note": 71, "velocity": 100, "duration": 52}, {"note": 0, "velocity": 0, "duration": 68}, {"note": 71, "velocity": 95, "duration": 51}, {"note": 0, "velocity": 0, "duration": 69}, {"note": 71, "velocity": 97, "duration": 50}, {"note": 0, "velocity": 0, "duration": 70}, {"note": 71, "velocity": 100, "duration": 52}, {"note": 0, "velocity": 0, "duration": 68}, {"note": 71, "velocity": 112, "duration": 177}, {"note": 0, "velocity": 0, "duration": 63}, {"note": 75, "velocity": 127, "duration": 183}, {"note": 75, "velocity": 127, "duration": 101}, {"note": 73, "velocity": 122, "duration": 59}, {"note": 0, "velocity": 0, "duration": 61}, {"note": 73, "velocity": 122, "duration": 54}, {"note": 0, "velocity": 0, "duration": 66}, {"note": 73, "velocity": 127, "duration": 261}, {"note": 0, "velocity": 0, "duration": 339}, {"note": 70, "velocity": 127, "duration": 140}, {"note": 0, "velocity": 0, "duration": 100}, {"note": 71, "velocity": 99, "duration": 81}, {"note": 73, "velocity": 117, "duration": 154}, {"note": 0, "velocity": 0, "duration": 86}, {"note": 76, "velocity": 127, "duration": 311}, {"note": 75, "velocity": 127, "duration": 589}, {"note": 0, "velocity": 0, "duration": 131}, {"note": 71, "velocity": 112, "duration": 83}, {"note": 73, "velocity": 127, "duration": 82}, {"note": 75, "velocity": 127, "duration": 54}, {"note": 0, "velocity": 0, "duration": 66}, {"note": 75, "velocity": 122, "duration": 49}, {"note": 0, "velocity": 0, "duration": 71}, {"note": 75, "velocity": 127, "duration": 45}, {"note": 0, "velocity": 0, "duration": 75}, {"note": 75, "velocity": 127, "duration": 40}, {"note": 0, "velocity": 0, "duration": 80}, {"note": 75, "velocity": 127, "duration": 105}, {"note": 0, "velocity": 0, "duration": 135}, {"note": 68, "velocity": 117, "duration": 96}, {"note": 78, "velocity": 117, "duration": 179}, {"note": 0, "velocity": 0, "duration": 61}, {"note": 78, "velocity": 127, "duration": 52}, {"note": 0, "velocity": 0, "duration": 68}, {"note": 78, "velocity": 122, "duration": 95}, {"note": 80, "velocity": 112, "duration": 94}, {"note": 76, "velocity": 117, "duration": 139}, {"note": 0, "velocity": 0, "duration": 101}, {"note": 76, "velocity": 117, "duration": 89}, {"note": 78, "velocity": 99, "duration": 86}, {"note": 73, "velocity": 127, "duration": 46}, {"note": 0, "velocity": 0, "duration": 74}, {"note": 73, "velocity": 112, "duration": 42}, {"note": 0, "velocity": 0, "duration": 78}, {"note": 73, "velocity": 102, "duration": 43}, {"note": 0, "velocity": 0, "duration": 77}, {"note": 73, "velocity": 112, "duration": 50}, {"note": 0, "velocity": 0, "duration": 70}, {"note": 73, "velocity": 127, "duration": 108}, {"note": 0, "velocity": 0, "duration": 132}, {"note": 66, "velocity": 117, "duration": 55}, {"note": 0, "velocity": 0, "duration": 65}, {"note": 76, "velocity": 122, "duration": 172}, {"note": 0, "velocity": 0, "duration": 68}, {"note": 76, "velocity": 112, "duration": 57}, {"note": 0, "velocity": 0, "duration": 63}, {"note": 76, "velocity": 107, "duration": 79}, {"note": 78, "velocity": 117, "duration": 92}, {"note": 75, "velocity": 127, "duration": 213}, {"note": 73, "velocity": 127, "duration": 110}, {"note": 71, "velocity": 99, "duration": 65}, {"note": 73, "velocity": 127, "duration": 98}, {"note": 71, "velocity": 96, "duration": 55}, {"note": 0, "velocity": 0, "duration": 65}, {"note": 71, "velocity": 99, "duration": 46}, {"note": 0, "velocity": 0, "duration": 74}, {"note": 71, "velocity": 112, "duration": 174}, {"note": 0, "velocity": 0, "duration": 66}, {"note": 75, "velocity": 117, "duration": 170}, {"note": 0, "velocity": 0, "duration": 70}, {"note": 75, "velocity": 127, "duration": 137}, {"note": 76, "velocity": 83, "duration": 123}, {"note": 75, "velocity": 102, "duration": 133}, {"note": 73, "velocity": 117, "duration": 349}, {"note": 70, "velocity": 122, "duration": 62}, {"note": 70, "velocity": 122, "duration": 73}, {"note": 71, "velocity": 100, "duration": 100}, {"note": 73, "velocity": 127, "duration": 138}, {"note": 0, "velocity": 0, "duration": 102}, {"note": 75, "velocity": 117, "duration": 78}, {"note": 70, "velocity": 127, "duration": 154}, {"note": 0, "velocity": 0, "duration": 86}, {"note": 71, "velocity": 100, "duration": 140}, {"note": 0, "velocity": 0, "duration": 82}, {"note": 70, "velocity": 122, "duration": 210}, {"note": 0, "velocity": 0, "duration": 63}, {"note": 71, "velocity": 112, "duration": 67}, {"note": 70, "velocity": 112, "duration": 60}, {"note": 68, "velocity": 127, "duration": 684}, {"note": 75, "velocity": 127, "duration": 57}, {"note": 0, "velocity": 0, "duration": 63}, {"note": 75, "velocity": 102, "duration": 54}, {"note": 0, "velocity": 0, "duration": 66}, {"note": 75, "velocity": 127, "duration": 55}, {"note": 0, "velocity": 0, "duration": 65}, {"note": 75, "velocity": 127, "duration": 63}, {"note": 75, "velocity": 127, "duration": 88}, {"note": 68, "velocity": 112, "duration": 65}, {"note": 68, "velocity": 122, "duration": 73}, {"note": 78, "velocity": 127, "duration": 219}, {"note": 78, "velocity": 127, "duration": 55}, {"note": 0, "velocity": 0, "duration": 65}, {"note": 78, "velocity": 127, "duration": 102}, {"note": 80, "velocity": 112, "duration": 101}, {"note": 76, "velocity": 112, "duration": 198}, {"note": 76, "velocity": 127, "duration": 86}, {"note": 78, "velocity": 107, "duration": 90}, {"note": 73, "velocity": 122, "duration": 54}, {"note": 0, "velocity": 0, "duration": 66}, {"note": 73, "velocity": 127, "duration": 50}, {"note": 0, "velocity": 0, "duration": 70}, {"note": 73, "velocity": 122, "duration": 50}, {"note": 0, "velocity": 0, "duration": 70}, {"note": 73, "velocity": 117, "duration": 46}, {"note": 0, "velocity": 0, "duration": 74}, {"note": 73, "velocity": 127, "duration": 80}, {"note": 0, "velocity": 0, "duration": 160}, {"note": 66, "velocity": 112, "duration": 59}, {"note": 0, "velocity": 0, "duration": 61}, {"note": 76, "velocity": 112, "duration": 188}, {"note": 76, "velocity": 97, "duration": 57}, {"note": 0, "velocity": 0, "duration": 63}, {"note": 76, "velocity": 102, "duration": 88}, {"note": 78, "velocity": 112, "duration": 108}, {"note": 75, "velocity": 122, "duration": 164}, {"note": 0, "velocity": 0, "duration": 316}, {"note": 71, "velocity": 100, "duration": 52}, {"note": 0, "velocity": 0, "duration": 68}, {"note": 71, "velocity": 95, "duration": 51}, {"note": 0, "velocity": 0, "duration": 69}, {"note": 71, "velocity": 97, "duration": 50}, {"note": 0, "velocity": 0, "duration": 70}, {"note": 71, "velocity": 100, "duration": 52}, {"note": 0, "velocity": 0, "duration": 68}, {"note": 71, "velocity": 112, "duration": 177}, {"note": 0, "velocity": 0, "duration": 63}, {"note": 75, "velocity": 127, "duration": 183}, {"note": 75, "velocity": 127, "duration": 101}, {"note": 73, "velocity": 122, "duration": 59}, {"note": 0, "velocity": 0, "duration": 61}, {"note": 73, "velocity": 122, "duration": 54}, {"note": 0, "velocity": 0, "duration": 66}, {"note": 73, "velocity": 127, "duration": 261}, {"note": 0, "velocity": 0, "duration": 339}, {"note": 70, "velocity": 127, "duration": 140}, {"note": 0, "velocity": 0, "duration": 100}, {"note": 71, "velocity": 99, "duration": 81}, {"note": 73, "velocity": 117, "duration": 154}, {"note": 0, "velocity": 0, "duration": 86}, {"note": 76, "velocity": 127, "duration": 311}, {"note": 75, "velocity": 127, "duration": 589}, {"note": 0, "velocity": 0, "duration": 131}, {"note": 71, "velocity": 112, "duration": 83}, {"note": 73, "velocity": 127, "duration": 82}, {"note": 75, "velocity": 127, "duration": 54}, {"note": 0, "velocity": 0, "duration": 66}, {"note": 75, "velocity": 122, "duration": 49}, {"note": 0, "velocity": 0, "duration": 71}, {"note": 75, "velocity": 127, "duration": 45}, {"note": 0, "velocity": 0, "duration": 75}, {"note": 75, "velocity": 127, "duration": 40}, {"note": 0, "velocity": 0, "duration": 80}, {"note": 75, "velocity": 127, "duration": 105}, {"note": 0, "velocity": 0, "duration": 135}, {"note": 68, "velocity": 117, "duration": 96}, {"note": 78, "velocity": 117, "duration": 179}, {"note": 0, "velocity": 0, "duration": 61}, {"note": 78, "velocity": 127, "duration": 52}, {"note": 0, "velocity": 0, "duration": 68}, {"note": 78, "velocity": 122, "duration": 95}, {"note": 80, "velocity": 112, "duration": 94}, {"note": 76, "velocity": 117, "duration": 139}, {"note": 0, "velocity": 0, "duration": 101}, {"note": 76, "velocity": 117, "duration": 89}, {"note": 78, "velocity": 99, "duration": 86}, {"note": 73, "velocity": 127, "duration": 46}, {"note": 0, "velocity": 0, "duration": 74}, {"note": 73, "velocity": 112, "duration": 42}, {"note": 0, "velocity": 0, "duration": 78}, {"note": 73, "velocity": 102, "duration": 43}, {"note": 0, "velocity": 0, "duration": 77}, {"note": 73, "velocity": 112, "duration": 50}, {"note": 0, "velocity": 0, "duration": 70}, {"note": 73, "velocity": 127, "duration": 108}, {"note": 0, "velocity": 0, "duration": 132}, {"note": 66, "velocity": 117, "duration": 55}, {"note": 0, "velocity": 0, "duration": 65}, {"note": 76, "velocity": 122, "duration": 172}, {"note": 0, "velocity": 0, "duration": 68}, {"note": 76, "velocity": 112, "duration": 57}, {"note": 0, "velocity": 0, "duration": 63}, {"note": 76, "velocity": 107, "duration": 79}, {"note": 78, "velocity": 117, "duration": 92}, {"note": 75, "velocity": 127, "duration": 213}, {"note": 73, "velocity": 127, "duration": 110}, {"note": 71, "velocity": 99, "duration": 65}, {"note": 73, "velocity": 127, "duration": 98}, {"note": 71, "velocity": 96, "duration": 55}, {"note": 0, "velocity": 0, "duration": 65}, {"note": 71, "velocity": 99, "duration": 46}, {"note": 0, "velocity": 0, "duration": 74}, {"note": 71, "velocity": 112, "duration": 174}, {"note": 0, "velocity": 0, "duration": 66}, {"note": 75, "velocity": 117, "duration": 170}, {"note": 0, "velocity": 0, "duration": 70}, {"note": 75, "velocity": 127, "duration": 137}, {"note": 76, "velocity": 83, "duration": 123}, {"note": 75, "velocity": 102, "duration": 133}, {"note": 73, "velocity": 117, "duration": 240}, {"note": 73, "velocity": 127, "duration": 120}, {"note": 0, "velocity": 0, "duration": 480}, {"note": 70, "velocity": 127, "duration": 180}, {"note": 71, "velocity": 107, "duration": 96}, {"note": 73, "velocity": 127, "duration": 152}, {"note": 0, "velocity": 0, "duration": 88}, {"note": 76, "velocity": 127, "duration": 312}, {"note": 75, "velocity": 127, "duration": 658}, {"note": 0, "velocity": 0, "duration": 62}, {"note": 71, "velocity": 112, "duration": 83}, {"note": 73, "velocity": 127, "duration": 82}, {"note": 75, "velocity": 127, "duration": 54}, {"note": 0, "velocity": 0, "duration": 66}, {"note": 75, "velocity": 122, "duration": 49}, {"note": 0, "velocity": 0, "duration": 71}, {"note": 75, "velocity": 127, "duration": 45}, {"note": 0, "velocity": 0, "duration": 75}, {"note": 75, "velocity": 127, "duration": 40}, {"note": 0, "velocity": 0, "duration": 80}, {"note": 75, "velocity": 127, "duration": 105}, {"note": 0, "velocity": 0, "duration": 135}, {"note": 68, "velocity": 117, "duration": 96}, {"note": 78, "velocity": 117, "duration": 179}, {"note": 0, "velocity": 0, "duration": 61}, {"note": 78, "velocity": 127, "duration": 52}, {"note": 0, "velocity": 0, "duration": 68}, {"note": 78, "velocity": 122, "duration": 95}, {"note": 80, "velocity": 112, "duration": 94}, {"note": 76, "velocity": 117, "duration": 139}, {"note": 0, "velocity": 0, "duration": 101}, {"note": 76, "velocity": 117, "duration": 89}, {"note": 78, "velocity": 99, "duration": 86}, {"note": 73, "velocity": 127, "duration": 46}, {"note": 0, "velocity": 0, "duration": 74}, {"note": 73, "velocity": 112, "duration": 42}, {"note": 0, "velocity": 0, "duration": 78}, {"note": 73, "velocity": 102, "duration": 43}, {"note": 0, "velocity": 0, "duration": 77}, {"note": 73, "velocity": 112, "duration": 50}, {"note": 0, "velocity": 0, "duration": 70}, {"note": 73, "velocity": 127, "duration": 108}, {"note": 0, "velocity": 0, "duration": 132}, {"note": 66, "velocity": 117, "duration": 55}, {"note": 0, "velocity": 0, "duration": 65}, {"note": 76, "velocity": 122, "duration": 172}, {"note": 0, "velocity": 0, "duration": 68}, {"note": 76, "velocity": 112, "duration": 57}, {"note": 0, "velocity": 0, "duration": 63}, {"note": 76, "velocity": 107, "duration": 79}, {"note": 78, "velocity": 117, "duration": 92}, {"note": 75, "velocity": 127, "duration": 213}, {"note": 73, "velocity": 127, "duration": 110}, {"note": 71, "velocity": 99, "duration": 65}, {"note": 73, "velocity": 127, "duration": 98}, {"note": 71, "velocity": 96, "duration": 55}, {"note": 0, "velocity": 0, "duration": 65}, {"note": 71, "velocity": 99, "duration": 46}, {"note": 0, "velocity": 0, "duration": 74}, {"note": 71, "velocity": 112, "duration": 174}, {"note": 0, "velocity": 0, "duration": 66}, {"note": 75, "velocity": 117, "duration": 170}, {"note": 0, "velocity": 0, "duration": 70}, {"note": 75, "velocity": 127, "duration": 137}, {"note": 76, "velocity": 83, "duration": 123}, {"note": 75, "velocity": 102, "duration": 133}, {"note": 73, "velocity": 127, "duration": 967}, {"note": 0, "velocity": 0, "duration": 361}, {"note": 70, "velocity": 112, "duration": 52}, {"note": 0, "velocity": 0, "duration": 68}, {"note": 70, "velocity": 122, "duration": 74}, {"note": 71, "velocity": 95, "duration": 73}, {"note": 73, "velocity": 127, "duration": 209}, {"note": 75, "velocity": 127, "duration": 69}, {"note": 70, "velocity": 122, "duration": 267}, {"note": 0, "velocity": 0, "duration": 93}, {"note": 71, "velocity": 99, "duration": 271}, {"note": 70, "velocity": 117, "duration": 135}, {"note": 71, "velocity": 79, "duration": 127}, {"note": 70, "velocity": 117, "duration": 129}, {"note": 71, "velocity": 82, "duration": 86}, {"note": 70, "velocity": 107, "duration": 77}, {"note": 68, "velocity": 112, "duration": 1339}]]