[[{"note": 70, "velocity": 127, "duration": 320}, {"note": 0, "velocity": 0, "duration": 160}, {"note": 70, "velocity": 127, "duration": 140}, {"note": 0, "velocity": 0, "duration": 100}, {"note": 67, "velocity": 122, "duration": 94}, {"note": 70, "velocity": 102, "duration": 103}, {"note": 67, "velocity": 107, "duration": 176}, {"note": 0, "velocity": 0, "duration": 64}, {"note": 67, "velocity": 122, "duration": 114}, {"note": 65, "velocity": 90, "duration": 106}, {"note": 63, "velocity": 112, "duration": 299}, {"note": 0, "velocity": 0, "duration": 181}, {"note": 60, "velocity": 117, "duration": 286}, {"note": 0, "velocity": 0, "duration": 74}, {"note": 63, "velocity": 95, "duration": 137}, {"note": 60, "velocity": 100, "duration": 144}, {"note": 0, "velocity": 0, "duration": 96}, {"note": 58, "velocity": 127, "duration": 102}, {"note": 55, "velocity": 90, "duration": 123}, {"note": 58, "velocity": 127, "duration": 806}, {"note": 0, "velocity": 0, "duration": 154}, {"note": 60, "velocity": 107, "duration": 316}, {"note": 67, "velocity": 96, "duration": 55}, {"note": 0, "velocity": 0, "duration": 65}, {"note": 67, "velocity": 96, "duration": 153}, {"note": 0, "velocity": 0, "duration": 87}, {"note": 60, "velocity": 99, "duration": 183}, {"note": 63, "velocity": 127, "duration": 182}, {"note": 65, "velocity": 93, "duration": 113}, {"note": 63, "velocity": 112, "duration": 103}, {"note": 60, "velocity": 107, "duration": 368}, {"note": 0, "velocity": 0, "duration": 112}, {"note": 63, "velocity": 127, "duration": 57}, {"note": 0, "velocity": 0, "duration": 63}, {"note": 63, "velocity": 107, "duration": 120}, {"note": 0, "velocity": 0, "duration": 120}, {"note": 67, "velocity": 102, "duration": 113}, {"note": 65, "velocity": 100, "duration": 153}, {"note": 0, "velocity": 0, "duration": 87}, {"note": 63, "velocity": 112, "duration": 163}, {"note": 0, "velocity": 0, "duration": 77}, {"note": 65, "velocity": 117, "duration": 734}, {"note": 0, "velocity": 0, "duration": 226}, {"note": 67, "velocity": 112, "duration": 332}, {"note": 0, "velocity": 0, "duration": 148}, {"note": 67, "velocity": 112, "duration": 263}, {"note": 0, "velocity": 0, "duration": 97}, {"note": 70, "velocity": 127, "duration": 107}, {"note": 67, "velocity": 100, "duration": 200}, {"note": 65, "velocity": 97, "duration": 219}, {"note": 63, "velocity": 112, "duration": 308}, {"note": 0, "velocity": 0, "duration": 172}, {"note": 60, "velocity": 97, "duration": 158}, {"note": 0, "velocity": 0, "duration": 82}, {"note": 60, "velocity": 96, "duration": 164}, {"note": 63, "velocity": 112, "duration": 141}, {"note": 65, "velocity": 93, "duration": 141}, {"note": 67, "velocity": 95, "duration": 161}, {"note": 65, "velocity": 117, "duration": 98}, {"note": 63, "velocity": 117, "duration": 108}, {"note": 60, "velocity": 107, "duration": 787}, {"note": 0, "velocity": 0, "duration": 173}, {"note": 58, "velocity": 127, "duration": 158}, {"note": 0, "velocity": 0, "duration": 82}, {"note": 58, "velocity": 122, "duration": 100}, {"note": 55, "velocity": 96, "duration": 106}, {"note": 58, "velocity": 122, "duration": 219}, {"note": 0, "velocity": 0, "duration": 141}, {"note": 60, "velocity": 95, "duration": 87}, {"note": 63, "velocity": 112, "duration": 149}, {"note": 0, "velocity": 0, "duration": 91}, {"note": 65, "velocity": 102, "duration": 110}, {"note": 63, "velocity": 112, "duration": 103}, {"note": 60, "velocity": 117, "duration": 420}, {"note": 70, "velocity": 127, "duration": 131}, {"note": 0, "velocity": 0, "duration": 109}, {"note": 70, "velocity": 117, "duration": 111}, {"note": 67, "velocity": 99, "duration": 107}, {"note": 65, "velocity": 102, "duration": 131}, {"note": 67, "velocity": 102, "duration": 129}, {"note": 65, "velocity": 89, "duration": 99}, {"note": 63, "velocity": 112, "duration": 68}, {"note": 63, "velocity": 112, "duration": 832}, {"note": 0, "velocity": 0, "duration": 128}, {"note": 70, "velocity": 127, "duration": 174}, {"note": 0, "velocity": 0, "duration": 306}, {"note": 70, "velocity": 127, "duration": 163}, {"note": 0, "velocity": 0, "duration": 317}, {"note": 70, "velocity": 127, "duration": 245}, {"note": 0, "velocity": 0, "duration": 115}, {"note": 67, "velocity": 127, "duration": 117}, {"note": 70, "velocity": 127, "duration": 251}, {"note": 0, "velocity": 0, "duration": 229}, {"note": 63, "velocity": 127, "duration": 252}, {"note": 0, "velocity": 0, "duration": 228}, {"note": 63, "velocity": 127, "duration": 296}, {"note": 0, "velocity": 0, "duration": 184}, {"note": 63, "velocity": 127, "duration": 250}, {"note": 0, "velocity": 0, "duration": 110}, {"note": 60, "velocity": 107, "duration": 108}, {"note": 63, "velocity": 127, "duration": 343}, {"note": 0, "velocity": 0, "duration": 137}, {"note": 67, "velocity": 117, "duration": 136}, {"note": 0, "velocity": 0, "duration": 104}, {"note": 67, "velocity": 99, "duration": 92}, {"note": 70, "velocity": 95, "duration": 148}, {"note": 67, "velocity": 102, "duration": 151}, {"note": 0, "velocity": 0, "duration": 89}, {"note": 65, "velocity": 112, "duration": 124}, {"note": 0, "velocity": 0, "duration": 116}, {"note": 63, "velocity": 127, "duration": 112}, {"note": 60, "velocity": 92, "duration": 120}, {"note": 63, "velocity": 127, "duration": 91}, {"note": 65, "velocity": 112, "duration": 96}, {"note": 67, "velocity": 127, "duration": 201}, {"note": 0, "velocity": 0, "duration": 279}, {"note": 65, "velocity": 112, "duration": 51}, {"note": 0, "velocity": 0, "duration": 69}, {"note": 65, "velocity": 100, "duration": 129}, {"note": 0, "velocity": 0, "duration": 111}, {"note": 67, "velocity": 127, "duration": 84}, {"note": 70, "velocity": 122, "duration": 173}, {"note": 0, "velocity": 0, "duration": 67}, {"note": 70, "velocity": 127, "duration": 97}, {"note": 67, "velocity": 97, "duration": 100}, {"note": 65, "velocity": 102, "duration": 107}, {"note": 67, "velocity": 102, "duration": 106}, {"note": 65, "velocity": 112, "duration": 112}, {"note": 63, "velocity": 127, "duration": 118}, {"note": 65, "velocity": 99, "duration": 302}, {"note": 0, "velocity": 0, "duration": 178}, {"note": 63, "velocity": 127, "duration": 207}, {"note": 60, "velocity": 102, "duration": 111}, {"note": 58, "velocity": 122, "duration": 75}, {"note": 58, "velocity": 122, "duration": 452}, {"note": 0, "velocity": 0, "duration": 988}, {"note": 67, "velocity": 112, "duration": 109}, {"note": 70, "velocity": 117, "duration": 137}, {"note": 67, "velocity": 96, "duration": 100}, {"note": 65, "velocity": 97, "duration": 173}, {"note": 67, "velocity": 100, "duration": 591}, {"note": 0, "velocity": 0, "duration": 849}, {"note": 63, "velocity": 127, "duration": 56}, {"note": 0, "velocity": 0, "duration": 64}, {"note": 63, "velocity": 112, "duration": 116}, {"note": 0, "velocity": 0, "duration": 124}, {"note": 63, "velocity": 117, "duration": 53}, {"note": 0, "velocity": 0, "duration": 67}, {"note": 60, "velocity": 107, "duration": 202}, {"note": 58, "velocity": 100, "duration": 132}, {"note": 0, "velocity": 0, "duration": 108}, {"note": 67, "velocity": 122, "duration": 60}, {"note": 67, "velocity": 102, "duration": 148}, {"note": 0, "velocity": 0, "duration": 92}, {"note": 70, "velocity": 127, "duration": 93}, {"note": 72, "velocity": 107, "duration": 114}, {"note": 70, "velocity": 102, "duration": 92}, {"note": 72, "velocity": 112, "duration": 243}, {"note": 70, "velocity": 122, "duration": 480}, {"note": 0, "velocity": 0, "duration": 240}, {"note": 65, "velocity": 97, "duration": 163}, {"note": 67, "velocity": 99, "duration": 150}, {"note": 70, "velocity": 107, "duration": 127}, {"note": 72, "velocity": 88, "duration": 156}, {"note": 70, "velocity": 127, "duration": 395}, {"note": 0, "velocity": 0, "duration": 85}, {"note": 67, "velocity": 107, "duration": 98}, {"note": 70, "velocity": 117, "duration": 85}, {"note": 72, "velocity": 107, "duration": 220}, {"note": 0, "velocity": 0, "duration": 140}, {"note": 72, "velocity": 117, "duration": 115}, {"note": 70, "velocity": 127, "duration": 185}, {"note": 67, "velocity": 127, "duration": 153}, {"note": 0, "velocity": 0, "duration": 87}, {"note": 65, "velocity": 127, "duration": 109}, {"note": 67, "velocity": 93, "duration": 90}, {"note": 63, "velocity": 112, "duration": 128}, {"note": 65, "velocity": 96, "duration": 121}, {"note": 67, "velocity": 112, "duration": 383}, {"note": 0, "velocity": 0, "duration": 1057}, {"note": 67, "velocity": 107, "duration": 241}, {"note": 75, "velocity": 112, "duration": 248}, {"note": 72, "velocity": 117, "duration": 211}, {"note": 70, "velocity": 117, "duration": 217}, {"note": 72, "velocity": 117, "duration": 267}, {"note": 75, "velocity": 102, "duration": 236}, {"note": 72, "velocity": 122, "duration": 978}, {"note": 0, "velocity": 0, "duration": 10062}, {"note": 70, "velocity": 127, "duration": 320}, {"note": 0, "velocity": 0, "duration": 160}, {"note": 70, "velocity": 127, "duration": 140}, {"note": 0, "velocity": 0, "duration": 100}, {"note": 67, "velocity": 122, "duration": 94}, {"note": 70, "velocity": 102, "duration": 103}, {"note": 67, "velocity": 107, "duration": 176}, {"note": 0, "velocity": 0, "duration": 64}, {"note": 67, "velocity": 122, "duration": 114}, {"note": 65, "velocity": 90, "duration": 106}, {"note": 63, "velocity": 112, "duration": 299}, {"note": 0, "velocity": 0, "duration": 181}, {"note": 60, "velocity": 117, "duration": 286}, {"note": 0, "velocity": 0, "duration": 74}, {"note": 63, "velocity": 95, "duration": 137}, {"note": 60, "velocity": 100, "duration": 144}, {"note": 0, "velocity": 0, "duration": 96}, {"note": 58, "velocity": 127, "duration": 102}, {"note": 55, "velocity": 90, "duration": 123}, {"note": 58, "velocity": 127, "duration": 806}, {"note": 0, "velocity": 0, "duration": 154}, {"note": 60, "velocity": 107, "duration": 316}, {"note": 67, "velocity": 96, "duration": 55}, {"note": 0, "velocity": 0, "duration": 65}, {"note": 67, "velocity": 96, "duration": 153}, {"note": 0, "velocity": 0, "duration": 87}, {"note": 60, "velocity": 99, "duration": 183}, {"note": 63, "velocity": 127, "duration": 182}, {"note": 65, "velocity": 93, "duration": 113}, {"note": 63, "velocity": 112, "duration": 103}, {"note": 60, "velocity": 107, "duration": 368}, {"note": 0, "velocity": 0, "duration": 112}, {"note": 63, "velocity": 127, "duration": 57}, {"note": 0, "velocity": 0, "duration": 63}, {"note": 63, "velocity": 107, "duration": 120}, {"note": 0, "velocity": 0, "duration": 120}, {"note": 67, "velocity": 102, "duration": 113}, {"note": 65, "velocity": 100, "duration": 153}, {"note": 0, "velocity": 0, "duration": 87}, {"note": 63, "velocity": 112, "duration": 163}, {"note": 0, "velocity": 0, "duration": 77}, {"note": 65, "velocity": 117, "duration": 734}, {"note": 0, "velocity": 0, "duration": 226}, {"note": 67, "velocity": 112, "duration": 332}, {"note": 0, "velocity": 0, "duration": 148}, {"note": 67, "velocity": 112, "duration": 263}, {"note": 0, "velocity": 0, "duration": 97}, {"note": 70, "velocity": 127, "duration": 107}, {"note": 67, "velocity": 100, "duration": 200}, {"note": 65, "velocity": 97, "duration": 219}, {"note": 63, "velocity": 112, "duration": 308}, {"note": 0, "velocity": 0, "duration": 172}, {"note": 60, "velocity": 97, "duration": 158}, {"note": 0, "velocity": 0, "duration": 82}, {"note": 60, "velocity": 96, "duration": 164}, {"note": 63, "velocity": 112, "duration": 141}, {"note": 65, "velocity": 93, "duration": 141}, {"note": 67, "velocity": 95, "duration": 161}, {"note": 65, "velocity": 117, "duration": 98}, {"note": 63, "velocity": 117, "duration": 108}, {"note": 60, "velocity": 107, "duration": 787}, {"note": 0, "velocity": 0, "duration": 173}, {"note": 58, "velocity": 127, "duration": 158}, {"note": 0, "velocity": 0, "duration": 82}, {"note": 58, "velocity": 122, "duration": 100}, {"note": 55, "velocity": 96, "duration": 106}, {"note": 58, "velocity": 122, "duration": 219}, {"note": 0, "velocity": 0, "duration": 141}, {"note": 60, "velocity": 95, "duration": 87}, {"note": 63, "velocity": 112, "duration": 149}, {"note": 0, "velocity": 0, "duration": 91}, {"note": 65, "velocity": 102, "duration": 110}, {"note": 63, "velocity": 112, "duration": 103}, {"note": 60, "velocity": 117, "duration": 420}, {"note": 70, "velocity": 127, "duration": 131}, {"note": 0, "velocity": 0, "duration": 109}, {"note": 70, "velocity": 117, "duration": 111}, {"note": 67, "velocity": 99, "duration": 107}, {"note": 65, "velocity": 102, "duration": 131}, {"note": 67, "velocity": 102, "duration": 129}, {"note": 65, "velocity": 89, "duration": 99}, {"note": 63, "velocity": 112, "duration": 68}, {"note": 63, "velocity": 112, "duration": 832}, {"note": 0, "velocity": 0, "duration": 128}, {"note": 70, "velocity": 127, "duration": 174}, {"note": 0, "velocity": 0, "duration": 306}, {"note": 70, "velocity": 127, "duration": 163}, {"note": 0, "velocity": 0, "duration": 317}, {"note": 70, "velocity": 127, "duration": 245}, {"note": 0, "velocity": 0, "duration": 115}, {"note": 67, "velocity": 127, "duration": 117}, {"note": 70, "velocity": 127, "duration": 251}, {"note": 0, "velocity": 0, "duration": 229}, {"note": 63, "velocity": 127, "duration": 252}, {"note": 0, "velocity": 0, "duration": 228}, {"note": 63, "velocity": 127, "duration": 296}, {"note": 0, "velocity": 0, "duration": 184}, {"note": 63, "velocity": 127, "duration": 250}, {"note": 0, "velocity": 0, "duration": 110}, {"note": 60, "velocity": 107, "duration": 108}, {"note": 63, "velocity": 127, "duration": 343}, {"note": 0, "velocity": 0, "duration": 137}, {"note": 67, "velocity": 117, "duration": 136}, {"note": 0, "velocity": 0, "duration": 104}, {"note": 67, "velocity": 99, "duration": 92}, {"note": 70, "velocity": 95, "duration": 148}, {"note": 67, "velocity": 102, "duration": 151}, {"note": 0, "velocity": 0, "duration": 89}, {"note": 65, "velocity": 112, "duration": 124}, {"note": 0, "velocity": 0, "duration": 116}, {"note": 63, "velocity": 127, "duration": 112}, {"note": 60, "velocity": 92, "duration": 120}, {"note": 63, "velocity": 127, "duration": 91}, {"note": 65, "velocity": 112, "duration": 96}, {"note": 67, "velocity": 127, "duration": 201}, {"note": 0, "velocity": 0, "duration": 279}, {"note": 65, "velocity": 112, "duration": 51}, {"note": 0, "velocity": 0, "duration": 69}, {"note": 65, "velocity": 100, "duration": 129}, {"note": 0, "velocity": 0, "duration": 111}, {"note": 67, "velocity": 127, "duration": 84}, {"note": 70, "velocity": 122, "duration": 173}, {"note": 0, "velocity": 0, "duration": 67}, {"note": 70, "velocity": 127, "duration": 97}, {"note": 67, "velocity": 97, "duration": 100}, {"note": 65, "velocity": 102, "duration": 107}, {"note": 67, "velocity": 102, "duration": 106}, {"note": 65, "velocity": 112, "duration": 112}, {"note": 63, "velocity": 127, "duration": 118}, {"note": 65, "velocity": 99, "duration": 302}, {"note": 0, "velocity": 0, "duration": 178}, {"note": 63, "velocity": 127, "duration": 207}, {"note": 60, "velocity": 102, "duration": 111}, {"note": 58, "velocity": 122, "duration": 75}, {"note": 58, "velocity": 122, "duration": 452}, {"note": 0, "velocity": 0, "duration": 988}, {"note": 67, "velocity": 112, "duration": 109}, {"note": 70, "velocity": 117, "duration": 137}, {"note": 67, "velocity": 96, "duration": 100}, {"note": 65, "velocity": 97, "duration": 173}, {"note": 67, "velocity": 100, "duration": 591}, {"note": 0, "velocity": 0, "duration": 849}, {"note": 63, "velocity": 127, "duration": 56}, {"note": 0, "velocity": 0, "duration": 64}, {"note": 63, "velocity": 112, "duration": 116}, {"note": 0, "velocity": 0, "duration": 124}, {"note": 63, "velocity": 117, "duration": 53}, {"note": 0, "velocity": 0, "duration": 67}, {"note": 60, "velocity": 107, "duration": 202}, {"note": 58, "velocity": 100, "duration": 132}, {"note": 0, "velocity": 0, "duration": 108}, {"note": 67, "velocity": 122, "duration": 60}, {"note": 67, "velocity": 102, "duration": 148}, {"note": 0, "velocity": 0, "duration": 92}, {"note": 70, "velocity": 127, "duration": 93}, {"note": 72, "velocity": 107, "duration": 114}, {"note": 70, "velocity": 102, "duration": 92}, {"note": 72, "velocity": 112, "duration": 243}, {"note": 70, "velocity": 122, "duration": 480}, {"note": 0, "velocity": 0, "duration": 240}, {"note": 65, "velocity": 97, "duration": 163}, {"note": 67, "velocity": 99, "duration": 150}, {"note": 70, "velocity": 107, "duration": 127}, {"note": 72, "velocity": 88, "duration": 156}, {"note": 70, "velocity": 127, "duration": 395}, {"note": 0, "velocity": 0, "duration": 85}, {"note": 67, "velocity": 107, "duration": 98}, {"note": 70, "velocity": 117, "duration": 85}, {"note": 72, "velocity": 107, "duration": 220}, {"note": 0, "velocity": 0, "duration": 140}, {"note": 72, "velocity": 117, "duration": 115}, {"note": 70, "velocity": 127, "duration": 185}, {"note": 67, "velocity": 127, "duration": 153}, {"note": 0, "velocity": 0, "duration": 87}, {"note": 65, "velocity": 127, "duration": 109}, {"note": 67, "velocity": 93, "duration": 90}, {"note": 63, "velocity": 112, "duration": 128}, {"note": 65, "velocity": 96, "duration": 121}, {"note": 67, "velocity": 112, "duration": 383}, {"note": 0, "velocity": 0, "duration": 1057}, {"note": 67, "velocity": 107, "duration": 241}, {"note": 75, "velocity": 112, "duration": 248}, {"note": 72, "velocity": 117, "duration": 211}, {"note": 70, "velocity": 117, "duration": 217}, {"note": 72, "velocity": 117, "duration": 267}, {"note": 75, "velocity": 102, "duration": 236}, {"note": 72, "velocity": 122, "duration": 978}, {"note": 0, "velocity": 0, "duration": 17742}, {"note": 70, "velocity": 127, "duration": 174}, {"note": 0, "velocity": 0, "duration": 306}, {"note": 70, "velocity": 127, "duration": 163}, {"note": 0, "velocity": 0, "duration": 317}, {"note": 70, "velocity": 127, "duration": 245}, {"note": 0, "velocity": 0, "duration": 115}, {"note": 67, "velocity": 127, "duration": 117}, {"note": 70, "velocity": 127, "duration": 251}, {"note": 0, "velocity": 0, "duration": 229}, {"note": 63, "velocity": 127, "duration": 252}, {"note": 0, "velocity": 0, "duration": 228}, {"note": 63, "velocity": 127, "duration": 296}, {"note": 0, "velocity": 0, "duration": 184}, {"note": 63, "velocity": 127, "duration": 250}, {"note": 0, "velocity": 0, "duration": 110}, {"note": 60, "velocity": 107, "duration": 108}, {"note": 63, "velocity": 127, "duration": 343}, {"note": 0, "velocity": 0, "duration": 137}, {"note": 67, "velocity": 117, "duration": 136}, {"note": 0, "velocity": 0, "duration": 104}, {"note": 67, "velocity": 99, "duration": 92}, {"note": 70, "velocity": 95, "duration": 148}, {"note": 67, "velocity": 102, "duration": 151}, {"note": 0, "velocity": 0, "duration": 89}, {"note": 65, "velocity": 112, "duration": 124}, {"note": 0, "velocity": 0, "duration": 116}, {"note": 63, "velocity": 127, "duration": 112}, {"note": 60, "velocity": 92, "duration": 120}, {"note": 63, "velocity": 127, "duration": 91}, {"note": 65, "velocity": 112, "duration": 96}, {"note": 67, "velocity": 127, "duration": 201}, {"note": 0, "velocity": 0, "duration": 279}, {"note": 65, "velocity": 112, "duration": 51}, {"note": 0, "velocity": 0, "duration": 69}, {"note": 65, "velocity": 100, "duration": 129}, {"note": 0, "velocity": 0, "duration": 111}, {"note": 67, "velocity": 127, "duration": 84}, {"note": 70, "velocity": 122, "duration": 173}, {"note": 0, "velocity": 0, "duration": 67}, {"note": 70, "velocity": 127, "duration": 97}, {"note": 67, "velocity": 97, "duration": 100}, {"note": 65, "velocity": 102, "duration": 107}, {"note": 67, "velocity": 102, "duration": 106}, {"note": 65, "velocity": 112, "duration": 112}, {"note": 63, "velocity": 127, "duration": 118}, {"note": 65, "velocity": 99, "duration": 302}, {"note": 0, "velocity": 0, "duration": 178}, {"note": 63, "velocity": 127, "duration": 207}, {"note": 60, "velocity": 102, "duration": 111}, {"note": 58, "velocity": 122, "duration": 75}, {"note": 58, "velocity": 122, "duration": 452}, {"note": 0, "velocity": 0, "duration": 988}, {"note": 67, "velocity": 112, "duration": 109}, {"note": 70, "velocity": 117, "duration": 137}, {"note": 67, "velocity": 96, "duration": 100}, {"note": 65, "velocity": 97, "duration": 173}, {"note": 67, "velocity": 100, "duration": 591}, {"note": 0, "velocity": 0, "duration": 849}, {"note": 63, "velocity": 127, "duration": 56}, {"note": 0, "velocity": 0, "duration": 64}, {"note": 63, "velocity": 112, "duration": 116}, {"note": 0, "velocity": 0, "duration": 124}, {"note": 63, "velocity": 117, "duration": 53}, {"note": 0, "velocity": 0, "duration": 67}, {"note": 60, "velocity": 107, "duration": 202}, {"note": 58, "velocity": 100, "duration": 132}, {"note": 0, "velocity": 0, "duration": 108}, {"note": 67, "velocity": 122, "duration": 60}, {"note": 67, "velocity": 102, "duration": 148}, {"note": 0, "velocity": 0, "duration": 92}, {"note": 70, "velocity": 127, "duration": 93}, {"note": 72, "velocity": 107, "duration": 114}, {"note": 70, "velocity": 102, "duration": 92}, {"note": 72, "velocity": 112, "duration": 243}, {"note": 70, "velocity": 122, "duration": 480}, {"note": 0, "velocity": 0, "duration": 240}, {"note": 65, "velocity": 97, "duration": 163}, {"note": 67, "velocity": 99, "duration": 150}, {"note": 70, "velocity": 107, "duration": 127}, {"note": 72, "velocity": 88, "duration": 156}, {"note": 70, "velocity": 127, "duration": 395}, {"note": 0, "velocity": 0, "duration": 85}, {"note": 67, "velocity": 107, "duration": 98}, {"note": 70, "velocity": 117, "duration": 85}, {"note": 72, "velocity": 107, "duration": 220}, {"note": 0, "velocity": 0, "duration": 140}, {"note": 72, "velocity": 117, "duration": 115}, {"note": 70, "velocity": 127, "duration": 185}, {"note": 67, "velocity": 127, "duration": 153}, {"note": 0, "velocity": 0, "duration": 87}, {"note": 65, "velocity": 127, "duration": 109}, {"note": 67, "velocity": 93, "duration": 90}, {"note": 63, "velocity": 112, "duration": 128}, {"note": 65, "velocity": 96, "duration": 121}, {"note": 67, "velocity": 112, "duration": 383}, {"note": 0, "velocity": 0, "duration": 1057}, {"note": 67, "velocity": 107, "duration": 241}, {"note": 75, "velocity": 112, "duration": 248}, {"note": 72, "velocity": 117, "duration": 211}, {"note": 70, "velocity": 117, "duration": 217}, {"note": 72, "velocity": 117, "duration": 267}, {"note": 75, "velocity": 102, "duration": 236}, {"note": 72, "velocity": 122, "duration": 978}]]