[[{"note": 63, "velocity": 112, "duration": 71}, {"note": 63, "velocity": 107, "duration": 193}, {"note": 63, "velocity": 97, "duration": 69}, {"note": 63, "velocity": 89, "duration": 65}, {"note": 71, "velocity": 93, "duration": 149}, {"note": 70, "velocity": 100, "duration": 119}, {"note": 71, "velocity": 96, "duration": 691}, {"note": 73, "velocity": 117, "duration": 94}, {"note": 71, "velocity": 89, "duration": 102}, {"note": 70, "velocity": 107, "duration": 273}, {"note": 0, "velocity": 0, "duration": 207}, {"note": 66, "velocity": 92, "duration": 79}, {"note": 66, "velocity": 107, "duration": 156}, {"note": 0, "velocity": 0, "duration": 84}, {"note": 63, "velocity": 99, "duration": 102}, {"note": 68, "velocity": 93, "duration": 767}, {"note": 0, "velocity": 0, "duration": 313}, {"note": 63, "velocity": 112, "duration": 76}, {"note": 63, "velocity": 99, "duration": 184}, {"note": 63, "velocity": 93, "duration": 61}, {"note": 63, "velocity": 97, "duration": 64}, {"note": 71, "velocity": 96, "duration": 125}, {"note": 70, "velocity": 96, "duration": 105}, {"note": 71, "velocity": 112, "duration": 600}, {"note": 0, "velocity": 0, "duration": 120}, {"note": 73, "velocity": 112, "duration": 123}, {"note": 71, "velocity": 90, "duration": 133}, {"note": 70, "velocity": 112, "duration": 330}, {"note": 0, "velocity": 0, "duration": 150}, {"note": 70, "velocity": 107, "duration": 180}, {"note": 71, "velocity": 99, "duration": 109}, {"note": 73, "velocity": 97, "duration": 134}, {"note": 68, "velocity": 92, "duration": 876}, {"note": 0, "velocity": 0, "duration": 204}, {"note": 63, "velocity": 112, "duration": 71}, {"note": 63, "velocity": 107, "duration": 193}, {"note": 63, "velocity": 97, "duration": 69}, {"note": 63, "velocity": 89, "duration": 65}, {"note": 71, "velocity": 93, "duration": 149}, {"note": 70, "velocity": 100, "duration": 119}, {"note": 71, "velocity": 96, "duration": 691}, {"note": 73, "velocity": 117, "duration": 94}, {"note": 71, "velocity": 89, "duration": 102}, {"note": 70, "velocity": 107, "duration": 273}, {"note": 0, "velocity": 0, "duration": 207}, {"note": 66, "velocity": 92, "duration": 79}, {"note": 66, "velocity": 107, "duration": 156}, {"note": 0, "velocity": 0, "duration": 84}, {"note": 63, "velocity": 99, "duration": 102}, {"note": 68, "velocity": 93, "duration": 767}, {"note": 0, "velocity": 0, "duration": 313}, {"note": 63, "velocity": 112, "duration": 76}, {"note": 63, "velocity": 99, "duration": 184}, {"note": 63, "velocity": 93, "duration": 61}, {"note": 63, "velocity": 97, "duration": 64}, {"note": 71, "velocity": 96, "duration": 125}, {"note": 73, "velocity": 96, "duration": 105}, {"note": 71, "velocity": 112, "duration": 600}, {"note": 0, "velocity": 0, "duration": 120}, {"note": 68, "velocity": 112, "duration": 114}, {"note": 70, "velocity": 102, "duration": 75}, {"note": 71, "velocity": 96, "duration": 130}, {"note": 73, "velocity": 122, "duration": 61}, {"note": 73, "velocity": 122, "duration": 56}, {"note": 0, "velocity": 0, "duration": 64}, {"note": 73, "velocity": 122, "duration": 63}, {"note": 73, "velocity": 127, "duration": 73}, {"note": 71, "velocity": 122, "duration": 93}, {"note": 70, "velocity": 122, "duration": 133}, {"note": 0, "velocity": 0, "duration": 107}, {"note": 68, "velocity": 112, "duration": 785}, {"note": 68, "velocity": 112, "duration": 65}, {"note": 70, "velocity": 117, "duration": 82}, {"note": 71, "velocity": 97, "duration": 598}, {"note": 0, "velocity": 0, "duration": 242}, {"note": 75, "velocity": 127, "duration": 183}, {"note": 75, "velocity": 127, "duration": 154}, {"note": 0, "velocity": 0, "duration": 86}, {"note": 76, "velocity": 127, "duration": 210}, {"note": 73, "velocity": 97, "duration": 173}, {"note": 0, "velocity": 0, "duration": 67}, {"note": 71, "velocity": 112, "duration": 123}, {"note": 73, "velocity": 127, "duration": 261}, {"note": 0, "velocity": 0, "duration": 99}, {"note": 70, "velocity": 127, "duration": 194}, {"note": 71, "velocity": 112, "duration": 233}, {"note": 73, "velocity": 122, "duration": 138}, {"note": 75, "velocity": 127, "duration": 449}, {"note": 0, "velocity": 0, "duration": 391}, {"note": 68, "velocity": 127, "duration": 132}, {"note": 70, "velocity": 102, "duration": 107}, {"note": 71, "velocity": 107, "duration": 187}, {"note": 73, "velocity": 117, "duration": 103}, {"note": 71, "velocity": 122, "duration": 372}, {"note": 0, "velocity": 0, "duration": 228}, {"note": 70, "velocity": 127, "duration": 235}, {"note": 71, "velocity": 90, "duration": 150}, {"note": 70, "velocity": 107, "duration": 216}, {"note": 0, "velocity": 0, "duration": 144}, {"note": 63, "velocity": 112, "duration": 212}, {"note": 68, "velocity": 122, "duration": 632}, {"note": 0, "velocity": 0, "duration": 1288}, {"note": 75, "velocity": 127, "duration": 52}, {"note": 0, "velocity": 0, "duration": 68}, {"note": 75, "velocity": 117, "duration": 57}, {"note": 0, "velocity": 0, "duration": 63}, {"note": 75, "velocity": 127, "duration": 52}, {"note": 0, "velocity": 0, "duration": 68}, {"note": 75, "velocity": 107, "duration": 47}, {"note": 0, "velocity": 0, "duration": 73}, {"note": 75, "velocity": 127, "duration": 54}, {"note": 0, "velocity": 0, "duration": 66}, {"note": 75, "velocity": 127, "duration": 128}, {"note": 0, "velocity": 0, "duration": 112}, {"note": 73, "velocity": 127, "duration": 168}, {"note": 0, "velocity": 0, "duration": 72}, {"note": 73, "velocity": 127, "duration": 48}, {"note": 0, "velocity": 0, "duration": 72}, {"note": 73, "velocity": 117, "duration": 50}, {"note": 0, "velocity": 0, "duration": 70}, {"note": 73, "velocity": 127, "duration": 45}, {"note": 0, "velocity": 0, "duration": 75}, {"note": 80, "velocity": 127, "duration": 113}, {"note": 78, "velocity": 127, "duration": 161}, {"note": 0, "velocity": 0, "duration": 79}, {"note": 73, "velocity": 127, "duration": 174}, {"note": 0, "velocity": 0, "duration": 66}, {"note": 73, "velocity": 102, "duration": 55}, {"note": 0, "velocity": 0, "duration": 65}, {"note": 73, "velocity": 117, "duration": 53}, {"note": 0, "velocity": 0, "duration": 67}, {"note": 73, "velocity": 107, "duration": 50}, {"note": 0, "velocity": 0, "duration": 70}, {"note": 73, "velocity": 127, "duration": 160}, {"note": 0, "velocity": 0, "duration": 80}, {"note": 73, "velocity": 127, "duration": 123}, {"note": 71, "velocity": 93, "duration": 120}, {"note": 73, "velocity": 127, "duration": 86}, {"note": 75, "velocity": 127, "duration": 208}, {"note": 75, "velocity": 122, "duration": 290}, {"note": 0, "velocity": 0, "duration": 310}, {"note": 68, "velocity": 127, "duration": 358}, {"note": 0, "velocity": 0, "duration": 122}, {"note": 68, "velocity": 116, "duration": 82}, {"note": 68, "velocity": 116, "duration": 67}, {"note": 71, "velocity": 116, "duration": 90}, {"note": 73, "velocity": 117, "duration": 251}, {"note": 0, "velocity": 0, "duration": 469}, {"note": 73, "velocity": 127, "duration": 101}, {"note": 71, "velocity": 95, "duration": 98}, {"note": 73, "velocity": 117, "duration": 113}, {"note": 0, "velocity": 0, "duration": 127}, {"note": 75, "velocity": 122, "duration": 65}, {"note": 75, "velocity": 97, "duration": 64}, {"note": 75, "velocity": 117, "duration": 56}, {"note": 0, "velocity": 0, "duration": 64}, {"note": 75, "velocity": 122, "duration": 60}, {"note": 75, "velocity": 122, "duration": 59}, {"note": 0, "velocity": 0, "duration": 61}, {"note": 75, "velocity": 127, "duration": 69}, {"note": 78, "velocity": 127, "duration": 91}, {"note": 75, "velocity": 127, "duration": 600}, {"note": 0, "velocity": 0, "duration": 480}, {"note": 75, "velocity": 127, "duration": 59}, {"note": 0, "velocity": 0, "duration": 61}, {"note": 75, "velocity": 102, "duration": 56}, {"note": 0, "velocity": 0, "duration": 64}, {"note": 75, "velocity": 127, "duration": 55}, {"note": 0, "velocity": 0, "duration": 65}, {"note": 75, "velocity": 127, "duration": 56}, {"note": 0, "velocity": 0, "duration": 64}, {"note": 75, "velocity": 127, "duration": 54}, {"note": 0, "velocity": 0, "duration": 66}, {"note": 75, "velocity": 127, "duration": 143}, {"note": 0, "velocity": 0, "duration": 97}, {"note": 73, "velocity": 127, "duration": 165}, {"note": 0, "velocity": 0, "duration": 75}, {"note": 73, "velocity": 107, "duration": 47}, {"note": 0, "velocity": 0, "duration": 73}, {"note": 73, "velocity": 102, "duration": 48}, {"note": 0, "velocity": 0, "duration": 72}, {"note": 73, "velocity": 122, "duration": 44}, {"note": 0, "velocity": 0, "duration": 76}, {"note": 80, "velocity": 127, "duration": 96}, {"note": 78, "velocity": 117, "duration": 155}, {"note": 0, "velocity": 0, "duration": 85}, {"note": 80, "velocity": 127, "duration": 170}, {"note": 0, "velocity": 0, "duration": 70}, {"note": 78, "velocity": 127, "duration": 47}, {"note": 0, "velocity": 0, "duration": 73}, {"note": 78, "velocity": 117, "duration": 53}, {"note": 0, "velocity": 0, "duration": 67}, {"note": 78, "velocity": 127, "duration": 40}, {"note": 0, "velocity": 0, "duration": 80}, {"note": 78, "velocity": 127, "duration": 157}, {"note": 0, "velocity": 0, "duration": 83}, {"note": 75, "velocity": 127, "duration": 50}, {"note": 0, "velocity": 0, "duration": 70}, {"note": 75, "velocity": 127, "duration": 62}, {"note": 73, "velocity": 127, "duration": 111}, {"note": 75, "velocity": 112, "duration": 121}, {"note": 0, "velocity": 0, "duration": 119}, {"note": 75, "velocity": 127, "duration": 289}, {"note": 0, "velocity": 0, "duration": 311}, {"note": 68, "velocity": 127, "duration": 309}, {"note": 68, "velocity": 23, "duration": 44}, {"note": 0, "velocity": 0, "duration": 76}, {"note": 68, "velocity": 127, "duration": 55}, {"note": 0, "velocity": 0, "duration": 65}, {"note": 68, "velocity": 127, "duration": 59}, {"note": 0, "velocity": 0, "duration": 61}, {"note": 80, "velocity": 127, "duration": 104}, {"note": 78, "velocity": 127, "duration": 286}, {"note": 0, "velocity": 0, "duration": 314}, {"note": 70, "velocity": 127, "duration": 99}, {"note": 70, "velocity": 127, "duration": 140}, {"note": 0, "velocity": 0, "duration": 100}, {"note": 66, "velocity": 107, "duration": 119}, {"note": 0, "velocity": 0, "duration": 121}, {"note": 68, "velocity": 127, "duration": 357}, {"note": 0, "velocity": 0, "duration": 18723}, {"note": 63, "velocity": 112, "duration": 71}, {"note": 63, "velocity": 107, "duration": 193}, {"note": 63, "velocity": 97, "duration": 69}, {"note": 63, "velocity": 89, "duration": 65}, {"note": 71, "velocity": 93, "duration": 149}, {"note": 70, "velocity": 100, "duration": 119}, {"note": 71, "velocity": 96, "duration": 691}, {"note": 73, "velocity": 117, "duration": 94}, {"note": 71, "velocity": 89, "duration": 102}, {"note": 70, "velocity": 107, "duration": 273}, {"note": 0, "velocity": 0, "duration": 207}, {"note": 66, "velocity": 92, "duration": 79}, {"note": 66, "velocity": 107, "duration": 156}, {"note": 0, "velocity": 0, "duration": 84}, {"note": 63, "velocity": 99, "duration": 102}, {"note": 68, "velocity": 93, "duration": 767}, {"note": 0, "velocity": 0, "duration": 313}, {"note": 63, "velocity": 112, "duration": 76}, {"note": 63, "velocity": 99, "duration": 184}, {"note": 63, "velocity": 93, "duration": 61}, {"note": 63, "velocity": 97, "duration": 64}, {"note": 71, "velocity": 96, "duration": 125}, {"note": 70, "velocity": 96, "duration": 105}, {"note": 71, "velocity": 112, "duration": 600}, {"note": 0, "velocity": 0, "duration": 120}, {"note": 73, "velocity": 112, "duration": 123}, {"note": 71, "velocity": 90, "duration": 133}, {"note": 70, "velocity": 112, "duration": 330}, {"note": 0, "velocity": 0, "duration": 150}, {"note": 70, "velocity": 107, "duration": 180}, {"note": 71, "velocity": 99, "duration": 109}, {"note": 73, "velocity": 97, "duration": 134}, {"note": 68, "velocity": 92, "duration": 876}, {"note": 0, "velocity": 0, "duration": 204}, {"note": 63, "velocity": 112, "duration": 71}, {"note": 63, "velocity": 107, "duration": 193}, {"note": 63, "velocity": 97, "duration": 69}, {"note": 63, "velocity": 89, "duration": 65}, {"note": 71, "velocity": 93, "duration": 149}, {"note": 70, "velocity": 100, "duration": 119}, {"note": 71, "velocity": 96, "duration": 691}, {"note": 73, "velocity": 117, "duration": 94}, {"note": 71, "velocity": 89, "duration": 102}, {"note": 70, "velocity": 107, "duration": 273}, {"note": 0, "velocity": 0, "duration": 207}, {"note": 66, "velocity": 92, "duration": 79}, {"note": 66, "velocity": 107, "duration": 156}, {"note": 0, "velocity": 0, "duration": 84}, {"note": 63, "velocity": 99, "duration": 102}, {"note": 68, "velocity": 93, "duration": 767}, {"note": 0, "velocity": 0, "duration": 313}, {"note": 63, "velocity": 112, "duration": 76}, {"note": 63, "velocity": 99, "duration": 184}, {"note": 63, "velocity": 93, "duration": 61}, {"note": 63, "velocity": 97, "duration": 64}, {"note": 71, "velocity": 96, "duration": 125}, {"note": 73, "velocity": 96, "duration": 105}, {"note": 71, "velocity": 112, "duration": 600}, {"note": 0, "velocity": 0, "duration": 120}, {"note": 68, "velocity": 112, "duration": 114}, {"note": 70, "velocity": 102, "duration": 75}, {"note": 71, "velocity": 96, "duration": 130}, {"note": 73, "velocity": 122, "duration": 61}, {"note": 73, "velocity": 122, "duration": 56}, {"note": 0, "velocity": 0, "duration": 64}, {"note": 73, "velocity": 122, "duration": 63}, {"note": 73, "velocity": 127, "duration": 73}, {"note": 71, "velocity": 122, "duration": 93}, {"note": 70, "velocity": 122, "duration": 133}, {"note": 0, "velocity": 0, "duration": 107}, {"note": 68, "velocity": 112, "duration": 785}, {"note": 68, "velocity": 112, "duration": 65}, {"note": 70, "velocity": 117, "duration": 82}, {"note": 71, "velocity": 97, "duration": 598}, {"note": 0, "velocity": 0, "duration": 242}, {"note": 75, "velocity": 127, "duration": 183}, {"note": 75, "velocity": 127, "duration": 154}, {"note": 0, "velocity": 0, "duration": 86}, {"note": 76, "velocity": 127, "duration": 210}, {"note": 73, "velocity": 97, "duration": 173}, {"note": 0, "velocity": 0, "duration": 67}, {"note": 71, "velocity": 112, "duration": 123}, {"note": 73, "velocity": 127, "duration": 261}, {"note": 0, "velocity": 0, "duration": 99}, {"note": 70, "velocity": 127, "duration": 194}, {"note": 71, "velocity": 112, "duration": 233}, {"note": 73, "velocity": 122, "duration": 138}, {"note": 75, "velocity": 127, "duration": 449}, {"note": 0, "velocity": 0, "duration": 391}, {"note": 68, "velocity": 127, "duration": 132}, {"note": 70, "velocity": 102, "duration": 107}, {"note": 71, "velocity": 107, "duration": 187}, {"note": 73, "velocity": 117, "duration": 103}, {"note": 71, "velocity": 122, "duration": 372}, {"note": 0, "velocity": 0, "duration": 228}, {"note": 70, "velocity": 127, "duration": 235}, {"note": 71, "velocity": 90, "duration": 150}, {"note": 70, "velocity": 107, "duration": 216}, {"note": 0, "velocity": 0, "duration": 144}, {"note": 63, "velocity": 112, "duration": 212}, {"note": 68, "velocity": 122, "duration": 632}, {"note": 0, "velocity": 0, "duration": 1288}, {"note": 75, "velocity": 127, "duration": 52}, {"note": 0, "velocity": 0, "duration": 68}, {"note": 75, "velocity": 117, "duration": 57}, {"note": 0, "velocity": 0, "duration": 63}, {"note": 75, "velocity": 127, "duration": 52}, {"note": 0, "velocity": 0, "duration": 68}, {"note": 75, "velocity": 107, "duration": 47}, {"note": 0, "velocity": 0, "duration": 73}, {"note": 75, "velocity": 127, "duration": 54}, {"note": 0, "velocity": 0, "duration": 66}, {"note": 75, "velocity": 127, "duration": 128}, {"note": 0, "velocity": 0, "duration": 112}, {"note": 73, "velocity": 127, "duration": 168}, {"note": 0, "velocity": 0, "duration": 72}, {"note": 73, "velocity": 127, "duration": 48}, {"note": 0, "velocity": 0, "duration": 72}, {"note": 73, "velocity": 117, "duration": 50}, {"note": 0, "velocity": 0, "duration": 70}, {"note": 73, "velocity": 127, "duration": 45}, {"note": 0, "velocity": 0, "duration": 75}, {"note": 80, "velocity": 127, "duration": 113}, {"note": 78, "velocity": 127, "duration": 161}, {"note": 0, "velocity": 0, "duration": 79}, {"note": 73, "velocity": 127, "duration": 174}, {"note": 0, "velocity": 0, "duration": 66}, {"note": 73, "velocity": 102, "duration": 55}, {"note": 0, "velocity": 0, "duration": 65}, {"note": 73, "velocity": 117, "duration": 53}, {"note": 0, "velocity": 0, "duration": 67}, {"note": 73, "velocity": 107, "duration": 50}, {"note": 0, "velocity": 0, "duration": 70}, {"note": 73, "velocity": 127, "duration": 160}, {"note": 0, "velocity": 0, "duration": 80}, {"note": 73, "velocity": 127, "duration": 123}, {"note": 71, "velocity": 93, "duration": 120}, {"note": 73, "velocity": 127, "duration": 86}, {"note": 75, "velocity": 127, "duration": 208}, {"note": 75, "velocity": 122, "duration": 290}, {"note": 0, "velocity": 0, "duration": 310}, {"note": 68, "velocity": 127, "duration": 358}, {"note": 0, "velocity": 0, "duration": 122}, {"note": 68, "velocity": 116, "duration": 82}, {"note": 68, "velocity": 116, "duration": 67}, {"note": 71, "velocity": 116, "duration": 90}, {"note": 73, "velocity": 117, "duration": 251}, {"note": 0, "velocity": 0, "duration": 469}, {"note": 73, "velocity": 127, "duration": 101}, {"note": 71, "velocity": 95, "duration": 98}, {"note": 73, "velocity": 117, "duration": 113}, {"note": 0, "velocity": 0, "duration": 127}, {"note": 75, "velocity": 122, "duration": 65}, {"note": 75, "velocity": 97, "duration": 64}, {"note": 75, "velocity": 117, "duration": 56}, {"note": 0, "velocity": 0, "duration": 64}, {"note": 75, "velocity": 122, "duration": 60}, {"note": 75, "velocity": 122, "duration": 59}, {"note": 0, "velocity": 0, "duration": 61}, {"note": 75, "velocity": 127, "duration": 69}, {"note": 78, "velocity": 127, "duration": 91}, {"note": 75, "velocity": 127, "duration": 600}, {"note": 0, "velocity": 0, "duration": 480}, {"note": 75, "velocity": 127, "duration": 59}, {"note": 0, "velocity": 0, "duration": 61}, {"note": 75, "velocity": 102, "duration": 56}, {"note": 0, "velocity": 0, "duration": 64}, {"note": 75, "velocity": 127, "duration": 55}, {"note": 0, "velocity": 0, "duration": 65}, {"note": 75, "velocity": 127, "duration": 56}, {"note": 0, "velocity": 0, "duration": 64}, {"note": 75, "velocity": 127, "duration": 54}, {"note": 0, "velocity": 0, "duration": 66}, {"note": 75, "velocity": 127, "duration": 143}, {"note": 0, "velocity": 0, "duration": 97}, {"note": 73, "velocity": 127, "duration": 165}, {"note": 0, "velocity": 0, "duration": 75}, {"note": 73, "velocity": 107, "duration": 47}, {"note": 0, "velocity": 0, "duration": 73}, {"note": 73, "velocity": 102, "duration": 48}, {"note": 0, "velocity": 0, "duration": 72}, {"note": 73, "velocity": 122, "duration": 44}, {"note": 0, "velocity": 0, "duration": 76}, {"note": 80, "velocity": 127, "duration": 96}, {"note": 78, "velocity": 117, "duration": 155}, {"note": 0, "velocity": 0, "duration": 85}, {"note": 80, "velocity": 127, "duration": 170}, {"note": 0, "velocity": 0, "duration": 70}, {"note": 78, "velocity": 127, "duration": 47}, {"note": 0, "velocity": 0, "duration": 73}, {"note": 78, "velocity": 117, "duration": 53}, {"note": 0, "velocity": 0, "duration": 67}, {"note": 78, "velocity": 127, "duration": 40}, {"note": 0, "velocity": 0, "duration": 80}, {"note": 78, "velocity": 127, "duration": 157}, {"note": 0, "velocity": 0, "duration": 83}, {"note": 75, "velocity": 127, "duration": 50}, {"note": 0, "velocity": 0, "duration": 70}, {"note": 75, "velocity": 127, "duration": 62}, {"note": 73, "velocity": 127, "duration": 111}, {"note": 75, "velocity": 112, "duration": 121}, {"note": 0, "velocity": 0, "duration": 119}, {"note": 75, "velocity": 127, "duration": 289}, {"note": 0, "velocity": 0, "duration": 311}, {"note": 68, "velocity": 127, "duration": 309}, {"note": 68, "velocity": 23, "duration": 44}, {"note": 0, "velocity": 0, "duration": 76}, {"note": 68, "velocity": 127, "duration": 55}, {"note": 0, "velocity": 0, "duration": 65}, {"note": 68, "velocity": 127, "duration": 59}, {"note": 0, "velocity": 0, "duration": 61}, {"note": 80, "velocity": 127, "duration": 104}, {"note": 78, "velocity": 127, "duration": 286}, {"note": 0, "velocity": 0, "duration": 314}, {"note": 70, "velocity": 127, "duration": 99}, {"note": 70, "velocity": 127, "duration": 140}, {"note": 0, "velocity": 0, "duration": 100}, {"note": 66, "velocity": 107, "duration": 119}, {"note": 0, "velocity": 0, "duration": 121}, {"note": 68, "velocity": 127, "duration": 357}, {"note": 0, "velocity": 0, "duration": 1443}, {"note": 75, "velocity": 127, "duration": 52}, {"note": 0, "velocity": 0, "duration": 68}, {"note": 75, "velocity": 117, "duration": 57}, {"note": 0, "velocity": 0, "duration": 63}, {"note": 75, "velocity": 127, "duration": 52}, {"note": 0, "velocity": 0, "duration": 68}, {"note": 75, "velocity": 107, "duration": 47}, {"note": 0, "velocity": 0, "duration": 73}, {"note": 75, "velocity": 127, "duration": 54}, {"note": 0, "velocity": 0, "duration": 66}, {"note": 75, "velocity": 127, "duration": 128}, {"note": 0, "velocity": 0, "duration": 112}, {"note": 73, "velocity": 127, "duration": 168}, {"note": 0, "velocity": 0, "duration": 72}, {"note": 73, "velocity": 127, "duration": 48}, {"note": 0, "velocity": 0, "duration": 72}, {"note": 73, "velocity": 117, "duration": 50}, {"note": 0, "velocity": 0, "duration": 70}, {"note": 73, "velocity": 127, "duration": 45}, {"note": 0, "velocity": 0, "duration": 75}, {"note": 80, "velocity": 127, "duration": 113}, {"note": 78, "velocity": 127, "duration": 161}, {"note": 0, "velocity": 0, "duration": 79}, {"note": 73, "velocity": 127, "duration": 174}, {"note": 0, "velocity": 0, "duration": 66}, {"note": 73, "velocity": 102, "duration": 55}, {"note": 0, "velocity": 0, "duration": 65}, {"note": 73, "velocity": 117, "duration": 53}, {"note": 0, "velocity": 0, "duration": 67}, {"note": 73, "velocity": 107, "duration": 50}, {"note": 0, "velocity": 0, "duration": 70}, {"note": 73, "velocity": 127, "duration": 160}, {"note": 0, "velocity": 0, "duration": 80}, {"note": 73, "velocity": 127, "duration": 123}, {"note": 71, "velocity": 93, "duration": 120}, {"note": 73, "velocity": 127, "duration": 86}, {"note": 75, "velocity": 127, "duration": 208}, {"note": 75, "velocity": 122, "duration": 290}, {"note": 0, "velocity": 0, "duration": 310}, {"note": 68, "velocity": 127, "duration": 358}, {"note": 0, "velocity": 0, "duration": 122}, {"note": 68, "velocity": 116, "duration": 82}, {"note": 68, "velocity": 116, "duration": 67}, {"note": 71, "velocity": 116, "duration": 90}, {"note": 73, "velocity": 117, "duration": 251}, {"note": 0, "velocity": 0, "duration": 469}, {"note": 73, "velocity": 127, "duration": 101}, {"note": 71, "velocity": 95, "duration": 98}, {"note": 73, "velocity": 117, "duration": 113}, {"note": 0, "velocity": 0, "duration": 127}, {"note": 75, "velocity": 122, "duration": 65}, {"note": 75, "velocity": 97, "duration": 64}, {"note": 75, "velocity": 117, "duration": 56}, {"note": 0, "velocity": 0, "duration": 64}, {"note": 75, "velocity": 122, "duration": 60}, {"note": 75, "velocity": 122, "duration": 59}, {"note": 0, "velocity": 0, "duration": 61}, {"note": 75, "velocity": 127, "duration": 69}, {"note": 78, "velocity": 127, "duration": 91}, {"note": 75, "velocity": 127, "duration": 600}, {"note": 0, "velocity": 0, "duration": 480}, {"note": 75, "velocity": 127, "duration": 59}, {"note": 0, "velocity": 0, "duration": 61}, {"note": 75, "velocity": 102, "duration": 56}, {"note": 0, "velocity": 0, "duration": 64}, {"note": 75, "velocity": 127, "duration": 55}, {"note": 0, "velocity": 0, "duration": 65}, {"note": 75, "velocity": 127, "duration": 56}, {"note": 0, "velocity": 0, "duration": 64}, {"note": 75, "velocity": 127, "duration": 54}, {"note": 0, "velocity": 0, "duration": 66}, {"note": 75, "velocity": 127, "duration": 143}, {"note": 0, "velocity": 0, "duration": 97}, {"note": 73, "velocity": 127, "duration": 165}, {"note": 0, "velocity": 0, "duration": 75}, {"note": 73, "velocity": 107, "duration": 47}, {"note": 0, "velocity": 0, "duration": 73}, {"note": 73, "velocity": 102, "duration": 48}, {"note": 0, "velocity": 0, "duration": 72}, {"note": 73, "velocity": 122, "duration": 44}, {"note": 0, "velocity": 0, "duration": 76}, {"note": 80, "velocity": 127, "duration": 96}, {"note": 78, "velocity": 117, "duration": 155}, {"note": 0, "velocity": 0, "duration": 85}, {"note": 80, "velocity": 127, "duration": 170}, {"note": 0, "velocity": 0, "duration": 70}, {"note": 78, "velocity": 127, "duration": 47}, {"note": 0, "velocity": 0, "duration": 73}, {"note": 78, "velocity": 117, "duration": 53}, {"note": 0, "velocity": 0, "duration": 67}, {"note": 78, "velocity": 127, "duration": 40}, {"note": 0, "velocity": 0, "duration": 80}, {"note": 78, "velocity": 127, "duration": 157}, {"note": 0, "velocity": 0, "duration": 83}, {"note": 75, "velocity": 127, "duration": 50}, {"note": 0, "velocity": 0, "duration": 70}, {"note": 75, "velocity": 127, "duration": 62}, {"note": 73, "velocity": 127, "duration": 111}, {"note": 75, "velocity": 112, "duration": 121}, {"note": 0, "velocity": 0, "duration": 119}, {"note": 75, "velocity": 127, "duration": 289}, {"note": 0, "velocity": 0, "duration": 311}, {"note": 68, "velocity": 127, "duration": 309}, {"note": 68, "velocity": 23, "duration": 44}, {"note": 0, "velocity": 0, "duration": 76}, {"note": 68, "velocity": 127, "duration": 55}, {"note": 0, "velocity": 0, "duration": 65}, {"note": 68, "velocity": 127, "duration": 59}, {"note": 0, "velocity": 0, "duration": 61}, {"note": 80, "velocity": 127, "duration": 104}, {"note": 78, "velocity": 127, "duration": 286}, {"note": 0, "velocity": 0, "duration": 314}, {"note": 70, "velocity": 127, "duration": 99}, {"note": 70, "velocity": 127, "duration": 140}, {"note": 0, "velocity": 0, "duration": 100}, {"note": 66, "velocity": 107, "duration": 119}, {"note": 0, "velocity": 0, "duration": 121}, {"note": 68, "velocity": 127, "duration": 357}]]