[[{"note": 70, "velocity": 85, "duration": 254}, {"note": 68, "velocity": 85, "duration": 288}, {"note": 70, "velocity": 85, "duration": 301}, {"note": 71, "velocity": 85, "duration": 371}, {"note": 0, "velocity": 0, "duration": 109}, {"note": 70, "velocity": 85, "duration": 244}, {"note": 0, "velocity": 0, "duration": 236}, {"note": 68, "velocity": 85, "duration": 511}, {"note": 0, "velocity": 0, "duration": 449}, {"note": 66, "velocity": 85, "duration": 144}, {"note": 0, "velocity": 0, "duration": 96}, {"note": 66, "velocity": 85, "duration": 511}, {"note": 65, "velocity": 85, "duration": 288}, {"note": 66, "velocity": 85, "duration": 495}, {"note": 68, "velocity": 85, "duration": 320}, {"note": 70, "velocity": 85, "duration": 224}, {"note": 68, "velocity": 85, "duration": 304}, {"note": 70, "velocity": 85, "duration": 1119}, {"note": 0, "velocity": 0, "duration": 1761}, {"note": 70, "velocity": 85, "duration": 160}, {"note": 0, "velocity": 0, "duration": 80}, {"note": 68, "velocity": 85, "duration": 160}, {"note": 0, "velocity": 0, "duration": 80}, {"note": 70, "velocity": 85, "duration": 272}, {"note": 71, "velocity": 85, "duration": 272}, {"note": 0, "velocity": 0, "duration": 208}, {"note": 70, "velocity": 85, "duration": 240}, {"note": 0, "velocity": 0, "duration": 253}, {"note": 68, "velocity": 85, "duration": 800}, {"note": 0, "velocity": 0, "duration": 147}, {"note": 66, "velocity": 85, "duration": 176}, {"note": 0, "velocity": 0, "duration": 64}, {"note": 66, "velocity": 85, "duration": 511}, {"note": 65, "velocity": 85, "duration": 240}, {"note": 70, "velocity": 85, "duration": 256}, {"note": 0, "velocity": 0, "duration": 224}, {"note": 68, "velocity": 85, "duration": 256}, {"note": 66, "velocity": 85, "duration": 1920}, {"note": 0, "velocity": 0, "duration": 1448}, {"note": 73, "velocity": 85, "duration": 710}, {"note": 0, "velocity": 0, "duration": 242}, {"note": 63, "velocity": 85, "duration": 286}, {"note": 0, "velocity": 0, "duration": 194}, {"note": 68, "velocity": 85, "duration": 160}, {"note": 0, "velocity": 0, "duration": 80}, {"note": 68, "velocity": 85, "duration": 754}, {"note": 0, "velocity": 0, "duration": 206}, {"note": 66, "velocity": 85, "duration": 100}, {"note": 0, "velocity": 0, "duration": 140}, {"note": 66, "velocity": 85, "duration": 388}, {"note": 0, "velocity": 0, "duration": 92}, {"note": 63, "velocity": 85, "duration": 177}, {"note": 0, "velocity": 0, "duration": 63}, {"note": 63, "velocity": 85, "duration": 362}, {"note": 0, "velocity": 0, "duration": 118}, {"note": 66, "velocity": 85, "duration": 212}, {"note": 70, "velocity": 85, "duration": 136}, {"note": 0, "velocity": 0, "duration": 104}, {"note": 70, "velocity": 85, "duration": 475}, {"note": 0, "velocity": 0, "duration": 2645}, {"note": 73, "velocity": 85, "duration": 824}, {"note": 0, "velocity": 0, "duration": 136}, {"note": 63, "velocity": 85, "duration": 480}, {"note": 68, "velocity": 85, "duration": 169}, {"note": 0, "velocity": 0, "duration": 71}, {"note": 68, "velocity": 85, "duration": 940}, {"note": 0, "velocity": 0, "duration": 260}, {"note": 63, "velocity": 85, "duration": 366}, {"note": 0, "velocity": 0, "duration": 114}, {"note": 66, "velocity": 85, "duration": 195}, {"note": 70, "velocity": 85, "duration": 692}, {"note": 68, "velocity": 85, "duration": 232}, {"note": 66, "velocity": 85, "duration": 1243}, {"note": 70, "velocity": 85, "duration": 194}, {"note": 71, "velocity": 85, "duration": 124}, {"note": 0, "velocity": 0, "duration": 116}, {"note": 73, "velocity": 85, "duration": 122}, {"note": 0, "velocity": 0, "duration": 118}, {"note": 73, "velocity": 85, "duration": 996}, {"note": 0, "velocity": 0, "duration": 204}, {"note": 70, "velocity": 85, "duration": 235}, {"note": 71, "velocity": 85, "duration": 270}, {"note": 73, "velocity": 85, "duration": 74}, {"note": 0, "velocity": 0, "duration": 166}, {"note": 73, "velocity": 85, "duration": 355}, {"note": 0, "velocity": 0, "duration": 125}, {"note": 75, "velocity": 85, "duration": 246}, {"note": 77, "velocity": 85, "duration": 251}, {"note": 73, "velocity": 85, "duration": 848}, {"note": 0, "velocity": 0, "duration": 112}, {"note": 73, "velocity": 85, "duration": 187}, {"note": 73, "velocity": 85, "duration": 451}, {"note": 71, "velocity": 85, "duration": 163}, {"note": 0, "velocity": 0, "duration": 77}, {"note": 71, "velocity": 85, "duration": 530}, {"note": 70, "velocity": 85, "duration": 224}, {"note": 68, "velocity": 85, "duration": 191}, {"note": 71, "velocity": 85, "duration": 865}, {"note": 0, "velocity": 0, "duration": 335}, {"note": 70, "velocity": 85, "duration": 177}, {"note": 0, "velocity": 0, "duration": 63}, {"note": 71, "velocity": 85, "duration": 253}, {"note": 73, "velocity": 85, "duration": 100}, {"note": 0, "velocity": 0, "duration": 140}, {"note": 73, "velocity": 85, "duration": 1056}, {"note": 0, "velocity": 0, "duration": 144}, {"note": 70, "velocity": 85, "duration": 241}, {"note": 71, "velocity": 85, "duration": 274}, {"note": 73, "velocity": 85, "duration": 143}, {"note": 0, "velocity": 0, "duration": 97}, {"note": 73, "velocity": 85, "duration": 354}, {"note": 0, "velocity": 0, "duration": 126}, {"note": 77, "velocity": 85, "duration": 257}, {"note": 0, "velocity": 0, "duration": 223}, {"note": 73, "velocity": 85, "duration": 877}, {"note": 0, "velocity": 0, "duration": 83}, {"note": 73, "velocity": 85, "duration": 247}, {"note": 77, "velocity": 85, "duration": 417}, {"note": 0, "velocity": 0, "duration": 63}, {"note": 78, "velocity": 85, "duration": 199}, {"note": 73, "velocity": 85, "duration": 616}, {"note": 71, "velocity": 85, "duration": 200}, {"note": 70, "velocity": 85, "duration": 59}, {"note": 0, "velocity": 0, "duration": 181}, {"note": 70, "velocity": 85, "duration": 341}, {"note": 68, "velocity": 85, "duration": 1198}, {"note": 0, "velocity": 0, "duration": 722}, {"note": 70, "velocity": 85, "duration": 435}, {"note": 73, "velocity": 85, "duration": 94}, {"note": 0, "velocity": 0, "duration": 146}, {"note": 68, "velocity": 85, "duration": 835}, {"note": 70, "velocity": 85, "duration": 211}, {"note": 66, "velocity": 85, "duration": 1125}, {"note": 0, "velocity": 0, "duration": 1035}, {"note": 63, "velocity": 85, "duration": 364}, {"note": 0, "velocity": 0, "duration": 116}, {"note": 70, "velocity": 85, "duration": 280}, {"note": 0, "velocity": 0, "duration": 80}, {"note": 68, "velocity": 85, "duration": 852}, {"note": 0, "velocity": 0, "duration": 228}, {"note": 66, "velocity": 85, "duration": 132}, {"note": 0, "velocity": 0, "duration": 228}, {"note": 66, "velocity": 85, "duration": 1597}, {"note": 0, "velocity": 0, "duration": 16283}, {"note": 70, "velocity": 75, "duration": 254}, {"note": 68, "velocity": 75, "duration": 288}, {"note": 70, "velocity": 75, "duration": 301}, {"note": 71, "velocity": 75, "duration": 371}, {"note": 0, "velocity": 0, "duration": 109}, {"note": 70, "velocity": 75, "duration": 244}, {"note": 0, "velocity": 0, "duration": 236}, {"note": 68, "velocity": 75, "duration": 511}, {"note": 0, "velocity": 0, "duration": 449}, {"note": 66, "velocity": 75, "duration": 144}, {"note": 0, "velocity": 0, "duration": 96}, {"note": 66, "velocity": 75, "duration": 511}, {"note": 65, "velocity": 75, "duration": 288}, {"note": 66, "velocity": 75, "duration": 495}, {"note": 68, "velocity": 75, "duration": 320}, {"note": 70, "velocity": 75, "duration": 224}, {"note": 68, "velocity": 75, "duration": 304}, {"note": 70, "velocity": 75, "duration": 1119}, {"note": 0, "velocity": 0, "duration": 1761}, {"note": 70, "velocity": 75, "duration": 160}, {"note": 0, "velocity": 0, "duration": 80}, {"note": 68, "velocity": 75, "duration": 160}, {"note": 0, "velocity": 0, "duration": 80}, {"note": 70, "velocity": 75, "duration": 272}, {"note": 71, "velocity": 75, "duration": 272}, {"note": 0, "velocity": 0, "duration": 208}, {"note": 70, "velocity": 75, "duration": 240}, {"note": 0, "velocity": 0, "duration": 207}, {"note": 68, "velocity": 75, "duration": 800}, {"note": 0, "velocity": 0, "duration": 193}, {"note": 66, "velocity": 75, "duration": 176}, {"note": 0, "velocity": 0, "duration": 64}, {"note": 66, "velocity": 75, "duration": 511}, {"note": 65, "velocity": 75, "duration": 240}, {"note": 70, "velocity": 75, "duration": 256}, {"note": 0, "velocity": 0, "duration": 224}, {"note": 68, "velocity": 75, "duration": 256}, {"note": 0, "velocity": 0, "duration": 224}, {"note": 66, "velocity": 75, "duration": 1920}, {"note": 0, "velocity": 0, "duration": 1226}, {"note": 73, "velocity": 75, "duration": 776}, {"note": 0, "velocity": 0, "duration": 158}, {"note": 63, "velocity": 75, "duration": 286}, {"note": 0, "velocity": 0, "duration": 194}, {"note": 68, "velocity": 75, "duration": 160}, {"note": 0, "velocity": 0, "duration": 80}, {"note": 68, "velocity": 75, "duration": 754}, {"note": 0, "velocity": 0, "duration": 206}, {"note": 66, "velocity": 75, "duration": 100}, {"note": 0, "velocity": 0, "duration": 140}, {"note": 66, "velocity": 75, "duration": 388}, {"note": 0, "velocity": 0, "duration": 92}, {"note": 63, "velocity": 75, "duration": 177}, {"note": 0, "velocity": 0, "duration": 63}, {"note": 63, "velocity": 75, "duration": 362}, {"note": 0, "velocity": 0, "duration": 118}, {"note": 66, "velocity": 75, "duration": 212}, {"note": 70, "velocity": 75, "duration": 136}, {"note": 0, "velocity": 0, "duration": 104}, {"note": 70, "velocity": 75, "duration": 475}, {"note": 0, "velocity": 0, "duration": 2645}, {"note": 73, "velocity": 75, "duration": 547}, {"note": 0, "velocity": 0, "duration": 413}, {"note": 63, "velocity": 75, "duration": 480}, {"note": 68, "velocity": 75, "duration": 169}, {"note": 0, "velocity": 0, "duration": 71}, {"note": 68, "velocity": 75, "duration": 940}, {"note": 0, "velocity": 0, "duration": 260}, {"note": 63, "velocity": 75, "duration": 366}, {"note": 0, "velocity": 0, "duration": 114}, {"note": 66, "velocity": 75, "duration": 195}, {"note": 70, "velocity": 75, "duration": 692}, {"note": 68, "velocity": 75, "duration": 232}, {"note": 66, "velocity": 75, "duration": 1243}, {"note": 70, "velocity": 75, "duration": 194}, {"note": 71, "velocity": 75, "duration": 124}, {"note": 0, "velocity": 0, "duration": 116}, {"note": 73, "velocity": 75, "duration": 122}, {"note": 0, "velocity": 0, "duration": 118}, {"note": 73, "velocity": 75, "duration": 996}, {"note": 0, "velocity": 0, "duration": 204}, {"note": 70, "velocity": 75, "duration": 235}, {"note": 71, "velocity": 75, "duration": 270}, {"note": 73, "velocity": 75, "duration": 74}, {"note": 0, "velocity": 0, "duration": 166}, {"note": 73, "velocity": 75, "duration": 355}, {"note": 0, "velocity": 0, "duration": 125}, {"note": 75, "velocity": 75, "duration": 246}, {"note": 77, "velocity": 75, "duration": 251}, {"note": 73, "velocity": 75, "duration": 848}, {"note": 0, "velocity": 0, "duration": 112}, {"note": 73, "velocity": 75, "duration": 187}, {"note": 73, "velocity": 75, "duration": 451}, {"note": 71, "velocity": 75, "duration": 163}, {"note": 0, "velocity": 0, "duration": 77}, {"note": 71, "velocity": 75, "duration": 530}, {"note": 70, "velocity": 75, "duration": 224}, {"note": 68, "velocity": 75, "duration": 191}, {"note": 71, "velocity": 75, "duration": 865}, {"note": 0, "velocity": 0, "duration": 335}, {"note": 70, "velocity": 75, "duration": 177}, {"note": 0, "velocity": 0, "duration": 63}, {"note": 71, "velocity": 75, "duration": 253}, {"note": 73, "velocity": 75, "duration": 100}, {"note": 0, "velocity": 0, "duration": 140}, {"note": 73, "velocity": 75, "duration": 1056}, {"note": 0, "velocity": 0, "duration": 144}, {"note": 70, "velocity": 75, "duration": 241}, {"note": 71, "velocity": 75, "duration": 274}, {"note": 73, "velocity": 75, "duration": 143}, {"note": 0, "velocity": 0, "duration": 97}, {"note": 73, "velocity": 75, "duration": 354}, {"note": 0, "velocity": 0, "duration": 126}, {"note": 77, "velocity": 75, "duration": 257}, {"note": 0, "velocity": 0, "duration": 223}, {"note": 73, "velocity": 75, "duration": 877}, {"note": 0, "velocity": 0, "duration": 83}, {"note": 73, "velocity": 75, "duration": 247}, {"note": 77, "velocity": 75, "duration": 417}, {"note": 0, "velocity": 0, "duration": 63}, {"note": 78, "velocity": 75, "duration": 199}, {"note": 73, "velocity": 75, "duration": 616}, {"note": 71, "velocity": 75, "duration": 200}, {"note": 70, "velocity": 75, "duration": 59}, {"note": 0, "velocity": 0, "duration": 181}, {"note": 70, "velocity": 75, "duration": 341}, {"note": 68, "velocity": 75, "duration": 1198}, {"note": 75, "velocity": 112, "duration": 177}, {"note": 75, "velocity": 99, "duration": 163}, {"note": 0, "velocity": 0, "duration": 77}, {"note": 73, "velocity": 100, "duration": 122}, {"note": 71, "velocity": 66, "duration": 129}, {"note": 73, "velocity": 96, "duration": 396}, {"note": 0, "velocity": 0, "duration": 804}, {"note": 70, "velocity": 112, "duration": 149}, {"note": 0, "velocity": 0, "duration": 91}, {"note": 71, "velocity": 89, "duration": 226}, {"note": 73, "velocity": 85, "duration": 84}, {"note": 0, "velocity": 0, "duration": 156}, {"note": 73, "velocity": 112, "duration": 454}, {"note": 77, "velocity": 112, "duration": 285}, {"note": 0, "velocity": 0, "duration": 195}, {"note": 73, "velocity": 100, "duration": 952}, {"note": 73, "velocity": 100, "duration": 122}, {"note": 0, "velocity": 0, "duration": 118}, {"note": 73, "velocity": 117, "duration": 410}, {"note": 0, "velocity": 0, "duration": 70}, {"note": 71, "velocity": 77, "duration": 185}, {"note": 71, "velocity": 85, "duration": 356}, {"note": 0, "velocity": 0, "duration": 124}, {"note": 70, "velocity": 85, "duration": 195}, {"note": 68, "velocity": 75, "duration": 145}, {"note": 0, "velocity": 0, "duration": 95}, {"note": 71, "velocity": 96, "duration": 957}, {"note": 0, "velocity": 0, "duration": 243}, {"note": 70, "velocity": 75, "duration": 194}, {"note": 71, "velocity": 75, "duration": 124}, {"note": 0, "velocity": 0, "duration": 116}, {"note": 73, "velocity": 75, "duration": 122}, {"note": 0, "velocity": 0, "duration": 118}, {"note": 73, "velocity": 75, "duration": 996}, {"note": 0, "velocity": 0, "duration": 204}, {"note": 70, "velocity": 75, "duration": 235}, {"note": 71, "velocity": 75, "duration": 270}, {"note": 73, "velocity": 75, "duration": 74}, {"note": 0, "velocity": 0, "duration": 166}, {"note": 73, "velocity": 75, "duration": 355}, {"note": 0, "velocity": 0, "duration": 125}, {"note": 75, "velocity": 75, "duration": 246}, {"note": 77, "velocity": 75, "duration": 251}, {"note": 73, "velocity": 75, "duration": 848}, {"note": 0, "velocity": 0, "duration": 112}, {"note": 73, "velocity": 75, "duration": 187}, {"note": 77, "velocity": 75, "duration": 417}, {"note": 0, "velocity": 0, "duration": 63}, {"note": 78, "velocity": 75, "duration": 199}, {"note": 73, "velocity": 75, "duration": 616}, {"note": 71, "velocity": 75, "duration": 200}, {"note": 70, "velocity": 75, "duration": 59}, {"note": 0, "velocity": 0, "duration": 181}, {"note": 70, "velocity": 75, "duration": 341}, {"note": 68, "velocity": 75, "duration": 1198}, {"note": 0, "velocity": 0, "duration": 746}, {"note": 70, "velocity": 89, "duration": 401}, {"note": 73, "velocity": 92, "duration": 252}, {"note": 68, "velocity": 70, "duration": 751}, {"note": 70, "velocity": 63, "duration": 196}, {"note": 66, "velocity": 69, "duration": 1291}, {"note": 0, "velocity": 0, "duration": 450}, {"note": 63, "velocity": 78, "duration": 533}, {"note": 70, "velocity": 83, "duration": 392}, {"note": 68, "velocity": 70, "duration": 1002}, {"note": 0, "velocity": 0, "duration": 97}, {"note": 66, "velocity": 66, "duration": 325}, {"note": 0, "velocity": 0, "duration": 131}, {"note": 66, "velocity": 76, "duration": 1382}]]