[[{"note": 53, "velocity": 74, "duration": 132}, {"note": 0, "velocity": 0, "duration": 108}, {"note": 53, "velocity": 71, "duration": 187}, {"note": 58, "velocity": 96, "duration": 370}, {"note": 0, "velocity": 0, "duration": 110}, {"note": 60, "velocity": 90, "duration": 341}, {"note": 0, "velocity": 0, "duration": 139}, {"note": 62, "velocity": 102, "duration": 1697}, {"note": 0, "velocity": 0, "duration": 703}, {"note": 62, "velocity": 92, "duration": 122}, {"note": 0, "velocity": 0, "duration": 118}, {"note": 62, "velocity": 79, "duration": 127}, {"note": 0, "velocity": 0, "duration": 113}, {"note": 65, "velocity": 99, "duration": 375}, {"note": 0, "velocity": 0, "duration": 105}, {"note": 63, "velocity": 100, "duration": 188}, {"note": 62, "velocity": 75, "duration": 144}, {"note": 0, "velocity": 0, "duration": 96}, {"note": 62, "velocity": 90, "duration": 128}, {"note": 62, "velocity": 69, "duration": 8}, {"note": 0, "velocity": 0, "duration": 112}, {"note": 58, "velocity": 85, "duration": 1643}, {"note": 0, "velocity": 0, "duration": 517}, {"note": 58, "velocity": 82, "duration": 137}, {"note": 0, "velocity": 0, "duration": 103}, {"note": 58, "velocity": 70, "duration": 150}, {"note": 0, "velocity": 0, "duration": 90}, {"note": 60, "velocity": 88, "duration": 560}, {"note": 0, "velocity": 0, "duration": 160}, {"note": 58, "velocity": 100, "duration": 131}, {"note": 0, "velocity": 0, "duration": 109}, {"note": 65, "velocity": 112, "duration": 402}, {"note": 0, "velocity": 0, "duration": 318}, {"note": 58, "velocity": 92, "duration": 145}, {"note": 0, "velocity": 0, "duration": 95}, {"note": 58, "velocity": 86, "duration": 916}, {"note": 0, "velocity": 0, "duration": 524}, {"note": 63, "velocity": 100, "duration": 177}, {"note": 0, "velocity": 0, "duration": 63}, {"note": 62, "velocity": 82, "duration": 94}, {"note": 0, "velocity": 0, "duration": 146}, {"note": 62, "velocity": 70, "duration": 225}, {"note": 60, "velocity": 72, "duration": 412}, {"note": 0, "velocity": 0, "duration": 68}, {"note": 60, "velocity": 76, "duration": 132}, {"note": 58, "velocity": 67, "duration": 112}, {"note": 60, "velocity": 82, "duration": 1785}, {"note": 0, "velocity": 0, "duration": 615}, {"note": 53, "velocity": 88, "duration": 147}, {"note": 0, "velocity": 0, "duration": 93}, {"note": 53, "velocity": 85, "duration": 181}, {"note": 58, "velocity": 112, "duration": 193}, {"note": 60, "velocity": 85, "duration": 346}, {"note": 0, "velocity": 0, "duration": 134}, {"note": 62, "velocity": 93, "duration": 1968}, {"note": 0, "velocity": 0, "duration": 672}, {"note": 62, "velocity": 97, "duration": 138}, {"note": 0, "velocity": 0, "duration": 102}, {"note": 62, "velocity": 93, "duration": 106}, {"note": 0, "velocity": 0, "duration": 134}, {"note": 67, "velocity": 99, "duration": 235}, {"note": 65, "velocity": 92, "duration": 295}, {"note": 0, "velocity": 0, "duration": 185}, {"note": 62, "velocity": 79, "duration": 114}, {"note": 0, "velocity": 0, "duration": 126}, {"note": 60, "velocity": 85, "duration": 205}, {"note": 58, "velocity": 82, "duration": 2062}, {"note": 0, "velocity": 0, "duration": 98}, {"note": 58, "velocity": 102, "duration": 124}, {"note": 0, "velocity": 0, "duration": 116}, {"note": 58, "velocity": 107, "duration": 132}, {"note": 0, "velocity": 0, "duration": 108}, {"note": 60, "velocity": 100, "duration": 211}, {"note": 0, "velocity": 0, "duration": 509}, {"note": 58, "velocity": 127, "duration": 159}, {"note": 0, "velocity": 0, "duration": 81}, {"note": 65, "velocity": 122, "duration": 636}, {"note": 0, "velocity": 0, "duration": 352}, {"note": 70, "velocity": 102, "duration": 859}, {"note": 0, "velocity": 0, "duration": 553}, {"note": 63, "velocity": 122, "duration": 202}, {"note": 62, "velocity": 64, "duration": 102}, {"note": 0, "velocity": 0, "duration": 138}, {"note": 62, "velocity": 102, "duration": 204}, {"note": 60, "velocity": 99, "duration": 341}, {"note": 0, "velocity": 0, "duration": 139}, {"note": 60, "velocity": 97, "duration": 261}, {"note": 0, "velocity": 0, "duration": 219}, {"note": 58, "velocity": 100, "duration": 1035}, {"note": 0, "velocity": 0, "duration": 3045}, {"note": 67, "velocity": 112, "duration": 203}, {"note": 63, "velocity": 102, "duration": 248}, {"note": 60, "velocity": 100, "duration": 352}, {"note": 0, "velocity": 0, "duration": 128}, {"note": 60, "velocity": 107, "duration": 224}, {"note": 67, "velocity": 100, "duration": 212}, {"note": 65, "velocity": 122, "duration": 960}, {"note": 67, "velocity": 122, "duration": 480}, {"note": 0, "velocity": 0, "duration": 960}, {"note": 63, "velocity": 107, "duration": 147}, {"note": 0, "velocity": 0, "duration": 93}, {"note": 58, "velocity": 99, "duration": 232}, {"note": 57, "velocity": 92, "duration": 409}, {"note": 0, "velocity": 0, "duration": 311}, {"note": 57, "velocity": 97, "duration": 242}, {"note": 63, "velocity": 100, "duration": 239}, {"note": 62, "velocity": 89, "duration": 914}, {"note": 0, "velocity": 0, "duration": 1256}, {"note": 67, "velocity": 99, "duration": 182}, {"note": 63, "velocity": 112, "duration": 232}, {"note": 60, "velocity": 99, "duration": 626}, {"note": 0, "velocity": 0, "duration": 94}, {"note": 67, "velocity": 107, "duration": 413}, {"note": 0, "velocity": 0, "duration": 67}, {"note": 65, "velocity": 100, "duration": 314}, {"note": 0, "velocity": 0, "duration": 166}, {"note": 62, "velocity": 78, "duration": 173}, {"note": 0, "velocity": 0, "duration": 67}, {"note": 60, "velocity": 99, "duration": 185}, {"note": 58, "velocity": 102, "duration": 713}, {"note": 0, "velocity": 0, "duration": 247}, {"note": 55, "velocity": 93, "duration": 182}, {"note": 63, "velocity": 122, "duration": 234}, {"note": 62, "velocity": 96, "duration": 226}, {"note": 62, "velocity": 100, "duration": 312}, {"note": 60, "velocity": 100, "duration": 139}, {"note": 0, "velocity": 0, "duration": 101}, {"note": 60, "velocity": 99, "duration": 213}, {"note": 58, "velocity": 107, "duration": 175}, {"note": 0, "velocity": 0, "duration": 65}, {"note": 60, "velocity": 117, "duration": 1820}, {"note": 0, "velocity": 0, "duration": 2500}, {"note": 53, "velocity": 74, "duration": 132}, {"note": 0, "velocity": 0, "duration": 108}, {"note": 53, "velocity": 71, "duration": 187}, {"note": 58, "velocity": 96, "duration": 234}, {"note": 60, "velocity": 95, "duration": 202}, {"note": 58, "velocity": 89, "duration": 244}, {"note": 62, "velocity": 102, "duration": 1697}, {"note": 0, "velocity": 0, "duration": 943}, {"note": 62, "velocity": 92, "duration": 122}, {"note": 0, "velocity": 0, "duration": 118}, {"note": 62, "velocity": 79, "duration": 127}, {"note": 0, "velocity": 0, "duration": 113}, {"note": 67, "velocity": 99, "duration": 375}, {"note": 65, "velocity": 99, "duration": 285}, {"note": 0, "velocity": 0, "duration": 75}, {"note": 62, "velocity": 99, "duration": 154}, {"note": 0, "velocity": 0, "duration": 86}, {"note": 60, "velocity": 97, "duration": 195}, {"note": 58, "velocity": 102, "duration": 1025}, {"note": 0, "velocity": 0, "duration": 1135}, {"note": 58, "velocity": 82, "duration": 137}, {"note": 0, "velocity": 0, "duration": 103}, {"note": 58, "velocity": 70, "duration": 150}, {"note": 0, "velocity": 0, "duration": 90}, {"note": 60, "velocity": 88, "duration": 560}, {"note": 0, "velocity": 0, "duration": 160}, {"note": 58, "velocity": 100, "duration": 131}, {"note": 0, "velocity": 0, "duration": 109}, {"note": 65, "velocity": 112, "duration": 402}, {"note": 0, "velocity": 0, "duration": 438}, {"note": 70, "velocity": 112, "duration": 1133}, {"note": 0, "velocity": 0, "duration": 427}, {"note": 63, "velocity": 122, "duration": 202}, {"note": 65, "velocity": 89, "duration": 226}, {"note": 62, "velocity": 102, "duration": 555}, {"note": 0, "velocity": 0, "duration": 165}, {"note": 60, "velocity": 97, "duration": 150}, {"note": 0, "velocity": 0, "duration": 90}, {"note": 58, "velocity": 102, "duration": 1389}, {"note": 0, "velocity": 0, "duration": 14451}, {"note": 53, "velocity": 74, "duration": 132}, {"note": 0, "velocity": 0, "duration": 108}, {"note": 53, "velocity": 71, "duration": 187}, {"note": 58, "velocity": 96, "duration": 370}, {"note": 0, "velocity": 0, "duration": 110}, {"note": 60, "velocity": 90, "duration": 341}, {"note": 0, "velocity": 0, "duration": 139}, {"note": 62, "velocity": 102, "duration": 1697}, {"note": 0, "velocity": 0, "duration": 703}, {"note": 62, "velocity": 92, "duration": 122}, {"note": 0, "velocity": 0, "duration": 118}, {"note": 62, "velocity": 79, "duration": 127}, {"note": 0, "velocity": 0, "duration": 113}, {"note": 65, "velocity": 99, "duration": 375}, {"note": 0, "velocity": 0, "duration": 105}, {"note": 63, "velocity": 100, "duration": 188}, {"note": 62, "velocity": 75, "duration": 144}, {"note": 0, "velocity": 0, "duration": 96}, {"note": 62, "velocity": 90, "duration": 128}, {"note": 62, "velocity": 69, "duration": 8}, {"note": 0, "velocity": 0, "duration": 112}, {"note": 58, "velocity": 85, "duration": 1643}, {"note": 0, "velocity": 0, "duration": 517}, {"note": 58, "velocity": 82, "duration": 137}, {"note": 0, "velocity": 0, "duration": 103}, {"note": 58, "velocity": 70, "duration": 150}, {"note": 0, "velocity": 0, "duration": 90}, {"note": 60, "velocity": 88, "duration": 560}, {"note": 0, "velocity": 0, "duration": 160}, {"note": 58, "velocity": 100, "duration": 131}, {"note": 0, "velocity": 0, "duration": 109}, {"note": 65, "velocity": 112, "duration": 402}, {"note": 0, "velocity": 0, "duration": 318}, {"note": 58, "velocity": 92, "duration": 145}, {"note": 0, "velocity": 0, "duration": 95}, {"note": 58, "velocity": 86, "duration": 916}, {"note": 0, "velocity": 0, "duration": 524}, {"note": 63, "velocity": 100, "duration": 177}, {"note": 0, "velocity": 0, "duration": 63}, {"note": 62, "velocity": 82, "duration": 94}, {"note": 0, "velocity": 0, "duration": 146}, {"note": 62, "velocity": 70, "duration": 225}, {"note": 60, "velocity": 72, "duration": 412}, {"note": 0, "velocity": 0, "duration": 68}, {"note": 60, "velocity": 76, "duration": 132}, {"note": 58, "velocity": 67, "duration": 112}, {"note": 60, "velocity": 82, "duration": 1785}, {"note": 0, "velocity": 0, "duration": 615}, {"note": 53, "velocity": 88, "duration": 147}, {"note": 0, "velocity": 0, "duration": 93}, {"note": 53, "velocity": 85, "duration": 181}, {"note": 58, "velocity": 112, "duration": 193}, {"note": 60, "velocity": 85, "duration": 346}, {"note": 0, "velocity": 0, "duration": 134}, {"note": 62, "velocity": 93, "duration": 1968}, {"note": 0, "velocity": 0, "duration": 672}, {"note": 62, "velocity": 97, "duration": 138}, {"note": 0, "velocity": 0, "duration": 102}, {"note": 62, "velocity": 93, "duration": 106}, {"note": 0, "velocity": 0, "duration": 134}, {"note": 67, "velocity": 99, "duration": 235}, {"note": 65, "velocity": 92, "duration": 295}, {"note": 0, "velocity": 0, "duration": 185}, {"note": 62, "velocity": 79, "duration": 114}, {"note": 0, "velocity": 0, "duration": 126}, {"note": 60, "velocity": 85, "duration": 205}, {"note": 58, "velocity": 82, "duration": 2062}, {"note": 0, "velocity": 0, "duration": 98}, {"note": 58, "velocity": 102, "duration": 124}, {"note": 0, "velocity": 0, "duration": 116}, {"note": 58, "velocity": 107, "duration": 132}, {"note": 0, "velocity": 0, "duration": 108}, {"note": 60, "velocity": 100, "duration": 211}, {"note": 0, "velocity": 0, "duration": 509}, {"note": 58, "velocity": 127, "duration": 159}, {"note": 0, "velocity": 0, "duration": 81}, {"note": 65, "velocity": 122, "duration": 636}, {"note": 0, "velocity": 0, "duration": 352}, {"note": 70, "velocity": 102, "duration": 859}, {"note": 0, "velocity": 0, "duration": 553}, {"note": 63, "velocity": 122, "duration": 202}, {"note": 62, "velocity": 64, "duration": 102}, {"note": 0, "velocity": 0, "duration": 138}, {"note": 62, "velocity": 102, "duration": 204}, {"note": 60, "velocity": 99, "duration": 341}, {"note": 0, "velocity": 0, "duration": 139}, {"note": 60, "velocity": 97, "duration": 261}, {"note": 0, "velocity": 0, "duration": 219}, {"note": 58, "velocity": 100, "duration": 1035}, {"note": 0, "velocity": 0, "duration": 3045}, {"note": 67, "velocity": 112, "duration": 203}, {"note": 63, "velocity": 102, "duration": 248}, {"note": 60, "velocity": 100, "duration": 352}, {"note": 0, "velocity": 0, "duration": 128}, {"note": 60, "velocity": 107, "duration": 224}, {"note": 67, "velocity": 100, "duration": 212}, {"note": 65, "velocity": 122, "duration": 960}, {"note": 67, "velocity": 122, "duration": 480}, {"note": 0, "velocity": 0, "duration": 960}, {"note": 63, "velocity": 107, "duration": 147}, {"note": 0, "velocity": 0, "duration": 93}, {"note": 58, "velocity": 99, "duration": 232}, {"note": 57, "velocity": 92, "duration": 409}, {"note": 0, "velocity": 0, "duration": 311}, {"note": 57, "velocity": 97, "duration": 242}, {"note": 63, "velocity": 100, "duration": 239}, {"note": 62, "velocity": 89, "duration": 914}, {"note": 0, "velocity": 0, "duration": 1256}, {"note": 67, "velocity": 99, "duration": 182}, {"note": 63, "velocity": 112, "duration": 232}, {"note": 60, "velocity": 99, "duration": 626}, {"note": 0, "velocity": 0, "duration": 94}, {"note": 67, "velocity": 107, "duration": 413}, {"note": 0, "velocity": 0, "duration": 67}, {"note": 65, "velocity": 100, "duration": 314}, {"note": 0, "velocity": 0, "duration": 166}, {"note": 62, "velocity": 78, "duration": 173}, {"note": 0, "velocity": 0, "duration": 67}, {"note": 60, "velocity": 99, "duration": 185}, {"note": 58, "velocity": 102, "duration": 713}, {"note": 0, "velocity": 0, "duration": 247}, {"note": 55, "velocity": 93, "duration": 182}, {"note": 63, "velocity": 122, "duration": 234}, {"note": 62, "velocity": 96, "duration": 226}, {"note": 62, "velocity": 100, "duration": 312}, {"note": 60, "velocity": 100, "duration": 139}, {"note": 0, "velocity": 0, "duration": 101}, {"note": 60, "velocity": 99, "duration": 213}, {"note": 58, "velocity": 107, "duration": 175}, {"note": 0, "velocity": 0, "duration": 65}, {"note": 60, "velocity": 117, "duration": 1820}, {"note": 0, "velocity": 0, "duration": 2500}, {"note": 53, "velocity": 74, "duration": 132}, {"note": 0, "velocity": 0, "duration": 108}, {"note": 53, "velocity": 71, "duration": 187}, {"note": 58, "velocity": 96, "duration": 234}, {"note": 60, "velocity": 95, "duration": 202}, {"note": 58, "velocity": 89, "duration": 244}, {"note": 62, "velocity": 102, "duration": 1697}, {"note": 0, "velocity": 0, "duration": 943}, {"note": 62, "velocity": 92, "duration": 122}, {"note": 0, "velocity": 0, "duration": 118}, {"note": 62, "velocity": 79, "duration": 127}, {"note": 0, "velocity": 0, "duration": 113}, {"note": 67, "velocity": 99, "duration": 375}, {"note": 65, "velocity": 99, "duration": 285}, {"note": 0, "velocity": 0, "duration": 75}, {"note": 62, "velocity": 99, "duration": 154}, {"note": 0, "velocity": 0, "duration": 86}, {"note": 60, "velocity": 97, "duration": 195}, {"note": 58, "velocity": 102, "duration": 1025}, {"note": 0, "velocity": 0, "duration": 1135}, {"note": 58, "velocity": 82, "duration": 137}, {"note": 0, "velocity": 0, "duration": 103}, {"note": 58, "velocity": 70, "duration": 150}, {"note": 0, "velocity": 0, "duration": 90}, {"note": 60, "velocity": 88, "duration": 560}, {"note": 0, "velocity": 0, "duration": 160}, {"note": 58, "velocity": 100, "duration": 131}, {"note": 0, "velocity": 0, "duration": 109}, {"note": 65, "velocity": 112, "duration": 402}, {"note": 0, "velocity": 0, "duration": 438}, {"note": 70, "velocity": 112, "duration": 1133}, {"note": 0, "velocity": 0, "duration": 427}, {"note": 63, "velocity": 122, "duration": 202}, {"note": 65, "velocity": 89, "duration": 226}, {"note": 62, "velocity": 102, "duration": 555}, {"note": 0, "velocity": 0, "duration": 165}, {"note": 60, "velocity": 97, "duration": 150}, {"note": 0, "velocity": 0, "duration": 90}, {"note": 58, "velocity": 102, "duration": 1389}, {"note": 0, "velocity": 0, "duration": 1011}, {"note": 58, "velocity": 82, "duration": 137}, {"note": 0, "velocity": 0, "duration": 103}, {"note": 58, "velocity": 70, "duration": 150}, {"note": 0, "velocity": 0, "duration": 90}, {"note": 60, "velocity": 88, "duration": 560}, {"note": 0, "velocity": 0, "duration": 160}, {"note": 58, "velocity": 100, "duration": 131}, {"note": 0, "velocity": 0, "duration": 109}, {"note": 65, "velocity": 112, "duration": 402}, {"note": 0, "velocity": 0, "duration": 438}, {"note": 70, "velocity": 112, "duration": 1133}, {"note": 0, "velocity": 0, "duration": 906}, {"note": 63, "velocity": 93, "duration": 255}, {"note": 65, "velocity": 79, "duration": 256}, {"note": 62, "velocity": 95, "duration": 858}, {"note": 60, "velocity": 74, "duration": 300}, {"note": 58, "velocity": 88, "duration": 2946}]]