[[{"note": 60, "velocity": 95, "duration": 74}, {"note": 60, "velocity": 76, "duration": 67}, {"note": 60, "velocity": 71, "duration": 60}, {"note": 60, "velocity": 72, "duration": 59}, {"note": 0, "velocity": 0, "duration": 61}, {"note": 60, "velocity": 95, "duration": 181}, {"note": 62, "velocity": 100, "duration": 196}, {"note": 60, "velocity": 97, "duration": 472}, {"note": 0, "velocity": 0, "duration": 488}, {"note": 65, "velocity": 97, "duration": 56}, {"note": 0, "velocity": 0, "duration": 64}, {"note": 65, "velocity": 85, "duration": 45}, {"note": 0, "velocity": 0, "duration": 75}, {"note": 65, "velocity": 81, "duration": 43}, {"note": 0, "velocity": 0, "duration": 77}, {"note": 65, "velocity": 88, "duration": 45}, {"note": 0, "velocity": 0, "duration": 75}, {"note": 65, "velocity": 112, "duration": 173}, {"note": 0, "velocity": 0, "duration": 67}, {"note": 67, "velocity": 112, "duration": 203}, {"note": 69, "velocity": 127, "duration": 704}, {"note": 0, "velocity": 0, "duration": 136}, {"note": 67, "velocity": 102, "duration": 121}, {"note": 65, "velocity": 112, "duration": 233}, {"note": 69, "velocity": 93, "duration": 176}, {"note": 0, "velocity": 0, "duration": 64}, {"note": 69, "velocity": 117, "duration": 228}, {"note": 74, "velocity": 127, "duration": 144}, {"note": 72, "velocity": 102, "duration": 309}, {"note": 69, "velocity": 117, "duration": 473}, {"note": 0, "velocity": 0, "duration": 367}, {"note": 67, "velocity": 112, "duration": 53}, {"note": 0, "velocity": 0, "duration": 67}, {"note": 67, "velocity": 92, "duration": 48}, {"note": 0, "velocity": 0, "duration": 72}, {"note": 67, "velocity": 99, "duration": 63}, {"note": 69, "velocity": 96, "duration": 99}, {"note": 67, "velocity": 117, "duration": 167}, {"note": 0, "velocity": 0, "duration": 73}, {"note": 65, "velocity": 112, "duration": 174}, {"note": 0, "velocity": 0, "duration": 66}, {"note": 67, "velocity": 127, "duration": 617}, {"note": 0, "velocity": 0, "duration": 343}, {"note": 60, "velocity": 97, "duration": 65}, {"note": 60, "velocity": 76, "duration": 55}, {"note": 0, "velocity": 0, "duration": 65}, {"note": 60, "velocity": 89, "duration": 62}, {"note": 60, "velocity": 90, "duration": 61}, {"note": 60, "velocity": 96, "duration": 140}, {"note": 0, "velocity": 0, "duration": 100}, {"note": 62, "velocity": 112, "duration": 154}, {"note": 0, "velocity": 0, "duration": 86}, {"note": 60, "velocity": 102, "duration": 850}, {"note": 0, "velocity": 0, "duration": 110}, {"note": 65, "velocity": 100, "duration": 64}, {"note": 65, "velocity": 83, "duration": 59}, {"note": 0, "velocity": 0, "duration": 61}, {"note": 65, "velocity": 95, "duration": 50}, {"note": 0, "velocity": 0, "duration": 70}, {"note": 65, "velocity": 93, "duration": 52}, {"note": 0, "velocity": 0, "duration": 68}, {"note": 65, "velocity": 117, "duration": 193}, {"note": 67, "velocity": 122, "duration": 247}, {"note": 69, "velocity": 127, "duration": 770}, {"note": 0, "velocity": 0, "duration": 70}, {"note": 67, "velocity": 96, "duration": 105}, {"note": 65, "velocity": 107, "duration": 254}, {"note": 69, "velocity": 127, "duration": 191}, {"note": 69, "velocity": 112, "duration": 215}, {"note": 74, "velocity": 117, "duration": 209}, {"note": 72, "velocity": 127, "duration": 217}, {"note": 69, "velocity": 107, "duration": 471}, {"note": 0, "velocity": 0, "duration": 249}, {"note": 67, "velocity": 117, "duration": 51}, {"note": 0, "velocity": 0, "duration": 69}, {"note": 67, "velocity": 95, "duration": 48}, {"note": 0, "velocity": 0, "duration": 72}, {"note": 67, "velocity": 97, "duration": 96}, {"note": 65, "velocity": 95, "duration": 112}, {"note": 62, "velocity": 97, "duration": 236}, {"note": 60, "velocity": 102, "duration": 238}, {"note": 65, "velocity": 102, "duration": 728}, {"note": 0, "velocity": 0, "duration": 232}, {"note": 67, "velocity": 127, "duration": 54}, {"note": 0, "velocity": 0, "duration": 66}, {"note": 67, "velocity": 99, "duration": 56}, {"note": 0, "velocity": 0, "duration": 64}, {"note": 67, "velocity": 102, "duration": 55}, {"note": 0, "velocity": 0, "duration": 65}, {"note": 67, "velocity": 112, "duration": 54}, {"note": 0, "velocity": 0, "duration": 66}, {"note": 67, "velocity": 127, "duration": 158}, {"note": 0, "velocity": 0, "duration": 82}, {"note": 65, "velocity": 127, "duration": 145}, {"note": 0, "velocity": 0, "duration": 95}, {"note": 67, "velocity": 127, "duration": 597}, {"note": 0, "velocity": 0, "duration": 123}, {"note": 65, "velocity": 127, "duration": 90}, {"note": 67, "velocity": 92, "duration": 113}, {"note": 62, "velocity": 100, "duration": 54}, {"note": 0, "velocity": 0, "duration": 66}, {"note": 62, "velocity": 96, "duration": 55}, {"note": 0, "velocity": 0, "duration": 65}, {"note": 62, "velocity": 93, "duration": 54}, {"note": 0, "velocity": 0, "duration": 66}, {"note": 62, "velocity": 96, "duration": 48}, {"note": 0, "velocity": 0, "duration": 72}, {"note": 62, "velocity": 112, "duration": 158}, {"note": 0, "velocity": 0, "duration": 82}, {"note": 60, "velocity": 112, "duration": 205}, {"note": 62, "velocity": 127, "duration": 603}, {"note": 0, "velocity": 0, "duration": 357}, {"note": 67, "velocity": 127, "duration": 54}, {"note": 0, "velocity": 0, "duration": 66}, {"note": 67, "velocity": 93, "duration": 51}, {"note": 0, "velocity": 0, "duration": 69}, {"note": 67, "velocity": 100, "duration": 50}, {"note": 0, "velocity": 0, "duration": 70}, {"note": 67, "velocity": 117, "duration": 48}, {"note": 0, "velocity": 0, "duration": 72}, {"note": 67, "velocity": 127, "duration": 87}, {"note": 65, "velocity": 127, "duration": 121}, {"note": 0, "velocity": 0, "duration": 119}, {"note": 67, "velocity": 127, "duration": 166}, {"note": 0, "velocity": 0, "duration": 74}, {"note": 67, "velocity": 117, "duration": 52}, {"note": 0, "velocity": 0, "duration": 68}, {"note": 67, "velocity": 117, "duration": 59}, {"note": 0, "velocity": 0, "duration": 61}, {"note": 69, "velocity": 112, "duration": 104}, {"note": 67, "velocity": 112, "duration": 81}, {"note": 65, "velocity": 127, "duration": 117}, {"note": 0, "velocity": 0, "duration": 123}, {"note": 65, "velocity": 117, "duration": 96}, {"note": 74, "velocity": 122, "duration": 96}, {"note": 72, "velocity": 112, "duration": 56}, {"note": 0, "velocity": 0, "duration": 64}, {"note": 72, "velocity": 102, "duration": 52}, {"note": 0, "velocity": 0, "duration": 68}, {"note": 72, "velocity": 127, "duration": 50}, {"note": 0, "velocity": 0, "duration": 70}, {"note": 72, "velocity": 127, "duration": 140}, {"note": 0, "velocity": 0, "duration": 100}, {"note": 69, "velocity": 122, "duration": 51}, {"note": 0, "velocity": 0, "duration": 69}, {"note": 72, "velocity": 127, "duration": 592}, {"note": 65, "velocity": 127, "duration": 196}, {"note": 67, "velocity": 127, "duration": 101}, {"note": 0, "velocity": 0, "duration": 139}, {"note": 69, "velocity": 127, "duration": 122}, {"note": 72, "velocity": 112, "duration": 55}, {"note": 0, "velocity": 0, "duration": 65}, {"note": 72, "velocity": 117, "duration": 58}, {"note": 0, "velocity": 0, "duration": 62}, {"note": 72, "velocity": 112, "duration": 58}, {"note": 0, "velocity": 0, "duration": 62}, {"note": 72, "velocity": 127, "duration": 106}, {"note": 0, "velocity": 0, "duration": 134}, {"note": 69, "velocity": 117, "duration": 136}, {"note": 0, "velocity": 0, "duration": 104}, {"note": 72, "velocity": 127, "duration": 395}, {"note": 0, "velocity": 0, "duration": 565}, {"note": 77, "velocity": 127, "duration": 58}, {"note": 0, "velocity": 0, "duration": 62}, {"note": 77, "velocity": 95, "duration": 56}, {"note": 0, "velocity": 0, "duration": 64}, {"note": 77, "velocity": 95, "duration": 49}, {"note": 0, "velocity": 0, "duration": 71}, {"note": 77, "velocity": 117, "duration": 58}, {"note": 0, "velocity": 0, "duration": 62}, {"note": 74, "velocity": 127, "duration": 187}, {"note": 69, "velocity": 102, "duration": 159}, {"note": 0, "velocity": 0, "duration": 81}, {"note": 72, "velocity": 127, "duration": 437}, {"note": 0, "velocity": 0, "duration": 523}, {"note": 65, "velocity": 122, "duration": 58}, {"note": 0, "velocity": 0, "duration": 62}, {"note": 65, "velocity": 93, "duration": 58}, {"note": 0, "velocity": 0, "duration": 62}, {"note": 65, "velocity": 88, "duration": 49}, {"note": 0, "velocity": 0, "duration": 71}, {"note": 65, "velocity": 102, "duration": 47}, {"note": 0, "velocity": 0, "duration": 73}, {"note": 65, "velocity": 112, "duration": 270}, {"note": 0, "velocity": 0, "duration": 90}, {"note": 69, "velocity": 122, "duration": 189}, {"note": 72, "velocity": 122, "duration": 50}, {"note": 0, "velocity": 0, "duration": 70}, {"note": 72, "velocity": 112, "duration": 71}, {"note": 72, "velocity": 117, "duration": 54}, {"note": 0, "velocity": 0, "duration": 66}, {"note": 74, "velocity": 102, "duration": 69}, {"note": 69, "velocity": 112, "duration": 293}, {"note": 0, "velocity": 0, "duration": 67}, {"note": 67, "velocity": 122, "duration": 39}, {"note": 0, "velocity": 0, "duration": 81}, {"note": 67, "velocity": 107, "duration": 44}, {"note": 0, "velocity": 0, "duration": 76}, {"note": 67, "velocity": 112, "duration": 72}, {"note": 69, "velocity": 88, "duration": 110}, {"note": 67, "velocity": 127, "duration": 132}, {"note": 0, "velocity": 0, "duration": 108}, {"note": 65, "velocity": 117, "duration": 194}, {"note": 67, "velocity": 127, "duration": 384}, {"note": 0, "velocity": 0, "duration": 576}, {"note": 69, "velocity": 127, "duration": 122}, {"note": 72, "velocity": 112, "duration": 55}, {"note": 0, "velocity": 0, "duration": 65}, {"note": 72, "velocity": 117, "duration": 58}, {"note": 0, "velocity": 0, "duration": 62}, {"note": 72, "velocity": 112, "duration": 58}, {"note": 0, "velocity": 0, "duration": 62}, {"note": 72, "velocity": 127, "duration": 106}, {"note": 0, "velocity": 0, "duration": 134}, {"note": 69, "velocity": 117, "duration": 136}, {"note": 0, "velocity": 0, "duration": 104}, {"note": 72, "velocity": 127, "duration": 395}, {"note": 0, "velocity": 0, "duration": 565}, {"note": 77, "velocity": 127, "duration": 58}, {"note": 0, "velocity": 0, "duration": 62}, {"note": 77, "velocity": 95, "duration": 56}, {"note": 0, "velocity": 0, "duration": 64}, {"note": 77, "velocity": 95, "duration": 49}, {"note": 0, "velocity": 0, "duration": 71}, {"note": 77, "velocity": 117, "duration": 58}, {"note": 0, "velocity": 0, "duration": 62}, {"note": 74, "velocity": 127, "duration": 187}, {"note": 69, "velocity": 102, "duration": 159}, {"note": 0, "velocity": 0, "duration": 81}, {"note": 72, "velocity": 127, "duration": 437}, {"note": 0, "velocity": 0, "duration": 523}, {"note": 65, "velocity": 122, "duration": 58}, {"note": 0, "velocity": 0, "duration": 62}, {"note": 65, "velocity": 93, "duration": 58}, {"note": 0, "velocity": 0, "duration": 62}, {"note": 65, "velocity": 88, "duration": 49}, {"note": 0, "velocity": 0, "duration": 71}, {"note": 65, "velocity": 102, "duration": 47}, {"note": 0, "velocity": 0, "duration": 73}, {"note": 65, "velocity": 112, "duration": 179}, {"note": 67, "velocity": 112, "duration": 179}, {"note": 69, "velocity": 122, "duration": 189}, {"note": 72, "velocity": 122, "duration": 50}, {"note": 0, "velocity": 0, "duration": 70}, {"note": 72, "velocity": 112, "duration": 71}, {"note": 72, "velocity": 117, "duration": 54}, {"note": 0, "velocity": 0, "duration": 66}, {"note": 74, "velocity": 102, "duration": 69}, {"note": 69, "velocity": 112, "duration": 293}, {"note": 0, "velocity": 0, "duration": 67}, {"note": 67, "velocity": 122, "duration": 39}, {"note": 0, "velocity": 0, "duration": 81}, {"note": 67, "velocity": 107, "duration": 44}, {"note": 0, "velocity": 0, "duration": 76}, {"note": 67, "velocity": 112, "duration": 72}, {"note": 0, "velocity": 0, "duration": 168}, {"note": 62, "velocity": 117, "duration": 235}, {"note": 60, "velocity": 102, "duration": 260}, {"note": 65, "velocity": 117, "duration": 779}, {"note": 0, "velocity": 0, "duration": 15541}, {"note": 60, "velocity": 95, "duration": 74}, {"note": 60, "velocity": 76, "duration": 67}, {"note": 60, "velocity": 71, "duration": 60}, {"note": 60, "velocity": 72, "duration": 59}, {"note": 0, "velocity": 0, "duration": 61}, {"note": 60, "velocity": 95, "duration": 181}, {"note": 62, "velocity": 100, "duration": 196}, {"note": 60, "velocity": 97, "duration": 472}, {"note": 0, "velocity": 0, "duration": 488}, {"note": 65, "velocity": 97, "duration": 56}, {"note": 0, "velocity": 0, "duration": 64}, {"note": 65, "velocity": 85, "duration": 45}, {"note": 0, "velocity": 0, "duration": 75}, {"note": 65, "velocity": 81, "duration": 43}, {"note": 0, "velocity": 0, "duration": 77}, {"note": 65, "velocity": 88, "duration": 45}, {"note": 0, "velocity": 0, "duration": 75}, {"note": 65, "velocity": 112, "duration": 173}, {"note": 0, "velocity": 0, "duration": 67}, {"note": 67, "velocity": 112, "duration": 203}, {"note": 69, "velocity": 127, "duration": 704}, {"note": 0, "velocity": 0, "duration": 136}, {"note": 67, "velocity": 102, "duration": 121}, {"note": 65, "velocity": 112, "duration": 233}, {"note": 69, "velocity": 93, "duration": 176}, {"note": 0, "velocity": 0, "duration": 64}, {"note": 69, "velocity": 117, "duration": 228}, {"note": 74, "velocity": 127, "duration": 144}, {"note": 72, "velocity": 102, "duration": 309}, {"note": 69, "velocity": 117, "duration": 473}, {"note": 0, "velocity": 0, "duration": 367}, {"note": 67, "velocity": 112, "duration": 53}, {"note": 0, "velocity": 0, "duration": 67}, {"note": 67, "velocity": 92, "duration": 48}, {"note": 0, "velocity": 0, "duration": 72}, {"note": 67, "velocity": 99, "duration": 63}, {"note": 69, "velocity": 96, "duration": 99}, {"note": 67, "velocity": 117, "duration": 167}, {"note": 0, "velocity": 0, "duration": 73}, {"note": 65, "velocity": 112, "duration": 174}, {"note": 0, "velocity": 0, "duration": 66}, {"note": 67, "velocity": 127, "duration": 617}, {"note": 0, "velocity": 0, "duration": 343}, {"note": 60, "velocity": 97, "duration": 65}, {"note": 60, "velocity": 76, "duration": 55}, {"note": 0, "velocity": 0, "duration": 65}, {"note": 60, "velocity": 89, "duration": 62}, {"note": 60, "velocity": 90, "duration": 61}, {"note": 60, "velocity": 96, "duration": 140}, {"note": 0, "velocity": 0, "duration": 100}, {"note": 62, "velocity": 112, "duration": 154}, {"note": 0, "velocity": 0, "duration": 86}, {"note": 60, "velocity": 102, "duration": 850}, {"note": 0, "velocity": 0, "duration": 110}, {"note": 65, "velocity": 100, "duration": 64}, {"note": 65, "velocity": 83, "duration": 59}, {"note": 0, "velocity": 0, "duration": 61}, {"note": 65, "velocity": 95, "duration": 50}, {"note": 0, "velocity": 0, "duration": 70}, {"note": 65, "velocity": 93, "duration": 52}, {"note": 0, "velocity": 0, "duration": 68}, {"note": 65, "velocity": 117, "duration": 193}, {"note": 67, "velocity": 122, "duration": 247}, {"note": 69, "velocity": 127, "duration": 770}, {"note": 0, "velocity": 0, "duration": 70}, {"note": 67, "velocity": 96, "duration": 105}, {"note": 65, "velocity": 107, "duration": 254}, {"note": 69, "velocity": 127, "duration": 191}, {"note": 69, "velocity": 112, "duration": 215}, {"note": 74, "velocity": 117, "duration": 209}, {"note": 72, "velocity": 127, "duration": 217}, {"note": 69, "velocity": 107, "duration": 471}, {"note": 0, "velocity": 0, "duration": 249}, {"note": 67, "velocity": 117, "duration": 51}, {"note": 0, "velocity": 0, "duration": 69}, {"note": 67, "velocity": 95, "duration": 48}, {"note": 0, "velocity": 0, "duration": 72}, {"note": 67, "velocity": 97, "duration": 96}, {"note": 65, "velocity": 95, "duration": 112}, {"note": 62, "velocity": 97, "duration": 236}, {"note": 60, "velocity": 102, "duration": 238}, {"note": 65, "velocity": 102, "duration": 728}, {"note": 0, "velocity": 0, "duration": 232}, {"note": 67, "velocity": 127, "duration": 54}, {"note": 0, "velocity": 0, "duration": 66}, {"note": 67, "velocity": 99, "duration": 56}, {"note": 0, "velocity": 0, "duration": 64}, {"note": 67, "velocity": 102, "duration": 55}, {"note": 0, "velocity": 0, "duration": 65}, {"note": 67, "velocity": 112, "duration": 54}, {"note": 0, "velocity": 0, "duration": 66}, {"note": 67, "velocity": 127, "duration": 158}, {"note": 0, "velocity": 0, "duration": 82}, {"note": 65, "velocity": 127, "duration": 145}, {"note": 0, "velocity": 0, "duration": 95}, {"note": 67, "velocity": 127, "duration": 597}, {"note": 0, "velocity": 0, "duration": 123}, {"note": 65, "velocity": 127, "duration": 90}, {"note": 67, "velocity": 92, "duration": 113}, {"note": 62, "velocity": 100, "duration": 54}, {"note": 0, "velocity": 0, "duration": 66}, {"note": 62, "velocity": 96, "duration": 55}, {"note": 0, "velocity": 0, "duration": 65}, {"note": 62, "velocity": 93, "duration": 54}, {"note": 0, "velocity": 0, "duration": 66}, {"note": 62, "velocity": 96, "duration": 48}, {"note": 0, "velocity": 0, "duration": 72}, {"note": 62, "velocity": 112, "duration": 158}, {"note": 0, "velocity": 0, "duration": 82}, {"note": 60, "velocity": 112, "duration": 205}, {"note": 62, "velocity": 127, "duration": 603}, {"note": 0, "velocity": 0, "duration": 357}, {"note": 67, "velocity": 127, "duration": 54}, {"note": 0, "velocity": 0, "duration": 66}, {"note": 67, "velocity": 93, "duration": 51}, {"note": 0, "velocity": 0, "duration": 69}, {"note": 67, "velocity": 100, "duration": 50}, {"note": 0, "velocity": 0, "duration": 70}, {"note": 67, "velocity": 117, "duration": 48}, {"note": 0, "velocity": 0, "duration": 72}, {"note": 67, "velocity": 127, "duration": 87}, {"note": 65, "velocity": 127, "duration": 121}, {"note": 0, "velocity": 0, "duration": 119}, {"note": 67, "velocity": 127, "duration": 166}, {"note": 0, "velocity": 0, "duration": 74}, {"note": 67, "velocity": 117, "duration": 52}, {"note": 0, "velocity": 0, "duration": 68}, {"note": 67, "velocity": 117, "duration": 59}, {"note": 0, "velocity": 0, "duration": 61}, {"note": 69, "velocity": 112, "duration": 104}, {"note": 67, "velocity": 112, "duration": 81}, {"note": 65, "velocity": 127, "duration": 117}, {"note": 0, "velocity": 0, "duration": 123}, {"note": 65, "velocity": 117, "duration": 96}, {"note": 74, "velocity": 122, "duration": 96}, {"note": 72, "velocity": 112, "duration": 56}, {"note": 0, "velocity": 0, "duration": 64}, {"note": 72, "velocity": 102, "duration": 52}, {"note": 0, "velocity": 0, "duration": 68}, {"note": 72, "velocity": 127, "duration": 50}, {"note": 0, "velocity": 0, "duration": 70}, {"note": 72, "velocity": 127, "duration": 140}, {"note": 0, "velocity": 0, "duration": 100}, {"note": 69, "velocity": 122, "duration": 51}, {"note": 0, "velocity": 0, "duration": 69}, {"note": 72, "velocity": 127, "duration": 592}, {"note": 65, "velocity": 127, "duration": 196}, {"note": 67, "velocity": 127, "duration": 101}, {"note": 0, "velocity": 0, "duration": 139}, {"note": 69, "velocity": 127, "duration": 122}, {"note": 72, "velocity": 112, "duration": 55}, {"note": 0, "velocity": 0, "duration": 65}, {"note": 72, "velocity": 117, "duration": 58}, {"note": 0, "velocity": 0, "duration": 62}, {"note": 72, "velocity": 112, "duration": 58}, {"note": 0, "velocity": 0, "duration": 62}, {"note": 72, "velocity": 127, "duration": 106}, {"note": 0, "velocity": 0, "duration": 134}, {"note": 69, "velocity": 117, "duration": 136}, {"note": 0, "velocity": 0, "duration": 104}, {"note": 72, "velocity": 127, "duration": 395}, {"note": 0, "velocity": 0, "duration": 565}, {"note": 77, "velocity": 127, "duration": 58}, {"note": 0, "velocity": 0, "duration": 62}, {"note": 77, "velocity": 95, "duration": 56}, {"note": 0, "velocity": 0, "duration": 64}, {"note": 77, "velocity": 95, "duration": 49}, {"note": 0, "velocity": 0, "duration": 71}, {"note": 77, "velocity": 117, "duration": 58}, {"note": 0, "velocity": 0, "duration": 62}, {"note": 74, "velocity": 127, "duration": 187}, {"note": 69, "velocity": 102, "duration": 159}, {"note": 0, "velocity": 0, "duration": 81}, {"note": 72, "velocity": 127, "duration": 437}, {"note": 0, "velocity": 0, "duration": 523}, {"note": 65, "velocity": 122, "duration": 58}, {"note": 0, "velocity": 0, "duration": 62}, {"note": 65, "velocity": 93, "duration": 58}, {"note": 0, "velocity": 0, "duration": 62}, {"note": 65, "velocity": 88, "duration": 49}, {"note": 0, "velocity": 0, "duration": 71}, {"note": 65, "velocity": 102, "duration": 47}, {"note": 0, "velocity": 0, "duration": 73}, {"note": 65, "velocity": 112, "duration": 270}, {"note": 0, "velocity": 0, "duration": 90}, {"note": 69, "velocity": 122, "duration": 189}, {"note": 72, "velocity": 122, "duration": 50}, {"note": 0, "velocity": 0, "duration": 70}, {"note": 72, "velocity": 112, "duration": 71}, {"note": 72, "velocity": 117, "duration": 54}, {"note": 0, "velocity": 0, "duration": 66}, {"note": 74, "velocity": 102, "duration": 69}, {"note": 69, "velocity": 112, "duration": 293}, {"note": 0, "velocity": 0, "duration": 67}, {"note": 67, "velocity": 122, "duration": 39}, {"note": 0, "velocity": 0, "duration": 81}, {"note": 67, "velocity": 107, "duration": 44}, {"note": 0, "velocity": 0, "duration": 76}, {"note": 67, "velocity": 112, "duration": 72}, {"note": 69, "velocity": 88, "duration": 110}, {"note": 67, "velocity": 127, "duration": 132}, {"note": 0, "velocity": 0, "duration": 108}, {"note": 65, "velocity": 117, "duration": 194}, {"note": 67, "velocity": 127, "duration": 384}, {"note": 0, "velocity": 0, "duration": 576}, {"note": 69, "velocity": 127, "duration": 122}, {"note": 72, "velocity": 112, "duration": 55}, {"note": 0, "velocity": 0, "duration": 65}, {"note": 72, "velocity": 117, "duration": 58}, {"note": 0, "velocity": 0, "duration": 62}, {"note": 72, "velocity": 112, "duration": 58}, {"note": 0, "velocity": 0, "duration": 62}, {"note": 72, "velocity": 127, "duration": 106}, {"note": 0, "velocity": 0, "duration": 134}, {"note": 69, "velocity": 117, "duration": 136}, {"note": 0, "velocity": 0, "duration": 104}, {"note": 72, "velocity": 127, "duration": 395}, {"note": 0, "velocity": 0, "duration": 565}, {"note": 77, "velocity": 127, "duration": 58}, {"note": 0, "velocity": 0, "duration": 62}, {"note": 77, "velocity": 95, "duration": 56}, {"note": 0, "velocity": 0, "duration": 64}, {"note": 77, "velocity": 95, "duration": 49}, {"note": 0, "velocity": 0, "duration": 71}, {"note": 77, "velocity": 117, "duration": 58}, {"note": 0, "velocity": 0, "duration": 62}, {"note": 74, "velocity": 127, "duration": 187}, {"note": 69, "velocity": 102, "duration": 159}, {"note": 0, "velocity": 0, "duration": 81}, {"note": 72, "velocity": 127, "duration": 437}, {"note": 0, "velocity": 0, "duration": 523}, {"note": 65, "velocity": 122, "duration": 58}, {"note": 0, "velocity": 0, "duration": 62}, {"note": 65, "velocity": 93, "duration": 58}, {"note": 0, "velocity": 0, "duration": 62}, {"note": 65, "velocity": 88, "duration": 49}, {"note": 0, "velocity": 0, "duration": 71}, {"note": 65, "velocity": 102, "duration": 47}, {"note": 0, "velocity": 0, "duration": 73}, {"note": 65, "velocity": 112, "duration": 179}, {"note": 67, "velocity": 112, "duration": 179}, {"note": 69, "velocity": 122, "duration": 189}, {"note": 72, "velocity": 122, "duration": 50}, {"note": 0, "velocity": 0, "duration": 70}, {"note": 72, "velocity": 112, "duration": 71}, {"note": 72, "velocity": 117, "duration": 54}, {"note": 0, "velocity": 0, "duration": 66}, {"note": 74, "velocity": 102, "duration": 69}, {"note": 69, "velocity": 112, "duration": 293}, {"note": 0, "velocity": 0, "duration": 67}, {"note": 67, "velocity": 122, "duration": 39}, {"note": 0, "velocity": 0, "duration": 81}, {"note": 67, "velocity": 107, "duration": 44}, {"note": 0, "velocity": 0, "duration": 76}, {"note": 67, "velocity": 112, "duration": 72}, {"note": 0, "velocity": 0, "duration": 168}, {"note": 62, "velocity": 117, "duration": 235}, {"note": 60, "velocity": 102, "duration": 260}, {"note": 65, "velocity": 117, "duration": 779}, {"note": 0, "velocity": 0, "duration": 3061}, {"note": 69, "velocity": 127, "duration": 122}, {"note": 72, "velocity": 112, "duration": 55}, {"note": 0, "velocity": 0, "duration": 65}, {"note": 72, "velocity": 117, "duration": 58}, {"note": 0, "velocity": 0, "duration": 62}, {"note": 72, "velocity": 112, "duration": 58}, {"note": 0, "velocity": 0, "duration": 62}, {"note": 72, "velocity": 127, "duration": 106}, {"note": 0, "velocity": 0, "duration": 134}, {"note": 69, "velocity": 117, "duration": 136}, {"note": 0, "velocity": 0, "duration": 104}, {"note": 72, "velocity": 127, "duration": 395}, {"note": 0, "velocity": 0, "duration": 565}, {"note": 77, "velocity": 127, "duration": 58}, {"note": 0, "velocity": 0, "duration": 62}, {"note": 77, "velocity": 95, "duration": 56}, {"note": 0, "velocity": 0, "duration": 64}, {"note": 77, "velocity": 95, "duration": 49}, {"note": 0, "velocity": 0, "duration": 71}, {"note": 77, "velocity": 117, "duration": 58}, {"note": 0, "velocity": 0, "duration": 62}, {"note": 74, "velocity": 127, "duration": 187}, {"note": 69, "velocity": 102, "duration": 159}, {"note": 0, "velocity": 0, "duration": 81}, {"note": 72, "velocity": 127, "duration": 437}, {"note": 0, "velocity": 0, "duration": 523}, {"note": 65, "velocity": 122, "duration": 58}, {"note": 0, "velocity": 0, "duration": 62}, {"note": 65, "velocity": 93, "duration": 58}, {"note": 0, "velocity": 0, "duration": 62}, {"note": 65, "velocity": 88, "duration": 49}, {"note": 0, "velocity": 0, "duration": 71}, {"note": 65, "velocity": 102, "duration": 47}, {"note": 0, "velocity": 0, "duration": 73}, {"note": 65, "velocity": 112, "duration": 270}, {"note": 0, "velocity": 0, "duration": 90}, {"note": 69, "velocity": 122, "duration": 189}, {"note": 72, "velocity": 122, "duration": 50}, {"note": 0, "velocity": 0, "duration": 70}, {"note": 72, "velocity": 112, "duration": 71}, {"note": 72, "velocity": 117, "duration": 54}, {"note": 0, "velocity": 0, "duration": 66}, {"note": 74, "velocity": 102, "duration": 69}, {"note": 69, "velocity": 112, "duration": 293}, {"note": 0, "velocity": 0, "duration": 67}, {"note": 67, "velocity": 122, "duration": 39}, {"note": 0, "velocity": 0, "duration": 81}, {"note": 67, "velocity": 107, "duration": 44}, {"note": 0, "velocity": 0, "duration": 76}, {"note": 67, "velocity": 112, "duration": 72}, {"note": 69, "velocity": 88, "duration": 110}, {"note": 67, "velocity": 127, "duration": 132}, {"note": 0, "velocity": 0, "duration": 108}, {"note": 65, "velocity": 117, "duration": 194}, {"note": 67, "velocity": 127, "duration": 384}, {"note": 0, "velocity": 0, "duration": 576}, {"note": 69, "velocity": 127, "duration": 122}, {"note": 72, "velocity": 112, "duration": 55}, {"note": 0, "velocity": 0, "duration": 65}, {"note": 72, "velocity": 117, "duration": 58}, {"note": 0, "velocity": 0, "duration": 62}, {"note": 72, "velocity": 112, "duration": 58}, {"note": 0, "velocity": 0, "duration": 62}, {"note": 72, "velocity": 127, "duration": 106}, {"note": 0, "velocity": 0, "duration": 134}, {"note": 69, "velocity": 117, "duration": 136}, {"note": 0, "velocity": 0, "duration": 104}, {"note": 72, "velocity": 127, "duration": 395}, {"note": 0, "velocity": 0, "duration": 565}, {"note": 77, "velocity": 127, "duration": 58}, {"note": 0, "velocity": 0, "duration": 62}, {"note": 77, "velocity": 95, "duration": 56}, {"note": 0, "velocity": 0, "duration": 64}, {"note": 77, "velocity": 95, "duration": 49}, {"note": 0, "velocity": 0, "duration": 71}, {"note": 77, "velocity": 117, "duration": 58}, {"note": 0, "velocity": 0, "duration": 62}, {"note": 74, "velocity": 127, "duration": 187}, {"note": 69, "velocity": 102, "duration": 159}, {"note": 0, "velocity": 0, "duration": 81}, {"note": 72, "velocity": 127, "duration": 437}, {"note": 0, "velocity": 0, "duration": 523}, {"note": 65, "velocity": 122, "duration": 58}, {"note": 0, "velocity": 0, "duration": 62}, {"note": 65, "velocity": 93, "duration": 58}, {"note": 0, "velocity": 0, "duration": 62}, {"note": 65, "velocity": 88, "duration": 49}, {"note": 0, "velocity": 0, "duration": 71}, {"note": 65, "velocity": 102, "duration": 47}, {"note": 0, "velocity": 0, "duration": 73}, {"note": 65, "velocity": 112, "duration": 179}, {"note": 67, "velocity": 112, "duration": 179}, {"note": 69, "velocity": 122, "duration": 189}, {"note": 72, "velocity": 122, "duration": 50}, {"note": 0, "velocity": 0, "duration": 70}, {"note": 72, "velocity": 112, "duration": 71}, {"note": 72, "velocity": 117, "duration": 54}, {"note": 0, "velocity": 0, "duration": 66}, {"note": 74, "velocity": 102, "duration": 69}, {"note": 69, "velocity": 112, "duration": 293}, {"note": 0, "velocity": 0, "duration": 67}, {"note": 67, "velocity": 122, "duration": 39}, {"note": 0, "velocity": 0, "duration": 81}, {"note": 67, "velocity": 107, "duration": 44}, {"note": 0, "velocity": 0, "duration": 76}, {"note": 67, "velocity": 112, "duration": 72}, {"note": 0, "velocity": 0, "duration": 168}, {"note": 62, "velocity": 117, "duration": 235}, {"note": 60, "velocity": 102, "duration": 260}, {"note": 65, "velocity": 117, "duration": 779}, {"note": 0, "velocity": 0, "duration": 247}, {"note": 65, "velocity": 127, "duration": 77}, {"note": 0, "velocity": 0, "duration": 64}, {"note": 65, "velocity": 127, "duration": 58}, {"note": 0, "velocity": 0, "duration": 82}, {"note": 65, "velocity": 127, "duration": 57}, {"note": 0, "velocity": 0, "duration": 75}, {"note": 65, "velocity": 127, "duration": 47}, {"note": 0, "velocity": 0, "duration": 91}, {"note": 65, "velocity": 127, "duration": 165}, {"note": 67, "velocity": 127, "duration": 201}, {"note": 69, "velocity": 127, "duration": 209}, {"note": 0, "velocity": 0, "duration": 88}, {"note": 72, "velocity": 127, "duration": 57}, {"note": 0, "velocity": 0, "duration": 76}, {"note": 72, "velocity": 127, "duration": 70}, {"note": 0, "velocity": 0, "duration": 100}, {"note": 72, "velocity": 127, "duration": 64}, {"note": 0, "velocity": 0, "duration": 62}, {"note": 74, "velocity": 127, "duration": 135}, {"note": 69, "velocity": 127, "duration": 250}, {"note": 0, "velocity": 0, "duration": 270}, {"note": 67, "velocity": 125, "duration": 93}, {"note": 0, "velocity": 0, "duration": 81}, {"note": 67, "velocity": 110, "duration": 63}, {"note": 0, "velocity": 0, "duration": 119}, {"note": 67, "velocity": 127, "duration": 178}, {"note": 65, "velocity": 127, "duration": 223}, {"note": 0, "velocity": 0, "duration": 74}, {"note": 62, "velocity": 127, "duration": 301}, {"note": 0, "velocity": 0, "duration": 157}, {"note": 60, "velocity": 127, "duration": 787}, {"note": 0, "velocity": 0, "duration": 322}, {"note": 65, "velocity": 127, "duration": 662}]]