[[{"note": 61, "velocity": 107, "duration": 84}, {"note": 70, "velocity": 97, "duration": 99}, {"note": 68, "velocity": 127, "duration": 79}, {"note": 0, "velocity": 0, "duration": 161}, {"note": 61, "velocity": 79, "duration": 121}, {"note": 70, "velocity": 102, "duration": 114}, {"note": 68, "velocity": 112, "duration": 262}, {"note": 0, "velocity": 0, "duration": 338}, {"note": 73, "velocity": 127, "duration": 362}, {"note": 0, "velocity": 0, "duration": 118}, {"note": 66, "velocity": 112, "duration": 329}, {"note": 63, "velocity": 117, "duration": 1392}, {"note": 0, "velocity": 0, "duration": 288}, {"note": 61, "velocity": 95, "duration": 76}, {"note": 70, "velocity": 85, "duration": 93}, {"note": 68, "velocity": 117, "duration": 179}, {"note": 0, "velocity": 0, "duration": 61}, {"note": 61, "velocity": 88, "duration": 94}, {"note": 70, "velocity": 95, "duration": 99}, {"note": 68, "velocity": 112, "duration": 435}, {"note": 0, "velocity": 0, "duration": 165}, {"note": 65, "velocity": 99, "duration": 121}, {"note": 66, "velocity": 102, "duration": 295}, {"note": 0, "velocity": 0, "duration": 65}, {"note": 73, "velocity": 127, "duration": 1617}, {"note": 0, "velocity": 0, "duration": 183}, {"note": 66, "velocity": 102, "duration": 114}, {"note": 73, "velocity": 99, "duration": 588}, {"note": 75, "velocity": 127, "duration": 317}, {"note": 68, "velocity": 107, "duration": 722}, {"note": 0, "velocity": 0, "duration": 238}, {"note": 68, "velocity": 107, "duration": 169}, {"note": 0, "velocity": 0, "duration": 71}, {"note": 66, "velocity": 107, "duration": 71}, {"note": 68, "velocity": 112, "duration": 168}, {"note": 0, "velocity": 0, "duration": 72}, {"note": 70, "velocity": 117, "duration": 305}, {"note": 66, "velocity": 107, "duration": 468}, {"note": 0, "velocity": 0, "duration": 492}, {"note": 71, "velocity": 102, "duration": 149}, {"note": 0, "velocity": 0, "duration": 91}, {"note": 70, "velocity": 102, "duration": 78}, {"note": 71, "velocity": 99, "duration": 135}, {"note": 0, "velocity": 0, "duration": 105}, {"note": 78, "velocity": 112, "duration": 230}, {"note": 0, "velocity": 0, "duration": 130}, {"note": 71, "velocity": 107, "duration": 285}, {"note": 0, "velocity": 0, "duration": 75}, {"note": 70, "velocity": 127, "duration": 208}, {"note": 0, "velocity": 0, "duration": 152}, {"note": 66, "velocity": 97, "duration": 78}, {"note": 68, "velocity": 117, "duration": 493}, {"note": 0, "velocity": 0, "duration": 1667}, {"note": 61, "velocity": 107, "duration": 84}, {"note": 70, "velocity": 97, "duration": 99}, {"note": 68, "velocity": 127, "duration": 79}, {"note": 0, "velocity": 0, "duration": 161}, {"note": 61, "velocity": 79, "duration": 121}, {"note": 70, "velocity": 102, "duration": 114}, {"note": 68, "velocity": 112, "duration": 262}, {"note": 0, "velocity": 0, "duration": 338}, {"note": 73, "velocity": 127, "duration": 362}, {"note": 0, "velocity": 0, "duration": 118}, {"note": 66, "velocity": 112, "duration": 329}, {"note": 63, "velocity": 117, "duration": 1392}, {"note": 0, "velocity": 0, "duration": 288}, {"note": 61, "velocity": 95, "duration": 76}, {"note": 70, "velocity": 85, "duration": 93}, {"note": 68, "velocity": 117, "duration": 179}, {"note": 0, "velocity": 0, "duration": 61}, {"note": 61, "velocity": 88, "duration": 94}, {"note": 70, "velocity": 95, "duration": 99}, {"note": 68, "velocity": 112, "duration": 435}, {"note": 61, "velocity": 102, "duration": 85}, {"note": 73, "velocity": 100, "duration": 143}, {"note": 71, "velocity": 95, "duration": 94}, {"note": 0, "velocity": 0, "duration": 159}, {"note": 70, "velocity": 100, "duration": 72}, {"note": 71, "velocity": 77, "duration": 94}, {"note": 70, "velocity": 122, "duration": 731}, {"note": 0, "velocity": 0, "duration": 1030}, {"note": 66, "velocity": 102, "duration": 114}, {"note": 73, "velocity": 99, "duration": 588}, {"note": 75, "velocity": 127, "duration": 317}, {"note": 68, "velocity": 107, "duration": 722}, {"note": 0, "velocity": 0, "duration": 238}, {"note": 68, "velocity": 107, "duration": 169}, {"note": 0, "velocity": 0, "duration": 71}, {"note": 66, "velocity": 107, "duration": 71}, {"note": 68, "velocity": 112, "duration": 168}, {"note": 0, "velocity": 0, "duration": 72}, {"note": 70, "velocity": 117, "duration": 305}, {"note": 66, "velocity": 107, "duration": 468}, {"note": 0, "velocity": 0, "duration": 252}, {"note": 68, "velocity": 122, "duration": 67}, {"note": 70, "velocity": 112, "duration": 59}, {"note": 0, "velocity": 0, "duration": 61}, {"note": 71, "velocity": 112, "duration": 183}, {"note": 71, "velocity": 117, "duration": 198}, {"note": 68, "velocity": 122, "duration": 223}, {"note": 66, "velocity": 112, "duration": 142}, {"note": 0, "velocity": 0, "duration": 98}, {"note": 63, "velocity": 122, "duration": 179}, {"note": 0, "velocity": 0, "duration": 61}, {"note": 66, "velocity": 112, "duration": 88}, {"note": 0, "velocity": 0, "duration": 152}, {"note": 66, "velocity": 117, "duration": 157}, {"note": 0, "velocity": 0, "duration": 83}, {"note": 68, "velocity": 99, "duration": 44}, {"note": 0, "velocity": 0, "duration": 76}, {"note": 68, "velocity": 127, "duration": 237}, {"note": 66, "velocity": 107, "duration": 964}, {"note": 0, "velocity": 0, "duration": 356}, {"note": 78, "velocity": 127, "duration": 49}, {"note": 0, "velocity": 0, "duration": 71}, {"note": 77, "velocity": 112, "duration": 51}, {"note": 0, "velocity": 0, "duration": 69}, {"note": 78, "velocity": 127, "duration": 78}, {"note": 77, "velocity": 100, "duration": 52}, {"note": 0, "velocity": 0, "duration": 68}, {"note": 73, "velocity": 122, "duration": 140}, {"note": 0, "velocity": 0, "duration": 100}, {"note": 70, "velocity": 127, "duration": 44}, {"note": 0, "velocity": 0, "duration": 76}, {"note": 70, "velocity": 102, "duration": 41}, {"note": 0, "velocity": 0, "duration": 79}, {"note": 70, "velocity": 122, "duration": 42}, {"note": 0, "velocity": 0, "duration": 78}, {"note": 68, "velocity": 112, "duration": 93}, {"note": 0, "velocity": 0, "duration": 147}, {"note": 70, "velocity": 127, "duration": 439}, {"note": 0, "velocity": 0, "duration": 161}, {"note": 78, "velocity": 127, "duration": 112}, {"note": 77, "velocity": 83, "duration": 119}, {"note": 78, "velocity": 127, "duration": 133}, {"note": 77, "velocity": 92, "duration": 98}, {"note": 73, "velocity": 122, "duration": 149}, {"note": 0, "velocity": 0, "duration": 91}, {"note": 70, "velocity": 127, "duration": 44}, {"note": 0, "velocity": 0, "duration": 76}, {"note": 70, "velocity": 107, "duration": 47}, {"note": 0, "velocity": 0, "duration": 73}, {"note": 70, "velocity": 117, "duration": 72}, {"note": 68, "velocity": 117, "duration": 115}, {"note": 0, "velocity": 0, "duration": 125}, {"note": 70, "velocity": 127, "duration": 451}, {"note": 0, "velocity": 0, "duration": 389}, {"note": 73, "velocity": 127, "duration": 43}, {"note": 0, "velocity": 0, "duration": 77}, {"note": 73, "velocity": 107, "duration": 42}, {"note": 0, "velocity": 0, "duration": 78}, {"note": 75, "velocity": 127, "duration": 178}, {"note": 0, "velocity": 0, "duration": 62}, {"note": 73, "velocity": 112, "duration": 42}, {"note": 0, "velocity": 0, "duration": 78}, {"note": 73, "velocity": 122, "duration": 274}, {"note": 0, "velocity": 0, "duration": 206}, {"note": 73, "velocity": 112, "duration": 73}, {"note": 75, "velocity": 112, "duration": 178}, {"note": 0, "velocity": 0, "duration": 62}, {"note": 73, "velocity": 127, "duration": 165}, {"note": 0, "velocity": 0, "duration": 75}, {"note": 66, "velocity": 107, "duration": 62}, {"note": 73, "velocity": 107, "duration": 162}, {"note": 0, "velocity": 0, "duration": 78}, {"note": 70, "velocity": 107, "duration": 125}, {"note": 68, "velocity": 122, "duration": 1038}, {"note": 0, "velocity": 0, "duration": 402}, {"note": 78, "velocity": 127, "duration": 73}, {"note": 77, "velocity": 97, "duration": 73}, {"note": 78, "velocity": 117, "duration": 94}, {"note": 77, "velocity": 95, "duration": 59}, {"note": 0, "velocity": 0, "duration": 61}, {"note": 73, "velocity": 127, "duration": 246}, {"note": 70, "velocity": 127, "duration": 46}, {"note": 0, "velocity": 0, "duration": 74}, {"note": 70, "velocity": 112, "duration": 39}, {"note": 0, "velocity": 0, "duration": 81}, {"note": 70, "velocity": 122, "duration": 45}, {"note": 0, "velocity": 0, "duration": 75}, {"note": 68, "velocity": 122, "duration": 124}, {"note": 0, "velocity": 0, "duration": 116}, {"note": 70, "velocity": 127, "duration": 283}, {"note": 0, "velocity": 0, "duration": 317}, {"note": 78, "velocity": 127, "duration": 95}, {"note": 77, "velocity": 99, "duration": 76}, {"note": 78, "velocity": 122, "duration": 91}, {"note": 77, "velocity": 96, "duration": 43}, {"note": 0, "velocity": 0, "duration": 77}, {"note": 73, "velocity": 127, "duration": 187}, {"note": 70, "velocity": 127, "duration": 116}, {"note": 0, "velocity": 0, "duration": 124}, {"note": 70, "velocity": 127, "duration": 52}, {"note": 0, "velocity": 0, "duration": 68}, {"note": 68, "velocity": 127, "duration": 119}, {"note": 0, "velocity": 0, "duration": 121}, {"note": 70, "velocity": 127, "duration": 405}, {"note": 0, "velocity": 0, "duration": 555}, {"note": 73, "velocity": 117, "duration": 46}, {"note": 0, "velocity": 0, "duration": 74}, {"note": 75, "velocity": 127, "duration": 200}, {"note": 73, "velocity": 112, "duration": 44}, {"note": 0, "velocity": 0, "duration": 76}, {"note": 73, "velocity": 122, "duration": 351}, {"note": 0, "velocity": 0, "duration": 129}, {"note": 73, "velocity": 122, "duration": 68}, {"note": 75, "velocity": 122, "duration": 216}, {"note": 73, "velocity": 127, "duration": 132}, {"note": 0, "velocity": 0, "duration": 108}, {"note": 70, "velocity": 127, "duration": 79}, {"note": 0, "velocity": 0, "duration": 161}, {"note": 73, "velocity": 112, "duration": 36}, {"note": 0, "velocity": 0, "duration": 84}, {"note": 68, "velocity": 117, "duration": 254}, {"note": 0, "velocity": 0, "duration": 106}, {"note": 66, "velocity": 117, "duration": 794}, {"note": 0, "velocity": 0, "duration": 1006}, {"note": 61, "velocity": 107, "duration": 84}, {"note": 70, "velocity": 97, "duration": 99}, {"note": 68, "velocity": 127, "duration": 79}, {"note": 0, "velocity": 0, "duration": 161}, {"note": 61, "velocity": 79, "duration": 121}, {"note": 70, "velocity": 102, "duration": 114}, {"note": 68, "velocity": 112, "duration": 262}, {"note": 0, "velocity": 0, "duration": 338}, {"note": 73, "velocity": 127, "duration": 362}, {"note": 0, "velocity": 0, "duration": 118}, {"note": 66, "velocity": 112, "duration": 329}, {"note": 63, "velocity": 117, "duration": 1392}, {"note": 0, "velocity": 0, "duration": 288}, {"note": 61, "velocity": 95, "duration": 76}, {"note": 70, "velocity": 85, "duration": 93}, {"note": 68, "velocity": 117, "duration": 179}, {"note": 0, "velocity": 0, "duration": 61}, {"note": 61, "velocity": 88, "duration": 94}, {"note": 70, "velocity": 95, "duration": 99}, {"note": 68, "velocity": 112, "duration": 435}, {"note": 61, "velocity": 107, "duration": 107}, {"note": 73, "velocity": 107, "duration": 71}, {"note": 71, "velocity": 90, "duration": 89}, {"note": 70, "velocity": 127, "duration": 77}, {"note": 71, "velocity": 95, "duration": 133}, {"note": 70, "velocity": 122, "duration": 887}, {"note": 0, "velocity": 0, "duration": 913}, {"note": 66, "velocity": 102, "duration": 114}, {"note": 73, "velocity": 99, "duration": 588}, {"note": 75, "velocity": 127, "duration": 317}, {"note": 68, "velocity": 107, "duration": 722}, {"note": 0, "velocity": 0, "duration": 238}, {"note": 68, "velocity": 127, "duration": 308}, {"note": 0, "velocity": 0, "duration": 172}, {"note": 73, "velocity": 117, "duration": 114}, {"note": 0, "velocity": 0, "duration": 126}, {"note": 65, "velocity": 93, "duration": 71}, {"note": 68, "velocity": 117, "duration": 243}, {"note": 66, "velocity": 97, "duration": 622}, {"note": 68, "velocity": 117, "duration": 57}, {"note": 0, "velocity": 0, "duration": 63}, {"note": 70, "velocity": 112, "duration": 45}, {"note": 0, "velocity": 0, "duration": 75}, {"note": 71, "velocity": 112, "duration": 133}, {"note": 0, "velocity": 0, "duration": 107}, {"note": 70, "velocity": 127, "duration": 120}, {"note": 0, "velocity": 0, "duration": 120}, {"note": 68, "velocity": 127, "duration": 145}, {"note": 0, "velocity": 0, "duration": 95}, {"note": 66, "velocity": 97, "duration": 154}, {"note": 0, "velocity": 0, "duration": 86}, {"note": 63, "velocity": 127, "duration": 168}, {"note": 0, "velocity": 0, "duration": 72}, {"note": 66, "velocity": 122, "duration": 132}, {"note": 0, "velocity": 0, "duration": 108}, {"note": 66, "velocity": 127, "duration": 129}, {"note": 0, "velocity": 0, "duration": 111}, {"note": 68, "velocity": 112, "duration": 41}, {"note": 0, "velocity": 0, "duration": 79}, {"note": 68, "velocity": 127, "duration": 129}, {"note": 0, "velocity": 0, "duration": 111}, {"note": 66, "velocity": 127, "duration": 941}, {"note": 0, "velocity": 0, "duration": 15739}, {"note": 78, "velocity": 127, "duration": 49}, {"note": 0, "velocity": 0, "duration": 71}, {"note": 77, "velocity": 112, "duration": 51}, {"note": 0, "velocity": 0, "duration": 69}, {"note": 78, "velocity": 127, "duration": 78}, {"note": 77, "velocity": 100, "duration": 52}, {"note": 0, "velocity": 0, "duration": 68}, {"note": 73, "velocity": 122, "duration": 140}, {"note": 0, "velocity": 0, "duration": 100}, {"note": 70, "velocity": 127, "duration": 44}, {"note": 0, "velocity": 0, "duration": 76}, {"note": 70, "velocity": 102, "duration": 41}, {"note": 0, "velocity": 0, "duration": 79}, {"note": 70, "velocity": 122, "duration": 42}, {"note": 0, "velocity": 0, "duration": 78}, {"note": 68, "velocity": 112, "duration": 93}, {"note": 0, "velocity": 0, "duration": 147}, {"note": 70, "velocity": 127, "duration": 439}, {"note": 0, "velocity": 0, "duration": 161}, {"note": 78, "velocity": 127, "duration": 112}, {"note": 77, "velocity": 83, "duration": 119}, {"note": 78, "velocity": 127, "duration": 133}, {"note": 77, "velocity": 92, "duration": 98}, {"note": 73, "velocity": 122, "duration": 149}, {"note": 0, "velocity": 0, "duration": 91}, {"note": 70, "velocity": 127, "duration": 44}, {"note": 0, "velocity": 0, "duration": 76}, {"note": 70, "velocity": 107, "duration": 47}, {"note": 0, "velocity": 0, "duration": 73}, {"note": 70, "velocity": 117, "duration": 72}, {"note": 68, "velocity": 117, "duration": 115}, {"note": 0, "velocity": 0, "duration": 125}, {"note": 70, "velocity": 127, "duration": 451}, {"note": 0, "velocity": 0, "duration": 389}, {"note": 73, "velocity": 127, "duration": 43}, {"note": 0, "velocity": 0, "duration": 77}, {"note": 73, "velocity": 107, "duration": 42}, {"note": 0, "velocity": 0, "duration": 78}, {"note": 75, "velocity": 127, "duration": 178}, {"note": 0, "velocity": 0, "duration": 62}, {"note": 73, "velocity": 112, "duration": 42}, {"note": 0, "velocity": 0, "duration": 78}, {"note": 73, "velocity": 122, "duration": 274}, {"note": 0, "velocity": 0, "duration": 206}, {"note": 73, "velocity": 112, "duration": 73}, {"note": 75, "velocity": 112, "duration": 178}, {"note": 0, "velocity": 0, "duration": 62}, {"note": 73, "velocity": 127, "duration": 165}, {"note": 0, "velocity": 0, "duration": 75}, {"note": 66, "velocity": 107, "duration": 62}, {"note": 73, "velocity": 107, "duration": 162}, {"note": 0, "velocity": 0, "duration": 78}, {"note": 70, "velocity": 107, "duration": 125}, {"note": 68, "velocity": 122, "duration": 1038}, {"note": 0, "velocity": 0, "duration": 402}, {"note": 78, "velocity": 127, "duration": 73}, {"note": 77, "velocity": 97, "duration": 73}, {"note": 78, "velocity": 117, "duration": 94}, {"note": 77, "velocity": 95, "duration": 59}, {"note": 0, "velocity": 0, "duration": 61}, {"note": 73, "velocity": 127, "duration": 246}, {"note": 70, "velocity": 127, "duration": 46}, {"note": 0, "velocity": 0, "duration": 74}, {"note": 70, "velocity": 112, "duration": 39}, {"note": 0, "velocity": 0, "duration": 81}, {"note": 70, "velocity": 122, "duration": 45}, {"note": 0, "velocity": 0, "duration": 75}, {"note": 68, "velocity": 122, "duration": 124}, {"note": 0, "velocity": 0, "duration": 116}, {"note": 70, "velocity": 127, "duration": 283}, {"note": 0, "velocity": 0, "duration": 317}, {"note": 78, "velocity": 127, "duration": 95}, {"note": 77, "velocity": 99, "duration": 76}, {"note": 78, "velocity": 122, "duration": 91}, {"note": 77, "velocity": 96, "duration": 43}, {"note": 0, "velocity": 0, "duration": 77}, {"note": 73, "velocity": 127, "duration": 187}, {"note": 70, "velocity": 127, "duration": 116}, {"note": 0, "velocity": 0, "duration": 124}, {"note": 70, "velocity": 127, "duration": 52}, {"note": 0, "velocity": 0, "duration": 68}, {"note": 68, "velocity": 127, "duration": 119}, {"note": 0, "velocity": 0, "duration": 121}, {"note": 70, "velocity": 127, "duration": 405}, {"note": 0, "velocity": 0, "duration": 555}, {"note": 73, "velocity": 117, "duration": 46}, {"note": 0, "velocity": 0, "duration": 74}, {"note": 75, "velocity": 127, "duration": 200}, {"note": 73, "velocity": 112, "duration": 44}, {"note": 0, "velocity": 0, "duration": 76}, {"note": 73, "velocity": 122, "duration": 351}, {"note": 0, "velocity": 0, "duration": 129}, {"note": 73, "velocity": 122, "duration": 68}, {"note": 75, "velocity": 122, "duration": 216}, {"note": 73, "velocity": 127, "duration": 132}, {"note": 0, "velocity": 0, "duration": 108}, {"note": 70, "velocity": 127, "duration": 79}, {"note": 0, "velocity": 0, "duration": 161}, {"note": 73, "velocity": 112, "duration": 36}, {"note": 0, "velocity": 0, "duration": 84}, {"note": 68, "velocity": 117, "duration": 254}, {"note": 0, "velocity": 0, "duration": 106}, {"note": 66, "velocity": 117, "duration": 794}, {"note": 0, "velocity": 0, "duration": 406}, {"note": 78, "velocity": 127, "duration": 49}, {"note": 0, "velocity": 0, "duration": 71}, {"note": 77, "velocity": 112, "duration": 51}, {"note": 0, "velocity": 0, "duration": 69}, {"note": 78, "velocity": 127, "duration": 78}, {"note": 77, "velocity": 100, "duration": 52}, {"note": 0, "velocity": 0, "duration": 68}, {"note": 73, "velocity": 122, "duration": 140}, {"note": 0, "velocity": 0, "duration": 100}, {"note": 70, "velocity": 127, "duration": 44}, {"note": 0, "velocity": 0, "duration": 76}, {"note": 70, "velocity": 102, "duration": 41}, {"note": 0, "velocity": 0, "duration": 79}, {"note": 70, "velocity": 122, "duration": 42}, {"note": 0, "velocity": 0, "duration": 78}, {"note": 68, "velocity": 112, "duration": 93}, {"note": 0, "velocity": 0, "duration": 147}, {"note": 70, "velocity": 127, "duration": 439}, {"note": 0, "velocity": 0, "duration": 161}, {"note": 78, "velocity": 127, "duration": 112}, {"note": 77, "velocity": 83, "duration": 119}, {"note": 78, "velocity": 127, "duration": 133}, {"note": 77, "velocity": 92, "duration": 98}, {"note": 73, "velocity": 122, "duration": 149}, {"note": 0, "velocity": 0, "duration": 91}, {"note": 70, "velocity": 127, "duration": 44}, {"note": 0, "velocity": 0, "duration": 76}, {"note": 70, "velocity": 107, "duration": 47}, {"note": 0, "velocity": 0, "duration": 73}, {"note": 70, "velocity": 117, "duration": 72}, {"note": 68, "velocity": 117, "duration": 115}, {"note": 0, "velocity": 0, "duration": 125}, {"note": 70, "velocity": 127, "duration": 451}, {"note": 0, "velocity": 0, "duration": 389}, {"note": 73, "velocity": 127, "duration": 43}, {"note": 0, "velocity": 0, "duration": 77}, {"note": 73, "velocity": 107, "duration": 42}, {"note": 0, "velocity": 0, "duration": 78}, {"note": 75, "velocity": 127, "duration": 178}, {"note": 0, "velocity": 0, "duration": 62}, {"note": 73, "velocity": 112, "duration": 42}, {"note": 0, "velocity": 0, "duration": 78}, {"note": 73, "velocity": 122, "duration": 274}, {"note": 0, "velocity": 0, "duration": 206}, {"note": 73, "velocity": 112, "duration": 73}, {"note": 75, "velocity": 112, "duration": 178}, {"note": 0, "velocity": 0, "duration": 62}, {"note": 73, "velocity": 127, "duration": 165}, {"note": 0, "velocity": 0, "duration": 435}, {"note": 70, "velocity": 89, "duration": 169}, {"note": 0, "velocity": 0, "duration": 71}, {"note": 73, "velocity": 99, "duration": 767}, {"note": 0, "velocity": 0, "duration": 433}, {"note": 68, "velocity": 96, "duration": 162}, {"note": 0, "velocity": 0, "duration": 198}, {"note": 66, "velocity": 97, "duration": 1496}]]