[[{"note": 66, "velocity": 102, "duration": 129}, {"note": 67, "velocity": 93, "duration": 176}, {"note": 0, "velocity": 0, "duration": 64}, {"note": 66, "velocity": 86, "duration": 59}, {"note": 0, "velocity": 0, "duration": 61}, {"note": 64, "velocity": 122, "duration": 363}, {"note": 0, "velocity": 0, "duration": 1077}, {"note": 66, "velocity": 122, "duration": 97}, {"note": 66, "velocity": 58, "duration": 16}, {"note": 67, "velocity": 97, "duration": 128}, {"note": 0, "velocity": 0, "duration": 112}, {"note": 66, "velocity": 127, "duration": 91}, {"note": 64, "velocity": 99, "duration": 263}, {"note": 0, "velocity": 0, "duration": 1177}, {"note": 66, "velocity": 117, "duration": 101}, {"note": 67, "velocity": 102, "duration": 155}, {"note": 0, "velocity": 0, "duration": 85}, {"note": 66, "velocity": 122, "duration": 98}, {"note": 62, "velocity": 102, "duration": 149}, {"note": 0, "velocity": 0, "duration": 91}, {"note": 62, "velocity": 93, "duration": 80}, {"note": 57, "velocity": 90, "duration": 108}, {"note": 0, "velocity": 0, "duration": 132}, {"note": 55, "velocity": 90, "duration": 118}, {"note": 0, "velocity": 0, "duration": 122}, {"note": 54, "velocity": 96, "duration": 79}, {"note": 55, "velocity": 95, "duration": 238}, {"note": 62, "velocity": 97, "duration": 75}, {"note": 62, "velocity": 79, "duration": 498}, {"note": 0, "velocity": 0, "duration": 1422}, {"note": 57, "velocity": 92, "duration": 53}, {"note": 0, "velocity": 0, "duration": 67}, {"note": 66, "velocity": 100, "duration": 128}, {"note": 0, "velocity": 0, "duration": 112}, {"note": 67, "velocity": 107, "duration": 120}, {"note": 66, "velocity": 99, "duration": 123}, {"note": 64, "velocity": 102, "duration": 708}, {"note": 0, "velocity": 0, "duration": 612}, {"note": 57, "velocity": 96, "duration": 50}, {"note": 0, "velocity": 0, "duration": 70}, {"note": 66, "velocity": 107, "duration": 79}, {"note": 67, "velocity": 96, "duration": 116}, {"note": 0, "velocity": 0, "duration": 124}, {"note": 66, "velocity": 112, "duration": 88}, {"note": 64, "velocity": 89, "duration": 803}, {"note": 0, "velocity": 0, "duration": 397}, {"note": 57, "velocity": 96, "duration": 47}, {"note": 0, "velocity": 0, "duration": 73}, {"note": 57, "velocity": 90, "duration": 57}, {"note": 0, "velocity": 0, "duration": 63}, {"note": 66, "velocity": 122, "duration": 75}, {"note": 67, "velocity": 99, "duration": 96}, {"note": 0, "velocity": 0, "duration": 144}, {"note": 66, "velocity": 107, "duration": 65}, {"note": 62, "velocity": 112, "duration": 133}, {"note": 0, "velocity": 0, "duration": 107}, {"note": 62, "velocity": 97, "duration": 69}, {"note": 57, "velocity": 96, "duration": 151}, {"note": 0, "velocity": 0, "duration": 89}, {"note": 55, "velocity": 88, "duration": 146}, {"note": 0, "velocity": 0, "duration": 94}, {"note": 54, "velocity": 81, "duration": 75}, {"note": 55, "velocity": 90, "duration": 210}, {"note": 62, "velocity": 112, "duration": 61}, {"note": 62, "velocity": 112, "duration": 645}, {"note": 0, "velocity": 0, "duration": 435}, {"note": 57, "velocity": 102, "duration": 202}, {"note": 66, "velocity": 117, "duration": 221}, {"note": 62, "velocity": 127, "duration": 1028}, {"note": 0, "velocity": 0, "duration": 412}, {"note": 66, "velocity": 127, "duration": 225}, {"note": 67, "velocity": 102, "duration": 174}, {"note": 0, "velocity": 0, "duration": 66}, {"note": 69, "velocity": 127, "duration": 301}, {"note": 0, "velocity": 0, "duration": 179}, {"note": 66, "velocity": 127, "duration": 136}, {"note": 0, "velocity": 0, "duration": 104}, {"note": 67, "velocity": 107, "duration": 72}, {"note": 69, "velocity": 107, "duration": 259}, {"note": 67, "velocity": 112, "duration": 149}, {"note": 0, "velocity": 0, "duration": 211}, {"note": 66, "velocity": 122, "duration": 139}, {"note": 0, "velocity": 0, "duration": 101}, {"note": 64, "velocity": 100, "duration": 80}, {"note": 66, "velocity": 122, "duration": 315}, {"note": 0, "velocity": 0, "duration": 285}, {"note": 62, "velocity": 102, "duration": 127}, {"note": 0, "velocity": 0, "duration": 113}, {"note": 64, "velocity": 95, "duration": 57}, {"note": 0, "velocity": 0, "duration": 63}, {"note": 66, "velocity": 107, "duration": 168}, {"note": 0, "velocity": 0, "duration": 72}, {"note": 64, "velocity": 107, "duration": 225}, {"note": 0, "velocity": 0, "duration": 135}, {"note": 62, "velocity": 127, "duration": 144}, {"note": 0, "velocity": 0, "duration": 96}, {"note": 61, "velocity": 107, "duration": 64}, {"note": 62, "velocity": 97, "duration": 514}, {"note": 0, "velocity": 0, "duration": 86}, {"note": 62, "velocity": 97, "duration": 140}, {"note": 0, "velocity": 0, "duration": 100}, {"note": 62, "velocity": 97, "duration": 68}, {"note": 69, "velocity": 107, "duration": 373}, {"note": 0, "velocity": 0, "duration": 227}, {"note": 62, "velocity": 102, "duration": 151}, {"note": 0, "velocity": 0, "duration": 89}, {"note": 62, "velocity": 100, "duration": 66}, {"note": 67, "velocity": 112, "duration": 148}, {"note": 0, "velocity": 0, "duration": 92}, {"note": 66, "velocity": 102, "duration": 64}, {"note": 67, "velocity": 93, "duration": 94}, {"note": 66, "velocity": 107, "duration": 81}, {"note": 67, "velocity": 102, "duration": 69}, {"note": 69, "velocity": 99, "duration": 124}, {"note": 0, "velocity": 0, "duration": 116}, {"note": 66, "velocity": 117, "duration": 125}, {"note": 64, "velocity": 95, "duration": 393}, {"note": 0, "velocity": 0, "duration": 87}, {"note": 66, "velocity": 117, "duration": 121}, {"note": 0, "velocity": 0, "duration": 119}, {"note": 67, "velocity": 102, "duration": 61}, {"note": 69, "velocity": 112, "duration": 399}, {"note": 0, "velocity": 0, "duration": 201}, {"note": 66, "velocity": 127, "duration": 158}, {"note": 0, "velocity": 0, "duration": 82}, {"note": 67, "velocity": 122, "duration": 59}, {"note": 0, "velocity": 0, "duration": 61}, {"note": 69, "velocity": 127, "duration": 120}, {"note": 0, "velocity": 0, "duration": 120}, {"note": 67, "velocity": 112, "duration": 302}, {"note": 66, "velocity": 117, "duration": 161}, {"note": 0, "velocity": 0, "duration": 79}, {"note": 64, "velocity": 97, "duration": 51}, {"note": 0, "velocity": 0, "duration": 69}, {"note": 66, "velocity": 122, "duration": 429}, {"note": 0, "velocity": 0, "duration": 171}, {"note": 62, "velocity": 99, "duration": 146}, {"note": 0, "velocity": 0, "duration": 94}, {"note": 64, "velocity": 100, "duration": 60}, {"note": 66, "velocity": 112, "duration": 131}, {"note": 0, "velocity": 0, "duration": 109}, {"note": 64, "velocity": 100, "duration": 233}, {"note": 0, "velocity": 0, "duration": 127}, {"note": 62, "velocity": 99, "duration": 118}, {"note": 0, "velocity": 0, "duration": 122}, {"note": 61, "velocity": 112, "duration": 60}, {"note": 62, "velocity": 117, "duration": 470}, {"note": 0, "velocity": 0, "duration": 130}, {"note": 62, "velocity": 102, "duration": 158}, {"note": 0, "velocity": 0, "duration": 82}, {"note": 62, "velocity": 97, "duration": 77}, {"note": 69, "velocity": 117, "duration": 333}, {"note": 0, "velocity": 0, "duration": 267}, {"note": 62, "velocity": 100, "duration": 147}, {"note": 0, "velocity": 0, "duration": 93}, {"note": 62, "velocity": 97, "duration": 71}, {"note": 67, "velocity": 117, "duration": 222}, {"note": 67, "velocity": 117, "duration": 51}, {"note": 0, "velocity": 0, "duration": 69}, {"note": 67, "velocity": 107, "duration": 89}, {"note": 59, "velocity": 97, "duration": 125}, {"note": 66, "velocity": 107, "duration": 200}, {"note": 64, "velocity": 97, "duration": 151}, {"note": 0, "velocity": 0, "duration": 89}, {"note": 62, "velocity": 100, "duration": 157}, {"note": 62, "velocity": 117, "duration": 37}, {"note": 0, "velocity": 0, "duration": 7883}, {"note": 57, "velocity": 92, "duration": 53}, {"note": 0, "velocity": 0, "duration": 67}, {"note": 66, "velocity": 100, "duration": 128}, {"note": 0, "velocity": 0, "duration": 112}, {"note": 67, "velocity": 107, "duration": 120}, {"note": 66, "velocity": 99, "duration": 123}, {"note": 64, "velocity": 102, "duration": 708}, {"note": 0, "velocity": 0, "duration": 612}, {"note": 57, "velocity": 96, "duration": 50}, {"note": 0, "velocity": 0, "duration": 70}, {"note": 66, "velocity": 107, "duration": 79}, {"note": 67, "velocity": 96, "duration": 116}, {"note": 0, "velocity": 0, "duration": 124}, {"note": 66, "velocity": 112, "duration": 88}, {"note": 64, "velocity": 89, "duration": 803}, {"note": 0, "velocity": 0, "duration": 637}, {"note": 66, "velocity": 122, "duration": 75}, {"note": 67, "velocity": 99, "duration": 96}, {"note": 0, "velocity": 0, "duration": 144}, {"note": 66, "velocity": 107, "duration": 65}, {"note": 62, "velocity": 112, "duration": 133}, {"note": 0, "velocity": 0, "duration": 107}, {"note": 62, "velocity": 97, "duration": 69}, {"note": 57, "velocity": 96, "duration": 151}, {"note": 0, "velocity": 0, "duration": 89}, {"note": 55, "velocity": 88, "duration": 146}, {"note": 0, "velocity": 0, "duration": 94}, {"note": 54, "velocity": 81, "duration": 75}, {"note": 55, "velocity": 90, "duration": 210}, {"note": 62, "velocity": 112, "duration": 61}, {"note": 62, "velocity": 112, "duration": 645}, {"note": 0, "velocity": 0, "duration": 435}, {"note": 57, "velocity": 102, "duration": 202}, {"note": 66, "velocity": 117, "duration": 221}, {"note": 62, "velocity": 127, "duration": 1028}, {"note": 0, "velocity": 0, "duration": 412}, {"note": 66, "velocity": 127, "duration": 225}, {"note": 67, "velocity": 102, "duration": 174}, {"note": 0, "velocity": 0, "duration": 66}, {"note": 69, "velocity": 127, "duration": 301}, {"note": 0, "velocity": 0, "duration": 179}, {"note": 66, "velocity": 127, "duration": 136}, {"note": 0, "velocity": 0, "duration": 104}, {"note": 67, "velocity": 107, "duration": 72}, {"note": 69, "velocity": 107, "duration": 259}, {"note": 67, "velocity": 112, "duration": 149}, {"note": 0, "velocity": 0, "duration": 211}, {"note": 66, "velocity": 122, "duration": 139}, {"note": 0, "velocity": 0, "duration": 101}, {"note": 64, "velocity": 100, "duration": 80}, {"note": 66, "velocity": 122, "duration": 315}, {"note": 0, "velocity": 0, "duration": 285}, {"note": 62, "velocity": 102, "duration": 127}, {"note": 0, "velocity": 0, "duration": 113}, {"note": 64, "velocity": 95, "duration": 57}, {"note": 0, "velocity": 0, "duration": 63}, {"note": 66, "velocity": 107, "duration": 168}, {"note": 0, "velocity": 0, "duration": 72}, {"note": 64, "velocity": 107, "duration": 225}, {"note": 0, "velocity": 0, "duration": 135}, {"note": 62, "velocity": 127, "duration": 144}, {"note": 0, "velocity": 0, "duration": 96}, {"note": 61, "velocity": 107, "duration": 64}, {"note": 62, "velocity": 97, "duration": 514}, {"note": 0, "velocity": 0, "duration": 86}, {"note": 62, "velocity": 97, "duration": 140}, {"note": 0, "velocity": 0, "duration": 100}, {"note": 62, "velocity": 97, "duration": 68}, {"note": 69, "velocity": 107, "duration": 373}, {"note": 0, "velocity": 0, "duration": 227}, {"note": 62, "velocity": 102, "duration": 151}, {"note": 0, "velocity": 0, "duration": 89}, {"note": 62, "velocity": 100, "duration": 66}, {"note": 67, "velocity": 112, "duration": 148}, {"note": 0, "velocity": 0, "duration": 92}, {"note": 66, "velocity": 102, "duration": 64}, {"note": 67, "velocity": 93, "duration": 94}, {"note": 66, "velocity": 107, "duration": 81}, {"note": 67, "velocity": 102, "duration": 69}, {"note": 69, "velocity": 99, "duration": 124}, {"note": 0, "velocity": 0, "duration": 116}, {"note": 66, "velocity": 117, "duration": 125}, {"note": 64, "velocity": 95, "duration": 393}, {"note": 0, "velocity": 0, "duration": 87}, {"note": 66, "velocity": 117, "duration": 121}, {"note": 0, "velocity": 0, "duration": 119}, {"note": 67, "velocity": 102, "duration": 61}, {"note": 69, "velocity": 112, "duration": 399}, {"note": 0, "velocity": 0, "duration": 201}, {"note": 66, "velocity": 127, "duration": 158}, {"note": 0, "velocity": 0, "duration": 82}, {"note": 67, "velocity": 122, "duration": 59}, {"note": 0, "velocity": 0, "duration": 61}, {"note": 69, "velocity": 127, "duration": 120}, {"note": 0, "velocity": 0, "duration": 120}, {"note": 67, "velocity": 112, "duration": 302}, {"note": 66, "velocity": 117, "duration": 161}, {"note": 0, "velocity": 0, "duration": 79}, {"note": 64, "velocity": 97, "duration": 51}, {"note": 0, "velocity": 0, "duration": 69}, {"note": 66, "velocity": 122, "duration": 429}, {"note": 0, "velocity": 0, "duration": 171}, {"note": 62, "velocity": 99, "duration": 146}, {"note": 0, "velocity": 0, "duration": 94}, {"note": 64, "velocity": 100, "duration": 60}, {"note": 66, "velocity": 112, "duration": 131}, {"note": 0, "velocity": 0, "duration": 109}, {"note": 64, "velocity": 100, "duration": 233}, {"note": 0, "velocity": 0, "duration": 127}, {"note": 62, "velocity": 99, "duration": 118}, {"note": 0, "velocity": 0, "duration": 122}, {"note": 61, "velocity": 112, "duration": 60}, {"note": 62, "velocity": 117, "duration": 470}, {"note": 0, "velocity": 0, "duration": 130}, {"note": 62, "velocity": 102, "duration": 158}, {"note": 0, "velocity": 0, "duration": 82}, {"note": 62, "velocity": 97, "duration": 77}, {"note": 69, "velocity": 117, "duration": 333}, {"note": 0, "velocity": 0, "duration": 267}, {"note": 62, "velocity": 100, "duration": 147}, {"note": 0, "velocity": 0, "duration": 93}, {"note": 62, "velocity": 97, "duration": 71}, {"note": 67, "velocity": 117, "duration": 222}, {"note": 67, "velocity": 117, "duration": 51}, {"note": 0, "velocity": 0, "duration": 69}, {"note": 67, "velocity": 107, "duration": 89}, {"note": 59, "velocity": 97, "duration": 125}, {"note": 66, "velocity": 107, "duration": 200}, {"note": 64, "velocity": 97, "duration": 151}, {"note": 0, "velocity": 0, "duration": 89}, {"note": 62, "velocity": 100, "duration": 86}, {"note": 62, "velocity": 117, "duration": 1166}, {"note": 0, "velocity": 0, "duration": 13594}, {"note": 66, "velocity": 127, "duration": 225}, {"note": 67, "velocity": 102, "duration": 174}, {"note": 69, "velocity": 127, "duration": 301}, {"note": 0, "velocity": 0, "duration": 299}, {"note": 66, "velocity": 127, "duration": 136}, {"note": 0, "velocity": 0, "duration": 104}, {"note": 67, "velocity": 107, "duration": 72}, {"note": 69, "velocity": 107, "duration": 259}, {"note": 67, "velocity": 112, "duration": 149}, {"note": 0, "velocity": 0, "duration": 211}, {"note": 66, "velocity": 122, "duration": 139}, {"note": 0, "velocity": 0, "duration": 101}, {"note": 64, "velocity": 100, "duration": 80}, {"note": 66, "velocity": 122, "duration": 315}, {"note": 0, "velocity": 0, "duration": 285}, {"note": 62, "velocity": 102, "duration": 127}, {"note": 0, "velocity": 0, "duration": 113}, {"note": 64, "velocity": 95, "duration": 57}, {"note": 0, "velocity": 0, "duration": 63}, {"note": 66, "velocity": 107, "duration": 168}, {"note": 0, "velocity": 0, "duration": 72}, {"note": 64, "velocity": 107, "duration": 225}, {"note": 0, "velocity": 0, "duration": 135}, {"note": 62, "velocity": 127, "duration": 144}, {"note": 0, "velocity": 0, "duration": 96}, {"note": 61, "velocity": 107, "duration": 64}, {"note": 62, "velocity": 97, "duration": 514}, {"note": 0, "velocity": 0, "duration": 86}, {"note": 62, "velocity": 97, "duration": 140}, {"note": 0, "velocity": 0, "duration": 100}, {"note": 62, "velocity": 97, "duration": 68}, {"note": 69, "velocity": 107, "duration": 373}, {"note": 0, "velocity": 0, "duration": 227}, {"note": 62, "velocity": 102, "duration": 151}, {"note": 0, "velocity": 0, "duration": 89}, {"note": 62, "velocity": 100, "duration": 66}, {"note": 67, "velocity": 112, "duration": 148}, {"note": 0, "velocity": 0, "duration": 92}, {"note": 66, "velocity": 102, "duration": 64}, {"note": 67, "velocity": 93, "duration": 94}, {"note": 66, "velocity": 107, "duration": 81}, {"note": 67, "velocity": 102, "duration": 69}, {"note": 69, "velocity": 99, "duration": 124}, {"note": 0, "velocity": 0, "duration": 116}, {"note": 66, "velocity": 117, "duration": 125}, {"note": 64, "velocity": 95, "duration": 393}, {"note": 0, "velocity": 0, "duration": 87}, {"note": 66, "velocity": 117, "duration": 121}, {"note": 0, "velocity": 0, "duration": 119}, {"note": 67, "velocity": 102, "duration": 61}, {"note": 69, "velocity": 112, "duration": 399}, {"note": 0, "velocity": 0, "duration": 201}, {"note": 66, "velocity": 127, "duration": 158}, {"note": 0, "velocity": 0, "duration": 82}, {"note": 67, "velocity": 122, "duration": 59}, {"note": 0, "velocity": 0, "duration": 61}, {"note": 69, "velocity": 127, "duration": 120}, {"note": 0, "velocity": 0, "duration": 120}, {"note": 67, "velocity": 112, "duration": 302}, {"note": 66, "velocity": 117, "duration": 161}, {"note": 0, "velocity": 0, "duration": 79}, {"note": 64, "velocity": 97, "duration": 51}, {"note": 0, "velocity": 0, "duration": 69}, {"note": 66, "velocity": 122, "duration": 429}, {"note": 0, "velocity": 0, "duration": 171}, {"note": 62, "velocity": 99, "duration": 146}, {"note": 0, "velocity": 0, "duration": 94}, {"note": 64, "velocity": 100, "duration": 60}, {"note": 66, "velocity": 112, "duration": 131}, {"note": 0, "velocity": 0, "duration": 109}, {"note": 64, "velocity": 100, "duration": 233}, {"note": 0, "velocity": 0, "duration": 127}, {"note": 62, "velocity": 99, "duration": 118}, {"note": 0, "velocity": 0, "duration": 122}, {"note": 61, "velocity": 112, "duration": 60}, {"note": 62, "velocity": 117, "duration": 470}, {"note": 0, "velocity": 0, "duration": 130}, {"note": 62, "velocity": 102, "duration": 158}, {"note": 0, "velocity": 0, "duration": 82}, {"note": 62, "velocity": 97, "duration": 77}, {"note": 69, "velocity": 117, "duration": 333}, {"note": 0, "velocity": 0, "duration": 267}, {"note": 62, "velocity": 100, "duration": 147}, {"note": 0, "velocity": 0, "duration": 93}, {"note": 62, "velocity": 97, "duration": 71}, {"note": 67, "velocity": 117, "duration": 222}, {"note": 67, "velocity": 117, "duration": 51}, {"note": 0, "velocity": 0, "duration": 69}, {"note": 67, "velocity": 107, "duration": 89}, {"note": 59, "velocity": 97, "duration": 125}, {"note": 66, "velocity": 107, "duration": 200}, {"note": 64, "velocity": 97, "duration": 151}, {"note": 0, "velocity": 0, "duration": 89}, {"note": 62, "velocity": 100, "duration": 160}, {"note": 0, "velocity": 0, "duration": 80}, {"note": 62, "velocity": 117, "duration": 1166}]]