[[{"note": 65, "velocity": 88, "duration": 51}, {"note": 0, "velocity": 0, "duration": 69}, {"note": 65, "velocity": 82, "duration": 66}, {"note": 67, "velocity": 98, "duration": 60}, {"note": 69, "velocity": 113, "duration": 147}, {"note": 0, "velocity": 0, "duration": 93}, {"note": 62, "velocity": 113, "duration": 162}, {"note": 0, "velocity": 0, "duration": 78}, {"note": 62, "velocity": 108, "duration": 57}, {"note": 0, "velocity": 0, "duration": 63}, {"note": 69, "velocity": 113, "duration": 282}, {"note": 0, "velocity": 0, "duration": 78}, {"note": 67, "velocity": 113, "duration": 480}, {"note": 0, "velocity": 0, "duration": 120}, {"note": 67, "velocity": 85, "duration": 49}, {"note": 0, "velocity": 0, "duration": 71}, {"note": 67, "velocity": 103, "duration": 67}, {"note": 69, "velocity": 113, "duration": 86}, {"note": 72, "velocity": 113, "duration": 193}, {"note": 69, "velocity": 108, "duration": 120}, {"note": 0, "velocity": 0, "duration": 120}, {"note": 60, "velocity": 103, "duration": 63}, {"note": 67, "velocity": 113, "duration": 266}, {"note": 0, "velocity": 0, "duration": 94}, {"note": 65, "velocity": 113, "duration": 485}, {"note": 0, "velocity": 0, "duration": 115}, {"note": 62, "velocity": 88, "duration": 50}, {"note": 0, "velocity": 0, "duration": 70}, {"note": 62, "velocity": 88, "duration": 55}, {"note": 0, "velocity": 0, "duration": 65}, {"note": 64, "velocity": 98, "duration": 64}, {"note": 65, "velocity": 108, "duration": 124}, {"note": 0, "velocity": 0, "duration": 116}, {"note": 58, "velocity": 113, "duration": 43}, {"note": 0, "velocity": 0, "duration": 77}, {"note": 58, "velocity": 113, "duration": 204}, {"note": 0, "velocity": 0, "duration": 276}, {"note": 65, "velocity": 103, "duration": 74}, {"note": 67, "velocity": 113, "duration": 181}, {"note": 60, "velocity": 108, "duration": 75}, {"note": 60, "velocity": 113, "duration": 350}, {"note": 0, "velocity": 0, "duration": 130}, {"note": 60, "velocity": 82, "duration": 48}, {"note": 0, "velocity": 0, "duration": 72}, {"note": 60, "velocity": 103, "duration": 169}, {"note": 0, "velocity": 0, "duration": 71}, {"note": 60, "velocity": 93, "duration": 230}, {"note": 57, "velocity": 85, "duration": 107}, {"note": 65, "velocity": 78, "duration": 279}, {"note": 0, "velocity": 0, "duration": 81}, {"note": 62, "velocity": 93, "duration": 1145}, {"note": 0, "velocity": 0, "duration": 8215}, {"note": 65, "velocity": 85, "duration": 60}, {"note": 65, "velocity": 61, "duration": 51}, {"note": 0, "velocity": 0, "duration": 69}, {"note": 65, "velocity": 86, "duration": 134}, {"note": 0, "velocity": 0, "duration": 106}, {"note": 57, "velocity": 81, "duration": 49}, {"note": 0, "velocity": 0, "duration": 71}, {"note": 57, "velocity": 79, "duration": 271}, {"note": 0, "velocity": 0, "duration": 89}, {"note": 62, "velocity": 83, "duration": 79}, {"note": 65, "velocity": 72, "duration": 67}, {"note": 64, "velocity": 98, "duration": 151}, {"note": 0, "velocity": 0, "duration": 89}, {"note": 62, "velocity": 83, "duration": 92}, {"note": 60, "velocity": 72, "duration": 367}, {"note": 0, "velocity": 0, "duration": 233}, {"note": 62, "velocity": 108, "duration": 60}, {"note": 62, "velocity": 76, "duration": 63}, {"note": 62, "velocity": 76, "duration": 60}, {"note": 62, "velocity": 79, "duration": 88}, {"note": 60, "velocity": 98, "duration": 132}, {"note": 0, "velocity": 0, "duration": 108}, {"note": 62, "velocity": 93, "duration": 52}, {"note": 0, "velocity": 0, "duration": 68}, {"note": 60, "velocity": 85, "duration": 89}, {"note": 0, "velocity": 0, "duration": 151}, {"note": 57, "velocity": 81, "duration": 541}, {"note": 55, "velocity": 79, "duration": 86}, {"note": 57, "velocity": 79, "duration": 66}, {"note": 58, "velocity": 88, "duration": 171}, {"note": 0, "velocity": 0, "duration": 69}, {"note": 57, "velocity": 68, "duration": 72}, {"note": 58, "velocity": 88, "duration": 371}, {"note": 62, "velocity": 103, "duration": 59}, {"note": 0, "velocity": 0, "duration": 61}, {"note": 65, "velocity": 88, "duration": 58}, {"note": 0, "velocity": 0, "duration": 62}, {"note": 64, "velocity": 108, "duration": 164}, {"note": 0, "velocity": 0, "duration": 76}, {"note": 62, "velocity": 85, "duration": 91}, {"note": 60, "velocity": 79, "duration": 399}, {"note": 0, "velocity": 0, "duration": 201}, {"note": 62, "velocity": 113, "duration": 53}, {"note": 0, "velocity": 0, "duration": 67}, {"note": 62, "velocity": 83, "duration": 50}, {"note": 0, "velocity": 0, "duration": 70}, {"note": 62, "velocity": 81, "duration": 61}, {"note": 65, "velocity": 85, "duration": 80}, {"note": 64, "velocity": 98, "duration": 135}, {"note": 0, "velocity": 0, "duration": 105}, {"note": 60, "velocity": 71, "duration": 62}, {"note": 64, "velocity": 81, "duration": 76}, {"note": 0, "velocity": 0, "duration": 164}, {"note": 62, "velocity": 93, "duration": 669}, {"note": 0, "velocity": 0, "duration": 891}, {"note": 65, "velocity": 81, "duration": 59}, {"note": 0, "velocity": 0, "duration": 61}, {"note": 65, "velocity": 78, "duration": 62}, {"note": 65, "velocity": 98, "duration": 101}, {"note": 0, "velocity": 0, "duration": 139}, {"note": 57, "velocity": 82, "duration": 53}, {"note": 0, "velocity": 0, "duration": 67}, {"note": 57, "velocity": 85, "duration": 169}, {"note": 0, "velocity": 0, "duration": 191}, {"note": 62, "velocity": 98, "duration": 72}, {"note": 65, "velocity": 88, "duration": 64}, {"note": 64, "velocity": 108, "duration": 204}, {"note": 62, "velocity": 103, "duration": 66}, {"note": 60, "velocity": 93, "duration": 378}, {"note": 0, "velocity": 0, "duration": 222}, {"note": 62, "velocity": 98, "duration": 47}, {"note": 0, "velocity": 0, "duration": 73}, {"note": 62, "velocity": 81, "duration": 48}, {"note": 0, "velocity": 0, "duration": 72}, {"note": 62, "velocity": 76, "duration": 43}, {"note": 0, "velocity": 0, "duration": 77}, {"note": 62, "velocity": 85, "duration": 73}, {"note": 60, "velocity": 93, "duration": 128}, {"note": 0, "velocity": 0, "duration": 112}, {"note": 62, "velocity": 108, "duration": 49}, {"note": 0, "velocity": 0, "duration": 71}, {"note": 60, "velocity": 113, "duration": 66}, {"note": 0, "velocity": 0, "duration": 174}, {"note": 57, "velocity": 85, "duration": 568}, {"note": 55, "velocity": 85, "duration": 74}, {"note": 57, "velocity": 81, "duration": 51}, {"note": 0, "velocity": 0, "duration": 69}, {"note": 58, "velocity": 98, "duration": 157}, {"note": 0, "velocity": 0, "duration": 83}, {"note": 57, "velocity": 93, "duration": 393}, {"note": 0, "velocity": 0, "duration": 87}, {"note": 62, "velocity": 113, "duration": 61}, {"note": 65, "velocity": 86, "duration": 77}, {"note": 64, "velocity": 108, "duration": 160}, {"note": 0, "velocity": 0, "duration": 80}, {"note": 62, "velocity": 88, "duration": 75}, {"note": 60, "velocity": 93, "duration": 344}, {"note": 0, "velocity": 0, "duration": 256}, {"note": 62, "velocity": 86, "duration": 52}, {"note": 0, "velocity": 0, "duration": 68}, {"note": 62, "velocity": 82, "duration": 48}, {"note": 0, "velocity": 0, "duration": 72}, {"note": 62, "velocity": 98, "duration": 63}, {"note": 65, "velocity": 88, "duration": 65}, {"note": 67, "velocity": 98, "duration": 133}, {"note": 0, "velocity": 0, "duration": 107}, {"note": 64, "velocity": 98, "duration": 73}, {"note": 60, "velocity": 86, "duration": 55}, {"note": 0, "velocity": 0, "duration": 65}, {"note": 64, "velocity": 108, "duration": 128}, {"note": 0, "velocity": 0, "duration": 112}, {"note": 62, "velocity": 108, "duration": 703}, {"note": 0, "velocity": 0, "duration": 617}, {"note": 65, "velocity": 108, "duration": 42}, {"note": 0, "velocity": 0, "duration": 78}, {"note": 65, "velocity": 108, "duration": 45}, {"note": 0, "velocity": 0, "duration": 75}, {"note": 67, "velocity": 108, "duration": 43}, {"note": 0, "velocity": 0, "duration": 77}, {"note": 69, "velocity": 113, "duration": 177}, {"note": 0, "velocity": 0, "duration": 63}, {"note": 62, "velocity": 85, "duration": 43}, {"note": 0, "velocity": 0, "duration": 197}, {"note": 62, "velocity": 113, "duration": 95}, {"note": 69, "velocity": 98, "duration": 190}, {"note": 0, "velocity": 0, "duration": 170}, {"note": 67, "velocity": 113, "duration": 480}, {"note": 0, "velocity": 0, "duration": 120}, {"note": 67, "velocity": 93, "duration": 47}, {"note": 0, "velocity": 0, "duration": 73}, {"note": 67, "velocity": 88, "duration": 66}, {"note": 69, "velocity": 113, "duration": 102}, {"note": 72, "velocity": 113, "duration": 151}, {"note": 0, "velocity": 0, "duration": 89}, {"note": 69, "velocity": 93, "duration": 107}, {"note": 0, "velocity": 0, "duration": 133}, {"note": 60, "velocity": 98, "duration": 88}, {"note": 67, "velocity": 113, "duration": 286}, {"note": 0, "velocity": 0, "duration": 74}, {"note": 65, "velocity": 108, "duration": 371}, {"note": 0, "velocity": 0, "duration": 229}, {"note": 62, "velocity": 103, "duration": 43}, {"note": 0, "velocity": 0, "duration": 77}, {"note": 62, "velocity": 103, "duration": 52}, {"note": 0, "velocity": 0, "duration": 68}, {"note": 64, "velocity": 98, "duration": 52}, {"note": 0, "velocity": 0, "duration": 68}, {"note": 65, "velocity": 108, "duration": 124}, {"note": 0, "velocity": 0, "duration": 116}, {"note": 58, "velocity": 113, "duration": 43}, {"note": 0, "velocity": 0, "duration": 77}, {"note": 58, "velocity": 113, "duration": 310}, {"note": 0, "velocity": 0, "duration": 170}, {"note": 65, "velocity": 108, "duration": 67}, {"note": 67, "velocity": 113, "duration": 131}, {"note": 0, "velocity": 0, "duration": 109}, {"note": 60, "velocity": 93, "duration": 53}, {"note": 0, "velocity": 0, "duration": 67}, {"note": 60, "velocity": 98, "duration": 296}, {"note": 0, "velocity": 0, "duration": 184}, {"note": 60, "velocity": 98, "duration": 98}, {"note": 70, "velocity": 113, "duration": 195}, {"note": 69, "velocity": 113, "duration": 177}, {"note": 0, "velocity": 0, "duration": 63}, {"note": 69, "velocity": 113, "duration": 81}, {"note": 67, "velocity": 113, "duration": 216}, {"note": 69, "velocity": 113, "duration": 695}, {"note": 65, "velocity": 88, "duration": 51}, {"note": 0, "velocity": 0, "duration": 69}, {"note": 65, "velocity": 82, "duration": 66}, {"note": 67, "velocity": 98, "duration": 60}, {"note": 69, "velocity": 113, "duration": 147}, {"note": 0, "velocity": 0, "duration": 93}, {"note": 62, "velocity": 113, "duration": 162}, {"note": 0, "velocity": 0, "duration": 78}, {"note": 62, "velocity": 108, "duration": 57}, {"note": 0, "velocity": 0, "duration": 63}, {"note": 69, "velocity": 113, "duration": 282}, {"note": 0, "velocity": 0, "duration": 78}, {"note": 67, "velocity": 113, "duration": 480}, {"note": 0, "velocity": 0, "duration": 120}, {"note": 67, "velocity": 85, "duration": 49}, {"note": 0, "velocity": 0, "duration": 71}, {"note": 67, "velocity": 103, "duration": 67}, {"note": 69, "velocity": 113, "duration": 86}, {"note": 72, "velocity": 113, "duration": 193}, {"note": 69, "velocity": 108, "duration": 120}, {"note": 0, "velocity": 0, "duration": 120}, {"note": 60, "velocity": 103, "duration": 63}, {"note": 67, "velocity": 113, "duration": 266}, {"note": 0, "velocity": 0, "duration": 94}, {"note": 65, "velocity": 113, "duration": 485}, {"note": 0, "velocity": 0, "duration": 115}, {"note": 62, "velocity": 88, "duration": 50}, {"note": 0, "velocity": 0, "duration": 70}, {"note": 62, "velocity": 88, "duration": 55}, {"note": 0, "velocity": 0, "duration": 65}, {"note": 64, "velocity": 98, "duration": 64}, {"note": 65, "velocity": 108, "duration": 124}, {"note": 0, "velocity": 0, "duration": 116}, {"note": 58, "velocity": 113, "duration": 43}, {"note": 0, "velocity": 0, "duration": 77}, {"note": 58, "velocity": 113, "duration": 204}, {"note": 0, "velocity": 0, "duration": 276}, {"note": 65, "velocity": 103, "duration": 74}, {"note": 67, "velocity": 113, "duration": 181}, {"note": 60, "velocity": 108, "duration": 75}, {"note": 60, "velocity": 113, "duration": 350}, {"note": 0, "velocity": 0, "duration": 250}, {"note": 60, "velocity": 103, "duration": 53}, {"note": 0, "velocity": 0, "duration": 67}, {"note": 60, "velocity": 88, "duration": 53}, {"note": 0, "velocity": 0, "duration": 67}, {"note": 60, "velocity": 113, "duration": 276}, {"note": 0, "velocity": 0, "duration": 84}, {"note": 57, "velocity": 108, "duration": 97}, {"note": 65, "velocity": 113, "duration": 274}, {"note": 0, "velocity": 0, "duration": 86}, {"note": 62, "velocity": 113, "duration": 1002}, {"note": 0, "velocity": 0, "duration": 7278}, {"note": 65, "velocity": 81, "duration": 59}, {"note": 0, "velocity": 0, "duration": 61}, {"note": 65, "velocity": 78, "duration": 62}, {"note": 65, "velocity": 98, "duration": 101}, {"note": 0, "velocity": 0, "duration": 139}, {"note": 57, "velocity": 82, "duration": 53}, {"note": 0, "velocity": 0, "duration": 67}, {"note": 57, "velocity": 85, "duration": 169}, {"note": 0, "velocity": 0, "duration": 191}, {"note": 62, "velocity": 98, "duration": 72}, {"note": 65, "velocity": 88, "duration": 64}, {"note": 64, "velocity": 108, "duration": 204}, {"note": 62, "velocity": 103, "duration": 66}, {"note": 60, "velocity": 93, "duration": 378}, {"note": 0, "velocity": 0, "duration": 222}, {"note": 62, "velocity": 98, "duration": 47}, {"note": 0, "velocity": 0, "duration": 73}, {"note": 62, "velocity": 81, "duration": 48}, {"note": 0, "velocity": 0, "duration": 72}, {"note": 62, "velocity": 76, "duration": 43}, {"note": 0, "velocity": 0, "duration": 77}, {"note": 62, "velocity": 85, "duration": 73}, {"note": 60, "velocity": 93, "duration": 128}, {"note": 0, "velocity": 0, "duration": 112}, {"note": 62, "velocity": 108, "duration": 49}, {"note": 0, "velocity": 0, "duration": 71}, {"note": 60, "velocity": 113, "duration": 66}, {"note": 0, "velocity": 0, "duration": 174}, {"note": 57, "velocity": 85, "duration": 568}, {"note": 55, "velocity": 85, "duration": 74}, {"note": 57, "velocity": 81, "duration": 51}, {"note": 0, "velocity": 0, "duration": 69}, {"note": 58, "velocity": 98, "duration": 157}, {"note": 0, "velocity": 0, "duration": 83}, {"note": 57, "velocity": 93, "duration": 393}, {"note": 0, "velocity": 0, "duration": 87}, {"note": 62, "velocity": 113, "duration": 61}, {"note": 65, "velocity": 86, "duration": 77}, {"note": 64, "velocity": 108, "duration": 160}, {"note": 0, "velocity": 0, "duration": 80}, {"note": 62, "velocity": 88, "duration": 75}, {"note": 60, "velocity": 93, "duration": 344}, {"note": 0, "velocity": 0, "duration": 256}, {"note": 62, "velocity": 86, "duration": 52}, {"note": 0, "velocity": 0, "duration": 68}, {"note": 62, "velocity": 82, "duration": 48}, {"note": 0, "velocity": 0, "duration": 72}, {"note": 62, "velocity": 98, "duration": 63}, {"note": 65, "velocity": 88, "duration": 65}, {"note": 67, "velocity": 98, "duration": 133}, {"note": 0, "velocity": 0, "duration": 107}, {"note": 64, "velocity": 98, "duration": 73}, {"note": 60, "velocity": 86, "duration": 55}, {"note": 0, "velocity": 0, "duration": 65}, {"note": 64, "velocity": 108, "duration": 128}, {"note": 0, "velocity": 0, "duration": 112}, {"note": 62, "velocity": 108, "duration": 703}, {"note": 0, "velocity": 0, "duration": 617}, {"note": 65, "velocity": 108, "duration": 42}, {"note": 0, "velocity": 0, "duration": 78}, {"note": 65, "velocity": 108, "duration": 45}, {"note": 0, "velocity": 0, "duration": 75}, {"note": 67, "velocity": 108, "duration": 43}, {"note": 0, "velocity": 0, "duration": 77}, {"note": 69, "velocity": 113, "duration": 177}, {"note": 0, "velocity": 0, "duration": 63}, {"note": 62, "velocity": 85, "duration": 43}, {"note": 0, "velocity": 0, "duration": 197}, {"note": 62, "velocity": 113, "duration": 95}, {"note": 69, "velocity": 98, "duration": 190}, {"note": 0, "velocity": 0, "duration": 170}, {"note": 67, "velocity": 113, "duration": 480}, {"note": 0, "velocity": 0, "duration": 120}, {"note": 67, "velocity": 93, "duration": 47}, {"note": 0, "velocity": 0, "duration": 73}, {"note": 67, "velocity": 88, "duration": 66}, {"note": 69, "velocity": 113, "duration": 102}, {"note": 72, "velocity": 113, "duration": 151}, {"note": 0, "velocity": 0, "duration": 89}, {"note": 69, "velocity": 93, "duration": 107}, {"note": 0, "velocity": 0, "duration": 133}, {"note": 60, "velocity": 98, "duration": 88}, {"note": 67, "velocity": 113, "duration": 286}, {"note": 0, "velocity": 0, "duration": 74}, {"note": 65, "velocity": 108, "duration": 371}, {"note": 0, "velocity": 0, "duration": 229}, {"note": 62, "velocity": 103, "duration": 43}, {"note": 0, "velocity": 0, "duration": 77}, {"note": 62, "velocity": 103, "duration": 52}, {"note": 0, "velocity": 0, "duration": 68}, {"note": 64, "velocity": 98, "duration": 52}, {"note": 0, "velocity": 0, "duration": 68}, {"note": 65, "velocity": 108, "duration": 124}, {"note": 0, "velocity": 0, "duration": 116}, {"note": 58, "velocity": 113, "duration": 43}, {"note": 0, "velocity": 0, "duration": 77}, {"note": 58, "velocity": 113, "duration": 310}, {"note": 0, "velocity": 0, "duration": 170}, {"note": 65, "velocity": 108, "duration": 67}, {"note": 67, "velocity": 113, "duration": 131}, {"note": 0, "velocity": 0, "duration": 109}, {"note": 60, "velocity": 93, "duration": 53}, {"note": 0, "velocity": 0, "duration": 67}, {"note": 60, "velocity": 98, "duration": 296}, {"note": 0, "velocity": 0, "duration": 184}, {"note": 60, "velocity": 98, "duration": 98}, {"note": 70, "velocity": 113, "duration": 195}, {"note": 69, "velocity": 113, "duration": 177}, {"note": 0, "velocity": 0, "duration": 63}, {"note": 69, "velocity": 113, "duration": 81}, {"note": 67, "velocity": 113, "duration": 216}, {"note": 69, "velocity": 113, "duration": 695}, {"note": 65, "velocity": 88, "duration": 51}, {"note": 0, "velocity": 0, "duration": 69}, {"note": 65, "velocity": 82, "duration": 66}, {"note": 67, "velocity": 98, "duration": 60}, {"note": 69, "velocity": 113, "duration": 147}, {"note": 0, "velocity": 0, "duration": 93}, {"note": 62, "velocity": 113, "duration": 162}, {"note": 0, "velocity": 0, "duration": 78}, {"note": 62, "velocity": 108, "duration": 57}, {"note": 0, "velocity": 0, "duration": 63}, {"note": 69, "velocity": 113, "duration": 282}, {"note": 0, "velocity": 0, "duration": 78}, {"note": 67, "velocity": 113, "duration": 480}, {"note": 0, "velocity": 0, "duration": 120}, {"note": 67, "velocity": 85, "duration": 49}, {"note": 0, "velocity": 0, "duration": 71}, {"note": 67, "velocity": 103, "duration": 67}, {"note": 69, "velocity": 113, "duration": 86}, {"note": 72, "velocity": 113, "duration": 193}, {"note": 69, "velocity": 108, "duration": 120}, {"note": 0, "velocity": 0, "duration": 120}, {"note": 60, "velocity": 103, "duration": 63}, {"note": 67, "velocity": 113, "duration": 266}, {"note": 0, "velocity": 0, "duration": 94}, {"note": 65, "velocity": 113, "duration": 485}, {"note": 0, "velocity": 0, "duration": 115}, {"note": 62, "velocity": 88, "duration": 50}, {"note": 0, "velocity": 0, "duration": 70}, {"note": 62, "velocity": 88, "duration": 55}, {"note": 0, "velocity": 0, "duration": 65}, {"note": 64, "velocity": 98, "duration": 64}, {"note": 65, "velocity": 108, "duration": 124}, {"note": 0, "velocity": 0, "duration": 116}, {"note": 58, "velocity": 113, "duration": 43}, {"note": 0, "velocity": 0, "duration": 77}, {"note": 58, "velocity": 113, "duration": 204}, {"note": 0, "velocity": 0, "duration": 276}, {"note": 65, "velocity": 103, "duration": 74}, {"note": 67, "velocity": 113, "duration": 181}, {"note": 60, "velocity": 108, "duration": 75}, {"note": 60, "velocity": 113, "duration": 350}, {"note": 0, "velocity": 0, "duration": 250}, {"note": 60, "velocity": 103, "duration": 53}, {"note": 0, "velocity": 0, "duration": 67}, {"note": 60, "velocity": 88, "duration": 53}, {"note": 0, "velocity": 0, "duration": 67}, {"note": 60, "velocity": 113, "duration": 276}, {"note": 0, "velocity": 0, "duration": 84}, {"note": 57, "velocity": 108, "duration": 97}, {"note": 65, "velocity": 113, "duration": 274}, {"note": 62, "velocity": 113, "duration": 592}, {"note": 0, "velocity": 0, "duration": 128}, {"note": 62, "velocity": 98, "duration": 92}, {"note": 64, "velocity": 103, "duration": 90}, {"note": 65, "velocity": 108, "duration": 156}, {"note": 0, "velocity": 0, "duration": 84}, {"note": 65, "velocity": 113, "duration": 50}, {"note": 0, "velocity": 0, "duration": 70}, {"note": 65, "velocity": 113, "duration": 123}, {"note": 0, "velocity": 0, "duration": 117}, {"note": 69, "velocity": 113, "duration": 265}, {"note": 0, "velocity": 0, "duration": 95}, {"note": 67, "velocity": 113, "duration": 356}, {"note": 0, "velocity": 0, "duration": 364}, {"note": 64, "velocity": 113, "duration": 108}, {"note": 62, "velocity": 83, "duration": 82}, {"note": 60, "velocity": 113, "duration": 152}, {"note": 0, "velocity": 0, "duration": 88}, {"note": 57, "velocity": 108, "duration": 85}, {"note": 60, "velocity": 103, "duration": 130}, {"note": 0, "velocity": 0, "duration": 110}, {"note": 67, "velocity": 113, "duration": 318}, {"note": 65, "velocity": 113, "duration": 549}, {"note": 0, "velocity": 0, "duration": 171}, {"note": 62, "velocity": 98, "duration": 61}, {"note": 64, "velocity": 113, "duration": 68}, {"note": 65, "velocity": 113, "duration": 143}, {"note": 0, "velocity": 0, "duration": 97}, {"note": 65, "velocity": 113, "duration": 67}, {"note": 65, "velocity": 113, "duration": 185}, {"note": 69, "velocity": 98, "duration": 288}, {"note": 0, "velocity": 0, "duration": 72}, {"note": 67, "velocity": 108, "duration": 482}, {"note": 0, "velocity": 0, "duration": 238}, {"note": 67, "velocity": 113, "duration": 103}, {"note": 65, "velocity": 79, "duration": 79}, {"note": 70, "velocity": 113, "duration": 166}, {"note": 0, "velocity": 0, "duration": 74}, {"note": 70, "velocity": 113, "duration": 124}, {"note": 0, "velocity": 0, "duration": 116}, {"note": 69, "velocity": 113, "duration": 48}, {"note": 0, "velocity": 0, "duration": 72}, {"note": 67, "velocity": 113, "duration": 274}, {"note": 69, "velocity": 108, "duration": 1097}, {"note": 0, "velocity": 0, "duration": 583}, {"note": 65, "velocity": 108, "duration": 42}, {"note": 0, "velocity": 0, "duration": 78}, {"note": 65, "velocity": 108, "duration": 45}, {"note": 0, "velocity": 0, "duration": 75}, {"note": 67, "velocity": 108, "duration": 43}, {"note": 0, "velocity": 0, "duration": 77}, {"note": 69, "velocity": 113, "duration": 177}, {"note": 0, "velocity": 0, "duration": 63}, {"note": 62, "velocity": 85, "duration": 43}, {"note": 0, "velocity": 0, "duration": 197}, {"note": 62, "velocity": 113, "duration": 95}, {"note": 69, "velocity": 98, "duration": 190}, {"note": 0, "velocity": 0, "duration": 170}, {"note": 67, "velocity": 113, "duration": 480}, {"note": 0, "velocity": 0, "duration": 120}, {"note": 67, "velocity": 93, "duration": 47}, {"note": 0, "velocity": 0, "duration": 73}, {"note": 67, "velocity": 88, "duration": 66}, {"note": 69, "velocity": 113, "duration": 102}, {"note": 72, "velocity": 113, "duration": 151}, {"note": 0, "velocity": 0, "duration": 89}, {"note": 69, "velocity": 93, "duration": 107}, {"note": 0, "velocity": 0, "duration": 133}, {"note": 60, "velocity": 98, "duration": 88}, {"note": 67, "velocity": 113, "duration": 286}, {"note": 0, "velocity": 0, "duration": 74}, {"note": 65, "velocity": 108, "duration": 371}, {"note": 0, "velocity": 0, "duration": 229}, {"note": 62, "velocity": 103, "duration": 43}, {"note": 0, "velocity": 0, "duration": 77}, {"note": 62, "velocity": 103, "duration": 52}, {"note": 0, "velocity": 0, "duration": 68}, {"note": 64, "velocity": 98, "duration": 52}, {"note": 0, "velocity": 0, "duration": 68}, {"note": 65, "velocity": 108, "duration": 124}, {"note": 0, "velocity": 0, "duration": 116}, {"note": 58, "velocity": 113, "duration": 43}, {"note": 0, "velocity": 0, "duration": 77}, {"note": 58, "velocity": 113, "duration": 310}, {"note": 0, "velocity": 0, "duration": 170}, {"note": 65, "velocity": 108, "duration": 67}, {"note": 67, "velocity": 113, "duration": 131}, {"note": 0, "velocity": 0, "duration": 109}, {"note": 60, "velocity": 93, "duration": 53}, {"note": 0, "velocity": 0, "duration": 67}, {"note": 60, "velocity": 98, "duration": 296}, {"note": 0, "velocity": 0, "duration": 184}, {"note": 60, "velocity": 98, "duration": 98}, {"note": 70, "velocity": 113, "duration": 195}, {"note": 69, "velocity": 113, "duration": 177}, {"note": 0, "velocity": 0, "duration": 63}, {"note": 69, "velocity": 113, "duration": 81}, {"note": 67, "velocity": 113, "duration": 216}, {"note": 69, "velocity": 113, "duration": 695}, {"note": 65, "velocity": 88, "duration": 51}, {"note": 0, "velocity": 0, "duration": 69}, {"note": 65, "velocity": 82, "duration": 66}, {"note": 67, "velocity": 98, "duration": 60}, {"note": 69, "velocity": 113, "duration": 147}, {"note": 0, "velocity": 0, "duration": 93}, {"note": 62, "velocity": 113, "duration": 162}, {"note": 0, "velocity": 0, "duration": 78}, {"note": 62, "velocity": 108, "duration": 57}, {"note": 0, "velocity": 0, "duration": 63}, {"note": 69, "velocity": 113, "duration": 282}, {"note": 0, "velocity": 0, "duration": 78}, {"note": 67, "velocity": 113, "duration": 480}, {"note": 0, "velocity": 0, "duration": 120}, {"note": 67, "velocity": 85, "duration": 49}, {"note": 0, "velocity": 0, "duration": 71}, {"note": 67, "velocity": 103, "duration": 67}, {"note": 69, "velocity": 113, "duration": 86}, {"note": 72, "velocity": 113, "duration": 193}, {"note": 69, "velocity": 108, "duration": 120}, {"note": 0, "velocity": 0, "duration": 120}, {"note": 60, "velocity": 103, "duration": 63}, {"note": 67, "velocity": 113, "duration": 266}, {"note": 0, "velocity": 0, "duration": 94}, {"note": 65, "velocity": 113, "duration": 485}, {"note": 0, "velocity": 0, "duration": 115}, {"note": 62, "velocity": 88, "duration": 50}, {"note": 0, "velocity": 0, "duration": 70}, {"note": 62, "velocity": 88, "duration": 55}, {"note": 0, "velocity": 0, "duration": 65}, {"note": 64, "velocity": 98, "duration": 64}, {"note": 65, "velocity": 108, "duration": 124}, {"note": 0, "velocity": 0, "duration": 116}, {"note": 58, "velocity": 113, "duration": 43}, {"note": 0, "velocity": 0, "duration": 77}, {"note": 58, "velocity": 113, "duration": 204}, {"note": 0, "velocity": 0, "duration": 276}, {"note": 65, "velocity": 103, "duration": 74}, {"note": 67, "velocity": 113, "duration": 181}, {"note": 60, "velocity": 108, "duration": 75}, {"note": 60, "velocity": 113, "duration": 350}, {"note": 0, "velocity": 0, "duration": 250}, {"note": 60, "velocity": 103, "duration": 53}, {"note": 0, "velocity": 0, "duration": 67}, {"note": 60, "velocity": 88, "duration": 53}, {"note": 0, "velocity": 0, "duration": 67}, {"note": 60, "velocity": 113, "duration": 276}, {"note": 0, "velocity": 0, "duration": 84}, {"note": 57, "velocity": 108, "duration": 97}, {"note": 65, "velocity": 113, "duration": 274}, {"note": 62, "velocity": 113, "duration": 592}]]