[[{"note": 74, "velocity": 112, "duration": 97}, {"note": 0, "velocity": 0, "duration": 63}, {"note": 74, "velocity": 96, "duration": 86}, {"note": 0, "velocity": 0, "duration": 74}, {"note": 74, "velocity": 102, "duration": 89}, {"note": 0, "velocity": 0, "duration": 71}, {"note": 74, "velocity": 122, "duration": 131}, {"note": 69, "velocity": 79, "duration": 147}, {"note": 73, "velocity": 107, "duration": 170}, {"note": 71, "velocity": 122, "duration": 795}, {"note": 64, "velocity": 102, "duration": 165}, {"note": 76, "velocity": 117, "duration": 262}, {"note": 73, "velocity": 117, "duration": 106}, {"note": 73, "velocity": 122, "duration": 138}, {"note": 69, "velocity": 86, "duration": 54}, {"note": 0, "velocity": 0, "duration": 106}, {"note": 68, "velocity": 112, "duration": 144}, {"note": 66, "velocity": 95, "duration": 733}, {"note": 0, "velocity": 0, "duration": 227}, {"note": 74, "velocity": 127, "duration": 108}, {"note": 74, "velocity": 112, "duration": 86}, {"note": 0, "velocity": 0, "duration": 74}, {"note": 74, "velocity": 117, "duration": 49}, {"note": 0, "velocity": 0, "duration": 111}, {"note": 74, "velocity": 122, "duration": 130}, {"note": 69, "velocity": 107, "duration": 38}, {"note": 0, "velocity": 0, "duration": 122}, {"note": 66, "velocity": 96, "duration": 156}, {"note": 71, "velocity": 99, "duration": 661}, {"note": 0, "velocity": 0, "duration": 139}, {"note": 64, "velocity": 93, "duration": 162}, {"note": 76, "velocity": 122, "duration": 254}, {"note": 73, "velocity": 117, "duration": 53}, {"note": 0, "velocity": 0, "duration": 66}, {"note": 73, "velocity": 112, "duration": 62}, {"note": 0, "velocity": 0, "duration": 98}, {"note": 73, "velocity": 127, "duration": 151}, {"note": 71, "velocity": 93, "duration": 166}, {"note": 73, "velocity": 117, "duration": 46}, {"note": 0, "velocity": 0, "duration": 114}, {"note": 73, "velocity": 127, "duration": 855}, {"note": 0, "velocity": 0, "duration": 105}, {"note": 74, "velocity": 127, "duration": 125}, {"note": 74, "velocity": 95, "duration": 119}, {"note": 74, "velocity": 107, "duration": 101}, {"note": 74, "velocity": 102, "duration": 125}, {"note": 69, "velocity": 96, "duration": 139}, {"note": 66, "velocity": 112, "duration": 149}, {"note": 71, "velocity": 112, "duration": 365}, {"note": 0, "velocity": 0, "duration": 435}, {"note": 64, "velocity": 86, "duration": 108}, {"note": 76, "velocity": 112, "duration": 181}, {"note": 78, "velocity": 127, "duration": 151}, {"note": 76, "velocity": 127, "duration": 82}, {"note": 0, "velocity": 0, "duration": 78}, {"note": 76, "velocity": 127, "duration": 112}, {"note": 73, "velocity": 127, "duration": 159}, {"note": 71, "velocity": 117, "duration": 173}, {"note": 73, "velocity": 127, "duration": 510}, {"note": 0, "velocity": 0, "duration": 290}, {"note": 66, "velocity": 112, "duration": 145}, {"note": 74, "velocity": 112, "duration": 92}, {"note": 0, "velocity": 0, "duration": 68}, {"note": 74, "velocity": 93, "duration": 103}, {"note": 74, "velocity": 90, "duration": 122}, {"note": 74, "velocity": 122, "duration": 110}, {"note": 69, "velocity": 99, "duration": 152}, {"note": 73, "velocity": 107, "duration": 158}, {"note": 71, "velocity": 112, "duration": 458}, {"note": 0, "velocity": 0, "duration": 342}, {"note": 64, "velocity": 96, "duration": 135}, {"note": 74, "velocity": 127, "duration": 121}, {"note": 74, "velocity": 127, "duration": 221}, {"note": 0, "velocity": 0, "duration": 99}, {"note": 78, "velocity": 127, "duration": 155}, {"note": 76, "velocity": 122, "duration": 146}, {"note": 73, "velocity": 100, "duration": 159}, {"note": 76, "velocity": 122, "duration": 766}, {"note": 78, "velocity": 127, "duration": 173}, {"note": 80, "velocity": 122, "duration": 496}, {"note": 66, "velocity": 127, "duration": 150}, {"note": 69, "velocity": 96, "duration": 176}, {"note": 73, "velocity": 127, "duration": 133}, {"note": 78, "velocity": 127, "duration": 142}, {"note": 78, "velocity": 127, "duration": 133}, {"note": 76, "velocity": 100, "duration": 127}, {"note": 78, "velocity": 127, "duration": 172}, {"note": 0, "velocity": 0, "duration": 148}, {"note": 80, "velocity": 122, "duration": 157}, {"note": 73, "velocity": 127, "duration": 98}, {"note": 0, "velocity": 0, "duration": 382}, {"note": 73, "velocity": 127, "duration": 113}, {"note": 76, "velocity": 122, "duration": 126}, {"note": 73, "velocity": 122, "duration": 101}, {"note": 78, "velocity": 127, "duration": 243}, {"note": 0, "velocity": 0, "duration": 77}, {"note": 76, "velocity": 112, "duration": 114}, {"note": 71, "velocity": 117, "duration": 143}, {"note": 73, "velocity": 127, "duration": 142}, {"note": 76, "velocity": 107, "duration": 148}, {"note": 73, "velocity": 127, "duration": 371}, {"note": 0, "velocity": 0, "duration": 109}, {"note": 73, "velocity": 127, "duration": 95}, {"note": 0, "velocity": 0, "duration": 65}, {"note": 71, "velocity": 127, "duration": 147}, {"note": 69, "velocity": 112, "duration": 174}, {"note": 73, "velocity": 127, "duration": 132}, {"note": 71, "velocity": 99, "duration": 74}, {"note": 0, "velocity": 0, "duration": 86}, {"note": 71, "velocity": 112, "duration": 83}, {"note": 0, "velocity": 0, "duration": 77}, {"note": 71, "velocity": 122, "duration": 89}, {"note": 0, "velocity": 0, "duration": 71}, {"note": 69, "velocity": 122, "duration": 73}, {"note": 71, "velocity": 117, "duration": 96}, {"note": 0, "velocity": 0, "duration": 64}, {"note": 66, "velocity": 127, "duration": 105}, {"note": 71, "velocity": 127, "duration": 318}, {"note": 0, "velocity": 0, "duration": 162}, {"note": 78, "velocity": 127, "duration": 98}, {"note": 0, "velocity": 0, "duration": 62}, {"note": 76, "velocity": 117, "duration": 121}, {"note": 73, "velocity": 127, "duration": 124}, {"note": 78, "velocity": 127, "duration": 99}, {"note": 0, "velocity": 0, "duration": 61}, {"note": 76, "velocity": 112, "duration": 95}, {"note": 0, "velocity": 0, "duration": 65}, {"note": 73, "velocity": 127, "duration": 92}, {"note": 0, "velocity": 0, "duration": 68}, {"note": 78, "velocity": 127, "duration": 111}, {"note": 76, "velocity": 102, "duration": 129}, {"note": 73, "velocity": 122, "duration": 131}, {"note": 76, "velocity": 127, "duration": 421}, {"note": 81, "velocity": 127, "duration": 148}, {"note": 80, "velocity": 122, "duration": 135}, {"note": 81, "velocity": 97, "duration": 150}, {"note": 78, "velocity": 127, "duration": 106}, {"note": 78, "velocity": 127, "duration": 146}, {"note": 76, "velocity": 96, "duration": 145}, {"note": 78, "velocity": 127, "duration": 194}, {"note": 0, "velocity": 0, "duration": 126}, {"note": 80, "velocity": 122, "duration": 136}, {"note": 73, "velocity": 127, "duration": 322}, {"note": 0, "velocity": 0, "duration": 158}, {"note": 73, "velocity": 127, "duration": 109}, {"note": 76, "velocity": 117, "duration": 120}, {"note": 73, "velocity": 127, "duration": 148}, {"note": 78, "velocity": 127, "duration": 143}, {"note": 76, "velocity": 112, "duration": 93}, {"note": 0, "velocity": 0, "duration": 67}, {"note": 76, "velocity": 112, "duration": 126}, {"note": 71, "velocity": 112, "duration": 157}, {"note": 73, "velocity": 100, "duration": 157}, {"note": 76, "velocity": 99, "duration": 147}, {"note": 73, "velocity": 127, "duration": 453}, {"note": 73, "velocity": 127, "duration": 105}, {"note": 71, "velocity": 122, "duration": 145}, {"note": 69, "velocity": 97, "duration": 133}, {"note": 73, "velocity": 127, "duration": 132}, {"note": 71, "velocity": 117, "duration": 119}, {"note": 69, "velocity": 102, "duration": 138}, {"note": 71, "velocity": 127, "duration": 111}, {"note": 71, "velocity": 117, "duration": 107}, {"note": 73, "velocity": 127, "duration": 118}, {"note": 71, "velocity": 127, "duration": 331}, {"note": 0, "velocity": 0, "duration": 149}, {"note": 71, "velocity": 127, "duration": 139}, {"note": 69, "velocity": 122, "duration": 132}, {"note": 66, "velocity": 127, "duration": 86}, {"note": 0, "velocity": 0, "duration": 74}, {"note": 76, "velocity": 127, "duration": 96}, {"note": 0, "velocity": 0, "duration": 64}, {"note": 76, "velocity": 127, "duration": 70}, {"note": 0, "velocity": 0, "duration": 90}, {"note": 76, "velocity": 122, "duration": 99}, {"note": 0, "velocity": 0, "duration": 61}, {"note": 76, "velocity": 122, "duration": 86}, {"note": 0, "velocity": 0, "duration": 234}, {"note": 78, "velocity": 127, "duration": 135}, {"note": 80, "velocity": 127, "duration": 188}, {"note": 0, "velocity": 0, "duration": 292}, {"note": 68, "velocity": 127, "duration": 255}, {"note": 0, "velocity": 0, "duration": 65}, {"note": 69, "velocity": 100, "duration": 159}, {"note": 66, "velocity": 122, "duration": 881}, {"note": 0, "velocity": 0, "duration": 16399}, {"note": 74, "velocity": 112, "duration": 97}, {"note": 0, "velocity": 0, "duration": 63}, {"note": 74, "velocity": 96, "duration": 86}, {"note": 0, "velocity": 0, "duration": 74}, {"note": 74, "velocity": 102, "duration": 89}, {"note": 0, "velocity": 0, "duration": 71}, {"note": 74, "velocity": 122, "duration": 131}, {"note": 69, "velocity": 79, "duration": 147}, {"note": 73, "velocity": 107, "duration": 170}, {"note": 71, "velocity": 122, "duration": 795}, {"note": 64, "velocity": 102, "duration": 165}, {"note": 76, "velocity": 117, "duration": 262}, {"note": 73, "velocity": 117, "duration": 106}, {"note": 73, "velocity": 122, "duration": 138}, {"note": 69, "velocity": 86, "duration": 54}, {"note": 0, "velocity": 0, "duration": 106}, {"note": 68, "velocity": 112, "duration": 144}, {"note": 66, "velocity": 95, "duration": 733}, {"note": 0, "velocity": 0, "duration": 227}, {"note": 74, "velocity": 127, "duration": 108}, {"note": 74, "velocity": 112, "duration": 86}, {"note": 0, "velocity": 0, "duration": 74}, {"note": 74, "velocity": 117, "duration": 49}, {"note": 0, "velocity": 0, "duration": 111}, {"note": 74, "velocity": 122, "duration": 130}, {"note": 69, "velocity": 107, "duration": 38}, {"note": 0, "velocity": 0, "duration": 122}, {"note": 66, "velocity": 96, "duration": 156}, {"note": 71, "velocity": 99, "duration": 661}, {"note": 0, "velocity": 0, "duration": 139}, {"note": 64, "velocity": 93, "duration": 162}, {"note": 76, "velocity": 122, "duration": 254}, {"note": 73, "velocity": 117, "duration": 53}, {"note": 0, "velocity": 0, "duration": 66}, {"note": 73, "velocity": 112, "duration": 62}, {"note": 0, "velocity": 0, "duration": 98}, {"note": 73, "velocity": 127, "duration": 151}, {"note": 71, "velocity": 93, "duration": 166}, {"note": 73, "velocity": 117, "duration": 46}, {"note": 0, "velocity": 0, "duration": 114}, {"note": 73, "velocity": 127, "duration": 855}, {"note": 0, "velocity": 0, "duration": 105}, {"note": 74, "velocity": 127, "duration": 125}, {"note": 74, "velocity": 95, "duration": 119}, {"note": 74, "velocity": 107, "duration": 101}, {"note": 74, "velocity": 102, "duration": 125}, {"note": 69, "velocity": 96, "duration": 139}, {"note": 66, "velocity": 112, "duration": 149}, {"note": 71, "velocity": 112, "duration": 365}, {"note": 0, "velocity": 0, "duration": 435}, {"note": 64, "velocity": 86, "duration": 108}, {"note": 76, "velocity": 112, "duration": 181}, {"note": 78, "velocity": 127, "duration": 151}, {"note": 76, "velocity": 127, "duration": 82}, {"note": 0, "velocity": 0, "duration": 78}, {"note": 76, "velocity": 127, "duration": 112}, {"note": 73, "velocity": 127, "duration": 159}, {"note": 71, "velocity": 117, "duration": 173}, {"note": 73, "velocity": 127, "duration": 510}, {"note": 0, "velocity": 0, "duration": 290}, {"note": 66, "velocity": 112, "duration": 145}, {"note": 74, "velocity": 112, "duration": 92}, {"note": 0, "velocity": 0, "duration": 68}, {"note": 74, "velocity": 93, "duration": 103}, {"note": 74, "velocity": 90, "duration": 122}, {"note": 74, "velocity": 122, "duration": 110}, {"note": 69, "velocity": 99, "duration": 152}, {"note": 73, "velocity": 107, "duration": 158}, {"note": 71, "velocity": 112, "duration": 458}, {"note": 0, "velocity": 0, "duration": 342}, {"note": 64, "velocity": 96, "duration": 135}, {"note": 74, "velocity": 127, "duration": 121}, {"note": 74, "velocity": 127, "duration": 221}, {"note": 0, "velocity": 0, "duration": 99}, {"note": 78, "velocity": 127, "duration": 155}, {"note": 76, "velocity": 122, "duration": 146}, {"note": 73, "velocity": 100, "duration": 159}, {"note": 76, "velocity": 122, "duration": 766}, {"note": 78, "velocity": 127, "duration": 173}, {"note": 80, "velocity": 122, "duration": 496}, {"note": 66, "velocity": 127, "duration": 150}, {"note": 69, "velocity": 96, "duration": 176}, {"note": 73, "velocity": 127, "duration": 133}, {"note": 78, "velocity": 127, "duration": 142}, {"note": 78, "velocity": 127, "duration": 133}, {"note": 76, "velocity": 100, "duration": 127}, {"note": 78, "velocity": 127, "duration": 172}, {"note": 0, "velocity": 0, "duration": 148}, {"note": 80, "velocity": 122, "duration": 157}, {"note": 73, "velocity": 127, "duration": 98}, {"note": 0, "velocity": 0, "duration": 382}, {"note": 73, "velocity": 127, "duration": 113}, {"note": 76, "velocity": 122, "duration": 126}, {"note": 73, "velocity": 122, "duration": 101}, {"note": 78, "velocity": 127, "duration": 243}, {"note": 0, "velocity": 0, "duration": 77}, {"note": 76, "velocity": 112, "duration": 114}, {"note": 71, "velocity": 117, "duration": 143}, {"note": 73, "velocity": 127, "duration": 142}, {"note": 76, "velocity": 107, "duration": 148}, {"note": 73, "velocity": 127, "duration": 371}, {"note": 0, "velocity": 0, "duration": 109}, {"note": 73, "velocity": 127, "duration": 95}, {"note": 0, "velocity": 0, "duration": 65}, {"note": 71, "velocity": 127, "duration": 147}, {"note": 69, "velocity": 112, "duration": 174}, {"note": 73, "velocity": 127, "duration": 132}, {"note": 71, "velocity": 99, "duration": 74}, {"note": 0, "velocity": 0, "duration": 86}, {"note": 71, "velocity": 112, "duration": 83}, {"note": 0, "velocity": 0, "duration": 77}, {"note": 71, "velocity": 122, "duration": 89}, {"note": 0, "velocity": 0, "duration": 71}, {"note": 69, "velocity": 122, "duration": 73}, {"note": 71, "velocity": 117, "duration": 96}, {"note": 0, "velocity": 0, "duration": 64}, {"note": 66, "velocity": 127, "duration": 105}, {"note": 71, "velocity": 127, "duration": 318}, {"note": 0, "velocity": 0, "duration": 162}, {"note": 78, "velocity": 127, "duration": 98}, {"note": 0, "velocity": 0, "duration": 62}, {"note": 76, "velocity": 117, "duration": 121}, {"note": 73, "velocity": 127, "duration": 124}, {"note": 78, "velocity": 127, "duration": 99}, {"note": 0, "velocity": 0, "duration": 61}, {"note": 76, "velocity": 112, "duration": 95}, {"note": 0, "velocity": 0, "duration": 65}, {"note": 73, "velocity": 127, "duration": 92}, {"note": 0, "velocity": 0, "duration": 68}, {"note": 78, "velocity": 127, "duration": 111}, {"note": 76, "velocity": 102, "duration": 129}, {"note": 73, "velocity": 122, "duration": 131}, {"note": 76, "velocity": 127, "duration": 421}, {"note": 81, "velocity": 127, "duration": 148}, {"note": 80, "velocity": 122, "duration": 135}, {"note": 81, "velocity": 97, "duration": 150}, {"note": 78, "velocity": 127, "duration": 106}, {"note": 78, "velocity": 127, "duration": 146}, {"note": 76, "velocity": 96, "duration": 145}, {"note": 78, "velocity": 127, "duration": 194}, {"note": 0, "velocity": 0, "duration": 126}, {"note": 80, "velocity": 122, "duration": 136}, {"note": 73, "velocity": 127, "duration": 322}, {"note": 0, "velocity": 0, "duration": 158}, {"note": 73, "velocity": 127, "duration": 109}, {"note": 76, "velocity": 117, "duration": 120}, {"note": 73, "velocity": 127, "duration": 148}, {"note": 78, "velocity": 127, "duration": 143}, {"note": 76, "velocity": 112, "duration": 93}, {"note": 0, "velocity": 0, "duration": 67}, {"note": 76, "velocity": 112, "duration": 126}, {"note": 71, "velocity": 112, "duration": 157}, {"note": 73, "velocity": 100, "duration": 157}, {"note": 76, "velocity": 99, "duration": 147}, {"note": 73, "velocity": 127, "duration": 453}, {"note": 73, "velocity": 127, "duration": 105}, {"note": 71, "velocity": 122, "duration": 145}, {"note": 69, "velocity": 97, "duration": 133}, {"note": 73, "velocity": 127, "duration": 132}, {"note": 71, "velocity": 117, "duration": 119}, {"note": 69, "velocity": 102, "duration": 138}, {"note": 71, "velocity": 127, "duration": 111}, {"note": 71, "velocity": 117, "duration": 107}, {"note": 73, "velocity": 127, "duration": 118}, {"note": 71, "velocity": 127, "duration": 331}, {"note": 0, "velocity": 0, "duration": 149}, {"note": 71, "velocity": 127, "duration": 139}, {"note": 69, "velocity": 122, "duration": 132}, {"note": 66, "velocity": 127, "duration": 86}, {"note": 0, "velocity": 0, "duration": 74}, {"note": 76, "velocity": 127, "duration": 96}, {"note": 0, "velocity": 0, "duration": 64}, {"note": 76, "velocity": 127, "duration": 70}, {"note": 0, "velocity": 0, "duration": 90}, {"note": 76, "velocity": 122, "duration": 99}, {"note": 0, "velocity": 0, "duration": 61}, {"note": 76, "velocity": 122, "duration": 86}, {"note": 0, "velocity": 0, "duration": 234}, {"note": 78, "velocity": 127, "duration": 135}, {"note": 80, "velocity": 127, "duration": 188}, {"note": 0, "velocity": 0, "duration": 292}, {"note": 68, "velocity": 127, "duration": 255}, {"note": 0, "velocity": 0, "duration": 65}, {"note": 69, "velocity": 100, "duration": 159}, {"note": 66, "velocity": 122, "duration": 881}, {"note": 0, "velocity": 0, "duration": 559}, {"note": 66, "velocity": 127, "duration": 150}, {"note": 69, "velocity": 96, "duration": 176}, {"note": 73, "velocity": 127, "duration": 133}, {"note": 78, "velocity": 127, "duration": 142}, {"note": 78, "velocity": 127, "duration": 133}, {"note": 76, "velocity": 100, "duration": 127}, {"note": 78, "velocity": 127, "duration": 172}, {"note": 0, "velocity": 0, "duration": 148}, {"note": 80, "velocity": 122, "duration": 157}, {"note": 73, "velocity": 127, "duration": 98}, {"note": 0, "velocity": 0, "duration": 382}, {"note": 73, "velocity": 127, "duration": 113}, {"note": 76, "velocity": 122, "duration": 126}, {"note": 73, "velocity": 122, "duration": 101}, {"note": 78, "velocity": 127, "duration": 243}, {"note": 0, "velocity": 0, "duration": 77}, {"note": 76, "velocity": 112, "duration": 114}, {"note": 71, "velocity": 117, "duration": 143}, {"note": 73, "velocity": 127, "duration": 142}, {"note": 76, "velocity": 107, "duration": 148}, {"note": 73, "velocity": 127, "duration": 371}, {"note": 0, "velocity": 0, "duration": 109}, {"note": 73, "velocity": 127, "duration": 95}, {"note": 0, "velocity": 0, "duration": 65}, {"note": 71, "velocity": 127, "duration": 147}, {"note": 69, "velocity": 112, "duration": 174}, {"note": 73, "velocity": 127, "duration": 132}, {"note": 71, "velocity": 99, "duration": 74}, {"note": 0, "velocity": 0, "duration": 86}, {"note": 71, "velocity": 112, "duration": 83}, {"note": 0, "velocity": 0, "duration": 77}, {"note": 71, "velocity": 122, "duration": 89}, {"note": 0, "velocity": 0, "duration": 71}, {"note": 69, "velocity": 122, "duration": 73}, {"note": 71, "velocity": 117, "duration": 96}, {"note": 0, "velocity": 0, "duration": 64}, {"note": 66, "velocity": 127, "duration": 105}, {"note": 71, "velocity": 127, "duration": 318}, {"note": 0, "velocity": 0, "duration": 162}, {"note": 78, "velocity": 127, "duration": 98}, {"note": 0, "velocity": 0, "duration": 62}, {"note": 76, "velocity": 117, "duration": 121}, {"note": 73, "velocity": 127, "duration": 124}, {"note": 78, "velocity": 127, "duration": 99}, {"note": 0, "velocity": 0, "duration": 61}, {"note": 76, "velocity": 112, "duration": 95}, {"note": 0, "velocity": 0, "duration": 65}, {"note": 73, "velocity": 127, "duration": 92}, {"note": 0, "velocity": 0, "duration": 68}, {"note": 78, "velocity": 127, "duration": 111}, {"note": 76, "velocity": 102, "duration": 129}, {"note": 73, "velocity": 122, "duration": 131}, {"note": 76, "velocity": 127, "duration": 421}, {"note": 81, "velocity": 127, "duration": 148}, {"note": 80, "velocity": 122, "duration": 135}, {"note": 81, "velocity": 97, "duration": 150}, {"note": 78, "velocity": 127, "duration": 106}, {"note": 78, "velocity": 127, "duration": 146}, {"note": 76, "velocity": 96, "duration": 145}, {"note": 78, "velocity": 127, "duration": 194}, {"note": 0, "velocity": 0, "duration": 126}, {"note": 80, "velocity": 122, "duration": 136}, {"note": 73, "velocity": 127, "duration": 322}, {"note": 0, "velocity": 0, "duration": 158}, {"note": 73, "velocity": 127, "duration": 109}, {"note": 76, "velocity": 117, "duration": 120}, {"note": 73, "velocity": 127, "duration": 148}, {"note": 78, "velocity": 127, "duration": 143}, {"note": 76, "velocity": 112, "duration": 93}, {"note": 0, "velocity": 0, "duration": 67}, {"note": 76, "velocity": 112, "duration": 126}, {"note": 71, "velocity": 112, "duration": 157}, {"note": 73, "velocity": 100, "duration": 157}, {"note": 76, "velocity": 99, "duration": 147}, {"note": 73, "velocity": 127, "duration": 453}, {"note": 73, "velocity": 127, "duration": 105}, {"note": 71, "velocity": 122, "duration": 145}, {"note": 69, "velocity": 97, "duration": 133}, {"note": 73, "velocity": 127, "duration": 132}, {"note": 71, "velocity": 117, "duration": 119}, {"note": 69, "velocity": 102, "duration": 138}, {"note": 71, "velocity": 127, "duration": 111}, {"note": 71, "velocity": 117, "duration": 107}, {"note": 73, "velocity": 127, "duration": 118}, {"note": 71, "velocity": 127, "duration": 331}, {"note": 0, "velocity": 0, "duration": 149}, {"note": 71, "velocity": 127, "duration": 139}, {"note": 69, "velocity": 122, "duration": 132}, {"note": 66, "velocity": 127, "duration": 86}, {"note": 0, "velocity": 0, "duration": 74}, {"note": 76, "velocity": 127, "duration": 96}, {"note": 0, "velocity": 0, "duration": 64}, {"note": 76, "velocity": 127, "duration": 70}, {"note": 0, "velocity": 0, "duration": 90}, {"note": 76, "velocity": 122, "duration": 99}, {"note": 0, "velocity": 0, "duration": 61}, {"note": 76, "velocity": 122, "duration": 86}, {"note": 0, "velocity": 0, "duration": 234}, {"note": 78, "velocity": 127, "duration": 135}, {"note": 80, "velocity": 127, "duration": 188}, {"note": 0, "velocity": 0, "duration": 292}, {"note": 68, "velocity": 127, "duration": 255}, {"note": 0, "velocity": 0, "duration": 65}, {"note": 69, "velocity": 100, "duration": 159}, {"note": 66, "velocity": 122, "duration": 881}]]