[[{"note": 62, "velocity": 100, "duration": 555}, {"note": 0, "velocity": 0, "duration": 165}, {"note": 62, "velocity": 90, "duration": 126}, {"note": 0, "velocity": 0, "duration": 114}, {"note": 62, "velocity": 93, "duration": 283}, {"note": 60, "velocity": 56, "duration": 449}, {"note": 0, "velocity": 0, "duration": 271}, {"note": 62, "velocity": 76, "duration": 598}, {"note": 0, "velocity": 0, "duration": 122}, {"note": 62, "velocity": 66, "duration": 65}, {"note": 62, "velocity": 71, "duration": 240}, {"note": 0, "velocity": 0, "duration": 120}, {"note": 59, "velocity": 67, "duration": 566}, {"note": 0, "velocity": 0, "duration": 154}, {"note": 62, "velocity": 78, "duration": 209}, {"note": 55, "velocity": 46, "duration": 62}, {"note": 55, "velocity": 67, "duration": 330}, {"note": 62, "velocity": 65, "duration": 295}, {"note": 60, "velocity": 72, "duration": 245}, {"note": 59, "velocity": 69, "duration": 356}, {"note": 0, "velocity": 0, "duration": 244}, {"note": 55, "velocity": 42, "duration": 132}, {"note": 57, "velocity": 73, "duration": 219}, {"note": 59, "velocity": 71, "duration": 1437}, {"note": 0, "velocity": 0, "duration": 243}, {"note": 62, "velocity": 97, "duration": 564}, {"note": 0, "velocity": 0, "duration": 156}, {"note": 62, "velocity": 75, "duration": 54}, {"note": 0, "velocity": 0, "duration": 66}, {"note": 62, "velocity": 85, "duration": 238}, {"note": 60, "velocity": 85, "duration": 753}, {"note": 0, "velocity": 0, "duration": 87}, {"note": 69, "velocity": 93, "duration": 557}, {"note": 0, "velocity": 0, "duration": 163}, {"note": 69, "velocity": 92, "duration": 60}, {"note": 69, "velocity": 93, "duration": 199}, {"note": 67, "velocity": 88, "duration": 611}, {"note": 0, "velocity": 0, "duration": 229}, {"note": 62, "velocity": 82, "duration": 212}, {"note": 55, "velocity": 66, "duration": 83}, {"note": 55, "velocity": 74, "duration": 291}, {"note": 0, "velocity": 0, "duration": 69}, {"note": 62, "velocity": 88, "duration": 188}, {"note": 60, "velocity": 74, "duration": 256}, {"note": 59, "velocity": 68, "duration": 232}, {"note": 57, "velocity": 53, "duration": 233}, {"note": 55, "velocity": 77, "duration": 266}, {"note": 55, "velocity": 79, "duration": 26}, {"note": 0, "velocity": 0, "duration": 1894}, {"note": 67, "velocity": 90, "duration": 853}, {"note": 0, "velocity": 0, "duration": 107}, {"note": 66, "velocity": 99, "duration": 140}, {"note": 67, "velocity": 69, "duration": 131}, {"note": 66, "velocity": 96, "duration": 135}, {"note": 62, "velocity": 89, "duration": 559}, {"note": 64, "velocity": 89, "duration": 128}, {"note": 62, "velocity": 73, "duration": 100}, {"note": 59, "velocity": 67, "duration": 138}, {"note": 64, "velocity": 73, "duration": 131}, {"note": 62, "velocity": 73, "duration": 161}, {"note": 0, "velocity": 0, "duration": 79}, {"note": 57, "velocity": 74, "duration": 109}, {"note": 59, "velocity": 82, "duration": 875}, {"note": 0, "velocity": 0, "duration": 205}, {"note": 60, "velocity": 95, "duration": 242}, {"note": 59, "velocity": 78, "duration": 117}, {"note": 60, "velocity": 97, "duration": 218}, {"note": 67, "velocity": 95, "duration": 290}, {"note": 0, "velocity": 0, "duration": 70}, {"note": 66, "velocity": 122, "duration": 188}, {"note": 67, "velocity": 92, "duration": 104}, {"note": 66, "velocity": 100, "duration": 244}, {"note": 0, "velocity": 0, "duration": 116}, {"note": 62, "velocity": 95, "duration": 185}, {"note": 59, "velocity": 95, "duration": 941}, {"note": 0, "velocity": 0, "duration": 979}, {"note": 67, "velocity": 83, "duration": 794}, {"note": 0, "velocity": 0, "duration": 166}, {"note": 66, "velocity": 112, "duration": 141}, {"note": 67, "velocity": 81, "duration": 119}, {"note": 66, "velocity": 102, "duration": 117}, {"note": 62, "velocity": 95, "duration": 289}, {"note": 0, "velocity": 0, "duration": 191}, {"note": 62, "velocity": 92, "duration": 106}, {"note": 71, "velocity": 97, "duration": 225}, {"note": 69, "velocity": 89, "duration": 65}, {"note": 69, "velocity": 93, "duration": 269}, {"note": 67, "velocity": 96, "duration": 212}, {"note": 64, "velocity": 96, "duration": 444}, {"note": 0, "velocity": 0, "duration": 396}, {"note": 64, "velocity": 82, "duration": 102}, {"note": 66, "velocity": 89, "duration": 79}, {"note": 67, "velocity": 83, "duration": 338}, {"note": 64, "velocity": 90, "duration": 382}, {"note": 64, "velocity": 81, "duration": 22}, {"note": 0, "velocity": 0, "duration": 98}, {"note": 66, "velocity": 73, "duration": 77}, {"note": 67, "velocity": 89, "duration": 313}, {"note": 62, "velocity": 97, "duration": 391}, {"note": 62, "velocity": 95, "duration": 31}, {"note": 0, "velocity": 0, "duration": 89}, {"note": 69, "velocity": 95, "duration": 1292}, {"note": 59, "velocity": 89, "duration": 215}, {"note": 60, "velocity": 96, "duration": 233}, {"note": 62, "velocity": 96, "duration": 245}, {"note": 64, "velocity": 86, "duration": 487}, {"note": 71, "velocity": 102, "duration": 393}, {"note": 0, "velocity": 0, "duration": 87}, {"note": 69, "velocity": 100, "duration": 159}, {"note": 0, "velocity": 0, "duration": 81}, {"note": 67, "velocity": 92, "duration": 86}, {"note": 66, "velocity": 100, "duration": 355}, {"note": 64, "velocity": 100, "duration": 109}, {"note": 62, "velocity": 92, "duration": 151}, {"note": 69, "velocity": 117, "duration": 158}, {"note": 0, "velocity": 0, "duration": 82}, {"note": 69, "velocity": 100, "duration": 53}, {"note": 0, "velocity": 0, "duration": 67}, {"note": 69, "velocity": 122, "duration": 238}, {"note": 62, "velocity": 95, "duration": 211}, {"note": 67, "velocity": 99, "duration": 439}, {"note": 0, "velocity": 0, "duration": 161}, {"note": 59, "velocity": 95, "duration": 143}, {"note": 60, "velocity": 90, "duration": 192}, {"note": 62, "velocity": 79, "duration": 131}, {"note": 60, "velocity": 112, "duration": 435}, {"note": 67, "velocity": 96, "duration": 396}, {"note": 0, "velocity": 0, "duration": 84}, {"note": 66, "velocity": 107, "duration": 252}, {"note": 67, "velocity": 75, "duration": 124}, {"note": 66, "velocity": 102, "duration": 268}, {"note": 0, "velocity": 0, "duration": 92}, {"note": 59, "velocity": 100, "duration": 191}, {"note": 69, "velocity": 122, "duration": 211}, {"note": 67, "velocity": 112, "duration": 83}, {"note": 67, "velocity": 102, "duration": 814}, {"note": 0, "velocity": 0, "duration": 266}, {"note": 59, "velocity": 102, "duration": 156}, {"note": 60, "velocity": 96, "duration": 151}, {"note": 0, "velocity": 0, "duration": 89}, {"note": 62, "velocity": 97, "duration": 169}, {"note": 64, "velocity": 100, "duration": 495}, {"note": 71, "velocity": 112, "duration": 267}, {"note": 0, "velocity": 0, "duration": 213}, {"note": 69, "velocity": 102, "duration": 137}, {"note": 0, "velocity": 0, "duration": 103}, {"note": 67, "velocity": 95, "duration": 67}, {"note": 66, "velocity": 99, "duration": 185}, {"note": 64, "velocity": 107, "duration": 247}, {"note": 62, "velocity": 92, "duration": 129}, {"note": 69, "velocity": 100, "duration": 165}, {"note": 0, "velocity": 0, "duration": 75}, {"note": 69, "velocity": 112, "duration": 60}, {"note": 69, "velocity": 85, "duration": 161}, {"note": 0, "velocity": 0, "duration": 79}, {"note": 62, "velocity": 100, "duration": 215}, {"note": 67, "velocity": 79, "duration": 269}, {"note": 0, "velocity": 0, "duration": 338}, {"note": 59, "velocity": 90, "duration": 126}, {"note": 60, "velocity": 99, "duration": 101}, {"note": 0, "velocity": 0, "duration": 68}, {"note": 62, "velocity": 83, "duration": 75}, {"note": 0, "velocity": 0, "duration": 71}, {"note": 60, "velocity": 112, "duration": 470}, {"note": 67, "velocity": 112, "duration": 359}, {"note": 0, "velocity": 0, "duration": 121}, {"note": 66, "velocity": 112, "duration": 154}, {"note": 0, "velocity": 0, "duration": 86}, {"note": 67, "velocity": 88, "duration": 96}, {"note": 66, "velocity": 112, "duration": 292}, {"note": 0, "velocity": 0, "duration": 68}, {"note": 62, "velocity": 96, "duration": 136}, {"note": 64, "velocity": 97, "duration": 1472}, {"note": 0, "velocity": 0, "duration": 8248}, {"note": 62, "velocity": 104, "duration": 555}, {"note": 0, "velocity": 0, "duration": 165}, {"note": 62, "velocity": 110, "duration": 126}, {"note": 62, "velocity": 109, "duration": 283}, {"note": 60, "velocity": 107, "duration": 450}, {"note": 0, "velocity": 0, "duration": 397}, {"note": 62, "velocity": 104, "duration": 598}, {"note": 0, "velocity": 0, "duration": 122}, {"note": 62, "velocity": 97, "duration": 65}, {"note": 62, "velocity": 96, "duration": 240}, {"note": 59, "velocity": 93, "duration": 566}, {"note": 0, "velocity": 0, "duration": 255}, {"note": 62, "velocity": 97, "duration": 209}, {"note": 55, "velocity": 100, "duration": 62}, {"note": 55, "velocity": 100, "duration": 330}, {"note": 62, "velocity": 102, "duration": 296}, {"note": 60, "velocity": 101, "duration": 245}, {"note": 59, "velocity": 99, "duration": 356}, {"note": 0, "velocity": 0, "duration": 244}, {"note": 55, "velocity": 94, "duration": 132}, {"note": 57, "velocity": 93, "duration": 219}, {"note": 59, "velocity": 92, "duration": 720}, {"note": 60, "velocity": 111, "duration": 235}, {"note": 59, "velocity": 96, "duration": 249}, {"note": 57, "velocity": 93, "duration": 283}, {"note": 55, "velocity": 90, "duration": 227}, {"note": 62, "velocity": 101, "duration": 564}, {"note": 0, "velocity": 0, "duration": 156}, {"note": 62, "velocity": 79, "duration": 54}, {"note": 0, "velocity": 0, "duration": 66}, {"note": 62, "velocity": 89, "duration": 238}, {"note": 60, "velocity": 89, "duration": 753}, {"note": 0, "velocity": 0, "duration": 87}, {"note": 69, "velocity": 93, "duration": 557}, {"note": 0, "velocity": 0, "duration": 163}, {"note": 69, "velocity": 92, "duration": 60}, {"note": 69, "velocity": 93, "duration": 199}, {"note": 67, "velocity": 86, "duration": 611}, {"note": 0, "velocity": 0, "duration": 229}, {"note": 62, "velocity": 96, "duration": 212}, {"note": 55, "velocity": 98, "duration": 83}, {"note": 55, "velocity": 98, "duration": 291}, {"note": 0, "velocity": 0, "duration": 69}, {"note": 62, "velocity": 100, "duration": 188}, {"note": 60, "velocity": 100, "duration": 256}, {"note": 59, "velocity": 100, "duration": 232}, {"note": 57, "velocity": 100, "duration": 233}, {"note": 59, "velocity": 100, "duration": 266}, {"note": 57, "velocity": 100, "duration": 266}, {"note": 55, "velocity": 79, "duration": 1214}, {"note": 0, "velocity": 0, "duration": 466}, {"note": 67, "velocity": 90, "duration": 853}, {"note": 0, "velocity": 0, "duration": 107}, {"note": 66, "velocity": 99, "duration": 140}, {"note": 67, "velocity": 69, "duration": 131}, {"note": 66, "velocity": 96, "duration": 135}, {"note": 62, "velocity": 89, "duration": 559}, {"note": 64, "velocity": 89, "duration": 128}, {"note": 62, "velocity": 73, "duration": 100}, {"note": 59, "velocity": 67, "duration": 138}, {"note": 64, "velocity": 73, "duration": 131}, {"note": 62, "velocity": 73, "duration": 161}, {"note": 0, "velocity": 0, "duration": 79}, {"note": 57, "velocity": 74, "duration": 109}, {"note": 59, "velocity": 82, "duration": 1080}, {"note": 60, "velocity": 95, "duration": 242}, {"note": 59, "velocity": 78, "duration": 117}, {"note": 60, "velocity": 97, "duration": 218}, {"note": 67, "velocity": 95, "duration": 290}, {"note": 0, "velocity": 0, "duration": 70}, {"note": 66, "velocity": 122, "duration": 188}, {"note": 67, "velocity": 92, "duration": 104}, {"note": 66, "velocity": 100, "duration": 244}, {"note": 0, "velocity": 0, "duration": 116}, {"note": 62, "velocity": 95, "duration": 185}, {"note": 59, "velocity": 95, "duration": 634}, {"note": 64, "velocity": 92, "duration": 205}, {"note": 64, "velocity": 96, "duration": 125}, {"note": 62, "velocity": 97, "duration": 630}, {"note": 0, "velocity": 0, "duration": 330}, {"note": 67, "velocity": 83, "duration": 794}, {"note": 0, "velocity": 0, "duration": 166}, {"note": 66, "velocity": 112, "duration": 141}, {"note": 67, "velocity": 81, "duration": 119}, {"note": 66, "velocity": 102, "duration": 117}, {"note": 62, "velocity": 95, "duration": 289}, {"note": 0, "velocity": 0, "duration": 191}, {"note": 62, "velocity": 92, "duration": 106}, {"note": 71, "velocity": 97, "duration": 225}, {"note": 69, "velocity": 89, "duration": 65}, {"note": 69, "velocity": 93, "duration": 269}, {"note": 67, "velocity": 96, "duration": 212}, {"note": 64, "velocity": 96, "duration": 444}, {"note": 0, "velocity": 0, "duration": 396}, {"note": 64, "velocity": 82, "duration": 102}, {"note": 66, "velocity": 89, "duration": 79}, {"note": 67, "velocity": 83, "duration": 338}, {"note": 64, "velocity": 90, "duration": 382}, {"note": 64, "velocity": 81, "duration": 22}, {"note": 0, "velocity": 0, "duration": 98}, {"note": 66, "velocity": 73, "duration": 77}, {"note": 67, "velocity": 89, "duration": 313}, {"note": 62, "velocity": 97, "duration": 391}, {"note": 62, "velocity": 95, "duration": 31}, {"note": 0, "velocity": 0, "duration": 89}, {"note": 69, "velocity": 95, "duration": 1292}, {"note": 59, "velocity": 89, "duration": 215}, {"note": 60, "velocity": 96, "duration": 233}, {"note": 62, "velocity": 96, "duration": 245}, {"note": 64, "velocity": 86, "duration": 487}, {"note": 71, "velocity": 102, "duration": 393}, {"note": 0, "velocity": 0, "duration": 87}, {"note": 69, "velocity": 100, "duration": 159}, {"note": 0, "velocity": 0, "duration": 81}, {"note": 67, "velocity": 92, "duration": 86}, {"note": 66, "velocity": 100, "duration": 355}, {"note": 64, "velocity": 100, "duration": 109}, {"note": 62, "velocity": 92, "duration": 151}, {"note": 69, "velocity": 117, "duration": 158}, {"note": 0, "velocity": 0, "duration": 82}, {"note": 69, "velocity": 100, "duration": 53}, {"note": 0, "velocity": 0, "duration": 67}, {"note": 69, "velocity": 122, "duration": 238}, {"note": 62, "velocity": 95, "duration": 211}, {"note": 67, "velocity": 99, "duration": 439}, {"note": 0, "velocity": 0, "duration": 161}, {"note": 59, "velocity": 95, "duration": 143}, {"note": 60, "velocity": 90, "duration": 192}, {"note": 62, "velocity": 79, "duration": 131}, {"note": 60, "velocity": 112, "duration": 435}, {"note": 67, "velocity": 96, "duration": 396}, {"note": 0, "velocity": 0, "duration": 84}, {"note": 66, "velocity": 107, "duration": 252}, {"note": 67, "velocity": 75, "duration": 124}, {"note": 66, "velocity": 102, "duration": 268}, {"note": 0, "velocity": 0, "duration": 92}, {"note": 59, "velocity": 100, "duration": 191}, {"note": 69, "velocity": 122, "duration": 211}, {"note": 67, "velocity": 112, "duration": 83}, {"note": 67, "velocity": 102, "duration": 814}, {"note": 0, "velocity": 0, "duration": 266}, {"note": 59, "velocity": 102, "duration": 156}, {"note": 60, "velocity": 96, "duration": 151}, {"note": 0, "velocity": 0, "duration": 89}, {"note": 62, "velocity": 97, "duration": 169}, {"note": 64, "velocity": 100, "duration": 495}, {"note": 71, "velocity": 112, "duration": 267}, {"note": 0, "velocity": 0, "duration": 213}, {"note": 69, "velocity": 102, "duration": 137}, {"note": 0, "velocity": 0, "duration": 103}, {"note": 67, "velocity": 95, "duration": 67}, {"note": 66, "velocity": 99, "duration": 185}, {"note": 64, "velocity": 107, "duration": 247}, {"note": 62, "velocity": 92, "duration": 129}, {"note": 69, "velocity": 100, "duration": 165}, {"note": 0, "velocity": 0, "duration": 75}, {"note": 69, "velocity": 112, "duration": 60}, {"note": 69, "velocity": 85, "duration": 161}, {"note": 0, "velocity": 0, "duration": 79}, {"note": 62, "velocity": 100, "duration": 215}, {"note": 67, "velocity": 79, "duration": 269}, {"note": 0, "velocity": 0, "duration": 338}, {"note": 59, "velocity": 90, "duration": 126}, {"note": 60, "velocity": 99, "duration": 101}, {"note": 0, "velocity": 0, "duration": 68}, {"note": 62, "velocity": 83, "duration": 75}, {"note": 0, "velocity": 0, "duration": 71}, {"note": 60, "velocity": 112, "duration": 470}, {"note": 67, "velocity": 112, "duration": 359}, {"note": 0, "velocity": 0, "duration": 121}, {"note": 66, "velocity": 112, "duration": 154}, {"note": 0, "velocity": 0, "duration": 86}, {"note": 67, "velocity": 88, "duration": 96}, {"note": 66, "velocity": 112, "duration": 292}, {"note": 0, "velocity": 0, "duration": 68}, {"note": 62, "velocity": 96, "duration": 136}, {"note": 64, "velocity": 97, "duration": 1472}, {"note": 0, "velocity": 0, "duration": 10408}, {"note": 59, "velocity": 89, "duration": 215}, {"note": 60, "velocity": 96, "duration": 233}, {"note": 62, "velocity": 96, "duration": 245}, {"note": 64, "velocity": 86, "duration": 487}, {"note": 71, "velocity": 102, "duration": 393}, {"note": 0, "velocity": 0, "duration": 87}, {"note": 69, "velocity": 100, "duration": 159}, {"note": 0, "velocity": 0, "duration": 81}, {"note": 67, "velocity": 92, "duration": 86}, {"note": 66, "velocity": 100, "duration": 355}, {"note": 64, "velocity": 100, "duration": 109}, {"note": 62, "velocity": 92, "duration": 151}, {"note": 69, "velocity": 117, "duration": 158}, {"note": 0, "velocity": 0, "duration": 82}, {"note": 69, "velocity": 100, "duration": 53}, {"note": 0, "velocity": 0, "duration": 67}, {"note": 69, "velocity": 122, "duration": 238}, {"note": 62, "velocity": 95, "duration": 211}, {"note": 67, "velocity": 99, "duration": 439}, {"note": 0, "velocity": 0, "duration": 161}, {"note": 59, "velocity": 95, "duration": 143}, {"note": 60, "velocity": 90, "duration": 192}, {"note": 62, "velocity": 79, "duration": 131}, {"note": 60, "velocity": 112, "duration": 435}, {"note": 67, "velocity": 96, "duration": 396}, {"note": 0, "velocity": 0, "duration": 84}, {"note": 66, "velocity": 107, "duration": 252}, {"note": 67, "velocity": 75, "duration": 124}, {"note": 66, "velocity": 102, "duration": 268}, {"note": 0, "velocity": 0, "duration": 92}, {"note": 59, "velocity": 100, "duration": 191}, {"note": 69, "velocity": 122, "duration": 211}, {"note": 67, "velocity": 112, "duration": 83}, {"note": 67, "velocity": 102, "duration": 814}, {"note": 0, "velocity": 0, "duration": 266}, {"note": 76, "velocity": 127, "duration": 157}, {"note": 74, "velocity": 117, "duration": 151}, {"note": 0, "velocity": 0, "duration": 89}, {"note": 69, "velocity": 112, "duration": 130}, {"note": 67, "velocity": 100, "duration": 422}, {"note": 71, "velocity": 112, "duration": 267}, {"note": 69, "velocity": 112, "duration": 174}, {"note": 0, "velocity": 0, "duration": 66}, {"note": 74, "velocity": 107, "duration": 200}, {"note": 71, "velocity": 107, "duration": 91}, {"note": 69, "velocity": 97, "duration": 163}, {"note": 0, "velocity": 0, "duration": 77}, {"note": 67, "velocity": 112, "duration": 194}, {"note": 0, "velocity": 0, "duration": 166}, {"note": 69, "velocity": 100, "duration": 165}, {"note": 0, "velocity": 0, "duration": 75}, {"note": 69, "velocity": 112, "duration": 60}, {"note": 69, "velocity": 85, "duration": 161}, {"note": 0, "velocity": 0, "duration": 79}, {"note": 71, "velocity": 122, "duration": 162}, {"note": 0, "velocity": 0, "duration": 78}, {"note": 67, "velocity": 79, "duration": 491}, {"note": 0, "velocity": 0, "duration": 116}, {"note": 59, "velocity": 90, "duration": 126}, {"note": 60, "velocity": 99, "duration": 101}, {"note": 0, "velocity": 0, "duration": 68}, {"note": 62, "velocity": 83, "duration": 75}, {"note": 0, "velocity": 0, "duration": 71}, {"note": 60, "velocity": 112, "duration": 470}, {"note": 67, "velocity": 112, "duration": 359}, {"note": 0, "velocity": 0, "duration": 121}, {"note": 66, "velocity": 112, "duration": 154}, {"note": 0, "velocity": 0, "duration": 86}, {"note": 67, "velocity": 88, "duration": 96}, {"note": 66, "velocity": 112, "duration": 292}, {"note": 0, "velocity": 0, "duration": 68}, {"note": 62, "velocity": 96, "duration": 136}, {"note": 64, "velocity": 97, "duration": 1472}]]