[[{"note": 59, "velocity": 102, "duration": 57}, {"note": 0, "velocity": 0, "duration": 63}, {"note": 59, "velocity": 66, "duration": 50}, {"note": 0, "velocity": 0, "duration": 70}, {"note": 59, "velocity": 92, "duration": 53}, {"note": 0, "velocity": 0, "duration": 67}, {"note": 59, "velocity": 74, "duration": 51}, {"note": 0, "velocity": 0, "duration": 69}, {"note": 59, "velocity": 100, "duration": 155}, {"note": 0, "velocity": 0, "duration": 85}, {"note": 66, "velocity": 117, "duration": 116}, {"note": 64, "velocity": 81, "duration": 122}, {"note": 62, "velocity": 100, "duration": 834}, {"note": 0, "velocity": 0, "duration": 126}, {"note": 61, "velocity": 117, "duration": 36}, {"note": 0, "velocity": 0, "duration": 84}, {"note": 61, "velocity": 97, "duration": 53}, {"note": 0, "velocity": 0, "duration": 67}, {"note": 61, "velocity": 93, "duration": 58}, {"note": 0, "velocity": 0, "duration": 62}, {"note": 61, "velocity": 92, "duration": 64}, {"note": 61, "velocity": 107, "duration": 112}, {"note": 59, "velocity": 85, "duration": 105}, {"note": 57, "velocity": 96, "duration": 248}, {"note": 59, "velocity": 96, "duration": 601}, {"note": 0, "velocity": 0, "duration": 359}, {"note": 59, "velocity": 93, "duration": 50}, {"note": 0, "velocity": 0, "duration": 70}, {"note": 59, "velocity": 86, "duration": 48}, {"note": 0, "velocity": 0, "duration": 72}, {"note": 59, "velocity": 88, "duration": 51}, {"note": 0, "velocity": 0, "duration": 69}, {"note": 59, "velocity": 100, "duration": 51}, {"note": 0, "velocity": 0, "duration": 69}, {"note": 59, "velocity": 100, "duration": 107}, {"note": 0, "velocity": 0, "duration": 133}, {"note": 66, "velocity": 117, "duration": 129}, {"note": 64, "velocity": 88, "duration": 123}, {"note": 62, "velocity": 100, "duration": 729}, {"note": 0, "velocity": 0, "duration": 231}, {"note": 64, "velocity": 93, "duration": 50}, {"note": 0, "velocity": 0, "duration": 70}, {"note": 64, "velocity": 89, "duration": 47}, {"note": 0, "velocity": 0, "duration": 73}, {"note": 64, "velocity": 92, "duration": 47}, {"note": 0, "velocity": 0, "duration": 73}, {"note": 64, "velocity": 92, "duration": 46}, {"note": 0, "velocity": 0, "duration": 74}, {"note": 64, "velocity": 99, "duration": 142}, {"note": 0, "velocity": 0, "duration": 98}, {"note": 69, "velocity": 117, "duration": 122}, {"note": 67, "velocity": 89, "duration": 131}, {"note": 66, "velocity": 95, "duration": 733}, {"note": 0, "velocity": 0, "duration": 227}, {"note": 66, "velocity": 127, "duration": 191}, {"note": 71, "velocity": 102, "duration": 154}, {"note": 0, "velocity": 0, "duration": 86}, {"note": 71, "velocity": 107, "duration": 63}, {"note": 66, "velocity": 96, "duration": 352}, {"note": 64, "velocity": 96, "duration": 711}, {"note": 0, "velocity": 0, "duration": 249}, {"note": 69, "velocity": 102, "duration": 207}, {"note": 66, "velocity": 99, "duration": 229}, {"note": 64, "velocity": 95, "duration": 111}, {"note": 66, "velocity": 102, "duration": 345}, {"note": 59, "velocity": 96, "duration": 581}, {"note": 0, "velocity": 0, "duration": 379}, {"note": 59, "velocity": 117, "duration": 131}, {"note": 64, "velocity": 90, "duration": 147}, {"note": 0, "velocity": 0, "duration": 93}, {"note": 64, "velocity": 93, "duration": 58}, {"note": 0, "velocity": 0, "duration": 62}, {"note": 64, "velocity": 107, "duration": 158}, {"note": 0, "velocity": 0, "duration": 82}, {"note": 62, "velocity": 99, "duration": 78}, {"note": 64, "velocity": 89, "duration": 59}, {"note": 0, "velocity": 0, "duration": 61}, {"note": 66, "velocity": 112, "duration": 170}, {"note": 0, "velocity": 0, "duration": 70}, {"note": 64, "velocity": 100, "duration": 225}, {"note": 62, "velocity": 96, "duration": 161}, {"note": 66, "velocity": 112, "duration": 324}, {"note": 59, "velocity": 97, "duration": 1212}, {"note": 0, "velocity": 0, "duration": 708}, {"note": 59, "velocity": 102, "duration": 57}, {"note": 0, "velocity": 0, "duration": 63}, {"note": 59, "velocity": 66, "duration": 50}, {"note": 0, "velocity": 0, "duration": 70}, {"note": 59, "velocity": 92, "duration": 53}, {"note": 0, "velocity": 0, "duration": 67}, {"note": 59, "velocity": 74, "duration": 51}, {"note": 0, "velocity": 0, "duration": 69}, {"note": 59, "velocity": 100, "duration": 155}, {"note": 0, "velocity": 0, "duration": 85}, {"note": 66, "velocity": 117, "duration": 116}, {"note": 64, "velocity": 81, "duration": 122}, {"note": 62, "velocity": 100, "duration": 834}, {"note": 0, "velocity": 0, "duration": 126}, {"note": 61, "velocity": 117, "duration": 36}, {"note": 0, "velocity": 0, "duration": 84}, {"note": 61, "velocity": 97, "duration": 53}, {"note": 0, "velocity": 0, "duration": 67}, {"note": 61, "velocity": 93, "duration": 58}, {"note": 0, "velocity": 0, "duration": 62}, {"note": 61, "velocity": 92, "duration": 64}, {"note": 61, "velocity": 107, "duration": 112}, {"note": 59, "velocity": 85, "duration": 105}, {"note": 57, "velocity": 96, "duration": 248}, {"note": 59, "velocity": 96, "duration": 601}, {"note": 0, "velocity": 0, "duration": 359}, {"note": 59, "velocity": 93, "duration": 50}, {"note": 0, "velocity": 0, "duration": 70}, {"note": 59, "velocity": 86, "duration": 48}, {"note": 0, "velocity": 0, "duration": 72}, {"note": 59, "velocity": 88, "duration": 51}, {"note": 0, "velocity": 0, "duration": 69}, {"note": 59, "velocity": 100, "duration": 51}, {"note": 0, "velocity": 0, "duration": 69}, {"note": 59, "velocity": 100, "duration": 107}, {"note": 0, "velocity": 0, "duration": 133}, {"note": 66, "velocity": 117, "duration": 129}, {"note": 64, "velocity": 88, "duration": 123}, {"note": 62, "velocity": 100, "duration": 729}, {"note": 0, "velocity": 0, "duration": 231}, {"note": 64, "velocity": 93, "duration": 50}, {"note": 0, "velocity": 0, "duration": 70}, {"note": 64, "velocity": 89, "duration": 47}, {"note": 0, "velocity": 0, "duration": 73}, {"note": 64, "velocity": 92, "duration": 47}, {"note": 0, "velocity": 0, "duration": 73}, {"note": 64, "velocity": 92, "duration": 46}, {"note": 0, "velocity": 0, "duration": 74}, {"note": 64, "velocity": 99, "duration": 142}, {"note": 0, "velocity": 0, "duration": 98}, {"note": 69, "velocity": 117, "duration": 122}, {"note": 67, "velocity": 89, "duration": 131}, {"note": 66, "velocity": 95, "duration": 733}, {"note": 0, "velocity": 0, "duration": 227}, {"note": 66, "velocity": 127, "duration": 191}, {"note": 71, "velocity": 102, "duration": 154}, {"note": 0, "velocity": 0, "duration": 86}, {"note": 71, "velocity": 107, "duration": 63}, {"note": 0, "velocity": 0, "duration": 177}, {"note": 66, "velocity": 96, "duration": 240}, {"note": 64, "velocity": 96, "duration": 711}, {"note": 0, "velocity": 0, "duration": 249}, {"note": 69, "velocity": 102, "duration": 207}, {"note": 66, "velocity": 99, "duration": 229}, {"note": 64, "velocity": 95, "duration": 111}, {"note": 66, "velocity": 102, "duration": 345}, {"note": 59, "velocity": 96, "duration": 581}, {"note": 0, "velocity": 0, "duration": 379}, {"note": 59, "velocity": 117, "duration": 131}, {"note": 64, "velocity": 90, "duration": 147}, {"note": 0, "velocity": 0, "duration": 93}, {"note": 64, "velocity": 93, "duration": 58}, {"note": 0, "velocity": 0, "duration": 62}, {"note": 64, "velocity": 107, "duration": 158}, {"note": 0, "velocity": 0, "duration": 82}, {"note": 62, "velocity": 99, "duration": 78}, {"note": 64, "velocity": 89, "duration": 59}, {"note": 0, "velocity": 0, "duration": 61}, {"note": 66, "velocity": 112, "duration": 170}, {"note": 0, "velocity": 0, "duration": 70}, {"note": 64, "velocity": 100, "duration": 225}, {"note": 62, "velocity": 96, "duration": 161}, {"note": 66, "velocity": 112, "duration": 315}, {"note": 59, "velocity": 100, "duration": 1003}, {"note": 0, "velocity": 0, "duration": 437}, {"note": 74, "velocity": 122, "duration": 213}, {"note": 76, "velocity": 117, "duration": 203}, {"note": 78, "velocity": 127, "duration": 437}, {"note": 0, "velocity": 0, "duration": 283}, {"note": 78, "velocity": 127, "duration": 45}, {"note": 0, "velocity": 0, "duration": 75}, {"note": 78, "velocity": 112, "duration": 42}, {"note": 0, "velocity": 0, "duration": 78}, {"note": 78, "velocity": 127, "duration": 209}, {"note": 76, "velocity": 127, "duration": 254}, {"note": 74, "velocity": 112, "duration": 196}, {"note": 74, "velocity": 117, "duration": 138}, {"note": 73, "velocity": 122, "duration": 119}, {"note": 71, "velocity": 117, "duration": 742}, {"note": 0, "velocity": 0, "duration": 698}, {"note": 71, "velocity": 112, "duration": 246}, {"note": 78, "velocity": 127, "duration": 239}, {"note": 76, "velocity": 112, "duration": 543}, {"note": 0, "velocity": 0, "duration": 177}, {"note": 78, "velocity": 112, "duration": 93}, {"note": 76, "velocity": 83, "duration": 60}, {"note": 76, "velocity": 99, "duration": 185}, {"note": 74, "velocity": 112, "duration": 146}, {"note": 0, "velocity": 0, "duration": 94}, {"note": 74, "velocity": 117, "duration": 108}, {"note": 71, "velocity": 100, "duration": 350}, {"note": 69, "velocity": 95, "duration": 1032}, {"note": 0, "velocity": 0, "duration": 408}, {"note": 74, "velocity": 117, "duration": 199}, {"note": 76, "velocity": 112, "duration": 162}, {"note": 0, "velocity": 0, "duration": 78}, {"note": 78, "velocity": 127, "duration": 532}, {"note": 0, "velocity": 0, "duration": 188}, {"note": 78, "velocity": 117, "duration": 40}, {"note": 0, "velocity": 0, "duration": 80}, {"note": 78, "velocity": 107, "duration": 35}, {"note": 0, "velocity": 0, "duration": 85}, {"note": 78, "velocity": 117, "duration": 174}, {"note": 0, "velocity": 0, "duration": 66}, {"note": 76, "velocity": 122, "duration": 216}, {"note": 74, "velocity": 97, "duration": 213}, {"note": 74, "velocity": 100, "duration": 116}, {"note": 73, "velocity": 97, "duration": 134}, {"note": 71, "velocity": 100, "duration": 1031}, {"note": 0, "velocity": 0, "duration": 409}, {"note": 71, "velocity": 107, "duration": 224}, {"note": 78, "velocity": 127, "duration": 121}, {"note": 76, "velocity": 100, "duration": 58}, {"note": 0, "velocity": 0, "duration": 62}, {"note": 76, "velocity": 127, "duration": 472}, {"note": 0, "velocity": 0, "duration": 248}, {"note": 74, "velocity": 117, "duration": 181}, {"note": 76, "velocity": 117, "duration": 186}, {"note": 74, "velocity": 127, "duration": 178}, {"note": 0, "velocity": 0, "duration": 62}, {"note": 71, "velocity": 107, "duration": 187}, {"note": 76, "velocity": 127, "duration": 195}, {"note": 74, "velocity": 90, "duration": 57}, {"note": 0, "velocity": 0, "duration": 63}, {"note": 74, "velocity": 107, "duration": 1186}, {"note": 0, "velocity": 0, "duration": 16094}, {"note": 59, "velocity": 102, "duration": 57}, {"note": 0, "velocity": 0, "duration": 63}, {"note": 59, "velocity": 66, "duration": 50}, {"note": 0, "velocity": 0, "duration": 70}, {"note": 59, "velocity": 92, "duration": 53}, {"note": 0, "velocity": 0, "duration": 67}, {"note": 59, "velocity": 74, "duration": 51}, {"note": 0, "velocity": 0, "duration": 69}, {"note": 59, "velocity": 100, "duration": 155}, {"note": 0, "velocity": 0, "duration": 85}, {"note": 66, "velocity": 117, "duration": 116}, {"note": 64, "velocity": 81, "duration": 122}, {"note": 62, "velocity": 100, "duration": 834}, {"note": 0, "velocity": 0, "duration": 126}, {"note": 61, "velocity": 117, "duration": 36}, {"note": 0, "velocity": 0, "duration": 84}, {"note": 61, "velocity": 97, "duration": 53}, {"note": 0, "velocity": 0, "duration": 67}, {"note": 61, "velocity": 93, "duration": 58}, {"note": 0, "velocity": 0, "duration": 62}, {"note": 61, "velocity": 92, "duration": 64}, {"note": 61, "velocity": 107, "duration": 112}, {"note": 59, "velocity": 85, "duration": 105}, {"note": 57, "velocity": 96, "duration": 248}, {"note": 59, "velocity": 96, "duration": 601}, {"note": 0, "velocity": 0, "duration": 359}, {"note": 59, "velocity": 93, "duration": 50}, {"note": 0, "velocity": 0, "duration": 70}, {"note": 59, "velocity": 86, "duration": 48}, {"note": 0, "velocity": 0, "duration": 72}, {"note": 59, "velocity": 88, "duration": 51}, {"note": 0, "velocity": 0, "duration": 69}, {"note": 59, "velocity": 100, "duration": 51}, {"note": 0, "velocity": 0, "duration": 69}, {"note": 59, "velocity": 100, "duration": 107}, {"note": 0, "velocity": 0, "duration": 133}, {"note": 66, "velocity": 117, "duration": 129}, {"note": 64, "velocity": 88, "duration": 123}, {"note": 62, "velocity": 100, "duration": 729}, {"note": 0, "velocity": 0, "duration": 231}, {"note": 64, "velocity": 93, "duration": 50}, {"note": 0, "velocity": 0, "duration": 70}, {"note": 64, "velocity": 89, "duration": 47}, {"note": 0, "velocity": 0, "duration": 73}, {"note": 64, "velocity": 92, "duration": 47}, {"note": 0, "velocity": 0, "duration": 73}, {"note": 64, "velocity": 92, "duration": 46}, {"note": 0, "velocity": 0, "duration": 74}, {"note": 64, "velocity": 99, "duration": 142}, {"note": 0, "velocity": 0, "duration": 98}, {"note": 69, "velocity": 117, "duration": 122}, {"note": 67, "velocity": 89, "duration": 131}, {"note": 66, "velocity": 95, "duration": 733}, {"note": 0, "velocity": 0, "duration": 227}, {"note": 66, "velocity": 127, "duration": 191}, {"note": 71, "velocity": 102, "duration": 154}, {"note": 0, "velocity": 0, "duration": 86}, {"note": 71, "velocity": 107, "duration": 63}, {"note": 0, "velocity": 0, "duration": 177}, {"note": 66, "velocity": 96, "duration": 240}, {"note": 64, "velocity": 96, "duration": 711}, {"note": 0, "velocity": 0, "duration": 249}, {"note": 69, "velocity": 102, "duration": 207}, {"note": 66, "velocity": 99, "duration": 229}, {"note": 64, "velocity": 95, "duration": 111}, {"note": 66, "velocity": 102, "duration": 345}, {"note": 59, "velocity": 96, "duration": 581}, {"note": 0, "velocity": 0, "duration": 379}, {"note": 59, "velocity": 117, "duration": 131}, {"note": 64, "velocity": 90, "duration": 147}, {"note": 0, "velocity": 0, "duration": 93}, {"note": 64, "velocity": 93, "duration": 58}, {"note": 0, "velocity": 0, "duration": 62}, {"note": 64, "velocity": 107, "duration": 158}, {"note": 0, "velocity": 0, "duration": 82}, {"note": 62, "velocity": 99, "duration": 78}, {"note": 64, "velocity": 89, "duration": 59}, {"note": 0, "velocity": 0, "duration": 61}, {"note": 66, "velocity": 112, "duration": 170}, {"note": 0, "velocity": 0, "duration": 70}, {"note": 64, "velocity": 100, "duration": 225}, {"note": 62, "velocity": 96, "duration": 161}, {"note": 66, "velocity": 112, "duration": 315}, {"note": 59, "velocity": 100, "duration": 1003}, {"note": 0, "velocity": 0, "duration": 437}, {"note": 74, "velocity": 122, "duration": 213}, {"note": 76, "velocity": 117, "duration": 203}, {"note": 78, "velocity": 127, "duration": 437}, {"note": 0, "velocity": 0, "duration": 283}, {"note": 78, "velocity": 127, "duration": 45}, {"note": 0, "velocity": 0, "duration": 75}, {"note": 78, "velocity": 112, "duration": 42}, {"note": 0, "velocity": 0, "duration": 78}, {"note": 78, "velocity": 127, "duration": 209}, {"note": 76, "velocity": 127, "duration": 254}, {"note": 74, "velocity": 112, "duration": 196}, {"note": 74, "velocity": 117, "duration": 138}, {"note": 73, "velocity": 122, "duration": 119}, {"note": 71, "velocity": 117, "duration": 742}, {"note": 0, "velocity": 0, "duration": 698}, {"note": 71, "velocity": 112, "duration": 246}, {"note": 78, "velocity": 127, "duration": 239}, {"note": 76, "velocity": 112, "duration": 543}, {"note": 0, "velocity": 0, "duration": 177}, {"note": 78, "velocity": 112, "duration": 93}, {"note": 76, "velocity": 83, "duration": 60}, {"note": 76, "velocity": 99, "duration": 185}, {"note": 74, "velocity": 112, "duration": 146}, {"note": 0, "velocity": 0, "duration": 94}, {"note": 74, "velocity": 117, "duration": 108}, {"note": 71, "velocity": 100, "duration": 350}, {"note": 69, "velocity": 95, "duration": 1032}, {"note": 0, "velocity": 0, "duration": 408}, {"note": 74, "velocity": 117, "duration": 199}, {"note": 76, "velocity": 112, "duration": 162}, {"note": 0, "velocity": 0, "duration": 78}, {"note": 78, "velocity": 127, "duration": 532}, {"note": 0, "velocity": 0, "duration": 188}, {"note": 78, "velocity": 117, "duration": 40}, {"note": 0, "velocity": 0, "duration": 80}, {"note": 78, "velocity": 107, "duration": 35}, {"note": 0, "velocity": 0, "duration": 85}, {"note": 78, "velocity": 117, "duration": 174}, {"note": 0, "velocity": 0, "duration": 66}, {"note": 76, "velocity": 122, "duration": 216}, {"note": 74, "velocity": 97, "duration": 213}, {"note": 74, "velocity": 100, "duration": 116}, {"note": 73, "velocity": 97, "duration": 134}, {"note": 71, "velocity": 100, "duration": 1031}, {"note": 0, "velocity": 0, "duration": 409}, {"note": 71, "velocity": 107, "duration": 224}, {"note": 78, "velocity": 127, "duration": 121}, {"note": 76, "velocity": 100, "duration": 58}, {"note": 0, "velocity": 0, "duration": 62}, {"note": 76, "velocity": 127, "duration": 472}, {"note": 0, "velocity": 0, "duration": 248}, {"note": 74, "velocity": 117, "duration": 181}, {"note": 76, "velocity": 117, "duration": 186}, {"note": 74, "velocity": 127, "duration": 178}, {"note": 0, "velocity": 0, "duration": 62}, {"note": 71, "velocity": 107, "duration": 187}, {"note": 76, "velocity": 127, "duration": 195}, {"note": 74, "velocity": 90, "duration": 57}, {"note": 0, "velocity": 0, "duration": 63}, {"note": 74, "velocity": 107, "duration": 1186}, {"note": 0, "velocity": 0, "duration": 254}, {"note": 74, "velocity": 122, "duration": 213}, {"note": 76, "velocity": 117, "duration": 203}, {"note": 78, "velocity": 127, "duration": 437}, {"note": 0, "velocity": 0, "duration": 283}, {"note": 78, "velocity": 127, "duration": 45}, {"note": 0, "velocity": 0, "duration": 75}, {"note": 78, "velocity": 112, "duration": 42}, {"note": 0, "velocity": 0, "duration": 78}, {"note": 78, "velocity": 127, "duration": 209}, {"note": 76, "velocity": 127, "duration": 254}, {"note": 74, "velocity": 112, "duration": 196}, {"note": 74, "velocity": 117, "duration": 138}, {"note": 73, "velocity": 122, "duration": 119}, {"note": 71, "velocity": 117, "duration": 742}, {"note": 0, "velocity": 0, "duration": 698}, {"note": 71, "velocity": 112, "duration": 246}, {"note": 78, "velocity": 127, "duration": 239}, {"note": 76, "velocity": 112, "duration": 543}, {"note": 0, "velocity": 0, "duration": 177}, {"note": 78, "velocity": 112, "duration": 93}, {"note": 76, "velocity": 83, "duration": 60}, {"note": 76, "velocity": 99, "duration": 185}, {"note": 74, "velocity": 112, "duration": 146}, {"note": 0, "velocity": 0, "duration": 94}, {"note": 74, "velocity": 117, "duration": 108}, {"note": 71, "velocity": 100, "duration": 350}, {"note": 69, "velocity": 95, "duration": 1032}, {"note": 0, "velocity": 0, "duration": 408}, {"note": 74, "velocity": 117, "duration": 199}, {"note": 76, "velocity": 112, "duration": 162}, {"note": 0, "velocity": 0, "duration": 78}, {"note": 78, "velocity": 127, "duration": 532}, {"note": 0, "velocity": 0, "duration": 188}, {"note": 78, "velocity": 117, "duration": 40}, {"note": 0, "velocity": 0, "duration": 80}, {"note": 78, "velocity": 107, "duration": 35}, {"note": 0, "velocity": 0, "duration": 85}, {"note": 78, "velocity": 117, "duration": 174}, {"note": 0, "velocity": 0, "duration": 66}, {"note": 76, "velocity": 122, "duration": 216}, {"note": 74, "velocity": 97, "duration": 213}, {"note": 74, "velocity": 100, "duration": 116}, {"note": 73, "velocity": 97, "duration": 134}, {"note": 71, "velocity": 100, "duration": 1031}, {"note": 0, "velocity": 0, "duration": 409}, {"note": 71, "velocity": 107, "duration": 224}, {"note": 78, "velocity": 127, "duration": 121}, {"note": 76, "velocity": 100, "duration": 58}, {"note": 0, "velocity": 0, "duration": 62}, {"note": 76, "velocity": 127, "duration": 472}, {"note": 0, "velocity": 0, "duration": 248}, {"note": 74, "velocity": 117, "duration": 181}, {"note": 76, "velocity": 117, "duration": 186}, {"note": 74, "velocity": 127, "duration": 178}, {"note": 0, "velocity": 0, "duration": 62}, {"note": 71, "velocity": 107, "duration": 187}, {"note": 76, "velocity": 127, "duration": 195}, {"note": 74, "velocity": 90, "duration": 57}, {"note": 0, "velocity": 0, "duration": 63}, {"note": 74, "velocity": 107, "duration": 1186}, {"note": 0, "velocity": 0, "duration": 254}, {"note": 71, "velocity": 107, "duration": 224}, {"note": 78, "velocity": 127, "duration": 121}, {"note": 76, "velocity": 100, "duration": 58}, {"note": 0, "velocity": 0, "duration": 62}, {"note": 76, "velocity": 127, "duration": 472}, {"note": 0, "velocity": 0, "duration": 248}, {"note": 74, "velocity": 117, "duration": 181}, {"note": 76, "velocity": 117, "duration": 186}, {"note": 74, "velocity": 127, "duration": 178}, {"note": 0, "velocity": 0, "duration": 62}, {"note": 71, "velocity": 107, "duration": 187}, {"note": 76, "velocity": 127, "duration": 195}, {"note": 74, "velocity": 90, "duration": 57}, {"note": 0, "velocity": 0, "duration": 63}, {"note": 74, "velocity": 107, "duration": 1186}]]