[[{"note": 61, "velocity": 122, "duration": 242}, {"note": 68, "velocity": 122, "duration": 62}, {"note": 68, "velocity": 112, "duration": 67}, {"note": 68, "velocity": 127, "duration": 226}, {"note": 66, "velocity": 112, "duration": 267}, {"note": 68, "velocity": 112, "duration": 143}, {"note": 66, "velocity": 96, "duration": 125}, {"note": 64, "velocity": 90, "duration": 570}, {"note": 0, "velocity": 0, "duration": 150}, {"note": 63, "velocity": 112, "duration": 305}, {"note": 61, "velocity": 99, "duration": 128}, {"note": 59, "velocity": 77, "duration": 129}, {"note": 61, "velocity": 99, "duration": 103}, {"note": 56, "velocity": 99, "duration": 95}, {"note": 59, "velocity": 88, "duration": 143}, {"note": 61, "velocity": 112, "duration": 684}, {"note": 0, "velocity": 0, "duration": 276}, {"note": 61, "velocity": 89, "duration": 220}, {"note": 64, "velocity": 97, "duration": 528}, {"note": 61, "velocity": 117, "duration": 62}, {"note": 61, "velocity": 112, "duration": 74}, {"note": 66, "velocity": 117, "duration": 251}, {"note": 64, "velocity": 99, "duration": 233}, {"note": 66, "velocity": 107, "duration": 131}, {"note": 68, "velocity": 112, "duration": 508}, {"note": 63, "velocity": 117, "duration": 168}, {"note": 0, "velocity": 0, "duration": 72}, {"note": 63, "velocity": 112, "duration": 110}, {"note": 61, "velocity": 107, "duration": 91}, {"note": 0, "velocity": 0, "duration": 149}, {"note": 59, "velocity": 96, "duration": 113}, {"note": 56, "velocity": 93, "duration": 140}, {"note": 59, "velocity": 72, "duration": 141}, {"note": 61, "velocity": 112, "duration": 867}, {"note": 0, "velocity": 0, "duration": 93}, {"note": 61, "velocity": 122, "duration": 242}, {"note": 68, "velocity": 122, "duration": 62}, {"note": 68, "velocity": 112, "duration": 67}, {"note": 68, "velocity": 127, "duration": 226}, {"note": 66, "velocity": 112, "duration": 267}, {"note": 68, "velocity": 112, "duration": 143}, {"note": 66, "velocity": 96, "duration": 125}, {"note": 64, "velocity": 90, "duration": 570}, {"note": 0, "velocity": 0, "duration": 150}, {"note": 63, "velocity": 112, "duration": 305}, {"note": 61, "velocity": 99, "duration": 128}, {"note": 59, "velocity": 77, "duration": 129}, {"note": 61, "velocity": 99, "duration": 103}, {"note": 56, "velocity": 99, "duration": 95}, {"note": 59, "velocity": 88, "duration": 143}, {"note": 61, "velocity": 112, "duration": 684}, {"note": 0, "velocity": 0, "duration": 276}, {"note": 61, "velocity": 89, "duration": 220}, {"note": 64, "velocity": 97, "duration": 528}, {"note": 61, "velocity": 117, "duration": 189}, {"note": 66, "velocity": 117, "duration": 117}, {"note": 66, "velocity": 112, "duration": 82}, {"note": 64, "velocity": 99, "duration": 233}, {"note": 66, "velocity": 107, "duration": 131}, {"note": 68, "velocity": 112, "duration": 508}, {"note": 71, "velocity": 93, "duration": 56}, {"note": 0, "velocity": 0, "duration": 64}, {"note": 71, "velocity": 97, "duration": 153}, {"note": 0, "velocity": 0, "duration": 87}, {"note": 71, "velocity": 85, "duration": 47}, {"note": 0, "velocity": 0, "duration": 73}, {"note": 71, "velocity": 97, "duration": 98}, {"note": 68, "velocity": 102, "duration": 72}, {"note": 76, "velocity": 102, "duration": 134}, {"note": 75, "velocity": 117, "duration": 123}, {"note": 73, "velocity": 122, "duration": 683}, {"note": 0, "velocity": 0, "duration": 1237}, {"note": 68, "velocity": 127, "duration": 233}, {"note": 73, "velocity": 112, "duration": 441}, {"note": 71, "velocity": 112, "duration": 181}, {"note": 73, "velocity": 127, "duration": 166}, {"note": 0, "velocity": 0, "duration": 194}, {"note": 76, "velocity": 100, "duration": 112}, {"note": 73, "velocity": 112, "duration": 225}, {"note": 71, "velocity": 96, "duration": 219}, {"note": 73, "velocity": 112, "duration": 156}, {"note": 0, "velocity": 0, "duration": 84}, {"note": 73, "velocity": 122, "duration": 155}, {"note": 0, "velocity": 0, "duration": 85}, {"note": 73, "velocity": 127, "duration": 276}, {"note": 64, "velocity": 93, "duration": 131}, {"note": 66, "velocity": 107, "duration": 106}, {"note": 68, "velocity": 122, "duration": 745}, {"note": 0, "velocity": 0, "duration": 215}, {"note": 66, "velocity": 117, "duration": 141}, {"note": 0, "velocity": 0, "duration": 99}, {"note": 66, "velocity": 100, "duration": 48}, {"note": 0, "velocity": 0, "duration": 72}, {"note": 66, "velocity": 95, "duration": 42}, {"note": 0, "velocity": 0, "duration": 78}, {"note": 66, "velocity": 112, "duration": 188}, {"note": 68, "velocity": 107, "duration": 182}, {"note": 71, "velocity": 112, "duration": 248}, {"note": 73, "velocity": 127, "duration": 140}, {"note": 0, "velocity": 0, "duration": 100}, {"note": 73, "velocity": 127, "duration": 166}, {"note": 0, "velocity": 0, "duration": 74}, {"note": 71, "velocity": 107, "duration": 122}, {"note": 73, "velocity": 95, "duration": 121}, {"note": 71, "velocity": 99, "duration": 116}, {"note": 68, "velocity": 112, "duration": 1284}, {"note": 0, "velocity": 0, "duration": 516}, {"note": 68, "velocity": 112, "duration": 203}, {"note": 73, "velocity": 127, "duration": 364}, {"note": 0, "velocity": 0, "duration": 116}, {"note": 71, "velocity": 99, "duration": 165}, {"note": 0, "velocity": 0, "duration": 75}, {"note": 73, "velocity": 127, "duration": 307}, {"note": 76, "velocity": 112, "duration": 121}, {"note": 73, "velocity": 127, "duration": 200}, {"note": 71, "velocity": 97, "duration": 196}, {"note": 73, "velocity": 127, "duration": 138}, {"note": 0, "velocity": 0, "duration": 102}, {"note": 73, "velocity": 127, "duration": 149}, {"note": 0, "velocity": 0, "duration": 91}, {"note": 73, "velocity": 127, "duration": 168}, {"note": 0, "velocity": 0, "duration": 72}, {"note": 64, "velocity": 96, "duration": 119}, {"note": 66, "velocity": 107, "duration": 129}, {"note": 68, "velocity": 122, "duration": 408}, {"note": 0, "velocity": 0, "duration": 312}, {"note": 68, "velocity": 117, "duration": 49}, {"note": 0, "velocity": 0, "duration": 71}, {"note": 68, "velocity": 127, "duration": 75}, {"note": 66, "velocity": 122, "duration": 415}, {"note": 0, "velocity": 0, "duration": 545}, {"note": 71, "velocity": 112, "duration": 213}, {"note": 0, "velocity": 0, "duration": 147}, {"note": 68, "velocity": 117, "duration": 148}, {"note": 78, "velocity": 127, "duration": 158}, {"note": 0, "velocity": 0, "duration": 82}, {"note": 76, "velocity": 117, "duration": 122}, {"note": 78, "velocity": 112, "duration": 96}, {"note": 73, "velocity": 117, "duration": 1420}, {"note": 0, "velocity": 0, "duration": 500}, {"note": 68, "velocity": 112, "duration": 203}, {"note": 73, "velocity": 127, "duration": 364}, {"note": 0, "velocity": 0, "duration": 116}, {"note": 71, "velocity": 99, "duration": 165}, {"note": 0, "velocity": 0, "duration": 75}, {"note": 73, "velocity": 127, "duration": 307}, {"note": 76, "velocity": 112, "duration": 121}, {"note": 73, "velocity": 127, "duration": 200}, {"note": 71, "velocity": 97, "duration": 196}, {"note": 73, "velocity": 127, "duration": 138}, {"note": 0, "velocity": 0, "duration": 102}, {"note": 73, "velocity": 127, "duration": 149}, {"note": 0, "velocity": 0, "duration": 91}, {"note": 73, "velocity": 127, "duration": 168}, {"note": 0, "velocity": 0, "duration": 72}, {"note": 64, "velocity": 96, "duration": 119}, {"note": 66, "velocity": 107, "duration": 129}, {"note": 68, "velocity": 122, "duration": 408}, {"note": 0, "velocity": 0, "duration": 552}, {"note": 66, "velocity": 127, "duration": 129}, {"note": 0, "velocity": 0, "duration": 111}, {"note": 66, "velocity": 112, "duration": 46}, {"note": 0, "velocity": 0, "duration": 74}, {"note": 66, "velocity": 107, "duration": 45}, {"note": 0, "velocity": 0, "duration": 75}, {"note": 66, "velocity": 117, "duration": 173}, {"note": 0, "velocity": 0, "duration": 67}, {"note": 68, "velocity": 127, "duration": 188}, {"note": 71, "velocity": 112, "duration": 213}, {"note": 71, "velocity": 102, "duration": 173}, {"note": 0, "velocity": 0, "duration": 67}, {"note": 73, "velocity": 127, "duration": 187}, {"note": 71, "velocity": 107, "duration": 136}, {"note": 73, "velocity": 100, "duration": 155}, {"note": 71, "velocity": 107, "duration": 200}, {"note": 68, "velocity": 99, "duration": 1212}, {"note": 0, "velocity": 0, "duration": 468}, {"note": 68, "velocity": 112, "duration": 203}, {"note": 73, "velocity": 127, "duration": 364}, {"note": 0, "velocity": 0, "duration": 116}, {"note": 73, "velocity": 122, "duration": 113}, {"note": 71, "velocity": 93, "duration": 105}, {"note": 73, "velocity": 127, "duration": 307}, {"note": 76, "velocity": 112, "duration": 121}, {"note": 73, "velocity": 127, "duration": 200}, {"note": 71, "velocity": 97, "duration": 196}, {"note": 73, "velocity": 127, "duration": 138}, {"note": 0, "velocity": 0, "duration": 102}, {"note": 73, "velocity": 127, "duration": 149}, {"note": 0, "velocity": 0, "duration": 91}, {"note": 73, "velocity": 127, "duration": 168}, {"note": 0, "velocity": 0, "duration": 72}, {"note": 64, "velocity": 96, "duration": 119}, {"note": 66, "velocity": 107, "duration": 129}, {"note": 68, "velocity": 122, "duration": 408}, {"note": 0, "velocity": 0, "duration": 312}, {"note": 68, "velocity": 117, "duration": 49}, {"note": 0, "velocity": 0, "duration": 71}, {"note": 68, "velocity": 127, "duration": 75}, {"note": 66, "velocity": 122, "duration": 415}, {"note": 0, "velocity": 0, "duration": 305}, {"note": 68, "velocity": 117, "duration": 167}, {"note": 0, "velocity": 0, "duration": 73}, {"note": 71, "velocity": 112, "duration": 275}, {"note": 0, "velocity": 0, "duration": 85}, {"note": 68, "velocity": 127, "duration": 113}, {"note": 78, "velocity": 122, "duration": 154}, {"note": 0, "velocity": 0, "duration": 86}, {"note": 76, "velocity": 102, "duration": 91}, {"note": 78, "velocity": 96, "duration": 106}, {"note": 75, "velocity": 122, "duration": 116}, {"note": 73, "velocity": 102, "duration": 1391}, {"note": 0, "velocity": 0, "duration": 15769}, {"note": 61, "velocity": 122, "duration": 242}, {"note": 68, "velocity": 122, "duration": 62}, {"note": 68, "velocity": 112, "duration": 67}, {"note": 68, "velocity": 127, "duration": 226}, {"note": 66, "velocity": 112, "duration": 267}, {"note": 68, "velocity": 112, "duration": 143}, {"note": 66, "velocity": 96, "duration": 125}, {"note": 64, "velocity": 90, "duration": 570}, {"note": 0, "velocity": 0, "duration": 150}, {"note": 63, "velocity": 112, "duration": 305}, {"note": 61, "velocity": 99, "duration": 128}, {"note": 59, "velocity": 77, "duration": 129}, {"note": 61, "velocity": 99, "duration": 103}, {"note": 56, "velocity": 99, "duration": 95}, {"note": 59, "velocity": 88, "duration": 143}, {"note": 61, "velocity": 112, "duration": 684}, {"note": 0, "velocity": 0, "duration": 276}, {"note": 61, "velocity": 89, "duration": 220}, {"note": 64, "velocity": 97, "duration": 528}, {"note": 61, "velocity": 117, "duration": 62}, {"note": 61, "velocity": 112, "duration": 74}, {"note": 66, "velocity": 117, "duration": 251}, {"note": 64, "velocity": 99, "duration": 233}, {"note": 66, "velocity": 107, "duration": 131}, {"note": 68, "velocity": 112, "duration": 508}, {"note": 63, "velocity": 117, "duration": 168}, {"note": 0, "velocity": 0, "duration": 72}, {"note": 63, "velocity": 112, "duration": 110}, {"note": 61, "velocity": 107, "duration": 91}, {"note": 0, "velocity": 0, "duration": 149}, {"note": 59, "velocity": 96, "duration": 113}, {"note": 56, "velocity": 93, "duration": 140}, {"note": 59, "velocity": 72, "duration": 141}, {"note": 61, "velocity": 112, "duration": 867}, {"note": 0, "velocity": 0, "duration": 93}, {"note": 61, "velocity": 122, "duration": 242}, {"note": 68, "velocity": 122, "duration": 62}, {"note": 68, "velocity": 112, "duration": 67}, {"note": 68, "velocity": 127, "duration": 226}, {"note": 66, "velocity": 112, "duration": 267}, {"note": 68, "velocity": 112, "duration": 143}, {"note": 66, "velocity": 96, "duration": 125}, {"note": 64, "velocity": 90, "duration": 570}, {"note": 0, "velocity": 0, "duration": 150}, {"note": 63, "velocity": 112, "duration": 305}, {"note": 61, "velocity": 99, "duration": 128}, {"note": 59, "velocity": 77, "duration": 129}, {"note": 61, "velocity": 99, "duration": 103}, {"note": 56, "velocity": 99, "duration": 95}, {"note": 59, "velocity": 88, "duration": 143}, {"note": 61, "velocity": 112, "duration": 684}, {"note": 0, "velocity": 0, "duration": 276}, {"note": 61, "velocity": 89, "duration": 220}, {"note": 64, "velocity": 97, "duration": 528}, {"note": 61, "velocity": 117, "duration": 189}, {"note": 66, "velocity": 117, "duration": 117}, {"note": 66, "velocity": 112, "duration": 82}, {"note": 64, "velocity": 99, "duration": 233}, {"note": 66, "velocity": 107, "duration": 131}, {"note": 68, "velocity": 112, "duration": 508}, {"note": 71, "velocity": 93, "duration": 56}, {"note": 0, "velocity": 0, "duration": 64}, {"note": 71, "velocity": 97, "duration": 153}, {"note": 0, "velocity": 0, "duration": 87}, {"note": 71, "velocity": 85, "duration": 47}, {"note": 0, "velocity": 0, "duration": 73}, {"note": 71, "velocity": 97, "duration": 98}, {"note": 68, "velocity": 102, "duration": 72}, {"note": 76, "velocity": 102, "duration": 134}, {"note": 75, "velocity": 117, "duration": 123}, {"note": 73, "velocity": 122, "duration": 683}, {"note": 0, "velocity": 0, "duration": 1237}, {"note": 68, "velocity": 127, "duration": 233}, {"note": 73, "velocity": 112, "duration": 441}, {"note": 71, "velocity": 112, "duration": 181}, {"note": 73, "velocity": 127, "duration": 166}, {"note": 0, "velocity": 0, "duration": 194}, {"note": 76, "velocity": 100, "duration": 112}, {"note": 73, "velocity": 112, "duration": 225}, {"note": 71, "velocity": 96, "duration": 219}, {"note": 73, "velocity": 112, "duration": 156}, {"note": 0, "velocity": 0, "duration": 84}, {"note": 73, "velocity": 122, "duration": 155}, {"note": 0, "velocity": 0, "duration": 85}, {"note": 73, "velocity": 127, "duration": 276}, {"note": 64, "velocity": 93, "duration": 131}, {"note": 66, "velocity": 107, "duration": 106}, {"note": 68, "velocity": 122, "duration": 745}, {"note": 0, "velocity": 0, "duration": 215}, {"note": 66, "velocity": 117, "duration": 141}, {"note": 0, "velocity": 0, "duration": 99}, {"note": 66, "velocity": 100, "duration": 48}, {"note": 0, "velocity": 0, "duration": 72}, {"note": 66, "velocity": 95, "duration": 42}, {"note": 0, "velocity": 0, "duration": 78}, {"note": 66, "velocity": 112, "duration": 188}, {"note": 68, "velocity": 107, "duration": 182}, {"note": 71, "velocity": 112, "duration": 248}, {"note": 73, "velocity": 127, "duration": 140}, {"note": 0, "velocity": 0, "duration": 100}, {"note": 73, "velocity": 127, "duration": 166}, {"note": 0, "velocity": 0, "duration": 74}, {"note": 71, "velocity": 107, "duration": 122}, {"note": 73, "velocity": 95, "duration": 121}, {"note": 71, "velocity": 99, "duration": 116}, {"note": 68, "velocity": 112, "duration": 1284}, {"note": 0, "velocity": 0, "duration": 516}, {"note": 68, "velocity": 112, "duration": 203}, {"note": 73, "velocity": 127, "duration": 364}, {"note": 0, "velocity": 0, "duration": 116}, {"note": 71, "velocity": 99, "duration": 165}, {"note": 0, "velocity": 0, "duration": 75}, {"note": 73, "velocity": 127, "duration": 307}, {"note": 76, "velocity": 112, "duration": 121}, {"note": 73, "velocity": 127, "duration": 200}, {"note": 71, "velocity": 97, "duration": 196}, {"note": 73, "velocity": 127, "duration": 138}, {"note": 0, "velocity": 0, "duration": 102}, {"note": 73, "velocity": 127, "duration": 149}, {"note": 0, "velocity": 0, "duration": 91}, {"note": 73, "velocity": 127, "duration": 168}, {"note": 0, "velocity": 0, "duration": 72}, {"note": 64, "velocity": 96, "duration": 119}, {"note": 66, "velocity": 107, "duration": 129}, {"note": 68, "velocity": 122, "duration": 408}, {"note": 0, "velocity": 0, "duration": 312}, {"note": 68, "velocity": 117, "duration": 49}, {"note": 0, "velocity": 0, "duration": 71}, {"note": 68, "velocity": 127, "duration": 75}, {"note": 66, "velocity": 122, "duration": 415}, {"note": 0, "velocity": 0, "duration": 545}, {"note": 71, "velocity": 112, "duration": 213}, {"note": 0, "velocity": 0, "duration": 147}, {"note": 68, "velocity": 117, "duration": 148}, {"note": 78, "velocity": 127, "duration": 158}, {"note": 0, "velocity": 0, "duration": 82}, {"note": 76, "velocity": 117, "duration": 122}, {"note": 78, "velocity": 112, "duration": 96}, {"note": 73, "velocity": 117, "duration": 1420}, {"note": 0, "velocity": 0, "duration": 500}, {"note": 68, "velocity": 112, "duration": 203}, {"note": 73, "velocity": 127, "duration": 364}, {"note": 0, "velocity": 0, "duration": 116}, {"note": 71, "velocity": 99, "duration": 165}, {"note": 0, "velocity": 0, "duration": 75}, {"note": 73, "velocity": 127, "duration": 307}, {"note": 76, "velocity": 112, "duration": 121}, {"note": 73, "velocity": 127, "duration": 200}, {"note": 71, "velocity": 97, "duration": 196}, {"note": 73, "velocity": 127, "duration": 138}, {"note": 0, "velocity": 0, "duration": 102}, {"note": 73, "velocity": 127, "duration": 149}, {"note": 0, "velocity": 0, "duration": 91}, {"note": 73, "velocity": 127, "duration": 168}, {"note": 0, "velocity": 0, "duration": 72}, {"note": 64, "velocity": 96, "duration": 119}, {"note": 66, "velocity": 107, "duration": 129}, {"note": 68, "velocity": 122, "duration": 408}, {"note": 0, "velocity": 0, "duration": 552}, {"note": 66, "velocity": 127, "duration": 129}, {"note": 0, "velocity": 0, "duration": 111}, {"note": 66, "velocity": 112, "duration": 46}, {"note": 0, "velocity": 0, "duration": 74}, {"note": 66, "velocity": 107, "duration": 45}, {"note": 0, "velocity": 0, "duration": 75}, {"note": 66, "velocity": 117, "duration": 173}, {"note": 0, "velocity": 0, "duration": 67}, {"note": 68, "velocity": 127, "duration": 188}, {"note": 71, "velocity": 112, "duration": 213}, {"note": 71, "velocity": 102, "duration": 173}, {"note": 0, "velocity": 0, "duration": 67}, {"note": 73, "velocity": 127, "duration": 187}, {"note": 71, "velocity": 107, "duration": 136}, {"note": 73, "velocity": 100, "duration": 155}, {"note": 71, "velocity": 107, "duration": 200}, {"note": 68, "velocity": 99, "duration": 1212}, {"note": 0, "velocity": 0, "duration": 468}, {"note": 68, "velocity": 112, "duration": 203}, {"note": 73, "velocity": 127, "duration": 364}, {"note": 0, "velocity": 0, "duration": 116}, {"note": 73, "velocity": 122, "duration": 113}, {"note": 71, "velocity": 93, "duration": 105}, {"note": 73, "velocity": 127, "duration": 307}, {"note": 76, "velocity": 112, "duration": 121}, {"note": 73, "velocity": 127, "duration": 200}, {"note": 71, "velocity": 97, "duration": 196}, {"note": 73, "velocity": 127, "duration": 138}, {"note": 0, "velocity": 0, "duration": 102}, {"note": 73, "velocity": 127, "duration": 149}, {"note": 0, "velocity": 0, "duration": 91}, {"note": 73, "velocity": 127, "duration": 168}, {"note": 0, "velocity": 0, "duration": 72}, {"note": 64, "velocity": 96, "duration": 119}, {"note": 66, "velocity": 107, "duration": 129}, {"note": 68, "velocity": 122, "duration": 408}, {"note": 0, "velocity": 0, "duration": 312}, {"note": 68, "velocity": 117, "duration": 49}, {"note": 0, "velocity": 0, "duration": 71}, {"note": 68, "velocity": 127, "duration": 75}, {"note": 66, "velocity": 122, "duration": 415}, {"note": 0, "velocity": 0, "duration": 305}, {"note": 68, "velocity": 117, "duration": 167}, {"note": 0, "velocity": 0, "duration": 73}, {"note": 71, "velocity": 112, "duration": 275}, {"note": 0, "velocity": 0, "duration": 85}, {"note": 68, "velocity": 127, "duration": 113}, {"note": 78, "velocity": 122, "duration": 154}, {"note": 0, "velocity": 0, "duration": 86}, {"note": 76, "velocity": 102, "duration": 91}, {"note": 78, "velocity": 96, "duration": 106}, {"note": 75, "velocity": 122, "duration": 116}, {"note": 73, "velocity": 102, "duration": 1391}, {"note": 0, "velocity": 0, "duration": 409}, {"note": 68, "velocity": 112, "duration": 203}, {"note": 73, "velocity": 127, "duration": 364}, {"note": 0, "velocity": 0, "duration": 116}, {"note": 71, "velocity": 99, "duration": 165}, {"note": 0, "velocity": 0, "duration": 75}, {"note": 73, "velocity": 127, "duration": 307}, {"note": 76, "velocity": 112, "duration": 121}, {"note": 73, "velocity": 127, "duration": 200}, {"note": 71, "velocity": 97, "duration": 196}, {"note": 73, "velocity": 127, "duration": 138}, {"note": 0, "velocity": 0, "duration": 102}, {"note": 73, "velocity": 127, "duration": 149}, {"note": 0, "velocity": 0, "duration": 91}, {"note": 73, "velocity": 127, "duration": 168}, {"note": 0, "velocity": 0, "duration": 72}, {"note": 64, "velocity": 96, "duration": 119}, {"note": 66, "velocity": 107, "duration": 129}, {"note": 68, "velocity": 122, "duration": 408}, {"note": 0, "velocity": 0, "duration": 552}, {"note": 66, "velocity": 127, "duration": 129}, {"note": 0, "velocity": 0, "duration": 111}, {"note": 66, "velocity": 112, "duration": 46}, {"note": 0, "velocity": 0, "duration": 74}, {"note": 66, "velocity": 107, "duration": 45}, {"note": 0, "velocity": 0, "duration": 75}, {"note": 66, "velocity": 117, "duration": 173}, {"note": 0, "velocity": 0, "duration": 67}, {"note": 68, "velocity": 127, "duration": 188}, {"note": 71, "velocity": 112, "duration": 213}, {"note": 71, "velocity": 102, "duration": 173}, {"note": 0, "velocity": 0, "duration": 67}, {"note": 73, "velocity": 127, "duration": 187}, {"note": 71, "velocity": 107, "duration": 136}, {"note": 73, "velocity": 100, "duration": 155}, {"note": 71, "velocity": 107, "duration": 200}, {"note": 68, "velocity": 99, "duration": 1212}, {"note": 0, "velocity": 0, "duration": 468}, {"note": 68, "velocity": 112, "duration": 203}, {"note": 73, "velocity": 127, "duration": 364}, {"note": 0, "velocity": 0, "duration": 116}, {"note": 73, "velocity": 122, "duration": 113}, {"note": 71, "velocity": 93, "duration": 105}, {"note": 73, "velocity": 127, "duration": 307}, {"note": 76, "velocity": 112, "duration": 121}, {"note": 73, "velocity": 127, "duration": 200}, {"note": 71, "velocity": 97, "duration": 196}, {"note": 73, "velocity": 127, "duration": 138}, {"note": 0, "velocity": 0, "duration": 102}, {"note": 73, "velocity": 127, "duration": 149}, {"note": 0, "velocity": 0, "duration": 91}, {"note": 73, "velocity": 127, "duration": 168}, {"note": 0, "velocity": 0, "duration": 72}, {"note": 64, "velocity": 96, "duration": 119}, {"note": 66, "velocity": 107, "duration": 129}, {"note": 68, "velocity": 122, "duration": 408}, {"note": 0, "velocity": 0, "duration": 312}, {"note": 68, "velocity": 117, "duration": 49}, {"note": 0, "velocity": 0, "duration": 71}, {"note": 68, "velocity": 127, "duration": 75}, {"note": 66, "velocity": 122, "duration": 415}, {"note": 0, "velocity": 0, "duration": 305}, {"note": 68, "velocity": 117, "duration": 167}, {"note": 0, "velocity": 0, "duration": 73}, {"note": 71, "velocity": 112, "duration": 275}, {"note": 0, "velocity": 0, "duration": 85}, {"note": 68, "velocity": 127, "duration": 600}, {"note": 0, "velocity": 0, "duration": 480}, {"note": 78, "velocity": 127, "duration": 251}, {"note": 76, "velocity": 100, "duration": 140}, {"note": 75, "velocity": 112, "duration": 131}, {"note": 73, "velocity": 96, "duration": 2453}]]