[[{"note": 60, "velocity": 95, "duration": 506}, {"note": 0, "velocity": 0, "duration": 214}, {"note": 63, "velocity": 102, "duration": 115}, {"note": 0, "velocity": 0, "duration": 125}, {"note": 62, "velocity": 100, "duration": 204}, {"note": 60, "velocity": 68, "duration": 149}, {"note": 0, "velocity": 0, "duration": 91}, {"note": 58, "velocity": 96, "duration": 246}, {"note": 53, "velocity": 88, "duration": 151}, {"note": 0, "velocity": 0, "duration": 89}, {"note": 56, "velocity": 96, "duration": 300}, {"note": 0, "velocity": 0, "duration": 180}, {"note": 55, "velocity": 90, "duration": 701}, {"note": 0, "velocity": 0, "duration": 1219}, {"note": 63, "velocity": 96, "duration": 235}, {"note": 67, "velocity": 90, "duration": 222}, {"note": 65, "velocity": 95, "duration": 231}, {"note": 62, "velocity": 85, "duration": 235}, {"note": 58, "velocity": 81, "duration": 247}, {"note": 63, "velocity": 90, "duration": 332}, {"note": 0, "velocity": 0, "duration": 148}, {"note": 63, "velocity": 99, "duration": 595}, {"note": 0, "velocity": 0, "duration": 1085}, {"note": 60, "velocity": 93, "duration": 234}, {"note": 62, "velocity": 83, "duration": 230}, {"note": 63, "velocity": 100, "duration": 220}, {"note": 67, "velocity": 92, "duration": 242}, {"note": 65, "velocity": 85, "duration": 698}, {"note": 0, "velocity": 0, "duration": 262}, {"note": 65, "velocity": 95, "duration": 207}, {"note": 67, "velocity": 102, "duration": 220}, {"note": 70, "velocity": 107, "duration": 211}, {"note": 65, "velocity": 89, "duration": 230}, {"note": 67, "velocity": 100, "duration": 480}, {"note": 62, "velocity": 93, "duration": 371}, {"note": 0, "velocity": 0, "duration": 109}, {"note": 60, "velocity": 100, "duration": 195}, {"note": 62, "velocity": 88, "duration": 183}, {"note": 63, "velocity": 90, "duration": 187}, {"note": 67, "velocity": 92, "duration": 188}, {"note": 65, "velocity": 86, "duration": 220}, {"note": 62, "velocity": 89, "duration": 154}, {"note": 0, "velocity": 0, "duration": 86}, {"note": 62, "velocity": 93, "duration": 431}, {"note": 58, "velocity": 77, "duration": 200}, {"note": 0, "velocity": 0, "duration": 160}, {"note": 60, "velocity": 85, "duration": 1129}, {"note": 0, "velocity": 0, "duration": 431}, {"note": 60, "velocity": 92, "duration": 452}, {"note": 0, "velocity": 0, "duration": 268}, {"note": 63, "velocity": 112, "duration": 187}, {"note": 62, "velocity": 100, "duration": 223}, {"note": 60, "velocity": 96, "duration": 232}, {"note": 58, "velocity": 97, "duration": 181}, {"note": 53, "velocity": 83, "duration": 440}, {"note": 55, "velocity": 93, "duration": 619}, {"note": 0, "velocity": 0, "duration": 1541}, {"note": 63, "velocity": 97, "duration": 160}, {"note": 0, "velocity": 0, "duration": 80}, {"note": 67, "velocity": 90, "duration": 205}, {"note": 65, "velocity": 97, "duration": 116}, {"note": 0, "velocity": 0, "duration": 124}, {"note": 62, "velocity": 97, "duration": 164}, {"note": 0, "velocity": 0, "duration": 76}, {"note": 58, "velocity": 99, "duration": 110}, {"note": 0, "velocity": 0, "duration": 130}, {"note": 62, "velocity": 100, "duration": 467}, {"note": 63, "velocity": 102, "duration": 1208}, {"note": 0, "velocity": 0, "duration": 472}, {"note": 60, "velocity": 100, "duration": 191}, {"note": 62, "velocity": 100, "duration": 183}, {"note": 63, "velocity": 100, "duration": 156}, {"note": 0, "velocity": 0, "duration": 84}, {"note": 67, "velocity": 99, "duration": 166}, {"note": 0, "velocity": 0, "duration": 74}, {"note": 65, "velocity": 122, "duration": 536}, {"note": 0, "velocity": 0, "duration": 424}, {"note": 65, "velocity": 96, "duration": 155}, {"note": 0, "velocity": 0, "duration": 85}, {"note": 67, "velocity": 99, "duration": 173}, {"note": 0, "velocity": 0, "duration": 67}, {"note": 70, "velocity": 117, "duration": 166}, {"note": 0, "velocity": 0, "duration": 74}, {"note": 65, "velocity": 96, "duration": 169}, {"note": 0, "velocity": 0, "duration": 71}, {"note": 67, "velocity": 107, "duration": 453}, {"note": 62, "velocity": 97, "duration": 254}, {"note": 0, "velocity": 0, "duration": 226}, {"note": 60, "velocity": 112, "duration": 163}, {"note": 0, "velocity": 0, "duration": 77}, {"note": 62, "velocity": 97, "duration": 152}, {"note": 0, "velocity": 0, "duration": 88}, {"note": 63, "velocity": 99, "duration": 148}, {"note": 0, "velocity": 0, "duration": 92}, {"note": 67, "velocity": 96, "duration": 153}, {"note": 0, "velocity": 0, "duration": 87}, {"note": 65, "velocity": 107, "duration": 195}, {"note": 62, "velocity": 88, "duration": 112}, {"note": 0, "velocity": 0, "duration": 128}, {"note": 62, "velocity": 96, "duration": 374}, {"note": 0, "velocity": 0, "duration": 106}, {"note": 58, "velocity": 93, "duration": 147}, {"note": 0, "velocity": 0, "duration": 213}, {"note": 60, "velocity": 90, "duration": 1080}, {"note": 0, "velocity": 0, "duration": 480}, {"note": 75, "velocity": 127, "duration": 225}, {"note": 74, "velocity": 97, "duration": 103}, {"note": 0, "velocity": 0, "duration": 137}, {"note": 72, "velocity": 112, "duration": 315}, {"note": 0, "velocity": 0, "duration": 165}, {"note": 70, "velocity": 127, "duration": 463}, {"note": 65, "velocity": 96, "duration": 290}, {"note": 0, "velocity": 0, "duration": 190}, {"note": 67, "velocity": 122, "duration": 235}, {"note": 70, "velocity": 122, "duration": 194}, {"note": 65, "velocity": 112, "duration": 226}, {"note": 67, "velocity": 86, "duration": 206}, {"note": 60, "velocity": 102, "duration": 586}, {"note": 0, "velocity": 0, "duration": 374}, {"note": 58, "velocity": 117, "duration": 185}, {"note": 60, "velocity": 96, "duration": 201}, {"note": 63, "velocity": 112, "duration": 229}, {"note": 70, "velocity": 112, "duration": 195}, {"note": 65, "velocity": 107, "duration": 360}, {"note": 0, "velocity": 0, "duration": 120}, {"note": 63, "velocity": 122, "duration": 159}, {"note": 0, "velocity": 0, "duration": 81}, {"note": 65, "velocity": 97, "duration": 194}, {"note": 67, "velocity": 127, "duration": 255}, {"note": 70, "velocity": 112, "duration": 152}, {"note": 0, "velocity": 0, "duration": 88}, {"note": 65, "velocity": 112, "duration": 188}, {"note": 63, "velocity": 122, "duration": 434}, {"note": 67, "velocity": 122, "duration": 521}, {"note": 0, "velocity": 0, "duration": 199}, {"note": 75, "velocity": 127, "duration": 188}, {"note": 74, "velocity": 97, "duration": 124}, {"note": 72, "velocity": 97, "duration": 316}, {"note": 0, "velocity": 0, "duration": 284}, {"note": 70, "velocity": 127, "duration": 313}, {"note": 65, "velocity": 107, "duration": 336}, {"note": 0, "velocity": 0, "duration": 264}, {"note": 67, "velocity": 107, "duration": 204}, {"note": 70, "velocity": 112, "duration": 216}, {"note": 65, "velocity": 99, "duration": 224}, {"note": 67, "velocity": 100, "duration": 214}, {"note": 60, "velocity": 100, "duration": 585}, {"note": 0, "velocity": 0, "duration": 375}, {"note": 58, "velocity": 127, "duration": 207}, {"note": 60, "velocity": 112, "duration": 230}, {"note": 63, "velocity": 127, "duration": 167}, {"note": 0, "velocity": 0, "duration": 73}, {"note": 70, "velocity": 127, "duration": 216}, {"note": 65, "velocity": 112, "duration": 204}, {"note": 67, "velocity": 107, "duration": 380}, {"note": 0, "velocity": 0, "duration": 100}, {"note": 63, "velocity": 127, "duration": 125}, {"note": 0, "velocity": 0, "duration": 115}, {"note": 75, "velocity": 127, "duration": 215}, {"note": 74, "velocity": 97, "duration": 114}, {"note": 72, "velocity": 117, "duration": 315}, {"note": 0, "velocity": 0, "duration": 285}, {"note": 75, "velocity": 127, "duration": 245}, {"note": 74, "velocity": 95, "duration": 132}, {"note": 72, "velocity": 102, "duration": 315}, {"note": 70, "velocity": 122, "duration": 363}, {"note": 0, "velocity": 0, "duration": 117}, {"note": 72, "velocity": 107, "duration": 1109}, {"note": 0, "velocity": 0, "duration": 571}, {"note": 72, "velocity": 90, "duration": 546}, {"note": 0, "velocity": 0, "duration": 174}, {"note": 70, "velocity": 117, "duration": 109}, {"note": 68, "velocity": 90, "duration": 123}, {"note": 67, "velocity": 96, "duration": 481}, {"note": 0, "velocity": 0, "duration": 239}, {"note": 65, "velocity": 92, "duration": 247}, {"note": 67, "velocity": 100, "duration": 894}, {"note": 0, "velocity": 0, "duration": 1026}, {"note": 65, "velocity": 100, "duration": 274}, {"note": 67, "velocity": 81, "duration": 230}, {"note": 60, "velocity": 82, "duration": 1055}, {"note": 0, "velocity": 0, "duration": 385}, {"note": 63, "velocity": 93, "duration": 263}, {"note": 65, "velocity": 59, "duration": 220}, {"note": 60, "velocity": 93, "duration": 1212}, {"note": 0, "velocity": 0, "duration": 9828}, {"note": 60, "velocity": 95, "duration": 506}, {"note": 0, "velocity": 0, "duration": 214}, {"note": 63, "velocity": 102, "duration": 115}, {"note": 0, "velocity": 0, "duration": 125}, {"note": 62, "velocity": 100, "duration": 204}, {"note": 60, "velocity": 68, "duration": 149}, {"note": 0, "velocity": 0, "duration": 91}, {"note": 58, "velocity": 96, "duration": 246}, {"note": 53, "velocity": 88, "duration": 151}, {"note": 0, "velocity": 0, "duration": 89}, {"note": 56, "velocity": 96, "duration": 300}, {"note": 0, "velocity": 0, "duration": 180}, {"note": 55, "velocity": 90, "duration": 701}, {"note": 0, "velocity": 0, "duration": 1219}, {"note": 63, "velocity": 96, "duration": 235}, {"note": 67, "velocity": 90, "duration": 222}, {"note": 65, "velocity": 95, "duration": 231}, {"note": 62, "velocity": 85, "duration": 235}, {"note": 58, "velocity": 81, "duration": 247}, {"note": 63, "velocity": 90, "duration": 332}, {"note": 0, "velocity": 0, "duration": 148}, {"note": 63, "velocity": 99, "duration": 595}, {"note": 0, "velocity": 0, "duration": 1085}, {"note": 60, "velocity": 93, "duration": 234}, {"note": 62, "velocity": 83, "duration": 230}, {"note": 63, "velocity": 100, "duration": 220}, {"note": 67, "velocity": 92, "duration": 242}, {"note": 65, "velocity": 85, "duration": 698}, {"note": 0, "velocity": 0, "duration": 262}, {"note": 65, "velocity": 95, "duration": 207}, {"note": 67, "velocity": 102, "duration": 220}, {"note": 70, "velocity": 107, "duration": 211}, {"note": 65, "velocity": 89, "duration": 230}, {"note": 67, "velocity": 100, "duration": 480}, {"note": 62, "velocity": 93, "duration": 371}, {"note": 0, "velocity": 0, "duration": 109}, {"note": 60, "velocity": 100, "duration": 195}, {"note": 62, "velocity": 88, "duration": 183}, {"note": 63, "velocity": 90, "duration": 187}, {"note": 67, "velocity": 92, "duration": 188}, {"note": 65, "velocity": 86, "duration": 220}, {"note": 62, "velocity": 89, "duration": 154}, {"note": 0, "velocity": 0, "duration": 86}, {"note": 62, "velocity": 93, "duration": 431}, {"note": 58, "velocity": 77, "duration": 200}, {"note": 0, "velocity": 0, "duration": 160}, {"note": 60, "velocity": 85, "duration": 1129}, {"note": 0, "velocity": 0, "duration": 431}, {"note": 60, "velocity": 92, "duration": 452}, {"note": 0, "velocity": 0, "duration": 268}, {"note": 63, "velocity": 112, "duration": 187}, {"note": 62, "velocity": 100, "duration": 223}, {"note": 60, "velocity": 96, "duration": 232}, {"note": 58, "velocity": 97, "duration": 181}, {"note": 53, "velocity": 83, "duration": 440}, {"note": 55, "velocity": 93, "duration": 619}, {"note": 0, "velocity": 0, "duration": 1541}, {"note": 63, "velocity": 97, "duration": 160}, {"note": 0, "velocity": 0, "duration": 80}, {"note": 67, "velocity": 90, "duration": 205}, {"note": 65, "velocity": 97, "duration": 116}, {"note": 0, "velocity": 0, "duration": 124}, {"note": 62, "velocity": 97, "duration": 164}, {"note": 0, "velocity": 0, "duration": 76}, {"note": 58, "velocity": 99, "duration": 110}, {"note": 0, "velocity": 0, "duration": 130}, {"note": 62, "velocity": 100, "duration": 467}, {"note": 63, "velocity": 102, "duration": 1208}, {"note": 0, "velocity": 0, "duration": 472}, {"note": 60, "velocity": 100, "duration": 191}, {"note": 62, "velocity": 100, "duration": 183}, {"note": 63, "velocity": 100, "duration": 156}, {"note": 0, "velocity": 0, "duration": 84}, {"note": 67, "velocity": 99, "duration": 166}, {"note": 0, "velocity": 0, "duration": 74}, {"note": 65, "velocity": 122, "duration": 536}, {"note": 0, "velocity": 0, "duration": 424}, {"note": 65, "velocity": 96, "duration": 155}, {"note": 0, "velocity": 0, "duration": 85}, {"note": 67, "velocity": 99, "duration": 173}, {"note": 0, "velocity": 0, "duration": 67}, {"note": 70, "velocity": 117, "duration": 166}, {"note": 0, "velocity": 0, "duration": 74}, {"note": 65, "velocity": 96, "duration": 169}, {"note": 0, "velocity": 0, "duration": 71}, {"note": 67, "velocity": 107, "duration": 453}, {"note": 62, "velocity": 97, "duration": 254}, {"note": 0, "velocity": 0, "duration": 226}, {"note": 60, "velocity": 112, "duration": 163}, {"note": 0, "velocity": 0, "duration": 77}, {"note": 62, "velocity": 97, "duration": 152}, {"note": 0, "velocity": 0, "duration": 88}, {"note": 63, "velocity": 99, "duration": 148}, {"note": 0, "velocity": 0, "duration": 92}, {"note": 67, "velocity": 96, "duration": 153}, {"note": 0, "velocity": 0, "duration": 87}, {"note": 65, "velocity": 107, "duration": 195}, {"note": 62, "velocity": 88, "duration": 112}, {"note": 0, "velocity": 0, "duration": 128}, {"note": 62, "velocity": 96, "duration": 374}, {"note": 0, "velocity": 0, "duration": 106}, {"note": 58, "velocity": 93, "duration": 147}, {"note": 0, "velocity": 0, "duration": 213}, {"note": 60, "velocity": 90, "duration": 1080}, {"note": 0, "velocity": 0, "duration": 480}, {"note": 75, "velocity": 127, "duration": 225}, {"note": 74, "velocity": 97, "duration": 103}, {"note": 0, "velocity": 0, "duration": 137}, {"note": 72, "velocity": 112, "duration": 315}, {"note": 0, "velocity": 0, "duration": 165}, {"note": 70, "velocity": 127, "duration": 463}, {"note": 65, "velocity": 96, "duration": 290}, {"note": 0, "velocity": 0, "duration": 190}, {"note": 67, "velocity": 122, "duration": 235}, {"note": 70, "velocity": 122, "duration": 194}, {"note": 65, "velocity": 112, "duration": 226}, {"note": 67, "velocity": 86, "duration": 206}, {"note": 60, "velocity": 102, "duration": 586}, {"note": 0, "velocity": 0, "duration": 374}, {"note": 58, "velocity": 117, "duration": 185}, {"note": 60, "velocity": 96, "duration": 201}, {"note": 63, "velocity": 112, "duration": 229}, {"note": 70, "velocity": 112, "duration": 195}, {"note": 65, "velocity": 107, "duration": 360}, {"note": 0, "velocity": 0, "duration": 120}, {"note": 63, "velocity": 122, "duration": 159}, {"note": 0, "velocity": 0, "duration": 81}, {"note": 65, "velocity": 97, "duration": 194}, {"note": 67, "velocity": 127, "duration": 255}, {"note": 70, "velocity": 112, "duration": 152}, {"note": 0, "velocity": 0, "duration": 88}, {"note": 65, "velocity": 112, "duration": 188}, {"note": 63, "velocity": 122, "duration": 434}, {"note": 67, "velocity": 122, "duration": 521}, {"note": 0, "velocity": 0, "duration": 199}, {"note": 75, "velocity": 127, "duration": 188}, {"note": 74, "velocity": 97, "duration": 124}, {"note": 72, "velocity": 97, "duration": 316}, {"note": 0, "velocity": 0, "duration": 284}, {"note": 70, "velocity": 127, "duration": 313}, {"note": 65, "velocity": 107, "duration": 336}, {"note": 0, "velocity": 0, "duration": 264}, {"note": 67, "velocity": 107, "duration": 204}, {"note": 70, "velocity": 112, "duration": 216}, {"note": 65, "velocity": 99, "duration": 224}, {"note": 67, "velocity": 100, "duration": 214}, {"note": 60, "velocity": 100, "duration": 585}, {"note": 0, "velocity": 0, "duration": 375}, {"note": 58, "velocity": 127, "duration": 207}, {"note": 60, "velocity": 112, "duration": 230}, {"note": 63, "velocity": 127, "duration": 167}, {"note": 0, "velocity": 0, "duration": 73}, {"note": 70, "velocity": 127, "duration": 216}, {"note": 65, "velocity": 112, "duration": 204}, {"note": 67, "velocity": 107, "duration": 380}, {"note": 0, "velocity": 0, "duration": 100}, {"note": 63, "velocity": 127, "duration": 125}, {"note": 0, "velocity": 0, "duration": 115}, {"note": 75, "velocity": 127, "duration": 215}, {"note": 74, "velocity": 97, "duration": 114}, {"note": 72, "velocity": 117, "duration": 315}, {"note": 0, "velocity": 0, "duration": 285}, {"note": 75, "velocity": 127, "duration": 245}, {"note": 74, "velocity": 95, "duration": 132}, {"note": 72, "velocity": 102, "duration": 315}, {"note": 70, "velocity": 122, "duration": 363}, {"note": 0, "velocity": 0, "duration": 117}, {"note": 72, "velocity": 107, "duration": 1109}, {"note": 0, "velocity": 0, "duration": 6331}, {"note": 75, "velocity": 127, "duration": 225}, {"note": 74, "velocity": 97, "duration": 103}, {"note": 0, "velocity": 0, "duration": 137}, {"note": 72, "velocity": 112, "duration": 315}, {"note": 0, "velocity": 0, "duration": 165}, {"note": 70, "velocity": 127, "duration": 463}, {"note": 65, "velocity": 96, "duration": 290}, {"note": 0, "velocity": 0, "duration": 190}, {"note": 67, "velocity": 122, "duration": 235}, {"note": 70, "velocity": 122, "duration": 194}, {"note": 65, "velocity": 112, "duration": 226}, {"note": 67, "velocity": 86, "duration": 206}, {"note": 60, "velocity": 102, "duration": 824}, {"note": 0, "velocity": 0, "duration": 136}, {"note": 58, "velocity": 117, "duration": 185}, {"note": 60, "velocity": 96, "duration": 201}, {"note": 63, "velocity": 112, "duration": 229}, {"note": 70, "velocity": 112, "duration": 195}, {"note": 65, "velocity": 107, "duration": 360}, {"note": 0, "velocity": 0, "duration": 120}, {"note": 63, "velocity": 122, "duration": 159}, {"note": 0, "velocity": 0, "duration": 81}, {"note": 65, "velocity": 97, "duration": 194}, {"note": 67, "velocity": 127, "duration": 255}, {"note": 70, "velocity": 112, "duration": 152}, {"note": 0, "velocity": 0, "duration": 88}, {"note": 65, "velocity": 112, "duration": 188}, {"note": 63, "velocity": 122, "duration": 434}, {"note": 67, "velocity": 122, "duration": 521}, {"note": 0, "velocity": 0, "duration": 199}, {"note": 75, "velocity": 127, "duration": 188}, {"note": 74, "velocity": 97, "duration": 124}, {"note": 72, "velocity": 97, "duration": 316}, {"note": 0, "velocity": 0, "duration": 284}, {"note": 70, "velocity": 127, "duration": 313}, {"note": 65, "velocity": 107, "duration": 336}, {"note": 0, "velocity": 0, "duration": 264}, {"note": 67, "velocity": 107, "duration": 204}, {"note": 70, "velocity": 112, "duration": 216}, {"note": 65, "velocity": 99, "duration": 224}, {"note": 67, "velocity": 100, "duration": 214}, {"note": 60, "velocity": 100, "duration": 585}, {"note": 0, "velocity": 0, "duration": 375}, {"note": 58, "velocity": 127, "duration": 207}, {"note": 60, "velocity": 112, "duration": 230}, {"note": 63, "velocity": 127, "duration": 167}, {"note": 0, "velocity": 0, "duration": 73}, {"note": 70, "velocity": 127, "duration": 216}, {"note": 65, "velocity": 112, "duration": 204}, {"note": 67, "velocity": 107, "duration": 380}, {"note": 0, "velocity": 0, "duration": 100}, {"note": 63, "velocity": 127, "duration": 125}, {"note": 0, "velocity": 0, "duration": 115}, {"note": 75, "velocity": 127, "duration": 215}, {"note": 74, "velocity": 97, "duration": 114}, {"note": 72, "velocity": 117, "duration": 315}, {"note": 0, "velocity": 0, "duration": 285}, {"note": 75, "velocity": 127, "duration": 245}, {"note": 74, "velocity": 95, "duration": 132}, {"note": 72, "velocity": 102, "duration": 315}, {"note": 70, "velocity": 122, "duration": 363}, {"note": 0, "velocity": 0, "duration": 117}, {"note": 72, "velocity": 107, "duration": 1109}, {"note": 0, "velocity": 0, "duration": 571}, {"note": 72, "velocity": 127, "duration": 570}, {"note": 0, "velocity": 0, "duration": 150}, {"note": 70, "velocity": 117, "duration": 124}, {"note": 68, "velocity": 93, "duration": 129}, {"note": 67, "velocity": 102, "duration": 603}, {"note": 0, "velocity": 0, "duration": 117}, {"note": 65, "velocity": 99, "duration": 229}, {"note": 67, "velocity": 117, "duration": 1327}, {"note": 0, "velocity": 0, "duration": 593}, {"note": 67, "velocity": 89, "duration": 465}, {"note": 60, "velocity": 102, "duration": 1311}, {"note": 0, "velocity": 0, "duration": 129}, {"note": 63, "velocity": 102, "duration": 246}, {"note": 65, "velocity": 92, "duration": 254}, {"note": 60, "velocity": 95, "duration": 2259}]]