[[{"note": 69, "velocity": 117, "duration": 933}, {"note": 67, "velocity": 112, "duration": 734}, {"note": 0, "velocity": 0, "duration": 226}, {"note": 65, "velocity": 112, "duration": 943}, {"note": 0, "velocity": 0, "duration": 977}, {"note": 65, "velocity": 102, "duration": 948}, {"note": 64, "velocity": 99, "duration": 744}, {"note": 65, "velocity": 95, "duration": 250}, {"note": 62, "velocity": 92, "duration": 1533}, {"note": 0, "velocity": 0, "duration": 7587}, {"note": 62, "velocity": 96, "duration": 197}, {"note": 64, "velocity": 93, "duration": 168}, {"note": 0, "velocity": 0, "duration": 72}, {"note": 65, "velocity": 107, "duration": 416}, {"note": 0, "velocity": 0, "duration": 64}, {"note": 57, "velocity": 107, "duration": 186}, {"note": 65, "velocity": 99, "duration": 191}, {"note": 64, "velocity": 99, "duration": 248}, {"note": 0, "velocity": 0, "duration": 232}, {"note": 62, "velocity": 102, "duration": 187}, {"note": 60, "velocity": 85, "duration": 176}, {"note": 0, "velocity": 0, "duration": 64}, {"note": 62, "velocity": 100, "duration": 414}, {"note": 0, "velocity": 0, "duration": 66}, {"note": 60, "velocity": 99, "duration": 193}, {"note": 62, "velocity": 96, "duration": 211}, {"note": 57, "velocity": 97, "duration": 265}, {"note": 0, "velocity": 0, "duration": 215}, {"note": 62, "velocity": 102, "duration": 167}, {"note": 0, "velocity": 0, "duration": 73}, {"note": 64, "velocity": 93, "duration": 204}, {"note": 65, "velocity": 117, "duration": 246}, {"note": 0, "velocity": 0, "duration": 234}, {"note": 57, "velocity": 112, "duration": 182}, {"note": 65, "velocity": 112, "duration": 213}, {"note": 64, "velocity": 112, "duration": 304}, {"note": 0, "velocity": 0, "duration": 176}, {"note": 62, "velocity": 122, "duration": 219}, {"note": 60, "velocity": 93, "duration": 187}, {"note": 62, "velocity": 97, "duration": 192}, {"note": 65, "velocity": 95, "duration": 173}, {"note": 0, "velocity": 0, "duration": 67}, {"note": 64, "velocity": 100, "duration": 147}, {"note": 0, "velocity": 0, "duration": 93}, {"note": 60, "velocity": 92, "duration": 182}, {"note": 62, "velocity": 102, "duration": 388}, {"note": 0, "velocity": 0, "duration": 92}, {"note": 62, "velocity": 96, "duration": 197}, {"note": 64, "velocity": 93, "duration": 168}, {"note": 0, "velocity": 0, "duration": 72}, {"note": 65, "velocity": 107, "duration": 416}, {"note": 0, "velocity": 0, "duration": 64}, {"note": 57, "velocity": 107, "duration": 186}, {"note": 65, "velocity": 99, "duration": 191}, {"note": 64, "velocity": 99, "duration": 248}, {"note": 0, "velocity": 0, "duration": 232}, {"note": 62, "velocity": 102, "duration": 187}, {"note": 60, "velocity": 85, "duration": 176}, {"note": 0, "velocity": 0, "duration": 64}, {"note": 62, "velocity": 100, "duration": 414}, {"note": 0, "velocity": 0, "duration": 66}, {"note": 60, "velocity": 99, "duration": 193}, {"note": 62, "velocity": 96, "duration": 211}, {"note": 57, "velocity": 97, "duration": 265}, {"note": 0, "velocity": 0, "duration": 215}, {"note": 62, "velocity": 102, "duration": 167}, {"note": 0, "velocity": 0, "duration": 73}, {"note": 64, "velocity": 93, "duration": 204}, {"note": 65, "velocity": 117, "duration": 246}, {"note": 0, "velocity": 0, "duration": 234}, {"note": 67, "velocity": 117, "duration": 224}, {"note": 69, "velocity": 96, "duration": 178}, {"note": 0, "velocity": 0, "duration": 62}, {"note": 64, "velocity": 102, "duration": 308}, {"note": 0, "velocity": 0, "duration": 172}, {"note": 62, "velocity": 122, "duration": 219}, {"note": 60, "velocity": 93, "duration": 187}, {"note": 62, "velocity": 97, "duration": 192}, {"note": 65, "velocity": 95, "duration": 173}, {"note": 0, "velocity": 0, "duration": 67}, {"note": 64, "velocity": 100, "duration": 147}, {"note": 0, "velocity": 0, "duration": 93}, {"note": 60, "velocity": 92, "duration": 182}, {"note": 62, "velocity": 102, "duration": 388}, {"note": 0, "velocity": 0, "duration": 92}, {"note": 65, "velocity": 107, "duration": 183}, {"note": 67, "velocity": 112, "duration": 141}, {"note": 0, "velocity": 0, "duration": 99}, {"note": 69, "velocity": 122, "duration": 223}, {"note": 72, "velocity": 93, "duration": 158}, {"note": 0, "velocity": 0, "duration": 82}, {"note": 69, "velocity": 102, "duration": 258}, {"note": 65, "velocity": 73, "duration": 171}, {"note": 0, "velocity": 0, "duration": 69}, {"note": 67, "velocity": 127, "duration": 240}, {"note": 0, "velocity": 0, "duration": 240}, {"note": 64, "velocity": 112, "duration": 158}, {"note": 0, "velocity": 0, "duration": 82}, {"note": 62, "velocity": 102, "duration": 147}, {"note": 0, "velocity": 0, "duration": 93}, {"note": 60, "velocity": 107, "duration": 156}, {"note": 0, "velocity": 0, "duration": 84}, {"note": 57, "velocity": 117, "duration": 164}, {"note": 0, "velocity": 0, "duration": 76}, {"note": 67, "velocity": 122, "duration": 184}, {"note": 69, "velocity": 112, "duration": 159}, {"note": 0, "velocity": 0, "duration": 81}, {"note": 65, "velocity": 127, "duration": 253}, {"note": 0, "velocity": 0, "duration": 227}, {"note": 62, "velocity": 117, "duration": 150}, {"note": 0, "velocity": 0, "duration": 90}, {"note": 64, "velocity": 107, "duration": 143}, {"note": 0, "velocity": 0, "duration": 97}, {"note": 65, "velocity": 117, "duration": 195}, {"note": 0, "velocity": 0, "duration": 285}, {"note": 67, "velocity": 127, "duration": 184}, {"note": 69, "velocity": 117, "duration": 144}, {"note": 0, "velocity": 0, "duration": 96}, {"note": 64, "velocity": 127, "duration": 202}, {"note": 0, "velocity": 0, "duration": 278}, {"note": 62, "velocity": 100, "duration": 162}, {"note": 0, "velocity": 0, "duration": 78}, {"note": 64, "velocity": 100, "duration": 159}, {"note": 0, "velocity": 0, "duration": 81}, {"note": 65, "velocity": 122, "duration": 172}, {"note": 0, "velocity": 0, "duration": 68}, {"note": 65, "velocity": 107, "duration": 155}, {"note": 0, "velocity": 0, "duration": 85}, {"note": 65, "velocity": 117, "duration": 148}, {"note": 0, "velocity": 0, "duration": 92}, {"note": 67, "velocity": 127, "duration": 165}, {"note": 0, "velocity": 0, "duration": 75}, {"note": 69, "velocity": 127, "duration": 285}, {"note": 0, "velocity": 0, "duration": 195}, {"note": 65, "velocity": 107, "duration": 183}, {"note": 67, "velocity": 112, "duration": 141}, {"note": 0, "velocity": 0, "duration": 99}, {"note": 69, "velocity": 122, "duration": 223}, {"note": 72, "velocity": 93, "duration": 158}, {"note": 0, "velocity": 0, "duration": 82}, {"note": 69, "velocity": 102, "duration": 258}, {"note": 65, "velocity": 73, "duration": 171}, {"note": 0, "velocity": 0, "duration": 69}, {"note": 67, "velocity": 127, "duration": 240}, {"note": 0, "velocity": 0, "duration": 240}, {"note": 64, "velocity": 112, "duration": 158}, {"note": 0, "velocity": 0, "duration": 82}, {"note": 62, "velocity": 102, "duration": 147}, {"note": 0, "velocity": 0, "duration": 93}, {"note": 60, "velocity": 107, "duration": 156}, {"note": 0, "velocity": 0, "duration": 84}, {"note": 57, "velocity": 117, "duration": 164}, {"note": 0, "velocity": 0, "duration": 76}, {"note": 67, "velocity": 122, "duration": 184}, {"note": 69, "velocity": 112, "duration": 159}, {"note": 0, "velocity": 0, "duration": 81}, {"note": 65, "velocity": 127, "duration": 253}, {"note": 0, "velocity": 0, "duration": 227}, {"note": 62, "velocity": 117, "duration": 150}, {"note": 0, "velocity": 0, "duration": 90}, {"note": 64, "velocity": 107, "duration": 143}, {"note": 0, "velocity": 0, "duration": 97}, {"note": 65, "velocity": 117, "duration": 195}, {"note": 0, "velocity": 0, "duration": 285}, {"note": 67, "velocity": 127, "duration": 184}, {"note": 69, "velocity": 117, "duration": 144}, {"note": 0, "velocity": 0, "duration": 96}, {"note": 64, "velocity": 127, "duration": 202}, {"note": 0, "velocity": 0, "duration": 278}, {"note": 62, "velocity": 100, "duration": 162}, {"note": 0, "velocity": 0, "duration": 78}, {"note": 60, "velocity": 97, "duration": 279}, {"note": 0, "velocity": 0, "duration": 201}, {"note": 62, "velocity": 117, "duration": 1231}, {"note": 0, "velocity": 0, "duration": 15329}, {"note": 62, "velocity": 96, "duration": 197}, {"note": 64, "velocity": 93, "duration": 168}, {"note": 0, "velocity": 0, "duration": 72}, {"note": 65, "velocity": 107, "duration": 416}, {"note": 0, "velocity": 0, "duration": 64}, {"note": 57, "velocity": 107, "duration": 186}, {"note": 65, "velocity": 99, "duration": 191}, {"note": 64, "velocity": 99, "duration": 248}, {"note": 0, "velocity": 0, "duration": 232}, {"note": 62, "velocity": 102, "duration": 187}, {"note": 60, "velocity": 85, "duration": 176}, {"note": 0, "velocity": 0, "duration": 64}, {"note": 62, "velocity": 100, "duration": 414}, {"note": 0, "velocity": 0, "duration": 66}, {"note": 60, "velocity": 99, "duration": 193}, {"note": 62, "velocity": 96, "duration": 211}, {"note": 57, "velocity": 97, "duration": 265}, {"note": 0, "velocity": 0, "duration": 215}, {"note": 62, "velocity": 102, "duration": 167}, {"note": 0, "velocity": 0, "duration": 73}, {"note": 64, "velocity": 93, "duration": 204}, {"note": 65, "velocity": 117, "duration": 246}, {"note": 0, "velocity": 0, "duration": 234}, {"note": 57, "velocity": 112, "duration": 182}, {"note": 65, "velocity": 112, "duration": 213}, {"note": 64, "velocity": 112, "duration": 304}, {"note": 0, "velocity": 0, "duration": 176}, {"note": 62, "velocity": 122, "duration": 219}, {"note": 60, "velocity": 93, "duration": 187}, {"note": 62, "velocity": 97, "duration": 192}, {"note": 65, "velocity": 95, "duration": 173}, {"note": 0, "velocity": 0, "duration": 67}, {"note": 64, "velocity": 100, "duration": 147}, {"note": 0, "velocity": 0, "duration": 93}, {"note": 60, "velocity": 92, "duration": 182}, {"note": 62, "velocity": 102, "duration": 388}, {"note": 0, "velocity": 0, "duration": 92}, {"note": 62, "velocity": 96, "duration": 197}, {"note": 64, "velocity": 93, "duration": 168}, {"note": 0, "velocity": 0, "duration": 72}, {"note": 65, "velocity": 107, "duration": 416}, {"note": 0, "velocity": 0, "duration": 64}, {"note": 57, "velocity": 107, "duration": 186}, {"note": 65, "velocity": 99, "duration": 191}, {"note": 64, "velocity": 99, "duration": 248}, {"note": 0, "velocity": 0, "duration": 232}, {"note": 62, "velocity": 102, "duration": 187}, {"note": 60, "velocity": 85, "duration": 176}, {"note": 0, "velocity": 0, "duration": 64}, {"note": 62, "velocity": 100, "duration": 414}, {"note": 0, "velocity": 0, "duration": 66}, {"note": 60, "velocity": 99, "duration": 193}, {"note": 62, "velocity": 96, "duration": 211}, {"note": 57, "velocity": 97, "duration": 265}, {"note": 0, "velocity": 0, "duration": 215}, {"note": 62, "velocity": 102, "duration": 167}, {"note": 0, "velocity": 0, "duration": 73}, {"note": 64, "velocity": 93, "duration": 204}, {"note": 65, "velocity": 117, "duration": 246}, {"note": 0, "velocity": 0, "duration": 234}, {"note": 67, "velocity": 117, "duration": 224}, {"note": 69, "velocity": 96, "duration": 178}, {"note": 0, "velocity": 0, "duration": 62}, {"note": 64, "velocity": 102, "duration": 308}, {"note": 0, "velocity": 0, "duration": 172}, {"note": 62, "velocity": 122, "duration": 219}, {"note": 60, "velocity": 93, "duration": 187}, {"note": 62, "velocity": 97, "duration": 192}, {"note": 65, "velocity": 95, "duration": 173}, {"note": 0, "velocity": 0, "duration": 67}, {"note": 64, "velocity": 100, "duration": 147}, {"note": 0, "velocity": 0, "duration": 93}, {"note": 60, "velocity": 92, "duration": 182}, {"note": 62, "velocity": 102, "duration": 388}, {"note": 0, "velocity": 0, "duration": 92}, {"note": 65, "velocity": 107, "duration": 183}, {"note": 67, "velocity": 112, "duration": 141}, {"note": 0, "velocity": 0, "duration": 99}, {"note": 69, "velocity": 122, "duration": 223}, {"note": 72, "velocity": 93, "duration": 158}, {"note": 0, "velocity": 0, "duration": 82}, {"note": 69, "velocity": 102, "duration": 258}, {"note": 65, "velocity": 73, "duration": 171}, {"note": 0, "velocity": 0, "duration": 69}, {"note": 67, "velocity": 127, "duration": 240}, {"note": 0, "velocity": 0, "duration": 240}, {"note": 64, "velocity": 112, "duration": 158}, {"note": 0, "velocity": 0, "duration": 82}, {"note": 62, "velocity": 102, "duration": 147}, {"note": 0, "velocity": 0, "duration": 93}, {"note": 60, "velocity": 107, "duration": 156}, {"note": 0, "velocity": 0, "duration": 84}, {"note": 57, "velocity": 117, "duration": 164}, {"note": 0, "velocity": 0, "duration": 76}, {"note": 67, "velocity": 122, "duration": 184}, {"note": 69, "velocity": 112, "duration": 159}, {"note": 0, "velocity": 0, "duration": 81}, {"note": 65, "velocity": 127, "duration": 253}, {"note": 0, "velocity": 0, "duration": 227}, {"note": 62, "velocity": 117, "duration": 150}, {"note": 0, "velocity": 0, "duration": 90}, {"note": 64, "velocity": 107, "duration": 143}, {"note": 0, "velocity": 0, "duration": 97}, {"note": 65, "velocity": 117, "duration": 195}, {"note": 0, "velocity": 0, "duration": 285}, {"note": 67, "velocity": 127, "duration": 184}, {"note": 69, "velocity": 117, "duration": 144}, {"note": 0, "velocity": 0, "duration": 96}, {"note": 64, "velocity": 127, "duration": 202}, {"note": 0, "velocity": 0, "duration": 278}, {"note": 62, "velocity": 100, "duration": 162}, {"note": 0, "velocity": 0, "duration": 78}, {"note": 64, "velocity": 100, "duration": 159}, {"note": 0, "velocity": 0, "duration": 81}, {"note": 65, "velocity": 122, "duration": 172}, {"note": 0, "velocity": 0, "duration": 68}, {"note": 65, "velocity": 107, "duration": 155}, {"note": 0, "velocity": 0, "duration": 85}, {"note": 65, "velocity": 117, "duration": 148}, {"note": 0, "velocity": 0, "duration": 92}, {"note": 67, "velocity": 127, "duration": 165}, {"note": 0, "velocity": 0, "duration": 75}, {"note": 69, "velocity": 127, "duration": 285}, {"note": 0, "velocity": 0, "duration": 195}, {"note": 65, "velocity": 107, "duration": 183}, {"note": 67, "velocity": 112, "duration": 141}, {"note": 0, "velocity": 0, "duration": 99}, {"note": 69, "velocity": 122, "duration": 223}, {"note": 72, "velocity": 93, "duration": 158}, {"note": 0, "velocity": 0, "duration": 82}, {"note": 69, "velocity": 102, "duration": 258}, {"note": 65, "velocity": 73, "duration": 171}, {"note": 0, "velocity": 0, "duration": 69}, {"note": 67, "velocity": 127, "duration": 240}, {"note": 0, "velocity": 0, "duration": 240}, {"note": 64, "velocity": 112, "duration": 158}, {"note": 0, "velocity": 0, "duration": 82}, {"note": 62, "velocity": 102, "duration": 147}, {"note": 0, "velocity": 0, "duration": 93}, {"note": 60, "velocity": 107, "duration": 156}, {"note": 0, "velocity": 0, "duration": 84}, {"note": 57, "velocity": 117, "duration": 164}, {"note": 0, "velocity": 0, "duration": 76}, {"note": 67, "velocity": 122, "duration": 184}, {"note": 69, "velocity": 112, "duration": 159}, {"note": 0, "velocity": 0, "duration": 81}, {"note": 65, "velocity": 127, "duration": 253}, {"note": 0, "velocity": 0, "duration": 227}, {"note": 62, "velocity": 117, "duration": 150}, {"note": 0, "velocity": 0, "duration": 90}, {"note": 64, "velocity": 107, "duration": 143}, {"note": 0, "velocity": 0, "duration": 97}, {"note": 65, "velocity": 117, "duration": 195}, {"note": 0, "velocity": 0, "duration": 285}, {"note": 67, "velocity": 127, "duration": 184}, {"note": 69, "velocity": 117, "duration": 144}, {"note": 0, "velocity": 0, "duration": 96}, {"note": 64, "velocity": 127, "duration": 202}, {"note": 0, "velocity": 0, "duration": 278}, {"note": 62, "velocity": 100, "duration": 162}, {"note": 0, "velocity": 0, "duration": 78}, {"note": 60, "velocity": 97, "duration": 279}, {"note": 0, "velocity": 0, "duration": 201}, {"note": 62, "velocity": 117, "duration": 1084}, {"note": 0, "velocity": 0, "duration": 116}, {"note": 65, "velocity": 107, "duration": 183}, {"note": 67, "velocity": 112, "duration": 141}, {"note": 0, "velocity": 0, "duration": 99}, {"note": 69, "velocity": 122, "duration": 223}, {"note": 72, "velocity": 93, "duration": 158}, {"note": 0, "velocity": 0, "duration": 82}, {"note": 69, "velocity": 102, "duration": 258}, {"note": 65, "velocity": 73, "duration": 171}, {"note": 0, "velocity": 0, "duration": 69}, {"note": 67, "velocity": 127, "duration": 240}, {"note": 0, "velocity": 0, "duration": 240}, {"note": 64, "velocity": 112, "duration": 158}, {"note": 0, "velocity": 0, "duration": 82}, {"note": 62, "velocity": 102, "duration": 147}, {"note": 0, "velocity": 0, "duration": 93}, {"note": 60, "velocity": 107, "duration": 156}, {"note": 0, "velocity": 0, "duration": 84}, {"note": 57, "velocity": 117, "duration": 164}, {"note": 0, "velocity": 0, "duration": 76}, {"note": 67, "velocity": 122, "duration": 184}, {"note": 69, "velocity": 112, "duration": 159}, {"note": 0, "velocity": 0, "duration": 81}, {"note": 65, "velocity": 127, "duration": 253}, {"note": 0, "velocity": 0, "duration": 227}, {"note": 62, "velocity": 117, "duration": 150}, {"note": 0, "velocity": 0, "duration": 90}, {"note": 64, "velocity": 107, "duration": 143}, {"note": 0, "velocity": 0, "duration": 97}, {"note": 65, "velocity": 117, "duration": 195}, {"note": 0, "velocity": 0, "duration": 285}, {"note": 67, "velocity": 127, "duration": 184}, {"note": 69, "velocity": 117, "duration": 144}, {"note": 0, "velocity": 0, "duration": 96}, {"note": 64, "velocity": 127, "duration": 202}, {"note": 0, "velocity": 0, "duration": 278}, {"note": 62, "velocity": 100, "duration": 162}, {"note": 0, "velocity": 0, "duration": 78}, {"note": 64, "velocity": 100, "duration": 159}, {"note": 0, "velocity": 0, "duration": 81}, {"note": 65, "velocity": 122, "duration": 172}, {"note": 0, "velocity": 0, "duration": 68}, {"note": 65, "velocity": 107, "duration": 155}, {"note": 0, "velocity": 0, "duration": 85}, {"note": 65, "velocity": 117, "duration": 148}, {"note": 0, "velocity": 0, "duration": 92}, {"note": 67, "velocity": 127, "duration": 165}, {"note": 0, "velocity": 0, "duration": 75}, {"note": 69, "velocity": 127, "duration": 285}, {"note": 0, "velocity": 0, "duration": 195}, {"note": 65, "velocity": 107, "duration": 183}, {"note": 67, "velocity": 112, "duration": 141}, {"note": 0, "velocity": 0, "duration": 99}, {"note": 69, "velocity": 122, "duration": 223}, {"note": 72, "velocity": 93, "duration": 158}, {"note": 0, "velocity": 0, "duration": 82}, {"note": 69, "velocity": 102, "duration": 258}, {"note": 65, "velocity": 73, "duration": 171}, {"note": 0, "velocity": 0, "duration": 69}, {"note": 67, "velocity": 127, "duration": 240}, {"note": 0, "velocity": 0, "duration": 240}, {"note": 64, "velocity": 112, "duration": 158}, {"note": 0, "velocity": 0, "duration": 82}, {"note": 62, "velocity": 102, "duration": 147}, {"note": 0, "velocity": 0, "duration": 93}, {"note": 60, "velocity": 107, "duration": 156}, {"note": 0, "velocity": 0, "duration": 84}, {"note": 57, "velocity": 117, "duration": 164}, {"note": 0, "velocity": 0, "duration": 76}, {"note": 67, "velocity": 122, "duration": 184}, {"note": 69, "velocity": 112, "duration": 159}, {"note": 0, "velocity": 0, "duration": 81}, {"note": 65, "velocity": 127, "duration": 253}, {"note": 0, "velocity": 0, "duration": 227}, {"note": 62, "velocity": 117, "duration": 150}, {"note": 0, "velocity": 0, "duration": 90}, {"note": 64, "velocity": 107, "duration": 143}, {"note": 0, "velocity": 0, "duration": 97}, {"note": 65, "velocity": 117, "duration": 195}, {"note": 0, "velocity": 0, "duration": 285}, {"note": 67, "velocity": 127, "duration": 184}, {"note": 69, "velocity": 117, "duration": 144}, {"note": 0, "velocity": 0, "duration": 96}, {"note": 64, "velocity": 127, "duration": 202}, {"note": 0, "velocity": 0, "duration": 278}, {"note": 62, "velocity": 100, "duration": 162}, {"note": 0, "velocity": 0, "duration": 78}, {"note": 60, "velocity": 97, "duration": 279}, {"note": 0, "velocity": 0, "duration": 201}, {"note": 62, "velocity": 117, "duration": 904}, {"note": 0, "velocity": 0, "duration": 296}, {"note": 62, "velocity": 117, "duration": 150}, {"note": 0, "velocity": 0, "duration": 90}, {"note": 64, "velocity": 107, "duration": 143}, {"note": 0, "velocity": 0, "duration": 97}, {"note": 65, "velocity": 117, "duration": 195}, {"note": 0, "velocity": 0, "duration": 285}, {"note": 67, "velocity": 127, "duration": 184}, {"note": 69, "velocity": 117, "duration": 144}, {"note": 0, "velocity": 0, "duration": 96}, {"note": 64, "velocity": 127, "duration": 202}, {"note": 0, "velocity": 0, "duration": 278}, {"note": 62, "velocity": 100, "duration": 162}, {"note": 0, "velocity": 0, "duration": 78}, {"note": 60, "velocity": 97, "duration": 279}, {"note": 0, "velocity": 0, "duration": 201}, {"note": 62, "velocity": 117, "duration": 894}, {"note": 0, "velocity": 0, "duration": 306}, {"note": 62, "velocity": 99, "duration": 190}, {"note": 64, "velocity": 99, "duration": 184}, {"note": 65, "velocity": 107, "duration": 454}, {"note": 0, "velocity": 0, "duration": 407}, {"note": 67, "velocity": 99, "duration": 226}, {"note": 69, "velocity": 93, "duration": 247}, {"note": 0, "velocity": 0, "duration": 81}, {"note": 64, "velocity": 107, "duration": 1383}, {"note": 0, "velocity": 0, "duration": 272}, {"note": 62, "velocity": 97, "duration": 303}, {"note": 0, "velocity": 0, "duration": 65}, {"note": 60, "velocity": 93, "duration": 551}, {"note": 62, "velocity": 100, "duration": 3456}]]