[[{"note": 71, "velocity": 99, "duration": 134}, {"note": 0, "velocity": 0, "duration": 106}, {"note": 71, "velocity": 86, "duration": 105}, {"note": 0, "velocity": 0, "duration": 135}, {"note": 71, "velocity": 92, "duration": 95}, {"note": 0, "velocity": 0, "duration": 145}, {"note": 71, "velocity": 100, "duration": 136}, {"note": 0, "velocity": 0, "duration": 104}, {"note": 68, "velocity": 117, "duration": 253}, {"note": 0, "velocity": 0, "duration": 227}, {"note": 66, "velocity": 97, "duration": 77}, {"note": 0, "velocity": 0, "duration": 163}, {"note": 68, "velocity": 122, "duration": 896}, {"note": 0, "velocity": 0, "duration": 64}, {"note": 64, "velocity": 75, "duration": 113}, {"note": 0, "velocity": 0, "duration": 127}, {"note": 64, "velocity": 77, "duration": 180}, {"note": 66, "velocity": 96, "duration": 211}, {"note": 68, "velocity": 93, "duration": 496}, {"note": 61, "velocity": 93, "duration": 1565}, {"note": 0, "velocity": 0, "duration": 2275}, {"note": 66, "velocity": 127, "duration": 171}, {"note": 0, "velocity": 0, "duration": 69}, {"note": 68, "velocity": 100, "duration": 233}, {"note": 66, "velocity": 100, "duration": 141}, {"note": 0, "velocity": 0, "duration": 99}, {"note": 68, "velocity": 107, "duration": 127}, {"note": 0, "velocity": 0, "duration": 113}, {"note": 71, "velocity": 100, "duration": 353}, {"note": 0, "velocity": 0, "duration": 127}, {"note": 68, "velocity": 122, "duration": 454}, {"note": 66, "velocity": 112, "duration": 689}, {"note": 64, "velocity": 90, "duration": 97}, {"note": 0, "velocity": 0, "duration": 143}, {"note": 64, "velocity": 90, "duration": 152}, {"note": 0, "velocity": 0, "duration": 88}, {"note": 61, "velocity": 83, "duration": 218}, {"note": 59, "velocity": 90, "duration": 504}, {"note": 68, "velocity": 99, "duration": 1876}, {"note": 0, "velocity": 0, "duration": 1964}, {"note": 71, "velocity": 99, "duration": 114}, {"note": 0, "velocity": 0, "duration": 126}, {"note": 71, "velocity": 72, "duration": 104}, {"note": 0, "velocity": 0, "duration": 136}, {"note": 71, "velocity": 70, "duration": 96}, {"note": 0, "velocity": 0, "duration": 144}, {"note": 71, "velocity": 92, "duration": 117}, {"note": 0, "velocity": 0, "duration": 123}, {"note": 68, "velocity": 96, "duration": 269}, {"note": 0, "velocity": 0, "duration": 211}, {"note": 66, "velocity": 92, "duration": 123}, {"note": 0, "velocity": 0, "duration": 117}, {"note": 68, "velocity": 112, "duration": 857}, {"note": 0, "velocity": 0, "duration": 103}, {"note": 64, "velocity": 85, "duration": 97}, {"note": 0, "velocity": 0, "duration": 143}, {"note": 64, "velocity": 82, "duration": 132}, {"note": 0, "velocity": 0, "duration": 108}, {"note": 66, "velocity": 95, "duration": 179}, {"note": 0, "velocity": 0, "duration": 61}, {"note": 68, "velocity": 95, "duration": 396}, {"note": 0, "velocity": 0, "duration": 84}, {"note": 61, "velocity": 95, "duration": 2403}, {"note": 0, "velocity": 0, "duration": 1437}, {"note": 66, "velocity": 107, "duration": 165}, {"note": 0, "velocity": 0, "duration": 75}, {"note": 68, "velocity": 95, "duration": 122}, {"note": 0, "velocity": 0, "duration": 118}, {"note": 66, "velocity": 97, "duration": 133}, {"note": 0, "velocity": 0, "duration": 107}, {"note": 68, "velocity": 102, "duration": 126}, {"note": 0, "velocity": 0, "duration": 114}, {"note": 71, "velocity": 86, "duration": 406}, {"note": 0, "velocity": 0, "duration": 74}, {"note": 68, "velocity": 90, "duration": 384}, {"note": 0, "velocity": 0, "duration": 96}, {"note": 66, "velocity": 83, "duration": 421}, {"note": 0, "velocity": 0, "duration": 299}, {"note": 59, "velocity": 85, "duration": 205}, {"note": 68, "velocity": 99, "duration": 187}, {"note": 66, "velocity": 102, "duration": 196}, {"note": 68, "velocity": 102, "duration": 454}, {"note": 64, "velocity": 102, "duration": 1345}, {"note": 0, "velocity": 0, "duration": 2495}, {"note": 71, "velocity": 99, "duration": 134}, {"note": 0, "velocity": 0, "duration": 106}, {"note": 71, "velocity": 86, "duration": 105}, {"note": 0, "velocity": 0, "duration": 135}, {"note": 71, "velocity": 92, "duration": 95}, {"note": 0, "velocity": 0, "duration": 145}, {"note": 71, "velocity": 100, "duration": 136}, {"note": 0, "velocity": 0, "duration": 104}, {"note": 68, "velocity": 117, "duration": 253}, {"note": 0, "velocity": 0, "duration": 227}, {"note": 66, "velocity": 97, "duration": 77}, {"note": 0, "velocity": 0, "duration": 163}, {"note": 68, "velocity": 122, "duration": 896}, {"note": 0, "velocity": 0, "duration": 64}, {"note": 64, "velocity": 75, "duration": 113}, {"note": 0, "velocity": 0, "duration": 127}, {"note": 64, "velocity": 77, "duration": 180}, {"note": 66, "velocity": 96, "duration": 211}, {"note": 68, "velocity": 93, "duration": 496}, {"note": 61, "velocity": 93, "duration": 1565}, {"note": 0, "velocity": 0, "duration": 2275}, {"note": 66, "velocity": 127, "duration": 171}, {"note": 0, "velocity": 0, "duration": 69}, {"note": 68, "velocity": 100, "duration": 233}, {"note": 66, "velocity": 100, "duration": 141}, {"note": 0, "velocity": 0, "duration": 99}, {"note": 68, "velocity": 107, "duration": 127}, {"note": 0, "velocity": 0, "duration": 113}, {"note": 71, "velocity": 100, "duration": 353}, {"note": 0, "velocity": 0, "duration": 127}, {"note": 68, "velocity": 122, "duration": 454}, {"note": 66, "velocity": 112, "duration": 689}, {"note": 64, "velocity": 90, "duration": 97}, {"note": 0, "velocity": 0, "duration": 143}, {"note": 64, "velocity": 90, "duration": 152}, {"note": 0, "velocity": 0, "duration": 88}, {"note": 61, "velocity": 83, "duration": 218}, {"note": 59, "velocity": 90, "duration": 504}, {"note": 68, "velocity": 99, "duration": 1876}, {"note": 0, "velocity": 0, "duration": 1964}, {"note": 71, "velocity": 99, "duration": 114}, {"note": 0, "velocity": 0, "duration": 126}, {"note": 71, "velocity": 72, "duration": 104}, {"note": 0, "velocity": 0, "duration": 136}, {"note": 71, "velocity": 70, "duration": 96}, {"note": 0, "velocity": 0, "duration": 144}, {"note": 71, "velocity": 92, "duration": 117}, {"note": 0, "velocity": 0, "duration": 123}, {"note": 68, "velocity": 96, "duration": 269}, {"note": 0, "velocity": 0, "duration": 211}, {"note": 66, "velocity": 92, "duration": 123}, {"note": 0, "velocity": 0, "duration": 117}, {"note": 68, "velocity": 112, "duration": 857}, {"note": 0, "velocity": 0, "duration": 103}, {"note": 64, "velocity": 85, "duration": 97}, {"note": 0, "velocity": 0, "duration": 143}, {"note": 64, "velocity": 82, "duration": 132}, {"note": 0, "velocity": 0, "duration": 108}, {"note": 66, "velocity": 95, "duration": 179}, {"note": 0, "velocity": 0, "duration": 61}, {"note": 68, "velocity": 95, "duration": 396}, {"note": 0, "velocity": 0, "duration": 84}, {"note": 61, "velocity": 95, "duration": 2403}, {"note": 0, "velocity": 0, "duration": 1437}, {"note": 66, "velocity": 107, "duration": 165}, {"note": 0, "velocity": 0, "duration": 75}, {"note": 68, "velocity": 95, "duration": 122}, {"note": 0, "velocity": 0, "duration": 118}, {"note": 66, "velocity": 97, "duration": 133}, {"note": 0, "velocity": 0, "duration": 107}, {"note": 68, "velocity": 102, "duration": 126}, {"note": 0, "velocity": 0, "duration": 114}, {"note": 71, "velocity": 86, "duration": 406}, {"note": 0, "velocity": 0, "duration": 74}, {"note": 68, "velocity": 90, "duration": 384}, {"note": 0, "velocity": 0, "duration": 96}, {"note": 66, "velocity": 83, "duration": 421}, {"note": 0, "velocity": 0, "duration": 299}, {"note": 59, "velocity": 85, "duration": 205}, {"note": 68, "velocity": 99, "duration": 187}, {"note": 66, "velocity": 102, "duration": 196}, {"note": 68, "velocity": 102, "duration": 454}, {"note": 64, "velocity": 102, "duration": 1345}, {"note": 0, "velocity": 0, "duration": 2495}, {"note": 71, "velocity": 100, "duration": 513}, {"note": 0, "velocity": 0, "duration": 207}, {"note": 68, "velocity": 97, "duration": 155}, {"note": 0, "velocity": 0, "duration": 85}, {"note": 71, "velocity": 102, "duration": 426}, {"note": 73, "velocity": 122, "duration": 408}, {"note": 0, "velocity": 0, "duration": 72}, {"note": 76, "velocity": 127, "duration": 435}, {"note": 0, "velocity": 0, "duration": 285}, {"note": 73, "velocity": 107, "duration": 130}, {"note": 0, "velocity": 0, "duration": 110}, {"note": 76, "velocity": 99, "duration": 267}, {"note": 0, "velocity": 0, "duration": 213}, {"note": 73, "velocity": 107, "duration": 308}, {"note": 0, "velocity": 0, "duration": 172}, {"note": 71, "velocity": 102, "duration": 338}, {"note": 0, "velocity": 0, "duration": 142}, {"note": 71, "velocity": 99, "duration": 179}, {"note": 0, "velocity": 0, "duration": 61}, {"note": 68, "velocity": 99, "duration": 164}, {"note": 0, "velocity": 0, "duration": 76}, {"note": 71, "velocity": 100, "duration": 326}, {"note": 0, "velocity": 0, "duration": 154}, {"note": 73, "velocity": 127, "duration": 181}, {"note": 71, "velocity": 99, "duration": 214}, {"note": 68, "velocity": 100, "duration": 1269}, {"note": 0, "velocity": 0, "duration": 651}, {"note": 66, "velocity": 122, "duration": 154}, {"note": 0, "velocity": 0, "duration": 86}, {"note": 68, "velocity": 100, "duration": 135}, {"note": 0, "velocity": 0, "duration": 105}, {"note": 66, "velocity": 99, "duration": 126}, {"note": 0, "velocity": 0, "duration": 114}, {"note": 68, "velocity": 122, "duration": 112}, {"note": 0, "velocity": 0, "duration": 128}, {"note": 71, "velocity": 97, "duration": 295}, {"note": 0, "velocity": 0, "duration": 185}, {"note": 68, "velocity": 127, "duration": 324}, {"note": 0, "velocity": 0, "duration": 156}, {"note": 66, "velocity": 100, "duration": 464}, {"note": 0, "velocity": 0, "duration": 256}, {"note": 61, "velocity": 93, "duration": 129}, {"note": 0, "velocity": 0, "duration": 111}, {"note": 64, "velocity": 96, "duration": 488}, {"note": 68, "velocity": 107, "duration": 504}, {"note": 66, "velocity": 117, "duration": 2479}, {"note": 0, "velocity": 0, "duration": 1361}, {"note": 68, "velocity": 112, "duration": 505}, {"note": 0, "velocity": 0, "duration": 215}, {"note": 68, "velocity": 107, "duration": 139}, {"note": 0, "velocity": 0, "duration": 101}, {"note": 66, "velocity": 112, "duration": 304}, {"note": 0, "velocity": 0, "duration": 176}, {"note": 68, "velocity": 122, "duration": 307}, {"note": 0, "velocity": 0, "duration": 173}, {"note": 71, "velocity": 102, "duration": 496}, {"note": 0, "velocity": 0, "duration": 224}, {"note": 68, "velocity": 99, "duration": 139}, {"note": 0, "velocity": 0, "duration": 101}, {"note": 71, "velocity": 102, "duration": 350}, {"note": 0, "velocity": 0, "duration": 130}, {"note": 73, "velocity": 122, "duration": 283}, {"note": 0, "velocity": 0, "duration": 197}, {"note": 76, "velocity": 127, "duration": 358}, {"note": 0, "velocity": 0, "duration": 122}, {"note": 76, "velocity": 117, "duration": 182}, {"note": 73, "velocity": 112, "duration": 125}, {"note": 0, "velocity": 0, "duration": 115}, {"note": 76, "velocity": 107, "duration": 245}, {"note": 0, "velocity": 0, "duration": 235}, {"note": 78, "velocity": 127, "duration": 334}, {"note": 0, "velocity": 0, "duration": 146}, {"note": 73, "velocity": 127, "duration": 630}, {"note": 0, "velocity": 0, "duration": 1290}, {"note": 76, "velocity": 127, "duration": 95}, {"note": 0, "velocity": 0, "duration": 145}, {"note": 76, "velocity": 93, "duration": 87}, {"note": 0, "velocity": 0, "duration": 153}, {"note": 76, "velocity": 107, "duration": 85}, {"note": 0, "velocity": 0, "duration": 155}, {"note": 76, "velocity": 99, "duration": 82}, {"note": 0, "velocity": 0, "duration": 158}, {"note": 73, "velocity": 127, "duration": 257}, {"note": 0, "velocity": 0, "duration": 223}, {"note": 71, "velocity": 127, "duration": 284}, {"note": 0, "velocity": 0, "duration": 196}, {"note": 66, "velocity": 117, "duration": 136}, {"note": 0, "velocity": 0, "duration": 104}, {"note": 66, "velocity": 100, "duration": 323}, {"note": 0, "velocity": 0, "duration": 157}, {"note": 66, "velocity": 122, "duration": 90}, {"note": 0, "velocity": 0, "duration": 150}, {"note": 66, "velocity": 112, "duration": 302}, {"note": 0, "velocity": 0, "duration": 178}, {"note": 68, "velocity": 127, "duration": 359}, {"note": 0, "velocity": 0, "duration": 121}, {"note": 71, "velocity": 117, "duration": 1695}, {"note": 0, "velocity": 0, "duration": 1905}, {"note": 71, "velocity": 112, "duration": 278}, {"note": 0, "velocity": 0, "duration": 202}, {"note": 71, "velocity": 100, "duration": 119}, {"note": 0, "velocity": 0, "duration": 121}, {"note": 71, "velocity": 95, "duration": 105}, {"note": 0, "velocity": 0, "duration": 135}, {"note": 71, "velocity": 100, "duration": 109}, {"note": 0, "velocity": 0, "duration": 131}, {"note": 68, "velocity": 122, "duration": 275}, {"note": 0, "velocity": 0, "duration": 205}, {"note": 66, "velocity": 117, "duration": 342}, {"note": 0, "velocity": 0, "duration": 138}, {"note": 68, "velocity": 127, "duration": 373}, {"note": 0, "velocity": 0, "duration": 347}, {"note": 64, "velocity": 89, "duration": 113}, {"note": 0, "velocity": 0, "duration": 127}, {"note": 64, "velocity": 97, "duration": 147}, {"note": 0, "velocity": 0, "duration": 93}, {"note": 66, "velocity": 112, "duration": 140}, {"note": 0, "velocity": 0, "duration": 100}, {"note": 68, "velocity": 117, "duration": 344}, {"note": 0, "velocity": 0, "duration": 136}, {"note": 61, "velocity": 99, "duration": 1189}, {"note": 0, "velocity": 0, "duration": 2651}, {"note": 66, "velocity": 127, "duration": 151}, {"note": 0, "velocity": 0, "duration": 89}, {"note": 68, "velocity": 102, "duration": 123}, {"note": 0, "velocity": 0, "duration": 117}, {"note": 66, "velocity": 112, "duration": 106}, {"note": 0, "velocity": 0, "duration": 134}, {"note": 68, "velocity": 122, "duration": 94}, {"note": 0, "velocity": 0, "duration": 146}, {"note": 71, "velocity": 102, "duration": 277}, {"note": 0, "velocity": 0, "duration": 203}, {"note": 68, "velocity": 127, "duration": 334}, {"note": 0, "velocity": 0, "duration": 146}, {"note": 66, "velocity": 117, "duration": 287}, {"note": 0, "velocity": 0, "duration": 433}, {"note": 64, "velocity": 93, "duration": 76}, {"note": 0, "velocity": 0, "duration": 164}, {"note": 64, "velocity": 97, "duration": 141}, {"note": 0, "velocity": 0, "duration": 99}, {"note": 61, "velocity": 112, "duration": 134}, {"note": 0, "velocity": 0, "duration": 106}, {"note": 59, "velocity": 102, "duration": 376}, {"note": 0, "velocity": 0, "duration": 104}, {"note": 68, "velocity": 112, "duration": 1644}, {"note": 0, "velocity": 0, "duration": 2196}, {"note": 71, "velocity": 100, "duration": 94}, {"note": 0, "velocity": 0, "duration": 146}, {"note": 71, "velocity": 90, "duration": 92}, {"note": 0, "velocity": 0, "duration": 148}, {"note": 71, "velocity": 93, "duration": 85}, {"note": 0, "velocity": 0, "duration": 155}, {"note": 71, "velocity": 99, "duration": 87}, {"note": 0, "velocity": 0, "duration": 153}, {"note": 68, "velocity": 127, "duration": 263}, {"note": 0, "velocity": 0, "duration": 217}, {"note": 66, "velocity": 117, "duration": 121}, {"note": 0, "velocity": 0, "duration": 119}, {"note": 68, "velocity": 127, "duration": 744}, {"note": 0, "velocity": 0, "duration": 216}, {"note": 64, "velocity": 100, "duration": 106}, {"note": 0, "velocity": 0, "duration": 134}, {"note": 64, "velocity": 93, "duration": 225}, {"note": 66, "velocity": 102, "duration": 180}, {"note": 68, "velocity": 117, "duration": 360}, {"note": 0, "velocity": 0, "duration": 120}, {"note": 61, "velocity": 112, "duration": 2937}, {"note": 0, "velocity": 0, "duration": 903}, {"note": 66, "velocity": 127, "duration": 159}, {"note": 0, "velocity": 0, "duration": 81}, {"note": 68, "velocity": 112, "duration": 131}, {"note": 0, "velocity": 0, "duration": 109}, {"note": 66, "velocity": 112, "duration": 115}, {"note": 0, "velocity": 0, "duration": 125}, {"note": 68, "velocity": 122, "duration": 110}, {"note": 0, "velocity": 0, "duration": 130}, {"note": 71, "velocity": 102, "duration": 326}, {"note": 0, "velocity": 0, "duration": 154}, {"note": 68, "velocity": 122, "duration": 326}, {"note": 0, "velocity": 0, "duration": 154}, {"note": 66, "velocity": 117, "duration": 443}, {"note": 0, "velocity": 0, "duration": 277}, {"note": 59, "velocity": 93, "duration": 144}, {"note": 0, "velocity": 0, "duration": 96}, {"note": 68, "velocity": 117, "duration": 163}, {"note": 0, "velocity": 0, "duration": 77}, {"note": 66, "velocity": 127, "duration": 114}, {"note": 0, "velocity": 0, "duration": 126}, {"note": 68, "velocity": 112, "duration": 334}, {"note": 0, "velocity": 0, "duration": 146}, {"note": 64, "velocity": 112, "duration": 2046}, {"note": 0, "velocity": 0, "duration": 17154}, {"note": 71, "velocity": 99, "duration": 134}, {"note": 0, "velocity": 0, "duration": 106}, {"note": 71, "velocity": 86, "duration": 105}, {"note": 0, "velocity": 0, "duration": 135}, {"note": 71, "velocity": 92, "duration": 95}, {"note": 0, "velocity": 0, "duration": 145}, {"note": 71, "velocity": 100, "duration": 136}, {"note": 0, "velocity": 0, "duration": 104}, {"note": 68, "velocity": 117, "duration": 253}, {"note": 0, "velocity": 0, "duration": 227}, {"note": 66, "velocity": 97, "duration": 77}, {"note": 0, "velocity": 0, "duration": 163}, {"note": 68, "velocity": 122, "duration": 896}, {"note": 0, "velocity": 0, "duration": 64}, {"note": 64, "velocity": 75, "duration": 113}, {"note": 0, "velocity": 0, "duration": 127}, {"note": 64, "velocity": 77, "duration": 180}, {"note": 66, "velocity": 96, "duration": 211}, {"note": 68, "velocity": 93, "duration": 496}, {"note": 61, "velocity": 93, "duration": 1565}, {"note": 0, "velocity": 0, "duration": 2275}, {"note": 66, "velocity": 127, "duration": 171}, {"note": 0, "velocity": 0, "duration": 69}, {"note": 68, "velocity": 100, "duration": 233}, {"note": 66, "velocity": 100, "duration": 141}, {"note": 0, "velocity": 0, "duration": 99}, {"note": 68, "velocity": 107, "duration": 127}, {"note": 0, "velocity": 0, "duration": 113}, {"note": 71, "velocity": 100, "duration": 353}, {"note": 0, "velocity": 0, "duration": 127}, {"note": 68, "velocity": 122, "duration": 454}, {"note": 66, "velocity": 112, "duration": 689}, {"note": 64, "velocity": 90, "duration": 97}, {"note": 0, "velocity": 0, "duration": 143}, {"note": 64, "velocity": 90, "duration": 152}, {"note": 0, "velocity": 0, "duration": 88}, {"note": 61, "velocity": 83, "duration": 218}, {"note": 59, "velocity": 90, "duration": 504}, {"note": 68, "velocity": 99, "duration": 1876}, {"note": 0, "velocity": 0, "duration": 1964}, {"note": 71, "velocity": 99, "duration": 114}, {"note": 0, "velocity": 0, "duration": 126}, {"note": 71, "velocity": 72, "duration": 104}, {"note": 0, "velocity": 0, "duration": 136}, {"note": 71, "velocity": 70, "duration": 96}, {"note": 0, "velocity": 0, "duration": 144}, {"note": 71, "velocity": 92, "duration": 117}, {"note": 0, "velocity": 0, "duration": 123}, {"note": 68, "velocity": 96, "duration": 269}, {"note": 0, "velocity": 0, "duration": 211}, {"note": 66, "velocity": 92, "duration": 123}, {"note": 0, "velocity": 0, "duration": 117}, {"note": 68, "velocity": 112, "duration": 857}, {"note": 0, "velocity": 0, "duration": 103}, {"note": 64, "velocity": 85, "duration": 97}, {"note": 0, "velocity": 0, "duration": 143}, {"note": 64, "velocity": 82, "duration": 132}, {"note": 0, "velocity": 0, "duration": 108}, {"note": 66, "velocity": 95, "duration": 179}, {"note": 0, "velocity": 0, "duration": 61}, {"note": 68, "velocity": 95, "duration": 396}, {"note": 0, "velocity": 0, "duration": 84}, {"note": 61, "velocity": 95, "duration": 2403}, {"note": 0, "velocity": 0, "duration": 1437}, {"note": 66, "velocity": 107, "duration": 165}, {"note": 0, "velocity": 0, "duration": 75}, {"note": 68, "velocity": 95, "duration": 122}, {"note": 0, "velocity": 0, "duration": 118}, {"note": 66, "velocity": 97, "duration": 133}, {"note": 0, "velocity": 0, "duration": 107}, {"note": 68, "velocity": 102, "duration": 126}, {"note": 0, "velocity": 0, "duration": 114}, {"note": 71, "velocity": 86, "duration": 406}, {"note": 0, "velocity": 0, "duration": 74}, {"note": 68, "velocity": 90, "duration": 384}, {"note": 0, "velocity": 0, "duration": 96}, {"note": 66, "velocity": 83, "duration": 421}, {"note": 0, "velocity": 0, "duration": 299}, {"note": 59, "velocity": 85, "duration": 205}, {"note": 68, "velocity": 99, "duration": 187}, {"note": 66, "velocity": 102, "duration": 196}, {"note": 68, "velocity": 102, "duration": 454}, {"note": 64, "velocity": 102, "duration": 1345}, {"note": 0, "velocity": 0, "duration": 2495}, {"note": 71, "velocity": 100, "duration": 513}, {"note": 0, "velocity": 0, "duration": 207}, {"note": 68, "velocity": 97, "duration": 155}, {"note": 0, "velocity": 0, "duration": 85}, {"note": 71, "velocity": 102, "duration": 426}, {"note": 73, "velocity": 122, "duration": 408}, {"note": 0, "velocity": 0, "duration": 72}, {"note": 76, "velocity": 127, "duration": 435}, {"note": 0, "velocity": 0, "duration": 285}, {"note": 73, "velocity": 107, "duration": 130}, {"note": 0, "velocity": 0, "duration": 110}, {"note": 76, "velocity": 99, "duration": 267}, {"note": 0, "velocity": 0, "duration": 213}, {"note": 73, "velocity": 107, "duration": 308}, {"note": 0, "velocity": 0, "duration": 172}, {"note": 71, "velocity": 102, "duration": 338}, {"note": 0, "velocity": 0, "duration": 142}, {"note": 71, "velocity": 99, "duration": 179}, {"note": 0, "velocity": 0, "duration": 61}, {"note": 68, "velocity": 99, "duration": 164}, {"note": 0, "velocity": 0, "duration": 76}, {"note": 71, "velocity": 100, "duration": 326}, {"note": 0, "velocity": 0, "duration": 154}, {"note": 73, "velocity": 127, "duration": 181}, {"note": 71, "velocity": 99, "duration": 214}, {"note": 68, "velocity": 100, "duration": 1269}, {"note": 0, "velocity": 0, "duration": 651}, {"note": 66, "velocity": 122, "duration": 154}, {"note": 0, "velocity": 0, "duration": 86}, {"note": 68, "velocity": 100, "duration": 135}, {"note": 0, "velocity": 0, "duration": 105}, {"note": 66, "velocity": 99, "duration": 126}, {"note": 0, "velocity": 0, "duration": 114}, {"note": 68, "velocity": 122, "duration": 112}, {"note": 0, "velocity": 0, "duration": 128}, {"note": 71, "velocity": 97, "duration": 295}, {"note": 0, "velocity": 0, "duration": 185}, {"note": 68, "velocity": 127, "duration": 324}, {"note": 0, "velocity": 0, "duration": 156}, {"note": 66, "velocity": 100, "duration": 464}, {"note": 0, "velocity": 0, "duration": 256}, {"note": 61, "velocity": 93, "duration": 129}, {"note": 0, "velocity": 0, "duration": 111}, {"note": 64, "velocity": 96, "duration": 488}, {"note": 68, "velocity": 107, "duration": 504}, {"note": 66, "velocity": 117, "duration": 2479}, {"note": 0, "velocity": 0, "duration": 1361}, {"note": 68, "velocity": 112, "duration": 505}, {"note": 0, "velocity": 0, "duration": 215}, {"note": 68, "velocity": 107, "duration": 139}, {"note": 0, "velocity": 0, "duration": 101}, {"note": 66, "velocity": 112, "duration": 304}, {"note": 0, "velocity": 0, "duration": 176}, {"note": 68, "velocity": 122, "duration": 307}, {"note": 0, "velocity": 0, "duration": 173}, {"note": 71, "velocity": 102, "duration": 496}, {"note": 0, "velocity": 0, "duration": 224}, {"note": 68, "velocity": 99, "duration": 139}, {"note": 0, "velocity": 0, "duration": 101}, {"note": 71, "velocity": 102, "duration": 350}, {"note": 0, "velocity": 0, "duration": 130}, {"note": 73, "velocity": 122, "duration": 283}, {"note": 0, "velocity": 0, "duration": 197}, {"note": 76, "velocity": 127, "duration": 358}, {"note": 0, "velocity": 0, "duration": 122}, {"note": 76, "velocity": 117, "duration": 182}, {"note": 73, "velocity": 112, "duration": 125}, {"note": 0, "velocity": 0, "duration": 115}, {"note": 76, "velocity": 107, "duration": 245}, {"note": 0, "velocity": 0, "duration": 235}, {"note": 78, "velocity": 127, "duration": 334}, {"note": 0, "velocity": 0, "duration": 146}, {"note": 73, "velocity": 127, "duration": 630}, {"note": 0, "velocity": 0, "duration": 1290}, {"note": 76, "velocity": 127, "duration": 95}, {"note": 0, "velocity": 0, "duration": 145}, {"note": 76, "velocity": 93, "duration": 87}, {"note": 0, "velocity": 0, "duration": 153}, {"note": 76, "velocity": 107, "duration": 85}, {"note": 0, "velocity": 0, "duration": 155}, {"note": 76, "velocity": 99, "duration": 82}, {"note": 0, "velocity": 0, "duration": 158}, {"note": 73, "velocity": 127, "duration": 257}, {"note": 0, "velocity": 0, "duration": 223}, {"note": 71, "velocity": 127, "duration": 284}, {"note": 0, "velocity": 0, "duration": 196}, {"note": 66, "velocity": 117, "duration": 136}, {"note": 0, "velocity": 0, "duration": 104}, {"note": 66, "velocity": 100, "duration": 323}, {"note": 0, "velocity": 0, "duration": 157}, {"note": 66, "velocity": 122, "duration": 90}, {"note": 0, "velocity": 0, "duration": 150}, {"note": 66, "velocity": 112, "duration": 302}, {"note": 0, "velocity": 0, "duration": 178}, {"note": 68, "velocity": 127, "duration": 359}, {"note": 0, "velocity": 0, "duration": 121}, {"note": 71, "velocity": 117, "duration": 1695}, {"note": 0, "velocity": 0, "duration": 1905}, {"note": 71, "velocity": 112, "duration": 278}, {"note": 0, "velocity": 0, "duration": 202}, {"note": 71, "velocity": 100, "duration": 119}, {"note": 0, "velocity": 0, "duration": 121}, {"note": 71, "velocity": 95, "duration": 105}, {"note": 0, "velocity": 0, "duration": 135}, {"note": 71, "velocity": 100, "duration": 109}, {"note": 0, "velocity": 0, "duration": 131}, {"note": 68, "velocity": 122, "duration": 275}, {"note": 0, "velocity": 0, "duration": 205}, {"note": 66, "velocity": 117, "duration": 342}, {"note": 0, "velocity": 0, "duration": 138}, {"note": 68, "velocity": 127, "duration": 373}, {"note": 0, "velocity": 0, "duration": 347}, {"note": 64, "velocity": 89, "duration": 113}, {"note": 0, "velocity": 0, "duration": 127}, {"note": 64, "velocity": 97, "duration": 147}, {"note": 0, "velocity": 0, "duration": 93}, {"note": 66, "velocity": 112, "duration": 140}, {"note": 0, "velocity": 0, "duration": 100}, {"note": 68, "velocity": 117, "duration": 344}, {"note": 0, "velocity": 0, "duration": 136}, {"note": 61, "velocity": 99, "duration": 1189}, {"note": 0, "velocity": 0, "duration": 2651}, {"note": 66, "velocity": 127, "duration": 151}, {"note": 0, "velocity": 0, "duration": 89}, {"note": 68, "velocity": 102, "duration": 123}, {"note": 0, "velocity": 0, "duration": 117}, {"note": 66, "velocity": 112, "duration": 106}, {"note": 0, "velocity": 0, "duration": 134}, {"note": 68, "velocity": 122, "duration": 94}, {"note": 0, "velocity": 0, "duration": 146}, {"note": 71, "velocity": 102, "duration": 277}, {"note": 0, "velocity": 0, "duration": 203}, {"note": 68, "velocity": 127, "duration": 334}, {"note": 0, "velocity": 0, "duration": 146}, {"note": 66, "velocity": 117, "duration": 287}, {"note": 0, "velocity": 0, "duration": 433}, {"note": 64, "velocity": 93, "duration": 76}, {"note": 0, "velocity": 0, "duration": 164}, {"note": 64, "velocity": 97, "duration": 141}, {"note": 0, "velocity": 0, "duration": 99}, {"note": 61, "velocity": 112, "duration": 134}, {"note": 0, "velocity": 0, "duration": 106}, {"note": 59, "velocity": 102, "duration": 376}, {"note": 0, "velocity": 0, "duration": 104}, {"note": 68, "velocity": 112, "duration": 1644}, {"note": 0, "velocity": 0, "duration": 2196}, {"note": 71, "velocity": 100, "duration": 94}, {"note": 0, "velocity": 0, "duration": 146}, {"note": 71, "velocity": 90, "duration": 92}, {"note": 0, "velocity": 0, "duration": 148}, {"note": 71, "velocity": 93, "duration": 85}, {"note": 0, "velocity": 0, "duration": 155}, {"note": 71, "velocity": 99, "duration": 87}, {"note": 0, "velocity": 0, "duration": 153}, {"note": 68, "velocity": 127, "duration": 263}, {"note": 0, "velocity": 0, "duration": 217}, {"note": 66, "velocity": 117, "duration": 121}, {"note": 0, "velocity": 0, "duration": 119}, {"note": 68, "velocity": 127, "duration": 744}, {"note": 0, "velocity": 0, "duration": 216}, {"note": 64, "velocity": 100, "duration": 106}, {"note": 0, "velocity": 0, "duration": 134}, {"note": 64, "velocity": 93, "duration": 225}, {"note": 66, "velocity": 102, "duration": 180}, {"note": 68, "velocity": 117, "duration": 360}, {"note": 0, "velocity": 0, "duration": 120}, {"note": 61, "velocity": 112, "duration": 2937}, {"note": 0, "velocity": 0, "duration": 903}, {"note": 66, "velocity": 127, "duration": 159}, {"note": 0, "velocity": 0, "duration": 81}, {"note": 68, "velocity": 112, "duration": 131}, {"note": 0, "velocity": 0, "duration": 109}, {"note": 66, "velocity": 112, "duration": 115}, {"note": 0, "velocity": 0, "duration": 125}, {"note": 68, "velocity": 122, "duration": 110}, {"note": 0, "velocity": 0, "duration": 130}, {"note": 71, "velocity": 102, "duration": 326}, {"note": 0, "velocity": 0, "duration": 154}, {"note": 68, "velocity": 122, "duration": 326}, {"note": 0, "velocity": 0, "duration": 154}, {"note": 66, "velocity": 117, "duration": 443}, {"note": 0, "velocity": 0, "duration": 277}, {"note": 59, "velocity": 93, "duration": 144}, {"note": 0, "velocity": 0, "duration": 96}, {"note": 68, "velocity": 117, "duration": 163}, {"note": 0, "velocity": 0, "duration": 77}, {"note": 66, "velocity": 127, "duration": 114}, {"note": 0, "velocity": 0, "duration": 126}, {"note": 68, "velocity": 112, "duration": 334}, {"note": 0, "velocity": 0, "duration": 146}, {"note": 64, "velocity": 112, "duration": 2046}, {"note": 0, "velocity": 0, "duration": 1794}, {"note": 66, "velocity": 127, "duration": 159}, {"note": 0, "velocity": 0, "duration": 81}, {"note": 68, "velocity": 112, "duration": 131}, {"note": 0, "velocity": 0, "duration": 109}, {"note": 66, "velocity": 112, "duration": 115}, {"note": 0, "velocity": 0, "duration": 125}, {"note": 68, "velocity": 122, "duration": 110}, {"note": 0, "velocity": 0, "duration": 130}, {"note": 71, "velocity": 102, "duration": 326}, {"note": 0, "velocity": 0, "duration": 154}, {"note": 68, "velocity": 122, "duration": 326}, {"note": 0, "velocity": 0, "duration": 154}, {"note": 66, "velocity": 117, "duration": 443}, {"note": 0, "velocity": 0, "duration": 277}, {"note": 59, "velocity": 93, "duration": 144}, {"note": 0, "velocity": 0, "duration": 96}, {"note": 68, "velocity": 117, "duration": 163}, {"note": 0, "velocity": 0, "duration": 77}, {"note": 66, "velocity": 127, "duration": 114}, {"note": 0, "velocity": 0, "duration": 126}, {"note": 68, "velocity": 112, "duration": 334}, {"note": 0, "velocity": 0, "duration": 146}, {"note": 64, "velocity": 112, "duration": 1920}]]