[[{"note": 64, "velocity": 112, "duration": 380}, {"note": 0, "velocity": 0, "duration": 100}, {"note": 65, "velocity": 117, "duration": 305}, {"note": 0, "velocity": 0, "duration": 175}, {"note": 67, "velocity": 122, "duration": 696}, {"note": 0, "velocity": 0, "duration": 264}, {"note": 76, "velocity": 127, "duration": 718}, {"note": 0, "velocity": 0, "duration": 242}, {"note": 74, "velocity": 127, "duration": 529}, {"note": 0, "velocity": 0, "duration": 191}, {"note": 72, "velocity": 122, "duration": 211}, {"note": 71, "velocity": 74, "duration": 182}, {"note": 74, "velocity": 112, "duration": 238}, {"note": 0, "velocity": 0, "duration": 482}, {"note": 72, "velocity": 127, "duration": 396}, {"note": 0, "velocity": 0, "duration": 324}, {"note": 71, "velocity": 102, "duration": 226}, {"note": 69, "velocity": 97, "duration": 154}, {"note": 0, "velocity": 0, "duration": 86}, {"note": 72, "velocity": 117, "duration": 200}, {"note": 0, "velocity": 0, "duration": 520}, {"note": 71, "velocity": 122, "duration": 434}, {"note": 0, "velocity": 0, "duration": 526}, {"note": 62, "velocity": 99, "duration": 319}, {"note": 0, "velocity": 0, "duration": 161}, {"note": 64, "velocity": 107, "duration": 283}, {"note": 0, "velocity": 0, "duration": 197}, {"note": 65, "velocity": 122, "duration": 637}, {"note": 0, "velocity": 0, "duration": 323}, {"note": 72, "velocity": 127, "duration": 718}, {"note": 0, "velocity": 0, "duration": 242}, {"note": 71, "velocity": 127, "duration": 366}, {"note": 0, "velocity": 0, "duration": 354}, {"note": 65, "velocity": 102, "duration": 211}, {"note": 64, "velocity": 90, "duration": 185}, {"note": 0, "velocity": 0, "duration": 295}, {"note": 67, "velocity": 107, "duration": 297}, {"note": 0, "velocity": 0, "duration": 183}, {"note": 65, "velocity": 122, "duration": 429}, {"note": 0, "velocity": 0, "duration": 291}, {"note": 67, "velocity": 112, "duration": 236}, {"note": 65, "velocity": 88, "duration": 170}, {"note": 0, "velocity": 0, "duration": 70}, {"note": 64, "velocity": 107, "duration": 649}, {"note": 0, "velocity": 0, "duration": 71}, {"note": 62, "velocity": 122, "duration": 618}, {"note": 0, "velocity": 0, "duration": 342}, {"note": 64, "velocity": 95, "duration": 312}, {"note": 0, "velocity": 0, "duration": 168}, {"note": 65, "velocity": 107, "duration": 254}, {"note": 0, "velocity": 0, "duration": 226}, {"note": 67, "velocity": 122, "duration": 712}, {"note": 0, "velocity": 0, "duration": 248}, {"note": 76, "velocity": 127, "duration": 657}, {"note": 0, "velocity": 0, "duration": 303}, {"note": 74, "velocity": 127, "duration": 442}, {"note": 0, "velocity": 0, "duration": 278}, {"note": 72, "velocity": 117, "duration": 225}, {"note": 71, "velocity": 86, "duration": 194}, {"note": 74, "velocity": 117, "duration": 336}, {"note": 0, "velocity": 0, "duration": 384}, {"note": 72, "velocity": 112, "duration": 491}, {"note": 0, "velocity": 0, "duration": 229}, {"note": 71, "velocity": 127, "duration": 264}, {"note": 69, "velocity": 90, "duration": 214}, {"note": 72, "velocity": 127, "duration": 489}, {"note": 0, "velocity": 0, "duration": 231}, {"note": 71, "velocity": 127, "duration": 543}, {"note": 0, "velocity": 0, "duration": 417}, {"note": 74, "velocity": 112, "duration": 330}, {"note": 0, "velocity": 0, "duration": 150}, {"note": 76, "velocity": 112, "duration": 246}, {"note": 0, "velocity": 0, "duration": 234}, {"note": 79, "velocity": 127, "duration": 513}, {"note": 0, "velocity": 0, "duration": 207}, {"note": 76, "velocity": 93, "duration": 233}, {"note": 74, "velocity": 93, "duration": 169}, {"note": 0, "velocity": 0, "duration": 71}, {"note": 77, "velocity": 127, "duration": 445}, {"note": 0, "velocity": 0, "duration": 275}, {"note": 76, "velocity": 127, "duration": 472}, {"note": 0, "velocity": 0, "duration": 248}, {"note": 74, "velocity": 96, "duration": 231}, {"note": 72, "velocity": 100, "duration": 184}, {"note": 76, "velocity": 117, "duration": 480}, {"note": 0, "velocity": 0, "duration": 240}, {"note": 74, "velocity": 127, "duration": 2102}, {"note": 0, "velocity": 0, "duration": 4138}, {"note": 79, "velocity": 107, "duration": 262}, {"note": 0, "velocity": 0, "duration": 218}, {"note": 77, "velocity": 127, "duration": 249}, {"note": 0, "velocity": 0, "duration": 231}, {"note": 76, "velocity": 122, "duration": 208}, {"note": 0, "velocity": 0, "duration": 272}, {"note": 74, "velocity": 127, "duration": 508}, {"note": 0, "velocity": 0, "duration": 212}, {"note": 72, "velocity": 127, "duration": 1278}, {"note": 71, "velocity": 122, "duration": 506}, {"note": 0, "velocity": 0, "duration": 214}, {"note": 67, "velocity": 107, "duration": 602}, {"note": 0, "velocity": 0, "duration": 598}, {"note": 72, "velocity": 127, "duration": 612}, {"note": 0, "velocity": 0, "duration": 348}, {"note": 72, "velocity": 127, "duration": 429}, {"note": 0, "velocity": 0, "duration": 531}, {"note": 76, "velocity": 117, "duration": 207}, {"note": 0, "velocity": 0, "duration": 273}, {"note": 64, "velocity": 107, "duration": 236}, {"note": 0, "velocity": 0, "duration": 244}, {"note": 65, "velocity": 100, "duration": 208}, {"note": 0, "velocity": 0, "duration": 272}, {"note": 67, "velocity": 117, "duration": 281}, {"note": 0, "velocity": 0, "duration": 199}, {"note": 69, "velocity": 112, "duration": 442}, {"note": 0, "velocity": 0, "duration": 278}, {"note": 65, "velocity": 112, "duration": 528}, {"note": 0, "velocity": 0, "duration": 672}, {"note": 67, "velocity": 102, "duration": 391}, {"note": 0, "velocity": 0, "duration": 329}, {"note": 72, "velocity": 127, "duration": 439}, {"note": 0, "velocity": 0, "duration": 761}, {"note": 72, "velocity": 117, "duration": 311}, {"note": 0, "velocity": 0, "duration": 409}, {"note": 71, "velocity": 112, "duration": 233}, {"note": 69, "velocity": 86, "duration": 205}, {"note": 76, "velocity": 117, "duration": 539}, {"note": 0, "velocity": 0, "duration": 181}, {"note": 74, "velocity": 127, "duration": 582}, {"note": 79, "velocity": 127, "duration": 211}, {"note": 0, "velocity": 0, "duration": 269}, {"note": 77, "velocity": 117, "duration": 217}, {"note": 0, "velocity": 0, "duration": 263}, {"note": 76, "velocity": 127, "duration": 156}, {"note": 0, "velocity": 0, "duration": 324}, {"note": 74, "velocity": 117, "duration": 562}, {"note": 0, "velocity": 0, "duration": 158}, {"note": 72, "velocity": 127, "duration": 445}, {"note": 0, "velocity": 0, "duration": 755}, {"note": 71, "velocity": 112, "duration": 512}, {"note": 0, "velocity": 0, "duration": 208}, {"note": 67, "velocity": 97, "duration": 570}, {"note": 0, "velocity": 0, "duration": 630}, {"note": 72, "velocity": 127, "duration": 468}, {"note": 0, "velocity": 0, "duration": 492}, {"note": 72, "velocity": 127, "duration": 360}, {"note": 0, "velocity": 0, "duration": 600}, {"note": 76, "velocity": 127, "duration": 190}, {"note": 0, "velocity": 0, "duration": 290}, {"note": 64, "velocity": 107, "duration": 219}, {"note": 0, "velocity": 0, "duration": 261}, {"note": 65, "velocity": 117, "duration": 192}, {"note": 0, "velocity": 0, "duration": 288}, {"note": 67, "velocity": 127, "duration": 303}, {"note": 0, "velocity": 0, "duration": 177}, {"note": 69, "velocity": 122, "duration": 476}, {"note": 0, "velocity": 0, "duration": 244}, {"note": 65, "velocity": 102, "duration": 753}, {"note": 0, "velocity": 0, "duration": 447}, {"note": 67, "velocity": 127, "duration": 644}, {"note": 0, "velocity": 0, "duration": 76}, {"note": 72, "velocity": 127, "duration": 521}, {"note": 0, "velocity": 0, "duration": 679}, {"note": 72, "velocity": 122, "duration": 481}, {"note": 0, "velocity": 0, "duration": 239}, {"note": 69, "velocity": 102, "duration": 374}, {"note": 0, "velocity": 0, "duration": 346}, {"note": 76, "velocity": 127, "duration": 215}, {"note": 0, "velocity": 0, "duration": 265}, {"note": 74, "velocity": 127, "duration": 436}, {"note": 0, "velocity": 0, "duration": 284}, {"note": 71, "velocity": 117, "duration": 519}, {"note": 0, "velocity": 0, "duration": 201}, {"note": 74, "velocity": 122, "duration": 217}, {"note": 0, "velocity": 0, "duration": 263}, {"note": 74, "velocity": 112, "duration": 454}, {"note": 0, "velocity": 0, "duration": 266}, {"note": 72, "velocity": 107, "duration": 1126}, {"note": 0, "velocity": 0, "duration": 4874}, {"note": 64, "velocity": 112, "duration": 380}, {"note": 0, "velocity": 0, "duration": 100}, {"note": 65, "velocity": 117, "duration": 305}, {"note": 0, "velocity": 0, "duration": 175}, {"note": 67, "velocity": 122, "duration": 696}, {"note": 0, "velocity": 0, "duration": 264}, {"note": 76, "velocity": 127, "duration": 718}, {"note": 0, "velocity": 0, "duration": 242}, {"note": 74, "velocity": 127, "duration": 529}, {"note": 0, "velocity": 0, "duration": 191}, {"note": 72, "velocity": 122, "duration": 211}, {"note": 71, "velocity": 96, "duration": 182}, {"note": 74, "velocity": 112, "duration": 238}, {"note": 0, "velocity": 0, "duration": 482}, {"note": 72, "velocity": 127, "duration": 396}, {"note": 0, "velocity": 0, "duration": 324}, {"note": 71, "velocity": 102, "duration": 226}, {"note": 69, "velocity": 97, "duration": 154}, {"note": 0, "velocity": 0, "duration": 86}, {"note": 72, "velocity": 117, "duration": 200}, {"note": 0, "velocity": 0, "duration": 520}, {"note": 71, "velocity": 122, "duration": 434}, {"note": 0, "velocity": 0, "duration": 526}, {"note": 62, "velocity": 99, "duration": 319}, {"note": 0, "velocity": 0, "duration": 161}, {"note": 64, "velocity": 107, "duration": 283}, {"note": 0, "velocity": 0, "duration": 197}, {"note": 65, "velocity": 122, "duration": 637}, {"note": 0, "velocity": 0, "duration": 323}, {"note": 72, "velocity": 127, "duration": 718}, {"note": 0, "velocity": 0, "duration": 242}, {"note": 71, "velocity": 127, "duration": 366}, {"note": 0, "velocity": 0, "duration": 354}, {"note": 65, "velocity": 102, "duration": 211}, {"note": 64, "velocity": 90, "duration": 185}, {"note": 0, "velocity": 0, "duration": 295}, {"note": 67, "velocity": 107, "duration": 297}, {"note": 0, "velocity": 0, "duration": 183}, {"note": 65, "velocity": 122, "duration": 429}, {"note": 0, "velocity": 0, "duration": 291}, {"note": 67, "velocity": 112, "duration": 236}, {"note": 65, "velocity": 88, "duration": 170}, {"note": 0, "velocity": 0, "duration": 70}, {"note": 64, "velocity": 107, "duration": 649}, {"note": 0, "velocity": 0, "duration": 71}, {"note": 62, "velocity": 122, "duration": 618}, {"note": 0, "velocity": 0, "duration": 342}, {"note": 64, "velocity": 95, "duration": 312}, {"note": 0, "velocity": 0, "duration": 168}, {"note": 65, "velocity": 107, "duration": 254}, {"note": 0, "velocity": 0, "duration": 226}, {"note": 67, "velocity": 122, "duration": 712}, {"note": 0, "velocity": 0, "duration": 248}, {"note": 76, "velocity": 127, "duration": 657}, {"note": 0, "velocity": 0, "duration": 303}, {"note": 74, "velocity": 127, "duration": 442}, {"note": 0, "velocity": 0, "duration": 278}, {"note": 72, "velocity": 117, "duration": 225}, {"note": 71, "velocity": 86, "duration": 194}, {"note": 74, "velocity": 117, "duration": 336}, {"note": 0, "velocity": 0, "duration": 384}, {"note": 72, "velocity": 112, "duration": 491}, {"note": 0, "velocity": 0, "duration": 229}, {"note": 71, "velocity": 127, "duration": 264}, {"note": 69, "velocity": 90, "duration": 214}, {"note": 72, "velocity": 127, "duration": 489}, {"note": 0, "velocity": 0, "duration": 231}, {"note": 71, "velocity": 127, "duration": 543}, {"note": 0, "velocity": 0, "duration": 417}, {"note": 74, "velocity": 112, "duration": 330}, {"note": 0, "velocity": 0, "duration": 150}, {"note": 76, "velocity": 112, "duration": 246}, {"note": 0, "velocity": 0, "duration": 234}, {"note": 79, "velocity": 127, "duration": 513}, {"note": 0, "velocity": 0, "duration": 207}, {"note": 76, "velocity": 93, "duration": 233}, {"note": 74, "velocity": 93, "duration": 169}, {"note": 0, "velocity": 0, "duration": 71}, {"note": 77, "velocity": 127, "duration": 445}, {"note": 0, "velocity": 0, "duration": 275}, {"note": 76, "velocity": 127, "duration": 472}, {"note": 0, "velocity": 0, "duration": 248}, {"note": 74, "velocity": 96, "duration": 231}, {"note": 72, "velocity": 100, "duration": 184}, {"note": 76, "velocity": 117, "duration": 480}, {"note": 0, "velocity": 0, "duration": 240}, {"note": 74, "velocity": 127, "duration": 2102}, {"note": 0, "velocity": 0, "duration": 4138}, {"note": 79, "velocity": 107, "duration": 262}, {"note": 0, "velocity": 0, "duration": 218}, {"note": 77, "velocity": 127, "duration": 249}, {"note": 0, "velocity": 0, "duration": 231}, {"note": 76, "velocity": 122, "duration": 208}, {"note": 0, "velocity": 0, "duration": 272}, {"note": 74, "velocity": 127, "duration": 508}, {"note": 0, "velocity": 0, "duration": 212}, {"note": 72, "velocity": 127, "duration": 1278}, {"note": 71, "velocity": 122, "duration": 506}, {"note": 0, "velocity": 0, "duration": 214}, {"note": 67, "velocity": 107, "duration": 602}, {"note": 0, "velocity": 0, "duration": 598}, {"note": 72, "velocity": 127, "duration": 612}, {"note": 0, "velocity": 0, "duration": 348}, {"note": 72, "velocity": 127, "duration": 429}, {"note": 0, "velocity": 0, "duration": 531}, {"note": 76, "velocity": 117, "duration": 207}, {"note": 0, "velocity": 0, "duration": 273}, {"note": 64, "velocity": 107, "duration": 236}, {"note": 0, "velocity": 0, "duration": 244}, {"note": 65, "velocity": 100, "duration": 208}, {"note": 0, "velocity": 0, "duration": 272}, {"note": 67, "velocity": 117, "duration": 281}, {"note": 0, "velocity": 0, "duration": 199}, {"note": 69, "velocity": 112, "duration": 442}, {"note": 0, "velocity": 0, "duration": 278}, {"note": 65, "velocity": 112, "duration": 528}, {"note": 0, "velocity": 0, "duration": 672}, {"note": 67, "velocity": 102, "duration": 391}, {"note": 0, "velocity": 0, "duration": 329}, {"note": 72, "velocity": 127, "duration": 439}, {"note": 0, "velocity": 0, "duration": 761}, {"note": 72, "velocity": 117, "duration": 311}, {"note": 0, "velocity": 0, "duration": 409}, {"note": 71, "velocity": 112, "duration": 233}, {"note": 69, "velocity": 86, "duration": 205}, {"note": 76, "velocity": 117, "duration": 539}, {"note": 0, "velocity": 0, "duration": 181}, {"note": 74, "velocity": 127, "duration": 582}, {"note": 79, "velocity": 127, "duration": 211}, {"note": 0, "velocity": 0, "duration": 269}, {"note": 77, "velocity": 117, "duration": 217}, {"note": 0, "velocity": 0, "duration": 263}, {"note": 76, "velocity": 127, "duration": 156}, {"note": 0, "velocity": 0, "duration": 324}, {"note": 74, "velocity": 117, "duration": 562}, {"note": 0, "velocity": 0, "duration": 158}, {"note": 72, "velocity": 127, "duration": 445}, {"note": 0, "velocity": 0, "duration": 755}, {"note": 71, "velocity": 112, "duration": 512}, {"note": 0, "velocity": 0, "duration": 208}, {"note": 67, "velocity": 97, "duration": 570}, {"note": 0, "velocity": 0, "duration": 630}, {"note": 72, "velocity": 127, "duration": 468}, {"note": 0, "velocity": 0, "duration": 492}, {"note": 72, "velocity": 127, "duration": 360}, {"note": 0, "velocity": 0, "duration": 600}, {"note": 76, "velocity": 127, "duration": 190}, {"note": 0, "velocity": 0, "duration": 290}, {"note": 64, "velocity": 107, "duration": 219}, {"note": 0, "velocity": 0, "duration": 261}, {"note": 65, "velocity": 117, "duration": 192}, {"note": 0, "velocity": 0, "duration": 288}, {"note": 67, "velocity": 127, "duration": 303}, {"note": 0, "velocity": 0, "duration": 177}, {"note": 69, "velocity": 122, "duration": 476}, {"note": 0, "velocity": 0, "duration": 244}, {"note": 65, "velocity": 102, "duration": 753}, {"note": 0, "velocity": 0, "duration": 447}, {"note": 67, "velocity": 127, "duration": 644}, {"note": 0, "velocity": 0, "duration": 76}, {"note": 72, "velocity": 127, "duration": 521}, {"note": 0, "velocity": 0, "duration": 679}, {"note": 72, "velocity": 122, "duration": 481}, {"note": 0, "velocity": 0, "duration": 239}, {"note": 69, "velocity": 102, "duration": 374}, {"note": 0, "velocity": 0, "duration": 346}, {"note": 76, "velocity": 127, "duration": 215}, {"note": 0, "velocity": 0, "duration": 265}, {"note": 74, "velocity": 127, "duration": 436}, {"note": 0, "velocity": 0, "duration": 284}, {"note": 71, "velocity": 117, "duration": 519}, {"note": 0, "velocity": 0, "duration": 201}, {"note": 74, "velocity": 122, "duration": 217}, {"note": 0, "velocity": 0, "duration": 263}, {"note": 74, "velocity": 112, "duration": 454}, {"note": 0, "velocity": 0, "duration": 266}, {"note": 72, "velocity": 107, "duration": 1126}, {"note": 0, "velocity": 0, "duration": 35594}, {"note": 69, "velocity": 112, "duration": 232}, {"note": 0, "velocity": 0, "duration": 248}, {"note": 71, "velocity": 112, "duration": 215}, {"note": 0, "velocity": 0, "duration": 265}, {"note": 72, "velocity": 127, "duration": 161}, {"note": 0, "velocity": 0, "duration": 79}, {"note": 71, "velocity": 107, "duration": 128}, {"note": 0, "velocity": 0, "duration": 112}, {"note": 72, "velocity": 97, "duration": 185}, {"note": 71, "velocity": 96, "duration": 117}, {"note": 0, "velocity": 0, "duration": 123}, {"note": 72, "velocity": 122, "duration": 174}, {"note": 0, "velocity": 0, "duration": 66}, {"note": 71, "velocity": 112, "duration": 145}, {"note": 0, "velocity": 0, "duration": 95}, {"note": 72, "velocity": 112, "duration": 180}, {"note": 71, "velocity": 127, "duration": 134}, {"note": 0, "velocity": 0, "duration": 106}, {"note": 72, "velocity": 122, "duration": 114}, {"note": 0, "velocity": 0, "duration": 126}, {"note": 71, "velocity": 100, "duration": 179}, {"note": 0, "velocity": 0, "duration": 61}, {"note": 72, "velocity": 100, "duration": 193}, {"note": 71, "velocity": 97, "duration": 135}, {"note": 0, "velocity": 0, "duration": 105}, {"note": 72, "velocity": 107, "duration": 191}, {"note": 71, "velocity": 99, "duration": 150}, {"note": 0, "velocity": 0, "duration": 90}, {"note": 72, "velocity": 122, "duration": 171}, {"note": 0, "velocity": 0, "duration": 69}, {"note": 71, "velocity": 112, "duration": 159}, {"note": 0, "velocity": 0, "duration": 81}, {"note": 72, "velocity": 127, "duration": 106}, {"note": 0, "velocity": 0, "duration": 134}, {"note": 71, "velocity": 127, "duration": 176}, {"note": 0, "velocity": 0, "duration": 64}, {"note": 72, "velocity": 112, "duration": 138}, {"note": 0, "velocity": 0, "duration": 102}, {"note": 71, "velocity": 95, "duration": 196}, {"note": 74, "velocity": 117, "duration": 200}, {"note": 0, "velocity": 0, "duration": 280}, {"note": 71, "velocity": 127, "duration": 170}, {"note": 0, "velocity": 0, "duration": 310}, {"note": 67, "velocity": 112, "duration": 335}, {"note": 0, "velocity": 0, "duration": 625}, {"note": 69, "velocity": 107, "duration": 284}, {"note": 0, "velocity": 0, "duration": 196}, {"note": 71, "velocity": 112, "duration": 201}, {"note": 0, "velocity": 0, "duration": 279}, {"note": 72, "velocity": 122, "duration": 276}, {"note": 0, "velocity": 0, "duration": 444}, {"note": 79, "velocity": 117, "duration": 201}, {"note": 77, "velocity": 100, "duration": 161}, {"note": 0, "velocity": 0, "duration": 319}, {"note": 76, "velocity": 122, "duration": 445}, {"note": 74, "velocity": 117, "duration": 564}, {"note": 0, "velocity": 0, "duration": 156}, {"note": 72, "velocity": 99, "duration": 126}, {"note": 0, "velocity": 0, "duration": 114}, {"note": 72, "velocity": 102, "duration": 156}, {"note": 0, "velocity": 0, "duration": 84}, {"note": 76, "velocity": 117, "duration": 371}, {"note": 0, "velocity": 0, "duration": 349}, {"note": 74, "velocity": 127, "duration": 480}, {"note": 0, "velocity": 0, "duration": 13440}, {"note": 79, "velocity": 107, "duration": 262}, {"note": 0, "velocity": 0, "duration": 218}, {"note": 77, "velocity": 127, "duration": 249}, {"note": 0, "velocity": 0, "duration": 231}, {"note": 76, "velocity": 122, "duration": 208}, {"note": 0, "velocity": 0, "duration": 272}, {"note": 74, "velocity": 127, "duration": 508}, {"note": 0, "velocity": 0, "duration": 212}, {"note": 72, "velocity": 127, "duration": 1278}, {"note": 71, "velocity": 122, "duration": 506}, {"note": 0, "velocity": 0, "duration": 214}, {"note": 67, "velocity": 107, "duration": 602}, {"note": 0, "velocity": 0, "duration": 598}, {"note": 72, "velocity": 127, "duration": 612}, {"note": 0, "velocity": 0, "duration": 348}, {"note": 72, "velocity": 127, "duration": 429}, {"note": 0, "velocity": 0, "duration": 531}, {"note": 76, "velocity": 117, "duration": 207}, {"note": 0, "velocity": 0, "duration": 273}, {"note": 64, "velocity": 107, "duration": 236}, {"note": 0, "velocity": 0, "duration": 244}, {"note": 65, "velocity": 100, "duration": 208}, {"note": 0, "velocity": 0, "duration": 272}, {"note": 67, "velocity": 117, "duration": 281}, {"note": 0, "velocity": 0, "duration": 199}, {"note": 69, "velocity": 112, "duration": 442}, {"note": 0, "velocity": 0, "duration": 278}, {"note": 65, "velocity": 112, "duration": 528}, {"note": 0, "velocity": 0, "duration": 672}, {"note": 67, "velocity": 102, "duration": 391}, {"note": 0, "velocity": 0, "duration": 329}, {"note": 72, "velocity": 127, "duration": 439}, {"note": 0, "velocity": 0, "duration": 761}, {"note": 72, "velocity": 117, "duration": 311}, {"note": 0, "velocity": 0, "duration": 409}, {"note": 71, "velocity": 112, "duration": 233}, {"note": 69, "velocity": 86, "duration": 205}, {"note": 76, "velocity": 117, "duration": 539}, {"note": 0, "velocity": 0, "duration": 181}, {"note": 74, "velocity": 127, "duration": 582}, {"note": 79, "velocity": 127, "duration": 211}, {"note": 0, "velocity": 0, "duration": 269}, {"note": 77, "velocity": 117, "duration": 217}, {"note": 0, "velocity": 0, "duration": 263}, {"note": 76, "velocity": 127, "duration": 156}, {"note": 0, "velocity": 0, "duration": 324}, {"note": 74, "velocity": 117, "duration": 562}, {"note": 0, "velocity": 0, "duration": 158}, {"note": 72, "velocity": 127, "duration": 445}, {"note": 0, "velocity": 0, "duration": 755}, {"note": 71, "velocity": 112, "duration": 512}, {"note": 0, "velocity": 0, "duration": 208}, {"note": 67, "velocity": 97, "duration": 570}, {"note": 0, "velocity": 0, "duration": 630}, {"note": 72, "velocity": 127, "duration": 468}, {"note": 0, "velocity": 0, "duration": 492}, {"note": 72, "velocity": 127, "duration": 360}, {"note": 0, "velocity": 0, "duration": 600}, {"note": 76, "velocity": 127, "duration": 190}, {"note": 0, "velocity": 0, "duration": 290}, {"note": 64, "velocity": 107, "duration": 219}, {"note": 0, "velocity": 0, "duration": 261}, {"note": 65, "velocity": 117, "duration": 192}, {"note": 0, "velocity": 0, "duration": 288}, {"note": 67, "velocity": 127, "duration": 303}, {"note": 0, "velocity": 0, "duration": 177}, {"note": 69, "velocity": 122, "duration": 476}, {"note": 0, "velocity": 0, "duration": 244}, {"note": 65, "velocity": 102, "duration": 753}, {"note": 0, "velocity": 0, "duration": 447}, {"note": 67, "velocity": 127, "duration": 644}, {"note": 0, "velocity": 0, "duration": 76}, {"note": 72, "velocity": 127, "duration": 521}, {"note": 0, "velocity": 0, "duration": 679}, {"note": 72, "velocity": 122, "duration": 481}, {"note": 0, "velocity": 0, "duration": 239}, {"note": 69, "velocity": 102, "duration": 374}, {"note": 0, "velocity": 0, "duration": 346}, {"note": 76, "velocity": 127, "duration": 215}, {"note": 0, "velocity": 0, "duration": 265}, {"note": 74, "velocity": 127, "duration": 436}, {"note": 0, "velocity": 0, "duration": 284}, {"note": 71, "velocity": 117, "duration": 519}, {"note": 0, "velocity": 0, "duration": 201}, {"note": 74, "velocity": 122, "duration": 217}, {"note": 0, "velocity": 0, "duration": 263}, {"note": 74, "velocity": 112, "duration": 454}, {"note": 0, "velocity": 0, "duration": 266}, {"note": 72, "velocity": 107, "duration": 1126}, {"note": 0, "velocity": 0, "duration": 1994}, {"note": 69, "velocity": 122, "duration": 476}, {"note": 0, "velocity": 0, "duration": 244}, {"note": 65, "velocity": 102, "duration": 753}, {"note": 0, "velocity": 0, "duration": 447}, {"note": 67, "velocity": 127, "duration": 644}, {"note": 0, "velocity": 0, "duration": 76}, {"note": 72, "velocity": 127, "duration": 521}, {"note": 0, "velocity": 0, "duration": 679}, {"note": 72, "velocity": 122, "duration": 481}, {"note": 0, "velocity": 0, "duration": 239}, {"note": 69, "velocity": 102, "duration": 374}, {"note": 0, "velocity": 0, "duration": 346}, {"note": 76, "velocity": 127, "duration": 215}, {"note": 0, "velocity": 0, "duration": 265}, {"note": 74, "velocity": 127, "duration": 436}, {"note": 0, "velocity": 0, "duration": 284}, {"note": 71, "velocity": 117, "duration": 519}, {"note": 0, "velocity": 0, "duration": 201}, {"note": 74, "velocity": 122, "duration": 217}, {"note": 0, "velocity": 0, "duration": 263}, {"note": 74, "velocity": 112, "duration": 454}, {"note": 0, "velocity": 0, "duration": 266}, {"note": 72, "velocity": 107, "duration": 1126}]]