[[{"note": 71, "velocity": 96, "duration": 149}, {"note": 0, "velocity": 0, "duration": 91}, {"note": 71, "velocity": 99, "duration": 105}, {"note": 69, "velocity": 101, "duration": 96}, {"note": 71, "velocity": 104, "duration": 673}, {"note": 69, "velocity": 113, "duration": 211}, {"note": 71, "velocity": 113, "duration": 262}, {"note": 74, "velocity": 113, "duration": 180}, {"note": 76, "velocity": 97, "duration": 408}, {"note": 0, "velocity": 0, "duration": 1512}, {"note": 72, "velocity": 112, "duration": 157}, {"note": 0, "velocity": 0, "duration": 83}, {"note": 72, "velocity": 99, "duration": 65}, {"note": 72, "velocity": 89, "duration": 67}, {"note": 72, "velocity": 117, "duration": 450}, {"note": 0, "velocity": 0, "duration": 270}, {"note": 72, "velocity": 93, "duration": 224}, {"note": 74, "velocity": 96, "duration": 221}, {"note": 76, "velocity": 97, "duration": 224}, {"note": 69, "velocity": 85, "duration": 1012}, {"note": 0, "velocity": 0, "duration": 428}, {"note": 71, "velocity": 100, "duration": 202}, {"note": 72, "velocity": 96, "duration": 168}, {"note": 0, "velocity": 0, "duration": 72}, {"note": 74, "velocity": 122, "duration": 672}, {"note": 74, "velocity": 117, "duration": 190}, {"note": 71, "velocity": 100, "duration": 724}, {"note": 0, "velocity": 0, "duration": 116}, {"note": 69, "velocity": 100, "duration": 290}, {"note": 0, "velocity": 0, "duration": 70}, {"note": 67, "velocity": 100, "duration": 932}, {"note": 0, "velocity": 0, "duration": 508}, {"note": 67, "velocity": 97, "duration": 176}, {"note": 0, "velocity": 0, "duration": 64}, {"note": 76, "velocity": 122, "duration": 603}, {"note": 0, "velocity": 0, "duration": 117}, {"note": 76, "velocity": 122, "duration": 145}, {"note": 0, "velocity": 0, "duration": 95}, {"note": 76, "velocity": 107, "duration": 232}, {"note": 0, "velocity": 0, "duration": 248}, {"note": 72, "velocity": 96, "duration": 107}, {"note": 74, "velocity": 85, "duration": 111}, {"note": 76, "velocity": 95, "duration": 240}, {"note": 74, "velocity": 95, "duration": 1600}, {"note": 0, "velocity": 0, "duration": 320}, {"note": 71, "velocity": 112, "duration": 128}, {"note": 0, "velocity": 0, "duration": 112}, {"note": 71, "velocity": 102, "duration": 81}, {"note": 69, "velocity": 69, "duration": 99}, {"note": 71, "velocity": 97, "duration": 593}, {"note": 0, "velocity": 0, "duration": 127}, {"note": 69, "velocity": 102, "duration": 245}, {"note": 71, "velocity": 112, "duration": 223}, {"note": 74, "velocity": 122, "duration": 181}, {"note": 76, "velocity": 127, "duration": 910}, {"note": 0, "velocity": 0, "duration": 1010}, {"note": 72, "velocity": 127, "duration": 112}, {"note": 0, "velocity": 0, "duration": 128}, {"note": 72, "velocity": 122, "duration": 96}, {"note": 71, "velocity": 92, "duration": 60}, {"note": 72, "velocity": 127, "duration": 497}, {"note": 0, "velocity": 0, "duration": 223}, {"note": 72, "velocity": 102, "duration": 164}, {"note": 0, "velocity": 0, "duration": 76}, {"note": 74, "velocity": 122, "duration": 192}, {"note": 76, "velocity": 97, "duration": 172}, {"note": 0, "velocity": 0, "duration": 68}, {"note": 69, "velocity": 117, "duration": 1295}, {"note": 0, "velocity": 0, "duration": 145}, {"note": 71, "velocity": 97, "duration": 185}, {"note": 72, "velocity": 102, "duration": 204}, {"note": 0, "velocity": 0, "duration": 156}, {"note": 74, "velocity": 127, "duration": 634}, {"note": 0, "velocity": 0, "duration": 326}, {"note": 71, "velocity": 122, "duration": 227}, {"note": 0, "velocity": 0, "duration": 133}, {"note": 69, "velocity": 127, "duration": 277}, {"note": 0, "velocity": 0, "duration": 83}, {"note": 67, "velocity": 102, "duration": 194}, {"note": 76, "velocity": 112, "duration": 977}, {"note": 0, "velocity": 0, "duration": 463}, {"note": 72, "velocity": 107, "duration": 165}, {"note": 0, "velocity": 0, "duration": 75}, {"note": 74, "velocity": 112, "duration": 140}, {"note": 0, "velocity": 0, "duration": 100}, {"note": 76, "velocity": 127, "duration": 814}, {"note": 0, "velocity": 0, "duration": 386}, {"note": 76, "velocity": 112, "duration": 152}, {"note": 0, "velocity": 0, "duration": 88}, {"note": 78, "velocity": 122, "duration": 177}, {"note": 0, "velocity": 0, "duration": 63}, {"note": 79, "velocity": 117, "duration": 174}, {"note": 0, "velocity": 0, "duration": 66}, {"note": 81, "velocity": 127, "duration": 616}, {"note": 0, "velocity": 0, "duration": 104}, {"note": 74, "velocity": 122, "duration": 183}, {"note": 76, "velocity": 127, "duration": 388}, {"note": 0, "velocity": 0, "duration": 92}, {"note": 78, "velocity": 127, "duration": 357}, {"note": 0, "velocity": 0, "duration": 123}, {"note": 79, "velocity": 127, "duration": 377}, {"note": 79, "velocity": 127, "duration": 137}, {"note": 0, "velocity": 0, "duration": 103}, {"note": 79, "velocity": 127, "duration": 459}, {"note": 0, "velocity": 0, "duration": 261}, {"note": 79, "velocity": 127, "duration": 95}, {"note": 0, "velocity": 0, "duration": 145}, {"note": 79, "velocity": 122, "duration": 139}, {"note": 0, "velocity": 0, "duration": 101}, {"note": 79, "velocity": 127, "duration": 152}, {"note": 0, "velocity": 0, "duration": 88}, {"note": 76, "velocity": 127, "duration": 172}, {"note": 0, "velocity": 0, "duration": 68}, {"note": 78, "velocity": 127, "duration": 84}, {"note": 76, "velocity": 122, "duration": 127}, {"note": 0, "velocity": 0, "duration": 233}, {"note": 76, "velocity": 122, "duration": 516}, {"note": 0, "velocity": 0, "duration": 204}, {"note": 74, "velocity": 127, "duration": 154}, {"note": 0, "velocity": 0, "duration": 86}, {"note": 74, "velocity": 117, "duration": 161}, {"note": 0, "velocity": 0, "duration": 79}, {"note": 76, "velocity": 127, "duration": 726}, {"note": 0, "velocity": 0, "duration": 474}, {"note": 76, "velocity": 122, "duration": 152}, {"note": 0, "velocity": 0, "duration": 88}, {"note": 78, "velocity": 127, "duration": 176}, {"note": 0, "velocity": 0, "duration": 64}, {"note": 79, "velocity": 122, "duration": 200}, {"note": 78, "velocity": 127, "duration": 822}, {"note": 74, "velocity": 112, "duration": 155}, {"note": 0, "velocity": 0, "duration": 85}, {"note": 76, "velocity": 127, "duration": 389}, {"note": 0, "velocity": 0, "duration": 91}, {"note": 78, "velocity": 127, "duration": 304}, {"note": 0, "velocity": 0, "duration": 176}, {"note": 79, "velocity": 122, "duration": 113}, {"note": 0, "velocity": 0, "duration": 127}, {"note": 79, "velocity": 117, "duration": 137}, {"note": 0, "velocity": 0, "duration": 103}, {"note": 78, "velocity": 122, "duration": 129}, {"note": 0, "velocity": 0, "duration": 111}, {"note": 79, "velocity": 127, "duration": 484}, {"note": 79, "velocity": 127, "duration": 4}, {"note": 0, "velocity": 0, "duration": 236}, {"note": 79, "velocity": 127, "duration": 129}, {"note": 0, "velocity": 0, "duration": 111}, {"note": 78, "velocity": 127, "duration": 133}, {"note": 0, "velocity": 0, "duration": 107}, {"note": 76, "velocity": 122, "duration": 289}, {"note": 0, "velocity": 0, "duration": 71}, {"note": 78, "velocity": 117, "duration": 211}, {"note": 0, "velocity": 0, "duration": 149}, {"note": 76, "velocity": 127, "duration": 427}, {"note": 0, "velocity": 0, "duration": 533}, {"note": 74, "velocity": 107, "duration": 157}, {"note": 0, "velocity": 0, "duration": 83}, {"note": 76, "velocity": 127, "duration": 561}, {"note": 0, "velocity": 0, "duration": 159}, {"note": 76, "velocity": 127, "duration": 178}, {"note": 0, "velocity": 0, "duration": 62}, {"note": 74, "velocity": 127, "duration": 401}, {"note": 0, "velocity": 0, "duration": 79}, {"note": 76, "velocity": 112, "duration": 207}, {"note": 79, "velocity": 112, "duration": 168}, {"note": 0, "velocity": 0, "duration": 72}, {"note": 79, "velocity": 122, "duration": 1074}, {"note": 0, "velocity": 0, "duration": 14286}, {"note": 71, "velocity": 96, "duration": 149}, {"note": 0, "velocity": 0, "duration": 91}, {"note": 71, "velocity": 99, "duration": 105}, {"note": 69, "velocity": 101, "duration": 96}, {"note": 71, "velocity": 104, "duration": 673}, {"note": 69, "velocity": 113, "duration": 211}, {"note": 71, "velocity": 113, "duration": 262}, {"note": 74, "velocity": 113, "duration": 180}, {"note": 76, "velocity": 97, "duration": 408}, {"note": 0, "velocity": 0, "duration": 1512}, {"note": 72, "velocity": 112, "duration": 157}, {"note": 0, "velocity": 0, "duration": 83}, {"note": 72, "velocity": 99, "duration": 65}, {"note": 72, "velocity": 89, "duration": 67}, {"note": 72, "velocity": 117, "duration": 450}, {"note": 0, "velocity": 0, "duration": 270}, {"note": 72, "velocity": 93, "duration": 224}, {"note": 74, "velocity": 96, "duration": 221}, {"note": 76, "velocity": 97, "duration": 224}, {"note": 69, "velocity": 85, "duration": 1012}, {"note": 0, "velocity": 0, "duration": 428}, {"note": 71, "velocity": 100, "duration": 202}, {"note": 72, "velocity": 96, "duration": 168}, {"note": 0, "velocity": 0, "duration": 72}, {"note": 74, "velocity": 122, "duration": 672}, {"note": 74, "velocity": 117, "duration": 190}, {"note": 71, "velocity": 100, "duration": 724}, {"note": 0, "velocity": 0, "duration": 116}, {"note": 69, "velocity": 100, "duration": 290}, {"note": 0, "velocity": 0, "duration": 70}, {"note": 67, "velocity": 100, "duration": 932}, {"note": 0, "velocity": 0, "duration": 508}, {"note": 67, "velocity": 97, "duration": 176}, {"note": 0, "velocity": 0, "duration": 64}, {"note": 76, "velocity": 122, "duration": 603}, {"note": 0, "velocity": 0, "duration": 117}, {"note": 76, "velocity": 122, "duration": 145}, {"note": 0, "velocity": 0, "duration": 95}, {"note": 76, "velocity": 107, "duration": 232}, {"note": 0, "velocity": 0, "duration": 248}, {"note": 72, "velocity": 96, "duration": 107}, {"note": 74, "velocity": 85, "duration": 111}, {"note": 76, "velocity": 95, "duration": 240}, {"note": 74, "velocity": 95, "duration": 1600}, {"note": 0, "velocity": 0, "duration": 320}, {"note": 71, "velocity": 112, "duration": 128}, {"note": 0, "velocity": 0, "duration": 112}, {"note": 71, "velocity": 102, "duration": 81}, {"note": 69, "velocity": 69, "duration": 99}, {"note": 71, "velocity": 97, "duration": 593}, {"note": 0, "velocity": 0, "duration": 127}, {"note": 69, "velocity": 102, "duration": 245}, {"note": 71, "velocity": 112, "duration": 223}, {"note": 74, "velocity": 122, "duration": 181}, {"note": 76, "velocity": 127, "duration": 910}, {"note": 0, "velocity": 0, "duration": 1010}, {"note": 72, "velocity": 127, "duration": 112}, {"note": 0, "velocity": 0, "duration": 128}, {"note": 72, "velocity": 122, "duration": 96}, {"note": 71, "velocity": 92, "duration": 60}, {"note": 72, "velocity": 127, "duration": 497}, {"note": 0, "velocity": 0, "duration": 223}, {"note": 72, "velocity": 102, "duration": 164}, {"note": 0, "velocity": 0, "duration": 76}, {"note": 74, "velocity": 122, "duration": 192}, {"note": 76, "velocity": 97, "duration": 172}, {"note": 0, "velocity": 0, "duration": 68}, {"note": 69, "velocity": 117, "duration": 1295}, {"note": 0, "velocity": 0, "duration": 145}, {"note": 71, "velocity": 97, "duration": 185}, {"note": 72, "velocity": 102, "duration": 204}, {"note": 0, "velocity": 0, "duration": 156}, {"note": 74, "velocity": 127, "duration": 634}, {"note": 0, "velocity": 0, "duration": 326}, {"note": 71, "velocity": 122, "duration": 227}, {"note": 0, "velocity": 0, "duration": 133}, {"note": 69, "velocity": 127, "duration": 277}, {"note": 0, "velocity": 0, "duration": 83}, {"note": 67, "velocity": 102, "duration": 194}, {"note": 76, "velocity": 112, "duration": 977}, {"note": 0, "velocity": 0, "duration": 463}, {"note": 72, "velocity": 107, "duration": 165}, {"note": 0, "velocity": 0, "duration": 75}, {"note": 74, "velocity": 112, "duration": 140}, {"note": 0, "velocity": 0, "duration": 100}, {"note": 76, "velocity": 127, "duration": 814}, {"note": 0, "velocity": 0, "duration": 386}, {"note": 76, "velocity": 112, "duration": 152}, {"note": 0, "velocity": 0, "duration": 88}, {"note": 78, "velocity": 122, "duration": 177}, {"note": 0, "velocity": 0, "duration": 63}, {"note": 79, "velocity": 117, "duration": 174}, {"note": 0, "velocity": 0, "duration": 66}, {"note": 81, "velocity": 127, "duration": 616}, {"note": 0, "velocity": 0, "duration": 104}, {"note": 74, "velocity": 122, "duration": 183}, {"note": 76, "velocity": 127, "duration": 388}, {"note": 0, "velocity": 0, "duration": 92}, {"note": 78, "velocity": 127, "duration": 357}, {"note": 0, "velocity": 0, "duration": 123}, {"note": 79, "velocity": 127, "duration": 377}, {"note": 79, "velocity": 127, "duration": 137}, {"note": 0, "velocity": 0, "duration": 103}, {"note": 79, "velocity": 127, "duration": 459}, {"note": 0, "velocity": 0, "duration": 261}, {"note": 79, "velocity": 127, "duration": 95}, {"note": 0, "velocity": 0, "duration": 145}, {"note": 79, "velocity": 122, "duration": 139}, {"note": 0, "velocity": 0, "duration": 101}, {"note": 79, "velocity": 127, "duration": 152}, {"note": 0, "velocity": 0, "duration": 88}, {"note": 76, "velocity": 127, "duration": 172}, {"note": 0, "velocity": 0, "duration": 68}, {"note": 78, "velocity": 127, "duration": 84}, {"note": 76, "velocity": 122, "duration": 127}, {"note": 0, "velocity": 0, "duration": 233}, {"note": 76, "velocity": 122, "duration": 516}, {"note": 0, "velocity": 0, "duration": 204}, {"note": 74, "velocity": 127, "duration": 154}, {"note": 0, "velocity": 0, "duration": 86}, {"note": 74, "velocity": 117, "duration": 161}, {"note": 0, "velocity": 0, "duration": 79}, {"note": 76, "velocity": 127, "duration": 726}, {"note": 0, "velocity": 0, "duration": 474}, {"note": 76, "velocity": 122, "duration": 152}, {"note": 0, "velocity": 0, "duration": 88}, {"note": 78, "velocity": 127, "duration": 176}, {"note": 0, "velocity": 0, "duration": 64}, {"note": 79, "velocity": 122, "duration": 200}, {"note": 78, "velocity": 127, "duration": 822}, {"note": 74, "velocity": 112, "duration": 155}, {"note": 0, "velocity": 0, "duration": 85}, {"note": 76, "velocity": 127, "duration": 389}, {"note": 0, "velocity": 0, "duration": 91}, {"note": 78, "velocity": 127, "duration": 304}, {"note": 0, "velocity": 0, "duration": 176}, {"note": 79, "velocity": 122, "duration": 113}, {"note": 0, "velocity": 0, "duration": 127}, {"note": 79, "velocity": 117, "duration": 137}, {"note": 0, "velocity": 0, "duration": 103}, {"note": 78, "velocity": 122, "duration": 129}, {"note": 0, "velocity": 0, "duration": 111}, {"note": 79, "velocity": 127, "duration": 484}, {"note": 79, "velocity": 127, "duration": 4}, {"note": 0, "velocity": 0, "duration": 236}, {"note": 79, "velocity": 127, "duration": 129}, {"note": 0, "velocity": 0, "duration": 111}, {"note": 78, "velocity": 127, "duration": 133}, {"note": 0, "velocity": 0, "duration": 107}, {"note": 76, "velocity": 122, "duration": 289}, {"note": 0, "velocity": 0, "duration": 71}, {"note": 78, "velocity": 117, "duration": 211}, {"note": 0, "velocity": 0, "duration": 149}, {"note": 76, "velocity": 127, "duration": 427}, {"note": 0, "velocity": 0, "duration": 533}, {"note": 74, "velocity": 107, "duration": 157}, {"note": 0, "velocity": 0, "duration": 83}, {"note": 76, "velocity": 127, "duration": 561}, {"note": 0, "velocity": 0, "duration": 159}, {"note": 76, "velocity": 127, "duration": 178}, {"note": 0, "velocity": 0, "duration": 62}, {"note": 74, "velocity": 127, "duration": 401}, {"note": 0, "velocity": 0, "duration": 79}, {"note": 76, "velocity": 112, "duration": 207}, {"note": 79, "velocity": 112, "duration": 168}, {"note": 0, "velocity": 0, "duration": 72}, {"note": 79, "velocity": 122, "duration": 1074}, {"note": 0, "velocity": 0, "duration": 7326}, {"note": 74, "velocity": 122, "duration": 183}, {"note": 76, "velocity": 127, "duration": 388}, {"note": 0, "velocity": 0, "duration": 92}, {"note": 78, "velocity": 127, "duration": 357}, {"note": 0, "velocity": 0, "duration": 123}, {"note": 79, "velocity": 127, "duration": 377}, {"note": 79, "velocity": 127, "duration": 137}, {"note": 0, "velocity": 0, "duration": 103}, {"note": 79, "velocity": 127, "duration": 459}, {"note": 0, "velocity": 0, "duration": 261}, {"note": 79, "velocity": 127, "duration": 95}, {"note": 0, "velocity": 0, "duration": 145}, {"note": 79, "velocity": 122, "duration": 139}, {"note": 0, "velocity": 0, "duration": 101}, {"note": 79, "velocity": 127, "duration": 152}, {"note": 0, "velocity": 0, "duration": 88}, {"note": 76, "velocity": 127, "duration": 172}, {"note": 0, "velocity": 0, "duration": 68}, {"note": 78, "velocity": 127, "duration": 84}, {"note": 76, "velocity": 122, "duration": 127}, {"note": 0, "velocity": 0, "duration": 233}, {"note": 76, "velocity": 122, "duration": 516}, {"note": 0, "velocity": 0, "duration": 204}, {"note": 74, "velocity": 127, "duration": 154}, {"note": 0, "velocity": 0, "duration": 86}, {"note": 74, "velocity": 117, "duration": 161}, {"note": 0, "velocity": 0, "duration": 79}, {"note": 76, "velocity": 127, "duration": 726}, {"note": 0, "velocity": 0, "duration": 474}, {"note": 76, "velocity": 122, "duration": 152}, {"note": 0, "velocity": 0, "duration": 88}, {"note": 78, "velocity": 127, "duration": 176}, {"note": 0, "velocity": 0, "duration": 64}, {"note": 79, "velocity": 122, "duration": 200}, {"note": 78, "velocity": 127, "duration": 822}, {"note": 74, "velocity": 112, "duration": 155}, {"note": 0, "velocity": 0, "duration": 85}, {"note": 76, "velocity": 127, "duration": 389}, {"note": 0, "velocity": 0, "duration": 91}, {"note": 78, "velocity": 127, "duration": 304}, {"note": 0, "velocity": 0, "duration": 176}, {"note": 79, "velocity": 122, "duration": 113}, {"note": 0, "velocity": 0, "duration": 127}, {"note": 79, "velocity": 117, "duration": 137}, {"note": 0, "velocity": 0, "duration": 103}, {"note": 78, "velocity": 122, "duration": 129}, {"note": 0, "velocity": 0, "duration": 111}, {"note": 79, "velocity": 127, "duration": 484}, {"note": 79, "velocity": 127, "duration": 4}, {"note": 0, "velocity": 0, "duration": 236}, {"note": 79, "velocity": 127, "duration": 129}, {"note": 0, "velocity": 0, "duration": 111}, {"note": 78, "velocity": 127, "duration": 133}, {"note": 0, "velocity": 0, "duration": 107}, {"note": 76, "velocity": 122, "duration": 289}, {"note": 0, "velocity": 0, "duration": 71}, {"note": 78, "velocity": 117, "duration": 211}, {"note": 0, "velocity": 0, "duration": 149}, {"note": 76, "velocity": 127, "duration": 427}, {"note": 0, "velocity": 0, "duration": 533}, {"note": 74, "velocity": 107, "duration": 157}, {"note": 0, "velocity": 0, "duration": 83}, {"note": 76, "velocity": 127, "duration": 561}, {"note": 0, "velocity": 0, "duration": 159}, {"note": 76, "velocity": 127, "duration": 178}, {"note": 0, "velocity": 0, "duration": 62}, {"note": 74, "velocity": 127, "duration": 401}, {"note": 0, "velocity": 0, "duration": 79}, {"note": 76, "velocity": 112, "duration": 207}, {"note": 79, "velocity": 112, "duration": 168}, {"note": 0, "velocity": 0, "duration": 72}, {"note": 79, "velocity": 122, "duration": 1074}]]