[[{"note": 66, "velocity": 100, "duration": 170}, {"note": 0, "velocity": 0, "duration": 70}, {"note": 64, "velocity": 90, "duration": 146}, {"note": 0, "velocity": 0, "duration": 94}, {"note": 66, "velocity": 112, "duration": 146}, {"note": 0, "velocity": 0, "duration": 94}, {"note": 64, "velocity": 90, "duration": 123}, {"note": 0, "velocity": 0, "duration": 117}, {"note": 66, "velocity": 112, "duration": 130}, {"note": 0, "velocity": 0, "duration": 110}, {"note": 64, "velocity": 93, "duration": 139}, {"note": 0, "velocity": 0, "duration": 101}, {"note": 66, "velocity": 112, "duration": 348}, {"note": 0, "velocity": 0, "duration": 132}, {"note": 68, "velocity": 112, "duration": 339}, {"note": 0, "velocity": 0, "duration": 141}, {"note": 68, "velocity": 112, "duration": 480}, {"note": 61, "velocity": 95, "duration": 788}, {"note": 0, "velocity": 0, "duration": 172}, {"note": 66, "velocity": 117, "duration": 137}, {"note": 0, "velocity": 0, "duration": 103}, {"note": 64, "velocity": 92, "duration": 123}, {"note": 0, "velocity": 0, "duration": 117}, {"note": 66, "velocity": 122, "duration": 140}, {"note": 0, "velocity": 0, "duration": 100}, {"note": 64, "velocity": 93, "duration": 164}, {"note": 0, "velocity": 0, "duration": 76}, {"note": 66, "velocity": 117, "duration": 222}, {"note": 68, "velocity": 112, "duration": 158}, {"note": 0, "velocity": 0, "duration": 82}, {"note": 68, "velocity": 112, "duration": 138}, {"note": 71, "velocity": 96, "duration": 490}, {"note": 0, "velocity": 0, "duration": 110}, {"note": 66, "velocity": 107, "duration": 216}, {"note": 68, "velocity": 112, "duration": 1027}, {"note": 0, "velocity": 0, "duration": 413}, {"note": 66, "velocity": 102, "duration": 165}, {"note": 0, "velocity": 0, "duration": 75}, {"note": 64, "velocity": 85, "duration": 139}, {"note": 0, "velocity": 0, "duration": 101}, {"note": 66, "velocity": 99, "duration": 198}, {"note": 64, "velocity": 78, "duration": 138}, {"note": 0, "velocity": 0, "duration": 102}, {"note": 66, "velocity": 100, "duration": 168}, {"note": 0, "velocity": 0, "duration": 72}, {"note": 64, "velocity": 79, "duration": 133}, {"note": 0, "velocity": 0, "duration": 107}, {"note": 66, "velocity": 107, "duration": 257}, {"note": 0, "velocity": 0, "duration": 223}, {"note": 68, "velocity": 122, "duration": 367}, {"note": 0, "velocity": 0, "duration": 113}, {"note": 68, "velocity": 122, "duration": 480}, {"note": 61, "velocity": 93, "duration": 766}, {"note": 0, "velocity": 0, "duration": 194}, {"note": 61, "velocity": 100, "duration": 176}, {"note": 0, "velocity": 0, "duration": 64}, {"note": 59, "velocity": 86, "duration": 164}, {"note": 0, "velocity": 0, "duration": 76}, {"note": 61, "velocity": 96, "duration": 227}, {"note": 0, "velocity": 0, "duration": 253}, {"note": 64, "velocity": 97, "duration": 175}, {"note": 0, "velocity": 0, "duration": 65}, {"note": 68, "velocity": 99, "duration": 157}, {"note": 0, "velocity": 0, "duration": 83}, {"note": 66, "velocity": 107, "duration": 328}, {"note": 64, "velocity": 97, "duration": 152}, {"note": 0, "velocity": 0, "duration": 88}, {"note": 61, "velocity": 102, "duration": 157}, {"note": 0, "velocity": 0, "duration": 83}, {"note": 59, "velocity": 85, "duration": 149}, {"note": 0, "velocity": 0, "duration": 91}, {"note": 61, "velocity": 100, "duration": 1010}, {"note": 0, "velocity": 0, "duration": 430}, {"note": 68, "velocity": 100, "duration": 173}, {"note": 0, "velocity": 0, "duration": 67}, {"note": 71, "velocity": 97, "duration": 137}, {"note": 0, "velocity": 0, "duration": 103}, {"note": 73, "velocity": 127, "duration": 434}, {"note": 0, "velocity": 0, "duration": 286}, {"note": 75, "velocity": 122, "duration": 153}, {"note": 0, "velocity": 0, "duration": 87}, {"note": 76, "velocity": 112, "duration": 183}, {"note": 75, "velocity": 127, "duration": 214}, {"note": 73, "velocity": 112, "duration": 224}, {"note": 71, "velocity": 112, "duration": 262}, {"note": 68, "velocity": 96, "duration": 939}, {"note": 0, "velocity": 0, "duration": 501}, {"note": 68, "velocity": 117, "duration": 179}, {"note": 0, "velocity": 0, "duration": 61}, {"note": 71, "velocity": 100, "duration": 192}, {"note": 73, "velocity": 112, "duration": 400}, {"note": 0, "velocity": 0, "duration": 320}, {"note": 75, "velocity": 127, "duration": 161}, {"note": 0, "velocity": 0, "duration": 79}, {"note": 76, "velocity": 127, "duration": 159}, {"note": 0, "velocity": 0, "duration": 81}, {"note": 75, "velocity": 127, "duration": 155}, {"note": 0, "velocity": 0, "duration": 85}, {"note": 73, "velocity": 122, "duration": 131}, {"note": 0, "velocity": 0, "duration": 109}, {"note": 71, "velocity": 100, "duration": 230}, {"note": 73, "velocity": 112, "duration": 1221}, {"note": 0, "velocity": 0, "duration": 219}, {"note": 68, "velocity": 122, "duration": 137}, {"note": 0, "velocity": 0, "duration": 103}, {"note": 71, "velocity": 102, "duration": 151}, {"note": 0, "velocity": 0, "duration": 89}, {"note": 73, "velocity": 127, "duration": 135}, {"note": 0, "velocity": 0, "duration": 105}, {"note": 71, "velocity": 112, "duration": 191}, {"note": 73, "velocity": 127, "duration": 106}, {"note": 0, "velocity": 0, "duration": 134}, {"note": 80, "velocity": 127, "duration": 211}, {"note": 78, "velocity": 127, "duration": 623}, {"note": 0, "velocity": 0, "duration": 337}, {"note": 78, "velocity": 127, "duration": 163}, {"note": 0, "velocity": 0, "duration": 77}, {"note": 76, "velocity": 102, "duration": 181}, {"note": 75, "velocity": 122, "duration": 141}, {"note": 0, "velocity": 0, "duration": 99}, {"note": 73, "velocity": 122, "duration": 168}, {"note": 0, "velocity": 0, "duration": 72}, {"note": 68, "velocity": 107, "duration": 397}, {"note": 0, "velocity": 0, "duration": 83}, {"note": 68, "velocity": 122, "duration": 142}, {"note": 0, "velocity": 0, "duration": 98}, {"note": 71, "velocity": 102, "duration": 165}, {"note": 0, "velocity": 0, "duration": 75}, {"note": 73, "velocity": 117, "duration": 177}, {"note": 0, "velocity": 0, "duration": 63}, {"note": 71, "velocity": 107, "duration": 168}, {"note": 0, "velocity": 0, "duration": 72}, {"note": 73, "velocity": 117, "duration": 113}, {"note": 0, "velocity": 0, "duration": 127}, {"note": 80, "velocity": 122, "duration": 185}, {"note": 78, "velocity": 127, "duration": 346}, {"note": 76, "velocity": 112, "duration": 309}, {"note": 0, "velocity": 0, "duration": 171}, {"note": 73, "velocity": 122, "duration": 117}, {"note": 71, "velocity": 89, "duration": 122}, {"note": 73, "velocity": 122, "duration": 1244}, {"note": 0, "velocity": 0, "duration": 15556}, {"note": 66, "velocity": 100, "duration": 170}, {"note": 0, "velocity": 0, "duration": 70}, {"note": 64, "velocity": 90, "duration": 146}, {"note": 0, "velocity": 0, "duration": 94}, {"note": 66, "velocity": 112, "duration": 146}, {"note": 0, "velocity": 0, "duration": 94}, {"note": 64, "velocity": 90, "duration": 123}, {"note": 0, "velocity": 0, "duration": 117}, {"note": 66, "velocity": 112, "duration": 130}, {"note": 0, "velocity": 0, "duration": 110}, {"note": 64, "velocity": 93, "duration": 139}, {"note": 0, "velocity": 0, "duration": 101}, {"note": 66, "velocity": 112, "duration": 348}, {"note": 0, "velocity": 0, "duration": 132}, {"note": 68, "velocity": 112, "duration": 339}, {"note": 0, "velocity": 0, "duration": 141}, {"note": 68, "velocity": 112, "duration": 480}, {"note": 61, "velocity": 95, "duration": 788}, {"note": 0, "velocity": 0, "duration": 172}, {"note": 66, "velocity": 117, "duration": 137}, {"note": 0, "velocity": 0, "duration": 103}, {"note": 64, "velocity": 92, "duration": 123}, {"note": 0, "velocity": 0, "duration": 117}, {"note": 66, "velocity": 122, "duration": 140}, {"note": 0, "velocity": 0, "duration": 100}, {"note": 64, "velocity": 93, "duration": 164}, {"note": 0, "velocity": 0, "duration": 76}, {"note": 66, "velocity": 117, "duration": 222}, {"note": 68, "velocity": 112, "duration": 158}, {"note": 0, "velocity": 0, "duration": 82}, {"note": 68, "velocity": 112, "duration": 138}, {"note": 71, "velocity": 96, "duration": 490}, {"note": 0, "velocity": 0, "duration": 110}, {"note": 66, "velocity": 107, "duration": 216}, {"note": 68, "velocity": 112, "duration": 1027}, {"note": 0, "velocity": 0, "duration": 413}, {"note": 66, "velocity": 102, "duration": 165}, {"note": 0, "velocity": 0, "duration": 75}, {"note": 64, "velocity": 85, "duration": 139}, {"note": 0, "velocity": 0, "duration": 101}, {"note": 66, "velocity": 99, "duration": 198}, {"note": 64, "velocity": 78, "duration": 138}, {"note": 0, "velocity": 0, "duration": 102}, {"note": 66, "velocity": 100, "duration": 168}, {"note": 0, "velocity": 0, "duration": 72}, {"note": 64, "velocity": 79, "duration": 133}, {"note": 0, "velocity": 0, "duration": 107}, {"note": 66, "velocity": 107, "duration": 257}, {"note": 0, "velocity": 0, "duration": 223}, {"note": 68, "velocity": 122, "duration": 367}, {"note": 0, "velocity": 0, "duration": 113}, {"note": 68, "velocity": 122, "duration": 480}, {"note": 61, "velocity": 93, "duration": 766}, {"note": 0, "velocity": 0, "duration": 194}, {"note": 61, "velocity": 100, "duration": 176}, {"note": 0, "velocity": 0, "duration": 64}, {"note": 59, "velocity": 86, "duration": 164}, {"note": 0, "velocity": 0, "duration": 76}, {"note": 61, "velocity": 96, "duration": 227}, {"note": 0, "velocity": 0, "duration": 253}, {"note": 64, "velocity": 97, "duration": 175}, {"note": 0, "velocity": 0, "duration": 65}, {"note": 68, "velocity": 99, "duration": 157}, {"note": 0, "velocity": 0, "duration": 83}, {"note": 66, "velocity": 107, "duration": 328}, {"note": 64, "velocity": 97, "duration": 152}, {"note": 0, "velocity": 0, "duration": 88}, {"note": 61, "velocity": 102, "duration": 157}, {"note": 0, "velocity": 0, "duration": 83}, {"note": 59, "velocity": 85, "duration": 149}, {"note": 0, "velocity": 0, "duration": 91}, {"note": 61, "velocity": 100, "duration": 1010}, {"note": 0, "velocity": 0, "duration": 430}, {"note": 68, "velocity": 100, "duration": 173}, {"note": 0, "velocity": 0, "duration": 67}, {"note": 71, "velocity": 97, "duration": 137}, {"note": 0, "velocity": 0, "duration": 103}, {"note": 73, "velocity": 127, "duration": 434}, {"note": 0, "velocity": 0, "duration": 286}, {"note": 75, "velocity": 122, "duration": 153}, {"note": 0, "velocity": 0, "duration": 87}, {"note": 76, "velocity": 112, "duration": 183}, {"note": 75, "velocity": 127, "duration": 214}, {"note": 73, "velocity": 112, "duration": 224}, {"note": 71, "velocity": 112, "duration": 262}, {"note": 68, "velocity": 96, "duration": 939}, {"note": 0, "velocity": 0, "duration": 501}, {"note": 68, "velocity": 117, "duration": 179}, {"note": 0, "velocity": 0, "duration": 61}, {"note": 71, "velocity": 100, "duration": 192}, {"note": 73, "velocity": 112, "duration": 400}, {"note": 0, "velocity": 0, "duration": 320}, {"note": 75, "velocity": 127, "duration": 161}, {"note": 0, "velocity": 0, "duration": 79}, {"note": 76, "velocity": 127, "duration": 159}, {"note": 0, "velocity": 0, "duration": 81}, {"note": 75, "velocity": 127, "duration": 155}, {"note": 0, "velocity": 0, "duration": 85}, {"note": 73, "velocity": 122, "duration": 131}, {"note": 0, "velocity": 0, "duration": 109}, {"note": 71, "velocity": 100, "duration": 230}, {"note": 73, "velocity": 112, "duration": 1221}, {"note": 0, "velocity": 0, "duration": 219}, {"note": 68, "velocity": 122, "duration": 137}, {"note": 0, "velocity": 0, "duration": 103}, {"note": 71, "velocity": 102, "duration": 151}, {"note": 0, "velocity": 0, "duration": 89}, {"note": 73, "velocity": 127, "duration": 135}, {"note": 0, "velocity": 0, "duration": 105}, {"note": 71, "velocity": 112, "duration": 191}, {"note": 73, "velocity": 127, "duration": 106}, {"note": 0, "velocity": 0, "duration": 134}, {"note": 80, "velocity": 127, "duration": 211}, {"note": 78, "velocity": 127, "duration": 623}, {"note": 0, "velocity": 0, "duration": 337}, {"note": 78, "velocity": 127, "duration": 163}, {"note": 0, "velocity": 0, "duration": 77}, {"note": 76, "velocity": 102, "duration": 181}, {"note": 75, "velocity": 122, "duration": 141}, {"note": 0, "velocity": 0, "duration": 99}, {"note": 73, "velocity": 122, "duration": 168}, {"note": 0, "velocity": 0, "duration": 72}, {"note": 68, "velocity": 107, "duration": 397}, {"note": 0, "velocity": 0, "duration": 83}, {"note": 68, "velocity": 122, "duration": 142}, {"note": 0, "velocity": 0, "duration": 98}, {"note": 71, "velocity": 102, "duration": 165}, {"note": 0, "velocity": 0, "duration": 75}, {"note": 73, "velocity": 117, "duration": 177}, {"note": 0, "velocity": 0, "duration": 63}, {"note": 71, "velocity": 107, "duration": 168}, {"note": 0, "velocity": 0, "duration": 72}, {"note": 73, "velocity": 117, "duration": 113}, {"note": 0, "velocity": 0, "duration": 127}, {"note": 80, "velocity": 122, "duration": 185}, {"note": 78, "velocity": 127, "duration": 346}, {"note": 76, "velocity": 112, "duration": 309}, {"note": 0, "velocity": 0, "duration": 171}, {"note": 73, "velocity": 122, "duration": 117}, {"note": 71, "velocity": 89, "duration": 122}, {"note": 73, "velocity": 122, "duration": 1244}, {"note": 0, "velocity": 0, "duration": 676}, {"note": 73, "velocity": 127, "duration": 188}, {"note": 80, "velocity": 122, "duration": 204}, {"note": 78, "velocity": 127, "duration": 209}, {"note": 76, "velocity": 100, "duration": 135}, {"note": 0, "velocity": 0, "duration": 105}, {"note": 73, "velocity": 112, "duration": 639}, {"note": 0, "velocity": 0, "duration": 201}, {"note": 73, "velocity": 117, "duration": 48}, {"note": 0, "velocity": 0, "duration": 72}, {"note": 73, "velocity": 122, "duration": 155}, {"note": 0, "velocity": 0, "duration": 85}, {"note": 80, "velocity": 107, "duration": 189}, {"note": 78, "velocity": 122, "duration": 154}, {"note": 0, "velocity": 0, "duration": 86}, {"note": 76, "velocity": 100, "duration": 161}, {"note": 0, "velocity": 0, "duration": 79}, {"note": 73, "velocity": 122, "duration": 676}, {"note": 0, "velocity": 0, "duration": 284}, {"note": 73, "velocity": 122, "duration": 167}, {"note": 0, "velocity": 0, "duration": 73}, {"note": 76, "velocity": 99, "duration": 153}, {"note": 0, "velocity": 0, "duration": 87}, {"note": 78, "velocity": 127, "duration": 170}, {"note": 0, "velocity": 0, "duration": 70}, {"note": 76, "velocity": 117, "duration": 211}, {"note": 75, "velocity": 122, "duration": 248}, {"note": 73, "velocity": 122, "duration": 181}, {"note": 71, "velocity": 107, "duration": 205}, {"note": 66, "velocity": 112, "duration": 199}, {"note": 68, "velocity": 117, "duration": 819}, {"note": 0, "velocity": 0, "duration": 1101}, {"note": 73, "velocity": 127, "duration": 188}, {"note": 80, "velocity": 122, "duration": 204}, {"note": 78, "velocity": 127, "duration": 209}, {"note": 76, "velocity": 100, "duration": 135}, {"note": 0, "velocity": 0, "duration": 105}, {"note": 73, "velocity": 112, "duration": 311}, {"note": 0, "velocity": 0, "duration": 169}, {"note": 71, "velocity": 112, "duration": 128}, {"note": 0, "velocity": 0, "duration": 112}, {"note": 73, "velocity": 117, "duration": 87}, {"note": 0, "velocity": 0, "duration": 153}, {"note": 73, "velocity": 122, "duration": 155}, {"note": 0, "velocity": 0, "duration": 85}, {"note": 80, "velocity": 107, "duration": 189}, {"note": 78, "velocity": 122, "duration": 154}, {"note": 0, "velocity": 0, "duration": 86}, {"note": 76, "velocity": 100, "duration": 161}, {"note": 0, "velocity": 0, "duration": 79}, {"note": 73, "velocity": 122, "duration": 676}, {"note": 0, "velocity": 0, "duration": 284}, {"note": 73, "velocity": 122, "duration": 167}, {"note": 0, "velocity": 0, "duration": 73}, {"note": 76, "velocity": 99, "duration": 153}, {"note": 0, "velocity": 0, "duration": 87}, {"note": 78, "velocity": 127, "duration": 170}, {"note": 0, "velocity": 0, "duration": 70}, {"note": 76, "velocity": 117, "duration": 211}, {"note": 75, "velocity": 122, "duration": 248}, {"note": 71, "velocity": 107, "duration": 163}, {"note": 0, "velocity": 0, "duration": 77}, {"note": 68, "velocity": 100, "duration": 172}, {"note": 0, "velocity": 0, "duration": 68}, {"note": 73, "velocity": 112, "duration": 383}, {"note": 0, "velocity": 0, "duration": 97}, {"note": 73, "velocity": 127, "duration": 1449}, {"note": 0, "velocity": 0, "duration": 7431}, {"note": 68, "velocity": 122, "duration": 137}, {"note": 0, "velocity": 0, "duration": 103}, {"note": 71, "velocity": 102, "duration": 151}, {"note": 0, "velocity": 0, "duration": 89}, {"note": 73, "velocity": 127, "duration": 135}, {"note": 0, "velocity": 0, "duration": 105}, {"note": 71, "velocity": 112, "duration": 191}, {"note": 73, "velocity": 127, "duration": 106}, {"note": 0, "velocity": 0, "duration": 134}, {"note": 80, "velocity": 127, "duration": 211}, {"note": 78, "velocity": 127, "duration": 623}, {"note": 0, "velocity": 0, "duration": 337}, {"note": 78, "velocity": 127, "duration": 163}, {"note": 0, "velocity": 0, "duration": 77}, {"note": 76, "velocity": 102, "duration": 181}, {"note": 75, "velocity": 122, "duration": 141}, {"note": 0, "velocity": 0, "duration": 99}, {"note": 73, "velocity": 122, "duration": 168}, {"note": 0, "velocity": 0, "duration": 72}, {"note": 68, "velocity": 107, "duration": 397}, {"note": 0, "velocity": 0, "duration": 83}, {"note": 68, "velocity": 122, "duration": 142}, {"note": 0, "velocity": 0, "duration": 98}, {"note": 71, "velocity": 102, "duration": 165}, {"note": 0, "velocity": 0, "duration": 75}, {"note": 73, "velocity": 117, "duration": 177}, {"note": 0, "velocity": 0, "duration": 63}, {"note": 71, "velocity": 107, "duration": 168}, {"note": 0, "velocity": 0, "duration": 72}, {"note": 73, "velocity": 117, "duration": 113}, {"note": 0, "velocity": 0, "duration": 127}, {"note": 80, "velocity": 122, "duration": 185}, {"note": 78, "velocity": 127, "duration": 346}, {"note": 76, "velocity": 112, "duration": 309}, {"note": 0, "velocity": 0, "duration": 171}, {"note": 73, "velocity": 122, "duration": 117}, {"note": 71, "velocity": 89, "duration": 122}, {"note": 73, "velocity": 122, "duration": 960}, {"note": 0, "velocity": 0, "duration": 480}, {"note": 68, "velocity": 112, "duration": 158}, {"note": 0, "velocity": 0, "duration": 82}, {"note": 71, "velocity": 90, "duration": 156}, {"note": 0, "velocity": 0, "duration": 84}, {"note": 73, "velocity": 122, "duration": 170}, {"note": 0, "velocity": 0, "duration": 70}, {"note": 71, "velocity": 102, "duration": 182}, {"note": 73, "velocity": 122, "duration": 121}, {"note": 0, "velocity": 0, "duration": 199}, {"note": 80, "velocity": 127, "duration": 185}, {"note": 78, "velocity": 127, "duration": 523}, {"note": 76, "velocity": 122, "duration": 863}, {"note": 0, "velocity": 0, "duration": 533}, {"note": 73, "velocity": 117, "duration": 614}, {"note": 0, "velocity": 0, "duration": 92}, {"note": 71, "velocity": 122, "duration": 440}, {"note": 0, "velocity": 0, "duration": 79}, {"note": 73, "velocity": 127, "duration": 2459}]]