[[{"note": 69, "velocity": 100, "duration": 143}, {"note": 0, "velocity": 0, "duration": 97}, {"note": 72, "velocity": 122, "duration": 131}, {"note": 0, "velocity": 0, "duration": 109}, {"note": 74, "velocity": 112, "duration": 106}, {"note": 0, "velocity": 0, "duration": 134}, {"note": 77, "velocity": 127, "duration": 265}, {"note": 0, "velocity": 0, "duration": 215}, {"note": 77, "velocity": 127, "duration": 247}, {"note": 0, "velocity": 0, "duration": 233}, {"note": 74, "velocity": 127, "duration": 76}, {"note": 0, "velocity": 0, "duration": 164}, {"note": 74, "velocity": 127, "duration": 637}, {"note": 0, "velocity": 0, "duration": 1283}, {"note": 72, "velocity": 96, "duration": 171}, {"note": 0, "velocity": 0, "duration": 69}, {"note": 74, "velocity": 107, "duration": 140}, {"note": 0, "velocity": 0, "duration": 100}, {"note": 77, "velocity": 112, "duration": 223}, {"note": 74, "velocity": 107, "duration": 314}, {"note": 0, "velocity": 0, "duration": 166}, {"note": 72, "velocity": 127, "duration": 228}, {"note": 74, "velocity": 99, "duration": 239}, {"note": 69, "velocity": 102, "duration": 480}, {"note": 0, "velocity": 0, "duration": 272}, {"note": 69, "velocity": 102, "duration": 480}, {"note": 0, "velocity": 0, "duration": 928}, {"note": 72, "velocity": 102, "duration": 221}, {"note": 74, "velocity": 117, "duration": 247}, {"note": 77, "velocity": 112, "duration": 144}, {"note": 0, "velocity": 0, "duration": 96}, {"note": 77, "velocity": 127, "duration": 295}, {"note": 0, "velocity": 0, "duration": 185}, {"note": 77, "velocity": 122, "duration": 216}, {"note": 0, "velocity": 0, "duration": 144}, {"note": 77, "velocity": 102, "duration": 134}, {"note": 74, "velocity": 99, "duration": 223}, {"note": 79, "velocity": 117, "duration": 1553}, {"note": 0, "velocity": 0, "duration": 367}, {"note": 81, "velocity": 117, "duration": 109}, {"note": 0, "velocity": 0, "duration": 131}, {"note": 81, "velocity": 122, "duration": 105}, {"note": 0, "velocity": 0, "duration": 135}, {"note": 81, "velocity": 127, "duration": 136}, {"note": 0, "velocity": 0, "duration": 104}, {"note": 79, "velocity": 127, "duration": 248}, {"note": 0, "velocity": 0, "duration": 232}, {"note": 77, "velocity": 127, "duration": 190}, {"note": 72, "velocity": 100, "duration": 211}, {"note": 74, "velocity": 127, "duration": 158}, {"note": 0, "velocity": 0, "duration": 82}, {"note": 74, "velocity": 102, "duration": 93}, {"note": 0, "velocity": 0, "duration": 147}, {"note": 74, "velocity": 117, "duration": 119}, {"note": 0, "velocity": 0, "duration": 121}, {"note": 77, "velocity": 127, "duration": 291}, {"note": 0, "velocity": 0, "duration": 189}, {"note": 74, "velocity": 127, "duration": 1247}, {"note": 0, "velocity": 0, "duration": 673}, {"note": 69, "velocity": 112, "duration": 178}, {"note": 0, "velocity": 0, "duration": 62}, {"note": 72, "velocity": 112, "duration": 191}, {"note": 74, "velocity": 100, "duration": 180}, {"note": 77, "velocity": 122, "duration": 342}, {"note": 0, "velocity": 0, "duration": 138}, {"note": 77, "velocity": 122, "duration": 338}, {"note": 0, "velocity": 0, "duration": 142}, {"note": 74, "velocity": 99, "duration": 97}, {"note": 0, "velocity": 0, "duration": 143}, {"note": 74, "velocity": 102, "duration": 557}, {"note": 0, "velocity": 0, "duration": 1363}, {"note": 72, "velocity": 107, "duration": 194}, {"note": 74, "velocity": 102, "duration": 226}, {"note": 77, "velocity": 97, "duration": 240}, {"note": 74, "velocity": 117, "duration": 321}, {"note": 0, "velocity": 0, "duration": 159}, {"note": 72, "velocity": 127, "duration": 211}, {"note": 74, "velocity": 100, "duration": 204}, {"note": 69, "velocity": 112, "duration": 480}, {"note": 0, "velocity": 0, "duration": 240}, {"note": 69, "velocity": 112, "duration": 480}, {"note": 0, "velocity": 0, "duration": 960}, {"note": 72, "velocity": 102, "duration": 228}, {"note": 74, "velocity": 102, "duration": 236}, {"note": 77, "velocity": 102, "duration": 133}, {"note": 0, "velocity": 0, "duration": 107}, {"note": 77, "velocity": 127, "duration": 283}, {"note": 0, "velocity": 0, "duration": 197}, {"note": 77, "velocity": 127, "duration": 216}, {"note": 0, "velocity": 0, "duration": 144}, {"note": 77, "velocity": 99, "duration": 112}, {"note": 74, "velocity": 100, "duration": 169}, {"note": 0, "velocity": 0, "duration": 71}, {"note": 79, "velocity": 127, "duration": 838}, {"note": 0, "velocity": 0, "duration": 1082}, {"note": 81, "velocity": 122, "duration": 105}, {"note": 0, "velocity": 0, "duration": 135}, {"note": 81, "velocity": 117, "duration": 98}, {"note": 0, "velocity": 0, "duration": 142}, {"note": 81, "velocity": 90, "duration": 120}, {"note": 0, "velocity": 0, "duration": 120}, {"note": 79, "velocity": 122, "duration": 301}, {"note": 0, "velocity": 0, "duration": 179}, {"note": 77, "velocity": 117, "duration": 206}, {"note": 72, "velocity": 100, "duration": 103}, {"note": 0, "velocity": 0, "duration": 137}, {"note": 72, "velocity": 102, "duration": 198}, {"note": 74, "velocity": 117, "duration": 160}, {"note": 0, "velocity": 0, "duration": 80}, {"note": 74, "velocity": 93, "duration": 151}, {"note": 0, "velocity": 0, "duration": 89}, {"note": 77, "velocity": 122, "duration": 327}, {"note": 0, "velocity": 0, "duration": 153}, {"note": 74, "velocity": 117, "duration": 1680}, {"note": 0, "velocity": 0, "duration": 14640}, {"note": 69, "velocity": 100, "duration": 143}, {"note": 0, "velocity": 0, "duration": 97}, {"note": 72, "velocity": 122, "duration": 131}, {"note": 0, "velocity": 0, "duration": 109}, {"note": 74, "velocity": 112, "duration": 106}, {"note": 0, "velocity": 0, "duration": 134}, {"note": 77, "velocity": 127, "duration": 265}, {"note": 0, "velocity": 0, "duration": 215}, {"note": 77, "velocity": 127, "duration": 247}, {"note": 0, "velocity": 0, "duration": 233}, {"note": 74, "velocity": 127, "duration": 76}, {"note": 0, "velocity": 0, "duration": 164}, {"note": 74, "velocity": 127, "duration": 637}, {"note": 0, "velocity": 0, "duration": 1283}, {"note": 72, "velocity": 96, "duration": 171}, {"note": 0, "velocity": 0, "duration": 69}, {"note": 74, "velocity": 107, "duration": 140}, {"note": 0, "velocity": 0, "duration": 100}, {"note": 77, "velocity": 112, "duration": 223}, {"note": 74, "velocity": 107, "duration": 314}, {"note": 0, "velocity": 0, "duration": 166}, {"note": 72, "velocity": 127, "duration": 228}, {"note": 74, "velocity": 99, "duration": 239}, {"note": 69, "velocity": 102, "duration": 480}, {"note": 0, "velocity": 0, "duration": 272}, {"note": 69, "velocity": 102, "duration": 480}, {"note": 0, "velocity": 0, "duration": 928}, {"note": 72, "velocity": 102, "duration": 221}, {"note": 74, "velocity": 117, "duration": 247}, {"note": 77, "velocity": 112, "duration": 144}, {"note": 0, "velocity": 0, "duration": 96}, {"note": 77, "velocity": 127, "duration": 295}, {"note": 0, "velocity": 0, "duration": 185}, {"note": 77, "velocity": 122, "duration": 216}, {"note": 0, "velocity": 0, "duration": 144}, {"note": 77, "velocity": 102, "duration": 134}, {"note": 74, "velocity": 99, "duration": 223}, {"note": 79, "velocity": 117, "duration": 1553}, {"note": 0, "velocity": 0, "duration": 367}, {"note": 81, "velocity": 117, "duration": 109}, {"note": 0, "velocity": 0, "duration": 131}, {"note": 81, "velocity": 122, "duration": 105}, {"note": 0, "velocity": 0, "duration": 135}, {"note": 81, "velocity": 127, "duration": 136}, {"note": 0, "velocity": 0, "duration": 104}, {"note": 79, "velocity": 127, "duration": 248}, {"note": 0, "velocity": 0, "duration": 232}, {"note": 77, "velocity": 127, "duration": 190}, {"note": 72, "velocity": 100, "duration": 211}, {"note": 74, "velocity": 127, "duration": 158}, {"note": 0, "velocity": 0, "duration": 82}, {"note": 74, "velocity": 102, "duration": 93}, {"note": 0, "velocity": 0, "duration": 147}, {"note": 74, "velocity": 117, "duration": 119}, {"note": 0, "velocity": 0, "duration": 121}, {"note": 77, "velocity": 127, "duration": 291}, {"note": 0, "velocity": 0, "duration": 189}, {"note": 74, "velocity": 127, "duration": 1200}, {"note": 0, "velocity": 0, "duration": 18000}, {"note": 69, "velocity": 100, "duration": 143}, {"note": 0, "velocity": 0, "duration": 97}, {"note": 72, "velocity": 122, "duration": 131}, {"note": 0, "velocity": 0, "duration": 109}, {"note": 74, "velocity": 112, "duration": 106}, {"note": 0, "velocity": 0, "duration": 134}, {"note": 77, "velocity": 127, "duration": 265}, {"note": 0, "velocity": 0, "duration": 215}, {"note": 77, "velocity": 127, "duration": 247}, {"note": 0, "velocity": 0, "duration": 233}, {"note": 74, "velocity": 127, "duration": 76}, {"note": 0, "velocity": 0, "duration": 164}, {"note": 74, "velocity": 127, "duration": 637}, {"note": 0, "velocity": 0, "duration": 1283}, {"note": 72, "velocity": 96, "duration": 171}, {"note": 0, "velocity": 0, "duration": 69}, {"note": 74, "velocity": 107, "duration": 140}, {"note": 0, "velocity": 0, "duration": 100}, {"note": 77, "velocity": 112, "duration": 223}, {"note": 74, "velocity": 107, "duration": 314}, {"note": 0, "velocity": 0, "duration": 166}, {"note": 72, "velocity": 127, "duration": 228}, {"note": 74, "velocity": 99, "duration": 239}, {"note": 69, "velocity": 102, "duration": 480}, {"note": 0, "velocity": 0, "duration": 272}, {"note": 69, "velocity": 102, "duration": 480}, {"note": 0, "velocity": 0, "duration": 928}, {"note": 72, "velocity": 102, "duration": 221}, {"note": 74, "velocity": 117, "duration": 247}, {"note": 77, "velocity": 112, "duration": 144}, {"note": 0, "velocity": 0, "duration": 96}, {"note": 77, "velocity": 127, "duration": 295}, {"note": 0, "velocity": 0, "duration": 185}, {"note": 77, "velocity": 122, "duration": 216}, {"note": 0, "velocity": 0, "duration": 144}, {"note": 77, "velocity": 102, "duration": 134}, {"note": 74, "velocity": 99, "duration": 223}, {"note": 79, "velocity": 117, "duration": 1553}, {"note": 0, "velocity": 0, "duration": 367}, {"note": 81, "velocity": 117, "duration": 109}, {"note": 0, "velocity": 0, "duration": 131}, {"note": 81, "velocity": 122, "duration": 105}, {"note": 0, "velocity": 0, "duration": 135}, {"note": 81, "velocity": 127, "duration": 136}, {"note": 0, "velocity": 0, "duration": 104}, {"note": 79, "velocity": 127, "duration": 248}, {"note": 0, "velocity": 0, "duration": 232}, {"note": 77, "velocity": 127, "duration": 190}, {"note": 72, "velocity": 100, "duration": 211}, {"note": 74, "velocity": 127, "duration": 158}, {"note": 0, "velocity": 0, "duration": 82}, {"note": 74, "velocity": 102, "duration": 93}, {"note": 0, "velocity": 0, "duration": 147}, {"note": 74, "velocity": 117, "duration": 119}, {"note": 0, "velocity": 0, "duration": 121}, {"note": 77, "velocity": 127, "duration": 291}, {"note": 0, "velocity": 0, "duration": 189}, {"note": 74, "velocity": 127, "duration": 1247}, {"note": 0, "velocity": 0, "duration": 1633}, {"note": 72, "velocity": 112, "duration": 120}, {"note": 0, "velocity": 0, "duration": 120}, {"note": 72, "velocity": 99, "duration": 195}, {"note": 74, "velocity": 107, "duration": 182}, {"note": 77, "velocity": 117, "duration": 200}, {"note": 74, "velocity": 107, "duration": 178}, {"note": 0, "velocity": 0, "duration": 62}, {"note": 79, "velocity": 127, "duration": 1624}, {"note": 0, "velocity": 0, "duration": 536}, {"note": 72, "velocity": 99, "duration": 136}, {"note": 0, "velocity": 0, "duration": 104}, {"note": 72, "velocity": 107, "duration": 201}, {"note": 74, "velocity": 127, "duration": 176}, {"note": 0, "velocity": 0, "duration": 64}, {"note": 77, "velocity": 117, "duration": 220}, {"note": 74, "velocity": 107, "duration": 115}, {"note": 0, "velocity": 0, "duration": 125}, {"note": 74, "velocity": 127, "duration": 1492}, {"note": 0, "velocity": 0, "duration": 668}, {"note": 72, "velocity": 112, "duration": 120}, {"note": 0, "velocity": 0, "duration": 120}, {"note": 72, "velocity": 99, "duration": 195}, {"note": 74, "velocity": 107, "duration": 182}, {"note": 77, "velocity": 117, "duration": 200}, {"note": 74, "velocity": 107, "duration": 178}, {"note": 0, "velocity": 0, "duration": 62}, {"note": 79, "velocity": 127, "duration": 1624}, {"note": 0, "velocity": 0, "duration": 536}, {"note": 72, "velocity": 99, "duration": 136}, {"note": 0, "velocity": 0, "duration": 104}, {"note": 72, "velocity": 107, "duration": 201}, {"note": 74, "velocity": 127, "duration": 176}, {"note": 0, "velocity": 0, "duration": 64}, {"note": 77, "velocity": 117, "duration": 220}, {"note": 74, "velocity": 107, "duration": 115}, {"note": 0, "velocity": 0, "duration": 125}, {"note": 74, "velocity": 127, "duration": 1492}, {"note": 0, "velocity": 0, "duration": 668}, {"note": 72, "velocity": 112, "duration": 120}, {"note": 0, "velocity": 0, "duration": 120}, {"note": 72, "velocity": 99, "duration": 195}, {"note": 74, "velocity": 107, "duration": 182}, {"note": 77, "velocity": 117, "duration": 200}, {"note": 74, "velocity": 107, "duration": 178}, {"note": 0, "velocity": 0, "duration": 62}, {"note": 79, "velocity": 127, "duration": 1624}, {"note": 0, "velocity": 0, "duration": 536}, {"note": 72, "velocity": 99, "duration": 136}, {"note": 0, "velocity": 0, "duration": 104}, {"note": 72, "velocity": 107, "duration": 201}, {"note": 74, "velocity": 127, "duration": 176}, {"note": 0, "velocity": 0, "duration": 64}, {"note": 77, "velocity": 117, "duration": 220}, {"note": 74, "velocity": 107, "duration": 115}, {"note": 0, "velocity": 0, "duration": 125}, {"note": 74, "velocity": 127, "duration": 1492}, {"note": 0, "velocity": 0, "duration": 668}, {"note": 72, "velocity": 112, "duration": 120}, {"note": 0, "velocity": 0, "duration": 120}, {"note": 72, "velocity": 99, "duration": 195}, {"note": 74, "velocity": 107, "duration": 182}, {"note": 77, "velocity": 117, "duration": 200}, {"note": 74, "velocity": 107, "duration": 178}, {"note": 0, "velocity": 0, "duration": 62}, {"note": 79, "velocity": 127, "duration": 1624}, {"note": 0, "velocity": 0, "duration": 536}, {"note": 72, "velocity": 99, "duration": 136}, {"note": 0, "velocity": 0, "duration": 104}, {"note": 72, "velocity": 107, "duration": 201}, {"note": 74, "velocity": 127, "duration": 176}, {"note": 0, "velocity": 0, "duration": 64}, {"note": 77, "velocity": 117, "duration": 220}, {"note": 74, "velocity": 107, "duration": 115}, {"note": 0, "velocity": 0, "duration": 125}, {"note": 74, "velocity": 127, "duration": 1492}]]