[[{"note": 57, "velocity": 112, "duration": 211}, {"note": 64, "velocity": 99, "duration": 137}, {"note": 0, "velocity": 0, "duration": 103}, {"note": 64, "velocity": 127, "duration": 169}, {"note": 0, "velocity": 0, "duration": 71}, {"note": 64, "velocity": 127, "duration": 111}, {"note": 0, "velocity": 0, "duration": 129}, {"note": 64, "velocity": 112, "duration": 146}, {"note": 0, "velocity": 0, "duration": 94}, {"note": 64, "velocity": 117, "duration": 154}, {"note": 0, "velocity": 0, "duration": 86}, {"note": 62, "velocity": 122, "duration": 108}, {"note": 0, "velocity": 0, "duration": 132}, {"note": 60, "velocity": 102, "duration": 139}, {"note": 0, "velocity": 0, "duration": 101}, {"note": 62, "velocity": 127, "duration": 107}, {"note": 0, "velocity": 0, "duration": 133}, {"note": 62, "velocity": 102, "duration": 164}, {"note": 0, "velocity": 0, "duration": 76}, {"note": 60, "velocity": 112, "duration": 207}, {"note": 59, "velocity": 89, "duration": 178}, {"note": 0, "velocity": 0, "duration": 62}, {"note": 57, "velocity": 112, "duration": 293}, {"note": 0, "velocity": 0, "duration": 667}, {"note": 59, "velocity": 107, "duration": 93}, {"note": 0, "velocity": 0, "duration": 147}, {"note": 59, "velocity": 95, "duration": 95}, {"note": 0, "velocity": 0, "duration": 145}, {"note": 59, "velocity": 102, "duration": 139}, {"note": 0, "velocity": 0, "duration": 101}, {"note": 60, "velocity": 112, "duration": 166}, {"note": 0, "velocity": 0, "duration": 74}, {"note": 62, "velocity": 127, "duration": 183}, {"note": 55, "velocity": 100, "duration": 105}, {"note": 0, "velocity": 0, "duration": 135}, {"note": 55, "velocity": 99, "duration": 101}, {"note": 0, "velocity": 0, "duration": 139}, {"note": 55, "velocity": 112, "duration": 94}, {"note": 0, "velocity": 0, "duration": 146}, {"note": 60, "velocity": 107, "duration": 195}, {"note": 59, "velocity": 90, "duration": 154}, {"note": 0, "velocity": 0, "duration": 86}, {"note": 60, "velocity": 127, "duration": 157}, {"note": 0, "velocity": 0, "duration": 83}, {"note": 62, "velocity": 107, "duration": 126}, {"note": 0, "velocity": 0, "duration": 114}, {"note": 64, "velocity": 127, "duration": 441}, {"note": 0, "velocity": 0, "duration": 519}, {"note": 57, "velocity": 112, "duration": 126}, {"note": 0, "velocity": 0, "duration": 114}, {"note": 69, "velocity": 127, "duration": 103}, {"note": 0, "velocity": 0, "duration": 137}, {"note": 69, "velocity": 117, "duration": 98}, {"note": 0, "velocity": 0, "duration": 142}, {"note": 67, "velocity": 112, "duration": 173}, {"note": 0, "velocity": 0, "duration": 67}, {"note": 69, "velocity": 102, "duration": 99}, {"note": 0, "velocity": 0, "duration": 141}, {"note": 69, "velocity": 112, "duration": 196}, {"note": 67, "velocity": 122, "duration": 141}, {"note": 0, "velocity": 0, "duration": 99}, {"note": 64, "velocity": 127, "duration": 218}, {"note": 62, "velocity": 122, "duration": 179}, {"note": 0, "velocity": 0, "duration": 61}, {"note": 62, "velocity": 100, "duration": 191}, {"note": 57, "velocity": 112, "duration": 269}, {"note": 64, "velocity": 122, "duration": 163}, {"note": 0, "velocity": 0, "duration": 77}, {"note": 62, "velocity": 117, "duration": 613}, {"note": 0, "velocity": 0, "duration": 347}, {"note": 55, "velocity": 102, "duration": 219}, {"note": 67, "velocity": 112, "duration": 132}, {"note": 0, "velocity": 0, "duration": 108}, {"note": 67, "velocity": 122, "duration": 126}, {"note": 0, "velocity": 0, "duration": 114}, {"note": 67, "velocity": 127, "duration": 113}, {"note": 0, "velocity": 0, "duration": 127}, {"note": 67, "velocity": 127, "duration": 137}, {"note": 0, "velocity": 0, "duration": 103}, {"note": 67, "velocity": 122, "duration": 207}, {"note": 64, "velocity": 102, "duration": 150}, {"note": 0, "velocity": 0, "duration": 90}, {"note": 62, "velocity": 100, "duration": 133}, {"note": 0, "velocity": 0, "duration": 107}, {"note": 60, "velocity": 107, "duration": 179}, {"note": 0, "velocity": 0, "duration": 61}, {"note": 59, "velocity": 100, "duration": 183}, {"note": 55, "velocity": 96, "duration": 199}, {"note": 59, "velocity": 99, "duration": 115}, {"note": 0, "velocity": 0, "duration": 125}, {"note": 57, "velocity": 117, "duration": 631}, {"note": 0, "velocity": 0, "duration": 329}, {"note": 57, "velocity": 112, "duration": 199}, {"note": 64, "velocity": 127, "duration": 118}, {"note": 0, "velocity": 0, "duration": 122}, {"note": 64, "velocity": 112, "duration": 119}, {"note": 0, "velocity": 0, "duration": 121}, {"note": 64, "velocity": 112, "duration": 114}, {"note": 0, "velocity": 0, "duration": 126}, {"note": 64, "velocity": 102, "duration": 142}, {"note": 0, "velocity": 0, "duration": 98}, {"note": 64, "velocity": 122, "duration": 106}, {"note": 0, "velocity": 0, "duration": 134}, {"note": 62, "velocity": 127, "duration": 129}, {"note": 0, "velocity": 0, "duration": 111}, {"note": 60, "velocity": 95, "duration": 106}, {"note": 0, "velocity": 0, "duration": 134}, {"note": 62, "velocity": 127, "duration": 97}, {"note": 0, "velocity": 0, "duration": 143}, {"note": 62, "velocity": 127, "duration": 131}, {"note": 0, "velocity": 0, "duration": 109}, {"note": 60, "velocity": 127, "duration": 162}, {"note": 0, "velocity": 0, "duration": 78}, {"note": 59, "velocity": 95, "duration": 213}, {"note": 57, "velocity": 96, "duration": 565}, {"note": 0, "velocity": 0, "duration": 395}, {"note": 59, "velocity": 112, "duration": 123}, {"note": 0, "velocity": 0, "duration": 117}, {"note": 59, "velocity": 100, "duration": 114}, {"note": 0, "velocity": 0, "duration": 126}, {"note": 59, "velocity": 102, "duration": 114}, {"note": 0, "velocity": 0, "duration": 126}, {"note": 60, "velocity": 112, "duration": 146}, {"note": 0, "velocity": 0, "duration": 94}, {"note": 62, "velocity": 117, "duration": 145}, {"note": 0, "velocity": 0, "duration": 95}, {"note": 55, "velocity": 102, "duration": 119}, {"note": 0, "velocity": 0, "duration": 121}, {"note": 55, "velocity": 99, "duration": 115}, {"note": 0, "velocity": 0, "duration": 125}, {"note": 55, "velocity": 107, "duration": 109}, {"note": 0, "velocity": 0, "duration": 131}, {"note": 60, "velocity": 122, "duration": 112}, {"note": 0, "velocity": 0, "duration": 128}, {"note": 59, "velocity": 117, "duration": 105}, {"note": 0, "velocity": 0, "duration": 135}, {"note": 60, "velocity": 127, "duration": 118}, {"note": 0, "velocity": 0, "duration": 122}, {"note": 62, "velocity": 127, "duration": 106}, {"note": 0, "velocity": 0, "duration": 134}, {"note": 64, "velocity": 117, "duration": 397}, {"note": 0, "velocity": 0, "duration": 563}, {"note": 57, "velocity": 112, "duration": 194}, {"note": 69, "velocity": 112, "duration": 127}, {"note": 0, "velocity": 0, "duration": 113}, {"note": 69, "velocity": 122, "duration": 126}, {"note": 0, "velocity": 0, "duration": 114}, {"note": 67, "velocity": 127, "duration": 110}, {"note": 0, "velocity": 0, "duration": 130}, {"note": 69, "velocity": 127, "duration": 153}, {"note": 0, "velocity": 0, "duration": 87}, {"note": 69, "velocity": 127, "duration": 160}, {"note": 0, "velocity": 0, "duration": 80}, {"note": 67, "velocity": 127, "duration": 128}, {"note": 0, "velocity": 0, "duration": 112}, {"note": 64, "velocity": 117, "duration": 163}, {"note": 0, "velocity": 0, "duration": 77}, {"note": 62, "velocity": 112, "duration": 123}, {"note": 0, "velocity": 0, "duration": 117}, {"note": 62, "velocity": 117, "duration": 139}, {"note": 0, "velocity": 0, "duration": 101}, {"note": 57, "velocity": 107, "duration": 190}, {"note": 64, "velocity": 117, "duration": 126}, {"note": 0, "velocity": 0, "duration": 114}, {"note": 62, "velocity": 127, "duration": 514}, {"note": 0, "velocity": 0, "duration": 446}, {"note": 55, "velocity": 117, "duration": 169}, {"note": 0, "velocity": 0, "duration": 71}, {"note": 67, "velocity": 112, "duration": 114}, {"note": 0, "velocity": 0, "duration": 126}, {"note": 67, "velocity": 117, "duration": 112}, {"note": 0, "velocity": 0, "duration": 128}, {"note": 67, "velocity": 127, "duration": 100}, {"note": 0, "velocity": 0, "duration": 140}, {"note": 67, "velocity": 127, "duration": 110}, {"note": 0, "velocity": 0, "duration": 130}, {"note": 67, "velocity": 122, "duration": 56}, {"note": 0, "velocity": 0, "duration": 64}, {"note": 67, "velocity": 99, "duration": 92}, {"note": 64, "velocity": 127, "duration": 151}, {"note": 0, "velocity": 0, "duration": 89}, {"note": 62, "velocity": 117, "duration": 117}, {"note": 0, "velocity": 0, "duration": 123}, {"note": 60, "velocity": 112, "duration": 138}, {"note": 0, "velocity": 0, "duration": 102}, {"note": 59, "velocity": 112, "duration": 205}, {"note": 55, "velocity": 102, "duration": 205}, {"note": 59, "velocity": 112, "duration": 151}, {"note": 0, "velocity": 0, "duration": 89}, {"note": 57, "velocity": 100, "duration": 521}, {"note": 0, "velocity": 0, "duration": 439}, {"note": 64, "velocity": 117, "duration": 353}, {"note": 0, "velocity": 0, "duration": 127}, {"note": 69, "velocity": 127, "duration": 258}, {"note": 0, "velocity": 0, "duration": 222}, {"note": 72, "velocity": 127, "duration": 169}, {"note": 0, "velocity": 0, "duration": 71}, {"note": 71, "velocity": 127, "duration": 131}, {"note": 0, "velocity": 0, "duration": 109}, {"note": 69, "velocity": 127, "duration": 338}, {"note": 0, "velocity": 0, "duration": 142}, {"note": 69, "velocity": 127, "duration": 206}, {"note": 67, "velocity": 100, "duration": 247}, {"note": 62, "velocity": 122, "duration": 229}, {"note": 67, "velocity": 112, "duration": 215}, {"note": 64, "velocity": 127, "duration": 398}, {"note": 0, "velocity": 0, "duration": 562}, {"note": 57, "velocity": 122, "duration": 238}, {"note": 62, "velocity": 117, "duration": 105}, {"note": 0, "velocity": 0, "duration": 135}, {"note": 62, "velocity": 97, "duration": 118}, {"note": 0, "velocity": 0, "duration": 122}, {"note": 64, "velocity": 112, "duration": 129}, {"note": 0, "velocity": 0, "duration": 111}, {"note": 67, "velocity": 127, "duration": 112}, {"note": 0, "velocity": 0, "duration": 128}, {"note": 67, "velocity": 127, "duration": 97}, {"note": 0, "velocity": 0, "duration": 143}, {"note": 67, "velocity": 122, "duration": 119}, {"note": 0, "velocity": 0, "duration": 121}, {"note": 69, "velocity": 127, "duration": 105}, {"note": 0, "velocity": 0, "duration": 135}, {"note": 67, "velocity": 127, "duration": 123}, {"note": 0, "velocity": 0, "duration": 85}, {"note": 64, "velocity": 127, "duration": 108}, {"note": 0, "velocity": 0, "duration": 134}, {"note": 64, "velocity": 107, "duration": 103}, {"note": 0, "velocity": 0, "duration": 131}, {"note": 62, "velocity": 117, "duration": 103}, {"note": 0, "velocity": 0, "duration": 153}, {"note": 64, "velocity": 127, "duration": 676}, {"note": 0, "velocity": 0, "duration": 304}, {"note": 64, "velocity": 117, "duration": 287}, {"note": 0, "velocity": 0, "duration": 193}, {"note": 69, "velocity": 127, "duration": 231}, {"note": 0, "velocity": 0, "duration": 249}, {"note": 72, "velocity": 127, "duration": 196}, {"note": 71, "velocity": 127, "duration": 181}, {"note": 69, "velocity": 127, "duration": 164}, {"note": 0, "velocity": 0, "duration": 316}, {"note": 69, "velocity": 127, "duration": 210}, {"note": 67, "velocity": 112, "duration": 193}, {"note": 67, "velocity": 127, "duration": 73}, {"note": 62, "velocity": 117, "duration": 169}, {"note": 0, "velocity": 0, "duration": 71}, {"note": 67, "velocity": 102, "duration": 116}, {"note": 0, "velocity": 0, "duration": 124}, {"note": 64, "velocity": 127, "duration": 484}, {"note": 0, "velocity": 0, "duration": 476}, {"note": 62, "velocity": 112, "duration": 101}, {"note": 0, "velocity": 0, "duration": 139}, {"note": 62, "velocity": 112, "duration": 95}, {"note": 62, "velocity": 97, "duration": 83}, {"note": 62, "velocity": 107, "duration": 112}, {"note": 0, "velocity": 0, "duration": 128}, {"note": 64, "velocity": 127, "duration": 132}, {"note": 0, "velocity": 0, "duration": 108}, {"note": 67, "velocity": 127, "duration": 160}, {"note": 0, "velocity": 0, "duration": 80}, {"note": 67, "velocity": 112, "duration": 103}, {"note": 0, "velocity": 0, "duration": 137}, {"note": 67, "velocity": 117, "duration": 145}, {"note": 0, "velocity": 0, "duration": 95}, {"note": 64, "velocity": 107, "duration": 153}, {"note": 0, "velocity": 0, "duration": 87}, {"note": 72, "velocity": 127, "duration": 191}, {"note": 71, "velocity": 117, "duration": 144}, {"note": 0, "velocity": 0, "duration": 96}, {"note": 69, "velocity": 127, "duration": 92}, {"note": 0, "velocity": 0, "duration": 148}, {"note": 67, "velocity": 117, "duration": 95}, {"note": 0, "velocity": 0, "duration": 145}, {"note": 69, "velocity": 127, "duration": 640}, {"note": 0, "velocity": 0, "duration": 320}, {"note": 64, "velocity": 117, "duration": 353}, {"note": 0, "velocity": 0, "duration": 127}, {"note": 69, "velocity": 127, "duration": 258}, {"note": 0, "velocity": 0, "duration": 222}, {"note": 72, "velocity": 127, "duration": 169}, {"note": 0, "velocity": 0, "duration": 71}, {"note": 71, "velocity": 127, "duration": 131}, {"note": 0, "velocity": 0, "duration": 109}, {"note": 69, "velocity": 127, "duration": 338}, {"note": 0, "velocity": 0, "duration": 142}, {"note": 69, "velocity": 127, "duration": 206}, {"note": 67, "velocity": 100, "duration": 247}, {"note": 62, "velocity": 122, "duration": 229}, {"note": 67, "velocity": 112, "duration": 215}, {"note": 64, "velocity": 127, "duration": 398}, {"note": 0, "velocity": 0, "duration": 562}, {"note": 57, "velocity": 122, "duration": 238}, {"note": 62, "velocity": 117, "duration": 105}, {"note": 0, "velocity": 0, "duration": 135}, {"note": 62, "velocity": 97, "duration": 118}, {"note": 0, "velocity": 0, "duration": 122}, {"note": 64, "velocity": 112, "duration": 129}, {"note": 0, "velocity": 0, "duration": 111}, {"note": 67, "velocity": 127, "duration": 112}, {"note": 0, "velocity": 0, "duration": 128}, {"note": 67, "velocity": 127, "duration": 97}, {"note": 0, "velocity": 0, "duration": 143}, {"note": 67, "velocity": 122, "duration": 119}, {"note": 0, "velocity": 0, "duration": 121}, {"note": 69, "velocity": 127, "duration": 105}, {"note": 0, "velocity": 0, "duration": 135}, {"note": 67, "velocity": 127, "duration": 123}, {"note": 0, "velocity": 0, "duration": 85}, {"note": 64, "velocity": 127, "duration": 108}, {"note": 0, "velocity": 0, "duration": 134}, {"note": 64, "velocity": 107, "duration": 103}, {"note": 0, "velocity": 0, "duration": 131}, {"note": 62, "velocity": 117, "duration": 103}, {"note": 0, "velocity": 0, "duration": 153}, {"note": 64, "velocity": 127, "duration": 676}, {"note": 0, "velocity": 0, "duration": 304}, {"note": 64, "velocity": 117, "duration": 287}, {"note": 0, "velocity": 0, "duration": 193}, {"note": 69, "velocity": 127, "duration": 231}, {"note": 0, "velocity": 0, "duration": 249}, {"note": 72, "velocity": 127, "duration": 196}, {"note": 71, "velocity": 127, "duration": 181}, {"note": 69, "velocity": 127, "duration": 164}, {"note": 0, "velocity": 0, "duration": 316}, {"note": 69, "velocity": 127, "duration": 210}, {"note": 76, "velocity": 127, "duration": 129}, {"note": 0, "velocity": 0, "duration": 111}, {"note": 74, "velocity": 127, "duration": 117}, {"note": 0, "velocity": 0, "duration": 123}, {"note": 72, "velocity": 127, "duration": 85}, {"note": 0, "velocity": 0, "duration": 155}, {"note": 74, "velocity": 127, "duration": 648}, {"note": 0, "velocity": 0, "duration": 312}, {"note": 71, "velocity": 127, "duration": 75}, {"note": 0, "velocity": 0, "duration": 165}, {"note": 71, "velocity": 122, "duration": 79}, {"note": 0, "velocity": 0, "duration": 161}, {"note": 71, "velocity": 122, "duration": 87}, {"note": 0, "velocity": 0, "duration": 153}, {"note": 72, "velocity": 127, "duration": 96}, {"note": 0, "velocity": 0, "duration": 144}, {"note": 74, "velocity": 127, "duration": 110}, {"note": 0, "velocity": 0, "duration": 130}, {"note": 74, "velocity": 127, "duration": 71}, {"note": 0, "velocity": 0, "duration": 169}, {"note": 74, "velocity": 127, "duration": 103}, {"note": 0, "velocity": 0, "duration": 137}, {"note": 76, "velocity": 127, "duration": 137}, {"note": 0, "velocity": 0, "duration": 103}, {"note": 72, "velocity": 127, "duration": 147}, {"note": 0, "velocity": 0, "duration": 93}, {"note": 71, "velocity": 112, "duration": 119}, {"note": 0, "velocity": 0, "duration": 121}, {"note": 69, "velocity": 127, "duration": 97}, {"note": 0, "velocity": 0, "duration": 143}, {"note": 67, "velocity": 112, "duration": 94}, {"note": 0, "velocity": 0, "duration": 146}, {"note": 69, "velocity": 127, "duration": 969}, {"note": 0, "velocity": 0, "duration": 17271}, {"note": 57, "velocity": 112, "duration": 211}, {"note": 64, "velocity": 99, "duration": 137}, {"note": 0, "velocity": 0, "duration": 103}, {"note": 64, "velocity": 127, "duration": 169}, {"note": 0, "velocity": 0, "duration": 71}, {"note": 64, "velocity": 127, "duration": 111}, {"note": 0, "velocity": 0, "duration": 129}, {"note": 64, "velocity": 112, "duration": 146}, {"note": 0, "velocity": 0, "duration": 94}, {"note": 64, "velocity": 117, "duration": 154}, {"note": 0, "velocity": 0, "duration": 86}, {"note": 62, "velocity": 122, "duration": 108}, {"note": 0, "velocity": 0, "duration": 132}, {"note": 60, "velocity": 102, "duration": 139}, {"note": 0, "velocity": 0, "duration": 101}, {"note": 62, "velocity": 127, "duration": 107}, {"note": 0, "velocity": 0, "duration": 133}, {"note": 62, "velocity": 102, "duration": 164}, {"note": 0, "velocity": 0, "duration": 76}, {"note": 60, "velocity": 112, "duration": 207}, {"note": 59, "velocity": 89, "duration": 178}, {"note": 0, "velocity": 0, "duration": 62}, {"note": 57, "velocity": 112, "duration": 293}, {"note": 0, "velocity": 0, "duration": 667}, {"note": 59, "velocity": 107, "duration": 93}, {"note": 0, "velocity": 0, "duration": 147}, {"note": 59, "velocity": 95, "duration": 95}, {"note": 0, "velocity": 0, "duration": 145}, {"note": 59, "velocity": 102, "duration": 139}, {"note": 0, "velocity": 0, "duration": 101}, {"note": 60, "velocity": 112, "duration": 166}, {"note": 0, "velocity": 0, "duration": 74}, {"note": 62, "velocity": 127, "duration": 183}, {"note": 55, "velocity": 100, "duration": 105}, {"note": 0, "velocity": 0, "duration": 135}, {"note": 55, "velocity": 99, "duration": 101}, {"note": 0, "velocity": 0, "duration": 139}, {"note": 55, "velocity": 112, "duration": 94}, {"note": 0, "velocity": 0, "duration": 146}, {"note": 60, "velocity": 107, "duration": 195}, {"note": 59, "velocity": 90, "duration": 154}, {"note": 0, "velocity": 0, "duration": 86}, {"note": 60, "velocity": 127, "duration": 157}, {"note": 0, "velocity": 0, "duration": 83}, {"note": 62, "velocity": 107, "duration": 126}, {"note": 0, "velocity": 0, "duration": 114}, {"note": 64, "velocity": 127, "duration": 441}, {"note": 0, "velocity": 0, "duration": 519}, {"note": 57, "velocity": 112, "duration": 126}, {"note": 0, "velocity": 0, "duration": 114}, {"note": 69, "velocity": 127, "duration": 103}, {"note": 0, "velocity": 0, "duration": 137}, {"note": 69, "velocity": 117, "duration": 98}, {"note": 0, "velocity": 0, "duration": 142}, {"note": 67, "velocity": 112, "duration": 173}, {"note": 0, "velocity": 0, "duration": 67}, {"note": 69, "velocity": 102, "duration": 99}, {"note": 0, "velocity": 0, "duration": 141}, {"note": 69, "velocity": 112, "duration": 196}, {"note": 67, "velocity": 122, "duration": 141}, {"note": 0, "velocity": 0, "duration": 99}, {"note": 64, "velocity": 127, "duration": 218}, {"note": 62, "velocity": 122, "duration": 179}, {"note": 0, "velocity": 0, "duration": 61}, {"note": 62, "velocity": 100, "duration": 191}, {"note": 57, "velocity": 112, "duration": 269}, {"note": 64, "velocity": 122, "duration": 163}, {"note": 0, "velocity": 0, "duration": 77}, {"note": 62, "velocity": 117, "duration": 613}, {"note": 0, "velocity": 0, "duration": 347}, {"note": 55, "velocity": 102, "duration": 219}, {"note": 67, "velocity": 112, "duration": 132}, {"note": 0, "velocity": 0, "duration": 108}, {"note": 67, "velocity": 122, "duration": 126}, {"note": 0, "velocity": 0, "duration": 114}, {"note": 67, "velocity": 127, "duration": 113}, {"note": 0, "velocity": 0, "duration": 127}, {"note": 67, "velocity": 127, "duration": 137}, {"note": 0, "velocity": 0, "duration": 103}, {"note": 67, "velocity": 122, "duration": 207}, {"note": 64, "velocity": 102, "duration": 150}, {"note": 0, "velocity": 0, "duration": 90}, {"note": 62, "velocity": 100, "duration": 133}, {"note": 0, "velocity": 0, "duration": 107}, {"note": 60, "velocity": 107, "duration": 179}, {"note": 0, "velocity": 0, "duration": 61}, {"note": 59, "velocity": 100, "duration": 183}, {"note": 55, "velocity": 96, "duration": 199}, {"note": 59, "velocity": 99, "duration": 115}, {"note": 0, "velocity": 0, "duration": 125}, {"note": 57, "velocity": 117, "duration": 631}, {"note": 0, "velocity": 0, "duration": 329}, {"note": 57, "velocity": 112, "duration": 199}, {"note": 64, "velocity": 127, "duration": 118}, {"note": 0, "velocity": 0, "duration": 122}, {"note": 64, "velocity": 112, "duration": 119}, {"note": 0, "velocity": 0, "duration": 121}, {"note": 64, "velocity": 112, "duration": 114}, {"note": 0, "velocity": 0, "duration": 126}, {"note": 64, "velocity": 102, "duration": 142}, {"note": 0, "velocity": 0, "duration": 98}, {"note": 64, "velocity": 122, "duration": 106}, {"note": 0, "velocity": 0, "duration": 134}, {"note": 62, "velocity": 127, "duration": 129}, {"note": 0, "velocity": 0, "duration": 111}, {"note": 60, "velocity": 95, "duration": 106}, {"note": 0, "velocity": 0, "duration": 134}, {"note": 62, "velocity": 127, "duration": 97}, {"note": 0, "velocity": 0, "duration": 143}, {"note": 62, "velocity": 127, "duration": 131}, {"note": 0, "velocity": 0, "duration": 109}, {"note": 60, "velocity": 127, "duration": 162}, {"note": 0, "velocity": 0, "duration": 78}, {"note": 59, "velocity": 95, "duration": 213}, {"note": 57, "velocity": 96, "duration": 565}, {"note": 0, "velocity": 0, "duration": 395}, {"note": 59, "velocity": 112, "duration": 123}, {"note": 0, "velocity": 0, "duration": 117}, {"note": 59, "velocity": 100, "duration": 114}, {"note": 0, "velocity": 0, "duration": 126}, {"note": 59, "velocity": 102, "duration": 114}, {"note": 0, "velocity": 0, "duration": 126}, {"note": 60, "velocity": 112, "duration": 146}, {"note": 0, "velocity": 0, "duration": 94}, {"note": 62, "velocity": 117, "duration": 145}, {"note": 0, "velocity": 0, "duration": 95}, {"note": 55, "velocity": 102, "duration": 119}, {"note": 0, "velocity": 0, "duration": 121}, {"note": 55, "velocity": 99, "duration": 115}, {"note": 0, "velocity": 0, "duration": 125}, {"note": 55, "velocity": 107, "duration": 109}, {"note": 0, "velocity": 0, "duration": 131}, {"note": 60, "velocity": 122, "duration": 112}, {"note": 0, "velocity": 0, "duration": 128}, {"note": 59, "velocity": 117, "duration": 105}, {"note": 0, "velocity": 0, "duration": 135}, {"note": 60, "velocity": 127, "duration": 118}, {"note": 0, "velocity": 0, "duration": 122}, {"note": 62, "velocity": 127, "duration": 106}, {"note": 0, "velocity": 0, "duration": 134}, {"note": 64, "velocity": 117, "duration": 397}, {"note": 0, "velocity": 0, "duration": 563}, {"note": 57, "velocity": 112, "duration": 194}, {"note": 69, "velocity": 112, "duration": 127}, {"note": 0, "velocity": 0, "duration": 113}, {"note": 69, "velocity": 122, "duration": 126}, {"note": 0, "velocity": 0, "duration": 114}, {"note": 67, "velocity": 127, "duration": 110}, {"note": 0, "velocity": 0, "duration": 130}, {"note": 69, "velocity": 127, "duration": 153}, {"note": 0, "velocity": 0, "duration": 87}, {"note": 69, "velocity": 127, "duration": 160}, {"note": 0, "velocity": 0, "duration": 80}, {"note": 67, "velocity": 127, "duration": 128}, {"note": 0, "velocity": 0, "duration": 112}, {"note": 64, "velocity": 117, "duration": 163}, {"note": 0, "velocity": 0, "duration": 77}, {"note": 62, "velocity": 112, "duration": 123}, {"note": 0, "velocity": 0, "duration": 117}, {"note": 62, "velocity": 117, "duration": 139}, {"note": 0, "velocity": 0, "duration": 101}, {"note": 57, "velocity": 107, "duration": 190}, {"note": 64, "velocity": 117, "duration": 126}, {"note": 0, "velocity": 0, "duration": 114}, {"note": 62, "velocity": 127, "duration": 514}, {"note": 0, "velocity": 0, "duration": 446}, {"note": 55, "velocity": 117, "duration": 169}, {"note": 0, "velocity": 0, "duration": 71}, {"note": 67, "velocity": 112, "duration": 114}, {"note": 0, "velocity": 0, "duration": 126}, {"note": 67, "velocity": 117, "duration": 112}, {"note": 0, "velocity": 0, "duration": 128}, {"note": 67, "velocity": 127, "duration": 100}, {"note": 0, "velocity": 0, "duration": 140}, {"note": 67, "velocity": 127, "duration": 110}, {"note": 0, "velocity": 0, "duration": 130}, {"note": 67, "velocity": 122, "duration": 56}, {"note": 0, "velocity": 0, "duration": 64}, {"note": 67, "velocity": 99, "duration": 92}, {"note": 64, "velocity": 127, "duration": 151}, {"note": 0, "velocity": 0, "duration": 89}, {"note": 62, "velocity": 117, "duration": 117}, {"note": 0, "velocity": 0, "duration": 123}, {"note": 60, "velocity": 112, "duration": 138}, {"note": 0, "velocity": 0, "duration": 102}, {"note": 59, "velocity": 112, "duration": 205}, {"note": 55, "velocity": 102, "duration": 205}, {"note": 59, "velocity": 112, "duration": 151}, {"note": 0, "velocity": 0, "duration": 89}, {"note": 57, "velocity": 100, "duration": 521}, {"note": 0, "velocity": 0, "duration": 439}, {"note": 64, "velocity": 117, "duration": 353}, {"note": 0, "velocity": 0, "duration": 127}, {"note": 69, "velocity": 127, "duration": 258}, {"note": 0, "velocity": 0, "duration": 222}, {"note": 72, "velocity": 127, "duration": 169}, {"note": 0, "velocity": 0, "duration": 71}, {"note": 71, "velocity": 127, "duration": 131}, {"note": 0, "velocity": 0, "duration": 109}, {"note": 69, "velocity": 127, "duration": 338}, {"note": 0, "velocity": 0, "duration": 142}, {"note": 69, "velocity": 127, "duration": 206}, {"note": 67, "velocity": 100, "duration": 247}, {"note": 62, "velocity": 122, "duration": 229}, {"note": 67, "velocity": 112, "duration": 215}, {"note": 64, "velocity": 127, "duration": 398}, {"note": 0, "velocity": 0, "duration": 562}, {"note": 57, "velocity": 122, "duration": 238}, {"note": 62, "velocity": 117, "duration": 105}, {"note": 0, "velocity": 0, "duration": 135}, {"note": 62, "velocity": 97, "duration": 118}, {"note": 0, "velocity": 0, "duration": 122}, {"note": 64, "velocity": 112, "duration": 129}, {"note": 0, "velocity": 0, "duration": 111}, {"note": 67, "velocity": 127, "duration": 112}, {"note": 0, "velocity": 0, "duration": 128}, {"note": 67, "velocity": 127, "duration": 97}, {"note": 0, "velocity": 0, "duration": 143}, {"note": 67, "velocity": 122, "duration": 119}, {"note": 0, "velocity": 0, "duration": 121}, {"note": 69, "velocity": 127, "duration": 105}, {"note": 0, "velocity": 0, "duration": 135}, {"note": 67, "velocity": 127, "duration": 123}, {"note": 0, "velocity": 0, "duration": 85}, {"note": 64, "velocity": 127, "duration": 108}, {"note": 0, "velocity": 0, "duration": 134}, {"note": 64, "velocity": 107, "duration": 103}, {"note": 0, "velocity": 0, "duration": 131}, {"note": 62, "velocity": 117, "duration": 103}, {"note": 0, "velocity": 0, "duration": 153}, {"note": 64, "velocity": 127, "duration": 676}, {"note": 0, "velocity": 0, "duration": 304}, {"note": 64, "velocity": 117, "duration": 287}, {"note": 0, "velocity": 0, "duration": 193}, {"note": 69, "velocity": 127, "duration": 231}, {"note": 0, "velocity": 0, "duration": 249}, {"note": 72, "velocity": 127, "duration": 196}, {"note": 71, "velocity": 127, "duration": 181}, {"note": 69, "velocity": 127, "duration": 164}, {"note": 0, "velocity": 0, "duration": 316}, {"note": 69, "velocity": 127, "duration": 210}, {"note": 67, "velocity": 112, "duration": 193}, {"note": 67, "velocity": 127, "duration": 73}, {"note": 62, "velocity": 117, "duration": 169}, {"note": 0, "velocity": 0, "duration": 71}, {"note": 67, "velocity": 102, "duration": 116}, {"note": 0, "velocity": 0, "duration": 124}, {"note": 64, "velocity": 127, "duration": 484}, {"note": 0, "velocity": 0, "duration": 476}, {"note": 62, "velocity": 112, "duration": 101}, {"note": 0, "velocity": 0, "duration": 139}, {"note": 62, "velocity": 112, "duration": 95}, {"note": 62, "velocity": 97, "duration": 83}, {"note": 62, "velocity": 107, "duration": 112}, {"note": 0, "velocity": 0, "duration": 128}, {"note": 64, "velocity": 127, "duration": 132}, {"note": 0, "velocity": 0, "duration": 108}, {"note": 67, "velocity": 127, "duration": 160}, {"note": 0, "velocity": 0, "duration": 80}, {"note": 67, "velocity": 112, "duration": 103}, {"note": 0, "velocity": 0, "duration": 137}, {"note": 67, "velocity": 117, "duration": 145}, {"note": 0, "velocity": 0, "duration": 95}, {"note": 64, "velocity": 107, "duration": 153}, {"note": 0, "velocity": 0, "duration": 87}, {"note": 72, "velocity": 127, "duration": 191}, {"note": 71, "velocity": 117, "duration": 144}, {"note": 0, "velocity": 0, "duration": 96}, {"note": 69, "velocity": 127, "duration": 92}, {"note": 0, "velocity": 0, "duration": 148}, {"note": 67, "velocity": 117, "duration": 95}, {"note": 0, "velocity": 0, "duration": 145}, {"note": 69, "velocity": 127, "duration": 640}, {"note": 0, "velocity": 0, "duration": 320}, {"note": 64, "velocity": 117, "duration": 353}, {"note": 0, "velocity": 0, "duration": 127}, {"note": 69, "velocity": 127, "duration": 258}, {"note": 0, "velocity": 0, "duration": 222}, {"note": 72, "velocity": 127, "duration": 169}, {"note": 0, "velocity": 0, "duration": 71}, {"note": 71, "velocity": 127, "duration": 131}, {"note": 0, "velocity": 0, "duration": 109}, {"note": 69, "velocity": 127, "duration": 338}, {"note": 0, "velocity": 0, "duration": 142}, {"note": 69, "velocity": 127, "duration": 206}, {"note": 67, "velocity": 100, "duration": 247}, {"note": 62, "velocity": 122, "duration": 229}, {"note": 67, "velocity": 112, "duration": 215}, {"note": 64, "velocity": 127, "duration": 398}, {"note": 0, "velocity": 0, "duration": 562}, {"note": 57, "velocity": 122, "duration": 238}, {"note": 62, "velocity": 117, "duration": 105}, {"note": 0, "velocity": 0, "duration": 135}, {"note": 62, "velocity": 97, "duration": 118}, {"note": 0, "velocity": 0, "duration": 122}, {"note": 64, "velocity": 112, "duration": 129}, {"note": 0, "velocity": 0, "duration": 111}, {"note": 67, "velocity": 127, "duration": 112}, {"note": 0, "velocity": 0, "duration": 128}, {"note": 67, "velocity": 127, "duration": 97}, {"note": 0, "velocity": 0, "duration": 143}, {"note": 67, "velocity": 122, "duration": 119}, {"note": 0, "velocity": 0, "duration": 121}, {"note": 69, "velocity": 127, "duration": 105}, {"note": 0, "velocity": 0, "duration": 135}, {"note": 67, "velocity": 127, "duration": 123}, {"note": 0, "velocity": 0, "duration": 85}, {"note": 64, "velocity": 127, "duration": 108}, {"note": 0, "velocity": 0, "duration": 134}, {"note": 64, "velocity": 107, "duration": 103}, {"note": 0, "velocity": 0, "duration": 131}, {"note": 62, "velocity": 117, "duration": 103}, {"note": 0, "velocity": 0, "duration": 153}, {"note": 64, "velocity": 127, "duration": 676}, {"note": 0, "velocity": 0, "duration": 304}, {"note": 64, "velocity": 117, "duration": 287}, {"note": 0, "velocity": 0, "duration": 193}, {"note": 69, "velocity": 127, "duration": 231}, {"note": 0, "velocity": 0, "duration": 249}, {"note": 72, "velocity": 127, "duration": 196}, {"note": 71, "velocity": 127, "duration": 181}, {"note": 69, "velocity": 127, "duration": 164}, {"note": 0, "velocity": 0, "duration": 316}, {"note": 69, "velocity": 127, "duration": 210}, {"note": 76, "velocity": 127, "duration": 129}, {"note": 0, "velocity": 0, "duration": 111}, {"note": 74, "velocity": 127, "duration": 117}, {"note": 0, "velocity": 0, "duration": 123}, {"note": 72, "velocity": 127, "duration": 85}, {"note": 0, "velocity": 0, "duration": 155}, {"note": 74, "velocity": 127, "duration": 648}, {"note": 0, "velocity": 0, "duration": 312}, {"note": 71, "velocity": 127, "duration": 75}, {"note": 0, "velocity": 0, "duration": 165}, {"note": 71, "velocity": 122, "duration": 79}, {"note": 0, "velocity": 0, "duration": 161}, {"note": 71, "velocity": 122, "duration": 87}, {"note": 0, "velocity": 0, "duration": 153}, {"note": 72, "velocity": 127, "duration": 96}, {"note": 0, "velocity": 0, "duration": 144}, {"note": 74, "velocity": 127, "duration": 110}, {"note": 0, "velocity": 0, "duration": 130}, {"note": 74, "velocity": 127, "duration": 71}, {"note": 0, "velocity": 0, "duration": 169}, {"note": 74, "velocity": 127, "duration": 103}, {"note": 0, "velocity": 0, "duration": 137}, {"note": 76, "velocity": 127, "duration": 137}, {"note": 0, "velocity": 0, "duration": 103}, {"note": 72, "velocity": 127, "duration": 147}, {"note": 0, "velocity": 0, "duration": 93}, {"note": 71, "velocity": 112, "duration": 119}, {"note": 0, "velocity": 0, "duration": 121}, {"note": 69, "velocity": 127, "duration": 97}, {"note": 0, "velocity": 0, "duration": 143}, {"note": 67, "velocity": 112, "duration": 94}, {"note": 0, "velocity": 0, "duration": 146}, {"note": 69, "velocity": 127, "duration": 969}]]