[[{"note": 61, "velocity": 99, "duration": 215}, {"note": 66, "velocity": 96, "duration": 236}, {"note": 68, "velocity": 92, "duration": 266}, {"note": 70, "velocity": 112, "duration": 406}, {"note": 0, "velocity": 0, "duration": 74}, {"note": 73, "velocity": 102, "duration": 199}, {"note": 0, "velocity": 0, "duration": 281}, {"note": 71, "velocity": 95, "duration": 253}, {"note": 70, "velocity": 90, "duration": 151}, {"note": 68, "velocity": 92, "duration": 433}, {"note": 70, "velocity": 96, "duration": 441}, {"note": 70, "velocity": 92, "duration": 136}, {"note": 71, "velocity": 69, "duration": 152}, {"note": 70, "velocity": 92, "duration": 213}, {"note": 66, "velocity": 66, "duration": 340}, {"note": 0, "velocity": 0, "duration": 140}, {"note": 66, "velocity": 107, "duration": 197}, {"note": 70, "velocity": 99, "duration": 199}, {"note": 73, "velocity": 99, "duration": 245}, {"note": 78, "velocity": 99, "duration": 483}, {"note": 80, "velocity": 99, "duration": 178}, {"note": 0, "velocity": 0, "duration": 302}, {"note": 77, "velocity": 107, "duration": 262}, {"note": 75, "velocity": 93, "duration": 146}, {"note": 73, "velocity": 90, "duration": 298}, {"note": 0, "velocity": 0, "duration": 62}, {"note": 68, "velocity": 93, "duration": 270}, {"note": 70, "velocity": 96, "duration": 952}, {"note": 0, "velocity": 0, "duration": 248}, {"note": 66, "velocity": 92, "duration": 208}, {"note": 70, "velocity": 102, "duration": 186}, {"note": 73, "velocity": 96, "duration": 175}, {"note": 0, "velocity": 0, "duration": 65}, {"note": 78, "velocity": 102, "duration": 388}, {"note": 0, "velocity": 0, "duration": 92}, {"note": 80, "velocity": 122, "duration": 224}, {"note": 0, "velocity": 0, "duration": 256}, {"note": 77, "velocity": 112, "duration": 220}, {"note": 75, "velocity": 93, "duration": 120}, {"note": 73, "velocity": 82, "duration": 316}, {"note": 75, "velocity": 88, "duration": 329}, {"note": 78, "velocity": 117, "duration": 133}, {"note": 0, "velocity": 0, "duration": 107}, {"note": 78, "velocity": 95, "duration": 53}, {"note": 0, "velocity": 0, "duration": 67}, {"note": 78, "velocity": 112, "duration": 203}, {"note": 73, "velocity": 96, "duration": 343}, {"note": 70, "velocity": 78, "duration": 438}, {"note": 0, "velocity": 0, "duration": 162}, {"note": 70, "velocity": 117, "duration": 135}, {"note": 71, "velocity": 90, "duration": 177}, {"note": 0, "velocity": 0, "duration": 63}, {"note": 73, "velocity": 97, "duration": 72}, {"note": 70, "velocity": 93, "duration": 237}, {"note": 68, "velocity": 89, "duration": 864}, {"note": 0, "velocity": 0, "duration": 336}, {"note": 70, "velocity": 100, "duration": 166}, {"note": 71, "velocity": 85, "duration": 192}, {"note": 73, "velocity": 96, "duration": 89}, {"note": 70, "velocity": 83, "duration": 256}, {"note": 68, "velocity": 86, "duration": 955}, {"note": 61, "velocity": 99, "duration": 215}, {"note": 66, "velocity": 96, "duration": 236}, {"note": 68, "velocity": 92, "duration": 266}, {"note": 70, "velocity": 112, "duration": 406}, {"note": 0, "velocity": 0, "duration": 74}, {"note": 73, "velocity": 102, "duration": 199}, {"note": 0, "velocity": 0, "duration": 281}, {"note": 71, "velocity": 95, "duration": 253}, {"note": 70, "velocity": 90, "duration": 151}, {"note": 68, "velocity": 92, "duration": 433}, {"note": 70, "velocity": 96, "duration": 441}, {"note": 70, "velocity": 92, "duration": 136}, {"note": 71, "velocity": 69, "duration": 152}, {"note": 70, "velocity": 92, "duration": 213}, {"note": 66, "velocity": 66, "duration": 340}, {"note": 0, "velocity": 0, "duration": 140}, {"note": 66, "velocity": 107, "duration": 197}, {"note": 70, "velocity": 99, "duration": 199}, {"note": 73, "velocity": 99, "duration": 245}, {"note": 78, "velocity": 99, "duration": 483}, {"note": 80, "velocity": 99, "duration": 178}, {"note": 0, "velocity": 0, "duration": 302}, {"note": 77, "velocity": 107, "duration": 262}, {"note": 75, "velocity": 93, "duration": 146}, {"note": 73, "velocity": 90, "duration": 298}, {"note": 0, "velocity": 0, "duration": 62}, {"note": 68, "velocity": 93, "duration": 270}, {"note": 70, "velocity": 96, "duration": 952}, {"note": 0, "velocity": 0, "duration": 248}, {"note": 66, "velocity": 92, "duration": 208}, {"note": 70, "velocity": 102, "duration": 186}, {"note": 73, "velocity": 96, "duration": 175}, {"note": 0, "velocity": 0, "duration": 65}, {"note": 78, "velocity": 102, "duration": 388}, {"note": 0, "velocity": 0, "duration": 92}, {"note": 80, "velocity": 122, "duration": 224}, {"note": 0, "velocity": 0, "duration": 256}, {"note": 77, "velocity": 112, "duration": 220}, {"note": 75, "velocity": 93, "duration": 120}, {"note": 73, "velocity": 82, "duration": 316}, {"note": 75, "velocity": 88, "duration": 329}, {"note": 78, "velocity": 117, "duration": 133}, {"note": 0, "velocity": 0, "duration": 107}, {"note": 78, "velocity": 95, "duration": 53}, {"note": 0, "velocity": 0, "duration": 67}, {"note": 78, "velocity": 112, "duration": 203}, {"note": 73, "velocity": 96, "duration": 343}, {"note": 70, "velocity": 78, "duration": 438}, {"note": 0, "velocity": 0, "duration": 162}, {"note": 70, "velocity": 117, "duration": 135}, {"note": 71, "velocity": 90, "duration": 177}, {"note": 0, "velocity": 0, "duration": 63}, {"note": 73, "velocity": 97, "duration": 72}, {"note": 70, "velocity": 93, "duration": 237}, {"note": 68, "velocity": 89, "duration": 864}, {"note": 0, "velocity": 0, "duration": 336}, {"note": 70, "velocity": 100, "duration": 166}, {"note": 71, "velocity": 85, "duration": 192}, {"note": 73, "velocity": 96, "duration": 89}, {"note": 70, "velocity": 83, "duration": 256}, {"note": 68, "velocity": 86, "duration": 720}, {"note": 0, "velocity": 0, "duration": 240}, {"note": 73, "velocity": 112, "duration": 194}, {"note": 75, "velocity": 99, "duration": 143}, {"note": 0, "velocity": 0, "duration": 97}, {"note": 77, "velocity": 96, "duration": 186}, {"note": 78, "velocity": 127, "duration": 219}, {"note": 80, "velocity": 122, "duration": 129}, {"note": 82, "velocity": 127, "duration": 323}, {"note": 78, "velocity": 127, "duration": 286}, {"note": 0, "velocity": 0, "duration": 74}, {"note": 77, "velocity": 127, "duration": 160}, {"note": 0, "velocity": 0, "duration": 80}, {"note": 75, "velocity": 112, "duration": 94}, {"note": 77, "velocity": 107, "duration": 165}, {"note": 0, "velocity": 0, "duration": 75}, {"note": 73, "velocity": 127, "duration": 308}, {"note": 75, "velocity": 117, "duration": 214}, {"note": 73, "velocity": 100, "duration": 121}, {"note": 75, "velocity": 107, "duration": 171}, {"note": 0, "velocity": 0, "duration": 69}, {"note": 66, "velocity": 99, "duration": 159}, {"note": 0, "velocity": 0, "duration": 81}, {"note": 73, "velocity": 96, "duration": 339}, {"note": 0, "velocity": 0, "duration": 261}, {"note": 73, "velocity": 127, "duration": 159}, {"note": 75, "velocity": 112, "duration": 113}, {"note": 77, "velocity": 92, "duration": 93}, {"note": 0, "velocity": 0, "duration": 67}, {"note": 78, "velocity": 122, "duration": 142}, {"note": 0, "velocity": 0, "duration": 98}, {"note": 80, "velocity": 122, "duration": 69}, {"note": 82, "velocity": 112, "duration": 365}, {"note": 85, "velocity": 127, "duration": 78}, {"note": 0, "velocity": 0, "duration": 162}, {"note": 85, "velocity": 122, "duration": 557}, {"note": 80, "velocity": 127, "duration": 351}, {"note": 0, "velocity": 0, "duration": 129}, {"note": 75, "velocity": 122, "duration": 157}, {"note": 0, "velocity": 0, "duration": 83}, {"note": 77, "velocity": 86, "duration": 107}, {"note": 78, "velocity": 122, "duration": 248}, {"note": 80, "velocity": 122, "duration": 203}, {"note": 0, "velocity": 0, "duration": 157}, {"note": 80, "velocity": 127, "duration": 409}, {"note": 0, "velocity": 0, "duration": 71}, {"note": 82, "velocity": 127, "duration": 197}, {"note": 80, "velocity": 122, "duration": 190}, {"note": 78, "velocity": 127, "duration": 333}, {"note": 0, "velocity": 0, "duration": 147}, {"note": 85, "velocity": 117, "duration": 268}, {"note": 0, "velocity": 0, "duration": 212}, {"note": 83, "velocity": 127, "duration": 105}, {"note": 0, "velocity": 0, "duration": 135}, {"note": 82, "velocity": 127, "duration": 100}, {"note": 80, "velocity": 122, "duration": 143}, {"note": 0, "velocity": 0, "duration": 97}, {"note": 78, "velocity": 127, "duration": 255}, {"note": 0, "velocity": 0, "duration": 105}, {"note": 78, "velocity": 127, "duration": 366}, {"note": 0, "velocity": 0, "duration": 114}, {"note": 85, "velocity": 122, "duration": 191}, {"note": 0, "velocity": 0, "duration": 289}, {"note": 83, "velocity": 122, "duration": 238}, {"note": 82, "velocity": 122, "duration": 139}, {"note": 80, "velocity": 127, "duration": 211}, {"note": 0, "velocity": 0, "duration": 149}, {"note": 82, "velocity": 127, "duration": 185}, {"note": 80, "velocity": 127, "duration": 138}, {"note": 0, "velocity": 0, "duration": 102}, {"note": 78, "velocity": 112, "duration": 57}, {"note": 0, "velocity": 0, "duration": 63}, {"note": 78, "velocity": 127, "duration": 203}, {"note": 0, "velocity": 0, "duration": 157}, {"note": 80, "velocity": 127, "duration": 120}, {"note": 82, "velocity": 102, "duration": 101}, {"note": 80, "velocity": 122, "duration": 151}, {"note": 0, "velocity": 0, "duration": 89}, {"note": 78, "velocity": 122, "duration": 52}, {"note": 0, "velocity": 0, "duration": 68}, {"note": 78, "velocity": 117, "duration": 199}, {"note": 0, "velocity": 0, "duration": 281}, {"note": 73, "velocity": 112, "duration": 74}, {"note": 75, "velocity": 117, "duration": 210}, {"note": 78, "velocity": 67, "duration": 70}, {"note": 78, "velocity": 127, "duration": 172}, {"note": 0, "velocity": 0, "duration": 68}, {"note": 82, "velocity": 117, "duration": 347}, {"note": 80, "velocity": 127, "duration": 250}, {"note": 0, "velocity": 0, "duration": 230}, {"note": 82, "velocity": 127, "duration": 184}, {"note": 80, "velocity": 122, "duration": 140}, {"note": 0, "velocity": 0, "duration": 100}, {"note": 78, "velocity": 127, "duration": 335}, {"note": 0, "velocity": 0, "duration": 145}, {"note": 85, "velocity": 127, "duration": 219}, {"note": 0, "velocity": 0, "duration": 261}, {"note": 83, "velocity": 127, "duration": 156}, {"note": 0, "velocity": 0, "duration": 84}, {"note": 82, "velocity": 112, "duration": 76}, {"note": 80, "velocity": 127, "duration": 136}, {"note": 0, "velocity": 0, "duration": 104}, {"note": 78, "velocity": 127, "duration": 255}, {"note": 0, "velocity": 0, "duration": 105}, {"note": 78, "velocity": 127, "duration": 326}, {"note": 0, "velocity": 0, "duration": 154}, {"note": 85, "velocity": 127, "duration": 241}, {"note": 0, "velocity": 0, "duration": 239}, {"note": 83, "velocity": 127, "duration": 167}, {"note": 0, "velocity": 0, "duration": 73}, {"note": 82, "velocity": 122, "duration": 109}, {"note": 80, "velocity": 122, "duration": 244}, {"note": 0, "velocity": 0, "duration": 116}, {"note": 82, "velocity": 127, "duration": 124}, {"note": 0, "velocity": 0, "duration": 116}, {"note": 80, "velocity": 127, "duration": 152}, {"note": 0, "velocity": 0, "duration": 88}, {"note": 78, "velocity": 102, "duration": 52}, {"note": 0, "velocity": 0, "duration": 68}, {"note": 78, "velocity": 122, "duration": 229}, {"note": 0, "velocity": 0, "duration": 131}, {"note": 80, "velocity": 127, "duration": 111}, {"note": 82, "velocity": 99, "duration": 110}, {"note": 80, "velocity": 122, "duration": 133}, {"note": 0, "velocity": 0, "duration": 107}, {"note": 78, "velocity": 117, "duration": 55}, {"note": 0, "velocity": 0, "duration": 65}, {"note": 78, "velocity": 127, "duration": 207}, {"note": 0, "velocity": 0, "duration": 153}, {"note": 80, "velocity": 127, "duration": 115}, {"note": 82, "velocity": 97, "duration": 112}, {"note": 80, "velocity": 122, "duration": 90}, {"note": 0, "velocity": 0, "duration": 150}, {"note": 80, "velocity": 127, "duration": 646}, {"note": 0, "velocity": 0, "duration": 314}, {"note": 82, "velocity": 117, "duration": 121}, {"note": 0, "velocity": 0, "duration": 119}, {"note": 80, "velocity": 127, "duration": 206}, {"note": 0, "velocity": 0, "duration": 154}, {"note": 78, "velocity": 100, "duration": 60}, {"note": 78, "velocity": 127, "duration": 1323}, {"note": 0, "velocity": 0, "duration": 8517}, {"note": 61, "velocity": 99, "duration": 215}, {"note": 66, "velocity": 96, "duration": 236}, {"note": 68, "velocity": 92, "duration": 266}, {"note": 70, "velocity": 112, "duration": 406}, {"note": 0, "velocity": 0, "duration": 74}, {"note": 73, "velocity": 102, "duration": 199}, {"note": 0, "velocity": 0, "duration": 281}, {"note": 71, "velocity": 95, "duration": 253}, {"note": 70, "velocity": 90, "duration": 151}, {"note": 68, "velocity": 92, "duration": 433}, {"note": 70, "velocity": 96, "duration": 441}, {"note": 70, "velocity": 92, "duration": 136}, {"note": 71, "velocity": 69, "duration": 152}, {"note": 70, "velocity": 92, "duration": 213}, {"note": 66, "velocity": 66, "duration": 340}, {"note": 0, "velocity": 0, "duration": 140}, {"note": 66, "velocity": 107, "duration": 197}, {"note": 70, "velocity": 99, "duration": 199}, {"note": 73, "velocity": 99, "duration": 245}, {"note": 78, "velocity": 99, "duration": 483}, {"note": 80, "velocity": 99, "duration": 178}, {"note": 0, "velocity": 0, "duration": 302}, {"note": 77, "velocity": 107, "duration": 262}, {"note": 75, "velocity": 93, "duration": 146}, {"note": 73, "velocity": 90, "duration": 298}, {"note": 0, "velocity": 0, "duration": 62}, {"note": 68, "velocity": 93, "duration": 270}, {"note": 70, "velocity": 96, "duration": 952}, {"note": 0, "velocity": 0, "duration": 248}, {"note": 66, "velocity": 92, "duration": 208}, {"note": 70, "velocity": 102, "duration": 186}, {"note": 73, "velocity": 96, "duration": 175}, {"note": 0, "velocity": 0, "duration": 65}, {"note": 78, "velocity": 102, "duration": 388}, {"note": 0, "velocity": 0, "duration": 92}, {"note": 80, "velocity": 122, "duration": 224}, {"note": 0, "velocity": 0, "duration": 256}, {"note": 77, "velocity": 112, "duration": 220}, {"note": 75, "velocity": 93, "duration": 120}, {"note": 73, "velocity": 82, "duration": 316}, {"note": 75, "velocity": 88, "duration": 329}, {"note": 78, "velocity": 117, "duration": 133}, {"note": 0, "velocity": 0, "duration": 107}, {"note": 78, "velocity": 95, "duration": 53}, {"note": 0, "velocity": 0, "duration": 67}, {"note": 78, "velocity": 112, "duration": 203}, {"note": 73, "velocity": 96, "duration": 343}, {"note": 70, "velocity": 78, "duration": 438}, {"note": 0, "velocity": 0, "duration": 162}, {"note": 70, "velocity": 117, "duration": 135}, {"note": 71, "velocity": 90, "duration": 177}, {"note": 0, "velocity": 0, "duration": 63}, {"note": 73, "velocity": 97, "duration": 72}, {"note": 70, "velocity": 93, "duration": 237}, {"note": 68, "velocity": 89, "duration": 864}, {"note": 0, "velocity": 0, "duration": 336}, {"note": 70, "velocity": 100, "duration": 166}, {"note": 71, "velocity": 85, "duration": 192}, {"note": 73, "velocity": 96, "duration": 89}, {"note": 70, "velocity": 83, "duration": 256}, {"note": 68, "velocity": 86, "duration": 720}, {"note": 0, "velocity": 0, "duration": 240}, {"note": 73, "velocity": 112, "duration": 194}, {"note": 75, "velocity": 99, "duration": 143}, {"note": 0, "velocity": 0, "duration": 97}, {"note": 77, "velocity": 96, "duration": 186}, {"note": 78, "velocity": 127, "duration": 219}, {"note": 80, "velocity": 122, "duration": 129}, {"note": 82, "velocity": 127, "duration": 323}, {"note": 78, "velocity": 127, "duration": 286}, {"note": 0, "velocity": 0, "duration": 74}, {"note": 77, "velocity": 127, "duration": 160}, {"note": 0, "velocity": 0, "duration": 80}, {"note": 75, "velocity": 112, "duration": 94}, {"note": 77, "velocity": 107, "duration": 165}, {"note": 0, "velocity": 0, "duration": 75}, {"note": 73, "velocity": 127, "duration": 308}, {"note": 75, "velocity": 117, "duration": 214}, {"note": 73, "velocity": 100, "duration": 121}, {"note": 75, "velocity": 107, "duration": 171}, {"note": 0, "velocity": 0, "duration": 69}, {"note": 66, "velocity": 99, "duration": 159}, {"note": 0, "velocity": 0, "duration": 81}, {"note": 73, "velocity": 96, "duration": 339}, {"note": 0, "velocity": 0, "duration": 261}, {"note": 73, "velocity": 127, "duration": 159}, {"note": 75, "velocity": 112, "duration": 113}, {"note": 77, "velocity": 92, "duration": 93}, {"note": 0, "velocity": 0, "duration": 67}, {"note": 78, "velocity": 122, "duration": 142}, {"note": 0, "velocity": 0, "duration": 98}, {"note": 80, "velocity": 122, "duration": 69}, {"note": 82, "velocity": 112, "duration": 365}, {"note": 85, "velocity": 127, "duration": 78}, {"note": 0, "velocity": 0, "duration": 162}, {"note": 85, "velocity": 122, "duration": 557}, {"note": 80, "velocity": 127, "duration": 351}, {"note": 0, "velocity": 0, "duration": 129}, {"note": 75, "velocity": 122, "duration": 157}, {"note": 0, "velocity": 0, "duration": 83}, {"note": 77, "velocity": 86, "duration": 107}, {"note": 78, "velocity": 122, "duration": 248}, {"note": 82, "velocity": 127, "duration": 276}, {"note": 0, "velocity": 0, "duration": 84}, {"note": 80, "velocity": 117, "duration": 873}, {"note": 0, "velocity": 0, "duration": 567}, {"note": 82, "velocity": 127, "duration": 197}, {"note": 80, "velocity": 122, "duration": 190}, {"note": 78, "velocity": 127, "duration": 333}, {"note": 0, "velocity": 0, "duration": 147}, {"note": 85, "velocity": 117, "duration": 268}, {"note": 0, "velocity": 0, "duration": 212}, {"note": 83, "velocity": 127, "duration": 105}, {"note": 0, "velocity": 0, "duration": 135}, {"note": 82, "velocity": 127, "duration": 100}, {"note": 80, "velocity": 122, "duration": 143}, {"note": 0, "velocity": 0, "duration": 97}, {"note": 78, "velocity": 127, "duration": 255}, {"note": 0, "velocity": 0, "duration": 105}, {"note": 78, "velocity": 127, "duration": 366}, {"note": 0, "velocity": 0, "duration": 114}, {"note": 85, "velocity": 122, "duration": 191}, {"note": 0, "velocity": 0, "duration": 289}, {"note": 83, "velocity": 122, "duration": 238}, {"note": 82, "velocity": 122, "duration": 139}, {"note": 80, "velocity": 127, "duration": 211}, {"note": 0, "velocity": 0, "duration": 149}, {"note": 82, "velocity": 127, "duration": 185}, {"note": 80, "velocity": 127, "duration": 138}, {"note": 0, "velocity": 0, "duration": 102}, {"note": 78, "velocity": 112, "duration": 57}, {"note": 0, "velocity": 0, "duration": 63}, {"note": 78, "velocity": 127, "duration": 203}, {"note": 0, "velocity": 0, "duration": 157}, {"note": 80, "velocity": 127, "duration": 120}, {"note": 82, "velocity": 102, "duration": 101}, {"note": 80, "velocity": 122, "duration": 151}, {"note": 0, "velocity": 0, "duration": 89}, {"note": 78, "velocity": 122, "duration": 52}, {"note": 0, "velocity": 0, "duration": 68}, {"note": 78, "velocity": 117, "duration": 199}, {"note": 0, "velocity": 0, "duration": 281}, {"note": 73, "velocity": 112, "duration": 74}, {"note": 75, "velocity": 117, "duration": 210}, {"note": 78, "velocity": 67, "duration": 70}, {"note": 78, "velocity": 127, "duration": 172}, {"note": 0, "velocity": 0, "duration": 68}, {"note": 82, "velocity": 117, "duration": 347}, {"note": 80, "velocity": 127, "duration": 250}, {"note": 0, "velocity": 0, "duration": 230}, {"note": 82, "velocity": 127, "duration": 184}, {"note": 80, "velocity": 122, "duration": 140}, {"note": 0, "velocity": 0, "duration": 100}, {"note": 78, "velocity": 127, "duration": 335}, {"note": 0, "velocity": 0, "duration": 145}, {"note": 85, "velocity": 127, "duration": 219}, {"note": 0, "velocity": 0, "duration": 261}, {"note": 83, "velocity": 127, "duration": 156}, {"note": 0, "velocity": 0, "duration": 84}, {"note": 82, "velocity": 112, "duration": 76}, {"note": 80, "velocity": 127, "duration": 136}, {"note": 0, "velocity": 0, "duration": 104}, {"note": 78, "velocity": 127, "duration": 255}, {"note": 0, "velocity": 0, "duration": 105}, {"note": 78, "velocity": 127, "duration": 326}, {"note": 0, "velocity": 0, "duration": 154}, {"note": 85, "velocity": 127, "duration": 241}, {"note": 0, "velocity": 0, "duration": 239}, {"note": 83, "velocity": 127, "duration": 167}, {"note": 0, "velocity": 0, "duration": 73}, {"note": 82, "velocity": 122, "duration": 109}, {"note": 80, "velocity": 122, "duration": 244}, {"note": 0, "velocity": 0, "duration": 116}, {"note": 82, "velocity": 127, "duration": 124}, {"note": 0, "velocity": 0, "duration": 116}, {"note": 80, "velocity": 127, "duration": 152}, {"note": 0, "velocity": 0, "duration": 88}, {"note": 78, "velocity": 102, "duration": 52}, {"note": 0, "velocity": 0, "duration": 68}, {"note": 78, "velocity": 122, "duration": 229}, {"note": 0, "velocity": 0, "duration": 131}, {"note": 80, "velocity": 127, "duration": 111}, {"note": 82, "velocity": 99, "duration": 110}, {"note": 80, "velocity": 122, "duration": 133}, {"note": 0, "velocity": 0, "duration": 107}, {"note": 78, "velocity": 117, "duration": 55}, {"note": 0, "velocity": 0, "duration": 65}, {"note": 78, "velocity": 127, "duration": 207}, {"note": 0, "velocity": 0, "duration": 153}, {"note": 80, "velocity": 127, "duration": 115}, {"note": 82, "velocity": 97, "duration": 112}, {"note": 80, "velocity": 122, "duration": 90}, {"note": 0, "velocity": 0, "duration": 150}, {"note": 80, "velocity": 127, "duration": 646}, {"note": 0, "velocity": 0, "duration": 314}, {"note": 82, "velocity": 117, "duration": 121}, {"note": 0, "velocity": 0, "duration": 119}, {"note": 80, "velocity": 127, "duration": 206}, {"note": 0, "velocity": 0, "duration": 154}, {"note": 78, "velocity": 100, "duration": 60}, {"note": 78, "velocity": 127, "duration": 1323}, {"note": 0, "velocity": 0, "duration": 117}, {"note": 82, "velocity": 127, "duration": 197}, {"note": 80, "velocity": 122, "duration": 190}, {"note": 78, "velocity": 127, "duration": 333}, {"note": 0, "velocity": 0, "duration": 147}, {"note": 85, "velocity": 117, "duration": 268}, {"note": 0, "velocity": 0, "duration": 212}, {"note": 83, "velocity": 127, "duration": 105}, {"note": 0, "velocity": 0, "duration": 135}, {"note": 82, "velocity": 127, "duration": 100}, {"note": 80, "velocity": 122, "duration": 143}, {"note": 0, "velocity": 0, "duration": 97}, {"note": 78, "velocity": 127, "duration": 255}, {"note": 0, "velocity": 0, "duration": 105}, {"note": 78, "velocity": 127, "duration": 366}, {"note": 0, "velocity": 0, "duration": 114}, {"note": 85, "velocity": 122, "duration": 191}, {"note": 0, "velocity": 0, "duration": 289}, {"note": 83, "velocity": 122, "duration": 238}, {"note": 82, "velocity": 122, "duration": 139}, {"note": 80, "velocity": 127, "duration": 211}, {"note": 0, "velocity": 0, "duration": 149}, {"note": 82, "velocity": 127, "duration": 185}, {"note": 80, "velocity": 127, "duration": 138}, {"note": 0, "velocity": 0, "duration": 102}, {"note": 78, "velocity": 112, "duration": 57}, {"note": 0, "velocity": 0, "duration": 63}, {"note": 78, "velocity": 127, "duration": 203}, {"note": 0, "velocity": 0, "duration": 157}, {"note": 80, "velocity": 127, "duration": 120}, {"note": 82, "velocity": 102, "duration": 101}, {"note": 80, "velocity": 122, "duration": 151}, {"note": 0, "velocity": 0, "duration": 89}, {"note": 78, "velocity": 122, "duration": 52}, {"note": 0, "velocity": 0, "duration": 68}, {"note": 78, "velocity": 117, "duration": 199}, {"note": 0, "velocity": 0, "duration": 281}, {"note": 73, "velocity": 112, "duration": 74}, {"note": 75, "velocity": 117, "duration": 210}, {"note": 78, "velocity": 67, "duration": 70}, {"note": 78, "velocity": 127, "duration": 172}, {"note": 0, "velocity": 0, "duration": 68}, {"note": 82, "velocity": 117, "duration": 347}, {"note": 80, "velocity": 127, "duration": 250}, {"note": 0, "velocity": 0, "duration": 230}, {"note": 82, "velocity": 127, "duration": 184}, {"note": 80, "velocity": 122, "duration": 140}, {"note": 0, "velocity": 0, "duration": 100}, {"note": 78, "velocity": 127, "duration": 335}, {"note": 0, "velocity": 0, "duration": 145}, {"note": 85, "velocity": 127, "duration": 219}, {"note": 0, "velocity": 0, "duration": 261}, {"note": 83, "velocity": 127, "duration": 156}, {"note": 0, "velocity": 0, "duration": 84}, {"note": 82, "velocity": 112, "duration": 76}, {"note": 80, "velocity": 127, "duration": 136}, {"note": 0, "velocity": 0, "duration": 104}, {"note": 78, "velocity": 127, "duration": 255}, {"note": 0, "velocity": 0, "duration": 105}, {"note": 78, "velocity": 127, "duration": 326}, {"note": 0, "velocity": 0, "duration": 154}, {"note": 85, "velocity": 127, "duration": 241}, {"note": 0, "velocity": 0, "duration": 239}, {"note": 83, "velocity": 127, "duration": 167}, {"note": 0, "velocity": 0, "duration": 73}, {"note": 82, "velocity": 122, "duration": 109}, {"note": 80, "velocity": 122, "duration": 244}, {"note": 0, "velocity": 0, "duration": 116}, {"note": 82, "velocity": 127, "duration": 124}, {"note": 0, "velocity": 0, "duration": 116}, {"note": 80, "velocity": 127, "duration": 152}, {"note": 0, "velocity": 0, "duration": 88}, {"note": 78, "velocity": 102, "duration": 52}, {"note": 0, "velocity": 0, "duration": 68}, {"note": 78, "velocity": 122, "duration": 229}, {"note": 0, "velocity": 0, "duration": 131}, {"note": 80, "velocity": 127, "duration": 111}, {"note": 82, "velocity": 99, "duration": 110}, {"note": 80, "velocity": 122, "duration": 133}, {"note": 0, "velocity": 0, "duration": 107}, {"note": 78, "velocity": 117, "duration": 55}, {"note": 0, "velocity": 0, "duration": 65}, {"note": 78, "velocity": 127, "duration": 207}, {"note": 0, "velocity": 0, "duration": 153}, {"note": 80, "velocity": 127, "duration": 115}, {"note": 82, "velocity": 97, "duration": 112}, {"note": 80, "velocity": 122, "duration": 90}, {"note": 0, "velocity": 0, "duration": 150}, {"note": 80, "velocity": 127, "duration": 646}, {"note": 0, "velocity": 0, "duration": 314}, {"note": 82, "velocity": 117, "duration": 121}, {"note": 0, "velocity": 0, "duration": 119}, {"note": 80, "velocity": 127, "duration": 206}, {"note": 0, "velocity": 0, "duration": 154}, {"note": 78, "velocity": 100, "duration": 60}, {"note": 78, "velocity": 127, "duration": 1323}]]