[[{"note": 61, "velocity": 122, "duration": 229}, {"note": 59, "velocity": 66, "duration": 235}, {"note": 61, "velocity": 89, "duration": 179}, {"note": 0, "velocity": 0, "duration": 61}, {"note": 61, "velocity": 95, "duration": 88}, {"note": 64, "velocity": 92, "duration": 140}, {"note": 63, "velocity": 99, "duration": 427}, {"note": 61, "velocity": 122, "duration": 230}, {"note": 59, "velocity": 83, "duration": 239}, {"note": 61, "velocity": 107, "duration": 1292}, {"note": 0, "velocity": 0, "duration": 628}, {"note": 61, "velocity": 102, "duration": 132}, {"note": 0, "velocity": 0, "duration": 108}, {"note": 61, "velocity": 107, "duration": 114}, {"note": 59, "velocity": 78, "duration": 136}, {"note": 61, "velocity": 102, "duration": 178}, {"note": 0, "velocity": 0, "duration": 62}, {"note": 64, "velocity": 86, "duration": 214}, {"note": 61, "velocity": 93, "duration": 350}, {"note": 0, "velocity": 0, "duration": 130}, {"note": 52, "velocity": 93, "duration": 207}, {"note": 59, "velocity": 92, "duration": 263}, {"note": 56, "velocity": 79, "duration": 1288}, {"note": 0, "velocity": 0, "duration": 632}, {"note": 54, "velocity": 88, "duration": 374}, {"note": 0, "velocity": 0, "duration": 106}, {"note": 54, "velocity": 99, "duration": 199}, {"note": 56, "velocity": 93, "duration": 194}, {"note": 59, "velocity": 96, "duration": 632}, {"note": 0, "velocity": 0, "duration": 328}, {"note": 61, "velocity": 99, "duration": 107}, {"note": 0, "velocity": 0, "duration": 133}, {"note": 61, "velocity": 99, "duration": 87}, {"note": 0, "velocity": 0, "duration": 153}, {"note": 61, "velocity": 102, "duration": 45}, {"note": 0, "velocity": 0, "duration": 75}, {"note": 61, "velocity": 100, "duration": 201}, {"note": 64, "velocity": 87, "duration": 148}, {"note": 66, "velocity": 100, "duration": 495}, {"note": 0, "velocity": 0, "duration": 465}, {"note": 66, "velocity": 112, "duration": 576}, {"note": 0, "velocity": 0, "duration": 144}, {"note": 68, "velocity": 107, "duration": 132}, {"note": 0, "velocity": 0, "duration": 108}, {"note": 63, "velocity": 100, "duration": 203}, {"note": 61, "velocity": 95, "duration": 161}, {"note": 0, "velocity": 0, "duration": 79}, {"note": 61, "velocity": 102, "duration": 223}, {"note": 59, "velocity": 85, "duration": 221}, {"note": 61, "velocity": 100, "duration": 1238}, {"note": 0, "velocity": 0, "duration": 562}, {"note": 56, "velocity": 81, "duration": 89}, {"note": 61, "velocity": 81, "duration": 168}, {"note": 0, "velocity": 0, "duration": 72}, {"note": 61, "velocity": 99, "duration": 157}, {"note": 0, "velocity": 0, "duration": 83}, {"note": 61, "velocity": 93, "duration": 146}, {"note": 0, "velocity": 0, "duration": 73}, {"note": 64, "velocity": 90, "duration": 120}, {"note": 0, "velocity": 0, "duration": 141}, {"note": 63, "velocity": 102, "duration": 86}, {"note": 0, "velocity": 0, "duration": 154}, {"note": 63, "velocity": 102, "duration": 89}, {"note": 61, "velocity": 112, "duration": 352}, {"note": 59, "velocity": 92, "duration": 260}, {"note": 61, "velocity": 102, "duration": 362}, {"note": 0, "velocity": 0, "duration": 1318}, {"note": 56, "velocity": 99, "duration": 70}, {"note": 56, "velocity": 82, "duration": 70}, {"note": 61, "velocity": 102, "duration": 160}, {"note": 0, "velocity": 0, "duration": 80}, {"note": 61, "velocity": 117, "duration": 175}, {"note": 0, "velocity": 0, "duration": 65}, {"note": 61, "velocity": 107, "duration": 139}, {"note": 0, "velocity": 0, "duration": 101}, {"note": 64, "velocity": 97, "duration": 171}, {"note": 0, "velocity": 0, "duration": 69}, {"note": 61, "velocity": 117, "duration": 236}, {"note": 0, "velocity": 0, "duration": 244}, {"note": 52, "velocity": 92, "duration": 188}, {"note": 59, "velocity": 96, "duration": 215}, {"note": 56, "velocity": 99, "duration": 963}, {"note": 0, "velocity": 0, "duration": 957}, {"note": 54, "velocity": 100, "duration": 206}, {"note": 0, "velocity": 0, "duration": 274}, {"note": 54, "velocity": 107, "duration": 176}, {"note": 0, "velocity": 0, "duration": 64}, {"note": 56, "velocity": 100, "duration": 159}, {"note": 0, "velocity": 0, "duration": 81}, {"note": 59, "velocity": 102, "duration": 482}, {"note": 0, "velocity": 0, "duration": 238}, {"note": 59, "velocity": 96, "duration": 219}, {"note": 61, "velocity": 112, "duration": 366}, {"note": 0, "velocity": 0, "duration": 114}, {"note": 61, "velocity": 117, "duration": 173}, {"note": 0, "velocity": 0, "duration": 67}, {"note": 64, "velocity": 102, "duration": 190}, {"note": 66, "velocity": 127, "duration": 456}, {"note": 0, "velocity": 0, "duration": 504}, {"note": 66, "velocity": 127, "duration": 122}, {"note": 0, "velocity": 0, "duration": 118}, {"note": 66, "velocity": 127, "duration": 127}, {"note": 0, "velocity": 0, "duration": 113}, {"note": 66, "velocity": 127, "duration": 93}, {"note": 0, "velocity": 0, "duration": 147}, {"note": 66, "velocity": 127, "duration": 78}, {"note": 68, "velocity": 127, "duration": 76}, {"note": 63, "velocity": 112, "duration": 212}, {"note": 61, "velocity": 107, "duration": 160}, {"note": 0, "velocity": 0, "duration": 80}, {"note": 61, "velocity": 122, "duration": 170}, {"note": 0, "velocity": 0, "duration": 70}, {"note": 59, "velocity": 92, "duration": 177}, {"note": 0, "velocity": 0, "duration": 63}, {"note": 61, "velocity": 112, "duration": 664}, {"note": 0, "velocity": 0, "duration": 3176}, {"note": 68, "velocity": 127, "duration": 202}, {"note": 0, "velocity": 0, "duration": 158}, {"note": 68, "velocity": 122, "duration": 53}, {"note": 0, "velocity": 0, "duration": 67}, {"note": 68, "velocity": 127, "duration": 171}, {"note": 0, "velocity": 0, "duration": 69}, {"note": 68, "velocity": 117, "duration": 132}, {"note": 0, "velocity": 0, "duration": 108}, {"note": 68, "velocity": 127, "duration": 157}, {"note": 0, "velocity": 0, "duration": 83}, {"note": 66, "velocity": 122, "duration": 51}, {"note": 0, "velocity": 0, "duration": 69}, {"note": 66, "velocity": 127, "duration": 163}, {"note": 0, "velocity": 0, "duration": 197}, {"note": 64, "velocity": 107, "duration": 89}, {"note": 66, "velocity": 102, "duration": 68}, {"note": 66, "velocity": 127, "duration": 675}, {"note": 0, "velocity": 0, "duration": 1245}, {"note": 66, "velocity": 127, "duration": 206}, {"note": 0, "velocity": 0, "duration": 154}, {"note": 66, "velocity": 127, "duration": 58}, {"note": 0, "velocity": 0, "duration": 62}, {"note": 66, "velocity": 117, "duration": 138}, {"note": 0, "velocity": 0, "duration": 102}, {"note": 66, "velocity": 117, "duration": 91}, {"note": 64, "velocity": 97, "duration": 79}, {"note": 66, "velocity": 117, "duration": 158}, {"note": 0, "velocity": 0, "duration": 322}, {"note": 64, "velocity": 112, "duration": 94}, {"note": 61, "velocity": 96, "duration": 144}, {"note": 0, "velocity": 0, "duration": 96}, {"note": 61, "velocity": 100, "duration": 83}, {"note": 63, "velocity": 107, "duration": 912}, {"note": 0, "velocity": 0, "duration": 1008}, {"note": 61, "velocity": 117, "duration": 102}, {"note": 0, "velocity": 0, "duration": 138}, {"note": 61, "velocity": 107, "duration": 93}, {"note": 0, "velocity": 0, "duration": 147}, {"note": 61, "velocity": 122, "duration": 229}, {"note": 0, "velocity": 0, "duration": 131}, {"note": 64, "velocity": 100, "duration": 95}, {"note": 66, "velocity": 117, "duration": 507}, {"note": 0, "velocity": 0, "duration": 453}, {"note": 68, "velocity": 127, "duration": 308}, {"note": 0, "velocity": 0, "duration": 172}, {"note": 71, "velocity": 127, "duration": 145}, {"note": 68, "velocity": 127, "duration": 100}, {"note": 66, "velocity": 112, "duration": 225}, {"note": 64, "velocity": 107, "duration": 479}, {"note": 0, "velocity": 0, "duration": 481}, {"note": 59, "velocity": 107, "duration": 129}, {"note": 0, "velocity": 0, "duration": 111}, {"note": 59, "velocity": 100, "duration": 128}, {"note": 0, "velocity": 0, "duration": 112}, {"note": 59, "velocity": 100, "duration": 149}, {"note": 0, "velocity": 0, "duration": 91}, {"note": 61, "velocity": 112, "duration": 170}, {"note": 0, "velocity": 0, "duration": 70}, {"note": 63, "velocity": 127, "duration": 219}, {"note": 63, "velocity": 122, "duration": 91}, {"note": 66, "velocity": 127, "duration": 233}, {"note": 0, "velocity": 0, "duration": 127}, {"note": 59, "velocity": 97, "duration": 91}, {"note": 61, "velocity": 100, "duration": 76}, {"note": 61, "velocity": 117, "duration": 1070}, {"note": 0, "velocity": 0, "duration": 850}, {"note": 68, "velocity": 127, "duration": 206}, {"note": 0, "velocity": 0, "duration": 154}, {"note": 68, "velocity": 127, "duration": 51}, {"note": 0, "velocity": 0, "duration": 69}, {"note": 68, "velocity": 127, "duration": 210}, {"note": 68, "velocity": 122, "duration": 78}, {"note": 0, "velocity": 0, "duration": 162}, {"note": 71, "velocity": 117, "duration": 158}, {"note": 0, "velocity": 0, "duration": 82}, {"note": 68, "velocity": 127, "duration": 44}, {"note": 0, "velocity": 0, "duration": 76}, {"note": 68, "velocity": 127, "duration": 131}, {"note": 0, "velocity": 0, "duration": 229}, {"note": 64, "velocity": 117, "duration": 99}, {"note": 66, "velocity": 107, "duration": 63}, {"note": 66, "velocity": 127, "duration": 1215}, {"note": 0, "velocity": 0, "duration": 585}, {"note": 56, "velocity": 117, "duration": 87}, {"note": 66, "velocity": 122, "duration": 239}, {"note": 0, "velocity": 0, "duration": 121}, {"note": 66, "velocity": 122, "duration": 56}, {"note": 0, "velocity": 0, "duration": 64}, {"note": 66, "velocity": 112, "duration": 148}, {"note": 0, "velocity": 0, "duration": 92}, {"note": 64, "velocity": 88, "duration": 160}, {"note": 0, "velocity": 0, "duration": 80}, {"note": 66, "velocity": 122, "duration": 285}, {"note": 0, "velocity": 0, "duration": 195}, {"note": 64, "velocity": 107, "duration": 153}, {"note": 0, "velocity": 0, "duration": 87}, {"note": 61, "velocity": 107, "duration": 179}, {"note": 0, "velocity": 0, "duration": 61}, {"note": 63, "velocity": 127, "duration": 972}, {"note": 0, "velocity": 0, "duration": 948}, {"note": 61, "velocity": 127, "duration": 88}, {"note": 0, "velocity": 0, "duration": 152}, {"note": 61, "velocity": 112, "duration": 108}, {"note": 0, "velocity": 0, "duration": 132}, {"note": 61, "velocity": 122, "duration": 116}, {"note": 0, "velocity": 0, "duration": 124}, {"note": 61, "velocity": 112, "duration": 89}, {"note": 64, "velocity": 95, "duration": 62}, {"note": 64, "velocity": 102, "duration": 582}, {"note": 0, "velocity": 0, "duration": 378}, {"note": 68, "velocity": 127, "duration": 391}, {"note": 0, "velocity": 0, "duration": 89}, {"note": 71, "velocity": 99, "duration": 188}, {"note": 66, "velocity": 117, "duration": 189}, {"note": 64, "velocity": 112, "duration": 458}, {"note": 0, "velocity": 0, "duration": 502}, {"note": 59, "velocity": 107, "duration": 135}, {"note": 0, "velocity": 0, "duration": 105}, {"note": 59, "velocity": 97, "duration": 152}, {"note": 0, "velocity": 0, "duration": 88}, {"note": 59, "velocity": 100, "duration": 133}, {"note": 0, "velocity": 0, "duration": 107}, {"note": 59, "velocity": 99, "duration": 102}, {"note": 61, "velocity": 102, "duration": 93}, {"note": 63, "velocity": 127, "duration": 299}, {"note": 0, "velocity": 0, "duration": 181}, {"note": 66, "velocity": 127, "duration": 224}, {"note": 59, "velocity": 96, "duration": 101}, {"note": 61, "velocity": 100, "duration": 77}, {"note": 61, "velocity": 127, "duration": 1611}, {"note": 0, "velocity": 0, "duration": 15549}, {"note": 56, "velocity": 81, "duration": 89}, {"note": 61, "velocity": 81, "duration": 168}, {"note": 0, "velocity": 0, "duration": 72}, {"note": 61, "velocity": 99, "duration": 157}, {"note": 0, "velocity": 0, "duration": 83}, {"note": 61, "velocity": 93, "duration": 146}, {"note": 0, "velocity": 0, "duration": 73}, {"note": 64, "velocity": 90, "duration": 120}, {"note": 0, "velocity": 0, "duration": 141}, {"note": 63, "velocity": 102, "duration": 86}, {"note": 0, "velocity": 0, "duration": 154}, {"note": 63, "velocity": 102, "duration": 89}, {"note": 61, "velocity": 112, "duration": 352}, {"note": 59, "velocity": 92, "duration": 260}, {"note": 61, "velocity": 102, "duration": 362}, {"note": 0, "velocity": 0, "duration": 1318}, {"note": 56, "velocity": 99, "duration": 70}, {"note": 56, "velocity": 82, "duration": 70}, {"note": 61, "velocity": 102, "duration": 160}, {"note": 0, "velocity": 0, "duration": 80}, {"note": 61, "velocity": 117, "duration": 175}, {"note": 0, "velocity": 0, "duration": 65}, {"note": 61, "velocity": 107, "duration": 139}, {"note": 0, "velocity": 0, "duration": 101}, {"note": 64, "velocity": 97, "duration": 171}, {"note": 0, "velocity": 0, "duration": 69}, {"note": 61, "velocity": 117, "duration": 236}, {"note": 0, "velocity": 0, "duration": 244}, {"note": 52, "velocity": 92, "duration": 188}, {"note": 59, "velocity": 96, "duration": 215}, {"note": 56, "velocity": 99, "duration": 963}, {"note": 0, "velocity": 0, "duration": 957}, {"note": 54, "velocity": 100, "duration": 206}, {"note": 0, "velocity": 0, "duration": 274}, {"note": 54, "velocity": 107, "duration": 176}, {"note": 0, "velocity": 0, "duration": 64}, {"note": 56, "velocity": 100, "duration": 159}, {"note": 0, "velocity": 0, "duration": 81}, {"note": 59, "velocity": 102, "duration": 482}, {"note": 0, "velocity": 0, "duration": 238}, {"note": 59, "velocity": 96, "duration": 219}, {"note": 61, "velocity": 112, "duration": 366}, {"note": 0, "velocity": 0, "duration": 114}, {"note": 61, "velocity": 117, "duration": 173}, {"note": 0, "velocity": 0, "duration": 67}, {"note": 64, "velocity": 102, "duration": 190}, {"note": 66, "velocity": 127, "duration": 456}, {"note": 0, "velocity": 0, "duration": 504}, {"note": 66, "velocity": 127, "duration": 122}, {"note": 0, "velocity": 0, "duration": 118}, {"note": 66, "velocity": 127, "duration": 127}, {"note": 0, "velocity": 0, "duration": 113}, {"note": 66, "velocity": 127, "duration": 93}, {"note": 0, "velocity": 0, "duration": 147}, {"note": 66, "velocity": 127, "duration": 78}, {"note": 68, "velocity": 127, "duration": 76}, {"note": 63, "velocity": 112, "duration": 212}, {"note": 61, "velocity": 107, "duration": 160}, {"note": 0, "velocity": 0, "duration": 80}, {"note": 61, "velocity": 122, "duration": 170}, {"note": 0, "velocity": 0, "duration": 70}, {"note": 59, "velocity": 92, "duration": 177}, {"note": 0, "velocity": 0, "duration": 63}, {"note": 61, "velocity": 112, "duration": 664}, {"note": 0, "velocity": 0, "duration": 3176}, {"note": 68, "velocity": 127, "duration": 202}, {"note": 0, "velocity": 0, "duration": 158}, {"note": 68, "velocity": 122, "duration": 53}, {"note": 0, "velocity": 0, "duration": 67}, {"note": 68, "velocity": 127, "duration": 171}, {"note": 0, "velocity": 0, "duration": 69}, {"note": 68, "velocity": 117, "duration": 132}, {"note": 0, "velocity": 0, "duration": 108}, {"note": 68, "velocity": 127, "duration": 157}, {"note": 0, "velocity": 0, "duration": 83}, {"note": 66, "velocity": 122, "duration": 51}, {"note": 0, "velocity": 0, "duration": 69}, {"note": 66, "velocity": 127, "duration": 163}, {"note": 0, "velocity": 0, "duration": 197}, {"note": 64, "velocity": 107, "duration": 89}, {"note": 66, "velocity": 102, "duration": 68}, {"note": 66, "velocity": 127, "duration": 675}, {"note": 0, "velocity": 0, "duration": 1245}, {"note": 66, "velocity": 127, "duration": 206}, {"note": 0, "velocity": 0, "duration": 154}, {"note": 66, "velocity": 127, "duration": 58}, {"note": 0, "velocity": 0, "duration": 62}, {"note": 66, "velocity": 117, "duration": 138}, {"note": 0, "velocity": 0, "duration": 102}, {"note": 66, "velocity": 117, "duration": 91}, {"note": 64, "velocity": 97, "duration": 79}, {"note": 66, "velocity": 117, "duration": 158}, {"note": 0, "velocity": 0, "duration": 322}, {"note": 64, "velocity": 112, "duration": 94}, {"note": 61, "velocity": 96, "duration": 144}, {"note": 0, "velocity": 0, "duration": 96}, {"note": 61, "velocity": 100, "duration": 83}, {"note": 63, "velocity": 107, "duration": 912}, {"note": 0, "velocity": 0, "duration": 1008}, {"note": 61, "velocity": 117, "duration": 102}, {"note": 0, "velocity": 0, "duration": 138}, {"note": 61, "velocity": 107, "duration": 93}, {"note": 0, "velocity": 0, "duration": 147}, {"note": 61, "velocity": 122, "duration": 229}, {"note": 0, "velocity": 0, "duration": 131}, {"note": 64, "velocity": 100, "duration": 95}, {"note": 66, "velocity": 117, "duration": 507}, {"note": 0, "velocity": 0, "duration": 453}, {"note": 68, "velocity": 127, "duration": 308}, {"note": 0, "velocity": 0, "duration": 172}, {"note": 71, "velocity": 127, "duration": 145}, {"note": 68, "velocity": 127, "duration": 100}, {"note": 66, "velocity": 112, "duration": 225}, {"note": 64, "velocity": 107, "duration": 479}, {"note": 0, "velocity": 0, "duration": 481}, {"note": 59, "velocity": 107, "duration": 129}, {"note": 0, "velocity": 0, "duration": 111}, {"note": 59, "velocity": 100, "duration": 128}, {"note": 0, "velocity": 0, "duration": 112}, {"note": 59, "velocity": 100, "duration": 149}, {"note": 0, "velocity": 0, "duration": 91}, {"note": 61, "velocity": 112, "duration": 170}, {"note": 0, "velocity": 0, "duration": 70}, {"note": 63, "velocity": 127, "duration": 219}, {"note": 63, "velocity": 122, "duration": 91}, {"note": 66, "velocity": 127, "duration": 233}, {"note": 0, "velocity": 0, "duration": 127}, {"note": 59, "velocity": 97, "duration": 91}, {"note": 61, "velocity": 100, "duration": 76}, {"note": 61, "velocity": 117, "duration": 1070}, {"note": 0, "velocity": 0, "duration": 850}, {"note": 68, "velocity": 127, "duration": 206}, {"note": 0, "velocity": 0, "duration": 154}, {"note": 68, "velocity": 127, "duration": 51}, {"note": 0, "velocity": 0, "duration": 69}, {"note": 68, "velocity": 127, "duration": 210}, {"note": 68, "velocity": 122, "duration": 78}, {"note": 0, "velocity": 0, "duration": 162}, {"note": 71, "velocity": 117, "duration": 158}, {"note": 0, "velocity": 0, "duration": 82}, {"note": 68, "velocity": 127, "duration": 44}, {"note": 0, "velocity": 0, "duration": 76}, {"note": 68, "velocity": 127, "duration": 131}, {"note": 0, "velocity": 0, "duration": 229}, {"note": 64, "velocity": 117, "duration": 99}, {"note": 66, "velocity": 107, "duration": 63}, {"note": 66, "velocity": 127, "duration": 1215}, {"note": 0, "velocity": 0, "duration": 585}, {"note": 56, "velocity": 117, "duration": 87}, {"note": 66, "velocity": 122, "duration": 239}, {"note": 0, "velocity": 0, "duration": 121}, {"note": 66, "velocity": 122, "duration": 56}, {"note": 0, "velocity": 0, "duration": 64}, {"note": 66, "velocity": 112, "duration": 148}, {"note": 0, "velocity": 0, "duration": 92}, {"note": 64, "velocity": 88, "duration": 160}, {"note": 0, "velocity": 0, "duration": 80}, {"note": 66, "velocity": 122, "duration": 285}, {"note": 0, "velocity": 0, "duration": 195}, {"note": 64, "velocity": 107, "duration": 153}, {"note": 0, "velocity": 0, "duration": 87}, {"note": 61, "velocity": 107, "duration": 179}, {"note": 0, "velocity": 0, "duration": 61}, {"note": 63, "velocity": 127, "duration": 972}, {"note": 0, "velocity": 0, "duration": 948}, {"note": 61, "velocity": 127, "duration": 88}, {"note": 0, "velocity": 0, "duration": 152}, {"note": 61, "velocity": 112, "duration": 108}, {"note": 0, "velocity": 0, "duration": 132}, {"note": 61, "velocity": 122, "duration": 116}, {"note": 0, "velocity": 0, "duration": 124}, {"note": 61, "velocity": 112, "duration": 89}, {"note": 64, "velocity": 95, "duration": 62}, {"note": 64, "velocity": 102, "duration": 582}, {"note": 0, "velocity": 0, "duration": 378}, {"note": 68, "velocity": 127, "duration": 391}, {"note": 0, "velocity": 0, "duration": 89}, {"note": 71, "velocity": 99, "duration": 188}, {"note": 66, "velocity": 117, "duration": 189}, {"note": 64, "velocity": 112, "duration": 458}, {"note": 0, "velocity": 0, "duration": 502}, {"note": 59, "velocity": 107, "duration": 135}, {"note": 0, "velocity": 0, "duration": 105}, {"note": 59, "velocity": 97, "duration": 152}, {"note": 0, "velocity": 0, "duration": 88}, {"note": 59, "velocity": 100, "duration": 133}, {"note": 0, "velocity": 0, "duration": 107}, {"note": 59, "velocity": 99, "duration": 102}, {"note": 61, "velocity": 102, "duration": 93}, {"note": 63, "velocity": 127, "duration": 299}, {"note": 0, "velocity": 0, "duration": 181}, {"note": 66, "velocity": 127, "duration": 224}, {"note": 59, "velocity": 96, "duration": 101}, {"note": 61, "velocity": 100, "duration": 77}, {"note": 61, "velocity": 127, "duration": 1611}, {"note": 0, "velocity": 0, "duration": 309}, {"note": 68, "velocity": 127, "duration": 206}, {"note": 0, "velocity": 0, "duration": 154}, {"note": 68, "velocity": 127, "duration": 51}, {"note": 0, "velocity": 0, "duration": 69}, {"note": 68, "velocity": 127, "duration": 210}, {"note": 68, "velocity": 122, "duration": 78}, {"note": 0, "velocity": 0, "duration": 162}, {"note": 71, "velocity": 117, "duration": 158}, {"note": 0, "velocity": 0, "duration": 82}, {"note": 68, "velocity": 127, "duration": 44}, {"note": 0, "velocity": 0, "duration": 76}, {"note": 68, "velocity": 127, "duration": 131}, {"note": 0, "velocity": 0, "duration": 229}, {"note": 64, "velocity": 117, "duration": 99}, {"note": 66, "velocity": 107, "duration": 63}, {"note": 66, "velocity": 127, "duration": 1215}, {"note": 0, "velocity": 0, "duration": 585}, {"note": 56, "velocity": 117, "duration": 87}, {"note": 66, "velocity": 122, "duration": 239}, {"note": 0, "velocity": 0, "duration": 121}, {"note": 66, "velocity": 122, "duration": 56}, {"note": 0, "velocity": 0, "duration": 64}, {"note": 66, "velocity": 112, "duration": 148}, {"note": 0, "velocity": 0, "duration": 92}, {"note": 64, "velocity": 88, "duration": 160}, {"note": 0, "velocity": 0, "duration": 80}, {"note": 66, "velocity": 122, "duration": 285}, {"note": 0, "velocity": 0, "duration": 195}, {"note": 64, "velocity": 107, "duration": 153}, {"note": 0, "velocity": 0, "duration": 87}, {"note": 61, "velocity": 107, "duration": 179}, {"note": 0, "velocity": 0, "duration": 61}, {"note": 63, "velocity": 127, "duration": 972}, {"note": 0, "velocity": 0, "duration": 948}, {"note": 61, "velocity": 127, "duration": 88}, {"note": 0, "velocity": 0, "duration": 152}, {"note": 61, "velocity": 112, "duration": 108}, {"note": 0, "velocity": 0, "duration": 132}, {"note": 61, "velocity": 122, "duration": 116}, {"note": 0, "velocity": 0, "duration": 124}, {"note": 61, "velocity": 112, "duration": 89}, {"note": 64, "velocity": 95, "duration": 62}, {"note": 64, "velocity": 102, "duration": 582}, {"note": 0, "velocity": 0, "duration": 378}, {"note": 68, "velocity": 127, "duration": 391}, {"note": 0, "velocity": 0, "duration": 89}, {"note": 71, "velocity": 99, "duration": 188}, {"note": 66, "velocity": 117, "duration": 189}, {"note": 64, "velocity": 112, "duration": 458}, {"note": 0, "velocity": 0, "duration": 502}, {"note": 59, "velocity": 107, "duration": 135}, {"note": 0, "velocity": 0, "duration": 105}, {"note": 59, "velocity": 97, "duration": 152}, {"note": 0, "velocity": 0, "duration": 88}, {"note": 59, "velocity": 100, "duration": 133}, {"note": 0, "velocity": 0, "duration": 107}, {"note": 59, "velocity": 99, "duration": 102}, {"note": 61, "velocity": 102, "duration": 93}, {"note": 63, "velocity": 127, "duration": 299}, {"note": 0, "velocity": 0, "duration": 181}, {"note": 66, "velocity": 127, "duration": 224}, {"note": 59, "velocity": 96, "duration": 101}, {"note": 61, "velocity": 100, "duration": 77}, {"note": 61, "velocity": 127, "duration": 1611}, {"note": 0, "velocity": 0, "duration": 309}, {"note": 68, "velocity": 127, "duration": 206}, {"note": 0, "velocity": 0, "duration": 154}, {"note": 68, "velocity": 127, "duration": 51}, {"note": 0, "velocity": 0, "duration": 69}, {"note": 68, "velocity": 127, "duration": 210}, {"note": 68, "velocity": 122, "duration": 78}, {"note": 0, "velocity": 0, "duration": 162}, {"note": 71, "velocity": 117, "duration": 158}, {"note": 0, "velocity": 0, "duration": 82}, {"note": 68, "velocity": 127, "duration": 44}, {"note": 0, "velocity": 0, "duration": 76}, {"note": 68, "velocity": 127, "duration": 131}, {"note": 0, "velocity": 0, "duration": 229}, {"note": 64, "velocity": 117, "duration": 99}, {"note": 66, "velocity": 107, "duration": 63}, {"note": 66, "velocity": 127, "duration": 1215}, {"note": 0, "velocity": 0, "duration": 585}, {"note": 56, "velocity": 76, "duration": 129}, {"note": 71, "velocity": 127, "duration": 273}, {"note": 0, "velocity": 0, "duration": 87}, {"note": 71, "velocity": 112, "duration": 56}, {"note": 0, "velocity": 0, "duration": 64}, {"note": 71, "velocity": 112, "duration": 132}, {"note": 0, "velocity": 0, "duration": 108}, {"note": 71, "velocity": 127, "duration": 148}, {"note": 0, "velocity": 0, "duration": 92}, {"note": 71, "velocity": 127, "duration": 147}, {"note": 0, "velocity": 0, "duration": 333}, {"note": 66, "velocity": 127, "duration": 79}, {"note": 64, "velocity": 93, "duration": 61}, {"note": 64, "velocity": 112, "duration": 239}, {"note": 68, "velocity": 122, "duration": 1357}, {"note": 0, "velocity": 0, "duration": 563}, {"note": 61, "velocity": 127, "duration": 88}, {"note": 0, "velocity": 0, "duration": 152}, {"note": 61, "velocity": 112, "duration": 108}, {"note": 0, "velocity": 0, "duration": 132}, {"note": 61, "velocity": 122, "duration": 116}, {"note": 0, "velocity": 0, "duration": 124}, {"note": 61, "velocity": 112, "duration": 89}, {"note": 64, "velocity": 95, "duration": 62}, {"note": 64, "velocity": 102, "duration": 582}, {"note": 0, "velocity": 0, "duration": 378}, {"note": 68, "velocity": 127, "duration": 391}, {"note": 0, "velocity": 0, "duration": 89}, {"note": 71, "velocity": 99, "duration": 188}, {"note": 66, "velocity": 117, "duration": 189}, {"note": 64, "velocity": 112, "duration": 458}, {"note": 0, "velocity": 0, "duration": 502}, {"note": 59, "velocity": 107, "duration": 135}, {"note": 0, "velocity": 0, "duration": 105}, {"note": 59, "velocity": 97, "duration": 152}, {"note": 0, "velocity": 0, "duration": 88}, {"note": 59, "velocity": 100, "duration": 133}, {"note": 0, "velocity": 0, "duration": 107}, {"note": 59, "velocity": 99, "duration": 102}, {"note": 61, "velocity": 102, "duration": 93}, {"note": 63, "velocity": 127, "duration": 299}, {"note": 0, "velocity": 0, "duration": 181}, {"note": 66, "velocity": 127, "duration": 224}, {"note": 59, "velocity": 96, "duration": 101}, {"note": 61, "velocity": 100, "duration": 77}, {"note": 61, "velocity": 117, "duration": 1470}]]