[[{"note": 62, "velocity": 97, "duration": 66}, {"note": 0, "velocity": 0, "duration": 94}, {"note": 62, "velocity": 82, "duration": 62}, {"note": 0, "velocity": 0, "duration": 98}, {"note": 62, "velocity": 88, "duration": 62}, {"note": 0, "velocity": 0, "duration": 98}, {"note": 62, "velocity": 102, "duration": 191}, {"note": 62, "velocity": 96, "duration": 31}, {"note": 0, "velocity": 0, "duration": 129}, {"note": 64, "velocity": 86, "duration": 147}, {"note": 59, "velocity": 99, "duration": 623}, {"note": 59, "velocity": 95, "duration": 132}, {"note": 62, "velocity": 97, "duration": 154}, {"note": 67, "velocity": 99, "duration": 259}, {"note": 0, "velocity": 0, "duration": 61}, {"note": 67, "velocity": 100, "duration": 129}, {"note": 66, "velocity": 99, "duration": 147}, {"note": 66, "velocity": 97, "duration": 146}, {"note": 62, "velocity": 99, "duration": 139}, {"note": 59, "velocity": 97, "duration": 530}, {"note": 0, "velocity": 0, "duration": 110}, {"note": 59, "velocity": 93, "duration": 148}, {"note": 62, "velocity": 88, "duration": 101}, {"note": 67, "velocity": 107, "duration": 237}, {"note": 0, "velocity": 0, "duration": 83}, {"note": 67, "velocity": 112, "duration": 137}, {"note": 66, "velocity": 112, "duration": 147}, {"note": 66, "velocity": 112, "duration": 124}, {"note": 62, "velocity": 97, "duration": 117}, {"note": 59, "velocity": 90, "duration": 521}, {"note": 0, "velocity": 0, "duration": 119}, {"note": 59, "velocity": 102, "duration": 109}, {"note": 62, "velocity": 93, "duration": 116}, {"note": 64, "velocity": 99, "duration": 229}, {"note": 0, "velocity": 0, "duration": 91}, {"note": 64, "velocity": 102, "duration": 196}, {"note": 0, "velocity": 0, "duration": 124}, {"note": 62, "velocity": 102, "duration": 138}, {"note": 59, "velocity": 81, "duration": 163}, {"note": 57, "velocity": 93, "duration": 471}, {"note": 0, "velocity": 0, "duration": 169}, {"note": 59, "velocity": 100, "duration": 131}, {"note": 57, "velocity": 95, "duration": 152}, {"note": 59, "velocity": 117, "duration": 239}, {"note": 0, "velocity": 0, "duration": 81}, {"note": 59, "velocity": 99, "duration": 648}, {"note": 0, "velocity": 0, "duration": 472}, {"note": 59, "velocity": 117, "duration": 157}, {"note": 66, "velocity": 107, "duration": 147}, {"note": 0, "velocity": 0, "duration": 173}, {"note": 69, "velocity": 102, "duration": 269}, {"note": 67, "velocity": 117, "duration": 400}, {"note": 0, "velocity": 0, "duration": 880}, {"note": 64, "velocity": 117, "duration": 234}, {"note": 0, "velocity": 0, "duration": 86}, {"note": 62, "velocity": 100, "duration": 177}, {"note": 64, "velocity": 117, "duration": 253}, {"note": 0, "velocity": 0, "duration": 67}, {"note": 67, "velocity": 107, "duration": 330}, {"note": 0, "velocity": 0, "duration": 790}, {"note": 64, "velocity": 112, "duration": 141}, {"note": 66, "velocity": 112, "duration": 143}, {"note": 67, "velocity": 100, "duration": 130}, {"note": 69, "velocity": 127, "duration": 894}, {"note": 0, "velocity": 0, "duration": 866}, {"note": 62, "velocity": 96, "duration": 144}, {"note": 71, "velocity": 117, "duration": 117}, {"note": 69, "velocity": 122, "duration": 95}, {"note": 0, "velocity": 0, "duration": 65}, {"note": 67, "velocity": 112, "duration": 79}, {"note": 0, "velocity": 0, "duration": 81}, {"note": 71, "velocity": 122, "duration": 96}, {"note": 0, "velocity": 0, "duration": 64}, {"note": 69, "velocity": 117, "duration": 88}, {"note": 0, "velocity": 0, "duration": 72}, {"note": 67, "velocity": 99, "duration": 107}, {"note": 69, "velocity": 122, "duration": 56}, {"note": 0, "velocity": 0, "duration": 104}, {"note": 69, "velocity": 122, "duration": 70}, {"note": 0, "velocity": 0, "duration": 90}, {"note": 69, "velocity": 122, "duration": 72}, {"note": 0, "velocity": 0, "duration": 88}, {"note": 69, "velocity": 127, "duration": 84}, {"note": 0, "velocity": 0, "duration": 76}, {"note": 71, "velocity": 112, "duration": 147}, {"note": 74, "velocity": 112, "duration": 242}, {"note": 0, "velocity": 0, "duration": 78}, {"note": 67, "velocity": 117, "duration": 375}, {"note": 0, "velocity": 0, "duration": 265}, {"note": 71, "velocity": 117, "duration": 140}, {"note": 69, "velocity": 100, "duration": 89}, {"note": 0, "velocity": 0, "duration": 71}, {"note": 69, "velocity": 93, "duration": 81}, {"note": 0, "velocity": 0, "duration": 79}, {"note": 69, "velocity": 112, "duration": 77}, {"note": 0, "velocity": 0, "duration": 83}, {"note": 69, "velocity": 117, "duration": 136}, {"note": 66, "velocity": 122, "duration": 90}, {"note": 0, "velocity": 0, "duration": 70}, {"note": 62, "velocity": 107, "duration": 128}, {"note": 67, "velocity": 112, "duration": 495}, {"note": 0, "velocity": 0, "duration": 305}, {"note": 71, "velocity": 117, "duration": 141}, {"note": 69, "velocity": 112, "duration": 82}, {"note": 0, "velocity": 0, "duration": 78}, {"note": 69, "velocity": 102, "duration": 60}, {"note": 0, "velocity": 0, "duration": 100}, {"note": 69, "velocity": 107, "duration": 63}, {"note": 0, "velocity": 0, "duration": 97}, {"note": 69, "velocity": 112, "duration": 95}, {"note": 0, "velocity": 0, "duration": 65}, {"note": 74, "velocity": 127, "duration": 151}, {"note": 76, "velocity": 99, "duration": 202}, {"note": 0, "velocity": 0, "duration": 118}, {"note": 71, "velocity": 107, "duration": 285}, {"note": 0, "velocity": 0, "duration": 195}, {"note": 67, "velocity": 96, "duration": 113}, {"note": 69, "velocity": 107, "duration": 101}, {"note": 71, "velocity": 107, "duration": 175}, {"note": 0, "velocity": 0, "duration": 145}, {"note": 71, "velocity": 127, "duration": 75}, {"note": 0, "velocity": 0, "duration": 85}, {"note": 71, "velocity": 127, "duration": 77}, {"note": 0, "velocity": 0, "duration": 83}, {"note": 67, "velocity": 112, "duration": 90}, {"note": 0, "velocity": 0, "duration": 70}, {"note": 64, "velocity": 112, "duration": 75}, {"note": 0, "velocity": 0, "duration": 85}, {"note": 71, "velocity": 127, "duration": 76}, {"note": 0, "velocity": 0, "duration": 84}, {"note": 71, "velocity": 102, "duration": 68}, {"note": 0, "velocity": 0, "duration": 92}, {"note": 71, "velocity": 122, "duration": 60}, {"note": 0, "velocity": 0, "duration": 100}, {"note": 71, "velocity": 127, "duration": 75}, {"note": 0, "velocity": 0, "duration": 85}, {"note": 67, "velocity": 112, "duration": 129}, {"note": 64, "velocity": 112, "duration": 122}, {"note": 69, "velocity": 127, "duration": 772}, {"note": 0, "velocity": 0, "duration": 1148}, {"note": 71, "velocity": 117, "duration": 117}, {"note": 69, "velocity": 122, "duration": 95}, {"note": 0, "velocity": 0, "duration": 65}, {"note": 67, "velocity": 112, "duration": 79}, {"note": 0, "velocity": 0, "duration": 81}, {"note": 71, "velocity": 122, "duration": 96}, {"note": 0, "velocity": 0, "duration": 64}, {"note": 69, "velocity": 117, "duration": 88}, {"note": 0, "velocity": 0, "duration": 72}, {"note": 67, "velocity": 99, "duration": 107}, {"note": 69, "velocity": 122, "duration": 56}, {"note": 0, "velocity": 0, "duration": 104}, {"note": 69, "velocity": 122, "duration": 70}, {"note": 0, "velocity": 0, "duration": 90}, {"note": 69, "velocity": 122, "duration": 72}, {"note": 0, "velocity": 0, "duration": 88}, {"note": 69, "velocity": 127, "duration": 84}, {"note": 0, "velocity": 0, "duration": 76}, {"note": 69, "velocity": 112, "duration": 147}, {"note": 74, "velocity": 112, "duration": 242}, {"note": 0, "velocity": 0, "duration": 78}, {"note": 67, "velocity": 117, "duration": 375}, {"note": 0, "velocity": 0, "duration": 265}, {"note": 71, "velocity": 117, "duration": 140}, {"note": 69, "velocity": 100, "duration": 89}, {"note": 0, "velocity": 0, "duration": 71}, {"note": 69, "velocity": 93, "duration": 81}, {"note": 0, "velocity": 0, "duration": 79}, {"note": 69, "velocity": 112, "duration": 77}, {"note": 0, "velocity": 0, "duration": 83}, {"note": 69, "velocity": 117, "duration": 136}, {"note": 66, "velocity": 122, "duration": 90}, {"note": 0, "velocity": 0, "duration": 70}, {"note": 62, "velocity": 107, "duration": 128}, {"note": 67, "velocity": 112, "duration": 495}, {"note": 0, "velocity": 0, "duration": 305}, {"note": 71, "velocity": 117, "duration": 141}, {"note": 69, "velocity": 112, "duration": 82}, {"note": 0, "velocity": 0, "duration": 78}, {"note": 69, "velocity": 102, "duration": 60}, {"note": 0, "velocity": 0, "duration": 100}, {"note": 69, "velocity": 107, "duration": 63}, {"note": 0, "velocity": 0, "duration": 97}, {"note": 69, "velocity": 112, "duration": 95}, {"note": 0, "velocity": 0, "duration": 65}, {"note": 74, "velocity": 127, "duration": 151}, {"note": 76, "velocity": 99, "duration": 202}, {"note": 0, "velocity": 0, "duration": 118}, {"note": 71, "velocity": 107, "duration": 285}, {"note": 0, "velocity": 0, "duration": 195}, {"note": 67, "velocity": 96, "duration": 113}, {"note": 69, "velocity": 107, "duration": 101}, {"note": 71, "velocity": 107, "duration": 175}, {"note": 0, "velocity": 0, "duration": 145}, {"note": 71, "velocity": 127, "duration": 75}, {"note": 0, "velocity": 0, "duration": 85}, {"note": 71, "velocity": 127, "duration": 77}, {"note": 0, "velocity": 0, "duration": 83}, {"note": 67, "velocity": 112, "duration": 90}, {"note": 0, "velocity": 0, "duration": 70}, {"note": 64, "velocity": 112, "duration": 75}, {"note": 0, "velocity": 0, "duration": 85}, {"note": 71, "velocity": 122, "duration": 228}, {"note": 0, "velocity": 0, "duration": 92}, {"note": 71, "velocity": 117, "duration": 199}, {"note": 0, "velocity": 0, "duration": 121}, {"note": 67, "velocity": 102, "duration": 110}, {"note": 64, "velocity": 112, "duration": 136}, {"note": 69, "velocity": 112, "duration": 1159}, {"note": 0, "velocity": 0, "duration": 281}, {"note": 67, "velocity": 117, "duration": 73}, {"note": 0, "velocity": 0, "duration": 87}, {"note": 69, "velocity": 127, "duration": 299}, {"note": 0, "velocity": 0, "duration": 181}, {"note": 67, "velocity": 127, "duration": 862}, {"note": 0, "velocity": 0, "duration": 18178}, {"note": 62, "velocity": 97, "duration": 66}, {"note": 0, "velocity": 0, "duration": 94}, {"note": 62, "velocity": 82, "duration": 62}, {"note": 0, "velocity": 0, "duration": 98}, {"note": 62, "velocity": 88, "duration": 62}, {"note": 0, "velocity": 0, "duration": 98}, {"note": 62, "velocity": 102, "duration": 191}, {"note": 62, "velocity": 96, "duration": 31}, {"note": 0, "velocity": 0, "duration": 129}, {"note": 64, "velocity": 86, "duration": 147}, {"note": 59, "velocity": 99, "duration": 623}, {"note": 59, "velocity": 95, "duration": 132}, {"note": 62, "velocity": 97, "duration": 154}, {"note": 67, "velocity": 99, "duration": 259}, {"note": 0, "velocity": 0, "duration": 61}, {"note": 67, "velocity": 100, "duration": 129}, {"note": 66, "velocity": 99, "duration": 147}, {"note": 66, "velocity": 97, "duration": 146}, {"note": 62, "velocity": 99, "duration": 139}, {"note": 59, "velocity": 97, "duration": 530}, {"note": 0, "velocity": 0, "duration": 110}, {"note": 59, "velocity": 93, "duration": 148}, {"note": 62, "velocity": 88, "duration": 101}, {"note": 67, "velocity": 107, "duration": 237}, {"note": 0, "velocity": 0, "duration": 83}, {"note": 67, "velocity": 112, "duration": 137}, {"note": 66, "velocity": 112, "duration": 147}, {"note": 66, "velocity": 112, "duration": 124}, {"note": 62, "velocity": 97, "duration": 117}, {"note": 59, "velocity": 90, "duration": 521}, {"note": 0, "velocity": 0, "duration": 119}, {"note": 59, "velocity": 102, "duration": 109}, {"note": 62, "velocity": 93, "duration": 116}, {"note": 64, "velocity": 99, "duration": 229}, {"note": 0, "velocity": 0, "duration": 91}, {"note": 64, "velocity": 102, "duration": 196}, {"note": 0, "velocity": 0, "duration": 124}, {"note": 62, "velocity": 102, "duration": 138}, {"note": 59, "velocity": 81, "duration": 163}, {"note": 57, "velocity": 93, "duration": 471}, {"note": 0, "velocity": 0, "duration": 169}, {"note": 59, "velocity": 100, "duration": 131}, {"note": 57, "velocity": 95, "duration": 152}, {"note": 59, "velocity": 117, "duration": 239}, {"note": 0, "velocity": 0, "duration": 81}, {"note": 59, "velocity": 99, "duration": 648}, {"note": 0, "velocity": 0, "duration": 472}, {"note": 59, "velocity": 117, "duration": 157}, {"note": 66, "velocity": 107, "duration": 147}, {"note": 0, "velocity": 0, "duration": 173}, {"note": 69, "velocity": 102, "duration": 269}, {"note": 67, "velocity": 117, "duration": 400}, {"note": 0, "velocity": 0, "duration": 880}, {"note": 64, "velocity": 117, "duration": 234}, {"note": 0, "velocity": 0, "duration": 86}, {"note": 62, "velocity": 100, "duration": 177}, {"note": 64, "velocity": 117, "duration": 253}, {"note": 0, "velocity": 0, "duration": 67}, {"note": 67, "velocity": 107, "duration": 330}, {"note": 0, "velocity": 0, "duration": 790}, {"note": 64, "velocity": 112, "duration": 141}, {"note": 66, "velocity": 112, "duration": 143}, {"note": 67, "velocity": 100, "duration": 130}, {"note": 69, "velocity": 127, "duration": 894}, {"note": 0, "velocity": 0, "duration": 866}, {"note": 62, "velocity": 96, "duration": 144}, {"note": 71, "velocity": 117, "duration": 117}, {"note": 69, "velocity": 122, "duration": 95}, {"note": 0, "velocity": 0, "duration": 65}, {"note": 67, "velocity": 112, "duration": 79}, {"note": 0, "velocity": 0, "duration": 81}, {"note": 71, "velocity": 122, "duration": 96}, {"note": 0, "velocity": 0, "duration": 64}, {"note": 69, "velocity": 117, "duration": 88}, {"note": 0, "velocity": 0, "duration": 72}, {"note": 67, "velocity": 99, "duration": 107}, {"note": 69, "velocity": 122, "duration": 56}, {"note": 0, "velocity": 0, "duration": 104}, {"note": 69, "velocity": 122, "duration": 70}, {"note": 0, "velocity": 0, "duration": 90}, {"note": 69, "velocity": 122, "duration": 72}, {"note": 0, "velocity": 0, "duration": 88}, {"note": 69, "velocity": 127, "duration": 84}, {"note": 0, "velocity": 0, "duration": 76}, {"note": 71, "velocity": 112, "duration": 147}, {"note": 74, "velocity": 112, "duration": 242}, {"note": 0, "velocity": 0, "duration": 78}, {"note": 67, "velocity": 117, "duration": 375}, {"note": 0, "velocity": 0, "duration": 265}, {"note": 71, "velocity": 117, "duration": 140}, {"note": 69, "velocity": 100, "duration": 89}, {"note": 0, "velocity": 0, "duration": 71}, {"note": 69, "velocity": 93, "duration": 81}, {"note": 0, "velocity": 0, "duration": 79}, {"note": 69, "velocity": 112, "duration": 77}, {"note": 0, "velocity": 0, "duration": 83}, {"note": 69, "velocity": 117, "duration": 136}, {"note": 66, "velocity": 122, "duration": 90}, {"note": 0, "velocity": 0, "duration": 70}, {"note": 62, "velocity": 107, "duration": 128}, {"note": 67, "velocity": 112, "duration": 495}, {"note": 0, "velocity": 0, "duration": 305}, {"note": 71, "velocity": 117, "duration": 141}, {"note": 69, "velocity": 112, "duration": 82}, {"note": 0, "velocity": 0, "duration": 78}, {"note": 69, "velocity": 102, "duration": 60}, {"note": 0, "velocity": 0, "duration": 100}, {"note": 69, "velocity": 107, "duration": 63}, {"note": 0, "velocity": 0, "duration": 97}, {"note": 69, "velocity": 112, "duration": 95}, {"note": 0, "velocity": 0, "duration": 65}, {"note": 74, "velocity": 127, "duration": 151}, {"note": 76, "velocity": 99, "duration": 202}, {"note": 0, "velocity": 0, "duration": 118}, {"note": 71, "velocity": 107, "duration": 285}, {"note": 0, "velocity": 0, "duration": 195}, {"note": 67, "velocity": 96, "duration": 113}, {"note": 69, "velocity": 107, "duration": 101}, {"note": 71, "velocity": 107, "duration": 175}, {"note": 0, "velocity": 0, "duration": 145}, {"note": 71, "velocity": 127, "duration": 75}, {"note": 0, "velocity": 0, "duration": 85}, {"note": 71, "velocity": 127, "duration": 77}, {"note": 0, "velocity": 0, "duration": 83}, {"note": 67, "velocity": 112, "duration": 90}, {"note": 0, "velocity": 0, "duration": 70}, {"note": 64, "velocity": 112, "duration": 75}, {"note": 0, "velocity": 0, "duration": 85}, {"note": 71, "velocity": 127, "duration": 76}, {"note": 0, "velocity": 0, "duration": 84}, {"note": 71, "velocity": 102, "duration": 68}, {"note": 0, "velocity": 0, "duration": 92}, {"note": 71, "velocity": 122, "duration": 60}, {"note": 0, "velocity": 0, "duration": 100}, {"note": 71, "velocity": 127, "duration": 75}, {"note": 0, "velocity": 0, "duration": 85}, {"note": 67, "velocity": 112, "duration": 129}, {"note": 64, "velocity": 112, "duration": 122}, {"note": 69, "velocity": 127, "duration": 772}, {"note": 0, "velocity": 0, "duration": 1148}, {"note": 71, "velocity": 117, "duration": 117}, {"note": 69, "velocity": 122, "duration": 95}, {"note": 0, "velocity": 0, "duration": 65}, {"note": 67, "velocity": 112, "duration": 79}, {"note": 0, "velocity": 0, "duration": 81}, {"note": 71, "velocity": 122, "duration": 96}, {"note": 0, "velocity": 0, "duration": 64}, {"note": 69, "velocity": 117, "duration": 88}, {"note": 0, "velocity": 0, "duration": 72}, {"note": 67, "velocity": 99, "duration": 107}, {"note": 69, "velocity": 122, "duration": 56}, {"note": 0, "velocity": 0, "duration": 104}, {"note": 69, "velocity": 122, "duration": 70}, {"note": 0, "velocity": 0, "duration": 90}, {"note": 69, "velocity": 122, "duration": 72}, {"note": 0, "velocity": 0, "duration": 88}, {"note": 69, "velocity": 127, "duration": 84}, {"note": 0, "velocity": 0, "duration": 76}, {"note": 69, "velocity": 112, "duration": 147}, {"note": 74, "velocity": 112, "duration": 242}, {"note": 0, "velocity": 0, "duration": 78}, {"note": 67, "velocity": 117, "duration": 375}, {"note": 0, "velocity": 0, "duration": 265}, {"note": 71, "velocity": 117, "duration": 140}, {"note": 69, "velocity": 100, "duration": 89}, {"note": 0, "velocity": 0, "duration": 71}, {"note": 69, "velocity": 93, "duration": 81}, {"note": 0, "velocity": 0, "duration": 79}, {"note": 69, "velocity": 112, "duration": 77}, {"note": 0, "velocity": 0, "duration": 83}, {"note": 69, "velocity": 117, "duration": 136}, {"note": 66, "velocity": 122, "duration": 90}, {"note": 0, "velocity": 0, "duration": 70}, {"note": 62, "velocity": 107, "duration": 128}, {"note": 67, "velocity": 112, "duration": 495}, {"note": 0, "velocity": 0, "duration": 305}, {"note": 71, "velocity": 117, "duration": 141}, {"note": 69, "velocity": 112, "duration": 82}, {"note": 0, "velocity": 0, "duration": 78}, {"note": 69, "velocity": 102, "duration": 60}, {"note": 0, "velocity": 0, "duration": 100}, {"note": 69, "velocity": 107, "duration": 63}, {"note": 0, "velocity": 0, "duration": 97}, {"note": 69, "velocity": 112, "duration": 95}, {"note": 0, "velocity": 0, "duration": 65}, {"note": 74, "velocity": 127, "duration": 151}, {"note": 76, "velocity": 99, "duration": 202}, {"note": 0, "velocity": 0, "duration": 118}, {"note": 71, "velocity": 107, "duration": 285}, {"note": 0, "velocity": 0, "duration": 195}, {"note": 67, "velocity": 96, "duration": 113}, {"note": 69, "velocity": 107, "duration": 101}, {"note": 71, "velocity": 107, "duration": 175}, {"note": 0, "velocity": 0, "duration": 145}, {"note": 71, "velocity": 127, "duration": 75}, {"note": 0, "velocity": 0, "duration": 85}, {"note": 71, "velocity": 127, "duration": 77}, {"note": 0, "velocity": 0, "duration": 83}, {"note": 67, "velocity": 112, "duration": 90}, {"note": 0, "velocity": 0, "duration": 70}, {"note": 64, "velocity": 112, "duration": 75}, {"note": 0, "velocity": 0, "duration": 85}, {"note": 71, "velocity": 122, "duration": 228}, {"note": 0, "velocity": 0, "duration": 92}, {"note": 71, "velocity": 117, "duration": 199}, {"note": 0, "velocity": 0, "duration": 121}, {"note": 67, "velocity": 102, "duration": 110}, {"note": 64, "velocity": 112, "duration": 136}, {"note": 69, "velocity": 112, "duration": 1159}, {"note": 0, "velocity": 0, "duration": 281}, {"note": 67, "velocity": 117, "duration": 73}, {"note": 0, "velocity": 0, "duration": 87}, {"note": 69, "velocity": 127, "duration": 299}, {"note": 0, "velocity": 0, "duration": 181}, {"note": 67, "velocity": 127, "duration": 862}, {"note": 0, "velocity": 0, "duration": 2658}, {"note": 62, "velocity": 96, "duration": 144}, {"note": 71, "velocity": 117, "duration": 117}, {"note": 69, "velocity": 122, "duration": 95}, {"note": 0, "velocity": 0, "duration": 65}, {"note": 67, "velocity": 112, "duration": 79}, {"note": 0, "velocity": 0, "duration": 81}, {"note": 71, "velocity": 122, "duration": 96}, {"note": 0, "velocity": 0, "duration": 64}, {"note": 69, "velocity": 117, "duration": 88}, {"note": 0, "velocity": 0, "duration": 72}, {"note": 67, "velocity": 99, "duration": 107}, {"note": 69, "velocity": 122, "duration": 56}, {"note": 0, "velocity": 0, "duration": 104}, {"note": 69, "velocity": 122, "duration": 70}, {"note": 0, "velocity": 0, "duration": 90}, {"note": 69, "velocity": 122, "duration": 72}, {"note": 0, "velocity": 0, "duration": 88}, {"note": 69, "velocity": 127, "duration": 84}, {"note": 0, "velocity": 0, "duration": 76}, {"note": 71, "velocity": 112, "duration": 147}, {"note": 74, "velocity": 112, "duration": 242}, {"note": 0, "velocity": 0, "duration": 78}, {"note": 67, "velocity": 117, "duration": 375}, {"note": 0, "velocity": 0, "duration": 265}, {"note": 71, "velocity": 117, "duration": 140}, {"note": 69, "velocity": 100, "duration": 89}, {"note": 0, "velocity": 0, "duration": 71}, {"note": 69, "velocity": 93, "duration": 81}, {"note": 0, "velocity": 0, "duration": 79}, {"note": 69, "velocity": 112, "duration": 77}, {"note": 0, "velocity": 0, "duration": 83}, {"note": 69, "velocity": 117, "duration": 136}, {"note": 66, "velocity": 122, "duration": 90}, {"note": 0, "velocity": 0, "duration": 70}, {"note": 62, "velocity": 107, "duration": 128}, {"note": 67, "velocity": 112, "duration": 495}, {"note": 0, "velocity": 0, "duration": 305}, {"note": 71, "velocity": 117, "duration": 141}, {"note": 69, "velocity": 112, "duration": 82}, {"note": 0, "velocity": 0, "duration": 78}, {"note": 69, "velocity": 102, "duration": 60}, {"note": 0, "velocity": 0, "duration": 100}, {"note": 69, "velocity": 107, "duration": 63}, {"note": 0, "velocity": 0, "duration": 97}, {"note": 69, "velocity": 112, "duration": 95}, {"note": 0, "velocity": 0, "duration": 65}, {"note": 74, "velocity": 127, "duration": 151}, {"note": 76, "velocity": 99, "duration": 202}, {"note": 0, "velocity": 0, "duration": 118}, {"note": 71, "velocity": 107, "duration": 285}, {"note": 0, "velocity": 0, "duration": 195}, {"note": 67, "velocity": 96, "duration": 113}, {"note": 69, "velocity": 107, "duration": 101}, {"note": 71, "velocity": 107, "duration": 175}, {"note": 0, "velocity": 0, "duration": 145}, {"note": 71, "velocity": 127, "duration": 75}, {"note": 0, "velocity": 0, "duration": 85}, {"note": 71, "velocity": 127, "duration": 77}, {"note": 0, "velocity": 0, "duration": 83}, {"note": 67, "velocity": 112, "duration": 90}, {"note": 0, "velocity": 0, "duration": 70}, {"note": 64, "velocity": 112, "duration": 75}, {"note": 0, "velocity": 0, "duration": 85}, {"note": 71, "velocity": 127, "duration": 76}, {"note": 0, "velocity": 0, "duration": 84}, {"note": 71, "velocity": 102, "duration": 68}, {"note": 0, "velocity": 0, "duration": 92}, {"note": 71, "velocity": 122, "duration": 60}, {"note": 0, "velocity": 0, "duration": 100}, {"note": 71, "velocity": 127, "duration": 75}, {"note": 0, "velocity": 0, "duration": 85}, {"note": 67, "velocity": 112, "duration": 129}, {"note": 64, "velocity": 112, "duration": 122}, {"note": 69, "velocity": 127, "duration": 772}, {"note": 0, "velocity": 0, "duration": 1148}, {"note": 71, "velocity": 117, "duration": 117}, {"note": 69, "velocity": 122, "duration": 95}, {"note": 0, "velocity": 0, "duration": 65}, {"note": 67, "velocity": 112, "duration": 79}, {"note": 0, "velocity": 0, "duration": 81}, {"note": 71, "velocity": 122, "duration": 96}, {"note": 0, "velocity": 0, "duration": 64}, {"note": 69, "velocity": 117, "duration": 88}, {"note": 0, "velocity": 0, "duration": 72}, {"note": 67, "velocity": 99, "duration": 107}, {"note": 69, "velocity": 122, "duration": 56}, {"note": 0, "velocity": 0, "duration": 104}, {"note": 69, "velocity": 122, "duration": 70}, {"note": 0, "velocity": 0, "duration": 90}, {"note": 69, "velocity": 122, "duration": 72}, {"note": 0, "velocity": 0, "duration": 88}, {"note": 69, "velocity": 127, "duration": 84}, {"note": 0, "velocity": 0, "duration": 76}, {"note": 69, "velocity": 112, "duration": 147}, {"note": 74, "velocity": 112, "duration": 242}, {"note": 0, "velocity": 0, "duration": 78}, {"note": 67, "velocity": 117, "duration": 375}, {"note": 0, "velocity": 0, "duration": 265}, {"note": 71, "velocity": 117, "duration": 140}, {"note": 69, "velocity": 100, "duration": 89}, {"note": 0, "velocity": 0, "duration": 71}, {"note": 69, "velocity": 93, "duration": 81}, {"note": 0, "velocity": 0, "duration": 79}, {"note": 69, "velocity": 112, "duration": 77}, {"note": 0, "velocity": 0, "duration": 83}, {"note": 69, "velocity": 117, "duration": 136}, {"note": 66, "velocity": 122, "duration": 90}, {"note": 0, "velocity": 0, "duration": 70}, {"note": 62, "velocity": 107, "duration": 128}, {"note": 67, "velocity": 112, "duration": 495}, {"note": 0, "velocity": 0, "duration": 305}, {"note": 71, "velocity": 117, "duration": 141}, {"note": 69, "velocity": 112, "duration": 82}, {"note": 0, "velocity": 0, "duration": 78}, {"note": 69, "velocity": 102, "duration": 60}, {"note": 0, "velocity": 0, "duration": 100}, {"note": 69, "velocity": 107, "duration": 63}, {"note": 0, "velocity": 0, "duration": 97}, {"note": 69, "velocity": 112, "duration": 95}, {"note": 0, "velocity": 0, "duration": 65}, {"note": 74, "velocity": 127, "duration": 151}, {"note": 76, "velocity": 99, "duration": 202}, {"note": 0, "velocity": 0, "duration": 118}, {"note": 71, "velocity": 107, "duration": 285}, {"note": 0, "velocity": 0, "duration": 195}, {"note": 67, "velocity": 96, "duration": 113}, {"note": 69, "velocity": 107, "duration": 101}, {"note": 71, "velocity": 107, "duration": 175}, {"note": 0, "velocity": 0, "duration": 145}, {"note": 71, "velocity": 127, "duration": 75}, {"note": 0, "velocity": 0, "duration": 85}, {"note": 71, "velocity": 127, "duration": 77}, {"note": 0, "velocity": 0, "duration": 83}, {"note": 67, "velocity": 112, "duration": 90}, {"note": 0, "velocity": 0, "duration": 70}, {"note": 64, "velocity": 112, "duration": 75}, {"note": 0, "velocity": 0, "duration": 85}, {"note": 71, "velocity": 122, "duration": 228}, {"note": 0, "velocity": 0, "duration": 92}, {"note": 71, "velocity": 117, "duration": 199}, {"note": 0, "velocity": 0, "duration": 121}, {"note": 67, "velocity": 102, "duration": 110}, {"note": 64, "velocity": 112, "duration": 136}, {"note": 69, "velocity": 112, "duration": 1159}, {"note": 0, "velocity": 0, "duration": 281}, {"note": 67, "velocity": 117, "duration": 73}, {"note": 0, "velocity": 0, "duration": 87}, {"note": 69, "velocity": 127, "duration": 299}, {"note": 0, "velocity": 0, "duration": 181}, {"note": 67, "velocity": 127, "duration": 862}]]