[[{"note": 63, "velocity": 127, "duration": 175}, {"note": 0, "velocity": 0, "duration": 65}, {"note": 65, "velocity": 122, "duration": 161}, {"note": 0, "velocity": 0, "duration": 79}, {"note": 67, "velocity": 127, "duration": 435}, {"note": 0, "velocity": 0, "duration": 285}, {"note": 67, "velocity": 112, "duration": 197}, {"note": 65, "velocity": 117, "duration": 238}, {"note": 0, "velocity": 0, "duration": 242}, {"note": 63, "velocity": 127, "duration": 210}, {"note": 62, "velocity": 107, "duration": 252}, {"note": 63, "velocity": 127, "duration": 253}, {"note": 63, "velocity": 127, "duration": 13}, {"note": 0, "velocity": 0, "duration": 227}, {"note": 63, "velocity": 122, "duration": 155}, {"note": 0, "velocity": 0, "duration": 85}, {"note": 65, "velocity": 117, "duration": 170}, {"note": 0, "velocity": 0, "duration": 70}, {"note": 67, "velocity": 127, "duration": 326}, {"note": 0, "velocity": 0, "duration": 154}, {"note": 65, "velocity": 122, "duration": 134}, {"note": 0, "velocity": 0, "duration": 106}, {"note": 67, "velocity": 127, "duration": 95}, {"note": 0, "velocity": 0, "duration": 145}, {"note": 68, "velocity": 127, "duration": 334}, {"note": 0, "velocity": 0, "duration": 386}, {"note": 68, "velocity": 122, "duration": 162}, {"note": 0, "velocity": 0, "duration": 78}, {"note": 67, "velocity": 127, "duration": 315}, {"note": 0, "velocity": 0, "duration": 165}, {"note": 65, "velocity": 127, "duration": 179}, {"note": 0, "velocity": 0, "duration": 61}, {"note": 67, "velocity": 127, "duration": 134}, {"note": 0, "velocity": 0, "duration": 106}, {"note": 67, "velocity": 127, "duration": 136}, {"note": 0, "velocity": 0, "duration": 104}, {"note": 65, "velocity": 122, "duration": 152}, {"note": 0, "velocity": 0, "duration": 88}, {"note": 65, "velocity": 112, "duration": 114}, {"note": 0, "velocity": 0, "duration": 126}, {"note": 60, "velocity": 100, "duration": 96}, {"note": 0, "velocity": 0, "duration": 144}, {"note": 63, "velocity": 127, "duration": 364}, {"note": 0, "velocity": 0, "duration": 116}, {"note": 65, "velocity": 117, "duration": 149}, {"note": 0, "velocity": 0, "duration": 331}, {"note": 67, "velocity": 127, "duration": 230}, {"note": 0, "velocity": 0, "duration": 250}, {"note": 58, "velocity": 122, "duration": 185}, {"note": 67, "velocity": 112, "duration": 180}, {"note": 65, "velocity": 127, "duration": 292}, {"note": 0, "velocity": 0, "duration": 188}, {"note": 63, "velocity": 127, "duration": 77}, {"note": 0, "velocity": 0, "duration": 163}, {"note": 62, "velocity": 100, "duration": 70}, {"note": 0, "velocity": 0, "duration": 170}, {"note": 63, "velocity": 127, "duration": 145}, {"note": 0, "velocity": 0, "duration": 95}, {"note": 63, "velocity": 127, "duration": 103}, {"note": 0, "velocity": 0, "duration": 137}, {"note": 63, "velocity": 127, "duration": 115}, {"note": 0, "velocity": 0, "duration": 125}, {"note": 65, "velocity": 122, "duration": 122}, {"note": 0, "velocity": 0, "duration": 118}, {"note": 67, "velocity": 127, "duration": 306}, {"note": 0, "velocity": 0, "duration": 174}, {"note": 65, "velocity": 102, "duration": 89}, {"note": 0, "velocity": 0, "duration": 151}, {"note": 67, "velocity": 117, "duration": 129}, {"note": 0, "velocity": 0, "duration": 111}, {"note": 68, "velocity": 127, "duration": 304}, {"note": 0, "velocity": 0, "duration": 336}, {"note": 68, "velocity": 127, "duration": 147}, {"note": 0, "velocity": 0, "duration": 173}, {"note": 67, "velocity": 127, "duration": 251}, {"note": 65, "velocity": 112, "duration": 109}, {"note": 0, "velocity": 0, "duration": 131}, {"note": 63, "velocity": 112, "duration": 126}, {"note": 0, "velocity": 0, "duration": 114}, {"note": 67, "velocity": 127, "duration": 114}, {"note": 0, "velocity": 0, "duration": 126}, {"note": 68, "velocity": 127, "duration": 219}, {"note": 0, "velocity": 0, "duration": 261}, {"note": 62, "velocity": 127, "duration": 254}, {"note": 0, "velocity": 0, "duration": 226}, {"note": 63, "velocity": 127, "duration": 935}, {"note": 0, "velocity": 0, "duration": 265}, {"note": 67, "velocity": 100, "duration": 104}, {"note": 0, "velocity": 0, "duration": 136}, {"note": 67, "velocity": 102, "duration": 124}, {"note": 0, "velocity": 0, "duration": 116}, {"note": 63, "velocity": 102, "duration": 66}, {"note": 65, "velocity": 100, "duration": 264}, {"note": 0, "velocity": 0, "duration": 96}, {"note": 65, "velocity": 99, "duration": 102}, {"note": 0, "velocity": 0, "duration": 138}, {"note": 65, "velocity": 102, "duration": 97}, {"note": 0, "velocity": 0, "duration": 143}, {"note": 62, "velocity": 96, "duration": 63}, {"note": 63, "velocity": 127, "duration": 314}, {"note": 67, "velocity": 117, "duration": 96}, {"note": 0, "velocity": 0, "duration": 144}, {"note": 67, "velocity": 96, "duration": 103}, {"note": 0, "velocity": 0, "duration": 137}, {"note": 63, "velocity": 117, "duration": 70}, {"note": 65, "velocity": 107, "duration": 260}, {"note": 0, "velocity": 0, "duration": 100}, {"note": 65, "velocity": 107, "duration": 98}, {"note": 0, "velocity": 0, "duration": 142}, {"note": 65, "velocity": 102, "duration": 99}, {"note": 0, "velocity": 0, "duration": 141}, {"note": 62, "velocity": 102, "duration": 58}, {"note": 0, "velocity": 0, "duration": 62}, {"note": 63, "velocity": 122, "duration": 247}, {"note": 0, "velocity": 0, "duration": 113}, {"note": 63, "velocity": 127, "duration": 90}, {"note": 0, "velocity": 0, "duration": 150}, {"note": 63, "velocity": 127, "duration": 96}, {"note": 0, "velocity": 0, "duration": 144}, {"note": 65, "velocity": 102, "duration": 85}, {"note": 63, "velocity": 112, "duration": 249}, {"note": 0, "velocity": 0, "duration": 111}, {"note": 58, "velocity": 122, "duration": 104}, {"note": 0, "velocity": 0, "duration": 136}, {"note": 63, "velocity": 127, "duration": 163}, {"note": 0, "velocity": 0, "duration": 77}, {"note": 62, "velocity": 112, "duration": 162}, {"note": 0, "velocity": 0, "duration": 78}, {"note": 60, "velocity": 112, "duration": 164}, {"note": 0, "velocity": 0, "duration": 316}, {"note": 67, "velocity": 127, "duration": 413}, {"note": 0, "velocity": 0, "duration": 67}, {"note": 65, "velocity": 127, "duration": 186}, {"note": 0, "velocity": 0, "duration": 294}, {"note": 63, "velocity": 127, "duration": 154}, {"note": 0, "velocity": 0, "duration": 86}, {"note": 65, "velocity": 127, "duration": 177}, {"note": 0, "velocity": 0, "duration": 303}, {"note": 67, "velocity": 127, "duration": 100}, {"note": 0, "velocity": 0, "duration": 140}, {"note": 67, "velocity": 127, "duration": 92}, {"note": 0, "velocity": 0, "duration": 148}, {"note": 63, "velocity": 127, "duration": 75}, {"note": 65, "velocity": 127, "duration": 264}, {"note": 0, "velocity": 0, "duration": 96}, {"note": 65, "velocity": 127, "duration": 45}, {"note": 0, "velocity": 0, "duration": 75}, {"note": 65, "velocity": 85, "duration": 48}, {"note": 0, "velocity": 0, "duration": 72}, {"note": 65, "velocity": 107, "duration": 73}, {"note": 0, "velocity": 0, "duration": 167}, {"note": 62, "velocity": 112, "duration": 74}, {"note": 63, "velocity": 127, "duration": 116}, {"note": 0, "velocity": 0, "duration": 244}, {"note": 67, "velocity": 100, "duration": 127}, {"note": 0, "velocity": 0, "duration": 113}, {"note": 67, "velocity": 107, "duration": 110}, {"note": 0, "velocity": 0, "duration": 130}, {"note": 63, "velocity": 127, "duration": 77}, {"note": 65, "velocity": 112, "duration": 170}, {"note": 0, "velocity": 0, "duration": 190}, {"note": 65, "velocity": 127, "duration": 95}, {"note": 0, "velocity": 0, "duration": 145}, {"note": 65, "velocity": 107, "duration": 90}, {"note": 0, "velocity": 0, "duration": 150}, {"note": 62, "velocity": 99, "duration": 63}, {"note": 63, "velocity": 122, "duration": 157}, {"note": 0, "velocity": 0, "duration": 203}, {"note": 63, "velocity": 127, "duration": 107}, {"note": 0, "velocity": 0, "duration": 133}, {"note": 63, "velocity": 122, "duration": 135}, {"note": 0, "velocity": 0, "duration": 105}, {"note": 65, "velocity": 107, "duration": 130}, {"note": 0, "velocity": 0, "duration": 110}, {"note": 63, "velocity": 122, "duration": 154}, {"note": 0, "velocity": 0, "duration": 86}, {"note": 58, "velocity": 127, "duration": 155}, {"note": 0, "velocity": 0, "duration": 85}, {"note": 63, "velocity": 127, "duration": 162}, {"note": 0, "velocity": 0, "duration": 78}, {"note": 60, "velocity": 117, "duration": 132}, {"note": 0, "velocity": 0, "duration": 108}, {"note": 60, "velocity": 127, "duration": 181}, {"note": 0, "velocity": 0, "duration": 299}, {"note": 67, "velocity": 122, "duration": 354}, {"note": 0, "velocity": 0, "duration": 126}, {"note": 65, "velocity": 127, "duration": 139}, {"note": 0, "velocity": 0, "duration": 341}, {"note": 63, "velocity": 127, "duration": 122}, {"note": 0, "velocity": 0, "duration": 118}, {"note": 62, "velocity": 117, "duration": 144}, {"note": 0, "velocity": 0, "duration": 96}, {"note": 60, "velocity": 127, "duration": 168}, {"note": 0, "velocity": 0, "duration": 312}, {"note": 60, "velocity": 112, "duration": 96}, {"note": 0, "velocity": 0, "duration": 144}, {"note": 63, "velocity": 122, "duration": 91}, {"note": 0, "velocity": 0, "duration": 149}, {"note": 62, "velocity": 127, "duration": 175}, {"note": 0, "velocity": 0, "duration": 305}, {"note": 62, "velocity": 127, "duration": 144}, {"note": 0, "velocity": 0, "duration": 96}, {"note": 60, "velocity": 112, "duration": 150}, {"note": 0, "velocity": 0, "duration": 90}, {"note": 58, "velocity": 127, "duration": 176}, {"note": 0, "velocity": 0, "duration": 304}, {"note": 58, "velocity": 127, "duration": 178}, {"note": 0, "velocity": 0, "duration": 62}, {"note": 65, "velocity": 122, "duration": 165}, {"note": 0, "velocity": 0, "duration": 75}, {"note": 63, "velocity": 127, "duration": 184}, {"note": 0, "velocity": 0, "duration": 296}, {"note": 60, "velocity": 117, "duration": 163}, {"note": 0, "velocity": 0, "duration": 77}, {"note": 55, "velocity": 102, "duration": 173}, {"note": 0, "velocity": 0, "duration": 67}, {"note": 56, "velocity": 127, "duration": 168}, {"note": 0, "velocity": 0, "duration": 312}, {"note": 56, "velocity": 107, "duration": 165}, {"note": 0, "velocity": 0, "duration": 75}, {"note": 63, "velocity": 117, "duration": 58}, {"note": 0, "velocity": 0, "duration": 62}, {"note": 63, "velocity": 122, "duration": 227}, {"note": 0, "velocity": 0, "duration": 133}, {"note": 62, "velocity": 107, "duration": 89}, {"note": 0, "velocity": 0, "duration": 151}, {"note": 62, "velocity": 127, "duration": 123}, {"note": 0, "velocity": 0, "duration": 117}, {"note": 60, "velocity": 122, "duration": 184}, {"note": 0, "velocity": 0, "duration": 296}, {"note": 58, "velocity": 117, "duration": 869}, {"note": 0, "velocity": 0, "duration": 331}, {"note": 63, "velocity": 127, "duration": 151}, {"note": 0, "velocity": 0, "duration": 89}, {"note": 62, "velocity": 122, "duration": 125}, {"note": 0, "velocity": 0, "duration": 115}, {"note": 60, "velocity": 112, "duration": 210}, {"note": 0, "velocity": 0, "duration": 270}, {"note": 60, "velocity": 122, "duration": 140}, {"note": 0, "velocity": 0, "duration": 100}, {"note": 63, "velocity": 127, "duration": 136}, {"note": 0, "velocity": 0, "duration": 104}, {"note": 62, "velocity": 127, "duration": 297}, {"note": 0, "velocity": 0, "duration": 183}, {"note": 62, "velocity": 117, "duration": 142}, {"note": 0, "velocity": 0, "duration": 98}, {"note": 60, "velocity": 112, "duration": 131}, {"note": 0, "velocity": 0, "duration": 109}, {"note": 58, "velocity": 127, "duration": 170}, {"note": 0, "velocity": 0, "duration": 310}, {"note": 65, "velocity": 122, "duration": 372}, {"note": 0, "velocity": 0, "duration": 108}, {"note": 63, "velocity": 127, "duration": 194}, {"note": 0, "velocity": 0, "duration": 286}, {"note": 60, "velocity": 112, "duration": 135}, {"note": 0, "velocity": 0, "duration": 105}, {"note": 62, "velocity": 127, "duration": 81}, {"note": 63, "velocity": 122, "duration": 227}, {"note": 0, "velocity": 0, "duration": 133}, {"note": 63, "velocity": 127, "duration": 104}, {"note": 0, "velocity": 0, "duration": 136}, {"note": 63, "velocity": 127, "duration": 87}, {"note": 0, "velocity": 0, "duration": 153}, {"note": 62, "velocity": 127, "duration": 99}, {"note": 0, "velocity": 0, "duration": 141}, {"note": 63, "velocity": 127, "duration": 137}, {"note": 0, "velocity": 0, "duration": 103}, {"note": 65, "velocity": 127, "duration": 163}, {"note": 0, "velocity": 0, "duration": 77}, {"note": 67, "velocity": 122, "duration": 71}, {"note": 0, "velocity": 0, "duration": 169}, {"note": 67, "velocity": 127, "duration": 429}, {"note": 68, "velocity": 127, "duration": 79}, {"note": 0, "velocity": 0, "duration": 161}, {"note": 67, "velocity": 127, "duration": 203}, {"note": 65, "velocity": 127, "duration": 603}, {"note": 0, "velocity": 0, "duration": 117}, {"note": 63, "velocity": 127, "duration": 148}, {"note": 0, "velocity": 0, "duration": 92}, {"note": 65, "velocity": 112, "duration": 138}, {"note": 0, "velocity": 0, "duration": 102}, {"note": 67, "velocity": 127, "duration": 263}, {"note": 0, "velocity": 0, "duration": 457}, {"note": 67, "velocity": 122, "duration": 153}, {"note": 0, "velocity": 0, "duration": 87}, {"note": 65, "velocity": 117, "duration": 178}, {"note": 0, "velocity": 0, "duration": 302}, {"note": 63, "velocity": 127, "duration": 124}, {"note": 0, "velocity": 0, "duration": 116}, {"note": 62, "velocity": 100, "duration": 123}, {"note": 0, "velocity": 0, "duration": 117}, {"note": 63, "velocity": 127, "duration": 182}, {"note": 63, "velocity": 117, "duration": 121}, {"note": 0, "velocity": 0, "duration": 119}, {"note": 63, "velocity": 127, "duration": 127}, {"note": 0, "velocity": 0, "duration": 113}, {"note": 65, "velocity": 117, "duration": 148}, {"note": 0, "velocity": 0, "duration": 92}, {"note": 67, "velocity": 127, "duration": 213}, {"note": 0, "velocity": 0, "duration": 267}, {"note": 65, "velocity": 122, "duration": 103}, {"note": 0, "velocity": 0, "duration": 137}, {"note": 67, "velocity": 127, "duration": 100}, {"note": 0, "velocity": 0, "duration": 140}, {"note": 68, "velocity": 127, "duration": 253}, {"note": 0, "velocity": 0, "duration": 467}, {"note": 68, "velocity": 127, "duration": 117}, {"note": 0, "velocity": 0, "duration": 123}, {"note": 67, "velocity": 122, "duration": 253}, {"note": 0, "velocity": 0, "duration": 227}, {"note": 65, "velocity": 117, "duration": 171}, {"note": 0, "velocity": 0, "duration": 69}, {"note": 67, "velocity": 127, "duration": 105}, {"note": 0, "velocity": 0, "duration": 135}, {"note": 67, "velocity": 127, "duration": 119}, {"note": 0, "velocity": 0, "duration": 121}, {"note": 65, "velocity": 99, "duration": 124}, {"note": 0, "velocity": 0, "duration": 116}, {"note": 65, "velocity": 99, "duration": 111}, {"note": 0, "velocity": 0, "duration": 129}, {"note": 60, "velocity": 102, "duration": 111}, {"note": 0, "velocity": 0, "duration": 129}, {"note": 63, "velocity": 127, "duration": 225}, {"note": 0, "velocity": 0, "duration": 255}, {"note": 65, "velocity": 127, "duration": 138}, {"note": 0, "velocity": 0, "duration": 342}, {"note": 67, "velocity": 122, "duration": 170}, {"note": 0, "velocity": 0, "duration": 310}, {"note": 58, "velocity": 122, "duration": 72}, {"note": 0, "velocity": 0, "duration": 168}, {"note": 67, "velocity": 112, "duration": 163}, {"note": 0, "velocity": 0, "duration": 77}, {"note": 65, "velocity": 127, "duration": 243}, {"note": 0, "velocity": 0, "duration": 237}, {"note": 63, "velocity": 127, "duration": 112}, {"note": 0, "velocity": 0, "duration": 128}, {"note": 62, "velocity": 107, "duration": 112}, {"note": 0, "velocity": 0, "duration": 128}, {"note": 63, "velocity": 127, "duration": 152}, {"note": 0, "velocity": 0, "duration": 88}, {"note": 63, "velocity": 122, "duration": 72}, {"note": 0, "velocity": 0, "duration": 168}, {"note": 63, "velocity": 127, "duration": 79}, {"note": 65, "velocity": 107, "duration": 147}, {"note": 0, "velocity": 0, "duration": 93}, {"note": 67, "velocity": 127, "duration": 227}, {"note": 0, "velocity": 0, "duration": 373}, {"note": 65, "velocity": 112, "duration": 95}, {"note": 0, "velocity": 0, "duration": 145}, {"note": 67, "velocity": 122, "duration": 111}, {"note": 0, "velocity": 0, "duration": 129}, {"note": 68, "velocity": 102, "duration": 252}, {"note": 0, "velocity": 0, "duration": 468}, {"note": 68, "velocity": 127, "duration": 124}, {"note": 0, "velocity": 0, "duration": 116}, {"note": 67, "velocity": 122, "duration": 128}, {"note": 0, "velocity": 0, "duration": 112}, {"note": 65, "velocity": 117, "duration": 134}, {"note": 0, "velocity": 0, "duration": 106}, {"note": 63, "velocity": 122, "duration": 100}, {"note": 0, "velocity": 0, "duration": 140}, {"note": 67, "velocity": 127, "duration": 139}, {"note": 0, "velocity": 0, "duration": 101}, {"note": 68, "velocity": 127, "duration": 245}, {"note": 0, "velocity": 0, "duration": 235}, {"note": 62, "velocity": 127, "duration": 155}, {"note": 0, "velocity": 0, "duration": 325}, {"note": 63, "velocity": 127, "duration": 1079}, {"note": 0, "velocity": 0, "duration": 121}, {"note": 67, "velocity": 100, "duration": 104}, {"note": 0, "velocity": 0, "duration": 136}, {"note": 67, "velocity": 102, "duration": 124}, {"note": 0, "velocity": 0, "duration": 116}, {"note": 63, "velocity": 102, "duration": 66}, {"note": 65, "velocity": 100, "duration": 264}, {"note": 0, "velocity": 0, "duration": 96}, {"note": 65, "velocity": 99, "duration": 102}, {"note": 0, "velocity": 0, "duration": 138}, {"note": 65, "velocity": 102, "duration": 97}, {"note": 0, "velocity": 0, "duration": 143}, {"note": 62, "velocity": 96, "duration": 63}, {"note": 63, "velocity": 127, "duration": 314}, {"note": 67, "velocity": 117, "duration": 96}, {"note": 0, "velocity": 0, "duration": 144}, {"note": 67, "velocity": 96, "duration": 103}, {"note": 0, "velocity": 0, "duration": 137}, {"note": 63, "velocity": 117, "duration": 70}, {"note": 65, "velocity": 107, "duration": 260}, {"note": 0, "velocity": 0, "duration": 100}, {"note": 65, "velocity": 107, "duration": 98}, {"note": 0, "velocity": 0, "duration": 142}, {"note": 65, "velocity": 102, "duration": 99}, {"note": 0, "velocity": 0, "duration": 141}, {"note": 62, "velocity": 102, "duration": 58}, {"note": 0, "velocity": 0, "duration": 62}, {"note": 63, "velocity": 122, "duration": 247}, {"note": 0, "velocity": 0, "duration": 113}, {"note": 63, "velocity": 127, "duration": 90}, {"note": 0, "velocity": 0, "duration": 150}, {"note": 63, "velocity": 127, "duration": 96}, {"note": 0, "velocity": 0, "duration": 144}, {"note": 65, "velocity": 102, "duration": 85}, {"note": 63, "velocity": 112, "duration": 249}, {"note": 0, "velocity": 0, "duration": 111}, {"note": 58, "velocity": 122, "duration": 104}, {"note": 0, "velocity": 0, "duration": 136}, {"note": 63, "velocity": 127, "duration": 163}, {"note": 0, "velocity": 0, "duration": 77}, {"note": 62, "velocity": 112, "duration": 162}, {"note": 0, "velocity": 0, "duration": 78}, {"note": 60, "velocity": 112, "duration": 164}, {"note": 0, "velocity": 0, "duration": 316}, {"note": 67, "velocity": 127, "duration": 413}, {"note": 0, "velocity": 0, "duration": 67}, {"note": 65, "velocity": 127, "duration": 186}, {"note": 0, "velocity": 0, "duration": 294}, {"note": 63, "velocity": 127, "duration": 154}, {"note": 0, "velocity": 0, "duration": 86}, {"note": 65, "velocity": 127, "duration": 177}, {"note": 0, "velocity": 0, "duration": 303}, {"note": 67, "velocity": 127, "duration": 100}, {"note": 0, "velocity": 0, "duration": 140}, {"note": 67, "velocity": 127, "duration": 92}, {"note": 0, "velocity": 0, "duration": 148}, {"note": 63, "velocity": 127, "duration": 75}, {"note": 65, "velocity": 127, "duration": 264}, {"note": 0, "velocity": 0, "duration": 96}, {"note": 65, "velocity": 127, "duration": 45}, {"note": 0, "velocity": 0, "duration": 75}, {"note": 65, "velocity": 85, "duration": 48}, {"note": 0, "velocity": 0, "duration": 72}, {"note": 65, "velocity": 107, "duration": 73}, {"note": 0, "velocity": 0, "duration": 167}, {"note": 62, "velocity": 112, "duration": 74}, {"note": 63, "velocity": 127, "duration": 116}, {"note": 0, "velocity": 0, "duration": 244}, {"note": 67, "velocity": 100, "duration": 127}, {"note": 0, "velocity": 0, "duration": 113}, {"note": 67, "velocity": 107, "duration": 110}, {"note": 0, "velocity": 0, "duration": 130}, {"note": 63, "velocity": 127, "duration": 77}, {"note": 65, "velocity": 112, "duration": 170}, {"note": 0, "velocity": 0, "duration": 190}, {"note": 65, "velocity": 127, "duration": 95}, {"note": 0, "velocity": 0, "duration": 145}, {"note": 65, "velocity": 107, "duration": 90}, {"note": 0, "velocity": 0, "duration": 150}, {"note": 62, "velocity": 99, "duration": 63}, {"note": 63, "velocity": 122, "duration": 157}, {"note": 0, "velocity": 0, "duration": 203}, {"note": 63, "velocity": 127, "duration": 107}, {"note": 0, "velocity": 0, "duration": 133}, {"note": 63, "velocity": 122, "duration": 135}, {"note": 0, "velocity": 0, "duration": 105}, {"note": 65, "velocity": 107, "duration": 130}, {"note": 0, "velocity": 0, "duration": 110}, {"note": 63, "velocity": 122, "duration": 154}, {"note": 0, "velocity": 0, "duration": 86}, {"note": 58, "velocity": 127, "duration": 155}, {"note": 0, "velocity": 0, "duration": 85}, {"note": 63, "velocity": 127, "duration": 162}, {"note": 0, "velocity": 0, "duration": 78}, {"note": 60, "velocity": 117, "duration": 132}, {"note": 0, "velocity": 0, "duration": 108}, {"note": 60, "velocity": 127, "duration": 181}, {"note": 0, "velocity": 0, "duration": 299}, {"note": 67, "velocity": 122, "duration": 354}, {"note": 0, "velocity": 0, "duration": 126}, {"note": 65, "velocity": 127, "duration": 139}, {"note": 0, "velocity": 0, "duration": 341}, {"note": 63, "velocity": 127, "duration": 122}, {"note": 0, "velocity": 0, "duration": 118}, {"note": 62, "velocity": 117, "duration": 144}, {"note": 0, "velocity": 0, "duration": 96}, {"note": 60, "velocity": 127, "duration": 168}, {"note": 0, "velocity": 0, "duration": 312}, {"note": 60, "velocity": 112, "duration": 96}, {"note": 0, "velocity": 0, "duration": 144}, {"note": 63, "velocity": 122, "duration": 91}, {"note": 0, "velocity": 0, "duration": 149}, {"note": 62, "velocity": 127, "duration": 175}, {"note": 0, "velocity": 0, "duration": 305}, {"note": 62, "velocity": 127, "duration": 144}, {"note": 0, "velocity": 0, "duration": 96}, {"note": 60, "velocity": 112, "duration": 150}, {"note": 0, "velocity": 0, "duration": 90}, {"note": 58, "velocity": 127, "duration": 176}, {"note": 0, "velocity": 0, "duration": 304}, {"note": 58, "velocity": 127, "duration": 178}, {"note": 0, "velocity": 0, "duration": 62}, {"note": 65, "velocity": 122, "duration": 165}, {"note": 0, "velocity": 0, "duration": 75}, {"note": 63, "velocity": 127, "duration": 184}, {"note": 0, "velocity": 0, "duration": 296}, {"note": 60, "velocity": 117, "duration": 163}, {"note": 0, "velocity": 0, "duration": 77}, {"note": 55, "velocity": 102, "duration": 173}, {"note": 0, "velocity": 0, "duration": 67}, {"note": 56, "velocity": 127, "duration": 168}, {"note": 0, "velocity": 0, "duration": 312}, {"note": 56, "velocity": 107, "duration": 165}, {"note": 0, "velocity": 0, "duration": 75}, {"note": 63, "velocity": 117, "duration": 58}, {"note": 0, "velocity": 0, "duration": 62}, {"note": 63, "velocity": 122, "duration": 227}, {"note": 0, "velocity": 0, "duration": 133}, {"note": 62, "velocity": 107, "duration": 89}, {"note": 0, "velocity": 0, "duration": 151}, {"note": 62, "velocity": 127, "duration": 123}, {"note": 0, "velocity": 0, "duration": 117}, {"note": 60, "velocity": 122, "duration": 184}, {"note": 0, "velocity": 0, "duration": 296}, {"note": 58, "velocity": 117, "duration": 869}, {"note": 0, "velocity": 0, "duration": 331}, {"note": 63, "velocity": 127, "duration": 151}, {"note": 0, "velocity": 0, "duration": 89}, {"note": 62, "velocity": 122, "duration": 125}, {"note": 0, "velocity": 0, "duration": 115}, {"note": 60, "velocity": 112, "duration": 210}, {"note": 0, "velocity": 0, "duration": 270}, {"note": 60, "velocity": 122, "duration": 140}, {"note": 0, "velocity": 0, "duration": 100}, {"note": 63, "velocity": 127, "duration": 136}, {"note": 0, "velocity": 0, "duration": 104}, {"note": 62, "velocity": 127, "duration": 297}, {"note": 0, "velocity": 0, "duration": 183}, {"note": 62, "velocity": 117, "duration": 142}, {"note": 0, "velocity": 0, "duration": 98}, {"note": 60, "velocity": 112, "duration": 131}, {"note": 0, "velocity": 0, "duration": 109}, {"note": 58, "velocity": 127, "duration": 170}, {"note": 0, "velocity": 0, "duration": 310}, {"note": 65, "velocity": 122, "duration": 372}, {"note": 0, "velocity": 0, "duration": 108}, {"note": 63, "velocity": 127, "duration": 194}, {"note": 0, "velocity": 0, "duration": 286}, {"note": 60, "velocity": 112, "duration": 135}, {"note": 0, "velocity": 0, "duration": 105}, {"note": 62, "velocity": 127, "duration": 81}, {"note": 63, "velocity": 122, "duration": 227}, {"note": 0, "velocity": 0, "duration": 133}, {"note": 63, "velocity": 127, "duration": 104}, {"note": 0, "velocity": 0, "duration": 136}, {"note": 63, "velocity": 127, "duration": 87}, {"note": 0, "velocity": 0, "duration": 153}, {"note": 62, "velocity": 127, "duration": 99}, {"note": 0, "velocity": 0, "duration": 141}, {"note": 63, "velocity": 127, "duration": 137}, {"note": 0, "velocity": 0, "duration": 103}, {"note": 65, "velocity": 127, "duration": 163}, {"note": 0, "velocity": 0, "duration": 77}, {"note": 67, "velocity": 122, "duration": 71}, {"note": 0, "velocity": 0, "duration": 169}, {"note": 67, "velocity": 127, "duration": 429}, {"note": 68, "velocity": 127, "duration": 79}, {"note": 0, "velocity": 0, "duration": 161}, {"note": 67, "velocity": 127, "duration": 203}, {"note": 65, "velocity": 127, "duration": 603}, {"note": 0, "velocity": 0, "duration": 117}, {"note": 63, "velocity": 127, "duration": 148}, {"note": 0, "velocity": 0, "duration": 92}, {"note": 65, "velocity": 112, "duration": 138}, {"note": 0, "velocity": 0, "duration": 102}, {"note": 67, "velocity": 127, "duration": 263}, {"note": 0, "velocity": 0, "duration": 457}, {"note": 67, "velocity": 122, "duration": 153}, {"note": 0, "velocity": 0, "duration": 87}, {"note": 65, "velocity": 117, "duration": 178}, {"note": 0, "velocity": 0, "duration": 302}, {"note": 63, "velocity": 127, "duration": 124}, {"note": 0, "velocity": 0, "duration": 116}, {"note": 62, "velocity": 100, "duration": 123}, {"note": 0, "velocity": 0, "duration": 117}, {"note": 63, "velocity": 127, "duration": 182}, {"note": 63, "velocity": 117, "duration": 121}, {"note": 0, "velocity": 0, "duration": 119}, {"note": 63, "velocity": 127, "duration": 127}, {"note": 0, "velocity": 0, "duration": 113}, {"note": 65, "velocity": 117, "duration": 148}, {"note": 0, "velocity": 0, "duration": 92}, {"note": 67, "velocity": 127, "duration": 213}, {"note": 0, "velocity": 0, "duration": 267}, {"note": 65, "velocity": 122, "duration": 103}, {"note": 0, "velocity": 0, "duration": 137}, {"note": 67, "velocity": 127, "duration": 100}, {"note": 0, "velocity": 0, "duration": 140}, {"note": 68, "velocity": 127, "duration": 253}, {"note": 0, "velocity": 0, "duration": 467}, {"note": 68, "velocity": 127, "duration": 117}, {"note": 0, "velocity": 0, "duration": 123}, {"note": 67, "velocity": 122, "duration": 253}, {"note": 0, "velocity": 0, "duration": 227}, {"note": 65, "velocity": 117, "duration": 171}, {"note": 0, "velocity": 0, "duration": 69}, {"note": 67, "velocity": 127, "duration": 105}, {"note": 0, "velocity": 0, "duration": 135}, {"note": 67, "velocity": 127, "duration": 119}, {"note": 0, "velocity": 0, "duration": 121}, {"note": 65, "velocity": 99, "duration": 124}, {"note": 0, "velocity": 0, "duration": 116}, {"note": 65, "velocity": 99, "duration": 111}, {"note": 0, "velocity": 0, "duration": 129}, {"note": 60, "velocity": 102, "duration": 111}, {"note": 0, "velocity": 0, "duration": 129}, {"note": 63, "velocity": 127, "duration": 225}, {"note": 0, "velocity": 0, "duration": 255}, {"note": 65, "velocity": 127, "duration": 138}, {"note": 0, "velocity": 0, "duration": 342}, {"note": 67, "velocity": 122, "duration": 170}, {"note": 0, "velocity": 0, "duration": 310}, {"note": 58, "velocity": 122, "duration": 72}, {"note": 0, "velocity": 0, "duration": 168}, {"note": 67, "velocity": 112, "duration": 163}, {"note": 0, "velocity": 0, "duration": 77}, {"note": 65, "velocity": 127, "duration": 243}, {"note": 0, "velocity": 0, "duration": 237}, {"note": 63, "velocity": 127, "duration": 112}, {"note": 0, "velocity": 0, "duration": 128}, {"note": 62, "velocity": 107, "duration": 112}, {"note": 0, "velocity": 0, "duration": 128}, {"note": 63, "velocity": 127, "duration": 152}, {"note": 0, "velocity": 0, "duration": 88}, {"note": 63, "velocity": 122, "duration": 72}, {"note": 0, "velocity": 0, "duration": 168}, {"note": 63, "velocity": 127, "duration": 79}, {"note": 65, "velocity": 107, "duration": 147}, {"note": 0, "velocity": 0, "duration": 93}, {"note": 67, "velocity": 127, "duration": 227}, {"note": 0, "velocity": 0, "duration": 373}, {"note": 65, "velocity": 112, "duration": 95}, {"note": 0, "velocity": 0, "duration": 145}, {"note": 67, "velocity": 122, "duration": 111}, {"note": 0, "velocity": 0, "duration": 129}, {"note": 68, "velocity": 102, "duration": 252}, {"note": 0, "velocity": 0, "duration": 468}, {"note": 68, "velocity": 127, "duration": 124}, {"note": 0, "velocity": 0, "duration": 116}, {"note": 67, "velocity": 122, "duration": 128}, {"note": 0, "velocity": 0, "duration": 112}, {"note": 65, "velocity": 117, "duration": 134}, {"note": 0, "velocity": 0, "duration": 106}, {"note": 63, "velocity": 122, "duration": 100}, {"note": 0, "velocity": 0, "duration": 140}, {"note": 67, "velocity": 127, "duration": 139}, {"note": 0, "velocity": 0, "duration": 101}, {"note": 68, "velocity": 127, "duration": 245}, {"note": 0, "velocity": 0, "duration": 235}, {"note": 62, "velocity": 127, "duration": 155}, {"note": 0, "velocity": 0, "duration": 325}, {"note": 63, "velocity": 127, "duration": 480}, {"note": 64, "velocity": 127, "duration": 148}, {"note": 0, "velocity": 0, "duration": 92}, {"note": 66, "velocity": 112, "duration": 138}, {"note": 0, "velocity": 0, "duration": 102}, {"note": 68, "velocity": 127, "duration": 263}, {"note": 0, "velocity": 0, "duration": 457}, {"note": 68, "velocity": 122, "duration": 153}, {"note": 0, "velocity": 0, "duration": 87}, {"note": 66, "velocity": 117, "duration": 178}, {"note": 0, "velocity": 0, "duration": 302}, {"note": 64, "velocity": 127, "duration": 124}, {"note": 0, "velocity": 0, "duration": 116}, {"note": 63, "velocity": 100, "duration": 123}, {"note": 0, "velocity": 0, "duration": 117}, {"note": 64, "velocity": 127, "duration": 182}, {"note": 64, "velocity": 117, "duration": 121}, {"note": 0, "velocity": 0, "duration": 119}, {"note": 64, "velocity": 127, "duration": 127}, {"note": 0, "velocity": 0, "duration": 113}, {"note": 66, "velocity": 117, "duration": 148}, {"note": 0, "velocity": 0, "duration": 92}, {"note": 68, "velocity": 127, "duration": 213}, {"note": 0, "velocity": 0, "duration": 267}, {"note": 66, "velocity": 122, "duration": 103}, {"note": 0, "velocity": 0, "duration": 137}, {"note": 68, "velocity": 127, "duration": 100}, {"note": 0, "velocity": 0, "duration": 140}, {"note": 69, "velocity": 127, "duration": 253}, {"note": 0, "velocity": 0, "duration": 467}, {"note": 69, "velocity": 127, "duration": 117}, {"note": 0, "velocity": 0, "duration": 123}, {"note": 68, "velocity": 122, "duration": 253}, {"note": 0, "velocity": 0, "duration": 227}, {"note": 66, "velocity": 117, "duration": 171}, {"note": 0, "velocity": 0, "duration": 69}, {"note": 68, "velocity": 127, "duration": 105}, {"note": 0, "velocity": 0, "duration": 135}, {"note": 68, "velocity": 127, "duration": 119}, {"note": 0, "velocity": 0, "duration": 121}, {"note": 66, "velocity": 99, "duration": 124}, {"note": 0, "velocity": 0, "duration": 116}, {"note": 66, "velocity": 99, "duration": 111}, {"note": 0, "velocity": 0, "duration": 129}, {"note": 61, "velocity": 102, "duration": 111}, {"note": 0, "velocity": 0, "duration": 129}, {"note": 64, "velocity": 127, "duration": 225}, {"note": 0, "velocity": 0, "duration": 255}, {"note": 66, "velocity": 127, "duration": 138}, {"note": 0, "velocity": 0, "duration": 342}, {"note": 68, "velocity": 122, "duration": 170}, {"note": 0, "velocity": 0, "duration": 310}, {"note": 59, "velocity": 122, "duration": 72}, {"note": 0, "velocity": 0, "duration": 168}, {"note": 68, "velocity": 112, "duration": 163}, {"note": 0, "velocity": 0, "duration": 77}, {"note": 66, "velocity": 127, "duration": 243}, {"note": 0, "velocity": 0, "duration": 237}, {"note": 64, "velocity": 127, "duration": 112}, {"note": 0, "velocity": 0, "duration": 128}, {"note": 63, "velocity": 107, "duration": 112}, {"note": 0, "velocity": 0, "duration": 128}, {"note": 64, "velocity": 127, "duration": 152}, {"note": 0, "velocity": 0, "duration": 88}, {"note": 64, "velocity": 122, "duration": 72}, {"note": 0, "velocity": 0, "duration": 168}, {"note": 64, "velocity": 127, "duration": 79}, {"note": 66, "velocity": 107, "duration": 147}, {"note": 0, "velocity": 0, "duration": 93}, {"note": 68, "velocity": 127, "duration": 227}, {"note": 0, "velocity": 0, "duration": 373}, {"note": 66, "velocity": 112, "duration": 95}, {"note": 0, "velocity": 0, "duration": 145}, {"note": 68, "velocity": 122, "duration": 111}, {"note": 0, "velocity": 0, "duration": 129}, {"note": 69, "velocity": 102, "duration": 252}, {"note": 0, "velocity": 0, "duration": 468}, {"note": 69, "velocity": 127, "duration": 124}, {"note": 0, "velocity": 0, "duration": 116}, {"note": 68, "velocity": 122, "duration": 128}, {"note": 0, "velocity": 0, "duration": 112}, {"note": 66, "velocity": 117, "duration": 134}, {"note": 0, "velocity": 0, "duration": 106}, {"note": 64, "velocity": 122, "duration": 100}, {"note": 0, "velocity": 0, "duration": 140}, {"note": 68, "velocity": 127, "duration": 139}, {"note": 0, "velocity": 0, "duration": 101}, {"note": 69, "velocity": 127, "duration": 245}, {"note": 0, "velocity": 0, "duration": 235}, {"note": 63, "velocity": 127, "duration": 155}, {"note": 0, "velocity": 0, "duration": 325}, {"note": 64, "velocity": 127, "duration": 1079}]]