[[{"note": 72, "velocity": 100, "duration": 182}, {"note": 72, "velocity": 101, "duration": 76}, {"note": 72, "velocity": 103, "duration": 70}, {"note": 72, "velocity": 98, "duration": 172}, {"note": 0, "velocity": 0, "duration": 68}, {"note": 67, "velocity": 100, "duration": 197}, {"note": 70, "velocity": 101, "duration": 648}, {"note": 0, "velocity": 0, "duration": 312}, {"note": 72, "velocity": 98, "duration": 141}, {"note": 0, "velocity": 0, "duration": 99}, {"note": 72, "velocity": 101, "duration": 67}, {"note": 72, "velocity": 99, "duration": 66}, {"note": 72, "velocity": 94, "duration": 170}, {"note": 0, "velocity": 0, "duration": 70}, {"note": 67, "velocity": 100, "duration": 163}, {"note": 0, "velocity": 0, "duration": 77}, {"note": 63, "velocity": 105, "duration": 539}, {"note": 0, "velocity": 0, "duration": 421}, {"note": 65, "velocity": 108, "duration": 120}, {"note": 0, "velocity": 0, "duration": 120}, {"note": 65, "velocity": 95, "duration": 61}, {"note": 65, "velocity": 103, "duration": 290}, {"note": 0, "velocity": 0, "duration": 70}, {"note": 67, "velocity": 98, "duration": 171}, {"note": 0, "velocity": 0, "duration": 69}, {"note": 70, "velocity": 98, "duration": 176}, {"note": 0, "velocity": 0, "duration": 64}, {"note": 70, "velocity": 96, "duration": 62}, {"note": 70, "velocity": 98, "duration": 343}, {"note": 67, "velocity": 94, "duration": 120}, {"note": 70, "velocity": 99, "duration": 120}, {"note": 72, "velocity": 96, "duration": 240}, {"note": 72, "velocity": 94, "duration": 64}, {"note": 72, "velocity": 98, "duration": 61}, {"note": 72, "velocity": 98, "duration": 215}, {"note": 70, "velocity": 105, "duration": 200}, {"note": 67, "velocity": 101, "duration": 765}, {"note": 0, "velocity": 0, "duration": 195}, {"note": 72, "velocity": 100, "duration": 167}, {"note": 0, "velocity": 0, "duration": 73}, {"note": 72, "velocity": 97, "duration": 71}, {"note": 72, "velocity": 98, "duration": 65}, {"note": 72, "velocity": 103, "duration": 200}, {"note": 67, "velocity": 96, "duration": 181}, {"note": 70, "velocity": 94, "duration": 706}, {"note": 0, "velocity": 0, "duration": 254}, {"note": 72, "velocity": 98, "duration": 148}, {"note": 0, "velocity": 0, "duration": 92}, {"note": 72, "velocity": 96, "duration": 82}, {"note": 72, "velocity": 95, "duration": 56}, {"note": 0, "velocity": 0, "duration": 64}, {"note": 72, "velocity": 100, "duration": 166}, {"note": 0, "velocity": 0, "duration": 74}, {"note": 67, "velocity": 98, "duration": 170}, {"note": 0, "velocity": 0, "duration": 70}, {"note": 63, "velocity": 84, "duration": 853}, {"note": 0, "velocity": 0, "duration": 107}, {"note": 65, "velocity": 105, "duration": 156}, {"note": 0, "velocity": 0, "duration": 84}, {"note": 65, "velocity": 96, "duration": 72}, {"note": 65, "velocity": 101, "duration": 167}, {"note": 0, "velocity": 0, "duration": 73}, {"note": 65, "velocity": 101, "duration": 56}, {"note": 0, "velocity": 0, "duration": 64}, {"note": 65, "velocity": 97, "duration": 70}, {"note": 67, "velocity": 95, "duration": 68}, {"note": 70, "velocity": 98, "duration": 177}, {"note": 0, "velocity": 0, "duration": 63}, {"note": 67, "velocity": 90, "duration": 120}, {"note": 70, "velocity": 93, "duration": 120}, {"note": 63, "velocity": 101, "duration": 387}, {"note": 0, "velocity": 0, "duration": 93}, {"note": 60, "velocity": 103, "duration": 1651}, {"note": 0, "velocity": 0, "duration": 269}, {"note": 72, "velocity": 100, "duration": 182}, {"note": 72, "velocity": 101, "duration": 76}, {"note": 72, "velocity": 103, "duration": 70}, {"note": 72, "velocity": 98, "duration": 172}, {"note": 0, "velocity": 0, "duration": 68}, {"note": 67, "velocity": 100, "duration": 197}, {"note": 70, "velocity": 101, "duration": 648}, {"note": 0, "velocity": 0, "duration": 312}, {"note": 72, "velocity": 98, "duration": 141}, {"note": 0, "velocity": 0, "duration": 99}, {"note": 72, "velocity": 101, "duration": 67}, {"note": 72, "velocity": 99, "duration": 66}, {"note": 72, "velocity": 94, "duration": 170}, {"note": 0, "velocity": 0, "duration": 70}, {"note": 67, "velocity": 100, "duration": 163}, {"note": 0, "velocity": 0, "duration": 77}, {"note": 63, "velocity": 105, "duration": 539}, {"note": 0, "velocity": 0, "duration": 421}, {"note": 65, "velocity": 108, "duration": 120}, {"note": 0, "velocity": 0, "duration": 120}, {"note": 65, "velocity": 95, "duration": 61}, {"note": 65, "velocity": 103, "duration": 290}, {"note": 0, "velocity": 0, "duration": 70}, {"note": 67, "velocity": 98, "duration": 171}, {"note": 0, "velocity": 0, "duration": 69}, {"note": 70, "velocity": 98, "duration": 176}, {"note": 0, "velocity": 0, "duration": 64}, {"note": 70, "velocity": 96, "duration": 62}, {"note": 70, "velocity": 98, "duration": 343}, {"note": 67, "velocity": 94, "duration": 120}, {"note": 70, "velocity": 99, "duration": 120}, {"note": 72, "velocity": 96, "duration": 240}, {"note": 72, "velocity": 94, "duration": 64}, {"note": 72, "velocity": 98, "duration": 61}, {"note": 72, "velocity": 98, "duration": 215}, {"note": 70, "velocity": 105, "duration": 200}, {"note": 67, "velocity": 101, "duration": 765}, {"note": 0, "velocity": 0, "duration": 195}, {"note": 72, "velocity": 100, "duration": 167}, {"note": 0, "velocity": 0, "duration": 73}, {"note": 72, "velocity": 97, "duration": 71}, {"note": 72, "velocity": 98, "duration": 65}, {"note": 72, "velocity": 103, "duration": 200}, {"note": 67, "velocity": 96, "duration": 181}, {"note": 70, "velocity": 94, "duration": 706}, {"note": 0, "velocity": 0, "duration": 254}, {"note": 72, "velocity": 98, "duration": 148}, {"note": 0, "velocity": 0, "duration": 92}, {"note": 72, "velocity": 96, "duration": 82}, {"note": 72, "velocity": 95, "duration": 56}, {"note": 0, "velocity": 0, "duration": 64}, {"note": 72, "velocity": 100, "duration": 166}, {"note": 0, "velocity": 0, "duration": 74}, {"note": 67, "velocity": 98, "duration": 170}, {"note": 0, "velocity": 0, "duration": 70}, {"note": 63, "velocity": 84, "duration": 853}, {"note": 0, "velocity": 0, "duration": 107}, {"note": 65, "velocity": 105, "duration": 156}, {"note": 0, "velocity": 0, "duration": 84}, {"note": 65, "velocity": 96, "duration": 72}, {"note": 65, "velocity": 101, "duration": 167}, {"note": 0, "velocity": 0, "duration": 73}, {"note": 65, "velocity": 101, "duration": 56}, {"note": 0, "velocity": 0, "duration": 64}, {"note": 65, "velocity": 97, "duration": 70}, {"note": 67, "velocity": 95, "duration": 68}, {"note": 70, "velocity": 98, "duration": 177}, {"note": 0, "velocity": 0, "duration": 183}, {"note": 67, "velocity": 90, "duration": 120}, {"note": 70, "velocity": 93, "duration": 120}, {"note": 0, "velocity": 0, "duration": 120}, {"note": 75, "velocity": 100, "duration": 118}, {"note": 74, "velocity": 108, "duration": 121}, {"note": 72, "velocity": 100, "duration": 82}, {"note": 74, "velocity": 105, "duration": 102}, {"note": 72, "velocity": 101, "duration": 1546}, {"note": 0, "velocity": 0, "duration": 2054}, {"note": 79, "velocity": 101, "duration": 247}, {"note": 0, "velocity": 0, "duration": 113}, {"note": 79, "velocity": 98, "duration": 71}, {"note": 79, "velocity": 101, "duration": 61}, {"note": 79, "velocity": 95, "duration": 67}, {"note": 79, "velocity": 99, "duration": 58}, {"note": 0, "velocity": 0, "duration": 62}, {"note": 79, "velocity": 98, "duration": 71}, {"note": 77, "velocity": 103, "duration": 177}, {"note": 0, "velocity": 0, "duration": 63}, {"note": 79, "velocity": 101, "duration": 56}, {"note": 0, "velocity": 0, "duration": 64}, {"note": 77, "velocity": 97, "duration": 58}, {"note": 0, "velocity": 0, "duration": 62}, {"note": 75, "velocity": 98, "duration": 259}, {"note": 0, "velocity": 0, "duration": 221}, {"note": 77, "velocity": 96, "duration": 179}, {"note": 0, "velocity": 0, "duration": 61}, {"note": 77, "velocity": 100, "duration": 61}, {"note": 79, "velocity": 101, "duration": 58}, {"note": 0, "velocity": 0, "duration": 62}, {"note": 70, "velocity": 103, "duration": 176}, {"note": 0, "velocity": 0, "duration": 64}, {"note": 67, "velocity": 101, "duration": 55}, {"note": 0, "velocity": 0, "duration": 65}, {"note": 70, "velocity": 99, "duration": 74}, {"note": 72, "velocity": 96, "duration": 694}, {"note": 0, "velocity": 0, "duration": 266}, {"note": 79, "velocity": 96, "duration": 287}, {"note": 0, "velocity": 0, "duration": 73}, {"note": 79, "velocity": 98, "duration": 67}, {"note": 79, "velocity": 96, "duration": 67}, {"note": 79, "velocity": 95, "duration": 66}, {"note": 79, "velocity": 96, "duration": 66}, {"note": 79, "velocity": 95, "duration": 74}, {"note": 77, "velocity": 98, "duration": 173}, {"note": 0, "velocity": 0, "duration": 67}, {"note": 79, "velocity": 100, "duration": 70}, {"note": 77, "velocity": 96, "duration": 53}, {"note": 0, "velocity": 0, "duration": 67}, {"note": 75, "velocity": 95, "duration": 360}, {"note": 0, "velocity": 0, "duration": 120}, {"note": 67, "velocity": 99, "duration": 201}, {"note": 70, "velocity": 105, "duration": 80}, {"note": 72, "velocity": 96, "duration": 85}, {"note": 75, "velocity": 101, "duration": 58}, {"note": 0, "velocity": 0, "duration": 62}, {"note": 77, "velocity": 96, "duration": 102}, {"note": 75, "velocity": 105, "duration": 111}, {"note": 72, "velocity": 97, "duration": 62}, {"note": 72, "velocity": 101, "duration": 775}, {"note": 0, "velocity": 0, "duration": 185}, {"note": 77, "velocity": 100, "duration": 62}, {"note": 77, "velocity": 98, "duration": 61}, {"note": 77, "velocity": 101, "duration": 61}, {"note": 77, "velocity": 96, "duration": 70}, {"note": 77, "velocity": 95, "duration": 67}, {"note": 77, "velocity": 96, "duration": 55}, {"note": 0, "velocity": 0, "duration": 65}, {"note": 77, "velocity": 93, "duration": 65}, {"note": 79, "velocity": 98, "duration": 67}, {"note": 75, "velocity": 98, "duration": 158}, {"note": 0, "velocity": 0, "duration": 82}, {"note": 72, "velocity": 101, "duration": 497}, {"note": 0, "velocity": 0, "duration": 223}, {"note": 77, "velocity": 95, "duration": 69}, {"note": 77, "velocity": 95, "duration": 61}, {"note": 77, "velocity": 96, "duration": 67}, {"note": 77, "velocity": 99, "duration": 67}, {"note": 79, "velocity": 101, "duration": 72}, {"note": 77, "velocity": 105, "duration": 63}, {"note": 75, "velocity": 99, "duration": 82}, {"note": 77, "velocity": 98, "duration": 58}, {"note": 0, "velocity": 0, "duration": 62}, {"note": 79, "velocity": 101, "duration": 758}, {"note": 0, "velocity": 0, "duration": 202}, {"note": 77, "velocity": 98, "duration": 56}, {"note": 0, "velocity": 0, "duration": 64}, {"note": 77, "velocity": 96, "duration": 56}, {"note": 0, "velocity": 0, "duration": 64}, {"note": 77, "velocity": 94, "duration": 56}, {"note": 0, "velocity": 0, "duration": 64}, {"note": 77, "velocity": 96, "duration": 58}, {"note": 0, "velocity": 0, "duration": 62}, {"note": 77, "velocity": 97, "duration": 58}, {"note": 0, "velocity": 0, "duration": 62}, {"note": 77, "velocity": 95, "duration": 56}, {"note": 0, "velocity": 0, "duration": 64}, {"note": 77, "velocity": 96, "duration": 64}, {"note": 79, "velocity": 101, "duration": 61}, {"note": 70, "velocity": 103, "duration": 169}, {"note": 0, "velocity": 0, "duration": 71}, {"note": 67, "velocity": 98, "duration": 413}, {"note": 0, "velocity": 0, "duration": 67}, {"note": 77, "velocity": 99, "duration": 173}, {"note": 0, "velocity": 0, "duration": 67}, {"note": 75, "velocity": 105, "duration": 111}, {"note": 74, "velocity": 100, "duration": 73}, {"note": 72, "velocity": 99, "duration": 1583}, {"note": 0, "velocity": 0, "duration": 15457}, {"note": 72, "velocity": 100, "duration": 182}, {"note": 72, "velocity": 101, "duration": 76}, {"note": 72, "velocity": 103, "duration": 70}, {"note": 72, "velocity": 98, "duration": 172}, {"note": 0, "velocity": 0, "duration": 68}, {"note": 67, "velocity": 100, "duration": 197}, {"note": 70, "velocity": 101, "duration": 648}, {"note": 0, "velocity": 0, "duration": 312}, {"note": 72, "velocity": 98, "duration": 141}, {"note": 0, "velocity": 0, "duration": 99}, {"note": 72, "velocity": 101, "duration": 67}, {"note": 72, "velocity": 99, "duration": 66}, {"note": 72, "velocity": 94, "duration": 170}, {"note": 0, "velocity": 0, "duration": 70}, {"note": 67, "velocity": 100, "duration": 163}, {"note": 0, "velocity": 0, "duration": 77}, {"note": 63, "velocity": 105, "duration": 539}, {"note": 0, "velocity": 0, "duration": 421}, {"note": 65, "velocity": 108, "duration": 120}, {"note": 0, "velocity": 0, "duration": 120}, {"note": 65, "velocity": 95, "duration": 61}, {"note": 65, "velocity": 103, "duration": 290}, {"note": 0, "velocity": 0, "duration": 70}, {"note": 67, "velocity": 98, "duration": 171}, {"note": 0, "velocity": 0, "duration": 69}, {"note": 70, "velocity": 98, "duration": 176}, {"note": 0, "velocity": 0, "duration": 64}, {"note": 70, "velocity": 96, "duration": 62}, {"note": 70, "velocity": 98, "duration": 343}, {"note": 67, "velocity": 94, "duration": 120}, {"note": 70, "velocity": 99, "duration": 120}, {"note": 72, "velocity": 96, "duration": 240}, {"note": 72, "velocity": 94, "duration": 64}, {"note": 72, "velocity": 98, "duration": 61}, {"note": 72, "velocity": 98, "duration": 215}, {"note": 70, "velocity": 105, "duration": 200}, {"note": 67, "velocity": 101, "duration": 765}, {"note": 0, "velocity": 0, "duration": 195}, {"note": 72, "velocity": 100, "duration": 167}, {"note": 0, "velocity": 0, "duration": 73}, {"note": 72, "velocity": 97, "duration": 71}, {"note": 72, "velocity": 98, "duration": 65}, {"note": 72, "velocity": 103, "duration": 200}, {"note": 67, "velocity": 96, "duration": 181}, {"note": 70, "velocity": 94, "duration": 706}, {"note": 0, "velocity": 0, "duration": 254}, {"note": 72, "velocity": 98, "duration": 148}, {"note": 0, "velocity": 0, "duration": 92}, {"note": 72, "velocity": 96, "duration": 82}, {"note": 72, "velocity": 95, "duration": 56}, {"note": 0, "velocity": 0, "duration": 64}, {"note": 72, "velocity": 100, "duration": 166}, {"note": 0, "velocity": 0, "duration": 74}, {"note": 67, "velocity": 98, "duration": 170}, {"note": 0, "velocity": 0, "duration": 70}, {"note": 63, "velocity": 84, "duration": 853}, {"note": 0, "velocity": 0, "duration": 107}, {"note": 65, "velocity": 105, "duration": 156}, {"note": 0, "velocity": 0, "duration": 84}, {"note": 65, "velocity": 96, "duration": 72}, {"note": 65, "velocity": 101, "duration": 167}, {"note": 0, "velocity": 0, "duration": 73}, {"note": 65, "velocity": 101, "duration": 56}, {"note": 0, "velocity": 0, "duration": 64}, {"note": 65, "velocity": 97, "duration": 70}, {"note": 67, "velocity": 95, "duration": 68}, {"note": 70, "velocity": 98, "duration": 177}, {"note": 0, "velocity": 0, "duration": 63}, {"note": 67, "velocity": 90, "duration": 120}, {"note": 70, "velocity": 93, "duration": 120}, {"note": 63, "velocity": 101, "duration": 387}, {"note": 0, "velocity": 0, "duration": 93}, {"note": 60, "velocity": 103, "duration": 1651}, {"note": 0, "velocity": 0, "duration": 269}, {"note": 72, "velocity": 100, "duration": 182}, {"note": 72, "velocity": 101, "duration": 76}, {"note": 72, "velocity": 103, "duration": 70}, {"note": 72, "velocity": 98, "duration": 172}, {"note": 0, "velocity": 0, "duration": 68}, {"note": 67, "velocity": 100, "duration": 197}, {"note": 70, "velocity": 101, "duration": 648}, {"note": 0, "velocity": 0, "duration": 312}, {"note": 72, "velocity": 98, "duration": 141}, {"note": 0, "velocity": 0, "duration": 99}, {"note": 72, "velocity": 101, "duration": 67}, {"note": 72, "velocity": 99, "duration": 66}, {"note": 72, "velocity": 94, "duration": 170}, {"note": 0, "velocity": 0, "duration": 70}, {"note": 67, "velocity": 100, "duration": 163}, {"note": 0, "velocity": 0, "duration": 77}, {"note": 63, "velocity": 105, "duration": 539}, {"note": 0, "velocity": 0, "duration": 421}, {"note": 65, "velocity": 108, "duration": 120}, {"note": 0, "velocity": 0, "duration": 120}, {"note": 65, "velocity": 95, "duration": 61}, {"note": 65, "velocity": 103, "duration": 290}, {"note": 0, "velocity": 0, "duration": 70}, {"note": 67, "velocity": 98, "duration": 171}, {"note": 0, "velocity": 0, "duration": 69}, {"note": 70, "velocity": 98, "duration": 176}, {"note": 0, "velocity": 0, "duration": 64}, {"note": 70, "velocity": 96, "duration": 62}, {"note": 70, "velocity": 98, "duration": 343}, {"note": 67, "velocity": 94, "duration": 120}, {"note": 70, "velocity": 99, "duration": 120}, {"note": 72, "velocity": 96, "duration": 240}, {"note": 72, "velocity": 94, "duration": 64}, {"note": 72, "velocity": 98, "duration": 61}, {"note": 72, "velocity": 98, "duration": 215}, {"note": 70, "velocity": 105, "duration": 200}, {"note": 67, "velocity": 101, "duration": 765}, {"note": 0, "velocity": 0, "duration": 195}, {"note": 72, "velocity": 100, "duration": 167}, {"note": 0, "velocity": 0, "duration": 73}, {"note": 72, "velocity": 97, "duration": 71}, {"note": 72, "velocity": 98, "duration": 65}, {"note": 72, "velocity": 103, "duration": 200}, {"note": 67, "velocity": 96, "duration": 181}, {"note": 70, "velocity": 94, "duration": 706}, {"note": 0, "velocity": 0, "duration": 254}, {"note": 72, "velocity": 98, "duration": 148}, {"note": 0, "velocity": 0, "duration": 92}, {"note": 72, "velocity": 96, "duration": 82}, {"note": 72, "velocity": 95, "duration": 56}, {"note": 0, "velocity": 0, "duration": 64}, {"note": 72, "velocity": 100, "duration": 166}, {"note": 0, "velocity": 0, "duration": 74}, {"note": 67, "velocity": 98, "duration": 170}, {"note": 0, "velocity": 0, "duration": 70}, {"note": 63, "velocity": 84, "duration": 853}, {"note": 0, "velocity": 0, "duration": 107}, {"note": 65, "velocity": 105, "duration": 156}, {"note": 0, "velocity": 0, "duration": 84}, {"note": 65, "velocity": 96, "duration": 72}, {"note": 65, "velocity": 101, "duration": 167}, {"note": 0, "velocity": 0, "duration": 73}, {"note": 65, "velocity": 101, "duration": 56}, {"note": 0, "velocity": 0, "duration": 64}, {"note": 65, "velocity": 97, "duration": 70}, {"note": 67, "velocity": 95, "duration": 68}, {"note": 70, "velocity": 98, "duration": 177}, {"note": 0, "velocity": 0, "duration": 183}, {"note": 67, "velocity": 90, "duration": 120}, {"note": 70, "velocity": 93, "duration": 120}, {"note": 0, "velocity": 0, "duration": 120}, {"note": 75, "velocity": 100, "duration": 118}, {"note": 74, "velocity": 108, "duration": 121}, {"note": 72, "velocity": 100, "duration": 82}, {"note": 74, "velocity": 105, "duration": 102}, {"note": 72, "velocity": 101, "duration": 1546}, {"note": 0, "velocity": 0, "duration": 2054}, {"note": 79, "velocity": 101, "duration": 247}, {"note": 0, "velocity": 0, "duration": 113}, {"note": 79, "velocity": 98, "duration": 71}, {"note": 79, "velocity": 101, "duration": 61}, {"note": 79, "velocity": 95, "duration": 67}, {"note": 79, "velocity": 99, "duration": 58}, {"note": 0, "velocity": 0, "duration": 62}, {"note": 79, "velocity": 98, "duration": 71}, {"note": 77, "velocity": 103, "duration": 177}, {"note": 0, "velocity": 0, "duration": 63}, {"note": 79, "velocity": 101, "duration": 56}, {"note": 0, "velocity": 0, "duration": 64}, {"note": 77, "velocity": 97, "duration": 58}, {"note": 0, "velocity": 0, "duration": 62}, {"note": 75, "velocity": 98, "duration": 259}, {"note": 0, "velocity": 0, "duration": 221}, {"note": 77, "velocity": 96, "duration": 179}, {"note": 0, "velocity": 0, "duration": 61}, {"note": 77, "velocity": 100, "duration": 61}, {"note": 79, "velocity": 101, "duration": 58}, {"note": 0, "velocity": 0, "duration": 62}, {"note": 70, "velocity": 103, "duration": 176}, {"note": 0, "velocity": 0, "duration": 64}, {"note": 67, "velocity": 101, "duration": 55}, {"note": 0, "velocity": 0, "duration": 65}, {"note": 70, "velocity": 99, "duration": 74}, {"note": 72, "velocity": 96, "duration": 694}, {"note": 0, "velocity": 0, "duration": 266}, {"note": 79, "velocity": 96, "duration": 287}, {"note": 0, "velocity": 0, "duration": 73}, {"note": 79, "velocity": 98, "duration": 67}, {"note": 79, "velocity": 96, "duration": 67}, {"note": 79, "velocity": 95, "duration": 66}, {"note": 79, "velocity": 96, "duration": 66}, {"note": 79, "velocity": 95, "duration": 74}, {"note": 77, "velocity": 98, "duration": 173}, {"note": 0, "velocity": 0, "duration": 67}, {"note": 79, "velocity": 100, "duration": 70}, {"note": 77, "velocity": 96, "duration": 53}, {"note": 0, "velocity": 0, "duration": 67}, {"note": 75, "velocity": 95, "duration": 360}, {"note": 0, "velocity": 0, "duration": 120}, {"note": 67, "velocity": 99, "duration": 201}, {"note": 70, "velocity": 105, "duration": 80}, {"note": 72, "velocity": 96, "duration": 85}, {"note": 75, "velocity": 101, "duration": 58}, {"note": 0, "velocity": 0, "duration": 62}, {"note": 77, "velocity": 96, "duration": 102}, {"note": 75, "velocity": 105, "duration": 111}, {"note": 72, "velocity": 97, "duration": 62}, {"note": 72, "velocity": 101, "duration": 775}, {"note": 0, "velocity": 0, "duration": 185}, {"note": 77, "velocity": 100, "duration": 62}, {"note": 77, "velocity": 98, "duration": 61}, {"note": 77, "velocity": 101, "duration": 61}, {"note": 77, "velocity": 96, "duration": 70}, {"note": 77, "velocity": 95, "duration": 67}, {"note": 77, "velocity": 96, "duration": 55}, {"note": 0, "velocity": 0, "duration": 65}, {"note": 77, "velocity": 93, "duration": 65}, {"note": 79, "velocity": 98, "duration": 67}, {"note": 75, "velocity": 98, "duration": 158}, {"note": 0, "velocity": 0, "duration": 82}, {"note": 72, "velocity": 101, "duration": 497}, {"note": 0, "velocity": 0, "duration": 223}, {"note": 77, "velocity": 95, "duration": 69}, {"note": 77, "velocity": 95, "duration": 61}, {"note": 77, "velocity": 96, "duration": 67}, {"note": 77, "velocity": 99, "duration": 67}, {"note": 79, "velocity": 101, "duration": 72}, {"note": 77, "velocity": 105, "duration": 63}, {"note": 75, "velocity": 99, "duration": 82}, {"note": 77, "velocity": 98, "duration": 58}, {"note": 0, "velocity": 0, "duration": 62}, {"note": 79, "velocity": 101, "duration": 758}, {"note": 0, "velocity": 0, "duration": 202}, {"note": 77, "velocity": 98, "duration": 56}, {"note": 0, "velocity": 0, "duration": 64}, {"note": 77, "velocity": 96, "duration": 56}, {"note": 0, "velocity": 0, "duration": 64}, {"note": 77, "velocity": 94, "duration": 56}, {"note": 0, "velocity": 0, "duration": 64}, {"note": 77, "velocity": 96, "duration": 58}, {"note": 0, "velocity": 0, "duration": 62}, {"note": 77, "velocity": 97, "duration": 58}, {"note": 0, "velocity": 0, "duration": 62}, {"note": 77, "velocity": 95, "duration": 56}, {"note": 0, "velocity": 0, "duration": 64}, {"note": 77, "velocity": 96, "duration": 64}, {"note": 79, "velocity": 101, "duration": 61}, {"note": 70, "velocity": 103, "duration": 169}, {"note": 0, "velocity": 0, "duration": 71}, {"note": 67, "velocity": 98, "duration": 413}, {"note": 0, "velocity": 0, "duration": 67}, {"note": 77, "velocity": 99, "duration": 173}, {"note": 0, "velocity": 0, "duration": 67}, {"note": 75, "velocity": 105, "duration": 111}, {"note": 74, "velocity": 100, "duration": 73}, {"note": 72, "velocity": 99, "duration": 1583}, {"note": 0, "velocity": 0, "duration": 97}, {"note": 79, "velocity": 101, "duration": 247}, {"note": 0, "velocity": 0, "duration": 113}, {"note": 79, "velocity": 98, "duration": 71}, {"note": 79, "velocity": 101, "duration": 61}, {"note": 79, "velocity": 95, "duration": 67}, {"note": 79, "velocity": 99, "duration": 58}, {"note": 0, "velocity": 0, "duration": 62}, {"note": 79, "velocity": 98, "duration": 71}, {"note": 77, "velocity": 103, "duration": 177}, {"note": 0, "velocity": 0, "duration": 63}, {"note": 79, "velocity": 101, "duration": 56}, {"note": 0, "velocity": 0, "duration": 64}, {"note": 77, "velocity": 97, "duration": 58}, {"note": 0, "velocity": 0, "duration": 62}, {"note": 75, "velocity": 98, "duration": 259}, {"note": 0, "velocity": 0, "duration": 221}, {"note": 77, "velocity": 96, "duration": 179}, {"note": 0, "velocity": 0, "duration": 61}, {"note": 77, "velocity": 100, "duration": 61}, {"note": 79, "velocity": 101, "duration": 58}, {"note": 0, "velocity": 0, "duration": 62}, {"note": 70, "velocity": 103, "duration": 176}, {"note": 0, "velocity": 0, "duration": 64}, {"note": 67, "velocity": 101, "duration": 55}, {"note": 0, "velocity": 0, "duration": 65}, {"note": 70, "velocity": 99, "duration": 74}, {"note": 72, "velocity": 96, "duration": 694}, {"note": 0, "velocity": 0, "duration": 266}, {"note": 79, "velocity": 96, "duration": 287}, {"note": 0, "velocity": 0, "duration": 73}, {"note": 79, "velocity": 98, "duration": 67}, {"note": 79, "velocity": 96, "duration": 67}, {"note": 79, "velocity": 95, "duration": 66}, {"note": 79, "velocity": 96, "duration": 66}, {"note": 79, "velocity": 95, "duration": 74}, {"note": 77, "velocity": 98, "duration": 173}, {"note": 0, "velocity": 0, "duration": 67}, {"note": 79, "velocity": 100, "duration": 70}, {"note": 77, "velocity": 96, "duration": 53}, {"note": 0, "velocity": 0, "duration": 67}, {"note": 75, "velocity": 95, "duration": 360}, {"note": 0, "velocity": 0, "duration": 120}, {"note": 67, "velocity": 99, "duration": 201}, {"note": 70, "velocity": 105, "duration": 80}, {"note": 72, "velocity": 96, "duration": 85}, {"note": 75, "velocity": 101, "duration": 58}, {"note": 0, "velocity": 0, "duration": 62}, {"note": 77, "velocity": 96, "duration": 102}, {"note": 75, "velocity": 105, "duration": 111}, {"note": 72, "velocity": 97, "duration": 62}, {"note": 72, "velocity": 101, "duration": 775}, {"note": 0, "velocity": 0, "duration": 185}, {"note": 77, "velocity": 100, "duration": 62}, {"note": 77, "velocity": 98, "duration": 61}, {"note": 77, "velocity": 101, "duration": 61}, {"note": 77, "velocity": 96, "duration": 70}, {"note": 77, "velocity": 95, "duration": 67}, {"note": 77, "velocity": 96, "duration": 55}, {"note": 0, "velocity": 0, "duration": 65}, {"note": 77, "velocity": 93, "duration": 65}, {"note": 79, "velocity": 98, "duration": 67}, {"note": 75, "velocity": 98, "duration": 158}, {"note": 0, "velocity": 0, "duration": 82}, {"note": 72, "velocity": 101, "duration": 497}, {"note": 0, "velocity": 0, "duration": 223}, {"note": 77, "velocity": 95, "duration": 69}, {"note": 77, "velocity": 95, "duration": 61}, {"note": 77, "velocity": 96, "duration": 67}, {"note": 77, "velocity": 99, "duration": 67}, {"note": 79, "velocity": 101, "duration": 72}, {"note": 77, "velocity": 105, "duration": 63}, {"note": 75, "velocity": 99, "duration": 82}, {"note": 77, "velocity": 98, "duration": 58}, {"note": 0, "velocity": 0, "duration": 62}, {"note": 79, "velocity": 101, "duration": 758}, {"note": 0, "velocity": 0, "duration": 202}, {"note": 77, "velocity": 98, "duration": 56}, {"note": 0, "velocity": 0, "duration": 64}, {"note": 77, "velocity": 96, "duration": 56}, {"note": 0, "velocity": 0, "duration": 64}, {"note": 77, "velocity": 94, "duration": 56}, {"note": 0, "velocity": 0, "duration": 64}, {"note": 77, "velocity": 96, "duration": 58}, {"note": 0, "velocity": 0, "duration": 62}, {"note": 77, "velocity": 97, "duration": 58}, {"note": 0, "velocity": 0, "duration": 62}, {"note": 77, "velocity": 95, "duration": 56}, {"note": 0, "velocity": 0, "duration": 64}, {"note": 77, "velocity": 96, "duration": 64}, {"note": 79, "velocity": 101, "duration": 61}, {"note": 70, "velocity": 103, "duration": 169}, {"note": 0, "velocity": 0, "duration": 71}, {"note": 67, "velocity": 98, "duration": 413}, {"note": 0, "velocity": 0, "duration": 67}, {"note": 77, "velocity": 99, "duration": 173}, {"note": 0, "velocity": 0, "duration": 67}, {"note": 75, "velocity": 105, "duration": 111}, {"note": 74, "velocity": 100, "duration": 73}, {"note": 72, "velocity": 99, "duration": 1583}]]