[[{"note": 80, "velocity": 114, "duration": 229}, {"note": 78, "velocity": 97, "duration": 118}, {"note": 0, "velocity": 0, "duration": 122}, {"note": 78, "velocity": 111, "duration": 654}, {"note": 0, "velocity": 0, "duration": 786}, {"note": 80, "velocity": 114, "duration": 229}, {"note": 78, "velocity": 97, "duration": 118}, {"note": 0, "velocity": 0, "duration": 122}, {"note": 78, "velocity": 111, "duration": 654}, {"note": 0, "velocity": 0, "duration": 786}, {"note": 87, "velocity": 111, "duration": 214}, {"note": 85, "velocity": 108, "duration": 131}, {"note": 0, "velocity": 0, "duration": 109}, {"note": 83, "velocity": 111, "duration": 174}, {"note": 0, "velocity": 0, "duration": 306}, {"note": 78, "velocity": 105, "duration": 108}, {"note": 80, "velocity": 105, "duration": 79}, {"note": 78, "velocity": 111, "duration": 109}, {"note": 0, "velocity": 0, "duration": 131}, {"note": 78, "velocity": 117, "duration": 1063}, {"note": 0, "velocity": 0, "duration": 8537}, {"note": 66, "velocity": 117, "duration": 519}, {"note": 0, "velocity": 0, "duration": 201}, {"note": 68, "velocity": 117, "duration": 82}, {"note": 66, "velocity": 105, "duration": 75}, {"note": 71, "velocity": 111, "duration": 152}, {"note": 0, "velocity": 0, "duration": 88}, {"note": 73, "velocity": 111, "duration": 124}, {"note": 0, "velocity": 0, "duration": 116}, {"note": 75, "velocity": 117, "duration": 317}, {"note": 0, "velocity": 0, "duration": 163}, {"note": 78, "velocity": 108, "duration": 187}, {"note": 80, "velocity": 105, "duration": 135}, {"note": 0, "velocity": 0, "duration": 105}, {"note": 80, "velocity": 105, "duration": 178}, {"note": 0, "velocity": 0, "duration": 62}, {"note": 78, "velocity": 100, "duration": 184}, {"note": 75, "velocity": 94, "duration": 362}, {"note": 0, "velocity": 0, "duration": 118}, {"note": 73, "velocity": 102, "duration": 193}, {"note": 71, "velocity": 117, "duration": 172}, {"note": 0, "velocity": 0, "duration": 68}, {"note": 73, "velocity": 102, "duration": 189}, {"note": 75, "velocity": 100, "duration": 146}, {"note": 0, "velocity": 0, "duration": 94}, {"note": 75, "velocity": 111, "duration": 154}, {"note": 0, "velocity": 0, "duration": 86}, {"note": 75, "velocity": 111, "duration": 165}, {"note": 0, "velocity": 0, "duration": 75}, {"note": 73, "velocity": 108, "duration": 240}, {"note": 75, "velocity": 120, "duration": 73}, {"note": 73, "velocity": 105, "duration": 63}, {"note": 71, "velocity": 111, "duration": 178}, {"note": 0, "velocity": 0, "duration": 62}, {"note": 68, "velocity": 111, "duration": 164}, {"note": 0, "velocity": 0, "duration": 76}, {"note": 66, "velocity": 108, "duration": 1333}, {"note": 0, "velocity": 0, "duration": 587}, {"note": 68, "velocity": 120, "duration": 597}, {"note": 0, "velocity": 0, "duration": 123}, {"note": 71, "velocity": 111, "duration": 185}, {"note": 71, "velocity": 108, "duration": 165}, {"note": 0, "velocity": 0, "duration": 75}, {"note": 71, "velocity": 111, "duration": 166}, {"note": 0, "velocity": 0, "duration": 74}, {"note": 68, "velocity": 102, "duration": 183}, {"note": 66, "velocity": 108, "duration": 179}, {"note": 0, "velocity": 0, "duration": 61}, {"note": 71, "velocity": 105, "duration": 196}, {"note": 73, "velocity": 105, "duration": 166}, {"note": 0, "velocity": 0, "duration": 74}, {"note": 75, "velocity": 105, "duration": 194}, {"note": 80, "velocity": 114, "duration": 173}, {"note": 0, "velocity": 0, "duration": 67}, {"note": 78, "velocity": 108, "duration": 315}, {"note": 0, "velocity": 0, "duration": 165}, {"note": 71, "velocity": 105, "duration": 188}, {"note": 73, "velocity": 108, "duration": 179}, {"note": 0, "velocity": 0, "duration": 61}, {"note": 75, "velocity": 100, "duration": 673}, {"note": 80, "velocity": 108, "duration": 185}, {"note": 78, "velocity": 100, "duration": 196}, {"note": 75, "velocity": 111, "duration": 78}, {"note": 78, "velocity": 111, "duration": 69}, {"note": 75, "velocity": 114, "duration": 203}, {"note": 73, "velocity": 111, "duration": 140}, {"note": 0, "velocity": 0, "duration": 100}, {"note": 71, "velocity": 114, "duration": 1237}, {"note": 0, "velocity": 0, "duration": 203}, {"note": 71, "velocity": 108, "duration": 199}, {"note": 70, "velocity": 111, "duration": 181}, {"note": 68, "velocity": 117, "duration": 186}, {"note": 68, "velocity": 117, "duration": 183}, {"note": 75, "velocity": 120, "duration": 181}, {"note": 73, "velocity": 114, "duration": 200}, {"note": 75, "velocity": 108, "duration": 365}, {"note": 0, "velocity": 0, "duration": 115}, {"note": 75, "velocity": 114, "duration": 194}, {"note": 78, "velocity": 111, "duration": 183}, {"note": 80, "velocity": 108, "duration": 132}, {"note": 0, "velocity": 0, "duration": 108}, {"note": 80, "velocity": 94, "duration": 75}, {"note": 80, "velocity": 94, "duration": 66}, {"note": 82, "velocity": 108, "duration": 90}, {"note": 80, "velocity": 114, "duration": 62}, {"note": 78, "velocity": 117, "duration": 186}, {"note": 75, "velocity": 120, "duration": 337}, {"note": 0, "velocity": 0, "duration": 143}, {"note": 75, "velocity": 117, "duration": 81}, {"note": 78, "velocity": 111, "duration": 294}, {"note": 0, "velocity": 0, "duration": 66}, {"note": 80, "velocity": 102, "duration": 158}, {"note": 0, "velocity": 0, "duration": 82}, {"note": 80, "velocity": 105, "duration": 154}, {"note": 0, "velocity": 0, "duration": 86}, {"note": 80, "velocity": 111, "duration": 68}, {"note": 80, "velocity": 102, "duration": 240}, {"note": 80, "velocity": 105, "duration": 83}, {"note": 83, "velocity": 117, "duration": 133}, {"note": 0, "velocity": 0, "duration": 107}, {"note": 83, "velocity": 117, "duration": 91}, {"note": 80, "velocity": 108, "duration": 73}, {"note": 78, "velocity": 114, "duration": 120}, {"note": 80, "velocity": 97, "duration": 102}, {"note": 78, "velocity": 111, "duration": 73}, {"note": 75, "velocity": 108, "duration": 240}, {"note": 0, "velocity": 0, "duration": 120}, {"note": 78, "velocity": 111, "duration": 740}, {"note": 0, "velocity": 0, "duration": 940}, {"note": 83, "velocity": 111, "duration": 109}, {"note": 0, "velocity": 0, "duration": 131}, {"note": 83, "velocity": 111, "duration": 112}, {"note": 0, "velocity": 0, "duration": 128}, {"note": 83, "velocity": 111, "duration": 167}, {"note": 0, "velocity": 0, "duration": 73}, {"note": 80, "velocity": 117, "duration": 152}, {"note": 0, "velocity": 0, "duration": 88}, {"note": 83, "velocity": 117, "duration": 168}, {"note": 0, "velocity": 0, "duration": 72}, {"note": 85, "velocity": 102, "duration": 71}, {"note": 83, "velocity": 114, "duration": 62}, {"note": 80, "velocity": 114, "duration": 229}, {"note": 0, "velocity": 0, "duration": 251}, {"note": 83, "velocity": 114, "duration": 169}, {"note": 0, "velocity": 0, "duration": 71}, {"note": 85, "velocity": 105, "duration": 84}, {"note": 83, "velocity": 114, "duration": 70}, {"note": 80, "velocity": 117, "duration": 179}, {"note": 0, "velocity": 0, "duration": 61}, {"note": 78, "velocity": 111, "duration": 165}, {"note": 0, "velocity": 0, "duration": 75}, {"note": 78, "velocity": 108, "duration": 212}, {"note": 75, "velocity": 114, "duration": 482}, {"note": 0, "velocity": 0, "duration": 238}, {"note": 83, "velocity": 114, "duration": 148}, {"note": 0, "velocity": 0, "duration": 92}, {"note": 80, "velocity": 102, "duration": 64}, {"note": 80, "velocity": 108, "duration": 82}, {"note": 78, "velocity": 105, "duration": 157}, {"note": 0, "velocity": 0, "duration": 83}, {"note": 75, "velocity": 105, "duration": 144}, {"note": 0, "velocity": 0, "duration": 96}, {"note": 73, "velocity": 105, "duration": 163}, {"note": 0, "velocity": 0, "duration": 77}, {"note": 71, "velocity": 114, "duration": 174}, {"note": 0, "velocity": 0, "duration": 66}, {"note": 78, "velocity": 108, "duration": 169}, {"note": 0, "velocity": 0, "duration": 71}, {"note": 75, "velocity": 108, "duration": 467}, {"note": 73, "velocity": 111, "duration": 973}, {"note": 75, "velocity": 111, "duration": 225}, {"note": 73, "velocity": 100, "duration": 197}, {"note": 71, "velocity": 105, "duration": 122}, {"note": 0, "velocity": 0, "duration": 118}, {"note": 71, "velocity": 108, "duration": 236}, {"note": 68, "velocity": 105, "duration": 760}, {"note": 0, "velocity": 0, "duration": 200}, {"note": 80, "velocity": 100, "duration": 139}, {"note": 0, "velocity": 0, "duration": 101}, {"note": 80, "velocity": 108, "duration": 204}, {"note": 83, "velocity": 111, "duration": 137}, {"note": 0, "velocity": 0, "duration": 103}, {"note": 78, "velocity": 96, "duration": 988}, {"note": 0, "velocity": 0, "duration": 452}, {"note": 80, "velocity": 111, "duration": 214}, {"note": 78, "velocity": 111, "duration": 174}, {"note": 0, "velocity": 0, "duration": 66}, {"note": 75, "velocity": 111, "duration": 591}, {"note": 0, "velocity": 0, "duration": 129}, {"note": 78, "velocity": 100, "duration": 168}, {"note": 0, "velocity": 0, "duration": 72}, {"note": 73, "velocity": 102, "duration": 172}, {"note": 0, "velocity": 0, "duration": 68}, {"note": 71, "velocity": 111, "duration": 199}, {"note": 68, "velocity": 114, "duration": 168}, {"note": 0, "velocity": 0, "duration": 72}, {"note": 66, "velocity": 111, "duration": 176}, {"note": 0, "velocity": 0, "duration": 64}, {"note": 71, "velocity": 105, "duration": 1888}, {"note": 0, "velocity": 0, "duration": 7712}, {"note": 66, "velocity": 117, "duration": 519}, {"note": 0, "velocity": 0, "duration": 201}, {"note": 68, "velocity": 117, "duration": 82}, {"note": 66, "velocity": 105, "duration": 75}, {"note": 71, "velocity": 111, "duration": 152}, {"note": 0, "velocity": 0, "duration": 88}, {"note": 73, "velocity": 111, "duration": 124}, {"note": 0, "velocity": 0, "duration": 116}, {"note": 75, "velocity": 117, "duration": 317}, {"note": 0, "velocity": 0, "duration": 163}, {"note": 78, "velocity": 108, "duration": 187}, {"note": 80, "velocity": 105, "duration": 135}, {"note": 0, "velocity": 0, "duration": 105}, {"note": 80, "velocity": 105, "duration": 178}, {"note": 0, "velocity": 0, "duration": 62}, {"note": 78, "velocity": 100, "duration": 184}, {"note": 75, "velocity": 94, "duration": 362}, {"note": 0, "velocity": 0, "duration": 118}, {"note": 73, "velocity": 102, "duration": 193}, {"note": 71, "velocity": 117, "duration": 172}, {"note": 0, "velocity": 0, "duration": 68}, {"note": 73, "velocity": 102, "duration": 189}, {"note": 75, "velocity": 100, "duration": 146}, {"note": 0, "velocity": 0, "duration": 94}, {"note": 75, "velocity": 111, "duration": 154}, {"note": 0, "velocity": 0, "duration": 86}, {"note": 75, "velocity": 111, "duration": 165}, {"note": 0, "velocity": 0, "duration": 75}, {"note": 73, "velocity": 108, "duration": 240}, {"note": 75, "velocity": 120, "duration": 73}, {"note": 73, "velocity": 105, "duration": 63}, {"note": 71, "velocity": 111, "duration": 178}, {"note": 0, "velocity": 0, "duration": 62}, {"note": 68, "velocity": 111, "duration": 164}, {"note": 0, "velocity": 0, "duration": 76}, {"note": 66, "velocity": 108, "duration": 1333}, {"note": 0, "velocity": 0, "duration": 587}, {"note": 68, "velocity": 120, "duration": 597}, {"note": 0, "velocity": 0, "duration": 123}, {"note": 71, "velocity": 111, "duration": 185}, {"note": 71, "velocity": 108, "duration": 165}, {"note": 0, "velocity": 0, "duration": 75}, {"note": 71, "velocity": 111, "duration": 166}, {"note": 0, "velocity": 0, "duration": 74}, {"note": 68, "velocity": 102, "duration": 183}, {"note": 66, "velocity": 108, "duration": 179}, {"note": 0, "velocity": 0, "duration": 61}, {"note": 71, "velocity": 105, "duration": 196}, {"note": 73, "velocity": 105, "duration": 166}, {"note": 0, "velocity": 0, "duration": 74}, {"note": 75, "velocity": 105, "duration": 194}, {"note": 80, "velocity": 114, "duration": 173}, {"note": 0, "velocity": 0, "duration": 67}, {"note": 78, "velocity": 108, "duration": 315}, {"note": 0, "velocity": 0, "duration": 165}, {"note": 71, "velocity": 105, "duration": 188}, {"note": 73, "velocity": 108, "duration": 179}, {"note": 0, "velocity": 0, "duration": 61}, {"note": 75, "velocity": 100, "duration": 673}, {"note": 80, "velocity": 108, "duration": 185}, {"note": 78, "velocity": 100, "duration": 196}, {"note": 75, "velocity": 111, "duration": 78}, {"note": 78, "velocity": 111, "duration": 69}, {"note": 75, "velocity": 114, "duration": 203}, {"note": 73, "velocity": 111, "duration": 140}, {"note": 0, "velocity": 0, "duration": 100}, {"note": 71, "velocity": 114, "duration": 1237}, {"note": 0, "velocity": 0, "duration": 203}, {"note": 71, "velocity": 108, "duration": 199}, {"note": 70, "velocity": 111, "duration": 181}, {"note": 68, "velocity": 117, "duration": 186}, {"note": 68, "velocity": 117, "duration": 183}, {"note": 75, "velocity": 120, "duration": 181}, {"note": 73, "velocity": 114, "duration": 200}, {"note": 75, "velocity": 108, "duration": 365}, {"note": 0, "velocity": 0, "duration": 115}, {"note": 75, "velocity": 114, "duration": 194}, {"note": 78, "velocity": 111, "duration": 183}, {"note": 80, "velocity": 108, "duration": 132}, {"note": 0, "velocity": 0, "duration": 108}, {"note": 80, "velocity": 94, "duration": 75}, {"note": 80, "velocity": 94, "duration": 66}, {"note": 82, "velocity": 108, "duration": 90}, {"note": 80, "velocity": 114, "duration": 62}, {"note": 78, "velocity": 117, "duration": 186}, {"note": 75, "velocity": 120, "duration": 337}, {"note": 0, "velocity": 0, "duration": 143}, {"note": 75, "velocity": 117, "duration": 81}, {"note": 78, "velocity": 111, "duration": 294}, {"note": 0, "velocity": 0, "duration": 66}, {"note": 80, "velocity": 102, "duration": 158}, {"note": 0, "velocity": 0, "duration": 82}, {"note": 80, "velocity": 105, "duration": 154}, {"note": 0, "velocity": 0, "duration": 86}, {"note": 80, "velocity": 111, "duration": 68}, {"note": 80, "velocity": 102, "duration": 240}, {"note": 80, "velocity": 105, "duration": 83}, {"note": 83, "velocity": 117, "duration": 133}, {"note": 0, "velocity": 0, "duration": 107}, {"note": 83, "velocity": 117, "duration": 91}, {"note": 80, "velocity": 108, "duration": 73}, {"note": 78, "velocity": 114, "duration": 120}, {"note": 80, "velocity": 97, "duration": 102}, {"note": 78, "velocity": 111, "duration": 73}, {"note": 75, "velocity": 108, "duration": 240}, {"note": 0, "velocity": 0, "duration": 120}, {"note": 78, "velocity": 111, "duration": 740}, {"note": 0, "velocity": 0, "duration": 940}, {"note": 83, "velocity": 111, "duration": 109}, {"note": 0, "velocity": 0, "duration": 131}, {"note": 83, "velocity": 111, "duration": 112}, {"note": 0, "velocity": 0, "duration": 128}, {"note": 83, "velocity": 111, "duration": 167}, {"note": 0, "velocity": 0, "duration": 73}, {"note": 80, "velocity": 117, "duration": 152}, {"note": 0, "velocity": 0, "duration": 88}, {"note": 83, "velocity": 117, "duration": 168}, {"note": 0, "velocity": 0, "duration": 72}, {"note": 85, "velocity": 102, "duration": 71}, {"note": 83, "velocity": 114, "duration": 62}, {"note": 80, "velocity": 114, "duration": 229}, {"note": 0, "velocity": 0, "duration": 251}, {"note": 83, "velocity": 114, "duration": 169}, {"note": 0, "velocity": 0, "duration": 71}, {"note": 85, "velocity": 105, "duration": 84}, {"note": 83, "velocity": 114, "duration": 70}, {"note": 80, "velocity": 117, "duration": 179}, {"note": 0, "velocity": 0, "duration": 61}, {"note": 78, "velocity": 111, "duration": 165}, {"note": 0, "velocity": 0, "duration": 75}, {"note": 78, "velocity": 108, "duration": 212}, {"note": 75, "velocity": 114, "duration": 482}, {"note": 0, "velocity": 0, "duration": 238}, {"note": 83, "velocity": 114, "duration": 148}, {"note": 0, "velocity": 0, "duration": 92}, {"note": 80, "velocity": 102, "duration": 64}, {"note": 80, "velocity": 108, "duration": 82}, {"note": 78, "velocity": 105, "duration": 157}, {"note": 0, "velocity": 0, "duration": 83}, {"note": 75, "velocity": 105, "duration": 144}, {"note": 0, "velocity": 0, "duration": 96}, {"note": 73, "velocity": 105, "duration": 163}, {"note": 0, "velocity": 0, "duration": 77}, {"note": 71, "velocity": 114, "duration": 174}, {"note": 0, "velocity": 0, "duration": 66}, {"note": 78, "velocity": 108, "duration": 169}, {"note": 0, "velocity": 0, "duration": 71}, {"note": 75, "velocity": 108, "duration": 467}, {"note": 73, "velocity": 111, "duration": 973}, {"note": 75, "velocity": 111, "duration": 225}, {"note": 73, "velocity": 100, "duration": 197}, {"note": 71, "velocity": 105, "duration": 122}, {"note": 0, "velocity": 0, "duration": 118}, {"note": 71, "velocity": 108, "duration": 236}, {"note": 68, "velocity": 105, "duration": 760}, {"note": 0, "velocity": 0, "duration": 200}, {"note": 80, "velocity": 100, "duration": 139}, {"note": 0, "velocity": 0, "duration": 101}, {"note": 80, "velocity": 108, "duration": 204}, {"note": 83, "velocity": 111, "duration": 137}, {"note": 0, "velocity": 0, "duration": 103}, {"note": 78, "velocity": 96, "duration": 988}, {"note": 0, "velocity": 0, "duration": 452}, {"note": 80, "velocity": 111, "duration": 214}, {"note": 78, "velocity": 111, "duration": 174}, {"note": 0, "velocity": 0, "duration": 66}, {"note": 75, "velocity": 111, "duration": 591}, {"note": 0, "velocity": 0, "duration": 129}, {"note": 78, "velocity": 100, "duration": 168}, {"note": 0, "velocity": 0, "duration": 72}, {"note": 73, "velocity": 102, "duration": 172}, {"note": 0, "velocity": 0, "duration": 68}, {"note": 71, "velocity": 111, "duration": 199}, {"note": 68, "velocity": 114, "duration": 168}, {"note": 0, "velocity": 0, "duration": 72}, {"note": 66, "velocity": 111, "duration": 176}, {"note": 0, "velocity": 0, "duration": 64}, {"note": 71, "velocity": 105, "duration": 1888}, {"note": 0, "velocity": 0, "duration": 14912}, {"note": 71, "velocity": 108, "duration": 199}, {"note": 70, "velocity": 111, "duration": 181}, {"note": 68, "velocity": 117, "duration": 186}, {"note": 68, "velocity": 117, "duration": 183}, {"note": 75, "velocity": 120, "duration": 181}, {"note": 73, "velocity": 114, "duration": 200}, {"note": 75, "velocity": 108, "duration": 365}, {"note": 0, "velocity": 0, "duration": 115}, {"note": 75, "velocity": 114, "duration": 194}, {"note": 78, "velocity": 111, "duration": 183}, {"note": 80, "velocity": 108, "duration": 132}, {"note": 0, "velocity": 0, "duration": 108}, {"note": 80, "velocity": 94, "duration": 75}, {"note": 80, "velocity": 94, "duration": 66}, {"note": 82, "velocity": 108, "duration": 90}, {"note": 80, "velocity": 114, "duration": 62}, {"note": 78, "velocity": 117, "duration": 186}, {"note": 75, "velocity": 120, "duration": 337}, {"note": 0, "velocity": 0, "duration": 143}, {"note": 75, "velocity": 117, "duration": 81}, {"note": 78, "velocity": 111, "duration": 294}, {"note": 0, "velocity": 0, "duration": 66}, {"note": 80, "velocity": 102, "duration": 158}, {"note": 0, "velocity": 0, "duration": 82}, {"note": 80, "velocity": 105, "duration": 154}, {"note": 0, "velocity": 0, "duration": 86}, {"note": 80, "velocity": 111, "duration": 68}, {"note": 80, "velocity": 102, "duration": 240}, {"note": 80, "velocity": 105, "duration": 83}, {"note": 83, "velocity": 117, "duration": 133}, {"note": 0, "velocity": 0, "duration": 107}, {"note": 83, "velocity": 117, "duration": 91}, {"note": 80, "velocity": 108, "duration": 73}, {"note": 78, "velocity": 114, "duration": 120}, {"note": 80, "velocity": 97, "duration": 102}, {"note": 78, "velocity": 111, "duration": 73}, {"note": 75, "velocity": 108, "duration": 240}, {"note": 0, "velocity": 0, "duration": 120}, {"note": 78, "velocity": 111, "duration": 740}, {"note": 0, "velocity": 0, "duration": 940}, {"note": 83, "velocity": 111, "duration": 109}, {"note": 0, "velocity": 0, "duration": 131}, {"note": 83, "velocity": 111, "duration": 112}, {"note": 0, "velocity": 0, "duration": 128}, {"note": 83, "velocity": 111, "duration": 167}, {"note": 0, "velocity": 0, "duration": 73}, {"note": 80, "velocity": 117, "duration": 152}, {"note": 0, "velocity": 0, "duration": 88}, {"note": 83, "velocity": 117, "duration": 168}, {"note": 0, "velocity": 0, "duration": 72}, {"note": 85, "velocity": 102, "duration": 71}, {"note": 83, "velocity": 114, "duration": 62}, {"note": 80, "velocity": 114, "duration": 229}, {"note": 0, "velocity": 0, "duration": 251}, {"note": 83, "velocity": 114, "duration": 169}, {"note": 0, "velocity": 0, "duration": 71}, {"note": 85, "velocity": 105, "duration": 84}, {"note": 83, "velocity": 114, "duration": 70}, {"note": 80, "velocity": 117, "duration": 179}, {"note": 0, "velocity": 0, "duration": 61}, {"note": 78, "velocity": 111, "duration": 165}, {"note": 0, "velocity": 0, "duration": 75}, {"note": 78, "velocity": 108, "duration": 212}, {"note": 75, "velocity": 114, "duration": 482}, {"note": 0, "velocity": 0, "duration": 238}, {"note": 83, "velocity": 114, "duration": 148}, {"note": 0, "velocity": 0, "duration": 92}, {"note": 80, "velocity": 102, "duration": 64}, {"note": 80, "velocity": 108, "duration": 82}, {"note": 78, "velocity": 105, "duration": 157}, {"note": 0, "velocity": 0, "duration": 83}, {"note": 75, "velocity": 105, "duration": 144}, {"note": 0, "velocity": 0, "duration": 96}, {"note": 73, "velocity": 105, "duration": 163}, {"note": 0, "velocity": 0, "duration": 77}, {"note": 71, "velocity": 114, "duration": 174}, {"note": 0, "velocity": 0, "duration": 66}, {"note": 78, "velocity": 108, "duration": 169}, {"note": 0, "velocity": 0, "duration": 71}, {"note": 75, "velocity": 108, "duration": 467}, {"note": 73, "velocity": 111, "duration": 973}, {"note": 75, "velocity": 111, "duration": 225}, {"note": 73, "velocity": 100, "duration": 197}, {"note": 71, "velocity": 105, "duration": 122}, {"note": 0, "velocity": 0, "duration": 118}, {"note": 71, "velocity": 108, "duration": 236}, {"note": 68, "velocity": 105, "duration": 760}, {"note": 0, "velocity": 0, "duration": 200}, {"note": 80, "velocity": 100, "duration": 139}, {"note": 0, "velocity": 0, "duration": 101}, {"note": 80, "velocity": 108, "duration": 204}, {"note": 83, "velocity": 111, "duration": 137}, {"note": 0, "velocity": 0, "duration": 103}, {"note": 78, "velocity": 96, "duration": 988}, {"note": 0, "velocity": 0, "duration": 452}, {"note": 80, "velocity": 111, "duration": 214}, {"note": 78, "velocity": 111, "duration": 174}, {"note": 0, "velocity": 0, "duration": 66}, {"note": 75, "velocity": 111, "duration": 591}, {"note": 0, "velocity": 0, "duration": 129}, {"note": 78, "velocity": 100, "duration": 168}, {"note": 0, "velocity": 0, "duration": 72}, {"note": 73, "velocity": 102, "duration": 172}, {"note": 0, "velocity": 0, "duration": 68}, {"note": 71, "velocity": 111, "duration": 199}, {"note": 68, "velocity": 114, "duration": 168}, {"note": 0, "velocity": 0, "duration": 72}, {"note": 66, "velocity": 111, "duration": 176}, {"note": 0, "velocity": 0, "duration": 64}, {"note": 71, "velocity": 105, "duration": 1888}]]