[[{"note": 70, "velocity": 108, "duration": 613}, {"note": 0, "velocity": 0, "duration": 107}, {"note": 70, "velocity": 100, "duration": 171}, {"note": 0, "velocity": 0, "duration": 69}, {"note": 68, "velocity": 97, "duration": 157}, {"note": 0, "velocity": 0, "duration": 83}, {"note": 70, "velocity": 102, "duration": 173}, {"note": 0, "velocity": 0, "duration": 67}, {"note": 68, "velocity": 94, "duration": 173}, {"note": 0, "velocity": 0, "duration": 67}, {"note": 63, "velocity": 100, "duration": 180}, {"note": 66, "velocity": 97, "duration": 1221}, {"note": 0, "velocity": 0, "duration": 219}, {"note": 70, "velocity": 102, "duration": 188}, {"note": 73, "velocity": 94, "duration": 177}, {"note": 0, "velocity": 0, "duration": 63}, {"note": 75, "velocity": 97, "duration": 157}, {"note": 0, "velocity": 0, "duration": 83}, {"note": 75, "velocity": 92, "duration": 137}, {"note": 0, "velocity": 0, "duration": 103}, {"note": 75, "velocity": 82, "duration": 198}, {"note": 78, "velocity": 94, "duration": 157}, {"note": 0, "velocity": 0, "duration": 83}, {"note": 75, "velocity": 94, "duration": 408}, {"note": 0, "velocity": 0, "duration": 72}, {"note": 73, "velocity": 102, "duration": 211}, {"note": 70, "velocity": 105, "duration": 186}, {"note": 73, "velocity": 97, "duration": 971}, {"note": 0, "velocity": 0, "duration": 949}, {"note": 75, "velocity": 105, "duration": 183}, {"note": 75, "velocity": 94, "duration": 183}, {"note": 75, "velocity": 84, "duration": 183}, {"note": 73, "velocity": 97, "duration": 180}, {"note": 75, "velocity": 97, "duration": 207}, {"note": 78, "velocity": 94, "duration": 182}, {"note": 75, "velocity": 102, "duration": 366}, {"note": 0, "velocity": 0, "duration": 114}, {"note": 73, "velocity": 97, "duration": 198}, {"note": 70, "velocity": 97, "duration": 189}, {"note": 70, "velocity": 87, "duration": 177}, {"note": 0, "velocity": 0, "duration": 63}, {"note": 68, "velocity": 97, "duration": 175}, {"note": 0, "velocity": 0, "duration": 65}, {"note": 66, "velocity": 102, "duration": 387}, {"note": 0, "velocity": 0, "duration": 573}, {"note": 68, "velocity": 89, "duration": 178}, {"note": 0, "velocity": 0, "duration": 62}, {"note": 68, "velocity": 94, "duration": 147}, {"note": 0, "velocity": 0, "duration": 93}, {"note": 68, "velocity": 92, "duration": 155}, {"note": 0, "velocity": 0, "duration": 85}, {"note": 70, "velocity": 100, "duration": 160}, {"note": 0, "velocity": 0, "duration": 80}, {"note": 68, "velocity": 97, "duration": 383}, {"note": 0, "velocity": 0, "duration": 97}, {"note": 66, "velocity": 97, "duration": 188}, {"note": 63, "velocity": 97, "duration": 165}, {"note": 0, "velocity": 0, "duration": 75}, {"note": 61, "velocity": 87, "duration": 1203}, {"note": 0, "velocity": 0, "duration": 717}, {"note": 70, "velocity": 100, "duration": 661}, {"note": 70, "velocity": 105, "duration": 173}, {"note": 0, "velocity": 0, "duration": 67}, {"note": 68, "velocity": 89, "duration": 187}, {"note": 70, "velocity": 100, "duration": 157}, {"note": 0, "velocity": 0, "duration": 83}, {"note": 68, "velocity": 97, "duration": 173}, {"note": 0, "velocity": 0, "duration": 67}, {"note": 63, "velocity": 97, "duration": 178}, {"note": 0, "velocity": 0, "duration": 62}, {"note": 66, "velocity": 97, "duration": 1159}, {"note": 0, "velocity": 0, "duration": 281}, {"note": 70, "velocity": 108, "duration": 190}, {"note": 73, "velocity": 92, "duration": 163}, {"note": 0, "velocity": 0, "duration": 77}, {"note": 75, "velocity": 89, "duration": 127}, {"note": 0, "velocity": 0, "duration": 113}, {"note": 75, "velocity": 92, "duration": 131}, {"note": 0, "velocity": 0, "duration": 109}, {"note": 75, "velocity": 89, "duration": 171}, {"note": 0, "velocity": 0, "duration": 69}, {"note": 78, "velocity": 92, "duration": 142}, {"note": 0, "velocity": 0, "duration": 98}, {"note": 75, "velocity": 87, "duration": 360}, {"note": 0, "velocity": 0, "duration": 120}, {"note": 73, "velocity": 94, "duration": 210}, {"note": 70, "velocity": 100, "duration": 182}, {"note": 73, "velocity": 102, "duration": 994}, {"note": 0, "velocity": 0, "duration": 926}, {"note": 75, "velocity": 89, "duration": 184}, {"note": 75, "velocity": 92, "duration": 174}, {"note": 0, "velocity": 0, "duration": 66}, {"note": 75, "velocity": 97, "duration": 171}, {"note": 0, "velocity": 0, "duration": 69}, {"note": 73, "velocity": 100, "duration": 138}, {"note": 0, "velocity": 0, "duration": 102}, {"note": 75, "velocity": 100, "duration": 248}, {"note": 78, "velocity": 89, "duration": 230}, {"note": 75, "velocity": 97, "duration": 399}, {"note": 0, "velocity": 0, "duration": 81}, {"note": 73, "velocity": 94, "duration": 215}, {"note": 70, "velocity": 94, "duration": 146}, {"note": 0, "velocity": 0, "duration": 94}, {"note": 70, "velocity": 94, "duration": 255}, {"note": 68, "velocity": 100, "duration": 187}, {"note": 66, "velocity": 97, "duration": 401}, {"note": 0, "velocity": 0, "duration": 559}, {"note": 68, "velocity": 97, "duration": 164}, {"note": 0, "velocity": 0, "duration": 76}, {"note": 68, "velocity": 94, "duration": 163}, {"note": 0, "velocity": 0, "duration": 77}, {"note": 68, "velocity": 105, "duration": 164}, {"note": 0, "velocity": 0, "duration": 76}, {"note": 70, "velocity": 102, "duration": 151}, {"note": 0, "velocity": 0, "duration": 89}, {"note": 68, "velocity": 102, "duration": 436}, {"note": 66, "velocity": 102, "duration": 194}, {"note": 75, "velocity": 105, "duration": 173}, {"note": 0, "velocity": 0, "duration": 67}, {"note": 73, "velocity": 100, "duration": 1537}, {"note": 0, "velocity": 0, "duration": 383}, {"note": 78, "velocity": 100, "duration": 645}, {"note": 0, "velocity": 0, "duration": 75}, {"note": 77, "velocity": 105, "duration": 178}, {"note": 0, "velocity": 0, "duration": 62}, {"note": 75, "velocity": 100, "duration": 163}, {"note": 0, "velocity": 0, "duration": 77}, {"note": 77, "velocity": 94, "duration": 161}, {"note": 0, "velocity": 0, "duration": 79}, {"note": 75, "velocity": 94, "duration": 171}, {"note": 0, "velocity": 0, "duration": 69}, {"note": 70, "velocity": 105, "duration": 188}, {"note": 73, "velocity": 97, "duration": 1224}, {"note": 0, "velocity": 0, "duration": 696}, {"note": 75, "velocity": 97, "duration": 146}, {"note": 0, "velocity": 0, "duration": 94}, {"note": 75, "velocity": 102, "duration": 134}, {"note": 0, "velocity": 0, "duration": 106}, {"note": 75, "velocity": 97, "duration": 177}, {"note": 0, "velocity": 0, "duration": 63}, {"note": 78, "velocity": 100, "duration": 157}, {"note": 0, "velocity": 0, "duration": 83}, {"note": 75, "velocity": 92, "duration": 380}, {"note": 0, "velocity": 0, "duration": 100}, {"note": 73, "velocity": 94, "duration": 171}, {"note": 0, "velocity": 0, "duration": 69}, {"note": 70, "velocity": 92, "duration": 167}, {"note": 0, "velocity": 0, "duration": 73}, {"note": 68, "velocity": 100, "duration": 1146}, {"note": 0, "velocity": 0, "duration": 774}, {"note": 68, "velocity": 97, "duration": 134}, {"note": 0, "velocity": 0, "duration": 106}, {"note": 68, "velocity": 100, "duration": 135}, {"note": 0, "velocity": 0, "duration": 105}, {"note": 68, "velocity": 100, "duration": 134}, {"note": 0, "velocity": 0, "duration": 106}, {"note": 66, "velocity": 102, "duration": 161}, {"note": 0, "velocity": 0, "duration": 79}, {"note": 68, "velocity": 100, "duration": 378}, {"note": 0, "velocity": 0, "duration": 102}, {"note": 70, "velocity": 105, "duration": 374}, {"note": 0, "velocity": 0, "duration": 106}, {"note": 75, "velocity": 93, "duration": 215}, {"note": 73, "velocity": 102, "duration": 134}, {"note": 0, "velocity": 0, "duration": 106}, {"note": 73, "velocity": 105, "duration": 203}, {"note": 70, "velocity": 105, "duration": 178}, {"note": 0, "velocity": 0, "duration": 62}, {"note": 73, "velocity": 105, "duration": 190}, {"note": 75, "velocity": 102, "duration": 226}, {"note": 73, "velocity": 105, "duration": 385}, {"note": 0, "velocity": 0, "duration": 95}, {"note": 75, "velocity": 102, "duration": 147}, {"note": 0, "velocity": 0, "duration": 93}, {"note": 75, "velocity": 100, "duration": 117}, {"note": 0, "velocity": 0, "duration": 123}, {"note": 75, "velocity": 102, "duration": 138}, {"note": 0, "velocity": 0, "duration": 102}, {"note": 75, "velocity": 105, "duration": 403}, {"note": 0, "velocity": 0, "duration": 77}, {"note": 73, "velocity": 102, "duration": 161}, {"note": 0, "velocity": 0, "duration": 79}, {"note": 73, "velocity": 105, "duration": 200}, {"note": 70, "velocity": 108, "duration": 170}, {"note": 0, "velocity": 0, "duration": 70}, {"note": 73, "velocity": 102, "duration": 1465}, {"note": 0, "velocity": 0, "duration": 455}, {"note": 78, "velocity": 105, "duration": 625}, {"note": 0, "velocity": 0, "duration": 95}, {"note": 77, "velocity": 105, "duration": 189}, {"note": 75, "velocity": 105, "duration": 171}, {"note": 0, "velocity": 0, "duration": 69}, {"note": 77, "velocity": 105, "duration": 164}, {"note": 0, "velocity": 0, "duration": 76}, {"note": 75, "velocity": 100, "duration": 189}, {"note": 70, "velocity": 108, "duration": 189}, {"note": 73, "velocity": 94, "duration": 1264}, {"note": 0, "velocity": 0, "duration": 656}, {"note": 75, "velocity": 102, "duration": 161}, {"note": 0, "velocity": 0, "duration": 79}, {"note": 75, "velocity": 100, "duration": 136}, {"note": 0, "velocity": 0, "duration": 104}, {"note": 75, "velocity": 92, "duration": 164}, {"note": 0, "velocity": 0, "duration": 76}, {"note": 78, "velocity": 97, "duration": 146}, {"note": 0, "velocity": 0, "duration": 94}, {"note": 75, "velocity": 94, "duration": 372}, {"note": 0, "velocity": 0, "duration": 108}, {"note": 73, "velocity": 94, "duration": 175}, {"note": 0, "velocity": 0, "duration": 65}, {"note": 70, "velocity": 100, "duration": 172}, {"note": 0, "velocity": 0, "duration": 68}, {"note": 68, "velocity": 100, "duration": 1217}, {"note": 0, "velocity": 0, "duration": 703}, {"note": 68, "velocity": 102, "duration": 159}, {"note": 0, "velocity": 0, "duration": 81}, {"note": 68, "velocity": 105, "duration": 171}, {"note": 0, "velocity": 0, "duration": 69}, {"note": 68, "velocity": 97, "duration": 184}, {"note": 66, "velocity": 108, "duration": 187}, {"note": 68, "velocity": 97, "duration": 393}, {"note": 0, "velocity": 0, "duration": 87}, {"note": 70, "velocity": 102, "duration": 386}, {"note": 0, "velocity": 0, "duration": 94}, {"note": 75, "velocity": 100, "duration": 186}, {"note": 73, "velocity": 102, "duration": 148}, {"note": 0, "velocity": 0, "duration": 92}, {"note": 73, "velocity": 105, "duration": 182}, {"note": 70, "velocity": 108, "duration": 171}, {"note": 0, "velocity": 0, "duration": 69}, {"note": 75, "velocity": 92, "duration": 481}, {"note": 73, "velocity": 92, "duration": 351}, {"note": 0, "velocity": 0, "duration": 129}, {"note": 75, "velocity": 89, "duration": 148}, {"note": 0, "velocity": 0, "duration": 92}, {"note": 75, "velocity": 94, "duration": 129}, {"note": 0, "velocity": 0, "duration": 111}, {"note": 75, "velocity": 97, "duration": 136}, {"note": 0, "velocity": 0, "duration": 104}, {"note": 75, "velocity": 105, "duration": 382}, {"note": 0, "velocity": 0, "duration": 98}, {"note": 73, "velocity": 102, "duration": 173}, {"note": 0, "velocity": 0, "duration": 67}, {"note": 73, "velocity": 97, "duration": 200}, {"note": 70, "velocity": 108, "duration": 169}, {"note": 0, "velocity": 0, "duration": 71}, {"note": 73, "velocity": 105, "duration": 1454}, {"note": 0, "velocity": 0, "duration": 466}, {"note": 73, "velocity": 87, "duration": 163}, {"note": 0, "velocity": 0, "duration": 77}, {"note": 70, "velocity": 100, "duration": 180}, {"note": 68, "velocity": 97, "duration": 154}, {"note": 0, "velocity": 0, "duration": 86}, {"note": 70, "velocity": 94, "duration": 186}, {"note": 68, "velocity": 100, "duration": 391}, {"note": 0, "velocity": 0, "duration": 89}, {"note": 63, "velocity": 94, "duration": 416}, {"note": 0, "velocity": 0, "duration": 64}, {"note": 66, "velocity": 100, "duration": 1849}, {"note": 0, "velocity": 0, "duration": 15431}, {"note": 70, "velocity": 100, "duration": 661}, {"note": 70, "velocity": 105, "duration": 173}, {"note": 0, "velocity": 0, "duration": 67}, {"note": 68, "velocity": 89, "duration": 187}, {"note": 70, "velocity": 100, "duration": 157}, {"note": 0, "velocity": 0, "duration": 83}, {"note": 68, "velocity": 97, "duration": 173}, {"note": 0, "velocity": 0, "duration": 67}, {"note": 63, "velocity": 97, "duration": 178}, {"note": 0, "velocity": 0, "duration": 62}, {"note": 66, "velocity": 97, "duration": 1159}, {"note": 0, "velocity": 0, "duration": 281}, {"note": 70, "velocity": 108, "duration": 190}, {"note": 73, "velocity": 92, "duration": 163}, {"note": 0, "velocity": 0, "duration": 77}, {"note": 75, "velocity": 89, "duration": 127}, {"note": 0, "velocity": 0, "duration": 113}, {"note": 75, "velocity": 92, "duration": 131}, {"note": 0, "velocity": 0, "duration": 109}, {"note": 75, "velocity": 89, "duration": 171}, {"note": 0, "velocity": 0, "duration": 69}, {"note": 78, "velocity": 92, "duration": 142}, {"note": 0, "velocity": 0, "duration": 98}, {"note": 75, "velocity": 87, "duration": 360}, {"note": 0, "velocity": 0, "duration": 120}, {"note": 73, "velocity": 94, "duration": 210}, {"note": 70, "velocity": 100, "duration": 182}, {"note": 73, "velocity": 102, "duration": 994}, {"note": 0, "velocity": 0, "duration": 926}, {"note": 75, "velocity": 89, "duration": 184}, {"note": 75, "velocity": 92, "duration": 174}, {"note": 0, "velocity": 0, "duration": 66}, {"note": 75, "velocity": 97, "duration": 171}, {"note": 0, "velocity": 0, "duration": 69}, {"note": 73, "velocity": 100, "duration": 138}, {"note": 0, "velocity": 0, "duration": 102}, {"note": 75, "velocity": 100, "duration": 248}, {"note": 78, "velocity": 89, "duration": 230}, {"note": 75, "velocity": 97, "duration": 399}, {"note": 0, "velocity": 0, "duration": 81}, {"note": 73, "velocity": 94, "duration": 215}, {"note": 70, "velocity": 94, "duration": 146}, {"note": 0, "velocity": 0, "duration": 94}, {"note": 70, "velocity": 94, "duration": 255}, {"note": 68, "velocity": 100, "duration": 187}, {"note": 66, "velocity": 97, "duration": 401}, {"note": 0, "velocity": 0, "duration": 559}, {"note": 68, "velocity": 97, "duration": 164}, {"note": 0, "velocity": 0, "duration": 76}, {"note": 68, "velocity": 94, "duration": 163}, {"note": 0, "velocity": 0, "duration": 77}, {"note": 68, "velocity": 105, "duration": 164}, {"note": 0, "velocity": 0, "duration": 76}, {"note": 70, "velocity": 102, "duration": 151}, {"note": 0, "velocity": 0, "duration": 89}, {"note": 68, "velocity": 102, "duration": 436}, {"note": 66, "velocity": 102, "duration": 194}, {"note": 75, "velocity": 105, "duration": 173}, {"note": 0, "velocity": 0, "duration": 67}, {"note": 73, "velocity": 100, "duration": 1537}, {"note": 0, "velocity": 0, "duration": 383}, {"note": 78, "velocity": 100, "duration": 645}, {"note": 0, "velocity": 0, "duration": 75}, {"note": 77, "velocity": 105, "duration": 178}, {"note": 0, "velocity": 0, "duration": 62}, {"note": 75, "velocity": 100, "duration": 163}, {"note": 0, "velocity": 0, "duration": 77}, {"note": 77, "velocity": 94, "duration": 161}, {"note": 0, "velocity": 0, "duration": 79}, {"note": 75, "velocity": 94, "duration": 171}, {"note": 0, "velocity": 0, "duration": 69}, {"note": 70, "velocity": 105, "duration": 188}, {"note": 73, "velocity": 97, "duration": 1224}, {"note": 0, "velocity": 0, "duration": 696}, {"note": 75, "velocity": 97, "duration": 146}, {"note": 0, "velocity": 0, "duration": 94}, {"note": 75, "velocity": 102, "duration": 134}, {"note": 0, "velocity": 0, "duration": 106}, {"note": 75, "velocity": 97, "duration": 177}, {"note": 0, "velocity": 0, "duration": 63}, {"note": 78, "velocity": 100, "duration": 157}, {"note": 0, "velocity": 0, "duration": 83}, {"note": 75, "velocity": 92, "duration": 380}, {"note": 0, "velocity": 0, "duration": 100}, {"note": 73, "velocity": 94, "duration": 171}, {"note": 0, "velocity": 0, "duration": 69}, {"note": 70, "velocity": 92, "duration": 167}, {"note": 0, "velocity": 0, "duration": 73}, {"note": 68, "velocity": 100, "duration": 1146}, {"note": 0, "velocity": 0, "duration": 774}, {"note": 68, "velocity": 97, "duration": 134}, {"note": 0, "velocity": 0, "duration": 106}, {"note": 68, "velocity": 100, "duration": 135}, {"note": 0, "velocity": 0, "duration": 105}, {"note": 68, "velocity": 100, "duration": 134}, {"note": 0, "velocity": 0, "duration": 106}, {"note": 66, "velocity": 102, "duration": 161}, {"note": 0, "velocity": 0, "duration": 79}, {"note": 68, "velocity": 100, "duration": 378}, {"note": 0, "velocity": 0, "duration": 102}, {"note": 70, "velocity": 105, "duration": 374}, {"note": 0, "velocity": 0, "duration": 106}, {"note": 75, "velocity": 93, "duration": 215}, {"note": 73, "velocity": 102, "duration": 134}, {"note": 0, "velocity": 0, "duration": 106}, {"note": 73, "velocity": 105, "duration": 203}, {"note": 70, "velocity": 105, "duration": 178}, {"note": 0, "velocity": 0, "duration": 62}, {"note": 73, "velocity": 105, "duration": 190}, {"note": 75, "velocity": 102, "duration": 226}, {"note": 73, "velocity": 105, "duration": 385}, {"note": 0, "velocity": 0, "duration": 95}, {"note": 75, "velocity": 102, "duration": 147}, {"note": 0, "velocity": 0, "duration": 93}, {"note": 75, "velocity": 100, "duration": 117}, {"note": 0, "velocity": 0, "duration": 123}, {"note": 75, "velocity": 102, "duration": 138}, {"note": 0, "velocity": 0, "duration": 102}, {"note": 75, "velocity": 105, "duration": 403}, {"note": 0, "velocity": 0, "duration": 77}, {"note": 73, "velocity": 102, "duration": 161}, {"note": 0, "velocity": 0, "duration": 79}, {"note": 73, "velocity": 105, "duration": 200}, {"note": 70, "velocity": 108, "duration": 170}, {"note": 0, "velocity": 0, "duration": 70}, {"note": 73, "velocity": 102, "duration": 1465}, {"note": 0, "velocity": 0, "duration": 455}, {"note": 78, "velocity": 105, "duration": 625}, {"note": 0, "velocity": 0, "duration": 95}, {"note": 77, "velocity": 105, "duration": 189}, {"note": 75, "velocity": 105, "duration": 171}, {"note": 0, "velocity": 0, "duration": 69}, {"note": 77, "velocity": 105, "duration": 164}, {"note": 0, "velocity": 0, "duration": 76}, {"note": 75, "velocity": 100, "duration": 189}, {"note": 70, "velocity": 108, "duration": 189}, {"note": 73, "velocity": 94, "duration": 1264}, {"note": 0, "velocity": 0, "duration": 656}, {"note": 75, "velocity": 102, "duration": 161}, {"note": 0, "velocity": 0, "duration": 79}, {"note": 75, "velocity": 100, "duration": 136}, {"note": 0, "velocity": 0, "duration": 104}, {"note": 75, "velocity": 92, "duration": 164}, {"note": 0, "velocity": 0, "duration": 76}, {"note": 78, "velocity": 97, "duration": 146}, {"note": 0, "velocity": 0, "duration": 94}, {"note": 75, "velocity": 94, "duration": 372}, {"note": 0, "velocity": 0, "duration": 108}, {"note": 73, "velocity": 94, "duration": 175}, {"note": 0, "velocity": 0, "duration": 65}, {"note": 70, "velocity": 100, "duration": 172}, {"note": 0, "velocity": 0, "duration": 68}, {"note": 68, "velocity": 100, "duration": 1217}, {"note": 0, "velocity": 0, "duration": 703}, {"note": 68, "velocity": 102, "duration": 159}, {"note": 0, "velocity": 0, "duration": 81}, {"note": 68, "velocity": 105, "duration": 171}, {"note": 0, "velocity": 0, "duration": 69}, {"note": 68, "velocity": 97, "duration": 184}, {"note": 66, "velocity": 108, "duration": 187}, {"note": 68, "velocity": 97, "duration": 393}, {"note": 0, "velocity": 0, "duration": 87}, {"note": 70, "velocity": 102, "duration": 386}, {"note": 0, "velocity": 0, "duration": 94}, {"note": 75, "velocity": 100, "duration": 186}, {"note": 73, "velocity": 102, "duration": 148}, {"note": 0, "velocity": 0, "duration": 92}, {"note": 73, "velocity": 105, "duration": 182}, {"note": 70, "velocity": 108, "duration": 171}, {"note": 0, "velocity": 0, "duration": 69}, {"note": 75, "velocity": 92, "duration": 481}, {"note": 73, "velocity": 92, "duration": 351}, {"note": 0, "velocity": 0, "duration": 129}, {"note": 75, "velocity": 89, "duration": 148}, {"note": 0, "velocity": 0, "duration": 92}, {"note": 75, "velocity": 94, "duration": 129}, {"note": 0, "velocity": 0, "duration": 111}, {"note": 75, "velocity": 97, "duration": 136}, {"note": 0, "velocity": 0, "duration": 104}, {"note": 75, "velocity": 105, "duration": 382}, {"note": 0, "velocity": 0, "duration": 98}, {"note": 73, "velocity": 102, "duration": 173}, {"note": 0, "velocity": 0, "duration": 67}, {"note": 73, "velocity": 97, "duration": 200}, {"note": 70, "velocity": 108, "duration": 169}, {"note": 0, "velocity": 0, "duration": 71}, {"note": 73, "velocity": 105, "duration": 1454}, {"note": 0, "velocity": 0, "duration": 466}, {"note": 78, "velocity": 100, "duration": 645}, {"note": 0, "velocity": 0, "duration": 75}, {"note": 77, "velocity": 105, "duration": 178}, {"note": 0, "velocity": 0, "duration": 62}, {"note": 75, "velocity": 100, "duration": 163}, {"note": 0, "velocity": 0, "duration": 77}, {"note": 77, "velocity": 94, "duration": 161}, {"note": 0, "velocity": 0, "duration": 79}, {"note": 75, "velocity": 94, "duration": 171}, {"note": 0, "velocity": 0, "duration": 69}, {"note": 70, "velocity": 105, "duration": 188}, {"note": 73, "velocity": 97, "duration": 1224}, {"note": 0, "velocity": 0, "duration": 696}, {"note": 75, "velocity": 97, "duration": 146}, {"note": 0, "velocity": 0, "duration": 94}, {"note": 75, "velocity": 102, "duration": 134}, {"note": 0, "velocity": 0, "duration": 106}, {"note": 75, "velocity": 97, "duration": 177}, {"note": 0, "velocity": 0, "duration": 63}, {"note": 78, "velocity": 100, "duration": 157}, {"note": 0, "velocity": 0, "duration": 83}, {"note": 75, "velocity": 92, "duration": 380}, {"note": 0, "velocity": 0, "duration": 100}, {"note": 73, "velocity": 94, "duration": 171}, {"note": 0, "velocity": 0, "duration": 69}, {"note": 70, "velocity": 92, "duration": 167}, {"note": 0, "velocity": 0, "duration": 73}, {"note": 68, "velocity": 100, "duration": 1146}, {"note": 0, "velocity": 0, "duration": 774}, {"note": 68, "velocity": 97, "duration": 134}, {"note": 0, "velocity": 0, "duration": 106}, {"note": 68, "velocity": 100, "duration": 135}, {"note": 0, "velocity": 0, "duration": 105}, {"note": 68, "velocity": 100, "duration": 134}, {"note": 0, "velocity": 0, "duration": 106}, {"note": 66, "velocity": 102, "duration": 161}, {"note": 0, "velocity": 0, "duration": 79}, {"note": 68, "velocity": 100, "duration": 378}, {"note": 0, "velocity": 0, "duration": 102}, {"note": 70, "velocity": 105, "duration": 374}, {"note": 0, "velocity": 0, "duration": 106}, {"note": 75, "velocity": 93, "duration": 215}, {"note": 73, "velocity": 102, "duration": 134}, {"note": 0, "velocity": 0, "duration": 106}, {"note": 73, "velocity": 105, "duration": 203}, {"note": 70, "velocity": 105, "duration": 178}, {"note": 0, "velocity": 0, "duration": 62}, {"note": 73, "velocity": 105, "duration": 190}, {"note": 75, "velocity": 102, "duration": 226}, {"note": 73, "velocity": 105, "duration": 385}, {"note": 0, "velocity": 0, "duration": 95}, {"note": 75, "velocity": 102, "duration": 147}, {"note": 0, "velocity": 0, "duration": 93}, {"note": 75, "velocity": 100, "duration": 117}, {"note": 0, "velocity": 0, "duration": 123}, {"note": 75, "velocity": 102, "duration": 138}, {"note": 0, "velocity": 0, "duration": 102}, {"note": 75, "velocity": 105, "duration": 403}, {"note": 0, "velocity": 0, "duration": 77}, {"note": 73, "velocity": 102, "duration": 161}, {"note": 0, "velocity": 0, "duration": 79}, {"note": 73, "velocity": 105, "duration": 200}, {"note": 70, "velocity": 108, "duration": 170}, {"note": 0, "velocity": 0, "duration": 70}, {"note": 73, "velocity": 102, "duration": 1465}, {"note": 0, "velocity": 0, "duration": 455}, {"note": 78, "velocity": 105, "duration": 625}, {"note": 0, "velocity": 0, "duration": 95}, {"note": 77, "velocity": 105, "duration": 189}, {"note": 75, "velocity": 105, "duration": 171}, {"note": 0, "velocity": 0, "duration": 69}, {"note": 77, "velocity": 105, "duration": 164}, {"note": 0, "velocity": 0, "duration": 76}, {"note": 75, "velocity": 100, "duration": 189}, {"note": 70, "velocity": 108, "duration": 189}, {"note": 73, "velocity": 94, "duration": 1264}, {"note": 0, "velocity": 0, "duration": 656}, {"note": 75, "velocity": 102, "duration": 161}, {"note": 0, "velocity": 0, "duration": 79}, {"note": 75, "velocity": 100, "duration": 136}, {"note": 0, "velocity": 0, "duration": 104}, {"note": 75, "velocity": 92, "duration": 164}, {"note": 0, "velocity": 0, "duration": 76}, {"note": 78, "velocity": 97, "duration": 146}, {"note": 0, "velocity": 0, "duration": 94}, {"note": 75, "velocity": 94, "duration": 372}, {"note": 0, "velocity": 0, "duration": 108}, {"note": 73, "velocity": 94, "duration": 175}, {"note": 0, "velocity": 0, "duration": 65}, {"note": 70, "velocity": 100, "duration": 172}, {"note": 0, "velocity": 0, "duration": 68}, {"note": 68, "velocity": 100, "duration": 1217}, {"note": 0, "velocity": 0, "duration": 703}, {"note": 68, "velocity": 102, "duration": 159}, {"note": 0, "velocity": 0, "duration": 81}, {"note": 68, "velocity": 105, "duration": 171}, {"note": 0, "velocity": 0, "duration": 69}, {"note": 68, "velocity": 97, "duration": 184}, {"note": 66, "velocity": 108, "duration": 187}, {"note": 68, "velocity": 97, "duration": 393}, {"note": 0, "velocity": 0, "duration": 87}, {"note": 70, "velocity": 102, "duration": 386}, {"note": 0, "velocity": 0, "duration": 94}, {"note": 75, "velocity": 100, "duration": 186}, {"note": 73, "velocity": 102, "duration": 148}, {"note": 0, "velocity": 0, "duration": 92}, {"note": 73, "velocity": 105, "duration": 182}, {"note": 70, "velocity": 108, "duration": 171}, {"note": 0, "velocity": 0, "duration": 69}, {"note": 75, "velocity": 92, "duration": 481}, {"note": 73, "velocity": 92, "duration": 351}, {"note": 0, "velocity": 0, "duration": 129}, {"note": 75, "velocity": 89, "duration": 148}, {"note": 0, "velocity": 0, "duration": 92}, {"note": 75, "velocity": 94, "duration": 129}, {"note": 0, "velocity": 0, "duration": 111}, {"note": 75, "velocity": 97, "duration": 136}, {"note": 0, "velocity": 0, "duration": 104}, {"note": 75, "velocity": 105, "duration": 382}, {"note": 0, "velocity": 0, "duration": 98}, {"note": 73, "velocity": 102, "duration": 173}, {"note": 0, "velocity": 0, "duration": 67}, {"note": 73, "velocity": 97, "duration": 200}, {"note": 70, "velocity": 108, "duration": 169}, {"note": 0, "velocity": 0, "duration": 71}, {"note": 73, "velocity": 105, "duration": 1454}, {"note": 0, "velocity": 0, "duration": 466}, {"note": 73, "velocity": 87, "duration": 163}, {"note": 0, "velocity": 0, "duration": 77}, {"note": 70, "velocity": 100, "duration": 180}, {"note": 68, "velocity": 97, "duration": 154}, {"note": 0, "velocity": 0, "duration": 86}, {"note": 70, "velocity": 94, "duration": 186}, {"note": 68, "velocity": 100, "duration": 391}, {"note": 0, "velocity": 0, "duration": 89}, {"note": 63, "velocity": 94, "duration": 416}, {"note": 0, "velocity": 0, "duration": 64}, {"note": 66, "velocity": 100, "duration": 1849}]]