[[{"note": 59, "velocity": 100, "duration": 143}, {"note": 68, "velocity": 100, "duration": 824}, {"note": 64, "velocity": 100, "duration": 138}, {"note": 66, "velocity": 100, "duration": 963}, {"note": 66, "velocity": 100, "duration": 150}, {"note": 66, "velocity": 100, "duration": 217}, {"note": 68, "velocity": 100, "duration": 450}, {"note": 66, "velocity": 100, "duration": 140}, {"note": 64, "velocity": 100, "duration": 222}, {"note": 64, "velocity": 100, "duration": 957}, {"note": 66, "velocity": 100, "duration": 247}, {"note": 66, "velocity": 100, "duration": 240}, {"note": 68, "velocity": 100, "duration": 131}, {"note": 69, "velocity": 100, "duration": 362}, {"note": 68, "velocity": 100, "duration": 245}, {"note": 66, "velocity": 100, "duration": 221}, {"note": 64, "velocity": 100, "duration": 242}, {"note": 68, "velocity": 100, "duration": 246}, {"note": 68, "velocity": 100, "duration": 1549}, {"note": 59, "velocity": 100, "duration": 140}, {"note": 68, "velocity": 100, "duration": 820}, {"note": 64, "velocity": 100, "duration": 139}, {"note": 66, "velocity": 100, "duration": 1181}, {"note": 68, "velocity": 100, "duration": 241}, {"note": 68, "velocity": 100, "duration": 241}, {"note": 64, "velocity": 100, "duration": 127}, {"note": 66, "velocity": 100, "duration": 344}, {"note": 64, "velocity": 100, "duration": 966}, {"note": 66, "velocity": 100, "duration": 242}, {"note": 66, "velocity": 100, "duration": 253}, {"note": 68, "velocity": 100, "duration": 127}, {"note": 69, "velocity": 100, "duration": 474}, {"note": 68, "velocity": 100, "duration": 140}, {"note": 66, "velocity": 100, "duration": 223}, {"note": 64, "velocity": 100, "duration": 226}, {"note": 66, "velocity": 100, "duration": 226}, {"note": 64, "velocity": 100, "duration": 1229}, {"note": 64, "velocity": 100, "duration": 176}, {"note": 66, "velocity": 100, "duration": 159}, {"note": 68, "velocity": 100, "duration": 156}, {"note": 71, "velocity": 100, "duration": 682}, {"note": 71, "velocity": 100, "duration": 256}, {"note": 69, "velocity": 100, "duration": 500}, {"note": 69, "velocity": 100, "duration": 222}, {"note": 64, "velocity": 100, "duration": 245}, {"note": 68, "velocity": 100, "duration": 223}, {"note": 66, "velocity": 100, "duration": 103}, {"note": 68, "velocity": 100, "duration": 1113}, {"note": 66, "velocity": 100, "duration": 183}, {"note": 66, "velocity": 100, "duration": 166}, {"note": 68, "velocity": 100, "duration": 140}, {"note": 69, "velocity": 100, "duration": 827}, {"note": 61, "velocity": 100, "duration": 131}, {"note": 73, "velocity": 100, "duration": 263}, {"note": 76, "velocity": 100, "duration": 136}, {"note": 75, "velocity": 100, "duration": 436}, {"note": 68, "velocity": 100, "duration": 151}, {"note": 73, "velocity": 100, "duration": 249}, {"note": 71, "velocity": 100, "duration": 2115}, {"note": 73, "velocity": 100, "duration": 240}, {"note": 76, "velocity": 100, "duration": 239}, {"note": 76, "velocity": 100, "duration": 828}, {"note": 78, "velocity": 100, "duration": 146}, {"note": 75, "velocity": 100, "duration": 697}, {"note": 73, "velocity": 100, "duration": 232}, {"note": 71, "velocity": 100, "duration": 1207}, {"note": 69, "velocity": 100, "duration": 120}, {"note": 68, "velocity": 100, "duration": 138}, {"note": 69, "velocity": 100, "duration": 131}, {"note": 71, "velocity": 100, "duration": 351}, {"note": 73, "velocity": 100, "duration": 349}, {"note": 76, "velocity": 100, "duration": 355}, {"note": 73, "velocity": 100, "duration": 245}, {"note": 78, "velocity": 100, "duration": 1438}, {"note": 76, "velocity": 100, "duration": 229}, {"note": 78, "velocity": 100, "duration": 136}, {"note": 76, "velocity": 100, "duration": 149}, {"note": 80, "velocity": 100, "duration": 1449}, {"note": 76, "velocity": 100, "duration": 164}, {"note": 80, "velocity": 100, "duration": 146}, {"note": 76, "velocity": 100, "duration": 150}, {"note": 78, "velocity": 100, "duration": 242}, {"note": 78, "velocity": 100, "duration": 252}, {"note": 78, "velocity": 100, "duration": 140}, {"note": 75, "velocity": 100, "duration": 319}, {"note": 73, "velocity": 100, "duration": 243}, {"note": 71, "velocity": 100, "duration": 391}, {"note": 68, "velocity": 100, "duration": 121}, {"note": 68, "velocity": 100, "duration": 112}, {"note": 71, "velocity": 100, "duration": 129}, {"note": 73, "velocity": 100, "duration": 218}, {"note": 78, "velocity": 100, "duration": 132}, {"note": 76, "velocity": 100, "duration": 467}, {"note": 64, "velocity": 100, "duration": 133}, {"note": 76, "velocity": 100, "duration": 238}, {"note": 75, "velocity": 100, "duration": 475}, {"note": 73, "velocity": 100, "duration": 248}, {"note": 75, "velocity": 100, "duration": 241}, {"note": 73, "velocity": 100, "duration": 131}, {"note": 71, "velocity": 100, "duration": 570}, {"note": 81, "velocity": 100, "duration": 271}, {"note": 80, "velocity": 100, "duration": 262}, {"note": 76, "velocity": 100, "duration": 211}, {"note": 78, "velocity": 100, "duration": 123}, {"note": 76, "velocity": 100, "duration": 139}, {"note": 80, "velocity": 100, "duration": 276}, {"note": 85, "velocity": 100, "duration": 1158}, {"note": 85, "velocity": 100, "duration": 176}, {"note": 87, "velocity": 100, "duration": 171}, {"note": 88, "velocity": 100, "duration": 135}, {"note": 87, "velocity": 100, "duration": 240}, {"note": 88, "velocity": 100, "duration": 234}, {"note": 87, "velocity": 100, "duration": 247}, {"note": 83, "velocity": 100, "duration": 468}, {"note": 80, "velocity": 100, "duration": 459}, {"note": 80, "velocity": 100, "duration": 287}, {"note": 78, "velocity": 100, "duration": 119}, {"note": 76, "velocity": 100, "duration": 120}, {"note": 73, "velocity": 100, "duration": 578}, {"note": 73, "velocity": 100, "duration": 145}, {"note": 76, "velocity": 100, "duration": 337}, {"note": 75, "velocity": 100, "duration": 636}, {"note": 73, "velocity": 100, "duration": 179}, {"note": 75, "velocity": 100, "duration": 129}, {"note": 76, "velocity": 100, "duration": 2223}, {"note": 0, "velocity": 0, "duration": 5055}, {"note": 59, "velocity": 100, "duration": 143}, {"note": 68, "velocity": 100, "duration": 824}, {"note": 64, "velocity": 100, "duration": 138}, {"note": 66, "velocity": 100, "duration": 963}, {"note": 66, "velocity": 100, "duration": 150}, {"note": 66, "velocity": 100, "duration": 217}, {"note": 68, "velocity": 100, "duration": 450}, {"note": 66, "velocity": 100, "duration": 140}, {"note": 64, "velocity": 100, "duration": 222}, {"note": 64, "velocity": 100, "duration": 957}, {"note": 66, "velocity": 100, "duration": 247}, {"note": 66, "velocity": 100, "duration": 240}, {"note": 68, "velocity": 100, "duration": 131}, {"note": 69, "velocity": 100, "duration": 362}, {"note": 68, "velocity": 100, "duration": 245}, {"note": 66, "velocity": 100, "duration": 221}, {"note": 64, "velocity": 100, "duration": 242}, {"note": 68, "velocity": 100, "duration": 246}, {"note": 68, "velocity": 100, "duration": 1549}, {"note": 59, "velocity": 100, "duration": 140}, {"note": 68, "velocity": 100, "duration": 820}, {"note": 64, "velocity": 100, "duration": 139}, {"note": 66, "velocity": 100, "duration": 1181}, {"note": 68, "velocity": 100, "duration": 241}, {"note": 68, "velocity": 100, "duration": 241}, {"note": 64, "velocity": 100, "duration": 127}, {"note": 66, "velocity": 100, "duration": 344}, {"note": 64, "velocity": 100, "duration": 966}, {"note": 66, "velocity": 100, "duration": 242}, {"note": 66, "velocity": 100, "duration": 253}, {"note": 68, "velocity": 100, "duration": 127}, {"note": 69, "velocity": 100, "duration": 474}, {"note": 68, "velocity": 100, "duration": 140}, {"note": 66, "velocity": 100, "duration": 223}, {"note": 64, "velocity": 100, "duration": 226}, {"note": 66, "velocity": 100, "duration": 226}, {"note": 64, "velocity": 100, "duration": 1229}, {"note": 64, "velocity": 100, "duration": 176}, {"note": 66, "velocity": 100, "duration": 159}, {"note": 68, "velocity": 100, "duration": 156}, {"note": 71, "velocity": 100, "duration": 682}, {"note": 71, "velocity": 100, "duration": 256}, {"note": 69, "velocity": 100, "duration": 500}, {"note": 69, "velocity": 100, "duration": 222}, {"note": 64, "velocity": 100, "duration": 245}, {"note": 68, "velocity": 100, "duration": 223}, {"note": 66, "velocity": 100, "duration": 103}, {"note": 68, "velocity": 100, "duration": 1113}, {"note": 66, "velocity": 100, "duration": 183}, {"note": 66, "velocity": 100, "duration": 166}, {"note": 68, "velocity": 100, "duration": 140}, {"note": 69, "velocity": 100, "duration": 827}, {"note": 61, "velocity": 100, "duration": 131}, {"note": 73, "velocity": 100, "duration": 263}, {"note": 76, "velocity": 100, "duration": 136}, {"note": 75, "velocity": 100, "duration": 436}, {"note": 68, "velocity": 100, "duration": 151}, {"note": 73, "velocity": 100, "duration": 249}, {"note": 71, "velocity": 100, "duration": 2115}, {"note": 73, "velocity": 100, "duration": 240}, {"note": 76, "velocity": 100, "duration": 239}, {"note": 76, "velocity": 100, "duration": 828}, {"note": 78, "velocity": 100, "duration": 146}, {"note": 75, "velocity": 100, "duration": 697}, {"note": 73, "velocity": 100, "duration": 232}, {"note": 71, "velocity": 100, "duration": 1207}, {"note": 69, "velocity": 100, "duration": 120}, {"note": 68, "velocity": 100, "duration": 138}, {"note": 69, "velocity": 100, "duration": 131}, {"note": 71, "velocity": 100, "duration": 351}, {"note": 73, "velocity": 100, "duration": 349}, {"note": 76, "velocity": 100, "duration": 355}, {"note": 73, "velocity": 100, "duration": 245}, {"note": 78, "velocity": 100, "duration": 1438}, {"note": 76, "velocity": 100, "duration": 229}, {"note": 78, "velocity": 100, "duration": 136}, {"note": 76, "velocity": 100, "duration": 149}, {"note": 80, "velocity": 100, "duration": 1449}, {"note": 76, "velocity": 100, "duration": 164}, {"note": 80, "velocity": 100, "duration": 146}, {"note": 76, "velocity": 100, "duration": 150}, {"note": 78, "velocity": 100, "duration": 242}, {"note": 78, "velocity": 100, "duration": 252}, {"note": 78, "velocity": 100, "duration": 140}, {"note": 75, "velocity": 100, "duration": 319}, {"note": 73, "velocity": 100, "duration": 243}, {"note": 71, "velocity": 100, "duration": 391}, {"note": 68, "velocity": 100, "duration": 121}, {"note": 68, "velocity": 100, "duration": 112}, {"note": 71, "velocity": 100, "duration": 129}, {"note": 73, "velocity": 100, "duration": 218}, {"note": 78, "velocity": 100, "duration": 132}, {"note": 76, "velocity": 100, "duration": 467}, {"note": 64, "velocity": 100, "duration": 133}, {"note": 76, "velocity": 100, "duration": 238}, {"note": 75, "velocity": 100, "duration": 475}, {"note": 73, "velocity": 100, "duration": 248}, {"note": 75, "velocity": 100, "duration": 241}, {"note": 73, "velocity": 100, "duration": 131}, {"note": 71, "velocity": 100, "duration": 570}, {"note": 81, "velocity": 100, "duration": 271}, {"note": 80, "velocity": 100, "duration": 262}, {"note": 76, "velocity": 100, "duration": 211}, {"note": 78, "velocity": 100, "duration": 123}, {"note": 76, "velocity": 100, "duration": 139}, {"note": 80, "velocity": 100, "duration": 276}, {"note": 85, "velocity": 100, "duration": 1158}, {"note": 85, "velocity": 100, "duration": 176}, {"note": 87, "velocity": 100, "duration": 171}, {"note": 88, "velocity": 100, "duration": 135}, {"note": 87, "velocity": 100, "duration": 240}, {"note": 88, "velocity": 100, "duration": 234}, {"note": 87, "velocity": 100, "duration": 247}, {"note": 83, "velocity": 100, "duration": 468}, {"note": 80, "velocity": 100, "duration": 459}, {"note": 80, "velocity": 100, "duration": 287}, {"note": 78, "velocity": 100, "duration": 119}, {"note": 76, "velocity": 100, "duration": 120}, {"note": 73, "velocity": 100, "duration": 578}, {"note": 73, "velocity": 100, "duration": 145}, {"note": 76, "velocity": 100, "duration": 337}, {"note": 75, "velocity": 100, "duration": 636}, {"note": 73, "velocity": 100, "duration": 179}, {"note": 75, "velocity": 100, "duration": 129}, {"note": 76, "velocity": 100, "duration": 1171}, {"note": 76, "velocity": 100, "duration": 229}, {"note": 78, "velocity": 100, "duration": 136}, {"note": 76, "velocity": 100, "duration": 149}, {"note": 80, "velocity": 100, "duration": 1449}, {"note": 76, "velocity": 100, "duration": 164}, {"note": 80, "velocity": 100, "duration": 146}, {"note": 76, "velocity": 100, "duration": 150}, {"note": 78, "velocity": 100, "duration": 242}, {"note": 78, "velocity": 100, "duration": 252}, {"note": 78, "velocity": 100, "duration": 140}, {"note": 75, "velocity": 100, "duration": 319}, {"note": 73, "velocity": 100, "duration": 243}, {"note": 71, "velocity": 100, "duration": 391}, {"note": 68, "velocity": 100, "duration": 121}, {"note": 68, "velocity": 100, "duration": 112}, {"note": 71, "velocity": 100, "duration": 129}, {"note": 73, "velocity": 100, "duration": 218}, {"note": 78, "velocity": 100, "duration": 132}, {"note": 76, "velocity": 100, "duration": 467}, {"note": 64, "velocity": 100, "duration": 133}, {"note": 76, "velocity": 100, "duration": 238}, {"note": 75, "velocity": 100, "duration": 475}, {"note": 73, "velocity": 100, "duration": 248}, {"note": 75, "velocity": 100, "duration": 241}, {"note": 73, "velocity": 100, "duration": 131}, {"note": 71, "velocity": 100, "duration": 570}, {"note": 81, "velocity": 100, "duration": 271}, {"note": 80, "velocity": 100, "duration": 262}, {"note": 76, "velocity": 100, "duration": 211}, {"note": 78, "velocity": 100, "duration": 123}, {"note": 76, "velocity": 100, "duration": 139}, {"note": 80, "velocity": 100, "duration": 276}, {"note": 85, "velocity": 100, "duration": 1158}, {"note": 85, "velocity": 100, "duration": 176}, {"note": 87, "velocity": 100, "duration": 171}, {"note": 88, "velocity": 100, "duration": 135}, {"note": 87, "velocity": 100, "duration": 240}, {"note": 88, "velocity": 100, "duration": 234}, {"note": 87, "velocity": 100, "duration": 247}, {"note": 83, "velocity": 100, "duration": 468}, {"note": 80, "velocity": 100, "duration": 459}, {"note": 80, "velocity": 100, "duration": 287}, {"note": 78, "velocity": 100, "duration": 119}, {"note": 76, "velocity": 100, "duration": 120}, {"note": 73, "velocity": 100, "duration": 578}, {"note": 73, "velocity": 100, "duration": 145}, {"note": 76, "velocity": 100, "duration": 337}, {"note": 75, "velocity": 100, "duration": 636}, {"note": 73, "velocity": 100, "duration": 179}, {"note": 75, "velocity": 100, "duration": 129}, {"note": 76, "velocity": 100, "duration": 1117}]]