[[{"note": 66, "velocity": 87, "duration": 166}, {"note": 0, "velocity": 0, "duration": 74}, {"note": 68, "velocity": 97, "duration": 335}, {"note": 0, "velocity": 0, "duration": 145}, {"note": 69, "velocity": 93, "duration": 324}, {"note": 0, "velocity": 0, "duration": 156}, {"note": 69, "velocity": 82, "duration": 188}, {"note": 68, "velocity": 87, "duration": 255}, {"note": 0, "velocity": 0, "duration": 225}, {"note": 68, "velocity": 97, "duration": 177}, {"note": 0, "velocity": 0, "duration": 63}, {"note": 73, "velocity": 92, "duration": 464}, {"note": 0, "velocity": 0, "duration": 496}, {"note": 71, "velocity": 105, "duration": 164}, {"note": 0, "velocity": 0, "duration": 76}, {"note": 73, "velocity": 92, "duration": 340}, {"note": 0, "velocity": 0, "duration": 140}, {"note": 66, "velocity": 60, "duration": 166}, {"note": 0, "velocity": 0, "duration": 74}, {"note": 66, "velocity": 92, "duration": 622}, {"note": 0, "velocity": 0, "duration": 1058}, {"note": 65, "velocity": 70, "duration": 214}, {"note": 66, "velocity": 84, "duration": 108}, {"note": 0, "velocity": 0, "duration": 132}, {"note": 66, "velocity": 82, "duration": 102}, {"note": 0, "velocity": 0, "duration": 138}, {"note": 66, "velocity": 76, "duration": 124}, {"note": 0, "velocity": 0, "duration": 116}, {"note": 68, "velocity": 92, "duration": 206}, {"note": 66, "velocity": 80, "duration": 109}, {"note": 0, "velocity": 0, "duration": 131}, {"note": 68, "velocity": 94, "duration": 364}, {"note": 0, "velocity": 0, "duration": 116}, {"note": 69, "velocity": 96, "duration": 1082}, {"note": 0, "velocity": 0, "duration": 1558}, {"note": 66, "velocity": 87, "duration": 181}, {"note": 69, "velocity": 96, "duration": 133}, {"note": 0, "velocity": 0, "duration": 107}, {"note": 66, "velocity": 100, "duration": 142}, {"note": 0, "velocity": 0, "duration": 98}, {"note": 78, "velocity": 108, "duration": 128}, {"note": 0, "velocity": 0, "duration": 112}, {"note": 78, "velocity": 84, "duration": 115}, {"note": 0, "velocity": 0, "duration": 125}, {"note": 78, "velocity": 97, "duration": 113}, {"note": 0, "velocity": 0, "duration": 127}, {"note": 78, "velocity": 89, "duration": 140}, {"note": 0, "velocity": 0, "duration": 100}, {"note": 78, "velocity": 100, "duration": 206}, {"note": 0, "velocity": 0, "duration": 274}, {"note": 76, "velocity": 100, "duration": 106}, {"note": 0, "velocity": 0, "duration": 134}, {"note": 71, "velocity": 89, "duration": 197}, {"note": 73, "velocity": 76, "duration": 743}, {"note": 0, "velocity": 0, "duration": 457}, {"note": 73, "velocity": 89, "duration": 93}, {"note": 0, "velocity": 0, "duration": 147}, {"note": 73, "velocity": 94, "duration": 95}, {"note": 0, "velocity": 0, "duration": 145}, {"note": 73, "velocity": 94, "duration": 108}, {"note": 0, "velocity": 0, "duration": 132}, {"note": 74, "velocity": 102, "duration": 106}, {"note": 0, "velocity": 0, "duration": 134}, {"note": 74, "velocity": 99, "duration": 148}, {"note": 0, "velocity": 0, "duration": 92}, {"note": 73, "velocity": 87, "duration": 144}, {"note": 0, "velocity": 0, "duration": 96}, {"note": 66, "velocity": 102, "duration": 157}, {"note": 0, "velocity": 0, "duration": 803}, {"note": 69, "velocity": 77, "duration": 155}, {"note": 0, "velocity": 0, "duration": 85}, {"note": 73, "velocity": 97, "duration": 188}, {"note": 71, "velocity": 89, "duration": 146}, {"note": 0, "velocity": 0, "duration": 94}, {"note": 68, "velocity": 97, "duration": 651}, {"note": 0, "velocity": 0, "duration": 789}, {"note": 69, "velocity": 79, "duration": 213}, {"note": 66, "velocity": 60, "duration": 1071}, {"note": 0, "velocity": 0, "duration": 1569}, {"note": 70, "velocity": 111, "duration": 173}, {"note": 0, "velocity": 0, "duration": 67}, {"note": 71, "velocity": 105, "duration": 146}, {"note": 0, "velocity": 0, "duration": 94}, {"note": 73, "velocity": 102, "duration": 150}, {"note": 0, "velocity": 0, "duration": 90}, {"note": 66, "velocity": 108, "duration": 150}, {"note": 0, "velocity": 0, "duration": 90}, {"note": 76, "velocity": 108, "duration": 412}, {"note": 0, "velocity": 0, "duration": 68}, {"note": 74, "velocity": 102, "duration": 273}, {"note": 0, "velocity": 0, "duration": 207}, {"note": 74, "velocity": 90, "duration": 171}, {"note": 0, "velocity": 0, "duration": 69}, {"note": 74, "velocity": 108, "duration": 154}, {"note": 0, "velocity": 0, "duration": 86}, {"note": 73, "velocity": 102, "duration": 175}, {"note": 0, "velocity": 0, "duration": 65}, {"note": 74, "velocity": 105, "duration": 672}, {"note": 0, "velocity": 0, "duration": 528}, {"note": 64, "velocity": 105, "duration": 167}, {"note": 0, "velocity": 0, "duration": 73}, {"note": 66, "velocity": 102, "duration": 142}, {"note": 0, "velocity": 0, "duration": 98}, {"note": 68, "velocity": 105, "duration": 142}, {"note": 0, "velocity": 0, "duration": 98}, {"note": 64, "velocity": 100, "duration": 162}, {"note": 0, "velocity": 0, "duration": 78}, {"note": 74, "velocity": 102, "duration": 171}, {"note": 0, "velocity": 0, "duration": 69}, {"note": 73, "velocity": 102, "duration": 357}, {"note": 0, "velocity": 0, "duration": 123}, {"note": 73, "velocity": 94, "duration": 240}, {"note": 71, "velocity": 102, "duration": 147}, {"note": 0, "velocity": 0, "duration": 93}, {"note": 69, "velocity": 105, "duration": 178}, {"note": 0, "velocity": 0, "duration": 62}, {"note": 71, "velocity": 105, "duration": 173}, {"note": 0, "velocity": 0, "duration": 67}, {"note": 73, "velocity": 94, "duration": 734}, {"note": 0, "velocity": 0, "duration": 466}, {"note": 70, "velocity": 105, "duration": 164}, {"note": 0, "velocity": 0, "duration": 76}, {"note": 71, "velocity": 108, "duration": 138}, {"note": 0, "velocity": 0, "duration": 102}, {"note": 73, "velocity": 108, "duration": 171}, {"note": 0, "velocity": 0, "duration": 69}, {"note": 66, "velocity": 102, "duration": 171}, {"note": 0, "velocity": 0, "duration": 69}, {"note": 76, "velocity": 111, "duration": 187}, {"note": 74, "velocity": 96, "duration": 144}, {"note": 0, "velocity": 0, "duration": 96}, {"note": 74, "velocity": 99, "duration": 133}, {"note": 0, "velocity": 0, "duration": 107}, {"note": 74, "velocity": 99, "duration": 240}, {"note": 74, "velocity": 99, "duration": 240}, {"note": 0, "velocity": 0, "duration": 240}, {"note": 78, "velocity": 105, "duration": 153}, {"note": 0, "velocity": 0, "duration": 87}, {"note": 78, "velocity": 100, "duration": 383}, {"note": 0, "velocity": 0, "duration": 97}, {"note": 76, "velocity": 100, "duration": 366}, {"note": 0, "velocity": 0, "duration": 354}, {"note": 76, "velocity": 97, "duration": 160}, {"note": 0, "velocity": 0, "duration": 80}, {"note": 78, "velocity": 97, "duration": 133}, {"note": 0, "velocity": 0, "duration": 107}, {"note": 80, "velocity": 102, "duration": 106}, {"note": 0, "velocity": 0, "duration": 134}, {"note": 76, "velocity": 102, "duration": 138}, {"note": 0, "velocity": 0, "duration": 102}, {"note": 73, "velocity": 92, "duration": 374}, {"note": 0, "velocity": 0, "duration": 106}, {"note": 73, "velocity": 97, "duration": 106}, {"note": 0, "velocity": 0, "duration": 134}, {"note": 73, "velocity": 89, "duration": 113}, {"note": 0, "velocity": 0, "duration": 127}, {"note": 73, "velocity": 108, "duration": 231}, {"note": 0, "velocity": 0, "duration": 249}, {"note": 71, "velocity": 108, "duration": 155}, {"note": 0, "velocity": 0, "duration": 85}, {"note": 69, "velocity": 109, "duration": 161}, {"note": 0, "velocity": 0, "duration": 79}, {"note": 71, "velocity": 97, "duration": 158}, {"note": 0, "velocity": 0, "duration": 82}, {"note": 73, "velocity": 100, "duration": 2160}, {"note": 0, "velocity": 0, "duration": 1440}, {"note": 81, "velocity": 102, "duration": 213}, {"note": 80, "velocity": 89, "duration": 102}, {"note": 0, "velocity": 0, "duration": 138}, {"note": 80, "velocity": 105, "duration": 209}, {"note": 78, "velocity": 100, "duration": 124}, {"note": 0, "velocity": 0, "duration": 116}, {"note": 73, "velocity": 108, "duration": 164}, {"note": 0, "velocity": 0, "duration": 76}, {"note": 78, "velocity": 111, "duration": 109}, {"note": 0, "velocity": 0, "duration": 131}, {"note": 80, "velocity": 100, "duration": 111}, {"note": 0, "velocity": 0, "duration": 129}, {"note": 81, "velocity": 109, "duration": 126}, {"note": 0, "velocity": 0, "duration": 114}, {"note": 85, "velocity": 114, "duration": 162}, {"note": 0, "velocity": 0, "duration": 78}, {"note": 83, "velocity": 108, "duration": 109}, {"note": 0, "velocity": 0, "duration": 131}, {"note": 83, "velocity": 90, "duration": 135}, {"note": 0, "velocity": 0, "duration": 105}, {"note": 81, "velocity": 87, "duration": 175}, {"note": 0, "velocity": 0, "duration": 65}, {"note": 74, "velocity": 80, "duration": 672}, {"note": 0, "velocity": 0, "duration": 288}, {"note": 85, "velocity": 100, "duration": 173}, {"note": 0, "velocity": 0, "duration": 67}, {"note": 83, "velocity": 92, "duration": 113}, {"note": 0, "velocity": 0, "duration": 127}, {"note": 83, "velocity": 105, "duration": 147}, {"note": 0, "velocity": 0, "duration": 93}, {"note": 80, "velocity": 100, "duration": 147}, {"note": 0, "velocity": 0, "duration": 93}, {"note": 76, "velocity": 100, "duration": 160}, {"note": 0, "velocity": 0, "duration": 80}, {"note": 78, "velocity": 66, "duration": 147}, {"note": 0, "velocity": 0, "duration": 93}, {"note": 80, "velocity": 97, "duration": 131}, {"note": 0, "velocity": 0, "duration": 109}, {"note": 76, "velocity": 100, "duration": 220}, {"note": 73, "velocity": 84, "duration": 1189}, {"note": 0, "velocity": 0, "duration": 491}, {"note": 73, "velocity": 108, "duration": 202}, {"note": 71, "velocity": 100, "duration": 387}, {"note": 0, "velocity": 0, "duration": 93}, {"note": 73, "velocity": 94, "duration": 180}, {"note": 74, "velocity": 112, "duration": 730}, {"note": 0, "velocity": 0, "duration": 230}, {"note": 74, "velocity": 112, "duration": 178}, {"note": 0, "velocity": 0, "duration": 62}, {"note": 73, "velocity": 100, "duration": 570}, {"note": 0, "velocity": 0, "duration": 150}, {"note": 77, "velocity": 105, "duration": 169}, {"note": 0, "velocity": 0, "duration": 71}, {"note": 78, "velocity": 100, "duration": 532}, {"note": 0, "velocity": 0, "duration": 188}, {"note": 78, "velocity": 97, "duration": 155}, {"note": 0, "velocity": 0, "duration": 85}, {"note": 85, "velocity": 108, "duration": 182}, {"note": 83, "velocity": 97, "duration": 96}, {"note": 0, "velocity": 0, "duration": 144}, {"note": 83, "velocity": 108, "duration": 109}, {"note": 0, "velocity": 0, "duration": 131}, {"note": 81, "velocity": 109, "duration": 151}, {"note": 0, "velocity": 0, "duration": 89}, {"note": 75, "velocity": 105, "duration": 293}, {"note": 0, "velocity": 0, "duration": 187}, {"note": 77, "velocity": 102, "duration": 240}, {"note": 78, "velocity": 94, "duration": 142}, {"note": 0, "velocity": 0, "duration": 98}, {"note": 80, "velocity": 111, "duration": 1447}, {"note": 0, "velocity": 0, "duration": 473}, {"note": 81, "velocity": 102, "duration": 213}, {"note": 80, "velocity": 89, "duration": 102}, {"note": 0, "velocity": 0, "duration": 138}, {"note": 80, "velocity": 105, "duration": 209}, {"note": 78, "velocity": 100, "duration": 124}, {"note": 0, "velocity": 0, "duration": 116}, {"note": 73, "velocity": 108, "duration": 164}, {"note": 0, "velocity": 0, "duration": 76}, {"note": 78, "velocity": 111, "duration": 109}, {"note": 0, "velocity": 0, "duration": 131}, {"note": 80, "velocity": 100, "duration": 111}, {"note": 0, "velocity": 0, "duration": 129}, {"note": 81, "velocity": 109, "duration": 126}, {"note": 0, "velocity": 0, "duration": 114}, {"note": 85, "velocity": 114, "duration": 162}, {"note": 0, "velocity": 0, "duration": 78}, {"note": 83, "velocity": 108, "duration": 109}, {"note": 0, "velocity": 0, "duration": 131}, {"note": 83, "velocity": 90, "duration": 135}, {"note": 0, "velocity": 0, "duration": 105}, {"note": 81, "velocity": 87, "duration": 175}, {"note": 0, "velocity": 0, "duration": 65}, {"note": 74, "velocity": 80, "duration": 672}, {"note": 0, "velocity": 0, "duration": 288}, {"note": 85, "velocity": 100, "duration": 173}, {"note": 0, "velocity": 0, "duration": 67}, {"note": 83, "velocity": 92, "duration": 113}, {"note": 0, "velocity": 0, "duration": 127}, {"note": 83, "velocity": 105, "duration": 147}, {"note": 0, "velocity": 0, "duration": 93}, {"note": 80, "velocity": 100, "duration": 147}, {"note": 0, "velocity": 0, "duration": 93}, {"note": 76, "velocity": 100, "duration": 160}, {"note": 0, "velocity": 0, "duration": 80}, {"note": 78, "velocity": 66, "duration": 147}, {"note": 0, "velocity": 0, "duration": 93}, {"note": 80, "velocity": 97, "duration": 476}, {"note": 0, "velocity": 0, "duration": 196}, {"note": 73, "velocity": 92, "duration": 131}, {"note": 0, "velocity": 0, "duration": 103}, {"note": 74, "velocity": 105, "duration": 167}, {"note": 0, "velocity": 0, "duration": 71}, {"note": 73, "velocity": 100, "duration": 746}, {"note": 0, "velocity": 0, "duration": 270}, {"note": 73, "velocity": 108, "duration": 202}, {"note": 71, "velocity": 100, "duration": 387}, {"note": 0, "velocity": 0, "duration": 93}, {"note": 73, "velocity": 94, "duration": 180}, {"note": 74, "velocity": 112, "duration": 730}, {"note": 0, "velocity": 0, "duration": 230}, {"note": 74, "velocity": 112, "duration": 178}, {"note": 0, "velocity": 0, "duration": 62}, {"note": 73, "velocity": 100, "duration": 570}, {"note": 0, "velocity": 0, "duration": 150}, {"note": 77, "velocity": 105, "duration": 169}, {"note": 0, "velocity": 0, "duration": 71}, {"note": 78, "velocity": 100, "duration": 532}, {"note": 0, "velocity": 0, "duration": 188}, {"note": 78, "velocity": 97, "duration": 155}, {"note": 0, "velocity": 0, "duration": 85}, {"note": 85, "velocity": 108, "duration": 182}, {"note": 83, "velocity": 97, "duration": 96}, {"note": 0, "velocity": 0, "duration": 144}, {"note": 83, "velocity": 108, "duration": 109}, {"note": 0, "velocity": 0, "duration": 131}, {"note": 81, "velocity": 109, "duration": 151}, {"note": 0, "velocity": 0, "duration": 89}, {"note": 75, "velocity": 105, "duration": 293}, {"note": 0, "velocity": 0, "duration": 187}, {"note": 77, "velocity": 102, "duration": 240}, {"note": 78, "velocity": 94, "duration": 142}, {"note": 0, "velocity": 0, "duration": 98}, {"note": 80, "velocity": 111, "duration": 1447}, {"note": 0, "velocity": 0, "duration": 16793}, {"note": 70, "velocity": 111, "duration": 173}, {"note": 0, "velocity": 0, "duration": 67}, {"note": 71, "velocity": 105, "duration": 146}, {"note": 0, "velocity": 0, "duration": 94}, {"note": 73, "velocity": 102, "duration": 150}, {"note": 0, "velocity": 0, "duration": 90}, {"note": 66, "velocity": 108, "duration": 150}, {"note": 0, "velocity": 0, "duration": 90}, {"note": 76, "velocity": 108, "duration": 412}, {"note": 0, "velocity": 0, "duration": 68}, {"note": 74, "velocity": 102, "duration": 273}, {"note": 0, "velocity": 0, "duration": 207}, {"note": 74, "velocity": 90, "duration": 171}, {"note": 0, "velocity": 0, "duration": 69}, {"note": 74, "velocity": 108, "duration": 154}, {"note": 0, "velocity": 0, "duration": 86}, {"note": 73, "velocity": 102, "duration": 175}, {"note": 0, "velocity": 0, "duration": 65}, {"note": 74, "velocity": 105, "duration": 672}, {"note": 0, "velocity": 0, "duration": 528}, {"note": 64, "velocity": 105, "duration": 167}, {"note": 0, "velocity": 0, "duration": 73}, {"note": 66, "velocity": 102, "duration": 142}, {"note": 0, "velocity": 0, "duration": 98}, {"note": 68, "velocity": 105, "duration": 142}, {"note": 0, "velocity": 0, "duration": 98}, {"note": 64, "velocity": 100, "duration": 162}, {"note": 0, "velocity": 0, "duration": 78}, {"note": 74, "velocity": 102, "duration": 171}, {"note": 0, "velocity": 0, "duration": 69}, {"note": 73, "velocity": 102, "duration": 357}, {"note": 0, "velocity": 0, "duration": 123}, {"note": 73, "velocity": 94, "duration": 240}, {"note": 71, "velocity": 102, "duration": 147}, {"note": 0, "velocity": 0, "duration": 93}, {"note": 69, "velocity": 105, "duration": 178}, {"note": 0, "velocity": 0, "duration": 62}, {"note": 71, "velocity": 105, "duration": 173}, {"note": 0, "velocity": 0, "duration": 67}, {"note": 73, "velocity": 94, "duration": 734}, {"note": 0, "velocity": 0, "duration": 466}, {"note": 70, "velocity": 105, "duration": 164}, {"note": 0, "velocity": 0, "duration": 76}, {"note": 71, "velocity": 108, "duration": 138}, {"note": 0, "velocity": 0, "duration": 102}, {"note": 73, "velocity": 108, "duration": 171}, {"note": 0, "velocity": 0, "duration": 69}, {"note": 66, "velocity": 102, "duration": 171}, {"note": 0, "velocity": 0, "duration": 69}, {"note": 76, "velocity": 111, "duration": 187}, {"note": 74, "velocity": 96, "duration": 144}, {"note": 0, "velocity": 0, "duration": 96}, {"note": 74, "velocity": 99, "duration": 133}, {"note": 0, "velocity": 0, "duration": 107}, {"note": 74, "velocity": 99, "duration": 240}, {"note": 74, "velocity": 99, "duration": 240}, {"note": 0, "velocity": 0, "duration": 240}, {"note": 78, "velocity": 105, "duration": 153}, {"note": 0, "velocity": 0, "duration": 87}, {"note": 78, "velocity": 100, "duration": 383}, {"note": 0, "velocity": 0, "duration": 97}, {"note": 76, "velocity": 100, "duration": 366}, {"note": 0, "velocity": 0, "duration": 354}, {"note": 76, "velocity": 97, "duration": 160}, {"note": 0, "velocity": 0, "duration": 80}, {"note": 78, "velocity": 97, "duration": 133}, {"note": 0, "velocity": 0, "duration": 107}, {"note": 80, "velocity": 102, "duration": 106}, {"note": 0, "velocity": 0, "duration": 134}, {"note": 76, "velocity": 102, "duration": 138}, {"note": 0, "velocity": 0, "duration": 102}, {"note": 73, "velocity": 92, "duration": 374}, {"note": 0, "velocity": 0, "duration": 106}, {"note": 73, "velocity": 97, "duration": 106}, {"note": 0, "velocity": 0, "duration": 134}, {"note": 73, "velocity": 89, "duration": 113}, {"note": 0, "velocity": 0, "duration": 127}, {"note": 73, "velocity": 108, "duration": 231}, {"note": 0, "velocity": 0, "duration": 249}, {"note": 71, "velocity": 108, "duration": 155}, {"note": 0, "velocity": 0, "duration": 85}, {"note": 69, "velocity": 109, "duration": 161}, {"note": 0, "velocity": 0, "duration": 79}, {"note": 71, "velocity": 97, "duration": 158}, {"note": 0, "velocity": 0, "duration": 82}, {"note": 73, "velocity": 100, "duration": 2160}, {"note": 0, "velocity": 0, "duration": 1440}, {"note": 81, "velocity": 102, "duration": 213}, {"note": 80, "velocity": 89, "duration": 102}, {"note": 0, "velocity": 0, "duration": 138}, {"note": 80, "velocity": 105, "duration": 209}, {"note": 78, "velocity": 100, "duration": 124}, {"note": 0, "velocity": 0, "duration": 116}, {"note": 73, "velocity": 108, "duration": 164}, {"note": 0, "velocity": 0, "duration": 76}, {"note": 78, "velocity": 111, "duration": 109}, {"note": 0, "velocity": 0, "duration": 131}, {"note": 80, "velocity": 100, "duration": 111}, {"note": 0, "velocity": 0, "duration": 129}, {"note": 81, "velocity": 109, "duration": 126}, {"note": 0, "velocity": 0, "duration": 114}, {"note": 85, "velocity": 114, "duration": 162}, {"note": 0, "velocity": 0, "duration": 78}, {"note": 83, "velocity": 108, "duration": 109}, {"note": 0, "velocity": 0, "duration": 131}, {"note": 83, "velocity": 90, "duration": 135}, {"note": 0, "velocity": 0, "duration": 105}, {"note": 81, "velocity": 87, "duration": 175}, {"note": 0, "velocity": 0, "duration": 65}, {"note": 74, "velocity": 80, "duration": 672}, {"note": 0, "velocity": 0, "duration": 288}, {"note": 85, "velocity": 100, "duration": 173}, {"note": 0, "velocity": 0, "duration": 67}, {"note": 83, "velocity": 92, "duration": 113}, {"note": 0, "velocity": 0, "duration": 127}, {"note": 83, "velocity": 105, "duration": 147}, {"note": 0, "velocity": 0, "duration": 93}, {"note": 80, "velocity": 100, "duration": 147}, {"note": 0, "velocity": 0, "duration": 93}, {"note": 76, "velocity": 100, "duration": 160}, {"note": 0, "velocity": 0, "duration": 80}, {"note": 78, "velocity": 66, "duration": 147}, {"note": 0, "velocity": 0, "duration": 93}, {"note": 80, "velocity": 97, "duration": 131}, {"note": 0, "velocity": 0, "duration": 109}, {"note": 76, "velocity": 100, "duration": 220}, {"note": 73, "velocity": 84, "duration": 1189}, {"note": 0, "velocity": 0, "duration": 491}, {"note": 73, "velocity": 108, "duration": 202}, {"note": 71, "velocity": 100, "duration": 387}, {"note": 0, "velocity": 0, "duration": 93}, {"note": 73, "velocity": 94, "duration": 180}, {"note": 74, "velocity": 112, "duration": 730}, {"note": 0, "velocity": 0, "duration": 230}, {"note": 74, "velocity": 112, "duration": 178}, {"note": 0, "velocity": 0, "duration": 62}, {"note": 73, "velocity": 100, "duration": 570}, {"note": 0, "velocity": 0, "duration": 150}, {"note": 77, "velocity": 105, "duration": 169}, {"note": 0, "velocity": 0, "duration": 71}, {"note": 78, "velocity": 100, "duration": 532}, {"note": 0, "velocity": 0, "duration": 188}, {"note": 78, "velocity": 97, "duration": 155}, {"note": 0, "velocity": 0, "duration": 85}, {"note": 85, "velocity": 108, "duration": 182}, {"note": 83, "velocity": 97, "duration": 96}, {"note": 0, "velocity": 0, "duration": 144}, {"note": 83, "velocity": 108, "duration": 109}, {"note": 0, "velocity": 0, "duration": 131}, {"note": 81, "velocity": 109, "duration": 151}, {"note": 0, "velocity": 0, "duration": 89}, {"note": 75, "velocity": 105, "duration": 293}, {"note": 0, "velocity": 0, "duration": 187}, {"note": 77, "velocity": 102, "duration": 240}, {"note": 78, "velocity": 94, "duration": 142}, {"note": 0, "velocity": 0, "duration": 98}, {"note": 80, "velocity": 111, "duration": 1447}, {"note": 0, "velocity": 0, "duration": 473}, {"note": 81, "velocity": 102, "duration": 213}, {"note": 80, "velocity": 89, "duration": 102}, {"note": 0, "velocity": 0, "duration": 138}, {"note": 80, "velocity": 105, "duration": 209}, {"note": 78, "velocity": 100, "duration": 124}, {"note": 0, "velocity": 0, "duration": 116}, {"note": 73, "velocity": 108, "duration": 164}, {"note": 0, "velocity": 0, "duration": 76}, {"note": 78, "velocity": 111, "duration": 109}, {"note": 0, "velocity": 0, "duration": 131}, {"note": 80, "velocity": 100, "duration": 111}, {"note": 0, "velocity": 0, "duration": 129}, {"note": 81, "velocity": 109, "duration": 126}, {"note": 0, "velocity": 0, "duration": 114}, {"note": 85, "velocity": 114, "duration": 162}, {"note": 0, "velocity": 0, "duration": 78}, {"note": 83, "velocity": 108, "duration": 109}, {"note": 0, "velocity": 0, "duration": 131}, {"note": 83, "velocity": 90, "duration": 135}, {"note": 0, "velocity": 0, "duration": 105}, {"note": 81, "velocity": 87, "duration": 175}, {"note": 0, "velocity": 0, "duration": 65}, {"note": 74, "velocity": 80, "duration": 672}, {"note": 0, "velocity": 0, "duration": 288}, {"note": 85, "velocity": 100, "duration": 173}, {"note": 0, "velocity": 0, "duration": 67}, {"note": 83, "velocity": 92, "duration": 113}, {"note": 0, "velocity": 0, "duration": 127}, {"note": 83, "velocity": 105, "duration": 147}, {"note": 0, "velocity": 0, "duration": 93}, {"note": 80, "velocity": 100, "duration": 147}, {"note": 0, "velocity": 0, "duration": 93}, {"note": 76, "velocity": 100, "duration": 160}, {"note": 0, "velocity": 0, "duration": 80}, {"note": 78, "velocity": 66, "duration": 147}, {"note": 0, "velocity": 0, "duration": 93}, {"note": 80, "velocity": 97, "duration": 476}, {"note": 0, "velocity": 0, "duration": 196}, {"note": 73, "velocity": 92, "duration": 131}, {"note": 0, "velocity": 0, "duration": 103}, {"note": 74, "velocity": 105, "duration": 167}, {"note": 0, "velocity": 0, "duration": 71}, {"note": 73, "velocity": 100, "duration": 746}, {"note": 0, "velocity": 0, "duration": 270}, {"note": 73, "velocity": 108, "duration": 202}, {"note": 71, "velocity": 100, "duration": 387}, {"note": 0, "velocity": 0, "duration": 93}, {"note": 73, "velocity": 94, "duration": 180}, {"note": 74, "velocity": 112, "duration": 730}, {"note": 0, "velocity": 0, "duration": 230}, {"note": 74, "velocity": 112, "duration": 178}, {"note": 0, "velocity": 0, "duration": 62}, {"note": 73, "velocity": 100, "duration": 570}, {"note": 0, "velocity": 0, "duration": 150}, {"note": 77, "velocity": 105, "duration": 169}, {"note": 0, "velocity": 0, "duration": 71}, {"note": 78, "velocity": 100, "duration": 532}, {"note": 0, "velocity": 0, "duration": 188}, {"note": 78, "velocity": 97, "duration": 155}, {"note": 0, "velocity": 0, "duration": 85}, {"note": 85, "velocity": 108, "duration": 182}, {"note": 83, "velocity": 97, "duration": 96}, {"note": 0, "velocity": 0, "duration": 144}, {"note": 83, "velocity": 108, "duration": 109}, {"note": 0, "velocity": 0, "duration": 131}, {"note": 81, "velocity": 109, "duration": 151}, {"note": 0, "velocity": 0, "duration": 89}, {"note": 75, "velocity": 105, "duration": 293}, {"note": 0, "velocity": 0, "duration": 187}, {"note": 77, "velocity": 102, "duration": 240}, {"note": 78, "velocity": 94, "duration": 142}, {"note": 0, "velocity": 0, "duration": 98}, {"note": 80, "velocity": 111, "duration": 1447}, {"note": 0, "velocity": 0, "duration": 953}, {"note": 66, "velocity": 87, "duration": 166}, {"note": 0, "velocity": 0, "duration": 74}, {"note": 68, "velocity": 97, "duration": 335}, {"note": 0, "velocity": 0, "duration": 145}, {"note": 69, "velocity": 93, "duration": 672}, {"note": 0, "velocity": 0, "duration": 528}, {"note": 68, "velocity": 97, "duration": 177}, {"note": 0, "velocity": 0, "duration": 63}, {"note": 73, "velocity": 92, "duration": 926}, {"note": 0, "velocity": 0, "duration": 266}, {"note": 71, "velocity": 102, "duration": 174}, {"note": 0, "velocity": 0, "duration": 76}, {"note": 71, "velocity": 97, "duration": 291}, {"note": 0, "velocity": 0, "duration": 154}, {"note": 66, "velocity": 96, "duration": 690}, {"note": 0, "velocity": 0, "duration": 2300}, {"note": 66, "velocity": 102, "duration": 87}, {"note": 0, "velocity": 0, "duration": 84}, {"note": 68, "velocity": 96, "duration": 178}, {"note": 69, "velocity": 87, "duration": 76}, {"note": 69, "velocity": 97, "duration": 1418}, {"note": 0, "velocity": 0, "duration": 1344}, {"note": 66, "velocity": 87, "duration": 181}, {"note": 69, "velocity": 96, "duration": 133}, {"note": 0, "velocity": 0, "duration": 107}, {"note": 66, "velocity": 100, "duration": 142}, {"note": 0, "velocity": 0, "duration": 98}, {"note": 78, "velocity": 108, "duration": 128}, {"note": 0, "velocity": 0, "duration": 112}, {"note": 78, "velocity": 84, "duration": 115}, {"note": 0, "velocity": 0, "duration": 125}, {"note": 78, "velocity": 97, "duration": 113}, {"note": 0, "velocity": 0, "duration": 127}, {"note": 78, "velocity": 89, "duration": 140}, {"note": 0, "velocity": 0, "duration": 100}, {"note": 78, "velocity": 100, "duration": 206}, {"note": 0, "velocity": 0, "duration": 274}, {"note": 76, "velocity": 100, "duration": 106}, {"note": 0, "velocity": 0, "duration": 134}, {"note": 71, "velocity": 89, "duration": 197}, {"note": 73, "velocity": 76, "duration": 743}, {"note": 0, "velocity": 0, "duration": 697}, {"note": 73, "velocity": 94, "duration": 95}, {"note": 0, "velocity": 0, "duration": 145}, {"note": 73, "velocity": 94, "duration": 108}, {"note": 0, "velocity": 0, "duration": 132}, {"note": 74, "velocity": 102, "duration": 106}, {"note": 0, "velocity": 0, "duration": 134}, {"note": 74, "velocity": 99, "duration": 148}, {"note": 0, "velocity": 0, "duration": 92}, {"note": 73, "velocity": 87, "duration": 144}, {"note": 0, "velocity": 0, "duration": 96}, {"note": 66, "velocity": 102, "duration": 157}, {"note": 0, "velocity": 0, "duration": 803}, {"note": 69, "velocity": 77, "duration": 155}, {"note": 0, "velocity": 0, "duration": 85}, {"note": 73, "velocity": 97, "duration": 188}, {"note": 71, "velocity": 89, "duration": 146}, {"note": 0, "velocity": 0, "duration": 94}, {"note": 68, "velocity": 97, "duration": 651}, {"note": 0, "velocity": 0, "duration": 1471}, {"note": 68, "velocity": 96, "duration": 949}, {"note": 69, "velocity": 92, "duration": 650}, {"note": 73, "velocity": 72, "duration": 1512}]]