[[{"note": 69, "velocity": 73, "duration": 111}, {"note": 71, "velocity": 76, "duration": 147}, {"note": 74, "velocity": 82, "duration": 264}, {"note": 74, "velocity": 71, "duration": 122}, {"note": 71, "velocity": 78, "duration": 125}, {"note": 69, "velocity": 60, "duration": 177}, {"note": 71, "velocity": 78, "duration": 178}, {"note": 74, "velocity": 82, "duration": 596}, {"note": 69, "velocity": 89, "duration": 121}, {"note": 71, "velocity": 80, "duration": 117}, {"note": 69, "velocity": 82, "duration": 117}, {"note": 71, "velocity": 71, "duration": 132}, {"note": 69, "velocity": 69, "duration": 245}, {"note": 64, "velocity": 66, "duration": 131}, {"note": 69, "velocity": 78, "duration": 238}, {"note": 67, "velocity": 58, "duration": 955}, {"note": 74, "velocity": 71, "duration": 111}, {"note": 76, "velocity": 57, "duration": 145}, {"note": 79, "velocity": 76, "duration": 132}, {"note": 76, "velocity": 80, "duration": 368}, {"note": 74, "velocity": 73, "duration": 140}, {"note": 76, "velocity": 69, "duration": 238}, {"note": 79, "velocity": 78, "duration": 472}, {"note": 79, "velocity": 78, "duration": 247}, {"note": 76, "velocity": 69, "duration": 127}, {"note": 79, "velocity": 87, "duration": 131}, {"note": 76, "velocity": 76, "duration": 186}, {"note": 71, "velocity": 85, "duration": 254}, {"note": 76, "velocity": 73, "duration": 139}, {"note": 74, "velocity": 82, "duration": 960}, {"note": 0, "velocity": 0, "duration": 9691}, {"note": 71, "velocity": 73, "duration": 122}, {"note": 71, "velocity": 82, "duration": 135}, {"note": 71, "velocity": 78, "duration": 165}, {"note": 69, "velocity": 80, "duration": 194}, {"note": 67, "velocity": 55, "duration": 169}, {"note": 62, "velocity": 64, "duration": 1104}, {"note": 67, "velocity": 76, "duration": 233}, {"note": 66, "velocity": 85, "duration": 192}, {"note": 66, "velocity": 74, "duration": 190}, {"note": 67, "velocity": 71, "duration": 124}, {"note": 66, "velocity": 93, "duration": 229}, {"note": 64, "velocity": 76, "duration": 1068}, {"note": 72, "velocity": 87, "duration": 161}, {"note": 72, "velocity": 73, "duration": 145}, {"note": 72, "velocity": 76, "duration": 205}, {"note": 71, "velocity": 84, "duration": 131}, {"note": 72, "velocity": 87, "duration": 205}, {"note": 71, "velocity": 82, "duration": 133}, {"note": 69, "velocity": 89, "duration": 633}, {"note": 67, "velocity": 57, "duration": 129}, {"note": 67, "velocity": 73, "duration": 222}, {"note": 66, "velocity": 74, "duration": 136}, {"note": 66, "velocity": 63, "duration": 219}, {"note": 67, "velocity": 69, "duration": 211}, {"note": 69, "velocity": 80, "duration": 1200}, {"note": 71, "velocity": 78, "duration": 116}, {"note": 71, "velocity": 80, "duration": 121}, {"note": 71, "velocity": 87, "duration": 133}, {"note": 69, "velocity": 82, "duration": 233}, {"note": 67, "velocity": 87, "duration": 219}, {"note": 62, "velocity": 78, "duration": 1079}, {"note": 66, "velocity": 65, "duration": 116}, {"note": 64, "velocity": 73, "duration": 142}, {"note": 66, "velocity": 63, "duration": 232}, {"note": 67, "velocity": 62, "duration": 138}, {"note": 69, "velocity": 69, "duration": 262}, {"note": 71, "velocity": 87, "duration": 1002}, {"note": 72, "velocity": 89, "duration": 104}, {"note": 72, "velocity": 82, "duration": 111}, {"note": 72, "velocity": 82, "duration": 121}, {"note": 71, "velocity": 66, "duration": 138}, {"note": 72, "velocity": 78, "duration": 215}, {"note": 71, "velocity": 71, "duration": 233}, {"note": 69, "velocity": 82, "duration": 783}, {"note": 67, "velocity": 67, "duration": 134}, {"note": 67, "velocity": 80, "duration": 241}, {"note": 66, "velocity": 65, "duration": 131}, {"note": 66, "velocity": 74, "duration": 242}, {"note": 67, "velocity": 64, "duration": 130}, {"note": 69, "velocity": 64, "duration": 741}, {"note": 69, "velocity": 89, "duration": 109}, {"note": 69, "velocity": 84, "duration": 105}, {"note": 67, "velocity": 80, "duration": 119}, {"note": 66, "velocity": 68, "duration": 120}, {"note": 66, "velocity": 52, "duration": 125}, {"note": 66, "velocity": 52, "duration": 124}, {"note": 66, "velocity": 55, "duration": 128}, {"note": 66, "velocity": 77, "duration": 226}, {"note": 66, "velocity": 82, "duration": 132}, {"note": 67, "velocity": 89, "duration": 234}, {"note": 74, "velocity": 94, "duration": 645}, {"note": 66, "velocity": 63, "duration": 140}, {"note": 69, "velocity": 66, "duration": 135}, {"note": 67, "velocity": 64, "duration": 249}, {"note": 67, "velocity": 73, "duration": 124}, {"note": 67, "velocity": 80, "duration": 230}, {"note": 66, "velocity": 96, "duration": 151}, {"note": 69, "velocity": 78, "duration": 227}, {"note": 67, "velocity": 71, "duration": 824}, {"note": 71, "velocity": 89, "duration": 116}, {"note": 72, "velocity": 84, "duration": 128}, {"note": 71, "velocity": 92, "duration": 126}, {"note": 72, "velocity": 78, "duration": 135}, {"note": 71, "velocity": 89, "duration": 233}, {"note": 72, "velocity": 78, "duration": 128}, {"note": 71, "velocity": 89, "duration": 250}, {"note": 69, "velocity": 89, "duration": 585}, {"note": 67, "velocity": 84, "duration": 114}, {"note": 69, "velocity": 82, "duration": 124}, {"note": 71, "velocity": 89, "duration": 113}, {"note": 69, "velocity": 87, "duration": 117}, {"note": 69, "velocity": 84, "duration": 113}, {"note": 67, "velocity": 80, "duration": 132}, {"note": 67, "velocity": 89, "duration": 228}, {"note": 76, "velocity": 71, "duration": 127}, {"note": 76, "velocity": 92, "duration": 226}, {"note": 74, "velocity": 87, "duration": 377}, {"note": 74, "velocity": 97, "duration": 240}, {"note": 76, "velocity": 97, "duration": 240}, {"note": 79, "velocity": 100, "duration": 120}, {"note": 76, "velocity": 97, "duration": 119}, {"note": 76, "velocity": 87, "duration": 120}, {"note": 74, "velocity": 97, "duration": 119}, {"note": 74, "velocity": 84, "duration": 240}, {"note": 76, "velocity": 80, "duration": 120}, {"note": 74, "velocity": 73, "duration": 479}, {"note": 74, "velocity": 73, "duration": 120}, {"note": 76, "velocity": 94, "duration": 360}, {"note": 69, "velocity": 67, "duration": 240}, {"note": 71, "velocity": 89, "duration": 239}, {"note": 71, "velocity": 84, "duration": 1080}, {"note": 67, "velocity": 78, "duration": 240}, {"note": 69, "velocity": 92, "duration": 240}, {"note": 71, "velocity": 89, "duration": 120}, {"note": 69, "velocity": 80, "duration": 119}, {"note": 69, "velocity": 82, "duration": 120}, {"note": 67, "velocity": 69, "duration": 119}, {"note": 67, "velocity": 89, "duration": 240}, {"note": 64, "velocity": 84, "duration": 120}, {"note": 67, "velocity": 76, "duration": 840}, {"note": 64, "velocity": 92, "duration": 120}, {"note": 69, "velocity": 64, "duration": 1800}, {"note": 74, "velocity": 92, "duration": 120}, {"note": 76, "velocity": 102, "duration": 120}, {"note": 79, "velocity": 102, "duration": 120}, {"note": 76, "velocity": 92, "duration": 119}, {"note": 76, "velocity": 92, "duration": 120}, {"note": 74, "velocity": 87, "duration": 119}, {"note": 74, "velocity": 89, "duration": 240}, {"note": 76, "velocity": 80, "duration": 120}, {"note": 74, "velocity": 84, "duration": 360}, {"note": 76, "velocity": 92, "duration": 480}, {"note": 74, "velocity": 84, "duration": 240}, {"note": 79, "velocity": 71, "duration": 120}, {"note": 74, "velocity": 64, "duration": 120}, {"note": 76, "velocity": 82, "duration": 1200}, {"note": 67, "velocity": 92, "duration": 240}, {"note": 69, "velocity": 97, "duration": 240}, {"note": 71, "velocity": 89, "duration": 120}, {"note": 69, "velocity": 71, "duration": 119}, {"note": 69, "velocity": 87, "duration": 120}, {"note": 67, "velocity": 76, "duration": 119}, {"note": 67, "velocity": 78, "duration": 120}, {"note": 64, "velocity": 89, "duration": 240}, {"note": 62, "velocity": 89, "duration": 840}, {"note": 64, "velocity": 84, "duration": 120}, {"note": 67, "velocity": 76, "duration": 1440}, {"note": 0, "velocity": 0, "duration": 16185}, {"note": 71, "velocity": 78, "duration": 116}, {"note": 71, "velocity": 80, "duration": 121}, {"note": 71, "velocity": 87, "duration": 133}, {"note": 69, "velocity": 82, "duration": 233}, {"note": 67, "velocity": 87, "duration": 219}, {"note": 62, "velocity": 78, "duration": 1079}, {"note": 66, "velocity": 65, "duration": 116}, {"note": 64, "velocity": 73, "duration": 142}, {"note": 66, "velocity": 63, "duration": 232}, {"note": 67, "velocity": 62, "duration": 138}, {"note": 69, "velocity": 69, "duration": 262}, {"note": 71, "velocity": 87, "duration": 1002}, {"note": 72, "velocity": 89, "duration": 104}, {"note": 72, "velocity": 82, "duration": 111}, {"note": 72, "velocity": 82, "duration": 121}, {"note": 71, "velocity": 66, "duration": 138}, {"note": 72, "velocity": 78, "duration": 215}, {"note": 71, "velocity": 71, "duration": 233}, {"note": 69, "velocity": 82, "duration": 783}, {"note": 67, "velocity": 67, "duration": 134}, {"note": 67, "velocity": 80, "duration": 241}, {"note": 66, "velocity": 65, "duration": 131}, {"note": 66, "velocity": 74, "duration": 242}, {"note": 67, "velocity": 64, "duration": 130}, {"note": 69, "velocity": 64, "duration": 741}, {"note": 69, "velocity": 89, "duration": 109}, {"note": 69, "velocity": 84, "duration": 105}, {"note": 67, "velocity": 80, "duration": 119}, {"note": 66, "velocity": 68, "duration": 120}, {"note": 66, "velocity": 52, "duration": 125}, {"note": 66, "velocity": 52, "duration": 124}, {"note": 66, "velocity": 55, "duration": 128}, {"note": 66, "velocity": 77, "duration": 226}, {"note": 66, "velocity": 82, "duration": 132}, {"note": 67, "velocity": 89, "duration": 234}, {"note": 74, "velocity": 94, "duration": 645}, {"note": 66, "velocity": 63, "duration": 140}, {"note": 69, "velocity": 66, "duration": 135}, {"note": 67, "velocity": 64, "duration": 249}, {"note": 67, "velocity": 73, "duration": 124}, {"note": 67, "velocity": 80, "duration": 230}, {"note": 66, "velocity": 96, "duration": 151}, {"note": 69, "velocity": 78, "duration": 227}, {"note": 67, "velocity": 71, "duration": 824}, {"note": 71, "velocity": 89, "duration": 116}, {"note": 72, "velocity": 84, "duration": 128}, {"note": 71, "velocity": 92, "duration": 126}, {"note": 72, "velocity": 78, "duration": 135}, {"note": 71, "velocity": 89, "duration": 233}, {"note": 72, "velocity": 78, "duration": 128}, {"note": 71, "velocity": 89, "duration": 250}, {"note": 69, "velocity": 89, "duration": 585}, {"note": 67, "velocity": 84, "duration": 114}, {"note": 69, "velocity": 82, "duration": 124}, {"note": 71, "velocity": 89, "duration": 113}, {"note": 69, "velocity": 87, "duration": 117}, {"note": 69, "velocity": 84, "duration": 113}, {"note": 67, "velocity": 80, "duration": 132}, {"note": 67, "velocity": 89, "duration": 228}, {"note": 76, "velocity": 71, "duration": 127}, {"note": 76, "velocity": 92, "duration": 226}, {"note": 74, "velocity": 87, "duration": 377}, {"note": 74, "velocity": 97, "duration": 240}, {"note": 76, "velocity": 97, "duration": 240}, {"note": 79, "velocity": 100, "duration": 120}, {"note": 76, "velocity": 97, "duration": 119}, {"note": 76, "velocity": 87, "duration": 120}, {"note": 74, "velocity": 97, "duration": 119}, {"note": 74, "velocity": 84, "duration": 240}, {"note": 76, "velocity": 80, "duration": 120}, {"note": 74, "velocity": 73, "duration": 479}, {"note": 74, "velocity": 73, "duration": 120}, {"note": 76, "velocity": 94, "duration": 360}, {"note": 69, "velocity": 67, "duration": 240}, {"note": 71, "velocity": 89, "duration": 239}, {"note": 71, "velocity": 84, "duration": 1080}, {"note": 67, "velocity": 78, "duration": 240}, {"note": 69, "velocity": 92, "duration": 240}, {"note": 71, "velocity": 89, "duration": 120}, {"note": 69, "velocity": 80, "duration": 119}, {"note": 69, "velocity": 82, "duration": 120}, {"note": 67, "velocity": 69, "duration": 119}, {"note": 67, "velocity": 89, "duration": 240}, {"note": 64, "velocity": 84, "duration": 120}, {"note": 67, "velocity": 76, "duration": 840}, {"note": 64, "velocity": 92, "duration": 120}, {"note": 69, "velocity": 64, "duration": 1800}, {"note": 74, "velocity": 92, "duration": 120}, {"note": 76, "velocity": 102, "duration": 120}, {"note": 79, "velocity": 102, "duration": 120}, {"note": 76, "velocity": 92, "duration": 119}, {"note": 76, "velocity": 92, "duration": 120}, {"note": 74, "velocity": 87, "duration": 119}, {"note": 74, "velocity": 89, "duration": 240}, {"note": 76, "velocity": 80, "duration": 120}, {"note": 74, "velocity": 84, "duration": 360}, {"note": 76, "velocity": 92, "duration": 480}, {"note": 74, "velocity": 84, "duration": 240}, {"note": 79, "velocity": 71, "duration": 120}, {"note": 74, "velocity": 64, "duration": 120}, {"note": 76, "velocity": 82, "duration": 1200}, {"note": 67, "velocity": 92, "duration": 240}, {"note": 69, "velocity": 97, "duration": 240}, {"note": 71, "velocity": 89, "duration": 120}, {"note": 69, "velocity": 71, "duration": 119}, {"note": 69, "velocity": 87, "duration": 120}, {"note": 67, "velocity": 76, "duration": 119}, {"note": 67, "velocity": 78, "duration": 120}, {"note": 64, "velocity": 89, "duration": 240}, {"note": 62, "velocity": 89, "duration": 840}, {"note": 64, "velocity": 84, "duration": 120}, {"note": 67, "velocity": 76, "duration": 480}, {"note": 0, "velocity": 0, "duration": 4920}, {"note": 74, "velocity": 97, "duration": 240}, {"note": 76, "velocity": 97, "duration": 240}, {"note": 79, "velocity": 100, "duration": 120}, {"note": 76, "velocity": 97, "duration": 119}, {"note": 76, "velocity": 87, "duration": 120}, {"note": 74, "velocity": 97, "duration": 119}, {"note": 74, "velocity": 84, "duration": 240}, {"note": 76, "velocity": 80, "duration": 120}, {"note": 74, "velocity": 73, "duration": 479}, {"note": 74, "velocity": 73, "duration": 120}, {"note": 76, "velocity": 94, "duration": 360}, {"note": 69, "velocity": 67, "duration": 240}, {"note": 71, "velocity": 89, "duration": 239}, {"note": 71, "velocity": 84, "duration": 1080}, {"note": 67, "velocity": 78, "duration": 240}, {"note": 69, "velocity": 92, "duration": 240}, {"note": 71, "velocity": 89, "duration": 120}, {"note": 69, "velocity": 80, "duration": 119}, {"note": 69, "velocity": 82, "duration": 120}, {"note": 67, "velocity": 69, "duration": 119}, {"note": 67, "velocity": 89, "duration": 240}, {"note": 64, "velocity": 84, "duration": 120}, {"note": 67, "velocity": 76, "duration": 840}, {"note": 64, "velocity": 92, "duration": 120}, {"note": 69, "velocity": 64, "duration": 1800}, {"note": 74, "velocity": 92, "duration": 120}, {"note": 76, "velocity": 102, "duration": 120}, {"note": 79, "velocity": 102, "duration": 120}, {"note": 76, "velocity": 92, "duration": 119}, {"note": 76, "velocity": 92, "duration": 120}, {"note": 74, "velocity": 87, "duration": 119}, {"note": 74, "velocity": 89, "duration": 240}, {"note": 76, "velocity": 80, "duration": 120}, {"note": 74, "velocity": 84, "duration": 360}, {"note": 76, "velocity": 92, "duration": 480}, {"note": 74, "velocity": 84, "duration": 240}, {"note": 79, "velocity": 71, "duration": 120}, {"note": 74, "velocity": 64, "duration": 120}, {"note": 76, "velocity": 82, "duration": 1200}, {"note": 67, "velocity": 92, "duration": 240}, {"note": 69, "velocity": 97, "duration": 240}, {"note": 71, "velocity": 89, "duration": 120}, {"note": 69, "velocity": 71, "duration": 119}, {"note": 69, "velocity": 87, "duration": 120}, {"note": 67, "velocity": 76, "duration": 119}, {"note": 67, "velocity": 78, "duration": 120}, {"note": 64, "velocity": 89, "duration": 240}, {"note": 62, "velocity": 89, "duration": 840}, {"note": 64, "velocity": 84, "duration": 120}, {"note": 67, "velocity": 76, "duration": 600}, {"note": 0, "velocity": 0, "duration": 3595}, {"note": 69, "velocity": 73, "duration": 112}, {"note": 71, "velocity": 76, "duration": 146}, {"note": 74, "velocity": 82, "duration": 264}, {"note": 74, "velocity": 71, "duration": 123}, {"note": 71, "velocity": 78, "duration": 125}, {"note": 69, "velocity": 60, "duration": 176}, {"note": 71, "velocity": 78, "duration": 178}, {"note": 74, "velocity": 82, "duration": 597}, {"note": 69, "velocity": 89, "duration": 120}, {"note": 71, "velocity": 80, "duration": 118}, {"note": 69, "velocity": 82, "duration": 116}, {"note": 71, "velocity": 71, "duration": 133}, {"note": 69, "velocity": 69, "duration": 244}, {"note": 64, "velocity": 66, "duration": 131}, {"note": 69, "velocity": 78, "duration": 239}, {"note": 67, "velocity": 58, "duration": 954}, {"note": 74, "velocity": 71, "duration": 112}, {"note": 76, "velocity": 57, "duration": 145}, {"note": 79, "velocity": 76, "duration": 131}, {"note": 76, "velocity": 80, "duration": 368}, {"note": 74, "velocity": 73, "duration": 140}, {"note": 76, "velocity": 69, "duration": 239}, {"note": 79, "velocity": 78, "duration": 471}, {"note": 79, "velocity": 78, "duration": 247}, {"note": 76, "velocity": 69, "duration": 127}, {"note": 79, "velocity": 87, "duration": 131}, {"note": 76, "velocity": 76, "duration": 186}, {"note": 71, "velocity": 85, "duration": 255}, {"note": 76, "velocity": 73, "duration": 139}, {"note": 74, "velocity": 82, "duration": 3122}, {"note": 71, "velocity": 87, "duration": 182}, {"note": 69, "velocity": 87, "duration": 264}, {"note": 67, "velocity": 69, "duration": 1200}, {"note": 76, "velocity": 92, "duration": 310}, {"note": 71, "velocity": 82, "duration": 233}, {"note": 76, "velocity": 76, "duration": 118}, {"note": 74, "velocity": 78, "duration": 1891}]]