[[{"note": 71, "velocity": 60, "duration": 239}, {"note": 71, "velocity": 60, "duration": 239}, {"note": 71, "velocity": 63, "duration": 239}, {"note": 71, "velocity": 69, "duration": 1200}, {"note": 70, "velocity": 59, "duration": 239}, {"note": 70, "velocity": 61, "duration": 239}, {"note": 70, "velocity": 62, "duration": 239}, {"note": 70, "velocity": 69, "duration": 960}, {"note": 59, "velocity": 65, "duration": 240}, {"note": 68, "velocity": 62, "duration": 479}, {"note": 68, "velocity": 61, "duration": 239}, {"note": 68, "velocity": 59, "duration": 480}, {"note": 66, "velocity": 56, "duration": 240}, {"note": 64, "velocity": 59, "duration": 240}, {"note": 66, "velocity": 55, "duration": 2160}, {"note": 71, "velocity": 59, "duration": 239}, {"note": 71, "velocity": 59, "duration": 239}, {"note": 71, "velocity": 61, "duration": 239}, {"note": 71, "velocity": 60, "duration": 1200}, {"note": 70, "velocity": 59, "duration": 239}, {"note": 70, "velocity": 60, "duration": 239}, {"note": 70, "velocity": 61, "duration": 239}, {"note": 70, "velocity": 59, "duration": 1200}, {"note": 68, "velocity": 62, "duration": 480}, {"note": 71, "velocity": 58, "duration": 239}, {"note": 71, "velocity": 62, "duration": 719}, {"note": 71, "velocity": 59, "duration": 239}, {"note": 71, "velocity": 59, "duration": 1199}, {"note": 71, "velocity": 61, "duration": 240}, {"note": 73, "velocity": 65, "duration": 240}, {"note": 75, "velocity": 65, "duration": 360}, {"note": 68, "velocity": 62, "duration": 370}, {"note": 75, "velocity": 62, "duration": 480}, {"note": 73, "velocity": 69, "duration": 480}, {"note": 71, "velocity": 61, "duration": 480}, {"note": 66, "velocity": 59, "duration": 1680}, {"note": 68, "velocity": 60, "duration": 240}, {"note": 70, "velocity": 62, "duration": 240}, {"note": 71, "velocity": 61, "duration": 720}, {"note": 73, "velocity": 62, "duration": 480}, {"note": 71, "velocity": 61, "duration": 240}, {"note": 71, "velocity": 61, "duration": 240}, {"note": 70, "velocity": 59, "duration": 360}, {"note": 68, "velocity": 54, "duration": 120}, {"note": 66, "velocity": 59, "duration": 1200}, {"note": 71, "velocity": 54, "duration": 240}, {"note": 70, "velocity": 60, "duration": 240}, {"note": 68, "velocity": 62, "duration": 720}, {"note": 75, "velocity": 62, "duration": 1200}, {"note": 66, "velocity": 60, "duration": 720}, {"note": 73, "velocity": 65, "duration": 1200}, {"note": 71, "velocity": 60, "duration": 240}, {"note": 70, "velocity": 60, "duration": 240}, {"note": 68, "velocity": 60, "duration": 240}, {"note": 71, "velocity": 62, "duration": 480}, {"note": 73, "velocity": 69, "duration": 479}, {"note": 73, "velocity": 72, "duration": 1199}, {"note": 73, "velocity": 63, "duration": 240}, {"note": 75, "velocity": 60, "duration": 240}, {"note": 73, "velocity": 65, "duration": 240}, {"note": 71, "velocity": 61, "duration": 239}, {"note": 71, "velocity": 63, "duration": 959}, {"note": 71, "velocity": 69, "duration": 240}, {"note": 73, "velocity": 64, "duration": 240}, {"note": 75, "velocity": 62, "duration": 240}, {"note": 80, "velocity": 60, "duration": 240}, {"note": 78, "velocity": 60, "duration": 960}, {"note": 73, "velocity": 62, "duration": 240}, {"note": 75, "velocity": 58, "duration": 240}, {"note": 73, "velocity": 62, "duration": 240}, {"note": 71, "velocity": 62, "duration": 239}, {"note": 71, "velocity": 65, "duration": 959}, {"note": 71, "velocity": 62, "duration": 240}, {"note": 73, "velocity": 64, "duration": 240}, {"note": 75, "velocity": 62, "duration": 240}, {"note": 83, "velocity": 59, "duration": 240}, {"note": 82, "velocity": 62, "duration": 960}, {"note": 73, "velocity": 60, "duration": 240}, {"note": 75, "velocity": 58, "duration": 240}, {"note": 73, "velocity": 61, "duration": 240}, {"note": 71, "velocity": 62, "duration": 239}, {"note": 71, "velocity": 65, "duration": 960}, {"note": 68, "velocity": 60, "duration": 240}, {"note": 70, "velocity": 58, "duration": 240}, {"note": 71, "velocity": 59, "duration": 240}, {"note": 76, "velocity": 59, "duration": 240}, {"note": 75, "velocity": 58, "duration": 960}, {"note": 73, "velocity": 65, "duration": 240}, {"note": 75, "velocity": 64, "duration": 240}, {"note": 73, "velocity": 63, "duration": 240}, {"note": 71, "velocity": 61, "duration": 239}, {"note": 71, "velocity": 64, "duration": 960}, {"note": 76, "velocity": 60, "duration": 480}, {"note": 78, "velocity": 62, "duration": 240}, {"note": 75, "velocity": 67, "duration": 497}, {"note": 71, "velocity": 58, "duration": 720}, {"note": 75, "velocity": 60, "duration": 480}, {"note": 73, "velocity": 65, "duration": 480}, {"note": 71, "velocity": 64, "duration": 1440}, {"note": 0, "velocity": 0, "duration": 5280}, {"note": 71, "velocity": 61, "duration": 240}, {"note": 73, "velocity": 65, "duration": 240}, {"note": 75, "velocity": 65, "duration": 360}, {"note": 68, "velocity": 62, "duration": 370}, {"note": 75, "velocity": 62, "duration": 480}, {"note": 73, "velocity": 69, "duration": 480}, {"note": 71, "velocity": 61, "duration": 480}, {"note": 66, "velocity": 59, "duration": 1440}, {"note": 0, "velocity": 0, "duration": 240}, {"note": 68, "velocity": 60, "duration": 240}, {"note": 70, "velocity": 62, "duration": 240}, {"note": 71, "velocity": 61, "duration": 720}, {"note": 73, "velocity": 62, "duration": 480}, {"note": 71, "velocity": 61, "duration": 240}, {"note": 71, "velocity": 61, "duration": 240}, {"note": 70, "velocity": 59, "duration": 360}, {"note": 68, "velocity": 54, "duration": 120}, {"note": 66, "velocity": 59, "duration": 1200}, {"note": 71, "velocity": 54, "duration": 240}, {"note": 70, "velocity": 60, "duration": 240}, {"note": 68, "velocity": 62, "duration": 720}, {"note": 75, "velocity": 62, "duration": 1200}, {"note": 66, "velocity": 60, "duration": 720}, {"note": 73, "velocity": 65, "duration": 1200}, {"note": 71, "velocity": 60, "duration": 240}, {"note": 70, "velocity": 60, "duration": 240}, {"note": 68, "velocity": 60, "duration": 240}, {"note": 71, "velocity": 62, "duration": 480}, {"note": 73, "velocity": 69, "duration": 479}, {"note": 73, "velocity": 72, "duration": 1199}, {"note": 73, "velocity": 63, "duration": 240}, {"note": 75, "velocity": 60, "duration": 240}, {"note": 73, "velocity": 65, "duration": 240}, {"note": 71, "velocity": 61, "duration": 239}, {"note": 71, "velocity": 63, "duration": 959}, {"note": 71, "velocity": 69, "duration": 240}, {"note": 73, "velocity": 64, "duration": 240}, {"note": 75, "velocity": 62, "duration": 240}, {"note": 80, "velocity": 60, "duration": 240}, {"note": 78, "velocity": 60, "duration": 960}, {"note": 73, "velocity": 62, "duration": 240}, {"note": 75, "velocity": 58, "duration": 240}, {"note": 73, "velocity": 62, "duration": 240}, {"note": 71, "velocity": 62, "duration": 239}, {"note": 71, "velocity": 65, "duration": 959}, {"note": 71, "velocity": 62, "duration": 240}, {"note": 73, "velocity": 64, "duration": 240}, {"note": 75, "velocity": 62, "duration": 240}, {"note": 83, "velocity": 59, "duration": 240}, {"note": 82, "velocity": 62, "duration": 960}, {"note": 73, "velocity": 60, "duration": 240}, {"note": 75, "velocity": 58, "duration": 240}, {"note": 73, "velocity": 61, "duration": 240}, {"note": 71, "velocity": 62, "duration": 239}, {"note": 71, "velocity": 65, "duration": 960}, {"note": 68, "velocity": 60, "duration": 240}, {"note": 70, "velocity": 58, "duration": 240}, {"note": 71, "velocity": 59, "duration": 240}, {"note": 76, "velocity": 59, "duration": 240}, {"note": 75, "velocity": 58, "duration": 960}, {"note": 73, "velocity": 65, "duration": 240}, {"note": 75, "velocity": 64, "duration": 240}, {"note": 73, "velocity": 63, "duration": 240}, {"note": 71, "velocity": 61, "duration": 239}, {"note": 71, "velocity": 64, "duration": 960}, {"note": 76, "velocity": 60, "duration": 480}, {"note": 78, "velocity": 62, "duration": 240}, {"note": 75, "velocity": 67, "duration": 497}, {"note": 71, "velocity": 58, "duration": 720}, {"note": 75, "velocity": 60, "duration": 480}, {"note": 73, "velocity": 65, "duration": 480}, {"note": 71, "velocity": 64, "duration": 960}, {"note": 68, "velocity": 59, "duration": 240}, {"note": 70, "velocity": 63, "duration": 240}, {"note": 71, "velocity": 60, "duration": 240}, {"note": 73, "velocity": 67, "duration": 239}, {"note": 73, "velocity": 65, "duration": 959}, {"note": 73, "velocity": 61, "duration": 239}, {"note": 73, "velocity": 63, "duration": 240}, {"note": 75, "velocity": 60, "duration": 240}, {"note": 76, "velocity": 60, "duration": 240}, {"note": 78, "velocity": 61, "duration": 959}, {"note": 78, "velocity": 53, "duration": 240}, {"note": 76, "velocity": 58, "duration": 240}, {"note": 75, "velocity": 59, "duration": 240}, {"note": 73, "velocity": 65, "duration": 240}, {"note": 71, "velocity": 59, "duration": 959}, {"note": 71, "velocity": 60, "duration": 239}, {"note": 71, "velocity": 63, "duration": 240}, {"note": 73, "velocity": 61, "duration": 240}, {"note": 75, "velocity": 60, "duration": 240}, {"note": 76, "velocity": 60, "duration": 959}, {"note": 76, "velocity": 59, "duration": 240}, {"note": 75, "velocity": 64, "duration": 240}, {"note": 73, "velocity": 60, "duration": 240}, {"note": 75, "velocity": 60, "duration": 240}, {"note": 76, "velocity": 58, "duration": 959}, {"note": 76, "velocity": 61, "duration": 240}, {"note": 75, "velocity": 62, "duration": 240}, {"note": 73, "velocity": 65, "duration": 240}, {"note": 71, "velocity": 59, "duration": 240}, {"note": 73, "velocity": 64, "duration": 1920}, {"note": 74, "velocity": 62, "duration": 959}, {"note": 74, "velocity": 63, "duration": 240}, {"note": 76, "velocity": 60, "duration": 240}, {"note": 74, "velocity": 65, "duration": 240}, {"note": 72, "velocity": 61, "duration": 239}, {"note": 72, "velocity": 63, "duration": 959}, {"note": 72, "velocity": 69, "duration": 240}, {"note": 74, "velocity": 64, "duration": 240}, {"note": 76, "velocity": 62, "duration": 240}, {"note": 81, "velocity": 60, "duration": 240}, {"note": 79, "velocity": 60, "duration": 960}, {"note": 74, "velocity": 62, "duration": 240}, {"note": 76, "velocity": 58, "duration": 240}, {"note": 74, "velocity": 62, "duration": 240}, {"note": 72, "velocity": 62, "duration": 239}, {"note": 72, "velocity": 65, "duration": 959}, {"note": 72, "velocity": 62, "duration": 240}, {"note": 74, "velocity": 64, "duration": 240}, {"note": 76, "velocity": 62, "duration": 240}, {"note": 84, "velocity": 59, "duration": 240}, {"note": 83, "velocity": 62, "duration": 960}, {"note": 74, "velocity": 60, "duration": 240}, {"note": 76, "velocity": 58, "duration": 240}, {"note": 74, "velocity": 61, "duration": 240}, {"note": 72, "velocity": 62, "duration": 239}, {"note": 72, "velocity": 65, "duration": 960}, {"note": 69, "velocity": 60, "duration": 240}, {"note": 71, "velocity": 58, "duration": 240}, {"note": 72, "velocity": 59, "duration": 240}, {"note": 77, "velocity": 59, "duration": 240}, {"note": 76, "velocity": 58, "duration": 960}, {"note": 74, "velocity": 65, "duration": 240}, {"note": 76, "velocity": 64, "duration": 240}, {"note": 74, "velocity": 63, "duration": 240}, {"note": 72, "velocity": 61, "duration": 239}, {"note": 72, "velocity": 64, "duration": 960}, {"note": 77, "velocity": 60, "duration": 480}, {"note": 79, "velocity": 62, "duration": 240}, {"note": 76, "velocity": 67, "duration": 497}, {"note": 72, "velocity": 58, "duration": 720}, {"note": 76, "velocity": 60, "duration": 480}, {"note": 74, "velocity": 65, "duration": 480}, {"note": 72, "velocity": 64, "duration": 7985}]]