[[{"note": 77, "velocity": 102, "duration": 359}, {"note": 77, "velocity": 87, "duration": 119}, {"note": 77, "velocity": 94, "duration": 240}, {"note": 79, "velocity": 97, "duration": 240}, {"note": 81, "velocity": 105, "duration": 240}, {"note": 79, "velocity": 97, "duration": 240}, {"note": 77, "velocity": 102, "duration": 240}, {"note": 74, "velocity": 97, "duration": 240}, {"note": 72, "velocity": 87, "duration": 1920}, {"note": 81, "velocity": 82, "duration": 239}, {"note": 81, "velocity": 97, "duration": 239}, {"note": 81, "velocity": 102, "duration": 240}, {"note": 84, "velocity": 102, "duration": 240}, {"note": 86, "velocity": 100, "duration": 240}, {"note": 84, "velocity": 100, "duration": 239}, {"note": 84, "velocity": 105, "duration": 240}, {"note": 77, "velocity": 111, "duration": 240}, {"note": 79, "velocity": 102, "duration": 1920}, {"note": 81, "velocity": 97, "duration": 479}, {"note": 81, "velocity": 105, "duration": 239}, {"note": 81, "velocity": 105, "duration": 240}, {"note": 84, "velocity": 97, "duration": 720}, {"note": 81, "velocity": 97, "duration": 240}, {"note": 79, "velocity": 100, "duration": 240}, {"note": 81, "velocity": 102, "duration": 240}, {"note": 84, "velocity": 111, "duration": 240}, {"note": 76, "velocity": 105, "duration": 240}, {"note": 74, "velocity": 108, "duration": 959}, {"note": 74, "velocity": 102, "duration": 240}, {"note": 84, "velocity": 97, "duration": 239}, {"note": 84, "velocity": 105, "duration": 240}, {"note": 81, "velocity": 100, "duration": 240}, {"note": 79, "velocity": 97, "duration": 240}, {"note": 81, "velocity": 100, "duration": 240}, {"note": 79, "velocity": 102, "duration": 240}, {"note": 74, "velocity": 100, "duration": 240}, {"note": 77, "velocity": 94, "duration": 1919}, {"note": 77, "velocity": 102, "duration": 359}, {"note": 77, "velocity": 87, "duration": 119}, {"note": 77, "velocity": 94, "duration": 240}, {"note": 79, "velocity": 97, "duration": 240}, {"note": 81, "velocity": 105, "duration": 240}, {"note": 79, "velocity": 97, "duration": 240}, {"note": 77, "velocity": 102, "duration": 240}, {"note": 74, "velocity": 97, "duration": 240}, {"note": 72, "velocity": 87, "duration": 1920}, {"note": 81, "velocity": 82, "duration": 239}, {"note": 81, "velocity": 97, "duration": 239}, {"note": 81, "velocity": 102, "duration": 240}, {"note": 84, "velocity": 102, "duration": 240}, {"note": 86, "velocity": 100, "duration": 240}, {"note": 84, "velocity": 100, "duration": 239}, {"note": 84, "velocity": 105, "duration": 240}, {"note": 77, "velocity": 111, "duration": 240}, {"note": 79, "velocity": 102, "duration": 1920}, {"note": 81, "velocity": 97, "duration": 480}, {"note": 79, "velocity": 105, "duration": 240}, {"note": 81, "velocity": 105, "duration": 240}, {"note": 84, "velocity": 97, "duration": 480}, {"note": 84, "velocity": 114, "duration": 240}, {"note": 81, "velocity": 97, "duration": 240}, {"note": 79, "velocity": 100, "duration": 240}, {"note": 81, "velocity": 102, "duration": 239}, {"note": 81, "velocity": 111, "duration": 240}, {"note": 76, "velocity": 105, "duration": 240}, {"note": 74, "velocity": 108, "duration": 959}, {"note": 74, "velocity": 102, "duration": 240}, {"note": 84, "velocity": 97, "duration": 239}, {"note": 84, "velocity": 105, "duration": 240}, {"note": 81, "velocity": 100, "duration": 240}, {"note": 79, "velocity": 97, "duration": 240}, {"note": 81, "velocity": 100, "duration": 240}, {"note": 79, "velocity": 102, "duration": 240}, {"note": 74, "velocity": 100, "duration": 240}, {"note": 77, "velocity": 94, "duration": 1920}, {"note": 84, "velocity": 108, "duration": 239}, {"note": 84, "velocity": 105, "duration": 239}, {"note": 84, "velocity": 108, "duration": 240}, {"note": 86, "velocity": 108, "duration": 240}, {"note": 89, "velocity": 102, "duration": 240}, {"note": 88, "velocity": 100, "duration": 240}, {"note": 86, "velocity": 82, "duration": 240}, {"note": 81, "velocity": 108, "duration": 240}, {"note": 84, "velocity": 117, "duration": 1919}, {"note": 84, "velocity": 105, "duration": 239}, {"note": 84, "velocity": 111, "duration": 239}, {"note": 84, "velocity": 111, "duration": 240}, {"note": 86, "velocity": 102, "duration": 240}, {"note": 89, "velocity": 111, "duration": 240}, {"note": 88, "velocity": 94, "duration": 240}, {"note": 86, "velocity": 87, "duration": 240}, {"note": 81, "velocity": 117, "duration": 240}, {"note": 79, "velocity": 100, "duration": 1920}, {"note": 81, "velocity": 111, "duration": 480}, {"note": 79, "velocity": 102, "duration": 240}, {"note": 81, "velocity": 105, "duration": 240}, {"note": 84, "velocity": 108, "duration": 479}, {"note": 84, "velocity": 102, "duration": 240}, {"note": 81, "velocity": 111, "duration": 240}, {"note": 79, "velocity": 108, "duration": 240}, {"note": 81, "velocity": 100, "duration": 239}, {"note": 81, "velocity": 105, "duration": 240}, {"note": 76, "velocity": 100, "duration": 240}, {"note": 74, "velocity": 97, "duration": 720}, {"note": 72, "velocity": 108, "duration": 240}, {"note": 84, "velocity": 108, "duration": 239}, {"note": 84, "velocity": 102, "duration": 119}, {"note": 84, "velocity": 102, "duration": 119}, {"note": 84, "velocity": 105, "duration": 240}, {"note": 81, "velocity": 111, "duration": 240}, {"note": 79, "velocity": 108, "duration": 240}, {"note": 77, "velocity": 111, "duration": 240}, {"note": 79, "velocity": 111, "duration": 240}, {"note": 86, "velocity": 108, "duration": 240}, {"note": 84, "velocity": 105, "duration": 1919}, {"note": 84, "velocity": 117, "duration": 239}, {"note": 84, "velocity": 111, "duration": 480}, {"note": 86, "velocity": 105, "duration": 240}, {"note": 89, "velocity": 100, "duration": 359}, {"note": 89, "velocity": 108, "duration": 360}, {"note": 88, "velocity": 89, "duration": 240}, {"note": 86, "velocity": 105, "duration": 720}, {"note": 81, "velocity": 105, "duration": 240}, {"note": 84, "velocity": 92, "duration": 960}, {"note": 86, "velocity": 97, "duration": 239}, {"note": 86, "velocity": 105, "duration": 239}, {"note": 86, "velocity": 105, "duration": 240}, {"note": 89, "velocity": 111, "duration": 240}, {"note": 86, "velocity": 108, "duration": 240}, {"note": 84, "velocity": 94, "duration": 119}, {"note": 84, "velocity": 94, "duration": 119}, {"note": 84, "velocity": 102, "duration": 240}, {"note": 81, "velocity": 108, "duration": 240}, {"note": 79, "velocity": 94, "duration": 1919}, {"note": 79, "velocity": 105, "duration": 359}, {"note": 79, "velocity": 111, "duration": 360}, {"note": 81, "velocity": 114, "duration": 240}, {"note": 84, "velocity": 114, "duration": 359}, {"note": 84, "velocity": 114, "duration": 360}, {"note": 81, "velocity": 108, "duration": 240}, {"note": 79, "velocity": 105, "duration": 360}, {"note": 81, "velocity": 102, "duration": 360}, {"note": 76, "velocity": 97, "duration": 240}, {"note": 74, "velocity": 105, "duration": 960}, {"note": 72, "velocity": 108, "duration": 240}, {"note": 84, "velocity": 97, "duration": 239}, {"note": 84, "velocity": 89, "duration": 240}, {"note": 81, "velocity": 105, "duration": 240}, {"note": 79, "velocity": 108, "duration": 240}, {"note": 81, "velocity": 105, "duration": 240}, {"note": 79, "velocity": 97, "duration": 240}, {"note": 74, "velocity": 94, "duration": 240}, {"note": 77, "velocity": 102, "duration": 1920}, {"note": 0, "velocity": 0, "duration": 19200}, {"note": 77, "velocity": 102, "duration": 359}, {"note": 77, "velocity": 87, "duration": 119}, {"note": 77, "velocity": 94, "duration": 240}, {"note": 79, "velocity": 97, "duration": 240}, {"note": 81, "velocity": 105, "duration": 240}, {"note": 79, "velocity": 97, "duration": 240}, {"note": 77, "velocity": 102, "duration": 240}, {"note": 74, "velocity": 97, "duration": 240}, {"note": 72, "velocity": 87, "duration": 1920}, {"note": 81, "velocity": 82, "duration": 239}, {"note": 81, "velocity": 97, "duration": 239}, {"note": 81, "velocity": 102, "duration": 240}, {"note": 84, "velocity": 102, "duration": 240}, {"note": 86, "velocity": 100, "duration": 240}, {"note": 84, "velocity": 100, "duration": 239}, {"note": 84, "velocity": 105, "duration": 240}, {"note": 77, "velocity": 111, "duration": 240}, {"note": 79, "velocity": 102, "duration": 1920}, {"note": 81, "velocity": 97, "duration": 480}, {"note": 79, "velocity": 105, "duration": 240}, {"note": 81, "velocity": 105, "duration": 240}, {"note": 84, "velocity": 97, "duration": 480}, {"note": 84, "velocity": 114, "duration": 240}, {"note": 81, "velocity": 97, "duration": 240}, {"note": 79, "velocity": 100, "duration": 240}, {"note": 81, "velocity": 102, "duration": 239}, {"note": 81, "velocity": 111, "duration": 240}, {"note": 76, "velocity": 105, "duration": 240}, {"note": 74, "velocity": 108, "duration": 959}, {"note": 74, "velocity": 102, "duration": 240}, {"note": 84, "velocity": 97, "duration": 239}, {"note": 84, "velocity": 105, "duration": 240}, {"note": 81, "velocity": 100, "duration": 240}, {"note": 79, "velocity": 97, "duration": 240}, {"note": 81, "velocity": 100, "duration": 240}, {"note": 79, "velocity": 102, "duration": 240}, {"note": 74, "velocity": 100, "duration": 240}, {"note": 77, "velocity": 94, "duration": 1920}, {"note": 84, "velocity": 108, "duration": 239}, {"note": 84, "velocity": 105, "duration": 239}, {"note": 84, "velocity": 108, "duration": 240}, {"note": 86, "velocity": 108, "duration": 240}, {"note": 89, "velocity": 102, "duration": 240}, {"note": 88, "velocity": 100, "duration": 240}, {"note": 86, "velocity": 82, "duration": 240}, {"note": 81, "velocity": 108, "duration": 240}, {"note": 84, "velocity": 117, "duration": 1919}, {"note": 84, "velocity": 105, "duration": 239}, {"note": 84, "velocity": 111, "duration": 239}, {"note": 84, "velocity": 111, "duration": 240}, {"note": 86, "velocity": 102, "duration": 240}, {"note": 89, "velocity": 111, "duration": 240}, {"note": 88, "velocity": 94, "duration": 240}, {"note": 86, "velocity": 87, "duration": 240}, {"note": 81, "velocity": 117, "duration": 240}, {"note": 79, "velocity": 100, "duration": 1920}, {"note": 81, "velocity": 111, "duration": 480}, {"note": 79, "velocity": 102, "duration": 240}, {"note": 81, "velocity": 105, "duration": 240}, {"note": 84, "velocity": 108, "duration": 479}, {"note": 84, "velocity": 102, "duration": 240}, {"note": 81, "velocity": 111, "duration": 240}, {"note": 79, "velocity": 108, "duration": 240}, {"note": 81, "velocity": 100, "duration": 239}, {"note": 81, "velocity": 105, "duration": 240}, {"note": 76, "velocity": 100, "duration": 240}, {"note": 74, "velocity": 97, "duration": 720}, {"note": 72, "velocity": 108, "duration": 240}, {"note": 84, "velocity": 108, "duration": 239}, {"note": 84, "velocity": 102, "duration": 119}, {"note": 84, "velocity": 102, "duration": 119}, {"note": 84, "velocity": 105, "duration": 240}, {"note": 81, "velocity": 111, "duration": 240}, {"note": 79, "velocity": 108, "duration": 240}, {"note": 77, "velocity": 111, "duration": 240}, {"note": 79, "velocity": 111, "duration": 240}, {"note": 86, "velocity": 108, "duration": 240}, {"note": 84, "velocity": 105, "duration": 1919}, {"note": 84, "velocity": 117, "duration": 239}, {"note": 84, "velocity": 111, "duration": 480}, {"note": 86, "velocity": 105, "duration": 240}, {"note": 89, "velocity": 100, "duration": 359}, {"note": 89, "velocity": 108, "duration": 360}, {"note": 88, "velocity": 89, "duration": 240}, {"note": 86, "velocity": 105, "duration": 720}, {"note": 81, "velocity": 105, "duration": 240}, {"note": 84, "velocity": 92, "duration": 960}, {"note": 86, "velocity": 97, "duration": 239}, {"note": 86, "velocity": 105, "duration": 239}, {"note": 86, "velocity": 105, "duration": 240}, {"note": 89, "velocity": 111, "duration": 240}, {"note": 86, "velocity": 108, "duration": 240}, {"note": 84, "velocity": 94, "duration": 119}, {"note": 84, "velocity": 94, "duration": 119}, {"note": 84, "velocity": 102, "duration": 240}, {"note": 81, "velocity": 108, "duration": 240}, {"note": 79, "velocity": 94, "duration": 1919}, {"note": 79, "velocity": 105, "duration": 359}, {"note": 79, "velocity": 111, "duration": 360}, {"note": 81, "velocity": 114, "duration": 240}, {"note": 84, "velocity": 114, "duration": 359}, {"note": 84, "velocity": 114, "duration": 360}, {"note": 81, "velocity": 108, "duration": 240}, {"note": 79, "velocity": 105, "duration": 360}, {"note": 81, "velocity": 102, "duration": 360}, {"note": 76, "velocity": 97, "duration": 240}, {"note": 74, "velocity": 105, "duration": 960}, {"note": 72, "velocity": 108, "duration": 240}, {"note": 84, "velocity": 97, "duration": 239}, {"note": 84, "velocity": 89, "duration": 240}, {"note": 81, "velocity": 105, "duration": 240}, {"note": 79, "velocity": 108, "duration": 240}, {"note": 81, "velocity": 105, "duration": 240}, {"note": 79, "velocity": 97, "duration": 240}, {"note": 74, "velocity": 94, "duration": 240}, {"note": 77, "velocity": 102, "duration": 1920}, {"note": 84, "velocity": 108, "duration": 239}, {"note": 84, "velocity": 105, "duration": 239}, {"note": 84, "velocity": 108, "duration": 240}, {"note": 86, "velocity": 108, "duration": 240}, {"note": 89, "velocity": 102, "duration": 240}, {"note": 88, "velocity": 100, "duration": 240}, {"note": 86, "velocity": 82, "duration": 240}, {"note": 81, "velocity": 108, "duration": 240}, {"note": 84, "velocity": 117, "duration": 1919}, {"note": 84, "velocity": 105, "duration": 239}, {"note": 84, "velocity": 111, "duration": 239}, {"note": 84, "velocity": 111, "duration": 240}, {"note": 86, "velocity": 102, "duration": 240}, {"note": 89, "velocity": 111, "duration": 240}, {"note": 88, "velocity": 94, "duration": 240}, {"note": 86, "velocity": 87, "duration": 240}, {"note": 81, "velocity": 117, "duration": 240}, {"note": 79, "velocity": 100, "duration": 1920}, {"note": 81, "velocity": 111, "duration": 480}, {"note": 79, "velocity": 102, "duration": 240}, {"note": 81, "velocity": 105, "duration": 240}, {"note": 84, "velocity": 108, "duration": 479}, {"note": 84, "velocity": 102, "duration": 240}, {"note": 81, "velocity": 111, "duration": 240}, {"note": 79, "velocity": 108, "duration": 240}, {"note": 81, "velocity": 100, "duration": 239}, {"note": 81, "velocity": 105, "duration": 240}, {"note": 76, "velocity": 100, "duration": 240}, {"note": 74, "velocity": 97, "duration": 720}, {"note": 72, "velocity": 108, "duration": 240}, {"note": 84, "velocity": 108, "duration": 239}, {"note": 84, "velocity": 102, "duration": 119}, {"note": 84, "velocity": 102, "duration": 119}, {"note": 84, "velocity": 105, "duration": 240}, {"note": 81, "velocity": 111, "duration": 240}, {"note": 79, "velocity": 108, "duration": 240}, {"note": 77, "velocity": 111, "duration": 240}, {"note": 79, "velocity": 111, "duration": 240}, {"note": 86, "velocity": 108, "duration": 240}, {"note": 84, "velocity": 105, "duration": 1919}, {"note": 84, "velocity": 117, "duration": 239}, {"note": 84, "velocity": 111, "duration": 480}, {"note": 86, "velocity": 105, "duration": 240}, {"note": 89, "velocity": 100, "duration": 359}, {"note": 89, "velocity": 108, "duration": 360}, {"note": 88, "velocity": 89, "duration": 240}, {"note": 86, "velocity": 105, "duration": 720}, {"note": 81, "velocity": 105, "duration": 240}, {"note": 84, "velocity": 92, "duration": 960}, {"note": 86, "velocity": 97, "duration": 239}, {"note": 86, "velocity": 105, "duration": 239}, {"note": 86, "velocity": 105, "duration": 240}, {"note": 89, "velocity": 111, "duration": 240}, {"note": 86, "velocity": 108, "duration": 240}, {"note": 84, "velocity": 94, "duration": 119}, {"note": 84, "velocity": 94, "duration": 119}, {"note": 84, "velocity": 102, "duration": 240}, {"note": 81, "velocity": 108, "duration": 240}, {"note": 79, "velocity": 94, "duration": 1919}, {"note": 79, "velocity": 105, "duration": 359}, {"note": 79, "velocity": 111, "duration": 360}, {"note": 81, "velocity": 114, "duration": 240}, {"note": 84, "velocity": 114, "duration": 359}, {"note": 84, "velocity": 114, "duration": 360}, {"note": 81, "velocity": 108, "duration": 240}, {"note": 79, "velocity": 105, "duration": 360}, {"note": 81, "velocity": 102, "duration": 360}, {"note": 76, "velocity": 97, "duration": 240}, {"note": 74, "velocity": 105, "duration": 960}, {"note": 72, "velocity": 108, "duration": 240}, {"note": 84, "velocity": 97, "duration": 239}, {"note": 84, "velocity": 89, "duration": 240}, {"note": 81, "velocity": 105, "duration": 240}, {"note": 79, "velocity": 108, "duration": 240}, {"note": 81, "velocity": 105, "duration": 240}, {"note": 79, "velocity": 97, "duration": 240}, {"note": 74, "velocity": 94, "duration": 240}, {"note": 77, "velocity": 102, "duration": 1920}, {"note": 72, "velocity": 108, "duration": 240}, {"note": 84, "velocity": 97, "duration": 239}, {"note": 84, "velocity": 89, "duration": 240}, {"note": 81, "velocity": 105, "duration": 240}, {"note": 79, "velocity": 108, "duration": 240}, {"note": 81, "velocity": 105, "duration": 240}, {"note": 79, "velocity": 97, "duration": 240}, {"note": 74, "velocity": 94, "duration": 1200}, {"note": 77, "velocity": 102, "duration": 1494}]]