[[{"note": 68, "velocity": 92, "duration": 66}, {"note": 68, "velocity": 93, "duration": 56}, {"note": 0, "velocity": 0, "duration": 64}, {"note": 68, "velocity": 94, "duration": 75}, {"note": 70, "velocity": 95, "duration": 51}, {"note": 0, "velocity": 0, "duration": 69}, {"note": 80, "velocity": 87, "duration": 191}, {"note": 75, "velocity": 92, "duration": 58}, {"note": 0, "velocity": 0, "duration": 62}, {"note": 77, "velocity": 90, "duration": 75}, {"note": 73, "velocity": 92, "duration": 514}, {"note": 0, "velocity": 0, "duration": 446}, {"note": 68, "velocity": 92, "duration": 60}, {"note": 68, "velocity": 93, "duration": 62}, {"note": 68, "velocity": 94, "duration": 63}, {"note": 82, "velocity": 90, "duration": 81}, {"note": 80, "velocity": 93, "duration": 153}, {"note": 0, "velocity": 0, "duration": 87}, {"note": 77, "velocity": 93, "duration": 175}, {"note": 0, "velocity": 0, "duration": 65}, {"note": 75, "velocity": 96, "duration": 560}, {"note": 0, "velocity": 0, "duration": 400}, {"note": 77, "velocity": 96, "duration": 81}, {"note": 80, "velocity": 92, "duration": 61}, {"note": 80, "velocity": 93, "duration": 56}, {"note": 0, "velocity": 0, "duration": 64}, {"note": 82, "velocity": 94, "duration": 77}, {"note": 80, "velocity": 94, "duration": 74}, {"note": 77, "velocity": 96, "duration": 60}, {"note": 75, "velocity": 96, "duration": 80}, {"note": 73, "velocity": 94, "duration": 90}, {"note": 70, "velocity": 93, "duration": 423}, {"note": 0, "velocity": 0, "duration": 537}, {"note": 75, "velocity": 90, "duration": 71}, {"note": 75, "velocity": 96, "duration": 75}, {"note": 75, "velocity": 94, "duration": 72}, {"note": 77, "velocity": 90, "duration": 90}, {"note": 75, "velocity": 94, "duration": 78}, {"note": 73, "velocity": 92, "duration": 70}, {"note": 73, "velocity": 90, "duration": 82}, {"note": 70, "velocity": 93, "duration": 101}, {"note": 68, "velocity": 92, "duration": 637}, {"note": 0, "velocity": 0, "duration": 323}, {"note": 68, "velocity": 92, "duration": 67}, {"note": 68, "velocity": 91, "duration": 52}, {"note": 0, "velocity": 0, "duration": 68}, {"note": 68, "velocity": 90, "duration": 72}, {"note": 70, "velocity": 94, "duration": 51}, {"note": 0, "velocity": 0, "duration": 69}, {"note": 77, "velocity": 96, "duration": 99}, {"note": 80, "velocity": 92, "duration": 74}, {"note": 75, "velocity": 94, "duration": 84}, {"note": 77, "velocity": 93, "duration": 73}, {"note": 73, "velocity": 92, "duration": 482}, {"note": 0, "velocity": 0, "duration": 358}, {"note": 70, "velocity": 92, "duration": 90}, {"note": 68, "velocity": 91, "duration": 65}, {"note": 68, "velocity": 93, "duration": 58}, {"note": 0, "velocity": 0, "duration": 62}, {"note": 68, "velocity": 96, "duration": 68}, {"note": 82, "velocity": 94, "duration": 75}, {"note": 80, "velocity": 89, "duration": 182}, {"note": 77, "velocity": 93, "duration": 207}, {"note": 75, "velocity": 93, "duration": 612}, {"note": 0, "velocity": 0, "duration": 348}, {"note": 77, "velocity": 93, "duration": 95}, {"note": 80, "velocity": 85, "duration": 65}, {"note": 80, "velocity": 92, "duration": 63}, {"note": 82, "velocity": 89, "duration": 70}, {"note": 80, "velocity": 94, "duration": 71}, {"note": 77, "velocity": 96, "duration": 71}, {"note": 75, "velocity": 89, "duration": 77}, {"note": 73, "velocity": 94, "duration": 93}, {"note": 70, "velocity": 92, "duration": 621}, {"note": 0, "velocity": 0, "duration": 99}, {"note": 70, "velocity": 96, "duration": 78}, {"note": 73, "velocity": 93, "duration": 69}, {"note": 75, "velocity": 91, "duration": 65}, {"note": 75, "velocity": 94, "duration": 55}, {"note": 0, "velocity": 0, "duration": 65}, {"note": 75, "velocity": 98, "duration": 72}, {"note": 73, "velocity": 93, "duration": 80}, {"note": 75, "velocity": 96, "duration": 68}, {"note": 73, "velocity": 94, "duration": 66}, {"note": 75, "velocity": 96, "duration": 66}, {"note": 77, "velocity": 93, "duration": 77}, {"note": 80, "velocity": 88, "duration": 788}, {"note": 0, "velocity": 0, "duration": 172}, {"note": 80, "velocity": 94, "duration": 183}, {"note": 80, "velocity": 92, "duration": 84}, {"note": 82, "velocity": 93, "duration": 82}, {"note": 80, "velocity": 94, "duration": 142}, {"note": 0, "velocity": 0, "duration": 98}, {"note": 75, "velocity": 94, "duration": 179}, {"note": 0, "velocity": 0, "duration": 61}, {"note": 73, "velocity": 94, "duration": 650}, {"note": 0, "velocity": 0, "duration": 310}, {"note": 82, "velocity": 92, "duration": 65}, {"note": 82, "velocity": 88, "duration": 69}, {"note": 82, "velocity": 88, "duration": 77}, {"note": 85, "velocity": 96, "duration": 72}, {"note": 82, "velocity": 88, "duration": 65}, {"note": 80, "velocity": 93, "duration": 60}, {"note": 80, "velocity": 94, "duration": 63}, {"note": 77, "velocity": 94, "duration": 79}, {"note": 75, "velocity": 94, "duration": 600}, {"note": 0, "velocity": 0, "duration": 360}, {"note": 75, "velocity": 93, "duration": 77}, {"note": 75, "velocity": 92, "duration": 63}, {"note": 75, "velocity": 95, "duration": 79}, {"note": 73, "velocity": 93, "duration": 73}, {"note": 75, "velocity": 99, "duration": 172}, {"note": 0, "velocity": 0, "duration": 68}, {"note": 75, "velocity": 92, "duration": 119}, {"note": 77, "velocity": 93, "duration": 86}, {"note": 80, "velocity": 96, "duration": 279}, {"note": 0, "velocity": 0, "duration": 81}, {"note": 82, "velocity": 87, "duration": 81}, {"note": 82, "velocity": 94, "duration": 233}, {"note": 0, "velocity": 0, "duration": 247}, {"note": 75, "velocity": 93, "duration": 87}, {"note": 75, "velocity": 97, "duration": 58}, {"note": 0, "velocity": 0, "duration": 62}, {"note": 75, "velocity": 94, "duration": 83}, {"note": 73, "velocity": 93, "duration": 78}, {"note": 75, "velocity": 96, "duration": 80}, {"note": 73, "velocity": 92, "duration": 71}, {"note": 75, "velocity": 98, "duration": 68}, {"note": 77, "velocity": 92, "duration": 75}, {"note": 80, "velocity": 90, "duration": 846}, {"note": 0, "velocity": 0, "duration": 114}, {"note": 80, "velocity": 89, "duration": 72}, {"note": 80, "velocity": 93, "duration": 156}, {"note": 0, "velocity": 0, "duration": 84}, {"note": 82, "velocity": 92, "duration": 75}, {"note": 80, "velocity": 96, "duration": 163}, {"note": 0, "velocity": 0, "duration": 77}, {"note": 75, "velocity": 98, "duration": 187}, {"note": 73, "velocity": 92, "duration": 720}, {"note": 0, "velocity": 0, "duration": 240}, {"note": 82, "velocity": 93, "duration": 70}, {"note": 82, "velocity": 87, "duration": 65}, {"note": 82, "velocity": 93, "duration": 68}, {"note": 85, "velocity": 94, "duration": 75}, {"note": 82, "velocity": 93, "duration": 63}, {"note": 80, "velocity": 90, "duration": 62}, {"note": 80, "velocity": 94, "duration": 63}, {"note": 77, "velocity": 93, "duration": 80}, {"note": 75, "velocity": 95, "duration": 662}, {"note": 0, "velocity": 0, "duration": 298}, {"note": 75, "velocity": 94, "duration": 70}, {"note": 75, "velocity": 95, "duration": 201}, {"note": 73, "velocity": 93, "duration": 67}, {"note": 75, "velocity": 97, "duration": 82}, {"note": 73, "velocity": 95, "duration": 68}, {"note": 75, "velocity": 96, "duration": 67}, {"note": 77, "velocity": 93, "duration": 68}, {"note": 80, "velocity": 92, "duration": 283}, {"note": 0, "velocity": 0, "duration": 77}, {"note": 82, "velocity": 93, "duration": 73}, {"note": 82, "velocity": 93, "duration": 208}, {"note": 0, "velocity": 0, "duration": 272}, {"note": 75, "velocity": 94, "duration": 57}, {"note": 0, "velocity": 0, "duration": 63}, {"note": 77, "velocity": 93, "duration": 65}, {"note": 75, "velocity": 96, "duration": 78}, {"note": 73, "velocity": 93, "duration": 77}, {"note": 75, "velocity": 99, "duration": 77}, {"note": 73, "velocity": 93, "duration": 71}, {"note": 75, "velocity": 94, "duration": 68}, {"note": 77, "velocity": 92, "duration": 72}, {"note": 80, "velocity": 90, "duration": 871}, {"note": 0, "velocity": 0, "duration": 569}, {"note": 77, "velocity": 90, "duration": 122}, {"note": 80, "velocity": 89, "duration": 89}, {"note": 75, "velocity": 93, "duration": 218}, {"note": 73, "velocity": 84, "duration": 971}, {"note": 0, "velocity": 0, "duration": 7669}, {"note": 68, "velocity": 92, "duration": 66}, {"note": 68, "velocity": 93, "duration": 56}, {"note": 0, "velocity": 0, "duration": 64}, {"note": 68, "velocity": 94, "duration": 75}, {"note": 70, "velocity": 95, "duration": 51}, {"note": 0, "velocity": 0, "duration": 69}, {"note": 80, "velocity": 87, "duration": 191}, {"note": 75, "velocity": 92, "duration": 58}, {"note": 0, "velocity": 0, "duration": 62}, {"note": 77, "velocity": 90, "duration": 75}, {"note": 73, "velocity": 92, "duration": 514}, {"note": 0, "velocity": 0, "duration": 446}, {"note": 68, "velocity": 92, "duration": 60}, {"note": 68, "velocity": 93, "duration": 62}, {"note": 68, "velocity": 94, "duration": 63}, {"note": 82, "velocity": 90, "duration": 81}, {"note": 80, "velocity": 93, "duration": 153}, {"note": 0, "velocity": 0, "duration": 87}, {"note": 77, "velocity": 93, "duration": 175}, {"note": 0, "velocity": 0, "duration": 65}, {"note": 75, "velocity": 96, "duration": 560}, {"note": 0, "velocity": 0, "duration": 400}, {"note": 77, "velocity": 96, "duration": 81}, {"note": 80, "velocity": 92, "duration": 61}, {"note": 80, "velocity": 93, "duration": 56}, {"note": 0, "velocity": 0, "duration": 64}, {"note": 82, "velocity": 94, "duration": 77}, {"note": 80, "velocity": 94, "duration": 74}, {"note": 77, "velocity": 96, "duration": 60}, {"note": 75, "velocity": 96, "duration": 80}, {"note": 73, "velocity": 94, "duration": 90}, {"note": 70, "velocity": 93, "duration": 423}, {"note": 0, "velocity": 0, "duration": 537}, {"note": 75, "velocity": 90, "duration": 71}, {"note": 75, "velocity": 96, "duration": 75}, {"note": 75, "velocity": 94, "duration": 72}, {"note": 77, "velocity": 90, "duration": 90}, {"note": 75, "velocity": 94, "duration": 78}, {"note": 73, "velocity": 92, "duration": 70}, {"note": 73, "velocity": 90, "duration": 82}, {"note": 70, "velocity": 93, "duration": 101}, {"note": 68, "velocity": 92, "duration": 637}, {"note": 0, "velocity": 0, "duration": 323}, {"note": 68, "velocity": 92, "duration": 67}, {"note": 68, "velocity": 91, "duration": 52}, {"note": 0, "velocity": 0, "duration": 68}, {"note": 68, "velocity": 90, "duration": 72}, {"note": 70, "velocity": 94, "duration": 51}, {"note": 0, "velocity": 0, "duration": 69}, {"note": 77, "velocity": 96, "duration": 99}, {"note": 80, "velocity": 92, "duration": 74}, {"note": 75, "velocity": 94, "duration": 84}, {"note": 77, "velocity": 93, "duration": 73}, {"note": 73, "velocity": 92, "duration": 482}, {"note": 0, "velocity": 0, "duration": 358}, {"note": 70, "velocity": 92, "duration": 90}, {"note": 68, "velocity": 91, "duration": 65}, {"note": 68, "velocity": 93, "duration": 58}, {"note": 0, "velocity": 0, "duration": 62}, {"note": 68, "velocity": 96, "duration": 68}, {"note": 82, "velocity": 94, "duration": 75}, {"note": 80, "velocity": 89, "duration": 182}, {"note": 77, "velocity": 93, "duration": 207}, {"note": 75, "velocity": 93, "duration": 612}, {"note": 0, "velocity": 0, "duration": 348}, {"note": 77, "velocity": 93, "duration": 95}, {"note": 80, "velocity": 85, "duration": 65}, {"note": 80, "velocity": 92, "duration": 63}, {"note": 82, "velocity": 89, "duration": 70}, {"note": 80, "velocity": 94, "duration": 71}, {"note": 77, "velocity": 96, "duration": 71}, {"note": 75, "velocity": 89, "duration": 77}, {"note": 73, "velocity": 94, "duration": 93}, {"note": 70, "velocity": 92, "duration": 621}, {"note": 0, "velocity": 0, "duration": 99}, {"note": 70, "velocity": 96, "duration": 78}, {"note": 73, "velocity": 93, "duration": 69}, {"note": 75, "velocity": 91, "duration": 65}, {"note": 75, "velocity": 94, "duration": 55}, {"note": 0, "velocity": 0, "duration": 65}, {"note": 75, "velocity": 98, "duration": 72}, {"note": 73, "velocity": 93, "duration": 80}, {"note": 75, "velocity": 96, "duration": 68}, {"note": 73, "velocity": 94, "duration": 66}, {"note": 75, "velocity": 96, "duration": 66}, {"note": 77, "velocity": 93, "duration": 77}, {"note": 80, "velocity": 88, "duration": 788}, {"note": 0, "velocity": 0, "duration": 172}, {"note": 80, "velocity": 94, "duration": 183}, {"note": 80, "velocity": 92, "duration": 84}, {"note": 82, "velocity": 93, "duration": 82}, {"note": 80, "velocity": 94, "duration": 142}, {"note": 0, "velocity": 0, "duration": 98}, {"note": 75, "velocity": 94, "duration": 179}, {"note": 0, "velocity": 0, "duration": 61}, {"note": 73, "velocity": 94, "duration": 650}, {"note": 0, "velocity": 0, "duration": 310}, {"note": 82, "velocity": 92, "duration": 65}, {"note": 82, "velocity": 88, "duration": 69}, {"note": 82, "velocity": 88, "duration": 77}, {"note": 85, "velocity": 96, "duration": 72}, {"note": 82, "velocity": 88, "duration": 65}, {"note": 80, "velocity": 93, "duration": 60}, {"note": 80, "velocity": 94, "duration": 63}, {"note": 77, "velocity": 94, "duration": 79}, {"note": 75, "velocity": 94, "duration": 600}, {"note": 0, "velocity": 0, "duration": 360}, {"note": 75, "velocity": 93, "duration": 77}, {"note": 75, "velocity": 92, "duration": 63}, {"note": 75, "velocity": 95, "duration": 79}, {"note": 73, "velocity": 93, "duration": 73}, {"note": 75, "velocity": 99, "duration": 172}, {"note": 0, "velocity": 0, "duration": 68}, {"note": 75, "velocity": 92, "duration": 119}, {"note": 77, "velocity": 93, "duration": 86}, {"note": 80, "velocity": 96, "duration": 279}, {"note": 0, "velocity": 0, "duration": 81}, {"note": 82, "velocity": 87, "duration": 81}, {"note": 82, "velocity": 94, "duration": 233}, {"note": 0, "velocity": 0, "duration": 247}, {"note": 75, "velocity": 93, "duration": 87}, {"note": 75, "velocity": 97, "duration": 58}, {"note": 0, "velocity": 0, "duration": 62}, {"note": 75, "velocity": 94, "duration": 83}, {"note": 73, "velocity": 93, "duration": 78}, {"note": 75, "velocity": 96, "duration": 80}, {"note": 73, "velocity": 92, "duration": 71}, {"note": 75, "velocity": 98, "duration": 68}, {"note": 77, "velocity": 92, "duration": 75}, {"note": 80, "velocity": 90, "duration": 846}, {"note": 0, "velocity": 0, "duration": 114}, {"note": 80, "velocity": 89, "duration": 72}, {"note": 80, "velocity": 93, "duration": 156}, {"note": 0, "velocity": 0, "duration": 84}, {"note": 82, "velocity": 92, "duration": 75}, {"note": 80, "velocity": 96, "duration": 163}, {"note": 0, "velocity": 0, "duration": 77}, {"note": 75, "velocity": 98, "duration": 187}, {"note": 73, "velocity": 92, "duration": 720}, {"note": 0, "velocity": 0, "duration": 240}, {"note": 82, "velocity": 93, "duration": 70}, {"note": 82, "velocity": 87, "duration": 65}, {"note": 82, "velocity": 93, "duration": 68}, {"note": 85, "velocity": 94, "duration": 75}, {"note": 82, "velocity": 93, "duration": 63}, {"note": 80, "velocity": 90, "duration": 62}, {"note": 80, "velocity": 94, "duration": 63}, {"note": 77, "velocity": 93, "duration": 80}, {"note": 75, "velocity": 95, "duration": 662}, {"note": 0, "velocity": 0, "duration": 298}, {"note": 75, "velocity": 94, "duration": 70}, {"note": 75, "velocity": 95, "duration": 201}, {"note": 73, "velocity": 93, "duration": 67}, {"note": 75, "velocity": 97, "duration": 82}, {"note": 73, "velocity": 95, "duration": 68}, {"note": 75, "velocity": 96, "duration": 67}, {"note": 77, "velocity": 93, "duration": 68}, {"note": 80, "velocity": 92, "duration": 283}, {"note": 0, "velocity": 0, "duration": 77}, {"note": 82, "velocity": 93, "duration": 73}, {"note": 82, "velocity": 93, "duration": 208}, {"note": 0, "velocity": 0, "duration": 272}, {"note": 75, "velocity": 94, "duration": 57}, {"note": 0, "velocity": 0, "duration": 63}, {"note": 77, "velocity": 93, "duration": 65}, {"note": 75, "velocity": 96, "duration": 78}, {"note": 73, "velocity": 93, "duration": 77}, {"note": 75, "velocity": 99, "duration": 77}, {"note": 73, "velocity": 93, "duration": 71}, {"note": 75, "velocity": 94, "duration": 68}, {"note": 77, "velocity": 92, "duration": 72}, {"note": 80, "velocity": 90, "duration": 871}, {"note": 0, "velocity": 0, "duration": 89}, {"note": 80, "velocity": 94, "duration": 183}, {"note": 80, "velocity": 92, "duration": 84}, {"note": 82, "velocity": 93, "duration": 82}, {"note": 80, "velocity": 94, "duration": 142}, {"note": 0, "velocity": 0, "duration": 98}, {"note": 75, "velocity": 94, "duration": 179}, {"note": 0, "velocity": 0, "duration": 61}, {"note": 73, "velocity": 94, "duration": 650}, {"note": 0, "velocity": 0, "duration": 310}, {"note": 82, "velocity": 92, "duration": 65}, {"note": 82, "velocity": 88, "duration": 69}, {"note": 82, "velocity": 88, "duration": 77}, {"note": 85, "velocity": 96, "duration": 72}, {"note": 82, "velocity": 88, "duration": 65}, {"note": 80, "velocity": 93, "duration": 60}, {"note": 80, "velocity": 94, "duration": 63}, {"note": 77, "velocity": 94, "duration": 79}, {"note": 75, "velocity": 94, "duration": 600}, {"note": 0, "velocity": 0, "duration": 360}, {"note": 75, "velocity": 93, "duration": 77}, {"note": 75, "velocity": 92, "duration": 63}, {"note": 75, "velocity": 95, "duration": 79}, {"note": 73, "velocity": 93, "duration": 73}, {"note": 75, "velocity": 99, "duration": 172}, {"note": 0, "velocity": 0, "duration": 68}, {"note": 75, "velocity": 92, "duration": 119}, {"note": 77, "velocity": 93, "duration": 86}, {"note": 80, "velocity": 96, "duration": 279}, {"note": 0, "velocity": 0, "duration": 81}, {"note": 82, "velocity": 87, "duration": 81}, {"note": 82, "velocity": 94, "duration": 233}, {"note": 0, "velocity": 0, "duration": 247}, {"note": 75, "velocity": 93, "duration": 87}, {"note": 75, "velocity": 97, "duration": 58}, {"note": 0, "velocity": 0, "duration": 62}, {"note": 75, "velocity": 94, "duration": 83}, {"note": 73, "velocity": 93, "duration": 78}, {"note": 75, "velocity": 96, "duration": 80}, {"note": 73, "velocity": 92, "duration": 71}, {"note": 75, "velocity": 98, "duration": 68}, {"note": 77, "velocity": 92, "duration": 75}, {"note": 80, "velocity": 90, "duration": 846}, {"note": 0, "velocity": 0, "duration": 114}, {"note": 80, "velocity": 89, "duration": 72}, {"note": 80, "velocity": 93, "duration": 156}, {"note": 0, "velocity": 0, "duration": 84}, {"note": 82, "velocity": 92, "duration": 75}, {"note": 80, "velocity": 96, "duration": 163}, {"note": 0, "velocity": 0, "duration": 77}, {"note": 75, "velocity": 98, "duration": 187}, {"note": 73, "velocity": 92, "duration": 720}, {"note": 0, "velocity": 0, "duration": 240}, {"note": 82, "velocity": 93, "duration": 70}, {"note": 82, "velocity": 87, "duration": 65}, {"note": 82, "velocity": 93, "duration": 68}, {"note": 85, "velocity": 94, "duration": 75}, {"note": 82, "velocity": 93, "duration": 63}, {"note": 80, "velocity": 90, "duration": 62}, {"note": 80, "velocity": 94, "duration": 63}, {"note": 77, "velocity": 93, "duration": 80}, {"note": 75, "velocity": 95, "duration": 662}, {"note": 0, "velocity": 0, "duration": 298}, {"note": 75, "velocity": 94, "duration": 70}, {"note": 75, "velocity": 95, "duration": 201}, {"note": 73, "velocity": 93, "duration": 67}, {"note": 75, "velocity": 97, "duration": 82}, {"note": 73, "velocity": 95, "duration": 68}, {"note": 75, "velocity": 96, "duration": 67}, {"note": 77, "velocity": 93, "duration": 68}, {"note": 80, "velocity": 92, "duration": 283}, {"note": 0, "velocity": 0, "duration": 77}, {"note": 82, "velocity": 93, "duration": 73}, {"note": 82, "velocity": 93, "duration": 208}, {"note": 0, "velocity": 0, "duration": 272}, {"note": 75, "velocity": 94, "duration": 57}, {"note": 0, "velocity": 0, "duration": 63}, {"note": 77, "velocity": 93, "duration": 65}, {"note": 75, "velocity": 96, "duration": 78}, {"note": 73, "velocity": 93, "duration": 77}, {"note": 75, "velocity": 99, "duration": 77}, {"note": 73, "velocity": 93, "duration": 71}, {"note": 75, "velocity": 94, "duration": 68}, {"note": 77, "velocity": 92, "duration": 72}, {"note": 80, "velocity": 90, "duration": 871}, {"note": 0, "velocity": 0, "duration": 569}, {"note": 77, "velocity": 90, "duration": 122}, {"note": 80, "velocity": 89, "duration": 89}, {"note": 75, "velocity": 93, "duration": 218}, {"note": 73, "velocity": 84, "duration": 971}]]