[[{"note": 63, "velocity": 94, "duration": 141}, {"note": 0, "velocity": 0, "duration": 99}, {"note": 63, "velocity": 93, "duration": 127}, {"note": 0, "velocity": 0, "duration": 113}, {"note": 63, "velocity": 93, "duration": 176}, {"note": 0, "velocity": 0, "duration": 64}, {"note": 65, "velocity": 94, "duration": 175}, {"note": 0, "velocity": 0, "duration": 65}, {"note": 68, "velocity": 89, "duration": 656}, {"note": 0, "velocity": 0, "duration": 64}, {"note": 65, "velocity": 94, "duration": 205}, {"note": 63, "velocity": 93, "duration": 1515}, {"note": 0, "velocity": 0, "duration": 405}, {"note": 63, "velocity": 94, "duration": 139}, {"note": 0, "velocity": 0, "duration": 101}, {"note": 63, "velocity": 93, "duration": 130}, {"note": 0, "velocity": 0, "duration": 110}, {"note": 63, "velocity": 94, "duration": 147}, {"note": 0, "velocity": 0, "duration": 93}, {"note": 65, "velocity": 96, "duration": 147}, {"note": 0, "velocity": 0, "duration": 93}, {"note": 75, "velocity": 96, "duration": 269}, {"note": 0, "velocity": 0, "duration": 91}, {"note": 72, "velocity": 93, "duration": 232}, {"note": 0, "velocity": 0, "duration": 128}, {"note": 68, "velocity": 92, "duration": 185}, {"note": 70, "velocity": 90, "duration": 1080}, {"note": 0, "velocity": 0, "duration": 360}, {"note": 70, "velocity": 90, "duration": 170}, {"note": 0, "velocity": 0, "duration": 70}, {"note": 72, "velocity": 95, "duration": 139}, {"note": 0, "velocity": 0, "duration": 101}, {"note": 75, "velocity": 99, "duration": 609}, {"note": 0, "velocity": 0, "duration": 111}, {"note": 77, "velocity": 94, "duration": 151}, {"note": 0, "velocity": 0, "duration": 89}, {"note": 77, "velocity": 98, "duration": 146}, {"note": 0, "velocity": 0, "duration": 94}, {"note": 75, "velocity": 98, "duration": 120}, {"note": 0, "velocity": 0, "duration": 120}, {"note": 72, "velocity": 98, "duration": 170}, {"note": 0, "velocity": 0, "duration": 70}, {"note": 75, "velocity": 97, "duration": 158}, {"note": 0, "velocity": 0, "duration": 82}, {"note": 70, "velocity": 96, "duration": 602}, {"note": 0, "velocity": 0, "duration": 118}, {"note": 68, "velocity": 88, "duration": 193}, {"note": 65, "velocity": 98, "duration": 553}, {"note": 0, "velocity": 0, "duration": 407}, {"note": 70, "velocity": 96, "duration": 116}, {"note": 0, "velocity": 0, "duration": 124}, {"note": 70, "velocity": 93, "duration": 123}, {"note": 0, "velocity": 0, "duration": 117}, {"note": 70, "velocity": 93, "duration": 130}, {"note": 0, "velocity": 0, "duration": 110}, {"note": 72, "velocity": 94, "duration": 150}, {"note": 0, "velocity": 0, "duration": 90}, {"note": 70, "velocity": 96, "duration": 365}, {"note": 0, "velocity": 0, "duration": 115}, {"note": 68, "velocity": 92, "duration": 141}, {"note": 0, "velocity": 0, "duration": 99}, {"note": 65, "velocity": 97, "duration": 166}, {"note": 0, "velocity": 0, "duration": 74}, {"note": 63, "velocity": 96, "duration": 1523}, {"note": 0, "velocity": 0, "duration": 397}, {"note": 63, "velocity": 94, "duration": 141}, {"note": 0, "velocity": 0, "duration": 99}, {"note": 63, "velocity": 93, "duration": 127}, {"note": 0, "velocity": 0, "duration": 113}, {"note": 63, "velocity": 93, "duration": 176}, {"note": 0, "velocity": 0, "duration": 64}, {"note": 65, "velocity": 94, "duration": 175}, {"note": 0, "velocity": 0, "duration": 65}, {"note": 68, "velocity": 89, "duration": 656}, {"note": 0, "velocity": 0, "duration": 64}, {"note": 65, "velocity": 94, "duration": 205}, {"note": 63, "velocity": 93, "duration": 1515}, {"note": 0, "velocity": 0, "duration": 405}, {"note": 63, "velocity": 94, "duration": 139}, {"note": 0, "velocity": 0, "duration": 101}, {"note": 63, "velocity": 93, "duration": 130}, {"note": 0, "velocity": 0, "duration": 110}, {"note": 63, "velocity": 94, "duration": 147}, {"note": 0, "velocity": 0, "duration": 93}, {"note": 65, "velocity": 96, "duration": 147}, {"note": 0, "velocity": 0, "duration": 93}, {"note": 75, "velocity": 96, "duration": 269}, {"note": 0, "velocity": 0, "duration": 91}, {"note": 72, "velocity": 93, "duration": 232}, {"note": 0, "velocity": 0, "duration": 128}, {"note": 68, "velocity": 92, "duration": 185}, {"note": 70, "velocity": 90, "duration": 1080}, {"note": 0, "velocity": 0, "duration": 360}, {"note": 70, "velocity": 90, "duration": 170}, {"note": 0, "velocity": 0, "duration": 70}, {"note": 72, "velocity": 95, "duration": 139}, {"note": 0, "velocity": 0, "duration": 101}, {"note": 75, "velocity": 99, "duration": 240}, {"note": 75, "velocity": 99, "duration": 369}, {"note": 0, "velocity": 0, "duration": 111}, {"note": 77, "velocity": 94, "duration": 151}, {"note": 0, "velocity": 0, "duration": 89}, {"note": 77, "velocity": 98, "duration": 146}, {"note": 0, "velocity": 0, "duration": 94}, {"note": 75, "velocity": 98, "duration": 120}, {"note": 0, "velocity": 0, "duration": 120}, {"note": 72, "velocity": 98, "duration": 170}, {"note": 0, "velocity": 0, "duration": 70}, {"note": 75, "velocity": 97, "duration": 158}, {"note": 0, "velocity": 0, "duration": 82}, {"note": 70, "velocity": 96, "duration": 602}, {"note": 0, "velocity": 0, "duration": 118}, {"note": 68, "velocity": 88, "duration": 193}, {"note": 65, "velocity": 98, "duration": 553}, {"note": 0, "velocity": 0, "duration": 407}, {"note": 70, "velocity": 96, "duration": 116}, {"note": 0, "velocity": 0, "duration": 124}, {"note": 70, "velocity": 93, "duration": 123}, {"note": 0, "velocity": 0, "duration": 117}, {"note": 70, "velocity": 93, "duration": 130}, {"note": 0, "velocity": 0, "duration": 110}, {"note": 72, "velocity": 94, "duration": 150}, {"note": 0, "velocity": 0, "duration": 90}, {"note": 70, "velocity": 96, "duration": 365}, {"note": 0, "velocity": 0, "duration": 115}, {"note": 68, "velocity": 92, "duration": 141}, {"note": 0, "velocity": 0, "duration": 99}, {"note": 65, "velocity": 97, "duration": 166}, {"note": 0, "velocity": 0, "duration": 74}, {"note": 68, "velocity": 96, "duration": 1523}, {"note": 0, "velocity": 0, "duration": 397}, {"note": 75, "velocity": 108, "duration": 159}, {"note": 0, "velocity": 0, "duration": 81}, {"note": 75, "velocity": 103, "duration": 362}, {"note": 0, "velocity": 0, "duration": 118}, {"note": 77, "velocity": 97, "duration": 169}, {"note": 0, "velocity": 0, "duration": 71}, {"note": 80, "velocity": 94, "duration": 393}, {"note": 0, "velocity": 0, "duration": 87}, {"note": 77, "velocity": 98, "duration": 404}, {"note": 0, "velocity": 0, "duration": 76}, {"note": 75, "velocity": 99, "duration": 1468}, {"note": 0, "velocity": 0, "duration": 452}, {"note": 77, "velocity": 96, "duration": 143}, {"note": 0, "velocity": 0, "duration": 97}, {"note": 77, "velocity": 93, "duration": 128}, {"note": 0, "velocity": 0, "duration": 112}, {"note": 77, "velocity": 96, "duration": 170}, {"note": 0, "velocity": 0, "duration": 70}, {"note": 75, "velocity": 98, "duration": 157}, {"note": 0, "velocity": 0, "duration": 83}, {"note": 72, "velocity": 98, "duration": 382}, {"note": 0, "velocity": 0, "duration": 98}, {"note": 65, "velocity": 96, "duration": 158}, {"note": 0, "velocity": 0, "duration": 82}, {"note": 68, "velocity": 93, "duration": 146}, {"note": 0, "velocity": 0, "duration": 94}, {"note": 70, "velocity": 93, "duration": 1200}, {"note": 0, "velocity": 0, "duration": 240}, {"note": 70, "velocity": 98, "duration": 152}, {"note": 0, "velocity": 0, "duration": 88}, {"note": 72, "velocity": 98, "duration": 151}, {"note": 0, "velocity": 0, "duration": 89}, {"note": 75, "velocity": 97, "duration": 135}, {"note": 0, "velocity": 0, "duration": 105}, {"note": 75, "velocity": 101, "duration": 127}, {"note": 0, "velocity": 0, "duration": 113}, {"note": 75, "velocity": 96, "duration": 128}, {"note": 0, "velocity": 0, "duration": 112}, {"note": 72, "velocity": 93, "duration": 139}, {"note": 0, "velocity": 0, "duration": 101}, {"note": 70, "velocity": 96, "duration": 161}, {"note": 0, "velocity": 0, "duration": 79}, {"note": 72, "velocity": 96, "duration": 369}, {"note": 0, "velocity": 0, "duration": 111}, {"note": 67, "velocity": 93, "duration": 166}, {"note": 0, "velocity": 0, "duration": 74}, {"note": 65, "velocity": 96, "duration": 1211}, {"note": 0, "velocity": 0, "duration": 229}, {"note": 65, "velocity": 103, "duration": 139}, {"note": 0, "velocity": 0, "duration": 101}, {"note": 68, "velocity": 93, "duration": 143}, {"note": 0, "velocity": 0, "duration": 97}, {"note": 70, "velocity": 94, "duration": 140}, {"note": 0, "velocity": 0, "duration": 100}, {"note": 70, "velocity": 94, "duration": 135}, {"note": 0, "velocity": 0, "duration": 105}, {"note": 70, "velocity": 94, "duration": 143}, {"note": 0, "velocity": 0, "duration": 97}, {"note": 72, "velocity": 94, "duration": 139}, {"note": 0, "velocity": 0, "duration": 101}, {"note": 70, "velocity": 95, "duration": 172}, {"note": 0, "velocity": 0, "duration": 68}, {"note": 80, "velocity": 94, "duration": 400}, {"note": 0, "velocity": 0, "duration": 80}, {"note": 77, "velocity": 94, "duration": 158}, {"note": 0, "velocity": 0, "duration": 82}, {"note": 75, "velocity": 99, "duration": 1392}, {"note": 0, "velocity": 0, "duration": 528}, {"note": 75, "velocity": 98, "duration": 128}, {"note": 0, "velocity": 0, "duration": 112}, {"note": 75, "velocity": 108, "duration": 362}, {"note": 0, "velocity": 0, "duration": 118}, {"note": 77, "velocity": 96, "duration": 168}, {"note": 0, "velocity": 0, "duration": 72}, {"note": 80, "velocity": 92, "duration": 396}, {"note": 0, "velocity": 0, "duration": 84}, {"note": 77, "velocity": 93, "duration": 432}, {"note": 75, "velocity": 94, "duration": 1308}, {"note": 0, "velocity": 0, "duration": 612}, {"note": 77, "velocity": 93, "duration": 131}, {"note": 0, "velocity": 0, "duration": 109}, {"note": 77, "velocity": 93, "duration": 132}, {"note": 0, "velocity": 0, "duration": 108}, {"note": 77, "velocity": 99, "duration": 142}, {"note": 0, "velocity": 0, "duration": 98}, {"note": 75, "velocity": 96, "duration": 147}, {"note": 0, "velocity": 0, "duration": 93}, {"note": 72, "velocity": 96, "duration": 362}, {"note": 0, "velocity": 0, "duration": 118}, {"note": 65, "velocity": 99, "duration": 155}, {"note": 0, "velocity": 0, "duration": 85}, {"note": 68, "velocity": 94, "duration": 188}, {"note": 70, "velocity": 93, "duration": 1418}, {"note": 70, "velocity": 94, "duration": 181}, {"note": 72, "velocity": 94, "duration": 163}, {"note": 0, "velocity": 0, "duration": 77}, {"note": 75, "velocity": 94, "duration": 144}, {"note": 0, "velocity": 0, "duration": 96}, {"note": 75, "velocity": 94, "duration": 131}, {"note": 0, "velocity": 0, "duration": 109}, {"note": 75, "velocity": 96, "duration": 151}, {"note": 0, "velocity": 0, "duration": 89}, {"note": 72, "velocity": 95, "duration": 139}, {"note": 0, "velocity": 0, "duration": 101}, {"note": 70, "velocity": 96, "duration": 183}, {"note": 72, "velocity": 93, "duration": 411}, {"note": 0, "velocity": 0, "duration": 69}, {"note": 67, "velocity": 93, "duration": 183}, {"note": 65, "velocity": 94, "duration": 1243}, {"note": 0, "velocity": 0, "duration": 197}, {"note": 65, "velocity": 96, "duration": 169}, {"note": 0, "velocity": 0, "duration": 71}, {"note": 68, "velocity": 93, "duration": 172}, {"note": 0, "velocity": 0, "duration": 68}, {"note": 70, "velocity": 93, "duration": 154}, {"note": 0, "velocity": 0, "duration": 86}, {"note": 70, "velocity": 94, "duration": 120}, {"note": 0, "velocity": 0, "duration": 120}, {"note": 70, "velocity": 93, "duration": 169}, {"note": 0, "velocity": 0, "duration": 71}, {"note": 68, "velocity": 94, "duration": 161}, {"note": 0, "velocity": 0, "duration": 79}, {"note": 70, "velocity": 96, "duration": 159}, {"note": 0, "velocity": 0, "duration": 81}, {"note": 80, "velocity": 92, "duration": 354}, {"note": 0, "velocity": 0, "duration": 126}, {"note": 77, "velocity": 92, "duration": 185}, {"note": 75, "velocity": 96, "duration": 1124}, {"note": 0, "velocity": 0, "duration": 316}, {"note": 65, "velocity": 108, "duration": 97}, {"note": 0, "velocity": 0, "duration": 143}, {"note": 68, "velocity": 93, "duration": 124}, {"note": 0, "velocity": 0, "duration": 116}, {"note": 70, "velocity": 93, "duration": 133}, {"note": 0, "velocity": 0, "duration": 107}, {"note": 70, "velocity": 92, "duration": 131}, {"note": 0, "velocity": 0, "duration": 109}, {"note": 70, "velocity": 93, "duration": 147}, {"note": 0, "velocity": 0, "duration": 93}, {"note": 72, "velocity": 93, "duration": 177}, {"note": 0, "velocity": 0, "duration": 63}, {"note": 75, "velocity": 98, "duration": 210}, {"note": 72, "velocity": 93, "duration": 315}, {"note": 0, "velocity": 0, "duration": 165}, {"note": 70, "velocity": 94, "duration": 240}, {"note": 68, "velocity": 92, "duration": 1823}, {"note": 0, "velocity": 0, "duration": 15457}, {"note": 63, "velocity": 94, "duration": 141}, {"note": 0, "velocity": 0, "duration": 99}, {"note": 63, "velocity": 93, "duration": 127}, {"note": 0, "velocity": 0, "duration": 113}, {"note": 63, "velocity": 93, "duration": 176}, {"note": 0, "velocity": 0, "duration": 64}, {"note": 65, "velocity": 94, "duration": 175}, {"note": 0, "velocity": 0, "duration": 65}, {"note": 68, "velocity": 89, "duration": 656}, {"note": 0, "velocity": 0, "duration": 64}, {"note": 65, "velocity": 94, "duration": 205}, {"note": 63, "velocity": 93, "duration": 1515}, {"note": 0, "velocity": 0, "duration": 405}, {"note": 63, "velocity": 94, "duration": 139}, {"note": 0, "velocity": 0, "duration": 101}, {"note": 63, "velocity": 93, "duration": 130}, {"note": 0, "velocity": 0, "duration": 110}, {"note": 63, "velocity": 94, "duration": 147}, {"note": 0, "velocity": 0, "duration": 93}, {"note": 65, "velocity": 96, "duration": 147}, {"note": 0, "velocity": 0, "duration": 93}, {"note": 75, "velocity": 96, "duration": 269}, {"note": 0, "velocity": 0, "duration": 91}, {"note": 72, "velocity": 93, "duration": 232}, {"note": 0, "velocity": 0, "duration": 128}, {"note": 68, "velocity": 92, "duration": 185}, {"note": 70, "velocity": 90, "duration": 1080}, {"note": 0, "velocity": 0, "duration": 360}, {"note": 70, "velocity": 90, "duration": 170}, {"note": 0, "velocity": 0, "duration": 70}, {"note": 72, "velocity": 95, "duration": 139}, {"note": 0, "velocity": 0, "duration": 101}, {"note": 75, "velocity": 99, "duration": 609}, {"note": 0, "velocity": 0, "duration": 111}, {"note": 77, "velocity": 94, "duration": 151}, {"note": 0, "velocity": 0, "duration": 89}, {"note": 77, "velocity": 98, "duration": 146}, {"note": 0, "velocity": 0, "duration": 94}, {"note": 75, "velocity": 98, "duration": 120}, {"note": 0, "velocity": 0, "duration": 120}, {"note": 72, "velocity": 98, "duration": 170}, {"note": 0, "velocity": 0, "duration": 70}, {"note": 75, "velocity": 97, "duration": 158}, {"note": 0, "velocity": 0, "duration": 82}, {"note": 70, "velocity": 96, "duration": 602}, {"note": 0, "velocity": 0, "duration": 118}, {"note": 68, "velocity": 88, "duration": 193}, {"note": 65, "velocity": 98, "duration": 553}, {"note": 0, "velocity": 0, "duration": 407}, {"note": 70, "velocity": 96, "duration": 116}, {"note": 0, "velocity": 0, "duration": 124}, {"note": 70, "velocity": 93, "duration": 123}, {"note": 0, "velocity": 0, "duration": 117}, {"note": 70, "velocity": 93, "duration": 130}, {"note": 0, "velocity": 0, "duration": 110}, {"note": 72, "velocity": 94, "duration": 150}, {"note": 0, "velocity": 0, "duration": 90}, {"note": 70, "velocity": 96, "duration": 365}, {"note": 0, "velocity": 0, "duration": 115}, {"note": 68, "velocity": 92, "duration": 141}, {"note": 0, "velocity": 0, "duration": 99}, {"note": 65, "velocity": 97, "duration": 166}, {"note": 0, "velocity": 0, "duration": 74}, {"note": 63, "velocity": 96, "duration": 1523}, {"note": 0, "velocity": 0, "duration": 397}, {"note": 63, "velocity": 94, "duration": 141}, {"note": 0, "velocity": 0, "duration": 99}, {"note": 63, "velocity": 93, "duration": 127}, {"note": 0, "velocity": 0, "duration": 113}, {"note": 63, "velocity": 93, "duration": 176}, {"note": 0, "velocity": 0, "duration": 64}, {"note": 65, "velocity": 94, "duration": 175}, {"note": 0, "velocity": 0, "duration": 65}, {"note": 68, "velocity": 89, "duration": 656}, {"note": 0, "velocity": 0, "duration": 64}, {"note": 65, "velocity": 94, "duration": 205}, {"note": 63, "velocity": 93, "duration": 1515}, {"note": 0, "velocity": 0, "duration": 405}, {"note": 63, "velocity": 94, "duration": 139}, {"note": 0, "velocity": 0, "duration": 101}, {"note": 63, "velocity": 93, "duration": 130}, {"note": 0, "velocity": 0, "duration": 110}, {"note": 63, "velocity": 94, "duration": 147}, {"note": 0, "velocity": 0, "duration": 93}, {"note": 65, "velocity": 96, "duration": 147}, {"note": 0, "velocity": 0, "duration": 93}, {"note": 75, "velocity": 96, "duration": 269}, {"note": 0, "velocity": 0, "duration": 91}, {"note": 72, "velocity": 93, "duration": 232}, {"note": 0, "velocity": 0, "duration": 128}, {"note": 68, "velocity": 92, "duration": 185}, {"note": 70, "velocity": 90, "duration": 1080}, {"note": 0, "velocity": 0, "duration": 360}, {"note": 70, "velocity": 90, "duration": 170}, {"note": 0, "velocity": 0, "duration": 70}, {"note": 72, "velocity": 95, "duration": 139}, {"note": 0, "velocity": 0, "duration": 101}, {"note": 75, "velocity": 99, "duration": 720}, {"note": 77, "velocity": 94, "duration": 151}, {"note": 0, "velocity": 0, "duration": 89}, {"note": 77, "velocity": 98, "duration": 146}, {"note": 0, "velocity": 0, "duration": 94}, {"note": 75, "velocity": 98, "duration": 120}, {"note": 0, "velocity": 0, "duration": 120}, {"note": 72, "velocity": 98, "duration": 170}, {"note": 0, "velocity": 0, "duration": 70}, {"note": 75, "velocity": 97, "duration": 158}, {"note": 0, "velocity": 0, "duration": 82}, {"note": 70, "velocity": 96, "duration": 602}, {"note": 0, "velocity": 0, "duration": 118}, {"note": 68, "velocity": 88, "duration": 193}, {"note": 65, "velocity": 98, "duration": 553}, {"note": 0, "velocity": 0, "duration": 407}, {"note": 70, "velocity": 96, "duration": 116}, {"note": 0, "velocity": 0, "duration": 124}, {"note": 70, "velocity": 93, "duration": 123}, {"note": 0, "velocity": 0, "duration": 117}, {"note": 70, "velocity": 93, "duration": 130}, {"note": 0, "velocity": 0, "duration": 110}, {"note": 72, "velocity": 94, "duration": 150}, {"note": 0, "velocity": 0, "duration": 90}, {"note": 70, "velocity": 96, "duration": 365}, {"note": 0, "velocity": 0, "duration": 115}, {"note": 68, "velocity": 92, "duration": 141}, {"note": 0, "velocity": 0, "duration": 99}, {"note": 65, "velocity": 97, "duration": 166}, {"note": 0, "velocity": 0, "duration": 74}, {"note": 68, "velocity": 96, "duration": 1523}, {"note": 0, "velocity": 0, "duration": 397}, {"note": 75, "velocity": 108, "duration": 159}, {"note": 0, "velocity": 0, "duration": 81}, {"note": 75, "velocity": 103, "duration": 362}, {"note": 0, "velocity": 0, "duration": 118}, {"note": 77, "velocity": 97, "duration": 169}, {"note": 0, "velocity": 0, "duration": 71}, {"note": 80, "velocity": 94, "duration": 393}, {"note": 0, "velocity": 0, "duration": 87}, {"note": 77, "velocity": 98, "duration": 404}, {"note": 0, "velocity": 0, "duration": 76}, {"note": 75, "velocity": 99, "duration": 1468}, {"note": 0, "velocity": 0, "duration": 452}, {"note": 77, "velocity": 96, "duration": 143}, {"note": 0, "velocity": 0, "duration": 97}, {"note": 77, "velocity": 93, "duration": 128}, {"note": 0, "velocity": 0, "duration": 112}, {"note": 77, "velocity": 96, "duration": 170}, {"note": 0, "velocity": 0, "duration": 70}, {"note": 75, "velocity": 98, "duration": 157}, {"note": 0, "velocity": 0, "duration": 83}, {"note": 72, "velocity": 98, "duration": 382}, {"note": 0, "velocity": 0, "duration": 98}, {"note": 65, "velocity": 96, "duration": 158}, {"note": 0, "velocity": 0, "duration": 82}, {"note": 68, "velocity": 93, "duration": 146}, {"note": 0, "velocity": 0, "duration": 94}, {"note": 70, "velocity": 93, "duration": 1200}, {"note": 0, "velocity": 0, "duration": 240}, {"note": 70, "velocity": 98, "duration": 152}, {"note": 0, "velocity": 0, "duration": 88}, {"note": 72, "velocity": 98, "duration": 151}, {"note": 0, "velocity": 0, "duration": 89}, {"note": 75, "velocity": 97, "duration": 135}, {"note": 0, "velocity": 0, "duration": 105}, {"note": 75, "velocity": 101, "duration": 127}, {"note": 0, "velocity": 0, "duration": 113}, {"note": 75, "velocity": 96, "duration": 128}, {"note": 0, "velocity": 0, "duration": 112}, {"note": 72, "velocity": 93, "duration": 139}, {"note": 0, "velocity": 0, "duration": 101}, {"note": 70, "velocity": 96, "duration": 161}, {"note": 0, "velocity": 0, "duration": 79}, {"note": 72, "velocity": 96, "duration": 369}, {"note": 0, "velocity": 0, "duration": 111}, {"note": 67, "velocity": 93, "duration": 166}, {"note": 0, "velocity": 0, "duration": 74}, {"note": 65, "velocity": 96, "duration": 1211}, {"note": 0, "velocity": 0, "duration": 229}, {"note": 65, "velocity": 103, "duration": 139}, {"note": 0, "velocity": 0, "duration": 101}, {"note": 68, "velocity": 93, "duration": 143}, {"note": 0, "velocity": 0, "duration": 97}, {"note": 70, "velocity": 94, "duration": 140}, {"note": 0, "velocity": 0, "duration": 100}, {"note": 70, "velocity": 94, "duration": 135}, {"note": 0, "velocity": 0, "duration": 105}, {"note": 70, "velocity": 94, "duration": 143}, {"note": 0, "velocity": 0, "duration": 97}, {"note": 72, "velocity": 94, "duration": 139}, {"note": 0, "velocity": 0, "duration": 101}, {"note": 70, "velocity": 95, "duration": 172}, {"note": 0, "velocity": 0, "duration": 68}, {"note": 80, "velocity": 94, "duration": 400}, {"note": 0, "velocity": 0, "duration": 80}, {"note": 77, "velocity": 94, "duration": 158}, {"note": 0, "velocity": 0, "duration": 82}, {"note": 75, "velocity": 99, "duration": 1392}, {"note": 0, "velocity": 0, "duration": 528}, {"note": 75, "velocity": 98, "duration": 128}, {"note": 0, "velocity": 0, "duration": 112}, {"note": 75, "velocity": 108, "duration": 362}, {"note": 0, "velocity": 0, "duration": 118}, {"note": 77, "velocity": 96, "duration": 168}, {"note": 0, "velocity": 0, "duration": 72}, {"note": 80, "velocity": 92, "duration": 396}, {"note": 0, "velocity": 0, "duration": 84}, {"note": 77, "velocity": 93, "duration": 432}, {"note": 75, "velocity": 94, "duration": 1308}, {"note": 0, "velocity": 0, "duration": 612}, {"note": 77, "velocity": 93, "duration": 131}, {"note": 0, "velocity": 0, "duration": 109}, {"note": 77, "velocity": 93, "duration": 132}, {"note": 0, "velocity": 0, "duration": 108}, {"note": 77, "velocity": 99, "duration": 142}, {"note": 0, "velocity": 0, "duration": 98}, {"note": 75, "velocity": 96, "duration": 147}, {"note": 0, "velocity": 0, "duration": 93}, {"note": 72, "velocity": 96, "duration": 362}, {"note": 0, "velocity": 0, "duration": 118}, {"note": 65, "velocity": 99, "duration": 155}, {"note": 0, "velocity": 0, "duration": 85}, {"note": 68, "velocity": 94, "duration": 188}, {"note": 70, "velocity": 93, "duration": 1418}, {"note": 70, "velocity": 94, "duration": 181}, {"note": 72, "velocity": 94, "duration": 163}, {"note": 0, "velocity": 0, "duration": 77}, {"note": 75, "velocity": 94, "duration": 144}, {"note": 0, "velocity": 0, "duration": 96}, {"note": 75, "velocity": 94, "duration": 131}, {"note": 0, "velocity": 0, "duration": 109}, {"note": 75, "velocity": 96, "duration": 151}, {"note": 0, "velocity": 0, "duration": 89}, {"note": 72, "velocity": 95, "duration": 139}, {"note": 0, "velocity": 0, "duration": 101}, {"note": 70, "velocity": 96, "duration": 183}, {"note": 72, "velocity": 93, "duration": 411}, {"note": 0, "velocity": 0, "duration": 69}, {"note": 67, "velocity": 93, "duration": 183}, {"note": 65, "velocity": 94, "duration": 1243}, {"note": 0, "velocity": 0, "duration": 197}, {"note": 65, "velocity": 96, "duration": 169}, {"note": 0, "velocity": 0, "duration": 71}, {"note": 68, "velocity": 93, "duration": 172}, {"note": 0, "velocity": 0, "duration": 68}, {"note": 70, "velocity": 93, "duration": 154}, {"note": 0, "velocity": 0, "duration": 86}, {"note": 70, "velocity": 94, "duration": 120}, {"note": 0, "velocity": 0, "duration": 120}, {"note": 70, "velocity": 93, "duration": 169}, {"note": 0, "velocity": 0, "duration": 71}, {"note": 68, "velocity": 94, "duration": 161}, {"note": 0, "velocity": 0, "duration": 79}, {"note": 70, "velocity": 96, "duration": 159}, {"note": 0, "velocity": 0, "duration": 81}, {"note": 80, "velocity": 92, "duration": 354}, {"note": 0, "velocity": 0, "duration": 126}, {"note": 77, "velocity": 92, "duration": 185}, {"note": 75, "velocity": 96, "duration": 1124}, {"note": 0, "velocity": 0, "duration": 316}, {"note": 65, "velocity": 108, "duration": 97}, {"note": 0, "velocity": 0, "duration": 143}, {"note": 68, "velocity": 93, "duration": 124}, {"note": 0, "velocity": 0, "duration": 116}, {"note": 70, "velocity": 93, "duration": 133}, {"note": 0, "velocity": 0, "duration": 107}, {"note": 70, "velocity": 92, "duration": 131}, {"note": 0, "velocity": 0, "duration": 109}, {"note": 70, "velocity": 93, "duration": 147}, {"note": 0, "velocity": 0, "duration": 93}, {"note": 72, "velocity": 93, "duration": 177}, {"note": 0, "velocity": 0, "duration": 63}, {"note": 75, "velocity": 98, "duration": 210}, {"note": 72, "velocity": 93, "duration": 315}, {"note": 0, "velocity": 0, "duration": 165}, {"note": 70, "velocity": 94, "duration": 240}, {"note": 68, "velocity": 92, "duration": 1200}, {"note": 0, "velocity": 0, "duration": 293}, {"note": 65, "velocity": 101, "duration": 180}, {"note": 68, "velocity": 92, "duration": 177}, {"note": 0, "velocity": 0, "duration": 80}, {"note": 70, "velocity": 90, "duration": 143}, {"note": 0, "velocity": 0, "duration": 80}, {"note": 70, "velocity": 90, "duration": 146}, {"note": 0, "velocity": 0, "duration": 93}, {"note": 70, "velocity": 94, "duration": 157}, {"note": 0, "velocity": 0, "duration": 106}, {"note": 72, "velocity": 94, "duration": 246}, {"note": 0, "velocity": 0, "duration": 65}, {"note": 75, "velocity": 99, "duration": 226}, {"note": 0, "velocity": 0, "duration": 89}, {"note": 72, "velocity": 94, "duration": 307}, {"note": 0, "velocity": 0, "duration": 102}, {"note": 70, "velocity": 93, "duration": 1223}, {"note": 0, "velocity": 0, "duration": 511}, {"note": 65, "velocity": 99, "duration": 644}, {"note": 68, "velocity": 92, "duration": 3143}]]