[[{"note": 66, "velocity": 92, "duration": 258}, {"note": 68, "velocity": 89, "duration": 161}, {"note": 0, "velocity": 0, "duration": 79}, {"note": 69, "velocity": 87, "duration": 251}, {"note": 68, "velocity": 97, "duration": 237}, {"note": 66, "velocity": 91, "duration": 458}, {"note": 64, "velocity": 97, "duration": 146}, {"note": 61, "velocity": 97, "duration": 199}, {"note": 64, "velocity": 96, "duration": 1896}, {"note": 0, "velocity": 0, "duration": 144}, {"note": 66, "velocity": 95, "duration": 232}, {"note": 68, "velocity": 97, "duration": 244}, {"note": 69, "velocity": 92, "duration": 228}, {"note": 68, "velocity": 92, "duration": 255}, {"note": 66, "velocity": 87, "duration": 241}, {"note": 64, "velocity": 97, "duration": 256}, {"note": 61, "velocity": 97, "duration": 234}, {"note": 64, "velocity": 94, "duration": 242}, {"note": 71, "velocity": 94, "duration": 233}, {"note": 73, "velocity": 88, "duration": 975}, {"note": 73, "velocity": 96, "duration": 15}, {"note": 0, "velocity": 0, "duration": 225}, {"note": 73, "velocity": 97, "duration": 688}, {"note": 71, "velocity": 97, "duration": 229}, {"note": 74, "velocity": 97, "duration": 738}, {"note": 0, "velocity": 0, "duration": 102}, {"note": 71, "velocity": 96, "duration": 125}, {"note": 71, "velocity": 96, "duration": 5}, {"note": 0, "velocity": 0, "duration": 715}, {"note": 69, "velocity": 89, "duration": 266}, {"note": 73, "velocity": 96, "duration": 848}, {"note": 73, "velocity": 87, "duration": 8}, {"note": 0, "velocity": 0, "duration": 112}, {"note": 73, "velocity": 97, "duration": 29}, {"note": 0, "velocity": 0, "duration": 211}, {"note": 66, "velocity": 97, "duration": 241}, {"note": 69, "velocity": 82, "duration": 233}, {"note": 66, "velocity": 94, "duration": 713}, {"note": 69, "velocity": 90, "duration": 243}, {"note": 71, "velocity": 96, "duration": 131}, {"note": 0, "velocity": 0, "duration": 109}, {"note": 66, "velocity": 96, "duration": 863}, {"note": 0, "velocity": 0, "duration": 97}, {"note": 64, "velocity": 96, "duration": 1446}, {"note": 66, "velocity": 96, "duration": 226}, {"note": 68, "velocity": 97, "duration": 238}, {"note": 69, "velocity": 96, "duration": 241}, {"note": 68, "velocity": 97, "duration": 234}, {"note": 66, "velocity": 96, "duration": 239}, {"note": 64, "velocity": 105, "duration": 240}, {"note": 61, "velocity": 97, "duration": 239}, {"note": 64, "velocity": 98, "duration": 2170}, {"note": 66, "velocity": 92, "duration": 217}, {"note": 68, "velocity": 91, "duration": 250}, {"note": 69, "velocity": 96, "duration": 334}, {"note": 68, "velocity": 95, "duration": 237}, {"note": 66, "velocity": 96, "duration": 247}, {"note": 64, "velocity": 98, "duration": 258}, {"note": 61, "velocity": 98, "duration": 244}, {"note": 64, "velocity": 96, "duration": 236}, {"note": 71, "velocity": 97, "duration": 238}, {"note": 73, "velocity": 96, "duration": 963}, {"note": 73, "velocity": 98, "duration": 3}, {"note": 0, "velocity": 0, "duration": 237}, {"note": 73, "velocity": 98, "duration": 4}, {"note": 0, "velocity": 0, "duration": 716}, {"note": 71, "velocity": 97, "duration": 130}, {"note": 0, "velocity": 0, "duration": 110}, {"note": 74, "velocity": 98, "duration": 839}, {"note": 71, "velocity": 91, "duration": 151}, {"note": 71, "velocity": 94, "duration": 31}, {"note": 0, "velocity": 0, "duration": 689}, {"note": 69, "velocity": 94, "duration": 227}, {"note": 73, "velocity": 97, "duration": 833}, {"note": 66, "velocity": 105, "duration": 141}, {"note": 73, "velocity": 103, "duration": 217}, {"note": 66, "velocity": 92, "duration": 125}, {"note": 69, "velocity": 96, "duration": 241}, {"note": 71, "velocity": 96, "duration": 365}, {"note": 71, "velocity": 96, "duration": 5}, {"note": 0, "velocity": 0, "duration": 715}, {"note": 69, "velocity": 98, "duration": 233}, {"note": 76, "velocity": 98, "duration": 246}, {"note": 73, "velocity": 93, "duration": 252}, {"note": 71, "velocity": 98, "duration": 229}, {"note": 69, "velocity": 96, "duration": 133}, {"note": 71, "velocity": 96, "duration": 585}, {"note": 73, "velocity": 97, "duration": 240}, {"note": 69, "velocity": 96, "duration": 253}, {"note": 66, "velocity": 97, "duration": 232}, {"note": 73, "velocity": 98, "duration": 125}, {"note": 71, "velocity": 95, "duration": 580}, {"note": 73, "velocity": 97, "duration": 242}, {"note": 78, "velocity": 100, "duration": 244}, {"note": 76, "velocity": 103, "duration": 241}, {"note": 73, "velocity": 97, "duration": 125}, {"note": 71, "velocity": 96, "duration": 111}, {"note": 69, "velocity": 91, "duration": 145}, {"note": 71, "velocity": 97, "duration": 479}, {"note": 66, "velocity": 98, "duration": 241}, {"note": 73, "velocity": 97, "duration": 946}, {"note": 69, "velocity": 98, "duration": 117}, {"note": 71, "velocity": 97, "duration": 139}, {"note": 73, "velocity": 99, "duration": 233}, {"note": 76, "velocity": 99, "duration": 131}, {"note": 74, "velocity": 100, "duration": 338}, {"note": 69, "velocity": 97, "duration": 120}, {"note": 71, "velocity": 96, "duration": 141}, {"note": 73, "velocity": 96, "duration": 230}, {"note": 76, "velocity": 99, "duration": 130}, {"note": 74, "velocity": 100, "duration": 364}, {"note": 69, "velocity": 88, "duration": 121}, {"note": 71, "velocity": 97, "duration": 132}, {"note": 71, "velocity": 96, "duration": 12}, {"note": 0, "velocity": 0, "duration": 228}, {"note": 73, "velocity": 98, "duration": 477}, {"note": 76, "velocity": 98, "duration": 485}, {"note": 73, "velocity": 98, "duration": 240}, {"note": 71, "velocity": 97, "duration": 240}, {"note": 69, "velocity": 97, "duration": 249}, {"note": 66, "velocity": 100, "duration": 220}, {"note": 73, "velocity": 99, "duration": 130}, {"note": 71, "velocity": 94, "duration": 589}, {"note": 73, "velocity": 102, "duration": 249}, {"note": 78, "velocity": 98, "duration": 233}, {"note": 76, "velocity": 99, "duration": 125}, {"note": 78, "velocity": 102, "duration": 122}, {"note": 80, "velocity": 96, "duration": 113}, {"note": 81, "velocity": 91, "duration": 127}, {"note": 80, "velocity": 107, "duration": 243}, {"note": 76, "velocity": 101, "duration": 127}, {"note": 76, "velocity": 101, "duration": 7}, {"note": 0, "velocity": 0, "duration": 233}, {"note": 71, "velocity": 100, "duration": 237}, {"note": 73, "velocity": 94, "duration": 820}, {"note": 69, "velocity": 96, "duration": 114}, {"note": 71, "velocity": 96, "duration": 128}, {"note": 73, "velocity": 98, "duration": 265}, {"note": 76, "velocity": 96, "duration": 130}, {"note": 74, "velocity": 96, "duration": 324}, {"note": 69, "velocity": 97, "duration": 254}, {"note": 73, "velocity": 98, "duration": 477}, {"note": 71, "velocity": 98, "duration": 501}, {"note": 69, "velocity": 94, "duration": 1226}, {"note": 0, "velocity": 0, "duration": 6934}, {"note": 66, "velocity": 92, "duration": 258}, {"note": 68, "velocity": 89, "duration": 140}, {"note": 69, "velocity": 87, "duration": 328}, {"note": 68, "velocity": 97, "duration": 217}, {"note": 66, "velocity": 91, "duration": 276}, {"note": 64, "velocity": 97, "duration": 236}, {"note": 61, "velocity": 97, "duration": 244}, {"note": 64, "velocity": 96, "duration": 2159}, {"note": 66, "velocity": 95, "duration": 232}, {"note": 68, "velocity": 97, "duration": 244}, {"note": 69, "velocity": 92, "duration": 228}, {"note": 68, "velocity": 92, "duration": 255}, {"note": 66, "velocity": 87, "duration": 241}, {"note": 64, "velocity": 97, "duration": 256}, {"note": 61, "velocity": 97, "duration": 234}, {"note": 64, "velocity": 94, "duration": 242}, {"note": 71, "velocity": 94, "duration": 233}, {"note": 73, "velocity": 88, "duration": 975}, {"note": 73, "velocity": 96, "duration": 15}, {"note": 0, "velocity": 0, "duration": 225}, {"note": 73, "velocity": 97, "duration": 688}, {"note": 71, "velocity": 97, "duration": 229}, {"note": 74, "velocity": 97, "duration": 738}, {"note": 71, "velocity": 96, "duration": 238}, {"note": 71, "velocity": 96, "duration": 713}, {"note": 69, "velocity": 89, "duration": 266}, {"note": 73, "velocity": 96, "duration": 848}, {"note": 73, "velocity": 87, "duration": 8}, {"note": 0, "velocity": 0, "duration": 112}, {"note": 73, "velocity": 97, "duration": 29}, {"note": 0, "velocity": 0, "duration": 211}, {"note": 66, "velocity": 97, "duration": 241}, {"note": 69, "velocity": 82, "duration": 233}, {"note": 66, "velocity": 94, "duration": 713}, {"note": 69, "velocity": 90, "duration": 243}, {"note": 71, "velocity": 96, "duration": 249}, {"note": 66, "velocity": 96, "duration": 944}, {"note": 64, "velocity": 96, "duration": 1446}, {"note": 66, "velocity": 96, "duration": 226}, {"note": 68, "velocity": 97, "duration": 238}, {"note": 69, "velocity": 96, "duration": 206}, {"note": 68, "velocity": 97, "duration": 234}, {"note": 66, "velocity": 96, "duration": 239}, {"note": 64, "velocity": 105, "duration": 240}, {"note": 61, "velocity": 97, "duration": 239}, {"note": 64, "velocity": 98, "duration": 2170}, {"note": 66, "velocity": 92, "duration": 217}, {"note": 68, "velocity": 91, "duration": 250}, {"note": 69, "velocity": 96, "duration": 232}, {"note": 68, "velocity": 95, "duration": 237}, {"note": 66, "velocity": 96, "duration": 247}, {"note": 64, "velocity": 98, "duration": 258}, {"note": 61, "velocity": 98, "duration": 244}, {"note": 64, "velocity": 96, "duration": 236}, {"note": 71, "velocity": 97, "duration": 238}, {"note": 73, "velocity": 96, "duration": 963}, {"note": 73, "velocity": 98, "duration": 3}, {"note": 0, "velocity": 0, "duration": 237}, {"note": 73, "velocity": 98, "duration": 4}, {"note": 0, "velocity": 0, "duration": 716}, {"note": 71, "velocity": 97, "duration": 130}, {"note": 74, "velocity": 98, "duration": 935}, {"note": 71, "velocity": 91, "duration": 151}, {"note": 71, "velocity": 94, "duration": 31}, {"note": 0, "velocity": 0, "duration": 689}, {"note": 69, "velocity": 94, "duration": 227}, {"note": 73, "velocity": 97, "duration": 833}, {"note": 66, "velocity": 105, "duration": 141}, {"note": 73, "velocity": 103, "duration": 217}, {"note": 66, "velocity": 92, "duration": 125}, {"note": 69, "velocity": 96, "duration": 241}, {"note": 71, "velocity": 96, "duration": 365}, {"note": 71, "velocity": 96, "duration": 5}, {"note": 0, "velocity": 0, "duration": 715}, {"note": 69, "velocity": 98, "duration": 233}, {"note": 76, "velocity": 98, "duration": 246}, {"note": 73, "velocity": 93, "duration": 252}, {"note": 71, "velocity": 98, "duration": 229}, {"note": 69, "velocity": 96, "duration": 133}, {"note": 71, "velocity": 96, "duration": 610}, {"note": 73, "velocity": 97, "duration": 240}, {"note": 69, "velocity": 96, "duration": 240}, {"note": 66, "velocity": 97, "duration": 240}, {"note": 73, "velocity": 98, "duration": 120}, {"note": 71, "velocity": 95, "duration": 600}, {"note": 73, "velocity": 97, "duration": 240}, {"note": 78, "velocity": 100, "duration": 240}, {"note": 76, "velocity": 103, "duration": 120}, {"note": 73, "velocity": 97, "duration": 120}, {"note": 71, "velocity": 96, "duration": 120}, {"note": 69, "velocity": 91, "duration": 120}, {"note": 71, "velocity": 97, "duration": 480}, {"note": 66, "velocity": 98, "duration": 240}, {"note": 73, "velocity": 97, "duration": 960}, {"note": 69, "velocity": 98, "duration": 120}, {"note": 71, "velocity": 97, "duration": 120}, {"note": 73, "velocity": 99, "duration": 240}, {"note": 76, "velocity": 99, "duration": 120}, {"note": 74, "velocity": 100, "duration": 360}, {"note": 69, "velocity": 97, "duration": 120}, {"note": 71, "velocity": 96, "duration": 120}, {"note": 73, "velocity": 96, "duration": 240}, {"note": 76, "velocity": 99, "duration": 120}, {"note": 74, "velocity": 100, "duration": 364}, {"note": 69, "velocity": 88, "duration": 120}, {"note": 71, "velocity": 97, "duration": 119}, {"note": 71, "velocity": 96, "duration": 240}, {"note": 73, "velocity": 98, "duration": 480}, {"note": 76, "velocity": 98, "duration": 480}, {"note": 73, "velocity": 98, "duration": 240}, {"note": 71, "velocity": 97, "duration": 240}, {"note": 69, "velocity": 97, "duration": 240}, {"note": 66, "velocity": 100, "duration": 240}, {"note": 73, "velocity": 99, "duration": 120}, {"note": 71, "velocity": 94, "duration": 600}, {"note": 73, "velocity": 102, "duration": 240}, {"note": 78, "velocity": 98, "duration": 240}, {"note": 76, "velocity": 99, "duration": 120}, {"note": 78, "velocity": 102, "duration": 120}, {"note": 80, "velocity": 96, "duration": 120}, {"note": 81, "velocity": 91, "duration": 120}, {"note": 80, "velocity": 107, "duration": 240}, {"note": 76, "velocity": 101, "duration": 127}, {"note": 76, "velocity": 101, "duration": 7}, {"note": 0, "velocity": 0, "duration": 233}, {"note": 71, "velocity": 100, "duration": 240}, {"note": 73, "velocity": 94, "duration": 840}, {"note": 69, "velocity": 96, "duration": 120}, {"note": 71, "velocity": 96, "duration": 120}, {"note": 73, "velocity": 98, "duration": 240}, {"note": 76, "velocity": 96, "duration": 120}, {"note": 74, "velocity": 96, "duration": 360}, {"note": 69, "velocity": 97, "duration": 240}, {"note": 73, "velocity": 98, "duration": 480}, {"note": 71, "velocity": 98, "duration": 493}, {"note": 69, "velocity": 94, "duration": 1440}, {"note": 73, "velocity": 97, "duration": 240}, {"note": 69, "velocity": 96, "duration": 240}, {"note": 66, "velocity": 97, "duration": 240}, {"note": 73, "velocity": 98, "duration": 120}, {"note": 71, "velocity": 95, "duration": 600}, {"note": 73, "velocity": 97, "duration": 240}, {"note": 78, "velocity": 100, "duration": 240}, {"note": 76, "velocity": 103, "duration": 120}, {"note": 73, "velocity": 97, "duration": 120}, {"note": 71, "velocity": 96, "duration": 120}, {"note": 69, "velocity": 91, "duration": 120}, {"note": 71, "velocity": 97, "duration": 480}, {"note": 66, "velocity": 98, "duration": 240}, {"note": 73, "velocity": 97, "duration": 960}, {"note": 69, "velocity": 98, "duration": 120}, {"note": 71, "velocity": 97, "duration": 120}, {"note": 73, "velocity": 99, "duration": 240}, {"note": 76, "velocity": 99, "duration": 120}, {"note": 74, "velocity": 100, "duration": 360}, {"note": 69, "velocity": 97, "duration": 120}, {"note": 71, "velocity": 96, "duration": 120}, {"note": 73, "velocity": 96, "duration": 240}, {"note": 76, "velocity": 99, "duration": 120}, {"note": 74, "velocity": 100, "duration": 364}, {"note": 69, "velocity": 88, "duration": 120}, {"note": 71, "velocity": 97, "duration": 119}, {"note": 71, "velocity": 96, "duration": 240}, {"note": 73, "velocity": 98, "duration": 480}, {"note": 76, "velocity": 98, "duration": 480}, {"note": 73, "velocity": 98, "duration": 240}, {"note": 71, "velocity": 97, "duration": 240}, {"note": 69, "velocity": 97, "duration": 240}, {"note": 66, "velocity": 100, "duration": 240}, {"note": 73, "velocity": 99, "duration": 120}, {"note": 71, "velocity": 94, "duration": 600}, {"note": 73, "velocity": 102, "duration": 240}, {"note": 78, "velocity": 98, "duration": 240}, {"note": 76, "velocity": 99, "duration": 120}, {"note": 78, "velocity": 102, "duration": 120}, {"note": 80, "velocity": 96, "duration": 120}, {"note": 81, "velocity": 91, "duration": 120}, {"note": 80, "velocity": 107, "duration": 240}, {"note": 76, "velocity": 101, "duration": 127}, {"note": 76, "velocity": 101, "duration": 7}, {"note": 0, "velocity": 0, "duration": 233}, {"note": 71, "velocity": 100, "duration": 240}, {"note": 73, "velocity": 94, "duration": 840}, {"note": 69, "velocity": 96, "duration": 120}, {"note": 71, "velocity": 96, "duration": 120}, {"note": 73, "velocity": 98, "duration": 240}, {"note": 76, "velocity": 96, "duration": 120}, {"note": 74, "velocity": 96, "duration": 360}, {"note": 69, "velocity": 97, "duration": 240}, {"note": 73, "velocity": 98, "duration": 480}, {"note": 71, "velocity": 98, "duration": 493}, {"note": 69, "velocity": 94, "duration": 1691}, {"note": 69, "velocity": 97, "duration": 11}, {"note": 0, "velocity": 0, "duration": 109}, {"note": 71, "velocity": 97, "duration": 160}, {"note": 0, "velocity": 0, "duration": 80}, {"note": 73, "velocity": 102, "duration": 276}, {"note": 76, "velocity": 97, "duration": 159}, {"note": 74, "velocity": 97, "duration": 380}, {"note": 69, "velocity": 94, "duration": 261}, {"note": 0, "velocity": 0, "duration": 99}, {"note": 73, "velocity": 96, "duration": 717}, {"note": 71, "velocity": 96, "duration": 368}, {"note": 71, "velocity": 95, "duration": 8}, {"note": 0, "velocity": 0, "duration": 232}, {"note": 69, "velocity": 84, "duration": 1439}]]