[[{"note": 68, "velocity": 89, "duration": 649}, {"note": 0, "velocity": 0, "duration": 71}, {"note": 67, "velocity": 92, "duration": 189}, {"note": 65, "velocity": 93, "duration": 312}, {"note": 67, "velocity": 90, "duration": 101}, {"note": 65, "velocity": 92, "duration": 159}, {"note": 0, "velocity": 0, "duration": 81}, {"note": 60, "velocity": 94, "duration": 172}, {"note": 0, "velocity": 0, "duration": 68}, {"note": 63, "velocity": 94, "duration": 1730}, {"note": 0, "velocity": 0, "duration": 190}, {"note": 72, "velocity": 92, "duration": 656}, {"note": 0, "velocity": 0, "duration": 64}, {"note": 70, "velocity": 90, "duration": 172}, {"note": 0, "velocity": 0, "duration": 68}, {"note": 68, "velocity": 88, "duration": 276}, {"note": 0, "velocity": 0, "duration": 84}, {"note": 67, "velocity": 89, "duration": 69}, {"note": 65, "velocity": 91, "duration": 172}, {"note": 0, "velocity": 0, "duration": 68}, {"note": 68, "velocity": 89, "duration": 165}, {"note": 0, "velocity": 0, "duration": 75}, {"note": 70, "velocity": 88, "duration": 1490}, {"note": 0, "velocity": 0, "duration": 430}, {"note": 72, "velocity": 93, "duration": 187}, {"note": 75, "velocity": 95, "duration": 403}, {"note": 0, "velocity": 0, "duration": 77}, {"note": 72, "velocity": 94, "duration": 176}, {"note": 0, "velocity": 0, "duration": 64}, {"note": 77, "velocity": 92, "duration": 386}, {"note": 0, "velocity": 0, "duration": 94}, {"note": 77, "velocity": 93, "duration": 174}, {"note": 0, "velocity": 0, "duration": 66}, {"note": 77, "velocity": 89, "duration": 191}, {"note": 72, "velocity": 90, "duration": 287}, {"note": 0, "velocity": 0, "duration": 73}, {"note": 75, "velocity": 82, "duration": 66}, {"note": 72, "velocity": 92, "duration": 181}, {"note": 70, "velocity": 92, "duration": 165}, {"note": 0, "velocity": 0, "duration": 75}, {"note": 68, "velocity": 84, "duration": 778}, {"note": 0, "velocity": 0, "duration": 182}, {"note": 65, "velocity": 92, "duration": 156}, {"note": 0, "velocity": 0, "duration": 84}, {"note": 65, "velocity": 95, "duration": 144}, {"note": 0, "velocity": 0, "duration": 96}, {"note": 65, "velocity": 95, "duration": 154}, {"note": 0, "velocity": 0, "duration": 86}, {"note": 75, "velocity": 95, "duration": 169}, {"note": 0, "velocity": 0, "duration": 71}, {"note": 72, "velocity": 89, "duration": 161}, {"note": 0, "velocity": 0, "duration": 79}, {"note": 70, "velocity": 92, "duration": 77}, {"note": 72, "velocity": 91, "duration": 91}, {"note": 70, "velocity": 92, "duration": 181}, {"note": 65, "velocity": 95, "duration": 169}, {"note": 0, "velocity": 0, "duration": 71}, {"note": 68, "velocity": 87, "duration": 1744}, {"note": 0, "velocity": 0, "duration": 176}, {"note": 68, "velocity": 89, "duration": 649}, {"note": 0, "velocity": 0, "duration": 71}, {"note": 67, "velocity": 92, "duration": 189}, {"note": 65, "velocity": 93, "duration": 312}, {"note": 67, "velocity": 90, "duration": 101}, {"note": 65, "velocity": 92, "duration": 159}, {"note": 0, "velocity": 0, "duration": 81}, {"note": 60, "velocity": 94, "duration": 172}, {"note": 0, "velocity": 0, "duration": 68}, {"note": 63, "velocity": 94, "duration": 1730}, {"note": 0, "velocity": 0, "duration": 190}, {"note": 72, "velocity": 89, "duration": 307}, {"note": 75, "velocity": 95, "duration": 80}, {"note": 72, "velocity": 90, "duration": 183}, {"note": 75, "velocity": 99, "duration": 128}, {"note": 0, "velocity": 0, "duration": 112}, {"note": 77, "velocity": 93, "duration": 278}, {"note": 75, "velocity": 90, "duration": 163}, {"note": 0, "velocity": 0, "duration": 77}, {"note": 72, "velocity": 94, "duration": 174}, {"note": 0, "velocity": 0, "duration": 66}, {"note": 70, "velocity": 87, "duration": 183}, {"note": 70, "velocity": 90, "duration": 1640}, {"note": 0, "velocity": 0, "duration": 280}, {"note": 68, "velocity": 89, "duration": 180}, {"note": 68, "velocity": 88, "duration": 161}, {"note": 0, "velocity": 0, "duration": 79}, {"note": 68, "velocity": 89, "duration": 154}, {"note": 0, "velocity": 0, "duration": 86}, {"note": 70, "velocity": 89, "duration": 183}, {"note": 72, "velocity": 89, "duration": 307}, {"note": 72, "velocity": 88, "duration": 97}, {"note": 72, "velocity": 92, "duration": 165}, {"note": 0, "velocity": 0, "duration": 75}, {"note": 72, "velocity": 92, "duration": 179}, {"note": 0, "velocity": 0, "duration": 61}, {"note": 75, "velocity": 90, "duration": 166}, {"note": 0, "velocity": 0, "duration": 74}, {"note": 75, "velocity": 94, "duration": 150}, {"note": 0, "velocity": 0, "duration": 90}, {"note": 67, "velocity": 95, "duration": 156}, {"note": 0, "velocity": 0, "duration": 84}, {"note": 67, "velocity": 90, "duration": 181}, {"note": 65, "velocity": 90, "duration": 223}, {"note": 67, "velocity": 81, "duration": 112}, {"note": 65, "velocity": 89, "duration": 105}, {"note": 63, "velocity": 94, "duration": 358}, {"note": 0, "velocity": 0, "duration": 122}, {"note": 70, "velocity": 79, "duration": 166}, {"note": 0, "velocity": 0, "duration": 74}, {"note": 70, "velocity": 89, "duration": 167}, {"note": 0, "velocity": 0, "duration": 73}, {"note": 70, "velocity": 89, "duration": 183}, {"note": 72, "velocity": 88, "duration": 159}, {"note": 0, "velocity": 0, "duration": 81}, {"note": 67, "velocity": 89, "duration": 229}, {"note": 65, "velocity": 90, "duration": 192}, {"note": 63, "velocity": 89, "duration": 452}, {"note": 65, "velocity": 91, "duration": 1726}, {"note": 0, "velocity": 0, "duration": 194}, {"note": 68, "velocity": 89, "duration": 649}, {"note": 0, "velocity": 0, "duration": 71}, {"note": 67, "velocity": 92, "duration": 189}, {"note": 65, "velocity": 93, "duration": 312}, {"note": 67, "velocity": 90, "duration": 101}, {"note": 65, "velocity": 92, "duration": 159}, {"note": 0, "velocity": 0, "duration": 81}, {"note": 60, "velocity": 94, "duration": 172}, {"note": 0, "velocity": 0, "duration": 68}, {"note": 63, "velocity": 94, "duration": 1730}, {"note": 0, "velocity": 0, "duration": 190}, {"note": 72, "velocity": 89, "duration": 307}, {"note": 75, "velocity": 95, "duration": 80}, {"note": 72, "velocity": 90, "duration": 183}, {"note": 75, "velocity": 99, "duration": 128}, {"note": 0, "velocity": 0, "duration": 112}, {"note": 77, "velocity": 93, "duration": 278}, {"note": 75, "velocity": 90, "duration": 163}, {"note": 0, "velocity": 0, "duration": 77}, {"note": 72, "velocity": 94, "duration": 174}, {"note": 0, "velocity": 0, "duration": 66}, {"note": 70, "velocity": 87, "duration": 183}, {"note": 70, "velocity": 90, "duration": 1640}, {"note": 0, "velocity": 0, "duration": 280}, {"note": 68, "velocity": 89, "duration": 180}, {"note": 68, "velocity": 88, "duration": 161}, {"note": 0, "velocity": 0, "duration": 79}, {"note": 68, "velocity": 89, "duration": 154}, {"note": 0, "velocity": 0, "duration": 86}, {"note": 70, "velocity": 89, "duration": 183}, {"note": 72, "velocity": 89, "duration": 307}, {"note": 0, "velocity": 0, "duration": 173}, {"note": 72, "velocity": 92, "duration": 165}, {"note": 0, "velocity": 0, "duration": 75}, {"note": 72, "velocity": 92, "duration": 179}, {"note": 0, "velocity": 0, "duration": 61}, {"note": 75, "velocity": 90, "duration": 166}, {"note": 0, "velocity": 0, "duration": 74}, {"note": 75, "velocity": 94, "duration": 150}, {"note": 0, "velocity": 0, "duration": 90}, {"note": 67, "velocity": 95, "duration": 240}, {"note": 67, "velocity": 90, "duration": 181}, {"note": 65, "velocity": 90, "duration": 223}, {"note": 67, "velocity": 81, "duration": 112}, {"note": 65, "velocity": 89, "duration": 105}, {"note": 63, "velocity": 94, "duration": 358}, {"note": 0, "velocity": 0, "duration": 122}, {"note": 70, "velocity": 79, "duration": 166}, {"note": 0, "velocity": 0, "duration": 74}, {"note": 70, "velocity": 89, "duration": 167}, {"note": 0, "velocity": 0, "duration": 73}, {"note": 70, "velocity": 89, "duration": 183}, {"note": 72, "velocity": 88, "duration": 159}, {"note": 0, "velocity": 0, "duration": 81}, {"note": 67, "velocity": 89, "duration": 229}, {"note": 65, "velocity": 90, "duration": 192}, {"note": 63, "velocity": 89, "duration": 452}, {"note": 65, "velocity": 91, "duration": 1726}, {"note": 0, "velocity": 0, "duration": 194}, {"note": 68, "velocity": 89, "duration": 240}, {"note": 68, "velocity": 89, "duration": 409}, {"note": 0, "velocity": 0, "duration": 71}, {"note": 67, "velocity": 92, "duration": 189}, {"note": 65, "velocity": 93, "duration": 312}, {"note": 67, "velocity": 90, "duration": 101}, {"note": 65, "velocity": 92, "duration": 159}, {"note": 0, "velocity": 0, "duration": 81}, {"note": 60, "velocity": 94, "duration": 172}, {"note": 0, "velocity": 0, "duration": 68}, {"note": 63, "velocity": 94, "duration": 1440}, {"note": 72, "velocity": 89, "duration": 229}, {"note": 75, "velocity": 91, "duration": 193}, {"note": 72, "velocity": 89, "duration": 307}, {"note": 75, "velocity": 95, "duration": 80}, {"note": 72, "velocity": 90, "duration": 183}, {"note": 75, "velocity": 99, "duration": 128}, {"note": 0, "velocity": 0, "duration": 112}, {"note": 77, "velocity": 93, "duration": 278}, {"note": 75, "velocity": 90, "duration": 163}, {"note": 0, "velocity": 0, "duration": 77}, {"note": 72, "velocity": 94, "duration": 174}, {"note": 0, "velocity": 0, "duration": 66}, {"note": 70, "velocity": 87, "duration": 183}, {"note": 70, "velocity": 90, "duration": 1640}, {"note": 0, "velocity": 0, "duration": 280}, {"note": 68, "velocity": 89, "duration": 180}, {"note": 68, "velocity": 88, "duration": 360}, {"note": 0, "velocity": 0, "duration": 120}, {"note": 70, "velocity": 89, "duration": 183}, {"note": 72, "velocity": 89, "duration": 307}, {"note": 0, "velocity": 0, "duration": 173}, {"note": 72, "velocity": 92, "duration": 165}, {"note": 0, "velocity": 0, "duration": 75}, {"note": 72, "velocity": 92, "duration": 179}, {"note": 0, "velocity": 0, "duration": 61}, {"note": 75, "velocity": 90, "duration": 166}, {"note": 0, "velocity": 0, "duration": 74}, {"note": 75, "velocity": 94, "duration": 150}, {"note": 0, "velocity": 0, "duration": 90}, {"note": 67, "velocity": 95, "duration": 156}, {"note": 0, "velocity": 0, "duration": 84}, {"note": 67, "velocity": 90, "duration": 181}, {"note": 65, "velocity": 90, "duration": 223}, {"note": 67, "velocity": 81, "duration": 112}, {"note": 65, "velocity": 89, "duration": 105}, {"note": 63, "velocity": 94, "duration": 358}, {"note": 0, "velocity": 0, "duration": 122}, {"note": 70, "velocity": 79, "duration": 166}, {"note": 0, "velocity": 0, "duration": 74}, {"note": 70, "velocity": 89, "duration": 167}, {"note": 0, "velocity": 0, "duration": 73}, {"note": 70, "velocity": 89, "duration": 183}, {"note": 72, "velocity": 88, "duration": 159}, {"note": 0, "velocity": 0, "duration": 81}, {"note": 67, "velocity": 89, "duration": 229}, {"note": 65, "velocity": 90, "duration": 192}, {"note": 63, "velocity": 89, "duration": 452}, {"note": 65, "velocity": 91, "duration": 1726}, {"note": 0, "velocity": 0, "duration": 194}, {"note": 68, "velocity": 89, "duration": 240}, {"note": 68, "velocity": 89, "duration": 409}, {"note": 0, "velocity": 0, "duration": 71}, {"note": 67, "velocity": 92, "duration": 189}, {"note": 65, "velocity": 93, "duration": 312}, {"note": 67, "velocity": 90, "duration": 101}, {"note": 65, "velocity": 92, "duration": 159}, {"note": 0, "velocity": 0, "duration": 81}, {"note": 63, "velocity": 89, "duration": 194}, {"note": 65, "velocity": 89, "duration": 300}, {"note": 67, "velocity": 86, "duration": 104}, {"note": 65, "velocity": 86, "duration": 161}, {"note": 0, "velocity": 0, "duration": 79}, {"note": 63, "velocity": 88, "duration": 184}, {"note": 60, "velocity": 90, "duration": 759}, {"note": 0, "velocity": 0, "duration": 201}, {"note": 72, "velocity": 89, "duration": 169}, {"note": 0, "velocity": 0, "duration": 71}, {"note": 72, "velocity": 90, "duration": 158}, {"note": 0, "velocity": 0, "duration": 82}, {"note": 72, "velocity": 90, "duration": 178}, {"note": 0, "velocity": 0, "duration": 62}, {"note": 70, "velocity": 89, "duration": 192}, {"note": 68, "velocity": 88, "duration": 161}, {"note": 0, "velocity": 0, "duration": 79}, {"note": 67, "velocity": 90, "duration": 198}, {"note": 65, "velocity": 92, "duration": 192}, {"note": 68, "velocity": 88, "duration": 170}, {"note": 0, "velocity": 0, "duration": 70}, {"note": 70, "velocity": 88, "duration": 1468}, {"note": 0, "velocity": 0, "duration": 452}, {"note": 72, "velocity": 91, "duration": 219}, {"note": 75, "velocity": 104, "duration": 391}, {"note": 0, "velocity": 0, "duration": 89}, {"note": 72, "velocity": 91, "duration": 176}, {"note": 0, "velocity": 0, "duration": 64}, {"note": 77, "velocity": 89, "duration": 392}, {"note": 0, "velocity": 0, "duration": 88}, {"note": 77, "velocity": 92, "duration": 375}, {"note": 0, "velocity": 0, "duration": 105}, {"note": 72, "velocity": 94, "duration": 183}, {"note": 75, "velocity": 95, "duration": 156}, {"note": 0, "velocity": 0, "duration": 84}, {"note": 72, "velocity": 89, "duration": 201}, {"note": 70, "velocity": 88, "duration": 167}, {"note": 0, "velocity": 0, "duration": 73}, {"note": 68, "velocity": 89, "duration": 796}, {"note": 67, "velocity": 89, "duration": 202}, {"note": 65, "velocity": 93, "duration": 172}, {"note": 0, "velocity": 0, "duration": 68}, {"note": 65, "velocity": 94, "duration": 155}, {"note": 0, "velocity": 0, "duration": 85}, {"note": 65, "velocity": 95, "duration": 168}, {"note": 0, "velocity": 0, "duration": 72}, {"note": 75, "velocity": 95, "duration": 159}, {"note": 0, "velocity": 0, "duration": 81}, {"note": 72, "velocity": 89, "duration": 165}, {"note": 0, "velocity": 0, "duration": 75}, {"note": 70, "velocity": 90, "duration": 173}, {"note": 0, "velocity": 0, "duration": 67}, {"note": 70, "velocity": 90, "duration": 169}, {"note": 0, "velocity": 0, "duration": 71}, {"note": 65, "velocity": 94, "duration": 165}, {"note": 0, "velocity": 0, "duration": 75}, {"note": 68, "velocity": 89, "duration": 1717}, {"note": 0, "velocity": 0, "duration": 15563}, {"note": 68, "velocity": 89, "duration": 649}, {"note": 0, "velocity": 0, "duration": 71}, {"note": 67, "velocity": 92, "duration": 189}, {"note": 65, "velocity": 93, "duration": 312}, {"note": 67, "velocity": 90, "duration": 101}, {"note": 65, "velocity": 92, "duration": 159}, {"note": 0, "velocity": 0, "duration": 81}, {"note": 60, "velocity": 94, "duration": 172}, {"note": 0, "velocity": 0, "duration": 68}, {"note": 63, "velocity": 94, "duration": 1730}, {"note": 0, "velocity": 0, "duration": 190}, {"note": 72, "velocity": 92, "duration": 656}, {"note": 0, "velocity": 0, "duration": 64}, {"note": 70, "velocity": 90, "duration": 172}, {"note": 0, "velocity": 0, "duration": 68}, {"note": 68, "velocity": 88, "duration": 276}, {"note": 0, "velocity": 0, "duration": 84}, {"note": 67, "velocity": 89, "duration": 69}, {"note": 65, "velocity": 91, "duration": 172}, {"note": 0, "velocity": 0, "duration": 68}, {"note": 68, "velocity": 89, "duration": 165}, {"note": 0, "velocity": 0, "duration": 75}, {"note": 70, "velocity": 88, "duration": 1490}, {"note": 0, "velocity": 0, "duration": 430}, {"note": 72, "velocity": 93, "duration": 187}, {"note": 75, "velocity": 95, "duration": 403}, {"note": 0, "velocity": 0, "duration": 77}, {"note": 72, "velocity": 94, "duration": 176}, {"note": 0, "velocity": 0, "duration": 64}, {"note": 77, "velocity": 92, "duration": 386}, {"note": 0, "velocity": 0, "duration": 94}, {"note": 77, "velocity": 93, "duration": 174}, {"note": 0, "velocity": 0, "duration": 66}, {"note": 77, "velocity": 89, "duration": 191}, {"note": 72, "velocity": 90, "duration": 287}, {"note": 0, "velocity": 0, "duration": 73}, {"note": 75, "velocity": 82, "duration": 66}, {"note": 72, "velocity": 92, "duration": 181}, {"note": 70, "velocity": 92, "duration": 165}, {"note": 0, "velocity": 0, "duration": 75}, {"note": 68, "velocity": 84, "duration": 778}, {"note": 0, "velocity": 0, "duration": 182}, {"note": 65, "velocity": 92, "duration": 156}, {"note": 0, "velocity": 0, "duration": 84}, {"note": 65, "velocity": 95, "duration": 144}, {"note": 0, "velocity": 0, "duration": 96}, {"note": 65, "velocity": 95, "duration": 154}, {"note": 0, "velocity": 0, "duration": 86}, {"note": 75, "velocity": 95, "duration": 169}, {"note": 0, "velocity": 0, "duration": 71}, {"note": 72, "velocity": 89, "duration": 161}, {"note": 0, "velocity": 0, "duration": 79}, {"note": 70, "velocity": 92, "duration": 77}, {"note": 72, "velocity": 91, "duration": 91}, {"note": 70, "velocity": 92, "duration": 181}, {"note": 65, "velocity": 95, "duration": 169}, {"note": 0, "velocity": 0, "duration": 71}, {"note": 68, "velocity": 87, "duration": 1744}, {"note": 0, "velocity": 0, "duration": 176}, {"note": 68, "velocity": 89, "duration": 240}, {"note": 68, "velocity": 89, "duration": 409}, {"note": 0, "velocity": 0, "duration": 71}, {"note": 67, "velocity": 92, "duration": 189}, {"note": 65, "velocity": 93, "duration": 312}, {"note": 67, "velocity": 90, "duration": 101}, {"note": 65, "velocity": 92, "duration": 159}, {"note": 0, "velocity": 0, "duration": 81}, {"note": 60, "velocity": 94, "duration": 172}, {"note": 0, "velocity": 0, "duration": 68}, {"note": 63, "velocity": 94, "duration": 1730}, {"note": 0, "velocity": 0, "duration": 190}, {"note": 72, "velocity": 89, "duration": 307}, {"note": 75, "velocity": 95, "duration": 80}, {"note": 72, "velocity": 90, "duration": 183}, {"note": 75, "velocity": 99, "duration": 128}, {"note": 0, "velocity": 0, "duration": 112}, {"note": 77, "velocity": 93, "duration": 278}, {"note": 75, "velocity": 90, "duration": 163}, {"note": 0, "velocity": 0, "duration": 77}, {"note": 72, "velocity": 94, "duration": 174}, {"note": 0, "velocity": 0, "duration": 66}, {"note": 70, "velocity": 87, "duration": 183}, {"note": 70, "velocity": 90, "duration": 1640}, {"note": 0, "velocity": 0, "duration": 280}, {"note": 68, "velocity": 89, "duration": 180}, {"note": 68, "velocity": 88, "duration": 161}, {"note": 0, "velocity": 0, "duration": 79}, {"note": 68, "velocity": 89, "duration": 154}, {"note": 0, "velocity": 0, "duration": 86}, {"note": 70, "velocity": 89, "duration": 183}, {"note": 72, "velocity": 89, "duration": 307}, {"note": 72, "velocity": 88, "duration": 97}, {"note": 72, "velocity": 92, "duration": 165}, {"note": 0, "velocity": 0, "duration": 75}, {"note": 72, "velocity": 92, "duration": 179}, {"note": 0, "velocity": 0, "duration": 61}, {"note": 75, "velocity": 90, "duration": 166}, {"note": 0, "velocity": 0, "duration": 74}, {"note": 75, "velocity": 94, "duration": 150}, {"note": 0, "velocity": 0, "duration": 90}, {"note": 67, "velocity": 95, "duration": 360}, {"note": 0, "velocity": 0, "duration": 120}, {"note": 65, "velocity": 90, "duration": 223}, {"note": 67, "velocity": 81, "duration": 112}, {"note": 65, "velocity": 89, "duration": 105}, {"note": 63, "velocity": 94, "duration": 358}, {"note": 0, "velocity": 0, "duration": 122}, {"note": 70, "velocity": 79, "duration": 166}, {"note": 0, "velocity": 0, "duration": 74}, {"note": 70, "velocity": 89, "duration": 167}, {"note": 0, "velocity": 0, "duration": 73}, {"note": 70, "velocity": 89, "duration": 183}, {"note": 72, "velocity": 88, "duration": 159}, {"note": 0, "velocity": 0, "duration": 81}, {"note": 67, "velocity": 89, "duration": 229}, {"note": 65, "velocity": 90, "duration": 192}, {"note": 63, "velocity": 89, "duration": 452}, {"note": 65, "velocity": 91, "duration": 1726}, {"note": 0, "velocity": 0, "duration": 194}, {"note": 68, "velocity": 89, "duration": 240}, {"note": 68, "velocity": 89, "duration": 409}, {"note": 0, "velocity": 0, "duration": 71}, {"note": 67, "velocity": 92, "duration": 189}, {"note": 65, "velocity": 93, "duration": 312}, {"note": 67, "velocity": 90, "duration": 101}, {"note": 65, "velocity": 92, "duration": 159}, {"note": 0, "velocity": 0, "duration": 81}, {"note": 60, "velocity": 94, "duration": 172}, {"note": 0, "velocity": 0, "duration": 68}, {"note": 63, "velocity": 94, "duration": 1730}, {"note": 0, "velocity": 0, "duration": 190}, {"note": 72, "velocity": 89, "duration": 307}, {"note": 75, "velocity": 95, "duration": 80}, {"note": 72, "velocity": 90, "duration": 183}, {"note": 75, "velocity": 99, "duration": 128}, {"note": 0, "velocity": 0, "duration": 112}, {"note": 77, "velocity": 93, "duration": 278}, {"note": 75, "velocity": 90, "duration": 163}, {"note": 0, "velocity": 0, "duration": 77}, {"note": 72, "velocity": 94, "duration": 174}, {"note": 0, "velocity": 0, "duration": 66}, {"note": 70, "velocity": 87, "duration": 183}, {"note": 70, "velocity": 90, "duration": 1640}, {"note": 0, "velocity": 0, "duration": 280}, {"note": 68, "velocity": 89, "duration": 180}, {"note": 68, "velocity": 88, "duration": 161}, {"note": 0, "velocity": 0, "duration": 79}, {"note": 68, "velocity": 89, "duration": 154}, {"note": 0, "velocity": 0, "duration": 86}, {"note": 70, "velocity": 89, "duration": 183}, {"note": 72, "velocity": 89, "duration": 307}, {"note": 0, "velocity": 0, "duration": 173}, {"note": 72, "velocity": 92, "duration": 165}, {"note": 0, "velocity": 0, "duration": 75}, {"note": 72, "velocity": 92, "duration": 179}, {"note": 0, "velocity": 0, "duration": 61}, {"note": 75, "velocity": 90, "duration": 166}, {"note": 0, "velocity": 0, "duration": 74}, {"note": 75, "velocity": 94, "duration": 150}, {"note": 0, "velocity": 0, "duration": 90}, {"note": 67, "velocity": 95, "duration": 480}, {"note": 65, "velocity": 90, "duration": 223}, {"note": 67, "velocity": 81, "duration": 112}, {"note": 65, "velocity": 89, "duration": 105}, {"note": 63, "velocity": 94, "duration": 358}, {"note": 0, "velocity": 0, "duration": 122}, {"note": 70, "velocity": 79, "duration": 166}, {"note": 0, "velocity": 0, "duration": 74}, {"note": 70, "velocity": 89, "duration": 167}, {"note": 0, "velocity": 0, "duration": 73}, {"note": 70, "velocity": 89, "duration": 183}, {"note": 72, "velocity": 88, "duration": 159}, {"note": 0, "velocity": 0, "duration": 81}, {"note": 67, "velocity": 89, "duration": 229}, {"note": 65, "velocity": 90, "duration": 192}, {"note": 63, "velocity": 89, "duration": 452}, {"note": 65, "velocity": 91, "duration": 1726}, {"note": 0, "velocity": 0, "duration": 194}, {"note": 68, "velocity": 89, "duration": 240}, {"note": 68, "velocity": 89, "duration": 409}, {"note": 0, "velocity": 0, "duration": 71}, {"note": 67, "velocity": 92, "duration": 189}, {"note": 65, "velocity": 93, "duration": 312}, {"note": 67, "velocity": 90, "duration": 101}, {"note": 65, "velocity": 92, "duration": 159}, {"note": 0, "velocity": 0, "duration": 81}, {"note": 60, "velocity": 94, "duration": 172}, {"note": 0, "velocity": 0, "duration": 68}, {"note": 63, "velocity": 94, "duration": 1440}, {"note": 72, "velocity": 89, "duration": 229}, {"note": 75, "velocity": 91, "duration": 193}, {"note": 72, "velocity": 89, "duration": 307}, {"note": 75, "velocity": 95, "duration": 80}, {"note": 72, "velocity": 90, "duration": 183}, {"note": 75, "velocity": 99, "duration": 128}, {"note": 0, "velocity": 0, "duration": 112}, {"note": 77, "velocity": 93, "duration": 278}, {"note": 75, "velocity": 90, "duration": 163}, {"note": 0, "velocity": 0, "duration": 77}, {"note": 72, "velocity": 94, "duration": 174}, {"note": 0, "velocity": 0, "duration": 66}, {"note": 70, "velocity": 87, "duration": 183}, {"note": 70, "velocity": 90, "duration": 1640}, {"note": 0, "velocity": 0, "duration": 280}, {"note": 68, "velocity": 89, "duration": 180}, {"note": 68, "velocity": 88, "duration": 360}, {"note": 0, "velocity": 0, "duration": 120}, {"note": 70, "velocity": 89, "duration": 183}, {"note": 72, "velocity": 89, "duration": 307}, {"note": 0, "velocity": 0, "duration": 173}, {"note": 72, "velocity": 92, "duration": 165}, {"note": 0, "velocity": 0, "duration": 75}, {"note": 72, "velocity": 92, "duration": 179}, {"note": 0, "velocity": 0, "duration": 61}, {"note": 75, "velocity": 90, "duration": 166}, {"note": 0, "velocity": 0, "duration": 74}, {"note": 75, "velocity": 94, "duration": 150}, {"note": 0, "velocity": 0, "duration": 90}, {"note": 67, "velocity": 95, "duration": 156}, {"note": 0, "velocity": 0, "duration": 84}, {"note": 67, "velocity": 90, "duration": 181}, {"note": 65, "velocity": 90, "duration": 223}, {"note": 67, "velocity": 81, "duration": 112}, {"note": 65, "velocity": 89, "duration": 105}, {"note": 63, "velocity": 94, "duration": 358}, {"note": 0, "velocity": 0, "duration": 122}, {"note": 70, "velocity": 79, "duration": 166}, {"note": 0, "velocity": 0, "duration": 74}, {"note": 70, "velocity": 89, "duration": 167}, {"note": 0, "velocity": 0, "duration": 73}, {"note": 70, "velocity": 89, "duration": 183}, {"note": 72, "velocity": 88, "duration": 159}, {"note": 0, "velocity": 0, "duration": 81}, {"note": 67, "velocity": 89, "duration": 229}, {"note": 65, "velocity": 90, "duration": 192}, {"note": 63, "velocity": 89, "duration": 452}, {"note": 65, "velocity": 91, "duration": 1726}]]