[[{"note": 65, "velocity": 91, "duration": 209}, {"note": 67, "velocity": 85, "duration": 180}, {"note": 0, "velocity": 0, "duration": 61}, {"note": 69, "velocity": 90, "duration": 398}, {"note": 0, "velocity": 0, "duration": 76}, {"note": 69, "velocity": 90, "duration": 181}, {"note": 70, "velocity": 90, "duration": 176}, {"note": 72, "velocity": 91, "duration": 485}, {"note": 0, "velocity": 0, "duration": 378}, {"note": 60, "velocity": 91, "duration": 66}, {"note": 74, "velocity": 100, "duration": 166}, {"note": 0, "velocity": 0, "duration": 72}, {"note": 74, "velocity": 95, "duration": 153}, {"note": 0, "velocity": 0, "duration": 85}, {"note": 74, "velocity": 93, "duration": 114}, {"note": 72, "velocity": 89, "duration": 101}, {"note": 70, "velocity": 88, "duration": 103}, {"note": 72, "velocity": 85, "duration": 339}, {"note": 0, "velocity": 0, "duration": 497}, {"note": 62, "velocity": 91, "duration": 90}, {"note": 74, "velocity": 96, "duration": 130}, {"note": 0, "velocity": 0, "duration": 92}, {"note": 74, "velocity": 91, "duration": 64}, {"note": 0, "velocity": 0, "duration": 64}, {"note": 74, "velocity": 92, "duration": 202}, {"note": 0, "velocity": 0, "duration": 263}, {"note": 69, "velocity": 89, "duration": 77}, {"note": 72, "velocity": 91, "duration": 167}, {"note": 0, "velocity": 0, "duration": 78}, {"note": 69, "velocity": 84, "duration": 72}, {"note": 69, "velocity": 89, "duration": 248}, {"note": 0, "velocity": 0, "duration": 230}, {"note": 60, "velocity": 91, "duration": 60}, {"note": 0, "velocity": 0, "duration": 62}, {"note": 70, "velocity": 90, "duration": 152}, {"note": 69, "velocity": 91, "duration": 141}, {"note": 0, "velocity": 0, "duration": 95}, {"note": 65, "velocity": 91, "duration": 176}, {"note": 0, "velocity": 0, "duration": 70}, {"note": 62, "velocity": 89, "duration": 87}, {"note": 67, "velocity": 85, "duration": 448}, {"note": 0, "velocity": 0, "duration": 412}, {"note": 65, "velocity": 91, "duration": 72}, {"note": 67, "velocity": 84, "duration": 57}, {"note": 0, "velocity": 0, "duration": 70}, {"note": 69, "velocity": 91, "duration": 169}, {"note": 0, "velocity": 0, "duration": 68}, {"note": 69, "velocity": 89, "duration": 144}, {"note": 0, "velocity": 0, "duration": 97}, {"note": 69, "velocity": 92, "duration": 161}, {"note": 0, "velocity": 0, "duration": 74}, {"note": 70, "velocity": 91, "duration": 69}, {"note": 72, "velocity": 91, "duration": 506}, {"note": 0, "velocity": 0, "duration": 445}, {"note": 65, "velocity": 91, "duration": 72}, {"note": 74, "velocity": 92, "duration": 141}, {"note": 0, "velocity": 0, "duration": 95}, {"note": 74, "velocity": 93, "duration": 135}, {"note": 0, "velocity": 0, "duration": 95}, {"note": 74, "velocity": 93, "duration": 169}, {"note": 0, "velocity": 0, "duration": 65}, {"note": 72, "velocity": 90, "duration": 75}, {"note": 70, "velocity": 90, "duration": 78}, {"note": 72, "velocity": 88, "duration": 455}, {"note": 0, "velocity": 0, "duration": 403}, {"note": 65, "velocity": 90, "duration": 58}, {"note": 0, "velocity": 0, "duration": 67}, {"note": 74, "velocity": 94, "duration": 151}, {"note": 0, "velocity": 0, "duration": 71}, {"note": 72, "velocity": 87, "duration": 68}, {"note": 74, "velocity": 91, "duration": 334}, {"note": 0, "velocity": 0, "duration": 131}, {"note": 74, "velocity": 95, "duration": 63}, {"note": 0, "velocity": 0, "duration": 67}, {"note": 72, "velocity": 91, "duration": 144}, {"note": 0, "velocity": 0, "duration": 95}, {"note": 69, "velocity": 89, "duration": 73}, {"note": 77, "velocity": 89, "duration": 339}, {"note": 0, "velocity": 0, "duration": 150}, {"note": 72, "velocity": 84, "duration": 65}, {"note": 74, "velocity": 96, "duration": 168}, {"note": 77, "velocity": 89, "duration": 60}, {"note": 77, "velocity": 90, "duration": 64}, {"note": 77, "velocity": 91, "duration": 68}, {"note": 79, "velocity": 89, "duration": 286}, {"note": 0, "velocity": 0, "duration": 62}, {"note": 79, "velocity": 89, "duration": 1032}, {"note": 0, "velocity": 0, "duration": 1169}, {"note": 72, "velocity": 94, "duration": 176}, {"note": 0, "velocity": 0, "duration": 64}, {"note": 77, "velocity": 94, "duration": 184}, {"note": 79, "velocity": 90, "duration": 169}, {"note": 0, "velocity": 0, "duration": 71}, {"note": 81, "velocity": 90, "duration": 388}, {"note": 0, "velocity": 0, "duration": 92}, {"note": 79, "velocity": 90, "duration": 185}, {"note": 77, "velocity": 87, "duration": 85}, {"note": 79, "velocity": 90, "duration": 630}, {"note": 0, "velocity": 0, "duration": 210}, {"note": 77, "velocity": 91, "duration": 95}, {"note": 76, "velocity": 90, "duration": 62}, {"note": 77, "velocity": 90, "duration": 167}, {"note": 0, "velocity": 0, "duration": 73}, {"note": 76, "velocity": 91, "duration": 143}, {"note": 0, "velocity": 0, "duration": 97}, {"note": 74, "velocity": 94, "duration": 67}, {"note": 76, "velocity": 91, "duration": 180}, {"note": 69, "velocity": 91, "duration": 474}, {"note": 0, "velocity": 0, "duration": 486}, {"note": 72, "velocity": 90, "duration": 72}, {"note": 74, "velocity": 93, "duration": 181}, {"note": 72, "velocity": 92, "duration": 68}, {"note": 74, "velocity": 93, "duration": 322}, {"note": 0, "velocity": 0, "duration": 158}, {"note": 74, "velocity": 95, "duration": 82}, {"note": 72, "velocity": 91, "duration": 132}, {"note": 0, "velocity": 0, "duration": 108}, {"note": 69, "velocity": 90, "duration": 73}, {"note": 77, "velocity": 90, "duration": 354}, {"note": 0, "velocity": 0, "duration": 126}, {"note": 72, "velocity": 91, "duration": 62}, {"note": 74, "velocity": 96, "duration": 191}, {"note": 77, "velocity": 94, "duration": 161}, {"note": 0, "velocity": 0, "duration": 79}, {"note": 77, "velocity": 94, "duration": 74}, {"note": 79, "velocity": 91, "duration": 266}, {"note": 0, "velocity": 0, "duration": 94}, {"note": 79, "velocity": 91, "duration": 252}, {"note": 72, "velocity": 93, "duration": 150}, {"note": 0, "velocity": 0, "duration": 90}, {"note": 77, "velocity": 94, "duration": 170}, {"note": 0, "velocity": 0, "duration": 70}, {"note": 79, "velocity": 90, "duration": 165}, {"note": 0, "velocity": 0, "duration": 75}, {"note": 81, "velocity": 87, "duration": 360}, {"note": 0, "velocity": 0, "duration": 120}, {"note": 79, "velocity": 90, "duration": 193}, {"note": 77, "velocity": 89, "duration": 66}, {"note": 79, "velocity": 90, "duration": 570}, {"note": 0, "velocity": 0, "duration": 270}, {"note": 77, "velocity": 90, "duration": 75}, {"note": 76, "velocity": 96, "duration": 70}, {"note": 77, "velocity": 90, "duration": 181}, {"note": 76, "velocity": 93, "duration": 164}, {"note": 0, "velocity": 0, "duration": 76}, {"note": 74, "velocity": 90, "duration": 72}, {"note": 76, "velocity": 95, "duration": 197}, {"note": 69, "velocity": 90, "duration": 540}, {"note": 0, "velocity": 0, "duration": 300}, {"note": 72, "velocity": 91, "duration": 60}, {"note": 72, "velocity": 89, "duration": 74}, {"note": 74, "velocity": 100, "duration": 163}, {"note": 0, "velocity": 0, "duration": 77}, {"note": 72, "velocity": 93, "duration": 66}, {"note": 74, "velocity": 96, "duration": 335}, {"note": 0, "velocity": 0, "duration": 145}, {"note": 74, "velocity": 91, "duration": 82}, {"note": 72, "velocity": 91, "duration": 168}, {"note": 0, "velocity": 0, "duration": 72}, {"note": 69, "velocity": 91, "duration": 76}, {"note": 77, "velocity": 90, "duration": 335}, {"note": 0, "velocity": 0, "duration": 145}, {"note": 72, "velocity": 89, "duration": 70}, {"note": 82, "velocity": 87, "duration": 168}, {"note": 0, "velocity": 0, "duration": 72}, {"note": 81, "velocity": 90, "duration": 163}, {"note": 0, "velocity": 0, "duration": 77}, {"note": 77, "velocity": 89, "duration": 185}, {"note": 76, "velocity": 91, "duration": 67}, {"note": 77, "velocity": 91, "duration": 1876}, {"note": 0, "velocity": 0, "duration": 7341}, {"note": 65, "velocity": 91, "duration": 209}, {"note": 67, "velocity": 85, "duration": 180}, {"note": 0, "velocity": 0, "duration": 61}, {"note": 69, "velocity": 90, "duration": 398}, {"note": 0, "velocity": 0, "duration": 76}, {"note": 69, "velocity": 90, "duration": 181}, {"note": 70, "velocity": 90, "duration": 176}, {"note": 72, "velocity": 91, "duration": 485}, {"note": 0, "velocity": 0, "duration": 378}, {"note": 60, "velocity": 91, "duration": 66}, {"note": 74, "velocity": 100, "duration": 166}, {"note": 0, "velocity": 0, "duration": 72}, {"note": 74, "velocity": 95, "duration": 153}, {"note": 0, "velocity": 0, "duration": 85}, {"note": 74, "velocity": 93, "duration": 114}, {"note": 72, "velocity": 89, "duration": 101}, {"note": 70, "velocity": 88, "duration": 103}, {"note": 72, "velocity": 85, "duration": 339}, {"note": 0, "velocity": 0, "duration": 497}, {"note": 62, "velocity": 91, "duration": 90}, {"note": 74, "velocity": 96, "duration": 130}, {"note": 0, "velocity": 0, "duration": 92}, {"note": 74, "velocity": 91, "duration": 64}, {"note": 0, "velocity": 0, "duration": 64}, {"note": 74, "velocity": 92, "duration": 202}, {"note": 0, "velocity": 0, "duration": 263}, {"note": 69, "velocity": 89, "duration": 77}, {"note": 72, "velocity": 91, "duration": 167}, {"note": 0, "velocity": 0, "duration": 78}, {"note": 69, "velocity": 84, "duration": 72}, {"note": 69, "velocity": 89, "duration": 248}, {"note": 0, "velocity": 0, "duration": 230}, {"note": 60, "velocity": 91, "duration": 60}, {"note": 0, "velocity": 0, "duration": 62}, {"note": 70, "velocity": 90, "duration": 152}, {"note": 69, "velocity": 91, "duration": 141}, {"note": 0, "velocity": 0, "duration": 95}, {"note": 65, "velocity": 91, "duration": 176}, {"note": 0, "velocity": 0, "duration": 70}, {"note": 62, "velocity": 89, "duration": 87}, {"note": 67, "velocity": 85, "duration": 448}, {"note": 0, "velocity": 0, "duration": 412}, {"note": 65, "velocity": 91, "duration": 72}, {"note": 67, "velocity": 84, "duration": 57}, {"note": 0, "velocity": 0, "duration": 70}, {"note": 69, "velocity": 91, "duration": 169}, {"note": 0, "velocity": 0, "duration": 68}, {"note": 69, "velocity": 89, "duration": 144}, {"note": 0, "velocity": 0, "duration": 97}, {"note": 69, "velocity": 92, "duration": 161}, {"note": 0, "velocity": 0, "duration": 74}, {"note": 70, "velocity": 91, "duration": 69}, {"note": 72, "velocity": 91, "duration": 506}, {"note": 0, "velocity": 0, "duration": 445}, {"note": 65, "velocity": 91, "duration": 72}, {"note": 74, "velocity": 92, "duration": 141}, {"note": 0, "velocity": 0, "duration": 95}, {"note": 74, "velocity": 93, "duration": 135}, {"note": 0, "velocity": 0, "duration": 95}, {"note": 74, "velocity": 93, "duration": 169}, {"note": 0, "velocity": 0, "duration": 65}, {"note": 72, "velocity": 90, "duration": 75}, {"note": 70, "velocity": 90, "duration": 78}, {"note": 72, "velocity": 88, "duration": 455}, {"note": 0, "velocity": 0, "duration": 403}, {"note": 65, "velocity": 90, "duration": 58}, {"note": 0, "velocity": 0, "duration": 67}, {"note": 74, "velocity": 94, "duration": 151}, {"note": 0, "velocity": 0, "duration": 71}, {"note": 72, "velocity": 87, "duration": 68}, {"note": 74, "velocity": 91, "duration": 334}, {"note": 0, "velocity": 0, "duration": 131}, {"note": 74, "velocity": 95, "duration": 63}, {"note": 0, "velocity": 0, "duration": 67}, {"note": 72, "velocity": 91, "duration": 144}, {"note": 0, "velocity": 0, "duration": 95}, {"note": 69, "velocity": 89, "duration": 73}, {"note": 77, "velocity": 89, "duration": 339}, {"note": 0, "velocity": 0, "duration": 150}, {"note": 72, "velocity": 84, "duration": 65}, {"note": 74, "velocity": 96, "duration": 168}, {"note": 77, "velocity": 89, "duration": 60}, {"note": 77, "velocity": 90, "duration": 64}, {"note": 77, "velocity": 91, "duration": 68}, {"note": 79, "velocity": 89, "duration": 286}, {"note": 0, "velocity": 0, "duration": 62}, {"note": 79, "velocity": 89, "duration": 1032}, {"note": 0, "velocity": 0, "duration": 1169}, {"note": 72, "velocity": 94, "duration": 176}, {"note": 0, "velocity": 0, "duration": 64}, {"note": 77, "velocity": 94, "duration": 184}, {"note": 79, "velocity": 90, "duration": 169}, {"note": 0, "velocity": 0, "duration": 71}, {"note": 81, "velocity": 90, "duration": 388}, {"note": 0, "velocity": 0, "duration": 92}, {"note": 79, "velocity": 90, "duration": 185}, {"note": 77, "velocity": 87, "duration": 85}, {"note": 79, "velocity": 90, "duration": 630}, {"note": 0, "velocity": 0, "duration": 210}, {"note": 77, "velocity": 91, "duration": 95}, {"note": 76, "velocity": 90, "duration": 62}, {"note": 77, "velocity": 90, "duration": 167}, {"note": 0, "velocity": 0, "duration": 73}, {"note": 76, "velocity": 91, "duration": 143}, {"note": 0, "velocity": 0, "duration": 97}, {"note": 74, "velocity": 94, "duration": 67}, {"note": 76, "velocity": 91, "duration": 180}, {"note": 69, "velocity": 91, "duration": 474}, {"note": 0, "velocity": 0, "duration": 486}, {"note": 72, "velocity": 90, "duration": 72}, {"note": 74, "velocity": 93, "duration": 181}, {"note": 72, "velocity": 92, "duration": 68}, {"note": 74, "velocity": 93, "duration": 322}, {"note": 0, "velocity": 0, "duration": 158}, {"note": 74, "velocity": 95, "duration": 82}, {"note": 72, "velocity": 91, "duration": 132}, {"note": 0, "velocity": 0, "duration": 108}, {"note": 69, "velocity": 90, "duration": 73}, {"note": 77, "velocity": 90, "duration": 354}, {"note": 0, "velocity": 0, "duration": 126}, {"note": 72, "velocity": 91, "duration": 62}, {"note": 74, "velocity": 96, "duration": 191}, {"note": 77, "velocity": 94, "duration": 161}, {"note": 0, "velocity": 0, "duration": 79}, {"note": 77, "velocity": 94, "duration": 74}, {"note": 79, "velocity": 91, "duration": 266}, {"note": 0, "velocity": 0, "duration": 94}, {"note": 79, "velocity": 91, "duration": 252}, {"note": 72, "velocity": 93, "duration": 150}, {"note": 0, "velocity": 0, "duration": 90}, {"note": 77, "velocity": 94, "duration": 170}, {"note": 0, "velocity": 0, "duration": 70}, {"note": 79, "velocity": 90, "duration": 165}, {"note": 0, "velocity": 0, "duration": 75}, {"note": 81, "velocity": 87, "duration": 360}, {"note": 0, "velocity": 0, "duration": 120}, {"note": 79, "velocity": 90, "duration": 193}, {"note": 77, "velocity": 89, "duration": 66}, {"note": 79, "velocity": 90, "duration": 570}, {"note": 0, "velocity": 0, "duration": 270}, {"note": 77, "velocity": 90, "duration": 75}, {"note": 76, "velocity": 96, "duration": 70}, {"note": 77, "velocity": 90, "duration": 181}, {"note": 76, "velocity": 93, "duration": 164}, {"note": 0, "velocity": 0, "duration": 76}, {"note": 74, "velocity": 90, "duration": 72}, {"note": 76, "velocity": 95, "duration": 197}, {"note": 69, "velocity": 90, "duration": 540}, {"note": 0, "velocity": 0, "duration": 300}, {"note": 72, "velocity": 91, "duration": 60}, {"note": 72, "velocity": 89, "duration": 74}, {"note": 74, "velocity": 100, "duration": 163}, {"note": 0, "velocity": 0, "duration": 77}, {"note": 72, "velocity": 93, "duration": 66}, {"note": 74, "velocity": 96, "duration": 335}, {"note": 0, "velocity": 0, "duration": 145}, {"note": 74, "velocity": 91, "duration": 82}, {"note": 72, "velocity": 91, "duration": 168}, {"note": 0, "velocity": 0, "duration": 72}, {"note": 69, "velocity": 91, "duration": 76}, {"note": 77, "velocity": 90, "duration": 335}, {"note": 0, "velocity": 0, "duration": 145}, {"note": 72, "velocity": 89, "duration": 70}, {"note": 82, "velocity": 87, "duration": 168}, {"note": 0, "velocity": 0, "duration": 72}, {"note": 81, "velocity": 90, "duration": 163}, {"note": 0, "velocity": 0, "duration": 77}, {"note": 77, "velocity": 89, "duration": 185}, {"note": 76, "velocity": 91, "duration": 67}, {"note": 77, "velocity": 91, "duration": 1876}, {"note": 0, "velocity": 0, "duration": 404}, {"note": 74, "velocity": 85, "duration": 53}, {"note": 0, "velocity": 0, "duration": 67}, {"note": 74, "velocity": 98, "duration": 64}, {"note": 74, "velocity": 91, "duration": 63}, {"note": 74, "velocity": 93, "duration": 60}, {"note": 74, "velocity": 90, "duration": 57}, {"note": 0, "velocity": 0, "duration": 63}, {"note": 74, "velocity": 93, "duration": 67}, {"note": 76, "velocity": 91, "duration": 166}, {"note": 0, "velocity": 0, "duration": 74}, {"note": 74, "velocity": 91, "duration": 65}, {"note": 76, "velocity": 90, "duration": 335}, {"note": 0, "velocity": 0, "duration": 505}, {"note": 76, "velocity": 91, "duration": 75}, {"note": 76, "velocity": 90, "duration": 62}, {"note": 76, "velocity": 93, "duration": 63}, {"note": 76, "velocity": 90, "duration": 65}, {"note": 76, "velocity": 92, "duration": 78}, {"note": 69, "velocity": 95, "duration": 78}, {"note": 79, "velocity": 95, "duration": 80}, {"note": 77, "velocity": 91, "duration": 63}, {"note": 76, "velocity": 93, "duration": 67}, {"note": 77, "velocity": 90, "duration": 513}, {"note": 0, "velocity": 0, "duration": 327}, {"note": 74, "velocity": 93, "duration": 74}, {"note": 74, "velocity": 93, "duration": 57}, {"note": 0, "velocity": 0, "duration": 63}, {"note": 74, "velocity": 90, "duration": 72}, {"note": 74, "velocity": 89, "duration": 57}, {"note": 0, "velocity": 0, "duration": 63}, {"note": 74, "velocity": 91, "duration": 52}, {"note": 0, "velocity": 0, "duration": 68}, {"note": 74, "velocity": 91, "duration": 65}, {"note": 76, "velocity": 91, "duration": 68}, {"note": 76, "velocity": 90, "duration": 76}, {"note": 74, "velocity": 85, "duration": 70}, {"note": 76, "velocity": 91, "duration": 273}, {"note": 0, "velocity": 0, "duration": 87}, {"note": 74, "velocity": 100, "duration": 70}, {"note": 76, "velocity": 93, "duration": 68}, {"note": 77, "velocity": 90, "duration": 63}, {"note": 77, "velocity": 88, "duration": 59}, {"note": 0, "velocity": 0, "duration": 61}, {"note": 77, "velocity": 89, "duration": 61}, {"note": 77, "velocity": 87, "duration": 58}, {"note": 0, "velocity": 0, "duration": 62}, {"note": 77, "velocity": 90, "duration": 65}, {"note": 77, "velocity": 90, "duration": 196}, {"note": 79, "velocity": 91, "duration": 75}, {"note": 79, "velocity": 90, "duration": 1947}, {"note": 0, "velocity": 0, "duration": 213}, {"note": 72, "velocity": 94, "duration": 176}, {"note": 0, "velocity": 0, "duration": 64}, {"note": 77, "velocity": 94, "duration": 184}, {"note": 79, "velocity": 90, "duration": 169}, {"note": 0, "velocity": 0, "duration": 71}, {"note": 81, "velocity": 90, "duration": 388}, {"note": 0, "velocity": 0, "duration": 92}, {"note": 79, "velocity": 90, "duration": 185}, {"note": 77, "velocity": 87, "duration": 85}, {"note": 79, "velocity": 90, "duration": 630}, {"note": 0, "velocity": 0, "duration": 210}, {"note": 77, "velocity": 91, "duration": 95}, {"note": 76, "velocity": 90, "duration": 62}, {"note": 77, "velocity": 90, "duration": 167}, {"note": 0, "velocity": 0, "duration": 73}, {"note": 76, "velocity": 91, "duration": 143}, {"note": 0, "velocity": 0, "duration": 97}, {"note": 74, "velocity": 94, "duration": 67}, {"note": 76, "velocity": 91, "duration": 180}, {"note": 69, "velocity": 91, "duration": 474}, {"note": 0, "velocity": 0, "duration": 486}, {"note": 72, "velocity": 90, "duration": 72}, {"note": 74, "velocity": 93, "duration": 181}, {"note": 72, "velocity": 92, "duration": 68}, {"note": 74, "velocity": 93, "duration": 322}, {"note": 0, "velocity": 0, "duration": 158}, {"note": 74, "velocity": 95, "duration": 82}, {"note": 72, "velocity": 91, "duration": 132}, {"note": 0, "velocity": 0, "duration": 108}, {"note": 69, "velocity": 90, "duration": 73}, {"note": 77, "velocity": 90, "duration": 354}, {"note": 0, "velocity": 0, "duration": 126}, {"note": 72, "velocity": 91, "duration": 62}, {"note": 74, "velocity": 96, "duration": 191}, {"note": 77, "velocity": 94, "duration": 161}, {"note": 0, "velocity": 0, "duration": 79}, {"note": 77, "velocity": 94, "duration": 74}, {"note": 79, "velocity": 91, "duration": 266}, {"note": 0, "velocity": 0, "duration": 94}, {"note": 79, "velocity": 91, "duration": 252}, {"note": 72, "velocity": 93, "duration": 150}, {"note": 0, "velocity": 0, "duration": 90}, {"note": 77, "velocity": 94, "duration": 170}, {"note": 0, "velocity": 0, "duration": 70}, {"note": 79, "velocity": 90, "duration": 165}, {"note": 0, "velocity": 0, "duration": 75}, {"note": 81, "velocity": 87, "duration": 360}, {"note": 0, "velocity": 0, "duration": 120}, {"note": 79, "velocity": 90, "duration": 193}, {"note": 77, "velocity": 89, "duration": 66}, {"note": 79, "velocity": 90, "duration": 570}, {"note": 0, "velocity": 0, "duration": 270}, {"note": 77, "velocity": 90, "duration": 75}, {"note": 76, "velocity": 96, "duration": 70}, {"note": 77, "velocity": 90, "duration": 181}, {"note": 76, "velocity": 93, "duration": 164}, {"note": 0, "velocity": 0, "duration": 76}, {"note": 74, "velocity": 90, "duration": 72}, {"note": 76, "velocity": 95, "duration": 197}, {"note": 69, "velocity": 90, "duration": 540}, {"note": 0, "velocity": 0, "duration": 300}, {"note": 72, "velocity": 91, "duration": 60}, {"note": 72, "velocity": 89, "duration": 74}, {"note": 74, "velocity": 100, "duration": 163}, {"note": 0, "velocity": 0, "duration": 77}, {"note": 72, "velocity": 93, "duration": 66}, {"note": 74, "velocity": 96, "duration": 335}, {"note": 0, "velocity": 0, "duration": 145}, {"note": 74, "velocity": 91, "duration": 82}, {"note": 72, "velocity": 91, "duration": 168}, {"note": 0, "velocity": 0, "duration": 72}, {"note": 69, "velocity": 91, "duration": 76}, {"note": 77, "velocity": 90, "duration": 335}, {"note": 0, "velocity": 0, "duration": 145}, {"note": 72, "velocity": 89, "duration": 70}, {"note": 82, "velocity": 87, "duration": 168}, {"note": 0, "velocity": 0, "duration": 72}, {"note": 81, "velocity": 90, "duration": 163}, {"note": 0, "velocity": 0, "duration": 77}, {"note": 77, "velocity": 89, "duration": 185}, {"note": 76, "velocity": 91, "duration": 67}, {"note": 77, "velocity": 91, "duration": 1876}]]