[[{"note": 65, "velocity": 94, "duration": 72}, {"note": 65, "velocity": 96, "duration": 539}, {"note": 0, "velocity": 0, "duration": 61}, {"note": 67, "velocity": 95, "duration": 199}, {"note": 69, "velocity": 95, "duration": 225}, {"note": 72, "velocity": 93, "duration": 376}, {"note": 0, "velocity": 0, "duration": 224}, {"note": 69, "velocity": 93, "duration": 100}, {"note": 77, "velocity": 93, "duration": 646}, {"note": 0, "velocity": 0, "duration": 74}, {"note": 76, "velocity": 94, "duration": 165}, {"note": 0, "velocity": 0, "duration": 75}, {"note": 74, "velocity": 94, "duration": 220}, {"note": 72, "velocity": 93, "duration": 541}, {"note": 0, "velocity": 0, "duration": 419}, {"note": 74, "velocity": 98, "duration": 168}, {"note": 0, "velocity": 0, "duration": 72}, {"note": 74, "velocity": 99, "duration": 163}, {"note": 0, "velocity": 0, "duration": 77}, {"note": 72, "velocity": 94, "duration": 158}, {"note": 0, "velocity": 0, "duration": 82}, {"note": 72, "velocity": 94, "duration": 352}, {"note": 0, "velocity": 0, "duration": 128}, {"note": 65, "velocity": 98, "duration": 185}, {"note": 67, "velocity": 94, "duration": 87}, {"note": 69, "velocity": 94, "duration": 336}, {"note": 67, "velocity": 90, "duration": 74}, {"note": 67, "velocity": 92, "duration": 840}, {"note": 0, "velocity": 0, "duration": 600}, {"note": 65, "velocity": 92, "duration": 66}, {"note": 65, "velocity": 96, "duration": 730}, {"note": 67, "velocity": 94, "duration": 219}, {"note": 69, "velocity": 92, "duration": 246}, {"note": 72, "velocity": 98, "duration": 539}, {"note": 0, "velocity": 0, "duration": 61}, {"note": 69, "velocity": 92, "duration": 111}, {"note": 77, "velocity": 93, "duration": 664}, {"note": 79, "velocity": 96, "duration": 196}, {"note": 77, "velocity": 93, "duration": 221}, {"note": 72, "velocity": 98, "duration": 444}, {"note": 0, "velocity": 0, "duration": 156}, {"note": 70, "velocity": 88, "duration": 123}, {"note": 67, "velocity": 94, "duration": 582}, {"note": 0, "velocity": 0, "duration": 138}, {"note": 67, "velocity": 94, "duration": 88}, {"note": 74, "velocity": 98, "duration": 83}, {"note": 72, "velocity": 93, "duration": 467}, {"note": 0, "velocity": 0, "duration": 253}, {"note": 67, "velocity": 93, "duration": 100}, {"note": 69, "velocity": 93, "duration": 347}, {"note": 65, "velocity": 96, "duration": 1374}, {"note": 0, "velocity": 0, "duration": 306}, {"note": 67, "velocity": 93, "duration": 158}, {"note": 0, "velocity": 0, "duration": 82}, {"note": 67, "velocity": 96, "duration": 454}, {"note": 65, "velocity": 93, "duration": 201}, {"note": 67, "velocity": 94, "duration": 544}, {"note": 0, "velocity": 0, "duration": 176}, {"note": 65, "velocity": 94, "duration": 70}, {"note": 67, "velocity": 93, "duration": 65}, {"note": 69, "velocity": 94, "duration": 662}, {"note": 69, "velocity": 96, "duration": 68}, {"note": 67, "velocity": 92, "duration": 67}, {"note": 69, "velocity": 94, "duration": 593}, {"note": 0, "velocity": 0, "duration": 247}, {"note": 65, "velocity": 94, "duration": 79}, {"note": 67, "velocity": 99, "duration": 126}, {"note": 0, "velocity": 0, "duration": 114}, {"note": 67, "velocity": 92, "duration": 156}, {"note": 0, "velocity": 0, "duration": 84}, {"note": 67, "velocity": 94, "duration": 228}, {"note": 65, "velocity": 94, "duration": 78}, {"note": 67, "velocity": 94, "duration": 354}, {"note": 0, "velocity": 0, "duration": 246}, {"note": 74, "velocity": 97, "duration": 392}, {"note": 0, "velocity": 0, "duration": 88}, {"note": 72, "velocity": 98, "duration": 143}, {"note": 0, "velocity": 0, "duration": 97}, {"note": 72, "velocity": 93, "duration": 229}, {"note": 69, "velocity": 93, "duration": 1214}, {"note": 0, "velocity": 0, "duration": 226}, {"note": 69, "velocity": 97, "duration": 78}, {"note": 72, "velocity": 96, "duration": 194}, {"note": 72, "velocity": 94, "duration": 56}, {"note": 0, "velocity": 0, "duration": 64}, {"note": 72, "velocity": 96, "duration": 201}, {"note": 69, "velocity": 95, "duration": 86}, {"note": 72, "velocity": 96, "duration": 640}, {"note": 0, "velocity": 0, "duration": 440}, {"note": 69, "velocity": 94, "duration": 83}, {"note": 77, "velocity": 98, "duration": 171}, {"note": 0, "velocity": 0, "duration": 69}, {"note": 77, "velocity": 95, "duration": 60}, {"note": 77, "velocity": 98, "duration": 142}, {"note": 0, "velocity": 0, "duration": 98}, {"note": 69, "velocity": 95, "duration": 67}, {"note": 74, "velocity": 97, "duration": 769}, {"note": 0, "velocity": 0, "duration": 311}, {"note": 74, "velocity": 96, "duration": 137}, {"note": 0, "velocity": 0, "duration": 103}, {"note": 74, "velocity": 98, "duration": 142}, {"note": 0, "velocity": 0, "duration": 98}, {"note": 74, "velocity": 101, "duration": 171}, {"note": 0, "velocity": 0, "duration": 69}, {"note": 72, "velocity": 95, "duration": 73}, {"note": 74, "velocity": 97, "duration": 514}, {"note": 0, "velocity": 0, "duration": 86}, {"note": 74, "velocity": 101, "duration": 65}, {"note": 77, "velocity": 96, "duration": 192}, {"note": 74, "velocity": 99, "duration": 65}, {"note": 79, "velocity": 96, "duration": 1472}, {"note": 0, "velocity": 0, "duration": 448}, {"note": 72, "velocity": 98, "duration": 187}, {"note": 81, "velocity": 97, "duration": 430}, {"note": 79, "velocity": 93, "duration": 62}, {"note": 81, "velocity": 93, "duration": 889}, {"note": 0, "velocity": 0, "duration": 191}, {"note": 69, "velocity": 97, "duration": 179}, {"note": 0, "velocity": 0, "duration": 61}, {"note": 77, "velocity": 93, "duration": 395}, {"note": 0, "velocity": 0, "duration": 85}, {"note": 76, "velocity": 95, "duration": 63}, {"note": 74, "velocity": 98, "duration": 857}, {"note": 0, "velocity": 0, "duration": 223}, {"note": 74, "velocity": 109, "duration": 189}, {"note": 79, "velocity": 96, "duration": 416}, {"note": 0, "velocity": 0, "duration": 64}, {"note": 77, "velocity": 93, "duration": 63}, {"note": 79, "velocity": 96, "duration": 639}, {"note": 0, "velocity": 0, "duration": 201}, {"note": 74, "velocity": 103, "duration": 66}, {"note": 77, "velocity": 94, "duration": 63}, {"note": 79, "velocity": 94, "duration": 65}, {"note": 79, "velocity": 94, "duration": 177}, {"note": 0, "velocity": 0, "duration": 63}, {"note": 79, "velocity": 93, "duration": 55}, {"note": 0, "velocity": 0, "duration": 65}, {"note": 79, "velocity": 95, "duration": 174}, {"note": 0, "velocity": 0, "duration": 66}, {"note": 77, "velocity": 96, "duration": 65}, {"note": 81, "velocity": 89, "duration": 257}, {"note": 79, "velocity": 96, "duration": 548}, {"note": 0, "velocity": 0, "duration": 292}, {"note": 72, "velocity": 96, "duration": 188}, {"note": 81, "velocity": 99, "duration": 425}, {"note": 79, "velocity": 93, "duration": 65}, {"note": 81, "velocity": 94, "duration": 858}, {"note": 0, "velocity": 0, "duration": 222}, {"note": 69, "velocity": 96, "duration": 193}, {"note": 77, "velocity": 96, "duration": 455}, {"note": 76, "velocity": 93, "duration": 68}, {"note": 74, "velocity": 93, "duration": 578}, {"note": 0, "velocity": 0, "duration": 382}, {"note": 72, "velocity": 99, "duration": 82}, {"note": 74, "velocity": 106, "duration": 184}, {"note": 77, "velocity": 96, "duration": 68}, {"note": 77, "velocity": 96, "duration": 381}, {"note": 0, "velocity": 0, "duration": 99}, {"note": 79, "velocity": 96, "duration": 71}, {"note": 81, "velocity": 96, "duration": 213}, {"note": 79, "velocity": 98, "duration": 360}, {"note": 0, "velocity": 0, "duration": 240}, {"note": 77, "velocity": 88, "duration": 141}, {"note": 76, "velocity": 96, "duration": 262}, {"note": 77, "velocity": 98, "duration": 1486}, {"note": 0, "velocity": 0, "duration": 12674}, {"note": 65, "velocity": 96, "duration": 659}, {"note": 0, "velocity": 0, "duration": 61}, {"note": 67, "velocity": 95, "duration": 199}, {"note": 69, "velocity": 95, "duration": 225}, {"note": 72, "velocity": 93, "duration": 376}, {"note": 0, "velocity": 0, "duration": 224}, {"note": 69, "velocity": 93, "duration": 100}, {"note": 77, "velocity": 93, "duration": 646}, {"note": 0, "velocity": 0, "duration": 74}, {"note": 76, "velocity": 94, "duration": 165}, {"note": 0, "velocity": 0, "duration": 75}, {"note": 74, "velocity": 94, "duration": 220}, {"note": 72, "velocity": 93, "duration": 541}, {"note": 0, "velocity": 0, "duration": 419}, {"note": 74, "velocity": 98, "duration": 168}, {"note": 0, "velocity": 0, "duration": 72}, {"note": 74, "velocity": 99, "duration": 163}, {"note": 0, "velocity": 0, "duration": 77}, {"note": 72, "velocity": 94, "duration": 158}, {"note": 0, "velocity": 0, "duration": 82}, {"note": 72, "velocity": 94, "duration": 352}, {"note": 0, "velocity": 0, "duration": 128}, {"note": 65, "velocity": 98, "duration": 185}, {"note": 67, "velocity": 94, "duration": 87}, {"note": 69, "velocity": 94, "duration": 336}, {"note": 67, "velocity": 90, "duration": 74}, {"note": 67, "velocity": 92, "duration": 840}, {"note": 0, "velocity": 0, "duration": 600}, {"note": 65, "velocity": 92, "duration": 66}, {"note": 65, "velocity": 96, "duration": 730}, {"note": 67, "velocity": 94, "duration": 219}, {"note": 69, "velocity": 92, "duration": 246}, {"note": 72, "velocity": 98, "duration": 539}, {"note": 0, "velocity": 0, "duration": 61}, {"note": 69, "velocity": 92, "duration": 111}, {"note": 77, "velocity": 93, "duration": 664}, {"note": 79, "velocity": 96, "duration": 196}, {"note": 77, "velocity": 93, "duration": 221}, {"note": 72, "velocity": 98, "duration": 444}, {"note": 0, "velocity": 0, "duration": 156}, {"note": 70, "velocity": 88, "duration": 123}, {"note": 67, "velocity": 94, "duration": 582}, {"note": 0, "velocity": 0, "duration": 138}, {"note": 67, "velocity": 94, "duration": 88}, {"note": 74, "velocity": 98, "duration": 83}, {"note": 72, "velocity": 93, "duration": 467}, {"note": 0, "velocity": 0, "duration": 253}, {"note": 67, "velocity": 93, "duration": 100}, {"note": 69, "velocity": 93, "duration": 347}, {"note": 65, "velocity": 96, "duration": 1374}, {"note": 0, "velocity": 0, "duration": 306}, {"note": 67, "velocity": 93, "duration": 158}, {"note": 0, "velocity": 0, "duration": 82}, {"note": 67, "velocity": 96, "duration": 454}, {"note": 65, "velocity": 93, "duration": 201}, {"note": 67, "velocity": 94, "duration": 544}, {"note": 0, "velocity": 0, "duration": 176}, {"note": 65, "velocity": 94, "duration": 70}, {"note": 67, "velocity": 93, "duration": 65}, {"note": 69, "velocity": 94, "duration": 662}, {"note": 69, "velocity": 96, "duration": 68}, {"note": 67, "velocity": 92, "duration": 67}, {"note": 69, "velocity": 94, "duration": 593}, {"note": 0, "velocity": 0, "duration": 247}, {"note": 65, "velocity": 94, "duration": 79}, {"note": 67, "velocity": 99, "duration": 126}, {"note": 0, "velocity": 0, "duration": 114}, {"note": 67, "velocity": 92, "duration": 156}, {"note": 0, "velocity": 0, "duration": 84}, {"note": 67, "velocity": 94, "duration": 228}, {"note": 65, "velocity": 94, "duration": 78}, {"note": 67, "velocity": 94, "duration": 354}, {"note": 0, "velocity": 0, "duration": 246}, {"note": 74, "velocity": 97, "duration": 392}, {"note": 0, "velocity": 0, "duration": 88}, {"note": 72, "velocity": 98, "duration": 143}, {"note": 0, "velocity": 0, "duration": 97}, {"note": 72, "velocity": 93, "duration": 229}, {"note": 69, "velocity": 93, "duration": 1214}, {"note": 0, "velocity": 0, "duration": 226}, {"note": 69, "velocity": 97, "duration": 78}, {"note": 72, "velocity": 96, "duration": 194}, {"note": 72, "velocity": 94, "duration": 56}, {"note": 0, "velocity": 0, "duration": 64}, {"note": 72, "velocity": 96, "duration": 201}, {"note": 69, "velocity": 95, "duration": 86}, {"note": 72, "velocity": 96, "duration": 640}, {"note": 0, "velocity": 0, "duration": 440}, {"note": 69, "velocity": 94, "duration": 83}, {"note": 77, "velocity": 98, "duration": 171}, {"note": 0, "velocity": 0, "duration": 69}, {"note": 77, "velocity": 95, "duration": 60}, {"note": 77, "velocity": 98, "duration": 142}, {"note": 0, "velocity": 0, "duration": 98}, {"note": 69, "velocity": 95, "duration": 67}, {"note": 74, "velocity": 97, "duration": 769}, {"note": 0, "velocity": 0, "duration": 311}, {"note": 74, "velocity": 96, "duration": 137}, {"note": 0, "velocity": 0, "duration": 103}, {"note": 74, "velocity": 98, "duration": 142}, {"note": 0, "velocity": 0, "duration": 98}, {"note": 74, "velocity": 101, "duration": 171}, {"note": 0, "velocity": 0, "duration": 69}, {"note": 72, "velocity": 95, "duration": 73}, {"note": 74, "velocity": 97, "duration": 514}, {"note": 0, "velocity": 0, "duration": 86}, {"note": 74, "velocity": 101, "duration": 65}, {"note": 77, "velocity": 96, "duration": 192}, {"note": 74, "velocity": 99, "duration": 65}, {"note": 79, "velocity": 96, "duration": 1472}, {"note": 0, "velocity": 0, "duration": 448}, {"note": 72, "velocity": 98, "duration": 187}, {"note": 81, "velocity": 97, "duration": 430}, {"note": 79, "velocity": 93, "duration": 62}, {"note": 81, "velocity": 93, "duration": 889}, {"note": 0, "velocity": 0, "duration": 191}, {"note": 69, "velocity": 97, "duration": 179}, {"note": 0, "velocity": 0, "duration": 61}, {"note": 77, "velocity": 93, "duration": 395}, {"note": 0, "velocity": 0, "duration": 85}, {"note": 76, "velocity": 95, "duration": 63}, {"note": 74, "velocity": 98, "duration": 857}, {"note": 0, "velocity": 0, "duration": 223}, {"note": 74, "velocity": 109, "duration": 189}, {"note": 79, "velocity": 96, "duration": 416}, {"note": 0, "velocity": 0, "duration": 64}, {"note": 77, "velocity": 93, "duration": 63}, {"note": 79, "velocity": 96, "duration": 639}, {"note": 0, "velocity": 0, "duration": 201}, {"note": 74, "velocity": 103, "duration": 66}, {"note": 77, "velocity": 94, "duration": 63}, {"note": 79, "velocity": 94, "duration": 65}, {"note": 79, "velocity": 94, "duration": 177}, {"note": 0, "velocity": 0, "duration": 63}, {"note": 79, "velocity": 93, "duration": 55}, {"note": 0, "velocity": 0, "duration": 65}, {"note": 79, "velocity": 95, "duration": 174}, {"note": 0, "velocity": 0, "duration": 66}, {"note": 77, "velocity": 96, "duration": 65}, {"note": 81, "velocity": 89, "duration": 257}, {"note": 79, "velocity": 96, "duration": 548}, {"note": 0, "velocity": 0, "duration": 292}, {"note": 72, "velocity": 96, "duration": 188}, {"note": 81, "velocity": 99, "duration": 425}, {"note": 79, "velocity": 93, "duration": 65}, {"note": 81, "velocity": 94, "duration": 858}, {"note": 0, "velocity": 0, "duration": 222}, {"note": 69, "velocity": 96, "duration": 193}, {"note": 77, "velocity": 96, "duration": 455}, {"note": 76, "velocity": 93, "duration": 68}, {"note": 74, "velocity": 93, "duration": 578}, {"note": 0, "velocity": 0, "duration": 382}, {"note": 72, "velocity": 99, "duration": 82}, {"note": 74, "velocity": 106, "duration": 184}, {"note": 77, "velocity": 96, "duration": 68}, {"note": 77, "velocity": 96, "duration": 381}, {"note": 0, "velocity": 0, "duration": 99}, {"note": 79, "velocity": 96, "duration": 71}, {"note": 81, "velocity": 96, "duration": 213}, {"note": 79, "velocity": 98, "duration": 360}, {"note": 0, "velocity": 0, "duration": 240}, {"note": 77, "velocity": 88, "duration": 141}, {"note": 76, "velocity": 96, "duration": 262}, {"note": 77, "velocity": 98, "duration": 1486}, {"note": 0, "velocity": 0, "duration": 194}, {"note": 72, "velocity": 98, "duration": 187}, {"note": 81, "velocity": 97, "duration": 430}, {"note": 79, "velocity": 93, "duration": 62}, {"note": 81, "velocity": 93, "duration": 889}, {"note": 0, "velocity": 0, "duration": 191}, {"note": 69, "velocity": 97, "duration": 179}, {"note": 0, "velocity": 0, "duration": 61}, {"note": 77, "velocity": 93, "duration": 395}, {"note": 0, "velocity": 0, "duration": 85}, {"note": 76, "velocity": 95, "duration": 63}, {"note": 74, "velocity": 98, "duration": 857}, {"note": 0, "velocity": 0, "duration": 223}, {"note": 74, "velocity": 109, "duration": 189}, {"note": 79, "velocity": 96, "duration": 416}, {"note": 0, "velocity": 0, "duration": 64}, {"note": 77, "velocity": 93, "duration": 63}, {"note": 79, "velocity": 96, "duration": 639}, {"note": 0, "velocity": 0, "duration": 201}, {"note": 74, "velocity": 103, "duration": 66}, {"note": 77, "velocity": 94, "duration": 63}, {"note": 79, "velocity": 94, "duration": 65}, {"note": 79, "velocity": 94, "duration": 177}, {"note": 0, "velocity": 0, "duration": 63}, {"note": 79, "velocity": 93, "duration": 55}, {"note": 0, "velocity": 0, "duration": 65}, {"note": 79, "velocity": 95, "duration": 174}, {"note": 0, "velocity": 0, "duration": 66}, {"note": 77, "velocity": 96, "duration": 65}, {"note": 81, "velocity": 89, "duration": 257}, {"note": 79, "velocity": 96, "duration": 548}, {"note": 0, "velocity": 0, "duration": 292}, {"note": 72, "velocity": 96, "duration": 188}, {"note": 81, "velocity": 99, "duration": 425}, {"note": 79, "velocity": 93, "duration": 65}, {"note": 81, "velocity": 94, "duration": 858}, {"note": 0, "velocity": 0, "duration": 222}, {"note": 69, "velocity": 96, "duration": 193}, {"note": 77, "velocity": 96, "duration": 455}, {"note": 76, "velocity": 93, "duration": 68}, {"note": 74, "velocity": 93, "duration": 578}, {"note": 0, "velocity": 0, "duration": 382}, {"note": 72, "velocity": 99, "duration": 82}, {"note": 74, "velocity": 106, "duration": 184}, {"note": 77, "velocity": 96, "duration": 68}, {"note": 77, "velocity": 96, "duration": 381}, {"note": 0, "velocity": 0, "duration": 99}, {"note": 79, "velocity": 96, "duration": 71}, {"note": 81, "velocity": 96, "duration": 213}, {"note": 79, "velocity": 98, "duration": 360}, {"note": 0, "velocity": 0, "duration": 240}, {"note": 77, "velocity": 88, "duration": 141}, {"note": 76, "velocity": 96, "duration": 262}, {"note": 77, "velocity": 98, "duration": 1486}, {"note": 0, "velocity": 0, "duration": 74}, {"note": 72, "velocity": 99, "duration": 82}, {"note": 74, "velocity": 106, "duration": 184}, {"note": 77, "velocity": 96, "duration": 68}, {"note": 77, "velocity": 96, "duration": 381}, {"note": 0, "velocity": 0, "duration": 99}, {"note": 79, "velocity": 96, "duration": 71}, {"note": 81, "velocity": 96, "duration": 213}, {"note": 79, "velocity": 98, "duration": 360}, {"note": 0, "velocity": 0, "duration": 240}, {"note": 77, "velocity": 88, "duration": 141}, {"note": 76, "velocity": 96, "duration": 262}, {"note": 77, "velocity": 98, "duration": 1486}]]