[[{"note": 66, "velocity": 91, "duration": 240}, {"note": 69, "velocity": 89, "duration": 240}, {"note": 66, "velocity": 89, "duration": 240}, {"note": 64, "velocity": 94, "duration": 240}, {"note": 66, "velocity": 89, "duration": 480}, {"note": 69, "velocity": 89, "duration": 240}, {"note": 71, "velocity": 91, "duration": 240}, {"note": 73, "velocity": 91, "duration": 479}, {"note": 73, "velocity": 93, "duration": 479}, {"note": 73, "velocity": 94, "duration": 240}, {"note": 76, "velocity": 91, "duration": 120}, {"note": 73, "velocity": 91, "duration": 120}, {"note": 71, "velocity": 98, "duration": 240}, {"note": 69, "velocity": 89, "duration": 240}, {"note": 71, "velocity": 92, "duration": 239}, {"note": 71, "velocity": 94, "duration": 480}, {"note": 69, "velocity": 91, "duration": 240}, {"note": 71, "velocity": 96, "duration": 480}, {"note": 73, "velocity": 88, "duration": 480}, {"note": 71, "velocity": 94, "duration": 240}, {"note": 73, "velocity": 88, "duration": 120}, {"note": 71, "velocity": 91, "duration": 120}, {"note": 69, "velocity": 94, "duration": 240}, {"note": 71, "velocity": 91, "duration": 240}, {"note": 66, "velocity": 93, "duration": 959}, {"note": 66, "velocity": 91, "duration": 240}, {"note": 69, "velocity": 89, "duration": 240}, {"note": 66, "velocity": 89, "duration": 240}, {"note": 64, "velocity": 94, "duration": 240}, {"note": 66, "velocity": 89, "duration": 480}, {"note": 69, "velocity": 89, "duration": 240}, {"note": 73, "velocity": 91, "duration": 240}, {"note": 71, "velocity": 91, "duration": 479}, {"note": 71, "velocity": 93, "duration": 479}, {"note": 71, "velocity": 94, "duration": 240}, {"note": 73, "velocity": 91, "duration": 120}, {"note": 71, "velocity": 91, "duration": 120}, {"note": 69, "velocity": 98, "duration": 240}, {"note": 71, "velocity": 89, "duration": 480}, {"note": 73, "velocity": 93, "duration": 240}, {"note": 71, "velocity": 94, "duration": 240}, {"note": 73, "velocity": 92, "duration": 240}, {"note": 76, "velocity": 94, "duration": 360}, {"note": 71, "velocity": 93, "duration": 360}, {"note": 73, "velocity": 93, "duration": 251}, {"note": 64, "velocity": 94, "duration": 360}, {"note": 66, "velocity": 88, "duration": 3480}, {"note": 61, "velocity": 88, "duration": 240}, {"note": 69, "velocity": 88, "duration": 240}, {"note": 66, "velocity": 85, "duration": 240}, {"note": 64, "velocity": 91, "duration": 240}, {"note": 61, "velocity": 92, "duration": 479}, {"note": 61, "velocity": 90, "duration": 240}, {"note": 64, "velocity": 91, "duration": 240}, {"note": 66, "velocity": 87, "duration": 240}, {"note": 69, "velocity": 91, "duration": 240}, {"note": 66, "velocity": 88, "duration": 249}, {"note": 64, "velocity": 89, "duration": 240}, {"note": 66, "velocity": 91, "duration": 959}, {"note": 66, "velocity": 93, "duration": 240}, {"note": 71, "velocity": 89, "duration": 239}, {"note": 71, "velocity": 89, "duration": 240}, {"note": 73, "velocity": 91, "duration": 240}, {"note": 71, "velocity": 88, "duration": 480}, {"note": 69, "velocity": 93, "duration": 240}, {"note": 66, "velocity": 91, "duration": 240}, {"note": 64, "velocity": 94, "duration": 240}, {"note": 66, "velocity": 89, "duration": 239}, {"note": 66, "velocity": 90, "duration": 240}, {"note": 64, "velocity": 88, "duration": 240}, {"note": 61, "velocity": 87, "duration": 959}, {"note": 61, "velocity": 91, "duration": 240}, {"note": 69, "velocity": 89, "duration": 240}, {"note": 66, "velocity": 87, "duration": 240}, {"note": 64, "velocity": 88, "duration": 240}, {"note": 61, "velocity": 88, "duration": 480}, {"note": 64, "velocity": 98, "duration": 240}, {"note": 66, "velocity": 93, "duration": 240}, {"note": 71, "velocity": 92, "duration": 479}, {"note": 71, "velocity": 88, "duration": 479}, {"note": 71, "velocity": 88, "duration": 960}, {"note": 66, "velocity": 85, "duration": 240}, {"note": 71, "velocity": 88, "duration": 239}, {"note": 71, "velocity": 83, "duration": 240}, {"note": 73, "velocity": 91, "duration": 240}, {"note": 71, "velocity": 88, "duration": 479}, {"note": 71, "velocity": 91, "duration": 240}, {"note": 73, "velocity": 87, "duration": 240}, {"note": 64, "velocity": 93, "duration": 480}, {"note": 69, "velocity": 87, "duration": 480}, {"note": 66, "velocity": 88, "duration": 2879}, {"note": 66, "velocity": 91, "duration": 240}, {"note": 69, "velocity": 89, "duration": 240}, {"note": 66, "velocity": 89, "duration": 240}, {"note": 64, "velocity": 94, "duration": 240}, {"note": 66, "velocity": 89, "duration": 480}, {"note": 69, "velocity": 89, "duration": 240}, {"note": 71, "velocity": 91, "duration": 240}, {"note": 73, "velocity": 91, "duration": 479}, {"note": 73, "velocity": 93, "duration": 479}, {"note": 73, "velocity": 94, "duration": 240}, {"note": 76, "velocity": 91, "duration": 120}, {"note": 73, "velocity": 91, "duration": 120}, {"note": 71, "velocity": 98, "duration": 240}, {"note": 69, "velocity": 89, "duration": 240}, {"note": 71, "velocity": 92, "duration": 239}, {"note": 71, "velocity": 94, "duration": 480}, {"note": 69, "velocity": 91, "duration": 240}, {"note": 71, "velocity": 96, "duration": 480}, {"note": 73, "velocity": 88, "duration": 480}, {"note": 71, "velocity": 94, "duration": 240}, {"note": 73, "velocity": 88, "duration": 120}, {"note": 71, "velocity": 91, "duration": 120}, {"note": 69, "velocity": 94, "duration": 240}, {"note": 71, "velocity": 91, "duration": 240}, {"note": 66, "velocity": 93, "duration": 959}, {"note": 66, "velocity": 91, "duration": 240}, {"note": 69, "velocity": 89, "duration": 240}, {"note": 66, "velocity": 89, "duration": 240}, {"note": 64, "velocity": 94, "duration": 240}, {"note": 66, "velocity": 89, "duration": 480}, {"note": 69, "velocity": 89, "duration": 240}, {"note": 73, "velocity": 91, "duration": 240}, {"note": 71, "velocity": 91, "duration": 479}, {"note": 71, "velocity": 93, "duration": 479}, {"note": 71, "velocity": 94, "duration": 240}, {"note": 73, "velocity": 91, "duration": 120}, {"note": 71, "velocity": 91, "duration": 120}, {"note": 69, "velocity": 98, "duration": 240}, {"note": 71, "velocity": 89, "duration": 480}, {"note": 73, "velocity": 93, "duration": 239}, {"note": 73, "velocity": 94, "duration": 239}, {"note": 73, "velocity": 92, "duration": 240}, {"note": 71, "velocity": 94, "duration": 240}, {"note": 73, "velocity": 93, "duration": 240}, {"note": 76, "velocity": 93, "duration": 251}, {"note": 71, "velocity": 94, "duration": 240}, {"note": 73, "velocity": 94, "duration": 1920}, {"note": 66, "velocity": 91, "duration": 240}, {"note": 69, "velocity": 89, "duration": 240}, {"note": 66, "velocity": 89, "duration": 240}, {"note": 64, "velocity": 94, "duration": 240}, {"note": 66, "velocity": 89, "duration": 480}, {"note": 69, "velocity": 89, "duration": 240}, {"note": 71, "velocity": 91, "duration": 240}, {"note": 73, "velocity": 91, "duration": 479}, {"note": 73, "velocity": 93, "duration": 479}, {"note": 73, "velocity": 94, "duration": 240}, {"note": 76, "velocity": 91, "duration": 120}, {"note": 73, "velocity": 91, "duration": 120}, {"note": 71, "velocity": 98, "duration": 240}, {"note": 69, "velocity": 89, "duration": 240}, {"note": 71, "velocity": 92, "duration": 239}, {"note": 71, "velocity": 94, "duration": 480}, {"note": 69, "velocity": 91, "duration": 240}, {"note": 71, "velocity": 96, "duration": 480}, {"note": 73, "velocity": 88, "duration": 480}, {"note": 71, "velocity": 94, "duration": 240}, {"note": 73, "velocity": 88, "duration": 120}, {"note": 71, "velocity": 91, "duration": 120}, {"note": 69, "velocity": 94, "duration": 240}, {"note": 71, "velocity": 91, "duration": 240}, {"note": 66, "velocity": 93, "duration": 959}, {"note": 66, "velocity": 91, "duration": 240}, {"note": 69, "velocity": 89, "duration": 240}, {"note": 66, "velocity": 89, "duration": 240}, {"note": 64, "velocity": 94, "duration": 240}, {"note": 66, "velocity": 89, "duration": 480}, {"note": 69, "velocity": 89, "duration": 240}, {"note": 73, "velocity": 91, "duration": 240}, {"note": 71, "velocity": 91, "duration": 479}, {"note": 71, "velocity": 93, "duration": 479}, {"note": 71, "velocity": 94, "duration": 240}, {"note": 73, "velocity": 91, "duration": 120}, {"note": 71, "velocity": 91, "duration": 120}, {"note": 69, "velocity": 98, "duration": 240}, {"note": 71, "velocity": 89, "duration": 480}, {"note": 73, "velocity": 93, "duration": 240}, {"note": 71, "velocity": 94, "duration": 240}, {"note": 73, "velocity": 92, "duration": 240}, {"note": 76, "velocity": 94, "duration": 360}, {"note": 71, "velocity": 93, "duration": 360}, {"note": 73, "velocity": 93, "duration": 251}, {"note": 64, "velocity": 94, "duration": 360}, {"note": 66, "velocity": 88, "duration": 1600}, {"note": 0, "velocity": 0, "duration": 7155}, {"note": 69, "velocity": 91, "duration": 260}, {"note": 68, "velocity": 91, "duration": 253}, {"note": 66, "velocity": 87, "duration": 663}, {"note": 0, "velocity": 0, "duration": 768}, {"note": 73, "velocity": 72, "duration": 462}, {"note": 71, "velocity": 68, "duration": 968}, {"note": 0, "velocity": 0, "duration": 504}, {"note": 71, "velocity": 68, "duration": 326}, {"note": 69, "velocity": 68, "duration": 168}, {"note": 68, "velocity": 68, "duration": 824}, {"note": 0, "velocity": 0, "duration": 610}, {"note": 73, "velocity": 68, "duration": 246}, {"note": 71, "velocity": 68, "duration": 273}, {"note": 0, "velocity": 0, "duration": 167}, {"note": 66, "velocity": 68, "duration": 1039}, {"note": 0, "velocity": 0, "duration": 675}, {"note": 61, "velocity": 88, "duration": 240}, {"note": 69, "velocity": 88, "duration": 240}, {"note": 66, "velocity": 85, "duration": 240}, {"note": 64, "velocity": 91, "duration": 240}, {"note": 61, "velocity": 92, "duration": 479}, {"note": 61, "velocity": 90, "duration": 240}, {"note": 64, "velocity": 91, "duration": 240}, {"note": 66, "velocity": 87, "duration": 240}, {"note": 69, "velocity": 91, "duration": 240}, {"note": 66, "velocity": 88, "duration": 249}, {"note": 64, "velocity": 89, "duration": 240}, {"note": 66, "velocity": 91, "duration": 959}, {"note": 66, "velocity": 93, "duration": 240}, {"note": 71, "velocity": 89, "duration": 239}, {"note": 71, "velocity": 89, "duration": 240}, {"note": 73, "velocity": 91, "duration": 240}, {"note": 71, "velocity": 88, "duration": 480}, {"note": 69, "velocity": 93, "duration": 240}, {"note": 66, "velocity": 91, "duration": 240}, {"note": 64, "velocity": 94, "duration": 240}, {"note": 66, "velocity": 89, "duration": 239}, {"note": 66, "velocity": 90, "duration": 240}, {"note": 64, "velocity": 88, "duration": 240}, {"note": 61, "velocity": 87, "duration": 959}, {"note": 61, "velocity": 91, "duration": 240}, {"note": 69, "velocity": 89, "duration": 240}, {"note": 66, "velocity": 87, "duration": 240}, {"note": 64, "velocity": 88, "duration": 240}, {"note": 61, "velocity": 88, "duration": 480}, {"note": 64, "velocity": 98, "duration": 240}, {"note": 66, "velocity": 93, "duration": 240}, {"note": 71, "velocity": 92, "duration": 479}, {"note": 71, "velocity": 88, "duration": 479}, {"note": 71, "velocity": 88, "duration": 960}, {"note": 66, "velocity": 85, "duration": 240}, {"note": 71, "velocity": 88, "duration": 239}, {"note": 71, "velocity": 83, "duration": 240}, {"note": 73, "velocity": 91, "duration": 240}, {"note": 71, "velocity": 88, "duration": 479}, {"note": 71, "velocity": 91, "duration": 240}, {"note": 73, "velocity": 87, "duration": 240}, {"note": 64, "velocity": 93, "duration": 480}, {"note": 69, "velocity": 87, "duration": 480}, {"note": 66, "velocity": 88, "duration": 2879}, {"note": 66, "velocity": 91, "duration": 240}, {"note": 69, "velocity": 89, "duration": 240}, {"note": 66, "velocity": 89, "duration": 240}, {"note": 64, "velocity": 94, "duration": 240}, {"note": 66, "velocity": 89, "duration": 480}, {"note": 69, "velocity": 89, "duration": 240}, {"note": 71, "velocity": 91, "duration": 240}, {"note": 73, "velocity": 91, "duration": 479}, {"note": 73, "velocity": 93, "duration": 479}, {"note": 73, "velocity": 94, "duration": 240}, {"note": 76, "velocity": 91, "duration": 120}, {"note": 73, "velocity": 91, "duration": 120}, {"note": 71, "velocity": 98, "duration": 240}, {"note": 69, "velocity": 89, "duration": 240}, {"note": 71, "velocity": 92, "duration": 239}, {"note": 71, "velocity": 94, "duration": 480}, {"note": 69, "velocity": 91, "duration": 240}, {"note": 71, "velocity": 96, "duration": 480}, {"note": 73, "velocity": 88, "duration": 480}, {"note": 71, "velocity": 94, "duration": 240}, {"note": 73, "velocity": 88, "duration": 120}, {"note": 71, "velocity": 91, "duration": 120}, {"note": 69, "velocity": 94, "duration": 240}, {"note": 71, "velocity": 91, "duration": 240}, {"note": 66, "velocity": 93, "duration": 959}, {"note": 66, "velocity": 91, "duration": 240}, {"note": 69, "velocity": 89, "duration": 240}, {"note": 66, "velocity": 89, "duration": 240}, {"note": 64, "velocity": 94, "duration": 240}, {"note": 66, "velocity": 89, "duration": 480}, {"note": 69, "velocity": 89, "duration": 240}, {"note": 73, "velocity": 91, "duration": 240}, {"note": 71, "velocity": 91, "duration": 479}, {"note": 71, "velocity": 93, "duration": 479}, {"note": 71, "velocity": 94, "duration": 240}, {"note": 73, "velocity": 91, "duration": 120}, {"note": 71, "velocity": 91, "duration": 120}, {"note": 69, "velocity": 98, "duration": 240}, {"note": 71, "velocity": 89, "duration": 480}, {"note": 73, "velocity": 93, "duration": 239}, {"note": 73, "velocity": 94, "duration": 239}, {"note": 73, "velocity": 92, "duration": 240}, {"note": 71, "velocity": 94, "duration": 240}, {"note": 73, "velocity": 93, "duration": 240}, {"note": 76, "velocity": 93, "duration": 251}, {"note": 71, "velocity": 94, "duration": 240}, {"note": 73, "velocity": 94, "duration": 1920}, {"note": 66, "velocity": 91, "duration": 240}, {"note": 69, "velocity": 89, "duration": 240}, {"note": 66, "velocity": 89, "duration": 240}, {"note": 64, "velocity": 94, "duration": 240}, {"note": 66, "velocity": 89, "duration": 480}, {"note": 69, "velocity": 89, "duration": 240}, {"note": 71, "velocity": 91, "duration": 240}, {"note": 73, "velocity": 91, "duration": 479}, {"note": 73, "velocity": 93, "duration": 479}, {"note": 73, "velocity": 94, "duration": 240}, {"note": 76, "velocity": 91, "duration": 120}, {"note": 73, "velocity": 91, "duration": 120}, {"note": 71, "velocity": 98, "duration": 240}, {"note": 69, "velocity": 89, "duration": 240}, {"note": 71, "velocity": 92, "duration": 239}, {"note": 71, "velocity": 94, "duration": 480}, {"note": 69, "velocity": 91, "duration": 240}, {"note": 71, "velocity": 96, "duration": 480}, {"note": 73, "velocity": 88, "duration": 480}, {"note": 71, "velocity": 94, "duration": 240}, {"note": 73, "velocity": 88, "duration": 120}, {"note": 71, "velocity": 91, "duration": 120}, {"note": 69, "velocity": 94, "duration": 240}, {"note": 71, "velocity": 91, "duration": 240}, {"note": 66, "velocity": 93, "duration": 959}, {"note": 66, "velocity": 91, "duration": 240}, {"note": 69, "velocity": 89, "duration": 240}, {"note": 66, "velocity": 89, "duration": 240}, {"note": 64, "velocity": 94, "duration": 240}, {"note": 66, "velocity": 89, "duration": 480}, {"note": 69, "velocity": 89, "duration": 240}, {"note": 73, "velocity": 91, "duration": 240}, {"note": 71, "velocity": 91, "duration": 479}, {"note": 71, "velocity": 93, "duration": 479}, {"note": 71, "velocity": 94, "duration": 240}, {"note": 73, "velocity": 91, "duration": 120}, {"note": 71, "velocity": 91, "duration": 120}, {"note": 69, "velocity": 98, "duration": 240}, {"note": 71, "velocity": 89, "duration": 480}, {"note": 73, "velocity": 93, "duration": 240}, {"note": 71, "velocity": 94, "duration": 240}, {"note": 73, "velocity": 92, "duration": 240}, {"note": 76, "velocity": 94, "duration": 360}, {"note": 71, "velocity": 93, "duration": 360}, {"note": 73, "velocity": 93, "duration": 251}, {"note": 64, "velocity": 94, "duration": 360}, {"note": 66, "velocity": 88, "duration": 1559}, {"note": 66, "velocity": 91, "duration": 240}, {"note": 69, "velocity": 89, "duration": 240}, {"note": 66, "velocity": 89, "duration": 240}, {"note": 64, "velocity": 94, "duration": 240}, {"note": 66, "velocity": 89, "duration": 480}, {"note": 69, "velocity": 89, "duration": 240}, {"note": 71, "velocity": 91, "duration": 240}, {"note": 73, "velocity": 91, "duration": 479}, {"note": 73, "velocity": 93, "duration": 479}, {"note": 73, "velocity": 94, "duration": 240}, {"note": 76, "velocity": 91, "duration": 120}, {"note": 73, "velocity": 91, "duration": 120}, {"note": 71, "velocity": 98, "duration": 240}, {"note": 69, "velocity": 89, "duration": 240}, {"note": 71, "velocity": 92, "duration": 239}, {"note": 71, "velocity": 94, "duration": 480}, {"note": 69, "velocity": 91, "duration": 240}, {"note": 71, "velocity": 96, "duration": 480}, {"note": 73, "velocity": 88, "duration": 480}, {"note": 71, "velocity": 94, "duration": 240}, {"note": 73, "velocity": 88, "duration": 120}, {"note": 71, "velocity": 91, "duration": 120}, {"note": 69, "velocity": 94, "duration": 240}, {"note": 71, "velocity": 91, "duration": 240}, {"note": 66, "velocity": 93, "duration": 959}, {"note": 66, "velocity": 91, "duration": 240}, {"note": 69, "velocity": 89, "duration": 240}, {"note": 66, "velocity": 89, "duration": 240}, {"note": 64, "velocity": 94, "duration": 240}, {"note": 66, "velocity": 89, "duration": 480}, {"note": 69, "velocity": 89, "duration": 240}, {"note": 73, "velocity": 91, "duration": 240}, {"note": 71, "velocity": 91, "duration": 479}, {"note": 71, "velocity": 93, "duration": 479}, {"note": 71, "velocity": 94, "duration": 240}, {"note": 73, "velocity": 91, "duration": 120}, {"note": 71, "velocity": 91, "duration": 120}, {"note": 69, "velocity": 98, "duration": 240}, {"note": 71, "velocity": 89, "duration": 480}, {"note": 73, "velocity": 93, "duration": 240}, {"note": 71, "velocity": 94, "duration": 240}, {"note": 73, "velocity": 92, "duration": 240}, {"note": 71, "velocity": 94, "duration": 240}, {"note": 73, "velocity": 93, "duration": 240}, {"note": 76, "velocity": 93, "duration": 251}, {"note": 71, "velocity": 94, "duration": 240}, {"note": 73, "velocity": 88, "duration": 1681}]]