[[{"note": 69, "velocity": 92, "duration": 115}, {"note": 0, "velocity": 0, "duration": 125}, {"note": 69, "velocity": 93, "duration": 159}, {"note": 0, "velocity": 0, "duration": 81}, {"note": 71, "velocity": 94, "duration": 147}, {"note": 0, "velocity": 0, "duration": 93}, {"note": 73, "velocity": 93, "duration": 166}, {"note": 0, "velocity": 0, "duration": 74}, {"note": 73, "velocity": 88, "duration": 128}, {"note": 0, "velocity": 0, "duration": 112}, {"note": 73, "velocity": 87, "duration": 128}, {"note": 0, "velocity": 0, "duration": 112}, {"note": 73, "velocity": 96, "duration": 138}, {"note": 0, "velocity": 0, "duration": 102}, {"note": 73, "velocity": 95, "duration": 139}, {"note": 0, "velocity": 0, "duration": 101}, {"note": 71, "velocity": 98, "duration": 134}, {"note": 0, "velocity": 0, "duration": 106}, {"note": 73, "velocity": 96, "duration": 159}, {"note": 0, "velocity": 0, "duration": 81}, {"note": 76, "velocity": 96, "duration": 112}, {"note": 0, "velocity": 0, "duration": 128}, {"note": 76, "velocity": 94, "duration": 307}, {"note": 0, "velocity": 0, "duration": 173}, {"note": 76, "velocity": 93, "duration": 150}, {"note": 0, "velocity": 0, "duration": 90}, {"note": 71, "velocity": 96, "duration": 289}, {"note": 0, "velocity": 0, "duration": 191}, {"note": 76, "velocity": 97, "duration": 159}, {"note": 0, "velocity": 0, "duration": 81}, {"note": 78, "velocity": 94, "duration": 134}, {"note": 0, "velocity": 0, "duration": 106}, {"note": 80, "velocity": 96, "duration": 155}, {"note": 0, "velocity": 0, "duration": 85}, {"note": 80, "velocity": 96, "duration": 163}, {"note": 0, "velocity": 0, "duration": 77}, {"note": 81, "velocity": 92, "duration": 120}, {"note": 0, "velocity": 0, "duration": 120}, {"note": 81, "velocity": 94, "duration": 121}, {"note": 0, "velocity": 0, "duration": 119}, {"note": 81, "velocity": 92, "duration": 123}, {"note": 0, "velocity": 0, "duration": 117}, {"note": 81, "velocity": 96, "duration": 139}, {"note": 0, "velocity": 0, "duration": 101}, {"note": 73, "velocity": 93, "duration": 128}, {"note": 0, "velocity": 0, "duration": 112}, {"note": 73, "velocity": 94, "duration": 140}, {"note": 0, "velocity": 0, "duration": 100}, {"note": 81, "velocity": 93, "duration": 155}, {"note": 0, "velocity": 0, "duration": 85}, {"note": 80, "velocity": 94, "duration": 234}, {"note": 0, "velocity": 0, "duration": 246}, {"note": 78, "velocity": 96, "duration": 187}, {"note": 76, "velocity": 97, "duration": 273}, {"note": 0, "velocity": 0, "duration": 207}, {"note": 76, "velocity": 96, "duration": 147}, {"note": 0, "velocity": 0, "duration": 93}, {"note": 76, "velocity": 101, "duration": 126}, {"note": 0, "velocity": 0, "duration": 114}, {"note": 76, "velocity": 99, "duration": 130}, {"note": 0, "velocity": 0, "duration": 110}, {"note": 78, "velocity": 94, "duration": 369}, {"note": 0, "velocity": 0, "duration": 111}, {"note": 81, "velocity": 93, "duration": 170}, {"note": 0, "velocity": 0, "duration": 70}, {"note": 81, "velocity": 94, "duration": 255}, {"note": 0, "velocity": 0, "duration": 225}, {"note": 69, "velocity": 96, "duration": 112}, {"note": 0, "velocity": 0, "duration": 128}, {"note": 69, "velocity": 94, "duration": 148}, {"note": 0, "velocity": 0, "duration": 92}, {"note": 78, "velocity": 92, "duration": 177}, {"note": 0, "velocity": 0, "duration": 63}, {"note": 76, "velocity": 94, "duration": 330}, {"note": 0, "velocity": 0, "duration": 150}, {"note": 78, "velocity": 96, "duration": 181}, {"note": 73, "velocity": 93, "duration": 296}, {"note": 0, "velocity": 0, "duration": 184}, {"note": 69, "velocity": 98, "duration": 151}, {"note": 0, "velocity": 0, "duration": 89}, {"note": 71, "velocity": 94, "duration": 131}, {"note": 0, "velocity": 0, "duration": 109}, {"note": 73, "velocity": 94, "duration": 149}, {"note": 0, "velocity": 0, "duration": 91}, {"note": 74, "velocity": 93, "duration": 124}, {"note": 0, "velocity": 0, "duration": 116}, {"note": 74, "velocity": 96, "duration": 131}, {"note": 0, "velocity": 0, "duration": 109}, {"note": 74, "velocity": 103, "duration": 147}, {"note": 0, "velocity": 0, "duration": 93}, {"note": 73, "velocity": 97, "duration": 153}, {"note": 0, "velocity": 0, "duration": 87}, {"note": 74, "velocity": 98, "duration": 178}, {"note": 0, "velocity": 0, "duration": 62}, {"note": 81, "velocity": 92, "duration": 127}, {"note": 0, "velocity": 0, "duration": 113}, {"note": 80, "velocity": 97, "duration": 147}, {"note": 0, "velocity": 0, "duration": 93}, {"note": 81, "velocity": 93, "duration": 140}, {"note": 0, "velocity": 0, "duration": 100}, {"note": 80, "velocity": 98, "duration": 368}, {"note": 0, "velocity": 0, "duration": 112}, {"note": 78, "velocity": 94, "duration": 184}, {"note": 76, "velocity": 99, "duration": 310}, {"note": 0, "velocity": 0, "duration": 170}, {"note": 69, "velocity": 88, "duration": 119}, {"note": 0, "velocity": 0, "duration": 121}, {"note": 69, "velocity": 95, "duration": 127}, {"note": 0, "velocity": 0, "duration": 113}, {"note": 71, "velocity": 93, "duration": 140}, {"note": 0, "velocity": 0, "duration": 100}, {"note": 73, "velocity": 94, "duration": 168}, {"note": 0, "velocity": 0, "duration": 72}, {"note": 73, "velocity": 94, "duration": 131}, {"note": 0, "velocity": 0, "duration": 109}, {"note": 73, "velocity": 93, "duration": 123}, {"note": 0, "velocity": 0, "duration": 117}, {"note": 73, "velocity": 97, "duration": 136}, {"note": 0, "velocity": 0, "duration": 104}, {"note": 73, "velocity": 97, "duration": 143}, {"note": 0, "velocity": 0, "duration": 97}, {"note": 71, "velocity": 98, "duration": 127}, {"note": 0, "velocity": 0, "duration": 113}, {"note": 73, "velocity": 96, "duration": 135}, {"note": 0, "velocity": 0, "duration": 105}, {"note": 76, "velocity": 96, "duration": 138}, {"note": 0, "velocity": 0, "duration": 102}, {"note": 78, "velocity": 94, "duration": 321}, {"note": 0, "velocity": 0, "duration": 159}, {"note": 76, "velocity": 93, "duration": 179}, {"note": 0, "velocity": 0, "duration": 61}, {"note": 71, "velocity": 96, "duration": 296}, {"note": 0, "velocity": 0, "duration": 184}, {"note": 76, "velocity": 98, "duration": 147}, {"note": 0, "velocity": 0, "duration": 93}, {"note": 78, "velocity": 98, "duration": 167}, {"note": 0, "velocity": 0, "duration": 73}, {"note": 80, "velocity": 94, "duration": 138}, {"note": 0, "velocity": 0, "duration": 102}, {"note": 80, "velocity": 98, "duration": 118}, {"note": 0, "velocity": 0, "duration": 122}, {"note": 81, "velocity": 92, "duration": 127}, {"note": 0, "velocity": 0, "duration": 113}, {"note": 81, "velocity": 96, "duration": 121}, {"note": 0, "velocity": 0, "duration": 119}, {"note": 81, "velocity": 92, "duration": 135}, {"note": 0, "velocity": 0, "duration": 105}, {"note": 81, "velocity": 94, "duration": 137}, {"note": 0, "velocity": 0, "duration": 103}, {"note": 73, "velocity": 93, "duration": 158}, {"note": 0, "velocity": 0, "duration": 82}, {"note": 73, "velocity": 98, "duration": 140}, {"note": 0, "velocity": 0, "duration": 100}, {"note": 81, "velocity": 93, "duration": 135}, {"note": 0, "velocity": 0, "duration": 105}, {"note": 80, "velocity": 99, "duration": 322}, {"note": 0, "velocity": 0, "duration": 158}, {"note": 78, "velocity": 92, "duration": 138}, {"note": 0, "velocity": 0, "duration": 102}, {"note": 76, "velocity": 94, "duration": 249}, {"note": 0, "velocity": 0, "duration": 231}, {"note": 76, "velocity": 98, "duration": 104}, {"note": 0, "velocity": 0, "duration": 136}, {"note": 76, "velocity": 99, "duration": 116}, {"note": 0, "velocity": 0, "duration": 124}, {"note": 76, "velocity": 97, "duration": 138}, {"note": 0, "velocity": 0, "duration": 102}, {"note": 78, "velocity": 94, "duration": 333}, {"note": 0, "velocity": 0, "duration": 147}, {"note": 81, "velocity": 93, "duration": 163}, {"note": 0, "velocity": 0, "duration": 77}, {"note": 81, "velocity": 93, "duration": 237}, {"note": 0, "velocity": 0, "duration": 243}, {"note": 69, "velocity": 92, "duration": 131}, {"note": 0, "velocity": 0, "duration": 109}, {"note": 69, "velocity": 94, "duration": 143}, {"note": 0, "velocity": 0, "duration": 97}, {"note": 78, "velocity": 96, "duration": 175}, {"note": 0, "velocity": 0, "duration": 65}, {"note": 76, "velocity": 94, "duration": 337}, {"note": 0, "velocity": 0, "duration": 143}, {"note": 78, "velocity": 98, "duration": 168}, {"note": 0, "velocity": 0, "duration": 72}, {"note": 73, "velocity": 95, "duration": 304}, {"note": 0, "velocity": 0, "duration": 176}, {"note": 69, "velocity": 86, "duration": 184}, {"note": 71, "velocity": 93, "duration": 144}, {"note": 0, "velocity": 0, "duration": 96}, {"note": 73, "velocity": 94, "duration": 169}, {"note": 0, "velocity": 0, "duration": 71}, {"note": 74, "velocity": 97, "duration": 112}, {"note": 0, "velocity": 0, "duration": 128}, {"note": 74, "velocity": 95, "duration": 135}, {"note": 0, "velocity": 0, "duration": 105}, {"note": 74, "velocity": 98, "duration": 134}, {"note": 0, "velocity": 0, "duration": 106}, {"note": 73, "velocity": 92, "duration": 168}, {"note": 0, "velocity": 0, "duration": 72}, {"note": 74, "velocity": 99, "duration": 122}, {"note": 0, "velocity": 0, "duration": 118}, {"note": 81, "velocity": 94, "duration": 141}, {"note": 0, "velocity": 0, "duration": 99}, {"note": 80, "velocity": 99, "duration": 138}, {"note": 0, "velocity": 0, "duration": 102}, {"note": 81, "velocity": 96, "duration": 156}, {"note": 0, "velocity": 0, "duration": 84}, {"note": 80, "velocity": 98, "duration": 259}, {"note": 0, "velocity": 0, "duration": 221}, {"note": 78, "velocity": 95, "duration": 152}, {"note": 0, "velocity": 0, "duration": 88}, {"note": 76, "velocity": 96, "duration": 1295}, {"note": 0, "velocity": 0, "duration": 625}, {"note": 76, "velocity": 94, "duration": 107}, {"note": 0, "velocity": 0, "duration": 133}, {"note": 76, "velocity": 99, "duration": 152}, {"note": 0, "velocity": 0, "duration": 88}, {"note": 86, "velocity": 99, "duration": 135}, {"note": 0, "velocity": 0, "duration": 105}, {"note": 85, "velocity": 97, "duration": 177}, {"note": 0, "velocity": 0, "duration": 63}, {"note": 83, "velocity": 92, "duration": 156}, {"note": 0, "velocity": 0, "duration": 84}, {"note": 85, "velocity": 99, "duration": 574}, {"note": 0, "velocity": 0, "duration": 146}, {"note": 85, "velocity": 103, "duration": 240}, {"note": 0, "velocity": 0, "duration": 240}, {"note": 83, "velocity": 93, "duration": 166}, {"note": 0, "velocity": 0, "duration": 74}, {"note": 85, "velocity": 98, "duration": 150}, {"note": 0, "velocity": 0, "duration": 90}, {"note": 88, "velocity": 96, "duration": 108}, {"note": 0, "velocity": 0, "duration": 132}, {"note": 88, "velocity": 94, "duration": 352}, {"note": 0, "velocity": 0, "duration": 368}, {"note": 88, "velocity": 97, "duration": 137}, {"note": 0, "velocity": 0, "duration": 103}, {"note": 88, "velocity": 98, "duration": 162}, {"note": 0, "velocity": 0, "duration": 78}, {"note": 86, "velocity": 93, "duration": 147}, {"note": 0, "velocity": 0, "duration": 93}, {"note": 85, "velocity": 93, "duration": 167}, {"note": 0, "velocity": 0, "duration": 73}, {"note": 83, "velocity": 98, "duration": 139}, {"note": 0, "velocity": 0, "duration": 101}, {"note": 81, "velocity": 96, "duration": 360}, {"note": 0, "velocity": 0, "duration": 120}, {"note": 81, "velocity": 87, "duration": 137}, {"note": 0, "velocity": 0, "duration": 103}, {"note": 81, "velocity": 94, "duration": 131}, {"note": 0, "velocity": 0, "duration": 109}, {"note": 81, "velocity": 92, "duration": 147}, {"note": 0, "velocity": 0, "duration": 93}, {"note": 80, "velocity": 99, "duration": 143}, {"note": 0, "velocity": 0, "duration": 97}, {"note": 81, "velocity": 93, "duration": 157}, {"note": 0, "velocity": 0, "duration": 83}, {"note": 83, "velocity": 92, "duration": 175}, {"note": 0, "velocity": 0, "duration": 65}, {"note": 85, "velocity": 97, "duration": 385}, {"note": 0, "velocity": 0, "duration": 335}, {"note": 81, "velocity": 93, "duration": 172}, {"note": 0, "velocity": 0, "duration": 68}, {"note": 80, "velocity": 96, "duration": 163}, {"note": 0, "velocity": 0, "duration": 77}, {"note": 81, "velocity": 92, "duration": 112}, {"note": 0, "velocity": 0, "duration": 128}, {"note": 80, "velocity": 99, "duration": 144}, {"note": 0, "velocity": 0, "duration": 96}, {"note": 76, "velocity": 99, "duration": 149}, {"note": 0, "velocity": 0, "duration": 91}, {"note": 78, "velocity": 92, "duration": 547}, {"note": 0, "velocity": 0, "duration": 173}, {"note": 78, "velocity": 95, "duration": 178}, {"note": 0, "velocity": 0, "duration": 62}, {"note": 90, "velocity": 96, "duration": 197}, {"note": 88, "velocity": 98, "duration": 100}, {"note": 0, "velocity": 0, "duration": 140}, {"note": 88, "velocity": 98, "duration": 147}, {"note": 0, "velocity": 0, "duration": 93}, {"note": 86, "velocity": 99, "duration": 322}, {"note": 0, "velocity": 0, "duration": 158}, {"note": 85, "velocity": 87, "duration": 457}, {"note": 0, "velocity": 0, "duration": 503}, {"note": 81, "velocity": 92, "duration": 160}, {"note": 0, "velocity": 0, "duration": 80}, {"note": 83, "velocity": 94, "duration": 143}, {"note": 0, "velocity": 0, "duration": 97}, {"note": 85, "velocity": 99, "duration": 149}, {"note": 0, "velocity": 0, "duration": 91}, {"note": 86, "velocity": 95, "duration": 123}, {"note": 0, "velocity": 0, "duration": 117}, {"note": 85, "velocity": 96, "duration": 140}, {"note": 0, "velocity": 0, "duration": 100}, {"note": 86, "velocity": 96, "duration": 126}, {"note": 0, "velocity": 0, "duration": 114}, {"note": 85, "velocity": 98, "duration": 131}, {"note": 0, "velocity": 0, "duration": 109}, {"note": 86, "velocity": 96, "duration": 171}, {"note": 0, "velocity": 0, "duration": 69}, {"note": 88, "velocity": 95, "duration": 104}, {"note": 0, "velocity": 0, "duration": 136}, {"note": 85, "velocity": 97, "duration": 141}, {"note": 0, "velocity": 0, "duration": 99}, {"note": 81, "velocity": 93, "duration": 159}, {"note": 0, "velocity": 0, "duration": 81}, {"note": 83, "velocity": 94, "duration": 554}, {"note": 0, "velocity": 0, "duration": 166}, {"note": 76, "velocity": 99, "duration": 143}, {"note": 0, "velocity": 0, "duration": 97}, {"note": 76, "velocity": 98, "duration": 161}, {"note": 0, "velocity": 0, "duration": 79}, {"note": 86, "velocity": 97, "duration": 143}, {"note": 0, "velocity": 0, "duration": 97}, {"note": 85, "velocity": 98, "duration": 159}, {"note": 0, "velocity": 0, "duration": 81}, {"note": 83, "velocity": 93, "duration": 160}, {"note": 0, "velocity": 0, "duration": 80}, {"note": 85, "velocity": 99, "duration": 519}, {"note": 0, "velocity": 0, "duration": 201}, {"note": 85, "velocity": 101, "duration": 390}, {"note": 0, "velocity": 0, "duration": 90}, {"note": 83, "velocity": 96, "duration": 131}, {"note": 0, "velocity": 0, "duration": 109}, {"note": 85, "velocity": 94, "duration": 156}, {"note": 0, "velocity": 0, "duration": 84}, {"note": 90, "velocity": 99, "duration": 337}, {"note": 0, "velocity": 0, "duration": 143}, {"note": 88, "velocity": 97, "duration": 336}, {"note": 0, "velocity": 0, "duration": 144}, {"note": 88, "velocity": 99, "duration": 135}, {"note": 0, "velocity": 0, "duration": 105}, {"note": 88, "velocity": 96, "duration": 156}, {"note": 0, "velocity": 0, "duration": 84}, {"note": 86, "velocity": 92, "duration": 120}, {"note": 0, "velocity": 0, "duration": 120}, {"note": 85, "velocity": 99, "duration": 178}, {"note": 0, "velocity": 0, "duration": 62}, {"note": 83, "velocity": 96, "duration": 143}, {"note": 0, "velocity": 0, "duration": 97}, {"note": 81, "velocity": 94, "duration": 430}, {"note": 81, "velocity": 92, "duration": 167}, {"note": 0, "velocity": 0, "duration": 73}, {"note": 81, "velocity": 94, "duration": 153}, {"note": 0, "velocity": 0, "duration": 87}, {"note": 81, "velocity": 96, "duration": 211}, {"note": 80, "velocity": 99, "duration": 168}, {"note": 0, "velocity": 0, "duration": 72}, {"note": 81, "velocity": 88, "duration": 123}, {"note": 0, "velocity": 0, "duration": 117}, {"note": 83, "velocity": 92, "duration": 173}, {"note": 0, "velocity": 0, "duration": 67}, {"note": 85, "velocity": 96, "duration": 468}, {"note": 0, "velocity": 0, "duration": 252}, {"note": 81, "velocity": 93, "duration": 198}, {"note": 80, "velocity": 98, "duration": 159}, {"note": 0, "velocity": 0, "duration": 81}, {"note": 81, "velocity": 94, "duration": 118}, {"note": 0, "velocity": 0, "duration": 122}, {"note": 80, "velocity": 96, "duration": 143}, {"note": 0, "velocity": 0, "duration": 97}, {"note": 76, "velocity": 98, "duration": 163}, {"note": 0, "velocity": 0, "duration": 77}, {"note": 78, "velocity": 93, "duration": 539}, {"note": 0, "velocity": 0, "duration": 181}, {"note": 78, "velocity": 103, "duration": 141}, {"note": 0, "velocity": 0, "duration": 99}, {"note": 90, "velocity": 109, "duration": 172}, {"note": 0, "velocity": 0, "duration": 68}, {"note": 88, "velocity": 93, "duration": 131}, {"note": 0, "velocity": 0, "duration": 109}, {"note": 88, "velocity": 101, "duration": 130}, {"note": 0, "velocity": 0, "duration": 110}, {"note": 86, "velocity": 93, "duration": 368}, {"note": 0, "velocity": 0, "duration": 112}, {"note": 85, "velocity": 101, "duration": 716}, {"note": 0, "velocity": 0, "duration": 244}, {"note": 81, "velocity": 92, "duration": 171}, {"note": 0, "velocity": 0, "duration": 69}, {"note": 83, "velocity": 93, "duration": 146}, {"note": 0, "velocity": 0, "duration": 94}, {"note": 85, "velocity": 99, "duration": 153}, {"note": 0, "velocity": 0, "duration": 87}, {"note": 86, "velocity": 91, "duration": 139}, {"note": 0, "velocity": 0, "duration": 101}, {"note": 85, "velocity": 94, "duration": 143}, {"note": 0, "velocity": 0, "duration": 97}, {"note": 86, "velocity": 93, "duration": 136}, {"note": 0, "velocity": 0, "duration": 104}, {"note": 85, "velocity": 93, "duration": 139}, {"note": 0, "velocity": 0, "duration": 101}, {"note": 86, "velocity": 86, "duration": 203}, {"note": 88, "velocity": 96, "duration": 120}, {"note": 0, "velocity": 0, "duration": 120}, {"note": 85, "velocity": 94, "duration": 178}, {"note": 0, "velocity": 0, "duration": 62}, {"note": 81, "velocity": 93, "duration": 151}, {"note": 0, "velocity": 0, "duration": 89}, {"note": 83, "velocity": 93, "duration": 471}, {"note": 0, "velocity": 0, "duration": 249}, {"note": 76, "velocity": 93, "duration": 144}, {"note": 0, "velocity": 0, "duration": 96}, {"note": 86, "velocity": 94, "duration": 323}, {"note": 0, "velocity": 0, "duration": 157}, {"note": 85, "velocity": 96, "duration": 187}, {"note": 83, "velocity": 92, "duration": 378}, {"note": 0, "velocity": 0, "duration": 102}, {"note": 81, "velocity": 84, "duration": 1968}, {"note": 0, "velocity": 0, "duration": 12432}, {"note": 69, "velocity": 92, "duration": 115}, {"note": 0, "velocity": 0, "duration": 125}, {"note": 69, "velocity": 93, "duration": 159}, {"note": 0, "velocity": 0, "duration": 81}, {"note": 71, "velocity": 94, "duration": 147}, {"note": 0, "velocity": 0, "duration": 93}, {"note": 73, "velocity": 93, "duration": 166}, {"note": 0, "velocity": 0, "duration": 74}, {"note": 73, "velocity": 88, "duration": 128}, {"note": 0, "velocity": 0, "duration": 112}, {"note": 73, "velocity": 87, "duration": 128}, {"note": 0, "velocity": 0, "duration": 112}, {"note": 73, "velocity": 96, "duration": 138}, {"note": 0, "velocity": 0, "duration": 102}, {"note": 73, "velocity": 95, "duration": 139}, {"note": 0, "velocity": 0, "duration": 101}, {"note": 71, "velocity": 98, "duration": 134}, {"note": 0, "velocity": 0, "duration": 106}, {"note": 73, "velocity": 96, "duration": 159}, {"note": 0, "velocity": 0, "duration": 81}, {"note": 76, "velocity": 96, "duration": 112}, {"note": 0, "velocity": 0, "duration": 128}, {"note": 76, "velocity": 94, "duration": 307}, {"note": 0, "velocity": 0, "duration": 173}, {"note": 76, "velocity": 93, "duration": 150}, {"note": 0, "velocity": 0, "duration": 90}, {"note": 71, "velocity": 96, "duration": 289}, {"note": 0, "velocity": 0, "duration": 191}, {"note": 76, "velocity": 97, "duration": 159}, {"note": 0, "velocity": 0, "duration": 81}, {"note": 78, "velocity": 94, "duration": 134}, {"note": 0, "velocity": 0, "duration": 106}, {"note": 80, "velocity": 96, "duration": 155}, {"note": 0, "velocity": 0, "duration": 85}, {"note": 80, "velocity": 96, "duration": 163}, {"note": 0, "velocity": 0, "duration": 77}, {"note": 81, "velocity": 92, "duration": 120}, {"note": 0, "velocity": 0, "duration": 120}, {"note": 81, "velocity": 94, "duration": 121}, {"note": 0, "velocity": 0, "duration": 119}, {"note": 81, "velocity": 92, "duration": 123}, {"note": 0, "velocity": 0, "duration": 117}, {"note": 81, "velocity": 96, "duration": 139}, {"note": 0, "velocity": 0, "duration": 101}, {"note": 73, "velocity": 93, "duration": 128}, {"note": 0, "velocity": 0, "duration": 112}, {"note": 73, "velocity": 94, "duration": 140}, {"note": 0, "velocity": 0, "duration": 100}, {"note": 81, "velocity": 93, "duration": 155}, {"note": 0, "velocity": 0, "duration": 85}, {"note": 80, "velocity": 94, "duration": 234}, {"note": 0, "velocity": 0, "duration": 246}, {"note": 78, "velocity": 96, "duration": 187}, {"note": 76, "velocity": 97, "duration": 273}, {"note": 0, "velocity": 0, "duration": 207}, {"note": 76, "velocity": 96, "duration": 147}, {"note": 0, "velocity": 0, "duration": 93}, {"note": 76, "velocity": 101, "duration": 126}, {"note": 0, "velocity": 0, "duration": 114}, {"note": 76, "velocity": 99, "duration": 130}, {"note": 0, "velocity": 0, "duration": 110}, {"note": 78, "velocity": 94, "duration": 369}, {"note": 0, "velocity": 0, "duration": 111}, {"note": 81, "velocity": 93, "duration": 170}, {"note": 0, "velocity": 0, "duration": 70}, {"note": 81, "velocity": 94, "duration": 255}, {"note": 0, "velocity": 0, "duration": 225}, {"note": 69, "velocity": 96, "duration": 112}, {"note": 0, "velocity": 0, "duration": 128}, {"note": 69, "velocity": 94, "duration": 148}, {"note": 0, "velocity": 0, "duration": 92}, {"note": 78, "velocity": 92, "duration": 177}, {"note": 0, "velocity": 0, "duration": 63}, {"note": 76, "velocity": 94, "duration": 330}, {"note": 0, "velocity": 0, "duration": 150}, {"note": 78, "velocity": 96, "duration": 181}, {"note": 73, "velocity": 93, "duration": 296}, {"note": 0, "velocity": 0, "duration": 184}, {"note": 69, "velocity": 98, "duration": 151}, {"note": 0, "velocity": 0, "duration": 89}, {"note": 71, "velocity": 94, "duration": 131}, {"note": 0, "velocity": 0, "duration": 109}, {"note": 73, "velocity": 94, "duration": 149}, {"note": 0, "velocity": 0, "duration": 91}, {"note": 74, "velocity": 93, "duration": 124}, {"note": 0, "velocity": 0, "duration": 116}, {"note": 74, "velocity": 96, "duration": 131}, {"note": 0, "velocity": 0, "duration": 109}, {"note": 74, "velocity": 103, "duration": 147}, {"note": 0, "velocity": 0, "duration": 93}, {"note": 73, "velocity": 97, "duration": 153}, {"note": 0, "velocity": 0, "duration": 87}, {"note": 74, "velocity": 98, "duration": 178}, {"note": 0, "velocity": 0, "duration": 62}, {"note": 81, "velocity": 92, "duration": 127}, {"note": 0, "velocity": 0, "duration": 113}, {"note": 80, "velocity": 97, "duration": 147}, {"note": 0, "velocity": 0, "duration": 93}, {"note": 81, "velocity": 93, "duration": 140}, {"note": 0, "velocity": 0, "duration": 100}, {"note": 80, "velocity": 98, "duration": 368}, {"note": 0, "velocity": 0, "duration": 112}, {"note": 78, "velocity": 94, "duration": 184}, {"note": 76, "velocity": 99, "duration": 310}, {"note": 0, "velocity": 0, "duration": 170}, {"note": 69, "velocity": 88, "duration": 119}, {"note": 0, "velocity": 0, "duration": 121}, {"note": 69, "velocity": 95, "duration": 127}, {"note": 0, "velocity": 0, "duration": 113}, {"note": 71, "velocity": 93, "duration": 140}, {"note": 0, "velocity": 0, "duration": 100}, {"note": 73, "velocity": 94, "duration": 168}, {"note": 0, "velocity": 0, "duration": 72}, {"note": 73, "velocity": 94, "duration": 131}, {"note": 0, "velocity": 0, "duration": 109}, {"note": 73, "velocity": 93, "duration": 123}, {"note": 0, "velocity": 0, "duration": 117}, {"note": 73, "velocity": 97, "duration": 136}, {"note": 0, "velocity": 0, "duration": 104}, {"note": 73, "velocity": 97, "duration": 143}, {"note": 0, "velocity": 0, "duration": 97}, {"note": 71, "velocity": 98, "duration": 127}, {"note": 0, "velocity": 0, "duration": 113}, {"note": 73, "velocity": 96, "duration": 135}, {"note": 0, "velocity": 0, "duration": 105}, {"note": 76, "velocity": 96, "duration": 138}, {"note": 0, "velocity": 0, "duration": 102}, {"note": 78, "velocity": 94, "duration": 321}, {"note": 0, "velocity": 0, "duration": 159}, {"note": 76, "velocity": 93, "duration": 179}, {"note": 0, "velocity": 0, "duration": 61}, {"note": 71, "velocity": 96, "duration": 296}, {"note": 0, "velocity": 0, "duration": 184}, {"note": 76, "velocity": 98, "duration": 147}, {"note": 0, "velocity": 0, "duration": 93}, {"note": 78, "velocity": 98, "duration": 167}, {"note": 0, "velocity": 0, "duration": 73}, {"note": 80, "velocity": 94, "duration": 138}, {"note": 0, "velocity": 0, "duration": 102}, {"note": 80, "velocity": 98, "duration": 118}, {"note": 0, "velocity": 0, "duration": 122}, {"note": 81, "velocity": 92, "duration": 127}, {"note": 0, "velocity": 0, "duration": 113}, {"note": 81, "velocity": 96, "duration": 121}, {"note": 0, "velocity": 0, "duration": 119}, {"note": 81, "velocity": 92, "duration": 135}, {"note": 0, "velocity": 0, "duration": 105}, {"note": 81, "velocity": 94, "duration": 137}, {"note": 0, "velocity": 0, "duration": 103}, {"note": 73, "velocity": 93, "duration": 158}, {"note": 0, "velocity": 0, "duration": 82}, {"note": 73, "velocity": 98, "duration": 140}, {"note": 0, "velocity": 0, "duration": 100}, {"note": 81, "velocity": 93, "duration": 135}, {"note": 0, "velocity": 0, "duration": 105}, {"note": 80, "velocity": 99, "duration": 322}, {"note": 0, "velocity": 0, "duration": 158}, {"note": 78, "velocity": 92, "duration": 138}, {"note": 0, "velocity": 0, "duration": 102}, {"note": 76, "velocity": 94, "duration": 249}, {"note": 0, "velocity": 0, "duration": 231}, {"note": 76, "velocity": 98, "duration": 104}, {"note": 0, "velocity": 0, "duration": 136}, {"note": 76, "velocity": 99, "duration": 116}, {"note": 0, "velocity": 0, "duration": 124}, {"note": 76, "velocity": 97, "duration": 138}, {"note": 0, "velocity": 0, "duration": 102}, {"note": 78, "velocity": 94, "duration": 333}, {"note": 0, "velocity": 0, "duration": 147}, {"note": 81, "velocity": 93, "duration": 163}, {"note": 0, "velocity": 0, "duration": 77}, {"note": 81, "velocity": 93, "duration": 237}, {"note": 0, "velocity": 0, "duration": 243}, {"note": 69, "velocity": 92, "duration": 131}, {"note": 0, "velocity": 0, "duration": 109}, {"note": 69, "velocity": 94, "duration": 143}, {"note": 0, "velocity": 0, "duration": 97}, {"note": 78, "velocity": 96, "duration": 175}, {"note": 0, "velocity": 0, "duration": 65}, {"note": 76, "velocity": 94, "duration": 337}, {"note": 0, "velocity": 0, "duration": 143}, {"note": 78, "velocity": 98, "duration": 168}, {"note": 0, "velocity": 0, "duration": 72}, {"note": 73, "velocity": 95, "duration": 304}, {"note": 0, "velocity": 0, "duration": 176}, {"note": 69, "velocity": 86, "duration": 184}, {"note": 71, "velocity": 93, "duration": 144}, {"note": 0, "velocity": 0, "duration": 96}, {"note": 73, "velocity": 94, "duration": 169}, {"note": 0, "velocity": 0, "duration": 71}, {"note": 74, "velocity": 97, "duration": 112}, {"note": 0, "velocity": 0, "duration": 128}, {"note": 74, "velocity": 95, "duration": 135}, {"note": 0, "velocity": 0, "duration": 105}, {"note": 74, "velocity": 98, "duration": 134}, {"note": 0, "velocity": 0, "duration": 106}, {"note": 73, "velocity": 92, "duration": 168}, {"note": 0, "velocity": 0, "duration": 72}, {"note": 74, "velocity": 99, "duration": 122}, {"note": 0, "velocity": 0, "duration": 118}, {"note": 81, "velocity": 94, "duration": 141}, {"note": 0, "velocity": 0, "duration": 99}, {"note": 80, "velocity": 99, "duration": 138}, {"note": 0, "velocity": 0, "duration": 102}, {"note": 81, "velocity": 96, "duration": 156}, {"note": 0, "velocity": 0, "duration": 84}, {"note": 80, "velocity": 98, "duration": 259}, {"note": 0, "velocity": 0, "duration": 221}, {"note": 78, "velocity": 95, "duration": 152}, {"note": 0, "velocity": 0, "duration": 88}, {"note": 76, "velocity": 96, "duration": 1295}, {"note": 0, "velocity": 0, "duration": 625}, {"note": 76, "velocity": 94, "duration": 107}, {"note": 0, "velocity": 0, "duration": 133}, {"note": 76, "velocity": 99, "duration": 152}, {"note": 0, "velocity": 0, "duration": 88}, {"note": 86, "velocity": 99, "duration": 135}, {"note": 0, "velocity": 0, "duration": 105}, {"note": 85, "velocity": 97, "duration": 177}, {"note": 0, "velocity": 0, "duration": 63}, {"note": 83, "velocity": 92, "duration": 156}, {"note": 0, "velocity": 0, "duration": 84}, {"note": 85, "velocity": 99, "duration": 574}, {"note": 0, "velocity": 0, "duration": 146}, {"note": 85, "velocity": 103, "duration": 240}, {"note": 0, "velocity": 0, "duration": 240}, {"note": 83, "velocity": 93, "duration": 166}, {"note": 0, "velocity": 0, "duration": 74}, {"note": 85, "velocity": 98, "duration": 150}, {"note": 0, "velocity": 0, "duration": 90}, {"note": 88, "velocity": 96, "duration": 108}, {"note": 0, "velocity": 0, "duration": 132}, {"note": 88, "velocity": 94, "duration": 352}, {"note": 0, "velocity": 0, "duration": 368}, {"note": 88, "velocity": 97, "duration": 137}, {"note": 0, "velocity": 0, "duration": 103}, {"note": 88, "velocity": 98, "duration": 162}, {"note": 0, "velocity": 0, "duration": 78}, {"note": 86, "velocity": 93, "duration": 147}, {"note": 0, "velocity": 0, "duration": 93}, {"note": 85, "velocity": 93, "duration": 167}, {"note": 0, "velocity": 0, "duration": 73}, {"note": 83, "velocity": 98, "duration": 139}, {"note": 0, "velocity": 0, "duration": 101}, {"note": 81, "velocity": 96, "duration": 360}, {"note": 0, "velocity": 0, "duration": 120}, {"note": 81, "velocity": 87, "duration": 137}, {"note": 0, "velocity": 0, "duration": 103}, {"note": 81, "velocity": 94, "duration": 131}, {"note": 0, "velocity": 0, "duration": 109}, {"note": 81, "velocity": 92, "duration": 147}, {"note": 0, "velocity": 0, "duration": 93}, {"note": 80, "velocity": 99, "duration": 143}, {"note": 0, "velocity": 0, "duration": 97}, {"note": 81, "velocity": 93, "duration": 157}, {"note": 0, "velocity": 0, "duration": 83}, {"note": 83, "velocity": 92, "duration": 175}, {"note": 0, "velocity": 0, "duration": 65}, {"note": 85, "velocity": 97, "duration": 385}, {"note": 0, "velocity": 0, "duration": 335}, {"note": 81, "velocity": 93, "duration": 172}, {"note": 0, "velocity": 0, "duration": 68}, {"note": 80, "velocity": 96, "duration": 163}, {"note": 0, "velocity": 0, "duration": 77}, {"note": 81, "velocity": 92, "duration": 112}, {"note": 0, "velocity": 0, "duration": 128}, {"note": 80, "velocity": 99, "duration": 144}, {"note": 0, "velocity": 0, "duration": 96}, {"note": 76, "velocity": 99, "duration": 149}, {"note": 0, "velocity": 0, "duration": 91}, {"note": 78, "velocity": 92, "duration": 547}, {"note": 0, "velocity": 0, "duration": 173}, {"note": 78, "velocity": 95, "duration": 178}, {"note": 0, "velocity": 0, "duration": 62}, {"note": 90, "velocity": 96, "duration": 197}, {"note": 88, "velocity": 98, "duration": 100}, {"note": 0, "velocity": 0, "duration": 140}, {"note": 88, "velocity": 98, "duration": 147}, {"note": 0, "velocity": 0, "duration": 93}, {"note": 86, "velocity": 99, "duration": 322}, {"note": 0, "velocity": 0, "duration": 158}, {"note": 85, "velocity": 87, "duration": 457}, {"note": 0, "velocity": 0, "duration": 503}, {"note": 81, "velocity": 92, "duration": 160}, {"note": 0, "velocity": 0, "duration": 80}, {"note": 83, "velocity": 94, "duration": 143}, {"note": 0, "velocity": 0, "duration": 97}, {"note": 85, "velocity": 99, "duration": 149}, {"note": 0, "velocity": 0, "duration": 91}, {"note": 86, "velocity": 95, "duration": 123}, {"note": 0, "velocity": 0, "duration": 117}, {"note": 85, "velocity": 96, "duration": 140}, {"note": 0, "velocity": 0, "duration": 100}, {"note": 86, "velocity": 96, "duration": 126}, {"note": 0, "velocity": 0, "duration": 114}, {"note": 85, "velocity": 98, "duration": 131}, {"note": 0, "velocity": 0, "duration": 109}, {"note": 86, "velocity": 96, "duration": 171}, {"note": 0, "velocity": 0, "duration": 69}, {"note": 88, "velocity": 95, "duration": 104}, {"note": 0, "velocity": 0, "duration": 136}, {"note": 85, "velocity": 97, "duration": 141}, {"note": 0, "velocity": 0, "duration": 99}, {"note": 81, "velocity": 93, "duration": 159}, {"note": 0, "velocity": 0, "duration": 81}, {"note": 83, "velocity": 94, "duration": 554}, {"note": 0, "velocity": 0, "duration": 166}, {"note": 76, "velocity": 99, "duration": 143}, {"note": 0, "velocity": 0, "duration": 97}, {"note": 76, "velocity": 98, "duration": 161}, {"note": 0, "velocity": 0, "duration": 79}, {"note": 86, "velocity": 97, "duration": 143}, {"note": 0, "velocity": 0, "duration": 97}, {"note": 85, "velocity": 98, "duration": 159}, {"note": 0, "velocity": 0, "duration": 81}, {"note": 83, "velocity": 93, "duration": 160}, {"note": 0, "velocity": 0, "duration": 80}, {"note": 85, "velocity": 99, "duration": 519}, {"note": 0, "velocity": 0, "duration": 201}, {"note": 85, "velocity": 101, "duration": 390}, {"note": 0, "velocity": 0, "duration": 90}, {"note": 83, "velocity": 96, "duration": 131}, {"note": 0, "velocity": 0, "duration": 109}, {"note": 85, "velocity": 94, "duration": 156}, {"note": 0, "velocity": 0, "duration": 84}, {"note": 90, "velocity": 99, "duration": 337}, {"note": 0, "velocity": 0, "duration": 143}, {"note": 88, "velocity": 97, "duration": 336}, {"note": 0, "velocity": 0, "duration": 144}, {"note": 88, "velocity": 99, "duration": 135}, {"note": 0, "velocity": 0, "duration": 105}, {"note": 88, "velocity": 96, "duration": 156}, {"note": 0, "velocity": 0, "duration": 84}, {"note": 86, "velocity": 92, "duration": 120}, {"note": 0, "velocity": 0, "duration": 120}, {"note": 85, "velocity": 99, "duration": 178}, {"note": 0, "velocity": 0, "duration": 62}, {"note": 83, "velocity": 96, "duration": 143}, {"note": 0, "velocity": 0, "duration": 97}, {"note": 81, "velocity": 94, "duration": 430}, {"note": 81, "velocity": 92, "duration": 167}, {"note": 0, "velocity": 0, "duration": 73}, {"note": 81, "velocity": 94, "duration": 153}, {"note": 0, "velocity": 0, "duration": 87}, {"note": 81, "velocity": 96, "duration": 211}, {"note": 80, "velocity": 99, "duration": 168}, {"note": 0, "velocity": 0, "duration": 72}, {"note": 81, "velocity": 88, "duration": 123}, {"note": 0, "velocity": 0, "duration": 117}, {"note": 83, "velocity": 92, "duration": 173}, {"note": 0, "velocity": 0, "duration": 67}, {"note": 85, "velocity": 96, "duration": 468}, {"note": 0, "velocity": 0, "duration": 252}, {"note": 81, "velocity": 93, "duration": 198}, {"note": 80, "velocity": 98, "duration": 159}, {"note": 0, "velocity": 0, "duration": 81}, {"note": 81, "velocity": 94, "duration": 118}, {"note": 0, "velocity": 0, "duration": 122}, {"note": 80, "velocity": 96, "duration": 143}, {"note": 0, "velocity": 0, "duration": 97}, {"note": 76, "velocity": 98, "duration": 163}, {"note": 0, "velocity": 0, "duration": 77}, {"note": 78, "velocity": 93, "duration": 539}, {"note": 0, "velocity": 0, "duration": 181}, {"note": 78, "velocity": 103, "duration": 141}, {"note": 0, "velocity": 0, "duration": 99}, {"note": 90, "velocity": 109, "duration": 172}, {"note": 0, "velocity": 0, "duration": 68}, {"note": 88, "velocity": 93, "duration": 131}, {"note": 0, "velocity": 0, "duration": 109}, {"note": 88, "velocity": 101, "duration": 130}, {"note": 0, "velocity": 0, "duration": 110}, {"note": 86, "velocity": 93, "duration": 368}, {"note": 0, "velocity": 0, "duration": 112}, {"note": 85, "velocity": 101, "duration": 716}, {"note": 0, "velocity": 0, "duration": 244}, {"note": 81, "velocity": 92, "duration": 171}, {"note": 0, "velocity": 0, "duration": 69}, {"note": 83, "velocity": 93, "duration": 146}, {"note": 0, "velocity": 0, "duration": 94}, {"note": 85, "velocity": 99, "duration": 153}, {"note": 0, "velocity": 0, "duration": 87}, {"note": 86, "velocity": 91, "duration": 139}, {"note": 0, "velocity": 0, "duration": 101}, {"note": 85, "velocity": 94, "duration": 143}, {"note": 0, "velocity": 0, "duration": 97}, {"note": 86, "velocity": 93, "duration": 136}, {"note": 0, "velocity": 0, "duration": 104}, {"note": 85, "velocity": 93, "duration": 139}, {"note": 0, "velocity": 0, "duration": 101}, {"note": 86, "velocity": 86, "duration": 203}, {"note": 88, "velocity": 96, "duration": 120}, {"note": 0, "velocity": 0, "duration": 120}, {"note": 85, "velocity": 94, "duration": 178}, {"note": 0, "velocity": 0, "duration": 62}, {"note": 81, "velocity": 93, "duration": 151}, {"note": 0, "velocity": 0, "duration": 89}, {"note": 83, "velocity": 93, "duration": 471}, {"note": 0, "velocity": 0, "duration": 249}, {"note": 76, "velocity": 94, "duration": 107}, {"note": 0, "velocity": 0, "duration": 133}, {"note": 76, "velocity": 99, "duration": 152}, {"note": 0, "velocity": 0, "duration": 88}, {"note": 86, "velocity": 99, "duration": 135}, {"note": 0, "velocity": 0, "duration": 105}, {"note": 85, "velocity": 97, "duration": 177}, {"note": 0, "velocity": 0, "duration": 63}, {"note": 83, "velocity": 92, "duration": 156}, {"note": 0, "velocity": 0, "duration": 84}, {"note": 85, "velocity": 99, "duration": 574}, {"note": 0, "velocity": 0, "duration": 146}, {"note": 85, "velocity": 103, "duration": 240}, {"note": 0, "velocity": 0, "duration": 240}, {"note": 83, "velocity": 93, "duration": 166}, {"note": 0, "velocity": 0, "duration": 74}, {"note": 85, "velocity": 98, "duration": 150}, {"note": 0, "velocity": 0, "duration": 90}, {"note": 88, "velocity": 96, "duration": 108}, {"note": 0, "velocity": 0, "duration": 132}, {"note": 88, "velocity": 94, "duration": 352}, {"note": 0, "velocity": 0, "duration": 368}, {"note": 88, "velocity": 97, "duration": 137}, {"note": 0, "velocity": 0, "duration": 103}, {"note": 88, "velocity": 98, "duration": 162}, {"note": 0, "velocity": 0, "duration": 78}, {"note": 86, "velocity": 93, "duration": 147}, {"note": 0, "velocity": 0, "duration": 93}, {"note": 85, "velocity": 93, "duration": 167}, {"note": 0, "velocity": 0, "duration": 73}, {"note": 83, "velocity": 98, "duration": 139}, {"note": 0, "velocity": 0, "duration": 101}, {"note": 81, "velocity": 96, "duration": 360}, {"note": 0, "velocity": 0, "duration": 120}, {"note": 81, "velocity": 87, "duration": 137}, {"note": 0, "velocity": 0, "duration": 103}, {"note": 81, "velocity": 94, "duration": 131}, {"note": 0, "velocity": 0, "duration": 109}, {"note": 81, "velocity": 92, "duration": 147}, {"note": 0, "velocity": 0, "duration": 93}, {"note": 80, "velocity": 99, "duration": 143}, {"note": 0, "velocity": 0, "duration": 97}, {"note": 81, "velocity": 93, "duration": 157}, {"note": 0, "velocity": 0, "duration": 83}, {"note": 83, "velocity": 92, "duration": 175}, {"note": 0, "velocity": 0, "duration": 65}, {"note": 85, "velocity": 97, "duration": 385}, {"note": 0, "velocity": 0, "duration": 335}, {"note": 81, "velocity": 93, "duration": 172}, {"note": 0, "velocity": 0, "duration": 68}, {"note": 80, "velocity": 96, "duration": 163}, {"note": 0, "velocity": 0, "duration": 77}, {"note": 81, "velocity": 92, "duration": 112}, {"note": 0, "velocity": 0, "duration": 128}, {"note": 80, "velocity": 99, "duration": 144}, {"note": 0, "velocity": 0, "duration": 96}, {"note": 76, "velocity": 99, "duration": 149}, {"note": 0, "velocity": 0, "duration": 91}, {"note": 78, "velocity": 92, "duration": 547}, {"note": 0, "velocity": 0, "duration": 173}, {"note": 78, "velocity": 95, "duration": 178}, {"note": 0, "velocity": 0, "duration": 62}, {"note": 90, "velocity": 96, "duration": 197}, {"note": 88, "velocity": 98, "duration": 100}, {"note": 0, "velocity": 0, "duration": 140}, {"note": 88, "velocity": 98, "duration": 147}, {"note": 0, "velocity": 0, "duration": 93}, {"note": 86, "velocity": 99, "duration": 322}, {"note": 0, "velocity": 0, "duration": 158}, {"note": 85, "velocity": 87, "duration": 457}, {"note": 0, "velocity": 0, "duration": 503}, {"note": 81, "velocity": 92, "duration": 160}, {"note": 0, "velocity": 0, "duration": 80}, {"note": 83, "velocity": 94, "duration": 143}, {"note": 0, "velocity": 0, "duration": 97}, {"note": 85, "velocity": 99, "duration": 149}, {"note": 0, "velocity": 0, "duration": 91}, {"note": 86, "velocity": 95, "duration": 123}, {"note": 0, "velocity": 0, "duration": 117}, {"note": 85, "velocity": 96, "duration": 140}, {"note": 0, "velocity": 0, "duration": 100}, {"note": 86, "velocity": 96, "duration": 126}, {"note": 0, "velocity": 0, "duration": 114}, {"note": 85, "velocity": 98, "duration": 131}, {"note": 0, "velocity": 0, "duration": 109}, {"note": 86, "velocity": 96, "duration": 171}, {"note": 0, "velocity": 0, "duration": 69}, {"note": 88, "velocity": 95, "duration": 104}, {"note": 0, "velocity": 0, "duration": 136}, {"note": 85, "velocity": 97, "duration": 141}, {"note": 0, "velocity": 0, "duration": 99}, {"note": 81, "velocity": 93, "duration": 159}, {"note": 0, "velocity": 0, "duration": 81}, {"note": 83, "velocity": 94, "duration": 554}, {"note": 0, "velocity": 0, "duration": 166}, {"note": 76, "velocity": 99, "duration": 143}, {"note": 0, "velocity": 0, "duration": 97}, {"note": 76, "velocity": 98, "duration": 161}, {"note": 0, "velocity": 0, "duration": 79}, {"note": 86, "velocity": 97, "duration": 143}, {"note": 0, "velocity": 0, "duration": 97}, {"note": 85, "velocity": 98, "duration": 159}, {"note": 0, "velocity": 0, "duration": 81}, {"note": 83, "velocity": 93, "duration": 160}, {"note": 0, "velocity": 0, "duration": 80}, {"note": 85, "velocity": 99, "duration": 519}, {"note": 0, "velocity": 0, "duration": 201}, {"note": 85, "velocity": 101, "duration": 390}, {"note": 0, "velocity": 0, "duration": 90}, {"note": 83, "velocity": 96, "duration": 131}, {"note": 0, "velocity": 0, "duration": 109}, {"note": 85, "velocity": 94, "duration": 156}, {"note": 0, "velocity": 0, "duration": 84}, {"note": 90, "velocity": 99, "duration": 337}, {"note": 0, "velocity": 0, "duration": 143}, {"note": 88, "velocity": 97, "duration": 336}, {"note": 0, "velocity": 0, "duration": 144}, {"note": 88, "velocity": 99, "duration": 135}, {"note": 0, "velocity": 0, "duration": 105}, {"note": 88, "velocity": 96, "duration": 156}, {"note": 0, "velocity": 0, "duration": 84}, {"note": 86, "velocity": 92, "duration": 120}, {"note": 0, "velocity": 0, "duration": 120}, {"note": 85, "velocity": 99, "duration": 178}, {"note": 0, "velocity": 0, "duration": 62}, {"note": 83, "velocity": 96, "duration": 143}, {"note": 0, "velocity": 0, "duration": 97}, {"note": 81, "velocity": 94, "duration": 430}, {"note": 81, "velocity": 92, "duration": 167}, {"note": 0, "velocity": 0, "duration": 73}, {"note": 81, "velocity": 94, "duration": 153}, {"note": 0, "velocity": 0, "duration": 87}, {"note": 81, "velocity": 96, "duration": 211}, {"note": 80, "velocity": 99, "duration": 168}, {"note": 0, "velocity": 0, "duration": 72}, {"note": 81, "velocity": 88, "duration": 123}, {"note": 0, "velocity": 0, "duration": 117}, {"note": 83, "velocity": 92, "duration": 173}, {"note": 0, "velocity": 0, "duration": 67}, {"note": 85, "velocity": 96, "duration": 468}, {"note": 0, "velocity": 0, "duration": 252}, {"note": 81, "velocity": 93, "duration": 198}, {"note": 80, "velocity": 98, "duration": 159}, {"note": 0, "velocity": 0, "duration": 81}, {"note": 81, "velocity": 94, "duration": 118}, {"note": 0, "velocity": 0, "duration": 122}, {"note": 80, "velocity": 96, "duration": 143}, {"note": 0, "velocity": 0, "duration": 97}, {"note": 76, "velocity": 98, "duration": 163}, {"note": 0, "velocity": 0, "duration": 77}, {"note": 78, "velocity": 93, "duration": 539}, {"note": 0, "velocity": 0, "duration": 181}, {"note": 78, "velocity": 103, "duration": 141}, {"note": 0, "velocity": 0, "duration": 99}, {"note": 90, "velocity": 109, "duration": 172}, {"note": 0, "velocity": 0, "duration": 68}, {"note": 88, "velocity": 93, "duration": 131}, {"note": 0, "velocity": 0, "duration": 109}, {"note": 88, "velocity": 101, "duration": 130}, {"note": 0, "velocity": 0, "duration": 110}, {"note": 86, "velocity": 93, "duration": 368}, {"note": 0, "velocity": 0, "duration": 112}, {"note": 85, "velocity": 101, "duration": 716}, {"note": 0, "velocity": 0, "duration": 244}, {"note": 81, "velocity": 92, "duration": 171}, {"note": 0, "velocity": 0, "duration": 69}, {"note": 83, "velocity": 93, "duration": 146}, {"note": 0, "velocity": 0, "duration": 94}, {"note": 85, "velocity": 99, "duration": 153}, {"note": 0, "velocity": 0, "duration": 87}, {"note": 86, "velocity": 91, "duration": 139}, {"note": 0, "velocity": 0, "duration": 101}, {"note": 85, "velocity": 94, "duration": 143}, {"note": 0, "velocity": 0, "duration": 97}, {"note": 86, "velocity": 93, "duration": 136}, {"note": 0, "velocity": 0, "duration": 104}, {"note": 85, "velocity": 93, "duration": 139}, {"note": 0, "velocity": 0, "duration": 101}, {"note": 86, "velocity": 86, "duration": 203}, {"note": 88, "velocity": 96, "duration": 120}, {"note": 0, "velocity": 0, "duration": 120}, {"note": 85, "velocity": 94, "duration": 178}, {"note": 0, "velocity": 0, "duration": 62}, {"note": 81, "velocity": 93, "duration": 151}, {"note": 0, "velocity": 0, "duration": 89}, {"note": 83, "velocity": 93, "duration": 471}, {"note": 0, "velocity": 0, "duration": 249}, {"note": 76, "velocity": 93, "duration": 144}, {"note": 0, "velocity": 0, "duration": 96}, {"note": 86, "velocity": 94, "duration": 323}, {"note": 0, "velocity": 0, "duration": 157}, {"note": 85, "velocity": 96, "duration": 187}, {"note": 83, "velocity": 92, "duration": 378}, {"note": 0, "velocity": 0, "duration": 102}, {"note": 81, "velocity": 84, "duration": 1968}]]