[[{"note": 75, "velocity": 90, "duration": 88}, {"note": 73, "velocity": 96, "duration": 74}, {"note": 75, "velocity": 92, "duration": 185}, {"note": 73, "velocity": 96, "duration": 56}, {"note": 0, "velocity": 0, "duration": 64}, {"note": 75, "velocity": 92, "duration": 395}, {"note": 0, "velocity": 0, "duration": 205}, {"note": 73, "velocity": 91, "duration": 172}, {"note": 0, "velocity": 0, "duration": 68}, {"note": 71, "velocity": 86, "duration": 161}, {"note": 0, "velocity": 0, "duration": 79}, {"note": 73, "velocity": 92, "duration": 178}, {"note": 0, "velocity": 0, "duration": 62}, {"note": 71, "velocity": 88, "duration": 500}, {"note": 0, "velocity": 0, "duration": 940}, {"note": 73, "velocity": 96, "duration": 96}, {"note": 0, "velocity": 0, "duration": 144}, {"note": 75, "velocity": 89, "duration": 89}, {"note": 73, "velocity": 92, "duration": 61}, {"note": 75, "velocity": 89, "duration": 77}, {"note": 73, "velocity": 86, "duration": 74}, {"note": 75, "velocity": 92, "duration": 163}, {"note": 0, "velocity": 0, "duration": 77}, {"note": 78, "velocity": 86, "duration": 165}, {"note": 0, "velocity": 0, "duration": 315}, {"note": 76, "velocity": 86, "duration": 179}, {"note": 0, "velocity": 0, "duration": 61}, {"note": 75, "velocity": 92, "duration": 136}, {"note": 0, "velocity": 0, "duration": 104}, {"note": 73, "velocity": 92, "duration": 68}, {"note": 76, "velocity": 90, "duration": 321}, {"note": 75, "velocity": 88, "duration": 738}, {"note": 0, "velocity": 0, "duration": 1182}, {"note": 78, "velocity": 87, "duration": 78}, {"note": 80, "velocity": 87, "duration": 64}, {"note": 80, "velocity": 88, "duration": 149}, {"note": 0, "velocity": 0, "duration": 91}, {"note": 80, "velocity": 91, "duration": 70}, {"note": 78, "velocity": 92, "duration": 305}, {"note": 71, "velocity": 91, "duration": 308}, {"note": 0, "velocity": 0, "duration": 892}, {"note": 73, "velocity": 91, "duration": 316}, {"note": 75, "velocity": 86, "duration": 74}, {"note": 73, "velocity": 92, "duration": 184}, {"note": 71, "velocity": 87, "duration": 236}, {"note": 0, "velocity": 0, "duration": 124}, {"note": 73, "velocity": 96, "duration": 53}, {"note": 0, "velocity": 0, "duration": 67}, {"note": 73, "velocity": 99, "duration": 65}, {"note": 75, "velocity": 89, "duration": 64}, {"note": 76, "velocity": 88, "duration": 161}, {"note": 0, "velocity": 0, "duration": 79}, {"note": 78, "velocity": 89, "duration": 165}, {"note": 0, "velocity": 0, "duration": 75}, {"note": 76, "velocity": 87, "duration": 173}, {"note": 0, "velocity": 0, "duration": 67}, {"note": 75, "velocity": 94, "duration": 169}, {"note": 0, "velocity": 0, "duration": 71}, {"note": 75, "velocity": 91, "duration": 274}, {"note": 0, "velocity": 0, "duration": 86}, {"note": 71, "velocity": 86, "duration": 193}, {"note": 0, "velocity": 0, "duration": 167}, {"note": 71, "velocity": 92, "duration": 375}, {"note": 0, "velocity": 0, "duration": 105}, {"note": 73, "velocity": 91, "duration": 542}, {"note": 0, "velocity": 0, "duration": 1378}, {"note": 75, "velocity": 90, "duration": 88}, {"note": 73, "velocity": 96, "duration": 74}, {"note": 75, "velocity": 92, "duration": 185}, {"note": 73, "velocity": 96, "duration": 56}, {"note": 0, "velocity": 0, "duration": 64}, {"note": 75, "velocity": 92, "duration": 395}, {"note": 0, "velocity": 0, "duration": 205}, {"note": 73, "velocity": 91, "duration": 120}, {"note": 0, "velocity": 0, "duration": 120}, {"note": 73, "velocity": 91, "duration": 120}, {"note": 71, "velocity": 86, "duration": 120}, {"note": 73, "velocity": 92, "duration": 178}, {"note": 0, "velocity": 0, "duration": 62}, {"note": 71, "velocity": 88, "duration": 500}, {"note": 0, "velocity": 0, "duration": 940}, {"note": 73, "velocity": 96, "duration": 96}, {"note": 0, "velocity": 0, "duration": 144}, {"note": 75, "velocity": 89, "duration": 89}, {"note": 73, "velocity": 92, "duration": 61}, {"note": 75, "velocity": 89, "duration": 77}, {"note": 73, "velocity": 86, "duration": 74}, {"note": 75, "velocity": 92, "duration": 163}, {"note": 0, "velocity": 0, "duration": 77}, {"note": 78, "velocity": 86, "duration": 165}, {"note": 0, "velocity": 0, "duration": 315}, {"note": 76, "velocity": 86, "duration": 179}, {"note": 0, "velocity": 0, "duration": 61}, {"note": 75, "velocity": 92, "duration": 136}, {"note": 0, "velocity": 0, "duration": 104}, {"note": 73, "velocity": 92, "duration": 68}, {"note": 76, "velocity": 90, "duration": 321}, {"note": 75, "velocity": 88, "duration": 738}, {"note": 0, "velocity": 0, "duration": 1182}, {"note": 78, "velocity": 87, "duration": 78}, {"note": 80, "velocity": 87, "duration": 64}, {"note": 80, "velocity": 88, "duration": 149}, {"note": 0, "velocity": 0, "duration": 91}, {"note": 80, "velocity": 91, "duration": 70}, {"note": 78, "velocity": 92, "duration": 305}, {"note": 71, "velocity": 91, "duration": 308}, {"note": 0, "velocity": 0, "duration": 892}, {"note": 73, "velocity": 91, "duration": 316}, {"note": 75, "velocity": 86, "duration": 74}, {"note": 73, "velocity": 92, "duration": 184}, {"note": 71, "velocity": 87, "duration": 236}, {"note": 0, "velocity": 0, "duration": 124}, {"note": 73, "velocity": 96, "duration": 53}, {"note": 0, "velocity": 0, "duration": 67}, {"note": 75, "velocity": 99, "duration": 65}, {"note": 76, "velocity": 89, "duration": 64}, {"note": 78, "velocity": 88, "duration": 161}, {"note": 0, "velocity": 0, "duration": 79}, {"note": 83, "velocity": 89, "duration": 120}, {"note": 83, "velocity": 89, "duration": 240}, {"note": 0, "velocity": 0, "duration": 120}, {"note": 78, "velocity": 87, "duration": 120}, {"note": 78, "velocity": 94, "duration": 120}, {"note": 80, "velocity": 91, "duration": 120}, {"note": 78, "velocity": 91, "duration": 120}, {"note": 78, "velocity": 91, "duration": 240}, {"note": 75, "velocity": 92, "duration": 189}, {"note": 73, "velocity": 91, "duration": 151}, {"note": 0, "velocity": 0, "duration": 89}, {"note": 73, "velocity": 99, "duration": 204}, {"note": 71, "velocity": 87, "duration": 979}, {"note": 0, "velocity": 0, "duration": 1421}, {"note": 75, "velocity": 96, "duration": 179}, {"note": 0, "velocity": 0, "duration": 61}, {"note": 75, "velocity": 96, "duration": 179}, {"note": 0, "velocity": 0, "duration": 61}, {"note": 76, "velocity": 89, "duration": 176}, {"note": 0, "velocity": 0, "duration": 64}, {"note": 78, "velocity": 91, "duration": 161}, {"note": 0, "velocity": 0, "duration": 79}, {"note": 80, "velocity": 87, "duration": 157}, {"note": 0, "velocity": 0, "duration": 83}, {"note": 78, "velocity": 89, "duration": 365}, {"note": 0, "velocity": 0, "duration": 115}, {"note": 83, "velocity": 89, "duration": 151}, {"note": 0, "velocity": 0, "duration": 89}, {"note": 78, "velocity": 89, "duration": 251}, {"note": 0, "velocity": 0, "duration": 229}, {"note": 76, "velocity": 91, "duration": 198}, {"note": 73, "velocity": 96, "duration": 186}, {"note": 76, "velocity": 91, "duration": 189}, {"note": 75, "velocity": 90, "duration": 542}, {"note": 0, "velocity": 0, "duration": 178}, {"note": 71, "velocity": 89, "duration": 167}, {"note": 0, "velocity": 0, "duration": 73}, {"note": 71, "velocity": 92, "duration": 191}, {"note": 73, "velocity": 96, "duration": 161}, {"note": 0, "velocity": 0, "duration": 79}, {"note": 75, "velocity": 90, "duration": 158}, {"note": 0, "velocity": 0, "duration": 82}, {"note": 76, "velocity": 89, "duration": 179}, {"note": 0, "velocity": 0, "duration": 61}, {"note": 78, "velocity": 87, "duration": 336}, {"note": 0, "velocity": 0, "duration": 144}, {"note": 73, "velocity": 99, "duration": 375}, {"note": 0, "velocity": 0, "duration": 105}, {"note": 76, "velocity": 87, "duration": 200}, {"note": 75, "velocity": 90, "duration": 179}, {"note": 0, "velocity": 0, "duration": 61}, {"note": 73, "velocity": 101, "duration": 168}, {"note": 0, "velocity": 0, "duration": 72}, {"note": 75, "velocity": 89, "duration": 714}, {"note": 0, "velocity": 0, "duration": 246}, {"note": 75, "velocity": 96, "duration": 147}, {"note": 0, "velocity": 0, "duration": 93}, {"note": 75, "velocity": 96, "duration": 171}, {"note": 0, "velocity": 0, "duration": 69}, {"note": 76, "velocity": 89, "duration": 155}, {"note": 0, "velocity": 0, "duration": 85}, {"note": 78, "velocity": 87, "duration": 140}, {"note": 0, "velocity": 0, "duration": 100}, {"note": 80, "velocity": 87, "duration": 143}, {"note": 0, "velocity": 0, "duration": 97}, {"note": 82, "velocity": 88, "duration": 286}, {"note": 0, "velocity": 0, "duration": 194}, {"note": 75, "velocity": 94, "duration": 305}, {"note": 0, "velocity": 0, "duration": 175}, {"note": 75, "velocity": 94, "duration": 157}, {"note": 0, "velocity": 0, "duration": 83}, {"note": 73, "velocity": 101, "duration": 410}, {"note": 0, "velocity": 0, "duration": 70}, {"note": 71, "velocity": 92, "duration": 651}, {"note": 0, "velocity": 0, "duration": 309}, {"note": 71, "velocity": 91, "duration": 170}, {"note": 0, "velocity": 0, "duration": 70}, {"note": 80, "velocity": 87, "duration": 164}, {"note": 0, "velocity": 0, "duration": 76}, {"note": 82, "velocity": 89, "duration": 157}, {"note": 0, "velocity": 0, "duration": 83}, {"note": 83, "velocity": 87, "duration": 161}, {"note": 0, "velocity": 0, "duration": 79}, {"note": 82, "velocity": 87, "duration": 163}, {"note": 0, "velocity": 0, "duration": 77}, {"note": 80, "velocity": 88, "duration": 364}, {"note": 0, "velocity": 0, "duration": 356}, {"note": 78, "velocity": 91, "duration": 599}, {"note": 0, "velocity": 0, "duration": 121}, {"note": 80, "velocity": 87, "duration": 133}, {"note": 0, "velocity": 0, "duration": 107}, {"note": 78, "velocity": 88, "duration": 799}, {"note": 0, "velocity": 0, "duration": 161}, {"note": 75, "velocity": 96, "duration": 179}, {"note": 0, "velocity": 0, "duration": 61}, {"note": 75, "velocity": 96, "duration": 179}, {"note": 0, "velocity": 0, "duration": 61}, {"note": 76, "velocity": 89, "duration": 176}, {"note": 0, "velocity": 0, "duration": 64}, {"note": 78, "velocity": 91, "duration": 161}, {"note": 0, "velocity": 0, "duration": 79}, {"note": 80, "velocity": 87, "duration": 157}, {"note": 0, "velocity": 0, "duration": 83}, {"note": 78, "velocity": 89, "duration": 365}, {"note": 0, "velocity": 0, "duration": 115}, {"note": 83, "velocity": 89, "duration": 151}, {"note": 0, "velocity": 0, "duration": 89}, {"note": 78, "velocity": 89, "duration": 251}, {"note": 0, "velocity": 0, "duration": 229}, {"note": 76, "velocity": 91, "duration": 198}, {"note": 73, "velocity": 96, "duration": 186}, {"note": 76, "velocity": 91, "duration": 189}, {"note": 75, "velocity": 90, "duration": 542}, {"note": 0, "velocity": 0, "duration": 178}, {"note": 71, "velocity": 89, "duration": 167}, {"note": 0, "velocity": 0, "duration": 73}, {"note": 71, "velocity": 92, "duration": 191}, {"note": 73, "velocity": 96, "duration": 161}, {"note": 0, "velocity": 0, "duration": 79}, {"note": 75, "velocity": 90, "duration": 158}, {"note": 0, "velocity": 0, "duration": 82}, {"note": 76, "velocity": 89, "duration": 179}, {"note": 0, "velocity": 0, "duration": 61}, {"note": 78, "velocity": 87, "duration": 336}, {"note": 0, "velocity": 0, "duration": 144}, {"note": 73, "velocity": 99, "duration": 375}, {"note": 0, "velocity": 0, "duration": 105}, {"note": 76, "velocity": 87, "duration": 200}, {"note": 75, "velocity": 90, "duration": 179}, {"note": 0, "velocity": 0, "duration": 61}, {"note": 73, "velocity": 101, "duration": 168}, {"note": 0, "velocity": 0, "duration": 72}, {"note": 75, "velocity": 89, "duration": 714}, {"note": 0, "velocity": 0, "duration": 246}, {"note": 75, "velocity": 96, "duration": 147}, {"note": 0, "velocity": 0, "duration": 93}, {"note": 75, "velocity": 96, "duration": 171}, {"note": 0, "velocity": 0, "duration": 69}, {"note": 76, "velocity": 89, "duration": 155}, {"note": 0, "velocity": 0, "duration": 85}, {"note": 78, "velocity": 87, "duration": 140}, {"note": 0, "velocity": 0, "duration": 100}, {"note": 80, "velocity": 87, "duration": 143}, {"note": 0, "velocity": 0, "duration": 97}, {"note": 82, "velocity": 88, "duration": 286}, {"note": 0, "velocity": 0, "duration": 194}, {"note": 75, "velocity": 94, "duration": 305}, {"note": 0, "velocity": 0, "duration": 175}, {"note": 75, "velocity": 94, "duration": 157}, {"note": 0, "velocity": 0, "duration": 83}, {"note": 82, "velocity": 101, "duration": 410}, {"note": 0, "velocity": 0, "duration": 70}, {"note": 83, "velocity": 92, "duration": 651}, {"note": 0, "velocity": 0, "duration": 309}, {"note": 80, "velocity": 89, "duration": 218}, {"note": 78, "velocity": 86, "duration": 177}, {"note": 0, "velocity": 0, "duration": 63}, {"note": 80, "velocity": 86, "duration": 182}, {"note": 78, "velocity": 91, "duration": 155}, {"note": 0, "velocity": 0, "duration": 85}, {"note": 80, "velocity": 87, "duration": 141}, {"note": 0, "velocity": 0, "duration": 99}, {"note": 78, "velocity": 94, "duration": 650}, {"note": 0, "velocity": 0, "duration": 70}, {"note": 73, "velocity": 101, "duration": 1410}, {"note": 0, "velocity": 0, "duration": 1230}, {"note": 73, "velocity": 99, "duration": 421}, {"note": 71, "velocity": 88, "duration": 406}, {"note": 0, "velocity": 0, "duration": 7514}, {"note": 75, "velocity": 90, "duration": 88}, {"note": 73, "velocity": 96, "duration": 74}, {"note": 75, "velocity": 92, "duration": 185}, {"note": 73, "velocity": 96, "duration": 56}, {"note": 0, "velocity": 0, "duration": 64}, {"note": 75, "velocity": 92, "duration": 395}, {"note": 0, "velocity": 0, "duration": 205}, {"note": 73, "velocity": 91, "duration": 120}, {"note": 0, "velocity": 0, "duration": 120}, {"note": 73, "velocity": 91, "duration": 120}, {"note": 71, "velocity": 86, "duration": 120}, {"note": 73, "velocity": 92, "duration": 178}, {"note": 0, "velocity": 0, "duration": 62}, {"note": 71, "velocity": 88, "duration": 500}, {"note": 0, "velocity": 0, "duration": 940}, {"note": 73, "velocity": 96, "duration": 96}, {"note": 0, "velocity": 0, "duration": 144}, {"note": 75, "velocity": 89, "duration": 89}, {"note": 73, "velocity": 92, "duration": 61}, {"note": 75, "velocity": 89, "duration": 77}, {"note": 73, "velocity": 86, "duration": 74}, {"note": 75, "velocity": 92, "duration": 163}, {"note": 0, "velocity": 0, "duration": 77}, {"note": 78, "velocity": 86, "duration": 165}, {"note": 0, "velocity": 0, "duration": 315}, {"note": 76, "velocity": 86, "duration": 179}, {"note": 0, "velocity": 0, "duration": 61}, {"note": 75, "velocity": 92, "duration": 136}, {"note": 0, "velocity": 0, "duration": 104}, {"note": 73, "velocity": 92, "duration": 68}, {"note": 76, "velocity": 90, "duration": 321}, {"note": 75, "velocity": 88, "duration": 738}, {"note": 0, "velocity": 0, "duration": 1182}, {"note": 78, "velocity": 87, "duration": 78}, {"note": 80, "velocity": 87, "duration": 64}, {"note": 80, "velocity": 88, "duration": 149}, {"note": 0, "velocity": 0, "duration": 91}, {"note": 80, "velocity": 91, "duration": 70}, {"note": 78, "velocity": 92, "duration": 305}, {"note": 71, "velocity": 91, "duration": 308}, {"note": 0, "velocity": 0, "duration": 892}, {"note": 73, "velocity": 91, "duration": 316}, {"note": 75, "velocity": 86, "duration": 74}, {"note": 73, "velocity": 92, "duration": 184}, {"note": 71, "velocity": 87, "duration": 236}, {"note": 0, "velocity": 0, "duration": 124}, {"note": 73, "velocity": 96, "duration": 53}, {"note": 0, "velocity": 0, "duration": 67}, {"note": 75, "velocity": 99, "duration": 65}, {"note": 76, "velocity": 89, "duration": 64}, {"note": 78, "velocity": 88, "duration": 161}, {"note": 0, "velocity": 0, "duration": 79}, {"note": 83, "velocity": 89, "duration": 120}, {"note": 83, "velocity": 89, "duration": 240}, {"note": 0, "velocity": 0, "duration": 120}, {"note": 78, "velocity": 87, "duration": 120}, {"note": 78, "velocity": 94, "duration": 120}, {"note": 80, "velocity": 91, "duration": 120}, {"note": 78, "velocity": 91, "duration": 120}, {"note": 78, "velocity": 91, "duration": 240}, {"note": 75, "velocity": 92, "duration": 189}, {"note": 73, "velocity": 91, "duration": 151}, {"note": 0, "velocity": 0, "duration": 89}, {"note": 73, "velocity": 99, "duration": 204}, {"note": 71, "velocity": 87, "duration": 979}, {"note": 0, "velocity": 0, "duration": 1421}, {"note": 75, "velocity": 96, "duration": 179}, {"note": 0, "velocity": 0, "duration": 61}, {"note": 75, "velocity": 96, "duration": 179}, {"note": 0, "velocity": 0, "duration": 61}, {"note": 76, "velocity": 89, "duration": 176}, {"note": 0, "velocity": 0, "duration": 64}, {"note": 78, "velocity": 91, "duration": 161}, {"note": 0, "velocity": 0, "duration": 79}, {"note": 80, "velocity": 87, "duration": 157}, {"note": 0, "velocity": 0, "duration": 83}, {"note": 78, "velocity": 89, "duration": 365}, {"note": 0, "velocity": 0, "duration": 115}, {"note": 83, "velocity": 89, "duration": 151}, {"note": 0, "velocity": 0, "duration": 89}, {"note": 78, "velocity": 89, "duration": 251}, {"note": 0, "velocity": 0, "duration": 229}, {"note": 76, "velocity": 91, "duration": 198}, {"note": 73, "velocity": 96, "duration": 186}, {"note": 76, "velocity": 91, "duration": 189}, {"note": 75, "velocity": 90, "duration": 542}, {"note": 0, "velocity": 0, "duration": 178}, {"note": 71, "velocity": 89, "duration": 167}, {"note": 0, "velocity": 0, "duration": 73}, {"note": 71, "velocity": 92, "duration": 191}, {"note": 73, "velocity": 96, "duration": 161}, {"note": 0, "velocity": 0, "duration": 79}, {"note": 75, "velocity": 90, "duration": 158}, {"note": 0, "velocity": 0, "duration": 82}, {"note": 76, "velocity": 89, "duration": 179}, {"note": 0, "velocity": 0, "duration": 61}, {"note": 78, "velocity": 87, "duration": 336}, {"note": 0, "velocity": 0, "duration": 144}, {"note": 73, "velocity": 99, "duration": 375}, {"note": 0, "velocity": 0, "duration": 105}, {"note": 76, "velocity": 87, "duration": 200}, {"note": 75, "velocity": 90, "duration": 179}, {"note": 0, "velocity": 0, "duration": 61}, {"note": 73, "velocity": 101, "duration": 168}, {"note": 0, "velocity": 0, "duration": 72}, {"note": 75, "velocity": 89, "duration": 714}, {"note": 0, "velocity": 0, "duration": 246}, {"note": 75, "velocity": 96, "duration": 147}, {"note": 0, "velocity": 0, "duration": 93}, {"note": 75, "velocity": 96, "duration": 171}, {"note": 0, "velocity": 0, "duration": 69}, {"note": 76, "velocity": 89, "duration": 155}, {"note": 0, "velocity": 0, "duration": 85}, {"note": 78, "velocity": 87, "duration": 140}, {"note": 0, "velocity": 0, "duration": 100}, {"note": 80, "velocity": 87, "duration": 143}, {"note": 0, "velocity": 0, "duration": 97}, {"note": 82, "velocity": 88, "duration": 286}, {"note": 0, "velocity": 0, "duration": 194}, {"note": 75, "velocity": 94, "duration": 305}, {"note": 0, "velocity": 0, "duration": 175}, {"note": 75, "velocity": 94, "duration": 157}, {"note": 0, "velocity": 0, "duration": 83}, {"note": 73, "velocity": 101, "duration": 410}, {"note": 0, "velocity": 0, "duration": 70}, {"note": 71, "velocity": 92, "duration": 651}, {"note": 0, "velocity": 0, "duration": 309}, {"note": 71, "velocity": 91, "duration": 170}, {"note": 0, "velocity": 0, "duration": 70}, {"note": 80, "velocity": 87, "duration": 164}, {"note": 0, "velocity": 0, "duration": 76}, {"note": 82, "velocity": 89, "duration": 157}, {"note": 0, "velocity": 0, "duration": 83}, {"note": 83, "velocity": 87, "duration": 161}, {"note": 0, "velocity": 0, "duration": 79}, {"note": 82, "velocity": 87, "duration": 163}, {"note": 0, "velocity": 0, "duration": 77}, {"note": 80, "velocity": 88, "duration": 364}, {"note": 0, "velocity": 0, "duration": 356}, {"note": 78, "velocity": 91, "duration": 599}, {"note": 0, "velocity": 0, "duration": 121}, {"note": 80, "velocity": 87, "duration": 133}, {"note": 0, "velocity": 0, "duration": 107}, {"note": 78, "velocity": 88, "duration": 799}, {"note": 0, "velocity": 0, "duration": 161}, {"note": 75, "velocity": 96, "duration": 179}, {"note": 0, "velocity": 0, "duration": 61}, {"note": 75, "velocity": 96, "duration": 179}, {"note": 0, "velocity": 0, "duration": 61}, {"note": 76, "velocity": 89, "duration": 176}, {"note": 0, "velocity": 0, "duration": 64}, {"note": 78, "velocity": 91, "duration": 161}, {"note": 0, "velocity": 0, "duration": 79}, {"note": 80, "velocity": 87, "duration": 157}, {"note": 0, "velocity": 0, "duration": 83}, {"note": 78, "velocity": 89, "duration": 365}, {"note": 0, "velocity": 0, "duration": 115}, {"note": 83, "velocity": 89, "duration": 151}, {"note": 0, "velocity": 0, "duration": 89}, {"note": 78, "velocity": 89, "duration": 251}, {"note": 0, "velocity": 0, "duration": 229}, {"note": 76, "velocity": 91, "duration": 198}, {"note": 73, "velocity": 96, "duration": 186}, {"note": 76, "velocity": 91, "duration": 189}, {"note": 75, "velocity": 90, "duration": 542}, {"note": 0, "velocity": 0, "duration": 178}, {"note": 71, "velocity": 89, "duration": 167}, {"note": 0, "velocity": 0, "duration": 73}, {"note": 71, "velocity": 92, "duration": 191}, {"note": 73, "velocity": 96, "duration": 161}, {"note": 0, "velocity": 0, "duration": 79}, {"note": 75, "velocity": 90, "duration": 158}, {"note": 0, "velocity": 0, "duration": 82}, {"note": 76, "velocity": 89, "duration": 179}, {"note": 0, "velocity": 0, "duration": 61}, {"note": 78, "velocity": 87, "duration": 336}, {"note": 0, "velocity": 0, "duration": 144}, {"note": 73, "velocity": 99, "duration": 375}, {"note": 0, "velocity": 0, "duration": 105}, {"note": 76, "velocity": 87, "duration": 200}, {"note": 75, "velocity": 90, "duration": 179}, {"note": 0, "velocity": 0, "duration": 61}, {"note": 73, "velocity": 101, "duration": 168}, {"note": 0, "velocity": 0, "duration": 72}, {"note": 75, "velocity": 89, "duration": 714}, {"note": 0, "velocity": 0, "duration": 246}, {"note": 75, "velocity": 96, "duration": 147}, {"note": 0, "velocity": 0, "duration": 93}, {"note": 75, "velocity": 96, "duration": 171}, {"note": 0, "velocity": 0, "duration": 69}, {"note": 76, "velocity": 89, "duration": 155}, {"note": 0, "velocity": 0, "duration": 85}, {"note": 78, "velocity": 87, "duration": 140}, {"note": 0, "velocity": 0, "duration": 100}, {"note": 80, "velocity": 87, "duration": 143}, {"note": 0, "velocity": 0, "duration": 97}, {"note": 82, "velocity": 88, "duration": 286}, {"note": 0, "velocity": 0, "duration": 194}, {"note": 75, "velocity": 94, "duration": 305}, {"note": 0, "velocity": 0, "duration": 175}, {"note": 75, "velocity": 94, "duration": 157}, {"note": 0, "velocity": 0, "duration": 83}, {"note": 82, "velocity": 101, "duration": 410}, {"note": 0, "velocity": 0, "duration": 70}, {"note": 83, "velocity": 92, "duration": 651}, {"note": 0, "velocity": 0, "duration": 309}, {"note": 80, "velocity": 89, "duration": 218}, {"note": 78, "velocity": 86, "duration": 177}, {"note": 0, "velocity": 0, "duration": 63}, {"note": 80, "velocity": 86, "duration": 182}, {"note": 78, "velocity": 91, "duration": 155}, {"note": 0, "velocity": 0, "duration": 85}, {"note": 80, "velocity": 87, "duration": 141}, {"note": 0, "velocity": 0, "duration": 99}, {"note": 78, "velocity": 94, "duration": 650}, {"note": 0, "velocity": 0, "duration": 70}, {"note": 73, "velocity": 101, "duration": 960}, {"note": 75, "velocity": 99, "duration": 389}, {"note": 0, "velocity": 0, "duration": 91}, {"note": 83, "velocity": 92, "duration": 959}, {"note": 0, "velocity": 0, "duration": 14881}, {"note": 75, "velocity": 96, "duration": 179}, {"note": 0, "velocity": 0, "duration": 61}, {"note": 75, "velocity": 96, "duration": 179}, {"note": 0, "velocity": 0, "duration": 61}, {"note": 76, "velocity": 89, "duration": 176}, {"note": 0, "velocity": 0, "duration": 64}, {"note": 78, "velocity": 91, "duration": 161}, {"note": 0, "velocity": 0, "duration": 79}, {"note": 80, "velocity": 87, "duration": 157}, {"note": 0, "velocity": 0, "duration": 83}, {"note": 78, "velocity": 89, "duration": 365}, {"note": 0, "velocity": 0, "duration": 115}, {"note": 83, "velocity": 89, "duration": 151}, {"note": 0, "velocity": 0, "duration": 89}, {"note": 78, "velocity": 89, "duration": 251}, {"note": 0, "velocity": 0, "duration": 229}, {"note": 76, "velocity": 91, "duration": 198}, {"note": 73, "velocity": 96, "duration": 186}, {"note": 76, "velocity": 91, "duration": 189}, {"note": 75, "velocity": 90, "duration": 542}, {"note": 0, "velocity": 0, "duration": 178}, {"note": 71, "velocity": 89, "duration": 167}, {"note": 0, "velocity": 0, "duration": 73}, {"note": 71, "velocity": 92, "duration": 191}, {"note": 73, "velocity": 96, "duration": 161}, {"note": 0, "velocity": 0, "duration": 79}, {"note": 75, "velocity": 90, "duration": 158}, {"note": 0, "velocity": 0, "duration": 82}, {"note": 76, "velocity": 89, "duration": 179}, {"note": 0, "velocity": 0, "duration": 61}, {"note": 78, "velocity": 87, "duration": 336}, {"note": 0, "velocity": 0, "duration": 144}, {"note": 73, "velocity": 99, "duration": 375}, {"note": 0, "velocity": 0, "duration": 105}, {"note": 76, "velocity": 87, "duration": 200}, {"note": 75, "velocity": 90, "duration": 179}, {"note": 0, "velocity": 0, "duration": 61}, {"note": 73, "velocity": 101, "duration": 168}, {"note": 0, "velocity": 0, "duration": 72}, {"note": 75, "velocity": 89, "duration": 714}, {"note": 0, "velocity": 0, "duration": 246}, {"note": 75, "velocity": 96, "duration": 147}, {"note": 0, "velocity": 0, "duration": 93}, {"note": 75, "velocity": 96, "duration": 171}, {"note": 0, "velocity": 0, "duration": 69}, {"note": 76, "velocity": 89, "duration": 155}, {"note": 0, "velocity": 0, "duration": 85}, {"note": 78, "velocity": 87, "duration": 140}, {"note": 0, "velocity": 0, "duration": 100}, {"note": 80, "velocity": 87, "duration": 143}, {"note": 0, "velocity": 0, "duration": 97}, {"note": 82, "velocity": 88, "duration": 286}, {"note": 0, "velocity": 0, "duration": 194}, {"note": 75, "velocity": 94, "duration": 305}, {"note": 0, "velocity": 0, "duration": 175}, {"note": 75, "velocity": 94, "duration": 157}, {"note": 0, "velocity": 0, "duration": 83}, {"note": 73, "velocity": 101, "duration": 410}, {"note": 0, "velocity": 0, "duration": 70}, {"note": 71, "velocity": 92, "duration": 651}, {"note": 0, "velocity": 0, "duration": 309}, {"note": 71, "velocity": 91, "duration": 170}, {"note": 0, "velocity": 0, "duration": 70}, {"note": 80, "velocity": 87, "duration": 164}, {"note": 0, "velocity": 0, "duration": 76}, {"note": 82, "velocity": 89, "duration": 157}, {"note": 0, "velocity": 0, "duration": 83}, {"note": 83, "velocity": 87, "duration": 161}, {"note": 0, "velocity": 0, "duration": 79}, {"note": 82, "velocity": 87, "duration": 163}, {"note": 0, "velocity": 0, "duration": 77}, {"note": 80, "velocity": 88, "duration": 364}, {"note": 0, "velocity": 0, "duration": 356}, {"note": 78, "velocity": 91, "duration": 599}, {"note": 0, "velocity": 0, "duration": 121}, {"note": 80, "velocity": 87, "duration": 133}, {"note": 0, "velocity": 0, "duration": 107}, {"note": 78, "velocity": 88, "duration": 799}, {"note": 0, "velocity": 0, "duration": 161}, {"note": 75, "velocity": 96, "duration": 179}, {"note": 0, "velocity": 0, "duration": 61}, {"note": 75, "velocity": 96, "duration": 179}, {"note": 0, "velocity": 0, "duration": 61}, {"note": 76, "velocity": 89, "duration": 176}, {"note": 0, "velocity": 0, "duration": 64}, {"note": 78, "velocity": 91, "duration": 161}, {"note": 0, "velocity": 0, "duration": 79}, {"note": 80, "velocity": 87, "duration": 157}, {"note": 0, "velocity": 0, "duration": 83}, {"note": 78, "velocity": 89, "duration": 365}, {"note": 0, "velocity": 0, "duration": 115}, {"note": 83, "velocity": 89, "duration": 151}, {"note": 0, "velocity": 0, "duration": 89}, {"note": 78, "velocity": 89, "duration": 251}, {"note": 0, "velocity": 0, "duration": 229}, {"note": 76, "velocity": 91, "duration": 198}, {"note": 73, "velocity": 96, "duration": 186}, {"note": 76, "velocity": 91, "duration": 189}, {"note": 75, "velocity": 90, "duration": 542}, {"note": 0, "velocity": 0, "duration": 178}, {"note": 71, "velocity": 89, "duration": 167}, {"note": 0, "velocity": 0, "duration": 73}, {"note": 71, "velocity": 92, "duration": 191}, {"note": 73, "velocity": 96, "duration": 161}, {"note": 0, "velocity": 0, "duration": 79}, {"note": 75, "velocity": 90, "duration": 158}, {"note": 0, "velocity": 0, "duration": 82}, {"note": 76, "velocity": 89, "duration": 179}, {"note": 0, "velocity": 0, "duration": 61}, {"note": 78, "velocity": 87, "duration": 336}, {"note": 0, "velocity": 0, "duration": 144}, {"note": 73, "velocity": 99, "duration": 375}, {"note": 0, "velocity": 0, "duration": 105}, {"note": 76, "velocity": 87, "duration": 200}, {"note": 75, "velocity": 90, "duration": 179}, {"note": 0, "velocity": 0, "duration": 61}, {"note": 73, "velocity": 101, "duration": 168}, {"note": 0, "velocity": 0, "duration": 72}, {"note": 75, "velocity": 89, "duration": 714}, {"note": 0, "velocity": 0, "duration": 246}, {"note": 75, "velocity": 96, "duration": 147}, {"note": 0, "velocity": 0, "duration": 93}, {"note": 75, "velocity": 96, "duration": 171}, {"note": 0, "velocity": 0, "duration": 69}, {"note": 76, "velocity": 89, "duration": 155}, {"note": 0, "velocity": 0, "duration": 85}, {"note": 78, "velocity": 87, "duration": 140}, {"note": 0, "velocity": 0, "duration": 100}, {"note": 80, "velocity": 87, "duration": 143}, {"note": 0, "velocity": 0, "duration": 97}, {"note": 82, "velocity": 88, "duration": 286}, {"note": 0, "velocity": 0, "duration": 194}, {"note": 75, "velocity": 94, "duration": 305}, {"note": 0, "velocity": 0, "duration": 175}, {"note": 75, "velocity": 94, "duration": 157}, {"note": 0, "velocity": 0, "duration": 83}, {"note": 82, "velocity": 101, "duration": 410}, {"note": 0, "velocity": 0, "duration": 70}, {"note": 83, "velocity": 92, "duration": 651}, {"note": 0, "velocity": 0, "duration": 309}, {"note": 80, "velocity": 89, "duration": 218}, {"note": 78, "velocity": 86, "duration": 177}, {"note": 0, "velocity": 0, "duration": 63}, {"note": 80, "velocity": 86, "duration": 182}, {"note": 78, "velocity": 91, "duration": 155}, {"note": 0, "velocity": 0, "duration": 85}, {"note": 80, "velocity": 87, "duration": 141}, {"note": 0, "velocity": 0, "duration": 99}, {"note": 78, "velocity": 94, "duration": 650}, {"note": 0, "velocity": 0, "duration": 70}, {"note": 73, "velocity": 101, "duration": 960}, {"note": 0, "velocity": 0, "duration": 1680}, {"note": 73, "velocity": 96, "duration": 542}, {"note": 0, "velocity": 0, "duration": 178}, {"note": 71, "velocity": 87, "duration": 675}]]