[[{"note": 70, "velocity": 57, "duration": 101}, {"note": 75, "velocity": 65, "duration": 217}, {"note": 0, "velocity": 0, "duration": 263}, {"note": 77, "velocity": 51, "duration": 278}, {"note": 79, "velocity": 62, "duration": 76}, {"note": 0, "velocity": 0, "duration": 84}, {"note": 82, "velocity": 59, "duration": 82}, {"note": 0, "velocity": 0, "duration": 78}, {"note": 79, "velocity": 59, "duration": 81}, {"note": 0, "velocity": 0, "duration": 79}, {"note": 79, "velocity": 60, "duration": 165}, {"note": 0, "velocity": 0, "duration": 315}, {"note": 72, "velocity": 58, "duration": 100}, {"note": 75, "velocity": 60, "duration": 208}, {"note": 0, "velocity": 0, "duration": 272}, {"note": 77, "velocity": 58, "duration": 104}, {"note": 75, "velocity": 62, "duration": 64}, {"note": 0, "velocity": 0, "duration": 96}, {"note": 72, "velocity": 61, "duration": 102}, {"note": 70, "velocity": 61, "duration": 201}, {"note": 0, "velocity": 0, "duration": 599}, {"note": 70, "velocity": 59, "duration": 112}, {"note": 75, "velocity": 61, "duration": 168}, {"note": 0, "velocity": 0, "duration": 312}, {"note": 77, "velocity": 60, "duration": 194}, {"note": 0, "velocity": 0, "duration": 126}, {"note": 79, "velocity": 60, "duration": 85}, {"note": 0, "velocity": 0, "duration": 75}, {"note": 84, "velocity": 60, "duration": 70}, {"note": 0, "velocity": 0, "duration": 90}, {"note": 79, "velocity": 58, "duration": 84}, {"note": 0, "velocity": 0, "duration": 76}, {"note": 82, "velocity": 58, "duration": 84}, {"note": 0, "velocity": 0, "duration": 236}, {"note": 79, "velocity": 57, "duration": 87}, {"note": 0, "velocity": 0, "duration": 73}, {"note": 77, "velocity": 58, "duration": 85}, {"note": 0, "velocity": 0, "duration": 75}, {"note": 75, "velocity": 62, "duration": 259}, {"note": 0, "velocity": 0, "duration": 61}, {"note": 75, "velocity": 60, "duration": 113}, {"note": 77, "velocity": 59, "duration": 226}, {"note": 0, "velocity": 0, "duration": 94}, {"note": 82, "velocity": 51, "duration": 108}, {"note": 79, "velocity": 60, "duration": 112}, {"note": 77, "velocity": 60, "duration": 344}, {"note": 0, "velocity": 0, "duration": 296}, {"note": 79, "velocity": 54, "duration": 126}, {"note": 82, "velocity": 53, "duration": 370}, {"note": 0, "velocity": 0, "duration": 110}, {"note": 82, "velocity": 58, "duration": 136}, {"note": 79, "velocity": 60, "duration": 106}, {"note": 82, "velocity": 58, "duration": 87}, {"note": 0, "velocity": 0, "duration": 73}, {"note": 84, "velocity": 59, "duration": 87}, {"note": 0, "velocity": 0, "duration": 73}, {"note": 87, "velocity": 60, "duration": 95}, {"note": 0, "velocity": 0, "duration": 65}, {"note": 84, "velocity": 55, "duration": 219}, {"note": 0, "velocity": 0, "duration": 261}, {"note": 79, "velocity": 60, "duration": 129}, {"note": 77, "velocity": 62, "duration": 133}, {"note": 75, "velocity": 57, "duration": 80}, {"note": 0, "velocity": 0, "duration": 80}, {"note": 75, "velocity": 59, "duration": 100}, {"note": 77, "velocity": 61, "duration": 236}, {"note": 0, "velocity": 0, "duration": 84}, {"note": 79, "velocity": 60, "duration": 116}, {"note": 79, "velocity": 59, "duration": 477}, {"note": 0, "velocity": 0, "duration": 323}, {"note": 79, "velocity": 56, "duration": 123}, {"note": 82, "velocity": 58, "duration": 276}, {"note": 0, "velocity": 0, "duration": 364}, {"note": 79, "velocity": 58, "duration": 106}, {"note": 79, "velocity": 62, "duration": 111}, {"note": 77, "velocity": 59, "duration": 103}, {"note": 75, "velocity": 60, "duration": 88}, {"note": 0, "velocity": 0, "duration": 72}, {"note": 75, "velocity": 62, "duration": 175}, {"note": 0, "velocity": 0, "duration": 305}, {"note": 70, "velocity": 58, "duration": 114}, {"note": 77, "velocity": 57, "duration": 221}, {"note": 0, "velocity": 0, "duration": 99}, {"note": 75, "velocity": 60, "duration": 116}, {"note": 79, "velocity": 59, "duration": 163}, {"note": 0, "velocity": 0, "duration": 157}, {"note": 77, "velocity": 59, "duration": 95}, {"note": 0, "velocity": 0, "duration": 65}, {"note": 75, "velocity": 62, "duration": 531}, {"note": 0, "velocity": 0, "duration": 1229}, {"note": 70, "velocity": 57, "duration": 101}, {"note": 75, "velocity": 65, "duration": 217}, {"note": 0, "velocity": 0, "duration": 263}, {"note": 77, "velocity": 51, "duration": 278}, {"note": 79, "velocity": 62, "duration": 76}, {"note": 0, "velocity": 0, "duration": 84}, {"note": 82, "velocity": 59, "duration": 82}, {"note": 0, "velocity": 0, "duration": 78}, {"note": 79, "velocity": 59, "duration": 81}, {"note": 0, "velocity": 0, "duration": 79}, {"note": 79, "velocity": 60, "duration": 165}, {"note": 0, "velocity": 0, "duration": 315}, {"note": 72, "velocity": 58, "duration": 100}, {"note": 75, "velocity": 60, "duration": 208}, {"note": 0, "velocity": 0, "duration": 112}, {"note": 75, "velocity": 60, "duration": 160}, {"note": 77, "velocity": 58, "duration": 104}, {"note": 75, "velocity": 62, "duration": 64}, {"note": 0, "velocity": 0, "duration": 96}, {"note": 72, "velocity": 61, "duration": 102}, {"note": 70, "velocity": 61, "duration": 480}, {"note": 0, "velocity": 0, "duration": 320}, {"note": 70, "velocity": 59, "duration": 112}, {"note": 75, "velocity": 61, "duration": 168}, {"note": 0, "velocity": 0, "duration": 312}, {"note": 77, "velocity": 60, "duration": 194}, {"note": 0, "velocity": 0, "duration": 126}, {"note": 79, "velocity": 60, "duration": 85}, {"note": 0, "velocity": 0, "duration": 75}, {"note": 84, "velocity": 60, "duration": 70}, {"note": 0, "velocity": 0, "duration": 90}, {"note": 79, "velocity": 58, "duration": 84}, {"note": 0, "velocity": 0, "duration": 76}, {"note": 82, "velocity": 58, "duration": 320}, {"note": 0, "velocity": 0, "duration": 160}, {"note": 79, "velocity": 58, "duration": 85}, {"note": 0, "velocity": 0, "duration": 75}, {"note": 75, "velocity": 62, "duration": 259}, {"note": 0, "velocity": 0, "duration": 61}, {"note": 75, "velocity": 60, "duration": 113}, {"note": 77, "velocity": 59, "duration": 226}, {"note": 0, "velocity": 0, "duration": 94}, {"note": 82, "velocity": 51, "duration": 108}, {"note": 79, "velocity": 60, "duration": 112}, {"note": 77, "velocity": 60, "duration": 344}, {"note": 0, "velocity": 0, "duration": 296}, {"note": 79, "velocity": 54, "duration": 126}, {"note": 82, "velocity": 53, "duration": 320}, {"note": 82, "velocity": 58, "duration": 136}, {"note": 82, "velocity": 58, "duration": 136}, {"note": 79, "velocity": 60, "duration": 106}, {"note": 82, "velocity": 58, "duration": 87}, {"note": 0, "velocity": 0, "duration": 73}, {"note": 84, "velocity": 59, "duration": 87}, {"note": 0, "velocity": 0, "duration": 73}, {"note": 87, "velocity": 60, "duration": 95}, {"note": 0, "velocity": 0, "duration": 65}, {"note": 84, "velocity": 55, "duration": 219}, {"note": 0, "velocity": 0, "duration": 261}, {"note": 79, "velocity": 60, "duration": 129}, {"note": 77, "velocity": 62, "duration": 133}, {"note": 75, "velocity": 57, "duration": 80}, {"note": 0, "velocity": 0, "duration": 80}, {"note": 75, "velocity": 59, "duration": 100}, {"note": 77, "velocity": 61, "duration": 236}, {"note": 0, "velocity": 0, "duration": 84}, {"note": 82, "velocity": 60, "duration": 116}, {"note": 79, "velocity": 59, "duration": 477}, {"note": 0, "velocity": 0, "duration": 323}, {"note": 79, "velocity": 56, "duration": 123}, {"note": 82, "velocity": 58, "duration": 276}, {"note": 0, "velocity": 0, "duration": 364}, {"note": 79, "velocity": 58, "duration": 106}, {"note": 77, "velocity": 62, "duration": 111}, {"note": 72, "velocity": 59, "duration": 103}, {"note": 75, "velocity": 60, "duration": 88}, {"note": 0, "velocity": 0, "duration": 72}, {"note": 70, "velocity": 62, "duration": 175}, {"note": 75, "velocity": 62, "duration": 175}, {"note": 0, "velocity": 0, "duration": 145}, {"note": 77, "velocity": 58, "duration": 114}, {"note": 77, "velocity": 57, "duration": 160}, {"note": 75, "velocity": 60, "duration": 1280}, {"note": 0, "velocity": 0, "duration": 320}, {"note": 79, "velocity": 62, "duration": 126}, {"note": 82, "velocity": 58, "duration": 189}, {"note": 0, "velocity": 0, "duration": 131}, {"note": 82, "velocity": 54, "duration": 65}, {"note": 0, "velocity": 0, "duration": 95}, {"note": 82, "velocity": 59, "duration": 90}, {"note": 0, "velocity": 0, "duration": 70}, {"note": 79, "velocity": 61, "duration": 95}, {"note": 0, "velocity": 0, "duration": 65}, {"note": 82, "velocity": 62, "duration": 94}, {"note": 0, "velocity": 0, "duration": 66}, {"note": 84, "velocity": 60, "duration": 225}, {"note": 0, "velocity": 0, "duration": 95}, {"note": 84, "velocity": 60, "duration": 88}, {"note": 0, "velocity": 0, "duration": 72}, {"note": 79, "velocity": 64, "duration": 252}, {"note": 0, "velocity": 0, "duration": 68}, {"note": 77, "velocity": 58, "duration": 110}, {"note": 75, "velocity": 60, "duration": 201}, {"note": 0, "velocity": 0, "duration": 119}, {"note": 75, "velocity": 63, "duration": 113}, {"note": 77, "velocity": 60, "duration": 262}, {"note": 82, "velocity": 56, "duration": 100}, {"note": 79, "velocity": 54, "duration": 565}, {"note": 0, "velocity": 0, "duration": 235}, {"note": 79, "velocity": 62, "duration": 120}, {"note": 82, "velocity": 58, "duration": 229}, {"note": 0, "velocity": 0, "duration": 251}, {"note": 82, "velocity": 59, "duration": 113}, {"note": 79, "velocity": 60, "duration": 93}, {"note": 0, "velocity": 0, "duration": 67}, {"note": 82, "velocity": 60, "duration": 100}, {"note": 84, "velocity": 59, "duration": 256}, {"note": 0, "velocity": 0, "duration": 64}, {"note": 84, "velocity": 58, "duration": 110}, {"note": 79, "velocity": 58, "duration": 248}, {"note": 0, "velocity": 0, "duration": 72}, {"note": 77, "velocity": 53, "duration": 137}, {"note": 75, "velocity": 63, "duration": 221}, {"note": 0, "velocity": 0, "duration": 99}, {"note": 70, "velocity": 60, "duration": 84}, {"note": 0, "velocity": 0, "duration": 76}, {"note": 77, "velocity": 58, "duration": 270}, {"note": 79, "velocity": 59, "duration": 123}, {"note": 77, "velocity": 62, "duration": 180}, {"note": 75, "velocity": 62, "duration": 582}, {"note": 72, "velocity": 59, "duration": 41}, {"note": 72, "velocity": 58, "duration": 56}, {"note": 75, "velocity": 65, "duration": 239}, {"note": 0, "velocity": 0, "duration": 81}, {"note": 75, "velocity": 62, "duration": 109}, {"note": 77, "velocity": 59, "duration": 160}, {"note": 77, "velocity": 59, "duration": 160}, {"note": 82, "velocity": 59, "duration": 92}, {"note": 0, "velocity": 0, "duration": 68}, {"note": 79, "velocity": 58, "duration": 427}, {"note": 0, "velocity": 0, "duration": 373}, {"note": 79, "velocity": 67, "duration": 62}, {"note": 82, "velocity": 59, "duration": 46}, {"note": 84, "velocity": 57, "duration": 240}, {"note": 0, "velocity": 0, "duration": 80}, {"note": 82, "velocity": 58, "duration": 108}, {"note": 84, "velocity": 57, "duration": 98}, {"note": 0, "velocity": 0, "duration": 62}, {"note": 82, "velocity": 59, "duration": 80}, {"note": 79, "velocity": 59, "duration": 80}, {"note": 77, "velocity": 58, "duration": 129}, {"note": 79, "velocity": 59, "duration": 433}, {"note": 0, "velocity": 0, "duration": 367}, {"note": 75, "velocity": 67, "duration": 131}, {"note": 77, "velocity": 62, "duration": 151}, {"note": 0, "velocity": 0, "duration": 169}, {"note": 75, "velocity": 67, "duration": 112}, {"note": 77, "velocity": 64, "duration": 128}, {"note": 75, "velocity": 63, "duration": 126}, {"note": 72, "velocity": 60, "duration": 102}, {"note": 77, "velocity": 59, "duration": 253}, {"note": 0, "velocity": 0, "duration": 67}, {"note": 79, "velocity": 58, "duration": 160}, {"note": 77, "velocity": 58, "duration": 210}, {"note": 0, "velocity": 0, "duration": 110}, {"note": 75, "velocity": 69, "duration": 110}, {"note": 77, "velocity": 60, "duration": 109}, {"note": 77, "velocity": 58, "duration": 80}, {"note": 0, "velocity": 0, "duration": 80}, {"note": 77, "velocity": 59, "duration": 90}, {"note": 0, "velocity": 0, "duration": 70}, {"note": 77, "velocity": 65, "duration": 103}, {"note": 79, "velocity": 61, "duration": 109}, {"note": 84, "velocity": 59, "duration": 99}, {"note": 0, "velocity": 0, "duration": 61}, {"note": 82, "velocity": 58, "duration": 1131}, {"note": 0, "velocity": 0, "duration": 16949}, {"note": 70, "velocity": 57, "duration": 101}, {"note": 75, "velocity": 65, "duration": 217}, {"note": 0, "velocity": 0, "duration": 263}, {"note": 77, "velocity": 51, "duration": 278}, {"note": 79, "velocity": 62, "duration": 76}, {"note": 0, "velocity": 0, "duration": 84}, {"note": 82, "velocity": 59, "duration": 82}, {"note": 0, "velocity": 0, "duration": 78}, {"note": 79, "velocity": 59, "duration": 81}, {"note": 0, "velocity": 0, "duration": 79}, {"note": 79, "velocity": 60, "duration": 165}, {"note": 0, "velocity": 0, "duration": 315}, {"note": 72, "velocity": 58, "duration": 100}, {"note": 75, "velocity": 60, "duration": 208}, {"note": 0, "velocity": 0, "duration": 112}, {"note": 75, "velocity": 60, "duration": 160}, {"note": 77, "velocity": 58, "duration": 104}, {"note": 75, "velocity": 62, "duration": 64}, {"note": 0, "velocity": 0, "duration": 96}, {"note": 72, "velocity": 61, "duration": 102}, {"note": 70, "velocity": 61, "duration": 480}, {"note": 0, "velocity": 0, "duration": 320}, {"note": 70, "velocity": 59, "duration": 112}, {"note": 75, "velocity": 61, "duration": 168}, {"note": 0, "velocity": 0, "duration": 312}, {"note": 77, "velocity": 60, "duration": 194}, {"note": 0, "velocity": 0, "duration": 126}, {"note": 79, "velocity": 60, "duration": 85}, {"note": 0, "velocity": 0, "duration": 75}, {"note": 84, "velocity": 60, "duration": 70}, {"note": 0, "velocity": 0, "duration": 90}, {"note": 79, "velocity": 58, "duration": 84}, {"note": 0, "velocity": 0, "duration": 76}, {"note": 82, "velocity": 58, "duration": 320}, {"note": 0, "velocity": 0, "duration": 160}, {"note": 79, "velocity": 58, "duration": 85}, {"note": 0, "velocity": 0, "duration": 75}, {"note": 75, "velocity": 62, "duration": 259}, {"note": 0, "velocity": 0, "duration": 61}, {"note": 75, "velocity": 60, "duration": 113}, {"note": 77, "velocity": 59, "duration": 226}, {"note": 0, "velocity": 0, "duration": 94}, {"note": 82, "velocity": 51, "duration": 108}, {"note": 79, "velocity": 60, "duration": 112}, {"note": 77, "velocity": 60, "duration": 344}, {"note": 0, "velocity": 0, "duration": 296}, {"note": 79, "velocity": 54, "duration": 126}, {"note": 82, "velocity": 53, "duration": 320}, {"note": 82, "velocity": 58, "duration": 136}, {"note": 82, "velocity": 58, "duration": 136}, {"note": 79, "velocity": 60, "duration": 106}, {"note": 82, "velocity": 58, "duration": 87}, {"note": 0, "velocity": 0, "duration": 73}, {"note": 84, "velocity": 59, "duration": 87}, {"note": 0, "velocity": 0, "duration": 73}, {"note": 87, "velocity": 60, "duration": 95}, {"note": 0, "velocity": 0, "duration": 65}, {"note": 84, "velocity": 55, "duration": 219}, {"note": 0, "velocity": 0, "duration": 261}, {"note": 79, "velocity": 60, "duration": 129}, {"note": 77, "velocity": 62, "duration": 133}, {"note": 75, "velocity": 57, "duration": 80}, {"note": 0, "velocity": 0, "duration": 80}, {"note": 75, "velocity": 59, "duration": 100}, {"note": 77, "velocity": 61, "duration": 236}, {"note": 0, "velocity": 0, "duration": 84}, {"note": 82, "velocity": 60, "duration": 116}, {"note": 79, "velocity": 59, "duration": 477}, {"note": 0, "velocity": 0, "duration": 323}, {"note": 79, "velocity": 56, "duration": 123}, {"note": 82, "velocity": 58, "duration": 276}, {"note": 0, "velocity": 0, "duration": 364}, {"note": 79, "velocity": 58, "duration": 106}, {"note": 77, "velocity": 62, "duration": 111}, {"note": 72, "velocity": 59, "duration": 103}, {"note": 75, "velocity": 60, "duration": 88}, {"note": 0, "velocity": 0, "duration": 72}, {"note": 70, "velocity": 62, "duration": 175}, {"note": 75, "velocity": 62, "duration": 175}, {"note": 0, "velocity": 0, "duration": 145}, {"note": 77, "velocity": 58, "duration": 114}, {"note": 77, "velocity": 57, "duration": 160}, {"note": 75, "velocity": 60, "duration": 1280}, {"note": 0, "velocity": 0, "duration": 320}, {"note": 79, "velocity": 62, "duration": 126}, {"note": 82, "velocity": 58, "duration": 189}, {"note": 0, "velocity": 0, "duration": 131}, {"note": 82, "velocity": 54, "duration": 65}, {"note": 0, "velocity": 0, "duration": 95}, {"note": 82, "velocity": 59, "duration": 90}, {"note": 0, "velocity": 0, "duration": 70}, {"note": 79, "velocity": 61, "duration": 95}, {"note": 0, "velocity": 0, "duration": 65}, {"note": 82, "velocity": 62, "duration": 94}, {"note": 0, "velocity": 0, "duration": 66}, {"note": 84, "velocity": 60, "duration": 225}, {"note": 0, "velocity": 0, "duration": 95}, {"note": 84, "velocity": 60, "duration": 88}, {"note": 0, "velocity": 0, "duration": 72}, {"note": 79, "velocity": 64, "duration": 252}, {"note": 0, "velocity": 0, "duration": 68}, {"note": 77, "velocity": 58, "duration": 110}, {"note": 75, "velocity": 60, "duration": 201}, {"note": 0, "velocity": 0, "duration": 119}, {"note": 75, "velocity": 63, "duration": 113}, {"note": 77, "velocity": 60, "duration": 262}, {"note": 82, "velocity": 56, "duration": 100}, {"note": 79, "velocity": 54, "duration": 565}, {"note": 0, "velocity": 0, "duration": 235}, {"note": 79, "velocity": 62, "duration": 120}, {"note": 82, "velocity": 58, "duration": 229}, {"note": 0, "velocity": 0, "duration": 251}, {"note": 82, "velocity": 59, "duration": 113}, {"note": 79, "velocity": 60, "duration": 93}, {"note": 0, "velocity": 0, "duration": 67}, {"note": 82, "velocity": 60, "duration": 100}, {"note": 84, "velocity": 59, "duration": 256}, {"note": 0, "velocity": 0, "duration": 64}, {"note": 84, "velocity": 58, "duration": 110}, {"note": 79, "velocity": 58, "duration": 248}, {"note": 0, "velocity": 0, "duration": 72}, {"note": 77, "velocity": 53, "duration": 137}, {"note": 75, "velocity": 63, "duration": 221}, {"note": 0, "velocity": 0, "duration": 99}, {"note": 70, "velocity": 60, "duration": 84}, {"note": 0, "velocity": 0, "duration": 76}, {"note": 77, "velocity": 58, "duration": 270}, {"note": 79, "velocity": 59, "duration": 123}, {"note": 77, "velocity": 62, "duration": 180}, {"note": 75, "velocity": 62, "duration": 582}, {"note": 72, "velocity": 59, "duration": 41}, {"note": 72, "velocity": 58, "duration": 56}, {"note": 75, "velocity": 65, "duration": 239}, {"note": 0, "velocity": 0, "duration": 81}, {"note": 75, "velocity": 62, "duration": 109}, {"note": 77, "velocity": 59, "duration": 160}, {"note": 77, "velocity": 59, "duration": 160}, {"note": 82, "velocity": 59, "duration": 92}, {"note": 0, "velocity": 0, "duration": 68}, {"note": 79, "velocity": 58, "duration": 427}, {"note": 0, "velocity": 0, "duration": 373}, {"note": 79, "velocity": 67, "duration": 62}, {"note": 82, "velocity": 59, "duration": 46}, {"note": 84, "velocity": 57, "duration": 240}, {"note": 0, "velocity": 0, "duration": 80}, {"note": 82, "velocity": 58, "duration": 108}, {"note": 84, "velocity": 57, "duration": 98}, {"note": 0, "velocity": 0, "duration": 62}, {"note": 82, "velocity": 59, "duration": 80}, {"note": 79, "velocity": 59, "duration": 80}, {"note": 77, "velocity": 58, "duration": 129}, {"note": 79, "velocity": 59, "duration": 433}, {"note": 0, "velocity": 0, "duration": 367}, {"note": 75, "velocity": 67, "duration": 131}, {"note": 77, "velocity": 62, "duration": 151}, {"note": 0, "velocity": 0, "duration": 169}, {"note": 75, "velocity": 67, "duration": 112}, {"note": 77, "velocity": 64, "duration": 128}, {"note": 75, "velocity": 63, "duration": 126}, {"note": 72, "velocity": 60, "duration": 102}, {"note": 77, "velocity": 59, "duration": 253}, {"note": 0, "velocity": 0, "duration": 67}, {"note": 79, "velocity": 58, "duration": 160}, {"note": 77, "velocity": 58, "duration": 210}, {"note": 0, "velocity": 0, "duration": 110}, {"note": 75, "velocity": 69, "duration": 110}, {"note": 77, "velocity": 60, "duration": 109}, {"note": 77, "velocity": 58, "duration": 80}, {"note": 0, "velocity": 0, "duration": 80}, {"note": 77, "velocity": 59, "duration": 90}, {"note": 0, "velocity": 0, "duration": 70}, {"note": 77, "velocity": 65, "duration": 103}, {"note": 79, "velocity": 61, "duration": 109}, {"note": 84, "velocity": 59, "duration": 99}, {"note": 0, "velocity": 0, "duration": 61}, {"note": 82, "velocity": 58, "duration": 1131}, {"note": 0, "velocity": 0, "duration": 9269}, {"note": 79, "velocity": 62, "duration": 126}, {"note": 82, "velocity": 58, "duration": 189}, {"note": 0, "velocity": 0, "duration": 131}, {"note": 82, "velocity": 54, "duration": 65}, {"note": 0, "velocity": 0, "duration": 95}, {"note": 82, "velocity": 59, "duration": 90}, {"note": 0, "velocity": 0, "duration": 70}, {"note": 79, "velocity": 61, "duration": 95}, {"note": 0, "velocity": 0, "duration": 65}, {"note": 82, "velocity": 62, "duration": 94}, {"note": 0, "velocity": 0, "duration": 66}, {"note": 84, "velocity": 60, "duration": 225}, {"note": 0, "velocity": 0, "duration": 95}, {"note": 84, "velocity": 60, "duration": 88}, {"note": 0, "velocity": 0, "duration": 72}, {"note": 79, "velocity": 64, "duration": 252}, {"note": 0, "velocity": 0, "duration": 68}, {"note": 77, "velocity": 58, "duration": 110}, {"note": 75, "velocity": 60, "duration": 201}, {"note": 0, "velocity": 0, "duration": 119}, {"note": 75, "velocity": 63, "duration": 113}, {"note": 77, "velocity": 60, "duration": 262}, {"note": 82, "velocity": 56, "duration": 100}, {"note": 79, "velocity": 54, "duration": 565}, {"note": 0, "velocity": 0, "duration": 235}, {"note": 79, "velocity": 62, "duration": 120}, {"note": 82, "velocity": 58, "duration": 229}, {"note": 0, "velocity": 0, "duration": 251}, {"note": 82, "velocity": 59, "duration": 113}, {"note": 79, "velocity": 60, "duration": 93}, {"note": 0, "velocity": 0, "duration": 67}, {"note": 82, "velocity": 60, "duration": 100}, {"note": 84, "velocity": 59, "duration": 256}, {"note": 0, "velocity": 0, "duration": 64}, {"note": 84, "velocity": 58, "duration": 110}, {"note": 79, "velocity": 58, "duration": 248}, {"note": 0, "velocity": 0, "duration": 72}, {"note": 77, "velocity": 53, "duration": 137}, {"note": 75, "velocity": 63, "duration": 221}, {"note": 0, "velocity": 0, "duration": 99}, {"note": 70, "velocity": 60, "duration": 84}, {"note": 0, "velocity": 0, "duration": 76}, {"note": 77, "velocity": 58, "duration": 270}, {"note": 79, "velocity": 59, "duration": 123}, {"note": 77, "velocity": 62, "duration": 180}, {"note": 75, "velocity": 62, "duration": 582}, {"note": 72, "velocity": 59, "duration": 41}, {"note": 72, "velocity": 58, "duration": 56}, {"note": 75, "velocity": 65, "duration": 239}, {"note": 0, "velocity": 0, "duration": 81}, {"note": 75, "velocity": 62, "duration": 109}, {"note": 77, "velocity": 59, "duration": 160}, {"note": 77, "velocity": 59, "duration": 160}, {"note": 82, "velocity": 59, "duration": 92}, {"note": 0, "velocity": 0, "duration": 68}, {"note": 79, "velocity": 58, "duration": 427}, {"note": 0, "velocity": 0, "duration": 373}, {"note": 79, "velocity": 67, "duration": 62}, {"note": 82, "velocity": 59, "duration": 46}, {"note": 84, "velocity": 57, "duration": 240}, {"note": 0, "velocity": 0, "duration": 80}, {"note": 82, "velocity": 58, "duration": 108}, {"note": 84, "velocity": 57, "duration": 98}, {"note": 0, "velocity": 0, "duration": 62}, {"note": 82, "velocity": 59, "duration": 80}, {"note": 79, "velocity": 59, "duration": 80}, {"note": 77, "velocity": 58, "duration": 129}, {"note": 79, "velocity": 59, "duration": 433}, {"note": 0, "velocity": 0, "duration": 367}, {"note": 75, "velocity": 67, "duration": 131}, {"note": 77, "velocity": 62, "duration": 151}, {"note": 0, "velocity": 0, "duration": 169}, {"note": 75, "velocity": 67, "duration": 112}, {"note": 77, "velocity": 64, "duration": 128}, {"note": 75, "velocity": 63, "duration": 126}, {"note": 72, "velocity": 60, "duration": 102}, {"note": 77, "velocity": 59, "duration": 253}, {"note": 0, "velocity": 0, "duration": 67}, {"note": 79, "velocity": 58, "duration": 160}, {"note": 77, "velocity": 58, "duration": 210}, {"note": 0, "velocity": 0, "duration": 110}, {"note": 75, "velocity": 69, "duration": 110}, {"note": 77, "velocity": 60, "duration": 109}, {"note": 77, "velocity": 58, "duration": 80}, {"note": 0, "velocity": 0, "duration": 80}, {"note": 77, "velocity": 59, "duration": 90}, {"note": 0, "velocity": 0, "duration": 70}, {"note": 77, "velocity": 65, "duration": 103}, {"note": 79, "velocity": 61, "duration": 109}, {"note": 84, "velocity": 59, "duration": 99}, {"note": 0, "velocity": 0, "duration": 61}, {"note": 82, "velocity": 58, "duration": 1131}, {"note": 0, "velocity": 0, "duration": 4469}, {"note": 79, "velocity": 62, "duration": 126}, {"note": 82, "velocity": 58, "duration": 189}, {"note": 0, "velocity": 0, "duration": 131}, {"note": 82, "velocity": 54, "duration": 65}, {"note": 0, "velocity": 0, "duration": 95}, {"note": 82, "velocity": 59, "duration": 90}, {"note": 0, "velocity": 0, "duration": 70}, {"note": 79, "velocity": 61, "duration": 95}, {"note": 0, "velocity": 0, "duration": 65}, {"note": 82, "velocity": 62, "duration": 94}, {"note": 0, "velocity": 0, "duration": 66}, {"note": 84, "velocity": 60, "duration": 225}, {"note": 0, "velocity": 0, "duration": 95}, {"note": 84, "velocity": 60, "duration": 88}, {"note": 0, "velocity": 0, "duration": 72}, {"note": 79, "velocity": 64, "duration": 252}, {"note": 0, "velocity": 0, "duration": 68}, {"note": 77, "velocity": 58, "duration": 110}, {"note": 75, "velocity": 60, "duration": 201}, {"note": 0, "velocity": 0, "duration": 119}, {"note": 75, "velocity": 63, "duration": 113}, {"note": 77, "velocity": 60, "duration": 262}, {"note": 82, "velocity": 56, "duration": 100}, {"note": 79, "velocity": 54, "duration": 565}, {"note": 0, "velocity": 0, "duration": 235}, {"note": 79, "velocity": 62, "duration": 120}, {"note": 82, "velocity": 58, "duration": 229}, {"note": 0, "velocity": 0, "duration": 251}, {"note": 82, "velocity": 59, "duration": 113}, {"note": 79, "velocity": 60, "duration": 93}, {"note": 0, "velocity": 0, "duration": 67}, {"note": 82, "velocity": 60, "duration": 100}, {"note": 84, "velocity": 59, "duration": 256}, {"note": 0, "velocity": 0, "duration": 64}, {"note": 84, "velocity": 58, "duration": 110}, {"note": 79, "velocity": 58, "duration": 248}, {"note": 0, "velocity": 0, "duration": 72}, {"note": 77, "velocity": 53, "duration": 137}, {"note": 75, "velocity": 63, "duration": 221}, {"note": 0, "velocity": 0, "duration": 99}, {"note": 70, "velocity": 60, "duration": 84}, {"note": 0, "velocity": 0, "duration": 76}, {"note": 77, "velocity": 58, "duration": 270}, {"note": 79, "velocity": 59, "duration": 123}, {"note": 77, "velocity": 62, "duration": 180}, {"note": 75, "velocity": 62, "duration": 582}]]