[[{"note": 80, "velocity": 92, "duration": 91}, {"note": 78, "velocity": 89, "duration": 95}, {"note": 77, "velocity": 92, "duration": 86}, {"note": 73, "velocity": 92, "duration": 80}, {"note": 75, "velocity": 99, "duration": 186}, {"note": 77, "velocity": 90, "duration": 74}, {"note": 73, "velocity": 90, "duration": 534}, {"note": 0, "velocity": 0, "duration": 546}, {"note": 80, "velocity": 89, "duration": 73}, {"note": 78, "velocity": 82, "duration": 105}, {"note": 77, "velocity": 91, "duration": 89}, {"note": 73, "velocity": 90, "duration": 86}, {"note": 75, "velocity": 94, "duration": 184}, {"note": 77, "velocity": 89, "duration": 63}, {"note": 77, "velocity": 89, "duration": 696}, {"note": 0, "velocity": 0, "duration": 384}, {"note": 80, "velocity": 89, "duration": 81}, {"note": 78, "velocity": 86, "duration": 91}, {"note": 77, "velocity": 92, "duration": 93}, {"note": 73, "velocity": 89, "duration": 76}, {"note": 75, "velocity": 94, "duration": 187}, {"note": 77, "velocity": 88, "duration": 81}, {"note": 73, "velocity": 90, "duration": 371}, {"note": 0, "velocity": 0, "duration": 229}, {"note": 75, "velocity": 91, "duration": 168}, {"note": 0, "velocity": 0, "duration": 72}, {"note": 77, "velocity": 89, "duration": 68}, {"note": 73, "velocity": 89, "duration": 300}, {"note": 68, "velocity": 91, "duration": 169}, {"note": 0, "velocity": 0, "duration": 71}, {"note": 75, "velocity": 92, "duration": 180}, {"note": 77, "velocity": 88, "duration": 77}, {"note": 77, "velocity": 88, "duration": 827}, {"note": 0, "velocity": 0, "duration": 253}, {"note": 80, "velocity": 90, "duration": 98}, {"note": 78, "velocity": 84, "duration": 94}, {"note": 77, "velocity": 93, "duration": 95}, {"note": 73, "velocity": 90, "duration": 90}, {"note": 75, "velocity": 91, "duration": 195}, {"note": 77, "velocity": 89, "duration": 60}, {"note": 73, "velocity": 85, "duration": 552}, {"note": 0, "velocity": 0, "duration": 528}, {"note": 80, "velocity": 89, "duration": 86}, {"note": 78, "velocity": 86, "duration": 101}, {"note": 77, "velocity": 92, "duration": 96}, {"note": 73, "velocity": 90, "duration": 81}, {"note": 75, "velocity": 94, "duration": 186}, {"note": 77, "velocity": 90, "duration": 70}, {"note": 77, "velocity": 87, "duration": 794}, {"note": 0, "velocity": 0, "duration": 286}, {"note": 80, "velocity": 90, "duration": 79}, {"note": 78, "velocity": 84, "duration": 91}, {"note": 77, "velocity": 92, "duration": 101}, {"note": 73, "velocity": 87, "duration": 79}, {"note": 75, "velocity": 95, "duration": 189}, {"note": 77, "velocity": 90, "duration": 65}, {"note": 73, "velocity": 87, "duration": 337}, {"note": 0, "velocity": 0, "duration": 263}, {"note": 75, "velocity": 92, "duration": 168}, {"note": 0, "velocity": 0, "duration": 72}, {"note": 77, "velocity": 94, "duration": 74}, {"note": 73, "velocity": 89, "duration": 346}, {"note": 70, "velocity": 89, "duration": 89}, {"note": 73, "velocity": 91, "duration": 799}, {"note": 0, "velocity": 0, "duration": 881}, {"note": 70, "velocity": 91, "duration": 194}, {"note": 72, "velocity": 90, "duration": 94}, {"note": 73, "velocity": 90, "duration": 413}, {"note": 0, "velocity": 0, "duration": 67}, {"note": 73, "velocity": 91, "duration": 193}, {"note": 72, "velocity": 88, "duration": 77}, {"note": 73, "velocity": 89, "duration": 699}, {"note": 70, "velocity": 93, "duration": 185}, {"note": 72, "velocity": 89, "duration": 83}, {"note": 73, "velocity": 90, "duration": 401}, {"note": 0, "velocity": 0, "duration": 79}, {"note": 73, "velocity": 91, "duration": 211}, {"note": 72, "velocity": 88, "duration": 80}, {"note": 73, "velocity": 91, "duration": 646}, {"note": 0, "velocity": 0, "duration": 434}, {"note": 78, "velocity": 89, "duration": 202}, {"note": 77, "velocity": 89, "duration": 190}, {"note": 75, "velocity": 92, "duration": 197}, {"note": 73, "velocity": 90, "duration": 84}, {"note": 80, "velocity": 92, "duration": 355}, {"note": 77, "velocity": 89, "duration": 175}, {"note": 0, "velocity": 0, "duration": 65}, {"note": 77, "velocity": 90, "duration": 108}, {"note": 82, "velocity": 90, "duration": 244}, {"note": 75, "velocity": 90, "duration": 897}, {"note": 0, "velocity": 0, "duration": 903}, {"note": 77, "velocity": 92, "duration": 95}, {"note": 78, "velocity": 88, "duration": 75}, {"note": 80, "velocity": 90, "duration": 168}, {"note": 0, "velocity": 0, "duration": 72}, {"note": 80, "velocity": 88, "duration": 67}, {"note": 80, "velocity": 88, "duration": 177}, {"note": 0, "velocity": 0, "duration": 63}, {"note": 80, "velocity": 90, "duration": 197}, {"note": 80, "velocity": 89, "duration": 145}, {"note": 0, "velocity": 0, "duration": 95}, {"note": 80, "velocity": 89, "duration": 149}, {"note": 0, "velocity": 0, "duration": 91}, {"note": 80, "velocity": 90, "duration": 178}, {"note": 0, "velocity": 0, "duration": 62}, {"note": 80, "velocity": 89, "duration": 187}, {"note": 80, "velocity": 88, "duration": 177}, {"note": 0, "velocity": 0, "duration": 63}, {"note": 82, "velocity": 92, "duration": 183}, {"note": 78, "velocity": 89, "duration": 157}, {"note": 0, "velocity": 0, "duration": 83}, {"note": 77, "velocity": 90, "duration": 204}, {"note": 78, "velocity": 90, "duration": 457}, {"note": 0, "velocity": 0, "duration": 383}, {"note": 73, "velocity": 90, "duration": 68}, {"note": 75, "velocity": 95, "duration": 98}, {"note": 77, "velocity": 93, "duration": 80}, {"note": 77, "velocity": 89, "duration": 189}, {"note": 77, "velocity": 94, "duration": 187}, {"note": 77, "velocity": 92, "duration": 185}, {"note": 77, "velocity": 92, "duration": 163}, {"note": 0, "velocity": 0, "duration": 77}, {"note": 77, "velocity": 91, "duration": 188}, {"note": 77, "velocity": 91, "duration": 170}, {"note": 0, "velocity": 0, "duration": 70}, {"note": 77, "velocity": 94, "duration": 140}, {"note": 0, "velocity": 0, "duration": 100}, {"note": 77, "velocity": 95, "duration": 211}, {"note": 82, "velocity": 91, "duration": 170}, {"note": 0, "velocity": 0, "duration": 70}, {"note": 75, "velocity": 94, "duration": 216}, {"note": 73, "velocity": 92, "duration": 215}, {"note": 77, "velocity": 91, "duration": 120}, {"note": 73, "velocity": 86, "duration": 120}, {"note": 75, "velocity": 90, "duration": 374}, {"note": 0, "velocity": 0, "duration": 226}, {"note": 77, "velocity": 92, "duration": 84}, {"note": 78, "velocity": 85, "duration": 75}, {"note": 80, "velocity": 90, "duration": 175}, {"note": 0, "velocity": 0, "duration": 65}, {"note": 80, "velocity": 89, "duration": 77}, {"note": 73, "velocity": 90, "duration": 193}, {"note": 70, "velocity": 94, "duration": 158}, {"note": 0, "velocity": 0, "duration": 202}, {"note": 80, "velocity": 90, "duration": 178}, {"note": 0, "velocity": 0, "duration": 62}, {"note": 80, "velocity": 92, "duration": 92}, {"note": 73, "velocity": 92, "duration": 221}, {"note": 70, "velocity": 92, "duration": 256}, {"note": 0, "velocity": 0, "duration": 104}, {"note": 75, "velocity": 102, "duration": 168}, {"note": 0, "velocity": 0, "duration": 72}, {"note": 75, "velocity": 95, "duration": 120}, {"note": 77, "velocity": 92, "duration": 219}, {"note": 70, "velocity": 93, "duration": 165}, {"note": 0, "velocity": 0, "duration": 75}, {"note": 73, "velocity": 99, "duration": 377}, {"note": 0, "velocity": 0, "duration": 223}, {"note": 75, "velocity": 95, "duration": 162}, {"note": 0, "velocity": 0, "duration": 78}, {"note": 77, "velocity": 93, "duration": 89}, {"note": 73, "velocity": 94, "duration": 494}, {"note": 0, "velocity": 0, "duration": 106}, {"note": 75, "velocity": 95, "duration": 111}, {"note": 0, "velocity": 0, "duration": 129}, {"note": 77, "velocity": 92, "duration": 93}, {"note": 75, "velocity": 95, "duration": 408}, {"note": 0, "velocity": 0, "duration": 72}, {"note": 68, "velocity": 90, "duration": 92}, {"note": 80, "velocity": 84, "duration": 154}, {"note": 0, "velocity": 0, "duration": 86}, {"note": 77, "velocity": 90, "duration": 183}, {"note": 77, "velocity": 90, "duration": 93}, {"note": 73, "velocity": 86, "duration": 794}, {"note": 0, "velocity": 0, "duration": 2446}, {"note": 80, "velocity": 90, "duration": 98}, {"note": 78, "velocity": 84, "duration": 94}, {"note": 77, "velocity": 93, "duration": 95}, {"note": 73, "velocity": 90, "duration": 90}, {"note": 75, "velocity": 91, "duration": 195}, {"note": 77, "velocity": 89, "duration": 60}, {"note": 73, "velocity": 85, "duration": 552}, {"note": 0, "velocity": 0, "duration": 528}, {"note": 80, "velocity": 89, "duration": 86}, {"note": 78, "velocity": 86, "duration": 101}, {"note": 77, "velocity": 92, "duration": 96}, {"note": 73, "velocity": 90, "duration": 81}, {"note": 75, "velocity": 94, "duration": 186}, {"note": 77, "velocity": 90, "duration": 70}, {"note": 77, "velocity": 87, "duration": 794}, {"note": 0, "velocity": 0, "duration": 286}, {"note": 80, "velocity": 90, "duration": 79}, {"note": 78, "velocity": 84, "duration": 91}, {"note": 77, "velocity": 92, "duration": 101}, {"note": 73, "velocity": 87, "duration": 79}, {"note": 75, "velocity": 95, "duration": 189}, {"note": 77, "velocity": 90, "duration": 65}, {"note": 73, "velocity": 87, "duration": 337}, {"note": 0, "velocity": 0, "duration": 263}, {"note": 75, "velocity": 92, "duration": 168}, {"note": 0, "velocity": 0, "duration": 72}, {"note": 77, "velocity": 94, "duration": 74}, {"note": 73, "velocity": 89, "duration": 346}, {"note": 70, "velocity": 89, "duration": 89}, {"note": 73, "velocity": 91, "duration": 799}, {"note": 0, "velocity": 0, "duration": 881}, {"note": 70, "velocity": 91, "duration": 194}, {"note": 72, "velocity": 90, "duration": 94}, {"note": 73, "velocity": 90, "duration": 413}, {"note": 0, "velocity": 0, "duration": 67}, {"note": 73, "velocity": 91, "duration": 193}, {"note": 72, "velocity": 88, "duration": 77}, {"note": 73, "velocity": 89, "duration": 699}, {"note": 70, "velocity": 93, "duration": 185}, {"note": 72, "velocity": 89, "duration": 83}, {"note": 73, "velocity": 90, "duration": 401}, {"note": 0, "velocity": 0, "duration": 79}, {"note": 73, "velocity": 91, "duration": 211}, {"note": 72, "velocity": 88, "duration": 80}, {"note": 73, "velocity": 91, "duration": 646}, {"note": 0, "velocity": 0, "duration": 434}, {"note": 78, "velocity": 89, "duration": 202}, {"note": 77, "velocity": 89, "duration": 190}, {"note": 75, "velocity": 92, "duration": 197}, {"note": 73, "velocity": 90, "duration": 84}, {"note": 80, "velocity": 92, "duration": 355}, {"note": 77, "velocity": 89, "duration": 175}, {"note": 0, "velocity": 0, "duration": 65}, {"note": 77, "velocity": 90, "duration": 108}, {"note": 82, "velocity": 90, "duration": 244}, {"note": 75, "velocity": 90, "duration": 897}, {"note": 0, "velocity": 0, "duration": 903}, {"note": 77, "velocity": 92, "duration": 95}, {"note": 78, "velocity": 88, "duration": 75}, {"note": 80, "velocity": 90, "duration": 168}, {"note": 0, "velocity": 0, "duration": 72}, {"note": 80, "velocity": 88, "duration": 67}, {"note": 80, "velocity": 88, "duration": 177}, {"note": 0, "velocity": 0, "duration": 63}, {"note": 80, "velocity": 90, "duration": 197}, {"note": 80, "velocity": 89, "duration": 145}, {"note": 0, "velocity": 0, "duration": 95}, {"note": 80, "velocity": 89, "duration": 149}, {"note": 0, "velocity": 0, "duration": 91}, {"note": 80, "velocity": 90, "duration": 178}, {"note": 0, "velocity": 0, "duration": 62}, {"note": 80, "velocity": 89, "duration": 187}, {"note": 80, "velocity": 88, "duration": 177}, {"note": 0, "velocity": 0, "duration": 63}, {"note": 82, "velocity": 92, "duration": 183}, {"note": 78, "velocity": 89, "duration": 157}, {"note": 0, "velocity": 0, "duration": 83}, {"note": 77, "velocity": 90, "duration": 204}, {"note": 78, "velocity": 90, "duration": 457}, {"note": 0, "velocity": 0, "duration": 383}, {"note": 73, "velocity": 90, "duration": 68}, {"note": 75, "velocity": 95, "duration": 98}, {"note": 77, "velocity": 93, "duration": 80}, {"note": 77, "velocity": 89, "duration": 189}, {"note": 77, "velocity": 94, "duration": 187}, {"note": 77, "velocity": 92, "duration": 185}, {"note": 77, "velocity": 92, "duration": 163}, {"note": 0, "velocity": 0, "duration": 77}, {"note": 77, "velocity": 91, "duration": 188}, {"note": 77, "velocity": 91, "duration": 170}, {"note": 0, "velocity": 0, "duration": 70}, {"note": 77, "velocity": 94, "duration": 140}, {"note": 0, "velocity": 0, "duration": 100}, {"note": 77, "velocity": 95, "duration": 211}, {"note": 82, "velocity": 91, "duration": 170}, {"note": 0, "velocity": 0, "duration": 70}, {"note": 75, "velocity": 94, "duration": 216}, {"note": 73, "velocity": 92, "duration": 215}, {"note": 77, "velocity": 91, "duration": 120}, {"note": 73, "velocity": 86, "duration": 120}, {"note": 75, "velocity": 90, "duration": 374}, {"note": 0, "velocity": 0, "duration": 226}, {"note": 77, "velocity": 92, "duration": 84}, {"note": 78, "velocity": 85, "duration": 75}, {"note": 80, "velocity": 90, "duration": 175}, {"note": 0, "velocity": 0, "duration": 65}, {"note": 80, "velocity": 89, "duration": 77}, {"note": 73, "velocity": 90, "duration": 193}, {"note": 70, "velocity": 94, "duration": 158}, {"note": 0, "velocity": 0, "duration": 202}, {"note": 80, "velocity": 90, "duration": 178}, {"note": 0, "velocity": 0, "duration": 62}, {"note": 80, "velocity": 92, "duration": 92}, {"note": 73, "velocity": 92, "duration": 221}, {"note": 70, "velocity": 92, "duration": 256}, {"note": 0, "velocity": 0, "duration": 104}, {"note": 75, "velocity": 102, "duration": 168}, {"note": 0, "velocity": 0, "duration": 72}, {"note": 75, "velocity": 95, "duration": 120}, {"note": 77, "velocity": 92, "duration": 219}, {"note": 70, "velocity": 93, "duration": 165}, {"note": 0, "velocity": 0, "duration": 75}, {"note": 73, "velocity": 99, "duration": 377}, {"note": 0, "velocity": 0, "duration": 223}, {"note": 75, "velocity": 95, "duration": 162}, {"note": 0, "velocity": 0, "duration": 78}, {"note": 77, "velocity": 93, "duration": 89}, {"note": 73, "velocity": 94, "duration": 494}, {"note": 0, "velocity": 0, "duration": 106}, {"note": 75, "velocity": 95, "duration": 111}, {"note": 0, "velocity": 0, "duration": 129}, {"note": 77, "velocity": 92, "duration": 93}, {"note": 75, "velocity": 95, "duration": 408}, {"note": 0, "velocity": 0, "duration": 72}, {"note": 68, "velocity": 90, "duration": 92}, {"note": 80, "velocity": 84, "duration": 154}, {"note": 0, "velocity": 0, "duration": 86}, {"note": 77, "velocity": 90, "duration": 183}, {"note": 77, "velocity": 90, "duration": 93}, {"note": 73, "velocity": 86, "duration": 794}, {"note": 0, "velocity": 0, "duration": 6526}, {"note": 77, "velocity": 92, "duration": 95}, {"note": 78, "velocity": 88, "duration": 75}, {"note": 80, "velocity": 90, "duration": 168}, {"note": 0, "velocity": 0, "duration": 72}, {"note": 80, "velocity": 88, "duration": 67}, {"note": 80, "velocity": 88, "duration": 177}, {"note": 0, "velocity": 0, "duration": 63}, {"note": 80, "velocity": 90, "duration": 197}, {"note": 80, "velocity": 89, "duration": 145}, {"note": 0, "velocity": 0, "duration": 95}, {"note": 80, "velocity": 89, "duration": 149}, {"note": 0, "velocity": 0, "duration": 91}, {"note": 80, "velocity": 90, "duration": 178}, {"note": 0, "velocity": 0, "duration": 62}, {"note": 80, "velocity": 89, "duration": 187}, {"note": 80, "velocity": 88, "duration": 177}, {"note": 0, "velocity": 0, "duration": 63}, {"note": 82, "velocity": 92, "duration": 183}, {"note": 78, "velocity": 89, "duration": 157}, {"note": 0, "velocity": 0, "duration": 83}, {"note": 77, "velocity": 90, "duration": 204}, {"note": 78, "velocity": 90, "duration": 457}, {"note": 0, "velocity": 0, "duration": 383}, {"note": 73, "velocity": 90, "duration": 68}, {"note": 75, "velocity": 95, "duration": 98}, {"note": 77, "velocity": 93, "duration": 80}, {"note": 77, "velocity": 89, "duration": 189}, {"note": 77, "velocity": 94, "duration": 187}, {"note": 77, "velocity": 92, "duration": 185}, {"note": 77, "velocity": 92, "duration": 163}, {"note": 0, "velocity": 0, "duration": 77}, {"note": 77, "velocity": 91, "duration": 188}, {"note": 77, "velocity": 91, "duration": 170}, {"note": 0, "velocity": 0, "duration": 70}, {"note": 77, "velocity": 94, "duration": 140}, {"note": 0, "velocity": 0, "duration": 100}, {"note": 77, "velocity": 95, "duration": 211}, {"note": 82, "velocity": 91, "duration": 170}, {"note": 0, "velocity": 0, "duration": 70}, {"note": 75, "velocity": 94, "duration": 216}, {"note": 73, "velocity": 92, "duration": 215}, {"note": 77, "velocity": 91, "duration": 120}, {"note": 73, "velocity": 86, "duration": 120}, {"note": 75, "velocity": 90, "duration": 374}, {"note": 0, "velocity": 0, "duration": 226}, {"note": 77, "velocity": 92, "duration": 84}, {"note": 78, "velocity": 85, "duration": 75}, {"note": 80, "velocity": 90, "duration": 175}, {"note": 0, "velocity": 0, "duration": 65}, {"note": 80, "velocity": 89, "duration": 77}, {"note": 73, "velocity": 90, "duration": 193}, {"note": 70, "velocity": 94, "duration": 158}, {"note": 0, "velocity": 0, "duration": 202}, {"note": 80, "velocity": 90, "duration": 178}, {"note": 0, "velocity": 0, "duration": 62}, {"note": 80, "velocity": 92, "duration": 92}, {"note": 73, "velocity": 92, "duration": 221}, {"note": 70, "velocity": 92, "duration": 256}, {"note": 0, "velocity": 0, "duration": 104}, {"note": 75, "velocity": 102, "duration": 168}, {"note": 0, "velocity": 0, "duration": 72}, {"note": 75, "velocity": 95, "duration": 120}, {"note": 77, "velocity": 92, "duration": 219}, {"note": 70, "velocity": 93, "duration": 165}, {"note": 0, "velocity": 0, "duration": 75}, {"note": 73, "velocity": 99, "duration": 377}, {"note": 0, "velocity": 0, "duration": 223}, {"note": 75, "velocity": 95, "duration": 162}, {"note": 0, "velocity": 0, "duration": 78}, {"note": 77, "velocity": 93, "duration": 89}, {"note": 73, "velocity": 94, "duration": 494}, {"note": 0, "velocity": 0, "duration": 106}, {"note": 75, "velocity": 95, "duration": 111}, {"note": 0, "velocity": 0, "duration": 129}, {"note": 77, "velocity": 92, "duration": 93}, {"note": 75, "velocity": 95, "duration": 408}, {"note": 0, "velocity": 0, "duration": 72}, {"note": 68, "velocity": 90, "duration": 92}, {"note": 80, "velocity": 84, "duration": 154}, {"note": 0, "velocity": 0, "duration": 86}, {"note": 77, "velocity": 90, "duration": 183}, {"note": 77, "velocity": 90, "duration": 93}, {"note": 73, "velocity": 86, "duration": 794}, {"note": 0, "velocity": 0, "duration": 406}, {"note": 75, "velocity": 95, "duration": 164}, {"note": 0, "velocity": 0, "duration": 76}, {"note": 77, "velocity": 89, "duration": 188}, {"note": 73, "velocity": 90, "duration": 407}, {"note": 0, "velocity": 0, "duration": 73}, {"note": 75, "velocity": 99, "duration": 144}, {"note": 0, "velocity": 0, "duration": 96}, {"note": 77, "velocity": 90, "duration": 212}, {"note": 75, "velocity": 90, "duration": 361}, {"note": 68, "velocity": 95, "duration": 169}, {"note": 0, "velocity": 0, "duration": 77}, {"note": 80, "velocity": 92, "duration": 534}, {"note": 0, "velocity": 0, "duration": 170}, {"note": 77, "velocity": 89, "duration": 280}, {"note": 0, "velocity": 0, "duration": 79}, {"note": 77, "velocity": 94, "duration": 84}, {"note": 75, "velocity": 84, "duration": 61}, {"note": 73, "velocity": 89, "duration": 1150}]]