[[{"note": 68, "velocity": 92, "duration": 80}, {"note": 67, "velocity": 94, "duration": 89}, {"note": 65, "velocity": 98, "duration": 138}, {"note": 0, "velocity": 0, "duration": 102}, {"note": 65, "velocity": 95, "duration": 79}, {"note": 63, "velocity": 92, "duration": 68}, {"note": 65, "velocity": 97, "duration": 168}, {"note": 0, "velocity": 0, "duration": 72}, {"note": 63, "velocity": 95, "duration": 134}, {"note": 0, "velocity": 0, "duration": 106}, {"note": 65, "velocity": 95, "duration": 168}, {"note": 0, "velocity": 0, "duration": 72}, {"note": 67, "velocity": 91, "duration": 84}, {"note": 68, "velocity": 91, "duration": 200}, {"note": 68, "velocity": 89, "duration": 66}, {"note": 68, "velocity": 91, "duration": 71}, {"note": 70, "velocity": 94, "duration": 80}, {"note": 72, "velocity": 92, "duration": 206}, {"note": 70, "velocity": 92, "duration": 158}, {"note": 0, "velocity": 0, "duration": 82}, {"note": 72, "velocity": 93, "duration": 175}, {"note": 0, "velocity": 0, "duration": 65}, {"note": 75, "velocity": 97, "duration": 68}, {"note": 72, "velocity": 91, "duration": 449}, {"note": 0, "velocity": 0, "duration": 391}, {"note": 72, "velocity": 93, "duration": 77}, {"note": 70, "velocity": 92, "duration": 73}, {"note": 70, "velocity": 94, "duration": 181}, {"note": 70, "velocity": 91, "duration": 84}, {"note": 68, "velocity": 78, "duration": 70}, {"note": 70, "velocity": 92, "duration": 144}, {"note": 0, "velocity": 0, "duration": 96}, {"note": 70, "velocity": 91, "duration": 80}, {"note": 72, "velocity": 90, "duration": 64}, {"note": 70, "velocity": 92, "duration": 174}, {"note": 0, "velocity": 0, "duration": 66}, {"note": 68, "velocity": 91, "duration": 79}, {"note": 65, "velocity": 93, "duration": 207}, {"note": 0, "velocity": 0, "duration": 153}, {"note": 65, "velocity": 92, "duration": 84}, {"note": 67, "velocity": 95, "duration": 69}, {"note": 68, "velocity": 91, "duration": 282}, {"note": 0, "velocity": 0, "duration": 78}, {"note": 68, "velocity": 90, "duration": 60}, {"note": 68, "velocity": 92, "duration": 240}, {"note": 0, "velocity": 0, "duration": 120}, {"note": 65, "velocity": 96, "duration": 120}, {"note": 63, "velocity": 94, "duration": 720}, {"note": 68, "velocity": 92, "duration": 80}, {"note": 67, "velocity": 94, "duration": 89}, {"note": 65, "velocity": 98, "duration": 138}, {"note": 0, "velocity": 0, "duration": 102}, {"note": 65, "velocity": 95, "duration": 79}, {"note": 63, "velocity": 92, "duration": 68}, {"note": 65, "velocity": 97, "duration": 168}, {"note": 0, "velocity": 0, "duration": 72}, {"note": 63, "velocity": 95, "duration": 134}, {"note": 0, "velocity": 0, "duration": 106}, {"note": 65, "velocity": 95, "duration": 168}, {"note": 0, "velocity": 0, "duration": 72}, {"note": 67, "velocity": 91, "duration": 84}, {"note": 68, "velocity": 91, "duration": 200}, {"note": 68, "velocity": 89, "duration": 66}, {"note": 68, "velocity": 91, "duration": 71}, {"note": 70, "velocity": 94, "duration": 80}, {"note": 72, "velocity": 92, "duration": 206}, {"note": 70, "velocity": 92, "duration": 158}, {"note": 0, "velocity": 0, "duration": 82}, {"note": 72, "velocity": 93, "duration": 175}, {"note": 0, "velocity": 0, "duration": 65}, {"note": 75, "velocity": 97, "duration": 68}, {"note": 72, "velocity": 91, "duration": 449}, {"note": 0, "velocity": 0, "duration": 391}, {"note": 72, "velocity": 93, "duration": 77}, {"note": 75, "velocity": 92, "duration": 73}, {"note": 70, "velocity": 94, "duration": 181}, {"note": 70, "velocity": 91, "duration": 84}, {"note": 68, "velocity": 78, "duration": 70}, {"note": 70, "velocity": 92, "duration": 144}, {"note": 0, "velocity": 0, "duration": 96}, {"note": 70, "velocity": 91, "duration": 80}, {"note": 72, "velocity": 90, "duration": 64}, {"note": 70, "velocity": 92, "duration": 174}, {"note": 0, "velocity": 0, "duration": 66}, {"note": 68, "velocity": 91, "duration": 79}, {"note": 65, "velocity": 93, "duration": 207}, {"note": 0, "velocity": 0, "duration": 153}, {"note": 65, "velocity": 92, "duration": 84}, {"note": 67, "velocity": 95, "duration": 69}, {"note": 68, "velocity": 91, "duration": 282}, {"note": 0, "velocity": 0, "duration": 78}, {"note": 67, "velocity": 90, "duration": 60}, {"note": 65, "velocity": 92, "duration": 240}, {"note": 63, "velocity": 96, "duration": 240}, {"note": 65, "velocity": 94, "duration": 720}, {"note": 68, "velocity": 93, "duration": 71}, {"note": 70, "velocity": 91, "duration": 74}, {"note": 72, "velocity": 95, "duration": 326}, {"note": 70, "velocity": 97, "duration": 77}, {"note": 72, "velocity": 100, "duration": 189}, {"note": 77, "velocity": 96, "duration": 196}, {"note": 75, "velocity": 98, "duration": 578}, {"note": 0, "velocity": 0, "duration": 142}, {"note": 72, "velocity": 98, "duration": 73}, {"note": 75, "velocity": 102, "duration": 62}, {"note": 77, "velocity": 97, "duration": 178}, {"note": 0, "velocity": 0, "duration": 62}, {"note": 77, "velocity": 95, "duration": 74}, {"note": 75, "velocity": 107, "duration": 69}, {"note": 77, "velocity": 98, "duration": 284}, {"note": 0, "velocity": 0, "duration": 76}, {"note": 75, "velocity": 98, "duration": 207}, {"note": 72, "velocity": 92, "duration": 462}, {"note": 0, "velocity": 0, "duration": 138}, {"note": 72, "velocity": 98, "duration": 81}, {"note": 75, "velocity": 100, "duration": 72}, {"note": 77, "velocity": 96, "duration": 163}, {"note": 0, "velocity": 0, "duration": 77}, {"note": 77, "velocity": 95, "duration": 84}, {"note": 75, "velocity": 98, "duration": 57}, {"note": 0, "velocity": 0, "duration": 63}, {"note": 77, "velocity": 98, "duration": 193}, {"note": 75, "velocity": 102, "duration": 166}, {"note": 0, "velocity": 0, "duration": 74}, {"note": 72, "velocity": 93, "duration": 159}, {"note": 0, "velocity": 0, "duration": 81}, {"note": 72, "velocity": 96, "duration": 76}, {"note": 70, "velocity": 93, "duration": 78}, {"note": 72, "velocity": 93, "duration": 166}, {"note": 0, "velocity": 0, "duration": 74}, {"note": 72, "velocity": 97, "duration": 88}, {"note": 75, "velocity": 98, "duration": 71}, {"note": 77, "velocity": 97, "duration": 169}, {"note": 0, "velocity": 0, "duration": 71}, {"note": 77, "velocity": 95, "duration": 94}, {"note": 75, "velocity": 105, "duration": 69}, {"note": 77, "velocity": 97, "duration": 194}, {"note": 80, "velocity": 95, "duration": 197}, {"note": 79, "velocity": 95, "duration": 558}, {"note": 72, "velocity": 97, "duration": 97}, {"note": 80, "velocity": 91, "duration": 77}, {"note": 79, "velocity": 95, "duration": 84}, {"note": 77, "velocity": 98, "duration": 176}, {"note": 0, "velocity": 0, "duration": 64}, {"note": 75, "velocity": 107, "duration": 157}, {"note": 0, "velocity": 0, "duration": 83}, {"note": 72, "velocity": 102, "duration": 152}, {"note": 0, "velocity": 0, "duration": 88}, {"note": 70, "velocity": 91, "duration": 120}, {"note": 72, "velocity": 95, "duration": 523}, {"note": 0, "velocity": 0, "duration": 197}, {"note": 72, "velocity": 102, "duration": 67}, {"note": 80, "velocity": 93, "duration": 67}, {"note": 79, "velocity": 97, "duration": 78}, {"note": 77, "velocity": 102, "duration": 171}, {"note": 0, "velocity": 0, "duration": 69}, {"note": 75, "velocity": 102, "duration": 129}, {"note": 0, "velocity": 0, "duration": 111}, {"note": 72, "velocity": 102, "duration": 140}, {"note": 0, "velocity": 0, "duration": 100}, {"note": 70, "velocity": 95, "duration": 62}, {"note": 72, "velocity": 98, "duration": 639}, {"note": 0, "velocity": 0, "duration": 201}, {"note": 72, "velocity": 93, "duration": 75}, {"note": 75, "velocity": 97, "duration": 61}, {"note": 70, "velocity": 93, "duration": 183}, {"note": 72, "velocity": 92, "duration": 66}, {"note": 70, "velocity": 95, "duration": 244}, {"note": 0, "velocity": 0, "duration": 116}, {"note": 68, "velocity": 96, "duration": 62}, {"note": 70, "velocity": 98, "duration": 59}, {"note": 0, "velocity": 0, "duration": 61}, {"note": 72, "velocity": 93, "duration": 178}, {"note": 0, "velocity": 0, "duration": 62}, {"note": 75, "velocity": 97, "duration": 82}, {"note": 72, "velocity": 95, "duration": 282}, {"note": 0, "velocity": 0, "duration": 78}, {"note": 72, "velocity": 95, "duration": 89}, {"note": 75, "velocity": 100, "duration": 66}, {"note": 77, "velocity": 93, "duration": 89}, {"note": 77, "velocity": 93, "duration": 198}, {"note": 75, "velocity": 102, "duration": 62}, {"note": 77, "velocity": 98, "duration": 198}, {"note": 80, "velocity": 96, "duration": 69}, {"note": 79, "velocity": 97, "duration": 679}, {"note": 72, "velocity": 97, "duration": 97}, {"note": 80, "velocity": 91, "duration": 77}, {"note": 79, "velocity": 95, "duration": 84}, {"note": 77, "velocity": 98, "duration": 176}, {"note": 0, "velocity": 0, "duration": 64}, {"note": 75, "velocity": 107, "duration": 157}, {"note": 0, "velocity": 0, "duration": 83}, {"note": 72, "velocity": 102, "duration": 152}, {"note": 0, "velocity": 0, "duration": 88}, {"note": 70, "velocity": 91, "duration": 120}, {"note": 72, "velocity": 95, "duration": 523}, {"note": 0, "velocity": 0, "duration": 197}, {"note": 72, "velocity": 102, "duration": 67}, {"note": 80, "velocity": 93, "duration": 67}, {"note": 79, "velocity": 97, "duration": 78}, {"note": 77, "velocity": 102, "duration": 171}, {"note": 0, "velocity": 0, "duration": 69}, {"note": 75, "velocity": 102, "duration": 129}, {"note": 0, "velocity": 0, "duration": 111}, {"note": 72, "velocity": 102, "duration": 140}, {"note": 0, "velocity": 0, "duration": 100}, {"note": 75, "velocity": 95, "duration": 62}, {"note": 72, "velocity": 98, "duration": 639}, {"note": 0, "velocity": 0, "duration": 201}, {"note": 72, "velocity": 93, "duration": 75}, {"note": 75, "velocity": 97, "duration": 61}, {"note": 70, "velocity": 93, "duration": 183}, {"note": 72, "velocity": 92, "duration": 66}, {"note": 70, "velocity": 95, "duration": 244}, {"note": 0, "velocity": 0, "duration": 116}, {"note": 68, "velocity": 96, "duration": 62}, {"note": 70, "velocity": 98, "duration": 59}, {"note": 0, "velocity": 0, "duration": 61}, {"note": 72, "velocity": 93, "duration": 178}, {"note": 0, "velocity": 0, "duration": 62}, {"note": 75, "velocity": 97, "duration": 82}, {"note": 72, "velocity": 95, "duration": 282}, {"note": 0, "velocity": 0, "duration": 78}, {"note": 72, "velocity": 95, "duration": 89}, {"note": 75, "velocity": 100, "duration": 66}, {"note": 77, "velocity": 93, "duration": 89}, {"note": 77, "velocity": 93, "duration": 198}, {"note": 75, "velocity": 102, "duration": 62}, {"note": 77, "velocity": 98, "duration": 198}, {"note": 80, "velocity": 96, "duration": 69}, {"note": 79, "velocity": 97, "duration": 600}, {"note": 80, "velocity": 93, "duration": 327}, {"note": 79, "velocity": 91, "duration": 347}, {"note": 77, "velocity": 94, "duration": 1613}, {"note": 0, "velocity": 0, "duration": 15187}, {"note": 68, "velocity": 92, "duration": 80}, {"note": 67, "velocity": 94, "duration": 89}, {"note": 65, "velocity": 98, "duration": 138}, {"note": 0, "velocity": 0, "duration": 102}, {"note": 65, "velocity": 95, "duration": 79}, {"note": 63, "velocity": 92, "duration": 68}, {"note": 65, "velocity": 97, "duration": 168}, {"note": 0, "velocity": 0, "duration": 72}, {"note": 63, "velocity": 95, "duration": 134}, {"note": 0, "velocity": 0, "duration": 106}, {"note": 65, "velocity": 95, "duration": 168}, {"note": 0, "velocity": 0, "duration": 72}, {"note": 67, "velocity": 91, "duration": 84}, {"note": 68, "velocity": 91, "duration": 200}, {"note": 68, "velocity": 89, "duration": 66}, {"note": 68, "velocity": 91, "duration": 71}, {"note": 70, "velocity": 94, "duration": 80}, {"note": 72, "velocity": 92, "duration": 206}, {"note": 70, "velocity": 92, "duration": 158}, {"note": 0, "velocity": 0, "duration": 82}, {"note": 72, "velocity": 93, "duration": 175}, {"note": 0, "velocity": 0, "duration": 65}, {"note": 75, "velocity": 97, "duration": 68}, {"note": 72, "velocity": 91, "duration": 449}, {"note": 0, "velocity": 0, "duration": 391}, {"note": 72, "velocity": 93, "duration": 77}, {"note": 75, "velocity": 92, "duration": 73}, {"note": 70, "velocity": 94, "duration": 181}, {"note": 70, "velocity": 91, "duration": 84}, {"note": 68, "velocity": 78, "duration": 70}, {"note": 70, "velocity": 92, "duration": 144}, {"note": 0, "velocity": 0, "duration": 96}, {"note": 70, "velocity": 91, "duration": 80}, {"note": 72, "velocity": 90, "duration": 64}, {"note": 70, "velocity": 92, "duration": 174}, {"note": 0, "velocity": 0, "duration": 66}, {"note": 68, "velocity": 91, "duration": 79}, {"note": 65, "velocity": 93, "duration": 207}, {"note": 0, "velocity": 0, "duration": 153}, {"note": 65, "velocity": 92, "duration": 84}, {"note": 67, "velocity": 95, "duration": 69}, {"note": 68, "velocity": 91, "duration": 282}, {"note": 0, "velocity": 0, "duration": 78}, {"note": 67, "velocity": 90, "duration": 60}, {"note": 65, "velocity": 92, "duration": 240}, {"note": 63, "velocity": 96, "duration": 240}, {"note": 65, "velocity": 94, "duration": 720}, {"note": 68, "velocity": 93, "duration": 71}, {"note": 70, "velocity": 91, "duration": 74}, {"note": 72, "velocity": 95, "duration": 326}, {"note": 70, "velocity": 97, "duration": 77}, {"note": 72, "velocity": 100, "duration": 189}, {"note": 77, "velocity": 96, "duration": 196}, {"note": 75, "velocity": 98, "duration": 578}, {"note": 0, "velocity": 0, "duration": 142}, {"note": 72, "velocity": 98, "duration": 73}, {"note": 75, "velocity": 102, "duration": 62}, {"note": 77, "velocity": 97, "duration": 178}, {"note": 0, "velocity": 0, "duration": 62}, {"note": 77, "velocity": 95, "duration": 74}, {"note": 75, "velocity": 107, "duration": 69}, {"note": 77, "velocity": 98, "duration": 284}, {"note": 0, "velocity": 0, "duration": 76}, {"note": 75, "velocity": 98, "duration": 207}, {"note": 72, "velocity": 92, "duration": 462}, {"note": 0, "velocity": 0, "duration": 138}, {"note": 72, "velocity": 98, "duration": 81}, {"note": 75, "velocity": 100, "duration": 72}, {"note": 77, "velocity": 96, "duration": 163}, {"note": 0, "velocity": 0, "duration": 77}, {"note": 77, "velocity": 95, "duration": 84}, {"note": 75, "velocity": 98, "duration": 57}, {"note": 0, "velocity": 0, "duration": 63}, {"note": 77, "velocity": 98, "duration": 193}, {"note": 75, "velocity": 102, "duration": 166}, {"note": 0, "velocity": 0, "duration": 74}, {"note": 72, "velocity": 93, "duration": 159}, {"note": 0, "velocity": 0, "duration": 81}, {"note": 72, "velocity": 96, "duration": 76}, {"note": 70, "velocity": 93, "duration": 78}, {"note": 72, "velocity": 93, "duration": 166}, {"note": 0, "velocity": 0, "duration": 74}, {"note": 72, "velocity": 97, "duration": 88}, {"note": 75, "velocity": 98, "duration": 71}, {"note": 77, "velocity": 97, "duration": 169}, {"note": 0, "velocity": 0, "duration": 71}, {"note": 77, "velocity": 95, "duration": 94}, {"note": 75, "velocity": 105, "duration": 69}, {"note": 77, "velocity": 97, "duration": 194}, {"note": 80, "velocity": 95, "duration": 197}, {"note": 79, "velocity": 95, "duration": 558}, {"note": 72, "velocity": 97, "duration": 97}, {"note": 80, "velocity": 91, "duration": 77}, {"note": 79, "velocity": 95, "duration": 84}, {"note": 77, "velocity": 98, "duration": 176}, {"note": 0, "velocity": 0, "duration": 64}, {"note": 75, "velocity": 107, "duration": 157}, {"note": 0, "velocity": 0, "duration": 83}, {"note": 72, "velocity": 102, "duration": 152}, {"note": 0, "velocity": 0, "duration": 88}, {"note": 70, "velocity": 91, "duration": 120}, {"note": 72, "velocity": 95, "duration": 523}, {"note": 0, "velocity": 0, "duration": 197}, {"note": 72, "velocity": 102, "duration": 67}, {"note": 80, "velocity": 93, "duration": 67}, {"note": 79, "velocity": 97, "duration": 78}, {"note": 77, "velocity": 102, "duration": 171}, {"note": 0, "velocity": 0, "duration": 69}, {"note": 75, "velocity": 102, "duration": 129}, {"note": 0, "velocity": 0, "duration": 111}, {"note": 72, "velocity": 102, "duration": 140}, {"note": 0, "velocity": 0, "duration": 100}, {"note": 70, "velocity": 95, "duration": 62}, {"note": 72, "velocity": 98, "duration": 639}, {"note": 0, "velocity": 0, "duration": 201}, {"note": 72, "velocity": 93, "duration": 75}, {"note": 75, "velocity": 97, "duration": 61}, {"note": 70, "velocity": 93, "duration": 183}, {"note": 72, "velocity": 92, "duration": 66}, {"note": 70, "velocity": 95, "duration": 244}, {"note": 0, "velocity": 0, "duration": 116}, {"note": 68, "velocity": 96, "duration": 62}, {"note": 70, "velocity": 98, "duration": 59}, {"note": 0, "velocity": 0, "duration": 61}, {"note": 72, "velocity": 93, "duration": 178}, {"note": 0, "velocity": 0, "duration": 62}, {"note": 75, "velocity": 97, "duration": 82}, {"note": 72, "velocity": 95, "duration": 282}, {"note": 0, "velocity": 0, "duration": 78}, {"note": 72, "velocity": 95, "duration": 89}, {"note": 75, "velocity": 100, "duration": 66}, {"note": 77, "velocity": 93, "duration": 89}, {"note": 77, "velocity": 93, "duration": 198}, {"note": 75, "velocity": 102, "duration": 62}, {"note": 77, "velocity": 98, "duration": 198}, {"note": 80, "velocity": 96, "duration": 69}, {"note": 79, "velocity": 97, "duration": 679}, {"note": 72, "velocity": 97, "duration": 97}, {"note": 80, "velocity": 91, "duration": 77}, {"note": 79, "velocity": 95, "duration": 84}, {"note": 77, "velocity": 98, "duration": 176}, {"note": 0, "velocity": 0, "duration": 64}, {"note": 75, "velocity": 107, "duration": 157}, {"note": 0, "velocity": 0, "duration": 83}, {"note": 72, "velocity": 102, "duration": 152}, {"note": 0, "velocity": 0, "duration": 88}, {"note": 70, "velocity": 91, "duration": 120}, {"note": 72, "velocity": 95, "duration": 523}, {"note": 0, "velocity": 0, "duration": 197}, {"note": 72, "velocity": 102, "duration": 67}, {"note": 80, "velocity": 93, "duration": 67}, {"note": 79, "velocity": 97, "duration": 78}, {"note": 77, "velocity": 102, "duration": 171}, {"note": 0, "velocity": 0, "duration": 69}, {"note": 75, "velocity": 102, "duration": 129}, {"note": 0, "velocity": 0, "duration": 111}, {"note": 72, "velocity": 102, "duration": 140}, {"note": 0, "velocity": 0, "duration": 100}, {"note": 75, "velocity": 95, "duration": 62}, {"note": 72, "velocity": 98, "duration": 639}, {"note": 0, "velocity": 0, "duration": 201}, {"note": 72, "velocity": 93, "duration": 75}, {"note": 75, "velocity": 97, "duration": 61}, {"note": 70, "velocity": 93, "duration": 183}, {"note": 72, "velocity": 92, "duration": 66}, {"note": 70, "velocity": 95, "duration": 244}, {"note": 0, "velocity": 0, "duration": 116}, {"note": 68, "velocity": 96, "duration": 62}, {"note": 70, "velocity": 98, "duration": 59}, {"note": 0, "velocity": 0, "duration": 61}, {"note": 72, "velocity": 93, "duration": 178}, {"note": 0, "velocity": 0, "duration": 62}, {"note": 75, "velocity": 97, "duration": 82}, {"note": 72, "velocity": 95, "duration": 282}, {"note": 0, "velocity": 0, "duration": 78}, {"note": 72, "velocity": 95, "duration": 89}, {"note": 75, "velocity": 100, "duration": 66}, {"note": 77, "velocity": 93, "duration": 89}, {"note": 77, "velocity": 93, "duration": 198}, {"note": 75, "velocity": 102, "duration": 62}, {"note": 77, "velocity": 98, "duration": 198}, {"note": 80, "velocity": 96, "duration": 69}, {"note": 79, "velocity": 97, "duration": 600}, {"note": 80, "velocity": 93, "duration": 327}, {"note": 79, "velocity": 91, "duration": 347}, {"note": 77, "velocity": 94, "duration": 1200}, {"note": 0, "velocity": 0, "duration": 120}, {"note": 72, "velocity": 97, "duration": 97}, {"note": 80, "velocity": 91, "duration": 77}, {"note": 79, "velocity": 95, "duration": 84}, {"note": 77, "velocity": 98, "duration": 176}, {"note": 0, "velocity": 0, "duration": 64}, {"note": 75, "velocity": 107, "duration": 157}, {"note": 0, "velocity": 0, "duration": 83}, {"note": 72, "velocity": 102, "duration": 152}, {"note": 0, "velocity": 0, "duration": 88}, {"note": 70, "velocity": 91, "duration": 120}, {"note": 72, "velocity": 95, "duration": 523}, {"note": 0, "velocity": 0, "duration": 197}, {"note": 72, "velocity": 102, "duration": 67}, {"note": 80, "velocity": 93, "duration": 67}, {"note": 79, "velocity": 97, "duration": 78}, {"note": 77, "velocity": 102, "duration": 171}, {"note": 0, "velocity": 0, "duration": 69}, {"note": 75, "velocity": 102, "duration": 129}, {"note": 0, "velocity": 0, "duration": 111}, {"note": 72, "velocity": 102, "duration": 140}, {"note": 0, "velocity": 0, "duration": 100}, {"note": 70, "velocity": 95, "duration": 62}, {"note": 72, "velocity": 98, "duration": 639}, {"note": 0, "velocity": 0, "duration": 201}, {"note": 72, "velocity": 93, "duration": 75}, {"note": 75, "velocity": 97, "duration": 61}, {"note": 70, "velocity": 93, "duration": 183}, {"note": 72, "velocity": 92, "duration": 66}, {"note": 70, "velocity": 95, "duration": 244}, {"note": 0, "velocity": 0, "duration": 116}, {"note": 68, "velocity": 96, "duration": 62}, {"note": 70, "velocity": 98, "duration": 59}, {"note": 0, "velocity": 0, "duration": 61}, {"note": 72, "velocity": 93, "duration": 178}, {"note": 0, "velocity": 0, "duration": 62}, {"note": 75, "velocity": 97, "duration": 82}, {"note": 72, "velocity": 95, "duration": 282}, {"note": 0, "velocity": 0, "duration": 78}, {"note": 72, "velocity": 95, "duration": 89}, {"note": 75, "velocity": 100, "duration": 66}, {"note": 77, "velocity": 93, "duration": 89}, {"note": 77, "velocity": 93, "duration": 198}, {"note": 75, "velocity": 102, "duration": 62}, {"note": 77, "velocity": 98, "duration": 198}, {"note": 80, "velocity": 96, "duration": 69}, {"note": 79, "velocity": 97, "duration": 679}, {"note": 72, "velocity": 97, "duration": 97}, {"note": 80, "velocity": 91, "duration": 77}, {"note": 79, "velocity": 95, "duration": 84}, {"note": 77, "velocity": 98, "duration": 176}, {"note": 0, "velocity": 0, "duration": 64}, {"note": 75, "velocity": 107, "duration": 157}, {"note": 0, "velocity": 0, "duration": 83}, {"note": 72, "velocity": 102, "duration": 152}, {"note": 0, "velocity": 0, "duration": 88}, {"note": 70, "velocity": 91, "duration": 120}, {"note": 72, "velocity": 95, "duration": 523}, {"note": 0, "velocity": 0, "duration": 197}, {"note": 72, "velocity": 102, "duration": 67}, {"note": 80, "velocity": 93, "duration": 67}, {"note": 79, "velocity": 97, "duration": 78}, {"note": 77, "velocity": 102, "duration": 171}, {"note": 0, "velocity": 0, "duration": 69}, {"note": 75, "velocity": 102, "duration": 129}, {"note": 0, "velocity": 0, "duration": 111}, {"note": 72, "velocity": 102, "duration": 140}, {"note": 0, "velocity": 0, "duration": 100}, {"note": 75, "velocity": 95, "duration": 62}, {"note": 72, "velocity": 98, "duration": 639}, {"note": 0, "velocity": 0, "duration": 201}, {"note": 72, "velocity": 93, "duration": 75}, {"note": 75, "velocity": 97, "duration": 61}, {"note": 70, "velocity": 93, "duration": 183}, {"note": 72, "velocity": 92, "duration": 66}, {"note": 70, "velocity": 95, "duration": 244}, {"note": 0, "velocity": 0, "duration": 116}, {"note": 68, "velocity": 96, "duration": 62}, {"note": 70, "velocity": 98, "duration": 59}, {"note": 0, "velocity": 0, "duration": 61}, {"note": 72, "velocity": 93, "duration": 178}, {"note": 0, "velocity": 0, "duration": 62}, {"note": 75, "velocity": 97, "duration": 82}, {"note": 72, "velocity": 95, "duration": 282}, {"note": 0, "velocity": 0, "duration": 78}, {"note": 72, "velocity": 95, "duration": 89}, {"note": 75, "velocity": 100, "duration": 66}, {"note": 77, "velocity": 93, "duration": 89}, {"note": 77, "velocity": 93, "duration": 198}, {"note": 75, "velocity": 102, "duration": 62}, {"note": 77, "velocity": 98, "duration": 198}, {"note": 80, "velocity": 96, "duration": 69}, {"note": 79, "velocity": 97, "duration": 600}, {"note": 80, "velocity": 93, "duration": 327}, {"note": 79, "velocity": 91, "duration": 347}, {"note": 77, "velocity": 94, "duration": 1200}]]