[[{"note": 71, "velocity": 92, "duration": 71}, {"note": 71, "velocity": 88, "duration": 145}, {"note": 0, "velocity": 0, "duration": 95}, {"note": 71, "velocity": 88, "duration": 66}, {"note": 71, "velocity": 89, "duration": 132}, {"note": 0, "velocity": 0, "duration": 108}, {"note": 70, "velocity": 89, "duration": 72}, {"note": 68, "velocity": 90, "duration": 560}, {"note": 0, "velocity": 0, "duration": 280}, {"note": 63, "velocity": 92, "duration": 81}, {"note": 68, "velocity": 79, "duration": 72}, {"note": 66, "velocity": 87, "duration": 530}, {"note": 0, "velocity": 0, "duration": 190}, {"note": 64, "velocity": 85, "duration": 167}, {"note": 0, "velocity": 0, "duration": 73}, {"note": 63, "velocity": 88, "duration": 724}, {"note": 0, "velocity": 0, "duration": 236}, {"note": 71, "velocity": 88, "duration": 69}, {"note": 71, "velocity": 84, "duration": 71}, {"note": 71, "velocity": 87, "duration": 64}, {"note": 71, "velocity": 87, "duration": 66}, {"note": 71, "velocity": 94, "duration": 162}, {"note": 0, "velocity": 0, "duration": 78}, {"note": 73, "velocity": 92, "duration": 195}, {"note": 68, "velocity": 85, "duration": 498}, {"note": 0, "velocity": 0, "duration": 462}, {"note": 73, "velocity": 94, "duration": 63}, {"note": 73, "velocity": 87, "duration": 56}, {"note": 0, "velocity": 0, "duration": 64}, {"note": 73, "velocity": 87, "duration": 71}, {"note": 73, "velocity": 88, "duration": 77}, {"note": 73, "velocity": 92, "duration": 176}, {"note": 0, "velocity": 0, "duration": 64}, {"note": 71, "velocity": 87, "duration": 215}, {"note": 68, "velocity": 84, "duration": 201}, {"note": 70, "velocity": 83, "duration": 551}, {"note": 63, "velocity": 88, "duration": 92}, {"note": 75, "velocity": 86, "duration": 66}, {"note": 75, "velocity": 94, "duration": 60}, {"note": 75, "velocity": 87, "duration": 62}, {"note": 75, "velocity": 86, "duration": 61}, {"note": 75, "velocity": 88, "duration": 67}, {"note": 71, "velocity": 84, "duration": 67}, {"note": 70, "velocity": 82, "duration": 63}, {"note": 68, "velocity": 88, "duration": 63}, {"note": 75, "velocity": 90, "duration": 488}, {"note": 0, "velocity": 0, "duration": 232}, {"note": 71, "velocity": 87, "duration": 69}, {"note": 73, "velocity": 94, "duration": 74}, {"note": 75, "velocity": 89, "duration": 174}, {"note": 0, "velocity": 0, "duration": 66}, {"note": 78, "velocity": 85, "duration": 77}, {"note": 78, "velocity": 87, "duration": 268}, {"note": 0, "velocity": 0, "duration": 92}, {"note": 75, "velocity": 87, "duration": 142}, {"note": 0, "velocity": 0, "duration": 98}, {"note": 71, "velocity": 86, "duration": 530}, {"note": 0, "velocity": 0, "duration": 190}, {"note": 68, "velocity": 85, "duration": 78}, {"note": 70, "velocity": 85, "duration": 69}, {"note": 71, "velocity": 85, "duration": 624}, {"note": 0, "velocity": 0, "duration": 96}, {"note": 71, "velocity": 87, "duration": 77}, {"note": 75, "velocity": 87, "duration": 204}, {"note": 73, "velocity": 90, "duration": 414}, {"note": 0, "velocity": 0, "duration": 426}, {"note": 73, "velocity": 99, "duration": 66}, {"note": 75, "velocity": 84, "duration": 63}, {"note": 73, "velocity": 87, "duration": 63}, {"note": 71, "velocity": 88, "duration": 63}, {"note": 68, "velocity": 88, "duration": 80}, {"note": 76, "velocity": 85, "duration": 340}, {"note": 75, "velocity": 90, "duration": 550}, {"note": 0, "velocity": 0, "duration": 410}, {"note": 71, "velocity": 92, "duration": 71}, {"note": 71, "velocity": 88, "duration": 145}, {"note": 0, "velocity": 0, "duration": 95}, {"note": 71, "velocity": 88, "duration": 66}, {"note": 71, "velocity": 89, "duration": 132}, {"note": 0, "velocity": 0, "duration": 108}, {"note": 70, "velocity": 89, "duration": 72}, {"note": 68, "velocity": 90, "duration": 560}, {"note": 0, "velocity": 0, "duration": 280}, {"note": 63, "velocity": 92, "duration": 81}, {"note": 68, "velocity": 79, "duration": 72}, {"note": 66, "velocity": 87, "duration": 530}, {"note": 0, "velocity": 0, "duration": 190}, {"note": 64, "velocity": 85, "duration": 167}, {"note": 0, "velocity": 0, "duration": 73}, {"note": 63, "velocity": 88, "duration": 724}, {"note": 0, "velocity": 0, "duration": 236}, {"note": 71, "velocity": 88, "duration": 69}, {"note": 71, "velocity": 84, "duration": 71}, {"note": 71, "velocity": 87, "duration": 64}, {"note": 71, "velocity": 87, "duration": 66}, {"note": 71, "velocity": 94, "duration": 162}, {"note": 0, "velocity": 0, "duration": 78}, {"note": 73, "velocity": 92, "duration": 195}, {"note": 68, "velocity": 85, "duration": 498}, {"note": 0, "velocity": 0, "duration": 462}, {"note": 73, "velocity": 94, "duration": 63}, {"note": 73, "velocity": 87, "duration": 56}, {"note": 0, "velocity": 0, "duration": 64}, {"note": 73, "velocity": 87, "duration": 71}, {"note": 73, "velocity": 88, "duration": 77}, {"note": 73, "velocity": 92, "duration": 176}, {"note": 0, "velocity": 0, "duration": 64}, {"note": 71, "velocity": 87, "duration": 215}, {"note": 68, "velocity": 84, "duration": 201}, {"note": 70, "velocity": 83, "duration": 551}, {"note": 63, "velocity": 88, "duration": 92}, {"note": 75, "velocity": 86, "duration": 66}, {"note": 75, "velocity": 94, "duration": 60}, {"note": 75, "velocity": 87, "duration": 62}, {"note": 75, "velocity": 86, "duration": 61}, {"note": 75, "velocity": 88, "duration": 67}, {"note": 71, "velocity": 84, "duration": 67}, {"note": 70, "velocity": 82, "duration": 63}, {"note": 68, "velocity": 88, "duration": 63}, {"note": 75, "velocity": 90, "duration": 488}, {"note": 0, "velocity": 0, "duration": 232}, {"note": 71, "velocity": 87, "duration": 69}, {"note": 73, "velocity": 94, "duration": 74}, {"note": 75, "velocity": 89, "duration": 174}, {"note": 0, "velocity": 0, "duration": 66}, {"note": 78, "velocity": 85, "duration": 77}, {"note": 78, "velocity": 87, "duration": 268}, {"note": 0, "velocity": 0, "duration": 92}, {"note": 75, "velocity": 87, "duration": 142}, {"note": 0, "velocity": 0, "duration": 98}, {"note": 71, "velocity": 86, "duration": 530}, {"note": 0, "velocity": 0, "duration": 190}, {"note": 68, "velocity": 85, "duration": 78}, {"note": 70, "velocity": 85, "duration": 69}, {"note": 71, "velocity": 85, "duration": 624}, {"note": 0, "velocity": 0, "duration": 96}, {"note": 71, "velocity": 87, "duration": 77}, {"note": 75, "velocity": 87, "duration": 204}, {"note": 73, "velocity": 90, "duration": 414}, {"note": 0, "velocity": 0, "duration": 426}, {"note": 73, "velocity": 99, "duration": 66}, {"note": 75, "velocity": 84, "duration": 63}, {"note": 73, "velocity": 87, "duration": 63}, {"note": 71, "velocity": 88, "duration": 63}, {"note": 70, "velocity": 88, "duration": 80}, {"note": 71, "velocity": 85, "duration": 340}, {"note": 68, "velocity": 90, "duration": 960}, {"note": 0, "velocity": 0, "duration": 840}, {"note": 75, "velocity": 94, "duration": 86}, {"note": 80, "velocity": 90, "duration": 61}, {"note": 80, "velocity": 85, "duration": 296}, {"note": 0, "velocity": 0, "duration": 64}, {"note": 80, "velocity": 87, "duration": 176}, {"note": 0, "velocity": 0, "duration": 64}, {"note": 75, "velocity": 90, "duration": 69}, {"note": 75, "velocity": 99, "duration": 186}, {"note": 73, "velocity": 92, "duration": 441}, {"note": 71, "velocity": 88, "duration": 62}, {"note": 71, "velocity": 90, "duration": 70}, {"note": 73, "velocity": 100, "duration": 69}, {"note": 75, "velocity": 92, "duration": 303}, {"note": 76, "velocity": 90, "duration": 91}, {"note": 75, "velocity": 87, "duration": 185}, {"note": 73, "velocity": 92, "duration": 230}, {"note": 71, "velocity": 89, "duration": 651}, {"note": 0, "velocity": 0, "duration": 69}, {"note": 68, "velocity": 90, "duration": 68}, {"note": 70, "velocity": 85, "duration": 71}, {"note": 71, "velocity": 87, "duration": 66}, {"note": 71, "velocity": 86, "duration": 187}, {"note": 71, "velocity": 85, "duration": 69}, {"note": 71, "velocity": 87, "duration": 166}, {"note": 0, "velocity": 0, "duration": 74}, {"note": 73, "velocity": 94, "duration": 64}, {"note": 73, "velocity": 92, "duration": 176}, {"note": 0, "velocity": 0, "duration": 64}, {"note": 68, "velocity": 87, "duration": 434}, {"note": 0, "velocity": 0, "duration": 166}, {"note": 68, "velocity": 94, "duration": 66}, {"note": 70, "velocity": 89, "duration": 69}, {"note": 71, "velocity": 86, "duration": 63}, {"note": 71, "velocity": 85, "duration": 155}, {"note": 0, "velocity": 0, "duration": 85}, {"note": 71, "velocity": 89, "duration": 62}, {"note": 71, "velocity": 89, "duration": 173}, {"note": 0, "velocity": 0, "duration": 67}, {"note": 76, "velocity": 88, "duration": 177}, {"note": 0, "velocity": 0, "duration": 63}, {"note": 75, "velocity": 88, "duration": 612}, {"note": 0, "velocity": 0, "duration": 228}, {"note": 75, "velocity": 86, "duration": 88}, {"note": 80, "velocity": 87, "duration": 63}, {"note": 80, "velocity": 84, "duration": 289}, {"note": 0, "velocity": 0, "duration": 71}, {"note": 80, "velocity": 87, "duration": 183}, {"note": 75, "velocity": 87, "duration": 61}, {"note": 75, "velocity": 88, "duration": 192}, {"note": 73, "velocity": 88, "duration": 421}, {"note": 71, "velocity": 94, "duration": 47}, {"note": 0, "velocity": 0, "duration": 73}, {"note": 71, "velocity": 94, "duration": 65}, {"note": 73, "velocity": 90, "duration": 66}, {"note": 75, "velocity": 87, "duration": 307}, {"note": 76, "velocity": 85, "duration": 88}, {"note": 75, "velocity": 92, "duration": 180}, {"note": 73, "velocity": 87, "duration": 177}, {"note": 0, "velocity": 0, "duration": 63}, {"note": 71, "velocity": 86, "duration": 558}, {"note": 0, "velocity": 0, "duration": 162}, {"note": 68, "velocity": 88, "duration": 69}, {"note": 70, "velocity": 85, "duration": 74}, {"note": 71, "velocity": 85, "duration": 56}, {"note": 0, "velocity": 0, "duration": 64}, {"note": 71, "velocity": 84, "duration": 178}, {"note": 0, "velocity": 0, "duration": 62}, {"note": 71, "velocity": 85, "duration": 66}, {"note": 71, "velocity": 88, "duration": 165}, {"note": 0, "velocity": 0, "duration": 75}, {"note": 73, "velocity": 89, "duration": 58}, {"note": 0, "velocity": 0, "duration": 62}, {"note": 73, "velocity": 90, "duration": 200}, {"note": 68, "velocity": 89, "duration": 392}, {"note": 0, "velocity": 0, "duration": 208}, {"note": 68, "velocity": 90, "duration": 68}, {"note": 70, "velocity": 87, "duration": 72}, {"note": 71, "velocity": 87, "duration": 60}, {"note": 71, "velocity": 89, "duration": 153}, {"note": 0, "velocity": 0, "duration": 87}, {"note": 71, "velocity": 86, "duration": 67}, {"note": 71, "velocity": 92, "duration": 176}, {"note": 0, "velocity": 0, "duration": 64}, {"note": 76, "velocity": 85, "duration": 170}, {"note": 0, "velocity": 0, "duration": 70}, {"note": 75, "velocity": 88, "duration": 632}, {"note": 0, "velocity": 0, "duration": 88}, {"note": 71, "velocity": 89, "duration": 226}, {"note": 68, "velocity": 90, "duration": 1435}, {"note": 0, "velocity": 0, "duration": 8165}, {"note": 71, "velocity": 92, "duration": 71}, {"note": 71, "velocity": 88, "duration": 145}, {"note": 0, "velocity": 0, "duration": 95}, {"note": 71, "velocity": 88, "duration": 66}, {"note": 71, "velocity": 89, "duration": 132}, {"note": 0, "velocity": 0, "duration": 108}, {"note": 70, "velocity": 89, "duration": 72}, {"note": 68, "velocity": 90, "duration": 560}, {"note": 0, "velocity": 0, "duration": 280}, {"note": 63, "velocity": 92, "duration": 81}, {"note": 68, "velocity": 79, "duration": 72}, {"note": 66, "velocity": 87, "duration": 530}, {"note": 0, "velocity": 0, "duration": 190}, {"note": 64, "velocity": 85, "duration": 167}, {"note": 0, "velocity": 0, "duration": 73}, {"note": 63, "velocity": 88, "duration": 724}, {"note": 0, "velocity": 0, "duration": 236}, {"note": 71, "velocity": 88, "duration": 69}, {"note": 71, "velocity": 84, "duration": 71}, {"note": 71, "velocity": 87, "duration": 64}, {"note": 71, "velocity": 87, "duration": 66}, {"note": 71, "velocity": 94, "duration": 162}, {"note": 0, "velocity": 0, "duration": 78}, {"note": 73, "velocity": 92, "duration": 195}, {"note": 68, "velocity": 85, "duration": 498}, {"note": 0, "velocity": 0, "duration": 462}, {"note": 73, "velocity": 94, "duration": 63}, {"note": 73, "velocity": 87, "duration": 56}, {"note": 0, "velocity": 0, "duration": 64}, {"note": 73, "velocity": 87, "duration": 71}, {"note": 73, "velocity": 88, "duration": 77}, {"note": 73, "velocity": 92, "duration": 176}, {"note": 0, "velocity": 0, "duration": 64}, {"note": 71, "velocity": 87, "duration": 215}, {"note": 68, "velocity": 84, "duration": 201}, {"note": 70, "velocity": 83, "duration": 551}, {"note": 63, "velocity": 88, "duration": 92}, {"note": 75, "velocity": 86, "duration": 66}, {"note": 75, "velocity": 94, "duration": 60}, {"note": 75, "velocity": 87, "duration": 62}, {"note": 75, "velocity": 86, "duration": 61}, {"note": 75, "velocity": 88, "duration": 67}, {"note": 71, "velocity": 84, "duration": 67}, {"note": 70, "velocity": 82, "duration": 63}, {"note": 68, "velocity": 88, "duration": 63}, {"note": 75, "velocity": 90, "duration": 488}, {"note": 0, "velocity": 0, "duration": 232}, {"note": 71, "velocity": 87, "duration": 69}, {"note": 73, "velocity": 94, "duration": 74}, {"note": 75, "velocity": 89, "duration": 174}, {"note": 0, "velocity": 0, "duration": 66}, {"note": 78, "velocity": 85, "duration": 77}, {"note": 78, "velocity": 87, "duration": 268}, {"note": 0, "velocity": 0, "duration": 92}, {"note": 75, "velocity": 87, "duration": 142}, {"note": 0, "velocity": 0, "duration": 98}, {"note": 71, "velocity": 86, "duration": 530}, {"note": 0, "velocity": 0, "duration": 190}, {"note": 68, "velocity": 85, "duration": 78}, {"note": 70, "velocity": 85, "duration": 69}, {"note": 71, "velocity": 85, "duration": 624}, {"note": 0, "velocity": 0, "duration": 96}, {"note": 71, "velocity": 87, "duration": 77}, {"note": 75, "velocity": 87, "duration": 204}, {"note": 73, "velocity": 90, "duration": 414}, {"note": 0, "velocity": 0, "duration": 426}, {"note": 73, "velocity": 99, "duration": 66}, {"note": 75, "velocity": 84, "duration": 63}, {"note": 73, "velocity": 87, "duration": 63}, {"note": 71, "velocity": 88, "duration": 63}, {"note": 70, "velocity": 88, "duration": 80}, {"note": 71, "velocity": 85, "duration": 340}, {"note": 68, "velocity": 90, "duration": 960}, {"note": 0, "velocity": 0, "duration": 840}, {"note": 75, "velocity": 94, "duration": 86}, {"note": 80, "velocity": 90, "duration": 61}, {"note": 80, "velocity": 85, "duration": 296}, {"note": 0, "velocity": 0, "duration": 64}, {"note": 80, "velocity": 87, "duration": 176}, {"note": 0, "velocity": 0, "duration": 64}, {"note": 75, "velocity": 90, "duration": 69}, {"note": 75, "velocity": 99, "duration": 186}, {"note": 73, "velocity": 92, "duration": 441}, {"note": 71, "velocity": 88, "duration": 62}, {"note": 71, "velocity": 90, "duration": 70}, {"note": 73, "velocity": 100, "duration": 69}, {"note": 75, "velocity": 92, "duration": 303}, {"note": 76, "velocity": 90, "duration": 91}, {"note": 75, "velocity": 87, "duration": 185}, {"note": 73, "velocity": 92, "duration": 230}, {"note": 71, "velocity": 89, "duration": 651}, {"note": 0, "velocity": 0, "duration": 69}, {"note": 68, "velocity": 90, "duration": 68}, {"note": 70, "velocity": 85, "duration": 71}, {"note": 71, "velocity": 87, "duration": 66}, {"note": 71, "velocity": 86, "duration": 187}, {"note": 71, "velocity": 85, "duration": 69}, {"note": 71, "velocity": 87, "duration": 166}, {"note": 0, "velocity": 0, "duration": 74}, {"note": 73, "velocity": 94, "duration": 64}, {"note": 73, "velocity": 92, "duration": 176}, {"note": 0, "velocity": 0, "duration": 64}, {"note": 68, "velocity": 87, "duration": 434}, {"note": 0, "velocity": 0, "duration": 166}, {"note": 68, "velocity": 94, "duration": 66}, {"note": 70, "velocity": 89, "duration": 69}, {"note": 71, "velocity": 86, "duration": 63}, {"note": 71, "velocity": 85, "duration": 155}, {"note": 0, "velocity": 0, "duration": 85}, {"note": 71, "velocity": 89, "duration": 62}, {"note": 71, "velocity": 89, "duration": 173}, {"note": 0, "velocity": 0, "duration": 67}, {"note": 76, "velocity": 88, "duration": 177}, {"note": 0, "velocity": 0, "duration": 63}, {"note": 75, "velocity": 88, "duration": 612}, {"note": 0, "velocity": 0, "duration": 228}, {"note": 75, "velocity": 86, "duration": 88}, {"note": 80, "velocity": 87, "duration": 63}, {"note": 80, "velocity": 84, "duration": 289}, {"note": 0, "velocity": 0, "duration": 71}, {"note": 80, "velocity": 87, "duration": 183}, {"note": 75, "velocity": 87, "duration": 61}, {"note": 75, "velocity": 88, "duration": 192}, {"note": 73, "velocity": 88, "duration": 421}, {"note": 71, "velocity": 94, "duration": 47}, {"note": 0, "velocity": 0, "duration": 73}, {"note": 71, "velocity": 94, "duration": 65}, {"note": 73, "velocity": 90, "duration": 66}, {"note": 75, "velocity": 87, "duration": 307}, {"note": 76, "velocity": 85, "duration": 88}, {"note": 75, "velocity": 92, "duration": 180}, {"note": 73, "velocity": 87, "duration": 177}, {"note": 0, "velocity": 0, "duration": 63}, {"note": 71, "velocity": 86, "duration": 558}, {"note": 0, "velocity": 0, "duration": 162}, {"note": 68, "velocity": 88, "duration": 69}, {"note": 70, "velocity": 85, "duration": 74}, {"note": 71, "velocity": 85, "duration": 56}, {"note": 0, "velocity": 0, "duration": 64}, {"note": 71, "velocity": 84, "duration": 178}, {"note": 0, "velocity": 0, "duration": 62}, {"note": 71, "velocity": 85, "duration": 66}, {"note": 71, "velocity": 88, "duration": 165}, {"note": 0, "velocity": 0, "duration": 75}, {"note": 73, "velocity": 89, "duration": 58}, {"note": 0, "velocity": 0, "duration": 62}, {"note": 73, "velocity": 90, "duration": 200}, {"note": 68, "velocity": 89, "duration": 392}, {"note": 0, "velocity": 0, "duration": 208}, {"note": 68, "velocity": 90, "duration": 68}, {"note": 70, "velocity": 87, "duration": 72}, {"note": 71, "velocity": 87, "duration": 60}, {"note": 71, "velocity": 89, "duration": 153}, {"note": 0, "velocity": 0, "duration": 87}, {"note": 71, "velocity": 86, "duration": 67}, {"note": 71, "velocity": 92, "duration": 176}, {"note": 0, "velocity": 0, "duration": 64}, {"note": 76, "velocity": 85, "duration": 170}, {"note": 0, "velocity": 0, "duration": 70}, {"note": 75, "velocity": 88, "duration": 632}, {"note": 0, "velocity": 0, "duration": 88}, {"note": 71, "velocity": 89, "duration": 226}, {"note": 68, "velocity": 90, "duration": 1435}, {"note": 0, "velocity": 0, "duration": 9965}, {"note": 76, "velocity": 94, "duration": 86}, {"note": 81, "velocity": 90, "duration": 61}, {"note": 81, "velocity": 85, "duration": 296}, {"note": 0, "velocity": 0, "duration": 64}, {"note": 81, "velocity": 87, "duration": 176}, {"note": 0, "velocity": 0, "duration": 64}, {"note": 76, "velocity": 90, "duration": 69}, {"note": 76, "velocity": 99, "duration": 186}, {"note": 74, "velocity": 92, "duration": 441}, {"note": 72, "velocity": 88, "duration": 62}, {"note": 72, "velocity": 90, "duration": 70}, {"note": 74, "velocity": 100, "duration": 69}, {"note": 76, "velocity": 92, "duration": 303}, {"note": 77, "velocity": 90, "duration": 91}, {"note": 76, "velocity": 87, "duration": 185}, {"note": 74, "velocity": 92, "duration": 230}, {"note": 72, "velocity": 89, "duration": 651}, {"note": 0, "velocity": 0, "duration": 69}, {"note": 69, "velocity": 90, "duration": 68}, {"note": 71, "velocity": 85, "duration": 71}, {"note": 72, "velocity": 87, "duration": 66}, {"note": 72, "velocity": 86, "duration": 187}, {"note": 72, "velocity": 85, "duration": 69}, {"note": 72, "velocity": 87, "duration": 166}, {"note": 0, "velocity": 0, "duration": 74}, {"note": 74, "velocity": 94, "duration": 64}, {"note": 74, "velocity": 92, "duration": 176}, {"note": 0, "velocity": 0, "duration": 64}, {"note": 69, "velocity": 87, "duration": 434}, {"note": 0, "velocity": 0, "duration": 166}, {"note": 69, "velocity": 94, "duration": 66}, {"note": 71, "velocity": 89, "duration": 69}, {"note": 72, "velocity": 86, "duration": 63}, {"note": 72, "velocity": 85, "duration": 155}, {"note": 0, "velocity": 0, "duration": 85}, {"note": 72, "velocity": 89, "duration": 62}, {"note": 72, "velocity": 89, "duration": 173}, {"note": 0, "velocity": 0, "duration": 67}, {"note": 77, "velocity": 88, "duration": 177}, {"note": 0, "velocity": 0, "duration": 63}, {"note": 76, "velocity": 88, "duration": 612}, {"note": 0, "velocity": 0, "duration": 228}, {"note": 76, "velocity": 86, "duration": 88}, {"note": 81, "velocity": 87, "duration": 63}, {"note": 81, "velocity": 84, "duration": 289}, {"note": 0, "velocity": 0, "duration": 71}, {"note": 81, "velocity": 87, "duration": 183}, {"note": 76, "velocity": 87, "duration": 61}, {"note": 76, "velocity": 88, "duration": 192}, {"note": 74, "velocity": 88, "duration": 421}, {"note": 72, "velocity": 94, "duration": 47}, {"note": 0, "velocity": 0, "duration": 73}, {"note": 72, "velocity": 94, "duration": 65}, {"note": 74, "velocity": 90, "duration": 66}, {"note": 76, "velocity": 87, "duration": 307}, {"note": 77, "velocity": 85, "duration": 88}, {"note": 76, "velocity": 92, "duration": 180}, {"note": 74, "velocity": 87, "duration": 177}, {"note": 0, "velocity": 0, "duration": 63}, {"note": 72, "velocity": 86, "duration": 558}, {"note": 0, "velocity": 0, "duration": 162}, {"note": 69, "velocity": 88, "duration": 69}, {"note": 71, "velocity": 85, "duration": 74}, {"note": 72, "velocity": 85, "duration": 56}, {"note": 0, "velocity": 0, "duration": 64}, {"note": 72, "velocity": 84, "duration": 178}, {"note": 0, "velocity": 0, "duration": 62}, {"note": 72, "velocity": 85, "duration": 66}, {"note": 72, "velocity": 88, "duration": 165}, {"note": 0, "velocity": 0, "duration": 75}, {"note": 74, "velocity": 89, "duration": 58}, {"note": 0, "velocity": 0, "duration": 62}, {"note": 74, "velocity": 90, "duration": 200}, {"note": 69, "velocity": 89, "duration": 392}, {"note": 0, "velocity": 0, "duration": 208}, {"note": 69, "velocity": 90, "duration": 68}, {"note": 71, "velocity": 87, "duration": 72}, {"note": 72, "velocity": 87, "duration": 60}, {"note": 72, "velocity": 89, "duration": 153}, {"note": 0, "velocity": 0, "duration": 87}, {"note": 72, "velocity": 86, "duration": 67}, {"note": 72, "velocity": 92, "duration": 176}, {"note": 0, "velocity": 0, "duration": 64}, {"note": 77, "velocity": 85, "duration": 170}, {"note": 0, "velocity": 0, "duration": 70}, {"note": 76, "velocity": 88, "duration": 632}, {"note": 0, "velocity": 0, "duration": 88}, {"note": 72, "velocity": 89, "duration": 226}, {"note": 69, "velocity": 90, "duration": 1435}, {"note": 0, "velocity": 0, "duration": 254}, {"note": 69, "velocity": 88, "duration": 93}, {"note": 71, "velocity": 85, "duration": 86}, {"note": 0, "velocity": 0, "duration": 61}, {"note": 72, "velocity": 83, "duration": 99}, {"note": 72, "velocity": 87, "duration": 152}, {"note": 0, "velocity": 0, "duration": 69}, {"note": 72, "velocity": 86, "duration": 85}, {"note": 0, "velocity": 0, "duration": 79}, {"note": 72, "velocity": 90, "duration": 188}, {"note": 0, "velocity": 0, "duration": 71}, {"note": 74, "velocity": 83, "duration": 204}, {"note": 71, "velocity": 84, "duration": 770}, {"note": 0, "velocity": 0, "duration": 305}, {"note": 71, "velocity": 84, "duration": 203}, {"note": 0, "velocity": 0, "duration": 97}, {"note": 71, "velocity": 87, "duration": 511}, {"note": 0, "velocity": 0, "duration": 278}, {"note": 72, "velocity": 83, "duration": 510}, {"note": 0, "velocity": 0, "duration": 81}, {"note": 69, "velocity": 83, "duration": 2006}]]