[[{"note": 70, "velocity": 93, "duration": 84}, {"note": 72, "velocity": 87, "duration": 186}, {"note": 70, "velocity": 92, "duration": 191}, {"note": 77, "velocity": 93, "duration": 988}, {"note": 0, "velocity": 0, "duration": 332}, {"note": 70, "velocity": 90, "duration": 102}, {"note": 79, "velocity": 95, "duration": 72}, {"note": 82, "velocity": 87, "duration": 89}, {"note": 79, "velocity": 87, "duration": 179}, {"note": 0, "velocity": 0, "duration": 61}, {"note": 79, "velocity": 87, "duration": 602}, {"note": 0, "velocity": 0, "duration": 718}, {"note": 79, "velocity": 92, "duration": 111}, {"note": 77, "velocity": 92, "duration": 213}, {"note": 75, "velocity": 100, "duration": 192}, {"note": 77, "velocity": 93, "duration": 1232}, {"note": 0, "velocity": 0, "duration": 88}, {"note": 77, "velocity": 90, "duration": 94}, {"note": 75, "velocity": 103, "duration": 202}, {"note": 72, "velocity": 93, "duration": 197}, {"note": 70, "velocity": 97, "duration": 1201}, {"note": 0, "velocity": 0, "duration": 119}, {"note": 70, "velocity": 88, "duration": 88}, {"note": 72, "velocity": 90, "duration": 175}, {"note": 0, "velocity": 0, "duration": 65}, {"note": 70, "velocity": 93, "duration": 184}, {"note": 82, "velocity": 93, "duration": 600}, {"note": 0, "velocity": 0, "duration": 120}, {"note": 79, "velocity": 89, "duration": 202}, {"note": 84, "velocity": 93, "duration": 608}, {"note": 0, "velocity": 0, "duration": 112}, {"note": 84, "velocity": 88, "duration": 181}, {"note": 79, "velocity": 88, "duration": 172}, {"note": 0, "velocity": 0, "duration": 68}, {"note": 79, "velocity": 93, "duration": 175}, {"note": 0, "velocity": 0, "duration": 65}, {"note": 79, "velocity": 93, "duration": 85}, {"note": 77, "velocity": 91, "duration": 145}, {"note": 0, "velocity": 0, "duration": 95}, {"note": 75, "velocity": 88, "duration": 115}, {"note": 72, "velocity": 93, "duration": 593}, {"note": 0, "velocity": 0, "duration": 127}, {"note": 75, "velocity": 100, "duration": 88}, {"note": 77, "velocity": 87, "duration": 74}, {"note": 77, "velocity": 89, "duration": 133}, {"note": 0, "velocity": 0, "duration": 107}, {"note": 77, "velocity": 91, "duration": 90}, {"note": 75, "velocity": 100, "duration": 66}, {"note": 72, "velocity": 88, "duration": 165}, {"note": 0, "velocity": 0, "duration": 75}, {"note": 75, "velocity": 91, "duration": 79}, {"note": 77, "velocity": 85, "duration": 58}, {"note": 0, "velocity": 0, "duration": 62}, {"note": 77, "velocity": 87, "duration": 173}, {"note": 0, "velocity": 0, "duration": 67}, {"note": 77, "velocity": 87, "duration": 75}, {"note": 75, "velocity": 91, "duration": 60}, {"note": 72, "velocity": 88, "duration": 181}, {"note": 75, "velocity": 85, "duration": 88}, {"note": 72, "velocity": 87, "duration": 73}, {"note": 68, "velocity": 87, "duration": 154}, {"note": 0, "velocity": 0, "duration": 86}, {"note": 68, "velocity": 87, "duration": 163}, {"note": 0, "velocity": 0, "duration": 77}, {"note": 68, "velocity": 88, "duration": 75}, {"note": 70, "velocity": 80, "duration": 75}, {"note": 72, "velocity": 86, "duration": 184}, {"note": 70, "velocity": 86, "duration": 262}, {"note": 0, "velocity": 0, "duration": 98}, {"note": 70, "velocity": 93, "duration": 84}, {"note": 72, "velocity": 87, "duration": 186}, {"note": 70, "velocity": 92, "duration": 191}, {"note": 77, "velocity": 93, "duration": 988}, {"note": 0, "velocity": 0, "duration": 332}, {"note": 70, "velocity": 90, "duration": 102}, {"note": 79, "velocity": 95, "duration": 72}, {"note": 82, "velocity": 87, "duration": 89}, {"note": 79, "velocity": 87, "duration": 179}, {"note": 0, "velocity": 0, "duration": 61}, {"note": 79, "velocity": 87, "duration": 602}, {"note": 0, "velocity": 0, "duration": 718}, {"note": 79, "velocity": 92, "duration": 111}, {"note": 77, "velocity": 92, "duration": 213}, {"note": 75, "velocity": 100, "duration": 192}, {"note": 77, "velocity": 93, "duration": 1232}, {"note": 0, "velocity": 0, "duration": 88}, {"note": 77, "velocity": 90, "duration": 94}, {"note": 75, "velocity": 103, "duration": 202}, {"note": 72, "velocity": 93, "duration": 197}, {"note": 70, "velocity": 97, "duration": 1201}, {"note": 0, "velocity": 0, "duration": 119}, {"note": 70, "velocity": 88, "duration": 88}, {"note": 72, "velocity": 90, "duration": 175}, {"note": 0, "velocity": 0, "duration": 65}, {"note": 70, "velocity": 93, "duration": 184}, {"note": 82, "velocity": 93, "duration": 600}, {"note": 0, "velocity": 0, "duration": 120}, {"note": 79, "velocity": 89, "duration": 202}, {"note": 84, "velocity": 93, "duration": 608}, {"note": 0, "velocity": 0, "duration": 112}, {"note": 84, "velocity": 88, "duration": 181}, {"note": 79, "velocity": 88, "duration": 172}, {"note": 0, "velocity": 0, "duration": 68}, {"note": 79, "velocity": 93, "duration": 175}, {"note": 0, "velocity": 0, "duration": 65}, {"note": 79, "velocity": 93, "duration": 85}, {"note": 77, "velocity": 91, "duration": 145}, {"note": 0, "velocity": 0, "duration": 95}, {"note": 75, "velocity": 88, "duration": 115}, {"note": 72, "velocity": 93, "duration": 593}, {"note": 0, "velocity": 0, "duration": 127}, {"note": 75, "velocity": 100, "duration": 88}, {"note": 77, "velocity": 87, "duration": 74}, {"note": 77, "velocity": 89, "duration": 133}, {"note": 0, "velocity": 0, "duration": 107}, {"note": 77, "velocity": 91, "duration": 90}, {"note": 75, "velocity": 100, "duration": 66}, {"note": 72, "velocity": 88, "duration": 165}, {"note": 0, "velocity": 0, "duration": 75}, {"note": 75, "velocity": 91, "duration": 79}, {"note": 77, "velocity": 85, "duration": 58}, {"note": 0, "velocity": 0, "duration": 62}, {"note": 77, "velocity": 87, "duration": 173}, {"note": 0, "velocity": 0, "duration": 67}, {"note": 77, "velocity": 87, "duration": 75}, {"note": 75, "velocity": 91, "duration": 60}, {"note": 72, "velocity": 88, "duration": 181}, {"note": 75, "velocity": 85, "duration": 88}, {"note": 72, "velocity": 87, "duration": 73}, {"note": 68, "velocity": 87, "duration": 154}, {"note": 0, "velocity": 0, "duration": 86}, {"note": 68, "velocity": 87, "duration": 163}, {"note": 0, "velocity": 0, "duration": 77}, {"note": 68, "velocity": 88, "duration": 75}, {"note": 70, "velocity": 80, "duration": 75}, {"note": 72, "velocity": 86, "duration": 184}, {"note": 70, "velocity": 86, "duration": 466}, {"note": 82, "velocity": 93, "duration": 193}, {"note": 84, "velocity": 95, "duration": 79}, {"note": 82, "velocity": 89, "duration": 69}, {"note": 82, "velocity": 88, "duration": 1217}, {"note": 0, "velocity": 0, "duration": 223}, {"note": 82, "velocity": 90, "duration": 179}, {"note": 0, "velocity": 0, "duration": 61}, {"note": 84, "velocity": 91, "duration": 88}, {"note": 82, "velocity": 87, "duration": 71}, {"note": 77, "velocity": 93, "duration": 1118}, {"note": 0, "velocity": 0, "duration": 322}, {"note": 82, "velocity": 87, "duration": 173}, {"note": 0, "velocity": 0, "duration": 67}, {"note": 84, "velocity": 89, "duration": 78}, {"note": 82, "velocity": 88, "duration": 57}, {"note": 0, "velocity": 0, "duration": 63}, {"note": 75, "velocity": 95, "duration": 521}, {"note": 0, "velocity": 0, "duration": 199}, {"note": 70, "velocity": 87, "duration": 64}, {"note": 70, "velocity": 87, "duration": 64}, {"note": 72, "velocity": 92, "duration": 226}, {"note": 72, "velocity": 93, "duration": 153}, {"note": 0, "velocity": 0, "duration": 327}, {"note": 72, "velocity": 91, "duration": 75}, {"note": 75, "velocity": 89, "duration": 60}, {"note": 77, "velocity": 81, "duration": 1120}, {"note": 0, "velocity": 0, "duration": 320}, {"note": 82, "velocity": 86, "duration": 168}, {"note": 0, "velocity": 0, "duration": 72}, {"note": 84, "velocity": 87, "duration": 91}, {"note": 82, "velocity": 87, "duration": 60}, {"note": 82, "velocity": 85, "duration": 1352}, {"note": 0, "velocity": 0, "duration": 88}, {"note": 82, "velocity": 88, "duration": 175}, {"note": 0, "velocity": 0, "duration": 65}, {"note": 84, "velocity": 88, "duration": 82}, {"note": 82, "velocity": 92, "duration": 55}, {"note": 0, "velocity": 0, "duration": 65}, {"note": 77, "velocity": 90, "duration": 977}, {"note": 0, "velocity": 0, "duration": 463}, {"note": 82, "velocity": 90, "duration": 161}, {"note": 0, "velocity": 0, "duration": 79}, {"note": 84, "velocity": 90, "duration": 99}, {"note": 82, "velocity": 88, "duration": 55}, {"note": 0, "velocity": 0, "duration": 65}, {"note": 75, "velocity": 97, "duration": 568}, {"note": 0, "velocity": 0, "duration": 152}, {"note": 70, "velocity": 87, "duration": 55}, {"note": 0, "velocity": 0, "duration": 65}, {"note": 70, "velocity": 87, "duration": 62}, {"note": 72, "velocity": 90, "duration": 191}, {"note": 72, "velocity": 97, "duration": 206}, {"note": 0, "velocity": 0, "duration": 274}, {"note": 72, "velocity": 90, "duration": 84}, {"note": 75, "velocity": 88, "duration": 64}, {"note": 75, "velocity": 95, "duration": 1370}, {"note": 0, "velocity": 0, "duration": 7630}, {"note": 70, "velocity": 93, "duration": 84}, {"note": 72, "velocity": 87, "duration": 186}, {"note": 70, "velocity": 92, "duration": 191}, {"note": 77, "velocity": 93, "duration": 988}, {"note": 0, "velocity": 0, "duration": 332}, {"note": 70, "velocity": 90, "duration": 102}, {"note": 79, "velocity": 95, "duration": 72}, {"note": 82, "velocity": 87, "duration": 89}, {"note": 79, "velocity": 87, "duration": 179}, {"note": 0, "velocity": 0, "duration": 61}, {"note": 79, "velocity": 87, "duration": 602}, {"note": 0, "velocity": 0, "duration": 718}, {"note": 79, "velocity": 92, "duration": 111}, {"note": 77, "velocity": 92, "duration": 213}, {"note": 75, "velocity": 100, "duration": 192}, {"note": 77, "velocity": 93, "duration": 1232}, {"note": 0, "velocity": 0, "duration": 88}, {"note": 77, "velocity": 90, "duration": 94}, {"note": 75, "velocity": 103, "duration": 202}, {"note": 72, "velocity": 93, "duration": 197}, {"note": 70, "velocity": 97, "duration": 1201}, {"note": 0, "velocity": 0, "duration": 119}, {"note": 70, "velocity": 88, "duration": 88}, {"note": 72, "velocity": 90, "duration": 175}, {"note": 0, "velocity": 0, "duration": 65}, {"note": 70, "velocity": 93, "duration": 184}, {"note": 82, "velocity": 93, "duration": 600}, {"note": 0, "velocity": 0, "duration": 120}, {"note": 79, "velocity": 89, "duration": 202}, {"note": 84, "velocity": 93, "duration": 608}, {"note": 0, "velocity": 0, "duration": 112}, {"note": 84, "velocity": 88, "duration": 181}, {"note": 79, "velocity": 88, "duration": 172}, {"note": 0, "velocity": 0, "duration": 68}, {"note": 79, "velocity": 93, "duration": 175}, {"note": 0, "velocity": 0, "duration": 65}, {"note": 79, "velocity": 93, "duration": 85}, {"note": 77, "velocity": 91, "duration": 145}, {"note": 0, "velocity": 0, "duration": 95}, {"note": 75, "velocity": 88, "duration": 115}, {"note": 72, "velocity": 93, "duration": 593}, {"note": 0, "velocity": 0, "duration": 127}, {"note": 75, "velocity": 100, "duration": 88}, {"note": 77, "velocity": 87, "duration": 74}, {"note": 77, "velocity": 89, "duration": 133}, {"note": 0, "velocity": 0, "duration": 107}, {"note": 77, "velocity": 91, "duration": 90}, {"note": 75, "velocity": 100, "duration": 66}, {"note": 72, "velocity": 88, "duration": 165}, {"note": 0, "velocity": 0, "duration": 75}, {"note": 75, "velocity": 91, "duration": 79}, {"note": 77, "velocity": 85, "duration": 58}, {"note": 0, "velocity": 0, "duration": 62}, {"note": 77, "velocity": 87, "duration": 173}, {"note": 0, "velocity": 0, "duration": 67}, {"note": 77, "velocity": 87, "duration": 75}, {"note": 75, "velocity": 91, "duration": 60}, {"note": 72, "velocity": 88, "duration": 181}, {"note": 75, "velocity": 85, "duration": 88}, {"note": 72, "velocity": 87, "duration": 73}, {"note": 68, "velocity": 87, "duration": 154}, {"note": 0, "velocity": 0, "duration": 86}, {"note": 68, "velocity": 87, "duration": 163}, {"note": 0, "velocity": 0, "duration": 77}, {"note": 68, "velocity": 88, "duration": 75}, {"note": 70, "velocity": 80, "duration": 75}, {"note": 72, "velocity": 86, "duration": 184}, {"note": 70, "velocity": 86, "duration": 262}, {"note": 0, "velocity": 0, "duration": 218}, {"note": 82, "velocity": 93, "duration": 193}, {"note": 84, "velocity": 95, "duration": 79}, {"note": 82, "velocity": 89, "duration": 69}, {"note": 82, "velocity": 88, "duration": 1217}, {"note": 0, "velocity": 0, "duration": 223}, {"note": 82, "velocity": 90, "duration": 179}, {"note": 0, "velocity": 0, "duration": 61}, {"note": 84, "velocity": 91, "duration": 88}, {"note": 82, "velocity": 87, "duration": 71}, {"note": 77, "velocity": 93, "duration": 1118}, {"note": 0, "velocity": 0, "duration": 322}, {"note": 82, "velocity": 87, "duration": 173}, {"note": 0, "velocity": 0, "duration": 67}, {"note": 84, "velocity": 89, "duration": 78}, {"note": 82, "velocity": 88, "duration": 57}, {"note": 0, "velocity": 0, "duration": 63}, {"note": 75, "velocity": 95, "duration": 521}, {"note": 0, "velocity": 0, "duration": 199}, {"note": 70, "velocity": 87, "duration": 64}, {"note": 70, "velocity": 87, "duration": 64}, {"note": 72, "velocity": 92, "duration": 226}, {"note": 72, "velocity": 93, "duration": 153}, {"note": 0, "velocity": 0, "duration": 327}, {"note": 72, "velocity": 91, "duration": 75}, {"note": 75, "velocity": 89, "duration": 60}, {"note": 77, "velocity": 81, "duration": 1120}, {"note": 0, "velocity": 0, "duration": 320}, {"note": 82, "velocity": 86, "duration": 168}, {"note": 0, "velocity": 0, "duration": 72}, {"note": 84, "velocity": 87, "duration": 91}, {"note": 82, "velocity": 87, "duration": 60}, {"note": 82, "velocity": 85, "duration": 1352}, {"note": 0, "velocity": 0, "duration": 88}, {"note": 82, "velocity": 88, "duration": 175}, {"note": 0, "velocity": 0, "duration": 65}, {"note": 84, "velocity": 88, "duration": 82}, {"note": 82, "velocity": 92, "duration": 55}, {"note": 0, "velocity": 0, "duration": 65}, {"note": 77, "velocity": 90, "duration": 977}, {"note": 0, "velocity": 0, "duration": 463}, {"note": 82, "velocity": 90, "duration": 161}, {"note": 0, "velocity": 0, "duration": 79}, {"note": 84, "velocity": 90, "duration": 99}, {"note": 82, "velocity": 88, "duration": 55}, {"note": 0, "velocity": 0, "duration": 65}, {"note": 75, "velocity": 97, "duration": 568}, {"note": 0, "velocity": 0, "duration": 152}, {"note": 70, "velocity": 87, "duration": 55}, {"note": 0, "velocity": 0, "duration": 65}, {"note": 70, "velocity": 87, "duration": 62}, {"note": 72, "velocity": 90, "duration": 191}, {"note": 72, "velocity": 97, "duration": 206}, {"note": 0, "velocity": 0, "duration": 274}, {"note": 72, "velocity": 90, "duration": 84}, {"note": 75, "velocity": 88, "duration": 64}, {"note": 75, "velocity": 95, "duration": 1370}, {"note": 0, "velocity": 0, "duration": 17350}, {"note": 82, "velocity": 93, "duration": 193}, {"note": 84, "velocity": 95, "duration": 79}, {"note": 82, "velocity": 89, "duration": 69}, {"note": 82, "velocity": 88, "duration": 1217}, {"note": 0, "velocity": 0, "duration": 223}, {"note": 82, "velocity": 90, "duration": 179}, {"note": 0, "velocity": 0, "duration": 61}, {"note": 84, "velocity": 91, "duration": 88}, {"note": 82, "velocity": 87, "duration": 71}, {"note": 77, "velocity": 93, "duration": 1118}, {"note": 0, "velocity": 0, "duration": 322}, {"note": 82, "velocity": 87, "duration": 173}, {"note": 0, "velocity": 0, "duration": 67}, {"note": 84, "velocity": 89, "duration": 78}, {"note": 82, "velocity": 88, "duration": 57}, {"note": 0, "velocity": 0, "duration": 63}, {"note": 75, "velocity": 95, "duration": 521}, {"note": 0, "velocity": 0, "duration": 199}, {"note": 70, "velocity": 87, "duration": 64}, {"note": 70, "velocity": 87, "duration": 64}, {"note": 72, "velocity": 92, "duration": 226}, {"note": 72, "velocity": 93, "duration": 153}, {"note": 0, "velocity": 0, "duration": 327}, {"note": 72, "velocity": 91, "duration": 75}, {"note": 75, "velocity": 89, "duration": 60}, {"note": 77, "velocity": 81, "duration": 1120}, {"note": 0, "velocity": 0, "duration": 320}, {"note": 82, "velocity": 86, "duration": 168}, {"note": 0, "velocity": 0, "duration": 72}, {"note": 84, "velocity": 87, "duration": 91}, {"note": 82, "velocity": 87, "duration": 60}, {"note": 82, "velocity": 85, "duration": 1352}, {"note": 0, "velocity": 0, "duration": 88}, {"note": 82, "velocity": 88, "duration": 175}, {"note": 0, "velocity": 0, "duration": 65}, {"note": 84, "velocity": 88, "duration": 82}, {"note": 82, "velocity": 92, "duration": 55}, {"note": 0, "velocity": 0, "duration": 65}, {"note": 77, "velocity": 90, "duration": 977}, {"note": 0, "velocity": 0, "duration": 463}, {"note": 82, "velocity": 90, "duration": 161}, {"note": 0, "velocity": 0, "duration": 79}, {"note": 84, "velocity": 90, "duration": 99}, {"note": 82, "velocity": 88, "duration": 55}, {"note": 0, "velocity": 0, "duration": 65}, {"note": 75, "velocity": 97, "duration": 568}, {"note": 0, "velocity": 0, "duration": 152}, {"note": 70, "velocity": 87, "duration": 55}, {"note": 0, "velocity": 0, "duration": 65}, {"note": 70, "velocity": 87, "duration": 62}, {"note": 72, "velocity": 90, "duration": 191}, {"note": 72, "velocity": 97, "duration": 206}, {"note": 0, "velocity": 0, "duration": 274}, {"note": 72, "velocity": 90, "duration": 84}, {"note": 75, "velocity": 88, "duration": 64}, {"note": 82, "velocity": 95, "duration": 1370}, {"note": 0, "velocity": 0, "duration": 70}, {"note": 82, "velocity": 93, "duration": 193}, {"note": 84, "velocity": 95, "duration": 79}, {"note": 82, "velocity": 89, "duration": 69}, {"note": 82, "velocity": 88, "duration": 1217}, {"note": 0, "velocity": 0, "duration": 223}, {"note": 82, "velocity": 90, "duration": 179}, {"note": 0, "velocity": 0, "duration": 61}, {"note": 84, "velocity": 91, "duration": 88}, {"note": 82, "velocity": 87, "duration": 71}, {"note": 77, "velocity": 93, "duration": 1118}, {"note": 0, "velocity": 0, "duration": 322}, {"note": 82, "velocity": 87, "duration": 173}, {"note": 0, "velocity": 0, "duration": 67}, {"note": 84, "velocity": 89, "duration": 78}, {"note": 82, "velocity": 88, "duration": 57}, {"note": 0, "velocity": 0, "duration": 63}, {"note": 75, "velocity": 95, "duration": 521}, {"note": 0, "velocity": 0, "duration": 199}, {"note": 70, "velocity": 87, "duration": 64}, {"note": 70, "velocity": 87, "duration": 64}, {"note": 72, "velocity": 92, "duration": 226}, {"note": 72, "velocity": 93, "duration": 153}, {"note": 0, "velocity": 0, "duration": 327}, {"note": 72, "velocity": 91, "duration": 75}, {"note": 75, "velocity": 89, "duration": 60}, {"note": 77, "velocity": 81, "duration": 1120}, {"note": 0, "velocity": 0, "duration": 320}, {"note": 82, "velocity": 86, "duration": 168}, {"note": 0, "velocity": 0, "duration": 72}, {"note": 84, "velocity": 87, "duration": 91}, {"note": 82, "velocity": 87, "duration": 60}, {"note": 82, "velocity": 85, "duration": 1352}, {"note": 0, "velocity": 0, "duration": 88}, {"note": 82, "velocity": 88, "duration": 175}, {"note": 0, "velocity": 0, "duration": 65}, {"note": 84, "velocity": 88, "duration": 82}, {"note": 82, "velocity": 92, "duration": 55}, {"note": 0, "velocity": 0, "duration": 65}, {"note": 77, "velocity": 90, "duration": 977}, {"note": 0, "velocity": 0, "duration": 463}, {"note": 82, "velocity": 90, "duration": 161}, {"note": 0, "velocity": 0, "duration": 79}, {"note": 84, "velocity": 90, "duration": 99}, {"note": 82, "velocity": 88, "duration": 55}, {"note": 0, "velocity": 0, "duration": 65}, {"note": 75, "velocity": 97, "duration": 568}, {"note": 0, "velocity": 0, "duration": 152}, {"note": 70, "velocity": 87, "duration": 55}, {"note": 0, "velocity": 0, "duration": 65}, {"note": 70, "velocity": 87, "duration": 62}, {"note": 72, "velocity": 90, "duration": 191}, {"note": 72, "velocity": 97, "duration": 440}, {"note": 0, "velocity": 0, "duration": 520}, {"note": 72, "velocity": 90, "duration": 84}, {"note": 75, "velocity": 88, "duration": 64}, {"note": 75, "velocity": 95, "duration": 1370}]]