[[{"note": 62, "velocity": 92, "duration": 204}, {"note": 72, "velocity": 94, "duration": 185}, {"note": 71, "velocity": 95, "duration": 574}, {"note": 0, "velocity": 0, "duration": 146}, {"note": 71, "velocity": 86, "duration": 161}, {"note": 0, "velocity": 0, "duration": 79}, {"note": 72, "velocity": 91, "duration": 178}, {"note": 0, "velocity": 0, "duration": 62}, {"note": 71, "velocity": 92, "duration": 185}, {"note": 69, "velocity": 92, "duration": 208}, {"note": 67, "velocity": 90, "duration": 195}, {"note": 69, "velocity": 90, "duration": 174}, {"note": 0, "velocity": 0, "duration": 66}, {"note": 71, "velocity": 91, "duration": 167}, {"note": 0, "velocity": 0, "duration": 73}, {"note": 72, "velocity": 92, "duration": 192}, {"note": 71, "velocity": 94, "duration": 780}, {"note": 0, "velocity": 0, "duration": 180}, {"note": 64, "velocity": 102, "duration": 209}, {"note": 72, "velocity": 93, "duration": 628}, {"note": 0, "velocity": 0, "duration": 92}, {"note": 72, "velocity": 92, "duration": 166}, {"note": 0, "velocity": 0, "duration": 74}, {"note": 74, "velocity": 95, "duration": 181}, {"note": 72, "velocity": 92, "duration": 180}, {"note": 69, "velocity": 89, "duration": 210}, {"note": 71, "velocity": 90, "duration": 193}, {"note": 72, "velocity": 90, "duration": 638}, {"note": 0, "velocity": 0, "duration": 82}, {"note": 71, "velocity": 93, "duration": 156}, {"note": 0, "velocity": 0, "duration": 84}, {"note": 71, "velocity": 93, "duration": 612}, {"note": 0, "velocity": 0, "duration": 108}, {"note": 67, "velocity": 94, "duration": 190}, {"note": 74, "velocity": 102, "duration": 657}, {"note": 0, "velocity": 0, "duration": 63}, {"note": 74, "velocity": 97, "duration": 151}, {"note": 0, "velocity": 0, "duration": 89}, {"note": 76, "velocity": 94, "duration": 183}, {"note": 74, "velocity": 95, "duration": 178}, {"note": 0, "velocity": 0, "duration": 62}, {"note": 72, "velocity": 93, "duration": 195}, {"note": 71, "velocity": 95, "duration": 189}, {"note": 71, "velocity": 97, "duration": 191}, {"note": 72, "velocity": 94, "duration": 171}, {"note": 0, "velocity": 0, "duration": 69}, {"note": 69, "velocity": 90, "duration": 162}, {"note": 0, "velocity": 0, "duration": 78}, {"note": 67, "velocity": 92, "duration": 189}, {"note": 78, "velocity": 90, "duration": 393}, {"note": 0, "velocity": 0, "duration": 327}, {"note": 76, "velocity": 93, "duration": 165}, {"note": 0, "velocity": 0, "duration": 75}, {"note": 74, "velocity": 95, "duration": 166}, {"note": 0, "velocity": 0, "duration": 74}, {"note": 72, "velocity": 92, "duration": 168}, {"note": 0, "velocity": 0, "duration": 72}, {"note": 64, "velocity": 97, "duration": 172}, {"note": 0, "velocity": 0, "duration": 68}, {"note": 66, "velocity": 91, "duration": 185}, {"note": 71, "velocity": 90, "duration": 403}, {"note": 0, "velocity": 0, "duration": 77}, {"note": 69, "velocity": 90, "duration": 404}, {"note": 0, "velocity": 0, "duration": 76}, {"note": 67, "velocity": 84, "duration": 960}, {"note": 0, "velocity": 0, "duration": 480}, {"note": 62, "velocity": 92, "duration": 204}, {"note": 72, "velocity": 94, "duration": 185}, {"note": 71, "velocity": 95, "duration": 574}, {"note": 0, "velocity": 0, "duration": 146}, {"note": 71, "velocity": 86, "duration": 161}, {"note": 0, "velocity": 0, "duration": 79}, {"note": 72, "velocity": 91, "duration": 178}, {"note": 0, "velocity": 0, "duration": 62}, {"note": 71, "velocity": 92, "duration": 185}, {"note": 69, "velocity": 92, "duration": 208}, {"note": 67, "velocity": 90, "duration": 195}, {"note": 69, "velocity": 90, "duration": 174}, {"note": 0, "velocity": 0, "duration": 66}, {"note": 71, "velocity": 91, "duration": 167}, {"note": 0, "velocity": 0, "duration": 73}, {"note": 72, "velocity": 92, "duration": 192}, {"note": 71, "velocity": 94, "duration": 780}, {"note": 0, "velocity": 0, "duration": 180}, {"note": 64, "velocity": 102, "duration": 209}, {"note": 72, "velocity": 93, "duration": 628}, {"note": 0, "velocity": 0, "duration": 92}, {"note": 72, "velocity": 92, "duration": 166}, {"note": 0, "velocity": 0, "duration": 74}, {"note": 74, "velocity": 95, "duration": 181}, {"note": 72, "velocity": 92, "duration": 180}, {"note": 69, "velocity": 89, "duration": 210}, {"note": 71, "velocity": 90, "duration": 193}, {"note": 72, "velocity": 90, "duration": 638}, {"note": 0, "velocity": 0, "duration": 82}, {"note": 71, "velocity": 93, "duration": 156}, {"note": 0, "velocity": 0, "duration": 84}, {"note": 71, "velocity": 93, "duration": 612}, {"note": 0, "velocity": 0, "duration": 108}, {"note": 67, "velocity": 94, "duration": 190}, {"note": 74, "velocity": 102, "duration": 657}, {"note": 0, "velocity": 0, "duration": 63}, {"note": 74, "velocity": 97, "duration": 151}, {"note": 0, "velocity": 0, "duration": 89}, {"note": 76, "velocity": 94, "duration": 183}, {"note": 74, "velocity": 95, "duration": 178}, {"note": 0, "velocity": 0, "duration": 62}, {"note": 72, "velocity": 93, "duration": 195}, {"note": 71, "velocity": 95, "duration": 189}, {"note": 71, "velocity": 97, "duration": 191}, {"note": 72, "velocity": 94, "duration": 171}, {"note": 0, "velocity": 0, "duration": 69}, {"note": 69, "velocity": 90, "duration": 162}, {"note": 0, "velocity": 0, "duration": 78}, {"note": 67, "velocity": 92, "duration": 189}, {"note": 78, "velocity": 90, "duration": 393}, {"note": 0, "velocity": 0, "duration": 327}, {"note": 76, "velocity": 93, "duration": 165}, {"note": 0, "velocity": 0, "duration": 75}, {"note": 74, "velocity": 95, "duration": 166}, {"note": 0, "velocity": 0, "duration": 74}, {"note": 72, "velocity": 92, "duration": 168}, {"note": 0, "velocity": 0, "duration": 72}, {"note": 64, "velocity": 97, "duration": 172}, {"note": 0, "velocity": 0, "duration": 68}, {"note": 66, "velocity": 91, "duration": 185}, {"note": 71, "velocity": 90, "duration": 403}, {"note": 0, "velocity": 0, "duration": 77}, {"note": 69, "velocity": 90, "duration": 404}, {"note": 0, "velocity": 0, "duration": 76}, {"note": 67, "velocity": 84, "duration": 960}, {"note": 0, "velocity": 0, "duration": 240}, {"note": 67, "velocity": 97, "duration": 165}, {"note": 0, "velocity": 0, "duration": 75}, {"note": 71, "velocity": 99, "duration": 157}, {"note": 0, "velocity": 0, "duration": 83}, {"note": 74, "velocity": 99, "duration": 174}, {"note": 0, "velocity": 0, "duration": 66}, {"note": 74, "velocity": 102, "duration": 166}, {"note": 0, "velocity": 0, "duration": 74}, {"note": 76, "velocity": 99, "duration": 150}, {"note": 0, "velocity": 0, "duration": 90}, {"note": 72, "velocity": 99, "duration": 181}, {"note": 71, "velocity": 93, "duration": 75}, {"note": 69, "velocity": 99, "duration": 441}, {"note": 67, "velocity": 91, "duration": 70}, {"note": 71, "velocity": 95, "duration": 75}, {"note": 72, "velocity": 99, "duration": 171}, {"note": 0, "velocity": 0, "duration": 69}, {"note": 72, "velocity": 97, "duration": 301}, {"note": 74, "velocity": 102, "duration": 162}, {"note": 0, "velocity": 0, "duration": 78}, {"note": 71, "velocity": 102, "duration": 186}, {"note": 69, "velocity": 94, "duration": 72}, {"note": 67, "velocity": 92, "duration": 476}, {"note": 62, "velocity": 91, "duration": 81}, {"note": 69, "velocity": 89, "duration": 72}, {"note": 71, "velocity": 90, "duration": 154}, {"note": 0, "velocity": 0, "duration": 86}, {"note": 71, "velocity": 99, "duration": 322}, {"note": 72, "velocity": 92, "duration": 114}, {"note": 0, "velocity": 0, "duration": 126}, {"note": 72, "velocity": 97, "duration": 156}, {"note": 0, "velocity": 0, "duration": 84}, {"note": 64, "velocity": 97, "duration": 204}, {"note": 66, "velocity": 90, "duration": 284}, {"note": 0, "velocity": 0, "duration": 196}, {"note": 67, "velocity": 91, "duration": 171}, {"note": 0, "velocity": 0, "duration": 69}, {"note": 69, "velocity": 95, "duration": 189}, {"note": 67, "velocity": 93, "duration": 693}, {"note": 69, "velocity": 92, "duration": 187}, {"note": 71, "velocity": 93, "duration": 207}, {"note": 67, "velocity": 94, "duration": 175}, {"note": 0, "velocity": 0, "duration": 65}, {"note": 71, "velocity": 95, "duration": 193}, {"note": 74, "velocity": 102, "duration": 171}, {"note": 0, "velocity": 0, "duration": 69}, {"note": 74, "velocity": 97, "duration": 164}, {"note": 0, "velocity": 0, "duration": 76}, {"note": 76, "velocity": 95, "duration": 153}, {"note": 0, "velocity": 0, "duration": 87}, {"note": 72, "velocity": 91, "duration": 187}, {"note": 71, "velocity": 91, "duration": 93}, {"note": 69, "velocity": 92, "duration": 388}, {"note": 0, "velocity": 0, "duration": 92}, {"note": 79, "velocity": 94, "duration": 70}, {"note": 78, "velocity": 94, "duration": 78}, {"note": 79, "velocity": 94, "duration": 324}, {"note": 74, "velocity": 95, "duration": 169}, {"note": 0, "velocity": 0, "duration": 71}, {"note": 76, "velocity": 95, "duration": 177}, {"note": 0, "velocity": 0, "duration": 63}, {"note": 74, "velocity": 102, "duration": 200}, {"note": 72, "velocity": 93, "duration": 120}, {"note": 71, "velocity": 95, "duration": 398}, {"note": 0, "velocity": 0, "duration": 82}, {"note": 67, "velocity": 94, "duration": 69}, {"note": 72, "velocity": 99, "duration": 75}, {"note": 74, "velocity": 97, "duration": 291}, {"note": 0, "velocity": 0, "duration": 69}, {"note": 74, "velocity": 95, "duration": 164}, {"note": 0, "velocity": 0, "duration": 76}, {"note": 76, "velocity": 94, "duration": 147}, {"note": 0, "velocity": 0, "duration": 93}, {"note": 76, "velocity": 97, "duration": 159}, {"note": 0, "velocity": 0, "duration": 81}, {"note": 67, "velocity": 92, "duration": 190}, {"note": 67, "velocity": 90, "duration": 386}, {"note": 0, "velocity": 0, "duration": 94}, {"note": 66, "velocity": 94, "duration": 405}, {"note": 0, "velocity": 0, "duration": 75}, {"note": 67, "velocity": 94, "duration": 1310}, {"note": 0, "velocity": 0, "duration": 130}, {"note": 62, "velocity": 92, "duration": 204}, {"note": 72, "velocity": 94, "duration": 185}, {"note": 71, "velocity": 95, "duration": 574}, {"note": 0, "velocity": 0, "duration": 146}, {"note": 71, "velocity": 86, "duration": 161}, {"note": 0, "velocity": 0, "duration": 79}, {"note": 72, "velocity": 91, "duration": 178}, {"note": 0, "velocity": 0, "duration": 62}, {"note": 71, "velocity": 92, "duration": 185}, {"note": 69, "velocity": 92, "duration": 208}, {"note": 67, "velocity": 90, "duration": 195}, {"note": 69, "velocity": 90, "duration": 174}, {"note": 0, "velocity": 0, "duration": 66}, {"note": 71, "velocity": 91, "duration": 167}, {"note": 0, "velocity": 0, "duration": 73}, {"note": 72, "velocity": 92, "duration": 192}, {"note": 71, "velocity": 94, "duration": 780}, {"note": 0, "velocity": 0, "duration": 180}, {"note": 64, "velocity": 102, "duration": 209}, {"note": 72, "velocity": 93, "duration": 628}, {"note": 0, "velocity": 0, "duration": 92}, {"note": 72, "velocity": 92, "duration": 166}, {"note": 0, "velocity": 0, "duration": 74}, {"note": 74, "velocity": 95, "duration": 181}, {"note": 72, "velocity": 92, "duration": 180}, {"note": 69, "velocity": 89, "duration": 210}, {"note": 71, "velocity": 90, "duration": 193}, {"note": 72, "velocity": 90, "duration": 638}, {"note": 0, "velocity": 0, "duration": 82}, {"note": 71, "velocity": 93, "duration": 156}, {"note": 0, "velocity": 0, "duration": 84}, {"note": 71, "velocity": 93, "duration": 612}, {"note": 0, "velocity": 0, "duration": 108}, {"note": 67, "velocity": 94, "duration": 190}, {"note": 74, "velocity": 102, "duration": 657}, {"note": 0, "velocity": 0, "duration": 63}, {"note": 74, "velocity": 97, "duration": 151}, {"note": 0, "velocity": 0, "duration": 89}, {"note": 76, "velocity": 94, "duration": 183}, {"note": 74, "velocity": 95, "duration": 178}, {"note": 0, "velocity": 0, "duration": 62}, {"note": 72, "velocity": 93, "duration": 195}, {"note": 71, "velocity": 95, "duration": 189}, {"note": 71, "velocity": 97, "duration": 191}, {"note": 72, "velocity": 94, "duration": 171}, {"note": 0, "velocity": 0, "duration": 69}, {"note": 69, "velocity": 90, "duration": 162}, {"note": 0, "velocity": 0, "duration": 78}, {"note": 67, "velocity": 92, "duration": 189}, {"note": 78, "velocity": 90, "duration": 393}, {"note": 0, "velocity": 0, "duration": 327}, {"note": 76, "velocity": 93, "duration": 165}, {"note": 0, "velocity": 0, "duration": 75}, {"note": 74, "velocity": 95, "duration": 166}, {"note": 0, "velocity": 0, "duration": 74}, {"note": 72, "velocity": 92, "duration": 168}, {"note": 0, "velocity": 0, "duration": 72}, {"note": 64, "velocity": 97, "duration": 172}, {"note": 0, "velocity": 0, "duration": 68}, {"note": 66, "velocity": 91, "duration": 185}, {"note": 71, "velocity": 90, "duration": 403}, {"note": 0, "velocity": 0, "duration": 77}, {"note": 69, "velocity": 90, "duration": 404}, {"note": 0, "velocity": 0, "duration": 76}, {"note": 67, "velocity": 84, "duration": 960}, {"note": 0, "velocity": 0, "duration": 7680}, {"note": 71, "velocity": 102, "duration": 172}, {"note": 0, "velocity": 0, "duration": 68}, {"note": 74, "velocity": 104, "duration": 65}, {"note": 79, "velocity": 93, "duration": 183}, {"note": 81, "velocity": 95, "duration": 267}, {"note": 0, "velocity": 0, "duration": 93}, {"note": 83, "velocity": 93, "duration": 186}, {"note": 79, "velocity": 99, "duration": 57}, {"note": 0, "velocity": 0, "duration": 63}, {"note": 79, "velocity": 92, "duration": 188}, {"note": 76, "velocity": 97, "duration": 303}, {"note": 81, "velocity": 104, "duration": 148}, {"note": 0, "velocity": 0, "duration": 92}, {"note": 78, "velocity": 93, "duration": 68}, {"note": 78, "velocity": 97, "duration": 240}, {"note": 76, "velocity": 83, "duration": 240}, {"note": 0, "velocity": 0, "duration": 120}, {"note": 74, "velocity": 102, "duration": 192}, {"note": 81, "velocity": 94, "duration": 174}, {"note": 0, "velocity": 0, "duration": 66}, {"note": 78, "velocity": 92, "duration": 176}, {"note": 0, "velocity": 0, "duration": 64}, {"note": 79, "velocity": 92, "duration": 786}, {"note": 0, "velocity": 0, "duration": 414}, {"note": 72, "velocity": 97, "duration": 230}, {"note": 71, "velocity": 94, "duration": 76}, {"note": 72, "velocity": 94, "duration": 193}, {"note": 74, "velocity": 97, "duration": 294}, {"note": 0, "velocity": 0, "duration": 66}, {"note": 76, "velocity": 95, "duration": 234}, {"note": 74, "velocity": 102, "duration": 67}, {"note": 76, "velocity": 94, "duration": 217}, {"note": 78, "velocity": 99, "duration": 251}, {"note": 0, "velocity": 0, "duration": 109}, {"note": 79, "velocity": 94, "duration": 175}, {"note": 0, "velocity": 0, "duration": 65}, {"note": 78, "velocity": 95, "duration": 82}, {"note": 79, "velocity": 90, "duration": 155}, {"note": 0, "velocity": 0, "duration": 85}, {"note": 81, "velocity": 93, "duration": 303}, {"note": 81, "velocity": 95, "duration": 240}, {"note": 67, "velocity": 97, "duration": 165}, {"note": 0, "velocity": 0, "duration": 75}, {"note": 71, "velocity": 99, "duration": 157}, {"note": 0, "velocity": 0, "duration": 83}, {"note": 74, "velocity": 99, "duration": 174}, {"note": 0, "velocity": 0, "duration": 66}, {"note": 74, "velocity": 102, "duration": 166}, {"note": 0, "velocity": 0, "duration": 74}, {"note": 76, "velocity": 99, "duration": 150}, {"note": 0, "velocity": 0, "duration": 90}, {"note": 72, "velocity": 99, "duration": 181}, {"note": 71, "velocity": 93, "duration": 75}, {"note": 69, "velocity": 99, "duration": 441}, {"note": 67, "velocity": 91, "duration": 70}, {"note": 71, "velocity": 95, "duration": 75}, {"note": 72, "velocity": 99, "duration": 171}, {"note": 0, "velocity": 0, "duration": 69}, {"note": 72, "velocity": 97, "duration": 301}, {"note": 74, "velocity": 102, "duration": 162}, {"note": 0, "velocity": 0, "duration": 78}, {"note": 71, "velocity": 102, "duration": 186}, {"note": 69, "velocity": 94, "duration": 72}, {"note": 67, "velocity": 92, "duration": 476}, {"note": 62, "velocity": 91, "duration": 81}, {"note": 69, "velocity": 89, "duration": 72}, {"note": 71, "velocity": 90, "duration": 154}, {"note": 0, "velocity": 0, "duration": 86}, {"note": 71, "velocity": 99, "duration": 322}, {"note": 72, "velocity": 92, "duration": 114}, {"note": 0, "velocity": 0, "duration": 126}, {"note": 72, "velocity": 97, "duration": 156}, {"note": 0, "velocity": 0, "duration": 84}, {"note": 64, "velocity": 97, "duration": 204}, {"note": 66, "velocity": 90, "duration": 284}, {"note": 0, "velocity": 0, "duration": 196}, {"note": 67, "velocity": 91, "duration": 171}, {"note": 0, "velocity": 0, "duration": 69}, {"note": 69, "velocity": 95, "duration": 189}, {"note": 67, "velocity": 93, "duration": 693}, {"note": 69, "velocity": 92, "duration": 187}, {"note": 71, "velocity": 93, "duration": 207}, {"note": 67, "velocity": 94, "duration": 175}, {"note": 0, "velocity": 0, "duration": 65}, {"note": 71, "velocity": 95, "duration": 193}, {"note": 74, "velocity": 102, "duration": 171}, {"note": 0, "velocity": 0, "duration": 69}, {"note": 74, "velocity": 97, "duration": 164}, {"note": 0, "velocity": 0, "duration": 76}, {"note": 76, "velocity": 95, "duration": 153}, {"note": 0, "velocity": 0, "duration": 87}, {"note": 72, "velocity": 91, "duration": 187}, {"note": 71, "velocity": 91, "duration": 93}, {"note": 69, "velocity": 92, "duration": 388}, {"note": 0, "velocity": 0, "duration": 92}, {"note": 79, "velocity": 94, "duration": 70}, {"note": 78, "velocity": 94, "duration": 78}, {"note": 79, "velocity": 94, "duration": 324}, {"note": 74, "velocity": 95, "duration": 169}, {"note": 0, "velocity": 0, "duration": 71}, {"note": 76, "velocity": 95, "duration": 177}, {"note": 0, "velocity": 0, "duration": 63}, {"note": 74, "velocity": 102, "duration": 200}, {"note": 72, "velocity": 93, "duration": 120}, {"note": 71, "velocity": 95, "duration": 398}, {"note": 0, "velocity": 0, "duration": 2002}, {"note": 67, "velocity": 94, "duration": 69}, {"note": 72, "velocity": 99, "duration": 75}, {"note": 74, "velocity": 97, "duration": 291}, {"note": 0, "velocity": 0, "duration": 69}, {"note": 74, "velocity": 95, "duration": 164}, {"note": 0, "velocity": 0, "duration": 76}, {"note": 76, "velocity": 94, "duration": 147}, {"note": 0, "velocity": 0, "duration": 93}, {"note": 76, "velocity": 97, "duration": 159}, {"note": 0, "velocity": 0, "duration": 81}, {"note": 67, "velocity": 92, "duration": 190}, {"note": 67, "velocity": 90, "duration": 386}, {"note": 0, "velocity": 0, "duration": 94}, {"note": 66, "velocity": 94, "duration": 405}, {"note": 0, "velocity": 0, "duration": 75}, {"note": 67, "velocity": 94, "duration": 1310}, {"note": 0, "velocity": 0, "duration": 130}, {"note": 62, "velocity": 92, "duration": 204}, {"note": 72, "velocity": 94, "duration": 185}, {"note": 71, "velocity": 95, "duration": 574}, {"note": 0, "velocity": 0, "duration": 146}, {"note": 71, "velocity": 86, "duration": 161}, {"note": 0, "velocity": 0, "duration": 79}, {"note": 72, "velocity": 91, "duration": 178}, {"note": 0, "velocity": 0, "duration": 62}, {"note": 71, "velocity": 92, "duration": 185}, {"note": 69, "velocity": 92, "duration": 208}, {"note": 67, "velocity": 90, "duration": 195}, {"note": 69, "velocity": 90, "duration": 174}, {"note": 0, "velocity": 0, "duration": 66}, {"note": 71, "velocity": 91, "duration": 167}, {"note": 0, "velocity": 0, "duration": 73}, {"note": 72, "velocity": 92, "duration": 192}, {"note": 71, "velocity": 94, "duration": 780}, {"note": 0, "velocity": 0, "duration": 180}, {"note": 64, "velocity": 102, "duration": 209}, {"note": 72, "velocity": 93, "duration": 628}, {"note": 0, "velocity": 0, "duration": 92}, {"note": 72, "velocity": 92, "duration": 166}, {"note": 0, "velocity": 0, "duration": 74}, {"note": 74, "velocity": 95, "duration": 181}, {"note": 72, "velocity": 92, "duration": 180}, {"note": 69, "velocity": 89, "duration": 210}, {"note": 71, "velocity": 90, "duration": 193}, {"note": 72, "velocity": 90, "duration": 638}, {"note": 0, "velocity": 0, "duration": 82}, {"note": 71, "velocity": 93, "duration": 156}, {"note": 0, "velocity": 0, "duration": 84}, {"note": 71, "velocity": 93, "duration": 612}, {"note": 0, "velocity": 0, "duration": 108}, {"note": 67, "velocity": 94, "duration": 190}, {"note": 74, "velocity": 102, "duration": 657}, {"note": 0, "velocity": 0, "duration": 63}, {"note": 74, "velocity": 97, "duration": 151}, {"note": 0, "velocity": 0, "duration": 89}, {"note": 76, "velocity": 94, "duration": 183}, {"note": 74, "velocity": 95, "duration": 178}, {"note": 0, "velocity": 0, "duration": 62}, {"note": 72, "velocity": 93, "duration": 195}, {"note": 71, "velocity": 95, "duration": 189}, {"note": 71, "velocity": 97, "duration": 191}, {"note": 72, "velocity": 94, "duration": 171}, {"note": 0, "velocity": 0, "duration": 69}, {"note": 69, "velocity": 90, "duration": 162}, {"note": 0, "velocity": 0, "duration": 78}, {"note": 67, "velocity": 92, "duration": 189}, {"note": 78, "velocity": 90, "duration": 393}, {"note": 0, "velocity": 0, "duration": 327}, {"note": 76, "velocity": 93, "duration": 165}, {"note": 0, "velocity": 0, "duration": 75}, {"note": 74, "velocity": 95, "duration": 166}, {"note": 0, "velocity": 0, "duration": 74}, {"note": 72, "velocity": 92, "duration": 168}, {"note": 0, "velocity": 0, "duration": 72}, {"note": 64, "velocity": 97, "duration": 172}, {"note": 0, "velocity": 0, "duration": 68}, {"note": 66, "velocity": 91, "duration": 185}, {"note": 71, "velocity": 90, "duration": 403}, {"note": 0, "velocity": 0, "duration": 77}, {"note": 69, "velocity": 90, "duration": 404}, {"note": 0, "velocity": 0, "duration": 76}, {"note": 67, "velocity": 84, "duration": 960}, {"note": 0, "velocity": 0, "duration": 240}, {"note": 67, "velocity": 90, "duration": 171}, {"note": 0, "velocity": 0, "duration": 69}, {"note": 66, "velocity": 92, "duration": 196}, {"note": 67, "velocity": 89, "duration": 219}, {"note": 74, "velocity": 102, "duration": 657}, {"note": 0, "velocity": 0, "duration": 63}, {"note": 74, "velocity": 97, "duration": 151}, {"note": 0, "velocity": 0, "duration": 89}, {"note": 76, "velocity": 94, "duration": 183}, {"note": 74, "velocity": 95, "duration": 178}, {"note": 0, "velocity": 0, "duration": 62}, {"note": 72, "velocity": 93, "duration": 195}, {"note": 71, "velocity": 95, "duration": 189}, {"note": 71, "velocity": 97, "duration": 191}, {"note": 72, "velocity": 94, "duration": 171}, {"note": 0, "velocity": 0, "duration": 69}, {"note": 69, "velocity": 90, "duration": 162}, {"note": 0, "velocity": 0, "duration": 78}, {"note": 67, "velocity": 92, "duration": 189}, {"note": 78, "velocity": 90, "duration": 393}, {"note": 0, "velocity": 0, "duration": 327}, {"note": 76, "velocity": 93, "duration": 165}, {"note": 0, "velocity": 0, "duration": 75}, {"note": 74, "velocity": 95, "duration": 166}, {"note": 0, "velocity": 0, "duration": 74}, {"note": 72, "velocity": 92, "duration": 168}, {"note": 0, "velocity": 0, "duration": 72}, {"note": 64, "velocity": 97, "duration": 172}, {"note": 0, "velocity": 0, "duration": 68}, {"note": 66, "velocity": 91, "duration": 185}, {"note": 71, "velocity": 90, "duration": 403}, {"note": 0, "velocity": 0, "duration": 77}, {"note": 69, "velocity": 90, "duration": 404}, {"note": 0, "velocity": 0, "duration": 76}, {"note": 67, "velocity": 84, "duration": 960}, {"note": 0, "velocity": 0, "duration": 720}, {"note": 76, "velocity": 93, "duration": 165}, {"note": 0, "velocity": 0, "duration": 75}, {"note": 74, "velocity": 95, "duration": 166}, {"note": 0, "velocity": 0, "duration": 74}, {"note": 72, "velocity": 92, "duration": 168}, {"note": 0, "velocity": 0, "duration": 72}, {"note": 64, "velocity": 97, "duration": 172}, {"note": 0, "velocity": 0, "duration": 68}, {"note": 66, "velocity": 91, "duration": 185}, {"note": 71, "velocity": 90, "duration": 403}, {"note": 0, "velocity": 0, "duration": 77}, {"note": 69, "velocity": 90, "duration": 404}, {"note": 0, "velocity": 0, "duration": 76}, {"note": 67, "velocity": 84, "duration": 960}, {"note": 0, "velocity": 0, "duration": 720}, {"note": 76, "velocity": 93, "duration": 165}, {"note": 0, "velocity": 0, "duration": 75}, {"note": 74, "velocity": 95, "duration": 166}, {"note": 0, "velocity": 0, "duration": 74}, {"note": 72, "velocity": 92, "duration": 168}, {"note": 0, "velocity": 0, "duration": 72}, {"note": 64, "velocity": 97, "duration": 172}, {"note": 0, "velocity": 0, "duration": 68}, {"note": 66, "velocity": 91, "duration": 185}, {"note": 71, "velocity": 90, "duration": 1680}, {"note": 0, "velocity": 0, "duration": 360}, {"note": 69, "velocity": 97, "duration": 422}, {"note": 67, "velocity": 90, "duration": 1556}]]