[[{"note": 63, "velocity": 91, "duration": 190}, {"note": 63, "velocity": 95, "duration": 193}, {"note": 68, "velocity": 90, "duration": 185}, {"note": 68, "velocity": 94, "duration": 196}, {"note": 70, "velocity": 92, "duration": 190}, {"note": 70, "velocity": 91, "duration": 188}, {"note": 72, "velocity": 90, "duration": 178}, {"note": 0, "velocity": 0, "duration": 62}, {"note": 72, "velocity": 96, "duration": 181}, {"note": 70, "velocity": 91, "duration": 203}, {"note": 68, "velocity": 92, "duration": 188}, {"note": 70, "velocity": 92, "duration": 374}, {"note": 0, "velocity": 0, "duration": 106}, {"note": 63, "velocity": 95, "duration": 178}, {"note": 0, "velocity": 0, "duration": 62}, {"note": 65, "velocity": 92, "duration": 99}, {"note": 67, "velocity": 90, "duration": 193}, {"note": 68, "velocity": 93, "duration": 745}, {"note": 0, "velocity": 0, "duration": 335}, {"note": 68, "velocity": 85, "duration": 215}, {"note": 67, "velocity": 93, "duration": 187}, {"note": 65, "velocity": 94, "duration": 182}, {"note": 63, "velocity": 93, "duration": 1181}, {"note": 0, "velocity": 0, "duration": 259}, {"note": 56, "velocity": 99, "duration": 193}, {"note": 67, "velocity": 95, "duration": 354}, {"note": 68, "velocity": 88, "duration": 99}, {"note": 65, "velocity": 92, "duration": 607}, {"note": 0, "velocity": 0, "duration": 353}, {"note": 65, "velocity": 92, "duration": 183}, {"note": 63, "velocity": 94, "duration": 225}, {"note": 61, "velocity": 92, "duration": 201}, {"note": 63, "velocity": 92, "duration": 504}, {"note": 0, "velocity": 0, "duration": 696}, {"note": 63, "velocity": 91, "duration": 171}, {"note": 0, "velocity": 0, "duration": 69}, {"note": 61, "velocity": 91, "duration": 193}, {"note": 60, "velocity": 96, "duration": 193}, {"note": 63, "velocity": 92, "duration": 417}, {"note": 0, "velocity": 0, "duration": 63}, {"note": 61, "velocity": 92, "duration": 365}, {"note": 0, "velocity": 0, "duration": 235}, {"note": 53, "velocity": 92, "duration": 120}, {"note": 61, "velocity": 92, "duration": 240}, {"note": 60, "velocity": 92, "duration": 170}, {"note": 0, "velocity": 0, "duration": 70}, {"note": 60, "velocity": 90, "duration": 196}, {"note": 58, "velocity": 90, "duration": 1200}, {"note": 0, "velocity": 0, "duration": 1200}, {"note": 63, "velocity": 91, "duration": 190}, {"note": 63, "velocity": 95, "duration": 193}, {"note": 68, "velocity": 90, "duration": 185}, {"note": 68, "velocity": 94, "duration": 196}, {"note": 70, "velocity": 92, "duration": 190}, {"note": 70, "velocity": 91, "duration": 188}, {"note": 72, "velocity": 90, "duration": 178}, {"note": 0, "velocity": 0, "duration": 62}, {"note": 72, "velocity": 96, "duration": 181}, {"note": 70, "velocity": 91, "duration": 203}, {"note": 68, "velocity": 92, "duration": 188}, {"note": 70, "velocity": 92, "duration": 374}, {"note": 0, "velocity": 0, "duration": 106}, {"note": 63, "velocity": 95, "duration": 178}, {"note": 0, "velocity": 0, "duration": 62}, {"note": 65, "velocity": 92, "duration": 99}, {"note": 67, "velocity": 90, "duration": 193}, {"note": 68, "velocity": 93, "duration": 745}, {"note": 0, "velocity": 0, "duration": 95}, {"note": 68, "velocity": 85, "duration": 215}, {"note": 68, "velocity": 85, "duration": 215}, {"note": 67, "velocity": 93, "duration": 187}, {"note": 65, "velocity": 94, "duration": 182}, {"note": 63, "velocity": 93, "duration": 1181}, {"note": 0, "velocity": 0, "duration": 259}, {"note": 56, "velocity": 99, "duration": 193}, {"note": 67, "velocity": 95, "duration": 354}, {"note": 68, "velocity": 88, "duration": 99}, {"note": 65, "velocity": 92, "duration": 607}, {"note": 0, "velocity": 0, "duration": 353}, {"note": 65, "velocity": 92, "duration": 183}, {"note": 67, "velocity": 90, "duration": 193}, {"note": 68, "velocity": 85, "duration": 164}, {"note": 0, "velocity": 0, "duration": 76}, {"note": 70, "velocity": 91, "duration": 175}, {"note": 0, "velocity": 0, "duration": 65}, {"note": 70, "velocity": 94, "duration": 185}, {"note": 68, "velocity": 90, "duration": 480}, {"note": 63, "velocity": 83, "duration": 480}, {"note": 63, "velocity": 97, "duration": 185}, {"note": 72, "velocity": 93, "duration": 148}, {"note": 0, "velocity": 0, "duration": 92}, {"note": 73, "velocity": 94, "duration": 455}, {"note": 70, "velocity": 91, "duration": 579}, {"note": 63, "velocity": 92, "duration": 97}, {"note": 72, "velocity": 92, "duration": 168}, {"note": 0, "velocity": 0, "duration": 72}, {"note": 73, "velocity": 91, "duration": 199}, {"note": 72, "velocity": 94, "duration": 183}, {"note": 70, "velocity": 97, "duration": 2110}, {"note": 0, "velocity": 0, "duration": 290}, {"note": 72, "velocity": 94, "duration": 173}, {"note": 0, "velocity": 0, "duration": 67}, {"note": 72, "velocity": 99, "duration": 184}, {"note": 72, "velocity": 94, "duration": 82}, {"note": 73, "velocity": 86, "duration": 68}, {"note": 73, "velocity": 92, "duration": 191}, {"note": 72, "velocity": 93, "duration": 174}, {"note": 0, "velocity": 0, "duration": 66}, {"note": 70, "velocity": 94, "duration": 203}, {"note": 72, "velocity": 94, "duration": 297}, {"note": 0, "velocity": 0, "duration": 183}, {"note": 72, "velocity": 96, "duration": 177}, {"note": 0, "velocity": 0, "duration": 63}, {"note": 72, "velocity": 95, "duration": 177}, {"note": 0, "velocity": 0, "duration": 63}, {"note": 73, "velocity": 91, "duration": 174}, {"note": 0, "velocity": 0, "duration": 66}, {"note": 73, "velocity": 92, "duration": 212}, {"note": 72, "velocity": 94, "duration": 231}, {"note": 70, "velocity": 91, "duration": 214}, {"note": 72, "velocity": 96, "duration": 394}, {"note": 0, "velocity": 0, "duration": 86}, {"note": 72, "velocity": 101, "duration": 174}, {"note": 0, "velocity": 0, "duration": 66}, {"note": 72, "velocity": 99, "duration": 161}, {"note": 0, "velocity": 0, "duration": 79}, {"note": 73, "velocity": 92, "duration": 171}, {"note": 0, "velocity": 0, "duration": 69}, {"note": 75, "velocity": 101, "duration": 151}, {"note": 0, "velocity": 0, "duration": 89}, {"note": 68, "velocity": 91, "duration": 194}, {"note": 67, "velocity": 92, "duration": 180}, {"note": 68, "velocity": 91, "duration": 214}, {"note": 70, "velocity": 93, "duration": 199}, {"note": 68, "velocity": 91, "duration": 170}, {"note": 0, "velocity": 0, "duration": 70}, {"note": 70, "velocity": 92, "duration": 167}, {"note": 0, "velocity": 0, "duration": 73}, {"note": 72, "velocity": 96, "duration": 172}, {"note": 0, "velocity": 0, "duration": 68}, {"note": 73, "velocity": 93, "duration": 177}, {"note": 0, "velocity": 0, "duration": 63}, {"note": 72, "velocity": 101, "duration": 177}, {"note": 0, "velocity": 0, "duration": 63}, {"note": 70, "velocity": 96, "duration": 174}, {"note": 0, "velocity": 0, "duration": 66}, {"note": 68, "velocity": 95, "duration": 200}, {"note": 0, "velocity": 0, "duration": 280}, {"note": 65, "velocity": 106, "duration": 167}, {"note": 0, "velocity": 0, "duration": 73}, {"note": 65, "velocity": 97, "duration": 185}, {"note": 75, "velocity": 104, "duration": 168}, {"note": 0, "velocity": 0, "duration": 72}, {"note": 75, "velocity": 106, "duration": 174}, {"note": 0, "velocity": 0, "duration": 66}, {"note": 73, "velocity": 92, "duration": 193}, {"note": 72, "velocity": 91, "duration": 186}, {"note": 73, "velocity": 94, "duration": 293}, {"note": 0, "velocity": 0, "duration": 187}, {"note": 63, "velocity": 93, "duration": 173}, {"note": 0, "velocity": 0, "duration": 67}, {"note": 63, "velocity": 97, "duration": 183}, {"note": 75, "velocity": 101, "duration": 174}, {"note": 0, "velocity": 0, "duration": 66}, {"note": 73, "velocity": 95, "duration": 191}, {"note": 72, "velocity": 95, "duration": 170}, {"note": 0, "velocity": 0, "duration": 70}, {"note": 70, "velocity": 94, "duration": 175}, {"note": 0, "velocity": 0, "duration": 65}, {"note": 72, "velocity": 91, "duration": 247}, {"note": 0, "velocity": 0, "duration": 233}, {"note": 65, "velocity": 94, "duration": 166}, {"note": 0, "velocity": 0, "duration": 74}, {"note": 65, "velocity": 97, "duration": 183}, {"note": 70, "velocity": 92, "duration": 194}, {"note": 70, "velocity": 92, "duration": 180}, {"note": 72, "velocity": 92, "duration": 163}, {"note": 0, "velocity": 0, "duration": 77}, {"note": 72, "velocity": 97, "duration": 232}, {"note": 73, "velocity": 93, "duration": 303}, {"note": 0, "velocity": 0, "duration": 177}, {"note": 65, "velocity": 96, "duration": 196}, {"note": 70, "velocity": 91, "duration": 177}, {"note": 0, "velocity": 0, "duration": 63}, {"note": 72, "velocity": 94, "duration": 180}, {"note": 73, "velocity": 92, "duration": 196}, {"note": 72, "velocity": 92, "duration": 184}, {"note": 70, "velocity": 94, "duration": 217}, {"note": 68, "velocity": 94, "duration": 1569}, {"note": 0, "velocity": 0, "duration": 14271}, {"note": 63, "velocity": 91, "duration": 190}, {"note": 63, "velocity": 95, "duration": 193}, {"note": 68, "velocity": 90, "duration": 185}, {"note": 68, "velocity": 94, "duration": 196}, {"note": 70, "velocity": 92, "duration": 190}, {"note": 70, "velocity": 91, "duration": 188}, {"note": 72, "velocity": 90, "duration": 178}, {"note": 0, "velocity": 0, "duration": 62}, {"note": 72, "velocity": 96, "duration": 181}, {"note": 70, "velocity": 91, "duration": 203}, {"note": 68, "velocity": 92, "duration": 188}, {"note": 70, "velocity": 92, "duration": 374}, {"note": 0, "velocity": 0, "duration": 106}, {"note": 63, "velocity": 95, "duration": 178}, {"note": 0, "velocity": 0, "duration": 62}, {"note": 65, "velocity": 92, "duration": 99}, {"note": 67, "velocity": 90, "duration": 193}, {"note": 68, "velocity": 93, "duration": 745}, {"note": 0, "velocity": 0, "duration": 95}, {"note": 68, "velocity": 85, "duration": 215}, {"note": 68, "velocity": 85, "duration": 215}, {"note": 67, "velocity": 93, "duration": 187}, {"note": 65, "velocity": 94, "duration": 182}, {"note": 63, "velocity": 93, "duration": 1181}, {"note": 0, "velocity": 0, "duration": 259}, {"note": 56, "velocity": 99, "duration": 193}, {"note": 67, "velocity": 95, "duration": 354}, {"note": 68, "velocity": 88, "duration": 99}, {"note": 65, "velocity": 92, "duration": 607}, {"note": 0, "velocity": 0, "duration": 353}, {"note": 65, "velocity": 92, "duration": 183}, {"note": 67, "velocity": 90, "duration": 193}, {"note": 68, "velocity": 85, "duration": 164}, {"note": 0, "velocity": 0, "duration": 76}, {"note": 70, "velocity": 91, "duration": 175}, {"note": 0, "velocity": 0, "duration": 65}, {"note": 70, "velocity": 94, "duration": 185}, {"note": 68, "velocity": 90, "duration": 480}, {"note": 63, "velocity": 83, "duration": 480}, {"note": 63, "velocity": 97, "duration": 185}, {"note": 72, "velocity": 93, "duration": 148}, {"note": 0, "velocity": 0, "duration": 92}, {"note": 73, "velocity": 94, "duration": 455}, {"note": 70, "velocity": 91, "duration": 579}, {"note": 63, "velocity": 92, "duration": 97}, {"note": 72, "velocity": 92, "duration": 168}, {"note": 0, "velocity": 0, "duration": 72}, {"note": 73, "velocity": 91, "duration": 199}, {"note": 72, "velocity": 94, "duration": 183}, {"note": 70, "velocity": 97, "duration": 2110}, {"note": 0, "velocity": 0, "duration": 290}, {"note": 72, "velocity": 94, "duration": 173}, {"note": 0, "velocity": 0, "duration": 67}, {"note": 72, "velocity": 99, "duration": 184}, {"note": 72, "velocity": 94, "duration": 82}, {"note": 73, "velocity": 86, "duration": 68}, {"note": 73, "velocity": 92, "duration": 191}, {"note": 72, "velocity": 93, "duration": 174}, {"note": 0, "velocity": 0, "duration": 66}, {"note": 70, "velocity": 94, "duration": 203}, {"note": 72, "velocity": 94, "duration": 297}, {"note": 0, "velocity": 0, "duration": 183}, {"note": 72, "velocity": 96, "duration": 177}, {"note": 0, "velocity": 0, "duration": 63}, {"note": 72, "velocity": 95, "duration": 177}, {"note": 0, "velocity": 0, "duration": 63}, {"note": 73, "velocity": 91, "duration": 174}, {"note": 0, "velocity": 0, "duration": 66}, {"note": 73, "velocity": 92, "duration": 212}, {"note": 72, "velocity": 94, "duration": 231}, {"note": 70, "velocity": 91, "duration": 214}, {"note": 72, "velocity": 96, "duration": 394}, {"note": 0, "velocity": 0, "duration": 86}, {"note": 72, "velocity": 101, "duration": 174}, {"note": 0, "velocity": 0, "duration": 66}, {"note": 72, "velocity": 99, "duration": 161}, {"note": 0, "velocity": 0, "duration": 79}, {"note": 73, "velocity": 92, "duration": 171}, {"note": 0, "velocity": 0, "duration": 69}, {"note": 75, "velocity": 101, "duration": 151}, {"note": 0, "velocity": 0, "duration": 89}, {"note": 68, "velocity": 91, "duration": 194}, {"note": 67, "velocity": 92, "duration": 180}, {"note": 68, "velocity": 91, "duration": 214}, {"note": 70, "velocity": 93, "duration": 199}, {"note": 68, "velocity": 91, "duration": 170}, {"note": 0, "velocity": 0, "duration": 70}, {"note": 70, "velocity": 92, "duration": 167}, {"note": 0, "velocity": 0, "duration": 73}, {"note": 72, "velocity": 96, "duration": 172}, {"note": 0, "velocity": 0, "duration": 68}, {"note": 73, "velocity": 93, "duration": 177}, {"note": 0, "velocity": 0, "duration": 63}, {"note": 72, "velocity": 101, "duration": 177}, {"note": 0, "velocity": 0, "duration": 63}, {"note": 70, "velocity": 96, "duration": 174}, {"note": 0, "velocity": 0, "duration": 66}, {"note": 68, "velocity": 95, "duration": 200}, {"note": 0, "velocity": 0, "duration": 280}, {"note": 65, "velocity": 106, "duration": 167}, {"note": 0, "velocity": 0, "duration": 73}, {"note": 65, "velocity": 97, "duration": 185}, {"note": 75, "velocity": 104, "duration": 168}, {"note": 0, "velocity": 0, "duration": 72}, {"note": 75, "velocity": 106, "duration": 174}, {"note": 0, "velocity": 0, "duration": 66}, {"note": 73, "velocity": 92, "duration": 193}, {"note": 72, "velocity": 91, "duration": 186}, {"note": 73, "velocity": 94, "duration": 293}, {"note": 0, "velocity": 0, "duration": 187}, {"note": 63, "velocity": 93, "duration": 173}, {"note": 0, "velocity": 0, "duration": 67}, {"note": 63, "velocity": 97, "duration": 183}, {"note": 75, "velocity": 101, "duration": 174}, {"note": 0, "velocity": 0, "duration": 66}, {"note": 73, "velocity": 95, "duration": 191}, {"note": 72, "velocity": 95, "duration": 170}, {"note": 0, "velocity": 0, "duration": 70}, {"note": 70, "velocity": 94, "duration": 175}, {"note": 0, "velocity": 0, "duration": 65}, {"note": 72, "velocity": 91, "duration": 247}, {"note": 0, "velocity": 0, "duration": 233}, {"note": 65, "velocity": 94, "duration": 166}, {"note": 0, "velocity": 0, "duration": 74}, {"note": 65, "velocity": 97, "duration": 183}, {"note": 70, "velocity": 92, "duration": 194}, {"note": 70, "velocity": 92, "duration": 180}, {"note": 72, "velocity": 92, "duration": 163}, {"note": 0, "velocity": 0, "duration": 77}, {"note": 72, "velocity": 97, "duration": 232}, {"note": 73, "velocity": 93, "duration": 303}, {"note": 0, "velocity": 0, "duration": 177}, {"note": 65, "velocity": 96, "duration": 196}, {"note": 70, "velocity": 91, "duration": 177}, {"note": 0, "velocity": 0, "duration": 63}, {"note": 72, "velocity": 94, "duration": 180}, {"note": 73, "velocity": 92, "duration": 196}, {"note": 72, "velocity": 92, "duration": 184}, {"note": 70, "velocity": 94, "duration": 217}, {"note": 68, "velocity": 94, "duration": 480}, {"note": 72, "velocity": 94, "duration": 173}, {"note": 0, "velocity": 0, "duration": 67}, {"note": 72, "velocity": 99, "duration": 184}, {"note": 72, "velocity": 94, "duration": 82}, {"note": 73, "velocity": 86, "duration": 68}, {"note": 73, "velocity": 92, "duration": 191}, {"note": 72, "velocity": 93, "duration": 174}, {"note": 0, "velocity": 0, "duration": 66}, {"note": 70, "velocity": 94, "duration": 203}, {"note": 72, "velocity": 94, "duration": 297}, {"note": 0, "velocity": 0, "duration": 183}, {"note": 72, "velocity": 96, "duration": 177}, {"note": 0, "velocity": 0, "duration": 63}, {"note": 72, "velocity": 95, "duration": 177}, {"note": 0, "velocity": 0, "duration": 63}, {"note": 73, "velocity": 91, "duration": 174}, {"note": 0, "velocity": 0, "duration": 66}, {"note": 73, "velocity": 92, "duration": 212}, {"note": 72, "velocity": 94, "duration": 231}, {"note": 70, "velocity": 91, "duration": 214}, {"note": 72, "velocity": 96, "duration": 394}, {"note": 0, "velocity": 0, "duration": 86}, {"note": 72, "velocity": 101, "duration": 174}, {"note": 0, "velocity": 0, "duration": 66}, {"note": 72, "velocity": 99, "duration": 161}, {"note": 0, "velocity": 0, "duration": 79}, {"note": 73, "velocity": 92, "duration": 171}, {"note": 0, "velocity": 0, "duration": 69}, {"note": 75, "velocity": 101, "duration": 151}, {"note": 0, "velocity": 0, "duration": 89}, {"note": 68, "velocity": 91, "duration": 194}, {"note": 67, "velocity": 92, "duration": 180}, {"note": 68, "velocity": 91, "duration": 214}, {"note": 70, "velocity": 93, "duration": 199}, {"note": 68, "velocity": 91, "duration": 170}, {"note": 0, "velocity": 0, "duration": 70}, {"note": 70, "velocity": 92, "duration": 167}, {"note": 0, "velocity": 0, "duration": 73}, {"note": 72, "velocity": 96, "duration": 172}, {"note": 0, "velocity": 0, "duration": 68}, {"note": 73, "velocity": 93, "duration": 177}, {"note": 0, "velocity": 0, "duration": 63}, {"note": 72, "velocity": 101, "duration": 177}, {"note": 0, "velocity": 0, "duration": 63}, {"note": 70, "velocity": 96, "duration": 174}, {"note": 0, "velocity": 0, "duration": 66}, {"note": 68, "velocity": 95, "duration": 200}, {"note": 0, "velocity": 0, "duration": 280}, {"note": 65, "velocity": 106, "duration": 167}, {"note": 0, "velocity": 0, "duration": 73}, {"note": 65, "velocity": 97, "duration": 185}, {"note": 75, "velocity": 104, "duration": 168}, {"note": 0, "velocity": 0, "duration": 72}, {"note": 75, "velocity": 106, "duration": 174}, {"note": 0, "velocity": 0, "duration": 66}, {"note": 73, "velocity": 92, "duration": 193}, {"note": 72, "velocity": 91, "duration": 186}, {"note": 73, "velocity": 94, "duration": 293}, {"note": 0, "velocity": 0, "duration": 187}, {"note": 63, "velocity": 93, "duration": 173}, {"note": 0, "velocity": 0, "duration": 67}, {"note": 63, "velocity": 97, "duration": 183}, {"note": 75, "velocity": 101, "duration": 174}, {"note": 0, "velocity": 0, "duration": 66}, {"note": 73, "velocity": 95, "duration": 191}, {"note": 72, "velocity": 95, "duration": 170}, {"note": 0, "velocity": 0, "duration": 70}, {"note": 70, "velocity": 94, "duration": 175}, {"note": 0, "velocity": 0, "duration": 65}, {"note": 72, "velocity": 91, "duration": 247}, {"note": 0, "velocity": 0, "duration": 233}, {"note": 65, "velocity": 94, "duration": 166}, {"note": 0, "velocity": 0, "duration": 74}, {"note": 65, "velocity": 97, "duration": 183}, {"note": 70, "velocity": 92, "duration": 194}, {"note": 70, "velocity": 92, "duration": 180}, {"note": 72, "velocity": 92, "duration": 163}, {"note": 0, "velocity": 0, "duration": 77}, {"note": 72, "velocity": 97, "duration": 232}, {"note": 73, "velocity": 93, "duration": 303}, {"note": 0, "velocity": 0, "duration": 177}, {"note": 65, "velocity": 96, "duration": 196}, {"note": 70, "velocity": 91, "duration": 177}, {"note": 0, "velocity": 0, "duration": 63}, {"note": 72, "velocity": 94, "duration": 180}, {"note": 73, "velocity": 92, "duration": 196}, {"note": 72, "velocity": 92, "duration": 184}, {"note": 70, "velocity": 94, "duration": 217}, {"note": 68, "velocity": 94, "duration": 1569}, {"note": 0, "velocity": 0, "duration": 3231}, {"note": 73, "velocity": 94, "duration": 173}, {"note": 0, "velocity": 0, "duration": 67}, {"note": 73, "velocity": 99, "duration": 184}, {"note": 73, "velocity": 94, "duration": 82}, {"note": 74, "velocity": 86, "duration": 68}, {"note": 74, "velocity": 92, "duration": 191}, {"note": 73, "velocity": 93, "duration": 174}, {"note": 0, "velocity": 0, "duration": 66}, {"note": 71, "velocity": 94, "duration": 203}, {"note": 73, "velocity": 94, "duration": 297}, {"note": 0, "velocity": 0, "duration": 183}, {"note": 73, "velocity": 96, "duration": 177}, {"note": 0, "velocity": 0, "duration": 63}, {"note": 73, "velocity": 95, "duration": 177}, {"note": 0, "velocity": 0, "duration": 63}, {"note": 74, "velocity": 91, "duration": 174}, {"note": 0, "velocity": 0, "duration": 66}, {"note": 74, "velocity": 92, "duration": 212}, {"note": 73, "velocity": 94, "duration": 231}, {"note": 71, "velocity": 91, "duration": 214}, {"note": 73, "velocity": 96, "duration": 394}, {"note": 0, "velocity": 0, "duration": 86}, {"note": 73, "velocity": 101, "duration": 174}, {"note": 0, "velocity": 0, "duration": 66}, {"note": 73, "velocity": 99, "duration": 161}, {"note": 0, "velocity": 0, "duration": 79}, {"note": 74, "velocity": 92, "duration": 171}, {"note": 0, "velocity": 0, "duration": 69}, {"note": 76, "velocity": 101, "duration": 151}, {"note": 0, "velocity": 0, "duration": 89}, {"note": 69, "velocity": 91, "duration": 194}, {"note": 68, "velocity": 92, "duration": 180}, {"note": 69, "velocity": 91, "duration": 214}, {"note": 71, "velocity": 93, "duration": 199}, {"note": 69, "velocity": 91, "duration": 170}, {"note": 0, "velocity": 0, "duration": 70}, {"note": 71, "velocity": 92, "duration": 167}, {"note": 0, "velocity": 0, "duration": 73}, {"note": 73, "velocity": 96, "duration": 172}, {"note": 0, "velocity": 0, "duration": 68}, {"note": 74, "velocity": 93, "duration": 177}, {"note": 0, "velocity": 0, "duration": 63}, {"note": 73, "velocity": 101, "duration": 177}, {"note": 0, "velocity": 0, "duration": 63}, {"note": 71, "velocity": 96, "duration": 174}, {"note": 0, "velocity": 0, "duration": 66}, {"note": 69, "velocity": 95, "duration": 200}, {"note": 0, "velocity": 0, "duration": 280}, {"note": 66, "velocity": 106, "duration": 167}, {"note": 0, "velocity": 0, "duration": 73}, {"note": 66, "velocity": 97, "duration": 185}, {"note": 76, "velocity": 104, "duration": 168}, {"note": 0, "velocity": 0, "duration": 72}, {"note": 76, "velocity": 106, "duration": 174}, {"note": 0, "velocity": 0, "duration": 66}, {"note": 74, "velocity": 92, "duration": 193}, {"note": 73, "velocity": 91, "duration": 186}, {"note": 74, "velocity": 94, "duration": 293}, {"note": 0, "velocity": 0, "duration": 187}, {"note": 64, "velocity": 93, "duration": 173}, {"note": 0, "velocity": 0, "duration": 67}, {"note": 64, "velocity": 97, "duration": 183}, {"note": 76, "velocity": 101, "duration": 174}, {"note": 0, "velocity": 0, "duration": 66}, {"note": 74, "velocity": 95, "duration": 191}, {"note": 73, "velocity": 95, "duration": 170}, {"note": 0, "velocity": 0, "duration": 70}, {"note": 71, "velocity": 94, "duration": 175}, {"note": 0, "velocity": 0, "duration": 65}, {"note": 73, "velocity": 91, "duration": 247}, {"note": 0, "velocity": 0, "duration": 233}, {"note": 66, "velocity": 94, "duration": 166}, {"note": 0, "velocity": 0, "duration": 74}, {"note": 66, "velocity": 97, "duration": 183}, {"note": 71, "velocity": 92, "duration": 194}, {"note": 71, "velocity": 92, "duration": 180}, {"note": 73, "velocity": 92, "duration": 163}, {"note": 0, "velocity": 0, "duration": 77}, {"note": 73, "velocity": 97, "duration": 232}, {"note": 74, "velocity": 93, "duration": 303}, {"note": 0, "velocity": 0, "duration": 177}, {"note": 66, "velocity": 96, "duration": 196}, {"note": 71, "velocity": 91, "duration": 177}, {"note": 0, "velocity": 0, "duration": 63}, {"note": 73, "velocity": 94, "duration": 180}, {"note": 74, "velocity": 92, "duration": 196}, {"note": 73, "velocity": 92, "duration": 184}, {"note": 71, "velocity": 94, "duration": 217}, {"note": 69, "velocity": 94, "duration": 480}, {"note": 73, "velocity": 94, "duration": 173}, {"note": 0, "velocity": 0, "duration": 67}, {"note": 73, "velocity": 99, "duration": 184}, {"note": 73, "velocity": 94, "duration": 82}, {"note": 74, "velocity": 86, "duration": 68}, {"note": 74, "velocity": 92, "duration": 191}, {"note": 73, "velocity": 93, "duration": 174}, {"note": 0, "velocity": 0, "duration": 66}, {"note": 71, "velocity": 94, "duration": 203}, {"note": 73, "velocity": 94, "duration": 297}, {"note": 0, "velocity": 0, "duration": 183}, {"note": 73, "velocity": 96, "duration": 177}, {"note": 0, "velocity": 0, "duration": 63}, {"note": 73, "velocity": 95, "duration": 177}, {"note": 0, "velocity": 0, "duration": 63}, {"note": 74, "velocity": 91, "duration": 174}, {"note": 0, "velocity": 0, "duration": 66}, {"note": 74, "velocity": 92, "duration": 212}, {"note": 73, "velocity": 94, "duration": 231}, {"note": 71, "velocity": 91, "duration": 214}, {"note": 73, "velocity": 96, "duration": 394}, {"note": 0, "velocity": 0, "duration": 86}, {"note": 73, "velocity": 101, "duration": 174}, {"note": 0, "velocity": 0, "duration": 66}, {"note": 73, "velocity": 99, "duration": 161}, {"note": 0, "velocity": 0, "duration": 79}, {"note": 74, "velocity": 92, "duration": 171}, {"note": 0, "velocity": 0, "duration": 69}, {"note": 76, "velocity": 101, "duration": 151}, {"note": 0, "velocity": 0, "duration": 89}, {"note": 69, "velocity": 91, "duration": 194}, {"note": 68, "velocity": 92, "duration": 180}, {"note": 69, "velocity": 91, "duration": 214}, {"note": 71, "velocity": 93, "duration": 199}, {"note": 69, "velocity": 91, "duration": 170}, {"note": 0, "velocity": 0, "duration": 70}, {"note": 71, "velocity": 92, "duration": 167}, {"note": 0, "velocity": 0, "duration": 73}, {"note": 73, "velocity": 96, "duration": 172}, {"note": 0, "velocity": 0, "duration": 68}, {"note": 74, "velocity": 93, "duration": 177}, {"note": 0, "velocity": 0, "duration": 63}, {"note": 73, "velocity": 101, "duration": 177}, {"note": 0, "velocity": 0, "duration": 63}, {"note": 71, "velocity": 96, "duration": 174}, {"note": 0, "velocity": 0, "duration": 66}, {"note": 69, "velocity": 95, "duration": 200}, {"note": 0, "velocity": 0, "duration": 280}, {"note": 66, "velocity": 106, "duration": 167}, {"note": 0, "velocity": 0, "duration": 73}, {"note": 66, "velocity": 97, "duration": 185}, {"note": 76, "velocity": 104, "duration": 168}, {"note": 0, "velocity": 0, "duration": 72}, {"note": 76, "velocity": 106, "duration": 174}, {"note": 0, "velocity": 0, "duration": 66}, {"note": 74, "velocity": 92, "duration": 193}, {"note": 73, "velocity": 91, "duration": 186}, {"note": 74, "velocity": 94, "duration": 293}, {"note": 0, "velocity": 0, "duration": 187}, {"note": 64, "velocity": 93, "duration": 173}, {"note": 0, "velocity": 0, "duration": 67}, {"note": 64, "velocity": 97, "duration": 183}, {"note": 76, "velocity": 101, "duration": 174}, {"note": 0, "velocity": 0, "duration": 66}, {"note": 74, "velocity": 95, "duration": 191}, {"note": 73, "velocity": 95, "duration": 170}, {"note": 0, "velocity": 0, "duration": 70}, {"note": 71, "velocity": 94, "duration": 175}, {"note": 0, "velocity": 0, "duration": 65}, {"note": 73, "velocity": 91, "duration": 247}, {"note": 0, "velocity": 0, "duration": 233}, {"note": 66, "velocity": 94, "duration": 166}, {"note": 0, "velocity": 0, "duration": 74}, {"note": 66, "velocity": 97, "duration": 183}, {"note": 71, "velocity": 92, "duration": 194}, {"note": 71, "velocity": 92, "duration": 180}, {"note": 73, "velocity": 92, "duration": 163}, {"note": 0, "velocity": 0, "duration": 77}, {"note": 73, "velocity": 97, "duration": 232}, {"note": 74, "velocity": 93, "duration": 303}, {"note": 0, "velocity": 0, "duration": 177}, {"note": 66, "velocity": 96, "duration": 196}, {"note": 74, "velocity": 91, "duration": 177}, {"note": 0, "velocity": 0, "duration": 63}, {"note": 73, "velocity": 94, "duration": 180}, {"note": 71, "velocity": 92, "duration": 196}, {"note": 69, "velocity": 92, "duration": 600}, {"note": 0, "velocity": 0, "duration": 360}, {"note": 68, "velocity": 82, "duration": 265}, {"note": 69, "velocity": 91, "duration": 1448}]]