[[{"note": 67, "velocity": 90, "duration": 86}, {"note": 67, "velocity": 87, "duration": 65}, {"note": 67, "velocity": 93, "duration": 102}, {"note": 74, "velocity": 98, "duration": 167}, {"note": 0, "velocity": 0, "duration": 73}, {"note": 74, "velocity": 102, "duration": 85}, {"note": 72, "velocity": 96, "duration": 85}, {"note": 72, "velocity": 94, "duration": 373}, {"note": 0, "velocity": 0, "duration": 227}, {"note": 70, "velocity": 98, "duration": 118}, {"note": 72, "velocity": 102, "duration": 69}, {"note": 74, "velocity": 96, "duration": 111}, {"note": 67, "velocity": 101, "duration": 165}, {"note": 0, "velocity": 0, "duration": 75}, {"note": 67, "velocity": 97, "duration": 87}, {"note": 65, "velocity": 99, "duration": 91}, {"note": 67, "velocity": 96, "duration": 159}, {"note": 0, "velocity": 0, "duration": 81}, {"note": 67, "velocity": 99, "duration": 551}, {"note": 0, "velocity": 0, "duration": 769}, {"note": 67, "velocity": 95, "duration": 65}, {"note": 67, "velocity": 91, "duration": 68}, {"note": 67, "velocity": 94, "duration": 56}, {"note": 0, "velocity": 0, "duration": 64}, {"note": 67, "velocity": 96, "duration": 205}, {"note": 70, "velocity": 101, "duration": 91}, {"note": 69, "velocity": 95, "duration": 82}, {"note": 69, "velocity": 95, "duration": 404}, {"note": 0, "velocity": 0, "duration": 76}, {"note": 70, "velocity": 94, "duration": 71}, {"note": 70, "velocity": 93, "duration": 85}, {"note": 67, "velocity": 96, "duration": 72}, {"note": 70, "velocity": 104, "duration": 185}, {"note": 72, "velocity": 97, "duration": 77}, {"note": 70, "velocity": 104, "duration": 184}, {"note": 72, "velocity": 98, "duration": 162}, {"note": 0, "velocity": 0, "duration": 78}, {"note": 74, "velocity": 106, "duration": 720}, {"note": 0, "velocity": 0, "duration": 600}, {"note": 67, "velocity": 94, "duration": 65}, {"note": 67, "velocity": 95, "duration": 67}, {"note": 67, "velocity": 95, "duration": 80}, {"note": 74, "velocity": 100, "duration": 158}, {"note": 0, "velocity": 0, "duration": 82}, {"note": 74, "velocity": 101, "duration": 81}, {"note": 72, "velocity": 96, "duration": 91}, {"note": 72, "velocity": 95, "duration": 392}, {"note": 0, "velocity": 0, "duration": 88}, {"note": 70, "velocity": 101, "duration": 64}, {"note": 70, "velocity": 93, "duration": 77}, {"note": 72, "velocity": 99, "duration": 77}, {"note": 74, "velocity": 111, "duration": 192}, {"note": 67, "velocity": 95, "duration": 67}, {"note": 65, "velocity": 96, "duration": 193}, {"note": 67, "velocity": 93, "duration": 167}, {"note": 0, "velocity": 0, "duration": 73}, {"note": 67, "velocity": 96, "duration": 480}, {"note": 0, "velocity": 0, "duration": 360}, {"note": 67, "velocity": 96, "duration": 61}, {"note": 69, "velocity": 97, "duration": 85}, {"note": 70, "velocity": 99, "duration": 376}, {"note": 0, "velocity": 0, "duration": 104}, {"note": 67, "velocity": 96, "duration": 59}, {"note": 0, "velocity": 0, "duration": 61}, {"note": 70, "velocity": 96, "duration": 94}, {"note": 74, "velocity": 102, "duration": 192}, {"note": 72, "velocity": 97, "duration": 351}, {"note": 65, "velocity": 91, "duration": 68}, {"note": 65, "velocity": 101, "duration": 82}, {"note": 67, "velocity": 95, "duration": 77}, {"note": 69, "velocity": 98, "duration": 233}, {"note": 67, "velocity": 95, "duration": 925}, {"note": 0, "velocity": 0, "duration": 755}, {"note": 74, "velocity": 102, "duration": 124}, {"note": 72, "velocity": 95, "duration": 102}, {"note": 67, "velocity": 98, "duration": 657}, {"note": 0, "velocity": 0, "duration": 63}, {"note": 74, "velocity": 106, "duration": 94}, {"note": 72, "velocity": 99, "duration": 575}, {"note": 0, "velocity": 0, "duration": 505}, {"note": 69, "velocity": 97, "duration": 192}, {"note": 69, "velocity": 95, "duration": 76}, {"note": 69, "velocity": 98, "duration": 184}, {"note": 65, "velocity": 98, "duration": 183}, {"note": 70, "velocity": 96, "duration": 528}, {"note": 0, "velocity": 0, "duration": 312}, {"note": 67, "velocity": 96, "duration": 65}, {"note": 67, "velocity": 91, "duration": 70}, {"note": 70, "velocity": 96, "duration": 542}, {"note": 0, "velocity": 0, "duration": 298}, {"note": 67, "velocity": 94, "duration": 92}, {"note": 69, "velocity": 101, "duration": 204}, {"note": 67, "velocity": 96, "duration": 102}, {"note": 65, "velocity": 98, "duration": 251}, {"note": 67, "velocity": 96, "duration": 216}, {"note": 62, "velocity": 99, "duration": 1022}, {"note": 0, "velocity": 0, "duration": 778}, {"note": 74, "velocity": 99, "duration": 100}, {"note": 72, "velocity": 94, "duration": 77}, {"note": 74, "velocity": 111, "duration": 519}, {"note": 0, "velocity": 0, "duration": 81}, {"note": 74, "velocity": 109, "duration": 80}, {"note": 77, "velocity": 99, "duration": 94}, {"note": 72, "velocity": 101, "duration": 630}, {"note": 0, "velocity": 0, "duration": 210}, {"note": 65, "velocity": 98, "duration": 65}, {"note": 65, "velocity": 101, "duration": 78}, {"note": 77, "velocity": 96, "duration": 80}, {"note": 79, "velocity": 96, "duration": 284}, {"note": 0, "velocity": 0, "duration": 76}, {"note": 72, "velocity": 104, "duration": 105}, {"note": 77, "velocity": 95, "duration": 230}, {"note": 74, "velocity": 102, "duration": 482}, {"note": 0, "velocity": 0, "duration": 238}, {"note": 67, "velocity": 96, "duration": 72}, {"note": 69, "velocity": 96, "duration": 95}, {"note": 70, "velocity": 98, "duration": 508}, {"note": 0, "velocity": 0, "duration": 92}, {"note": 74, "velocity": 102, "duration": 181}, {"note": 72, "velocity": 96, "duration": 71}, {"note": 69, "velocity": 97, "duration": 463}, {"note": 65, "velocity": 99, "duration": 80}, {"note": 65, "velocity": 101, "duration": 173}, {"note": 0, "velocity": 0, "duration": 67}, {"note": 67, "velocity": 95, "duration": 79}, {"note": 67, "velocity": 96, "duration": 1191}, {"note": 0, "velocity": 0, "duration": 609}, {"note": 74, "velocity": 112, "duration": 79}, {"note": 77, "velocity": 100, "duration": 91}, {"note": 79, "velocity": 104, "duration": 170}, {"note": 0, "velocity": 0, "duration": 70}, {"note": 79, "velocity": 101, "duration": 671}, {"note": 0, "velocity": 0, "duration": 409}, {"note": 79, "velocity": 102, "duration": 191}, {"note": 77, "velocity": 100, "duration": 105}, {"note": 77, "velocity": 106, "duration": 70}, {"note": 74, "velocity": 101, "duration": 97}, {"note": 77, "velocity": 100, "duration": 187}, {"note": 77, "velocity": 98, "duration": 73}, {"note": 79, "velocity": 102, "duration": 158}, {"note": 0, "velocity": 0, "duration": 82}, {"note": 72, "velocity": 101, "duration": 80}, {"note": 77, "velocity": 99, "duration": 68}, {"note": 74, "velocity": 106, "duration": 494}, {"note": 0, "velocity": 0, "duration": 346}, {"note": 72, "velocity": 97, "duration": 120}, {"note": 70, "velocity": 109, "duration": 61}, {"note": 72, "velocity": 101, "duration": 73}, {"note": 74, "velocity": 96, "duration": 50}, {"note": 0, "velocity": 0, "duration": 70}, {"note": 67, "velocity": 101, "duration": 426}, {"note": 0, "velocity": 0, "duration": 294}, {"note": 72, "velocity": 101, "duration": 199}, {"note": 70, "velocity": 99, "duration": 85}, {"note": 72, "velocity": 102, "duration": 155}, {"note": 0, "velocity": 0, "duration": 85}, {"note": 77, "velocity": 96, "duration": 149}, {"note": 0, "velocity": 0, "duration": 91}, {"note": 74, "velocity": 106, "duration": 1604}, {"note": 0, "velocity": 0, "duration": 196}, {"note": 74, "velocity": 112, "duration": 79}, {"note": 77, "velocity": 100, "duration": 91}, {"note": 79, "velocity": 104, "duration": 170}, {"note": 0, "velocity": 0, "duration": 70}, {"note": 79, "velocity": 101, "duration": 671}, {"note": 0, "velocity": 0, "duration": 409}, {"note": 79, "velocity": 102, "duration": 191}, {"note": 77, "velocity": 100, "duration": 105}, {"note": 77, "velocity": 106, "duration": 70}, {"note": 74, "velocity": 101, "duration": 97}, {"note": 81, "velocity": 100, "duration": 187}, {"note": 81, "velocity": 98, "duration": 73}, {"note": 81, "velocity": 102, "duration": 158}, {"note": 0, "velocity": 0, "duration": 82}, {"note": 77, "velocity": 101, "duration": 80}, {"note": 77, "velocity": 99, "duration": 68}, {"note": 74, "velocity": 106, "duration": 494}, {"note": 0, "velocity": 0, "duration": 346}, {"note": 72, "velocity": 97, "duration": 120}, {"note": 70, "velocity": 109, "duration": 61}, {"note": 72, "velocity": 101, "duration": 73}, {"note": 74, "velocity": 96, "duration": 50}, {"note": 0, "velocity": 0, "duration": 70}, {"note": 67, "velocity": 101, "duration": 426}, {"note": 0, "velocity": 0, "duration": 294}, {"note": 72, "velocity": 97, "duration": 192}, {"note": 74, "velocity": 102, "duration": 64}, {"note": 65, "velocity": 97, "duration": 217}, {"note": 70, "velocity": 91, "duration": 204}, {"note": 67, "velocity": 96, "duration": 1149}, {"note": 0, "velocity": 0, "duration": 1131}, {"note": 67, "velocity": 90, "duration": 86}, {"note": 67, "velocity": 87, "duration": 65}, {"note": 67, "velocity": 93, "duration": 102}, {"note": 74, "velocity": 98, "duration": 167}, {"note": 0, "velocity": 0, "duration": 73}, {"note": 74, "velocity": 102, "duration": 85}, {"note": 72, "velocity": 96, "duration": 85}, {"note": 72, "velocity": 94, "duration": 373}, {"note": 0, "velocity": 0, "duration": 227}, {"note": 70, "velocity": 98, "duration": 118}, {"note": 72, "velocity": 102, "duration": 69}, {"note": 74, "velocity": 96, "duration": 111}, {"note": 67, "velocity": 101, "duration": 165}, {"note": 0, "velocity": 0, "duration": 75}, {"note": 67, "velocity": 97, "duration": 87}, {"note": 65, "velocity": 99, "duration": 91}, {"note": 67, "velocity": 96, "duration": 159}, {"note": 0, "velocity": 0, "duration": 81}, {"note": 67, "velocity": 99, "duration": 551}, {"note": 0, "velocity": 0, "duration": 769}, {"note": 67, "velocity": 95, "duration": 65}, {"note": 67, "velocity": 91, "duration": 68}, {"note": 67, "velocity": 94, "duration": 56}, {"note": 0, "velocity": 0, "duration": 64}, {"note": 67, "velocity": 96, "duration": 205}, {"note": 70, "velocity": 101, "duration": 91}, {"note": 69, "velocity": 95, "duration": 82}, {"note": 69, "velocity": 95, "duration": 404}, {"note": 0, "velocity": 0, "duration": 76}, {"note": 70, "velocity": 94, "duration": 71}, {"note": 70, "velocity": 93, "duration": 85}, {"note": 67, "velocity": 96, "duration": 72}, {"note": 70, "velocity": 104, "duration": 185}, {"note": 72, "velocity": 97, "duration": 77}, {"note": 70, "velocity": 104, "duration": 184}, {"note": 72, "velocity": 98, "duration": 162}, {"note": 0, "velocity": 0, "duration": 78}, {"note": 74, "velocity": 106, "duration": 720}, {"note": 0, "velocity": 0, "duration": 600}, {"note": 67, "velocity": 94, "duration": 65}, {"note": 67, "velocity": 95, "duration": 67}, {"note": 67, "velocity": 95, "duration": 80}, {"note": 74, "velocity": 100, "duration": 158}, {"note": 0, "velocity": 0, "duration": 82}, {"note": 74, "velocity": 101, "duration": 81}, {"note": 72, "velocity": 96, "duration": 91}, {"note": 72, "velocity": 95, "duration": 392}, {"note": 0, "velocity": 0, "duration": 88}, {"note": 70, "velocity": 101, "duration": 64}, {"note": 70, "velocity": 93, "duration": 77}, {"note": 72, "velocity": 99, "duration": 77}, {"note": 74, "velocity": 111, "duration": 192}, {"note": 67, "velocity": 95, "duration": 67}, {"note": 65, "velocity": 96, "duration": 193}, {"note": 67, "velocity": 93, "duration": 167}, {"note": 0, "velocity": 0, "duration": 73}, {"note": 67, "velocity": 96, "duration": 480}, {"note": 0, "velocity": 0, "duration": 360}, {"note": 67, "velocity": 96, "duration": 61}, {"note": 69, "velocity": 97, "duration": 85}, {"note": 70, "velocity": 99, "duration": 376}, {"note": 0, "velocity": 0, "duration": 104}, {"note": 67, "velocity": 96, "duration": 59}, {"note": 0, "velocity": 0, "duration": 61}, {"note": 70, "velocity": 96, "duration": 94}, {"note": 74, "velocity": 102, "duration": 192}, {"note": 72, "velocity": 97, "duration": 351}, {"note": 65, "velocity": 91, "duration": 68}, {"note": 65, "velocity": 101, "duration": 82}, {"note": 67, "velocity": 95, "duration": 77}, {"note": 69, "velocity": 98, "duration": 233}, {"note": 67, "velocity": 95, "duration": 925}, {"note": 0, "velocity": 0, "duration": 755}, {"note": 74, "velocity": 102, "duration": 124}, {"note": 72, "velocity": 95, "duration": 102}, {"note": 67, "velocity": 98, "duration": 657}, {"note": 0, "velocity": 0, "duration": 63}, {"note": 74, "velocity": 106, "duration": 94}, {"note": 72, "velocity": 99, "duration": 575}, {"note": 0, "velocity": 0, "duration": 505}, {"note": 69, "velocity": 97, "duration": 192}, {"note": 69, "velocity": 95, "duration": 76}, {"note": 69, "velocity": 98, "duration": 184}, {"note": 65, "velocity": 98, "duration": 183}, {"note": 70, "velocity": 96, "duration": 528}, {"note": 0, "velocity": 0, "duration": 312}, {"note": 67, "velocity": 96, "duration": 65}, {"note": 67, "velocity": 91, "duration": 70}, {"note": 70, "velocity": 96, "duration": 542}, {"note": 0, "velocity": 0, "duration": 298}, {"note": 67, "velocity": 94, "duration": 92}, {"note": 69, "velocity": 101, "duration": 204}, {"note": 67, "velocity": 96, "duration": 102}, {"note": 65, "velocity": 98, "duration": 251}, {"note": 67, "velocity": 96, "duration": 216}, {"note": 62, "velocity": 99, "duration": 1022}, {"note": 0, "velocity": 0, "duration": 778}, {"note": 74, "velocity": 99, "duration": 100}, {"note": 72, "velocity": 94, "duration": 77}, {"note": 74, "velocity": 111, "duration": 519}, {"note": 0, "velocity": 0, "duration": 81}, {"note": 74, "velocity": 109, "duration": 80}, {"note": 77, "velocity": 99, "duration": 94}, {"note": 72, "velocity": 101, "duration": 630}, {"note": 0, "velocity": 0, "duration": 210}, {"note": 65, "velocity": 98, "duration": 65}, {"note": 65, "velocity": 101, "duration": 78}, {"note": 77, "velocity": 96, "duration": 80}, {"note": 79, "velocity": 96, "duration": 284}, {"note": 0, "velocity": 0, "duration": 76}, {"note": 72, "velocity": 104, "duration": 105}, {"note": 77, "velocity": 95, "duration": 230}, {"note": 74, "velocity": 102, "duration": 482}, {"note": 0, "velocity": 0, "duration": 238}, {"note": 67, "velocity": 96, "duration": 72}, {"note": 69, "velocity": 96, "duration": 95}, {"note": 70, "velocity": 98, "duration": 508}, {"note": 0, "velocity": 0, "duration": 92}, {"note": 74, "velocity": 102, "duration": 181}, {"note": 72, "velocity": 96, "duration": 71}, {"note": 69, "velocity": 97, "duration": 463}, {"note": 65, "velocity": 99, "duration": 80}, {"note": 65, "velocity": 101, "duration": 173}, {"note": 0, "velocity": 0, "duration": 67}, {"note": 67, "velocity": 95, "duration": 79}, {"note": 67, "velocity": 96, "duration": 1191}, {"note": 0, "velocity": 0, "duration": 609}, {"note": 74, "velocity": 112, "duration": 79}, {"note": 77, "velocity": 100, "duration": 91}, {"note": 79, "velocity": 104, "duration": 170}, {"note": 0, "velocity": 0, "duration": 70}, {"note": 79, "velocity": 101, "duration": 671}, {"note": 0, "velocity": 0, "duration": 409}, {"note": 79, "velocity": 102, "duration": 191}, {"note": 77, "velocity": 100, "duration": 105}, {"note": 77, "velocity": 106, "duration": 70}, {"note": 74, "velocity": 101, "duration": 97}, {"note": 77, "velocity": 100, "duration": 187}, {"note": 77, "velocity": 98, "duration": 73}, {"note": 79, "velocity": 102, "duration": 158}, {"note": 0, "velocity": 0, "duration": 82}, {"note": 72, "velocity": 101, "duration": 80}, {"note": 77, "velocity": 99, "duration": 68}, {"note": 74, "velocity": 106, "duration": 494}, {"note": 0, "velocity": 0, "duration": 346}, {"note": 72, "velocity": 97, "duration": 120}, {"note": 70, "velocity": 109, "duration": 61}, {"note": 72, "velocity": 101, "duration": 73}, {"note": 74, "velocity": 96, "duration": 50}, {"note": 0, "velocity": 0, "duration": 70}, {"note": 67, "velocity": 101, "duration": 426}, {"note": 0, "velocity": 0, "duration": 294}, {"note": 72, "velocity": 101, "duration": 199}, {"note": 70, "velocity": 99, "duration": 85}, {"note": 72, "velocity": 102, "duration": 155}, {"note": 0, "velocity": 0, "duration": 85}, {"note": 77, "velocity": 96, "duration": 149}, {"note": 0, "velocity": 0, "duration": 91}, {"note": 74, "velocity": 106, "duration": 1604}, {"note": 0, "velocity": 0, "duration": 196}, {"note": 74, "velocity": 112, "duration": 79}, {"note": 77, "velocity": 100, "duration": 91}, {"note": 79, "velocity": 104, "duration": 170}, {"note": 0, "velocity": 0, "duration": 70}, {"note": 79, "velocity": 101, "duration": 671}, {"note": 0, "velocity": 0, "duration": 409}, {"note": 79, "velocity": 102, "duration": 191}, {"note": 77, "velocity": 100, "duration": 105}, {"note": 77, "velocity": 106, "duration": 70}, {"note": 74, "velocity": 101, "duration": 97}, {"note": 81, "velocity": 100, "duration": 187}, {"note": 81, "velocity": 98, "duration": 73}, {"note": 81, "velocity": 102, "duration": 158}, {"note": 0, "velocity": 0, "duration": 82}, {"note": 77, "velocity": 101, "duration": 80}, {"note": 77, "velocity": 99, "duration": 68}, {"note": 74, "velocity": 106, "duration": 494}, {"note": 0, "velocity": 0, "duration": 346}, {"note": 72, "velocity": 97, "duration": 120}, {"note": 70, "velocity": 109, "duration": 61}, {"note": 72, "velocity": 101, "duration": 73}, {"note": 74, "velocity": 96, "duration": 50}, {"note": 0, "velocity": 0, "duration": 70}, {"note": 67, "velocity": 101, "duration": 426}, {"note": 0, "velocity": 0, "duration": 294}, {"note": 72, "velocity": 97, "duration": 192}, {"note": 74, "velocity": 102, "duration": 64}, {"note": 65, "velocity": 97, "duration": 217}, {"note": 70, "velocity": 91, "duration": 204}, {"note": 67, "velocity": 96, "duration": 1149}, {"note": 0, "velocity": 0, "duration": 9291}, {"note": 74, "velocity": 112, "duration": 79}, {"note": 77, "velocity": 100, "duration": 91}, {"note": 79, "velocity": 104, "duration": 170}, {"note": 0, "velocity": 0, "duration": 70}, {"note": 79, "velocity": 101, "duration": 671}, {"note": 0, "velocity": 0, "duration": 409}, {"note": 79, "velocity": 102, "duration": 191}, {"note": 77, "velocity": 100, "duration": 105}, {"note": 77, "velocity": 106, "duration": 70}, {"note": 74, "velocity": 101, "duration": 97}, {"note": 77, "velocity": 100, "duration": 187}, {"note": 77, "velocity": 98, "duration": 73}, {"note": 79, "velocity": 102, "duration": 158}, {"note": 0, "velocity": 0, "duration": 82}, {"note": 72, "velocity": 101, "duration": 80}, {"note": 77, "velocity": 99, "duration": 68}, {"note": 74, "velocity": 106, "duration": 494}, {"note": 0, "velocity": 0, "duration": 346}, {"note": 72, "velocity": 97, "duration": 120}, {"note": 70, "velocity": 109, "duration": 61}, {"note": 72, "velocity": 101, "duration": 73}, {"note": 74, "velocity": 96, "duration": 50}, {"note": 0, "velocity": 0, "duration": 70}, {"note": 67, "velocity": 101, "duration": 426}, {"note": 0, "velocity": 0, "duration": 294}, {"note": 72, "velocity": 101, "duration": 199}, {"note": 70, "velocity": 99, "duration": 85}, {"note": 72, "velocity": 102, "duration": 155}, {"note": 0, "velocity": 0, "duration": 85}, {"note": 77, "velocity": 96, "duration": 149}, {"note": 0, "velocity": 0, "duration": 91}, {"note": 74, "velocity": 106, "duration": 1604}, {"note": 0, "velocity": 0, "duration": 196}, {"note": 74, "velocity": 112, "duration": 79}, {"note": 77, "velocity": 100, "duration": 91}, {"note": 79, "velocity": 104, "duration": 170}, {"note": 0, "velocity": 0, "duration": 70}, {"note": 79, "velocity": 101, "duration": 671}, {"note": 0, "velocity": 0, "duration": 409}, {"note": 79, "velocity": 102, "duration": 191}, {"note": 77, "velocity": 100, "duration": 105}, {"note": 77, "velocity": 106, "duration": 70}, {"note": 74, "velocity": 101, "duration": 97}, {"note": 81, "velocity": 100, "duration": 187}, {"note": 81, "velocity": 98, "duration": 73}, {"note": 81, "velocity": 102, "duration": 158}, {"note": 0, "velocity": 0, "duration": 82}, {"note": 77, "velocity": 101, "duration": 80}, {"note": 77, "velocity": 99, "duration": 68}, {"note": 74, "velocity": 106, "duration": 494}, {"note": 0, "velocity": 0, "duration": 346}, {"note": 72, "velocity": 97, "duration": 120}, {"note": 70, "velocity": 109, "duration": 61}, {"note": 72, "velocity": 101, "duration": 73}, {"note": 74, "velocity": 96, "duration": 50}, {"note": 0, "velocity": 0, "duration": 70}, {"note": 67, "velocity": 101, "duration": 426}, {"note": 0, "velocity": 0, "duration": 294}, {"note": 72, "velocity": 97, "duration": 192}, {"note": 74, "velocity": 102, "duration": 64}, {"note": 65, "velocity": 97, "duration": 217}, {"note": 70, "velocity": 91, "duration": 204}, {"note": 67, "velocity": 96, "duration": 1149}, {"note": 0, "velocity": 0, "duration": 651}, {"note": 74, "velocity": 112, "duration": 79}, {"note": 77, "velocity": 100, "duration": 91}, {"note": 79, "velocity": 104, "duration": 170}, {"note": 0, "velocity": 0, "duration": 70}, {"note": 79, "velocity": 101, "duration": 671}, {"note": 0, "velocity": 0, "duration": 409}, {"note": 79, "velocity": 102, "duration": 191}, {"note": 77, "velocity": 100, "duration": 105}, {"note": 77, "velocity": 106, "duration": 70}, {"note": 74, "velocity": 101, "duration": 97}, {"note": 81, "velocity": 100, "duration": 187}, {"note": 81, "velocity": 98, "duration": 73}, {"note": 81, "velocity": 102, "duration": 158}, {"note": 0, "velocity": 0, "duration": 82}, {"note": 77, "velocity": 101, "duration": 80}, {"note": 77, "velocity": 99, "duration": 68}, {"note": 74, "velocity": 106, "duration": 494}, {"note": 0, "velocity": 0, "duration": 346}, {"note": 72, "velocity": 97, "duration": 120}, {"note": 70, "velocity": 109, "duration": 61}, {"note": 72, "velocity": 101, "duration": 73}, {"note": 74, "velocity": 96, "duration": 50}, {"note": 0, "velocity": 0, "duration": 70}, {"note": 67, "velocity": 101, "duration": 426}, {"note": 0, "velocity": 0, "duration": 294}, {"note": 72, "velocity": 97, "duration": 192}, {"note": 74, "velocity": 102, "duration": 64}, {"note": 65, "velocity": 97, "duration": 217}, {"note": 70, "velocity": 91, "duration": 204}, {"note": 67, "velocity": 96, "duration": 1149}, {"note": 0, "velocity": 0, "duration": 651}, {"note": 72, "velocity": 97, "duration": 120}, {"note": 70, "velocity": 109, "duration": 61}, {"note": 72, "velocity": 101, "duration": 73}, {"note": 74, "velocity": 96, "duration": 50}, {"note": 0, "velocity": 0, "duration": 70}, {"note": 67, "velocity": 101, "duration": 426}, {"note": 0, "velocity": 0, "duration": 294}, {"note": 72, "velocity": 97, "duration": 192}, {"note": 74, "velocity": 102, "duration": 64}, {"note": 65, "velocity": 97, "duration": 217}, {"note": 70, "velocity": 91, "duration": 204}, {"note": 67, "velocity": 96, "duration": 1149}]]