[[{"note": 72, "velocity": 92, "duration": 209}, {"note": 70, "velocity": 91, "duration": 178}, {"note": 0, "velocity": 0, "duration": 62}, {"note": 68, "velocity": 95, "duration": 103}, {"note": 63, "velocity": 93, "duration": 232}, {"note": 0, "velocity": 0, "duration": 128}, {"note": 72, "velocity": 91, "duration": 188}, {"note": 70, "velocity": 90, "duration": 207}, {"note": 68, "velocity": 90, "duration": 78}, {"note": 70, "velocity": 88, "duration": 228}, {"note": 63, "velocity": 92, "duration": 78}, {"note": 72, "velocity": 95, "duration": 160}, {"note": 0, "velocity": 0, "duration": 80}, {"note": 70, "velocity": 90, "duration": 177}, {"note": 0, "velocity": 0, "duration": 63}, {"note": 68, "velocity": 88, "duration": 77}, {"note": 68, "velocity": 92, "duration": 145}, {"note": 0, "velocity": 0, "duration": 95}, {"note": 63, "velocity": 90, "duration": 91}, {"note": 72, "velocity": 91, "duration": 80}, {"note": 75, "velocity": 97, "duration": 63}, {"note": 70, "velocity": 80, "duration": 63}, {"note": 72, "velocity": 90, "duration": 78}, {"note": 68, "velocity": 89, "duration": 234}, {"note": 0, "velocity": 0, "duration": 246}, {"note": 68, "velocity": 95, "duration": 100}, {"note": 70, "velocity": 87, "duration": 58}, {"note": 0, "velocity": 0, "duration": 62}, {"note": 70, "velocity": 89, "duration": 83}, {"note": 68, "velocity": 87, "duration": 55}, {"note": 0, "velocity": 0, "duration": 65}, {"note": 68, "velocity": 90, "duration": 81}, {"note": 63, "velocity": 90, "duration": 93}, {"note": 0, "velocity": 0, "duration": 267}, {"note": 68, "velocity": 81, "duration": 81}, {"note": 70, "velocity": 87, "duration": 63}, {"note": 70, "velocity": 87, "duration": 78}, {"note": 68, "velocity": 84, "duration": 72}, {"note": 68, "velocity": 90, "duration": 70}, {"note": 68, "velocity": 93, "duration": 135}, {"note": 0, "velocity": 0, "duration": 225}, {"note": 68, "velocity": 90, "duration": 80}, {"note": 65, "velocity": 92, "duration": 80}, {"note": 68, "velocity": 87, "duration": 88}, {"note": 70, "velocity": 87, "duration": 65}, {"note": 68, "velocity": 87, "duration": 70}, {"note": 73, "velocity": 92, "duration": 240}, {"note": 72, "velocity": 93, "duration": 190}, {"note": 68, "velocity": 97, "duration": 211}, {"note": 65, "velocity": 92, "duration": 176}, {"note": 0, "velocity": 0, "duration": 64}, {"note": 63, "velocity": 90, "duration": 239}, {"note": 0, "velocity": 0, "duration": 121}, {"note": 72, "velocity": 92, "duration": 209}, {"note": 70, "velocity": 91, "duration": 178}, {"note": 0, "velocity": 0, "duration": 62}, {"note": 68, "velocity": 95, "duration": 103}, {"note": 63, "velocity": 93, "duration": 232}, {"note": 0, "velocity": 0, "duration": 128}, {"note": 72, "velocity": 91, "duration": 188}, {"note": 70, "velocity": 90, "duration": 207}, {"note": 68, "velocity": 90, "duration": 78}, {"note": 70, "velocity": 88, "duration": 228}, {"note": 63, "velocity": 92, "duration": 78}, {"note": 72, "velocity": 95, "duration": 160}, {"note": 0, "velocity": 0, "duration": 80}, {"note": 70, "velocity": 90, "duration": 177}, {"note": 0, "velocity": 0, "duration": 63}, {"note": 68, "velocity": 88, "duration": 77}, {"note": 68, "velocity": 92, "duration": 145}, {"note": 0, "velocity": 0, "duration": 95}, {"note": 63, "velocity": 90, "duration": 91}, {"note": 72, "velocity": 91, "duration": 80}, {"note": 75, "velocity": 97, "duration": 63}, {"note": 70, "velocity": 80, "duration": 63}, {"note": 72, "velocity": 90, "duration": 78}, {"note": 68, "velocity": 89, "duration": 234}, {"note": 77, "velocity": 97, "duration": 191}, {"note": 75, "velocity": 102, "duration": 173}, {"note": 0, "velocity": 0, "duration": 67}, {"note": 68, "velocity": 88, "duration": 183}, {"note": 65, "velocity": 97, "duration": 75}, {"note": 77, "velocity": 97, "duration": 267}, {"note": 75, "velocity": 102, "duration": 180}, {"note": 68, "velocity": 84, "duration": 193}, {"note": 68, "velocity": 90, "duration": 57}, {"note": 0, "velocity": 0, "duration": 63}, {"note": 70, "velocity": 93, "duration": 76}, {"note": 72, "velocity": 87, "duration": 64}, {"note": 73, "velocity": 90, "duration": 178}, {"note": 0, "velocity": 0, "duration": 62}, {"note": 72, "velocity": 93, "duration": 183}, {"note": 70, "velocity": 95, "duration": 160}, {"note": 0, "velocity": 0, "duration": 80}, {"note": 68, "velocity": 90, "duration": 76}, {"note": 77, "velocity": 93, "duration": 181}, {"note": 79, "velocity": 100, "duration": 240}, {"note": 75, "velocity": 100, "duration": 480}, {"note": 0, "velocity": 0, "duration": 120}, {"note": 68, "velocity": 87, "duration": 79}, {"note": 63, "velocity": 87, "duration": 159}, {"note": 0, "velocity": 0, "duration": 201}, {"note": 68, "velocity": 86, "duration": 81}, {"note": 63, "velocity": 82, "duration": 175}, {"note": 0, "velocity": 0, "duration": 185}, {"note": 75, "velocity": 102, "duration": 165}, {"note": 0, "velocity": 0, "duration": 75}, {"note": 72, "velocity": 88, "duration": 70}, {"note": 70, "velocity": 92, "duration": 237}, {"note": 68, "velocity": 87, "duration": 85}, {"note": 65, "velocity": 97, "duration": 70}, {"note": 68, "velocity": 88, "duration": 62}, {"note": 68, "velocity": 90, "duration": 93}, {"note": 65, "velocity": 92, "duration": 116}, {"note": 0, "velocity": 0, "duration": 244}, {"note": 68, "velocity": 88, "duration": 84}, {"note": 65, "velocity": 92, "duration": 167}, {"note": 0, "velocity": 0, "duration": 193}, {"note": 75, "velocity": 91, "duration": 172}, {"note": 0, "velocity": 0, "duration": 68}, {"note": 70, "velocity": 85, "duration": 70}, {"note": 70, "velocity": 90, "duration": 179}, {"note": 0, "velocity": 0, "duration": 61}, {"note": 68, "velocity": 88, "duration": 80}, {"note": 65, "velocity": 93, "duration": 67}, {"note": 68, "velocity": 89, "duration": 275}, {"note": 0, "velocity": 0, "duration": 85}, {"note": 65, "velocity": 93, "duration": 66}, {"note": 68, "velocity": 93, "duration": 170}, {"note": 0, "velocity": 0, "duration": 70}, {"note": 70, "velocity": 92, "duration": 157}, {"note": 0, "velocity": 0, "duration": 83}, {"note": 63, "velocity": 88, "duration": 230}, {"note": 72, "velocity": 90, "duration": 169}, {"note": 0, "velocity": 0, "duration": 71}, {"note": 72, "velocity": 92, "duration": 190}, {"note": 70, "velocity": 92, "duration": 73}, {"note": 68, "velocity": 91, "duration": 67}, {"note": 65, "velocity": 102, "duration": 82}, {"note": 0, "velocity": 0, "duration": 278}, {"note": 68, "velocity": 91, "duration": 96}, {"note": 65, "velocity": 92, "duration": 62}, {"note": 68, "velocity": 92, "duration": 181}, {"note": 65, "velocity": 97, "duration": 82}, {"note": 77, "velocity": 92, "duration": 172}, {"note": 0, "velocity": 0, "duration": 68}, {"note": 75, "velocity": 88, "duration": 240}, {"note": 68, "velocity": 92, "duration": 168}, {"note": 0, "velocity": 0, "duration": 72}, {"note": 70, "velocity": 91, "duration": 272}, {"note": 0, "velocity": 0, "duration": 88}, {"note": 68, "velocity": 87, "duration": 79}, {"note": 63, "velocity": 87, "duration": 159}, {"note": 0, "velocity": 0, "duration": 201}, {"note": 68, "velocity": 86, "duration": 81}, {"note": 63, "velocity": 82, "duration": 175}, {"note": 0, "velocity": 0, "duration": 185}, {"note": 75, "velocity": 102, "duration": 165}, {"note": 0, "velocity": 0, "duration": 75}, {"note": 72, "velocity": 88, "duration": 70}, {"note": 70, "velocity": 92, "duration": 237}, {"note": 68, "velocity": 87, "duration": 85}, {"note": 65, "velocity": 97, "duration": 70}, {"note": 68, "velocity": 88, "duration": 62}, {"note": 68, "velocity": 90, "duration": 93}, {"note": 65, "velocity": 92, "duration": 116}, {"note": 0, "velocity": 0, "duration": 244}, {"note": 68, "velocity": 88, "duration": 84}, {"note": 65, "velocity": 92, "duration": 167}, {"note": 0, "velocity": 0, "duration": 193}, {"note": 75, "velocity": 91, "duration": 172}, {"note": 0, "velocity": 0, "duration": 68}, {"note": 70, "velocity": 85, "duration": 70}, {"note": 70, "velocity": 90, "duration": 179}, {"note": 0, "velocity": 0, "duration": 61}, {"note": 68, "velocity": 88, "duration": 80}, {"note": 65, "velocity": 93, "duration": 67}, {"note": 77, "velocity": 89, "duration": 360}, {"note": 0, "velocity": 0, "duration": 240}, {"note": 78, "velocity": 90, "duration": 229}, {"note": 77, "velocity": 89, "duration": 73}, {"note": 77, "velocity": 92, "duration": 230}, {"note": 75, "velocity": 97, "duration": 292}, {"note": 0, "velocity": 0, "duration": 188}, {"note": 68, "velocity": 89, "duration": 62}, {"note": 70, "velocity": 95, "duration": 85}, {"note": 72, "velocity": 88, "duration": 84}, {"note": 73, "velocity": 90, "duration": 94}, {"note": 72, "velocity": 87, "duration": 84}, {"note": 70, "velocity": 93, "duration": 79}, {"note": 68, "velocity": 89, "duration": 276}, {"note": 0, "velocity": 0, "duration": 84}, {"note": 73, "velocity": 88, "duration": 91}, {"note": 72, "velocity": 88, "duration": 72}, {"note": 75, "velocity": 103, "duration": 183}, {"note": 77, "velocity": 87, "duration": 178}, {"note": 0, "velocity": 0, "duration": 62}, {"note": 70, "velocity": 90, "duration": 167}, {"note": 0, "velocity": 0, "duration": 73}, {"note": 70, "velocity": 90, "duration": 594}, {"note": 0, "velocity": 0, "duration": 126}, {"note": 68, "velocity": 92, "duration": 705}, {"note": 0, "velocity": 0, "duration": 7695}, {"note": 72, "velocity": 92, "duration": 209}, {"note": 70, "velocity": 91, "duration": 178}, {"note": 0, "velocity": 0, "duration": 62}, {"note": 68, "velocity": 95, "duration": 103}, {"note": 63, "velocity": 93, "duration": 232}, {"note": 0, "velocity": 0, "duration": 128}, {"note": 72, "velocity": 91, "duration": 188}, {"note": 70, "velocity": 90, "duration": 207}, {"note": 68, "velocity": 90, "duration": 78}, {"note": 70, "velocity": 88, "duration": 228}, {"note": 63, "velocity": 92, "duration": 78}, {"note": 72, "velocity": 95, "duration": 160}, {"note": 0, "velocity": 0, "duration": 80}, {"note": 70, "velocity": 90, "duration": 177}, {"note": 0, "velocity": 0, "duration": 63}, {"note": 68, "velocity": 88, "duration": 77}, {"note": 68, "velocity": 92, "duration": 145}, {"note": 0, "velocity": 0, "duration": 95}, {"note": 63, "velocity": 90, "duration": 91}, {"note": 72, "velocity": 91, "duration": 80}, {"note": 75, "velocity": 97, "duration": 63}, {"note": 70, "velocity": 80, "duration": 63}, {"note": 72, "velocity": 90, "duration": 78}, {"note": 68, "velocity": 89, "duration": 234}, {"note": 0, "velocity": 0, "duration": 246}, {"note": 68, "velocity": 95, "duration": 100}, {"note": 70, "velocity": 87, "duration": 58}, {"note": 0, "velocity": 0, "duration": 62}, {"note": 70, "velocity": 89, "duration": 83}, {"note": 68, "velocity": 87, "duration": 55}, {"note": 0, "velocity": 0, "duration": 65}, {"note": 68, "velocity": 90, "duration": 81}, {"note": 63, "velocity": 90, "duration": 93}, {"note": 0, "velocity": 0, "duration": 267}, {"note": 68, "velocity": 81, "duration": 81}, {"note": 70, "velocity": 87, "duration": 63}, {"note": 70, "velocity": 87, "duration": 78}, {"note": 68, "velocity": 84, "duration": 72}, {"note": 68, "velocity": 90, "duration": 70}, {"note": 68, "velocity": 93, "duration": 135}, {"note": 0, "velocity": 0, "duration": 225}, {"note": 68, "velocity": 90, "duration": 80}, {"note": 65, "velocity": 92, "duration": 80}, {"note": 68, "velocity": 87, "duration": 88}, {"note": 70, "velocity": 87, "duration": 65}, {"note": 68, "velocity": 87, "duration": 70}, {"note": 73, "velocity": 92, "duration": 240}, {"note": 72, "velocity": 93, "duration": 190}, {"note": 68, "velocity": 97, "duration": 211}, {"note": 65, "velocity": 92, "duration": 176}, {"note": 0, "velocity": 0, "duration": 64}, {"note": 63, "velocity": 90, "duration": 239}, {"note": 0, "velocity": 0, "duration": 121}, {"note": 72, "velocity": 92, "duration": 209}, {"note": 70, "velocity": 91, "duration": 178}, {"note": 0, "velocity": 0, "duration": 62}, {"note": 68, "velocity": 95, "duration": 103}, {"note": 63, "velocity": 93, "duration": 232}, {"note": 0, "velocity": 0, "duration": 128}, {"note": 72, "velocity": 91, "duration": 188}, {"note": 70, "velocity": 90, "duration": 207}, {"note": 68, "velocity": 90, "duration": 78}, {"note": 70, "velocity": 88, "duration": 228}, {"note": 63, "velocity": 92, "duration": 78}, {"note": 72, "velocity": 95, "duration": 160}, {"note": 0, "velocity": 0, "duration": 80}, {"note": 70, "velocity": 90, "duration": 177}, {"note": 0, "velocity": 0, "duration": 63}, {"note": 68, "velocity": 88, "duration": 77}, {"note": 68, "velocity": 92, "duration": 145}, {"note": 0, "velocity": 0, "duration": 95}, {"note": 63, "velocity": 90, "duration": 91}, {"note": 72, "velocity": 91, "duration": 80}, {"note": 75, "velocity": 97, "duration": 63}, {"note": 70, "velocity": 80, "duration": 63}, {"note": 72, "velocity": 90, "duration": 78}, {"note": 68, "velocity": 89, "duration": 234}, {"note": 77, "velocity": 97, "duration": 191}, {"note": 75, "velocity": 102, "duration": 173}, {"note": 0, "velocity": 0, "duration": 67}, {"note": 68, "velocity": 88, "duration": 183}, {"note": 65, "velocity": 97, "duration": 75}, {"note": 77, "velocity": 97, "duration": 267}, {"note": 75, "velocity": 102, "duration": 180}, {"note": 68, "velocity": 84, "duration": 193}, {"note": 68, "velocity": 90, "duration": 57}, {"note": 0, "velocity": 0, "duration": 63}, {"note": 70, "velocity": 93, "duration": 76}, {"note": 72, "velocity": 87, "duration": 64}, {"note": 73, "velocity": 90, "duration": 178}, {"note": 0, "velocity": 0, "duration": 62}, {"note": 72, "velocity": 93, "duration": 183}, {"note": 70, "velocity": 95, "duration": 160}, {"note": 0, "velocity": 0, "duration": 80}, {"note": 68, "velocity": 90, "duration": 76}, {"note": 77, "velocity": 93, "duration": 181}, {"note": 79, "velocity": 100, "duration": 240}, {"note": 75, "velocity": 100, "duration": 480}, {"note": 0, "velocity": 0, "duration": 120}, {"note": 68, "velocity": 87, "duration": 79}, {"note": 63, "velocity": 87, "duration": 159}, {"note": 0, "velocity": 0, "duration": 201}, {"note": 68, "velocity": 86, "duration": 81}, {"note": 63, "velocity": 82, "duration": 175}, {"note": 0, "velocity": 0, "duration": 185}, {"note": 75, "velocity": 102, "duration": 165}, {"note": 0, "velocity": 0, "duration": 75}, {"note": 72, "velocity": 88, "duration": 70}, {"note": 70, "velocity": 92, "duration": 237}, {"note": 68, "velocity": 87, "duration": 85}, {"note": 65, "velocity": 97, "duration": 70}, {"note": 68, "velocity": 88, "duration": 62}, {"note": 68, "velocity": 90, "duration": 93}, {"note": 65, "velocity": 92, "duration": 116}, {"note": 0, "velocity": 0, "duration": 244}, {"note": 68, "velocity": 88, "duration": 84}, {"note": 65, "velocity": 92, "duration": 167}, {"note": 0, "velocity": 0, "duration": 193}, {"note": 75, "velocity": 91, "duration": 172}, {"note": 0, "velocity": 0, "duration": 68}, {"note": 70, "velocity": 85, "duration": 70}, {"note": 70, "velocity": 90, "duration": 179}, {"note": 0, "velocity": 0, "duration": 61}, {"note": 68, "velocity": 88, "duration": 80}, {"note": 65, "velocity": 93, "duration": 67}, {"note": 68, "velocity": 89, "duration": 275}, {"note": 0, "velocity": 0, "duration": 85}, {"note": 65, "velocity": 93, "duration": 66}, {"note": 68, "velocity": 93, "duration": 170}, {"note": 0, "velocity": 0, "duration": 70}, {"note": 70, "velocity": 92, "duration": 157}, {"note": 0, "velocity": 0, "duration": 83}, {"note": 63, "velocity": 88, "duration": 230}, {"note": 72, "velocity": 90, "duration": 169}, {"note": 0, "velocity": 0, "duration": 71}, {"note": 72, "velocity": 92, "duration": 190}, {"note": 70, "velocity": 92, "duration": 73}, {"note": 68, "velocity": 91, "duration": 67}, {"note": 65, "velocity": 102, "duration": 82}, {"note": 0, "velocity": 0, "duration": 278}, {"note": 68, "velocity": 91, "duration": 96}, {"note": 65, "velocity": 92, "duration": 62}, {"note": 68, "velocity": 92, "duration": 181}, {"note": 65, "velocity": 97, "duration": 82}, {"note": 77, "velocity": 92, "duration": 172}, {"note": 0, "velocity": 0, "duration": 68}, {"note": 75, "velocity": 88, "duration": 240}, {"note": 68, "velocity": 92, "duration": 168}, {"note": 0, "velocity": 0, "duration": 72}, {"note": 70, "velocity": 91, "duration": 272}, {"note": 0, "velocity": 0, "duration": 88}, {"note": 68, "velocity": 87, "duration": 79}, {"note": 63, "velocity": 87, "duration": 159}, {"note": 0, "velocity": 0, "duration": 201}, {"note": 68, "velocity": 86, "duration": 81}, {"note": 63, "velocity": 82, "duration": 175}, {"note": 0, "velocity": 0, "duration": 185}, {"note": 75, "velocity": 102, "duration": 165}, {"note": 0, "velocity": 0, "duration": 75}, {"note": 72, "velocity": 88, "duration": 70}, {"note": 70, "velocity": 92, "duration": 237}, {"note": 68, "velocity": 87, "duration": 85}, {"note": 65, "velocity": 97, "duration": 70}, {"note": 68, "velocity": 88, "duration": 62}, {"note": 68, "velocity": 90, "duration": 93}, {"note": 65, "velocity": 92, "duration": 116}, {"note": 0, "velocity": 0, "duration": 244}, {"note": 68, "velocity": 88, "duration": 84}, {"note": 65, "velocity": 92, "duration": 167}, {"note": 0, "velocity": 0, "duration": 193}, {"note": 75, "velocity": 91, "duration": 172}, {"note": 0, "velocity": 0, "duration": 68}, {"note": 70, "velocity": 85, "duration": 70}, {"note": 70, "velocity": 90, "duration": 179}, {"note": 0, "velocity": 0, "duration": 61}, {"note": 68, "velocity": 88, "duration": 80}, {"note": 65, "velocity": 93, "duration": 67}, {"note": 77, "velocity": 89, "duration": 360}, {"note": 0, "velocity": 0, "duration": 240}, {"note": 78, "velocity": 90, "duration": 229}, {"note": 77, "velocity": 89, "duration": 73}, {"note": 77, "velocity": 92, "duration": 230}, {"note": 75, "velocity": 97, "duration": 292}, {"note": 0, "velocity": 0, "duration": 188}, {"note": 68, "velocity": 89, "duration": 62}, {"note": 70, "velocity": 95, "duration": 85}, {"note": 72, "velocity": 88, "duration": 84}, {"note": 73, "velocity": 90, "duration": 94}, {"note": 72, "velocity": 87, "duration": 84}, {"note": 70, "velocity": 93, "duration": 79}, {"note": 68, "velocity": 89, "duration": 276}, {"note": 0, "velocity": 0, "duration": 84}, {"note": 73, "velocity": 88, "duration": 91}, {"note": 72, "velocity": 88, "duration": 72}, {"note": 75, "velocity": 103, "duration": 183}, {"note": 77, "velocity": 87, "duration": 178}, {"note": 0, "velocity": 0, "duration": 62}, {"note": 70, "velocity": 90, "duration": 167}, {"note": 0, "velocity": 0, "duration": 73}, {"note": 70, "velocity": 90, "duration": 205}, {"note": 68, "velocity": 87, "duration": 79}, {"note": 63, "velocity": 87, "duration": 159}, {"note": 0, "velocity": 0, "duration": 201}, {"note": 68, "velocity": 86, "duration": 81}, {"note": 63, "velocity": 82, "duration": 175}, {"note": 0, "velocity": 0, "duration": 185}, {"note": 75, "velocity": 102, "duration": 165}, {"note": 0, "velocity": 0, "duration": 75}, {"note": 72, "velocity": 88, "duration": 70}, {"note": 70, "velocity": 92, "duration": 237}, {"note": 68, "velocity": 87, "duration": 85}, {"note": 65, "velocity": 97, "duration": 70}, {"note": 68, "velocity": 88, "duration": 62}, {"note": 68, "velocity": 90, "duration": 93}, {"note": 65, "velocity": 92, "duration": 116}, {"note": 0, "velocity": 0, "duration": 244}, {"note": 68, "velocity": 88, "duration": 84}, {"note": 65, "velocity": 92, "duration": 167}, {"note": 0, "velocity": 0, "duration": 193}, {"note": 75, "velocity": 91, "duration": 172}, {"note": 0, "velocity": 0, "duration": 68}, {"note": 70, "velocity": 85, "duration": 70}, {"note": 70, "velocity": 90, "duration": 179}, {"note": 0, "velocity": 0, "duration": 61}, {"note": 68, "velocity": 88, "duration": 80}, {"note": 65, "velocity": 93, "duration": 67}, {"note": 68, "velocity": 89, "duration": 275}, {"note": 0, "velocity": 0, "duration": 85}, {"note": 65, "velocity": 93, "duration": 66}, {"note": 68, "velocity": 93, "duration": 170}, {"note": 0, "velocity": 0, "duration": 70}, {"note": 70, "velocity": 92, "duration": 157}, {"note": 0, "velocity": 0, "duration": 83}, {"note": 63, "velocity": 88, "duration": 230}, {"note": 72, "velocity": 90, "duration": 169}, {"note": 0, "velocity": 0, "duration": 71}, {"note": 72, "velocity": 92, "duration": 190}, {"note": 70, "velocity": 92, "duration": 73}, {"note": 68, "velocity": 91, "duration": 67}, {"note": 65, "velocity": 102, "duration": 82}, {"note": 0, "velocity": 0, "duration": 278}, {"note": 68, "velocity": 91, "duration": 96}, {"note": 65, "velocity": 92, "duration": 62}, {"note": 68, "velocity": 92, "duration": 181}, {"note": 65, "velocity": 97, "duration": 82}, {"note": 77, "velocity": 92, "duration": 172}, {"note": 0, "velocity": 0, "duration": 68}, {"note": 75, "velocity": 88, "duration": 240}, {"note": 68, "velocity": 92, "duration": 168}, {"note": 0, "velocity": 0, "duration": 72}, {"note": 70, "velocity": 91, "duration": 272}, {"note": 0, "velocity": 0, "duration": 88}, {"note": 68, "velocity": 87, "duration": 79}, {"note": 63, "velocity": 87, "duration": 159}, {"note": 0, "velocity": 0, "duration": 201}, {"note": 68, "velocity": 86, "duration": 81}, {"note": 63, "velocity": 82, "duration": 175}, {"note": 0, "velocity": 0, "duration": 185}, {"note": 75, "velocity": 102, "duration": 165}, {"note": 0, "velocity": 0, "duration": 75}, {"note": 72, "velocity": 88, "duration": 70}, {"note": 70, "velocity": 92, "duration": 237}, {"note": 68, "velocity": 87, "duration": 85}, {"note": 65, "velocity": 97, "duration": 70}, {"note": 68, "velocity": 88, "duration": 62}, {"note": 68, "velocity": 90, "duration": 93}, {"note": 65, "velocity": 92, "duration": 116}, {"note": 0, "velocity": 0, "duration": 244}, {"note": 68, "velocity": 88, "duration": 84}, {"note": 65, "velocity": 92, "duration": 167}, {"note": 0, "velocity": 0, "duration": 193}, {"note": 75, "velocity": 91, "duration": 172}, {"note": 0, "velocity": 0, "duration": 68}, {"note": 70, "velocity": 85, "duration": 70}, {"note": 70, "velocity": 90, "duration": 179}, {"note": 0, "velocity": 0, "duration": 61}, {"note": 68, "velocity": 88, "duration": 80}, {"note": 65, "velocity": 93, "duration": 67}, {"note": 77, "velocity": 89, "duration": 360}, {"note": 0, "velocity": 0, "duration": 240}, {"note": 78, "velocity": 90, "duration": 229}, {"note": 77, "velocity": 89, "duration": 73}, {"note": 77, "velocity": 92, "duration": 230}, {"note": 75, "velocity": 97, "duration": 292}, {"note": 0, "velocity": 0, "duration": 188}, {"note": 68, "velocity": 89, "duration": 62}, {"note": 70, "velocity": 95, "duration": 85}, {"note": 72, "velocity": 88, "duration": 84}, {"note": 73, "velocity": 90, "duration": 94}, {"note": 72, "velocity": 87, "duration": 84}, {"note": 70, "velocity": 93, "duration": 79}, {"note": 68, "velocity": 89, "duration": 276}, {"note": 0, "velocity": 0, "duration": 84}, {"note": 73, "velocity": 88, "duration": 91}, {"note": 72, "velocity": 88, "duration": 72}, {"note": 75, "velocity": 103, "duration": 183}, {"note": 77, "velocity": 87, "duration": 178}, {"note": 0, "velocity": 0, "duration": 62}, {"note": 70, "velocity": 90, "duration": 167}, {"note": 0, "velocity": 0, "duration": 73}, {"note": 70, "velocity": 90, "duration": 594}, {"note": 0, "velocity": 0, "duration": 126}, {"note": 68, "velocity": 92, "duration": 705}]]