[[{"note": 59, "velocity": 90, "duration": 152}, {"note": 0, "velocity": 0, "duration": 88}, {"note": 64, "velocity": 97, "duration": 176}, {"note": 0, "velocity": 0, "duration": 64}, {"note": 66, "velocity": 86, "duration": 170}, {"note": 0, "velocity": 0, "duration": 70}, {"note": 68, "velocity": 89, "duration": 161}, {"note": 0, "velocity": 0, "duration": 79}, {"note": 71, "velocity": 90, "duration": 364}, {"note": 0, "velocity": 0, "duration": 116}, {"note": 68, "velocity": 93, "duration": 375}, {"note": 0, "velocity": 0, "duration": 105}, {"note": 63, "velocity": 88, "duration": 790}, {"note": 0, "velocity": 0, "duration": 1130}, {"note": 59, "velocity": 93, "duration": 166}, {"note": 0, "velocity": 0, "duration": 74}, {"note": 64, "velocity": 93, "duration": 191}, {"note": 66, "velocity": 89, "duration": 158}, {"note": 0, "velocity": 0, "duration": 82}, {"note": 68, "velocity": 90, "duration": 225}, {"note": 71, "velocity": 89, "duration": 323}, {"note": 0, "velocity": 0, "duration": 157}, {"note": 68, "velocity": 92, "duration": 412}, {"note": 0, "velocity": 0, "duration": 68}, {"note": 71, "velocity": 94, "duration": 1248}, {"note": 0, "velocity": 0, "duration": 432}, {"note": 66, "velocity": 90, "duration": 171}, {"note": 0, "velocity": 0, "duration": 69}, {"note": 68, "velocity": 90, "duration": 201}, {"note": 73, "velocity": 92, "duration": 180}, {"note": 66, "velocity": 86, "duration": 176}, {"note": 0, "velocity": 0, "duration": 64}, {"note": 68, "velocity": 90, "duration": 201}, {"note": 73, "velocity": 97, "duration": 654}, {"note": 0, "velocity": 0, "duration": 66}, {"note": 66, "velocity": 93, "duration": 161}, {"note": 0, "velocity": 0, "duration": 79}, {"note": 68, "velocity": 92, "duration": 164}, {"note": 0, "velocity": 0, "duration": 76}, {"note": 71, "velocity": 90, "duration": 182}, {"note": 66, "velocity": 89, "duration": 177}, {"note": 0, "velocity": 0, "duration": 63}, {"note": 68, "velocity": 90, "duration": 180}, {"note": 71, "velocity": 91, "duration": 494}, {"note": 0, "velocity": 0, "duration": 466}, {"note": 71, "velocity": 90, "duration": 166}, {"note": 0, "velocity": 0, "duration": 74}, {"note": 71, "velocity": 92, "duration": 159}, {"note": 0, "velocity": 0, "duration": 81}, {"note": 68, "velocity": 92, "duration": 346}, {"note": 0, "velocity": 0, "duration": 134}, {"note": 61, "velocity": 92, "duration": 341}, {"note": 0, "velocity": 0, "duration": 139}, {"note": 68, "velocity": 89, "duration": 390}, {"note": 0, "velocity": 0, "duration": 90}, {"note": 66, "velocity": 89, "duration": 1478}, {"note": 0, "velocity": 0, "duration": 442}, {"note": 59, "velocity": 90, "duration": 152}, {"note": 0, "velocity": 0, "duration": 88}, {"note": 64, "velocity": 97, "duration": 176}, {"note": 0, "velocity": 0, "duration": 64}, {"note": 66, "velocity": 86, "duration": 170}, {"note": 0, "velocity": 0, "duration": 70}, {"note": 68, "velocity": 89, "duration": 161}, {"note": 0, "velocity": 0, "duration": 79}, {"note": 71, "velocity": 90, "duration": 364}, {"note": 0, "velocity": 0, "duration": 116}, {"note": 68, "velocity": 93, "duration": 375}, {"note": 0, "velocity": 0, "duration": 105}, {"note": 63, "velocity": 88, "duration": 790}, {"note": 0, "velocity": 0, "duration": 1130}, {"note": 59, "velocity": 93, "duration": 166}, {"note": 0, "velocity": 0, "duration": 74}, {"note": 64, "velocity": 93, "duration": 191}, {"note": 66, "velocity": 89, "duration": 158}, {"note": 0, "velocity": 0, "duration": 82}, {"note": 68, "velocity": 90, "duration": 225}, {"note": 71, "velocity": 89, "duration": 323}, {"note": 0, "velocity": 0, "duration": 157}, {"note": 68, "velocity": 92, "duration": 412}, {"note": 0, "velocity": 0, "duration": 68}, {"note": 71, "velocity": 94, "duration": 1248}, {"note": 0, "velocity": 0, "duration": 432}, {"note": 66, "velocity": 90, "duration": 171}, {"note": 0, "velocity": 0, "duration": 69}, {"note": 68, "velocity": 90, "duration": 201}, {"note": 73, "velocity": 92, "duration": 180}, {"note": 66, "velocity": 86, "duration": 176}, {"note": 0, "velocity": 0, "duration": 64}, {"note": 68, "velocity": 90, "duration": 201}, {"note": 73, "velocity": 97, "duration": 654}, {"note": 0, "velocity": 0, "duration": 66}, {"note": 66, "velocity": 93, "duration": 161}, {"note": 0, "velocity": 0, "duration": 79}, {"note": 68, "velocity": 92, "duration": 164}, {"note": 0, "velocity": 0, "duration": 76}, {"note": 71, "velocity": 90, "duration": 182}, {"note": 66, "velocity": 89, "duration": 177}, {"note": 0, "velocity": 0, "duration": 63}, {"note": 68, "velocity": 90, "duration": 180}, {"note": 71, "velocity": 91, "duration": 494}, {"note": 0, "velocity": 0, "duration": 466}, {"note": 71, "velocity": 90, "duration": 166}, {"note": 0, "velocity": 0, "duration": 74}, {"note": 71, "velocity": 92, "duration": 159}, {"note": 0, "velocity": 0, "duration": 81}, {"note": 73, "velocity": 92, "duration": 195}, {"note": 76, "velocity": 97, "duration": 143}, {"note": 0, "velocity": 0, "duration": 99}, {"note": 76, "velocity": 92, "duration": 341}, {"note": 0, "velocity": 0, "duration": 139}, {"note": 73, "velocity": 89, "duration": 390}, {"note": 0, "velocity": 0, "duration": 90}, {"note": 78, "velocity": 89, "duration": 216}, {"note": 78, "velocity": 89, "duration": 1173}, {"note": 0, "velocity": 0, "duration": 508}, {"note": 71, "velocity": 102, "duration": 153}, {"note": 0, "velocity": 0, "duration": 87}, {"note": 71, "velocity": 102, "duration": 182}, {"note": 76, "velocity": 93, "duration": 64}, {"note": 76, "velocity": 92, "duration": 258}, {"note": 0, "velocity": 0, "duration": 102}, {"note": 75, "velocity": 105, "duration": 422}, {"note": 76, "velocity": 97, "duration": 167}, {"note": 0, "velocity": 0, "duration": 73}, {"note": 71, "velocity": 97, "duration": 169}, {"note": 0, "velocity": 0, "duration": 71}, {"note": 68, "velocity": 99, "duration": 162}, {"note": 0, "velocity": 0, "duration": 78}, {"note": 71, "velocity": 95, "duration": 168}, {"note": 0, "velocity": 0, "duration": 72}, {"note": 76, "velocity": 95, "duration": 60}, {"note": 76, "velocity": 94, "duration": 291}, {"note": 0, "velocity": 0, "duration": 69}, {"note": 75, "velocity": 94, "duration": 253}, {"note": 0, "velocity": 0, "duration": 227}, {"note": 76, "velocity": 89, "duration": 157}, {"note": 0, "velocity": 0, "duration": 83}, {"note": 71, "velocity": 90, "duration": 180}, {"note": 64, "velocity": 95, "duration": 176}, {"note": 0, "velocity": 0, "duration": 64}, {"note": 73, "velocity": 97, "duration": 316}, {"note": 0, "velocity": 0, "duration": 164}, {"note": 64, "velocity": 89, "duration": 306}, {"note": 0, "velocity": 0, "duration": 174}, {"note": 71, "velocity": 91, "duration": 384}, {"note": 0, "velocity": 0, "duration": 96}, {"note": 64, "velocity": 95, "duration": 288}, {"note": 0, "velocity": 0, "duration": 192}, {"note": 73, "velocity": 99, "duration": 183}, {"note": 71, "velocity": 93, "duration": 67}, {"note": 73, "velocity": 105, "duration": 119}, {"note": 0, "velocity": 0, "duration": 121}, {"note": 68, "velocity": 93, "duration": 309}, {"note": 66, "velocity": 91, "duration": 480}, {"note": 0, "velocity": 0, "duration": 240}, {"note": 71, "velocity": 102, "duration": 153}, {"note": 0, "velocity": 0, "duration": 87}, {"note": 71, "velocity": 102, "duration": 182}, {"note": 76, "velocity": 93, "duration": 64}, {"note": 76, "velocity": 92, "duration": 258}, {"note": 0, "velocity": 0, "duration": 102}, {"note": 75, "velocity": 105, "duration": 422}, {"note": 76, "velocity": 97, "duration": 167}, {"note": 0, "velocity": 0, "duration": 73}, {"note": 71, "velocity": 97, "duration": 169}, {"note": 0, "velocity": 0, "duration": 71}, {"note": 68, "velocity": 99, "duration": 162}, {"note": 0, "velocity": 0, "duration": 78}, {"note": 71, "velocity": 95, "duration": 168}, {"note": 0, "velocity": 0, "duration": 72}, {"note": 76, "velocity": 95, "duration": 60}, {"note": 76, "velocity": 94, "duration": 291}, {"note": 0, "velocity": 0, "duration": 69}, {"note": 75, "velocity": 94, "duration": 253}, {"note": 0, "velocity": 0, "duration": 227}, {"note": 76, "velocity": 89, "duration": 157}, {"note": 0, "velocity": 0, "duration": 83}, {"note": 78, "velocity": 90, "duration": 180}, {"note": 76, "velocity": 95, "duration": 176}, {"note": 0, "velocity": 0, "duration": 64}, {"note": 80, "velocity": 97, "duration": 480}, {"note": 0, "velocity": 0, "duration": 240}, {"note": 81, "velocity": 91, "duration": 112}, {"note": 80, "velocity": 91, "duration": 241}, {"note": 0, "velocity": 0, "duration": 119}, {"note": 76, "velocity": 95, "duration": 688}, {"note": 71, "velocity": 95, "duration": 184}, {"note": 73, "velocity": 99, "duration": 98}, {"note": 76, "velocity": 91, "duration": 222}, {"note": 0, "velocity": 0, "duration": 138}, {"note": 73, "velocity": 105, "duration": 240}, {"note": 78, "velocity": 94, "duration": 265}, {"note": 0, "velocity": 0, "duration": 215}, {"note": 75, "velocity": 105, "duration": 193}, {"note": 76, "velocity": 92, "duration": 175}, {"note": 0, "velocity": 0, "duration": 65}, {"note": 76, "velocity": 94, "duration": 1364}, {"note": 0, "velocity": 0, "duration": 6076}, {"note": 59, "velocity": 90, "duration": 152}, {"note": 0, "velocity": 0, "duration": 88}, {"note": 64, "velocity": 97, "duration": 176}, {"note": 0, "velocity": 0, "duration": 64}, {"note": 66, "velocity": 86, "duration": 170}, {"note": 0, "velocity": 0, "duration": 70}, {"note": 68, "velocity": 89, "duration": 161}, {"note": 0, "velocity": 0, "duration": 79}, {"note": 71, "velocity": 90, "duration": 364}, {"note": 0, "velocity": 0, "duration": 116}, {"note": 68, "velocity": 93, "duration": 375}, {"note": 0, "velocity": 0, "duration": 105}, {"note": 63, "velocity": 88, "duration": 790}, {"note": 0, "velocity": 0, "duration": 1130}, {"note": 59, "velocity": 93, "duration": 166}, {"note": 0, "velocity": 0, "duration": 74}, {"note": 64, "velocity": 93, "duration": 191}, {"note": 66, "velocity": 89, "duration": 158}, {"note": 0, "velocity": 0, "duration": 82}, {"note": 68, "velocity": 90, "duration": 225}, {"note": 71, "velocity": 89, "duration": 323}, {"note": 0, "velocity": 0, "duration": 157}, {"note": 68, "velocity": 92, "duration": 412}, {"note": 0, "velocity": 0, "duration": 68}, {"note": 71, "velocity": 94, "duration": 1248}, {"note": 0, "velocity": 0, "duration": 432}, {"note": 66, "velocity": 90, "duration": 171}, {"note": 0, "velocity": 0, "duration": 69}, {"note": 68, "velocity": 90, "duration": 201}, {"note": 73, "velocity": 92, "duration": 180}, {"note": 66, "velocity": 86, "duration": 176}, {"note": 0, "velocity": 0, "duration": 64}, {"note": 68, "velocity": 90, "duration": 201}, {"note": 73, "velocity": 97, "duration": 654}, {"note": 0, "velocity": 0, "duration": 66}, {"note": 66, "velocity": 93, "duration": 161}, {"note": 0, "velocity": 0, "duration": 79}, {"note": 68, "velocity": 92, "duration": 164}, {"note": 0, "velocity": 0, "duration": 76}, {"note": 71, "velocity": 90, "duration": 182}, {"note": 66, "velocity": 89, "duration": 177}, {"note": 0, "velocity": 0, "duration": 63}, {"note": 68, "velocity": 90, "duration": 180}, {"note": 71, "velocity": 91, "duration": 494}, {"note": 0, "velocity": 0, "duration": 466}, {"note": 71, "velocity": 90, "duration": 166}, {"note": 0, "velocity": 0, "duration": 74}, {"note": 71, "velocity": 92, "duration": 159}, {"note": 0, "velocity": 0, "duration": 81}, {"note": 73, "velocity": 92, "duration": 247}, {"note": 76, "velocity": 97, "duration": 167}, {"note": 0, "velocity": 0, "duration": 86}, {"note": 76, "velocity": 92, "duration": 341}, {"note": 0, "velocity": 0, "duration": 139}, {"note": 73, "velocity": 89, "duration": 390}, {"note": 0, "velocity": 0, "duration": 86}, {"note": 78, "velocity": 89, "duration": 174}, {"note": 0, "velocity": 0, "duration": 73}, {"note": 78, "velocity": 89, "duration": 1612}, {"note": 0, "velocity": 0, "duration": 65}, {"note": 71, "velocity": 102, "duration": 153}, {"note": 0, "velocity": 0, "duration": 87}, {"note": 71, "velocity": 102, "duration": 182}, {"note": 76, "velocity": 93, "duration": 64}, {"note": 76, "velocity": 92, "duration": 258}, {"note": 0, "velocity": 0, "duration": 102}, {"note": 75, "velocity": 105, "duration": 422}, {"note": 76, "velocity": 97, "duration": 167}, {"note": 0, "velocity": 0, "duration": 73}, {"note": 71, "velocity": 97, "duration": 169}, {"note": 0, "velocity": 0, "duration": 71}, {"note": 68, "velocity": 99, "duration": 162}, {"note": 0, "velocity": 0, "duration": 78}, {"note": 71, "velocity": 95, "duration": 168}, {"note": 0, "velocity": 0, "duration": 72}, {"note": 76, "velocity": 95, "duration": 60}, {"note": 76, "velocity": 94, "duration": 291}, {"note": 0, "velocity": 0, "duration": 69}, {"note": 75, "velocity": 94, "duration": 253}, {"note": 0, "velocity": 0, "duration": 227}, {"note": 76, "velocity": 89, "duration": 157}, {"note": 0, "velocity": 0, "duration": 83}, {"note": 71, "velocity": 90, "duration": 180}, {"note": 64, "velocity": 95, "duration": 176}, {"note": 0, "velocity": 0, "duration": 64}, {"note": 73, "velocity": 97, "duration": 316}, {"note": 0, "velocity": 0, "duration": 164}, {"note": 64, "velocity": 89, "duration": 306}, {"note": 0, "velocity": 0, "duration": 174}, {"note": 71, "velocity": 91, "duration": 384}, {"note": 0, "velocity": 0, "duration": 96}, {"note": 64, "velocity": 95, "duration": 288}, {"note": 0, "velocity": 0, "duration": 192}, {"note": 73, "velocity": 99, "duration": 183}, {"note": 71, "velocity": 93, "duration": 67}, {"note": 73, "velocity": 105, "duration": 119}, {"note": 0, "velocity": 0, "duration": 121}, {"note": 68, "velocity": 93, "duration": 309}, {"note": 66, "velocity": 91, "duration": 480}, {"note": 0, "velocity": 0, "duration": 240}, {"note": 71, "velocity": 102, "duration": 153}, {"note": 0, "velocity": 0, "duration": 87}, {"note": 71, "velocity": 102, "duration": 182}, {"note": 76, "velocity": 93, "duration": 64}, {"note": 76, "velocity": 92, "duration": 258}, {"note": 0, "velocity": 0, "duration": 102}, {"note": 75, "velocity": 105, "duration": 422}, {"note": 76, "velocity": 97, "duration": 167}, {"note": 0, "velocity": 0, "duration": 73}, {"note": 71, "velocity": 97, "duration": 169}, {"note": 0, "velocity": 0, "duration": 71}, {"note": 68, "velocity": 99, "duration": 162}, {"note": 0, "velocity": 0, "duration": 78}, {"note": 71, "velocity": 95, "duration": 168}, {"note": 0, "velocity": 0, "duration": 72}, {"note": 76, "velocity": 95, "duration": 60}, {"note": 76, "velocity": 94, "duration": 291}, {"note": 0, "velocity": 0, "duration": 69}, {"note": 75, "velocity": 94, "duration": 253}, {"note": 0, "velocity": 0, "duration": 227}, {"note": 76, "velocity": 89, "duration": 157}, {"note": 0, "velocity": 0, "duration": 83}, {"note": 78, "velocity": 90, "duration": 180}, {"note": 76, "velocity": 95, "duration": 176}, {"note": 0, "velocity": 0, "duration": 64}, {"note": 80, "velocity": 97, "duration": 480}, {"note": 0, "velocity": 0, "duration": 240}, {"note": 81, "velocity": 91, "duration": 112}, {"note": 80, "velocity": 91, "duration": 241}, {"note": 0, "velocity": 0, "duration": 119}, {"note": 76, "velocity": 95, "duration": 688}, {"note": 71, "velocity": 95, "duration": 184}, {"note": 73, "velocity": 99, "duration": 98}, {"note": 76, "velocity": 91, "duration": 222}, {"note": 0, "velocity": 0, "duration": 138}, {"note": 73, "velocity": 105, "duration": 120}, {"note": 76, "velocity": 94, "duration": 265}, {"note": 0, "velocity": 0, "duration": 335}, {"note": 75, "velocity": 105, "duration": 193}, {"note": 76, "velocity": 92, "duration": 175}, {"note": 0, "velocity": 0, "duration": 65}, {"note": 76, "velocity": 94, "duration": 600}, {"note": 0, "velocity": 0, "duration": 120}, {"note": 76, "velocity": 99, "duration": 60}, {"note": 76, "velocity": 92, "duration": 73}, {"note": 75, "velocity": 105, "duration": 170}, {"note": 0, "velocity": 0, "duration": 70}, {"note": 76, "velocity": 102, "duration": 168}, {"note": 0, "velocity": 0, "duration": 72}, {"note": 78, "velocity": 95, "duration": 274}, {"note": 0, "velocity": 0, "duration": 86}, {"note": 76, "velocity": 104, "duration": 729}, {"note": 0, "velocity": 0, "duration": 111}, {"note": 76, "velocity": 95, "duration": 63}, {"note": 76, "velocity": 88, "duration": 82}, {"note": 75, "velocity": 99, "duration": 192}, {"note": 76, "velocity": 91, "duration": 64}, {"note": 78, "velocity": 95, "duration": 331}, {"note": 76, "velocity": 99, "duration": 795}, {"note": 0, "velocity": 0, "duration": 165}, {"note": 76, "velocity": 94, "duration": 64}, {"note": 76, "velocity": 90, "duration": 107}, {"note": 75, "velocity": 102, "duration": 170}, {"note": 0, "velocity": 0, "duration": 70}, {"note": 76, "velocity": 95, "duration": 169}, {"note": 0, "velocity": 0, "duration": 71}, {"note": 78, "velocity": 92, "duration": 87}, {"note": 76, "velocity": 99, "duration": 64}, {"note": 80, "velocity": 102, "duration": 806}, {"note": 0, "velocity": 0, "duration": 154}, {"note": 78, "velocity": 94, "duration": 76}, {"note": 76, "velocity": 94, "duration": 311}, {"note": 73, "velocity": 102, "duration": 505}, {"note": 71, "velocity": 90, "duration": 77}, {"note": 73, "velocity": 102, "duration": 67}, {"note": 76, "velocity": 94, "duration": 183}, {"note": 71, "velocity": 92, "duration": 73}, {"note": 73, "velocity": 104, "duration": 161}, {"note": 0, "velocity": 0, "duration": 79}, {"note": 76, "velocity": 94, "duration": 279}, {"note": 0, "velocity": 0, "duration": 81}, {"note": 76, "velocity": 93, "duration": 185}, {"note": 78, "velocity": 91, "duration": 80}, {"note": 80, "velocity": 93, "duration": 281}, {"note": 0, "velocity": 0, "duration": 79}, {"note": 81, "velocity": 94, "duration": 175}, {"note": 0, "velocity": 0, "duration": 65}, {"note": 78, "velocity": 95, "duration": 1696}, {"note": 71, "velocity": 102, "duration": 153}, {"note": 0, "velocity": 0, "duration": 87}, {"note": 71, "velocity": 102, "duration": 182}, {"note": 76, "velocity": 93, "duration": 64}, {"note": 76, "velocity": 92, "duration": 258}, {"note": 0, "velocity": 0, "duration": 102}, {"note": 75, "velocity": 105, "duration": 422}, {"note": 76, "velocity": 97, "duration": 167}, {"note": 0, "velocity": 0, "duration": 73}, {"note": 71, "velocity": 97, "duration": 169}, {"note": 0, "velocity": 0, "duration": 71}, {"note": 68, "velocity": 99, "duration": 162}, {"note": 0, "velocity": 0, "duration": 78}, {"note": 71, "velocity": 95, "duration": 168}, {"note": 0, "velocity": 0, "duration": 72}, {"note": 76, "velocity": 95, "duration": 60}, {"note": 76, "velocity": 94, "duration": 291}, {"note": 0, "velocity": 0, "duration": 69}, {"note": 75, "velocity": 94, "duration": 253}, {"note": 0, "velocity": 0, "duration": 227}, {"note": 76, "velocity": 89, "duration": 157}, {"note": 0, "velocity": 0, "duration": 83}, {"note": 71, "velocity": 90, "duration": 180}, {"note": 64, "velocity": 95, "duration": 176}, {"note": 0, "velocity": 0, "duration": 64}, {"note": 73, "velocity": 97, "duration": 316}, {"note": 0, "velocity": 0, "duration": 164}, {"note": 64, "velocity": 89, "duration": 306}, {"note": 0, "velocity": 0, "duration": 174}, {"note": 71, "velocity": 91, "duration": 384}, {"note": 0, "velocity": 0, "duration": 96}, {"note": 64, "velocity": 95, "duration": 288}, {"note": 0, "velocity": 0, "duration": 192}, {"note": 73, "velocity": 99, "duration": 183}, {"note": 71, "velocity": 93, "duration": 67}, {"note": 73, "velocity": 105, "duration": 119}, {"note": 0, "velocity": 0, "duration": 121}, {"note": 68, "velocity": 93, "duration": 309}, {"note": 66, "velocity": 91, "duration": 480}, {"note": 0, "velocity": 0, "duration": 240}, {"note": 71, "velocity": 102, "duration": 153}, {"note": 0, "velocity": 0, "duration": 87}, {"note": 71, "velocity": 102, "duration": 182}, {"note": 76, "velocity": 93, "duration": 64}, {"note": 76, "velocity": 92, "duration": 258}, {"note": 0, "velocity": 0, "duration": 102}, {"note": 75, "velocity": 105, "duration": 422}, {"note": 76, "velocity": 97, "duration": 167}, {"note": 0, "velocity": 0, "duration": 73}, {"note": 71, "velocity": 97, "duration": 169}, {"note": 0, "velocity": 0, "duration": 71}, {"note": 68, "velocity": 99, "duration": 162}, {"note": 0, "velocity": 0, "duration": 78}, {"note": 71, "velocity": 95, "duration": 168}, {"note": 0, "velocity": 0, "duration": 72}, {"note": 76, "velocity": 95, "duration": 60}, {"note": 76, "velocity": 94, "duration": 291}, {"note": 0, "velocity": 0, "duration": 69}, {"note": 75, "velocity": 94, "duration": 253}, {"note": 0, "velocity": 0, "duration": 227}, {"note": 76, "velocity": 89, "duration": 157}, {"note": 0, "velocity": 0, "duration": 83}, {"note": 78, "velocity": 90, "duration": 180}, {"note": 76, "velocity": 95, "duration": 176}, {"note": 0, "velocity": 0, "duration": 64}, {"note": 80, "velocity": 97, "duration": 480}, {"note": 0, "velocity": 0, "duration": 240}, {"note": 81, "velocity": 91, "duration": 112}, {"note": 80, "velocity": 91, "duration": 241}, {"note": 0, "velocity": 0, "duration": 119}, {"note": 76, "velocity": 95, "duration": 688}, {"note": 71, "velocity": 95, "duration": 184}, {"note": 73, "velocity": 99, "duration": 98}, {"note": 76, "velocity": 91, "duration": 222}, {"note": 0, "velocity": 0, "duration": 138}, {"note": 73, "velocity": 105, "duration": 240}, {"note": 78, "velocity": 94, "duration": 265}, {"note": 0, "velocity": 0, "duration": 215}, {"note": 75, "velocity": 105, "duration": 193}, {"note": 76, "velocity": 92, "duration": 175}, {"note": 0, "velocity": 0, "duration": 65}, {"note": 76, "velocity": 94, "duration": 1364}, {"note": 0, "velocity": 0, "duration": 1224}, {"note": 71, "velocity": 84, "duration": 295}, {"note": 0, "velocity": 0, "duration": 75}, {"note": 73, "velocity": 93, "duration": 164}, {"note": 0, "velocity": 0, "duration": 61}, {"note": 76, "velocity": 91, "duration": 331}, {"note": 73, "velocity": 90, "duration": 210}, {"note": 0, "velocity": 0, "duration": 95}, {"note": 76, "velocity": 88, "duration": 1040}, {"note": 0, "velocity": 0, "duration": 593}, {"note": 75, "velocity": 102, "duration": 323}, {"note": 0, "velocity": 0, "duration": 61}, {"note": 76, "velocity": 89, "duration": 205}, {"note": 0, "velocity": 0, "duration": 72}, {"note": 76, "velocity": 90, "duration": 1800}]]