[[{"note": 65, "velocity": 93, "duration": 173}, {"note": 0, "velocity": 0, "duration": 67}, {"note": 65, "velocity": 83, "duration": 78}, {"note": 65, "velocity": 86, "duration": 171}, {"note": 0, "velocity": 0, "duration": 69}, {"note": 68, "velocity": 84, "duration": 263}, {"note": 0, "velocity": 0, "duration": 97}, {"note": 68, "velocity": 84, "duration": 178}, {"note": 0, "velocity": 0, "duration": 62}, {"note": 66, "velocity": 82, "duration": 76}, {"note": 66, "velocity": 83, "duration": 328}, {"note": 0, "velocity": 0, "duration": 272}, {"note": 63, "velocity": 84, "duration": 149}, {"note": 0, "velocity": 0, "duration": 91}, {"note": 63, "velocity": 82, "duration": 70}, {"note": 63, "velocity": 83, "duration": 166}, {"note": 0, "velocity": 0, "duration": 74}, {"note": 66, "velocity": 84, "duration": 174}, {"note": 0, "velocity": 0, "duration": 186}, {"note": 66, "velocity": 84, "duration": 240}, {"note": 65, "velocity": 86, "duration": 67}, {"note": 65, "velocity": 84, "duration": 384}, {"note": 0, "velocity": 0, "duration": 216}, {"note": 61, "velocity": 85, "duration": 170}, {"note": 0, "velocity": 0, "duration": 70}, {"note": 61, "velocity": 82, "duration": 82}, {"note": 61, "velocity": 83, "duration": 171}, {"note": 0, "velocity": 0, "duration": 69}, {"note": 65, "velocity": 83, "duration": 292}, {"note": 0, "velocity": 0, "duration": 68}, {"note": 65, "velocity": 86, "duration": 178}, {"note": 0, "velocity": 0, "duration": 62}, {"note": 63, "velocity": 82, "duration": 72}, {"note": 63, "velocity": 84, "duration": 309}, {"note": 0, "velocity": 0, "duration": 171}, {"note": 58, "velocity": 82, "duration": 82}, {"note": 61, "velocity": 84, "duration": 165}, {"note": 0, "velocity": 0, "duration": 75}, {"note": 61, "velocity": 80, "duration": 76}, {"note": 61, "velocity": 83, "duration": 187}, {"note": 63, "velocity": 83, "duration": 240}, {"note": 63, "velocity": 82, "duration": 600}, {"note": 61, "velocity": 76, "duration": 90}, {"note": 56, "velocity": 78, "duration": 85}, {"note": 65, "velocity": 82, "duration": 161}, {"note": 0, "velocity": 0, "duration": 79}, {"note": 65, "velocity": 83, "duration": 169}, {"note": 0, "velocity": 0, "duration": 71}, {"note": 65, "velocity": 93, "duration": 173}, {"note": 0, "velocity": 0, "duration": 67}, {"note": 65, "velocity": 83, "duration": 78}, {"note": 65, "velocity": 86, "duration": 171}, {"note": 0, "velocity": 0, "duration": 69}, {"note": 68, "velocity": 84, "duration": 263}, {"note": 0, "velocity": 0, "duration": 97}, {"note": 68, "velocity": 84, "duration": 178}, {"note": 0, "velocity": 0, "duration": 62}, {"note": 66, "velocity": 82, "duration": 76}, {"note": 66, "velocity": 83, "duration": 328}, {"note": 0, "velocity": 0, "duration": 272}, {"note": 63, "velocity": 84, "duration": 149}, {"note": 0, "velocity": 0, "duration": 91}, {"note": 63, "velocity": 82, "duration": 70}, {"note": 63, "velocity": 83, "duration": 166}, {"note": 0, "velocity": 0, "duration": 74}, {"note": 66, "velocity": 84, "duration": 174}, {"note": 0, "velocity": 0, "duration": 186}, {"note": 66, "velocity": 84, "duration": 240}, {"note": 65, "velocity": 86, "duration": 67}, {"note": 65, "velocity": 84, "duration": 384}, {"note": 0, "velocity": 0, "duration": 216}, {"note": 61, "velocity": 85, "duration": 170}, {"note": 0, "velocity": 0, "duration": 70}, {"note": 61, "velocity": 82, "duration": 82}, {"note": 61, "velocity": 83, "duration": 171}, {"note": 0, "velocity": 0, "duration": 69}, {"note": 65, "velocity": 83, "duration": 292}, {"note": 0, "velocity": 0, "duration": 68}, {"note": 65, "velocity": 86, "duration": 178}, {"note": 0, "velocity": 0, "duration": 62}, {"note": 63, "velocity": 82, "duration": 72}, {"note": 63, "velocity": 84, "duration": 309}, {"note": 0, "velocity": 0, "duration": 171}, {"note": 58, "velocity": 82, "duration": 82}, {"note": 61, "velocity": 84, "duration": 165}, {"note": 0, "velocity": 0, "duration": 75}, {"note": 61, "velocity": 80, "duration": 76}, {"note": 65, "velocity": 83, "duration": 187}, {"note": 63, "velocity": 83, "duration": 240}, {"note": 61, "velocity": 82, "duration": 600}, {"note": 0, "velocity": 0, "duration": 120}, {"note": 70, "velocity": 82, "duration": 61}, {"note": 70, "velocity": 83, "duration": 112}, {"note": 69, "velocity": 82, "duration": 85}, {"note": 70, "velocity": 79, "duration": 65}, {"note": 70, "velocity": 80, "duration": 68}, {"note": 70, "velocity": 82, "duration": 87}, {"note": 68, "velocity": 81, "duration": 71}, {"note": 70, "velocity": 83, "duration": 77}, {"note": 70, "velocity": 80, "duration": 65}, {"note": 70, "velocity": 83, "duration": 90}, {"note": 68, "velocity": 82, "duration": 70}, {"note": 70, "velocity": 82, "duration": 176}, {"note": 0, "velocity": 0, "duration": 64}, {"note": 68, "velocity": 81, "duration": 94}, {"note": 73, "velocity": 83, "duration": 181}, {"note": 70, "velocity": 85, "duration": 254}, {"note": 0, "velocity": 0, "duration": 226}, {"note": 70, "velocity": 84, "duration": 65}, {"note": 70, "velocity": 79, "duration": 87}, {"note": 68, "velocity": 71, "duration": 71}, {"note": 70, "velocity": 82, "duration": 70}, {"note": 70, "velocity": 78, "duration": 65}, {"note": 70, "velocity": 80, "duration": 79}, {"note": 68, "velocity": 80, "duration": 64}, {"note": 70, "velocity": 83, "duration": 67}, {"note": 70, "velocity": 78, "duration": 93}, {"note": 68, "velocity": 78, "duration": 80}, {"note": 65, "velocity": 86, "duration": 113}, {"note": 0, "velocity": 0, "duration": 127}, {"note": 70, "velocity": 82, "duration": 67}, {"note": 70, "velocity": 81, "duration": 84}, {"note": 68, "velocity": 81, "duration": 77}, {"note": 70, "velocity": 86, "duration": 74}, {"note": 70, "velocity": 82, "duration": 185}, {"note": 70, "velocity": 85, "duration": 67}, {"note": 70, "velocity": 82, "duration": 72}, {"note": 70, "velocity": 81, "duration": 73}, {"note": 70, "velocity": 82, "duration": 84}, {"note": 68, "velocity": 78, "duration": 76}, {"note": 70, "velocity": 84, "duration": 120}, {"note": 0, "velocity": 0, "duration": 120}, {"note": 68, "velocity": 83, "duration": 82}, {"note": 73, "velocity": 88, "duration": 194}, {"note": 70, "velocity": 83, "duration": 231}, {"note": 68, "velocity": 75, "duration": 80}, {"note": 68, "velocity": 79, "duration": 88}, {"note": 70, "velocity": 82, "duration": 76}, {"note": 73, "velocity": 81, "duration": 82}, {"note": 75, "velocity": 83, "duration": 79}, {"note": 77, "velocity": 84, "duration": 285}, {"note": 0, "velocity": 0, "duration": 75}, {"note": 75, "velocity": 84, "duration": 203}, {"note": 73, "velocity": 79, "duration": 79}, {"note": 70, "velocity": 80, "duration": 240}, {"note": 0, "velocity": 0, "duration": 120}, {"note": 70, "velocity": 81, "duration": 64}, {"note": 70, "velocity": 83, "duration": 93}, {"note": 68, "velocity": 77, "duration": 76}, {"note": 70, "velocity": 84, "duration": 79}, {"note": 68, "velocity": 82, "duration": 76}, {"note": 70, "velocity": 80, "duration": 113}, {"note": 0, "velocity": 0, "duration": 127}, {"note": 70, "velocity": 83, "duration": 91}, {"note": 68, "velocity": 82, "duration": 76}, {"note": 70, "velocity": 84, "duration": 129}, {"note": 0, "velocity": 0, "duration": 111}, {"note": 70, "velocity": 83, "duration": 90}, {"note": 68, "velocity": 80, "duration": 70}, {"note": 70, "velocity": 82, "duration": 134}, {"note": 0, "velocity": 0, "duration": 106}, {"note": 70, "velocity": 77, "duration": 94}, {"note": 68, "velocity": 81, "duration": 62}, {"note": 70, "velocity": 83, "duration": 117}, {"note": 0, "velocity": 0, "duration": 123}, {"note": 70, "velocity": 85, "duration": 77}, {"note": 68, "velocity": 78, "duration": 59}, {"note": 0, "velocity": 0, "duration": 61}, {"note": 70, "velocity": 85, "duration": 109}, {"note": 0, "velocity": 0, "duration": 131}, {"note": 70, "velocity": 82, "duration": 75}, {"note": 68, "velocity": 83, "duration": 70}, {"note": 70, "velocity": 81, "duration": 91}, {"note": 0, "velocity": 0, "duration": 149}, {"note": 70, "velocity": 84, "duration": 70}, {"note": 68, "velocity": 81, "duration": 68}, {"note": 70, "velocity": 84, "duration": 110}, {"note": 68, "velocity": 78, "duration": 67}, {"note": 70, "velocity": 83, "duration": 64}, {"note": 68, "velocity": 78, "duration": 58}, {"note": 0, "velocity": 0, "duration": 62}, {"note": 70, "velocity": 83, "duration": 63}, {"note": 70, "velocity": 82, "duration": 70}, {"note": 73, "velocity": 87, "duration": 155}, {"note": 0, "velocity": 0, "duration": 85}, {"note": 70, "velocity": 86, "duration": 120}, {"note": 73, "velocity": 73, "duration": 188}, {"note": 0, "velocity": 0, "duration": 172}, {"note": 75, "velocity": 82, "duration": 65}, {"note": 75, "velocity": 93, "duration": 360}, {"note": 73, "velocity": 83, "duration": 67}, {"note": 73, "velocity": 83, "duration": 291}, {"note": 75, "velocity": 89, "duration": 239}, {"note": 0, "velocity": 0, "duration": 121}, {"note": 77, "velocity": 86, "duration": 1224}, {"note": 0, "velocity": 0, "duration": 696}, {"note": 77, "velocity": 76, "duration": 141}, {"note": 0, "velocity": 0, "duration": 99}, {"note": 77, "velocity": 84, "duration": 76}, {"note": 77, "velocity": 87, "duration": 174}, {"note": 0, "velocity": 0, "duration": 66}, {"note": 78, "velocity": 85, "duration": 309}, {"note": 77, "velocity": 84, "duration": 175}, {"note": 0, "velocity": 0, "duration": 65}, {"note": 75, "velocity": 83, "duration": 63}, {"note": 75, "velocity": 93, "duration": 216}, {"note": 0, "velocity": 0, "duration": 144}, {"note": 72, "velocity": 87, "duration": 72}, {"note": 70, "velocity": 88, "duration": 62}, {"note": 68, "velocity": 84, "duration": 177}, {"note": 0, "velocity": 0, "duration": 63}, {"note": 68, "velocity": 82, "duration": 75}, {"note": 75, "velocity": 87, "duration": 331}, {"note": 77, "velocity": 84, "duration": 172}, {"note": 0, "velocity": 0, "duration": 68}, {"note": 75, "velocity": 93, "duration": 186}, {"note": 73, "velocity": 83, "duration": 64}, {"note": 73, "velocity": 83, "duration": 173}, {"note": 0, "velocity": 0, "duration": 427}, {"note": 70, "velocity": 85, "duration": 179}, {"note": 0, "velocity": 0, "duration": 61}, {"note": 72, "velocity": 84, "duration": 82}, {"note": 73, "velocity": 83, "duration": 331}, {"note": 0, "velocity": 0, "duration": 149}, {"note": 73, "velocity": 84, "duration": 63}, {"note": 73, "velocity": 85, "duration": 181}, {"note": 72, "velocity": 87, "duration": 191}, {"note": 70, "velocity": 84, "duration": 192}, {"note": 72, "velocity": 85, "duration": 171}, {"note": 0, "velocity": 0, "duration": 69}, {"note": 70, "velocity": 84, "duration": 428}, {"note": 68, "velocity": 83, "duration": 365}, {"note": 0, "velocity": 0, "duration": 115}, {"note": 78, "velocity": 74, "duration": 396}, {"note": 0, "velocity": 0, "duration": 84}, {"note": 77, "velocity": 89, "duration": 324}, {"note": 0, "velocity": 0, "duration": 156}, {"note": 77, "velocity": 88, "duration": 171}, {"note": 0, "velocity": 0, "duration": 69}, {"note": 77, "velocity": 86, "duration": 75}, {"note": 77, "velocity": 87, "duration": 175}, {"note": 0, "velocity": 0, "duration": 65}, {"note": 82, "velocity": 86, "duration": 285}, {"note": 0, "velocity": 0, "duration": 75}, {"note": 82, "velocity": 83, "duration": 187}, {"note": 80, "velocity": 82, "duration": 67}, {"note": 80, "velocity": 83, "duration": 319}, {"note": 72, "velocity": 83, "duration": 85}, {"note": 73, "velocity": 85, "duration": 53}, {"note": 0, "velocity": 0, "duration": 67}, {"note": 75, "velocity": 89, "duration": 157}, {"note": 0, "velocity": 0, "duration": 83}, {"note": 68, "velocity": 84, "duration": 65}, {"note": 68, "velocity": 85, "duration": 195}, {"note": 80, "velocity": 85, "duration": 299}, {"note": 0, "velocity": 0, "duration": 61}, {"note": 78, "velocity": 83, "duration": 506}, {"note": 0, "velocity": 0, "duration": 454}, {"note": 70, "velocity": 86, "duration": 196}, {"note": 72, "velocity": 84, "duration": 82}, {"note": 73, "velocity": 83, "duration": 367}, {"note": 0, "velocity": 0, "duration": 113}, {"note": 73, "velocity": 80, "duration": 81}, {"note": 77, "velocity": 88, "duration": 167}, {"note": 0, "velocity": 0, "duration": 73}, {"note": 75, "velocity": 87, "duration": 170}, {"note": 0, "velocity": 0, "duration": 70}, {"note": 70, "velocity": 84, "duration": 218}, {"note": 72, "velocity": 84, "duration": 196}, {"note": 73, "velocity": 83, "duration": 805}, {"note": 0, "velocity": 0, "duration": 6875}, {"note": 65, "velocity": 93, "duration": 173}, {"note": 0, "velocity": 0, "duration": 67}, {"note": 65, "velocity": 83, "duration": 78}, {"note": 65, "velocity": 86, "duration": 171}, {"note": 0, "velocity": 0, "duration": 69}, {"note": 68, "velocity": 84, "duration": 263}, {"note": 0, "velocity": 0, "duration": 97}, {"note": 68, "velocity": 84, "duration": 178}, {"note": 0, "velocity": 0, "duration": 62}, {"note": 66, "velocity": 82, "duration": 76}, {"note": 66, "velocity": 83, "duration": 328}, {"note": 0, "velocity": 0, "duration": 272}, {"note": 63, "velocity": 84, "duration": 149}, {"note": 0, "velocity": 0, "duration": 91}, {"note": 63, "velocity": 82, "duration": 70}, {"note": 63, "velocity": 83, "duration": 166}, {"note": 0, "velocity": 0, "duration": 74}, {"note": 66, "velocity": 84, "duration": 174}, {"note": 0, "velocity": 0, "duration": 186}, {"note": 66, "velocity": 84, "duration": 240}, {"note": 65, "velocity": 86, "duration": 67}, {"note": 65, "velocity": 84, "duration": 384}, {"note": 0, "velocity": 0, "duration": 216}, {"note": 61, "velocity": 85, "duration": 170}, {"note": 0, "velocity": 0, "duration": 70}, {"note": 61, "velocity": 82, "duration": 82}, {"note": 61, "velocity": 83, "duration": 171}, {"note": 0, "velocity": 0, "duration": 69}, {"note": 65, "velocity": 83, "duration": 292}, {"note": 0, "velocity": 0, "duration": 68}, {"note": 65, "velocity": 86, "duration": 178}, {"note": 0, "velocity": 0, "duration": 62}, {"note": 63, "velocity": 82, "duration": 72}, {"note": 63, "velocity": 84, "duration": 309}, {"note": 0, "velocity": 0, "duration": 171}, {"note": 58, "velocity": 82, "duration": 82}, {"note": 61, "velocity": 84, "duration": 165}, {"note": 0, "velocity": 0, "duration": 75}, {"note": 61, "velocity": 80, "duration": 76}, {"note": 61, "velocity": 83, "duration": 187}, {"note": 63, "velocity": 83, "duration": 240}, {"note": 63, "velocity": 82, "duration": 600}, {"note": 61, "velocity": 76, "duration": 90}, {"note": 56, "velocity": 78, "duration": 85}, {"note": 65, "velocity": 82, "duration": 161}, {"note": 0, "velocity": 0, "duration": 79}, {"note": 65, "velocity": 83, "duration": 169}, {"note": 0, "velocity": 0, "duration": 71}, {"note": 65, "velocity": 93, "duration": 173}, {"note": 0, "velocity": 0, "duration": 67}, {"note": 65, "velocity": 83, "duration": 78}, {"note": 65, "velocity": 86, "duration": 171}, {"note": 0, "velocity": 0, "duration": 69}, {"note": 68, "velocity": 84, "duration": 263}, {"note": 0, "velocity": 0, "duration": 97}, {"note": 68, "velocity": 84, "duration": 178}, {"note": 0, "velocity": 0, "duration": 62}, {"note": 66, "velocity": 82, "duration": 76}, {"note": 66, "velocity": 83, "duration": 328}, {"note": 0, "velocity": 0, "duration": 272}, {"note": 63, "velocity": 84, "duration": 149}, {"note": 0, "velocity": 0, "duration": 91}, {"note": 63, "velocity": 82, "duration": 70}, {"note": 63, "velocity": 83, "duration": 166}, {"note": 0, "velocity": 0, "duration": 74}, {"note": 66, "velocity": 84, "duration": 174}, {"note": 0, "velocity": 0, "duration": 186}, {"note": 66, "velocity": 84, "duration": 240}, {"note": 65, "velocity": 86, "duration": 67}, {"note": 65, "velocity": 84, "duration": 384}, {"note": 0, "velocity": 0, "duration": 216}, {"note": 61, "velocity": 85, "duration": 170}, {"note": 0, "velocity": 0, "duration": 70}, {"note": 61, "velocity": 82, "duration": 82}, {"note": 61, "velocity": 83, "duration": 171}, {"note": 0, "velocity": 0, "duration": 69}, {"note": 65, "velocity": 83, "duration": 292}, {"note": 0, "velocity": 0, "duration": 68}, {"note": 65, "velocity": 86, "duration": 178}, {"note": 0, "velocity": 0, "duration": 62}, {"note": 63, "velocity": 82, "duration": 72}, {"note": 63, "velocity": 84, "duration": 309}, {"note": 0, "velocity": 0, "duration": 171}, {"note": 58, "velocity": 82, "duration": 82}, {"note": 61, "velocity": 84, "duration": 165}, {"note": 0, "velocity": 0, "duration": 75}, {"note": 61, "velocity": 80, "duration": 76}, {"note": 65, "velocity": 83, "duration": 187}, {"note": 63, "velocity": 83, "duration": 240}, {"note": 61, "velocity": 82, "duration": 600}, {"note": 0, "velocity": 0, "duration": 120}, {"note": 70, "velocity": 82, "duration": 61}, {"note": 70, "velocity": 83, "duration": 112}, {"note": 69, "velocity": 82, "duration": 85}, {"note": 70, "velocity": 79, "duration": 65}, {"note": 70, "velocity": 80, "duration": 68}, {"note": 70, "velocity": 82, "duration": 87}, {"note": 68, "velocity": 81, "duration": 71}, {"note": 70, "velocity": 83, "duration": 77}, {"note": 70, "velocity": 80, "duration": 65}, {"note": 70, "velocity": 83, "duration": 90}, {"note": 68, "velocity": 82, "duration": 70}, {"note": 70, "velocity": 82, "duration": 176}, {"note": 0, "velocity": 0, "duration": 64}, {"note": 68, "velocity": 81, "duration": 94}, {"note": 73, "velocity": 83, "duration": 181}, {"note": 70, "velocity": 85, "duration": 254}, {"note": 0, "velocity": 0, "duration": 226}, {"note": 70, "velocity": 84, "duration": 65}, {"note": 70, "velocity": 79, "duration": 87}, {"note": 68, "velocity": 71, "duration": 71}, {"note": 70, "velocity": 82, "duration": 70}, {"note": 70, "velocity": 78, "duration": 65}, {"note": 70, "velocity": 80, "duration": 79}, {"note": 68, "velocity": 80, "duration": 64}, {"note": 70, "velocity": 83, "duration": 67}, {"note": 70, "velocity": 78, "duration": 93}, {"note": 68, "velocity": 78, "duration": 80}, {"note": 65, "velocity": 86, "duration": 113}, {"note": 0, "velocity": 0, "duration": 127}, {"note": 70, "velocity": 82, "duration": 67}, {"note": 70, "velocity": 81, "duration": 84}, {"note": 68, "velocity": 81, "duration": 77}, {"note": 70, "velocity": 86, "duration": 74}, {"note": 70, "velocity": 82, "duration": 185}, {"note": 70, "velocity": 85, "duration": 67}, {"note": 70, "velocity": 82, "duration": 72}, {"note": 70, "velocity": 81, "duration": 73}, {"note": 70, "velocity": 82, "duration": 84}, {"note": 68, "velocity": 78, "duration": 76}, {"note": 70, "velocity": 84, "duration": 120}, {"note": 0, "velocity": 0, "duration": 120}, {"note": 68, "velocity": 83, "duration": 82}, {"note": 73, "velocity": 88, "duration": 194}, {"note": 70, "velocity": 83, "duration": 231}, {"note": 68, "velocity": 75, "duration": 80}, {"note": 68, "velocity": 79, "duration": 88}, {"note": 70, "velocity": 82, "duration": 76}, {"note": 73, "velocity": 81, "duration": 82}, {"note": 75, "velocity": 83, "duration": 79}, {"note": 77, "velocity": 84, "duration": 285}, {"note": 0, "velocity": 0, "duration": 75}, {"note": 75, "velocity": 84, "duration": 203}, {"note": 73, "velocity": 79, "duration": 79}, {"note": 70, "velocity": 80, "duration": 240}, {"note": 0, "velocity": 0, "duration": 120}, {"note": 70, "velocity": 81, "duration": 64}, {"note": 70, "velocity": 83, "duration": 93}, {"note": 68, "velocity": 77, "duration": 76}, {"note": 70, "velocity": 84, "duration": 79}, {"note": 68, "velocity": 82, "duration": 76}, {"note": 70, "velocity": 80, "duration": 113}, {"note": 0, "velocity": 0, "duration": 127}, {"note": 70, "velocity": 83, "duration": 91}, {"note": 68, "velocity": 82, "duration": 76}, {"note": 70, "velocity": 84, "duration": 129}, {"note": 0, "velocity": 0, "duration": 111}, {"note": 70, "velocity": 83, "duration": 90}, {"note": 68, "velocity": 80, "duration": 70}, {"note": 70, "velocity": 82, "duration": 134}, {"note": 0, "velocity": 0, "duration": 106}, {"note": 70, "velocity": 77, "duration": 94}, {"note": 68, "velocity": 81, "duration": 62}, {"note": 70, "velocity": 83, "duration": 117}, {"note": 0, "velocity": 0, "duration": 123}, {"note": 70, "velocity": 85, "duration": 77}, {"note": 68, "velocity": 78, "duration": 59}, {"note": 0, "velocity": 0, "duration": 61}, {"note": 70, "velocity": 85, "duration": 109}, {"note": 0, "velocity": 0, "duration": 131}, {"note": 70, "velocity": 82, "duration": 75}, {"note": 68, "velocity": 83, "duration": 70}, {"note": 70, "velocity": 81, "duration": 91}, {"note": 0, "velocity": 0, "duration": 149}, {"note": 70, "velocity": 84, "duration": 70}, {"note": 68, "velocity": 81, "duration": 68}, {"note": 70, "velocity": 84, "duration": 110}, {"note": 68, "velocity": 78, "duration": 67}, {"note": 70, "velocity": 83, "duration": 64}, {"note": 68, "velocity": 78, "duration": 58}, {"note": 0, "velocity": 0, "duration": 62}, {"note": 70, "velocity": 83, "duration": 63}, {"note": 70, "velocity": 82, "duration": 70}, {"note": 73, "velocity": 87, "duration": 155}, {"note": 0, "velocity": 0, "duration": 85}, {"note": 70, "velocity": 86, "duration": 120}, {"note": 73, "velocity": 73, "duration": 188}, {"note": 0, "velocity": 0, "duration": 172}, {"note": 75, "velocity": 82, "duration": 65}, {"note": 75, "velocity": 93, "duration": 360}, {"note": 73, "velocity": 83, "duration": 67}, {"note": 73, "velocity": 83, "duration": 291}, {"note": 75, "velocity": 89, "duration": 239}, {"note": 0, "velocity": 0, "duration": 121}, {"note": 77, "velocity": 86, "duration": 1224}, {"note": 0, "velocity": 0, "duration": 696}, {"note": 77, "velocity": 76, "duration": 141}, {"note": 0, "velocity": 0, "duration": 99}, {"note": 77, "velocity": 84, "duration": 76}, {"note": 77, "velocity": 87, "duration": 174}, {"note": 0, "velocity": 0, "duration": 66}, {"note": 78, "velocity": 85, "duration": 309}, {"note": 77, "velocity": 84, "duration": 175}, {"note": 0, "velocity": 0, "duration": 65}, {"note": 75, "velocity": 83, "duration": 63}, {"note": 75, "velocity": 93, "duration": 216}, {"note": 0, "velocity": 0, "duration": 144}, {"note": 72, "velocity": 87, "duration": 72}, {"note": 70, "velocity": 88, "duration": 62}, {"note": 68, "velocity": 84, "duration": 177}, {"note": 0, "velocity": 0, "duration": 63}, {"note": 68, "velocity": 82, "duration": 75}, {"note": 75, "velocity": 87, "duration": 331}, {"note": 77, "velocity": 84, "duration": 172}, {"note": 0, "velocity": 0, "duration": 68}, {"note": 75, "velocity": 93, "duration": 186}, {"note": 73, "velocity": 83, "duration": 64}, {"note": 73, "velocity": 83, "duration": 173}, {"note": 0, "velocity": 0, "duration": 427}, {"note": 70, "velocity": 85, "duration": 179}, {"note": 0, "velocity": 0, "duration": 61}, {"note": 72, "velocity": 84, "duration": 82}, {"note": 73, "velocity": 83, "duration": 331}, {"note": 0, "velocity": 0, "duration": 149}, {"note": 73, "velocity": 84, "duration": 63}, {"note": 73, "velocity": 85, "duration": 181}, {"note": 72, "velocity": 87, "duration": 191}, {"note": 70, "velocity": 84, "duration": 192}, {"note": 72, "velocity": 85, "duration": 171}, {"note": 0, "velocity": 0, "duration": 69}, {"note": 70, "velocity": 84, "duration": 428}, {"note": 68, "velocity": 83, "duration": 365}, {"note": 0, "velocity": 0, "duration": 115}, {"note": 78, "velocity": 74, "duration": 396}, {"note": 0, "velocity": 0, "duration": 84}, {"note": 77, "velocity": 89, "duration": 324}, {"note": 0, "velocity": 0, "duration": 156}, {"note": 77, "velocity": 88, "duration": 171}, {"note": 0, "velocity": 0, "duration": 69}, {"note": 77, "velocity": 86, "duration": 75}, {"note": 77, "velocity": 87, "duration": 175}, {"note": 0, "velocity": 0, "duration": 65}, {"note": 82, "velocity": 86, "duration": 285}, {"note": 0, "velocity": 0, "duration": 75}, {"note": 82, "velocity": 83, "duration": 187}, {"note": 80, "velocity": 82, "duration": 67}, {"note": 80, "velocity": 83, "duration": 319}, {"note": 72, "velocity": 83, "duration": 85}, {"note": 73, "velocity": 85, "duration": 53}, {"note": 0, "velocity": 0, "duration": 67}, {"note": 75, "velocity": 89, "duration": 157}, {"note": 0, "velocity": 0, "duration": 83}, {"note": 68, "velocity": 84, "duration": 65}, {"note": 68, "velocity": 85, "duration": 195}, {"note": 80, "velocity": 85, "duration": 299}, {"note": 0, "velocity": 0, "duration": 61}, {"note": 78, "velocity": 83, "duration": 506}, {"note": 0, "velocity": 0, "duration": 454}, {"note": 70, "velocity": 86, "duration": 196}, {"note": 72, "velocity": 84, "duration": 82}, {"note": 73, "velocity": 83, "duration": 367}, {"note": 0, "velocity": 0, "duration": 113}, {"note": 73, "velocity": 80, "duration": 81}, {"note": 77, "velocity": 88, "duration": 167}, {"note": 0, "velocity": 0, "duration": 73}, {"note": 75, "velocity": 87, "duration": 170}, {"note": 0, "velocity": 0, "duration": 70}, {"note": 70, "velocity": 84, "duration": 218}, {"note": 72, "velocity": 84, "duration": 196}, {"note": 73, "velocity": 83, "duration": 805}, {"note": 0, "velocity": 0, "duration": 15515}, {"note": 77, "velocity": 76, "duration": 141}, {"note": 0, "velocity": 0, "duration": 99}, {"note": 77, "velocity": 84, "duration": 76}, {"note": 77, "velocity": 87, "duration": 174}, {"note": 0, "velocity": 0, "duration": 66}, {"note": 78, "velocity": 85, "duration": 309}, {"note": 77, "velocity": 84, "duration": 175}, {"note": 0, "velocity": 0, "duration": 65}, {"note": 75, "velocity": 83, "duration": 63}, {"note": 75, "velocity": 93, "duration": 216}, {"note": 0, "velocity": 0, "duration": 144}, {"note": 72, "velocity": 87, "duration": 72}, {"note": 70, "velocity": 88, "duration": 62}, {"note": 68, "velocity": 84, "duration": 177}, {"note": 0, "velocity": 0, "duration": 63}, {"note": 68, "velocity": 82, "duration": 75}, {"note": 75, "velocity": 87, "duration": 331}, {"note": 77, "velocity": 84, "duration": 172}, {"note": 0, "velocity": 0, "duration": 68}, {"note": 75, "velocity": 93, "duration": 186}, {"note": 73, "velocity": 83, "duration": 64}, {"note": 73, "velocity": 83, "duration": 173}, {"note": 0, "velocity": 0, "duration": 427}, {"note": 70, "velocity": 85, "duration": 179}, {"note": 0, "velocity": 0, "duration": 61}, {"note": 72, "velocity": 84, "duration": 82}, {"note": 73, "velocity": 83, "duration": 331}, {"note": 0, "velocity": 0, "duration": 149}, {"note": 73, "velocity": 84, "duration": 63}, {"note": 73, "velocity": 85, "duration": 181}, {"note": 72, "velocity": 87, "duration": 191}, {"note": 70, "velocity": 84, "duration": 192}, {"note": 72, "velocity": 85, "duration": 171}, {"note": 0, "velocity": 0, "duration": 69}, {"note": 70, "velocity": 84, "duration": 428}, {"note": 68, "velocity": 83, "duration": 365}, {"note": 0, "velocity": 0, "duration": 115}, {"note": 78, "velocity": 74, "duration": 396}, {"note": 0, "velocity": 0, "duration": 84}, {"note": 77, "velocity": 89, "duration": 324}, {"note": 0, "velocity": 0, "duration": 156}, {"note": 77, "velocity": 88, "duration": 171}, {"note": 0, "velocity": 0, "duration": 69}, {"note": 77, "velocity": 86, "duration": 75}, {"note": 77, "velocity": 87, "duration": 175}, {"note": 0, "velocity": 0, "duration": 65}, {"note": 82, "velocity": 86, "duration": 285}, {"note": 0, "velocity": 0, "duration": 75}, {"note": 82, "velocity": 83, "duration": 187}, {"note": 80, "velocity": 82, "duration": 67}, {"note": 80, "velocity": 83, "duration": 319}, {"note": 72, "velocity": 83, "duration": 85}, {"note": 73, "velocity": 85, "duration": 53}, {"note": 0, "velocity": 0, "duration": 67}, {"note": 75, "velocity": 89, "duration": 157}, {"note": 0, "velocity": 0, "duration": 83}, {"note": 68, "velocity": 84, "duration": 65}, {"note": 68, "velocity": 85, "duration": 195}, {"note": 80, "velocity": 85, "duration": 299}, {"note": 0, "velocity": 0, "duration": 61}, {"note": 78, "velocity": 83, "duration": 506}, {"note": 0, "velocity": 0, "duration": 454}, {"note": 70, "velocity": 86, "duration": 196}, {"note": 72, "velocity": 84, "duration": 82}, {"note": 73, "velocity": 83, "duration": 367}, {"note": 0, "velocity": 0, "duration": 113}, {"note": 73, "velocity": 80, "duration": 81}, {"note": 77, "velocity": 88, "duration": 167}, {"note": 0, "velocity": 0, "duration": 73}, {"note": 75, "velocity": 87, "duration": 170}, {"note": 0, "velocity": 0, "duration": 70}, {"note": 70, "velocity": 84, "duration": 218}, {"note": 72, "velocity": 84, "duration": 196}, {"note": 73, "velocity": 83, "duration": 805}]]