[[{"note": 75, "velocity": 90, "duration": 170}, {"note": 0, "velocity": 0, "duration": 70}, {"note": 75, "velocity": 88, "duration": 150}, {"note": 0, "velocity": 0, "duration": 90}, {"note": 75, "velocity": 90, "duration": 76}, {"note": 75, "velocity": 92, "duration": 218}, {"note": 70, "velocity": 87, "duration": 360}, {"note": 70, "velocity": 87, "duration": 240}, {"note": 68, "velocity": 92, "duration": 158}, {"note": 0, "velocity": 0, "duration": 82}, {"note": 70, "velocity": 90, "duration": 178}, {"note": 0, "velocity": 0, "duration": 62}, {"note": 72, "velocity": 87, "duration": 85}, {"note": 72, "velocity": 84, "duration": 742}, {"note": 0, "velocity": 0, "duration": 1058}, {"note": 75, "velocity": 92, "duration": 70}, {"note": 75, "velocity": 88, "duration": 67}, {"note": 75, "velocity": 97, "duration": 160}, {"note": 0, "velocity": 0, "duration": 80}, {"note": 75, "velocity": 89, "duration": 70}, {"note": 75, "velocity": 93, "duration": 213}, {"note": 80, "velocity": 82, "duration": 311}, {"note": 79, "velocity": 91, "duration": 224}, {"note": 75, "velocity": 88, "duration": 202}, {"note": 79, "velocity": 87, "duration": 279}, {"note": 0, "velocity": 0, "duration": 81}, {"note": 80, "velocity": 87, "duration": 771}, {"note": 0, "velocity": 0, "duration": 309}, {"note": 75, "velocity": 97, "duration": 193}, {"note": 80, "velocity": 92, "duration": 71}, {"note": 82, "velocity": 89, "duration": 76}, {"note": 84, "velocity": 88, "duration": 503}, {"note": 0, "velocity": 0, "duration": 337}, {"note": 82, "velocity": 93, "duration": 634}, {"note": 0, "velocity": 0, "duration": 326}, {"note": 75, "velocity": 91, "duration": 102}, {"note": 80, "velocity": 78, "duration": 186}, {"note": 79, "velocity": 91, "duration": 91}, {"note": 77, "velocity": 88, "duration": 178}, {"note": 0, "velocity": 0, "duration": 62}, {"note": 79, "velocity": 90, "duration": 180}, {"note": 80, "velocity": 88, "duration": 499}, {"note": 0, "velocity": 0, "duration": 581}, {"note": 75, "velocity": 95, "duration": 200}, {"note": 68, "velocity": 87, "duration": 71}, {"note": 68, "velocity": 88, "duration": 372}, {"note": 0, "velocity": 0, "duration": 108}, {"note": 77, "velocity": 93, "duration": 84}, {"note": 75, "velocity": 88, "duration": 165}, {"note": 0, "velocity": 0, "duration": 75}, {"note": 68, "velocity": 87, "duration": 69}, {"note": 68, "velocity": 87, "duration": 240}, {"note": 77, "velocity": 87, "duration": 152}, {"note": 0, "velocity": 0, "duration": 88}, {"note": 79, "velocity": 88, "duration": 835}, {"note": 0, "velocity": 0, "duration": 1445}, {"note": 75, "velocity": 90, "duration": 170}, {"note": 0, "velocity": 0, "duration": 70}, {"note": 75, "velocity": 88, "duration": 150}, {"note": 0, "velocity": 0, "duration": 90}, {"note": 75, "velocity": 90, "duration": 76}, {"note": 75, "velocity": 92, "duration": 218}, {"note": 70, "velocity": 87, "duration": 360}, {"note": 70, "velocity": 87, "duration": 240}, {"note": 68, "velocity": 92, "duration": 158}, {"note": 0, "velocity": 0, "duration": 82}, {"note": 70, "velocity": 90, "duration": 178}, {"note": 0, "velocity": 0, "duration": 62}, {"note": 72, "velocity": 87, "duration": 85}, {"note": 72, "velocity": 84, "duration": 742}, {"note": 0, "velocity": 0, "duration": 1058}, {"note": 75, "velocity": 92, "duration": 70}, {"note": 75, "velocity": 88, "duration": 67}, {"note": 75, "velocity": 97, "duration": 160}, {"note": 0, "velocity": 0, "duration": 80}, {"note": 75, "velocity": 89, "duration": 70}, {"note": 75, "velocity": 93, "duration": 213}, {"note": 80, "velocity": 82, "duration": 311}, {"note": 79, "velocity": 91, "duration": 224}, {"note": 75, "velocity": 88, "duration": 202}, {"note": 79, "velocity": 87, "duration": 279}, {"note": 0, "velocity": 0, "duration": 81}, {"note": 80, "velocity": 87, "duration": 771}, {"note": 0, "velocity": 0, "duration": 309}, {"note": 75, "velocity": 97, "duration": 193}, {"note": 80, "velocity": 92, "duration": 71}, {"note": 82, "velocity": 89, "duration": 76}, {"note": 84, "velocity": 88, "duration": 503}, {"note": 0, "velocity": 0, "duration": 337}, {"note": 82, "velocity": 93, "duration": 634}, {"note": 0, "velocity": 0, "duration": 326}, {"note": 75, "velocity": 91, "duration": 102}, {"note": 80, "velocity": 78, "duration": 186}, {"note": 79, "velocity": 91, "duration": 91}, {"note": 77, "velocity": 88, "duration": 178}, {"note": 0, "velocity": 0, "duration": 62}, {"note": 79, "velocity": 90, "duration": 180}, {"note": 80, "velocity": 88, "duration": 499}, {"note": 0, "velocity": 0, "duration": 581}, {"note": 75, "velocity": 95, "duration": 200}, {"note": 68, "velocity": 87, "duration": 71}, {"note": 68, "velocity": 88, "duration": 372}, {"note": 0, "velocity": 0, "duration": 108}, {"note": 77, "velocity": 93, "duration": 84}, {"note": 75, "velocity": 88, "duration": 165}, {"note": 0, "velocity": 0, "duration": 75}, {"note": 68, "velocity": 87, "duration": 69}, {"note": 68, "velocity": 87, "duration": 240}, {"note": 0, "velocity": 0, "duration": 360}, {"note": 79, "velocity": 93, "duration": 278}, {"note": 0, "velocity": 0, "duration": 82}, {"note": 79, "velocity": 93, "duration": 175}, {"note": 0, "velocity": 0, "duration": 65}, {"note": 80, "velocity": 88, "duration": 195}, {"note": 82, "velocity": 92, "duration": 1626}, {"note": 0, "velocity": 0, "duration": 894}, {"note": 72, "velocity": 97, "duration": 173}, {"note": 0, "velocity": 0, "duration": 67}, {"note": 77, "velocity": 93, "duration": 57}, {"note": 0, "velocity": 0, "duration": 63}, {"note": 79, "velocity": 87, "duration": 76}, {"note": 80, "velocity": 89, "duration": 671}, {"note": 82, "velocity": 97, "duration": 77}, {"note": 80, "velocity": 88, "duration": 451}, {"note": 0, "velocity": 0, "duration": 389}, {"note": 79, "velocity": 93, "duration": 73}, {"note": 77, "velocity": 90, "duration": 74}, {"note": 75, "velocity": 97, "duration": 176}, {"note": 0, "velocity": 0, "duration": 64}, {"note": 79, "velocity": 91, "duration": 73}, {"note": 82, "velocity": 90, "duration": 186}, {"note": 85, "velocity": 92, "duration": 162}, {"note": 0, "velocity": 0, "duration": 78}, {"note": 84, "velocity": 93, "duration": 516}, {"note": 0, "velocity": 0, "duration": 564}, {"note": 80, "velocity": 93, "duration": 196}, {"note": 82, "velocity": 87, "duration": 95}, {"note": 84, "velocity": 93, "duration": 155}, {"note": 0, "velocity": 0, "duration": 85}, {"note": 87, "velocity": 95, "duration": 289}, {"note": 0, "velocity": 0, "duration": 71}, {"note": 85, "velocity": 91, "duration": 188}, {"note": 84, "velocity": 91, "duration": 85}, {"note": 82, "velocity": 86, "duration": 207}, {"note": 80, "velocity": 93, "duration": 294}, {"note": 0, "velocity": 0, "duration": 66}, {"note": 82, "velocity": 92, "duration": 314}, {"note": 0, "velocity": 0, "duration": 166}, {"note": 77, "velocity": 90, "duration": 290}, {"note": 0, "velocity": 0, "duration": 70}, {"note": 79, "velocity": 92, "duration": 469}, {"note": 0, "velocity": 0, "duration": 131}, {"note": 72, "velocity": 97, "duration": 170}, {"note": 0, "velocity": 0, "duration": 70}, {"note": 77, "velocity": 100, "duration": 57}, {"note": 0, "velocity": 0, "duration": 63}, {"note": 79, "velocity": 91, "duration": 71}, {"note": 80, "velocity": 88, "duration": 480}, {"note": 80, "velocity": 89, "duration": 74}, {"note": 82, "velocity": 90, "duration": 240}, {"note": 0, "velocity": 0, "duration": 120}, {"note": 80, "velocity": 86, "duration": 375}, {"note": 0, "velocity": 0, "duration": 345}, {"note": 79, "velocity": 100, "duration": 53}, {"note": 0, "velocity": 0, "duration": 67}, {"note": 77, "velocity": 92, "duration": 48}, {"note": 0, "velocity": 0, "duration": 72}, {"note": 75, "velocity": 97, "duration": 173}, {"note": 0, "velocity": 0, "duration": 67}, {"note": 79, "velocity": 93, "duration": 65}, {"note": 82, "velocity": 92, "duration": 174}, {"note": 0, "velocity": 0, "duration": 66}, {"note": 85, "velocity": 93, "duration": 289}, {"note": 0, "velocity": 0, "duration": 71}, {"note": 84, "velocity": 97, "duration": 401}, {"note": 0, "velocity": 0, "duration": 559}, {"note": 80, "velocity": 91, "duration": 192}, {"note": 82, "velocity": 89, "duration": 83}, {"note": 84, "velocity": 93, "duration": 184}, {"note": 87, "velocity": 93, "duration": 287}, {"note": 0, "velocity": 0, "duration": 73}, {"note": 85, "velocity": 92, "duration": 165}, {"note": 0, "velocity": 0, "duration": 75}, {"note": 84, "velocity": 90, "duration": 72}, {"note": 82, "velocity": 87, "duration": 161}, {"note": 0, "velocity": 0, "duration": 79}, {"note": 80, "velocity": 92, "duration": 275}, {"note": 0, "velocity": 0, "duration": 85}, {"note": 82, "velocity": 92, "duration": 680}, {"note": 0, "velocity": 0, "duration": 280}, {"note": 82, "velocity": 95, "duration": 183}, {"note": 84, "velocity": 92, "duration": 84}, {"note": 82, "velocity": 90, "duration": 167}, {"note": 0, "velocity": 0, "duration": 73}, {"note": 79, "velocity": 97, "duration": 172}, {"note": 0, "velocity": 0, "duration": 68}, {"note": 80, "velocity": 89, "duration": 600}, {"note": 0, "velocity": 0, "duration": 120}, {"note": 82, "velocity": 87, "duration": 89}, {"note": 84, "velocity": 97, "duration": 174}, {"note": 0, "velocity": 0, "duration": 66}, {"note": 82, "velocity": 92, "duration": 613}, {"note": 0, "velocity": 0, "duration": 107}, {"note": 80, "velocity": 89, "duration": 85}, {"note": 79, "velocity": 97, "duration": 62}, {"note": 80, "velocity": 86, "duration": 572}, {"note": 87, "velocity": 91, "duration": 352}, {"note": 82, "velocity": 82, "duration": 540}, {"note": 0, "velocity": 0, "duration": 180}, {"note": 82, "velocity": 92, "duration": 67}, {"note": 82, "velocity": 89, "duration": 73}, {"note": 82, "velocity": 92, "duration": 305}, {"note": 79, "velocity": 93, "duration": 298}, {"note": 0, "velocity": 0, "duration": 62}, {"note": 77, "velocity": 90, "duration": 1172}, {"note": 0, "velocity": 0, "duration": 10944}, {"note": 75, "velocity": 90, "duration": 170}, {"note": 0, "velocity": 0, "duration": 70}, {"note": 75, "velocity": 88, "duration": 150}, {"note": 0, "velocity": 0, "duration": 90}, {"note": 75, "velocity": 90, "duration": 76}, {"note": 75, "velocity": 92, "duration": 218}, {"note": 70, "velocity": 87, "duration": 360}, {"note": 70, "velocity": 87, "duration": 240}, {"note": 68, "velocity": 92, "duration": 158}, {"note": 0, "velocity": 0, "duration": 82}, {"note": 70, "velocity": 90, "duration": 178}, {"note": 0, "velocity": 0, "duration": 62}, {"note": 72, "velocity": 87, "duration": 85}, {"note": 72, "velocity": 84, "duration": 742}, {"note": 0, "velocity": 0, "duration": 1058}, {"note": 75, "velocity": 92, "duration": 70}, {"note": 75, "velocity": 88, "duration": 67}, {"note": 75, "velocity": 97, "duration": 160}, {"note": 0, "velocity": 0, "duration": 80}, {"note": 75, "velocity": 89, "duration": 70}, {"note": 75, "velocity": 93, "duration": 213}, {"note": 80, "velocity": 82, "duration": 311}, {"note": 79, "velocity": 91, "duration": 224}, {"note": 75, "velocity": 88, "duration": 202}, {"note": 79, "velocity": 87, "duration": 279}, {"note": 0, "velocity": 0, "duration": 81}, {"note": 80, "velocity": 87, "duration": 771}, {"note": 0, "velocity": 0, "duration": 309}, {"note": 75, "velocity": 97, "duration": 193}, {"note": 80, "velocity": 92, "duration": 71}, {"note": 82, "velocity": 89, "duration": 76}, {"note": 84, "velocity": 88, "duration": 503}, {"note": 0, "velocity": 0, "duration": 337}, {"note": 82, "velocity": 93, "duration": 634}, {"note": 0, "velocity": 0, "duration": 326}, {"note": 75, "velocity": 91, "duration": 102}, {"note": 80, "velocity": 78, "duration": 186}, {"note": 79, "velocity": 91, "duration": 91}, {"note": 77, "velocity": 88, "duration": 178}, {"note": 0, "velocity": 0, "duration": 62}, {"note": 79, "velocity": 90, "duration": 180}, {"note": 80, "velocity": 88, "duration": 499}, {"note": 0, "velocity": 0, "duration": 581}, {"note": 75, "velocity": 95, "duration": 200}, {"note": 68, "velocity": 87, "duration": 71}, {"note": 68, "velocity": 88, "duration": 372}, {"note": 0, "velocity": 0, "duration": 108}, {"note": 77, "velocity": 93, "duration": 84}, {"note": 75, "velocity": 88, "duration": 165}, {"note": 0, "velocity": 0, "duration": 75}, {"note": 68, "velocity": 87, "duration": 69}, {"note": 68, "velocity": 87, "duration": 240}, {"note": 0, "velocity": 0, "duration": 360}, {"note": 79, "velocity": 93, "duration": 278}, {"note": 0, "velocity": 0, "duration": 82}, {"note": 79, "velocity": 93, "duration": 175}, {"note": 0, "velocity": 0, "duration": 65}, {"note": 80, "velocity": 88, "duration": 195}, {"note": 82, "velocity": 92, "duration": 1626}, {"note": 0, "velocity": 0, "duration": 894}, {"note": 72, "velocity": 97, "duration": 173}, {"note": 0, "velocity": 0, "duration": 67}, {"note": 77, "velocity": 93, "duration": 57}, {"note": 0, "velocity": 0, "duration": 63}, {"note": 79, "velocity": 87, "duration": 76}, {"note": 80, "velocity": 89, "duration": 671}, {"note": 82, "velocity": 97, "duration": 77}, {"note": 80, "velocity": 88, "duration": 451}, {"note": 0, "velocity": 0, "duration": 389}, {"note": 79, "velocity": 93, "duration": 73}, {"note": 77, "velocity": 90, "duration": 74}, {"note": 75, "velocity": 97, "duration": 176}, {"note": 0, "velocity": 0, "duration": 64}, {"note": 79, "velocity": 91, "duration": 73}, {"note": 82, "velocity": 90, "duration": 186}, {"note": 85, "velocity": 92, "duration": 162}, {"note": 0, "velocity": 0, "duration": 78}, {"note": 84, "velocity": 93, "duration": 516}, {"note": 0, "velocity": 0, "duration": 564}, {"note": 80, "velocity": 93, "duration": 196}, {"note": 82, "velocity": 87, "duration": 95}, {"note": 84, "velocity": 93, "duration": 155}, {"note": 0, "velocity": 0, "duration": 85}, {"note": 87, "velocity": 95, "duration": 289}, {"note": 0, "velocity": 0, "duration": 71}, {"note": 85, "velocity": 91, "duration": 188}, {"note": 84, "velocity": 91, "duration": 85}, {"note": 82, "velocity": 86, "duration": 207}, {"note": 80, "velocity": 93, "duration": 294}, {"note": 0, "velocity": 0, "duration": 66}, {"note": 82, "velocity": 92, "duration": 314}, {"note": 0, "velocity": 0, "duration": 166}, {"note": 77, "velocity": 90, "duration": 290}, {"note": 0, "velocity": 0, "duration": 70}, {"note": 79, "velocity": 92, "duration": 469}, {"note": 0, "velocity": 0, "duration": 131}, {"note": 72, "velocity": 97, "duration": 170}, {"note": 0, "velocity": 0, "duration": 70}, {"note": 77, "velocity": 100, "duration": 57}, {"note": 0, "velocity": 0, "duration": 63}, {"note": 79, "velocity": 91, "duration": 71}, {"note": 80, "velocity": 88, "duration": 480}, {"note": 80, "velocity": 89, "duration": 74}, {"note": 82, "velocity": 90, "duration": 240}, {"note": 0, "velocity": 0, "duration": 120}, {"note": 80, "velocity": 86, "duration": 375}, {"note": 0, "velocity": 0, "duration": 345}, {"note": 79, "velocity": 100, "duration": 53}, {"note": 0, "velocity": 0, "duration": 67}, {"note": 77, "velocity": 92, "duration": 48}, {"note": 0, "velocity": 0, "duration": 72}, {"note": 75, "velocity": 97, "duration": 173}, {"note": 0, "velocity": 0, "duration": 67}, {"note": 79, "velocity": 93, "duration": 65}, {"note": 82, "velocity": 92, "duration": 174}, {"note": 0, "velocity": 0, "duration": 66}, {"note": 85, "velocity": 93, "duration": 289}, {"note": 0, "velocity": 0, "duration": 71}, {"note": 84, "velocity": 97, "duration": 401}, {"note": 0, "velocity": 0, "duration": 559}, {"note": 80, "velocity": 91, "duration": 192}, {"note": 82, "velocity": 89, "duration": 83}, {"note": 84, "velocity": 93, "duration": 184}, {"note": 87, "velocity": 93, "duration": 287}, {"note": 0, "velocity": 0, "duration": 73}, {"note": 85, "velocity": 92, "duration": 165}, {"note": 0, "velocity": 0, "duration": 75}, {"note": 84, "velocity": 90, "duration": 72}, {"note": 82, "velocity": 87, "duration": 161}, {"note": 0, "velocity": 0, "duration": 79}, {"note": 80, "velocity": 92, "duration": 275}, {"note": 0, "velocity": 0, "duration": 85}, {"note": 82, "velocity": 92, "duration": 680}, {"note": 0, "velocity": 0, "duration": 280}, {"note": 82, "velocity": 95, "duration": 183}, {"note": 84, "velocity": 92, "duration": 84}, {"note": 82, "velocity": 90, "duration": 167}, {"note": 0, "velocity": 0, "duration": 73}, {"note": 79, "velocity": 97, "duration": 172}, {"note": 0, "velocity": 0, "duration": 68}, {"note": 80, "velocity": 89, "duration": 600}, {"note": 0, "velocity": 0, "duration": 120}, {"note": 82, "velocity": 87, "duration": 89}, {"note": 84, "velocity": 97, "duration": 174}, {"note": 0, "velocity": 0, "duration": 66}, {"note": 82, "velocity": 92, "duration": 613}, {"note": 0, "velocity": 0, "duration": 107}, {"note": 80, "velocity": 89, "duration": 85}, {"note": 79, "velocity": 97, "duration": 62}, {"note": 80, "velocity": 86, "duration": 572}, {"note": 87, "velocity": 91, "duration": 352}, {"note": 82, "velocity": 82, "duration": 540}, {"note": 0, "velocity": 0, "duration": 180}, {"note": 82, "velocity": 92, "duration": 67}, {"note": 82, "velocity": 89, "duration": 73}, {"note": 82, "velocity": 92, "duration": 305}, {"note": 85, "velocity": 93, "duration": 298}, {"note": 0, "velocity": 0, "duration": 62}, {"note": 84, "velocity": 90, "duration": 1145}, {"note": 82, "velocity": 95, "duration": 67}, {"note": 84, "velocity": 95, "duration": 65}, {"note": 85, "velocity": 91, "duration": 188}, {"note": 85, "velocity": 90, "duration": 57}, {"note": 0, "velocity": 0, "duration": 63}, {"note": 85, "velocity": 92, "duration": 60}, {"note": 85, "velocity": 100, "duration": 185}, {"note": 84, "velocity": 93, "duration": 72}, {"note": 82, "velocity": 93, "duration": 323}, {"note": 80, "velocity": 88, "duration": 358}, {"note": 0, "velocity": 0, "duration": 122}, {"note": 80, "velocity": 97, "duration": 70}, {"note": 82, "velocity": 92, "duration": 71}, {"note": 83, "velocity": 102, "duration": 185}, {"note": 83, "velocity": 93, "duration": 64}, {"note": 83, "velocity": 95, "duration": 56}, {"note": 0, "velocity": 0, "duration": 64}, {"note": 83, "velocity": 103, "duration": 203}, {"note": 82, "velocity": 97, "duration": 62}, {"note": 80, "velocity": 91, "duration": 207}, {"note": 0, "velocity": 0, "duration": 153}, {"note": 78, "velocity": 77, "duration": 330}, {"note": 0, "velocity": 0, "duration": 150}, {"note": 78, "velocity": 93, "duration": 65}, {"note": 80, "velocity": 92, "duration": 82}, {"note": 81, "velocity": 95, "duration": 205}, {"note": 81, "velocity": 93, "duration": 68}, {"note": 81, "velocity": 90, "duration": 59}, {"note": 0, "velocity": 0, "duration": 61}, {"note": 81, "velocity": 93, "duration": 184}, {"note": 80, "velocity": 93, "duration": 64}, {"note": 78, "velocity": 93, "duration": 68}, {"note": 76, "velocity": 93, "duration": 315}, {"note": 81, "velocity": 93, "duration": 281}, {"note": 0, "velocity": 0, "duration": 79}, {"note": 81, "velocity": 86, "duration": 159}, {"note": 0, "velocity": 0, "duration": 81}, {"note": 83, "velocity": 93, "duration": 659}, {"note": 0, "velocity": 0, "duration": 61}, {"note": 80, "velocity": 95, "duration": 226}, {"note": 85, "velocity": 90, "duration": 852}, {"note": 0, "velocity": 0, "duration": 108}, {"note": 87, "velocity": 91, "duration": 1037}, {"note": 0, "velocity": 0, "duration": 403}, {"note": 72, "velocity": 97, "duration": 173}, {"note": 0, "velocity": 0, "duration": 67}, {"note": 77, "velocity": 93, "duration": 57}, {"note": 0, "velocity": 0, "duration": 63}, {"note": 79, "velocity": 87, "duration": 76}, {"note": 80, "velocity": 89, "duration": 671}, {"note": 82, "velocity": 97, "duration": 77}, {"note": 80, "velocity": 88, "duration": 451}, {"note": 0, "velocity": 0, "duration": 389}, {"note": 79, "velocity": 93, "duration": 73}, {"note": 77, "velocity": 90, "duration": 74}, {"note": 75, "velocity": 97, "duration": 176}, {"note": 0, "velocity": 0, "duration": 64}, {"note": 79, "velocity": 91, "duration": 73}, {"note": 82, "velocity": 90, "duration": 186}, {"note": 85, "velocity": 92, "duration": 162}, {"note": 0, "velocity": 0, "duration": 78}, {"note": 84, "velocity": 93, "duration": 516}, {"note": 0, "velocity": 0, "duration": 564}, {"note": 80, "velocity": 93, "duration": 196}, {"note": 82, "velocity": 87, "duration": 95}, {"note": 84, "velocity": 93, "duration": 155}, {"note": 0, "velocity": 0, "duration": 85}, {"note": 87, "velocity": 95, "duration": 289}, {"note": 0, "velocity": 0, "duration": 71}, {"note": 85, "velocity": 91, "duration": 188}, {"note": 84, "velocity": 91, "duration": 85}, {"note": 82, "velocity": 86, "duration": 207}, {"note": 80, "velocity": 93, "duration": 294}, {"note": 0, "velocity": 0, "duration": 66}, {"note": 82, "velocity": 92, "duration": 314}, {"note": 0, "velocity": 0, "duration": 166}, {"note": 77, "velocity": 90, "duration": 290}, {"note": 0, "velocity": 0, "duration": 70}, {"note": 79, "velocity": 92, "duration": 469}, {"note": 0, "velocity": 0, "duration": 131}, {"note": 72, "velocity": 97, "duration": 170}, {"note": 0, "velocity": 0, "duration": 70}, {"note": 77, "velocity": 100, "duration": 57}, {"note": 0, "velocity": 0, "duration": 63}, {"note": 79, "velocity": 91, "duration": 71}, {"note": 80, "velocity": 88, "duration": 480}, {"note": 80, "velocity": 89, "duration": 74}, {"note": 82, "velocity": 90, "duration": 240}, {"note": 0, "velocity": 0, "duration": 120}, {"note": 80, "velocity": 86, "duration": 375}, {"note": 0, "velocity": 0, "duration": 345}, {"note": 79, "velocity": 100, "duration": 53}, {"note": 0, "velocity": 0, "duration": 67}, {"note": 77, "velocity": 92, "duration": 48}, {"note": 0, "velocity": 0, "duration": 72}, {"note": 75, "velocity": 97, "duration": 173}, {"note": 0, "velocity": 0, "duration": 67}, {"note": 79, "velocity": 93, "duration": 65}, {"note": 82, "velocity": 92, "duration": 174}, {"note": 0, "velocity": 0, "duration": 66}, {"note": 85, "velocity": 93, "duration": 289}, {"note": 0, "velocity": 0, "duration": 71}, {"note": 84, "velocity": 97, "duration": 401}, {"note": 0, "velocity": 0, "duration": 559}, {"note": 80, "velocity": 91, "duration": 192}, {"note": 82, "velocity": 89, "duration": 83}, {"note": 84, "velocity": 93, "duration": 184}, {"note": 87, "velocity": 93, "duration": 287}, {"note": 0, "velocity": 0, "duration": 73}, {"note": 85, "velocity": 92, "duration": 165}, {"note": 0, "velocity": 0, "duration": 75}, {"note": 84, "velocity": 90, "duration": 72}, {"note": 82, "velocity": 87, "duration": 161}, {"note": 0, "velocity": 0, "duration": 79}, {"note": 80, "velocity": 92, "duration": 275}, {"note": 0, "velocity": 0, "duration": 85}, {"note": 82, "velocity": 92, "duration": 680}, {"note": 0, "velocity": 0, "duration": 280}, {"note": 82, "velocity": 95, "duration": 183}, {"note": 84, "velocity": 92, "duration": 84}, {"note": 82, "velocity": 90, "duration": 167}, {"note": 0, "velocity": 0, "duration": 73}, {"note": 79, "velocity": 97, "duration": 172}, {"note": 0, "velocity": 0, "duration": 68}, {"note": 80, "velocity": 89, "duration": 600}, {"note": 0, "velocity": 0, "duration": 120}, {"note": 82, "velocity": 87, "duration": 89}, {"note": 84, "velocity": 97, "duration": 174}, {"note": 0, "velocity": 0, "duration": 66}, {"note": 82, "velocity": 92, "duration": 613}, {"note": 0, "velocity": 0, "duration": 107}, {"note": 80, "velocity": 89, "duration": 85}, {"note": 79, "velocity": 97, "duration": 62}, {"note": 80, "velocity": 86, "duration": 572}, {"note": 87, "velocity": 91, "duration": 352}, {"note": 82, "velocity": 82, "duration": 540}, {"note": 0, "velocity": 0, "duration": 180}, {"note": 82, "velocity": 92, "duration": 67}, {"note": 82, "velocity": 89, "duration": 73}, {"note": 82, "velocity": 92, "duration": 305}, {"note": 79, "velocity": 93, "duration": 298}, {"note": 0, "velocity": 0, "duration": 62}, {"note": 77, "velocity": 90, "duration": 1172}]]