[[{"note": 67, "velocity": 90, "duration": 210}, {"note": 74, "velocity": 105, "duration": 1107}, {"note": 0, "velocity": 0, "duration": 333}, {"note": 74, "velocity": 99, "duration": 177}, {"note": 0, "velocity": 0, "duration": 63}, {"note": 72, "velocity": 90, "duration": 184}, {"note": 70, "velocity": 97, "duration": 180}, {"note": 74, "velocity": 104, "duration": 166}, {"note": 0, "velocity": 0, "duration": 74}, {"note": 72, "velocity": 92, "duration": 160}, {"note": 0, "velocity": 0, "duration": 80}, {"note": 72, "velocity": 94, "duration": 190}, {"note": 70, "velocity": 92, "duration": 70}, {"note": 72, "velocity": 89, "duration": 677}, {"note": 0, "velocity": 0, "duration": 163}, {"note": 67, "velocity": 94, "duration": 200}, {"note": 72, "velocity": 95, "duration": 1052}, {"note": 0, "velocity": 0, "duration": 148}, {"note": 75, "velocity": 93, "duration": 173}, {"note": 0, "velocity": 0, "duration": 67}, {"note": 74, "velocity": 105, "duration": 193}, {"note": 72, "velocity": 89, "duration": 185}, {"note": 72, "velocity": 92, "duration": 191}, {"note": 70, "velocity": 93, "duration": 156}, {"note": 0, "velocity": 0, "duration": 84}, {"note": 70, "velocity": 95, "duration": 179}, {"note": 0, "velocity": 0, "duration": 61}, {"note": 72, "velocity": 90, "duration": 60}, {"note": 74, "velocity": 91, "duration": 478}, {"note": 0, "velocity": 0, "duration": 122}, {"note": 67, "velocity": 90, "duration": 212}, {"note": 74, "velocity": 104, "duration": 803}, {"note": 0, "velocity": 0, "duration": 619}, {"note": 79, "velocity": 94, "duration": 152}, {"note": 0, "velocity": 0, "duration": 99}, {"note": 74, "velocity": 105, "duration": 165}, {"note": 0, "velocity": 0, "duration": 61}, {"note": 72, "velocity": 90, "duration": 95}, {"note": 70, "velocity": 95, "duration": 55}, {"note": 0, "velocity": 0, "duration": 82}, {"note": 74, "velocity": 105, "duration": 161}, {"note": 0, "velocity": 0, "duration": 64}, {"note": 72, "velocity": 90, "duration": 141}, {"note": 0, "velocity": 0, "duration": 119}, {"note": 72, "velocity": 92, "duration": 196}, {"note": 70, "velocity": 94, "duration": 140}, {"note": 0, "velocity": 0, "duration": 100}, {"note": 72, "velocity": 95, "duration": 472}, {"note": 0, "velocity": 0, "duration": 248}, {"note": 67, "velocity": 92, "duration": 162}, {"note": 0, "velocity": 0, "duration": 78}, {"note": 72, "velocity": 90, "duration": 1075}, {"note": 0, "velocity": 0, "duration": 125}, {"note": 75, "velocity": 94, "duration": 199}, {"note": 74, "velocity": 95, "duration": 184}, {"note": 0, "velocity": 0, "duration": 176}, {"note": 69, "velocity": 92, "duration": 120}, {"note": 69, "velocity": 90, "duration": 213}, {"note": 70, "velocity": 89, "duration": 117}, {"note": 67, "velocity": 90, "duration": 864}, {"note": 0, "velocity": 0, "duration": 216}, {"note": 74, "velocity": 105, "duration": 200}, {"note": 82, "velocity": 94, "duration": 204}, {"note": 81, "velocity": 91, "duration": 181}, {"note": 79, "velocity": 99, "duration": 196}, {"note": 81, "velocity": 92, "duration": 156}, {"note": 0, "velocity": 0, "duration": 84}, {"note": 79, "velocity": 99, "duration": 168}, {"note": 0, "velocity": 0, "duration": 72}, {"note": 81, "velocity": 93, "duration": 166}, {"note": 0, "velocity": 0, "duration": 74}, {"note": 82, "velocity": 95, "duration": 168}, {"note": 0, "velocity": 0, "duration": 72}, {"note": 82, "velocity": 89, "duration": 171}, {"note": 0, "velocity": 0, "duration": 69}, {"note": 74, "velocity": 95, "duration": 158}, {"note": 0, "velocity": 0, "duration": 82}, {"note": 75, "velocity": 90, "duration": 179}, {"note": 0, "velocity": 0, "duration": 61}, {"note": 77, "velocity": 89, "duration": 82}, {"note": 75, "velocity": 99, "duration": 924}, {"note": 0, "velocity": 0, "duration": 516}, {"note": 81, "velocity": 90, "duration": 92}, {"note": 79, "velocity": 92, "duration": 193}, {"note": 77, "velocity": 92, "duration": 186}, {"note": 79, "velocity": 95, "duration": 177}, {"note": 0, "velocity": 0, "duration": 63}, {"note": 77, "velocity": 89, "duration": 162}, {"note": 0, "velocity": 0, "duration": 78}, {"note": 79, "velocity": 91, "duration": 183}, {"note": 77, "velocity": 91, "duration": 167}, {"note": 0, "velocity": 0, "duration": 73}, {"note": 79, "velocity": 90, "duration": 345}, {"note": 0, "velocity": 0, "duration": 135}, {"note": 75, "velocity": 94, "duration": 263}, {"note": 0, "velocity": 0, "duration": 97}, {"note": 74, "velocity": 99, "duration": 1086}, {"note": 0, "velocity": 0, "duration": 354}, {"note": 74, "velocity": 95, "duration": 63}, {"note": 74, "velocity": 104, "duration": 176}, {"note": 0, "velocity": 0, "duration": 64}, {"note": 72, "velocity": 90, "duration": 181}, {"note": 72, "velocity": 92, "duration": 178}, {"note": 0, "velocity": 0, "duration": 62}, {"note": 71, "velocity": 92, "duration": 67}, {"note": 74, "velocity": 102, "duration": 287}, {"note": 0, "velocity": 0, "duration": 73}, {"note": 72, "velocity": 89, "duration": 486}, {"note": 0, "velocity": 0, "duration": 114}, {"note": 79, "velocity": 90, "duration": 72}, {"note": 81, "velocity": 95, "duration": 186}, {"note": 81, "velocity": 88, "duration": 156}, {"note": 0, "velocity": 0, "duration": 84}, {"note": 81, "velocity": 90, "duration": 187}, {"note": 79, "velocity": 92, "duration": 185}, {"note": 79, "velocity": 93, "duration": 530}, {"note": 0, "velocity": 0, "duration": 190}, {"note": 79, "velocity": 92, "duration": 79}, {"note": 78, "velocity": 93, "duration": 59}, {"note": 0, "velocity": 0, "duration": 61}, {"note": 79, "velocity": 88, "duration": 172}, {"note": 0, "velocity": 0, "duration": 68}, {"note": 78, "velocity": 90, "duration": 178}, {"note": 0, "velocity": 0, "duration": 62}, {"note": 79, "velocity": 90, "duration": 159}, {"note": 0, "velocity": 0, "duration": 81}, {"note": 78, "velocity": 94, "duration": 174}, {"note": 0, "velocity": 0, "duration": 66}, {"note": 79, "velocity": 90, "duration": 162}, {"note": 0, "velocity": 0, "duration": 78}, {"note": 78, "velocity": 94, "duration": 168}, {"note": 0, "velocity": 0, "duration": 72}, {"note": 79, "velocity": 95, "duration": 176}, {"note": 0, "velocity": 0, "duration": 64}, {"note": 81, "velocity": 90, "duration": 1224}, {"note": 0, "velocity": 0, "duration": 456}, {"note": 74, "velocity": 105, "duration": 200}, {"note": 82, "velocity": 94, "duration": 204}, {"note": 81, "velocity": 91, "duration": 181}, {"note": 79, "velocity": 99, "duration": 196}, {"note": 81, "velocity": 92, "duration": 156}, {"note": 0, "velocity": 0, "duration": 84}, {"note": 79, "velocity": 99, "duration": 168}, {"note": 0, "velocity": 0, "duration": 72}, {"note": 81, "velocity": 93, "duration": 166}, {"note": 0, "velocity": 0, "duration": 74}, {"note": 82, "velocity": 95, "duration": 168}, {"note": 0, "velocity": 0, "duration": 72}, {"note": 82, "velocity": 89, "duration": 171}, {"note": 0, "velocity": 0, "duration": 69}, {"note": 74, "velocity": 95, "duration": 158}, {"note": 0, "velocity": 0, "duration": 82}, {"note": 75, "velocity": 90, "duration": 179}, {"note": 77, "velocity": 89, "duration": 82}, {"note": 75, "velocity": 99, "duration": 924}, {"note": 0, "velocity": 0, "duration": 516}, {"note": 81, "velocity": 90, "duration": 92}, {"note": 79, "velocity": 92, "duration": 193}, {"note": 77, "velocity": 92, "duration": 186}, {"note": 79, "velocity": 95, "duration": 177}, {"note": 0, "velocity": 0, "duration": 63}, {"note": 77, "velocity": 89, "duration": 162}, {"note": 0, "velocity": 0, "duration": 78}, {"note": 79, "velocity": 91, "duration": 183}, {"note": 81, "velocity": 91, "duration": 167}, {"note": 0, "velocity": 0, "duration": 73}, {"note": 84, "velocity": 90, "duration": 345}, {"note": 72, "velocity": 91, "duration": 193}, {"note": 75, "velocity": 92, "duration": 200}, {"note": 77, "velocity": 90, "duration": 221}, {"note": 74, "velocity": 90, "duration": 766}, {"note": 0, "velocity": 0, "duration": 554}, {"note": 74, "velocity": 95, "duration": 63}, {"note": 74, "velocity": 104, "duration": 176}, {"note": 0, "velocity": 0, "duration": 64}, {"note": 72, "velocity": 90, "duration": 181}, {"note": 72, "velocity": 92, "duration": 178}, {"note": 0, "velocity": 0, "duration": 62}, {"note": 71, "velocity": 92, "duration": 67}, {"note": 74, "velocity": 102, "duration": 287}, {"note": 0, "velocity": 0, "duration": 73}, {"note": 72, "velocity": 89, "duration": 486}, {"note": 0, "velocity": 0, "duration": 114}, {"note": 79, "velocity": 90, "duration": 72}, {"note": 81, "velocity": 95, "duration": 186}, {"note": 81, "velocity": 88, "duration": 156}, {"note": 0, "velocity": 0, "duration": 84}, {"note": 81, "velocity": 90, "duration": 187}, {"note": 79, "velocity": 92, "duration": 185}, {"note": 79, "velocity": 93, "duration": 530}, {"note": 0, "velocity": 0, "duration": 310}, {"note": 72, "velocity": 87, "duration": 92}, {"note": 74, "velocity": 92, "duration": 182}, {"note": 72, "velocity": 89, "duration": 180}, {"note": 72, "velocity": 92, "duration": 180}, {"note": 70, "velocity": 95, "duration": 170}, {"note": 0, "velocity": 0, "duration": 70}, {"note": 70, "velocity": 93, "duration": 200}, {"note": 69, "velocity": 90, "duration": 120}, {"note": 69, "velocity": 90, "duration": 332}, {"note": 74, "velocity": 99, "duration": 443}, {"note": 67, "velocity": 92, "duration": 1177}, {"note": 0, "velocity": 0, "duration": 5783}, {"note": 67, "velocity": 90, "duration": 210}, {"note": 74, "velocity": 105, "duration": 1107}, {"note": 0, "velocity": 0, "duration": 333}, {"note": 74, "velocity": 99, "duration": 177}, {"note": 0, "velocity": 0, "duration": 63}, {"note": 72, "velocity": 90, "duration": 184}, {"note": 70, "velocity": 97, "duration": 180}, {"note": 74, "velocity": 104, "duration": 166}, {"note": 0, "velocity": 0, "duration": 74}, {"note": 72, "velocity": 92, "duration": 160}, {"note": 0, "velocity": 0, "duration": 80}, {"note": 72, "velocity": 94, "duration": 190}, {"note": 70, "velocity": 92, "duration": 70}, {"note": 72, "velocity": 89, "duration": 677}, {"note": 0, "velocity": 0, "duration": 163}, {"note": 67, "velocity": 94, "duration": 200}, {"note": 72, "velocity": 95, "duration": 1052}, {"note": 0, "velocity": 0, "duration": 148}, {"note": 75, "velocity": 93, "duration": 173}, {"note": 0, "velocity": 0, "duration": 67}, {"note": 74, "velocity": 105, "duration": 193}, {"note": 72, "velocity": 89, "duration": 185}, {"note": 72, "velocity": 92, "duration": 191}, {"note": 70, "velocity": 93, "duration": 156}, {"note": 0, "velocity": 0, "duration": 84}, {"note": 70, "velocity": 95, "duration": 179}, {"note": 0, "velocity": 0, "duration": 61}, {"note": 72, "velocity": 90, "duration": 60}, {"note": 74, "velocity": 91, "duration": 478}, {"note": 0, "velocity": 0, "duration": 122}, {"note": 67, "velocity": 90, "duration": 212}, {"note": 74, "velocity": 104, "duration": 803}, {"note": 0, "velocity": 0, "duration": 619}, {"note": 79, "velocity": 94, "duration": 152}, {"note": 0, "velocity": 0, "duration": 99}, {"note": 74, "velocity": 105, "duration": 165}, {"note": 0, "velocity": 0, "duration": 61}, {"note": 72, "velocity": 90, "duration": 95}, {"note": 70, "velocity": 95, "duration": 55}, {"note": 0, "velocity": 0, "duration": 82}, {"note": 74, "velocity": 105, "duration": 161}, {"note": 0, "velocity": 0, "duration": 64}, {"note": 72, "velocity": 90, "duration": 141}, {"note": 0, "velocity": 0, "duration": 119}, {"note": 72, "velocity": 92, "duration": 196}, {"note": 70, "velocity": 94, "duration": 140}, {"note": 0, "velocity": 0, "duration": 100}, {"note": 72, "velocity": 95, "duration": 472}, {"note": 0, "velocity": 0, "duration": 248}, {"note": 67, "velocity": 92, "duration": 162}, {"note": 0, "velocity": 0, "duration": 1278}, {"note": 75, "velocity": 94, "duration": 199}, {"note": 74, "velocity": 95, "duration": 184}, {"note": 0, "velocity": 0, "duration": 176}, {"note": 69, "velocity": 92, "duration": 120}, {"note": 69, "velocity": 90, "duration": 213}, {"note": 70, "velocity": 89, "duration": 117}, {"note": 67, "velocity": 90, "duration": 463}, {"note": 0, "velocity": 0, "duration": 617}, {"note": 74, "velocity": 105, "duration": 200}, {"note": 82, "velocity": 94, "duration": 204}, {"note": 81, "velocity": 91, "duration": 181}, {"note": 79, "velocity": 99, "duration": 196}, {"note": 81, "velocity": 92, "duration": 156}, {"note": 0, "velocity": 0, "duration": 84}, {"note": 79, "velocity": 99, "duration": 168}, {"note": 0, "velocity": 0, "duration": 72}, {"note": 81, "velocity": 93, "duration": 166}, {"note": 0, "velocity": 0, "duration": 74}, {"note": 82, "velocity": 95, "duration": 168}, {"note": 0, "velocity": 0, "duration": 72}, {"note": 82, "velocity": 89, "duration": 171}, {"note": 0, "velocity": 0, "duration": 69}, {"note": 74, "velocity": 95, "duration": 158}, {"note": 0, "velocity": 0, "duration": 82}, {"note": 75, "velocity": 90, "duration": 179}, {"note": 0, "velocity": 0, "duration": 61}, {"note": 77, "velocity": 89, "duration": 82}, {"note": 75, "velocity": 99, "duration": 924}, {"note": 0, "velocity": 0, "duration": 516}, {"note": 81, "velocity": 90, "duration": 92}, {"note": 79, "velocity": 92, "duration": 193}, {"note": 77, "velocity": 92, "duration": 186}, {"note": 79, "velocity": 95, "duration": 177}, {"note": 0, "velocity": 0, "duration": 63}, {"note": 77, "velocity": 89, "duration": 162}, {"note": 79, "velocity": 91, "duration": 215}, {"note": 77, "velocity": 91, "duration": 167}, {"note": 0, "velocity": 0, "duration": 73}, {"note": 79, "velocity": 90, "duration": 345}, {"note": 0, "velocity": 0, "duration": 135}, {"note": 75, "velocity": 94, "duration": 263}, {"note": 0, "velocity": 0, "duration": 97}, {"note": 74, "velocity": 99, "duration": 1086}, {"note": 0, "velocity": 0, "duration": 354}, {"note": 74, "velocity": 95, "duration": 63}, {"note": 74, "velocity": 104, "duration": 176}, {"note": 0, "velocity": 0, "duration": 64}, {"note": 72, "velocity": 90, "duration": 181}, {"note": 72, "velocity": 92, "duration": 178}, {"note": 0, "velocity": 0, "duration": 62}, {"note": 71, "velocity": 92, "duration": 67}, {"note": 74, "velocity": 102, "duration": 287}, {"note": 0, "velocity": 0, "duration": 73}, {"note": 72, "velocity": 89, "duration": 486}, {"note": 0, "velocity": 0, "duration": 114}, {"note": 79, "velocity": 90, "duration": 72}, {"note": 81, "velocity": 95, "duration": 186}, {"note": 81, "velocity": 88, "duration": 156}, {"note": 0, "velocity": 0, "duration": 84}, {"note": 81, "velocity": 90, "duration": 187}, {"note": 79, "velocity": 92, "duration": 185}, {"note": 79, "velocity": 93, "duration": 530}, {"note": 0, "velocity": 0, "duration": 190}, {"note": 79, "velocity": 92, "duration": 79}, {"note": 78, "velocity": 93, "duration": 59}, {"note": 0, "velocity": 0, "duration": 61}, {"note": 79, "velocity": 88, "duration": 172}, {"note": 0, "velocity": 0, "duration": 68}, {"note": 78, "velocity": 90, "duration": 178}, {"note": 0, "velocity": 0, "duration": 62}, {"note": 79, "velocity": 90, "duration": 159}, {"note": 0, "velocity": 0, "duration": 81}, {"note": 78, "velocity": 94, "duration": 174}, {"note": 0, "velocity": 0, "duration": 66}, {"note": 79, "velocity": 90, "duration": 162}, {"note": 0, "velocity": 0, "duration": 78}, {"note": 78, "velocity": 94, "duration": 168}, {"note": 0, "velocity": 0, "duration": 72}, {"note": 79, "velocity": 95, "duration": 176}, {"note": 0, "velocity": 0, "duration": 64}, {"note": 81, "velocity": 90, "duration": 1224}, {"note": 0, "velocity": 0, "duration": 456}, {"note": 74, "velocity": 105, "duration": 200}, {"note": 82, "velocity": 94, "duration": 204}, {"note": 81, "velocity": 91, "duration": 181}, {"note": 79, "velocity": 99, "duration": 196}, {"note": 81, "velocity": 92, "duration": 172}, {"note": 79, "velocity": 99, "duration": 192}, {"note": 0, "velocity": 0, "duration": 312}, {"note": 82, "velocity": 95, "duration": 168}, {"note": 0, "velocity": 0, "duration": 72}, {"note": 82, "velocity": 89, "duration": 171}, {"note": 0, "velocity": 0, "duration": 69}, {"note": 74, "velocity": 95, "duration": 158}, {"note": 0, "velocity": 0, "duration": 82}, {"note": 75, "velocity": 90, "duration": 179}, {"note": 0, "velocity": 0, "duration": 61}, {"note": 77, "velocity": 89, "duration": 82}, {"note": 75, "velocity": 99, "duration": 924}, {"note": 0, "velocity": 0, "duration": 516}, {"note": 81, "velocity": 90, "duration": 92}, {"note": 79, "velocity": 92, "duration": 193}, {"note": 77, "velocity": 92, "duration": 186}, {"note": 79, "velocity": 95, "duration": 177}, {"note": 0, "velocity": 0, "duration": 63}, {"note": 77, "velocity": 89, "duration": 162}, {"note": 0, "velocity": 0, "duration": 78}, {"note": 79, "velocity": 91, "duration": 183}, {"note": 81, "velocity": 91, "duration": 167}, {"note": 0, "velocity": 0, "duration": 73}, {"note": 84, "velocity": 90, "duration": 345}, {"note": 72, "velocity": 91, "duration": 193}, {"note": 75, "velocity": 92, "duration": 200}, {"note": 77, "velocity": 90, "duration": 221}, {"note": 74, "velocity": 90, "duration": 766}, {"note": 0, "velocity": 0, "duration": 554}, {"note": 74, "velocity": 95, "duration": 63}, {"note": 74, "velocity": 104, "duration": 176}, {"note": 0, "velocity": 0, "duration": 64}, {"note": 72, "velocity": 90, "duration": 181}, {"note": 72, "velocity": 92, "duration": 178}, {"note": 0, "velocity": 0, "duration": 62}, {"note": 71, "velocity": 92, "duration": 67}, {"note": 74, "velocity": 102, "duration": 287}, {"note": 0, "velocity": 0, "duration": 73}, {"note": 72, "velocity": 89, "duration": 486}, {"note": 0, "velocity": 0, "duration": 114}, {"note": 79, "velocity": 90, "duration": 72}, {"note": 81, "velocity": 95, "duration": 186}, {"note": 81, "velocity": 88, "duration": 156}, {"note": 0, "velocity": 0, "duration": 84}, {"note": 81, "velocity": 90, "duration": 187}, {"note": 79, "velocity": 92, "duration": 185}, {"note": 79, "velocity": 93, "duration": 530}, {"note": 0, "velocity": 0, "duration": 310}, {"note": 72, "velocity": 87, "duration": 92}, {"note": 74, "velocity": 92, "duration": 182}, {"note": 72, "velocity": 89, "duration": 180}, {"note": 72, "velocity": 92, "duration": 180}, {"note": 70, "velocity": 95, "duration": 170}, {"note": 0, "velocity": 0, "duration": 70}, {"note": 70, "velocity": 93, "duration": 200}, {"note": 69, "velocity": 90, "duration": 120}, {"note": 69, "velocity": 90, "duration": 332}, {"note": 74, "velocity": 99, "duration": 443}, {"note": 67, "velocity": 92, "duration": 1177}, {"note": 0, "velocity": 0, "duration": 13943}, {"note": 74, "velocity": 105, "duration": 200}, {"note": 82, "velocity": 94, "duration": 204}, {"note": 81, "velocity": 91, "duration": 181}, {"note": 79, "velocity": 99, "duration": 196}, {"note": 81, "velocity": 92, "duration": 156}, {"note": 0, "velocity": 0, "duration": 84}, {"note": 79, "velocity": 99, "duration": 168}, {"note": 0, "velocity": 0, "duration": 72}, {"note": 81, "velocity": 93, "duration": 166}, {"note": 0, "velocity": 0, "duration": 74}, {"note": 82, "velocity": 95, "duration": 168}, {"note": 0, "velocity": 0, "duration": 72}, {"note": 82, "velocity": 89, "duration": 171}, {"note": 0, "velocity": 0, "duration": 69}, {"note": 74, "velocity": 95, "duration": 158}, {"note": 0, "velocity": 0, "duration": 82}, {"note": 75, "velocity": 90, "duration": 179}, {"note": 0, "velocity": 0, "duration": 61}, {"note": 77, "velocity": 89, "duration": 82}, {"note": 75, "velocity": 99, "duration": 924}, {"note": 0, "velocity": 0, "duration": 516}, {"note": 81, "velocity": 90, "duration": 92}, {"note": 79, "velocity": 92, "duration": 193}, {"note": 77, "velocity": 92, "duration": 186}, {"note": 79, "velocity": 95, "duration": 177}, {"note": 0, "velocity": 0, "duration": 63}, {"note": 77, "velocity": 89, "duration": 162}, {"note": 0, "velocity": 0, "duration": 78}, {"note": 79, "velocity": 91, "duration": 183}, {"note": 77, "velocity": 91, "duration": 167}, {"note": 0, "velocity": 0, "duration": 73}, {"note": 79, "velocity": 90, "duration": 345}, {"note": 0, "velocity": 0, "duration": 135}, {"note": 75, "velocity": 94, "duration": 263}, {"note": 0, "velocity": 0, "duration": 97}, {"note": 74, "velocity": 99, "duration": 1086}, {"note": 0, "velocity": 0, "duration": 354}, {"note": 74, "velocity": 95, "duration": 63}, {"note": 74, "velocity": 104, "duration": 176}, {"note": 0, "velocity": 0, "duration": 64}, {"note": 72, "velocity": 90, "duration": 181}, {"note": 72, "velocity": 92, "duration": 178}, {"note": 0, "velocity": 0, "duration": 62}, {"note": 71, "velocity": 92, "duration": 67}, {"note": 74, "velocity": 102, "duration": 287}, {"note": 0, "velocity": 0, "duration": 73}, {"note": 72, "velocity": 89, "duration": 486}, {"note": 0, "velocity": 0, "duration": 114}, {"note": 79, "velocity": 90, "duration": 72}, {"note": 81, "velocity": 95, "duration": 186}, {"note": 81, "velocity": 88, "duration": 156}, {"note": 0, "velocity": 0, "duration": 84}, {"note": 81, "velocity": 90, "duration": 187}, {"note": 79, "velocity": 92, "duration": 185}, {"note": 79, "velocity": 93, "duration": 530}, {"note": 0, "velocity": 0, "duration": 190}, {"note": 79, "velocity": 92, "duration": 79}, {"note": 78, "velocity": 93, "duration": 59}, {"note": 0, "velocity": 0, "duration": 61}, {"note": 79, "velocity": 88, "duration": 172}, {"note": 0, "velocity": 0, "duration": 68}, {"note": 78, "velocity": 90, "duration": 178}, {"note": 0, "velocity": 0, "duration": 62}, {"note": 79, "velocity": 90, "duration": 159}, {"note": 0, "velocity": 0, "duration": 81}, {"note": 78, "velocity": 94, "duration": 174}, {"note": 0, "velocity": 0, "duration": 66}, {"note": 79, "velocity": 90, "duration": 162}, {"note": 0, "velocity": 0, "duration": 78}, {"note": 78, "velocity": 94, "duration": 168}, {"note": 0, "velocity": 0, "duration": 72}, {"note": 79, "velocity": 95, "duration": 176}, {"note": 0, "velocity": 0, "duration": 64}, {"note": 81, "velocity": 90, "duration": 1224}, {"note": 0, "velocity": 0, "duration": 456}, {"note": 74, "velocity": 105, "duration": 200}, {"note": 82, "velocity": 94, "duration": 204}, {"note": 81, "velocity": 91, "duration": 181}, {"note": 79, "velocity": 99, "duration": 196}, {"note": 81, "velocity": 92, "duration": 156}, {"note": 0, "velocity": 0, "duration": 84}, {"note": 79, "velocity": 99, "duration": 168}, {"note": 0, "velocity": 0, "duration": 72}, {"note": 81, "velocity": 93, "duration": 166}, {"note": 0, "velocity": 0, "duration": 74}, {"note": 82, "velocity": 95, "duration": 168}, {"note": 0, "velocity": 0, "duration": 72}, {"note": 82, "velocity": 89, "duration": 171}, {"note": 0, "velocity": 0, "duration": 69}, {"note": 74, "velocity": 95, "duration": 158}, {"note": 0, "velocity": 0, "duration": 82}, {"note": 75, "velocity": 90, "duration": 179}, {"note": 0, "velocity": 0, "duration": 61}, {"note": 77, "velocity": 89, "duration": 82}, {"note": 75, "velocity": 99, "duration": 924}, {"note": 0, "velocity": 0, "duration": 516}, {"note": 81, "velocity": 90, "duration": 92}, {"note": 79, "velocity": 92, "duration": 193}, {"note": 77, "velocity": 92, "duration": 186}, {"note": 79, "velocity": 95, "duration": 177}, {"note": 0, "velocity": 0, "duration": 63}, {"note": 77, "velocity": 89, "duration": 162}, {"note": 0, "velocity": 0, "duration": 78}, {"note": 79, "velocity": 91, "duration": 183}, {"note": 81, "velocity": 91, "duration": 167}, {"note": 0, "velocity": 0, "duration": 73}, {"note": 84, "velocity": 90, "duration": 345}, {"note": 72, "velocity": 91, "duration": 193}, {"note": 75, "velocity": 92, "duration": 200}, {"note": 77, "velocity": 90, "duration": 221}, {"note": 74, "velocity": 90, "duration": 766}, {"note": 0, "velocity": 0, "duration": 554}, {"note": 74, "velocity": 95, "duration": 63}, {"note": 74, "velocity": 104, "duration": 176}, {"note": 0, "velocity": 0, "duration": 64}, {"note": 72, "velocity": 90, "duration": 181}, {"note": 72, "velocity": 92, "duration": 178}, {"note": 0, "velocity": 0, "duration": 62}, {"note": 71, "velocity": 92, "duration": 67}, {"note": 74, "velocity": 102, "duration": 287}, {"note": 0, "velocity": 0, "duration": 73}, {"note": 72, "velocity": 89, "duration": 486}, {"note": 0, "velocity": 0, "duration": 114}, {"note": 79, "velocity": 90, "duration": 72}, {"note": 81, "velocity": 95, "duration": 186}, {"note": 81, "velocity": 88, "duration": 156}, {"note": 0, "velocity": 0, "duration": 84}, {"note": 81, "velocity": 90, "duration": 187}, {"note": 79, "velocity": 92, "duration": 185}, {"note": 79, "velocity": 93, "duration": 530}, {"note": 0, "velocity": 0, "duration": 310}, {"note": 72, "velocity": 87, "duration": 92}, {"note": 74, "velocity": 92, "duration": 182}, {"note": 72, "velocity": 89, "duration": 180}, {"note": 72, "velocity": 92, "duration": 180}, {"note": 70, "velocity": 95, "duration": 170}, {"note": 0, "velocity": 0, "duration": 70}, {"note": 70, "velocity": 93, "duration": 200}, {"note": 69, "velocity": 90, "duration": 120}, {"note": 69, "velocity": 90, "duration": 332}, {"note": 74, "velocity": 99, "duration": 443}, {"note": 67, "velocity": 92, "duration": 1177}, {"note": 0, "velocity": 0, "duration": 251}, {"note": 79, "velocity": 92, "duration": 108}, {"note": 77, "velocity": 92, "duration": 64}, {"note": 0, "velocity": 0, "duration": 63}, {"note": 79, "velocity": 95, "duration": 214}, {"note": 0, "velocity": 0, "duration": 66}, {"note": 74, "velocity": 97, "duration": 157}, {"note": 0, "velocity": 0, "duration": 73}, {"note": 72, "velocity": 95, "duration": 190}, {"note": 0, "velocity": 0, "duration": 67}, {"note": 70, "velocity": 92, "duration": 190}, {"note": 70, "velocity": 90, "duration": 273}, {"note": 69, "velocity": 89, "duration": 120}, {"note": 0, "velocity": 0, "duration": 65}, {"note": 69, "velocity": 91, "duration": 1508}, {"note": 0, "velocity": 0, "duration": 207}, {"note": 74, "velocity": 93, "duration": 757}, {"note": 67, "velocity": 86, "duration": 1414}]]