[[{"note": 73, "velocity": 90, "duration": 78}, {"note": 73, "velocity": 89, "duration": 60}, {"note": 73, "velocity": 93, "duration": 169}, {"note": 0, "velocity": 0, "duration": 71}, {"note": 73, "velocity": 93, "duration": 77}, {"note": 72, "velocity": 94, "duration": 174}, {"note": 0, "velocity": 0, "duration": 66}, {"note": 73, "velocity": 91, "duration": 197}, {"note": 75, "velocity": 91, "duration": 198}, {"note": 72, "velocity": 89, "duration": 197}, {"note": 72, "velocity": 91, "duration": 205}, {"note": 73, "velocity": 89, "duration": 1092}, {"note": 0, "velocity": 0, "duration": 948}, {"note": 73, "velocity": 89, "duration": 65}, {"note": 73, "velocity": 89, "duration": 66}, {"note": 73, "velocity": 94, "duration": 395}, {"note": 0, "velocity": 0, "duration": 85}, {"note": 72, "velocity": 91, "duration": 217}, {"note": 73, "velocity": 92, "duration": 90}, {"note": 75, "velocity": 93, "duration": 276}, {"note": 72, "velocity": 92, "duration": 169}, {"note": 0, "velocity": 0, "duration": 71}, {"note": 73, "velocity": 93, "duration": 994}, {"note": 0, "velocity": 0, "duration": 806}, {"note": 73, "velocity": 96, "duration": 180}, {"note": 82, "velocity": 89, "duration": 615}, {"note": 0, "velocity": 0, "duration": 105}, {"note": 80, "velocity": 93, "duration": 535}, {"note": 0, "velocity": 0, "duration": 185}, {"note": 77, "velocity": 93, "duration": 177}, {"note": 0, "velocity": 0, "duration": 63}, {"note": 77, "velocity": 89, "duration": 94}, {"note": 75, "velocity": 91, "duration": 197}, {"note": 77, "velocity": 98, "duration": 584}, {"note": 75, "velocity": 93, "duration": 65}, {"note": 77, "velocity": 94, "duration": 511}, {"note": 0, "velocity": 0, "duration": 329}, {"note": 80, "velocity": 93, "duration": 85}, {"note": 82, "velocity": 89, "duration": 111}, {"note": 75, "velocity": 92, "duration": 705}, {"note": 0, "velocity": 0, "duration": 135}, {"note": 75, "velocity": 94, "duration": 53}, {"note": 0, "velocity": 0, "duration": 67}, {"note": 75, "velocity": 91, "duration": 99}, {"note": 73, "velocity": 87, "duration": 192}, {"note": 73, "velocity": 87, "duration": 64}, {"note": 73, "velocity": 89, "duration": 177}, {"note": 0, "velocity": 0, "duration": 63}, {"note": 73, "velocity": 83, "duration": 161}, {"note": 0, "velocity": 0, "duration": 79}, {"note": 70, "velocity": 89, "duration": 225}, {"note": 68, "velocity": 87, "duration": 994}, {"note": 0, "velocity": 0, "duration": 926}, {"note": 73, "velocity": 90, "duration": 78}, {"note": 73, "velocity": 89, "duration": 60}, {"note": 73, "velocity": 93, "duration": 169}, {"note": 0, "velocity": 0, "duration": 71}, {"note": 73, "velocity": 93, "duration": 77}, {"note": 72, "velocity": 94, "duration": 174}, {"note": 0, "velocity": 0, "duration": 66}, {"note": 73, "velocity": 91, "duration": 197}, {"note": 75, "velocity": 91, "duration": 198}, {"note": 72, "velocity": 89, "duration": 197}, {"note": 73, "velocity": 91, "duration": 1318}, {"note": 0, "velocity": 0, "duration": 962}, {"note": 73, "velocity": 89, "duration": 65}, {"note": 73, "velocity": 89, "duration": 66}, {"note": 73, "velocity": 94, "duration": 395}, {"note": 0, "velocity": 0, "duration": 85}, {"note": 72, "velocity": 91, "duration": 217}, {"note": 73, "velocity": 92, "duration": 90}, {"note": 75, "velocity": 93, "duration": 276}, {"note": 72, "velocity": 92, "duration": 169}, {"note": 0, "velocity": 0, "duration": 71}, {"note": 73, "velocity": 93, "duration": 994}, {"note": 0, "velocity": 0, "duration": 806}, {"note": 73, "velocity": 96, "duration": 180}, {"note": 82, "velocity": 89, "duration": 478}, {"note": 0, "velocity": 0, "duration": 122}, {"note": 80, "velocity": 95, "duration": 646}, {"note": 0, "velocity": 0, "duration": 194}, {"note": 77, "velocity": 93, "duration": 177}, {"note": 0, "velocity": 0, "duration": 63}, {"note": 77, "velocity": 89, "duration": 94}, {"note": 75, "velocity": 91, "duration": 122}, {"note": 77, "velocity": 98, "duration": 699}, {"note": 80, "velocity": 93, "duration": 65}, {"note": 0, "velocity": 0, "duration": 178}, {"note": 77, "velocity": 94, "duration": 388}, {"note": 0, "velocity": 0, "duration": 329}, {"note": 73, "velocity": 93, "duration": 85}, {"note": 75, "velocity": 89, "duration": 111}, {"note": 75, "velocity": 92, "duration": 705}, {"note": 0, "velocity": 0, "duration": 255}, {"note": 75, "velocity": 94, "duration": 176}, {"note": 0, "velocity": 0, "duration": 64}, {"note": 73, "velocity": 91, "duration": 181}, {"note": 75, "velocity": 94, "duration": 84}, {"note": 75, "velocity": 101, "duration": 186}, {"note": 0, "velocity": 0, "duration": 174}, {"note": 75, "velocity": 94, "duration": 996}, {"note": 0, "velocity": 0, "duration": 444}, {"note": 85, "velocity": 98, "duration": 191}, {"note": 84, "velocity": 98, "duration": 174}, {"note": 0, "velocity": 0, "duration": 66}, {"note": 82, "velocity": 98, "duration": 308}, {"note": 80, "velocity": 91, "duration": 94}, {"note": 77, "velocity": 98, "duration": 116}, {"note": 80, "velocity": 91, "duration": 209}, {"note": 77, "velocity": 101, "duration": 485}, {"note": 0, "velocity": 0, "duration": 115}, {"note": 77, "velocity": 98, "duration": 168}, {"note": 0, "velocity": 0, "duration": 72}, {"note": 80, "velocity": 94, "duration": 177}, {"note": 0, "velocity": 0, "duration": 63}, {"note": 82, "velocity": 93, "duration": 173}, {"note": 0, "velocity": 0, "duration": 67}, {"note": 82, "velocity": 94, "duration": 186}, {"note": 80, "velocity": 91, "duration": 118}, {"note": 78, "velocity": 87, "duration": 123}, {"note": 80, "velocity": 88, "duration": 91}, {"note": 77, "velocity": 92, "duration": 489}, {"note": 0, "velocity": 0, "duration": 351}, {"note": 75, "velocity": 94, "duration": 81}, {"note": 73, "velocity": 89, "duration": 79}, {"note": 75, "velocity": 94, "duration": 608}, {"note": 0, "velocity": 0, "duration": 352}, {"note": 80, "velocity": 93, "duration": 171}, {"note": 0, "velocity": 0, "duration": 69}, {"note": 82, "velocity": 89, "duration": 170}, {"note": 0, "velocity": 0, "duration": 70}, {"note": 80, "velocity": 94, "duration": 170}, {"note": 0, "velocity": 0, "duration": 70}, {"note": 75, "velocity": 90, "duration": 79}, {"note": 77, "velocity": 88, "duration": 1104}, {"note": 0, "velocity": 0, "duration": 456}, {"note": 85, "velocity": 93, "duration": 176}, {"note": 0, "velocity": 0, "duration": 64}, {"note": 84, "velocity": 93, "duration": 161}, {"note": 0, "velocity": 0, "duration": 79}, {"note": 82, "velocity": 94, "duration": 287}, {"note": 0, "velocity": 0, "duration": 73}, {"note": 80, "velocity": 85, "duration": 109}, {"note": 77, "velocity": 94, "duration": 88}, {"note": 80, "velocity": 89, "duration": 187}, {"note": 77, "velocity": 101, "duration": 477}, {"note": 0, "velocity": 0, "duration": 123}, {"note": 77, "velocity": 98, "duration": 171}, {"note": 0, "velocity": 0, "duration": 69}, {"note": 80, "velocity": 92, "duration": 174}, {"note": 0, "velocity": 0, "duration": 66}, {"note": 82, "velocity": 89, "duration": 161}, {"note": 0, "velocity": 0, "duration": 79}, {"note": 82, "velocity": 90, "duration": 182}, {"note": 80, "velocity": 93, "duration": 97}, {"note": 78, "velocity": 86, "duration": 82}, {"note": 80, "velocity": 89, "duration": 101}, {"note": 77, "velocity": 94, "duration": 446}, {"note": 0, "velocity": 0, "duration": 394}, {"note": 75, "velocity": 92, "duration": 96}, {"note": 73, "velocity": 93, "duration": 65}, {"note": 75, "velocity": 103, "duration": 737}, {"note": 0, "velocity": 0, "duration": 223}, {"note": 77, "velocity": 91, "duration": 153}, {"note": 0, "velocity": 0, "duration": 87}, {"note": 77, "velocity": 98, "duration": 195}, {"note": 75, "velocity": 93, "duration": 187}, {"note": 75, "velocity": 94, "duration": 116}, {"note": 73, "velocity": 90, "duration": 1188}, {"note": 0, "velocity": 0, "duration": 16452}, {"note": 73, "velocity": 90, "duration": 78}, {"note": 73, "velocity": 89, "duration": 60}, {"note": 73, "velocity": 93, "duration": 169}, {"note": 0, "velocity": 0, "duration": 71}, {"note": 73, "velocity": 93, "duration": 77}, {"note": 72, "velocity": 94, "duration": 174}, {"note": 0, "velocity": 0, "duration": 66}, {"note": 73, "velocity": 91, "duration": 197}, {"note": 75, "velocity": 91, "duration": 198}, {"note": 72, "velocity": 89, "duration": 197}, {"note": 73, "velocity": 91, "duration": 1318}, {"note": 0, "velocity": 0, "duration": 962}, {"note": 73, "velocity": 89, "duration": 65}, {"note": 73, "velocity": 89, "duration": 66}, {"note": 73, "velocity": 94, "duration": 395}, {"note": 0, "velocity": 0, "duration": 85}, {"note": 72, "velocity": 91, "duration": 217}, {"note": 73, "velocity": 92, "duration": 90}, {"note": 75, "velocity": 93, "duration": 276}, {"note": 72, "velocity": 92, "duration": 169}, {"note": 0, "velocity": 0, "duration": 71}, {"note": 73, "velocity": 93, "duration": 994}, {"note": 0, "velocity": 0, "duration": 806}, {"note": 73, "velocity": 96, "duration": 180}, {"note": 82, "velocity": 89, "duration": 615}, {"note": 0, "velocity": 0, "duration": 105}, {"note": 80, "velocity": 93, "duration": 535}, {"note": 0, "velocity": 0, "duration": 185}, {"note": 77, "velocity": 93, "duration": 177}, {"note": 0, "velocity": 0, "duration": 63}, {"note": 77, "velocity": 89, "duration": 94}, {"note": 75, "velocity": 91, "duration": 197}, {"note": 77, "velocity": 98, "duration": 584}, {"note": 75, "velocity": 93, "duration": 65}, {"note": 77, "velocity": 94, "duration": 511}, {"note": 0, "velocity": 0, "duration": 329}, {"note": 73, "velocity": 93, "duration": 85}, {"note": 75, "velocity": 89, "duration": 111}, {"note": 75, "velocity": 92, "duration": 705}, {"note": 0, "velocity": 0, "duration": 255}, {"note": 75, "velocity": 94, "duration": 176}, {"note": 0, "velocity": 0, "duration": 64}, {"note": 73, "velocity": 91, "duration": 181}, {"note": 75, "velocity": 94, "duration": 84}, {"note": 75, "velocity": 101, "duration": 186}, {"note": 0, "velocity": 0, "duration": 174}, {"note": 75, "velocity": 94, "duration": 996}, {"note": 0, "velocity": 0, "duration": 444}, {"note": 85, "velocity": 98, "duration": 191}, {"note": 84, "velocity": 98, "duration": 174}, {"note": 0, "velocity": 0, "duration": 66}, {"note": 82, "velocity": 98, "duration": 308}, {"note": 80, "velocity": 91, "duration": 94}, {"note": 77, "velocity": 98, "duration": 116}, {"note": 80, "velocity": 91, "duration": 209}, {"note": 77, "velocity": 101, "duration": 485}, {"note": 0, "velocity": 0, "duration": 115}, {"note": 77, "velocity": 98, "duration": 168}, {"note": 0, "velocity": 0, "duration": 72}, {"note": 80, "velocity": 94, "duration": 177}, {"note": 0, "velocity": 0, "duration": 63}, {"note": 82, "velocity": 93, "duration": 173}, {"note": 0, "velocity": 0, "duration": 67}, {"note": 82, "velocity": 94, "duration": 186}, {"note": 80, "velocity": 91, "duration": 118}, {"note": 78, "velocity": 87, "duration": 123}, {"note": 80, "velocity": 88, "duration": 91}, {"note": 77, "velocity": 92, "duration": 489}, {"note": 0, "velocity": 0, "duration": 351}, {"note": 75, "velocity": 94, "duration": 81}, {"note": 73, "velocity": 89, "duration": 79}, {"note": 75, "velocity": 94, "duration": 608}, {"note": 0, "velocity": 0, "duration": 352}, {"note": 80, "velocity": 93, "duration": 171}, {"note": 0, "velocity": 0, "duration": 69}, {"note": 82, "velocity": 89, "duration": 170}, {"note": 0, "velocity": 0, "duration": 70}, {"note": 80, "velocity": 94, "duration": 170}, {"note": 0, "velocity": 0, "duration": 70}, {"note": 75, "velocity": 90, "duration": 79}, {"note": 77, "velocity": 88, "duration": 1104}, {"note": 0, "velocity": 0, "duration": 456}, {"note": 85, "velocity": 93, "duration": 176}, {"note": 0, "velocity": 0, "duration": 64}, {"note": 84, "velocity": 93, "duration": 161}, {"note": 0, "velocity": 0, "duration": 79}, {"note": 82, "velocity": 94, "duration": 287}, {"note": 0, "velocity": 0, "duration": 73}, {"note": 80, "velocity": 85, "duration": 109}, {"note": 77, "velocity": 94, "duration": 88}, {"note": 80, "velocity": 89, "duration": 187}, {"note": 77, "velocity": 101, "duration": 477}, {"note": 0, "velocity": 0, "duration": 123}, {"note": 77, "velocity": 98, "duration": 171}, {"note": 0, "velocity": 0, "duration": 69}, {"note": 80, "velocity": 92, "duration": 174}, {"note": 0, "velocity": 0, "duration": 66}, {"note": 82, "velocity": 89, "duration": 161}, {"note": 0, "velocity": 0, "duration": 79}, {"note": 82, "velocity": 90, "duration": 182}, {"note": 80, "velocity": 93, "duration": 97}, {"note": 78, "velocity": 86, "duration": 82}, {"note": 80, "velocity": 89, "duration": 101}, {"note": 77, "velocity": 94, "duration": 446}, {"note": 0, "velocity": 0, "duration": 394}, {"note": 75, "velocity": 92, "duration": 96}, {"note": 73, "velocity": 93, "duration": 65}, {"note": 75, "velocity": 103, "duration": 737}, {"note": 0, "velocity": 0, "duration": 223}, {"note": 77, "velocity": 91, "duration": 153}, {"note": 0, "velocity": 0, "duration": 87}, {"note": 77, "velocity": 98, "duration": 195}, {"note": 75, "velocity": 93, "duration": 187}, {"note": 75, "velocity": 94, "duration": 116}, {"note": 73, "velocity": 90, "duration": 1188}, {"note": 0, "velocity": 0, "duration": 372}, {"note": 85, "velocity": 98, "duration": 191}, {"note": 84, "velocity": 98, "duration": 174}, {"note": 0, "velocity": 0, "duration": 66}, {"note": 82, "velocity": 98, "duration": 308}, {"note": 80, "velocity": 91, "duration": 94}, {"note": 77, "velocity": 98, "duration": 116}, {"note": 80, "velocity": 91, "duration": 209}, {"note": 77, "velocity": 101, "duration": 485}, {"note": 0, "velocity": 0, "duration": 115}, {"note": 77, "velocity": 98, "duration": 168}, {"note": 0, "velocity": 0, "duration": 72}, {"note": 80, "velocity": 94, "duration": 177}, {"note": 0, "velocity": 0, "duration": 63}, {"note": 82, "velocity": 93, "duration": 173}, {"note": 0, "velocity": 0, "duration": 67}, {"note": 82, "velocity": 94, "duration": 186}, {"note": 80, "velocity": 91, "duration": 118}, {"note": 78, "velocity": 87, "duration": 123}, {"note": 80, "velocity": 88, "duration": 91}, {"note": 77, "velocity": 92, "duration": 489}, {"note": 0, "velocity": 0, "duration": 351}, {"note": 75, "velocity": 94, "duration": 81}, {"note": 73, "velocity": 89, "duration": 79}, {"note": 75, "velocity": 94, "duration": 608}, {"note": 0, "velocity": 0, "duration": 352}, {"note": 80, "velocity": 93, "duration": 171}, {"note": 0, "velocity": 0, "duration": 69}, {"note": 82, "velocity": 89, "duration": 170}, {"note": 0, "velocity": 0, "duration": 70}, {"note": 80, "velocity": 94, "duration": 170}, {"note": 0, "velocity": 0, "duration": 70}, {"note": 75, "velocity": 90, "duration": 79}, {"note": 77, "velocity": 88, "duration": 1104}, {"note": 0, "velocity": 0, "duration": 456}, {"note": 85, "velocity": 93, "duration": 176}, {"note": 0, "velocity": 0, "duration": 64}, {"note": 84, "velocity": 93, "duration": 161}, {"note": 0, "velocity": 0, "duration": 79}, {"note": 82, "velocity": 94, "duration": 287}, {"note": 0, "velocity": 0, "duration": 73}, {"note": 80, "velocity": 85, "duration": 109}, {"note": 77, "velocity": 94, "duration": 88}, {"note": 80, "velocity": 89, "duration": 187}, {"note": 77, "velocity": 101, "duration": 477}, {"note": 0, "velocity": 0, "duration": 123}, {"note": 77, "velocity": 98, "duration": 171}, {"note": 0, "velocity": 0, "duration": 69}, {"note": 80, "velocity": 92, "duration": 174}, {"note": 0, "velocity": 0, "duration": 66}, {"note": 82, "velocity": 89, "duration": 161}, {"note": 0, "velocity": 0, "duration": 79}, {"note": 82, "velocity": 90, "duration": 182}, {"note": 80, "velocity": 93, "duration": 97}, {"note": 78, "velocity": 86, "duration": 82}, {"note": 80, "velocity": 89, "duration": 101}, {"note": 77, "velocity": 94, "duration": 446}, {"note": 0, "velocity": 0, "duration": 394}, {"note": 75, "velocity": 92, "duration": 96}, {"note": 73, "velocity": 93, "duration": 65}, {"note": 75, "velocity": 103, "duration": 737}, {"note": 0, "velocity": 0, "duration": 223}, {"note": 77, "velocity": 91, "duration": 153}, {"note": 0, "velocity": 0, "duration": 87}, {"note": 77, "velocity": 98, "duration": 195}, {"note": 75, "velocity": 93, "duration": 187}, {"note": 75, "velocity": 94, "duration": 116}, {"note": 73, "velocity": 90, "duration": 1188}, {"note": 0, "velocity": 0, "duration": 1092}, {"note": 73, "velocity": 90, "duration": 78}, {"note": 73, "velocity": 89, "duration": 60}, {"note": 73, "velocity": 93, "duration": 169}, {"note": 0, "velocity": 0, "duration": 71}, {"note": 73, "velocity": 93, "duration": 77}, {"note": 72, "velocity": 94, "duration": 174}, {"note": 0, "velocity": 0, "duration": 66}, {"note": 73, "velocity": 91, "duration": 197}, {"note": 75, "velocity": 91, "duration": 198}, {"note": 72, "velocity": 89, "duration": 197}, {"note": 73, "velocity": 91, "duration": 1318}, {"note": 0, "velocity": 0, "duration": 962}, {"note": 73, "velocity": 89, "duration": 65}, {"note": 73, "velocity": 89, "duration": 66}, {"note": 73, "velocity": 94, "duration": 395}, {"note": 0, "velocity": 0, "duration": 85}, {"note": 72, "velocity": 91, "duration": 217}, {"note": 73, "velocity": 92, "duration": 90}, {"note": 75, "velocity": 93, "duration": 276}, {"note": 72, "velocity": 92, "duration": 169}, {"note": 0, "velocity": 0, "duration": 71}, {"note": 73, "velocity": 93, "duration": 994}, {"note": 0, "velocity": 0, "duration": 806}, {"note": 73, "velocity": 96, "duration": 180}, {"note": 82, "velocity": 89, "duration": 615}, {"note": 0, "velocity": 0, "duration": 105}, {"note": 80, "velocity": 93, "duration": 535}, {"note": 0, "velocity": 0, "duration": 185}, {"note": 77, "velocity": 93, "duration": 177}, {"note": 0, "velocity": 0, "duration": 63}, {"note": 77, "velocity": 89, "duration": 94}, {"note": 75, "velocity": 91, "duration": 197}, {"note": 77, "velocity": 98, "duration": 584}, {"note": 75, "velocity": 93, "duration": 65}, {"note": 77, "velocity": 94, "duration": 511}, {"note": 0, "velocity": 0, "duration": 329}, {"note": 80, "velocity": 93, "duration": 85}, {"note": 82, "velocity": 89, "duration": 111}, {"note": 75, "velocity": 92, "duration": 705}, {"note": 0, "velocity": 0, "duration": 135}, {"note": 75, "velocity": 94, "duration": 238}, {"note": 73, "velocity": 91, "duration": 238}, {"note": 73, "velocity": 95, "duration": 118}, {"note": 73, "velocity": 94, "duration": 238}, {"note": 75, "velocity": 101, "duration": 186}, {"note": 77, "velocity": 95, "duration": 238}, {"note": 77, "velocity": 94, "duration": 756}]]