[[{"note": 63, "velocity": 90, "duration": 267}, {"note": 66, "velocity": 81, "duration": 177}, {"note": 0, "velocity": 0, "duration": 63}, {"note": 66, "velocity": 86, "duration": 219}, {"note": 63, "velocity": 89, "duration": 262}, {"note": 66, "velocity": 86, "duration": 732}, {"note": 0, "velocity": 0, "duration": 228}, {"note": 63, "velocity": 94, "duration": 236}, {"note": 68, "velocity": 86, "duration": 187}, {"note": 68, "velocity": 86, "duration": 194}, {"note": 66, "velocity": 86, "duration": 92}, {"note": 68, "velocity": 83, "duration": 826}, {"note": 0, "velocity": 0, "duration": 254}, {"note": 68, "velocity": 88, "duration": 181}, {"note": 68, "velocity": 87, "duration": 195}, {"note": 68, "velocity": 86, "duration": 182}, {"note": 66, "velocity": 81, "duration": 84}, {"note": 68, "velocity": 80, "duration": 526}, {"note": 0, "velocity": 0, "duration": 554}, {"note": 68, "velocity": 86, "duration": 191}, {"note": 71, "velocity": 92, "duration": 163}, {"note": 0, "velocity": 0, "duration": 77}, {"note": 68, "velocity": 89, "duration": 169}, {"note": 0, "velocity": 0, "duration": 71}, {"note": 63, "velocity": 87, "duration": 85}, {"note": 66, "velocity": 81, "duration": 841}, {"note": 0, "velocity": 0, "duration": 239}, {"note": 63, "velocity": 85, "duration": 182}, {"note": 66, "velocity": 81, "duration": 165}, {"note": 0, "velocity": 0, "duration": 75}, {"note": 66, "velocity": 85, "duration": 182}, {"note": 63, "velocity": 87, "duration": 93}, {"note": 66, "velocity": 79, "duration": 840}, {"note": 0, "velocity": 0, "duration": 240}, {"note": 63, "velocity": 86, "duration": 184}, {"note": 68, "velocity": 86, "duration": 179}, {"note": 0, "velocity": 0, "duration": 61}, {"note": 68, "velocity": 89, "duration": 174}, {"note": 0, "velocity": 0, "duration": 66}, {"note": 66, "velocity": 81, "duration": 85}, {"note": 68, "velocity": 85, "duration": 856}, {"note": 0, "velocity": 0, "duration": 224}, {"note": 68, "velocity": 69, "duration": 173}, {"note": 0, "velocity": 0, "duration": 67}, {"note": 68, "velocity": 89, "duration": 173}, {"note": 0, "velocity": 0, "duration": 67}, {"note": 68, "velocity": 86, "duration": 187}, {"note": 66, "velocity": 87, "duration": 77}, {"note": 68, "velocity": 87, "duration": 572}, {"note": 0, "velocity": 0, "duration": 508}, {"note": 68, "velocity": 88, "duration": 169}, {"note": 0, "velocity": 0, "duration": 71}, {"note": 68, "velocity": 88, "duration": 151}, {"note": 0, "velocity": 0, "duration": 89}, {"note": 68, "velocity": 89, "duration": 207}, {"note": 63, "velocity": 90, "duration": 79}, {"note": 66, "velocity": 83, "duration": 969}, {"note": 0, "velocity": 0, "duration": 1671}, {"note": 66, "velocity": 86, "duration": 124}, {"note": 68, "velocity": 86, "duration": 114}, {"note": 71, "velocity": 91, "duration": 83}, {"note": 73, "velocity": 92, "duration": 194}, {"note": 75, "velocity": 87, "duration": 77}, {"note": 75, "velocity": 87, "duration": 428}, {"note": 0, "velocity": 0, "duration": 172}, {"note": 73, "velocity": 88, "duration": 213}, {"note": 78, "velocity": 86, "duration": 79}, {"note": 75, "velocity": 94, "duration": 236}, {"note": 0, "velocity": 0, "duration": 124}, {"note": 75, "velocity": 89, "duration": 90}, {"note": 78, "velocity": 86, "duration": 126}, {"note": 80, "velocity": 85, "duration": 215}, {"note": 83, "velocity": 87, "duration": 183}, {"note": 80, "velocity": 85, "duration": 157}, {"note": 0, "velocity": 0, "duration": 83}, {"note": 78, "velocity": 85, "duration": 160}, {"note": 0, "velocity": 0, "duration": 80}, {"note": 80, "velocity": 86, "duration": 84}, {"note": 78, "velocity": 86, "duration": 62}, {"note": 80, "velocity": 87, "duration": 95}, {"note": 78, "velocity": 86, "duration": 66}, {"note": 75, "velocity": 91, "duration": 176}, {"note": 0, "velocity": 0, "duration": 304}, {"note": 73, "velocity": 92, "duration": 177}, {"note": 0, "velocity": 0, "duration": 63}, {"note": 75, "velocity": 90, "duration": 181}, {"note": 73, "velocity": 86, "duration": 172}, {"note": 0, "velocity": 0, "duration": 68}, {"note": 73, "velocity": 96, "duration": 79}, {"note": 75, "velocity": 89, "duration": 104}, {"note": 73, "velocity": 102, "duration": 167}, {"note": 0, "velocity": 0, "duration": 73}, {"note": 71, "velocity": 91, "duration": 101}, {"note": 68, "velocity": 89, "duration": 251}, {"note": 0, "velocity": 0, "duration": 229}, {"note": 68, "velocity": 86, "duration": 99}, {"note": 80, "velocity": 90, "duration": 186}, {"note": 78, "velocity": 81, "duration": 71}, {"note": 78, "velocity": 89, "duration": 60}, {"note": 78, "velocity": 91, "duration": 176}, {"note": 0, "velocity": 0, "duration": 64}, {"note": 80, "velocity": 86, "duration": 66}, {"note": 82, "velocity": 85, "duration": 189}, {"note": 75, "velocity": 89, "duration": 324}, {"note": 0, "velocity": 0, "duration": 156}, {"note": 66, "velocity": 87, "duration": 72}, {"note": 68, "velocity": 87, "duration": 66}, {"note": 71, "velocity": 89, "duration": 73}, {"note": 73, "velocity": 87, "duration": 194}, {"note": 75, "velocity": 89, "duration": 142}, {"note": 0, "velocity": 0, "duration": 98}, {"note": 75, "velocity": 87, "duration": 257}, {"note": 0, "velocity": 0, "duration": 223}, {"note": 73, "velocity": 92, "duration": 183}, {"note": 78, "velocity": 88, "duration": 85}, {"note": 75, "velocity": 90, "duration": 161}, {"note": 0, "velocity": 0, "duration": 199}, {"note": 75, "velocity": 83, "duration": 69}, {"note": 78, "velocity": 87, "duration": 71}, {"note": 80, "velocity": 85, "duration": 176}, {"note": 0, "velocity": 0, "duration": 64}, {"note": 83, "velocity": 89, "duration": 164}, {"note": 0, "velocity": 0, "duration": 76}, {"note": 80, "velocity": 86, "duration": 189}, {"note": 78, "velocity": 86, "duration": 120}, {"note": 78, "velocity": 86, "duration": 120}, {"note": 80, "velocity": 87, "duration": 88}, {"note": 78, "velocity": 88, "duration": 70}, {"note": 80, "velocity": 87, "duration": 84}, {"note": 78, "velocity": 87, "duration": 73}, {"note": 75, "velocity": 90, "duration": 201}, {"note": 0, "velocity": 0, "duration": 279}, {"note": 73, "velocity": 92, "duration": 175}, {"note": 0, "velocity": 0, "duration": 65}, {"note": 75, "velocity": 87, "duration": 188}, {"note": 73, "velocity": 87, "duration": 148}, {"note": 0, "velocity": 0, "duration": 92}, {"note": 73, "velocity": 87, "duration": 69}, {"note": 75, "velocity": 86, "duration": 82}, {"note": 73, "velocity": 92, "duration": 188}, {"note": 71, "velocity": 83, "duration": 96}, {"note": 68, "velocity": 86, "duration": 267}, {"note": 0, "velocity": 0, "duration": 213}, {"note": 66, "velocity": 85, "duration": 99}, {"note": 80, "velocity": 89, "duration": 173}, {"note": 0, "velocity": 0, "duration": 67}, {"note": 78, "velocity": 86, "duration": 145}, {"note": 0, "velocity": 0, "duration": 95}, {"note": 78, "velocity": 86, "duration": 172}, {"note": 0, "velocity": 0, "duration": 68}, {"note": 75, "velocity": 88, "duration": 88}, {"note": 78, "velocity": 85, "duration": 381}, {"note": 0, "velocity": 0, "duration": 99}, {"note": 78, "velocity": 88, "duration": 74}, {"note": 83, "velocity": 89, "duration": 110}, {"note": 82, "velocity": 86, "duration": 123}, {"note": 78, "velocity": 83, "duration": 79}, {"note": 73, "velocity": 83, "duration": 78}, {"note": 75, "velocity": 86, "duration": 144}, {"note": 0, "velocity": 0, "duration": 96}, {"note": 75, "velocity": 89, "duration": 99}, {"note": 73, "velocity": 88, "duration": 69}, {"note": 75, "velocity": 87, "duration": 74}, {"note": 75, "velocity": 85, "duration": 193}, {"note": 73, "velocity": 89, "duration": 68}, {"note": 75, "velocity": 90, "duration": 251}, {"note": 80, "velocity": 86, "duration": 110}, {"note": 78, "velocity": 87, "duration": 250}, {"note": 0, "velocity": 0, "duration": 230}, {"note": 73, "velocity": 87, "duration": 76}, {"note": 75, "velocity": 86, "duration": 104}, {"note": 0, "velocity": 0, "duration": 95}, {"note": 75, "velocity": 91, "duration": 161}, {"note": 73, "velocity": 90, "duration": 64}, {"note": 75, "velocity": 89, "duration": 159}, {"note": 0, "velocity": 0, "duration": 81}, {"note": 75, "velocity": 87, "duration": 89}, {"note": 73, "velocity": 86, "duration": 80}, {"note": 75, "velocity": 89, "duration": 145}, {"note": 0, "velocity": 0, "duration": 95}, {"note": 83, "velocity": 91, "duration": 85}, {"note": 80, "velocity": 86, "duration": 239}, {"note": 0, "velocity": 0, "duration": 241}, {"note": 78, "velocity": 85, "duration": 79}, {"note": 80, "velocity": 89, "duration": 164}, {"note": 0, "velocity": 0, "duration": 76}, {"note": 80, "velocity": 86, "duration": 161}, {"note": 0, "velocity": 0, "duration": 79}, {"note": 80, "velocity": 85, "duration": 184}, {"note": 83, "velocity": 91, "duration": 174}, {"note": 0, "velocity": 0, "duration": 66}, {"note": 80, "velocity": 87, "duration": 161}, {"note": 0, "velocity": 0, "duration": 79}, {"note": 75, "velocity": 88, "duration": 68}, {"note": 73, "velocity": 91, "duration": 247}, {"note": 0, "velocity": 0, "duration": 113}, {"note": 71, "velocity": 86, "duration": 65}, {"note": 73, "velocity": 86, "duration": 62}, {"note": 75, "velocity": 89, "duration": 210}, {"note": 78, "velocity": 90, "duration": 222}, {"note": 75, "velocity": 90, "duration": 191}, {"note": 78, "velocity": 88, "duration": 76}, {"note": 80, "velocity": 87, "duration": 348}, {"note": 0, "velocity": 0, "duration": 132}, {"note": 78, "velocity": 88, "duration": 74}, {"note": 83, "velocity": 89, "duration": 110}, {"note": 82, "velocity": 86, "duration": 123}, {"note": 78, "velocity": 83, "duration": 79}, {"note": 73, "velocity": 83, "duration": 78}, {"note": 75, "velocity": 86, "duration": 144}, {"note": 0, "velocity": 0, "duration": 96}, {"note": 75, "velocity": 89, "duration": 99}, {"note": 73, "velocity": 88, "duration": 69}, {"note": 75, "velocity": 87, "duration": 74}, {"note": 75, "velocity": 85, "duration": 193}, {"note": 73, "velocity": 89, "duration": 68}, {"note": 75, "velocity": 90, "duration": 251}, {"note": 80, "velocity": 86, "duration": 110}, {"note": 78, "velocity": 87, "duration": 250}, {"note": 0, "velocity": 0, "duration": 230}, {"note": 73, "velocity": 87, "duration": 76}, {"note": 75, "velocity": 86, "duration": 104}, {"note": 0, "velocity": 0, "duration": 95}, {"note": 75, "velocity": 91, "duration": 161}, {"note": 73, "velocity": 90, "duration": 64}, {"note": 75, "velocity": 89, "duration": 159}, {"note": 0, "velocity": 0, "duration": 81}, {"note": 75, "velocity": 87, "duration": 89}, {"note": 73, "velocity": 86, "duration": 80}, {"note": 75, "velocity": 89, "duration": 145}, {"note": 0, "velocity": 0, "duration": 95}, {"note": 83, "velocity": 91, "duration": 85}, {"note": 80, "velocity": 86, "duration": 239}, {"note": 0, "velocity": 0, "duration": 241}, {"note": 78, "velocity": 85, "duration": 79}, {"note": 80, "velocity": 89, "duration": 164}, {"note": 0, "velocity": 0, "duration": 76}, {"note": 80, "velocity": 86, "duration": 161}, {"note": 0, "velocity": 0, "duration": 79}, {"note": 80, "velocity": 85, "duration": 184}, {"note": 83, "velocity": 91, "duration": 174}, {"note": 0, "velocity": 0, "duration": 66}, {"note": 80, "velocity": 87, "duration": 161}, {"note": 0, "velocity": 0, "duration": 79}, {"note": 75, "velocity": 88, "duration": 68}, {"note": 73, "velocity": 91, "duration": 247}, {"note": 0, "velocity": 0, "duration": 113}, {"note": 71, "velocity": 86, "duration": 65}, {"note": 73, "velocity": 86, "duration": 62}, {"note": 75, "velocity": 89, "duration": 210}, {"note": 78, "velocity": 90, "duration": 222}, {"note": 75, "velocity": 90, "duration": 191}, {"note": 78, "velocity": 88, "duration": 76}, {"note": 80, "velocity": 87, "duration": 960}, {"note": 0, "velocity": 0, "duration": 3600}, {"note": 66, "velocity": 86, "duration": 124}, {"note": 68, "velocity": 86, "duration": 114}, {"note": 71, "velocity": 91, "duration": 83}, {"note": 73, "velocity": 92, "duration": 194}, {"note": 75, "velocity": 87, "duration": 77}, {"note": 75, "velocity": 87, "duration": 428}, {"note": 0, "velocity": 0, "duration": 172}, {"note": 73, "velocity": 88, "duration": 213}, {"note": 78, "velocity": 86, "duration": 79}, {"note": 75, "velocity": 94, "duration": 236}, {"note": 0, "velocity": 0, "duration": 124}, {"note": 75, "velocity": 89, "duration": 90}, {"note": 78, "velocity": 86, "duration": 126}, {"note": 80, "velocity": 85, "duration": 215}, {"note": 83, "velocity": 87, "duration": 183}, {"note": 80, "velocity": 85, "duration": 157}, {"note": 0, "velocity": 0, "duration": 83}, {"note": 78, "velocity": 85, "duration": 160}, {"note": 0, "velocity": 0, "duration": 80}, {"note": 80, "velocity": 86, "duration": 84}, {"note": 78, "velocity": 86, "duration": 62}, {"note": 80, "velocity": 87, "duration": 95}, {"note": 78, "velocity": 86, "duration": 66}, {"note": 75, "velocity": 91, "duration": 176}, {"note": 0, "velocity": 0, "duration": 304}, {"note": 73, "velocity": 92, "duration": 177}, {"note": 0, "velocity": 0, "duration": 63}, {"note": 75, "velocity": 90, "duration": 181}, {"note": 73, "velocity": 86, "duration": 172}, {"note": 0, "velocity": 0, "duration": 68}, {"note": 73, "velocity": 96, "duration": 79}, {"note": 75, "velocity": 89, "duration": 104}, {"note": 73, "velocity": 102, "duration": 167}, {"note": 0, "velocity": 0, "duration": 73}, {"note": 71, "velocity": 91, "duration": 101}, {"note": 68, "velocity": 89, "duration": 251}, {"note": 0, "velocity": 0, "duration": 229}, {"note": 68, "velocity": 86, "duration": 99}, {"note": 80, "velocity": 90, "duration": 186}, {"note": 78, "velocity": 81, "duration": 71}, {"note": 78, "velocity": 89, "duration": 60}, {"note": 78, "velocity": 91, "duration": 176}, {"note": 0, "velocity": 0, "duration": 64}, {"note": 80, "velocity": 86, "duration": 66}, {"note": 82, "velocity": 85, "duration": 189}, {"note": 75, "velocity": 89, "duration": 324}, {"note": 0, "velocity": 0, "duration": 156}, {"note": 66, "velocity": 87, "duration": 72}, {"note": 68, "velocity": 87, "duration": 66}, {"note": 71, "velocity": 89, "duration": 73}, {"note": 73, "velocity": 87, "duration": 194}, {"note": 75, "velocity": 89, "duration": 142}, {"note": 0, "velocity": 0, "duration": 98}, {"note": 75, "velocity": 87, "duration": 257}, {"note": 0, "velocity": 0, "duration": 223}, {"note": 73, "velocity": 92, "duration": 183}, {"note": 78, "velocity": 88, "duration": 85}, {"note": 75, "velocity": 90, "duration": 161}, {"note": 0, "velocity": 0, "duration": 199}, {"note": 75, "velocity": 83, "duration": 69}, {"note": 78, "velocity": 87, "duration": 71}, {"note": 80, "velocity": 85, "duration": 176}, {"note": 0, "velocity": 0, "duration": 64}, {"note": 83, "velocity": 89, "duration": 164}, {"note": 0, "velocity": 0, "duration": 76}, {"note": 80, "velocity": 86, "duration": 189}, {"note": 78, "velocity": 86, "duration": 120}, {"note": 78, "velocity": 86, "duration": 120}, {"note": 80, "velocity": 87, "duration": 88}, {"note": 78, "velocity": 88, "duration": 70}, {"note": 80, "velocity": 87, "duration": 84}, {"note": 78, "velocity": 87, "duration": 73}, {"note": 75, "velocity": 90, "duration": 201}, {"note": 0, "velocity": 0, "duration": 279}, {"note": 73, "velocity": 92, "duration": 175}, {"note": 0, "velocity": 0, "duration": 65}, {"note": 75, "velocity": 87, "duration": 188}, {"note": 73, "velocity": 87, "duration": 148}, {"note": 0, "velocity": 0, "duration": 92}, {"note": 73, "velocity": 87, "duration": 69}, {"note": 75, "velocity": 86, "duration": 82}, {"note": 73, "velocity": 92, "duration": 188}, {"note": 71, "velocity": 83, "duration": 96}, {"note": 68, "velocity": 86, "duration": 267}, {"note": 0, "velocity": 0, "duration": 213}, {"note": 66, "velocity": 85, "duration": 99}, {"note": 80, "velocity": 89, "duration": 173}, {"note": 0, "velocity": 0, "duration": 67}, {"note": 78, "velocity": 86, "duration": 145}, {"note": 0, "velocity": 0, "duration": 95}, {"note": 78, "velocity": 86, "duration": 172}, {"note": 0, "velocity": 0, "duration": 68}, {"note": 75, "velocity": 88, "duration": 88}, {"note": 78, "velocity": 85, "duration": 381}, {"note": 0, "velocity": 0, "duration": 99}, {"note": 78, "velocity": 88, "duration": 74}, {"note": 83, "velocity": 89, "duration": 110}, {"note": 82, "velocity": 86, "duration": 123}, {"note": 78, "velocity": 83, "duration": 79}, {"note": 73, "velocity": 83, "duration": 78}, {"note": 75, "velocity": 86, "duration": 144}, {"note": 0, "velocity": 0, "duration": 96}, {"note": 75, "velocity": 89, "duration": 99}, {"note": 73, "velocity": 88, "duration": 69}, {"note": 75, "velocity": 87, "duration": 74}, {"note": 75, "velocity": 85, "duration": 193}, {"note": 73, "velocity": 89, "duration": 68}, {"note": 75, "velocity": 90, "duration": 251}, {"note": 80, "velocity": 86, "duration": 110}, {"note": 78, "velocity": 87, "duration": 250}, {"note": 0, "velocity": 0, "duration": 230}, {"note": 73, "velocity": 87, "duration": 76}, {"note": 75, "velocity": 86, "duration": 104}, {"note": 0, "velocity": 0, "duration": 95}, {"note": 75, "velocity": 91, "duration": 161}, {"note": 73, "velocity": 90, "duration": 64}, {"note": 75, "velocity": 89, "duration": 159}, {"note": 0, "velocity": 0, "duration": 81}, {"note": 75, "velocity": 87, "duration": 89}, {"note": 73, "velocity": 86, "duration": 80}, {"note": 75, "velocity": 89, "duration": 145}, {"note": 0, "velocity": 0, "duration": 95}, {"note": 83, "velocity": 91, "duration": 85}, {"note": 80, "velocity": 86, "duration": 239}, {"note": 0, "velocity": 0, "duration": 241}, {"note": 78, "velocity": 85, "duration": 79}, {"note": 80, "velocity": 89, "duration": 164}, {"note": 0, "velocity": 0, "duration": 76}, {"note": 80, "velocity": 86, "duration": 161}, {"note": 0, "velocity": 0, "duration": 79}, {"note": 80, "velocity": 85, "duration": 184}, {"note": 83, "velocity": 91, "duration": 174}, {"note": 0, "velocity": 0, "duration": 66}, {"note": 80, "velocity": 87, "duration": 161}, {"note": 0, "velocity": 0, "duration": 79}, {"note": 75, "velocity": 88, "duration": 68}, {"note": 73, "velocity": 91, "duration": 247}, {"note": 0, "velocity": 0, "duration": 113}, {"note": 71, "velocity": 86, "duration": 65}, {"note": 73, "velocity": 86, "duration": 62}, {"note": 75, "velocity": 89, "duration": 210}, {"note": 78, "velocity": 90, "duration": 222}, {"note": 75, "velocity": 90, "duration": 191}, {"note": 78, "velocity": 88, "duration": 76}, {"note": 80, "velocity": 87, "duration": 348}, {"note": 0, "velocity": 0, "duration": 132}, {"note": 78, "velocity": 88, "duration": 74}, {"note": 83, "velocity": 89, "duration": 110}, {"note": 82, "velocity": 86, "duration": 123}, {"note": 78, "velocity": 83, "duration": 79}, {"note": 73, "velocity": 83, "duration": 78}, {"note": 75, "velocity": 86, "duration": 144}, {"note": 0, "velocity": 0, "duration": 96}, {"note": 75, "velocity": 89, "duration": 99}, {"note": 73, "velocity": 88, "duration": 69}, {"note": 75, "velocity": 87, "duration": 74}, {"note": 75, "velocity": 85, "duration": 193}, {"note": 73, "velocity": 89, "duration": 68}, {"note": 75, "velocity": 90, "duration": 251}, {"note": 80, "velocity": 86, "duration": 110}, {"note": 78, "velocity": 87, "duration": 250}, {"note": 0, "velocity": 0, "duration": 230}, {"note": 73, "velocity": 87, "duration": 76}, {"note": 75, "velocity": 86, "duration": 104}, {"note": 0, "velocity": 0, "duration": 95}, {"note": 75, "velocity": 91, "duration": 161}, {"note": 73, "velocity": 90, "duration": 64}, {"note": 75, "velocity": 89, "duration": 159}, {"note": 0, "velocity": 0, "duration": 81}, {"note": 75, "velocity": 87, "duration": 89}, {"note": 73, "velocity": 86, "duration": 80}, {"note": 75, "velocity": 89, "duration": 145}, {"note": 0, "velocity": 0, "duration": 95}, {"note": 83, "velocity": 91, "duration": 85}, {"note": 80, "velocity": 86, "duration": 239}, {"note": 0, "velocity": 0, "duration": 241}, {"note": 78, "velocity": 85, "duration": 79}, {"note": 80, "velocity": 89, "duration": 164}, {"note": 0, "velocity": 0, "duration": 76}, {"note": 80, "velocity": 86, "duration": 161}, {"note": 0, "velocity": 0, "duration": 79}, {"note": 80, "velocity": 85, "duration": 184}, {"note": 83, "velocity": 91, "duration": 174}, {"note": 0, "velocity": 0, "duration": 66}, {"note": 80, "velocity": 87, "duration": 161}, {"note": 0, "velocity": 0, "duration": 79}, {"note": 75, "velocity": 88, "duration": 68}, {"note": 73, "velocity": 91, "duration": 247}, {"note": 0, "velocity": 0, "duration": 113}, {"note": 71, "velocity": 86, "duration": 65}, {"note": 73, "velocity": 86, "duration": 62}, {"note": 75, "velocity": 89, "duration": 210}, {"note": 78, "velocity": 90, "duration": 222}, {"note": 75, "velocity": 90, "duration": 191}, {"note": 78, "velocity": 88, "duration": 76}, {"note": 80, "velocity": 87, "duration": 960}, {"note": 0, "velocity": 0, "duration": 7800}, {"note": 63, "velocity": 90, "duration": 267}, {"note": 66, "velocity": 81, "duration": 177}, {"note": 0, "velocity": 0, "duration": 63}, {"note": 66, "velocity": 86, "duration": 219}, {"note": 63, "velocity": 89, "duration": 262}, {"note": 66, "velocity": 86, "duration": 732}, {"note": 0, "velocity": 0, "duration": 228}, {"note": 63, "velocity": 94, "duration": 236}, {"note": 68, "velocity": 86, "duration": 187}, {"note": 68, "velocity": 86, "duration": 194}, {"note": 66, "velocity": 86, "duration": 92}, {"note": 68, "velocity": 83, "duration": 826}, {"note": 0, "velocity": 0, "duration": 254}, {"note": 68, "velocity": 88, "duration": 181}, {"note": 68, "velocity": 87, "duration": 195}, {"note": 68, "velocity": 86, "duration": 182}, {"note": 66, "velocity": 81, "duration": 84}, {"note": 68, "velocity": 80, "duration": 526}, {"note": 0, "velocity": 0, "duration": 554}, {"note": 68, "velocity": 86, "duration": 191}, {"note": 71, "velocity": 92, "duration": 163}, {"note": 0, "velocity": 0, "duration": 77}, {"note": 68, "velocity": 89, "duration": 169}, {"note": 0, "velocity": 0, "duration": 71}, {"note": 63, "velocity": 87, "duration": 85}, {"note": 66, "velocity": 81, "duration": 841}, {"note": 0, "velocity": 0, "duration": 239}, {"note": 63, "velocity": 85, "duration": 182}, {"note": 66, "velocity": 81, "duration": 165}, {"note": 0, "velocity": 0, "duration": 75}, {"note": 66, "velocity": 85, "duration": 182}, {"note": 63, "velocity": 87, "duration": 93}, {"note": 66, "velocity": 79, "duration": 840}, {"note": 0, "velocity": 0, "duration": 240}, {"note": 63, "velocity": 86, "duration": 184}, {"note": 68, "velocity": 86, "duration": 179}, {"note": 0, "velocity": 0, "duration": 61}, {"note": 68, "velocity": 89, "duration": 174}, {"note": 0, "velocity": 0, "duration": 66}, {"note": 66, "velocity": 81, "duration": 85}, {"note": 68, "velocity": 85, "duration": 856}, {"note": 0, "velocity": 0, "duration": 224}, {"note": 68, "velocity": 69, "duration": 173}, {"note": 0, "velocity": 0, "duration": 67}, {"note": 68, "velocity": 89, "duration": 173}, {"note": 0, "velocity": 0, "duration": 67}, {"note": 68, "velocity": 86, "duration": 187}, {"note": 66, "velocity": 87, "duration": 77}, {"note": 68, "velocity": 87, "duration": 572}, {"note": 0, "velocity": 0, "duration": 508}, {"note": 68, "velocity": 88, "duration": 169}, {"note": 0, "velocity": 0, "duration": 71}, {"note": 68, "velocity": 88, "duration": 151}, {"note": 0, "velocity": 0, "duration": 89}, {"note": 68, "velocity": 89, "duration": 207}, {"note": 63, "velocity": 90, "duration": 79}, {"note": 66, "velocity": 83, "duration": 360}, {"note": 0, "velocity": 0, "duration": 120}, {"note": 78, "velocity": 88, "duration": 74}, {"note": 83, "velocity": 89, "duration": 110}, {"note": 82, "velocity": 86, "duration": 123}, {"note": 78, "velocity": 83, "duration": 79}, {"note": 73, "velocity": 83, "duration": 78}, {"note": 75, "velocity": 86, "duration": 144}, {"note": 0, "velocity": 0, "duration": 96}, {"note": 75, "velocity": 89, "duration": 99}, {"note": 73, "velocity": 88, "duration": 69}, {"note": 75, "velocity": 87, "duration": 74}, {"note": 75, "velocity": 85, "duration": 193}, {"note": 73, "velocity": 89, "duration": 68}, {"note": 75, "velocity": 90, "duration": 251}, {"note": 80, "velocity": 86, "duration": 110}, {"note": 78, "velocity": 87, "duration": 250}, {"note": 0, "velocity": 0, "duration": 230}, {"note": 73, "velocity": 87, "duration": 76}, {"note": 75, "velocity": 86, "duration": 104}, {"note": 0, "velocity": 0, "duration": 95}, {"note": 75, "velocity": 91, "duration": 161}, {"note": 73, "velocity": 90, "duration": 64}, {"note": 75, "velocity": 89, "duration": 159}, {"note": 0, "velocity": 0, "duration": 81}, {"note": 75, "velocity": 87, "duration": 89}, {"note": 73, "velocity": 86, "duration": 80}, {"note": 75, "velocity": 89, "duration": 145}, {"note": 0, "velocity": 0, "duration": 95}, {"note": 83, "velocity": 91, "duration": 85}, {"note": 80, "velocity": 86, "duration": 239}, {"note": 0, "velocity": 0, "duration": 241}, {"note": 78, "velocity": 85, "duration": 79}, {"note": 80, "velocity": 89, "duration": 164}, {"note": 0, "velocity": 0, "duration": 76}, {"note": 80, "velocity": 86, "duration": 161}, {"note": 0, "velocity": 0, "duration": 79}, {"note": 80, "velocity": 85, "duration": 184}, {"note": 83, "velocity": 91, "duration": 174}, {"note": 0, "velocity": 0, "duration": 66}, {"note": 80, "velocity": 87, "duration": 161}, {"note": 0, "velocity": 0, "duration": 79}, {"note": 75, "velocity": 88, "duration": 68}, {"note": 73, "velocity": 91, "duration": 247}, {"note": 0, "velocity": 0, "duration": 113}, {"note": 71, "velocity": 86, "duration": 65}, {"note": 73, "velocity": 86, "duration": 62}, {"note": 75, "velocity": 89, "duration": 210}, {"note": 78, "velocity": 90, "duration": 222}, {"note": 75, "velocity": 90, "duration": 191}, {"note": 78, "velocity": 88, "duration": 76}, {"note": 80, "velocity": 87, "duration": 348}, {"note": 0, "velocity": 0, "duration": 132}, {"note": 78, "velocity": 88, "duration": 74}, {"note": 83, "velocity": 89, "duration": 110}, {"note": 82, "velocity": 86, "duration": 123}, {"note": 78, "velocity": 83, "duration": 79}, {"note": 73, "velocity": 83, "duration": 78}, {"note": 75, "velocity": 86, "duration": 144}, {"note": 0, "velocity": 0, "duration": 96}, {"note": 75, "velocity": 89, "duration": 99}, {"note": 73, "velocity": 88, "duration": 69}, {"note": 75, "velocity": 87, "duration": 74}, {"note": 75, "velocity": 85, "duration": 193}, {"note": 73, "velocity": 89, "duration": 68}, {"note": 75, "velocity": 90, "duration": 251}, {"note": 80, "velocity": 86, "duration": 110}, {"note": 78, "velocity": 87, "duration": 250}, {"note": 0, "velocity": 0, "duration": 230}, {"note": 73, "velocity": 87, "duration": 76}, {"note": 75, "velocity": 86, "duration": 104}, {"note": 0, "velocity": 0, "duration": 95}, {"note": 75, "velocity": 91, "duration": 161}, {"note": 73, "velocity": 90, "duration": 64}, {"note": 75, "velocity": 89, "duration": 159}, {"note": 0, "velocity": 0, "duration": 81}, {"note": 75, "velocity": 87, "duration": 89}, {"note": 73, "velocity": 86, "duration": 80}, {"note": 75, "velocity": 89, "duration": 145}, {"note": 0, "velocity": 0, "duration": 95}, {"note": 83, "velocity": 91, "duration": 85}, {"note": 80, "velocity": 86, "duration": 239}, {"note": 0, "velocity": 0, "duration": 241}, {"note": 78, "velocity": 85, "duration": 79}, {"note": 80, "velocity": 89, "duration": 164}, {"note": 0, "velocity": 0, "duration": 76}, {"note": 80, "velocity": 86, "duration": 161}, {"note": 0, "velocity": 0, "duration": 79}, {"note": 80, "velocity": 85, "duration": 184}, {"note": 83, "velocity": 91, "duration": 174}, {"note": 0, "velocity": 0, "duration": 66}, {"note": 80, "velocity": 87, "duration": 161}, {"note": 0, "velocity": 0, "duration": 79}, {"note": 75, "velocity": 88, "duration": 68}, {"note": 73, "velocity": 91, "duration": 247}, {"note": 0, "velocity": 0, "duration": 113}, {"note": 71, "velocity": 86, "duration": 65}, {"note": 73, "velocity": 86, "duration": 62}, {"note": 75, "velocity": 89, "duration": 210}, {"note": 78, "velocity": 90, "duration": 222}, {"note": 75, "velocity": 90, "duration": 191}, {"note": 78, "velocity": 88, "duration": 240}, {"note": 80, "velocity": 87, "duration": 840}, {"note": 78, "velocity": 89, "duration": 115}, {"note": 80, "velocity": 89, "duration": 162}, {"note": 0, "velocity": 0, "duration": 74}, {"note": 80, "velocity": 90, "duration": 156}, {"note": 0, "velocity": 0, "duration": 92}, {"note": 80, "velocity": 92, "duration": 170}, {"note": 0, "velocity": 0, "duration": 86}, {"note": 83, "velocity": 96, "duration": 152}, {"note": 0, "velocity": 0, "duration": 101}, {"note": 80, "velocity": 87, "duration": 156}, {"note": 0, "velocity": 0, "duration": 112}, {"note": 75, "velocity": 94, "duration": 107}, {"note": 73, "velocity": 91, "duration": 270}, {"note": 0, "velocity": 0, "duration": 66}, {"note": 71, "velocity": 86, "duration": 79}, {"note": 73, "velocity": 92, "duration": 70}, {"note": 75, "velocity": 90, "duration": 240}, {"note": 78, "velocity": 85, "duration": 209}, {"note": 0, "velocity": 0, "duration": 84}, {"note": 75, "velocity": 83, "duration": 177}, {"note": 78, "velocity": 86, "duration": 214}, {"note": 80, "velocity": 87, "duration": 1190}]]