[[{"note": 76, "velocity": 90, "duration": 62}, {"note": 76, "velocity": 96, "duration": 62}, {"note": 76, "velocity": 97, "duration": 77}, {"note": 75, "velocity": 97, "duration": 70}, {"note": 73, "velocity": 96, "duration": 62}, {"note": 71, "velocity": 96, "duration": 287}, {"note": 0, "velocity": 0, "duration": 73}, {"note": 73, "velocity": 97, "duration": 689}, {"note": 0, "velocity": 0, "duration": 391}, {"note": 73, "velocity": 92, "duration": 82}, {"note": 76, "velocity": 95, "duration": 80}, {"note": 78, "velocity": 92, "duration": 198}, {"note": 80, "velocity": 93, "duration": 893}, {"note": 0, "velocity": 0, "duration": 547}, {"note": 73, "velocity": 97, "duration": 68}, {"note": 76, "velocity": 95, "duration": 140}, {"note": 78, "velocity": 95, "duration": 167}, {"note": 0, "velocity": 0, "duration": 73}, {"note": 80, "velocity": 96, "duration": 462}, {"note": 0, "velocity": 0, "duration": 138}, {"note": 80, "velocity": 94, "duration": 104}, {"note": 78, "velocity": 86, "duration": 61}, {"note": 78, "velocity": 91, "duration": 59}, {"note": 0, "velocity": 0, "duration": 61}, {"note": 78, "velocity": 96, "duration": 462}, {"note": 0, "velocity": 0, "duration": 1818}, {"note": 76, "velocity": 91, "duration": 65}, {"note": 76, "velocity": 92, "duration": 76}, {"note": 76, "velocity": 94, "duration": 216}, {"note": 73, "velocity": 97, "duration": 86}, {"note": 71, "velocity": 91, "duration": 253}, {"note": 0, "velocity": 0, "duration": 107}, {"note": 73, "velocity": 104, "duration": 831}, {"note": 0, "velocity": 0, "duration": 369}, {"note": 76, "velocity": 88, "duration": 213}, {"note": 78, "velocity": 92, "duration": 170}, {"note": 80, "velocity": 95, "duration": 822}, {"note": 0, "velocity": 0, "duration": 138}, {"note": 78, "velocity": 96, "duration": 481}, {"note": 0, "velocity": 0, "duration": 479}, {"note": 73, "velocity": 95, "duration": 85}, {"note": 80, "velocity": 95, "duration": 157}, {"note": 0, "velocity": 0, "duration": 83}, {"note": 80, "velocity": 94, "duration": 139}, {"note": 0, "velocity": 0, "duration": 101}, {"note": 80, "velocity": 97, "duration": 188}, {"note": 81, "velocity": 97, "duration": 170}, {"note": 0, "velocity": 0, "duration": 70}, {"note": 80, "velocity": 97, "duration": 83}, {"note": 78, "velocity": 95, "duration": 663}, {"note": 0, "velocity": 0, "duration": 657}, {"note": 85, "velocity": 94, "duration": 164}, {"note": 0, "velocity": 0, "duration": 76}, {"note": 85, "velocity": 94, "duration": 160}, {"note": 0, "velocity": 0, "duration": 80}, {"note": 83, "velocity": 96, "duration": 191}, {"note": 80, "velocity": 96, "duration": 140}, {"note": 0, "velocity": 0, "duration": 100}, {"note": 76, "velocity": 95, "duration": 172}, {"note": 0, "velocity": 0, "duration": 68}, {"note": 73, "velocity": 101, "duration": 158}, {"note": 0, "velocity": 0, "duration": 82}, {"note": 80, "velocity": 96, "duration": 120}, {"note": 78, "velocity": 91, "duration": 1320}, {"note": 0, "velocity": 0, "duration": 960}, {"note": 85, "velocity": 95, "duration": 157}, {"note": 0, "velocity": 0, "duration": 83}, {"note": 85, "velocity": 94, "duration": 160}, {"note": 0, "velocity": 0, "duration": 80}, {"note": 83, "velocity": 101, "duration": 175}, {"note": 0, "velocity": 0, "duration": 65}, {"note": 80, "velocity": 97, "duration": 143}, {"note": 0, "velocity": 0, "duration": 97}, {"note": 76, "velocity": 96, "duration": 161}, {"note": 0, "velocity": 0, "duration": 79}, {"note": 73, "velocity": 104, "duration": 164}, {"note": 0, "velocity": 0, "duration": 76}, {"note": 80, "velocity": 96, "duration": 86}, {"note": 78, "velocity": 92, "duration": 1113}, {"note": 0, "velocity": 0, "duration": 207}, {"note": 71, "velocity": 101, "duration": 246}, {"note": 73, "velocity": 97, "duration": 174}, {"note": 0, "velocity": 0, "duration": 66}, {"note": 76, "velocity": 97, "duration": 71}, {"note": 76, "velocity": 94, "duration": 71}, {"note": 76, "velocity": 93, "duration": 622}, {"note": 0, "velocity": 0, "duration": 98}, {"note": 76, "velocity": 94, "duration": 60}, {"note": 76, "velocity": 92, "duration": 59}, {"note": 0, "velocity": 0, "duration": 61}, {"note": 76, "velocity": 92, "duration": 175}, {"note": 0, "velocity": 0, "duration": 65}, {"note": 80, "velocity": 97, "duration": 201}, {"note": 83, "velocity": 97, "duration": 98}, {"note": 85, "velocity": 95, "duration": 815}, {"note": 83, "velocity": 90, "duration": 90}, {"note": 80, "velocity": 94, "duration": 413}, {"note": 0, "velocity": 0, "duration": 187}, {"note": 80, "velocity": 92, "duration": 148}, {"note": 0, "velocity": 0, "duration": 92}, {"note": 80, "velocity": 94, "duration": 175}, {"note": 0, "velocity": 0, "duration": 65}, {"note": 78, "velocity": 89, "duration": 237}, {"note": 76, "velocity": 92, "duration": 120}, {"note": 76, "velocity": 91, "duration": 355}, {"note": 0, "velocity": 0, "duration": 245}, {"note": 80, "velocity": 94, "duration": 178}, {"note": 0, "velocity": 0, "duration": 62}, {"note": 80, "velocity": 94, "duration": 192}, {"note": 80, "velocity": 96, "duration": 184}, {"note": 81, "velocity": 91, "duration": 189}, {"note": 80, "velocity": 97, "duration": 120}, {"note": 78, "velocity": 88, "duration": 749}, {"note": 0, "velocity": 0, "duration": 571}, {"note": 71, "velocity": 90, "duration": 198}, {"note": 73, "velocity": 106, "duration": 172}, {"note": 0, "velocity": 0, "duration": 68}, {"note": 76, "velocity": 94, "duration": 72}, {"note": 76, "velocity": 91, "duration": 69}, {"note": 76, "velocity": 94, "duration": 571}, {"note": 0, "velocity": 0, "duration": 149}, {"note": 80, "velocity": 94, "duration": 57}, {"note": 0, "velocity": 0, "duration": 63}, {"note": 80, "velocity": 91, "duration": 62}, {"note": 80, "velocity": 92, "duration": 156}, {"note": 0, "velocity": 0, "duration": 84}, {"note": 78, "velocity": 97, "duration": 177}, {"note": 0, "velocity": 0, "duration": 63}, {"note": 80, "velocity": 94, "duration": 164}, {"note": 0, "velocity": 0, "duration": 76}, {"note": 80, "velocity": 93, "duration": 115}, {"note": 78, "velocity": 92, "duration": 104}, {"note": 76, "velocity": 94, "duration": 1000}, {"note": 0, "velocity": 0, "duration": 200}, {"note": 80, "velocity": 90, "duration": 148}, {"note": 0, "velocity": 0, "duration": 92}, {"note": 80, "velocity": 93, "duration": 182}, {"note": 78, "velocity": 99, "duration": 131}, {"note": 76, "velocity": 91, "duration": 113}, {"note": 0, "velocity": 0, "duration": 127}, {"note": 76, "velocity": 92, "duration": 355}, {"note": 0, "velocity": 0, "duration": 125}, {"note": 78, "velocity": 74, "duration": 74}, {"note": 80, "velocity": 94, "duration": 284}, {"note": 0, "velocity": 0, "duration": 76}, {"note": 80, "velocity": 92, "duration": 334}, {"note": 76, "velocity": 92, "duration": 92}, {"note": 78, "velocity": 96, "duration": 1560}, {"note": 0, "velocity": 0, "duration": 1680}, {"note": 76, "velocity": 90, "duration": 62}, {"note": 76, "velocity": 96, "duration": 62}, {"note": 76, "velocity": 97, "duration": 77}, {"note": 75, "velocity": 97, "duration": 70}, {"note": 73, "velocity": 96, "duration": 62}, {"note": 71, "velocity": 96, "duration": 287}, {"note": 0, "velocity": 0, "duration": 73}, {"note": 73, "velocity": 97, "duration": 689}, {"note": 0, "velocity": 0, "duration": 391}, {"note": 73, "velocity": 92, "duration": 82}, {"note": 76, "velocity": 95, "duration": 80}, {"note": 78, "velocity": 92, "duration": 198}, {"note": 80, "velocity": 93, "duration": 893}, {"note": 0, "velocity": 0, "duration": 547}, {"note": 73, "velocity": 97, "duration": 68}, {"note": 76, "velocity": 95, "duration": 140}, {"note": 78, "velocity": 95, "duration": 167}, {"note": 0, "velocity": 0, "duration": 73}, {"note": 80, "velocity": 96, "duration": 360}, {"note": 78, "velocity": 87, "duration": 133}, {"note": 0, "velocity": 0, "duration": 107}, {"note": 78, "velocity": 91, "duration": 153}, {"note": 0, "velocity": 0, "duration": 87}, {"note": 76, "velocity": 90, "duration": 83}, {"note": 75, "velocity": 94, "duration": 199}, {"note": 73, "velocity": 85, "duration": 62}, {"note": 71, "velocity": 90, "duration": 517}, {"note": 0, "velocity": 0, "duration": 1403}, {"note": 76, "velocity": 91, "duration": 65}, {"note": 76, "velocity": 92, "duration": 76}, {"note": 76, "velocity": 94, "duration": 216}, {"note": 73, "velocity": 97, "duration": 86}, {"note": 71, "velocity": 91, "duration": 253}, {"note": 0, "velocity": 0, "duration": 107}, {"note": 73, "velocity": 104, "duration": 831}, {"note": 0, "velocity": 0, "duration": 369}, {"note": 76, "velocity": 88, "duration": 213}, {"note": 78, "velocity": 92, "duration": 170}, {"note": 80, "velocity": 95, "duration": 822}, {"note": 0, "velocity": 0, "duration": 138}, {"note": 78, "velocity": 96, "duration": 481}, {"note": 0, "velocity": 0, "duration": 479}, {"note": 73, "velocity": 95, "duration": 85}, {"note": 80, "velocity": 95, "duration": 157}, {"note": 0, "velocity": 0, "duration": 83}, {"note": 80, "velocity": 94, "duration": 139}, {"note": 0, "velocity": 0, "duration": 101}, {"note": 80, "velocity": 97, "duration": 188}, {"note": 81, "velocity": 97, "duration": 170}, {"note": 0, "velocity": 0, "duration": 70}, {"note": 80, "velocity": 97, "duration": 83}, {"note": 78, "velocity": 95, "duration": 663}, {"note": 0, "velocity": 0, "duration": 657}, {"note": 85, "velocity": 94, "duration": 164}, {"note": 0, "velocity": 0, "duration": 76}, {"note": 85, "velocity": 94, "duration": 160}, {"note": 0, "velocity": 0, "duration": 80}, {"note": 83, "velocity": 96, "duration": 191}, {"note": 80, "velocity": 96, "duration": 140}, {"note": 0, "velocity": 0, "duration": 100}, {"note": 76, "velocity": 95, "duration": 172}, {"note": 0, "velocity": 0, "duration": 68}, {"note": 73, "velocity": 101, "duration": 158}, {"note": 0, "velocity": 0, "duration": 82}, {"note": 80, "velocity": 96, "duration": 120}, {"note": 78, "velocity": 91, "duration": 1320}, {"note": 0, "velocity": 0, "duration": 960}, {"note": 85, "velocity": 95, "duration": 157}, {"note": 0, "velocity": 0, "duration": 83}, {"note": 85, "velocity": 94, "duration": 160}, {"note": 0, "velocity": 0, "duration": 80}, {"note": 83, "velocity": 101, "duration": 175}, {"note": 0, "velocity": 0, "duration": 65}, {"note": 80, "velocity": 97, "duration": 143}, {"note": 0, "velocity": 0, "duration": 97}, {"note": 76, "velocity": 96, "duration": 161}, {"note": 0, "velocity": 0, "duration": 79}, {"note": 73, "velocity": 104, "duration": 164}, {"note": 0, "velocity": 0, "duration": 76}, {"note": 80, "velocity": 96, "duration": 86}, {"note": 78, "velocity": 92, "duration": 1113}, {"note": 0, "velocity": 0, "duration": 207}, {"note": 71, "velocity": 101, "duration": 246}, {"note": 73, "velocity": 97, "duration": 174}, {"note": 0, "velocity": 0, "duration": 66}, {"note": 76, "velocity": 97, "duration": 71}, {"note": 76, "velocity": 94, "duration": 71}, {"note": 76, "velocity": 93, "duration": 622}, {"note": 0, "velocity": 0, "duration": 98}, {"note": 76, "velocity": 94, "duration": 60}, {"note": 76, "velocity": 92, "duration": 59}, {"note": 0, "velocity": 0, "duration": 61}, {"note": 76, "velocity": 92, "duration": 175}, {"note": 0, "velocity": 0, "duration": 65}, {"note": 80, "velocity": 97, "duration": 201}, {"note": 83, "velocity": 97, "duration": 98}, {"note": 85, "velocity": 95, "duration": 815}, {"note": 83, "velocity": 90, "duration": 90}, {"note": 80, "velocity": 94, "duration": 413}, {"note": 0, "velocity": 0, "duration": 187}, {"note": 80, "velocity": 92, "duration": 148}, {"note": 0, "velocity": 0, "duration": 92}, {"note": 80, "velocity": 94, "duration": 175}, {"note": 0, "velocity": 0, "duration": 65}, {"note": 78, "velocity": 89, "duration": 237}, {"note": 76, "velocity": 92, "duration": 120}, {"note": 76, "velocity": 91, "duration": 355}, {"note": 0, "velocity": 0, "duration": 245}, {"note": 80, "velocity": 94, "duration": 178}, {"note": 0, "velocity": 0, "duration": 62}, {"note": 80, "velocity": 94, "duration": 192}, {"note": 80, "velocity": 96, "duration": 184}, {"note": 81, "velocity": 91, "duration": 189}, {"note": 80, "velocity": 97, "duration": 120}, {"note": 78, "velocity": 88, "duration": 749}, {"note": 0, "velocity": 0, "duration": 571}, {"note": 71, "velocity": 90, "duration": 198}, {"note": 73, "velocity": 106, "duration": 172}, {"note": 0, "velocity": 0, "duration": 68}, {"note": 76, "velocity": 94, "duration": 72}, {"note": 76, "velocity": 91, "duration": 69}, {"note": 76, "velocity": 94, "duration": 571}, {"note": 0, "velocity": 0, "duration": 149}, {"note": 80, "velocity": 94, "duration": 57}, {"note": 0, "velocity": 0, "duration": 63}, {"note": 80, "velocity": 91, "duration": 62}, {"note": 80, "velocity": 92, "duration": 156}, {"note": 0, "velocity": 0, "duration": 84}, {"note": 78, "velocity": 97, "duration": 177}, {"note": 0, "velocity": 0, "duration": 63}, {"note": 80, "velocity": 94, "duration": 164}, {"note": 0, "velocity": 0, "duration": 76}, {"note": 80, "velocity": 93, "duration": 115}, {"note": 78, "velocity": 92, "duration": 104}, {"note": 76, "velocity": 94, "duration": 1000}, {"note": 0, "velocity": 0, "duration": 200}, {"note": 80, "velocity": 90, "duration": 148}, {"note": 0, "velocity": 0, "duration": 92}, {"note": 80, "velocity": 93, "duration": 182}, {"note": 78, "velocity": 99, "duration": 131}, {"note": 76, "velocity": 91, "duration": 113}, {"note": 0, "velocity": 0, "duration": 127}, {"note": 76, "velocity": 92, "duration": 355}, {"note": 0, "velocity": 0, "duration": 125}, {"note": 78, "velocity": 74, "duration": 74}, {"note": 80, "velocity": 94, "duration": 284}, {"note": 0, "velocity": 0, "duration": 76}, {"note": 80, "velocity": 92, "duration": 334}, {"note": 76, "velocity": 92, "duration": 92}, {"note": 78, "velocity": 96, "duration": 1560}, {"note": 0, "velocity": 0, "duration": 8400}, {"note": 76, "velocity": 101, "duration": 172}, {"note": 0, "velocity": 0, "duration": 68}, {"note": 76, "velocity": 94, "duration": 181}, {"note": 76, "velocity": 94, "duration": 172}, {"note": 0, "velocity": 0, "duration": 68}, {"note": 76, "velocity": 96, "duration": 164}, {"note": 0, "velocity": 0, "duration": 76}, {"note": 71, "velocity": 96, "duration": 165}, {"note": 0, "velocity": 0, "duration": 75}, {"note": 71, "velocity": 96, "duration": 178}, {"note": 0, "velocity": 0, "duration": 62}, {"note": 71, "velocity": 99, "duration": 120}, {"note": 73, "velocity": 97, "duration": 291}, {"note": 0, "velocity": 0, "duration": 69}, {"note": 76, "velocity": 95, "duration": 779}, {"note": 0, "velocity": 0, "duration": 421}, {"note": 76, "velocity": 97, "duration": 177}, {"note": 0, "velocity": 0, "duration": 63}, {"note": 78, "velocity": 92, "duration": 66}, {"note": 80, "velocity": 94, "duration": 772}, {"note": 0, "velocity": 0, "duration": 68}, {"note": 78, "velocity": 92, "duration": 121}, {"note": 0, "velocity": 0, "duration": 119}, {"note": 78, "velocity": 94, "duration": 535}, {"note": 0, "velocity": 0, "duration": 305}, {"note": 73, "velocity": 94, "duration": 98}, {"note": 80, "velocity": 94, "duration": 391}, {"note": 0, "velocity": 0, "duration": 89}, {"note": 80, "velocity": 92, "duration": 209}, {"note": 81, "velocity": 92, "duration": 78}, {"note": 80, "velocity": 92, "duration": 345}, {"note": 78, "velocity": 95, "duration": 687}, {"note": 0, "velocity": 0, "duration": 273}, {"note": 76, "velocity": 92, "duration": 116}, {"note": 0, "velocity": 0, "duration": 124}, {"note": 76, "velocity": 91, "duration": 136}, {"note": 0, "velocity": 0, "duration": 104}, {"note": 76, "velocity": 91, "duration": 130}, {"note": 0, "velocity": 0, "duration": 110}, {"note": 76, "velocity": 95, "duration": 155}, {"note": 0, "velocity": 0, "duration": 85}, {"note": 71, "velocity": 91, "duration": 112}, {"note": 0, "velocity": 0, "duration": 128}, {"note": 71, "velocity": 92, "duration": 158}, {"note": 0, "velocity": 0, "duration": 82}, {"note": 71, "velocity": 92, "duration": 65}, {"note": 73, "velocity": 106, "duration": 265}, {"note": 0, "velocity": 0, "duration": 95}, {"note": 76, "velocity": 94, "duration": 967}, {"note": 0, "velocity": 0, "duration": 113}, {"note": 73, "velocity": 107, "duration": 69}, {"note": 76, "velocity": 94, "duration": 86}, {"note": 78, "velocity": 92, "duration": 151}, {"note": 0, "velocity": 0, "duration": 89}, {"note": 80, "velocity": 91, "duration": 720}, {"note": 81, "velocity": 94, "duration": 175}, {"note": 0, "velocity": 0, "duration": 65}, {"note": 80, "velocity": 95, "duration": 218}, {"note": 78, "velocity": 87, "duration": 600}, {"note": 0, "velocity": 0, "duration": 120}, {"note": 73, "velocity": 97, "duration": 75}, {"note": 80, "velocity": 94, "duration": 403}, {"note": 0, "velocity": 0, "duration": 77}, {"note": 80, "velocity": 94, "duration": 202}, {"note": 81, "velocity": 93, "duration": 98}, {"note": 80, "velocity": 92, "duration": 346}, {"note": 78, "velocity": 96, "duration": 720}, {"note": 0, "velocity": 0, "duration": 480}, {"note": 85, "velocity": 92, "duration": 178}, {"note": 0, "velocity": 0, "duration": 62}, {"note": 85, "velocity": 93, "duration": 166}, {"note": 0, "velocity": 0, "duration": 74}, {"note": 83, "velocity": 97, "duration": 175}, {"note": 0, "velocity": 0, "duration": 65}, {"note": 80, "velocity": 91, "duration": 80}, {"note": 76, "velocity": 92, "duration": 310}, {"note": 73, "velocity": 101, "duration": 196}, {"note": 80, "velocity": 91, "duration": 232}, {"note": 78, "velocity": 91, "duration": 1225}, {"note": 0, "velocity": 0, "duration": 935}, {"note": 85, "velocity": 92, "duration": 175}, {"note": 0, "velocity": 0, "duration": 65}, {"note": 85, "velocity": 93, "duration": 163}, {"note": 0, "velocity": 0, "duration": 77}, {"note": 83, "velocity": 94, "duration": 228}, {"note": 80, "velocity": 92, "duration": 159}, {"note": 0, "velocity": 0, "duration": 81}, {"note": 76, "velocity": 94, "duration": 221}, {"note": 73, "velocity": 101, "duration": 181}, {"note": 80, "velocity": 93, "duration": 227}, {"note": 80, "velocity": 91, "duration": 1200}, {"note": 0, "velocity": 0, "duration": 240}, {"note": 81, "velocity": 97, "duration": 228}, {"note": 80, "velocity": 94, "duration": 234}, {"note": 78, "velocity": 92, "duration": 1123}, {"note": 0, "velocity": 0, "duration": 77}, {"note": 71, "velocity": 101, "duration": 246}, {"note": 73, "velocity": 97, "duration": 174}, {"note": 0, "velocity": 0, "duration": 66}, {"note": 76, "velocity": 97, "duration": 71}, {"note": 76, "velocity": 94, "duration": 71}, {"note": 76, "velocity": 93, "duration": 622}, {"note": 0, "velocity": 0, "duration": 98}, {"note": 76, "velocity": 94, "duration": 60}, {"note": 76, "velocity": 92, "duration": 59}, {"note": 0, "velocity": 0, "duration": 61}, {"note": 76, "velocity": 92, "duration": 175}, {"note": 0, "velocity": 0, "duration": 65}, {"note": 80, "velocity": 97, "duration": 201}, {"note": 83, "velocity": 97, "duration": 98}, {"note": 85, "velocity": 95, "duration": 815}, {"note": 83, "velocity": 90, "duration": 90}, {"note": 80, "velocity": 94, "duration": 413}, {"note": 0, "velocity": 0, "duration": 187}, {"note": 80, "velocity": 92, "duration": 148}, {"note": 0, "velocity": 0, "duration": 92}, {"note": 80, "velocity": 94, "duration": 175}, {"note": 0, "velocity": 0, "duration": 65}, {"note": 78, "velocity": 89, "duration": 237}, {"note": 76, "velocity": 92, "duration": 120}, {"note": 76, "velocity": 91, "duration": 355}, {"note": 0, "velocity": 0, "duration": 245}, {"note": 80, "velocity": 94, "duration": 178}, {"note": 0, "velocity": 0, "duration": 62}, {"note": 80, "velocity": 94, "duration": 192}, {"note": 80, "velocity": 96, "duration": 184}, {"note": 81, "velocity": 91, "duration": 189}, {"note": 80, "velocity": 97, "duration": 120}, {"note": 78, "velocity": 88, "duration": 749}, {"note": 0, "velocity": 0, "duration": 571}, {"note": 71, "velocity": 90, "duration": 198}, {"note": 73, "velocity": 106, "duration": 172}, {"note": 0, "velocity": 0, "duration": 68}, {"note": 76, "velocity": 94, "duration": 72}, {"note": 76, "velocity": 91, "duration": 69}, {"note": 76, "velocity": 94, "duration": 571}, {"note": 0, "velocity": 0, "duration": 149}, {"note": 80, "velocity": 94, "duration": 57}, {"note": 0, "velocity": 0, "duration": 63}, {"note": 80, "velocity": 91, "duration": 62}, {"note": 80, "velocity": 92, "duration": 156}, {"note": 0, "velocity": 0, "duration": 84}, {"note": 78, "velocity": 97, "duration": 177}, {"note": 0, "velocity": 0, "duration": 63}, {"note": 80, "velocity": 94, "duration": 164}, {"note": 0, "velocity": 0, "duration": 76}, {"note": 80, "velocity": 93, "duration": 115}, {"note": 78, "velocity": 92, "duration": 104}, {"note": 76, "velocity": 94, "duration": 1000}, {"note": 0, "velocity": 0, "duration": 200}, {"note": 80, "velocity": 90, "duration": 148}, {"note": 0, "velocity": 0, "duration": 92}, {"note": 80, "velocity": 93, "duration": 182}, {"note": 78, "velocity": 99, "duration": 131}, {"note": 76, "velocity": 91, "duration": 113}, {"note": 0, "velocity": 0, "duration": 127}, {"note": 76, "velocity": 92, "duration": 355}, {"note": 0, "velocity": 0, "duration": 125}, {"note": 78, "velocity": 74, "duration": 74}, {"note": 80, "velocity": 94, "duration": 284}, {"note": 0, "velocity": 0, "duration": 76}, {"note": 80, "velocity": 92, "duration": 334}, {"note": 76, "velocity": 92, "duration": 92}, {"note": 78, "velocity": 96, "duration": 1560}, {"note": 71, "velocity": 101, "duration": 246}, {"note": 73, "velocity": 97, "duration": 174}, {"note": 0, "velocity": 0, "duration": 66}, {"note": 76, "velocity": 97, "duration": 71}, {"note": 76, "velocity": 94, "duration": 71}, {"note": 76, "velocity": 93, "duration": 622}, {"note": 0, "velocity": 0, "duration": 98}, {"note": 76, "velocity": 94, "duration": 60}, {"note": 76, "velocity": 92, "duration": 59}, {"note": 0, "velocity": 0, "duration": 61}, {"note": 76, "velocity": 92, "duration": 175}, {"note": 0, "velocity": 0, "duration": 65}, {"note": 80, "velocity": 97, "duration": 201}, {"note": 83, "velocity": 97, "duration": 98}, {"note": 85, "velocity": 95, "duration": 815}, {"note": 83, "velocity": 90, "duration": 90}, {"note": 80, "velocity": 94, "duration": 413}, {"note": 0, "velocity": 0, "duration": 187}, {"note": 80, "velocity": 92, "duration": 148}, {"note": 0, "velocity": 0, "duration": 92}, {"note": 80, "velocity": 94, "duration": 175}, {"note": 0, "velocity": 0, "duration": 65}, {"note": 78, "velocity": 89, "duration": 237}, {"note": 76, "velocity": 92, "duration": 120}, {"note": 76, "velocity": 91, "duration": 355}, {"note": 0, "velocity": 0, "duration": 245}, {"note": 80, "velocity": 94, "duration": 178}, {"note": 0, "velocity": 0, "duration": 62}, {"note": 80, "velocity": 94, "duration": 192}, {"note": 80, "velocity": 96, "duration": 184}, {"note": 81, "velocity": 91, "duration": 189}, {"note": 80, "velocity": 97, "duration": 120}, {"note": 78, "velocity": 88, "duration": 749}, {"note": 0, "velocity": 0, "duration": 571}, {"note": 71, "velocity": 90, "duration": 198}, {"note": 73, "velocity": 106, "duration": 172}, {"note": 0, "velocity": 0, "duration": 68}, {"note": 76, "velocity": 94, "duration": 72}, {"note": 76, "velocity": 91, "duration": 69}, {"note": 76, "velocity": 94, "duration": 571}, {"note": 0, "velocity": 0, "duration": 149}, {"note": 80, "velocity": 94, "duration": 57}, {"note": 0, "velocity": 0, "duration": 63}, {"note": 80, "velocity": 91, "duration": 62}, {"note": 80, "velocity": 92, "duration": 156}, {"note": 0, "velocity": 0, "duration": 84}, {"note": 78, "velocity": 97, "duration": 177}, {"note": 0, "velocity": 0, "duration": 63}, {"note": 80, "velocity": 94, "duration": 164}, {"note": 0, "velocity": 0, "duration": 76}, {"note": 80, "velocity": 93, "duration": 115}, {"note": 78, "velocity": 92, "duration": 104}, {"note": 76, "velocity": 94, "duration": 1000}, {"note": 0, "velocity": 0, "duration": 200}, {"note": 80, "velocity": 90, "duration": 148}, {"note": 0, "velocity": 0, "duration": 92}, {"note": 80, "velocity": 93, "duration": 182}, {"note": 78, "velocity": 99, "duration": 131}, {"note": 76, "velocity": 91, "duration": 113}, {"note": 0, "velocity": 0, "duration": 127}, {"note": 76, "velocity": 92, "duration": 355}, {"note": 0, "velocity": 0, "duration": 125}, {"note": 78, "velocity": 74, "duration": 74}, {"note": 80, "velocity": 94, "duration": 284}, {"note": 0, "velocity": 0, "duration": 76}, {"note": 80, "velocity": 92, "duration": 334}, {"note": 76, "velocity": 92, "duration": 92}, {"note": 78, "velocity": 96, "duration": 1560}]]