[[{"note": 69, "velocity": 90, "duration": 81}, {"note": 69, "velocity": 90, "duration": 57}, {"note": 0, "velocity": 0, "duration": 63}, {"note": 69, "velocity": 91, "duration": 80}, {"note": 67, "velocity": 90, "duration": 75}, {"note": 69, "velocity": 92, "duration": 221}, {"note": 72, "velocity": 90, "duration": 183}, {"note": 72, "velocity": 91, "duration": 858}, {"note": 0, "velocity": 0, "duration": 102}, {"note": 74, "velocity": 97, "duration": 63}, {"note": 74, "velocity": 97, "duration": 55}, {"note": 0, "velocity": 0, "duration": 65}, {"note": 74, "velocity": 101, "duration": 85}, {"note": 72, "velocity": 92, "duration": 51}, {"note": 0, "velocity": 0, "duration": 69}, {"note": 69, "velocity": 93, "duration": 192}, {"note": 74, "velocity": 97, "duration": 239}, {"note": 72, "velocity": 92, "duration": 858}, {"note": 0, "velocity": 0, "duration": 102}, {"note": 77, "velocity": 91, "duration": 77}, {"note": 77, "velocity": 91, "duration": 63}, {"note": 77, "velocity": 88, "duration": 105}, {"note": 74, "velocity": 97, "duration": 87}, {"note": 79, "velocity": 94, "duration": 189}, {"note": 77, "velocity": 96, "duration": 233}, {"note": 72, "velocity": 94, "duration": 562}, {"note": 0, "velocity": 0, "duration": 398}, {"note": 74, "velocity": 92, "duration": 69}, {"note": 74, "velocity": 93, "duration": 60}, {"note": 74, "velocity": 99, "duration": 95}, {"note": 77, "velocity": 97, "duration": 88}, {"note": 74, "velocity": 107, "duration": 225}, {"note": 72, "velocity": 94, "duration": 81}, {"note": 69, "velocity": 94, "duration": 325}, {"note": 67, "velocity": 89, "duration": 577}, {"note": 0, "velocity": 0, "duration": 143}, {"note": 69, "velocity": 88, "duration": 77}, {"note": 69, "velocity": 90, "duration": 66}, {"note": 69, "velocity": 91, "duration": 89}, {"note": 67, "velocity": 89, "duration": 86}, {"note": 69, "velocity": 96, "duration": 198}, {"note": 72, "velocity": 91, "duration": 83}, {"note": 72, "velocity": 91, "duration": 947}, {"note": 0, "velocity": 0, "duration": 133}, {"note": 74, "velocity": 93, "duration": 76}, {"note": 74, "velocity": 95, "duration": 69}, {"note": 74, "velocity": 96, "duration": 86}, {"note": 72, "velocity": 94, "duration": 85}, {"note": 69, "velocity": 97, "duration": 225}, {"note": 74, "velocity": 89, "duration": 178}, {"note": 0, "velocity": 0, "duration": 62}, {"note": 72, "velocity": 90, "duration": 689}, {"note": 0, "velocity": 0, "duration": 271}, {"note": 77, "velocity": 92, "duration": 181}, {"note": 77, "velocity": 92, "duration": 102}, {"note": 74, "velocity": 96, "duration": 93}, {"note": 79, "velocity": 94, "duration": 186}, {"note": 77, "velocity": 94, "duration": 220}, {"note": 72, "velocity": 93, "duration": 782}, {"note": 0, "velocity": 0, "duration": 178}, {"note": 74, "velocity": 99, "duration": 54}, {"note": 0, "velocity": 0, "duration": 66}, {"note": 74, "velocity": 93, "duration": 56}, {"note": 0, "velocity": 0, "duration": 64}, {"note": 74, "velocity": 94, "duration": 69}, {"note": 77, "velocity": 94, "duration": 73}, {"note": 74, "velocity": 106, "duration": 202}, {"note": 81, "velocity": 92, "duration": 201}, {"note": 79, "velocity": 92, "duration": 1013}, {"note": 0, "velocity": 0, "duration": 187}, {"note": 72, "velocity": 101, "duration": 171}, {"note": 0, "velocity": 0, "duration": 69}, {"note": 77, "velocity": 92, "duration": 199}, {"note": 79, "velocity": 95, "duration": 158}, {"note": 0, "velocity": 0, "duration": 82}, {"note": 81, "velocity": 94, "duration": 202}, {"note": 79, "velocity": 94, "duration": 279}, {"note": 77, "velocity": 96, "duration": 223}, {"note": 76, "velocity": 97, "duration": 221}, {"note": 77, "velocity": 92, "duration": 267}, {"note": 76, "velocity": 86, "duration": 216}, {"note": 74, "velocity": 95, "duration": 191}, {"note": 72, "velocity": 92, "duration": 183}, {"note": 74, "velocity": 97, "duration": 966}, {"note": 0, "velocity": 0, "duration": 714}, {"note": 77, "velocity": 96, "duration": 73}, {"note": 79, "velocity": 92, "duration": 71}, {"note": 81, "velocity": 96, "duration": 179}, {"note": 0, "velocity": 0, "duration": 61}, {"note": 79, "velocity": 93, "duration": 171}, {"note": 0, "velocity": 0, "duration": 69}, {"note": 77, "velocity": 97, "duration": 194}, {"note": 76, "velocity": 97, "duration": 78}, {"note": 77, "velocity": 94, "duration": 329}, {"note": 76, "velocity": 92, "duration": 168}, {"note": 0, "velocity": 0, "duration": 72}, {"note": 69, "velocity": 94, "duration": 196}, {"note": 72, "velocity": 93, "duration": 79}, {"note": 74, "velocity": 97, "duration": 1277}, {"note": 0, "velocity": 0, "duration": 523}, {"note": 74, "velocity": 101, "duration": 84}, {"note": 72, "velocity": 92, "duration": 69}, {"note": 74, "velocity": 104, "duration": 211}, {"note": 77, "velocity": 95, "duration": 840}, {"note": 0, "velocity": 0, "duration": 120}, {"note": 77, "velocity": 96, "duration": 404}, {"note": 0, "velocity": 0, "duration": 76}, {"note": 79, "velocity": 92, "duration": 201}, {"note": 81, "velocity": 90, "duration": 180}, {"note": 82, "velocity": 94, "duration": 198}, {"note": 81, "velocity": 95, "duration": 210}, {"note": 79, "velocity": 96, "duration": 102}, {"note": 77, "velocity": 90, "duration": 630}, {"note": 0, "velocity": 0, "duration": 210}, {"note": 74, "velocity": 106, "duration": 66}, {"note": 77, "velocity": 96, "duration": 77}, {"note": 82, "velocity": 97, "duration": 183}, {"note": 81, "velocity": 94, "duration": 213}, {"note": 79, "velocity": 96, "duration": 194}, {"note": 77, "velocity": 92, "duration": 90}, {"note": 82, "velocity": 94, "duration": 267}, {"note": 0, "velocity": 0, "duration": 93}, {"note": 81, "velocity": 94, "duration": 169}, {"note": 0, "velocity": 0, "duration": 71}, {"note": 79, "velocity": 96, "duration": 224}, {"note": 77, "velocity": 91, "duration": 186}, {"note": 79, "velocity": 97, "duration": 1006}, {"note": 0, "velocity": 0, "duration": 434}, {"note": 81, "velocity": 94, "duration": 185}, {"note": 79, "velocity": 96, "duration": 187}, {"note": 77, "velocity": 97, "duration": 401}, {"note": 0, "velocity": 0, "duration": 79}, {"note": 77, "velocity": 95, "duration": 202}, {"note": 79, "velocity": 93, "duration": 70}, {"note": 81, "velocity": 96, "duration": 600}, {"note": 0, "velocity": 0, "duration": 240}, {"note": 77, "velocity": 96, "duration": 165}, {"note": 0, "velocity": 0, "duration": 75}, {"note": 86, "velocity": 94, "duration": 161}, {"note": 0, "velocity": 0, "duration": 79}, {"note": 84, "velocity": 97, "duration": 143}, {"note": 0, "velocity": 0, "duration": 97}, {"note": 81, "velocity": 94, "duration": 85}, {"note": 79, "velocity": 89, "duration": 69}, {"note": 77, "velocity": 101, "duration": 193}, {"note": 74, "velocity": 101, "duration": 1016}, {"note": 0, "velocity": 0, "duration": 184}, {"note": 72, "velocity": 97, "duration": 177}, {"note": 0, "velocity": 0, "duration": 63}, {"note": 77, "velocity": 93, "duration": 160}, {"note": 0, "velocity": 0, "duration": 80}, {"note": 81, "velocity": 92, "duration": 153}, {"note": 0, "velocity": 0, "duration": 87}, {"note": 84, "velocity": 97, "duration": 169}, {"note": 0, "velocity": 0, "duration": 71}, {"note": 86, "velocity": 95, "duration": 151}, {"note": 0, "velocity": 0, "duration": 89}, {"note": 81, "velocity": 101, "duration": 91}, {"note": 79, "velocity": 91, "duration": 81}, {"note": 77, "velocity": 101, "duration": 216}, {"note": 74, "velocity": 101, "duration": 189}, {"note": 77, "velocity": 92, "duration": 138}, {"note": 0, "velocity": 0, "duration": 102}, {"note": 77, "velocity": 94, "duration": 87}, {"note": 79, "velocity": 94, "duration": 276}, {"note": 0, "velocity": 0, "duration": 84}, {"note": 77, "velocity": 92, "duration": 1602}, {"note": 0, "velocity": 0, "duration": 9918}, {"note": 69, "velocity": 90, "duration": 81}, {"note": 69, "velocity": 90, "duration": 57}, {"note": 0, "velocity": 0, "duration": 63}, {"note": 69, "velocity": 91, "duration": 80}, {"note": 67, "velocity": 90, "duration": 75}, {"note": 69, "velocity": 92, "duration": 221}, {"note": 72, "velocity": 90, "duration": 183}, {"note": 72, "velocity": 91, "duration": 858}, {"note": 0, "velocity": 0, "duration": 102}, {"note": 74, "velocity": 97, "duration": 63}, {"note": 74, "velocity": 97, "duration": 55}, {"note": 0, "velocity": 0, "duration": 65}, {"note": 74, "velocity": 101, "duration": 85}, {"note": 72, "velocity": 92, "duration": 51}, {"note": 0, "velocity": 0, "duration": 69}, {"note": 69, "velocity": 93, "duration": 192}, {"note": 74, "velocity": 97, "duration": 239}, {"note": 72, "velocity": 92, "duration": 858}, {"note": 0, "velocity": 0, "duration": 102}, {"note": 77, "velocity": 91, "duration": 77}, {"note": 77, "velocity": 91, "duration": 63}, {"note": 77, "velocity": 88, "duration": 105}, {"note": 74, "velocity": 97, "duration": 87}, {"note": 79, "velocity": 94, "duration": 189}, {"note": 77, "velocity": 96, "duration": 233}, {"note": 72, "velocity": 94, "duration": 562}, {"note": 0, "velocity": 0, "duration": 398}, {"note": 74, "velocity": 92, "duration": 69}, {"note": 74, "velocity": 93, "duration": 60}, {"note": 74, "velocity": 99, "duration": 95}, {"note": 77, "velocity": 97, "duration": 88}, {"note": 74, "velocity": 107, "duration": 225}, {"note": 72, "velocity": 94, "duration": 81}, {"note": 69, "velocity": 94, "duration": 325}, {"note": 67, "velocity": 89, "duration": 577}, {"note": 0, "velocity": 0, "duration": 143}, {"note": 69, "velocity": 88, "duration": 77}, {"note": 69, "velocity": 90, "duration": 66}, {"note": 69, "velocity": 91, "duration": 89}, {"note": 67, "velocity": 89, "duration": 86}, {"note": 69, "velocity": 96, "duration": 198}, {"note": 72, "velocity": 91, "duration": 83}, {"note": 72, "velocity": 91, "duration": 947}, {"note": 0, "velocity": 0, "duration": 133}, {"note": 74, "velocity": 93, "duration": 76}, {"note": 74, "velocity": 95, "duration": 69}, {"note": 74, "velocity": 96, "duration": 86}, {"note": 72, "velocity": 94, "duration": 85}, {"note": 69, "velocity": 97, "duration": 225}, {"note": 74, "velocity": 89, "duration": 178}, {"note": 0, "velocity": 0, "duration": 62}, {"note": 72, "velocity": 90, "duration": 689}, {"note": 0, "velocity": 0, "duration": 271}, {"note": 77, "velocity": 92, "duration": 181}, {"note": 77, "velocity": 92, "duration": 102}, {"note": 74, "velocity": 96, "duration": 93}, {"note": 79, "velocity": 94, "duration": 186}, {"note": 77, "velocity": 94, "duration": 220}, {"note": 72, "velocity": 93, "duration": 782}, {"note": 0, "velocity": 0, "duration": 178}, {"note": 74, "velocity": 99, "duration": 54}, {"note": 0, "velocity": 0, "duration": 66}, {"note": 74, "velocity": 93, "duration": 56}, {"note": 0, "velocity": 0, "duration": 64}, {"note": 74, "velocity": 94, "duration": 69}, {"note": 77, "velocity": 94, "duration": 73}, {"note": 74, "velocity": 106, "duration": 202}, {"note": 81, "velocity": 92, "duration": 201}, {"note": 79, "velocity": 92, "duration": 1013}, {"note": 0, "velocity": 0, "duration": 187}, {"note": 72, "velocity": 101, "duration": 171}, {"note": 0, "velocity": 0, "duration": 69}, {"note": 77, "velocity": 92, "duration": 199}, {"note": 79, "velocity": 95, "duration": 158}, {"note": 0, "velocity": 0, "duration": 82}, {"note": 81, "velocity": 94, "duration": 202}, {"note": 79, "velocity": 94, "duration": 279}, {"note": 77, "velocity": 96, "duration": 223}, {"note": 76, "velocity": 97, "duration": 221}, {"note": 77, "velocity": 92, "duration": 267}, {"note": 76, "velocity": 86, "duration": 216}, {"note": 74, "velocity": 95, "duration": 191}, {"note": 72, "velocity": 92, "duration": 183}, {"note": 74, "velocity": 97, "duration": 966}, {"note": 0, "velocity": 0, "duration": 714}, {"note": 77, "velocity": 96, "duration": 73}, {"note": 79, "velocity": 92, "duration": 71}, {"note": 81, "velocity": 96, "duration": 179}, {"note": 0, "velocity": 0, "duration": 61}, {"note": 79, "velocity": 93, "duration": 171}, {"note": 0, "velocity": 0, "duration": 69}, {"note": 77, "velocity": 97, "duration": 194}, {"note": 76, "velocity": 97, "duration": 78}, {"note": 77, "velocity": 94, "duration": 329}, {"note": 76, "velocity": 92, "duration": 168}, {"note": 0, "velocity": 0, "duration": 72}, {"note": 69, "velocity": 94, "duration": 196}, {"note": 72, "velocity": 93, "duration": 79}, {"note": 74, "velocity": 97, "duration": 1277}, {"note": 0, "velocity": 0, "duration": 523}, {"note": 74, "velocity": 101, "duration": 84}, {"note": 72, "velocity": 92, "duration": 69}, {"note": 74, "velocity": 104, "duration": 211}, {"note": 77, "velocity": 95, "duration": 840}, {"note": 0, "velocity": 0, "duration": 120}, {"note": 77, "velocity": 96, "duration": 404}, {"note": 0, "velocity": 0, "duration": 76}, {"note": 79, "velocity": 92, "duration": 201}, {"note": 81, "velocity": 90, "duration": 180}, {"note": 82, "velocity": 94, "duration": 198}, {"note": 81, "velocity": 95, "duration": 210}, {"note": 79, "velocity": 96, "duration": 102}, {"note": 77, "velocity": 90, "duration": 630}, {"note": 0, "velocity": 0, "duration": 210}, {"note": 74, "velocity": 106, "duration": 66}, {"note": 77, "velocity": 96, "duration": 77}, {"note": 82, "velocity": 97, "duration": 183}, {"note": 81, "velocity": 94, "duration": 213}, {"note": 79, "velocity": 96, "duration": 194}, {"note": 77, "velocity": 92, "duration": 90}, {"note": 82, "velocity": 94, "duration": 267}, {"note": 0, "velocity": 0, "duration": 93}, {"note": 81, "velocity": 94, "duration": 169}, {"note": 0, "velocity": 0, "duration": 71}, {"note": 79, "velocity": 96, "duration": 224}, {"note": 77, "velocity": 91, "duration": 186}, {"note": 79, "velocity": 97, "duration": 1006}, {"note": 0, "velocity": 0, "duration": 434}, {"note": 81, "velocity": 94, "duration": 185}, {"note": 79, "velocity": 96, "duration": 187}, {"note": 77, "velocity": 97, "duration": 401}, {"note": 0, "velocity": 0, "duration": 79}, {"note": 77, "velocity": 95, "duration": 202}, {"note": 79, "velocity": 93, "duration": 70}, {"note": 81, "velocity": 96, "duration": 600}, {"note": 0, "velocity": 0, "duration": 240}, {"note": 77, "velocity": 96, "duration": 165}, {"note": 0, "velocity": 0, "duration": 75}, {"note": 86, "velocity": 94, "duration": 161}, {"note": 0, "velocity": 0, "duration": 79}, {"note": 84, "velocity": 97, "duration": 143}, {"note": 0, "velocity": 0, "duration": 97}, {"note": 81, "velocity": 94, "duration": 85}, {"note": 79, "velocity": 89, "duration": 69}, {"note": 77, "velocity": 101, "duration": 193}, {"note": 74, "velocity": 101, "duration": 1016}, {"note": 0, "velocity": 0, "duration": 184}, {"note": 72, "velocity": 97, "duration": 177}, {"note": 0, "velocity": 0, "duration": 63}, {"note": 77, "velocity": 93, "duration": 160}, {"note": 0, "velocity": 0, "duration": 80}, {"note": 81, "velocity": 92, "duration": 153}, {"note": 0, "velocity": 0, "duration": 87}, {"note": 84, "velocity": 97, "duration": 169}, {"note": 0, "velocity": 0, "duration": 71}, {"note": 86, "velocity": 95, "duration": 151}, {"note": 0, "velocity": 0, "duration": 89}, {"note": 81, "velocity": 101, "duration": 91}, {"note": 79, "velocity": 91, "duration": 81}, {"note": 77, "velocity": 101, "duration": 216}, {"note": 74, "velocity": 101, "duration": 189}, {"note": 77, "velocity": 92, "duration": 138}, {"note": 0, "velocity": 0, "duration": 102}, {"note": 77, "velocity": 94, "duration": 87}, {"note": 79, "velocity": 94, "duration": 276}, {"note": 0, "velocity": 0, "duration": 84}, {"note": 77, "velocity": 92, "duration": 1602}, {"note": 0, "velocity": 0, "duration": 3438}, {"note": 72, "velocity": 101, "duration": 171}, {"note": 0, "velocity": 0, "duration": 69}, {"note": 77, "velocity": 92, "duration": 199}, {"note": 79, "velocity": 95, "duration": 158}, {"note": 0, "velocity": 0, "duration": 82}, {"note": 81, "velocity": 94, "duration": 202}, {"note": 79, "velocity": 94, "duration": 279}, {"note": 77, "velocity": 96, "duration": 223}, {"note": 76, "velocity": 97, "duration": 221}, {"note": 77, "velocity": 92, "duration": 267}, {"note": 76, "velocity": 86, "duration": 216}, {"note": 74, "velocity": 95, "duration": 191}, {"note": 72, "velocity": 92, "duration": 183}, {"note": 74, "velocity": 97, "duration": 966}, {"note": 0, "velocity": 0, "duration": 714}, {"note": 77, "velocity": 96, "duration": 73}, {"note": 79, "velocity": 92, "duration": 71}, {"note": 81, "velocity": 96, "duration": 179}, {"note": 0, "velocity": 0, "duration": 61}, {"note": 79, "velocity": 93, "duration": 171}, {"note": 0, "velocity": 0, "duration": 69}, {"note": 77, "velocity": 97, "duration": 194}, {"note": 76, "velocity": 97, "duration": 78}, {"note": 77, "velocity": 94, "duration": 329}, {"note": 76, "velocity": 92, "duration": 168}, {"note": 0, "velocity": 0, "duration": 72}, {"note": 69, "velocity": 94, "duration": 196}, {"note": 72, "velocity": 93, "duration": 79}, {"note": 74, "velocity": 97, "duration": 1277}, {"note": 0, "velocity": 0, "duration": 523}, {"note": 74, "velocity": 101, "duration": 84}, {"note": 72, "velocity": 92, "duration": 69}, {"note": 74, "velocity": 104, "duration": 211}, {"note": 77, "velocity": 95, "duration": 840}, {"note": 0, "velocity": 0, "duration": 120}, {"note": 77, "velocity": 96, "duration": 404}, {"note": 0, "velocity": 0, "duration": 76}, {"note": 79, "velocity": 92, "duration": 201}, {"note": 81, "velocity": 90, "duration": 180}, {"note": 82, "velocity": 94, "duration": 198}, {"note": 81, "velocity": 95, "duration": 210}, {"note": 79, "velocity": 96, "duration": 102}, {"note": 77, "velocity": 90, "duration": 630}, {"note": 0, "velocity": 0, "duration": 210}, {"note": 74, "velocity": 106, "duration": 66}, {"note": 77, "velocity": 96, "duration": 77}, {"note": 82, "velocity": 97, "duration": 183}, {"note": 81, "velocity": 94, "duration": 213}, {"note": 79, "velocity": 96, "duration": 194}, {"note": 77, "velocity": 92, "duration": 90}, {"note": 82, "velocity": 94, "duration": 267}, {"note": 0, "velocity": 0, "duration": 93}, {"note": 81, "velocity": 94, "duration": 169}, {"note": 0, "velocity": 0, "duration": 71}, {"note": 79, "velocity": 96, "duration": 224}, {"note": 77, "velocity": 91, "duration": 186}, {"note": 79, "velocity": 97, "duration": 1006}, {"note": 0, "velocity": 0, "duration": 434}, {"note": 81, "velocity": 94, "duration": 185}, {"note": 79, "velocity": 96, "duration": 187}, {"note": 77, "velocity": 97, "duration": 401}, {"note": 0, "velocity": 0, "duration": 79}, {"note": 77, "velocity": 95, "duration": 202}, {"note": 79, "velocity": 93, "duration": 70}, {"note": 81, "velocity": 96, "duration": 600}, {"note": 0, "velocity": 0, "duration": 240}, {"note": 77, "velocity": 96, "duration": 165}, {"note": 0, "velocity": 0, "duration": 75}, {"note": 86, "velocity": 94, "duration": 161}, {"note": 0, "velocity": 0, "duration": 79}, {"note": 84, "velocity": 97, "duration": 143}, {"note": 0, "velocity": 0, "duration": 97}, {"note": 81, "velocity": 94, "duration": 85}, {"note": 79, "velocity": 89, "duration": 69}, {"note": 77, "velocity": 101, "duration": 193}, {"note": 74, "velocity": 101, "duration": 1016}, {"note": 0, "velocity": 0, "duration": 184}, {"note": 72, "velocity": 97, "duration": 177}, {"note": 0, "velocity": 0, "duration": 63}, {"note": 77, "velocity": 93, "duration": 160}, {"note": 0, "velocity": 0, "duration": 80}, {"note": 81, "velocity": 92, "duration": 153}, {"note": 0, "velocity": 0, "duration": 87}, {"note": 84, "velocity": 97, "duration": 169}, {"note": 0, "velocity": 0, "duration": 71}, {"note": 86, "velocity": 95, "duration": 151}, {"note": 0, "velocity": 0, "duration": 89}, {"note": 81, "velocity": 101, "duration": 91}, {"note": 79, "velocity": 91, "duration": 81}, {"note": 77, "velocity": 101, "duration": 216}, {"note": 74, "velocity": 101, "duration": 189}, {"note": 77, "velocity": 92, "duration": 138}, {"note": 0, "velocity": 0, "duration": 102}, {"note": 77, "velocity": 94, "duration": 87}, {"note": 79, "velocity": 94, "duration": 276}, {"note": 0, "velocity": 0, "duration": 84}, {"note": 77, "velocity": 92, "duration": 1602}]]