[[{"note": 71, "velocity": 95, "duration": 182}, {"note": 73, "velocity": 99, "duration": 183}, {"note": 74, "velocity": 101, "duration": 201}, {"note": 73, "velocity": 101, "duration": 224}, {"note": 71, "velocity": 99, "duration": 427}, {"note": 69, "velocity": 95, "duration": 385}, {"note": 0, "velocity": 0, "duration": 95}, {"note": 71, "velocity": 96, "duration": 1522}, {"note": 0, "velocity": 0, "duration": 398}, {"note": 71, "velocity": 97, "duration": 179}, {"note": 0, "velocity": 0, "duration": 61}, {"note": 73, "velocity": 87, "duration": 136}, {"note": 0, "velocity": 0, "duration": 104}, {"note": 74, "velocity": 96, "duration": 182}, {"note": 73, "velocity": 100, "duration": 201}, {"note": 71, "velocity": 99, "duration": 391}, {"note": 0, "velocity": 0, "duration": 89}, {"note": 73, "velocity": 99, "duration": 403}, {"note": 0, "velocity": 0, "duration": 77}, {"note": 66, "velocity": 97, "duration": 1557}, {"note": 0, "velocity": 0, "duration": 363}, {"note": 71, "velocity": 101, "duration": 251}, {"note": 73, "velocity": 96, "duration": 131}, {"note": 0, "velocity": 0, "duration": 109}, {"note": 74, "velocity": 102, "duration": 169}, {"note": 0, "velocity": 0, "duration": 71}, {"note": 73, "velocity": 100, "duration": 215}, {"note": 71, "velocity": 99, "duration": 397}, {"note": 0, "velocity": 0, "duration": 83}, {"note": 78, "velocity": 99, "duration": 369}, {"note": 0, "velocity": 0, "duration": 111}, {"note": 76, "velocity": 99, "duration": 806}, {"note": 74, "velocity": 99, "duration": 159}, {"note": 0, "velocity": 0, "duration": 81}, {"note": 76, "velocity": 99, "duration": 769}, {"note": 0, "velocity": 0, "duration": 191}, {"note": 74, "velocity": 102, "duration": 148}, {"note": 0, "velocity": 0, "duration": 92}, {"note": 76, "velocity": 97, "duration": 174}, {"note": 0, "velocity": 0, "duration": 66}, {"note": 78, "velocity": 98, "duration": 207}, {"note": 76, "velocity": 99, "duration": 193}, {"note": 74, "velocity": 99, "duration": 380}, {"note": 0, "velocity": 0, "duration": 100}, {"note": 76, "velocity": 97, "duration": 197}, {"note": 78, "velocity": 94, "duration": 179}, {"note": 0, "velocity": 0, "duration": 61}, {"note": 73, "velocity": 97, "duration": 1649}, {"note": 0, "velocity": 0, "duration": 271}, {"note": 71, "velocity": 95, "duration": 182}, {"note": 73, "velocity": 99, "duration": 183}, {"note": 74, "velocity": 101, "duration": 201}, {"note": 73, "velocity": 101, "duration": 224}, {"note": 71, "velocity": 99, "duration": 427}, {"note": 69, "velocity": 95, "duration": 385}, {"note": 0, "velocity": 0, "duration": 95}, {"note": 71, "velocity": 96, "duration": 1522}, {"note": 0, "velocity": 0, "duration": 398}, {"note": 71, "velocity": 97, "duration": 179}, {"note": 0, "velocity": 0, "duration": 61}, {"note": 73, "velocity": 87, "duration": 136}, {"note": 0, "velocity": 0, "duration": 104}, {"note": 74, "velocity": 96, "duration": 182}, {"note": 73, "velocity": 100, "duration": 201}, {"note": 71, "velocity": 99, "duration": 391}, {"note": 0, "velocity": 0, "duration": 89}, {"note": 73, "velocity": 99, "duration": 403}, {"note": 0, "velocity": 0, "duration": 77}, {"note": 66, "velocity": 97, "duration": 1557}, {"note": 0, "velocity": 0, "duration": 363}, {"note": 71, "velocity": 101, "duration": 251}, {"note": 73, "velocity": 96, "duration": 131}, {"note": 0, "velocity": 0, "duration": 109}, {"note": 74, "velocity": 102, "duration": 169}, {"note": 0, "velocity": 0, "duration": 71}, {"note": 73, "velocity": 100, "duration": 215}, {"note": 71, "velocity": 99, "duration": 397}, {"note": 0, "velocity": 0, "duration": 83}, {"note": 78, "velocity": 99, "duration": 369}, {"note": 0, "velocity": 0, "duration": 111}, {"note": 76, "velocity": 99, "duration": 806}, {"note": 74, "velocity": 99, "duration": 159}, {"note": 0, "velocity": 0, "duration": 81}, {"note": 76, "velocity": 99, "duration": 769}, {"note": 0, "velocity": 0, "duration": 191}, {"note": 74, "velocity": 102, "duration": 148}, {"note": 0, "velocity": 0, "duration": 92}, {"note": 76, "velocity": 97, "duration": 174}, {"note": 0, "velocity": 0, "duration": 66}, {"note": 78, "velocity": 98, "duration": 207}, {"note": 76, "velocity": 99, "duration": 193}, {"note": 74, "velocity": 99, "duration": 380}, {"note": 0, "velocity": 0, "duration": 100}, {"note": 73, "velocity": 97, "duration": 197}, {"note": 71, "velocity": 94, "duration": 179}, {"note": 0, "velocity": 0, "duration": 61}, {"note": 71, "velocity": 97, "duration": 1649}, {"note": 0, "velocity": 0, "duration": 271}, {"note": 78, "velocity": 106, "duration": 202}, {"note": 81, "velocity": 101, "duration": 150}, {"note": 0, "velocity": 0, "duration": 90}, {"note": 83, "velocity": 100, "duration": 171}, {"note": 0, "velocity": 0, "duration": 69}, {"note": 81, "velocity": 102, "duration": 169}, {"note": 0, "velocity": 0, "duration": 71}, {"note": 76, "velocity": 106, "duration": 603}, {"note": 0, "velocity": 0, "duration": 357}, {"note": 78, "velocity": 100, "duration": 316}, {"note": 0, "velocity": 0, "duration": 164}, {"note": 74, "velocity": 100, "duration": 197}, {"note": 73, "velocity": 101, "duration": 220}, {"note": 71, "velocity": 100, "duration": 747}, {"note": 0, "velocity": 0, "duration": 213}, {"note": 78, "velocity": 97, "duration": 165}, {"note": 0, "velocity": 0, "duration": 75}, {"note": 81, "velocity": 98, "duration": 149}, {"note": 0, "velocity": 0, "duration": 91}, {"note": 83, "velocity": 97, "duration": 165}, {"note": 0, "velocity": 0, "duration": 75}, {"note": 81, "velocity": 98, "duration": 137}, {"note": 0, "velocity": 0, "duration": 103}, {"note": 76, "velocity": 100, "duration": 393}, {"note": 0, "velocity": 0, "duration": 87}, {"note": 74, "velocity": 104, "duration": 133}, {"note": 0, "velocity": 0, "duration": 107}, {"note": 76, "velocity": 99, "duration": 160}, {"note": 0, "velocity": 0, "duration": 80}, {"note": 78, "velocity": 98, "duration": 1615}, {"note": 0, "velocity": 0, "duration": 305}, {"note": 78, "velocity": 104, "duration": 165}, {"note": 0, "velocity": 0, "duration": 75}, {"note": 81, "velocity": 97, "duration": 132}, {"note": 0, "velocity": 0, "duration": 108}, {"note": 83, "velocity": 99, "duration": 155}, {"note": 0, "velocity": 0, "duration": 85}, {"note": 81, "velocity": 95, "duration": 140}, {"note": 0, "velocity": 0, "duration": 100}, {"note": 76, "velocity": 101, "duration": 789}, {"note": 0, "velocity": 0, "duration": 171}, {"note": 76, "velocity": 98, "duration": 238}, {"note": 78, "velocity": 101, "duration": 215}, {"note": 76, "velocity": 102, "duration": 442}, {"note": 74, "velocity": 104, "duration": 655}, {"note": 0, "velocity": 0, "duration": 305}, {"note": 76, "velocity": 82, "duration": 179}, {"note": 0, "velocity": 0, "duration": 61}, {"note": 74, "velocity": 95, "duration": 116}, {"note": 0, "velocity": 0, "duration": 124}, {"note": 76, "velocity": 99, "duration": 136}, {"note": 0, "velocity": 0, "duration": 104}, {"note": 74, "velocity": 104, "duration": 146}, {"note": 0, "velocity": 0, "duration": 94}, {"note": 76, "velocity": 100, "duration": 392}, {"note": 0, "velocity": 0, "duration": 88}, {"note": 79, "velocity": 100, "duration": 414}, {"note": 0, "velocity": 0, "duration": 66}, {"note": 78, "velocity": 104, "duration": 1503}, {"note": 0, "velocity": 0, "duration": 417}, {"note": 78, "velocity": 96, "duration": 142}, {"note": 0, "velocity": 0, "duration": 98}, {"note": 81, "velocity": 93, "duration": 130}, {"note": 0, "velocity": 0, "duration": 110}, {"note": 83, "velocity": 97, "duration": 156}, {"note": 0, "velocity": 0, "duration": 84}, {"note": 81, "velocity": 95, "duration": 184}, {"note": 76, "velocity": 99, "duration": 849}, {"note": 0, "velocity": 0, "duration": 111}, {"note": 78, "velocity": 97, "duration": 351}, {"note": 0, "velocity": 0, "duration": 129}, {"note": 74, "velocity": 100, "duration": 172}, {"note": 0, "velocity": 0, "duration": 68}, {"note": 73, "velocity": 100, "duration": 168}, {"note": 0, "velocity": 0, "duration": 72}, {"note": 71, "velocity": 91, "duration": 562}, {"note": 0, "velocity": 0, "duration": 398}, {"note": 78, "velocity": 97, "duration": 159}, {"note": 0, "velocity": 0, "duration": 81}, {"note": 81, "velocity": 97, "duration": 140}, {"note": 0, "velocity": 0, "duration": 100}, {"note": 83, "velocity": 97, "duration": 176}, {"note": 0, "velocity": 0, "duration": 64}, {"note": 81, "velocity": 99, "duration": 144}, {"note": 0, "velocity": 0, "duration": 96}, {"note": 83, "velocity": 99, "duration": 410}, {"note": 0, "velocity": 0, "duration": 70}, {"note": 85, "velocity": 106, "duration": 240}, {"note": 83, "velocity": 96, "duration": 98}, {"note": 0, "velocity": 0, "duration": 142}, {"note": 78, "velocity": 104, "duration": 1349}, {"note": 0, "velocity": 0, "duration": 571}, {"note": 78, "velocity": 101, "duration": 136}, {"note": 0, "velocity": 0, "duration": 104}, {"note": 81, "velocity": 97, "duration": 137}, {"note": 0, "velocity": 0, "duration": 103}, {"note": 83, "velocity": 96, "duration": 144}, {"note": 0, "velocity": 0, "duration": 96}, {"note": 81, "velocity": 95, "duration": 136}, {"note": 0, "velocity": 0, "duration": 104}, {"note": 76, "velocity": 104, "duration": 881}, {"note": 0, "velocity": 0, "duration": 79}, {"note": 78, "velocity": 99, "duration": 342}, {"note": 0, "velocity": 0, "duration": 138}, {"note": 76, "velocity": 93, "duration": 459}, {"note": 74, "velocity": 97, "duration": 638}, {"note": 0, "velocity": 0, "duration": 322}, {"note": 76, "velocity": 98, "duration": 149}, {"note": 0, "velocity": 0, "duration": 91}, {"note": 76, "velocity": 96, "duration": 114}, {"note": 0, "velocity": 0, "duration": 126}, {"note": 76, "velocity": 99, "duration": 140}, {"note": 0, "velocity": 0, "duration": 100}, {"note": 78, "velocity": 97, "duration": 165}, {"note": 0, "velocity": 0, "duration": 75}, {"note": 76, "velocity": 99, "duration": 327}, {"note": 0, "velocity": 0, "duration": 153}, {"note": 69, "velocity": 97, "duration": 411}, {"note": 0, "velocity": 0, "duration": 69}, {"note": 71, "velocity": 99, "duration": 1734}, {"note": 0, "velocity": 0, "duration": 23226}, {"note": 71, "velocity": 95, "duration": 182}, {"note": 73, "velocity": 99, "duration": 183}, {"note": 74, "velocity": 101, "duration": 201}, {"note": 73, "velocity": 101, "duration": 224}, {"note": 71, "velocity": 99, "duration": 427}, {"note": 69, "velocity": 95, "duration": 385}, {"note": 0, "velocity": 0, "duration": 95}, {"note": 71, "velocity": 96, "duration": 1522}, {"note": 0, "velocity": 0, "duration": 398}, {"note": 71, "velocity": 97, "duration": 179}, {"note": 0, "velocity": 0, "duration": 61}, {"note": 73, "velocity": 87, "duration": 136}, {"note": 0, "velocity": 0, "duration": 104}, {"note": 74, "velocity": 96, "duration": 182}, {"note": 73, "velocity": 100, "duration": 201}, {"note": 71, "velocity": 99, "duration": 391}, {"note": 0, "velocity": 0, "duration": 89}, {"note": 73, "velocity": 99, "duration": 403}, {"note": 0, "velocity": 0, "duration": 77}, {"note": 66, "velocity": 97, "duration": 1557}, {"note": 0, "velocity": 0, "duration": 363}, {"note": 71, "velocity": 101, "duration": 251}, {"note": 73, "velocity": 96, "duration": 131}, {"note": 0, "velocity": 0, "duration": 109}, {"note": 74, "velocity": 102, "duration": 169}, {"note": 0, "velocity": 0, "duration": 71}, {"note": 73, "velocity": 100, "duration": 215}, {"note": 71, "velocity": 99, "duration": 397}, {"note": 0, "velocity": 0, "duration": 83}, {"note": 78, "velocity": 99, "duration": 369}, {"note": 0, "velocity": 0, "duration": 111}, {"note": 76, "velocity": 99, "duration": 806}, {"note": 74, "velocity": 99, "duration": 159}, {"note": 0, "velocity": 0, "duration": 81}, {"note": 76, "velocity": 99, "duration": 769}, {"note": 0, "velocity": 0, "duration": 191}, {"note": 74, "velocity": 102, "duration": 148}, {"note": 0, "velocity": 0, "duration": 92}, {"note": 76, "velocity": 97, "duration": 174}, {"note": 0, "velocity": 0, "duration": 66}, {"note": 78, "velocity": 98, "duration": 207}, {"note": 76, "velocity": 99, "duration": 193}, {"note": 74, "velocity": 99, "duration": 380}, {"note": 0, "velocity": 0, "duration": 100}, {"note": 73, "velocity": 97, "duration": 197}, {"note": 71, "velocity": 94, "duration": 179}, {"note": 0, "velocity": 0, "duration": 61}, {"note": 71, "velocity": 97, "duration": 1649}, {"note": 0, "velocity": 0, "duration": 271}, {"note": 78, "velocity": 106, "duration": 202}, {"note": 81, "velocity": 101, "duration": 150}, {"note": 0, "velocity": 0, "duration": 90}, {"note": 83, "velocity": 100, "duration": 171}, {"note": 0, "velocity": 0, "duration": 69}, {"note": 81, "velocity": 102, "duration": 169}, {"note": 0, "velocity": 0, "duration": 71}, {"note": 76, "velocity": 106, "duration": 603}, {"note": 0, "velocity": 0, "duration": 357}, {"note": 78, "velocity": 100, "duration": 316}, {"note": 0, "velocity": 0, "duration": 164}, {"note": 74, "velocity": 100, "duration": 197}, {"note": 73, "velocity": 101, "duration": 220}, {"note": 71, "velocity": 100, "duration": 747}, {"note": 0, "velocity": 0, "duration": 213}, {"note": 78, "velocity": 97, "duration": 165}, {"note": 0, "velocity": 0, "duration": 75}, {"note": 81, "velocity": 98, "duration": 149}, {"note": 0, "velocity": 0, "duration": 91}, {"note": 83, "velocity": 97, "duration": 165}, {"note": 0, "velocity": 0, "duration": 75}, {"note": 81, "velocity": 98, "duration": 137}, {"note": 0, "velocity": 0, "duration": 103}, {"note": 76, "velocity": 100, "duration": 393}, {"note": 0, "velocity": 0, "duration": 87}, {"note": 74, "velocity": 104, "duration": 133}, {"note": 0, "velocity": 0, "duration": 107}, {"note": 76, "velocity": 99, "duration": 160}, {"note": 0, "velocity": 0, "duration": 80}, {"note": 78, "velocity": 98, "duration": 1615}, {"note": 0, "velocity": 0, "duration": 305}, {"note": 78, "velocity": 104, "duration": 165}, {"note": 0, "velocity": 0, "duration": 75}, {"note": 81, "velocity": 97, "duration": 132}, {"note": 0, "velocity": 0, "duration": 108}, {"note": 83, "velocity": 99, "duration": 155}, {"note": 0, "velocity": 0, "duration": 85}, {"note": 81, "velocity": 95, "duration": 140}, {"note": 0, "velocity": 0, "duration": 100}, {"note": 76, "velocity": 101, "duration": 789}, {"note": 0, "velocity": 0, "duration": 171}, {"note": 76, "velocity": 98, "duration": 238}, {"note": 78, "velocity": 101, "duration": 215}, {"note": 76, "velocity": 102, "duration": 442}, {"note": 74, "velocity": 104, "duration": 655}, {"note": 0, "velocity": 0, "duration": 305}, {"note": 76, "velocity": 82, "duration": 179}, {"note": 0, "velocity": 0, "duration": 61}, {"note": 74, "velocity": 95, "duration": 116}, {"note": 0, "velocity": 0, "duration": 124}, {"note": 76, "velocity": 99, "duration": 136}, {"note": 0, "velocity": 0, "duration": 104}, {"note": 74, "velocity": 104, "duration": 146}, {"note": 0, "velocity": 0, "duration": 94}, {"note": 76, "velocity": 100, "duration": 392}, {"note": 0, "velocity": 0, "duration": 88}, {"note": 79, "velocity": 100, "duration": 414}, {"note": 0, "velocity": 0, "duration": 66}, {"note": 78, "velocity": 104, "duration": 1503}, {"note": 0, "velocity": 0, "duration": 417}, {"note": 78, "velocity": 96, "duration": 142}, {"note": 0, "velocity": 0, "duration": 98}, {"note": 81, "velocity": 93, "duration": 130}, {"note": 0, "velocity": 0, "duration": 110}, {"note": 83, "velocity": 97, "duration": 156}, {"note": 0, "velocity": 0, "duration": 84}, {"note": 81, "velocity": 95, "duration": 184}, {"note": 76, "velocity": 99, "duration": 849}, {"note": 0, "velocity": 0, "duration": 111}, {"note": 78, "velocity": 97, "duration": 351}, {"note": 0, "velocity": 0, "duration": 129}, {"note": 74, "velocity": 100, "duration": 172}, {"note": 0, "velocity": 0, "duration": 68}, {"note": 73, "velocity": 100, "duration": 168}, {"note": 0, "velocity": 0, "duration": 72}, {"note": 71, "velocity": 91, "duration": 562}, {"note": 0, "velocity": 0, "duration": 398}, {"note": 78, "velocity": 97, "duration": 159}, {"note": 0, "velocity": 0, "duration": 81}, {"note": 81, "velocity": 97, "duration": 140}, {"note": 0, "velocity": 0, "duration": 100}, {"note": 83, "velocity": 97, "duration": 176}, {"note": 0, "velocity": 0, "duration": 64}, {"note": 81, "velocity": 99, "duration": 144}, {"note": 0, "velocity": 0, "duration": 96}, {"note": 83, "velocity": 99, "duration": 410}, {"note": 0, "velocity": 0, "duration": 70}, {"note": 85, "velocity": 106, "duration": 240}, {"note": 83, "velocity": 96, "duration": 98}, {"note": 0, "velocity": 0, "duration": 142}, {"note": 78, "velocity": 104, "duration": 1349}, {"note": 0, "velocity": 0, "duration": 571}, {"note": 78, "velocity": 101, "duration": 136}, {"note": 0, "velocity": 0, "duration": 104}, {"note": 81, "velocity": 97, "duration": 137}, {"note": 0, "velocity": 0, "duration": 103}, {"note": 83, "velocity": 96, "duration": 144}, {"note": 0, "velocity": 0, "duration": 96}, {"note": 81, "velocity": 95, "duration": 136}, {"note": 0, "velocity": 0, "duration": 104}, {"note": 76, "velocity": 104, "duration": 881}, {"note": 0, "velocity": 0, "duration": 79}, {"note": 78, "velocity": 99, "duration": 342}, {"note": 0, "velocity": 0, "duration": 138}, {"note": 76, "velocity": 93, "duration": 459}, {"note": 74, "velocity": 97, "duration": 638}, {"note": 0, "velocity": 0, "duration": 322}, {"note": 76, "velocity": 98, "duration": 149}, {"note": 0, "velocity": 0, "duration": 91}, {"note": 76, "velocity": 96, "duration": 114}, {"note": 0, "velocity": 0, "duration": 126}, {"note": 76, "velocity": 99, "duration": 140}, {"note": 0, "velocity": 0, "duration": 100}, {"note": 78, "velocity": 97, "duration": 165}, {"note": 0, "velocity": 0, "duration": 75}, {"note": 76, "velocity": 99, "duration": 327}, {"note": 0, "velocity": 0, "duration": 153}, {"note": 69, "velocity": 97, "duration": 411}, {"note": 0, "velocity": 0, "duration": 69}, {"note": 71, "velocity": 99, "duration": 1734}, {"note": 0, "velocity": 0, "duration": 186}, {"note": 78, "velocity": 106, "duration": 202}, {"note": 81, "velocity": 101, "duration": 150}, {"note": 0, "velocity": 0, "duration": 90}, {"note": 83, "velocity": 100, "duration": 171}, {"note": 0, "velocity": 0, "duration": 69}, {"note": 81, "velocity": 102, "duration": 169}, {"note": 0, "velocity": 0, "duration": 71}, {"note": 76, "velocity": 106, "duration": 603}, {"note": 0, "velocity": 0, "duration": 357}, {"note": 78, "velocity": 100, "duration": 316}, {"note": 0, "velocity": 0, "duration": 164}, {"note": 74, "velocity": 100, "duration": 197}, {"note": 73, "velocity": 101, "duration": 220}, {"note": 71, "velocity": 100, "duration": 747}, {"note": 0, "velocity": 0, "duration": 213}, {"note": 78, "velocity": 97, "duration": 165}, {"note": 0, "velocity": 0, "duration": 75}, {"note": 81, "velocity": 98, "duration": 149}, {"note": 0, "velocity": 0, "duration": 91}, {"note": 83, "velocity": 97, "duration": 165}, {"note": 0, "velocity": 0, "duration": 75}, {"note": 81, "velocity": 98, "duration": 137}, {"note": 0, "velocity": 0, "duration": 103}, {"note": 76, "velocity": 100, "duration": 393}, {"note": 0, "velocity": 0, "duration": 87}, {"note": 74, "velocity": 104, "duration": 133}, {"note": 0, "velocity": 0, "duration": 107}, {"note": 76, "velocity": 99, "duration": 160}, {"note": 0, "velocity": 0, "duration": 80}, {"note": 78, "velocity": 98, "duration": 1615}, {"note": 0, "velocity": 0, "duration": 305}, {"note": 78, "velocity": 104, "duration": 165}, {"note": 0, "velocity": 0, "duration": 75}, {"note": 81, "velocity": 97, "duration": 132}, {"note": 0, "velocity": 0, "duration": 108}, {"note": 83, "velocity": 99, "duration": 155}, {"note": 0, "velocity": 0, "duration": 85}, {"note": 81, "velocity": 95, "duration": 140}, {"note": 0, "velocity": 0, "duration": 100}, {"note": 76, "velocity": 101, "duration": 789}, {"note": 0, "velocity": 0, "duration": 171}, {"note": 76, "velocity": 98, "duration": 238}, {"note": 78, "velocity": 101, "duration": 215}, {"note": 76, "velocity": 102, "duration": 442}, {"note": 74, "velocity": 104, "duration": 655}, {"note": 0, "velocity": 0, "duration": 305}, {"note": 76, "velocity": 82, "duration": 179}, {"note": 0, "velocity": 0, "duration": 61}, {"note": 74, "velocity": 95, "duration": 116}, {"note": 0, "velocity": 0, "duration": 124}, {"note": 76, "velocity": 99, "duration": 136}, {"note": 0, "velocity": 0, "duration": 104}, {"note": 74, "velocity": 104, "duration": 146}, {"note": 0, "velocity": 0, "duration": 94}, {"note": 76, "velocity": 100, "duration": 392}, {"note": 0, "velocity": 0, "duration": 88}, {"note": 79, "velocity": 100, "duration": 414}, {"note": 0, "velocity": 0, "duration": 66}, {"note": 78, "velocity": 104, "duration": 1503}, {"note": 0, "velocity": 0, "duration": 417}, {"note": 78, "velocity": 96, "duration": 142}, {"note": 0, "velocity": 0, "duration": 98}, {"note": 81, "velocity": 93, "duration": 130}, {"note": 0, "velocity": 0, "duration": 110}, {"note": 83, "velocity": 97, "duration": 156}, {"note": 0, "velocity": 0, "duration": 84}, {"note": 81, "velocity": 95, "duration": 184}, {"note": 76, "velocity": 99, "duration": 849}, {"note": 0, "velocity": 0, "duration": 111}, {"note": 78, "velocity": 97, "duration": 351}, {"note": 0, "velocity": 0, "duration": 129}, {"note": 74, "velocity": 100, "duration": 172}, {"note": 0, "velocity": 0, "duration": 68}, {"note": 73, "velocity": 100, "duration": 168}, {"note": 0, "velocity": 0, "duration": 72}, {"note": 71, "velocity": 91, "duration": 562}, {"note": 0, "velocity": 0, "duration": 398}, {"note": 78, "velocity": 97, "duration": 159}, {"note": 0, "velocity": 0, "duration": 81}, {"note": 81, "velocity": 97, "duration": 140}, {"note": 0, "velocity": 0, "duration": 100}, {"note": 83, "velocity": 97, "duration": 176}, {"note": 0, "velocity": 0, "duration": 64}, {"note": 81, "velocity": 99, "duration": 144}, {"note": 0, "velocity": 0, "duration": 96}, {"note": 83, "velocity": 99, "duration": 410}, {"note": 0, "velocity": 0, "duration": 70}, {"note": 85, "velocity": 106, "duration": 240}, {"note": 83, "velocity": 96, "duration": 98}, {"note": 0, "velocity": 0, "duration": 142}, {"note": 78, "velocity": 104, "duration": 1349}, {"note": 0, "velocity": 0, "duration": 571}, {"note": 78, "velocity": 101, "duration": 136}, {"note": 0, "velocity": 0, "duration": 104}, {"note": 81, "velocity": 97, "duration": 137}, {"note": 0, "velocity": 0, "duration": 103}, {"note": 83, "velocity": 96, "duration": 144}, {"note": 0, "velocity": 0, "duration": 96}, {"note": 81, "velocity": 95, "duration": 136}, {"note": 0, "velocity": 0, "duration": 104}, {"note": 76, "velocity": 104, "duration": 881}, {"note": 0, "velocity": 0, "duration": 79}, {"note": 78, "velocity": 99, "duration": 342}, {"note": 0, "velocity": 0, "duration": 138}, {"note": 76, "velocity": 93, "duration": 459}, {"note": 74, "velocity": 97, "duration": 638}, {"note": 0, "velocity": 0, "duration": 322}, {"note": 76, "velocity": 98, "duration": 149}, {"note": 0, "velocity": 0, "duration": 91}, {"note": 76, "velocity": 96, "duration": 114}, {"note": 0, "velocity": 0, "duration": 126}, {"note": 76, "velocity": 99, "duration": 140}, {"note": 0, "velocity": 0, "duration": 100}, {"note": 78, "velocity": 97, "duration": 165}, {"note": 0, "velocity": 0, "duration": 75}, {"note": 76, "velocity": 99, "duration": 327}, {"note": 0, "velocity": 0, "duration": 153}, {"note": 69, "velocity": 97, "duration": 411}, {"note": 0, "velocity": 0, "duration": 69}, {"note": 71, "velocity": 99, "duration": 1734}, {"note": 0, "velocity": 0, "duration": 378}, {"note": 74, "velocity": 106, "duration": 278}, {"note": 76, "velocity": 97, "duration": 333}, {"note": 0, "velocity": 0, "duration": 140}, {"note": 76, "velocity": 95, "duration": 348}, {"note": 0, "velocity": 0, "duration": 92}, {"note": 78, "velocity": 96, "duration": 334}, {"note": 0, "velocity": 0, "duration": 141}, {"note": 76, "velocity": 101, "duration": 1324}, {"note": 0, "velocity": 0, "duration": 881}, {"note": 69, "velocity": 94, "duration": 828}, {"note": 71, "velocity": 93, "duration": 528}, {"note": 0, "velocity": 0, "duration": 233}, {"note": 71, "velocity": 88, "duration": 2740}]]