[[{"note": 75, "velocity": 95, "duration": 176}, {"note": 0, "velocity": 0, "duration": 64}, {"note": 77, "velocity": 93, "duration": 190}, {"note": 75, "velocity": 99, "duration": 144}, {"note": 0, "velocity": 0, "duration": 96}, {"note": 77, "velocity": 92, "duration": 167}, {"note": 0, "velocity": 0, "duration": 73}, {"note": 79, "velocity": 88, "duration": 149}, {"note": 0, "velocity": 0, "duration": 91}, {"note": 79, "velocity": 84, "duration": 127}, {"note": 0, "velocity": 0, "duration": 113}, {"note": 79, "velocity": 82, "duration": 162}, {"note": 0, "velocity": 0, "duration": 78}, {"note": 79, "velocity": 89, "duration": 202}, {"note": 77, "velocity": 92, "duration": 118}, {"note": 0, "velocity": 0, "duration": 122}, {"note": 77, "velocity": 91, "duration": 144}, {"note": 0, "velocity": 0, "duration": 96}, {"note": 75, "velocity": 99, "duration": 153}, {"note": 0, "velocity": 0, "duration": 87}, {"note": 74, "velocity": 88, "duration": 164}, {"note": 0, "velocity": 0, "duration": 76}, {"note": 75, "velocity": 92, "duration": 138}, {"note": 0, "velocity": 0, "duration": 102}, {"note": 77, "velocity": 88, "duration": 150}, {"note": 0, "velocity": 0, "duration": 90}, {"note": 75, "velocity": 95, "duration": 257}, {"note": 0, "velocity": 0, "duration": 223}, {"note": 75, "velocity": 95, "duration": 128}, {"note": 0, "velocity": 0, "duration": 112}, {"note": 72, "velocity": 90, "duration": 167}, {"note": 0, "velocity": 0, "duration": 73}, {"note": 70, "velocity": 88, "duration": 145}, {"note": 0, "velocity": 0, "duration": 95}, {"note": 72, "velocity": 90, "duration": 136}, {"note": 0, "velocity": 0, "duration": 104}, {"note": 80, "velocity": 86, "duration": 130}, {"note": 0, "velocity": 0, "duration": 110}, {"note": 80, "velocity": 90, "duration": 118}, {"note": 0, "velocity": 0, "duration": 122}, {"note": 80, "velocity": 88, "duration": 132}, {"note": 0, "velocity": 0, "duration": 108}, {"note": 80, "velocity": 88, "duration": 155}, {"note": 0, "velocity": 0, "duration": 85}, {"note": 79, "velocity": 90, "duration": 167}, {"note": 0, "velocity": 0, "duration": 73}, {"note": 77, "velocity": 87, "duration": 127}, {"note": 0, "velocity": 0, "duration": 113}, {"note": 75, "velocity": 90, "duration": 122}, {"note": 0, "velocity": 0, "duration": 118}, {"note": 74, "velocity": 94, "duration": 142}, {"note": 0, "velocity": 0, "duration": 98}, {"note": 75, "velocity": 90, "duration": 148}, {"note": 0, "velocity": 0, "duration": 92}, {"note": 79, "velocity": 91, "duration": 145}, {"note": 0, "velocity": 0, "duration": 95}, {"note": 77, "velocity": 92, "duration": 280}, {"note": 0, "velocity": 0, "duration": 200}, {"note": 75, "velocity": 91, "duration": 136}, {"note": 0, "velocity": 0, "duration": 104}, {"note": 74, "velocity": 97, "duration": 123}, {"note": 0, "velocity": 0, "duration": 117}, {"note": 72, "velocity": 90, "duration": 136}, {"note": 0, "velocity": 0, "duration": 104}, {"note": 74, "velocity": 94, "duration": 136}, {"note": 0, "velocity": 0, "duration": 104}, {"note": 82, "velocity": 89, "duration": 389}, {"note": 0, "velocity": 0, "duration": 91}, {"note": 82, "velocity": 92, "duration": 330}, {"note": 0, "velocity": 0, "duration": 150}, {"note": 80, "velocity": 91, "duration": 130}, {"note": 0, "velocity": 0, "duration": 110}, {"note": 79, "velocity": 92, "duration": 175}, {"note": 0, "velocity": 0, "duration": 65}, {"note": 77, "velocity": 90, "duration": 136}, {"note": 0, "velocity": 0, "duration": 104}, {"note": 77, "velocity": 90, "duration": 240}, {"note": 77, "velocity": 89, "duration": 253}, {"note": 0, "velocity": 0, "duration": 227}, {"note": 76, "velocity": 92, "duration": 280}, {"note": 0, "velocity": 0, "duration": 200}, {"note": 77, "velocity": 92, "duration": 153}, {"note": 0, "velocity": 0, "duration": 87}, {"note": 79, "velocity": 94, "duration": 298}, {"note": 0, "velocity": 0, "duration": 182}, {"note": 79, "velocity": 90, "duration": 186}, {"note": 0, "velocity": 0, "duration": 294}, {"note": 80, "velocity": 86, "duration": 165}, {"note": 0, "velocity": 0, "duration": 75}, {"note": 80, "velocity": 94, "duration": 378}, {"note": 0, "velocity": 0, "duration": 102}, {"note": 79, "velocity": 94, "duration": 165}, {"note": 0, "velocity": 0, "duration": 75}, {"note": 77, "velocity": 99, "duration": 122}, {"note": 0, "velocity": 0, "duration": 118}, {"note": 75, "velocity": 95, "duration": 139}, {"note": 0, "velocity": 0, "duration": 101}, {"note": 74, "velocity": 99, "duration": 361}, {"note": 0, "velocity": 0, "duration": 119}, {"note": 72, "velocity": 94, "duration": 137}, {"note": 0, "velocity": 0, "duration": 103}, {"note": 70, "velocity": 95, "duration": 438}, {"note": 75, "velocity": 105, "duration": 105}, {"note": 0, "velocity": 0, "duration": 135}, {"note": 77, "velocity": 92, "duration": 183}, {"note": 75, "velocity": 95, "duration": 113}, {"note": 0, "velocity": 0, "duration": 127}, {"note": 77, "velocity": 92, "duration": 153}, {"note": 0, "velocity": 0, "duration": 87}, {"note": 79, "velocity": 92, "duration": 136}, {"note": 0, "velocity": 0, "duration": 104}, {"note": 79, "velocity": 90, "duration": 118}, {"note": 0, "velocity": 0, "duration": 122}, {"note": 79, "velocity": 90, "duration": 117}, {"note": 0, "velocity": 0, "duration": 123}, {"note": 79, "velocity": 95, "duration": 172}, {"note": 0, "velocity": 0, "duration": 68}, {"note": 77, "velocity": 97, "duration": 100}, {"note": 0, "velocity": 0, "duration": 140}, {"note": 77, "velocity": 95, "duration": 136}, {"note": 0, "velocity": 0, "duration": 104}, {"note": 75, "velocity": 86, "duration": 155}, {"note": 0, "velocity": 0, "duration": 85}, {"note": 74, "velocity": 79, "duration": 146}, {"note": 0, "velocity": 0, "duration": 94}, {"note": 75, "velocity": 93, "duration": 117}, {"note": 0, "velocity": 0, "duration": 123}, {"note": 77, "velocity": 89, "duration": 149}, {"note": 0, "velocity": 0, "duration": 91}, {"note": 75, "velocity": 88, "duration": 208}, {"note": 0, "velocity": 0, "duration": 272}, {"note": 75, "velocity": 92, "duration": 140}, {"note": 0, "velocity": 0, "duration": 100}, {"note": 72, "velocity": 90, "duration": 123}, {"note": 0, "velocity": 0, "duration": 117}, {"note": 70, "velocity": 89, "duration": 126}, {"note": 0, "velocity": 0, "duration": 114}, {"note": 72, "velocity": 90, "duration": 135}, {"note": 0, "velocity": 0, "duration": 105}, {"note": 80, "velocity": 90, "duration": 114}, {"note": 0, "velocity": 0, "duration": 126}, {"note": 80, "velocity": 89, "duration": 117}, {"note": 0, "velocity": 0, "duration": 123}, {"note": 80, "velocity": 87, "duration": 117}, {"note": 0, "velocity": 0, "duration": 123}, {"note": 80, "velocity": 90, "duration": 157}, {"note": 0, "velocity": 0, "duration": 83}, {"note": 82, "velocity": 89, "duration": 126}, {"note": 0, "velocity": 0, "duration": 114}, {"note": 77, "velocity": 77, "duration": 142}, {"note": 0, "velocity": 0, "duration": 98}, {"note": 75, "velocity": 88, "duration": 136}, {"note": 0, "velocity": 0, "duration": 104}, {"note": 74, "velocity": 89, "duration": 149}, {"note": 0, "velocity": 0, "duration": 91}, {"note": 75, "velocity": 88, "duration": 138}, {"note": 0, "velocity": 0, "duration": 102}, {"note": 79, "velocity": 89, "duration": 154}, {"note": 0, "velocity": 0, "duration": 86}, {"note": 77, "velocity": 90, "duration": 172}, {"note": 0, "velocity": 0, "duration": 308}, {"note": 75, "velocity": 94, "duration": 146}, {"note": 0, "velocity": 0, "duration": 94}, {"note": 74, "velocity": 91, "duration": 145}, {"note": 0, "velocity": 0, "duration": 95}, {"note": 72, "velocity": 88, "duration": 140}, {"note": 0, "velocity": 0, "duration": 100}, {"note": 74, "velocity": 90, "duration": 125}, {"note": 0, "velocity": 0, "duration": 115}, {"note": 82, "velocity": 89, "duration": 361}, {"note": 0, "velocity": 0, "duration": 119}, {"note": 82, "velocity": 90, "duration": 361}, {"note": 0, "velocity": 0, "duration": 119}, {"note": 80, "velocity": 89, "duration": 148}, {"note": 0, "velocity": 0, "duration": 92}, {"note": 79, "velocity": 92, "duration": 159}, {"note": 0, "velocity": 0, "duration": 81}, {"note": 77, "velocity": 89, "duration": 145}, {"note": 0, "velocity": 0, "duration": 95}, {"note": 77, "velocity": 94, "duration": 199}, {"note": 0, "velocity": 0, "duration": 281}, {"note": 77, "velocity": 89, "duration": 148}, {"note": 0, "velocity": 0, "duration": 92}, {"note": 76, "velocity": 88, "duration": 325}, {"note": 0, "velocity": 0, "duration": 155}, {"note": 77, "velocity": 92, "duration": 114}, {"note": 0, "velocity": 0, "duration": 126}, {"note": 79, "velocity": 90, "duration": 167}, {"note": 0, "velocity": 0, "duration": 73}, {"note": 82, "velocity": 88, "duration": 118}, {"note": 0, "velocity": 0, "duration": 122}, {"note": 79, "velocity": 88, "duration": 163}, {"note": 0, "velocity": 0, "duration": 77}, {"note": 80, "velocity": 88, "duration": 329}, {"note": 0, "velocity": 0, "duration": 151}, {"note": 80, "velocity": 90, "duration": 310}, {"note": 0, "velocity": 0, "duration": 170}, {"note": 79, "velocity": 85, "duration": 111}, {"note": 0, "velocity": 0, "duration": 129}, {"note": 77, "velocity": 88, "duration": 110}, {"note": 0, "velocity": 0, "duration": 130}, {"note": 75, "velocity": 90, "duration": 110}, {"note": 0, "velocity": 0, "duration": 130}, {"note": 84, "velocity": 81, "duration": 199}, {"note": 0, "velocity": 0, "duration": 281}, {"note": 84, "velocity": 94, "duration": 135}, {"note": 0, "velocity": 0, "duration": 105}, {"note": 82, "velocity": 89, "duration": 937}, {"note": 0, "velocity": 0, "duration": 263}, {"note": 79, "velocity": 92, "duration": 258}, {"note": 0, "velocity": 0, "duration": 102}, {"note": 80, "velocity": 85, "duration": 95}, {"note": 79, "velocity": 88, "duration": 291}, {"note": 0, "velocity": 0, "duration": 69}, {"note": 80, "velocity": 82, "duration": 76}, {"note": 79, "velocity": 76, "duration": 174}, {"note": 0, "velocity": 0, "duration": 66}, {"note": 80, "velocity": 90, "duration": 333}, {"note": 0, "velocity": 0, "duration": 147}, {"note": 82, "velocity": 90, "duration": 271}, {"note": 0, "velocity": 0, "duration": 449}, {"note": 79, "velocity": 84, "duration": 240}, {"note": 84, "velocity": 89, "duration": 334}, {"note": 0, "velocity": 0, "duration": 146}, {"note": 82, "velocity": 94, "duration": 347}, {"note": 0, "velocity": 0, "duration": 373}, {"note": 75, "velocity": 92, "duration": 289}, {"note": 0, "velocity": 0, "duration": 71}, {"note": 77, "velocity": 89, "duration": 91}, {"note": 75, "velocity": 92, "duration": 297}, {"note": 0, "velocity": 0, "duration": 63}, {"note": 77, "velocity": 87, "duration": 77}, {"note": 75, "velocity": 94, "duration": 127}, {"note": 0, "velocity": 0, "duration": 113}, {"note": 77, "velocity": 95, "duration": 339}, {"note": 0, "velocity": 0, "duration": 141}, {"note": 79, "velocity": 92, "duration": 424}, {"note": 0, "velocity": 0, "duration": 296}, {"note": 75, "velocity": 95, "duration": 117}, {"note": 0, "velocity": 0, "duration": 123}, {"note": 80, "velocity": 88, "duration": 360}, {"note": 0, "velocity": 0, "duration": 120}, {"note": 79, "velocity": 93, "duration": 316}, {"note": 0, "velocity": 0, "duration": 404}, {"note": 72, "velocity": 92, "duration": 280}, {"note": 0, "velocity": 0, "duration": 80}, {"note": 70, "velocity": 88, "duration": 86}, {"note": 72, "velocity": 91, "duration": 293}, {"note": 0, "velocity": 0, "duration": 67}, {"note": 70, "velocity": 90, "duration": 99}, {"note": 72, "velocity": 90, "duration": 163}, {"note": 0, "velocity": 0, "duration": 77}, {"note": 75, "velocity": 95, "duration": 319}, {"note": 0, "velocity": 0, "duration": 161}, {"note": 70, "velocity": 92, "duration": 324}, {"note": 0, "velocity": 0, "duration": 156}, {"note": 67, "velocity": 102, "duration": 82}, {"note": 0, "velocity": 0, "duration": 158}, {"note": 77, "velocity": 82, "duration": 158}, {"note": 0, "velocity": 0, "duration": 82}, {"note": 75, "velocity": 99, "duration": 340}, {"note": 0, "velocity": 0, "duration": 140}, {"note": 77, "velocity": 90, "duration": 136}, {"note": 0, "velocity": 0, "duration": 104}, {"note": 79, "velocity": 93, "duration": 302}, {"note": 0, "velocity": 0, "duration": 178}, {"note": 80, "velocity": 90, "duration": 329}, {"note": 0, "velocity": 0, "duration": 151}, {"note": 72, "velocity": 91, "duration": 154}, {"note": 0, "velocity": 0, "duration": 86}, {"note": 74, "velocity": 92, "duration": 367}, {"note": 0, "velocity": 0, "duration": 113}, {"note": 75, "velocity": 99, "duration": 293}, {"note": 0, "velocity": 0, "duration": 187}, {"note": 77, "velocity": 92, "duration": 373}, {"note": 0, "velocity": 0, "duration": 107}, {"note": 79, "velocity": 93, "duration": 129}, {"note": 0, "velocity": 0, "duration": 111}, {"note": 77, "velocity": 90, "duration": 128}, {"note": 0, "velocity": 0, "duration": 112}, {"note": 79, "velocity": 92, "duration": 140}, {"note": 0, "velocity": 0, "duration": 100}, {"note": 77, "velocity": 97, "duration": 352}, {"note": 0, "velocity": 0, "duration": 608}, {"note": 79, "velocity": 92, "duration": 258}, {"note": 0, "velocity": 0, "duration": 102}, {"note": 80, "velocity": 85, "duration": 95}, {"note": 79, "velocity": 88, "duration": 291}, {"note": 0, "velocity": 0, "duration": 69}, {"note": 80, "velocity": 82, "duration": 76}, {"note": 79, "velocity": 76, "duration": 174}, {"note": 0, "velocity": 0, "duration": 66}, {"note": 80, "velocity": 90, "duration": 333}, {"note": 0, "velocity": 0, "duration": 147}, {"note": 82, "velocity": 90, "duration": 271}, {"note": 0, "velocity": 0, "duration": 449}, {"note": 79, "velocity": 84, "duration": 240}, {"note": 84, "velocity": 89, "duration": 334}, {"note": 0, "velocity": 0, "duration": 146}, {"note": 82, "velocity": 94, "duration": 347}, {"note": 0, "velocity": 0, "duration": 373}, {"note": 75, "velocity": 92, "duration": 289}, {"note": 0, "velocity": 0, "duration": 71}, {"note": 77, "velocity": 89, "duration": 91}, {"note": 75, "velocity": 92, "duration": 297}, {"note": 0, "velocity": 0, "duration": 63}, {"note": 77, "velocity": 87, "duration": 77}, {"note": 75, "velocity": 94, "duration": 127}, {"note": 0, "velocity": 0, "duration": 113}, {"note": 77, "velocity": 95, "duration": 339}, {"note": 0, "velocity": 0, "duration": 141}, {"note": 79, "velocity": 92, "duration": 424}, {"note": 0, "velocity": 0, "duration": 296}, {"note": 75, "velocity": 95, "duration": 117}, {"note": 0, "velocity": 0, "duration": 123}, {"note": 80, "velocity": 88, "duration": 360}, {"note": 0, "velocity": 0, "duration": 120}, {"note": 79, "velocity": 93, "duration": 316}, {"note": 0, "velocity": 0, "duration": 404}, {"note": 72, "velocity": 92, "duration": 280}, {"note": 0, "velocity": 0, "duration": 80}, {"note": 70, "velocity": 88, "duration": 86}, {"note": 72, "velocity": 91, "duration": 293}, {"note": 0, "velocity": 0, "duration": 67}, {"note": 70, "velocity": 90, "duration": 99}, {"note": 72, "velocity": 90, "duration": 163}, {"note": 0, "velocity": 0, "duration": 77}, {"note": 75, "velocity": 95, "duration": 319}, {"note": 0, "velocity": 0, "duration": 161}, {"note": 70, "velocity": 92, "duration": 324}, {"note": 0, "velocity": 0, "duration": 156}, {"note": 67, "velocity": 102, "duration": 82}, {"note": 0, "velocity": 0, "duration": 158}, {"note": 77, "velocity": 82, "duration": 158}, {"note": 0, "velocity": 0, "duration": 82}, {"note": 75, "velocity": 99, "duration": 340}, {"note": 0, "velocity": 0, "duration": 140}, {"note": 77, "velocity": 90, "duration": 136}, {"note": 0, "velocity": 0, "duration": 104}, {"note": 79, "velocity": 93, "duration": 302}, {"note": 0, "velocity": 0, "duration": 178}, {"note": 79, "velocity": 90, "duration": 329}, {"note": 0, "velocity": 0, "duration": 151}, {"note": 72, "velocity": 91, "duration": 154}, {"note": 0, "velocity": 0, "duration": 86}, {"note": 75, "velocity": 92, "duration": 367}, {"note": 0, "velocity": 0, "duration": 113}, {"note": 77, "velocity": 99, "duration": 293}, {"note": 0, "velocity": 0, "duration": 187}, {"note": 79, "velocity": 92, "duration": 373}, {"note": 0, "velocity": 0, "duration": 347}, {"note": 75, "velocity": 92, "duration": 158}, {"note": 0, "velocity": 0, "duration": 82}, {"note": 75, "velocity": 95, "duration": 686}, {"note": 74, "velocity": 92, "duration": 138}, {"note": 0, "velocity": 0, "duration": 102}, {"note": 75, "velocity": 95, "duration": 2135}, {"note": 0, "velocity": 0, "duration": 12745}, {"note": 75, "velocity": 105, "duration": 105}, {"note": 0, "velocity": 0, "duration": 135}, {"note": 77, "velocity": 92, "duration": 183}, {"note": 75, "velocity": 95, "duration": 113}, {"note": 0, "velocity": 0, "duration": 127}, {"note": 77, "velocity": 92, "duration": 153}, {"note": 0, "velocity": 0, "duration": 87}, {"note": 79, "velocity": 92, "duration": 136}, {"note": 0, "velocity": 0, "duration": 104}, {"note": 79, "velocity": 90, "duration": 118}, {"note": 0, "velocity": 0, "duration": 122}, {"note": 79, "velocity": 90, "duration": 117}, {"note": 0, "velocity": 0, "duration": 123}, {"note": 79, "velocity": 95, "duration": 172}, {"note": 0, "velocity": 0, "duration": 68}, {"note": 77, "velocity": 97, "duration": 100}, {"note": 0, "velocity": 0, "duration": 140}, {"note": 77, "velocity": 95, "duration": 136}, {"note": 0, "velocity": 0, "duration": 104}, {"note": 75, "velocity": 86, "duration": 155}, {"note": 0, "velocity": 0, "duration": 85}, {"note": 74, "velocity": 79, "duration": 146}, {"note": 0, "velocity": 0, "duration": 94}, {"note": 75, "velocity": 93, "duration": 117}, {"note": 0, "velocity": 0, "duration": 123}, {"note": 77, "velocity": 89, "duration": 149}, {"note": 0, "velocity": 0, "duration": 91}, {"note": 75, "velocity": 88, "duration": 208}, {"note": 0, "velocity": 0, "duration": 272}, {"note": 75, "velocity": 92, "duration": 140}, {"note": 0, "velocity": 0, "duration": 100}, {"note": 72, "velocity": 90, "duration": 123}, {"note": 0, "velocity": 0, "duration": 117}, {"note": 70, "velocity": 89, "duration": 126}, {"note": 0, "velocity": 0, "duration": 114}, {"note": 72, "velocity": 90, "duration": 135}, {"note": 0, "velocity": 0, "duration": 105}, {"note": 80, "velocity": 90, "duration": 114}, {"note": 0, "velocity": 0, "duration": 126}, {"note": 80, "velocity": 89, "duration": 117}, {"note": 0, "velocity": 0, "duration": 123}, {"note": 80, "velocity": 87, "duration": 117}, {"note": 0, "velocity": 0, "duration": 123}, {"note": 80, "velocity": 90, "duration": 157}, {"note": 0, "velocity": 0, "duration": 83}, {"note": 82, "velocity": 89, "duration": 126}, {"note": 0, "velocity": 0, "duration": 114}, {"note": 77, "velocity": 77, "duration": 142}, {"note": 0, "velocity": 0, "duration": 98}, {"note": 75, "velocity": 88, "duration": 136}, {"note": 0, "velocity": 0, "duration": 104}, {"note": 74, "velocity": 89, "duration": 149}, {"note": 0, "velocity": 0, "duration": 91}, {"note": 75, "velocity": 88, "duration": 138}, {"note": 0, "velocity": 0, "duration": 102}, {"note": 79, "velocity": 89, "duration": 154}, {"note": 0, "velocity": 0, "duration": 86}, {"note": 77, "velocity": 90, "duration": 172}, {"note": 0, "velocity": 0, "duration": 308}, {"note": 75, "velocity": 94, "duration": 146}, {"note": 0, "velocity": 0, "duration": 94}, {"note": 74, "velocity": 91, "duration": 145}, {"note": 0, "velocity": 0, "duration": 95}, {"note": 72, "velocity": 88, "duration": 140}, {"note": 0, "velocity": 0, "duration": 100}, {"note": 74, "velocity": 90, "duration": 125}, {"note": 0, "velocity": 0, "duration": 115}, {"note": 82, "velocity": 89, "duration": 361}, {"note": 0, "velocity": 0, "duration": 119}, {"note": 82, "velocity": 90, "duration": 361}, {"note": 0, "velocity": 0, "duration": 119}, {"note": 80, "velocity": 89, "duration": 148}, {"note": 0, "velocity": 0, "duration": 92}, {"note": 79, "velocity": 92, "duration": 159}, {"note": 0, "velocity": 0, "duration": 81}, {"note": 77, "velocity": 89, "duration": 145}, {"note": 0, "velocity": 0, "duration": 95}, {"note": 77, "velocity": 94, "duration": 199}, {"note": 0, "velocity": 0, "duration": 281}, {"note": 77, "velocity": 89, "duration": 148}, {"note": 0, "velocity": 0, "duration": 92}, {"note": 76, "velocity": 88, "duration": 325}, {"note": 0, "velocity": 0, "duration": 155}, {"note": 77, "velocity": 92, "duration": 114}, {"note": 0, "velocity": 0, "duration": 126}, {"note": 79, "velocity": 90, "duration": 167}, {"note": 0, "velocity": 0, "duration": 73}, {"note": 82, "velocity": 88, "duration": 118}, {"note": 0, "velocity": 0, "duration": 122}, {"note": 79, "velocity": 88, "duration": 163}, {"note": 0, "velocity": 0, "duration": 77}, {"note": 80, "velocity": 88, "duration": 329}, {"note": 0, "velocity": 0, "duration": 151}, {"note": 80, "velocity": 90, "duration": 310}, {"note": 0, "velocity": 0, "duration": 170}, {"note": 79, "velocity": 85, "duration": 111}, {"note": 0, "velocity": 0, "duration": 129}, {"note": 77, "velocity": 88, "duration": 110}, {"note": 0, "velocity": 0, "duration": 130}, {"note": 75, "velocity": 90, "duration": 110}, {"note": 0, "velocity": 0, "duration": 130}, {"note": 84, "velocity": 81, "duration": 199}, {"note": 0, "velocity": 0, "duration": 281}, {"note": 84, "velocity": 94, "duration": 135}, {"note": 0, "velocity": 0, "duration": 105}, {"note": 82, "velocity": 89, "duration": 937}, {"note": 0, "velocity": 0, "duration": 263}, {"note": 72, "velocity": 95, "duration": 347}, {"note": 0, "velocity": 0, "duration": 133}, {"note": 72, "velocity": 99, "duration": 158}, {"note": 0, "velocity": 0, "duration": 82}, {"note": 72, "velocity": 93, "duration": 402}, {"note": 0, "velocity": 0, "duration": 78}, {"note": 68, "velocity": 94, "duration": 503}, {"note": 0, "velocity": 0, "duration": 217}, {"note": 79, "velocity": 97, "duration": 374}, {"note": 0, "velocity": 0, "duration": 106}, {"note": 77, "velocity": 99, "duration": 160}, {"note": 0, "velocity": 0, "duration": 80}, {"note": 74, "velocity": 92, "duration": 410}, {"note": 0, "velocity": 0, "duration": 70}, {"note": 72, "velocity": 97, "duration": 528}, {"note": 0, "velocity": 0, "duration": 192}, {"note": 71, "velocity": 97, "duration": 388}, {"note": 0, "velocity": 0, "duration": 92}, {"note": 71, "velocity": 90, "duration": 146}, {"note": 0, "velocity": 0, "duration": 94}, {"note": 71, "velocity": 97, "duration": 312}, {"note": 0, "velocity": 0, "duration": 168}, {"note": 80, "velocity": 91, "duration": 353}, {"note": 0, "velocity": 0, "duration": 127}, {"note": 79, "velocity": 99, "duration": 1200}, {"note": 0, "velocity": 0, "duration": 480}, {"note": 77, "velocity": 95, "duration": 142}, {"note": 0, "velocity": 0, "duration": 98}, {"note": 79, "velocity": 93, "duration": 151}, {"note": 0, "velocity": 0, "duration": 89}, {"note": 80, "velocity": 92, "duration": 379}, {"note": 0, "velocity": 0, "duration": 101}, {"note": 79, "velocity": 97, "duration": 145}, {"note": 0, "velocity": 0, "duration": 95}, {"note": 80, "velocity": 95, "duration": 853}, {"note": 0, "velocity": 0, "duration": 107}, {"note": 79, "velocity": 94, "duration": 163}, {"note": 0, "velocity": 0, "duration": 77}, {"note": 80, "velocity": 92, "duration": 358}, {"note": 0, "velocity": 0, "duration": 122}, {"note": 79, "velocity": 95, "duration": 158}, {"note": 0, "velocity": 0, "duration": 82}, {"note": 77, "velocity": 95, "duration": 616}, {"note": 0, "velocity": 0, "duration": 104}, {"note": 75, "velocity": 99, "duration": 377}, {"note": 0, "velocity": 0, "duration": 103}, {"note": 77, "velocity": 91, "duration": 2535}, {"note": 0, "velocity": 0, "duration": 1305}, {"note": 79, "velocity": 92, "duration": 258}, {"note": 0, "velocity": 0, "duration": 102}, {"note": 80, "velocity": 85, "duration": 95}, {"note": 79, "velocity": 88, "duration": 291}, {"note": 0, "velocity": 0, "duration": 69}, {"note": 80, "velocity": 82, "duration": 76}, {"note": 79, "velocity": 76, "duration": 174}, {"note": 0, "velocity": 0, "duration": 66}, {"note": 80, "velocity": 90, "duration": 333}, {"note": 0, "velocity": 0, "duration": 147}, {"note": 82, "velocity": 90, "duration": 271}, {"note": 0, "velocity": 0, "duration": 449}, {"note": 79, "velocity": 84, "duration": 240}, {"note": 84, "velocity": 89, "duration": 334}, {"note": 0, "velocity": 0, "duration": 146}, {"note": 82, "velocity": 94, "duration": 347}, {"note": 0, "velocity": 0, "duration": 373}, {"note": 75, "velocity": 92, "duration": 289}, {"note": 0, "velocity": 0, "duration": 71}, {"note": 77, "velocity": 89, "duration": 91}, {"note": 75, "velocity": 92, "duration": 297}, {"note": 0, "velocity": 0, "duration": 63}, {"note": 77, "velocity": 87, "duration": 77}, {"note": 75, "velocity": 94, "duration": 127}, {"note": 0, "velocity": 0, "duration": 113}, {"note": 77, "velocity": 95, "duration": 339}, {"note": 0, "velocity": 0, "duration": 141}, {"note": 79, "velocity": 92, "duration": 424}, {"note": 0, "velocity": 0, "duration": 296}, {"note": 75, "velocity": 95, "duration": 117}, {"note": 0, "velocity": 0, "duration": 123}, {"note": 80, "velocity": 88, "duration": 360}, {"note": 0, "velocity": 0, "duration": 120}, {"note": 79, "velocity": 93, "duration": 316}, {"note": 0, "velocity": 0, "duration": 404}, {"note": 72, "velocity": 92, "duration": 280}, {"note": 0, "velocity": 0, "duration": 80}, {"note": 70, "velocity": 88, "duration": 86}, {"note": 72, "velocity": 91, "duration": 293}, {"note": 0, "velocity": 0, "duration": 67}, {"note": 70, "velocity": 90, "duration": 99}, {"note": 72, "velocity": 90, "duration": 163}, {"note": 0, "velocity": 0, "duration": 77}, {"note": 75, "velocity": 95, "duration": 319}, {"note": 0, "velocity": 0, "duration": 161}, {"note": 70, "velocity": 92, "duration": 324}, {"note": 0, "velocity": 0, "duration": 156}, {"note": 67, "velocity": 102, "duration": 82}, {"note": 0, "velocity": 0, "duration": 158}, {"note": 77, "velocity": 82, "duration": 158}, {"note": 0, "velocity": 0, "duration": 82}, {"note": 75, "velocity": 99, "duration": 340}, {"note": 0, "velocity": 0, "duration": 140}, {"note": 77, "velocity": 90, "duration": 136}, {"note": 0, "velocity": 0, "duration": 104}, {"note": 79, "velocity": 93, "duration": 302}, {"note": 0, "velocity": 0, "duration": 178}, {"note": 80, "velocity": 90, "duration": 329}, {"note": 0, "velocity": 0, "duration": 151}, {"note": 72, "velocity": 91, "duration": 154}, {"note": 0, "velocity": 0, "duration": 86}, {"note": 74, "velocity": 92, "duration": 367}, {"note": 0, "velocity": 0, "duration": 113}, {"note": 75, "velocity": 99, "duration": 293}, {"note": 0, "velocity": 0, "duration": 187}, {"note": 77, "velocity": 92, "duration": 373}, {"note": 0, "velocity": 0, "duration": 107}, {"note": 79, "velocity": 93, "duration": 129}, {"note": 0, "velocity": 0, "duration": 111}, {"note": 77, "velocity": 90, "duration": 128}, {"note": 0, "velocity": 0, "duration": 112}, {"note": 79, "velocity": 92, "duration": 140}, {"note": 0, "velocity": 0, "duration": 100}, {"note": 77, "velocity": 97, "duration": 352}, {"note": 0, "velocity": 0, "duration": 608}, {"note": 79, "velocity": 92, "duration": 258}, {"note": 0, "velocity": 0, "duration": 102}, {"note": 80, "velocity": 85, "duration": 95}, {"note": 79, "velocity": 88, "duration": 291}, {"note": 0, "velocity": 0, "duration": 69}, {"note": 80, "velocity": 82, "duration": 76}, {"note": 79, "velocity": 76, "duration": 174}, {"note": 0, "velocity": 0, "duration": 66}, {"note": 80, "velocity": 90, "duration": 333}, {"note": 0, "velocity": 0, "duration": 147}, {"note": 82, "velocity": 90, "duration": 271}, {"note": 0, "velocity": 0, "duration": 449}, {"note": 79, "velocity": 84, "duration": 240}, {"note": 84, "velocity": 89, "duration": 334}, {"note": 0, "velocity": 0, "duration": 146}, {"note": 82, "velocity": 94, "duration": 347}, {"note": 0, "velocity": 0, "duration": 373}, {"note": 75, "velocity": 92, "duration": 289}, {"note": 0, "velocity": 0, "duration": 71}, {"note": 77, "velocity": 89, "duration": 91}, {"note": 75, "velocity": 92, "duration": 297}, {"note": 0, "velocity": 0, "duration": 63}, {"note": 77, "velocity": 87, "duration": 77}, {"note": 75, "velocity": 94, "duration": 127}, {"note": 0, "velocity": 0, "duration": 113}, {"note": 77, "velocity": 95, "duration": 339}, {"note": 0, "velocity": 0, "duration": 141}, {"note": 79, "velocity": 92, "duration": 424}, {"note": 0, "velocity": 0, "duration": 296}, {"note": 75, "velocity": 95, "duration": 117}, {"note": 0, "velocity": 0, "duration": 123}, {"note": 80, "velocity": 88, "duration": 360}, {"note": 0, "velocity": 0, "duration": 120}, {"note": 79, "velocity": 93, "duration": 316}, {"note": 0, "velocity": 0, "duration": 404}, {"note": 72, "velocity": 92, "duration": 280}, {"note": 0, "velocity": 0, "duration": 80}, {"note": 70, "velocity": 88, "duration": 86}, {"note": 72, "velocity": 91, "duration": 293}, {"note": 0, "velocity": 0, "duration": 67}, {"note": 70, "velocity": 90, "duration": 99}, {"note": 72, "velocity": 90, "duration": 163}, {"note": 0, "velocity": 0, "duration": 77}, {"note": 75, "velocity": 95, "duration": 319}, {"note": 0, "velocity": 0, "duration": 161}, {"note": 70, "velocity": 92, "duration": 324}, {"note": 0, "velocity": 0, "duration": 156}, {"note": 67, "velocity": 102, "duration": 82}, {"note": 0, "velocity": 0, "duration": 158}, {"note": 77, "velocity": 82, "duration": 158}, {"note": 0, "velocity": 0, "duration": 82}, {"note": 75, "velocity": 99, "duration": 340}, {"note": 0, "velocity": 0, "duration": 140}, {"note": 77, "velocity": 90, "duration": 136}, {"note": 0, "velocity": 0, "duration": 104}, {"note": 79, "velocity": 93, "duration": 302}, {"note": 0, "velocity": 0, "duration": 178}, {"note": 79, "velocity": 90, "duration": 329}, {"note": 0, "velocity": 0, "duration": 151}, {"note": 72, "velocity": 91, "duration": 154}, {"note": 0, "velocity": 0, "duration": 86}, {"note": 75, "velocity": 92, "duration": 367}, {"note": 0, "velocity": 0, "duration": 113}, {"note": 77, "velocity": 99, "duration": 293}, {"note": 0, "velocity": 0, "duration": 187}, {"note": 79, "velocity": 92, "duration": 373}, {"note": 0, "velocity": 0, "duration": 347}, {"note": 75, "velocity": 92, "duration": 158}, {"note": 0, "velocity": 0, "duration": 82}, {"note": 75, "velocity": 95, "duration": 686}, {"note": 74, "velocity": 92, "duration": 138}, {"note": 0, "velocity": 0, "duration": 102}, {"note": 75, "velocity": 95, "duration": 2135}, {"note": 0, "velocity": 0, "duration": 1910}, {"note": 80, "velocity": 90, "duration": 440}, {"note": 0, "velocity": 0, "duration": 68}, {"note": 72, "velocity": 95, "duration": 144}, {"note": 0, "velocity": 0, "duration": 112}, {"note": 72, "velocity": 94, "duration": 383}, {"note": 0, "velocity": 0, "duration": 81}, {"note": 75, "velocity": 102, "duration": 360}, {"note": 0, "velocity": 0, "duration": 120}, {"note": 77, "velocity": 99, "duration": 995}, {"note": 0, "velocity": 0, "duration": 1969}, {"note": 75, "velocity": 95, "duration": 459}, {"note": 0, "velocity": 0, "duration": 163}, {"note": 75, "velocity": 104, "duration": 617}, {"note": 0, "velocity": 0, "duration": 156}, {"note": 74, "velocity": 92, "duration": 610}, {"note": 0, "velocity": 0, "duration": 184}, {"note": 75, "velocity": 90, "duration": 1591}]]