[[{"note": 73, "velocity": 95, "duration": 176}, {"note": 0, "velocity": 0, "duration": 64}, {"note": 73, "velocity": 95, "duration": 168}, {"note": 0, "velocity": 0, "duration": 72}, {"note": 73, "velocity": 90, "duration": 73}, {"note": 73, "velocity": 95, "duration": 317}, {"note": 71, "velocity": 96, "duration": 175}, {"note": 0, "velocity": 0, "duration": 65}, {"note": 73, "velocity": 95, "duration": 169}, {"note": 0, "velocity": 0, "duration": 71}, {"note": 74, "velocity": 95, "duration": 480}, {"note": 73, "velocity": 89, "duration": 229}, {"note": 71, "velocity": 94, "duration": 358}, {"note": 0, "velocity": 0, "duration": 122}, {"note": 71, "velocity": 95, "duration": 177}, {"note": 0, "velocity": 0, "duration": 63}, {"note": 68, "velocity": 96, "duration": 228}, {"note": 64, "velocity": 100, "duration": 185}, {"note": 71, "velocity": 94, "duration": 637}, {"note": 0, "velocity": 0, "duration": 323}, {"note": 71, "velocity": 90, "duration": 364}, {"note": 0, "velocity": 0, "duration": 116}, {"note": 68, "velocity": 97, "duration": 315}, {"note": 0, "velocity": 0, "duration": 165}, {"note": 64, "velocity": 97, "duration": 240}, {"note": 69, "velocity": 103, "duration": 566}, {"note": 0, "velocity": 0, "duration": 1598}, {"note": 73, "velocity": 95, "duration": 176}, {"note": 0, "velocity": 0, "duration": 64}, {"note": 73, "velocity": 95, "duration": 168}, {"note": 0, "velocity": 0, "duration": 72}, {"note": 73, "velocity": 90, "duration": 73}, {"note": 73, "velocity": 95, "duration": 317}, {"note": 71, "velocity": 96, "duration": 175}, {"note": 0, "velocity": 0, "duration": 65}, {"note": 73, "velocity": 95, "duration": 169}, {"note": 0, "velocity": 0, "duration": 71}, {"note": 78, "velocity": 95, "duration": 480}, {"note": 73, "velocity": 89, "duration": 229}, {"note": 71, "velocity": 94, "duration": 358}, {"note": 0, "velocity": 0, "duration": 122}, {"note": 71, "velocity": 95, "duration": 177}, {"note": 0, "velocity": 0, "duration": 63}, {"note": 68, "velocity": 96, "duration": 228}, {"note": 64, "velocity": 100, "duration": 185}, {"note": 71, "velocity": 94, "duration": 637}, {"note": 0, "velocity": 0, "duration": 323}, {"note": 71, "velocity": 90, "duration": 364}, {"note": 0, "velocity": 0, "duration": 116}, {"note": 73, "velocity": 97, "duration": 315}, {"note": 74, "velocity": 97, "duration": 279}, {"note": 0, "velocity": 0, "duration": 81}, {"note": 74, "velocity": 103, "duration": 158}, {"note": 0, "velocity": 0, "duration": 82}, {"note": 73, "velocity": 94, "duration": 720}, {"note": 74, "velocity": 96, "duration": 397}, {"note": 0, "velocity": 0, "duration": 83}, {"note": 76, "velocity": 94, "duration": 370}, {"note": 0, "velocity": 0, "duration": 110}, {"note": 73, "velocity": 94, "duration": 206}, {"note": 69, "velocity": 95, "duration": 240}, {"note": 69, "velocity": 89, "duration": 240}, {"note": 66, "velocity": 84, "duration": 166}, {"note": 0, "velocity": 0, "duration": 74}, {"note": 69, "velocity": 90, "duration": 624}, {"note": 0, "velocity": 0, "duration": 96}, {"note": 71, "velocity": 94, "duration": 465}, {"note": 68, "velocity": 87, "duration": 175}, {"note": 0, "velocity": 0, "duration": 65}, {"note": 68, "velocity": 95, "duration": 210}, {"note": 64, "velocity": 94, "duration": 187}, {"note": 68, "velocity": 95, "duration": 563}, {"note": 0, "velocity": 0, "duration": 157}, {"note": 71, "velocity": 95, "duration": 387}, {"note": 0, "velocity": 0, "duration": 93}, {"note": 68, "velocity": 95, "duration": 158}, {"note": 0, "velocity": 0, "duration": 82}, {"note": 68, "velocity": 86, "duration": 186}, {"note": 64, "velocity": 94, "duration": 171}, {"note": 0, "velocity": 0, "duration": 69}, {"note": 68, "velocity": 92, "duration": 478}, {"note": 71, "velocity": 94, "duration": 137}, {"note": 0, "velocity": 0, "duration": 103}, {"note": 71, "velocity": 94, "duration": 140}, {"note": 0, "velocity": 0, "duration": 100}, {"note": 66, "velocity": 88, "duration": 374}, {"note": 0, "velocity": 0, "duration": 106}, {"note": 68, "velocity": 95, "duration": 414}, {"note": 0, "velocity": 0, "duration": 66}, {"note": 69, "velocity": 86, "duration": 295}, {"note": 0, "velocity": 0, "duration": 185}, {"note": 73, "velocity": 93, "duration": 340}, {"note": 0, "velocity": 0, "duration": 140}, {"note": 73, "velocity": 95, "duration": 164}, {"note": 0, "velocity": 0, "duration": 76}, {"note": 69, "velocity": 86, "duration": 146}, {"note": 0, "velocity": 0, "duration": 94}, {"note": 69, "velocity": 92, "duration": 156}, {"note": 0, "velocity": 0, "duration": 84}, {"note": 66, "velocity": 88, "duration": 174}, {"note": 0, "velocity": 0, "duration": 66}, {"note": 69, "velocity": 93, "duration": 445}, {"note": 0, "velocity": 0, "duration": 275}, {"note": 71, "velocity": 93, "duration": 390}, {"note": 0, "velocity": 0, "duration": 90}, {"note": 68, "velocity": 93, "duration": 191}, {"note": 68, "velocity": 95, "duration": 168}, {"note": 0, "velocity": 0, "duration": 72}, {"note": 64, "velocity": 96, "duration": 191}, {"note": 68, "velocity": 94, "duration": 453}, {"note": 0, "velocity": 0, "duration": 267}, {"note": 71, "velocity": 94, "duration": 402}, {"note": 0, "velocity": 0, "duration": 78}, {"note": 68, "velocity": 84, "duration": 137}, {"note": 0, "velocity": 0, "duration": 103}, {"note": 68, "velocity": 97, "duration": 165}, {"note": 0, "velocity": 0, "duration": 75}, {"note": 64, "velocity": 95, "duration": 165}, {"note": 0, "velocity": 0, "duration": 75}, {"note": 68, "velocity": 87, "duration": 240}, {"note": 69, "velocity": 92, "duration": 177}, {"note": 0, "velocity": 0, "duration": 63}, {"note": 71, "velocity": 94, "duration": 165}, {"note": 0, "velocity": 0, "duration": 75}, {"note": 73, "velocity": 93, "duration": 169}, {"note": 0, "velocity": 0, "duration": 71}, {"note": 78, "velocity": 84, "duration": 601}, {"note": 0, "velocity": 0, "duration": 119}, {"note": 78, "velocity": 88, "duration": 169}, {"note": 0, "velocity": 0, "duration": 71}, {"note": 78, "velocity": 95, "duration": 254}, {"note": 76, "velocity": 90, "duration": 118}, {"note": 0, "velocity": 0, "duration": 122}, {"note": 76, "velocity": 96, "duration": 179}, {"note": 0, "velocity": 0, "duration": 61}, {"note": 73, "velocity": 90, "duration": 779}, {"note": 0, "velocity": 0, "duration": 421}, {"note": 78, "velocity": 96, "duration": 171}, {"note": 0, "velocity": 0, "duration": 69}, {"note": 76, "velocity": 90, "duration": 155}, {"note": 0, "velocity": 0, "duration": 85}, {"note": 76, "velocity": 95, "duration": 188}, {"note": 73, "velocity": 94, "duration": 150}, {"note": 0, "velocity": 0, "duration": 90}, {"note": 71, "velocity": 93, "duration": 560}, {"note": 0, "velocity": 0, "duration": 280}, {"note": 64, "velocity": 95, "duration": 73}, {"note": 68, "velocity": 94, "duration": 359}, {"note": 0, "velocity": 0, "duration": 121}, {"note": 69, "velocity": 92, "duration": 165}, {"note": 0, "velocity": 0, "duration": 75}, {"note": 74, "velocity": 91, "duration": 417}, {"note": 0, "velocity": 0, "duration": 63}, {"note": 73, "velocity": 94, "duration": 1440}, {"note": 0, "velocity": 0, "duration": 1200}, {"note": 73, "velocity": 89, "duration": 182}, {"note": 81, "velocity": 94, "duration": 433}, {"note": 80, "velocity": 96, "duration": 362}, {"note": 0, "velocity": 0, "duration": 118}, {"note": 78, "velocity": 90, "duration": 360}, {"note": 0, "velocity": 0, "duration": 120}, {"note": 73, "velocity": 90, "duration": 296}, {"note": 0, "velocity": 0, "duration": 184}, {"note": 78, "velocity": 96, "duration": 407}, {"note": 0, "velocity": 0, "duration": 73}, {"note": 78, "velocity": 96, "duration": 976}, {"note": 0, "velocity": 0, "duration": 224}, {"note": 73, "velocity": 90, "duration": 183}, {"note": 81, "velocity": 95, "duration": 378}, {"note": 0, "velocity": 0, "duration": 102}, {"note": 80, "velocity": 96, "duration": 354}, {"note": 0, "velocity": 0, "duration": 126}, {"note": 78, "velocity": 95, "duration": 159}, {"note": 0, "velocity": 0, "duration": 81}, {"note": 73, "velocity": 94, "duration": 260}, {"note": 0, "velocity": 0, "duration": 460}, {"note": 78, "velocity": 95, "duration": 412}, {"note": 0, "velocity": 0, "duration": 68}, {"note": 80, "velocity": 95, "duration": 441}, {"note": 78, "velocity": 95, "duration": 522}, {"note": 0, "velocity": 0, "duration": 198}, {"note": 73, "velocity": 100, "duration": 171}, {"note": 0, "velocity": 0, "duration": 69}, {"note": 81, "velocity": 96, "duration": 387}, {"note": 0, "velocity": 0, "duration": 93}, {"note": 80, "velocity": 95, "duration": 393}, {"note": 0, "velocity": 0, "duration": 87}, {"note": 78, "velocity": 95, "duration": 168}, {"note": 0, "velocity": 0, "duration": 72}, {"note": 73, "velocity": 93, "duration": 620}, {"note": 0, "velocity": 0, "duration": 100}, {"note": 78, "velocity": 96, "duration": 382}, {"note": 0, "velocity": 0, "duration": 98}, {"note": 78, "velocity": 95, "duration": 958}, {"note": 0, "velocity": 0, "duration": 242}, {"note": 73, "velocity": 94, "duration": 156}, {"note": 0, "velocity": 0, "duration": 84}, {"note": 81, "velocity": 94, "duration": 385}, {"note": 0, "velocity": 0, "duration": 95}, {"note": 80, "velocity": 92, "duration": 392}, {"note": 0, "velocity": 0, "duration": 88}, {"note": 78, "velocity": 95, "duration": 165}, {"note": 0, "velocity": 0, "duration": 315}, {"note": 73, "velocity": 94, "duration": 422}, {"note": 78, "velocity": 94, "duration": 391}, {"note": 0, "velocity": 0, "duration": 89}, {"note": 80, "velocity": 96, "duration": 400}, {"note": 0, "velocity": 0, "duration": 80}, {"note": 78, "velocity": 96, "duration": 480}, {"note": 78, "velocity": 95, "duration": 155}, {"note": 0, "velocity": 0, "duration": 85}, {"note": 78, "velocity": 95, "duration": 395}, {"note": 0, "velocity": 0, "duration": 85}, {"note": 76, "velocity": 95, "duration": 152}, {"note": 0, "velocity": 0, "duration": 88}, {"note": 73, "velocity": 92, "duration": 600}, {"note": 0, "velocity": 0, "duration": 600}, {"note": 78, "velocity": 96, "duration": 347}, {"note": 0, "velocity": 0, "duration": 133}, {"note": 76, "velocity": 94, "duration": 140}, {"note": 0, "velocity": 0, "duration": 100}, {"note": 73, "velocity": 93, "duration": 474}, {"note": 71, "velocity": 96, "duration": 396}, {"note": 0, "velocity": 0, "duration": 84}, {"note": 64, "velocity": 98, "duration": 168}, {"note": 0, "velocity": 0, "duration": 72}, {"note": 68, "velocity": 95, "duration": 358}, {"note": 0, "velocity": 0, "duration": 122}, {"note": 69, "velocity": 94, "duration": 165}, {"note": 0, "velocity": 0, "duration": 75}, {"note": 74, "velocity": 98, "duration": 416}, {"note": 0, "velocity": 0, "duration": 64}, {"note": 73, "velocity": 92, "duration": 1693}, {"note": 0, "velocity": 0, "duration": 17507}, {"note": 73, "velocity": 95, "duration": 176}, {"note": 0, "velocity": 0, "duration": 64}, {"note": 73, "velocity": 95, "duration": 168}, {"note": 0, "velocity": 0, "duration": 72}, {"note": 73, "velocity": 90, "duration": 73}, {"note": 73, "velocity": 95, "duration": 317}, {"note": 71, "velocity": 96, "duration": 175}, {"note": 0, "velocity": 0, "duration": 65}, {"note": 73, "velocity": 95, "duration": 169}, {"note": 0, "velocity": 0, "duration": 71}, {"note": 74, "velocity": 95, "duration": 480}, {"note": 73, "velocity": 89, "duration": 229}, {"note": 71, "velocity": 94, "duration": 358}, {"note": 0, "velocity": 0, "duration": 122}, {"note": 71, "velocity": 95, "duration": 177}, {"note": 0, "velocity": 0, "duration": 63}, {"note": 68, "velocity": 96, "duration": 228}, {"note": 64, "velocity": 100, "duration": 185}, {"note": 71, "velocity": 94, "duration": 637}, {"note": 0, "velocity": 0, "duration": 323}, {"note": 71, "velocity": 90, "duration": 364}, {"note": 0, "velocity": 0, "duration": 116}, {"note": 73, "velocity": 97, "duration": 315}, {"note": 0, "velocity": 0, "duration": 165}, {"note": 68, "velocity": 97, "duration": 240}, {"note": 69, "velocity": 103, "duration": 158}, {"note": 0, "velocity": 0, "duration": 82}, {"note": 69, "velocity": 94, "duration": 720}, {"note": 0, "velocity": 0, "duration": 1200}, {"note": 73, "velocity": 95, "duration": 176}, {"note": 0, "velocity": 0, "duration": 64}, {"note": 73, "velocity": 95, "duration": 168}, {"note": 0, "velocity": 0, "duration": 72}, {"note": 73, "velocity": 90, "duration": 73}, {"note": 73, "velocity": 95, "duration": 317}, {"note": 71, "velocity": 96, "duration": 175}, {"note": 0, "velocity": 0, "duration": 65}, {"note": 73, "velocity": 95, "duration": 169}, {"note": 0, "velocity": 0, "duration": 71}, {"note": 78, "velocity": 95, "duration": 480}, {"note": 73, "velocity": 89, "duration": 229}, {"note": 71, "velocity": 94, "duration": 358}, {"note": 0, "velocity": 0, "duration": 122}, {"note": 71, "velocity": 95, "duration": 177}, {"note": 0, "velocity": 0, "duration": 63}, {"note": 68, "velocity": 96, "duration": 228}, {"note": 64, "velocity": 100, "duration": 185}, {"note": 71, "velocity": 94, "duration": 637}, {"note": 0, "velocity": 0, "duration": 323}, {"note": 71, "velocity": 90, "duration": 364}, {"note": 0, "velocity": 0, "duration": 116}, {"note": 73, "velocity": 97, "duration": 315}, {"note": 74, "velocity": 97, "duration": 279}, {"note": 0, "velocity": 0, "duration": 81}, {"note": 74, "velocity": 103, "duration": 158}, {"note": 0, "velocity": 0, "duration": 82}, {"note": 73, "velocity": 94, "duration": 720}, {"note": 74, "velocity": 96, "duration": 397}, {"note": 0, "velocity": 0, "duration": 83}, {"note": 76, "velocity": 94, "duration": 370}, {"note": 0, "velocity": 0, "duration": 110}, {"note": 73, "velocity": 94, "duration": 206}, {"note": 69, "velocity": 95, "duration": 240}, {"note": 69, "velocity": 89, "duration": 240}, {"note": 66, "velocity": 84, "duration": 166}, {"note": 0, "velocity": 0, "duration": 74}, {"note": 69, "velocity": 90, "duration": 624}, {"note": 0, "velocity": 0, "duration": 96}, {"note": 71, "velocity": 94, "duration": 465}, {"note": 68, "velocity": 87, "duration": 175}, {"note": 0, "velocity": 0, "duration": 65}, {"note": 68, "velocity": 95, "duration": 210}, {"note": 64, "velocity": 94, "duration": 187}, {"note": 68, "velocity": 95, "duration": 563}, {"note": 0, "velocity": 0, "duration": 157}, {"note": 71, "velocity": 95, "duration": 387}, {"note": 0, "velocity": 0, "duration": 93}, {"note": 68, "velocity": 95, "duration": 158}, {"note": 0, "velocity": 0, "duration": 82}, {"note": 68, "velocity": 86, "duration": 186}, {"note": 64, "velocity": 94, "duration": 171}, {"note": 0, "velocity": 0, "duration": 69}, {"note": 68, "velocity": 92, "duration": 478}, {"note": 71, "velocity": 94, "duration": 137}, {"note": 0, "velocity": 0, "duration": 103}, {"note": 71, "velocity": 94, "duration": 140}, {"note": 0, "velocity": 0, "duration": 100}, {"note": 66, "velocity": 88, "duration": 374}, {"note": 0, "velocity": 0, "duration": 106}, {"note": 68, "velocity": 95, "duration": 414}, {"note": 0, "velocity": 0, "duration": 66}, {"note": 69, "velocity": 86, "duration": 295}, {"note": 0, "velocity": 0, "duration": 185}, {"note": 73, "velocity": 93, "duration": 340}, {"note": 0, "velocity": 0, "duration": 140}, {"note": 73, "velocity": 95, "duration": 164}, {"note": 0, "velocity": 0, "duration": 76}, {"note": 69, "velocity": 86, "duration": 146}, {"note": 0, "velocity": 0, "duration": 94}, {"note": 69, "velocity": 92, "duration": 156}, {"note": 0, "velocity": 0, "duration": 84}, {"note": 66, "velocity": 88, "duration": 174}, {"note": 0, "velocity": 0, "duration": 66}, {"note": 69, "velocity": 93, "duration": 445}, {"note": 0, "velocity": 0, "duration": 275}, {"note": 71, "velocity": 93, "duration": 390}, {"note": 0, "velocity": 0, "duration": 90}, {"note": 68, "velocity": 93, "duration": 191}, {"note": 68, "velocity": 95, "duration": 168}, {"note": 0, "velocity": 0, "duration": 72}, {"note": 64, "velocity": 96, "duration": 191}, {"note": 68, "velocity": 94, "duration": 453}, {"note": 0, "velocity": 0, "duration": 267}, {"note": 71, "velocity": 94, "duration": 402}, {"note": 0, "velocity": 0, "duration": 78}, {"note": 68, "velocity": 84, "duration": 137}, {"note": 0, "velocity": 0, "duration": 103}, {"note": 68, "velocity": 97, "duration": 165}, {"note": 0, "velocity": 0, "duration": 75}, {"note": 64, "velocity": 95, "duration": 165}, {"note": 0, "velocity": 0, "duration": 75}, {"note": 68, "velocity": 87, "duration": 240}, {"note": 69, "velocity": 92, "duration": 177}, {"note": 0, "velocity": 0, "duration": 63}, {"note": 71, "velocity": 94, "duration": 165}, {"note": 0, "velocity": 0, "duration": 75}, {"note": 73, "velocity": 93, "duration": 169}, {"note": 0, "velocity": 0, "duration": 71}, {"note": 78, "velocity": 84, "duration": 601}, {"note": 0, "velocity": 0, "duration": 119}, {"note": 78, "velocity": 88, "duration": 169}, {"note": 0, "velocity": 0, "duration": 71}, {"note": 78, "velocity": 95, "duration": 254}, {"note": 76, "velocity": 90, "duration": 118}, {"note": 0, "velocity": 0, "duration": 122}, {"note": 76, "velocity": 96, "duration": 179}, {"note": 0, "velocity": 0, "duration": 61}, {"note": 73, "velocity": 90, "duration": 779}, {"note": 0, "velocity": 0, "duration": 421}, {"note": 78, "velocity": 96, "duration": 171}, {"note": 0, "velocity": 0, "duration": 69}, {"note": 76, "velocity": 90, "duration": 155}, {"note": 0, "velocity": 0, "duration": 85}, {"note": 76, "velocity": 95, "duration": 188}, {"note": 73, "velocity": 94, "duration": 150}, {"note": 0, "velocity": 0, "duration": 90}, {"note": 71, "velocity": 93, "duration": 560}, {"note": 0, "velocity": 0, "duration": 280}, {"note": 64, "velocity": 95, "duration": 73}, {"note": 68, "velocity": 94, "duration": 359}, {"note": 0, "velocity": 0, "duration": 121}, {"note": 69, "velocity": 92, "duration": 165}, {"note": 0, "velocity": 0, "duration": 75}, {"note": 74, "velocity": 91, "duration": 417}, {"note": 0, "velocity": 0, "duration": 63}, {"note": 73, "velocity": 94, "duration": 1440}, {"note": 0, "velocity": 0, "duration": 1200}, {"note": 73, "velocity": 89, "duration": 182}, {"note": 81, "velocity": 94, "duration": 433}, {"note": 80, "velocity": 96, "duration": 362}, {"note": 0, "velocity": 0, "duration": 118}, {"note": 78, "velocity": 90, "duration": 360}, {"note": 0, "velocity": 0, "duration": 120}, {"note": 73, "velocity": 90, "duration": 296}, {"note": 0, "velocity": 0, "duration": 184}, {"note": 78, "velocity": 96, "duration": 407}, {"note": 0, "velocity": 0, "duration": 73}, {"note": 78, "velocity": 96, "duration": 976}, {"note": 0, "velocity": 0, "duration": 224}, {"note": 73, "velocity": 90, "duration": 183}, {"note": 81, "velocity": 95, "duration": 378}, {"note": 0, "velocity": 0, "duration": 102}, {"note": 80, "velocity": 96, "duration": 354}, {"note": 0, "velocity": 0, "duration": 126}, {"note": 78, "velocity": 95, "duration": 159}, {"note": 0, "velocity": 0, "duration": 81}, {"note": 73, "velocity": 94, "duration": 260}, {"note": 0, "velocity": 0, "duration": 460}, {"note": 78, "velocity": 95, "duration": 412}, {"note": 0, "velocity": 0, "duration": 68}, {"note": 80, "velocity": 95, "duration": 441}, {"note": 78, "velocity": 95, "duration": 522}, {"note": 0, "velocity": 0, "duration": 198}, {"note": 73, "velocity": 100, "duration": 171}, {"note": 0, "velocity": 0, "duration": 69}, {"note": 81, "velocity": 96, "duration": 387}, {"note": 0, "velocity": 0, "duration": 93}, {"note": 80, "velocity": 95, "duration": 393}, {"note": 0, "velocity": 0, "duration": 87}, {"note": 78, "velocity": 95, "duration": 168}, {"note": 0, "velocity": 0, "duration": 72}, {"note": 73, "velocity": 93, "duration": 620}, {"note": 0, "velocity": 0, "duration": 100}, {"note": 78, "velocity": 96, "duration": 382}, {"note": 0, "velocity": 0, "duration": 98}, {"note": 78, "velocity": 95, "duration": 958}, {"note": 0, "velocity": 0, "duration": 242}, {"note": 73, "velocity": 94, "duration": 156}, {"note": 0, "velocity": 0, "duration": 84}, {"note": 81, "velocity": 94, "duration": 385}, {"note": 0, "velocity": 0, "duration": 95}, {"note": 80, "velocity": 92, "duration": 392}, {"note": 0, "velocity": 0, "duration": 88}, {"note": 78, "velocity": 95, "duration": 165}, {"note": 0, "velocity": 0, "duration": 315}, {"note": 73, "velocity": 94, "duration": 422}, {"note": 78, "velocity": 94, "duration": 391}, {"note": 0, "velocity": 0, "duration": 89}, {"note": 80, "velocity": 96, "duration": 400}, {"note": 0, "velocity": 0, "duration": 80}, {"note": 78, "velocity": 96, "duration": 480}, {"note": 78, "velocity": 95, "duration": 155}, {"note": 0, "velocity": 0, "duration": 85}, {"note": 78, "velocity": 95, "duration": 840}, {"note": 0, "velocity": 0, "duration": 840}, {"note": 78, "velocity": 96, "duration": 240}, {"note": 78, "velocity": 96, "duration": 347}, {"note": 0, "velocity": 0, "duration": 133}, {"note": 76, "velocity": 94, "duration": 480}, {"note": 73, "velocity": 93, "duration": 474}, {"note": 0, "velocity": 0, "duration": 486}, {"note": 78, "velocity": 97, "duration": 366}, {"note": 0, "velocity": 0, "duration": 114}, {"note": 76, "velocity": 95, "duration": 157}, {"note": 0, "velocity": 0, "duration": 83}, {"note": 73, "velocity": 93, "duration": 446}, {"note": 71, "velocity": 95, "duration": 346}, {"note": 0, "velocity": 0, "duration": 134}, {"note": 64, "velocity": 99, "duration": 182}, {"note": 68, "velocity": 96, "duration": 329}, {"note": 0, "velocity": 0, "duration": 151}, {"note": 69, "velocity": 94, "duration": 169}, {"note": 0, "velocity": 0, "duration": 71}, {"note": 74, "velocity": 98, "duration": 418}, {"note": 0, "velocity": 0, "duration": 62}, {"note": 73, "velocity": 95, "duration": 1634}, {"note": 0, "velocity": 0, "duration": 766}, {"note": 78, "velocity": 98, "duration": 165}, {"note": 0, "velocity": 0, "duration": 75}, {"note": 78, "velocity": 96, "duration": 381}, {"note": 0, "velocity": 0, "duration": 99}, {"note": 76, "velocity": 94, "duration": 137}, {"note": 0, "velocity": 0, "duration": 103}, {"note": 73, "velocity": 95, "duration": 467}, {"note": 71, "velocity": 95, "duration": 585}, {"note": 0, "velocity": 0, "duration": 135}, {"note": 78, "velocity": 96, "duration": 469}, {"note": 76, "velocity": 99, "duration": 181}, {"note": 73, "velocity": 96, "duration": 431}, {"note": 71, "velocity": 91, "duration": 397}, {"note": 0, "velocity": 0, "duration": 83}, {"note": 64, "velocity": 85, "duration": 146}, {"note": 0, "velocity": 0, "duration": 94}, {"note": 68, "velocity": 98, "duration": 395}, {"note": 0, "velocity": 0, "duration": 85}, {"note": 69, "velocity": 93, "duration": 155}, {"note": 0, "velocity": 0, "duration": 85}, {"note": 74, "velocity": 96, "duration": 456}, {"note": 73, "velocity": 96, "duration": 1464}, {"note": 0, "velocity": 0, "duration": 936}, {"note": 78, "velocity": 98, "duration": 146}, {"note": 0, "velocity": 0, "duration": 94}, {"note": 78, "velocity": 98, "duration": 356}, {"note": 0, "velocity": 0, "duration": 124}, {"note": 76, "velocity": 96, "duration": 128}, {"note": 0, "velocity": 0, "duration": 112}, {"note": 73, "velocity": 97, "duration": 446}, {"note": 0, "velocity": 0, "duration": 754}, {"note": 78, "velocity": 96, "duration": 348}, {"note": 0, "velocity": 0, "duration": 132}, {"note": 76, "velocity": 95, "duration": 144}, {"note": 0, "velocity": 0, "duration": 96}, {"note": 73, "velocity": 97, "duration": 427}, {"note": 71, "velocity": 94, "duration": 480}, {"note": 64, "velocity": 96, "duration": 185}, {"note": 68, "velocity": 90, "duration": 332}, {"note": 0, "velocity": 0, "duration": 148}, {"note": 69, "velocity": 87, "duration": 217}, {"note": 74, "velocity": 100, "duration": 986}, {"note": 0, "velocity": 0, "duration": 94}, {"note": 73, "velocity": 89, "duration": 1596}]]