[[{"note": 55, "velocity": 95, "duration": 129}, {"note": 62, "velocity": 106, "duration": 239}, {"note": 62, "velocity": 99, "duration": 239}, {"note": 62, "velocity": 104, "duration": 240}, {"note": 60, "velocity": 97, "duration": 120}, {"note": 62, "velocity": 101, "duration": 240}, {"note": 64, "velocity": 101, "duration": 720}, {"note": 55, "velocity": 98, "duration": 120}, {"note": 59, "velocity": 98, "duration": 239}, {"note": 59, "velocity": 98, "duration": 239}, {"note": 59, "velocity": 101, "duration": 240}, {"note": 57, "velocity": 97, "duration": 120}, {"note": 59, "velocity": 99, "duration": 240}, {"note": 60, "velocity": 95, "duration": 709}, {"note": 55, "velocity": 98, "duration": 128}, {"note": 67, "velocity": 99, "duration": 237}, {"note": 65, "velocity": 98, "duration": 224}, {"note": 64, "velocity": 97, "duration": 238}, {"note": 65, "velocity": 98, "duration": 127}, {"note": 67, "velocity": 98, "duration": 1112}, {"note": 60, "velocity": 102, "duration": 234}, {"note": 62, "velocity": 99, "duration": 122}, {"note": 64, "velocity": 99, "duration": 330}, {"note": 62, "velocity": 101, "duration": 1077}, {"note": 55, "velocity": 97, "duration": 134}, {"note": 62, "velocity": 106, "duration": 242}, {"note": 62, "velocity": 98, "duration": 116}, {"note": 62, "velocity": 104, "duration": 352}, {"note": 60, "velocity": 97, "duration": 126}, {"note": 62, "velocity": 106, "duration": 242}, {"note": 64, "velocity": 98, "duration": 711}, {"note": 55, "velocity": 95, "duration": 129}, {"note": 59, "velocity": 98, "duration": 245}, {"note": 59, "velocity": 98, "duration": 246}, {"note": 59, "velocity": 99, "duration": 223}, {"note": 57, "velocity": 93, "duration": 116}, {"note": 59, "velocity": 98, "duration": 253}, {"note": 60, "velocity": 98, "duration": 710}, {"note": 55, "velocity": 96, "duration": 139}, {"note": 67, "velocity": 98, "duration": 221}, {"note": 65, "velocity": 97, "duration": 137}, {"note": 64, "velocity": 101, "duration": 347}, {"note": 65, "velocity": 98, "duration": 127}, {"note": 67, "velocity": 98, "duration": 244}, {"note": 65, "velocity": 97, "duration": 617}, {"note": 60, "velocity": 100, "duration": 110}, {"note": 60, "velocity": 98, "duration": 126}, {"note": 60, "velocity": 99, "duration": 227}, {"note": 62, "velocity": 102, "duration": 247}, {"note": 64, "velocity": 98, "duration": 235}, {"note": 62, "velocity": 102, "duration": 2042}, {"note": 55, "velocity": 95, "duration": 129}, {"note": 62, "velocity": 106, "duration": 239}, {"note": 62, "velocity": 99, "duration": 239}, {"note": 62, "velocity": 104, "duration": 240}, {"note": 60, "velocity": 97, "duration": 120}, {"note": 62, "velocity": 101, "duration": 240}, {"note": 64, "velocity": 101, "duration": 720}, {"note": 55, "velocity": 98, "duration": 120}, {"note": 59, "velocity": 98, "duration": 239}, {"note": 59, "velocity": 98, "duration": 239}, {"note": 59, "velocity": 101, "duration": 240}, {"note": 57, "velocity": 97, "duration": 120}, {"note": 59, "velocity": 99, "duration": 240}, {"note": 60, "velocity": 95, "duration": 709}, {"note": 55, "velocity": 98, "duration": 128}, {"note": 67, "velocity": 99, "duration": 237}, {"note": 65, "velocity": 98, "duration": 224}, {"note": 64, "velocity": 97, "duration": 238}, {"note": 65, "velocity": 98, "duration": 127}, {"note": 67, "velocity": 98, "duration": 1112}, {"note": 60, "velocity": 102, "duration": 234}, {"note": 62, "velocity": 99, "duration": 122}, {"note": 64, "velocity": 99, "duration": 330}, {"note": 62, "velocity": 101, "duration": 1077}, {"note": 55, "velocity": 97, "duration": 134}, {"note": 62, "velocity": 106, "duration": 242}, {"note": 62, "velocity": 98, "duration": 116}, {"note": 62, "velocity": 104, "duration": 352}, {"note": 60, "velocity": 97, "duration": 126}, {"note": 62, "velocity": 106, "duration": 242}, {"note": 64, "velocity": 98, "duration": 711}, {"note": 55, "velocity": 95, "duration": 129}, {"note": 59, "velocity": 98, "duration": 245}, {"note": 59, "velocity": 98, "duration": 246}, {"note": 59, "velocity": 99, "duration": 223}, {"note": 57, "velocity": 93, "duration": 116}, {"note": 59, "velocity": 98, "duration": 253}, {"note": 60, "velocity": 98, "duration": 710}, {"note": 55, "velocity": 96, "duration": 139}, {"note": 67, "velocity": 98, "duration": 221}, {"note": 65, "velocity": 97, "duration": 137}, {"note": 64, "velocity": 101, "duration": 347}, {"note": 65, "velocity": 98, "duration": 127}, {"note": 67, "velocity": 98, "duration": 244}, {"note": 65, "velocity": 97, "duration": 617}, {"note": 60, "velocity": 100, "duration": 110}, {"note": 60, "velocity": 98, "duration": 126}, {"note": 60, "velocity": 99, "duration": 227}, {"note": 62, "velocity": 102, "duration": 247}, {"note": 64, "velocity": 98, "duration": 235}, {"note": 62, "velocity": 102, "duration": 762}, {"note": 64, "velocity": 111, "duration": 120}, {"note": 65, "velocity": 102, "duration": 360}, {"note": 67, "velocity": 101, "duration": 839}, {"note": 67, "velocity": 99, "duration": 119}, {"note": 67, "velocity": 103, "duration": 240}, {"note": 72, "velocity": 103, "duration": 120}, {"note": 71, "velocity": 103, "duration": 240}, {"note": 67, "velocity": 101, "duration": 360}, {"note": 64, "velocity": 104, "duration": 1440}, {"note": 62, "velocity": 104, "duration": 120}, {"note": 64, "velocity": 104, "duration": 240}, {"note": 65, "velocity": 101, "duration": 960}, {"note": 64, "velocity": 98, "duration": 120}, {"note": 65, "velocity": 99, "duration": 240}, {"note": 64, "velocity": 101, "duration": 120}, {"note": 60, "velocity": 99, "duration": 240}, {"note": 64, "velocity": 101, "duration": 240}, {"note": 62, "velocity": 103, "duration": 1560}, {"note": 64, "velocity": 101, "duration": 240}, {"note": 65, "velocity": 101, "duration": 240}, {"note": 67, "velocity": 103, "duration": 839}, {"note": 67, "velocity": 98, "duration": 119}, {"note": 67, "velocity": 101, "duration": 240}, {"note": 72, "velocity": 100, "duration": 120}, {"note": 71, "velocity": 101, "duration": 360}, {"note": 67, "velocity": 97, "duration": 240}, {"note": 64, "velocity": 101, "duration": 1440}, {"note": 62, "velocity": 104, "duration": 240}, {"note": 64, "velocity": 99, "duration": 480}, {"note": 57, "velocity": 98, "duration": 600}, {"note": 60, "velocity": 101, "duration": 119}, {"note": 60, "velocity": 101, "duration": 240}, {"note": 59, "velocity": 99, "duration": 240}, {"note": 57, "velocity": 99, "duration": 240}, {"note": 62, "velocity": 108, "duration": 241}, {"note": 60, "velocity": 99, "duration": 1296}, {"note": 0, "velocity": 0, "duration": 18744}, {"note": 55, "velocity": 95, "duration": 129}, {"note": 62, "velocity": 106, "duration": 239}, {"note": 62, "velocity": 99, "duration": 239}, {"note": 62, "velocity": 104, "duration": 240}, {"note": 60, "velocity": 97, "duration": 120}, {"note": 62, "velocity": 101, "duration": 240}, {"note": 64, "velocity": 101, "duration": 720}, {"note": 55, "velocity": 98, "duration": 120}, {"note": 59, "velocity": 98, "duration": 239}, {"note": 59, "velocity": 98, "duration": 239}, {"note": 59, "velocity": 101, "duration": 240}, {"note": 57, "velocity": 97, "duration": 120}, {"note": 59, "velocity": 99, "duration": 240}, {"note": 60, "velocity": 95, "duration": 709}, {"note": 55, "velocity": 98, "duration": 128}, {"note": 67, "velocity": 99, "duration": 237}, {"note": 65, "velocity": 98, "duration": 224}, {"note": 64, "velocity": 97, "duration": 238}, {"note": 65, "velocity": 98, "duration": 127}, {"note": 67, "velocity": 98, "duration": 1112}, {"note": 60, "velocity": 102, "duration": 234}, {"note": 62, "velocity": 99, "duration": 122}, {"note": 64, "velocity": 99, "duration": 330}, {"note": 62, "velocity": 101, "duration": 1077}, {"note": 55, "velocity": 97, "duration": 134}, {"note": 62, "velocity": 106, "duration": 242}, {"note": 62, "velocity": 98, "duration": 116}, {"note": 62, "velocity": 104, "duration": 352}, {"note": 60, "velocity": 97, "duration": 126}, {"note": 62, "velocity": 106, "duration": 242}, {"note": 64, "velocity": 98, "duration": 711}, {"note": 55, "velocity": 95, "duration": 129}, {"note": 59, "velocity": 98, "duration": 245}, {"note": 59, "velocity": 98, "duration": 246}, {"note": 59, "velocity": 99, "duration": 223}, {"note": 57, "velocity": 93, "duration": 116}, {"note": 59, "velocity": 98, "duration": 253}, {"note": 60, "velocity": 98, "duration": 710}, {"note": 55, "velocity": 96, "duration": 139}, {"note": 67, "velocity": 98, "duration": 221}, {"note": 65, "velocity": 97, "duration": 137}, {"note": 64, "velocity": 101, "duration": 347}, {"note": 65, "velocity": 98, "duration": 127}, {"note": 67, "velocity": 98, "duration": 244}, {"note": 65, "velocity": 97, "duration": 617}, {"note": 60, "velocity": 100, "duration": 110}, {"note": 60, "velocity": 98, "duration": 126}, {"note": 60, "velocity": 99, "duration": 227}, {"note": 62, "velocity": 102, "duration": 247}, {"note": 64, "velocity": 98, "duration": 235}, {"note": 62, "velocity": 102, "duration": 762}, {"note": 64, "velocity": 111, "duration": 120}, {"note": 65, "velocity": 102, "duration": 360}, {"note": 67, "velocity": 101, "duration": 839}, {"note": 67, "velocity": 99, "duration": 119}, {"note": 67, "velocity": 103, "duration": 240}, {"note": 72, "velocity": 103, "duration": 120}, {"note": 71, "velocity": 103, "duration": 240}, {"note": 67, "velocity": 101, "duration": 360}, {"note": 64, "velocity": 104, "duration": 1440}, {"note": 62, "velocity": 104, "duration": 120}, {"note": 64, "velocity": 104, "duration": 240}, {"note": 65, "velocity": 101, "duration": 960}, {"note": 64, "velocity": 98, "duration": 120}, {"note": 65, "velocity": 99, "duration": 240}, {"note": 64, "velocity": 101, "duration": 120}, {"note": 60, "velocity": 99, "duration": 240}, {"note": 64, "velocity": 101, "duration": 240}, {"note": 62, "velocity": 103, "duration": 1560}, {"note": 64, "velocity": 101, "duration": 240}, {"note": 65, "velocity": 101, "duration": 240}, {"note": 67, "velocity": 103, "duration": 839}, {"note": 67, "velocity": 98, "duration": 119}, {"note": 67, "velocity": 101, "duration": 240}, {"note": 72, "velocity": 100, "duration": 120}, {"note": 71, "velocity": 101, "duration": 360}, {"note": 67, "velocity": 97, "duration": 240}, {"note": 64, "velocity": 101, "duration": 1440}, {"note": 62, "velocity": 104, "duration": 240}, {"note": 64, "velocity": 99, "duration": 480}, {"note": 57, "velocity": 98, "duration": 600}, {"note": 60, "velocity": 101, "duration": 119}, {"note": 60, "velocity": 101, "duration": 240}, {"note": 59, "velocity": 99, "duration": 240}, {"note": 57, "velocity": 99, "duration": 240}, {"note": 62, "velocity": 108, "duration": 241}, {"note": 60, "velocity": 99, "duration": 5640}, {"note": 55, "velocity": 95, "duration": 129}, {"note": 62, "velocity": 106, "duration": 239}, {"note": 62, "velocity": 99, "duration": 239}, {"note": 62, "velocity": 104, "duration": 240}, {"note": 60, "velocity": 97, "duration": 120}, {"note": 62, "velocity": 101, "duration": 240}, {"note": 64, "velocity": 101, "duration": 720}, {"note": 55, "velocity": 98, "duration": 120}, {"note": 59, "velocity": 98, "duration": 239}, {"note": 59, "velocity": 98, "duration": 239}, {"note": 59, "velocity": 101, "duration": 240}, {"note": 57, "velocity": 97, "duration": 120}, {"note": 59, "velocity": 99, "duration": 240}, {"note": 60, "velocity": 95, "duration": 709}, {"note": 55, "velocity": 98, "duration": 128}, {"note": 67, "velocity": 99, "duration": 237}, {"note": 65, "velocity": 98, "duration": 224}, {"note": 64, "velocity": 97, "duration": 238}, {"note": 65, "velocity": 98, "duration": 127}, {"note": 67, "velocity": 98, "duration": 617}, {"note": 64, "velocity": 98, "duration": 495}, {"note": 60, "velocity": 102, "duration": 1098}, {"note": 64, "velocity": 100, "duration": 561}, {"note": 64, "velocity": 103, "duration": 492}, {"note": 62, "velocity": 96, "duration": 182}, {"note": 60, "velocity": 92, "duration": 1368}]]