[[{"note": 68, "velocity": 95, "duration": 189}, {"note": 68, "velocity": 93, "duration": 100}, {"note": 66, "velocity": 87, "duration": 78}, {"note": 68, "velocity": 97, "duration": 171}, {"note": 0, "velocity": 0, "duration": 69}, {"note": 66, "velocity": 93, "duration": 99}, {"note": 64, "velocity": 93, "duration": 82}, {"note": 66, "velocity": 95, "duration": 170}, {"note": 0, "velocity": 0, "duration": 70}, {"note": 66, "velocity": 92, "duration": 85}, {"note": 64, "velocity": 92, "duration": 71}, {"note": 66, "velocity": 94, "duration": 172}, {"note": 0, "velocity": 0, "duration": 68}, {"note": 64, "velocity": 95, "duration": 66}, {"note": 63, "velocity": 95, "duration": 70}, {"note": 64, "velocity": 93, "duration": 149}, {"note": 0, "velocity": 0, "duration": 91}, {"note": 64, "velocity": 91, "duration": 91}, {"note": 63, "velocity": 95, "duration": 66}, {"note": 64, "velocity": 94, "duration": 167}, {"note": 0, "velocity": 0, "duration": 73}, {"note": 64, "velocity": 95, "duration": 82}, {"note": 63, "velocity": 85, "duration": 68}, {"note": 64, "velocity": 95, "duration": 187}, {"note": 63, "velocity": 92, "duration": 86}, {"note": 59, "velocity": 91, "duration": 319}, {"note": 0, "velocity": 0, "duration": 281}, {"note": 61, "velocity": 93, "duration": 167}, {"note": 0, "velocity": 0, "duration": 73}, {"note": 61, "velocity": 93, "duration": 88}, {"note": 59, "velocity": 91, "duration": 82}, {"note": 61, "velocity": 93, "duration": 149}, {"note": 0, "velocity": 0, "duration": 91}, {"note": 61, "velocity": 95, "duration": 90}, {"note": 59, "velocity": 90, "duration": 63}, {"note": 59, "velocity": 92, "duration": 182}, {"note": 64, "velocity": 94, "duration": 198}, {"note": 68, "velocity": 92, "duration": 193}, {"note": 64, "velocity": 93, "duration": 147}, {"note": 0, "velocity": 0, "duration": 93}, {"note": 69, "velocity": 95, "duration": 150}, {"note": 0, "velocity": 0, "duration": 90}, {"note": 69, "velocity": 97, "duration": 85}, {"note": 68, "velocity": 92, "duration": 60}, {"note": 66, "velocity": 92, "duration": 166}, {"note": 0, "velocity": 0, "duration": 74}, {"note": 66, "velocity": 89, "duration": 104}, {"note": 64, "velocity": 91, "duration": 199}, {"note": 66, "velocity": 91, "duration": 639}, {"note": 0, "velocity": 0, "duration": 201}, {"note": 68, "velocity": 93, "duration": 160}, {"note": 0, "velocity": 0, "duration": 80}, {"note": 68, "velocity": 92, "duration": 72}, {"note": 66, "velocity": 85, "duration": 76}, {"note": 68, "velocity": 93, "duration": 185}, {"note": 66, "velocity": 83, "duration": 137}, {"note": 64, "velocity": 91, "duration": 62}, {"note": 66, "velocity": 91, "duration": 154}, {"note": 0, "velocity": 0, "duration": 86}, {"note": 66, "velocity": 91, "duration": 78}, {"note": 64, "velocity": 93, "duration": 58}, {"note": 0, "velocity": 0, "duration": 62}, {"note": 66, "velocity": 92, "duration": 165}, {"note": 0, "velocity": 0, "duration": 75}, {"note": 64, "velocity": 92, "duration": 85}, {"note": 63, "velocity": 93, "duration": 60}, {"note": 64, "velocity": 92, "duration": 162}, {"note": 0, "velocity": 0, "duration": 78}, {"note": 64, "velocity": 88, "duration": 70}, {"note": 63, "velocity": 91, "duration": 62}, {"note": 64, "velocity": 95, "duration": 175}, {"note": 0, "velocity": 0, "duration": 65}, {"note": 64, "velocity": 95, "duration": 82}, {"note": 63, "velocity": 91, "duration": 74}, {"note": 64, "velocity": 93, "duration": 186}, {"note": 63, "velocity": 93, "duration": 103}, {"note": 59, "velocity": 86, "duration": 293}, {"note": 0, "velocity": 0, "duration": 307}, {"note": 61, "velocity": 94, "duration": 172}, {"note": 0, "velocity": 0, "duration": 68}, {"note": 61, "velocity": 92, "duration": 87}, {"note": 59, "velocity": 89, "duration": 95}, {"note": 61, "velocity": 93, "duration": 168}, {"note": 0, "velocity": 0, "duration": 72}, {"note": 61, "velocity": 93, "duration": 92}, {"note": 59, "velocity": 89, "duration": 73}, {"note": 59, "velocity": 92, "duration": 169}, {"note": 0, "velocity": 0, "duration": 71}, {"note": 64, "velocity": 93, "duration": 183}, {"note": 68, "velocity": 93, "duration": 187}, {"note": 71, "velocity": 93, "duration": 187}, {"note": 69, "velocity": 92, "duration": 170}, {"note": 0, "velocity": 0, "duration": 70}, {"note": 69, "velocity": 95, "duration": 92}, {"note": 68, "velocity": 92, "duration": 87}, {"note": 66, "velocity": 91, "duration": 150}, {"note": 0, "velocity": 0, "duration": 90}, {"note": 66, "velocity": 93, "duration": 78}, {"note": 64, "velocity": 87, "duration": 80}, {"note": 66, "velocity": 92, "duration": 289}, {"note": 0, "velocity": 0, "duration": 71}, {"note": 59, "velocity": 93, "duration": 72}, {"note": 71, "velocity": 96, "duration": 77}, {"note": 69, "velocity": 94, "duration": 72}, {"note": 69, "velocity": 93, "duration": 77}, {"note": 68, "velocity": 95, "duration": 69}, {"note": 71, "velocity": 93, "duration": 228}, {"note": 0, "velocity": 0, "duration": 132}, {"note": 59, "velocity": 95, "duration": 95}, {"note": 71, "velocity": 93, "duration": 78}, {"note": 69, "velocity": 92, "duration": 69}, {"note": 69, "velocity": 93, "duration": 77}, {"note": 68, "velocity": 93, "duration": 69}, {"note": 66, "velocity": 93, "duration": 251}, {"note": 0, "velocity": 0, "duration": 109}, {"note": 66, "velocity": 92, "duration": 66}, {"note": 68, "velocity": 96, "duration": 64}, {"note": 69, "velocity": 100, "duration": 65}, {"note": 68, "velocity": 95, "duration": 59}, {"note": 0, "velocity": 0, "duration": 61}, {"note": 66, "velocity": 93, "duration": 68}, {"note": 64, "velocity": 100, "duration": 188}, {"note": 0, "velocity": 0, "duration": 172}, {"note": 64, "velocity": 93, "duration": 81}, {"note": 66, "velocity": 90, "duration": 75}, {"note": 64, "velocity": 93, "duration": 65}, {"note": 64, "velocity": 93, "duration": 75}, {"note": 66, "velocity": 92, "duration": 54}, {"note": 0, "velocity": 0, "duration": 66}, {"note": 68, "velocity": 97, "duration": 277}, {"note": 0, "velocity": 0, "duration": 83}, {"note": 68, "velocity": 94, "duration": 62}, {"note": 68, "velocity": 92, "duration": 80}, {"note": 66, "velocity": 91, "duration": 86}, {"note": 63, "velocity": 95, "duration": 86}, {"note": 64, "velocity": 92, "duration": 63}, {"note": 64, "velocity": 93, "duration": 275}, {"note": 0, "velocity": 0, "duration": 85}, {"note": 64, "velocity": 93, "duration": 72}, {"note": 66, "velocity": 91, "duration": 89}, {"note": 64, "velocity": 92, "duration": 53}, {"note": 0, "velocity": 0, "duration": 67}, {"note": 64, "velocity": 89, "duration": 73}, {"note": 59, "velocity": 91, "duration": 80}, {"note": 68, "velocity": 95, "duration": 245}, {"note": 0, "velocity": 0, "duration": 115}, {"note": 64, "velocity": 93, "duration": 80}, {"note": 66, "velocity": 92, "duration": 80}, {"note": 64, "velocity": 92, "duration": 55}, {"note": 0, "velocity": 0, "duration": 65}, {"note": 64, "velocity": 91, "duration": 82}, {"note": 61, "velocity": 92, "duration": 80}, {"note": 69, "velocity": 98, "duration": 279}, {"note": 0, "velocity": 0, "duration": 81}, {"note": 69, "velocity": 92, "duration": 72}, {"note": 69, "velocity": 95, "duration": 85}, {"note": 68, "velocity": 91, "duration": 75}, {"note": 64, "velocity": 95, "duration": 66}, {"note": 68, "velocity": 95, "duration": 187}, {"note": 66, "velocity": 93, "duration": 180}, {"note": 59, "velocity": 93, "duration": 72}, {"note": 71, "velocity": 96, "duration": 77}, {"note": 69, "velocity": 94, "duration": 72}, {"note": 69, "velocity": 93, "duration": 77}, {"note": 68, "velocity": 95, "duration": 69}, {"note": 71, "velocity": 93, "duration": 228}, {"note": 0, "velocity": 0, "duration": 132}, {"note": 59, "velocity": 95, "duration": 95}, {"note": 71, "velocity": 93, "duration": 78}, {"note": 69, "velocity": 92, "duration": 69}, {"note": 69, "velocity": 93, "duration": 77}, {"note": 68, "velocity": 93, "duration": 69}, {"note": 66, "velocity": 93, "duration": 251}, {"note": 0, "velocity": 0, "duration": 109}, {"note": 66, "velocity": 92, "duration": 66}, {"note": 68, "velocity": 96, "duration": 64}, {"note": 69, "velocity": 100, "duration": 65}, {"note": 68, "velocity": 95, "duration": 59}, {"note": 0, "velocity": 0, "duration": 61}, {"note": 66, "velocity": 93, "duration": 68}, {"note": 64, "velocity": 100, "duration": 188}, {"note": 0, "velocity": 0, "duration": 172}, {"note": 64, "velocity": 93, "duration": 81}, {"note": 66, "velocity": 90, "duration": 75}, {"note": 64, "velocity": 93, "duration": 65}, {"note": 64, "velocity": 93, "duration": 75}, {"note": 66, "velocity": 92, "duration": 54}, {"note": 0, "velocity": 0, "duration": 66}, {"note": 68, "velocity": 97, "duration": 277}, {"note": 0, "velocity": 0, "duration": 83}, {"note": 68, "velocity": 94, "duration": 62}, {"note": 68, "velocity": 92, "duration": 80}, {"note": 66, "velocity": 91, "duration": 86}, {"note": 63, "velocity": 95, "duration": 86}, {"note": 64, "velocity": 92, "duration": 63}, {"note": 64, "velocity": 93, "duration": 275}, {"note": 0, "velocity": 0, "duration": 85}, {"note": 64, "velocity": 93, "duration": 72}, {"note": 66, "velocity": 91, "duration": 89}, {"note": 64, "velocity": 92, "duration": 53}, {"note": 0, "velocity": 0, "duration": 67}, {"note": 64, "velocity": 89, "duration": 73}, {"note": 59, "velocity": 91, "duration": 80}, {"note": 68, "velocity": 95, "duration": 245}, {"note": 0, "velocity": 0, "duration": 115}, {"note": 64, "velocity": 93, "duration": 80}, {"note": 66, "velocity": 92, "duration": 80}, {"note": 64, "velocity": 92, "duration": 55}, {"note": 0, "velocity": 0, "duration": 65}, {"note": 64, "velocity": 91, "duration": 82}, {"note": 61, "velocity": 92, "duration": 80}, {"note": 69, "velocity": 98, "duration": 279}, {"note": 0, "velocity": 0, "duration": 81}, {"note": 69, "velocity": 92, "duration": 72}, {"note": 69, "velocity": 96, "duration": 176}, {"note": 0, "velocity": 0, "duration": 64}, {"note": 68, "velocity": 95, "duration": 615}, {"note": 0, "velocity": 0, "duration": 105}, {"note": 63, "velocity": 102, "duration": 181}, {"note": 66, "velocity": 94, "duration": 202}, {"note": 64, "velocity": 93, "duration": 1057}, {"note": 0, "velocity": 0, "duration": 863}, {"note": 68, "velocity": 93, "duration": 160}, {"note": 0, "velocity": 0, "duration": 80}, {"note": 68, "velocity": 92, "duration": 72}, {"note": 66, "velocity": 85, "duration": 76}, {"note": 68, "velocity": 93, "duration": 185}, {"note": 66, "velocity": 83, "duration": 137}, {"note": 64, "velocity": 91, "duration": 62}, {"note": 66, "velocity": 91, "duration": 154}, {"note": 0, "velocity": 0, "duration": 86}, {"note": 66, "velocity": 91, "duration": 78}, {"note": 64, "velocity": 93, "duration": 58}, {"note": 0, "velocity": 0, "duration": 62}, {"note": 66, "velocity": 92, "duration": 165}, {"note": 0, "velocity": 0, "duration": 75}, {"note": 64, "velocity": 92, "duration": 85}, {"note": 63, "velocity": 93, "duration": 60}, {"note": 64, "velocity": 92, "duration": 162}, {"note": 0, "velocity": 0, "duration": 78}, {"note": 64, "velocity": 88, "duration": 70}, {"note": 63, "velocity": 91, "duration": 62}, {"note": 64, "velocity": 95, "duration": 175}, {"note": 0, "velocity": 0, "duration": 65}, {"note": 64, "velocity": 95, "duration": 82}, {"note": 63, "velocity": 91, "duration": 74}, {"note": 64, "velocity": 93, "duration": 186}, {"note": 63, "velocity": 93, "duration": 103}, {"note": 59, "velocity": 86, "duration": 293}, {"note": 0, "velocity": 0, "duration": 307}, {"note": 61, "velocity": 94, "duration": 172}, {"note": 0, "velocity": 0, "duration": 68}, {"note": 61, "velocity": 92, "duration": 87}, {"note": 59, "velocity": 89, "duration": 95}, {"note": 61, "velocity": 93, "duration": 168}, {"note": 0, "velocity": 0, "duration": 72}, {"note": 61, "velocity": 93, "duration": 92}, {"note": 59, "velocity": 89, "duration": 73}, {"note": 59, "velocity": 92, "duration": 169}, {"note": 0, "velocity": 0, "duration": 71}, {"note": 64, "velocity": 93, "duration": 183}, {"note": 68, "velocity": 93, "duration": 187}, {"note": 71, "velocity": 93, "duration": 187}, {"note": 69, "velocity": 92, "duration": 170}, {"note": 0, "velocity": 0, "duration": 70}, {"note": 69, "velocity": 95, "duration": 92}, {"note": 68, "velocity": 92, "duration": 87}, {"note": 66, "velocity": 91, "duration": 150}, {"note": 0, "velocity": 0, "duration": 90}, {"note": 66, "velocity": 93, "duration": 78}, {"note": 64, "velocity": 87, "duration": 80}, {"note": 66, "velocity": 92, "duration": 289}, {"note": 0, "velocity": 0, "duration": 71}, {"note": 59, "velocity": 93, "duration": 72}, {"note": 71, "velocity": 96, "duration": 77}, {"note": 69, "velocity": 94, "duration": 72}, {"note": 69, "velocity": 93, "duration": 77}, {"note": 68, "velocity": 95, "duration": 69}, {"note": 71, "velocity": 93, "duration": 228}, {"note": 0, "velocity": 0, "duration": 132}, {"note": 59, "velocity": 95, "duration": 95}, {"note": 71, "velocity": 93, "duration": 78}, {"note": 69, "velocity": 92, "duration": 69}, {"note": 69, "velocity": 93, "duration": 77}, {"note": 68, "velocity": 93, "duration": 69}, {"note": 66, "velocity": 93, "duration": 251}, {"note": 0, "velocity": 0, "duration": 109}, {"note": 66, "velocity": 92, "duration": 66}, {"note": 68, "velocity": 96, "duration": 64}, {"note": 69, "velocity": 100, "duration": 65}, {"note": 68, "velocity": 95, "duration": 59}, {"note": 0, "velocity": 0, "duration": 61}, {"note": 66, "velocity": 93, "duration": 68}, {"note": 64, "velocity": 100, "duration": 188}, {"note": 0, "velocity": 0, "duration": 172}, {"note": 64, "velocity": 93, "duration": 81}, {"note": 66, "velocity": 90, "duration": 75}, {"note": 64, "velocity": 93, "duration": 65}, {"note": 64, "velocity": 93, "duration": 75}, {"note": 66, "velocity": 92, "duration": 54}, {"note": 0, "velocity": 0, "duration": 66}, {"note": 68, "velocity": 97, "duration": 277}, {"note": 0, "velocity": 0, "duration": 83}, {"note": 68, "velocity": 94, "duration": 62}, {"note": 68, "velocity": 92, "duration": 80}, {"note": 66, "velocity": 91, "duration": 86}, {"note": 63, "velocity": 95, "duration": 86}, {"note": 64, "velocity": 92, "duration": 63}, {"note": 64, "velocity": 93, "duration": 275}, {"note": 0, "velocity": 0, "duration": 85}, {"note": 64, "velocity": 93, "duration": 72}, {"note": 66, "velocity": 91, "duration": 89}, {"note": 64, "velocity": 92, "duration": 53}, {"note": 0, "velocity": 0, "duration": 67}, {"note": 64, "velocity": 89, "duration": 73}, {"note": 59, "velocity": 91, "duration": 80}, {"note": 68, "velocity": 95, "duration": 245}, {"note": 0, "velocity": 0, "duration": 115}, {"note": 64, "velocity": 93, "duration": 80}, {"note": 66, "velocity": 92, "duration": 80}, {"note": 64, "velocity": 92, "duration": 55}, {"note": 0, "velocity": 0, "duration": 65}, {"note": 64, "velocity": 91, "duration": 82}, {"note": 61, "velocity": 92, "duration": 80}, {"note": 69, "velocity": 98, "duration": 279}, {"note": 0, "velocity": 0, "duration": 81}, {"note": 69, "velocity": 92, "duration": 72}, {"note": 69, "velocity": 95, "duration": 85}, {"note": 68, "velocity": 91, "duration": 75}, {"note": 64, "velocity": 95, "duration": 66}, {"note": 68, "velocity": 95, "duration": 187}, {"note": 66, "velocity": 93, "duration": 180}, {"note": 59, "velocity": 93, "duration": 72}, {"note": 71, "velocity": 96, "duration": 77}, {"note": 69, "velocity": 94, "duration": 72}, {"note": 69, "velocity": 93, "duration": 77}, {"note": 68, "velocity": 95, "duration": 69}, {"note": 71, "velocity": 93, "duration": 228}, {"note": 0, "velocity": 0, "duration": 132}, {"note": 59, "velocity": 95, "duration": 95}, {"note": 71, "velocity": 93, "duration": 78}, {"note": 69, "velocity": 92, "duration": 69}, {"note": 69, "velocity": 93, "duration": 77}, {"note": 68, "velocity": 93, "duration": 69}, {"note": 66, "velocity": 93, "duration": 251}, {"note": 0, "velocity": 0, "duration": 109}, {"note": 66, "velocity": 92, "duration": 66}, {"note": 68, "velocity": 96, "duration": 64}, {"note": 69, "velocity": 100, "duration": 65}, {"note": 68, "velocity": 95, "duration": 59}, {"note": 0, "velocity": 0, "duration": 61}, {"note": 66, "velocity": 93, "duration": 68}, {"note": 64, "velocity": 100, "duration": 188}, {"note": 0, "velocity": 0, "duration": 172}, {"note": 64, "velocity": 93, "duration": 81}, {"note": 66, "velocity": 90, "duration": 75}, {"note": 64, "velocity": 93, "duration": 65}, {"note": 64, "velocity": 93, "duration": 75}, {"note": 66, "velocity": 92, "duration": 54}, {"note": 0, "velocity": 0, "duration": 66}, {"note": 68, "velocity": 97, "duration": 277}, {"note": 0, "velocity": 0, "duration": 83}, {"note": 68, "velocity": 94, "duration": 62}, {"note": 68, "velocity": 92, "duration": 80}, {"note": 66, "velocity": 91, "duration": 86}, {"note": 63, "velocity": 95, "duration": 86}, {"note": 64, "velocity": 92, "duration": 63}, {"note": 64, "velocity": 93, "duration": 275}, {"note": 0, "velocity": 0, "duration": 85}, {"note": 64, "velocity": 93, "duration": 72}, {"note": 66, "velocity": 91, "duration": 89}, {"note": 64, "velocity": 92, "duration": 53}, {"note": 0, "velocity": 0, "duration": 67}, {"note": 64, "velocity": 89, "duration": 73}, {"note": 59, "velocity": 91, "duration": 80}, {"note": 68, "velocity": 95, "duration": 245}, {"note": 0, "velocity": 0, "duration": 115}, {"note": 64, "velocity": 93, "duration": 80}, {"note": 66, "velocity": 92, "duration": 80}, {"note": 64, "velocity": 92, "duration": 55}, {"note": 0, "velocity": 0, "duration": 65}, {"note": 64, "velocity": 91, "duration": 82}, {"note": 61, "velocity": 92, "duration": 80}, {"note": 69, "velocity": 98, "duration": 279}, {"note": 0, "velocity": 0, "duration": 81}, {"note": 69, "velocity": 92, "duration": 72}, {"note": 69, "velocity": 96, "duration": 176}, {"note": 0, "velocity": 0, "duration": 64}, {"note": 68, "velocity": 95, "duration": 615}, {"note": 0, "velocity": 0, "duration": 105}, {"note": 63, "velocity": 102, "duration": 181}, {"note": 66, "velocity": 94, "duration": 202}, {"note": 64, "velocity": 93, "duration": 1057}, {"note": 0, "velocity": 0, "duration": 6023}, {"note": 59, "velocity": 93, "duration": 72}, {"note": 71, "velocity": 96, "duration": 77}, {"note": 69, "velocity": 94, "duration": 72}, {"note": 69, "velocity": 93, "duration": 77}, {"note": 68, "velocity": 95, "duration": 69}, {"note": 71, "velocity": 93, "duration": 228}, {"note": 0, "velocity": 0, "duration": 132}, {"note": 59, "velocity": 95, "duration": 95}, {"note": 71, "velocity": 93, "duration": 78}, {"note": 69, "velocity": 92, "duration": 69}, {"note": 69, "velocity": 93, "duration": 77}, {"note": 68, "velocity": 93, "duration": 69}, {"note": 66, "velocity": 93, "duration": 251}, {"note": 0, "velocity": 0, "duration": 109}, {"note": 66, "velocity": 92, "duration": 66}, {"note": 68, "velocity": 96, "duration": 64}, {"note": 69, "velocity": 100, "duration": 65}, {"note": 68, "velocity": 95, "duration": 59}, {"note": 0, "velocity": 0, "duration": 61}, {"note": 66, "velocity": 93, "duration": 68}, {"note": 64, "velocity": 100, "duration": 188}, {"note": 0, "velocity": 0, "duration": 172}, {"note": 64, "velocity": 93, "duration": 81}, {"note": 66, "velocity": 90, "duration": 75}, {"note": 64, "velocity": 93, "duration": 65}, {"note": 64, "velocity": 93, "duration": 75}, {"note": 66, "velocity": 92, "duration": 54}, {"note": 0, "velocity": 0, "duration": 66}, {"note": 68, "velocity": 97, "duration": 277}, {"note": 0, "velocity": 0, "duration": 83}, {"note": 68, "velocity": 94, "duration": 62}, {"note": 68, "velocity": 92, "duration": 80}, {"note": 66, "velocity": 91, "duration": 86}, {"note": 63, "velocity": 95, "duration": 86}, {"note": 64, "velocity": 92, "duration": 63}, {"note": 64, "velocity": 93, "duration": 275}, {"note": 0, "velocity": 0, "duration": 85}, {"note": 64, "velocity": 93, "duration": 72}, {"note": 66, "velocity": 91, "duration": 89}, {"note": 64, "velocity": 92, "duration": 53}, {"note": 0, "velocity": 0, "duration": 67}, {"note": 64, "velocity": 89, "duration": 73}, {"note": 59, "velocity": 91, "duration": 80}, {"note": 68, "velocity": 95, "duration": 245}, {"note": 0, "velocity": 0, "duration": 115}, {"note": 64, "velocity": 93, "duration": 80}, {"note": 66, "velocity": 92, "duration": 80}, {"note": 64, "velocity": 92, "duration": 55}, {"note": 0, "velocity": 0, "duration": 65}, {"note": 64, "velocity": 91, "duration": 82}, {"note": 61, "velocity": 92, "duration": 80}, {"note": 69, "velocity": 98, "duration": 279}, {"note": 0, "velocity": 0, "duration": 81}, {"note": 69, "velocity": 92, "duration": 72}, {"note": 69, "velocity": 95, "duration": 85}, {"note": 68, "velocity": 91, "duration": 75}, {"note": 64, "velocity": 95, "duration": 66}, {"note": 68, "velocity": 95, "duration": 187}, {"note": 66, "velocity": 93, "duration": 180}, {"note": 59, "velocity": 93, "duration": 72}, {"note": 71, "velocity": 96, "duration": 77}, {"note": 69, "velocity": 94, "duration": 72}, {"note": 69, "velocity": 93, "duration": 77}, {"note": 68, "velocity": 95, "duration": 69}, {"note": 71, "velocity": 93, "duration": 228}, {"note": 0, "velocity": 0, "duration": 132}, {"note": 59, "velocity": 95, "duration": 95}, {"note": 71, "velocity": 93, "duration": 78}, {"note": 69, "velocity": 92, "duration": 69}, {"note": 69, "velocity": 93, "duration": 77}, {"note": 68, "velocity": 93, "duration": 69}, {"note": 66, "velocity": 93, "duration": 251}, {"note": 0, "velocity": 0, "duration": 109}, {"note": 66, "velocity": 92, "duration": 66}, {"note": 68, "velocity": 96, "duration": 64}, {"note": 69, "velocity": 100, "duration": 65}, {"note": 68, "velocity": 95, "duration": 59}, {"note": 0, "velocity": 0, "duration": 61}, {"note": 66, "velocity": 93, "duration": 68}, {"note": 64, "velocity": 100, "duration": 188}, {"note": 0, "velocity": 0, "duration": 172}, {"note": 64, "velocity": 93, "duration": 81}, {"note": 66, "velocity": 90, "duration": 75}, {"note": 64, "velocity": 93, "duration": 65}, {"note": 64, "velocity": 93, "duration": 75}, {"note": 66, "velocity": 92, "duration": 54}, {"note": 0, "velocity": 0, "duration": 66}, {"note": 68, "velocity": 97, "duration": 277}, {"note": 0, "velocity": 0, "duration": 83}, {"note": 68, "velocity": 94, "duration": 62}, {"note": 68, "velocity": 92, "duration": 80}, {"note": 66, "velocity": 91, "duration": 86}, {"note": 63, "velocity": 95, "duration": 86}, {"note": 64, "velocity": 92, "duration": 63}, {"note": 64, "velocity": 93, "duration": 275}, {"note": 0, "velocity": 0, "duration": 85}, {"note": 64, "velocity": 93, "duration": 72}, {"note": 66, "velocity": 91, "duration": 89}, {"note": 64, "velocity": 92, "duration": 53}, {"note": 0, "velocity": 0, "duration": 67}, {"note": 64, "velocity": 89, "duration": 73}, {"note": 59, "velocity": 91, "duration": 80}, {"note": 68, "velocity": 95, "duration": 245}, {"note": 0, "velocity": 0, "duration": 115}, {"note": 64, "velocity": 93, "duration": 80}, {"note": 66, "velocity": 92, "duration": 80}, {"note": 64, "velocity": 92, "duration": 55}, {"note": 0, "velocity": 0, "duration": 65}, {"note": 64, "velocity": 91, "duration": 82}, {"note": 61, "velocity": 92, "duration": 80}, {"note": 69, "velocity": 98, "duration": 279}, {"note": 0, "velocity": 0, "duration": 81}, {"note": 69, "velocity": 92, "duration": 72}, {"note": 69, "velocity": 96, "duration": 176}, {"note": 0, "velocity": 0, "duration": 64}, {"note": 68, "velocity": 95, "duration": 615}, {"note": 0, "velocity": 0, "duration": 105}, {"note": 63, "velocity": 102, "duration": 181}, {"note": 66, "velocity": 94, "duration": 202}, {"note": 64, "velocity": 93, "duration": 1057}]]