[[{"note": 61, "velocity": 95, "duration": 83}, {"note": 61, "velocity": 95, "duration": 86}, {"note": 70, "velocity": 93, "duration": 387}, {"note": 0, "velocity": 0, "duration": 93}, {"note": 68, "velocity": 96, "duration": 185}, {"note": 66, "velocity": 94, "duration": 171}, {"note": 0, "velocity": 0, "duration": 69}, {"note": 68, "velocity": 90, "duration": 522}, {"note": 0, "velocity": 0, "duration": 78}, {"note": 68, "velocity": 93, "duration": 84}, {"note": 65, "velocity": 100, "duration": 77}, {"note": 66, "velocity": 92, "duration": 68}, {"note": 68, "velocity": 95, "duration": 396}, {"note": 0, "velocity": 0, "duration": 84}, {"note": 65, "velocity": 98, "duration": 199}, {"note": 68, "velocity": 95, "duration": 205}, {"note": 66, "velocity": 92, "duration": 525}, {"note": 0, "velocity": 0, "duration": 195}, {"note": 66, "velocity": 97, "duration": 73}, {"note": 65, "velocity": 97, "duration": 64}, {"note": 63, "velocity": 95, "duration": 199}, {"note": 65, "velocity": 97, "duration": 147}, {"note": 0, "velocity": 0, "duration": 93}, {"note": 66, "velocity": 95, "duration": 179}, {"note": 0, "velocity": 0, "duration": 61}, {"note": 70, "velocity": 91, "duration": 78}, {"note": 66, "velocity": 96, "duration": 114}, {"note": 61, "velocity": 96, "duration": 457}, {"note": 0, "velocity": 0, "duration": 263}, {"note": 59, "velocity": 95, "duration": 212}, {"note": 58, "velocity": 90, "duration": 938}, {"note": 0, "velocity": 0, "duration": 1222}, {"note": 63, "velocity": 93, "duration": 88}, {"note": 65, "velocity": 97, "duration": 80}, {"note": 66, "velocity": 97, "duration": 184}, {"note": 68, "velocity": 90, "duration": 88}, {"note": 65, "velocity": 96, "duration": 202}, {"note": 66, "velocity": 95, "duration": 626}, {"note": 0, "velocity": 0, "duration": 454}, {"note": 68, "velocity": 89, "duration": 81}, {"note": 70, "velocity": 96, "duration": 78}, {"note": 71, "velocity": 96, "duration": 181}, {"note": 71, "velocity": 98, "duration": 180}, {"note": 70, "velocity": 95, "duration": 578}, {"note": 0, "velocity": 0, "duration": 142}, {"note": 66, "velocity": 96, "duration": 67}, {"note": 68, "velocity": 89, "duration": 73}, {"note": 70, "velocity": 96, "duration": 165}, {"note": 0, "velocity": 0, "duration": 75}, {"note": 70, "velocity": 97, "duration": 322}, {"note": 0, "velocity": 0, "duration": 158}, {"note": 70, "velocity": 97, "duration": 56}, {"note": 0, "velocity": 0, "duration": 64}, {"note": 70, "velocity": 97, "duration": 67}, {"note": 63, "velocity": 96, "duration": 170}, {"note": 0, "velocity": 0, "duration": 70}, {"note": 66, "velocity": 97, "duration": 177}, {"note": 0, "velocity": 0, "duration": 63}, {"note": 63, "velocity": 93, "duration": 176}, {"note": 0, "velocity": 0, "duration": 64}, {"note": 66, "velocity": 93, "duration": 180}, {"note": 70, "velocity": 92, "duration": 101}, {"note": 65, "velocity": 92, "duration": 83}, {"note": 65, "velocity": 95, "duration": 941}, {"note": 0, "velocity": 0, "duration": 499}, {"note": 58, "velocity": 94, "duration": 70}, {"note": 61, "velocity": 96, "duration": 84}, {"note": 70, "velocity": 97, "duration": 414}, {"note": 0, "velocity": 0, "duration": 66}, {"note": 68, "velocity": 96, "duration": 195}, {"note": 66, "velocity": 92, "duration": 72}, {"note": 68, "velocity": 96, "duration": 640}, {"note": 0, "velocity": 0, "duration": 80}, {"note": 68, "velocity": 94, "duration": 74}, {"note": 65, "velocity": 96, "duration": 64}, {"note": 66, "velocity": 94, "duration": 91}, {"note": 68, "velocity": 94, "duration": 426}, {"note": 65, "velocity": 96, "duration": 206}, {"note": 68, "velocity": 91, "duration": 195}, {"note": 66, "velocity": 90, "duration": 481}, {"note": 0, "velocity": 0, "duration": 119}, {"note": 66, "velocity": 95, "duration": 66}, {"note": 66, "velocity": 97, "duration": 72}, {"note": 65, "velocity": 97, "duration": 75}, {"note": 63, "velocity": 96, "duration": 163}, {"note": 0, "velocity": 0, "duration": 77}, {"note": 65, "velocity": 97, "duration": 150}, {"note": 0, "velocity": 0, "duration": 90}, {"note": 66, "velocity": 99, "duration": 209}, {"note": 70, "velocity": 95, "duration": 81}, {"note": 66, "velocity": 96, "duration": 176}, {"note": 0, "velocity": 0, "duration": 64}, {"note": 61, "velocity": 96, "duration": 377}, {"note": 0, "velocity": 0, "duration": 223}, {"note": 59, "velocity": 95, "duration": 197}, {"note": 58, "velocity": 93, "duration": 958}, {"note": 0, "velocity": 0, "duration": 1202}, {"note": 63, "velocity": 89, "duration": 78}, {"note": 65, "velocity": 96, "duration": 75}, {"note": 66, "velocity": 96, "duration": 178}, {"note": 0, "velocity": 0, "duration": 62}, {"note": 68, "velocity": 91, "duration": 97}, {"note": 65, "velocity": 96, "duration": 168}, {"note": 0, "velocity": 0, "duration": 72}, {"note": 66, "velocity": 95, "duration": 752}, {"note": 0, "velocity": 0, "duration": 328}, {"note": 68, "velocity": 93, "duration": 91}, {"note": 70, "velocity": 94, "duration": 90}, {"note": 71, "velocity": 96, "duration": 174}, {"note": 0, "velocity": 0, "duration": 66}, {"note": 71, "velocity": 97, "duration": 197}, {"note": 70, "velocity": 96, "duration": 535}, {"note": 0, "velocity": 0, "duration": 185}, {"note": 66, "velocity": 91, "duration": 75}, {"note": 68, "velocity": 93, "duration": 73}, {"note": 70, "velocity": 97, "duration": 164}, {"note": 0, "velocity": 0, "duration": 76}, {"note": 70, "velocity": 96, "duration": 341}, {"note": 0, "velocity": 0, "duration": 139}, {"note": 70, "velocity": 96, "duration": 55}, {"note": 0, "velocity": 0, "duration": 65}, {"note": 70, "velocity": 95, "duration": 66}, {"note": 63, "velocity": 95, "duration": 198}, {"note": 66, "velocity": 94, "duration": 206}, {"note": 68, "velocity": 91, "duration": 174}, {"note": 0, "velocity": 0, "duration": 66}, {"note": 66, "velocity": 96, "duration": 169}, {"note": 0, "velocity": 0, "duration": 71}, {"note": 65, "velocity": 95, "duration": 179}, {"note": 0, "velocity": 0, "duration": 61}, {"note": 66, "velocity": 96, "duration": 1201}, {"note": 0, "velocity": 0, "duration": 359}, {"note": 61, "velocity": 96, "duration": 74}, {"note": 61, "velocity": 97, "duration": 196}, {"note": 73, "velocity": 96, "duration": 172}, {"note": 0, "velocity": 0, "duration": 68}, {"note": 71, "velocity": 95, "duration": 200}, {"note": 70, "velocity": 97, "duration": 150}, {"note": 0, "velocity": 0, "duration": 90}, {"note": 68, "velocity": 91, "duration": 266}, {"note": 0, "velocity": 0, "duration": 94}, {"note": 70, "velocity": 95, "duration": 80}, {"note": 71, "velocity": 96, "duration": 240}, {"note": 70, "velocity": 97, "duration": 494}, {"note": 0, "velocity": 0, "duration": 226}, {"note": 68, "velocity": 91, "duration": 202}, {"note": 71, "velocity": 99, "duration": 205}, {"note": 70, "velocity": 97, "duration": 512}, {"note": 0, "velocity": 0, "duration": 328}, {"note": 66, "velocity": 95, "duration": 115}, {"note": 75, "velocity": 101, "duration": 286}, {"note": 0, "velocity": 0, "duration": 74}, {"note": 73, "velocity": 96, "duration": 74}, {"note": 71, "velocity": 93, "duration": 192}, {"note": 73, "velocity": 96, "duration": 282}, {"note": 0, "velocity": 0, "duration": 78}, {"note": 66, "velocity": 92, "duration": 62}, {"note": 66, "velocity": 95, "duration": 86}, {"note": 73, "velocity": 95, "duration": 72}, {"note": 68, "velocity": 89, "duration": 172}, {"note": 0, "velocity": 0, "duration": 68}, {"note": 66, "velocity": 95, "duration": 251}, {"note": 0, "velocity": 0, "duration": 109}, {"note": 63, "velocity": 95, "duration": 59}, {"note": 0, "velocity": 0, "duration": 61}, {"note": 63, "velocity": 96, "duration": 80}, {"note": 65, "velocity": 97, "duration": 70}, {"note": 66, "velocity": 97, "duration": 194}, {"note": 70, "velocity": 95, "duration": 168}, {"note": 0, "velocity": 0, "duration": 72}, {"note": 68, "velocity": 93, "duration": 744}, {"note": 0, "velocity": 0, "duration": 96}, {"note": 61, "velocity": 91, "duration": 70}, {"note": 61, "velocity": 96, "duration": 276}, {"note": 0, "velocity": 0, "duration": 84}, {"note": 73, "velocity": 96, "duration": 86}, {"note": 71, "velocity": 98, "duration": 220}, {"note": 70, "velocity": 97, "duration": 250}, {"note": 68, "velocity": 95, "duration": 353}, {"note": 70, "velocity": 90, "duration": 123}, {"note": 71, "velocity": 96, "duration": 240}, {"note": 70, "velocity": 93, "duration": 395}, {"note": 0, "velocity": 0, "duration": 325}, {"note": 68, "velocity": 95, "duration": 215}, {"note": 71, "velocity": 95, "duration": 236}, {"note": 70, "velocity": 95, "duration": 583}, {"note": 0, "velocity": 0, "duration": 257}, {"note": 66, "velocity": 91, "duration": 110}, {"note": 75, "velocity": 106, "duration": 298}, {"note": 0, "velocity": 0, "duration": 62}, {"note": 73, "velocity": 97, "duration": 77}, {"note": 71, "velocity": 99, "duration": 179}, {"note": 0, "velocity": 0, "duration": 61}, {"note": 73, "velocity": 98, "duration": 295}, {"note": 0, "velocity": 0, "duration": 65}, {"note": 66, "velocity": 93, "duration": 66}, {"note": 66, "velocity": 95, "duration": 86}, {"note": 73, "velocity": 97, "duration": 70}, {"note": 68, "velocity": 91, "duration": 162}, {"note": 0, "velocity": 0, "duration": 78}, {"note": 66, "velocity": 96, "duration": 172}, {"note": 0, "velocity": 0, "duration": 68}, {"note": 66, "velocity": 96, "duration": 560}, {"note": 0, "velocity": 0, "duration": 160}, {"note": 63, "velocity": 95, "duration": 75}, {"note": 65, "velocity": 97, "duration": 67}, {"note": 66, "velocity": 95, "duration": 512}, {"note": 0, "velocity": 0, "duration": 208}, {"note": 68, "velocity": 94, "duration": 372}, {"note": 0, "velocity": 0, "duration": 108}, {"note": 66, "velocity": 97, "duration": 1558}, {"note": 0, "velocity": 0, "duration": 7682}, {"note": 61, "velocity": 96, "duration": 74}, {"note": 61, "velocity": 97, "duration": 196}, {"note": 73, "velocity": 96, "duration": 172}, {"note": 0, "velocity": 0, "duration": 68}, {"note": 71, "velocity": 95, "duration": 200}, {"note": 70, "velocity": 97, "duration": 150}, {"note": 0, "velocity": 0, "duration": 90}, {"note": 68, "velocity": 91, "duration": 266}, {"note": 0, "velocity": 0, "duration": 94}, {"note": 70, "velocity": 95, "duration": 80}, {"note": 71, "velocity": 96, "duration": 240}, {"note": 70, "velocity": 97, "duration": 494}, {"note": 0, "velocity": 0, "duration": 226}, {"note": 68, "velocity": 91, "duration": 202}, {"note": 71, "velocity": 99, "duration": 205}, {"note": 70, "velocity": 97, "duration": 512}, {"note": 0, "velocity": 0, "duration": 328}, {"note": 66, "velocity": 95, "duration": 115}, {"note": 75, "velocity": 101, "duration": 286}, {"note": 0, "velocity": 0, "duration": 74}, {"note": 73, "velocity": 96, "duration": 74}, {"note": 71, "velocity": 93, "duration": 192}, {"note": 73, "velocity": 96, "duration": 282}, {"note": 0, "velocity": 0, "duration": 78}, {"note": 66, "velocity": 92, "duration": 62}, {"note": 66, "velocity": 95, "duration": 86}, {"note": 73, "velocity": 95, "duration": 72}, {"note": 68, "velocity": 89, "duration": 172}, {"note": 0, "velocity": 0, "duration": 68}, {"note": 66, "velocity": 95, "duration": 251}, {"note": 0, "velocity": 0, "duration": 109}, {"note": 63, "velocity": 95, "duration": 59}, {"note": 0, "velocity": 0, "duration": 61}, {"note": 63, "velocity": 96, "duration": 80}, {"note": 65, "velocity": 97, "duration": 70}, {"note": 66, "velocity": 97, "duration": 194}, {"note": 70, "velocity": 95, "duration": 168}, {"note": 0, "velocity": 0, "duration": 72}, {"note": 68, "velocity": 93, "duration": 744}, {"note": 0, "velocity": 0, "duration": 96}, {"note": 61, "velocity": 91, "duration": 70}, {"note": 61, "velocity": 96, "duration": 276}, {"note": 0, "velocity": 0, "duration": 84}, {"note": 73, "velocity": 96, "duration": 86}, {"note": 71, "velocity": 98, "duration": 220}, {"note": 70, "velocity": 97, "duration": 250}, {"note": 68, "velocity": 95, "duration": 353}, {"note": 70, "velocity": 90, "duration": 123}, {"note": 71, "velocity": 96, "duration": 240}, {"note": 70, "velocity": 93, "duration": 395}, {"note": 0, "velocity": 0, "duration": 325}, {"note": 68, "velocity": 95, "duration": 215}, {"note": 71, "velocity": 95, "duration": 236}, {"note": 70, "velocity": 95, "duration": 583}, {"note": 0, "velocity": 0, "duration": 257}, {"note": 66, "velocity": 91, "duration": 110}, {"note": 75, "velocity": 106, "duration": 298}, {"note": 0, "velocity": 0, "duration": 62}, {"note": 73, "velocity": 97, "duration": 77}, {"note": 71, "velocity": 99, "duration": 179}, {"note": 0, "velocity": 0, "duration": 61}, {"note": 73, "velocity": 98, "duration": 295}, {"note": 0, "velocity": 0, "duration": 65}, {"note": 66, "velocity": 93, "duration": 66}, {"note": 66, "velocity": 95, "duration": 86}, {"note": 73, "velocity": 97, "duration": 70}, {"note": 68, "velocity": 91, "duration": 162}, {"note": 0, "velocity": 0, "duration": 78}, {"note": 66, "velocity": 96, "duration": 172}, {"note": 0, "velocity": 0, "duration": 68}, {"note": 66, "velocity": 96, "duration": 560}, {"note": 0, "velocity": 0, "duration": 160}, {"note": 63, "velocity": 95, "duration": 75}, {"note": 65, "velocity": 97, "duration": 67}, {"note": 66, "velocity": 95, "duration": 512}, {"note": 0, "velocity": 0, "duration": 208}, {"note": 68, "velocity": 94, "duration": 372}, {"note": 0, "velocity": 0, "duration": 108}, {"note": 66, "velocity": 97, "duration": 1200}, {"note": 0, "velocity": 0, "duration": 120}, {"note": 61, "velocity": 99, "duration": 61}, {"note": 61, "velocity": 99, "duration": 91}, {"note": 73, "velocity": 96, "duration": 101}, {"note": 71, "velocity": 96, "duration": 192}, {"note": 70, "velocity": 95, "duration": 180}, {"note": 71, "velocity": 97, "duration": 214}, {"note": 70, "velocity": 95, "duration": 84}, {"note": 71, "velocity": 90, "duration": 278}, {"note": 68, "velocity": 95, "duration": 491}, {"note": 68, "velocity": 95, "duration": 11}, {"note": 0, "velocity": 0, "duration": 109}, {"note": 68, "velocity": 96, "duration": 66}, {"note": 66, "velocity": 96, "duration": 81}, {"note": 65, "velocity": 97, "duration": 161}, {"note": 0, "velocity": 0, "duration": 79}, {"note": 58, "velocity": 100, "duration": 176}, {"note": 0, "velocity": 0, "duration": 64}, {"note": 58, "velocity": 99, "duration": 156}, {"note": 0, "velocity": 0, "duration": 84}, {"note": 68, "velocity": 82, "duration": 65}, {"note": 70, "velocity": 97, "duration": 360}, {"note": 66, "velocity": 97, "duration": 356}, {"note": 0, "velocity": 0, "duration": 244}, {"note": 63, "velocity": 93, "duration": 115}, {"note": 70, "velocity": 97, "duration": 210}, {"note": 68, "velocity": 90, "duration": 399}, {"note": 0, "velocity": 0, "duration": 81}, {"note": 66, "velocity": 96, "duration": 203}, {"note": 65, "velocity": 96, "duration": 195}, {"note": 63, "velocity": 97, "duration": 387}, {"note": 0, "velocity": 0, "duration": 101}, {"note": 65, "velocity": 95, "duration": 237}, {"note": 68, "velocity": 92, "duration": 509}, {"note": 66, "velocity": 89, "duration": 1463}]]