[[{"note": 70, "velocity": 95, "duration": 134}, {"note": 0, "velocity": 0, "duration": 106}, {"note": 70, "velocity": 100, "duration": 212}, {"note": 78, "velocity": 96, "duration": 383}, {"note": 0, "velocity": 0, "duration": 97}, {"note": 77, "velocity": 111, "duration": 387}, {"note": 0, "velocity": 0, "duration": 333}, {"note": 77, "velocity": 95, "duration": 174}, {"note": 0, "velocity": 0, "duration": 66}, {"note": 75, "velocity": 98, "duration": 403}, {"note": 0, "velocity": 0, "duration": 77}, {"note": 74, "velocity": 98, "duration": 434}, {"note": 75, "velocity": 100, "duration": 825}, {"note": 0, "velocity": 0, "duration": 855}, {"note": 70, "velocity": 94, "duration": 175}, {"note": 0, "velocity": 0, "duration": 65}, {"note": 71, "velocity": 95, "duration": 359}, {"note": 0, "velocity": 0, "duration": 121}, {"note": 71, "velocity": 96, "duration": 403}, {"note": 0, "velocity": 0, "duration": 77}, {"note": 73, "velocity": 94, "duration": 382}, {"note": 0, "velocity": 0, "duration": 98}, {"note": 73, "velocity": 98, "duration": 480}, {"note": 70, "velocity": 94, "duration": 698}, {"note": 0, "velocity": 0, "duration": 262}, {"note": 70, "velocity": 99, "duration": 180}, {"note": 70, "velocity": 95, "duration": 189}, {"note": 78, "velocity": 98, "duration": 395}, {"note": 0, "velocity": 0, "duration": 85}, {"note": 77, "velocity": 100, "duration": 638}, {"note": 0, "velocity": 0, "duration": 82}, {"note": 77, "velocity": 94, "duration": 184}, {"note": 80, "velocity": 100, "duration": 449}, {"note": 77, "velocity": 99, "duration": 425}, {"note": 75, "velocity": 99, "duration": 1027}, {"note": 0, "velocity": 0, "duration": 653}, {"note": 75, "velocity": 96, "duration": 192}, {"note": 82, "velocity": 96, "duration": 414}, {"note": 0, "velocity": 0, "duration": 66}, {"note": 78, "velocity": 95, "duration": 360}, {"note": 0, "velocity": 0, "duration": 120}, {"note": 74, "velocity": 96, "duration": 871}, {"note": 0, "velocity": 0, "duration": 89}, {"note": 78, "velocity": 98, "duration": 391}, {"note": 0, "velocity": 0, "duration": 89}, {"note": 75, "velocity": 101, "duration": 563}, {"note": 0, "velocity": 0, "duration": 157}, {"note": 75, "velocity": 108, "duration": 185}, {"note": 78, "velocity": 100, "duration": 372}, {"note": 0, "velocity": 0, "duration": 108}, {"note": 80, "velocity": 98, "duration": 410}, {"note": 0, "velocity": 0, "duration": 70}, {"note": 82, "velocity": 96, "duration": 372}, {"note": 0, "velocity": 0, "duration": 108}, {"note": 80, "velocity": 98, "duration": 365}, {"note": 0, "velocity": 0, "duration": 115}, {"note": 78, "velocity": 98, "duration": 387}, {"note": 0, "velocity": 0, "duration": 93}, {"note": 75, "velocity": 108, "duration": 468}, {"note": 0, "velocity": 0, "duration": 732}, {"note": 75, "velocity": 108, "duration": 176}, {"note": 0, "velocity": 0, "duration": 64}, {"note": 78, "velocity": 98, "duration": 348}, {"note": 0, "velocity": 0, "duration": 132}, {"note": 80, "velocity": 97, "duration": 395}, {"note": 0, "velocity": 0, "duration": 85}, {"note": 82, "velocity": 98, "duration": 381}, {"note": 0, "velocity": 0, "duration": 99}, {"note": 80, "velocity": 95, "duration": 406}, {"note": 0, "velocity": 0, "duration": 74}, {"note": 78, "velocity": 96, "duration": 462}, {"note": 75, "velocity": 105, "duration": 946}, {"note": 0, "velocity": 0, "duration": 254}, {"note": 75, "velocity": 110, "duration": 178}, {"note": 0, "velocity": 0, "duration": 62}, {"note": 78, "velocity": 98, "duration": 361}, {"note": 0, "velocity": 0, "duration": 119}, {"note": 80, "velocity": 98, "duration": 419}, {"note": 0, "velocity": 0, "duration": 61}, {"note": 82, "velocity": 95, "duration": 375}, {"note": 0, "velocity": 0, "duration": 105}, {"note": 80, "velocity": 99, "duration": 391}, {"note": 0, "velocity": 0, "duration": 89}, {"note": 78, "velocity": 101, "duration": 435}, {"note": 0, "velocity": 0, "duration": 285}, {"note": 85, "velocity": 101, "duration": 369}, {"note": 83, "velocity": 96, "duration": 159}, {"note": 0, "velocity": 0, "duration": 201}, {"note": 83, "velocity": 100, "duration": 412}, {"note": 0, "velocity": 0, "duration": 68}, {"note": 78, "velocity": 101, "duration": 480}, {"note": 78, "velocity": 101, "duration": 1200}, {"note": 0, "velocity": 0, "duration": 1440}, {"note": 78, "velocity": 97, "duration": 178}, {"note": 0, "velocity": 0, "duration": 62}, {"note": 78, "velocity": 96, "duration": 198}, {"note": 78, "velocity": 98, "duration": 240}, {"note": 77, "velocity": 93, "duration": 126}, {"note": 0, "velocity": 0, "duration": 114}, {"note": 78, "velocity": 98, "duration": 179}, {"note": 0, "velocity": 0, "duration": 61}, {"note": 82, "velocity": 97, "duration": 406}, {"note": 0, "velocity": 0, "duration": 74}, {"note": 77, "velocity": 100, "duration": 533}, {"note": 0, "velocity": 0, "duration": 187}, {"note": 70, "velocity": 103, "duration": 172}, {"note": 0, "velocity": 0, "duration": 68}, {"note": 80, "velocity": 94, "duration": 116}, {"note": 0, "velocity": 0, "duration": 124}, {"note": 77, "velocity": 98, "duration": 163}, {"note": 0, "velocity": 0, "duration": 77}, {"note": 78, "velocity": 97, "duration": 960}, {"note": 0, "velocity": 0, "duration": 720}, {"note": 75, "velocity": 111, "duration": 149}, {"note": 0, "velocity": 0, "duration": 91}, {"note": 78, "velocity": 100, "duration": 130}, {"note": 0, "velocity": 0, "duration": 110}, {"note": 81, "velocity": 103, "duration": 72}, {"note": 80, "velocity": 98, "duration": 57}, {"note": 0, "velocity": 0, "duration": 63}, {"note": 78, "velocity": 100, "duration": 340}, {"note": 0, "velocity": 0, "duration": 140}, {"note": 78, "velocity": 99, "duration": 157}, {"note": 0, "velocity": 0, "duration": 83}, {"note": 78, "velocity": 96, "duration": 201}, {"note": 73, "velocity": 98, "duration": 182}, {"note": 80, "velocity": 99, "duration": 169}, {"note": 0, "velocity": 0, "duration": 71}, {"note": 82, "velocity": 101, "duration": 683}, {"note": 78, "velocity": 96, "duration": 177}, {"note": 0, "velocity": 0, "duration": 63}, {"note": 78, "velocity": 96, "duration": 172}, {"note": 0, "velocity": 0, "duration": 68}, {"note": 78, "velocity": 100, "duration": 192}, {"note": 77, "velocity": 100, "duration": 171}, {"note": 0, "velocity": 0, "duration": 69}, {"note": 78, "velocity": 96, "duration": 162}, {"note": 0, "velocity": 0, "duration": 78}, {"note": 82, "velocity": 100, "duration": 413}, {"note": 0, "velocity": 0, "duration": 67}, {"note": 77, "velocity": 98, "duration": 319}, {"note": 0, "velocity": 0, "duration": 401}, {"note": 70, "velocity": 98, "duration": 205}, {"note": 80, "velocity": 98, "duration": 189}, {"note": 77, "velocity": 96, "duration": 172}, {"note": 0, "velocity": 0, "duration": 68}, {"note": 78, "velocity": 98, "duration": 960}, {"note": 0, "velocity": 0, "duration": 720}, {"note": 78, "velocity": 99, "duration": 426}, {"note": 85, "velocity": 100, "duration": 675}, {"note": 0, "velocity": 0, "duration": 165}, {"note": 83, "velocity": 95, "duration": 480}, {"note": 78, "velocity": 98, "duration": 1680}, {"note": 0, "velocity": 0, "duration": 1680}, {"note": 70, "velocity": 95, "duration": 134}, {"note": 0, "velocity": 0, "duration": 106}, {"note": 70, "velocity": 100, "duration": 212}, {"note": 78, "velocity": 96, "duration": 383}, {"note": 0, "velocity": 0, "duration": 97}, {"note": 77, "velocity": 111, "duration": 387}, {"note": 0, "velocity": 0, "duration": 333}, {"note": 77, "velocity": 95, "duration": 174}, {"note": 0, "velocity": 0, "duration": 66}, {"note": 75, "velocity": 98, "duration": 403}, {"note": 0, "velocity": 0, "duration": 77}, {"note": 74, "velocity": 98, "duration": 434}, {"note": 75, "velocity": 100, "duration": 825}, {"note": 0, "velocity": 0, "duration": 855}, {"note": 70, "velocity": 94, "duration": 175}, {"note": 0, "velocity": 0, "duration": 65}, {"note": 71, "velocity": 95, "duration": 359}, {"note": 0, "velocity": 0, "duration": 121}, {"note": 71, "velocity": 96, "duration": 403}, {"note": 0, "velocity": 0, "duration": 77}, {"note": 73, "velocity": 94, "duration": 382}, {"note": 0, "velocity": 0, "duration": 98}, {"note": 73, "velocity": 98, "duration": 480}, {"note": 70, "velocity": 94, "duration": 698}, {"note": 0, "velocity": 0, "duration": 262}, {"note": 70, "velocity": 99, "duration": 180}, {"note": 70, "velocity": 95, "duration": 189}, {"note": 78, "velocity": 98, "duration": 395}, {"note": 0, "velocity": 0, "duration": 85}, {"note": 77, "velocity": 100, "duration": 638}, {"note": 0, "velocity": 0, "duration": 82}, {"note": 77, "velocity": 94, "duration": 184}, {"note": 80, "velocity": 100, "duration": 449}, {"note": 77, "velocity": 99, "duration": 425}, {"note": 75, "velocity": 99, "duration": 1027}, {"note": 0, "velocity": 0, "duration": 653}, {"note": 75, "velocity": 96, "duration": 192}, {"note": 82, "velocity": 96, "duration": 414}, {"note": 0, "velocity": 0, "duration": 66}, {"note": 78, "velocity": 95, "duration": 360}, {"note": 0, "velocity": 0, "duration": 120}, {"note": 74, "velocity": 96, "duration": 871}, {"note": 0, "velocity": 0, "duration": 89}, {"note": 78, "velocity": 98, "duration": 391}, {"note": 0, "velocity": 0, "duration": 89}, {"note": 75, "velocity": 101, "duration": 563}, {"note": 0, "velocity": 0, "duration": 157}, {"note": 75, "velocity": 108, "duration": 185}, {"note": 78, "velocity": 100, "duration": 372}, {"note": 0, "velocity": 0, "duration": 108}, {"note": 80, "velocity": 98, "duration": 410}, {"note": 0, "velocity": 0, "duration": 70}, {"note": 82, "velocity": 96, "duration": 372}, {"note": 0, "velocity": 0, "duration": 108}, {"note": 80, "velocity": 98, "duration": 365}, {"note": 0, "velocity": 0, "duration": 115}, {"note": 78, "velocity": 98, "duration": 387}, {"note": 0, "velocity": 0, "duration": 93}, {"note": 75, "velocity": 108, "duration": 468}, {"note": 0, "velocity": 0, "duration": 732}, {"note": 75, "velocity": 108, "duration": 176}, {"note": 0, "velocity": 0, "duration": 64}, {"note": 78, "velocity": 98, "duration": 348}, {"note": 0, "velocity": 0, "duration": 132}, {"note": 80, "velocity": 97, "duration": 395}, {"note": 0, "velocity": 0, "duration": 85}, {"note": 82, "velocity": 98, "duration": 381}, {"note": 0, "velocity": 0, "duration": 99}, {"note": 80, "velocity": 95, "duration": 406}, {"note": 0, "velocity": 0, "duration": 74}, {"note": 78, "velocity": 96, "duration": 462}, {"note": 75, "velocity": 105, "duration": 946}, {"note": 0, "velocity": 0, "duration": 254}, {"note": 75, "velocity": 110, "duration": 178}, {"note": 0, "velocity": 0, "duration": 62}, {"note": 78, "velocity": 98, "duration": 361}, {"note": 0, "velocity": 0, "duration": 119}, {"note": 80, "velocity": 98, "duration": 419}, {"note": 0, "velocity": 0, "duration": 61}, {"note": 82, "velocity": 95, "duration": 375}, {"note": 0, "velocity": 0, "duration": 105}, {"note": 80, "velocity": 99, "duration": 391}, {"note": 0, "velocity": 0, "duration": 89}, {"note": 78, "velocity": 101, "duration": 435}, {"note": 0, "velocity": 0, "duration": 285}, {"note": 85, "velocity": 101, "duration": 369}, {"note": 83, "velocity": 96, "duration": 159}, {"note": 0, "velocity": 0, "duration": 201}, {"note": 83, "velocity": 100, "duration": 412}, {"note": 0, "velocity": 0, "duration": 68}, {"note": 78, "velocity": 101, "duration": 480}, {"note": 78, "velocity": 101, "duration": 1200}, {"note": 0, "velocity": 0, "duration": 1440}, {"note": 78, "velocity": 97, "duration": 178}, {"note": 0, "velocity": 0, "duration": 62}, {"note": 78, "velocity": 96, "duration": 198}, {"note": 78, "velocity": 98, "duration": 240}, {"note": 77, "velocity": 93, "duration": 126}, {"note": 0, "velocity": 0, "duration": 114}, {"note": 78, "velocity": 98, "duration": 179}, {"note": 0, "velocity": 0, "duration": 61}, {"note": 82, "velocity": 97, "duration": 406}, {"note": 0, "velocity": 0, "duration": 74}, {"note": 77, "velocity": 100, "duration": 533}, {"note": 0, "velocity": 0, "duration": 187}, {"note": 70, "velocity": 103, "duration": 172}, {"note": 0, "velocity": 0, "duration": 68}, {"note": 80, "velocity": 94, "duration": 116}, {"note": 0, "velocity": 0, "duration": 124}, {"note": 77, "velocity": 98, "duration": 163}, {"note": 0, "velocity": 0, "duration": 77}, {"note": 78, "velocity": 97, "duration": 960}, {"note": 0, "velocity": 0, "duration": 720}, {"note": 75, "velocity": 111, "duration": 149}, {"note": 0, "velocity": 0, "duration": 91}, {"note": 78, "velocity": 100, "duration": 130}, {"note": 0, "velocity": 0, "duration": 110}, {"note": 81, "velocity": 103, "duration": 72}, {"note": 80, "velocity": 98, "duration": 57}, {"note": 0, "velocity": 0, "duration": 63}, {"note": 78, "velocity": 100, "duration": 340}, {"note": 0, "velocity": 0, "duration": 140}, {"note": 78, "velocity": 99, "duration": 157}, {"note": 0, "velocity": 0, "duration": 83}, {"note": 78, "velocity": 96, "duration": 201}, {"note": 73, "velocity": 98, "duration": 182}, {"note": 80, "velocity": 99, "duration": 169}, {"note": 0, "velocity": 0, "duration": 71}, {"note": 82, "velocity": 101, "duration": 683}, {"note": 78, "velocity": 96, "duration": 177}, {"note": 0, "velocity": 0, "duration": 63}, {"note": 78, "velocity": 96, "duration": 172}, {"note": 0, "velocity": 0, "duration": 68}, {"note": 78, "velocity": 100, "duration": 192}, {"note": 77, "velocity": 100, "duration": 171}, {"note": 0, "velocity": 0, "duration": 69}, {"note": 78, "velocity": 96, "duration": 162}, {"note": 0, "velocity": 0, "duration": 78}, {"note": 82, "velocity": 100, "duration": 413}, {"note": 0, "velocity": 0, "duration": 67}, {"note": 77, "velocity": 98, "duration": 319}, {"note": 0, "velocity": 0, "duration": 401}, {"note": 70, "velocity": 98, "duration": 205}, {"note": 80, "velocity": 98, "duration": 189}, {"note": 77, "velocity": 96, "duration": 172}, {"note": 0, "velocity": 0, "duration": 68}, {"note": 78, "velocity": 98, "duration": 960}, {"note": 0, "velocity": 0, "duration": 720}, {"note": 75, "velocity": 111, "duration": 220}, {"note": 78, "velocity": 99, "duration": 159}, {"note": 0, "velocity": 0, "duration": 81}, {"note": 80, "velocity": 94, "duration": 62}, {"note": 80, "velocity": 95, "duration": 68}, {"note": 78, "velocity": 103, "duration": 295}, {"note": 0, "velocity": 0, "duration": 185}, {"note": 78, "velocity": 99, "duration": 128}, {"note": 0, "velocity": 0, "duration": 112}, {"note": 78, "velocity": 95, "duration": 153}, {"note": 0, "velocity": 0, "duration": 87}, {"note": 73, "velocity": 100, "duration": 187}, {"note": 80, "velocity": 101, "duration": 181}, {"note": 78, "velocity": 98, "duration": 450}, {"note": 0, "velocity": 0, "duration": 270}, {"note": 78, "velocity": 97, "duration": 178}, {"note": 0, "velocity": 0, "duration": 62}, {"note": 78, "velocity": 96, "duration": 198}, {"note": 78, "velocity": 98, "duration": 240}, {"note": 77, "velocity": 93, "duration": 126}, {"note": 0, "velocity": 0, "duration": 114}, {"note": 78, "velocity": 98, "duration": 179}, {"note": 0, "velocity": 0, "duration": 61}, {"note": 82, "velocity": 97, "duration": 406}, {"note": 0, "velocity": 0, "duration": 74}, {"note": 77, "velocity": 100, "duration": 533}, {"note": 0, "velocity": 0, "duration": 187}, {"note": 70, "velocity": 103, "duration": 172}, {"note": 0, "velocity": 0, "duration": 68}, {"note": 80, "velocity": 94, "duration": 116}, {"note": 0, "velocity": 0, "duration": 124}, {"note": 77, "velocity": 98, "duration": 163}, {"note": 0, "velocity": 0, "duration": 77}, {"note": 78, "velocity": 97, "duration": 960}, {"note": 0, "velocity": 0, "duration": 720}, {"note": 75, "velocity": 111, "duration": 149}, {"note": 0, "velocity": 0, "duration": 91}, {"note": 78, "velocity": 100, "duration": 130}, {"note": 0, "velocity": 0, "duration": 110}, {"note": 81, "velocity": 103, "duration": 72}, {"note": 80, "velocity": 98, "duration": 57}, {"note": 0, "velocity": 0, "duration": 63}, {"note": 78, "velocity": 100, "duration": 340}, {"note": 0, "velocity": 0, "duration": 140}, {"note": 78, "velocity": 99, "duration": 157}, {"note": 0, "velocity": 0, "duration": 83}, {"note": 78, "velocity": 96, "duration": 201}, {"note": 73, "velocity": 98, "duration": 182}, {"note": 80, "velocity": 99, "duration": 169}, {"note": 0, "velocity": 0, "duration": 71}, {"note": 82, "velocity": 101, "duration": 683}, {"note": 78, "velocity": 96, "duration": 177}, {"note": 0, "velocity": 0, "duration": 63}, {"note": 78, "velocity": 96, "duration": 172}, {"note": 0, "velocity": 0, "duration": 68}, {"note": 78, "velocity": 100, "duration": 192}, {"note": 77, "velocity": 100, "duration": 171}, {"note": 0, "velocity": 0, "duration": 69}, {"note": 78, "velocity": 96, "duration": 162}, {"note": 0, "velocity": 0, "duration": 78}, {"note": 82, "velocity": 100, "duration": 413}, {"note": 0, "velocity": 0, "duration": 67}, {"note": 77, "velocity": 98, "duration": 319}, {"note": 0, "velocity": 0, "duration": 401}, {"note": 70, "velocity": 98, "duration": 205}, {"note": 80, "velocity": 98, "duration": 189}, {"note": 77, "velocity": 96, "duration": 172}, {"note": 0, "velocity": 0, "duration": 68}, {"note": 78, "velocity": 98, "duration": 960}, {"note": 0, "velocity": 0, "duration": 720}, {"note": 78, "velocity": 99, "duration": 426}, {"note": 85, "velocity": 100, "duration": 675}, {"note": 0, "velocity": 0, "duration": 165}, {"note": 83, "velocity": 95, "duration": 480}, {"note": 78, "velocity": 98, "duration": 1680}, {"note": 0, "velocity": 0, "duration": 7200}, {"note": 78, "velocity": 97, "duration": 178}, {"note": 0, "velocity": 0, "duration": 62}, {"note": 78, "velocity": 96, "duration": 198}, {"note": 78, "velocity": 98, "duration": 240}, {"note": 77, "velocity": 93, "duration": 126}, {"note": 0, "velocity": 0, "duration": 114}, {"note": 78, "velocity": 98, "duration": 179}, {"note": 0, "velocity": 0, "duration": 61}, {"note": 82, "velocity": 97, "duration": 406}, {"note": 0, "velocity": 0, "duration": 74}, {"note": 77, "velocity": 100, "duration": 533}, {"note": 0, "velocity": 0, "duration": 187}, {"note": 70, "velocity": 103, "duration": 172}, {"note": 0, "velocity": 0, "duration": 68}, {"note": 80, "velocity": 94, "duration": 116}, {"note": 0, "velocity": 0, "duration": 124}, {"note": 77, "velocity": 98, "duration": 163}, {"note": 0, "velocity": 0, "duration": 77}, {"note": 78, "velocity": 97, "duration": 960}, {"note": 0, "velocity": 0, "duration": 720}, {"note": 75, "velocity": 111, "duration": 149}, {"note": 0, "velocity": 0, "duration": 91}, {"note": 78, "velocity": 100, "duration": 130}, {"note": 0, "velocity": 0, "duration": 110}, {"note": 81, "velocity": 103, "duration": 72}, {"note": 80, "velocity": 98, "duration": 57}, {"note": 0, "velocity": 0, "duration": 63}, {"note": 78, "velocity": 100, "duration": 340}, {"note": 0, "velocity": 0, "duration": 140}, {"note": 78, "velocity": 99, "duration": 157}, {"note": 0, "velocity": 0, "duration": 83}, {"note": 78, "velocity": 96, "duration": 201}, {"note": 73, "velocity": 98, "duration": 182}, {"note": 80, "velocity": 99, "duration": 169}, {"note": 0, "velocity": 0, "duration": 71}, {"note": 82, "velocity": 101, "duration": 683}, {"note": 78, "velocity": 96, "duration": 177}, {"note": 0, "velocity": 0, "duration": 63}, {"note": 78, "velocity": 96, "duration": 172}, {"note": 0, "velocity": 0, "duration": 68}, {"note": 78, "velocity": 100, "duration": 192}, {"note": 77, "velocity": 100, "duration": 171}, {"note": 0, "velocity": 0, "duration": 69}, {"note": 78, "velocity": 96, "duration": 162}, {"note": 0, "velocity": 0, "duration": 78}, {"note": 82, "velocity": 100, "duration": 413}, {"note": 0, "velocity": 0, "duration": 67}, {"note": 77, "velocity": 98, "duration": 319}, {"note": 0, "velocity": 0, "duration": 401}, {"note": 70, "velocity": 98, "duration": 205}, {"note": 80, "velocity": 98, "duration": 189}, {"note": 77, "velocity": 96, "duration": 172}, {"note": 0, "velocity": 0, "duration": 68}, {"note": 78, "velocity": 98, "duration": 960}, {"note": 0, "velocity": 0, "duration": 720}, {"note": 75, "velocity": 111, "duration": 220}, {"note": 78, "velocity": 99, "duration": 159}, {"note": 0, "velocity": 0, "duration": 81}, {"note": 80, "velocity": 94, "duration": 62}, {"note": 80, "velocity": 95, "duration": 68}, {"note": 78, "velocity": 103, "duration": 295}, {"note": 0, "velocity": 0, "duration": 185}, {"note": 78, "velocity": 99, "duration": 128}, {"note": 0, "velocity": 0, "duration": 112}, {"note": 78, "velocity": 95, "duration": 153}, {"note": 0, "velocity": 0, "duration": 87}, {"note": 73, "velocity": 100, "duration": 187}, {"note": 80, "velocity": 101, "duration": 181}, {"note": 78, "velocity": 98, "duration": 450}, {"note": 0, "velocity": 0, "duration": 270}, {"note": 78, "velocity": 97, "duration": 178}, {"note": 0, "velocity": 0, "duration": 62}, {"note": 78, "velocity": 96, "duration": 198}, {"note": 78, "velocity": 98, "duration": 240}, {"note": 77, "velocity": 93, "duration": 126}, {"note": 0, "velocity": 0, "duration": 114}, {"note": 78, "velocity": 98, "duration": 179}, {"note": 0, "velocity": 0, "duration": 61}, {"note": 82, "velocity": 97, "duration": 406}, {"note": 0, "velocity": 0, "duration": 74}, {"note": 77, "velocity": 100, "duration": 533}, {"note": 0, "velocity": 0, "duration": 187}, {"note": 70, "velocity": 103, "duration": 172}, {"note": 0, "velocity": 0, "duration": 68}, {"note": 80, "velocity": 94, "duration": 116}, {"note": 0, "velocity": 0, "duration": 124}, {"note": 77, "velocity": 98, "duration": 163}, {"note": 0, "velocity": 0, "duration": 77}, {"note": 78, "velocity": 97, "duration": 960}, {"note": 0, "velocity": 0, "duration": 720}, {"note": 75, "velocity": 111, "duration": 149}, {"note": 0, "velocity": 0, "duration": 91}, {"note": 78, "velocity": 100, "duration": 130}, {"note": 0, "velocity": 0, "duration": 110}, {"note": 81, "velocity": 103, "duration": 72}, {"note": 80, "velocity": 98, "duration": 57}, {"note": 0, "velocity": 0, "duration": 63}, {"note": 78, "velocity": 100, "duration": 340}, {"note": 0, "velocity": 0, "duration": 140}, {"note": 78, "velocity": 99, "duration": 157}, {"note": 0, "velocity": 0, "duration": 83}, {"note": 78, "velocity": 96, "duration": 201}, {"note": 73, "velocity": 98, "duration": 182}, {"note": 80, "velocity": 99, "duration": 169}, {"note": 0, "velocity": 0, "duration": 71}, {"note": 82, "velocity": 101, "duration": 683}, {"note": 78, "velocity": 96, "duration": 177}, {"note": 0, "velocity": 0, "duration": 63}, {"note": 78, "velocity": 96, "duration": 172}, {"note": 0, "velocity": 0, "duration": 68}, {"note": 78, "velocity": 100, "duration": 192}, {"note": 77, "velocity": 100, "duration": 171}, {"note": 0, "velocity": 0, "duration": 69}, {"note": 78, "velocity": 96, "duration": 162}, {"note": 0, "velocity": 0, "duration": 78}, {"note": 82, "velocity": 100, "duration": 413}, {"note": 0, "velocity": 0, "duration": 67}, {"note": 77, "velocity": 98, "duration": 319}, {"note": 0, "velocity": 0, "duration": 401}, {"note": 70, "velocity": 98, "duration": 205}, {"note": 80, "velocity": 98, "duration": 189}, {"note": 77, "velocity": 96, "duration": 172}, {"note": 0, "velocity": 0, "duration": 68}, {"note": 78, "velocity": 98, "duration": 960}, {"note": 0, "velocity": 0, "duration": 720}, {"note": 78, "velocity": 99, "duration": 426}, {"note": 85, "velocity": 100, "duration": 675}, {"note": 0, "velocity": 0, "duration": 165}, {"note": 83, "velocity": 95, "duration": 480}, {"note": 78, "velocity": 98, "duration": 1680}]]