[[{"note": 52, "velocity": 95, "duration": 239}, {"note": 52, "velocity": 96, "duration": 239}, {"note": 52, "velocity": 102, "duration": 480}, {"note": 49, "velocity": 97, "duration": 240}, {"note": 52, "velocity": 96, "duration": 240}, {"note": 56, "velocity": 99, "duration": 240}, {"note": 54, "velocity": 98, "duration": 2160}, {"note": 63, "velocity": 95, "duration": 239}, {"note": 63, "velocity": 96, "duration": 239}, {"note": 63, "velocity": 97, "duration": 239}, {"note": 63, "velocity": 99, "duration": 240}, {"note": 59, "velocity": 99, "duration": 240}, {"note": 63, "velocity": 97, "duration": 240}, {"note": 66, "velocity": 95, "duration": 240}, {"note": 64, "velocity": 97, "duration": 2159}, {"note": 64, "velocity": 102, "duration": 239}, {"note": 64, "velocity": 97, "duration": 239}, {"note": 64, "velocity": 97, "duration": 239}, {"note": 64, "velocity": 95, "duration": 240}, {"note": 61, "velocity": 97, "duration": 240}, {"note": 64, "velocity": 94, "duration": 240}, {"note": 68, "velocity": 99, "duration": 240}, {"note": 66, "velocity": 102, "duration": 1200}, {"note": 64, "velocity": 98, "duration": 240}, {"note": 66, "velocity": 97, "duration": 240}, {"note": 64, "velocity": 100, "duration": 240}, {"note": 69, "velocity": 96, "duration": 480}, {"note": 68, "velocity": 99, "duration": 240}, {"note": 68, "velocity": 101, "duration": 480}, {"note": 66, "velocity": 96, "duration": 239}, {"note": 66, "velocity": 95, "duration": 240}, {"note": 68, "velocity": 89, "duration": 240}, {"note": 69, "velocity": 99, "duration": 480}, {"note": 68, "velocity": 99, "duration": 479}, {"note": 68, "velocity": 99, "duration": 240}, {"note": 66, "velocity": 95, "duration": 239}, {"note": 66, "velocity": 99, "duration": 240}, {"note": 64, "velocity": 101, "duration": 479}, {"note": 64, "velocity": 97, "duration": 239}, {"note": 64, "velocity": 96, "duration": 239}, {"note": 64, "velocity": 97, "duration": 239}, {"note": 64, "velocity": 96, "duration": 240}, {"note": 61, "velocity": 101, "duration": 240}, {"note": 64, "velocity": 95, "duration": 240}, {"note": 68, "velocity": 98, "duration": 240}, {"note": 66, "velocity": 101, "duration": 2160}, {"note": 71, "velocity": 96, "duration": 239}, {"note": 71, "velocity": 94, "duration": 239}, {"note": 71, "velocity": 96, "duration": 239}, {"note": 71, "velocity": 96, "duration": 240}, {"note": 68, "velocity": 95, "duration": 240}, {"note": 66, "velocity": 101, "duration": 240}, {"note": 68, "velocity": 96, "duration": 480}, {"note": 66, "velocity": 99, "duration": 240}, {"note": 64, "velocity": 97, "duration": 1679}, {"note": 64, "velocity": 95, "duration": 239}, {"note": 64, "velocity": 96, "duration": 239}, {"note": 64, "velocity": 96, "duration": 239}, {"note": 64, "velocity": 100, "duration": 240}, {"note": 61, "velocity": 101, "duration": 240}, {"note": 64, "velocity": 99, "duration": 240}, {"note": 68, "velocity": 102, "duration": 480}, {"note": 66, "velocity": 102, "duration": 480}, {"note": 63, "velocity": 95, "duration": 239}, {"note": 63, "velocity": 97, "duration": 240}, {"note": 64, "velocity": 97, "duration": 239}, {"note": 64, "velocity": 99, "duration": 240}, {"note": 66, "velocity": 97, "duration": 480}, {"note": 64, "velocity": 99, "duration": 2400}, {"note": 71, "velocity": 96, "duration": 239}, {"note": 71, "velocity": 99, "duration": 240}, {"note": 69, "velocity": 99, "duration": 240}, {"note": 68, "velocity": 100, "duration": 240}, {"note": 69, "velocity": 98, "duration": 240}, {"note": 68, "velocity": 109, "duration": 720}, {"note": 71, "velocity": 96, "duration": 239}, {"note": 71, "velocity": 99, "duration": 240}, {"note": 69, "velocity": 91, "duration": 240}, {"note": 68, "velocity": 97, "duration": 240}, {"note": 69, "velocity": 96, "duration": 240}, {"note": 68, "velocity": 101, "duration": 240}, {"note": 66, "velocity": 97, "duration": 480}, {"note": 71, "velocity": 96, "duration": 239}, {"note": 71, "velocity": 97, "duration": 240}, {"note": 69, "velocity": 97, "duration": 240}, {"note": 68, "velocity": 100, "duration": 240}, {"note": 66, "velocity": 98, "duration": 239}, {"note": 66, "velocity": 90, "duration": 239}, {"note": 66, "velocity": 95, "duration": 239}, {"note": 66, "velocity": 99, "duration": 240}, {"note": 64, "velocity": 99, "duration": 240}, {"note": 66, "velocity": 96, "duration": 240}, {"note": 68, "velocity": 97, "duration": 479}, {"note": 68, "velocity": 99, "duration": 960}, {"note": 71, "velocity": 98, "duration": 239}, {"note": 71, "velocity": 98, "duration": 240}, {"note": 69, "velocity": 97, "duration": 240}, {"note": 68, "velocity": 99, "duration": 240}, {"note": 69, "velocity": 96, "duration": 240}, {"note": 68, "velocity": 99, "duration": 720}, {"note": 71, "velocity": 95, "duration": 239}, {"note": 71, "velocity": 99, "duration": 240}, {"note": 69, "velocity": 97, "duration": 240}, {"note": 68, "velocity": 102, "duration": 240}, {"note": 69, "velocity": 96, "duration": 480}, {"note": 66, "velocity": 96, "duration": 480}, {"note": 71, "velocity": 94, "duration": 239}, {"note": 71, "velocity": 97, "duration": 240}, {"note": 69, "velocity": 96, "duration": 240}, {"note": 68, "velocity": 96, "duration": 240}, {"note": 66, "velocity": 95, "duration": 239}, {"note": 66, "velocity": 91, "duration": 239}, {"note": 66, "velocity": 106, "duration": 479}, {"note": 66, "velocity": 86, "duration": 239}, {"note": 66, "velocity": 99, "duration": 240}, {"note": 68, "velocity": 100, "duration": 240}, {"note": 69, "velocity": 96, "duration": 240}, {"note": 68, "velocity": 102, "duration": 960}, {"note": 71, "velocity": 99, "duration": 239}, {"note": 71, "velocity": 97, "duration": 240}, {"note": 69, "velocity": 91, "duration": 240}, {"note": 68, "velocity": 97, "duration": 240}, {"note": 69, "velocity": 95, "duration": 240}, {"note": 68, "velocity": 100, "duration": 720}, {"note": 71, "velocity": 100, "duration": 239}, {"note": 71, "velocity": 97, "duration": 240}, {"note": 69, "velocity": 94, "duration": 240}, {"note": 68, "velocity": 97, "duration": 240}, {"note": 69, "velocity": 91, "duration": 240}, {"note": 68, "velocity": 96, "duration": 240}, {"note": 66, "velocity": 97, "duration": 480}, {"note": 71, "velocity": 97, "duration": 239}, {"note": 71, "velocity": 97, "duration": 240}, {"note": 69, "velocity": 95, "duration": 240}, {"note": 68, "velocity": 99, "duration": 240}, {"note": 66, "velocity": 90, "duration": 239}, {"note": 66, "velocity": 96, "duration": 239}, {"note": 66, "velocity": 90, "duration": 479}, {"note": 66, "velocity": 95, "duration": 239}, {"note": 66, "velocity": 99, "duration": 240}, {"note": 68, "velocity": 98, "duration": 240}, {"note": 69, "velocity": 90, "duration": 240}, {"note": 66, "velocity": 99, "duration": 240}, {"note": 68, "velocity": 101, "duration": 1440}, {"note": 61, "velocity": 96, "duration": 240}, {"note": 63, "velocity": 99, "duration": 240}, {"note": 64, "velocity": 97, "duration": 479}, {"note": 64, "velocity": 98, "duration": 479}, {"note": 64, "velocity": 101, "duration": 240}, {"note": 66, "velocity": 96, "duration": 240}, {"note": 68, "velocity": 96, "duration": 240}, {"note": 66, "velocity": 101, "duration": 1200}, {"note": 63, "velocity": 100, "duration": 240}, {"note": 64, "velocity": 95, "duration": 240}, {"note": 66, "velocity": 99, "duration": 240}, {"note": 64, "velocity": 99, "duration": 1541}, {"note": 0, "velocity": 0, "duration": 18139}, {"note": 64, "velocity": 97, "duration": 239}, {"note": 64, "velocity": 96, "duration": 239}, {"note": 64, "velocity": 97, "duration": 239}, {"note": 64, "velocity": 96, "duration": 240}, {"note": 61, "velocity": 101, "duration": 240}, {"note": 64, "velocity": 95, "duration": 240}, {"note": 68, "velocity": 98, "duration": 240}, {"note": 66, "velocity": 101, "duration": 2160}, {"note": 71, "velocity": 96, "duration": 239}, {"note": 71, "velocity": 94, "duration": 239}, {"note": 71, "velocity": 96, "duration": 239}, {"note": 71, "velocity": 96, "duration": 240}, {"note": 68, "velocity": 95, "duration": 240}, {"note": 66, "velocity": 101, "duration": 240}, {"note": 68, "velocity": 96, "duration": 480}, {"note": 66, "velocity": 99, "duration": 240}, {"note": 64, "velocity": 97, "duration": 1679}, {"note": 64, "velocity": 95, "duration": 239}, {"note": 64, "velocity": 96, "duration": 239}, {"note": 64, "velocity": 96, "duration": 239}, {"note": 64, "velocity": 100, "duration": 240}, {"note": 61, "velocity": 101, "duration": 240}, {"note": 64, "velocity": 99, "duration": 240}, {"note": 68, "velocity": 102, "duration": 480}, {"note": 66, "velocity": 102, "duration": 480}, {"note": 63, "velocity": 95, "duration": 239}, {"note": 63, "velocity": 97, "duration": 240}, {"note": 64, "velocity": 97, "duration": 239}, {"note": 64, "velocity": 99, "duration": 240}, {"note": 66, "velocity": 97, "duration": 480}, {"note": 64, "velocity": 99, "duration": 2400}, {"note": 71, "velocity": 96, "duration": 239}, {"note": 71, "velocity": 99, "duration": 240}, {"note": 69, "velocity": 99, "duration": 240}, {"note": 68, "velocity": 100, "duration": 240}, {"note": 69, "velocity": 98, "duration": 240}, {"note": 68, "velocity": 109, "duration": 720}, {"note": 71, "velocity": 96, "duration": 239}, {"note": 71, "velocity": 99, "duration": 240}, {"note": 69, "velocity": 91, "duration": 240}, {"note": 68, "velocity": 97, "duration": 240}, {"note": 69, "velocity": 96, "duration": 240}, {"note": 68, "velocity": 101, "duration": 240}, {"note": 66, "velocity": 97, "duration": 480}, {"note": 71, "velocity": 96, "duration": 239}, {"note": 71, "velocity": 97, "duration": 240}, {"note": 69, "velocity": 97, "duration": 240}, {"note": 68, "velocity": 100, "duration": 240}, {"note": 66, "velocity": 98, "duration": 239}, {"note": 66, "velocity": 90, "duration": 239}, {"note": 66, "velocity": 95, "duration": 239}, {"note": 66, "velocity": 99, "duration": 240}, {"note": 64, "velocity": 99, "duration": 240}, {"note": 66, "velocity": 96, "duration": 240}, {"note": 68, "velocity": 97, "duration": 479}, {"note": 68, "velocity": 99, "duration": 960}, {"note": 71, "velocity": 98, "duration": 239}, {"note": 71, "velocity": 98, "duration": 240}, {"note": 69, "velocity": 97, "duration": 240}, {"note": 68, "velocity": 99, "duration": 240}, {"note": 69, "velocity": 96, "duration": 240}, {"note": 68, "velocity": 99, "duration": 720}, {"note": 71, "velocity": 95, "duration": 239}, {"note": 71, "velocity": 99, "duration": 240}, {"note": 69, "velocity": 97, "duration": 240}, {"note": 68, "velocity": 102, "duration": 240}, {"note": 69, "velocity": 96, "duration": 480}, {"note": 66, "velocity": 96, "duration": 480}, {"note": 71, "velocity": 94, "duration": 239}, {"note": 71, "velocity": 97, "duration": 240}, {"note": 69, "velocity": 96, "duration": 240}, {"note": 68, "velocity": 96, "duration": 240}, {"note": 66, "velocity": 95, "duration": 239}, {"note": 66, "velocity": 91, "duration": 239}, {"note": 66, "velocity": 106, "duration": 479}, {"note": 66, "velocity": 86, "duration": 239}, {"note": 66, "velocity": 99, "duration": 240}, {"note": 68, "velocity": 100, "duration": 240}, {"note": 69, "velocity": 96, "duration": 240}, {"note": 68, "velocity": 102, "duration": 960}, {"note": 71, "velocity": 99, "duration": 239}, {"note": 71, "velocity": 97, "duration": 240}, {"note": 69, "velocity": 91, "duration": 240}, {"note": 68, "velocity": 97, "duration": 240}, {"note": 69, "velocity": 95, "duration": 240}, {"note": 68, "velocity": 100, "duration": 720}, {"note": 71, "velocity": 100, "duration": 239}, {"note": 71, "velocity": 97, "duration": 240}, {"note": 69, "velocity": 94, "duration": 240}, {"note": 68, "velocity": 97, "duration": 240}, {"note": 69, "velocity": 91, "duration": 240}, {"note": 68, "velocity": 96, "duration": 240}, {"note": 66, "velocity": 97, "duration": 480}, {"note": 71, "velocity": 97, "duration": 239}, {"note": 71, "velocity": 97, "duration": 240}, {"note": 69, "velocity": 95, "duration": 240}, {"note": 68, "velocity": 99, "duration": 240}, {"note": 66, "velocity": 90, "duration": 239}, {"note": 66, "velocity": 96, "duration": 239}, {"note": 66, "velocity": 90, "duration": 479}, {"note": 66, "velocity": 95, "duration": 239}, {"note": 66, "velocity": 99, "duration": 240}, {"note": 68, "velocity": 98, "duration": 240}, {"note": 69, "velocity": 90, "duration": 240}, {"note": 66, "velocity": 99, "duration": 240}, {"note": 68, "velocity": 101, "duration": 1440}, {"note": 61, "velocity": 96, "duration": 240}, {"note": 63, "velocity": 99, "duration": 240}, {"note": 64, "velocity": 97, "duration": 479}, {"note": 64, "velocity": 98, "duration": 479}, {"note": 64, "velocity": 101, "duration": 240}, {"note": 66, "velocity": 96, "duration": 240}, {"note": 68, "velocity": 96, "duration": 240}, {"note": 66, "velocity": 101, "duration": 1200}, {"note": 63, "velocity": 100, "duration": 240}, {"note": 64, "velocity": 95, "duration": 240}, {"note": 66, "velocity": 99, "duration": 240}, {"note": 64, "velocity": 99, "duration": 2880}, {"note": 71, "velocity": 99, "duration": 239}, {"note": 71, "velocity": 97, "duration": 240}, {"note": 69, "velocity": 91, "duration": 240}, {"note": 68, "velocity": 97, "duration": 240}, {"note": 69, "velocity": 95, "duration": 240}, {"note": 68, "velocity": 100, "duration": 720}, {"note": 71, "velocity": 100, "duration": 239}, {"note": 71, "velocity": 97, "duration": 240}, {"note": 69, "velocity": 94, "duration": 240}, {"note": 68, "velocity": 97, "duration": 240}, {"note": 69, "velocity": 91, "duration": 240}, {"note": 68, "velocity": 96, "duration": 240}, {"note": 66, "velocity": 97, "duration": 480}, {"note": 71, "velocity": 97, "duration": 239}, {"note": 71, "velocity": 97, "duration": 240}, {"note": 69, "velocity": 95, "duration": 240}, {"note": 68, "velocity": 99, "duration": 240}, {"note": 66, "velocity": 90, "duration": 239}, {"note": 66, "velocity": 96, "duration": 239}, {"note": 66, "velocity": 90, "duration": 479}, {"note": 66, "velocity": 95, "duration": 239}, {"note": 66, "velocity": 99, "duration": 240}, {"note": 68, "velocity": 98, "duration": 240}, {"note": 69, "velocity": 90, "duration": 240}, {"note": 66, "velocity": 99, "duration": 240}, {"note": 68, "velocity": 101, "duration": 1440}, {"note": 61, "velocity": 96, "duration": 240}, {"note": 63, "velocity": 99, "duration": 240}, {"note": 64, "velocity": 97, "duration": 479}, {"note": 64, "velocity": 98, "duration": 479}, {"note": 64, "velocity": 101, "duration": 240}, {"note": 66, "velocity": 96, "duration": 240}, {"note": 68, "velocity": 96, "duration": 240}, {"note": 66, "velocity": 101, "duration": 1200}, {"note": 63, "velocity": 100, "duration": 240}, {"note": 64, "velocity": 95, "duration": 240}, {"note": 66, "velocity": 99, "duration": 240}, {"note": 64, "velocity": 99, "duration": 1541}]]