[[{"note": 81, "velocity": 94, "duration": 132}, {"note": 0, "velocity": 0, "duration": 108}, {"note": 81, "velocity": 96, "duration": 256}, {"note": 0, "velocity": 0, "duration": 104}, {"note": 78, "velocity": 94, "duration": 102}, {"note": 76, "velocity": 95, "duration": 167}, {"note": 0, "velocity": 0, "duration": 73}, {"note": 74, "velocity": 95, "duration": 335}, {"note": 0, "velocity": 0, "duration": 145}, {"note": 76, "velocity": 97, "duration": 178}, {"note": 0, "velocity": 0, "duration": 62}, {"note": 78, "velocity": 95, "duration": 164}, {"note": 0, "velocity": 0, "duration": 76}, {"note": 76, "velocity": 97, "duration": 129}, {"note": 0, "velocity": 0, "duration": 111}, {"note": 76, "velocity": 98, "duration": 146}, {"note": 0, "velocity": 0, "duration": 94}, {"note": 74, "velocity": 99, "duration": 538}, {"note": 0, "velocity": 0, "duration": 422}, {"note": 71, "velocity": 90, "duration": 265}, {"note": 74, "velocity": 95, "duration": 120}, {"note": 69, "velocity": 88, "duration": 85}, {"note": 71, "velocity": 89, "duration": 821}, {"note": 0, "velocity": 0, "duration": 619}, {"note": 71, "velocity": 95, "duration": 353}, {"note": 0, "velocity": 0, "duration": 127}, {"note": 69, "velocity": 95, "duration": 1257}, {"note": 0, "velocity": 0, "duration": 663}, {"note": 81, "velocity": 90, "duration": 149}, {"note": 0, "velocity": 0, "duration": 91}, {"note": 81, "velocity": 95, "duration": 157}, {"note": 0, "velocity": 0, "duration": 83}, {"note": 78, "velocity": 95, "duration": 181}, {"note": 76, "velocity": 98, "duration": 181}, {"note": 74, "velocity": 101, "duration": 374}, {"note": 0, "velocity": 0, "duration": 106}, {"note": 76, "velocity": 94, "duration": 175}, {"note": 0, "velocity": 0, "duration": 65}, {"note": 78, "velocity": 95, "duration": 213}, {"note": 76, "velocity": 94, "duration": 147}, {"note": 0, "velocity": 0, "duration": 93}, {"note": 76, "velocity": 100, "duration": 184}, {"note": 74, "velocity": 101, "duration": 517}, {"note": 0, "velocity": 0, "duration": 443}, {"note": 71, "velocity": 95, "duration": 235}, {"note": 74, "velocity": 95, "duration": 120}, {"note": 69, "velocity": 86, "duration": 106}, {"note": 71, "velocity": 94, "duration": 633}, {"note": 0, "velocity": 0, "duration": 807}, {"note": 76, "velocity": 96, "duration": 133}, {"note": 0, "velocity": 0, "duration": 107}, {"note": 78, "velocity": 98, "duration": 444}, {"note": 76, "velocity": 95, "duration": 194}, {"note": 79, "velocity": 95, "duration": 398}, {"note": 0, "velocity": 0, "duration": 82}, {"note": 78, "velocity": 96, "duration": 551}, {"note": 76, "velocity": 98, "duration": 240}, {"note": 74, "velocity": 95, "duration": 240}, {"note": 74, "velocity": 98, "duration": 401}, {"note": 0, "velocity": 0, "duration": 79}, {"note": 74, "velocity": 97, "duration": 157}, {"note": 0, "velocity": 0, "duration": 83}, {"note": 76, "velocity": 96, "duration": 180}, {"note": 74, "velocity": 101, "duration": 308}, {"note": 0, "velocity": 0, "duration": 172}, {"note": 86, "velocity": 95, "duration": 140}, {"note": 0, "velocity": 0, "duration": 100}, {"note": 85, "velocity": 98, "duration": 181}, {"note": 83, "velocity": 94, "duration": 140}, {"note": 0, "velocity": 0, "duration": 100}, {"note": 83, "velocity": 95, "duration": 194}, {"note": 81, "velocity": 97, "duration": 521}, {"note": 76, "velocity": 89, "duration": 165}, {"note": 0, "velocity": 0, "duration": 75}, {"note": 76, "velocity": 94, "duration": 185}, {"note": 74, "velocity": 101, "duration": 248}, {"note": 0, "velocity": 0, "duration": 232}, {"note": 74, "velocity": 96, "duration": 113}, {"note": 0, "velocity": 0, "duration": 127}, {"note": 74, "velocity": 97, "duration": 144}, {"note": 0, "velocity": 0, "duration": 96}, {"note": 74, "velocity": 96, "duration": 160}, {"note": 0, "velocity": 0, "duration": 80}, {"note": 76, "velocity": 98, "duration": 251}, {"note": 74, "velocity": 105, "duration": 292}, {"note": 0, "velocity": 0, "duration": 188}, {"note": 76, "velocity": 96, "duration": 179}, {"note": 0, "velocity": 0, "duration": 61}, {"note": 78, "velocity": 93, "duration": 1008}, {"note": 0, "velocity": 0, "duration": 1152}, {"note": 74, "velocity": 96, "duration": 170}, {"note": 0, "velocity": 0, "duration": 70}, {"note": 74, "velocity": 99, "duration": 174}, {"note": 0, "velocity": 0, "duration": 66}, {"note": 74, "velocity": 100, "duration": 158}, {"note": 0, "velocity": 0, "duration": 82}, {"note": 76, "velocity": 97, "duration": 177}, {"note": 0, "velocity": 0, "duration": 63}, {"note": 74, "velocity": 110, "duration": 346}, {"note": 0, "velocity": 0, "duration": 134}, {"note": 86, "velocity": 95, "duration": 150}, {"note": 0, "velocity": 0, "duration": 90}, {"note": 85, "velocity": 96, "duration": 174}, {"note": 0, "velocity": 0, "duration": 66}, {"note": 83, "velocity": 94, "duration": 148}, {"note": 0, "velocity": 0, "duration": 92}, {"note": 83, "velocity": 100, "duration": 180}, {"note": 81, "velocity": 98, "duration": 615}, {"note": 0, "velocity": 0, "duration": 345}, {"note": 86, "velocity": 96, "duration": 130}, {"note": 0, "velocity": 0, "duration": 110}, {"note": 86, "velocity": 96, "duration": 335}, {"note": 0, "velocity": 0, "duration": 145}, {"note": 83, "velocity": 95, "duration": 357}, {"note": 0, "velocity": 0, "duration": 123}, {"note": 78, "velocity": 95, "duration": 269}, {"note": 74, "velocity": 103, "duration": 480}, {"note": 76, "velocity": 101, "duration": 1049}, {"note": 0, "velocity": 0, "duration": 631}, {"note": 78, "velocity": 92, "duration": 399}, {"note": 0, "velocity": 0, "duration": 81}, {"note": 76, "velocity": 95, "duration": 1343}, {"note": 0, "velocity": 0, "duration": 577}, {"note": 81, "velocity": 87, "duration": 192}, {"note": 78, "velocity": 95, "duration": 392}, {"note": 0, "velocity": 0, "duration": 88}, {"note": 76, "velocity": 98, "duration": 177}, {"note": 0, "velocity": 0, "duration": 63}, {"note": 74, "velocity": 101, "duration": 603}, {"note": 0, "velocity": 0, "duration": 117}, {"note": 69, "velocity": 95, "duration": 160}, {"note": 0, "velocity": 0, "duration": 80}, {"note": 81, "velocity": 96, "duration": 176}, {"note": 0, "velocity": 0, "duration": 64}, {"note": 78, "velocity": 96, "duration": 243}, {"note": 76, "velocity": 100, "duration": 720}, {"note": 74, "velocity": 99, "duration": 480}, {"note": 74, "velocity": 101, "duration": 164}, {"note": 0, "velocity": 0, "duration": 76}, {"note": 86, "velocity": 96, "duration": 144}, {"note": 0, "velocity": 0, "duration": 96}, {"note": 85, "velocity": 95, "duration": 151}, {"note": 0, "velocity": 0, "duration": 89}, {"note": 85, "velocity": 100, "duration": 585}, {"note": 0, "velocity": 0, "duration": 135}, {"note": 83, "velocity": 95, "duration": 372}, {"note": 0, "velocity": 0, "duration": 108}, {"note": 81, "velocity": 94, "duration": 171}, {"note": 0, "velocity": 0, "duration": 69}, {"note": 83, "velocity": 98, "duration": 169}, {"note": 0, "velocity": 0, "duration": 71}, {"note": 81, "velocity": 97, "duration": 107}, {"note": 0, "velocity": 0, "duration": 133}, {"note": 78, "velocity": 95, "duration": 153}, {"note": 0, "velocity": 0, "duration": 87}, {"note": 81, "velocity": 100, "duration": 480}, {"note": 0, "velocity": 0, "duration": 480}, {"note": 74, "velocity": 101, "duration": 174}, {"note": 0, "velocity": 0, "duration": 66}, {"note": 86, "velocity": 95, "duration": 148}, {"note": 0, "velocity": 0, "duration": 92}, {"note": 85, "velocity": 95, "duration": 164}, {"note": 0, "velocity": 0, "duration": 76}, {"note": 85, "velocity": 103, "duration": 630}, {"note": 0, "velocity": 0, "duration": 90}, {"note": 83, "velocity": 95, "duration": 222}, {"note": 0, "velocity": 0, "duration": 258}, {"note": 81, "velocity": 89, "duration": 127}, {"note": 0, "velocity": 0, "duration": 113}, {"note": 81, "velocity": 96, "duration": 175}, {"note": 0, "velocity": 0, "duration": 65}, {"note": 86, "velocity": 97, "duration": 171}, {"note": 0, "velocity": 0, "duration": 69}, {"note": 78, "velocity": 95, "duration": 480}, {"note": 76, "velocity": 96, "duration": 399}, {"note": 0, "velocity": 0, "duration": 81}, {"note": 74, "velocity": 100, "duration": 356}, {"note": 0, "velocity": 0, "duration": 364}, {"note": 78, "velocity": 93, "duration": 171}, {"note": 0, "velocity": 0, "duration": 69}, {"note": 79, "velocity": 94, "duration": 150}, {"note": 0, "velocity": 0, "duration": 90}, {"note": 78, "velocity": 97, "duration": 155}, {"note": 0, "velocity": 0, "duration": 85}, {"note": 74, "velocity": 100, "duration": 178}, {"note": 0, "velocity": 0, "duration": 62}, {"note": 71, "velocity": 96, "duration": 160}, {"note": 0, "velocity": 0, "duration": 80}, {"note": 74, "velocity": 98, "duration": 551}, {"note": 0, "velocity": 0, "duration": 169}, {"note": 71, "velocity": 96, "duration": 462}, {"note": 69, "velocity": 97, "duration": 797}, {"note": 0, "velocity": 0, "duration": 163}, {"note": 69, "velocity": 96, "duration": 194}, {"note": 81, "velocity": 94, "duration": 163}, {"note": 0, "velocity": 0, "duration": 77}, {"note": 78, "velocity": 97, "duration": 175}, {"note": 0, "velocity": 0, "duration": 65}, {"note": 76, "velocity": 103, "duration": 480}, {"note": 74, "velocity": 95, "duration": 585}, {"note": 0, "velocity": 0, "duration": 135}, {"note": 69, "velocity": 100, "duration": 109}, {"note": 0, "velocity": 0, "duration": 131}, {"note": 81, "velocity": 93, "duration": 100}, {"note": 0, "velocity": 0, "duration": 140}, {"note": 78, "velocity": 87, "duration": 156}, {"note": 0, "velocity": 0, "duration": 84}, {"note": 76, "velocity": 105, "duration": 450}, {"note": 0, "velocity": 0, "duration": 270}, {"note": 74, "velocity": 108, "duration": 294}, {"note": 0, "velocity": 0, "duration": 186}, {"note": 74, "velocity": 101, "duration": 181}, {"note": 86, "velocity": 83, "duration": 198}, {"note": 85, "velocity": 96, "duration": 147}, {"note": 0, "velocity": 0, "duration": 93}, {"note": 85, "velocity": 98, "duration": 562}, {"note": 0, "velocity": 0, "duration": 158}, {"note": 83, "velocity": 96, "duration": 302}, {"note": 0, "velocity": 0, "duration": 178}, {"note": 81, "velocity": 94, "duration": 164}, {"note": 0, "velocity": 0, "duration": 76}, {"note": 83, "velocity": 95, "duration": 137}, {"note": 0, "velocity": 0, "duration": 103}, {"note": 81, "velocity": 95, "duration": 148}, {"note": 0, "velocity": 0, "duration": 92}, {"note": 78, "velocity": 95, "duration": 217}, {"note": 81, "velocity": 95, "duration": 684}, {"note": 0, "velocity": 0, "duration": 276}, {"note": 74, "velocity": 100, "duration": 177}, {"note": 0, "velocity": 0, "duration": 63}, {"note": 86, "velocity": 100, "duration": 133}, {"note": 0, "velocity": 0, "duration": 107}, {"note": 85, "velocity": 96, "duration": 146}, {"note": 0, "velocity": 0, "duration": 94}, {"note": 85, "velocity": 108, "duration": 596}, {"note": 0, "velocity": 0, "duration": 124}, {"note": 83, "velocity": 95, "duration": 350}, {"note": 0, "velocity": 0, "duration": 130}, {"note": 81, "velocity": 97, "duration": 151}, {"note": 0, "velocity": 0, "duration": 89}, {"note": 81, "velocity": 94, "duration": 166}, {"note": 0, "velocity": 0, "duration": 74}, {"note": 86, "velocity": 96, "duration": 140}, {"note": 0, "velocity": 0, "duration": 100}, {"note": 78, "velocity": 94, "duration": 355}, {"note": 0, "velocity": 0, "duration": 125}, {"note": 76, "velocity": 101, "duration": 362}, {"note": 0, "velocity": 0, "duration": 118}, {"note": 74, "velocity": 99, "duration": 537}, {"note": 0, "velocity": 0, "duration": 423}, {"note": 79, "velocity": 89, "duration": 189}, {"note": 78, "velocity": 99, "duration": 181}, {"note": 74, "velocity": 103, "duration": 182}, {"note": 71, "velocity": 99, "duration": 170}, {"note": 0, "velocity": 0, "duration": 70}, {"note": 74, "velocity": 98, "duration": 746}, {"note": 0, "velocity": 0, "duration": 214}, {"note": 79, "velocity": 94, "duration": 174}, {"note": 0, "velocity": 0, "duration": 66}, {"note": 78, "velocity": 96, "duration": 198}, {"note": 74, "velocity": 99, "duration": 182}, {"note": 71, "velocity": 98, "duration": 175}, {"note": 0, "velocity": 0, "duration": 65}, {"note": 74, "velocity": 99, "duration": 720}, {"note": 0, "velocity": 0, "duration": 240}, {"note": 76, "velocity": 96, "duration": 480}, {"note": 74, "velocity": 100, "duration": 1476}, {"note": 0, "velocity": 0, "duration": 14124}, {"note": 74, "velocity": 98, "duration": 401}, {"note": 0, "velocity": 0, "duration": 79}, {"note": 74, "velocity": 97, "duration": 157}, {"note": 0, "velocity": 0, "duration": 83}, {"note": 76, "velocity": 96, "duration": 180}, {"note": 74, "velocity": 101, "duration": 308}, {"note": 0, "velocity": 0, "duration": 172}, {"note": 86, "velocity": 95, "duration": 140}, {"note": 0, "velocity": 0, "duration": 100}, {"note": 85, "velocity": 98, "duration": 181}, {"note": 83, "velocity": 94, "duration": 140}, {"note": 0, "velocity": 0, "duration": 100}, {"note": 83, "velocity": 95, "duration": 194}, {"note": 81, "velocity": 97, "duration": 521}, {"note": 76, "velocity": 89, "duration": 165}, {"note": 0, "velocity": 0, "duration": 75}, {"note": 76, "velocity": 94, "duration": 185}, {"note": 74, "velocity": 101, "duration": 248}, {"note": 0, "velocity": 0, "duration": 232}, {"note": 74, "velocity": 96, "duration": 113}, {"note": 0, "velocity": 0, "duration": 127}, {"note": 74, "velocity": 97, "duration": 144}, {"note": 0, "velocity": 0, "duration": 96}, {"note": 74, "velocity": 96, "duration": 160}, {"note": 0, "velocity": 0, "duration": 80}, {"note": 76, "velocity": 98, "duration": 251}, {"note": 74, "velocity": 105, "duration": 292}, {"note": 0, "velocity": 0, "duration": 188}, {"note": 76, "velocity": 96, "duration": 179}, {"note": 0, "velocity": 0, "duration": 61}, {"note": 78, "velocity": 93, "duration": 1008}, {"note": 0, "velocity": 0, "duration": 1152}, {"note": 74, "velocity": 96, "duration": 170}, {"note": 0, "velocity": 0, "duration": 70}, {"note": 74, "velocity": 99, "duration": 174}, {"note": 0, "velocity": 0, "duration": 66}, {"note": 74, "velocity": 100, "duration": 158}, {"note": 0, "velocity": 0, "duration": 82}, {"note": 76, "velocity": 97, "duration": 177}, {"note": 0, "velocity": 0, "duration": 63}, {"note": 74, "velocity": 110, "duration": 346}, {"note": 0, "velocity": 0, "duration": 134}, {"note": 86, "velocity": 95, "duration": 150}, {"note": 0, "velocity": 0, "duration": 90}, {"note": 85, "velocity": 96, "duration": 174}, {"note": 0, "velocity": 0, "duration": 66}, {"note": 83, "velocity": 94, "duration": 148}, {"note": 0, "velocity": 0, "duration": 92}, {"note": 83, "velocity": 100, "duration": 180}, {"note": 81, "velocity": 98, "duration": 615}, {"note": 0, "velocity": 0, "duration": 345}, {"note": 86, "velocity": 96, "duration": 130}, {"note": 0, "velocity": 0, "duration": 110}, {"note": 86, "velocity": 96, "duration": 335}, {"note": 0, "velocity": 0, "duration": 145}, {"note": 83, "velocity": 95, "duration": 357}, {"note": 0, "velocity": 0, "duration": 123}, {"note": 78, "velocity": 95, "duration": 269}, {"note": 74, "velocity": 103, "duration": 480}, {"note": 76, "velocity": 101, "duration": 1049}, {"note": 0, "velocity": 0, "duration": 631}, {"note": 78, "velocity": 92, "duration": 399}, {"note": 0, "velocity": 0, "duration": 81}, {"note": 76, "velocity": 95, "duration": 1343}, {"note": 0, "velocity": 0, "duration": 577}, {"note": 81, "velocity": 87, "duration": 192}, {"note": 78, "velocity": 95, "duration": 392}, {"note": 0, "velocity": 0, "duration": 88}, {"note": 76, "velocity": 98, "duration": 177}, {"note": 0, "velocity": 0, "duration": 63}, {"note": 74, "velocity": 101, "duration": 603}, {"note": 0, "velocity": 0, "duration": 117}, {"note": 69, "velocity": 95, "duration": 160}, {"note": 0, "velocity": 0, "duration": 80}, {"note": 81, "velocity": 96, "duration": 176}, {"note": 0, "velocity": 0, "duration": 64}, {"note": 78, "velocity": 96, "duration": 243}, {"note": 76, "velocity": 100, "duration": 720}, {"note": 74, "velocity": 99, "duration": 480}, {"note": 74, "velocity": 101, "duration": 164}, {"note": 0, "velocity": 0, "duration": 76}, {"note": 86, "velocity": 96, "duration": 144}, {"note": 0, "velocity": 0, "duration": 96}, {"note": 85, "velocity": 95, "duration": 151}, {"note": 0, "velocity": 0, "duration": 89}, {"note": 85, "velocity": 100, "duration": 585}, {"note": 0, "velocity": 0, "duration": 135}, {"note": 83, "velocity": 95, "duration": 372}, {"note": 0, "velocity": 0, "duration": 108}, {"note": 81, "velocity": 94, "duration": 171}, {"note": 0, "velocity": 0, "duration": 69}, {"note": 83, "velocity": 98, "duration": 169}, {"note": 0, "velocity": 0, "duration": 71}, {"note": 81, "velocity": 97, "duration": 107}, {"note": 0, "velocity": 0, "duration": 133}, {"note": 78, "velocity": 95, "duration": 153}, {"note": 0, "velocity": 0, "duration": 87}, {"note": 81, "velocity": 100, "duration": 480}, {"note": 0, "velocity": 0, "duration": 480}, {"note": 74, "velocity": 101, "duration": 174}, {"note": 0, "velocity": 0, "duration": 66}, {"note": 86, "velocity": 95, "duration": 148}, {"note": 0, "velocity": 0, "duration": 92}, {"note": 85, "velocity": 95, "duration": 164}, {"note": 0, "velocity": 0, "duration": 76}, {"note": 85, "velocity": 103, "duration": 630}, {"note": 0, "velocity": 0, "duration": 90}, {"note": 83, "velocity": 95, "duration": 222}, {"note": 0, "velocity": 0, "duration": 258}, {"note": 81, "velocity": 89, "duration": 127}, {"note": 0, "velocity": 0, "duration": 113}, {"note": 81, "velocity": 96, "duration": 175}, {"note": 0, "velocity": 0, "duration": 65}, {"note": 86, "velocity": 97, "duration": 171}, {"note": 0, "velocity": 0, "duration": 69}, {"note": 78, "velocity": 95, "duration": 480}, {"note": 76, "velocity": 96, "duration": 399}, {"note": 0, "velocity": 0, "duration": 81}, {"note": 74, "velocity": 100, "duration": 356}, {"note": 0, "velocity": 0, "duration": 364}, {"note": 78, "velocity": 93, "duration": 171}, {"note": 0, "velocity": 0, "duration": 69}, {"note": 79, "velocity": 94, "duration": 150}, {"note": 0, "velocity": 0, "duration": 90}, {"note": 78, "velocity": 97, "duration": 155}, {"note": 0, "velocity": 0, "duration": 85}, {"note": 74, "velocity": 100, "duration": 178}, {"note": 0, "velocity": 0, "duration": 62}, {"note": 71, "velocity": 96, "duration": 160}, {"note": 0, "velocity": 0, "duration": 80}, {"note": 74, "velocity": 98, "duration": 551}, {"note": 0, "velocity": 0, "duration": 169}, {"note": 71, "velocity": 96, "duration": 462}, {"note": 69, "velocity": 97, "duration": 797}, {"note": 0, "velocity": 0, "duration": 163}, {"note": 69, "velocity": 96, "duration": 194}, {"note": 81, "velocity": 94, "duration": 163}, {"note": 0, "velocity": 0, "duration": 77}, {"note": 78, "velocity": 97, "duration": 175}, {"note": 0, "velocity": 0, "duration": 65}, {"note": 76, "velocity": 103, "duration": 480}, {"note": 74, "velocity": 95, "duration": 585}, {"note": 0, "velocity": 0, "duration": 135}, {"note": 69, "velocity": 100, "duration": 109}, {"note": 0, "velocity": 0, "duration": 131}, {"note": 81, "velocity": 93, "duration": 100}, {"note": 0, "velocity": 0, "duration": 140}, {"note": 78, "velocity": 87, "duration": 156}, {"note": 0, "velocity": 0, "duration": 84}, {"note": 76, "velocity": 105, "duration": 450}, {"note": 0, "velocity": 0, "duration": 270}, {"note": 74, "velocity": 108, "duration": 294}, {"note": 0, "velocity": 0, "duration": 186}, {"note": 74, "velocity": 101, "duration": 181}, {"note": 86, "velocity": 83, "duration": 198}, {"note": 85, "velocity": 96, "duration": 147}, {"note": 0, "velocity": 0, "duration": 93}, {"note": 85, "velocity": 98, "duration": 562}, {"note": 0, "velocity": 0, "duration": 158}, {"note": 83, "velocity": 96, "duration": 302}, {"note": 0, "velocity": 0, "duration": 178}, {"note": 81, "velocity": 94, "duration": 164}, {"note": 0, "velocity": 0, "duration": 76}, {"note": 83, "velocity": 95, "duration": 137}, {"note": 0, "velocity": 0, "duration": 103}, {"note": 81, "velocity": 95, "duration": 148}, {"note": 0, "velocity": 0, "duration": 92}, {"note": 78, "velocity": 95, "duration": 217}, {"note": 81, "velocity": 95, "duration": 684}, {"note": 0, "velocity": 0, "duration": 276}, {"note": 74, "velocity": 100, "duration": 177}, {"note": 0, "velocity": 0, "duration": 63}, {"note": 86, "velocity": 100, "duration": 133}, {"note": 0, "velocity": 0, "duration": 107}, {"note": 85, "velocity": 96, "duration": 146}, {"note": 0, "velocity": 0, "duration": 94}, {"note": 85, "velocity": 108, "duration": 596}, {"note": 0, "velocity": 0, "duration": 124}, {"note": 83, "velocity": 95, "duration": 350}, {"note": 0, "velocity": 0, "duration": 130}, {"note": 81, "velocity": 97, "duration": 151}, {"note": 0, "velocity": 0, "duration": 89}, {"note": 81, "velocity": 94, "duration": 166}, {"note": 0, "velocity": 0, "duration": 74}, {"note": 86, "velocity": 96, "duration": 140}, {"note": 0, "velocity": 0, "duration": 100}, {"note": 78, "velocity": 94, "duration": 355}, {"note": 0, "velocity": 0, "duration": 125}, {"note": 76, "velocity": 101, "duration": 362}, {"note": 0, "velocity": 0, "duration": 118}, {"note": 74, "velocity": 99, "duration": 537}, {"note": 0, "velocity": 0, "duration": 423}, {"note": 79, "velocity": 89, "duration": 189}, {"note": 78, "velocity": 99, "duration": 181}, {"note": 74, "velocity": 103, "duration": 182}, {"note": 71, "velocity": 99, "duration": 170}, {"note": 0, "velocity": 0, "duration": 70}, {"note": 74, "velocity": 98, "duration": 746}, {"note": 0, "velocity": 0, "duration": 214}, {"note": 79, "velocity": 94, "duration": 174}, {"note": 0, "velocity": 0, "duration": 66}, {"note": 78, "velocity": 96, "duration": 198}, {"note": 74, "velocity": 99, "duration": 182}, {"note": 71, "velocity": 98, "duration": 175}, {"note": 0, "velocity": 0, "duration": 65}, {"note": 74, "velocity": 99, "duration": 720}, {"note": 0, "velocity": 0, "duration": 240}, {"note": 76, "velocity": 96, "duration": 480}, {"note": 74, "velocity": 100, "duration": 1476}, {"note": 0, "velocity": 0, "duration": 4539}, {"note": 78, "velocity": 92, "duration": 159}, {"note": 0, "velocity": 0, "duration": 72}, {"note": 79, "velocity": 95, "duration": 167}, {"note": 78, "velocity": 96, "duration": 174}, {"note": 0, "velocity": 0, "duration": 71}, {"note": 74, "velocity": 100, "duration": 148}, {"note": 0, "velocity": 0, "duration": 88}, {"note": 71, "velocity": 89, "duration": 193}, {"note": 0, "velocity": 0, "duration": 70}, {"note": 74, "velocity": 96, "duration": 857}, {"note": 0, "velocity": 0, "duration": 75}, {"note": 79, "velocity": 95, "duration": 159}, {"note": 0, "velocity": 0, "duration": 85}, {"note": 78, "velocity": 95, "duration": 189}, {"note": 0, "velocity": 0, "duration": 91}, {"note": 74, "velocity": 101, "duration": 170}, {"note": 0, "velocity": 0, "duration": 72}, {"note": 71, "velocity": 94, "duration": 177}, {"note": 0, "velocity": 0, "duration": 63}, {"note": 74, "velocity": 98, "duration": 912}, {"note": 0, "velocity": 0, "duration": 262}, {"note": 76, "velocity": 94, "duration": 442}, {"note": 74, "velocity": 95, "duration": 1427}]]