[[{"note": 69, "velocity": 95, "duration": 200}, {"note": 71, "velocity": 95, "duration": 175}, {"note": 0, "velocity": 0, "duration": 65}, {"note": 73, "velocity": 94, "duration": 253}, {"note": 71, "velocity": 98, "duration": 166}, {"note": 0, "velocity": 0, "duration": 74}, {"note": 69, "velocity": 97, "duration": 218}, {"note": 73, "velocity": 102, "duration": 372}, {"note": 0, "velocity": 0, "duration": 108}, {"note": 68, "velocity": 95, "duration": 745}, {"note": 0, "velocity": 0, "duration": 1415}, {"note": 62, "velocity": 94, "duration": 175}, {"note": 0, "velocity": 0, "duration": 65}, {"note": 64, "velocity": 99, "duration": 171}, {"note": 0, "velocity": 0, "duration": 69}, {"note": 66, "velocity": 89, "duration": 214}, {"note": 64, "velocity": 96, "duration": 179}, {"note": 0, "velocity": 0, "duration": 61}, {"note": 62, "velocity": 93, "duration": 202}, {"note": 66, "velocity": 94, "duration": 186}, {"note": 64, "velocity": 97, "duration": 1589}, {"note": 0, "velocity": 0, "duration": 811}, {"note": 69, "velocity": 95, "duration": 151}, {"note": 0, "velocity": 0, "duration": 89}, {"note": 71, "velocity": 92, "duration": 192}, {"note": 73, "velocity": 93, "duration": 199}, {"note": 71, "velocity": 94, "duration": 162}, {"note": 0, "velocity": 0, "duration": 78}, {"note": 69, "velocity": 95, "duration": 159}, {"note": 0, "velocity": 0, "duration": 81}, {"note": 73, "velocity": 94, "duration": 362}, {"note": 0, "velocity": 0, "duration": 118}, {"note": 68, "velocity": 94, "duration": 932}, {"note": 0, "velocity": 0, "duration": 1228}, {"note": 62, "velocity": 93, "duration": 178}, {"note": 0, "velocity": 0, "duration": 62}, {"note": 64, "velocity": 96, "duration": 182}, {"note": 66, "velocity": 88, "duration": 169}, {"note": 0, "velocity": 0, "duration": 71}, {"note": 64, "velocity": 95, "duration": 171}, {"note": 0, "velocity": 0, "duration": 69}, {"note": 62, "velocity": 94, "duration": 155}, {"note": 0, "velocity": 0, "duration": 85}, {"note": 66, "velocity": 91, "duration": 163}, {"note": 0, "velocity": 0, "duration": 77}, {"note": 69, "velocity": 92, "duration": 351}, {"note": 0, "velocity": 0, "duration": 129}, {"note": 68, "velocity": 94, "duration": 364}, {"note": 0, "velocity": 0, "duration": 116}, {"note": 69, "velocity": 94, "duration": 411}, {"note": 0, "velocity": 0, "duration": 69}, {"note": 71, "velocity": 94, "duration": 352}, {"note": 0, "velocity": 0, "duration": 128}, {"note": 71, "velocity": 95, "duration": 380}, {"note": 0, "velocity": 0, "duration": 100}, {"note": 73, "velocity": 95, "duration": 177}, {"note": 0, "velocity": 0, "duration": 63}, {"note": 73, "velocity": 90, "duration": 397}, {"note": 0, "velocity": 0, "duration": 323}, {"note": 71, "velocity": 93, "duration": 163}, {"note": 0, "velocity": 0, "duration": 77}, {"note": 69, "velocity": 94, "duration": 165}, {"note": 0, "velocity": 0, "duration": 75}, {"note": 76, "velocity": 88, "duration": 119}, {"note": 0, "velocity": 0, "duration": 121}, {"note": 73, "velocity": 95, "duration": 308}, {"note": 0, "velocity": 0, "duration": 172}, {"note": 73, "velocity": 95, "duration": 210}, {"note": 0, "velocity": 0, "duration": 510}, {"note": 73, "velocity": 94, "duration": 158}, {"note": 0, "velocity": 0, "duration": 82}, {"note": 76, "velocity": 94, "duration": 129}, {"note": 0, "velocity": 0, "duration": 111}, {"note": 76, "velocity": 95, "duration": 161}, {"note": 0, "velocity": 0, "duration": 79}, {"note": 74, "velocity": 95, "duration": 348}, {"note": 0, "velocity": 0, "duration": 132}, {"note": 74, "velocity": 97, "duration": 226}, {"note": 0, "velocity": 0, "duration": 494}, {"note": 73, "velocity": 86, "duration": 158}, {"note": 0, "velocity": 0, "duration": 82}, {"note": 74, "velocity": 97, "duration": 148}, {"note": 0, "velocity": 0, "duration": 92}, {"note": 73, "velocity": 94, "duration": 167}, {"note": 0, "velocity": 0, "duration": 73}, {"note": 71, "velocity": 92, "duration": 133}, {"note": 0, "velocity": 0, "duration": 107}, {"note": 71, "velocity": 96, "duration": 147}, {"note": 0, "velocity": 0, "duration": 93}, {"note": 69, "velocity": 93, "duration": 167}, {"note": 0, "velocity": 0, "duration": 73}, {"note": 73, "velocity": 94, "duration": 186}, {"note": 71, "velocity": 94, "duration": 142}, {"note": 0, "velocity": 0, "duration": 338}, {"note": 69, "velocity": 95, "duration": 240}, {"note": 71, "velocity": 94, "duration": 179}, {"note": 0, "velocity": 0, "duration": 61}, {"note": 73, "velocity": 94, "duration": 388}, {"note": 0, "velocity": 0, "duration": 92}, {"note": 73, "velocity": 94, "duration": 394}, {"note": 0, "velocity": 0, "duration": 86}, {"note": 73, "velocity": 94, "duration": 171}, {"note": 0, "velocity": 0, "duration": 69}, {"note": 71, "velocity": 97, "duration": 127}, {"note": 0, "velocity": 0, "duration": 113}, {"note": 69, "velocity": 97, "duration": 152}, {"note": 0, "velocity": 0, "duration": 88}, {"note": 76, "velocity": 95, "duration": 151}, {"note": 0, "velocity": 0, "duration": 89}, {"note": 73, "velocity": 93, "duration": 364}, {"note": 0, "velocity": 0, "duration": 116}, {"note": 73, "velocity": 95, "duration": 293}, {"note": 0, "velocity": 0, "duration": 187}, {"note": 73, "velocity": 94, "duration": 152}, {"note": 0, "velocity": 0, "duration": 88}, {"note": 73, "velocity": 95, "duration": 149}, {"note": 0, "velocity": 0, "duration": 91}, {"note": 76, "velocity": 95, "duration": 144}, {"note": 0, "velocity": 0, "duration": 96}, {"note": 76, "velocity": 96, "duration": 159}, {"note": 0, "velocity": 0, "duration": 81}, {"note": 74, "velocity": 95, "duration": 367}, {"note": 0, "velocity": 0, "duration": 113}, {"note": 74, "velocity": 98, "duration": 226}, {"note": 0, "velocity": 0, "duration": 254}, {"note": 73, "velocity": 88, "duration": 155}, {"note": 0, "velocity": 0, "duration": 85}, {"note": 73, "velocity": 89, "duration": 143}, {"note": 0, "velocity": 0, "duration": 97}, {"note": 74, "velocity": 96, "duration": 154}, {"note": 0, "velocity": 0, "duration": 86}, {"note": 73, "velocity": 93, "duration": 159}, {"note": 0, "velocity": 0, "duration": 81}, {"note": 71, "velocity": 94, "duration": 357}, {"note": 0, "velocity": 0, "duration": 123}, {"note": 69, "velocity": 88, "duration": 186}, {"note": 71, "velocity": 94, "duration": 305}, {"note": 0, "velocity": 0, "duration": 175}, {"note": 73, "velocity": 96, "duration": 360}, {"note": 0, "velocity": 0, "duration": 120}, {"note": 71, "velocity": 94, "duration": 211}, {"note": 69, "velocity": 94, "duration": 1701}, {"note": 0, "velocity": 0, "duration": 6219}, {"note": 69, "velocity": 95, "duration": 200}, {"note": 71, "velocity": 95, "duration": 175}, {"note": 0, "velocity": 0, "duration": 65}, {"note": 73, "velocity": 94, "duration": 253}, {"note": 71, "velocity": 98, "duration": 166}, {"note": 0, "velocity": 0, "duration": 74}, {"note": 69, "velocity": 97, "duration": 218}, {"note": 73, "velocity": 102, "duration": 372}, {"note": 0, "velocity": 0, "duration": 108}, {"note": 68, "velocity": 95, "duration": 745}, {"note": 0, "velocity": 0, "duration": 1415}, {"note": 62, "velocity": 94, "duration": 175}, {"note": 0, "velocity": 0, "duration": 65}, {"note": 64, "velocity": 99, "duration": 171}, {"note": 0, "velocity": 0, "duration": 69}, {"note": 66, "velocity": 89, "duration": 214}, {"note": 64, "velocity": 96, "duration": 179}, {"note": 0, "velocity": 0, "duration": 61}, {"note": 62, "velocity": 93, "duration": 202}, {"note": 66, "velocity": 94, "duration": 186}, {"note": 64, "velocity": 97, "duration": 1589}, {"note": 0, "velocity": 0, "duration": 811}, {"note": 69, "velocity": 95, "duration": 151}, {"note": 0, "velocity": 0, "duration": 89}, {"note": 71, "velocity": 92, "duration": 192}, {"note": 73, "velocity": 93, "duration": 199}, {"note": 71, "velocity": 94, "duration": 162}, {"note": 0, "velocity": 0, "duration": 78}, {"note": 69, "velocity": 95, "duration": 159}, {"note": 0, "velocity": 0, "duration": 81}, {"note": 73, "velocity": 94, "duration": 362}, {"note": 0, "velocity": 0, "duration": 118}, {"note": 68, "velocity": 94, "duration": 932}, {"note": 0, "velocity": 0, "duration": 1228}, {"note": 62, "velocity": 93, "duration": 178}, {"note": 0, "velocity": 0, "duration": 62}, {"note": 64, "velocity": 96, "duration": 182}, {"note": 66, "velocity": 88, "duration": 169}, {"note": 0, "velocity": 0, "duration": 71}, {"note": 64, "velocity": 95, "duration": 171}, {"note": 0, "velocity": 0, "duration": 69}, {"note": 62, "velocity": 94, "duration": 155}, {"note": 0, "velocity": 0, "duration": 85}, {"note": 66, "velocity": 91, "duration": 163}, {"note": 0, "velocity": 0, "duration": 77}, {"note": 69, "velocity": 92, "duration": 351}, {"note": 0, "velocity": 0, "duration": 129}, {"note": 68, "velocity": 94, "duration": 364}, {"note": 0, "velocity": 0, "duration": 116}, {"note": 69, "velocity": 94, "duration": 411}, {"note": 0, "velocity": 0, "duration": 69}, {"note": 71, "velocity": 94, "duration": 352}, {"note": 0, "velocity": 0, "duration": 128}, {"note": 71, "velocity": 95, "duration": 380}, {"note": 0, "velocity": 0, "duration": 100}, {"note": 73, "velocity": 95, "duration": 177}, {"note": 0, "velocity": 0, "duration": 63}, {"note": 73, "velocity": 90, "duration": 397}, {"note": 0, "velocity": 0, "duration": 323}, {"note": 71, "velocity": 93, "duration": 163}, {"note": 0, "velocity": 0, "duration": 77}, {"note": 69, "velocity": 94, "duration": 165}, {"note": 0, "velocity": 0, "duration": 75}, {"note": 76, "velocity": 88, "duration": 119}, {"note": 0, "velocity": 0, "duration": 121}, {"note": 73, "velocity": 95, "duration": 308}, {"note": 0, "velocity": 0, "duration": 172}, {"note": 73, "velocity": 95, "duration": 210}, {"note": 0, "velocity": 0, "duration": 510}, {"note": 73, "velocity": 94, "duration": 158}, {"note": 0, "velocity": 0, "duration": 82}, {"note": 76, "velocity": 94, "duration": 129}, {"note": 0, "velocity": 0, "duration": 111}, {"note": 76, "velocity": 95, "duration": 161}, {"note": 0, "velocity": 0, "duration": 79}, {"note": 74, "velocity": 95, "duration": 348}, {"note": 0, "velocity": 0, "duration": 132}, {"note": 74, "velocity": 97, "duration": 226}, {"note": 0, "velocity": 0, "duration": 494}, {"note": 73, "velocity": 86, "duration": 158}, {"note": 0, "velocity": 0, "duration": 82}, {"note": 74, "velocity": 97, "duration": 148}, {"note": 0, "velocity": 0, "duration": 92}, {"note": 73, "velocity": 94, "duration": 167}, {"note": 0, "velocity": 0, "duration": 73}, {"note": 71, "velocity": 92, "duration": 133}, {"note": 0, "velocity": 0, "duration": 107}, {"note": 71, "velocity": 96, "duration": 147}, {"note": 0, "velocity": 0, "duration": 93}, {"note": 69, "velocity": 93, "duration": 167}, {"note": 0, "velocity": 0, "duration": 73}, {"note": 73, "velocity": 94, "duration": 186}, {"note": 71, "velocity": 94, "duration": 142}, {"note": 0, "velocity": 0, "duration": 338}, {"note": 69, "velocity": 95, "duration": 240}, {"note": 71, "velocity": 94, "duration": 179}, {"note": 0, "velocity": 0, "duration": 61}, {"note": 73, "velocity": 94, "duration": 388}, {"note": 0, "velocity": 0, "duration": 92}, {"note": 73, "velocity": 94, "duration": 394}, {"note": 0, "velocity": 0, "duration": 86}, {"note": 73, "velocity": 94, "duration": 171}, {"note": 0, "velocity": 0, "duration": 69}, {"note": 71, "velocity": 97, "duration": 127}, {"note": 0, "velocity": 0, "duration": 113}, {"note": 69, "velocity": 97, "duration": 152}, {"note": 0, "velocity": 0, "duration": 88}, {"note": 76, "velocity": 95, "duration": 151}, {"note": 0, "velocity": 0, "duration": 89}, {"note": 73, "velocity": 93, "duration": 364}, {"note": 0, "velocity": 0, "duration": 116}, {"note": 73, "velocity": 95, "duration": 293}, {"note": 0, "velocity": 0, "duration": 187}, {"note": 73, "velocity": 94, "duration": 152}, {"note": 0, "velocity": 0, "duration": 88}, {"note": 73, "velocity": 95, "duration": 149}, {"note": 0, "velocity": 0, "duration": 91}, {"note": 76, "velocity": 95, "duration": 144}, {"note": 0, "velocity": 0, "duration": 96}, {"note": 76, "velocity": 96, "duration": 159}, {"note": 0, "velocity": 0, "duration": 81}, {"note": 74, "velocity": 95, "duration": 367}, {"note": 0, "velocity": 0, "duration": 113}, {"note": 74, "velocity": 98, "duration": 226}, {"note": 0, "velocity": 0, "duration": 254}, {"note": 73, "velocity": 88, "duration": 155}, {"note": 0, "velocity": 0, "duration": 85}, {"note": 73, "velocity": 89, "duration": 143}, {"note": 0, "velocity": 0, "duration": 97}, {"note": 74, "velocity": 96, "duration": 154}, {"note": 0, "velocity": 0, "duration": 86}, {"note": 73, "velocity": 93, "duration": 159}, {"note": 0, "velocity": 0, "duration": 81}, {"note": 71, "velocity": 94, "duration": 357}, {"note": 0, "velocity": 0, "duration": 123}, {"note": 69, "velocity": 88, "duration": 186}, {"note": 71, "velocity": 94, "duration": 305}, {"note": 0, "velocity": 0, "duration": 175}, {"note": 73, "velocity": 96, "duration": 360}, {"note": 0, "velocity": 0, "duration": 120}, {"note": 71, "velocity": 94, "duration": 211}, {"note": 69, "velocity": 94, "duration": 1701}, {"note": 0, "velocity": 0, "duration": 6219}, {"note": 73, "velocity": 94, "duration": 149}, {"note": 0, "velocity": 0, "duration": 91}, {"note": 73, "velocity": 97, "duration": 147}, {"note": 0, "velocity": 0, "duration": 93}, {"note": 73, "velocity": 93, "duration": 151}, {"note": 0, "velocity": 0, "duration": 89}, {"note": 73, "velocity": 94, "duration": 152}, {"note": 0, "velocity": 0, "duration": 88}, {"note": 73, "velocity": 95, "duration": 163}, {"note": 0, "velocity": 0, "duration": 77}, {"note": 75, "velocity": 96, "duration": 180}, {"note": 73, "velocity": 104, "duration": 158}, {"note": 0, "velocity": 0, "duration": 82}, {"note": 71, "velocity": 100, "duration": 147}, {"note": 0, "velocity": 0, "duration": 93}, {"note": 68, "velocity": 94, "duration": 161}, {"note": 0, "velocity": 0, "duration": 79}, {"note": 71, "velocity": 94, "duration": 425}, {"note": 73, "velocity": 93, "duration": 206}, {"note": 68, "velocity": 95, "duration": 206}, {"note": 66, "velocity": 95, "duration": 327}, {"note": 0, "velocity": 0, "duration": 153}, {"note": 73, "velocity": 86, "duration": 162}, {"note": 0, "velocity": 0, "duration": 78}, {"note": 73, "velocity": 94, "duration": 143}, {"note": 0, "velocity": 0, "duration": 97}, {"note": 73, "velocity": 91, "duration": 135}, {"note": 0, "velocity": 0, "duration": 105}, {"note": 73, "velocity": 93, "duration": 131}, {"note": 0, "velocity": 0, "duration": 109}, {"note": 73, "velocity": 89, "duration": 154}, {"note": 0, "velocity": 0, "duration": 86}, {"note": 73, "velocity": 94, "duration": 155}, {"note": 0, "velocity": 0, "duration": 85}, {"note": 75, "velocity": 95, "duration": 151}, {"note": 0, "velocity": 0, "duration": 89}, {"note": 73, "velocity": 94, "duration": 155}, {"note": 0, "velocity": 0, "duration": 85}, {"note": 71, "velocity": 94, "duration": 134}, {"note": 0, "velocity": 0, "duration": 106}, {"note": 68, "velocity": 97, "duration": 152}, {"note": 0, "velocity": 0, "duration": 88}, {"note": 71, "velocity": 93, "duration": 218}, {"note": 0, "velocity": 0, "duration": 262}, {"note": 75, "velocity": 98, "duration": 188}, {"note": 73, "velocity": 100, "duration": 121}, {"note": 0, "velocity": 0, "duration": 119}, {"note": 71, "velocity": 98, "duration": 171}, {"note": 0, "velocity": 0, "duration": 69}, {"note": 73, "velocity": 91, "duration": 167}, {"note": 0, "velocity": 0, "duration": 73}, {"note": 75, "velocity": 97, "duration": 332}, {"note": 0, "velocity": 0, "duration": 148}, {"note": 76, "velocity": 96, "duration": 463}, {"note": 78, "velocity": 88, "duration": 155}, {"note": 0, "velocity": 0, "duration": 85}, {"note": 75, "velocity": 98, "duration": 127}, {"note": 0, "velocity": 0, "duration": 113}, {"note": 75, "velocity": 95, "duration": 479}, {"note": 73, "velocity": 94, "duration": 480}, {"note": 71, "velocity": 97, "duration": 155}, {"note": 0, "velocity": 0, "duration": 85}, {"note": 75, "velocity": 97, "duration": 341}, {"note": 0, "velocity": 0, "duration": 139}, {"note": 73, "velocity": 95, "duration": 149}, {"note": 0, "velocity": 0, "duration": 91}, {"note": 71, "velocity": 36, "duration": 179}, {"note": 0, "velocity": 0, "duration": 61}, {"note": 73, "velocity": 95, "duration": 380}, {"note": 0, "velocity": 0, "duration": 100}, {"note": 75, "velocity": 95, "duration": 177}, {"note": 0, "velocity": 0, "duration": 63}, {"note": 75, "velocity": 90, "duration": 397}, {"note": 0, "velocity": 0, "duration": 323}, {"note": 73, "velocity": 93, "duration": 163}, {"note": 0, "velocity": 0, "duration": 77}, {"note": 71, "velocity": 94, "duration": 165}, {"note": 0, "velocity": 0, "duration": 75}, {"note": 78, "velocity": 88, "duration": 119}, {"note": 0, "velocity": 0, "duration": 121}, {"note": 75, "velocity": 95, "duration": 308}, {"note": 0, "velocity": 0, "duration": 172}, {"note": 75, "velocity": 95, "duration": 210}, {"note": 0, "velocity": 0, "duration": 510}, {"note": 75, "velocity": 94, "duration": 158}, {"note": 0, "velocity": 0, "duration": 82}, {"note": 78, "velocity": 94, "duration": 129}, {"note": 0, "velocity": 0, "duration": 111}, {"note": 78, "velocity": 95, "duration": 161}, {"note": 0, "velocity": 0, "duration": 79}, {"note": 76, "velocity": 95, "duration": 348}, {"note": 0, "velocity": 0, "duration": 132}, {"note": 76, "velocity": 97, "duration": 226}, {"note": 0, "velocity": 0, "duration": 494}, {"note": 75, "velocity": 86, "duration": 158}, {"note": 0, "velocity": 0, "duration": 82}, {"note": 76, "velocity": 97, "duration": 148}, {"note": 0, "velocity": 0, "duration": 92}, {"note": 75, "velocity": 94, "duration": 167}, {"note": 0, "velocity": 0, "duration": 73}, {"note": 73, "velocity": 92, "duration": 133}, {"note": 0, "velocity": 0, "duration": 107}, {"note": 73, "velocity": 96, "duration": 147}, {"note": 0, "velocity": 0, "duration": 93}, {"note": 71, "velocity": 93, "duration": 167}, {"note": 0, "velocity": 0, "duration": 73}, {"note": 75, "velocity": 94, "duration": 186}, {"note": 73, "velocity": 94, "duration": 142}, {"note": 0, "velocity": 0, "duration": 338}, {"note": 71, "velocity": 95, "duration": 240}, {"note": 73, "velocity": 94, "duration": 179}, {"note": 0, "velocity": 0, "duration": 61}, {"note": 75, "velocity": 94, "duration": 388}, {"note": 0, "velocity": 0, "duration": 92}, {"note": 75, "velocity": 94, "duration": 394}, {"note": 0, "velocity": 0, "duration": 86}, {"note": 75, "velocity": 94, "duration": 171}, {"note": 0, "velocity": 0, "duration": 69}, {"note": 73, "velocity": 97, "duration": 127}, {"note": 0, "velocity": 0, "duration": 113}, {"note": 71, "velocity": 97, "duration": 152}, {"note": 0, "velocity": 0, "duration": 88}, {"note": 78, "velocity": 95, "duration": 151}, {"note": 0, "velocity": 0, "duration": 89}, {"note": 75, "velocity": 93, "duration": 364}, {"note": 0, "velocity": 0, "duration": 116}, {"note": 75, "velocity": 95, "duration": 293}, {"note": 0, "velocity": 0, "duration": 187}, {"note": 75, "velocity": 94, "duration": 152}, {"note": 0, "velocity": 0, "duration": 88}, {"note": 75, "velocity": 95, "duration": 149}, {"note": 0, "velocity": 0, "duration": 91}, {"note": 78, "velocity": 95, "duration": 144}, {"note": 0, "velocity": 0, "duration": 96}, {"note": 78, "velocity": 96, "duration": 159}, {"note": 0, "velocity": 0, "duration": 81}, {"note": 76, "velocity": 95, "duration": 367}, {"note": 0, "velocity": 0, "duration": 113}, {"note": 76, "velocity": 98, "duration": 226}, {"note": 0, "velocity": 0, "duration": 254}, {"note": 75, "velocity": 88, "duration": 155}, {"note": 0, "velocity": 0, "duration": 85}, {"note": 73, "velocity": 89, "duration": 143}, {"note": 0, "velocity": 0, "duration": 97}, {"note": 71, "velocity": 96, "duration": 154}, {"note": 0, "velocity": 0, "duration": 86}, {"note": 80, "velocity": 93, "duration": 159}, {"note": 0, "velocity": 0, "duration": 81}, {"note": 78, "velocity": 94, "duration": 357}, {"note": 0, "velocity": 0, "duration": 123}, {"note": 80, "velocity": 88, "duration": 186}, {"note": 75, "velocity": 94, "duration": 240}, {"note": 73, "velocity": 96, "duration": 360}, {"note": 0, "velocity": 0, "duration": 120}, {"note": 71, "velocity": 94, "duration": 211}, {"note": 73, "velocity": 95, "duration": 380}, {"note": 0, "velocity": 0, "duration": 100}, {"note": 75, "velocity": 95, "duration": 177}, {"note": 0, "velocity": 0, "duration": 63}, {"note": 75, "velocity": 90, "duration": 397}, {"note": 0, "velocity": 0, "duration": 323}, {"note": 73, "velocity": 93, "duration": 163}, {"note": 0, "velocity": 0, "duration": 77}, {"note": 71, "velocity": 94, "duration": 165}, {"note": 0, "velocity": 0, "duration": 75}, {"note": 78, "velocity": 88, "duration": 119}, {"note": 0, "velocity": 0, "duration": 121}, {"note": 75, "velocity": 95, "duration": 308}, {"note": 0, "velocity": 0, "duration": 172}, {"note": 75, "velocity": 95, "duration": 210}, {"note": 0, "velocity": 0, "duration": 510}, {"note": 75, "velocity": 94, "duration": 158}, {"note": 0, "velocity": 0, "duration": 82}, {"note": 78, "velocity": 94, "duration": 129}, {"note": 0, "velocity": 0, "duration": 111}, {"note": 78, "velocity": 95, "duration": 161}, {"note": 0, "velocity": 0, "duration": 79}, {"note": 76, "velocity": 95, "duration": 348}, {"note": 0, "velocity": 0, "duration": 132}, {"note": 76, "velocity": 97, "duration": 226}, {"note": 0, "velocity": 0, "duration": 494}, {"note": 75, "velocity": 86, "duration": 158}, {"note": 0, "velocity": 0, "duration": 82}, {"note": 76, "velocity": 97, "duration": 148}, {"note": 0, "velocity": 0, "duration": 92}, {"note": 75, "velocity": 94, "duration": 167}, {"note": 0, "velocity": 0, "duration": 73}, {"note": 73, "velocity": 92, "duration": 133}, {"note": 0, "velocity": 0, "duration": 107}, {"note": 73, "velocity": 96, "duration": 147}, {"note": 0, "velocity": 0, "duration": 93}, {"note": 71, "velocity": 93, "duration": 167}, {"note": 0, "velocity": 0, "duration": 73}, {"note": 75, "velocity": 94, "duration": 186}, {"note": 73, "velocity": 94, "duration": 142}, {"note": 0, "velocity": 0, "duration": 338}, {"note": 71, "velocity": 95, "duration": 240}, {"note": 73, "velocity": 94, "duration": 179}, {"note": 0, "velocity": 0, "duration": 61}, {"note": 75, "velocity": 94, "duration": 388}, {"note": 0, "velocity": 0, "duration": 92}, {"note": 75, "velocity": 94, "duration": 394}, {"note": 0, "velocity": 0, "duration": 86}, {"note": 75, "velocity": 94, "duration": 171}, {"note": 0, "velocity": 0, "duration": 69}, {"note": 73, "velocity": 97, "duration": 127}, {"note": 0, "velocity": 0, "duration": 113}, {"note": 71, "velocity": 97, "duration": 152}, {"note": 0, "velocity": 0, "duration": 88}, {"note": 78, "velocity": 95, "duration": 151}, {"note": 0, "velocity": 0, "duration": 89}, {"note": 75, "velocity": 93, "duration": 364}, {"note": 0, "velocity": 0, "duration": 116}, {"note": 75, "velocity": 95, "duration": 293}, {"note": 0, "velocity": 0, "duration": 187}, {"note": 75, "velocity": 94, "duration": 152}, {"note": 0, "velocity": 0, "duration": 88}, {"note": 75, "velocity": 95, "duration": 149}, {"note": 0, "velocity": 0, "duration": 91}, {"note": 78, "velocity": 95, "duration": 144}, {"note": 0, "velocity": 0, "duration": 96}, {"note": 78, "velocity": 96, "duration": 159}, {"note": 0, "velocity": 0, "duration": 81}, {"note": 76, "velocity": 95, "duration": 367}, {"note": 0, "velocity": 0, "duration": 113}, {"note": 76, "velocity": 98, "duration": 226}, {"note": 0, "velocity": 0, "duration": 254}, {"note": 75, "velocity": 88, "duration": 155}, {"note": 0, "velocity": 0, "duration": 85}, {"note": 75, "velocity": 89, "duration": 143}, {"note": 0, "velocity": 0, "duration": 97}, {"note": 76, "velocity": 96, "duration": 154}, {"note": 0, "velocity": 0, "duration": 86}, {"note": 75, "velocity": 93, "duration": 159}, {"note": 0, "velocity": 0, "duration": 81}, {"note": 73, "velocity": 94, "duration": 357}, {"note": 0, "velocity": 0, "duration": 123}, {"note": 71, "velocity": 88, "duration": 186}, {"note": 73, "velocity": 94, "duration": 305}, {"note": 0, "velocity": 0, "duration": 175}, {"note": 75, "velocity": 96, "duration": 360}, {"note": 0, "velocity": 0, "duration": 120}, {"note": 73, "velocity": 94, "duration": 211}, {"note": 71, "velocity": 94, "duration": 1701}]]