[[{"note": 71, "velocity": 93, "duration": 76}, {"note": 71, "velocity": 94, "duration": 73}, {"note": 71, "velocity": 93, "duration": 73}, {"note": 71, "velocity": 93, "duration": 70}, {"note": 71, "velocity": 93, "duration": 188}, {"note": 69, "velocity": 88, "duration": 240}, {"note": 68, "velocity": 93, "duration": 296}, {"note": 66, "velocity": 93, "duration": 207}, {"note": 66, "velocity": 94, "duration": 213}, {"note": 64, "velocity": 95, "duration": 75}, {"note": 64, "velocity": 95, "duration": 1080}, {"note": 0, "velocity": 0, "duration": 960}, {"note": 64, "velocity": 94, "duration": 70}, {"note": 64, "velocity": 93, "duration": 59}, {"note": 0, "velocity": 0, "duration": 61}, {"note": 64, "velocity": 93, "duration": 67}, {"note": 64, "velocity": 91, "duration": 70}, {"note": 66, "velocity": 93, "duration": 386}, {"note": 0, "velocity": 0, "duration": 94}, {"note": 66, "velocity": 90, "duration": 226}, {"note": 64, "velocity": 95, "duration": 194}, {"note": 68, "velocity": 85, "duration": 1528}, {"note": 0, "velocity": 0, "duration": 872}, {"note": 71, "velocity": 94, "duration": 72}, {"note": 71, "velocity": 94, "duration": 62}, {"note": 71, "velocity": 94, "duration": 64}, {"note": 71, "velocity": 96, "duration": 265}, {"note": 0, "velocity": 0, "duration": 95}, {"note": 71, "velocity": 99, "duration": 192}, {"note": 73, "velocity": 94, "duration": 193}, {"note": 75, "velocity": 94, "duration": 86}, {"note": 76, "velocity": 94, "duration": 989}, {"note": 0, "velocity": 0, "duration": 571}, {"note": 68, "velocity": 97, "duration": 185}, {"note": 69, "velocity": 94, "duration": 72}, {"note": 71, "velocity": 95, "duration": 326}, {"note": 64, "velocity": 100, "duration": 182}, {"note": 68, "velocity": 94, "duration": 182}, {"note": 69, "velocity": 93, "duration": 74}, {"note": 71, "velocity": 92, "duration": 315}, {"note": 64, "velocity": 97, "duration": 216}, {"note": 0, "velocity": 0, "duration": 264}, {"note": 63, "velocity": 93, "duration": 96}, {"note": 64, "velocity": 95, "duration": 79}, {"note": 66, "velocity": 97, "duration": 218}, {"note": 64, "velocity": 95, "duration": 1185}, {"note": 0, "velocity": 0, "duration": 975}, {"note": 71, "velocity": 93, "duration": 76}, {"note": 71, "velocity": 94, "duration": 73}, {"note": 71, "velocity": 93, "duration": 73}, {"note": 71, "velocity": 93, "duration": 70}, {"note": 71, "velocity": 93, "duration": 188}, {"note": 69, "velocity": 88, "duration": 240}, {"note": 68, "velocity": 93, "duration": 296}, {"note": 66, "velocity": 93, "duration": 207}, {"note": 68, "velocity": 94, "duration": 1080}, {"note": 0, "velocity": 0, "duration": 1320}, {"note": 64, "velocity": 94, "duration": 70}, {"note": 64, "velocity": 93, "duration": 59}, {"note": 0, "velocity": 0, "duration": 61}, {"note": 64, "velocity": 93, "duration": 67}, {"note": 64, "velocity": 91, "duration": 70}, {"note": 66, "velocity": 93, "duration": 262}, {"note": 66, "velocity": 93, "duration": 120}, {"note": 66, "velocity": 90, "duration": 22}, {"note": 0, "velocity": 0, "duration": 338}, {"note": 64, "velocity": 95, "duration": 194}, {"note": 68, "velocity": 95, "duration": 194}, {"note": 71, "velocity": 85, "duration": 1528}, {"note": 0, "velocity": 0, "duration": 632}, {"note": 71, "velocity": 94, "duration": 72}, {"note": 71, "velocity": 94, "duration": 62}, {"note": 71, "velocity": 94, "duration": 64}, {"note": 71, "velocity": 96, "duration": 265}, {"note": 0, "velocity": 0, "duration": 95}, {"note": 71, "velocity": 99, "duration": 192}, {"note": 73, "velocity": 94, "duration": 193}, {"note": 75, "velocity": 94, "duration": 86}, {"note": 76, "velocity": 94, "duration": 989}, {"note": 0, "velocity": 0, "duration": 571}, {"note": 68, "velocity": 97, "duration": 185}, {"note": 69, "velocity": 94, "duration": 72}, {"note": 71, "velocity": 95, "duration": 326}, {"note": 64, "velocity": 100, "duration": 182}, {"note": 68, "velocity": 94, "duration": 182}, {"note": 69, "velocity": 93, "duration": 74}, {"note": 71, "velocity": 92, "duration": 315}, {"note": 64, "velocity": 97, "duration": 216}, {"note": 0, "velocity": 0, "duration": 264}, {"note": 63, "velocity": 93, "duration": 96}, {"note": 64, "velocity": 95, "duration": 79}, {"note": 66, "velocity": 97, "duration": 218}, {"note": 64, "velocity": 95, "duration": 1185}, {"note": 68, "velocity": 99, "duration": 163}, {"note": 66, "velocity": 98, "duration": 152}, {"note": 0, "velocity": 0, "duration": 88}, {"note": 64, "velocity": 97, "duration": 102}, {"note": 64, "velocity": 100, "duration": 324}, {"note": 0, "velocity": 0, "duration": 156}, {"note": 73, "velocity": 97, "duration": 197}, {"note": 75, "velocity": 93, "duration": 85}, {"note": 73, "velocity": 100, "duration": 345}, {"note": 71, "velocity": 97, "duration": 299}, {"note": 0, "velocity": 0, "duration": 301}, {"note": 68, "velocity": 97, "duration": 80}, {"note": 73, "velocity": 94, "duration": 403}, {"note": 0, "velocity": 0, "duration": 77}, {"note": 71, "velocity": 93, "duration": 212}, {"note": 73, "velocity": 97, "duration": 93}, {"note": 68, "velocity": 89, "duration": 514}, {"note": 0, "velocity": 0, "duration": 84}, {"note": 68, "velocity": 95, "duration": 154}, {"note": 66, "velocity": 93, "duration": 95}, {"note": 0, "velocity": 0, "duration": 61}, {"note": 64, "velocity": 97, "duration": 82}, {"note": 0, "velocity": 0, "duration": 65}, {"note": 64, "velocity": 99, "duration": 349}, {"note": 0, "velocity": 0, "duration": 145}, {"note": 73, "velocity": 97, "duration": 207}, {"note": 75, "velocity": 97, "duration": 70}, {"note": 73, "velocity": 100, "duration": 344}, {"note": 71, "velocity": 97, "duration": 474}, {"note": 68, "velocity": 97, "duration": 108}, {"note": 69, "velocity": 94, "duration": 83}, {"note": 71, "velocity": 104, "duration": 135}, {"note": 69, "velocity": 99, "duration": 128}, {"note": 68, "velocity": 95, "duration": 135}, {"note": 69, "velocity": 94, "duration": 119}, {"note": 68, "velocity": 95, "duration": 153}, {"note": 69, "velocity": 94, "duration": 100}, {"note": 71, "velocity": 95, "duration": 125}, {"note": 69, "velocity": 94, "duration": 131}, {"note": 68, "velocity": 97, "duration": 139}, {"note": 69, "velocity": 96, "duration": 164}, {"note": 0, "velocity": 0, "duration": 102}, {"note": 68, "velocity": 102, "duration": 118}, {"note": 69, "velocity": 94, "duration": 76}, {"note": 73, "velocity": 100, "duration": 212}, {"note": 71, "velocity": 97, "duration": 70}, {"note": 73, "velocity": 97, "duration": 283}, {"note": 0, "velocity": 0, "duration": 77}, {"note": 71, "velocity": 99, "duration": 1041}, {"note": 0, "velocity": 0, "duration": 159}, {"note": 76, "velocity": 100, "duration": 388}, {"note": 0, "velocity": 0, "duration": 92}, {"note": 78, "velocity": 97, "duration": 391}, {"note": 0, "velocity": 0, "duration": 89}, {"note": 80, "velocity": 99, "duration": 193}, {"note": 81, "velocity": 94, "duration": 67}, {"note": 80, "velocity": 99, "duration": 368}, {"note": 78, "velocity": 94, "duration": 200}, {"note": 76, "velocity": 99, "duration": 530}, {"note": 0, "velocity": 0, "duration": 190}, {"note": 76, "velocity": 95, "duration": 175}, {"note": 0, "velocity": 0, "duration": 65}, {"note": 75, "velocity": 97, "duration": 182}, {"note": 76, "velocity": 99, "duration": 96}, {"note": 78, "velocity": 97, "duration": 316}, {"note": 75, "velocity": 97, "duration": 226}, {"note": 76, "velocity": 98, "duration": 535}, {"note": 0, "velocity": 0, "duration": 185}, {"note": 76, "velocity": 99, "duration": 180}, {"note": 75, "velocity": 97, "duration": 189}, {"note": 76, "velocity": 97, "duration": 70}, {"note": 75, "velocity": 100, "duration": 191}, {"note": 73, "velocity": 95, "duration": 81}, {"note": 71, "velocity": 100, "duration": 233}, {"note": 76, "velocity": 99, "duration": 490}, {"note": 0, "velocity": 0, "duration": 230}, {"note": 73, "velocity": 93, "duration": 67}, {"note": 73, "velocity": 93, "duration": 89}, {"note": 71, "velocity": 104, "duration": 212}, {"note": 75, "velocity": 99, "duration": 59}, {"note": 0, "velocity": 0, "duration": 61}, {"note": 76, "velocity": 85, "duration": 300}, {"note": 0, "velocity": 0, "duration": 186}, {"note": 71, "velocity": 107, "duration": 85}, {"note": 73, "velocity": 99, "duration": 125}, {"note": 75, "velocity": 96, "duration": 97}, {"note": 76, "velocity": 97, "duration": 89}, {"note": 0, "velocity": 0, "duration": 67}, {"note": 76, "velocity": 100, "duration": 128}, {"note": 75, "velocity": 100, "duration": 147}, {"note": 73, "velocity": 94, "duration": 112}, {"note": 76, "velocity": 98, "duration": 156}, {"note": 0, "velocity": 0, "duration": 72}, {"note": 76, "velocity": 104, "duration": 224}, {"note": 71, "velocity": 104, "duration": 146}, {"note": 73, "velocity": 97, "duration": 129}, {"note": 0, "velocity": 0, "duration": 111}, {"note": 75, "velocity": 104, "duration": 106}, {"note": 76, "velocity": 99, "duration": 530}, {"note": 0, "velocity": 0, "duration": 190}, {"note": 76, "velocity": 95, "duration": 175}, {"note": 0, "velocity": 0, "duration": 65}, {"note": 75, "velocity": 97, "duration": 182}, {"note": 76, "velocity": 99, "duration": 96}, {"note": 78, "velocity": 97, "duration": 316}, {"note": 75, "velocity": 97, "duration": 226}, {"note": 76, "velocity": 98, "duration": 535}, {"note": 0, "velocity": 0, "duration": 185}, {"note": 76, "velocity": 99, "duration": 180}, {"note": 75, "velocity": 97, "duration": 189}, {"note": 76, "velocity": 97, "duration": 70}, {"note": 75, "velocity": 100, "duration": 191}, {"note": 73, "velocity": 95, "duration": 81}, {"note": 71, "velocity": 100, "duration": 233}, {"note": 76, "velocity": 99, "duration": 490}, {"note": 0, "velocity": 0, "duration": 230}, {"note": 73, "velocity": 93, "duration": 67}, {"note": 73, "velocity": 93, "duration": 89}, {"note": 71, "velocity": 104, "duration": 212}, {"note": 75, "velocity": 99, "duration": 59}, {"note": 0, "velocity": 0, "duration": 61}, {"note": 76, "velocity": 85, "duration": 300}, {"note": 0, "velocity": 0, "duration": 186}, {"note": 71, "velocity": 107, "duration": 85}, {"note": 73, "velocity": 99, "duration": 125}, {"note": 0, "velocity": 0, "duration": 111}, {"note": 76, "velocity": 97, "duration": 75}, {"note": 76, "velocity": 96, "duration": 304}, {"note": 73, "velocity": 97, "duration": 67}, {"note": 73, "velocity": 95, "duration": 78}, {"note": 76, "velocity": 100, "duration": 160}, {"note": 0, "velocity": 0, "duration": 80}, {"note": 76, "velocity": 97, "duration": 202}, {"note": 75, "velocity": 104, "duration": 132}, {"note": 76, "velocity": 102, "duration": 76}, {"note": 78, "velocity": 95, "duration": 159}, {"note": 0, "velocity": 0, "duration": 81}, {"note": 78, "velocity": 99, "duration": 219}, {"note": 76, "velocity": 104, "duration": 1591}, {"note": 0, "velocity": 0, "duration": 15929}, {"note": 71, "velocity": 93, "duration": 76}, {"note": 71, "velocity": 94, "duration": 73}, {"note": 71, "velocity": 93, "duration": 73}, {"note": 71, "velocity": 93, "duration": 70}, {"note": 71, "velocity": 93, "duration": 188}, {"note": 69, "velocity": 88, "duration": 240}, {"note": 68, "velocity": 93, "duration": 296}, {"note": 66, "velocity": 93, "duration": 207}, {"note": 68, "velocity": 94, "duration": 1080}, {"note": 0, "velocity": 0, "duration": 1320}, {"note": 64, "velocity": 94, "duration": 70}, {"note": 64, "velocity": 93, "duration": 59}, {"note": 0, "velocity": 0, "duration": 61}, {"note": 64, "velocity": 93, "duration": 67}, {"note": 64, "velocity": 91, "duration": 70}, {"note": 66, "velocity": 93, "duration": 262}, {"note": 66, "velocity": 93, "duration": 120}, {"note": 66, "velocity": 90, "duration": 22}, {"note": 0, "velocity": 0, "duration": 338}, {"note": 64, "velocity": 95, "duration": 194}, {"note": 68, "velocity": 95, "duration": 194}, {"note": 71, "velocity": 85, "duration": 1528}, {"note": 0, "velocity": 0, "duration": 632}, {"note": 71, "velocity": 94, "duration": 72}, {"note": 71, "velocity": 94, "duration": 62}, {"note": 71, "velocity": 94, "duration": 64}, {"note": 71, "velocity": 96, "duration": 265}, {"note": 0, "velocity": 0, "duration": 95}, {"note": 71, "velocity": 99, "duration": 192}, {"note": 73, "velocity": 94, "duration": 193}, {"note": 75, "velocity": 94, "duration": 86}, {"note": 76, "velocity": 94, "duration": 989}, {"note": 0, "velocity": 0, "duration": 571}, {"note": 68, "velocity": 97, "duration": 185}, {"note": 69, "velocity": 94, "duration": 72}, {"note": 71, "velocity": 95, "duration": 326}, {"note": 64, "velocity": 100, "duration": 182}, {"note": 68, "velocity": 94, "duration": 182}, {"note": 69, "velocity": 93, "duration": 74}, {"note": 71, "velocity": 92, "duration": 315}, {"note": 64, "velocity": 97, "duration": 216}, {"note": 0, "velocity": 0, "duration": 264}, {"note": 63, "velocity": 93, "duration": 96}, {"note": 64, "velocity": 95, "duration": 79}, {"note": 66, "velocity": 97, "duration": 218}, {"note": 64, "velocity": 95, "duration": 1185}, {"note": 68, "velocity": 99, "duration": 163}, {"note": 66, "velocity": 98, "duration": 152}, {"note": 0, "velocity": 0, "duration": 88}, {"note": 64, "velocity": 97, "duration": 102}, {"note": 64, "velocity": 100, "duration": 324}, {"note": 0, "velocity": 0, "duration": 156}, {"note": 73, "velocity": 97, "duration": 197}, {"note": 75, "velocity": 93, "duration": 85}, {"note": 73, "velocity": 100, "duration": 345}, {"note": 71, "velocity": 97, "duration": 299}, {"note": 0, "velocity": 0, "duration": 301}, {"note": 68, "velocity": 97, "duration": 80}, {"note": 73, "velocity": 94, "duration": 403}, {"note": 0, "velocity": 0, "duration": 77}, {"note": 71, "velocity": 93, "duration": 212}, {"note": 73, "velocity": 97, "duration": 93}, {"note": 68, "velocity": 89, "duration": 514}, {"note": 0, "velocity": 0, "duration": 84}, {"note": 68, "velocity": 95, "duration": 154}, {"note": 66, "velocity": 93, "duration": 95}, {"note": 0, "velocity": 0, "duration": 61}, {"note": 64, "velocity": 97, "duration": 82}, {"note": 0, "velocity": 0, "duration": 65}, {"note": 64, "velocity": 99, "duration": 349}, {"note": 0, "velocity": 0, "duration": 145}, {"note": 73, "velocity": 97, "duration": 207}, {"note": 75, "velocity": 97, "duration": 70}, {"note": 73, "velocity": 100, "duration": 344}, {"note": 71, "velocity": 97, "duration": 474}, {"note": 68, "velocity": 97, "duration": 108}, {"note": 69, "velocity": 94, "duration": 83}, {"note": 71, "velocity": 104, "duration": 135}, {"note": 69, "velocity": 99, "duration": 128}, {"note": 68, "velocity": 95, "duration": 135}, {"note": 69, "velocity": 94, "duration": 119}, {"note": 68, "velocity": 95, "duration": 153}, {"note": 69, "velocity": 94, "duration": 100}, {"note": 71, "velocity": 95, "duration": 125}, {"note": 69, "velocity": 94, "duration": 131}, {"note": 68, "velocity": 97, "duration": 139}, {"note": 69, "velocity": 96, "duration": 164}, {"note": 0, "velocity": 0, "duration": 102}, {"note": 68, "velocity": 102, "duration": 118}, {"note": 69, "velocity": 94, "duration": 76}, {"note": 73, "velocity": 100, "duration": 212}, {"note": 71, "velocity": 97, "duration": 70}, {"note": 73, "velocity": 97, "duration": 283}, {"note": 0, "velocity": 0, "duration": 77}, {"note": 71, "velocity": 99, "duration": 1041}, {"note": 0, "velocity": 0, "duration": 159}, {"note": 76, "velocity": 100, "duration": 388}, {"note": 0, "velocity": 0, "duration": 92}, {"note": 78, "velocity": 97, "duration": 391}, {"note": 0, "velocity": 0, "duration": 89}, {"note": 80, "velocity": 99, "duration": 193}, {"note": 81, "velocity": 94, "duration": 67}, {"note": 80, "velocity": 99, "duration": 368}, {"note": 78, "velocity": 94, "duration": 200}, {"note": 76, "velocity": 99, "duration": 530}, {"note": 0, "velocity": 0, "duration": 190}, {"note": 76, "velocity": 95, "duration": 175}, {"note": 0, "velocity": 0, "duration": 65}, {"note": 75, "velocity": 97, "duration": 182}, {"note": 76, "velocity": 99, "duration": 96}, {"note": 78, "velocity": 97, "duration": 316}, {"note": 75, "velocity": 97, "duration": 226}, {"note": 76, "velocity": 98, "duration": 535}, {"note": 0, "velocity": 0, "duration": 185}, {"note": 76, "velocity": 99, "duration": 180}, {"note": 75, "velocity": 97, "duration": 189}, {"note": 76, "velocity": 97, "duration": 70}, {"note": 75, "velocity": 100, "duration": 191}, {"note": 73, "velocity": 95, "duration": 81}, {"note": 71, "velocity": 100, "duration": 233}, {"note": 76, "velocity": 99, "duration": 490}, {"note": 0, "velocity": 0, "duration": 230}, {"note": 73, "velocity": 93, "duration": 67}, {"note": 73, "velocity": 93, "duration": 89}, {"note": 71, "velocity": 104, "duration": 212}, {"note": 75, "velocity": 99, "duration": 59}, {"note": 0, "velocity": 0, "duration": 61}, {"note": 76, "velocity": 85, "duration": 300}, {"note": 0, "velocity": 0, "duration": 186}, {"note": 71, "velocity": 107, "duration": 85}, {"note": 73, "velocity": 99, "duration": 125}, {"note": 75, "velocity": 96, "duration": 97}, {"note": 76, "velocity": 97, "duration": 89}, {"note": 0, "velocity": 0, "duration": 67}, {"note": 76, "velocity": 100, "duration": 128}, {"note": 75, "velocity": 100, "duration": 147}, {"note": 73, "velocity": 94, "duration": 112}, {"note": 76, "velocity": 98, "duration": 156}, {"note": 0, "velocity": 0, "duration": 72}, {"note": 76, "velocity": 104, "duration": 224}, {"note": 71, "velocity": 104, "duration": 146}, {"note": 73, "velocity": 97, "duration": 129}, {"note": 0, "velocity": 0, "duration": 111}, {"note": 75, "velocity": 104, "duration": 106}, {"note": 76, "velocity": 99, "duration": 530}, {"note": 0, "velocity": 0, "duration": 190}, {"note": 76, "velocity": 95, "duration": 175}, {"note": 0, "velocity": 0, "duration": 65}, {"note": 75, "velocity": 97, "duration": 182}, {"note": 76, "velocity": 99, "duration": 96}, {"note": 78, "velocity": 97, "duration": 316}, {"note": 75, "velocity": 97, "duration": 226}, {"note": 76, "velocity": 98, "duration": 535}, {"note": 0, "velocity": 0, "duration": 185}, {"note": 76, "velocity": 99, "duration": 180}, {"note": 75, "velocity": 97, "duration": 189}, {"note": 76, "velocity": 97, "duration": 70}, {"note": 75, "velocity": 100, "duration": 191}, {"note": 73, "velocity": 95, "duration": 81}, {"note": 71, "velocity": 100, "duration": 233}, {"note": 76, "velocity": 99, "duration": 490}, {"note": 0, "velocity": 0, "duration": 230}, {"note": 73, "velocity": 93, "duration": 67}, {"note": 73, "velocity": 93, "duration": 89}, {"note": 71, "velocity": 104, "duration": 212}, {"note": 75, "velocity": 99, "duration": 59}, {"note": 0, "velocity": 0, "duration": 61}, {"note": 76, "velocity": 85, "duration": 300}, {"note": 0, "velocity": 0, "duration": 186}, {"note": 71, "velocity": 107, "duration": 85}, {"note": 73, "velocity": 99, "duration": 125}, {"note": 0, "velocity": 0, "duration": 111}, {"note": 76, "velocity": 97, "duration": 75}, {"note": 76, "velocity": 96, "duration": 304}, {"note": 73, "velocity": 97, "duration": 67}, {"note": 73, "velocity": 95, "duration": 78}, {"note": 76, "velocity": 100, "duration": 160}, {"note": 0, "velocity": 0, "duration": 80}, {"note": 76, "velocity": 97, "duration": 202}, {"note": 75, "velocity": 104, "duration": 132}, {"note": 76, "velocity": 102, "duration": 76}, {"note": 78, "velocity": 95, "duration": 159}, {"note": 0, "velocity": 0, "duration": 81}, {"note": 78, "velocity": 99, "duration": 219}, {"note": 76, "velocity": 104, "duration": 1591}, {"note": 0, "velocity": 0, "duration": 89}, {"note": 77, "velocity": 99, "duration": 530}, {"note": 0, "velocity": 0, "duration": 190}, {"note": 77, "velocity": 95, "duration": 175}, {"note": 0, "velocity": 0, "duration": 65}, {"note": 76, "velocity": 97, "duration": 182}, {"note": 77, "velocity": 99, "duration": 96}, {"note": 79, "velocity": 97, "duration": 316}, {"note": 76, "velocity": 97, "duration": 226}, {"note": 77, "velocity": 98, "duration": 535}, {"note": 0, "velocity": 0, "duration": 185}, {"note": 77, "velocity": 99, "duration": 180}, {"note": 76, "velocity": 97, "duration": 189}, {"note": 77, "velocity": 97, "duration": 70}, {"note": 76, "velocity": 100, "duration": 191}, {"note": 74, "velocity": 95, "duration": 81}, {"note": 72, "velocity": 100, "duration": 233}, {"note": 77, "velocity": 99, "duration": 490}, {"note": 0, "velocity": 0, "duration": 230}, {"note": 74, "velocity": 93, "duration": 67}, {"note": 74, "velocity": 93, "duration": 89}, {"note": 72, "velocity": 104, "duration": 212}, {"note": 76, "velocity": 99, "duration": 59}, {"note": 0, "velocity": 0, "duration": 61}, {"note": 77, "velocity": 85, "duration": 300}, {"note": 0, "velocity": 0, "duration": 186}, {"note": 72, "velocity": 107, "duration": 85}, {"note": 74, "velocity": 99, "duration": 125}, {"note": 76, "velocity": 96, "duration": 97}, {"note": 77, "velocity": 97, "duration": 89}, {"note": 0, "velocity": 0, "duration": 67}, {"note": 77, "velocity": 100, "duration": 128}, {"note": 76, "velocity": 100, "duration": 147}, {"note": 74, "velocity": 94, "duration": 112}, {"note": 77, "velocity": 98, "duration": 156}, {"note": 0, "velocity": 0, "duration": 72}, {"note": 77, "velocity": 104, "duration": 224}, {"note": 72, "velocity": 104, "duration": 146}, {"note": 74, "velocity": 97, "duration": 129}, {"note": 0, "velocity": 0, "duration": 111}, {"note": 76, "velocity": 104, "duration": 106}, {"note": 77, "velocity": 99, "duration": 530}, {"note": 0, "velocity": 0, "duration": 190}, {"note": 77, "velocity": 95, "duration": 175}, {"note": 0, "velocity": 0, "duration": 65}, {"note": 76, "velocity": 97, "duration": 182}, {"note": 77, "velocity": 99, "duration": 96}, {"note": 79, "velocity": 97, "duration": 316}, {"note": 76, "velocity": 97, "duration": 226}, {"note": 77, "velocity": 98, "duration": 535}, {"note": 0, "velocity": 0, "duration": 185}, {"note": 77, "velocity": 99, "duration": 180}, {"note": 76, "velocity": 97, "duration": 189}, {"note": 77, "velocity": 97, "duration": 70}, {"note": 76, "velocity": 100, "duration": 191}, {"note": 74, "velocity": 95, "duration": 81}, {"note": 72, "velocity": 100, "duration": 233}, {"note": 77, "velocity": 99, "duration": 490}, {"note": 0, "velocity": 0, "duration": 230}, {"note": 74, "velocity": 93, "duration": 67}, {"note": 74, "velocity": 93, "duration": 89}, {"note": 72, "velocity": 104, "duration": 212}, {"note": 76, "velocity": 99, "duration": 59}, {"note": 0, "velocity": 0, "duration": 61}, {"note": 77, "velocity": 85, "duration": 300}, {"note": 0, "velocity": 0, "duration": 186}, {"note": 72, "velocity": 107, "duration": 85}, {"note": 74, "velocity": 99, "duration": 125}, {"note": 0, "velocity": 0, "duration": 111}, {"note": 77, "velocity": 97, "duration": 75}, {"note": 77, "velocity": 96, "duration": 304}, {"note": 74, "velocity": 97, "duration": 67}, {"note": 74, "velocity": 95, "duration": 78}, {"note": 77, "velocity": 100, "duration": 160}, {"note": 0, "velocity": 0, "duration": 80}, {"note": 77, "velocity": 97, "duration": 202}, {"note": 76, "velocity": 104, "duration": 132}, {"note": 77, "velocity": 102, "duration": 76}, {"note": 79, "velocity": 95, "duration": 159}, {"note": 0, "velocity": 0, "duration": 81}, {"note": 79, "velocity": 99, "duration": 219}, {"note": 77, "velocity": 104, "duration": 1591}]]