[[{"note": 56, "velocity": 90, "duration": 239}, {"note": 56, "velocity": 91, "duration": 240}, {"note": 67, "velocity": 93, "duration": 240}, {"note": 68, "velocity": 71, "duration": 240}, {"note": 67, "velocity": 90, "duration": 240}, {"note": 68, "velocity": 84, "duration": 228}, {"note": 67, "velocity": 88, "duration": 257}, {"note": 63, "velocity": 91, "duration": 480}, {"note": 56, "velocity": 87, "duration": 1919}, {"note": 56, "velocity": 88, "duration": 240}, {"note": 67, "velocity": 90, "duration": 240}, {"note": 68, "velocity": 85, "duration": 240}, {"note": 67, "velocity": 91, "duration": 240}, {"note": 68, "velocity": 87, "duration": 240}, {"note": 67, "velocity": 93, "duration": 240}, {"note": 63, "velocity": 95, "duration": 240}, {"note": 60, "velocity": 90, "duration": 240}, {"note": 65, "velocity": 87, "duration": 2400}, {"note": 68, "velocity": 82, "duration": 239}, {"note": 68, "velocity": 88, "duration": 240}, {"note": 65, "velocity": 90, "duration": 240}, {"note": 68, "velocity": 88, "duration": 240}, {"note": 70, "velocity": 87, "duration": 240}, {"note": 72, "velocity": 87, "duration": 240}, {"note": 68, "velocity": 89, "duration": 960}, {"note": 65, "velocity": 89, "duration": 240}, {"note": 68, "velocity": 89, "duration": 240}, {"note": 70, "velocity": 87, "duration": 240}, {"note": 72, "velocity": 89, "duration": 240}, {"note": 73, "velocity": 88, "duration": 960}, {"note": 70, "velocity": 87, "duration": 239}, {"note": 70, "velocity": 87, "duration": 240}, {"note": 68, "velocity": 86, "duration": 240}, {"note": 67, "velocity": 85, "duration": 239}, {"note": 67, "velocity": 87, "duration": 480}, {"note": 63, "velocity": 88, "duration": 1200}, {"note": 56, "velocity": 90, "duration": 239}, {"note": 56, "velocity": 91, "duration": 240}, {"note": 67, "velocity": 93, "duration": 240}, {"note": 68, "velocity": 71, "duration": 240}, {"note": 67, "velocity": 90, "duration": 240}, {"note": 68, "velocity": 84, "duration": 228}, {"note": 67, "velocity": 88, "duration": 257}, {"note": 63, "velocity": 91, "duration": 240}, {"note": 58, "velocity": 91, "duration": 240}, {"note": 56, "velocity": 87, "duration": 1919}, {"note": 56, "velocity": 88, "duration": 240}, {"note": 67, "velocity": 90, "duration": 240}, {"note": 68, "velocity": 85, "duration": 240}, {"note": 67, "velocity": 91, "duration": 240}, {"note": 68, "velocity": 87, "duration": 240}, {"note": 70, "velocity": 93, "duration": 240}, {"note": 72, "velocity": 95, "duration": 240}, {"note": 65, "velocity": 90, "duration": 240}, {"note": 68, "velocity": 87, "duration": 2399}, {"note": 68, "velocity": 82, "duration": 239}, {"note": 68, "velocity": 88, "duration": 240}, {"note": 65, "velocity": 90, "duration": 240}, {"note": 68, "velocity": 88, "duration": 240}, {"note": 70, "velocity": 87, "duration": 240}, {"note": 72, "velocity": 87, "duration": 240}, {"note": 68, "velocity": 89, "duration": 1199}, {"note": 68, "velocity": 89, "duration": 240}, {"note": 70, "velocity": 87, "duration": 240}, {"note": 72, "velocity": 89, "duration": 240}, {"note": 73, "velocity": 88, "duration": 960}, {"note": 68, "velocity": 86, "duration": 239}, {"note": 68, "velocity": 90, "duration": 240}, {"note": 70, "velocity": 87, "duration": 240}, {"note": 72, "velocity": 87, "duration": 239}, {"note": 72, "velocity": 88, "duration": 480}, {"note": 70, "velocity": 89, "duration": 2640}, {"note": 68, "velocity": 83, "duration": 480}, {"note": 70, "velocity": 88, "duration": 480}, {"note": 77, "velocity": 93, "duration": 240}, {"note": 75, "velocity": 87, "duration": 239}, {"note": 75, "velocity": 90, "duration": 240}, {"note": 73, "velocity": 87, "duration": 119}, {"note": 73, "velocity": 88, "duration": 360}, {"note": 72, "velocity": 88, "duration": 240}, {"note": 68, "velocity": 88, "duration": 240}, {"note": 77, "velocity": 90, "duration": 480}, {"note": 75, "velocity": 90, "duration": 1200}, {"note": 68, "velocity": 92, "duration": 240}, {"note": 70, "velocity": 87, "duration": 240}, {"note": 77, "velocity": 93, "duration": 240}, {"note": 75, "velocity": 88, "duration": 239}, {"note": 75, "velocity": 93, "duration": 240}, {"note": 73, "velocity": 87, "duration": 119}, {"note": 73, "velocity": 88, "duration": 360}, {"note": 72, "velocity": 89, "duration": 240}, {"note": 70, "velocity": 86, "duration": 240}, {"note": 68, "velocity": 87, "duration": 240}, {"note": 67, "velocity": 87, "duration": 240}, {"note": 72, "velocity": 86, "duration": 239}, {"note": 72, "velocity": 87, "duration": 960}, {"note": 68, "velocity": 86, "duration": 240}, {"note": 67, "velocity": 92, "duration": 240}, {"note": 65, "velocity": 93, "duration": 480}, {"note": 77, "velocity": 93, "duration": 480}, {"note": 75, "velocity": 88, "duration": 480}, {"note": 72, "velocity": 89, "duration": 240}, {"note": 73, "velocity": 87, "duration": 240}, {"note": 75, "velocity": 90, "duration": 480}, {"note": 72, "velocity": 88, "duration": 480}, {"note": 68, "velocity": 87, "duration": 480}, {"note": 65, "velocity": 90, "duration": 240}, {"note": 68, "velocity": 86, "duration": 240}, {"note": 73, "velocity": 92, "duration": 240}, {"note": 72, "velocity": 90, "duration": 240}, {"note": 68, "velocity": 88, "duration": 239}, {"note": 68, "velocity": 89, "duration": 480}, {"note": 72, "velocity": 88, "duration": 480}, {"note": 70, "velocity": 89, "duration": 1200}, {"note": 68, "velocity": 83, "duration": 480}, {"note": 70, "velocity": 88, "duration": 480}, {"note": 77, "velocity": 93, "duration": 240}, {"note": 75, "velocity": 87, "duration": 239}, {"note": 75, "velocity": 90, "duration": 240}, {"note": 73, "velocity": 87, "duration": 119}, {"note": 73, "velocity": 88, "duration": 360}, {"note": 72, "velocity": 88, "duration": 240}, {"note": 70, "velocity": 88, "duration": 240}, {"note": 68, "velocity": 90, "duration": 240}, {"note": 70, "velocity": 90, "duration": 120}, {"note": 75, "velocity": 90, "duration": 240}, {"note": 75, "velocity": 90, "duration": 1080}, {"note": 68, "velocity": 92, "duration": 240}, {"note": 70, "velocity": 87, "duration": 240}, {"note": 77, "velocity": 93, "duration": 240}, {"note": 75, "velocity": 88, "duration": 239}, {"note": 75, "velocity": 93, "duration": 240}, {"note": 73, "velocity": 87, "duration": 119}, {"note": 73, "velocity": 88, "duration": 360}, {"note": 72, "velocity": 89, "duration": 240}, {"note": 70, "velocity": 86, "duration": 240}, {"note": 68, "velocity": 87, "duration": 240}, {"note": 67, "velocity": 87, "duration": 240}, {"note": 72, "velocity": 86, "duration": 239}, {"note": 72, "velocity": 87, "duration": 960}, {"note": 68, "velocity": 86, "duration": 240}, {"note": 67, "velocity": 92, "duration": 240}, {"note": 65, "velocity": 93, "duration": 480}, {"note": 73, "velocity": 93, "duration": 479}, {"note": 73, "velocity": 88, "duration": 480}, {"note": 63, "velocity": 89, "duration": 240}, {"note": 65, "velocity": 87, "duration": 240}, {"note": 72, "velocity": 90, "duration": 480}, {"note": 70, "velocity": 88, "duration": 480}, {"note": 68, "velocity": 87, "duration": 480}, {"note": 65, "velocity": 90, "duration": 240}, {"note": 68, "velocity": 86, "duration": 240}, {"note": 73, "velocity": 92, "duration": 240}, {"note": 72, "velocity": 90, "duration": 240}, {"note": 68, "velocity": 88, "duration": 239}, {"note": 68, "velocity": 89, "duration": 480}, {"note": 65, "velocity": 88, "duration": 480}, {"note": 70, "velocity": 89, "duration": 1440}, {"note": 68, "velocity": 89, "duration": 240}, {"note": 67, "velocity": 86, "duration": 240}, {"note": 68, "velocity": 87, "duration": 7440}, {"note": 56, "velocity": 90, "duration": 239}, {"note": 56, "velocity": 91, "duration": 240}, {"note": 67, "velocity": 93, "duration": 240}, {"note": 68, "velocity": 71, "duration": 240}, {"note": 67, "velocity": 90, "duration": 240}, {"note": 68, "velocity": 84, "duration": 228}, {"note": 67, "velocity": 88, "duration": 257}, {"note": 63, "velocity": 91, "duration": 240}, {"note": 58, "velocity": 91, "duration": 240}, {"note": 56, "velocity": 87, "duration": 1919}, {"note": 56, "velocity": 88, "duration": 240}, {"note": 67, "velocity": 90, "duration": 240}, {"note": 68, "velocity": 85, "duration": 240}, {"note": 67, "velocity": 91, "duration": 240}, {"note": 68, "velocity": 87, "duration": 240}, {"note": 70, "velocity": 93, "duration": 240}, {"note": 72, "velocity": 95, "duration": 240}, {"note": 65, "velocity": 90, "duration": 240}, {"note": 68, "velocity": 87, "duration": 2399}, {"note": 68, "velocity": 82, "duration": 239}, {"note": 68, "velocity": 88, "duration": 240}, {"note": 65, "velocity": 90, "duration": 240}, {"note": 68, "velocity": 88, "duration": 240}, {"note": 70, "velocity": 87, "duration": 240}, {"note": 72, "velocity": 87, "duration": 240}, {"note": 68, "velocity": 89, "duration": 1199}, {"note": 68, "velocity": 89, "duration": 240}, {"note": 70, "velocity": 87, "duration": 240}, {"note": 72, "velocity": 89, "duration": 240}, {"note": 73, "velocity": 88, "duration": 960}, {"note": 68, "velocity": 86, "duration": 239}, {"note": 68, "velocity": 90, "duration": 240}, {"note": 70, "velocity": 87, "duration": 240}, {"note": 72, "velocity": 87, "duration": 239}, {"note": 72, "velocity": 88, "duration": 480}, {"note": 70, "velocity": 89, "duration": 2640}, {"note": 68, "velocity": 83, "duration": 480}, {"note": 70, "velocity": 88, "duration": 480}, {"note": 77, "velocity": 93, "duration": 240}, {"note": 75, "velocity": 87, "duration": 239}, {"note": 75, "velocity": 90, "duration": 240}, {"note": 73, "velocity": 87, "duration": 119}, {"note": 73, "velocity": 88, "duration": 360}, {"note": 72, "velocity": 88, "duration": 240}, {"note": 68, "velocity": 88, "duration": 240}, {"note": 77, "velocity": 90, "duration": 480}, {"note": 75, "velocity": 90, "duration": 1200}, {"note": 68, "velocity": 92, "duration": 240}, {"note": 70, "velocity": 87, "duration": 240}, {"note": 77, "velocity": 93, "duration": 240}, {"note": 75, "velocity": 88, "duration": 239}, {"note": 75, "velocity": 93, "duration": 240}, {"note": 73, "velocity": 87, "duration": 119}, {"note": 73, "velocity": 88, "duration": 360}, {"note": 72, "velocity": 89, "duration": 240}, {"note": 70, "velocity": 86, "duration": 240}, {"note": 68, "velocity": 87, "duration": 240}, {"note": 67, "velocity": 87, "duration": 240}, {"note": 72, "velocity": 86, "duration": 239}, {"note": 72, "velocity": 87, "duration": 960}, {"note": 68, "velocity": 86, "duration": 240}, {"note": 67, "velocity": 92, "duration": 240}, {"note": 65, "velocity": 93, "duration": 480}, {"note": 77, "velocity": 93, "duration": 480}, {"note": 75, "velocity": 88, "duration": 480}, {"note": 72, "velocity": 89, "duration": 240}, {"note": 73, "velocity": 87, "duration": 240}, {"note": 75, "velocity": 90, "duration": 480}, {"note": 72, "velocity": 88, "duration": 480}, {"note": 68, "velocity": 87, "duration": 480}, {"note": 65, "velocity": 90, "duration": 240}, {"note": 68, "velocity": 86, "duration": 240}, {"note": 73, "velocity": 92, "duration": 240}, {"note": 72, "velocity": 90, "duration": 240}, {"note": 68, "velocity": 88, "duration": 239}, {"note": 68, "velocity": 89, "duration": 480}, {"note": 72, "velocity": 88, "duration": 480}, {"note": 70, "velocity": 89, "duration": 1200}, {"note": 68, "velocity": 83, "duration": 480}, {"note": 70, "velocity": 88, "duration": 480}, {"note": 77, "velocity": 93, "duration": 240}, {"note": 75, "velocity": 87, "duration": 239}, {"note": 75, "velocity": 90, "duration": 240}, {"note": 73, "velocity": 87, "duration": 119}, {"note": 73, "velocity": 88, "duration": 360}, {"note": 72, "velocity": 88, "duration": 240}, {"note": 70, "velocity": 88, "duration": 240}, {"note": 68, "velocity": 90, "duration": 240}, {"note": 70, "velocity": 90, "duration": 120}, {"note": 75, "velocity": 90, "duration": 240}, {"note": 75, "velocity": 90, "duration": 1080}, {"note": 68, "velocity": 92, "duration": 240}, {"note": 70, "velocity": 87, "duration": 240}, {"note": 77, "velocity": 93, "duration": 240}, {"note": 75, "velocity": 88, "duration": 239}, {"note": 75, "velocity": 93, "duration": 240}, {"note": 73, "velocity": 87, "duration": 119}, {"note": 73, "velocity": 88, "duration": 360}, {"note": 72, "velocity": 89, "duration": 240}, {"note": 70, "velocity": 86, "duration": 240}, {"note": 68, "velocity": 87, "duration": 240}, {"note": 67, "velocity": 87, "duration": 240}, {"note": 72, "velocity": 86, "duration": 239}, {"note": 72, "velocity": 87, "duration": 960}, {"note": 68, "velocity": 86, "duration": 240}, {"note": 67, "velocity": 92, "duration": 240}, {"note": 65, "velocity": 93, "duration": 480}, {"note": 73, "velocity": 93, "duration": 479}, {"note": 73, "velocity": 88, "duration": 480}, {"note": 63, "velocity": 89, "duration": 240}, {"note": 65, "velocity": 87, "duration": 240}, {"note": 72, "velocity": 90, "duration": 480}, {"note": 70, "velocity": 88, "duration": 480}, {"note": 68, "velocity": 87, "duration": 480}, {"note": 65, "velocity": 90, "duration": 240}, {"note": 68, "velocity": 86, "duration": 240}, {"note": 73, "velocity": 92, "duration": 240}, {"note": 72, "velocity": 90, "duration": 240}, {"note": 68, "velocity": 88, "duration": 239}, {"note": 68, "velocity": 89, "duration": 480}, {"note": 65, "velocity": 88, "duration": 480}, {"note": 70, "velocity": 89, "duration": 1440}, {"note": 68, "velocity": 89, "duration": 240}, {"note": 67, "velocity": 86, "duration": 240}, {"note": 68, "velocity": 87, "duration": 8879}, {"note": 68, "velocity": 83, "duration": 480}, {"note": 70, "velocity": 88, "duration": 480}, {"note": 77, "velocity": 93, "duration": 240}, {"note": 75, "velocity": 87, "duration": 239}, {"note": 75, "velocity": 90, "duration": 240}, {"note": 73, "velocity": 87, "duration": 119}, {"note": 73, "velocity": 88, "duration": 360}, {"note": 72, "velocity": 88, "duration": 240}, {"note": 70, "velocity": 88, "duration": 240}, {"note": 68, "velocity": 90, "duration": 240}, {"note": 70, "velocity": 90, "duration": 120}, {"note": 75, "velocity": 90, "duration": 240}, {"note": 75, "velocity": 90, "duration": 1080}, {"note": 68, "velocity": 92, "duration": 240}, {"note": 70, "velocity": 87, "duration": 240}, {"note": 77, "velocity": 93, "duration": 240}, {"note": 75, "velocity": 88, "duration": 239}, {"note": 75, "velocity": 93, "duration": 240}, {"note": 73, "velocity": 87, "duration": 119}, {"note": 73, "velocity": 88, "duration": 360}, {"note": 72, "velocity": 89, "duration": 240}, {"note": 70, "velocity": 86, "duration": 240}, {"note": 68, "velocity": 87, "duration": 240}, {"note": 67, "velocity": 87, "duration": 240}, {"note": 72, "velocity": 86, "duration": 239}, {"note": 72, "velocity": 87, "duration": 960}, {"note": 68, "velocity": 86, "duration": 240}, {"note": 67, "velocity": 92, "duration": 240}, {"note": 65, "velocity": 93, "duration": 480}, {"note": 73, "velocity": 93, "duration": 479}, {"note": 73, "velocity": 88, "duration": 480}, {"note": 63, "velocity": 89, "duration": 240}, {"note": 65, "velocity": 87, "duration": 240}, {"note": 72, "velocity": 90, "duration": 480}, {"note": 70, "velocity": 88, "duration": 480}, {"note": 68, "velocity": 87, "duration": 480}, {"note": 65, "velocity": 90, "duration": 240}, {"note": 68, "velocity": 86, "duration": 240}, {"note": 73, "velocity": 92, "duration": 240}, {"note": 72, "velocity": 90, "duration": 240}, {"note": 68, "velocity": 88, "duration": 239}, {"note": 68, "velocity": 89, "duration": 480}, {"note": 65, "velocity": 88, "duration": 480}, {"note": 70, "velocity": 89, "duration": 1440}, {"note": 68, "velocity": 89, "duration": 240}, {"note": 67, "velocity": 86, "duration": 240}, {"note": 68, "velocity": 87, "duration": 2371}]]