[[{"note": 80, "velocity": 94, "duration": 173}, {"note": 0, "velocity": 0, "duration": 67}, {"note": 79, "velocity": 100, "duration": 165}, {"note": 0, "velocity": 0, "duration": 75}, {"note": 77, "velocity": 97, "duration": 196}, {"note": 75, "velocity": 98, "duration": 90}, {"note": 72, "velocity": 97, "duration": 274}, {"note": 0, "velocity": 0, "duration": 86}, {"note": 70, "velocity": 93, "duration": 173}, {"note": 0, "velocity": 0, "duration": 67}, {"note": 72, "velocity": 93, "duration": 194}, {"note": 75, "velocity": 98, "duration": 80}, {"note": 72, "velocity": 95, "duration": 1068}, {"note": 0, "velocity": 0, "duration": 972}, {"note": 80, "velocity": 97, "duration": 183}, {"note": 79, "velocity": 98, "duration": 61}, {"note": 79, "velocity": 107, "duration": 88}, {"note": 77, "velocity": 102, "duration": 217}, {"note": 75, "velocity": 96, "duration": 77}, {"note": 72, "velocity": 93, "duration": 330}, {"note": 72, "velocity": 93, "duration": 209}, {"note": 72, "velocity": 92, "duration": 120}, {"note": 77, "velocity": 98, "duration": 360}, {"note": 75, "velocity": 102, "duration": 1403}, {"note": 0, "velocity": 0, "duration": 517}, {"note": 68, "velocity": 76, "duration": 65}, {"note": 68, "velocity": 90, "duration": 142}, {"note": 0, "velocity": 0, "duration": 98}, {"note": 68, "velocity": 86, "duration": 72}, {"note": 68, "velocity": 91, "duration": 221}, {"note": 65, "velocity": 93, "duration": 225}, {"note": 68, "velocity": 91, "duration": 489}, {"note": 0, "velocity": 0, "duration": 231}, {"note": 77, "velocity": 93, "duration": 181}, {"note": 75, "velocity": 100, "duration": 395}, {"note": 0, "velocity": 0, "duration": 85}, {"note": 75, "velocity": 96, "duration": 354}, {"note": 77, "velocity": 88, "duration": 132}, {"note": 72, "velocity": 97, "duration": 760}, {"note": 0, "velocity": 0, "duration": 200}, {"note": 72, "velocity": 92, "duration": 97}, {"note": 70, "velocity": 87, "duration": 67}, {"note": 70, "velocity": 90, "duration": 64}, {"note": 70, "velocity": 89, "duration": 882}, {"note": 0, "velocity": 0, "duration": 78}, {"note": 77, "velocity": 87, "duration": 64}, {"note": 77, "velocity": 95, "duration": 194}, {"note": 77, "velocity": 94, "duration": 120}, {"note": 72, "velocity": 98, "duration": 138}, {"note": 77, "velocity": 94, "duration": 264}, {"note": 0, "velocity": 0, "duration": 96}, {"note": 75, "velocity": 95, "duration": 1080}, {"note": 0, "velocity": 0, "duration": 480}, {"note": 80, "velocity": 94, "duration": 173}, {"note": 0, "velocity": 0, "duration": 67}, {"note": 79, "velocity": 100, "duration": 165}, {"note": 0, "velocity": 0, "duration": 75}, {"note": 77, "velocity": 97, "duration": 196}, {"note": 75, "velocity": 98, "duration": 90}, {"note": 72, "velocity": 97, "duration": 274}, {"note": 0, "velocity": 0, "duration": 86}, {"note": 70, "velocity": 93, "duration": 173}, {"note": 0, "velocity": 0, "duration": 67}, {"note": 72, "velocity": 93, "duration": 194}, {"note": 75, "velocity": 98, "duration": 80}, {"note": 72, "velocity": 95, "duration": 1068}, {"note": 0, "velocity": 0, "duration": 972}, {"note": 80, "velocity": 97, "duration": 183}, {"note": 79, "velocity": 98, "duration": 61}, {"note": 79, "velocity": 107, "duration": 88}, {"note": 77, "velocity": 102, "duration": 217}, {"note": 75, "velocity": 96, "duration": 77}, {"note": 72, "velocity": 93, "duration": 330}, {"note": 72, "velocity": 93, "duration": 209}, {"note": 72, "velocity": 92, "duration": 120}, {"note": 77, "velocity": 98, "duration": 360}, {"note": 75, "velocity": 102, "duration": 1403}, {"note": 0, "velocity": 0, "duration": 517}, {"note": 68, "velocity": 76, "duration": 65}, {"note": 68, "velocity": 90, "duration": 142}, {"note": 0, "velocity": 0, "duration": 98}, {"note": 68, "velocity": 86, "duration": 72}, {"note": 68, "velocity": 91, "duration": 221}, {"note": 65, "velocity": 93, "duration": 225}, {"note": 68, "velocity": 91, "duration": 489}, {"note": 0, "velocity": 0, "duration": 231}, {"note": 77, "velocity": 93, "duration": 181}, {"note": 75, "velocity": 100, "duration": 395}, {"note": 0, "velocity": 0, "duration": 85}, {"note": 75, "velocity": 96, "duration": 354}, {"note": 77, "velocity": 88, "duration": 132}, {"note": 72, "velocity": 97, "duration": 760}, {"note": 0, "velocity": 0, "duration": 200}, {"note": 72, "velocity": 92, "duration": 97}, {"note": 70, "velocity": 87, "duration": 67}, {"note": 70, "velocity": 90, "duration": 64}, {"note": 0, "velocity": 0, "duration": 176}, {"note": 70, "velocity": 91, "duration": 216}, {"note": 68, "velocity": 91, "duration": 75}, {"note": 70, "velocity": 92, "duration": 480}, {"note": 0, "velocity": 0, "duration": 120}, {"note": 72, "velocity": 94, "duration": 187}, {"note": 70, "velocity": 92, "duration": 227}, {"note": 68, "velocity": 92, "duration": 1934}, {"note": 0, "velocity": 0, "duration": 1546}, {"note": 75, "velocity": 102, "duration": 66}, {"note": 75, "velocity": 102, "duration": 62}, {"note": 75, "velocity": 98, "duration": 88}, {"note": 82, "velocity": 93, "duration": 187}, {"note": 80, "velocity": 95, "duration": 161}, {"note": 0, "velocity": 0, "duration": 79}, {"note": 82, "velocity": 96, "duration": 210}, {"note": 80, "velocity": 92, "duration": 79}, {"note": 82, "velocity": 97, "duration": 326}, {"note": 80, "velocity": 98, "duration": 181}, {"note": 82, "velocity": 92, "duration": 91}, {"note": 84, "velocity": 94, "duration": 302}, {"note": 75, "velocity": 102, "duration": 1007}, {"note": 0, "velocity": 0, "duration": 553}, {"note": 72, "velocity": 93, "duration": 70}, {"note": 72, "velocity": 93, "duration": 83}, {"note": 75, "velocity": 100, "duration": 81}, {"note": 82, "velocity": 92, "duration": 164}, {"note": 0, "velocity": 0, "duration": 76}, {"note": 80, "velocity": 92, "duration": 145}, {"note": 0, "velocity": 0, "duration": 95}, {"note": 82, "velocity": 94, "duration": 167}, {"note": 0, "velocity": 0, "duration": 73}, {"note": 80, "velocity": 87, "duration": 69}, {"note": 82, "velocity": 93, "duration": 306}, {"note": 80, "velocity": 97, "duration": 170}, {"note": 0, "velocity": 0, "duration": 70}, {"note": 80, "velocity": 92, "duration": 120}, {"note": 72, "velocity": 92, "duration": 240}, {"note": 0, "velocity": 0, "duration": 120}, {"note": 75, "velocity": 97, "duration": 1415}, {"note": 0, "velocity": 0, "duration": 505}, {"note": 77, "velocity": 94, "duration": 172}, {"note": 0, "velocity": 0, "duration": 68}, {"note": 77, "velocity": 95, "duration": 164}, {"note": 0, "velocity": 0, "duration": 76}, {"note": 77, "velocity": 95, "duration": 178}, {"note": 0, "velocity": 0, "duration": 62}, {"note": 72, "velocity": 97, "duration": 70}, {"note": 72, "velocity": 96, "duration": 655}, {"note": 0, "velocity": 0, "duration": 185}, {"note": 70, "velocity": 95, "duration": 91}, {"note": 68, "velocity": 92, "duration": 75}, {"note": 72, "velocity": 95, "duration": 167}, {"note": 0, "velocity": 0, "duration": 73}, {"note": 75, "velocity": 100, "duration": 158}, {"note": 0, "velocity": 0, "duration": 82}, {"note": 75, "velocity": 96, "duration": 70}, {"note": 77, "velocity": 95, "duration": 308}, {"note": 72, "velocity": 93, "duration": 720}, {"note": 0, "velocity": 0, "duration": 240}, {"note": 72, "velocity": 97, "duration": 94}, {"note": 70, "velocity": 87, "duration": 67}, {"note": 70, "velocity": 91, "duration": 64}, {"note": 70, "velocity": 91, "duration": 67}, {"note": 70, "velocity": 91, "duration": 203}, {"note": 68, "velocity": 90, "duration": 79}, {"note": 70, "velocity": 92, "duration": 281}, {"note": 0, "velocity": 0, "duration": 79}, {"note": 70, "velocity": 92, "duration": 167}, {"note": 0, "velocity": 0, "duration": 73}, {"note": 70, "velocity": 92, "duration": 82}, {"note": 72, "velocity": 93, "duration": 326}, {"note": 68, "velocity": 93, "duration": 1855}, {"note": 0, "velocity": 0, "duration": 11585}, {"note": 80, "velocity": 94, "duration": 173}, {"note": 0, "velocity": 0, "duration": 67}, {"note": 79, "velocity": 100, "duration": 165}, {"note": 0, "velocity": 0, "duration": 75}, {"note": 77, "velocity": 97, "duration": 196}, {"note": 75, "velocity": 98, "duration": 90}, {"note": 72, "velocity": 97, "duration": 274}, {"note": 0, "velocity": 0, "duration": 86}, {"note": 70, "velocity": 93, "duration": 173}, {"note": 0, "velocity": 0, "duration": 67}, {"note": 72, "velocity": 93, "duration": 194}, {"note": 75, "velocity": 98, "duration": 80}, {"note": 72, "velocity": 95, "duration": 1068}, {"note": 0, "velocity": 0, "duration": 972}, {"note": 80, "velocity": 97, "duration": 183}, {"note": 79, "velocity": 98, "duration": 61}, {"note": 79, "velocity": 107, "duration": 88}, {"note": 77, "velocity": 102, "duration": 217}, {"note": 75, "velocity": 96, "duration": 77}, {"note": 72, "velocity": 93, "duration": 330}, {"note": 72, "velocity": 93, "duration": 209}, {"note": 72, "velocity": 92, "duration": 120}, {"note": 77, "velocity": 98, "duration": 360}, {"note": 75, "velocity": 102, "duration": 1403}, {"note": 0, "velocity": 0, "duration": 517}, {"note": 68, "velocity": 76, "duration": 65}, {"note": 68, "velocity": 90, "duration": 142}, {"note": 0, "velocity": 0, "duration": 98}, {"note": 68, "velocity": 86, "duration": 72}, {"note": 68, "velocity": 91, "duration": 221}, {"note": 65, "velocity": 93, "duration": 225}, {"note": 68, "velocity": 91, "duration": 489}, {"note": 0, "velocity": 0, "duration": 231}, {"note": 77, "velocity": 93, "duration": 181}, {"note": 75, "velocity": 100, "duration": 395}, {"note": 0, "velocity": 0, "duration": 85}, {"note": 75, "velocity": 96, "duration": 354}, {"note": 77, "velocity": 88, "duration": 132}, {"note": 72, "velocity": 97, "duration": 760}, {"note": 0, "velocity": 0, "duration": 200}, {"note": 72, "velocity": 92, "duration": 97}, {"note": 70, "velocity": 87, "duration": 67}, {"note": 70, "velocity": 90, "duration": 64}, {"note": 70, "velocity": 89, "duration": 882}, {"note": 0, "velocity": 0, "duration": 78}, {"note": 77, "velocity": 87, "duration": 64}, {"note": 77, "velocity": 95, "duration": 194}, {"note": 77, "velocity": 94, "duration": 120}, {"note": 72, "velocity": 98, "duration": 138}, {"note": 77, "velocity": 94, "duration": 264}, {"note": 0, "velocity": 0, "duration": 96}, {"note": 75, "velocity": 95, "duration": 1080}, {"note": 0, "velocity": 0, "duration": 480}, {"note": 80, "velocity": 94, "duration": 173}, {"note": 0, "velocity": 0, "duration": 67}, {"note": 79, "velocity": 100, "duration": 165}, {"note": 0, "velocity": 0, "duration": 75}, {"note": 77, "velocity": 97, "duration": 196}, {"note": 75, "velocity": 98, "duration": 90}, {"note": 72, "velocity": 97, "duration": 274}, {"note": 0, "velocity": 0, "duration": 86}, {"note": 70, "velocity": 93, "duration": 173}, {"note": 0, "velocity": 0, "duration": 67}, {"note": 72, "velocity": 93, "duration": 194}, {"note": 75, "velocity": 98, "duration": 80}, {"note": 72, "velocity": 95, "duration": 1068}, {"note": 0, "velocity": 0, "duration": 972}, {"note": 80, "velocity": 97, "duration": 183}, {"note": 79, "velocity": 98, "duration": 61}, {"note": 79, "velocity": 107, "duration": 88}, {"note": 77, "velocity": 102, "duration": 217}, {"note": 75, "velocity": 96, "duration": 77}, {"note": 72, "velocity": 93, "duration": 330}, {"note": 72, "velocity": 93, "duration": 209}, {"note": 72, "velocity": 92, "duration": 120}, {"note": 77, "velocity": 98, "duration": 360}, {"note": 75, "velocity": 102, "duration": 1403}, {"note": 0, "velocity": 0, "duration": 517}, {"note": 68, "velocity": 76, "duration": 65}, {"note": 68, "velocity": 90, "duration": 142}, {"note": 0, "velocity": 0, "duration": 98}, {"note": 68, "velocity": 86, "duration": 72}, {"note": 68, "velocity": 91, "duration": 221}, {"note": 65, "velocity": 93, "duration": 225}, {"note": 68, "velocity": 91, "duration": 489}, {"note": 0, "velocity": 0, "duration": 231}, {"note": 77, "velocity": 93, "duration": 181}, {"note": 75, "velocity": 100, "duration": 395}, {"note": 0, "velocity": 0, "duration": 85}, {"note": 75, "velocity": 96, "duration": 354}, {"note": 77, "velocity": 88, "duration": 132}, {"note": 72, "velocity": 97, "duration": 760}, {"note": 0, "velocity": 0, "duration": 200}, {"note": 72, "velocity": 92, "duration": 97}, {"note": 70, "velocity": 87, "duration": 67}, {"note": 70, "velocity": 90, "duration": 64}, {"note": 0, "velocity": 0, "duration": 176}, {"note": 70, "velocity": 91, "duration": 216}, {"note": 68, "velocity": 91, "duration": 75}, {"note": 70, "velocity": 92, "duration": 480}, {"note": 0, "velocity": 0, "duration": 120}, {"note": 72, "velocity": 94, "duration": 187}, {"note": 70, "velocity": 92, "duration": 227}, {"note": 68, "velocity": 92, "duration": 1934}, {"note": 0, "velocity": 0, "duration": 1546}, {"note": 75, "velocity": 102, "duration": 66}, {"note": 75, "velocity": 102, "duration": 62}, {"note": 75, "velocity": 98, "duration": 88}, {"note": 82, "velocity": 93, "duration": 187}, {"note": 80, "velocity": 95, "duration": 161}, {"note": 0, "velocity": 0, "duration": 79}, {"note": 82, "velocity": 96, "duration": 210}, {"note": 80, "velocity": 92, "duration": 79}, {"note": 82, "velocity": 97, "duration": 326}, {"note": 80, "velocity": 98, "duration": 181}, {"note": 82, "velocity": 92, "duration": 91}, {"note": 84, "velocity": 94, "duration": 302}, {"note": 75, "velocity": 102, "duration": 1007}, {"note": 0, "velocity": 0, "duration": 553}, {"note": 72, "velocity": 93, "duration": 70}, {"note": 72, "velocity": 93, "duration": 83}, {"note": 75, "velocity": 100, "duration": 81}, {"note": 82, "velocity": 92, "duration": 164}, {"note": 0, "velocity": 0, "duration": 76}, {"note": 80, "velocity": 92, "duration": 145}, {"note": 0, "velocity": 0, "duration": 95}, {"note": 82, "velocity": 94, "duration": 167}, {"note": 0, "velocity": 0, "duration": 73}, {"note": 80, "velocity": 87, "duration": 69}, {"note": 82, "velocity": 93, "duration": 306}, {"note": 80, "velocity": 97, "duration": 170}, {"note": 0, "velocity": 0, "duration": 70}, {"note": 80, "velocity": 92, "duration": 120}, {"note": 72, "velocity": 92, "duration": 240}, {"note": 0, "velocity": 0, "duration": 120}, {"note": 75, "velocity": 97, "duration": 1415}, {"note": 0, "velocity": 0, "duration": 505}, {"note": 77, "velocity": 94, "duration": 172}, {"note": 0, "velocity": 0, "duration": 68}, {"note": 77, "velocity": 95, "duration": 164}, {"note": 0, "velocity": 0, "duration": 76}, {"note": 77, "velocity": 95, "duration": 178}, {"note": 0, "velocity": 0, "duration": 62}, {"note": 72, "velocity": 97, "duration": 70}, {"note": 72, "velocity": 96, "duration": 655}, {"note": 0, "velocity": 0, "duration": 185}, {"note": 70, "velocity": 95, "duration": 91}, {"note": 68, "velocity": 92, "duration": 75}, {"note": 72, "velocity": 95, "duration": 167}, {"note": 0, "velocity": 0, "duration": 73}, {"note": 75, "velocity": 100, "duration": 158}, {"note": 0, "velocity": 0, "duration": 82}, {"note": 75, "velocity": 96, "duration": 70}, {"note": 77, "velocity": 95, "duration": 308}, {"note": 72, "velocity": 93, "duration": 720}, {"note": 0, "velocity": 0, "duration": 240}, {"note": 72, "velocity": 97, "duration": 94}, {"note": 70, "velocity": 87, "duration": 67}, {"note": 70, "velocity": 91, "duration": 64}, {"note": 70, "velocity": 91, "duration": 67}, {"note": 70, "velocity": 91, "duration": 203}, {"note": 68, "velocity": 90, "duration": 79}, {"note": 70, "velocity": 92, "duration": 281}, {"note": 0, "velocity": 0, "duration": 79}, {"note": 70, "velocity": 92, "duration": 167}, {"note": 0, "velocity": 0, "duration": 73}, {"note": 70, "velocity": 92, "duration": 82}, {"note": 72, "velocity": 93, "duration": 326}, {"note": 68, "velocity": 93, "duration": 1855}, {"note": 0, "velocity": 0, "duration": 1625}, {"note": 75, "velocity": 102, "duration": 66}, {"note": 75, "velocity": 102, "duration": 62}, {"note": 75, "velocity": 98, "duration": 88}, {"note": 82, "velocity": 93, "duration": 187}, {"note": 80, "velocity": 95, "duration": 161}, {"note": 0, "velocity": 0, "duration": 79}, {"note": 82, "velocity": 96, "duration": 210}, {"note": 80, "velocity": 92, "duration": 79}, {"note": 82, "velocity": 97, "duration": 326}, {"note": 80, "velocity": 98, "duration": 181}, {"note": 82, "velocity": 92, "duration": 91}, {"note": 84, "velocity": 94, "duration": 302}, {"note": 75, "velocity": 102, "duration": 1007}, {"note": 0, "velocity": 0, "duration": 553}, {"note": 72, "velocity": 93, "duration": 70}, {"note": 72, "velocity": 93, "duration": 83}, {"note": 75, "velocity": 100, "duration": 81}, {"note": 82, "velocity": 92, "duration": 164}, {"note": 0, "velocity": 0, "duration": 76}, {"note": 80, "velocity": 92, "duration": 145}, {"note": 0, "velocity": 0, "duration": 95}, {"note": 82, "velocity": 94, "duration": 167}, {"note": 0, "velocity": 0, "duration": 73}, {"note": 80, "velocity": 87, "duration": 69}, {"note": 82, "velocity": 93, "duration": 306}, {"note": 80, "velocity": 97, "duration": 170}, {"note": 0, "velocity": 0, "duration": 70}, {"note": 80, "velocity": 92, "duration": 120}, {"note": 72, "velocity": 92, "duration": 240}, {"note": 0, "velocity": 0, "duration": 120}, {"note": 75, "velocity": 97, "duration": 1415}, {"note": 0, "velocity": 0, "duration": 505}, {"note": 77, "velocity": 94, "duration": 172}, {"note": 0, "velocity": 0, "duration": 68}, {"note": 77, "velocity": 95, "duration": 164}, {"note": 0, "velocity": 0, "duration": 76}, {"note": 77, "velocity": 95, "duration": 178}, {"note": 0, "velocity": 0, "duration": 62}, {"note": 72, "velocity": 97, "duration": 70}, {"note": 72, "velocity": 96, "duration": 655}, {"note": 0, "velocity": 0, "duration": 185}, {"note": 70, "velocity": 95, "duration": 91}, {"note": 68, "velocity": 92, "duration": 75}, {"note": 72, "velocity": 95, "duration": 167}, {"note": 0, "velocity": 0, "duration": 73}, {"note": 75, "velocity": 100, "duration": 158}, {"note": 0, "velocity": 0, "duration": 82}, {"note": 75, "velocity": 96, "duration": 70}, {"note": 77, "velocity": 95, "duration": 308}, {"note": 72, "velocity": 93, "duration": 720}, {"note": 0, "velocity": 0, "duration": 240}, {"note": 72, "velocity": 97, "duration": 94}, {"note": 70, "velocity": 87, "duration": 67}, {"note": 70, "velocity": 91, "duration": 64}, {"note": 70, "velocity": 91, "duration": 67}, {"note": 70, "velocity": 91, "duration": 203}, {"note": 68, "velocity": 90, "duration": 79}, {"note": 70, "velocity": 92, "duration": 281}, {"note": 0, "velocity": 0, "duration": 79}, {"note": 70, "velocity": 92, "duration": 167}, {"note": 0, "velocity": 0, "duration": 73}, {"note": 70, "velocity": 92, "duration": 82}, {"note": 72, "velocity": 93, "duration": 326}, {"note": 68, "velocity": 93, "duration": 1855}, {"note": 0, "velocity": 0, "duration": 1625}, {"note": 75, "velocity": 102, "duration": 66}, {"note": 75, "velocity": 102, "duration": 62}, {"note": 75, "velocity": 98, "duration": 88}, {"note": 82, "velocity": 93, "duration": 187}, {"note": 80, "velocity": 95, "duration": 161}, {"note": 0, "velocity": 0, "duration": 79}, {"note": 82, "velocity": 96, "duration": 210}, {"note": 80, "velocity": 92, "duration": 79}, {"note": 82, "velocity": 97, "duration": 326}, {"note": 80, "velocity": 98, "duration": 181}, {"note": 82, "velocity": 92, "duration": 91}, {"note": 84, "velocity": 94, "duration": 302}, {"note": 75, "velocity": 102, "duration": 1007}, {"note": 0, "velocity": 0, "duration": 553}, {"note": 72, "velocity": 93, "duration": 70}, {"note": 72, "velocity": 93, "duration": 83}, {"note": 75, "velocity": 100, "duration": 81}, {"note": 82, "velocity": 92, "duration": 164}, {"note": 0, "velocity": 0, "duration": 76}, {"note": 80, "velocity": 92, "duration": 145}, {"note": 0, "velocity": 0, "duration": 95}, {"note": 82, "velocity": 94, "duration": 167}, {"note": 0, "velocity": 0, "duration": 73}, {"note": 80, "velocity": 87, "duration": 69}, {"note": 82, "velocity": 93, "duration": 306}, {"note": 80, "velocity": 97, "duration": 170}, {"note": 0, "velocity": 0, "duration": 70}, {"note": 80, "velocity": 92, "duration": 120}, {"note": 72, "velocity": 92, "duration": 240}, {"note": 0, "velocity": 0, "duration": 120}, {"note": 75, "velocity": 97, "duration": 1415}]]