[[{"note": 74, "velocity": 95, "duration": 313}, {"note": 0, "velocity": 0, "duration": 167}, {"note": 74, "velocity": 88, "duration": 228}, {"note": 0, "velocity": 0, "duration": 92}, {"note": 77, "velocity": 83, "duration": 96}, {"note": 0, "velocity": 0, "duration": 64}, {"note": 70, "velocity": 88, "duration": 282}, {"note": 0, "velocity": 0, "duration": 198}, {"note": 70, "velocity": 86, "duration": 170}, {"note": 0, "velocity": 0, "duration": 150}, {"note": 74, "velocity": 81, "duration": 113}, {"note": 72, "velocity": 79, "duration": 171}, {"note": 0, "velocity": 0, "duration": 149}, {"note": 72, "velocity": 78, "duration": 108}, {"note": 72, "velocity": 80, "duration": 189}, {"note": 0, "velocity": 0, "duration": 131}, {"note": 74, "velocity": 81, "duration": 126}, {"note": 75, "velocity": 88, "duration": 315}, {"note": 0, "velocity": 0, "duration": 165}, {"note": 72, "velocity": 81, "duration": 166}, {"note": 0, "velocity": 0, "duration": 154}, {"note": 70, "velocity": 88, "duration": 114}, {"note": 69, "velocity": 80, "duration": 289}, {"note": 0, "velocity": 0, "duration": 191}, {"note": 65, "velocity": 83, "duration": 317}, {"note": 0, "velocity": 0, "duration": 163}, {"note": 69, "velocity": 84, "duration": 316}, {"note": 0, "velocity": 0, "duration": 164}, {"note": 65, "velocity": 84, "duration": 261}, {"note": 0, "velocity": 0, "duration": 219}, {"note": 70, "velocity": 85, "duration": 153}, {"note": 0, "velocity": 0, "duration": 167}, {"note": 70, "velocity": 83, "duration": 99}, {"note": 0, "velocity": 0, "duration": 61}, {"note": 70, "velocity": 78, "duration": 182}, {"note": 0, "velocity": 0, "duration": 138}, {"note": 72, "velocity": 79, "duration": 102}, {"note": 74, "velocity": 85, "duration": 480}, {"note": 0, "velocity": 0, "duration": 480}, {"note": 74, "velocity": 95, "duration": 313}, {"note": 0, "velocity": 0, "duration": 167}, {"note": 74, "velocity": 88, "duration": 228}, {"note": 0, "velocity": 0, "duration": 92}, {"note": 77, "velocity": 83, "duration": 96}, {"note": 0, "velocity": 0, "duration": 64}, {"note": 70, "velocity": 88, "duration": 282}, {"note": 0, "velocity": 0, "duration": 198}, {"note": 70, "velocity": 86, "duration": 170}, {"note": 0, "velocity": 0, "duration": 150}, {"note": 74, "velocity": 81, "duration": 113}, {"note": 72, "velocity": 79, "duration": 171}, {"note": 0, "velocity": 0, "duration": 149}, {"note": 72, "velocity": 78, "duration": 108}, {"note": 72, "velocity": 80, "duration": 189}, {"note": 0, "velocity": 0, "duration": 131}, {"note": 74, "velocity": 81, "duration": 126}, {"note": 75, "velocity": 88, "duration": 315}, {"note": 0, "velocity": 0, "duration": 165}, {"note": 72, "velocity": 81, "duration": 166}, {"note": 0, "velocity": 0, "duration": 154}, {"note": 70, "velocity": 88, "duration": 114}, {"note": 69, "velocity": 80, "duration": 289}, {"note": 0, "velocity": 0, "duration": 191}, {"note": 79, "velocity": 84, "duration": 334}, {"note": 0, "velocity": 0, "duration": 146}, {"note": 77, "velocity": 85, "duration": 363}, {"note": 0, "velocity": 0, "duration": 117}, {"note": 69, "velocity": 83, "duration": 277}, {"note": 0, "velocity": 0, "duration": 203}, {"note": 70, "velocity": 83, "duration": 967}, {"note": 0, "velocity": 0, "duration": 953}, {"note": 77, "velocity": 83, "duration": 190}, {"note": 0, "velocity": 0, "duration": 130}, {"note": 75, "velocity": 86, "duration": 115}, {"note": 74, "velocity": 85, "duration": 128}, {"note": 0, "velocity": 0, "duration": 192}, {"note": 72, "velocity": 81, "duration": 113}, {"note": 74, "velocity": 86, "duration": 125}, {"note": 0, "velocity": 0, "duration": 195}, {"note": 74, "velocity": 84, "duration": 120}, {"note": 72, "velocity": 80, "duration": 129}, {"note": 0, "velocity": 0, "duration": 191}, {"note": 70, "velocity": 75, "duration": 589}, {"note": 0, "velocity": 0, "duration": 371}, {"note": 70, "velocity": 80, "duration": 98}, {"note": 0, "velocity": 0, "duration": 62}, {"note": 70, "velocity": 81, "duration": 155}, {"note": 0, "velocity": 0, "duration": 165}, {"note": 72, "velocity": 79, "duration": 97}, {"note": 0, "velocity": 0, "duration": 63}, {"note": 74, "velocity": 90, "duration": 238}, {"note": 0, "velocity": 0, "duration": 242}, {"note": 75, "velocity": 82, "duration": 135}, {"note": 0, "velocity": 0, "duration": 185}, {"note": 75, "velocity": 79, "duration": 100}, {"note": 75, "velocity": 73, "duration": 125}, {"note": 0, "velocity": 0, "duration": 195}, {"note": 75, "velocity": 79, "duration": 103}, {"note": 77, "velocity": 74, "duration": 181}, {"note": 0, "velocity": 0, "duration": 139}, {"note": 75, "velocity": 81, "duration": 113}, {"note": 74, "velocity": 84, "duration": 147}, {"note": 0, "velocity": 0, "duration": 173}, {"note": 72, "velocity": 80, "duration": 704}, {"note": 0, "velocity": 0, "duration": 256}, {"note": 72, "velocity": 83, "duration": 102}, {"note": 72, "velocity": 79, "duration": 153}, {"note": 0, "velocity": 0, "duration": 167}, {"note": 74, "velocity": 83, "duration": 113}, {"note": 75, "velocity": 84, "duration": 267}, {"note": 0, "velocity": 0, "duration": 213}, {"note": 79, "velocity": 83, "duration": 118}, {"note": 0, "velocity": 0, "duration": 202}, {"note": 79, "velocity": 77, "duration": 92}, {"note": 0, "velocity": 0, "duration": 68}, {"note": 79, "velocity": 81, "duration": 1440}, {"note": 77, "velocity": 76, "duration": 410}, {"note": 0, "velocity": 0, "duration": 550}, {"note": 77, "velocity": 81, "duration": 327}, {"note": 0, "velocity": 0, "duration": 153}, {"note": 77, "velocity": 81, "duration": 368}, {"note": 0, "velocity": 0, "duration": 112}, {"note": 74, "velocity": 85, "duration": 1875}, {"note": 0, "velocity": 0, "duration": 1965}, {"note": 77, "velocity": 83, "duration": 190}, {"note": 0, "velocity": 0, "duration": 130}, {"note": 75, "velocity": 86, "duration": 115}, {"note": 74, "velocity": 85, "duration": 128}, {"note": 0, "velocity": 0, "duration": 192}, {"note": 72, "velocity": 81, "duration": 113}, {"note": 74, "velocity": 86, "duration": 125}, {"note": 0, "velocity": 0, "duration": 195}, {"note": 74, "velocity": 84, "duration": 120}, {"note": 72, "velocity": 80, "duration": 129}, {"note": 0, "velocity": 0, "duration": 191}, {"note": 70, "velocity": 75, "duration": 589}, {"note": 0, "velocity": 0, "duration": 371}, {"note": 70, "velocity": 80, "duration": 98}, {"note": 0, "velocity": 0, "duration": 62}, {"note": 70, "velocity": 81, "duration": 155}, {"note": 0, "velocity": 0, "duration": 165}, {"note": 72, "velocity": 79, "duration": 97}, {"note": 0, "velocity": 0, "duration": 63}, {"note": 74, "velocity": 90, "duration": 238}, {"note": 0, "velocity": 0, "duration": 242}, {"note": 75, "velocity": 82, "duration": 135}, {"note": 0, "velocity": 0, "duration": 185}, {"note": 75, "velocity": 79, "duration": 100}, {"note": 75, "velocity": 73, "duration": 125}, {"note": 0, "velocity": 0, "duration": 195}, {"note": 75, "velocity": 79, "duration": 103}, {"note": 77, "velocity": 74, "duration": 181}, {"note": 0, "velocity": 0, "duration": 139}, {"note": 75, "velocity": 81, "duration": 113}, {"note": 74, "velocity": 84, "duration": 147}, {"note": 0, "velocity": 0, "duration": 173}, {"note": 72, "velocity": 80, "duration": 704}, {"note": 0, "velocity": 0, "duration": 256}, {"note": 72, "velocity": 83, "duration": 102}, {"note": 72, "velocity": 79, "duration": 153}, {"note": 0, "velocity": 0, "duration": 167}, {"note": 74, "velocity": 83, "duration": 113}, {"note": 75, "velocity": 84, "duration": 267}, {"note": 0, "velocity": 0, "duration": 213}, {"note": 79, "velocity": 83, "duration": 118}, {"note": 0, "velocity": 0, "duration": 202}, {"note": 79, "velocity": 77, "duration": 92}, {"note": 0, "velocity": 0, "duration": 68}, {"note": 79, "velocity": 81, "duration": 1440}, {"note": 77, "velocity": 76, "duration": 410}, {"note": 0, "velocity": 0, "duration": 550}, {"note": 77, "velocity": 81, "duration": 327}, {"note": 0, "velocity": 0, "duration": 153}, {"note": 69, "velocity": 81, "duration": 368}, {"note": 0, "velocity": 0, "duration": 112}, {"note": 70, "velocity": 85, "duration": 1875}, {"note": 0, "velocity": 0, "duration": 1965}, {"note": 82, "velocity": 85, "duration": 238}, {"note": 0, "velocity": 0, "duration": 242}, {"note": 82, "velocity": 88, "duration": 142}, {"note": 0, "velocity": 0, "duration": 178}, {"note": 82, "velocity": 80, "duration": 80}, {"note": 0, "velocity": 0, "duration": 80}, {"note": 82, "velocity": 81, "duration": 352}, {"note": 0, "velocity": 0, "duration": 128}, {"note": 81, "velocity": 84, "duration": 166}, {"note": 0, "velocity": 0, "duration": 154}, {"note": 79, "velocity": 81, "duration": 92}, {"note": 0, "velocity": 0, "duration": 68}, {"note": 81, "velocity": 81, "duration": 138}, {"note": 0, "velocity": 0, "duration": 182}, {"note": 81, "velocity": 81, "duration": 300}, {"note": 0, "velocity": 0, "duration": 180}, {"note": 81, "velocity": 81, "duration": 103}, {"note": 81, "velocity": 83, "duration": 336}, {"note": 0, "velocity": 0, "duration": 144}, {"note": 79, "velocity": 81, "duration": 211}, {"note": 0, "velocity": 0, "duration": 109}, {"note": 77, "velocity": 79, "duration": 119}, {"note": 79, "velocity": 82, "duration": 575}, {"note": 0, "velocity": 0, "duration": 225}, {"note": 79, "velocity": 80, "duration": 79}, {"note": 0, "velocity": 0, "duration": 81}, {"note": 79, "velocity": 83, "duration": 351}, {"note": 0, "velocity": 0, "duration": 129}, {"note": 82, "velocity": 84, "duration": 294}, {"note": 0, "velocity": 0, "duration": 186}, {"note": 79, "velocity": 83, "duration": 283}, {"note": 0, "velocity": 0, "duration": 197}, {"note": 79, "velocity": 83, "duration": 329}, {"note": 0, "velocity": 0, "duration": 151}, {"note": 77, "velocity": 81, "duration": 634}, {"note": 0, "velocity": 0, "duration": 326}, {"note": 82, "velocity": 81, "duration": 353}, {"note": 0, "velocity": 0, "duration": 127}, {"note": 82, "velocity": 81, "duration": 181}, {"note": 0, "velocity": 0, "duration": 139}, {"note": 82, "velocity": 79, "duration": 98}, {"note": 0, "velocity": 0, "duration": 62}, {"note": 82, "velocity": 81, "duration": 328}, {"note": 0, "velocity": 0, "duration": 152}, {"note": 81, "velocity": 81, "duration": 169}, {"note": 0, "velocity": 0, "duration": 151}, {"note": 79, "velocity": 81, "duration": 82}, {"note": 0, "velocity": 0, "duration": 78}, {"note": 81, "velocity": 83, "duration": 204}, {"note": 0, "velocity": 0, "duration": 116}, {"note": 81, "velocity": 86, "duration": 320}, {"note": 0, "velocity": 0, "duration": 160}, {"note": 81, "velocity": 86, "duration": 160}, {"note": 81, "velocity": 81, "duration": 307}, {"note": 0, "velocity": 0, "duration": 173}, {"note": 79, "velocity": 82, "duration": 193}, {"note": 0, "velocity": 0, "duration": 127}, {"note": 77, "velocity": 81, "duration": 116}, {"note": 79, "velocity": 82, "duration": 125}, {"note": 0, "velocity": 0, "duration": 195}, {"note": 79, "velocity": 81, "duration": 396}, {"note": 0, "velocity": 0, "duration": 84}, {"note": 79, "velocity": 80, "duration": 87}, {"note": 0, "velocity": 0, "duration": 73}, {"note": 79, "velocity": 80, "duration": 333}, {"note": 0, "velocity": 0, "duration": 147}, {"note": 82, "velocity": 90, "duration": 491}, {"note": 0, "velocity": 0, "duration": 949}, {"note": 82, "velocity": 86, "duration": 364}, {"note": 0, "velocity": 0, "duration": 116}, {"note": 81, "velocity": 82, "duration": 362}, {"note": 0, "velocity": 0, "duration": 118}, {"note": 82, "velocity": 84, "duration": 2012}, {"note": 0, "velocity": 0, "duration": 1828}, {"note": 74, "velocity": 95, "duration": 313}, {"note": 0, "velocity": 0, "duration": 167}, {"note": 74, "velocity": 88, "duration": 228}, {"note": 0, "velocity": 0, "duration": 92}, {"note": 77, "velocity": 83, "duration": 96}, {"note": 0, "velocity": 0, "duration": 64}, {"note": 70, "velocity": 88, "duration": 282}, {"note": 0, "velocity": 0, "duration": 198}, {"note": 70, "velocity": 86, "duration": 170}, {"note": 0, "velocity": 0, "duration": 150}, {"note": 74, "velocity": 81, "duration": 113}, {"note": 72, "velocity": 79, "duration": 171}, {"note": 0, "velocity": 0, "duration": 149}, {"note": 72, "velocity": 78, "duration": 108}, {"note": 72, "velocity": 80, "duration": 189}, {"note": 0, "velocity": 0, "duration": 131}, {"note": 74, "velocity": 81, "duration": 126}, {"note": 75, "velocity": 88, "duration": 315}, {"note": 0, "velocity": 0, "duration": 165}, {"note": 72, "velocity": 81, "duration": 166}, {"note": 0, "velocity": 0, "duration": 154}, {"note": 70, "velocity": 88, "duration": 114}, {"note": 69, "velocity": 80, "duration": 289}, {"note": 0, "velocity": 0, "duration": 191}, {"note": 65, "velocity": 83, "duration": 317}, {"note": 0, "velocity": 0, "duration": 163}, {"note": 69, "velocity": 84, "duration": 316}, {"note": 0, "velocity": 0, "duration": 164}, {"note": 65, "velocity": 84, "duration": 261}, {"note": 0, "velocity": 0, "duration": 219}, {"note": 70, "velocity": 85, "duration": 153}, {"note": 0, "velocity": 0, "duration": 167}, {"note": 70, "velocity": 83, "duration": 99}, {"note": 0, "velocity": 0, "duration": 61}, {"note": 70, "velocity": 78, "duration": 182}, {"note": 0, "velocity": 0, "duration": 138}, {"note": 72, "velocity": 79, "duration": 102}, {"note": 74, "velocity": 85, "duration": 480}, {"note": 0, "velocity": 0, "duration": 480}, {"note": 74, "velocity": 95, "duration": 313}, {"note": 0, "velocity": 0, "duration": 167}, {"note": 74, "velocity": 88, "duration": 228}, {"note": 0, "velocity": 0, "duration": 92}, {"note": 77, "velocity": 83, "duration": 96}, {"note": 0, "velocity": 0, "duration": 64}, {"note": 70, "velocity": 88, "duration": 282}, {"note": 0, "velocity": 0, "duration": 198}, {"note": 70, "velocity": 86, "duration": 170}, {"note": 0, "velocity": 0, "duration": 150}, {"note": 74, "velocity": 81, "duration": 113}, {"note": 72, "velocity": 79, "duration": 171}, {"note": 0, "velocity": 0, "duration": 149}, {"note": 72, "velocity": 78, "duration": 108}, {"note": 72, "velocity": 80, "duration": 189}, {"note": 0, "velocity": 0, "duration": 131}, {"note": 74, "velocity": 81, "duration": 126}, {"note": 75, "velocity": 88, "duration": 315}, {"note": 0, "velocity": 0, "duration": 165}, {"note": 72, "velocity": 81, "duration": 166}, {"note": 0, "velocity": 0, "duration": 154}, {"note": 70, "velocity": 88, "duration": 114}, {"note": 69, "velocity": 80, "duration": 289}, {"note": 0, "velocity": 0, "duration": 191}, {"note": 79, "velocity": 84, "duration": 334}, {"note": 0, "velocity": 0, "duration": 146}, {"note": 77, "velocity": 85, "duration": 363}, {"note": 0, "velocity": 0, "duration": 117}, {"note": 69, "velocity": 83, "duration": 277}, {"note": 0, "velocity": 0, "duration": 203}, {"note": 70, "velocity": 83, "duration": 967}, {"note": 0, "velocity": 0, "duration": 953}, {"note": 77, "velocity": 83, "duration": 190}, {"note": 0, "velocity": 0, "duration": 130}, {"note": 75, "velocity": 86, "duration": 115}, {"note": 74, "velocity": 85, "duration": 128}, {"note": 0, "velocity": 0, "duration": 192}, {"note": 72, "velocity": 81, "duration": 113}, {"note": 74, "velocity": 86, "duration": 125}, {"note": 0, "velocity": 0, "duration": 195}, {"note": 74, "velocity": 84, "duration": 120}, {"note": 72, "velocity": 80, "duration": 129}, {"note": 0, "velocity": 0, "duration": 191}, {"note": 70, "velocity": 75, "duration": 589}, {"note": 0, "velocity": 0, "duration": 371}, {"note": 70, "velocity": 80, "duration": 98}, {"note": 0, "velocity": 0, "duration": 62}, {"note": 70, "velocity": 81, "duration": 155}, {"note": 0, "velocity": 0, "duration": 165}, {"note": 72, "velocity": 79, "duration": 97}, {"note": 0, "velocity": 0, "duration": 63}, {"note": 74, "velocity": 90, "duration": 238}, {"note": 0, "velocity": 0, "duration": 242}, {"note": 75, "velocity": 82, "duration": 135}, {"note": 0, "velocity": 0, "duration": 185}, {"note": 75, "velocity": 79, "duration": 100}, {"note": 75, "velocity": 73, "duration": 125}, {"note": 0, "velocity": 0, "duration": 195}, {"note": 75, "velocity": 79, "duration": 103}, {"note": 77, "velocity": 74, "duration": 181}, {"note": 0, "velocity": 0, "duration": 139}, {"note": 75, "velocity": 81, "duration": 113}, {"note": 74, "velocity": 84, "duration": 147}, {"note": 0, "velocity": 0, "duration": 173}, {"note": 72, "velocity": 80, "duration": 704}, {"note": 0, "velocity": 0, "duration": 256}, {"note": 72, "velocity": 83, "duration": 102}, {"note": 72, "velocity": 79, "duration": 153}, {"note": 0, "velocity": 0, "duration": 167}, {"note": 74, "velocity": 83, "duration": 113}, {"note": 75, "velocity": 84, "duration": 267}, {"note": 0, "velocity": 0, "duration": 213}, {"note": 79, "velocity": 83, "duration": 118}, {"note": 0, "velocity": 0, "duration": 202}, {"note": 79, "velocity": 77, "duration": 92}, {"note": 0, "velocity": 0, "duration": 68}, {"note": 79, "velocity": 81, "duration": 1440}, {"note": 77, "velocity": 76, "duration": 410}, {"note": 0, "velocity": 0, "duration": 550}, {"note": 77, "velocity": 81, "duration": 327}, {"note": 0, "velocity": 0, "duration": 153}, {"note": 77, "velocity": 81, "duration": 368}, {"note": 0, "velocity": 0, "duration": 112}, {"note": 74, "velocity": 85, "duration": 1875}, {"note": 0, "velocity": 0, "duration": 1965}, {"note": 77, "velocity": 83, "duration": 190}, {"note": 0, "velocity": 0, "duration": 130}, {"note": 75, "velocity": 86, "duration": 115}, {"note": 74, "velocity": 85, "duration": 128}, {"note": 0, "velocity": 0, "duration": 192}, {"note": 72, "velocity": 81, "duration": 113}, {"note": 74, "velocity": 86, "duration": 125}, {"note": 0, "velocity": 0, "duration": 195}, {"note": 74, "velocity": 84, "duration": 120}, {"note": 72, "velocity": 80, "duration": 129}, {"note": 0, "velocity": 0, "duration": 191}, {"note": 70, "velocity": 75, "duration": 589}, {"note": 0, "velocity": 0, "duration": 371}, {"note": 70, "velocity": 80, "duration": 98}, {"note": 0, "velocity": 0, "duration": 62}, {"note": 70, "velocity": 81, "duration": 155}, {"note": 0, "velocity": 0, "duration": 165}, {"note": 72, "velocity": 79, "duration": 97}, {"note": 0, "velocity": 0, "duration": 63}, {"note": 74, "velocity": 90, "duration": 238}, {"note": 0, "velocity": 0, "duration": 242}, {"note": 75, "velocity": 82, "duration": 135}, {"note": 0, "velocity": 0, "duration": 185}, {"note": 75, "velocity": 79, "duration": 100}, {"note": 75, "velocity": 73, "duration": 125}, {"note": 0, "velocity": 0, "duration": 195}, {"note": 75, "velocity": 79, "duration": 103}, {"note": 77, "velocity": 74, "duration": 181}, {"note": 0, "velocity": 0, "duration": 139}, {"note": 75, "velocity": 81, "duration": 113}, {"note": 74, "velocity": 84, "duration": 147}, {"note": 0, "velocity": 0, "duration": 173}, {"note": 72, "velocity": 80, "duration": 704}, {"note": 0, "velocity": 0, "duration": 256}, {"note": 72, "velocity": 83, "duration": 102}, {"note": 72, "velocity": 79, "duration": 153}, {"note": 0, "velocity": 0, "duration": 167}, {"note": 74, "velocity": 83, "duration": 113}, {"note": 75, "velocity": 84, "duration": 267}, {"note": 0, "velocity": 0, "duration": 213}, {"note": 79, "velocity": 83, "duration": 118}, {"note": 0, "velocity": 0, "duration": 202}, {"note": 79, "velocity": 77, "duration": 92}, {"note": 0, "velocity": 0, "duration": 68}, {"note": 79, "velocity": 81, "duration": 1440}, {"note": 77, "velocity": 76, "duration": 410}, {"note": 0, "velocity": 0, "duration": 550}, {"note": 77, "velocity": 81, "duration": 327}, {"note": 0, "velocity": 0, "duration": 153}, {"note": 69, "velocity": 81, "duration": 368}, {"note": 0, "velocity": 0, "duration": 112}, {"note": 70, "velocity": 85, "duration": 1875}, {"note": 0, "velocity": 0, "duration": 1965}, {"note": 82, "velocity": 85, "duration": 238}, {"note": 0, "velocity": 0, "duration": 242}, {"note": 82, "velocity": 88, "duration": 142}, {"note": 0, "velocity": 0, "duration": 178}, {"note": 82, "velocity": 80, "duration": 80}, {"note": 0, "velocity": 0, "duration": 80}, {"note": 82, "velocity": 81, "duration": 352}, {"note": 0, "velocity": 0, "duration": 128}, {"note": 81, "velocity": 84, "duration": 166}, {"note": 0, "velocity": 0, "duration": 154}, {"note": 79, "velocity": 81, "duration": 92}, {"note": 0, "velocity": 0, "duration": 68}, {"note": 81, "velocity": 81, "duration": 138}, {"note": 0, "velocity": 0, "duration": 182}, {"note": 81, "velocity": 81, "duration": 300}, {"note": 0, "velocity": 0, "duration": 180}, {"note": 81, "velocity": 81, "duration": 103}, {"note": 81, "velocity": 83, "duration": 336}, {"note": 0, "velocity": 0, "duration": 144}, {"note": 79, "velocity": 81, "duration": 211}, {"note": 0, "velocity": 0, "duration": 109}, {"note": 77, "velocity": 79, "duration": 119}, {"note": 79, "velocity": 82, "duration": 575}, {"note": 0, "velocity": 0, "duration": 225}, {"note": 79, "velocity": 80, "duration": 79}, {"note": 0, "velocity": 0, "duration": 81}, {"note": 79, "velocity": 83, "duration": 351}, {"note": 0, "velocity": 0, "duration": 129}, {"note": 82, "velocity": 84, "duration": 294}, {"note": 0, "velocity": 0, "duration": 186}, {"note": 79, "velocity": 83, "duration": 283}, {"note": 0, "velocity": 0, "duration": 197}, {"note": 79, "velocity": 83, "duration": 329}, {"note": 0, "velocity": 0, "duration": 151}, {"note": 77, "velocity": 81, "duration": 634}, {"note": 0, "velocity": 0, "duration": 326}, {"note": 82, "velocity": 81, "duration": 353}, {"note": 0, "velocity": 0, "duration": 127}, {"note": 82, "velocity": 81, "duration": 181}, {"note": 0, "velocity": 0, "duration": 139}, {"note": 82, "velocity": 79, "duration": 98}, {"note": 0, "velocity": 0, "duration": 62}, {"note": 82, "velocity": 81, "duration": 328}, {"note": 0, "velocity": 0, "duration": 152}, {"note": 81, "velocity": 81, "duration": 169}, {"note": 0, "velocity": 0, "duration": 151}, {"note": 79, "velocity": 81, "duration": 82}, {"note": 0, "velocity": 0, "duration": 78}, {"note": 81, "velocity": 83, "duration": 204}, {"note": 0, "velocity": 0, "duration": 116}, {"note": 81, "velocity": 86, "duration": 320}, {"note": 0, "velocity": 0, "duration": 160}, {"note": 81, "velocity": 86, "duration": 160}, {"note": 81, "velocity": 81, "duration": 307}, {"note": 0, "velocity": 0, "duration": 173}, {"note": 79, "velocity": 82, "duration": 193}, {"note": 0, "velocity": 0, "duration": 127}, {"note": 77, "velocity": 81, "duration": 116}, {"note": 79, "velocity": 82, "duration": 125}, {"note": 0, "velocity": 0, "duration": 195}, {"note": 79, "velocity": 81, "duration": 396}, {"note": 0, "velocity": 0, "duration": 84}, {"note": 79, "velocity": 80, "duration": 87}, {"note": 0, "velocity": 0, "duration": 73}, {"note": 79, "velocity": 80, "duration": 333}, {"note": 0, "velocity": 0, "duration": 147}, {"note": 82, "velocity": 90, "duration": 491}, {"note": 0, "velocity": 0, "duration": 949}, {"note": 82, "velocity": 86, "duration": 364}, {"note": 0, "velocity": 0, "duration": 116}, {"note": 81, "velocity": 82, "duration": 362}, {"note": 0, "velocity": 0, "duration": 118}, {"note": 82, "velocity": 84, "duration": 2012}, {"note": 0, "velocity": 0, "duration": 1828}, {"note": 82, "velocity": 85, "duration": 238}, {"note": 0, "velocity": 0, "duration": 242}, {"note": 82, "velocity": 88, "duration": 142}, {"note": 0, "velocity": 0, "duration": 178}, {"note": 82, "velocity": 80, "duration": 80}, {"note": 0, "velocity": 0, "duration": 80}, {"note": 82, "velocity": 81, "duration": 352}, {"note": 0, "velocity": 0, "duration": 128}, {"note": 81, "velocity": 84, "duration": 166}, {"note": 0, "velocity": 0, "duration": 154}, {"note": 79, "velocity": 81, "duration": 92}, {"note": 0, "velocity": 0, "duration": 68}, {"note": 81, "velocity": 81, "duration": 138}, {"note": 0, "velocity": 0, "duration": 182}, {"note": 81, "velocity": 81, "duration": 300}, {"note": 0, "velocity": 0, "duration": 180}, {"note": 81, "velocity": 81, "duration": 103}, {"note": 81, "velocity": 83, "duration": 336}, {"note": 0, "velocity": 0, "duration": 144}, {"note": 79, "velocity": 81, "duration": 211}, {"note": 0, "velocity": 0, "duration": 109}, {"note": 77, "velocity": 79, "duration": 119}, {"note": 79, "velocity": 82, "duration": 575}, {"note": 0, "velocity": 0, "duration": 225}, {"note": 79, "velocity": 80, "duration": 79}, {"note": 0, "velocity": 0, "duration": 81}, {"note": 79, "velocity": 83, "duration": 351}, {"note": 0, "velocity": 0, "duration": 129}, {"note": 82, "velocity": 84, "duration": 294}, {"note": 0, "velocity": 0, "duration": 186}, {"note": 79, "velocity": 83, "duration": 283}, {"note": 0, "velocity": 0, "duration": 197}, {"note": 79, "velocity": 83, "duration": 329}, {"note": 0, "velocity": 0, "duration": 151}, {"note": 77, "velocity": 81, "duration": 634}, {"note": 0, "velocity": 0, "duration": 326}, {"note": 82, "velocity": 81, "duration": 353}, {"note": 0, "velocity": 0, "duration": 127}, {"note": 82, "velocity": 81, "duration": 181}, {"note": 0, "velocity": 0, "duration": 139}, {"note": 82, "velocity": 79, "duration": 98}, {"note": 0, "velocity": 0, "duration": 62}, {"note": 82, "velocity": 81, "duration": 328}, {"note": 0, "velocity": 0, "duration": 152}, {"note": 81, "velocity": 81, "duration": 169}, {"note": 0, "velocity": 0, "duration": 151}, {"note": 79, "velocity": 81, "duration": 82}, {"note": 0, "velocity": 0, "duration": 78}, {"note": 81, "velocity": 83, "duration": 204}, {"note": 0, "velocity": 0, "duration": 116}, {"note": 81, "velocity": 86, "duration": 320}, {"note": 0, "velocity": 0, "duration": 160}, {"note": 81, "velocity": 86, "duration": 160}, {"note": 81, "velocity": 81, "duration": 307}, {"note": 0, "velocity": 0, "duration": 173}, {"note": 79, "velocity": 82, "duration": 193}, {"note": 0, "velocity": 0, "duration": 127}, {"note": 77, "velocity": 81, "duration": 116}, {"note": 79, "velocity": 82, "duration": 125}, {"note": 0, "velocity": 0, "duration": 195}, {"note": 79, "velocity": 81, "duration": 396}, {"note": 0, "velocity": 0, "duration": 84}, {"note": 79, "velocity": 80, "duration": 87}, {"note": 0, "velocity": 0, "duration": 73}, {"note": 79, "velocity": 80, "duration": 333}, {"note": 0, "velocity": 0, "duration": 147}, {"note": 82, "velocity": 90, "duration": 491}, {"note": 0, "velocity": 0, "duration": 949}, {"note": 82, "velocity": 86, "duration": 364}, {"note": 0, "velocity": 0, "duration": 116}, {"note": 81, "velocity": 82, "duration": 362}, {"note": 0, "velocity": 0, "duration": 118}, {"note": 82, "velocity": 84, "duration": 2012}, {"note": 0, "velocity": 0, "duration": 1828}, {"note": 74, "velocity": 95, "duration": 313}, {"note": 0, "velocity": 0, "duration": 167}, {"note": 74, "velocity": 88, "duration": 228}, {"note": 0, "velocity": 0, "duration": 92}, {"note": 77, "velocity": 83, "duration": 96}, {"note": 0, "velocity": 0, "duration": 64}, {"note": 70, "velocity": 88, "duration": 282}, {"note": 0, "velocity": 0, "duration": 198}, {"note": 70, "velocity": 86, "duration": 170}, {"note": 0, "velocity": 0, "duration": 150}, {"note": 74, "velocity": 81, "duration": 113}, {"note": 72, "velocity": 79, "duration": 171}, {"note": 0, "velocity": 0, "duration": 149}, {"note": 72, "velocity": 78, "duration": 108}, {"note": 72, "velocity": 80, "duration": 189}, {"note": 0, "velocity": 0, "duration": 131}, {"note": 74, "velocity": 81, "duration": 126}, {"note": 75, "velocity": 88, "duration": 315}, {"note": 0, "velocity": 0, "duration": 165}, {"note": 72, "velocity": 81, "duration": 166}, {"note": 0, "velocity": 0, "duration": 154}, {"note": 70, "velocity": 88, "duration": 114}, {"note": 69, "velocity": 80, "duration": 289}, {"note": 0, "velocity": 0, "duration": 191}, {"note": 65, "velocity": 83, "duration": 317}, {"note": 0, "velocity": 0, "duration": 163}, {"note": 69, "velocity": 84, "duration": 316}, {"note": 0, "velocity": 0, "duration": 164}, {"note": 65, "velocity": 84, "duration": 261}, {"note": 0, "velocity": 0, "duration": 219}, {"note": 70, "velocity": 85, "duration": 153}, {"note": 0, "velocity": 0, "duration": 167}, {"note": 70, "velocity": 83, "duration": 99}, {"note": 0, "velocity": 0, "duration": 61}, {"note": 70, "velocity": 78, "duration": 182}, {"note": 0, "velocity": 0, "duration": 138}, {"note": 72, "velocity": 79, "duration": 102}, {"note": 74, "velocity": 85, "duration": 480}, {"note": 0, "velocity": 0, "duration": 480}, {"note": 74, "velocity": 95, "duration": 313}, {"note": 0, "velocity": 0, "duration": 167}, {"note": 74, "velocity": 88, "duration": 228}, {"note": 0, "velocity": 0, "duration": 92}, {"note": 77, "velocity": 83, "duration": 96}, {"note": 0, "velocity": 0, "duration": 64}, {"note": 70, "velocity": 88, "duration": 282}, {"note": 0, "velocity": 0, "duration": 198}, {"note": 70, "velocity": 86, "duration": 170}, {"note": 0, "velocity": 0, "duration": 150}, {"note": 74, "velocity": 81, "duration": 113}, {"note": 72, "velocity": 79, "duration": 171}, {"note": 0, "velocity": 0, "duration": 149}, {"note": 72, "velocity": 78, "duration": 108}, {"note": 72, "velocity": 80, "duration": 189}, {"note": 0, "velocity": 0, "duration": 131}, {"note": 74, "velocity": 81, "duration": 126}, {"note": 75, "velocity": 88, "duration": 315}, {"note": 0, "velocity": 0, "duration": 165}, {"note": 72, "velocity": 81, "duration": 166}, {"note": 0, "velocity": 0, "duration": 154}, {"note": 70, "velocity": 88, "duration": 114}, {"note": 69, "velocity": 80, "duration": 289}, {"note": 0, "velocity": 0, "duration": 191}, {"note": 79, "velocity": 84, "duration": 334}, {"note": 0, "velocity": 0, "duration": 146}, {"note": 77, "velocity": 85, "duration": 363}, {"note": 0, "velocity": 0, "duration": 117}, {"note": 69, "velocity": 83, "duration": 277}, {"note": 0, "velocity": 0, "duration": 203}, {"note": 70, "velocity": 83, "duration": 967}, {"note": 0, "velocity": 0, "duration": 473}, {"note": 72, "velocity": 81, "duration": 166}, {"note": 0, "velocity": 0, "duration": 154}, {"note": 70, "velocity": 88, "duration": 114}, {"note": 69, "velocity": 80, "duration": 289}, {"note": 0, "velocity": 0, "duration": 191}, {"note": 79, "velocity": 84, "duration": 334}, {"note": 0, "velocity": 0, "duration": 146}, {"note": 77, "velocity": 85, "duration": 363}, {"note": 0, "velocity": 0, "duration": 117}, {"note": 69, "velocity": 83, "duration": 277}, {"note": 0, "velocity": 0, "duration": 203}, {"note": 70, "velocity": 83, "duration": 967}, {"note": 0, "velocity": 0, "duration": 473}, {"note": 72, "velocity": 81, "duration": 166}, {"note": 0, "velocity": 0, "duration": 154}, {"note": 70, "velocity": 88, "duration": 114}, {"note": 69, "velocity": 80, "duration": 480}, {"note": 0, "velocity": 0, "duration": 480}, {"note": 79, "velocity": 83, "duration": 710}, {"note": 0, "velocity": 0, "duration": 250}, {"note": 77, "velocity": 84, "duration": 726}, {"note": 0, "velocity": 0, "duration": 234}, {"note": 69, "velocity": 81, "duration": 772}, {"note": 0, "velocity": 0, "duration": 188}, {"note": 70, "velocity": 83, "duration": 1983}]]