[[{"note": 69, "velocity": 96, "duration": 207}, {"note": 62, "velocity": 88, "duration": 169}, {"note": 0, "velocity": 0, "duration": 71}, {"note": 62, "velocity": 95, "duration": 404}, {"note": 0, "velocity": 0, "duration": 76}, {"note": 69, "velocity": 100, "duration": 243}, {"note": 71, "velocity": 93, "duration": 224}, {"note": 73, "velocity": 100, "duration": 212}, {"note": 69, "velocity": 99, "duration": 343}, {"note": 0, "velocity": 0, "duration": 137}, {"note": 67, "velocity": 117, "duration": 217}, {"note": 69, "velocity": 97, "duration": 228}, {"note": 66, "velocity": 95, "duration": 923}, {"note": 0, "velocity": 0, "duration": 277}, {"note": 69, "velocity": 97, "duration": 171}, {"note": 0, "velocity": 0, "duration": 69}, {"note": 62, "velocity": 93, "duration": 168}, {"note": 0, "velocity": 0, "duration": 72}, {"note": 62, "velocity": 97, "duration": 295}, {"note": 0, "velocity": 0, "duration": 185}, {"note": 69, "velocity": 112, "duration": 206}, {"note": 71, "velocity": 107, "duration": 226}, {"note": 69, "velocity": 112, "duration": 280}, {"note": 67, "velocity": 117, "duration": 194}, {"note": 0, "velocity": 0, "duration": 286}, {"note": 66, "velocity": 100, "duration": 202}, {"note": 67, "velocity": 96, "duration": 193}, {"note": 64, "velocity": 95, "duration": 745}, {"note": 0, "velocity": 0, "duration": 455}, {"note": 69, "velocity": 96, "duration": 221}, {"note": 62, "velocity": 88, "duration": 182}, {"note": 62, "velocity": 96, "duration": 186}, {"note": 69, "velocity": 100, "duration": 385}, {"note": 0, "velocity": 0, "duration": 95}, {"note": 71, "velocity": 107, "duration": 183}, {"note": 73, "velocity": 112, "duration": 165}, {"note": 0, "velocity": 0, "duration": 75}, {"note": 69, "velocity": 99, "duration": 313}, {"note": 0, "velocity": 0, "duration": 167}, {"note": 71, "velocity": 97, "duration": 139}, {"note": 0, "velocity": 0, "duration": 101}, {"note": 73, "velocity": 112, "duration": 116}, {"note": 0, "velocity": 0, "duration": 124}, {"note": 74, "velocity": 100, "duration": 436}, {"note": 0, "velocity": 0, "duration": 644}, {"note": 62, "velocity": 93, "duration": 101}, {"note": 69, "velocity": 97, "duration": 178}, {"note": 0, "velocity": 0, "duration": 62}, {"note": 62, "velocity": 100, "duration": 172}, {"note": 0, "velocity": 0, "duration": 68}, {"note": 62, "velocity": 102, "duration": 131}, {"note": 0, "velocity": 0, "duration": 109}, {"note": 69, "velocity": 107, "duration": 194}, {"note": 67, "velocity": 112, "duration": 135}, {"note": 0, "velocity": 0, "duration": 105}, {"note": 66, "velocity": 117, "duration": 219}, {"note": 0, "velocity": 0, "duration": 261}, {"note": 64, "velocity": 102, "duration": 307}, {"note": 0, "velocity": 0, "duration": 173}, {"note": 62, "velocity": 97, "duration": 1168}, {"note": 0, "velocity": 0, "duration": 512}, {"note": 69, "velocity": 96, "duration": 207}, {"note": 62, "velocity": 88, "duration": 169}, {"note": 0, "velocity": 0, "duration": 71}, {"note": 62, "velocity": 95, "duration": 404}, {"note": 69, "velocity": 100, "duration": 534}, {"note": 71, "velocity": 93, "duration": 224}, {"note": 73, "velocity": 100, "duration": 212}, {"note": 69, "velocity": 99, "duration": 343}, {"note": 0, "velocity": 0, "duration": 137}, {"note": 67, "velocity": 117, "duration": 217}, {"note": 69, "velocity": 97, "duration": 228}, {"note": 66, "velocity": 95, "duration": 923}, {"note": 0, "velocity": 0, "duration": 277}, {"note": 69, "velocity": 97, "duration": 171}, {"note": 0, "velocity": 0, "duration": 69}, {"note": 62, "velocity": 93, "duration": 168}, {"note": 0, "velocity": 0, "duration": 72}, {"note": 62, "velocity": 97, "duration": 295}, {"note": 0, "velocity": 0, "duration": 185}, {"note": 69, "velocity": 112, "duration": 206}, {"note": 71, "velocity": 107, "duration": 226}, {"note": 69, "velocity": 112, "duration": 280}, {"note": 67, "velocity": 117, "duration": 194}, {"note": 0, "velocity": 0, "duration": 286}, {"note": 66, "velocity": 100, "duration": 202}, {"note": 67, "velocity": 96, "duration": 193}, {"note": 64, "velocity": 95, "duration": 745}, {"note": 0, "velocity": 0, "duration": 455}, {"note": 69, "velocity": 96, "duration": 221}, {"note": 62, "velocity": 88, "duration": 182}, {"note": 62, "velocity": 96, "duration": 186}, {"note": 69, "velocity": 100, "duration": 385}, {"note": 0, "velocity": 0, "duration": 95}, {"note": 71, "velocity": 107, "duration": 183}, {"note": 73, "velocity": 112, "duration": 165}, {"note": 0, "velocity": 0, "duration": 75}, {"note": 69, "velocity": 99, "duration": 313}, {"note": 0, "velocity": 0, "duration": 167}, {"note": 71, "velocity": 97, "duration": 139}, {"note": 0, "velocity": 0, "duration": 101}, {"note": 73, "velocity": 112, "duration": 116}, {"note": 0, "velocity": 0, "duration": 124}, {"note": 74, "velocity": 100, "duration": 436}, {"note": 0, "velocity": 0, "duration": 644}, {"note": 69, "velocity": 102, "duration": 63}, {"note": 69, "velocity": 112, "duration": 129}, {"note": 0, "velocity": 0, "duration": 111}, {"note": 69, "velocity": 112, "duration": 170}, {"note": 0, "velocity": 0, "duration": 70}, {"note": 69, "velocity": 96, "duration": 145}, {"note": 0, "velocity": 0, "duration": 95}, {"note": 74, "velocity": 127, "duration": 357}, {"note": 0, "velocity": 0, "duration": 123}, {"note": 69, "velocity": 122, "duration": 164}, {"note": 0, "velocity": 0, "duration": 76}, {"note": 74, "velocity": 127, "duration": 158}, {"note": 0, "velocity": 0, "duration": 82}, {"note": 76, "velocity": 127, "duration": 1118}, {"note": 0, "velocity": 0, "duration": 322}, {"note": 69, "velocity": 107, "duration": 136}, {"note": 0, "velocity": 0, "duration": 104}, {"note": 76, "velocity": 122, "duration": 260}, {"note": 0, "velocity": 0, "duration": 100}, {"note": 73, "velocity": 122, "duration": 93}, {"note": 74, "velocity": 127, "duration": 367}, {"note": 0, "velocity": 0, "duration": 353}, {"note": 69, "velocity": 127, "duration": 171}, {"note": 0, "velocity": 0, "duration": 69}, {"note": 66, "velocity": 122, "duration": 196}, {"note": 69, "velocity": 122, "duration": 173}, {"note": 0, "velocity": 0, "duration": 67}, {"note": 76, "velocity": 122, "duration": 250}, {"note": 0, "velocity": 0, "duration": 110}, {"note": 73, "velocity": 127, "duration": 69}, {"note": 74, "velocity": 127, "duration": 589}, {"note": 0, "velocity": 0, "duration": 251}, {"note": 69, "velocity": 100, "duration": 88}, {"note": 66, "velocity": 112, "duration": 208}, {"note": 69, "velocity": 107, "duration": 144}, {"note": 0, "velocity": 0, "duration": 96}, {"note": 76, "velocity": 99, "duration": 218}, {"note": 78, "velocity": 127, "duration": 242}, {"note": 74, "velocity": 127, "duration": 448}, {"note": 74, "velocity": 122, "duration": 155}, {"note": 0, "velocity": 0, "duration": 85}, {"note": 74, "velocity": 95, "duration": 96}, {"note": 73, "velocity": 127, "duration": 267}, {"note": 0, "velocity": 0, "duration": 93}, {"note": 71, "velocity": 117, "duration": 158}, {"note": 0, "velocity": 0, "duration": 82}, {"note": 69, "velocity": 102, "duration": 166}, {"note": 0, "velocity": 0, "duration": 74}, {"note": 67, "velocity": 102, "duration": 229}, {"note": 69, "velocity": 127, "duration": 679}, {"note": 0, "velocity": 0, "duration": 521}, {"note": 62, "velocity": 112, "duration": 144}, {"note": 0, "velocity": 0, "duration": 96}, {"note": 74, "velocity": 127, "duration": 190}, {"note": 73, "velocity": 127, "duration": 168}, {"note": 0, "velocity": 0, "duration": 72}, {"note": 71, "velocity": 127, "duration": 356}, {"note": 0, "velocity": 0, "duration": 364}, {"note": 66, "velocity": 127, "duration": 153}, {"note": 0, "velocity": 0, "duration": 87}, {"note": 64, "velocity": 127, "duration": 211}, {"note": 66, "velocity": 122, "duration": 207}, {"note": 73, "velocity": 127, "duration": 247}, {"note": 0, "velocity": 0, "duration": 233}, {"note": 71, "velocity": 127, "duration": 211}, {"note": 69, "velocity": 112, "duration": 250}, {"note": 0, "velocity": 0, "duration": 350}, {"note": 69, "velocity": 89, "duration": 127}, {"note": 74, "velocity": 127, "duration": 194}, {"note": 76, "velocity": 127, "duration": 68}, {"note": 76, "velocity": 96, "duration": 150}, {"note": 0, "velocity": 0, "duration": 90}, {"note": 78, "velocity": 127, "duration": 265}, {"note": 0, "velocity": 0, "duration": 95}, {"note": 71, "velocity": 122, "duration": 198}, {"note": 71, "velocity": 127, "duration": 77}, {"note": 0, "velocity": 0, "duration": 163}, {"note": 73, "velocity": 127, "duration": 83}, {"note": 74, "velocity": 127, "duration": 174}, {"note": 0, "velocity": 0, "duration": 186}, {"note": 78, "velocity": 127, "duration": 153}, {"note": 0, "velocity": 0, "duration": 87}, {"note": 76, "velocity": 107, "duration": 46}, {"note": 0, "velocity": 0, "duration": 74}, {"note": 76, "velocity": 127, "duration": 232}, {"note": 0, "velocity": 0, "duration": 128}, {"note": 74, "velocity": 112, "duration": 36}, {"note": 0, "velocity": 0, "duration": 84}, {"note": 76, "velocity": 127, "duration": 908}, {"note": 0, "velocity": 0, "duration": 412}, {"note": 69, "velocity": 107, "duration": 136}, {"note": 0, "velocity": 0, "duration": 104}, {"note": 76, "velocity": 122, "duration": 260}, {"note": 0, "velocity": 0, "duration": 100}, {"note": 73, "velocity": 122, "duration": 93}, {"note": 74, "velocity": 127, "duration": 367}, {"note": 0, "velocity": 0, "duration": 353}, {"note": 69, "velocity": 127, "duration": 171}, {"note": 0, "velocity": 0, "duration": 69}, {"note": 66, "velocity": 122, "duration": 196}, {"note": 69, "velocity": 122, "duration": 173}, {"note": 0, "velocity": 0, "duration": 67}, {"note": 76, "velocity": 122, "duration": 250}, {"note": 0, "velocity": 0, "duration": 110}, {"note": 73, "velocity": 127, "duration": 69}, {"note": 74, "velocity": 127, "duration": 589}, {"note": 0, "velocity": 0, "duration": 251}, {"note": 69, "velocity": 100, "duration": 88}, {"note": 66, "velocity": 112, "duration": 208}, {"note": 69, "velocity": 107, "duration": 144}, {"note": 0, "velocity": 0, "duration": 96}, {"note": 76, "velocity": 99, "duration": 218}, {"note": 78, "velocity": 127, "duration": 242}, {"note": 74, "velocity": 127, "duration": 448}, {"note": 74, "velocity": 122, "duration": 155}, {"note": 0, "velocity": 0, "duration": 85}, {"note": 74, "velocity": 95, "duration": 96}, {"note": 73, "velocity": 127, "duration": 267}, {"note": 0, "velocity": 0, "duration": 93}, {"note": 71, "velocity": 117, "duration": 158}, {"note": 0, "velocity": 0, "duration": 82}, {"note": 69, "velocity": 102, "duration": 166}, {"note": 0, "velocity": 0, "duration": 74}, {"note": 67, "velocity": 102, "duration": 229}, {"note": 69, "velocity": 127, "duration": 679}, {"note": 0, "velocity": 0, "duration": 521}, {"note": 62, "velocity": 112, "duration": 144}, {"note": 0, "velocity": 0, "duration": 96}, {"note": 74, "velocity": 127, "duration": 190}, {"note": 73, "velocity": 127, "duration": 168}, {"note": 0, "velocity": 0, "duration": 72}, {"note": 71, "velocity": 127, "duration": 356}, {"note": 0, "velocity": 0, "duration": 364}, {"note": 66, "velocity": 127, "duration": 153}, {"note": 0, "velocity": 0, "duration": 87}, {"note": 64, "velocity": 127, "duration": 211}, {"note": 66, "velocity": 122, "duration": 207}, {"note": 73, "velocity": 127, "duration": 247}, {"note": 0, "velocity": 0, "duration": 233}, {"note": 71, "velocity": 127, "duration": 211}, {"note": 69, "velocity": 112, "duration": 250}, {"note": 0, "velocity": 0, "duration": 350}, {"note": 69, "velocity": 89, "duration": 127}, {"note": 74, "velocity": 127, "duration": 194}, {"note": 76, "velocity": 127, "duration": 68}, {"note": 76, "velocity": 96, "duration": 150}, {"note": 0, "velocity": 0, "duration": 90}, {"note": 78, "velocity": 127, "duration": 265}, {"note": 0, "velocity": 0, "duration": 95}, {"note": 71, "velocity": 122, "duration": 198}, {"note": 71, "velocity": 127, "duration": 77}, {"note": 0, "velocity": 0, "duration": 163}, {"note": 73, "velocity": 127, "duration": 83}, {"note": 74, "velocity": 127, "duration": 174}, {"note": 0, "velocity": 0, "duration": 186}, {"note": 74, "velocity": 127, "duration": 360}, {"note": 0, "velocity": 0, "duration": 120}, {"note": 73, "velocity": 122, "duration": 184}, {"note": 74, "velocity": 107, "duration": 1019}, {"note": 0, "velocity": 0, "duration": 6901}, {"note": 69, "velocity": 96, "duration": 207}, {"note": 62, "velocity": 88, "duration": 169}, {"note": 0, "velocity": 0, "duration": 71}, {"note": 62, "velocity": 95, "duration": 404}, {"note": 69, "velocity": 100, "duration": 518}, {"note": 71, "velocity": 93, "duration": 224}, {"note": 73, "velocity": 100, "duration": 212}, {"note": 69, "velocity": 99, "duration": 343}, {"note": 0, "velocity": 0, "duration": 137}, {"note": 67, "velocity": 117, "duration": 217}, {"note": 69, "velocity": 97, "duration": 228}, {"note": 66, "velocity": 95, "duration": 923}, {"note": 0, "velocity": 0, "duration": 277}, {"note": 69, "velocity": 97, "duration": 171}, {"note": 0, "velocity": 0, "duration": 69}, {"note": 62, "velocity": 93, "duration": 168}, {"note": 0, "velocity": 0, "duration": 72}, {"note": 62, "velocity": 97, "duration": 295}, {"note": 0, "velocity": 0, "duration": 185}, {"note": 69, "velocity": 112, "duration": 206}, {"note": 71, "velocity": 107, "duration": 226}, {"note": 69, "velocity": 112, "duration": 280}, {"note": 67, "velocity": 117, "duration": 194}, {"note": 0, "velocity": 0, "duration": 286}, {"note": 66, "velocity": 100, "duration": 202}, {"note": 67, "velocity": 96, "duration": 193}, {"note": 64, "velocity": 95, "duration": 745}, {"note": 0, "velocity": 0, "duration": 455}, {"note": 69, "velocity": 96, "duration": 221}, {"note": 62, "velocity": 88, "duration": 182}, {"note": 62, "velocity": 96, "duration": 186}, {"note": 69, "velocity": 100, "duration": 385}, {"note": 0, "velocity": 0, "duration": 95}, {"note": 71, "velocity": 107, "duration": 183}, {"note": 73, "velocity": 112, "duration": 165}, {"note": 0, "velocity": 0, "duration": 75}, {"note": 69, "velocity": 99, "duration": 313}, {"note": 0, "velocity": 0, "duration": 167}, {"note": 71, "velocity": 97, "duration": 139}, {"note": 0, "velocity": 0, "duration": 101}, {"note": 73, "velocity": 112, "duration": 116}, {"note": 0, "velocity": 0, "duration": 124}, {"note": 74, "velocity": 100, "duration": 436}, {"note": 0, "velocity": 0, "duration": 644}, {"note": 69, "velocity": 102, "duration": 63}, {"note": 69, "velocity": 112, "duration": 129}, {"note": 0, "velocity": 0, "duration": 111}, {"note": 69, "velocity": 112, "duration": 170}, {"note": 0, "velocity": 0, "duration": 70}, {"note": 69, "velocity": 96, "duration": 145}, {"note": 0, "velocity": 0, "duration": 95}, {"note": 74, "velocity": 127, "duration": 357}, {"note": 0, "velocity": 0, "duration": 123}, {"note": 69, "velocity": 122, "duration": 164}, {"note": 0, "velocity": 0, "duration": 76}, {"note": 74, "velocity": 127, "duration": 158}, {"note": 0, "velocity": 0, "duration": 82}, {"note": 76, "velocity": 127, "duration": 1118}, {"note": 0, "velocity": 0, "duration": 322}, {"note": 69, "velocity": 107, "duration": 136}, {"note": 0, "velocity": 0, "duration": 104}, {"note": 76, "velocity": 122, "duration": 260}, {"note": 0, "velocity": 0, "duration": 100}, {"note": 73, "velocity": 122, "duration": 93}, {"note": 74, "velocity": 127, "duration": 367}, {"note": 0, "velocity": 0, "duration": 353}, {"note": 69, "velocity": 127, "duration": 171}, {"note": 0, "velocity": 0, "duration": 69}, {"note": 66, "velocity": 122, "duration": 196}, {"note": 69, "velocity": 122, "duration": 173}, {"note": 0, "velocity": 0, "duration": 67}, {"note": 76, "velocity": 122, "duration": 250}, {"note": 0, "velocity": 0, "duration": 110}, {"note": 73, "velocity": 127, "duration": 69}, {"note": 74, "velocity": 127, "duration": 589}, {"note": 0, "velocity": 0, "duration": 251}, {"note": 69, "velocity": 100, "duration": 88}, {"note": 66, "velocity": 112, "duration": 208}, {"note": 69, "velocity": 107, "duration": 144}, {"note": 0, "velocity": 0, "duration": 96}, {"note": 76, "velocity": 99, "duration": 218}, {"note": 78, "velocity": 127, "duration": 242}, {"note": 74, "velocity": 127, "duration": 448}, {"note": 74, "velocity": 122, "duration": 155}, {"note": 0, "velocity": 0, "duration": 85}, {"note": 74, "velocity": 95, "duration": 96}, {"note": 73, "velocity": 127, "duration": 267}, {"note": 0, "velocity": 0, "duration": 93}, {"note": 71, "velocity": 117, "duration": 158}, {"note": 0, "velocity": 0, "duration": 82}, {"note": 69, "velocity": 102, "duration": 166}, {"note": 0, "velocity": 0, "duration": 74}, {"note": 67, "velocity": 102, "duration": 229}, {"note": 69, "velocity": 127, "duration": 679}, {"note": 0, "velocity": 0, "duration": 521}, {"note": 62, "velocity": 112, "duration": 144}, {"note": 0, "velocity": 0, "duration": 96}, {"note": 74, "velocity": 127, "duration": 190}, {"note": 73, "velocity": 127, "duration": 168}, {"note": 0, "velocity": 0, "duration": 72}, {"note": 71, "velocity": 127, "duration": 356}, {"note": 0, "velocity": 0, "duration": 364}, {"note": 66, "velocity": 127, "duration": 153}, {"note": 0, "velocity": 0, "duration": 87}, {"note": 64, "velocity": 127, "duration": 211}, {"note": 66, "velocity": 122, "duration": 207}, {"note": 73, "velocity": 127, "duration": 247}, {"note": 0, "velocity": 0, "duration": 233}, {"note": 71, "velocity": 127, "duration": 211}, {"note": 69, "velocity": 112, "duration": 250}, {"note": 0, "velocity": 0, "duration": 350}, {"note": 69, "velocity": 89, "duration": 127}, {"note": 74, "velocity": 127, "duration": 194}, {"note": 76, "velocity": 127, "duration": 68}, {"note": 76, "velocity": 96, "duration": 150}, {"note": 0, "velocity": 0, "duration": 90}, {"note": 78, "velocity": 127, "duration": 265}, {"note": 0, "velocity": 0, "duration": 95}, {"note": 71, "velocity": 122, "duration": 198}, {"note": 71, "velocity": 127, "duration": 77}, {"note": 0, "velocity": 0, "duration": 163}, {"note": 73, "velocity": 127, "duration": 83}, {"note": 74, "velocity": 127, "duration": 174}, {"note": 0, "velocity": 0, "duration": 186}, {"note": 78, "velocity": 127, "duration": 153}, {"note": 0, "velocity": 0, "duration": 87}, {"note": 76, "velocity": 107, "duration": 46}, {"note": 0, "velocity": 0, "duration": 74}, {"note": 76, "velocity": 127, "duration": 232}, {"note": 0, "velocity": 0, "duration": 128}, {"note": 74, "velocity": 112, "duration": 36}, {"note": 0, "velocity": 0, "duration": 84}, {"note": 76, "velocity": 127, "duration": 908}, {"note": 0, "velocity": 0, "duration": 412}, {"note": 70, "velocity": 107, "duration": 136}, {"note": 0, "velocity": 0, "duration": 104}, {"note": 77, "velocity": 122, "duration": 260}, {"note": 0, "velocity": 0, "duration": 100}, {"note": 74, "velocity": 122, "duration": 93}, {"note": 75, "velocity": 127, "duration": 367}, {"note": 0, "velocity": 0, "duration": 353}, {"note": 70, "velocity": 127, "duration": 171}, {"note": 0, "velocity": 0, "duration": 69}, {"note": 67, "velocity": 122, "duration": 196}, {"note": 70, "velocity": 122, "duration": 173}, {"note": 0, "velocity": 0, "duration": 67}, {"note": 77, "velocity": 122, "duration": 250}, {"note": 0, "velocity": 0, "duration": 110}, {"note": 74, "velocity": 127, "duration": 69}, {"note": 75, "velocity": 127, "duration": 589}, {"note": 0, "velocity": 0, "duration": 251}, {"note": 70, "velocity": 100, "duration": 88}, {"note": 67, "velocity": 112, "duration": 208}, {"note": 70, "velocity": 107, "duration": 144}, {"note": 0, "velocity": 0, "duration": 96}, {"note": 77, "velocity": 99, "duration": 218}, {"note": 79, "velocity": 127, "duration": 242}, {"note": 75, "velocity": 127, "duration": 448}, {"note": 75, "velocity": 122, "duration": 155}, {"note": 0, "velocity": 0, "duration": 85}, {"note": 75, "velocity": 95, "duration": 96}, {"note": 74, "velocity": 127, "duration": 267}, {"note": 0, "velocity": 0, "duration": 93}, {"note": 72, "velocity": 117, "duration": 158}, {"note": 0, "velocity": 0, "duration": 82}, {"note": 70, "velocity": 102, "duration": 166}, {"note": 0, "velocity": 0, "duration": 74}, {"note": 68, "velocity": 102, "duration": 229}, {"note": 70, "velocity": 127, "duration": 679}, {"note": 0, "velocity": 0, "duration": 521}, {"note": 63, "velocity": 112, "duration": 144}, {"note": 0, "velocity": 0, "duration": 96}, {"note": 75, "velocity": 127, "duration": 190}, {"note": 74, "velocity": 127, "duration": 168}, {"note": 0, "velocity": 0, "duration": 72}, {"note": 72, "velocity": 127, "duration": 356}, {"note": 0, "velocity": 0, "duration": 364}, {"note": 67, "velocity": 127, "duration": 153}, {"note": 0, "velocity": 0, "duration": 87}, {"note": 65, "velocity": 127, "duration": 211}, {"note": 67, "velocity": 122, "duration": 207}, {"note": 74, "velocity": 127, "duration": 247}, {"note": 0, "velocity": 0, "duration": 233}, {"note": 72, "velocity": 127, "duration": 211}, {"note": 70, "velocity": 112, "duration": 250}, {"note": 0, "velocity": 0, "duration": 350}, {"note": 70, "velocity": 89, "duration": 127}, {"note": 75, "velocity": 127, "duration": 194}, {"note": 77, "velocity": 127, "duration": 68}, {"note": 77, "velocity": 96, "duration": 150}, {"note": 0, "velocity": 0, "duration": 90}, {"note": 79, "velocity": 127, "duration": 265}, {"note": 0, "velocity": 0, "duration": 95}, {"note": 72, "velocity": 122, "duration": 198}, {"note": 72, "velocity": 127, "duration": 77}, {"note": 0, "velocity": 0, "duration": 163}, {"note": 74, "velocity": 127, "duration": 83}, {"note": 75, "velocity": 127, "duration": 174}, {"note": 0, "velocity": 0, "duration": 186}, {"note": 75, "velocity": 127, "duration": 360}, {"note": 0, "velocity": 0, "duration": 120}, {"note": 74, "velocity": 122, "duration": 184}, {"note": 75, "velocity": 107, "duration": 1019}, {"note": 0, "velocity": 0, "duration": 421}, {"note": 63, "velocity": 112, "duration": 144}, {"note": 0, "velocity": 0, "duration": 96}, {"note": 75, "velocity": 127, "duration": 190}, {"note": 74, "velocity": 127, "duration": 168}, {"note": 0, "velocity": 0, "duration": 72}, {"note": 72, "velocity": 127, "duration": 356}, {"note": 0, "velocity": 0, "duration": 364}, {"note": 67, "velocity": 127, "duration": 153}, {"note": 0, "velocity": 0, "duration": 87}, {"note": 65, "velocity": 127, "duration": 211}, {"note": 67, "velocity": 122, "duration": 207}, {"note": 74, "velocity": 127, "duration": 247}, {"note": 0, "velocity": 0, "duration": 233}, {"note": 72, "velocity": 127, "duration": 211}, {"note": 70, "velocity": 112, "duration": 250}, {"note": 0, "velocity": 0, "duration": 350}, {"note": 70, "velocity": 89, "duration": 127}, {"note": 75, "velocity": 127, "duration": 194}, {"note": 77, "velocity": 127, "duration": 68}, {"note": 77, "velocity": 96, "duration": 150}, {"note": 0, "velocity": 0, "duration": 90}, {"note": 79, "velocity": 127, "duration": 265}, {"note": 0, "velocity": 0, "duration": 95}, {"note": 72, "velocity": 122, "duration": 198}, {"note": 72, "velocity": 127, "duration": 77}, {"note": 0, "velocity": 0, "duration": 163}, {"note": 74, "velocity": 127, "duration": 83}, {"note": 75, "velocity": 127, "duration": 174}, {"note": 0, "velocity": 0, "duration": 186}, {"note": 75, "velocity": 127, "duration": 337}, {"note": 0, "velocity": 0, "duration": 143}, {"note": 74, "velocity": 97, "duration": 1221}, {"note": 0, "velocity": 0, "duration": 219}, {"note": 75, "velocity": 127, "duration": 2331}]]