[[{"note": 59, "velocity": 112, "duration": 567}, {"note": 0, "velocity": 0, "duration": 153}, {"note": 66, "velocity": 102, "duration": 166}, {"note": 0, "velocity": 0, "duration": 74}, {"note": 64, "velocity": 96, "duration": 206}, {"note": 66, "velocity": 112, "duration": 127}, {"note": 0, "velocity": 0, "duration": 113}, {"note": 62, "velocity": 99, "duration": 167}, {"note": 0, "velocity": 0, "duration": 73}, {"note": 61, "velocity": 95, "duration": 155}, {"note": 0, "velocity": 0, "duration": 85}, {"note": 59, "velocity": 96, "duration": 1025}, {"note": 0, "velocity": 0, "duration": 895}, {"note": 66, "velocity": 117, "duration": 177}, {"note": 0, "velocity": 0, "duration": 63}, {"note": 71, "velocity": 107, "duration": 318}, {"note": 0, "velocity": 0, "duration": 162}, {"note": 69, "velocity": 102, "duration": 155}, {"note": 0, "velocity": 0, "duration": 85}, {"note": 66, "velocity": 95, "duration": 194}, {"note": 64, "velocity": 99, "duration": 96}, {"note": 0, "velocity": 0, "duration": 144}, {"note": 62, "velocity": 95, "duration": 105}, {"note": 0, "velocity": 0, "duration": 135}, {"note": 64, "velocity": 89, "duration": 117}, {"note": 0, "velocity": 0, "duration": 123}, {"note": 66, "velocity": 117, "duration": 942}, {"note": 0, "velocity": 0, "duration": 498}, {"note": 66, "velocity": 117, "duration": 157}, {"note": 0, "velocity": 0, "duration": 83}, {"note": 69, "velocity": 112, "duration": 131}, {"note": 0, "velocity": 0, "duration": 109}, {"note": 71, "velocity": 127, "duration": 467}, {"note": 0, "velocity": 0, "duration": 253}, {"note": 74, "velocity": 107, "duration": 158}, {"note": 0, "velocity": 0, "duration": 82}, {"note": 71, "velocity": 107, "duration": 267}, {"note": 69, "velocity": 100, "duration": 147}, {"note": 0, "velocity": 0, "duration": 93}, {"note": 66, "velocity": 117, "duration": 148}, {"note": 0, "velocity": 0, "duration": 92}, {"note": 64, "velocity": 90, "duration": 135}, {"note": 0, "velocity": 0, "duration": 105}, {"note": 62, "velocity": 99, "duration": 157}, {"note": 0, "velocity": 0, "duration": 83}, {"note": 62, "velocity": 97, "duration": 472}, {"note": 64, "velocity": 96, "duration": 158}, {"note": 0, "velocity": 0, "duration": 82}, {"note": 66, "velocity": 112, "duration": 316}, {"note": 0, "velocity": 0, "duration": 644}, {"note": 64, "velocity": 117, "duration": 502}, {"note": 0, "velocity": 0, "duration": 218}, {"note": 66, "velocity": 102, "duration": 119}, {"note": 0, "velocity": 0, "duration": 121}, {"note": 61, "velocity": 107, "duration": 214}, {"note": 59, "velocity": 92, "duration": 171}, {"note": 0, "velocity": 0, "duration": 69}, {"note": 57, "velocity": 100, "duration": 415}, {"note": 0, "velocity": 0, "duration": 65}, {"note": 59, "velocity": 102, "duration": 969}, {"note": 0, "velocity": 0, "duration": 951}, {"note": 59, "velocity": 112, "duration": 567}, {"note": 0, "velocity": 0, "duration": 153}, {"note": 66, "velocity": 102, "duration": 166}, {"note": 0, "velocity": 0, "duration": 74}, {"note": 64, "velocity": 96, "duration": 206}, {"note": 66, "velocity": 112, "duration": 127}, {"note": 0, "velocity": 0, "duration": 113}, {"note": 62, "velocity": 99, "duration": 167}, {"note": 0, "velocity": 0, "duration": 73}, {"note": 61, "velocity": 95, "duration": 155}, {"note": 0, "velocity": 0, "duration": 85}, {"note": 59, "velocity": 96, "duration": 1025}, {"note": 0, "velocity": 0, "duration": 895}, {"note": 66, "velocity": 117, "duration": 177}, {"note": 0, "velocity": 0, "duration": 63}, {"note": 71, "velocity": 107, "duration": 318}, {"note": 0, "velocity": 0, "duration": 162}, {"note": 69, "velocity": 102, "duration": 155}, {"note": 0, "velocity": 0, "duration": 85}, {"note": 66, "velocity": 95, "duration": 194}, {"note": 64, "velocity": 99, "duration": 96}, {"note": 0, "velocity": 0, "duration": 144}, {"note": 62, "velocity": 95, "duration": 105}, {"note": 0, "velocity": 0, "duration": 135}, {"note": 64, "velocity": 89, "duration": 117}, {"note": 0, "velocity": 0, "duration": 123}, {"note": 66, "velocity": 117, "duration": 942}, {"note": 0, "velocity": 0, "duration": 498}, {"note": 66, "velocity": 117, "duration": 157}, {"note": 0, "velocity": 0, "duration": 83}, {"note": 69, "velocity": 112, "duration": 131}, {"note": 0, "velocity": 0, "duration": 109}, {"note": 71, "velocity": 127, "duration": 467}, {"note": 0, "velocity": 0, "duration": 253}, {"note": 74, "velocity": 107, "duration": 158}, {"note": 0, "velocity": 0, "duration": 82}, {"note": 71, "velocity": 107, "duration": 267}, {"note": 69, "velocity": 116, "duration": 147}, {"note": 0, "velocity": 0, "duration": 93}, {"note": 66, "velocity": 117, "duration": 148}, {"note": 0, "velocity": 0, "duration": 92}, {"note": 64, "velocity": 90, "duration": 135}, {"note": 0, "velocity": 0, "duration": 105}, {"note": 62, "velocity": 99, "duration": 157}, {"note": 0, "velocity": 0, "duration": 83}, {"note": 62, "velocity": 97, "duration": 472}, {"note": 64, "velocity": 96, "duration": 158}, {"note": 0, "velocity": 0, "duration": 82}, {"note": 66, "velocity": 112, "duration": 316}, {"note": 0, "velocity": 0, "duration": 644}, {"note": 64, "velocity": 117, "duration": 502}, {"note": 0, "velocity": 0, "duration": 218}, {"note": 66, "velocity": 102, "duration": 119}, {"note": 0, "velocity": 0, "duration": 121}, {"note": 61, "velocity": 107, "duration": 214}, {"note": 59, "velocity": 92, "duration": 171}, {"note": 0, "velocity": 0, "duration": 69}, {"note": 57, "velocity": 100, "duration": 415}, {"note": 0, "velocity": 0, "duration": 65}, {"note": 59, "velocity": 102, "duration": 969}, {"note": 0, "velocity": 0, "duration": 711}, {"note": 66, "velocity": 127, "duration": 111}, {"note": 0, "velocity": 0, "duration": 129}, {"note": 69, "velocity": 122, "duration": 528}, {"note": 0, "velocity": 0, "duration": 192}, {"note": 66, "velocity": 127, "duration": 89}, {"note": 0, "velocity": 0, "duration": 151}, {"note": 66, "velocity": 127, "duration": 376}, {"note": 0, "velocity": 0, "duration": 344}, {"note": 66, "velocity": 112, "duration": 106}, {"note": 0, "velocity": 0, "duration": 134}, {"note": 74, "velocity": 127, "duration": 358}, {"note": 0, "velocity": 0, "duration": 362}, {"note": 71, "velocity": 127, "duration": 104}, {"note": 0, "velocity": 0, "duration": 136}, {"note": 71, "velocity": 127, "duration": 186}, {"note": 0, "velocity": 0, "duration": 294}, {"note": 71, "velocity": 122, "duration": 139}, {"note": 0, "velocity": 0, "duration": 101}, {"note": 73, "velocity": 122, "duration": 109}, {"note": 0, "velocity": 0, "duration": 131}, {"note": 71, "velocity": 127, "duration": 328}, {"note": 0, "velocity": 0, "duration": 152}, {"note": 69, "velocity": 115, "duration": 364}, {"note": 0, "velocity": 0, "duration": 116}, {"note": 62, "velocity": 127, "duration": 225}, {"note": 0, "velocity": 0, "duration": 255}, {"note": 64, "velocity": 122, "duration": 209}, {"note": 62, "velocity": 96, "duration": 213}, {"note": 66, "velocity": 127, "duration": 919}, {"note": 0, "velocity": 0, "duration": 761}, {"note": 66, "velocity": 117, "duration": 120}, {"note": 0, "velocity": 0, "duration": 120}, {"note": 74, "velocity": 127, "duration": 472}, {"note": 0, "velocity": 0, "duration": 248}, {"note": 71, "velocity": 127, "duration": 157}, {"note": 0, "velocity": 0, "duration": 83}, {"note": 71, "velocity": 127, "duration": 420}, {"note": 0, "velocity": 0, "duration": 300}, {"note": 71, "velocity": 112, "duration": 158}, {"note": 0, "velocity": 0, "duration": 82}, {"note": 74, "velocity": 127, "duration": 532}, {"note": 0, "velocity": 0, "duration": 188}, {"note": 76, "velocity": 127, "duration": 146}, {"note": 0, "velocity": 0, "duration": 94}, {"note": 78, "velocity": 127, "duration": 1191}, {"note": 0, "velocity": 0, "duration": 249}, {"note": 78, "velocity": 127, "duration": 181}, {"note": 76, "velocity": 93, "duration": 134}, {"note": 0, "velocity": 0, "duration": 106}, {"note": 73, "velocity": 112, "duration": 477}, {"note": 0, "velocity": 0, "duration": 243}, {"note": 69, "velocity": 107, "duration": 162}, {"note": 0, "velocity": 0, "duration": 78}, {"note": 71, "velocity": 117, "duration": 1008}, {"note": 0, "velocity": 0, "duration": 912}, {"note": 59, "velocity": 112, "duration": 567}, {"note": 0, "velocity": 0, "duration": 153}, {"note": 66, "velocity": 102, "duration": 166}, {"note": 0, "velocity": 0, "duration": 74}, {"note": 64, "velocity": 96, "duration": 206}, {"note": 66, "velocity": 112, "duration": 127}, {"note": 0, "velocity": 0, "duration": 113}, {"note": 62, "velocity": 99, "duration": 167}, {"note": 0, "velocity": 0, "duration": 73}, {"note": 61, "velocity": 95, "duration": 155}, {"note": 0, "velocity": 0, "duration": 85}, {"note": 59, "velocity": 96, "duration": 1025}, {"note": 0, "velocity": 0, "duration": 895}, {"note": 66, "velocity": 117, "duration": 177}, {"note": 0, "velocity": 0, "duration": 63}, {"note": 71, "velocity": 107, "duration": 318}, {"note": 0, "velocity": 0, "duration": 162}, {"note": 69, "velocity": 102, "duration": 155}, {"note": 0, "velocity": 0, "duration": 85}, {"note": 66, "velocity": 95, "duration": 194}, {"note": 64, "velocity": 99, "duration": 96}, {"note": 0, "velocity": 0, "duration": 144}, {"note": 62, "velocity": 95, "duration": 105}, {"note": 0, "velocity": 0, "duration": 135}, {"note": 64, "velocity": 89, "duration": 117}, {"note": 0, "velocity": 0, "duration": 123}, {"note": 66, "velocity": 117, "duration": 942}, {"note": 0, "velocity": 0, "duration": 498}, {"note": 66, "velocity": 117, "duration": 157}, {"note": 0, "velocity": 0, "duration": 83}, {"note": 69, "velocity": 112, "duration": 131}, {"note": 0, "velocity": 0, "duration": 109}, {"note": 71, "velocity": 127, "duration": 467}, {"note": 0, "velocity": 0, "duration": 253}, {"note": 74, "velocity": 107, "duration": 158}, {"note": 0, "velocity": 0, "duration": 82}, {"note": 71, "velocity": 107, "duration": 267}, {"note": 69, "velocity": 100, "duration": 147}, {"note": 0, "velocity": 0, "duration": 93}, {"note": 66, "velocity": 117, "duration": 148}, {"note": 0, "velocity": 0, "duration": 92}, {"note": 64, "velocity": 90, "duration": 135}, {"note": 0, "velocity": 0, "duration": 105}, {"note": 62, "velocity": 99, "duration": 157}, {"note": 0, "velocity": 0, "duration": 83}, {"note": 62, "velocity": 97, "duration": 472}, {"note": 64, "velocity": 96, "duration": 158}, {"note": 0, "velocity": 0, "duration": 82}, {"note": 66, "velocity": 112, "duration": 316}, {"note": 0, "velocity": 0, "duration": 644}, {"note": 64, "velocity": 117, "duration": 502}, {"note": 0, "velocity": 0, "duration": 218}, {"note": 66, "velocity": 102, "duration": 119}, {"note": 0, "velocity": 0, "duration": 121}, {"note": 61, "velocity": 107, "duration": 214}, {"note": 59, "velocity": 92, "duration": 171}, {"note": 0, "velocity": 0, "duration": 69}, {"note": 57, "velocity": 100, "duration": 415}, {"note": 0, "velocity": 0, "duration": 65}, {"note": 59, "velocity": 102, "duration": 969}, {"note": 0, "velocity": 0, "duration": 16071}, {"note": 66, "velocity": 127, "duration": 111}, {"note": 0, "velocity": 0, "duration": 129}, {"note": 69, "velocity": 122, "duration": 528}, {"note": 0, "velocity": 0, "duration": 192}, {"note": 66, "velocity": 127, "duration": 89}, {"note": 0, "velocity": 0, "duration": 151}, {"note": 66, "velocity": 127, "duration": 376}, {"note": 0, "velocity": 0, "duration": 344}, {"note": 66, "velocity": 112, "duration": 106}, {"note": 0, "velocity": 0, "duration": 134}, {"note": 74, "velocity": 127, "duration": 358}, {"note": 0, "velocity": 0, "duration": 362}, {"note": 71, "velocity": 127, "duration": 104}, {"note": 0, "velocity": 0, "duration": 136}, {"note": 71, "velocity": 127, "duration": 186}, {"note": 0, "velocity": 0, "duration": 294}, {"note": 71, "velocity": 122, "duration": 139}, {"note": 0, "velocity": 0, "duration": 101}, {"note": 73, "velocity": 122, "duration": 109}, {"note": 0, "velocity": 0, "duration": 131}, {"note": 71, "velocity": 127, "duration": 328}, {"note": 0, "velocity": 0, "duration": 152}, {"note": 69, "velocity": 115, "duration": 364}, {"note": 0, "velocity": 0, "duration": 116}, {"note": 62, "velocity": 127, "duration": 225}, {"note": 0, "velocity": 0, "duration": 255}, {"note": 64, "velocity": 122, "duration": 209}, {"note": 62, "velocity": 96, "duration": 213}, {"note": 66, "velocity": 127, "duration": 919}, {"note": 0, "velocity": 0, "duration": 761}, {"note": 66, "velocity": 117, "duration": 120}, {"note": 0, "velocity": 0, "duration": 120}, {"note": 74, "velocity": 127, "duration": 472}, {"note": 0, "velocity": 0, "duration": 248}, {"note": 71, "velocity": 127, "duration": 157}, {"note": 0, "velocity": 0, "duration": 83}, {"note": 71, "velocity": 127, "duration": 420}, {"note": 0, "velocity": 0, "duration": 300}, {"note": 71, "velocity": 112, "duration": 158}, {"note": 0, "velocity": 0, "duration": 82}, {"note": 74, "velocity": 127, "duration": 532}, {"note": 0, "velocity": 0, "duration": 188}, {"note": 76, "velocity": 127, "duration": 146}, {"note": 0, "velocity": 0, "duration": 94}, {"note": 78, "velocity": 127, "duration": 1191}, {"note": 0, "velocity": 0, "duration": 249}, {"note": 78, "velocity": 127, "duration": 181}, {"note": 76, "velocity": 93, "duration": 134}, {"note": 0, "velocity": 0, "duration": 106}, {"note": 73, "velocity": 112, "duration": 477}, {"note": 0, "velocity": 0, "duration": 243}, {"note": 69, "velocity": 107, "duration": 162}, {"note": 0, "velocity": 0, "duration": 78}, {"note": 71, "velocity": 117, "duration": 1008}, {"note": 0, "velocity": 0, "duration": 912}, {"note": 59, "velocity": 112, "duration": 567}, {"note": 0, "velocity": 0, "duration": 153}, {"note": 66, "velocity": 102, "duration": 166}, {"note": 0, "velocity": 0, "duration": 74}, {"note": 64, "velocity": 96, "duration": 206}, {"note": 66, "velocity": 112, "duration": 127}, {"note": 0, "velocity": 0, "duration": 113}, {"note": 62, "velocity": 99, "duration": 167}, {"note": 0, "velocity": 0, "duration": 73}, {"note": 61, "velocity": 95, "duration": 155}, {"note": 0, "velocity": 0, "duration": 85}, {"note": 59, "velocity": 96, "duration": 1025}, {"note": 0, "velocity": 0, "duration": 895}, {"note": 66, "velocity": 117, "duration": 177}, {"note": 0, "velocity": 0, "duration": 63}, {"note": 71, "velocity": 107, "duration": 318}, {"note": 0, "velocity": 0, "duration": 162}, {"note": 69, "velocity": 102, "duration": 155}, {"note": 0, "velocity": 0, "duration": 85}, {"note": 66, "velocity": 95, "duration": 194}, {"note": 64, "velocity": 99, "duration": 96}, {"note": 0, "velocity": 0, "duration": 144}, {"note": 62, "velocity": 95, "duration": 105}, {"note": 0, "velocity": 0, "duration": 135}, {"note": 64, "velocity": 89, "duration": 117}, {"note": 0, "velocity": 0, "duration": 123}, {"note": 66, "velocity": 117, "duration": 942}, {"note": 0, "velocity": 0, "duration": 498}, {"note": 66, "velocity": 117, "duration": 157}, {"note": 0, "velocity": 0, "duration": 83}, {"note": 69, "velocity": 112, "duration": 131}, {"note": 0, "velocity": 0, "duration": 109}, {"note": 71, "velocity": 127, "duration": 467}, {"note": 0, "velocity": 0, "duration": 253}, {"note": 74, "velocity": 107, "duration": 158}, {"note": 0, "velocity": 0, "duration": 82}, {"note": 71, "velocity": 107, "duration": 267}, {"note": 69, "velocity": 100, "duration": 147}, {"note": 0, "velocity": 0, "duration": 93}, {"note": 66, "velocity": 117, "duration": 148}, {"note": 0, "velocity": 0, "duration": 92}, {"note": 64, "velocity": 90, "duration": 135}, {"note": 0, "velocity": 0, "duration": 105}, {"note": 62, "velocity": 99, "duration": 157}, {"note": 0, "velocity": 0, "duration": 83}, {"note": 62, "velocity": 97, "duration": 472}, {"note": 64, "velocity": 96, "duration": 158}, {"note": 0, "velocity": 0, "duration": 82}, {"note": 66, "velocity": 112, "duration": 316}, {"note": 0, "velocity": 0, "duration": 644}, {"note": 64, "velocity": 117, "duration": 502}, {"note": 0, "velocity": 0, "duration": 218}, {"note": 66, "velocity": 102, "duration": 119}, {"note": 0, "velocity": 0, "duration": 121}, {"note": 73, "velocity": 107, "duration": 214}, {"note": 71, "velocity": 92, "duration": 171}, {"note": 0, "velocity": 0, "duration": 69}, {"note": 69, "velocity": 100, "duration": 415}, {"note": 0, "velocity": 0, "duration": 65}, {"note": 71, "velocity": 102, "duration": 969}]]