[[{"note": 63, "velocity": 127, "duration": 62}, {"note": 0, "velocity": 0, "duration": 178}, {"note": 63, "velocity": 122, "duration": 70}, {"note": 0, "velocity": 0, "duration": 170}, {"note": 63, "velocity": 117, "duration": 94}, {"note": 0, "velocity": 0, "duration": 146}, {"note": 63, "velocity": 122, "duration": 94}, {"note": 0, "velocity": 0, "duration": 146}, {"note": 62, "velocity": 112, "duration": 184}, {"note": 65, "velocity": 117, "duration": 138}, {"note": 0, "velocity": 0, "duration": 102}, {"note": 65, "velocity": 117, "duration": 171}, {"note": 0, "velocity": 0, "duration": 69}, {"note": 63, "velocity": 97, "duration": 236}, {"note": 60, "velocity": 97, "duration": 556}, {"note": 0, "velocity": 0, "duration": 1364}, {"note": 60, "velocity": 100, "duration": 158}, {"note": 0, "velocity": 0, "duration": 82}, {"note": 60, "velocity": 117, "duration": 140}, {"note": 0, "velocity": 0, "duration": 100}, {"note": 60, "velocity": 117, "duration": 138}, {"note": 0, "velocity": 0, "duration": 102}, {"note": 67, "velocity": 117, "duration": 160}, {"note": 0, "velocity": 0, "duration": 80}, {"note": 65, "velocity": 122, "duration": 162}, {"note": 0, "velocity": 0, "duration": 78}, {"note": 65, "velocity": 112, "duration": 150}, {"note": 0, "velocity": 0, "duration": 90}, {"note": 65, "velocity": 117, "duration": 152}, {"note": 0, "velocity": 0, "duration": 88}, {"note": 60, "velocity": 112, "duration": 178}, {"note": 0, "velocity": 0, "duration": 62}, {"note": 67, "velocity": 127, "duration": 496}, {"note": 0, "velocity": 0, "duration": 944}, {"note": 67, "velocity": 127, "duration": 180}, {"note": 65, "velocity": 122, "duration": 154}, {"note": 0, "velocity": 0, "duration": 86}, {"note": 67, "velocity": 117, "duration": 134}, {"note": 0, "velocity": 0, "duration": 106}, {"note": 60, "velocity": 117, "duration": 162}, {"note": 0, "velocity": 0, "duration": 78}, {"note": 60, "velocity": 102, "duration": 144}, {"note": 0, "velocity": 0, "duration": 96}, {"note": 67, "velocity": 112, "duration": 157}, {"note": 0, "velocity": 0, "duration": 83}, {"note": 65, "velocity": 122, "duration": 273}, {"note": 0, "velocity": 0, "duration": 207}, {"note": 63, "velocity": 122, "duration": 157}, {"note": 0, "velocity": 0, "duration": 83}, {"note": 65, "velocity": 96, "duration": 149}, {"note": 0, "velocity": 0, "duration": 91}, {"note": 67, "velocity": 117, "duration": 165}, {"note": 0, "velocity": 0, "duration": 75}, {"note": 60, "velocity": 97, "duration": 148}, {"note": 0, "velocity": 0, "duration": 92}, {"note": 60, "velocity": 107, "duration": 127}, {"note": 0, "velocity": 0, "duration": 113}, {"note": 58, "velocity": 112, "duration": 170}, {"note": 0, "velocity": 0, "duration": 70}, {"note": 60, "velocity": 127, "duration": 199}, {"note": 0, "velocity": 0, "duration": 761}, {"note": 63, "velocity": 127, "duration": 153}, {"note": 0, "velocity": 0, "duration": 87}, {"note": 62, "velocity": 102, "duration": 136}, {"note": 0, "velocity": 0, "duration": 104}, {"note": 60, "velocity": 99, "duration": 149}, {"note": 0, "velocity": 0, "duration": 91}, {"note": 58, "velocity": 107, "duration": 165}, {"note": 0, "velocity": 0, "duration": 75}, {"note": 62, "velocity": 127, "duration": 242}, {"note": 0, "velocity": 0, "duration": 118}, {"note": 63, "velocity": 112, "duration": 164}, {"note": 0, "velocity": 0, "duration": 196}, {"note": 62, "velocity": 107, "duration": 256}, {"note": 0, "velocity": 0, "duration": 224}, {"note": 60, "velocity": 99, "duration": 1300}, {"note": 0, "velocity": 0, "duration": 380}, {"note": 63, "velocity": 127, "duration": 118}, {"note": 0, "velocity": 0, "duration": 122}, {"note": 63, "velocity": 127, "duration": 109}, {"note": 0, "velocity": 0, "duration": 131}, {"note": 63, "velocity": 122, "duration": 130}, {"note": 0, "velocity": 0, "duration": 110}, {"note": 63, "velocity": 127, "duration": 118}, {"note": 0, "velocity": 0, "duration": 122}, {"note": 65, "velocity": 117, "duration": 193}, {"note": 63, "velocity": 112, "duration": 115}, {"note": 0, "velocity": 0, "duration": 125}, {"note": 63, "velocity": 122, "duration": 191}, {"note": 60, "velocity": 99, "duration": 168}, {"note": 0, "velocity": 0, "duration": 72}, {"note": 60, "velocity": 112, "duration": 1434}, {"note": 0, "velocity": 0, "duration": 486}, {"note": 60, "velocity": 107, "duration": 155}, {"note": 0, "velocity": 0, "duration": 85}, {"note": 60, "velocity": 100, "duration": 158}, {"note": 0, "velocity": 0, "duration": 82}, {"note": 60, "velocity": 107, "duration": 135}, {"note": 0, "velocity": 0, "duration": 105}, {"note": 67, "velocity": 107, "duration": 193}, {"note": 65, "velocity": 112, "duration": 168}, {"note": 0, "velocity": 0, "duration": 72}, {"note": 65, "velocity": 112, "duration": 175}, {"note": 0, "velocity": 0, "duration": 65}, {"note": 65, "velocity": 99, "duration": 137}, {"note": 0, "velocity": 0, "duration": 103}, {"note": 58, "velocity": 100, "duration": 237}, {"note": 67, "velocity": 112, "duration": 565}, {"note": 0, "velocity": 0, "duration": 875}, {"note": 67, "velocity": 122, "duration": 185}, {"note": 65, "velocity": 112, "duration": 163}, {"note": 0, "velocity": 0, "duration": 77}, {"note": 63, "velocity": 122, "duration": 180}, {"note": 63, "velocity": 122, "duration": 95}, {"note": 60, "velocity": 102, "duration": 98}, {"note": 60, "velocity": 107, "duration": 172}, {"note": 0, "velocity": 0, "duration": 68}, {"note": 63, "velocity": 112, "duration": 179}, {"note": 0, "velocity": 0, "duration": 61}, {"note": 65, "velocity": 127, "duration": 160}, {"note": 0, "velocity": 0, "duration": 320}, {"note": 63, "velocity": 127, "duration": 167}, {"note": 0, "velocity": 0, "duration": 73}, {"note": 65, "velocity": 122, "duration": 162}, {"note": 0, "velocity": 0, "duration": 78}, {"note": 67, "velocity": 127, "duration": 198}, {"note": 60, "velocity": 117, "duration": 169}, {"note": 0, "velocity": 0, "duration": 71}, {"note": 60, "velocity": 100, "duration": 157}, {"note": 0, "velocity": 0, "duration": 83}, {"note": 58, "velocity": 102, "duration": 180}, {"note": 60, "velocity": 112, "duration": 491}, {"note": 0, "velocity": 0, "duration": 469}, {"note": 63, "velocity": 127, "duration": 195}, {"note": 62, "velocity": 97, "duration": 198}, {"note": 60, "velocity": 112, "duration": 185}, {"note": 70, "velocity": 127, "duration": 214}, {"note": 62, "velocity": 112, "duration": 436}, {"note": 63, "velocity": 117, "duration": 269}, {"note": 0, "velocity": 0, "duration": 91}, {"note": 62, "velocity": 112, "duration": 314}, {"note": 0, "velocity": 0, "duration": 166}, {"note": 60, "velocity": 112, "duration": 1010}, {"note": 0, "velocity": 0, "duration": 190}, {"note": 63, "velocity": 122, "duration": 187}, {"note": 65, "velocity": 117, "duration": 164}, {"note": 0, "velocity": 0, "duration": 76}, {"note": 67, "velocity": 127, "duration": 438}, {"note": 70, "velocity": 127, "duration": 140}, {"note": 0, "velocity": 0, "duration": 100}, {"note": 72, "velocity": 122, "duration": 158}, {"note": 0, "velocity": 0, "duration": 82}, {"note": 70, "velocity": 127, "duration": 140}, {"note": 0, "velocity": 0, "duration": 100}, {"note": 67, "velocity": 122, "duration": 168}, {"note": 0, "velocity": 0, "duration": 72}, {"note": 65, "velocity": 122, "duration": 162}, {"note": 0, "velocity": 0, "duration": 78}, {"note": 63, "velocity": 127, "duration": 175}, {"note": 0, "velocity": 0, "duration": 65}, {"note": 67, "velocity": 117, "duration": 1002}, {"note": 0, "velocity": 0, "duration": 438}, {"note": 63, "velocity": 127, "duration": 197}, {"note": 65, "velocity": 127, "duration": 162}, {"note": 0, "velocity": 0, "duration": 78}, {"note": 67, "velocity": 127, "duration": 315}, {"note": 0, "velocity": 0, "duration": 165}, {"note": 70, "velocity": 127, "duration": 135}, {"note": 0, "velocity": 0, "duration": 105}, {"note": 72, "velocity": 127, "duration": 157}, {"note": 0, "velocity": 0, "duration": 83}, {"note": 70, "velocity": 127, "duration": 129}, {"note": 0, "velocity": 0, "duration": 111}, {"note": 67, "velocity": 127, "duration": 163}, {"note": 0, "velocity": 0, "duration": 77}, {"note": 65, "velocity": 127, "duration": 159}, {"note": 0, "velocity": 0, "duration": 81}, {"note": 63, "velocity": 122, "duration": 177}, {"note": 0, "velocity": 0, "duration": 63}, {"note": 60, "velocity": 117, "duration": 836}, {"note": 0, "velocity": 0, "duration": 604}, {"note": 63, "velocity": 127, "duration": 168}, {"note": 0, "velocity": 0, "duration": 72}, {"note": 65, "velocity": 122, "duration": 161}, {"note": 0, "velocity": 0, "duration": 79}, {"note": 67, "velocity": 127, "duration": 200}, {"note": 65, "velocity": 102, "duration": 153}, {"note": 0, "velocity": 0, "duration": 87}, {"note": 65, "velocity": 112, "duration": 148}, {"note": 0, "velocity": 0, "duration": 92}, {"note": 63, "velocity": 117, "duration": 163}, {"note": 0, "velocity": 0, "duration": 77}, {"note": 65, "velocity": 117, "duration": 249}, {"note": 0, "velocity": 0, "duration": 231}, {"note": 63, "velocity": 127, "duration": 174}, {"note": 0, "velocity": 0, "duration": 66}, {"note": 65, "velocity": 112, "duration": 180}, {"note": 67, "velocity": 117, "duration": 170}, {"note": 0, "velocity": 0, "duration": 70}, {"note": 60, "velocity": 102, "duration": 152}, {"note": 0, "velocity": 0, "duration": 88}, {"note": 60, "velocity": 117, "duration": 168}, {"note": 0, "velocity": 0, "duration": 72}, {"note": 58, "velocity": 102, "duration": 158}, {"note": 0, "velocity": 0, "duration": 82}, {"note": 60, "velocity": 127, "duration": 282}, {"note": 0, "velocity": 0, "duration": 678}, {"note": 63, "velocity": 127, "duration": 181}, {"note": 62, "velocity": 127, "duration": 184}, {"note": 60, "velocity": 112, "duration": 149}, {"note": 0, "velocity": 0, "duration": 91}, {"note": 70, "velocity": 127, "duration": 171}, {"note": 0, "velocity": 0, "duration": 69}, {"note": 62, "velocity": 122, "duration": 437}, {"note": 63, "velocity": 122, "duration": 154}, {"note": 0, "velocity": 0, "duration": 206}, {"note": 65, "velocity": 107, "duration": 166}, {"note": 0, "velocity": 0, "duration": 74}, {"note": 63, "velocity": 127, "duration": 1209}, {"note": 0, "velocity": 0, "duration": 231}, {"note": 63, "velocity": 122, "duration": 187}, {"note": 65, "velocity": 117, "duration": 164}, {"note": 0, "velocity": 0, "duration": 76}, {"note": 67, "velocity": 127, "duration": 438}, {"note": 70, "velocity": 127, "duration": 140}, {"note": 0, "velocity": 0, "duration": 100}, {"note": 72, "velocity": 122, "duration": 158}, {"note": 0, "velocity": 0, "duration": 82}, {"note": 70, "velocity": 127, "duration": 140}, {"note": 0, "velocity": 0, "duration": 100}, {"note": 67, "velocity": 122, "duration": 168}, {"note": 0, "velocity": 0, "duration": 72}, {"note": 65, "velocity": 122, "duration": 162}, {"note": 0, "velocity": 0, "duration": 78}, {"note": 63, "velocity": 127, "duration": 175}, {"note": 0, "velocity": 0, "duration": 65}, {"note": 67, "velocity": 117, "duration": 1002}, {"note": 0, "velocity": 0, "duration": 438}, {"note": 63, "velocity": 127, "duration": 197}, {"note": 65, "velocity": 127, "duration": 162}, {"note": 0, "velocity": 0, "duration": 78}, {"note": 67, "velocity": 127, "duration": 315}, {"note": 0, "velocity": 0, "duration": 165}, {"note": 70, "velocity": 127, "duration": 135}, {"note": 0, "velocity": 0, "duration": 105}, {"note": 72, "velocity": 127, "duration": 157}, {"note": 0, "velocity": 0, "duration": 83}, {"note": 70, "velocity": 127, "duration": 129}, {"note": 0, "velocity": 0, "duration": 111}, {"note": 67, "velocity": 127, "duration": 163}, {"note": 0, "velocity": 0, "duration": 77}, {"note": 65, "velocity": 127, "duration": 159}, {"note": 0, "velocity": 0, "duration": 81}, {"note": 63, "velocity": 122, "duration": 177}, {"note": 0, "velocity": 0, "duration": 63}, {"note": 60, "velocity": 117, "duration": 1174}, {"note": 0, "velocity": 0, "duration": 266}, {"note": 63, "velocity": 127, "duration": 168}, {"note": 0, "velocity": 0, "duration": 72}, {"note": 65, "velocity": 122, "duration": 161}, {"note": 0, "velocity": 0, "duration": 79}, {"note": 67, "velocity": 127, "duration": 200}, {"note": 65, "velocity": 102, "duration": 153}, {"note": 0, "velocity": 0, "duration": 87}, {"note": 65, "velocity": 112, "duration": 148}, {"note": 0, "velocity": 0, "duration": 92}, {"note": 63, "velocity": 117, "duration": 163}, {"note": 0, "velocity": 0, "duration": 77}, {"note": 65, "velocity": 117, "duration": 249}, {"note": 0, "velocity": 0, "duration": 231}, {"note": 63, "velocity": 127, "duration": 174}, {"note": 0, "velocity": 0, "duration": 66}, {"note": 65, "velocity": 112, "duration": 180}, {"note": 67, "velocity": 117, "duration": 170}, {"note": 0, "velocity": 0, "duration": 70}, {"note": 60, "velocity": 102, "duration": 152}, {"note": 0, "velocity": 0, "duration": 88}, {"note": 60, "velocity": 117, "duration": 168}, {"note": 0, "velocity": 0, "duration": 72}, {"note": 58, "velocity": 102, "duration": 158}, {"note": 0, "velocity": 0, "duration": 82}, {"note": 60, "velocity": 127, "duration": 282}, {"note": 0, "velocity": 0, "duration": 678}, {"note": 63, "velocity": 127, "duration": 181}, {"note": 62, "velocity": 127, "duration": 184}, {"note": 60, "velocity": 112, "duration": 149}, {"note": 0, "velocity": 0, "duration": 91}, {"note": 70, "velocity": 127, "duration": 171}, {"note": 0, "velocity": 0, "duration": 69}, {"note": 62, "velocity": 122, "duration": 437}, {"note": 0, "velocity": 0, "duration": 283}, {"note": 58, "velocity": 107, "duration": 412}, {"note": 0, "velocity": 0, "duration": 68}, {"note": 60, "velocity": 97, "duration": 1143}, {"note": 0, "velocity": 0, "duration": 8217}, {"note": 63, "velocity": 127, "duration": 118}, {"note": 0, "velocity": 0, "duration": 122}, {"note": 63, "velocity": 127, "duration": 109}, {"note": 0, "velocity": 0, "duration": 131}, {"note": 63, "velocity": 122, "duration": 130}, {"note": 0, "velocity": 0, "duration": 110}, {"note": 63, "velocity": 127, "duration": 118}, {"note": 0, "velocity": 0, "duration": 122}, {"note": 65, "velocity": 117, "duration": 193}, {"note": 63, "velocity": 112, "duration": 115}, {"note": 0, "velocity": 0, "duration": 125}, {"note": 63, "velocity": 122, "duration": 191}, {"note": 60, "velocity": 99, "duration": 168}, {"note": 0, "velocity": 0, "duration": 72}, {"note": 60, "velocity": 112, "duration": 1434}, {"note": 0, "velocity": 0, "duration": 486}, {"note": 60, "velocity": 107, "duration": 155}, {"note": 0, "velocity": 0, "duration": 85}, {"note": 60, "velocity": 100, "duration": 158}, {"note": 0, "velocity": 0, "duration": 82}, {"note": 60, "velocity": 107, "duration": 135}, {"note": 0, "velocity": 0, "duration": 105}, {"note": 67, "velocity": 107, "duration": 193}, {"note": 65, "velocity": 112, "duration": 168}, {"note": 0, "velocity": 0, "duration": 72}, {"note": 65, "velocity": 112, "duration": 175}, {"note": 0, "velocity": 0, "duration": 65}, {"note": 65, "velocity": 99, "duration": 137}, {"note": 0, "velocity": 0, "duration": 103}, {"note": 58, "velocity": 100, "duration": 237}, {"note": 67, "velocity": 112, "duration": 565}, {"note": 0, "velocity": 0, "duration": 875}, {"note": 67, "velocity": 122, "duration": 185}, {"note": 65, "velocity": 112, "duration": 163}, {"note": 0, "velocity": 0, "duration": 77}, {"note": 63, "velocity": 122, "duration": 180}, {"note": 63, "velocity": 122, "duration": 95}, {"note": 60, "velocity": 102, "duration": 98}, {"note": 60, "velocity": 107, "duration": 172}, {"note": 0, "velocity": 0, "duration": 68}, {"note": 63, "velocity": 112, "duration": 179}, {"note": 0, "velocity": 0, "duration": 61}, {"note": 65, "velocity": 127, "duration": 160}, {"note": 0, "velocity": 0, "duration": 320}, {"note": 63, "velocity": 127, "duration": 167}, {"note": 0, "velocity": 0, "duration": 73}, {"note": 65, "velocity": 122, "duration": 162}, {"note": 0, "velocity": 0, "duration": 78}, {"note": 67, "velocity": 127, "duration": 198}, {"note": 60, "velocity": 117, "duration": 169}, {"note": 0, "velocity": 0, "duration": 71}, {"note": 60, "velocity": 100, "duration": 157}, {"note": 0, "velocity": 0, "duration": 83}, {"note": 58, "velocity": 102, "duration": 180}, {"note": 60, "velocity": 112, "duration": 491}, {"note": 0, "velocity": 0, "duration": 469}, {"note": 63, "velocity": 127, "duration": 195}, {"note": 62, "velocity": 97, "duration": 198}, {"note": 60, "velocity": 112, "duration": 185}, {"note": 70, "velocity": 127, "duration": 214}, {"note": 62, "velocity": 112, "duration": 436}, {"note": 63, "velocity": 117, "duration": 269}, {"note": 0, "velocity": 0, "duration": 91}, {"note": 62, "velocity": 112, "duration": 314}, {"note": 0, "velocity": 0, "duration": 166}, {"note": 60, "velocity": 112, "duration": 1010}, {"note": 0, "velocity": 0, "duration": 190}, {"note": 63, "velocity": 122, "duration": 187}, {"note": 65, "velocity": 117, "duration": 164}, {"note": 0, "velocity": 0, "duration": 76}, {"note": 67, "velocity": 127, "duration": 438}, {"note": 70, "velocity": 127, "duration": 140}, {"note": 0, "velocity": 0, "duration": 100}, {"note": 72, "velocity": 122, "duration": 158}, {"note": 0, "velocity": 0, "duration": 82}, {"note": 70, "velocity": 127, "duration": 140}, {"note": 0, "velocity": 0, "duration": 100}, {"note": 67, "velocity": 122, "duration": 168}, {"note": 0, "velocity": 0, "duration": 72}, {"note": 65, "velocity": 122, "duration": 162}, {"note": 0, "velocity": 0, "duration": 78}, {"note": 63, "velocity": 127, "duration": 175}, {"note": 0, "velocity": 0, "duration": 65}, {"note": 67, "velocity": 117, "duration": 1002}, {"note": 0, "velocity": 0, "duration": 438}, {"note": 63, "velocity": 127, "duration": 197}, {"note": 65, "velocity": 127, "duration": 162}, {"note": 0, "velocity": 0, "duration": 78}, {"note": 67, "velocity": 127, "duration": 315}, {"note": 0, "velocity": 0, "duration": 165}, {"note": 70, "velocity": 127, "duration": 135}, {"note": 0, "velocity": 0, "duration": 105}, {"note": 72, "velocity": 127, "duration": 157}, {"note": 0, "velocity": 0, "duration": 83}, {"note": 70, "velocity": 127, "duration": 129}, {"note": 0, "velocity": 0, "duration": 111}, {"note": 67, "velocity": 127, "duration": 163}, {"note": 0, "velocity": 0, "duration": 77}, {"note": 65, "velocity": 127, "duration": 159}, {"note": 0, "velocity": 0, "duration": 81}, {"note": 63, "velocity": 122, "duration": 177}, {"note": 0, "velocity": 0, "duration": 63}, {"note": 60, "velocity": 117, "duration": 836}, {"note": 0, "velocity": 0, "duration": 604}, {"note": 63, "velocity": 127, "duration": 168}, {"note": 0, "velocity": 0, "duration": 72}, {"note": 65, "velocity": 122, "duration": 161}, {"note": 0, "velocity": 0, "duration": 79}, {"note": 67, "velocity": 127, "duration": 200}, {"note": 65, "velocity": 102, "duration": 153}, {"note": 0, "velocity": 0, "duration": 87}, {"note": 65, "velocity": 112, "duration": 148}, {"note": 0, "velocity": 0, "duration": 92}, {"note": 63, "velocity": 117, "duration": 163}, {"note": 0, "velocity": 0, "duration": 77}, {"note": 65, "velocity": 117, "duration": 249}, {"note": 0, "velocity": 0, "duration": 231}, {"note": 63, "velocity": 127, "duration": 174}, {"note": 0, "velocity": 0, "duration": 66}, {"note": 65, "velocity": 112, "duration": 180}, {"note": 67, "velocity": 117, "duration": 170}, {"note": 0, "velocity": 0, "duration": 70}, {"note": 60, "velocity": 102, "duration": 152}, {"note": 0, "velocity": 0, "duration": 88}, {"note": 60, "velocity": 117, "duration": 168}, {"note": 0, "velocity": 0, "duration": 72}, {"note": 58, "velocity": 102, "duration": 158}, {"note": 0, "velocity": 0, "duration": 82}, {"note": 60, "velocity": 127, "duration": 282}, {"note": 0, "velocity": 0, "duration": 678}, {"note": 63, "velocity": 127, "duration": 181}, {"note": 62, "velocity": 127, "duration": 184}, {"note": 60, "velocity": 112, "duration": 149}, {"note": 0, "velocity": 0, "duration": 91}, {"note": 70, "velocity": 127, "duration": 171}, {"note": 0, "velocity": 0, "duration": 69}, {"note": 62, "velocity": 122, "duration": 437}, {"note": 63, "velocity": 122, "duration": 154}, {"note": 0, "velocity": 0, "duration": 206}, {"note": 65, "velocity": 107, "duration": 166}, {"note": 0, "velocity": 0, "duration": 74}, {"note": 63, "velocity": 127, "duration": 1209}, {"note": 0, "velocity": 0, "duration": 231}, {"note": 63, "velocity": 122, "duration": 187}, {"note": 65, "velocity": 117, "duration": 164}, {"note": 0, "velocity": 0, "duration": 76}, {"note": 67, "velocity": 127, "duration": 438}, {"note": 70, "velocity": 127, "duration": 140}, {"note": 0, "velocity": 0, "duration": 100}, {"note": 72, "velocity": 122, "duration": 158}, {"note": 0, "velocity": 0, "duration": 82}, {"note": 70, "velocity": 127, "duration": 140}, {"note": 0, "velocity": 0, "duration": 100}, {"note": 67, "velocity": 122, "duration": 168}, {"note": 0, "velocity": 0, "duration": 72}, {"note": 65, "velocity": 122, "duration": 162}, {"note": 0, "velocity": 0, "duration": 78}, {"note": 63, "velocity": 127, "duration": 175}, {"note": 0, "velocity": 0, "duration": 65}, {"note": 67, "velocity": 117, "duration": 1002}, {"note": 0, "velocity": 0, "duration": 438}, {"note": 63, "velocity": 127, "duration": 197}, {"note": 65, "velocity": 127, "duration": 162}, {"note": 0, "velocity": 0, "duration": 78}, {"note": 67, "velocity": 127, "duration": 315}, {"note": 0, "velocity": 0, "duration": 165}, {"note": 70, "velocity": 127, "duration": 135}, {"note": 0, "velocity": 0, "duration": 105}, {"note": 72, "velocity": 127, "duration": 157}, {"note": 0, "velocity": 0, "duration": 83}, {"note": 70, "velocity": 127, "duration": 129}, {"note": 0, "velocity": 0, "duration": 111}, {"note": 67, "velocity": 127, "duration": 163}, {"note": 0, "velocity": 0, "duration": 77}, {"note": 65, "velocity": 127, "duration": 159}, {"note": 0, "velocity": 0, "duration": 81}, {"note": 63, "velocity": 122, "duration": 177}, {"note": 0, "velocity": 0, "duration": 63}, {"note": 60, "velocity": 117, "duration": 1174}, {"note": 0, "velocity": 0, "duration": 266}, {"note": 63, "velocity": 127, "duration": 168}, {"note": 0, "velocity": 0, "duration": 72}, {"note": 65, "velocity": 122, "duration": 161}, {"note": 0, "velocity": 0, "duration": 79}, {"note": 67, "velocity": 127, "duration": 200}, {"note": 65, "velocity": 102, "duration": 153}, {"note": 0, "velocity": 0, "duration": 87}, {"note": 65, "velocity": 112, "duration": 148}, {"note": 0, "velocity": 0, "duration": 92}, {"note": 63, "velocity": 117, "duration": 163}, {"note": 0, "velocity": 0, "duration": 77}, {"note": 65, "velocity": 117, "duration": 249}, {"note": 0, "velocity": 0, "duration": 231}, {"note": 63, "velocity": 127, "duration": 174}, {"note": 0, "velocity": 0, "duration": 66}, {"note": 65, "velocity": 112, "duration": 180}, {"note": 67, "velocity": 117, "duration": 170}, {"note": 0, "velocity": 0, "duration": 70}, {"note": 60, "velocity": 102, "duration": 152}, {"note": 0, "velocity": 0, "duration": 88}, {"note": 60, "velocity": 117, "duration": 168}, {"note": 0, "velocity": 0, "duration": 72}, {"note": 58, "velocity": 102, "duration": 158}, {"note": 0, "velocity": 0, "duration": 82}, {"note": 60, "velocity": 127, "duration": 282}, {"note": 0, "velocity": 0, "duration": 678}, {"note": 63, "velocity": 127, "duration": 181}, {"note": 62, "velocity": 127, "duration": 184}, {"note": 60, "velocity": 112, "duration": 149}, {"note": 0, "velocity": 0, "duration": 91}, {"note": 70, "velocity": 127, "duration": 171}, {"note": 0, "velocity": 0, "duration": 69}, {"note": 62, "velocity": 122, "duration": 437}, {"note": 0, "velocity": 0, "duration": 283}, {"note": 58, "velocity": 107, "duration": 412}, {"note": 0, "velocity": 0, "duration": 68}, {"note": 60, "velocity": 97, "duration": 1143}, {"note": 63, "velocity": 122, "duration": 187}, {"note": 65, "velocity": 117, "duration": 164}, {"note": 0, "velocity": 0, "duration": 76}, {"note": 67, "velocity": 127, "duration": 438}, {"note": 70, "velocity": 127, "duration": 140}, {"note": 0, "velocity": 0, "duration": 100}, {"note": 72, "velocity": 122, "duration": 158}, {"note": 0, "velocity": 0, "duration": 82}, {"note": 70, "velocity": 127, "duration": 140}, {"note": 0, "velocity": 0, "duration": 100}, {"note": 67, "velocity": 122, "duration": 168}, {"note": 0, "velocity": 0, "duration": 72}, {"note": 65, "velocity": 122, "duration": 162}, {"note": 0, "velocity": 0, "duration": 78}, {"note": 63, "velocity": 127, "duration": 175}, {"note": 0, "velocity": 0, "duration": 65}, {"note": 67, "velocity": 117, "duration": 1002}, {"note": 0, "velocity": 0, "duration": 438}, {"note": 63, "velocity": 127, "duration": 197}, {"note": 65, "velocity": 127, "duration": 162}, {"note": 0, "velocity": 0, "duration": 78}, {"note": 67, "velocity": 127, "duration": 315}, {"note": 0, "velocity": 0, "duration": 165}, {"note": 70, "velocity": 127, "duration": 135}, {"note": 0, "velocity": 0, "duration": 105}, {"note": 72, "velocity": 127, "duration": 157}, {"note": 0, "velocity": 0, "duration": 83}, {"note": 70, "velocity": 127, "duration": 129}, {"note": 0, "velocity": 0, "duration": 111}, {"note": 67, "velocity": 127, "duration": 163}, {"note": 0, "velocity": 0, "duration": 77}, {"note": 65, "velocity": 127, "duration": 159}, {"note": 0, "velocity": 0, "duration": 81}, {"note": 63, "velocity": 122, "duration": 177}, {"note": 0, "velocity": 0, "duration": 63}, {"note": 60, "velocity": 117, "duration": 836}, {"note": 0, "velocity": 0, "duration": 604}, {"note": 63, "velocity": 127, "duration": 168}, {"note": 0, "velocity": 0, "duration": 72}, {"note": 65, "velocity": 122, "duration": 161}, {"note": 0, "velocity": 0, "duration": 79}, {"note": 67, "velocity": 127, "duration": 200}, {"note": 65, "velocity": 102, "duration": 153}, {"note": 0, "velocity": 0, "duration": 87}, {"note": 65, "velocity": 112, "duration": 148}, {"note": 0, "velocity": 0, "duration": 92}, {"note": 63, "velocity": 117, "duration": 163}, {"note": 0, "velocity": 0, "duration": 77}, {"note": 65, "velocity": 117, "duration": 249}, {"note": 0, "velocity": 0, "duration": 231}, {"note": 63, "velocity": 127, "duration": 174}, {"note": 0, "velocity": 0, "duration": 66}, {"note": 65, "velocity": 112, "duration": 180}, {"note": 67, "velocity": 117, "duration": 170}, {"note": 0, "velocity": 0, "duration": 70}, {"note": 60, "velocity": 102, "duration": 152}, {"note": 0, "velocity": 0, "duration": 88}, {"note": 60, "velocity": 117, "duration": 168}, {"note": 0, "velocity": 0, "duration": 72}, {"note": 58, "velocity": 102, "duration": 158}, {"note": 0, "velocity": 0, "duration": 82}, {"note": 60, "velocity": 127, "duration": 282}, {"note": 0, "velocity": 0, "duration": 678}, {"note": 63, "velocity": 127, "duration": 181}, {"note": 62, "velocity": 127, "duration": 184}, {"note": 60, "velocity": 112, "duration": 149}, {"note": 0, "velocity": 0, "duration": 91}, {"note": 70, "velocity": 127, "duration": 171}, {"note": 0, "velocity": 0, "duration": 69}, {"note": 62, "velocity": 122, "duration": 437}, {"note": 63, "velocity": 122, "duration": 154}, {"note": 0, "velocity": 0, "duration": 206}, {"note": 65, "velocity": 107, "duration": 166}, {"note": 0, "velocity": 0, "duration": 74}, {"note": 63, "velocity": 127, "duration": 1209}, {"note": 0, "velocity": 0, "duration": 231}, {"note": 63, "velocity": 122, "duration": 187}, {"note": 65, "velocity": 117, "duration": 164}, {"note": 0, "velocity": 0, "duration": 76}, {"note": 67, "velocity": 127, "duration": 438}, {"note": 70, "velocity": 127, "duration": 140}, {"note": 0, "velocity": 0, "duration": 100}, {"note": 72, "velocity": 122, "duration": 158}, {"note": 0, "velocity": 0, "duration": 82}, {"note": 70, "velocity": 127, "duration": 140}, {"note": 0, "velocity": 0, "duration": 100}, {"note": 67, "velocity": 122, "duration": 168}, {"note": 0, "velocity": 0, "duration": 72}, {"note": 65, "velocity": 122, "duration": 162}, {"note": 0, "velocity": 0, "duration": 78}, {"note": 63, "velocity": 127, "duration": 175}, {"note": 0, "velocity": 0, "duration": 65}, {"note": 67, "velocity": 117, "duration": 1002}, {"note": 0, "velocity": 0, "duration": 438}, {"note": 63, "velocity": 127, "duration": 197}, {"note": 65, "velocity": 127, "duration": 162}, {"note": 0, "velocity": 0, "duration": 78}, {"note": 67, "velocity": 127, "duration": 315}, {"note": 0, "velocity": 0, "duration": 165}, {"note": 70, "velocity": 127, "duration": 135}, {"note": 0, "velocity": 0, "duration": 105}, {"note": 72, "velocity": 127, "duration": 157}, {"note": 0, "velocity": 0, "duration": 83}, {"note": 70, "velocity": 127, "duration": 129}, {"note": 0, "velocity": 0, "duration": 111}, {"note": 67, "velocity": 127, "duration": 163}, {"note": 0, "velocity": 0, "duration": 77}, {"note": 65, "velocity": 127, "duration": 159}, {"note": 0, "velocity": 0, "duration": 81}, {"note": 63, "velocity": 122, "duration": 177}, {"note": 0, "velocity": 0, "duration": 63}, {"note": 60, "velocity": 117, "duration": 1174}, {"note": 0, "velocity": 0, "duration": 266}, {"note": 63, "velocity": 127, "duration": 168}, {"note": 0, "velocity": 0, "duration": 72}, {"note": 65, "velocity": 122, "duration": 161}, {"note": 0, "velocity": 0, "duration": 79}, {"note": 67, "velocity": 127, "duration": 200}, {"note": 65, "velocity": 102, "duration": 153}, {"note": 0, "velocity": 0, "duration": 87}, {"note": 65, "velocity": 112, "duration": 148}, {"note": 0, "velocity": 0, "duration": 92}, {"note": 63, "velocity": 117, "duration": 163}, {"note": 0, "velocity": 0, "duration": 77}, {"note": 65, "velocity": 117, "duration": 249}, {"note": 0, "velocity": 0, "duration": 231}, {"note": 63, "velocity": 127, "duration": 174}, {"note": 0, "velocity": 0, "duration": 66}, {"note": 65, "velocity": 112, "duration": 180}, {"note": 67, "velocity": 117, "duration": 170}, {"note": 0, "velocity": 0, "duration": 70}, {"note": 60, "velocity": 102, "duration": 152}, {"note": 0, "velocity": 0, "duration": 88}, {"note": 60, "velocity": 117, "duration": 168}, {"note": 0, "velocity": 0, "duration": 72}, {"note": 58, "velocity": 102, "duration": 158}, {"note": 0, "velocity": 0, "duration": 82}, {"note": 60, "velocity": 127, "duration": 282}, {"note": 0, "velocity": 0, "duration": 678}, {"note": 63, "velocity": 127, "duration": 181}, {"note": 62, "velocity": 127, "duration": 184}, {"note": 60, "velocity": 112, "duration": 149}, {"note": 0, "velocity": 0, "duration": 91}, {"note": 70, "velocity": 127, "duration": 171}, {"note": 0, "velocity": 0, "duration": 69}, {"note": 62, "velocity": 122, "duration": 437}, {"note": 0, "velocity": 0, "duration": 283}, {"note": 58, "velocity": 107, "duration": 412}, {"note": 0, "velocity": 0, "duration": 68}, {"note": 60, "velocity": 97, "duration": 1143}]]