[[{"note": 53, "velocity": 93, "duration": 56}, {"note": 0, "velocity": 0, "duration": 64}, {"note": 53, "velocity": 89, "duration": 55}, {"note": 0, "velocity": 0, "duration": 65}, {"note": 53, "velocity": 92, "duration": 49}, {"note": 0, "velocity": 0, "duration": 71}, {"note": 53, "velocity": 122, "duration": 105}, {"note": 0, "velocity": 0, "duration": 135}, {"note": 50, "velocity": 93, "duration": 70}, {"note": 57, "velocity": 96, "duration": 97}, {"note": 55, "velocity": 107, "duration": 474}, {"note": 0, "velocity": 0, "duration": 126}, {"note": 53, "velocity": 96, "duration": 122}, {"note": 55, "velocity": 86, "duration": 113}, {"note": 60, "velocity": 100, "duration": 116}, {"note": 57, "velocity": 99, "duration": 206}, {"note": 0, "velocity": 0, "duration": 154}, {"note": 57, "velocity": 100, "duration": 122}, {"note": 0, "velocity": 0, "duration": 118}, {"note": 48, "velocity": 88, "duration": 98}, {"note": 50, "velocity": 100, "duration": 326}, {"note": 0, "velocity": 0, "duration": 514}, {"note": 50, "velocity": 95, "duration": 104}, {"note": 48, "velocity": 69, "duration": 101}, {"note": 50, "velocity": 95, "duration": 123}, {"note": 53, "velocity": 99, "duration": 110}, {"note": 55, "velocity": 90, "duration": 137}, {"note": 53, "velocity": 89, "duration": 341}, {"note": 50, "velocity": 89, "duration": 113}, {"note": 53, "velocity": 79, "duration": 138}, {"note": 55, "velocity": 79, "duration": 81}, {"note": 55, "velocity": 95, "duration": 159}, {"note": 0, "velocity": 0, "duration": 81}, {"note": 55, "velocity": 70, "duration": 71}, {"note": 55, "velocity": 107, "duration": 112}, {"note": 0, "velocity": 0, "duration": 128}, {"note": 53, "velocity": 86, "duration": 72}, {"note": 57, "velocity": 97, "duration": 529}, {"note": 0, "velocity": 0, "duration": 1271}, {"note": 57, "velocity": 112, "duration": 101}, {"note": 60, "velocity": 83, "duration": 109}, {"note": 62, "velocity": 97, "duration": 66}, {"note": 62, "velocity": 102, "duration": 159}, {"note": 0, "velocity": 0, "duration": 201}, {"note": 60, "velocity": 117, "duration": 130}, {"note": 0, "velocity": 0, "duration": 110}, {"note": 57, "velocity": 100, "duration": 81}, {"note": 55, "velocity": 102, "duration": 413}, {"note": 0, "velocity": 0, "duration": 427}, {"note": 53, "velocity": 96, "duration": 122}, {"note": 55, "velocity": 95, "duration": 107}, {"note": 60, "velocity": 99, "duration": 109}, {"note": 57, "velocity": 127, "duration": 122}, {"note": 0, "velocity": 0, "duration": 118}, {"note": 57, "velocity": 100, "duration": 58}, {"note": 0, "velocity": 0, "duration": 62}, {"note": 57, "velocity": 107, "duration": 121}, {"note": 0, "velocity": 0, "duration": 119}, {"note": 48, "velocity": 102, "duration": 109}, {"note": 50, "velocity": 112, "duration": 553}, {"note": 0, "velocity": 0, "duration": 287}, {"note": 50, "velocity": 95, "duration": 120}, {"note": 48, "velocity": 86, "duration": 110}, {"note": 55, "velocity": 100, "duration": 97}, {"note": 53, "velocity": 112, "duration": 164}, {"note": 0, "velocity": 0, "duration": 676}, {"note": 57, "velocity": 107, "duration": 98}, {"note": 55, "velocity": 96, "duration": 94}, {"note": 0, "velocity": 0, "duration": 266}, {"note": 53, "velocity": 100, "duration": 115}, {"note": 0, "velocity": 0, "duration": 125}, {"note": 52, "velocity": 99, "duration": 75}, {"note": 50, "velocity": 99, "duration": 665}, {"note": 0, "velocity": 0, "duration": 1615}, {"note": 53, "velocity": 93, "duration": 56}, {"note": 0, "velocity": 0, "duration": 64}, {"note": 53, "velocity": 89, "duration": 55}, {"note": 0, "velocity": 0, "duration": 65}, {"note": 53, "velocity": 92, "duration": 49}, {"note": 0, "velocity": 0, "duration": 71}, {"note": 53, "velocity": 122, "duration": 105}, {"note": 53, "velocity": 107, "duration": 115}, {"note": 50, "velocity": 93, "duration": 70}, {"note": 57, "velocity": 96, "duration": 97}, {"note": 55, "velocity": 107, "duration": 474}, {"note": 0, "velocity": 0, "duration": 126}, {"note": 53, "velocity": 96, "duration": 122}, {"note": 55, "velocity": 86, "duration": 113}, {"note": 60, "velocity": 100, "duration": 116}, {"note": 57, "velocity": 99, "duration": 206}, {"note": 0, "velocity": 0, "duration": 154}, {"note": 57, "velocity": 100, "duration": 122}, {"note": 0, "velocity": 0, "duration": 118}, {"note": 48, "velocity": 88, "duration": 98}, {"note": 50, "velocity": 100, "duration": 326}, {"note": 0, "velocity": 0, "duration": 514}, {"note": 50, "velocity": 95, "duration": 104}, {"note": 48, "velocity": 69, "duration": 101}, {"note": 50, "velocity": 95, "duration": 123}, {"note": 53, "velocity": 99, "duration": 110}, {"note": 55, "velocity": 90, "duration": 137}, {"note": 53, "velocity": 89, "duration": 341}, {"note": 50, "velocity": 89, "duration": 113}, {"note": 53, "velocity": 79, "duration": 138}, {"note": 55, "velocity": 79, "duration": 81}, {"note": 55, "velocity": 95, "duration": 159}, {"note": 0, "velocity": 0, "duration": 81}, {"note": 55, "velocity": 70, "duration": 71}, {"note": 55, "velocity": 107, "duration": 112}, {"note": 0, "velocity": 0, "duration": 128}, {"note": 53, "velocity": 86, "duration": 72}, {"note": 57, "velocity": 97, "duration": 529}, {"note": 0, "velocity": 0, "duration": 1271}, {"note": 57, "velocity": 112, "duration": 101}, {"note": 60, "velocity": 83, "duration": 109}, {"note": 62, "velocity": 97, "duration": 66}, {"note": 62, "velocity": 102, "duration": 159}, {"note": 0, "velocity": 0, "duration": 201}, {"note": 53, "velocity": 117, "duration": 130}, {"note": 0, "velocity": 0, "duration": 110}, {"note": 57, "velocity": 100, "duration": 81}, {"note": 55, "velocity": 102, "duration": 413}, {"note": 0, "velocity": 0, "duration": 427}, {"note": 53, "velocity": 96, "duration": 122}, {"note": 55, "velocity": 95, "duration": 107}, {"note": 60, "velocity": 99, "duration": 109}, {"note": 0, "velocity": 0, "duration": 131}, {"note": 57, "velocity": 102, "duration": 98}, {"note": 0, "velocity": 0, "duration": 142}, {"note": 60, "velocity": 117, "duration": 68}, {"note": 62, "velocity": 100, "duration": 124}, {"note": 0, "velocity": 0, "duration": 116}, {"note": 53, "velocity": 102, "duration": 478}, {"note": 0, "velocity": 0, "duration": 362}, {"note": 50, "velocity": 95, "duration": 120}, {"note": 48, "velocity": 86, "duration": 110}, {"note": 55, "velocity": 100, "duration": 97}, {"note": 53, "velocity": 112, "duration": 164}, {"note": 0, "velocity": 0, "duration": 556}, {"note": 57, "velocity": 96, "duration": 78}, {"note": 60, "velocity": 127, "duration": 144}, {"note": 0, "velocity": 0, "duration": 96}, {"note": 60, "velocity": 117, "duration": 115}, {"note": 0, "velocity": 0, "duration": 125}, {"note": 60, "velocity": 112, "duration": 49}, {"note": 0, "velocity": 0, "duration": 191}, {"note": 57, "velocity": 102, "duration": 109}, {"note": 62, "velocity": 127, "duration": 1068}, {"note": 0, "velocity": 0, "duration": 492}, {"note": 69, "velocity": 117, "duration": 153}, {"note": 0, "velocity": 0, "duration": 87}, {"note": 72, "velocity": 127, "duration": 202}, {"note": 74, "velocity": 122, "duration": 154}, {"note": 0, "velocity": 0, "duration": 86}, {"note": 74, "velocity": 122, "duration": 145}, {"note": 0, "velocity": 0, "duration": 95}, {"note": 76, "velocity": 127, "duration": 164}, {"note": 0, "velocity": 0, "duration": 76}, {"note": 77, "velocity": 117, "duration": 164}, {"note": 0, "velocity": 0, "duration": 76}, {"note": 81, "velocity": 127, "duration": 171}, {"note": 0, "velocity": 0, "duration": 69}, {"note": 79, "velocity": 127, "duration": 169}, {"note": 0, "velocity": 0, "duration": 71}, {"note": 79, "velocity": 127, "duration": 170}, {"note": 0, "velocity": 0, "duration": 70}, {"note": 72, "velocity": 112, "duration": 143}, {"note": 0, "velocity": 0, "duration": 97}, {"note": 72, "velocity": 112, "duration": 148}, {"note": 0, "velocity": 0, "duration": 92}, {"note": 74, "velocity": 127, "duration": 146}, {"note": 0, "velocity": 0, "duration": 94}, {"note": 76, "velocity": 117, "duration": 162}, {"note": 0, "velocity": 0, "duration": 78}, {"note": 72, "velocity": 112, "duration": 159}, {"note": 0, "velocity": 0, "duration": 81}, {"note": 74, "velocity": 127, "duration": 367}, {"note": 0, "velocity": 0, "duration": 113}, {"note": 69, "velocity": 112, "duration": 175}, {"note": 0, "velocity": 0, "duration": 65}, {"note": 72, "velocity": 127, "duration": 213}, {"note": 74, "velocity": 100, "duration": 166}, {"note": 0, "velocity": 0, "duration": 74}, {"note": 74, "velocity": 99, "duration": 186}, {"note": 76, "velocity": 117, "duration": 165}, {"note": 0, "velocity": 0, "duration": 75}, {"note": 77, "velocity": 127, "duration": 156}, {"note": 0, "velocity": 0, "duration": 84}, {"note": 76, "velocity": 127, "duration": 192}, {"note": 76, "velocity": 117, "duration": 104}, {"note": 74, "velocity": 99, "duration": 112}, {"note": 72, "velocity": 122, "duration": 153}, {"note": 0, "velocity": 0, "duration": 87}, {"note": 74, "velocity": 122, "duration": 134}, {"note": 0, "velocity": 0, "duration": 106}, {"note": 69, "velocity": 102, "duration": 127}, {"note": 72, "velocity": 107, "duration": 103}, {"note": 69, "velocity": 112, "duration": 480}, {"note": 0, "velocity": 0, "duration": 720}, {"note": 69, "velocity": 112, "duration": 207}, {"note": 72, "velocity": 127, "duration": 192}, {"note": 74, "velocity": 127, "duration": 209}, {"note": 74, "velocity": 117, "duration": 150}, {"note": 0, "velocity": 0, "duration": 90}, {"note": 76, "velocity": 127, "duration": 161}, {"note": 0, "velocity": 0, "duration": 79}, {"note": 77, "velocity": 117, "duration": 160}, {"note": 0, "velocity": 0, "duration": 80}, {"note": 81, "velocity": 127, "duration": 116}, {"note": 0, "velocity": 0, "duration": 124}, {"note": 79, "velocity": 122, "duration": 159}, {"note": 0, "velocity": 0, "duration": 81}, {"note": 79, "velocity": 122, "duration": 136}, {"note": 0, "velocity": 0, "duration": 104}, {"note": 72, "velocity": 127, "duration": 152}, {"note": 0, "velocity": 0, "duration": 88}, {"note": 81, "velocity": 127, "duration": 162}, {"note": 0, "velocity": 0, "duration": 78}, {"note": 81, "velocity": 107, "duration": 154}, {"note": 0, "velocity": 0, "duration": 86}, {"note": 84, "velocity": 117, "duration": 144}, {"note": 0, "velocity": 0, "duration": 96}, {"note": 81, "velocity": 127, "duration": 103}, {"note": 79, "velocity": 107, "duration": 108}, {"note": 77, "velocity": 127, "duration": 242}, {"note": 0, "velocity": 0, "duration": 238}, {"note": 81, "velocity": 127, "duration": 137}, {"note": 0, "velocity": 0, "duration": 103}, {"note": 79, "velocity": 127, "duration": 83}, {"note": 81, "velocity": 122, "duration": 115}, {"note": 0, "velocity": 0, "duration": 125}, {"note": 74, "velocity": 112, "duration": 428}, {"note": 0, "velocity": 0, "duration": 412}, {"note": 76, "velocity": 122, "duration": 144}, {"note": 0, "velocity": 0, "duration": 96}, {"note": 74, "velocity": 117, "duration": 54}, {"note": 0, "velocity": 0, "duration": 66}, {"note": 74, "velocity": 107, "duration": 187}, {"note": 72, "velocity": 117, "duration": 176}, {"note": 0, "velocity": 0, "duration": 64}, {"note": 74, "velocity": 100, "duration": 61}, {"note": 74, "velocity": 127, "duration": 388}, {"note": 0, "velocity": 0, "duration": 17132}, {"note": 53, "velocity": 93, "duration": 56}, {"note": 0, "velocity": 0, "duration": 64}, {"note": 53, "velocity": 89, "duration": 55}, {"note": 0, "velocity": 0, "duration": 65}, {"note": 53, "velocity": 92, "duration": 49}, {"note": 0, "velocity": 0, "duration": 71}, {"note": 53, "velocity": 122, "duration": 105}, {"note": 0, "velocity": 0, "duration": 135}, {"note": 50, "velocity": 93, "duration": 70}, {"note": 57, "velocity": 96, "duration": 97}, {"note": 55, "velocity": 107, "duration": 474}, {"note": 0, "velocity": 0, "duration": 126}, {"note": 53, "velocity": 96, "duration": 122}, {"note": 55, "velocity": 86, "duration": 113}, {"note": 60, "velocity": 100, "duration": 116}, {"note": 57, "velocity": 99, "duration": 206}, {"note": 0, "velocity": 0, "duration": 154}, {"note": 57, "velocity": 100, "duration": 122}, {"note": 0, "velocity": 0, "duration": 118}, {"note": 48, "velocity": 88, "duration": 98}, {"note": 50, "velocity": 100, "duration": 326}, {"note": 0, "velocity": 0, "duration": 514}, {"note": 50, "velocity": 95, "duration": 104}, {"note": 48, "velocity": 69, "duration": 101}, {"note": 50, "velocity": 95, "duration": 123}, {"note": 53, "velocity": 99, "duration": 110}, {"note": 55, "velocity": 90, "duration": 137}, {"note": 53, "velocity": 89, "duration": 341}, {"note": 50, "velocity": 89, "duration": 113}, {"note": 53, "velocity": 79, "duration": 138}, {"note": 55, "velocity": 79, "duration": 81}, {"note": 55, "velocity": 95, "duration": 159}, {"note": 0, "velocity": 0, "duration": 81}, {"note": 55, "velocity": 70, "duration": 71}, {"note": 55, "velocity": 107, "duration": 112}, {"note": 0, "velocity": 0, "duration": 128}, {"note": 53, "velocity": 86, "duration": 72}, {"note": 57, "velocity": 97, "duration": 529}, {"note": 0, "velocity": 0, "duration": 1271}, {"note": 57, "velocity": 112, "duration": 101}, {"note": 60, "velocity": 83, "duration": 109}, {"note": 62, "velocity": 97, "duration": 66}, {"note": 62, "velocity": 102, "duration": 159}, {"note": 0, "velocity": 0, "duration": 201}, {"note": 60, "velocity": 117, "duration": 130}, {"note": 0, "velocity": 0, "duration": 110}, {"note": 57, "velocity": 100, "duration": 81}, {"note": 55, "velocity": 102, "duration": 413}, {"note": 0, "velocity": 0, "duration": 427}, {"note": 53, "velocity": 96, "duration": 122}, {"note": 55, "velocity": 95, "duration": 107}, {"note": 60, "velocity": 99, "duration": 109}, {"note": 57, "velocity": 127, "duration": 122}, {"note": 0, "velocity": 0, "duration": 118}, {"note": 57, "velocity": 100, "duration": 58}, {"note": 0, "velocity": 0, "duration": 62}, {"note": 57, "velocity": 107, "duration": 121}, {"note": 0, "velocity": 0, "duration": 119}, {"note": 48, "velocity": 102, "duration": 109}, {"note": 50, "velocity": 112, "duration": 553}, {"note": 0, "velocity": 0, "duration": 287}, {"note": 50, "velocity": 95, "duration": 120}, {"note": 48, "velocity": 86, "duration": 110}, {"note": 55, "velocity": 100, "duration": 97}, {"note": 53, "velocity": 112, "duration": 164}, {"note": 0, "velocity": 0, "duration": 676}, {"note": 57, "velocity": 107, "duration": 98}, {"note": 55, "velocity": 96, "duration": 94}, {"note": 0, "velocity": 0, "duration": 266}, {"note": 53, "velocity": 100, "duration": 115}, {"note": 0, "velocity": 0, "duration": 125}, {"note": 52, "velocity": 99, "duration": 75}, {"note": 50, "velocity": 99, "duration": 665}, {"note": 0, "velocity": 0, "duration": 1615}, {"note": 53, "velocity": 93, "duration": 56}, {"note": 0, "velocity": 0, "duration": 64}, {"note": 53, "velocity": 89, "duration": 55}, {"note": 0, "velocity": 0, "duration": 65}, {"note": 53, "velocity": 92, "duration": 49}, {"note": 0, "velocity": 0, "duration": 71}, {"note": 53, "velocity": 122, "duration": 105}, {"note": 53, "velocity": 107, "duration": 115}, {"note": 50, "velocity": 93, "duration": 70}, {"note": 57, "velocity": 96, "duration": 97}, {"note": 55, "velocity": 107, "duration": 474}, {"note": 0, "velocity": 0, "duration": 126}, {"note": 53, "velocity": 96, "duration": 122}, {"note": 55, "velocity": 86, "duration": 113}, {"note": 60, "velocity": 100, "duration": 116}, {"note": 57, "velocity": 99, "duration": 206}, {"note": 0, "velocity": 0, "duration": 154}, {"note": 57, "velocity": 100, "duration": 122}, {"note": 0, "velocity": 0, "duration": 118}, {"note": 48, "velocity": 88, "duration": 98}, {"note": 50, "velocity": 100, "duration": 326}, {"note": 0, "velocity": 0, "duration": 514}, {"note": 50, "velocity": 95, "duration": 104}, {"note": 48, "velocity": 69, "duration": 101}, {"note": 50, "velocity": 95, "duration": 123}, {"note": 53, "velocity": 99, "duration": 110}, {"note": 55, "velocity": 90, "duration": 137}, {"note": 53, "velocity": 89, "duration": 341}, {"note": 50, "velocity": 89, "duration": 113}, {"note": 53, "velocity": 79, "duration": 138}, {"note": 55, "velocity": 79, "duration": 81}, {"note": 55, "velocity": 95, "duration": 159}, {"note": 0, "velocity": 0, "duration": 81}, {"note": 55, "velocity": 70, "duration": 71}, {"note": 55, "velocity": 107, "duration": 112}, {"note": 0, "velocity": 0, "duration": 128}, {"note": 53, "velocity": 86, "duration": 72}, {"note": 57, "velocity": 97, "duration": 529}, {"note": 0, "velocity": 0, "duration": 1271}, {"note": 57, "velocity": 112, "duration": 101}, {"note": 60, "velocity": 83, "duration": 109}, {"note": 62, "velocity": 97, "duration": 66}, {"note": 62, "velocity": 102, "duration": 159}, {"note": 0, "velocity": 0, "duration": 201}, {"note": 53, "velocity": 117, "duration": 130}, {"note": 0, "velocity": 0, "duration": 110}, {"note": 57, "velocity": 100, "duration": 81}, {"note": 55, "velocity": 102, "duration": 413}, {"note": 0, "velocity": 0, "duration": 427}, {"note": 53, "velocity": 96, "duration": 122}, {"note": 55, "velocity": 95, "duration": 107}, {"note": 60, "velocity": 99, "duration": 109}, {"note": 0, "velocity": 0, "duration": 131}, {"note": 57, "velocity": 102, "duration": 98}, {"note": 0, "velocity": 0, "duration": 142}, {"note": 60, "velocity": 117, "duration": 68}, {"note": 62, "velocity": 100, "duration": 124}, {"note": 0, "velocity": 0, "duration": 116}, {"note": 53, "velocity": 102, "duration": 478}, {"note": 0, "velocity": 0, "duration": 362}, {"note": 50, "velocity": 95, "duration": 120}, {"note": 48, "velocity": 86, "duration": 110}, {"note": 55, "velocity": 100, "duration": 97}, {"note": 53, "velocity": 112, "duration": 164}, {"note": 0, "velocity": 0, "duration": 556}, {"note": 57, "velocity": 96, "duration": 78}, {"note": 60, "velocity": 127, "duration": 144}, {"note": 0, "velocity": 0, "duration": 96}, {"note": 60, "velocity": 117, "duration": 115}, {"note": 0, "velocity": 0, "duration": 125}, {"note": 60, "velocity": 112, "duration": 49}, {"note": 0, "velocity": 0, "duration": 191}, {"note": 57, "velocity": 102, "duration": 109}, {"note": 62, "velocity": 127, "duration": 1068}, {"note": 0, "velocity": 0, "duration": 492}, {"note": 69, "velocity": 117, "duration": 153}, {"note": 0, "velocity": 0, "duration": 87}, {"note": 72, "velocity": 127, "duration": 202}, {"note": 74, "velocity": 122, "duration": 154}, {"note": 0, "velocity": 0, "duration": 86}, {"note": 74, "velocity": 122, "duration": 145}, {"note": 0, "velocity": 0, "duration": 95}, {"note": 76, "velocity": 127, "duration": 164}, {"note": 0, "velocity": 0, "duration": 76}, {"note": 77, "velocity": 117, "duration": 164}, {"note": 0, "velocity": 0, "duration": 76}, {"note": 81, "velocity": 127, "duration": 171}, {"note": 0, "velocity": 0, "duration": 69}, {"note": 79, "velocity": 127, "duration": 169}, {"note": 0, "velocity": 0, "duration": 71}, {"note": 79, "velocity": 127, "duration": 170}, {"note": 0, "velocity": 0, "duration": 70}, {"note": 72, "velocity": 112, "duration": 143}, {"note": 0, "velocity": 0, "duration": 97}, {"note": 72, "velocity": 112, "duration": 148}, {"note": 0, "velocity": 0, "duration": 92}, {"note": 74, "velocity": 127, "duration": 146}, {"note": 0, "velocity": 0, "duration": 94}, {"note": 76, "velocity": 117, "duration": 162}, {"note": 0, "velocity": 0, "duration": 78}, {"note": 72, "velocity": 112, "duration": 159}, {"note": 0, "velocity": 0, "duration": 81}, {"note": 74, "velocity": 127, "duration": 367}, {"note": 0, "velocity": 0, "duration": 113}, {"note": 69, "velocity": 112, "duration": 175}, {"note": 0, "velocity": 0, "duration": 65}, {"note": 72, "velocity": 127, "duration": 213}, {"note": 74, "velocity": 100, "duration": 166}, {"note": 0, "velocity": 0, "duration": 74}, {"note": 74, "velocity": 99, "duration": 186}, {"note": 76, "velocity": 117, "duration": 165}, {"note": 0, "velocity": 0, "duration": 75}, {"note": 77, "velocity": 127, "duration": 156}, {"note": 0, "velocity": 0, "duration": 84}, {"note": 76, "velocity": 127, "duration": 192}, {"note": 76, "velocity": 117, "duration": 104}, {"note": 74, "velocity": 99, "duration": 112}, {"note": 72, "velocity": 122, "duration": 153}, {"note": 0, "velocity": 0, "duration": 87}, {"note": 74, "velocity": 122, "duration": 134}, {"note": 0, "velocity": 0, "duration": 106}, {"note": 69, "velocity": 102, "duration": 127}, {"note": 72, "velocity": 107, "duration": 103}, {"note": 69, "velocity": 112, "duration": 480}, {"note": 0, "velocity": 0, "duration": 720}, {"note": 69, "velocity": 112, "duration": 207}, {"note": 72, "velocity": 127, "duration": 192}, {"note": 74, "velocity": 127, "duration": 209}, {"note": 74, "velocity": 117, "duration": 150}, {"note": 0, "velocity": 0, "duration": 90}, {"note": 76, "velocity": 127, "duration": 161}, {"note": 0, "velocity": 0, "duration": 79}, {"note": 77, "velocity": 117, "duration": 160}, {"note": 0, "velocity": 0, "duration": 80}, {"note": 81, "velocity": 127, "duration": 116}, {"note": 0, "velocity": 0, "duration": 124}, {"note": 79, "velocity": 122, "duration": 159}, {"note": 0, "velocity": 0, "duration": 81}, {"note": 79, "velocity": 122, "duration": 136}, {"note": 0, "velocity": 0, "duration": 104}, {"note": 72, "velocity": 127, "duration": 152}, {"note": 0, "velocity": 0, "duration": 88}, {"note": 81, "velocity": 127, "duration": 162}, {"note": 0, "velocity": 0, "duration": 78}, {"note": 81, "velocity": 107, "duration": 154}, {"note": 0, "velocity": 0, "duration": 86}, {"note": 84, "velocity": 117, "duration": 144}, {"note": 0, "velocity": 0, "duration": 96}, {"note": 81, "velocity": 127, "duration": 103}, {"note": 79, "velocity": 107, "duration": 108}, {"note": 77, "velocity": 127, "duration": 242}, {"note": 0, "velocity": 0, "duration": 238}, {"note": 81, "velocity": 127, "duration": 137}, {"note": 0, "velocity": 0, "duration": 103}, {"note": 79, "velocity": 127, "duration": 83}, {"note": 81, "velocity": 122, "duration": 115}, {"note": 0, "velocity": 0, "duration": 125}, {"note": 74, "velocity": 112, "duration": 428}, {"note": 0, "velocity": 0, "duration": 412}, {"note": 76, "velocity": 122, "duration": 144}, {"note": 0, "velocity": 0, "duration": 96}, {"note": 74, "velocity": 117, "duration": 54}, {"note": 0, "velocity": 0, "duration": 66}, {"note": 74, "velocity": 107, "duration": 187}, {"note": 72, "velocity": 117, "duration": 176}, {"note": 0, "velocity": 0, "duration": 64}, {"note": 74, "velocity": 100, "duration": 61}, {"note": 74, "velocity": 127, "duration": 388}, {"note": 0, "velocity": 0, "duration": 1052}, {"note": 69, "velocity": 117, "duration": 153}, {"note": 0, "velocity": 0, "duration": 87}, {"note": 72, "velocity": 127, "duration": 202}, {"note": 74, "velocity": 122, "duration": 154}, {"note": 0, "velocity": 0, "duration": 86}, {"note": 74, "velocity": 122, "duration": 145}, {"note": 0, "velocity": 0, "duration": 95}, {"note": 76, "velocity": 127, "duration": 164}, {"note": 0, "velocity": 0, "duration": 76}, {"note": 77, "velocity": 117, "duration": 164}, {"note": 0, "velocity": 0, "duration": 76}, {"note": 81, "velocity": 127, "duration": 171}, {"note": 0, "velocity": 0, "duration": 69}, {"note": 79, "velocity": 127, "duration": 169}, {"note": 0, "velocity": 0, "duration": 71}, {"note": 79, "velocity": 127, "duration": 170}, {"note": 0, "velocity": 0, "duration": 70}, {"note": 72, "velocity": 112, "duration": 143}, {"note": 0, "velocity": 0, "duration": 97}, {"note": 72, "velocity": 112, "duration": 148}, {"note": 0, "velocity": 0, "duration": 92}, {"note": 74, "velocity": 127, "duration": 146}, {"note": 0, "velocity": 0, "duration": 94}, {"note": 76, "velocity": 117, "duration": 162}, {"note": 0, "velocity": 0, "duration": 78}, {"note": 72, "velocity": 112, "duration": 159}, {"note": 0, "velocity": 0, "duration": 81}, {"note": 74, "velocity": 127, "duration": 367}, {"note": 0, "velocity": 0, "duration": 113}, {"note": 69, "velocity": 112, "duration": 175}, {"note": 0, "velocity": 0, "duration": 65}, {"note": 72, "velocity": 127, "duration": 213}, {"note": 74, "velocity": 100, "duration": 166}, {"note": 0, "velocity": 0, "duration": 74}, {"note": 74, "velocity": 99, "duration": 186}, {"note": 76, "velocity": 117, "duration": 165}, {"note": 0, "velocity": 0, "duration": 75}, {"note": 77, "velocity": 127, "duration": 156}, {"note": 0, "velocity": 0, "duration": 84}, {"note": 76, "velocity": 127, "duration": 192}, {"note": 76, "velocity": 117, "duration": 104}, {"note": 74, "velocity": 99, "duration": 112}, {"note": 72, "velocity": 122, "duration": 153}, {"note": 0, "velocity": 0, "duration": 87}, {"note": 74, "velocity": 122, "duration": 134}, {"note": 0, "velocity": 0, "duration": 106}, {"note": 69, "velocity": 102, "duration": 127}, {"note": 72, "velocity": 107, "duration": 103}, {"note": 69, "velocity": 112, "duration": 480}, {"note": 0, "velocity": 0, "duration": 720}, {"note": 69, "velocity": 112, "duration": 207}, {"note": 72, "velocity": 127, "duration": 192}, {"note": 74, "velocity": 127, "duration": 209}, {"note": 74, "velocity": 117, "duration": 150}, {"note": 0, "velocity": 0, "duration": 90}, {"note": 76, "velocity": 127, "duration": 161}, {"note": 0, "velocity": 0, "duration": 79}, {"note": 77, "velocity": 117, "duration": 160}, {"note": 0, "velocity": 0, "duration": 80}, {"note": 81, "velocity": 127, "duration": 116}, {"note": 0, "velocity": 0, "duration": 124}, {"note": 79, "velocity": 122, "duration": 159}, {"note": 0, "velocity": 0, "duration": 81}, {"note": 79, "velocity": 122, "duration": 136}, {"note": 0, "velocity": 0, "duration": 104}, {"note": 72, "velocity": 127, "duration": 152}, {"note": 0, "velocity": 0, "duration": 88}, {"note": 81, "velocity": 127, "duration": 162}, {"note": 0, "velocity": 0, "duration": 78}, {"note": 81, "velocity": 107, "duration": 154}, {"note": 0, "velocity": 0, "duration": 86}, {"note": 84, "velocity": 117, "duration": 144}, {"note": 0, "velocity": 0, "duration": 96}, {"note": 81, "velocity": 127, "duration": 103}, {"note": 79, "velocity": 107, "duration": 108}, {"note": 77, "velocity": 127, "duration": 242}, {"note": 0, "velocity": 0, "duration": 238}, {"note": 81, "velocity": 127, "duration": 137}, {"note": 0, "velocity": 0, "duration": 103}, {"note": 79, "velocity": 127, "duration": 83}, {"note": 81, "velocity": 122, "duration": 115}, {"note": 0, "velocity": 0, "duration": 125}, {"note": 74, "velocity": 112, "duration": 428}, {"note": 0, "velocity": 0, "duration": 412}, {"note": 76, "velocity": 122, "duration": 144}, {"note": 0, "velocity": 0, "duration": 96}, {"note": 74, "velocity": 117, "duration": 54}, {"note": 0, "velocity": 0, "duration": 66}, {"note": 74, "velocity": 107, "duration": 187}, {"note": 72, "velocity": 117, "duration": 176}, {"note": 0, "velocity": 0, "duration": 64}, {"note": 74, "velocity": 100, "duration": 61}, {"note": 74, "velocity": 127, "duration": 388}, {"note": 0, "velocity": 0, "duration": 1052}, {"note": 81, "velocity": 127, "duration": 137}, {"note": 0, "velocity": 0, "duration": 103}, {"note": 79, "velocity": 127, "duration": 83}, {"note": 81, "velocity": 122, "duration": 115}, {"note": 0, "velocity": 0, "duration": 125}, {"note": 74, "velocity": 112, "duration": 428}, {"note": 0, "velocity": 0, "duration": 412}, {"note": 76, "velocity": 122, "duration": 144}, {"note": 0, "velocity": 0, "duration": 96}, {"note": 74, "velocity": 117, "duration": 54}, {"note": 0, "velocity": 0, "duration": 66}, {"note": 74, "velocity": 107, "duration": 187}, {"note": 72, "velocity": 117, "duration": 176}, {"note": 0, "velocity": 0, "duration": 64}, {"note": 74, "velocity": 100, "duration": 61}, {"note": 74, "velocity": 127, "duration": 3055}]]