[[{"note": 69, "velocity": 127, "duration": 159}, {"note": 0, "velocity": 0, "duration": 81}, {"note": 72, "velocity": 96, "duration": 123}, {"note": 0, "velocity": 0, "duration": 117}, {"note": 67, "velocity": 117, "duration": 132}, {"note": 0, "velocity": 0, "duration": 108}, {"note": 67, "velocity": 102, "duration": 95}, {"note": 0, "velocity": 0, "duration": 145}, {"note": 65, "velocity": 122, "duration": 616}, {"note": 0, "velocity": 0, "duration": 344}, {"note": 69, "velocity": 102, "duration": 120}, {"note": 0, "velocity": 0, "duration": 120}, {"note": 69, "velocity": 112, "duration": 117}, {"note": 72, "velocity": 107, "duration": 111}, {"note": 74, "velocity": 127, "duration": 90}, {"note": 0, "velocity": 0, "duration": 150}, {"note": 74, "velocity": 122, "duration": 99}, {"note": 0, "velocity": 0, "duration": 141}, {"note": 72, "velocity": 122, "duration": 644}, {"note": 0, "velocity": 0, "duration": 316}, {"note": 67, "velocity": 102, "duration": 219}, {"note": 69, "velocity": 112, "duration": 176}, {"note": 0, "velocity": 0, "duration": 64}, {"note": 72, "velocity": 112, "duration": 136}, {"note": 0, "velocity": 0, "duration": 104}, {"note": 74, "velocity": 127, "duration": 130}, {"note": 0, "velocity": 0, "duration": 110}, {"note": 69, "velocity": 122, "duration": 158}, {"note": 0, "velocity": 0, "duration": 82}, {"note": 67, "velocity": 97, "duration": 136}, {"note": 0, "velocity": 0, "duration": 104}, {"note": 69, "velocity": 127, "duration": 294}, {"note": 0, "velocity": 0, "duration": 186}, {"note": 72, "velocity": 102, "duration": 137}, {"note": 0, "velocity": 0, "duration": 103}, {"note": 62, "velocity": 102, "duration": 160}, {"note": 0, "velocity": 0, "duration": 80}, {"note": 72, "velocity": 117, "duration": 124}, {"note": 0, "velocity": 0, "duration": 116}, {"note": 69, "velocity": 127, "duration": 127}, {"note": 0, "velocity": 0, "duration": 113}, {"note": 67, "velocity": 112, "duration": 579}, {"note": 0, "velocity": 0, "duration": 381}, {"note": 69, "velocity": 122, "duration": 170}, {"note": 0, "velocity": 0, "duration": 190}, {"note": 69, "velocity": 117, "duration": 52}, {"note": 0, "velocity": 0, "duration": 68}, {"note": 69, "velocity": 122, "duration": 80}, {"note": 0, "velocity": 0, "duration": 160}, {"note": 67, "velocity": 100, "duration": 100}, {"note": 0, "velocity": 0, "duration": 140}, {"note": 65, "velocity": 127, "duration": 114}, {"note": 0, "velocity": 0, "duration": 126}, {"note": 62, "velocity": 92, "duration": 103}, {"note": 0, "velocity": 0, "duration": 137}, {"note": 60, "velocity": 100, "duration": 182}, {"note": 0, "velocity": 0, "duration": 298}, {"note": 69, "velocity": 122, "duration": 235}, {"note": 0, "velocity": 0, "duration": 125}, {"note": 69, "velocity": 99, "duration": 51}, {"note": 0, "velocity": 0, "duration": 69}, {"note": 69, "velocity": 90, "duration": 85}, {"note": 0, "velocity": 0, "duration": 155}, {"note": 67, "velocity": 117, "duration": 90}, {"note": 0, "velocity": 0, "duration": 150}, {"note": 65, "velocity": 100, "duration": 80}, {"note": 0, "velocity": 0, "duration": 160}, {"note": 62, "velocity": 107, "duration": 88}, {"note": 0, "velocity": 0, "duration": 152}, {"note": 60, "velocity": 112, "duration": 134}, {"note": 0, "velocity": 0, "duration": 346}, {"note": 60, "velocity": 112, "duration": 177}, {"note": 0, "velocity": 0, "duration": 63}, {"note": 62, "velocity": 112, "duration": 149}, {"note": 0, "velocity": 0, "duration": 91}, {"note": 65, "velocity": 107, "duration": 131}, {"note": 0, "velocity": 0, "duration": 109}, {"note": 67, "velocity": 97, "duration": 134}, {"note": 0, "velocity": 0, "duration": 106}, {"note": 69, "velocity": 112, "duration": 701}, {"note": 0, "velocity": 0, "duration": 259}, {"note": 72, "velocity": 127, "duration": 122}, {"note": 0, "velocity": 0, "duration": 118}, {"note": 69, "velocity": 102, "duration": 83}, {"note": 72, "velocity": 107, "duration": 87}, {"note": 74, "velocity": 100, "duration": 84}, {"note": 0, "velocity": 0, "duration": 156}, {"note": 74, "velocity": 107, "duration": 86}, {"note": 0, "velocity": 0, "duration": 154}, {"note": 72, "velocity": 127, "duration": 84}, {"note": 0, "velocity": 0, "duration": 156}, {"note": 69, "velocity": 102, "duration": 105}, {"note": 0, "velocity": 0, "duration": 135}, {"note": 67, "velocity": 107, "duration": 168}, {"note": 0, "velocity": 0, "duration": 312}, {"note": 72, "velocity": 112, "duration": 121}, {"note": 0, "velocity": 0, "duration": 119}, {"note": 69, "velocity": 92, "duration": 93}, {"note": 72, "velocity": 90, "duration": 101}, {"note": 74, "velocity": 112, "duration": 84}, {"note": 0, "velocity": 0, "duration": 156}, {"note": 74, "velocity": 112, "duration": 92}, {"note": 0, "velocity": 0, "duration": 148}, {"note": 72, "velocity": 117, "duration": 92}, {"note": 0, "velocity": 0, "duration": 148}, {"note": 69, "velocity": 100, "duration": 109}, {"note": 0, "velocity": 0, "duration": 131}, {"note": 67, "velocity": 127, "duration": 166}, {"note": 0, "velocity": 0, "duration": 314}, {"note": 60, "velocity": 117, "duration": 152}, {"note": 0, "velocity": 0, "duration": 88}, {"note": 69, "velocity": 107, "duration": 101}, {"note": 0, "velocity": 0, "duration": 139}, {"note": 69, "velocity": 112, "duration": 129}, {"note": 0, "velocity": 0, "duration": 111}, {"note": 67, "velocity": 127, "duration": 100}, {"note": 0, "velocity": 0, "duration": 140}, {"note": 65, "velocity": 127, "duration": 648}, {"note": 0, "velocity": 0, "duration": 312}, {"note": 69, "velocity": 127, "duration": 550}, {"note": 0, "velocity": 0, "duration": 170}, {"note": 72, "velocity": 127, "duration": 158}, {"note": 0, "velocity": 0, "duration": 82}, {"note": 67, "velocity": 102, "duration": 331}, {"note": 0, "velocity": 0, "duration": 149}, {"note": 67, "velocity": 122, "duration": 318}, {"note": 0, "velocity": 0, "duration": 162}, {"note": 65, "velocity": 112, "duration": 1019}, {"note": 0, "velocity": 0, "duration": 3781}, {"note": 69, "velocity": 127, "duration": 159}, {"note": 0, "velocity": 0, "duration": 81}, {"note": 72, "velocity": 96, "duration": 123}, {"note": 0, "velocity": 0, "duration": 117}, {"note": 67, "velocity": 117, "duration": 132}, {"note": 0, "velocity": 0, "duration": 108}, {"note": 67, "velocity": 102, "duration": 95}, {"note": 0, "velocity": 0, "duration": 145}, {"note": 65, "velocity": 122, "duration": 616}, {"note": 0, "velocity": 0, "duration": 344}, {"note": 69, "velocity": 102, "duration": 120}, {"note": 0, "velocity": 0, "duration": 120}, {"note": 69, "velocity": 112, "duration": 117}, {"note": 72, "velocity": 107, "duration": 111}, {"note": 74, "velocity": 127, "duration": 90}, {"note": 0, "velocity": 0, "duration": 150}, {"note": 74, "velocity": 122, "duration": 99}, {"note": 0, "velocity": 0, "duration": 141}, {"note": 72, "velocity": 122, "duration": 644}, {"note": 0, "velocity": 0, "duration": 316}, {"note": 67, "velocity": 102, "duration": 219}, {"note": 69, "velocity": 112, "duration": 176}, {"note": 0, "velocity": 0, "duration": 64}, {"note": 72, "velocity": 112, "duration": 136}, {"note": 0, "velocity": 0, "duration": 104}, {"note": 74, "velocity": 127, "duration": 130}, {"note": 0, "velocity": 0, "duration": 110}, {"note": 69, "velocity": 122, "duration": 158}, {"note": 0, "velocity": 0, "duration": 82}, {"note": 67, "velocity": 97, "duration": 136}, {"note": 0, "velocity": 0, "duration": 104}, {"note": 69, "velocity": 127, "duration": 294}, {"note": 0, "velocity": 0, "duration": 186}, {"note": 72, "velocity": 102, "duration": 137}, {"note": 0, "velocity": 0, "duration": 103}, {"note": 62, "velocity": 102, "duration": 160}, {"note": 0, "velocity": 0, "duration": 80}, {"note": 72, "velocity": 117, "duration": 124}, {"note": 0, "velocity": 0, "duration": 116}, {"note": 69, "velocity": 127, "duration": 127}, {"note": 0, "velocity": 0, "duration": 113}, {"note": 67, "velocity": 112, "duration": 579}, {"note": 0, "velocity": 0, "duration": 381}, {"note": 69, "velocity": 122, "duration": 170}, {"note": 0, "velocity": 0, "duration": 190}, {"note": 69, "velocity": 117, "duration": 52}, {"note": 0, "velocity": 0, "duration": 68}, {"note": 69, "velocity": 122, "duration": 80}, {"note": 0, "velocity": 0, "duration": 160}, {"note": 67, "velocity": 100, "duration": 100}, {"note": 0, "velocity": 0, "duration": 140}, {"note": 65, "velocity": 127, "duration": 114}, {"note": 0, "velocity": 0, "duration": 126}, {"note": 62, "velocity": 92, "duration": 103}, {"note": 0, "velocity": 0, "duration": 137}, {"note": 60, "velocity": 100, "duration": 182}, {"note": 0, "velocity": 0, "duration": 298}, {"note": 69, "velocity": 122, "duration": 235}, {"note": 0, "velocity": 0, "duration": 125}, {"note": 69, "velocity": 99, "duration": 51}, {"note": 0, "velocity": 0, "duration": 69}, {"note": 69, "velocity": 90, "duration": 85}, {"note": 0, "velocity": 0, "duration": 155}, {"note": 67, "velocity": 117, "duration": 90}, {"note": 0, "velocity": 0, "duration": 150}, {"note": 65, "velocity": 100, "duration": 80}, {"note": 0, "velocity": 0, "duration": 160}, {"note": 62, "velocity": 107, "duration": 88}, {"note": 0, "velocity": 0, "duration": 152}, {"note": 60, "velocity": 112, "duration": 134}, {"note": 0, "velocity": 0, "duration": 346}, {"note": 60, "velocity": 112, "duration": 177}, {"note": 0, "velocity": 0, "duration": 63}, {"note": 62, "velocity": 112, "duration": 149}, {"note": 0, "velocity": 0, "duration": 91}, {"note": 65, "velocity": 107, "duration": 131}, {"note": 0, "velocity": 0, "duration": 109}, {"note": 67, "velocity": 97, "duration": 134}, {"note": 0, "velocity": 0, "duration": 106}, {"note": 69, "velocity": 112, "duration": 701}, {"note": 0, "velocity": 0, "duration": 259}, {"note": 72, "velocity": 127, "duration": 122}, {"note": 0, "velocity": 0, "duration": 118}, {"note": 69, "velocity": 102, "duration": 83}, {"note": 72, "velocity": 107, "duration": 87}, {"note": 74, "velocity": 100, "duration": 84}, {"note": 0, "velocity": 0, "duration": 156}, {"note": 74, "velocity": 107, "duration": 86}, {"note": 0, "velocity": 0, "duration": 154}, {"note": 72, "velocity": 127, "duration": 84}, {"note": 0, "velocity": 0, "duration": 156}, {"note": 69, "velocity": 102, "duration": 105}, {"note": 0, "velocity": 0, "duration": 135}, {"note": 67, "velocity": 107, "duration": 168}, {"note": 0, "velocity": 0, "duration": 312}, {"note": 72, "velocity": 112, "duration": 121}, {"note": 0, "velocity": 0, "duration": 119}, {"note": 69, "velocity": 92, "duration": 93}, {"note": 72, "velocity": 90, "duration": 101}, {"note": 74, "velocity": 112, "duration": 84}, {"note": 0, "velocity": 0, "duration": 156}, {"note": 74, "velocity": 112, "duration": 92}, {"note": 0, "velocity": 0, "duration": 148}, {"note": 72, "velocity": 117, "duration": 92}, {"note": 0, "velocity": 0, "duration": 148}, {"note": 69, "velocity": 100, "duration": 109}, {"note": 0, "velocity": 0, "duration": 131}, {"note": 67, "velocity": 127, "duration": 166}, {"note": 0, "velocity": 0, "duration": 314}, {"note": 60, "velocity": 117, "duration": 152}, {"note": 0, "velocity": 0, "duration": 88}, {"note": 69, "velocity": 107, "duration": 101}, {"note": 0, "velocity": 0, "duration": 139}, {"note": 69, "velocity": 112, "duration": 129}, {"note": 0, "velocity": 0, "duration": 111}, {"note": 67, "velocity": 127, "duration": 100}, {"note": 0, "velocity": 0, "duration": 140}, {"note": 65, "velocity": 127, "duration": 648}, {"note": 0, "velocity": 0, "duration": 312}, {"note": 69, "velocity": 127, "duration": 550}, {"note": 0, "velocity": 0, "duration": 170}, {"note": 72, "velocity": 127, "duration": 158}, {"note": 0, "velocity": 0, "duration": 82}, {"note": 67, "velocity": 102, "duration": 331}, {"note": 0, "velocity": 0, "duration": 149}, {"note": 67, "velocity": 122, "duration": 318}, {"note": 0, "velocity": 0, "duration": 162}, {"note": 65, "velocity": 112, "duration": 1019}]]