[[{"note": 62, "velocity": 95, "duration": 209}, {"note": 70, "velocity": 97, "duration": 178}, {"note": 0, "velocity": 0, "duration": 100}, {"note": 70, "velocity": 99, "duration": 193}, {"note": 0, "velocity": 0, "duration": 105}, {"note": 69, "velocity": 83, "duration": 238}, {"note": 0, "velocity": 0, "duration": 82}, {"note": 70, "velocity": 99, "duration": 1104}, {"note": 0, "velocity": 0, "duration": 566}, {"note": 62, "velocity": 95, "duration": 216}, {"note": 69, "velocity": 89, "duration": 178}, {"note": 0, "velocity": 0, "duration": 112}, {"note": 69, "velocity": 97, "duration": 196}, {"note": 0, "velocity": 0, "duration": 120}, {"note": 67, "velocity": 95, "duration": 169}, {"note": 0, "velocity": 0, "duration": 172}, {"note": 69, "velocity": 99, "duration": 1078}, {"note": 0, "velocity": 0, "duration": 15704}, {"note": 62, "velocity": 99, "duration": 239}, {"note": 62, "velocity": 96, "duration": 239}, {"note": 62, "velocity": 97, "duration": 239}, {"note": 62, "velocity": 100, "duration": 239}, {"note": 62, "velocity": 99, "duration": 240}, {"note": 63, "velocity": 102, "duration": 240}, {"note": 62, "velocity": 107, "duration": 479}, {"note": 62, "velocity": 97, "duration": 240}, {"note": 63, "velocity": 117, "duration": 240}, {"note": 62, "velocity": 122, "duration": 480}, {"note": 60, "velocity": 117, "duration": 240}, {"note": 58, "velocity": 107, "duration": 720}, {"note": 67, "velocity": 122, "duration": 239}, {"note": 67, "velocity": 107, "duration": 239}, {"note": 67, "velocity": 107, "duration": 239}, {"note": 67, "velocity": 117, "duration": 360}, {"note": 65, "velocity": 117, "duration": 360}, {"note": 60, "velocity": 100, "duration": 480}, {"note": 62, "velocity": 117, "duration": 1920}, {"note": 63, "velocity": 112, "duration": 239}, {"note": 63, "velocity": 117, "duration": 239}, {"note": 63, "velocity": 117, "duration": 239}, {"note": 63, "velocity": 127, "duration": 240}, {"note": 62, "velocity": 122, "duration": 240}, {"note": 60, "velocity": 117, "duration": 720}, {"note": 62, "velocity": 122, "duration": 239}, {"note": 62, "velocity": 97, "duration": 239}, {"note": 62, "velocity": 107, "duration": 239}, {"note": 62, "velocity": 117, "duration": 240}, {"note": 60, "velocity": 107, "duration": 240}, {"note": 58, "velocity": 112, "duration": 719}, {"note": 58, "velocity": 99, "duration": 239}, {"note": 58, "velocity": 97, "duration": 239}, {"note": 58, "velocity": 99, "duration": 239}, {"note": 58, "velocity": 112, "duration": 240}, {"note": 60, "velocity": 99, "duration": 720}, {"note": 58, "velocity": 107, "duration": 360}, {"note": 57, "velocity": 99, "duration": 1800}, {"note": 62, "velocity": 99, "duration": 239}, {"note": 62, "velocity": 96, "duration": 239}, {"note": 62, "velocity": 97, "duration": 239}, {"note": 62, "velocity": 100, "duration": 239}, {"note": 62, "velocity": 99, "duration": 240}, {"note": 63, "velocity": 102, "duration": 240}, {"note": 62, "velocity": 107, "duration": 479}, {"note": 62, "velocity": 97, "duration": 240}, {"note": 63, "velocity": 117, "duration": 240}, {"note": 62, "velocity": 122, "duration": 480}, {"note": 60, "velocity": 117, "duration": 240}, {"note": 58, "velocity": 107, "duration": 720}, {"note": 67, "velocity": 122, "duration": 239}, {"note": 67, "velocity": 102, "duration": 239}, {"note": 67, "velocity": 112, "duration": 240}, {"note": 70, "velocity": 117, "duration": 360}, {"note": 69, "velocity": 122, "duration": 360}, {"note": 62, "velocity": 122, "duration": 480}, {"note": 65, "velocity": 117, "duration": 1920}, {"note": 63, "velocity": 112, "duration": 239}, {"note": 63, "velocity": 117, "duration": 239}, {"note": 63, "velocity": 117, "duration": 239}, {"note": 63, "velocity": 127, "duration": 240}, {"note": 67, "velocity": 102, "duration": 240}, {"note": 69, "velocity": 127, "duration": 269}, {"note": 70, "velocity": 122, "duration": 480}, {"note": 62, "velocity": 122, "duration": 239}, {"note": 62, "velocity": 97, "duration": 239}, {"note": 62, "velocity": 107, "duration": 239}, {"note": 62, "velocity": 117, "duration": 240}, {"note": 67, "velocity": 127, "duration": 240}, {"note": 69, "velocity": 127, "duration": 240}, {"note": 70, "velocity": 127, "duration": 479}, {"note": 70, "velocity": 127, "duration": 239}, {"note": 70, "velocity": 112, "duration": 239}, {"note": 70, "velocity": 117, "duration": 239}, {"note": 70, "velocity": 122, "duration": 240}, {"note": 72, "velocity": 117, "duration": 244}, {"note": 70, "velocity": 102, "duration": 239}, {"note": 70, "velocity": 122, "duration": 480}, {"note": 69, "velocity": 127, "duration": 1680}, {"note": 62, "velocity": 102, "duration": 240}, {"note": 70, "velocity": 127, "duration": 239}, {"note": 70, "velocity": 127, "duration": 240}, {"note": 69, "velocity": 96, "duration": 240}, {"note": 70, "velocity": 127, "duration": 960}, {"note": 62, "velocity": 122, "duration": 240}, {"note": 69, "velocity": 100, "duration": 239}, {"note": 69, "velocity": 90, "duration": 240}, {"note": 67, "velocity": 127, "duration": 240}, {"note": 69, "velocity": 127, "duration": 960}, {"note": 67, "velocity": 122, "duration": 240}, {"note": 65, "velocity": 97, "duration": 240}, {"note": 67, "velocity": 122, "duration": 240}, {"note": 69, "velocity": 112, "duration": 240}, {"note": 70, "velocity": 127, "duration": 480}, {"note": 67, "velocity": 122, "duration": 240}, {"note": 65, "velocity": 127, "duration": 1920}, {"note": 62, "velocity": 107, "duration": 240}, {"note": 63, "velocity": 127, "duration": 240}, {"note": 62, "velocity": 117, "duration": 240}, {"note": 60, "velocity": 102, "duration": 240}, {"note": 62, "velocity": 95, "duration": 240}, {"note": 63, "velocity": 117, "duration": 720}, {"note": 67, "velocity": 122, "duration": 480}, {"note": 62, "velocity": 127, "duration": 239}, {"note": 62, "velocity": 112, "duration": 240}, {"note": 60, "velocity": 96, "duration": 240}, {"note": 62, "velocity": 127, "duration": 839}, {"note": 62, "velocity": 86, "duration": 120}, {"note": 67, "velocity": 100, "duration": 240}, {"note": 62, "velocity": 99, "duration": 240}, {"note": 67, "velocity": 117, "duration": 240}, {"note": 69, "velocity": 112, "duration": 240}, {"note": 72, "velocity": 117, "duration": 240}, {"note": 70, "velocity": 112, "duration": 240}, {"note": 69, "velocity": 102, "duration": 240}, {"note": 67, "velocity": 112, "duration": 480}, {"note": 69, "velocity": 127, "duration": 1680}, {"note": 62, "velocity": 102, "duration": 240}, {"note": 70, "velocity": 127, "duration": 239}, {"note": 70, "velocity": 127, "duration": 240}, {"note": 69, "velocity": 96, "duration": 240}, {"note": 70, "velocity": 127, "duration": 960}, {"note": 72, "velocity": 117, "duration": 240}, {"note": 69, "velocity": 127, "duration": 240}, {"note": 67, "velocity": 122, "duration": 240}, {"note": 65, "velocity": 107, "duration": 240}, {"note": 69, "velocity": 122, "duration": 960}, {"note": 67, "velocity": 122, "duration": 240}, {"note": 65, "velocity": 97, "duration": 240}, {"note": 67, "velocity": 122, "duration": 240}, {"note": 69, "velocity": 112, "duration": 240}, {"note": 70, "velocity": 127, "duration": 480}, {"note": 75, "velocity": 127, "duration": 241}, {"note": 74, "velocity": 122, "duration": 1919}, {"note": 74, "velocity": 127, "duration": 240}, {"note": 75, "velocity": 127, "duration": 240}, {"note": 74, "velocity": 117, "duration": 239}, {"note": 74, "velocity": 127, "duration": 240}, {"note": 72, "velocity": 97, "duration": 239}, {"note": 72, "velocity": 122, "duration": 720}, {"note": 74, "velocity": 127, "duration": 480}, {"note": 72, "velocity": 122, "duration": 239}, {"note": 72, "velocity": 122, "duration": 240}, {"note": 70, "velocity": 127, "duration": 239}, {"note": 70, "velocity": 127, "duration": 959}, {"note": 70, "velocity": 127, "duration": 239}, {"note": 70, "velocity": 127, "duration": 239}, {"note": 70, "velocity": 127, "duration": 239}, {"note": 70, "velocity": 122, "duration": 239}, {"note": 70, "velocity": 117, "duration": 240}, {"note": 72, "velocity": 127, "duration": 240}, {"note": 70, "velocity": 122, "duration": 239}, {"note": 70, "velocity": 122, "duration": 480}, {"note": 69, "velocity": 107, "duration": 720}, {"note": 70, "velocity": 127, "duration": 480}, {"note": 69, "velocity": 112, "duration": 239}, {"note": 69, "velocity": 127, "duration": 480}, {"note": 67, "velocity": 107, "duration": 1681}, {"note": 0, "velocity": 0, "duration": 15599}, {"note": 62, "velocity": 99, "duration": 239}, {"note": 62, "velocity": 96, "duration": 239}, {"note": 62, "velocity": 97, "duration": 239}, {"note": 62, "velocity": 100, "duration": 239}, {"note": 62, "velocity": 99, "duration": 240}, {"note": 63, "velocity": 102, "duration": 240}, {"note": 62, "velocity": 107, "duration": 479}, {"note": 62, "velocity": 97, "duration": 240}, {"note": 63, "velocity": 117, "duration": 240}, {"note": 62, "velocity": 122, "duration": 480}, {"note": 60, "velocity": 117, "duration": 240}, {"note": 58, "velocity": 107, "duration": 720}, {"note": 67, "velocity": 122, "duration": 239}, {"note": 67, "velocity": 107, "duration": 239}, {"note": 67, "velocity": 107, "duration": 239}, {"note": 67, "velocity": 117, "duration": 360}, {"note": 65, "velocity": 117, "duration": 360}, {"note": 60, "velocity": 100, "duration": 480}, {"note": 62, "velocity": 117, "duration": 1920}, {"note": 63, "velocity": 112, "duration": 239}, {"note": 63, "velocity": 117, "duration": 239}, {"note": 63, "velocity": 117, "duration": 239}, {"note": 63, "velocity": 127, "duration": 240}, {"note": 62, "velocity": 122, "duration": 240}, {"note": 60, "velocity": 117, "duration": 720}, {"note": 62, "velocity": 122, "duration": 239}, {"note": 62, "velocity": 97, "duration": 239}, {"note": 62, "velocity": 107, "duration": 239}, {"note": 62, "velocity": 117, "duration": 240}, {"note": 60, "velocity": 107, "duration": 240}, {"note": 58, "velocity": 112, "duration": 719}, {"note": 58, "velocity": 99, "duration": 239}, {"note": 58, "velocity": 97, "duration": 239}, {"note": 58, "velocity": 99, "duration": 239}, {"note": 58, "velocity": 112, "duration": 240}, {"note": 60, "velocity": 99, "duration": 720}, {"note": 58, "velocity": 107, "duration": 360}, {"note": 57, "velocity": 99, "duration": 1800}, {"note": 62, "velocity": 99, "duration": 239}, {"note": 62, "velocity": 96, "duration": 239}, {"note": 62, "velocity": 97, "duration": 239}, {"note": 62, "velocity": 100, "duration": 239}, {"note": 62, "velocity": 99, "duration": 240}, {"note": 63, "velocity": 102, "duration": 240}, {"note": 62, "velocity": 107, "duration": 479}, {"note": 62, "velocity": 97, "duration": 240}, {"note": 63, "velocity": 117, "duration": 240}, {"note": 62, "velocity": 122, "duration": 480}, {"note": 60, "velocity": 117, "duration": 240}, {"note": 58, "velocity": 107, "duration": 720}, {"note": 67, "velocity": 122, "duration": 239}, {"note": 67, "velocity": 102, "duration": 239}, {"note": 67, "velocity": 112, "duration": 240}, {"note": 70, "velocity": 117, "duration": 360}, {"note": 69, "velocity": 122, "duration": 360}, {"note": 62, "velocity": 122, "duration": 480}, {"note": 65, "velocity": 117, "duration": 1920}, {"note": 63, "velocity": 112, "duration": 239}, {"note": 63, "velocity": 117, "duration": 239}, {"note": 63, "velocity": 117, "duration": 239}, {"note": 63, "velocity": 127, "duration": 240}, {"note": 67, "velocity": 102, "duration": 240}, {"note": 69, "velocity": 127, "duration": 269}, {"note": 70, "velocity": 122, "duration": 480}, {"note": 62, "velocity": 122, "duration": 239}, {"note": 62, "velocity": 97, "duration": 239}, {"note": 62, "velocity": 107, "duration": 239}, {"note": 62, "velocity": 117, "duration": 240}, {"note": 67, "velocity": 127, "duration": 240}, {"note": 69, "velocity": 127, "duration": 240}, {"note": 70, "velocity": 127, "duration": 479}, {"note": 70, "velocity": 127, "duration": 239}, {"note": 70, "velocity": 112, "duration": 239}, {"note": 70, "velocity": 117, "duration": 239}, {"note": 70, "velocity": 122, "duration": 240}, {"note": 72, "velocity": 117, "duration": 244}, {"note": 70, "velocity": 102, "duration": 239}, {"note": 70, "velocity": 122, "duration": 480}, {"note": 69, "velocity": 127, "duration": 1680}, {"note": 62, "velocity": 102, "duration": 240}, {"note": 70, "velocity": 127, "duration": 239}, {"note": 70, "velocity": 127, "duration": 240}, {"note": 69, "velocity": 96, "duration": 240}, {"note": 70, "velocity": 127, "duration": 960}, {"note": 62, "velocity": 122, "duration": 240}, {"note": 69, "velocity": 100, "duration": 239}, {"note": 69, "velocity": 90, "duration": 240}, {"note": 67, "velocity": 127, "duration": 240}, {"note": 69, "velocity": 127, "duration": 960}, {"note": 67, "velocity": 122, "duration": 240}, {"note": 65, "velocity": 97, "duration": 240}, {"note": 67, "velocity": 122, "duration": 240}, {"note": 69, "velocity": 112, "duration": 240}, {"note": 70, "velocity": 127, "duration": 480}, {"note": 67, "velocity": 122, "duration": 240}, {"note": 65, "velocity": 127, "duration": 1920}, {"note": 62, "velocity": 107, "duration": 240}, {"note": 63, "velocity": 127, "duration": 240}, {"note": 62, "velocity": 117, "duration": 240}, {"note": 60, "velocity": 102, "duration": 240}, {"note": 62, "velocity": 95, "duration": 240}, {"note": 63, "velocity": 117, "duration": 720}, {"note": 67, "velocity": 122, "duration": 480}, {"note": 62, "velocity": 127, "duration": 239}, {"note": 62, "velocity": 112, "duration": 240}, {"note": 60, "velocity": 96, "duration": 240}, {"note": 62, "velocity": 127, "duration": 839}, {"note": 62, "velocity": 86, "duration": 120}, {"note": 67, "velocity": 100, "duration": 240}, {"note": 62, "velocity": 99, "duration": 240}, {"note": 67, "velocity": 117, "duration": 240}, {"note": 69, "velocity": 112, "duration": 240}, {"note": 72, "velocity": 117, "duration": 240}, {"note": 70, "velocity": 112, "duration": 240}, {"note": 69, "velocity": 102, "duration": 240}, {"note": 67, "velocity": 112, "duration": 480}, {"note": 69, "velocity": 127, "duration": 1680}, {"note": 62, "velocity": 102, "duration": 240}, {"note": 70, "velocity": 127, "duration": 239}, {"note": 70, "velocity": 127, "duration": 240}, {"note": 69, "velocity": 96, "duration": 240}, {"note": 70, "velocity": 127, "duration": 960}, {"note": 72, "velocity": 117, "duration": 240}, {"note": 69, "velocity": 127, "duration": 240}, {"note": 67, "velocity": 122, "duration": 240}, {"note": 65, "velocity": 107, "duration": 240}, {"note": 69, "velocity": 122, "duration": 960}, {"note": 67, "velocity": 122, "duration": 240}, {"note": 65, "velocity": 97, "duration": 240}, {"note": 67, "velocity": 122, "duration": 240}, {"note": 69, "velocity": 112, "duration": 240}, {"note": 70, "velocity": 127, "duration": 480}, {"note": 75, "velocity": 127, "duration": 241}, {"note": 74, "velocity": 122, "duration": 1919}, {"note": 74, "velocity": 127, "duration": 240}, {"note": 75, "velocity": 127, "duration": 240}, {"note": 74, "velocity": 117, "duration": 239}, {"note": 74, "velocity": 127, "duration": 240}, {"note": 72, "velocity": 97, "duration": 239}, {"note": 72, "velocity": 122, "duration": 720}, {"note": 74, "velocity": 127, "duration": 480}, {"note": 72, "velocity": 122, "duration": 239}, {"note": 72, "velocity": 122, "duration": 240}, {"note": 70, "velocity": 127, "duration": 239}, {"note": 70, "velocity": 127, "duration": 959}, {"note": 70, "velocity": 127, "duration": 239}, {"note": 70, "velocity": 127, "duration": 239}, {"note": 70, "velocity": 127, "duration": 239}, {"note": 70, "velocity": 122, "duration": 239}, {"note": 70, "velocity": 117, "duration": 240}, {"note": 72, "velocity": 127, "duration": 240}, {"note": 70, "velocity": 122, "duration": 239}, {"note": 70, "velocity": 127, "duration": 480}, {"note": 69, "velocity": 127, "duration": 480}, {"note": 62, "velocity": 112, "duration": 240}, {"note": 70, "velocity": 127, "duration": 480}, {"note": 69, "velocity": 112, "duration": 239}, {"note": 69, "velocity": 127, "duration": 480}, {"note": 67, "velocity": 107, "duration": 3600}, {"note": 62, "velocity": 102, "duration": 240}, {"note": 70, "velocity": 127, "duration": 239}, {"note": 70, "velocity": 127, "duration": 240}, {"note": 69, "velocity": 96, "duration": 240}, {"note": 70, "velocity": 127, "duration": 960}, {"note": 62, "velocity": 122, "duration": 240}, {"note": 69, "velocity": 100, "duration": 239}, {"note": 69, "velocity": 90, "duration": 240}, {"note": 67, "velocity": 127, "duration": 240}, {"note": 69, "velocity": 127, "duration": 960}, {"note": 67, "velocity": 122, "duration": 240}, {"note": 65, "velocity": 97, "duration": 240}, {"note": 67, "velocity": 122, "duration": 240}, {"note": 69, "velocity": 112, "duration": 240}, {"note": 70, "velocity": 127, "duration": 480}, {"note": 67, "velocity": 122, "duration": 240}, {"note": 65, "velocity": 127, "duration": 1920}, {"note": 62, "velocity": 107, "duration": 240}, {"note": 63, "velocity": 127, "duration": 240}, {"note": 62, "velocity": 117, "duration": 240}, {"note": 60, "velocity": 102, "duration": 240}, {"note": 62, "velocity": 95, "duration": 240}, {"note": 63, "velocity": 117, "duration": 720}, {"note": 67, "velocity": 122, "duration": 480}, {"note": 62, "velocity": 127, "duration": 239}, {"note": 62, "velocity": 112, "duration": 240}, {"note": 60, "velocity": 96, "duration": 240}, {"note": 62, "velocity": 127, "duration": 839}, {"note": 62, "velocity": 86, "duration": 120}, {"note": 67, "velocity": 100, "duration": 240}, {"note": 62, "velocity": 99, "duration": 240}, {"note": 67, "velocity": 117, "duration": 240}, {"note": 69, "velocity": 112, "duration": 240}, {"note": 72, "velocity": 117, "duration": 240}, {"note": 70, "velocity": 112, "duration": 240}, {"note": 69, "velocity": 102, "duration": 240}, {"note": 67, "velocity": 112, "duration": 480}, {"note": 69, "velocity": 127, "duration": 1680}, {"note": 62, "velocity": 102, "duration": 240}, {"note": 70, "velocity": 127, "duration": 239}, {"note": 70, "velocity": 127, "duration": 240}, {"note": 69, "velocity": 96, "duration": 240}, {"note": 70, "velocity": 127, "duration": 960}, {"note": 72, "velocity": 117, "duration": 240}, {"note": 69, "velocity": 127, "duration": 240}, {"note": 67, "velocity": 122, "duration": 240}, {"note": 65, "velocity": 107, "duration": 240}, {"note": 69, "velocity": 122, "duration": 960}, {"note": 67, "velocity": 122, "duration": 240}, {"note": 65, "velocity": 97, "duration": 240}, {"note": 67, "velocity": 122, "duration": 240}, {"note": 69, "velocity": 112, "duration": 240}, {"note": 70, "velocity": 127, "duration": 480}, {"note": 75, "velocity": 127, "duration": 241}, {"note": 74, "velocity": 122, "duration": 1919}, {"note": 74, "velocity": 127, "duration": 240}, {"note": 75, "velocity": 127, "duration": 240}, {"note": 74, "velocity": 117, "duration": 239}, {"note": 74, "velocity": 127, "duration": 240}, {"note": 72, "velocity": 97, "duration": 239}, {"note": 72, "velocity": 122, "duration": 720}, {"note": 74, "velocity": 127, "duration": 480}, {"note": 72, "velocity": 122, "duration": 239}, {"note": 72, "velocity": 122, "duration": 240}, {"note": 70, "velocity": 127, "duration": 239}, {"note": 70, "velocity": 127, "duration": 959}, {"note": 70, "velocity": 127, "duration": 239}, {"note": 70, "velocity": 127, "duration": 239}, {"note": 70, "velocity": 127, "duration": 239}, {"note": 70, "velocity": 122, "duration": 239}, {"note": 70, "velocity": 117, "duration": 240}, {"note": 72, "velocity": 127, "duration": 240}, {"note": 70, "velocity": 122, "duration": 239}, {"note": 70, "velocity": 127, "duration": 480}, {"note": 69, "velocity": 127, "duration": 720}, {"note": 70, "velocity": 127, "duration": 480}, {"note": 69, "velocity": 112, "duration": 239}, {"note": 69, "velocity": 127, "duration": 480}, {"note": 67, "velocity": 107, "duration": 1681}]]