[[{"note": 71, "velocity": 127, "duration": 152}, {"note": 0, "velocity": 0, "duration": 88}, {"note": 71, "velocity": 127, "duration": 155}, {"note": 0, "velocity": 0, "duration": 85}, {"note": 71, "velocity": 122, "duration": 189}, {"note": 69, "velocity": 127, "duration": 186}, {"note": 71, "velocity": 127, "duration": 211}, {"note": 69, "velocity": 122, "duration": 157}, {"note": 0, "velocity": 0, "duration": 83}, {"note": 62, "velocity": 107, "duration": 198}, {"note": 64, "velocity": 102, "duration": 220}, {"note": 67, "velocity": 127, "duration": 476}, {"note": 0, "velocity": 0, "duration": 1444}, {"note": 67, "velocity": 127, "duration": 148}, {"note": 0, "velocity": 0, "duration": 92}, {"note": 67, "velocity": 122, "duration": 141}, {"note": 0, "velocity": 0, "duration": 99}, {"note": 67, "velocity": 127, "duration": 158}, {"note": 0, "velocity": 0, "duration": 82}, {"note": 64, "velocity": 117, "duration": 165}, {"note": 0, "velocity": 0, "duration": 75}, {"note": 76, "velocity": 107, "duration": 325}, {"note": 74, "velocity": 117, "duration": 162}, {"note": 0, "velocity": 0, "duration": 78}, {"note": 74, "velocity": 122, "duration": 173}, {"note": 0, "velocity": 0, "duration": 67}, {"note": 69, "velocity": 127, "duration": 229}, {"note": 71, "velocity": 127, "duration": 1037}, {"note": 0, "velocity": 0, "duration": 883}, {"note": 71, "velocity": 127, "duration": 158}, {"note": 0, "velocity": 0, "duration": 82}, {"note": 71, "velocity": 127, "duration": 228}, {"note": 69, "velocity": 107, "duration": 193}, {"note": 71, "velocity": 127, "duration": 191}, {"note": 74, "velocity": 127, "duration": 729}, {"note": 0, "velocity": 0, "duration": 231}, {"note": 71, "velocity": 127, "duration": 175}, {"note": 0, "velocity": 0, "duration": 65}, {"note": 69, "velocity": 127, "duration": 161}, {"note": 0, "velocity": 0, "duration": 79}, {"note": 69, "velocity": 127, "duration": 157}, {"note": 0, "velocity": 0, "duration": 83}, {"note": 67, "velocity": 127, "duration": 160}, {"note": 0, "velocity": 0, "duration": 80}, {"note": 64, "velocity": 127, "duration": 520}, {"note": 0, "velocity": 0, "duration": 440}, {"note": 69, "velocity": 127, "duration": 128}, {"note": 0, "velocity": 0, "duration": 112}, {"note": 69, "velocity": 122, "duration": 60}, {"note": 69, "velocity": 112, "duration": 52}, {"note": 0, "velocity": 0, "duration": 68}, {"note": 69, "velocity": 122, "duration": 156}, {"note": 0, "velocity": 0, "duration": 84}, {"note": 67, "velocity": 112, "duration": 182}, {"note": 69, "velocity": 127, "duration": 154}, {"note": 0, "velocity": 0, "duration": 86}, {"note": 71, "velocity": 122, "duration": 316}, {"note": 0, "velocity": 0, "duration": 164}, {"note": 64, "velocity": 127, "duration": 201}, {"note": 62, "velocity": 107, "duration": 1064}, {"note": 0, "velocity": 0, "duration": 856}, {"note": 71, "velocity": 127, "duration": 138}, {"note": 0, "velocity": 0, "duration": 102}, {"note": 71, "velocity": 127, "duration": 129}, {"note": 0, "velocity": 0, "duration": 111}, {"note": 71, "velocity": 127, "duration": 118}, {"note": 0, "velocity": 0, "duration": 122}, {"note": 69, "velocity": 117, "duration": 155}, {"note": 0, "velocity": 0, "duration": 85}, {"note": 71, "velocity": 117, "duration": 165}, {"note": 0, "velocity": 0, "duration": 75}, {"note": 69, "velocity": 127, "duration": 143}, {"note": 71, "velocity": 112, "duration": 97}, {"note": 62, "velocity": 122, "duration": 189}, {"note": 64, "velocity": 112, "duration": 206}, {"note": 67, "velocity": 127, "duration": 682}, {"note": 0, "velocity": 0, "duration": 1238}, {"note": 67, "velocity": 127, "duration": 252}, {"note": 0, "velocity": 0, "duration": 108}, {"note": 67, "velocity": 122, "duration": 53}, {"note": 0, "velocity": 0, "duration": 67}, {"note": 67, "velocity": 99, "duration": 150}, {"note": 0, "velocity": 0, "duration": 90}, {"note": 64, "velocity": 112, "duration": 185}, {"note": 76, "velocity": 127, "duration": 203}, {"note": 74, "velocity": 117, "duration": 169}, {"note": 0, "velocity": 0, "duration": 71}, {"note": 74, "velocity": 127, "duration": 164}, {"note": 0, "velocity": 0, "duration": 316}, {"note": 69, "velocity": 122, "duration": 276}, {"note": 0, "velocity": 0, "duration": 84}, {"note": 71, "velocity": 127, "duration": 1192}, {"note": 0, "velocity": 0, "duration": 368}, {"note": 71, "velocity": 122, "duration": 164}, {"note": 0, "velocity": 0, "duration": 76}, {"note": 71, "velocity": 117, "duration": 229}, {"note": 69, "velocity": 107, "duration": 215}, {"note": 71, "velocity": 127, "duration": 196}, {"note": 74, "velocity": 127, "duration": 632}, {"note": 0, "velocity": 0, "duration": 328}, {"note": 71, "velocity": 127, "duration": 175}, {"note": 0, "velocity": 0, "duration": 65}, {"note": 69, "velocity": 127, "duration": 156}, {"note": 0, "velocity": 0, "duration": 84}, {"note": 69, "velocity": 127, "duration": 166}, {"note": 0, "velocity": 0, "duration": 74}, {"note": 67, "velocity": 127, "duration": 166}, {"note": 0, "velocity": 0, "duration": 74}, {"note": 64, "velocity": 107, "duration": 735}, {"note": 0, "velocity": 0, "duration": 225}, {"note": 69, "velocity": 127, "duration": 231}, {"note": 0, "velocity": 0, "duration": 129}, {"note": 69, "velocity": 127, "duration": 59}, {"note": 0, "velocity": 0, "duration": 61}, {"note": 69, "velocity": 112, "duration": 117}, {"note": 0, "velocity": 0, "duration": 123}, {"note": 67, "velocity": 117, "duration": 149}, {"note": 0, "velocity": 0, "duration": 91}, {"note": 69, "velocity": 127, "duration": 105}, {"note": 0, "velocity": 0, "duration": 135}, {"note": 69, "velocity": 127, "duration": 115}, {"note": 67, "velocity": 112, "duration": 71}, {"note": 62, "velocity": 117, "duration": 225}, {"note": 64, "velocity": 122, "duration": 199}, {"note": 67, "velocity": 127, "duration": 1241}, {"note": 0, "velocity": 0, "duration": 679}, {"note": 74, "velocity": 127, "duration": 259}, {"note": 0, "velocity": 0, "duration": 101}, {"note": 74, "velocity": 112, "duration": 61}, {"note": 74, "velocity": 122, "duration": 172}, {"note": 0, "velocity": 0, "duration": 68}, {"note": 76, "velocity": 127, "duration": 152}, {"note": 0, "velocity": 0, "duration": 88}, {"note": 79, "velocity": 127, "duration": 273}, {"note": 0, "velocity": 0, "duration": 87}, {"note": 79, "velocity": 127, "duration": 236}, {"note": 0, "velocity": 0, "duration": 244}, {"note": 71, "velocity": 117, "duration": 230}, {"note": 0, "velocity": 0, "duration": 130}, {"note": 74, "velocity": 127, "duration": 1227}, {"note": 0, "velocity": 0, "duration": 453}, {"note": 76, "velocity": 127, "duration": 182}, {"note": 79, "velocity": 127, "duration": 168}, {"note": 0, "velocity": 0, "duration": 72}, {"note": 76, "velocity": 127, "duration": 175}, {"note": 0, "velocity": 0, "duration": 65}, {"note": 74, "velocity": 112, "duration": 161}, {"note": 0, "velocity": 0, "duration": 79}, {"note": 76, "velocity": 127, "duration": 225}, {"note": 74, "velocity": 127, "duration": 171}, {"note": 0, "velocity": 0, "duration": 69}, {"note": 71, "velocity": 127, "duration": 185}, {"note": 0, "velocity": 0, "duration": 295}, {"note": 67, "velocity": 127, "duration": 202}, {"note": 64, "velocity": 107, "duration": 205}, {"note": 71, "velocity": 127, "duration": 181}, {"note": 67, "velocity": 127, "duration": 151}, {"note": 0, "velocity": 0, "duration": 89}, {"note": 69, "velocity": 127, "duration": 702}, {"note": 0, "velocity": 0, "duration": 258}, {"note": 71, "velocity": 127, "duration": 165}, {"note": 0, "velocity": 0, "duration": 75}, {"note": 71, "velocity": 127, "duration": 220}, {"note": 69, "velocity": 112, "duration": 216}, {"note": 71, "velocity": 127, "duration": 221}, {"note": 74, "velocity": 127, "duration": 609}, {"note": 0, "velocity": 0, "duration": 351}, {"note": 69, "velocity": 127, "duration": 189}, {"note": 71, "velocity": 127, "duration": 158}, {"note": 0, "velocity": 0, "duration": 82}, {"note": 69, "velocity": 127, "duration": 172}, {"note": 0, "velocity": 0, "duration": 68}, {"note": 67, "velocity": 127, "duration": 181}, {"note": 64, "velocity": 117, "duration": 742}, {"note": 0, "velocity": 0, "duration": 218}, {"note": 69, "velocity": 127, "duration": 246}, {"note": 0, "velocity": 0, "duration": 114}, {"note": 69, "velocity": 107, "duration": 61}, {"note": 69, "velocity": 127, "duration": 144}, {"note": 0, "velocity": 0, "duration": 96}, {"note": 71, "velocity": 127, "duration": 164}, {"note": 0, "velocity": 0, "duration": 76}, {"note": 69, "velocity": 127, "duration": 186}, {"note": 67, "velocity": 127, "duration": 149}, {"note": 0, "velocity": 0, "duration": 91}, {"note": 64, "velocity": 127, "duration": 327}, {"note": 0, "velocity": 0, "duration": 153}, {"note": 76, "velocity": 127, "duration": 200}, {"note": 79, "velocity": 127, "duration": 167}, {"note": 0, "velocity": 0, "duration": 73}, {"note": 79, "velocity": 127, "duration": 133}, {"note": 0, "velocity": 0, "duration": 107}, {"note": 71, "velocity": 127, "duration": 190}, {"note": 74, "velocity": 127, "duration": 841}, {"note": 0, "velocity": 0, "duration": 119}, {"note": 74, "velocity": 127, "duration": 259}, {"note": 0, "velocity": 0, "duration": 101}, {"note": 74, "velocity": 112, "duration": 61}, {"note": 74, "velocity": 122, "duration": 172}, {"note": 0, "velocity": 0, "duration": 68}, {"note": 76, "velocity": 127, "duration": 152}, {"note": 0, "velocity": 0, "duration": 88}, {"note": 79, "velocity": 127, "duration": 273}, {"note": 0, "velocity": 0, "duration": 87}, {"note": 79, "velocity": 127, "duration": 236}, {"note": 0, "velocity": 0, "duration": 244}, {"note": 71, "velocity": 117, "duration": 230}, {"note": 0, "velocity": 0, "duration": 130}, {"note": 74, "velocity": 127, "duration": 1227}, {"note": 0, "velocity": 0, "duration": 453}, {"note": 76, "velocity": 127, "duration": 182}, {"note": 79, "velocity": 127, "duration": 168}, {"note": 0, "velocity": 0, "duration": 72}, {"note": 76, "velocity": 127, "duration": 175}, {"note": 0, "velocity": 0, "duration": 65}, {"note": 74, "velocity": 112, "duration": 161}, {"note": 0, "velocity": 0, "duration": 79}, {"note": 76, "velocity": 127, "duration": 225}, {"note": 74, "velocity": 127, "duration": 171}, {"note": 0, "velocity": 0, "duration": 69}, {"note": 71, "velocity": 127, "duration": 381}, {"note": 0, "velocity": 0, "duration": 99}, {"note": 67, "velocity": 127, "duration": 202}, {"note": 64, "velocity": 107, "duration": 205}, {"note": 71, "velocity": 127, "duration": 181}, {"note": 67, "velocity": 127, "duration": 151}, {"note": 0, "velocity": 0, "duration": 89}, {"note": 69, "velocity": 127, "duration": 702}, {"note": 0, "velocity": 0, "duration": 258}, {"note": 71, "velocity": 127, "duration": 165}, {"note": 0, "velocity": 0, "duration": 75}, {"note": 71, "velocity": 127, "duration": 220}, {"note": 69, "velocity": 112, "duration": 216}, {"note": 71, "velocity": 127, "duration": 221}, {"note": 74, "velocity": 127, "duration": 609}, {"note": 0, "velocity": 0, "duration": 351}, {"note": 69, "velocity": 127, "duration": 189}, {"note": 71, "velocity": 127, "duration": 158}, {"note": 0, "velocity": 0, "duration": 82}, {"note": 69, "velocity": 127, "duration": 172}, {"note": 0, "velocity": 0, "duration": 68}, {"note": 67, "velocity": 127, "duration": 181}, {"note": 64, "velocity": 117, "duration": 742}, {"note": 0, "velocity": 0, "duration": 218}, {"note": 62, "velocity": 107, "duration": 107}, {"note": 0, "velocity": 0, "duration": 133}, {"note": 64, "velocity": 127, "duration": 170}, {"note": 0, "velocity": 0, "duration": 70}, {"note": 64, "velocity": 127, "duration": 162}, {"note": 0, "velocity": 0, "duration": 78}, {"note": 62, "velocity": 127, "duration": 144}, {"note": 0, "velocity": 0, "duration": 96}, {"note": 76, "velocity": 127, "duration": 187}, {"note": 74, "velocity": 127, "duration": 150}, {"note": 0, "velocity": 0, "duration": 90}, {"note": 71, "velocity": 127, "duration": 187}, {"note": 0, "velocity": 0, "duration": 293}, {"note": 69, "velocity": 127, "duration": 199}, {"note": 71, "velocity": 127, "duration": 165}, {"note": 0, "velocity": 0, "duration": 75}, {"note": 62, "velocity": 122, "duration": 209}, {"note": 64, "velocity": 127, "duration": 176}, {"note": 0, "velocity": 0, "duration": 64}, {"note": 67, "velocity": 127, "duration": 911}, {"note": 0, "velocity": 0, "duration": 15409}, {"note": 71, "velocity": 127, "duration": 138}, {"note": 0, "velocity": 0, "duration": 102}, {"note": 71, "velocity": 127, "duration": 129}, {"note": 0, "velocity": 0, "duration": 111}, {"note": 71, "velocity": 127, "duration": 118}, {"note": 0, "velocity": 0, "duration": 122}, {"note": 69, "velocity": 117, "duration": 155}, {"note": 0, "velocity": 0, "duration": 85}, {"note": 71, "velocity": 117, "duration": 165}, {"note": 0, "velocity": 0, "duration": 75}, {"note": 69, "velocity": 127, "duration": 143}, {"note": 71, "velocity": 112, "duration": 97}, {"note": 62, "velocity": 122, "duration": 189}, {"note": 64, "velocity": 112, "duration": 206}, {"note": 67, "velocity": 127, "duration": 682}, {"note": 0, "velocity": 0, "duration": 1238}, {"note": 67, "velocity": 127, "duration": 252}, {"note": 0, "velocity": 0, "duration": 108}, {"note": 67, "velocity": 122, "duration": 53}, {"note": 0, "velocity": 0, "duration": 67}, {"note": 67, "velocity": 99, "duration": 150}, {"note": 0, "velocity": 0, "duration": 90}, {"note": 64, "velocity": 112, "duration": 185}, {"note": 76, "velocity": 127, "duration": 203}, {"note": 74, "velocity": 117, "duration": 169}, {"note": 0, "velocity": 0, "duration": 71}, {"note": 74, "velocity": 127, "duration": 164}, {"note": 0, "velocity": 0, "duration": 316}, {"note": 69, "velocity": 122, "duration": 276}, {"note": 0, "velocity": 0, "duration": 84}, {"note": 71, "velocity": 127, "duration": 1192}, {"note": 0, "velocity": 0, "duration": 368}, {"note": 71, "velocity": 122, "duration": 164}, {"note": 0, "velocity": 0, "duration": 76}, {"note": 71, "velocity": 117, "duration": 229}, {"note": 69, "velocity": 107, "duration": 215}, {"note": 71, "velocity": 127, "duration": 196}, {"note": 74, "velocity": 127, "duration": 632}, {"note": 0, "velocity": 0, "duration": 328}, {"note": 71, "velocity": 127, "duration": 175}, {"note": 0, "velocity": 0, "duration": 65}, {"note": 69, "velocity": 127, "duration": 156}, {"note": 0, "velocity": 0, "duration": 84}, {"note": 69, "velocity": 127, "duration": 166}, {"note": 0, "velocity": 0, "duration": 74}, {"note": 67, "velocity": 127, "duration": 166}, {"note": 0, "velocity": 0, "duration": 74}, {"note": 64, "velocity": 107, "duration": 735}, {"note": 0, "velocity": 0, "duration": 225}, {"note": 69, "velocity": 127, "duration": 231}, {"note": 0, "velocity": 0, "duration": 129}, {"note": 69, "velocity": 127, "duration": 59}, {"note": 0, "velocity": 0, "duration": 61}, {"note": 69, "velocity": 112, "duration": 117}, {"note": 0, "velocity": 0, "duration": 123}, {"note": 67, "velocity": 117, "duration": 149}, {"note": 0, "velocity": 0, "duration": 91}, {"note": 69, "velocity": 127, "duration": 105}, {"note": 0, "velocity": 0, "duration": 135}, {"note": 69, "velocity": 127, "duration": 115}, {"note": 67, "velocity": 112, "duration": 71}, {"note": 62, "velocity": 117, "duration": 225}, {"note": 64, "velocity": 122, "duration": 199}, {"note": 67, "velocity": 127, "duration": 1241}, {"note": 0, "velocity": 0, "duration": 679}, {"note": 74, "velocity": 127, "duration": 259}, {"note": 0, "velocity": 0, "duration": 101}, {"note": 74, "velocity": 112, "duration": 61}, {"note": 74, "velocity": 122, "duration": 172}, {"note": 0, "velocity": 0, "duration": 68}, {"note": 76, "velocity": 127, "duration": 152}, {"note": 0, "velocity": 0, "duration": 88}, {"note": 79, "velocity": 127, "duration": 273}, {"note": 0, "velocity": 0, "duration": 87}, {"note": 79, "velocity": 127, "duration": 236}, {"note": 0, "velocity": 0, "duration": 244}, {"note": 71, "velocity": 117, "duration": 230}, {"note": 0, "velocity": 0, "duration": 130}, {"note": 74, "velocity": 127, "duration": 1227}, {"note": 0, "velocity": 0, "duration": 453}, {"note": 76, "velocity": 127, "duration": 182}, {"note": 79, "velocity": 127, "duration": 168}, {"note": 0, "velocity": 0, "duration": 72}, {"note": 76, "velocity": 127, "duration": 175}, {"note": 0, "velocity": 0, "duration": 65}, {"note": 74, "velocity": 112, "duration": 161}, {"note": 0, "velocity": 0, "duration": 79}, {"note": 76, "velocity": 127, "duration": 225}, {"note": 74, "velocity": 127, "duration": 171}, {"note": 0, "velocity": 0, "duration": 69}, {"note": 71, "velocity": 127, "duration": 185}, {"note": 0, "velocity": 0, "duration": 295}, {"note": 67, "velocity": 127, "duration": 202}, {"note": 64, "velocity": 107, "duration": 205}, {"note": 71, "velocity": 127, "duration": 181}, {"note": 67, "velocity": 127, "duration": 151}, {"note": 0, "velocity": 0, "duration": 89}, {"note": 69, "velocity": 127, "duration": 702}, {"note": 0, "velocity": 0, "duration": 258}, {"note": 71, "velocity": 127, "duration": 165}, {"note": 0, "velocity": 0, "duration": 75}, {"note": 71, "velocity": 127, "duration": 220}, {"note": 69, "velocity": 112, "duration": 216}, {"note": 71, "velocity": 127, "duration": 221}, {"note": 74, "velocity": 127, "duration": 609}, {"note": 0, "velocity": 0, "duration": 351}, {"note": 69, "velocity": 127, "duration": 189}, {"note": 71, "velocity": 127, "duration": 158}, {"note": 0, "velocity": 0, "duration": 82}, {"note": 69, "velocity": 127, "duration": 172}, {"note": 0, "velocity": 0, "duration": 68}, {"note": 67, "velocity": 127, "duration": 181}, {"note": 64, "velocity": 117, "duration": 742}, {"note": 0, "velocity": 0, "duration": 218}, {"note": 69, "velocity": 127, "duration": 246}, {"note": 0, "velocity": 0, "duration": 114}, {"note": 69, "velocity": 107, "duration": 61}, {"note": 69, "velocity": 127, "duration": 144}, {"note": 0, "velocity": 0, "duration": 96}, {"note": 71, "velocity": 127, "duration": 164}, {"note": 0, "velocity": 0, "duration": 76}, {"note": 69, "velocity": 127, "duration": 186}, {"note": 67, "velocity": 127, "duration": 149}, {"note": 0, "velocity": 0, "duration": 91}, {"note": 64, "velocity": 127, "duration": 327}, {"note": 0, "velocity": 0, "duration": 153}, {"note": 76, "velocity": 127, "duration": 200}, {"note": 79, "velocity": 127, "duration": 167}, {"note": 0, "velocity": 0, "duration": 73}, {"note": 79, "velocity": 127, "duration": 133}, {"note": 0, "velocity": 0, "duration": 107}, {"note": 71, "velocity": 127, "duration": 190}, {"note": 74, "velocity": 127, "duration": 841}, {"note": 0, "velocity": 0, "duration": 119}, {"note": 74, "velocity": 127, "duration": 259}, {"note": 0, "velocity": 0, "duration": 101}, {"note": 74, "velocity": 112, "duration": 61}, {"note": 74, "velocity": 122, "duration": 172}, {"note": 0, "velocity": 0, "duration": 68}, {"note": 76, "velocity": 127, "duration": 152}, {"note": 0, "velocity": 0, "duration": 88}, {"note": 79, "velocity": 127, "duration": 273}, {"note": 0, "velocity": 0, "duration": 87}, {"note": 79, "velocity": 127, "duration": 236}, {"note": 0, "velocity": 0, "duration": 244}, {"note": 71, "velocity": 117, "duration": 230}, {"note": 0, "velocity": 0, "duration": 130}, {"note": 74, "velocity": 127, "duration": 1227}, {"note": 0, "velocity": 0, "duration": 453}, {"note": 76, "velocity": 127, "duration": 182}, {"note": 79, "velocity": 127, "duration": 168}, {"note": 0, "velocity": 0, "duration": 72}, {"note": 76, "velocity": 127, "duration": 175}, {"note": 0, "velocity": 0, "duration": 65}, {"note": 74, "velocity": 112, "duration": 161}, {"note": 0, "velocity": 0, "duration": 79}, {"note": 76, "velocity": 127, "duration": 225}, {"note": 74, "velocity": 127, "duration": 171}, {"note": 0, "velocity": 0, "duration": 69}, {"note": 71, "velocity": 127, "duration": 381}, {"note": 0, "velocity": 0, "duration": 99}, {"note": 67, "velocity": 127, "duration": 202}, {"note": 64, "velocity": 107, "duration": 205}, {"note": 71, "velocity": 127, "duration": 181}, {"note": 67, "velocity": 127, "duration": 151}, {"note": 0, "velocity": 0, "duration": 89}, {"note": 69, "velocity": 127, "duration": 702}, {"note": 0, "velocity": 0, "duration": 258}, {"note": 71, "velocity": 127, "duration": 165}, {"note": 0, "velocity": 0, "duration": 75}, {"note": 71, "velocity": 127, "duration": 220}, {"note": 69, "velocity": 112, "duration": 216}, {"note": 71, "velocity": 127, "duration": 221}, {"note": 74, "velocity": 127, "duration": 609}, {"note": 0, "velocity": 0, "duration": 351}, {"note": 69, "velocity": 127, "duration": 189}, {"note": 71, "velocity": 127, "duration": 158}, {"note": 0, "velocity": 0, "duration": 82}, {"note": 69, "velocity": 127, "duration": 172}, {"note": 0, "velocity": 0, "duration": 68}, {"note": 67, "velocity": 127, "duration": 181}, {"note": 64, "velocity": 117, "duration": 742}, {"note": 0, "velocity": 0, "duration": 218}, {"note": 62, "velocity": 107, "duration": 107}, {"note": 0, "velocity": 0, "duration": 133}, {"note": 64, "velocity": 127, "duration": 170}, {"note": 0, "velocity": 0, "duration": 70}, {"note": 64, "velocity": 127, "duration": 162}, {"note": 0, "velocity": 0, "duration": 78}, {"note": 62, "velocity": 127, "duration": 144}, {"note": 0, "velocity": 0, "duration": 96}, {"note": 76, "velocity": 127, "duration": 187}, {"note": 74, "velocity": 127, "duration": 150}, {"note": 0, "velocity": 0, "duration": 90}, {"note": 71, "velocity": 127, "duration": 187}, {"note": 0, "velocity": 0, "duration": 293}, {"note": 69, "velocity": 127, "duration": 199}, {"note": 71, "velocity": 127, "duration": 165}, {"note": 0, "velocity": 0, "duration": 75}, {"note": 62, "velocity": 122, "duration": 209}, {"note": 64, "velocity": 127, "duration": 176}, {"note": 0, "velocity": 0, "duration": 64}, {"note": 67, "velocity": 127, "duration": 911}, {"note": 74, "velocity": 127, "duration": 259}, {"note": 0, "velocity": 0, "duration": 101}, {"note": 74, "velocity": 112, "duration": 61}, {"note": 74, "velocity": 122, "duration": 172}, {"note": 0, "velocity": 0, "duration": 68}, {"note": 76, "velocity": 127, "duration": 152}, {"note": 0, "velocity": 0, "duration": 88}, {"note": 79, "velocity": 127, "duration": 273}, {"note": 0, "velocity": 0, "duration": 87}, {"note": 79, "velocity": 127, "duration": 236}, {"note": 0, "velocity": 0, "duration": 244}, {"note": 71, "velocity": 117, "duration": 230}, {"note": 0, "velocity": 0, "duration": 130}, {"note": 74, "velocity": 127, "duration": 1227}, {"note": 0, "velocity": 0, "duration": 453}, {"note": 76, "velocity": 127, "duration": 182}, {"note": 79, "velocity": 127, "duration": 168}, {"note": 0, "velocity": 0, "duration": 72}, {"note": 76, "velocity": 127, "duration": 175}, {"note": 0, "velocity": 0, "duration": 65}, {"note": 74, "velocity": 112, "duration": 161}, {"note": 0, "velocity": 0, "duration": 79}, {"note": 76, "velocity": 127, "duration": 225}, {"note": 74, "velocity": 127, "duration": 171}, {"note": 0, "velocity": 0, "duration": 69}, {"note": 71, "velocity": 127, "duration": 185}, {"note": 0, "velocity": 0, "duration": 295}, {"note": 67, "velocity": 127, "duration": 202}, {"note": 64, "velocity": 107, "duration": 205}, {"note": 71, "velocity": 127, "duration": 181}, {"note": 67, "velocity": 127, "duration": 151}, {"note": 0, "velocity": 0, "duration": 89}, {"note": 69, "velocity": 127, "duration": 702}, {"note": 0, "velocity": 0, "duration": 258}, {"note": 71, "velocity": 127, "duration": 165}, {"note": 0, "velocity": 0, "duration": 75}, {"note": 71, "velocity": 127, "duration": 220}, {"note": 69, "velocity": 112, "duration": 216}, {"note": 71, "velocity": 127, "duration": 221}, {"note": 74, "velocity": 127, "duration": 609}, {"note": 0, "velocity": 0, "duration": 351}, {"note": 69, "velocity": 127, "duration": 189}, {"note": 71, "velocity": 127, "duration": 158}, {"note": 0, "velocity": 0, "duration": 82}, {"note": 69, "velocity": 127, "duration": 172}, {"note": 0, "velocity": 0, "duration": 68}, {"note": 67, "velocity": 127, "duration": 181}, {"note": 64, "velocity": 117, "duration": 742}, {"note": 0, "velocity": 0, "duration": 218}, {"note": 69, "velocity": 127, "duration": 246}, {"note": 0, "velocity": 0, "duration": 114}, {"note": 69, "velocity": 107, "duration": 61}, {"note": 69, "velocity": 127, "duration": 144}, {"note": 0, "velocity": 0, "duration": 96}, {"note": 71, "velocity": 127, "duration": 164}, {"note": 0, "velocity": 0, "duration": 76}, {"note": 69, "velocity": 127, "duration": 186}, {"note": 67, "velocity": 127, "duration": 149}, {"note": 0, "velocity": 0, "duration": 91}, {"note": 64, "velocity": 127, "duration": 327}, {"note": 0, "velocity": 0, "duration": 153}, {"note": 76, "velocity": 127, "duration": 200}, {"note": 79, "velocity": 127, "duration": 167}, {"note": 0, "velocity": 0, "duration": 73}, {"note": 79, "velocity": 127, "duration": 133}, {"note": 0, "velocity": 0, "duration": 107}, {"note": 71, "velocity": 127, "duration": 190}, {"note": 74, "velocity": 127, "duration": 841}, {"note": 0, "velocity": 0, "duration": 119}, {"note": 74, "velocity": 127, "duration": 259}, {"note": 0, "velocity": 0, "duration": 101}, {"note": 74, "velocity": 112, "duration": 61}, {"note": 74, "velocity": 122, "duration": 172}, {"note": 0, "velocity": 0, "duration": 68}, {"note": 76, "velocity": 127, "duration": 152}, {"note": 0, "velocity": 0, "duration": 88}, {"note": 79, "velocity": 127, "duration": 273}, {"note": 0, "velocity": 0, "duration": 87}, {"note": 79, "velocity": 127, "duration": 236}, {"note": 0, "velocity": 0, "duration": 244}, {"note": 71, "velocity": 117, "duration": 230}, {"note": 0, "velocity": 0, "duration": 130}, {"note": 74, "velocity": 127, "duration": 1227}, {"note": 0, "velocity": 0, "duration": 453}, {"note": 76, "velocity": 127, "duration": 182}, {"note": 79, "velocity": 127, "duration": 168}, {"note": 0, "velocity": 0, "duration": 72}, {"note": 76, "velocity": 127, "duration": 175}, {"note": 0, "velocity": 0, "duration": 65}, {"note": 74, "velocity": 112, "duration": 161}, {"note": 0, "velocity": 0, "duration": 79}, {"note": 76, "velocity": 127, "duration": 225}, {"note": 74, "velocity": 127, "duration": 171}, {"note": 0, "velocity": 0, "duration": 69}, {"note": 71, "velocity": 127, "duration": 381}, {"note": 0, "velocity": 0, "duration": 77}, {"note": 74, "velocity": 127, "duration": 202}, {"note": 76, "velocity": 107, "duration": 205}, {"note": 76, "velocity": 127, "duration": 181}, {"note": 67, "velocity": 127, "duration": 151}, {"note": 0, "velocity": 0, "duration": 89}, {"note": 69, "velocity": 127, "duration": 702}, {"note": 0, "velocity": 0, "duration": 258}, {"note": 71, "velocity": 127, "duration": 165}, {"note": 0, "velocity": 0, "duration": 75}, {"note": 71, "velocity": 127, "duration": 220}, {"note": 69, "velocity": 112, "duration": 216}, {"note": 71, "velocity": 127, "duration": 221}, {"note": 74, "velocity": 127, "duration": 609}, {"note": 0, "velocity": 0, "duration": 351}, {"note": 69, "velocity": 127, "duration": 189}, {"note": 71, "velocity": 127, "duration": 158}, {"note": 0, "velocity": 0, "duration": 82}, {"note": 69, "velocity": 127, "duration": 172}, {"note": 0, "velocity": 0, "duration": 68}, {"note": 67, "velocity": 127, "duration": 181}, {"note": 64, "velocity": 117, "duration": 742}, {"note": 0, "velocity": 0, "duration": 218}, {"note": 62, "velocity": 107, "duration": 107}, {"note": 0, "velocity": 0, "duration": 133}, {"note": 64, "velocity": 127, "duration": 170}, {"note": 0, "velocity": 0, "duration": 70}, {"note": 64, "velocity": 127, "duration": 162}, {"note": 0, "velocity": 0, "duration": 78}, {"note": 62, "velocity": 127, "duration": 144}, {"note": 0, "velocity": 0, "duration": 96}, {"note": 76, "velocity": 127, "duration": 187}, {"note": 74, "velocity": 127, "duration": 150}, {"note": 0, "velocity": 0, "duration": 90}, {"note": 71, "velocity": 127, "duration": 187}, {"note": 0, "velocity": 0, "duration": 293}, {"note": 69, "velocity": 127, "duration": 199}, {"note": 71, "velocity": 127, "duration": 165}, {"note": 0, "velocity": 0, "duration": 75}, {"note": 62, "velocity": 122, "duration": 209}, {"note": 64, "velocity": 127, "duration": 176}, {"note": 0, "velocity": 0, "duration": 64}, {"note": 67, "velocity": 127, "duration": 911}, {"note": 0, "velocity": 0, "duration": 1009}, {"note": 64, "velocity": 107, "duration": 155}, {"note": 0, "velocity": 0, "duration": 85}, {"note": 67, "velocity": 122, "duration": 167}, {"note": 0, "velocity": 0, "duration": 73}, {"note": 67, "velocity": 112, "duration": 176}, {"note": 0, "velocity": 0, "duration": 64}, {"note": 64, "velocity": 117, "duration": 145}, {"note": 0, "velocity": 0, "duration": 95}, {"note": 76, "velocity": 122, "duration": 213}, {"note": 74, "velocity": 127, "duration": 233}, {"note": 71, "velocity": 122, "duration": 272}, {"note": 0, "velocity": 0, "duration": 208}, {"note": 69, "velocity": 127, "duration": 363}, {"note": 0, "velocity": 0, "duration": 117}, {"note": 71, "velocity": 127, "duration": 252}, {"note": 0, "velocity": 0, "duration": 1188}, {"note": 62, "velocity": 112, "duration": 475}, {"note": 64, "velocity": 100, "duration": 479}, {"note": 67, "velocity": 127, "duration": 1476}]]