[[{"note": 69, "velocity": 108, "duration": 204}, {"note": 71, "velocity": 88, "duration": 250}, {"note": 66, "velocity": 103, "duration": 617}, {"note": 0, "velocity": 0, "duration": 103}, {"note": 69, "velocity": 108, "duration": 222}, {"note": 71, "velocity": 93, "duration": 189}, {"note": 66, "velocity": 93, "duration": 196}, {"note": 64, "velocity": 93, "duration": 188}, {"note": 66, "velocity": 93, "duration": 213}, {"note": 62, "velocity": 88, "duration": 602}, {"note": 0, "velocity": 0, "duration": 838}, {"note": 62, "velocity": 78, "duration": 223}, {"note": 64, "velocity": 73, "duration": 182}, {"note": 66, "velocity": 108, "duration": 326}, {"note": 0, "velocity": 0, "duration": 394}, {"note": 74, "velocity": 108, "duration": 235}, {"note": 71, "velocity": 103, "duration": 217}, {"note": 69, "velocity": 103, "duration": 160}, {"note": 0, "velocity": 0, "duration": 80}, {"note": 69, "velocity": 108, "duration": 114}, {"note": 0, "velocity": 0, "duration": 126}, {"note": 66, "velocity": 108, "duration": 216}, {"note": 64, "velocity": 108, "duration": 813}, {"note": 0, "velocity": 0, "duration": 627}, {"note": 64, "velocity": 93, "duration": 236}, {"note": 66, "velocity": 98, "duration": 219}, {"note": 69, "velocity": 98, "duration": 508}, {"note": 0, "velocity": 0, "duration": 212}, {"note": 66, "velocity": 98, "duration": 206}, {"note": 69, "velocity": 98, "duration": 578}, {"note": 0, "velocity": 0, "duration": 382}, {"note": 74, "velocity": 108, "duration": 197}, {"note": 76, "velocity": 98, "duration": 151}, {"note": 0, "velocity": 0, "duration": 89}, {"note": 76, "velocity": 93, "duration": 171}, {"note": 0, "velocity": 0, "duration": 69}, {"note": 73, "velocity": 98, "duration": 205}, {"note": 71, "velocity": 108, "duration": 441}, {"note": 71, "velocity": 98, "duration": 202}, {"note": 74, "velocity": 98, "duration": 194}, {"note": 76, "velocity": 98, "duration": 163}, {"note": 0, "velocity": 0, "duration": 77}, {"note": 76, "velocity": 108, "duration": 364}, {"note": 0, "velocity": 0, "duration": 116}, {"note": 73, "velocity": 108, "duration": 150}, {"note": 0, "velocity": 0, "duration": 90}, {"note": 71, "velocity": 98, "duration": 208}, {"note": 73, "velocity": 103, "duration": 397}, {"note": 0, "velocity": 0, "duration": 83}, {"note": 71, "velocity": 108, "duration": 173}, {"note": 0, "velocity": 0, "duration": 67}, {"note": 69, "velocity": 80, "duration": 932}, {"note": 0, "velocity": 0, "duration": 508}, {"note": 69, "velocity": 108, "duration": 204}, {"note": 71, "velocity": 88, "duration": 250}, {"note": 66, "velocity": 103, "duration": 617}, {"note": 0, "velocity": 0, "duration": 103}, {"note": 69, "velocity": 108, "duration": 222}, {"note": 71, "velocity": 93, "duration": 189}, {"note": 66, "velocity": 93, "duration": 196}, {"note": 64, "velocity": 93, "duration": 188}, {"note": 66, "velocity": 93, "duration": 213}, {"note": 62, "velocity": 88, "duration": 1189}, {"note": 0, "velocity": 0, "duration": 251}, {"note": 62, "velocity": 78, "duration": 223}, {"note": 64, "velocity": 73, "duration": 182}, {"note": 66, "velocity": 108, "duration": 326}, {"note": 0, "velocity": 0, "duration": 394}, {"note": 74, "velocity": 108, "duration": 235}, {"note": 71, "velocity": 103, "duration": 217}, {"note": 69, "velocity": 103, "duration": 160}, {"note": 0, "velocity": 0, "duration": 80}, {"note": 69, "velocity": 108, "duration": 114}, {"note": 0, "velocity": 0, "duration": 126}, {"note": 66, "velocity": 108, "duration": 216}, {"note": 64, "velocity": 108, "duration": 1157}, {"note": 0, "velocity": 0, "duration": 283}, {"note": 64, "velocity": 93, "duration": 236}, {"note": 66, "velocity": 98, "duration": 219}, {"note": 69, "velocity": 98, "duration": 508}, {"note": 0, "velocity": 0, "duration": 212}, {"note": 66, "velocity": 98, "duration": 206}, {"note": 69, "velocity": 98, "duration": 960}, {"note": 74, "velocity": 108, "duration": 197}, {"note": 76, "velocity": 98, "duration": 151}, {"note": 0, "velocity": 0, "duration": 89}, {"note": 76, "velocity": 93, "duration": 171}, {"note": 0, "velocity": 0, "duration": 69}, {"note": 73, "velocity": 98, "duration": 205}, {"note": 71, "velocity": 108, "duration": 441}, {"note": 71, "velocity": 98, "duration": 202}, {"note": 74, "velocity": 98, "duration": 194}, {"note": 76, "velocity": 98, "duration": 163}, {"note": 0, "velocity": 0, "duration": 77}, {"note": 76, "velocity": 108, "duration": 101}, {"note": 0, "velocity": 0, "duration": 139}, {"note": 76, "velocity": 103, "duration": 120}, {"note": 0, "velocity": 0, "duration": 120}, {"note": 73, "velocity": 108, "duration": 150}, {"note": 0, "velocity": 0, "duration": 90}, {"note": 71, "velocity": 98, "duration": 208}, {"note": 71, "velocity": 93, "duration": 130}, {"note": 73, "velocity": 83, "duration": 224}, {"note": 0, "velocity": 0, "duration": 136}, {"note": 71, "velocity": 108, "duration": 173}, {"note": 0, "velocity": 0, "duration": 67}, {"note": 74, "velocity": 80, "duration": 932}, {"note": 0, "velocity": 0, "duration": 508}, {"note": 74, "velocity": 98, "duration": 154}, {"note": 0, "velocity": 0, "duration": 86}, {"note": 76, "velocity": 108, "duration": 136}, {"note": 0, "velocity": 0, "duration": 104}, {"note": 78, "velocity": 108, "duration": 450}, {"note": 0, "velocity": 0, "duration": 270}, {"note": 76, "velocity": 108, "duration": 173}, {"note": 0, "velocity": 0, "duration": 67}, {"note": 78, "velocity": 108, "duration": 214}, {"note": 76, "velocity": 98, "duration": 169}, {"note": 0, "velocity": 0, "duration": 71}, {"note": 66, "velocity": 88, "duration": 218}, {"note": 69, "velocity": 103, "duration": 185}, {"note": 71, "velocity": 108, "duration": 295}, {"note": 0, "velocity": 0, "duration": 1145}, {"note": 76, "velocity": 108, "duration": 213}, {"note": 74, "velocity": 108, "duration": 157}, {"note": 0, "velocity": 0, "duration": 83}, {"note": 76, "velocity": 108, "duration": 421}, {"note": 0, "velocity": 0, "duration": 299}, {"note": 74, "velocity": 108, "duration": 153}, {"note": 0, "velocity": 0, "duration": 87}, {"note": 66, "velocity": 108, "duration": 188}, {"note": 66, "velocity": 108, "duration": 205}, {"note": 73, "velocity": 108, "duration": 161}, {"note": 0, "velocity": 0, "duration": 79}, {"note": 71, "velocity": 76, "duration": 171}, {"note": 0, "velocity": 0, "duration": 69}, {"note": 69, "velocity": 108, "duration": 1440}, {"note": 62, "velocity": 108, "duration": 179}, {"note": 0, "velocity": 0, "duration": 61}, {"note": 64, "velocity": 108, "duration": 166}, {"note": 0, "velocity": 0, "duration": 74}, {"note": 66, "velocity": 108, "duration": 517}, {"note": 0, "velocity": 0, "duration": 203}, {"note": 69, "velocity": 103, "duration": 153}, {"note": 0, "velocity": 0, "duration": 87}, {"note": 69, "velocity": 108, "duration": 197}, {"note": 0, "velocity": 0, "duration": 283}, {"note": 69, "velocity": 108, "duration": 150}, {"note": 0, "velocity": 0, "duration": 90}, {"note": 66, "velocity": 108, "duration": 167}, {"note": 0, "velocity": 0, "duration": 73}, {"note": 71, "velocity": 108, "duration": 219}, {"note": 74, "velocity": 108, "duration": 332}, {"note": 0, "velocity": 0, "duration": 148}, {"note": 73, "velocity": 108, "duration": 121}, {"note": 0, "velocity": 0, "duration": 119}, {"note": 71, "velocity": 108, "duration": 191}, {"note": 0, "velocity": 0, "duration": 289}, {"note": 69, "velocity": 98, "duration": 189}, {"note": 71, "velocity": 108, "duration": 190}, {"note": 74, "velocity": 108, "duration": 428}, {"note": 0, "velocity": 0, "duration": 292}, {"note": 74, "velocity": 108, "duration": 150}, {"note": 0, "velocity": 0, "duration": 90}, {"note": 74, "velocity": 108, "duration": 190}, {"note": 71, "velocity": 98, "duration": 142}, {"note": 0, "velocity": 0, "duration": 98}, {"note": 78, "velocity": 108, "duration": 114}, {"note": 76, "velocity": 108, "duration": 118}, {"note": 74, "velocity": 108, "duration": 204}, {"note": 76, "velocity": 108, "duration": 893}, {"note": 0, "velocity": 0, "duration": 547}, {"note": 74, "velocity": 98, "duration": 154}, {"note": 0, "velocity": 0, "duration": 86}, {"note": 76, "velocity": 108, "duration": 136}, {"note": 0, "velocity": 0, "duration": 104}, {"note": 78, "velocity": 108, "duration": 450}, {"note": 0, "velocity": 0, "duration": 270}, {"note": 76, "velocity": 108, "duration": 173}, {"note": 0, "velocity": 0, "duration": 67}, {"note": 78, "velocity": 108, "duration": 214}, {"note": 76, "velocity": 98, "duration": 169}, {"note": 0, "velocity": 0, "duration": 71}, {"note": 66, "velocity": 88, "duration": 218}, {"note": 69, "velocity": 103, "duration": 185}, {"note": 71, "velocity": 108, "duration": 1147}, {"note": 0, "velocity": 0, "duration": 293}, {"note": 76, "velocity": 108, "duration": 213}, {"note": 74, "velocity": 108, "duration": 157}, {"note": 0, "velocity": 0, "duration": 83}, {"note": 76, "velocity": 108, "duration": 421}, {"note": 0, "velocity": 0, "duration": 299}, {"note": 74, "velocity": 108, "duration": 153}, {"note": 0, "velocity": 0, "duration": 87}, {"note": 66, "velocity": 108, "duration": 188}, {"note": 66, "velocity": 108, "duration": 205}, {"note": 73, "velocity": 108, "duration": 161}, {"note": 0, "velocity": 0, "duration": 79}, {"note": 71, "velocity": 76, "duration": 171}, {"note": 0, "velocity": 0, "duration": 69}, {"note": 69, "velocity": 108, "duration": 1440}, {"note": 62, "velocity": 108, "duration": 179}, {"note": 0, "velocity": 0, "duration": 61}, {"note": 64, "velocity": 108, "duration": 166}, {"note": 0, "velocity": 0, "duration": 74}, {"note": 66, "velocity": 108, "duration": 517}, {"note": 0, "velocity": 0, "duration": 203}, {"note": 69, "velocity": 103, "duration": 153}, {"note": 0, "velocity": 0, "duration": 87}, {"note": 69, "velocity": 108, "duration": 197}, {"note": 0, "velocity": 0, "duration": 283}, {"note": 69, "velocity": 108, "duration": 150}, {"note": 0, "velocity": 0, "duration": 90}, {"note": 66, "velocity": 108, "duration": 167}, {"note": 0, "velocity": 0, "duration": 73}, {"note": 71, "velocity": 108, "duration": 219}, {"note": 74, "velocity": 108, "duration": 332}, {"note": 0, "velocity": 0, "duration": 148}, {"note": 73, "velocity": 108, "duration": 121}, {"note": 0, "velocity": 0, "duration": 119}, {"note": 71, "velocity": 108, "duration": 191}, {"note": 0, "velocity": 0, "duration": 289}, {"note": 69, "velocity": 98, "duration": 189}, {"note": 71, "velocity": 108, "duration": 190}, {"note": 74, "velocity": 108, "duration": 428}, {"note": 74, "velocity": 103, "duration": 135}, {"note": 0, "velocity": 0, "duration": 105}, {"note": 78, "velocity": 108, "duration": 117}, {"note": 0, "velocity": 0, "duration": 123}, {"note": 76, "velocity": 103, "duration": 176}, {"note": 0, "velocity": 0, "duration": 64}, {"note": 74, "velocity": 108, "duration": 295}, {"note": 0, "velocity": 0, "duration": 185}, {"note": 71, "velocity": 93, "duration": 187}, {"note": 74, "velocity": 108, "duration": 949}, {"note": 0, "velocity": 0, "duration": 15851}, {"note": 69, "velocity": 108, "duration": 204}, {"note": 71, "velocity": 88, "duration": 250}, {"note": 66, "velocity": 103, "duration": 617}, {"note": 0, "velocity": 0, "duration": 103}, {"note": 69, "velocity": 108, "duration": 222}, {"note": 71, "velocity": 93, "duration": 189}, {"note": 66, "velocity": 93, "duration": 196}, {"note": 64, "velocity": 93, "duration": 188}, {"note": 66, "velocity": 93, "duration": 213}, {"note": 62, "velocity": 88, "duration": 1189}, {"note": 0, "velocity": 0, "duration": 251}, {"note": 62, "velocity": 78, "duration": 223}, {"note": 64, "velocity": 73, "duration": 182}, {"note": 66, "velocity": 108, "duration": 326}, {"note": 0, "velocity": 0, "duration": 394}, {"note": 74, "velocity": 108, "duration": 235}, {"note": 71, "velocity": 103, "duration": 217}, {"note": 69, "velocity": 103, "duration": 160}, {"note": 0, "velocity": 0, "duration": 80}, {"note": 69, "velocity": 108, "duration": 114}, {"note": 0, "velocity": 0, "duration": 126}, {"note": 66, "velocity": 108, "duration": 216}, {"note": 64, "velocity": 108, "duration": 1157}, {"note": 0, "velocity": 0, "duration": 283}, {"note": 64, "velocity": 93, "duration": 236}, {"note": 66, "velocity": 98, "duration": 219}, {"note": 69, "velocity": 98, "duration": 508}, {"note": 0, "velocity": 0, "duration": 212}, {"note": 66, "velocity": 98, "duration": 206}, {"note": 69, "velocity": 98, "duration": 960}, {"note": 74, "velocity": 108, "duration": 197}, {"note": 76, "velocity": 98, "duration": 151}, {"note": 0, "velocity": 0, "duration": 89}, {"note": 76, "velocity": 93, "duration": 171}, {"note": 0, "velocity": 0, "duration": 69}, {"note": 73, "velocity": 98, "duration": 205}, {"note": 71, "velocity": 108, "duration": 441}, {"note": 71, "velocity": 98, "duration": 202}, {"note": 74, "velocity": 98, "duration": 194}, {"note": 76, "velocity": 98, "duration": 163}, {"note": 0, "velocity": 0, "duration": 77}, {"note": 76, "velocity": 108, "duration": 101}, {"note": 0, "velocity": 0, "duration": 139}, {"note": 76, "velocity": 103, "duration": 120}, {"note": 0, "velocity": 0, "duration": 120}, {"note": 73, "velocity": 108, "duration": 150}, {"note": 0, "velocity": 0, "duration": 90}, {"note": 71, "velocity": 98, "duration": 208}, {"note": 71, "velocity": 93, "duration": 130}, {"note": 73, "velocity": 83, "duration": 224}, {"note": 0, "velocity": 0, "duration": 136}, {"note": 71, "velocity": 108, "duration": 173}, {"note": 0, "velocity": 0, "duration": 67}, {"note": 74, "velocity": 80, "duration": 932}, {"note": 0, "velocity": 0, "duration": 508}, {"note": 74, "velocity": 98, "duration": 154}, {"note": 0, "velocity": 0, "duration": 86}, {"note": 76, "velocity": 108, "duration": 136}, {"note": 0, "velocity": 0, "duration": 104}, {"note": 78, "velocity": 108, "duration": 450}, {"note": 0, "velocity": 0, "duration": 270}, {"note": 76, "velocity": 108, "duration": 173}, {"note": 0, "velocity": 0, "duration": 67}, {"note": 78, "velocity": 108, "duration": 214}, {"note": 76, "velocity": 98, "duration": 169}, {"note": 0, "velocity": 0, "duration": 71}, {"note": 66, "velocity": 88, "duration": 218}, {"note": 69, "velocity": 103, "duration": 185}, {"note": 71, "velocity": 108, "duration": 295}, {"note": 0, "velocity": 0, "duration": 1145}, {"note": 76, "velocity": 108, "duration": 213}, {"note": 74, "velocity": 108, "duration": 157}, {"note": 0, "velocity": 0, "duration": 83}, {"note": 76, "velocity": 108, "duration": 421}, {"note": 0, "velocity": 0, "duration": 299}, {"note": 74, "velocity": 108, "duration": 153}, {"note": 0, "velocity": 0, "duration": 87}, {"note": 66, "velocity": 108, "duration": 188}, {"note": 66, "velocity": 108, "duration": 205}, {"note": 73, "velocity": 108, "duration": 161}, {"note": 0, "velocity": 0, "duration": 79}, {"note": 71, "velocity": 76, "duration": 171}, {"note": 0, "velocity": 0, "duration": 69}, {"note": 69, "velocity": 108, "duration": 1440}, {"note": 62, "velocity": 108, "duration": 179}, {"note": 0, "velocity": 0, "duration": 61}, {"note": 64, "velocity": 108, "duration": 166}, {"note": 0, "velocity": 0, "duration": 74}, {"note": 66, "velocity": 108, "duration": 517}, {"note": 0, "velocity": 0, "duration": 203}, {"note": 69, "velocity": 103, "duration": 153}, {"note": 0, "velocity": 0, "duration": 87}, {"note": 69, "velocity": 108, "duration": 197}, {"note": 0, "velocity": 0, "duration": 283}, {"note": 69, "velocity": 108, "duration": 150}, {"note": 0, "velocity": 0, "duration": 90}, {"note": 66, "velocity": 108, "duration": 167}, {"note": 0, "velocity": 0, "duration": 73}, {"note": 71, "velocity": 108, "duration": 219}, {"note": 74, "velocity": 108, "duration": 332}, {"note": 0, "velocity": 0, "duration": 148}, {"note": 73, "velocity": 108, "duration": 121}, {"note": 0, "velocity": 0, "duration": 119}, {"note": 71, "velocity": 108, "duration": 191}, {"note": 0, "velocity": 0, "duration": 289}, {"note": 69, "velocity": 98, "duration": 189}, {"note": 71, "velocity": 108, "duration": 190}, {"note": 74, "velocity": 108, "duration": 428}, {"note": 0, "velocity": 0, "duration": 292}, {"note": 74, "velocity": 108, "duration": 150}, {"note": 0, "velocity": 0, "duration": 90}, {"note": 74, "velocity": 108, "duration": 190}, {"note": 71, "velocity": 98, "duration": 142}, {"note": 0, "velocity": 0, "duration": 98}, {"note": 78, "velocity": 108, "duration": 114}, {"note": 76, "velocity": 108, "duration": 118}, {"note": 74, "velocity": 108, "duration": 204}, {"note": 76, "velocity": 108, "duration": 893}, {"note": 0, "velocity": 0, "duration": 547}, {"note": 74, "velocity": 98, "duration": 154}, {"note": 0, "velocity": 0, "duration": 86}, {"note": 76, "velocity": 108, "duration": 136}, {"note": 0, "velocity": 0, "duration": 104}, {"note": 78, "velocity": 108, "duration": 450}, {"note": 0, "velocity": 0, "duration": 270}, {"note": 76, "velocity": 108, "duration": 173}, {"note": 0, "velocity": 0, "duration": 67}, {"note": 78, "velocity": 108, "duration": 214}, {"note": 76, "velocity": 98, "duration": 169}, {"note": 0, "velocity": 0, "duration": 71}, {"note": 66, "velocity": 88, "duration": 218}, {"note": 69, "velocity": 103, "duration": 185}, {"note": 71, "velocity": 108, "duration": 1147}, {"note": 0, "velocity": 0, "duration": 293}, {"note": 76, "velocity": 108, "duration": 213}, {"note": 74, "velocity": 108, "duration": 157}, {"note": 0, "velocity": 0, "duration": 83}, {"note": 76, "velocity": 108, "duration": 421}, {"note": 0, "velocity": 0, "duration": 299}, {"note": 74, "velocity": 108, "duration": 153}, {"note": 0, "velocity": 0, "duration": 87}, {"note": 66, "velocity": 108, "duration": 188}, {"note": 66, "velocity": 108, "duration": 205}, {"note": 73, "velocity": 108, "duration": 161}, {"note": 0, "velocity": 0, "duration": 79}, {"note": 71, "velocity": 76, "duration": 171}, {"note": 0, "velocity": 0, "duration": 69}, {"note": 69, "velocity": 108, "duration": 1440}, {"note": 62, "velocity": 108, "duration": 179}, {"note": 0, "velocity": 0, "duration": 61}, {"note": 64, "velocity": 108, "duration": 166}, {"note": 0, "velocity": 0, "duration": 74}, {"note": 66, "velocity": 108, "duration": 517}, {"note": 0, "velocity": 0, "duration": 203}, {"note": 69, "velocity": 103, "duration": 153}, {"note": 0, "velocity": 0, "duration": 87}, {"note": 69, "velocity": 108, "duration": 197}, {"note": 0, "velocity": 0, "duration": 283}, {"note": 69, "velocity": 108, "duration": 150}, {"note": 0, "velocity": 0, "duration": 90}, {"note": 66, "velocity": 108, "duration": 167}, {"note": 0, "velocity": 0, "duration": 73}, {"note": 71, "velocity": 108, "duration": 219}, {"note": 74, "velocity": 108, "duration": 332}, {"note": 0, "velocity": 0, "duration": 148}, {"note": 73, "velocity": 108, "duration": 121}, {"note": 0, "velocity": 0, "duration": 119}, {"note": 71, "velocity": 108, "duration": 191}, {"note": 0, "velocity": 0, "duration": 289}, {"note": 69, "velocity": 98, "duration": 189}, {"note": 71, "velocity": 108, "duration": 190}, {"note": 74, "velocity": 108, "duration": 428}, {"note": 74, "velocity": 103, "duration": 135}, {"note": 0, "velocity": 0, "duration": 105}, {"note": 78, "velocity": 108, "duration": 117}, {"note": 0, "velocity": 0, "duration": 123}, {"note": 76, "velocity": 103, "duration": 176}, {"note": 0, "velocity": 0, "duration": 64}, {"note": 74, "velocity": 108, "duration": 295}, {"note": 0, "velocity": 0, "duration": 185}, {"note": 71, "velocity": 93, "duration": 187}, {"note": 74, "velocity": 108, "duration": 949}, {"note": 0, "velocity": 0, "duration": 491}, {"note": 69, "velocity": 98, "duration": 189}, {"note": 71, "velocity": 108, "duration": 190}, {"note": 74, "velocity": 108, "duration": 428}, {"note": 74, "velocity": 103, "duration": 135}, {"note": 0, "velocity": 0, "duration": 105}, {"note": 78, "velocity": 108, "duration": 117}, {"note": 0, "velocity": 0, "duration": 123}, {"note": 76, "velocity": 103, "duration": 176}, {"note": 0, "velocity": 0, "duration": 64}, {"note": 74, "velocity": 108, "duration": 423}, {"note": 71, "velocity": 80, "duration": 1398}, {"note": 74, "velocity": 98, "duration": 2527}]]