[[{"note": 57, "velocity": 93, "duration": 180}, {"note": 57, "velocity": 90, "duration": 227}, {"note": 65, "velocity": 100, "duration": 193}, {"note": 65, "velocity": 95, "duration": 179}, {"note": 0, "velocity": 0, "duration": 61}, {"note": 65, "velocity": 99, "duration": 169}, {"note": 0, "velocity": 0, "duration": 71}, {"note": 65, "velocity": 93, "duration": 179}, {"note": 0, "velocity": 0, "duration": 61}, {"note": 62, "velocity": 97, "duration": 179}, {"note": 0, "velocity": 0, "duration": 61}, {"note": 62, "velocity": 93, "duration": 136}, {"note": 0, "velocity": 0, "duration": 104}, {"note": 62, "velocity": 93, "duration": 138}, {"note": 0, "velocity": 0, "duration": 102}, {"note": 60, "velocity": 97, "duration": 1348}, {"note": 0, "velocity": 0, "duration": 332}, {"note": 57, "velocity": 97, "duration": 158}, {"note": 0, "velocity": 0, "duration": 82}, {"note": 57, "velocity": 93, "duration": 200}, {"note": 62, "velocity": 97, "duration": 165}, {"note": 0, "velocity": 0, "duration": 75}, {"note": 62, "velocity": 95, "duration": 163}, {"note": 0, "velocity": 0, "duration": 77}, {"note": 62, "velocity": 99, "duration": 161}, {"note": 0, "velocity": 0, "duration": 79}, {"note": 62, "velocity": 86, "duration": 153}, {"note": 0, "velocity": 0, "duration": 87}, {"note": 60, "velocity": 112, "duration": 183}, {"note": 0, "velocity": 0, "duration": 177}, {"note": 57, "velocity": 73, "duration": 196}, {"note": 0, "velocity": 0, "duration": 3764}, {"note": 57, "velocity": 83, "duration": 144}, {"note": 0, "velocity": 0, "duration": 96}, {"note": 57, "velocity": 81, "duration": 185}, {"note": 65, "velocity": 95, "duration": 418}, {"note": 0, "velocity": 0, "duration": 62}, {"note": 65, "velocity": 107, "duration": 347}, {"note": 0, "velocity": 0, "duration": 133}, {"note": 65, "velocity": 89, "duration": 187}, {"note": 67, "velocity": 97, "duration": 182}, {"note": 67, "velocity": 93, "duration": 208}, {"note": 69, "velocity": 97, "duration": 200}, {"note": 67, "velocity": 97, "duration": 231}, {"note": 67, "velocity": 100, "duration": 156}, {"note": 0, "velocity": 0, "duration": 84}, {"note": 67, "velocity": 96, "duration": 162}, {"note": 0, "velocity": 0, "duration": 78}, {"note": 65, "velocity": 100, "duration": 713}, {"note": 60, "velocity": 100, "duration": 206}, {"note": 57, "velocity": 81, "duration": 208}, {"note": 62, "velocity": 96, "duration": 172}, {"note": 0, "velocity": 0, "duration": 68}, {"note": 62, "velocity": 92, "duration": 140}, {"note": 0, "velocity": 0, "duration": 100}, {"note": 62, "velocity": 100, "duration": 136}, {"note": 0, "velocity": 0, "duration": 104}, {"note": 62, "velocity": 97, "duration": 103}, {"note": 0, "velocity": 0, "duration": 137}, {"note": 60, "velocity": 107, "duration": 162}, {"note": 0, "velocity": 0, "duration": 78}, {"note": 62, "velocity": 89, "duration": 138}, {"note": 0, "velocity": 0, "duration": 102}, {"note": 60, "velocity": 92, "duration": 185}, {"note": 57, "velocity": 79, "duration": 1001}, {"note": 0, "velocity": 0, "duration": 2599}, {"note": 57, "velocity": 81, "duration": 156}, {"note": 0, "velocity": 0, "duration": 84}, {"note": 57, "velocity": 89, "duration": 186}, {"note": 65, "velocity": 89, "duration": 167}, {"note": 0, "velocity": 0, "duration": 73}, {"note": 65, "velocity": 82, "duration": 146}, {"note": 0, "velocity": 0, "duration": 94}, {"note": 65, "velocity": 95, "duration": 105}, {"note": 0, "velocity": 0, "duration": 135}, {"note": 65, "velocity": 96, "duration": 163}, {"note": 0, "velocity": 0, "duration": 77}, {"note": 62, "velocity": 89, "duration": 151}, {"note": 0, "velocity": 0, "duration": 89}, {"note": 62, "velocity": 90, "duration": 134}, {"note": 0, "velocity": 0, "duration": 106}, {"note": 62, "velocity": 99, "duration": 208}, {"note": 0, "velocity": 0, "duration": 152}, {"note": 60, "velocity": 97, "duration": 944}, {"note": 0, "velocity": 0, "duration": 616}, {"note": 60, "velocity": 117, "duration": 217}, {"note": 57, "velocity": 89, "duration": 246}, {"note": 62, "velocity": 102, "duration": 173}, {"note": 0, "velocity": 0, "duration": 67}, {"note": 62, "velocity": 102, "duration": 183}, {"note": 62, "velocity": 99, "duration": 172}, {"note": 0, "velocity": 0, "duration": 68}, {"note": 62, "velocity": 122, "duration": 240}, {"note": 62, "velocity": 99, "duration": 241}, {"note": 65, "velocity": 99, "duration": 156}, {"note": 0, "velocity": 0, "duration": 84}, {"note": 60, "velocity": 112, "duration": 222}, {"note": 57, "velocity": 100, "duration": 815}, {"note": 0, "velocity": 0, "duration": 2785}, {"note": 57, "velocity": 102, "duration": 134}, {"note": 0, "velocity": 0, "duration": 106}, {"note": 57, "velocity": 100, "duration": 242}, {"note": 65, "velocity": 117, "duration": 341}, {"note": 0, "velocity": 0, "duration": 139}, {"note": 65, "velocity": 127, "duration": 291}, {"note": 0, "velocity": 0, "duration": 189}, {"note": 65, "velocity": 107, "duration": 205}, {"note": 67, "velocity": 102, "duration": 355}, {"note": 0, "velocity": 0, "duration": 125}, {"note": 69, "velocity": 102, "duration": 230}, {"note": 67, "velocity": 122, "duration": 203}, {"note": 67, "velocity": 122, "duration": 141}, {"note": 0, "velocity": 0, "duration": 99}, {"note": 67, "velocity": 112, "duration": 154}, {"note": 0, "velocity": 0, "duration": 86}, {"note": 65, "velocity": 100, "duration": 648}, {"note": 0, "velocity": 0, "duration": 72}, {"note": 60, "velocity": 99, "duration": 184}, {"note": 57, "velocity": 96, "duration": 234}, {"note": 62, "velocity": 100, "duration": 163}, {"note": 0, "velocity": 0, "duration": 77}, {"note": 62, "velocity": 96, "duration": 151}, {"note": 0, "velocity": 0, "duration": 89}, {"note": 62, "velocity": 102, "duration": 141}, {"note": 0, "velocity": 0, "duration": 99}, {"note": 62, "velocity": 102, "duration": 137}, {"note": 0, "velocity": 0, "duration": 103}, {"note": 60, "velocity": 112, "duration": 255}, {"note": 62, "velocity": 112, "duration": 278}, {"note": 60, "velocity": 117, "duration": 452}, {"note": 57, "velocity": 97, "duration": 1240}, {"note": 0, "velocity": 0, "duration": 2120}, {"note": 65, "velocity": 112, "duration": 199}, {"note": 67, "velocity": 122, "duration": 234}, {"note": 69, "velocity": 117, "duration": 166}, {"note": 0, "velocity": 0, "duration": 74}, {"note": 69, "velocity": 117, "duration": 192}, {"note": 69, "velocity": 100, "duration": 148}, {"note": 0, "velocity": 0, "duration": 92}, {"note": 69, "velocity": 102, "duration": 138}, {"note": 0, "velocity": 0, "duration": 102}, {"note": 69, "velocity": 122, "duration": 152}, {"note": 0, "velocity": 0, "duration": 88}, {"note": 69, "velocity": 112, "duration": 164}, {"note": 0, "velocity": 0, "duration": 76}, {"note": 67, "velocity": 122, "duration": 150}, {"note": 0, "velocity": 0, "duration": 90}, {"note": 65, "velocity": 112, "duration": 139}, {"note": 0, "velocity": 0, "duration": 101}, {"note": 67, "velocity": 122, "duration": 162}, {"note": 0, "velocity": 0, "duration": 78}, {"note": 67, "velocity": 122, "duration": 172}, {"note": 0, "velocity": 0, "duration": 68}, {"note": 69, "velocity": 127, "duration": 157}, {"note": 0, "velocity": 0, "duration": 83}, {"note": 67, "velocity": 127, "duration": 482}, {"note": 0, "velocity": 0, "duration": 238}, {"note": 65, "velocity": 112, "duration": 131}, {"note": 0, "velocity": 0, "duration": 109}, {"note": 67, "velocity": 122, "duration": 170}, {"note": 0, "velocity": 0, "duration": 70}, {"note": 69, "velocity": 117, "duration": 182}, {"note": 72, "velocity": 122, "duration": 160}, {"note": 0, "velocity": 0, "duration": 80}, {"note": 72, "velocity": 127, "duration": 148}, {"note": 0, "velocity": 0, "duration": 92}, {"note": 72, "velocity": 117, "duration": 157}, {"note": 0, "velocity": 0, "duration": 83}, {"note": 72, "velocity": 127, "duration": 146}, {"note": 0, "velocity": 0, "duration": 94}, {"note": 72, "velocity": 127, "duration": 138}, {"note": 0, "velocity": 0, "duration": 102}, {"note": 72, "velocity": 127, "duration": 142}, {"note": 0, "velocity": 0, "duration": 98}, {"note": 74, "velocity": 122, "duration": 125}, {"note": 0, "velocity": 0, "duration": 115}, {"note": 74, "velocity": 127, "duration": 99}, {"note": 0, "velocity": 0, "duration": 141}, {"note": 72, "velocity": 127, "duration": 235}, {"note": 69, "velocity": 95, "duration": 134}, {"note": 0, "velocity": 0, "duration": 106}, {"note": 69, "velocity": 112, "duration": 481}, {"note": 0, "velocity": 0, "duration": 239}, {"note": 65, "velocity": 117, "duration": 337}, {"note": 0, "velocity": 0, "duration": 143}, {"note": 72, "velocity": 122, "duration": 150}, {"note": 0, "velocity": 0, "duration": 90}, {"note": 74, "velocity": 112, "duration": 130}, {"note": 0, "velocity": 0, "duration": 110}, {"note": 74, "velocity": 127, "duration": 133}, {"note": 0, "velocity": 0, "duration": 107}, {"note": 74, "velocity": 122, "duration": 150}, {"note": 0, "velocity": 0, "duration": 90}, {"note": 74, "velocity": 127, "duration": 182}, {"note": 72, "velocity": 127, "duration": 308}, {"note": 0, "velocity": 0, "duration": 172}, {"note": 69, "velocity": 122, "duration": 133}, {"note": 0, "velocity": 0, "duration": 107}, {"note": 69, "velocity": 117, "duration": 194}, {"note": 0, "velocity": 0, "duration": 166}, {"note": 67, "velocity": 95, "duration": 374}, {"note": 65, "velocity": 102, "duration": 223}, {"note": 62, "velocity": 102, "duration": 358}, {"note": 0, "velocity": 0, "duration": 122}, {"note": 62, "velocity": 117, "duration": 197}, {"note": 65, "velocity": 127, "duration": 217}, {"note": 67, "velocity": 127, "duration": 156}, {"note": 0, "velocity": 0, "duration": 84}, {"note": 67, "velocity": 117, "duration": 167}, {"note": 0, "velocity": 0, "duration": 73}, {"note": 67, "velocity": 122, "duration": 146}, {"note": 0, "velocity": 0, "duration": 94}, {"note": 67, "velocity": 127, "duration": 350}, {"note": 0, "velocity": 0, "duration": 130}, {"note": 65, "velocity": 112, "duration": 463}, {"note": 62, "velocity": 112, "duration": 246}, {"note": 60, "velocity": 97, "duration": 959}, {"note": 0, "velocity": 0, "duration": 481}, {"note": 65, "velocity": 112, "duration": 149}, {"note": 0, "velocity": 0, "duration": 91}, {"note": 67, "velocity": 127, "duration": 187}, {"note": 69, "velocity": 127, "duration": 149}, {"note": 0, "velocity": 0, "duration": 91}, {"note": 69, "velocity": 127, "duration": 157}, {"note": 0, "velocity": 0, "duration": 83}, {"note": 69, "velocity": 127, "duration": 141}, {"note": 0, "velocity": 0, "duration": 99}, {"note": 69, "velocity": 122, "duration": 132}, {"note": 0, "velocity": 0, "duration": 108}, {"note": 69, "velocity": 127, "duration": 135}, {"note": 0, "velocity": 0, "duration": 105}, {"note": 72, "velocity": 127, "duration": 130}, {"note": 0, "velocity": 0, "duration": 110}, {"note": 72, "velocity": 127, "duration": 151}, {"note": 0, "velocity": 0, "duration": 89}, {"note": 69, "velocity": 122, "duration": 208}, {"note": 67, "velocity": 127, "duration": 159}, {"note": 0, "velocity": 0, "duration": 81}, {"note": 67, "velocity": 117, "duration": 143}, {"note": 0, "velocity": 0, "duration": 97}, {"note": 69, "velocity": 112, "duration": 215}, {"note": 65, "velocity": 127, "duration": 491}, {"note": 0, "velocity": 0, "duration": 229}, {"note": 65, "velocity": 122, "duration": 160}, {"note": 0, "velocity": 0, "duration": 80}, {"note": 67, "velocity": 122, "duration": 204}, {"note": 69, "velocity": 107, "duration": 183}, {"note": 72, "velocity": 122, "duration": 146}, {"note": 0, "velocity": 0, "duration": 94}, {"note": 72, "velocity": 127, "duration": 141}, {"note": 0, "velocity": 0, "duration": 99}, {"note": 72, "velocity": 127, "duration": 137}, {"note": 0, "velocity": 0, "duration": 103}, {"note": 72, "velocity": 127, "duration": 132}, {"note": 0, "velocity": 0, "duration": 108}, {"note": 74, "velocity": 127, "duration": 150}, {"note": 0, "velocity": 0, "duration": 90}, {"note": 74, "velocity": 127, "duration": 130}, {"note": 0, "velocity": 0, "duration": 110}, {"note": 74, "velocity": 122, "duration": 120}, {"note": 0, "velocity": 0, "duration": 120}, {"note": 74, "velocity": 127, "duration": 127}, {"note": 0, "velocity": 0, "duration": 113}, {"note": 72, "velocity": 122, "duration": 323}, {"note": 0, "velocity": 0, "duration": 157}, {"note": 69, "velocity": 102, "duration": 207}, {"note": 0, "velocity": 0, "duration": 513}, {"note": 65, "velocity": 117, "duration": 370}, {"note": 0, "velocity": 0, "duration": 110}, {"note": 74, "velocity": 127, "duration": 164}, {"note": 0, "velocity": 0, "duration": 76}, {"note": 74, "velocity": 127, "duration": 156}, {"note": 0, "velocity": 0, "duration": 84}, {"note": 74, "velocity": 127, "duration": 156}, {"note": 0, "velocity": 0, "duration": 84}, {"note": 74, "velocity": 117, "duration": 170}, {"note": 0, "velocity": 0, "duration": 70}, {"note": 74, "velocity": 127, "duration": 149}, {"note": 0, "velocity": 0, "duration": 211}, {"note": 72, "velocity": 127, "duration": 270}, {"note": 0, "velocity": 0, "duration": 90}, {"note": 69, "velocity": 112, "duration": 159}, {"note": 0, "velocity": 0, "duration": 81}, {"note": 69, "velocity": 127, "duration": 287}, {"note": 0, "velocity": 0, "duration": 193}, {"note": 67, "velocity": 122, "duration": 234}, {"note": 65, "velocity": 102, "duration": 232}, {"note": 62, "velocity": 102, "duration": 437}, {"note": 65, "velocity": 127, "duration": 165}, {"note": 0, "velocity": 0, "duration": 75}, {"note": 62, "velocity": 112, "duration": 159}, {"note": 0, "velocity": 0, "duration": 81}, {"note": 67, "velocity": 127, "duration": 186}, {"note": 69, "velocity": 127, "duration": 152}, {"note": 0, "velocity": 0, "duration": 88}, {"note": 69, "velocity": 122, "duration": 148}, {"note": 0, "velocity": 0, "duration": 92}, {"note": 69, "velocity": 127, "duration": 163}, {"note": 0, "velocity": 0, "duration": 317}, {"note": 72, "velocity": 127, "duration": 263}, {"note": 74, "velocity": 122, "duration": 244}, {"note": 72, "velocity": 117, "duration": 227}, {"note": 69, "velocity": 117, "duration": 2023}, {"note": 0, "velocity": 0, "duration": 1337}, {"note": 72, "velocity": 97, "duration": 185}, {"note": 74, "velocity": 127, "duration": 233}, {"note": 77, "velocity": 127, "duration": 146}, {"note": 0, "velocity": 0, "duration": 94}, {"note": 77, "velocity": 127, "duration": 155}, {"note": 0, "velocity": 0, "duration": 85}, {"note": 77, "velocity": 127, "duration": 171}, {"note": 0, "velocity": 0, "duration": 69}, {"note": 77, "velocity": 117, "duration": 166}, {"note": 0, "velocity": 0, "duration": 74}, {"note": 77, "velocity": 127, "duration": 243}, {"note": 0, "velocity": 0, "duration": 237}, {"note": 74, "velocity": 127, "duration": 381}, {"note": 0, "velocity": 0, "duration": 99}, {"note": 72, "velocity": 127, "duration": 229}, {"note": 74, "velocity": 127, "duration": 163}, {"note": 0, "velocity": 0, "duration": 77}, {"note": 74, "velocity": 127, "duration": 145}, {"note": 0, "velocity": 0, "duration": 95}, {"note": 72, "velocity": 127, "duration": 175}, {"note": 0, "velocity": 0, "duration": 65}, {"note": 74, "velocity": 127, "duration": 289}, {"note": 0, "velocity": 0, "duration": 191}, {"note": 72, "velocity": 112, "duration": 162}, {"note": 0, "velocity": 0, "duration": 78}, {"note": 74, "velocity": 127, "duration": 174}, {"note": 0, "velocity": 0, "duration": 66}, {"note": 77, "velocity": 127, "duration": 159}, {"note": 0, "velocity": 0, "duration": 81}, {"note": 77, "velocity": 127, "duration": 164}, {"note": 0, "velocity": 0, "duration": 76}, {"note": 77, "velocity": 122, "duration": 149}, {"note": 0, "velocity": 0, "duration": 91}, {"note": 77, "velocity": 127, "duration": 152}, {"note": 0, "velocity": 0, "duration": 88}, {"note": 77, "velocity": 127, "duration": 167}, {"note": 0, "velocity": 0, "duration": 73}, {"note": 77, "velocity": 127, "duration": 127}, {"note": 0, "velocity": 0, "duration": 113}, {"note": 74, "velocity": 127, "duration": 155}, {"note": 0, "velocity": 0, "duration": 85}, {"note": 72, "velocity": 127, "duration": 144}, {"note": 0, "velocity": 0, "duration": 96}, {"note": 72, "velocity": 127, "duration": 131}, {"note": 0, "velocity": 0, "duration": 109}, {"note": 72, "velocity": 127, "duration": 283}, {"note": 74, "velocity": 107, "duration": 219}, {"note": 69, "velocity": 107, "duration": 606}, {"note": 0, "velocity": 0, "duration": 114}, {"note": 62, "velocity": 112, "duration": 167}, {"note": 0, "velocity": 0, "duration": 73}, {"note": 65, "velocity": 127, "duration": 189}, {"note": 67, "velocity": 127, "duration": 174}, {"note": 0, "velocity": 0, "duration": 66}, {"note": 67, "velocity": 112, "duration": 169}, {"note": 0, "velocity": 0, "duration": 71}, {"note": 67, "velocity": 112, "duration": 138}, {"note": 0, "velocity": 0, "duration": 102}, {"note": 67, "velocity": 112, "duration": 151}, {"note": 0, "velocity": 0, "duration": 89}, {"note": 65, "velocity": 127, "duration": 140}, {"note": 0, "velocity": 0, "duration": 100}, {"note": 62, "velocity": 112, "duration": 182}, {"note": 62, "velocity": 122, "duration": 195}, {"note": 65, "velocity": 127, "duration": 210}, {"note": 67, "velocity": 127, "duration": 831}, {"note": 0, "velocity": 0, "duration": 609}, {"note": 65, "velocity": 112, "duration": 188}, {"note": 67, "velocity": 127, "duration": 195}, {"note": 69, "velocity": 127, "duration": 388}, {"note": 0, "velocity": 0, "duration": 92}, {"note": 72, "velocity": 127, "duration": 384}, {"note": 0, "velocity": 0, "duration": 2016}, {"note": 67, "velocity": 127, "duration": 215}, {"note": 69, "velocity": 107, "duration": 220}, {"note": 67, "velocity": 127, "duration": 245}, {"note": 65, "velocity": 112, "duration": 219}, {"note": 62, "velocity": 122, "duration": 2032}, {"note": 0, "velocity": 0, "duration": 12848}, {"note": 57, "velocity": 81, "duration": 156}, {"note": 0, "velocity": 0, "duration": 84}, {"note": 57, "velocity": 89, "duration": 186}, {"note": 65, "velocity": 89, "duration": 167}, {"note": 0, "velocity": 0, "duration": 73}, {"note": 65, "velocity": 82, "duration": 146}, {"note": 0, "velocity": 0, "duration": 94}, {"note": 65, "velocity": 95, "duration": 105}, {"note": 0, "velocity": 0, "duration": 135}, {"note": 65, "velocity": 96, "duration": 163}, {"note": 0, "velocity": 0, "duration": 77}, {"note": 62, "velocity": 89, "duration": 151}, {"note": 0, "velocity": 0, "duration": 89}, {"note": 62, "velocity": 90, "duration": 134}, {"note": 0, "velocity": 0, "duration": 106}, {"note": 62, "velocity": 99, "duration": 208}, {"note": 0, "velocity": 0, "duration": 152}, {"note": 60, "velocity": 97, "duration": 944}, {"note": 0, "velocity": 0, "duration": 616}, {"note": 60, "velocity": 117, "duration": 217}, {"note": 57, "velocity": 89, "duration": 246}, {"note": 62, "velocity": 102, "duration": 173}, {"note": 0, "velocity": 0, "duration": 67}, {"note": 62, "velocity": 102, "duration": 183}, {"note": 62, "velocity": 99, "duration": 172}, {"note": 0, "velocity": 0, "duration": 68}, {"note": 62, "velocity": 122, "duration": 240}, {"note": 62, "velocity": 99, "duration": 241}, {"note": 65, "velocity": 99, "duration": 156}, {"note": 0, "velocity": 0, "duration": 84}, {"note": 60, "velocity": 112, "duration": 222}, {"note": 57, "velocity": 100, "duration": 815}, {"note": 0, "velocity": 0, "duration": 2785}, {"note": 57, "velocity": 102, "duration": 134}, {"note": 0, "velocity": 0, "duration": 106}, {"note": 57, "velocity": 100, "duration": 242}, {"note": 65, "velocity": 117, "duration": 341}, {"note": 0, "velocity": 0, "duration": 139}, {"note": 65, "velocity": 127, "duration": 291}, {"note": 0, "velocity": 0, "duration": 189}, {"note": 65, "velocity": 107, "duration": 205}, {"note": 67, "velocity": 102, "duration": 355}, {"note": 0, "velocity": 0, "duration": 125}, {"note": 69, "velocity": 102, "duration": 230}, {"note": 67, "velocity": 122, "duration": 203}, {"note": 67, "velocity": 122, "duration": 141}, {"note": 0, "velocity": 0, "duration": 99}, {"note": 67, "velocity": 112, "duration": 154}, {"note": 0, "velocity": 0, "duration": 86}, {"note": 65, "velocity": 100, "duration": 648}, {"note": 0, "velocity": 0, "duration": 72}, {"note": 60, "velocity": 99, "duration": 184}, {"note": 57, "velocity": 96, "duration": 234}, {"note": 62, "velocity": 100, "duration": 163}, {"note": 0, "velocity": 0, "duration": 77}, {"note": 62, "velocity": 96, "duration": 151}, {"note": 0, "velocity": 0, "duration": 89}, {"note": 62, "velocity": 102, "duration": 141}, {"note": 0, "velocity": 0, "duration": 99}, {"note": 62, "velocity": 102, "duration": 137}, {"note": 0, "velocity": 0, "duration": 103}, {"note": 60, "velocity": 112, "duration": 255}, {"note": 62, "velocity": 112, "duration": 278}, {"note": 60, "velocity": 117, "duration": 452}, {"note": 57, "velocity": 97, "duration": 1240}, {"note": 0, "velocity": 0, "duration": 2120}, {"note": 65, "velocity": 112, "duration": 199}, {"note": 67, "velocity": 122, "duration": 234}, {"note": 69, "velocity": 117, "duration": 166}, {"note": 0, "velocity": 0, "duration": 74}, {"note": 69, "velocity": 117, "duration": 192}, {"note": 69, "velocity": 100, "duration": 148}, {"note": 0, "velocity": 0, "duration": 92}, {"note": 69, "velocity": 102, "duration": 138}, {"note": 0, "velocity": 0, "duration": 102}, {"note": 69, "velocity": 122, "duration": 152}, {"note": 0, "velocity": 0, "duration": 88}, {"note": 69, "velocity": 112, "duration": 164}, {"note": 0, "velocity": 0, "duration": 76}, {"note": 67, "velocity": 122, "duration": 150}, {"note": 0, "velocity": 0, "duration": 90}, {"note": 65, "velocity": 112, "duration": 139}, {"note": 0, "velocity": 0, "duration": 101}, {"note": 67, "velocity": 122, "duration": 162}, {"note": 0, "velocity": 0, "duration": 78}, {"note": 67, "velocity": 122, "duration": 172}, {"note": 0, "velocity": 0, "duration": 68}, {"note": 69, "velocity": 127, "duration": 157}, {"note": 0, "velocity": 0, "duration": 83}, {"note": 67, "velocity": 127, "duration": 482}, {"note": 0, "velocity": 0, "duration": 238}, {"note": 65, "velocity": 112, "duration": 131}, {"note": 0, "velocity": 0, "duration": 109}, {"note": 67, "velocity": 122, "duration": 170}, {"note": 0, "velocity": 0, "duration": 70}, {"note": 69, "velocity": 117, "duration": 182}, {"note": 72, "velocity": 122, "duration": 160}, {"note": 0, "velocity": 0, "duration": 80}, {"note": 72, "velocity": 127, "duration": 148}, {"note": 0, "velocity": 0, "duration": 92}, {"note": 72, "velocity": 117, "duration": 157}, {"note": 0, "velocity": 0, "duration": 83}, {"note": 72, "velocity": 127, "duration": 146}, {"note": 0, "velocity": 0, "duration": 94}, {"note": 72, "velocity": 127, "duration": 138}, {"note": 0, "velocity": 0, "duration": 102}, {"note": 72, "velocity": 127, "duration": 142}, {"note": 0, "velocity": 0, "duration": 98}, {"note": 74, "velocity": 122, "duration": 125}, {"note": 0, "velocity": 0, "duration": 115}, {"note": 74, "velocity": 127, "duration": 99}, {"note": 0, "velocity": 0, "duration": 141}, {"note": 72, "velocity": 127, "duration": 235}, {"note": 69, "velocity": 95, "duration": 134}, {"note": 0, "velocity": 0, "duration": 106}, {"note": 69, "velocity": 112, "duration": 481}, {"note": 0, "velocity": 0, "duration": 239}, {"note": 65, "velocity": 117, "duration": 337}, {"note": 0, "velocity": 0, "duration": 143}, {"note": 72, "velocity": 122, "duration": 150}, {"note": 0, "velocity": 0, "duration": 90}, {"note": 74, "velocity": 112, "duration": 130}, {"note": 0, "velocity": 0, "duration": 110}, {"note": 74, "velocity": 127, "duration": 133}, {"note": 0, "velocity": 0, "duration": 107}, {"note": 74, "velocity": 122, "duration": 150}, {"note": 0, "velocity": 0, "duration": 90}, {"note": 74, "velocity": 127, "duration": 182}, {"note": 72, "velocity": 127, "duration": 308}, {"note": 0, "velocity": 0, "duration": 172}, {"note": 69, "velocity": 122, "duration": 133}, {"note": 0, "velocity": 0, "duration": 107}, {"note": 69, "velocity": 117, "duration": 194}, {"note": 0, "velocity": 0, "duration": 166}, {"note": 67, "velocity": 95, "duration": 374}, {"note": 65, "velocity": 102, "duration": 223}, {"note": 62, "velocity": 102, "duration": 358}, {"note": 0, "velocity": 0, "duration": 122}, {"note": 62, "velocity": 117, "duration": 197}, {"note": 65, "velocity": 127, "duration": 217}, {"note": 67, "velocity": 127, "duration": 156}, {"note": 0, "velocity": 0, "duration": 84}, {"note": 67, "velocity": 117, "duration": 167}, {"note": 0, "velocity": 0, "duration": 73}, {"note": 67, "velocity": 122, "duration": 146}, {"note": 0, "velocity": 0, "duration": 94}, {"note": 67, "velocity": 127, "duration": 350}, {"note": 0, "velocity": 0, "duration": 130}, {"note": 65, "velocity": 112, "duration": 463}, {"note": 62, "velocity": 112, "duration": 246}, {"note": 60, "velocity": 97, "duration": 959}, {"note": 0, "velocity": 0, "duration": 481}, {"note": 65, "velocity": 112, "duration": 149}, {"note": 0, "velocity": 0, "duration": 91}, {"note": 67, "velocity": 127, "duration": 187}, {"note": 69, "velocity": 127, "duration": 149}, {"note": 0, "velocity": 0, "duration": 91}, {"note": 69, "velocity": 127, "duration": 157}, {"note": 0, "velocity": 0, "duration": 83}, {"note": 69, "velocity": 127, "duration": 141}, {"note": 0, "velocity": 0, "duration": 99}, {"note": 69, "velocity": 122, "duration": 132}, {"note": 0, "velocity": 0, "duration": 108}, {"note": 69, "velocity": 127, "duration": 135}, {"note": 0, "velocity": 0, "duration": 105}, {"note": 72, "velocity": 127, "duration": 130}, {"note": 0, "velocity": 0, "duration": 110}, {"note": 72, "velocity": 127, "duration": 151}, {"note": 0, "velocity": 0, "duration": 89}, {"note": 69, "velocity": 122, "duration": 208}, {"note": 67, "velocity": 127, "duration": 159}, {"note": 0, "velocity": 0, "duration": 81}, {"note": 67, "velocity": 117, "duration": 143}, {"note": 0, "velocity": 0, "duration": 97}, {"note": 69, "velocity": 112, "duration": 215}, {"note": 65, "velocity": 127, "duration": 491}, {"note": 0, "velocity": 0, "duration": 229}, {"note": 65, "velocity": 122, "duration": 160}, {"note": 0, "velocity": 0, "duration": 80}, {"note": 67, "velocity": 122, "duration": 204}, {"note": 69, "velocity": 107, "duration": 183}, {"note": 72, "velocity": 122, "duration": 146}, {"note": 0, "velocity": 0, "duration": 94}, {"note": 72, "velocity": 127, "duration": 141}, {"note": 0, "velocity": 0, "duration": 99}, {"note": 72, "velocity": 127, "duration": 137}, {"note": 0, "velocity": 0, "duration": 103}, {"note": 72, "velocity": 127, "duration": 132}, {"note": 0, "velocity": 0, "duration": 108}, {"note": 74, "velocity": 127, "duration": 150}, {"note": 0, "velocity": 0, "duration": 90}, {"note": 74, "velocity": 127, "duration": 130}, {"note": 0, "velocity": 0, "duration": 110}, {"note": 74, "velocity": 122, "duration": 120}, {"note": 0, "velocity": 0, "duration": 120}, {"note": 74, "velocity": 127, "duration": 127}, {"note": 0, "velocity": 0, "duration": 113}, {"note": 72, "velocity": 122, "duration": 323}, {"note": 0, "velocity": 0, "duration": 157}, {"note": 69, "velocity": 102, "duration": 207}, {"note": 0, "velocity": 0, "duration": 513}, {"note": 65, "velocity": 117, "duration": 370}, {"note": 0, "velocity": 0, "duration": 110}, {"note": 74, "velocity": 127, "duration": 164}, {"note": 0, "velocity": 0, "duration": 76}, {"note": 74, "velocity": 127, "duration": 156}, {"note": 0, "velocity": 0, "duration": 84}, {"note": 74, "velocity": 127, "duration": 156}, {"note": 0, "velocity": 0, "duration": 84}, {"note": 74, "velocity": 117, "duration": 170}, {"note": 0, "velocity": 0, "duration": 70}, {"note": 74, "velocity": 127, "duration": 149}, {"note": 0, "velocity": 0, "duration": 211}, {"note": 72, "velocity": 127, "duration": 270}, {"note": 0, "velocity": 0, "duration": 90}, {"note": 69, "velocity": 112, "duration": 159}, {"note": 0, "velocity": 0, "duration": 81}, {"note": 69, "velocity": 127, "duration": 287}, {"note": 0, "velocity": 0, "duration": 193}, {"note": 67, "velocity": 122, "duration": 234}, {"note": 65, "velocity": 102, "duration": 232}, {"note": 62, "velocity": 102, "duration": 437}, {"note": 65, "velocity": 127, "duration": 165}, {"note": 0, "velocity": 0, "duration": 75}, {"note": 62, "velocity": 112, "duration": 159}, {"note": 0, "velocity": 0, "duration": 81}, {"note": 67, "velocity": 127, "duration": 186}, {"note": 69, "velocity": 127, "duration": 152}, {"note": 0, "velocity": 0, "duration": 88}, {"note": 69, "velocity": 122, "duration": 148}, {"note": 0, "velocity": 0, "duration": 92}, {"note": 69, "velocity": 127, "duration": 163}, {"note": 0, "velocity": 0, "duration": 317}, {"note": 72, "velocity": 127, "duration": 263}, {"note": 74, "velocity": 122, "duration": 244}, {"note": 72, "velocity": 117, "duration": 227}, {"note": 69, "velocity": 117, "duration": 2023}, {"note": 0, "velocity": 0, "duration": 1337}, {"note": 72, "velocity": 97, "duration": 185}, {"note": 74, "velocity": 127, "duration": 233}, {"note": 77, "velocity": 127, "duration": 146}, {"note": 0, "velocity": 0, "duration": 94}, {"note": 77, "velocity": 127, "duration": 155}, {"note": 0, "velocity": 0, "duration": 85}, {"note": 77, "velocity": 127, "duration": 171}, {"note": 0, "velocity": 0, "duration": 69}, {"note": 77, "velocity": 117, "duration": 166}, {"note": 0, "velocity": 0, "duration": 74}, {"note": 77, "velocity": 127, "duration": 243}, {"note": 0, "velocity": 0, "duration": 237}, {"note": 74, "velocity": 127, "duration": 381}, {"note": 0, "velocity": 0, "duration": 99}, {"note": 72, "velocity": 127, "duration": 229}, {"note": 74, "velocity": 127, "duration": 163}, {"note": 0, "velocity": 0, "duration": 77}, {"note": 74, "velocity": 127, "duration": 145}, {"note": 0, "velocity": 0, "duration": 95}, {"note": 72, "velocity": 127, "duration": 175}, {"note": 0, "velocity": 0, "duration": 65}, {"note": 74, "velocity": 127, "duration": 289}, {"note": 0, "velocity": 0, "duration": 191}, {"note": 72, "velocity": 112, "duration": 162}, {"note": 0, "velocity": 0, "duration": 78}, {"note": 74, "velocity": 127, "duration": 174}, {"note": 0, "velocity": 0, "duration": 66}, {"note": 77, "velocity": 127, "duration": 159}, {"note": 0, "velocity": 0, "duration": 81}, {"note": 77, "velocity": 127, "duration": 164}, {"note": 0, "velocity": 0, "duration": 76}, {"note": 77, "velocity": 122, "duration": 149}, {"note": 0, "velocity": 0, "duration": 91}, {"note": 77, "velocity": 127, "duration": 152}, {"note": 0, "velocity": 0, "duration": 88}, {"note": 77, "velocity": 127, "duration": 167}, {"note": 0, "velocity": 0, "duration": 73}, {"note": 77, "velocity": 127, "duration": 127}, {"note": 0, "velocity": 0, "duration": 113}, {"note": 74, "velocity": 127, "duration": 155}, {"note": 0, "velocity": 0, "duration": 85}, {"note": 72, "velocity": 127, "duration": 144}, {"note": 0, "velocity": 0, "duration": 96}, {"note": 72, "velocity": 127, "duration": 131}, {"note": 0, "velocity": 0, "duration": 109}, {"note": 72, "velocity": 127, "duration": 283}, {"note": 74, "velocity": 107, "duration": 219}, {"note": 69, "velocity": 107, "duration": 606}, {"note": 0, "velocity": 0, "duration": 114}, {"note": 62, "velocity": 112, "duration": 167}, {"note": 0, "velocity": 0, "duration": 73}, {"note": 65, "velocity": 127, "duration": 189}, {"note": 67, "velocity": 127, "duration": 174}, {"note": 0, "velocity": 0, "duration": 66}, {"note": 67, "velocity": 112, "duration": 169}, {"note": 0, "velocity": 0, "duration": 71}, {"note": 67, "velocity": 112, "duration": 138}, {"note": 0, "velocity": 0, "duration": 102}, {"note": 67, "velocity": 112, "duration": 151}, {"note": 0, "velocity": 0, "duration": 89}, {"note": 65, "velocity": 127, "duration": 140}, {"note": 0, "velocity": 0, "duration": 100}, {"note": 62, "velocity": 112, "duration": 182}, {"note": 62, "velocity": 122, "duration": 195}, {"note": 65, "velocity": 127, "duration": 210}, {"note": 67, "velocity": 127, "duration": 831}, {"note": 0, "velocity": 0, "duration": 609}, {"note": 65, "velocity": 112, "duration": 188}, {"note": 67, "velocity": 127, "duration": 195}, {"note": 69, "velocity": 127, "duration": 388}, {"note": 0, "velocity": 0, "duration": 92}, {"note": 72, "velocity": 127, "duration": 2119}, {"note": 0, "velocity": 0, "duration": 281}, {"note": 67, "velocity": 127, "duration": 215}, {"note": 69, "velocity": 107, "duration": 220}, {"note": 67, "velocity": 127, "duration": 245}, {"note": 65, "velocity": 112, "duration": 219}, {"note": 62, "velocity": 122, "duration": 2032}]]