[[{"note": 56, "velocity": 81, "duration": 128}, {"note": 58, "velocity": 88, "duration": 137}, {"note": 56, "velocity": 90, "duration": 99}, {"note": 58, "velocity": 96, "duration": 131}, {"note": 56, "velocity": 81, "duration": 95}, {"note": 58, "velocity": 102, "duration": 92}, {"note": 61, "velocity": 102, "duration": 303}, {"note": 56, "velocity": 93, "duration": 101}, {"note": 58, "velocity": 82, "duration": 94}, {"note": 56, "velocity": 93, "duration": 75}, {"note": 58, "velocity": 97, "duration": 106}, {"note": 56, "velocity": 90, "duration": 74}, {"note": 58, "velocity": 93, "duration": 57}, {"note": 0, "velocity": 0, "duration": 63}, {"note": 61, "velocity": 107, "duration": 198}, {"note": 56, "velocity": 93, "duration": 55}, {"note": 0, "velocity": 0, "duration": 65}, {"note": 58, "velocity": 96, "duration": 79}, {"note": 56, "velocity": 89, "duration": 59}, {"note": 0, "velocity": 0, "duration": 61}, {"note": 58, "velocity": 112, "duration": 102}, {"note": 0, "velocity": 0, "duration": 138}, {"note": 65, "velocity": 93, "duration": 141}, {"note": 0, "velocity": 0, "duration": 99}, {"note": 61, "velocity": 107, "duration": 364}, {"note": 0, "velocity": 0, "duration": 116}, {"note": 61, "velocity": 117, "duration": 93}, {"note": 59, "velocity": 89, "duration": 107}, {"note": 0, "velocity": 0, "duration": 133}, {"note": 58, "velocity": 96, "duration": 117}, {"note": 56, "velocity": 86, "duration": 123}, {"note": 0, "velocity": 0, "duration": 117}, {"note": 54, "velocity": 88, "duration": 72}, {"note": 54, "velocity": 90, "duration": 144}, {"note": 0, "velocity": 0, "duration": 96}, {"note": 61, "velocity": 96, "duration": 124}, {"note": 0, "velocity": 0, "duration": 116}, {"note": 61, "velocity": 93, "duration": 58}, {"note": 0, "velocity": 0, "duration": 62}, {"note": 61, "velocity": 99, "duration": 88}, {"note": 58, "velocity": 89, "duration": 104}, {"note": 0, "velocity": 0, "duration": 136}, {"note": 54, "velocity": 86, "duration": 122}, {"note": 0, "velocity": 0, "duration": 358}, {"note": 54, "velocity": 71, "duration": 92}, {"note": 61, "velocity": 89, "duration": 232}, {"note": 0, "velocity": 0, "duration": 128}, {"note": 63, "velocity": 107, "duration": 211}, {"note": 0, "velocity": 0, "duration": 149}, {"note": 58, "velocity": 95, "duration": 222}, {"note": 56, "velocity": 82, "duration": 460}, {"note": 0, "velocity": 0, "duration": 620}, {"note": 56, "velocity": 99, "duration": 68}, {"note": 58, "velocity": 96, "duration": 65}, {"note": 56, "velocity": 102, "duration": 49}, {"note": 0, "velocity": 0, "duration": 71}, {"note": 58, "velocity": 95, "duration": 63}, {"note": 56, "velocity": 102, "duration": 53}, {"note": 0, "velocity": 0, "duration": 67}, {"note": 58, "velocity": 102, "duration": 49}, {"note": 0, "velocity": 0, "duration": 71}, {"note": 61, "velocity": 122, "duration": 124}, {"note": 0, "velocity": 0, "duration": 116}, {"note": 56, "velocity": 97, "duration": 61}, {"note": 58, "velocity": 97, "duration": 85}, {"note": 56, "velocity": 97, "duration": 64}, {"note": 58, "velocity": 97, "duration": 74}, {"note": 56, "velocity": 92, "duration": 81}, {"note": 58, "velocity": 122, "duration": 56}, {"note": 0, "velocity": 0, "duration": 64}, {"note": 61, "velocity": 99, "duration": 81}, {"note": 66, "velocity": 100, "duration": 157}, {"note": 0, "velocity": 0, "duration": 83}, {"note": 65, "velocity": 93, "duration": 136}, {"note": 0, "velocity": 0, "duration": 104}, {"note": 61, "velocity": 107, "duration": 152}, {"note": 0, "velocity": 0, "duration": 88}, {"note": 58, "velocity": 86, "duration": 174}, {"note": 0, "velocity": 0, "duration": 66}, {"note": 61, "velocity": 102, "duration": 410}, {"note": 0, "velocity": 0, "duration": 70}, {"note": 61, "velocity": 112, "duration": 128}, {"note": 63, "velocity": 102, "duration": 99}, {"note": 0, "velocity": 0, "duration": 141}, {"note": 66, "velocity": 95, "duration": 79}, {"note": 68, "velocity": 127, "duration": 202}, {"note": 66, "velocity": 107, "duration": 103}, {"note": 63, "velocity": 96, "duration": 163}, {"note": 0, "velocity": 0, "duration": 77}, {"note": 63, "velocity": 99, "duration": 133}, {"note": 0, "velocity": 0, "duration": 107}, {"note": 63, "velocity": 97, "duration": 65}, {"note": 63, "velocity": 112, "duration": 94}, {"note": 61, "velocity": 112, "duration": 90}, {"note": 0, "velocity": 0, "duration": 150}, {"note": 61, "velocity": 112, "duration": 92}, {"note": 58, "velocity": 112, "duration": 183}, {"note": 54, "velocity": 100, "duration": 153}, {"note": 0, "velocity": 0, "duration": 87}, {"note": 56, "velocity": 93, "duration": 463}, {"note": 58, "velocity": 112, "duration": 318}, {"note": 0, "velocity": 0, "duration": 162}, {"note": 59, "velocity": 97, "duration": 359}, {"note": 0, "velocity": 0, "duration": 121}, {"note": 61, "velocity": 102, "duration": 234}, {"note": 0, "velocity": 0, "duration": 246}, {"note": 63, "velocity": 112, "duration": 369}, {"note": 0, "velocity": 0, "duration": 111}, {"note": 70, "velocity": 112, "duration": 321}, {"note": 0, "velocity": 0, "duration": 159}, {"note": 68, "velocity": 122, "duration": 319}, {"note": 0, "velocity": 0, "duration": 521}, {"note": 58, "velocity": 102, "duration": 69}, {"note": 66, "velocity": 89, "duration": 106}, {"note": 65, "velocity": 93, "duration": 100}, {"note": 0, "velocity": 0, "duration": 140}, {"note": 61, "velocity": 112, "duration": 95}, {"note": 58, "velocity": 99, "duration": 189}, {"note": 56, "velocity": 96, "duration": 243}, {"note": 58, "velocity": 99, "duration": 210}, {"note": 0, "velocity": 0, "duration": 270}, {"note": 58, "velocity": 122, "duration": 119}, {"note": 61, "velocity": 102, "duration": 108}, {"note": 0, "velocity": 0, "duration": 132}, {"note": 63, "velocity": 96, "duration": 65}, {"note": 54, "velocity": 99, "duration": 273}, {"note": 0, "velocity": 0, "duration": 207}, {"note": 58, "velocity": 97, "duration": 112}, {"note": 61, "velocity": 127, "duration": 113}, {"note": 0, "velocity": 0, "duration": 127}, {"note": 63, "velocity": 102, "duration": 75}, {"note": 54, "velocity": 102, "duration": 155}, {"note": 0, "velocity": 0, "duration": 205}, {"note": 54, "velocity": 95, "duration": 75}, {"note": 56, "velocity": 102, "duration": 89}, {"note": 58, "velocity": 107, "duration": 99}, {"note": 0, "velocity": 0, "duration": 141}, {"note": 56, "velocity": 112, "duration": 71}, {"note": 58, "velocity": 107, "duration": 555}, {"note": 0, "velocity": 0, "duration": 1365}, {"note": 63, "velocity": 112, "duration": 369}, {"note": 0, "velocity": 0, "duration": 111}, {"note": 70, "velocity": 112, "duration": 321}, {"note": 0, "velocity": 0, "duration": 159}, {"note": 68, "velocity": 122, "duration": 319}, {"note": 0, "velocity": 0, "duration": 281}, {"note": 65, "velocity": 107, "duration": 179}, {"note": 63, "velocity": 93, "duration": 64}, {"note": 0, "velocity": 0, "duration": 176}, {"note": 63, "velocity": 117, "duration": 157}, {"note": 0, "velocity": 0, "duration": 83}, {"note": 61, "velocity": 83, "duration": 68}, {"note": 61, "velocity": 96, "duration": 167}, {"note": 58, "velocity": 107, "duration": 189}, {"note": 63, "velocity": 102, "duration": 154}, {"note": 0, "velocity": 0, "duration": 86}, {"note": 63, "velocity": 127, "duration": 222}, {"note": 0, "velocity": 0, "duration": 258}, {"note": 58, "velocity": 112, "duration": 118}, {"note": 61, "velocity": 122, "duration": 131}, {"note": 0, "velocity": 0, "duration": 109}, {"note": 63, "velocity": 112, "duration": 96}, {"note": 54, "velocity": 107, "duration": 319}, {"note": 0, "velocity": 0, "duration": 161}, {"note": 58, "velocity": 112, "duration": 112}, {"note": 61, "velocity": 107, "duration": 143}, {"note": 0, "velocity": 0, "duration": 97}, {"note": 63, "velocity": 102, "duration": 75}, {"note": 54, "velocity": 97, "duration": 296}, {"note": 0, "velocity": 0, "duration": 64}, {"note": 54, "velocity": 79, "duration": 78}, {"note": 63, "velocity": 83, "duration": 112}, {"note": 61, "velocity": 90, "duration": 133}, {"note": 0, "velocity": 0, "duration": 107}, {"note": 56, "velocity": 93, "duration": 168}, {"note": 0, "velocity": 0, "duration": 72}, {"note": 54, "velocity": 88, "duration": 1051}, {"note": 0, "velocity": 0, "duration": 867}, {"note": 56, "velocity": 99, "duration": 68}, {"note": 58, "velocity": 96, "duration": 65}, {"note": 56, "velocity": 102, "duration": 49}, {"note": 0, "velocity": 0, "duration": 71}, {"note": 58, "velocity": 95, "duration": 63}, {"note": 56, "velocity": 102, "duration": 53}, {"note": 0, "velocity": 0, "duration": 67}, {"note": 58, "velocity": 102, "duration": 49}, {"note": 0, "velocity": 0, "duration": 71}, {"note": 61, "velocity": 122, "duration": 124}, {"note": 0, "velocity": 0, "duration": 118}, {"note": 56, "velocity": 99, "duration": 68}, {"note": 58, "velocity": 96, "duration": 65}, {"note": 56, "velocity": 102, "duration": 49}, {"note": 0, "velocity": 0, "duration": 71}, {"note": 58, "velocity": 95, "duration": 63}, {"note": 56, "velocity": 102, "duration": 53}, {"note": 0, "velocity": 0, "duration": 67}, {"note": 58, "velocity": 102, "duration": 49}, {"note": 0, "velocity": 0, "duration": 71}, {"note": 61, "velocity": 122, "duration": 124}, {"note": 0, "velocity": 0, "duration": 116}, {"note": 56, "velocity": 97, "duration": 61}, {"note": 58, "velocity": 97, "duration": 85}, {"note": 56, "velocity": 97, "duration": 64}, {"note": 58, "velocity": 97, "duration": 74}, {"note": 65, "velocity": 100, "duration": 229}, {"note": 0, "velocity": 0, "duration": 131}, {"note": 63, "velocity": 102, "duration": 122}, {"note": 61, "velocity": 89, "duration": 252}, {"note": 61, "velocity": 112, "duration": 12}, {"note": 0, "velocity": 0, "duration": 108}, {"note": 61, "velocity": 96, "duration": 58}, {"note": 0, "velocity": 0, "duration": 62}, {"note": 59, "velocity": 93, "duration": 56}, {"note": 0, "velocity": 0, "duration": 64}, {"note": 59, "velocity": 96, "duration": 64}, {"note": 56, "velocity": 107, "duration": 51}, {"note": 0, "velocity": 0, "duration": 69}, {"note": 58, "velocity": 117, "duration": 160}, {"note": 0, "velocity": 0, "duration": 80}, {"note": 56, "velocity": 102, "duration": 72}, {"note": 54, "velocity": 95, "duration": 182}, {"note": 0, "velocity": 0, "duration": 298}, {"note": 61, "velocity": 107, "duration": 44}, {"note": 0, "velocity": 0, "duration": 76}, {"note": 61, "velocity": 112, "duration": 148}, {"note": 0, "velocity": 0, "duration": 92}, {"note": 56, "velocity": 99, "duration": 133}, {"note": 54, "velocity": 93, "duration": 157}, {"note": 0, "velocity": 0, "duration": 323}, {"note": 54, "velocity": 97, "duration": 53}, {"note": 0, "velocity": 0, "duration": 67}, {"note": 56, "velocity": 100, "duration": 74}, {"note": 54, "velocity": 96, "duration": 51}, {"note": 0, "velocity": 0, "duration": 69}, {"note": 56, "velocity": 97, "duration": 72}, {"note": 54, "velocity": 89, "duration": 67}, {"note": 56, "velocity": 112, "duration": 126}, {"note": 0, "velocity": 0, "duration": 114}, {"note": 58, "velocity": 127, "duration": 143}, {"note": 0, "velocity": 0, "duration": 97}, {"note": 59, "velocity": 99, "duration": 198}, {"note": 61, "velocity": 107, "duration": 68}, {"note": 58, "velocity": 107, "duration": 170}, {"note": 0, "velocity": 0, "duration": 70}, {"note": 56, "velocity": 97, "duration": 290}, {"note": 54, "velocity": 75, "duration": 152}, {"note": 56, "velocity": 99, "duration": 172}, {"note": 0, "velocity": 0, "duration": 68}, {"note": 58, "velocity": 97, "duration": 71}, {"note": 58, "velocity": 100, "duration": 225}, {"note": 56, "velocity": 99, "duration": 111}, {"note": 0, "velocity": 0, "duration": 249}, {"note": 56, "velocity": 112, "duration": 187}, {"note": 58, "velocity": 100, "duration": 48}, {"note": 0, "velocity": 0, "duration": 72}, {"note": 58, "velocity": 127, "duration": 180}, {"note": 56, "velocity": 112, "duration": 161}, {"note": 0, "velocity": 0, "duration": 199}, {"note": 61, "velocity": 102, "duration": 171}, {"note": 0, "velocity": 0, "duration": 69}, {"note": 58, "velocity": 90, "duration": 144}, {"note": 0, "velocity": 0, "duration": 96}, {"note": 56, "velocity": 100, "duration": 187}, {"note": 54, "velocity": 107, "duration": 101}, {"note": 0, "velocity": 0, "duration": 139}, {"note": 61, "velocity": 122, "duration": 131}, {"note": 0, "velocity": 0, "duration": 109}, {"note": 58, "velocity": 100, "duration": 138}, {"note": 0, "velocity": 0, "duration": 102}, {"note": 56, "velocity": 107, "duration": 141}, {"note": 58, "velocity": 117, "duration": 238}, {"note": 0, "velocity": 0, "duration": 122}, {"note": 54, "velocity": 107, "duration": 227}, {"note": 58, "velocity": 96, "duration": 110}, {"note": 58, "velocity": 90, "duration": 687}, {"note": 0, "velocity": 0, "duration": 273}, {"note": 54, "velocity": 93, "duration": 44}, {"note": 0, "velocity": 0, "duration": 76}, {"note": 54, "velocity": 96, "duration": 77}, {"note": 56, "velocity": 107, "duration": 162}, {"note": 0, "velocity": 0, "duration": 198}, {"note": 56, "velocity": 117, "duration": 380}, {"note": 0, "velocity": 0, "duration": 100}, {"note": 58, "velocity": 117, "duration": 378}, {"note": 0, "velocity": 0, "duration": 102}, {"note": 59, "velocity": 112, "duration": 338}, {"note": 0, "velocity": 0, "duration": 142}, {"note": 61, "velocity": 117, "duration": 178}, {"note": 0, "velocity": 0, "duration": 302}, {"note": 56, "velocity": 112, "duration": 426}, {"note": 58, "velocity": 102, "duration": 418}, {"note": 0, "velocity": 0, "duration": 62}, {"note": 59, "velocity": 99, "duration": 433}, {"note": 61, "velocity": 122, "duration": 216}, {"note": 0, "velocity": 0, "duration": 264}, {"note": 63, "velocity": 112, "duration": 369}, {"note": 0, "velocity": 0, "duration": 111}, {"note": 70, "velocity": 112, "duration": 321}, {"note": 0, "velocity": 0, "duration": 159}, {"note": 68, "velocity": 122, "duration": 319}, {"note": 0, "velocity": 0, "duration": 521}, {"note": 58, "velocity": 102, "duration": 69}, {"note": 66, "velocity": 89, "duration": 106}, {"note": 65, "velocity": 93, "duration": 100}, {"note": 0, "velocity": 0, "duration": 140}, {"note": 61, "velocity": 112, "duration": 95}, {"note": 58, "velocity": 99, "duration": 189}, {"note": 56, "velocity": 96, "duration": 243}, {"note": 58, "velocity": 99, "duration": 210}, {"note": 0, "velocity": 0, "duration": 270}, {"note": 58, "velocity": 122, "duration": 119}, {"note": 61, "velocity": 102, "duration": 108}, {"note": 0, "velocity": 0, "duration": 132}, {"note": 63, "velocity": 96, "duration": 65}, {"note": 54, "velocity": 99, "duration": 273}, {"note": 0, "velocity": 0, "duration": 207}, {"note": 58, "velocity": 97, "duration": 112}, {"note": 61, "velocity": 127, "duration": 113}, {"note": 0, "velocity": 0, "duration": 127}, {"note": 63, "velocity": 102, "duration": 75}, {"note": 54, "velocity": 102, "duration": 155}, {"note": 0, "velocity": 0, "duration": 205}, {"note": 54, "velocity": 95, "duration": 75}, {"note": 56, "velocity": 102, "duration": 89}, {"note": 58, "velocity": 107, "duration": 99}, {"note": 0, "velocity": 0, "duration": 141}, {"note": 56, "velocity": 112, "duration": 71}, {"note": 58, "velocity": 107, "duration": 555}, {"note": 0, "velocity": 0, "duration": 1365}, {"note": 63, "velocity": 112, "duration": 369}, {"note": 0, "velocity": 0, "duration": 111}, {"note": 70, "velocity": 112, "duration": 321}, {"note": 0, "velocity": 0, "duration": 159}, {"note": 68, "velocity": 122, "duration": 319}, {"note": 0, "velocity": 0, "duration": 281}, {"note": 65, "velocity": 107, "duration": 179}, {"note": 63, "velocity": 109, "duration": 64}, {"note": 0, "velocity": 0, "duration": 176}, {"note": 63, "velocity": 117, "duration": 157}, {"note": 0, "velocity": 0, "duration": 83}, {"note": 61, "velocity": 83, "duration": 68}, {"note": 61, "velocity": 96, "duration": 167}, {"note": 58, "velocity": 107, "duration": 189}, {"note": 63, "velocity": 102, "duration": 154}, {"note": 0, "velocity": 0, "duration": 86}, {"note": 63, "velocity": 127, "duration": 222}, {"note": 0, "velocity": 0, "duration": 258}, {"note": 58, "velocity": 112, "duration": 118}, {"note": 61, "velocity": 122, "duration": 131}, {"note": 0, "velocity": 0, "duration": 109}, {"note": 63, "velocity": 112, "duration": 96}, {"note": 54, "velocity": 107, "duration": 319}, {"note": 0, "velocity": 0, "duration": 161}, {"note": 58, "velocity": 112, "duration": 112}, {"note": 61, "velocity": 107, "duration": 143}, {"note": 0, "velocity": 0, "duration": 97}, {"note": 63, "velocity": 102, "duration": 75}, {"note": 54, "velocity": 97, "duration": 296}, {"note": 0, "velocity": 0, "duration": 64}, {"note": 54, "velocity": 79, "duration": 78}, {"note": 63, "velocity": 83, "duration": 112}, {"note": 61, "velocity": 90, "duration": 133}, {"note": 0, "velocity": 0, "duration": 107}, {"note": 56, "velocity": 93, "duration": 168}, {"note": 0, "velocity": 0, "duration": 72}, {"note": 54, "velocity": 88, "duration": 1051}, {"note": 0, "velocity": 0, "duration": 749}, {"note": 63, "velocity": 127, "duration": 172}, {"note": 0, "velocity": 0, "duration": 68}, {"note": 68, "velocity": 112, "duration": 52}, {"note": 0, "velocity": 0, "duration": 68}, {"note": 68, "velocity": 122, "duration": 138}, {"note": 0, "velocity": 0, "duration": 102}, {"note": 63, "velocity": 127, "duration": 292}, {"note": 0, "velocity": 0, "duration": 68}, {"note": 63, "velocity": 127, "duration": 222}, {"note": 61, "velocity": 122, "duration": 57}, {"note": 0, "velocity": 0, "duration": 63}, {"note": 61, "velocity": 107, "duration": 160}, {"note": 0, "velocity": 0, "duration": 80}, {"note": 59, "velocity": 102, "duration": 279}, {"note": 0, "velocity": 0, "duration": 81}, {"note": 61, "velocity": 127, "duration": 353}, {"note": 63, "velocity": 112, "duration": 58}, {"note": 63, "velocity": 112, "duration": 558}, {"note": 0, "velocity": 0, "duration": 402}, {"note": 54, "velocity": 99, "duration": 67}, {"note": 66, "velocity": 107, "duration": 139}, {"note": 0, "velocity": 0, "duration": 101}, {"note": 63, "velocity": 122, "duration": 148}, {"note": 61, "velocity": 112, "duration": 70}, {"note": 61, "velocity": 122, "duration": 195}, {"note": 59, "velocity": 93, "duration": 87}, {"note": 56, "velocity": 102, "duration": 467}, {"note": 0, "velocity": 0, "duration": 493}, {"note": 54, "velocity": 99, "duration": 68}, {"note": 66, "velocity": 107, "duration": 141}, {"note": 0, "velocity": 0, "duration": 99}, {"note": 63, "velocity": 112, "duration": 147}, {"note": 0, "velocity": 0, "duration": 93}, {"note": 61, "velocity": 122, "duration": 228}, {"note": 63, "velocity": 102, "duration": 59}, {"note": 0, "velocity": 0, "duration": 61}, {"note": 63, "velocity": 127, "duration": 697}, {"note": 0, "velocity": 0, "duration": 863}, {"note": 68, "velocity": 127, "duration": 399}, {"note": 0, "velocity": 0, "duration": 163}, {"note": 70, "velocity": 127, "duration": 408}, {"note": 67, "velocity": 127, "duration": 480}, {"note": 65, "velocity": 122, "duration": 466}, {"note": 65, "velocity": 112, "duration": 369}, {"note": 0, "velocity": 0, "duration": 111}, {"note": 72, "velocity": 112, "duration": 321}, {"note": 0, "velocity": 0, "duration": 159}, {"note": 70, "velocity": 122, "duration": 319}, {"note": 0, "velocity": 0, "duration": 281}, {"note": 67, "velocity": 127, "duration": 214}, {"note": 65, "velocity": 100, "duration": 110}, {"note": 65, "velocity": 117, "duration": 111}, {"note": 63, "velocity": 122, "duration": 126}, {"note": 0, "velocity": 0, "duration": 114}, {"note": 63, "velocity": 117, "duration": 139}, {"note": 60, "velocity": 99, "duration": 189}, {"note": 58, "velocity": 96, "duration": 243}, {"note": 60, "velocity": 99, "duration": 210}, {"note": 0, "velocity": 0, "duration": 270}, {"note": 60, "velocity": 122, "duration": 119}, {"note": 63, "velocity": 102, "duration": 108}, {"note": 0, "velocity": 0, "duration": 132}, {"note": 65, "velocity": 96, "duration": 65}, {"note": 56, "velocity": 99, "duration": 273}, {"note": 0, "velocity": 0, "duration": 207}, {"note": 60, "velocity": 97, "duration": 112}, {"note": 63, "velocity": 127, "duration": 113}, {"note": 0, "velocity": 0, "duration": 127}, {"note": 65, "velocity": 102, "duration": 75}, {"note": 63, "velocity": 122, "duration": 213}, {"note": 0, "velocity": 0, "duration": 147}, {"note": 63, "velocity": 107, "duration": 69}, {"note": 72, "velocity": 100, "duration": 120}, {"note": 70, "velocity": 122, "duration": 134}, {"note": 0, "velocity": 0, "duration": 106}, {"note": 68, "velocity": 127, "duration": 164}, {"note": 0, "velocity": 0, "duration": 76}, {"note": 72, "velocity": 122, "duration": 360}, {"note": 0, "velocity": 0, "duration": 120}, {"note": 70, "velocity": 100, "duration": 101}, {"note": 72, "velocity": 93, "duration": 99}, {"note": 70, "velocity": 117, "duration": 74}, {"note": 75, "velocity": 122, "duration": 197}, {"note": 73, "velocity": 127, "duration": 170}, {"note": 0, "velocity": 0, "duration": 70}, {"note": 72, "velocity": 107, "duration": 179}, {"note": 0, "velocity": 0, "duration": 61}, {"note": 68, "velocity": 117, "duration": 204}, {"note": 68, "velocity": 127, "duration": 331}, {"note": 0, "velocity": 0, "duration": 149}, {"note": 68, "velocity": 127, "duration": 206}, {"note": 65, "velocity": 93, "duration": 82}, {"note": 67, "velocity": 122, "duration": 407}, {"note": 0, "velocity": 0, "duration": 313}, {"note": 72, "velocity": 99, "duration": 147}, {"note": 0, "velocity": 0, "duration": 93}, {"note": 67, "velocity": 78, "duration": 58}, {"note": 0, "velocity": 0, "duration": 62}, {"note": 67, "velocity": 100, "duration": 77}, {"note": 0, "velocity": 0, "duration": 163}, {"note": 63, "velocity": 83, "duration": 68}, {"note": 63, "velocity": 96, "duration": 167}, {"note": 60, "velocity": 107, "duration": 189}, {"note": 65, "velocity": 102, "duration": 154}, {"note": 0, "velocity": 0, "duration": 86}, {"note": 65, "velocity": 127, "duration": 222}, {"note": 0, "velocity": 0, "duration": 258}, {"note": 60, "velocity": 112, "duration": 118}, {"note": 63, "velocity": 122, "duration": 131}, {"note": 0, "velocity": 0, "duration": 109}, {"note": 65, "velocity": 112, "duration": 96}, {"note": 56, "velocity": 107, "duration": 319}, {"note": 0, "velocity": 0, "duration": 161}, {"note": 60, "velocity": 112, "duration": 112}, {"note": 63, "velocity": 107, "duration": 143}, {"note": 0, "velocity": 0, "duration": 97}, {"note": 65, "velocity": 102, "duration": 75}, {"note": 56, "velocity": 97, "duration": 296}, {"note": 0, "velocity": 0, "duration": 64}, {"note": 56, "velocity": 79, "duration": 78}, {"note": 65, "velocity": 83, "duration": 112}, {"note": 63, "velocity": 90, "duration": 133}, {"note": 0, "velocity": 0, "duration": 107}, {"note": 58, "velocity": 93, "duration": 168}, {"note": 0, "velocity": 0, "duration": 72}, {"note": 56, "velocity": 88, "duration": 1051}, {"note": 0, "velocity": 0, "duration": 749}, {"note": 65, "velocity": 112, "duration": 327}, {"note": 0, "velocity": 0, "duration": 153}, {"note": 72, "velocity": 127, "duration": 331}, {"note": 0, "velocity": 0, "duration": 149}, {"note": 70, "velocity": 122, "duration": 338}, {"note": 0, "velocity": 0, "duration": 262}, {"note": 67, "velocity": 100, "duration": 168}, {"note": 0, "velocity": 0, "duration": 72}, {"note": 65, "velocity": 79, "duration": 62}, {"note": 65, "velocity": 95, "duration": 157}, {"note": 63, "velocity": 85, "duration": 98}, {"note": 0, "velocity": 0, "duration": 142}, {"note": 63, "velocity": 96, "duration": 115}, {"note": 60, "velocity": 97, "duration": 195}, {"note": 65, "velocity": 99, "duration": 217}, {"note": 65, "velocity": 96, "duration": 313}, {"note": 0, "velocity": 0, "duration": 167}, {"note": 60, "velocity": 112, "duration": 130}, {"note": 63, "velocity": 112, "duration": 128}, {"note": 65, "velocity": 92, "duration": 133}, {"note": 56, "velocity": 93, "duration": 209}, {"note": 0, "velocity": 0, "duration": 286}, {"note": 60, "velocity": 102, "duration": 130}, {"note": 0, "velocity": 0, "duration": 61}, {"note": 63, "velocity": 117, "duration": 114}, {"note": 65, "velocity": 99, "duration": 96}, {"note": 56, "velocity": 107, "duration": 389}, {"note": 56, "velocity": 90, "duration": 36}, {"note": 0, "velocity": 0, "duration": 101}, {"note": 65, "velocity": 93, "duration": 108}, {"note": 0, "velocity": 0, "duration": 72}, {"note": 63, "velocity": 107, "duration": 134}, {"note": 0, "velocity": 0, "duration": 144}, {"note": 60, "velocity": 95, "duration": 492}, {"note": 58, "velocity": 107, "duration": 744}, {"note": 0, "velocity": 0, "duration": 186}, {"note": 56, "velocity": 107, "duration": 1789}, {"note": 0, "velocity": 0, "duration": 141}, {"note": 63, "velocity": 100, "duration": 205}, {"note": 61, "velocity": 75, "duration": 112}, {"note": 63, "velocity": 99, "duration": 247}, {"note": 61, "velocity": 97, "duration": 258}, {"note": 56, "velocity": 95, "duration": 357}, {"note": 58, "velocity": 96, "duration": 316}, {"note": 60, "velocity": 82, "duration": 2054}]]