[[{"note": 59, "velocity": 96, "duration": 213}, {"note": 60, "velocity": 97, "duration": 173}, {"note": 0, "velocity": 0, "duration": 67}, {"note": 62, "velocity": 100, "duration": 415}, {"note": 0, "velocity": 0, "duration": 65}, {"note": 62, "velocity": 107, "duration": 169}, {"note": 0, "velocity": 0, "duration": 71}, {"note": 67, "velocity": 112, "duration": 152}, {"note": 0, "velocity": 0, "duration": 88}, {"note": 69, "velocity": 117, "duration": 349}, {"note": 0, "velocity": 0, "duration": 131}, {"note": 67, "velocity": 112, "duration": 162}, {"note": 0, "velocity": 0, "duration": 78}, {"note": 69, "velocity": 107, "duration": 137}, {"note": 0, "velocity": 0, "duration": 103}, {"note": 71, "velocity": 117, "duration": 146}, {"note": 0, "velocity": 0, "duration": 94}, {"note": 72, "velocity": 122, "duration": 147}, {"note": 0, "velocity": 0, "duration": 93}, {"note": 74, "velocity": 122, "duration": 167}, {"note": 0, "velocity": 0, "duration": 73}, {"note": 67, "velocity": 102, "duration": 157}, {"note": 0, "velocity": 0, "duration": 83}, {"note": 69, "velocity": 122, "duration": 312}, {"note": 0, "velocity": 0, "duration": 168}, {"note": 67, "velocity": 107, "duration": 168}, {"note": 0, "velocity": 0, "duration": 72}, {"note": 66, "velocity": 96, "duration": 112}, {"note": 0, "velocity": 0, "duration": 128}, {"note": 64, "velocity": 93, "duration": 321}, {"note": 0, "velocity": 0, "duration": 159}, {"note": 66, "velocity": 122, "duration": 149}, {"note": 0, "velocity": 0, "duration": 91}, {"note": 67, "velocity": 100, "duration": 147}, {"note": 0, "velocity": 0, "duration": 93}, {"note": 62, "velocity": 102, "duration": 246}, {"note": 74, "velocity": 117, "duration": 92}, {"note": 76, "velocity": 93, "duration": 103}, {"note": 74, "velocity": 96, "duration": 125}, {"note": 0, "velocity": 0, "duration": 115}, {"note": 72, "velocity": 107, "duration": 155}, {"note": 0, "velocity": 0, "duration": 85}, {"note": 71, "velocity": 122, "duration": 200}, {"note": 0, "velocity": 0, "duration": 280}, {"note": 72, "velocity": 112, "duration": 190}, {"note": 71, "velocity": 102, "duration": 162}, {"note": 0, "velocity": 0, "duration": 78}, {"note": 69, "velocity": 107, "duration": 270}, {"note": 0, "velocity": 0, "duration": 210}, {"note": 59, "velocity": 95, "duration": 173}, {"note": 0, "velocity": 0, "duration": 67}, {"note": 60, "velocity": 93, "duration": 158}, {"note": 0, "velocity": 0, "duration": 82}, {"note": 62, "velocity": 102, "duration": 326}, {"note": 0, "velocity": 0, "duration": 154}, {"note": 62, "velocity": 102, "duration": 183}, {"note": 67, "velocity": 107, "duration": 193}, {"note": 69, "velocity": 127, "duration": 188}, {"note": 0, "velocity": 0, "duration": 292}, {"note": 67, "velocity": 97, "duration": 157}, {"note": 0, "velocity": 0, "duration": 83}, {"note": 69, "velocity": 117, "duration": 150}, {"note": 0, "velocity": 0, "duration": 90}, {"note": 71, "velocity": 122, "duration": 154}, {"note": 0, "velocity": 0, "duration": 86}, {"note": 72, "velocity": 122, "duration": 171}, {"note": 0, "velocity": 0, "duration": 69}, {"note": 74, "velocity": 127, "duration": 151}, {"note": 0, "velocity": 0, "duration": 89}, {"note": 67, "velocity": 95, "duration": 129}, {"note": 69, "velocity": 93, "duration": 55}, {"note": 0, "velocity": 0, "duration": 65}, {"note": 69, "velocity": 107, "duration": 333}, {"note": 0, "velocity": 0, "duration": 147}, {"note": 67, "velocity": 96, "duration": 208}, {"note": 66, "velocity": 89, "duration": 221}, {"note": 64, "velocity": 95, "duration": 214}, {"note": 0, "velocity": 0, "duration": 266}, {"note": 76, "velocity": 127, "duration": 374}, {"note": 0, "velocity": 0, "duration": 106}, {"note": 74, "velocity": 127, "duration": 194}, {"note": 0, "velocity": 0, "duration": 526}, {"note": 69, "velocity": 97, "duration": 85}, {"note": 71, "velocity": 89, "duration": 57}, {"note": 0, "velocity": 0, "duration": 63}, {"note": 72, "velocity": 102, "duration": 135}, {"note": 0, "velocity": 0, "duration": 225}, {"note": 71, "velocity": 127, "duration": 132}, {"note": 0, "velocity": 0, "duration": 228}, {"note": 69, "velocity": 117, "duration": 196}, {"note": 67, "velocity": 97, "duration": 1121}, {"note": 0, "velocity": 0, "duration": 319}, {"note": 67, "velocity": 99, "duration": 197}, {"note": 69, "velocity": 100, "duration": 133}, {"note": 0, "velocity": 0, "duration": 107}, {"note": 71, "velocity": 107, "duration": 112}, {"note": 69, "velocity": 82, "duration": 71}, {"note": 71, "velocity": 93, "duration": 97}, {"note": 69, "velocity": 89, "duration": 82}, {"note": 71, "velocity": 112, "duration": 160}, {"note": 0, "velocity": 0, "duration": 80}, {"note": 74, "velocity": 122, "duration": 133}, {"note": 0, "velocity": 0, "duration": 107}, {"note": 69, "velocity": 99, "duration": 380}, {"note": 0, "velocity": 0, "duration": 340}, {"note": 69, "velocity": 99, "duration": 96}, {"note": 71, "velocity": 93, "duration": 64}, {"note": 72, "velocity": 102, "duration": 95}, {"note": 71, "velocity": 93, "duration": 68}, {"note": 72, "velocity": 96, "duration": 98}, {"note": 71, "velocity": 89, "duration": 60}, {"note": 72, "velocity": 117, "duration": 123}, {"note": 0, "velocity": 0, "duration": 117}, {"note": 76, "velocity": 127, "duration": 162}, {"note": 0, "velocity": 0, "duration": 78}, {"note": 71, "velocity": 117, "duration": 242}, {"note": 0, "velocity": 0, "duration": 478}, {"note": 71, "velocity": 99, "duration": 81}, {"note": 72, "velocity": 95, "duration": 47}, {"note": 0, "velocity": 0, "duration": 73}, {"note": 74, "velocity": 107, "duration": 57}, {"note": 0, "velocity": 0, "duration": 63}, {"note": 72, "velocity": 107, "duration": 50}, {"note": 0, "velocity": 0, "duration": 70}, {"note": 71, "velocity": 95, "duration": 92}, {"note": 72, "velocity": 102, "duration": 63}, {"note": 74, "velocity": 127, "duration": 200}, {"note": 0, "velocity": 0, "duration": 160}, {"note": 74, "velocity": 122, "duration": 72}, {"note": 72, "velocity": 102, "duration": 89}, {"note": 71, "velocity": 89, "duration": 50}, {"note": 0, "velocity": 0, "duration": 70}, {"note": 69, "velocity": 92, "duration": 70}, {"note": 71, "velocity": 99, "duration": 63}, {"note": 72, "velocity": 107, "duration": 204}, {"note": 0, "velocity": 0, "duration": 156}, {"note": 72, "velocity": 117, "duration": 55}, {"note": 0, "velocity": 0, "duration": 65}, {"note": 71, "velocity": 99, "duration": 73}, {"note": 69, "velocity": 89, "duration": 60}, {"note": 67, "velocity": 88, "duration": 59}, {"note": 0, "velocity": 0, "duration": 61}, {"note": 69, "velocity": 92, "duration": 58}, {"note": 0, "velocity": 0, "duration": 62}, {"note": 71, "velocity": 117, "duration": 156}, {"note": 0, "velocity": 0, "duration": 84}, {"note": 76, "velocity": 122, "duration": 142}, {"note": 0, "velocity": 0, "duration": 98}, {"note": 74, "velocity": 127, "duration": 444}, {"note": 67, "velocity": 99, "duration": 197}, {"note": 69, "velocity": 100, "duration": 133}, {"note": 0, "velocity": 0, "duration": 107}, {"note": 71, "velocity": 107, "duration": 112}, {"note": 69, "velocity": 82, "duration": 71}, {"note": 71, "velocity": 93, "duration": 97}, {"note": 69, "velocity": 89, "duration": 82}, {"note": 71, "velocity": 112, "duration": 160}, {"note": 0, "velocity": 0, "duration": 80}, {"note": 74, "velocity": 122, "duration": 133}, {"note": 0, "velocity": 0, "duration": 107}, {"note": 69, "velocity": 99, "duration": 380}, {"note": 0, "velocity": 0, "duration": 340}, {"note": 69, "velocity": 99, "duration": 96}, {"note": 71, "velocity": 93, "duration": 64}, {"note": 72, "velocity": 102, "duration": 95}, {"note": 71, "velocity": 93, "duration": 68}, {"note": 72, "velocity": 96, "duration": 98}, {"note": 71, "velocity": 89, "duration": 60}, {"note": 72, "velocity": 117, "duration": 123}, {"note": 0, "velocity": 0, "duration": 117}, {"note": 76, "velocity": 127, "duration": 162}, {"note": 0, "velocity": 0, "duration": 78}, {"note": 71, "velocity": 117, "duration": 242}, {"note": 0, "velocity": 0, "duration": 478}, {"note": 71, "velocity": 99, "duration": 81}, {"note": 72, "velocity": 95, "duration": 47}, {"note": 0, "velocity": 0, "duration": 73}, {"note": 74, "velocity": 107, "duration": 57}, {"note": 0, "velocity": 0, "duration": 63}, {"note": 72, "velocity": 107, "duration": 50}, {"note": 0, "velocity": 0, "duration": 70}, {"note": 71, "velocity": 95, "duration": 92}, {"note": 72, "velocity": 102, "duration": 63}, {"note": 74, "velocity": 127, "duration": 200}, {"note": 0, "velocity": 0, "duration": 160}, {"note": 74, "velocity": 122, "duration": 72}, {"note": 72, "velocity": 102, "duration": 89}, {"note": 71, "velocity": 89, "duration": 50}, {"note": 0, "velocity": 0, "duration": 70}, {"note": 69, "velocity": 92, "duration": 70}, {"note": 71, "velocity": 99, "duration": 63}, {"note": 72, "velocity": 107, "duration": 204}, {"note": 0, "velocity": 0, "duration": 156}, {"note": 72, "velocity": 117, "duration": 55}, {"note": 0, "velocity": 0, "duration": 65}, {"note": 71, "velocity": 99, "duration": 73}, {"note": 69, "velocity": 89, "duration": 60}, {"note": 67, "velocity": 88, "duration": 59}, {"note": 0, "velocity": 0, "duration": 61}, {"note": 69, "velocity": 92, "duration": 58}, {"note": 0, "velocity": 0, "duration": 62}, {"note": 71, "velocity": 117, "duration": 156}, {"note": 0, "velocity": 0, "duration": 84}, {"note": 76, "velocity": 122, "duration": 142}, {"note": 0, "velocity": 0, "duration": 98}, {"note": 74, "velocity": 127, "duration": 444}, {"note": 72, "velocity": 127, "duration": 129}, {"note": 71, "velocity": 100, "duration": 120}, {"note": 69, "velocity": 99, "duration": 88}, {"note": 71, "velocity": 122, "duration": 1869}, {"note": 0, "velocity": 0, "duration": 16883}, {"note": 59, "velocity": 96, "duration": 213}, {"note": 60, "velocity": 97, "duration": 173}, {"note": 0, "velocity": 0, "duration": 67}, {"note": 62, "velocity": 100, "duration": 415}, {"note": 0, "velocity": 0, "duration": 65}, {"note": 62, "velocity": 107, "duration": 169}, {"note": 0, "velocity": 0, "duration": 71}, {"note": 67, "velocity": 112, "duration": 152}, {"note": 0, "velocity": 0, "duration": 88}, {"note": 69, "velocity": 117, "duration": 349}, {"note": 0, "velocity": 0, "duration": 131}, {"note": 67, "velocity": 112, "duration": 162}, {"note": 0, "velocity": 0, "duration": 78}, {"note": 69, "velocity": 107, "duration": 137}, {"note": 0, "velocity": 0, "duration": 103}, {"note": 71, "velocity": 117, "duration": 146}, {"note": 0, "velocity": 0, "duration": 94}, {"note": 72, "velocity": 122, "duration": 147}, {"note": 0, "velocity": 0, "duration": 93}, {"note": 74, "velocity": 122, "duration": 167}, {"note": 0, "velocity": 0, "duration": 73}, {"note": 67, "velocity": 102, "duration": 157}, {"note": 0, "velocity": 0, "duration": 83}, {"note": 69, "velocity": 122, "duration": 312}, {"note": 0, "velocity": 0, "duration": 168}, {"note": 67, "velocity": 107, "duration": 168}, {"note": 0, "velocity": 0, "duration": 72}, {"note": 66, "velocity": 96, "duration": 112}, {"note": 0, "velocity": 0, "duration": 128}, {"note": 64, "velocity": 93, "duration": 321}, {"note": 0, "velocity": 0, "duration": 159}, {"note": 66, "velocity": 122, "duration": 149}, {"note": 0, "velocity": 0, "duration": 91}, {"note": 67, "velocity": 100, "duration": 147}, {"note": 0, "velocity": 0, "duration": 93}, {"note": 62, "velocity": 102, "duration": 246}, {"note": 74, "velocity": 117, "duration": 92}, {"note": 76, "velocity": 93, "duration": 103}, {"note": 74, "velocity": 96, "duration": 125}, {"note": 0, "velocity": 0, "duration": 115}, {"note": 72, "velocity": 107, "duration": 155}, {"note": 0, "velocity": 0, "duration": 85}, {"note": 71, "velocity": 122, "duration": 200}, {"note": 0, "velocity": 0, "duration": 280}, {"note": 72, "velocity": 112, "duration": 190}, {"note": 71, "velocity": 102, "duration": 162}, {"note": 0, "velocity": 0, "duration": 78}, {"note": 69, "velocity": 107, "duration": 270}, {"note": 0, "velocity": 0, "duration": 210}, {"note": 59, "velocity": 95, "duration": 173}, {"note": 0, "velocity": 0, "duration": 67}, {"note": 60, "velocity": 93, "duration": 158}, {"note": 0, "velocity": 0, "duration": 82}, {"note": 62, "velocity": 102, "duration": 326}, {"note": 0, "velocity": 0, "duration": 154}, {"note": 62, "velocity": 102, "duration": 183}, {"note": 67, "velocity": 107, "duration": 193}, {"note": 69, "velocity": 127, "duration": 188}, {"note": 0, "velocity": 0, "duration": 292}, {"note": 67, "velocity": 97, "duration": 157}, {"note": 0, "velocity": 0, "duration": 83}, {"note": 69, "velocity": 117, "duration": 150}, {"note": 0, "velocity": 0, "duration": 90}, {"note": 71, "velocity": 122, "duration": 154}, {"note": 0, "velocity": 0, "duration": 86}, {"note": 72, "velocity": 122, "duration": 171}, {"note": 0, "velocity": 0, "duration": 69}, {"note": 74, "velocity": 127, "duration": 151}, {"note": 0, "velocity": 0, "duration": 89}, {"note": 67, "velocity": 95, "duration": 129}, {"note": 69, "velocity": 93, "duration": 55}, {"note": 0, "velocity": 0, "duration": 65}, {"note": 69, "velocity": 107, "duration": 333}, {"note": 0, "velocity": 0, "duration": 147}, {"note": 67, "velocity": 96, "duration": 208}, {"note": 66, "velocity": 89, "duration": 221}, {"note": 64, "velocity": 95, "duration": 214}, {"note": 0, "velocity": 0, "duration": 266}, {"note": 76, "velocity": 127, "duration": 374}, {"note": 0, "velocity": 0, "duration": 106}, {"note": 74, "velocity": 127, "duration": 194}, {"note": 0, "velocity": 0, "duration": 526}, {"note": 69, "velocity": 97, "duration": 85}, {"note": 71, "velocity": 89, "duration": 57}, {"note": 0, "velocity": 0, "duration": 63}, {"note": 72, "velocity": 102, "duration": 135}, {"note": 0, "velocity": 0, "duration": 225}, {"note": 71, "velocity": 127, "duration": 132}, {"note": 0, "velocity": 0, "duration": 228}, {"note": 69, "velocity": 117, "duration": 196}, {"note": 67, "velocity": 97, "duration": 1121}, {"note": 0, "velocity": 0, "duration": 319}, {"note": 67, "velocity": 99, "duration": 197}, {"note": 69, "velocity": 100, "duration": 133}, {"note": 0, "velocity": 0, "duration": 107}, {"note": 71, "velocity": 107, "duration": 112}, {"note": 69, "velocity": 82, "duration": 71}, {"note": 71, "velocity": 93, "duration": 97}, {"note": 69, "velocity": 89, "duration": 82}, {"note": 71, "velocity": 112, "duration": 160}, {"note": 0, "velocity": 0, "duration": 80}, {"note": 74, "velocity": 122, "duration": 133}, {"note": 0, "velocity": 0, "duration": 107}, {"note": 69, "velocity": 99, "duration": 380}, {"note": 0, "velocity": 0, "duration": 340}, {"note": 69, "velocity": 99, "duration": 96}, {"note": 71, "velocity": 93, "duration": 64}, {"note": 72, "velocity": 102, "duration": 95}, {"note": 71, "velocity": 93, "duration": 68}, {"note": 72, "velocity": 96, "duration": 98}, {"note": 71, "velocity": 89, "duration": 60}, {"note": 72, "velocity": 117, "duration": 123}, {"note": 0, "velocity": 0, "duration": 117}, {"note": 76, "velocity": 127, "duration": 162}, {"note": 0, "velocity": 0, "duration": 78}, {"note": 71, "velocity": 117, "duration": 242}, {"note": 0, "velocity": 0, "duration": 478}, {"note": 71, "velocity": 99, "duration": 81}, {"note": 72, "velocity": 95, "duration": 47}, {"note": 0, "velocity": 0, "duration": 73}, {"note": 74, "velocity": 107, "duration": 57}, {"note": 0, "velocity": 0, "duration": 63}, {"note": 72, "velocity": 107, "duration": 50}, {"note": 0, "velocity": 0, "duration": 70}, {"note": 71, "velocity": 95, "duration": 92}, {"note": 72, "velocity": 102, "duration": 63}, {"note": 74, "velocity": 127, "duration": 200}, {"note": 0, "velocity": 0, "duration": 160}, {"note": 74, "velocity": 122, "duration": 72}, {"note": 72, "velocity": 102, "duration": 89}, {"note": 71, "velocity": 89, "duration": 50}, {"note": 0, "velocity": 0, "duration": 70}, {"note": 69, "velocity": 92, "duration": 70}, {"note": 71, "velocity": 99, "duration": 63}, {"note": 72, "velocity": 107, "duration": 204}, {"note": 0, "velocity": 0, "duration": 156}, {"note": 72, "velocity": 117, "duration": 55}, {"note": 0, "velocity": 0, "duration": 65}, {"note": 71, "velocity": 99, "duration": 73}, {"note": 69, "velocity": 89, "duration": 60}, {"note": 67, "velocity": 88, "duration": 59}, {"note": 0, "velocity": 0, "duration": 61}, {"note": 69, "velocity": 92, "duration": 58}, {"note": 0, "velocity": 0, "duration": 62}, {"note": 71, "velocity": 117, "duration": 156}, {"note": 0, "velocity": 0, "duration": 84}, {"note": 76, "velocity": 122, "duration": 142}, {"note": 0, "velocity": 0, "duration": 98}, {"note": 74, "velocity": 127, "duration": 444}, {"note": 67, "velocity": 99, "duration": 197}, {"note": 69, "velocity": 100, "duration": 133}, {"note": 0, "velocity": 0, "duration": 107}, {"note": 71, "velocity": 107, "duration": 112}, {"note": 69, "velocity": 82, "duration": 71}, {"note": 71, "velocity": 93, "duration": 97}, {"note": 69, "velocity": 89, "duration": 82}, {"note": 71, "velocity": 112, "duration": 160}, {"note": 0, "velocity": 0, "duration": 80}, {"note": 74, "velocity": 122, "duration": 133}, {"note": 0, "velocity": 0, "duration": 107}, {"note": 69, "velocity": 99, "duration": 380}, {"note": 0, "velocity": 0, "duration": 340}, {"note": 69, "velocity": 99, "duration": 96}, {"note": 71, "velocity": 93, "duration": 64}, {"note": 72, "velocity": 102, "duration": 95}, {"note": 71, "velocity": 93, "duration": 68}, {"note": 72, "velocity": 96, "duration": 98}, {"note": 71, "velocity": 89, "duration": 60}, {"note": 72, "velocity": 117, "duration": 123}, {"note": 0, "velocity": 0, "duration": 117}, {"note": 76, "velocity": 127, "duration": 162}, {"note": 0, "velocity": 0, "duration": 78}, {"note": 71, "velocity": 117, "duration": 242}, {"note": 0, "velocity": 0, "duration": 478}, {"note": 71, "velocity": 99, "duration": 81}, {"note": 72, "velocity": 95, "duration": 47}, {"note": 0, "velocity": 0, "duration": 73}, {"note": 74, "velocity": 107, "duration": 57}, {"note": 0, "velocity": 0, "duration": 63}, {"note": 72, "velocity": 107, "duration": 50}, {"note": 0, "velocity": 0, "duration": 70}, {"note": 71, "velocity": 95, "duration": 92}, {"note": 72, "velocity": 102, "duration": 63}, {"note": 74, "velocity": 127, "duration": 200}, {"note": 0, "velocity": 0, "duration": 160}, {"note": 74, "velocity": 122, "duration": 72}, {"note": 72, "velocity": 102, "duration": 89}, {"note": 71, "velocity": 89, "duration": 50}, {"note": 0, "velocity": 0, "duration": 70}, {"note": 69, "velocity": 92, "duration": 70}, {"note": 71, "velocity": 99, "duration": 63}, {"note": 72, "velocity": 107, "duration": 204}, {"note": 0, "velocity": 0, "duration": 156}, {"note": 72, "velocity": 117, "duration": 55}, {"note": 0, "velocity": 0, "duration": 65}, {"note": 71, "velocity": 99, "duration": 73}, {"note": 69, "velocity": 89, "duration": 60}, {"note": 67, "velocity": 88, "duration": 59}, {"note": 0, "velocity": 0, "duration": 61}, {"note": 69, "velocity": 92, "duration": 58}, {"note": 0, "velocity": 0, "duration": 62}, {"note": 71, "velocity": 117, "duration": 156}, {"note": 0, "velocity": 0, "duration": 84}, {"note": 76, "velocity": 122, "duration": 142}, {"note": 0, "velocity": 0, "duration": 98}, {"note": 74, "velocity": 127, "duration": 444}, {"note": 72, "velocity": 127, "duration": 129}, {"note": 71, "velocity": 100, "duration": 120}, {"note": 69, "velocity": 99, "duration": 88}, {"note": 71, "velocity": 122, "duration": 1869}, {"note": 0, "velocity": 0, "duration": 2003}, {"note": 73, "velocity": 107, "duration": 112}, {"note": 71, "velocity": 82, "duration": 71}, {"note": 73, "velocity": 93, "duration": 97}, {"note": 71, "velocity": 89, "duration": 82}, {"note": 73, "velocity": 112, "duration": 160}, {"note": 0, "velocity": 0, "duration": 80}, {"note": 76, "velocity": 122, "duration": 133}, {"note": 0, "velocity": 0, "duration": 107}, {"note": 71, "velocity": 99, "duration": 380}, {"note": 0, "velocity": 0, "duration": 340}, {"note": 71, "velocity": 99, "duration": 96}, {"note": 73, "velocity": 93, "duration": 64}, {"note": 74, "velocity": 102, "duration": 95}, {"note": 73, "velocity": 93, "duration": 68}, {"note": 74, "velocity": 96, "duration": 98}, {"note": 73, "velocity": 89, "duration": 60}, {"note": 74, "velocity": 117, "duration": 123}, {"note": 0, "velocity": 0, "duration": 117}, {"note": 78, "velocity": 127, "duration": 162}, {"note": 0, "velocity": 0, "duration": 78}, {"note": 73, "velocity": 117, "duration": 242}, {"note": 0, "velocity": 0, "duration": 478}, {"note": 73, "velocity": 99, "duration": 81}, {"note": 74, "velocity": 95, "duration": 47}, {"note": 0, "velocity": 0, "duration": 73}, {"note": 76, "velocity": 107, "duration": 57}, {"note": 0, "velocity": 0, "duration": 63}, {"note": 74, "velocity": 107, "duration": 50}, {"note": 0, "velocity": 0, "duration": 70}, {"note": 73, "velocity": 95, "duration": 92}, {"note": 74, "velocity": 102, "duration": 63}, {"note": 76, "velocity": 127, "duration": 200}, {"note": 0, "velocity": 0, "duration": 160}, {"note": 76, "velocity": 122, "duration": 72}, {"note": 74, "velocity": 102, "duration": 89}, {"note": 73, "velocity": 89, "duration": 50}, {"note": 0, "velocity": 0, "duration": 70}, {"note": 71, "velocity": 92, "duration": 70}, {"note": 73, "velocity": 99, "duration": 63}, {"note": 74, "velocity": 107, "duration": 204}, {"note": 0, "velocity": 0, "duration": 156}, {"note": 74, "velocity": 117, "duration": 55}, {"note": 0, "velocity": 0, "duration": 65}, {"note": 73, "velocity": 99, "duration": 73}, {"note": 71, "velocity": 89, "duration": 60}, {"note": 69, "velocity": 88, "duration": 59}, {"note": 0, "velocity": 0, "duration": 61}, {"note": 71, "velocity": 92, "duration": 58}, {"note": 0, "velocity": 0, "duration": 62}, {"note": 73, "velocity": 117, "duration": 156}, {"note": 0, "velocity": 0, "duration": 84}, {"note": 78, "velocity": 122, "duration": 142}, {"note": 0, "velocity": 0, "duration": 98}, {"note": 76, "velocity": 127, "duration": 444}, {"note": 69, "velocity": 99, "duration": 197}, {"note": 71, "velocity": 100, "duration": 133}, {"note": 0, "velocity": 0, "duration": 107}, {"note": 73, "velocity": 107, "duration": 112}, {"note": 71, "velocity": 82, "duration": 71}, {"note": 73, "velocity": 93, "duration": 97}, {"note": 71, "velocity": 89, "duration": 82}, {"note": 73, "velocity": 112, "duration": 160}, {"note": 0, "velocity": 0, "duration": 80}, {"note": 76, "velocity": 122, "duration": 133}, {"note": 0, "velocity": 0, "duration": 107}, {"note": 71, "velocity": 99, "duration": 380}, {"note": 0, "velocity": 0, "duration": 340}, {"note": 71, "velocity": 99, "duration": 96}, {"note": 73, "velocity": 93, "duration": 64}, {"note": 74, "velocity": 102, "duration": 95}, {"note": 73, "velocity": 93, "duration": 68}, {"note": 74, "velocity": 96, "duration": 98}, {"note": 73, "velocity": 89, "duration": 60}, {"note": 74, "velocity": 117, "duration": 123}, {"note": 0, "velocity": 0, "duration": 117}, {"note": 78, "velocity": 127, "duration": 162}, {"note": 0, "velocity": 0, "duration": 78}, {"note": 73, "velocity": 117, "duration": 242}, {"note": 0, "velocity": 0, "duration": 478}, {"note": 73, "velocity": 99, "duration": 81}, {"note": 74, "velocity": 95, "duration": 47}, {"note": 0, "velocity": 0, "duration": 73}, {"note": 76, "velocity": 107, "duration": 57}, {"note": 0, "velocity": 0, "duration": 63}, {"note": 74, "velocity": 107, "duration": 50}, {"note": 0, "velocity": 0, "duration": 70}, {"note": 73, "velocity": 95, "duration": 92}, {"note": 74, "velocity": 102, "duration": 63}, {"note": 76, "velocity": 127, "duration": 200}, {"note": 0, "velocity": 0, "duration": 160}, {"note": 76, "velocity": 122, "duration": 72}, {"note": 74, "velocity": 102, "duration": 89}, {"note": 73, "velocity": 89, "duration": 50}, {"note": 0, "velocity": 0, "duration": 70}, {"note": 71, "velocity": 92, "duration": 70}, {"note": 73, "velocity": 99, "duration": 63}, {"note": 74, "velocity": 107, "duration": 204}, {"note": 0, "velocity": 0, "duration": 156}, {"note": 74, "velocity": 117, "duration": 55}, {"note": 0, "velocity": 0, "duration": 65}, {"note": 73, "velocity": 99, "duration": 73}, {"note": 71, "velocity": 89, "duration": 60}, {"note": 69, "velocity": 88, "duration": 59}, {"note": 0, "velocity": 0, "duration": 61}, {"note": 71, "velocity": 92, "duration": 58}, {"note": 0, "velocity": 0, "duration": 62}, {"note": 73, "velocity": 117, "duration": 156}, {"note": 0, "velocity": 0, "duration": 84}, {"note": 78, "velocity": 122, "duration": 142}, {"note": 0, "velocity": 0, "duration": 98}, {"note": 76, "velocity": 127, "duration": 444}, {"note": 69, "velocity": 122, "duration": 230}, {"note": 71, "velocity": 122, "duration": 201}, {"note": 73, "velocity": 107, "duration": 112}, {"note": 71, "velocity": 82, "duration": 71}, {"note": 73, "velocity": 93, "duration": 97}, {"note": 71, "velocity": 89, "duration": 82}, {"note": 73, "velocity": 112, "duration": 160}, {"note": 0, "velocity": 0, "duration": 80}, {"note": 76, "velocity": 122, "duration": 133}, {"note": 0, "velocity": 0, "duration": 107}, {"note": 71, "velocity": 99, "duration": 380}, {"note": 0, "velocity": 0, "duration": 340}, {"note": 71, "velocity": 99, "duration": 96}, {"note": 73, "velocity": 93, "duration": 64}, {"note": 74, "velocity": 102, "duration": 95}, {"note": 73, "velocity": 93, "duration": 68}, {"note": 74, "velocity": 96, "duration": 98}, {"note": 73, "velocity": 89, "duration": 60}, {"note": 74, "velocity": 117, "duration": 123}, {"note": 0, "velocity": 0, "duration": 117}, {"note": 78, "velocity": 127, "duration": 162}, {"note": 0, "velocity": 0, "duration": 78}, {"note": 73, "velocity": 117, "duration": 242}, {"note": 0, "velocity": 0, "duration": 478}, {"note": 73, "velocity": 99, "duration": 81}, {"note": 74, "velocity": 95, "duration": 47}, {"note": 0, "velocity": 0, "duration": 73}, {"note": 76, "velocity": 107, "duration": 57}, {"note": 0, "velocity": 0, "duration": 63}, {"note": 74, "velocity": 107, "duration": 50}, {"note": 0, "velocity": 0, "duration": 70}, {"note": 73, "velocity": 95, "duration": 92}, {"note": 74, "velocity": 102, "duration": 63}, {"note": 76, "velocity": 127, "duration": 200}, {"note": 0, "velocity": 0, "duration": 160}, {"note": 76, "velocity": 122, "duration": 72}, {"note": 74, "velocity": 102, "duration": 89}, {"note": 73, "velocity": 89, "duration": 50}, {"note": 0, "velocity": 0, "duration": 70}, {"note": 71, "velocity": 92, "duration": 70}, {"note": 73, "velocity": 99, "duration": 63}, {"note": 74, "velocity": 107, "duration": 204}, {"note": 0, "velocity": 0, "duration": 156}, {"note": 74, "velocity": 117, "duration": 55}, {"note": 0, "velocity": 0, "duration": 65}, {"note": 73, "velocity": 99, "duration": 73}, {"note": 71, "velocity": 89, "duration": 60}, {"note": 69, "velocity": 88, "duration": 59}, {"note": 0, "velocity": 0, "duration": 61}, {"note": 71, "velocity": 92, "duration": 58}, {"note": 0, "velocity": 0, "duration": 62}, {"note": 73, "velocity": 117, "duration": 156}, {"note": 0, "velocity": 0, "duration": 84}, {"note": 78, "velocity": 122, "duration": 142}, {"note": 0, "velocity": 0, "duration": 98}, {"note": 76, "velocity": 127, "duration": 444}, {"note": 69, "velocity": 99, "duration": 197}, {"note": 71, "velocity": 100, "duration": 133}, {"note": 0, "velocity": 0, "duration": 107}, {"note": 73, "velocity": 107, "duration": 112}, {"note": 71, "velocity": 82, "duration": 71}, {"note": 73, "velocity": 93, "duration": 97}, {"note": 71, "velocity": 89, "duration": 82}, {"note": 73, "velocity": 112, "duration": 160}, {"note": 0, "velocity": 0, "duration": 80}, {"note": 76, "velocity": 122, "duration": 133}, {"note": 0, "velocity": 0, "duration": 107}, {"note": 71, "velocity": 99, "duration": 380}, {"note": 0, "velocity": 0, "duration": 340}, {"note": 71, "velocity": 99, "duration": 96}, {"note": 73, "velocity": 93, "duration": 64}, {"note": 74, "velocity": 102, "duration": 95}, {"note": 73, "velocity": 93, "duration": 68}, {"note": 74, "velocity": 96, "duration": 98}, {"note": 73, "velocity": 89, "duration": 60}, {"note": 74, "velocity": 117, "duration": 123}, {"note": 0, "velocity": 0, "duration": 117}, {"note": 78, "velocity": 127, "duration": 162}, {"note": 0, "velocity": 0, "duration": 78}, {"note": 73, "velocity": 117, "duration": 242}, {"note": 0, "velocity": 0, "duration": 478}, {"note": 73, "velocity": 99, "duration": 81}, {"note": 74, "velocity": 95, "duration": 47}, {"note": 0, "velocity": 0, "duration": 73}, {"note": 76, "velocity": 107, "duration": 57}, {"note": 0, "velocity": 0, "duration": 63}, {"note": 74, "velocity": 107, "duration": 50}, {"note": 0, "velocity": 0, "duration": 70}, {"note": 73, "velocity": 95, "duration": 92}, {"note": 74, "velocity": 102, "duration": 63}, {"note": 76, "velocity": 127, "duration": 200}, {"note": 0, "velocity": 0, "duration": 160}, {"note": 76, "velocity": 122, "duration": 72}, {"note": 74, "velocity": 102, "duration": 89}, {"note": 73, "velocity": 89, "duration": 50}, {"note": 0, "velocity": 0, "duration": 70}, {"note": 71, "velocity": 92, "duration": 70}, {"note": 73, "velocity": 99, "duration": 63}, {"note": 74, "velocity": 107, "duration": 204}, {"note": 0, "velocity": 0, "duration": 156}, {"note": 74, "velocity": 117, "duration": 55}, {"note": 0, "velocity": 0, "duration": 65}, {"note": 73, "velocity": 99, "duration": 73}, {"note": 71, "velocity": 89, "duration": 60}, {"note": 69, "velocity": 88, "duration": 59}, {"note": 0, "velocity": 0, "duration": 61}, {"note": 71, "velocity": 92, "duration": 58}, {"note": 0, "velocity": 0, "duration": 62}, {"note": 73, "velocity": 117, "duration": 156}, {"note": 0, "velocity": 0, "duration": 84}, {"note": 78, "velocity": 122, "duration": 142}, {"note": 0, "velocity": 0, "duration": 98}, {"note": 76, "velocity": 127, "duration": 304}, {"note": 0, "velocity": 0, "duration": 176}, {"note": 69, "velocity": 122, "duration": 183}, {"note": 71, "velocity": 127, "duration": 274}, {"note": 73, "velocity": 107, "duration": 112}, {"note": 71, "velocity": 82, "duration": 71}, {"note": 73, "velocity": 93, "duration": 97}, {"note": 71, "velocity": 89, "duration": 82}, {"note": 73, "velocity": 112, "duration": 160}, {"note": 0, "velocity": 0, "duration": 80}, {"note": 76, "velocity": 122, "duration": 133}, {"note": 0, "velocity": 0, "duration": 107}, {"note": 71, "velocity": 99, "duration": 380}, {"note": 0, "velocity": 0, "duration": 340}, {"note": 71, "velocity": 99, "duration": 96}, {"note": 73, "velocity": 93, "duration": 64}, {"note": 74, "velocity": 102, "duration": 95}, {"note": 73, "velocity": 93, "duration": 68}, {"note": 74, "velocity": 96, "duration": 98}, {"note": 73, "velocity": 89, "duration": 60}, {"note": 74, "velocity": 117, "duration": 123}, {"note": 0, "velocity": 0, "duration": 117}, {"note": 78, "velocity": 127, "duration": 162}, {"note": 0, "velocity": 0, "duration": 78}, {"note": 73, "velocity": 117, "duration": 242}, {"note": 0, "velocity": 0, "duration": 478}, {"note": 73, "velocity": 99, "duration": 81}, {"note": 74, "velocity": 95, "duration": 47}, {"note": 0, "velocity": 0, "duration": 73}, {"note": 76, "velocity": 107, "duration": 57}, {"note": 0, "velocity": 0, "duration": 63}, {"note": 74, "velocity": 107, "duration": 50}, {"note": 0, "velocity": 0, "duration": 70}, {"note": 73, "velocity": 95, "duration": 92}, {"note": 74, "velocity": 102, "duration": 63}, {"note": 76, "velocity": 127, "duration": 200}, {"note": 0, "velocity": 0, "duration": 160}, {"note": 76, "velocity": 122, "duration": 72}, {"note": 74, "velocity": 102, "duration": 89}, {"note": 73, "velocity": 89, "duration": 50}, {"note": 0, "velocity": 0, "duration": 70}, {"note": 71, "velocity": 92, "duration": 70}, {"note": 73, "velocity": 99, "duration": 63}, {"note": 74, "velocity": 107, "duration": 204}, {"note": 0, "velocity": 0, "duration": 156}, {"note": 74, "velocity": 117, "duration": 55}, {"note": 0, "velocity": 0, "duration": 65}, {"note": 73, "velocity": 99, "duration": 73}, {"note": 71, "velocity": 89, "duration": 60}, {"note": 69, "velocity": 88, "duration": 59}, {"note": 0, "velocity": 0, "duration": 61}, {"note": 71, "velocity": 92, "duration": 58}, {"note": 0, "velocity": 0, "duration": 62}, {"note": 73, "velocity": 117, "duration": 156}, {"note": 0, "velocity": 0, "duration": 84}, {"note": 78, "velocity": 122, "duration": 142}, {"note": 0, "velocity": 0, "duration": 98}, {"note": 76, "velocity": 127, "duration": 444}, {"note": 69, "velocity": 99, "duration": 197}, {"note": 71, "velocity": 100, "duration": 133}, {"note": 0, "velocity": 0, "duration": 107}, {"note": 73, "velocity": 107, "duration": 112}, {"note": 71, "velocity": 82, "duration": 71}, {"note": 73, "velocity": 93, "duration": 97}, {"note": 71, "velocity": 89, "duration": 82}, {"note": 73, "velocity": 112, "duration": 160}, {"note": 0, "velocity": 0, "duration": 80}, {"note": 76, "velocity": 122, "duration": 133}, {"note": 0, "velocity": 0, "duration": 107}, {"note": 71, "velocity": 99, "duration": 380}, {"note": 0, "velocity": 0, "duration": 340}, {"note": 71, "velocity": 99, "duration": 96}, {"note": 73, "velocity": 93, "duration": 64}, {"note": 74, "velocity": 102, "duration": 95}, {"note": 73, "velocity": 93, "duration": 68}, {"note": 74, "velocity": 120, "duration": 98}, {"note": 73, "velocity": 119, "duration": 60}, {"note": 74, "velocity": 116, "duration": 123}, {"note": 0, "velocity": 0, "duration": 117}, {"note": 78, "velocity": 116, "duration": 162}, {"note": 0, "velocity": 0, "duration": 78}, {"note": 73, "velocity": 113, "duration": 242}, {"note": 0, "velocity": 0, "duration": 478}, {"note": 73, "velocity": 113, "duration": 81}, {"note": 74, "velocity": 113, "duration": 47}, {"note": 0, "velocity": 0, "duration": 73}, {"note": 76, "velocity": 113, "duration": 57}, {"note": 0, "velocity": 0, "duration": 63}, {"note": 74, "velocity": 111, "duration": 50}, {"note": 0, "velocity": 0, "duration": 70}, {"note": 73, "velocity": 111, "duration": 92}, {"note": 74, "velocity": 112, "duration": 63}, {"note": 76, "velocity": 111, "duration": 200}, {"note": 0, "velocity": 0, "duration": 160}, {"note": 76, "velocity": 110, "duration": 72}, {"note": 74, "velocity": 110, "duration": 89}, {"note": 73, "velocity": 110, "duration": 50}, {"note": 0, "velocity": 0, "duration": 70}, {"note": 71, "velocity": 109, "duration": 70}, {"note": 73, "velocity": 109, "duration": 63}, {"note": 74, "velocity": 108, "duration": 204}, {"note": 0, "velocity": 0, "duration": 156}, {"note": 74, "velocity": 108, "duration": 55}, {"note": 0, "velocity": 0, "duration": 65}, {"note": 73, "velocity": 107, "duration": 73}, {"note": 71, "velocity": 106, "duration": 60}, {"note": 69, "velocity": 106, "duration": 59}, {"note": 0, "velocity": 0, "duration": 61}, {"note": 71, "velocity": 100, "duration": 58}, {"note": 0, "velocity": 0, "duration": 62}, {"note": 73, "velocity": 100, "duration": 156}, {"note": 0, "velocity": 0, "duration": 84}, {"note": 78, "velocity": 100, "duration": 142}, {"note": 0, "velocity": 0, "duration": 98}, {"note": 76, "velocity": 100, "duration": 304}, {"note": 0, "velocity": 0, "duration": 176}, {"note": 69, "velocity": 101, "duration": 181}, {"note": 71, "velocity": 101, "duration": 252}, {"note": 73, "velocity": 101, "duration": 112}, {"note": 71, "velocity": 101, "duration": 71}, {"note": 73, "velocity": 101, "duration": 97}, {"note": 71, "velocity": 101, "duration": 82}, {"note": 73, "velocity": 101, "duration": 160}, {"note": 0, "velocity": 0, "duration": 80}, {"note": 76, "velocity": 101, "duration": 133}, {"note": 0, "velocity": 0, "duration": 107}, {"note": 71, "velocity": 102, "duration": 380}, {"note": 0, "velocity": 0, "duration": 340}, {"note": 71, "velocity": 103, "duration": 96}, {"note": 73, "velocity": 103, "duration": 64}, {"note": 74, "velocity": 103, "duration": 95}, {"note": 73, "velocity": 103, "duration": 68}, {"note": 74, "velocity": 103, "duration": 98}, {"note": 73, "velocity": 103, "duration": 60}, {"note": 74, "velocity": 104, "duration": 123}, {"note": 0, "velocity": 0, "duration": 117}, {"note": 78, "velocity": 104, "duration": 162}, {"note": 0, "velocity": 0, "duration": 78}, {"note": 73, "velocity": 104, "duration": 242}, {"note": 0, "velocity": 0, "duration": 478}, {"note": 73, "velocity": 106, "duration": 81}, {"note": 74, "velocity": 106, "duration": 47}, {"note": 0, "velocity": 0, "duration": 73}, {"note": 76, "velocity": 106, "duration": 57}, {"note": 0, "velocity": 0, "duration": 63}, {"note": 74, "velocity": 107, "duration": 50}, {"note": 0, "velocity": 0, "duration": 70}, {"note": 73, "velocity": 107, "duration": 92}, {"note": 74, "velocity": 107, "duration": 63}, {"note": 76, "velocity": 109, "duration": 200}, {"note": 0, "velocity": 0, "duration": 160}, {"note": 76, "velocity": 109, "duration": 72}, {"note": 74, "velocity": 109, "duration": 89}, {"note": 73, "velocity": 109, "duration": 50}, {"note": 0, "velocity": 0, "duration": 70}, {"note": 71, "velocity": 109, "duration": 70}, {"note": 73, "velocity": 109, "duration": 63}, {"note": 74, "velocity": 109, "duration": 204}, {"note": 0, "velocity": 0, "duration": 156}, {"note": 74, "velocity": 111, "duration": 55}, {"note": 0, "velocity": 0, "duration": 65}, {"note": 73, "velocity": 111, "duration": 73}, {"note": 71, "velocity": 111, "duration": 60}, {"note": 69, "velocity": 111, "duration": 59}, {"note": 0, "velocity": 0, "duration": 61}, {"note": 71, "velocity": 112, "duration": 58}, {"note": 0, "velocity": 0, "duration": 62}, {"note": 73, "velocity": 112, "duration": 156}, {"note": 0, "velocity": 0, "duration": 84}, {"note": 78, "velocity": 113, "duration": 142}, {"note": 0, "velocity": 0, "duration": 98}, {"note": 76, "velocity": 114, "duration": 444}, {"note": 69, "velocity": 116, "duration": 197}, {"note": 71, "velocity": 116, "duration": 133}, {"note": 0, "velocity": 0, "duration": 107}, {"note": 73, "velocity": 116, "duration": 112}, {"note": 71, "velocity": 116, "duration": 71}, {"note": 73, "velocity": 116, "duration": 97}, {"note": 71, "velocity": 116, "duration": 82}, {"note": 73, "velocity": 103, "duration": 160}, {"note": 0, "velocity": 0, "duration": 80}, {"note": 76, "velocity": 101, "duration": 133}, {"note": 0, "velocity": 0, "duration": 107}, {"note": 71, "velocity": 92, "duration": 380}, {"note": 0, "velocity": 0, "duration": 340}, {"note": 71, "velocity": 92, "duration": 96}, {"note": 73, "velocity": 89, "duration": 64}, {"note": 74, "velocity": 86, "duration": 95}, {"note": 73, "velocity": 86, "duration": 68}, {"note": 74, "velocity": 86, "duration": 98}, {"note": 73, "velocity": 83, "duration": 60}, {"note": 74, "velocity": 83, "duration": 123}, {"note": 0, "velocity": 0, "duration": 117}, {"note": 78, "velocity": 80, "duration": 162}, {"note": 0, "velocity": 0, "duration": 78}, {"note": 73, "velocity": 73, "duration": 242}, {"note": 0, "velocity": 0, "duration": 478}, {"note": 73, "velocity": 73, "duration": 81}, {"note": 74, "velocity": 70, "duration": 47}, {"note": 0, "velocity": 0, "duration": 73}, {"note": 76, "velocity": 70, "duration": 57}, {"note": 0, "velocity": 0, "duration": 63}, {"note": 74, "velocity": 69, "duration": 50}, {"note": 0, "velocity": 0, "duration": 70}, {"note": 73, "velocity": 69, "duration": 92}, {"note": 74, "velocity": 67, "duration": 63}, {"note": 76, "velocity": 63, "duration": 200}, {"note": 0, "velocity": 0, "duration": 160}, {"note": 76, "velocity": 45, "duration": 72}]]