[[{"note": 70, "velocity": 127, "duration": 233}, {"note": 72, "velocity": 96, "duration": 150}, {"note": 0, "velocity": 0, "duration": 90}, {"note": 72, "velocity": 127, "duration": 381}, {"note": 0, "velocity": 0, "duration": 99}, {"note": 70, "velocity": 127, "duration": 1547}, {"note": 0, "velocity": 0, "duration": 5173}, {"note": 68, "velocity": 127, "duration": 356}, {"note": 0, "velocity": 0, "duration": 124}, {"note": 70, "velocity": 127, "duration": 1923}, {"note": 75, "velocity": 127, "duration": 378}, {"note": 72, "velocity": 112, "duration": 421}, {"note": 70, "velocity": 122, "duration": 1191}, {"note": 0, "velocity": 0, "duration": 249}, {"note": 58, "velocity": 122, "duration": 150}, {"note": 0, "velocity": 0, "duration": 90}, {"note": 65, "velocity": 112, "duration": 309}, {"note": 67, "velocity": 127, "duration": 285}, {"note": 0, "velocity": 0, "duration": 195}, {"note": 67, "velocity": 127, "duration": 240}, {"note": 0, "velocity": 0, "duration": 240}, {"note": 65, "velocity": 96, "duration": 91}, {"note": 0, "velocity": 0, "duration": 149}, {"note": 65, "velocity": 100, "duration": 102}, {"note": 0, "velocity": 0, "duration": 138}, {"note": 65, "velocity": 100, "duration": 87}, {"note": 0, "velocity": 0, "duration": 153}, {"note": 65, "velocity": 102, "duration": 126}, {"note": 0, "velocity": 0, "duration": 114}, {"note": 63, "velocity": 112, "duration": 273}, {"note": 0, "velocity": 0, "duration": 207}, {"note": 67, "velocity": 117, "duration": 659}, {"note": 0, "velocity": 0, "duration": 301}, {"note": 62, "velocity": 127, "duration": 318}, {"note": 0, "velocity": 0, "duration": 162}, {"note": 62, "velocity": 117, "duration": 76}, {"note": 0, "velocity": 0, "duration": 164}, {"note": 62, "velocity": 102, "duration": 80}, {"note": 0, "velocity": 0, "duration": 160}, {"note": 62, "velocity": 97, "duration": 65}, {"note": 0, "velocity": 0, "duration": 175}, {"note": 62, "velocity": 112, "duration": 204}, {"note": 60, "velocity": 86, "duration": 214}, {"note": 62, "velocity": 102, "duration": 118}, {"note": 0, "velocity": 0, "duration": 122}, {"note": 63, "velocity": 117, "duration": 597}, {"note": 0, "velocity": 0, "duration": 1323}, {"note": 60, "velocity": 97, "duration": 177}, {"note": 0, "velocity": 0, "duration": 63}, {"note": 67, "velocity": 127, "duration": 244}, {"note": 68, "velocity": 122, "duration": 274}, {"note": 0, "velocity": 0, "duration": 206}, {"note": 68, "velocity": 127, "duration": 376}, {"note": 0, "velocity": 0, "duration": 104}, {"note": 67, "velocity": 107, "duration": 119}, {"note": 0, "velocity": 0, "duration": 121}, {"note": 67, "velocity": 102, "duration": 113}, {"note": 0, "velocity": 0, "duration": 127}, {"note": 67, "velocity": 117, "duration": 109}, {"note": 0, "velocity": 0, "duration": 131}, {"note": 67, "velocity": 127, "duration": 162}, {"note": 0, "velocity": 0, "duration": 78}, {"note": 65, "velocity": 112, "duration": 135}, {"note": 0, "velocity": 0, "duration": 105}, {"note": 67, "velocity": 112, "duration": 105}, {"note": 0, "velocity": 0, "duration": 135}, {"note": 68, "velocity": 127, "duration": 335}, {"note": 0, "velocity": 0, "duration": 385}, {"note": 60, "velocity": 107, "duration": 184}, {"note": 62, "velocity": 99, "duration": 166}, {"note": 0, "velocity": 0, "duration": 74}, {"note": 63, "velocity": 117, "duration": 307}, {"note": 0, "velocity": 0, "duration": 173}, {"note": 63, "velocity": 127, "duration": 312}, {"note": 0, "velocity": 0, "duration": 168}, {"note": 63, "velocity": 127, "duration": 203}, {"note": 62, "velocity": 92, "duration": 201}, {"note": 63, "velocity": 112, "duration": 139}, {"note": 0, "velocity": 0, "duration": 101}, {"note": 65, "velocity": 117, "duration": 1166}, {"note": 0, "velocity": 0, "duration": 754}, {"note": 58, "velocity": 122, "duration": 150}, {"note": 0, "velocity": 0, "duration": 90}, {"note": 65, "velocity": 112, "duration": 309}, {"note": 67, "velocity": 127, "duration": 285}, {"note": 0, "velocity": 0, "duration": 195}, {"note": 67, "velocity": 127, "duration": 240}, {"note": 0, "velocity": 0, "duration": 240}, {"note": 65, "velocity": 96, "duration": 91}, {"note": 0, "velocity": 0, "duration": 149}, {"note": 65, "velocity": 100, "duration": 102}, {"note": 0, "velocity": 0, "duration": 138}, {"note": 65, "velocity": 100, "duration": 87}, {"note": 0, "velocity": 0, "duration": 153}, {"note": 65, "velocity": 102, "duration": 126}, {"note": 0, "velocity": 0, "duration": 114}, {"note": 63, "velocity": 112, "duration": 273}, {"note": 0, "velocity": 0, "duration": 207}, {"note": 67, "velocity": 117, "duration": 659}, {"note": 0, "velocity": 0, "duration": 301}, {"note": 62, "velocity": 127, "duration": 318}, {"note": 0, "velocity": 0, "duration": 162}, {"note": 62, "velocity": 117, "duration": 76}, {"note": 0, "velocity": 0, "duration": 164}, {"note": 62, "velocity": 102, "duration": 80}, {"note": 0, "velocity": 0, "duration": 160}, {"note": 62, "velocity": 97, "duration": 65}, {"note": 0, "velocity": 0, "duration": 175}, {"note": 62, "velocity": 112, "duration": 204}, {"note": 60, "velocity": 86, "duration": 214}, {"note": 62, "velocity": 102, "duration": 118}, {"note": 0, "velocity": 0, "duration": 122}, {"note": 63, "velocity": 117, "duration": 597}, {"note": 0, "velocity": 0, "duration": 1323}, {"note": 60, "velocity": 97, "duration": 177}, {"note": 0, "velocity": 0, "duration": 63}, {"note": 67, "velocity": 127, "duration": 244}, {"note": 68, "velocity": 122, "duration": 274}, {"note": 0, "velocity": 0, "duration": 206}, {"note": 68, "velocity": 127, "duration": 376}, {"note": 0, "velocity": 0, "duration": 104}, {"note": 67, "velocity": 107, "duration": 119}, {"note": 0, "velocity": 0, "duration": 121}, {"note": 67, "velocity": 102, "duration": 113}, {"note": 0, "velocity": 0, "duration": 127}, {"note": 67, "velocity": 117, "duration": 109}, {"note": 0, "velocity": 0, "duration": 131}, {"note": 67, "velocity": 127, "duration": 162}, {"note": 0, "velocity": 0, "duration": 78}, {"note": 65, "velocity": 112, "duration": 135}, {"note": 0, "velocity": 0, "duration": 105}, {"note": 67, "velocity": 112, "duration": 105}, {"note": 0, "velocity": 0, "duration": 135}, {"note": 68, "velocity": 127, "duration": 335}, {"note": 0, "velocity": 0, "duration": 385}, {"note": 65, "velocity": 122, "duration": 128}, {"note": 0, "velocity": 0, "duration": 112}, {"note": 67, "velocity": 117, "duration": 101}, {"note": 0, "velocity": 0, "duration": 139}, {"note": 68, "velocity": 127, "duration": 273}, {"note": 0, "velocity": 0, "duration": 207}, {"note": 68, "velocity": 122, "duration": 274}, {"note": 0, "velocity": 0, "duration": 206}, {"note": 68, "velocity": 127, "duration": 151}, {"note": 0, "velocity": 0, "duration": 89}, {"note": 67, "velocity": 95, "duration": 131}, {"note": 0, "velocity": 0, "duration": 109}, {"note": 68, "velocity": 122, "duration": 86}, {"note": 0, "velocity": 0, "duration": 154}, {"note": 70, "velocity": 127, "duration": 1738}, {"note": 0, "velocity": 0, "duration": 182}, {"note": 70, "velocity": 127, "duration": 73}, {"note": 0, "velocity": 0, "duration": 167}, {"note": 70, "velocity": 127, "duration": 153}, {"note": 0, "velocity": 0, "duration": 87}, {"note": 67, "velocity": 117, "duration": 83}, {"note": 0, "velocity": 0, "duration": 157}, {"note": 67, "velocity": 127, "duration": 177}, {"note": 0, "velocity": 0, "duration": 63}, {"note": 65, "velocity": 93, "duration": 69}, {"note": 0, "velocity": 0, "duration": 171}, {"note": 65, "velocity": 112, "duration": 159}, {"note": 0, "velocity": 0, "duration": 81}, {"note": 63, "velocity": 107, "duration": 190}, {"note": 0, "velocity": 0, "duration": 290}, {"note": 63, "velocity": 127, "duration": 107}, {"note": 0, "velocity": 0, "duration": 133}, {"note": 65, "velocity": 107, "duration": 90}, {"note": 0, "velocity": 0, "duration": 150}, {"note": 65, "velocity": 99, "duration": 103}, {"note": 0, "velocity": 0, "duration": 137}, {"note": 63, "velocity": 117, "duration": 100}, {"note": 0, "velocity": 0, "duration": 140}, {"note": 67, "velocity": 117, "duration": 667}, {"note": 0, "velocity": 0, "duration": 293}, {"note": 70, "velocity": 127, "duration": 75}, {"note": 0, "velocity": 0, "duration": 165}, {"note": 70, "velocity": 127, "duration": 94}, {"note": 0, "velocity": 0, "duration": 146}, {"note": 72, "velocity": 122, "duration": 85}, {"note": 0, "velocity": 0, "duration": 155}, {"note": 72, "velocity": 112, "duration": 92}, {"note": 0, "velocity": 0, "duration": 148}, {"note": 67, "velocity": 127, "duration": 79}, {"note": 0, "velocity": 0, "duration": 161}, {"note": 67, "velocity": 122, "duration": 75}, {"note": 0, "velocity": 0, "duration": 165}, {"note": 65, "velocity": 99, "duration": 88}, {"note": 0, "velocity": 0, "duration": 152}, {"note": 65, "velocity": 102, "duration": 97}, {"note": 0, "velocity": 0, "duration": 143}, {"note": 63, "velocity": 127, "duration": 66}, {"note": 0, "velocity": 0, "duration": 174}, {"note": 63, "velocity": 127, "duration": 913}, {"note": 0, "velocity": 0, "duration": 527}, {"note": 60, "velocity": 107, "duration": 126}, {"note": 0, "velocity": 0, "duration": 114}, {"note": 60, "velocity": 100, "duration": 151}, {"note": 0, "velocity": 0, "duration": 89}, {"note": 67, "velocity": 127, "duration": 230}, {"note": 68, "velocity": 122, "duration": 98}, {"note": 0, "velocity": 0, "duration": 142}, {"note": 68, "velocity": 127, "duration": 106}, {"note": 0, "velocity": 0, "duration": 134}, {"note": 68, "velocity": 127, "duration": 369}, {"note": 0, "velocity": 0, "duration": 351}, {"note": 67, "velocity": 122, "duration": 104}, {"note": 0, "velocity": 0, "duration": 136}, {"note": 67, "velocity": 96, "duration": 96}, {"note": 0, "velocity": 0, "duration": 144}, {"note": 67, "velocity": 122, "duration": 111}, {"note": 0, "velocity": 0, "duration": 129}, {"note": 65, "velocity": 99, "duration": 110}, {"note": 0, "velocity": 0, "duration": 130}, {"note": 67, "velocity": 127, "duration": 88}, {"note": 0, "velocity": 0, "duration": 152}, {"note": 68, "velocity": 127, "duration": 263}, {"note": 0, "velocity": 0, "duration": 217}, {"note": 65, "velocity": 112, "duration": 73}, {"note": 0, "velocity": 0, "duration": 167}, {"note": 65, "velocity": 117, "duration": 92}, {"note": 0, "velocity": 0, "duration": 148}, {"note": 67, "velocity": 127, "duration": 73}, {"note": 0, "velocity": 0, "duration": 167}, {"note": 68, "velocity": 127, "duration": 272}, {"note": 0, "velocity": 0, "duration": 208}, {"note": 68, "velocity": 127, "duration": 87}, {"note": 0, "velocity": 0, "duration": 153}, {"note": 68, "velocity": 127, "duration": 81}, {"note": 0, "velocity": 0, "duration": 159}, {"note": 68, "velocity": 127, "duration": 150}, {"note": 0, "velocity": 0, "duration": 90}, {"note": 67, "velocity": 112, "duration": 190}, {"note": 68, "velocity": 127, "duration": 111}, {"note": 0, "velocity": 0, "duration": 129}, {"note": 70, "velocity": 127, "duration": 1572}, {"note": 0, "velocity": 0, "duration": 348}, {"note": 70, "velocity": 127, "duration": 73}, {"note": 0, "velocity": 0, "duration": 167}, {"note": 70, "velocity": 127, "duration": 153}, {"note": 0, "velocity": 0, "duration": 87}, {"note": 67, "velocity": 117, "duration": 83}, {"note": 0, "velocity": 0, "duration": 157}, {"note": 67, "velocity": 127, "duration": 177}, {"note": 0, "velocity": 0, "duration": 63}, {"note": 65, "velocity": 93, "duration": 69}, {"note": 0, "velocity": 0, "duration": 171}, {"note": 65, "velocity": 112, "duration": 159}, {"note": 0, "velocity": 0, "duration": 81}, {"note": 63, "velocity": 107, "duration": 190}, {"note": 0, "velocity": 0, "duration": 290}, {"note": 63, "velocity": 127, "duration": 107}, {"note": 0, "velocity": 0, "duration": 133}, {"note": 65, "velocity": 107, "duration": 90}, {"note": 0, "velocity": 0, "duration": 150}, {"note": 65, "velocity": 99, "duration": 103}, {"note": 0, "velocity": 0, "duration": 137}, {"note": 63, "velocity": 117, "duration": 100}, {"note": 0, "velocity": 0, "duration": 140}, {"note": 67, "velocity": 117, "duration": 667}, {"note": 0, "velocity": 0, "duration": 293}, {"note": 70, "velocity": 127, "duration": 75}, {"note": 0, "velocity": 0, "duration": 165}, {"note": 70, "velocity": 127, "duration": 94}, {"note": 0, "velocity": 0, "duration": 146}, {"note": 72, "velocity": 122, "duration": 85}, {"note": 0, "velocity": 0, "duration": 155}, {"note": 72, "velocity": 112, "duration": 92}, {"note": 0, "velocity": 0, "duration": 148}, {"note": 67, "velocity": 127, "duration": 79}, {"note": 0, "velocity": 0, "duration": 161}, {"note": 67, "velocity": 122, "duration": 75}, {"note": 0, "velocity": 0, "duration": 165}, {"note": 65, "velocity": 99, "duration": 88}, {"note": 0, "velocity": 0, "duration": 152}, {"note": 65, "velocity": 102, "duration": 97}, {"note": 0, "velocity": 0, "duration": 143}, {"note": 63, "velocity": 127, "duration": 66}, {"note": 0, "velocity": 0, "duration": 174}, {"note": 63, "velocity": 127, "duration": 913}, {"note": 0, "velocity": 0, "duration": 527}, {"note": 60, "velocity": 107, "duration": 126}, {"note": 0, "velocity": 0, "duration": 114}, {"note": 60, "velocity": 100, "duration": 151}, {"note": 0, "velocity": 0, "duration": 89}, {"note": 67, "velocity": 127, "duration": 230}, {"note": 68, "velocity": 122, "duration": 98}, {"note": 0, "velocity": 0, "duration": 142}, {"note": 68, "velocity": 127, "duration": 106}, {"note": 0, "velocity": 0, "duration": 134}, {"note": 68, "velocity": 127, "duration": 369}, {"note": 0, "velocity": 0, "duration": 351}, {"note": 67, "velocity": 122, "duration": 104}, {"note": 0, "velocity": 0, "duration": 136}, {"note": 67, "velocity": 96, "duration": 96}, {"note": 0, "velocity": 0, "duration": 144}, {"note": 67, "velocity": 122, "duration": 111}, {"note": 0, "velocity": 0, "duration": 129}, {"note": 65, "velocity": 99, "duration": 110}, {"note": 0, "velocity": 0, "duration": 130}, {"note": 67, "velocity": 127, "duration": 88}, {"note": 0, "velocity": 0, "duration": 152}, {"note": 68, "velocity": 127, "duration": 263}, {"note": 0, "velocity": 0, "duration": 217}, {"note": 65, "velocity": 112, "duration": 73}, {"note": 0, "velocity": 0, "duration": 167}, {"note": 65, "velocity": 117, "duration": 92}, {"note": 0, "velocity": 0, "duration": 148}, {"note": 67, "velocity": 127, "duration": 73}, {"note": 0, "velocity": 0, "duration": 167}, {"note": 68, "velocity": 127, "duration": 272}, {"note": 0, "velocity": 0, "duration": 208}, {"note": 68, "velocity": 127, "duration": 87}, {"note": 0, "velocity": 0, "duration": 153}, {"note": 68, "velocity": 127, "duration": 81}, {"note": 0, "velocity": 0, "duration": 159}, {"note": 68, "velocity": 127, "duration": 150}, {"note": 0, "velocity": 0, "duration": 90}, {"note": 67, "velocity": 112, "duration": 190}, {"note": 68, "velocity": 127, "duration": 111}, {"note": 0, "velocity": 0, "duration": 129}, {"note": 70, "velocity": 127, "duration": 720}, {"note": 0, "velocity": 0, "duration": 240}, {"note": 67, "velocity": 117, "duration": 95}, {"note": 0, "velocity": 0, "duration": 145}, {"note": 67, "velocity": 122, "duration": 192}, {"note": 65, "velocity": 112, "duration": 163}, {"note": 0, "velocity": 0, "duration": 77}, {"note": 63, "velocity": 117, "duration": 74}, {"note": 0, "velocity": 0, "duration": 166}, {"note": 63, "velocity": 127, "duration": 1985}, {"note": 0, "velocity": 0, "duration": 14815}, {"note": 70, "velocity": 122, "duration": 219}, {"note": 72, "velocity": 83, "duration": 137}, {"note": 0, "velocity": 0, "duration": 103}, {"note": 72, "velocity": 127, "duration": 466}, {"note": 70, "velocity": 122, "duration": 1813}, {"note": 0, "velocity": 0, "duration": 3467}, {"note": 58, "velocity": 122, "duration": 150}, {"note": 0, "velocity": 0, "duration": 90}, {"note": 65, "velocity": 112, "duration": 309}, {"note": 67, "velocity": 127, "duration": 285}, {"note": 0, "velocity": 0, "duration": 195}, {"note": 67, "velocity": 127, "duration": 240}, {"note": 0, "velocity": 0, "duration": 240}, {"note": 65, "velocity": 96, "duration": 91}, {"note": 0, "velocity": 0, "duration": 149}, {"note": 65, "velocity": 100, "duration": 102}, {"note": 0, "velocity": 0, "duration": 138}, {"note": 65, "velocity": 100, "duration": 87}, {"note": 0, "velocity": 0, "duration": 153}, {"note": 65, "velocity": 102, "duration": 126}, {"note": 0, "velocity": 0, "duration": 114}, {"note": 63, "velocity": 112, "duration": 273}, {"note": 0, "velocity": 0, "duration": 207}, {"note": 67, "velocity": 117, "duration": 659}, {"note": 0, "velocity": 0, "duration": 301}, {"note": 62, "velocity": 127, "duration": 318}, {"note": 0, "velocity": 0, "duration": 162}, {"note": 62, "velocity": 117, "duration": 76}, {"note": 0, "velocity": 0, "duration": 164}, {"note": 62, "velocity": 102, "duration": 80}, {"note": 0, "velocity": 0, "duration": 160}, {"note": 62, "velocity": 97, "duration": 65}, {"note": 0, "velocity": 0, "duration": 175}, {"note": 62, "velocity": 112, "duration": 204}, {"note": 60, "velocity": 86, "duration": 214}, {"note": 62, "velocity": 102, "duration": 118}, {"note": 0, "velocity": 0, "duration": 122}, {"note": 63, "velocity": 117, "duration": 597}, {"note": 0, "velocity": 0, "duration": 1323}, {"note": 60, "velocity": 97, "duration": 177}, {"note": 0, "velocity": 0, "duration": 63}, {"note": 67, "velocity": 127, "duration": 244}, {"note": 68, "velocity": 122, "duration": 274}, {"note": 0, "velocity": 0, "duration": 206}, {"note": 68, "velocity": 127, "duration": 376}, {"note": 0, "velocity": 0, "duration": 104}, {"note": 67, "velocity": 107, "duration": 119}, {"note": 0, "velocity": 0, "duration": 121}, {"note": 67, "velocity": 102, "duration": 113}, {"note": 0, "velocity": 0, "duration": 127}, {"note": 67, "velocity": 117, "duration": 109}, {"note": 0, "velocity": 0, "duration": 131}, {"note": 67, "velocity": 127, "duration": 162}, {"note": 0, "velocity": 0, "duration": 78}, {"note": 65, "velocity": 112, "duration": 135}, {"note": 0, "velocity": 0, "duration": 105}, {"note": 67, "velocity": 112, "duration": 105}, {"note": 0, "velocity": 0, "duration": 135}, {"note": 68, "velocity": 127, "duration": 335}, {"note": 0, "velocity": 0, "duration": 385}, {"note": 65, "velocity": 122, "duration": 128}, {"note": 0, "velocity": 0, "duration": 112}, {"note": 67, "velocity": 117, "duration": 101}, {"note": 0, "velocity": 0, "duration": 139}, {"note": 68, "velocity": 127, "duration": 273}, {"note": 0, "velocity": 0, "duration": 207}, {"note": 68, "velocity": 122, "duration": 274}, {"note": 0, "velocity": 0, "duration": 206}, {"note": 68, "velocity": 127, "duration": 151}, {"note": 0, "velocity": 0, "duration": 89}, {"note": 67, "velocity": 95, "duration": 131}, {"note": 0, "velocity": 0, "duration": 109}, {"note": 68, "velocity": 122, "duration": 86}, {"note": 0, "velocity": 0, "duration": 154}, {"note": 70, "velocity": 127, "duration": 1738}, {"note": 0, "velocity": 0, "duration": 182}, {"note": 70, "velocity": 127, "duration": 73}, {"note": 0, "velocity": 0, "duration": 167}, {"note": 70, "velocity": 127, "duration": 153}, {"note": 0, "velocity": 0, "duration": 87}, {"note": 67, "velocity": 117, "duration": 83}, {"note": 0, "velocity": 0, "duration": 157}, {"note": 67, "velocity": 127, "duration": 177}, {"note": 0, "velocity": 0, "duration": 63}, {"note": 65, "velocity": 93, "duration": 69}, {"note": 0, "velocity": 0, "duration": 171}, {"note": 65, "velocity": 112, "duration": 159}, {"note": 0, "velocity": 0, "duration": 81}, {"note": 63, "velocity": 107, "duration": 190}, {"note": 0, "velocity": 0, "duration": 290}, {"note": 63, "velocity": 127, "duration": 107}, {"note": 0, "velocity": 0, "duration": 133}, {"note": 65, "velocity": 107, "duration": 90}, {"note": 0, "velocity": 0, "duration": 150}, {"note": 65, "velocity": 99, "duration": 103}, {"note": 0, "velocity": 0, "duration": 137}, {"note": 63, "velocity": 117, "duration": 100}, {"note": 0, "velocity": 0, "duration": 140}, {"note": 67, "velocity": 117, "duration": 667}, {"note": 0, "velocity": 0, "duration": 293}, {"note": 70, "velocity": 127, "duration": 75}, {"note": 0, "velocity": 0, "duration": 165}, {"note": 70, "velocity": 127, "duration": 94}, {"note": 0, "velocity": 0, "duration": 146}, {"note": 72, "velocity": 122, "duration": 85}, {"note": 0, "velocity": 0, "duration": 155}, {"note": 72, "velocity": 112, "duration": 92}, {"note": 0, "velocity": 0, "duration": 148}, {"note": 67, "velocity": 127, "duration": 79}, {"note": 0, "velocity": 0, "duration": 161}, {"note": 67, "velocity": 122, "duration": 75}, {"note": 0, "velocity": 0, "duration": 165}, {"note": 65, "velocity": 99, "duration": 88}, {"note": 0, "velocity": 0, "duration": 152}, {"note": 65, "velocity": 102, "duration": 97}, {"note": 0, "velocity": 0, "duration": 143}, {"note": 63, "velocity": 127, "duration": 66}, {"note": 0, "velocity": 0, "duration": 174}, {"note": 63, "velocity": 127, "duration": 913}, {"note": 0, "velocity": 0, "duration": 527}, {"note": 60, "velocity": 107, "duration": 126}, {"note": 0, "velocity": 0, "duration": 114}, {"note": 60, "velocity": 100, "duration": 151}, {"note": 0, "velocity": 0, "duration": 89}, {"note": 67, "velocity": 127, "duration": 230}, {"note": 68, "velocity": 122, "duration": 98}, {"note": 0, "velocity": 0, "duration": 142}, {"note": 68, "velocity": 127, "duration": 106}, {"note": 0, "velocity": 0, "duration": 134}, {"note": 68, "velocity": 127, "duration": 369}, {"note": 0, "velocity": 0, "duration": 351}, {"note": 67, "velocity": 122, "duration": 104}, {"note": 0, "velocity": 0, "duration": 136}, {"note": 67, "velocity": 96, "duration": 96}, {"note": 0, "velocity": 0, "duration": 144}, {"note": 67, "velocity": 122, "duration": 111}, {"note": 0, "velocity": 0, "duration": 129}, {"note": 65, "velocity": 99, "duration": 110}, {"note": 0, "velocity": 0, "duration": 130}, {"note": 67, "velocity": 127, "duration": 88}, {"note": 0, "velocity": 0, "duration": 152}, {"note": 68, "velocity": 127, "duration": 263}, {"note": 0, "velocity": 0, "duration": 217}, {"note": 65, "velocity": 112, "duration": 73}, {"note": 0, "velocity": 0, "duration": 167}, {"note": 65, "velocity": 117, "duration": 92}, {"note": 0, "velocity": 0, "duration": 148}, {"note": 67, "velocity": 127, "duration": 73}, {"note": 0, "velocity": 0, "duration": 167}, {"note": 68, "velocity": 127, "duration": 272}, {"note": 0, "velocity": 0, "duration": 208}, {"note": 68, "velocity": 127, "duration": 87}, {"note": 0, "velocity": 0, "duration": 153}, {"note": 68, "velocity": 127, "duration": 81}, {"note": 0, "velocity": 0, "duration": 159}, {"note": 68, "velocity": 127, "duration": 150}, {"note": 0, "velocity": 0, "duration": 90}, {"note": 67, "velocity": 112, "duration": 190}, {"note": 68, "velocity": 127, "duration": 111}, {"note": 0, "velocity": 0, "duration": 129}, {"note": 70, "velocity": 127, "duration": 1572}, {"note": 0, "velocity": 0, "duration": 348}, {"note": 70, "velocity": 127, "duration": 73}, {"note": 0, "velocity": 0, "duration": 167}, {"note": 70, "velocity": 127, "duration": 153}, {"note": 0, "velocity": 0, "duration": 87}, {"note": 67, "velocity": 117, "duration": 83}, {"note": 0, "velocity": 0, "duration": 157}, {"note": 67, "velocity": 127, "duration": 177}, {"note": 0, "velocity": 0, "duration": 63}, {"note": 65, "velocity": 93, "duration": 69}, {"note": 0, "velocity": 0, "duration": 171}, {"note": 65, "velocity": 112, "duration": 159}, {"note": 0, "velocity": 0, "duration": 81}, {"note": 63, "velocity": 107, "duration": 190}, {"note": 0, "velocity": 0, "duration": 290}, {"note": 63, "velocity": 127, "duration": 107}, {"note": 0, "velocity": 0, "duration": 133}, {"note": 65, "velocity": 107, "duration": 90}, {"note": 0, "velocity": 0, "duration": 150}, {"note": 65, "velocity": 99, "duration": 103}, {"note": 0, "velocity": 0, "duration": 137}, {"note": 63, "velocity": 117, "duration": 100}, {"note": 0, "velocity": 0, "duration": 140}, {"note": 67, "velocity": 117, "duration": 667}, {"note": 0, "velocity": 0, "duration": 293}, {"note": 70, "velocity": 127, "duration": 75}, {"note": 0, "velocity": 0, "duration": 165}, {"note": 70, "velocity": 127, "duration": 94}, {"note": 0, "velocity": 0, "duration": 146}, {"note": 72, "velocity": 122, "duration": 85}, {"note": 0, "velocity": 0, "duration": 155}, {"note": 72, "velocity": 112, "duration": 92}, {"note": 0, "velocity": 0, "duration": 148}, {"note": 67, "velocity": 127, "duration": 79}, {"note": 0, "velocity": 0, "duration": 161}, {"note": 67, "velocity": 122, "duration": 75}, {"note": 0, "velocity": 0, "duration": 165}, {"note": 65, "velocity": 99, "duration": 88}, {"note": 0, "velocity": 0, "duration": 152}, {"note": 65, "velocity": 102, "duration": 97}, {"note": 0, "velocity": 0, "duration": 143}, {"note": 63, "velocity": 127, "duration": 66}, {"note": 0, "velocity": 0, "duration": 174}, {"note": 63, "velocity": 127, "duration": 913}, {"note": 0, "velocity": 0, "duration": 527}, {"note": 60, "velocity": 107, "duration": 126}, {"note": 0, "velocity": 0, "duration": 114}, {"note": 60, "velocity": 100, "duration": 151}, {"note": 0, "velocity": 0, "duration": 89}, {"note": 67, "velocity": 127, "duration": 230}, {"note": 68, "velocity": 122, "duration": 98}, {"note": 0, "velocity": 0, "duration": 142}, {"note": 68, "velocity": 127, "duration": 106}, {"note": 0, "velocity": 0, "duration": 134}, {"note": 68, "velocity": 127, "duration": 369}, {"note": 0, "velocity": 0, "duration": 351}, {"note": 67, "velocity": 122, "duration": 104}, {"note": 0, "velocity": 0, "duration": 136}, {"note": 67, "velocity": 96, "duration": 96}, {"note": 0, "velocity": 0, "duration": 144}, {"note": 67, "velocity": 122, "duration": 111}, {"note": 0, "velocity": 0, "duration": 129}, {"note": 65, "velocity": 99, "duration": 110}, {"note": 0, "velocity": 0, "duration": 130}, {"note": 67, "velocity": 127, "duration": 88}, {"note": 0, "velocity": 0, "duration": 152}, {"note": 68, "velocity": 127, "duration": 263}, {"note": 0, "velocity": 0, "duration": 217}, {"note": 65, "velocity": 112, "duration": 73}, {"note": 0, "velocity": 0, "duration": 167}, {"note": 65, "velocity": 117, "duration": 92}, {"note": 0, "velocity": 0, "duration": 148}, {"note": 67, "velocity": 127, "duration": 73}, {"note": 0, "velocity": 0, "duration": 167}, {"note": 68, "velocity": 127, "duration": 272}, {"note": 0, "velocity": 0, "duration": 208}, {"note": 68, "velocity": 127, "duration": 87}, {"note": 0, "velocity": 0, "duration": 153}, {"note": 68, "velocity": 127, "duration": 81}, {"note": 0, "velocity": 0, "duration": 159}, {"note": 68, "velocity": 127, "duration": 150}, {"note": 0, "velocity": 0, "duration": 90}, {"note": 67, "velocity": 112, "duration": 190}, {"note": 68, "velocity": 127, "duration": 111}, {"note": 0, "velocity": 0, "duration": 129}, {"note": 70, "velocity": 127, "duration": 720}, {"note": 0, "velocity": 0, "duration": 240}, {"note": 67, "velocity": 117, "duration": 95}, {"note": 0, "velocity": 0, "duration": 145}, {"note": 67, "velocity": 122, "duration": 192}, {"note": 65, "velocity": 112, "duration": 163}, {"note": 0, "velocity": 0, "duration": 77}, {"note": 63, "velocity": 117, "duration": 74}, {"note": 0, "velocity": 0, "duration": 166}, {"note": 63, "velocity": 127, "duration": 1985}, {"note": 0, "velocity": 0, "duration": 1375}, {"note": 62, "velocity": 107, "duration": 92}, {"note": 0, "velocity": 0, "duration": 148}, {"note": 62, "velocity": 97, "duration": 137}, {"note": 0, "velocity": 0, "duration": 103}, {"note": 63, "velocity": 127, "duration": 2280}, {"note": 0, "velocity": 0, "duration": 1080}, {"note": 63, "velocity": 127, "duration": 81}, {"note": 0, "velocity": 0, "duration": 159}, {"note": 62, "velocity": 102, "duration": 116}, {"note": 0, "velocity": 0, "duration": 124}, {"note": 63, "velocity": 127, "duration": 2304}, {"note": 0, "velocity": 0, "duration": 1056}, {"note": 63, "velocity": 102, "duration": 137}, {"note": 0, "velocity": 0, "duration": 103}, {"note": 62, "velocity": 99, "duration": 129}, {"note": 0, "velocity": 0, "duration": 111}, {"note": 65, "velocity": 99, "duration": 512}, {"note": 63, "velocity": 95, "duration": 1591}, {"note": 0, "velocity": 0, "duration": 1289}, {"note": 63, "velocity": 112, "duration": 96}, {"note": 0, "velocity": 0, "duration": 144}, {"note": 63, "velocity": 107, "duration": 115}, {"note": 0, "velocity": 0, "duration": 125}, {"note": 70, "velocity": 127, "duration": 2045}, {"note": 75, "velocity": 127, "duration": 975}, {"note": 72, "velocity": 127, "duration": 838}, {"note": 0, "velocity": 0, "duration": 122}, {"note": 72, "velocity": 112, "duration": 102}, {"note": 0, "velocity": 0, "duration": 138}, {"note": 72, "velocity": 112, "duration": 160}, {"note": 0, "velocity": 0, "duration": 80}, {"note": 69, "velocity": 112, "duration": 87}, {"note": 0, "velocity": 0, "duration": 153}, {"note": 69, "velocity": 117, "duration": 218}, {"note": 67, "velocity": 79, "duration": 74}, {"note": 0, "velocity": 0, "duration": 166}, {"note": 67, "velocity": 127, "duration": 215}, {"note": 65, "velocity": 107, "duration": 195}, {"note": 0, "velocity": 0, "duration": 285}, {"note": 65, "velocity": 99, "duration": 126}, {"note": 0, "velocity": 0, "duration": 114}, {"note": 67, "velocity": 112, "duration": 106}, {"note": 0, "velocity": 0, "duration": 134}, {"note": 67, "velocity": 99, "duration": 126}, {"note": 0, "velocity": 0, "duration": 114}, {"note": 65, "velocity": 95, "duration": 143}, {"note": 0, "velocity": 0, "duration": 97}, {"note": 69, "velocity": 127, "duration": 303}, {"note": 0, "velocity": 0, "duration": 657}, {"note": 72, "velocity": 127, "duration": 75}, {"note": 0, "velocity": 0, "duration": 165}, {"note": 72, "velocity": 127, "duration": 94}, {"note": 0, "velocity": 0, "duration": 146}, {"note": 74, "velocity": 122, "duration": 85}, {"note": 0, "velocity": 0, "duration": 155}, {"note": 74, "velocity": 112, "duration": 92}, {"note": 0, "velocity": 0, "duration": 148}, {"note": 69, "velocity": 127, "duration": 79}, {"note": 0, "velocity": 0, "duration": 161}, {"note": 69, "velocity": 122, "duration": 75}, {"note": 0, "velocity": 0, "duration": 165}, {"note": 67, "velocity": 99, "duration": 88}, {"note": 0, "velocity": 0, "duration": 152}, {"note": 67, "velocity": 102, "duration": 97}, {"note": 0, "velocity": 0, "duration": 143}, {"note": 65, "velocity": 127, "duration": 66}, {"note": 0, "velocity": 0, "duration": 174}, {"note": 65, "velocity": 127, "duration": 913}, {"note": 0, "velocity": 0, "duration": 527}, {"note": 62, "velocity": 107, "duration": 126}, {"note": 0, "velocity": 0, "duration": 114}, {"note": 62, "velocity": 100, "duration": 151}, {"note": 0, "velocity": 0, "duration": 89}, {"note": 69, "velocity": 127, "duration": 230}, {"note": 70, "velocity": 122, "duration": 98}, {"note": 0, "velocity": 0, "duration": 142}, {"note": 70, "velocity": 127, "duration": 106}, {"note": 0, "velocity": 0, "duration": 134}, {"note": 70, "velocity": 127, "duration": 369}, {"note": 0, "velocity": 0, "duration": 351}, {"note": 69, "velocity": 122, "duration": 104}, {"note": 0, "velocity": 0, "duration": 136}, {"note": 69, "velocity": 96, "duration": 96}, {"note": 0, "velocity": 0, "duration": 144}, {"note": 69, "velocity": 122, "duration": 111}, {"note": 0, "velocity": 0, "duration": 129}, {"note": 67, "velocity": 99, "duration": 110}, {"note": 0, "velocity": 0, "duration": 130}, {"note": 69, "velocity": 127, "duration": 88}, {"note": 0, "velocity": 0, "duration": 152}, {"note": 70, "velocity": 127, "duration": 263}, {"note": 0, "velocity": 0, "duration": 217}, {"note": 67, "velocity": 112, "duration": 73}, {"note": 0, "velocity": 0, "duration": 167}, {"note": 67, "velocity": 117, "duration": 92}, {"note": 0, "velocity": 0, "duration": 148}, {"note": 69, "velocity": 127, "duration": 73}, {"note": 0, "velocity": 0, "duration": 167}, {"note": 70, "velocity": 127, "duration": 272}, {"note": 0, "velocity": 0, "duration": 208}, {"note": 70, "velocity": 127, "duration": 87}, {"note": 0, "velocity": 0, "duration": 153}, {"note": 70, "velocity": 127, "duration": 81}, {"note": 0, "velocity": 0, "duration": 159}, {"note": 70, "velocity": 127, "duration": 150}, {"note": 0, "velocity": 0, "duration": 90}, {"note": 69, "velocity": 112, "duration": 190}, {"note": 70, "velocity": 127, "duration": 111}, {"note": 0, "velocity": 0, "duration": 129}, {"note": 72, "velocity": 127, "duration": 1572}, {"note": 0, "velocity": 0, "duration": 348}, {"note": 72, "velocity": 127, "duration": 73}, {"note": 0, "velocity": 0, "duration": 167}, {"note": 72, "velocity": 127, "duration": 153}, {"note": 0, "velocity": 0, "duration": 87}, {"note": 69, "velocity": 117, "duration": 83}, {"note": 0, "velocity": 0, "duration": 157}, {"note": 69, "velocity": 127, "duration": 177}, {"note": 0, "velocity": 0, "duration": 63}, {"note": 67, "velocity": 93, "duration": 69}, {"note": 0, "velocity": 0, "duration": 171}, {"note": 67, "velocity": 112, "duration": 159}, {"note": 0, "velocity": 0, "duration": 81}, {"note": 65, "velocity": 107, "duration": 190}, {"note": 0, "velocity": 0, "duration": 290}, {"note": 65, "velocity": 127, "duration": 107}, {"note": 0, "velocity": 0, "duration": 133}, {"note": 67, "velocity": 107, "duration": 90}, {"note": 0, "velocity": 0, "duration": 150}, {"note": 67, "velocity": 99, "duration": 103}, {"note": 0, "velocity": 0, "duration": 137}, {"note": 65, "velocity": 117, "duration": 100}, {"note": 0, "velocity": 0, "duration": 140}, {"note": 69, "velocity": 117, "duration": 667}, {"note": 0, "velocity": 0, "duration": 293}, {"note": 72, "velocity": 127, "duration": 75}, {"note": 0, "velocity": 0, "duration": 165}, {"note": 72, "velocity": 127, "duration": 94}, {"note": 0, "velocity": 0, "duration": 146}, {"note": 74, "velocity": 122, "duration": 85}, {"note": 0, "velocity": 0, "duration": 155}, {"note": 74, "velocity": 112, "duration": 92}, {"note": 0, "velocity": 0, "duration": 148}, {"note": 69, "velocity": 127, "duration": 79}, {"note": 0, "velocity": 0, "duration": 161}, {"note": 69, "velocity": 122, "duration": 75}, {"note": 0, "velocity": 0, "duration": 165}, {"note": 67, "velocity": 99, "duration": 88}, {"note": 0, "velocity": 0, "duration": 152}, {"note": 67, "velocity": 102, "duration": 97}, {"note": 0, "velocity": 0, "duration": 143}, {"note": 65, "velocity": 127, "duration": 66}, {"note": 0, "velocity": 0, "duration": 174}, {"note": 65, "velocity": 127, "duration": 913}, {"note": 0, "velocity": 0, "duration": 527}, {"note": 62, "velocity": 107, "duration": 126}, {"note": 0, "velocity": 0, "duration": 114}, {"note": 62, "velocity": 100, "duration": 151}, {"note": 0, "velocity": 0, "duration": 89}, {"note": 69, "velocity": 127, "duration": 230}, {"note": 70, "velocity": 122, "duration": 98}, {"note": 0, "velocity": 0, "duration": 142}, {"note": 70, "velocity": 127, "duration": 106}, {"note": 0, "velocity": 0, "duration": 134}, {"note": 70, "velocity": 127, "duration": 369}, {"note": 0, "velocity": 0, "duration": 351}, {"note": 69, "velocity": 122, "duration": 104}, {"note": 0, "velocity": 0, "duration": 136}, {"note": 69, "velocity": 96, "duration": 96}, {"note": 0, "velocity": 0, "duration": 144}, {"note": 69, "velocity": 122, "duration": 111}, {"note": 0, "velocity": 0, "duration": 129}, {"note": 67, "velocity": 99, "duration": 110}, {"note": 0, "velocity": 0, "duration": 130}, {"note": 69, "velocity": 127, "duration": 88}, {"note": 0, "velocity": 0, "duration": 152}, {"note": 70, "velocity": 127, "duration": 263}, {"note": 0, "velocity": 0, "duration": 457}, {"note": 67, "velocity": 117, "duration": 92}, {"note": 0, "velocity": 0, "duration": 148}, {"note": 69, "velocity": 127, "duration": 73}, {"note": 0, "velocity": 0, "duration": 167}, {"note": 70, "velocity": 127, "duration": 272}, {"note": 0, "velocity": 0, "duration": 208}, {"note": 70, "velocity": 127, "duration": 87}, {"note": 0, "velocity": 0, "duration": 153}, {"note": 70, "velocity": 127, "duration": 81}, {"note": 0, "velocity": 0, "duration": 159}, {"note": 70, "velocity": 127, "duration": 150}, {"note": 0, "velocity": 0, "duration": 90}, {"note": 69, "velocity": 112, "duration": 190}, {"note": 70, "velocity": 127, "duration": 111}, {"note": 0, "velocity": 0, "duration": 129}, {"note": 72, "velocity": 127, "duration": 720}, {"note": 0, "velocity": 0, "duration": 240}, {"note": 69, "velocity": 117, "duration": 95}, {"note": 0, "velocity": 0, "duration": 145}, {"note": 69, "velocity": 122, "duration": 192}, {"note": 67, "velocity": 112, "duration": 163}, {"note": 0, "velocity": 0, "duration": 77}, {"note": 65, "velocity": 117, "duration": 74}, {"note": 0, "velocity": 0, "duration": 166}, {"note": 65, "velocity": 127, "duration": 1985}, {"note": 0, "velocity": 0, "duration": 1135}, {"note": 67, "velocity": 127, "duration": 569}, {"note": 0, "velocity": 0, "duration": 151}, {"note": 69, "velocity": 127, "duration": 168}, {"note": 67, "velocity": 95, "duration": 107}, {"note": 65, "velocity": 117, "duration": 2807}, {"note": 0, "velocity": 0, "duration": 1033}, {"note": 72, "velocity": 122, "duration": 3610}]]