[[{"note": 52, "velocity": 81, "duration": 250}, {"note": 55, "velocity": 89, "duration": 259}, {"note": 52, "velocity": 83, "duration": 239}, {"note": 59, "velocity": 90, "duration": 249}, {"note": 57, "velocity": 93, "duration": 1011}, {"note": 50, "velocity": 72, "duration": 215}, {"note": 54, "velocity": 99, "duration": 238}, {"note": 50, "velocity": 82, "duration": 233}, {"note": 57, "velocity": 83, "duration": 247}, {"note": 55, "velocity": 72, "duration": 842}, {"note": 52, "velocity": 100, "duration": 217}, {"note": 60, "velocity": 99, "duration": 233}, {"note": 59, "velocity": 102, "duration": 264}, {"note": 55, "velocity": 96, "duration": 228}, {"note": 52, "velocity": 92, "duration": 274}, {"note": 55, "velocity": 95, "duration": 496}, {"note": 57, "velocity": 100, "duration": 413}, {"note": 55, "velocity": 83, "duration": 1198}, {"note": 0, "velocity": 0, "duration": 7887}, {"note": 52, "velocity": 92, "duration": 240}, {"note": 55, "velocity": 112, "duration": 246}, {"note": 52, "velocity": 95, "duration": 240}, {"note": 59, "velocity": 102, "duration": 274}, {"note": 57, "velocity": 107, "duration": 960}, {"note": 50, "velocity": 92, "duration": 240}, {"note": 54, "velocity": 112, "duration": 240}, {"note": 50, "velocity": 100, "duration": 240}, {"note": 57, "velocity": 107, "duration": 240}, {"note": 55, "velocity": 117, "duration": 960}, {"note": 52, "velocity": 90, "duration": 240}, {"note": 55, "velocity": 97, "duration": 240}, {"note": 52, "velocity": 86, "duration": 120}, {"note": 59, "velocity": 100, "duration": 360}, {"note": 57, "velocity": 100, "duration": 239}, {"note": 57, "velocity": 112, "duration": 240}, {"note": 55, "velocity": 90, "duration": 240}, {"note": 57, "velocity": 100, "duration": 480}, {"note": 62, "velocity": 99, "duration": 480}, {"note": 59, "velocity": 96, "duration": 1200}, {"note": 52, "velocity": 89, "duration": 240}, {"note": 55, "velocity": 99, "duration": 240}, {"note": 52, "velocity": 93, "duration": 240}, {"note": 59, "velocity": 107, "duration": 240}, {"note": 57, "velocity": 122, "duration": 960}, {"note": 50, "velocity": 93, "duration": 240}, {"note": 54, "velocity": 100, "duration": 240}, {"note": 50, "velocity": 95, "duration": 240}, {"note": 57, "velocity": 102, "duration": 240}, {"note": 55, "velocity": 107, "duration": 480}, {"note": 52, "velocity": 93, "duration": 240}, {"note": 60, "velocity": 102, "duration": 240}, {"note": 59, "velocity": 100, "duration": 240}, {"note": 55, "velocity": 102, "duration": 240}, {"note": 52, "velocity": 92, "duration": 240}, {"note": 55, "velocity": 99, "duration": 480}, {"note": 57, "velocity": 112, "duration": 359}, {"note": 57, "velocity": 102, "duration": 317}, {"note": 55, "velocity": 75, "duration": 2040}, {"note": 60, "velocity": 99, "duration": 239}, {"note": 60, "velocity": 112, "duration": 240}, {"note": 59, "velocity": 86, "duration": 239}, {"note": 59, "velocity": 100, "duration": 270}, {"note": 57, "velocity": 93, "duration": 959}, {"note": 57, "velocity": 93, "duration": 240}, {"note": 62, "velocity": 100, "duration": 240}, {"note": 57, "velocity": 97, "duration": 240}, {"note": 59, "velocity": 99, "duration": 239}, {"note": 59, "velocity": 96, "duration": 382}, {"note": 55, "velocity": 96, "duration": 720}, {"note": 60, "velocity": 122, "duration": 239}, {"note": 60, "velocity": 112, "duration": 240}, {"note": 59, "velocity": 86, "duration": 239}, {"note": 59, "velocity": 122, "duration": 240}, {"note": 57, "velocity": 82, "duration": 239}, {"note": 57, "velocity": 100, "duration": 240}, {"note": 55, "velocity": 89, "duration": 240}, {"note": 57, "velocity": 92, "duration": 120}, {"note": 59, "velocity": 112, "duration": 479}, {"note": 59, "velocity": 122, "duration": 240}, {"note": 60, "velocity": 97, "duration": 239}, {"note": 60, "velocity": 117, "duration": 253}, {"note": 59, "velocity": 97, "duration": 960}, {"note": 64, "velocity": 127, "duration": 239}, {"note": 64, "velocity": 112, "duration": 239}, {"note": 64, "velocity": 112, "duration": 239}, {"note": 64, "velocity": 112, "duration": 240}, {"note": 62, "velocity": 100, "duration": 240}, {"note": 57, "velocity": 97, "duration": 240}, {"note": 60, "velocity": 122, "duration": 240}, {"note": 59, "velocity": 117, "duration": 480}, {"note": 57, "velocity": 100, "duration": 480}, {"note": 56, "velocity": 107, "duration": 840}, {"note": 52, "velocity": 85, "duration": 152}, {"note": 59, "velocity": 95, "duration": 249}, {"note": 55, "velocity": 83, "duration": 239}, {"note": 55, "velocity": 83, "duration": 1200}, {"note": 62, "velocity": 102, "duration": 240}, {"note": 59, "velocity": 100, "duration": 239}, {"note": 59, "velocity": 74, "duration": 240}, {"note": 57, "velocity": 85, "duration": 1680}, {"note": 52, "velocity": 97, "duration": 240}, {"note": 55, "velocity": 100, "duration": 240}, {"note": 52, "velocity": 100, "duration": 240}, {"note": 59, "velocity": 127, "duration": 240}, {"note": 57, "velocity": 127, "duration": 960}, {"note": 50, "velocity": 90, "duration": 240}, {"note": 54, "velocity": 107, "duration": 240}, {"note": 50, "velocity": 96, "duration": 240}, {"note": 57, "velocity": 112, "duration": 360}, {"note": 55, "velocity": 102, "duration": 840}, {"note": 52, "velocity": 92, "duration": 240}, {"note": 55, "velocity": 99, "duration": 240}, {"note": 52, "velocity": 97, "duration": 120}, {"note": 59, "velocity": 100, "duration": 336}, {"note": 57, "velocity": 112, "duration": 263}, {"note": 57, "velocity": 112, "duration": 240}, {"note": 55, "velocity": 97, "duration": 240}, {"note": 57, "velocity": 127, "duration": 480}, {"note": 62, "velocity": 127, "duration": 480}, {"note": 59, "velocity": 117, "duration": 1200}, {"note": 64, "velocity": 127, "duration": 239}, {"note": 64, "velocity": 127, "duration": 239}, {"note": 64, "velocity": 100, "duration": 239}, {"note": 64, "velocity": 122, "duration": 253}, {"note": 62, "velocity": 107, "duration": 480}, {"note": 57, "velocity": 122, "duration": 240}, {"note": 62, "velocity": 117, "duration": 240}, {"note": 57, "velocity": 112, "duration": 240}, {"note": 59, "velocity": 107, "duration": 239}, {"note": 59, "velocity": 107, "duration": 480}, {"note": 55, "velocity": 77, "duration": 529}, {"note": 52, "velocity": 97, "duration": 240}, {"note": 60, "velocity": 100, "duration": 240}, {"note": 59, "velocity": 100, "duration": 240}, {"note": 55, "velocity": 117, "duration": 240}, {"note": 52, "velocity": 97, "duration": 240}, {"note": 55, "velocity": 99, "duration": 480}, {"note": 57, "velocity": 99, "duration": 513}, {"note": 55, "velocity": 92, "duration": 1705}, {"note": 0, "velocity": 0, "duration": 15815}, {"note": 60, "velocity": 99, "duration": 239}, {"note": 60, "velocity": 112, "duration": 240}, {"note": 59, "velocity": 86, "duration": 239}, {"note": 59, "velocity": 100, "duration": 270}, {"note": 57, "velocity": 93, "duration": 959}, {"note": 57, "velocity": 93, "duration": 240}, {"note": 62, "velocity": 100, "duration": 240}, {"note": 57, "velocity": 97, "duration": 240}, {"note": 59, "velocity": 99, "duration": 239}, {"note": 59, "velocity": 96, "duration": 382}, {"note": 55, "velocity": 96, "duration": 720}, {"note": 60, "velocity": 122, "duration": 239}, {"note": 60, "velocity": 112, "duration": 240}, {"note": 59, "velocity": 86, "duration": 239}, {"note": 59, "velocity": 122, "duration": 240}, {"note": 57, "velocity": 82, "duration": 239}, {"note": 57, "velocity": 100, "duration": 240}, {"note": 55, "velocity": 89, "duration": 240}, {"note": 57, "velocity": 92, "duration": 120}, {"note": 59, "velocity": 112, "duration": 479}, {"note": 59, "velocity": 122, "duration": 240}, {"note": 60, "velocity": 97, "duration": 239}, {"note": 60, "velocity": 117, "duration": 253}, {"note": 59, "velocity": 97, "duration": 960}, {"note": 64, "velocity": 127, "duration": 239}, {"note": 64, "velocity": 112, "duration": 239}, {"note": 64, "velocity": 112, "duration": 239}, {"note": 64, "velocity": 112, "duration": 240}, {"note": 62, "velocity": 100, "duration": 240}, {"note": 57, "velocity": 97, "duration": 240}, {"note": 60, "velocity": 122, "duration": 240}, {"note": 59, "velocity": 117, "duration": 480}, {"note": 57, "velocity": 100, "duration": 480}, {"note": 56, "velocity": 107, "duration": 840}, {"note": 52, "velocity": 85, "duration": 152}, {"note": 59, "velocity": 95, "duration": 249}, {"note": 55, "velocity": 83, "duration": 239}, {"note": 55, "velocity": 83, "duration": 1200}, {"note": 62, "velocity": 102, "duration": 240}, {"note": 59, "velocity": 100, "duration": 239}, {"note": 59, "velocity": 74, "duration": 240}, {"note": 57, "velocity": 85, "duration": 1680}, {"note": 52, "velocity": 97, "duration": 240}, {"note": 55, "velocity": 100, "duration": 240}, {"note": 52, "velocity": 100, "duration": 240}, {"note": 59, "velocity": 127, "duration": 240}, {"note": 57, "velocity": 127, "duration": 960}, {"note": 50, "velocity": 90, "duration": 240}, {"note": 54, "velocity": 107, "duration": 240}, {"note": 50, "velocity": 96, "duration": 240}, {"note": 57, "velocity": 112, "duration": 360}, {"note": 55, "velocity": 102, "duration": 840}, {"note": 52, "velocity": 92, "duration": 240}, {"note": 55, "velocity": 99, "duration": 240}, {"note": 52, "velocity": 97, "duration": 120}, {"note": 59, "velocity": 100, "duration": 336}, {"note": 57, "velocity": 112, "duration": 263}, {"note": 57, "velocity": 112, "duration": 240}, {"note": 55, "velocity": 97, "duration": 240}, {"note": 57, "velocity": 127, "duration": 480}, {"note": 62, "velocity": 127, "duration": 480}, {"note": 59, "velocity": 117, "duration": 1200}, {"note": 64, "velocity": 127, "duration": 239}, {"note": 64, "velocity": 127, "duration": 239}, {"note": 64, "velocity": 100, "duration": 239}, {"note": 64, "velocity": 122, "duration": 253}, {"note": 62, "velocity": 107, "duration": 480}, {"note": 57, "velocity": 122, "duration": 240}, {"note": 62, "velocity": 117, "duration": 240}, {"note": 57, "velocity": 112, "duration": 240}, {"note": 59, "velocity": 107, "duration": 239}, {"note": 59, "velocity": 107, "duration": 480}, {"note": 55, "velocity": 77, "duration": 529}, {"note": 52, "velocity": 97, "duration": 240}, {"note": 60, "velocity": 100, "duration": 240}, {"note": 59, "velocity": 100, "duration": 240}, {"note": 55, "velocity": 117, "duration": 240}, {"note": 52, "velocity": 97, "duration": 240}, {"note": 55, "velocity": 99, "duration": 480}, {"note": 57, "velocity": 99, "duration": 513}, {"note": 55, "velocity": 92, "duration": 2054}, {"note": 52, "velocity": 70, "duration": 298}, {"note": 60, "velocity": 102, "duration": 275}, {"note": 59, "velocity": 117, "duration": 304}, {"note": 55, "velocity": 100, "duration": 315}, {"note": 52, "velocity": 96, "duration": 302}, {"note": 55, "velocity": 96, "duration": 562}, {"note": 57, "velocity": 107, "duration": 387}, {"note": 55, "velocity": 97, "duration": 659}, {"note": 55, "velocity": 89, "duration": 2308}]]