[[{"note": 70, "velocity": 112, "duration": 83}, {"note": 71, "velocity": 97, "duration": 143}, {"note": 70, "velocity": 117, "duration": 138}, {"note": 68, "velocity": 112, "duration": 48}, {"note": 0, "velocity": 0, "duration": 72}, {"note": 66, "velocity": 112, "duration": 84}, {"note": 63, "velocity": 112, "duration": 356}, {"note": 68, "velocity": 122, "duration": 267}, {"note": 0, "velocity": 0, "duration": 1053}, {"note": 63, "velocity": 127, "duration": 133}, {"note": 0, "velocity": 0, "duration": 107}, {"note": 66, "velocity": 127, "duration": 640}, {"note": 0, "velocity": 0, "duration": 80}, {"note": 68, "velocity": 107, "duration": 183}, {"note": 63, "velocity": 112, "duration": 251}, {"note": 61, "velocity": 90, "duration": 161}, {"note": 63, "velocity": 97, "duration": 486}, {"note": 0, "velocity": 0, "duration": 4194}, {"note": 61, "velocity": 107, "duration": 200}, {"note": 56, "velocity": 112, "duration": 197}, {"note": 58, "velocity": 97, "duration": 915}, {"note": 0, "velocity": 0, "duration": 525}, {"note": 65, "velocity": 96, "duration": 115}, {"note": 66, "velocity": 82, "duration": 140}, {"note": 61, "velocity": 100, "duration": 158}, {"note": 0, "velocity": 0, "duration": 82}, {"note": 63, "velocity": 100, "duration": 661}, {"note": 0, "velocity": 0, "duration": 899}, {"note": 58, "velocity": 82, "duration": 71}, {"note": 59, "velocity": 85, "duration": 87}, {"note": 58, "velocity": 86, "duration": 63}, {"note": 59, "velocity": 78, "duration": 100}, {"note": 58, "velocity": 74, "duration": 50}, {"note": 0, "velocity": 0, "duration": 70}, {"note": 59, "velocity": 82, "duration": 332}, {"note": 0, "velocity": 0, "duration": 628}, {"note": 66, "velocity": 99, "duration": 106}, {"note": 65, "velocity": 99, "duration": 108}, {"note": 0, "velocity": 0, "duration": 252}, {"note": 56, "velocity": 102, "duration": 172}, {"note": 58, "velocity": 92, "duration": 815}, {"note": 0, "velocity": 0, "duration": 985}, {"note": 63, "velocity": 115, "duration": 148}, {"note": 0, "velocity": 0, "duration": 92}, {"note": 61, "velocity": 110, "duration": 115}, {"note": 63, "velocity": 110, "duration": 579}, {"note": 65, "velocity": 95, "duration": 240}, {"note": 66, "velocity": 105, "duration": 120}, {"note": 65, "velocity": 110, "duration": 240}, {"note": 63, "velocity": 115, "duration": 239}, {"note": 63, "velocity": 115, "duration": 240}, {"note": 61, "velocity": 86, "duration": 360}, {"note": 0, "velocity": 0, "duration": 120}, {"note": 61, "velocity": 93, "duration": 48}, {"note": 0, "velocity": 0, "duration": 72}, {"note": 61, "velocity": 97, "duration": 48}, {"note": 0, "velocity": 0, "duration": 72}, {"note": 61, "velocity": 99, "duration": 49}, {"note": 0, "velocity": 0, "duration": 71}, {"note": 63, "velocity": 127, "duration": 105}, {"note": 0, "velocity": 0, "duration": 135}, {"note": 64, "velocity": 96, "duration": 68}, {"note": 63, "velocity": 117, "duration": 83}, {"note": 0, "velocity": 0, "duration": 157}, {"note": 61, "velocity": 112, "duration": 122}, {"note": 0, "velocity": 0, "duration": 118}, {"note": 61, "velocity": 112, "duration": 180}, {"note": 59, "velocity": 81, "duration": 393}, {"note": 0, "velocity": 0, "duration": 87}, {"note": 59, "velocity": 89, "duration": 63}, {"note": 59, "velocity": 81, "duration": 60}, {"note": 59, "velocity": 79, "duration": 81}, {"note": 61, "velocity": 117, "duration": 114}, {"note": 62, "velocity": 89, "duration": 277}, {"note": 0, "velocity": 0, "duration": 83}, {"note": 61, "velocity": 127, "duration": 90}, {"note": 59, "velocity": 93, "duration": 93}, {"note": 0, "velocity": 0, "duration": 147}, {"note": 61, "velocity": 102, "duration": 64}, {"note": 58, "velocity": 107, "duration": 236}, {"note": 56, "velocity": 89, "duration": 713}, {"note": 0, "velocity": 0, "duration": 727}, {"note": 61, "velocity": 112, "duration": 58}, {"note": 0, "velocity": 0, "duration": 62}, {"note": 61, "velocity": 99, "duration": 61}, {"note": 56, "velocity": 93, "duration": 143}, {"note": 58, "velocity": 82, "duration": 798}, {"note": 0, "velocity": 0, "duration": 642}, {"note": 65, "velocity": 100, "duration": 100}, {"note": 66, "velocity": 112, "duration": 100}, {"note": 0, "velocity": 0, "duration": 140}, {"note": 61, "velocity": 112, "duration": 225}, {"note": 63, "velocity": 92, "duration": 1080}, {"note": 0, "velocity": 0, "duration": 480}, {"note": 58, "velocity": 112, "duration": 51}, {"note": 0, "velocity": 0, "duration": 69}, {"note": 59, "velocity": 99, "duration": 69}, {"note": 58, "velocity": 99, "duration": 59}, {"note": 0, "velocity": 0, "duration": 61}, {"note": 59, "velocity": 92, "duration": 70}, {"note": 58, "velocity": 81, "duration": 57}, {"note": 0, "velocity": 0, "duration": 63}, {"note": 59, "velocity": 112, "duration": 498}, {"note": 0, "velocity": 0, "duration": 462}, {"note": 65, "velocity": 96, "duration": 75}, {"note": 70, "velocity": 122, "duration": 203}, {"note": 0, "velocity": 0, "duration": 157}, {"note": 63, "velocity": 117, "duration": 225}, {"note": 58, "velocity": 59, "duration": 144}, {"note": 63, "velocity": 107, "duration": 204}, {"note": 61, "velocity": 102, "duration": 765}, {"note": 0, "velocity": 0, "duration": 435}, {"note": 61, "velocity": 107, "duration": 65}, {"note": 61, "velocity": 102, "duration": 75}, {"note": 63, "velocity": 127, "duration": 216}, {"note": 61, "velocity": 112, "duration": 124}, {"note": 63, "velocity": 127, "duration": 347}, {"note": 63, "velocity": 112, "duration": 51}, {"note": 0, "velocity": 0, "duration": 69}, {"note": 63, "velocity": 102, "duration": 62}, {"note": 65, "velocity": 97, "duration": 57}, {"note": 0, "velocity": 0, "duration": 63}, {"note": 65, "velocity": 95, "duration": 61}, {"note": 63, "velocity": 100, "duration": 55}, {"note": 0, "velocity": 0, "duration": 65}, {"note": 65, "velocity": 122, "duration": 274}, {"note": 0, "velocity": 0, "duration": 86}, {"note": 61, "velocity": 107, "duration": 61}, {"note": 61, "velocity": 102, "duration": 64}, {"note": 70, "velocity": 117, "duration": 212}, {"note": 68, "velocity": 127, "duration": 228}, {"note": 66, "velocity": 122, "duration": 80}, {"note": 65, "velocity": 95, "duration": 233}, {"note": 0, "velocity": 0, "duration": 127}, {"note": 63, "velocity": 112, "duration": 257}, {"note": 58, "velocity": 90, "duration": 595}, {"note": 58, "velocity": 107, "duration": 59}, {"note": 0, "velocity": 0, "duration": 61}, {"note": 58, "velocity": 100, "duration": 72}, {"note": 59, "velocity": 112, "duration": 154}, {"note": 0, "velocity": 0, "duration": 86}, {"note": 58, "velocity": 117, "duration": 62}, {"note": 59, "velocity": 102, "duration": 249}, {"note": 61, "velocity": 122, "duration": 123}, {"note": 0, "velocity": 0, "duration": 117}, {"note": 63, "velocity": 127, "duration": 186}, {"note": 66, "velocity": 117, "duration": 74}, {"note": 0, "velocity": 0, "duration": 166}, {"note": 66, "velocity": 107, "duration": 159}, {"note": 0, "velocity": 0, "duration": 81}, {"note": 70, "velocity": 117, "duration": 280}, {"note": 0, "velocity": 0, "duration": 80}, {"note": 68, "velocity": 127, "duration": 147}, {"note": 66, "velocity": 90, "duration": 1204}, {"note": 70, "velocity": 117, "duration": 54}, {"note": 0, "velocity": 0, "duration": 66}, {"note": 71, "velocity": 127, "duration": 89}, {"note": 70, "velocity": 122, "duration": 57}, {"note": 0, "velocity": 0, "duration": 63}, {"note": 68, "velocity": 127, "duration": 96}, {"note": 66, "velocity": 107, "duration": 53}, {"note": 0, "velocity": 0, "duration": 67}, {"note": 63, "velocity": 127, "duration": 277}, {"note": 0, "velocity": 0, "duration": 83}, {"note": 68, "velocity": 127, "duration": 678}, {"note": 0, "velocity": 0, "duration": 282}, {"note": 68, "velocity": 122, "duration": 49}, {"note": 0, "velocity": 0, "duration": 71}, {"note": 70, "velocity": 117, "duration": 58}, {"note": 0, "velocity": 0, "duration": 62}, {"note": 68, "velocity": 117, "duration": 43}, {"note": 0, "velocity": 0, "duration": 77}, {"note": 66, "velocity": 127, "duration": 67}, {"note": 63, "velocity": 117, "duration": 51}, {"note": 0, "velocity": 0, "duration": 69}, {"note": 61, "velocity": 122, "duration": 131}, {"note": 61, "velocity": 127, "duration": 11}, {"note": 0, "velocity": 0, "duration": 109}, {"note": 61, "velocity": 127, "duration": 44}, {"note": 0, "velocity": 0, "duration": 76}, {"note": 61, "velocity": 117, "duration": 54}, {"note": 0, "velocity": 0, "duration": 66}, {"note": 61, "velocity": 122, "duration": 81}, {"note": 61, "velocity": 117, "duration": 143}, {"note": 0, "velocity": 0, "duration": 97}, {"note": 58, "velocity": 102, "duration": 65}, {"note": 68, "velocity": 127, "duration": 79}, {"note": 66, "velocity": 107, "duration": 69}, {"note": 66, "velocity": 122, "duration": 295}, {"note": 0, "velocity": 0, "duration": 185}, {"note": 66, "velocity": 122, "duration": 80}, {"note": 65, "velocity": 96, "duration": 64}, {"note": 66, "velocity": 127, "duration": 150}, {"note": 0, "velocity": 0, "duration": 90}, {"note": 59, "velocity": 112, "duration": 57}, {"note": 0, "velocity": 0, "duration": 63}, {"note": 59, "velocity": 102, "duration": 238}, {"note": 0, "velocity": 0, "duration": 122}, {"note": 66, "velocity": 127, "duration": 56}, {"note": 0, "velocity": 0, "duration": 64}, {"note": 68, "velocity": 107, "duration": 73}, {"note": 66, "velocity": 127, "duration": 131}, {"note": 0, "velocity": 0, "duration": 109}, {"note": 61, "velocity": 107, "duration": 51}, {"note": 0, "velocity": 0, "duration": 69}, {"note": 61, "velocity": 117, "duration": 164}, {"note": 0, "velocity": 0, "duration": 76}, {"note": 61, "velocity": 127, "duration": 38}, {"note": 0, "velocity": 0, "duration": 82}, {"note": 61, "velocity": 127, "duration": 42}, {"note": 0, "velocity": 0, "duration": 78}, {"note": 61, "velocity": 117, "duration": 56}, {"note": 0, "velocity": 0, "duration": 64}, {"note": 63, "velocity": 127, "duration": 95}, {"note": 66, "velocity": 117, "duration": 108}, {"note": 0, "velocity": 0, "duration": 132}, {"note": 66, "velocity": 122, "duration": 49}, {"note": 0, "velocity": 0, "duration": 71}, {"note": 70, "velocity": 127, "duration": 127}, {"note": 68, "velocity": 127, "duration": 115}, {"note": 0, "velocity": 0, "duration": 125}, {"note": 66, "velocity": 117, "duration": 80}, {"note": 68, "velocity": 127, "duration": 421}, {"note": 70, "velocity": 112, "duration": 54}, {"note": 71, "velocity": 102, "duration": 137}, {"note": 70, "velocity": 117, "duration": 52}, {"note": 0, "velocity": 0, "duration": 68}, {"note": 68, "velocity": 127, "duration": 111}, {"note": 66, "velocity": 102, "duration": 70}, {"note": 63, "velocity": 127, "duration": 170}, {"note": 0, "velocity": 0, "duration": 70}, {"note": 70, "velocity": 117, "duration": 107}, {"note": 68, "velocity": 117, "duration": 540}, {"note": 0, "velocity": 0, "duration": 420}, {"note": 68, "velocity": 127, "duration": 48}, {"note": 0, "velocity": 0, "duration": 72}, {"note": 70, "velocity": 127, "duration": 71}, {"note": 68, "velocity": 127, "duration": 99}, {"note": 66, "velocity": 122, "duration": 68}, {"note": 63, "velocity": 122, "duration": 54}, {"note": 0, "velocity": 0, "duration": 66}, {"note": 61, "velocity": 127, "duration": 149}, {"note": 60, "velocity": 117, "duration": 46}, {"note": 0, "velocity": 0, "duration": 74}, {"note": 61, "velocity": 127, "duration": 54}, {"note": 0, "velocity": 0, "duration": 66}, {"note": 60, "velocity": 112, "duration": 50}, {"note": 0, "velocity": 0, "duration": 70}, {"note": 61, "velocity": 127, "duration": 79}, {"note": 0, "velocity": 0, "duration": 281}, {"note": 73, "velocity": 127, "duration": 50}, {"note": 0, "velocity": 0, "duration": 70}, {"note": 68, "velocity": 117, "duration": 221}, {"note": 70, "velocity": 127, "duration": 384}, {"note": 0, "velocity": 0, "duration": 96}, {"note": 68, "velocity": 127, "duration": 52}, {"note": 0, "velocity": 0, "duration": 68}, {"note": 70, "velocity": 117, "duration": 46}, {"note": 0, "velocity": 0, "duration": 74}, {"note": 71, "velocity": 112, "duration": 154}, {"note": 0, "velocity": 0, "duration": 86}, {"note": 70, "velocity": 127, "duration": 47}, {"note": 0, "velocity": 0, "duration": 73}, {"note": 71, "velocity": 127, "duration": 155}, {"note": 0, "velocity": 0, "duration": 205}, {"note": 70, "velocity": 122, "duration": 86}, {"note": 71, "velocity": 92, "duration": 93}, {"note": 73, "velocity": 122, "duration": 161}, {"note": 0, "velocity": 0, "duration": 79}, {"note": 66, "velocity": 112, "duration": 48}, {"note": 0, "velocity": 0, "duration": 72}, {"note": 66, "velocity": 127, "duration": 133}, {"note": 0, "velocity": 0, "duration": 107}, {"note": 61, "velocity": 117, "duration": 47}, {"note": 0, "velocity": 0, "duration": 73}, {"note": 61, "velocity": 122, "duration": 47}, {"note": 0, "velocity": 0, "duration": 73}, {"note": 61, "velocity": 112, "duration": 45}, {"note": 0, "velocity": 0, "duration": 75}, {"note": 63, "velocity": 127, "duration": 162}, {"note": 0, "velocity": 0, "duration": 78}, {"note": 66, "velocity": 127, "duration": 57}, {"note": 0, "velocity": 0, "duration": 63}, {"note": 66, "velocity": 112, "duration": 177}, {"note": 0, "velocity": 0, "duration": 423}, {"note": 70, "velocity": 127, "duration": 187}, {"note": 68, "velocity": 122, "duration": 42}, {"note": 0, "velocity": 0, "duration": 78}, {"note": 66, "velocity": 127, "duration": 245}, {"note": 65, "velocity": 112, "duration": 260}, {"note": 0, "velocity": 0, "duration": 100}, {"note": 66, "velocity": 117, "duration": 815}, {"note": 0, "velocity": 0, "duration": 4705}, {"note": 61, "velocity": 127, "duration": 61}, {"note": 61, "velocity": 102, "duration": 56}, {"note": 0, "velocity": 0, "duration": 64}, {"note": 56, "velocity": 107, "duration": 260}, {"note": 58, "velocity": 117, "duration": 668}, {"note": 0, "velocity": 0, "duration": 772}, {"note": 65, "velocity": 102, "duration": 81}, {"note": 66, "velocity": 112, "duration": 145}, {"note": 0, "velocity": 0, "duration": 95}, {"note": 61, "velocity": 117, "duration": 131}, {"note": 0, "velocity": 0, "duration": 109}, {"note": 63, "velocity": 122, "duration": 1045}, {"note": 0, "velocity": 0, "duration": 395}, {"note": 58, "velocity": 102, "duration": 39}, {"note": 0, "velocity": 0, "duration": 81}, {"note": 59, "velocity": 95, "duration": 72}, {"note": 58, "velocity": 102, "duration": 48}, {"note": 0, "velocity": 0, "duration": 72}, {"note": 59, "velocity": 93, "duration": 74}, {"note": 58, "velocity": 93, "duration": 54}, {"note": 0, "velocity": 0, "duration": 66}, {"note": 59, "velocity": 102, "duration": 156}, {"note": 0, "velocity": 0, "duration": 804}, {"note": 65, "velocity": 107, "duration": 122}, {"note": 70, "velocity": 122, "duration": 198}, {"note": 0, "velocity": 0, "duration": 162}, {"note": 63, "velocity": 127, "duration": 230}, {"note": 58, "velocity": 107, "duration": 120}, {"note": 63, "velocity": 117, "duration": 232}, {"note": 61, "velocity": 112, "duration": 712}, {"note": 0, "velocity": 0, "duration": 368}, {"note": 61, "velocity": 127, "duration": 51}, {"note": 0, "velocity": 0, "duration": 69}, {"note": 61, "velocity": 112, "duration": 59}, {"note": 0, "velocity": 0, "duration": 61}, {"note": 63, "velocity": 127, "duration": 160}, {"note": 0, "velocity": 0, "duration": 80}, {"note": 61, "velocity": 122, "duration": 59}, {"note": 0, "velocity": 0, "duration": 61}, {"note": 63, "velocity": 122, "duration": 384}, {"note": 63, "velocity": 127, "duration": 24}, {"note": 0, "velocity": 0, "duration": 96}, {"note": 63, "velocity": 107, "duration": 62}, {"note": 65, "velocity": 107, "duration": 60}, {"note": 65, "velocity": 96, "duration": 63}, {"note": 63, "velocity": 107, "duration": 50}, {"note": 0, "velocity": 0, "duration": 70}, {"note": 65, "velocity": 117, "duration": 197}, {"note": 0, "velocity": 0, "duration": 163}, {"note": 61, "velocity": 117, "duration": 52}, {"note": 0, "velocity": 0, "duration": 68}, {"note": 61, "velocity": 107, "duration": 49}, {"note": 0, "velocity": 0, "duration": 71}, {"note": 70, "velocity": 117, "duration": 201}, {"note": 68, "velocity": 96, "duration": 75}, {"note": 0, "velocity": 0, "duration": 165}, {"note": 66, "velocity": 127, "duration": 119}, {"note": 65, "velocity": 122, "duration": 280}, {"note": 0, "velocity": 0, "duration": 80}, {"note": 63, "velocity": 127, "duration": 283}, {"note": 58, "velocity": 102, "duration": 474}, {"note": 58, "velocity": 112, "duration": 51}, {"note": 0, "velocity": 0, "duration": 69}, {"note": 58, "velocity": 97, "duration": 58}, {"note": 0, "velocity": 0, "duration": 62}, {"note": 59, "velocity": 112, "duration": 245}, {"note": 58, "velocity": 102, "duration": 106}, {"note": 59, "velocity": 100, "duration": 282}, {"note": 61, "velocity": 102, "duration": 156}, {"note": 0, "velocity": 0, "duration": 84}, {"note": 63, "velocity": 122, "duration": 198}, {"note": 0, "velocity": 0, "duration": 162}, {"note": 66, "velocity": 117, "duration": 90}, {"note": 66, "velocity": 122, "duration": 118}, {"note": 0, "velocity": 0, "duration": 122}, {"note": 70, "velocity": 122, "duration": 171}, {"note": 0, "velocity": 0, "duration": 69}, {"note": 66, "velocity": 127, "duration": 199}, {"note": 68, "velocity": 117, "duration": 349}, {"note": 66, "velocity": 107, "duration": 804}, {"note": 70, "velocity": 117, "duration": 54}, {"note": 0, "velocity": 0, "duration": 66}, {"note": 71, "velocity": 127, "duration": 89}, {"note": 70, "velocity": 122, "duration": 57}, {"note": 0, "velocity": 0, "duration": 63}, {"note": 68, "velocity": 127, "duration": 96}, {"note": 66, "velocity": 107, "duration": 53}, {"note": 0, "velocity": 0, "duration": 67}, {"note": 63, "velocity": 127, "duration": 277}, {"note": 0, "velocity": 0, "duration": 83}, {"note": 68, "velocity": 127, "duration": 678}, {"note": 0, "velocity": 0, "duration": 282}, {"note": 68, "velocity": 122, "duration": 49}, {"note": 0, "velocity": 0, "duration": 71}, {"note": 70, "velocity": 117, "duration": 58}, {"note": 0, "velocity": 0, "duration": 62}, {"note": 68, "velocity": 117, "duration": 43}, {"note": 0, "velocity": 0, "duration": 77}, {"note": 66, "velocity": 127, "duration": 67}, {"note": 63, "velocity": 117, "duration": 51}, {"note": 0, "velocity": 0, "duration": 69}, {"note": 61, "velocity": 122, "duration": 131}, {"note": 61, "velocity": 127, "duration": 11}, {"note": 0, "velocity": 0, "duration": 109}, {"note": 61, "velocity": 127, "duration": 44}, {"note": 0, "velocity": 0, "duration": 76}, {"note": 61, "velocity": 117, "duration": 54}, {"note": 0, "velocity": 0, "duration": 66}, {"note": 61, "velocity": 122, "duration": 81}, {"note": 61, "velocity": 117, "duration": 143}, {"note": 0, "velocity": 0, "duration": 97}, {"note": 58, "velocity": 102, "duration": 65}, {"note": 68, "velocity": 127, "duration": 79}, {"note": 66, "velocity": 107, "duration": 69}, {"note": 66, "velocity": 122, "duration": 295}, {"note": 0, "velocity": 0, "duration": 185}, {"note": 66, "velocity": 122, "duration": 80}, {"note": 65, "velocity": 96, "duration": 64}, {"note": 66, "velocity": 127, "duration": 150}, {"note": 0, "velocity": 0, "duration": 90}, {"note": 59, "velocity": 112, "duration": 57}, {"note": 0, "velocity": 0, "duration": 63}, {"note": 59, "velocity": 102, "duration": 238}, {"note": 0, "velocity": 0, "duration": 122}, {"note": 66, "velocity": 127, "duration": 56}, {"note": 0, "velocity": 0, "duration": 64}, {"note": 68, "velocity": 107, "duration": 73}, {"note": 66, "velocity": 127, "duration": 131}, {"note": 0, "velocity": 0, "duration": 109}, {"note": 61, "velocity": 107, "duration": 51}, {"note": 0, "velocity": 0, "duration": 69}, {"note": 61, "velocity": 117, "duration": 164}, {"note": 0, "velocity": 0, "duration": 76}, {"note": 61, "velocity": 127, "duration": 38}, {"note": 0, "velocity": 0, "duration": 82}, {"note": 61, "velocity": 127, "duration": 42}, {"note": 0, "velocity": 0, "duration": 78}, {"note": 61, "velocity": 117, "duration": 56}, {"note": 0, "velocity": 0, "duration": 64}, {"note": 63, "velocity": 127, "duration": 95}, {"note": 66, "velocity": 117, "duration": 108}, {"note": 0, "velocity": 0, "duration": 132}, {"note": 66, "velocity": 122, "duration": 49}, {"note": 0, "velocity": 0, "duration": 71}, {"note": 70, "velocity": 127, "duration": 127}, {"note": 68, "velocity": 127, "duration": 115}, {"note": 0, "velocity": 0, "duration": 125}, {"note": 66, "velocity": 117, "duration": 80}, {"note": 68, "velocity": 127, "duration": 421}, {"note": 70, "velocity": 112, "duration": 54}, {"note": 71, "velocity": 102, "duration": 137}, {"note": 70, "velocity": 117, "duration": 52}, {"note": 0, "velocity": 0, "duration": 68}, {"note": 68, "velocity": 127, "duration": 111}, {"note": 66, "velocity": 102, "duration": 70}, {"note": 63, "velocity": 127, "duration": 170}, {"note": 0, "velocity": 0, "duration": 70}, {"note": 70, "velocity": 117, "duration": 107}, {"note": 68, "velocity": 117, "duration": 540}, {"note": 0, "velocity": 0, "duration": 420}, {"note": 68, "velocity": 127, "duration": 48}, {"note": 0, "velocity": 0, "duration": 72}, {"note": 70, "velocity": 127, "duration": 71}, {"note": 68, "velocity": 127, "duration": 99}, {"note": 66, "velocity": 122, "duration": 68}, {"note": 63, "velocity": 122, "duration": 54}, {"note": 0, "velocity": 0, "duration": 66}, {"note": 61, "velocity": 127, "duration": 149}, {"note": 60, "velocity": 117, "duration": 46}, {"note": 0, "velocity": 0, "duration": 74}, {"note": 61, "velocity": 127, "duration": 54}, {"note": 0, "velocity": 0, "duration": 66}, {"note": 60, "velocity": 112, "duration": 50}, {"note": 0, "velocity": 0, "duration": 70}, {"note": 61, "velocity": 127, "duration": 79}, {"note": 0, "velocity": 0, "duration": 281}, {"note": 73, "velocity": 127, "duration": 50}, {"note": 0, "velocity": 0, "duration": 70}, {"note": 68, "velocity": 117, "duration": 221}, {"note": 70, "velocity": 127, "duration": 384}, {"note": 0, "velocity": 0, "duration": 96}, {"note": 68, "velocity": 127, "duration": 52}, {"note": 0, "velocity": 0, "duration": 68}, {"note": 70, "velocity": 117, "duration": 46}, {"note": 0, "velocity": 0, "duration": 74}, {"note": 71, "velocity": 112, "duration": 154}, {"note": 0, "velocity": 0, "duration": 86}, {"note": 70, "velocity": 127, "duration": 47}, {"note": 0, "velocity": 0, "duration": 73}, {"note": 71, "velocity": 127, "duration": 155}, {"note": 0, "velocity": 0, "duration": 205}, {"note": 70, "velocity": 122, "duration": 86}, {"note": 71, "velocity": 92, "duration": 93}, {"note": 73, "velocity": 122, "duration": 161}, {"note": 0, "velocity": 0, "duration": 79}, {"note": 66, "velocity": 112, "duration": 48}, {"note": 0, "velocity": 0, "duration": 72}, {"note": 66, "velocity": 127, "duration": 133}, {"note": 0, "velocity": 0, "duration": 107}, {"note": 61, "velocity": 117, "duration": 47}, {"note": 0, "velocity": 0, "duration": 73}, {"note": 61, "velocity": 122, "duration": 47}, {"note": 0, "velocity": 0, "duration": 73}, {"note": 61, "velocity": 112, "duration": 45}, {"note": 0, "velocity": 0, "duration": 75}, {"note": 63, "velocity": 127, "duration": 162}, {"note": 0, "velocity": 0, "duration": 78}, {"note": 66, "velocity": 127, "duration": 57}, {"note": 0, "velocity": 0, "duration": 63}, {"note": 66, "velocity": 112, "duration": 177}, {"note": 0, "velocity": 0, "duration": 423}, {"note": 70, "velocity": 127, "duration": 187}, {"note": 68, "velocity": 122, "duration": 42}, {"note": 0, "velocity": 0, "duration": 78}, {"note": 66, "velocity": 127, "duration": 245}, {"note": 65, "velocity": 112, "duration": 260}, {"note": 0, "velocity": 0, "duration": 100}, {"note": 66, "velocity": 117, "duration": 815}, {"note": 0, "velocity": 0, "duration": 1345}, {"note": 63, "velocity": 117, "duration": 46}, {"note": 0, "velocity": 0, "duration": 74}, {"note": 63, "velocity": 102, "duration": 47}, {"note": 0, "velocity": 0, "duration": 73}, {"note": 63, "velocity": 127, "duration": 75}, {"note": 65, "velocity": 97, "duration": 85}, {"note": 66, "velocity": 112, "duration": 54}, {"note": 0, "velocity": 0, "duration": 186}, {"note": 65, "velocity": 127, "duration": 134}, {"note": 0, "velocity": 0, "duration": 106}, {"note": 65, "velocity": 127, "duration": 46}, {"note": 0, "velocity": 0, "duration": 74}, {"note": 65, "velocity": 96, "duration": 46}, {"note": 0, "velocity": 0, "duration": 74}, {"note": 65, "velocity": 112, "duration": 97}, {"note": 66, "velocity": 127, "duration": 75}, {"note": 68, "velocity": 122, "duration": 61}, {"note": 0, "velocity": 0, "duration": 179}, {"note": 70, "velocity": 127, "duration": 205}, {"note": 0, "velocity": 0, "duration": 395}, {"note": 73, "velocity": 127, "duration": 137}, {"note": 0, "velocity": 0, "duration": 103}, {"note": 70, "velocity": 122, "duration": 70}, {"note": 70, "velocity": 115, "duration": 661}, {"note": 0, "velocity": 0, "duration": 539}, {"note": 66, "velocity": 127, "duration": 41}, {"note": 0, "velocity": 0, "duration": 79}, {"note": 66, "velocity": 117, "duration": 41}, {"note": 0, "velocity": 0, "duration": 79}, {"note": 66, "velocity": 127, "duration": 54}, {"note": 0, "velocity": 0, "duration": 66}, {"note": 68, "velocity": 127, "duration": 75}, {"note": 70, "velocity": 117, "duration": 44}, {"note": 0, "velocity": 0, "duration": 196}, {"note": 70, "velocity": 127, "duration": 129}, {"note": 0, "velocity": 0, "duration": 111}, {"note": 70, "velocity": 127, "duration": 117}, {"note": 0, "velocity": 0, "duration": 123}, {"note": 70, "velocity": 127, "duration": 72}, {"note": 75, "velocity": 127, "duration": 98}, {"note": 0, "velocity": 0, "duration": 142}, {"note": 70, "velocity": 127, "duration": 98}, {"note": 70, "velocity": 127, "duration": 241}, {"note": 0, "velocity": 0, "duration": 119}, {"note": 68, "velocity": 127, "duration": 918}, {"note": 70, "velocity": 117, "duration": 54}, {"note": 0, "velocity": 0, "duration": 66}, {"note": 71, "velocity": 127, "duration": 89}, {"note": 70, "velocity": 122, "duration": 57}, {"note": 0, "velocity": 0, "duration": 63}, {"note": 68, "velocity": 127, "duration": 96}, {"note": 66, "velocity": 107, "duration": 53}, {"note": 0, "velocity": 0, "duration": 67}, {"note": 63, "velocity": 127, "duration": 277}, {"note": 0, "velocity": 0, "duration": 83}, {"note": 68, "velocity": 127, "duration": 678}, {"note": 0, "velocity": 0, "duration": 282}, {"note": 68, "velocity": 122, "duration": 49}, {"note": 0, "velocity": 0, "duration": 71}, {"note": 70, "velocity": 117, "duration": 58}, {"note": 0, "velocity": 0, "duration": 62}, {"note": 68, "velocity": 117, "duration": 43}, {"note": 0, "velocity": 0, "duration": 77}, {"note": 66, "velocity": 127, "duration": 67}, {"note": 63, "velocity": 117, "duration": 51}, {"note": 0, "velocity": 0, "duration": 69}, {"note": 61, "velocity": 122, "duration": 131}, {"note": 61, "velocity": 127, "duration": 11}, {"note": 0, "velocity": 0, "duration": 109}, {"note": 61, "velocity": 127, "duration": 44}, {"note": 0, "velocity": 0, "duration": 76}, {"note": 61, "velocity": 117, "duration": 54}, {"note": 0, "velocity": 0, "duration": 66}, {"note": 61, "velocity": 122, "duration": 81}, {"note": 61, "velocity": 117, "duration": 143}, {"note": 0, "velocity": 0, "duration": 97}, {"note": 58, "velocity": 102, "duration": 65}, {"note": 68, "velocity": 127, "duration": 79}, {"note": 66, "velocity": 107, "duration": 69}, {"note": 66, "velocity": 122, "duration": 295}, {"note": 0, "velocity": 0, "duration": 185}, {"note": 66, "velocity": 122, "duration": 80}, {"note": 65, "velocity": 96, "duration": 64}, {"note": 66, "velocity": 127, "duration": 150}, {"note": 0, "velocity": 0, "duration": 90}, {"note": 59, "velocity": 112, "duration": 57}, {"note": 0, "velocity": 0, "duration": 63}, {"note": 59, "velocity": 102, "duration": 238}, {"note": 0, "velocity": 0, "duration": 122}, {"note": 66, "velocity": 127, "duration": 56}, {"note": 0, "velocity": 0, "duration": 64}, {"note": 68, "velocity": 107, "duration": 73}, {"note": 66, "velocity": 127, "duration": 131}, {"note": 0, "velocity": 0, "duration": 109}, {"note": 61, "velocity": 107, "duration": 51}, {"note": 0, "velocity": 0, "duration": 69}, {"note": 61, "velocity": 117, "duration": 164}, {"note": 0, "velocity": 0, "duration": 76}, {"note": 61, "velocity": 127, "duration": 38}, {"note": 0, "velocity": 0, "duration": 82}, {"note": 61, "velocity": 127, "duration": 42}, {"note": 0, "velocity": 0, "duration": 78}, {"note": 61, "velocity": 117, "duration": 56}, {"note": 0, "velocity": 0, "duration": 64}, {"note": 63, "velocity": 127, "duration": 95}, {"note": 66, "velocity": 117, "duration": 108}, {"note": 0, "velocity": 0, "duration": 132}, {"note": 66, "velocity": 122, "duration": 49}, {"note": 0, "velocity": 0, "duration": 71}, {"note": 70, "velocity": 127, "duration": 127}, {"note": 73, "velocity": 127, "duration": 115}, {"note": 0, "velocity": 0, "duration": 125}, {"note": 70, "velocity": 117, "duration": 80}, {"note": 68, "velocity": 127, "duration": 315}, {"note": 70, "velocity": 112, "duration": 54}, {"note": 0, "velocity": 0, "duration": 66}, {"note": 71, "velocity": 102, "duration": 137}, {"note": 70, "velocity": 117, "duration": 52}, {"note": 0, "velocity": 0, "duration": 68}, {"note": 68, "velocity": 127, "duration": 111}, {"note": 66, "velocity": 102, "duration": 70}, {"note": 63, "velocity": 127, "duration": 170}, {"note": 0, "velocity": 0, "duration": 70}, {"note": 75, "velocity": 127, "duration": 452}, {"note": 0, "velocity": 0, "duration": 148}, {"note": 73, "velocity": 127, "duration": 310}, {"note": 0, "velocity": 0, "duration": 170}, {"note": 68, "velocity": 127, "duration": 48}, {"note": 0, "velocity": 0, "duration": 72}, {"note": 70, "velocity": 127, "duration": 71}, {"note": 68, "velocity": 127, "duration": 99}, {"note": 66, "velocity": 122, "duration": 68}, {"note": 63, "velocity": 122, "duration": 54}, {"note": 0, "velocity": 0, "duration": 66}, {"note": 61, "velocity": 127, "duration": 149}, {"note": 60, "velocity": 117, "duration": 46}, {"note": 0, "velocity": 0, "duration": 74}, {"note": 61, "velocity": 127, "duration": 54}, {"note": 0, "velocity": 0, "duration": 66}, {"note": 60, "velocity": 112, "duration": 50}, {"note": 0, "velocity": 0, "duration": 70}, {"note": 61, "velocity": 127, "duration": 79}, {"note": 0, "velocity": 0, "duration": 281}, {"note": 73, "velocity": 127, "duration": 50}, {"note": 0, "velocity": 0, "duration": 70}, {"note": 68, "velocity": 117, "duration": 221}, {"note": 70, "velocity": 127, "duration": 1200}, {"note": 0, "velocity": 0, "duration": 240}, {"note": 68, "velocity": 127, "duration": 52}, {"note": 0, "velocity": 0, "duration": 68}, {"note": 70, "velocity": 117, "duration": 46}, {"note": 0, "velocity": 0, "duration": 74}, {"note": 71, "velocity": 112, "duration": 154}, {"note": 0, "velocity": 0, "duration": 86}, {"note": 70, "velocity": 127, "duration": 47}, {"note": 0, "velocity": 0, "duration": 73}, {"note": 71, "velocity": 127, "duration": 155}, {"note": 0, "velocity": 0, "duration": 205}, {"note": 70, "velocity": 122, "duration": 86}, {"note": 71, "velocity": 92, "duration": 93}, {"note": 73, "velocity": 122, "duration": 161}, {"note": 0, "velocity": 0, "duration": 79}, {"note": 66, "velocity": 112, "duration": 48}, {"note": 0, "velocity": 0, "duration": 72}, {"note": 66, "velocity": 127, "duration": 133}, {"note": 0, "velocity": 0, "duration": 107}, {"note": 61, "velocity": 117, "duration": 47}, {"note": 0, "velocity": 0, "duration": 73}, {"note": 61, "velocity": 122, "duration": 47}, {"note": 0, "velocity": 0, "duration": 73}, {"note": 61, "velocity": 112, "duration": 45}, {"note": 0, "velocity": 0, "duration": 75}, {"note": 63, "velocity": 127, "duration": 162}, {"note": 0, "velocity": 0, "duration": 78}, {"note": 66, "velocity": 127, "duration": 57}, {"note": 0, "velocity": 0, "duration": 63}, {"note": 66, "velocity": 112, "duration": 177}, {"note": 0, "velocity": 0, "duration": 423}, {"note": 70, "velocity": 127, "duration": 187}, {"note": 68, "velocity": 122, "duration": 42}, {"note": 0, "velocity": 0, "duration": 78}, {"note": 66, "velocity": 127, "duration": 245}, {"note": 65, "velocity": 112, "duration": 260}, {"note": 0, "velocity": 0, "duration": 100}, {"note": 73, "velocity": 117, "duration": 815}, {"note": 0, "velocity": 0, "duration": 145}, {"note": 72, "velocity": 127, "duration": 998}, {"note": 71, "velocity": 127, "duration": 480}, {"note": 0, "velocity": 0, "duration": 120}, {"note": 73, "velocity": 107, "duration": 114}, {"note": 68, "velocity": 102, "duration": 249}, {"note": 70, "velocity": 122, "duration": 1249}]]