[[{"note": 64, "velocity": 96, "duration": 63}, {"note": 64, "velocity": 73, "duration": 61}, {"note": 0, "velocity": 0, "duration": 70}, {"note": 64, "velocity": 100, "duration": 161}, {"note": 0, "velocity": 0, "duration": 99}, {"note": 67, "velocity": 90, "duration": 65}, {"note": 67, "velocity": 88, "duration": 63}, {"note": 0, "velocity": 0, "duration": 70}, {"note": 67, "velocity": 112, "duration": 167}, {"note": 0, "velocity": 0, "duration": 98}, {"note": 67, "velocity": 112, "duration": 81}, {"note": 69, "velocity": 107, "duration": 106}, {"note": 0, "velocity": 0, "duration": 175}, {"note": 71, "velocity": 122, "duration": 200}, {"note": 0, "velocity": 0, "duration": 97}, {"note": 69, "velocity": 112, "duration": 101}, {"note": 0, "velocity": 0, "duration": 112}, {"note": 69, "velocity": 122, "duration": 77}, {"note": 0, "velocity": 0, "duration": 189}, {"note": 69, "velocity": 117, "duration": 93}, {"note": 0, "velocity": 0, "duration": 145}, {"note": 64, "velocity": 97, "duration": 128}, {"note": 69, "velocity": 112, "duration": 743}, {"note": 0, "velocity": 0, "duration": 536}, {"note": 69, "velocity": 97, "duration": 62}, {"note": 0, "velocity": 0, "duration": 71}, {"note": 69, "velocity": 96, "duration": 55}, {"note": 0, "velocity": 0, "duration": 80}, {"note": 69, "velocity": 117, "duration": 77}, {"note": 0, "velocity": 0, "duration": 149}, {"note": 69, "velocity": 102, "duration": 69}, {"note": 0, "velocity": 0, "duration": 69}, {"note": 74, "velocity": 127, "duration": 184}, {"note": 0, "velocity": 0, "duration": 89}, {"note": 74, "velocity": 127, "duration": 86}, {"note": 0, "velocity": 0, "duration": 110}, {"note": 74, "velocity": 117, "duration": 62}, {"note": 0, "velocity": 0, "duration": 74}, {"note": 74, "velocity": 127, "duration": 135}, {"note": 0, "velocity": 0, "duration": 108}, {"note": 69, "velocity": 127, "duration": 152}, {"note": 0, "velocity": 0, "duration": 113}, {"note": 67, "velocity": 112, "duration": 233}, {"note": 69, "velocity": 127, "duration": 204}, {"note": 0, "velocity": 0, "duration": 154}, {"note": 67, "velocity": 107, "duration": 105}, {"note": 0, "velocity": 0, "duration": 158}, {"note": 69, "velocity": 127, "duration": 69}, {"note": 71, "velocity": 127, "duration": 627}, {"note": 0, "velocity": 0, "duration": 567}, {"note": 71, "velocity": 127, "duration": 75}, {"note": 0, "velocity": 0, "duration": 65}, {"note": 71, "velocity": 127, "duration": 107}, {"note": 0, "velocity": 0, "duration": 93}, {"note": 71, "velocity": 112, "duration": 126}, {"note": 76, "velocity": 127, "duration": 181}, {"note": 0, "velocity": 0, "duration": 92}, {"note": 76, "velocity": 127, "duration": 80}, {"note": 0, "velocity": 0, "duration": 65}, {"note": 76, "velocity": 127, "duration": 117}, {"note": 74, "velocity": 112, "duration": 175}, {"note": 0, "velocity": 0, "duration": 72}, {"note": 74, "velocity": 112, "duration": 92}, {"note": 0, "velocity": 0, "duration": 110}, {"note": 74, "velocity": 127, "duration": 177}, {"note": 0, "velocity": 0, "duration": 81}, {"note": 72, "velocity": 107, "duration": 103}, {"note": 0, "velocity": 0, "duration": 123}, {"note": 72, "velocity": 127, "duration": 335}, {"note": 0, "velocity": 0, "duration": 90}, {"note": 71, "velocity": 122, "duration": 81}, {"note": 0, "velocity": 0, "duration": 85}, {"note": 71, "velocity": 122, "duration": 200}, {"note": 0, "velocity": 0, "duration": 107}, {"note": 69, "velocity": 112, "duration": 466}, {"note": 0, "velocity": 0, "duration": 104}, {"note": 71, "velocity": 122, "duration": 115}, {"note": 69, "velocity": 78, "duration": 100}, {"note": 67, "velocity": 93, "duration": 84}, {"note": 64, "velocity": 99, "duration": 76}, {"note": 67, "velocity": 112, "duration": 101}, {"note": 64, "velocity": 96, "duration": 75}, {"note": 67, "velocity": 127, "duration": 133}, {"note": 0, "velocity": 0, "duration": 100}, {"note": 71, "velocity": 127, "duration": 198}, {"note": 0, "velocity": 0, "duration": 100}, {"note": 69, "velocity": 127, "duration": 312}, {"note": 0, "velocity": 0, "duration": 470}, {"note": 64, "velocity": 95, "duration": 173}, {"note": 0, "velocity": 0, "duration": 68}, {"note": 64, "velocity": 95, "duration": 1140}, {"note": 0, "velocity": 0, "duration": 1006}, {"note": 64, "velocity": 97, "duration": 57}, {"note": 0, "velocity": 0, "duration": 63}, {"note": 64, "velocity": 92, "duration": 61}, {"note": 64, "velocity": 102, "duration": 182}, {"note": 67, "velocity": 107, "duration": 54}, {"note": 0, "velocity": 0, "duration": 66}, {"note": 67, "velocity": 92, "duration": 59}, {"note": 0, "velocity": 0, "duration": 61}, {"note": 67, "velocity": 107, "duration": 201}, {"note": 67, "velocity": 122, "duration": 41}, {"note": 0, "velocity": 0, "duration": 79}, {"note": 67, "velocity": 99, "duration": 54}, {"note": 0, "velocity": 0, "duration": 66}, {"note": 69, "velocity": 127, "duration": 132}, {"note": 0, "velocity": 0, "duration": 108}, {"note": 71, "velocity": 127, "duration": 141}, {"note": 0, "velocity": 0, "duration": 99}, {"note": 69, "velocity": 127, "duration": 170}, {"note": 0, "velocity": 0, "duration": 70}, {"note": 69, "velocity": 127, "duration": 305}, {"note": 0, "velocity": 0, "duration": 175}, {"note": 71, "velocity": 127, "duration": 352}, {"note": 0, "velocity": 0, "duration": 128}, {"note": 69, "velocity": 117, "duration": 535}, {"note": 0, "velocity": 0, "duration": 425}, {"note": 69, "velocity": 112, "duration": 53}, {"note": 0, "velocity": 0, "duration": 67}, {"note": 69, "velocity": 99, "duration": 50}, {"note": 0, "velocity": 0, "duration": 70}, {"note": 69, "velocity": 112, "duration": 64}, {"note": 69, "velocity": 107, "duration": 96}, {"note": 0, "velocity": 0, "duration": 144}, {"note": 69, "velocity": 112, "duration": 99}, {"note": 74, "velocity": 127, "duration": 209}, {"note": 74, "velocity": 107, "duration": 51}, {"note": 0, "velocity": 0, "duration": 69}, {"note": 74, "velocity": 107, "duration": 46}, {"note": 0, "velocity": 0, "duration": 74}, {"note": 74, "velocity": 127, "duration": 154}, {"note": 0, "velocity": 0, "duration": 86}, {"note": 69, "velocity": 127, "duration": 150}, {"note": 0, "velocity": 0, "duration": 90}, {"note": 67, "velocity": 117, "duration": 214}, {"note": 0, "velocity": 0, "duration": 506}, {"note": 71, "velocity": 122, "duration": 327}, {"note": 0, "velocity": 0, "duration": 153}, {"note": 71, "velocity": 127, "duration": 753}, {"note": 0, "velocity": 0, "duration": 207}, {"note": 71, "velocity": 127, "duration": 45}, {"note": 0, "velocity": 0, "duration": 75}, {"note": 71, "velocity": 107, "duration": 42}, {"note": 0, "velocity": 0, "duration": 78}, {"note": 71, "velocity": 122, "duration": 123}, {"note": 0, "velocity": 0, "duration": 117}, {"note": 71, "velocity": 107, "duration": 51}, {"note": 0, "velocity": 0, "duration": 69}, {"note": 71, "velocity": 102, "duration": 64}, {"note": 76, "velocity": 127, "duration": 144}, {"note": 0, "velocity": 0, "duration": 96}, {"note": 76, "velocity": 127, "duration": 47}, {"note": 0, "velocity": 0, "duration": 73}, {"note": 76, "velocity": 102, "duration": 68}, {"note": 74, "velocity": 127, "duration": 160}, {"note": 0, "velocity": 0, "duration": 80}, {"note": 74, "velocity": 127, "duration": 96}, {"note": 0, "velocity": 0, "duration": 144}, {"note": 74, "velocity": 127, "duration": 180}, {"note": 72, "velocity": 127, "duration": 84}, {"note": 0, "velocity": 0, "duration": 156}, {"note": 72, "velocity": 127, "duration": 118}, {"note": 0, "velocity": 0, "duration": 122}, {"note": 71, "velocity": 100, "duration": 83}, {"note": 72, "velocity": 127, "duration": 250}, {"note": 0, "velocity": 0, "duration": 110}, {"note": 69, "velocity": 122, "duration": 382}, {"note": 0, "velocity": 0, "duration": 98}, {"note": 71, "velocity": 127, "duration": 78}, {"note": 69, "velocity": 117, "duration": 76}, {"note": 67, "velocity": 93, "duration": 74}, {"note": 64, "velocity": 89, "duration": 67}, {"note": 67, "velocity": 96, "duration": 75}, {"note": 64, "velocity": 93, "duration": 87}, {"note": 67, "velocity": 127, "duration": 149}, {"note": 0, "velocity": 0, "duration": 91}, {"note": 71, "velocity": 127, "duration": 156}, {"note": 0, "velocity": 0, "duration": 84}, {"note": 69, "velocity": 127, "duration": 182}, {"note": 69, "velocity": 127, "duration": 50}, {"note": 0, "velocity": 0, "duration": 70}, {"note": 69, "velocity": 96, "duration": 49}, {"note": 0, "velocity": 0, "duration": 71}, {"note": 69, "velocity": 107, "duration": 144}, {"note": 0, "velocity": 0, "duration": 96}, {"note": 64, "velocity": 112, "duration": 377}, {"note": 0, "velocity": 0, "duration": 103}, {"note": 64, "velocity": 100, "duration": 952}, {"note": 0, "velocity": 0, "duration": 608}, {"note": 59, "velocity": 89, "duration": 125}, {"note": 71, "velocity": 127, "duration": 175}, {"note": 0, "velocity": 0, "duration": 65}, {"note": 71, "velocity": 117, "duration": 162}, {"note": 0, "velocity": 0, "duration": 78}, {"note": 71, "velocity": 127, "duration": 164}, {"note": 0, "velocity": 0, "duration": 76}, {"note": 71, "velocity": 112, "duration": 51}, {"note": 0, "velocity": 0, "duration": 69}, {"note": 71, "velocity": 127, "duration": 246}, {"note": 0, "velocity": 0, "duration": 114}, {"note": 69, "velocity": 127, "duration": 324}, {"note": 69, "velocity": 117, "duration": 71}, {"note": 71, "velocity": 112, "duration": 67}, {"note": 69, "velocity": 122, "duration": 87}, {"note": 67, "velocity": 122, "duration": 140}, {"note": 0, "velocity": 0, "duration": 100}, {"note": 64, "velocity": 127, "duration": 126}, {"note": 0, "velocity": 0, "duration": 114}, {"note": 64, "velocity": 127, "duration": 130}, {"note": 0, "velocity": 0, "duration": 110}, {"note": 62, "velocity": 127, "duration": 69}, {"note": 64, "velocity": 122, "duration": 612}, {"note": 0, "velocity": 0, "duration": 348}, {"note": 59, "velocity": 107, "duration": 99}, {"note": 71, "velocity": 112, "duration": 132}, {"note": 0, "velocity": 0, "duration": 108}, {"note": 71, "velocity": 127, "duration": 380}, {"note": 0, "velocity": 0, "duration": 100}, {"note": 71, "velocity": 127, "duration": 80}, {"note": 0, "velocity": 0, "duration": 160}, {"note": 71, "velocity": 127, "duration": 237}, {"note": 69, "velocity": 127, "duration": 316}, {"note": 69, "velocity": 122, "duration": 59}, {"note": 0, "velocity": 0, "duration": 61}, {"note": 71, "velocity": 112, "duration": 63}, {"note": 69, "velocity": 117, "duration": 53}, {"note": 0, "velocity": 0, "duration": 67}, {"note": 67, "velocity": 127, "duration": 186}, {"note": 64, "velocity": 117, "duration": 138}, {"note": 0, "velocity": 0, "duration": 102}, {"note": 64, "velocity": 107, "duration": 98}, {"note": 67, "velocity": 112, "duration": 137}, {"note": 69, "velocity": 97, "duration": 107}, {"note": 71, "velocity": 127, "duration": 606}, {"note": 0, "velocity": 0, "duration": 354}, {"note": 59, "velocity": 107, "duration": 111}, {"note": 71, "velocity": 127, "duration": 162}, {"note": 0, "velocity": 0, "duration": 78}, {"note": 71, "velocity": 127, "duration": 152}, {"note": 0, "velocity": 0, "duration": 88}, {"note": 71, "velocity": 127, "duration": 145}, {"note": 0, "velocity": 0, "duration": 95}, {"note": 71, "velocity": 122, "duration": 45}, {"note": 0, "velocity": 0, "duration": 75}, {"note": 71, "velocity": 127, "duration": 291}, {"note": 0, "velocity": 0, "duration": 69}, {"note": 69, "velocity": 127, "duration": 407}, {"note": 69, "velocity": 127, "duration": 47}, {"note": 0, "velocity": 0, "duration": 73}, {"note": 71, "velocity": 112, "duration": 67}, {"note": 69, "velocity": 117, "duration": 93}, {"note": 67, "velocity": 112, "duration": 152}, {"note": 0, "velocity": 0, "duration": 88}, {"note": 64, "velocity": 127, "duration": 160}, {"note": 0, "velocity": 0, "duration": 80}, {"note": 64, "velocity": 127, "duration": 141}, {"note": 0, "velocity": 0, "duration": 99}, {"note": 62, "velocity": 122, "duration": 165}, {"note": 64, "velocity": 102, "duration": 611}, {"note": 0, "velocity": 0, "duration": 349}, {"note": 59, "velocity": 90, "duration": 91}, {"note": 71, "velocity": 127, "duration": 77}, {"note": 71, "velocity": 95, "duration": 58}, {"note": 0, "velocity": 0, "duration": 62}, {"note": 71, "velocity": 127, "duration": 155}, {"note": 0, "velocity": 0, "duration": 85}, {"note": 71, "velocity": 127, "duration": 187}, {"note": 71, "velocity": 127, "duration": 45}, {"note": 0, "velocity": 0, "duration": 75}, {"note": 71, "velocity": 127, "duration": 260}, {"note": 0, "velocity": 0, "duration": 100}, {"note": 69, "velocity": 120, "duration": 240}, {"note": 0, "velocity": 0, "duration": 120}, {"note": 69, "velocity": 127, "duration": 92}, {"note": 71, "velocity": 117, "duration": 93}, {"note": 69, "velocity": 117, "duration": 101}, {"note": 67, "velocity": 127, "duration": 152}, {"note": 0, "velocity": 0, "duration": 88}, {"note": 64, "velocity": 112, "duration": 158}, {"note": 0, "velocity": 0, "duration": 82}, {"note": 67, "velocity": 127, "duration": 139}, {"note": 0, "velocity": 0, "duration": 101}, {"note": 69, "velocity": 127, "duration": 72}, {"note": 0, "velocity": 0, "duration": 168}, {"note": 71, "velocity": 127, "duration": 586}, {"note": 0, "velocity": 0, "duration": 134}, {"note": 71, "velocity": 117, "duration": 170}, {"note": 0, "velocity": 0, "duration": 70}, {"note": 76, "velocity": 127, "duration": 161}, {"note": 0, "velocity": 0, "duration": 79}, {"note": 76, "velocity": 127, "duration": 168}, {"note": 0, "velocity": 0, "duration": 72}, {"note": 78, "velocity": 127, "duration": 180}, {"note": 76, "velocity": 127, "duration": 535}, {"note": 0, "velocity": 0, "duration": 425}, {"note": 71, "velocity": 122, "duration": 148}, {"note": 0, "velocity": 0, "duration": 92}, {"note": 76, "velocity": 127, "duration": 226}, {"note": 76, "velocity": 127, "duration": 350}, {"note": 0, "velocity": 0, "duration": 130}, {"note": 74, "velocity": 127, "duration": 122}, {"note": 72, "velocity": 107, "duration": 129}, {"note": 0, "velocity": 0, "duration": 111}, {"note": 74, "velocity": 127, "duration": 102}, {"note": 72, "velocity": 117, "duration": 527}, {"note": 0, "velocity": 0, "duration": 433}, {"note": 72, "velocity": 122, "duration": 147}, {"note": 0, "velocity": 0, "duration": 93}, {"note": 74, "velocity": 127, "duration": 155}, {"note": 0, "velocity": 0, "duration": 85}, {"note": 76, "velocity": 127, "duration": 120}, {"note": 0, "velocity": 0, "duration": 120}, {"note": 76, "velocity": 127, "duration": 140}, {"note": 74, "velocity": 127, "duration": 316}, {"note": 0, "velocity": 0, "duration": 284}, {"note": 67, "velocity": 100, "duration": 102}, {"note": 0, "velocity": 0, "duration": 138}, {"note": 74, "velocity": 127, "duration": 115}, {"note": 72, "velocity": 112, "duration": 120}, {"note": 71, "velocity": 102, "duration": 299}, {"note": 0, "velocity": 0, "duration": 61}, {"note": 69, "velocity": 112, "duration": 101}, {"note": 67, "velocity": 85, "duration": 93}, {"note": 69, "velocity": 112, "duration": 71}, {"note": 71, "velocity": 127, "duration": 540}, {"note": 0, "velocity": 0, "duration": 300}, {"note": 71, "velocity": 96, "duration": 88}, {"note": 76, "velocity": 112, "duration": 146}, {"note": 0, "velocity": 0, "duration": 94}, {"note": 76, "velocity": 122, "duration": 173}, {"note": 0, "velocity": 0, "duration": 67}, {"note": 78, "velocity": 127, "duration": 171}, {"note": 0, "velocity": 0, "duration": 69}, {"note": 78, "velocity": 117, "duration": 120}, {"note": 76, "velocity": 122, "duration": 719}, {"note": 0, "velocity": 0, "duration": 121}, {"note": 71, "velocity": 117, "duration": 88}, {"note": 0, "velocity": 0, "duration": 152}, {"note": 76, "velocity": 127, "duration": 193}, {"note": 76, "velocity": 127, "duration": 365}, {"note": 0, "velocity": 0, "duration": 115}, {"note": 74, "velocity": 127, "duration": 110}, {"note": 72, "velocity": 102, "duration": 111}, {"note": 0, "velocity": 0, "duration": 129}, {"note": 74, "velocity": 122, "duration": 113}, {"note": 72, "velocity": 99, "duration": 520}, {"note": 0, "velocity": 0, "duration": 440}, {"note": 67, "velocity": 102, "duration": 145}, {"note": 0, "velocity": 0, "duration": 95}, {"note": 67, "velocity": 107, "duration": 147}, {"note": 0, "velocity": 0, "duration": 93}, {"note": 67, "velocity": 97, "duration": 63}, {"note": 0, "velocity": 0, "duration": 177}, {"note": 71, "velocity": 127, "duration": 323}, {"note": 69, "velocity": 117, "duration": 350}, {"note": 0, "velocity": 0, "duration": 130}, {"note": 66, "velocity": 127, "duration": 133}, {"note": 0, "velocity": 0, "duration": 107}, {"note": 67, "velocity": 127, "duration": 152}, {"note": 66, "velocity": 99, "duration": 134}, {"note": 64, "velocity": 92, "duration": 996}, {"note": 0, "velocity": 0, "duration": 4764}, {"note": 64, "velocity": 97, "duration": 57}, {"note": 0, "velocity": 0, "duration": 63}, {"note": 64, "velocity": 92, "duration": 61}, {"note": 64, "velocity": 102, "duration": 182}, {"note": 67, "velocity": 107, "duration": 54}, {"note": 0, "velocity": 0, "duration": 66}, {"note": 67, "velocity": 92, "duration": 59}, {"note": 0, "velocity": 0, "duration": 61}, {"note": 67, "velocity": 107, "duration": 201}, {"note": 67, "velocity": 122, "duration": 41}, {"note": 0, "velocity": 0, "duration": 79}, {"note": 67, "velocity": 99, "duration": 54}, {"note": 0, "velocity": 0, "duration": 66}, {"note": 69, "velocity": 127, "duration": 132}, {"note": 0, "velocity": 0, "duration": 108}, {"note": 71, "velocity": 127, "duration": 141}, {"note": 0, "velocity": 0, "duration": 99}, {"note": 69, "velocity": 127, "duration": 170}, {"note": 0, "velocity": 0, "duration": 70}, {"note": 69, "velocity": 127, "duration": 305}, {"note": 0, "velocity": 0, "duration": 175}, {"note": 71, "velocity": 127, "duration": 352}, {"note": 0, "velocity": 0, "duration": 128}, {"note": 69, "velocity": 117, "duration": 535}, {"note": 0, "velocity": 0, "duration": 425}, {"note": 69, "velocity": 112, "duration": 53}, {"note": 0, "velocity": 0, "duration": 67}, {"note": 69, "velocity": 99, "duration": 50}, {"note": 0, "velocity": 0, "duration": 70}, {"note": 69, "velocity": 112, "duration": 64}, {"note": 69, "velocity": 107, "duration": 96}, {"note": 0, "velocity": 0, "duration": 144}, {"note": 69, "velocity": 112, "duration": 99}, {"note": 74, "velocity": 127, "duration": 209}, {"note": 74, "velocity": 107, "duration": 51}, {"note": 0, "velocity": 0, "duration": 69}, {"note": 74, "velocity": 107, "duration": 46}, {"note": 0, "velocity": 0, "duration": 74}, {"note": 74, "velocity": 127, "duration": 154}, {"note": 0, "velocity": 0, "duration": 86}, {"note": 69, "velocity": 127, "duration": 150}, {"note": 0, "velocity": 0, "duration": 90}, {"note": 67, "velocity": 117, "duration": 214}, {"note": 0, "velocity": 0, "duration": 506}, {"note": 71, "velocity": 122, "duration": 327}, {"note": 0, "velocity": 0, "duration": 153}, {"note": 71, "velocity": 127, "duration": 753}, {"note": 0, "velocity": 0, "duration": 207}, {"note": 71, "velocity": 127, "duration": 45}, {"note": 0, "velocity": 0, "duration": 75}, {"note": 71, "velocity": 107, "duration": 42}, {"note": 0, "velocity": 0, "duration": 78}, {"note": 71, "velocity": 122, "duration": 123}, {"note": 0, "velocity": 0, "duration": 117}, {"note": 71, "velocity": 107, "duration": 51}, {"note": 0, "velocity": 0, "duration": 69}, {"note": 71, "velocity": 102, "duration": 64}, {"note": 76, "velocity": 127, "duration": 144}, {"note": 0, "velocity": 0, "duration": 96}, {"note": 76, "velocity": 127, "duration": 47}, {"note": 0, "velocity": 0, "duration": 73}, {"note": 76, "velocity": 102, "duration": 68}, {"note": 74, "velocity": 127, "duration": 160}, {"note": 0, "velocity": 0, "duration": 80}, {"note": 74, "velocity": 127, "duration": 96}, {"note": 0, "velocity": 0, "duration": 144}, {"note": 74, "velocity": 127, "duration": 180}, {"note": 72, "velocity": 127, "duration": 84}, {"note": 0, "velocity": 0, "duration": 156}, {"note": 72, "velocity": 127, "duration": 118}, {"note": 0, "velocity": 0, "duration": 122}, {"note": 71, "velocity": 100, "duration": 83}, {"note": 72, "velocity": 127, "duration": 250}, {"note": 0, "velocity": 0, "duration": 110}, {"note": 69, "velocity": 122, "duration": 382}, {"note": 0, "velocity": 0, "duration": 98}, {"note": 71, "velocity": 127, "duration": 78}, {"note": 69, "velocity": 117, "duration": 76}, {"note": 67, "velocity": 93, "duration": 74}, {"note": 64, "velocity": 89, "duration": 67}, {"note": 67, "velocity": 96, "duration": 75}, {"note": 64, "velocity": 93, "duration": 87}, {"note": 67, "velocity": 127, "duration": 149}, {"note": 0, "velocity": 0, "duration": 91}, {"note": 71, "velocity": 127, "duration": 156}, {"note": 0, "velocity": 0, "duration": 84}, {"note": 69, "velocity": 127, "duration": 182}, {"note": 69, "velocity": 127, "duration": 50}, {"note": 0, "velocity": 0, "duration": 70}, {"note": 69, "velocity": 96, "duration": 49}, {"note": 0, "velocity": 0, "duration": 71}, {"note": 69, "velocity": 107, "duration": 144}, {"note": 0, "velocity": 0, "duration": 96}, {"note": 64, "velocity": 112, "duration": 377}, {"note": 0, "velocity": 0, "duration": 103}, {"note": 64, "velocity": 100, "duration": 952}, {"note": 0, "velocity": 0, "duration": 608}, {"note": 59, "velocity": 89, "duration": 125}, {"note": 71, "velocity": 127, "duration": 175}, {"note": 0, "velocity": 0, "duration": 65}, {"note": 71, "velocity": 117, "duration": 162}, {"note": 0, "velocity": 0, "duration": 78}, {"note": 71, "velocity": 127, "duration": 164}, {"note": 0, "velocity": 0, "duration": 76}, {"note": 71, "velocity": 112, "duration": 51}, {"note": 0, "velocity": 0, "duration": 69}, {"note": 71, "velocity": 127, "duration": 246}, {"note": 0, "velocity": 0, "duration": 114}, {"note": 69, "velocity": 127, "duration": 324}, {"note": 69, "velocity": 117, "duration": 71}, {"note": 71, "velocity": 112, "duration": 67}, {"note": 69, "velocity": 122, "duration": 87}, {"note": 67, "velocity": 122, "duration": 140}, {"note": 0, "velocity": 0, "duration": 100}, {"note": 64, "velocity": 127, "duration": 126}, {"note": 0, "velocity": 0, "duration": 114}, {"note": 64, "velocity": 127, "duration": 130}, {"note": 0, "velocity": 0, "duration": 110}, {"note": 62, "velocity": 127, "duration": 69}, {"note": 64, "velocity": 122, "duration": 612}, {"note": 0, "velocity": 0, "duration": 348}, {"note": 59, "velocity": 107, "duration": 99}, {"note": 71, "velocity": 112, "duration": 132}, {"note": 0, "velocity": 0, "duration": 108}, {"note": 71, "velocity": 127, "duration": 380}, {"note": 0, "velocity": 0, "duration": 100}, {"note": 71, "velocity": 127, "duration": 80}, {"note": 0, "velocity": 0, "duration": 160}, {"note": 71, "velocity": 127, "duration": 237}, {"note": 69, "velocity": 127, "duration": 316}, {"note": 69, "velocity": 122, "duration": 59}, {"note": 0, "velocity": 0, "duration": 61}, {"note": 71, "velocity": 112, "duration": 63}, {"note": 69, "velocity": 117, "duration": 53}, {"note": 0, "velocity": 0, "duration": 67}, {"note": 67, "velocity": 127, "duration": 186}, {"note": 64, "velocity": 117, "duration": 138}, {"note": 0, "velocity": 0, "duration": 102}, {"note": 64, "velocity": 107, "duration": 98}, {"note": 67, "velocity": 112, "duration": 137}, {"note": 69, "velocity": 97, "duration": 107}, {"note": 71, "velocity": 127, "duration": 606}, {"note": 0, "velocity": 0, "duration": 354}, {"note": 59, "velocity": 107, "duration": 111}, {"note": 71, "velocity": 127, "duration": 162}, {"note": 0, "velocity": 0, "duration": 78}, {"note": 71, "velocity": 127, "duration": 152}, {"note": 0, "velocity": 0, "duration": 88}, {"note": 71, "velocity": 127, "duration": 145}, {"note": 0, "velocity": 0, "duration": 95}, {"note": 71, "velocity": 122, "duration": 45}, {"note": 0, "velocity": 0, "duration": 75}, {"note": 71, "velocity": 127, "duration": 291}, {"note": 0, "velocity": 0, "duration": 69}, {"note": 69, "velocity": 127, "duration": 407}, {"note": 69, "velocity": 127, "duration": 47}, {"note": 0, "velocity": 0, "duration": 73}, {"note": 71, "velocity": 112, "duration": 67}, {"note": 69, "velocity": 117, "duration": 93}, {"note": 67, "velocity": 112, "duration": 152}, {"note": 0, "velocity": 0, "duration": 88}, {"note": 64, "velocity": 127, "duration": 160}, {"note": 0, "velocity": 0, "duration": 80}, {"note": 64, "velocity": 127, "duration": 141}, {"note": 0, "velocity": 0, "duration": 99}, {"note": 62, "velocity": 122, "duration": 165}, {"note": 64, "velocity": 102, "duration": 611}, {"note": 0, "velocity": 0, "duration": 349}, {"note": 59, "velocity": 90, "duration": 91}, {"note": 71, "velocity": 127, "duration": 77}, {"note": 71, "velocity": 95, "duration": 58}, {"note": 0, "velocity": 0, "duration": 62}, {"note": 71, "velocity": 127, "duration": 155}, {"note": 0, "velocity": 0, "duration": 85}, {"note": 71, "velocity": 127, "duration": 187}, {"note": 71, "velocity": 127, "duration": 45}, {"note": 0, "velocity": 0, "duration": 75}, {"note": 71, "velocity": 127, "duration": 260}, {"note": 0, "velocity": 0, "duration": 100}, {"note": 69, "velocity": 120, "duration": 240}, {"note": 0, "velocity": 0, "duration": 120}, {"note": 69, "velocity": 127, "duration": 92}, {"note": 71, "velocity": 117, "duration": 93}, {"note": 69, "velocity": 117, "duration": 101}, {"note": 67, "velocity": 127, "duration": 152}, {"note": 0, "velocity": 0, "duration": 88}, {"note": 64, "velocity": 112, "duration": 158}, {"note": 0, "velocity": 0, "duration": 82}, {"note": 67, "velocity": 127, "duration": 139}, {"note": 0, "velocity": 0, "duration": 101}, {"note": 69, "velocity": 127, "duration": 72}, {"note": 0, "velocity": 0, "duration": 168}, {"note": 71, "velocity": 127, "duration": 586}, {"note": 0, "velocity": 0, "duration": 134}, {"note": 71, "velocity": 117, "duration": 170}, {"note": 0, "velocity": 0, "duration": 70}, {"note": 76, "velocity": 127, "duration": 161}, {"note": 0, "velocity": 0, "duration": 79}, {"note": 76, "velocity": 127, "duration": 168}, {"note": 0, "velocity": 0, "duration": 72}, {"note": 78, "velocity": 127, "duration": 180}, {"note": 76, "velocity": 127, "duration": 535}, {"note": 0, "velocity": 0, "duration": 425}, {"note": 71, "velocity": 122, "duration": 148}, {"note": 0, "velocity": 0, "duration": 92}, {"note": 76, "velocity": 127, "duration": 226}, {"note": 76, "velocity": 127, "duration": 350}, {"note": 0, "velocity": 0, "duration": 130}, {"note": 74, "velocity": 127, "duration": 122}, {"note": 72, "velocity": 107, "duration": 129}, {"note": 0, "velocity": 0, "duration": 111}, {"note": 74, "velocity": 127, "duration": 102}, {"note": 72, "velocity": 117, "duration": 527}, {"note": 0, "velocity": 0, "duration": 433}, {"note": 72, "velocity": 122, "duration": 147}, {"note": 0, "velocity": 0, "duration": 93}, {"note": 74, "velocity": 127, "duration": 155}, {"note": 0, "velocity": 0, "duration": 85}, {"note": 76, "velocity": 127, "duration": 120}, {"note": 0, "velocity": 0, "duration": 120}, {"note": 76, "velocity": 127, "duration": 140}, {"note": 74, "velocity": 127, "duration": 316}, {"note": 0, "velocity": 0, "duration": 284}, {"note": 67, "velocity": 100, "duration": 102}, {"note": 0, "velocity": 0, "duration": 138}, {"note": 74, "velocity": 127, "duration": 115}, {"note": 72, "velocity": 112, "duration": 120}, {"note": 71, "velocity": 102, "duration": 299}, {"note": 0, "velocity": 0, "duration": 61}, {"note": 69, "velocity": 112, "duration": 101}, {"note": 67, "velocity": 85, "duration": 93}, {"note": 69, "velocity": 112, "duration": 71}, {"note": 71, "velocity": 127, "duration": 540}, {"note": 0, "velocity": 0, "duration": 300}, {"note": 71, "velocity": 96, "duration": 88}, {"note": 76, "velocity": 112, "duration": 146}, {"note": 0, "velocity": 0, "duration": 94}, {"note": 76, "velocity": 122, "duration": 173}, {"note": 0, "velocity": 0, "duration": 67}, {"note": 78, "velocity": 127, "duration": 171}, {"note": 0, "velocity": 0, "duration": 69}, {"note": 78, "velocity": 117, "duration": 120}, {"note": 76, "velocity": 122, "duration": 719}, {"note": 0, "velocity": 0, "duration": 121}, {"note": 71, "velocity": 117, "duration": 88}, {"note": 0, "velocity": 0, "duration": 152}, {"note": 76, "velocity": 127, "duration": 193}, {"note": 76, "velocity": 127, "duration": 365}, {"note": 0, "velocity": 0, "duration": 115}, {"note": 74, "velocity": 127, "duration": 110}, {"note": 72, "velocity": 102, "duration": 111}, {"note": 0, "velocity": 0, "duration": 129}, {"note": 74, "velocity": 122, "duration": 113}, {"note": 72, "velocity": 99, "duration": 520}, {"note": 0, "velocity": 0, "duration": 440}, {"note": 67, "velocity": 102, "duration": 145}, {"note": 0, "velocity": 0, "duration": 95}, {"note": 67, "velocity": 107, "duration": 147}, {"note": 0, "velocity": 0, "duration": 93}, {"note": 67, "velocity": 97, "duration": 63}, {"note": 0, "velocity": 0, "duration": 177}, {"note": 71, "velocity": 127, "duration": 323}, {"note": 69, "velocity": 117, "duration": 350}, {"note": 0, "velocity": 0, "duration": 130}, {"note": 66, "velocity": 127, "duration": 133}, {"note": 0, "velocity": 0, "duration": 107}, {"note": 67, "velocity": 127, "duration": 152}, {"note": 66, "velocity": 99, "duration": 134}, {"note": 64, "velocity": 92, "duration": 996}, {"note": 0, "velocity": 0, "duration": 15804}, {"note": 71, "velocity": 117, "duration": 170}, {"note": 0, "velocity": 0, "duration": 70}, {"note": 76, "velocity": 127, "duration": 161}, {"note": 0, "velocity": 0, "duration": 79}, {"note": 76, "velocity": 127, "duration": 168}, {"note": 0, "velocity": 0, "duration": 72}, {"note": 78, "velocity": 127, "duration": 180}, {"note": 76, "velocity": 127, "duration": 535}, {"note": 0, "velocity": 0, "duration": 425}, {"note": 71, "velocity": 122, "duration": 148}, {"note": 0, "velocity": 0, "duration": 92}, {"note": 76, "velocity": 127, "duration": 226}, {"note": 76, "velocity": 127, "duration": 350}, {"note": 0, "velocity": 0, "duration": 130}, {"note": 74, "velocity": 127, "duration": 122}, {"note": 72, "velocity": 107, "duration": 129}, {"note": 0, "velocity": 0, "duration": 111}, {"note": 74, "velocity": 127, "duration": 102}, {"note": 72, "velocity": 117, "duration": 527}, {"note": 0, "velocity": 0, "duration": 433}, {"note": 72, "velocity": 122, "duration": 147}, {"note": 0, "velocity": 0, "duration": 93}, {"note": 74, "velocity": 127, "duration": 155}, {"note": 0, "velocity": 0, "duration": 85}, {"note": 76, "velocity": 127, "duration": 120}, {"note": 0, "velocity": 0, "duration": 120}, {"note": 76, "velocity": 127, "duration": 140}, {"note": 74, "velocity": 127, "duration": 316}, {"note": 0, "velocity": 0, "duration": 284}, {"note": 67, "velocity": 100, "duration": 102}, {"note": 0, "velocity": 0, "duration": 138}, {"note": 74, "velocity": 127, "duration": 115}, {"note": 72, "velocity": 112, "duration": 120}, {"note": 71, "velocity": 102, "duration": 299}, {"note": 0, "velocity": 0, "duration": 61}, {"note": 69, "velocity": 112, "duration": 101}, {"note": 67, "velocity": 85, "duration": 93}, {"note": 69, "velocity": 112, "duration": 71}, {"note": 71, "velocity": 127, "duration": 540}, {"note": 0, "velocity": 0, "duration": 300}, {"note": 71, "velocity": 96, "duration": 88}, {"note": 76, "velocity": 112, "duration": 146}, {"note": 0, "velocity": 0, "duration": 94}, {"note": 76, "velocity": 122, "duration": 173}, {"note": 0, "velocity": 0, "duration": 67}, {"note": 78, "velocity": 127, "duration": 171}, {"note": 0, "velocity": 0, "duration": 69}, {"note": 78, "velocity": 117, "duration": 120}, {"note": 76, "velocity": 122, "duration": 719}, {"note": 0, "velocity": 0, "duration": 121}, {"note": 71, "velocity": 117, "duration": 88}, {"note": 0, "velocity": 0, "duration": 152}, {"note": 76, "velocity": 127, "duration": 193}, {"note": 76, "velocity": 127, "duration": 365}, {"note": 0, "velocity": 0, "duration": 115}, {"note": 74, "velocity": 127, "duration": 110}, {"note": 72, "velocity": 102, "duration": 111}, {"note": 0, "velocity": 0, "duration": 129}, {"note": 74, "velocity": 122, "duration": 113}, {"note": 72, "velocity": 99, "duration": 520}, {"note": 0, "velocity": 0, "duration": 440}, {"note": 67, "velocity": 102, "duration": 145}, {"note": 0, "velocity": 0, "duration": 95}, {"note": 67, "velocity": 107, "duration": 147}, {"note": 0, "velocity": 0, "duration": 93}, {"note": 67, "velocity": 97, "duration": 63}, {"note": 0, "velocity": 0, "duration": 177}, {"note": 71, "velocity": 127, "duration": 323}, {"note": 69, "velocity": 117, "duration": 350}, {"note": 0, "velocity": 0, "duration": 130}, {"note": 66, "velocity": 127, "duration": 133}, {"note": 0, "velocity": 0, "duration": 107}, {"note": 67, "velocity": 127, "duration": 152}, {"note": 66, "velocity": 99, "duration": 134}, {"note": 64, "velocity": 92, "duration": 996}]]