[[{"note": 64, "velocity": 127, "duration": 284}, {"note": 0, "velocity": 0, "duration": 196}, {"note": 59, "velocity": 127, "duration": 312}, {"note": 0, "velocity": 0, "duration": 168}, {"note": 62, "velocity": 127, "duration": 250}, {"note": 0, "velocity": 0, "duration": 230}, {"note": 59, "velocity": 127, "duration": 184}, {"note": 57, "velocity": 127, "duration": 325}, {"note": 0, "velocity": 0, "duration": 155}, {"note": 55, "velocity": 112, "duration": 91}, {"note": 0, "velocity": 0, "duration": 149}, {"note": 57, "velocity": 127, "duration": 188}, {"note": 55, "velocity": 102, "duration": 187}, {"note": 57, "velocity": 127, "duration": 217}, {"note": 57, "velocity": 127, "duration": 98}, {"note": 55, "velocity": 100, "duration": 97}, {"note": 57, "velocity": 122, "duration": 146}, {"note": 0, "velocity": 0, "duration": 94}, {"note": 59, "velocity": 112, "duration": 127}, {"note": 59, "velocity": 127, "duration": 127}, {"note": 0, "velocity": 0, "duration": 113}, {"note": 64, "velocity": 122, "duration": 316}, {"note": 0, "velocity": 0, "duration": 164}, {"note": 59, "velocity": 117, "duration": 245}, {"note": 0, "velocity": 0, "duration": 235}, {"note": 62, "velocity": 127, "duration": 266}, {"note": 0, "velocity": 0, "duration": 214}, {"note": 59, "velocity": 127, "duration": 213}, {"note": 57, "velocity": 102, "duration": 205}, {"note": 0, "velocity": 0, "duration": 275}, {"note": 55, "velocity": 112, "duration": 137}, {"note": 0, "velocity": 0, "duration": 103}, {"note": 57, "velocity": 117, "duration": 152}, {"note": 0, "velocity": 0, "duration": 88}, {"note": 55, "velocity": 96, "duration": 135}, {"note": 0, "velocity": 0, "duration": 105}, {"note": 58, "velocity": 127, "duration": 168}, {"note": 0, "velocity": 0, "duration": 72}, {"note": 57, "velocity": 122, "duration": 112}, {"note": 55, "velocity": 99, "duration": 119}, {"note": 57, "velocity": 127, "duration": 204}, {"note": 59, "velocity": 127, "duration": 172}, {"note": 0, "velocity": 0, "duration": 68}, {"note": 52, "velocity": 117, "duration": 229}, {"note": 54, "velocity": 122, "duration": 225}, {"note": 55, "velocity": 99, "duration": 215}, {"note": 52, "velocity": 112, "duration": 252}, {"note": 58, "velocity": 127, "duration": 228}, {"note": 57, "velocity": 122, "duration": 247}, {"note": 55, "velocity": 112, "duration": 246}, {"note": 57, "velocity": 122, "duration": 240}, {"note": 57, "velocity": 112, "duration": 210}, {"note": 52, "velocity": 102, "duration": 265}, {"note": 0, "velocity": 0, "duration": 5255}, {"note": 64, "velocity": 127, "duration": 284}, {"note": 0, "velocity": 0, "duration": 196}, {"note": 59, "velocity": 127, "duration": 312}, {"note": 0, "velocity": 0, "duration": 168}, {"note": 62, "velocity": 127, "duration": 250}, {"note": 0, "velocity": 0, "duration": 230}, {"note": 59, "velocity": 127, "duration": 184}, {"note": 57, "velocity": 127, "duration": 325}, {"note": 0, "velocity": 0, "duration": 155}, {"note": 55, "velocity": 112, "duration": 91}, {"note": 0, "velocity": 0, "duration": 149}, {"note": 57, "velocity": 127, "duration": 188}, {"note": 55, "velocity": 102, "duration": 187}, {"note": 57, "velocity": 127, "duration": 217}, {"note": 57, "velocity": 127, "duration": 98}, {"note": 55, "velocity": 100, "duration": 97}, {"note": 57, "velocity": 122, "duration": 146}, {"note": 0, "velocity": 0, "duration": 94}, {"note": 59, "velocity": 112, "duration": 127}, {"note": 59, "velocity": 127, "duration": 127}, {"note": 0, "velocity": 0, "duration": 113}, {"note": 64, "velocity": 122, "duration": 316}, {"note": 0, "velocity": 0, "duration": 164}, {"note": 59, "velocity": 117, "duration": 245}, {"note": 0, "velocity": 0, "duration": 235}, {"note": 62, "velocity": 127, "duration": 266}, {"note": 0, "velocity": 0, "duration": 214}, {"note": 59, "velocity": 127, "duration": 213}, {"note": 57, "velocity": 102, "duration": 205}, {"note": 0, "velocity": 0, "duration": 275}, {"note": 55, "velocity": 112, "duration": 137}, {"note": 0, "velocity": 0, "duration": 103}, {"note": 57, "velocity": 117, "duration": 152}, {"note": 0, "velocity": 0, "duration": 88}, {"note": 55, "velocity": 96, "duration": 135}, {"note": 0, "velocity": 0, "duration": 105}, {"note": 58, "velocity": 127, "duration": 168}, {"note": 0, "velocity": 0, "duration": 72}, {"note": 57, "velocity": 122, "duration": 112}, {"note": 55, "velocity": 99, "duration": 119}, {"note": 57, "velocity": 127, "duration": 204}, {"note": 59, "velocity": 127, "duration": 172}, {"note": 0, "velocity": 0, "duration": 68}, {"note": 52, "velocity": 117, "duration": 229}, {"note": 54, "velocity": 122, "duration": 225}, {"note": 55, "velocity": 99, "duration": 215}, {"note": 52, "velocity": 112, "duration": 252}, {"note": 58, "velocity": 127, "duration": 228}, {"note": 57, "velocity": 122, "duration": 247}, {"note": 55, "velocity": 112, "duration": 246}, {"note": 57, "velocity": 122, "duration": 240}, {"note": 57, "velocity": 112, "duration": 210}, {"note": 52, "velocity": 102, "duration": 265}, {"note": 0, "velocity": 0, "duration": 5735}, {"note": 64, "velocity": 127, "duration": 122}, {"note": 0, "velocity": 0, "duration": 118}, {"note": 64, "velocity": 112, "duration": 125}, {"note": 64, "velocity": 127, "duration": 5}, {"note": 0, "velocity": 0, "duration": 355}, {"note": 62, "velocity": 112, "duration": 150}, {"note": 0, "velocity": 0, "duration": 90}, {"note": 62, "velocity": 127, "duration": 161}, {"note": 0, "velocity": 0, "duration": 79}, {"note": 60, "velocity": 127, "duration": 388}, {"note": 0, "velocity": 0, "duration": 332}, {"note": 64, "velocity": 117, "duration": 159}, {"note": 0, "velocity": 0, "duration": 81}, {"note": 64, "velocity": 112, "duration": 53}, {"note": 0, "velocity": 0, "duration": 67}, {"note": 64, "velocity": 117, "duration": 195}, {"note": 0, "velocity": 0, "duration": 165}, {"note": 62, "velocity": 122, "duration": 160}, {"note": 0, "velocity": 0, "duration": 80}, {"note": 62, "velocity": 122, "duration": 118}, {"note": 0, "velocity": 0, "duration": 122}, {"note": 64, "velocity": 127, "duration": 177}, {"note": 0, "velocity": 0, "duration": 63}, {"note": 59, "velocity": 117, "duration": 1010}, {"note": 0, "velocity": 0, "duration": 190}, {"note": 60, "velocity": 127, "duration": 227}, {"note": 59, "velocity": 96, "duration": 237}, {"note": 57, "velocity": 102, "duration": 1094}, {"note": 0, "velocity": 0, "duration": 1546}, {"note": 64, "velocity": 127, "duration": 78}, {"note": 64, "velocity": 127, "duration": 126}, {"note": 0, "velocity": 0, "duration": 114}, {"note": 64, "velocity": 127, "duration": 155}, {"note": 0, "velocity": 0, "duration": 205}, {"note": 62, "velocity": 122, "duration": 136}, {"note": 0, "velocity": 0, "duration": 104}, {"note": 62, "velocity": 127, "duration": 176}, {"note": 0, "velocity": 0, "duration": 144}, {"note": 60, "velocity": 112, "duration": 496}, {"note": 0, "velocity": 0, "duration": 144}, {"note": 64, "velocity": 127, "duration": 86}, {"note": 64, "velocity": 102, "duration": 112}, {"note": 0, "velocity": 0, "duration": 128}, {"note": 64, "velocity": 127, "duration": 172}, {"note": 0, "velocity": 0, "duration": 188}, {"note": 62, "velocity": 117, "duration": 120}, {"note": 0, "velocity": 0, "duration": 120}, {"note": 62, "velocity": 127, "duration": 134}, {"note": 0, "velocity": 0, "duration": 106}, {"note": 64, "velocity": 122, "duration": 59}, {"note": 0, "velocity": 0, "duration": 181}, {"note": 59, "velocity": 127, "duration": 714}, {"note": 0, "velocity": 0, "duration": 486}, {"note": 60, "velocity": 127, "duration": 194}, {"note": 59, "velocity": 127, "duration": 236}, {"note": 57, "velocity": 97, "duration": 1010}, {"note": 0, "velocity": 0, "duration": 1870}, {"note": 55, "velocity": 97, "duration": 96}, {"note": 0, "velocity": 0, "duration": 144}, {"note": 58, "velocity": 96, "duration": 131}, {"note": 0, "velocity": 0, "duration": 109}, {"note": 57, "velocity": 95, "duration": 93}, {"note": 55, "velocity": 76, "duration": 88}, {"note": 57, "velocity": 127, "duration": 185}, {"note": 59, "velocity": 127, "duration": 232}, {"note": 0, "velocity": 0, "duration": 2648}, {"note": 55, "velocity": 107, "duration": 105}, {"note": 0, "velocity": 0, "duration": 135}, {"note": 58, "velocity": 127, "duration": 125}, {"note": 0, "velocity": 0, "duration": 115}, {"note": 57, "velocity": 112, "duration": 106}, {"note": 55, "velocity": 96, "duration": 70}, {"note": 57, "velocity": 127, "duration": 181}, {"note": 59, "velocity": 127, "duration": 198}, {"note": 0, "velocity": 0, "duration": 2682}, {"note": 55, "velocity": 117, "duration": 93}, {"note": 0, "velocity": 0, "duration": 147}, {"note": 58, "velocity": 127, "duration": 140}, {"note": 0, "velocity": 0, "duration": 100}, {"note": 57, "velocity": 99, "duration": 100}, {"note": 55, "velocity": 102, "duration": 111}, {"note": 57, "velocity": 127, "duration": 204}, {"note": 59, "velocity": 102, "duration": 230}, {"note": 0, "velocity": 0, "duration": 2650}, {"note": 55, "velocity": 102, "duration": 116}, {"note": 0, "velocity": 0, "duration": 124}, {"note": 58, "velocity": 127, "duration": 142}, {"note": 0, "velocity": 0, "duration": 98}, {"note": 57, "velocity": 127, "duration": 107}, {"note": 55, "velocity": 95, "duration": 89}, {"note": 57, "velocity": 127, "duration": 175}, {"note": 0, "velocity": 0, "duration": 65}, {"note": 59, "velocity": 127, "duration": 160}, {"note": 0, "velocity": 0, "duration": 2240}, {"note": 71, "velocity": 127, "duration": 1476}, {"note": 0, "velocity": 0, "duration": 204}, {"note": 71, "velocity": 127, "duration": 151}, {"note": 0, "velocity": 0, "duration": 329}, {"note": 64, "velocity": 127, "duration": 155}, {"note": 0, "velocity": 0, "duration": 325}, {"note": 67, "velocity": 127, "duration": 141}, {"note": 0, "velocity": 0, "duration": 99}, {"note": 69, "velocity": 127, "duration": 114}, {"note": 0, "velocity": 0, "duration": 126}, {"note": 71, "velocity": 127, "duration": 140}, {"note": 0, "velocity": 0, "duration": 100}, {"note": 69, "velocity": 127, "duration": 203}, {"note": 0, "velocity": 0, "duration": 277}, {"note": 67, "velocity": 122, "duration": 102}, {"note": 0, "velocity": 0, "duration": 138}, {"note": 69, "velocity": 127, "duration": 110}, {"note": 0, "velocity": 0, "duration": 130}, {"note": 67, "velocity": 117, "duration": 129}, {"note": 0, "velocity": 0, "duration": 111}, {"note": 70, "velocity": 127, "duration": 141}, {"note": 0, "velocity": 0, "duration": 99}, {"note": 69, "velocity": 127, "duration": 100}, {"note": 67, "velocity": 102, "duration": 83}, {"note": 69, "velocity": 127, "duration": 181}, {"note": 71, "velocity": 127, "duration": 147}, {"note": 0, "velocity": 0, "duration": 93}, {"note": 71, "velocity": 127, "duration": 162}, {"note": 0, "velocity": 0, "duration": 318}, {"note": 64, "velocity": 122, "duration": 184}, {"note": 0, "velocity": 0, "duration": 296}, {"note": 67, "velocity": 127, "duration": 154}, {"note": 0, "velocity": 0, "duration": 86}, {"note": 69, "velocity": 127, "duration": 123}, {"note": 0, "velocity": 0, "duration": 117}, {"note": 71, "velocity": 127, "duration": 164}, {"note": 0, "velocity": 0, "duration": 76}, {"note": 69, "velocity": 127, "duration": 185}, {"note": 0, "velocity": 0, "duration": 295}, {"note": 67, "velocity": 117, "duration": 134}, {"note": 0, "velocity": 0, "duration": 106}, {"note": 69, "velocity": 127, "duration": 155}, {"note": 0, "velocity": 0, "duration": 85}, {"note": 67, "velocity": 112, "duration": 143}, {"note": 0, "velocity": 0, "duration": 97}, {"note": 70, "velocity": 127, "duration": 144}, {"note": 0, "velocity": 0, "duration": 96}, {"note": 69, "velocity": 127, "duration": 103}, {"note": 67, "velocity": 100, "duration": 97}, {"note": 69, "velocity": 127, "duration": 171}, {"note": 0, "velocity": 0, "duration": 69}, {"note": 71, "velocity": 127, "duration": 170}, {"note": 0, "velocity": 0, "duration": 70}, {"note": 71, "velocity": 122, "duration": 207}, {"note": 76, "velocity": 127, "duration": 314}, {"note": 0, "velocity": 0, "duration": 166}, {"note": 71, "velocity": 122, "duration": 240}, {"note": 74, "velocity": 127, "duration": 275}, {"note": 0, "velocity": 0, "duration": 205}, {"note": 71, "velocity": 127, "duration": 208}, {"note": 69, "velocity": 117, "duration": 357}, {"note": 0, "velocity": 0, "duration": 123}, {"note": 67, "velocity": 112, "duration": 146}, {"note": 0, "velocity": 0, "duration": 94}, {"note": 69, "velocity": 127, "duration": 156}, {"note": 0, "velocity": 0, "duration": 84}, {"note": 67, "velocity": 102, "duration": 126}, {"note": 0, "velocity": 0, "duration": 114}, {"note": 71, "velocity": 127, "duration": 217}, {"note": 69, "velocity": 122, "duration": 109}, {"note": 67, "velocity": 107, "duration": 95}, {"note": 69, "velocity": 127, "duration": 179}, {"note": 0, "velocity": 0, "duration": 61}, {"note": 71, "velocity": 127, "duration": 173}, {"note": 0, "velocity": 0, "duration": 67}, {"note": 71, "velocity": 117, "duration": 234}, {"note": 76, "velocity": 127, "duration": 424}, {"note": 71, "velocity": 122, "duration": 257}, {"note": 74, "velocity": 127, "duration": 295}, {"note": 0, "velocity": 0, "duration": 185}, {"note": 71, "velocity": 127, "duration": 218}, {"note": 69, "velocity": 127, "duration": 252}, {"note": 0, "velocity": 0, "duration": 228}, {"note": 67, "velocity": 112, "duration": 124}, {"note": 0, "velocity": 0, "duration": 116}, {"note": 69, "velocity": 122, "duration": 142}, {"note": 0, "velocity": 0, "duration": 98}, {"note": 67, "velocity": 112, "duration": 133}, {"note": 0, "velocity": 0, "duration": 107}, {"note": 71, "velocity": 127, "duration": 202}, {"note": 69, "velocity": 117, "duration": 102}, {"note": 67, "velocity": 102, "duration": 96}, {"note": 69, "velocity": 127, "duration": 174}, {"note": 0, "velocity": 0, "duration": 66}, {"note": 71, "velocity": 122, "duration": 214}, {"note": 71, "velocity": 127, "duration": 181}, {"note": 0, "velocity": 0, "duration": 299}, {"note": 64, "velocity": 122, "duration": 221}, {"note": 0, "velocity": 0, "duration": 259}, {"note": 67, "velocity": 127, "duration": 163}, {"note": 0, "velocity": 0, "duration": 77}, {"note": 69, "velocity": 127, "duration": 147}, {"note": 0, "velocity": 0, "duration": 93}, {"note": 71, "velocity": 127, "duration": 171}, {"note": 0, "velocity": 0, "duration": 69}, {"note": 69, "velocity": 127, "duration": 217}, {"note": 0, "velocity": 0, "duration": 263}, {"note": 67, "velocity": 127, "duration": 107}, {"note": 0, "velocity": 0, "duration": 133}, {"note": 69, "velocity": 122, "duration": 136}, {"note": 0, "velocity": 0, "duration": 104}, {"note": 67, "velocity": 112, "duration": 122}, {"note": 0, "velocity": 0, "duration": 118}, {"note": 71, "velocity": 127, "duration": 156}, {"note": 0, "velocity": 0, "duration": 84}, {"note": 69, "velocity": 117, "duration": 97}, {"note": 67, "velocity": 99, "duration": 92}, {"note": 69, "velocity": 127, "duration": 165}, {"note": 0, "velocity": 0, "duration": 75}, {"note": 71, "velocity": 127, "duration": 129}, {"note": 0, "velocity": 0, "duration": 111}, {"note": 71, "velocity": 122, "duration": 189}, {"note": 0, "velocity": 0, "duration": 291}, {"note": 64, "velocity": 122, "duration": 179}, {"note": 0, "velocity": 0, "duration": 301}, {"note": 67, "velocity": 127, "duration": 156}, {"note": 0, "velocity": 0, "duration": 84}, {"note": 69, "velocity": 127, "duration": 105}, {"note": 0, "velocity": 0, "duration": 135}, {"note": 71, "velocity": 127, "duration": 145}, {"note": 0, "velocity": 0, "duration": 95}, {"note": 69, "velocity": 127, "duration": 222}, {"note": 0, "velocity": 0, "duration": 258}, {"note": 67, "velocity": 127, "duration": 133}, {"note": 0, "velocity": 0, "duration": 107}, {"note": 69, "velocity": 127, "duration": 139}, {"note": 0, "velocity": 0, "duration": 101}, {"note": 67, "velocity": 127, "duration": 132}, {"note": 0, "velocity": 0, "duration": 108}, {"note": 70, "velocity": 127, "duration": 146}, {"note": 0, "velocity": 0, "duration": 94}, {"note": 69, "velocity": 127, "duration": 105}, {"note": 67, "velocity": 112, "duration": 100}, {"note": 69, "velocity": 127, "duration": 148}, {"note": 0, "velocity": 0, "duration": 92}, {"note": 71, "velocity": 127, "duration": 129}, {"note": 0, "velocity": 0, "duration": 111}, {"note": 64, "velocity": 127, "duration": 255}, {"note": 66, "velocity": 127, "duration": 178}, {"note": 0, "velocity": 0, "duration": 62}, {"note": 67, "velocity": 122, "duration": 208}, {"note": 64, "velocity": 107, "duration": 193}, {"note": 70, "velocity": 127, "duration": 194}, {"note": 69, "velocity": 122, "duration": 221}, {"note": 67, "velocity": 122, "duration": 200}, {"note": 69, "velocity": 127, "duration": 173}, {"note": 0, "velocity": 0, "duration": 307}, {"note": 64, "velocity": 112, "duration": 893}, {"note": 0, "velocity": 0, "duration": 5107}, {"note": 64, "velocity": 127, "duration": 78}, {"note": 64, "velocity": 127, "duration": 126}, {"note": 0, "velocity": 0, "duration": 114}, {"note": 64, "velocity": 127, "duration": 155}, {"note": 0, "velocity": 0, "duration": 205}, {"note": 62, "velocity": 122, "duration": 136}, {"note": 0, "velocity": 0, "duration": 104}, {"note": 62, "velocity": 127, "duration": 176}, {"note": 0, "velocity": 0, "duration": 144}, {"note": 60, "velocity": 112, "duration": 496}, {"note": 0, "velocity": 0, "duration": 144}, {"note": 64, "velocity": 127, "duration": 86}, {"note": 64, "velocity": 102, "duration": 112}, {"note": 0, "velocity": 0, "duration": 128}, {"note": 64, "velocity": 127, "duration": 172}, {"note": 0, "velocity": 0, "duration": 188}, {"note": 62, "velocity": 117, "duration": 120}, {"note": 0, "velocity": 0, "duration": 120}, {"note": 62, "velocity": 127, "duration": 134}, {"note": 0, "velocity": 0, "duration": 106}, {"note": 64, "velocity": 122, "duration": 59}, {"note": 0, "velocity": 0, "duration": 181}, {"note": 59, "velocity": 127, "duration": 714}, {"note": 0, "velocity": 0, "duration": 486}, {"note": 60, "velocity": 127, "duration": 194}, {"note": 59, "velocity": 127, "duration": 236}, {"note": 57, "velocity": 97, "duration": 1010}, {"note": 0, "velocity": 0, "duration": 1630}, {"note": 64, "velocity": 127, "duration": 78}, {"note": 64, "velocity": 127, "duration": 126}, {"note": 0, "velocity": 0, "duration": 114}, {"note": 64, "velocity": 127, "duration": 155}, {"note": 0, "velocity": 0, "duration": 205}, {"note": 62, "velocity": 122, "duration": 136}, {"note": 0, "velocity": 0, "duration": 104}, {"note": 62, "velocity": 127, "duration": 176}, {"note": 0, "velocity": 0, "duration": 144}, {"note": 60, "velocity": 112, "duration": 496}, {"note": 0, "velocity": 0, "duration": 144}, {"note": 64, "velocity": 127, "duration": 86}, {"note": 64, "velocity": 102, "duration": 112}, {"note": 0, "velocity": 0, "duration": 128}, {"note": 64, "velocity": 127, "duration": 172}, {"note": 0, "velocity": 0, "duration": 188}, {"note": 62, "velocity": 117, "duration": 120}, {"note": 0, "velocity": 0, "duration": 120}, {"note": 62, "velocity": 127, "duration": 134}, {"note": 0, "velocity": 0, "duration": 106}, {"note": 64, "velocity": 122, "duration": 59}, {"note": 0, "velocity": 0, "duration": 181}, {"note": 59, "velocity": 127, "duration": 714}, {"note": 0, "velocity": 0, "duration": 486}, {"note": 60, "velocity": 127, "duration": 194}, {"note": 59, "velocity": 127, "duration": 236}, {"note": 57, "velocity": 97, "duration": 1010}, {"note": 0, "velocity": 0, "duration": 1870}, {"note": 55, "velocity": 97, "duration": 96}, {"note": 0, "velocity": 0, "duration": 144}, {"note": 58, "velocity": 96, "duration": 131}, {"note": 0, "velocity": 0, "duration": 109}, {"note": 57, "velocity": 95, "duration": 93}, {"note": 55, "velocity": 76, "duration": 88}, {"note": 57, "velocity": 127, "duration": 185}, {"note": 55, "velocity": 127, "duration": 232}, {"note": 0, "velocity": 0, "duration": 2648}, {"note": 55, "velocity": 107, "duration": 105}, {"note": 0, "velocity": 0, "duration": 135}, {"note": 58, "velocity": 127, "duration": 125}, {"note": 0, "velocity": 0, "duration": 115}, {"note": 57, "velocity": 112, "duration": 106}, {"note": 55, "velocity": 96, "duration": 70}, {"note": 57, "velocity": 127, "duration": 181}, {"note": 59, "velocity": 127, "duration": 198}, {"note": 0, "velocity": 0, "duration": 2682}, {"note": 55, "velocity": 117, "duration": 93}, {"note": 0, "velocity": 0, "duration": 147}, {"note": 58, "velocity": 127, "duration": 140}, {"note": 0, "velocity": 0, "duration": 100}, {"note": 57, "velocity": 99, "duration": 100}, {"note": 55, "velocity": 102, "duration": 111}, {"note": 57, "velocity": 127, "duration": 204}, {"note": 59, "velocity": 102, "duration": 230}, {"note": 0, "velocity": 0, "duration": 2650}, {"note": 55, "velocity": 102, "duration": 116}, {"note": 0, "velocity": 0, "duration": 124}, {"note": 58, "velocity": 127, "duration": 142}, {"note": 0, "velocity": 0, "duration": 98}, {"note": 57, "velocity": 127, "duration": 107}, {"note": 55, "velocity": 95, "duration": 89}, {"note": 57, "velocity": 127, "duration": 175}, {"note": 0, "velocity": 0, "duration": 65}, {"note": 59, "velocity": 127, "duration": 160}, {"note": 0, "velocity": 0, "duration": 3920}, {"note": 64, "velocity": 127, "duration": 284}, {"note": 0, "velocity": 0, "duration": 196}, {"note": 59, "velocity": 127, "duration": 312}, {"note": 0, "velocity": 0, "duration": 168}, {"note": 62, "velocity": 127, "duration": 250}, {"note": 0, "velocity": 0, "duration": 230}, {"note": 59, "velocity": 127, "duration": 184}, {"note": 57, "velocity": 127, "duration": 325}, {"note": 0, "velocity": 0, "duration": 155}, {"note": 55, "velocity": 112, "duration": 91}, {"note": 0, "velocity": 0, "duration": 149}, {"note": 57, "velocity": 127, "duration": 188}, {"note": 55, "velocity": 102, "duration": 187}, {"note": 57, "velocity": 127, "duration": 217}, {"note": 57, "velocity": 127, "duration": 98}, {"note": 55, "velocity": 100, "duration": 97}, {"note": 57, "velocity": 122, "duration": 146}, {"note": 0, "velocity": 0, "duration": 94}, {"note": 59, "velocity": 112, "duration": 127}, {"note": 59, "velocity": 127, "duration": 127}, {"note": 0, "velocity": 0, "duration": 113}, {"note": 64, "velocity": 122, "duration": 316}, {"note": 0, "velocity": 0, "duration": 164}, {"note": 59, "velocity": 117, "duration": 245}, {"note": 0, "velocity": 0, "duration": 235}, {"note": 62, "velocity": 127, "duration": 266}, {"note": 0, "velocity": 0, "duration": 214}, {"note": 59, "velocity": 127, "duration": 213}, {"note": 57, "velocity": 102, "duration": 205}, {"note": 0, "velocity": 0, "duration": 275}, {"note": 55, "velocity": 112, "duration": 137}, {"note": 0, "velocity": 0, "duration": 103}, {"note": 57, "velocity": 117, "duration": 152}, {"note": 0, "velocity": 0, "duration": 88}, {"note": 55, "velocity": 96, "duration": 135}, {"note": 0, "velocity": 0, "duration": 105}, {"note": 58, "velocity": 127, "duration": 168}, {"note": 0, "velocity": 0, "duration": 72}, {"note": 57, "velocity": 122, "duration": 112}, {"note": 55, "velocity": 99, "duration": 119}, {"note": 57, "velocity": 127, "duration": 204}, {"note": 59, "velocity": 127, "duration": 172}, {"note": 0, "velocity": 0, "duration": 68}, {"note": 52, "velocity": 117, "duration": 229}, {"note": 54, "velocity": 122, "duration": 225}, {"note": 55, "velocity": 99, "duration": 215}, {"note": 52, "velocity": 112, "duration": 252}, {"note": 58, "velocity": 127, "duration": 228}, {"note": 57, "velocity": 122, "duration": 247}, {"note": 55, "velocity": 112, "duration": 246}, {"note": 57, "velocity": 122, "duration": 240}, {"note": 57, "velocity": 112, "duration": 210}, {"note": 52, "velocity": 102, "duration": 265}, {"note": 0, "velocity": 0, "duration": 12935}, {"note": 71, "velocity": 127, "duration": 151}, {"note": 0, "velocity": 0, "duration": 329}, {"note": 64, "velocity": 127, "duration": 155}, {"note": 0, "velocity": 0, "duration": 325}, {"note": 67, "velocity": 127, "duration": 141}, {"note": 0, "velocity": 0, "duration": 99}, {"note": 69, "velocity": 127, "duration": 114}, {"note": 0, "velocity": 0, "duration": 126}, {"note": 71, "velocity": 127, "duration": 140}, {"note": 0, "velocity": 0, "duration": 100}, {"note": 69, "velocity": 127, "duration": 203}, {"note": 0, "velocity": 0, "duration": 277}, {"note": 67, "velocity": 122, "duration": 102}, {"note": 0, "velocity": 0, "duration": 138}, {"note": 69, "velocity": 127, "duration": 110}, {"note": 0, "velocity": 0, "duration": 130}, {"note": 67, "velocity": 117, "duration": 129}, {"note": 0, "velocity": 0, "duration": 111}, {"note": 70, "velocity": 127, "duration": 141}, {"note": 0, "velocity": 0, "duration": 99}, {"note": 69, "velocity": 127, "duration": 100}, {"note": 67, "velocity": 102, "duration": 83}, {"note": 69, "velocity": 127, "duration": 181}, {"note": 71, "velocity": 127, "duration": 147}, {"note": 0, "velocity": 0, "duration": 93}, {"note": 71, "velocity": 127, "duration": 162}, {"note": 0, "velocity": 0, "duration": 318}, {"note": 64, "velocity": 122, "duration": 184}, {"note": 0, "velocity": 0, "duration": 296}, {"note": 67, "velocity": 127, "duration": 154}, {"note": 0, "velocity": 0, "duration": 86}, {"note": 69, "velocity": 127, "duration": 123}, {"note": 0, "velocity": 0, "duration": 117}, {"note": 71, "velocity": 127, "duration": 164}, {"note": 0, "velocity": 0, "duration": 76}, {"note": 69, "velocity": 127, "duration": 185}, {"note": 0, "velocity": 0, "duration": 295}, {"note": 67, "velocity": 117, "duration": 134}, {"note": 0, "velocity": 0, "duration": 106}, {"note": 69, "velocity": 127, "duration": 155}, {"note": 0, "velocity": 0, "duration": 85}, {"note": 67, "velocity": 112, "duration": 143}, {"note": 0, "velocity": 0, "duration": 97}, {"note": 70, "velocity": 127, "duration": 144}, {"note": 0, "velocity": 0, "duration": 96}, {"note": 69, "velocity": 127, "duration": 103}, {"note": 67, "velocity": 100, "duration": 97}, {"note": 69, "velocity": 127, "duration": 171}, {"note": 0, "velocity": 0, "duration": 69}, {"note": 71, "velocity": 127, "duration": 170}, {"note": 0, "velocity": 0, "duration": 70}, {"note": 71, "velocity": 122, "duration": 207}, {"note": 76, "velocity": 127, "duration": 314}, {"note": 0, "velocity": 0, "duration": 166}, {"note": 71, "velocity": 122, "duration": 240}, {"note": 74, "velocity": 127, "duration": 275}, {"note": 0, "velocity": 0, "duration": 205}, {"note": 71, "velocity": 127, "duration": 208}, {"note": 69, "velocity": 117, "duration": 357}, {"note": 0, "velocity": 0, "duration": 123}, {"note": 67, "velocity": 112, "duration": 146}, {"note": 0, "velocity": 0, "duration": 94}, {"note": 69, "velocity": 127, "duration": 156}, {"note": 0, "velocity": 0, "duration": 84}, {"note": 67, "velocity": 102, "duration": 126}, {"note": 0, "velocity": 0, "duration": 114}, {"note": 71, "velocity": 127, "duration": 217}, {"note": 69, "velocity": 122, "duration": 109}, {"note": 67, "velocity": 107, "duration": 95}, {"note": 69, "velocity": 127, "duration": 179}, {"note": 0, "velocity": 0, "duration": 61}, {"note": 71, "velocity": 127, "duration": 173}, {"note": 0, "velocity": 0, "duration": 67}, {"note": 71, "velocity": 117, "duration": 234}, {"note": 76, "velocity": 127, "duration": 424}, {"note": 71, "velocity": 122, "duration": 257}, {"note": 74, "velocity": 127, "duration": 295}, {"note": 0, "velocity": 0, "duration": 185}, {"note": 71, "velocity": 127, "duration": 218}, {"note": 69, "velocity": 127, "duration": 252}, {"note": 0, "velocity": 0, "duration": 228}, {"note": 67, "velocity": 112, "duration": 124}, {"note": 0, "velocity": 0, "duration": 116}, {"note": 69, "velocity": 122, "duration": 142}, {"note": 0, "velocity": 0, "duration": 98}, {"note": 67, "velocity": 112, "duration": 133}, {"note": 0, "velocity": 0, "duration": 107}, {"note": 71, "velocity": 127, "duration": 202}, {"note": 69, "velocity": 117, "duration": 102}, {"note": 67, "velocity": 102, "duration": 96}, {"note": 69, "velocity": 127, "duration": 174}, {"note": 0, "velocity": 0, "duration": 66}, {"note": 71, "velocity": 122, "duration": 214}, {"note": 71, "velocity": 127, "duration": 181}, {"note": 0, "velocity": 0, "duration": 299}, {"note": 64, "velocity": 122, "duration": 221}, {"note": 0, "velocity": 0, "duration": 259}, {"note": 67, "velocity": 127, "duration": 163}, {"note": 0, "velocity": 0, "duration": 77}, {"note": 69, "velocity": 127, "duration": 147}, {"note": 0, "velocity": 0, "duration": 93}, {"note": 71, "velocity": 127, "duration": 171}, {"note": 0, "velocity": 0, "duration": 69}, {"note": 69, "velocity": 127, "duration": 217}, {"note": 0, "velocity": 0, "duration": 263}, {"note": 67, "velocity": 127, "duration": 107}, {"note": 0, "velocity": 0, "duration": 133}, {"note": 69, "velocity": 122, "duration": 136}, {"note": 0, "velocity": 0, "duration": 104}, {"note": 67, "velocity": 112, "duration": 122}, {"note": 0, "velocity": 0, "duration": 118}, {"note": 71, "velocity": 127, "duration": 156}, {"note": 0, "velocity": 0, "duration": 84}, {"note": 69, "velocity": 117, "duration": 97}, {"note": 67, "velocity": 99, "duration": 92}, {"note": 69, "velocity": 127, "duration": 165}, {"note": 0, "velocity": 0, "duration": 75}, {"note": 71, "velocity": 127, "duration": 129}, {"note": 0, "velocity": 0, "duration": 111}, {"note": 71, "velocity": 122, "duration": 189}, {"note": 0, "velocity": 0, "duration": 291}, {"note": 64, "velocity": 122, "duration": 179}, {"note": 0, "velocity": 0, "duration": 301}, {"note": 67, "velocity": 127, "duration": 156}, {"note": 0, "velocity": 0, "duration": 84}, {"note": 69, "velocity": 127, "duration": 105}, {"note": 0, "velocity": 0, "duration": 135}, {"note": 71, "velocity": 127, "duration": 145}, {"note": 0, "velocity": 0, "duration": 95}, {"note": 69, "velocity": 127, "duration": 222}, {"note": 0, "velocity": 0, "duration": 258}, {"note": 67, "velocity": 127, "duration": 133}, {"note": 0, "velocity": 0, "duration": 107}, {"note": 69, "velocity": 127, "duration": 139}, {"note": 0, "velocity": 0, "duration": 101}, {"note": 67, "velocity": 127, "duration": 132}, {"note": 0, "velocity": 0, "duration": 108}, {"note": 70, "velocity": 127, "duration": 146}, {"note": 0, "velocity": 0, "duration": 94}, {"note": 69, "velocity": 127, "duration": 105}, {"note": 67, "velocity": 112, "duration": 100}, {"note": 69, "velocity": 127, "duration": 148}, {"note": 0, "velocity": 0, "duration": 92}, {"note": 71, "velocity": 127, "duration": 129}, {"note": 0, "velocity": 0, "duration": 111}, {"note": 64, "velocity": 127, "duration": 255}, {"note": 66, "velocity": 127, "duration": 178}, {"note": 0, "velocity": 0, "duration": 62}, {"note": 67, "velocity": 122, "duration": 208}, {"note": 64, "velocity": 107, "duration": 193}, {"note": 70, "velocity": 127, "duration": 194}, {"note": 69, "velocity": 122, "duration": 221}, {"note": 67, "velocity": 122, "duration": 200}, {"note": 69, "velocity": 127, "duration": 173}, {"note": 0, "velocity": 0, "duration": 307}, {"note": 64, "velocity": 112, "duration": 893}, {"note": 0, "velocity": 0, "duration": 2947}, {"note": 69, "velocity": 122, "duration": 505}, {"note": 71, "velocity": 122, "duration": 5302}]]