[[{"note": 64, "velocity": 107, "duration": 68}, {"note": 64, "velocity": 97, "duration": 135}, {"note": 62, "velocity": 93, "duration": 142}, {"note": 60, "velocity": 74, "duration": 124}, {"note": 55, "velocity": 86, "duration": 391}, {"note": 0, "velocity": 0, "duration": 89}, {"note": 64, "velocity": 127, "duration": 56}, {"note": 0, "velocity": 0, "duration": 64}, {"note": 64, "velocity": 97, "duration": 67}, {"note": 62, "velocity": 100, "duration": 99}, {"note": 60, "velocity": 93, "duration": 70}, {"note": 62, "velocity": 100, "duration": 58}, {"note": 0, "velocity": 0, "duration": 62}, {"note": 62, "velocity": 99, "duration": 548}, {"note": 64, "velocity": 97, "duration": 112}, {"note": 67, "velocity": 96, "duration": 95}, {"note": 69, "velocity": 102, "duration": 268}, {"note": 0, "velocity": 0, "duration": 92}, {"note": 69, "velocity": 100, "duration": 39}, {"note": 0, "velocity": 0, "duration": 81}, {"note": 69, "velocity": 102, "duration": 116}, {"note": 64, "velocity": 86, "duration": 112}, {"note": 62, "velocity": 100, "duration": 141}, {"note": 64, "velocity": 93, "duration": 274}, {"note": 0, "velocity": 0, "duration": 566}, {"note": 64, "velocity": 92, "duration": 118}, {"note": 67, "velocity": 81, "duration": 54}, {"note": 0, "velocity": 0, "duration": 66}, {"note": 69, "velocity": 99, "duration": 56}, {"note": 0, "velocity": 0, "duration": 64}, {"note": 69, "velocity": 95, "duration": 53}, {"note": 0, "velocity": 0, "duration": 67}, {"note": 69, "velocity": 96, "duration": 51}, {"note": 0, "velocity": 0, "duration": 69}, {"note": 69, "velocity": 95, "duration": 44}, {"note": 0, "velocity": 0, "duration": 76}, {"note": 69, "velocity": 122, "duration": 99}, {"note": 69, "velocity": 117, "duration": 124}, {"note": 0, "velocity": 0, "duration": 116}, {"note": 69, "velocity": 112, "duration": 74}, {"note": 67, "velocity": 112, "duration": 67}, {"note": 67, "velocity": 112, "duration": 110}, {"note": 0, "velocity": 0, "duration": 130}, {"note": 67, "velocity": 102, "duration": 90}, {"note": 62, "velocity": 100, "duration": 117}, {"note": 60, "velocity": 89, "duration": 159}, {"note": 0, "velocity": 0, "duration": 201}, {"note": 60, "velocity": 95, "duration": 160}, {"note": 0, "velocity": 0, "duration": 80}, {"note": 60, "velocity": 93, "duration": 142}, {"note": 0, "velocity": 0, "duration": 98}, {"note": 57, "velocity": 96, "duration": 95}, {"note": 64, "velocity": 97, "duration": 120}, {"note": 0, "velocity": 0, "duration": 120}, {"note": 62, "velocity": 93, "duration": 511}, {"note": 0, "velocity": 0, "duration": 89}, {"note": 64, "velocity": 112, "duration": 71}, {"note": 64, "velocity": 97, "duration": 143}, {"note": 0, "velocity": 0, "duration": 97}, {"note": 62, "velocity": 107, "duration": 90}, {"note": 60, "velocity": 95, "duration": 122}, {"note": 55, "velocity": 89, "duration": 150}, {"note": 0, "velocity": 0, "duration": 210}, {"note": 64, "velocity": 99, "duration": 48}, {"note": 0, "velocity": 0, "duration": 72}, {"note": 64, "velocity": 86, "duration": 81}, {"note": 62, "velocity": 83, "duration": 114}, {"note": 60, "velocity": 79, "duration": 114}, {"note": 62, "velocity": 97, "duration": 84}, {"note": 62, "velocity": 96, "duration": 221}, {"note": 0, "velocity": 0, "duration": 379}, {"note": 64, "velocity": 96, "duration": 77}, {"note": 67, "velocity": 93, "duration": 81}, {"note": 69, "velocity": 122, "duration": 197}, {"note": 0, "velocity": 0, "duration": 283}, {"note": 69, "velocity": 112, "duration": 119}, {"note": 64, "velocity": 92, "duration": 100}, {"note": 62, "velocity": 89, "duration": 124}, {"note": 64, "velocity": 100, "duration": 444}, {"note": 0, "velocity": 0, "duration": 396}, {"note": 64, "velocity": 102, "duration": 85}, {"note": 67, "velocity": 102, "duration": 96}, {"note": 69, "velocity": 117, "duration": 70}, {"note": 69, "velocity": 95, "duration": 66}, {"note": 69, "velocity": 112, "duration": 63}, {"note": 69, "velocity": 112, "duration": 76}, {"note": 69, "velocity": 112, "duration": 83}, {"note": 69, "velocity": 117, "duration": 49}, {"note": 0, "velocity": 0, "duration": 71}, {"note": 69, "velocity": 96, "duration": 50}, {"note": 0, "velocity": 0, "duration": 70}, {"note": 69, "velocity": 102, "duration": 51}, {"note": 0, "velocity": 0, "duration": 69}, {"note": 67, "velocity": 107, "duration": 90}, {"note": 67, "velocity": 92, "duration": 57}, {"note": 0, "velocity": 0, "duration": 63}, {"note": 67, "velocity": 83, "duration": 69}, {"note": 60, "velocity": 97, "duration": 500}, {"note": 0, "velocity": 0, "duration": 100}, {"note": 62, "velocity": 112, "duration": 180}, {"note": 62, "velocity": 99, "duration": 413}, {"note": 0, "velocity": 0, "duration": 67}, {"note": 60, "velocity": 107, "duration": 123}, {"note": 59, "velocity": 72, "duration": 140}, {"note": 60, "velocity": 96, "duration": 685}, {"note": 60, "velocity": 117, "duration": 112}, {"note": 62, "velocity": 95, "duration": 118}, {"note": 64, "velocity": 107, "duration": 101}, {"note": 67, "velocity": 100, "duration": 59}, {"note": 0, "velocity": 0, "duration": 61}, {"note": 67, "velocity": 97, "duration": 55}, {"note": 0, "velocity": 0, "duration": 65}, {"note": 67, "velocity": 100, "duration": 52}, {"note": 0, "velocity": 0, "duration": 68}, {"note": 67, "velocity": 107, "duration": 63}, {"note": 67, "velocity": 99, "duration": 40}, {"note": 0, "velocity": 0, "duration": 80}, {"note": 67, "velocity": 102, "duration": 102}, {"note": 64, "velocity": 100, "duration": 113}, {"note": 62, "velocity": 97, "duration": 69}, {"note": 62, "velocity": 93, "duration": 82}, {"note": 64, "velocity": 97, "duration": 98}, {"note": 62, "velocity": 122, "duration": 130}, {"note": 0, "velocity": 0, "duration": 110}, {"note": 64, "velocity": 96, "duration": 152}, {"note": 0, "velocity": 0, "duration": 88}, {"note": 62, "velocity": 100, "duration": 92}, {"note": 60, "velocity": 107, "duration": 69}, {"note": 60, "velocity": 89, "duration": 63}, {"note": 60, "velocity": 96, "duration": 119}, {"note": 57, "velocity": 89, "duration": 134}, {"note": 60, "velocity": 117, "duration": 82}, {"note": 60, "velocity": 117, "duration": 98}, {"note": 60, "velocity": 107, "duration": 102}, {"note": 57, "velocity": 93, "duration": 99}, {"note": 69, "velocity": 100, "duration": 93}, {"note": 67, "velocity": 122, "duration": 111}, {"note": 0, "velocity": 0, "duration": 129}, {"note": 67, "velocity": 112, "duration": 108}, {"note": 64, "velocity": 102, "duration": 103}, {"note": 62, "velocity": 99, "duration": 88}, {"note": 64, "velocity": 107, "duration": 116}, {"note": 65, "velocity": 102, "duration": 81}, {"note": 67, "velocity": 112, "duration": 65}, {"note": 67, "velocity": 100, "duration": 64}, {"note": 67, "velocity": 102, "duration": 59}, {"note": 0, "velocity": 0, "duration": 61}, {"note": 67, "velocity": 102, "duration": 58}, {"note": 0, "velocity": 0, "duration": 62}, {"note": 67, "velocity": 117, "duration": 56}, {"note": 0, "velocity": 0, "duration": 64}, {"note": 67, "velocity": 127, "duration": 71}, {"note": 0, "velocity": 0, "duration": 169}, {"note": 64, "velocity": 100, "duration": 118}, {"note": 62, "velocity": 96, "duration": 52}, {"note": 0, "velocity": 0, "duration": 68}, {"note": 62, "velocity": 93, "duration": 52}, {"note": 0, "velocity": 0, "duration": 68}, {"note": 64, "velocity": 102, "duration": 115}, {"note": 62, "velocity": 117, "duration": 103}, {"note": 0, "velocity": 0, "duration": 137}, {"note": 64, "velocity": 96, "duration": 154}, {"note": 0, "velocity": 0, "duration": 86}, {"note": 62, "velocity": 99, "duration": 77}, {"note": 60, "velocity": 112, "duration": 52}, {"note": 57, "velocity": 78, "duration": 63}, {"note": 60, "velocity": 93, "duration": 61}, {"note": 57, "velocity": 88, "duration": 47}, {"note": 60, "velocity": 122, "duration": 188}, {"note": 0, "velocity": 0, "duration": 379}, {"note": 57, "velocity": 102, "duration": 117}, {"note": 69, "velocity": 117, "duration": 117}, {"note": 67, "velocity": 127, "duration": 171}, {"note": 0, "velocity": 0, "duration": 189}, {"note": 69, "velocity": 127, "duration": 106}, {"note": 67, "velocity": 95, "duration": 47}, {"note": 0, "velocity": 0, "duration": 73}, {"note": 67, "velocity": 127, "duration": 43}, {"note": 0, "velocity": 0, "duration": 77}, {"note": 67, "velocity": 127, "duration": 666}, {"note": 60, "velocity": 117, "duration": 172}, {"note": 0, "velocity": 0, "duration": 68}, {"note": 62, "velocity": 127, "duration": 189}, {"note": 64, "velocity": 127, "duration": 109}, {"note": 67, "velocity": 102, "duration": 56}, {"note": 0, "velocity": 0, "duration": 64}, {"note": 67, "velocity": 99, "duration": 58}, {"note": 0, "velocity": 0, "duration": 62}, {"note": 67, "velocity": 99, "duration": 51}, {"note": 0, "velocity": 0, "duration": 69}, {"note": 67, "velocity": 107, "duration": 115}, {"note": 64, "velocity": 82, "duration": 126}, {"note": 69, "velocity": 127, "duration": 142}, {"note": 67, "velocity": 107, "duration": 594}, {"note": 0, "velocity": 0, "duration": 366}, {"note": 67, "velocity": 112, "duration": 87}, {"note": 69, "velocity": 127, "duration": 140}, {"note": 72, "velocity": 127, "duration": 134}, {"note": 0, "velocity": 0, "duration": 106}, {"note": 72, "velocity": 127, "duration": 70}, {"note": 72, "velocity": 127, "duration": 115}, {"note": 0, "velocity": 0, "duration": 125}, {"note": 64, "velocity": 99, "duration": 111}, {"note": 67, "velocity": 122, "duration": 589}, {"note": 0, "velocity": 0, "duration": 491}, {"note": 60, "velocity": 112, "duration": 80}, {"note": 60, "velocity": 96, "duration": 85}, {"note": 0, "velocity": 0, "duration": 155}, {"note": 60, "velocity": 107, "duration": 317}, {"note": 0, "velocity": 0, "duration": 283}, {"note": 67, "velocity": 112, "duration": 57}, {"note": 0, "velocity": 0, "duration": 63}, {"note": 67, "velocity": 85, "duration": 45}, {"note": 0, "velocity": 0, "duration": 75}, {"note": 67, "velocity": 96, "duration": 69}, {"note": 60, "velocity": 107, "duration": 103}, {"note": 0, "velocity": 0, "duration": 137}, {"note": 60, "velocity": 112, "duration": 49}, {"note": 0, "velocity": 0, "duration": 71}, {"note": 60, "velocity": 112, "duration": 74}, {"note": 57, "velocity": 102, "duration": 113}, {"note": 60, "velocity": 127, "duration": 63}, {"note": 60, "velocity": 102, "duration": 49}, {"note": 0, "velocity": 0, "duration": 71}, {"note": 60, "velocity": 127, "duration": 200}, {"note": 60, "velocity": 117, "duration": 269}, {"note": 0, "velocity": 0, "duration": 211}, {"note": 67, "velocity": 117, "duration": 38}, {"note": 0, "velocity": 0, "duration": 82}, {"note": 67, "velocity": 112, "duration": 71}, {"note": 64, "velocity": 117, "duration": 67}, {"note": 62, "velocity": 112, "duration": 90}, {"note": 0, "velocity": 0, "duration": 150}, {"note": 64, "velocity": 112, "duration": 155}, {"note": 0, "velocity": 0, "duration": 85}, {"note": 65, "velocity": 127, "duration": 102}, {"note": 67, "velocity": 117, "duration": 64}, {"note": 67, "velocity": 102, "duration": 127}, {"note": 0, "velocity": 0, "duration": 113}, {"note": 67, "velocity": 102, "duration": 57}, {"note": 0, "velocity": 0, "duration": 63}, {"note": 67, "velocity": 117, "duration": 67}, {"note": 64, "velocity": 102, "duration": 105}, {"note": 69, "velocity": 122, "duration": 107}, {"note": 67, "velocity": 122, "duration": 417}, {"note": 0, "velocity": 0, "duration": 543}, {"note": 67, "velocity": 99, "duration": 67}, {"note": 69, "velocity": 127, "duration": 126}, {"note": 72, "velocity": 127, "duration": 98}, {"note": 0, "velocity": 0, "duration": 142}, {"note": 72, "velocity": 127, "duration": 69}, {"note": 72, "velocity": 127, "duration": 82}, {"note": 0, "velocity": 0, "duration": 158}, {"note": 64, "velocity": 92, "duration": 100}, {"note": 67, "velocity": 117, "duration": 216}, {"note": 0, "velocity": 0, "duration": 144}, {"note": 69, "velocity": 112, "duration": 99}, {"note": 67, "velocity": 117, "duration": 151}, {"note": 0, "velocity": 0, "duration": 449}, {"note": 60, "velocity": 97, "duration": 81}, {"note": 60, "velocity": 100, "duration": 141}, {"note": 0, "velocity": 0, "duration": 99}, {"note": 60, "velocity": 112, "duration": 291}, {"note": 0, "velocity": 0, "duration": 309}, {"note": 67, "velocity": 107, "duration": 52}, {"note": 0, "velocity": 0, "duration": 68}, {"note": 67, "velocity": 95, "duration": 49}, {"note": 0, "velocity": 0, "duration": 71}, {"note": 67, "velocity": 100, "duration": 67}, {"note": 60, "velocity": 112, "duration": 143}, {"note": 0, "velocity": 0, "duration": 97}, {"note": 60, "velocity": 102, "duration": 46}, {"note": 0, "velocity": 0, "duration": 74}, {"note": 60, "velocity": 95, "duration": 67}, {"note": 57, "velocity": 102, "duration": 95}, {"note": 60, "velocity": 127, "duration": 90}, {"note": 60, "velocity": 100, "duration": 62}, {"note": 60, "velocity": 107, "duration": 221}, {"note": 60, "velocity": 117, "duration": 663}, {"note": 0, "velocity": 0, "duration": 297}, {"note": 60, "velocity": 107, "duration": 128}, {"note": 0, "velocity": 0, "duration": 112}, {"note": 60, "velocity": 112, "duration": 116}, {"note": 0, "velocity": 0, "duration": 124}, {"note": 62, "velocity": 102, "duration": 190}, {"note": 60, "velocity": 117, "duration": 1121}, {"note": 0, "velocity": 0, "duration": 319}, {"note": 60, "velocity": 97, "duration": 86}, {"note": 62, "velocity": 107, "duration": 67}, {"note": 64, "velocity": 97, "duration": 145}, {"note": 67, "velocity": 112, "duration": 57}, {"note": 0, "velocity": 0, "duration": 63}, {"note": 67, "velocity": 90, "duration": 51}, {"note": 0, "velocity": 0, "duration": 69}, {"note": 67, "velocity": 117, "duration": 52}, {"note": 0, "velocity": 0, "duration": 68}, {"note": 67, "velocity": 122, "duration": 87}, {"note": 67, "velocity": 112, "duration": 147}, {"note": 0, "velocity": 0, "duration": 93}, {"note": 64, "velocity": 112, "duration": 103}, {"note": 62, "velocity": 96, "duration": 49}, {"note": 0, "velocity": 0, "duration": 71}, {"note": 62, "velocity": 90, "duration": 63}, {"note": 64, "velocity": 100, "duration": 94}, {"note": 60, "velocity": 99, "duration": 138}, {"note": 0, "velocity": 0, "duration": 361}, {"note": 57, "velocity": 95, "duration": 63}, {"note": 60, "velocity": 95, "duration": 71}, {"note": 57, "velocity": 92, "duration": 66}, {"note": 60, "velocity": 83, "duration": 75}, {"note": 57, "velocity": 93, "duration": 54}, {"note": 60, "velocity": 99, "duration": 306}, {"note": 0, "velocity": 0, "duration": 213}, {"note": 55, "velocity": 93, "duration": 71}, {"note": 62, "velocity": 100, "duration": 65}, {"note": 62, "velocity": 100, "duration": 76}, {"note": 0, "velocity": 0, "duration": 164}, {"note": 62, "velocity": 112, "duration": 61}, {"note": 62, "velocity": 127, "duration": 80}, {"note": 60, "velocity": 102, "duration": 61}, {"note": 59, "velocity": 100, "duration": 68}, {"note": 60, "velocity": 112, "duration": 1199}, {"note": 0, "velocity": 0, "duration": 15721}, {"note": 64, "velocity": 107, "duration": 68}, {"note": 64, "velocity": 97, "duration": 135}, {"note": 62, "velocity": 93, "duration": 142}, {"note": 60, "velocity": 74, "duration": 124}, {"note": 55, "velocity": 86, "duration": 391}, {"note": 0, "velocity": 0, "duration": 89}, {"note": 64, "velocity": 127, "duration": 56}, {"note": 0, "velocity": 0, "duration": 64}, {"note": 64, "velocity": 97, "duration": 67}, {"note": 62, "velocity": 100, "duration": 99}, {"note": 60, "velocity": 93, "duration": 70}, {"note": 62, "velocity": 100, "duration": 58}, {"note": 0, "velocity": 0, "duration": 62}, {"note": 62, "velocity": 99, "duration": 548}, {"note": 64, "velocity": 97, "duration": 112}, {"note": 67, "velocity": 96, "duration": 95}, {"note": 69, "velocity": 102, "duration": 268}, {"note": 0, "velocity": 0, "duration": 92}, {"note": 69, "velocity": 100, "duration": 39}, {"note": 0, "velocity": 0, "duration": 81}, {"note": 69, "velocity": 102, "duration": 116}, {"note": 64, "velocity": 86, "duration": 112}, {"note": 62, "velocity": 100, "duration": 141}, {"note": 64, "velocity": 93, "duration": 274}, {"note": 0, "velocity": 0, "duration": 566}, {"note": 64, "velocity": 92, "duration": 118}, {"note": 67, "velocity": 81, "duration": 54}, {"note": 0, "velocity": 0, "duration": 66}, {"note": 69, "velocity": 99, "duration": 56}, {"note": 0, "velocity": 0, "duration": 64}, {"note": 69, "velocity": 95, "duration": 53}, {"note": 0, "velocity": 0, "duration": 67}, {"note": 69, "velocity": 96, "duration": 51}, {"note": 0, "velocity": 0, "duration": 69}, {"note": 69, "velocity": 95, "duration": 44}, {"note": 0, "velocity": 0, "duration": 76}, {"note": 69, "velocity": 122, "duration": 99}, {"note": 69, "velocity": 117, "duration": 124}, {"note": 0, "velocity": 0, "duration": 116}, {"note": 69, "velocity": 112, "duration": 74}, {"note": 67, "velocity": 112, "duration": 67}, {"note": 67, "velocity": 112, "duration": 110}, {"note": 0, "velocity": 0, "duration": 130}, {"note": 67, "velocity": 102, "duration": 90}, {"note": 62, "velocity": 100, "duration": 117}, {"note": 60, "velocity": 89, "duration": 159}, {"note": 0, "velocity": 0, "duration": 201}, {"note": 60, "velocity": 95, "duration": 160}, {"note": 0, "velocity": 0, "duration": 80}, {"note": 60, "velocity": 93, "duration": 142}, {"note": 0, "velocity": 0, "duration": 98}, {"note": 57, "velocity": 96, "duration": 95}, {"note": 64, "velocity": 97, "duration": 120}, {"note": 0, "velocity": 0, "duration": 120}, {"note": 62, "velocity": 93, "duration": 511}, {"note": 0, "velocity": 0, "duration": 89}, {"note": 64, "velocity": 112, "duration": 71}, {"note": 64, "velocity": 97, "duration": 143}, {"note": 0, "velocity": 0, "duration": 97}, {"note": 62, "velocity": 107, "duration": 90}, {"note": 60, "velocity": 95, "duration": 122}, {"note": 55, "velocity": 89, "duration": 150}, {"note": 0, "velocity": 0, "duration": 210}, {"note": 64, "velocity": 99, "duration": 48}, {"note": 0, "velocity": 0, "duration": 72}, {"note": 64, "velocity": 86, "duration": 81}, {"note": 62, "velocity": 83, "duration": 114}, {"note": 60, "velocity": 79, "duration": 114}, {"note": 62, "velocity": 97, "duration": 84}, {"note": 62, "velocity": 96, "duration": 221}, {"note": 0, "velocity": 0, "duration": 379}, {"note": 64, "velocity": 96, "duration": 77}, {"note": 67, "velocity": 93, "duration": 81}, {"note": 69, "velocity": 122, "duration": 197}, {"note": 0, "velocity": 0, "duration": 283}, {"note": 69, "velocity": 112, "duration": 119}, {"note": 64, "velocity": 92, "duration": 100}, {"note": 62, "velocity": 89, "duration": 124}, {"note": 64, "velocity": 100, "duration": 444}, {"note": 0, "velocity": 0, "duration": 396}, {"note": 64, "velocity": 102, "duration": 85}, {"note": 67, "velocity": 102, "duration": 96}, {"note": 69, "velocity": 117, "duration": 70}, {"note": 69, "velocity": 95, "duration": 66}, {"note": 69, "velocity": 112, "duration": 63}, {"note": 69, "velocity": 112, "duration": 76}, {"note": 69, "velocity": 112, "duration": 83}, {"note": 69, "velocity": 117, "duration": 49}, {"note": 0, "velocity": 0, "duration": 71}, {"note": 69, "velocity": 96, "duration": 50}, {"note": 0, "velocity": 0, "duration": 70}, {"note": 69, "velocity": 102, "duration": 51}, {"note": 0, "velocity": 0, "duration": 69}, {"note": 67, "velocity": 107, "duration": 90}, {"note": 67, "velocity": 92, "duration": 57}, {"note": 0, "velocity": 0, "duration": 63}, {"note": 67, "velocity": 83, "duration": 69}, {"note": 60, "velocity": 97, "duration": 500}, {"note": 0, "velocity": 0, "duration": 100}, {"note": 62, "velocity": 112, "duration": 180}, {"note": 62, "velocity": 99, "duration": 413}, {"note": 0, "velocity": 0, "duration": 67}, {"note": 60, "velocity": 107, "duration": 123}, {"note": 59, "velocity": 72, "duration": 140}, {"note": 60, "velocity": 96, "duration": 685}, {"note": 60, "velocity": 117, "duration": 112}, {"note": 62, "velocity": 95, "duration": 118}, {"note": 64, "velocity": 107, "duration": 101}, {"note": 67, "velocity": 100, "duration": 59}, {"note": 0, "velocity": 0, "duration": 61}, {"note": 67, "velocity": 97, "duration": 55}, {"note": 0, "velocity": 0, "duration": 65}, {"note": 67, "velocity": 100, "duration": 52}, {"note": 0, "velocity": 0, "duration": 68}, {"note": 67, "velocity": 107, "duration": 63}, {"note": 67, "velocity": 99, "duration": 40}, {"note": 0, "velocity": 0, "duration": 80}, {"note": 67, "velocity": 102, "duration": 102}, {"note": 64, "velocity": 100, "duration": 113}, {"note": 62, "velocity": 97, "duration": 69}, {"note": 62, "velocity": 93, "duration": 82}, {"note": 64, "velocity": 97, "duration": 98}, {"note": 62, "velocity": 122, "duration": 130}, {"note": 0, "velocity": 0, "duration": 110}, {"note": 64, "velocity": 96, "duration": 152}, {"note": 0, "velocity": 0, "duration": 88}, {"note": 62, "velocity": 100, "duration": 92}, {"note": 60, "velocity": 107, "duration": 69}, {"note": 60, "velocity": 89, "duration": 63}, {"note": 60, "velocity": 96, "duration": 119}, {"note": 57, "velocity": 89, "duration": 134}, {"note": 60, "velocity": 117, "duration": 82}, {"note": 60, "velocity": 117, "duration": 98}, {"note": 60, "velocity": 107, "duration": 102}, {"note": 57, "velocity": 93, "duration": 99}, {"note": 69, "velocity": 100, "duration": 93}, {"note": 67, "velocity": 122, "duration": 111}, {"note": 0, "velocity": 0, "duration": 129}, {"note": 67, "velocity": 112, "duration": 108}, {"note": 64, "velocity": 102, "duration": 103}, {"note": 62, "velocity": 99, "duration": 88}, {"note": 64, "velocity": 107, "duration": 116}, {"note": 65, "velocity": 102, "duration": 81}, {"note": 67, "velocity": 112, "duration": 65}, {"note": 67, "velocity": 100, "duration": 64}, {"note": 67, "velocity": 102, "duration": 59}, {"note": 0, "velocity": 0, "duration": 61}, {"note": 67, "velocity": 102, "duration": 58}, {"note": 0, "velocity": 0, "duration": 62}, {"note": 67, "velocity": 117, "duration": 56}, {"note": 0, "velocity": 0, "duration": 64}, {"note": 67, "velocity": 127, "duration": 71}, {"note": 0, "velocity": 0, "duration": 169}, {"note": 64, "velocity": 100, "duration": 118}, {"note": 62, "velocity": 96, "duration": 52}, {"note": 0, "velocity": 0, "duration": 68}, {"note": 62, "velocity": 93, "duration": 52}, {"note": 0, "velocity": 0, "duration": 68}, {"note": 64, "velocity": 102, "duration": 115}, {"note": 62, "velocity": 117, "duration": 103}, {"note": 0, "velocity": 0, "duration": 137}, {"note": 64, "velocity": 96, "duration": 154}, {"note": 0, "velocity": 0, "duration": 86}, {"note": 62, "velocity": 99, "duration": 77}, {"note": 60, "velocity": 112, "duration": 52}, {"note": 57, "velocity": 78, "duration": 63}, {"note": 60, "velocity": 93, "duration": 61}, {"note": 57, "velocity": 88, "duration": 47}, {"note": 60, "velocity": 122, "duration": 188}, {"note": 0, "velocity": 0, "duration": 379}, {"note": 57, "velocity": 102, "duration": 117}, {"note": 69, "velocity": 117, "duration": 117}, {"note": 67, "velocity": 127, "duration": 171}, {"note": 0, "velocity": 0, "duration": 189}, {"note": 69, "velocity": 127, "duration": 106}, {"note": 67, "velocity": 95, "duration": 47}, {"note": 0, "velocity": 0, "duration": 73}, {"note": 67, "velocity": 127, "duration": 43}, {"note": 0, "velocity": 0, "duration": 77}, {"note": 67, "velocity": 127, "duration": 666}, {"note": 60, "velocity": 117, "duration": 172}, {"note": 0, "velocity": 0, "duration": 68}, {"note": 62, "velocity": 127, "duration": 189}, {"note": 64, "velocity": 127, "duration": 109}, {"note": 67, "velocity": 102, "duration": 56}, {"note": 0, "velocity": 0, "duration": 64}, {"note": 67, "velocity": 99, "duration": 58}, {"note": 0, "velocity": 0, "duration": 62}, {"note": 67, "velocity": 99, "duration": 51}, {"note": 0, "velocity": 0, "duration": 69}, {"note": 67, "velocity": 107, "duration": 115}, {"note": 64, "velocity": 82, "duration": 126}, {"note": 69, "velocity": 127, "duration": 142}, {"note": 67, "velocity": 107, "duration": 594}, {"note": 0, "velocity": 0, "duration": 366}, {"note": 67, "velocity": 112, "duration": 87}, {"note": 69, "velocity": 127, "duration": 140}, {"note": 72, "velocity": 127, "duration": 134}, {"note": 0, "velocity": 0, "duration": 106}, {"note": 72, "velocity": 127, "duration": 70}, {"note": 72, "velocity": 127, "duration": 115}, {"note": 0, "velocity": 0, "duration": 125}, {"note": 64, "velocity": 99, "duration": 111}, {"note": 67, "velocity": 122, "duration": 589}, {"note": 0, "velocity": 0, "duration": 491}, {"note": 60, "velocity": 112, "duration": 80}, {"note": 60, "velocity": 96, "duration": 85}, {"note": 0, "velocity": 0, "duration": 155}, {"note": 60, "velocity": 107, "duration": 317}, {"note": 0, "velocity": 0, "duration": 283}, {"note": 67, "velocity": 112, "duration": 57}, {"note": 0, "velocity": 0, "duration": 63}, {"note": 67, "velocity": 85, "duration": 45}, {"note": 0, "velocity": 0, "duration": 75}, {"note": 67, "velocity": 96, "duration": 69}, {"note": 60, "velocity": 107, "duration": 103}, {"note": 0, "velocity": 0, "duration": 137}, {"note": 60, "velocity": 112, "duration": 49}, {"note": 0, "velocity": 0, "duration": 71}, {"note": 60, "velocity": 112, "duration": 74}, {"note": 57, "velocity": 102, "duration": 113}, {"note": 60, "velocity": 127, "duration": 63}, {"note": 60, "velocity": 102, "duration": 49}, {"note": 0, "velocity": 0, "duration": 71}, {"note": 60, "velocity": 127, "duration": 200}, {"note": 60, "velocity": 117, "duration": 269}, {"note": 0, "velocity": 0, "duration": 211}, {"note": 67, "velocity": 117, "duration": 38}, {"note": 0, "velocity": 0, "duration": 82}, {"note": 67, "velocity": 112, "duration": 71}, {"note": 64, "velocity": 117, "duration": 67}, {"note": 62, "velocity": 112, "duration": 90}, {"note": 0, "velocity": 0, "duration": 150}, {"note": 64, "velocity": 112, "duration": 155}, {"note": 0, "velocity": 0, "duration": 85}, {"note": 65, "velocity": 127, "duration": 102}, {"note": 67, "velocity": 117, "duration": 64}, {"note": 67, "velocity": 102, "duration": 127}, {"note": 0, "velocity": 0, "duration": 113}, {"note": 67, "velocity": 102, "duration": 57}, {"note": 0, "velocity": 0, "duration": 63}, {"note": 67, "velocity": 117, "duration": 67}, {"note": 64, "velocity": 102, "duration": 105}, {"note": 69, "velocity": 122, "duration": 107}, {"note": 67, "velocity": 122, "duration": 417}, {"note": 0, "velocity": 0, "duration": 543}, {"note": 67, "velocity": 99, "duration": 67}, {"note": 69, "velocity": 127, "duration": 126}, {"note": 72, "velocity": 127, "duration": 98}, {"note": 0, "velocity": 0, "duration": 142}, {"note": 72, "velocity": 127, "duration": 69}, {"note": 72, "velocity": 127, "duration": 82}, {"note": 0, "velocity": 0, "duration": 158}, {"note": 64, "velocity": 92, "duration": 100}, {"note": 67, "velocity": 117, "duration": 216}, {"note": 0, "velocity": 0, "duration": 144}, {"note": 69, "velocity": 112, "duration": 99}, {"note": 67, "velocity": 117, "duration": 151}, {"note": 0, "velocity": 0, "duration": 449}, {"note": 60, "velocity": 97, "duration": 81}, {"note": 60, "velocity": 100, "duration": 141}, {"note": 0, "velocity": 0, "duration": 99}, {"note": 60, "velocity": 112, "duration": 291}, {"note": 0, "velocity": 0, "duration": 309}, {"note": 67, "velocity": 107, "duration": 52}, {"note": 0, "velocity": 0, "duration": 68}, {"note": 67, "velocity": 95, "duration": 49}, {"note": 0, "velocity": 0, "duration": 71}, {"note": 67, "velocity": 100, "duration": 67}, {"note": 60, "velocity": 112, "duration": 143}, {"note": 0, "velocity": 0, "duration": 97}, {"note": 60, "velocity": 102, "duration": 46}, {"note": 0, "velocity": 0, "duration": 74}, {"note": 60, "velocity": 95, "duration": 67}, {"note": 57, "velocity": 102, "duration": 95}, {"note": 60, "velocity": 127, "duration": 90}, {"note": 60, "velocity": 100, "duration": 62}, {"note": 60, "velocity": 107, "duration": 221}, {"note": 60, "velocity": 117, "duration": 663}, {"note": 0, "velocity": 0, "duration": 297}, {"note": 60, "velocity": 107, "duration": 128}, {"note": 0, "velocity": 0, "duration": 112}, {"note": 60, "velocity": 112, "duration": 116}, {"note": 0, "velocity": 0, "duration": 124}, {"note": 62, "velocity": 102, "duration": 190}, {"note": 60, "velocity": 117, "duration": 1121}, {"note": 0, "velocity": 0, "duration": 79}, {"note": 60, "velocity": 117, "duration": 172}, {"note": 0, "velocity": 0, "duration": 68}, {"note": 62, "velocity": 127, "duration": 189}, {"note": 64, "velocity": 127, "duration": 109}, {"note": 67, "velocity": 102, "duration": 56}, {"note": 0, "velocity": 0, "duration": 64}, {"note": 67, "velocity": 99, "duration": 58}, {"note": 0, "velocity": 0, "duration": 62}, {"note": 67, "velocity": 99, "duration": 51}, {"note": 0, "velocity": 0, "duration": 69}, {"note": 67, "velocity": 107, "duration": 115}, {"note": 64, "velocity": 82, "duration": 126}, {"note": 69, "velocity": 127, "duration": 142}, {"note": 67, "velocity": 107, "duration": 594}, {"note": 0, "velocity": 0, "duration": 366}, {"note": 67, "velocity": 112, "duration": 87}, {"note": 69, "velocity": 127, "duration": 140}, {"note": 72, "velocity": 127, "duration": 134}, {"note": 0, "velocity": 0, "duration": 106}, {"note": 72, "velocity": 127, "duration": 70}, {"note": 72, "velocity": 127, "duration": 115}, {"note": 0, "velocity": 0, "duration": 125}, {"note": 64, "velocity": 99, "duration": 111}, {"note": 67, "velocity": 122, "duration": 589}, {"note": 0, "velocity": 0, "duration": 491}, {"note": 60, "velocity": 112, "duration": 80}, {"note": 60, "velocity": 96, "duration": 85}, {"note": 0, "velocity": 0, "duration": 155}, {"note": 60, "velocity": 107, "duration": 317}, {"note": 0, "velocity": 0, "duration": 283}, {"note": 67, "velocity": 112, "duration": 57}, {"note": 0, "velocity": 0, "duration": 63}, {"note": 67, "velocity": 85, "duration": 45}, {"note": 0, "velocity": 0, "duration": 75}, {"note": 67, "velocity": 96, "duration": 69}, {"note": 60, "velocity": 107, "duration": 103}, {"note": 0, "velocity": 0, "duration": 137}, {"note": 60, "velocity": 112, "duration": 49}, {"note": 0, "velocity": 0, "duration": 71}, {"note": 60, "velocity": 112, "duration": 74}, {"note": 57, "velocity": 102, "duration": 113}, {"note": 60, "velocity": 127, "duration": 63}, {"note": 60, "velocity": 102, "duration": 49}, {"note": 0, "velocity": 0, "duration": 71}, {"note": 60, "velocity": 127, "duration": 200}, {"note": 60, "velocity": 117, "duration": 269}, {"note": 0, "velocity": 0, "duration": 211}, {"note": 67, "velocity": 117, "duration": 38}, {"note": 0, "velocity": 0, "duration": 82}, {"note": 67, "velocity": 112, "duration": 71}, {"note": 64, "velocity": 117, "duration": 67}, {"note": 62, "velocity": 112, "duration": 90}, {"note": 0, "velocity": 0, "duration": 150}, {"note": 64, "velocity": 112, "duration": 155}, {"note": 0, "velocity": 0, "duration": 85}, {"note": 65, "velocity": 127, "duration": 102}, {"note": 67, "velocity": 117, "duration": 64}, {"note": 67, "velocity": 102, "duration": 127}, {"note": 0, "velocity": 0, "duration": 113}, {"note": 67, "velocity": 102, "duration": 57}, {"note": 0, "velocity": 0, "duration": 63}, {"note": 67, "velocity": 117, "duration": 67}, {"note": 64, "velocity": 102, "duration": 105}, {"note": 69, "velocity": 122, "duration": 107}, {"note": 67, "velocity": 122, "duration": 417}, {"note": 0, "velocity": 0, "duration": 543}, {"note": 67, "velocity": 99, "duration": 67}, {"note": 69, "velocity": 127, "duration": 126}, {"note": 72, "velocity": 127, "duration": 98}, {"note": 0, "velocity": 0, "duration": 142}, {"note": 72, "velocity": 127, "duration": 69}, {"note": 72, "velocity": 127, "duration": 82}, {"note": 0, "velocity": 0, "duration": 158}, {"note": 64, "velocity": 92, "duration": 100}, {"note": 67, "velocity": 117, "duration": 216}, {"note": 0, "velocity": 0, "duration": 144}, {"note": 69, "velocity": 112, "duration": 99}, {"note": 67, "velocity": 117, "duration": 151}, {"note": 0, "velocity": 0, "duration": 449}, {"note": 60, "velocity": 97, "duration": 81}, {"note": 60, "velocity": 100, "duration": 141}, {"note": 0, "velocity": 0, "duration": 99}, {"note": 60, "velocity": 112, "duration": 291}, {"note": 0, "velocity": 0, "duration": 309}, {"note": 67, "velocity": 107, "duration": 52}, {"note": 0, "velocity": 0, "duration": 68}, {"note": 67, "velocity": 95, "duration": 49}, {"note": 0, "velocity": 0, "duration": 71}, {"note": 67, "velocity": 100, "duration": 67}, {"note": 60, "velocity": 112, "duration": 143}, {"note": 0, "velocity": 0, "duration": 97}, {"note": 60, "velocity": 102, "duration": 46}, {"note": 0, "velocity": 0, "duration": 74}, {"note": 60, "velocity": 95, "duration": 67}, {"note": 57, "velocity": 102, "duration": 95}, {"note": 60, "velocity": 127, "duration": 90}, {"note": 60, "velocity": 100, "duration": 62}, {"note": 60, "velocity": 107, "duration": 221}, {"note": 60, "velocity": 117, "duration": 663}, {"note": 0, "velocity": 0, "duration": 297}, {"note": 60, "velocity": 107, "duration": 128}, {"note": 0, "velocity": 0, "duration": 112}, {"note": 60, "velocity": 112, "duration": 116}, {"note": 0, "velocity": 0, "duration": 124}, {"note": 62, "velocity": 102, "duration": 190}, {"note": 60, "velocity": 117, "duration": 1121}, {"note": 0, "velocity": 0, "duration": 319}, {"note": 60, "velocity": 97, "duration": 86}, {"note": 62, "velocity": 107, "duration": 67}, {"note": 64, "velocity": 97, "duration": 145}, {"note": 67, "velocity": 112, "duration": 57}, {"note": 0, "velocity": 0, "duration": 63}, {"note": 67, "velocity": 90, "duration": 51}, {"note": 0, "velocity": 0, "duration": 69}, {"note": 67, "velocity": 117, "duration": 52}, {"note": 0, "velocity": 0, "duration": 68}, {"note": 67, "velocity": 122, "duration": 87}, {"note": 67, "velocity": 112, "duration": 147}, {"note": 0, "velocity": 0, "duration": 93}, {"note": 64, "velocity": 112, "duration": 103}, {"note": 62, "velocity": 96, "duration": 49}, {"note": 0, "velocity": 0, "duration": 71}, {"note": 62, "velocity": 90, "duration": 63}, {"note": 64, "velocity": 100, "duration": 94}, {"note": 60, "velocity": 99, "duration": 138}, {"note": 0, "velocity": 0, "duration": 361}, {"note": 57, "velocity": 95, "duration": 63}, {"note": 60, "velocity": 95, "duration": 71}, {"note": 57, "velocity": 92, "duration": 66}, {"note": 60, "velocity": 83, "duration": 75}, {"note": 57, "velocity": 93, "duration": 54}, {"note": 60, "velocity": 99, "duration": 306}, {"note": 0, "velocity": 0, "duration": 213}, {"note": 55, "velocity": 93, "duration": 71}, {"note": 62, "velocity": 100, "duration": 65}, {"note": 62, "velocity": 100, "duration": 76}, {"note": 0, "velocity": 0, "duration": 164}, {"note": 62, "velocity": 112, "duration": 61}, {"note": 62, "velocity": 127, "duration": 80}, {"note": 60, "velocity": 102, "duration": 61}, {"note": 59, "velocity": 100, "duration": 68}, {"note": 60, "velocity": 112, "duration": 1199}]]