[[{"note": 63, "velocity": 127, "duration": 145}, {"note": 0, "velocity": 0, "duration": 95}, {"note": 60, "velocity": 112, "duration": 311}, {"note": 60, "velocity": 117, "duration": 580}, {"note": 0, "velocity": 0, "duration": 500}, {"note": 60, "velocity": 100, "duration": 92}, {"note": 55, "velocity": 99, "duration": 342}, {"note": 53, "velocity": 90, "duration": 797}, {"note": 0, "velocity": 0, "duration": 883}, {"note": 58, "velocity": 127, "duration": 64}, {"note": 60, "velocity": 102, "duration": 55}, {"note": 0, "velocity": 0, "duration": 65}, {"note": 63, "velocity": 127, "duration": 289}, {"note": 0, "velocity": 0, "duration": 191}, {"note": 63, "velocity": 127, "duration": 348}, {"note": 0, "velocity": 0, "duration": 612}, {"note": 58, "velocity": 122, "duration": 137}, {"note": 60, "velocity": 95, "duration": 268}, {"note": 0, "velocity": 0, "duration": 92}, {"note": 60, "velocity": 112, "duration": 747}, {"note": 0, "velocity": 0, "duration": 933}, {"note": 63, "velocity": 127, "duration": 53}, {"note": 0, "velocity": 0, "duration": 187}, {"note": 60, "velocity": 127, "duration": 221}, {"note": 0, "velocity": 0, "duration": 139}, {"note": 60, "velocity": 127, "duration": 527}, {"note": 0, "velocity": 0, "duration": 553}, {"note": 58, "velocity": 122, "duration": 68}, {"note": 55, "velocity": 107, "duration": 320}, {"note": 53, "velocity": 100, "duration": 799}, {"note": 0, "velocity": 0, "duration": 881}, {"note": 58, "velocity": 122, "duration": 54}, {"note": 0, "velocity": 0, "duration": 66}, {"note": 60, "velocity": 102, "duration": 56}, {"note": 0, "velocity": 0, "duration": 64}, {"note": 63, "velocity": 127, "duration": 321}, {"note": 0, "velocity": 0, "duration": 159}, {"note": 63, "velocity": 127, "duration": 485}, {"note": 0, "velocity": 0, "duration": 475}, {"note": 63, "velocity": 122, "duration": 48}, {"note": 0, "velocity": 0, "duration": 72}, {"note": 60, "velocity": 122, "duration": 236}, {"note": 0, "velocity": 0, "duration": 124}, {"note": 60, "velocity": 122, "duration": 1102}, {"note": 0, "velocity": 0, "duration": 578}, {"note": 63, "velocity": 127, "duration": 145}, {"note": 0, "velocity": 0, "duration": 95}, {"note": 60, "velocity": 112, "duration": 311}, {"note": 60, "velocity": 117, "duration": 580}, {"note": 0, "velocity": 0, "duration": 500}, {"note": 60, "velocity": 100, "duration": 92}, {"note": 55, "velocity": 99, "duration": 342}, {"note": 53, "velocity": 90, "duration": 797}, {"note": 0, "velocity": 0, "duration": 883}, {"note": 58, "velocity": 127, "duration": 64}, {"note": 60, "velocity": 102, "duration": 55}, {"note": 0, "velocity": 0, "duration": 65}, {"note": 63, "velocity": 127, "duration": 289}, {"note": 0, "velocity": 0, "duration": 191}, {"note": 63, "velocity": 127, "duration": 348}, {"note": 0, "velocity": 0, "duration": 612}, {"note": 63, "velocity": 122, "duration": 137}, {"note": 60, "velocity": 95, "duration": 268}, {"note": 0, "velocity": 0, "duration": 92}, {"note": 60, "velocity": 112, "duration": 747}, {"note": 0, "velocity": 0, "duration": 933}, {"note": 63, "velocity": 127, "duration": 53}, {"note": 0, "velocity": 0, "duration": 187}, {"note": 60, "velocity": 127, "duration": 221}, {"note": 0, "velocity": 0, "duration": 139}, {"note": 60, "velocity": 127, "duration": 527}, {"note": 0, "velocity": 0, "duration": 553}, {"note": 58, "velocity": 122, "duration": 68}, {"note": 55, "velocity": 107, "duration": 320}, {"note": 53, "velocity": 100, "duration": 799}, {"note": 0, "velocity": 0, "duration": 881}, {"note": 58, "velocity": 122, "duration": 54}, {"note": 0, "velocity": 0, "duration": 66}, {"note": 60, "velocity": 102, "duration": 56}, {"note": 0, "velocity": 0, "duration": 64}, {"note": 63, "velocity": 127, "duration": 321}, {"note": 0, "velocity": 0, "duration": 159}, {"note": 63, "velocity": 127, "duration": 485}, {"note": 0, "velocity": 0, "duration": 475}, {"note": 63, "velocity": 122, "duration": 48}, {"note": 0, "velocity": 0, "duration": 72}, {"note": 60, "velocity": 122, "duration": 236}, {"note": 0, "velocity": 0, "duration": 124}, {"note": 60, "velocity": 122, "duration": 1102}, {"note": 0, "velocity": 0, "duration": 338}, {"note": 55, "velocity": 112, "duration": 201}, {"note": 58, "velocity": 122, "duration": 175}, {"note": 0, "velocity": 0, "duration": 65}, {"note": 60, "velocity": 122, "duration": 681}, {"note": 0, "velocity": 0, "duration": 279}, {"note": 63, "velocity": 127, "duration": 200}, {"note": 62, "velocity": 127, "duration": 227}, {"note": 60, "velocity": 102, "duration": 199}, {"note": 58, "velocity": 112, "duration": 158}, {"note": 0, "velocity": 0, "duration": 82}, {"note": 58, "velocity": 127, "duration": 777}, {"note": 55, "velocity": 102, "duration": 117}, {"note": 0, "velocity": 0, "duration": 123}, {"note": 60, "velocity": 122, "duration": 684}, {"note": 60, "velocity": 112, "duration": 64}, {"note": 62, "velocity": 107, "duration": 55}, {"note": 0, "velocity": 0, "duration": 65}, {"note": 63, "velocity": 127, "duration": 581}, {"note": 0, "velocity": 0, "duration": 259}, {"note": 63, "velocity": 127, "duration": 50}, {"note": 0, "velocity": 0, "duration": 70}, {"note": 63, "velocity": 127, "duration": 165}, {"note": 0, "velocity": 0, "duration": 75}, {"note": 62, "velocity": 100, "duration": 129}, {"note": 0, "velocity": 0, "duration": 111}, {"note": 60, "velocity": 97, "duration": 109}, {"note": 62, "velocity": 97, "duration": 303}, {"note": 58, "velocity": 117, "duration": 872}, {"note": 0, "velocity": 0, "duration": 568}, {"note": 55, "velocity": 102, "duration": 188}, {"note": 58, "velocity": 127, "duration": 204}, {"note": 60, "velocity": 127, "duration": 578}, {"note": 0, "velocity": 0, "duration": 382}, {"note": 63, "velocity": 127, "duration": 217}, {"note": 62, "velocity": 122, "duration": 225}, {"note": 60, "velocity": 102, "duration": 185}, {"note": 58, "velocity": 112, "duration": 178}, {"note": 0, "velocity": 0, "duration": 62}, {"note": 58, "velocity": 117, "duration": 220}, {"note": 67, "velocity": 127, "duration": 355}, {"note": 0, "velocity": 0, "duration": 125}, {"note": 65, "velocity": 127, "duration": 170}, {"note": 0, "velocity": 0, "duration": 70}, {"note": 65, "velocity": 99, "duration": 230}, {"note": 63, "velocity": 112, "duration": 449}, {"note": 63, "velocity": 127, "duration": 121}, {"note": 62, "velocity": 86, "duration": 79}, {"note": 60, "velocity": 122, "duration": 552}, {"note": 0, "velocity": 0, "duration": 408}, {"note": 58, "velocity": 127, "duration": 187}, {"note": 60, "velocity": 100, "duration": 131}, {"note": 0, "velocity": 0, "duration": 109}, {"note": 67, "velocity": 127, "duration": 158}, {"note": 0, "velocity": 0, "duration": 82}, {"note": 65, "velocity": 127, "duration": 1210}, {"note": 0, "velocity": 0, "duration": 470}, {"note": 58, "velocity": 127, "duration": 91}, {"note": 60, "velocity": 96, "duration": 99}, {"note": 63, "velocity": 127, "duration": 125}, {"note": 60, "velocity": 96, "duration": 110}, {"note": 63, "velocity": 127, "duration": 1125}, {"note": 0, "velocity": 0, "duration": 195}, {"note": 58, "velocity": 112, "duration": 41}, {"note": 0, "velocity": 0, "duration": 79}, {"note": 58, "velocity": 122, "duration": 72}, {"note": 60, "velocity": 100, "duration": 69}, {"note": 63, "velocity": 122, "duration": 115}, {"note": 0, "velocity": 0, "duration": 125}, {"note": 67, "velocity": 127, "duration": 1328}, {"note": 0, "velocity": 0, "duration": 352}, {"note": 67, "velocity": 122, "duration": 114}, {"note": 0, "velocity": 0, "duration": 126}, {"note": 65, "velocity": 127, "duration": 647}, {"note": 0, "velocity": 0, "duration": 73}, {"note": 63, "velocity": 127, "duration": 111}, {"note": 60, "velocity": 117, "duration": 558}, {"note": 0, "velocity": 0, "duration": 282}, {"note": 67, "velocity": 112, "duration": 181}, {"note": 65, "velocity": 127, "duration": 663}, {"note": 63, "velocity": 122, "duration": 147}, {"note": 60, "velocity": 96, "duration": 111}, {"note": 58, "velocity": 122, "duration": 390}, {"note": 0, "velocity": 0, "duration": 90}, {"note": 58, "velocity": 127, "duration": 86}, {"note": 60, "velocity": 102, "duration": 87}, {"note": 63, "velocity": 117, "duration": 122}, {"note": 60, "velocity": 97, "duration": 112}, {"note": 63, "velocity": 117, "duration": 912}, {"note": 0, "velocity": 0, "duration": 408}, {"note": 58, "velocity": 122, "duration": 43}, {"note": 0, "velocity": 0, "duration": 77}, {"note": 58, "velocity": 127, "duration": 79}, {"note": 60, "velocity": 117, "duration": 83}, {"note": 63, "velocity": 127, "duration": 150}, {"note": 0, "velocity": 0, "duration": 90}, {"note": 67, "velocity": 127, "duration": 679}, {"note": 0, "velocity": 0, "duration": 1001}, {"note": 67, "velocity": 117, "duration": 246}, {"note": 65, "velocity": 127, "duration": 698}, {"note": 63, "velocity": 127, "duration": 127}, {"note": 60, "velocity": 96, "duration": 646}, {"note": 0, "velocity": 0, "duration": 194}, {"note": 67, "velocity": 127, "duration": 152}, {"note": 0, "velocity": 0, "duration": 88}, {"note": 65, "velocity": 127, "duration": 1282}, {"note": 0, "velocity": 0, "duration": 15758}, {"note": 63, "velocity": 127, "duration": 145}, {"note": 0, "velocity": 0, "duration": 95}, {"note": 60, "velocity": 112, "duration": 311}, {"note": 60, "velocity": 117, "duration": 580}, {"note": 0, "velocity": 0, "duration": 500}, {"note": 60, "velocity": 100, "duration": 92}, {"note": 55, "velocity": 99, "duration": 342}, {"note": 53, "velocity": 90, "duration": 797}, {"note": 0, "velocity": 0, "duration": 883}, {"note": 58, "velocity": 127, "duration": 64}, {"note": 60, "velocity": 102, "duration": 55}, {"note": 0, "velocity": 0, "duration": 65}, {"note": 63, "velocity": 127, "duration": 289}, {"note": 0, "velocity": 0, "duration": 191}, {"note": 63, "velocity": 127, "duration": 348}, {"note": 0, "velocity": 0, "duration": 612}, {"note": 63, "velocity": 122, "duration": 137}, {"note": 60, "velocity": 95, "duration": 268}, {"note": 0, "velocity": 0, "duration": 92}, {"note": 60, "velocity": 112, "duration": 747}, {"note": 0, "velocity": 0, "duration": 933}, {"note": 63, "velocity": 127, "duration": 53}, {"note": 0, "velocity": 0, "duration": 187}, {"note": 60, "velocity": 127, "duration": 221}, {"note": 0, "velocity": 0, "duration": 139}, {"note": 60, "velocity": 127, "duration": 527}, {"note": 0, "velocity": 0, "duration": 553}, {"note": 58, "velocity": 122, "duration": 68}, {"note": 55, "velocity": 107, "duration": 320}, {"note": 53, "velocity": 100, "duration": 799}, {"note": 0, "velocity": 0, "duration": 881}, {"note": 58, "velocity": 122, "duration": 54}, {"note": 0, "velocity": 0, "duration": 66}, {"note": 60, "velocity": 102, "duration": 56}, {"note": 0, "velocity": 0, "duration": 64}, {"note": 63, "velocity": 127, "duration": 321}, {"note": 0, "velocity": 0, "duration": 159}, {"note": 63, "velocity": 127, "duration": 485}, {"note": 0, "velocity": 0, "duration": 475}, {"note": 63, "velocity": 122, "duration": 48}, {"note": 0, "velocity": 0, "duration": 72}, {"note": 60, "velocity": 122, "duration": 236}, {"note": 0, "velocity": 0, "duration": 124}, {"note": 60, "velocity": 122, "duration": 1102}, {"note": 0, "velocity": 0, "duration": 338}, {"note": 55, "velocity": 112, "duration": 201}, {"note": 58, "velocity": 122, "duration": 175}, {"note": 0, "velocity": 0, "duration": 65}, {"note": 60, "velocity": 122, "duration": 681}, {"note": 0, "velocity": 0, "duration": 279}, {"note": 63, "velocity": 127, "duration": 200}, {"note": 62, "velocity": 127, "duration": 227}, {"note": 60, "velocity": 102, "duration": 199}, {"note": 58, "velocity": 112, "duration": 158}, {"note": 0, "velocity": 0, "duration": 82}, {"note": 58, "velocity": 127, "duration": 777}, {"note": 55, "velocity": 102, "duration": 117}, {"note": 0, "velocity": 0, "duration": 123}, {"note": 60, "velocity": 122, "duration": 684}, {"note": 60, "velocity": 112, "duration": 64}, {"note": 62, "velocity": 107, "duration": 55}, {"note": 0, "velocity": 0, "duration": 65}, {"note": 63, "velocity": 127, "duration": 581}, {"note": 0, "velocity": 0, "duration": 259}, {"note": 63, "velocity": 127, "duration": 50}, {"note": 0, "velocity": 0, "duration": 70}, {"note": 63, "velocity": 127, "duration": 165}, {"note": 0, "velocity": 0, "duration": 75}, {"note": 62, "velocity": 100, "duration": 129}, {"note": 0, "velocity": 0, "duration": 111}, {"note": 60, "velocity": 97, "duration": 109}, {"note": 62, "velocity": 97, "duration": 303}, {"note": 58, "velocity": 117, "duration": 872}, {"note": 0, "velocity": 0, "duration": 568}, {"note": 55, "velocity": 102, "duration": 188}, {"note": 58, "velocity": 127, "duration": 204}, {"note": 60, "velocity": 127, "duration": 578}, {"note": 0, "velocity": 0, "duration": 382}, {"note": 63, "velocity": 127, "duration": 217}, {"note": 62, "velocity": 122, "duration": 225}, {"note": 60, "velocity": 102, "duration": 185}, {"note": 58, "velocity": 112, "duration": 178}, {"note": 0, "velocity": 0, "duration": 62}, {"note": 58, "velocity": 117, "duration": 220}, {"note": 67, "velocity": 127, "duration": 355}, {"note": 0, "velocity": 0, "duration": 125}, {"note": 65, "velocity": 127, "duration": 170}, {"note": 0, "velocity": 0, "duration": 70}, {"note": 65, "velocity": 99, "duration": 230}, {"note": 63, "velocity": 112, "duration": 449}, {"note": 63, "velocity": 127, "duration": 121}, {"note": 62, "velocity": 86, "duration": 79}, {"note": 60, "velocity": 122, "duration": 552}, {"note": 0, "velocity": 0, "duration": 408}, {"note": 58, "velocity": 127, "duration": 187}, {"note": 60, "velocity": 100, "duration": 131}, {"note": 0, "velocity": 0, "duration": 109}, {"note": 67, "velocity": 127, "duration": 158}, {"note": 0, "velocity": 0, "duration": 82}, {"note": 65, "velocity": 127, "duration": 1210}, {"note": 0, "velocity": 0, "duration": 470}, {"note": 58, "velocity": 127, "duration": 91}, {"note": 60, "velocity": 96, "duration": 99}, {"note": 63, "velocity": 127, "duration": 125}, {"note": 60, "velocity": 96, "duration": 110}, {"note": 63, "velocity": 127, "duration": 1125}, {"note": 0, "velocity": 0, "duration": 195}, {"note": 58, "velocity": 112, "duration": 41}, {"note": 0, "velocity": 0, "duration": 79}, {"note": 58, "velocity": 122, "duration": 72}, {"note": 60, "velocity": 100, "duration": 69}, {"note": 63, "velocity": 122, "duration": 115}, {"note": 0, "velocity": 0, "duration": 125}, {"note": 67, "velocity": 127, "duration": 1328}, {"note": 0, "velocity": 0, "duration": 352}, {"note": 67, "velocity": 122, "duration": 114}, {"note": 0, "velocity": 0, "duration": 126}, {"note": 65, "velocity": 127, "duration": 647}, {"note": 0, "velocity": 0, "duration": 73}, {"note": 63, "velocity": 127, "duration": 111}, {"note": 60, "velocity": 117, "duration": 558}, {"note": 0, "velocity": 0, "duration": 282}, {"note": 67, "velocity": 112, "duration": 181}, {"note": 65, "velocity": 127, "duration": 663}, {"note": 63, "velocity": 122, "duration": 147}, {"note": 60, "velocity": 96, "duration": 111}, {"note": 58, "velocity": 122, "duration": 390}, {"note": 0, "velocity": 0, "duration": 90}, {"note": 58, "velocity": 127, "duration": 86}, {"note": 60, "velocity": 102, "duration": 87}, {"note": 63, "velocity": 117, "duration": 122}, {"note": 60, "velocity": 97, "duration": 112}, {"note": 63, "velocity": 117, "duration": 912}, {"note": 0, "velocity": 0, "duration": 408}, {"note": 58, "velocity": 122, "duration": 43}, {"note": 0, "velocity": 0, "duration": 77}, {"note": 58, "velocity": 127, "duration": 79}, {"note": 60, "velocity": 117, "duration": 83}, {"note": 63, "velocity": 127, "duration": 150}, {"note": 0, "velocity": 0, "duration": 90}, {"note": 67, "velocity": 127, "duration": 679}, {"note": 0, "velocity": 0, "duration": 1001}, {"note": 67, "velocity": 117, "duration": 246}, {"note": 65, "velocity": 127, "duration": 698}, {"note": 63, "velocity": 127, "duration": 127}, {"note": 60, "velocity": 96, "duration": 646}, {"note": 0, "velocity": 0, "duration": 194}, {"note": 67, "velocity": 127, "duration": 152}, {"note": 0, "velocity": 0, "duration": 88}, {"note": 65, "velocity": 127, "duration": 1282}, {"note": 0, "velocity": 0, "duration": 158}, {"note": 58, "velocity": 127, "duration": 91}, {"note": 60, "velocity": 96, "duration": 99}, {"note": 63, "velocity": 127, "duration": 125}, {"note": 60, "velocity": 96, "duration": 110}, {"note": 63, "velocity": 127, "duration": 1125}, {"note": 0, "velocity": 0, "duration": 195}, {"note": 58, "velocity": 112, "duration": 41}, {"note": 0, "velocity": 0, "duration": 79}, {"note": 58, "velocity": 122, "duration": 72}, {"note": 60, "velocity": 100, "duration": 69}, {"note": 63, "velocity": 122, "duration": 115}, {"note": 0, "velocity": 0, "duration": 125}, {"note": 67, "velocity": 127, "duration": 1328}, {"note": 0, "velocity": 0, "duration": 352}, {"note": 67, "velocity": 122, "duration": 114}, {"note": 0, "velocity": 0, "duration": 126}, {"note": 65, "velocity": 127, "duration": 647}, {"note": 0, "velocity": 0, "duration": 73}, {"note": 63, "velocity": 127, "duration": 111}, {"note": 60, "velocity": 117, "duration": 558}, {"note": 0, "velocity": 0, "duration": 282}, {"note": 67, "velocity": 112, "duration": 181}, {"note": 65, "velocity": 127, "duration": 663}, {"note": 63, "velocity": 122, "duration": 147}, {"note": 60, "velocity": 96, "duration": 111}, {"note": 58, "velocity": 122, "duration": 390}, {"note": 0, "velocity": 0, "duration": 90}, {"note": 58, "velocity": 127, "duration": 86}, {"note": 60, "velocity": 102, "duration": 87}, {"note": 63, "velocity": 117, "duration": 122}, {"note": 60, "velocity": 97, "duration": 112}, {"note": 63, "velocity": 117, "duration": 912}, {"note": 0, "velocity": 0, "duration": 408}, {"note": 58, "velocity": 122, "duration": 43}, {"note": 0, "velocity": 0, "duration": 77}, {"note": 58, "velocity": 127, "duration": 79}, {"note": 60, "velocity": 117, "duration": 83}, {"note": 63, "velocity": 127, "duration": 150}, {"note": 0, "velocity": 0, "duration": 90}, {"note": 67, "velocity": 127, "duration": 679}, {"note": 0, "velocity": 0, "duration": 1001}, {"note": 67, "velocity": 117, "duration": 246}, {"note": 65, "velocity": 127, "duration": 698}, {"note": 63, "velocity": 127, "duration": 127}, {"note": 60, "velocity": 96, "duration": 646}, {"note": 0, "velocity": 0, "duration": 194}, {"note": 67, "velocity": 127, "duration": 152}, {"note": 0, "velocity": 0, "duration": 88}, {"note": 65, "velocity": 127, "duration": 1282}, {"note": 0, "velocity": 0, "duration": 398}, {"note": 63, "velocity": 102, "duration": 129}, {"note": 0, "velocity": 0, "duration": 111}, {"note": 60, "velocity": 100, "duration": 359}, {"note": 60, "velocity": 95, "duration": 1018}, {"note": 0, "velocity": 0, "duration": 62}, {"note": 58, "velocity": 127, "duration": 74}, {"note": 55, "velocity": 107, "duration": 333}, {"note": 53, "velocity": 95, "duration": 1268}, {"note": 0, "velocity": 0, "duration": 412}, {"note": 58, "velocity": 112, "duration": 93}, {"note": 60, "velocity": 100, "duration": 62}, {"note": 63, "velocity": 122, "duration": 320}, {"note": 0, "velocity": 0, "duration": 160}, {"note": 63, "velocity": 127, "duration": 425}, {"note": 0, "velocity": 0, "duration": 1255}, {"note": 58, "velocity": 97, "duration": 190}, {"note": 0, "velocity": 0, "duration": 170}, {"note": 60, "velocity": 96, "duration": 1069}, {"note": 0, "velocity": 0, "duration": 131}, {"note": 60, "velocity": 86, "duration": 3526}]]