[[{"note": 61, "velocity": 112, "duration": 219}, {"note": 60, "velocity": 97, "duration": 1164}, {"note": 56, "velocity": 97, "duration": 155}, {"note": 0, "velocity": 0, "duration": 85}, {"note": 58, "velocity": 100, "duration": 136}, {"note": 0, "velocity": 0, "duration": 104}, {"note": 60, "velocity": 100, "duration": 117}, {"note": 0, "velocity": 0, "duration": 123}, {"note": 58, "velocity": 117, "duration": 640}, {"note": 0, "velocity": 0, "duration": 80}, {"note": 56, "velocity": 93, "duration": 471}, {"note": 0, "velocity": 0, "duration": 129}, {"note": 56, "velocity": 89, "duration": 268}, {"note": 0, "velocity": 0, "duration": 92}, {"note": 61, "velocity": 95, "duration": 256}, {"note": 60, "velocity": 95, "duration": 680}, {"note": 0, "velocity": 0, "duration": 520}, {"note": 56, "velocity": 95, "duration": 175}, {"note": 0, "velocity": 0, "duration": 65}, {"note": 58, "velocity": 96, "duration": 127}, {"note": 0, "velocity": 0, "duration": 113}, {"note": 60, "velocity": 90, "duration": 131}, {"note": 0, "velocity": 0, "duration": 109}, {"note": 58, "velocity": 99, "duration": 671}, {"note": 56, "velocity": 86, "duration": 640}, {"note": 0, "velocity": 0, "duration": 80}, {"note": 63, "velocity": 102, "duration": 161}, {"note": 0, "velocity": 0, "duration": 79}, {"note": 63, "velocity": 107, "duration": 261}, {"note": 60, "velocity": 96, "duration": 1197}, {"note": 56, "velocity": 89, "duration": 166}, {"note": 0, "velocity": 0, "duration": 74}, {"note": 58, "velocity": 92, "duration": 136}, {"note": 0, "velocity": 0, "duration": 104}, {"note": 60, "velocity": 89, "duration": 114}, {"note": 0, "velocity": 0, "duration": 126}, {"note": 58, "velocity": 102, "duration": 640}, {"note": 0, "velocity": 0, "duration": 80}, {"note": 56, "velocity": 75, "duration": 644}, {"note": 0, "velocity": 0, "duration": 76}, {"note": 56, "velocity": 88, "duration": 152}, {"note": 0, "velocity": 0, "duration": 88}, {"note": 60, "velocity": 83, "duration": 152}, {"note": 0, "velocity": 0, "duration": 88}, {"note": 63, "velocity": 95, "duration": 1013}, {"note": 0, "velocity": 0, "duration": 187}, {"note": 63, "velocity": 89, "duration": 161}, {"note": 0, "velocity": 0, "duration": 79}, {"note": 68, "velocity": 90, "duration": 167}, {"note": 0, "velocity": 0, "duration": 73}, {"note": 67, "velocity": 90, "duration": 173}, {"note": 0, "velocity": 0, "duration": 67}, {"note": 68, "velocity": 100, "duration": 489}, {"note": 70, "velocity": 107, "duration": 188}, {"note": 0, "velocity": 0, "duration": 172}, {"note": 68, "velocity": 102, "duration": 886}, {"note": 0, "velocity": 0, "duration": 74}, {"note": 68, "velocity": 88, "duration": 108}, {"note": 67, "velocity": 86, "duration": 126}, {"note": 0, "velocity": 0, "duration": 114}, {"note": 68, "velocity": 99, "duration": 905}, {"note": 65, "velocity": 90, "duration": 123}, {"note": 0, "velocity": 0, "duration": 117}, {"note": 67, "velocity": 97, "duration": 107}, {"note": 0, "velocity": 0, "duration": 133}, {"note": 68, "velocity": 107, "duration": 80}, {"note": 0, "velocity": 0, "duration": 160}, {"note": 67, "velocity": 102, "duration": 319}, {"note": 0, "velocity": 0, "duration": 161}, {"note": 67, "velocity": 107, "duration": 88}, {"note": 0, "velocity": 0, "duration": 152}, {"note": 65, "velocity": 96, "duration": 78}, {"note": 63, "velocity": 107, "duration": 793}, {"note": 0, "velocity": 0, "duration": 287}, {"note": 65, "velocity": 100, "duration": 687}, {"note": 0, "velocity": 0, "duration": 273}, {"note": 63, "velocity": 107, "duration": 322}, {"note": 0, "velocity": 0, "duration": 158}, {"note": 61, "velocity": 97, "duration": 493}, {"note": 60, "velocity": 85, "duration": 1417}, {"note": 0, "velocity": 0, "duration": 263}, {"note": 68, "velocity": 117, "duration": 108}, {"note": 67, "velocity": 74, "duration": 110}, {"note": 68, "velocity": 102, "duration": 1054}, {"note": 0, "velocity": 0, "duration": 146}, {"note": 65, "velocity": 88, "duration": 155}, {"note": 0, "velocity": 0, "duration": 85}, {"note": 67, "velocity": 95, "duration": 145}, {"note": 0, "velocity": 0, "duration": 95}, {"note": 68, "velocity": 102, "duration": 126}, {"note": 0, "velocity": 0, "duration": 114}, {"note": 67, "velocity": 100, "duration": 311}, {"note": 67, "velocity": 102, "duration": 206}, {"note": 0, "velocity": 0, "duration": 154}, {"note": 70, "velocity": 107, "duration": 183}, {"note": 63, "velocity": 102, "duration": 496}, {"note": 0, "velocity": 0, "duration": 224}, {"note": 63, "velocity": 122, "duration": 153}, {"note": 0, "velocity": 0, "duration": 87}, {"note": 65, "velocity": 112, "duration": 154}, {"note": 0, "velocity": 0, "duration": 86}, {"note": 68, "velocity": 127, "duration": 122}, {"note": 0, "velocity": 0, "duration": 118}, {"note": 68, "velocity": 127, "duration": 122}, {"note": 0, "velocity": 0, "duration": 118}, {"note": 65, "velocity": 96, "duration": 151}, {"note": 0, "velocity": 0, "duration": 89}, {"note": 68, "velocity": 112, "duration": 236}, {"note": 65, "velocity": 102, "duration": 278}, {"note": 0, "velocity": 0, "duration": 202}, {"note": 68, "velocity": 122, "duration": 168}, {"note": 0, "velocity": 0, "duration": 72}, {"note": 70, "velocity": 127, "duration": 1035}, {"note": 0, "velocity": 0, "duration": 165}, {"note": 63, "velocity": 107, "duration": 195}, {"note": 68, "velocity": 127, "duration": 160}, {"note": 0, "velocity": 0, "duration": 80}, {"note": 70, "velocity": 127, "duration": 152}, {"note": 0, "velocity": 0, "duration": 88}, {"note": 73, "velocity": 122, "duration": 384}, {"note": 0, "velocity": 0, "duration": 96}, {"note": 72, "velocity": 127, "duration": 276}, {"note": 0, "velocity": 0, "duration": 204}, {"note": 72, "velocity": 122, "duration": 169}, {"note": 0, "velocity": 0, "duration": 71}, {"note": 70, "velocity": 112, "duration": 141}, {"note": 0, "velocity": 0, "duration": 99}, {"note": 70, "velocity": 127, "duration": 141}, {"note": 0, "velocity": 0, "duration": 99}, {"note": 68, "velocity": 122, "duration": 115}, {"note": 0, "velocity": 0, "duration": 125}, {"note": 70, "velocity": 127, "duration": 321}, {"note": 0, "velocity": 0, "duration": 159}, {"note": 72, "velocity": 102, "duration": 238}, {"note": 0, "velocity": 0, "duration": 242}, {"note": 70, "velocity": 117, "duration": 167}, {"note": 0, "velocity": 0, "duration": 73}, {"note": 68, "velocity": 102, "duration": 126}, {"note": 0, "velocity": 0, "duration": 114}, {"note": 68, "velocity": 117, "duration": 156}, {"note": 0, "velocity": 0, "duration": 84}, {"note": 67, "velocity": 100, "duration": 122}, {"note": 0, "velocity": 0, "duration": 118}, {"note": 68, "velocity": 122, "duration": 175}, {"note": 0, "velocity": 0, "duration": 65}, {"note": 68, "velocity": 127, "duration": 132}, {"note": 0, "velocity": 0, "duration": 108}, {"note": 68, "velocity": 122, "duration": 135}, {"note": 0, "velocity": 0, "duration": 105}, {"note": 67, "velocity": 107, "duration": 145}, {"note": 0, "velocity": 0, "duration": 95}, {"note": 65, "velocity": 107, "duration": 155}, {"note": 0, "velocity": 0, "duration": 325}, {"note": 67, "velocity": 102, "duration": 331}, {"note": 0, "velocity": 0, "duration": 149}, {"note": 63, "velocity": 100, "duration": 1012}, {"note": 0, "velocity": 0, "duration": 668}, {"note": 63, "velocity": 122, "duration": 154}, {"note": 0, "velocity": 0, "duration": 86}, {"note": 65, "velocity": 97, "duration": 157}, {"note": 0, "velocity": 0, "duration": 83}, {"note": 68, "velocity": 112, "duration": 125}, {"note": 0, "velocity": 0, "duration": 115}, {"note": 68, "velocity": 127, "duration": 174}, {"note": 0, "velocity": 0, "duration": 66}, {"note": 65, "velocity": 117, "duration": 435}, {"note": 68, "velocity": 122, "duration": 444}, {"note": 0, "velocity": 0, "duration": 276}, {"note": 63, "velocity": 117, "duration": 158}, {"note": 0, "velocity": 0, "duration": 82}, {"note": 68, "velocity": 117, "duration": 123}, {"note": 0, "velocity": 0, "duration": 117}, {"note": 68, "velocity": 117, "duration": 130}, {"note": 0, "velocity": 0, "duration": 110}, {"note": 70, "velocity": 127, "duration": 347}, {"note": 0, "velocity": 0, "duration": 133}, {"note": 68, "velocity": 127, "duration": 342}, {"note": 0, "velocity": 0, "duration": 138}, {"note": 68, "velocity": 122, "duration": 68}, {"note": 70, "velocity": 117, "duration": 88}, {"note": 72, "velocity": 107, "duration": 176}, {"note": 0, "velocity": 0, "duration": 64}, {"note": 70, "velocity": 127, "duration": 119}, {"note": 0, "velocity": 0, "duration": 121}, {"note": 70, "velocity": 127, "duration": 152}, {"note": 0, "velocity": 0, "duration": 88}, {"note": 68, "velocity": 107, "duration": 152}, {"note": 0, "velocity": 0, "duration": 88}, {"note": 68, "velocity": 127, "duration": 154}, {"note": 0, "velocity": 0, "duration": 86}, {"note": 65, "velocity": 100, "duration": 272}, {"note": 0, "velocity": 0, "duration": 208}, {"note": 72, "velocity": 112, "duration": 333}, {"note": 0, "velocity": 0, "duration": 147}, {"note": 70, "velocity": 127, "duration": 154}, {"note": 0, "velocity": 0, "duration": 86}, {"note": 70, "velocity": 127, "duration": 114}, {"note": 0, "velocity": 0, "duration": 126}, {"note": 68, "velocity": 112, "duration": 133}, {"note": 0, "velocity": 0, "duration": 107}, {"note": 70, "velocity": 127, "duration": 313}, {"note": 63, "velocity": 112, "duration": 191}, {"note": 68, "velocity": 122, "duration": 168}, {"note": 0, "velocity": 0, "duration": 72}, {"note": 70, "velocity": 127, "duration": 162}, {"note": 0, "velocity": 0, "duration": 78}, {"note": 73, "velocity": 127, "duration": 326}, {"note": 0, "velocity": 0, "duration": 154}, {"note": 72, "velocity": 122, "duration": 154}, {"note": 0, "velocity": 0, "duration": 326}, {"note": 72, "velocity": 107, "duration": 176}, {"note": 0, "velocity": 0, "duration": 64}, {"note": 70, "velocity": 122, "duration": 142}, {"note": 0, "velocity": 0, "duration": 98}, {"note": 70, "velocity": 127, "duration": 163}, {"note": 0, "velocity": 0, "duration": 77}, {"note": 68, "velocity": 122, "duration": 165}, {"note": 0, "velocity": 0, "duration": 75}, {"note": 70, "velocity": 117, "duration": 343}, {"note": 0, "velocity": 0, "duration": 137}, {"note": 70, "velocity": 127, "duration": 297}, {"note": 0, "velocity": 0, "duration": 183}, {"note": 70, "velocity": 127, "duration": 160}, {"note": 0, "velocity": 0, "duration": 80}, {"note": 68, "velocity": 127, "duration": 133}, {"note": 0, "velocity": 0, "duration": 107}, {"note": 68, "velocity": 122, "duration": 149}, {"note": 0, "velocity": 0, "duration": 91}, {"note": 67, "velocity": 102, "duration": 145}, {"note": 0, "velocity": 0, "duration": 95}, {"note": 68, "velocity": 127, "duration": 213}, {"note": 68, "velocity": 127, "duration": 111}, {"note": 0, "velocity": 0, "duration": 129}, {"note": 68, "velocity": 122, "duration": 138}, {"note": 0, "velocity": 0, "duration": 102}, {"note": 67, "velocity": 122, "duration": 157}, {"note": 0, "velocity": 0, "duration": 83}, {"note": 65, "velocity": 112, "duration": 248}, {"note": 0, "velocity": 0, "duration": 232}, {"note": 67, "velocity": 112, "duration": 354}, {"note": 0, "velocity": 0, "duration": 126}, {"note": 63, "velocity": 117, "duration": 934}, {"note": 0, "velocity": 0, "duration": 746}, {"note": 63, "velocity": 127, "duration": 132}, {"note": 0, "velocity": 0, "duration": 108}, {"note": 65, "velocity": 102, "duration": 150}, {"note": 0, "velocity": 0, "duration": 90}, {"note": 68, "velocity": 127, "duration": 131}, {"note": 0, "velocity": 0, "duration": 109}, {"note": 68, "velocity": 127, "duration": 113}, {"note": 0, "velocity": 0, "duration": 127}, {"note": 65, "velocity": 112, "duration": 357}, {"note": 0, "velocity": 0, "duration": 123}, {"note": 68, "velocity": 127, "duration": 247}, {"note": 0, "velocity": 0, "duration": 473}, {"note": 63, "velocity": 127, "duration": 124}, {"note": 0, "velocity": 0, "duration": 116}, {"note": 68, "velocity": 127, "duration": 94}, {"note": 0, "velocity": 0, "duration": 146}, {"note": 68, "velocity": 127, "duration": 109}, {"note": 0, "velocity": 0, "duration": 131}, {"note": 70, "velocity": 127, "duration": 355}, {"note": 0, "velocity": 0, "duration": 125}, {"note": 68, "velocity": 127, "duration": 267}, {"note": 0, "velocity": 0, "duration": 213}, {"note": 68, "velocity": 112, "duration": 99}, {"note": 70, "velocity": 107, "duration": 74}, {"note": 72, "velocity": 122, "duration": 177}, {"note": 0, "velocity": 0, "duration": 63}, {"note": 70, "velocity": 127, "duration": 126}, {"note": 0, "velocity": 0, "duration": 114}, {"note": 70, "velocity": 127, "duration": 184}, {"note": 68, "velocity": 122, "duration": 141}, {"note": 0, "velocity": 0, "duration": 99}, {"note": 73, "velocity": 127, "duration": 245}, {"note": 0, "velocity": 0, "duration": 115}, {"note": 72, "velocity": 127, "duration": 273}, {"note": 0, "velocity": 0, "duration": 87}, {"note": 70, "velocity": 127, "duration": 227}, {"note": 68, "velocity": 127, "duration": 1666}, {"note": 0, "velocity": 0, "duration": 9614}, {"note": 68, "velocity": 127, "duration": 105}, {"note": 67, "velocity": 96, "duration": 97}, {"note": 68, "velocity": 99, "duration": 905}, {"note": 0, "velocity": 0, "duration": 295}, {"note": 65, "velocity": 90, "duration": 123}, {"note": 0, "velocity": 0, "duration": 117}, {"note": 67, "velocity": 97, "duration": 107}, {"note": 0, "velocity": 0, "duration": 133}, {"note": 68, "velocity": 107, "duration": 80}, {"note": 0, "velocity": 0, "duration": 160}, {"note": 67, "velocity": 102, "duration": 319}, {"note": 0, "velocity": 0, "duration": 161}, {"note": 67, "velocity": 107, "duration": 88}, {"note": 0, "velocity": 0, "duration": 152}, {"note": 65, "velocity": 96, "duration": 78}, {"note": 63, "velocity": 107, "duration": 793}, {"note": 0, "velocity": 0, "duration": 287}, {"note": 65, "velocity": 100, "duration": 687}, {"note": 0, "velocity": 0, "duration": 273}, {"note": 63, "velocity": 107, "duration": 322}, {"note": 0, "velocity": 0, "duration": 158}, {"note": 61, "velocity": 97, "duration": 493}, {"note": 60, "velocity": 85, "duration": 1417}, {"note": 0, "velocity": 0, "duration": 263}, {"note": 68, "velocity": 117, "duration": 108}, {"note": 67, "velocity": 74, "duration": 110}, {"note": 68, "velocity": 102, "duration": 1054}, {"note": 0, "velocity": 0, "duration": 146}, {"note": 65, "velocity": 88, "duration": 155}, {"note": 0, "velocity": 0, "duration": 85}, {"note": 67, "velocity": 95, "duration": 145}, {"note": 0, "velocity": 0, "duration": 95}, {"note": 68, "velocity": 102, "duration": 126}, {"note": 0, "velocity": 0, "duration": 114}, {"note": 67, "velocity": 100, "duration": 311}, {"note": 67, "velocity": 102, "duration": 206}, {"note": 0, "velocity": 0, "duration": 154}, {"note": 70, "velocity": 107, "duration": 183}, {"note": 63, "velocity": 102, "duration": 496}, {"note": 0, "velocity": 0, "duration": 224}, {"note": 63, "velocity": 122, "duration": 153}, {"note": 0, "velocity": 0, "duration": 87}, {"note": 65, "velocity": 112, "duration": 154}, {"note": 0, "velocity": 0, "duration": 86}, {"note": 68, "velocity": 127, "duration": 122}, {"note": 0, "velocity": 0, "duration": 118}, {"note": 68, "velocity": 127, "duration": 122}, {"note": 0, "velocity": 0, "duration": 118}, {"note": 65, "velocity": 96, "duration": 151}, {"note": 0, "velocity": 0, "duration": 89}, {"note": 68, "velocity": 112, "duration": 236}, {"note": 65, "velocity": 102, "duration": 278}, {"note": 0, "velocity": 0, "duration": 202}, {"note": 68, "velocity": 122, "duration": 168}, {"note": 0, "velocity": 0, "duration": 72}, {"note": 70, "velocity": 127, "duration": 1035}, {"note": 0, "velocity": 0, "duration": 165}, {"note": 63, "velocity": 107, "duration": 195}, {"note": 68, "velocity": 127, "duration": 160}, {"note": 0, "velocity": 0, "duration": 80}, {"note": 70, "velocity": 127, "duration": 152}, {"note": 0, "velocity": 0, "duration": 88}, {"note": 73, "velocity": 122, "duration": 384}, {"note": 0, "velocity": 0, "duration": 96}, {"note": 72, "velocity": 127, "duration": 276}, {"note": 0, "velocity": 0, "duration": 204}, {"note": 72, "velocity": 122, "duration": 169}, {"note": 0, "velocity": 0, "duration": 71}, {"note": 70, "velocity": 112, "duration": 141}, {"note": 0, "velocity": 0, "duration": 99}, {"note": 70, "velocity": 127, "duration": 141}, {"note": 0, "velocity": 0, "duration": 99}, {"note": 68, "velocity": 122, "duration": 115}, {"note": 0, "velocity": 0, "duration": 125}, {"note": 70, "velocity": 127, "duration": 321}, {"note": 0, "velocity": 0, "duration": 159}, {"note": 72, "velocity": 102, "duration": 238}, {"note": 0, "velocity": 0, "duration": 242}, {"note": 70, "velocity": 117, "duration": 167}, {"note": 0, "velocity": 0, "duration": 73}, {"note": 68, "velocity": 102, "duration": 126}, {"note": 0, "velocity": 0, "duration": 114}, {"note": 68, "velocity": 117, "duration": 156}, {"note": 0, "velocity": 0, "duration": 84}, {"note": 67, "velocity": 100, "duration": 122}, {"note": 0, "velocity": 0, "duration": 118}, {"note": 68, "velocity": 122, "duration": 175}, {"note": 0, "velocity": 0, "duration": 65}, {"note": 68, "velocity": 127, "duration": 132}, {"note": 0, "velocity": 0, "duration": 108}, {"note": 68, "velocity": 122, "duration": 135}, {"note": 0, "velocity": 0, "duration": 105}, {"note": 67, "velocity": 107, "duration": 145}, {"note": 0, "velocity": 0, "duration": 95}, {"note": 65, "velocity": 107, "duration": 155}, {"note": 0, "velocity": 0, "duration": 325}, {"note": 67, "velocity": 102, "duration": 331}, {"note": 0, "velocity": 0, "duration": 149}, {"note": 63, "velocity": 100, "duration": 1012}, {"note": 0, "velocity": 0, "duration": 668}, {"note": 63, "velocity": 122, "duration": 154}, {"note": 0, "velocity": 0, "duration": 86}, {"note": 65, "velocity": 97, "duration": 157}, {"note": 0, "velocity": 0, "duration": 83}, {"note": 68, "velocity": 112, "duration": 125}, {"note": 0, "velocity": 0, "duration": 115}, {"note": 68, "velocity": 127, "duration": 174}, {"note": 0, "velocity": 0, "duration": 66}, {"note": 65, "velocity": 117, "duration": 435}, {"note": 68, "velocity": 122, "duration": 444}, {"note": 0, "velocity": 0, "duration": 276}, {"note": 63, "velocity": 117, "duration": 158}, {"note": 0, "velocity": 0, "duration": 82}, {"note": 68, "velocity": 117, "duration": 123}, {"note": 0, "velocity": 0, "duration": 117}, {"note": 68, "velocity": 117, "duration": 130}, {"note": 0, "velocity": 0, "duration": 110}, {"note": 70, "velocity": 127, "duration": 347}, {"note": 0, "velocity": 0, "duration": 133}, {"note": 68, "velocity": 127, "duration": 342}, {"note": 0, "velocity": 0, "duration": 138}, {"note": 68, "velocity": 122, "duration": 68}, {"note": 70, "velocity": 117, "duration": 88}, {"note": 72, "velocity": 107, "duration": 176}, {"note": 0, "velocity": 0, "duration": 64}, {"note": 70, "velocity": 127, "duration": 119}, {"note": 0, "velocity": 0, "duration": 121}, {"note": 70, "velocity": 127, "duration": 152}, {"note": 0, "velocity": 0, "duration": 88}, {"note": 68, "velocity": 107, "duration": 152}, {"note": 0, "velocity": 0, "duration": 88}, {"note": 68, "velocity": 127, "duration": 154}, {"note": 0, "velocity": 0, "duration": 86}, {"note": 65, "velocity": 100, "duration": 272}, {"note": 0, "velocity": 0, "duration": 208}, {"note": 72, "velocity": 112, "duration": 333}, {"note": 0, "velocity": 0, "duration": 147}, {"note": 70, "velocity": 127, "duration": 154}, {"note": 0, "velocity": 0, "duration": 86}, {"note": 70, "velocity": 127, "duration": 114}, {"note": 0, "velocity": 0, "duration": 126}, {"note": 68, "velocity": 112, "duration": 133}, {"note": 0, "velocity": 0, "duration": 107}, {"note": 70, "velocity": 127, "duration": 313}, {"note": 63, "velocity": 112, "duration": 191}, {"note": 68, "velocity": 122, "duration": 168}, {"note": 0, "velocity": 0, "duration": 72}, {"note": 70, "velocity": 127, "duration": 162}, {"note": 0, "velocity": 0, "duration": 78}, {"note": 73, "velocity": 127, "duration": 326}, {"note": 0, "velocity": 0, "duration": 154}, {"note": 72, "velocity": 122, "duration": 154}, {"note": 0, "velocity": 0, "duration": 326}, {"note": 72, "velocity": 107, "duration": 176}, {"note": 0, "velocity": 0, "duration": 64}, {"note": 70, "velocity": 122, "duration": 142}, {"note": 0, "velocity": 0, "duration": 98}, {"note": 70, "velocity": 127, "duration": 163}, {"note": 0, "velocity": 0, "duration": 77}, {"note": 68, "velocity": 122, "duration": 165}, {"note": 0, "velocity": 0, "duration": 75}, {"note": 70, "velocity": 117, "duration": 343}, {"note": 0, "velocity": 0, "duration": 137}, {"note": 70, "velocity": 127, "duration": 297}, {"note": 0, "velocity": 0, "duration": 183}, {"note": 70, "velocity": 127, "duration": 160}, {"note": 0, "velocity": 0, "duration": 80}, {"note": 68, "velocity": 127, "duration": 133}, {"note": 0, "velocity": 0, "duration": 107}, {"note": 68, "velocity": 122, "duration": 149}, {"note": 0, "velocity": 0, "duration": 91}, {"note": 67, "velocity": 102, "duration": 145}, {"note": 0, "velocity": 0, "duration": 95}, {"note": 68, "velocity": 127, "duration": 213}, {"note": 68, "velocity": 127, "duration": 111}, {"note": 0, "velocity": 0, "duration": 129}, {"note": 68, "velocity": 122, "duration": 138}, {"note": 0, "velocity": 0, "duration": 102}, {"note": 67, "velocity": 122, "duration": 157}, {"note": 0, "velocity": 0, "duration": 83}, {"note": 65, "velocity": 112, "duration": 248}, {"note": 0, "velocity": 0, "duration": 232}, {"note": 67, "velocity": 112, "duration": 354}, {"note": 0, "velocity": 0, "duration": 126}, {"note": 63, "velocity": 117, "duration": 934}, {"note": 0, "velocity": 0, "duration": 746}, {"note": 63, "velocity": 127, "duration": 132}, {"note": 0, "velocity": 0, "duration": 108}, {"note": 65, "velocity": 102, "duration": 150}, {"note": 0, "velocity": 0, "duration": 90}, {"note": 68, "velocity": 127, "duration": 131}, {"note": 0, "velocity": 0, "duration": 109}, {"note": 68, "velocity": 127, "duration": 113}, {"note": 0, "velocity": 0, "duration": 127}, {"note": 65, "velocity": 112, "duration": 357}, {"note": 0, "velocity": 0, "duration": 123}, {"note": 68, "velocity": 127, "duration": 247}, {"note": 0, "velocity": 0, "duration": 473}, {"note": 63, "velocity": 127, "duration": 124}, {"note": 0, "velocity": 0, "duration": 116}, {"note": 68, "velocity": 127, "duration": 94}, {"note": 0, "velocity": 0, "duration": 146}, {"note": 68, "velocity": 127, "duration": 109}, {"note": 0, "velocity": 0, "duration": 131}, {"note": 70, "velocity": 127, "duration": 355}, {"note": 0, "velocity": 0, "duration": 125}, {"note": 68, "velocity": 127, "duration": 267}, {"note": 0, "velocity": 0, "duration": 213}, {"note": 68, "velocity": 112, "duration": 99}, {"note": 70, "velocity": 107, "duration": 74}, {"note": 72, "velocity": 122, "duration": 177}, {"note": 0, "velocity": 0, "duration": 63}, {"note": 70, "velocity": 127, "duration": 126}, {"note": 0, "velocity": 0, "duration": 114}, {"note": 70, "velocity": 127, "duration": 184}, {"note": 68, "velocity": 122, "duration": 141}, {"note": 0, "velocity": 0, "duration": 99}, {"note": 73, "velocity": 127, "duration": 245}, {"note": 0, "velocity": 0, "duration": 115}, {"note": 72, "velocity": 127, "duration": 273}, {"note": 0, "velocity": 0, "duration": 87}, {"note": 70, "velocity": 127, "duration": 227}, {"note": 68, "velocity": 127, "duration": 960}, {"note": 0, "velocity": 0, "duration": 240}, {"note": 63, "velocity": 112, "duration": 191}, {"note": 68, "velocity": 122, "duration": 168}, {"note": 0, "velocity": 0, "duration": 72}, {"note": 70, "velocity": 127, "duration": 162}, {"note": 0, "velocity": 0, "duration": 78}, {"note": 73, "velocity": 127, "duration": 326}, {"note": 0, "velocity": 0, "duration": 154}, {"note": 72, "velocity": 122, "duration": 154}, {"note": 0, "velocity": 0, "duration": 326}, {"note": 72, "velocity": 107, "duration": 176}, {"note": 0, "velocity": 0, "duration": 64}, {"note": 70, "velocity": 122, "duration": 142}, {"note": 0, "velocity": 0, "duration": 98}, {"note": 70, "velocity": 127, "duration": 163}, {"note": 0, "velocity": 0, "duration": 77}, {"note": 68, "velocity": 122, "duration": 165}, {"note": 0, "velocity": 0, "duration": 75}, {"note": 70, "velocity": 117, "duration": 343}, {"note": 0, "velocity": 0, "duration": 137}, {"note": 70, "velocity": 127, "duration": 297}, {"note": 0, "velocity": 0, "duration": 183}, {"note": 70, "velocity": 127, "duration": 160}, {"note": 0, "velocity": 0, "duration": 80}, {"note": 68, "velocity": 127, "duration": 133}, {"note": 0, "velocity": 0, "duration": 107}, {"note": 68, "velocity": 122, "duration": 149}, {"note": 0, "velocity": 0, "duration": 91}, {"note": 67, "velocity": 102, "duration": 145}, {"note": 0, "velocity": 0, "duration": 95}, {"note": 68, "velocity": 127, "duration": 213}, {"note": 68, "velocity": 127, "duration": 111}, {"note": 0, "velocity": 0, "duration": 129}, {"note": 68, "velocity": 122, "duration": 138}, {"note": 0, "velocity": 0, "duration": 102}, {"note": 67, "velocity": 122, "duration": 157}, {"note": 0, "velocity": 0, "duration": 83}, {"note": 65, "velocity": 112, "duration": 248}, {"note": 0, "velocity": 0, "duration": 232}, {"note": 67, "velocity": 112, "duration": 354}, {"note": 0, "velocity": 0, "duration": 126}, {"note": 63, "velocity": 117, "duration": 934}, {"note": 0, "velocity": 0, "duration": 746}, {"note": 63, "velocity": 127, "duration": 132}, {"note": 0, "velocity": 0, "duration": 108}, {"note": 65, "velocity": 102, "duration": 150}, {"note": 0, "velocity": 0, "duration": 90}, {"note": 68, "velocity": 127, "duration": 131}, {"note": 0, "velocity": 0, "duration": 109}, {"note": 68, "velocity": 127, "duration": 113}, {"note": 0, "velocity": 0, "duration": 127}, {"note": 65, "velocity": 112, "duration": 357}, {"note": 0, "velocity": 0, "duration": 123}, {"note": 68, "velocity": 127, "duration": 247}, {"note": 0, "velocity": 0, "duration": 473}, {"note": 63, "velocity": 127, "duration": 124}, {"note": 0, "velocity": 0, "duration": 116}, {"note": 68, "velocity": 127, "duration": 94}, {"note": 0, "velocity": 0, "duration": 146}, {"note": 68, "velocity": 127, "duration": 109}, {"note": 0, "velocity": 0, "duration": 131}, {"note": 70, "velocity": 127, "duration": 355}, {"note": 0, "velocity": 0, "duration": 125}, {"note": 68, "velocity": 127, "duration": 267}, {"note": 0, "velocity": 0, "duration": 213}, {"note": 68, "velocity": 112, "duration": 99}, {"note": 70, "velocity": 107, "duration": 74}, {"note": 72, "velocity": 122, "duration": 177}, {"note": 0, "velocity": 0, "duration": 63}, {"note": 70, "velocity": 127, "duration": 126}, {"note": 0, "velocity": 0, "duration": 114}, {"note": 70, "velocity": 127, "duration": 184}, {"note": 68, "velocity": 122, "duration": 141}, {"note": 0, "velocity": 0, "duration": 99}, {"note": 73, "velocity": 127, "duration": 245}, {"note": 0, "velocity": 0, "duration": 115}, {"note": 72, "velocity": 127, "duration": 273}, {"note": 0, "velocity": 0, "duration": 87}, {"note": 70, "velocity": 127, "duration": 227}, {"note": 68, "velocity": 127, "duration": 960}, {"note": 0, "velocity": 0, "duration": 960}, {"note": 72, "velocity": 117, "duration": 1551}, {"note": 0, "velocity": 0, "duration": 129}, {"note": 72, "velocity": 127, "duration": 161}, {"note": 0, "velocity": 0, "duration": 79}, {"note": 72, "velocity": 99, "duration": 254}, {"note": 70, "velocity": 96, "duration": 1462}, {"note": 0, "velocity": 0, "duration": 218}, {"note": 72, "velocity": 99, "duration": 220}, {"note": 68, "velocity": 96, "duration": 183}, {"note": 68, "velocity": 93, "duration": 231}, {"note": 65, "velocity": 89, "duration": 185}, {"note": 65, "velocity": 83, "duration": 627}, {"note": 0, "velocity": 0, "duration": 134}, {"note": 67, "velocity": 70, "duration": 1187}, {"note": 0, "velocity": 0, "duration": 452}, {"note": 68, "velocity": 100, "duration": 4713}]]