[[{"note": 62, "velocity": 79, "duration": 80}, {"note": 62, "velocity": 66, "duration": 71}, {"note": 62, "velocity": 67, "duration": 81}, {"note": 62, "velocity": 85, "duration": 114}, {"note": 62, "velocity": 95, "duration": 100}, {"note": 61, "velocity": 92, "duration": 87}, {"note": 59, "velocity": 71, "duration": 57}, {"note": 0, "velocity": 0, "duration": 63}, {"note": 57, "velocity": 61, "duration": 506}, {"note": 62, "velocity": 76, "duration": 49}, {"note": 0, "velocity": 0, "duration": 71}, {"note": 62, "velocity": 88, "duration": 66}, {"note": 61, "velocity": 107, "duration": 49}, {"note": 0, "velocity": 0, "duration": 71}, {"note": 59, "velocity": 88, "duration": 97}, {"note": 57, "velocity": 85, "duration": 149}, {"note": 62, "velocity": 92, "duration": 62}, {"note": 62, "velocity": 81, "duration": 61}, {"note": 62, "velocity": 75, "duration": 58}, {"note": 0, "velocity": 0, "duration": 62}, {"note": 62, "velocity": 90, "duration": 83}, {"note": 62, "velocity": 81, "duration": 75}, {"note": 64, "velocity": 77, "duration": 87}, {"note": 66, "velocity": 96, "duration": 49}, {"note": 0, "velocity": 0, "duration": 71}, {"note": 66, "velocity": 90, "duration": 698}, {"note": 0, "velocity": 0, "duration": 502}, {"note": 66, "velocity": 76, "duration": 71}, {"note": 66, "velocity": 82, "duration": 76}, {"note": 67, "velocity": 83, "duration": 87}, {"note": 66, "velocity": 99, "duration": 62}, {"note": 62, "velocity": 79, "duration": 53}, {"note": 0, "velocity": 0, "duration": 67}, {"note": 64, "velocity": 78, "duration": 269}, {"note": 0, "velocity": 0, "duration": 91}, {"note": 64, "velocity": 78, "duration": 62}, {"note": 64, "velocity": 83, "duration": 52}, {"note": 0, "velocity": 0, "duration": 68}, {"note": 66, "velocity": 99, "duration": 51}, {"note": 0, "velocity": 0, "duration": 69}, {"note": 64, "velocity": 92, "duration": 95}, {"note": 62, "velocity": 78, "duration": 40}, {"note": 0, "velocity": 0, "duration": 80}, {"note": 62, "velocity": 82, "duration": 229}, {"note": 0, "velocity": 0, "duration": 131}, {"note": 67, "velocity": 86, "duration": 72}, {"note": 67, "velocity": 77, "duration": 106}, {"note": 69, "velocity": 71, "duration": 71}, {"note": 66, "velocity": 93, "duration": 107}, {"note": 62, "velocity": 75, "duration": 74}, {"note": 66, "velocity": 96, "duration": 76}, {"note": 0, "velocity": 0, "duration": 164}, {"note": 64, "velocity": 78, "duration": 883}, {"note": 0, "velocity": 0, "duration": 77}, {"note": 62, "velocity": 83, "duration": 68}, {"note": 62, "velocity": 85, "duration": 61}, {"note": 62, "velocity": 78, "duration": 59}, {"note": 0, "velocity": 0, "duration": 61}, {"note": 62, "velocity": 81, "duration": 51}, {"note": 0, "velocity": 0, "duration": 69}, {"note": 62, "velocity": 92, "duration": 57}, {"note": 0, "velocity": 0, "duration": 63}, {"note": 61, "velocity": 99, "duration": 56}, {"note": 0, "velocity": 0, "duration": 64}, {"note": 59, "velocity": 79, "duration": 48}, {"note": 0, "velocity": 0, "duration": 72}, {"note": 57, "velocity": 85, "duration": 470}, {"note": 62, "velocity": 86, "duration": 51}, {"note": 0, "velocity": 0, "duration": 69}, {"note": 62, "velocity": 93, "duration": 83}, {"note": 61, "velocity": 95, "duration": 72}, {"note": 59, "velocity": 79, "duration": 49}, {"note": 0, "velocity": 0, "duration": 71}, {"note": 57, "velocity": 89, "duration": 97}, {"note": 62, "velocity": 96, "duration": 51}, {"note": 0, "velocity": 0, "duration": 69}, {"note": 62, "velocity": 92, "duration": 47}, {"note": 0, "velocity": 0, "duration": 73}, {"note": 62, "velocity": 93, "duration": 46}, {"note": 0, "velocity": 0, "duration": 74}, {"note": 62, "velocity": 88, "duration": 51}, {"note": 0, "velocity": 0, "duration": 69}, {"note": 62, "velocity": 99, "duration": 74}, {"note": 64, "velocity": 92, "duration": 110}, {"note": 66, "velocity": 93, "duration": 57}, {"note": 0, "velocity": 0, "duration": 63}, {"note": 66, "velocity": 89, "duration": 725}, {"note": 0, "velocity": 0, "duration": 475}, {"note": 66, "velocity": 100, "duration": 61}, {"note": 66, "velocity": 96, "duration": 72}, {"note": 67, "velocity": 96, "duration": 98}, {"note": 66, "velocity": 107, "duration": 86}, {"note": 62, "velocity": 92, "duration": 85}, {"note": 64, "velocity": 90, "duration": 240}, {"note": 0, "velocity": 0, "duration": 120}, {"note": 64, "velocity": 95, "duration": 71}, {"note": 64, "velocity": 92, "duration": 65}, {"note": 66, "velocity": 112, "duration": 117}, {"note": 64, "velocity": 96, "duration": 105}, {"note": 62, "velocity": 89, "duration": 88}, {"note": 62, "velocity": 99, "duration": 215}, {"note": 0, "velocity": 0, "duration": 145}, {"note": 67, "velocity": 100, "duration": 51}, {"note": 0, "velocity": 0, "duration": 69}, {"note": 67, "velocity": 83, "duration": 61}, {"note": 66, "velocity": 99, "duration": 51}, {"note": 0, "velocity": 0, "duration": 69}, {"note": 64, "velocity": 90, "duration": 95}, {"note": 62, "velocity": 95, "duration": 58}, {"note": 0, "velocity": 0, "duration": 62}, {"note": 61, "velocity": 95, "duration": 55}, {"note": 0, "velocity": 0, "duration": 65}, {"note": 64, "velocity": 95, "duration": 247}, {"note": 62, "velocity": 88, "duration": 571}, {"note": 0, "velocity": 0, "duration": 149}, {"note": 61, "velocity": 100, "duration": 102}, {"note": 59, "velocity": 82, "duration": 101}, {"note": 61, "velocity": 95, "duration": 128}, {"note": 62, "velocity": 99, "duration": 65}, {"note": 69, "velocity": 107, "duration": 89}, {"note": 69, "velocity": 127, "duration": 207}, {"note": 0, "velocity": 0, "duration": 153}, {"note": 61, "velocity": 127, "duration": 115}, {"note": 59, "velocity": 100, "duration": 122}, {"note": 61, "velocity": 112, "duration": 101}, {"note": 62, "velocity": 100, "duration": 72}, {"note": 69, "velocity": 79, "duration": 86}, {"note": 69, "velocity": 127, "duration": 152}, {"note": 62, "velocity": 92, "duration": 136}, {"note": 64, "velocity": 89, "duration": 135}, {"note": 62, "velocity": 88, "duration": 290}, {"note": 0, "velocity": 0, "duration": 70}, {"note": 59, "velocity": 102, "duration": 53}, {"note": 0, "velocity": 0, "duration": 67}, {"note": 59, "velocity": 90, "duration": 46}, {"note": 0, "velocity": 0, "duration": 74}, {"note": 59, "velocity": 122, "duration": 101}, {"note": 57, "velocity": 90, "duration": 50}, {"note": 0, "velocity": 0, "duration": 70}, {"note": 57, "velocity": 107, "duration": 94}, {"note": 55, "velocity": 85, "duration": 101}, {"note": 57, "velocity": 112, "duration": 230}, {"note": 62, "velocity": 107, "duration": 83}, {"note": 64, "velocity": 102, "duration": 137}, {"note": 0, "velocity": 0, "duration": 223}, {"note": 66, "velocity": 112, "duration": 61}, {"note": 66, "velocity": 127, "duration": 304}, {"note": 59, "velocity": 92, "duration": 116}, {"note": 61, "velocity": 96, "duration": 119}, {"note": 62, "velocity": 96, "duration": 105}, {"note": 69, "velocity": 99, "duration": 70}, {"note": 69, "velocity": 122, "duration": 250}, {"note": 0, "velocity": 0, "duration": 230}, {"note": 59, "velocity": 96, "duration": 110}, {"note": 61, "velocity": 122, "duration": 84}, {"note": 62, "velocity": 122, "duration": 97}, {"note": 69, "velocity": 97, "duration": 86}, {"note": 69, "velocity": 112, "duration": 116}, {"note": 62, "velocity": 95, "duration": 112}, {"note": 66, "velocity": 127, "duration": 56}, {"note": 0, "velocity": 0, "duration": 64}, {"note": 66, "velocity": 107, "duration": 60}, {"note": 66, "velocity": 112, "duration": 67}, {"note": 66, "velocity": 127, "duration": 68}, {"note": 66, "velocity": 117, "duration": 100}, {"note": 64, "velocity": 97, "duration": 82}, {"note": 64, "velocity": 90, "duration": 102}, {"note": 66, "velocity": 112, "duration": 125}, {"note": 67, "velocity": 100, "duration": 543}, {"note": 66, "velocity": 99, "duration": 85}, {"note": 66, "velocity": 107, "duration": 120}, {"note": 64, "velocity": 95, "duration": 582}, {"note": 0, "velocity": 0, "duration": 378}, {"note": 66, "velocity": 117, "duration": 113}, {"note": 66, "velocity": 127, "duration": 181}, {"note": 71, "velocity": 122, "duration": 109}, {"note": 66, "velocity": 127, "duration": 138}, {"note": 0, "velocity": 0, "duration": 222}, {"note": 64, "velocity": 127, "duration": 98}, {"note": 62, "velocity": 99, "duration": 79}, {"note": 61, "velocity": 127, "duration": 171}, {"note": 0, "velocity": 0, "duration": 69}, {"note": 61, "velocity": 122, "duration": 49}, {"note": 0, "velocity": 0, "duration": 71}, {"note": 62, "velocity": 117, "duration": 199}, {"note": 64, "velocity": 112, "duration": 194}, {"note": 64, "velocity": 79, "duration": 64}, {"note": 64, "velocity": 117, "duration": 194}, {"note": 69, "velocity": 112, "duration": 113}, {"note": 64, "velocity": 117, "duration": 269}, {"note": 0, "velocity": 0, "duration": 91}, {"note": 62, "velocity": 112, "duration": 92}, {"note": 61, "velocity": 112, "duration": 94}, {"note": 64, "velocity": 117, "duration": 194}, {"note": 62, "velocity": 99, "duration": 81}, {"note": 62, "velocity": 100, "duration": 378}, {"note": 0, "velocity": 0, "duration": 102}, {"note": 66, "velocity": 112, "duration": 83}, {"note": 66, "velocity": 127, "duration": 166}, {"note": 0, "velocity": 0, "duration": 74}, {"note": 71, "velocity": 127, "duration": 129}, {"note": 66, "velocity": 117, "duration": 240}, {"note": 0, "velocity": 0, "duration": 120}, {"note": 64, "velocity": 102, "duration": 112}, {"note": 62, "velocity": 71, "duration": 88}, {"note": 61, "velocity": 107, "duration": 221}, {"note": 62, "velocity": 95, "duration": 60}, {"note": 64, "velocity": 97, "duration": 167}, {"note": 0, "velocity": 0, "duration": 73}, {"note": 57, "velocity": 107, "duration": 156}, {"note": 0, "velocity": 0, "duration": 84}, {"note": 57, "velocity": 102, "duration": 93}, {"note": 67, "velocity": 127, "duration": 186}, {"note": 66, "velocity": 102, "duration": 69}, {"note": 66, "velocity": 117, "duration": 537}, {"note": 0, "velocity": 0, "duration": 423}, {"note": 66, "velocity": 112, "duration": 58}, {"note": 0, "velocity": 0, "duration": 62}, {"note": 67, "velocity": 100, "duration": 82}, {"note": 66, "velocity": 107, "duration": 43}, {"note": 0, "velocity": 0, "duration": 77}, {"note": 64, "velocity": 117, "duration": 52}, {"note": 0, "velocity": 0, "duration": 68}, {"note": 62, "velocity": 96, "duration": 69}, {"note": 64, "velocity": 127, "duration": 171}, {"note": 0, "velocity": 0, "duration": 69}, {"note": 71, "velocity": 112, "duration": 99}, {"note": 66, "velocity": 117, "duration": 210}, {"note": 0, "velocity": 0, "duration": 150}, {"note": 64, "velocity": 107, "duration": 105}, {"note": 62, "velocity": 95, "duration": 78}, {"note": 61, "velocity": 117, "duration": 194}, {"note": 61, "velocity": 107, "duration": 98}, {"note": 62, "velocity": 112, "duration": 203}, {"note": 64, "velocity": 117, "duration": 163}, {"note": 0, "velocity": 0, "duration": 77}, {"note": 64, "velocity": 127, "duration": 79}, {"note": 64, "velocity": 102, "duration": 182}, {"note": 69, "velocity": 97, "duration": 80}, {"note": 64, "velocity": 102, "duration": 200}, {"note": 0, "velocity": 0, "duration": 160}, {"note": 62, "velocity": 127, "duration": 52}, {"note": 0, "velocity": 0, "duration": 68}, {"note": 61, "velocity": 112, "duration": 54}, {"note": 0, "velocity": 0, "duration": 66}, {"note": 64, "velocity": 107, "duration": 184}, {"note": 62, "velocity": 107, "duration": 57}, {"note": 0, "velocity": 0, "duration": 63}, {"note": 62, "velocity": 127, "duration": 224}, {"note": 0, "velocity": 0, "duration": 256}, {"note": 66, "velocity": 107, "duration": 59}, {"note": 0, "velocity": 0, "duration": 61}, {"note": 67, "velocity": 112, "duration": 105}, {"note": 66, "velocity": 117, "duration": 90}, {"note": 62, "velocity": 107, "duration": 145}, {"note": 0, "velocity": 0, "duration": 215}, {"note": 57, "velocity": 95, "duration": 96}, {"note": 62, "velocity": 100, "duration": 94}, {"note": 69, "velocity": 96, "duration": 102}, {"note": 64, "velocity": 99, "duration": 327}, {"note": 66, "velocity": 122, "duration": 145}, {"note": 0, "velocity": 0, "duration": 95}, {"note": 62, "velocity": 92, "duration": 87}, {"note": 61, "velocity": 99, "duration": 78}, {"note": 64, "velocity": 102, "duration": 181}, {"note": 62, "velocity": 117, "duration": 863}, {"note": 0, "velocity": 0, "duration": 2737}, {"note": 61, "velocity": 100, "duration": 102}, {"note": 59, "velocity": 82, "duration": 101}, {"note": 61, "velocity": 95, "duration": 128}, {"note": 62, "velocity": 99, "duration": 65}, {"note": 69, "velocity": 107, "duration": 89}, {"note": 69, "velocity": 127, "duration": 207}, {"note": 0, "velocity": 0, "duration": 153}, {"note": 61, "velocity": 127, "duration": 115}, {"note": 59, "velocity": 100, "duration": 122}, {"note": 61, "velocity": 112, "duration": 101}, {"note": 62, "velocity": 100, "duration": 72}, {"note": 69, "velocity": 79, "duration": 86}, {"note": 69, "velocity": 127, "duration": 152}, {"note": 62, "velocity": 92, "duration": 136}, {"note": 64, "velocity": 89, "duration": 135}, {"note": 62, "velocity": 88, "duration": 290}, {"note": 0, "velocity": 0, "duration": 70}, {"note": 59, "velocity": 102, "duration": 53}, {"note": 0, "velocity": 0, "duration": 67}, {"note": 59, "velocity": 90, "duration": 46}, {"note": 0, "velocity": 0, "duration": 74}, {"note": 59, "velocity": 122, "duration": 101}, {"note": 57, "velocity": 90, "duration": 50}, {"note": 0, "velocity": 0, "duration": 70}, {"note": 57, "velocity": 107, "duration": 94}, {"note": 55, "velocity": 85, "duration": 101}, {"note": 57, "velocity": 112, "duration": 230}, {"note": 62, "velocity": 107, "duration": 83}, {"note": 64, "velocity": 102, "duration": 137}, {"note": 0, "velocity": 0, "duration": 223}, {"note": 66, "velocity": 112, "duration": 61}, {"note": 66, "velocity": 127, "duration": 304}, {"note": 59, "velocity": 92, "duration": 116}, {"note": 61, "velocity": 96, "duration": 119}, {"note": 62, "velocity": 96, "duration": 105}, {"note": 69, "velocity": 99, "duration": 70}, {"note": 69, "velocity": 122, "duration": 250}, {"note": 0, "velocity": 0, "duration": 230}, {"note": 59, "velocity": 96, "duration": 110}, {"note": 61, "velocity": 122, "duration": 84}, {"note": 62, "velocity": 122, "duration": 97}, {"note": 69, "velocity": 97, "duration": 86}, {"note": 69, "velocity": 112, "duration": 116}, {"note": 62, "velocity": 95, "duration": 112}, {"note": 66, "velocity": 127, "duration": 56}, {"note": 0, "velocity": 0, "duration": 64}, {"note": 66, "velocity": 107, "duration": 60}, {"note": 66, "velocity": 112, "duration": 67}, {"note": 66, "velocity": 127, "duration": 68}, {"note": 66, "velocity": 117, "duration": 100}, {"note": 64, "velocity": 97, "duration": 82}, {"note": 64, "velocity": 90, "duration": 102}, {"note": 66, "velocity": 112, "duration": 125}, {"note": 67, "velocity": 100, "duration": 543}, {"note": 66, "velocity": 99, "duration": 85}, {"note": 66, "velocity": 107, "duration": 120}, {"note": 64, "velocity": 95, "duration": 582}, {"note": 0, "velocity": 0, "duration": 378}, {"note": 66, "velocity": 117, "duration": 113}, {"note": 66, "velocity": 127, "duration": 181}, {"note": 71, "velocity": 122, "duration": 109}, {"note": 66, "velocity": 127, "duration": 138}, {"note": 0, "velocity": 0, "duration": 222}, {"note": 64, "velocity": 127, "duration": 98}, {"note": 62, "velocity": 99, "duration": 79}, {"note": 61, "velocity": 127, "duration": 171}, {"note": 0, "velocity": 0, "duration": 69}, {"note": 61, "velocity": 122, "duration": 49}, {"note": 0, "velocity": 0, "duration": 71}, {"note": 62, "velocity": 117, "duration": 199}, {"note": 64, "velocity": 112, "duration": 194}, {"note": 64, "velocity": 79, "duration": 64}, {"note": 64, "velocity": 117, "duration": 194}, {"note": 69, "velocity": 112, "duration": 113}, {"note": 64, "velocity": 117, "duration": 269}, {"note": 0, "velocity": 0, "duration": 91}, {"note": 62, "velocity": 112, "duration": 92}, {"note": 61, "velocity": 112, "duration": 94}, {"note": 64, "velocity": 117, "duration": 194}, {"note": 62, "velocity": 99, "duration": 81}, {"note": 62, "velocity": 100, "duration": 378}, {"note": 0, "velocity": 0, "duration": 102}, {"note": 66, "velocity": 112, "duration": 83}, {"note": 66, "velocity": 127, "duration": 166}, {"note": 0, "velocity": 0, "duration": 74}, {"note": 71, "velocity": 127, "duration": 129}, {"note": 66, "velocity": 117, "duration": 240}, {"note": 0, "velocity": 0, "duration": 120}, {"note": 64, "velocity": 102, "duration": 112}, {"note": 62, "velocity": 71, "duration": 88}, {"note": 61, "velocity": 107, "duration": 221}, {"note": 62, "velocity": 95, "duration": 60}, {"note": 64, "velocity": 97, "duration": 167}, {"note": 0, "velocity": 0, "duration": 73}, {"note": 57, "velocity": 107, "duration": 156}, {"note": 0, "velocity": 0, "duration": 84}, {"note": 57, "velocity": 102, "duration": 93}, {"note": 67, "velocity": 127, "duration": 186}, {"note": 66, "velocity": 102, "duration": 69}, {"note": 66, "velocity": 117, "duration": 537}, {"note": 0, "velocity": 0, "duration": 423}, {"note": 66, "velocity": 112, "duration": 58}, {"note": 0, "velocity": 0, "duration": 62}, {"note": 67, "velocity": 100, "duration": 82}, {"note": 66, "velocity": 107, "duration": 43}, {"note": 0, "velocity": 0, "duration": 77}, {"note": 64, "velocity": 117, "duration": 52}, {"note": 0, "velocity": 0, "duration": 68}, {"note": 62, "velocity": 96, "duration": 69}, {"note": 64, "velocity": 127, "duration": 171}, {"note": 0, "velocity": 0, "duration": 69}, {"note": 71, "velocity": 112, "duration": 99}, {"note": 66, "velocity": 117, "duration": 210}, {"note": 0, "velocity": 0, "duration": 150}, {"note": 64, "velocity": 107, "duration": 105}, {"note": 62, "velocity": 95, "duration": 78}, {"note": 61, "velocity": 117, "duration": 194}, {"note": 61, "velocity": 107, "duration": 98}, {"note": 62, "velocity": 112, "duration": 203}, {"note": 64, "velocity": 117, "duration": 163}, {"note": 0, "velocity": 0, "duration": 77}, {"note": 64, "velocity": 127, "duration": 79}, {"note": 64, "velocity": 102, "duration": 182}, {"note": 69, "velocity": 97, "duration": 80}, {"note": 64, "velocity": 102, "duration": 200}, {"note": 0, "velocity": 0, "duration": 160}, {"note": 62, "velocity": 127, "duration": 52}, {"note": 0, "velocity": 0, "duration": 68}, {"note": 61, "velocity": 112, "duration": 54}, {"note": 0, "velocity": 0, "duration": 66}, {"note": 64, "velocity": 107, "duration": 184}, {"note": 62, "velocity": 107, "duration": 57}, {"note": 0, "velocity": 0, "duration": 63}, {"note": 62, "velocity": 127, "duration": 224}, {"note": 0, "velocity": 0, "duration": 256}, {"note": 66, "velocity": 107, "duration": 59}, {"note": 0, "velocity": 0, "duration": 61}, {"note": 67, "velocity": 112, "duration": 105}, {"note": 66, "velocity": 117, "duration": 90}, {"note": 62, "velocity": 107, "duration": 145}, {"note": 0, "velocity": 0, "duration": 215}, {"note": 57, "velocity": 95, "duration": 96}, {"note": 62, "velocity": 100, "duration": 94}, {"note": 69, "velocity": 96, "duration": 102}, {"note": 64, "velocity": 99, "duration": 327}, {"note": 66, "velocity": 122, "duration": 145}, {"note": 0, "velocity": 0, "duration": 95}, {"note": 62, "velocity": 92, "duration": 87}, {"note": 61, "velocity": 99, "duration": 78}, {"note": 64, "velocity": 102, "duration": 181}, {"note": 62, "velocity": 117, "duration": 863}, {"note": 0, "velocity": 0, "duration": 577}, {"note": 66, "velocity": 127, "duration": 114}, {"note": 64, "velocity": 95, "duration": 97}, {"note": 62, "velocity": 97, "duration": 155}, {"note": 0, "velocity": 0, "duration": 205}, {"note": 59, "velocity": 100, "duration": 60}, {"note": 59, "velocity": 100, "duration": 57}, {"note": 0, "velocity": 0, "duration": 63}, {"note": 59, "velocity": 93, "duration": 67}, {"note": 66, "velocity": 127, "duration": 163}, {"note": 0, "velocity": 0, "duration": 77}, {"note": 64, "velocity": 122, "duration": 57}, {"note": 62, "velocity": 102, "duration": 48}, {"note": 64, "velocity": 122, "duration": 209}, {"note": 61, "velocity": 112, "duration": 58}, {"note": 0, "velocity": 0, "duration": 62}, {"note": 61, "velocity": 107, "duration": 50}, {"note": 0, "velocity": 0, "duration": 70}, {"note": 61, "velocity": 107, "duration": 59}, {"note": 0, "velocity": 0, "duration": 61}, {"note": 67, "velocity": 127, "duration": 163}, {"note": 0, "velocity": 0, "duration": 77}, {"note": 66, "velocity": 127, "duration": 71}, {"note": 64, "velocity": 96, "duration": 50}, {"note": 66, "velocity": 127, "duration": 311}, {"note": 0, "velocity": 0, "duration": 289}, {"note": 66, "velocity": 127, "duration": 165}, {"note": 0, "velocity": 0, "duration": 75}, {"note": 64, "velocity": 122, "duration": 75}, {"note": 62, "velocity": 117, "duration": 180}, {"note": 64, "velocity": 127, "duration": 183}, {"note": 66, "velocity": 127, "duration": 169}, {"note": 0, "velocity": 0, "duration": 71}, {"note": 69, "velocity": 127, "duration": 278}, {"note": 0, "velocity": 0, "duration": 202}, {"note": 62, "velocity": 112, "duration": 68}, {"note": 62, "velocity": 102, "duration": 59}, {"note": 0, "velocity": 0, "duration": 61}, {"note": 62, "velocity": 117, "duration": 74}, {"note": 57, "velocity": 112, "duration": 92}, {"note": 66, "velocity": 127, "duration": 87}, {"note": 64, "velocity": 100, "duration": 55}, {"note": 0, "velocity": 0, "duration": 65}, {"note": 66, "velocity": 127, "duration": 170}, {"note": 0, "velocity": 0, "duration": 70}, {"note": 67, "velocity": 127, "duration": 75}, {"note": 66, "velocity": 127, "duration": 154}, {"note": 0, "velocity": 0, "duration": 86}, {"note": 66, "velocity": 117, "duration": 50}, {"note": 0, "velocity": 0, "duration": 70}, {"note": 67, "velocity": 127, "duration": 147}, {"note": 66, "velocity": 127, "duration": 573}, {"note": 0, "velocity": 0, "duration": 267}, {"note": 67, "velocity": 127, "duration": 84}, {"note": 69, "velocity": 112, "duration": 158}, {"note": 0, "velocity": 0, "duration": 82}, {"note": 64, "velocity": 112, "duration": 398}, {"note": 0, "velocity": 0, "duration": 322}, {"note": 66, "velocity": 127, "duration": 88}, {"note": 66, "velocity": 127, "duration": 181}, {"note": 71, "velocity": 122, "duration": 109}, {"note": 66, "velocity": 127, "duration": 138}, {"note": 0, "velocity": 0, "duration": 222}, {"note": 64, "velocity": 127, "duration": 98}, {"note": 62, "velocity": 99, "duration": 79}, {"note": 61, "velocity": 127, "duration": 171}, {"note": 0, "velocity": 0, "duration": 69}, {"note": 61, "velocity": 122, "duration": 49}, {"note": 0, "velocity": 0, "duration": 71}, {"note": 62, "velocity": 117, "duration": 199}, {"note": 64, "velocity": 112, "duration": 194}, {"note": 64, "velocity": 79, "duration": 64}, {"note": 64, "velocity": 117, "duration": 194}, {"note": 69, "velocity": 112, "duration": 113}, {"note": 64, "velocity": 117, "duration": 269}, {"note": 0, "velocity": 0, "duration": 91}, {"note": 62, "velocity": 112, "duration": 92}, {"note": 61, "velocity": 112, "duration": 94}, {"note": 64, "velocity": 117, "duration": 194}, {"note": 62, "velocity": 99, "duration": 81}, {"note": 62, "velocity": 100, "duration": 378}, {"note": 0, "velocity": 0, "duration": 102}, {"note": 66, "velocity": 112, "duration": 83}, {"note": 66, "velocity": 127, "duration": 166}, {"note": 0, "velocity": 0, "duration": 74}, {"note": 71, "velocity": 127, "duration": 129}, {"note": 66, "velocity": 117, "duration": 240}, {"note": 0, "velocity": 0, "duration": 120}, {"note": 64, "velocity": 102, "duration": 112}, {"note": 62, "velocity": 71, "duration": 88}, {"note": 61, "velocity": 107, "duration": 221}, {"note": 62, "velocity": 95, "duration": 60}, {"note": 64, "velocity": 97, "duration": 167}, {"note": 0, "velocity": 0, "duration": 73}, {"note": 57, "velocity": 107, "duration": 156}, {"note": 0, "velocity": 0, "duration": 84}, {"note": 57, "velocity": 102, "duration": 93}, {"note": 67, "velocity": 127, "duration": 186}, {"note": 66, "velocity": 102, "duration": 69}, {"note": 66, "velocity": 117, "duration": 159}, {"note": 0, "velocity": 0, "duration": 201}, {"note": 67, "velocity": 107, "duration": 101}, {"note": 64, "velocity": 117, "duration": 197}, {"note": 62, "velocity": 107, "duration": 219}, {"note": 66, "velocity": 112, "duration": 58}, {"note": 0, "velocity": 0, "duration": 62}, {"note": 67, "velocity": 100, "duration": 82}, {"note": 66, "velocity": 107, "duration": 43}, {"note": 0, "velocity": 0, "duration": 77}, {"note": 64, "velocity": 117, "duration": 52}, {"note": 0, "velocity": 0, "duration": 68}, {"note": 62, "velocity": 96, "duration": 69}, {"note": 64, "velocity": 127, "duration": 171}, {"note": 0, "velocity": 0, "duration": 69}, {"note": 71, "velocity": 112, "duration": 99}, {"note": 66, "velocity": 117, "duration": 210}, {"note": 0, "velocity": 0, "duration": 150}, {"note": 64, "velocity": 107, "duration": 105}, {"note": 62, "velocity": 95, "duration": 78}, {"note": 61, "velocity": 117, "duration": 194}, {"note": 61, "velocity": 107, "duration": 98}, {"note": 62, "velocity": 112, "duration": 203}, {"note": 64, "velocity": 117, "duration": 163}, {"note": 0, "velocity": 0, "duration": 77}, {"note": 64, "velocity": 127, "duration": 79}, {"note": 64, "velocity": 102, "duration": 182}, {"note": 69, "velocity": 97, "duration": 80}, {"note": 64, "velocity": 102, "duration": 200}, {"note": 0, "velocity": 0, "duration": 160}, {"note": 62, "velocity": 127, "duration": 52}, {"note": 0, "velocity": 0, "duration": 68}, {"note": 61, "velocity": 112, "duration": 54}, {"note": 0, "velocity": 0, "duration": 66}, {"note": 64, "velocity": 107, "duration": 184}, {"note": 66, "velocity": 127, "duration": 106}, {"note": 62, "velocity": 102, "duration": 210}, {"note": 0, "velocity": 0, "duration": 270}, {"note": 66, "velocity": 107, "duration": 59}, {"note": 0, "velocity": 0, "duration": 61}, {"note": 67, "velocity": 112, "duration": 105}, {"note": 66, "velocity": 117, "duration": 90}, {"note": 62, "velocity": 107, "duration": 145}, {"note": 0, "velocity": 0, "duration": 215}, {"note": 57, "velocity": 95, "duration": 96}, {"note": 62, "velocity": 100, "duration": 94}, {"note": 69, "velocity": 96, "duration": 102}, {"note": 64, "velocity": 99, "duration": 327}, {"note": 66, "velocity": 122, "duration": 145}, {"note": 0, "velocity": 0, "duration": 95}, {"note": 62, "velocity": 92, "duration": 87}, {"note": 61, "velocity": 99, "duration": 78}, {"note": 64, "velocity": 102, "duration": 181}, {"note": 62, "velocity": 117, "duration": 840}, {"note": 0, "velocity": 0, "duration": 1164}, {"note": 66, "velocity": 85, "duration": 79}, {"note": 67, "velocity": 96, "duration": 101}, {"note": 66, "velocity": 93, "duration": 121}, {"note": 62, "velocity": 99, "duration": 355}, {"note": 0, "velocity": 0, "duration": 126}, {"note": 57, "velocity": 81, "duration": 92}, {"note": 62, "velocity": 88, "duration": 125}, {"note": 69, "velocity": 90, "duration": 137}, {"note": 64, "velocity": 93, "duration": 438}, {"note": 0, "velocity": 0, "duration": 334}, {"note": 66, "velocity": 99, "duration": 134}, {"note": 0, "velocity": 0, "duration": 103}, {"note": 62, "velocity": 95, "duration": 118}, {"note": 61, "velocity": 93, "duration": 141}, {"note": 0, "velocity": 0, "duration": 71}, {"note": 64, "velocity": 96, "duration": 202}, {"note": 62, "velocity": 100, "duration": 1673}]]