[[{"note": 69, "velocity": 99, "duration": 336}, {"note": 66, "velocity": 93, "duration": 347}, {"note": 71, "velocity": 117, "duration": 132}, {"note": 69, "velocity": 83, "duration": 91}, {"note": 68, "velocity": 93, "duration": 328}, {"note": 66, "velocity": 112, "duration": 255}, {"note": 0, "velocity": 0, "duration": 105}, {"note": 71, "velocity": 96, "duration": 117}, {"note": 69, "velocity": 74, "duration": 65}, {"note": 68, "velocity": 99, "duration": 276}, {"note": 0, "velocity": 0, "duration": 84}, {"note": 69, "velocity": 96, "duration": 250}, {"note": 71, "velocity": 96, "duration": 353}, {"note": 73, "velocity": 90, "duration": 741}, {"note": 0, "velocity": 0, "duration": 219}, {"note": 66, "velocity": 112, "duration": 134}, {"note": 68, "velocity": 86, "duration": 208}, {"note": 69, "velocity": 88, "duration": 323}, {"note": 73, "velocity": 107, "duration": 113}, {"note": 71, "velocity": 76, "duration": 103}, {"note": 68, "velocity": 89, "duration": 322}, {"note": 69, "velocity": 88, "duration": 247}, {"note": 0, "velocity": 0, "duration": 113}, {"note": 73, "velocity": 107, "duration": 136}, {"note": 71, "velocity": 67, "duration": 112}, {"note": 68, "velocity": 90, "duration": 242}, {"note": 71, "velocity": 69, "duration": 164}, {"note": 69, "velocity": 76, "duration": 465}, {"note": 0, "velocity": 0, "duration": 615}, {"note": 69, "velocity": 99, "duration": 141}, {"note": 71, "velocity": 92, "duration": 110}, {"note": 73, "velocity": 95, "duration": 116}, {"note": 74, "velocity": 82, "duration": 131}, {"note": 73, "velocity": 117, "duration": 372}, {"note": 71, "velocity": 95, "duration": 244}, {"note": 0, "velocity": 0, "duration": 116}, {"note": 76, "velocity": 100, "duration": 97}, {"note": 74, "velocity": 88, "duration": 92}, {"note": 73, "velocity": 92, "duration": 187}, {"note": 71, "velocity": 86, "duration": 66}, {"note": 73, "velocity": 97, "duration": 206}, {"note": 74, "velocity": 95, "duration": 261}, {"note": 0, "velocity": 0, "duration": 99}, {"note": 76, "velocity": 107, "duration": 154}, {"note": 0, "velocity": 0, "duration": 86}, {"note": 73, "velocity": 96, "duration": 133}, {"note": 0, "velocity": 0, "duration": 107}, {"note": 76, "velocity": 93, "duration": 129}, {"note": 0, "velocity": 0, "duration": 111}, {"note": 78, "velocity": 107, "duration": 130}, {"note": 0, "velocity": 0, "duration": 110}, {"note": 69, "velocity": 97, "duration": 256}, {"note": 0, "velocity": 0, "duration": 584}, {"note": 69, "velocity": 90, "duration": 94}, {"note": 68, "velocity": 112, "duration": 230}, {"note": 68, "velocity": 93, "duration": 120}, {"note": 69, "velocity": 96, "duration": 279}, {"note": 0, "velocity": 0, "duration": 81}, {"note": 71, "velocity": 97, "duration": 115}, {"note": 0, "velocity": 0, "duration": 125}, {"note": 73, "velocity": 122, "duration": 182}, {"note": 71, "velocity": 93, "duration": 55}, {"note": 0, "velocity": 0, "duration": 65}, {"note": 69, "velocity": 96, "duration": 159}, {"note": 0, "velocity": 0, "duration": 201}, {"note": 68, "velocity": 100, "duration": 91}, {"note": 71, "velocity": 100, "duration": 309}, {"note": 69, "velocity": 102, "duration": 758}, {"note": 0, "velocity": 0, "duration": 202}, {"note": 73, "velocity": 117, "duration": 57}, {"note": 0, "velocity": 0, "duration": 63}, {"note": 74, "velocity": 99, "duration": 245}, {"note": 0, "velocity": 0, "duration": 115}, {"note": 73, "velocity": 112, "duration": 87}, {"note": 76, "velocity": 112, "duration": 318}, {"note": 73, "velocity": 112, "duration": 63}, {"note": 74, "velocity": 102, "duration": 256}, {"note": 0, "velocity": 0, "duration": 104}, {"note": 73, "velocity": 112, "duration": 85}, {"note": 76, "velocity": 112, "duration": 322}, {"note": 69, "velocity": 99, "duration": 61}, {"note": 71, "velocity": 122, "duration": 272}, {"note": 0, "velocity": 0, "duration": 88}, {"note": 69, "velocity": 96, "duration": 100}, {"note": 73, "velocity": 127, "duration": 271}, {"note": 0, "velocity": 0, "duration": 89}, {"note": 69, "velocity": 97, "duration": 54}, {"note": 0, "velocity": 0, "duration": 66}, {"note": 71, "velocity": 122, "duration": 263}, {"note": 0, "velocity": 0, "duration": 97}, {"note": 69, "velocity": 96, "duration": 70}, {"note": 73, "velocity": 117, "duration": 247}, {"note": 0, "velocity": 0, "duration": 233}, {"note": 69, "velocity": 107, "duration": 86}, {"note": 71, "velocity": 122, "duration": 227}, {"note": 69, "velocity": 112, "duration": 202}, {"note": 66, "velocity": 100, "duration": 258}, {"note": 78, "velocity": 117, "duration": 52}, {"note": 0, "velocity": 0, "duration": 68}, {"note": 78, "velocity": 122, "duration": 319}, {"note": 76, "velocity": 97, "duration": 55}, {"note": 0, "velocity": 0, "duration": 65}, {"note": 76, "velocity": 102, "duration": 251}, {"note": 0, "velocity": 0, "duration": 109}, {"note": 69, "velocity": 93, "duration": 100}, {"note": 71, "velocity": 122, "duration": 235}, {"note": 73, "velocity": 102, "duration": 238}, {"note": 0, "velocity": 0, "duration": 122}, {"note": 74, "velocity": 100, "duration": 129}, {"note": 0, "velocity": 0, "duration": 111}, {"note": 66, "velocity": 97, "duration": 76}, {"note": 73, "velocity": 97, "duration": 256}, {"note": 0, "velocity": 0, "duration": 104}, {"note": 69, "velocity": 99, "duration": 59}, {"note": 0, "velocity": 0, "duration": 61}, {"note": 71, "velocity": 117, "duration": 345}, {"note": 73, "velocity": 122, "duration": 57}, {"note": 0, "velocity": 0, "duration": 63}, {"note": 74, "velocity": 117, "duration": 237}, {"note": 0, "velocity": 0, "duration": 123}, {"note": 73, "velocity": 127, "duration": 75}, {"note": 76, "velocity": 112, "duration": 300}, {"note": 73, "velocity": 112, "duration": 79}, {"note": 74, "velocity": 107, "duration": 244}, {"note": 0, "velocity": 0, "duration": 116}, {"note": 73, "velocity": 127, "duration": 72}, {"note": 78, "velocity": 127, "duration": 206}, {"note": 76, "velocity": 117, "duration": 276}, {"note": 73, "velocity": 95, "duration": 86}, {"note": 74, "velocity": 100, "duration": 171}, {"note": 0, "velocity": 0, "duration": 69}, {"note": 73, "velocity": 122, "duration": 168}, {"note": 0, "velocity": 0, "duration": 72}, {"note": 81, "velocity": 122, "duration": 176}, {"note": 0, "velocity": 0, "duration": 64}, {"note": 81, "velocity": 107, "duration": 102}, {"note": 80, "velocity": 112, "duration": 90}, {"note": 0, "velocity": 0, "duration": 150}, {"note": 76, "velocity": 99, "duration": 116}, {"note": 0, "velocity": 0, "duration": 124}, {"note": 73, "velocity": 99, "duration": 166}, {"note": 0, "velocity": 0, "duration": 314}, {"note": 69, "velocity": 112, "duration": 81}, {"note": 71, "velocity": 117, "duration": 172}, {"note": 0, "velocity": 0, "duration": 68}, {"note": 69, "velocity": 122, "duration": 151}, {"note": 0, "velocity": 0, "duration": 89}, {"note": 66, "velocity": 127, "duration": 129}, {"note": 0, "velocity": 0, "duration": 111}, {"note": 78, "velocity": 127, "duration": 69}, {"note": 78, "velocity": 102, "duration": 296}, {"note": 0, "velocity": 0, "duration": 64}, {"note": 76, "velocity": 100, "duration": 55}, {"note": 0, "velocity": 0, "duration": 65}, {"note": 76, "velocity": 117, "duration": 179}, {"note": 0, "velocity": 0, "duration": 181}, {"note": 69, "velocity": 96, "duration": 84}, {"note": 71, "velocity": 112, "duration": 149}, {"note": 0, "velocity": 0, "duration": 91}, {"note": 73, "velocity": 102, "duration": 134}, {"note": 0, "velocity": 0, "duration": 106}, {"note": 74, "velocity": 122, "duration": 601}, {"note": 0, "velocity": 0, "duration": 359}, {"note": 69, "velocity": 99, "duration": 70}, {"note": 69, "velocity": 92, "duration": 125}, {"note": 0, "velocity": 0, "duration": 115}, {"note": 66, "velocity": 100, "duration": 72}, {"note": 73, "velocity": 127, "duration": 309}, {"note": 0, "velocity": 0, "duration": 171}, {"note": 68, "velocity": 107, "duration": 97}, {"note": 71, "velocity": 100, "duration": 253}, {"note": 69, "velocity": 97, "duration": 770}, {"note": 0, "velocity": 0, "duration": 6190}, {"note": 69, "velocity": 99, "duration": 141}, {"note": 71, "velocity": 92, "duration": 110}, {"note": 73, "velocity": 95, "duration": 116}, {"note": 74, "velocity": 82, "duration": 131}, {"note": 73, "velocity": 117, "duration": 372}, {"note": 71, "velocity": 95, "duration": 244}, {"note": 0, "velocity": 0, "duration": 116}, {"note": 76, "velocity": 100, "duration": 97}, {"note": 74, "velocity": 88, "duration": 92}, {"note": 73, "velocity": 92, "duration": 187}, {"note": 71, "velocity": 86, "duration": 66}, {"note": 73, "velocity": 97, "duration": 206}, {"note": 74, "velocity": 95, "duration": 261}, {"note": 0, "velocity": 0, "duration": 99}, {"note": 76, "velocity": 107, "duration": 154}, {"note": 0, "velocity": 0, "duration": 86}, {"note": 73, "velocity": 96, "duration": 133}, {"note": 0, "velocity": 0, "duration": 107}, {"note": 76, "velocity": 93, "duration": 129}, {"note": 0, "velocity": 0, "duration": 111}, {"note": 78, "velocity": 107, "duration": 130}, {"note": 0, "velocity": 0, "duration": 110}, {"note": 69, "velocity": 97, "duration": 256}, {"note": 0, "velocity": 0, "duration": 584}, {"note": 69, "velocity": 90, "duration": 94}, {"note": 66, "velocity": 112, "duration": 230}, {"note": 68, "velocity": 93, "duration": 120}, {"note": 69, "velocity": 96, "duration": 279}, {"note": 0, "velocity": 0, "duration": 81}, {"note": 71, "velocity": 97, "duration": 115}, {"note": 0, "velocity": 0, "duration": 125}, {"note": 73, "velocity": 122, "duration": 182}, {"note": 71, "velocity": 93, "duration": 55}, {"note": 0, "velocity": 0, "duration": 65}, {"note": 69, "velocity": 96, "duration": 159}, {"note": 0, "velocity": 0, "duration": 201}, {"note": 68, "velocity": 100, "duration": 91}, {"note": 71, "velocity": 100, "duration": 309}, {"note": 69, "velocity": 102, "duration": 758}, {"note": 0, "velocity": 0, "duration": 202}, {"note": 73, "velocity": 117, "duration": 57}, {"note": 0, "velocity": 0, "duration": 63}, {"note": 74, "velocity": 99, "duration": 245}, {"note": 0, "velocity": 0, "duration": 115}, {"note": 73, "velocity": 112, "duration": 87}, {"note": 76, "velocity": 112, "duration": 318}, {"note": 73, "velocity": 112, "duration": 63}, {"note": 74, "velocity": 102, "duration": 256}, {"note": 0, "velocity": 0, "duration": 104}, {"note": 73, "velocity": 112, "duration": 85}, {"note": 76, "velocity": 112, "duration": 322}, {"note": 69, "velocity": 99, "duration": 61}, {"note": 71, "velocity": 122, "duration": 272}, {"note": 0, "velocity": 0, "duration": 88}, {"note": 69, "velocity": 96, "duration": 100}, {"note": 73, "velocity": 127, "duration": 271}, {"note": 0, "velocity": 0, "duration": 89}, {"note": 69, "velocity": 97, "duration": 54}, {"note": 0, "velocity": 0, "duration": 66}, {"note": 71, "velocity": 122, "duration": 263}, {"note": 0, "velocity": 0, "duration": 97}, {"note": 69, "velocity": 96, "duration": 70}, {"note": 73, "velocity": 117, "duration": 247}, {"note": 0, "velocity": 0, "duration": 233}, {"note": 69, "velocity": 107, "duration": 86}, {"note": 71, "velocity": 122, "duration": 227}, {"note": 69, "velocity": 112, "duration": 202}, {"note": 66, "velocity": 100, "duration": 258}, {"note": 78, "velocity": 117, "duration": 52}, {"note": 0, "velocity": 0, "duration": 68}, {"note": 78, "velocity": 122, "duration": 319}, {"note": 76, "velocity": 97, "duration": 55}, {"note": 0, "velocity": 0, "duration": 65}, {"note": 76, "velocity": 102, "duration": 251}, {"note": 0, "velocity": 0, "duration": 109}, {"note": 69, "velocity": 93, "duration": 100}, {"note": 71, "velocity": 122, "duration": 235}, {"note": 73, "velocity": 102, "duration": 238}, {"note": 0, "velocity": 0, "duration": 122}, {"note": 74, "velocity": 100, "duration": 129}, {"note": 0, "velocity": 0, "duration": 111}, {"note": 66, "velocity": 97, "duration": 76}, {"note": 73, "velocity": 97, "duration": 256}, {"note": 0, "velocity": 0, "duration": 104}, {"note": 69, "velocity": 99, "duration": 59}, {"note": 0, "velocity": 0, "duration": 61}, {"note": 71, "velocity": 117, "duration": 345}, {"note": 73, "velocity": 122, "duration": 57}, {"note": 0, "velocity": 0, "duration": 63}, {"note": 74, "velocity": 117, "duration": 237}, {"note": 0, "velocity": 0, "duration": 123}, {"note": 73, "velocity": 127, "duration": 75}, {"note": 76, "velocity": 112, "duration": 300}, {"note": 73, "velocity": 112, "duration": 79}, {"note": 74, "velocity": 107, "duration": 244}, {"note": 0, "velocity": 0, "duration": 116}, {"note": 73, "velocity": 127, "duration": 72}, {"note": 78, "velocity": 127, "duration": 206}, {"note": 76, "velocity": 117, "duration": 276}, {"note": 73, "velocity": 95, "duration": 86}, {"note": 74, "velocity": 100, "duration": 171}, {"note": 0, "velocity": 0, "duration": 69}, {"note": 73, "velocity": 122, "duration": 168}, {"note": 0, "velocity": 0, "duration": 72}, {"note": 81, "velocity": 122, "duration": 176}, {"note": 0, "velocity": 0, "duration": 64}, {"note": 81, "velocity": 107, "duration": 102}, {"note": 80, "velocity": 112, "duration": 90}, {"note": 0, "velocity": 0, "duration": 150}, {"note": 76, "velocity": 99, "duration": 116}, {"note": 0, "velocity": 0, "duration": 124}, {"note": 73, "velocity": 99, "duration": 166}, {"note": 0, "velocity": 0, "duration": 314}, {"note": 69, "velocity": 112, "duration": 81}, {"note": 71, "velocity": 117, "duration": 172}, {"note": 0, "velocity": 0, "duration": 68}, {"note": 69, "velocity": 122, "duration": 151}, {"note": 0, "velocity": 0, "duration": 89}, {"note": 66, "velocity": 127, "duration": 129}, {"note": 0, "velocity": 0, "duration": 111}, {"note": 78, "velocity": 127, "duration": 69}, {"note": 78, "velocity": 102, "duration": 296}, {"note": 0, "velocity": 0, "duration": 64}, {"note": 76, "velocity": 100, "duration": 55}, {"note": 0, "velocity": 0, "duration": 65}, {"note": 76, "velocity": 117, "duration": 179}, {"note": 0, "velocity": 0, "duration": 181}, {"note": 69, "velocity": 96, "duration": 84}, {"note": 71, "velocity": 112, "duration": 149}, {"note": 0, "velocity": 0, "duration": 91}, {"note": 73, "velocity": 102, "duration": 134}, {"note": 0, "velocity": 0, "duration": 106}, {"note": 74, "velocity": 122, "duration": 601}, {"note": 0, "velocity": 0, "duration": 359}, {"note": 69, "velocity": 99, "duration": 70}, {"note": 69, "velocity": 92, "duration": 125}, {"note": 0, "velocity": 0, "duration": 115}, {"note": 66, "velocity": 100, "duration": 72}, {"note": 73, "velocity": 127, "duration": 309}, {"note": 0, "velocity": 0, "duration": 171}, {"note": 68, "velocity": 107, "duration": 97}, {"note": 71, "velocity": 100, "duration": 253}, {"note": 69, "velocity": 97, "duration": 240}, {"note": 0, "velocity": 0, "duration": 120}, {"note": 73, "velocity": 122, "duration": 60}, {"note": 78, "velocity": 112, "duration": 59}, {"note": 0, "velocity": 0, "duration": 61}, {"note": 76, "velocity": 127, "duration": 151}, {"note": 0, "velocity": 0, "duration": 89}, {"note": 73, "velocity": 117, "duration": 45}, {"note": 0, "velocity": 0, "duration": 75}, {"note": 78, "velocity": 97, "duration": 58}, {"note": 0, "velocity": 0, "duration": 62}, {"note": 76, "velocity": 102, "duration": 113}, {"note": 0, "velocity": 0, "duration": 127}, {"note": 73, "velocity": 122, "duration": 47}, {"note": 0, "velocity": 0, "duration": 73}, {"note": 78, "velocity": 122, "duration": 52}, {"note": 0, "velocity": 0, "duration": 68}, {"note": 76, "velocity": 127, "duration": 174}, {"note": 0, "velocity": 0, "duration": 666}, {"note": 74, "velocity": 117, "duration": 55}, {"note": 0, "velocity": 0, "duration": 65}, {"note": 73, "velocity": 107, "duration": 49}, {"note": 0, "velocity": 0, "duration": 71}, {"note": 74, "velocity": 127, "duration": 151}, {"note": 0, "velocity": 0, "duration": 89}, {"note": 74, "velocity": 112, "duration": 79}, {"note": 71, "velocity": 117, "duration": 174}, {"note": 0, "velocity": 0, "duration": 66}, {"note": 69, "velocity": 102, "duration": 208}, {"note": 73, "velocity": 127, "duration": 249}, {"note": 71, "velocity": 96, "duration": 115}, {"note": 69, "velocity": 97, "duration": 291}, {"note": 0, "velocity": 0, "duration": 189}, {"note": 78, "velocity": 127, "duration": 60}, {"note": 80, "velocity": 100, "duration": 57}, {"note": 0, "velocity": 0, "duration": 63}, {"note": 81, "velocity": 122, "duration": 175}, {"note": 0, "velocity": 0, "duration": 65}, {"note": 80, "velocity": 127, "duration": 77}, {"note": 78, "velocity": 117, "duration": 147}, {"note": 0, "velocity": 0, "duration": 93}, {"note": 76, "velocity": 122, "duration": 140}, {"note": 0, "velocity": 0, "duration": 100}, {"note": 78, "velocity": 127, "duration": 1046}, {"note": 0, "velocity": 0, "duration": 754}, {"note": 73, "velocity": 117, "duration": 57}, {"note": 0, "velocity": 0, "duration": 63}, {"note": 74, "velocity": 99, "duration": 245}, {"note": 0, "velocity": 0, "duration": 115}, {"note": 73, "velocity": 112, "duration": 87}, {"note": 76, "velocity": 112, "duration": 318}, {"note": 73, "velocity": 112, "duration": 63}, {"note": 74, "velocity": 102, "duration": 256}, {"note": 0, "velocity": 0, "duration": 104}, {"note": 73, "velocity": 112, "duration": 85}, {"note": 76, "velocity": 112, "duration": 322}, {"note": 69, "velocity": 99, "duration": 61}, {"note": 71, "velocity": 122, "duration": 272}, {"note": 0, "velocity": 0, "duration": 88}, {"note": 69, "velocity": 96, "duration": 100}, {"note": 73, "velocity": 127, "duration": 271}, {"note": 0, "velocity": 0, "duration": 89}, {"note": 69, "velocity": 97, "duration": 54}, {"note": 0, "velocity": 0, "duration": 66}, {"note": 71, "velocity": 122, "duration": 263}, {"note": 0, "velocity": 0, "duration": 97}, {"note": 69, "velocity": 96, "duration": 70}, {"note": 73, "velocity": 117, "duration": 247}, {"note": 0, "velocity": 0, "duration": 233}, {"note": 69, "velocity": 107, "duration": 86}, {"note": 71, "velocity": 122, "duration": 227}, {"note": 69, "velocity": 112, "duration": 202}, {"note": 66, "velocity": 100, "duration": 258}, {"note": 78, "velocity": 117, "duration": 52}, {"note": 0, "velocity": 0, "duration": 68}, {"note": 78, "velocity": 122, "duration": 319}, {"note": 76, "velocity": 97, "duration": 55}, {"note": 0, "velocity": 0, "duration": 65}, {"note": 76, "velocity": 102, "duration": 251}, {"note": 0, "velocity": 0, "duration": 109}, {"note": 69, "velocity": 93, "duration": 100}, {"note": 71, "velocity": 122, "duration": 235}, {"note": 73, "velocity": 102, "duration": 238}, {"note": 0, "velocity": 0, "duration": 122}, {"note": 74, "velocity": 100, "duration": 129}, {"note": 0, "velocity": 0, "duration": 111}, {"note": 66, "velocity": 97, "duration": 76}, {"note": 73, "velocity": 97, "duration": 256}, {"note": 0, "velocity": 0, "duration": 104}, {"note": 69, "velocity": 99, "duration": 59}, {"note": 0, "velocity": 0, "duration": 61}, {"note": 71, "velocity": 117, "duration": 345}, {"note": 73, "velocity": 122, "duration": 57}, {"note": 0, "velocity": 0, "duration": 63}, {"note": 74, "velocity": 117, "duration": 237}, {"note": 0, "velocity": 0, "duration": 123}, {"note": 73, "velocity": 127, "duration": 75}, {"note": 76, "velocity": 112, "duration": 300}, {"note": 73, "velocity": 112, "duration": 79}, {"note": 74, "velocity": 107, "duration": 244}, {"note": 0, "velocity": 0, "duration": 116}, {"note": 73, "velocity": 127, "duration": 72}, {"note": 78, "velocity": 127, "duration": 206}, {"note": 76, "velocity": 117, "duration": 276}, {"note": 73, "velocity": 95, "duration": 86}, {"note": 74, "velocity": 100, "duration": 171}, {"note": 0, "velocity": 0, "duration": 69}, {"note": 73, "velocity": 122, "duration": 168}, {"note": 0, "velocity": 0, "duration": 72}, {"note": 81, "velocity": 122, "duration": 176}, {"note": 0, "velocity": 0, "duration": 64}, {"note": 81, "velocity": 107, "duration": 102}, {"note": 80, "velocity": 112, "duration": 90}, {"note": 0, "velocity": 0, "duration": 150}, {"note": 76, "velocity": 99, "duration": 116}, {"note": 0, "velocity": 0, "duration": 124}, {"note": 73, "velocity": 99, "duration": 166}, {"note": 0, "velocity": 0, "duration": 314}, {"note": 69, "velocity": 112, "duration": 81}, {"note": 71, "velocity": 117, "duration": 172}, {"note": 0, "velocity": 0, "duration": 68}, {"note": 69, "velocity": 122, "duration": 151}, {"note": 0, "velocity": 0, "duration": 89}, {"note": 66, "velocity": 127, "duration": 129}, {"note": 0, "velocity": 0, "duration": 111}, {"note": 78, "velocity": 127, "duration": 69}, {"note": 78, "velocity": 102, "duration": 296}, {"note": 0, "velocity": 0, "duration": 64}, {"note": 76, "velocity": 100, "duration": 55}, {"note": 0, "velocity": 0, "duration": 65}, {"note": 76, "velocity": 117, "duration": 179}, {"note": 0, "velocity": 0, "duration": 181}, {"note": 69, "velocity": 96, "duration": 84}, {"note": 71, "velocity": 112, "duration": 149}, {"note": 0, "velocity": 0, "duration": 91}, {"note": 73, "velocity": 102, "duration": 134}, {"note": 0, "velocity": 0, "duration": 106}, {"note": 74, "velocity": 122, "duration": 601}, {"note": 0, "velocity": 0, "duration": 359}, {"note": 69, "velocity": 99, "duration": 70}, {"note": 69, "velocity": 92, "duration": 125}, {"note": 0, "velocity": 0, "duration": 115}, {"note": 66, "velocity": 100, "duration": 72}, {"note": 73, "velocity": 127, "duration": 309}, {"note": 0, "velocity": 0, "duration": 171}, {"note": 68, "velocity": 107, "duration": 97}, {"note": 71, "velocity": 100, "duration": 253}, {"note": 69, "velocity": 97, "duration": 240}, {"note": 0, "velocity": 0, "duration": 839}, {"note": 69, "velocity": 99, "duration": 62}, {"note": 0, "velocity": 0, "duration": 73}, {"note": 71, "velocity": 117, "duration": 128}, {"note": 0, "velocity": 0, "duration": 123}, {"note": 69, "velocity": 97, "duration": 64}, {"note": 0, "velocity": 0, "duration": 85}, {"note": 66, "velocity": 92, "duration": 315}, {"note": 0, "velocity": 0, "duration": 81}, {"note": 78, "velocity": 92, "duration": 71}, {"note": 0, "velocity": 0, "duration": 69}, {"note": 78, "velocity": 112, "duration": 266}, {"note": 0, "velocity": 0, "duration": 73}, {"note": 76, "velocity": 90, "duration": 72}, {"note": 0, "velocity": 0, "duration": 93}, {"note": 76, "velocity": 100, "duration": 359}, {"note": 69, "velocity": 74, "duration": 140}, {"note": 71, "velocity": 82, "duration": 157}, {"note": 0, "velocity": 0, "duration": 96}, {"note": 73, "velocity": 96, "duration": 144}, {"note": 0, "velocity": 0, "duration": 65}, {"note": 74, "velocity": 97, "duration": 562}, {"note": 0, "velocity": 0, "duration": 386}, {"note": 69, "velocity": 92, "duration": 133}, {"note": 69, "velocity": 90, "duration": 269}, {"note": 71, "velocity": 82, "duration": 181}, {"note": 73, "velocity": 95, "duration": 818}, {"note": 0, "velocity": 0, "duration": 354}, {"note": 71, "velocity": 88, "duration": 334}, {"note": 69, "velocity": 88, "duration": 2155}]]