[[{"note": 66, "velocity": 99, "duration": 139}, {"note": 69, "velocity": 74, "duration": 143}, {"note": 66, "velocity": 76, "duration": 135}, {"note": 69, "velocity": 88, "duration": 776}, {"note": 0, "velocity": 0, "duration": 304}, {"note": 62, "velocity": 102, "duration": 97}, {"note": 64, "velocity": 90, "duration": 103}, {"note": 0, "velocity": 0, "duration": 137}, {"note": 66, "velocity": 107, "duration": 98}, {"note": 0, "velocity": 0, "duration": 142}, {"note": 64, "velocity": 88, "duration": 647}, {"note": 0, "velocity": 0, "duration": 1153}, {"note": 71, "velocity": 117, "duration": 132}, {"note": 69, "velocity": 77, "duration": 58}, {"note": 0, "velocity": 0, "duration": 62}, {"note": 69, "velocity": 82, "duration": 78}, {"note": 66, "velocity": 99, "duration": 81}, {"note": 69, "velocity": 93, "duration": 386}, {"note": 0, "velocity": 0, "duration": 94}, {"note": 71, "velocity": 112, "duration": 126}, {"note": 69, "velocity": 88, "duration": 130}, {"note": 0, "velocity": 0, "duration": 110}, {"note": 66, "velocity": 89, "duration": 94}, {"note": 69, "velocity": 88, "duration": 155}, {"note": 66, "velocity": 75, "duration": 768}, {"note": 0, "velocity": 0, "duration": 792}, {"note": 69, "velocity": 102, "duration": 56}, {"note": 0, "velocity": 0, "duration": 64}, {"note": 69, "velocity": 97, "duration": 50}, {"note": 0, "velocity": 0, "duration": 70}, {"note": 71, "velocity": 117, "duration": 154}, {"note": 0, "velocity": 0, "duration": 86}, {"note": 71, "velocity": 95, "duration": 53}, {"note": 0, "velocity": 0, "duration": 67}, {"note": 71, "velocity": 92, "duration": 53}, {"note": 0, "velocity": 0, "duration": 67}, {"note": 71, "velocity": 122, "duration": 167}, {"note": 0, "velocity": 0, "duration": 73}, {"note": 73, "velocity": 112, "duration": 66}, {"note": 74, "velocity": 90, "duration": 484}, {"note": 0, "velocity": 0, "duration": 356}, {"note": 71, "velocity": 102, "duration": 100}, {"note": 74, "velocity": 92, "duration": 82}, {"note": 71, "velocity": 102, "duration": 107}, {"note": 69, "velocity": 83, "duration": 161}, {"note": 69, "velocity": 100, "duration": 41}, {"note": 0, "velocity": 0, "duration": 79}, {"note": 69, "velocity": 90, "duration": 67}, {"note": 69, "velocity": 102, "duration": 138}, {"note": 0, "velocity": 0, "duration": 102}, {"note": 71, "velocity": 99, "duration": 88}, {"note": 69, "velocity": 102, "duration": 290}, {"note": 0, "velocity": 0, "duration": 550}, {"note": 66, "velocity": 127, "duration": 54}, {"note": 0, "velocity": 0, "duration": 66}, {"note": 66, "velocity": 95, "duration": 56}, {"note": 0, "velocity": 0, "duration": 64}, {"note": 66, "velocity": 122, "duration": 183}, {"note": 64, "velocity": 82, "duration": 36}, {"note": 0, "velocity": 0, "duration": 84}, {"note": 64, "velocity": 100, "duration": 648}, {"note": 0, "velocity": 0, "duration": 432}, {"note": 71, "velocity": 127, "duration": 275}, {"note": 69, "velocity": 96, "duration": 133}, {"note": 0, "velocity": 0, "duration": 107}, {"note": 66, "velocity": 117, "duration": 238}, {"note": 64, "velocity": 97, "duration": 552}, {"note": 0, "velocity": 0, "duration": 1488}, {"note": 57, "velocity": 112, "duration": 53}, {"note": 0, "velocity": 0, "duration": 67}, {"note": 66, "velocity": 99, "duration": 139}, {"note": 69, "velocity": 74, "duration": 143}, {"note": 66, "velocity": 76, "duration": 135}, {"note": 69, "velocity": 88, "duration": 776}, {"note": 0, "velocity": 0, "duration": 184}, {"note": 57, "velocity": 100, "duration": 97}, {"note": 62, "velocity": 102, "duration": 97}, {"note": 64, "velocity": 90, "duration": 103}, {"note": 64, "velocity": 102, "duration": 101}, {"note": 66, "velocity": 107, "duration": 98}, {"note": 0, "velocity": 0, "duration": 142}, {"note": 64, "velocity": 88, "duration": 647}, {"note": 0, "velocity": 0, "duration": 1033}, {"note": 71, "velocity": 112, "duration": 96}, {"note": 71, "velocity": 117, "duration": 132}, {"note": 69, "velocity": 102, "duration": 79}, {"note": 66, "velocity": 107, "duration": 79}, {"note": 69, "velocity": 93, "duration": 386}, {"note": 0, "velocity": 0, "duration": 94}, {"note": 69, "velocity": 76, "duration": 86}, {"note": 71, "velocity": 107, "duration": 214}, {"note": 0, "velocity": 0, "duration": 146}, {"note": 69, "velocity": 97, "duration": 83}, {"note": 66, "velocity": 99, "duration": 105}, {"note": 0, "velocity": 0, "duration": 135}, {"note": 69, "velocity": 112, "duration": 71}, {"note": 66, "velocity": 112, "duration": 570}, {"note": 0, "velocity": 0, "duration": 750}, {"note": 69, "velocity": 102, "duration": 56}, {"note": 0, "velocity": 0, "duration": 64}, {"note": 69, "velocity": 97, "duration": 50}, {"note": 0, "velocity": 0, "duration": 70}, {"note": 71, "velocity": 117, "duration": 154}, {"note": 0, "velocity": 0, "duration": 86}, {"note": 71, "velocity": 95, "duration": 53}, {"note": 0, "velocity": 0, "duration": 67}, {"note": 71, "velocity": 92, "duration": 53}, {"note": 0, "velocity": 0, "duration": 187}, {"note": 71, "velocity": 127, "duration": 113}, {"note": 0, "velocity": 0, "duration": 127}, {"note": 73, "velocity": 102, "duration": 59}, {"note": 0, "velocity": 0, "duration": 61}, {"note": 74, "velocity": 99, "duration": 437}, {"note": 0, "velocity": 0, "duration": 283}, {"note": 71, "velocity": 102, "duration": 100}, {"note": 74, "velocity": 92, "duration": 82}, {"note": 71, "velocity": 102, "duration": 107}, {"note": 0, "velocity": 0, "duration": 133}, {"note": 69, "velocity": 100, "duration": 61}, {"note": 69, "velocity": 90, "duration": 67}, {"note": 69, "velocity": 102, "duration": 138}, {"note": 0, "velocity": 0, "duration": 102}, {"note": 66, "velocity": 112, "duration": 72}, {"note": 74, "velocity": 102, "duration": 470}, {"note": 0, "velocity": 0, "duration": 370}, {"note": 69, "velocity": 93, "duration": 37}, {"note": 0, "velocity": 0, "duration": 83}, {"note": 69, "velocity": 100, "duration": 63}, {"note": 71, "velocity": 122, "duration": 153}, {"note": 0, "velocity": 0, "duration": 87}, {"note": 71, "velocity": 97, "duration": 53}, {"note": 0, "velocity": 0, "duration": 67}, {"note": 71, "velocity": 96, "duration": 53}, {"note": 0, "velocity": 0, "duration": 67}, {"note": 71, "velocity": 122, "duration": 98}, {"note": 0, "velocity": 0, "duration": 142}, {"note": 73, "velocity": 117, "duration": 83}, {"note": 74, "velocity": 117, "duration": 295}, {"note": 0, "velocity": 0, "duration": 305}, {"note": 71, "velocity": 117, "duration": 155}, {"note": 0, "velocity": 0, "duration": 85}, {"note": 74, "velocity": 117, "duration": 38}, {"note": 0, "velocity": 0, "duration": 82}, {"note": 76, "velocity": 117, "duration": 902}, {"note": 0, "velocity": 0, "duration": 658}, {"note": 69, "velocity": 112, "duration": 132}, {"note": 71, "velocity": 122, "duration": 124}, {"note": 0, "velocity": 0, "duration": 116}, {"note": 74, "velocity": 117, "duration": 78}, {"note": 78, "velocity": 127, "duration": 309}, {"note": 76, "velocity": 122, "duration": 47}, {"note": 76, "velocity": 112, "duration": 46}, {"note": 0, "velocity": 0, "duration": 74}, {"note": 76, "velocity": 122, "duration": 120}, {"note": 0, "velocity": 0, "duration": 120}, {"note": 74, "velocity": 122, "duration": 56}, {"note": 0, "velocity": 0, "duration": 64}, {"note": 76, "velocity": 127, "duration": 365}, {"note": 0, "velocity": 0, "duration": 595}, {"note": 74, "velocity": 97, "duration": 36}, {"note": 0, "velocity": 0, "duration": 84}, {"note": 78, "velocity": 127, "duration": 202}, {"note": 76, "velocity": 122, "duration": 152}, {"note": 0, "velocity": 0, "duration": 88}, {"note": 76, "velocity": 127, "duration": 154}, {"note": 0, "velocity": 0, "duration": 86}, {"note": 74, "velocity": 122, "duration": 58}, {"note": 0, "velocity": 0, "duration": 62}, {"note": 74, "velocity": 127, "duration": 324}, {"note": 0, "velocity": 0, "duration": 516}, {"note": 74, "velocity": 112, "duration": 39}, {"note": 0, "velocity": 0, "duration": 81}, {"note": 76, "velocity": 122, "duration": 120}, {"note": 78, "velocity": 99, "duration": 65}, {"note": 78, "velocity": 107, "duration": 51}, {"note": 0, "velocity": 0, "duration": 69}, {"note": 78, "velocity": 122, "duration": 51}, {"note": 0, "velocity": 0, "duration": 69}, {"note": 78, "velocity": 122, "duration": 46}, {"note": 0, "velocity": 0, "duration": 74}, {"note": 78, "velocity": 127, "duration": 138}, {"note": 0, "velocity": 0, "duration": 102}, {"note": 76, "velocity": 127, "duration": 76}, {"note": 74, "velocity": 97, "duration": 54}, {"note": 0, "velocity": 0, "duration": 66}, {"note": 76, "velocity": 122, "duration": 191}, {"note": 0, "velocity": 0, "duration": 169}, {"note": 69, "velocity": 96, "duration": 45}, {"note": 0, "velocity": 0, "duration": 75}, {"note": 69, "velocity": 97, "duration": 86}, {"note": 71, "velocity": 107, "duration": 64}, {"note": 74, "velocity": 107, "duration": 93}, {"note": 76, "velocity": 127, "duration": 53}, {"note": 0, "velocity": 0, "duration": 67}, {"note": 78, "velocity": 127, "duration": 118}, {"note": 76, "velocity": 112, "duration": 96}, {"note": 74, "velocity": 99, "duration": 40}, {"note": 0, "velocity": 0, "duration": 80}, {"note": 74, "velocity": 127, "duration": 47}, {"note": 0, "velocity": 0, "duration": 73}, {"note": 74, "velocity": 127, "duration": 107}, {"note": 71, "velocity": 112, "duration": 119}, {"note": 0, "velocity": 0, "duration": 121}, {"note": 74, "velocity": 102, "duration": 63}, {"note": 76, "velocity": 127, "duration": 235}, {"note": 0, "velocity": 0, "duration": 245}, {"note": 69, "velocity": 112, "duration": 100}, {"note": 71, "velocity": 117, "duration": 90}, {"note": 0, "velocity": 0, "duration": 150}, {"note": 74, "velocity": 117, "duration": 55}, {"note": 0, "velocity": 0, "duration": 65}, {"note": 78, "velocity": 127, "duration": 174}, {"note": 0, "velocity": 0, "duration": 66}, {"note": 76, "velocity": 117, "duration": 46}, {"note": 0, "velocity": 0, "duration": 74}, {"note": 76, "velocity": 112, "duration": 56}, {"note": 0, "velocity": 0, "duration": 64}, {"note": 76, "velocity": 122, "duration": 96}, {"note": 0, "velocity": 0, "duration": 144}, {"note": 74, "velocity": 127, "duration": 43}, {"note": 0, "velocity": 0, "duration": 77}, {"note": 76, "velocity": 127, "duration": 160}, {"note": 0, "velocity": 0, "duration": 80}, {"note": 78, "velocity": 127, "duration": 280}, {"note": 0, "velocity": 0, "duration": 440}, {"note": 74, "velocity": 112, "duration": 61}, {"note": 78, "velocity": 127, "duration": 138}, {"note": 0, "velocity": 0, "duration": 102}, {"note": 81, "velocity": 122, "duration": 100}, {"note": 0, "velocity": 0, "duration": 140}, {"note": 78, "velocity": 127, "duration": 73}, {"note": 76, "velocity": 112, "duration": 80}, {"note": 74, "velocity": 117, "duration": 36}, {"note": 0, "velocity": 0, "duration": 84}, {"note": 74, "velocity": 127, "duration": 329}, {"note": 0, "velocity": 0, "duration": 511}, {"note": 74, "velocity": 112, "duration": 54}, {"note": 0, "velocity": 0, "duration": 66}, {"note": 76, "velocity": 112, "duration": 39}, {"note": 0, "velocity": 0, "duration": 81}, {"note": 78, "velocity": 127, "duration": 48}, {"note": 0, "velocity": 0, "duration": 72}, {"note": 78, "velocity": 99, "duration": 43}, {"note": 0, "velocity": 0, "duration": 77}, {"note": 78, "velocity": 112, "duration": 46}, {"note": 0, "velocity": 0, "duration": 74}, {"note": 78, "velocity": 122, "duration": 41}, {"note": 0, "velocity": 0, "duration": 79}, {"note": 78, "velocity": 127, "duration": 79}, {"note": 76, "velocity": 122, "duration": 78}, {"note": 0, "velocity": 0, "duration": 162}, {"note": 74, "velocity": 112, "duration": 58}, {"note": 0, "velocity": 0, "duration": 62}, {"note": 76, "velocity": 127, "duration": 262}, {"note": 0, "velocity": 0, "duration": 98}, {"note": 69, "velocity": 99, "duration": 50}, {"note": 0, "velocity": 0, "duration": 70}, {"note": 69, "velocity": 112, "duration": 83}, {"note": 71, "velocity": 107, "duration": 78}, {"note": 74, "velocity": 117, "duration": 81}, {"note": 76, "velocity": 127, "duration": 55}, {"note": 0, "velocity": 0, "duration": 65}, {"note": 78, "velocity": 127, "duration": 53}, {"note": 0, "velocity": 0, "duration": 67}, {"note": 76, "velocity": 127, "duration": 82}, {"note": 74, "velocity": 97, "duration": 40}, {"note": 0, "velocity": 0, "duration": 80}, {"note": 74, "velocity": 127, "duration": 139}, {"note": 0, "velocity": 0, "duration": 101}, {"note": 74, "velocity": 122, "duration": 224}, {"note": 0, "velocity": 0, "duration": 376}, {"note": 74, "velocity": 122, "duration": 49}, {"note": 0, "velocity": 0, "duration": 71}, {"note": 74, "velocity": 107, "duration": 46}, {"note": 0, "velocity": 0, "duration": 74}, {"note": 74, "velocity": 122, "duration": 132}, {"note": 0, "velocity": 0, "duration": 108}, {"note": 71, "velocity": 117, "duration": 65}, {"note": 76, "velocity": 127, "duration": 756}, {"note": 0, "velocity": 0, "duration": 564}, {"note": 69, "velocity": 96, "duration": 58}, {"note": 0, "velocity": 0, "duration": 62}, {"note": 69, "velocity": 92, "duration": 54}, {"note": 0, "velocity": 0, "duration": 66}, {"note": 78, "velocity": 127, "duration": 103}, {"note": 76, "velocity": 117, "duration": 97}, {"note": 0, "velocity": 0, "duration": 143}, {"note": 74, "velocity": 117, "duration": 126}, {"note": 0, "velocity": 0, "duration": 114}, {"note": 71, "velocity": 112, "duration": 82}, {"note": 76, "velocity": 112, "duration": 217}, {"note": 0, "velocity": 0, "duration": 143}, {"note": 74, "velocity": 117, "duration": 914}, {"note": 0, "velocity": 0, "duration": 14206}, {"note": 57, "velocity": 107, "duration": 45}, {"note": 0, "velocity": 0, "duration": 75}, {"note": 66, "velocity": 99, "duration": 139}, {"note": 69, "velocity": 74, "duration": 143}, {"note": 66, "velocity": 76, "duration": 135}, {"note": 69, "velocity": 88, "duration": 776}, {"note": 0, "velocity": 0, "duration": 184}, {"note": 57, "velocity": 100, "duration": 97}, {"note": 62, "velocity": 102, "duration": 97}, {"note": 64, "velocity": 90, "duration": 103}, {"note": 64, "velocity": 102, "duration": 101}, {"note": 66, "velocity": 107, "duration": 98}, {"note": 0, "velocity": 0, "duration": 142}, {"note": 64, "velocity": 88, "duration": 647}, {"note": 0, "velocity": 0, "duration": 1033}, {"note": 71, "velocity": 112, "duration": 96}, {"note": 71, "velocity": 117, "duration": 132}, {"note": 69, "velocity": 102, "duration": 79}, {"note": 66, "velocity": 107, "duration": 79}, {"note": 69, "velocity": 93, "duration": 386}, {"note": 0, "velocity": 0, "duration": 94}, {"note": 69, "velocity": 76, "duration": 86}, {"note": 71, "velocity": 107, "duration": 215}, {"note": 0, "velocity": 0, "duration": 145}, {"note": 69, "velocity": 97, "duration": 83}, {"note": 66, "velocity": 99, "duration": 105}, {"note": 0, "velocity": 0, "duration": 135}, {"note": 69, "velocity": 112, "duration": 71}, {"note": 66, "velocity": 112, "duration": 570}, {"note": 0, "velocity": 0, "duration": 750}, {"note": 69, "velocity": 102, "duration": 56}, {"note": 0, "velocity": 0, "duration": 64}, {"note": 69, "velocity": 97, "duration": 50}, {"note": 0, "velocity": 0, "duration": 70}, {"note": 71, "velocity": 117, "duration": 154}, {"note": 0, "velocity": 0, "duration": 86}, {"note": 71, "velocity": 95, "duration": 53}, {"note": 0, "velocity": 0, "duration": 67}, {"note": 71, "velocity": 92, "duration": 53}, {"note": 0, "velocity": 0, "duration": 187}, {"note": 71, "velocity": 127, "duration": 113}, {"note": 0, "velocity": 0, "duration": 127}, {"note": 73, "velocity": 102, "duration": 59}, {"note": 0, "velocity": 0, "duration": 61}, {"note": 74, "velocity": 99, "duration": 437}, {"note": 0, "velocity": 0, "duration": 283}, {"note": 71, "velocity": 102, "duration": 100}, {"note": 74, "velocity": 92, "duration": 82}, {"note": 71, "velocity": 102, "duration": 107}, {"note": 0, "velocity": 0, "duration": 133}, {"note": 69, "velocity": 100, "duration": 61}, {"note": 69, "velocity": 90, "duration": 67}, {"note": 69, "velocity": 102, "duration": 138}, {"note": 0, "velocity": 0, "duration": 102}, {"note": 66, "velocity": 112, "duration": 72}, {"note": 74, "velocity": 102, "duration": 470}, {"note": 0, "velocity": 0, "duration": 370}, {"note": 69, "velocity": 93, "duration": 37}, {"note": 0, "velocity": 0, "duration": 83}, {"note": 69, "velocity": 100, "duration": 63}, {"note": 71, "velocity": 122, "duration": 153}, {"note": 0, "velocity": 0, "duration": 87}, {"note": 71, "velocity": 97, "duration": 53}, {"note": 0, "velocity": 0, "duration": 67}, {"note": 71, "velocity": 96, "duration": 53}, {"note": 0, "velocity": 0, "duration": 67}, {"note": 71, "velocity": 122, "duration": 98}, {"note": 0, "velocity": 0, "duration": 142}, {"note": 73, "velocity": 117, "duration": 83}, {"note": 74, "velocity": 117, "duration": 295}, {"note": 0, "velocity": 0, "duration": 305}, {"note": 71, "velocity": 117, "duration": 155}, {"note": 0, "velocity": 0, "duration": 85}, {"note": 74, "velocity": 117, "duration": 38}, {"note": 0, "velocity": 0, "duration": 82}, {"note": 76, "velocity": 117, "duration": 902}, {"note": 0, "velocity": 0, "duration": 658}, {"note": 69, "velocity": 112, "duration": 132}, {"note": 71, "velocity": 122, "duration": 124}, {"note": 0, "velocity": 0, "duration": 116}, {"note": 74, "velocity": 117, "duration": 78}, {"note": 78, "velocity": 127, "duration": 309}, {"note": 76, "velocity": 122, "duration": 47}, {"note": 76, "velocity": 112, "duration": 46}, {"note": 0, "velocity": 0, "duration": 74}, {"note": 76, "velocity": 122, "duration": 120}, {"note": 0, "velocity": 0, "duration": 120}, {"note": 74, "velocity": 122, "duration": 56}, {"note": 0, "velocity": 0, "duration": 64}, {"note": 76, "velocity": 127, "duration": 365}, {"note": 0, "velocity": 0, "duration": 595}, {"note": 74, "velocity": 97, "duration": 36}, {"note": 0, "velocity": 0, "duration": 84}, {"note": 78, "velocity": 127, "duration": 202}, {"note": 76, "velocity": 122, "duration": 152}, {"note": 0, "velocity": 0, "duration": 88}, {"note": 76, "velocity": 127, "duration": 154}, {"note": 0, "velocity": 0, "duration": 86}, {"note": 74, "velocity": 122, "duration": 58}, {"note": 0, "velocity": 0, "duration": 62}, {"note": 74, "velocity": 127, "duration": 324}, {"note": 0, "velocity": 0, "duration": 516}, {"note": 74, "velocity": 112, "duration": 39}, {"note": 0, "velocity": 0, "duration": 81}, {"note": 76, "velocity": 122, "duration": 120}, {"note": 78, "velocity": 99, "duration": 65}, {"note": 78, "velocity": 107, "duration": 51}, {"note": 0, "velocity": 0, "duration": 69}, {"note": 78, "velocity": 122, "duration": 51}, {"note": 0, "velocity": 0, "duration": 69}, {"note": 78, "velocity": 122, "duration": 46}, {"note": 0, "velocity": 0, "duration": 74}, {"note": 78, "velocity": 127, "duration": 138}, {"note": 0, "velocity": 0, "duration": 102}, {"note": 76, "velocity": 127, "duration": 76}, {"note": 74, "velocity": 97, "duration": 54}, {"note": 0, "velocity": 0, "duration": 66}, {"note": 76, "velocity": 122, "duration": 191}, {"note": 0, "velocity": 0, "duration": 169}, {"note": 69, "velocity": 96, "duration": 45}, {"note": 0, "velocity": 0, "duration": 75}, {"note": 69, "velocity": 97, "duration": 86}, {"note": 71, "velocity": 107, "duration": 64}, {"note": 74, "velocity": 107, "duration": 93}, {"note": 76, "velocity": 127, "duration": 53}, {"note": 0, "velocity": 0, "duration": 67}, {"note": 78, "velocity": 127, "duration": 118}, {"note": 76, "velocity": 112, "duration": 96}, {"note": 74, "velocity": 99, "duration": 40}, {"note": 0, "velocity": 0, "duration": 80}, {"note": 74, "velocity": 127, "duration": 47}, {"note": 0, "velocity": 0, "duration": 73}, {"note": 74, "velocity": 127, "duration": 107}, {"note": 71, "velocity": 112, "duration": 119}, {"note": 0, "velocity": 0, "duration": 121}, {"note": 74, "velocity": 102, "duration": 63}, {"note": 76, "velocity": 127, "duration": 235}, {"note": 0, "velocity": 0, "duration": 245}, {"note": 69, "velocity": 112, "duration": 100}, {"note": 71, "velocity": 117, "duration": 90}, {"note": 0, "velocity": 0, "duration": 150}, {"note": 74, "velocity": 117, "duration": 55}, {"note": 0, "velocity": 0, "duration": 65}, {"note": 78, "velocity": 127, "duration": 174}, {"note": 0, "velocity": 0, "duration": 66}, {"note": 76, "velocity": 117, "duration": 46}, {"note": 0, "velocity": 0, "duration": 74}, {"note": 76, "velocity": 112, "duration": 56}, {"note": 0, "velocity": 0, "duration": 64}, {"note": 76, "velocity": 122, "duration": 96}, {"note": 0, "velocity": 0, "duration": 144}, {"note": 74, "velocity": 127, "duration": 43}, {"note": 0, "velocity": 0, "duration": 77}, {"note": 76, "velocity": 127, "duration": 160}, {"note": 0, "velocity": 0, "duration": 80}, {"note": 78, "velocity": 127, "duration": 280}, {"note": 0, "velocity": 0, "duration": 440}, {"note": 74, "velocity": 112, "duration": 61}, {"note": 78, "velocity": 127, "duration": 138}, {"note": 0, "velocity": 0, "duration": 102}, {"note": 81, "velocity": 122, "duration": 100}, {"note": 0, "velocity": 0, "duration": 140}, {"note": 78, "velocity": 127, "duration": 73}, {"note": 76, "velocity": 112, "duration": 80}, {"note": 74, "velocity": 117, "duration": 36}, {"note": 0, "velocity": 0, "duration": 84}, {"note": 74, "velocity": 127, "duration": 329}, {"note": 0, "velocity": 0, "duration": 511}, {"note": 74, "velocity": 112, "duration": 54}, {"note": 0, "velocity": 0, "duration": 66}, {"note": 76, "velocity": 112, "duration": 39}, {"note": 0, "velocity": 0, "duration": 81}, {"note": 78, "velocity": 127, "duration": 48}, {"note": 0, "velocity": 0, "duration": 72}, {"note": 78, "velocity": 99, "duration": 43}, {"note": 0, "velocity": 0, "duration": 77}, {"note": 78, "velocity": 112, "duration": 46}, {"note": 0, "velocity": 0, "duration": 74}, {"note": 78, "velocity": 122, "duration": 41}, {"note": 0, "velocity": 0, "duration": 79}, {"note": 78, "velocity": 127, "duration": 79}, {"note": 76, "velocity": 122, "duration": 78}, {"note": 0, "velocity": 0, "duration": 162}, {"note": 74, "velocity": 112, "duration": 58}, {"note": 0, "velocity": 0, "duration": 62}, {"note": 76, "velocity": 127, "duration": 262}, {"note": 0, "velocity": 0, "duration": 98}, {"note": 69, "velocity": 99, "duration": 50}, {"note": 0, "velocity": 0, "duration": 70}, {"note": 69, "velocity": 112, "duration": 83}, {"note": 71, "velocity": 107, "duration": 78}, {"note": 74, "velocity": 117, "duration": 81}, {"note": 76, "velocity": 127, "duration": 55}, {"note": 0, "velocity": 0, "duration": 65}, {"note": 78, "velocity": 127, "duration": 53}, {"note": 0, "velocity": 0, "duration": 67}, {"note": 76, "velocity": 127, "duration": 82}, {"note": 74, "velocity": 97, "duration": 40}, {"note": 0, "velocity": 0, "duration": 80}, {"note": 74, "velocity": 127, "duration": 139}, {"note": 0, "velocity": 0, "duration": 101}, {"note": 74, "velocity": 122, "duration": 224}, {"note": 0, "velocity": 0, "duration": 376}, {"note": 74, "velocity": 122, "duration": 49}, {"note": 0, "velocity": 0, "duration": 71}, {"note": 74, "velocity": 107, "duration": 46}, {"note": 0, "velocity": 0, "duration": 74}, {"note": 74, "velocity": 122, "duration": 132}, {"note": 0, "velocity": 0, "duration": 108}, {"note": 71, "velocity": 117, "duration": 65}, {"note": 76, "velocity": 127, "duration": 756}, {"note": 0, "velocity": 0, "duration": 564}, {"note": 69, "velocity": 96, "duration": 58}, {"note": 0, "velocity": 0, "duration": 62}, {"note": 69, "velocity": 92, "duration": 54}, {"note": 0, "velocity": 0, "duration": 66}, {"note": 78, "velocity": 127, "duration": 103}, {"note": 76, "velocity": 117, "duration": 97}, {"note": 0, "velocity": 0, "duration": 143}, {"note": 74, "velocity": 117, "duration": 126}, {"note": 0, "velocity": 0, "duration": 114}, {"note": 71, "velocity": 112, "duration": 82}, {"note": 76, "velocity": 112, "duration": 217}, {"note": 0, "velocity": 0, "duration": 143}, {"note": 74, "velocity": 117, "duration": 360}, {"note": 0, "velocity": 0, "duration": 480}, {"note": 81, "velocity": 127, "duration": 85}, {"note": 0, "velocity": 0, "duration": 75}, {"note": 76, "velocity": 117, "duration": 82}, {"note": 0, "velocity": 0, "duration": 78}, {"note": 74, "velocity": 100, "duration": 54}, {"note": 0, "velocity": 0, "duration": 106}, {"note": 76, "velocity": 127, "duration": 184}, {"note": 76, "velocity": 102, "duration": 44}, {"note": 0, "velocity": 0, "duration": 76}, {"note": 76, "velocity": 127, "duration": 135}, {"note": 0, "velocity": 0, "duration": 225}, {"note": 74, "velocity": 122, "duration": 52}, {"note": 0, "velocity": 0, "duration": 68}, {"note": 76, "velocity": 127, "duration": 341}, {"note": 0, "velocity": 0, "duration": 619}, {"note": 74, "velocity": 97, "duration": 36}, {"note": 0, "velocity": 0, "duration": 84}, {"note": 78, "velocity": 127, "duration": 202}, {"note": 76, "velocity": 122, "duration": 152}, {"note": 0, "velocity": 0, "duration": 88}, {"note": 76, "velocity": 127, "duration": 154}, {"note": 0, "velocity": 0, "duration": 86}, {"note": 74, "velocity": 122, "duration": 58}, {"note": 0, "velocity": 0, "duration": 62}, {"note": 74, "velocity": 127, "duration": 324}, {"note": 0, "velocity": 0, "duration": 516}, {"note": 74, "velocity": 112, "duration": 39}, {"note": 0, "velocity": 0, "duration": 81}, {"note": 76, "velocity": 122, "duration": 120}, {"note": 78, "velocity": 99, "duration": 65}, {"note": 78, "velocity": 107, "duration": 51}, {"note": 0, "velocity": 0, "duration": 69}, {"note": 78, "velocity": 122, "duration": 51}, {"note": 0, "velocity": 0, "duration": 69}, {"note": 78, "velocity": 122, "duration": 46}, {"note": 0, "velocity": 0, "duration": 74}, {"note": 78, "velocity": 127, "duration": 138}, {"note": 0, "velocity": 0, "duration": 102}, {"note": 76, "velocity": 127, "duration": 76}, {"note": 74, "velocity": 97, "duration": 54}, {"note": 0, "velocity": 0, "duration": 66}, {"note": 76, "velocity": 122, "duration": 191}, {"note": 0, "velocity": 0, "duration": 169}, {"note": 69, "velocity": 96, "duration": 45}, {"note": 0, "velocity": 0, "duration": 75}, {"note": 69, "velocity": 97, "duration": 86}, {"note": 71, "velocity": 107, "duration": 64}, {"note": 74, "velocity": 107, "duration": 93}, {"note": 76, "velocity": 127, "duration": 53}, {"note": 0, "velocity": 0, "duration": 67}, {"note": 78, "velocity": 127, "duration": 118}, {"note": 76, "velocity": 112, "duration": 96}, {"note": 74, "velocity": 99, "duration": 40}, {"note": 0, "velocity": 0, "duration": 80}, {"note": 74, "velocity": 127, "duration": 47}, {"note": 0, "velocity": 0, "duration": 73}, {"note": 74, "velocity": 127, "duration": 107}, {"note": 71, "velocity": 112, "duration": 119}, {"note": 0, "velocity": 0, "duration": 121}, {"note": 74, "velocity": 102, "duration": 63}, {"note": 76, "velocity": 127, "duration": 235}, {"note": 0, "velocity": 0, "duration": 245}, {"note": 69, "velocity": 112, "duration": 100}, {"note": 71, "velocity": 117, "duration": 90}, {"note": 0, "velocity": 0, "duration": 150}, {"note": 74, "velocity": 117, "duration": 55}, {"note": 0, "velocity": 0, "duration": 65}, {"note": 78, "velocity": 127, "duration": 174}, {"note": 0, "velocity": 0, "duration": 66}, {"note": 76, "velocity": 117, "duration": 46}, {"note": 0, "velocity": 0, "duration": 74}, {"note": 76, "velocity": 112, "duration": 56}, {"note": 0, "velocity": 0, "duration": 64}, {"note": 76, "velocity": 122, "duration": 96}, {"note": 0, "velocity": 0, "duration": 144}, {"note": 74, "velocity": 127, "duration": 43}, {"note": 0, "velocity": 0, "duration": 77}, {"note": 76, "velocity": 127, "duration": 160}, {"note": 0, "velocity": 0, "duration": 80}, {"note": 78, "velocity": 127, "duration": 280}, {"note": 0, "velocity": 0, "duration": 440}, {"note": 74, "velocity": 112, "duration": 61}, {"note": 78, "velocity": 127, "duration": 138}, {"note": 0, "velocity": 0, "duration": 102}, {"note": 81, "velocity": 122, "duration": 100}, {"note": 0, "velocity": 0, "duration": 140}, {"note": 78, "velocity": 127, "duration": 73}, {"note": 76, "velocity": 112, "duration": 80}, {"note": 74, "velocity": 117, "duration": 36}, {"note": 0, "velocity": 0, "duration": 84}, {"note": 74, "velocity": 127, "duration": 329}, {"note": 0, "velocity": 0, "duration": 511}, {"note": 74, "velocity": 112, "duration": 54}, {"note": 0, "velocity": 0, "duration": 66}, {"note": 76, "velocity": 112, "duration": 39}, {"note": 0, "velocity": 0, "duration": 81}, {"note": 78, "velocity": 127, "duration": 48}, {"note": 0, "velocity": 0, "duration": 72}, {"note": 78, "velocity": 99, "duration": 43}, {"note": 0, "velocity": 0, "duration": 77}, {"note": 78, "velocity": 112, "duration": 46}, {"note": 0, "velocity": 0, "duration": 74}, {"note": 78, "velocity": 122, "duration": 41}, {"note": 0, "velocity": 0, "duration": 79}, {"note": 78, "velocity": 127, "duration": 79}, {"note": 76, "velocity": 122, "duration": 78}, {"note": 0, "velocity": 0, "duration": 162}, {"note": 74, "velocity": 112, "duration": 58}, {"note": 0, "velocity": 0, "duration": 62}, {"note": 76, "velocity": 127, "duration": 262}, {"note": 0, "velocity": 0, "duration": 98}, {"note": 69, "velocity": 99, "duration": 50}, {"note": 0, "velocity": 0, "duration": 70}, {"note": 69, "velocity": 112, "duration": 83}, {"note": 71, "velocity": 107, "duration": 78}, {"note": 74, "velocity": 117, "duration": 81}, {"note": 76, "velocity": 127, "duration": 55}, {"note": 0, "velocity": 0, "duration": 65}, {"note": 78, "velocity": 127, "duration": 53}, {"note": 0, "velocity": 0, "duration": 67}, {"note": 76, "velocity": 127, "duration": 82}, {"note": 74, "velocity": 97, "duration": 40}, {"note": 0, "velocity": 0, "duration": 80}, {"note": 74, "velocity": 127, "duration": 139}, {"note": 0, "velocity": 0, "duration": 101}, {"note": 74, "velocity": 122, "duration": 224}, {"note": 0, "velocity": 0, "duration": 376}, {"note": 74, "velocity": 122, "duration": 49}, {"note": 0, "velocity": 0, "duration": 71}, {"note": 74, "velocity": 107, "duration": 46}, {"note": 0, "velocity": 0, "duration": 74}, {"note": 74, "velocity": 122, "duration": 132}, {"note": 0, "velocity": 0, "duration": 108}, {"note": 71, "velocity": 117, "duration": 65}, {"note": 76, "velocity": 127, "duration": 756}, {"note": 0, "velocity": 0, "duration": 564}, {"note": 69, "velocity": 96, "duration": 58}, {"note": 0, "velocity": 0, "duration": 62}, {"note": 69, "velocity": 92, "duration": 54}, {"note": 0, "velocity": 0, "duration": 66}, {"note": 78, "velocity": 127, "duration": 103}, {"note": 76, "velocity": 117, "duration": 97}, {"note": 0, "velocity": 0, "duration": 143}, {"note": 74, "velocity": 117, "duration": 126}, {"note": 0, "velocity": 0, "duration": 114}, {"note": 71, "velocity": 112, "duration": 82}, {"note": 76, "velocity": 112, "duration": 217}, {"note": 0, "velocity": 0, "duration": 143}, {"note": 74, "velocity": 117, "duration": 360}]]