[[{"note": 62, "velocity": 107, "duration": 142}, {"note": 60, "velocity": 71, "duration": 107}, {"note": 59, "velocity": 88, "duration": 242}, {"note": 62, "velocity": 96, "duration": 228}, {"note": 67, "velocity": 102, "duration": 196}, {"note": 71, "velocity": 95, "duration": 88}, {"note": 72, "velocity": 107, "duration": 191}, {"note": 71, "velocity": 112, "duration": 437}, {"note": 62, "velocity": 102, "duration": 179}, {"note": 0, "velocity": 0, "duration": 61}, {"note": 59, "velocity": 88, "duration": 67}, {"note": 62, "velocity": 97, "duration": 148}, {"note": 0, "velocity": 0, "duration": 92}, {"note": 59, "velocity": 95, "duration": 586}, {"note": 0, "velocity": 0, "duration": 974}, {"note": 64, "velocity": 107, "duration": 101}, {"note": 62, "velocity": 69, "duration": 106}, {"note": 60, "velocity": 92, "duration": 235}, {"note": 64, "velocity": 93, "duration": 177}, {"note": 0, "velocity": 0, "duration": 63}, {"note": 67, "velocity": 102, "duration": 122}, {"note": 0, "velocity": 0, "duration": 118}, {"note": 69, "velocity": 99, "duration": 100}, {"note": 72, "velocity": 107, "duration": 129}, {"note": 0, "velocity": 0, "duration": 111}, {"note": 71, "velocity": 107, "duration": 247}, {"note": 0, "velocity": 0, "duration": 113}, {"note": 64, "velocity": 112, "duration": 234}, {"note": 66, "velocity": 95, "duration": 118}, {"note": 64, "velocity": 93, "duration": 207}, {"note": 62, "velocity": 95, "duration": 769}, {"note": 0, "velocity": 0, "duration": 791}, {"note": 67, "velocity": 99, "duration": 79}, {"note": 69, "velocity": 102, "duration": 59}, {"note": 0, "velocity": 0, "duration": 61}, {"note": 70, "velocity": 127, "duration": 140}, {"note": 0, "velocity": 0, "duration": 100}, {"note": 70, "velocity": 127, "duration": 147}, {"note": 0, "velocity": 0, "duration": 93}, {"note": 70, "velocity": 122, "duration": 91}, {"note": 69, "velocity": 102, "duration": 62}, {"note": 67, "velocity": 96, "duration": 102}, {"note": 65, "velocity": 99, "duration": 92}, {"note": 67, "velocity": 117, "duration": 246}, {"note": 67, "velocity": 102, "duration": 6}, {"note": 0, "velocity": 0, "duration": 234}, {"note": 67, "velocity": 122, "duration": 187}, {"note": 0, "velocity": 0, "duration": 173}, {"note": 69, "velocity": 112, "duration": 68}, {"note": 70, "velocity": 127, "duration": 158}, {"note": 0, "velocity": 0, "duration": 82}, {"note": 70, "velocity": 127, "duration": 145}, {"note": 0, "velocity": 0, "duration": 95}, {"note": 70, "velocity": 127, "duration": 88}, {"note": 69, "velocity": 102, "duration": 54}, {"note": 0, "velocity": 0, "duration": 66}, {"note": 67, "velocity": 99, "duration": 75}, {"note": 72, "velocity": 127, "duration": 105}, {"note": 71, "velocity": 117, "duration": 207}, {"note": 69, "velocity": 127, "duration": 190}, {"note": 67, "velocity": 117, "duration": 264}, {"note": 0, "velocity": 0, "duration": 456}, {"note": 64, "velocity": 100, "duration": 170}, {"note": 0, "velocity": 0, "duration": 70}, {"note": 67, "velocity": 112, "duration": 180}, {"note": 71, "velocity": 100, "duration": 156}, {"note": 0, "velocity": 0, "duration": 84}, {"note": 64, "velocity": 112, "duration": 222}, {"note": 67, "velocity": 117, "duration": 260}, {"note": 0, "velocity": 0, "duration": 220}, {"note": 67, "velocity": 117, "duration": 1153}, {"note": 0, "velocity": 0, "duration": 767}, {"note": 62, "velocity": 107, "duration": 142}, {"note": 60, "velocity": 71, "duration": 107}, {"note": 59, "velocity": 88, "duration": 242}, {"note": 62, "velocity": 96, "duration": 228}, {"note": 67, "velocity": 102, "duration": 196}, {"note": 71, "velocity": 95, "duration": 88}, {"note": 72, "velocity": 107, "duration": 191}, {"note": 71, "velocity": 112, "duration": 437}, {"note": 62, "velocity": 102, "duration": 179}, {"note": 0, "velocity": 0, "duration": 61}, {"note": 59, "velocity": 88, "duration": 67}, {"note": 62, "velocity": 97, "duration": 148}, {"note": 0, "velocity": 0, "duration": 92}, {"note": 59, "velocity": 95, "duration": 586}, {"note": 0, "velocity": 0, "duration": 974}, {"note": 64, "velocity": 107, "duration": 101}, {"note": 62, "velocity": 69, "duration": 106}, {"note": 60, "velocity": 92, "duration": 235}, {"note": 64, "velocity": 93, "duration": 177}, {"note": 0, "velocity": 0, "duration": 63}, {"note": 67, "velocity": 102, "duration": 122}, {"note": 0, "velocity": 0, "duration": 118}, {"note": 69, "velocity": 99, "duration": 100}, {"note": 72, "velocity": 107, "duration": 129}, {"note": 0, "velocity": 0, "duration": 111}, {"note": 71, "velocity": 107, "duration": 247}, {"note": 0, "velocity": 0, "duration": 113}, {"note": 64, "velocity": 112, "duration": 234}, {"note": 66, "velocity": 95, "duration": 118}, {"note": 64, "velocity": 93, "duration": 207}, {"note": 62, "velocity": 95, "duration": 769}, {"note": 0, "velocity": 0, "duration": 791}, {"note": 67, "velocity": 99, "duration": 79}, {"note": 69, "velocity": 102, "duration": 59}, {"note": 0, "velocity": 0, "duration": 61}, {"note": 70, "velocity": 127, "duration": 140}, {"note": 0, "velocity": 0, "duration": 100}, {"note": 70, "velocity": 127, "duration": 147}, {"note": 0, "velocity": 0, "duration": 93}, {"note": 70, "velocity": 122, "duration": 91}, {"note": 69, "velocity": 102, "duration": 62}, {"note": 67, "velocity": 96, "duration": 102}, {"note": 65, "velocity": 99, "duration": 92}, {"note": 67, "velocity": 117, "duration": 171}, {"note": 0, "velocity": 0, "duration": 69}, {"note": 67, "velocity": 102, "duration": 116}, {"note": 0, "velocity": 0, "duration": 124}, {"note": 67, "velocity": 122, "duration": 187}, {"note": 0, "velocity": 0, "duration": 173}, {"note": 69, "velocity": 112, "duration": 68}, {"note": 70, "velocity": 127, "duration": 158}, {"note": 0, "velocity": 0, "duration": 82}, {"note": 70, "velocity": 127, "duration": 145}, {"note": 0, "velocity": 0, "duration": 95}, {"note": 70, "velocity": 127, "duration": 88}, {"note": 69, "velocity": 102, "duration": 54}, {"note": 0, "velocity": 0, "duration": 66}, {"note": 67, "velocity": 99, "duration": 75}, {"note": 72, "velocity": 127, "duration": 105}, {"note": 71, "velocity": 117, "duration": 207}, {"note": 69, "velocity": 127, "duration": 190}, {"note": 67, "velocity": 117, "duration": 264}, {"note": 0, "velocity": 0, "duration": 456}, {"note": 74, "velocity": 117, "duration": 147}, {"note": 0, "velocity": 0, "duration": 93}, {"note": 74, "velocity": 127, "duration": 161}, {"note": 0, "velocity": 0, "duration": 79}, {"note": 71, "velocity": 107, "duration": 156}, {"note": 0, "velocity": 0, "duration": 84}, {"note": 74, "velocity": 122, "duration": 93}, {"note": 71, "velocity": 112, "duration": 255}, {"note": 0, "velocity": 0, "duration": 107}, {"note": 67, "velocity": 100, "duration": 181}, {"note": 69, "velocity": 127, "duration": 160}, {"note": 0, "velocity": 0, "duration": 91}, {"note": 67, "velocity": 112, "duration": 70}, {"note": 69, "velocity": 95, "duration": 70}, {"note": 67, "velocity": 102, "duration": 985}, {"note": 74, "velocity": 127, "duration": 156}, {"note": 0, "velocity": 0, "duration": 84}, {"note": 74, "velocity": 117, "duration": 149}, {"note": 0, "velocity": 0, "duration": 91}, {"note": 74, "velocity": 127, "duration": 107}, {"note": 71, "velocity": 107, "duration": 139}, {"note": 74, "velocity": 127, "duration": 199}, {"note": 74, "velocity": 127, "duration": 160}, {"note": 0, "velocity": 0, "duration": 80}, {"note": 74, "velocity": 127, "duration": 184}, {"note": 74, "velocity": 122, "duration": 129}, {"note": 71, "velocity": 99, "duration": 130}, {"note": 0, "velocity": 0, "duration": 230}, {"note": 74, "velocity": 117, "duration": 137}, {"note": 0, "velocity": 0, "duration": 103}, {"note": 74, "velocity": 127, "duration": 153}, {"note": 0, "velocity": 0, "duration": 87}, {"note": 74, "velocity": 107, "duration": 105}, {"note": 71, "velocity": 100, "duration": 120}, {"note": 74, "velocity": 127, "duration": 163}, {"note": 0, "velocity": 0, "duration": 77}, {"note": 74, "velocity": 122, "duration": 138}, {"note": 0, "velocity": 0, "duration": 102}, {"note": 74, "velocity": 127, "duration": 172}, {"note": 0, "velocity": 0, "duration": 68}, {"note": 74, "velocity": 97, "duration": 92}, {"note": 71, "velocity": 112, "duration": 126}, {"note": 0, "velocity": 0, "duration": 234}, {"note": 74, "velocity": 107, "duration": 156}, {"note": 0, "velocity": 0, "duration": 84}, {"note": 74, "velocity": 112, "duration": 132}, {"note": 0, "velocity": 0, "duration": 108}, {"note": 74, "velocity": 112, "duration": 118}, {"note": 71, "velocity": 100, "duration": 117}, {"note": 69, "velocity": 100, "duration": 159}, {"note": 0, "velocity": 0, "duration": 81}, {"note": 71, "velocity": 122, "duration": 161}, {"note": 0, "velocity": 0, "duration": 79}, {"note": 64, "velocity": 117, "duration": 198}, {"note": 69, "velocity": 127, "duration": 213}, {"note": 0, "velocity": 0, "duration": 267}, {"note": 69, "velocity": 127, "duration": 150}, {"note": 0, "velocity": 0, "duration": 90}, {"note": 69, "velocity": 127, "duration": 147}, {"note": 0, "velocity": 0, "duration": 93}, {"note": 67, "velocity": 112, "duration": 175}, {"note": 0, "velocity": 0, "duration": 65}, {"note": 69, "velocity": 127, "duration": 155}, {"note": 0, "velocity": 0, "duration": 85}, {"note": 71, "velocity": 122, "duration": 192}, {"note": 74, "velocity": 127, "duration": 121}, {"note": 0, "velocity": 0, "duration": 119}, {"note": 71, "velocity": 127, "duration": 246}, {"note": 0, "velocity": 0, "duration": 234}, {"note": 74, "velocity": 127, "duration": 151}, {"note": 0, "velocity": 0, "duration": 89}, {"note": 74, "velocity": 122, "duration": 150}, {"note": 0, "velocity": 0, "duration": 90}, {"note": 74, "velocity": 127, "duration": 109}, {"note": 71, "velocity": 107, "duration": 124}, {"note": 74, "velocity": 127, "duration": 189}, {"note": 74, "velocity": 127, "duration": 149}, {"note": 0, "velocity": 0, "duration": 91}, {"note": 74, "velocity": 127, "duration": 193}, {"note": 76, "velocity": 127, "duration": 231}, {"note": 0, "velocity": 0, "duration": 249}, {"note": 74, "velocity": 122, "duration": 142}, {"note": 0, "velocity": 0, "duration": 98}, {"note": 74, "velocity": 127, "duration": 163}, {"note": 0, "velocity": 0, "duration": 77}, {"note": 74, "velocity": 122, "duration": 112}, {"note": 71, "velocity": 96, "duration": 131}, {"note": 74, "velocity": 127, "duration": 156}, {"note": 0, "velocity": 0, "duration": 84}, {"note": 76, "velocity": 102, "duration": 212}, {"note": 78, "velocity": 100, "duration": 191}, {"note": 79, "velocity": 107, "duration": 432}, {"note": 74, "velocity": 102, "duration": 162}, {"note": 0, "velocity": 0, "duration": 78}, {"note": 74, "velocity": 99, "duration": 155}, {"note": 0, "velocity": 0, "duration": 85}, {"note": 74, "velocity": 107, "duration": 111}, {"note": 71, "velocity": 99, "duration": 109}, {"note": 69, "velocity": 107, "duration": 199}, {"note": 71, "velocity": 122, "duration": 146}, {"note": 0, "velocity": 0, "duration": 94}, {"note": 64, "velocity": 102, "duration": 181}, {"note": 69, "velocity": 127, "duration": 256}, {"note": 0, "velocity": 0, "duration": 224}, {"note": 71, "velocity": 127, "duration": 188}, {"note": 70, "velocity": 122, "duration": 235}, {"note": 0, "velocity": 0, "duration": 125}, {"note": 69, "velocity": 127, "duration": 242}, {"note": 0, "velocity": 0, "duration": 118}, {"note": 67, "velocity": 127, "duration": 1207}, {"note": 0, "velocity": 0, "duration": 5993}, {"note": 62, "velocity": 107, "duration": 142}, {"note": 60, "velocity": 71, "duration": 107}, {"note": 59, "velocity": 88, "duration": 242}, {"note": 62, "velocity": 96, "duration": 228}, {"note": 67, "velocity": 102, "duration": 196}, {"note": 71, "velocity": 95, "duration": 88}, {"note": 72, "velocity": 107, "duration": 191}, {"note": 71, "velocity": 112, "duration": 437}, {"note": 62, "velocity": 102, "duration": 179}, {"note": 0, "velocity": 0, "duration": 61}, {"note": 59, "velocity": 88, "duration": 67}, {"note": 62, "velocity": 97, "duration": 148}, {"note": 0, "velocity": 0, "duration": 92}, {"note": 59, "velocity": 95, "duration": 586}, {"note": 0, "velocity": 0, "duration": 974}, {"note": 64, "velocity": 107, "duration": 101}, {"note": 62, "velocity": 69, "duration": 106}, {"note": 60, "velocity": 92, "duration": 235}, {"note": 64, "velocity": 93, "duration": 177}, {"note": 0, "velocity": 0, "duration": 63}, {"note": 67, "velocity": 102, "duration": 122}, {"note": 0, "velocity": 0, "duration": 118}, {"note": 69, "velocity": 99, "duration": 100}, {"note": 72, "velocity": 107, "duration": 129}, {"note": 0, "velocity": 0, "duration": 111}, {"note": 71, "velocity": 107, "duration": 247}, {"note": 0, "velocity": 0, "duration": 113}, {"note": 64, "velocity": 112, "duration": 234}, {"note": 66, "velocity": 95, "duration": 118}, {"note": 64, "velocity": 93, "duration": 207}, {"note": 62, "velocity": 95, "duration": 769}, {"note": 0, "velocity": 0, "duration": 791}, {"note": 67, "velocity": 99, "duration": 79}, {"note": 69, "velocity": 102, "duration": 59}, {"note": 0, "velocity": 0, "duration": 61}, {"note": 70, "velocity": 127, "duration": 140}, {"note": 0, "velocity": 0, "duration": 100}, {"note": 70, "velocity": 127, "duration": 147}, {"note": 0, "velocity": 0, "duration": 93}, {"note": 70, "velocity": 122, "duration": 91}, {"note": 69, "velocity": 102, "duration": 62}, {"note": 67, "velocity": 96, "duration": 102}, {"note": 65, "velocity": 99, "duration": 92}, {"note": 67, "velocity": 117, "duration": 171}, {"note": 0, "velocity": 0, "duration": 69}, {"note": 67, "velocity": 102, "duration": 116}, {"note": 0, "velocity": 0, "duration": 124}, {"note": 67, "velocity": 122, "duration": 187}, {"note": 0, "velocity": 0, "duration": 173}, {"note": 69, "velocity": 112, "duration": 68}, {"note": 70, "velocity": 127, "duration": 158}, {"note": 0, "velocity": 0, "duration": 82}, {"note": 70, "velocity": 127, "duration": 145}, {"note": 0, "velocity": 0, "duration": 95}, {"note": 70, "velocity": 127, "duration": 88}, {"note": 69, "velocity": 102, "duration": 54}, {"note": 0, "velocity": 0, "duration": 66}, {"note": 67, "velocity": 99, "duration": 75}, {"note": 72, "velocity": 127, "duration": 105}, {"note": 71, "velocity": 117, "duration": 207}, {"note": 69, "velocity": 127, "duration": 190}, {"note": 67, "velocity": 117, "duration": 264}, {"note": 0, "velocity": 0, "duration": 456}, {"note": 74, "velocity": 117, "duration": 147}, {"note": 0, "velocity": 0, "duration": 93}, {"note": 74, "velocity": 127, "duration": 161}, {"note": 0, "velocity": 0, "duration": 79}, {"note": 71, "velocity": 107, "duration": 156}, {"note": 0, "velocity": 0, "duration": 84}, {"note": 74, "velocity": 122, "duration": 93}, {"note": 71, "velocity": 112, "duration": 255}, {"note": 0, "velocity": 0, "duration": 107}, {"note": 67, "velocity": 100, "duration": 181}, {"note": 69, "velocity": 127, "duration": 160}, {"note": 0, "velocity": 0, "duration": 91}, {"note": 67, "velocity": 112, "duration": 70}, {"note": 69, "velocity": 95, "duration": 70}, {"note": 67, "velocity": 102, "duration": 985}, {"note": 74, "velocity": 127, "duration": 156}, {"note": 0, "velocity": 0, "duration": 84}, {"note": 74, "velocity": 117, "duration": 149}, {"note": 0, "velocity": 0, "duration": 91}, {"note": 74, "velocity": 127, "duration": 107}, {"note": 71, "velocity": 107, "duration": 139}, {"note": 74, "velocity": 127, "duration": 199}, {"note": 74, "velocity": 127, "duration": 160}, {"note": 0, "velocity": 0, "duration": 80}, {"note": 74, "velocity": 127, "duration": 184}, {"note": 74, "velocity": 122, "duration": 129}, {"note": 71, "velocity": 99, "duration": 130}, {"note": 0, "velocity": 0, "duration": 230}, {"note": 74, "velocity": 117, "duration": 137}, {"note": 0, "velocity": 0, "duration": 103}, {"note": 74, "velocity": 127, "duration": 153}, {"note": 0, "velocity": 0, "duration": 87}, {"note": 74, "velocity": 107, "duration": 105}, {"note": 71, "velocity": 100, "duration": 120}, {"note": 74, "velocity": 127, "duration": 163}, {"note": 0, "velocity": 0, "duration": 77}, {"note": 74, "velocity": 122, "duration": 138}, {"note": 0, "velocity": 0, "duration": 102}, {"note": 74, "velocity": 127, "duration": 172}, {"note": 0, "velocity": 0, "duration": 68}, {"note": 74, "velocity": 97, "duration": 92}, {"note": 71, "velocity": 112, "duration": 126}, {"note": 0, "velocity": 0, "duration": 234}, {"note": 74, "velocity": 107, "duration": 156}, {"note": 0, "velocity": 0, "duration": 84}, {"note": 74, "velocity": 112, "duration": 132}, {"note": 0, "velocity": 0, "duration": 108}, {"note": 74, "velocity": 112, "duration": 118}, {"note": 71, "velocity": 100, "duration": 117}, {"note": 69, "velocity": 100, "duration": 159}, {"note": 0, "velocity": 0, "duration": 81}, {"note": 71, "velocity": 122, "duration": 161}, {"note": 0, "velocity": 0, "duration": 79}, {"note": 64, "velocity": 117, "duration": 198}, {"note": 69, "velocity": 127, "duration": 213}, {"note": 0, "velocity": 0, "duration": 267}, {"note": 69, "velocity": 127, "duration": 150}, {"note": 0, "velocity": 0, "duration": 90}, {"note": 69, "velocity": 127, "duration": 147}, {"note": 0, "velocity": 0, "duration": 93}, {"note": 67, "velocity": 112, "duration": 175}, {"note": 0, "velocity": 0, "duration": 65}, {"note": 69, "velocity": 127, "duration": 155}, {"note": 0, "velocity": 0, "duration": 85}, {"note": 71, "velocity": 122, "duration": 192}, {"note": 74, "velocity": 127, "duration": 121}, {"note": 0, "velocity": 0, "duration": 119}, {"note": 71, "velocity": 127, "duration": 246}, {"note": 0, "velocity": 0, "duration": 234}, {"note": 74, "velocity": 127, "duration": 151}, {"note": 0, "velocity": 0, "duration": 89}, {"note": 74, "velocity": 122, "duration": 150}, {"note": 0, "velocity": 0, "duration": 90}, {"note": 74, "velocity": 127, "duration": 109}, {"note": 71, "velocity": 107, "duration": 124}, {"note": 74, "velocity": 127, "duration": 189}, {"note": 74, "velocity": 127, "duration": 149}, {"note": 0, "velocity": 0, "duration": 91}, {"note": 74, "velocity": 127, "duration": 193}, {"note": 76, "velocity": 127, "duration": 231}, {"note": 0, "velocity": 0, "duration": 249}, {"note": 74, "velocity": 122, "duration": 142}, {"note": 0, "velocity": 0, "duration": 98}, {"note": 74, "velocity": 127, "duration": 163}, {"note": 0, "velocity": 0, "duration": 77}, {"note": 74, "velocity": 122, "duration": 112}, {"note": 71, "velocity": 96, "duration": 131}, {"note": 74, "velocity": 127, "duration": 156}, {"note": 0, "velocity": 0, "duration": 84}, {"note": 76, "velocity": 102, "duration": 212}, {"note": 78, "velocity": 100, "duration": 191}, {"note": 79, "velocity": 107, "duration": 432}, {"note": 74, "velocity": 102, "duration": 162}, {"note": 0, "velocity": 0, "duration": 78}, {"note": 74, "velocity": 99, "duration": 155}, {"note": 0, "velocity": 0, "duration": 85}, {"note": 74, "velocity": 107, "duration": 111}, {"note": 71, "velocity": 99, "duration": 109}, {"note": 69, "velocity": 107, "duration": 199}, {"note": 71, "velocity": 122, "duration": 146}, {"note": 0, "velocity": 0, "duration": 94}, {"note": 64, "velocity": 102, "duration": 181}, {"note": 69, "velocity": 127, "duration": 256}, {"note": 0, "velocity": 0, "duration": 224}, {"note": 71, "velocity": 127, "duration": 188}, {"note": 70, "velocity": 122, "duration": 235}, {"note": 0, "velocity": 0, "duration": 125}, {"note": 69, "velocity": 127, "duration": 242}, {"note": 0, "velocity": 0, "duration": 118}, {"note": 67, "velocity": 127, "duration": 1207}, {"note": 0, "velocity": 0, "duration": 1673}, {"note": 71, "velocity": 127, "duration": 198}, {"note": 70, "velocity": 127, "duration": 295}, {"note": 0, "velocity": 0, "duration": 65}, {"note": 69, "velocity": 127, "duration": 297}, {"note": 0, "velocity": 0, "duration": 63}, {"note": 67, "velocity": 127, "duration": 1448}, {"note": 0, "velocity": 0, "duration": 1432}, {"note": 77, "velocity": 127, "duration": 186}, {"note": 71, "velocity": 127, "duration": 267}, {"note": 0, "velocity": 0, "duration": 93}, {"note": 69, "velocity": 122, "duration": 181}, {"note": 0, "velocity": 0, "duration": 179}, {"note": 67, "velocity": 127, "duration": 820}, {"note": 0, "velocity": 0, "duration": 4700}, {"note": 74, "velocity": 112, "duration": 237}, {"note": 76, "velocity": 117, "duration": 125}, {"note": 0, "velocity": 0, "duration": 115}, {"note": 78, "velocity": 117, "duration": 129}, {"note": 79, "velocity": 112, "duration": 124}, {"note": 79, "velocity": 112, "duration": 93}, {"note": 0, "velocity": 0, "duration": 67}, {"note": 79, "velocity": 127, "duration": 480}, {"note": 0, "velocity": 0, "duration": 480}, {"note": 68, "velocity": 127, "duration": 113}, {"note": 0, "velocity": 0, "duration": 127}, {"note": 68, "velocity": 127, "duration": 107}, {"note": 0, "velocity": 0, "duration": 133}, {"note": 68, "velocity": 127, "duration": 114}, {"note": 0, "velocity": 0, "duration": 126}, {"note": 68, "velocity": 127, "duration": 198}, {"note": 0, "velocity": 0, "duration": 282}, {"note": 75, "velocity": 127, "duration": 156}, {"note": 0, "velocity": 0, "duration": 84}, {"note": 75, "velocity": 117, "duration": 149}, {"note": 0, "velocity": 0, "duration": 91}, {"note": 75, "velocity": 127, "duration": 107}, {"note": 72, "velocity": 107, "duration": 139}, {"note": 75, "velocity": 127, "duration": 199}, {"note": 75, "velocity": 127, "duration": 160}, {"note": 0, "velocity": 0, "duration": 80}, {"note": 75, "velocity": 127, "duration": 184}, {"note": 75, "velocity": 122, "duration": 129}, {"note": 72, "velocity": 99, "duration": 130}, {"note": 0, "velocity": 0, "duration": 230}, {"note": 75, "velocity": 117, "duration": 137}, {"note": 0, "velocity": 0, "duration": 103}, {"note": 75, "velocity": 127, "duration": 153}, {"note": 0, "velocity": 0, "duration": 87}, {"note": 75, "velocity": 107, "duration": 105}, {"note": 72, "velocity": 100, "duration": 120}, {"note": 75, "velocity": 127, "duration": 163}, {"note": 0, "velocity": 0, "duration": 77}, {"note": 75, "velocity": 122, "duration": 138}, {"note": 0, "velocity": 0, "duration": 102}, {"note": 75, "velocity": 127, "duration": 172}, {"note": 0, "velocity": 0, "duration": 68}, {"note": 75, "velocity": 97, "duration": 92}, {"note": 72, "velocity": 112, "duration": 126}, {"note": 0, "velocity": 0, "duration": 234}, {"note": 75, "velocity": 107, "duration": 156}, {"note": 0, "velocity": 0, "duration": 84}, {"note": 75, "velocity": 112, "duration": 132}, {"note": 0, "velocity": 0, "duration": 108}, {"note": 75, "velocity": 112, "duration": 118}, {"note": 72, "velocity": 100, "duration": 117}, {"note": 70, "velocity": 100, "duration": 159}, {"note": 0, "velocity": 0, "duration": 81}, {"note": 72, "velocity": 122, "duration": 161}, {"note": 0, "velocity": 0, "duration": 79}, {"note": 65, "velocity": 117, "duration": 198}, {"note": 70, "velocity": 127, "duration": 213}, {"note": 0, "velocity": 0, "duration": 267}, {"note": 70, "velocity": 127, "duration": 150}, {"note": 0, "velocity": 0, "duration": 90}, {"note": 70, "velocity": 127, "duration": 147}, {"note": 0, "velocity": 0, "duration": 93}, {"note": 68, "velocity": 112, "duration": 175}, {"note": 0, "velocity": 0, "duration": 65}, {"note": 70, "velocity": 127, "duration": 155}, {"note": 0, "velocity": 0, "duration": 85}, {"note": 72, "velocity": 122, "duration": 192}, {"note": 75, "velocity": 127, "duration": 121}, {"note": 0, "velocity": 0, "duration": 119}, {"note": 72, "velocity": 127, "duration": 246}, {"note": 0, "velocity": 0, "duration": 234}, {"note": 75, "velocity": 127, "duration": 151}, {"note": 0, "velocity": 0, "duration": 89}, {"note": 75, "velocity": 122, "duration": 150}, {"note": 0, "velocity": 0, "duration": 90}, {"note": 75, "velocity": 127, "duration": 109}, {"note": 72, "velocity": 107, "duration": 124}, {"note": 75, "velocity": 127, "duration": 189}, {"note": 75, "velocity": 127, "duration": 149}, {"note": 0, "velocity": 0, "duration": 91}, {"note": 75, "velocity": 127, "duration": 193}, {"note": 77, "velocity": 127, "duration": 231}, {"note": 0, "velocity": 0, "duration": 249}, {"note": 80, "velocity": 127, "duration": 151}, {"note": 0, "velocity": 0, "duration": 89}, {"note": 80, "velocity": 127, "duration": 147}, {"note": 0, "velocity": 0, "duration": 93}, {"note": 76, "velocity": 122, "duration": 197}, {"note": 75, "velocity": 127, "duration": 157}, {"note": 0, "velocity": 0, "duration": 83}, {"note": 77, "velocity": 107, "duration": 177}, {"note": 0, "velocity": 0, "duration": 63}, {"note": 79, "velocity": 117, "duration": 151}, {"note": 0, "velocity": 0, "duration": 89}, {"note": 80, "velocity": 127, "duration": 2109}, {"note": 0, "velocity": 0, "duration": 291}, {"note": 75, "velocity": 127, "duration": 167}, {"note": 0, "velocity": 0, "duration": 73}, {"note": 75, "velocity": 122, "duration": 146}, {"note": 0, "velocity": 0, "duration": 94}, {"note": 75, "velocity": 127, "duration": 123}, {"note": 72, "velocity": 92, "duration": 121}, {"note": 70, "velocity": 112, "duration": 240}, {"note": 72, "velocity": 102, "duration": 207}, {"note": 65, "velocity": 93, "duration": 245}, {"note": 70, "velocity": 97, "duration": 447}, {"note": 72, "velocity": 112, "duration": 193}, {"note": 71, "velocity": 97, "duration": 295}, {"note": 0, "velocity": 0, "duration": 65}, {"note": 70, "velocity": 112, "duration": 331}, {"note": 68, "velocity": 99, "duration": 1426}]]