[[{"note": 58, "velocity": 89, "duration": 477}, {"note": 58, "velocity": 102, "duration": 209}, {"note": 65, "velocity": 83, "duration": 237}, {"note": 63, "velocity": 97, "duration": 390}, {"note": 0, "velocity": 0, "duration": 90}, {"note": 61, "velocity": 102, "duration": 183}, {"note": 60, "velocity": 72, "duration": 225}, {"note": 58, "velocity": 92, "duration": 239}, {"note": 61, "velocity": 90, "duration": 216}, {"note": 60, "velocity": 89, "duration": 232}, {"note": 56, "velocity": 90, "duration": 257}, {"note": 53, "velocity": 82, "duration": 318}, {"note": 0, "velocity": 0, "duration": 162}, {"note": 53, "velocity": 95, "duration": 211}, {"note": 56, "velocity": 89, "duration": 212}, {"note": 58, "velocity": 99, "duration": 541}, {"note": 0, "velocity": 0, "duration": 179}, {"note": 61, "velocity": 100, "duration": 183}, {"note": 63, "velocity": 90, "duration": 214}, {"note": 65, "velocity": 79, "duration": 115}, {"note": 63, "velocity": 97, "duration": 118}, {"note": 61, "velocity": 82, "duration": 224}, {"note": 63, "velocity": 95, "duration": 227}, {"note": 65, "velocity": 96, "duration": 781}, {"note": 65, "velocity": 100, "duration": 61}, {"note": 63, "velocity": 92, "duration": 70}, {"note": 63, "velocity": 99, "duration": 435}, {"note": 0, "velocity": 0, "duration": 525}, {"note": 58, "velocity": 89, "duration": 477}, {"note": 58, "velocity": 102, "duration": 209}, {"note": 65, "velocity": 83, "duration": 237}, {"note": 63, "velocity": 97, "duration": 390}, {"note": 0, "velocity": 0, "duration": 90}, {"note": 61, "velocity": 102, "duration": 183}, {"note": 60, "velocity": 72, "duration": 225}, {"note": 58, "velocity": 92, "duration": 239}, {"note": 61, "velocity": 90, "duration": 216}, {"note": 63, "velocity": 99, "duration": 205}, {"note": 60, "velocity": 107, "duration": 202}, {"note": 56, "velocity": 92, "duration": 446}, {"note": 53, "velocity": 96, "duration": 185}, {"note": 56, "velocity": 97, "duration": 176}, {"note": 0, "velocity": 0, "duration": 64}, {"note": 58, "velocity": 93, "duration": 378}, {"note": 0, "velocity": 0, "duration": 342}, {"note": 61, "velocity": 117, "duration": 206}, {"note": 60, "velocity": 122, "duration": 204}, {"note": 61, "velocity": 112, "duration": 87}, {"note": 60, "velocity": 93, "duration": 124}, {"note": 58, "velocity": 96, "duration": 185}, {"note": 56, "velocity": 107, "duration": 238}, {"note": 58, "velocity": 99, "duration": 1058}, {"note": 0, "velocity": 0, "duration": 142}, {"note": 58, "velocity": 107, "duration": 198}, {"note": 61, "velocity": 102, "duration": 144}, {"note": 0, "velocity": 0, "duration": 96}, {"note": 65, "velocity": 100, "duration": 187}, {"note": 66, "velocity": 122, "duration": 468}, {"note": 0, "velocity": 0, "duration": 252}, {"note": 63, "velocity": 112, "duration": 86}, {"note": 65, "velocity": 89, "duration": 87}, {"note": 66, "velocity": 127, "duration": 123}, {"note": 0, "velocity": 0, "duration": 117}, {"note": 70, "velocity": 127, "duration": 176}, {"note": 0, "velocity": 0, "duration": 64}, {"note": 68, "velocity": 127, "duration": 136}, {"note": 0, "velocity": 0, "duration": 104}, {"note": 66, "velocity": 127, "duration": 142}, {"note": 0, "velocity": 0, "duration": 98}, {"note": 65, "velocity": 127, "duration": 343}, {"note": 0, "velocity": 0, "duration": 377}, {"note": 61, "velocity": 127, "duration": 87}, {"note": 63, "velocity": 112, "duration": 91}, {"note": 63, "velocity": 53, "duration": 22}, {"note": 65, "velocity": 97, "duration": 146}, {"note": 0, "velocity": 0, "duration": 94}, {"note": 68, "velocity": 127, "duration": 237}, {"note": 66, "velocity": 117, "duration": 206}, {"note": 65, "velocity": 117, "duration": 214}, {"note": 63, "velocity": 117, "duration": 424}, {"note": 0, "velocity": 0, "duration": 296}, {"note": 59, "velocity": 92, "duration": 72}, {"note": 61, "velocity": 107, "duration": 82}, {"note": 63, "velocity": 102, "duration": 214}, {"note": 66, "velocity": 117, "duration": 150}, {"note": 0, "velocity": 0, "duration": 90}, {"note": 65, "velocity": 117, "duration": 153}, {"note": 0, "velocity": 0, "duration": 87}, {"note": 63, "velocity": 122, "duration": 118}, {"note": 0, "velocity": 0, "duration": 122}, {"note": 63, "velocity": 127, "duration": 107}, {"note": 65, "velocity": 107, "duration": 909}, {"note": 0, "velocity": 0, "duration": 411}, {"note": 65, "velocity": 107, "duration": 216}, {"note": 68, "velocity": 127, "duration": 199}, {"note": 70, "velocity": 127, "duration": 338}, {"note": 65, "velocity": 89, "duration": 63}, {"note": 65, "velocity": 99, "duration": 116}, {"note": 0, "velocity": 0, "duration": 124}, {"note": 68, "velocity": 122, "duration": 306}, {"note": 63, "velocity": 117, "duration": 364}, {"note": 0, "velocity": 0, "duration": 116}, {"note": 63, "velocity": 122, "duration": 186}, {"note": 65, "velocity": 100, "duration": 160}, {"note": 0, "velocity": 0, "duration": 80}, {"note": 68, "velocity": 122, "duration": 189}, {"note": 63, "velocity": 107, "duration": 65}, {"note": 63, "velocity": 93, "duration": 162}, {"note": 0, "velocity": 0, "duration": 78}, {"note": 65, "velocity": 99, "duration": 277}, {"note": 0, "velocity": 0, "duration": 83}, {"note": 58, "velocity": 100, "duration": 422}, {"note": 65, "velocity": 112, "duration": 207}, {"note": 68, "velocity": 117, "duration": 172}, {"note": 0, "velocity": 0, "duration": 68}, {"note": 70, "velocity": 127, "duration": 227}, {"note": 65, "velocity": 107, "duration": 54}, {"note": 0, "velocity": 0, "duration": 66}, {"note": 65, "velocity": 93, "duration": 132}, {"note": 0, "velocity": 0, "duration": 108}, {"note": 73, "velocity": 127, "duration": 294}, {"note": 0, "velocity": 0, "duration": 66}, {"note": 72, "velocity": 127, "duration": 243}, {"note": 68, "velocity": 122, "duration": 192}, {"note": 63, "velocity": 127, "duration": 179}, {"note": 0, "velocity": 0, "duration": 61}, {"note": 60, "velocity": 107, "duration": 170}, {"note": 0, "velocity": 0, "duration": 70}, {"note": 63, "velocity": 127, "duration": 187}, {"note": 61, "velocity": 102, "duration": 54}, {"note": 0, "velocity": 0, "duration": 66}, {"note": 61, "velocity": 122, "duration": 286}, {"note": 65, "velocity": 122, "duration": 111}, {"note": 0, "velocity": 0, "duration": 129}, {"note": 65, "velocity": 127, "duration": 275}, {"note": 0, "velocity": 0, "duration": 325}, {"note": 65, "velocity": 107, "duration": 216}, {"note": 68, "velocity": 127, "duration": 199}, {"note": 70, "velocity": 127, "duration": 338}, {"note": 65, "velocity": 89, "duration": 63}, {"note": 65, "velocity": 99, "duration": 116}, {"note": 0, "velocity": 0, "duration": 124}, {"note": 68, "velocity": 122, "duration": 306}, {"note": 63, "velocity": 117, "duration": 364}, {"note": 0, "velocity": 0, "duration": 116}, {"note": 63, "velocity": 122, "duration": 186}, {"note": 65, "velocity": 100, "duration": 160}, {"note": 0, "velocity": 0, "duration": 80}, {"note": 68, "velocity": 122, "duration": 189}, {"note": 72, "velocity": 117, "duration": 59}, {"note": 0, "velocity": 0, "duration": 61}, {"note": 72, "velocity": 97, "duration": 139}, {"note": 0, "velocity": 0, "duration": 101}, {"note": 73, "velocity": 127, "duration": 367}, {"note": 70, "velocity": 117, "duration": 303}, {"note": 0, "velocity": 0, "duration": 177}, {"note": 70, "velocity": 127, "duration": 141}, {"note": 0, "velocity": 0, "duration": 99}, {"note": 68, "velocity": 127, "duration": 129}, {"note": 0, "velocity": 0, "duration": 111}, {"note": 66, "velocity": 127, "duration": 155}, {"note": 0, "velocity": 0, "duration": 85}, {"note": 68, "velocity": 127, "duration": 76}, {"note": 70, "velocity": 127, "duration": 133}, {"note": 0, "velocity": 0, "duration": 227}, {"note": 73, "velocity": 127, "duration": 171}, {"note": 0, "velocity": 0, "duration": 69}, {"note": 73, "velocity": 127, "duration": 287}, {"note": 72, "velocity": 107, "duration": 162}, {"note": 0, "velocity": 0, "duration": 78}, {"note": 72, "velocity": 112, "duration": 288}, {"note": 0, "velocity": 0, "duration": 72}, {"note": 70, "velocity": 117, "duration": 1466}, {"note": 0, "velocity": 0, "duration": 23614}, {"note": 58, "velocity": 89, "duration": 477}, {"note": 58, "velocity": 102, "duration": 209}, {"note": 65, "velocity": 83, "duration": 237}, {"note": 63, "velocity": 97, "duration": 390}, {"note": 0, "velocity": 0, "duration": 90}, {"note": 61, "velocity": 102, "duration": 183}, {"note": 60, "velocity": 72, "duration": 225}, {"note": 58, "velocity": 92, "duration": 239}, {"note": 61, "velocity": 90, "duration": 216}, {"note": 63, "velocity": 99, "duration": 205}, {"note": 60, "velocity": 107, "duration": 202}, {"note": 56, "velocity": 92, "duration": 446}, {"note": 53, "velocity": 96, "duration": 185}, {"note": 56, "velocity": 97, "duration": 176}, {"note": 0, "velocity": 0, "duration": 64}, {"note": 58, "velocity": 93, "duration": 378}, {"note": 0, "velocity": 0, "duration": 342}, {"note": 61, "velocity": 117, "duration": 206}, {"note": 60, "velocity": 122, "duration": 204}, {"note": 61, "velocity": 112, "duration": 87}, {"note": 60, "velocity": 93, "duration": 124}, {"note": 58, "velocity": 96, "duration": 185}, {"note": 56, "velocity": 107, "duration": 238}, {"note": 58, "velocity": 99, "duration": 1058}, {"note": 0, "velocity": 0, "duration": 142}, {"note": 58, "velocity": 107, "duration": 198}, {"note": 61, "velocity": 102, "duration": 144}, {"note": 0, "velocity": 0, "duration": 96}, {"note": 65, "velocity": 100, "duration": 187}, {"note": 66, "velocity": 122, "duration": 468}, {"note": 0, "velocity": 0, "duration": 252}, {"note": 63, "velocity": 112, "duration": 86}, {"note": 65, "velocity": 89, "duration": 87}, {"note": 66, "velocity": 127, "duration": 123}, {"note": 0, "velocity": 0, "duration": 117}, {"note": 70, "velocity": 127, "duration": 176}, {"note": 0, "velocity": 0, "duration": 64}, {"note": 68, "velocity": 127, "duration": 136}, {"note": 0, "velocity": 0, "duration": 104}, {"note": 66, "velocity": 127, "duration": 142}, {"note": 0, "velocity": 0, "duration": 98}, {"note": 65, "velocity": 127, "duration": 343}, {"note": 0, "velocity": 0, "duration": 377}, {"note": 61, "velocity": 127, "duration": 87}, {"note": 63, "velocity": 112, "duration": 91}, {"note": 63, "velocity": 53, "duration": 22}, {"note": 65, "velocity": 97, "duration": 146}, {"note": 0, "velocity": 0, "duration": 94}, {"note": 68, "velocity": 127, "duration": 237}, {"note": 66, "velocity": 117, "duration": 206}, {"note": 65, "velocity": 117, "duration": 214}, {"note": 63, "velocity": 117, "duration": 424}, {"note": 0, "velocity": 0, "duration": 296}, {"note": 59, "velocity": 92, "duration": 72}, {"note": 61, "velocity": 107, "duration": 82}, {"note": 63, "velocity": 102, "duration": 214}, {"note": 66, "velocity": 117, "duration": 150}, {"note": 0, "velocity": 0, "duration": 90}, {"note": 65, "velocity": 117, "duration": 153}, {"note": 0, "velocity": 0, "duration": 87}, {"note": 63, "velocity": 122, "duration": 118}, {"note": 0, "velocity": 0, "duration": 122}, {"note": 63, "velocity": 127, "duration": 107}, {"note": 65, "velocity": 107, "duration": 909}, {"note": 0, "velocity": 0, "duration": 411}, {"note": 65, "velocity": 107, "duration": 216}, {"note": 68, "velocity": 127, "duration": 199}, {"note": 70, "velocity": 127, "duration": 338}, {"note": 65, "velocity": 89, "duration": 63}, {"note": 65, "velocity": 99, "duration": 116}, {"note": 0, "velocity": 0, "duration": 124}, {"note": 68, "velocity": 122, "duration": 306}, {"note": 63, "velocity": 117, "duration": 364}, {"note": 0, "velocity": 0, "duration": 116}, {"note": 63, "velocity": 122, "duration": 186}, {"note": 65, "velocity": 100, "duration": 160}, {"note": 0, "velocity": 0, "duration": 80}, {"note": 68, "velocity": 122, "duration": 189}, {"note": 63, "velocity": 107, "duration": 65}, {"note": 63, "velocity": 93, "duration": 162}, {"note": 0, "velocity": 0, "duration": 78}, {"note": 65, "velocity": 99, "duration": 277}, {"note": 0, "velocity": 0, "duration": 83}, {"note": 58, "velocity": 100, "duration": 422}, {"note": 65, "velocity": 112, "duration": 207}, {"note": 68, "velocity": 117, "duration": 172}, {"note": 0, "velocity": 0, "duration": 68}, {"note": 70, "velocity": 127, "duration": 227}, {"note": 65, "velocity": 107, "duration": 54}, {"note": 0, "velocity": 0, "duration": 66}, {"note": 65, "velocity": 93, "duration": 132}, {"note": 0, "velocity": 0, "duration": 108}, {"note": 73, "velocity": 127, "duration": 294}, {"note": 0, "velocity": 0, "duration": 66}, {"note": 72, "velocity": 127, "duration": 243}, {"note": 68, "velocity": 122, "duration": 192}, {"note": 63, "velocity": 127, "duration": 179}, {"note": 0, "velocity": 0, "duration": 61}, {"note": 60, "velocity": 107, "duration": 170}, {"note": 0, "velocity": 0, "duration": 70}, {"note": 63, "velocity": 127, "duration": 187}, {"note": 61, "velocity": 102, "duration": 54}, {"note": 0, "velocity": 0, "duration": 66}, {"note": 61, "velocity": 122, "duration": 286}, {"note": 65, "velocity": 122, "duration": 111}, {"note": 0, "velocity": 0, "duration": 129}, {"note": 65, "velocity": 127, "duration": 275}, {"note": 0, "velocity": 0, "duration": 325}, {"note": 65, "velocity": 107, "duration": 216}, {"note": 68, "velocity": 127, "duration": 199}, {"note": 70, "velocity": 127, "duration": 338}, {"note": 65, "velocity": 89, "duration": 63}, {"note": 65, "velocity": 99, "duration": 116}, {"note": 0, "velocity": 0, "duration": 124}, {"note": 68, "velocity": 122, "duration": 306}, {"note": 63, "velocity": 117, "duration": 364}, {"note": 0, "velocity": 0, "duration": 116}, {"note": 63, "velocity": 122, "duration": 186}, {"note": 65, "velocity": 100, "duration": 160}, {"note": 0, "velocity": 0, "duration": 80}, {"note": 68, "velocity": 122, "duration": 189}, {"note": 72, "velocity": 117, "duration": 59}, {"note": 0, "velocity": 0, "duration": 61}, {"note": 72, "velocity": 97, "duration": 139}, {"note": 0, "velocity": 0, "duration": 101}, {"note": 73, "velocity": 127, "duration": 367}, {"note": 70, "velocity": 117, "duration": 303}, {"note": 0, "velocity": 0, "duration": 177}, {"note": 70, "velocity": 127, "duration": 141}, {"note": 0, "velocity": 0, "duration": 99}, {"note": 68, "velocity": 127, "duration": 129}, {"note": 0, "velocity": 0, "duration": 111}, {"note": 66, "velocity": 127, "duration": 155}, {"note": 0, "velocity": 0, "duration": 85}, {"note": 68, "velocity": 127, "duration": 76}, {"note": 70, "velocity": 127, "duration": 133}, {"note": 0, "velocity": 0, "duration": 227}, {"note": 73, "velocity": 127, "duration": 171}, {"note": 0, "velocity": 0, "duration": 69}, {"note": 73, "velocity": 127, "duration": 287}, {"note": 72, "velocity": 107, "duration": 162}, {"note": 0, "velocity": 0, "duration": 78}, {"note": 72, "velocity": 112, "duration": 288}, {"note": 0, "velocity": 0, "duration": 72}, {"note": 70, "velocity": 117, "duration": 1466}, {"note": 0, "velocity": 0, "duration": 94}, {"note": 65, "velocity": 112, "duration": 155}, {"note": 0, "velocity": 0, "duration": 85}, {"note": 65, "velocity": 100, "duration": 96}, {"note": 0, "velocity": 0, "duration": 144}, {"note": 68, "velocity": 127, "duration": 163}, {"note": 0, "velocity": 0, "duration": 77}, {"note": 66, "velocity": 102, "duration": 59}, {"note": 0, "velocity": 0, "duration": 61}, {"note": 66, "velocity": 107, "duration": 150}, {"note": 0, "velocity": 0, "duration": 90}, {"note": 65, "velocity": 112, "duration": 222}, {"note": 65, "velocity": 112, "duration": 103}, {"note": 0, "velocity": 0, "duration": 257}, {"note": 56, "velocity": 117, "duration": 249}, {"note": 61, "velocity": 112, "duration": 228}, {"note": 68, "velocity": 102, "duration": 192}, {"note": 68, "velocity": 127, "duration": 239}, {"note": 66, "velocity": 127, "duration": 62}, {"note": 66, "velocity": 127, "duration": 144}, {"note": 0, "velocity": 0, "duration": 96}, {"note": 65, "velocity": 127, "duration": 113}, {"note": 0, "velocity": 0, "duration": 127}, {"note": 61, "velocity": 127, "duration": 291}, {"note": 0, "velocity": 0, "duration": 549}, {"note": 66, "velocity": 127, "duration": 145}, {"note": 0, "velocity": 0, "duration": 95}, {"note": 66, "velocity": 127, "duration": 175}, {"note": 0, "velocity": 0, "duration": 65}, {"note": 64, "velocity": 127, "duration": 59}, {"note": 0, "velocity": 0, "duration": 61}, {"note": 64, "velocity": 122, "duration": 113}, {"note": 0, "velocity": 0, "duration": 247}, {"note": 63, "velocity": 127, "duration": 153}, {"note": 0, "velocity": 0, "duration": 87}, {"note": 63, "velocity": 127, "duration": 154}, {"note": 0, "velocity": 0, "duration": 86}, {"note": 61, "velocity": 127, "duration": 146}, {"note": 0, "velocity": 0, "duration": 94}, {"note": 61, "velocity": 127, "duration": 141}, {"note": 0, "velocity": 0, "duration": 99}, {"note": 63, "velocity": 117, "duration": 135}, {"note": 0, "velocity": 0, "duration": 105}, {"note": 63, "velocity": 122, "duration": 133}, {"note": 61, "velocity": 112, "duration": 146}, {"note": 63, "velocity": 122, "duration": 764}, {"note": 0, "velocity": 0, "duration": 436}, {"note": 61, "velocity": 127, "duration": 84}, {"note": 63, "velocity": 122, "duration": 116}, {"note": 0, "velocity": 0, "duration": 124}, {"note": 65, "velocity": 127, "duration": 174}, {"note": 0, "velocity": 0, "duration": 66}, {"note": 63, "velocity": 127, "duration": 83}, {"note": 65, "velocity": 112, "duration": 938}, {"note": 0, "velocity": 0, "duration": 262}, {"note": 65, "velocity": 107, "duration": 216}, {"note": 68, "velocity": 127, "duration": 199}, {"note": 70, "velocity": 127, "duration": 338}, {"note": 65, "velocity": 89, "duration": 63}, {"note": 65, "velocity": 99, "duration": 116}, {"note": 0, "velocity": 0, "duration": 124}, {"note": 68, "velocity": 122, "duration": 306}, {"note": 63, "velocity": 117, "duration": 364}, {"note": 0, "velocity": 0, "duration": 116}, {"note": 63, "velocity": 122, "duration": 186}, {"note": 65, "velocity": 100, "duration": 160}, {"note": 0, "velocity": 0, "duration": 80}, {"note": 68, "velocity": 122, "duration": 189}, {"note": 63, "velocity": 107, "duration": 65}, {"note": 63, "velocity": 93, "duration": 162}, {"note": 0, "velocity": 0, "duration": 78}, {"note": 65, "velocity": 99, "duration": 277}, {"note": 0, "velocity": 0, "duration": 83}, {"note": 58, "velocity": 100, "duration": 422}, {"note": 65, "velocity": 112, "duration": 207}, {"note": 68, "velocity": 117, "duration": 172}, {"note": 0, "velocity": 0, "duration": 68}, {"note": 70, "velocity": 127, "duration": 227}, {"note": 65, "velocity": 107, "duration": 54}, {"note": 0, "velocity": 0, "duration": 66}, {"note": 65, "velocity": 93, "duration": 132}, {"note": 0, "velocity": 0, "duration": 108}, {"note": 73, "velocity": 127, "duration": 294}, {"note": 0, "velocity": 0, "duration": 66}, {"note": 72, "velocity": 127, "duration": 243}, {"note": 68, "velocity": 122, "duration": 192}, {"note": 63, "velocity": 127, "duration": 179}, {"note": 0, "velocity": 0, "duration": 61}, {"note": 60, "velocity": 107, "duration": 170}, {"note": 0, "velocity": 0, "duration": 70}, {"note": 63, "velocity": 127, "duration": 187}, {"note": 61, "velocity": 102, "duration": 54}, {"note": 0, "velocity": 0, "duration": 66}, {"note": 61, "velocity": 122, "duration": 286}, {"note": 65, "velocity": 122, "duration": 111}, {"note": 0, "velocity": 0, "duration": 129}, {"note": 65, "velocity": 127, "duration": 275}, {"note": 0, "velocity": 0, "duration": 325}, {"note": 65, "velocity": 107, "duration": 216}, {"note": 68, "velocity": 127, "duration": 199}, {"note": 70, "velocity": 127, "duration": 338}, {"note": 65, "velocity": 89, "duration": 63}, {"note": 65, "velocity": 99, "duration": 116}, {"note": 0, "velocity": 0, "duration": 124}, {"note": 68, "velocity": 122, "duration": 306}, {"note": 63, "velocity": 117, "duration": 364}, {"note": 0, "velocity": 0, "duration": 116}, {"note": 63, "velocity": 122, "duration": 186}, {"note": 65, "velocity": 100, "duration": 160}, {"note": 0, "velocity": 0, "duration": 80}, {"note": 68, "velocity": 122, "duration": 189}, {"note": 72, "velocity": 117, "duration": 59}, {"note": 0, "velocity": 0, "duration": 61}, {"note": 72, "velocity": 97, "duration": 139}, {"note": 0, "velocity": 0, "duration": 101}, {"note": 73, "velocity": 127, "duration": 367}, {"note": 70, "velocity": 117, "duration": 303}, {"note": 0, "velocity": 0, "duration": 177}, {"note": 70, "velocity": 127, "duration": 141}, {"note": 0, "velocity": 0, "duration": 99}, {"note": 68, "velocity": 127, "duration": 129}, {"note": 0, "velocity": 0, "duration": 111}, {"note": 66, "velocity": 127, "duration": 155}, {"note": 0, "velocity": 0, "duration": 85}, {"note": 68, "velocity": 127, "duration": 76}, {"note": 70, "velocity": 127, "duration": 133}, {"note": 0, "velocity": 0, "duration": 227}, {"note": 73, "velocity": 127, "duration": 171}, {"note": 0, "velocity": 0, "duration": 69}, {"note": 73, "velocity": 127, "duration": 287}, {"note": 72, "velocity": 107, "duration": 162}, {"note": 0, "velocity": 0, "duration": 78}, {"note": 72, "velocity": 112, "duration": 288}, {"note": 0, "velocity": 0, "duration": 72}, {"note": 70, "velocity": 117, "duration": 1080}]]