[[{"note": 68, "velocity": 97, "duration": 70}, {"note": 71, "velocity": 75, "duration": 86}, {"note": 73, "velocity": 97, "duration": 186}, {"note": 71, "velocity": 81, "duration": 71}, {"note": 68, "velocity": 77, "duration": 53}, {"note": 0, "velocity": 0, "duration": 67}, {"note": 68, "velocity": 96, "duration": 150}, {"note": 0, "velocity": 0, "duration": 90}, {"note": 71, "velocity": 82, "duration": 73}, {"note": 73, "velocity": 96, "duration": 511}, {"note": 0, "velocity": 0, "duration": 209}, {"note": 73, "velocity": 102, "duration": 70}, {"note": 73, "velocity": 122, "duration": 69}, {"note": 75, "velocity": 122, "duration": 60}, {"note": 76, "velocity": 127, "duration": 198}, {"note": 75, "velocity": 127, "duration": 69}, {"note": 73, "velocity": 107, "duration": 64}, {"note": 75, "velocity": 112, "duration": 160}, {"note": 0, "velocity": 0, "duration": 80}, {"note": 71, "velocity": 117, "duration": 163}, {"note": 0, "velocity": 0, "duration": 77}, {"note": 68, "velocity": 112, "duration": 735}, {"note": 0, "velocity": 0, "duration": 105}, {"note": 68, "velocity": 100, "duration": 77}, {"note": 73, "velocity": 127, "duration": 102}, {"note": 73, "velocity": 117, "duration": 84}, {"note": 0, "velocity": 0, "duration": 156}, {"note": 73, "velocity": 127, "duration": 52}, {"note": 0, "velocity": 0, "duration": 68}, {"note": 73, "velocity": 122, "duration": 95}, {"note": 73, "velocity": 107, "duration": 209}, {"note": 0, "velocity": 0, "duration": 151}, {"note": 71, "velocity": 102, "duration": 66}, {"note": 71, "velocity": 107, "duration": 81}, {"note": 0, "velocity": 0, "duration": 159}, {"note": 71, "velocity": 95, "duration": 68}, {"note": 73, "velocity": 112, "duration": 183}, {"note": 71, "velocity": 112, "duration": 172}, {"note": 0, "velocity": 0, "duration": 68}, {"note": 68, "velocity": 112, "duration": 585}, {"note": 0, "velocity": 0, "duration": 1095}, {"note": 68, "velocity": 102, "duration": 64}, {"note": 71, "velocity": 93, "duration": 68}, {"note": 73, "velocity": 100, "duration": 166}, {"note": 0, "velocity": 0, "duration": 74}, {"note": 71, "velocity": 92, "duration": 72}, {"note": 68, "velocity": 97, "duration": 58}, {"note": 0, "velocity": 0, "duration": 62}, {"note": 68, "velocity": 100, "duration": 159}, {"note": 0, "velocity": 0, "duration": 81}, {"note": 71, "velocity": 95, "duration": 73}, {"note": 73, "velocity": 102, "duration": 405}, {"note": 0, "velocity": 0, "duration": 315}, {"note": 73, "velocity": 112, "duration": 56}, {"note": 0, "velocity": 0, "duration": 64}, {"note": 73, "velocity": 100, "duration": 60}, {"note": 75, "velocity": 112, "duration": 58}, {"note": 0, "velocity": 0, "duration": 62}, {"note": 76, "velocity": 89, "duration": 147}, {"note": 0, "velocity": 0, "duration": 93}, {"note": 75, "velocity": 122, "duration": 87}, {"note": 73, "velocity": 102, "duration": 67}, {"note": 75, "velocity": 112, "duration": 113}, {"note": 0, "velocity": 0, "duration": 127}, {"note": 71, "velocity": 122, "duration": 182}, {"note": 68, "velocity": 102, "duration": 476}, {"note": 0, "velocity": 0, "duration": 244}, {"note": 68, "velocity": 112, "duration": 74}, {"note": 66, "velocity": 86, "duration": 72}, {"note": 68, "velocity": 100, "duration": 184}, {"note": 61, "velocity": 107, "duration": 110}, {"note": 64, "velocity": 93, "duration": 173}, {"note": 0, "velocity": 0, "duration": 67}, {"note": 64, "velocity": 76, "duration": 56}, {"note": 0, "velocity": 0, "duration": 64}, {"note": 64, "velocity": 71, "duration": 66}, {"note": 66, "velocity": 75, "duration": 65}, {"note": 68, "velocity": 102, "duration": 148}, {"note": 0, "velocity": 0, "duration": 92}, {"note": 73, "velocity": 117, "duration": 67}, {"note": 68, "velocity": 100, "duration": 110}, {"note": 0, "velocity": 0, "duration": 130}, {"note": 66, "velocity": 96, "duration": 258}, {"note": 0, "velocity": 0, "duration": 102}, {"note": 64, "velocity": 93, "duration": 158}, {"note": 0, "velocity": 0, "duration": 82}, {"note": 64, "velocity": 97, "duration": 154}, {"note": 0, "velocity": 0, "duration": 86}, {"note": 63, "velocity": 93, "duration": 147}, {"note": 0, "velocity": 0, "duration": 93}, {"note": 64, "velocity": 99, "duration": 109}, {"note": 63, "velocity": 99, "duration": 122}, {"note": 61, "velocity": 92, "duration": 475}, {"note": 0, "velocity": 0, "duration": 1205}, {"note": 68, "velocity": 97, "duration": 70}, {"note": 71, "velocity": 75, "duration": 86}, {"note": 73, "velocity": 97, "duration": 186}, {"note": 71, "velocity": 81, "duration": 71}, {"note": 68, "velocity": 77, "duration": 53}, {"note": 0, "velocity": 0, "duration": 67}, {"note": 68, "velocity": 96, "duration": 150}, {"note": 0, "velocity": 0, "duration": 90}, {"note": 71, "velocity": 82, "duration": 73}, {"note": 73, "velocity": 96, "duration": 511}, {"note": 0, "velocity": 0, "duration": 209}, {"note": 73, "velocity": 102, "duration": 70}, {"note": 73, "velocity": 122, "duration": 69}, {"note": 75, "velocity": 122, "duration": 60}, {"note": 76, "velocity": 127, "duration": 198}, {"note": 75, "velocity": 127, "duration": 69}, {"note": 73, "velocity": 107, "duration": 64}, {"note": 75, "velocity": 112, "duration": 160}, {"note": 0, "velocity": 0, "duration": 80}, {"note": 71, "velocity": 117, "duration": 163}, {"note": 0, "velocity": 0, "duration": 77}, {"note": 68, "velocity": 112, "duration": 735}, {"note": 0, "velocity": 0, "duration": 105}, {"note": 68, "velocity": 100, "duration": 77}, {"note": 73, "velocity": 127, "duration": 102}, {"note": 73, "velocity": 117, "duration": 84}, {"note": 0, "velocity": 0, "duration": 156}, {"note": 73, "velocity": 127, "duration": 52}, {"note": 0, "velocity": 0, "duration": 68}, {"note": 73, "velocity": 122, "duration": 95}, {"note": 73, "velocity": 107, "duration": 209}, {"note": 0, "velocity": 0, "duration": 151}, {"note": 71, "velocity": 102, "duration": 66}, {"note": 71, "velocity": 107, "duration": 81}, {"note": 0, "velocity": 0, "duration": 159}, {"note": 71, "velocity": 95, "duration": 68}, {"note": 73, "velocity": 112, "duration": 183}, {"note": 71, "velocity": 112, "duration": 172}, {"note": 0, "velocity": 0, "duration": 68}, {"note": 68, "velocity": 112, "duration": 585}, {"note": 0, "velocity": 0, "duration": 1095}, {"note": 68, "velocity": 102, "duration": 64}, {"note": 71, "velocity": 93, "duration": 68}, {"note": 73, "velocity": 100, "duration": 166}, {"note": 0, "velocity": 0, "duration": 74}, {"note": 71, "velocity": 92, "duration": 72}, {"note": 68, "velocity": 97, "duration": 58}, {"note": 0, "velocity": 0, "duration": 62}, {"note": 68, "velocity": 100, "duration": 159}, {"note": 0, "velocity": 0, "duration": 81}, {"note": 71, "velocity": 95, "duration": 73}, {"note": 73, "velocity": 102, "duration": 405}, {"note": 0, "velocity": 0, "duration": 315}, {"note": 73, "velocity": 112, "duration": 56}, {"note": 0, "velocity": 0, "duration": 64}, {"note": 73, "velocity": 100, "duration": 60}, {"note": 75, "velocity": 112, "duration": 58}, {"note": 0, "velocity": 0, "duration": 62}, {"note": 76, "velocity": 89, "duration": 147}, {"note": 0, "velocity": 0, "duration": 93}, {"note": 75, "velocity": 122, "duration": 87}, {"note": 73, "velocity": 102, "duration": 67}, {"note": 75, "velocity": 112, "duration": 113}, {"note": 0, "velocity": 0, "duration": 127}, {"note": 71, "velocity": 122, "duration": 182}, {"note": 68, "velocity": 102, "duration": 476}, {"note": 0, "velocity": 0, "duration": 244}, {"note": 68, "velocity": 112, "duration": 74}, {"note": 66, "velocity": 86, "duration": 72}, {"note": 68, "velocity": 100, "duration": 184}, {"note": 61, "velocity": 107, "duration": 110}, {"note": 64, "velocity": 93, "duration": 173}, {"note": 0, "velocity": 0, "duration": 67}, {"note": 64, "velocity": 76, "duration": 56}, {"note": 0, "velocity": 0, "duration": 64}, {"note": 64, "velocity": 71, "duration": 66}, {"note": 66, "velocity": 75, "duration": 65}, {"note": 68, "velocity": 102, "duration": 148}, {"note": 0, "velocity": 0, "duration": 92}, {"note": 73, "velocity": 117, "duration": 67}, {"note": 68, "velocity": 100, "duration": 110}, {"note": 0, "velocity": 0, "duration": 130}, {"note": 66, "velocity": 96, "duration": 258}, {"note": 0, "velocity": 0, "duration": 102}, {"note": 64, "velocity": 93, "duration": 158}, {"note": 0, "velocity": 0, "duration": 82}, {"note": 64, "velocity": 97, "duration": 154}, {"note": 0, "velocity": 0, "duration": 86}, {"note": 63, "velocity": 93, "duration": 147}, {"note": 0, "velocity": 0, "duration": 93}, {"note": 64, "velocity": 99, "duration": 109}, {"note": 63, "velocity": 99, "duration": 122}, {"note": 61, "velocity": 92, "duration": 475}, {"note": 0, "velocity": 0, "duration": 605}, {"note": 66, "velocity": 117, "duration": 41}, {"note": 0, "velocity": 0, "duration": 79}, {"note": 66, "velocity": 112, "duration": 49}, {"note": 0, "velocity": 0, "duration": 71}, {"note": 66, "velocity": 117, "duration": 40}, {"note": 0, "velocity": 0, "duration": 80}, {"note": 66, "velocity": 127, "duration": 155}, {"note": 0, "velocity": 0, "duration": 85}, {"note": 66, "velocity": 97, "duration": 43}, {"note": 0, "velocity": 0, "duration": 77}, {"note": 68, "velocity": 117, "duration": 313}, {"note": 66, "velocity": 107, "duration": 121}, {"note": 0, "velocity": 0, "duration": 239}, {"note": 64, "velocity": 107, "duration": 157}, {"note": 0, "velocity": 0, "duration": 83}, {"note": 66, "velocity": 112, "duration": 75}, {"note": 68, "velocity": 122, "duration": 138}, {"note": 0, "velocity": 0, "duration": 102}, {"note": 73, "velocity": 127, "duration": 62}, {"note": 71, "velocity": 117, "duration": 187}, {"note": 68, "velocity": 127, "duration": 159}, {"note": 0, "velocity": 0, "duration": 81}, {"note": 66, "velocity": 112, "duration": 103}, {"note": 68, "velocity": 127, "duration": 380}, {"note": 0, "velocity": 0, "duration": 700}, {"note": 73, "velocity": 93, "duration": 44}, {"note": 0, "velocity": 0, "duration": 76}, {"note": 73, "velocity": 99, "duration": 46}, {"note": 0, "velocity": 0, "duration": 74}, {"note": 73, "velocity": 112, "duration": 46}, {"note": 0, "velocity": 0, "duration": 74}, {"note": 73, "velocity": 117, "duration": 145}, {"note": 0, "velocity": 0, "duration": 95}, {"note": 73, "velocity": 112, "duration": 57}, {"note": 0, "velocity": 0, "duration": 63}, {"note": 75, "velocity": 127, "duration": 213}, {"note": 0, "velocity": 0, "duration": 147}, {"note": 75, "velocity": 122, "duration": 215}, {"note": 73, "velocity": 117, "duration": 102}, {"note": 73, "velocity": 127, "duration": 247}, {"note": 0, "velocity": 0, "duration": 113}, {"note": 71, "velocity": 127, "duration": 458}, {"note": 0, "velocity": 0, "duration": 1102}, {"note": 73, "velocity": 117, "duration": 35}, {"note": 0, "velocity": 0, "duration": 85}, {"note": 73, "velocity": 122, "duration": 58}, {"note": 0, "velocity": 0, "duration": 62}, {"note": 75, "velocity": 122, "duration": 50}, {"note": 0, "velocity": 0, "duration": 70}, {"note": 76, "velocity": 127, "duration": 157}, {"note": 0, "velocity": 0, "duration": 83}, {"note": 76, "velocity": 127, "duration": 147}, {"note": 0, "velocity": 0, "duration": 93}, {"note": 76, "velocity": 127, "duration": 148}, {"note": 0, "velocity": 0, "duration": 92}, {"note": 76, "velocity": 127, "duration": 60}, {"note": 0, "velocity": 0, "duration": 180}, {"note": 75, "velocity": 127, "duration": 485}, {"note": 0, "velocity": 0, "duration": 115}, {"note": 75, "velocity": 127, "duration": 37}, {"note": 0, "velocity": 0, "duration": 83}, {"note": 75, "velocity": 127, "duration": 66}, {"note": 76, "velocity": 102, "duration": 96}, {"note": 78, "velocity": 127, "duration": 134}, {"note": 0, "velocity": 0, "duration": 106}, {"note": 78, "velocity": 122, "duration": 154}, {"note": 0, "velocity": 0, "duration": 86}, {"note": 78, "velocity": 127, "duration": 178}, {"note": 0, "velocity": 0, "duration": 62}, {"note": 75, "velocity": 127, "duration": 222}, {"note": 73, "velocity": 127, "duration": 312}, {"note": 0, "velocity": 0, "duration": 288}, {"note": 73, "velocity": 127, "duration": 47}, {"note": 0, "velocity": 0, "duration": 73}, {"note": 73, "velocity": 127, "duration": 61}, {"note": 75, "velocity": 127, "duration": 60}, {"note": 76, "velocity": 127, "duration": 163}, {"note": 0, "velocity": 0, "duration": 77}, {"note": 69, "velocity": 102, "duration": 59}, {"note": 0, "velocity": 0, "duration": 61}, {"note": 69, "velocity": 122, "duration": 253}, {"note": 0, "velocity": 0, "duration": 227}, {"note": 76, "velocity": 127, "duration": 109}, {"note": 75, "velocity": 112, "duration": 166}, {"note": 0, "velocity": 0, "duration": 74}, {"note": 75, "velocity": 127, "duration": 175}, {"note": 0, "velocity": 0, "duration": 65}, {"note": 73, "velocity": 127, "duration": 141}, {"note": 0, "velocity": 0, "duration": 99}, {"note": 73, "velocity": 127, "duration": 172}, {"note": 0, "velocity": 0, "duration": 68}, {"note": 71, "velocity": 127, "duration": 352}, {"note": 0, "velocity": 0, "duration": 1208}, {"note": 73, "velocity": 117, "duration": 35}, {"note": 0, "velocity": 0, "duration": 85}, {"note": 73, "velocity": 122, "duration": 58}, {"note": 0, "velocity": 0, "duration": 62}, {"note": 75, "velocity": 122, "duration": 50}, {"note": 0, "velocity": 0, "duration": 70}, {"note": 76, "velocity": 127, "duration": 157}, {"note": 0, "velocity": 0, "duration": 83}, {"note": 76, "velocity": 127, "duration": 147}, {"note": 0, "velocity": 0, "duration": 93}, {"note": 76, "velocity": 127, "duration": 148}, {"note": 0, "velocity": 0, "duration": 92}, {"note": 76, "velocity": 127, "duration": 60}, {"note": 0, "velocity": 0, "duration": 180}, {"note": 75, "velocity": 127, "duration": 485}, {"note": 0, "velocity": 0, "duration": 115}, {"note": 75, "velocity": 127, "duration": 37}, {"note": 0, "velocity": 0, "duration": 83}, {"note": 75, "velocity": 127, "duration": 66}, {"note": 76, "velocity": 102, "duration": 96}, {"note": 78, "velocity": 127, "duration": 134}, {"note": 0, "velocity": 0, "duration": 106}, {"note": 78, "velocity": 122, "duration": 154}, {"note": 0, "velocity": 0, "duration": 86}, {"note": 78, "velocity": 127, "duration": 178}, {"note": 0, "velocity": 0, "duration": 62}, {"note": 75, "velocity": 127, "duration": 222}, {"note": 73, "velocity": 127, "duration": 312}, {"note": 0, "velocity": 0, "duration": 288}, {"note": 73, "velocity": 127, "duration": 47}, {"note": 0, "velocity": 0, "duration": 73}, {"note": 73, "velocity": 127, "duration": 61}, {"note": 75, "velocity": 127, "duration": 60}, {"note": 76, "velocity": 127, "duration": 163}, {"note": 0, "velocity": 0, "duration": 77}, {"note": 69, "velocity": 102, "duration": 59}, {"note": 0, "velocity": 0, "duration": 61}, {"note": 69, "velocity": 122, "duration": 253}, {"note": 0, "velocity": 0, "duration": 227}, {"note": 76, "velocity": 127, "duration": 109}, {"note": 75, "velocity": 112, "duration": 166}, {"note": 0, "velocity": 0, "duration": 74}, {"note": 75, "velocity": 127, "duration": 175}, {"note": 0, "velocity": 0, "duration": 65}, {"note": 76, "velocity": 127, "duration": 291}, {"note": 0, "velocity": 0, "duration": 69}, {"note": 75, "velocity": 117, "duration": 291}, {"note": 0, "velocity": 0, "duration": 69}, {"note": 73, "velocity": 122, "duration": 1031}, {"note": 0, "velocity": 0, "duration": 11929}, {"note": 68, "velocity": 97, "duration": 70}, {"note": 71, "velocity": 75, "duration": 86}, {"note": 73, "velocity": 97, "duration": 186}, {"note": 71, "velocity": 81, "duration": 71}, {"note": 68, "velocity": 77, "duration": 53}, {"note": 0, "velocity": 0, "duration": 67}, {"note": 68, "velocity": 96, "duration": 150}, {"note": 0, "velocity": 0, "duration": 90}, {"note": 71, "velocity": 82, "duration": 73}, {"note": 73, "velocity": 96, "duration": 511}, {"note": 0, "velocity": 0, "duration": 209}, {"note": 73, "velocity": 102, "duration": 70}, {"note": 73, "velocity": 122, "duration": 69}, {"note": 75, "velocity": 122, "duration": 60}, {"note": 76, "velocity": 127, "duration": 198}, {"note": 75, "velocity": 127, "duration": 69}, {"note": 73, "velocity": 107, "duration": 64}, {"note": 75, "velocity": 112, "duration": 160}, {"note": 0, "velocity": 0, "duration": 80}, {"note": 71, "velocity": 117, "duration": 163}, {"note": 0, "velocity": 0, "duration": 77}, {"note": 68, "velocity": 112, "duration": 735}, {"note": 0, "velocity": 0, "duration": 105}, {"note": 68, "velocity": 100, "duration": 77}, {"note": 73, "velocity": 127, "duration": 102}, {"note": 73, "velocity": 117, "duration": 84}, {"note": 0, "velocity": 0, "duration": 156}, {"note": 73, "velocity": 127, "duration": 52}, {"note": 0, "velocity": 0, "duration": 68}, {"note": 73, "velocity": 122, "duration": 95}, {"note": 73, "velocity": 107, "duration": 209}, {"note": 0, "velocity": 0, "duration": 151}, {"note": 71, "velocity": 102, "duration": 66}, {"note": 71, "velocity": 107, "duration": 81}, {"note": 0, "velocity": 0, "duration": 159}, {"note": 71, "velocity": 95, "duration": 68}, {"note": 73, "velocity": 112, "duration": 183}, {"note": 71, "velocity": 112, "duration": 172}, {"note": 0, "velocity": 0, "duration": 68}, {"note": 68, "velocity": 112, "duration": 585}, {"note": 0, "velocity": 0, "duration": 1095}, {"note": 68, "velocity": 102, "duration": 64}, {"note": 71, "velocity": 93, "duration": 68}, {"note": 73, "velocity": 100, "duration": 166}, {"note": 0, "velocity": 0, "duration": 74}, {"note": 71, "velocity": 92, "duration": 72}, {"note": 68, "velocity": 97, "duration": 58}, {"note": 0, "velocity": 0, "duration": 62}, {"note": 68, "velocity": 100, "duration": 159}, {"note": 0, "velocity": 0, "duration": 81}, {"note": 71, "velocity": 95, "duration": 73}, {"note": 73, "velocity": 102, "duration": 405}, {"note": 0, "velocity": 0, "duration": 315}, {"note": 73, "velocity": 112, "duration": 56}, {"note": 0, "velocity": 0, "duration": 64}, {"note": 73, "velocity": 100, "duration": 60}, {"note": 75, "velocity": 112, "duration": 58}, {"note": 0, "velocity": 0, "duration": 62}, {"note": 76, "velocity": 89, "duration": 147}, {"note": 0, "velocity": 0, "duration": 93}, {"note": 75, "velocity": 122, "duration": 87}, {"note": 73, "velocity": 102, "duration": 67}, {"note": 75, "velocity": 112, "duration": 113}, {"note": 0, "velocity": 0, "duration": 127}, {"note": 71, "velocity": 122, "duration": 182}, {"note": 68, "velocity": 102, "duration": 476}, {"note": 0, "velocity": 0, "duration": 244}, {"note": 68, "velocity": 112, "duration": 74}, {"note": 66, "velocity": 86, "duration": 72}, {"note": 68, "velocity": 100, "duration": 184}, {"note": 61, "velocity": 107, "duration": 110}, {"note": 64, "velocity": 93, "duration": 173}, {"note": 0, "velocity": 0, "duration": 67}, {"note": 64, "velocity": 76, "duration": 56}, {"note": 0, "velocity": 0, "duration": 64}, {"note": 64, "velocity": 71, "duration": 66}, {"note": 66, "velocity": 75, "duration": 65}, {"note": 68, "velocity": 102, "duration": 148}, {"note": 0, "velocity": 0, "duration": 92}, {"note": 73, "velocity": 117, "duration": 67}, {"note": 68, "velocity": 100, "duration": 110}, {"note": 0, "velocity": 0, "duration": 130}, {"note": 66, "velocity": 96, "duration": 258}, {"note": 0, "velocity": 0, "duration": 102}, {"note": 64, "velocity": 93, "duration": 158}, {"note": 0, "velocity": 0, "duration": 82}, {"note": 64, "velocity": 97, "duration": 154}, {"note": 0, "velocity": 0, "duration": 86}, {"note": 63, "velocity": 93, "duration": 147}, {"note": 0, "velocity": 0, "duration": 93}, {"note": 64, "velocity": 99, "duration": 109}, {"note": 63, "velocity": 99, "duration": 122}, {"note": 61, "velocity": 92, "duration": 475}, {"note": 0, "velocity": 0, "duration": 605}, {"note": 66, "velocity": 117, "duration": 41}, {"note": 0, "velocity": 0, "duration": 79}, {"note": 66, "velocity": 112, "duration": 49}, {"note": 0, "velocity": 0, "duration": 71}, {"note": 66, "velocity": 117, "duration": 40}, {"note": 0, "velocity": 0, "duration": 80}, {"note": 66, "velocity": 127, "duration": 155}, {"note": 0, "velocity": 0, "duration": 85}, {"note": 66, "velocity": 97, "duration": 43}, {"note": 0, "velocity": 0, "duration": 77}, {"note": 68, "velocity": 117, "duration": 313}, {"note": 66, "velocity": 107, "duration": 121}, {"note": 0, "velocity": 0, "duration": 239}, {"note": 64, "velocity": 107, "duration": 157}, {"note": 0, "velocity": 0, "duration": 83}, {"note": 66, "velocity": 112, "duration": 75}, {"note": 68, "velocity": 122, "duration": 138}, {"note": 0, "velocity": 0, "duration": 102}, {"note": 73, "velocity": 127, "duration": 62}, {"note": 71, "velocity": 117, "duration": 187}, {"note": 68, "velocity": 127, "duration": 159}, {"note": 0, "velocity": 0, "duration": 81}, {"note": 66, "velocity": 112, "duration": 103}, {"note": 68, "velocity": 127, "duration": 380}, {"note": 0, "velocity": 0, "duration": 700}, {"note": 73, "velocity": 93, "duration": 44}, {"note": 0, "velocity": 0, "duration": 76}, {"note": 73, "velocity": 99, "duration": 46}, {"note": 0, "velocity": 0, "duration": 74}, {"note": 73, "velocity": 112, "duration": 46}, {"note": 0, "velocity": 0, "duration": 74}, {"note": 73, "velocity": 117, "duration": 145}, {"note": 0, "velocity": 0, "duration": 95}, {"note": 73, "velocity": 112, "duration": 57}, {"note": 0, "velocity": 0, "duration": 63}, {"note": 75, "velocity": 127, "duration": 213}, {"note": 0, "velocity": 0, "duration": 147}, {"note": 75, "velocity": 122, "duration": 215}, {"note": 73, "velocity": 117, "duration": 102}, {"note": 73, "velocity": 127, "duration": 247}, {"note": 0, "velocity": 0, "duration": 113}, {"note": 71, "velocity": 127, "duration": 458}, {"note": 0, "velocity": 0, "duration": 1102}, {"note": 73, "velocity": 117, "duration": 35}, {"note": 0, "velocity": 0, "duration": 85}, {"note": 73, "velocity": 122, "duration": 58}, {"note": 0, "velocity": 0, "duration": 62}, {"note": 75, "velocity": 122, "duration": 50}, {"note": 0, "velocity": 0, "duration": 70}, {"note": 76, "velocity": 127, "duration": 157}, {"note": 0, "velocity": 0, "duration": 83}, {"note": 76, "velocity": 127, "duration": 147}, {"note": 0, "velocity": 0, "duration": 93}, {"note": 76, "velocity": 127, "duration": 148}, {"note": 0, "velocity": 0, "duration": 92}, {"note": 76, "velocity": 127, "duration": 60}, {"note": 0, "velocity": 0, "duration": 180}, {"note": 75, "velocity": 127, "duration": 485}, {"note": 0, "velocity": 0, "duration": 115}, {"note": 75, "velocity": 127, "duration": 37}, {"note": 0, "velocity": 0, "duration": 83}, {"note": 75, "velocity": 127, "duration": 66}, {"note": 76, "velocity": 102, "duration": 96}, {"note": 78, "velocity": 127, "duration": 134}, {"note": 0, "velocity": 0, "duration": 106}, {"note": 78, "velocity": 122, "duration": 154}, {"note": 0, "velocity": 0, "duration": 86}, {"note": 78, "velocity": 127, "duration": 178}, {"note": 0, "velocity": 0, "duration": 62}, {"note": 75, "velocity": 127, "duration": 222}, {"note": 73, "velocity": 127, "duration": 312}, {"note": 0, "velocity": 0, "duration": 288}, {"note": 73, "velocity": 127, "duration": 47}, {"note": 0, "velocity": 0, "duration": 73}, {"note": 73, "velocity": 127, "duration": 61}, {"note": 75, "velocity": 127, "duration": 60}, {"note": 76, "velocity": 127, "duration": 163}, {"note": 0, "velocity": 0, "duration": 77}, {"note": 69, "velocity": 102, "duration": 59}, {"note": 0, "velocity": 0, "duration": 61}, {"note": 69, "velocity": 122, "duration": 253}, {"note": 0, "velocity": 0, "duration": 227}, {"note": 76, "velocity": 127, "duration": 109}, {"note": 75, "velocity": 112, "duration": 166}, {"note": 0, "velocity": 0, "duration": 74}, {"note": 75, "velocity": 127, "duration": 175}, {"note": 0, "velocity": 0, "duration": 65}, {"note": 73, "velocity": 127, "duration": 141}, {"note": 0, "velocity": 0, "duration": 99}, {"note": 73, "velocity": 127, "duration": 172}, {"note": 0, "velocity": 0, "duration": 68}, {"note": 71, "velocity": 127, "duration": 352}, {"note": 0, "velocity": 0, "duration": 248}, {"note": 68, "velocity": 117, "duration": 95}, {"note": 71, "velocity": 112, "duration": 74}, {"note": 72, "velocity": 127, "duration": 590}, {"note": 0, "velocity": 0, "duration": 130}, {"note": 73, "velocity": 117, "duration": 35}, {"note": 0, "velocity": 0, "duration": 85}, {"note": 73, "velocity": 122, "duration": 58}, {"note": 0, "velocity": 0, "duration": 62}, {"note": 75, "velocity": 122, "duration": 50}, {"note": 0, "velocity": 0, "duration": 70}, {"note": 76, "velocity": 127, "duration": 157}, {"note": 0, "velocity": 0, "duration": 83}, {"note": 76, "velocity": 127, "duration": 147}, {"note": 0, "velocity": 0, "duration": 93}, {"note": 76, "velocity": 127, "duration": 148}, {"note": 0, "velocity": 0, "duration": 92}, {"note": 76, "velocity": 127, "duration": 60}, {"note": 0, "velocity": 0, "duration": 180}, {"note": 75, "velocity": 127, "duration": 485}, {"note": 0, "velocity": 0, "duration": 115}, {"note": 75, "velocity": 127, "duration": 37}, {"note": 0, "velocity": 0, "duration": 83}, {"note": 75, "velocity": 127, "duration": 66}, {"note": 76, "velocity": 102, "duration": 96}, {"note": 78, "velocity": 127, "duration": 134}, {"note": 0, "velocity": 0, "duration": 106}, {"note": 78, "velocity": 122, "duration": 154}, {"note": 0, "velocity": 0, "duration": 86}, {"note": 78, "velocity": 127, "duration": 178}, {"note": 0, "velocity": 0, "duration": 62}, {"note": 75, "velocity": 127, "duration": 222}, {"note": 73, "velocity": 127, "duration": 312}, {"note": 0, "velocity": 0, "duration": 288}, {"note": 73, "velocity": 127, "duration": 47}, {"note": 0, "velocity": 0, "duration": 73}, {"note": 73, "velocity": 127, "duration": 61}, {"note": 75, "velocity": 127, "duration": 60}, {"note": 76, "velocity": 127, "duration": 163}, {"note": 0, "velocity": 0, "duration": 77}, {"note": 69, "velocity": 102, "duration": 59}, {"note": 0, "velocity": 0, "duration": 61}, {"note": 69, "velocity": 122, "duration": 253}, {"note": 0, "velocity": 0, "duration": 227}, {"note": 76, "velocity": 127, "duration": 109}, {"note": 75, "velocity": 112, "duration": 166}, {"note": 0, "velocity": 0, "duration": 74}, {"note": 75, "velocity": 127, "duration": 175}, {"note": 0, "velocity": 0, "duration": 65}, {"note": 76, "velocity": 127, "duration": 291}, {"note": 0, "velocity": 0, "duration": 69}, {"note": 75, "velocity": 117, "duration": 291}, {"note": 0, "velocity": 0, "duration": 69}, {"note": 73, "velocity": 122, "duration": 1031}, {"note": 0, "velocity": 0, "duration": 289}, {"note": 73, "velocity": 117, "duration": 35}, {"note": 0, "velocity": 0, "duration": 85}, {"note": 73, "velocity": 122, "duration": 58}, {"note": 0, "velocity": 0, "duration": 62}, {"note": 75, "velocity": 122, "duration": 50}, {"note": 0, "velocity": 0, "duration": 70}, {"note": 76, "velocity": 127, "duration": 157}, {"note": 0, "velocity": 0, "duration": 83}, {"note": 76, "velocity": 127, "duration": 147}, {"note": 0, "velocity": 0, "duration": 93}, {"note": 76, "velocity": 127, "duration": 148}, {"note": 0, "velocity": 0, "duration": 92}, {"note": 76, "velocity": 127, "duration": 60}, {"note": 75, "velocity": 127, "duration": 485}, {"note": 0, "velocity": 0, "duration": 235}, {"note": 75, "velocity": 127, "duration": 37}, {"note": 0, "velocity": 0, "duration": 83}, {"note": 75, "velocity": 127, "duration": 66}, {"note": 76, "velocity": 102, "duration": 96}, {"note": 78, "velocity": 127, "duration": 134}, {"note": 0, "velocity": 0, "duration": 106}, {"note": 78, "velocity": 122, "duration": 154}, {"note": 0, "velocity": 0, "duration": 86}, {"note": 78, "velocity": 127, "duration": 178}, {"note": 0, "velocity": 0, "duration": 62}, {"note": 75, "velocity": 127, "duration": 111}, {"note": 73, "velocity": 127, "duration": 312}, {"note": 0, "velocity": 0, "duration": 408}, {"note": 73, "velocity": 127, "duration": 47}, {"note": 0, "velocity": 0, "duration": 73}, {"note": 73, "velocity": 127, "duration": 61}, {"note": 75, "velocity": 127, "duration": 60}, {"note": 76, "velocity": 127, "duration": 163}, {"note": 0, "velocity": 0, "duration": 77}, {"note": 69, "velocity": 102, "duration": 59}, {"note": 0, "velocity": 0, "duration": 61}, {"note": 69, "velocity": 122, "duration": 253}, {"note": 0, "velocity": 0, "duration": 227}, {"note": 76, "velocity": 127, "duration": 109}, {"note": 75, "velocity": 112, "duration": 166}, {"note": 0, "velocity": 0, "duration": 74}, {"note": 75, "velocity": 127, "duration": 175}, {"note": 0, "velocity": 0, "duration": 65}, {"note": 73, "velocity": 127, "duration": 141}, {"note": 0, "velocity": 0, "duration": 99}, {"note": 73, "velocity": 127, "duration": 172}, {"note": 0, "velocity": 0, "duration": 68}, {"note": 71, "velocity": 127, "duration": 352}, {"note": 0, "velocity": 0, "duration": 248}, {"note": 68, "velocity": 117, "duration": 95}, {"note": 71, "velocity": 112, "duration": 74}, {"note": 72, "velocity": 127, "duration": 590}, {"note": 0, "velocity": 0, "duration": 130}, {"note": 73, "velocity": 117, "duration": 35}, {"note": 0, "velocity": 0, "duration": 85}, {"note": 73, "velocity": 122, "duration": 58}, {"note": 0, "velocity": 0, "duration": 62}, {"note": 75, "velocity": 122, "duration": 50}, {"note": 0, "velocity": 0, "duration": 70}, {"note": 76, "velocity": 127, "duration": 157}, {"note": 0, "velocity": 0, "duration": 83}, {"note": 76, "velocity": 127, "duration": 147}, {"note": 0, "velocity": 0, "duration": 93}, {"note": 76, "velocity": 127, "duration": 148}, {"note": 0, "velocity": 0, "duration": 92}, {"note": 76, "velocity": 127, "duration": 60}, {"note": 0, "velocity": 0, "duration": 180}, {"note": 75, "velocity": 127, "duration": 485}, {"note": 0, "velocity": 0, "duration": 115}, {"note": 75, "velocity": 127, "duration": 37}, {"note": 0, "velocity": 0, "duration": 83}, {"note": 75, "velocity": 127, "duration": 66}, {"note": 76, "velocity": 102, "duration": 96}, {"note": 78, "velocity": 127, "duration": 134}, {"note": 0, "velocity": 0, "duration": 106}, {"note": 78, "velocity": 122, "duration": 154}, {"note": 0, "velocity": 0, "duration": 86}, {"note": 78, "velocity": 127, "duration": 178}, {"note": 0, "velocity": 0, "duration": 62}, {"note": 75, "velocity": 127, "duration": 222}, {"note": 73, "velocity": 127, "duration": 312}, {"note": 0, "velocity": 0, "duration": 288}, {"note": 73, "velocity": 127, "duration": 47}, {"note": 0, "velocity": 0, "duration": 73}, {"note": 73, "velocity": 127, "duration": 61}, {"note": 75, "velocity": 127, "duration": 60}, {"note": 76, "velocity": 127, "duration": 163}, {"note": 0, "velocity": 0, "duration": 77}, {"note": 69, "velocity": 102, "duration": 59}, {"note": 0, "velocity": 0, "duration": 61}, {"note": 69, "velocity": 122, "duration": 253}, {"note": 0, "velocity": 0, "duration": 227}, {"note": 76, "velocity": 127, "duration": 109}, {"note": 75, "velocity": 112, "duration": 166}, {"note": 0, "velocity": 0, "duration": 74}, {"note": 75, "velocity": 127, "duration": 175}, {"note": 0, "velocity": 0, "duration": 65}, {"note": 76, "velocity": 127, "duration": 291}, {"note": 0, "velocity": 0, "duration": 69}, {"note": 75, "velocity": 117, "duration": 291}, {"note": 0, "velocity": 0, "duration": 69}, {"note": 73, "velocity": 122, "duration": 1031}]]