[[{"note": 57, "velocity": 96, "duration": 61}, {"note": 57, "velocity": 95, "duration": 117}, {"note": 59, "velocity": 95, "duration": 134}, {"note": 62, "velocity": 102, "duration": 37}, {"note": 0, "velocity": 0, "duration": 83}, {"note": 62, "velocity": 117, "duration": 502}, {"note": 62, "velocity": 107, "duration": 22}, {"note": 0, "velocity": 0, "duration": 218}, {"note": 64, "velocity": 96, "duration": 127}, {"note": 66, "velocity": 102, "duration": 144}, {"note": 66, "velocity": 127, "duration": 24}, {"note": 0, "velocity": 0, "duration": 576}, {"note": 66, "velocity": 112, "duration": 144}, {"note": 69, "velocity": 93, "duration": 77}, {"note": 71, "velocity": 96, "duration": 69}, {"note": 74, "velocity": 107, "duration": 529}, {"note": 69, "velocity": 112, "duration": 137}, {"note": 71, "velocity": 102, "duration": 123}, {"note": 69, "velocity": 92, "duration": 108}, {"note": 66, "velocity": 93, "duration": 543}, {"note": 0, "velocity": 0, "duration": 177}, {"note": 66, "velocity": 107, "duration": 124}, {"note": 69, "velocity": 89, "duration": 134}, {"note": 66, "velocity": 107, "duration": 116}, {"note": 64, "velocity": 90, "duration": 440}, {"note": 66, "velocity": 112, "duration": 115}, {"note": 64, "velocity": 82, "duration": 134}, {"note": 62, "velocity": 72, "duration": 103}, {"note": 59, "velocity": 86, "duration": 501}, {"note": 0, "velocity": 0, "duration": 219}, {"note": 59, "velocity": 96, "duration": 110}, {"note": 62, "velocity": 88, "duration": 111}, {"note": 64, "velocity": 88, "duration": 79}, {"note": 64, "velocity": 90, "duration": 405}, {"note": 0, "velocity": 0, "duration": 75}, {"note": 66, "velocity": 100, "duration": 118}, {"note": 64, "velocity": 95, "duration": 126}, {"note": 62, "velocity": 89, "duration": 134}, {"note": 57, "velocity": 93, "duration": 519}, {"note": 0, "velocity": 0, "duration": 1041}, {"note": 57, "velocity": 70, "duration": 114}, {"note": 59, "velocity": 86, "duration": 115}, {"note": 57, "velocity": 82, "duration": 133}, {"note": 62, "velocity": 100, "duration": 85}, {"note": 62, "velocity": 102, "duration": 391}, {"note": 0, "velocity": 0, "duration": 89}, {"note": 62, "velocity": 97, "duration": 69}, {"note": 62, "velocity": 95, "duration": 121}, {"note": 64, "velocity": 86, "duration": 125}, {"note": 66, "velocity": 107, "duration": 70}, {"note": 66, "velocity": 112, "duration": 459}, {"note": 0, "velocity": 0, "duration": 141}, {"note": 66, "velocity": 100, "duration": 97}, {"note": 69, "velocity": 89, "duration": 90}, {"note": 71, "velocity": 97, "duration": 56}, {"note": 0, "velocity": 0, "duration": 64}, {"note": 74, "velocity": 102, "duration": 338}, {"note": 0, "velocity": 0, "duration": 142}, {"note": 69, "velocity": 93, "duration": 101}, {"note": 71, "velocity": 97, "duration": 122}, {"note": 69, "velocity": 93, "duration": 121}, {"note": 66, "velocity": 97, "duration": 679}, {"note": 66, "velocity": 122, "duration": 105}, {"note": 69, "velocity": 90, "duration": 116}, {"note": 64, "velocity": 93, "duration": 78}, {"note": 64, "velocity": 96, "duration": 287}, {"note": 0, "velocity": 0, "duration": 193}, {"note": 66, "velocity": 127, "duration": 110}, {"note": 64, "velocity": 92, "duration": 128}, {"note": 62, "velocity": 96, "duration": 110}, {"note": 59, "velocity": 93, "duration": 497}, {"note": 0, "velocity": 0, "duration": 223}, {"note": 59, "velocity": 100, "duration": 101}, {"note": 62, "velocity": 92, "duration": 99}, {"note": 64, "velocity": 95, "duration": 69}, {"note": 64, "velocity": 96, "duration": 393}, {"note": 0, "velocity": 0, "duration": 87}, {"note": 66, "velocity": 107, "duration": 126}, {"note": 64, "velocity": 82, "duration": 120}, {"note": 66, "velocity": 93, "duration": 105}, {"note": 69, "velocity": 99, "duration": 1002}, {"note": 0, "velocity": 0, "duration": 558}, {"note": 74, "velocity": 93, "duration": 60}, {"note": 74, "velocity": 90, "duration": 58}, {"note": 0, "velocity": 0, "duration": 62}, {"note": 74, "velocity": 96, "duration": 119}, {"note": 76, "velocity": 117, "duration": 101}, {"note": 76, "velocity": 122, "duration": 485}, {"note": 0, "velocity": 0, "duration": 115}, {"note": 76, "velocity": 117, "duration": 119}, {"note": 74, "velocity": 92, "duration": 123}, {"note": 76, "velocity": 122, "duration": 141}, {"note": 78, "velocity": 127, "duration": 375}, {"note": 0, "velocity": 0, "duration": 225}, {"note": 78, "velocity": 117, "duration": 67}, {"note": 78, "velocity": 96, "duration": 126}, {"note": 76, "velocity": 102, "duration": 57}, {"note": 0, "velocity": 0, "duration": 63}, {"note": 76, "velocity": 99, "duration": 346}, {"note": 74, "velocity": 102, "duration": 96}, {"note": 76, "velocity": 117, "duration": 121}, {"note": 74, "velocity": 99, "duration": 113}, {"note": 71, "velocity": 93, "duration": 146}, {"note": 74, "velocity": 100, "duration": 842}, {"note": 69, "velocity": 89, "duration": 82}, {"note": 69, "velocity": 97, "duration": 117}, {"note": 71, "velocity": 112, "duration": 92}, {"note": 71, "velocity": 112, "duration": 410}, {"note": 0, "velocity": 0, "duration": 70}, {"note": 69, "velocity": 100, "duration": 153}, {"note": 71, "velocity": 112, "duration": 117}, {"note": 69, "velocity": 97, "duration": 129}, {"note": 66, "velocity": 99, "duration": 504}, {"note": 0, "velocity": 0, "duration": 216}, {"note": 59, "velocity": 96, "duration": 130}, {"note": 62, "velocity": 99, "duration": 123}, {"note": 64, "velocity": 89, "duration": 94}, {"note": 64, "velocity": 102, "duration": 371}, {"note": 0, "velocity": 0, "duration": 109}, {"note": 66, "velocity": 112, "duration": 134}, {"note": 64, "velocity": 96, "duration": 127}, {"note": 66, "velocity": 112, "duration": 107}, {"note": 69, "velocity": 107, "duration": 519}, {"note": 0, "velocity": 0, "duration": 81}, {"note": 74, "velocity": 100, "duration": 62}, {"note": 74, "velocity": 92, "duration": 59}, {"note": 0, "velocity": 0, "duration": 61}, {"note": 74, "velocity": 95, "duration": 93}, {"note": 76, "velocity": 117, "duration": 73}, {"note": 76, "velocity": 117, "duration": 360}, {"note": 0, "velocity": 0, "duration": 240}, {"note": 76, "velocity": 127, "duration": 109}, {"note": 74, "velocity": 77, "duration": 97}, {"note": 76, "velocity": 117, "duration": 114}, {"note": 78, "velocity": 99, "duration": 438}, {"note": 0, "velocity": 0, "duration": 162}, {"note": 78, "velocity": 127, "duration": 73}, {"note": 78, "velocity": 93, "duration": 121}, {"note": 76, "velocity": 107, "duration": 70}, {"note": 76, "velocity": 107, "duration": 352}, {"note": 74, "velocity": 107, "duration": 74}, {"note": 76, "velocity": 99, "duration": 106}, {"note": 74, "velocity": 95, "duration": 119}, {"note": 71, "velocity": 90, "duration": 135}, {"note": 74, "velocity": 127, "duration": 442}, {"note": 0, "velocity": 0, "duration": 278}, {"note": 69, "velocity": 82, "duration": 70}, {"note": 69, "velocity": 92, "duration": 59}, {"note": 0, "velocity": 0, "duration": 61}, {"note": 69, "velocity": 90, "duration": 127}, {"note": 71, "velocity": 122, "duration": 81}, {"note": 71, "velocity": 117, "duration": 332}, {"note": 0, "velocity": 0, "duration": 148}, {"note": 69, "velocity": 100, "duration": 80}, {"note": 71, "velocity": 100, "duration": 119}, {"note": 69, "velocity": 96, "duration": 54}, {"note": 0, "velocity": 0, "duration": 66}, {"note": 66, "velocity": 117, "duration": 463}, {"note": 0, "velocity": 0, "duration": 257}, {"note": 66, "velocity": 112, "duration": 90}, {"note": 69, "velocity": 81, "duration": 133}, {"note": 64, "velocity": 81, "duration": 77}, {"note": 64, "velocity": 95, "duration": 381}, {"note": 0, "velocity": 0, "duration": 99}, {"note": 66, "velocity": 122, "duration": 104}, {"note": 64, "velocity": 92, "duration": 121}, {"note": 62, "velocity": 92, "duration": 133}, {"note": 57, "velocity": 100, "duration": 511}, {"note": 0, "velocity": 0, "duration": 209}, {"note": 59, "velocity": 93, "duration": 150}, {"note": 62, "velocity": 102, "duration": 968}, {"note": 0, "velocity": 0, "duration": 6472}, {"note": 57, "velocity": 70, "duration": 114}, {"note": 57, "velocity": 97, "duration": 73}, {"note": 57, "velocity": 82, "duration": 133}, {"note": 62, "velocity": 100, "duration": 85}, {"note": 62, "velocity": 102, "duration": 391}, {"note": 0, "velocity": 0, "duration": 89}, {"note": 62, "velocity": 97, "duration": 69}, {"note": 62, "velocity": 95, "duration": 121}, {"note": 64, "velocity": 86, "duration": 125}, {"note": 66, "velocity": 107, "duration": 70}, {"note": 66, "velocity": 112, "duration": 459}, {"note": 0, "velocity": 0, "duration": 141}, {"note": 66, "velocity": 100, "duration": 97}, {"note": 69, "velocity": 89, "duration": 90}, {"note": 71, "velocity": 97, "duration": 56}, {"note": 0, "velocity": 0, "duration": 64}, {"note": 74, "velocity": 102, "duration": 338}, {"note": 0, "velocity": 0, "duration": 142}, {"note": 69, "velocity": 93, "duration": 101}, {"note": 71, "velocity": 97, "duration": 122}, {"note": 69, "velocity": 93, "duration": 121}, {"note": 66, "velocity": 97, "duration": 679}, {"note": 66, "velocity": 122, "duration": 105}, {"note": 69, "velocity": 90, "duration": 116}, {"note": 64, "velocity": 93, "duration": 78}, {"note": 64, "velocity": 96, "duration": 287}, {"note": 0, "velocity": 0, "duration": 193}, {"note": 66, "velocity": 127, "duration": 110}, {"note": 64, "velocity": 92, "duration": 128}, {"note": 62, "velocity": 96, "duration": 110}, {"note": 59, "velocity": 93, "duration": 497}, {"note": 0, "velocity": 0, "duration": 223}, {"note": 59, "velocity": 100, "duration": 101}, {"note": 62, "velocity": 92, "duration": 99}, {"note": 64, "velocity": 95, "duration": 69}, {"note": 64, "velocity": 96, "duration": 393}, {"note": 0, "velocity": 0, "duration": 87}, {"note": 66, "velocity": 107, "duration": 126}, {"note": 64, "velocity": 82, "duration": 120}, {"note": 62, "velocity": 97, "duration": 100}, {"note": 59, "velocity": 83, "duration": 107}, {"note": 57, "velocity": 92, "duration": 357}, {"note": 0, "velocity": 0, "duration": 1083}, {"note": 74, "velocity": 93, "duration": 60}, {"note": 74, "velocity": 90, "duration": 58}, {"note": 0, "velocity": 0, "duration": 62}, {"note": 74, "velocity": 96, "duration": 119}, {"note": 76, "velocity": 117, "duration": 101}, {"note": 76, "velocity": 122, "duration": 485}, {"note": 0, "velocity": 0, "duration": 115}, {"note": 76, "velocity": 117, "duration": 119}, {"note": 74, "velocity": 92, "duration": 123}, {"note": 76, "velocity": 122, "duration": 141}, {"note": 78, "velocity": 127, "duration": 375}, {"note": 0, "velocity": 0, "duration": 225}, {"note": 78, "velocity": 117, "duration": 67}, {"note": 78, "velocity": 96, "duration": 126}, {"note": 76, "velocity": 102, "duration": 57}, {"note": 0, "velocity": 0, "duration": 63}, {"note": 76, "velocity": 99, "duration": 346}, {"note": 74, "velocity": 102, "duration": 96}, {"note": 76, "velocity": 117, "duration": 121}, {"note": 74, "velocity": 99, "duration": 113}, {"note": 71, "velocity": 93, "duration": 146}, {"note": 74, "velocity": 100, "duration": 842}, {"note": 69, "velocity": 89, "duration": 82}, {"note": 69, "velocity": 97, "duration": 117}, {"note": 71, "velocity": 112, "duration": 92}, {"note": 71, "velocity": 112, "duration": 410}, {"note": 0, "velocity": 0, "duration": 70}, {"note": 69, "velocity": 100, "duration": 153}, {"note": 71, "velocity": 112, "duration": 117}, {"note": 69, "velocity": 97, "duration": 129}, {"note": 66, "velocity": 99, "duration": 504}, {"note": 0, "velocity": 0, "duration": 216}, {"note": 59, "velocity": 96, "duration": 130}, {"note": 62, "velocity": 99, "duration": 123}, {"note": 64, "velocity": 89, "duration": 94}, {"note": 64, "velocity": 102, "duration": 371}, {"note": 0, "velocity": 0, "duration": 109}, {"note": 66, "velocity": 112, "duration": 134}, {"note": 64, "velocity": 96, "duration": 127}, {"note": 66, "velocity": 112, "duration": 107}, {"note": 69, "velocity": 107, "duration": 519}, {"note": 0, "velocity": 0, "duration": 81}, {"note": 74, "velocity": 100, "duration": 62}, {"note": 74, "velocity": 92, "duration": 59}, {"note": 0, "velocity": 0, "duration": 61}, {"note": 74, "velocity": 95, "duration": 93}, {"note": 76, "velocity": 117, "duration": 73}, {"note": 76, "velocity": 117, "duration": 360}, {"note": 0, "velocity": 0, "duration": 240}, {"note": 76, "velocity": 127, "duration": 109}, {"note": 74, "velocity": 77, "duration": 97}, {"note": 76, "velocity": 117, "duration": 114}, {"note": 78, "velocity": 99, "duration": 438}, {"note": 0, "velocity": 0, "duration": 162}, {"note": 78, "velocity": 127, "duration": 73}, {"note": 78, "velocity": 93, "duration": 121}, {"note": 76, "velocity": 107, "duration": 70}, {"note": 76, "velocity": 107, "duration": 352}, {"note": 74, "velocity": 107, "duration": 74}, {"note": 76, "velocity": 99, "duration": 106}, {"note": 74, "velocity": 95, "duration": 119}, {"note": 71, "velocity": 90, "duration": 135}, {"note": 74, "velocity": 127, "duration": 442}, {"note": 0, "velocity": 0, "duration": 278}, {"note": 69, "velocity": 82, "duration": 70}, {"note": 69, "velocity": 92, "duration": 59}, {"note": 0, "velocity": 0, "duration": 61}, {"note": 69, "velocity": 90, "duration": 127}, {"note": 71, "velocity": 122, "duration": 81}, {"note": 71, "velocity": 117, "duration": 332}, {"note": 0, "velocity": 0, "duration": 148}, {"note": 69, "velocity": 100, "duration": 80}, {"note": 71, "velocity": 100, "duration": 119}, {"note": 69, "velocity": 96, "duration": 54}, {"note": 0, "velocity": 0, "duration": 66}, {"note": 66, "velocity": 117, "duration": 463}, {"note": 0, "velocity": 0, "duration": 257}, {"note": 66, "velocity": 112, "duration": 90}, {"note": 69, "velocity": 81, "duration": 133}, {"note": 64, "velocity": 81, "duration": 77}, {"note": 64, "velocity": 95, "duration": 381}, {"note": 0, "velocity": 0, "duration": 99}, {"note": 66, "velocity": 122, "duration": 104}, {"note": 64, "velocity": 92, "duration": 121}, {"note": 62, "velocity": 92, "duration": 133}, {"note": 69, "velocity": 95, "duration": 630}, {"note": 0, "velocity": 0, "duration": 930}, {"note": 57, "velocity": 70, "duration": 114}, {"note": 57, "velocity": 97, "duration": 73}, {"note": 57, "velocity": 82, "duration": 133}, {"note": 62, "velocity": 100, "duration": 85}, {"note": 62, "velocity": 102, "duration": 391}, {"note": 0, "velocity": 0, "duration": 89}, {"note": 62, "velocity": 97, "duration": 69}, {"note": 62, "velocity": 95, "duration": 121}, {"note": 64, "velocity": 86, "duration": 125}, {"note": 66, "velocity": 107, "duration": 70}, {"note": 66, "velocity": 112, "duration": 459}, {"note": 0, "velocity": 0, "duration": 141}, {"note": 66, "velocity": 100, "duration": 97}, {"note": 69, "velocity": 89, "duration": 90}, {"note": 71, "velocity": 97, "duration": 56}, {"note": 0, "velocity": 0, "duration": 64}, {"note": 74, "velocity": 102, "duration": 338}, {"note": 0, "velocity": 0, "duration": 142}, {"note": 69, "velocity": 93, "duration": 101}, {"note": 71, "velocity": 97, "duration": 122}, {"note": 69, "velocity": 93, "duration": 121}, {"note": 66, "velocity": 97, "duration": 679}, {"note": 66, "velocity": 122, "duration": 105}, {"note": 69, "velocity": 90, "duration": 116}, {"note": 64, "velocity": 93, "duration": 78}, {"note": 64, "velocity": 96, "duration": 287}, {"note": 0, "velocity": 0, "duration": 193}, {"note": 66, "velocity": 127, "duration": 110}, {"note": 64, "velocity": 92, "duration": 128}, {"note": 62, "velocity": 96, "duration": 110}, {"note": 59, "velocity": 93, "duration": 497}, {"note": 0, "velocity": 0, "duration": 223}, {"note": 59, "velocity": 100, "duration": 101}, {"note": 62, "velocity": 92, "duration": 99}, {"note": 64, "velocity": 95, "duration": 69}, {"note": 64, "velocity": 96, "duration": 393}, {"note": 0, "velocity": 0, "duration": 87}, {"note": 66, "velocity": 107, "duration": 126}, {"note": 64, "velocity": 82, "duration": 120}, {"note": 62, "velocity": 97, "duration": 100}, {"note": 57, "velocity": 92, "duration": 357}, {"note": 0, "velocity": 0, "duration": 363}, {"note": 59, "velocity": 85, "duration": 125}, {"note": 62, "velocity": 100, "duration": 1687}, {"note": 0, "velocity": 0, "duration": 113}, {"note": 66, "velocity": 122, "duration": 99}, {"note": 69, "velocity": 82, "duration": 119}, {"note": 64, "velocity": 93, "duration": 82}, {"note": 64, "velocity": 99, "duration": 402}, {"note": 0, "velocity": 0, "duration": 78}, {"note": 66, "velocity": 102, "duration": 104}, {"note": 64, "velocity": 97, "duration": 122}, {"note": 62, "velocity": 95, "duration": 123}, {"note": 57, "velocity": 90, "duration": 577}, {"note": 0, "velocity": 0, "duration": 143}, {"note": 59, "velocity": 96, "duration": 80}, {"note": 59, "velocity": 79, "duration": 114}, {"note": 62, "velocity": 107, "duration": 1238}, {"note": 0, "velocity": 0, "duration": 442}, {"note": 66, "velocity": 102, "duration": 91}, {"note": 69, "velocity": 93, "duration": 84}, {"note": 71, "velocity": 127, "duration": 232}, {"note": 69, "velocity": 112, "duration": 487}, {"note": 0, "velocity": 0, "duration": 1913}, {"note": 66, "velocity": 100, "duration": 86}, {"note": 69, "velocity": 88, "duration": 89}, {"note": 71, "velocity": 99, "duration": 216}, {"note": 69, "velocity": 93, "duration": 786}, {"note": 0, "velocity": 0, "duration": 654}, {"note": 74, "velocity": 99, "duration": 117}, {"note": 76, "velocity": 85, "duration": 111}, {"note": 78, "velocity": 117, "duration": 118}, {"note": 74, "velocity": 99, "duration": 111}]]